0, 0, Header, 1, 2, 480
1, 0, Start_track
1, 0, Time_signature, 4, 2, 24, 8
1, 0, Tempo, 500000
1, 0, Title_t,"untitled"
1, 0, SMPTE_offset, 96, 0, 3, 0, 0
1, 0, End_track
2, 0, Start_track
2, 0, MIDI_port, 0
2, 0, Control_c, 0, 7, 100
2, 0, Control_c, 0, 10, 74
2, 0, Note_on_c, 0, 55, 100
2, 0, Note_on_c, 0, 72, 100
2, 0, Note_on_c, 0, 79, 100
2, 60, Note_on_c, 0, 55, 0
2, 60, Note_on_c, 0, 79, 0
2, 60, Note_on_c, 0, 54, 100
2, 60, Note_on_c, 0, 81, 100
2, 120, Note_on_c, 0, 72, 0
2, 240, Note_on_c, 0, 81, 0
2, 240, Note_on_c, 0, 79, 100
2, 360, Note_on_c, 0, 54, 0
2, 360, Note_on_c, 0, 55, 100
2, 360, Note_on_c, 0, 62, 100
2, 420, Note_on_c, 0, 55, 0
2, 420, Note_on_c, 0, 57, 100
2, 420, Note_on_c, 0, 61, 100
2, 480, Note_on_c, 0, 79, 0
2, 480, Note_on_c, 0, 61, 0
2, 480, Note_on_c, 0, 78, 100
2, 600, Note_on_c, 0, 78, 0
2, 600, Note_on_c, 0, 76, 100
2, 660, Note_on_c, 0, 62, 0
2, 660, Note_on_c, 0, 76, 0
2, 660, Note_on_c, 0, 47, 100
2, 660, Note_on_c, 0, 55, 100
2, 660, Note_on_c, 0, 69, 100
2, 720, Note_on_c, 0, 57, 0
2, 720, Note_on_c, 0, 69, 0
2, 720, Note_on_c, 0, 71, 100
2, 780, Note_on_c, 0, 47, 0
2, 780, Note_on_c, 0, 71, 0
2, 780, Note_on_c, 0, 50, 100
2, 780, Note_on_c, 0, 62, 100
2, 780, Note_on_c, 0, 66, 100
2, 780, Note_on_c, 0, 74, 100
2, 840, Note_on_c, 0, 55, 0
2, 1560, Note_on_c, 0, 50, 0
2, 1560, Note_on_c, 0, 66, 0
2, 1560, Note_on_c, 0, 59, 100
2, 1560, Note_on_c, 0, 64, 100
2, 1560, Note_on_c, 0, 81, 100
2, 1620, Note_on_c, 0, 62, 0
2, 1620, Note_on_c, 0, 81, 0
2, 1620, Note_on_c, 0, 47, 100
2, 1680, Note_on_c, 0, 74, 0
2, 1920, Note_on_c, 0, 59, 0
2, 1920, Note_on_c, 0, 47, 0
2, 1920, Note_on_c, 0, 57, 100
2, 1920, Note_on_c, 0, 61, 100
2, 1920, Note_on_c, 0, 79, 100
2, 1980, Note_on_c, 0, 64, 0
2, 2100, Note_on_c, 0, 61, 0
2, 2100, Note_on_c, 0, 62, 100
2, 2100, Note_on_c, 0, 78, 100
2, 2160, Note_on_c, 0, 79, 0
2, 2160, Note_on_c, 0, 78, 0
2, 2160, Note_on_c, 0, 76, 100
2, 2280, Note_on_c, 0, 62, 0
2, 2280, Note_on_c, 0, 64, 100
2, 2280, Note_on_c, 0, 74, 100
2, 2340, Note_on_c, 0, 76, 0
2, 2340, Note_on_c, 0, 74, 0
2, 2340, Note_on_c, 0, 73, 100
2, 2520, Note_on_c, 0, 57, 0
2, 2520, Note_on_c, 0, 73, 0
2, 2520, Note_on_c, 0, 52, 100
2, 2520, Note_on_c, 0, 59, 100
2, 2520, Note_on_c, 0, 76, 100
2, 2520, Note_on_c, 0, 79, 100
2, 2580, Note_on_c, 0, 59, 0
2, 2580, Note_on_c, 0, 79, 0
2, 2580, Note_on_c, 0, 81, 100
2, 2640, Note_on_c, 0, 76, 0
2, 2640, Note_on_c, 0, 79, 100
2, 2700, Note_on_c, 0, 81, 0
2, 2700, Note_on_c, 0, 78, 100
2, 2760, Note_on_c, 0, 52, 0
2, 2760, Note_on_c, 0, 78, 0
2, 2820, Note_on_c, 0, 79, 0
2, 2820, Note_on_c, 0, 52, 100
2, 2820, Note_on_c, 0, 81, 100
2, 2880, Note_on_c, 0, 81, 0
2, 2880, Note_on_c, 0, 79, 100
2, 2940, Note_on_c, 0, 52, 0
2, 2940, Note_on_c, 0, 54, 100
2, 2940, Note_on_c, 0, 81, 100
2, 3000, Note_on_c, 0, 79, 0
2, 3000, Note_on_c, 0, 81, 0
2, 3060, Note_on_c, 0, 79, 100
2, 3120, Note_on_c, 0, 79, 0
2, 3120, Note_on_c, 0, 81, 100
2, 3180, Note_on_c, 0, 81, 0
2, 3240, Note_on_c, 0, 79, 100
2, 3300, Note_on_c, 0, 79, 0
2, 3300, Note_on_c, 0, 81, 100
2, 3360, Note_on_c, 0, 81, 0
2, 3420, Note_on_c, 0, 79, 100
2, 3480, Note_on_c, 0, 54, 0
2, 3480, Note_on_c, 0, 52, 100
2, 3480, Note_on_c, 0, 81, 100
2, 3540, Note_on_c, 0, 81, 0
2, 3600, Note_on_c, 0, 79, 0
2, 3600, Note_on_c, 0, 54, 100
2, 3600, Note_on_c, 0, 81, 100
2, 3660, Note_on_c, 0, 64, 0
2, 3660, Note_on_c, 0, 54, 0
2, 3660, Note_on_c, 0, 55, 100
2, 3660, Note_on_c, 0, 62, 100
2, 3660, Note_on_c, 0, 78, 100
2, 3720, Note_on_c, 0, 52, 0
2, 3720, Note_on_c, 0, 78, 0
2, 3720, Note_on_c, 0, 79, 100
2, 3780, Note_on_c, 0, 81, 0
2, 3780, Note_on_c, 0, 79, 0
2, 3840, Note_on_c, 0, 55, 0
2, 3840, Note_on_c, 0, 57, 100
2, 3840, Note_on_c, 0, 61, 100
2, 3840, Note_on_c, 0, 79, 100
2, 3900, Note_on_c, 0, 62, 0
2, 4080, Note_on_c, 0, 61, 0
2, 4080, Note_on_c, 0, 62, 100
2, 4080, Note_on_c, 0, 78, 100
2, 4140, Note_on_c, 0, 79, 0
2, 4140, Note_on_c, 0, 78, 0
2, 4140, Note_on_c, 0, 76, 100
2, 4260, Note_on_c, 0, 62, 0
2, 4260, Note_on_c, 0, 64, 100
2, 4260, Note_on_c, 0, 74, 100
2, 4320, Note_on_c, 0, 76, 0
2, 4320, Note_on_c, 0, 74, 0
2, 4320, Note_on_c, 0, 73, 100
2, 4380, Note_on_c, 0, 57, 0
2, 4380, Note_on_c, 0, 73, 0
2, 4380, Note_on_c, 0, 59, 100
2, 4380, Note_on_c, 0, 74, 100
2, 4440, Note_on_c, 0, 74, 0
2, 4440, Note_on_c, 0, 73, 100
2, 4500, Note_on_c, 0, 73, 0
2, 4500, Note_on_c, 0, 74, 100
2, 4560, Note_on_c, 0, 74, 0
2, 4620, Note_on_c, 0, 59, 0
2, 4620, Note_on_c, 0, 57, 100
2, 4620, Note_on_c, 0, 73, 100
2, 4740, Note_on_c, 0, 57, 0
2, 4740, Note_on_c, 0, 55, 100
2, 4740, Note_on_c, 0, 76, 100
2, 4800, Note_on_c, 0, 64, 0
2, 4800, Note_on_c, 0, 55, 0
2, 4800, Note_on_c, 0, 57, 100
2, 4800, Note_on_c, 0, 66, 100
2, 4800, Note_on_c, 0, 74, 100
2, 4860, Note_on_c, 0, 73, 0
2, 4860, Note_on_c, 0, 57, 0
2, 4860, Note_on_c, 0, 74, 0
2, 4860, Note_on_c, 0, 55, 100
2, 4860, Note_on_c, 0, 72, 100
2, 4860, Note_on_c, 0, 78, 100
2, 4920, Note_on_c, 0, 76, 0
2, 4980, Note_on_c, 0, 66, 0
2, 5040, Note_on_c, 0, 78, 0
2, 5040, Note_on_c, 0, 79, 100
2, 5100, Note_on_c, 0, 55, 0
2, 5100, Note_on_c, 0, 79, 0
2, 5100, Note_on_c, 0, 54, 100
2, 5100, Note_on_c, 0, 81, 100
2, 5160, Note_on_c, 0, 72, 0
2, 5160, Note_on_c, 0, 81, 0
2, 5160, Note_on_c, 0, 79, 100
2, 5340, Note_on_c, 0, 79, 0
2, 5340, Note_on_c, 0, 78, 100
2, 5400, Note_on_c, 0, 78, 0
2, 5400, Note_on_c, 0, 76, 100
2, 5640, Note_on_c, 0, 54, 0
2, 5640, Note_on_c, 0, 47, 100
2, 5640, Note_on_c, 0, 55, 100
2, 5760, Note_on_c, 0, 76, 0
2, 5760, Note_on_c, 0, 67, 100
2, 5820, Note_on_c, 0, 55, 0
2, 5820, Note_on_c, 0, 59, 100
2, 5820, Note_on_c, 0, 66, 100
2, 5880, Note_on_c, 0, 67, 0
2, 5940, Note_on_c, 0, 66, 0
2, 5940, Note_on_c, 0, 64, 100
2, 6000, Note_on_c, 0, 47, 0
2, 6000, Note_on_c, 0, 64, 0
2, 6000, Note_on_c, 0, 45, 100
2, 6000, Note_on_c, 0, 66, 100
2, 6060, Note_on_c, 0, 59, 0
2, 6240, Note_on_c, 0, 45, 0
2, 6240, Note_on_c, 0, 57, 100
2, 6240, Note_on_c, 0, 64, 100
2, 6240, Note_on_c, 0, 81, 100
2, 6300, Note_on_c, 0, 66, 0
2, 6300, Note_on_c, 0, 81, 0
2, 6300, Note_on_c, 0, 79, 100
2, 6360, Note_on_c, 0, 79, 0
2, 6360, Note_on_c, 0, 71, 100
2, 6480, Note_on_c, 0, 71, 0
2, 6480, Note_on_c, 0, 73, 100
2, 6540, Note_on_c, 0, 57, 0
2, 6540, Note_on_c, 0, 73, 0
2, 6540, Note_on_c, 0, 55, 100
2, 6540, Note_on_c, 0, 76, 100
2, 6600, Note_on_c, 0, 55, 0
2, 6600, Note_on_c, 0, 52, 100
2, 6600, Note_on_c, 0, 78, 100
2, 6660, Note_on_c, 0, 76, 0
2, 6660, Note_on_c, 0, 78, 0
2, 6660, Note_on_c, 0, 79, 100
2, 6720, Note_on_c, 0, 79, 0
2, 6720, Note_on_c, 0, 81, 100
2, 6780, Note_on_c, 0, 81, 0
2, 6780, Note_on_c, 0, 79, 100
2, 6840, Note_on_c, 0, 79, 0
2, 6840, Note_on_c, 0, 78, 100
2, 6900, Note_on_c, 0, 52, 0
2, 6900, Note_on_c, 0, 79, 100
2, 6960, Note_on_c, 0, 78, 0
2, 6960, Note_on_c, 0, 52, 100
2, 6960, Note_on_c, 0, 81, 100
2, 7020, Note_on_c, 0, 81, 0
2, 7080, Note_on_c, 0, 79, 0
2, 7080, Note_on_c, 0, 78, 100
2, 7140, Note_on_c, 0, 52, 0
2, 7140, Note_on_c, 0, 79, 100
2, 7200, Note_on_c, 0, 78, 0
2, 7200, Note_on_c, 0, 52, 100
2, 7200, Note_on_c, 0, 81, 100
2, 7260, Note_on_c, 0, 81, 0
2, 7320, Note_on_c, 0, 79, 0
2, 7320, Note_on_c, 0, 81, 100
2, 7380, Note_on_c, 0, 81, 0
2, 7380, Note_on_c, 0, 79, 100
2, 7440, Note_on_c, 0, 52, 0
2, 7440, Note_on_c, 0, 59, 100
2, 7440, Note_on_c, 0, 78, 100
2, 7500, Note_on_c, 0, 64, 0
2, 7500, Note_on_c, 0, 78, 0
2, 7500, Note_on_c, 0, 66, 100
2, 7500, Note_on_c, 0, 76, 100
2, 7560, Note_on_c, 0, 79, 0
2, 7560, Note_on_c, 0, 76, 0
2, 7560, Note_on_c, 0, 57, 100
2, 7560, Note_on_c, 0, 75, 100
2, 7620, Note_on_c, 0, 59, 0
2, 7740, Note_on_c, 0, 57, 0
2, 7740, Note_on_c, 0, 55, 100
2, 8220, Note_on_c, 0, 75, 0
2, 8220, Note_on_c, 0, 54, 100
2, 8220, Note_on_c, 0, 71, 100
2, 8280, Note_on_c, 0, 66, 0
2, 8280, Note_on_c, 0, 54, 0
2, 8280, Note_on_c, 0, 52, 100
2, 8280, Note_on_c, 0, 76, 100
2, 8340, Note_on_c, 0, 55, 0
2, 8340, Note_on_c, 0, 76, 0
2, 8340, Note_on_c, 0, 78, 100
2, 8400, Note_on_c, 0, 71, 0
2, 8460, Note_on_c, 0, 78, 0
2, 8460, Note_on_c, 0, 79, 100
2, 8520, Note_on_c, 0, 57, 100
2, 8580, Note_on_c, 0, 79, 0
2, 8580, Note_on_c, 0, 78, 100
2, 8640, Note_on_c, 0, 57, 0
2, 8700, Note_on_c, 0, 57, 100
2, 8760, Note_on_c, 0, 78, 0
2, 8820, Note_on_c, 0, 78, 100
2, 8880, Note_on_c, 0, 57, 0
2, 8940, Note_on_c, 0, 52, 0
2, 8940, Note_on_c, 0, 48, 100
2, 8940, Note_on_c, 0, 60, 100
2, 8940, Note_on_c, 0, 81, 100
2, 9000, Note_on_c, 0, 78, 0
2, 9000, Note_on_c, 0, 81, 0
2, 9000, Note_on_c, 0, 79, 100
2, 9120, Note_on_c, 0, 48, 0
2, 9120, Note_on_c, 0, 79, 0
2, 9120, Note_on_c, 0, 50, 100
2, 9120, Note_on_c, 0, 69, 100
2, 9180, Note_on_c, 0, 60, 0
2, 9180, Note_on_c, 0, 69, 0
2, 9180, Note_on_c, 0, 55, 100
2, 9180, Note_on_c, 0, 71, 100
2, 9240, Note_on_c, 0, 50, 0
2, 9240, Note_on_c, 0, 71, 0
2, 9240, Note_on_c, 0, 67, 100
2, 9300, Note_on_c, 0, 60, 100
2, 9420, Note_on_c, 0, 60, 0
2, 9420, Note_on_c, 0, 59, 100
2, 9540, Note_on_c, 0, 59, 0
2, 9540, Note_on_c, 0, 57, 100
2, 9600, Note_on_c, 0, 55, 0
2, 9600, Note_on_c, 0, 57, 0
2, 9600, Note_on_c, 0, 60, 100
2, 9600, Note_on_c, 0, 64, 100
2, 9660, Note_on_c, 0, 64, 0
2, 9660, Note_on_c, 0, 75, 100
2, 10320, Note_on_c, 0, 60, 0
2, 10320, Note_on_c, 0, 59, 100
2, 10380, Note_on_c, 0, 75, 0
2, 10380, Note_on_c, 0, 52, 100
2, 10560, Note_on_c, 0, 52, 0
2, 10560, Note_on_c, 0, 54, 100
2, 10680, Note_on_c, 0, 67, 0
2, 10680, Note_on_c, 0, 54, 0
2, 10680, Note_on_c, 0, 55, 100
2, 10680, Note_on_c, 0, 71, 100
2, 10740, Note_on_c, 0, 59, 0
2, 11160, Note_on_c, 0, 71, 0
2, 11160, Note_on_c, 0, 69, 100
2, 11520, Note_on_c, 0, 69, 0
2, 11520, Note_on_c, 0, 67, 100
2, 11940, Note_on_c, 0, 60, 100
2, 12000, Note_on_c, 0, 55, 0
2, 12000, Note_on_c, 0, 60, 0
2, 12000, Note_on_c, 0, 54, 100
2, 12000, Note_on_c, 0, 59, 100
2, 12180, Note_on_c, 0, 67, 0
2, 12180, Note_on_c, 0, 59, 0
2, 12180, Note_on_c, 0, 55, 100
2, 12180, Note_on_c, 0, 64, 100
2, 12180, Note_on_c, 0, 76, 100
2, 12240, Note_on_c, 0, 55, 0
2, 12240, Note_on_c, 0, 76, 0
2, 12240, Note_on_c, 0, 81, 100
2, 12300, Note_on_c, 0, 64, 0
2, 12540, Note_on_c, 0, 81, 0
2, 12540, Note_on_c, 0, 72, 100
2, 12600, Note_on_c, 0, 54, 0
2, 12600, Note_on_c, 0, 50, 100
2, 12600, Note_on_c, 0, 71, 100
2, 12660, Note_on_c, 0, 72, 0
2, 12660, Note_on_c, 0, 71, 0
2, 12660, Note_on_c, 0, 69, 100
2, 12720, Note_on_c, 0, 50, 0
2, 12720, Note_on_c, 0, 45, 100
2, 12720, Note_on_c, 0, 72, 100
2, 12720, Note_on_c, 0, 78, 100
2, 12780, Note_on_c, 0, 69, 0
2, 12780, Note_on_c, 0, 72, 0
2, 12780, Note_on_c, 0, 50, 100
2, 12780, Note_on_c, 0, 62, 100
2, 12780, Note_on_c, 0, 66, 100
2, 12780, Note_on_c, 0, 74, 100
2, 12840, Note_on_c, 0, 45, 0
2, 12900, Note_on_c, 0, 78, 0
2, 12960, Note_on_c, 0, 50, 0
2, 12960, Note_on_c, 0, 66, 0
2, 12960, Note_on_c, 0, 55, 100
2, 12960, Note_on_c, 0, 79, 100
2, 13020, Note_on_c, 0, 62, 0
2, 13080, Note_on_c, 0, 74, 0
2, 13200, Note_on_c, 0, 79, 0
2, 13260, Note_on_c, 0, 59, 100
2, 13260, Note_on_c, 0, 79, 100
2, 13680, Note_on_c, 0, 55, 0
2, 13680, Note_on_c, 0, 47, 100
2, 13680, Note_on_c, 0, 71, 100
2, 13740, Note_on_c, 0, 59, 0
2, 14220, Note_on_c, 0, 79, 0
2, 14220, Note_on_c, 0, 71, 0
2, 14220, Note_on_c, 0, 51, 100
2, 14220, Note_on_c, 0, 69, 100
2, 14220, Note_on_c, 0, 78, 100
2, 14280, Note_on_c, 0, 47, 0
2, 14280, Note_on_c, 0, 69, 0
2, 14280, Note_on_c, 0, 50, 100
2, 14280, Note_on_c, 0, 67, 100
2, 14280, Note_on_c, 0, 72, 100
2, 14340, Note_on_c, 0, 51, 0
2, 14340, Note_on_c, 0, 72, 0
2, 14340, Note_on_c, 0, 74, 100
2, 14400, Note_on_c, 0, 78, 0
2, 14460, Note_on_c, 0, 74, 0
2, 14460, Note_on_c, 0, 76, 100
2, 14520, Note_on_c, 0, 76, 0
2, 14580, Note_on_c, 0, 67, 0
2, 14580, Note_on_c, 0, 66, 100
2, 14640, Note_on_c, 0, 50, 0
2, 14640, Note_on_c, 0, 45, 100
2, 14640, Note_on_c, 0, 72, 100
2, 14640, Note_on_c, 0, 79, 100
2, 14700, Note_on_c, 0, 66, 0
2, 14700, Note_on_c, 0, 79, 0
2, 14700, Note_on_c, 0, 81, 100
2, 14820, Note_on_c, 0, 45, 0
2, 14820, Note_on_c, 0, 81, 0
2, 14820, Note_on_c, 0, 47, 100
2, 14820, Note_on_c, 0, 71, 100
2, 14820, Note_on_c, 0, 79, 100
2, 14880, Note_on_c, 0, 72, 0
2, 14940, Note_on_c, 0, 71, 0
2, 14940, Note_on_c, 0, 51, 100
2, 14940, Note_on_c, 0, 69, 100
2, 14940, Note_on_c, 0, 78, 100
2, 15000, Note_on_c, 0, 79, 0
2, 15000, Note_on_c, 0, 78, 0
2, 15060, Note_on_c, 0, 47, 0
2, 15060, Note_on_c, 0, 52, 100
2, 15060, Note_on_c, 0, 78, 100
2, 15120, Note_on_c, 0, 51, 0
2, 15240, Note_on_c, 0, 78, 0
2, 15240, Note_on_c, 0, 76, 100
2, 15300, Note_on_c, 0, 47, 100
2, 15360, Note_on_c, 0, 69, 0
2, 15360, Note_on_c, 0, 76, 0
2, 15360, Note_on_c, 0, 50, 100
2, 15360, Note_on_c, 0, 59, 100
2, 15360, Note_on_c, 0, 74, 100
2, 15420, Note_on_c, 0, 52, 0
2, 15420, Note_on_c, 0, 74, 0
2, 15420, Note_on_c, 0, 72, 100
2, 15480, Note_on_c, 0, 47, 0
2, 15480, Note_on_c, 0, 59, 0
2, 15480, Note_on_c, 0, 57, 100
2, 15540, Note_on_c, 0, 72, 0
2, 15600, Note_on_c, 0, 57, 0
2, 15600, Note_on_c, 0, 55, 100
2, 15600, Note_on_c, 0, 72, 100
2, 15660, Note_on_c, 0, 72, 0
2, 15660, Note_on_c, 0, 71, 100
2, 15720, Note_on_c, 0, 71, 0
2, 15720, Note_on_c, 0, 69, 100
2, 15780, Note_on_c, 0, 69, 0
2, 15780, Note_on_c, 0, 71, 100
2, 15840, Note_on_c, 0, 71, 0
2, 15840, Note_on_c, 0, 72, 100
2, 15900, Note_on_c, 0, 55, 0
2, 15900, Note_on_c, 0, 54, 100
2, 15900, Note_on_c, 0, 81, 100
2, 15960, Note_on_c, 0, 72, 0
2, 15960, Note_on_c, 0, 52, 100
2, 16020, Note_on_c, 0, 81, 0
2, 16020, Note_on_c, 0, 72, 100
2, 16080, Note_on_c, 0, 52, 0
2, 16140, Note_on_c, 0, 50, 0
2, 16140, Note_on_c, 0, 72, 0
2, 16140, Note_on_c, 0, 43, 100
2, 16140, Note_on_c, 0, 55, 100
2, 16140, Note_on_c, 0, 71, 100
2, 16200, Note_on_c, 0, 54, 0
2, 16200, Note_on_c, 0, 71, 0
2, 16200, Note_on_c, 0, 67, 100
2, 16260, Note_on_c, 0, 43, 0
2, 16260, Note_on_c, 0, 67, 0
2, 16260, Note_on_c, 0, 59, 100
2, 16260, Note_on_c, 0, 62, 100
2, 16260, Note_on_c, 0, 83, 100
2, 16320, Note_on_c, 0, 55, 0
2, 16320, Note_on_c, 0, 62, 0
2, 16320, Note_on_c, 0, 54, 100
2, 16320, Note_on_c, 0, 81, 100
2, 16380, Note_on_c, 0, 59, 0
2, 16380, Note_on_c, 0, 81, 0
2, 16380, Note_on_c, 0, 50, 100
2, 16380, Note_on_c, 0, 62, 100
2, 16440, Note_on_c, 0, 83, 0
2, 16680, Note_on_c, 0, 57, 100
2, 16800, Note_on_c, 0, 50, 0
2, 16800, Note_on_c, 0, 48, 100
2, 16920, Note_on_c, 0, 54, 0
2, 16920, Note_on_c, 0, 57, 0
2, 16920, Note_on_c, 0, 47, 100
2, 16920, Note_on_c, 0, 74, 100
2, 16980, Note_on_c, 0, 62, 0
2, 17040, Note_on_c, 0, 48, 0
2, 17040, Note_on_c, 0, 74, 0
2, 17100, Note_on_c, 0, 50, 100
2, 17100, Note_on_c, 0, 74, 100
2, 17340, Note_on_c, 0, 74, 0
2, 17340, Note_on_c, 0, 55, 100
2, 17340, Note_on_c, 0, 76, 100
2, 17400, Note_on_c, 0, 76, 0
2, 17400, Note_on_c, 0, 74, 100
2, 17460, Note_on_c, 0, 74, 0
2, 17460, Note_on_c, 0, 76, 100
2, 17700, Note_on_c, 0, 76, 0
2, 17700, Note_on_c, 0, 74, 100
2, 17760, Note_on_c, 0, 74, 0
2, 17760, Note_on_c, 0, 76, 100
2, 18120, Note_on_c, 0, 76, 0
2, 18120, Note_on_c, 0, 77, 100
2, 18180, Note_on_c, 0, 47, 0
2, 18180, Note_on_c, 0, 55, 0
2, 18180, Note_on_c, 0, 48, 100
2, 18180, Note_on_c, 0, 76, 100
2, 18240, Note_on_c, 0, 50, 0
2, 18240, Note_on_c, 0, 76, 0
2, 18240, Note_on_c, 0, 74, 100
2, 18300, Note_on_c, 0, 77, 0
2, 18420, Note_on_c, 0, 74, 0
2, 18420, Note_on_c, 0, 72, 100
2, 18480, Note_on_c, 0, 72, 0
2, 18480, Note_on_c, 0, 52, 100
2, 18480, Note_on_c, 0, 71, 100
2, 18660, Note_on_c, 0, 71, 0
2, 18660, Note_on_c, 0, 69, 100
2, 18780, Note_on_c, 0, 57, 100
2, 18960, Note_on_c, 0, 48, 0
2, 18960, Note_on_c, 0, 69, 0
2, 18960, Note_on_c, 0, 50, 100
2, 18960, Note_on_c, 0, 79, 100
2, 19020, Note_on_c, 0, 52, 0
2, 19020, Note_on_c, 0, 79, 0
2, 19020, Note_on_c, 0, 78, 100
2, 19080, Note_on_c, 0, 78, 0
2, 19080, Note_on_c, 0, 76, 100
2, 19140, Note_on_c, 0, 76, 0
2, 19140, Note_on_c, 0, 78, 100
2, 19200, Note_on_c, 0, 57, 0
2, 19200, Note_on_c, 0, 78, 0
2, 19200, Note_on_c, 0, 52, 100
2, 19200, Note_on_c, 0, 79, 100
2, 19260, Note_on_c, 0, 50, 0
2, 19260, Note_on_c, 0, 57, 100
2, 19440, Note_on_c, 0, 79, 0
2, 19440, Note_on_c, 0, 78, 100
2, 19500, Note_on_c, 0, 57, 0
2, 19560, Note_on_c, 0, 57, 100
2, 19620, Note_on_c, 0, 78, 0
2, 19680, Note_on_c, 0, 78, 100
2, 19740, Note_on_c, 0, 57, 0
2, 19800, Note_on_c, 0, 57, 100
2, 19860, Note_on_c, 0, 57, 0
2, 19920, Note_on_c, 0, 52, 0
2, 19920, Note_on_c, 0, 48, 100
2, 19920, Note_on_c, 0, 60, 100
2, 19920, Note_on_c, 0, 81, 100
2, 19980, Note_on_c, 0, 78, 0
2, 19980, Note_on_c, 0, 81, 0
2, 19980, Note_on_c, 0, 79, 100
2, 20040, Note_on_c, 0, 48, 0
2, 20040, Note_on_c, 0, 79, 0
2, 20040, Note_on_c, 0, 50, 100
2, 20040, Note_on_c, 0, 78, 100
2, 20100, Note_on_c, 0, 78, 0
2, 20100, Note_on_c, 0, 76, 100
2, 20160, Note_on_c, 0, 60, 0
2, 20160, Note_on_c, 0, 76, 0
2, 20160, Note_on_c, 0, 67, 100
2, 20220, Note_on_c, 0, 67, 0
2, 20220, Note_on_c, 0, 66, 100
2, 20220, Note_on_c, 0, 73, 100
2, 21120, Note_on_c, 0, 73, 0
2, 21120, Note_on_c, 0, 57, 100
2, 21120, Note_on_c, 0, 74, 100
2, 21480, Note_on_c, 0, 57, 0
2, 21480, Note_on_c, 0, 62, 100
2, 21540, Note_on_c, 0, 50, 0
2, 21540, Note_on_c, 0, 74, 0
2, 21540, Note_on_c, 0, 55, 100
2, 21540, Note_on_c, 0, 79, 100
2, 21600, Note_on_c, 0, 66, 0
2, 21600, Note_on_c, 0, 79, 0
2, 21660, Note_on_c, 0, 62, 0
2, 21660, Note_on_c, 0, 59, 100
2, 21660, Note_on_c, 0, 71, 100
2, 21720, Note_on_c, 0, 55, 0
2, 21720, Note_on_c, 0, 71, 0
2, 21720, Note_on_c, 0, 60, 100
2, 21720, Note_on_c, 0, 66, 100
2, 21780, Note_on_c, 0, 59, 0
2, 21780, Note_on_c, 0, 69, 100
2, 21840, Note_on_c, 0, 69, 0
2, 21840, Note_on_c, 0, 71, 100
2, 21900, Note_on_c, 0, 71, 0
2, 21900, Note_on_c, 0, 72, 100
2, 21960, Note_on_c, 0, 72, 0
2, 21960, Note_on_c, 0, 74, 100
2, 22020, Note_on_c, 0, 74, 0
2, 22020, Note_on_c, 0, 76, 100
2, 22080, Note_on_c, 0, 76, 0
2, 22140, Note_on_c, 0, 69, 100
2, 22200, Note_on_c, 0, 69, 0
2, 22200, Note_on_c, 0, 71, 100
2, 22260, Note_on_c, 0, 60, 0
2, 22260, Note_on_c, 0, 71, 0
2, 22260, Note_on_c, 0, 50, 100
2, 22260, Note_on_c, 0, 67, 100
2, 22260, Note_on_c, 0, 72, 100
2, 22320, Note_on_c, 0, 66, 0
2, 22380, Note_on_c, 0, 50, 0
2, 22380, Note_on_c, 0, 72, 0
2, 22380, Note_on_c, 0, 45, 100
2, 22380, Note_on_c, 0, 66, 100
2, 22440, Note_on_c, 0, 67, 0
2, 22620, Note_on_c, 0, 45, 0
2, 22620, Note_on_c, 0, 48, 100
2, 22680, Note_on_c, 0, 76, 100
2, 22740, Note_on_c, 0, 76, 0
2, 22800, Note_on_c, 0, 48, 0
2, 22800, Note_on_c, 0, 47, 100
2, 22800, Note_on_c, 0, 76, 100
2, 22860, Note_on_c, 0, 47, 0
2, 22860, Note_on_c, 0, 45, 100
2, 22860, Note_on_c, 0, 74, 100
2, 22920, Note_on_c, 0, 76, 0
2, 22920, Note_on_c, 0, 74, 0
2, 22920, Note_on_c, 0, 72, 100
2, 23040, Note_on_c, 0, 72, 0
2, 23040, Note_on_c, 0, 71, 100
2, 23220, Note_on_c, 0, 66, 0
2, 23220, Note_on_c, 0, 71, 0
2, 23220, Note_on_c, 0, 50, 100
2, 23220, Note_on_c, 0, 72, 100
2, 23280, Note_on_c, 0, 45, 0
2, 23400, Note_on_c, 0, 72, 0
2, 23400, Note_on_c, 0, 69, 100
2, 23460, Note_on_c, 0, 69, 0
2, 23460, Note_on_c, 0, 67, 100
2, 23580, Note_on_c, 0, 67, 0
2, 23580, Note_on_c, 0, 66, 100
2, 23640, Note_on_c, 0, 66, 0
2, 23640, Note_on_c, 0, 64, 100
2, 23700, Note_on_c, 0, 64, 0
2, 23760, Note_on_c, 0, 54, 100
2, 23760, Note_on_c, 0, 64, 100
2, 23880, Note_on_c, 0, 64, 0
2, 23880, Note_on_c, 0, 62, 100
2, 24000, Note_on_c, 0, 57, 100
2, 24060, Note_on_c, 0, 50, 0
2, 24060, Note_on_c, 0, 48, 100
2, 24120, Note_on_c, 0, 54, 0
2, 24120, Note_on_c, 0, 57, 0
2, 24120, Note_on_c, 0, 52, 100
2, 24120, Note_on_c, 0, 55, 100
2, 24120, Note_on_c, 0, 61, 100
2, 24120, Note_on_c, 0, 66, 100
2, 24180, Note_on_c, 0, 62, 0
2, 24180, Note_on_c, 0, 66, 0
2, 24180, Note_on_c, 0, 67, 100
2, 24240, Note_on_c, 0, 48, 0
2, 24240, Note_on_c, 0, 67, 0
2, 24240, Note_on_c, 0, 69, 100
2, 24300, Note_on_c, 0, 69, 0
2, 24360, Note_on_c, 0, 67, 100
2, 24420, Note_on_c, 0, 52, 0
2, 24420, Note_on_c, 0, 61, 0
2, 24420, Note_on_c, 0, 50, 100
2, 24420, Note_on_c, 0, 69, 100
2, 24480, Note_on_c, 0, 55, 0
2, 24540, Note_on_c, 0, 67, 0
2, 24540, Note_on_c, 0, 69, 0
2, 24540, Note_on_c, 0, 55, 100
2, 24540, Note_on_c, 0, 71, 100
2, 24600, Note_on_c, 0, 50, 0
2, 24600, Note_on_c, 0, 71, 0
2, 24600, Note_on_c, 0, 72, 100
2, 24660, Note_on_c, 0, 55, 0
2, 24660, Note_on_c, 0, 59, 100
2, 24660, Note_on_c, 0, 74, 100
2, 24720, Note_on_c, 0, 59, 0
2, 24720, Note_on_c, 0, 45, 100
2, 24720, Note_on_c, 0, 55, 100
2, 24780, Note_on_c, 0, 72, 0
2, 24780, Note_on_c, 0, 45, 0
2, 24780, Note_on_c, 0, 50, 100
2, 24780, Note_on_c, 0, 54, 100
2, 24780, Note_on_c, 0, 81, 100
2, 24840, Note_on_c, 0, 74, 0
2, 24900, Note_on_c, 0, 50, 0
2, 24900, Note_on_c, 0, 81, 0
2, 24900, Note_on_c, 0, 59, 100
2, 24900, Note_on_c, 0, 64, 100
2, 24960, Note_on_c, 0, 55, 0
2, 24960, Note_on_c, 0, 59, 0
2, 24960, Note_on_c, 0, 50, 100
2, 24960, Note_on_c, 0, 66, 100
2, 24960, Note_on_c, 0, 74, 100
2, 25020, Note_on_c, 0, 54, 0
2, 25020, Note_on_c, 0, 50, 0
2, 25020, Note_on_c, 0, 74, 0
2, 25020, Note_on_c, 0, 62, 100
2, 25020, Note_on_c, 0, 69, 100
2, 25080, Note_on_c, 0, 64, 0
2, 25080, Note_on_c, 0, 62, 0
2, 25080, Note_on_c, 0, 50, 100
2, 25080, Note_on_c, 0, 67, 100
2, 25140, Note_on_c, 0, 69, 0
2, 25140, Note_on_c, 0, 67, 0
2, 25200, Note_on_c, 0, 66, 0
2, 25200, Note_on_c, 0, 64, 100
2, 25260, Note_on_c, 0, 50, 0
2, 25260, Note_on_c, 0, 47, 100
2, 25260, Note_on_c, 0, 67, 100
2, 25260, Note_on_c, 0, 76, 100
2, 25320, Note_on_c, 0, 64, 0
2, 25320, Note_on_c, 0, 52, 100
2, 25380, Note_on_c, 0, 47, 0
2, 25380, Note_on_c, 0, 52, 0
2, 25380, Note_on_c, 0, 50, 100
2, 25440, Note_on_c, 0, 67, 0
2, 25440, Note_on_c, 0, 50, 0
2, 25440, Note_on_c, 0, 43, 100
2, 25440, Note_on_c, 0, 55, 100
2, 25440, Note_on_c, 0, 71, 100
2, 25500, Note_on_c, 0, 76, 0
2, 25500, Note_on_c, 0, 71, 0
2, 25500, Note_on_c, 0, 67, 100
2, 25680, Note_on_c, 0, 55, 0
2, 25680, Note_on_c, 0, 57, 100
2, 25740, Note_on_c, 0, 67, 0
2, 25740, Note_on_c, 0, 66, 100
2, 25800, Note_on_c, 0, 66, 0
2, 25860, Note_on_c, 0, 57, 0
2, 25860, Note_on_c, 0, 59, 100
2, 25860, Note_on_c, 0, 66, 100
2, 26580, Note_on_c, 0, 43, 0
2, 26580, Note_on_c, 0, 66, 0
2, 26580, Note_on_c, 0, 50, 100
2, 26580, Note_on_c, 0, 67, 100
2, 26700, Note_on_c, 0, 67, 0
2, 26700, Note_on_c, 0, 66, 100
2, 26760, Note_on_c, 0, 66, 0
2, 26820, Note_on_c, 0, 50, 0
2, 26820, Note_on_c, 0, 43, 100
2, 26820, Note_on_c, 0, 66, 100
2, 26880, Note_on_c, 0, 43, 0
2, 26880, Note_on_c, 0, 50, 100
2, 26880, Note_on_c, 0, 67, 100
2, 26940, Note_on_c, 0, 67, 0
2, 27000, Note_on_c, 0, 66, 0
2, 27060, Note_on_c, 0, 50, 0
2, 27060, Note_on_c, 0, 43, 100
2, 27060, Note_on_c, 0, 66, 100
2, 27120, Note_on_c, 0, 43, 0
2, 27120, Note_on_c, 0, 50, 100
2, 27120, Note_on_c, 0, 67, 100
2, 27180, Note_on_c, 0, 67, 0
2, 27240, Note_on_c, 0, 66, 0
2, 27300, Note_on_c, 0, 50, 0
2, 27300, Note_on_c, 0, 43, 100
2, 27300, Note_on_c, 0, 66, 100
2, 27480, Note_on_c, 0, 66, 0
2, 27480, Note_on_c, 0, 67, 100
2, 27840, Note_on_c, 0, 59, 0
2, 27840, Note_on_c, 0, 67, 0
2, 27840, Note_on_c, 0, 47, 100
2, 27840, Note_on_c, 0, 50, 100
2, 27840, Note_on_c, 0, 74, 100
2, 27900, Note_on_c, 0, 43, 0
2, 27960, Note_on_c, 0, 47, 0
2, 27960, Note_on_c, 0, 74, 0
2, 27960, Note_on_c, 0, 45, 100
2, 27960, Note_on_c, 0, 72, 100
2, 27960, Note_on_c, 0, 79, 100
2, 28020, Note_on_c, 0, 50, 0
2, 28020, Note_on_c, 0, 79, 0
2, 28020, Note_on_c, 0, 81, 100
2, 28080, Note_on_c, 0, 45, 0
2, 28080, Note_on_c, 0, 81, 0
2, 28080, Note_on_c, 0, 47, 100
2, 28080, Note_on_c, 0, 71, 100
2, 28080, Note_on_c, 0, 79, 100
2, 28140, Note_on_c, 0, 72, 0
2, 28200, Note_on_c, 0, 71, 0
2, 28200, Note_on_c, 0, 51, 100
2, 28200, Note_on_c, 0, 69, 100
2, 28200, Note_on_c, 0, 78, 100
2, 28260, Note_on_c, 0, 79, 0
2, 28260, Note_on_c, 0, 78, 0
2, 28320, Note_on_c, 0, 47, 0
2, 28320, Note_on_c, 0, 52, 100
2, 28320, Note_on_c, 0, 78, 100
2, 28380, Note_on_c, 0, 51, 0
2, 28380, Note_on_c, 0, 78, 0
2, 28380, Note_on_c, 0, 76, 100
2, 28440, Note_on_c, 0, 47, 100
2, 28560, Note_on_c, 0, 69, 0
2, 28560, Note_on_c, 0, 76, 0
2, 28560, Note_on_c, 0, 55, 100
2, 28560, Note_on_c, 0, 72, 100
2, 28560, Note_on_c, 0, 79, 100
2, 28620, Note_on_c, 0, 52, 0
2, 28620, Note_on_c, 0, 55, 0
2, 28620, Note_on_c, 0, 79, 0
2, 28620, Note_on_c, 0, 50, 100
2, 28620, Note_on_c, 0, 57, 100
2, 28680, Note_on_c, 0, 47, 0
2, 28680, Note_on_c, 0, 57, 0
2, 28680, Note_on_c, 0, 55, 100
2, 28740, Note_on_c, 0, 72, 0
2, 28740, Note_on_c, 0, 71, 100
2, 28800, Note_on_c, 0, 71, 0
2, 28800, Note_on_c, 0, 69, 100
2, 28860, Note_on_c, 0, 69, 0
2, 28860, Note_on_c, 0, 71, 100
2, 28920, Note_on_c, 0, 71, 0
2, 28920, Note_on_c, 0, 72, 100
2, 28980, Note_on_c, 0, 72, 0
2, 28980, Note_on_c, 0, 71, 100
2, 29040, Note_on_c, 0, 71, 0
2, 29040, Note_on_c, 0, 72, 100
2, 29100, Note_on_c, 0, 72, 0
2, 29100, Note_on_c, 0, 71, 100
2, 29340, Note_on_c, 0, 71, 0
2, 29340, Note_on_c, 0, 72, 100
2, 29400, Note_on_c, 0, 55, 0
2, 29400, Note_on_c, 0, 54, 100
2, 29400, Note_on_c, 0, 81, 100
2, 29460, Note_on_c, 0, 72, 0
2, 29580, Note_on_c, 0, 50, 0
2, 29580, Note_on_c, 0, 81, 0
2, 29580, Note_on_c, 0, 59, 100
2, 29580, Note_on_c, 0, 67, 100
2, 29640, Note_on_c, 0, 54, 0
2, 29640, Note_on_c, 0, 67, 0
2, 29640, Note_on_c, 0, 55, 100
2, 29640, Note_on_c, 0, 71, 100
2, 29700, Note_on_c, 0, 59, 0
2, 29700, Note_on_c, 0, 71, 0
2, 29760, Note_on_c, 0, 59, 100
2, 29760, Note_on_c, 0, 79, 100
2, 29940, Note_on_c, 0, 79, 0
2, 29940, Note_on_c, 0, 62, 100
2, 29940, Note_on_c, 0, 81, 100
2, 30000, Note_on_c, 0, 81, 0
2, 30000, Note_on_c, 0, 79, 100
2, 30060, Note_on_c, 0, 79, 0
2, 30060, Note_on_c, 0, 81, 100
2, 30180, Note_on_c, 0, 81, 0
2, 30180, Note_on_c, 0, 79, 100
2, 30240, Note_on_c, 0, 79, 0
2, 30240, Note_on_c, 0, 81, 100
2, 30300, Note_on_c, 0, 81, 0
2, 30300, Note_on_c, 0, 83, 100
2, 30360, Note_on_c, 0, 55, 0
2, 30360, Note_on_c, 0, 62, 0
2, 30360, Note_on_c, 0, 43, 100
2, 30360, Note_on_c, 0, 57, 100
2, 30360, Note_on_c, 0, 66, 100
2, 30420, Note_on_c, 0, 59, 0
2, 30420, Note_on_c, 0, 66, 0
2, 30480, Note_on_c, 0, 83, 0
2, 30480, Note_on_c, 0, 57, 0
2, 30480, Note_on_c, 0, 59, 100
2, 30480, Note_on_c, 0, 66, 100
2, 30780, Note_on_c, 0, 43, 0
2, 30780, Note_on_c, 0, 66, 0
2, 30780, Note_on_c, 0, 55, 100
2, 30780, Note_on_c, 0, 64, 100
2, 30780, Note_on_c, 0, 71, 100
2, 30840, Note_on_c, 0, 71, 0
2, 30840, Note_on_c, 0, 73, 100
2, 30900, Note_on_c, 0, 73, 0
2, 30900, Note_on_c, 0, 71, 100
2, 30960, Note_on_c, 0, 71, 0
2, 30960, Note_on_c, 0, 73, 100
2, 31020, Note_on_c, 0, 73, 0
2, 31020, Note_on_c, 0, 71, 100
2, 31080, Note_on_c, 0, 71, 0
2, 31080, Note_on_c, 0, 73, 100
2, 31200, Note_on_c, 0, 73, 0
2, 31200, Note_on_c, 0, 71, 100
2, 31260, Note_on_c, 0, 71, 0
2, 31260, Note_on_c, 0, 73, 100
2, 31320, Note_on_c, 0, 59, 0
2, 31320, Note_on_c, 0, 64, 0
2, 31320, Note_on_c, 0, 52, 100
2, 31320, Note_on_c, 0, 69, 100
2, 31320, Note_on_c, 0, 74, 100
2, 31380, Note_on_c, 0, 55, 0
2, 31440, Note_on_c, 0, 73, 0
2, 31560, Note_on_c, 0, 52, 0
2, 31560, Note_on_c, 0, 54, 100
2, 31680, Note_on_c, 0, 54, 0
2, 31680, Note_on_c, 0, 59, 100
2, 31740, Note_on_c, 0, 69, 0
2, 31740, Note_on_c, 0, 67, 100
2, 31740, Note_on_c, 0, 71, 100
2, 31800, Note_on_c, 0, 74, 0
2, 31800, Note_on_c, 0, 52, 100
2, 31800, Note_on_c, 0, 76, 100
2, 31800, Note_on_c, 0, 79, 100
2, 31920, Note_on_c, 0, 67, 0
2, 31980, Note_on_c, 0, 59, 0
2, 31980, Note_on_c, 0, 76, 0
2, 31980, Note_on_c, 0, 64, 100
2, 31980, Note_on_c, 0, 81, 100
2, 32040, Note_on_c, 0, 71, 0
2, 32040, Note_on_c, 0, 79, 0
2, 32040, Note_on_c, 0, 81, 0
2, 32040, Note_on_c, 0, 60, 100
2, 32040, Note_on_c, 0, 66, 100
2, 32040, Note_on_c, 0, 72, 100
2, 32100, Note_on_c, 0, 52, 0
2, 32100, Note_on_c, 0, 72, 0
2, 32100, Note_on_c, 0, 74, 100
2, 32160, Note_on_c, 0, 64, 0
2, 32160, Note_on_c, 0, 74, 0
2, 32160, Note_on_c, 0, 76, 100
2, 32220, Note_on_c, 0, 76, 0
2, 32280, Note_on_c, 0, 69, 100
2, 32340, Note_on_c, 0, 69, 0
2, 32340, Note_on_c, 0, 71, 100
2, 32400, Note_on_c, 0, 71, 0
2, 32460, Note_on_c, 0, 69, 100
2, 32520, Note_on_c, 0, 69, 0
2, 32520, Note_on_c, 0, 71, 100
2, 32580, Note_on_c, 0, 71, 0
2, 32640, Note_on_c, 0, 69, 100
2, 32700, Note_on_c, 0, 69, 0
2, 32700, Note_on_c, 0, 71, 100
2, 32760, Note_on_c, 0, 71, 0
2, 32820, Note_on_c, 0, 60, 0
2, 32820, Note_on_c, 0, 62, 100
2, 32820, Note_on_c, 0, 67, 100
2, 32880, Note_on_c, 0, 66, 0
2, 32880, Note_on_c, 0, 67, 0
2, 32880, Note_on_c, 0, 69, 100
2, 33060, Note_on_c, 0, 62, 0
2, 33060, Note_on_c, 0, 55, 100
2, 33060, Note_on_c, 0, 60, 100
2, 33060, Note_on_c, 0, 67, 100
2, 33120, Note_on_c, 0, 69, 0
2, 33180, Note_on_c, 0, 55, 0
2, 33180, Note_on_c, 0, 67, 0
2, 33180, Note_on_c, 0, 59, 100
2, 33180, Note_on_c, 0, 64, 100
2, 33180, Note_on_c, 0, 78, 100
2, 33240, Note_on_c, 0, 60, 0
2, 33600, Note_on_c, 0, 64, 0
2, 33600, Note_on_c, 0, 66, 100
2, 33600, Note_on_c, 0, 76, 100
2, 33660, Note_on_c, 0, 59, 0
2, 33660, Note_on_c, 0, 76, 0
2, 33660, Note_on_c, 0, 57, 100
2, 33660, Note_on_c, 0, 75, 100
2, 33720, Note_on_c, 0, 78, 0
2, 33720, Note_on_c, 0, 57, 0
2, 33720, Note_on_c, 0, 55, 100
2, 33900, Note_on_c, 0, 75, 0
2, 33900, Note_on_c, 0, 54, 100
2, 33900, Note_on_c, 0, 71, 100
2, 33960, Note_on_c, 0, 66, 0
2, 33960, Note_on_c, 0, 54, 0
2, 33960, Note_on_c, 0, 52, 100
2, 33960, Note_on_c, 0, 76, 100
2, 34020, Note_on_c, 0, 55, 0
2, 34020, Note_on_c, 0, 76, 0
2, 34020, Note_on_c, 0, 78, 100
2, 34080, Note_on_c, 0, 71, 0
2, 34140, Note_on_c, 0, 52, 0
2, 34140, Note_on_c, 0, 48, 100
2, 34140, Note_on_c, 0, 60, 100
2, 34140, Note_on_c, 0, 81, 100
2, 34200, Note_on_c, 0, 78, 0
2, 34200, Note_on_c, 0, 81, 0
2, 34200, Note_on_c, 0, 79, 100
2, 34260, Note_on_c, 0, 48, 0
2, 34260, Note_on_c, 0, 79, 0
2, 34260, Note_on_c, 0, 50, 100
2, 34260, Note_on_c, 0, 78, 100
2, 34320, Note_on_c, 0, 78, 0
2, 34320, Note_on_c, 0, 76, 100
2, 34380, Note_on_c, 0, 60, 0
2, 34380, Note_on_c, 0, 76, 0
2, 34380, Note_on_c, 0, 45, 100
2, 34380, Note_on_c, 0, 66, 100
2, 34440, Note_on_c, 0, 50, 0
2, 34560, Note_on_c, 0, 45, 0
2, 34560, Note_on_c, 0, 48, 100
2, 34620, Note_on_c, 0, 76, 100
2, 34680, Note_on_c, 0, 76, 0
2, 34740, Note_on_c, 0, 48, 0
2, 34740, Note_on_c, 0, 47, 100
2, 34740, Note_on_c, 0, 76, 100
2, 34980, Note_on_c, 0, 47, 0
2, 34980, Note_on_c, 0, 45, 100
2, 34980, Note_on_c, 0, 74, 100
2, 35040, Note_on_c, 0, 76, 0
2, 35040, Note_on_c, 0, 74, 0
2, 35040, Note_on_c, 0, 72, 100
2, 35100, Note_on_c, 0, 66, 0
2, 35100, Note_on_c, 0, 72, 0
2, 35100, Note_on_c, 0, 48, 100
2, 35100, Note_on_c, 0, 54, 100
2, 35100, Note_on_c, 0, 57, 100
2, 35100, Note_on_c, 0, 62, 100
2, 35160, Note_on_c, 0, 45, 0
2, 35280, Note_on_c, 0, 48, 0
2, 35280, Note_on_c, 0, 62, 0
2, 35280, Note_on_c, 0, 55, 100
2, 35280, Note_on_c, 0, 67, 100
2, 35340, Note_on_c, 0, 54, 0
2, 35580, Note_on_c, 0, 57, 0
2, 35580, Note_on_c, 0, 59, 100
2, 35640, Note_on_c, 0, 67, 0
2, 35640, Note_on_c, 0, 62, 100
2, 35700, Note_on_c, 0, 55, 0
2, 35700, Note_on_c, 0, 62, 0
2, 35700, Note_on_c, 0, 50, 100
2, 35700, Note_on_c, 0, 67, 100
2, 35760, Note_on_c, 0, 67, 0
2, 35760, Note_on_c, 0, 66, 100
2, 35820, Note_on_c, 0, 66, 0
2, 35820, Note_on_c, 0, 67, 100
2, 35880, Note_on_c, 0, 67, 0
2, 35880, Note_on_c, 0, 66, 100
2, 35940, Note_on_c, 0, 66, 0
2, 36000, Note_on_c, 0, 50, 0
2, 36000, Note_on_c, 0, 43, 100
2, 36000, Note_on_c, 0, 66, 100
2, 36180, Note_on_c, 0, 66, 0
2, 36180, Note_on_c, 0, 67, 100
2, 36900, Note_on_c, 0, 59, 0
2, 36900, Note_on_c, 0, 67, 0
2, 36900, Note_on_c, 0, 55, 100
2, 36900, Note_on_c, 0, 57, 100
2, 36900, Note_on_c, 0, 69, 100
2, 36960, Note_on_c, 0, 43, 0
2, 37020, Note_on_c, 0, 57, 0
2, 37020, Note_on_c, 0, 74, 100
2, 37080, Note_on_c, 0, 55, 0
2, 37140, Note_on_c, 0, 54, 100
2, 37320, Note_on_c, 0, 69, 0
2, 37320, Note_on_c, 0, 54, 0
2, 37320, Note_on_c, 0, 47, 100
2, 37320, Note_on_c, 0, 55, 100
2, 37320, Note_on_c, 0, 71, 100
2, 37380, Note_on_c, 0, 74, 0
2, 37380, Note_on_c, 0, 71, 0
2, 37380, Note_on_c, 0, 45, 100
2, 37380, Note_on_c, 0, 72, 100
2, 37440, Note_on_c, 0, 47, 0
2, 37500, Note_on_c, 0, 55, 0
2, 37500, Note_on_c, 0, 72, 0
2, 37500, Note_on_c, 0, 66, 100
2, 37500, Note_on_c, 0, 71, 100
2, 37680, Note_on_c, 0, 45, 0
2, 37680, Note_on_c, 0, 71, 0
2, 37680, Note_on_c, 0, 50, 100
2, 37680, Note_on_c, 0, 72, 100
2, 37740, Note_on_c, 0, 66, 0
2, 37740, Note_on_c, 0, 72, 0
2, 37740, Note_on_c, 0, 69, 100
2, 37800, Note_on_c, 0, 50, 0
2, 37800, Note_on_c, 0, 48, 100
2, 37800, Note_on_c, 0, 66, 100
2, 37860, Note_on_c, 0, 69, 0
2, 37860, Note_on_c, 0, 76, 100
2, 37920, Note_on_c, 0, 76, 0
2, 37980, Note_on_c, 0, 48, 0
2, 37980, Note_on_c, 0, 47, 100
2, 37980, Note_on_c, 0, 76, 100
2, 38040, Note_on_c, 0, 76, 0
2, 38040, Note_on_c, 0, 75, 100
2, 38160, Note_on_c, 0, 66, 0
2, 38160, Note_on_c, 0, 75, 0
2, 38160, Note_on_c, 0, 45, 100
2, 38160, Note_on_c, 0, 72, 100
2, 38160, Note_on_c, 0, 78, 100
2, 38220, Note_on_c, 0, 47, 0
2, 38220, Note_on_c, 0, 72, 0
2, 38220, Note_on_c, 0, 52, 100
2, 38220, Note_on_c, 0, 71, 100
2, 38280, Note_on_c, 0, 78, 0
2, 38400, Note_on_c, 0, 52, 0
2, 38400, Note_on_c, 0, 57, 100
2, 38400, Note_on_c, 0, 72, 100
2, 38460, Note_on_c, 0, 71, 0
2, 38460, Note_on_c, 0, 72, 0
2, 38460, Note_on_c, 0, 69, 100
2, 38700, Note_on_c, 0, 45, 0
2, 38700, Note_on_c, 0, 69, 0
2, 38700, Note_on_c, 0, 43, 100
2, 38700, Note_on_c, 0, 64, 100
2, 38760, Note_on_c, 0, 57, 0
2, 38880, Note_on_c, 0, 69, 100
2, 39000, Note_on_c, 0, 43, 0
2, 39000, Note_on_c, 0, 69, 0
2, 39000, Note_on_c, 0, 42, 100
2, 39000, Note_on_c, 0, 72, 100
2, 39060, Note_on_c, 0, 64, 0
2, 39060, Note_on_c, 0, 71, 100
2, 39120, Note_on_c, 0, 42, 0
2, 39120, Note_on_c, 0, 71, 0
2, 39120, Note_on_c, 0, 40, 100
2, 39120, Note_on_c, 0, 69, 100
2, 39180, Note_on_c, 0, 69, 0
2, 39180, Note_on_c, 0, 67, 100
2, 39240, Note_on_c, 0, 40, 0
2, 39240, Note_on_c, 0, 38, 100
2, 39240, Note_on_c, 0, 66, 100
2, 39300, Note_on_c, 0, 72, 0
2, 39300, Note_on_c, 0, 74, 100
2, 39360, Note_on_c, 0, 67, 0
2, 39360, Note_on_c, 0, 74, 0
2, 39360, Note_on_c, 0, 45, 100
2, 39360, Note_on_c, 0, 72, 100
2, 39420, Note_on_c, 0, 38, 0
2, 39480, Note_on_c, 0, 66, 0
2, 39480, Note_on_c, 0, 72, 0
2, 39480, Note_on_c, 0, 43, 100
2, 39480, Note_on_c, 0, 67, 100
2, 39480, Note_on_c, 0, 71, 100
2, 39540, Note_on_c, 0, 45, 0
2, 39600, Note_on_c, 0, 71, 0
2, 39600, Note_on_c, 0, 72, 100
2, 39780, Note_on_c, 0, 43, 0
2, 39780, Note_on_c, 0, 72, 0
2, 39780, Note_on_c, 0, 50, 100
2, 39780, Note_on_c, 0, 71, 100
2, 39840, Note_on_c, 0, 67, 0
2, 39840, Note_on_c, 0, 71, 0
2, 39840, Note_on_c, 0, 69, 100
2, 39960, Note_on_c, 0, 69, 0
2, 39960, Note_on_c, 0, 67, 100
2, 40020, Note_on_c, 0, 67, 0
2, 40020, Note_on_c, 0, 66, 100
2, 40080, Note_on_c, 0, 66, 0
2, 40080, Note_on_c, 0, 67, 100
2, 40140, Note_on_c, 0, 67, 0
2, 40140, Note_on_c, 0, 66, 100
2, 40200, Note_on_c, 0, 66, 0
2, 40200, Note_on_c, 0, 64, 100
2, 40260, Note_on_c, 0, 64, 0
2, 40320, Note_on_c, 0, 54, 100
2, 40320, Note_on_c, 0, 64, 100
2, 40380, Note_on_c, 0, 64, 0
2, 40380, Note_on_c, 0, 62, 100
2, 40560, Note_on_c, 0, 57, 100
2, 41280, Note_on_c, 0, 50, 0
2, 41280, Note_on_c, 0, 62, 0
2, 41280, Note_on_c, 0, 59, 100
2, 41280, Note_on_c, 0, 67, 100
2, 41280, Note_on_c, 0, 72, 100
2, 41340, Note_on_c, 0, 54, 0
2, 41340, Note_on_c, 0, 59, 0
2, 41340, Note_on_c, 0, 72, 0
2, 41340, Note_on_c, 0, 48, 100
2, 41340, Note_on_c, 0, 66, 100
2, 41340, Note_on_c, 0, 69, 100
2, 41400, Note_on_c, 0, 67, 0
2, 41400, Note_on_c, 0, 66, 0
2, 41400, Note_on_c, 0, 61, 100
2, 41400, Note_on_c, 0, 79, 100
2, 41460, Note_on_c, 0, 48, 0
2, 41520, Note_on_c, 0, 69, 0
2, 42060, Note_on_c, 0, 61, 0
2, 42060, Note_on_c, 0, 67, 100
2, 42060, Note_on_c, 0, 76, 100
2, 42120, Note_on_c, 0, 79, 0
2, 42120, Note_on_c, 0, 76, 0
2, 42120, Note_on_c, 0, 72, 100
2, 42180, Note_on_c, 0, 57, 0
2, 42180, Note_on_c, 0, 55, 100
2, 42180, Note_on_c, 0, 78, 100
2, 42240, Note_on_c, 0, 67, 0
2, 42300, Note_on_c, 0, 78, 0
2, 42300, Note_on_c, 0, 79, 100
2, 42360, Note_on_c, 0, 72, 0
2, 42360, Note_on_c, 0, 79, 0
2, 42360, Note_on_c, 0, 54, 100
2, 42360, Note_on_c, 0, 81, 100
2, 42420, Note_on_c, 0, 55, 0
2, 42600, Note_on_c, 0, 81, 0
2, 42600, Note_on_c, 0, 72, 100
2, 42660, Note_on_c, 0, 54, 0
2, 42660, Note_on_c, 0, 50, 100
2, 42660, Note_on_c, 0, 71, 100
2, 42720, Note_on_c, 0, 72, 0
2, 42720, Note_on_c, 0, 71, 0
2, 42720, Note_on_c, 0, 69, 100
2, 42780, Note_on_c, 0, 50, 0
2, 42780, Note_on_c, 0, 55, 100
2, 42780, Note_on_c, 0, 71, 100
2, 42840, Note_on_c, 0, 69, 0
2, 42900, Note_on_c, 0, 55, 0
2, 42900, Note_on_c, 0, 57, 100
2, 42900, Note_on_c, 0, 66, 100
2, 43020, Note_on_c, 0, 66, 0
2, 43020, Note_on_c, 0, 67, 100
2, 43080, Note_on_c, 0, 71, 0
2, 43080, Note_on_c, 0, 73, 100
2, 43200, Note_on_c, 0, 73, 0
2, 43260, Note_on_c, 0, 57, 0
2, 43260, Note_on_c, 0, 50, 100
2, 43260, Note_on_c, 0, 73, 100
2, 43440, Note_on_c, 0, 67, 0
2, 43440, Note_on_c, 0, 73, 0
2, 43440, Note_on_c, 0, 60, 100
2, 43440, Note_on_c, 0, 64, 100
2, 43500, Note_on_c, 0, 50, 0
2, 43500, Note_on_c, 0, 64, 0
2, 43500, Note_on_c, 0, 67, 100
2, 43500, Note_on_c, 0, 75, 100
2, 43560, Note_on_c, 0, 60, 0
2, 43560, Note_on_c, 0, 75, 0
2, 43560, Note_on_c, 0, 59, 100
2, 43620, Note_on_c, 0, 67, 0
2, 43620, Note_on_c, 0, 62, 100
2, 43620, Note_on_c, 0, 71, 100
2, 43680, Note_on_c, 0, 62, 0
2, 43680, Note_on_c, 0, 50, 100
2, 43680, Note_on_c, 0, 72, 100
2, 43740, Note_on_c, 0, 59, 0
2, 43740, Note_on_c, 0, 57, 100
2, 43800, Note_on_c, 0, 71, 0
2, 43800, Note_on_c, 0, 72, 0
2, 43860, Note_on_c, 0, 57, 0
2, 43860, Note_on_c, 0, 55, 100
2, 43860, Note_on_c, 0, 72, 100
2, 44040, Note_on_c, 0, 72, 0
2, 44040, Note_on_c, 0, 71, 100
2, 44100, Note_on_c, 0, 71, 0
2, 44100, Note_on_c, 0, 69, 100
2, 44160, Note_on_c, 0, 69, 0
2, 44160, Note_on_c, 0, 71, 100
2, 44280, Note_on_c, 0, 50, 0
2, 44280, Note_on_c, 0, 71, 0
2, 44280, Note_on_c, 0, 48, 100
2, 44280, Note_on_c, 0, 79, 100
2, 44340, Note_on_c, 0, 55, 0
2, 44340, Note_on_c, 0, 79, 0
2, 44340, Note_on_c, 0, 76, 100
2, 44460, Note_on_c, 0, 76, 0
2, 44460, Note_on_c, 0, 74, 100
2, 44580, Note_on_c, 0, 74, 0
2, 44580, Note_on_c, 0, 72, 100
2, 44700, Note_on_c, 0, 72, 0
2, 44700, Note_on_c, 0, 52, 100
2, 44700, Note_on_c, 0, 71, 100
2, 44820, Note_on_c, 0, 48, 0
2, 44820, Note_on_c, 0, 71, 0
2, 44820, Note_on_c, 0, 55, 100
2, 44820, Note_on_c, 0, 72, 100
2, 44880, Note_on_c, 0, 52, 0
2, 45120, Note_on_c, 0, 55, 0
2, 45120, Note_on_c, 0, 59, 100
2, 45120, Note_on_c, 0, 74, 100
2, 45180, Note_on_c, 0, 74, 0
2, 45180, Note_on_c, 0, 60, 100
2, 45420, Note_on_c, 0, 72, 0
2, 45420, Note_on_c, 0, 71, 100
2, 45480, Note_on_c, 0, 60, 0
2, 45480, Note_on_c, 0, 62, 100
2, 45480, Note_on_c, 0, 69, 100
2, 45540, Note_on_c, 0, 59, 0
2, 45540, Note_on_c, 0, 69, 0
2, 45540, Note_on_c, 0, 57, 100
2, 45540, Note_on_c, 0, 67, 100
2, 45600, Note_on_c, 0, 71, 0
2, 45600, Note_on_c, 0, 57, 0
2, 45600, Note_on_c, 0, 59, 100
2, 45660, Note_on_c, 0, 62, 0
2, 45660, Note_on_c, 0, 59, 0
2, 45660, Note_on_c, 0, 52, 100
2, 46020, Note_on_c, 0, 67, 0
2, 46020, Note_on_c, 0, 62, 100
2, 46020, Note_on_c, 0, 66, 100
2, 46020, Note_on_c, 0, 69, 100
2, 46080, Note_on_c, 0, 62, 0
2, 46080, Note_on_c, 0, 69, 0
2, 46080, Note_on_c, 0, 45, 100
2, 46080, Note_on_c, 0, 71, 100
2, 46140, Note_on_c, 0, 52, 0
2, 46140, Note_on_c, 0, 71, 0
2, 46140, Note_on_c, 0, 57, 100
2, 46140, Note_on_c, 0, 72, 100
2, 46200, Note_on_c, 0, 66, 0
2, 46320, Note_on_c, 0, 72, 0
2, 46320, Note_on_c, 0, 69, 100
2, 46380, Note_on_c, 0, 45, 0
2, 46380, Note_on_c, 0, 69, 0
2, 46380, Note_on_c, 0, 43, 100
2, 46380, Note_on_c, 0, 64, 100
2, 46440, Note_on_c, 0, 57, 0
2, 46560, Note_on_c, 0, 69, 100
2, 46680, Note_on_c, 0, 43, 0
2, 46680, Note_on_c, 0, 45, 100
2, 46680, Note_on_c, 0, 57, 100
2, 46740, Note_on_c, 0, 64, 0
2, 46800, Note_on_c, 0, 69, 0
2, 46800, Note_on_c, 0, 57, 0
2, 46800, Note_on_c, 0, 43, 100
2, 46800, Note_on_c, 0, 64, 100
2, 46860, Note_on_c, 0, 45, 0
2, 46860, Note_on_c, 0, 69, 100
2, 46980, Note_on_c, 0, 43, 0
2, 46980, Note_on_c, 0, 69, 0
2, 46980, Note_on_c, 0, 42, 100
2, 46980, Note_on_c, 0, 72, 100
2, 47100, Note_on_c, 0, 64, 0
2, 47100, Note_on_c, 0, 71, 100
2, 47160, Note_on_c, 0, 42, 0
2, 47160, Note_on_c, 0, 71, 0
2, 47160, Note_on_c, 0, 40, 100
2, 47160, Note_on_c, 0, 69, 100
2, 47280, Note_on_c, 0, 69, 0
2, 47280, Note_on_c, 0, 67, 100
2, 47340, Note_on_c, 0, 40, 0
2, 47340, Note_on_c, 0, 38, 100
2, 47340, Note_on_c, 0, 66, 100
2, 47400, Note_on_c, 0, 67, 0
2, 47460, Note_on_c, 0, 72, 0
2, 47460, Note_on_c, 0, 74, 100
2, 47520, Note_on_c, 0, 38, 0
2, 47520, Note_on_c, 0, 74, 0
2, 47520, Note_on_c, 0, 45, 100
2, 47520, Note_on_c, 0, 72, 100
2, 47580, Note_on_c, 0, 72, 0
2, 47580, Note_on_c, 0, 71, 100
2, 47640, Note_on_c, 0, 66, 0
2, 47640, Note_on_c, 0, 71, 0
2, 47640, Note_on_c, 0, 50, 100
2, 47640, Note_on_c, 0, 72, 100
2, 47700, Note_on_c, 0, 45, 0
2, 47700, Note_on_c, 0, 72, 0
2, 47700, Note_on_c, 0, 69, 100
2, 47760, Note_on_c, 0, 50, 0
2, 47760, Note_on_c, 0, 48, 100
2, 47760, Note_on_c, 0, 66, 100
2, 47880, Note_on_c, 0, 69, 0
2, 47880, Note_on_c, 0, 47, 100
2, 47880, Note_on_c, 0, 72, 100
2, 47940, Note_on_c, 0, 48, 0
2, 47940, Note_on_c, 0, 72, 0
2, 47940, Note_on_c, 0, 76, 100
2, 48000, Note_on_c, 0, 76, 0
2, 48000, Note_on_c, 0, 75, 100
2, 48120, Note_on_c, 0, 66, 0
2, 48120, Note_on_c, 0, 75, 0
2, 48120, Note_on_c, 0, 45, 100
2, 48120, Note_on_c, 0, 72, 100
2, 48120, Note_on_c, 0, 78, 100
2, 48180, Note_on_c, 0, 47, 0
2, 48180, Note_on_c, 0, 78, 0
2, 48180, Note_on_c, 0, 79, 100
2, 48240, Note_on_c, 0, 79, 0
2, 48240, Note_on_c, 0, 81, 100
2, 48360, Note_on_c, 0, 45, 0
2, 48360, Note_on_c, 0, 81, 0
2, 48360, Note_on_c, 0, 47, 100
2, 48360, Note_on_c, 0, 71, 100
2, 48360, Note_on_c, 0, 79, 100
2, 48420, Note_on_c, 0, 72, 0
2, 48540, Note_on_c, 0, 71, 0
2, 48540, Note_on_c, 0, 51, 100
2, 48540, Note_on_c, 0, 69, 100
2, 48540, Note_on_c, 0, 78, 100
2, 48600, Note_on_c, 0, 79, 0
2, 48720, Note_on_c, 0, 78, 0
2, 48780, Note_on_c, 0, 47, 0
2, 48780, Note_on_c, 0, 52, 100
2, 48780, Note_on_c, 0, 78, 100
2, 48840, Note_on_c, 0, 51, 0
2, 48900, Note_on_c, 0, 69, 0
2, 48900, Note_on_c, 0, 78, 0
2, 48900, Note_on_c, 0, 59, 100
2, 48900, Note_on_c, 0, 67, 100
2, 48900, Note_on_c, 0, 71, 100
2, 48900, Note_on_c, 0, 74, 100
2, 48960, Note_on_c, 0, 59, 0
2, 48960, Note_on_c, 0, 74, 0
2, 48960, Note_on_c, 0, 76, 100
2, 48960, Note_on_c, 0, 79, 100
2, 49140, Note_on_c, 0, 59, 100
2, 49320, Note_on_c, 0, 67, 0
2, 49380, Note_on_c, 0, 71, 0
2, 49380, Note_on_c, 0, 79, 0
2, 49380, Note_on_c, 0, 64, 100
2, 49380, Note_on_c, 0, 81, 100
2, 49440, Note_on_c, 0, 76, 0
2, 49440, Note_on_c, 0, 81, 0
2, 49440, Note_on_c, 0, 79, 100
2, 49500, Note_on_c, 0, 52, 0
2, 49500, Note_on_c, 0, 64, 0
2, 49500, Note_on_c, 0, 50, 100
2, 49500, Note_on_c, 0, 72, 100
2, 49560, Note_on_c, 0, 59, 0
2, 49560, Note_on_c, 0, 57, 100
2, 49620, Note_on_c, 0, 79, 0
2, 49620, Note_on_c, 0, 72, 0
2, 49680, Note_on_c, 0, 57, 0
2, 49680, Note_on_c, 0, 55, 100
2, 49680, Note_on_c, 0, 72, 100
2, 49740, Note_on_c, 0, 55, 0
2, 49740, Note_on_c, 0, 54, 100
2, 49740, Note_on_c, 0, 81, 100
2, 49800, Note_on_c, 0, 72, 0
2, 49800, Note_on_c, 0, 52, 100
2, 49860, Note_on_c, 0, 54, 0
2, 49920, Note_on_c, 0, 81, 0
2, 49920, Note_on_c, 0, 54, 100
2, 49920, Note_on_c, 0, 72, 100
2, 49980, Note_on_c, 0, 52, 0
2, 50220, Note_on_c, 0, 50, 0
2, 50220, Note_on_c, 0, 72, 0
2, 50220, Note_on_c, 0, 43, 100
2, 50220, Note_on_c, 0, 55, 100
2, 50220, Note_on_c, 0, 71, 100
2, 50280, Note_on_c, 0, 54, 0
2, 50280, Note_on_c, 0, 71, 0
2, 50280, Note_on_c, 0, 67, 100
2, 50640, Note_on_c, 0, 55, 0
2, 50640, Note_on_c, 0, 57, 100
2, 50700, Note_on_c, 0, 67, 0
2, 50700, Note_on_c, 0, 66, 100
2, 50760, Note_on_c, 0, 66, 0
2, 50820, Note_on_c, 0, 57, 0
2, 50820, Note_on_c, 0, 59, 100
2, 50820, Note_on_c, 0, 66, 100
2, 50940, Note_on_c, 0, 43, 0
2, 50940, Note_on_c, 0, 66, 0
2, 50940, Note_on_c, 0, 57, 100
2, 50940, Note_on_c, 0, 67, 100
2, 50940, Note_on_c, 0, 73, 100
2, 51000, Note_on_c, 0, 59, 0
2, 51000, Note_on_c, 0, 73, 0
2, 51060, Note_on_c, 0, 57, 0
2, 51060, Note_on_c, 0, 50, 100
2, 51060, Note_on_c, 0, 73, 100
2, 51240, Note_on_c, 0, 73, 0
2, 51240, Note_on_c, 0, 74, 100
2, 51300, Note_on_c, 0, 74, 0
2, 51360, Note_on_c, 0, 67, 0
2, 51360, Note_on_c, 0, 66, 100
2, 51420, Note_on_c, 0, 50, 0
2, 51420, Note_on_c, 0, 55, 100
2, 51420, Note_on_c, 0, 67, 100
2, 51480, Note_on_c, 0, 66, 0
2, 51600, Note_on_c, 0, 55, 0
2, 51600, Note_on_c, 0, 53, 100
2, 51600, Note_on_c, 0, 62, 100
2, 51660, Note_on_c, 0, 67, 0
2, 51720, Note_on_c, 0, 67, 100
2, 51900, Note_on_c, 0, 53, 0
2, 51900, Note_on_c, 0, 67, 0
2, 51900, Note_on_c, 0, 50, 100
2, 51900, Note_on_c, 0, 55, 100
2, 51900, Note_on_c, 0, 72, 100
2, 51960, Note_on_c, 0, 62, 0
2, 51960, Note_on_c, 0, 72, 0
2, 51960, Note_on_c, 0, 71, 100
2, 52020, Note_on_c, 0, 71, 0
2, 52020, Note_on_c, 0, 69, 100
2, 52080, Note_on_c, 0, 69, 0
2, 52080, Note_on_c, 0, 71, 100
2, 52140, Note_on_c, 0, 71, 0
2, 52140, Note_on_c, 0, 69, 100
2, 52200, Note_on_c, 0, 69, 0
2, 52200, Note_on_c, 0, 71, 100
2, 52380, Note_on_c, 0, 71, 0
2, 52380, Note_on_c, 0, 72, 100
2, 52440, Note_on_c, 0, 55, 0
2, 52440, Note_on_c, 0, 54, 100
2, 52440, Note_on_c, 0, 81, 100
2, 52500, Note_on_c, 0, 72, 0
2, 52620, Note_on_c, 0, 50, 0
2, 52620, Note_on_c, 0, 81, 0
2, 52620, Note_on_c, 0, 57, 100
2, 52620, Note_on_c, 0, 67, 100
2, 52620, Note_on_c, 0, 71, 100
2, 52680, Note_on_c, 0, 54, 0
2, 53220, Note_on_c, 0, 57, 0
2, 53220, Note_on_c, 0, 71, 0
2, 53220, Note_on_c, 0, 62, 100
2, 53220, Note_on_c, 0, 69, 100
2, 53280, Note_on_c, 0, 67, 0
2, 53280, Note_on_c, 0, 64, 100
2, 53460, Note_on_c, 0, 69, 0
2, 53460, Note_on_c, 0, 71, 100
2, 53520, Note_on_c, 0, 64, 0
2, 53580, Note_on_c, 0, 71, 0
2, 53580, Note_on_c, 0, 69, 100
2, 53640, Note_on_c, 0, 64, 100
2, 54000, Note_on_c, 0, 69, 0
2, 54000, Note_on_c, 0, 71, 100
2, 54060, Note_on_c, 0, 64, 0
2, 54060, Note_on_c, 0, 69, 100
2, 54120, Note_on_c, 0, 71, 0
2, 54300, Note_on_c, 0, 69, 0
2, 54300, Note_on_c, 0, 67, 100
2, 54360, Note_on_c, 0, 67, 0
2, 54360, Note_on_c, 0, 69, 100
2, 54420, Note_on_c, 0, 64, 100
2, 55440, Note_on_c, 0, 62, 0
2, 55440, Note_on_c, 0, 64, 0
2, 55440, Note_on_c, 0, 52, 100
2, 55440, Note_on_c, 0, 55, 100
2, 55440, Note_on_c, 0, 61, 100
2, 55440, Note_on_c, 0, 66, 100
2, 55500, Note_on_c, 0, 69, 0
2, 55500, Note_on_c, 0, 66, 0
2, 55500, Note_on_c, 0, 67, 100
2, 55560, Note_on_c, 0, 67, 0
2, 55560, Note_on_c, 0, 69, 100
2, 55620, Note_on_c, 0, 69, 0
2, 55620, Note_on_c, 0, 66, 100
2, 55620, Note_on_c, 0, 67, 100
2, 55680, Note_on_c, 0, 67, 0
2, 55740, Note_on_c, 0, 66, 0
2, 55740, Note_on_c, 0, 67, 100
2, 55920, Note_on_c, 0, 52, 0
2, 55920, Note_on_c, 0, 61, 0
2, 55920, Note_on_c, 0, 50, 100
2, 55920, Note_on_c, 0, 69, 100
2, 55980, Note_on_c, 0, 55, 0
2, 56040, Note_on_c, 0, 67, 0
2, 56160, Note_on_c, 0, 50, 0
2, 56160, Note_on_c, 0, 48, 100
2, 56160, Note_on_c, 0, 66, 100
2, 56220, Note_on_c, 0, 69, 0
2, 56220, Note_on_c, 0, 76, 100
2, 56280, Note_on_c, 0, 76, 0
2, 56340, Note_on_c, 0, 48, 0
2, 56340, Note_on_c, 0, 47, 100
2, 56340, Note_on_c, 0, 76, 100
2, 56460, Note_on_c, 0, 66, 0
2, 56460, Note_on_c, 0, 52, 100
2, 56460, Note_on_c, 0, 59, 100
2, 56460, Note_on_c, 0, 79, 100
2, 56520, Note_on_c, 0, 47, 0
2, 56520, Note_on_c, 0, 59, 0
2, 56520, Note_on_c, 0, 64, 100
2, 56520, Note_on_c, 0, 81, 100
2, 56580, Note_on_c, 0, 76, 0
2, 56580, Note_on_c, 0, 81, 0
2, 56640, Note_on_c, 0, 79, 0
2, 56640, Note_on_c, 0, 81, 100
2, 56700, Note_on_c, 0, 81, 0
2, 56700, Note_on_c, 0, 79, 100
2, 56760, Note_on_c, 0, 52, 0
2, 56760, Note_on_c, 0, 79, 0
2, 56760, Note_on_c, 0, 57, 100
2, 56760, Note_on_c, 0, 69, 100
2, 56820, Note_on_c, 0, 64, 0
2, 56820, Note_on_c, 0, 55, 100
2, 56820, Note_on_c, 0, 74, 100
2, 56880, Note_on_c, 0, 57, 0
2, 56880, Note_on_c, 0, 55, 0
2, 56940, Note_on_c, 0, 54, 100
2, 57000, Note_on_c, 0, 54, 0
2, 57000, Note_on_c, 0, 52, 100
2, 57240, Note_on_c, 0, 52, 0
2, 57240, Note_on_c, 0, 54, 100
2, 57300, Note_on_c, 0, 74, 0
2, 57300, Note_on_c, 0, 47, 100
2, 57300, Note_on_c, 0, 52, 100
2, 57300, Note_on_c, 0, 78, 100
2, 57360, Note_on_c, 0, 54, 0
2, 57360, Note_on_c, 0, 78, 0
2, 57420, Note_on_c, 0, 69, 0
2, 57420, Note_on_c, 0, 76, 100
2, 57480, Note_on_c, 0, 47, 0
2, 57480, Note_on_c, 0, 76, 0
2, 57480, Note_on_c, 0, 78, 100
2, 57540, Note_on_c, 0, 55, 100
2, 57780, Note_on_c, 0, 78, 0
2, 57780, Note_on_c, 0, 54, 100
2, 57780, Note_on_c, 0, 76, 100
2, 57840, Note_on_c, 0, 55, 0
2, 58260, Note_on_c, 0, 52, 0
2, 58260, Note_on_c, 0, 50, 100
2, 58260, Note_on_c, 0, 55, 100
2, 58320, Note_on_c, 0, 54, 0
2, 58320, Note_on_c, 0, 71, 100
2, 58380, Note_on_c, 0, 76, 0
2, 58380, Note_on_c, 0, 55, 0
2, 58380, Note_on_c, 0, 62, 100
2, 58380, Note_on_c, 0, 66, 100
2, 58380, Note_on_c, 0, 69, 100
2, 58440, Note_on_c, 0, 50, 0
2, 58440, Note_on_c, 0, 69, 0
2, 58500, Note_on_c, 0, 71, 0
2, 58560, Note_on_c, 0, 62, 0
2, 58560, Note_on_c, 0, 60, 100
2, 58560, Note_on_c, 0, 71, 100
2, 58620, Note_on_c, 0, 71, 0
2, 58620, Note_on_c, 0, 72, 100
2, 58680, Note_on_c, 0, 72, 0
2, 58680, Note_on_c, 0, 74, 100
2, 58740, Note_on_c, 0, 66, 0
2, 58740, Note_on_c, 0, 74, 0
2, 58740, Note_on_c, 0, 62, 100
2, 58740, Note_on_c, 0, 67, 100
2, 58800, Note_on_c, 0, 60, 0
2, 58800, Note_on_c, 0, 67, 0
2, 58800, Note_on_c, 0, 69, 100
2, 58860, Note_on_c, 0, 62, 0
2, 58860, Note_on_c, 0, 50, 100
2, 58860, Note_on_c, 0, 67, 100
2, 58920, Note_on_c, 0, 69, 0
2, 58920, Note_on_c, 0, 67, 0
2, 58920, Note_on_c, 0, 66, 100
2, 58920, Note_on_c, 0, 73, 100
2, 58980, Note_on_c, 0, 50, 0
2, 58980, Note_on_c, 0, 73, 0
2, 58980, Note_on_c, 0, 59, 100
2, 58980, Note_on_c, 0, 67, 100
2, 58980, Note_on_c, 0, 71, 100
2, 58980, Note_on_c, 0, 74, 100
2, 59040, Note_on_c, 0, 66, 0
2, 59040, Note_on_c, 0, 74, 0
2, 59040, Note_on_c, 0, 52, 100
2, 59040, Note_on_c, 0, 76, 100
2, 59040, Note_on_c, 0, 79, 100
2, 59100, Note_on_c, 0, 59, 0
2, 59220, Note_on_c, 0, 67, 0
2, 59220, Note_on_c, 0, 52, 0
2, 59220, Note_on_c, 0, 79, 0
2, 59220, Note_on_c, 0, 48, 100
2, 59220, Note_on_c, 0, 66, 100
2, 59280, Note_on_c, 0, 71, 0
2, 59340, Note_on_c, 0, 76, 0
2, 59340, Note_on_c, 0, 66, 0
2, 59340, Note_on_c, 0, 47, 100
2, 59340, Note_on_c, 0, 55, 100
2, 59340, Note_on_c, 0, 71, 100
2, 59400, Note_on_c, 0, 48, 0
2, 59400, Note_on_c, 0, 71, 0
2, 59400, Note_on_c, 0, 45, 100
2, 59400, Note_on_c, 0, 72, 100
2, 59460, Note_on_c, 0, 47, 0
2, 59460, Note_on_c, 0, 72, 0
2, 59460, Note_on_c, 0, 74, 100
2, 59580, Note_on_c, 0, 55, 0
2, 59580, Note_on_c, 0, 74, 0
2, 59580, Note_on_c, 0, 52, 100
2, 59580, Note_on_c, 0, 72, 100
2, 59640, Note_on_c, 0, 45, 0
2, 59640, Note_on_c, 0, 72, 0
2, 59640, Note_on_c, 0, 48, 100
2, 59640, Note_on_c, 0, 54, 100
2, 59640, Note_on_c, 0, 57, 100
2, 59640, Note_on_c, 0, 62, 100
2, 59700, Note_on_c, 0, 52, 0
2, 59700, Note_on_c, 0, 54, 0
2, 59700, Note_on_c, 0, 62, 0
2, 59700, Note_on_c, 0, 38, 100
2, 59700, Note_on_c, 0, 66, 100
2, 59700, Note_on_c, 0, 74, 100
2, 59760, Note_on_c, 0, 48, 0
2, 59760, Note_on_c, 0, 38, 0
2, 59760, Note_on_c, 0, 74, 0
2, 59760, Note_on_c, 0, 45, 100
2, 59760, Note_on_c, 0, 72, 100
2, 59820, Note_on_c, 0, 57, 0
2, 59820, Note_on_c, 0, 72, 0
2, 59820, Note_on_c, 0, 71, 100
2, 59880, Note_on_c, 0, 66, 0
2, 59880, Note_on_c, 0, 71, 0
2, 59880, Note_on_c, 0, 50, 100
2, 59880, Note_on_c, 0, 72, 100
2, 59940, Note_on_c, 0, 45, 0
2, 59940, Note_on_c, 0, 72, 0
2, 59940, Note_on_c, 0, 69, 100
2, 60000, End_track
0, 0, End_of_file
