0, 0, Header, 1, 18, 240
1, 0, Start_track
1, 0, Time_signature, 4, 2, 24, 8
1, 0, Key_signature, 0, "major"
1, 0, Tempo, 800000
1, 4320, Tempo, 810811
1, 4560, Tempo, 821918
1, 4800, Tempo, 833333
1, 5040, Tempo, 845070
1, 5280, Tempo, 857143
1, 5760, Tempo, 869565
1, 6000, Tempo, 882353
1, 6240, Tempo, 895522
1, 6480, Tempo, 909091
1, 6720, Tempo, 923077
1, 7680, Tempo, 800000
1, 13920, Tempo, 810811
1, 14160, Tempo, 821918
1, 14400, Tempo, 833333
1, 14640, Tempo, 845070
1, 14880, Tempo, 857143
1, 15360, Tempo, 869565
1, 15600, Tempo, 882353
1, 15840, Tempo, 895522
1, 16080, Tempo, 909091
1, 16320, Tempo, 923077
1, 17280, Tempo, 800000
1, 33840, Tempo, 821918
1, 34080, Tempo, 845070
1, 34320, Tempo, 869565
1, 34560, Tempo, 895522
1, 34800, Tempo, 923077
1, 35040, Tempo, 967742
1, 35280, Tempo, 1000000
1, 35520, Tempo, 1034483
1, 35760, Tempo, 1071429
1, 36000, Tempo, 1111111
1, 36240, Tempo, 1176471
1, 36480, Tempo, 1224490
1, 36720, Tempo, 1276596
1, 36960, Tempo, 1333333
1, 37200, Tempo, 1395349
1, 37440, Tempo, 1500000
1, 37680, Tempo, 1034483
1, 37920, Tempo, 1052632
1, 38160, Tempo, 1071429
1, 38400, Tempo, 1090909
1, 38640, Tempo, 1111111
1, 38880, Tempo, 1132075
1, 39120, Tempo, 1153846
1, 39360, Tempo, 1200000
1, 39600, Tempo, 882353
1, 39840, Tempo, 909091
1, 40080, Tempo, 923077
1, 40320, Tempo, 952381
1, 40560, Tempo, 983607
1, 40800, Tempo, 1000000
1, 41040, Tempo, 1034483
1, 41280, Tempo, 1052632
1, 41520, Tempo, 1090909
1, 41760, Tempo, 1111111
1, 42000, Tempo, 1153846
1, 42000, End_track
2, 0, Start_track
2, 0, MIDI_port, 0
2, 0, Title_t, "Horns"
2, 0, Program_c, 0, 60
2, 0, Control_c, 0, 7, 127
2, 0, Control_c, 0, 10, 70
2, 50, Control_c, 0, 91, 90
2, 6000, Note_on_c, 0, 64, 102
2, 6240, Note_on_c, 0, 63, 68
2, 6240, Note_on_c, 0, 66, 79
2, 6245, Note_on_c, 0, 64, 0
2, 6465, Note_on_c, 0, 63, 0
2, 6480, Note_on_c, 0, 66, 0
2, 6480, Note_on_c, 0, 62, 47
2, 6480, Note_on_c, 0, 68, 71
2, 6717, Note_on_c, 0, 68, 0
2, 6717, Note_on_c, 0, 62, 0
2, 6717, Control_c, 0, 7, 80
2, 15622, Note_on_c, 0, 64, 88
2, 15860, Note_on_c, 0, 66, 84
2, 15860, Note_on_c, 0, 63, 68
2, 15862, Note_on_c, 0, 64, 0
2, 16080, Note_on_c, 0, 63, 0
2, 16090, Note_on_c, 0, 62, 32
2, 16090, Note_on_c, 0, 68, 76
2, 16097, Note_on_c, 0, 66, 0
2, 16315, Note_on_c, 0, 68, 0
2, 16315, Note_on_c, 0, 62, 0
2, 16320, Note_on_c, 0, 69, 100
2, 16320, Note_on_c, 0, 60, 52
2, 16577, Note_on_c, 0, 60, 0
2, 16577, Note_on_c, 0, 69, 0
2, 24000, Note_on_c, 0, 69, 64
2, 24000, Note_on_c, 0, 64, 40
2, 24960, Note_on_c, 0, 69, 0
2, 24960, Note_on_c, 0, 66, 76
2, 24960, Note_on_c, 0, 69, 96
2, 24985, Note_on_c, 0, 64, 0
2, 25920, Note_on_c, 0, 70, 108
2, 25920, Note_on_c, 0, 67, 96
2, 25925, Note_on_c, 0, 69, 0
2, 25930, Note_on_c, 0, 66, 0
2, 26842, Note_on_c, 0, 70, 0
2, 26845, Note_on_c, 0, 67, 0
2, 26880, Note_on_c, 0, 70, 84
2, 26880, Note_on_c, 0, 63, 80
2, 27120, Note_on_c, 0, 68, 100
2, 27125, Note_on_c, 0, 70, 0
2, 27317, Note_on_c, 0, 63, 0
2, 27360, Note_on_c, 0, 61, 92
2, 27585, Note_on_c, 0, 68, 0
2, 27600, Note_on_c, 0, 67, 84
2, 27802, Note_on_c, 0, 61, 0
2, 27840, Note_on_c, 0, 63, 92
2, 27840, Note_on_c, 0, 68, 72
2, 27870, Note_on_c, 0, 67, 0
2, 28750, Note_on_c, 0, 68, 0
2, 28800, Note_on_c, 0, 65, 84
2, 28800, Note_on_c, 0, 68, 108
2, 28802, Note_on_c, 0, 63, 0
2, 29755, Note_on_c, 0, 68, 0
2, 29760, Note_on_c, 0, 69, 108
2, 29760, Note_on_c, 0, 66, 92
2, 29767, Note_on_c, 0, 65, 0
2, 30685, Note_on_c, 0, 69, 0
2, 30697, Note_on_c, 0, 66, 0
2, 30720, Note_on_c, 0, 69, 100
2, 30720, Note_on_c, 0, 62, 76
2, 30960, Note_on_c, 0, 67, 92
2, 30970, Note_on_c, 0, 69, 0
2, 31440, Note_on_c, 0, 66, 104
2, 31447, Note_on_c, 0, 67, 0
2, 31650, Note_on_c, 0, 62, 0
2, 31680, Note_on_c, 0, 62, 80
2, 31680, Note_on_c, 0, 67, 84
2, 31692, Note_on_c, 0, 66, 0
2, 32640, Note_on_c, 0, 67, 0
2, 32640, Note_on_c, 0, 64, 100
2, 32640, Note_on_c, 0, 67, 108
2, 32665, Note_on_c, 0, 62, 0
2, 33600, Note_on_c, 0, 68, 96
2, 33600, Note_on_c, 0, 65, 112
2, 33622, Note_on_c, 0, 64, 0
2, 33625, Note_on_c, 0, 67, 0
2, 34077, Note_on_c, 0, 68, 0
2, 34080, Note_on_c, 0, 61, 92
2, 34080, Note_on_c, 0, 66, 100
2, 34085, Note_on_c, 0, 65, 0
2, 34502, Note_on_c, 0, 61, 0
2, 34515, Note_on_c, 0, 66, 0
2, 34560, Note_on_c, 0, 66, 108
2, 34560, Note_on_c, 0, 63, 100
2, 35502, Note_on_c, 0, 63, 0
2, 35502, Note_on_c, 0, 66, 0
2, 35520, Note_on_c, 0, 67, 112
2, 35520, Note_on_c, 0, 64, 96
2, 36000, Note_on_c, 0, 65, 120
2, 36015, Note_on_c, 0, 64, 0
2, 36017, Note_on_c, 0, 67, 0
2, 36240, Note_on_c, 0, 60, 120
2, 36450, Note_on_c, 0, 60, 0
2, 36460, Note_on_c, 0, 65, 0
2, 36480, Note_on_c, 0, 65, 112
2, 36480, Note_on_c, 0, 60, 104
2, 36960, Note_on_c, 0, 64, 124
2, 36965, Note_on_c, 0, 65, 0
2, 37362, Note_on_c, 0, 60, 0
2, 37375, Note_on_c, 0, 64, 0
2, 37440, Note_on_c, 0, 65, 120
2, 37440, Note_on_c, 0, 60, 124
2, 38652, Note_on_c, 0, 60, 0
2, 38655, Note_on_c, 0, 65, 0
2, 38655, End_track
3, 0, Start_track
3, 0, MIDI_port, 0
3, 0, Title_t, "Strings 1&2"
3, 0, Program_c, 1, 48
3, 0, Control_c, 1, 7, 122
3, 0, Control_c, 1, 10, 30
3, 100, Control_c, 1, 91, 90
3, 960, Note_on_c, 1, 57, 127
3, 987, Note_on_c, 1, 57, 0
3, 990, Note_on_c, 1, 59, 127
3, 1012, Note_on_c, 1, 59, 0
3, 1020, Note_on_c, 1, 60, 127
3, 1040, Note_on_c, 1, 60, 0
3, 1080, Note_on_c, 1, 60, 127
3, 1095, Note_on_c, 1, 60, 0
3, 1140, Note_on_c, 1, 60, 127
3, 1155, Note_on_c, 1, 60, 0
3, 1200, Note_on_c, 1, 60, 127
3, 1225, Note_on_c, 1, 60, 0
3, 1230, Note_on_c, 1, 59, 127
3, 1252, Note_on_c, 1, 59, 0
3, 1260, Note_on_c, 1, 57, 127
3, 1280, Note_on_c, 1, 57, 0
3, 1320, Note_on_c, 1, 57, 127
3, 1337, Note_on_c, 1, 57, 0
3, 1380, Note_on_c, 1, 57, 127
3, 1397, Note_on_c, 1, 57, 0
3, 1440, Note_on_c, 1, 57, 127
3, 1460, Note_on_c, 1, 57, 0
3, 1470, Note_on_c, 1, 59, 127
3, 1487, Note_on_c, 1, 59, 0
3, 1500, Note_on_c, 1, 60, 127
3, 1520, Note_on_c, 1, 60, 0
3, 1560, Note_on_c, 1, 60, 127
3, 1577, Note_on_c, 1, 60, 0
3, 1620, Note_on_c, 1, 60, 127
3, 1637, Note_on_c, 1, 60, 0
3, 1680, Note_on_c, 1, 60, 127
3, 1710, Note_on_c, 1, 59, 127
3, 1717, Note_on_c, 1, 60, 0
3, 1732, Note_on_c, 1, 59, 0
3, 1740, Note_on_c, 1, 57, 127
3, 1760, Note_on_c, 1, 57, 0
3, 1800, Note_on_c, 1, 59, 77
3, 1800, Note_on_c, 1, 57, 127
3, 1812, Note_on_c, 1, 59, 0
3, 1820, Note_on_c, 1, 57, 0
3, 1860, Note_on_c, 1, 57, 127
3, 1880, Note_on_c, 1, 57, 0
3, 1920, Note_on_c, 1, 59, 127
3, 1940, Note_on_c, 1, 59, 0
3, 1950, Note_on_c, 1, 60, 127
3, 1967, Note_on_c, 1, 60, 0
3, 1980, Note_on_c, 1, 62, 127
3, 2000, Note_on_c, 1, 62, 0
3, 2040, Note_on_c, 1, 62, 127
3, 2057, Note_on_c, 1, 62, 0
3, 2100, Note_on_c, 1, 62, 127
3, 2115, Note_on_c, 1, 62, 0
3, 2160, Note_on_c, 1, 62, 127
3, 2182, Note_on_c, 1, 62, 0
3, 2190, Note_on_c, 1, 60, 127
3, 2210, Note_on_c, 1, 60, 0
3, 2220, Note_on_c, 1, 59, 127
3, 2240, Note_on_c, 1, 59, 0
3, 2280, Note_on_c, 1, 59, 127
3, 2300, Note_on_c, 1, 59, 0
3, 2340, Note_on_c, 1, 59, 127
3, 2357, Note_on_c, 1, 59, 0
3, 2400, Note_on_c, 1, 59, 127
3, 2420, Note_on_c, 1, 59, 0
3, 2430, Note_on_c, 1, 60, 127
3, 2447, Note_on_c, 1, 60, 0
3, 2460, Note_on_c, 1, 62, 127
3, 2480, Note_on_c, 1, 62, 0
3, 2520, Note_on_c, 1, 62, 127
3, 2537, Note_on_c, 1, 62, 0
3, 2580, Note_on_c, 1, 62, 127
3, 2597, Note_on_c, 1, 62, 0
3, 2640, Note_on_c, 1, 62, 127
3, 2660, Note_on_c, 1, 62, 0
3, 2670, Note_on_c, 1, 60, 127
3, 2690, Note_on_c, 1, 60, 0
3, 2700, Note_on_c, 1, 59, 127
3, 2722, Note_on_c, 1, 59, 0
3, 2760, Note_on_c, 1, 59, 127
3, 2780, Note_on_c, 1, 59, 0
3, 2820, Note_on_c, 1, 59, 127
3, 2837, Note_on_c, 1, 59, 0
3, 2880, Note_on_c, 1, 60, 127
3, 2900, Note_on_c, 1, 60, 0
3, 2910, Note_on_c, 1, 62, 127
3, 2927, Note_on_c, 1, 62, 0
3, 2940, Note_on_c, 1, 64, 127
3, 2967, Note_on_c, 1, 64, 0
3, 3000, Note_on_c, 1, 64, 127
3, 3017, Note_on_c, 1, 64, 0
3, 3060, Note_on_c, 1, 64, 127
3, 3075, Note_on_c, 1, 64, 0
3, 3120, Note_on_c, 1, 64, 127
3, 3145, Note_on_c, 1, 64, 0
3, 3150, Note_on_c, 1, 62, 127
3, 3172, Note_on_c, 1, 62, 0
3, 3180, Note_on_c, 1, 60, 127
3, 3200, Note_on_c, 1, 60, 0
3, 3240, Note_on_c, 1, 60, 127
3, 3260, Note_on_c, 1, 60, 0
3, 3300, Note_on_c, 1, 60, 127
3, 3320, Note_on_c, 1, 60, 0
3, 3360, Note_on_c, 1, 66, 41
3, 3360, Note_on_c, 1, 60, 127
3, 3362, Note_on_c, 1, 66, 0
3, 3380, Note_on_c, 1, 60, 0
3, 3390, Note_on_c, 1, 62, 127
3, 3407, Note_on_c, 1, 62, 0
3, 3420, Note_on_c, 1, 64, 127
3, 3442, Note_on_c, 1, 64, 0
3, 3480, Note_on_c, 1, 64, 127
3, 3497, Note_on_c, 1, 64, 0
3, 3540, Note_on_c, 1, 64, 127
3, 3555, Note_on_c, 1, 64, 0
3, 3600, Note_on_c, 1, 64, 127
3, 3630, Note_on_c, 1, 64, 0
3, 3630, Note_on_c, 1, 62, 127
3, 3647, Note_on_c, 1, 62, 0
3, 3660, Note_on_c, 1, 60, 127
3, 3682, Note_on_c, 1, 60, 0
3, 3720, Note_on_c, 1, 60, 127
3, 3740, Note_on_c, 1, 60, 0
3, 3780, Note_on_c, 1, 66, 41
3, 3780, Note_on_c, 1, 60, 127
3, 3782, Note_on_c, 1, 66, 0
3, 3800, Note_on_c, 1, 60, 0
3, 3840, Note_on_c, 1, 62, 127
3, 3857, Note_on_c, 1, 62, 0
3, 3870, Note_on_c, 1, 64, 127
3, 3887, Note_on_c, 1, 64, 0
3, 3900, Note_on_c, 1, 65, 127
3, 3925, Note_on_c, 1, 65, 0
3, 3960, Note_on_c, 1, 65, 127
3, 3977, Note_on_c, 1, 65, 0
3, 4020, Note_on_c, 1, 65, 127
3, 4037, Note_on_c, 1, 65, 0
3, 4080, Note_on_c, 1, 65, 127
3, 4110, Note_on_c, 1, 65, 0
3, 4110, Note_on_c, 1, 64, 127
3, 4132, Note_on_c, 1, 64, 0
3, 4140, Note_on_c, 1, 62, 127
3, 4162, Note_on_c, 1, 62, 0
3, 4200, Note_on_c, 1, 62, 127
3, 4220, Note_on_c, 1, 62, 0
3, 4260, Note_on_c, 1, 62, 127
3, 4280, Note_on_c, 1, 62, 0
3, 4320, Note_on_c, 1, 62, 127
3, 4337, Note_on_c, 1, 62, 0
3, 4350, Note_on_c, 1, 64, 127
3, 4367, Note_on_c, 1, 64, 0
3, 4380, Note_on_c, 1, 65, 127
3, 4402, Note_on_c, 1, 65, 0
3, 4440, Note_on_c, 1, 65, 127
3, 4457, Note_on_c, 1, 65, 0
3, 4500, Note_on_c, 1, 65, 127
3, 4515, Note_on_c, 1, 65, 0
3, 4560, Note_on_c, 1, 65, 127
3, 4590, Note_on_c, 1, 65, 0
3, 4590, Note_on_c, 1, 64, 127
3, 4610, Note_on_c, 1, 64, 0
3, 4620, Note_on_c, 1, 62, 127
3, 4642, Note_on_c, 1, 62, 0
3, 4680, Note_on_c, 1, 62, 127
3, 4702, Note_on_c, 1, 62, 0
3, 4740, Note_on_c, 1, 62, 127
3, 4760, Note_on_c, 1, 62, 0
3, 4800, Note_on_c, 1, 64, 127
3, 4830, Note_on_c, 1, 68, 127
3, 4835, Note_on_c, 1, 64, 0
3, 4847, Note_on_c, 1, 68, 0
3, 4860, Note_on_c, 1, 71, 127
3, 4880, Note_on_c, 1, 71, 0
3, 4920, Note_on_c, 1, 71, 127
3, 4937, Note_on_c, 1, 71, 0
3, 4980, Note_on_c, 1, 71, 127
3, 4995, Note_on_c, 1, 71, 0
3, 5040, Note_on_c, 1, 71, 127
3, 5065, Note_on_c, 1, 71, 0
3, 5070, Note_on_c, 1, 68, 127
3, 5090, Note_on_c, 1, 68, 0
3, 5100, Note_on_c, 1, 62, 127
3, 5100, Note_on_c, 1, 64, 127
3, 5117, Note_on_c, 1, 62, 0
3, 5120, Note_on_c, 1, 64, 0
3, 5160, Note_on_c, 1, 64, 127
3, 5180, Note_on_c, 1, 64, 0
3, 5220, Note_on_c, 1, 64, 127
3, 5240, Note_on_c, 1, 64, 0
3, 5280, Note_on_c, 1, 72, 29
3, 5280, Note_on_c, 1, 64, 127
3, 5285, Note_on_c, 1, 72, 0
3, 5305, Note_on_c, 1, 64, 0
3, 5310, Note_on_c, 1, 69, 127
3, 5327, Note_on_c, 1, 69, 0
3, 5340, Note_on_c, 1, 72, 127
3, 5362, Note_on_c, 1, 72, 0
3, 5400, Note_on_c, 1, 72, 127
3, 5420, Note_on_c, 1, 72, 0
3, 5460, Note_on_c, 1, 72, 127
3, 5477, Note_on_c, 1, 72, 0
3, 5520, Note_on_c, 1, 72, 127
3, 5545, Note_on_c, 1, 72, 0
3, 5550, Note_on_c, 1, 69, 127
3, 5572, Note_on_c, 1, 69, 0
3, 5580, Note_on_c, 1, 64, 127
3, 5602, Note_on_c, 1, 64, 0
3, 5640, Note_on_c, 1, 64, 127
3, 5662, Note_on_c, 1, 64, 0
3, 5700, Note_on_c, 1, 64, 121
3, 5725, Note_on_c, 1, 64, 0
3, 5760, Note_on_c, 1, 56, 127
3, 5760, Note_on_c, 1, 74, 121
3, 5760, Note_on_c, 1, 76, 127
3, 5760, Note_on_c, 1, 64, 127
3, 5760, Note_on_c, 1, 71, 127
3, 5765, Note_on_c, 1, 74, 0
3, 5852, Note_on_c, 1, 64, 0
3, 5852, Note_on_c, 1, 76, 0
3, 5857, Note_on_c, 1, 71, 0
3, 5875, Note_on_c, 1, 56, 0
3, 6360, Note_on_c, 1, 63, 97
3, 6477, Note_on_c, 1, 63, 0
3, 6600, Note_on_c, 1, 62, 93
3, 6712, Note_on_c, 1, 62, 0
3, 6712, Control_c, 1, 7, 127
3, 6720, Note_on_c, 1, 60, 110
3, 6837, Note_on_c, 1, 64, 110
3, 6842, Note_on_c, 1, 60, 0
3, 6887, Note_on_c, 1, 64, 0
3, 6892, Note_on_c, 1, 67, 110
3, 6955, Note_on_c, 1, 67, 0
3, 6955, Note_on_c, 1, 72, 110
3, 7072, Note_on_c, 1, 71, 110
3, 7082, Note_on_c, 1, 72, 0
3, 7195, Note_on_c, 1, 69, 110
3, 7197, Note_on_c, 1, 71, 0
3, 7312, Note_on_c, 1, 67, 111
3, 7315, Note_on_c, 1, 69, 0
3, 7430, Note_on_c, 1, 67, 0
3, 7430, Note_on_c, 1, 65, 111
3, 7552, Note_on_c, 1, 65, 0
3, 7552, Note_on_c, 1, 64, 111
3, 7672, Note_on_c, 1, 64, 0
3, 7672, Note_on_c, 1, 62, 111
3, 7795, Note_on_c, 1, 64, 111
3, 7800, Note_on_c, 1, 62, 0
3, 7847, Note_on_c, 1, 64, 0
3, 7850, Note_on_c, 1, 65, 111
3, 7915, Note_on_c, 1, 65, 0
3, 7915, Note_on_c, 1, 67, 112
3, 8027, Note_on_c, 1, 55, 112
3, 8035, Note_on_c, 1, 67, 0
3, 8137, Note_on_c, 1, 55, 0
3, 8142, Note_on_c, 1, 60, 112
3, 8272, Note_on_c, 1, 60, 0
3, 8272, Note_on_c, 1, 64, 112
3, 8327, Note_on_c, 1, 64, 0
3, 8330, Note_on_c, 1, 67, 112
3, 8392, Note_on_c, 1, 67, 0
3, 8397, Note_on_c, 1, 72, 112
3, 8517, Note_on_c, 1, 72, 0
3, 8517, Note_on_c, 1, 67, 113
3, 8570, Note_on_c, 1, 67, 0
3, 8575, Note_on_c, 1, 64, 113
3, 8630, Note_on_c, 1, 64, 0
3, 8632, Note_on_c, 1, 60, 113
3, 8752, Note_on_c, 1, 64, 113
3, 8765, Note_on_c, 1, 60, 0
3, 8807, Note_on_c, 1, 67, 113
3, 8810, Note_on_c, 1, 64, 0
3, 8872, Note_on_c, 1, 72, 113
3, 8875, Note_on_c, 1, 67, 0
3, 8990, Note_on_c, 1, 71, 113
3, 9002, Note_on_c, 1, 72, 0
3, 9117, Note_on_c, 1, 69, 114
3, 9122, Note_on_c, 1, 71, 0
3, 9230, Note_on_c, 1, 67, 114
3, 9235, Note_on_c, 1, 69, 0
3, 9347, Note_on_c, 1, 67, 0
3, 9347, Note_on_c, 1, 65, 114
3, 9467, Note_on_c, 1, 64, 114
3, 9475, Note_on_c, 1, 65, 0
3, 9595, Note_on_c, 1, 64, 0
3, 9595, Note_on_c, 1, 62, 114
3, 9717, Note_on_c, 1, 64, 115
3, 9727, Note_on_c, 1, 62, 0
3, 9775, Note_on_c, 1, 65, 115
3, 9777, Note_on_c, 1, 64, 0
3, 9835, Note_on_c, 1, 65, 0
3, 9835, Note_on_c, 1, 67, 115
3, 9952, Note_on_c, 1, 67, 0
3, 9955, Note_on_c, 1, 55, 115
3, 10047, Note_on_c, 1, 55, 0
3, 10072, Note_on_c, 1, 60, 115
3, 10102, Note_on_c, 1, 60, 0
3, 10102, Note_on_c, 1, 62, 115
3, 10135, Note_on_c, 1, 62, 0
3, 10135, Note_on_c, 1, 64, 115
3, 10155, Note_on_c, 1, 64, 0
3, 10197, Note_on_c, 1, 64, 116
3, 10215, Note_on_c, 1, 64, 0
3, 10260, Note_on_c, 1, 64, 116
3, 10280, Note_on_c, 1, 64, 0
3, 10325, Note_on_c, 1, 63, 116
3, 10347, Note_on_c, 1, 63, 0
3, 10355, Note_on_c, 1, 62, 116
3, 10375, Note_on_c, 1, 62, 0
3, 10380, Note_on_c, 1, 60, 116
3, 10402, Note_on_c, 1, 60, 0
3, 10437, Note_on_c, 1, 60, 116
3, 10460, Note_on_c, 1, 60, 0
3, 10497, Note_on_c, 1, 60, 116
3, 10515, Note_on_c, 1, 60, 0
3, 10560, Note_on_c, 1, 55, 116
3, 10590, Note_on_c, 1, 57, 116
3, 10592, Note_on_c, 1, 55, 0
3, 10615, Note_on_c, 1, 57, 0
3, 10620, Note_on_c, 1, 59, 116
3, 10640, Note_on_c, 1, 59, 0
3, 10677, Note_on_c, 1, 59, 116
3, 10700, Note_on_c, 1, 59, 0
3, 10737, Note_on_c, 1, 59, 116
3, 10760, Note_on_c, 1, 59, 0
3, 10797, Note_on_c, 1, 58, 117
3, 10825, Note_on_c, 1, 58, 0
3, 10825, Note_on_c, 1, 57, 117
3, 10850, Note_on_c, 1, 57, 0
3, 10855, Note_on_c, 1, 55, 117
3, 10877, Note_on_c, 1, 55, 0
3, 10915, Note_on_c, 1, 55, 117
3, 10940, Note_on_c, 1, 55, 0
3, 10975, Note_on_c, 1, 55, 117
3, 10990, Note_on_c, 1, 55, 0
3, 11035, Note_on_c, 1, 62, 117
3, 11065, Note_on_c, 1, 64, 117
3, 11067, Note_on_c, 1, 62, 0
3, 11087, Note_on_c, 1, 64, 0
3, 11090, Note_on_c, 1, 66, 117
3, 11100, Note_on_c, 1, 67, 117
3, 11105, Note_on_c, 1, 67, 0
3, 11105, Note_on_c, 1, 66, 0
3, 11152, Note_on_c, 1, 66, 117
3, 11172, Note_on_c, 1, 66, 0
3, 11212, Note_on_c, 1, 66, 117
3, 11232, Note_on_c, 1, 66, 0
3, 11277, Note_on_c, 1, 65, 117
3, 11300, Note_on_c, 1, 65, 0
3, 11305, Note_on_c, 1, 64, 117
3, 11325, Note_on_c, 1, 64, 0
3, 11332, Note_on_c, 1, 62, 118
3, 11355, Note_on_c, 1, 62, 0
3, 11395, Note_on_c, 1, 62, 118
3, 11417, Note_on_c, 1, 62, 0
3, 11457, Note_on_c, 1, 62, 118
3, 11475, Note_on_c, 1, 62, 0
3, 11522, Note_on_c, 1, 57, 118
3, 11545, Note_on_c, 1, 57, 0
3, 11552, Note_on_c, 1, 59, 118
3, 11570, Note_on_c, 1, 59, 0
3, 11580, Note_on_c, 1, 61, 118
3, 11597, Note_on_c, 1, 61, 0
3, 11637, Note_on_c, 1, 61, 118
3, 11662, Note_on_c, 1, 61, 0
3, 11700, Note_on_c, 1, 61, 118
3, 11722, Note_on_c, 1, 61, 0
3, 11762, Note_on_c, 1, 60, 118
3, 11787, Note_on_c, 1, 59, 118
3, 11790, Note_on_c, 1, 60, 0
3, 11812, Note_on_c, 1, 59, 0
3, 11817, Note_on_c, 1, 57, 118
3, 11842, Note_on_c, 1, 57, 0
3, 11877, Note_on_c, 1, 57, 118
3, 11907, Note_on_c, 1, 57, 0
3, 11935, Note_on_c, 1, 57, 119
3, 11950, Note_on_c, 1, 57, 0
3, 11997, Note_on_c, 1, 64, 119
3, 12025, Note_on_c, 1, 64, 0
3, 12027, Note_on_c, 1, 66, 119
3, 12045, Note_on_c, 1, 66, 0
3, 12052, Note_on_c, 1, 68, 119
3, 12072, Note_on_c, 1, 68, 0
3, 12117, Note_on_c, 1, 68, 119
3, 12137, Note_on_c, 1, 68, 0
3, 12175, Note_on_c, 1, 68, 119
3, 12195, Note_on_c, 1, 68, 0
3, 12237, Note_on_c, 1, 67, 119
3, 12262, Note_on_c, 1, 67, 0
3, 12265, Note_on_c, 1, 66, 119
3, 12285, Note_on_c, 1, 66, 0
3, 12290, Note_on_c, 1, 64, 119
3, 12312, Note_on_c, 1, 64, 0
3, 12352, Note_on_c, 1, 64, 119
3, 12372, Note_on_c, 1, 64, 0
3, 12412, Note_on_c, 1, 64, 119
3, 12427, Note_on_c, 1, 64, 0
3, 12472, Note_on_c, 1, 57, 119
3, 12500, Note_on_c, 1, 59, 110
3, 12502, Note_on_c, 1, 57, 0
3, 12525, Note_on_c, 1, 59, 0
3, 12530, Note_on_c, 1, 60, 110
3, 12550, Note_on_c, 1, 60, 0
3, 12587, Note_on_c, 1, 60, 111
3, 12610, Note_on_c, 1, 60, 0
3, 12650, Note_on_c, 1, 60, 112
3, 12670, Note_on_c, 1, 60, 0
3, 12710, Note_on_c, 1, 59, 112
3, 12735, Note_on_c, 1, 59, 0
3, 12737, Note_on_c, 1, 60, 113
3, 12760, Note_on_c, 1, 60, 0
3, 12760, Note_on_c, 1, 62, 113
3, 12782, Note_on_c, 1, 62, 0
3, 12817, Note_on_c, 1, 62, 114
3, 12837, Note_on_c, 1, 62, 0
3, 12882, Note_on_c, 1, 62, 114
3, 12900, Note_on_c, 1, 62, 0
3, 12950, Note_on_c, 1, 60, 115
3, 12980, Note_on_c, 1, 62, 116
3, 12982, Note_on_c, 1, 60, 0
3, 13002, Note_on_c, 1, 62, 0
3, 13005, Note_on_c, 1, 64, 116
3, 13025, Note_on_c, 1, 64, 0
3, 13065, Note_on_c, 1, 64, 117
3, 13087, Note_on_c, 1, 64, 0
3, 13127, Note_on_c, 1, 64, 117
3, 13145, Note_on_c, 1, 64, 0
3, 13195, Note_on_c, 1, 64, 118
3, 13220, Note_on_c, 1, 65, 118
3, 13222, Note_on_c, 1, 64, 0
3, 13240, Note_on_c, 1, 65, 0
3, 13250, Note_on_c, 1, 67, 119
3, 13270, Note_on_c, 1, 67, 0
3, 13312, Note_on_c, 1, 67, 120
3, 13335, Note_on_c, 1, 67, 0
3, 13372, Note_on_c, 1, 67, 120
3, 13392, Note_on_c, 1, 67, 0
3, 13435, Note_on_c, 1, 66, 121
3, 13460, Note_on_c, 1, 66, 0
3, 13462, Note_on_c, 1, 67, 121
3, 13482, Note_on_c, 1, 67, 0
3, 13490, Note_on_c, 1, 69, 122
3, 13512, Note_on_c, 1, 69, 0
3, 13552, Note_on_c, 1, 69, 123
3, 13572, Note_on_c, 1, 69, 0
3, 13617, Note_on_c, 1, 69, 123
3, 13620, Note_on_c, 1, 68, 123
3, 13625, Note_on_c, 1, 68, 0
3, 13635, Note_on_c, 1, 69, 0
3, 13682, Note_on_c, 1, 68, 124
3, 13707, Note_on_c, 1, 68, 0
3, 13710, Note_on_c, 1, 69, 124
3, 13732, Note_on_c, 1, 69, 0
3, 13740, Note_on_c, 1, 71, 125
3, 13767, Note_on_c, 1, 71, 0
3, 13797, Note_on_c, 1, 71, 126
3, 13822, Note_on_c, 1, 71, 0
3, 13860, Note_on_c, 1, 71, 126
3, 13880, Note_on_c, 1, 71, 0
3, 13920, Note_on_c, 1, 69, 127
3, 13947, Note_on_c, 1, 69, 0
3, 13947, Note_on_c, 1, 71, 127
3, 13975, Note_on_c, 1, 72, 127
3, 13977, Note_on_c, 1, 71, 0
3, 14000, Note_on_c, 1, 72, 0
3, 14032, Note_on_c, 1, 72, 127
3, 14057, Note_on_c, 1, 72, 0
3, 14092, Note_on_c, 1, 72, 127
3, 14122, Note_on_c, 1, 72, 0
3, 14152, Note_on_c, 1, 67, 127
3, 14182, Note_on_c, 1, 67, 0
3, 14182, Note_on_c, 1, 69, 127
3, 14200, Note_on_c, 1, 69, 0
3, 14205, Note_on_c, 1, 70, 127
3, 14232, Note_on_c, 1, 70, 0
3, 14270, Note_on_c, 1, 70, 127
3, 14292, Note_on_c, 1, 70, 0
3, 14330, Note_on_c, 1, 70, 127
3, 14350, Note_on_c, 1, 70, 0
3, 14397, Note_on_c, 1, 66, 127
3, 14425, Note_on_c, 1, 66, 0
3, 14425, Note_on_c, 1, 67, 127
3, 14447, Note_on_c, 1, 67, 0
3, 14452, Note_on_c, 1, 69, 127
3, 14480, Note_on_c, 1, 69, 0
3, 14512, Note_on_c, 1, 69, 127
3, 14537, Note_on_c, 1, 69, 0
3, 14575, Note_on_c, 1, 69, 127
3, 14607, Note_on_c, 1, 69, 0
3, 14640, Note_on_c, 1, 69, 127
3, 14672, Note_on_c, 1, 67, 127
3, 14675, Note_on_c, 1, 69, 0
3, 14697, Note_on_c, 1, 67, 0
3, 14697, Note_on_c, 1, 66, 127
3, 14720, Note_on_c, 1, 66, 0
3, 14760, Note_on_c, 1, 66, 127
3, 14780, Note_on_c, 1, 66, 0
3, 14820, Note_on_c, 1, 66, 127
3, 14840, Note_on_c, 1, 66, 0
3, 14880, Note_on_c, 1, 65, 127
3, 14907, Note_on_c, 1, 65, 0
3, 14910, Note_on_c, 1, 67, 127
3, 14927, Note_on_c, 1, 67, 0
3, 14940, Note_on_c, 1, 69, 127
3, 14960, Note_on_c, 1, 69, 0
3, 15000, Note_on_c, 1, 69, 127
3, 15020, Note_on_c, 1, 69, 0
3, 15062, Note_on_c, 1, 69, 127
3, 15080, Note_on_c, 1, 69, 0
3, 15125, Note_on_c, 1, 69, 127
3, 15155, Note_on_c, 1, 67, 127
3, 15157, Note_on_c, 1, 69, 0
3, 15175, Note_on_c, 1, 67, 0
3, 15182, Note_on_c, 1, 65, 127
3, 15205, Note_on_c, 1, 65, 0
3, 15242, Note_on_c, 1, 65, 127
3, 15265, Note_on_c, 1, 65, 0
3, 15295, Note_on_c, 1, 65, 127
3, 15310, Note_on_c, 1, 65, 0
3, 15367, Note_on_c, 1, 64, 105
3, 15367, Note_on_c, 1, 71, 127
3, 15370, Note_on_c, 1, 76, 127
3, 15452, Note_on_c, 1, 76, 0
3, 15455, Note_on_c, 1, 71, 0
3, 15455, Note_on_c, 1, 64, 0
3, 15480, Note_on_c, 1, 64, 127
3, 15595, Note_on_c, 1, 64, 0
3, 15710, Note_on_c, 1, 62, 105
3, 15820, Note_on_c, 1, 62, 0
3, 15942, Note_on_c, 1, 60, 77
3, 16065, Note_on_c, 1, 60, 0
3, 16177, Note_on_c, 1, 59, 41
3, 16320, Note_on_c, 1, 57, 101
3, 16327, Note_on_c, 1, 59, 0
3, 16430, Note_on_c, 1, 57, 0
3, 16440, Note_on_c, 1, 60, 101
3, 16497, Note_on_c, 1, 60, 0
3, 16500, Note_on_c, 1, 64, 89
3, 16560, Note_on_c, 1, 69, 121
3, 16565, Note_on_c, 1, 64, 0
3, 16680, Note_on_c, 1, 67, 125
3, 16720, Note_on_c, 1, 69, 0
3, 16800, Note_on_c, 1, 65, 93
3, 16802, Note_on_c, 1, 67, 0
3, 16920, Note_on_c, 1, 64, 69
3, 16922, Note_on_c, 1, 65, 0
3, 17040, Note_on_c, 1, 62, 73
3, 17057, Note_on_c, 1, 64, 0
3, 17160, Note_on_c, 1, 62, 0
3, 17160, Note_on_c, 1, 60, 69
3, 17280, Note_on_c, 1, 59, 77
3, 17282, Note_on_c, 1, 60, 0
3, 17400, Note_on_c, 1, 60, 89
3, 17405, Note_on_c, 1, 59, 0
3, 17460, Note_on_c, 1, 62, 85
3, 17472, Note_on_c, 1, 60, 0
3, 17520, Note_on_c, 1, 64, 93
3, 17530, Note_on_c, 1, 62, 0
3, 17580, Note_on_c, 1, 62, 113
3, 17590, Note_on_c, 1, 64, 0
3, 17640, Note_on_c, 1, 64, 109
3, 17650, Note_on_c, 1, 62, 0
3, 17760, Note_on_c, 1, 57, 85
3, 17765, Note_on_c, 1, 64, 0
3, 17880, Note_on_c, 1, 67, 113
3, 17895, Note_on_c, 1, 57, 0
3, 18000, Note_on_c, 1, 65, 109
3, 18010, Note_on_c, 1, 67, 0
3, 18120, Note_on_c, 1, 64, 105
3, 18127, Note_on_c, 1, 65, 0
3, 18240, Note_on_c, 1, 64, 0
3, 18240, Note_on_c, 1, 62, 61
3, 18360, Note_on_c, 1, 65, 101
3, 18370, Note_on_c, 1, 62, 0
3, 18420, Note_on_c, 1, 69, 105
3, 18430, Note_on_c, 1, 65, 0
3, 18480, Note_on_c, 1, 74, 125
3, 18490, Note_on_c, 1, 69, 0
3, 18600, Note_on_c, 1, 72, 127
3, 18610, Note_on_c, 1, 74, 0
3, 18720, Note_on_c, 1, 70, 101
3, 18732, Note_on_c, 1, 72, 0
3, 18840, Note_on_c, 1, 69, 105
3, 18842, Note_on_c, 1, 70, 0
3, 18957, Note_on_c, 1, 69, 0
3, 18960, Note_on_c, 1, 67, 101
3, 19080, Note_on_c, 1, 65, 69
3, 19082, Note_on_c, 1, 67, 0
3, 19197, Note_on_c, 1, 65, 0
3, 19200, Note_on_c, 1, 64, 73
3, 19320, Note_on_c, 1, 65, 77
3, 19325, Note_on_c, 1, 64, 0
3, 19380, Note_on_c, 1, 67, 85
3, 19387, Note_on_c, 1, 65, 0
3, 19440, Note_on_c, 1, 69, 85
3, 19447, Note_on_c, 1, 67, 0
3, 19560, Note_on_c, 1, 57, 69
3, 19567, Note_on_c, 1, 69, 0
3, 19680, Note_on_c, 1, 62, 85
3, 19690, Note_on_c, 1, 57, 0
3, 19800, Note_on_c, 1, 65, 77
3, 19812, Note_on_c, 1, 62, 0
3, 19860, Note_on_c, 1, 64, 93
3, 19865, Note_on_c, 1, 65, 0
3, 19920, Note_on_c, 1, 62, 121
3, 19922, Note_on_c, 1, 64, 0
3, 20040, Note_on_c, 1, 64, 113
3, 20045, Note_on_c, 1, 62, 0
3, 20100, Note_on_c, 1, 65, 121
3, 20107, Note_on_c, 1, 64, 0
3, 20160, Note_on_c, 1, 67, 93
3, 20172, Note_on_c, 1, 65, 0
3, 20280, Note_on_c, 1, 65, 125
3, 20282, Note_on_c, 1, 67, 0
3, 20340, Note_on_c, 1, 67, 85
3, 20342, Note_on_c, 1, 65, 0
3, 20400, Note_on_c, 1, 57, 69
3, 20400, Note_on_c, 1, 55, 85
3, 20405, Note_on_c, 1, 57, 0
3, 20407, Note_on_c, 1, 67, 0
3, 20520, Note_on_c, 1, 67, 113
3, 20522, Note_on_c, 1, 55, 0
3, 20640, Note_on_c, 1, 60, 101
3, 20642, Note_on_c, 1, 67, 0
3, 20760, Note_on_c, 1, 64, 93
3, 20772, Note_on_c, 1, 60, 0
3, 20820, Note_on_c, 1, 62, 77
3, 20825, Note_on_c, 1, 64, 0
3, 20877, Note_on_c, 1, 62, 0
3, 20880, Note_on_c, 1, 60, 85
3, 21000, Note_on_c, 1, 62, 101
3, 21010, Note_on_c, 1, 60, 0
3, 21057, Note_on_c, 1, 62, 0
3, 21060, Note_on_c, 1, 64, 73
3, 21120, Note_on_c, 1, 65, 105
3, 21135, Note_on_c, 1, 64, 0
3, 21240, Note_on_c, 1, 60, 85
3, 21242, Note_on_c, 1, 65, 0
3, 21300, Note_on_c, 1, 60, 0
3, 21300, Note_on_c, 1, 57, 113
3, 21360, Note_on_c, 1, 65, 121
3, 21367, Note_on_c, 1, 57, 0
3, 21380, Note_on_c, 1, 65, 0
3, 21480, Note_on_c, 1, 65, 127
3, 21502, Note_on_c, 1, 65, 0
3, 21600, Note_on_c, 1, 59, 93
3, 21720, Note_on_c, 1, 62, 77
3, 21722, Note_on_c, 1, 59, 0
3, 21780, Note_on_c, 1, 60, 89
3, 21782, Note_on_c, 1, 62, 0
3, 21840, Note_on_c, 1, 59, 81
3, 21845, Note_on_c, 1, 60, 0
3, 21960, Note_on_c, 1, 60, 105
3, 21965, Note_on_c, 1, 59, 0
3, 22020, Note_on_c, 1, 60, 0
3, 22020, Note_on_c, 1, 62, 105
3, 22080, Note_on_c, 1, 64, 85
3, 22087, Note_on_c, 1, 62, 0
3, 22200, Note_on_c, 1, 62, 105
3, 22212, Note_on_c, 1, 64, 0
3, 22320, Note_on_c, 1, 60, 101
3, 22335, Note_on_c, 1, 62, 0
3, 22440, Note_on_c, 1, 59, 81
3, 22450, Note_on_c, 1, 60, 0
3, 22555, Note_on_c, 1, 59, 0
3, 22560, Note_on_c, 1, 57, 109
3, 22680, Note_on_c, 1, 67, 127
3, 22682, Note_on_c, 1, 57, 0
3, 22800, Note_on_c, 1, 66, 113
3, 22812, Note_on_c, 1, 67, 0
3, 22920, Note_on_c, 1, 65, 85
3, 22927, Note_on_c, 1, 66, 0
3, 23040, Note_on_c, 1, 64, 105
3, 23045, Note_on_c, 1, 65, 0
3, 23157, Note_on_c, 1, 64, 0
3, 23160, Note_on_c, 1, 62, 105
3, 23220, Note_on_c, 1, 64, 105
3, 23232, Note_on_c, 1, 62, 0
3, 23280, Note_on_c, 1, 65, 109
3, 23290, Note_on_c, 1, 64, 0
3, 23400, Note_on_c, 1, 64, 85
3, 23405, Note_on_c, 1, 65, 0
3, 23460, Note_on_c, 1, 64, 0
3, 23460, Note_on_c, 1, 65, 93
3, 23520, Note_on_c, 1, 62, 113
3, 23522, Note_on_c, 1, 65, 0
3, 23640, Note_on_c, 1, 60, 101
3, 23642, Note_on_c, 1, 62, 0
3, 23697, Note_on_c, 1, 60, 0
3, 23700, Note_on_c, 1, 62, 89
3, 23760, Note_on_c, 1, 64, 101
3, 23772, Note_on_c, 1, 62, 0
3, 23880, Note_on_c, 1, 62, 93
3, 23885, Note_on_c, 1, 64, 0
3, 23937, Note_on_c, 1, 62, 0
3, 23940, Note_on_c, 1, 64, 85
3, 24000, Note_on_c, 1, 57, 105
3, 24000, Note_on_c, 1, 57, 93
3, 24001, Note_on_c, 1, 57, 0
3, 24002, Note_on_c, 1, 64, 0
3, 24030, Note_on_c, 1, 57, 0
3, 24060, Note_on_c, 1, 60, 105
3, 24060, Note_on_c, 1, 64, 93
3, 24060, Note_on_c, 1, 69, 127
3, 24080, Note_on_c, 1, 60, 0
3, 24082, Note_on_c, 1, 69, 0
3, 24082, Note_on_c, 1, 64, 0
3, 24120, Note_on_c, 1, 60, 85
3, 24120, Note_on_c, 1, 64, 93
3, 24120, Note_on_c, 1, 69, 127
3, 24145, Note_on_c, 1, 64, 0
3, 24145, Note_on_c, 1, 60, 0
3, 24147, Note_on_c, 1, 69, 0
3, 24180, Note_on_c, 1, 60, 105
3, 24180, Note_on_c, 1, 64, 105
3, 24180, Note_on_c, 1, 69, 121
3, 24202, Note_on_c, 1, 64, 0
3, 24202, Note_on_c, 1, 60, 0
3, 24205, Note_on_c, 1, 69, 0
3, 24300, Note_on_c, 1, 64, 105
3, 24300, Note_on_c, 1, 69, 101
3, 24300, Note_on_c, 1, 72, 127
3, 24320, Note_on_c, 1, 64, 0
3, 24322, Note_on_c, 1, 72, 0
3, 24322, Note_on_c, 1, 69, 0
3, 24360, Note_on_c, 1, 64, 125
3, 24360, Note_on_c, 1, 72, 121
3, 24360, Note_on_c, 1, 69, 125
3, 24380, Note_on_c, 1, 64, 0
3, 24382, Note_on_c, 1, 69, 0
3, 24385, Note_on_c, 1, 72, 0
3, 24420, Note_on_c, 1, 72, 127
3, 24420, Note_on_c, 1, 69, 127
3, 24420, Note_on_c, 1, 64, 127
3, 24440, Note_on_c, 1, 64, 0
3, 24442, Note_on_c, 1, 69, 0
3, 24445, Note_on_c, 1, 72, 0
3, 24480, Note_on_c, 1, 78, 41
3, 24492, Note_on_c, 1, 78, 0
3, 24540, Note_on_c, 1, 69, 127
3, 24540, Note_on_c, 1, 72, 127
3, 24540, Note_on_c, 1, 76, 127
3, 24562, Note_on_c, 1, 72, 0
3, 24562, Note_on_c, 1, 69, 0
3, 24565, Note_on_c, 1, 76, 0
3, 24600, Note_on_c, 1, 69, 127
3, 24600, Note_on_c, 1, 76, 127
3, 24600, Note_on_c, 1, 72, 127
3, 24620, Note_on_c, 1, 72, 0
3, 24620, Note_on_c, 1, 69, 0
3, 24625, Note_on_c, 1, 76, 0
3, 24660, Note_on_c, 1, 69, 127
3, 24660, Note_on_c, 1, 76, 127
3, 24660, Note_on_c, 1, 72, 127
3, 24680, Note_on_c, 1, 69, 0
3, 24682, Note_on_c, 1, 72, 0
3, 24687, Note_on_c, 1, 76, 0
3, 24780, Note_on_c, 1, 72, 127
3, 24780, Note_on_c, 1, 76, 127
3, 24780, Note_on_c, 1, 81, 127
3, 24802, Note_on_c, 1, 81, 0
3, 24802, Note_on_c, 1, 76, 0
3, 24802, Note_on_c, 1, 72, 0
3, 24840, Note_on_c, 1, 81, 127
3, 24840, Note_on_c, 1, 76, 127
3, 24840, Note_on_c, 1, 72, 127
3, 24860, Note_on_c, 1, 76, 0
3, 24862, Note_on_c, 1, 81, 0
3, 24865, Note_on_c, 1, 72, 0
3, 24900, Note_on_c, 1, 81, 127
3, 24900, Note_on_c, 1, 76, 127
3, 24900, Note_on_c, 1, 72, 127
3, 24920, Note_on_c, 1, 72, 0
3, 24920, Note_on_c, 1, 76, 0
3, 24925, Note_on_c, 1, 81, 0
3, 25020, Note_on_c, 1, 78, 127
3, 25020, Note_on_c, 1, 84, 127
3, 25040, Note_on_c, 1, 84, 0
3, 25045, Note_on_c, 1, 78, 0
3, 25080, Note_on_c, 1, 78, 127
3, 25080, Note_on_c, 1, 84, 127
3, 25102, Note_on_c, 1, 84, 0
3, 25105, Note_on_c, 1, 78, 0
3, 25140, Note_on_c, 1, 78, 127
3, 25140, Note_on_c, 1, 84, 127
3, 25165, Note_on_c, 1, 84, 0
3, 25165, Note_on_c, 1, 78, 0
3, 25260, Note_on_c, 1, 78, 127
3, 25260, Note_on_c, 1, 81, 127
3, 25280, Note_on_c, 1, 81, 0
3, 25285, Note_on_c, 1, 78, 0
3, 25320, Note_on_c, 1, 78, 127
3, 25320, Note_on_c, 1, 81, 127
3, 25342, Note_on_c, 1, 81, 0
3, 25342, Note_on_c, 1, 78, 0
3, 25380, Note_on_c, 1, 78, 127
3, 25380, Note_on_c, 1, 81, 127
3, 25402, Note_on_c, 1, 81, 0
3, 25405, Note_on_c, 1, 78, 0
3, 25500, Note_on_c, 1, 72, 127
3, 25500, Note_on_c, 1, 78, 127
3, 25525, Note_on_c, 1, 78, 0
3, 25525, Note_on_c, 1, 72, 0
3, 25560, Note_on_c, 1, 72, 113
3, 25560, Note_on_c, 1, 78, 127
3, 25582, Note_on_c, 1, 78, 0
3, 25585, Note_on_c, 1, 72, 0
3, 25620, Note_on_c, 1, 72, 127
3, 25620, Note_on_c, 1, 78, 127
3, 25645, Note_on_c, 1, 78, 0
3, 25645, Note_on_c, 1, 72, 0
3, 25740, Note_on_c, 1, 69, 127
3, 25740, Note_on_c, 1, 72, 127
3, 25765, Note_on_c, 1, 72, 0
3, 25765, Note_on_c, 1, 69, 0
3, 25800, Note_on_c, 1, 69, 127
3, 25800, Note_on_c, 1, 72, 121
3, 25825, Note_on_c, 1, 72, 0
3, 25825, Note_on_c, 1, 69, 0
3, 25860, Note_on_c, 1, 69, 127
3, 25860, Note_on_c, 1, 72, 127
3, 25882, Note_on_c, 1, 72, 0
3, 25887, Note_on_c, 1, 69, 0
3, 25980, Note_on_c, 1, 67, 127
3, 25980, Note_on_c, 1, 72, 127
3, 25980, Note_on_c, 1, 73, 127
3, 25987, Note_on_c, 1, 72, 0
3, 26000, Note_on_c, 1, 73, 0
3, 26005, Note_on_c, 1, 67, 0
3, 26040, Note_on_c, 1, 67, 127
3, 26040, Note_on_c, 1, 73, 127
3, 26060, Note_on_c, 1, 73, 0
3, 26060, Note_on_c, 1, 67, 0
3, 26100, Note_on_c, 1, 67, 127
3, 26100, Note_on_c, 1, 74, 127
3, 26100, Note_on_c, 1, 73, 127
3, 26120, Note_on_c, 1, 73, 0
3, 26120, Note_on_c, 1, 74, 0
3, 26122, Note_on_c, 1, 67, 0
3, 26220, Note_on_c, 1, 67, 127
3, 26220, Note_on_c, 1, 70, 127
3, 26240, Note_on_c, 1, 67, 0
3, 26245, Note_on_c, 1, 70, 0
3, 26280, Note_on_c, 1, 67, 117
3, 26280, Note_on_c, 1, 70, 127
3, 26300, Note_on_c, 1, 67, 0
3, 26305, Note_on_c, 1, 70, 0
3, 26340, Note_on_c, 1, 67, 127
3, 26340, Note_on_c, 1, 70, 127
3, 26360, Note_on_c, 1, 67, 0
3, 26365, Note_on_c, 1, 70, 0
3, 26460, Note_on_c, 1, 61, 127
3, 26460, Note_on_c, 1, 67, 127
3, 26480, Note_on_c, 1, 61, 0
3, 26482, Note_on_c, 1, 67, 0
3, 26520, Note_on_c, 1, 61, 127
3, 26520, Note_on_c, 1, 67, 127
3, 26542, Note_on_c, 1, 67, 0
3, 26542, Note_on_c, 1, 61, 0
3, 26580, Note_on_c, 1, 61, 127
3, 26580, Note_on_c, 1, 67, 127
3, 26602, Note_on_c, 1, 61, 0
3, 26605, Note_on_c, 1, 67, 0
3, 26700, Note_on_c, 1, 58, 127
3, 26700, Note_on_c, 1, 61, 127
3, 26722, Note_on_c, 1, 58, 0
3, 26727, Note_on_c, 1, 61, 0
3, 26760, Note_on_c, 1, 58, 121
3, 26760, Note_on_c, 1, 61, 127
3, 26780, Note_on_c, 1, 58, 0
3, 26787, Note_on_c, 1, 61, 0
3, 26820, Note_on_c, 1, 58, 127
3, 26820, Note_on_c, 1, 61, 127
3, 26840, Note_on_c, 1, 58, 0
3, 26847, Note_on_c, 1, 61, 0
3, 26940, Note_on_c, 1, 58, 113
3, 26940, Note_on_c, 1, 59, 127
3, 26962, Note_on_c, 1, 59, 0
3, 26962, Note_on_c, 1, 58, 0
3, 27000, Note_on_c, 1, 58, 127
3, 27000, Note_on_c, 1, 59, 127
3, 27020, Note_on_c, 1, 58, 0
3, 27025, Note_on_c, 1, 59, 0
3, 27060, Note_on_c, 1, 58, 127
3, 27060, Note_on_c, 1, 59, 127
3, 27080, Note_on_c, 1, 58, 0
3, 27085, Note_on_c, 1, 59, 0
3, 27180, Note_on_c, 1, 56, 127
3, 27180, Note_on_c, 1, 59, 127
3, 27205, Note_on_c, 1, 59, 0
3, 27205, Note_on_c, 1, 56, 0
3, 27240, Note_on_c, 1, 56, 127
3, 27240, Note_on_c, 1, 59, 127
3, 27262, Note_on_c, 1, 56, 0
3, 27265, Note_on_c, 1, 59, 0
3, 27300, Note_on_c, 1, 56, 127
3, 27300, Note_on_c, 1, 59, 127
3, 27317, Note_on_c, 1, 56, 0
3, 27322, Note_on_c, 1, 59, 0
3, 27420, Note_on_c, 1, 56, 125
3, 27420, Note_on_c, 1, 58, 127
3, 27437, Note_on_c, 1, 56, 0
3, 27442, Note_on_c, 1, 58, 0
3, 27480, Note_on_c, 1, 56, 105
3, 27480, Note_on_c, 1, 58, 127
3, 27500, Note_on_c, 1, 56, 0
3, 27502, Note_on_c, 1, 58, 0
3, 27540, Note_on_c, 1, 56, 127
3, 27540, Note_on_c, 1, 58, 127
3, 27562, Note_on_c, 1, 58, 0
3, 27562, Note_on_c, 1, 56, 0
3, 27660, Note_on_c, 1, 55, 121
3, 27660, Note_on_c, 1, 58, 127
3, 27682, Note_on_c, 1, 58, 0
3, 27685, Note_on_c, 1, 55, 0
3, 27720, Note_on_c, 1, 55, 89
3, 27720, Note_on_c, 1, 58, 127
3, 27742, Note_on_c, 1, 58, 0
3, 27742, Note_on_c, 1, 55, 0
3, 27780, Note_on_c, 1, 55, 89
3, 27780, Note_on_c, 1, 58, 127
3, 27795, Note_on_c, 1, 55, 0
3, 27805, Note_on_c, 1, 58, 0
3, 27840, Note_on_c, 1, 56, 127
3, 27840, Note_on_c, 1, 56, 127
3, 27841, Note_on_c, 1, 56, 0
3, 27865, Note_on_c, 1, 56, 0
3, 27900, Note_on_c, 1, 63, 125
3, 27900, Note_on_c, 1, 68, 127
3, 27922, Note_on_c, 1, 63, 0
3, 27925, Note_on_c, 1, 68, 0
3, 27960, Note_on_c, 1, 63, 81
3, 27960, Note_on_c, 1, 68, 125
3, 27985, Note_on_c, 1, 63, 0
3, 27987, Note_on_c, 1, 68, 0
3, 28020, Note_on_c, 1, 63, 113
3, 28020, Note_on_c, 1, 68, 125
3, 28045, Note_on_c, 1, 68, 0
3, 28045, Note_on_c, 1, 63, 0
3, 28140, Note_on_c, 1, 68, 121
3, 28140, Note_on_c, 1, 71, 127
3, 28162, Note_on_c, 1, 71, 0
3, 28165, Note_on_c, 1, 68, 0
3, 28200, Note_on_c, 1, 68, 127
3, 28200, Note_on_c, 1, 71, 125
3, 28225, Note_on_c, 1, 71, 0
3, 28225, Note_on_c, 1, 68, 0
3, 28260, Note_on_c, 1, 68, 127
3, 28260, Note_on_c, 1, 71, 127
3, 28285, Note_on_c, 1, 68, 0
3, 28287, Note_on_c, 1, 71, 0
3, 28380, Note_on_c, 1, 71, 127
3, 28380, Note_on_c, 1, 75, 113
3, 28402, Note_on_c, 1, 71, 0
3, 28410, Note_on_c, 1, 75, 0
3, 28440, Note_on_c, 1, 71, 127
3, 28440, Note_on_c, 1, 75, 127
3, 28465, Note_on_c, 1, 71, 0
3, 28470, Note_on_c, 1, 75, 0
3, 28500, Note_on_c, 1, 71, 127
3, 28500, Note_on_c, 1, 75, 127
3, 28525, Note_on_c, 1, 71, 0
3, 28527, Note_on_c, 1, 75, 0
3, 28620, Note_on_c, 1, 75, 127
3, 28620, Note_on_c, 1, 80, 127
3, 28647, Note_on_c, 1, 80, 0
3, 28647, Note_on_c, 1, 75, 0
3, 28680, Note_on_c, 1, 75, 109
3, 28680, Note_on_c, 1, 80, 127
3, 28707, Note_on_c, 1, 80, 0
3, 28707, Note_on_c, 1, 75, 0
3, 28740, Note_on_c, 1, 75, 127
3, 28740, Note_on_c, 1, 80, 127
3, 28765, Note_on_c, 1, 80, 0
3, 28767, Note_on_c, 1, 75, 0
3, 28860, Note_on_c, 1, 77, 127
3, 28860, Note_on_c, 1, 83, 127
3, 28882, Note_on_c, 1, 83, 0
3, 28882, Note_on_c, 1, 77, 0
3, 28920, Note_on_c, 1, 77, 127
3, 28920, Note_on_c, 1, 83, 127
3, 28937, Note_on_c, 1, 83, 0
3, 28940, Note_on_c, 1, 77, 0
3, 28980, Note_on_c, 1, 77, 127
3, 28980, Note_on_c, 1, 83, 127
3, 29000, Note_on_c, 1, 83, 0
3, 29005, Note_on_c, 1, 77, 0
3, 29100, Note_on_c, 1, 77, 125
3, 29100, Note_on_c, 1, 80, 97
3, 29122, Note_on_c, 1, 80, 0
3, 29125, Note_on_c, 1, 77, 0
3, 29160, Note_on_c, 1, 77, 125
3, 29160, Note_on_c, 1, 80, 113
3, 29182, Note_on_c, 1, 77, 0
3, 29185, Note_on_c, 1, 80, 0
3, 29220, Note_on_c, 1, 77, 127
3, 29220, Note_on_c, 1, 80, 117
3, 29245, Note_on_c, 1, 77, 0
3, 29250, Note_on_c, 1, 80, 0
3, 29340, Note_on_c, 1, 71, 121
3, 29340, Note_on_c, 1, 77, 127
3, 29365, Note_on_c, 1, 71, 0
3, 29367, Note_on_c, 1, 77, 0
3, 29400, Note_on_c, 1, 71, 125
3, 29400, Note_on_c, 1, 77, 125
3, 29430, Note_on_c, 1, 77, 0
3, 29430, Note_on_c, 1, 71, 0
3, 29460, Note_on_c, 1, 71, 113
3, 29460, Note_on_c, 1, 77, 109
3, 29487, Note_on_c, 1, 71, 0
3, 29492, Note_on_c, 1, 77, 0
3, 29580, Note_on_c, 1, 68, 127
3, 29580, Note_on_c, 1, 71, 127
3, 29602, Note_on_c, 1, 71, 0
3, 29607, Note_on_c, 1, 68, 0
3, 29640, Note_on_c, 1, 68, 109
3, 29640, Note_on_c, 1, 71, 127
3, 29662, Note_on_c, 1, 71, 0
3, 29665, Note_on_c, 1, 68, 0
3, 29700, Note_on_c, 1, 68, 127
3, 29700, Note_on_c, 1, 71, 127
3, 29722, Note_on_c, 1, 71, 0
3, 29725, Note_on_c, 1, 68, 0
3, 29820, Note_on_c, 1, 69, 127
3, 29820, Note_on_c, 1, 72, 127
3, 29845, Note_on_c, 1, 72, 0
3, 29847, Note_on_c, 1, 69, 0
3, 29880, Note_on_c, 1, 69, 121
3, 29880, Note_on_c, 1, 72, 109
3, 29905, Note_on_c, 1, 72, 0
3, 29907, Note_on_c, 1, 69, 0
3, 29940, Note_on_c, 1, 69, 121
3, 29940, Note_on_c, 1, 72, 127
3, 29960, Note_on_c, 1, 69, 0
3, 29965, Note_on_c, 1, 72, 0
3, 30060, Note_on_c, 1, 66, 127
3, 30060, Note_on_c, 1, 69, 127
3, 30082, Note_on_c, 1, 69, 0
3, 30082, Note_on_c, 1, 66, 0
3, 30120, Note_on_c, 1, 66, 125
3, 30120, Note_on_c, 1, 69, 127
3, 30142, Note_on_c, 1, 69, 0
3, 30142, Note_on_c, 1, 66, 0
3, 30180, Note_on_c, 1, 66, 125
3, 30180, Note_on_c, 1, 69, 127
3, 30202, Note_on_c, 1, 69, 0
3, 30205, Note_on_c, 1, 66, 0
3, 30300, Note_on_c, 1, 60, 127
3, 30300, Note_on_c, 1, 66, 127
3, 30325, Note_on_c, 1, 60, 0
3, 30327, Note_on_c, 1, 66, 0
3, 30360, Note_on_c, 1, 60, 127
3, 30360, Note_on_c, 1, 66, 121
3, 30387, Note_on_c, 1, 66, 0
3, 30387, Note_on_c, 1, 60, 0
3, 30420, Note_on_c, 1, 66, 127
3, 30420, Note_on_c, 1, 60, 127
3, 30447, Note_on_c, 1, 66, 0
3, 30450, Note_on_c, 1, 60, 0
3, 30540, Note_on_c, 1, 57, 127
3, 30540, Note_on_c, 1, 60, 121
3, 30565, Note_on_c, 1, 60, 0
3, 30567, Note_on_c, 1, 57, 0
3, 30600, Note_on_c, 1, 57, 127
3, 30600, Note_on_c, 1, 60, 127
3, 30625, Note_on_c, 1, 60, 0
3, 30627, Note_on_c, 1, 57, 0
3, 30660, Note_on_c, 1, 57, 127
3, 30660, Note_on_c, 1, 60, 127
3, 30685, Note_on_c, 1, 60, 0
3, 30685, Note_on_c, 1, 57, 0
3, 30780, Note_on_c, 1, 57, 125
3, 30780, Note_on_c, 1, 58, 127
3, 30805, Note_on_c, 1, 58, 0
3, 30805, Note_on_c, 1, 57, 0
3, 30840, Note_on_c, 1, 57, 121
3, 30840, Note_on_c, 1, 58, 127
3, 30865, Note_on_c, 1, 58, 0
3, 30865, Note_on_c, 1, 57, 0
3, 30900, Note_on_c, 1, 57, 127
3, 30900, Note_on_c, 1, 58, 127
3, 30925, Note_on_c, 1, 58, 0
3, 30925, Note_on_c, 1, 57, 0
3, 31020, Note_on_c, 1, 55, 127
3, 31020, Note_on_c, 1, 58, 127
3, 31042, Note_on_c, 1, 58, 0
3, 31042, Note_on_c, 1, 55, 0
3, 31080, Note_on_c, 1, 55, 127
3, 31080, Note_on_c, 1, 58, 127
3, 31102, Note_on_c, 1, 55, 0
3, 31105, Note_on_c, 1, 58, 0
3, 31140, Note_on_c, 1, 53, 127
3, 31140, Note_on_c, 1, 55, 125
3, 31140, Note_on_c, 1, 58, 127
3, 31155, Note_on_c, 1, 53, 0
3, 31160, Note_on_c, 1, 55, 0
3, 31165, Note_on_c, 1, 58, 0
3, 31260, Note_on_c, 1, 62, 127
3, 31260, Note_on_c, 1, 60, 117
3, 31282, Note_on_c, 1, 60, 0
3, 31282, Note_on_c, 1, 62, 0
3, 31320, Note_on_c, 1, 62, 127
3, 31320, Note_on_c, 1, 60, 127
3, 31340, Note_on_c, 1, 60, 0
3, 31345, Note_on_c, 1, 62, 0
3, 31380, Note_on_c, 1, 62, 127
3, 31380, Note_on_c, 1, 60, 127
3, 31400, Note_on_c, 1, 60, 0
3, 31402, Note_on_c, 1, 62, 0
3, 31500, Note_on_c, 1, 60, 127
3, 31500, Note_on_c, 1, 66, 127
3, 31520, Note_on_c, 1, 60, 0
3, 31522, Note_on_c, 1, 66, 0
3, 31560, Note_on_c, 1, 60, 127
3, 31560, Note_on_c, 1, 66, 127
3, 31582, Note_on_c, 1, 66, 0
3, 31582, Note_on_c, 1, 60, 0
3, 31620, Note_on_c, 1, 60, 127
3, 31620, Note_on_c, 1, 66, 127
3, 31642, Note_on_c, 1, 60, 0
3, 31647, Note_on_c, 1, 66, 0
3, 31740, Note_on_c, 1, 58, 127
3, 31740, Note_on_c, 1, 67, 127
3, 31760, Note_on_c, 1, 67, 0
3, 31760, Note_on_c, 1, 58, 0
3, 31800, Note_on_c, 1, 58, 127
3, 31800, Note_on_c, 1, 67, 127
3, 31820, Note_on_c, 1, 67, 0
3, 31822, Note_on_c, 1, 58, 0
3, 31860, Note_on_c, 1, 58, 127
3, 31860, Note_on_c, 1, 67, 127
3, 31880, Note_on_c, 1, 67, 0
3, 31882, Note_on_c, 1, 58, 0
3, 31980, Note_on_c, 1, 67, 127
3, 31980, Note_on_c, 1, 70, 127
3, 32002, Note_on_c, 1, 70, 0
3, 32002, Note_on_c, 1, 67, 0
3, 32040, Note_on_c, 1, 67, 127
3, 32040, Note_on_c, 1, 70, 127
3, 32060, Note_on_c, 1, 70, 0
3, 32062, Note_on_c, 1, 67, 0
3, 32100, Note_on_c, 1, 67, 127
3, 32100, Note_on_c, 1, 70, 127
3, 32122, Note_on_c, 1, 70, 0
3, 32125, Note_on_c, 1, 67, 0
3, 32220, Note_on_c, 1, 70, 127
3, 32220, Note_on_c, 1, 74, 127
3, 32240, Note_on_c, 1, 74, 0
3, 32245, Note_on_c, 1, 70, 0
3, 32280, Note_on_c, 1, 70, 127
3, 32280, Note_on_c, 1, 74, 127
3, 32302, Note_on_c, 1, 74, 0
3, 32305, Note_on_c, 1, 70, 0
3, 32340, Note_on_c, 1, 70, 127
3, 32340, Note_on_c, 1, 74, 127
3, 32365, Note_on_c, 1, 74, 0
3, 32365, Note_on_c, 1, 70, 0
3, 32460, Note_on_c, 1, 74, 127
3, 32460, Note_on_c, 1, 79, 127
3, 32480, Note_on_c, 1, 74, 0
3, 32482, Note_on_c, 1, 79, 0
3, 32520, Note_on_c, 1, 74, 127
3, 32520, Note_on_c, 1, 79, 127
3, 32540, Note_on_c, 1, 74, 0
3, 32545, Note_on_c, 1, 79, 0
3, 32580, Note_on_c, 1, 74, 127
3, 32580, Note_on_c, 1, 79, 127
3, 32600, Note_on_c, 1, 74, 0
3, 32602, Note_on_c, 1, 79, 0
3, 32700, Note_on_c, 1, 79, 127
3, 32700, Note_on_c, 1, 82, 127
3, 32722, Note_on_c, 1, 79, 0
3, 32725, Note_on_c, 1, 82, 0
3, 32760, Note_on_c, 1, 79, 127
3, 32760, Note_on_c, 1, 82, 127
3, 32785, Note_on_c, 1, 82, 0
3, 32785, Note_on_c, 1, 79, 0
3, 32820, Note_on_c, 1, 79, 127
3, 32820, Note_on_c, 1, 82, 127
3, 32845, Note_on_c, 1, 82, 0
3, 32845, Note_on_c, 1, 79, 0
3, 32940, Note_on_c, 1, 79, 127
3, 32940, Note_on_c, 1, 76, 117
3, 32965, Note_on_c, 1, 79, 0
3, 32967, Note_on_c, 1, 76, 0
3, 33000, Note_on_c, 1, 79, 127
3, 33000, Note_on_c, 1, 76, 127
3, 33025, Note_on_c, 1, 79, 0
3, 33032, Note_on_c, 1, 76, 0
3, 33060, Note_on_c, 1, 79, 127
3, 33060, Note_on_c, 1, 76, 121
3, 33085, Note_on_c, 1, 79, 0
3, 33090, Note_on_c, 1, 76, 0
3, 33180, Note_on_c, 1, 70, 127
3, 33180, Note_on_c, 1, 76, 125
3, 33210, Note_on_c, 1, 76, 0
3, 33210, Note_on_c, 1, 70, 0
3, 33240, Note_on_c, 1, 70, 127
3, 33240, Note_on_c, 1, 76, 121
3, 33267, Note_on_c, 1, 70, 0
3, 33272, Note_on_c, 1, 76, 0
3, 33300, Note_on_c, 1, 70, 127
3, 33300, Note_on_c, 1, 76, 127
3, 33327, Note_on_c, 1, 70, 0
3, 33332, Note_on_c, 1, 76, 0
3, 33420, Note_on_c, 1, 67, 125
3, 33420, Note_on_c, 1, 70, 127
3, 33445, Note_on_c, 1, 67, 0
3, 33447, Note_on_c, 1, 70, 0
3, 33480, Note_on_c, 1, 67, 127
3, 33480, Note_on_c, 1, 70, 127
3, 33502, Note_on_c, 1, 67, 0
3, 33505, Note_on_c, 1, 70, 0
3, 33540, Note_on_c, 1, 67, 127
3, 33540, Note_on_c, 1, 70, 127
3, 33562, Note_on_c, 1, 67, 0
3, 33567, Note_on_c, 1, 70, 0
3, 33660, Note_on_c, 1, 71, 121
3, 33660, Note_on_c, 1, 65, 127
3, 33680, Note_on_c, 1, 65, 0
3, 33690, Note_on_c, 1, 71, 0
3, 33720, Note_on_c, 1, 65, 127
3, 33720, Note_on_c, 1, 71, 127
3, 33745, Note_on_c, 1, 65, 0
3, 33752, Note_on_c, 1, 71, 0
3, 33780, Note_on_c, 1, 72, 29
3, 33780, Note_on_c, 1, 65, 127
3, 33780, Note_on_c, 1, 71, 127
3, 33787, Note_on_c, 1, 72, 0
3, 33805, Note_on_c, 1, 65, 0
3, 33820, Note_on_c, 1, 71, 0
3, 33900, Note_on_c, 1, 65, 127
3, 33900, Note_on_c, 1, 59, 101
3, 33927, Note_on_c, 1, 59, 0
3, 33932, Note_on_c, 1, 65, 0
3, 33960, Note_on_c, 1, 65, 105
3, 33960, Note_on_c, 1, 59, 101
3, 33987, Note_on_c, 1, 59, 0
3, 33987, Note_on_c, 1, 65, 0
3, 34020, Note_on_c, 1, 65, 127
3, 34020, Note_on_c, 1, 59, 127
3, 34055, Note_on_c, 1, 59, 0
3, 34072, Note_on_c, 1, 65, 0
3, 34140, Note_on_c, 1, 57, 127
3, 34140, Note_on_c, 1, 66, 127
3, 34165, Note_on_c, 1, 57, 0
3, 34177, Note_on_c, 1, 66, 0
3, 34200, Note_on_c, 1, 58, 57
3, 34200, Note_on_c, 1, 57, 127
3, 34200, Note_on_c, 1, 66, 121
3, 34205, Note_on_c, 1, 58, 0
3, 34227, Note_on_c, 1, 66, 0
3, 34230, Note_on_c, 1, 57, 0
3, 34260, Note_on_c, 1, 57, 127
3, 34260, Note_on_c, 1, 66, 127
3, 34292, Note_on_c, 1, 57, 0
3, 34297, Note_on_c, 1, 66, 0
3, 34380, Note_on_c, 1, 73, 127
3, 34380, Note_on_c, 1, 78, 127
3, 34407, Note_on_c, 1, 73, 0
3, 34412, Note_on_c, 1, 78, 0
3, 34440, Note_on_c, 1, 73, 127
3, 34440, Note_on_c, 1, 78, 127
3, 34467, Note_on_c, 1, 73, 0
3, 34472, Note_on_c, 1, 78, 0
3, 34500, Note_on_c, 1, 73, 113
3, 34500, Note_on_c, 1, 78, 127
3, 34522, Note_on_c, 1, 73, 0
3, 34530, Note_on_c, 1, 78, 0
3, 34620, Note_on_c, 1, 81, 127
3, 34620, Note_on_c, 1, 78, 127
3, 34642, Note_on_c, 1, 78, 0
3, 34645, Note_on_c, 1, 81, 0
3, 34680, Note_on_c, 1, 81, 127
3, 34680, Note_on_c, 1, 78, 127
3, 34702, Note_on_c, 1, 78, 0
3, 34705, Note_on_c, 1, 81, 0
3, 34740, Note_on_c, 1, 81, 127
3, 34740, Note_on_c, 1, 78, 127
3, 34762, Note_on_c, 1, 81, 0
3, 34765, Note_on_c, 1, 78, 0
3, 34860, Note_on_c, 1, 78, 127
3, 34860, Note_on_c, 1, 75, 127
3, 34885, Note_on_c, 1, 75, 0
3, 34887, Note_on_c, 1, 78, 0
3, 34920, Note_on_c, 1, 78, 127
3, 34920, Note_on_c, 1, 75, 127
3, 34942, Note_on_c, 1, 75, 0
3, 34945, Note_on_c, 1, 78, 0
3, 34980, Note_on_c, 1, 78, 127
3, 34980, Note_on_c, 1, 75, 125
3, 35007, Note_on_c, 1, 75, 0
3, 35007, Note_on_c, 1, 78, 0
3, 35100, Note_on_c, 1, 75, 127
3, 35100, Note_on_c, 1, 69, 127
3, 35122, Note_on_c, 1, 69, 0
3, 35127, Note_on_c, 1, 75, 0
3, 35160, Note_on_c, 1, 75, 125
3, 35160, Note_on_c, 1, 69, 127
3, 35185, Note_on_c, 1, 69, 0
3, 35185, Note_on_c, 1, 75, 0
3, 35220, Note_on_c, 1, 75, 127
3, 35220, Note_on_c, 1, 69, 127
3, 35245, Note_on_c, 1, 69, 0
3, 35247, Note_on_c, 1, 75, 0
3, 35340, Note_on_c, 1, 69, 127
3, 35340, Note_on_c, 1, 66, 127
3, 35367, Note_on_c, 1, 66, 0
3, 35367, Note_on_c, 1, 69, 0
3, 35400, Note_on_c, 1, 69, 127
3, 35400, Note_on_c, 1, 66, 127
3, 35425, Note_on_c, 1, 66, 0
3, 35427, Note_on_c, 1, 69, 0
3, 35460, Note_on_c, 1, 69, 127
3, 35460, Note_on_c, 1, 66, 127
3, 35487, Note_on_c, 1, 69, 0
3, 35490, Note_on_c, 1, 66, 0
3, 35580, Note_on_c, 1, 70, 113
3, 35580, Note_on_c, 1, 67, 127
3, 35602, Note_on_c, 1, 67, 0
3, 35615, Note_on_c, 1, 70, 0
3, 35640, Note_on_c, 1, 70, 127
3, 35640, Note_on_c, 1, 67, 127
3, 35665, Note_on_c, 1, 67, 0
3, 35667, Note_on_c, 1, 70, 0
3, 35700, Note_on_c, 1, 70, 127
3, 35700, Note_on_c, 1, 67, 127
3, 35725, Note_on_c, 1, 70, 0
3, 35727, Note_on_c, 1, 67, 0
3, 35820, Note_on_c, 1, 64, 127
3, 35820, Note_on_c, 1, 58, 113
3, 35845, Note_on_c, 1, 58, 0
3, 35847, Note_on_c, 1, 64, 0
3, 35880, Note_on_c, 1, 64, 127
3, 35880, Note_on_c, 1, 58, 127
3, 35905, Note_on_c, 1, 58, 0
3, 35907, Note_on_c, 1, 64, 0
3, 35940, Note_on_c, 1, 64, 127
3, 35940, Note_on_c, 1, 58, 127
3, 35965, Note_on_c, 1, 58, 0
3, 35970, Note_on_c, 1, 64, 0
3, 36000, Note_on_c, 1, 66, 53
3, 36007, Note_on_c, 1, 66, 0
3, 36060, Note_on_c, 1, 65, 127
3, 36060, Note_on_c, 1, 56, 127
3, 36085, Note_on_c, 1, 56, 0
3, 36087, Note_on_c, 1, 65, 0
3, 36120, Note_on_c, 1, 65, 127
3, 36120, Note_on_c, 1, 56, 127
3, 36142, Note_on_c, 1, 56, 0
3, 36145, Note_on_c, 1, 65, 0
3, 36180, Note_on_c, 1, 65, 127
3, 36180, Note_on_c, 1, 56, 127
3, 36205, Note_on_c, 1, 56, 0
3, 36205, Note_on_c, 1, 65, 0
3, 36300, Note_on_c, 1, 68, 127
3, 36300, Note_on_c, 1, 60, 127
3, 36322, Note_on_c, 1, 60, 0
3, 36325, Note_on_c, 1, 68, 0
3, 36360, Note_on_c, 1, 68, 127
3, 36360, Note_on_c, 1, 60, 121
3, 36382, Note_on_c, 1, 68, 0
3, 36385, Note_on_c, 1, 60, 0
3, 36420, Note_on_c, 1, 68, 125
3, 36420, Note_on_c, 1, 60, 127
3, 36442, Note_on_c, 1, 60, 0
3, 36450, Note_on_c, 1, 68, 0
3, 36540, Note_on_c, 1, 65, 127
3, 36540, Note_on_c, 1, 60, 127
3, 36557, Note_on_c, 1, 60, 0
3, 36562, Note_on_c, 1, 65, 0
3, 36600, Note_on_c, 1, 65, 121
3, 36600, Note_on_c, 1, 60, 127
3, 36617, Note_on_c, 1, 60, 0
3, 36627, Note_on_c, 1, 65, 0
3, 36660, Note_on_c, 1, 65, 127
3, 36660, Note_on_c, 1, 60, 127
3, 36680, Note_on_c, 1, 60, 0
3, 36692, Note_on_c, 1, 65, 0
3, 36780, Note_on_c, 1, 67, 127
3, 36780, Note_on_c, 1, 60, 125
3, 36800, Note_on_c, 1, 60, 0
3, 36807, Note_on_c, 1, 67, 0
3, 36840, Note_on_c, 1, 67, 127
3, 36840, Note_on_c, 1, 66, 125
3, 36840, Note_on_c, 1, 60, 117
3, 36860, Note_on_c, 1, 60, 0
3, 36865, Note_on_c, 1, 66, 0
3, 36867, Note_on_c, 1, 67, 0
3, 36900, Note_on_c, 1, 67, 121
3, 36900, Note_on_c, 1, 60, 125
3, 36920, Note_on_c, 1, 60, 0
3, 36932, Note_on_c, 1, 67, 0
3, 37020, Note_on_c, 1, 64, 127
3, 37020, Note_on_c, 1, 60, 117
3, 37042, Note_on_c, 1, 60, 0
3, 37050, Note_on_c, 1, 64, 0
3, 37080, Note_on_c, 1, 64, 127
3, 37080, Note_on_c, 1, 60, 127
3, 37102, Note_on_c, 1, 60, 0
3, 37112, Note_on_c, 1, 64, 0
3, 37140, Note_on_c, 1, 64, 127
3, 37140, Note_on_c, 1, 60, 127
3, 37162, Note_on_c, 1, 60, 0
3, 37182, Note_on_c, 1, 64, 0
3, 37260, Note_on_c, 1, 67, 127
3, 37260, Note_on_c, 1, 58, 127
3, 37287, Note_on_c, 1, 58, 0
3, 37290, Note_on_c, 1, 67, 0
3, 37320, Note_on_c, 1, 67, 127
3, 37320, Note_on_c, 1, 58, 127
3, 37342, Note_on_c, 1, 58, 0
3, 37347, Note_on_c, 1, 67, 0
3, 37380, Note_on_c, 1, 67, 105
3, 37380, Note_on_c, 1, 58, 121
3, 37402, Note_on_c, 1, 58, 0
3, 37415, Note_on_c, 1, 67, 0
3, 37500, Note_on_c, 1, 65, 127
3, 37500, Note_on_c, 1, 57, 121
3, 37522, Note_on_c, 1, 57, 0
3, 37530, Note_on_c, 1, 65, 0
3, 37560, Note_on_c, 1, 65, 121
3, 37560, Note_on_c, 1, 57, 105
3, 37582, Note_on_c, 1, 57, 0
3, 37592, Note_on_c, 1, 65, 0
3, 37620, Note_on_c, 1, 65, 127
3, 37620, Note_on_c, 1, 57, 127
3, 37642, Note_on_c, 1, 57, 0
3, 37662, Note_on_c, 1, 65, 0
3, 37740, Note_on_c, 1, 60, 127
3, 37740, Note_on_c, 1, 57, 117
3, 37757, Note_on_c, 1, 57, 0
3, 37770, Note_on_c, 1, 60, 0
3, 37800, Note_on_c, 1, 60, 127
3, 37800, Note_on_c, 1, 57, 125
3, 37822, Note_on_c, 1, 57, 0
3, 37830, Note_on_c, 1, 60, 0
3, 37860, Note_on_c, 1, 60, 127
3, 37860, Note_on_c, 1, 57, 127
3, 37877, Note_on_c, 1, 57, 0
3, 37887, Note_on_c, 1, 60, 0
3, 37980, Note_on_c, 1, 65, 127
3, 37980, Note_on_c, 1, 57, 113
3, 37995, Note_on_c, 1, 57, 0
3, 38010, Note_on_c, 1, 65, 0
3, 38040, Note_on_c, 1, 65, 125
3, 38040, Note_on_c, 1, 57, 121
3, 38057, Note_on_c, 1, 57, 0
3, 38067, Note_on_c, 1, 65, 0
3, 38100, Note_on_c, 1, 65, 127
3, 38100, Note_on_c, 1, 57, 85
3, 38112, Note_on_c, 1, 57, 0
3, 38132, Note_on_c, 1, 65, 0
3, 38220, Note_on_c, 1, 60, 127
3, 38220, Note_on_c, 1, 57, 101
3, 38235, Note_on_c, 1, 57, 0
3, 38247, Note_on_c, 1, 60, 0
3, 38280, Note_on_c, 1, 60, 127
3, 38280, Note_on_c, 1, 57, 121
3, 38295, Note_on_c, 1, 57, 0
3, 38305, Note_on_c, 1, 60, 0
3, 38340, Note_on_c, 1, 60, 125
3, 38340, Note_on_c, 1, 57, 127
3, 38352, Note_on_c, 1, 57, 0
3, 38370, Note_on_c, 1, 60, 0
3, 38400, Note_on_c, 1, 65, 117
3, 38400, Note_on_c, 1, 57, 85
3, 38627, Note_on_c, 1, 57, 0
3, 38655, Note_on_c, 1, 65, 0
3, 38655, End_track
4, 0, Start_track
4, 0, MIDI_port, 0
4, 0, Title_t, "Strings Viola"
4, 0, Program_c, 2, 48
4, 0, Control_c, 2, 7, 122
4, 0, Control_c, 2, 10, 45
4, 150, Control_c, 2, 91, 90
4, 25020, Note_on_c, 2, 69, 127
4, 25032, Note_on_c, 2, 69, 0
4, 25080, Note_on_c, 2, 69, 127
4, 25095, Note_on_c, 2, 69, 0
4, 25140, Note_on_c, 2, 69, 127
4, 25157, Note_on_c, 2, 69, 0
4, 25260, Note_on_c, 2, 72, 125
4, 25282, Note_on_c, 2, 72, 0
4, 25320, Note_on_c, 2, 72, 113
4, 25340, Note_on_c, 2, 72, 0
4, 25380, Note_on_c, 2, 72, 127
4, 25402, Note_on_c, 2, 72, 0
4, 25500, Note_on_c, 2, 69, 127
4, 25515, Note_on_c, 2, 69, 0
4, 25560, Note_on_c, 2, 69, 105
4, 25580, Note_on_c, 2, 69, 0
4, 25620, Note_on_c, 2, 69, 127
4, 25640, Note_on_c, 2, 69, 0
4, 25740, Note_on_c, 2, 66, 127
4, 25760, Note_on_c, 2, 66, 0
4, 25800, Note_on_c, 2, 66, 127
4, 25817, Note_on_c, 2, 66, 0
4, 25860, Note_on_c, 2, 66, 127
4, 25877, Note_on_c, 2, 66, 0
4, 25980, Note_on_c, 2, 63, 127
4, 25997, Note_on_c, 2, 63, 0
4, 26040, Note_on_c, 2, 63, 127
4, 26057, Note_on_c, 2, 63, 0
4, 26100, Note_on_c, 2, 63, 127
4, 26120, Note_on_c, 2, 63, 0
4, 26220, Note_on_c, 2, 61, 127
4, 26237, Note_on_c, 2, 61, 0
4, 26280, Note_on_c, 2, 61, 121
4, 26300, Note_on_c, 2, 61, 0
4, 26340, Note_on_c, 2, 61, 127
4, 26357, Note_on_c, 2, 61, 0
4, 26460, Note_on_c, 2, 58, 127
4, 26475, Note_on_c, 2, 58, 0
4, 26520, Note_on_c, 2, 58, 127
4, 26540, Note_on_c, 2, 58, 0
4, 26580, Note_on_c, 2, 58, 127
4, 26600, Note_on_c, 2, 58, 0
4, 26700, Note_on_c, 2, 55, 127
4, 26720, Note_on_c, 2, 55, 0
4, 26760, Note_on_c, 2, 55, 127
4, 26777, Note_on_c, 2, 55, 0
4, 26820, Note_on_c, 2, 55, 127
4, 26837, Note_on_c, 2, 55, 0
4, 26940, Note_on_c, 2, 51, 125
4, 26957, Note_on_c, 2, 51, 0
4, 27000, Note_on_c, 2, 51, 117
4, 27017, Note_on_c, 2, 51, 0
4, 27060, Note_on_c, 2, 51, 127
4, 27077, Note_on_c, 2, 51, 0
4, 27180, Note_on_c, 2, 51, 127
4, 27195, Note_on_c, 2, 51, 0
4, 27240, Note_on_c, 2, 51, 127
4, 27260, Note_on_c, 2, 51, 0
4, 27300, Note_on_c, 2, 51, 127
4, 27315, Note_on_c, 2, 51, 0
4, 27420, Note_on_c, 2, 51, 113
4, 27437, Note_on_c, 2, 51, 0
4, 27480, Note_on_c, 2, 51, 121
4, 27500, Note_on_c, 2, 51, 0
4, 27540, Note_on_c, 2, 51, 127
4, 27560, Note_on_c, 2, 51, 0
4, 27660, Note_on_c, 2, 51, 117
4, 27677, Note_on_c, 2, 51, 0
4, 27720, Note_on_c, 2, 51, 117
4, 27737, Note_on_c, 2, 51, 0
4, 27780, Note_on_c, 2, 51, 101
4, 27797, Note_on_c, 2, 51, 0
4, 27840, Note_on_c, 2, 51, 125
4, 27895, Note_on_c, 2, 51, 0
4, 27900, Note_on_c, 2, 59, 73
4, 27917, Note_on_c, 2, 59, 0
4, 27960, Note_on_c, 2, 59, 127
4, 27977, Note_on_c, 2, 59, 0
4, 28020, Note_on_c, 2, 59, 127
4, 28037, Note_on_c, 2, 59, 0
4, 28140, Note_on_c, 2, 63, 41
4, 28140, Note_on_c, 2, 64, 105
4, 28150, Note_on_c, 2, 64, 0
4, 28152, Note_on_c, 2, 63, 0
4, 28200, Note_on_c, 2, 63, 127
4, 28217, Note_on_c, 2, 63, 0
4, 28260, Note_on_c, 2, 63, 127
4, 28280, Note_on_c, 2, 63, 0
4, 28380, Note_on_c, 2, 68, 127
4, 28397, Note_on_c, 2, 68, 0
4, 28440, Note_on_c, 2, 68, 127
4, 28457, Note_on_c, 2, 68, 0
4, 28500, Note_on_c, 2, 68, 127
4, 28515, Note_on_c, 2, 68, 0
4, 28620, Note_on_c, 2, 71, 127
4, 28637, Note_on_c, 2, 71, 0
4, 28680, Note_on_c, 2, 71, 127
4, 28697, Note_on_c, 2, 71, 0
4, 28740, Note_on_c, 2, 71, 127
4, 28757, Note_on_c, 2, 71, 0
4, 28860, Note_on_c, 2, 68, 127
4, 28880, Note_on_c, 2, 68, 0
4, 28920, Note_on_c, 2, 68, 127
4, 28937, Note_on_c, 2, 68, 0
4, 28980, Note_on_c, 2, 68, 127
4, 29002, Note_on_c, 2, 68, 0
4, 29100, Note_on_c, 2, 71, 127
4, 29120, Note_on_c, 2, 71, 0
4, 29160, Note_on_c, 2, 71, 127
4, 29180, Note_on_c, 2, 71, 0
4, 29220, Note_on_c, 2, 71, 127
4, 29237, Note_on_c, 2, 71, 0
4, 29340, Note_on_c, 2, 68, 127
4, 29357, Note_on_c, 2, 68, 0
4, 29400, Note_on_c, 2, 68, 127
4, 29417, Note_on_c, 2, 68, 0
4, 29460, Note_on_c, 2, 68, 127
4, 29480, Note_on_c, 2, 68, 0
4, 29580, Note_on_c, 2, 65, 127
4, 29602, Note_on_c, 2, 65, 0
4, 29640, Note_on_c, 2, 65, 127
4, 29660, Note_on_c, 2, 65, 0
4, 29700, Note_on_c, 2, 65, 127
4, 29722, Note_on_c, 2, 65, 0
4, 29820, Note_on_c, 2, 66, 125
4, 29835, Note_on_c, 2, 66, 0
4, 29880, Note_on_c, 2, 66, 121
4, 29900, Note_on_c, 2, 66, 0
4, 29940, Note_on_c, 2, 66, 121
4, 29962, Note_on_c, 2, 66, 0
4, 30060, Note_on_c, 2, 60, 127
4, 30082, Note_on_c, 2, 60, 0
4, 30120, Note_on_c, 2, 60, 127
4, 30140, Note_on_c, 2, 60, 0
4, 30180, Note_on_c, 2, 60, 127
4, 30200, Note_on_c, 2, 60, 0
4, 30300, Note_on_c, 2, 57, 127
4, 30322, Note_on_c, 2, 57, 0
4, 30360, Note_on_c, 2, 57, 121
4, 30382, Note_on_c, 2, 57, 0
4, 30420, Note_on_c, 2, 57, 127
4, 30440, Note_on_c, 2, 57, 0
4, 30540, Note_on_c, 2, 54, 127
4, 30562, Note_on_c, 2, 54, 0
4, 30600, Note_on_c, 2, 54, 127
4, 30617, Note_on_c, 2, 54, 0
4, 30660, Note_on_c, 2, 54, 127
4, 30677, Note_on_c, 2, 54, 0
4, 30780, Note_on_c, 2, 50, 127
4, 30800, Note_on_c, 2, 50, 0
4, 30840, Note_on_c, 2, 50, 127
4, 30857, Note_on_c, 2, 50, 0
4, 30900, Note_on_c, 2, 50, 127
4, 30920, Note_on_c, 2, 50, 0
4, 31020, Note_on_c, 2, 50, 127
4, 31037, Note_on_c, 2, 50, 0
4, 31080, Note_on_c, 2, 50, 127
4, 31097, Note_on_c, 2, 50, 0
4, 31140, Note_on_c, 2, 50, 127
4, 31157, Note_on_c, 2, 50, 0
4, 31260, Note_on_c, 2, 57, 127
4, 31277, Note_on_c, 2, 57, 0
4, 31320, Note_on_c, 2, 57, 127
4, 31340, Note_on_c, 2, 57, 0
4, 31380, Note_on_c, 2, 57, 127
4, 31397, Note_on_c, 2, 57, 0
4, 31500, Note_on_c, 2, 57, 127
4, 31515, Note_on_c, 2, 57, 0
4, 31560, Note_on_c, 2, 57, 127
4, 31575, Note_on_c, 2, 57, 0
4, 31620, Note_on_c, 2, 57, 127
4, 31635, Note_on_c, 2, 57, 0
4, 31740, Note_on_c, 2, 55, 127
4, 31762, Note_on_c, 2, 55, 0
4, 31800, Note_on_c, 2, 55, 101
4, 31820, Note_on_c, 2, 55, 0
4, 31860, Note_on_c, 2, 55, 127
4, 31882, Note_on_c, 2, 55, 0
4, 31980, Note_on_c, 2, 62, 127
4, 32002, Note_on_c, 2, 62, 0
4, 32040, Note_on_c, 2, 62, 121
4, 32060, Note_on_c, 2, 62, 0
4, 32100, Note_on_c, 2, 62, 125
4, 32120, Note_on_c, 2, 62, 0
4, 32220, Note_on_c, 2, 67, 109
4, 32237, Note_on_c, 2, 67, 0
4, 32280, Note_on_c, 2, 67, 127
4, 32300, Note_on_c, 2, 67, 0
4, 32340, Note_on_c, 2, 67, 127
4, 32362, Note_on_c, 2, 67, 0
4, 32460, Note_on_c, 2, 70, 127
4, 32477, Note_on_c, 2, 70, 0
4, 32520, Note_on_c, 2, 70, 127
4, 32535, Note_on_c, 2, 70, 0
4, 32580, Note_on_c, 2, 70, 127
4, 32595, Note_on_c, 2, 70, 0
4, 32700, Note_on_c, 2, 64, 127
4, 32717, Note_on_c, 2, 64, 0
4, 32760, Note_on_c, 2, 64, 121
4, 32782, Note_on_c, 2, 64, 0
4, 32820, Note_on_c, 2, 64, 127
4, 32842, Note_on_c, 2, 64, 0
4, 32940, Note_on_c, 2, 70, 127
4, 32960, Note_on_c, 2, 70, 0
4, 33000, Note_on_c, 2, 70, 127
4, 33020, Note_on_c, 2, 70, 0
4, 33060, Note_on_c, 2, 70, 127
4, 33075, Note_on_c, 2, 70, 0
4, 33180, Note_on_c, 2, 67, 127
4, 33197, Note_on_c, 2, 67, 0
4, 33240, Note_on_c, 2, 67, 127
4, 33260, Note_on_c, 2, 67, 0
4, 33300, Note_on_c, 2, 67, 127
4, 33317, Note_on_c, 2, 67, 0
4, 33420, Note_on_c, 2, 64, 127
4, 33437, Note_on_c, 2, 64, 0
4, 33480, Note_on_c, 2, 64, 127
4, 33497, Note_on_c, 2, 64, 0
4, 33540, Note_on_c, 2, 64, 127
4, 33557, Note_on_c, 2, 64, 0
4, 33660, Note_on_c, 2, 59, 127
4, 33680, Note_on_c, 2, 59, 0
4, 33720, Note_on_c, 2, 59, 127
4, 33737, Note_on_c, 2, 59, 0
4, 33780, Note_on_c, 2, 59, 127
4, 33795, Note_on_c, 2, 59, 0
4, 33900, Note_on_c, 2, 59, 127
4, 33920, Note_on_c, 2, 59, 0
4, 33960, Note_on_c, 2, 59, 127
4, 33982, Note_on_c, 2, 59, 0
4, 34020, Note_on_c, 2, 59, 127
4, 34072, Note_on_c, 2, 59, 0
4, 34140, Note_on_c, 2, 57, 127
4, 34162, Note_on_c, 2, 57, 0
4, 34200, Note_on_c, 2, 57, 127
4, 34220, Note_on_c, 2, 57, 0
4, 34260, Note_on_c, 2, 57, 121
4, 34277, Note_on_c, 2, 57, 0
4, 34380, Note_on_c, 2, 69, 127
4, 34400, Note_on_c, 2, 69, 0
4, 34440, Note_on_c, 2, 69, 127
4, 34460, Note_on_c, 2, 69, 0
4, 34500, Note_on_c, 2, 69, 127
4, 34537, Note_on_c, 2, 69, 0
4, 34620, Note_on_c, 2, 75, 127
4, 34640, Note_on_c, 2, 75, 0
4, 34680, Note_on_c, 2, 75, 125
4, 34697, Note_on_c, 2, 75, 0
4, 34740, Note_on_c, 2, 75, 127
4, 34757, Note_on_c, 2, 75, 0
4, 34860, Note_on_c, 2, 69, 127
4, 34877, Note_on_c, 2, 69, 0
4, 34920, Note_on_c, 2, 69, 127
4, 34937, Note_on_c, 2, 69, 0
4, 34980, Note_on_c, 2, 69, 127
4, 34997, Note_on_c, 2, 69, 0
4, 35100, Note_on_c, 2, 66, 127
4, 35117, Note_on_c, 2, 66, 0
4, 35160, Note_on_c, 2, 66, 127
4, 35177, Note_on_c, 2, 66, 0
4, 35220, Note_on_c, 2, 66, 127
4, 35237, Note_on_c, 2, 66, 0
4, 35340, Note_on_c, 2, 63, 125
4, 35362, Note_on_c, 2, 63, 0
4, 35400, Note_on_c, 2, 63, 127
4, 35422, Note_on_c, 2, 63, 0
4, 35460, Note_on_c, 2, 63, 127
4, 35482, Note_on_c, 2, 63, 0
4, 35580, Note_on_c, 2, 64, 121
4, 35600, Note_on_c, 2, 64, 0
4, 35640, Note_on_c, 2, 64, 127
4, 35657, Note_on_c, 2, 64, 0
4, 35700, Note_on_c, 2, 64, 127
4, 35717, Note_on_c, 2, 64, 0
4, 35820, Note_on_c, 2, 55, 127
4, 35842, Note_on_c, 2, 55, 0
4, 35880, Note_on_c, 2, 55, 127
4, 35900, Note_on_c, 2, 55, 0
4, 35940, Note_on_c, 2, 55, 127
4, 35962, Note_on_c, 2, 55, 0
4, 36060, Note_on_c, 2, 60, 127
4, 36077, Note_on_c, 2, 60, 0
4, 36120, Note_on_c, 2, 60, 127
4, 36137, Note_on_c, 2, 60, 0
4, 36180, Note_on_c, 2, 60, 125
4, 36195, Note_on_c, 2, 60, 0
4, 36300, Note_on_c, 2, 53, 117
4, 36307, Note_on_c, 2, 53, 0
4, 36360, Note_on_c, 2, 54, 81
4, 36360, Note_on_c, 2, 53, 127
4, 36365, Note_on_c, 2, 54, 0
4, 36377, Note_on_c, 2, 53, 0
4, 36420, Note_on_c, 2, 53, 125
4, 36437, Note_on_c, 2, 53, 0
4, 36540, Note_on_c, 2, 55, 127
4, 36560, Note_on_c, 2, 55, 0
4, 36600, Note_on_c, 2, 55, 127
4, 36617, Note_on_c, 2, 55, 0
4, 36660, Note_on_c, 2, 55, 127
4, 36675, Note_on_c, 2, 55, 0
4, 36780, Note_on_c, 2, 58, 127
4, 36795, Note_on_c, 2, 58, 0
4, 36840, Note_on_c, 2, 58, 127
4, 36852, Note_on_c, 2, 58, 0
4, 36900, Note_on_c, 2, 58, 127
4, 36915, Note_on_c, 2, 58, 0
4, 37020, Note_on_c, 2, 55, 127
4, 37035, Note_on_c, 2, 55, 0
4, 37080, Note_on_c, 2, 55, 113
4, 37095, Note_on_c, 2, 55, 0
4, 37140, Note_on_c, 2, 55, 127
4, 37157, Note_on_c, 2, 55, 0
4, 37260, Note_on_c, 2, 52, 121
4, 37282, Note_on_c, 2, 52, 0
4, 37320, Note_on_c, 2, 52, 121
4, 37340, Note_on_c, 2, 52, 0
4, 37380, Note_on_c, 2, 52, 125
4, 37400, Note_on_c, 2, 52, 0
4, 37500, Note_on_c, 2, 53, 127
4, 37517, Note_on_c, 2, 53, 0
4, 37560, Note_on_c, 2, 53, 127
4, 37580, Note_on_c, 2, 53, 0
4, 37620, Note_on_c, 2, 53, 127
4, 37637, Note_on_c, 2, 53, 0
4, 37740, Note_on_c, 2, 53, 127
4, 37757, Note_on_c, 2, 53, 0
4, 37800, Note_on_c, 2, 53, 105
4, 37815, Note_on_c, 2, 53, 0
4, 37860, Note_on_c, 2, 53, 127
4, 37875, Note_on_c, 2, 53, 0
4, 37980, Note_on_c, 2, 53, 117
4, 37992, Note_on_c, 2, 53, 0
4, 38040, Note_on_c, 2, 53, 127
4, 38055, Note_on_c, 2, 53, 0
4, 38100, Note_on_c, 2, 53, 105
4, 38115, Note_on_c, 2, 53, 0
4, 38220, Note_on_c, 2, 53, 121
4, 38235, Note_on_c, 2, 53, 0
4, 38280, Note_on_c, 2, 53, 97
4, 38295, Note_on_c, 2, 53, 0
4, 38340, Note_on_c, 2, 53, 85
4, 38350, Note_on_c, 2, 53, 0
4, 38400, Note_on_c, 2, 53, 85
4, 38632, Note_on_c, 2, 53, 0
4, 38632, End_track
5, 0, Start_track
5, 0, MIDI_port, 0
5, 0, Title_t, "Strings Cello&Bass"
5, 0, Program_c, 3, 48
5, 0, Control_c, 3, 7, 122
5, 0, Control_c, 3, 10, 75
5, 200, Control_c, 3, 91, 90
5, 960, Note_on_c, 3, 45, 124
5, 960, Note_on_c, 3, 33, 116
5, 990, Note_on_c, 3, 33, 0
5, 990, Note_on_c, 3, 47, 108
5, 990, Note_on_c, 3, 35, 108
5, 992, Note_on_c, 3, 45, 0
5, 1015, Note_on_c, 3, 35, 0
5, 1015, Note_on_c, 3, 47, 0
5, 1020, Note_on_c, 3, 48, 100
5, 1020, Note_on_c, 3, 36, 124
5, 1040, Note_on_c, 3, 36, 0
5, 1045, Note_on_c, 3, 48, 0
5, 1080, Note_on_c, 3, 48, 112
5, 1080, Note_on_c, 3, 36, 116
5, 1097, Note_on_c, 3, 36, 0
5, 1102, Note_on_c, 3, 48, 0
5, 1140, Note_on_c, 3, 48, 124
5, 1140, Note_on_c, 3, 36, 116
5, 1155, Note_on_c, 3, 36, 0
5, 1155, Note_on_c, 3, 48, 0
5, 1200, Note_on_c, 3, 48, 124
5, 1200, Note_on_c, 3, 36, 124
5, 1222, Note_on_c, 3, 36, 0
5, 1225, Note_on_c, 3, 48, 0
5, 1230, Note_on_c, 3, 47, 112
5, 1230, Note_on_c, 3, 35, 92
5, 1250, Note_on_c, 3, 35, 0
5, 1250, Note_on_c, 3, 47, 0
5, 1260, Note_on_c, 3, 45, 120
5, 1260, Note_on_c, 3, 33, 124
5, 1277, Note_on_c, 3, 33, 0
5, 1280, Note_on_c, 3, 45, 0
5, 1320, Note_on_c, 3, 45, 124
5, 1320, Note_on_c, 3, 33, 120
5, 1335, Note_on_c, 3, 33, 0
5, 1340, Note_on_c, 3, 45, 0
5, 1380, Note_on_c, 3, 45, 124
5, 1380, Note_on_c, 3, 33, 116
5, 1395, Note_on_c, 3, 33, 0
5, 1397, Note_on_c, 3, 45, 0
5, 1440, Note_on_c, 3, 45, 124
5, 1440, Note_on_c, 3, 33, 120
5, 1467, Note_on_c, 3, 33, 0
5, 1470, Note_on_c, 3, 47, 116
5, 1470, Note_on_c, 3, 35, 116
5, 1475, Note_on_c, 3, 45, 0
5, 1492, Note_on_c, 3, 35, 0
5, 1492, Note_on_c, 3, 47, 0
5, 1500, Note_on_c, 3, 48, 104
5, 1500, Note_on_c, 3, 36, 124
5, 1517, Note_on_c, 3, 36, 0
5, 1517, Note_on_c, 3, 48, 0
5, 1560, Note_on_c, 3, 48, 116
5, 1560, Note_on_c, 3, 36, 116
5, 1575, Note_on_c, 3, 48, 0
5, 1577, Note_on_c, 3, 36, 0
5, 1620, Note_on_c, 3, 48, 124
5, 1620, Note_on_c, 3, 36, 116
5, 1635, Note_on_c, 3, 48, 0
5, 1637, Note_on_c, 3, 36, 0
5, 1680, Note_on_c, 3, 48, 124
5, 1680, Note_on_c, 3, 36, 108
5, 1702, Note_on_c, 3, 36, 0
5, 1705, Note_on_c, 3, 48, 0
5, 1710, Note_on_c, 3, 47, 96
5, 1710, Note_on_c, 3, 35, 108
5, 1730, Note_on_c, 3, 47, 0
5, 1732, Note_on_c, 3, 35, 0
5, 1740, Note_on_c, 3, 45, 104
5, 1740, Note_on_c, 3, 33, 112
5, 1757, Note_on_c, 3, 33, 0
5, 1762, Note_on_c, 3, 45, 0
5, 1800, Note_on_c, 3, 45, 120
5, 1800, Note_on_c, 3, 33, 124
5, 1817, Note_on_c, 3, 33, 0
5, 1817, Note_on_c, 3, 45, 0
5, 1860, Note_on_c, 3, 45, 124
5, 1860, Note_on_c, 3, 33, 108
5, 1875, Note_on_c, 3, 33, 0
5, 1880, Note_on_c, 3, 45, 0
5, 1920, Note_on_c, 3, 47, 112
5, 1920, Note_on_c, 3, 35, 124
5, 1940, Note_on_c, 3, 35, 0
5, 1940, Note_on_c, 3, 47, 0
5, 1950, Note_on_c, 3, 48, 104
5, 1950, Note_on_c, 3, 36, 108
5, 1967, Note_on_c, 3, 36, 0
5, 1967, Note_on_c, 3, 48, 0
5, 1980, Note_on_c, 3, 50, 124
5, 1980, Note_on_c, 3, 38, 104
5, 1997, Note_on_c, 3, 38, 0
5, 2000, Note_on_c, 3, 50, 0
5, 2040, Note_on_c, 3, 50, 120
5, 2040, Note_on_c, 3, 38, 112
5, 2040, Note_on_c, 3, 37, 52
5, 2042, Note_on_c, 3, 37, 0
5, 2057, Note_on_c, 3, 38, 0
5, 2057, Note_on_c, 3, 50, 0
5, 2100, Note_on_c, 3, 50, 120
5, 2100, Note_on_c, 3, 38, 124
5, 2115, Note_on_c, 3, 38, 0
5, 2115, Note_on_c, 3, 50, 0
5, 2160, Note_on_c, 3, 50, 124
5, 2160, Note_on_c, 3, 38, 124
5, 2160, Note_on_c, 3, 30, 44
5, 2162, Note_on_c, 3, 30, 0
5, 2190, Note_on_c, 3, 48, 124
5, 2190, Note_on_c, 3, 37, 84
5, 2190, Note_on_c, 3, 36, 120
5, 2192, Note_on_c, 3, 38, 0
5, 2195, Note_on_c, 3, 37, 0
5, 2195, Note_on_c, 3, 50, 0
5, 2215, Note_on_c, 3, 48, 0
5, 2220, Note_on_c, 3, 47, 100
5, 2220, Note_on_c, 3, 35, 112
5, 2225, Note_on_c, 3, 36, 0
5, 2240, Note_on_c, 3, 35, 0
5, 2245, Note_on_c, 3, 47, 0
5, 2280, Note_on_c, 3, 47, 100
5, 2280, Note_on_c, 3, 35, 100
5, 2297, Note_on_c, 3, 35, 0
5, 2302, Note_on_c, 3, 47, 0
5, 2340, Note_on_c, 3, 47, 116
5, 2340, Note_on_c, 3, 35, 100
5, 2360, Note_on_c, 3, 35, 0
5, 2362, Note_on_c, 3, 47, 0
5, 2400, Note_on_c, 3, 47, 124
5, 2400, Note_on_c, 3, 35, 124
5, 2430, Note_on_c, 3, 35, 0
5, 2430, Note_on_c, 3, 48, 108
5, 2430, Note_on_c, 3, 36, 112
5, 2435, Note_on_c, 3, 47, 0
5, 2455, Note_on_c, 3, 48, 0
5, 2457, Note_on_c, 3, 36, 0
5, 2460, Note_on_c, 3, 50, 112
5, 2460, Note_on_c, 3, 38, 112
5, 2480, Note_on_c, 3, 38, 0
5, 2482, Note_on_c, 3, 50, 0
5, 2520, Note_on_c, 3, 50, 88
5, 2520, Note_on_c, 3, 38, 104
5, 2537, Note_on_c, 3, 38, 0
5, 2542, Note_on_c, 3, 50, 0
5, 2580, Note_on_c, 3, 50, 104
5, 2580, Note_on_c, 3, 38, 100
5, 2595, Note_on_c, 3, 50, 0
5, 2597, Note_on_c, 3, 38, 0
5, 2640, Note_on_c, 3, 50, 124
5, 2640, Note_on_c, 3, 38, 124
5, 2660, Note_on_c, 3, 38, 0
5, 2665, Note_on_c, 3, 50, 0
5, 2670, Note_on_c, 3, 49, 108
5, 2670, Note_on_c, 3, 48, 124
5, 2670, Note_on_c, 3, 36, 92
5, 2685, Note_on_c, 3, 49, 0
5, 2695, Note_on_c, 3, 36, 0
5, 2697, Note_on_c, 3, 48, 0
5, 2700, Note_on_c, 3, 47, 104
5, 2700, Note_on_c, 3, 35, 116
5, 2720, Note_on_c, 3, 35, 0
5, 2722, Note_on_c, 3, 47, 0
5, 2760, Note_on_c, 3, 47, 120
5, 2760, Note_on_c, 3, 35, 108
5, 2777, Note_on_c, 3, 35, 0
5, 2782, Note_on_c, 3, 47, 0
5, 2820, Note_on_c, 3, 47, 116
5, 2820, Note_on_c, 3, 35, 84
5, 2837, Note_on_c, 3, 35, 0
5, 2837, Note_on_c, 3, 47, 0
5, 2880, Note_on_c, 3, 48, 124
5, 2880, Note_on_c, 3, 36, 112
5, 2902, Note_on_c, 3, 48, 0
5, 2910, Note_on_c, 3, 36, 0
5, 2910, Note_on_c, 3, 50, 120
5, 2910, Note_on_c, 3, 38, 116
5, 2930, Note_on_c, 3, 50, 0
5, 2932, Note_on_c, 3, 38, 0
5, 2940, Note_on_c, 3, 52, 124
5, 2940, Note_on_c, 3, 40, 120
5, 2957, Note_on_c, 3, 40, 0
5, 2960, Note_on_c, 3, 52, 0
5, 3000, Note_on_c, 3, 52, 116
5, 3000, Note_on_c, 3, 40, 112
5, 3015, Note_on_c, 3, 40, 0
5, 3017, Note_on_c, 3, 52, 0
5, 3060, Note_on_c, 3, 52, 116
5, 3060, Note_on_c, 3, 40, 108
5, 3077, Note_on_c, 3, 40, 0
5, 3077, Note_on_c, 3, 52, 0
5, 3120, Note_on_c, 3, 52, 124
5, 3120, Note_on_c, 3, 40, 108
5, 3120, Note_on_c, 3, 34, 32
5, 3122, Note_on_c, 3, 34, 0
5, 3140, Note_on_c, 3, 40, 0
5, 3142, Note_on_c, 3, 52, 0
5, 3150, Note_on_c, 3, 52, 112
5, 3150, Note_on_c, 3, 50, 96
5, 3150, Note_on_c, 3, 38, 108
5, 3165, Note_on_c, 3, 52, 0
5, 3172, Note_on_c, 3, 50, 0
5, 3177, Note_on_c, 3, 38, 0
5, 3180, Note_on_c, 3, 48, 84
5, 3180, Note_on_c, 3, 36, 112
5, 3202, Note_on_c, 3, 36, 0
5, 3210, Note_on_c, 3, 48, 0
5, 3240, Note_on_c, 3, 48, 116
5, 3240, Note_on_c, 3, 36, 120
5, 3255, Note_on_c, 3, 36, 0
5, 3262, Note_on_c, 3, 48, 0
5, 3300, Note_on_c, 3, 48, 108
5, 3300, Note_on_c, 3, 36, 116
5, 3317, Note_on_c, 3, 36, 0
5, 3322, Note_on_c, 3, 48, 0
5, 3360, Note_on_c, 3, 56, 68
5, 3360, Note_on_c, 3, 53, 16
5, 3360, Note_on_c, 3, 52, 24
5, 3360, Note_on_c, 3, 48, 124
5, 3360, Note_on_c, 3, 36, 124
5, 3365, Note_on_c, 3, 53, 0
5, 3365, Note_on_c, 3, 56, 0
5, 3367, Note_on_c, 3, 52, 0
5, 3390, Note_on_c, 3, 50, 108
5, 3390, Note_on_c, 3, 38, 112
5, 3392, Note_on_c, 3, 36, 0
5, 3395, Note_on_c, 3, 48, 0
5, 3412, Note_on_c, 3, 50, 0
5, 3415, Note_on_c, 3, 38, 0
5, 3420, Note_on_c, 3, 52, 112
5, 3420, Note_on_c, 3, 51, 4
5, 3420, Note_on_c, 3, 40, 112
5, 3420, Note_on_c, 3, 38, 68
5, 3425, Note_on_c, 3, 38, 0
5, 3437, Note_on_c, 3, 40, 0
5, 3437, Note_on_c, 3, 51, 0
5, 3440, Note_on_c, 3, 52, 0
5, 3480, Note_on_c, 3, 52, 108
5, 3480, Note_on_c, 3, 40, 112
5, 3497, Note_on_c, 3, 40, 0
5, 3500, Note_on_c, 3, 52, 0
5, 3540, Note_on_c, 3, 52, 96
5, 3540, Note_on_c, 3, 40, 88
5, 3557, Note_on_c, 3, 40, 0
5, 3560, Note_on_c, 3, 52, 0
5, 3600, Note_on_c, 3, 52, 124
5, 3600, Note_on_c, 3, 41, 124
5, 3600, Note_on_c, 3, 40, 104
5, 3600, Note_on_c, 3, 34, 16
5, 3602, Note_on_c, 3, 34, 0
5, 3615, Note_on_c, 3, 41, 0
5, 3622, Note_on_c, 3, 40, 0
5, 3627, Note_on_c, 3, 52, 0
5, 3630, Note_on_c, 3, 50, 116
5, 3630, Note_on_c, 3, 38, 108
5, 3650, Note_on_c, 3, 50, 0
5, 3660, Note_on_c, 3, 48, 116
5, 3660, Note_on_c, 3, 36, 112
5, 3662, Note_on_c, 3, 38, 0
5, 3677, Note_on_c, 3, 36, 0
5, 3685, Note_on_c, 3, 48, 0
5, 3720, Note_on_c, 3, 48, 104
5, 3720, Note_on_c, 3, 36, 112
5, 3737, Note_on_c, 3, 36, 0
5, 3742, Note_on_c, 3, 48, 0
5, 3780, Note_on_c, 3, 48, 112
5, 3780, Note_on_c, 3, 36, 112
5, 3797, Note_on_c, 3, 36, 0
5, 3800, Note_on_c, 3, 48, 0
5, 3840, Note_on_c, 3, 50, 104
5, 3840, Note_on_c, 3, 38, 124
5, 3867, Note_on_c, 3, 38, 0
5, 3870, Note_on_c, 3, 52, 116
5, 3870, Note_on_c, 3, 40, 112
5, 3872, Note_on_c, 3, 50, 0
5, 3897, Note_on_c, 3, 40, 0
5, 3897, Note_on_c, 3, 52, 0
5, 3900, Note_on_c, 3, 53, 108
5, 3900, Note_on_c, 3, 41, 112
5, 3917, Note_on_c, 3, 41, 0
5, 3922, Note_on_c, 3, 53, 0
5, 3960, Note_on_c, 3, 53, 108
5, 3960, Note_on_c, 3, 41, 80
5, 3977, Note_on_c, 3, 41, 0
5, 3982, Note_on_c, 3, 53, 0
5, 4020, Note_on_c, 3, 53, 104
5, 4020, Note_on_c, 3, 41, 104
5, 4037, Note_on_c, 3, 41, 0
5, 4040, Note_on_c, 3, 53, 0
5, 4080, Note_on_c, 3, 53, 124
5, 4080, Note_on_c, 3, 41, 124
5, 4105, Note_on_c, 3, 41, 0
5, 4110, Note_on_c, 3, 53, 0
5, 4110, Note_on_c, 3, 52, 108
5, 4110, Note_on_c, 3, 40, 100
5, 4135, Note_on_c, 3, 40, 0
5, 4135, Note_on_c, 3, 52, 0
5, 4140, Note_on_c, 3, 50, 108
5, 4140, Note_on_c, 3, 38, 112
5, 4160, Note_on_c, 3, 38, 0
5, 4162, Note_on_c, 3, 50, 0
5, 4200, Note_on_c, 3, 50, 108
5, 4200, Note_on_c, 3, 38, 108
5, 4217, Note_on_c, 3, 38, 0
5, 4222, Note_on_c, 3, 50, 0
5, 4260, Note_on_c, 3, 50, 116
5, 4260, Note_on_c, 3, 38, 116
5, 4277, Note_on_c, 3, 38, 0
5, 4282, Note_on_c, 3, 50, 0
5, 4320, Note_on_c, 3, 50, 120
5, 4320, Note_on_c, 3, 38, 120
5, 4345, Note_on_c, 3, 38, 0
5, 4345, Note_on_c, 3, 50, 0
5, 4350, Note_on_c, 3, 52, 96
5, 4350, Note_on_c, 3, 40, 88
5, 4375, Note_on_c, 3, 40, 0
5, 4375, Note_on_c, 3, 52, 0
5, 4380, Note_on_c, 3, 53, 96
5, 4380, Note_on_c, 3, 41, 108
5, 4400, Note_on_c, 3, 41, 0
5, 4400, Note_on_c, 3, 53, 0
5, 4440, Note_on_c, 3, 53, 108
5, 4440, Note_on_c, 3, 41, 104
5, 4460, Note_on_c, 3, 41, 0
5, 4460, Note_on_c, 3, 53, 0
5, 4500, Note_on_c, 3, 53, 112
5, 4500, Note_on_c, 3, 41, 100
5, 4517, Note_on_c, 3, 41, 0
5, 4517, Note_on_c, 3, 53, 0
5, 4560, Note_on_c, 3, 53, 124
5, 4560, Note_on_c, 3, 41, 116
5, 4587, Note_on_c, 3, 41, 0
5, 4587, Note_on_c, 3, 53, 0
5, 4590, Note_on_c, 3, 52, 104
5, 4590, Note_on_c, 3, 40, 108
5, 4612, Note_on_c, 3, 52, 0
5, 4620, Note_on_c, 3, 50, 100
5, 4620, Note_on_c, 3, 38, 112
5, 4625, Note_on_c, 3, 40, 0
5, 4637, Note_on_c, 3, 38, 0
5, 4645, Note_on_c, 3, 50, 0
5, 4680, Note_on_c, 3, 50, 112
5, 4680, Note_on_c, 3, 38, 104
5, 4700, Note_on_c, 3, 38, 0
5, 4705, Note_on_c, 3, 50, 0
5, 4740, Note_on_c, 3, 50, 112
5, 4740, Note_on_c, 3, 38, 108
5, 4757, Note_on_c, 3, 38, 0
5, 4760, Note_on_c, 3, 50, 0
5, 4800, Note_on_c, 3, 52, 112
5, 4800, Note_on_c, 3, 40, 112
5, 4830, Note_on_c, 3, 56, 112
5, 4830, Note_on_c, 3, 44, 104
5, 4830, Note_on_c, 3, 42, 56
5, 4832, Note_on_c, 3, 42, 0
5, 4835, Note_on_c, 3, 52, 0
5, 4842, Note_on_c, 3, 40, 0
5, 4855, Note_on_c, 3, 56, 0
5, 4860, Note_on_c, 3, 44, 0
5, 4860, Note_on_c, 3, 59, 108
5, 4860, Note_on_c, 3, 47, 112
5, 4877, Note_on_c, 3, 47, 0
5, 4882, Note_on_c, 3, 59, 0
5, 4920, Note_on_c, 3, 59, 116
5, 4920, Note_on_c, 3, 47, 108
5, 4937, Note_on_c, 3, 47, 0
5, 4937, Note_on_c, 3, 59, 0
5, 4980, Note_on_c, 3, 59, 116
5, 4980, Note_on_c, 3, 47, 104
5, 5000, Note_on_c, 3, 47, 0
5, 5000, Note_on_c, 3, 59, 0
5, 5040, Note_on_c, 3, 59, 124
5, 5040, Note_on_c, 3, 47, 120
5, 5067, Note_on_c, 3, 59, 0
5, 5070, Note_on_c, 3, 56, 112
5, 5070, Note_on_c, 3, 44, 116
5, 5080, Note_on_c, 3, 47, 0
5, 5095, Note_on_c, 3, 56, 0
5, 5097, Note_on_c, 3, 44, 0
5, 5100, Note_on_c, 3, 52, 112
5, 5100, Note_on_c, 3, 42, 12
5, 5100, Note_on_c, 3, 40, 112
5, 5102, Note_on_c, 3, 42, 0
5, 5127, Note_on_c, 3, 40, 0
5, 5127, Note_on_c, 3, 52, 0
5, 5160, Note_on_c, 3, 52, 112
5, 5160, Note_on_c, 3, 40, 92
5, 5180, Note_on_c, 3, 40, 0
5, 5182, Note_on_c, 3, 52, 0
5, 5220, Note_on_c, 3, 52, 108
5, 5220, Note_on_c, 3, 42, 36
5, 5220, Note_on_c, 3, 40, 112
5, 5225, Note_on_c, 3, 42, 0
5, 5240, Note_on_c, 3, 40, 0
5, 5240, Note_on_c, 3, 52, 0
5, 5280, Note_on_c, 3, 52, 120
5, 5280, Note_on_c, 3, 44, 56
5, 5280, Note_on_c, 3, 42, 56
5, 5280, Note_on_c, 3, 40, 112
5, 5285, Note_on_c, 3, 44, 0
5, 5287, Note_on_c, 3, 42, 0
5, 5302, Note_on_c, 3, 52, 0
5, 5310, Note_on_c, 3, 57, 112
5, 5310, Note_on_c, 3, 45, 96
5, 5317, Note_on_c, 3, 40, 0
5, 5330, Note_on_c, 3, 57, 0
5, 5332, Note_on_c, 3, 45, 0
5, 5340, Note_on_c, 3, 60, 120
5, 5340, Note_on_c, 3, 48, 116
5, 5357, Note_on_c, 3, 48, 0
5, 5360, Note_on_c, 3, 60, 0
5, 5400, Note_on_c, 3, 60, 124
5, 5400, Note_on_c, 3, 48, 104
5, 5420, Note_on_c, 3, 48, 0
5, 5420, Note_on_c, 3, 60, 0
5, 5460, Note_on_c, 3, 60, 116
5, 5460, Note_on_c, 3, 48, 108
5, 5477, Note_on_c, 3, 60, 0
5, 5480, Note_on_c, 3, 48, 0
5, 5520, Note_on_c, 3, 60, 120
5, 5520, Note_on_c, 3, 48, 116
5, 5545, Note_on_c, 3, 48, 0
5, 5547, Note_on_c, 3, 60, 0
5, 5550, Note_on_c, 3, 57, 104
5, 5550, Note_on_c, 3, 45, 100
5, 5575, Note_on_c, 3, 57, 0
5, 5577, Note_on_c, 3, 45, 0
5, 5580, Note_on_c, 3, 53, 12
5, 5580, Note_on_c, 3, 52, 116
5, 5580, Note_on_c, 3, 40, 112
5, 5585, Note_on_c, 3, 53, 0
5, 5605, Note_on_c, 3, 40, 0
5, 5607, Note_on_c, 3, 52, 0
5, 5640, Note_on_c, 3, 52, 124
5, 5640, Note_on_c, 3, 40, 116
5, 5662, Note_on_c, 3, 40, 0
5, 5662, Note_on_c, 3, 52, 0
5, 5700, Note_on_c, 3, 52, 120
5, 5700, Note_on_c, 3, 40, 116
5, 5720, Note_on_c, 3, 40, 0
5, 5722, Note_on_c, 3, 52, 0
5, 5760, Note_on_c, 3, 52, 112
5, 5760, Note_on_c, 3, 40, 112
5, 5832, Note_on_c, 3, 40, 0
5, 5832, Note_on_c, 3, 52, 0
5, 6000, Note_on_c, 3, 52, 121
5, 6000, Note_on_c, 3, 40, 117
5, 6065, Note_on_c, 3, 40, 0
5, 6065, Note_on_c, 3, 52, 0
5, 6240, Note_on_c, 3, 51, 87
5, 6240, Note_on_c, 3, 39, 98
5, 6297, Note_on_c, 3, 39, 0
5, 6305, Note_on_c, 3, 51, 0
5, 6480, Note_on_c, 3, 50, 63
5, 6480, Note_on_c, 3, 38, 59
5, 6540, Note_on_c, 3, 38, 0
5, 6540, Note_on_c, 3, 50, 0
5, 6540, Control_c, 3, 7, 127
5, 6720, Note_on_c, 3, 48, 72
5, 6720, Note_on_c, 3, 36, 72
5, 6840, Note_on_c, 3, 36, 0
5, 6840, Note_on_c, 3, 48, 0
5, 10085, Note_on_c, 3, 36, 116
5, 10115, Note_on_c, 3, 38, 80
5, 10117, Note_on_c, 3, 36, 0
5, 10137, Note_on_c, 3, 38, 0
5, 10142, Note_on_c, 3, 40, 112
5, 10162, Note_on_c, 3, 40, 0
5, 10190, Note_on_c, 3, 40, 108
5, 10212, Note_on_c, 3, 40, 0
5, 10252, Note_on_c, 3, 40, 124
5, 10272, Note_on_c, 3, 40, 0
5, 10315, Note_on_c, 3, 39, 112
5, 10337, Note_on_c, 3, 39, 0
5, 10342, Note_on_c, 3, 38, 112
5, 10362, Note_on_c, 3, 38, 0
5, 10370, Note_on_c, 3, 36, 112
5, 10392, Note_on_c, 3, 36, 0
5, 10432, Note_on_c, 3, 36, 104
5, 10455, Note_on_c, 3, 36, 0
5, 10492, Note_on_c, 3, 36, 112
5, 10510, Note_on_c, 3, 36, 0
5, 10557, Note_on_c, 3, 43, 124
5, 10575, Note_on_c, 3, 43, 0
5, 10585, Note_on_c, 3, 45, 116
5, 10602, Note_on_c, 3, 45, 0
5, 10615, Note_on_c, 3, 47, 124
5, 10640, Note_on_c, 3, 47, 0
5, 10675, Note_on_c, 3, 47, 124
5, 10695, Note_on_c, 3, 47, 0
5, 10737, Note_on_c, 3, 47, 124
5, 10755, Note_on_c, 3, 47, 0
5, 10800, Note_on_c, 3, 46, 124
5, 10822, Note_on_c, 3, 46, 0
5, 10827, Note_on_c, 3, 45, 96
5, 10845, Note_on_c, 3, 45, 0
5, 10852, Note_on_c, 3, 43, 116
5, 10875, Note_on_c, 3, 43, 0
5, 10915, Note_on_c, 3, 43, 112
5, 10935, Note_on_c, 3, 43, 0
5, 10975, Note_on_c, 3, 43, 112
5, 10992, Note_on_c, 3, 43, 0
5, 11037, Note_on_c, 3, 38, 120
5, 11062, Note_on_c, 3, 38, 0
5, 11065, Note_on_c, 3, 39, 72
5, 11067, Note_on_c, 3, 40, 108
5, 11077, Note_on_c, 3, 39, 0
5, 11085, Note_on_c, 3, 40, 0
5, 11097, Note_on_c, 3, 42, 104
5, 11122, Note_on_c, 3, 42, 0
5, 11160, Note_on_c, 3, 42, 124
5, 11182, Note_on_c, 3, 42, 0
5, 11222, Note_on_c, 3, 42, 124
5, 11242, Note_on_c, 3, 42, 0
5, 11282, Note_on_c, 3, 41, 84
5, 11310, Note_on_c, 3, 41, 0
5, 11312, Note_on_c, 3, 40, 96
5, 11340, Note_on_c, 3, 40, 0
5, 11345, Note_on_c, 3, 38, 124
5, 11367, Note_on_c, 3, 38, 0
5, 11405, Note_on_c, 3, 38, 120
5, 11430, Note_on_c, 3, 38, 0
5, 11462, Note_on_c, 3, 38, 120
5, 11480, Note_on_c, 3, 38, 0
5, 11530, Note_on_c, 3, 45, 108
5, 11550, Note_on_c, 3, 45, 0
5, 11557, Note_on_c, 3, 47, 112
5, 11572, Note_on_c, 3, 47, 0
5, 11585, Note_on_c, 3, 49, 120
5, 11605, Note_on_c, 3, 49, 0
5, 11642, Note_on_c, 3, 49, 124
5, 11662, Note_on_c, 3, 49, 0
5, 11700, Note_on_c, 3, 49, 120
5, 11720, Note_on_c, 3, 49, 0
5, 11760, Note_on_c, 3, 48, 108
5, 11780, Note_on_c, 3, 48, 0
5, 11787, Note_on_c, 3, 47, 96
5, 11807, Note_on_c, 3, 47, 0
5, 11817, Note_on_c, 3, 45, 112
5, 11837, Note_on_c, 3, 45, 0
5, 11877, Note_on_c, 3, 45, 116
5, 11897, Note_on_c, 3, 45, 0
5, 11935, Note_on_c, 3, 45, 120
5, 11952, Note_on_c, 3, 45, 0
5, 11992, Note_on_c, 3, 41, 112
5, 11992, Note_on_c, 3, 40, 104
5, 11997, Note_on_c, 3, 46, 32
5, 12002, Note_on_c, 3, 46, 0
5, 12012, Note_on_c, 3, 41, 0
5, 12017, Note_on_c, 3, 40, 0
5, 12020, Note_on_c, 3, 42, 108
5, 12040, Note_on_c, 3, 42, 0
5, 12047, Note_on_c, 3, 44, 100
5, 12070, Note_on_c, 3, 44, 0
5, 12110, Note_on_c, 3, 44, 104
5, 12132, Note_on_c, 3, 44, 0
5, 12172, Note_on_c, 3, 44, 120
5, 12180, Note_on_c, 3, 46, 4
5, 12182, Note_on_c, 3, 46, 0
5, 12195, Note_on_c, 3, 44, 0
5, 12235, Note_on_c, 3, 43, 124
5, 12262, Note_on_c, 3, 43, 0
5, 12262, Note_on_c, 3, 42, 108
5, 12285, Note_on_c, 3, 42, 0
5, 12290, Note_on_c, 3, 40, 116
5, 12312, Note_on_c, 3, 40, 0
5, 12350, Note_on_c, 3, 40, 112
5, 12370, Note_on_c, 3, 40, 0
5, 12410, Note_on_c, 3, 40, 104
5, 12427, Note_on_c, 3, 40, 0
5, 12472, Note_on_c, 3, 45, 116
5, 12497, Note_on_c, 3, 45, 0
5, 12502, Note_on_c, 3, 47, 88
5, 12520, Note_on_c, 3, 47, 0
5, 12530, Note_on_c, 3, 48, 116
5, 12550, Note_on_c, 3, 48, 0
5, 12590, Note_on_c, 3, 48, 116
5, 12612, Note_on_c, 3, 48, 0
5, 12652, Note_on_c, 3, 48, 120
5, 12672, Note_on_c, 3, 48, 0
5, 12717, Note_on_c, 3, 47, 124
5, 12737, Note_on_c, 3, 47, 0
5, 12745, Note_on_c, 3, 48, 112
5, 12765, Note_on_c, 3, 48, 0
5, 12772, Note_on_c, 3, 50, 108
5, 12795, Note_on_c, 3, 50, 0
5, 12832, Note_on_c, 3, 50, 112
5, 12855, Note_on_c, 3, 50, 0
5, 12887, Note_on_c, 3, 50, 104
5, 12907, Note_on_c, 3, 50, 0
5, 12955, Note_on_c, 3, 47, 96
5, 12955, Note_on_c, 3, 48, 88
5, 12972, Note_on_c, 3, 47, 0
5, 12975, Note_on_c, 3, 48, 0
5, 12985, Note_on_c, 3, 50, 108
5, 13010, Note_on_c, 3, 52, 104
5, 13015, Note_on_c, 3, 50, 0
5, 13030, Note_on_c, 3, 52, 0
5, 13070, Note_on_c, 3, 52, 112
5, 13092, Note_on_c, 3, 52, 0
5, 13127, Note_on_c, 3, 52, 104
5, 13145, Note_on_c, 3, 52, 0
5, 13195, Note_on_c, 3, 40, 104
5, 13197, Note_on_c, 3, 41, 16
5, 13202, Note_on_c, 3, 41, 0
5, 13222, Note_on_c, 3, 40, 0
5, 13222, Note_on_c, 3, 41, 108
5, 13240, Note_on_c, 3, 41, 0
5, 13247, Note_on_c, 3, 43, 112
5, 13280, Note_on_c, 3, 43, 0
5, 13312, Note_on_c, 3, 43, 124
5, 13337, Note_on_c, 3, 43, 0
5, 13372, Note_on_c, 3, 43, 120
5, 13395, Note_on_c, 3, 43, 0
5, 13435, Note_on_c, 3, 42, 88
5, 13462, Note_on_c, 3, 42, 0
5, 13462, Note_on_c, 3, 43, 100
5, 13490, Note_on_c, 3, 43, 0
5, 13492, Note_on_c, 3, 45, 112
5, 13525, Note_on_c, 3, 45, 0
5, 13550, Note_on_c, 3, 45, 88
5, 13577, Note_on_c, 3, 45, 0
5, 13607, Note_on_c, 3, 45, 40
5, 13635, Note_on_c, 3, 45, 0
5, 13675, Note_on_c, 3, 44, 60
5, 13702, Note_on_c, 3, 44, 0
5, 13702, Note_on_c, 3, 45, 84
5, 13730, Note_on_c, 3, 45, 0
5, 13732, Note_on_c, 3, 47, 84
5, 13770, Note_on_c, 3, 47, 0
5, 13795, Note_on_c, 3, 47, 96
5, 13827, Note_on_c, 3, 47, 0
5, 13857, Note_on_c, 3, 47, 104
5, 13882, Note_on_c, 3, 47, 0
5, 13922, Note_on_c, 3, 45, 112
5, 13952, Note_on_c, 3, 47, 100
5, 13955, Note_on_c, 3, 45, 0
5, 13975, Note_on_c, 3, 47, 0
5, 13980, Note_on_c, 3, 48, 112
5, 14015, Note_on_c, 3, 48, 0
5, 14040, Note_on_c, 3, 48, 112
5, 14067, Note_on_c, 3, 48, 0
5, 14097, Note_on_c, 3, 48, 92
5, 14117, Note_on_c, 3, 48, 0
5, 14165, Note_on_c, 3, 43, 108
5, 14187, Note_on_c, 3, 43, 0
5, 14192, Note_on_c, 3, 45, 88
5, 14212, Note_on_c, 3, 45, 0
5, 14220, Note_on_c, 3, 46, 120
5, 14247, Note_on_c, 3, 46, 0
5, 14282, Note_on_c, 3, 46, 104
5, 14305, Note_on_c, 3, 46, 0
5, 14337, Note_on_c, 3, 46, 120
5, 14355, Note_on_c, 3, 46, 0
5, 14400, Note_on_c, 3, 42, 92
5, 14425, Note_on_c, 3, 42, 0
5, 14427, Note_on_c, 3, 43, 112
5, 14450, Note_on_c, 3, 43, 0
5, 14457, Note_on_c, 3, 45, 80
5, 14485, Note_on_c, 3, 45, 0
5, 14512, Note_on_c, 3, 45, 100
5, 14532, Note_on_c, 3, 45, 0
5, 14572, Note_on_c, 3, 45, 104
5, 14590, Note_on_c, 3, 45, 0
5, 14635, Note_on_c, 3, 45, 112
5, 14662, Note_on_c, 3, 43, 92
5, 14667, Note_on_c, 3, 45, 0
5, 14687, Note_on_c, 3, 43, 0
5, 14692, Note_on_c, 3, 42, 112
5, 14715, Note_on_c, 3, 42, 0
5, 14752, Note_on_c, 3, 42, 104
5, 14775, Note_on_c, 3, 42, 0
5, 14807, Note_on_c, 3, 42, 116
5, 14830, Note_on_c, 3, 42, 0
5, 14872, Note_on_c, 3, 41, 124
5, 14895, Note_on_c, 3, 41, 0
5, 14900, Note_on_c, 3, 43, 108
5, 14920, Note_on_c, 3, 43, 0
5, 14930, Note_on_c, 3, 45, 112
5, 14952, Note_on_c, 3, 45, 0
5, 14992, Note_on_c, 3, 45, 112
5, 15010, Note_on_c, 3, 45, 0
5, 15055, Note_on_c, 3, 45, 112
5, 15072, Note_on_c, 3, 45, 0
5, 15120, Note_on_c, 3, 45, 116
5, 15150, Note_on_c, 3, 43, 120
5, 15155, Note_on_c, 3, 45, 0
5, 15170, Note_on_c, 3, 43, 0
5, 15177, Note_on_c, 3, 41, 104
5, 15197, Note_on_c, 3, 41, 0
5, 15242, Note_on_c, 3, 41, 120
5, 15260, Note_on_c, 3, 41, 0
5, 15300, Note_on_c, 3, 41, 112
5, 15305, Note_on_c, 3, 42, 16
5, 15307, Note_on_c, 3, 42, 0
5, 15317, Note_on_c, 3, 41, 0
5, 15367, Note_on_c, 3, 40, 124
5, 15420, Note_on_c, 3, 40, 0
5, 15605, Note_on_c, 3, 38, 116
5, 15677, Note_on_c, 3, 38, 0
5, 15837, Note_on_c, 3, 36, 120
5, 15915, Note_on_c, 3, 36, 0
5, 16072, Note_on_c, 3, 35, 100
5, 16147, Note_on_c, 3, 35, 0
5, 16320, Note_on_c, 3, 33, 80
5, 16440, Note_on_c, 3, 33, 0
5, 24000, Note_on_c, 3, 33, 112
5, 24000, Note_on_c, 3, 45, 88
5, 24027, Note_on_c, 3, 45, 0
5, 24027, Note_on_c, 3, 33, 0
5, 24240, Note_on_c, 3, 33, 112
5, 24240, Note_on_c, 3, 45, 108
5, 24262, Note_on_c, 3, 33, 0
5, 24265, Note_on_c, 3, 45, 0
5, 24480, Note_on_c, 3, 33, 116
5, 24480, Note_on_c, 3, 45, 112
5, 24502, Note_on_c, 3, 45, 0
5, 24505, Note_on_c, 3, 33, 0
5, 24720, Note_on_c, 3, 33, 112
5, 24720, Note_on_c, 3, 45, 92
5, 24745, Note_on_c, 3, 45, 0
5, 24747, Note_on_c, 3, 33, 0
5, 24960, Note_on_c, 3, 51, 100
5, 24960, Note_on_c, 3, 39, 124
5, 25095, Note_on_c, 3, 51, 0
5, 25097, Note_on_c, 3, 39, 0
5, 25200, Note_on_c, 3, 52, 68
5, 25200, Note_on_c, 3, 39, 120
5, 25200, Note_on_c, 3, 51, 124
5, 25225, Note_on_c, 3, 52, 0
5, 25370, Note_on_c, 3, 39, 0
5, 25375, Note_on_c, 3, 51, 0
5, 25440, Note_on_c, 3, 39, 120
5, 25440, Note_on_c, 3, 51, 124
5, 25617, Note_on_c, 3, 51, 0
5, 25617, Note_on_c, 3, 39, 0
5, 25680, Note_on_c, 3, 39, 92
5, 25680, Note_on_c, 3, 51, 116
5, 25845, Note_on_c, 3, 39, 0
5, 25847, Note_on_c, 3, 51, 0
5, 25920, Note_on_c, 3, 39, 116
5, 25920, Note_on_c, 3, 51, 116
5, 26092, Note_on_c, 3, 51, 0
5, 26097, Note_on_c, 3, 39, 0
5, 26160, Note_on_c, 3, 39, 120
5, 26160, Note_on_c, 3, 51, 104
5, 26330, Note_on_c, 3, 51, 0
5, 26332, Note_on_c, 3, 39, 0
5, 26400, Note_on_c, 3, 39, 108
5, 26400, Note_on_c, 3, 51, 104
5, 26575, Note_on_c, 3, 39, 0
5, 26577, Note_on_c, 3, 51, 0
5, 26640, Note_on_c, 3, 39, 100
5, 26640, Note_on_c, 3, 51, 112
5, 26815, Note_on_c, 3, 39, 0
5, 26817, Note_on_c, 3, 51, 0
5, 26880, Note_on_c, 3, 39, 92
5, 26880, Note_on_c, 3, 51, 108
5, 27057, Note_on_c, 3, 39, 0
5, 27060, Note_on_c, 3, 51, 0
5, 27120, Note_on_c, 3, 39, 88
5, 27120, Note_on_c, 3, 51, 80
5, 27282, Note_on_c, 3, 39, 0
5, 27290, Note_on_c, 3, 51, 0
5, 27360, Note_on_c, 3, 39, 108
5, 27360, Note_on_c, 3, 51, 80
5, 27527, Note_on_c, 3, 39, 0
5, 27562, Note_on_c, 3, 51, 0
5, 27600, Note_on_c, 3, 51, 108
5, 27600, Note_on_c, 3, 38, 80
5, 27600, Note_on_c, 3, 39, 84
5, 27620, Note_on_c, 3, 39, 0
5, 27622, Note_on_c, 3, 38, 0
5, 27720, Note_on_c, 3, 39, 32
5, 27840, Note_on_c, 3, 51, 0
5, 27840, Note_on_c, 3, 44, 112
5, 27840, Note_on_c, 3, 32, 108
5, 27842, Note_on_c, 3, 39, 0
5, 28017, Note_on_c, 3, 44, 0
5, 28047, Note_on_c, 3, 32, 0
5, 28080, Note_on_c, 3, 44, 108
5, 28080, Note_on_c, 3, 56, 92
5, 28255, Note_on_c, 3, 56, 0
5, 28260, Note_on_c, 3, 44, 0
5, 28320, Note_on_c, 3, 44, 84
5, 28320, Note_on_c, 3, 56, 100
5, 28520, Note_on_c, 3, 44, 0
5, 28527, Note_on_c, 3, 56, 0
5, 28560, Note_on_c, 3, 44, 112
5, 28560, Note_on_c, 3, 56, 108
5, 28707, Note_on_c, 3, 56, 0
5, 28745, Note_on_c, 3, 44, 0
5, 28800, Note_on_c, 3, 50, 124
5, 28800, Note_on_c, 3, 38, 112
5, 28990, Note_on_c, 3, 38, 0
5, 28990, Note_on_c, 3, 50, 0
5, 29040, Note_on_c, 3, 50, 124
5, 29040, Note_on_c, 3, 38, 112
5, 29227, Note_on_c, 3, 38, 0
5, 29230, Note_on_c, 3, 50, 0
5, 29280, Note_on_c, 3, 50, 112
5, 29280, Note_on_c, 3, 38, 124
5, 29467, Note_on_c, 3, 38, 0
5, 29467, Note_on_c, 3, 50, 0
5, 29520, Note_on_c, 3, 38, 104
5, 29520, Note_on_c, 3, 50, 96
5, 29675, Note_on_c, 3, 38, 0
5, 29677, Note_on_c, 3, 50, 0
5, 29760, Note_on_c, 3, 38, 112
5, 29760, Note_on_c, 3, 50, 108
5, 29902, Note_on_c, 3, 38, 0
5, 29910, Note_on_c, 3, 50, 0
5, 30000, Note_on_c, 3, 38, 104
5, 30000, Note_on_c, 3, 50, 76
5, 30152, Note_on_c, 3, 38, 0
5, 30157, Note_on_c, 3, 50, 0
5, 30240, Note_on_c, 3, 38, 112
5, 30240, Note_on_c, 3, 50, 96
5, 30410, Note_on_c, 3, 38, 0
5, 30417, Note_on_c, 3, 50, 0
5, 30480, Note_on_c, 3, 38, 124
5, 30480, Note_on_c, 3, 50, 100
5, 30660, Note_on_c, 3, 38, 0
5, 30667, Note_on_c, 3, 50, 0
5, 30720, Note_on_c, 3, 38, 120
5, 30720, Note_on_c, 3, 50, 96
5, 30892, Note_on_c, 3, 38, 0
5, 30900, Note_on_c, 3, 50, 0
5, 30960, Note_on_c, 3, 38, 96
5, 30960, Note_on_c, 3, 50, 112
5, 31137, Note_on_c, 3, 38, 0
5, 31142, Note_on_c, 3, 50, 0
5, 31200, Note_on_c, 3, 38, 124
5, 31200, Note_on_c, 3, 50, 112
5, 31382, Note_on_c, 3, 38, 0
5, 31390, Note_on_c, 3, 50, 0
5, 31440, Note_on_c, 3, 37, 76
5, 31440, Note_on_c, 3, 38, 124
5, 31440, Note_on_c, 3, 50, 120
5, 31450, Note_on_c, 3, 37, 0
5, 31570, Note_on_c, 3, 50, 0
5, 31617, Note_on_c, 3, 38, 0
5, 31680, Note_on_c, 3, 31, 124
5, 31680, Note_on_c, 3, 43, 124
5, 31892, Note_on_c, 3, 43, 0
5, 31910, Note_on_c, 3, 31, 0
5, 31920, Note_on_c, 3, 43, 124
5, 31920, Note_on_c, 3, 55, 108
5, 32095, Note_on_c, 3, 43, 0
5, 32102, Note_on_c, 3, 55, 0
5, 32160, Note_on_c, 3, 42, 52
5, 32160, Note_on_c, 3, 43, 120
5, 32160, Note_on_c, 3, 55, 108
5, 32165, Note_on_c, 3, 42, 0
5, 32352, Note_on_c, 3, 43, 0
5, 32355, Note_on_c, 3, 55, 0
5, 32400, Note_on_c, 3, 55, 124
5, 32400, Note_on_c, 3, 43, 124
5, 32590, Note_on_c, 3, 43, 0
5, 32590, Note_on_c, 3, 55, 0
5, 32640, Note_on_c, 3, 49, 80
5, 32640, Note_on_c, 3, 37, 92
5, 32772, Note_on_c, 3, 49, 0
5, 32777, Note_on_c, 3, 37, 0
5, 32880, Note_on_c, 3, 37, 116
5, 32880, Note_on_c, 3, 49, 108
5, 33022, Note_on_c, 3, 49, 0
5, 33025, Note_on_c, 3, 37, 0
5, 33120, Note_on_c, 3, 49, 96
5, 33120, Note_on_c, 3, 37, 100
5, 33280, Note_on_c, 3, 37, 0
5, 33280, Note_on_c, 3, 49, 0
5, 33360, Note_on_c, 3, 49, 112
5, 33360, Note_on_c, 3, 37, 88
5, 33517, Note_on_c, 3, 37, 0
5, 33522, Note_on_c, 3, 49, 0
5, 33600, Note_on_c, 3, 39, 52
5, 33600, Note_on_c, 3, 49, 104
5, 33600, Note_on_c, 3, 37, 112
5, 33605, Note_on_c, 3, 39, 0
5, 33765, Note_on_c, 3, 37, 0
5, 33765, Note_on_c, 3, 49, 0
5, 33840, Note_on_c, 3, 49, 116
5, 33840, Note_on_c, 3, 37, 104
5, 33997, Note_on_c, 3, 49, 0
5, 34002, Note_on_c, 3, 37, 0
5, 34080, Note_on_c, 3, 49, 112
5, 34080, Note_on_c, 3, 37, 104
5, 34250, Note_on_c, 3, 37, 0
5, 34252, Note_on_c, 3, 49, 0
5, 34320, Note_on_c, 3, 39, 16
5, 34320, Note_on_c, 3, 49, 80
5, 34320, Note_on_c, 3, 37, 88
5, 34325, Note_on_c, 3, 39, 0
5, 34475, Note_on_c, 3, 49, 0
5, 34477, Note_on_c, 3, 37, 0
5, 34560, Note_on_c, 3, 48, 112
5, 34560, Note_on_c, 3, 36, 120
5, 34712, Note_on_c, 3, 36, 0
5, 34715, Note_on_c, 3, 48, 0
5, 34800, Note_on_c, 3, 48, 120
5, 34800, Note_on_c, 3, 36, 108
5, 34960, Note_on_c, 3, 36, 0
5, 34960, Note_on_c, 3, 48, 0
5, 35040, Note_on_c, 3, 48, 116
5, 35040, Note_on_c, 3, 36, 124
5, 35197, Note_on_c, 3, 36, 0
5, 35200, Note_on_c, 3, 48, 0
5, 35280, Note_on_c, 3, 48, 116
5, 35280, Note_on_c, 3, 36, 124
5, 35437, Note_on_c, 3, 36, 0
5, 35440, Note_on_c, 3, 48, 0
5, 35520, Note_on_c, 3, 48, 108
5, 35520, Note_on_c, 3, 39, 48
5, 35520, Note_on_c, 3, 36, 120
5, 35522, Note_on_c, 3, 39, 0
5, 35687, Note_on_c, 3, 36, 0
5, 35687, Note_on_c, 3, 48, 0
5, 35760, Note_on_c, 3, 48, 112
5, 35760, Note_on_c, 3, 36, 104
5, 35915, Note_on_c, 3, 36, 0
5, 35915, Note_on_c, 3, 48, 0
5, 36000, Note_on_c, 3, 48, 112
5, 36000, Note_on_c, 3, 39, 40
5, 36000, Note_on_c, 3, 36, 124
5, 36005, Note_on_c, 3, 39, 0
5, 36165, Note_on_c, 3, 36, 0
5, 36165, Note_on_c, 3, 48, 0
5, 36240, Note_on_c, 3, 48, 116
5, 36240, Note_on_c, 3, 36, 120
5, 36405, Note_on_c, 3, 36, 0
5, 36407, Note_on_c, 3, 48, 0
5, 36480, Note_on_c, 3, 48, 116
5, 36480, Note_on_c, 3, 39, 32
5, 36480, Note_on_c, 3, 36, 112
5, 36485, Note_on_c, 3, 39, 0
5, 36647, Note_on_c, 3, 36, 0
5, 36650, Note_on_c, 3, 48, 0
5, 36720, Note_on_c, 3, 48, 112
5, 36720, Note_on_c, 3, 36, 120
5, 36885, Note_on_c, 3, 48, 0
5, 36890, Note_on_c, 3, 36, 0
5, 36960, Note_on_c, 3, 48, 104
5, 36960, Note_on_c, 3, 36, 120
5, 37122, Note_on_c, 3, 48, 0
5, 37125, Note_on_c, 3, 36, 0
5, 37200, Note_on_c, 3, 48, 112
5, 37200, Note_on_c, 3, 36, 108
5, 37340, Note_on_c, 3, 48, 0
5, 37357, Note_on_c, 3, 36, 0
5, 37440, Note_on_c, 3, 41, 116
5, 37440, Note_on_c, 3, 29, 124
5, 37597, Note_on_c, 3, 29, 0
5, 37600, Note_on_c, 3, 41, 0
5, 37680, Note_on_c, 3, 41, 116
5, 37680, Note_on_c, 3, 29, 108
5, 37820, Note_on_c, 3, 29, 0
5, 37820, Note_on_c, 3, 41, 0
5, 37920, Note_on_c, 3, 41, 104
5, 37920, Note_on_c, 3, 29, 120
5, 38057, Note_on_c, 3, 29, 0
5, 38062, Note_on_c, 3, 41, 0
5, 38160, Note_on_c, 3, 41, 120
5, 38160, Note_on_c, 3, 29, 124
5, 38310, Note_on_c, 3, 29, 0
5, 38310, Note_on_c, 3, 41, 0
5, 38400, Note_on_c, 3, 41, 100
5, 38400, Note_on_c, 3, 29, 116
5, 38667, Note_on_c, 3, 29, 0
5, 38667, Note_on_c, 3, 41, 0
5, 38667, End_track
6, 0, Start_track
6, 0, MIDI_port, 0
6, 0, Title_t, "Bassoon"
6, 0, Program_c, 4, 70
6, 0, Control_c, 4, 7, 100
6, 0, Control_c, 4, 10, 50
6, 250, Control_c, 4, 91, 90
6, 1200, Note_on_c, 4, 57, 64
6, 1380, Note_on_c, 4, 52, 52
6, 1390, Note_on_c, 4, 57, 0
6, 1440, Note_on_c, 4, 52, 0
6, 1440, Note_on_c, 4, 60, 80
6, 1680, Note_on_c, 4, 60, 0
6, 1680, Note_on_c, 4, 60, 88
6, 1680, Note_on_c, 4, 57, 80
6, 1860, Note_on_c, 4, 57, 0
6, 1860, Note_on_c, 4, 57, 76
6, 1867, Note_on_c, 4, 60, 0
6, 1920, Note_on_c, 4, 62, 84
6, 1930, Note_on_c, 4, 57, 0
6, 2160, Note_on_c, 4, 56, 76
6, 2162, Note_on_c, 4, 62, 0
6, 2335, Note_on_c, 4, 56, 0
6, 2340, Note_on_c, 4, 52, 68
6, 2400, Note_on_c, 4, 52, 0
6, 2400, Note_on_c, 4, 62, 68
6, 2640, Note_on_c, 4, 62, 0
6, 2640, Note_on_c, 4, 56, 64
6, 2640, Note_on_c, 4, 62, 84
6, 2812, Note_on_c, 4, 62, 0
6, 2820, Note_on_c, 4, 59, 76
6, 2880, Note_on_c, 4, 64, 80
6, 2882, Note_on_c, 4, 59, 0
6, 2885, Note_on_c, 4, 56, 0
6, 3120, Note_on_c, 4, 64, 0
6, 3120, Note_on_c, 4, 57, 80
6, 3120, Note_on_c, 4, 64, 100
6, 3290, Note_on_c, 4, 64, 0
6, 3300, Note_on_c, 4, 62, 52
6, 3340, Note_on_c, 4, 57, 0
6, 3360, Note_on_c, 4, 60, 88
6, 3385, Note_on_c, 4, 62, 0
6, 3527, Note_on_c, 4, 60, 0
6, 3540, Note_on_c, 4, 59, 68
6, 3600, Note_on_c, 4, 57, 112
6, 3617, Note_on_c, 4, 59, 0
6, 3775, Note_on_c, 4, 57, 0
6, 3780, Note_on_c, 4, 55, 84
6, 3840, Note_on_c, 4, 53, 84
6, 3857, Note_on_c, 4, 55, 0
6, 4067, Note_on_c, 4, 53, 0
6, 4080, Note_on_c, 4, 65, 100
6, 4080, Note_on_c, 4, 50, 64
6, 4260, Note_on_c, 4, 65, 0
6, 4260, Note_on_c, 4, 64, 64
6, 4320, Note_on_c, 4, 62, 80
6, 4322, Note_on_c, 4, 64, 0
6, 4332, Note_on_c, 4, 50, 0
6, 4480, Note_on_c, 4, 62, 0
6, 4500, Note_on_c, 4, 60, 76
6, 4560, Note_on_c, 4, 59, 96
6, 4560, Note_on_c, 4, 62, 100
6, 4577, Note_on_c, 4, 60, 0
6, 4682, Note_on_c, 4, 62, 0
6, 4720, Note_on_c, 4, 59, 0
6, 4740, Note_on_c, 4, 57, 76
6, 4740, Note_on_c, 4, 62, 68
6, 4780, Note_on_c, 4, 62, 0
6, 4800, Note_on_c, 4, 56, 72
6, 4800, Note_on_c, 4, 62, 104
6, 4817, Note_on_c, 4, 57, 0
6, 4960, Note_on_c, 4, 62, 0
6, 4962, Note_on_c, 4, 56, 0
6, 4980, Note_on_c, 4, 52, 76
6, 4980, Note_on_c, 4, 52, 52
6, 4981, Note_on_c, 4, 52, 0
6, 5040, Note_on_c, 4, 62, 112
6, 5040, Note_on_c, 4, 56, 88
6, 5055, Note_on_c, 4, 52, 0
6, 5160, Note_on_c, 4, 62, 0
6, 5195, Note_on_c, 4, 56, 0
6, 5220, Note_on_c, 4, 62, 52
6, 5220, Note_on_c, 4, 52, 76
6, 5275, Note_on_c, 4, 62, 0
6, 5280, Note_on_c, 4, 63, 92
6, 5280, Note_on_c, 4, 60, 68
6, 5297, Note_on_c, 4, 52, 0
6, 5400, Note_on_c, 4, 63, 0
6, 5430, Note_on_c, 4, 60, 0
6, 5460, Note_on_c, 4, 57, 80
6, 5460, Note_on_c, 4, 63, 80
6, 5497, Note_on_c, 4, 63, 0
6, 5520, Note_on_c, 4, 63, 64
6, 5520, Note_on_c, 4, 60, 88
6, 5540, Note_on_c, 4, 57, 0
6, 5642, Note_on_c, 4, 63, 0
6, 5687, Note_on_c, 4, 60, 0
6, 5700, Note_on_c, 4, 57, 60
6, 5700, Note_on_c, 4, 63, 88
6, 5760, Note_on_c, 4, 56, 88
6, 5760, Note_on_c, 4, 64, 76
6, 5762, Note_on_c, 4, 63, 0
6, 5782, Note_on_c, 4, 57, 0
6, 6000, Note_on_c, 4, 64, 0
6, 6000, Note_on_c, 4, 67, 60
6, 6000, Note_on_c, 4, 64, 88
6, 6015, Note_on_c, 4, 56, 0
6, 6232, Note_on_c, 4, 64, 0
6, 6240, Note_on_c, 4, 66, 56
6, 6240, Note_on_c, 4, 63, 68
6, 6250, Note_on_c, 4, 67, 0
6, 6475, Note_on_c, 4, 63, 0
6, 6480, Note_on_c, 4, 65, 64
6, 6480, Note_on_c, 4, 62, 4
6, 6487, Note_on_c, 4, 66, 0
6, 6697, Note_on_c, 4, 65, 0
6, 6705, Note_on_c, 4, 62, 0
6, 6705, Control_c, 4, 7, 70
6, 10325, Note_on_c, 4, 55, 108
6, 10500, Note_on_c, 4, 60, 104
6, 10505, Note_on_c, 4, 55, 0
6, 10565, Note_on_c, 4, 59, 64
6, 10570, Note_on_c, 4, 60, 0
6, 10800, Note_on_c, 4, 55, 80
6, 10807, Note_on_c, 4, 59, 0
6, 10807, Note_on_c, 4, 62, 108
6, 10980, Note_on_c, 4, 67, 108
6, 10985, Note_on_c, 4, 62, 0
6, 11035, Note_on_c, 4, 55, 0
6, 11040, Note_on_c, 4, 66, 80
6, 11047, Note_on_c, 4, 67, 0
6, 11287, Note_on_c, 4, 66, 0
6, 11287, Note_on_c, 4, 62, 92
6, 11292, Note_on_c, 4, 57, 108
6, 11460, Note_on_c, 4, 62, 0
6, 11460, Note_on_c, 4, 62, 112
6, 11465, Note_on_c, 4, 57, 0
6, 11525, Note_on_c, 4, 61, 92
6, 11530, Note_on_c, 4, 62, 0
6, 11765, Note_on_c, 4, 61, 0
6, 11767, Note_on_c, 4, 57, 108
6, 11777, Note_on_c, 4, 64, 120
6, 11940, Note_on_c, 4, 69, 120
6, 11942, Note_on_c, 4, 64, 0
6, 12007, Note_on_c, 4, 68, 120
6, 12010, Note_on_c, 4, 57, 0
6, 12012, Note_on_c, 4, 69, 0
6, 12242, Note_on_c, 4, 59, 112
6, 12247, Note_on_c, 4, 64, 112
6, 12255, Note_on_c, 4, 68, 0
6, 12412, Note_on_c, 4, 64, 0
6, 12412, Note_on_c, 4, 64, 108
6, 12415, Note_on_c, 4, 59, 0
6, 12465, Note_on_c, 4, 64, 0
6, 12480, Note_on_c, 4, 64, 112
6, 12480, Note_on_c, 4, 65, 112
6, 12660, Note_on_c, 4, 57, 116
6, 12662, Note_on_c, 4, 64, 0
6, 12722, Note_on_c, 4, 62, 104
6, 12725, Note_on_c, 4, 57, 0
6, 12840, Note_on_c, 4, 67, 92
6, 12847, Note_on_c, 4, 65, 0
6, 12875, Note_on_c, 4, 62, 0
6, 12890, Note_on_c, 4, 62, 96
6, 12930, Note_on_c, 4, 62, 0
6, 12952, Note_on_c, 4, 62, 104
6, 12962, Note_on_c, 4, 64, 112
6, 12965, Note_on_c, 4, 67, 0
6, 13122, Note_on_c, 4, 64, 0
6, 13137, Note_on_c, 4, 62, 0
6, 13137, Note_on_c, 4, 55, 92
6, 13142, Note_on_c, 4, 64, 112
6, 13177, Note_on_c, 4, 64, 0
6, 13200, Note_on_c, 4, 55, 0
6, 13200, Note_on_c, 4, 60, 104
6, 13202, Note_on_c, 4, 64, 124
6, 13357, Note_on_c, 4, 60, 0
6, 13380, Note_on_c, 4, 60, 76
6, 13387, Note_on_c, 4, 65, 88
6, 13392, Note_on_c, 4, 64, 0
6, 13430, Note_on_c, 4, 60, 0
6, 13447, Note_on_c, 4, 65, 0
6, 13447, Note_on_c, 4, 60, 100
6, 13447, Note_on_c, 4, 62, 104
6, 13602, Note_on_c, 4, 62, 0
6, 13622, Note_on_c, 4, 60, 0
6, 13625, Note_on_c, 4, 54, 112
6, 13625, Note_on_c, 4, 62, 108
6, 13660, Note_on_c, 4, 62, 0
6, 13690, Note_on_c, 4, 62, 120
6, 13695, Note_on_c, 4, 59, 104
6, 13697, Note_on_c, 4, 54, 0
6, 13852, Note_on_c, 4, 59, 0
6, 13870, Note_on_c, 4, 59, 84
6, 13875, Note_on_c, 4, 64, 80
6, 13880, Note_on_c, 4, 62, 0
6, 13930, Note_on_c, 4, 59, 0
6, 13930, Note_on_c, 4, 57, 116
6, 13935, Note_on_c, 4, 64, 0
6, 13937, Note_on_c, 4, 60, 100
6, 14082, Note_on_c, 4, 57, 0
6, 14085, Note_on_c, 4, 60, 0
6, 14102, Note_on_c, 4, 60, 80
6, 14105, Note_on_c, 4, 57, 84
6, 14167, Note_on_c, 4, 60, 0
6, 14170, Note_on_c, 4, 61, 92
6, 14175, Note_on_c, 4, 58, 96
6, 14182, Note_on_c, 4, 57, 0
6, 14320, Note_on_c, 4, 58, 0
6, 14330, Note_on_c, 4, 61, 0
6, 14340, Note_on_c, 4, 58, 84
6, 14345, Note_on_c, 4, 61, 92
6, 14400, Note_on_c, 4, 61, 0
6, 14405, Note_on_c, 4, 58, 0
6, 14407, Note_on_c, 4, 57, 88
6, 14412, Note_on_c, 4, 62, 96
6, 14562, Note_on_c, 4, 57, 0
6, 14565, Note_on_c, 4, 62, 0
6, 14587, Note_on_c, 4, 57, 108
6, 14587, Note_on_c, 4, 62, 104
6, 14630, Note_on_c, 4, 62, 0
6, 14632, Note_on_c, 4, 57, 0
6, 14652, Note_on_c, 4, 57, 116
6, 14652, Note_on_c, 4, 62, 108
6, 14805, Note_on_c, 4, 62, 0
6, 14807, Note_on_c, 4, 57, 0
6, 14827, Note_on_c, 4, 57, 112
6, 14830, Note_on_c, 4, 62, 116
6, 14877, Note_on_c, 4, 62, 0
6, 14882, Note_on_c, 4, 57, 0
6, 14890, Note_on_c, 4, 63, 116
6, 14897, Note_on_c, 4, 60, 104
6, 15035, Note_on_c, 4, 63, 0
6, 15045, Note_on_c, 4, 60, 0
6, 15060, Note_on_c, 4, 63, 112
6, 15075, Note_on_c, 4, 60, 92
6, 15107, Note_on_c, 4, 63, 0
6, 15127, Note_on_c, 4, 63, 92
6, 15135, Note_on_c, 4, 60, 0
6, 15145, Note_on_c, 4, 59, 80
6, 15277, Note_on_c, 4, 63, 0
6, 15297, Note_on_c, 4, 59, 0
6, 15305, Note_on_c, 4, 63, 112
6, 15310, Note_on_c, 4, 57, 84
6, 15355, Note_on_c, 4, 57, 0
6, 15362, Note_on_c, 4, 63, 0
6, 15367, Note_on_c, 4, 64, 100
6, 15377, Note_on_c, 4, 56, 108
6, 15597, Note_on_c, 4, 64, 0
6, 15607, Note_on_c, 4, 56, 0
6, 15620, Note_on_c, 4, 56, 40
6, 15622, Note_on_c, 4, 59, 48
6, 15822, Note_on_c, 4, 56, 0
6, 15832, Note_on_c, 4, 57, 40
6, 15835, Note_on_c, 4, 60, 88
6, 15837, Note_on_c, 4, 59, 0
6, 16077, Note_on_c, 4, 62, 52
6, 16080, Note_on_c, 4, 59, 68
6, 16085, Note_on_c, 4, 60, 0
6, 16087, Note_on_c, 4, 57, 0
6, 16320, Note_on_c, 4, 59, 0
6, 16322, Note_on_c, 4, 62, 0
6, 16322, Note_on_c, 4, 64, 108
6, 16322, Note_on_c, 4, 57, 96
6, 16595, Note_on_c, 4, 57, 0
6, 16597, Note_on_c, 4, 64, 0
6, 24002, Note_on_c, 4, 60, 48
6, 24002, Note_on_c, 4, 57, 44
6, 24955, Note_on_c, 4, 60, 0
6, 24957, Note_on_c, 4, 57, 0
6, 24962, Note_on_c, 4, 60, 104
6, 24962, Note_on_c, 4, 51, 96
6, 25887, Note_on_c, 4, 51, 0
6, 25922, Note_on_c, 4, 51, 76
6, 25922, Note_on_c, 4, 61, 68
6, 25947, Note_on_c, 4, 60, 0
6, 26832, Note_on_c, 4, 51, 0
6, 26865, Note_on_c, 4, 61, 0
6, 26882, Note_on_c, 4, 51, 100
6, 26882, Note_on_c, 4, 59, 104
6, 27362, Note_on_c, 4, 58, 92
6, 27367, Note_on_c, 4, 59, 0
6, 27842, Note_on_c, 4, 56, 108
6, 27842, Note_on_c, 4, 59, 104
6, 27845, Note_on_c, 4, 51, 0
6, 27850, Note_on_c, 4, 58, 0
6, 28752, Note_on_c, 4, 59, 0
6, 28802, Note_on_c, 4, 59, 108
6, 28802, Note_on_c, 4, 50, 104
6, 28807, Note_on_c, 4, 56, 0
6, 29715, Note_on_c, 4, 50, 0
6, 29762, Note_on_c, 4, 50, 96
6, 29762, Note_on_c, 4, 60, 104
6, 29772, Note_on_c, 4, 59, 0
6, 30697, Note_on_c, 4, 50, 0
6, 30700, Note_on_c, 4, 60, 0
6, 30722, Note_on_c, 4, 50, 88
6, 30722, Note_on_c, 4, 58, 92
6, 31190, Note_on_c, 4, 58, 0
6, 31202, Note_on_c, 4, 57, 92
6, 31680, Note_on_c, 4, 50, 0
6, 31682, Note_on_c, 4, 58, 88
6, 31682, Note_on_c, 4, 55, 108
6, 31700, Note_on_c, 4, 57, 0
6, 32642, Note_on_c, 4, 58, 0
6, 32642, Note_on_c, 4, 58, 108
6, 32642, Note_on_c, 4, 49, 104
6, 32652, Note_on_c, 4, 55, 0
6, 33557, Note_on_c, 4, 49, 0
6, 33570, Note_on_c, 4, 58, 0
6, 33602, Note_on_c, 4, 59, 112
6, 33602, Note_on_c, 4, 49, 112
6, 33602, Note_on_c, 4, 51, 12
6, 33607, Note_on_c, 4, 51, 0
6, 34082, Note_on_c, 4, 57, 100
6, 34115, Note_on_c, 4, 59, 0
6, 34507, Note_on_c, 4, 57, 0
6, 34532, Note_on_c, 4, 49, 0
6, 34562, Note_on_c, 4, 48, 120
6, 34562, Note_on_c, 4, 57, 112
6, 35495, Note_on_c, 4, 57, 0
6, 35500, Note_on_c, 4, 48, 0
6, 35522, Note_on_c, 4, 48, 96
6, 35522, Note_on_c, 4, 58, 112
6, 35522, Note_on_c, 4, 54, 40
6, 35527, Note_on_c, 4, 54, 0
6, 35962, Note_on_c, 4, 58, 0
6, 36002, Note_on_c, 4, 56, 100
6, 36422, Note_on_c, 4, 48, 0
6, 36435, Note_on_c, 4, 56, 0
6, 36482, Note_on_c, 4, 55, 108
6, 36482, Note_on_c, 4, 48, 112
6, 37442, Note_on_c, 4, 57, 100
6, 37442, Note_on_c, 4, 53, 96
6, 37447, Note_on_c, 4, 55, 0
6, 37457, Note_on_c, 4, 48, 0
6, 38652, Note_on_c, 4, 57, 0
6, 38652, Note_on_c, 4, 53, 0
6, 38652, End_track
7, 0, Start_track
7, 0, MIDI_port, 0
7, 0, Title_t, "Trumpet"
7, 0, Program_c, 5, 56
7, 0, Control_c, 5, 7, 127
7, 0, Control_c, 5, 10, 80
7, 300, Control_c, 5, 91, 90
7, 960, Note_on_c, 5, 69, 100
7, 965, Note_on_c, 5, 57, 60
7, 1195, Note_on_c, 5, 57, 0
7, 1195, Note_on_c, 5, 69, 0
7, 1437, Note_on_c, 5, 69, 80
7, 1442, Note_on_c, 5, 57, 40
7, 1695, Note_on_c, 5, 69, 0
7, 1700, Note_on_c, 5, 57, 0
7, 1925, Note_on_c, 5, 74, 60
7, 1930, Note_on_c, 5, 62, 60
7, 2162, Note_on_c, 5, 62, 0
7, 2165, Note_on_c, 5, 74, 0
7, 2402, Note_on_c, 5, 74, 64
7, 2407, Note_on_c, 5, 62, 40
7, 2630, Note_on_c, 5, 74, 0
7, 2635, Note_on_c, 5, 62, 0
7, 2890, Note_on_c, 5, 69, 52
7, 2892, Note_on_c, 5, 76, 76
7, 3132, Note_on_c, 5, 69, 0
7, 3135, Note_on_c, 5, 76, 0
7, 3360, Note_on_c, 5, 76, 64
7, 3362, Note_on_c, 5, 69, 68
7, 3607, Note_on_c, 5, 69, 0
7, 3625, Note_on_c, 5, 76, 0
7, 3822, Note_on_c, 5, 74, 80
7, 3825, Note_on_c, 5, 62, 52
7, 4067, Note_on_c, 5, 74, 0
7, 4070, Note_on_c, 5, 62, 0
7, 4322, Note_on_c, 5, 69, 88
7, 4325, Note_on_c, 5, 62, 64
7, 4582, Note_on_c, 5, 69, 0
7, 4585, Note_on_c, 5, 62, 0
7, 4800, Note_on_c, 5, 76, 96
7, 5060, Note_on_c, 5, 76, 0
7, 5285, Note_on_c, 5, 69, 96
7, 5565, Note_on_c, 5, 69, 0
7, 5772, Note_on_c, 5, 76, 96
7, 6005, Note_on_c, 5, 76, 0
7, 6005, Control_c, 5, 7, 80
7, 11037, Note_on_c, 5, 62, 80
7, 11037, Note_on_c, 5, 74, 76
7, 11277, Note_on_c, 5, 74, 0
7, 11277, Note_on_c, 5, 62, 0
7, 11517, Note_on_c, 5, 57, 80
7, 11517, Note_on_c, 5, 69, 52
7, 11752, Note_on_c, 5, 69, 0
7, 11755, Note_on_c, 5, 57, 0
7, 11997, Note_on_c, 5, 76, 40
7, 12202, Note_on_c, 5, 76, 0
7, 12477, Note_on_c, 5, 57, 48
7, 12477, Note_on_c, 5, 69, 52
7, 12692, Note_on_c, 5, 69, 0
7, 12695, Note_on_c, 5, 57, 0
7, 13437, Note_on_c, 5, 62, 28
7, 13437, Note_on_c, 5, 74, 52
7, 13640, Note_on_c, 5, 74, 0
7, 13642, Note_on_c, 5, 62, 0
7, 13917, Note_on_c, 5, 69, 44
7, 13917, Note_on_c, 5, 57, 28
7, 14147, Note_on_c, 5, 57, 0
7, 14152, Note_on_c, 5, 69, 0
7, 14397, Note_on_c, 5, 62, 32
7, 14397, Note_on_c, 5, 74, 60
7, 14602, Note_on_c, 5, 62, 0
7, 14605, Note_on_c, 5, 74, 0
7, 14877, Note_on_c, 5, 57, 24
7, 14877, Note_on_c, 5, 69, 68
7, 15125, Note_on_c, 5, 57, 0
7, 15130, Note_on_c, 5, 69, 0
7, 15130, End_track
8, 0, Start_track
8, 0, MIDI_port, 0
8, 0, Title_t, "Vocals"
8, 0, Program_c, 6, 52
8, 0, Control_c, 6, 7, 127
8, 0, Control_c, 6, 10, 70
8, 350, Control_c, 6, 91, 90
8, 550, Control_c, 6, 93, 90
8, 1200, Note_on_c, 6, 57, 120
8, 1380, Note_on_c, 6, 57, 0
8, 1380, Note_on_c, 6, 52, 120
8, 1440, Note_on_c, 6, 60, 120
8, 1452, Note_on_c, 6, 52, 0
8, 1670, Note_on_c, 6, 60, 0
8, 1680, Note_on_c, 6, 60, 120
8, 1680, Note_on_c, 6, 57, 120
8, 1857, Note_on_c, 6, 60, 0
8, 1860, Note_on_c, 6, 57, 0
8, 1860, Note_on_c, 6, 57, 120
8, 1920, Note_on_c, 6, 62, 120
8, 1922, Note_on_c, 6, 57, 0
8, 2160, Note_on_c, 6, 59, 120
8, 2160, Note_on_c, 6, 56, 120
8, 2167, Note_on_c, 6, 62, 0
8, 2340, Note_on_c, 6, 52, 120
8, 2367, Note_on_c, 6, 59, 0
8, 2375, Note_on_c, 6, 56, 0
8, 2400, Note_on_c, 6, 62, 120
8, 2402, Note_on_c, 6, 52, 0
8, 2637, Note_on_c, 6, 62, 0
8, 2640, Note_on_c, 6, 62, 120
8, 2640, Note_on_c, 6, 56, 120
8, 2817, Note_on_c, 6, 62, 0
8, 2820, Note_on_c, 6, 59, 120
8, 2857, Note_on_c, 6, 56, 0
8, 2880, Note_on_c, 6, 64, 120
8, 2882, Note_on_c, 6, 59, 0
8, 3105, Note_on_c, 6, 64, 0
8, 3120, Note_on_c, 6, 64, 120
8, 3120, Note_on_c, 6, 57, 120
8, 3290, Note_on_c, 6, 64, 0
8, 3300, Note_on_c, 6, 62, 120
8, 3352, Note_on_c, 6, 57, 0
8, 3360, Note_on_c, 6, 60, 120
8, 3370, Note_on_c, 6, 62, 0
8, 3540, Note_on_c, 6, 59, 120
8, 3545, Note_on_c, 6, 60, 0
8, 3600, Note_on_c, 6, 57, 120
8, 3607, Note_on_c, 6, 59, 0
8, 3777, Note_on_c, 6, 57, 0
8, 3780, Note_on_c, 6, 55, 120
8, 3840, Note_on_c, 6, 53, 120
8, 3852, Note_on_c, 6, 55, 0
8, 4080, Note_on_c, 6, 65, 120
8, 4080, Note_on_c, 6, 50, 120
8, 4085, Note_on_c, 6, 53, 0
8, 4260, Note_on_c, 6, 64, 120
8, 4277, Note_on_c, 6, 65, 0
8, 4305, Note_on_c, 6, 50, 0
8, 4320, Note_on_c, 6, 62, 120
8, 4332, Note_on_c, 6, 64, 0
8, 4480, Note_on_c, 6, 62, 0
8, 4500, Note_on_c, 6, 60, 120
8, 4560, Note_on_c, 6, 62, 120
8, 4560, Note_on_c, 6, 59, 120
8, 4577, Note_on_c, 6, 60, 0
8, 4690, Note_on_c, 6, 62, 0
8, 4740, Note_on_c, 6, 57, 120
8, 4740, Note_on_c, 6, 62, 120
8, 4750, Note_on_c, 6, 59, 0
8, 4770, Note_on_c, 6, 62, 0
8, 4800, Note_on_c, 6, 57, 0
8, 4800, Note_on_c, 6, 62, 120
8, 4800, Note_on_c, 6, 56, 120
8, 4950, Note_on_c, 6, 56, 0
8, 4956, Note_on_c, 6, 62, 0
8, 4980, Note_on_c, 6, 52, 120
8, 5040, Note_on_c, 6, 52, 0
8, 5040, Note_on_c, 6, 56, 120
8, 5040, Note_on_c, 6, 62, 120
8, 5209, Note_on_c, 6, 56, 0
8, 5219, Note_on_c, 6, 62, 0
8, 5220, Note_on_c, 6, 52, 120
8, 5280, Note_on_c, 6, 60, 120
8, 5280, Note_on_c, 6, 63, 120
8, 5283, Note_on_c, 6, 52, 0
8, 5431, Note_on_c, 6, 60, 0
8, 5432, Note_on_c, 6, 63, 0
8, 5460, Note_on_c, 6, 52, 120
8, 5520, Note_on_c, 6, 60, 120
8, 5520, Note_on_c, 6, 63, 120
8, 5532, Note_on_c, 6, 52, 0
8, 5676, Note_on_c, 6, 60, 0
8, 5700, Note_on_c, 6, 57, 120
8, 5707, Note_on_c, 6, 63, 0
8, 5749, Note_on_c, 6, 57, 0
8, 5760, Note_on_c, 6, 64, 120
8, 5761, Note_on_c, 6, 56, 120
8, 5999, Note_on_c, 6, 52, 120
8, 6000, Note_on_c, 6, 56, 0
8, 6005, Note_on_c, 6, 64, 0
8, 6219, Note_on_c, 6, 52, 0
8, 6720, Note_on_c, 6, 76, 120
8, 6720, Note_on_c, 6, 72, 120
8, 7535, Note_on_c, 6, 76, 0
8, 7547, Note_on_c, 6, 72, 0
8, 7560, Note_on_c, 6, 76, 120
8, 7560, Note_on_c, 6, 72, 120
8, 7647, Note_on_c, 6, 72, 0
8, 7670, Note_on_c, 6, 76, 0
8, 7680, Note_on_c, 6, 77, 88
8, 7680, Note_on_c, 6, 72, 88
8, 7920, Note_on_c, 6, 72, 0
8, 7920, Note_on_c, 6, 71, 89
8, 8015, Note_on_c, 6, 77, 0
8, 8022, Note_on_c, 6, 71, 0
8, 8040, Note_on_c, 6, 77, 90
8, 8040, Note_on_c, 6, 71, 90
8, 8150, Note_on_c, 6, 71, 0
8, 8160, Note_on_c, 6, 77, 0
8, 8160, Note_on_c, 6, 76, 90
8, 8160, Note_on_c, 6, 72, 90
8, 8420, Note_on_c, 6, 76, 0
8, 8422, Note_on_c, 6, 72, 0
8, 8640, Note_on_c, 6, 76, 92
8, 8640, Note_on_c, 6, 72, 92
8, 8987, Note_on_c, 6, 76, 0
8, 9000, Note_on_c, 6, 72, 0
8, 9000, Note_on_c, 6, 76, 93
8, 9000, Note_on_c, 6, 72, 93
8, 9087, Note_on_c, 6, 72, 0
8, 9112, Note_on_c, 6, 76, 0
8, 9120, Note_on_c, 6, 76, 94
8, 9120, Note_on_c, 6, 72, 94
8, 9227, Note_on_c, 6, 76, 0
8, 9230, Note_on_c, 6, 72, 0
8, 9240, Note_on_c, 6, 76, 94
8, 9240, Note_on_c, 6, 72, 94
8, 9342, Note_on_c, 6, 72, 0
8, 9355, Note_on_c, 6, 76, 0
8, 9360, Note_on_c, 6, 76, 95
8, 9360, Note_on_c, 6, 72, 95
8, 9450, Note_on_c, 6, 72, 0
8, 9462, Note_on_c, 6, 76, 0
8, 9480, Note_on_c, 6, 76, 95
8, 9480, Note_on_c, 6, 72, 95
8, 9567, Note_on_c, 6, 72, 0
8, 9600, Note_on_c, 6, 77, 96
8, 9600, Note_on_c, 6, 72, 96
8, 9605, Note_on_c, 6, 76, 0
8, 9830, Note_on_c, 6, 72, 0
8, 9840, Note_on_c, 6, 71, 97
8, 10072, Note_on_c, 6, 77, 0
8, 10080, Note_on_c, 6, 76, 98
8, 10080, Note_on_c, 6, 72, 98
8, 10107, Note_on_c, 6, 71, 0
8, 10345, Note_on_c, 6, 76, 0
8, 10357, Note_on_c, 6, 72, 0
8, 16320, Note_on_c, 6, 72, 100
8, 16320, Note_on_c, 6, 69, 120
8, 17085, Note_on_c, 6, 69, 0
8, 17125, Note_on_c, 6, 72, 0
8, 17160, Note_on_c, 6, 72, 105
8, 17160, Note_on_c, 6, 69, 109
8, 17262, Note_on_c, 6, 69, 0
8, 17280, Note_on_c, 6, 74, 109
8, 17280, Note_on_c, 6, 69, 101
8, 17295, Note_on_c, 6, 72, 0
8, 17520, Note_on_c, 6, 68, 93
8, 17522, Note_on_c, 6, 69, 0
8, 17607, Note_on_c, 6, 74, 0
8, 17625, Note_on_c, 6, 68, 0
8, 17640, Note_on_c, 6, 74, 93
8, 17640, Note_on_c, 6, 68, 108
8, 17760, Note_on_c, 6, 68, 0
8, 17760, Note_on_c, 6, 72, 80
8, 17760, Note_on_c, 6, 69, 103
8, 17767, Note_on_c, 6, 74, 0
8, 17880, Note_on_c, 6, 73, 103
8, 17887, Note_on_c, 6, 72, 0
8, 18000, Note_on_c, 6, 74, 99
8, 18002, Note_on_c, 6, 69, 0
8, 18005, Note_on_c, 6, 73, 0
8, 18120, Note_on_c, 6, 76, 76
8, 18125, Note_on_c, 6, 74, 0
8, 18240, Note_on_c, 6, 77, 114
8, 18240, Note_on_c, 6, 69, 117
8, 18242, Note_on_c, 6, 76, 0
8, 18475, Note_on_c, 6, 77, 0
8, 18480, Note_on_c, 6, 77, 101
8, 18582, Note_on_c, 6, 77, 0
8, 18582, Note_on_c, 6, 69, 0
8, 18600, Note_on_c, 6, 77, 105
8, 18600, Note_on_c, 6, 69, 112
8, 18697, Note_on_c, 6, 77, 0
8, 18717, Note_on_c, 6, 69, 0
8, 18720, Note_on_c, 6, 74, 105
8, 18720, Note_on_c, 6, 77, 101
8, 18827, Note_on_c, 6, 74, 0
8, 18840, Note_on_c, 6, 74, 100
8, 18930, Note_on_c, 6, 74, 0
8, 18940, Note_on_c, 6, 77, 0
8, 18960, Note_on_c, 6, 77, 111
8, 18960, Note_on_c, 6, 74, 100
8, 19050, Note_on_c, 6, 74, 0
8, 19080, Note_on_c, 6, 74, 78
8, 19167, Note_on_c, 6, 74, 0
8, 19200, Note_on_c, 6, 74, 99
8, 19200, Note_on_c, 6, 79, 110
8, 19215, Note_on_c, 6, 77, 0
8, 19440, Note_on_c, 6, 73, 98
8, 19447, Note_on_c, 6, 74, 0
8, 19672, Note_on_c, 6, 79, 0
8, 19680, Note_on_c, 6, 74, 76
8, 19680, Note_on_c, 6, 77, 101
8, 19685, Note_on_c, 6, 73, 0
8, 19895, Note_on_c, 6, 77, 0
8, 19920, Note_on_c, 6, 77, 108
8, 19935, Note_on_c, 6, 74, 0
8, 20400, Note_on_c, 6, 71, 110
8, 20472, Note_on_c, 6, 77, 0
8, 20520, Note_on_c, 6, 77, 98
8, 20640, Note_on_c, 6, 76, 102
8, 20647, Note_on_c, 6, 77, 0
8, 20882, Note_on_c, 6, 76, 0
8, 20970, Note_on_c, 6, 71, 0
8, 21000, Note_on_c, 6, 71, 104
8, 21112, Note_on_c, 6, 71, 0
8, 21120, Note_on_c, 6, 69, 73
8, 21120, Note_on_c, 6, 76, 93
8, 21375, Note_on_c, 6, 69, 0
8, 21452, Note_on_c, 6, 76, 0
8, 21480, Note_on_c, 6, 76, 89
8, 21600, Note_on_c, 6, 74, 88
8, 21600, Note_on_c, 6, 69, 95
8, 21605, Note_on_c, 6, 76, 0
8, 21852, Note_on_c, 6, 74, 0
8, 21935, Note_on_c, 6, 69, 0
8, 21960, Note_on_c, 6, 69, 80
8, 22080, Note_on_c, 6, 68, 94
8, 22080, Note_on_c, 6, 74, 73
8, 22090, Note_on_c, 6, 69, 0
8, 22295, Note_on_c, 6, 68, 0
8, 22320, Note_on_c, 6, 68, 89
8, 22417, Note_on_c, 6, 74, 0
8, 22440, Note_on_c, 6, 74, 92
8, 22550, Note_on_c, 6, 74, 0
8, 22560, Note_on_c, 6, 72, 55
8, 22560, Note_on_c, 6, 69, 88
8, 22562, Note_on_c, 6, 68, 0
8, 22657, Note_on_c, 6, 72, 0
8, 22680, Note_on_c, 6, 72, 55
8, 22782, Note_on_c, 6, 69, 0
8, 22795, Note_on_c, 6, 72, 0
8, 22800, Note_on_c, 6, 69, 85
8, 22800, Note_on_c, 6, 74, 78
8, 22905, Note_on_c, 6, 74, 0
8, 22920, Note_on_c, 6, 74, 64
8, 23020, Note_on_c, 6, 74, 0
8, 23040, Note_on_c, 6, 68, 84
8, 23040, Note_on_c, 6, 74, 81
8, 23045, Note_on_c, 6, 69, 0
8, 23270, Note_on_c, 6, 74, 0
8, 23280, Note_on_c, 6, 72, 89
8, 23280, Note_on_c, 6, 69, 89
8, 23287, Note_on_c, 6, 68, 0
8, 23520, Note_on_c, 6, 71, 96
8, 23525, Note_on_c, 6, 72, 0
8, 23760, Note_on_c, 6, 68, 82
8, 23762, Note_on_c, 6, 69, 0
8, 24000, Note_on_c, 6, 68, 0
8, 24000, Note_on_c, 6, 71, 0
8, 24000, Note_on_c, 6, 72, 87
8, 24000, Note_on_c, 6, 69, 84
8, 24257, Note_on_c, 6, 69, 0
8, 24270, Note_on_c, 6, 72, 0
8, 25440, Note_on_c, 6, 66, 120
8, 25440, Note_on_c, 6, 69, 120
8, 25650, Note_on_c, 6, 69, 0
8, 25672, Note_on_c, 6, 66, 0
8, 25680, Note_on_c, 6, 69, 120
8, 25680, Note_on_c, 6, 66, 120
8, 25912, Note_on_c, 6, 69, 0
8, 25915, Note_on_c, 6, 66, 0
8, 25920, Note_on_c, 6, 67, 120
8, 25920, Note_on_c, 6, 70, 120
8, 26130, Note_on_c, 6, 70, 0
8, 26135, Note_on_c, 6, 67, 0
8, 26160, Note_on_c, 6, 67, 120
8, 26160, Note_on_c, 6, 70, 120
8, 26370, Note_on_c, 6, 70, 0
8, 26375, Note_on_c, 6, 67, 0
8, 26400, Note_on_c, 6, 70, 120
8, 26400, Note_on_c, 6, 67, 120
8, 26602, Note_on_c, 6, 67, 0
8, 26605, Note_on_c, 6, 70, 0
8, 26640, Note_on_c, 6, 67, 120
8, 26640, Note_on_c, 6, 70, 120
8, 26870, Note_on_c, 6, 70, 0
8, 26880, Note_on_c, 6, 63, 120
8, 26880, Note_on_c, 6, 70, 120
8, 26892, Note_on_c, 6, 67, 0
8, 27120, Note_on_c, 6, 70, 0
8, 27120, Note_on_c, 6, 68, 120
8, 27600, Note_on_c, 6, 67, 120
8, 27602, Note_on_c, 6, 68, 0
8, 27815, Note_on_c, 6, 63, 0
8, 27840, Note_on_c, 6, 68, 120
8, 27840, Note_on_c, 6, 63, 120
8, 27847, Note_on_c, 6, 67, 0
8, 28077, Note_on_c, 6, 63, 0
8, 28085, Note_on_c, 6, 68, 0
8, 29280, Note_on_c, 6, 68, 120
8, 29280, Note_on_c, 6, 65, 120
8, 29482, Note_on_c, 6, 65, 0
8, 29502, Note_on_c, 6, 68, 0
8, 29520, Note_on_c, 6, 68, 120
8, 29520, Note_on_c, 6, 65, 120
8, 29747, Note_on_c, 6, 65, 0
8, 29757, Note_on_c, 6, 68, 0
8, 29760, Note_on_c, 6, 66, 120
8, 29760, Note_on_c, 6, 69, 120
8, 29982, Note_on_c, 6, 69, 0
8, 29982, Note_on_c, 6, 66, 0
8, 30000, Note_on_c, 6, 66, 120
8, 30000, Note_on_c, 6, 69, 120
8, 30207, Note_on_c, 6, 66, 0
8, 30210, Note_on_c, 6, 69, 0
8, 30240, Note_on_c, 6, 69, 120
8, 30240, Note_on_c, 6, 66, 120
8, 30455, Note_on_c, 6, 69, 0
8, 30457, Note_on_c, 6, 66, 0
8, 30480, Note_on_c, 6, 66, 120
8, 30480, Note_on_c, 6, 69, 120
8, 30697, Note_on_c, 6, 69, 0
8, 30720, Note_on_c, 6, 66, 0
8, 30720, Note_on_c, 6, 62, 120
8, 30720, Note_on_c, 6, 69, 120
8, 30960, Note_on_c, 6, 69, 0
8, 30960, Note_on_c, 6, 67, 120
8, 31440, Note_on_c, 6, 66, 120
8, 31447, Note_on_c, 6, 67, 0
8, 31675, Note_on_c, 6, 62, 0
8, 31680, Note_on_c, 6, 67, 120
8, 31680, Note_on_c, 6, 62, 120
8, 31692, Note_on_c, 6, 66, 0
8, 31855, Note_on_c, 6, 67, 0
8, 31935, Note_on_c, 6, 62, 0
8, 33120, Note_on_c, 6, 64, 120
8, 33120, Note_on_c, 6, 67, 120
8, 33120, Note_on_c, 6, 68, 120
8, 33140, Note_on_c, 6, 68, 0
8, 33332, Note_on_c, 6, 64, 0
8, 33335, Note_on_c, 6, 67, 0
8, 33360, Note_on_c, 6, 64, 120
8, 33360, Note_on_c, 6, 67, 120
8, 33600, Note_on_c, 6, 65, 120
8, 33600, Note_on_c, 6, 68, 120
8, 33605, Note_on_c, 6, 64, 0
8, 33612, Note_on_c, 6, 67, 0
8, 34080, Note_on_c, 6, 66, 120
8, 34087, Note_on_c, 6, 65, 0
8, 34110, Note_on_c, 6, 68, 0
8, 34140, Note_on_c, 6, 66, 0
8, 34140, Note_on_c, 6, 66, 120
8, 34555, Note_on_c, 6, 66, 0
8, 35040, Note_on_c, 6, 66, 120
8, 35040, Note_on_c, 6, 63, 120
8, 35232, Note_on_c, 6, 66, 0
8, 35240, Note_on_c, 6, 63, 0
8, 35280, Note_on_c, 6, 63, 120
8, 35280, Note_on_c, 6, 66, 120
8, 35512, Note_on_c, 6, 66, 0
8, 35520, Note_on_c, 6, 67, 120
8, 35520, Note_on_c, 6, 64, 120
8, 35532, Note_on_c, 6, 63, 0
8, 35730, Note_on_c, 6, 67, 0
8, 35737, Note_on_c, 6, 64, 0
8, 35760, Note_on_c, 6, 67, 120
8, 35760, Note_on_c, 6, 64, 120
8, 36000, Note_on_c, 6, 65, 120
8, 36000, Note_on_c, 6, 65, 120
8, 36001, Note_on_c, 6, 65, 0
8, 36012, Note_on_c, 6, 64, 0
8, 36015, Note_on_c, 6, 67, 0
8, 36240, Note_on_c, 6, 65, 0
8, 36240, Note_on_c, 6, 65, 120
8, 36240, Note_on_c, 6, 60, 120
8, 36432, Note_on_c, 6, 65, 0
8, 36445, Note_on_c, 6, 60, 0
8, 36480, Note_on_c, 6, 65, 120
8, 36480, Note_on_c, 6, 60, 120
8, 36960, Note_on_c, 6, 64, 120
8, 36975, Note_on_c, 6, 65, 0
8, 37382, Note_on_c, 6, 60, 0
8, 37437, Note_on_c, 6, 64, 0
8, 37440, Note_on_c, 6, 65, 120
8, 37440, Note_on_c, 6, 60, 120
8, 37727, Note_on_c, 6, 65, 0
8, 37737, Note_on_c, 6, 60, 0
8, 37737, End_track
9, 0, Start_track
9, 0, MIDI_port, 0
9, 0, Title_t, "Vocals"
9, 0, Program_c, 7, 52
9, 0, Control_c, 7, 7, 127
9, 0, Control_c, 7, 10, 50
9, 400, Control_c, 7, 91, 90
9, 600, Control_c, 7, 93, 90
9, 10332, Note_on_c, 7, 55, 116
9, 10337, Note_on_c, 7, 56, 36
9, 10342, Note_on_c, 7, 56, 0
9, 10505, Note_on_c, 7, 60, 116
9, 10510, Note_on_c, 7, 55, 0
9, 10557, Note_on_c, 7, 60, 0
9, 10570, Note_on_c, 7, 59, 116
9, 10802, Note_on_c, 7, 59, 0
9, 10805, Note_on_c, 7, 55, 112
9, 10810, Note_on_c, 7, 62, 116
9, 10980, Note_on_c, 7, 67, 112
9, 10985, Note_on_c, 7, 62, 0
9, 11032, Note_on_c, 7, 55, 0
9, 11045, Note_on_c, 7, 66, 120
9, 11050, Note_on_c, 7, 67, 0
9, 11280, Note_on_c, 7, 66, 0
9, 11280, Note_on_c, 7, 57, 108
9, 11282, Note_on_c, 7, 62, 84
9, 11447, Note_on_c, 7, 62, 0
9, 11447, Note_on_c, 7, 57, 0
9, 11447, Note_on_c, 7, 62, 96
9, 11502, Note_on_c, 7, 62, 0
9, 11520, Note_on_c, 7, 61, 124
9, 11762, Note_on_c, 7, 61, 0
9, 11762, Note_on_c, 7, 64, 108
9, 11767, Note_on_c, 7, 57, 120
9, 11932, Note_on_c, 7, 69, 112
9, 11937, Note_on_c, 7, 64, 0
9, 11982, Note_on_c, 7, 57, 0
9, 12000, Note_on_c, 7, 68, 120
9, 12007, Note_on_c, 7, 69, 0
9, 12245, Note_on_c, 7, 59, 64
9, 12247, Note_on_c, 7, 68, 0
9, 12247, Note_on_c, 7, 64, 116
9, 12410, Note_on_c, 7, 64, 0
9, 12410, Note_on_c, 7, 59, 0
9, 12410, Note_on_c, 7, 64, 120
9, 12455, Note_on_c, 7, 64, 0
9, 12477, Note_on_c, 7, 64, 116
9, 12477, Note_on_c, 7, 65, 120
9, 12637, Note_on_c, 7, 64, 0
9, 12657, Note_on_c, 7, 57, 84
9, 12710, Note_on_c, 7, 57, 0
9, 12722, Note_on_c, 7, 62, 124
9, 12862, Note_on_c, 7, 62, 0
9, 12895, Note_on_c, 7, 62, 116
9, 12900, Note_on_c, 7, 67, 112
9, 12907, Note_on_c, 7, 65, 0
9, 12940, Note_on_c, 7, 62, 0
9, 12957, Note_on_c, 7, 62, 104
9, 12960, Note_on_c, 7, 67, 0
9, 12960, Note_on_c, 7, 64, 112
9, 13120, Note_on_c, 7, 64, 0
9, 13125, Note_on_c, 7, 62, 0
9, 13140, Note_on_c, 7, 64, 112
9, 13147, Note_on_c, 7, 55, 116
9, 13182, Note_on_c, 7, 64, 0
9, 13200, Note_on_c, 7, 64, 108
9, 13205, Note_on_c, 7, 55, 0
9, 13205, Note_on_c, 7, 60, 104
9, 13355, Note_on_c, 7, 60, 0
9, 13380, Note_on_c, 7, 60, 112
9, 13382, Note_on_c, 7, 65, 84
9, 13390, Note_on_c, 7, 64, 0
9, 13415, Note_on_c, 7, 60, 0
9, 13440, Note_on_c, 7, 60, 120
9, 13442, Note_on_c, 7, 65, 0
9, 13442, Note_on_c, 7, 62, 112
9, 13615, Note_on_c, 7, 62, 0
9, 13615, Note_on_c, 7, 60, 0
9, 13625, Note_on_c, 7, 54, 116
9, 13627, Note_on_c, 7, 62, 100
9, 13667, Note_on_c, 7, 62, 0
9, 13680, Note_on_c, 7, 54, 0
9, 13685, Note_on_c, 7, 59, 124
9, 13687, Note_on_c, 7, 62, 124
9, 13842, Note_on_c, 7, 59, 0
9, 13865, Note_on_c, 7, 59, 124
9, 13875, Note_on_c, 7, 64, 100
9, 13880, Note_on_c, 7, 62, 0
9, 13912, Note_on_c, 7, 59, 0
9, 13930, Note_on_c, 7, 57, 124
9, 13935, Note_on_c, 7, 56, 64
9, 13937, Note_on_c, 7, 64, 0
9, 13937, Note_on_c, 7, 60, 112
9, 13940, Note_on_c, 7, 56, 0
9, 14072, Note_on_c, 7, 57, 0
9, 14085, Note_on_c, 7, 60, 0
9, 14100, Note_on_c, 7, 57, 96
9, 14100, Note_on_c, 7, 60, 84
9, 14160, Note_on_c, 7, 57, 0
9, 14162, Note_on_c, 7, 58, 112
9, 14165, Note_on_c, 7, 60, 0
9, 14165, Note_on_c, 7, 61, 84
9, 14315, Note_on_c, 7, 61, 0
9, 14322, Note_on_c, 7, 58, 0
9, 14340, Note_on_c, 7, 58, 116
9, 14342, Note_on_c, 7, 61, 108
9, 14390, Note_on_c, 7, 58, 0
9, 14397, Note_on_c, 7, 57, 116
9, 14402, Note_on_c, 7, 61, 0
9, 14402, Note_on_c, 7, 62, 112
9, 14557, Note_on_c, 7, 62, 0
9, 14557, Note_on_c, 7, 57, 0
9, 14577, Note_on_c, 7, 57, 120
9, 14587, Note_on_c, 7, 62, 116
9, 14637, Note_on_c, 7, 62, 0
9, 14645, Note_on_c, 7, 57, 0
9, 14645, Note_on_c, 7, 62, 120
9, 14655, Note_on_c, 7, 57, 116
9, 14662, Note_on_c, 7, 59, 4
9, 14670, Note_on_c, 7, 59, 0
9, 14797, Note_on_c, 7, 62, 0
9, 14812, Note_on_c, 7, 57, 0
9, 14825, Note_on_c, 7, 59, 120
9, 14837, Note_on_c, 7, 62, 120
9, 14885, Note_on_c, 7, 59, 0
9, 14887, Note_on_c, 7, 62, 0
9, 14887, Note_on_c, 7, 60, 120
9, 14897, Note_on_c, 7, 63, 116
9, 15045, Note_on_c, 7, 60, 0
9, 15052, Note_on_c, 7, 63, 0
9, 15065, Note_on_c, 7, 60, 104
9, 15067, Note_on_c, 7, 63, 116
9, 15110, Note_on_c, 7, 63, 0
9, 15110, Note_on_c, 7, 60, 0
9, 15125, Note_on_c, 7, 63, 124
9, 15130, Note_on_c, 7, 59, 124
9, 15285, Note_on_c, 7, 63, 0
9, 15300, Note_on_c, 7, 63, 76
9, 15305, Note_on_c, 7, 59, 0
9, 15305, Note_on_c, 7, 57, 96
9, 15335, Note_on_c, 7, 57, 0
9, 15347, Note_on_c, 7, 63, 0
9, 15360, Note_on_c, 7, 64, 120
9, 15367, Note_on_c, 7, 56, 124
9, 15602, Note_on_c, 7, 56, 0
9, 15602, Note_on_c, 7, 64, 0
9, 15602, Note_on_c, 7, 52, 116
9, 15605, Note_on_c, 7, 52, 0
9, 15605, Note_on_c, 7, 52, 112
9, 15835, Note_on_c, 7, 52, 0
9, 24960, Note_on_c, 7, 51, 120
9, 25440, Note_on_c, 7, 60, 120
9, 25645, Note_on_c, 7, 51, 0
9, 25652, Note_on_c, 7, 60, 0
9, 25680, Note_on_c, 7, 60, 120
9, 25680, Note_on_c, 7, 51, 120
9, 25892, Note_on_c, 7, 51, 0
9, 25920, Note_on_c, 7, 61, 120
9, 25920, Note_on_c, 7, 51, 120
9, 25922, Note_on_c, 7, 60, 0
9, 26122, Note_on_c, 7, 51, 0
9, 26147, Note_on_c, 7, 61, 0
9, 26160, Note_on_c, 7, 51, 120
9, 26160, Note_on_c, 7, 61, 120
9, 26357, Note_on_c, 7, 61, 0
9, 26367, Note_on_c, 7, 51, 0
9, 26400, Note_on_c, 7, 51, 120
9, 26400, Note_on_c, 7, 61, 120
9, 26612, Note_on_c, 7, 51, 0
9, 26617, Note_on_c, 7, 61, 0
9, 26640, Note_on_c, 7, 61, 120
9, 26640, Note_on_c, 7, 51, 120
9, 26837, Note_on_c, 7, 51, 0
9, 26877, Note_on_c, 7, 61, 0
9, 26880, Note_on_c, 7, 51, 120
9, 26880, Note_on_c, 7, 59, 120
9, 27360, Note_on_c, 7, 58, 120
9, 27372, Note_on_c, 7, 59, 0
9, 27840, Note_on_c, 7, 56, 120
9, 27840, Note_on_c, 7, 44, 120
9, 27847, Note_on_c, 7, 51, 0
9, 27852, Note_on_c, 7, 58, 0
9, 28085, Note_on_c, 7, 56, 0
9, 28102, Note_on_c, 7, 44, 0
9, 28800, Note_on_c, 7, 50, 120
9, 29280, Note_on_c, 7, 59, 120
9, 29492, Note_on_c, 7, 59, 0
9, 29495, Note_on_c, 7, 50, 0
9, 29520, Note_on_c, 7, 59, 120
9, 29520, Note_on_c, 7, 50, 120
9, 29737, Note_on_c, 7, 50, 0
9, 29760, Note_on_c, 7, 60, 120
9, 29760, Note_on_c, 7, 50, 120
9, 29782, Note_on_c, 7, 59, 0
9, 29967, Note_on_c, 7, 50, 0
9, 29975, Note_on_c, 7, 60, 0
9, 30000, Note_on_c, 7, 60, 120
9, 30000, Note_on_c, 7, 50, 120
9, 30207, Note_on_c, 7, 50, 0
9, 30210, Note_on_c, 7, 60, 0
9, 30240, Note_on_c, 7, 60, 120
9, 30240, Note_on_c, 7, 50, 120
9, 30455, Note_on_c, 7, 50, 0
9, 30462, Note_on_c, 7, 60, 0
9, 30480, Note_on_c, 7, 50, 120
9, 30480, Note_on_c, 7, 60, 120
9, 30665, Note_on_c, 7, 50, 0
9, 30707, Note_on_c, 7, 60, 0
9, 30720, Note_on_c, 7, 58, 120
9, 30720, Note_on_c, 7, 50, 120
9, 31200, Note_on_c, 7, 57, 120
9, 31227, Note_on_c, 7, 58, 0
9, 31675, Note_on_c, 7, 50, 0
9, 31677, Note_on_c, 7, 57, 0
9, 31680, Note_on_c, 7, 55, 120
9, 31680, Note_on_c, 7, 43, 120
9, 31950, Note_on_c, 7, 55, 0
9, 31985, Note_on_c, 7, 43, 0
9, 32640, Note_on_c, 7, 49, 120
9, 33120, Note_on_c, 7, 58, 120
9, 33325, Note_on_c, 7, 49, 0
9, 33327, Note_on_c, 7, 58, 0
9, 33360, Note_on_c, 7, 58, 120
9, 33360, Note_on_c, 7, 49, 120
9, 33555, Note_on_c, 7, 49, 0
9, 33600, Note_on_c, 7, 49, 120
9, 33600, Note_on_c, 7, 59, 120
9, 33625, Note_on_c, 7, 58, 0
9, 34072, Note_on_c, 7, 59, 0
9, 34080, Note_on_c, 7, 57, 120
9, 34280, Note_on_c, 7, 49, 0
9, 34320, Note_on_c, 7, 49, 120
9, 34517, Note_on_c, 7, 49, 0
9, 34560, Note_on_c, 7, 48, 120
9, 34585, Note_on_c, 7, 57, 0
9, 35040, Note_on_c, 7, 57, 120
9, 35237, Note_on_c, 7, 57, 0
9, 35252, Note_on_c, 7, 48, 0
9, 35280, Note_on_c, 7, 57, 120
9, 35280, Note_on_c, 7, 48, 120
9, 35460, Note_on_c, 7, 48, 0
9, 35520, Note_on_c, 7, 48, 120
9, 35520, Note_on_c, 7, 58, 120
9, 35522, Note_on_c, 7, 57, 0
9, 35727, Note_on_c, 7, 58, 0
9, 35760, Note_on_c, 7, 58, 120
9, 35980, Note_on_c, 7, 48, 0
9, 36000, Note_on_c, 7, 48, 120
9, 36000, Note_on_c, 7, 56, 120
9, 36012, Note_on_c, 7, 58, 0
9, 36212, Note_on_c, 7, 56, 0
9, 36240, Note_on_c, 7, 56, 120
9, 36427, Note_on_c, 7, 48, 0
9, 36480, Note_on_c, 7, 48, 120
9, 36502, Note_on_c, 7, 56, 0
9, 36540, Note_on_c, 7, 55, 120
9, 37440, Note_on_c, 7, 53, 120
9, 37440, Note_on_c, 7, 41, 120
9, 37452, Note_on_c, 7, 48, 0
9, 37462, Note_on_c, 7, 55, 0
9, 37697, Note_on_c, 7, 41, 0
9, 37700, Note_on_c, 7, 53, 0
9, 37700, End_track
10, 0, Start_track
10, 0, MIDI_port, 0
10, 0, Title_t, "Trombones"
10, 0, Program_c, 8, 60
10, 0, Control_c, 8, 7, 94
10, 0, Control_c, 8, 10, 40
10, 450, Control_c, 8, 91, 90
10, 1200, Note_on_c, 8, 57, 68
10, 1370, Note_on_c, 8, 57, 0
10, 1380, Note_on_c, 8, 52, 52
10, 1435, Note_on_c, 8, 52, 0
10, 1440, Note_on_c, 8, 60, 84
10, 1680, Note_on_c, 8, 60, 0
10, 1680, Note_on_c, 8, 57, 68
10, 1680, Note_on_c, 8, 60, 76
10, 1860, Note_on_c, 8, 57, 0
10, 1860, Note_on_c, 8, 57, 60
10, 1862, Note_on_c, 8, 60, 0
10, 1920, Note_on_c, 8, 62, 96
10, 1922, Note_on_c, 8, 57, 0
10, 2147, Note_on_c, 8, 62, 0
10, 2160, Note_on_c, 8, 59, 68
10, 2160, Note_on_c, 8, 56, 56
10, 2337, Note_on_c, 8, 59, 0
10, 2340, Note_on_c, 8, 52, 40
10, 2385, Note_on_c, 8, 56, 0
10, 2400, Note_on_c, 8, 62, 88
10, 2412, Note_on_c, 8, 52, 0
10, 2632, Note_on_c, 8, 62, 0
10, 2640, Note_on_c, 8, 56, 76
10, 2640, Note_on_c, 8, 62, 96
10, 2820, Note_on_c, 8, 56, 0
10, 2820, Note_on_c, 8, 56, 56
10, 2827, Note_on_c, 8, 62, 0
10, 2880, Note_on_c, 8, 64, 96
10, 2890, Note_on_c, 8, 56, 0
10, 3120, Note_on_c, 8, 64, 0
10, 3120, Note_on_c, 8, 64, 96
10, 3120, Note_on_c, 8, 57, 64
10, 3300, Note_on_c, 8, 62, 60
10, 3310, Note_on_c, 8, 64, 0
10, 3360, Note_on_c, 8, 57, 0
10, 3360, Note_on_c, 8, 60, 60
10, 3377, Note_on_c, 8, 62, 0
10, 3522, Note_on_c, 8, 60, 0
10, 3540, Note_on_c, 8, 59, 60
10, 3600, Note_on_c, 8, 57, 76
10, 3612, Note_on_c, 8, 59, 0
10, 3775, Note_on_c, 8, 57, 0
10, 3780, Note_on_c, 8, 55, 48
10, 3840, Note_on_c, 8, 53, 84
10, 3852, Note_on_c, 8, 55, 0
10, 4067, Note_on_c, 8, 53, 0
10, 4080, Note_on_c, 8, 50, 88
10, 4080, Note_on_c, 8, 65, 100
10, 4260, Note_on_c, 8, 64, 68
10, 4272, Note_on_c, 8, 65, 0
10, 4320, Note_on_c, 8, 62, 92
10, 4322, Note_on_c, 8, 50, 0
10, 4342, Note_on_c, 8, 64, 0
10, 4500, Note_on_c, 8, 60, 84
10, 4505, Note_on_c, 8, 62, 0
10, 4560, Note_on_c, 8, 59, 100
10, 4560, Note_on_c, 8, 62, 88
10, 4575, Note_on_c, 8, 60, 0
10, 4660, Note_on_c, 8, 62, 0
10, 4730, Note_on_c, 8, 59, 0
10, 4740, Note_on_c, 8, 57, 60
10, 4740, Note_on_c, 8, 62, 80
10, 4772, Note_on_c, 8, 62, 0
10, 4800, Note_on_c, 8, 62, 76
10, 4800, Note_on_c, 8, 56, 76
10, 4825, Note_on_c, 8, 57, 0
10, 4942, Note_on_c, 8, 62, 0
10, 4980, Note_on_c, 8, 52, 48
10, 5007, Note_on_c, 8, 56, 0
10, 5040, Note_on_c, 8, 56, 68
10, 5040, Note_on_c, 8, 62, 108
10, 5042, Note_on_c, 8, 52, 0
10, 5152, Note_on_c, 8, 62, 0
10, 5220, Note_on_c, 8, 62, 60
10, 5220, Note_on_c, 8, 52, 48
10, 5222, Note_on_c, 8, 56, 0
10, 5257, Note_on_c, 8, 62, 0
10, 5275, Note_on_c, 8, 52, 0
10, 5280, Note_on_c, 8, 60, 68
10, 5280, Note_on_c, 8, 63, 76
10, 5390, Note_on_c, 8, 63, 0
10, 5430, Note_on_c, 8, 60, 0
10, 5460, Note_on_c, 8, 57, 48
10, 5460, Note_on_c, 8, 63, 92
10, 5495, Note_on_c, 8, 63, 0
10, 5520, Note_on_c, 8, 60, 80
10, 5520, Note_on_c, 8, 63, 64
10, 5540, Note_on_c, 8, 57, 0
10, 5620, Note_on_c, 8, 63, 0
10, 5692, Note_on_c, 8, 60, 0
10, 5700, Note_on_c, 8, 57, 52
10, 5700, Note_on_c, 8, 63, 84
10, 5747, Note_on_c, 8, 63, 0
10, 5760, Note_on_c, 8, 56, 60
10, 5760, Note_on_c, 8, 64, 68
10, 5762, Note_on_c, 8, 57, 0
10, 6007, Note_on_c, 8, 64, 0
10, 6010, Note_on_c, 8, 56, 0
10, 6010, Control_c, 8, 7, 80
10, 10080, Note_on_c, 8, 48, 84
10, 10082, Note_on_c, 8, 55, 84
10, 10085, Note_on_c, 8, 60, 64
10, 10317, Note_on_c, 8, 63, 88
10, 10322, Note_on_c, 8, 60, 0
10, 10442, Note_on_c, 8, 60, 96
10, 10445, Note_on_c, 8, 55, 0
10, 10560, Note_on_c, 8, 55, 64
10, 10565, Note_on_c, 8, 59, 80
10, 10567, Note_on_c, 8, 60, 0
10, 10570, Note_on_c, 8, 62, 84
10, 10572, Note_on_c, 8, 48, 0
10, 10577, Note_on_c, 8, 63, 0
10, 10805, Note_on_c, 8, 58, 84
10, 10812, Note_on_c, 8, 59, 0
10, 10922, Note_on_c, 8, 67, 104
10, 10927, Note_on_c, 8, 62, 0
10, 11032, Note_on_c, 8, 55, 0
10, 11037, Note_on_c, 8, 66, 76
10, 11040, Note_on_c, 8, 50, 100
10, 11042, Note_on_c, 8, 67, 0
10, 11042, Note_on_c, 8, 57, 88
10, 11045, Note_on_c, 8, 58, 0
10, 11292, Note_on_c, 8, 66, 0
10, 11295, Note_on_c, 8, 62, 64
10, 11412, Note_on_c, 8, 62, 0
10, 11412, Note_on_c, 8, 62, 100
10, 11415, Note_on_c, 8, 57, 0
10, 11520, Note_on_c, 8, 57, 80
10, 11530, Note_on_c, 8, 50, 0
10, 11532, Note_on_c, 8, 61, 88
10, 11537, Note_on_c, 8, 62, 0
10, 11660, Note_on_c, 8, 64, 88
10, 11770, Note_on_c, 8, 60, 96
10, 11772, Note_on_c, 8, 61, 0
10, 11877, Note_on_c, 8, 69, 80
10, 11882, Note_on_c, 8, 64, 0
10, 12000, Note_on_c, 8, 57, 0
10, 12000, Note_on_c, 8, 52, 88
10, 12000, Note_on_c, 8, 68, 60
10, 12005, Note_on_c, 8, 59, 112
10, 12007, Note_on_c, 8, 60, 0
10, 12007, Note_on_c, 8, 69, 0
10, 12247, Note_on_c, 8, 64, 76
10, 12250, Note_on_c, 8, 68, 0
10, 12360, Note_on_c, 8, 64, 0
10, 12360, Note_on_c, 8, 64, 100
10, 12365, Note_on_c, 8, 59, 0
10, 12480, Note_on_c, 8, 57, 52
10, 12485, Note_on_c, 8, 52, 0
10, 12485, Note_on_c, 8, 65, 88
10, 12720, Note_on_c, 8, 59, 76
10, 12720, Note_on_c, 8, 62, 104
10, 12725, Note_on_c, 8, 57, 0
10, 12727, Note_on_c, 8, 64, 0
10, 12832, Note_on_c, 8, 67, 100
10, 12837, Note_on_c, 8, 65, 0
10, 12952, Note_on_c, 8, 59, 0
10, 12957, Note_on_c, 8, 64, 88
10, 12960, Note_on_c, 8, 67, 0
10, 12960, Note_on_c, 8, 60, 76
10, 13192, Note_on_c, 8, 60, 0
10, 13192, Note_on_c, 8, 60, 112
10, 13200, Note_on_c, 8, 62, 0
10, 13200, Note_on_c, 8, 52, 64
10, 13327, Note_on_c, 8, 65, 60
10, 13330, Note_on_c, 8, 64, 0
10, 13440, Note_on_c, 8, 65, 0
10, 13440, Note_on_c, 8, 54, 76
10, 13442, Note_on_c, 8, 62, 60
10, 13452, Note_on_c, 8, 52, 0
10, 13680, Note_on_c, 8, 56, 72
10, 13682, Note_on_c, 8, 59, 96
10, 13685, Note_on_c, 8, 60, 0
10, 13690, Note_on_c, 8, 54, 0
10, 13807, Note_on_c, 8, 64, 68
10, 13810, Note_on_c, 8, 62, 0
10, 13920, Note_on_c, 8, 57, 64
10, 13927, Note_on_c, 8, 57, 0
10, 13927, Note_on_c, 8, 59, 0
10, 13927, Note_on_c, 8, 57, 104
10, 13930, Note_on_c, 8, 60, 88
10, 13932, Note_on_c, 8, 56, 0
10, 13932, Note_on_c, 8, 64, 0
10, 14160, Note_on_c, 8, 55, 96
10, 14167, Note_on_c, 8, 58, 112
10, 14167, Note_on_c, 8, 61, 68
10, 14172, Note_on_c, 8, 60, 0
10, 14177, Note_on_c, 8, 57, 0
10, 14392, Note_on_c, 8, 55, 0
10, 14395, Note_on_c, 8, 61, 0
10, 14397, Note_on_c, 8, 62, 64
10, 14400, Note_on_c, 8, 54, 92
10, 14402, Note_on_c, 8, 58, 0
10, 14402, Note_on_c, 8, 57, 112
10, 14622, Note_on_c, 8, 57, 0
10, 14627, Note_on_c, 8, 62, 0
10, 14640, Note_on_c, 8, 57, 116
10, 14647, Note_on_c, 8, 62, 80
10, 14830, Note_on_c, 8, 59, 108
10, 14835, Note_on_c, 8, 57, 0
10, 14880, Note_on_c, 8, 53, 68
10, 14887, Note_on_c, 8, 60, 112
10, 14890, Note_on_c, 8, 63, 92
10, 14892, Note_on_c, 8, 54, 0
10, 14895, Note_on_c, 8, 59, 0
10, 14897, Note_on_c, 8, 62, 0
10, 15130, Note_on_c, 8, 59, 112
10, 15137, Note_on_c, 8, 60, 0
10, 15305, Note_on_c, 8, 59, 0
10, 15305, Note_on_c, 8, 57, 92
10, 15360, Note_on_c, 8, 52, 52
10, 15367, Note_on_c, 8, 57, 0
10, 15367, Note_on_c, 8, 64, 64
10, 15367, Note_on_c, 8, 56, 36
10, 15370, Note_on_c, 8, 53, 0
10, 15380, Note_on_c, 8, 63, 0
10, 15497, Note_on_c, 8, 52, 0
10, 15615, Note_on_c, 8, 56, 0
10, 15617, Note_on_c, 8, 64, 0
10, 24012, Note_on_c, 8, 57, 52
10, 24012, Note_on_c, 8, 64, 44
10, 24015, Note_on_c, 8, 60, 80
10, 24957, Note_on_c, 8, 60, 0
10, 24957, Note_on_c, 8, 64, 0
10, 24962, Note_on_c, 8, 57, 0
10, 24962, Note_on_c, 8, 66, 76
10, 24962, Note_on_c, 8, 60, 68
10, 24962, Note_on_c, 8, 51, 108
10, 25887, Note_on_c, 8, 51, 0
10, 25922, Note_on_c, 8, 67, 60
10, 25922, Note_on_c, 8, 51, 108
10, 25922, Note_on_c, 8, 58, 96
10, 25930, Note_on_c, 8, 60, 0
10, 25932, Note_on_c, 8, 66, 0
10, 26850, Note_on_c, 8, 51, 0
10, 26877, Note_on_c, 8, 58, 0
10, 26882, Note_on_c, 8, 59, 100
10, 26882, Note_on_c, 8, 51, 76
10, 27002, Note_on_c, 8, 68, 68
10, 27007, Note_on_c, 8, 67, 0
10, 27352, Note_on_c, 8, 59, 0
10, 27362, Note_on_c, 8, 58, 100
10, 27602, Note_on_c, 8, 67, 80
10, 27610, Note_on_c, 8, 68, 0
10, 27830, Note_on_c, 8, 51, 0
10, 27842, Note_on_c, 8, 68, 56
10, 27842, Note_on_c, 8, 44, 88
10, 27842, Note_on_c, 8, 56, 108
10, 27847, Note_on_c, 8, 67, 0
10, 27877, Note_on_c, 8, 58, 0
10, 28797, Note_on_c, 8, 56, 0
10, 28802, Note_on_c, 8, 65, 76
10, 28802, Note_on_c, 8, 59, 80
10, 28802, Note_on_c, 8, 50, 108
10, 28805, Note_on_c, 8, 68, 0
10, 28810, Note_on_c, 8, 44, 0
10, 29730, Note_on_c, 8, 50, 0
10, 29762, Note_on_c, 8, 66, 52
10, 29762, Note_on_c, 8, 60, 100
10, 29762, Note_on_c, 8, 50, 64
10, 29765, Note_on_c, 8, 59, 0
10, 29775, Note_on_c, 8, 65, 0
10, 30685, Note_on_c, 8, 50, 0
10, 30722, Note_on_c, 8, 58, 92
10, 30722, Note_on_c, 8, 50, 80
10, 30730, Note_on_c, 8, 60, 0
10, 30842, Note_on_c, 8, 67, 88
10, 30845, Note_on_c, 8, 66, 0
10, 31195, Note_on_c, 8, 58, 0
10, 31202, Note_on_c, 8, 57, 84
10, 31442, Note_on_c, 8, 67, 0
10, 31442, Note_on_c, 8, 66, 72
10, 31675, Note_on_c, 8, 50, 0
10, 31682, Note_on_c, 8, 55, 92
10, 31682, Note_on_c, 8, 43, 100
10, 31682, Note_on_c, 8, 67, 68
10, 31685, Note_on_c, 8, 66, 0
10, 31685, Note_on_c, 8, 57, 0
10, 32642, Note_on_c, 8, 43, 0
10, 32642, Note_on_c, 8, 64, 116
10, 32642, Note_on_c, 8, 58, 120
10, 32642, Note_on_c, 8, 49, 124
10, 32652, Note_on_c, 8, 55, 0
10, 32657, Note_on_c, 8, 67, 0
10, 33565, Note_on_c, 8, 49, 0
10, 33602, Note_on_c, 8, 49, 104
10, 33602, Note_on_c, 8, 50, 96
10, 33602, Note_on_c, 8, 61, 112
10, 33602, Note_on_c, 8, 65, 108
10, 33615, Note_on_c, 8, 64, 0
10, 33617, Note_on_c, 8, 58, 0
10, 33622, Note_on_c, 8, 50, 0
10, 34080, Note_on_c, 8, 65, 0
10, 34082, Note_on_c, 8, 66, 108
10, 34082, Note_on_c, 8, 57, 84
10, 34095, Note_on_c, 8, 61, 0
10, 34525, Note_on_c, 8, 57, 0
10, 34555, Note_on_c, 8, 49, 0
10, 34562, Note_on_c, 8, 63, 92
10, 34562, Note_on_c, 8, 48, 112
10, 34562, Note_on_c, 8, 57, 120
10, 34575, Note_on_c, 8, 66, 0
10, 35480, Note_on_c, 8, 48, 0
10, 35517, Note_on_c, 8, 57, 0
10, 35522, Note_on_c, 8, 48, 116
10, 35522, Note_on_c, 8, 58, 116
10, 35522, Note_on_c, 8, 64, 116
10, 35545, Note_on_c, 8, 63, 0
10, 35990, Note_on_c, 8, 64, 0
10, 36002, Note_on_c, 8, 56, 116
10, 36002, Note_on_c, 8, 65, 108
10, 36010, Note_on_c, 8, 58, 0
10, 36417, Note_on_c, 8, 48, 0
10, 36445, Note_on_c, 8, 65, 0
10, 36482, Note_on_c, 8, 48, 124
10, 36482, Note_on_c, 8, 65, 104
10, 36482, Note_on_c, 8, 55, 112
10, 36505, Note_on_c, 8, 56, 0
10, 36962, Note_on_c, 8, 64, 120
10, 36985, Note_on_c, 8, 65, 0
10, 37427, Note_on_c, 8, 55, 0
10, 37442, Note_on_c, 8, 65, 96
10, 37442, Note_on_c, 8, 57, 124
10, 37442, Note_on_c, 8, 41, 124
10, 37445, Note_on_c, 8, 48, 0
10, 37450, Note_on_c, 8, 64, 0
10, 38647, Note_on_c, 8, 65, 0
10, 38655, Note_on_c, 8, 57, 0
10, 38667, Note_on_c, 8, 41, 0
10, 38667, End_track
11, 0, Start_track
11, 0, MIDI_port, 0
11, 0, Title_t, "Tympani"
11, 0, Program_c, 10, 47
11, 0, Control_c, 10, 7, 127
11, 0, Control_c, 10, 10, 60
11, 500, Control_c, 10, 91, 90
11, 960, Note_on_c, 10, 45, 124
11, 1130, Note_on_c, 10, 45, 0
11, 1440, Note_on_c, 10, 45, 124
11, 1582, Note_on_c, 10, 45, 0
11, 1920, Note_on_c, 10, 50, 112
11, 2032, Note_on_c, 10, 50, 0
11, 2400, Note_on_c, 10, 50, 124
11, 2487, Note_on_c, 10, 50, 0
11, 2880, Note_on_c, 10, 45, 124
11, 2970, Note_on_c, 10, 45, 0
11, 3360, Note_on_c, 10, 45, 116
11, 3420, Note_on_c, 10, 45, 0
11, 3840, Note_on_c, 10, 50, 120
11, 3930, Note_on_c, 10, 50, 0
11, 4320, Note_on_c, 10, 50, 120
11, 4387, Note_on_c, 10, 50, 0
11, 5280, Note_on_c, 10, 45, 112
11, 5362, Note_on_c, 10, 45, 0
11, 5387, Control_c, 10, 7, 110
11, 11040, Note_on_c, 10, 50, 124
11, 11085, Note_on_c, 10, 50, 0
11, 11520, Note_on_c, 10, 45, 124
11, 11575, Note_on_c, 10, 45, 0
11, 12480, Note_on_c, 10, 45, 124
11, 12530, Note_on_c, 10, 45, 0
11, 13440, Note_on_c, 10, 50, 124
11, 13452, Note_on_c, 10, 50, 0
11, 13920, Note_on_c, 10, 45, 112
11, 13960, Note_on_c, 10, 45, 0
11, 14400, Note_on_c, 10, 50, 124
11, 14412, Note_on_c, 10, 50, 0
11, 14880, Note_on_c, 10, 45, 124
11, 14895, Note_on_c, 10, 45, 0
11, 14895, End_track
12, 0, Start_track
12, 0, MIDI_port, 0
12, 0, Title_t, "++++++++++++++++++++++++++++++"
12, 0, End_track
13, 0, Start_track
13, 0, MIDI_port, 0
13, 0, Title_t, "Confutatis from:"
13, 0, End_track
14, 0, Start_track
14, 0, MIDI_port, 0
14, 0, Title_t, "Requiem K.626  (1791) by"
14, 0, End_track
15, 0, Start_track
15, 0, MIDI_port, 0
15, 0, Title_t, "Wolfgang Amadeus Mozart"
15, 0, End_track
16, 0, Start_track
16, 0, MIDI_port, 0
16, 0, Title_t, "Sequenced by"
16, 0, End_track
17, 0, Start_track
17, 0, MIDI_port, 0
17, 0, Title_t, "Lou Mondanaro (1998)"
17, 0, End_track
18, 0, Start_track
18, 0, MIDI_port, 0
18, 0, Title_t, "soniqman@aol.com"
18, 0, End_track
0, 0, End_of_file
