0, 0, Header, 1, 13, 120
1, 0, Start_track
1, 0, Time_signature, 2, 1, 48, 8
1, 0, Key_signature, 0, "major"
1, 0, Tempo, 750000
1, 0, Marker_t, "Cosi fan Tutte  K588 (Overture)"
1, 0, Marker_t, "By Mozart"
1, 0, Marker_t, "Midi  by Andrew Silverman, Rev Aug 1997   Enviro@measure.demon.co.uk"
1, 0, Marker_t, "Generated by NoteWorthy Composer"
1, 6720, Tempo, 250000
1, 108960, Tempo, 279069
1, 115200, Tempo, 250000
1, 115200, End_track
2, 0, Start_track
2, 0, MIDI_port, 0
2, 0, Title_t, "Flutes"
2, 0, Program_c, 0, 73
2, 0, Control_c, 0, 7, 127
2, 0, Control_c, 0, 10, 16
2, 0, Note_on_c, 0, 79, 92
2, 0, Note_on_c, 0, 84, 92
2, 100, Note_on_c, 0, 84, 0
2, 100, Note_on_c, 0, 79, 0
2, 210, Note_on_c, 0, 72, 92
2, 238, Note_on_c, 0, 72, 0
2, 240, Note_on_c, 0, 72, 92
2, 340, Note_on_c, 0, 72, 0
2, 1890, Note_on_c, 0, 83, 92
2, 1890, Note_on_c, 0, 86, 92
2, 1918, Note_on_c, 0, 86, 0
2, 1918, Note_on_c, 0, 83, 0
2, 1920, Note_on_c, 0, 83, 92
2, 1920, Note_on_c, 0, 86, 92
2, 2020, Note_on_c, 0, 86, 0
2, 2020, Note_on_c, 0, 83, 0
2, 2130, Note_on_c, 0, 79, 92
2, 2158, Note_on_c, 0, 79, 0
2, 2160, Note_on_c, 0, 79, 92
2, 2260, Note_on_c, 0, 79, 0
2, 5520, Note_on_c, 0, 84, 92
2, 5520, Note_on_c, 0, 88, 92
2, 5760, Note_on_c, 0, 88, 0
2, 5760, Note_on_c, 0, 89, 92
2, 6000, Note_on_c, 0, 89, 0
2, 6000, Note_on_c, 0, 93, 92
2, 6240, Note_on_c, 0, 93, 0
2, 6240, Note_on_c, 0, 86, 92
2, 6480, Note_on_c, 0, 86, 0
2, 6480, Note_on_c, 0, 84, 0
2, 6480, Note_on_c, 0, 83, 92
2, 6480, Note_on_c, 0, 91, 92
2, 6580, Note_on_c, 0, 91, 0
2, 6690, Note_on_c, 0, 83, 0
2, 6720, Note_on_c, 0, 84, 92
2, 6720, Note_on_c, 0, 88, 92
2, 6820, Note_on_c, 0, 88, 0
2, 6820, Note_on_c, 0, 84, 0
2, 11520, Note_on_c, 0, 84, 92
2, 11620, Note_on_c, 0, 84, 0
2, 11640, Note_on_c, 0, 84, 92
2, 11850, Note_on_c, 0, 84, 0
2, 11880, Note_on_c, 0, 84, 92
2, 11980, Note_on_c, 0, 84, 0
2, 12000, Note_on_c, 0, 84, 92
2, 12100, Note_on_c, 0, 84, 0
2, 12120, Note_on_c, 0, 84, 92
2, 12220, Note_on_c, 0, 84, 0
2, 12240, Note_on_c, 0, 84, 92
2, 12340, Note_on_c, 0, 84, 0
2, 12360, Note_on_c, 0, 84, 92
2, 12460, Note_on_c, 0, 84, 0
2, 12480, Note_on_c, 0, 84, 92
2, 12580, Note_on_c, 0, 84, 0
2, 12600, Note_on_c, 0, 84, 92
2, 12810, Note_on_c, 0, 84, 0
2, 12840, Note_on_c, 0, 84, 92
2, 12940, Note_on_c, 0, 84, 0
2, 12960, Note_on_c, 0, 84, 92
2, 13060, Note_on_c, 0, 84, 0
2, 13080, Note_on_c, 0, 84, 92
2, 13180, Note_on_c, 0, 84, 0
2, 13200, Note_on_c, 0, 84, 92
2, 13300, Note_on_c, 0, 84, 0
2, 13320, Note_on_c, 0, 84, 92
2, 13420, Note_on_c, 0, 84, 0
2, 13440, Note_on_c, 0, 84, 92
2, 13540, Note_on_c, 0, 84, 0
2, 14400, Note_on_c, 0, 81, 60
2, 14458, Note_on_c, 0, 81, 0
2, 14460, Note_on_c, 0, 84, 60
2, 14518, Note_on_c, 0, 84, 0
2, 14520, Note_on_c, 0, 82, 60
2, 14578, Note_on_c, 0, 82, 0
2, 14580, Note_on_c, 0, 81, 60
2, 14638, Note_on_c, 0, 81, 0
2, 14640, Note_on_c, 0, 79, 60
2, 14698, Note_on_c, 0, 79, 0
2, 14700, Note_on_c, 0, 77, 60
2, 14758, Note_on_c, 0, 77, 0
2, 14760, Note_on_c, 0, 76, 60
2, 14818, Note_on_c, 0, 76, 0
2, 14820, Note_on_c, 0, 77, 60
2, 14878, Note_on_c, 0, 77, 0
2, 14880, Note_on_c, 0, 81, 60
2, 14938, Note_on_c, 0, 81, 0
2, 14940, Note_on_c, 0, 84, 60
2, 14998, Note_on_c, 0, 84, 0
2, 15000, Note_on_c, 0, 82, 60
2, 15058, Note_on_c, 0, 82, 0
2, 15060, Note_on_c, 0, 81, 60
2, 15118, Note_on_c, 0, 81, 0
2, 15120, Note_on_c, 0, 79, 60
2, 15178, Note_on_c, 0, 79, 0
2, 15180, Note_on_c, 0, 77, 60
2, 15238, Note_on_c, 0, 77, 0
2, 15240, Note_on_c, 0, 76, 60
2, 15298, Note_on_c, 0, 76, 0
2, 15300, Note_on_c, 0, 77, 60
2, 15358, Note_on_c, 0, 77, 0
2, 16320, Note_on_c, 0, 79, 60
2, 16378, Note_on_c, 0, 79, 0
2, 16380, Note_on_c, 0, 81, 60
2, 16438, Note_on_c, 0, 81, 0
2, 16440, Note_on_c, 0, 79, 60
2, 16498, Note_on_c, 0, 79, 0
2, 16500, Note_on_c, 0, 81, 60
2, 16558, Note_on_c, 0, 81, 0
2, 16560, Note_on_c, 0, 79, 60
2, 16618, Note_on_c, 0, 79, 0
2, 16620, Note_on_c, 0, 81, 60
2, 16678, Note_on_c, 0, 81, 0
2, 16680, Note_on_c, 0, 79, 60
2, 16738, Note_on_c, 0, 79, 0
2, 16740, Note_on_c, 0, 81, 60
2, 16798, Note_on_c, 0, 81, 0
2, 16800, Note_on_c, 0, 79, 60
2, 16858, Note_on_c, 0, 79, 0
2, 16860, Note_on_c, 0, 81, 60
2, 16918, Note_on_c, 0, 81, 0
2, 16920, Note_on_c, 0, 79, 60
2, 16978, Note_on_c, 0, 79, 0
2, 16980, Note_on_c, 0, 81, 60
2, 17038, Note_on_c, 0, 81, 0
2, 17040, Note_on_c, 0, 79, 60
2, 17098, Note_on_c, 0, 79, 0
2, 17100, Note_on_c, 0, 77, 60
2, 17158, Note_on_c, 0, 77, 0
2, 17160, Note_on_c, 0, 76, 60
2, 17218, Note_on_c, 0, 76, 0
2, 17220, Note_on_c, 0, 74, 60
2, 17278, Note_on_c, 0, 74, 0
2, 17280, Note_on_c, 0, 72, 60
2, 17380, Note_on_c, 0, 72, 0
2, 18240, Note_on_c, 0, 81, 60
2, 18298, Note_on_c, 0, 81, 0
2, 18300, Note_on_c, 0, 84, 60
2, 18358, Note_on_c, 0, 84, 0
2, 18360, Note_on_c, 0, 82, 60
2, 18418, Note_on_c, 0, 82, 0
2, 18420, Note_on_c, 0, 81, 60
2, 18478, Note_on_c, 0, 81, 0
2, 18480, Note_on_c, 0, 79, 60
2, 18538, Note_on_c, 0, 79, 0
2, 18540, Note_on_c, 0, 77, 60
2, 18598, Note_on_c, 0, 77, 0
2, 18600, Note_on_c, 0, 76, 60
2, 18658, Note_on_c, 0, 76, 0
2, 18660, Note_on_c, 0, 77, 60
2, 18718, Note_on_c, 0, 77, 0
2, 18720, Note_on_c, 0, 81, 60
2, 18778, Note_on_c, 0, 81, 0
2, 18780, Note_on_c, 0, 84, 60
2, 18838, Note_on_c, 0, 84, 0
2, 18840, Note_on_c, 0, 82, 60
2, 18898, Note_on_c, 0, 82, 0
2, 18900, Note_on_c, 0, 81, 60
2, 18958, Note_on_c, 0, 81, 0
2, 18960, Note_on_c, 0, 79, 60
2, 19018, Note_on_c, 0, 79, 0
2, 19020, Note_on_c, 0, 77, 60
2, 19078, Note_on_c, 0, 77, 0
2, 19080, Note_on_c, 0, 76, 60
2, 19138, Note_on_c, 0, 76, 0
2, 19140, Note_on_c, 0, 77, 60
2, 19198, Note_on_c, 0, 77, 0
2, 20160, Note_on_c, 0, 79, 60
2, 20218, Note_on_c, 0, 79, 0
2, 20220, Note_on_c, 0, 81, 60
2, 20278, Note_on_c, 0, 81, 0
2, 20280, Note_on_c, 0, 79, 60
2, 20338, Note_on_c, 0, 79, 0
2, 20340, Note_on_c, 0, 81, 60
2, 20398, Note_on_c, 0, 81, 0
2, 20400, Note_on_c, 0, 79, 60
2, 20458, Note_on_c, 0, 79, 0
2, 20460, Note_on_c, 0, 81, 60
2, 20518, Note_on_c, 0, 81, 0
2, 20520, Note_on_c, 0, 79, 60
2, 20578, Note_on_c, 0, 79, 0
2, 20580, Note_on_c, 0, 81, 60
2, 20638, Note_on_c, 0, 81, 0
2, 20640, Note_on_c, 0, 79, 60
2, 20698, Note_on_c, 0, 79, 0
2, 20700, Note_on_c, 0, 81, 60
2, 20758, Note_on_c, 0, 81, 0
2, 20760, Note_on_c, 0, 79, 60
2, 20818, Note_on_c, 0, 79, 0
2, 20820, Note_on_c, 0, 81, 60
2, 20878, Note_on_c, 0, 81, 0
2, 20880, Note_on_c, 0, 79, 60
2, 20938, Note_on_c, 0, 79, 0
2, 20940, Note_on_c, 0, 77, 60
2, 20998, Note_on_c, 0, 77, 0
2, 21000, Note_on_c, 0, 76, 60
2, 21058, Note_on_c, 0, 76, 0
2, 21060, Note_on_c, 0, 74, 60
2, 21118, Note_on_c, 0, 74, 0
2, 21120, Note_on_c, 0, 72, 60
2, 21220, Note_on_c, 0, 72, 0
2, 24960, Note_on_c, 0, 86, 92
2, 25060, Note_on_c, 0, 86, 0
2, 25080, Note_on_c, 0, 86, 92
2, 25290, Note_on_c, 0, 86, 0
2, 25320, Note_on_c, 0, 86, 92
2, 25420, Note_on_c, 0, 86, 0
2, 25440, Note_on_c, 0, 86, 92
2, 25540, Note_on_c, 0, 86, 0
2, 25560, Note_on_c, 0, 86, 92
2, 25660, Note_on_c, 0, 86, 0
2, 25680, Note_on_c, 0, 86, 92
2, 25780, Note_on_c, 0, 86, 0
2, 25800, Note_on_c, 0, 86, 92
2, 25900, Note_on_c, 0, 86, 0
2, 25920, Note_on_c, 0, 86, 92
2, 26020, Note_on_c, 0, 86, 0
2, 26040, Note_on_c, 0, 86, 92
2, 26250, Note_on_c, 0, 86, 0
2, 26280, Note_on_c, 0, 86, 92
2, 26380, Note_on_c, 0, 86, 0
2, 26400, Note_on_c, 0, 86, 92
2, 26500, Note_on_c, 0, 86, 0
2, 26520, Note_on_c, 0, 86, 92
2, 26620, Note_on_c, 0, 86, 0
2, 26640, Note_on_c, 0, 86, 92
2, 26740, Note_on_c, 0, 86, 0
2, 26760, Note_on_c, 0, 86, 92
2, 26860, Note_on_c, 0, 86, 0
2, 26880, Note_on_c, 0, 86, 92
2, 26980, Note_on_c, 0, 86, 0
2, 27000, Note_on_c, 0, 86, 60
2, 27210, Note_on_c, 0, 86, 0
2, 27240, Note_on_c, 0, 86, 60
2, 27460, Note_on_c, 0, 86, 0
2, 27480, Note_on_c, 0, 86, 60
2, 27580, Note_on_c, 0, 86, 0
2, 27600, Note_on_c, 0, 86, 60
2, 27700, Note_on_c, 0, 86, 0
2, 27720, Note_on_c, 0, 86, 60
2, 27840, Note_on_c, 0, 87, 60
2, 27940, Note_on_c, 0, 87, 0
2, 27940, Note_on_c, 0, 86, 0
2, 27960, Note_on_c, 0, 86, 60
2, 27960, Note_on_c, 0, 87, 60
2, 28170, Note_on_c, 0, 87, 0
2, 28170, Note_on_c, 0, 86, 0
2, 28200, Note_on_c, 0, 86, 60
2, 28200, Note_on_c, 0, 87, 60
2, 28300, Note_on_c, 0, 87, 0
2, 28320, Note_on_c, 0, 86, 0
2, 28320, Note_on_c, 0, 84, 60
2, 28320, Note_on_c, 0, 87, 60
2, 28420, Note_on_c, 0, 87, 0
2, 28420, Note_on_c, 0, 84, 0
2, 28440, Note_on_c, 0, 84, 60
2, 28440, Note_on_c, 0, 87, 60
2, 28540, Note_on_c, 0, 87, 0
2, 28540, Note_on_c, 0, 84, 0
2, 28560, Note_on_c, 0, 84, 60
2, 28560, Note_on_c, 0, 87, 60
2, 28660, Note_on_c, 0, 87, 0
2, 28660, Note_on_c, 0, 84, 0
2, 28680, Note_on_c, 0, 84, 60
2, 28680, Note_on_c, 0, 87, 60
2, 28800, Note_on_c, 0, 87, 0
2, 28800, Note_on_c, 0, 86, 60
2, 28900, Note_on_c, 0, 86, 0
2, 28900, Note_on_c, 0, 84, 0
2, 28920, Note_on_c, 0, 84, 60
2, 28920, Note_on_c, 0, 86, 60
2, 29130, Note_on_c, 0, 86, 0
2, 29130, Note_on_c, 0, 84, 0
2, 29160, Note_on_c, 0, 84, 60
2, 29160, Note_on_c, 0, 86, 60
2, 29280, Note_on_c, 0, 84, 0
2, 29280, Note_on_c, 0, 82, 60
2, 29380, Note_on_c, 0, 82, 0
2, 29380, Note_on_c, 0, 86, 0
2, 29400, Note_on_c, 0, 82, 60
2, 29400, Note_on_c, 0, 86, 60
2, 29500, Note_on_c, 0, 86, 0
2, 29500, Note_on_c, 0, 82, 0
2, 29520, Note_on_c, 0, 82, 60
2, 29520, Note_on_c, 0, 86, 60
2, 29620, Note_on_c, 0, 86, 0
2, 29620, Note_on_c, 0, 82, 0
2, 29640, Note_on_c, 0, 82, 60
2, 29640, Note_on_c, 0, 86, 60
2, 29760, Note_on_c, 0, 86, 0
2, 29760, Note_on_c, 0, 84, 60
2, 29860, Note_on_c, 0, 84, 0
2, 29860, Note_on_c, 0, 82, 0
2, 29880, Note_on_c, 0, 82, 60
2, 29880, Note_on_c, 0, 84, 60
2, 30090, Note_on_c, 0, 84, 0
2, 30090, Note_on_c, 0, 82, 0
2, 30120, Note_on_c, 0, 82, 60
2, 30120, Note_on_c, 0, 84, 60
2, 30240, Note_on_c, 0, 82, 0
2, 30240, Note_on_c, 0, 81, 60
2, 30340, Note_on_c, 0, 81, 0
2, 30340, Note_on_c, 0, 84, 0
2, 30360, Note_on_c, 0, 81, 60
2, 30360, Note_on_c, 0, 84, 60
2, 30460, Note_on_c, 0, 84, 0
2, 30460, Note_on_c, 0, 81, 0
2, 30480, Note_on_c, 0, 81, 60
2, 30480, Note_on_c, 0, 84, 60
2, 30580, Note_on_c, 0, 84, 0
2, 30580, Note_on_c, 0, 81, 0
2, 30600, Note_on_c, 0, 81, 60
2, 30600, Note_on_c, 0, 84, 60
2, 30700, Note_on_c, 0, 84, 0
2, 30700, Note_on_c, 0, 81, 0
2, 30720, Note_on_c, 0, 79, 60
2, 30720, Note_on_c, 0, 83, 60
2, 30820, Note_on_c, 0, 83, 0
2, 30820, Note_on_c, 0, 79, 0
2, 30840, Note_on_c, 0, 83, 92
2, 30840, Note_on_c, 0, 86, 92
2, 31050, Note_on_c, 0, 86, 0
2, 31050, Note_on_c, 0, 83, 0
2, 31080, Note_on_c, 0, 82, 92
2, 31080, Note_on_c, 0, 86, 92
2, 31180, Note_on_c, 0, 86, 0
2, 31180, Note_on_c, 0, 82, 0
2, 31200, Note_on_c, 0, 83, 92
2, 31200, Note_on_c, 0, 86, 92
2, 31300, Note_on_c, 0, 86, 0
2, 31300, Note_on_c, 0, 83, 0
2, 31320, Note_on_c, 0, 82, 92
2, 31320, Note_on_c, 0, 86, 92
2, 31420, Note_on_c, 0, 86, 0
2, 31420, Note_on_c, 0, 82, 0
2, 31440, Note_on_c, 0, 83, 92
2, 31440, Note_on_c, 0, 86, 92
2, 31540, Note_on_c, 0, 86, 0
2, 31540, Note_on_c, 0, 83, 0
2, 31560, Note_on_c, 0, 83, 92
2, 31560, Note_on_c, 0, 90, 92
2, 31660, Note_on_c, 0, 90, 0
2, 31660, Note_on_c, 0, 83, 0
2, 31680, Note_on_c, 0, 83, 92
2, 31680, Note_on_c, 0, 91, 92
2, 31780, Note_on_c, 0, 91, 0
2, 31780, Note_on_c, 0, 83, 0
2, 31800, Note_on_c, 0, 83, 92
2, 31800, Note_on_c, 0, 91, 92
2, 32010, Note_on_c, 0, 91, 0
2, 32010, Note_on_c, 0, 83, 0
2, 32040, Note_on_c, 0, 83, 92
2, 32040, Note_on_c, 0, 90, 92
2, 32140, Note_on_c, 0, 90, 0
2, 32140, Note_on_c, 0, 83, 0
2, 32160, Note_on_c, 0, 83, 92
2, 32160, Note_on_c, 0, 91, 92
2, 32260, Note_on_c, 0, 91, 0
2, 32260, Note_on_c, 0, 83, 0
2, 32280, Note_on_c, 0, 83, 92
2, 32280, Note_on_c, 0, 90, 92
2, 32380, Note_on_c, 0, 90, 0
2, 32380, Note_on_c, 0, 83, 0
2, 32400, Note_on_c, 0, 83, 92
2, 32400, Note_on_c, 0, 91, 92
2, 32500, Note_on_c, 0, 91, 0
2, 32500, Note_on_c, 0, 83, 0
2, 32520, Note_on_c, 0, 87, 92
2, 32520, Note_on_c, 0, 91, 92
2, 32620, Note_on_c, 0, 91, 0
2, 32620, Note_on_c, 0, 87, 0
2, 32640, Note_on_c, 0, 88, 92
2, 32640, Note_on_c, 0, 91, 92
2, 32740, Note_on_c, 0, 91, 0
2, 32740, Note_on_c, 0, 88, 0
2, 32760, Note_on_c, 0, 88, 92
2, 32760, Note_on_c, 0, 91, 92
2, 32970, Note_on_c, 0, 91, 0
2, 32970, Note_on_c, 0, 88, 0
2, 33000, Note_on_c, 0, 87, 92
2, 33000, Note_on_c, 0, 91, 92
2, 33100, Note_on_c, 0, 91, 0
2, 33100, Note_on_c, 0, 87, 0
2, 33120, Note_on_c, 0, 88, 92
2, 33120, Note_on_c, 0, 91, 92
2, 33220, Note_on_c, 0, 91, 0
2, 33220, Note_on_c, 0, 88, 0
2, 33240, Note_on_c, 0, 87, 92
2, 33240, Note_on_c, 0, 91, 92
2, 33340, Note_on_c, 0, 91, 0
2, 33340, Note_on_c, 0, 87, 0
2, 33360, Note_on_c, 0, 88, 92
2, 33360, Note_on_c, 0, 91, 92
2, 33460, Note_on_c, 0, 91, 0
2, 33460, Note_on_c, 0, 88, 0
2, 33480, Note_on_c, 0, 83, 92
2, 33480, Note_on_c, 0, 89, 92
2, 33580, Note_on_c, 0, 89, 0
2, 33580, Note_on_c, 0, 83, 0
2, 33600, Note_on_c, 0, 84, 92
2, 33600, Note_on_c, 0, 88, 92
2, 33720, Note_on_c, 0, 84, 0
2, 33720, Note_on_c, 0, 86, 92
2, 33840, Note_on_c, 0, 86, 0
2, 33840, Note_on_c, 0, 84, 92
2, 33960, Note_on_c, 0, 84, 0
2, 33960, Note_on_c, 0, 82, 92
2, 34050, Note_on_c, 0, 88, 0
2, 34060, Note_on_c, 0, 82, 0
2, 34080, Note_on_c, 0, 81, 92
2, 34080, Note_on_c, 0, 86, 92
2, 34180, Note_on_c, 0, 86, 0
2, 34180, Note_on_c, 0, 81, 0
2, 34200, Note_on_c, 0, 78, 92
2, 34200, Note_on_c, 0, 83, 92
2, 34300, Note_on_c, 0, 83, 0
2, 34300, Note_on_c, 0, 78, 0
2, 34320, Note_on_c, 0, 79, 92
2, 34320, Note_on_c, 0, 84, 92
2, 34420, Note_on_c, 0, 84, 0
2, 34420, Note_on_c, 0, 79, 0
2, 34440, Note_on_c, 0, 74, 92
2, 34440, Note_on_c, 0, 81, 92
2, 34540, Note_on_c, 0, 81, 0
2, 34540, Note_on_c, 0, 74, 0
2, 34560, Note_on_c, 0, 83, 92
2, 34560, Note_on_c, 0, 91, 92
2, 35490, Note_on_c, 0, 83, 0
2, 35520, Note_on_c, 0, 81, 92
2, 35760, Note_on_c, 0, 91, 0
2, 35760, Note_on_c, 0, 90, 92
2, 35880, Note_on_c, 0, 90, 0
2, 35880, Note_on_c, 0, 86, 92
2, 35970, Note_on_c, 0, 81, 0
2, 35980, Note_on_c, 0, 86, 0
2, 36000, Note_on_c, 0, 83, 92
2, 36000, Note_on_c, 0, 91, 92
2, 36930, Note_on_c, 0, 83, 0
2, 36960, Note_on_c, 0, 81, 92
2, 37170, Note_on_c, 0, 91, 0
2, 37200, Note_on_c, 0, 90, 92
2, 37410, Note_on_c, 0, 90, 0
2, 37410, Note_on_c, 0, 81, 0
2, 37440, Note_on_c, 0, 79, 92
2, 37440, Note_on_c, 0, 91, 92
2, 37540, Note_on_c, 0, 91, 0
2, 37540, Note_on_c, 0, 79, 0
2, 39360, Note_on_c, 0, 83, 60
2, 39420, Note_on_c, 0, 83, 0
2, 39420, Note_on_c, 0, 86, 60
2, 39480, Note_on_c, 0, 86, 0
2, 39480, Note_on_c, 0, 84, 60
2, 39540, Note_on_c, 0, 84, 0
2, 39540, Note_on_c, 0, 83, 60
2, 39600, Note_on_c, 0, 83, 0
2, 39600, Note_on_c, 0, 81, 60
2, 39660, Note_on_c, 0, 81, 0
2, 39660, Note_on_c, 0, 79, 60
2, 39720, Note_on_c, 0, 79, 0
2, 39720, Note_on_c, 0, 78, 60
2, 39780, Note_on_c, 0, 78, 0
2, 39780, Note_on_c, 0, 79, 60
2, 39838, Note_on_c, 0, 79, 0
2, 39840, Note_on_c, 0, 83, 60
2, 39900, Note_on_c, 0, 83, 0
2, 39900, Note_on_c, 0, 86, 60
2, 39960, Note_on_c, 0, 86, 0
2, 39960, Note_on_c, 0, 84, 60
2, 40020, Note_on_c, 0, 84, 0
2, 40020, Note_on_c, 0, 83, 60
2, 40080, Note_on_c, 0, 83, 0
2, 40080, Note_on_c, 0, 81, 60
2, 40140, Note_on_c, 0, 81, 0
2, 40140, Note_on_c, 0, 79, 60
2, 40200, Note_on_c, 0, 79, 0
2, 40200, Note_on_c, 0, 78, 60
2, 40260, Note_on_c, 0, 78, 0
2, 40260, Note_on_c, 0, 79, 60
2, 40318, Note_on_c, 0, 79, 0
2, 40320, Note_on_c, 0, 78, 60
2, 40320, Note_on_c, 0, 81, 60
2, 40560, Note_on_c, 0, 81, 0
2, 40560, Note_on_c, 0, 78, 0
2, 40560, Note_on_c, 0, 79, 60
2, 40560, Note_on_c, 0, 83, 60
2, 40800, Note_on_c, 0, 83, 0
2, 40800, Note_on_c, 0, 79, 0
2, 40800, Note_on_c, 0, 81, 60
2, 40800, Note_on_c, 0, 84, 60
2, 41040, Note_on_c, 0, 84, 0
2, 41040, Note_on_c, 0, 81, 0
2, 41040, Note_on_c, 0, 78, 60
2, 41040, Note_on_c, 0, 81, 60
2, 41250, Note_on_c, 0, 81, 0
2, 41250, Note_on_c, 0, 78, 0
2, 41280, Note_on_c, 0, 79, 60
2, 41380, Note_on_c, 0, 79, 0
2, 43200, Note_on_c, 0, 83, 60
2, 43260, Note_on_c, 0, 83, 0
2, 43260, Note_on_c, 0, 86, 60
2, 43320, Note_on_c, 0, 86, 0
2, 43320, Note_on_c, 0, 84, 60
2, 43380, Note_on_c, 0, 84, 0
2, 43380, Note_on_c, 0, 83, 60
2, 43440, Note_on_c, 0, 83, 0
2, 43440, Note_on_c, 0, 81, 60
2, 43500, Note_on_c, 0, 81, 0
2, 43500, Note_on_c, 0, 79, 60
2, 43560, Note_on_c, 0, 79, 0
2, 43560, Note_on_c, 0, 78, 60
2, 43620, Note_on_c, 0, 78, 0
2, 43620, Note_on_c, 0, 79, 60
2, 43678, Note_on_c, 0, 79, 0
2, 43680, Note_on_c, 0, 83, 60
2, 43740, Note_on_c, 0, 83, 0
2, 43740, Note_on_c, 0, 86, 60
2, 43800, Note_on_c, 0, 86, 0
2, 43800, Note_on_c, 0, 84, 60
2, 43860, Note_on_c, 0, 84, 0
2, 43860, Note_on_c, 0, 83, 60
2, 43920, Note_on_c, 0, 83, 0
2, 43920, Note_on_c, 0, 81, 60
2, 43980, Note_on_c, 0, 81, 0
2, 43980, Note_on_c, 0, 79, 60
2, 44040, Note_on_c, 0, 79, 0
2, 44040, Note_on_c, 0, 78, 60
2, 44100, Note_on_c, 0, 78, 0
2, 44100, Note_on_c, 0, 79, 60
2, 44158, Note_on_c, 0, 79, 0
2, 44160, Note_on_c, 0, 78, 60
2, 44160, Note_on_c, 0, 81, 60
2, 44400, Note_on_c, 0, 81, 0
2, 44400, Note_on_c, 0, 78, 0
2, 44400, Note_on_c, 0, 79, 60
2, 44400, Note_on_c, 0, 83, 60
2, 44640, Note_on_c, 0, 83, 0
2, 44640, Note_on_c, 0, 79, 0
2, 44640, Note_on_c, 0, 81, 60
2, 44640, Note_on_c, 0, 84, 60
2, 44880, Note_on_c, 0, 84, 0
2, 44880, Note_on_c, 0, 81, 0
2, 44880, Note_on_c, 0, 78, 60
2, 44880, Note_on_c, 0, 81, 60
2, 45090, Note_on_c, 0, 81, 0
2, 45090, Note_on_c, 0, 78, 0
2, 45120, Note_on_c, 0, 79, 60
2, 45220, Note_on_c, 0, 79, 0
2, 48000, Note_on_c, 0, 88, 92
2, 48100, Note_on_c, 0, 88, 0
2, 48120, Note_on_c, 0, 88, 92
2, 48330, Note_on_c, 0, 88, 0
2, 48360, Note_on_c, 0, 88, 92
2, 48460, Note_on_c, 0, 88, 0
2, 48480, Note_on_c, 0, 88, 92
2, 48580, Note_on_c, 0, 88, 0
2, 48600, Note_on_c, 0, 88, 92
2, 48700, Note_on_c, 0, 88, 0
2, 48720, Note_on_c, 0, 88, 92
2, 48820, Note_on_c, 0, 88, 0
2, 48840, Note_on_c, 0, 88, 92
2, 48940, Note_on_c, 0, 88, 0
2, 48960, Note_on_c, 0, 88, 92
2, 49060, Note_on_c, 0, 88, 0
2, 49080, Note_on_c, 0, 88, 92
2, 49290, Note_on_c, 0, 88, 0
2, 49320, Note_on_c, 0, 88, 92
2, 49420, Note_on_c, 0, 88, 0
2, 49440, Note_on_c, 0, 88, 92
2, 49540, Note_on_c, 0, 88, 0
2, 49560, Note_on_c, 0, 88, 92
2, 49660, Note_on_c, 0, 88, 0
2, 49680, Note_on_c, 0, 88, 92
2, 49780, Note_on_c, 0, 88, 0
2, 49800, Note_on_c, 0, 88, 92
2, 49900, Note_on_c, 0, 88, 0
2, 49920, Note_on_c, 0, 88, 92
2, 50020, Note_on_c, 0, 88, 0
2, 50880, Note_on_c, 0, 81, 60
2, 50940, Note_on_c, 0, 81, 0
2, 50940, Note_on_c, 0, 83, 60
2, 51000, Note_on_c, 0, 83, 0
2, 51000, Note_on_c, 0, 84, 60
2, 51060, Note_on_c, 0, 84, 0
2, 51060, Note_on_c, 0, 83, 60
2, 51120, Note_on_c, 0, 83, 0
2, 51120, Note_on_c, 0, 81, 60
2, 51220, Note_on_c, 0, 81, 0
2, 51360, Note_on_c, 0, 83, 60
2, 51420, Note_on_c, 0, 83, 0
2, 51420, Note_on_c, 0, 84, 60
2, 51480, Note_on_c, 0, 84, 0
2, 51480, Note_on_c, 0, 86, 60
2, 51540, Note_on_c, 0, 86, 0
2, 51540, Note_on_c, 0, 84, 60
2, 51600, Note_on_c, 0, 84, 0
2, 51600, Note_on_c, 0, 83, 60
2, 51660, Note_on_c, 0, 83, 0
2, 51660, Note_on_c, 0, 84, 60
2, 51720, Note_on_c, 0, 84, 0
2, 51720, Note_on_c, 0, 83, 60
2, 51780, Note_on_c, 0, 83, 0
2, 51780, Note_on_c, 0, 81, 60
2, 51840, Note_on_c, 0, 81, 0
2, 51840, Note_on_c, 0, 80, 60
2, 51900, Note_on_c, 0, 80, 0
2, 51900, Note_on_c, 0, 81, 60
2, 51960, Note_on_c, 0, 81, 0
2, 51960, Note_on_c, 0, 83, 60
2, 52020, Note_on_c, 0, 83, 0
2, 52020, Note_on_c, 0, 81, 60
2, 52080, Note_on_c, 0, 81, 0
2, 52080, Note_on_c, 0, 80, 60
2, 52180, Note_on_c, 0, 80, 0
2, 52320, Note_on_c, 0, 81, 60
2, 52380, Note_on_c, 0, 81, 0
2, 52380, Note_on_c, 0, 83, 60
2, 52440, Note_on_c, 0, 83, 0
2, 52440, Note_on_c, 0, 84, 60
2, 52500, Note_on_c, 0, 84, 0
2, 52500, Note_on_c, 0, 83, 60
2, 52560, Note_on_c, 0, 83, 0
2, 52560, Note_on_c, 0, 81, 60
2, 52620, Note_on_c, 0, 81, 0
2, 52620, Note_on_c, 0, 83, 60
2, 52680, Note_on_c, 0, 83, 0
2, 52680, Note_on_c, 0, 81, 60
2, 52740, Note_on_c, 0, 81, 0
2, 52740, Note_on_c, 0, 79, 60
2, 52800, Note_on_c, 0, 79, 0
2, 52800, Note_on_c, 0, 78, 60
2, 52860, Note_on_c, 0, 78, 0
2, 52860, Note_on_c, 0, 80, 60
2, 52920, Note_on_c, 0, 80, 0
2, 52920, Note_on_c, 0, 81, 60
2, 52980, Note_on_c, 0, 81, 0
2, 52980, Note_on_c, 0, 80, 60
2, 53040, Note_on_c, 0, 80, 0
2, 53040, Note_on_c, 0, 78, 60
2, 53140, Note_on_c, 0, 78, 0
2, 53280, Note_on_c, 0, 80, 60
2, 53340, Note_on_c, 0, 80, 0
2, 53340, Note_on_c, 0, 81, 60
2, 53400, Note_on_c, 0, 81, 0
2, 53400, Note_on_c, 0, 83, 60
2, 53460, Note_on_c, 0, 83, 0
2, 53460, Note_on_c, 0, 81, 60
2, 53520, Note_on_c, 0, 81, 0
2, 53520, Note_on_c, 0, 80, 60
2, 53580, Note_on_c, 0, 80, 0
2, 53580, Note_on_c, 0, 76, 60
2, 53640, Note_on_c, 0, 76, 0
2, 53640, Note_on_c, 0, 78, 60
2, 53700, Note_on_c, 0, 78, 0
2, 53700, Note_on_c, 0, 80, 60
2, 53758, Note_on_c, 0, 80, 0
2, 53760, Note_on_c, 0, 81, 92
2, 53860, Note_on_c, 0, 81, 0
2, 53880, Note_on_c, 0, 85, 92
2, 53880, Note_on_c, 0, 88, 92
2, 54090, Note_on_c, 0, 88, 0
2, 54090, Note_on_c, 0, 85, 0
2, 54120, Note_on_c, 0, 86, 92
2, 54120, Note_on_c, 0, 89, 92
2, 54220, Note_on_c, 0, 89, 0
2, 54220, Note_on_c, 0, 86, 0
2, 54240, Note_on_c, 0, 85, 92
2, 54240, Note_on_c, 0, 88, 92
2, 54340, Note_on_c, 0, 88, 0
2, 54340, Note_on_c, 0, 85, 0
2, 54360, Note_on_c, 0, 86, 92
2, 54360, Note_on_c, 0, 89, 92
2, 54460, Note_on_c, 0, 89, 0
2, 54460, Note_on_c, 0, 86, 0
2, 54480, Note_on_c, 0, 85, 92
2, 54480, Note_on_c, 0, 88, 92
2, 54580, Note_on_c, 0, 88, 0
2, 54580, Note_on_c, 0, 85, 0
2, 54600, Note_on_c, 0, 86, 92
2, 54600, Note_on_c, 0, 89, 92
2, 54700, Note_on_c, 0, 89, 0
2, 54700, Note_on_c, 0, 86, 0
2, 54720, Note_on_c, 0, 85, 92
2, 54720, Note_on_c, 0, 88, 92
2, 54820, Note_on_c, 0, 88, 0
2, 54820, Note_on_c, 0, 85, 0
2, 57600, Note_on_c, 0, 86, 92
2, 57700, Note_on_c, 0, 86, 0
2, 57720, Note_on_c, 0, 86, 92
2, 57930, Note_on_c, 0, 86, 0
2, 57960, Note_on_c, 0, 86, 92
2, 58060, Note_on_c, 0, 86, 0
2, 58080, Note_on_c, 0, 86, 92
2, 58180, Note_on_c, 0, 86, 0
2, 58200, Note_on_c, 0, 86, 92
2, 58300, Note_on_c, 0, 86, 0
2, 58320, Note_on_c, 0, 86, 92
2, 58420, Note_on_c, 0, 86, 0
2, 58440, Note_on_c, 0, 86, 92
2, 58540, Note_on_c, 0, 86, 0
2, 58560, Note_on_c, 0, 86, 92
2, 58660, Note_on_c, 0, 86, 0
2, 62400, Note_on_c, 0, 86, 92
2, 62400, Note_on_c, 0, 91, 92
2, 62500, Note_on_c, 0, 91, 0
2, 62500, Note_on_c, 0, 86, 0
2, 62520, Note_on_c, 0, 86, 92
2, 62520, Note_on_c, 0, 91, 92
2, 62730, Note_on_c, 0, 91, 0
2, 62730, Note_on_c, 0, 86, 0
2, 62760, Note_on_c, 0, 87, 92
2, 62760, Note_on_c, 0, 91, 92
2, 62860, Note_on_c, 0, 91, 0
2, 62860, Note_on_c, 0, 87, 0
2, 62880, Note_on_c, 0, 86, 92
2, 62880, Note_on_c, 0, 91, 92
2, 62980, Note_on_c, 0, 91, 0
2, 62980, Note_on_c, 0, 86, 0
2, 63000, Note_on_c, 0, 87, 92
2, 63000, Note_on_c, 0, 91, 92
2, 63100, Note_on_c, 0, 91, 0
2, 63100, Note_on_c, 0, 87, 0
2, 63120, Note_on_c, 0, 86, 92
2, 63120, Note_on_c, 0, 91, 92
2, 63220, Note_on_c, 0, 91, 0
2, 63220, Note_on_c, 0, 86, 0
2, 63240, Note_on_c, 0, 87, 92
2, 63240, Note_on_c, 0, 91, 92
2, 63340, Note_on_c, 0, 91, 0
2, 63340, Note_on_c, 0, 87, 0
2, 63360, Note_on_c, 0, 86, 92
2, 63360, Note_on_c, 0, 91, 92
2, 63460, Note_on_c, 0, 91, 0
2, 63460, Note_on_c, 0, 86, 0
2, 66240, Note_on_c, 0, 84, 92
2, 66340, Note_on_c, 0, 84, 0
2, 66360, Note_on_c, 0, 84, 92
2, 66570, Note_on_c, 0, 84, 0
2, 66600, Note_on_c, 0, 84, 92
2, 66700, Note_on_c, 0, 84, 0
2, 66720, Note_on_c, 0, 84, 92
2, 66820, Note_on_c, 0, 84, 0
2, 66840, Note_on_c, 0, 84, 92
2, 66940, Note_on_c, 0, 84, 0
2, 66960, Note_on_c, 0, 84, 92
2, 67060, Note_on_c, 0, 84, 0
2, 67080, Note_on_c, 0, 84, 92
2, 67180, Note_on_c, 0, 84, 0
2, 67200, Note_on_c, 0, 84, 92
2, 67300, Note_on_c, 0, 84, 0
2, 67320, Note_on_c, 0, 84, 60
2, 67530, Note_on_c, 0, 84, 0
2, 67560, Note_on_c, 0, 84, 60
2, 67780, Note_on_c, 0, 84, 0
2, 67800, Note_on_c, 0, 84, 60
2, 67900, Note_on_c, 0, 84, 0
2, 67920, Note_on_c, 0, 84, 60
2, 68020, Note_on_c, 0, 84, 0
2, 68040, Note_on_c, 0, 84, 60
2, 68160, Note_on_c, 0, 86, 60
2, 68260, Note_on_c, 0, 86, 0
2, 68260, Note_on_c, 0, 84, 0
2, 68280, Note_on_c, 0, 84, 60
2, 68280, Note_on_c, 0, 86, 60
2, 68490, Note_on_c, 0, 86, 0
2, 68490, Note_on_c, 0, 84, 0
2, 68520, Note_on_c, 0, 84, 60
2, 68520, Note_on_c, 0, 86, 60
2, 68640, Note_on_c, 0, 84, 0
2, 68640, Note_on_c, 0, 82, 60
2, 68740, Note_on_c, 0, 82, 0
2, 68740, Note_on_c, 0, 86, 0
2, 68760, Note_on_c, 0, 82, 60
2, 68760, Note_on_c, 0, 86, 60
2, 68860, Note_on_c, 0, 86, 0
2, 68860, Note_on_c, 0, 82, 0
2, 68880, Note_on_c, 0, 82, 60
2, 68880, Note_on_c, 0, 86, 60
2, 68980, Note_on_c, 0, 86, 0
2, 68980, Note_on_c, 0, 82, 0
2, 69000, Note_on_c, 0, 82, 60
2, 69000, Note_on_c, 0, 86, 60
2, 69120, Note_on_c, 0, 86, 0
2, 69120, Note_on_c, 0, 84, 60
2, 69220, Note_on_c, 0, 84, 0
2, 69220, Note_on_c, 0, 82, 0
2, 69240, Note_on_c, 0, 82, 60
2, 69240, Note_on_c, 0, 84, 60
2, 69450, Note_on_c, 0, 84, 0
2, 69450, Note_on_c, 0, 82, 0
2, 69480, Note_on_c, 0, 82, 60
2, 69480, Note_on_c, 0, 84, 60
2, 69600, Note_on_c, 0, 82, 0
2, 69600, Note_on_c, 0, 81, 60
2, 69700, Note_on_c, 0, 81, 0
2, 69700, Note_on_c, 0, 84, 0
2, 69720, Note_on_c, 0, 81, 60
2, 69720, Note_on_c, 0, 84, 60
2, 69820, Note_on_c, 0, 84, 0
2, 69820, Note_on_c, 0, 81, 0
2, 69840, Note_on_c, 0, 81, 60
2, 69840, Note_on_c, 0, 84, 60
2, 69940, Note_on_c, 0, 84, 0
2, 69940, Note_on_c, 0, 81, 0
2, 69960, Note_on_c, 0, 81, 60
2, 69960, Note_on_c, 0, 84, 60
2, 70080, Note_on_c, 0, 84, 0
2, 70080, Note_on_c, 0, 82, 60
2, 70180, Note_on_c, 0, 82, 0
2, 70180, Note_on_c, 0, 81, 0
2, 70200, Note_on_c, 0, 81, 60
2, 70200, Note_on_c, 0, 82, 60
2, 70410, Note_on_c, 0, 82, 0
2, 70410, Note_on_c, 0, 81, 0
2, 70440, Note_on_c, 0, 81, 60
2, 70440, Note_on_c, 0, 82, 60
2, 70560, Note_on_c, 0, 81, 0
2, 70560, Note_on_c, 0, 79, 60
2, 70660, Note_on_c, 0, 79, 0
2, 70660, Note_on_c, 0, 82, 0
2, 70680, Note_on_c, 0, 79, 60
2, 70680, Note_on_c, 0, 82, 60
2, 70780, Note_on_c, 0, 82, 0
2, 70780, Note_on_c, 0, 79, 0
2, 70800, Note_on_c, 0, 79, 60
2, 70800, Note_on_c, 0, 82, 60
2, 70900, Note_on_c, 0, 82, 0
2, 70900, Note_on_c, 0, 79, 0
2, 70920, Note_on_c, 0, 79, 60
2, 70920, Note_on_c, 0, 82, 60
2, 71020, Note_on_c, 0, 82, 0
2, 71020, Note_on_c, 0, 79, 0
2, 71040, Note_on_c, 0, 77, 60
2, 71040, Note_on_c, 0, 81, 60
2, 71140, Note_on_c, 0, 81, 0
2, 71140, Note_on_c, 0, 77, 0
2, 72960, Note_on_c, 0, 81, 60
2, 73020, Note_on_c, 0, 81, 0
2, 73020, Note_on_c, 0, 84, 60
2, 73080, Note_on_c, 0, 84, 0
2, 73080, Note_on_c, 0, 82, 60
2, 73140, Note_on_c, 0, 82, 0
2, 73140, Note_on_c, 0, 81, 60
2, 73200, Note_on_c, 0, 81, 0
2, 73200, Note_on_c, 0, 79, 60
2, 73260, Note_on_c, 0, 79, 0
2, 73260, Note_on_c, 0, 77, 60
2, 73320, Note_on_c, 0, 77, 0
2, 73320, Note_on_c, 0, 76, 60
2, 73380, Note_on_c, 0, 76, 0
2, 73380, Note_on_c, 0, 77, 60
2, 73438, Note_on_c, 0, 77, 0
2, 73440, Note_on_c, 0, 81, 60
2, 73500, Note_on_c, 0, 81, 0
2, 73500, Note_on_c, 0, 84, 60
2, 73560, Note_on_c, 0, 84, 0
2, 73560, Note_on_c, 0, 82, 60
2, 73620, Note_on_c, 0, 82, 0
2, 73620, Note_on_c, 0, 81, 60
2, 73680, Note_on_c, 0, 81, 0
2, 73680, Note_on_c, 0, 79, 60
2, 73740, Note_on_c, 0, 79, 0
2, 73740, Note_on_c, 0, 77, 60
2, 73800, Note_on_c, 0, 77, 0
2, 73800, Note_on_c, 0, 76, 60
2, 73860, Note_on_c, 0, 76, 0
2, 73860, Note_on_c, 0, 77, 60
2, 73918, Note_on_c, 0, 77, 0
2, 73920, Note_on_c, 0, 76, 60
2, 73920, Note_on_c, 0, 79, 60
2, 74160, Note_on_c, 0, 79, 0
2, 74160, Note_on_c, 0, 76, 0
2, 74160, Note_on_c, 0, 77, 60
2, 74160, Note_on_c, 0, 81, 60
2, 74400, Note_on_c, 0, 81, 0
2, 74400, Note_on_c, 0, 77, 0
2, 74400, Note_on_c, 0, 79, 60
2, 74400, Note_on_c, 0, 82, 60
2, 74640, Note_on_c, 0, 82, 0
2, 74640, Note_on_c, 0, 79, 0
2, 74640, Note_on_c, 0, 76, 60
2, 74640, Note_on_c, 0, 79, 60
2, 74850, Note_on_c, 0, 79, 0
2, 74850, Note_on_c, 0, 76, 0
2, 74880, Note_on_c, 0, 77, 60
2, 74880, Note_on_c, 0, 81, 60
2, 74980, Note_on_c, 0, 81, 0
2, 74980, Note_on_c, 0, 77, 0
2, 76800, Note_on_c, 0, 81, 60
2, 76860, Note_on_c, 0, 81, 0
2, 76860, Note_on_c, 0, 84, 60
2, 76920, Note_on_c, 0, 84, 0
2, 76920, Note_on_c, 0, 82, 60
2, 76980, Note_on_c, 0, 82, 0
2, 76980, Note_on_c, 0, 81, 60
2, 77040, Note_on_c, 0, 81, 0
2, 77040, Note_on_c, 0, 79, 60
2, 77100, Note_on_c, 0, 79, 0
2, 77100, Note_on_c, 0, 77, 60
2, 77160, Note_on_c, 0, 77, 0
2, 77160, Note_on_c, 0, 76, 60
2, 77220, Note_on_c, 0, 76, 0
2, 77220, Note_on_c, 0, 77, 60
2, 77278, Note_on_c, 0, 77, 0
2, 77280, Note_on_c, 0, 81, 60
2, 77340, Note_on_c, 0, 81, 0
2, 77340, Note_on_c, 0, 84, 60
2, 77400, Note_on_c, 0, 84, 0
2, 77400, Note_on_c, 0, 82, 60
2, 77460, Note_on_c, 0, 82, 0
2, 77460, Note_on_c, 0, 81, 60
2, 77520, Note_on_c, 0, 81, 0
2, 77520, Note_on_c, 0, 79, 60
2, 77580, Note_on_c, 0, 79, 0
2, 77580, Note_on_c, 0, 77, 60
2, 77640, Note_on_c, 0, 77, 0
2, 77640, Note_on_c, 0, 76, 60
2, 77700, Note_on_c, 0, 76, 0
2, 77700, Note_on_c, 0, 77, 60
2, 77758, Note_on_c, 0, 77, 0
2, 77760, Note_on_c, 0, 76, 60
2, 77760, Note_on_c, 0, 79, 60
2, 78000, Note_on_c, 0, 79, 0
2, 78000, Note_on_c, 0, 76, 0
2, 78000, Note_on_c, 0, 77, 60
2, 78000, Note_on_c, 0, 81, 60
2, 78240, Note_on_c, 0, 81, 0
2, 78240, Note_on_c, 0, 77, 0
2, 78240, Note_on_c, 0, 79, 60
2, 78240, Note_on_c, 0, 82, 60
2, 78480, Note_on_c, 0, 82, 0
2, 78480, Note_on_c, 0, 79, 0
2, 78480, Note_on_c, 0, 76, 60
2, 78480, Note_on_c, 0, 79, 60
2, 78690, Note_on_c, 0, 79, 0
2, 78690, Note_on_c, 0, 76, 0
2, 78720, Note_on_c, 0, 77, 60
2, 78820, Note_on_c, 0, 77, 0
2, 78840, Note_on_c, 0, 81, 92
2, 78840, Note_on_c, 0, 84, 92
2, 79050, Note_on_c, 0, 84, 0
2, 79050, Note_on_c, 0, 81, 0
2, 79080, Note_on_c, 0, 80, 92
2, 79080, Note_on_c, 0, 84, 92
2, 79180, Note_on_c, 0, 84, 0
2, 79180, Note_on_c, 0, 80, 0
2, 79200, Note_on_c, 0, 81, 92
2, 79200, Note_on_c, 0, 84, 92
2, 79300, Note_on_c, 0, 84, 0
2, 79300, Note_on_c, 0, 81, 0
2, 79320, Note_on_c, 0, 80, 92
2, 79320, Note_on_c, 0, 84, 92
2, 79420, Note_on_c, 0, 84, 0
2, 79420, Note_on_c, 0, 80, 0
2, 79440, Note_on_c, 0, 81, 92
2, 79440, Note_on_c, 0, 84, 92
2, 79540, Note_on_c, 0, 84, 0
2, 79540, Note_on_c, 0, 81, 0
2, 79560, Note_on_c, 0, 81, 92
2, 79560, Note_on_c, 0, 88, 92
2, 79660, Note_on_c, 0, 88, 0
2, 79660, Note_on_c, 0, 81, 0
2, 79680, Note_on_c, 0, 81, 92
2, 79680, Note_on_c, 0, 89, 92
2, 79780, Note_on_c, 0, 89, 0
2, 79780, Note_on_c, 0, 81, 0
2, 79800, Note_on_c, 0, 81, 92
2, 79800, Note_on_c, 0, 89, 92
2, 80010, Note_on_c, 0, 89, 0
2, 80010, Note_on_c, 0, 81, 0
2, 80040, Note_on_c, 0, 81, 92
2, 80040, Note_on_c, 0, 88, 92
2, 80140, Note_on_c, 0, 88, 0
2, 80140, Note_on_c, 0, 81, 0
2, 80160, Note_on_c, 0, 81, 92
2, 80160, Note_on_c, 0, 89, 92
2, 80260, Note_on_c, 0, 89, 0
2, 80260, Note_on_c, 0, 81, 0
2, 80280, Note_on_c, 0, 81, 92
2, 80280, Note_on_c, 0, 88, 92
2, 80380, Note_on_c, 0, 88, 0
2, 80380, Note_on_c, 0, 81, 0
2, 80400, Note_on_c, 0, 81, 92
2, 80400, Note_on_c, 0, 89, 92
2, 80500, Note_on_c, 0, 89, 0
2, 80500, Note_on_c, 0, 81, 0
2, 80520, Note_on_c, 0, 86, 92
2, 80520, Note_on_c, 0, 91, 92
2, 80620, Note_on_c, 0, 91, 0
2, 80620, Note_on_c, 0, 86, 0
2, 80640, Note_on_c, 0, 87, 92
2, 80640, Note_on_c, 0, 91, 92
2, 80740, Note_on_c, 0, 91, 0
2, 80740, Note_on_c, 0, 87, 0
2, 80760, Note_on_c, 0, 87, 92
2, 80760, Note_on_c, 0, 91, 92
2, 80970, Note_on_c, 0, 91, 0
2, 80970, Note_on_c, 0, 87, 0
2, 81000, Note_on_c, 0, 86, 92
2, 81000, Note_on_c, 0, 91, 92
2, 81100, Note_on_c, 0, 91, 0
2, 81100, Note_on_c, 0, 86, 0
2, 81120, Note_on_c, 0, 87, 92
2, 81120, Note_on_c, 0, 91, 92
2, 81220, Note_on_c, 0, 91, 0
2, 81220, Note_on_c, 0, 87, 0
2, 81240, Note_on_c, 0, 86, 92
2, 81240, Note_on_c, 0, 91, 92
2, 81340, Note_on_c, 0, 91, 0
2, 81340, Note_on_c, 0, 86, 0
2, 81360, Note_on_c, 0, 87, 92
2, 81360, Note_on_c, 0, 91, 92
2, 81460, Note_on_c, 0, 91, 0
2, 81460, Note_on_c, 0, 87, 0
2, 81480, Note_on_c, 0, 83, 92
2, 81480, Note_on_c, 0, 87, 92
2, 81580, Note_on_c, 0, 87, 0
2, 81580, Note_on_c, 0, 83, 0
2, 81600, Note_on_c, 0, 84, 92
2, 81600, Note_on_c, 0, 87, 92
2, 81700, Note_on_c, 0, 87, 0
2, 81700, Note_on_c, 0, 84, 0
2, 81720, Note_on_c, 0, 83, 92
2, 81720, Note_on_c, 0, 87, 92
2, 81820, Note_on_c, 0, 87, 0
2, 81820, Note_on_c, 0, 83, 0
2, 81840, Note_on_c, 0, 84, 92
2, 81840, Note_on_c, 0, 87, 92
2, 81940, Note_on_c, 0, 87, 0
2, 81940, Note_on_c, 0, 84, 0
2, 81960, Note_on_c, 0, 79, 92
2, 81960, Note_on_c, 0, 84, 92
2, 82060, Note_on_c, 0, 84, 0
2, 82060, Note_on_c, 0, 79, 0
2, 82080, Note_on_c, 0, 80, 92
2, 82080, Note_on_c, 0, 84, 92
2, 82180, Note_on_c, 0, 84, 0
2, 82180, Note_on_c, 0, 80, 0
2, 82200, Note_on_c, 0, 79, 92
2, 82200, Note_on_c, 0, 84, 92
2, 82300, Note_on_c, 0, 84, 0
2, 82300, Note_on_c, 0, 79, 0
2, 82320, Note_on_c, 0, 80, 92
2, 82320, Note_on_c, 0, 84, 92
2, 82420, Note_on_c, 0, 84, 0
2, 82420, Note_on_c, 0, 80, 0
2, 82440, Note_on_c, 0, 76, 92
2, 82440, Note_on_c, 0, 84, 92
2, 82540, Note_on_c, 0, 84, 0
2, 82540, Note_on_c, 0, 76, 0
2, 82560, Note_on_c, 0, 77, 92
2, 82560, Note_on_c, 0, 84, 92
2, 82660, Note_on_c, 0, 77, 0
2, 82680, Note_on_c, 0, 76, 92
2, 82780, Note_on_c, 0, 76, 0
2, 82800, Note_on_c, 0, 80, 92
2, 82900, Note_on_c, 0, 80, 0
2, 82920, Note_on_c, 0, 79, 92
2, 83010, Note_on_c, 0, 84, 0
2, 83020, Note_on_c, 0, 79, 0
2, 83040, Note_on_c, 0, 77, 92
2, 83040, Note_on_c, 0, 89, 92
2, 83140, Note_on_c, 0, 89, 0
2, 83140, Note_on_c, 0, 77, 0
2, 83160, Note_on_c, 0, 75, 92
2, 83160, Note_on_c, 0, 87, 92
2, 83260, Note_on_c, 0, 87, 0
2, 83260, Note_on_c, 0, 75, 0
2, 83280, Note_on_c, 0, 74, 92
2, 83280, Note_on_c, 0, 86, 92
2, 83380, Note_on_c, 0, 86, 0
2, 83380, Note_on_c, 0, 74, 0
2, 83400, Note_on_c, 0, 72, 92
2, 83400, Note_on_c, 0, 84, 92
2, 83500, Note_on_c, 0, 84, 0
2, 83500, Note_on_c, 0, 72, 0
2, 83520, Note_on_c, 0, 79, 92
2, 83620, Note_on_c, 0, 79, 0
2, 90240, Note_on_c, 0, 84, 92
2, 90340, Note_on_c, 0, 84, 0
2, 90360, Note_on_c, 0, 84, 92
2, 90570, Note_on_c, 0, 84, 0
2, 90600, Note_on_c, 0, 84, 92
2, 90700, Note_on_c, 0, 84, 0
2, 90720, Note_on_c, 0, 84, 92
2, 90820, Note_on_c, 0, 84, 0
2, 90840, Note_on_c, 0, 84, 92
2, 90940, Note_on_c, 0, 84, 0
2, 90960, Note_on_c, 0, 84, 92
2, 91060, Note_on_c, 0, 84, 0
2, 91080, Note_on_c, 0, 84, 92
2, 91180, Note_on_c, 0, 84, 0
2, 91200, Note_on_c, 0, 84, 92
2, 91300, Note_on_c, 0, 84, 0
2, 91320, Note_on_c, 0, 84, 92
2, 91530, Note_on_c, 0, 84, 0
2, 91560, Note_on_c, 0, 84, 92
2, 91660, Note_on_c, 0, 84, 0
2, 91680, Note_on_c, 0, 84, 92
2, 91780, Note_on_c, 0, 84, 0
2, 91800, Note_on_c, 0, 84, 92
2, 91900, Note_on_c, 0, 84, 0
2, 91920, Note_on_c, 0, 84, 92
2, 92020, Note_on_c, 0, 84, 0
2, 92040, Note_on_c, 0, 84, 92
2, 92140, Note_on_c, 0, 84, 0
2, 92160, Note_on_c, 0, 84, 92
2, 92260, Note_on_c, 0, 84, 0
2, 93120, Note_on_c, 0, 81, 75
2, 93180, Note_on_c, 0, 81, 0
2, 93180, Note_on_c, 0, 84, 75
2, 93240, Note_on_c, 0, 84, 0
2, 93240, Note_on_c, 0, 82, 75
2, 93300, Note_on_c, 0, 82, 0
2, 93300, Note_on_c, 0, 81, 75
2, 93360, Note_on_c, 0, 81, 0
2, 93360, Note_on_c, 0, 79, 75
2, 93420, Note_on_c, 0, 79, 0
2, 93420, Note_on_c, 0, 77, 75
2, 93480, Note_on_c, 0, 77, 0
2, 93480, Note_on_c, 0, 76, 75
2, 93540, Note_on_c, 0, 76, 0
2, 93540, Note_on_c, 0, 77, 75
2, 93598, Note_on_c, 0, 77, 0
2, 93600, Note_on_c, 0, 81, 75
2, 93660, Note_on_c, 0, 81, 0
2, 93660, Note_on_c, 0, 84, 75
2, 93720, Note_on_c, 0, 84, 0
2, 93720, Note_on_c, 0, 82, 75
2, 93780, Note_on_c, 0, 82, 0
2, 93780, Note_on_c, 0, 81, 75
2, 93840, Note_on_c, 0, 81, 0
2, 93840, Note_on_c, 0, 79, 75
2, 93900, Note_on_c, 0, 79, 0
2, 93900, Note_on_c, 0, 77, 75
2, 93960, Note_on_c, 0, 77, 0
2, 93960, Note_on_c, 0, 76, 75
2, 94020, Note_on_c, 0, 76, 0
2, 94020, Note_on_c, 0, 77, 75
2, 94078, Note_on_c, 0, 77, 0
2, 95040, Note_on_c, 0, 79, 75
2, 95100, Note_on_c, 0, 79, 0
2, 95100, Note_on_c, 0, 81, 75
2, 95160, Note_on_c, 0, 81, 0
2, 95160, Note_on_c, 0, 79, 75
2, 95220, Note_on_c, 0, 79, 0
2, 95220, Note_on_c, 0, 81, 75
2, 95280, Note_on_c, 0, 81, 0
2, 95280, Note_on_c, 0, 79, 75
2, 95340, Note_on_c, 0, 79, 0
2, 95340, Note_on_c, 0, 81, 75
2, 95400, Note_on_c, 0, 81, 0
2, 95400, Note_on_c, 0, 79, 75
2, 95460, Note_on_c, 0, 79, 0
2, 95460, Note_on_c, 0, 81, 75
2, 95520, Note_on_c, 0, 81, 0
2, 95520, Note_on_c, 0, 79, 75
2, 95580, Note_on_c, 0, 79, 0
2, 95580, Note_on_c, 0, 81, 75
2, 95640, Note_on_c, 0, 81, 0
2, 95640, Note_on_c, 0, 79, 75
2, 95700, Note_on_c, 0, 79, 0
2, 95700, Note_on_c, 0, 81, 75
2, 95760, Note_on_c, 0, 81, 0
2, 95760, Note_on_c, 0, 79, 75
2, 95820, Note_on_c, 0, 79, 0
2, 95820, Note_on_c, 0, 77, 75
2, 95880, Note_on_c, 0, 77, 0
2, 95880, Note_on_c, 0, 76, 75
2, 95940, Note_on_c, 0, 76, 0
2, 95940, Note_on_c, 0, 74, 75
2, 95998, Note_on_c, 0, 74, 0
2, 96000, Note_on_c, 0, 72, 75
2, 96100, Note_on_c, 0, 72, 0
2, 96960, Note_on_c, 0, 81, 75
2, 97020, Note_on_c, 0, 81, 0
2, 97020, Note_on_c, 0, 84, 75
2, 97080, Note_on_c, 0, 84, 0
2, 97080, Note_on_c, 0, 82, 75
2, 97140, Note_on_c, 0, 82, 0
2, 97140, Note_on_c, 0, 81, 75
2, 97200, Note_on_c, 0, 81, 0
2, 97200, Note_on_c, 0, 79, 75
2, 97260, Note_on_c, 0, 79, 0
2, 97260, Note_on_c, 0, 77, 75
2, 97320, Note_on_c, 0, 77, 0
2, 97320, Note_on_c, 0, 76, 75
2, 97380, Note_on_c, 0, 76, 0
2, 97380, Note_on_c, 0, 77, 75
2, 97438, Note_on_c, 0, 77, 0
2, 97440, Note_on_c, 0, 81, 75
2, 97500, Note_on_c, 0, 81, 0
2, 97500, Note_on_c, 0, 84, 75
2, 97560, Note_on_c, 0, 84, 0
2, 97560, Note_on_c, 0, 82, 75
2, 97620, Note_on_c, 0, 82, 0
2, 97620, Note_on_c, 0, 81, 75
2, 97680, Note_on_c, 0, 81, 0
2, 97680, Note_on_c, 0, 79, 75
2, 97740, Note_on_c, 0, 79, 0
2, 97740, Note_on_c, 0, 77, 75
2, 97800, Note_on_c, 0, 77, 0
2, 97800, Note_on_c, 0, 76, 75
2, 97860, Note_on_c, 0, 76, 0
2, 97860, Note_on_c, 0, 77, 75
2, 97918, Note_on_c, 0, 77, 0
2, 98880, Note_on_c, 0, 79, 75
2, 98940, Note_on_c, 0, 79, 0
2, 98940, Note_on_c, 0, 81, 75
2, 99000, Note_on_c, 0, 81, 0
2, 99000, Note_on_c, 0, 79, 75
2, 99060, Note_on_c, 0, 79, 0
2, 99060, Note_on_c, 0, 81, 75
2, 99120, Note_on_c, 0, 81, 0
2, 99120, Note_on_c, 0, 79, 75
2, 99180, Note_on_c, 0, 79, 0
2, 99180, Note_on_c, 0, 81, 75
2, 99240, Note_on_c, 0, 81, 0
2, 99240, Note_on_c, 0, 79, 75
2, 99300, Note_on_c, 0, 79, 0
2, 99300, Note_on_c, 0, 81, 75
2, 99360, Note_on_c, 0, 81, 0
2, 99360, Note_on_c, 0, 79, 75
2, 99420, Note_on_c, 0, 79, 0
2, 99420, Note_on_c, 0, 81, 75
2, 99480, Note_on_c, 0, 81, 0
2, 99480, Note_on_c, 0, 79, 75
2, 99540, Note_on_c, 0, 79, 0
2, 99540, Note_on_c, 0, 81, 75
2, 99600, Note_on_c, 0, 81, 0
2, 99600, Note_on_c, 0, 79, 75
2, 99660, Note_on_c, 0, 79, 0
2, 99660, Note_on_c, 0, 77, 75
2, 99720, Note_on_c, 0, 77, 0
2, 99720, Note_on_c, 0, 76, 75
2, 99780, Note_on_c, 0, 76, 0
2, 99780, Note_on_c, 0, 74, 75
2, 99838, Note_on_c, 0, 74, 0
2, 99840, Note_on_c, 0, 72, 75
2, 99940, Note_on_c, 0, 72, 0
2, 99960, Note_on_c, 0, 88, 92
2, 99960, Note_on_c, 0, 91, 92
2, 100170, Note_on_c, 0, 91, 0
2, 100170, Note_on_c, 0, 88, 0
2, 100200, Note_on_c, 0, 87, 92
2, 100200, Note_on_c, 0, 91, 92
2, 100300, Note_on_c, 0, 91, 0
2, 100300, Note_on_c, 0, 87, 0
2, 100320, Note_on_c, 0, 88, 92
2, 100320, Note_on_c, 0, 91, 92
2, 100420, Note_on_c, 0, 91, 0
2, 100420, Note_on_c, 0, 88, 0
2, 100440, Note_on_c, 0, 87, 92
2, 100440, Note_on_c, 0, 91, 92
2, 100540, Note_on_c, 0, 91, 0
2, 100540, Note_on_c, 0, 87, 0
2, 100560, Note_on_c, 0, 88, 92
2, 100560, Note_on_c, 0, 91, 92
2, 100660, Note_on_c, 0, 91, 0
2, 100660, Note_on_c, 0, 88, 0
2, 100680, Note_on_c, 0, 83, 92
2, 100680, Note_on_c, 0, 88, 92
2, 100780, Note_on_c, 0, 88, 0
2, 100780, Note_on_c, 0, 83, 0
2, 100800, Note_on_c, 0, 84, 92
2, 100800, Note_on_c, 0, 88, 92
2, 100900, Note_on_c, 0, 88, 0
2, 100900, Note_on_c, 0, 84, 0
2, 100920, Note_on_c, 0, 84, 92
2, 100920, Note_on_c, 0, 88, 92
2, 101130, Note_on_c, 0, 88, 0
2, 101130, Note_on_c, 0, 84, 0
2, 101160, Note_on_c, 0, 83, 92
2, 101160, Note_on_c, 0, 88, 92
2, 101260, Note_on_c, 0, 88, 0
2, 101260, Note_on_c, 0, 83, 0
2, 101280, Note_on_c, 0, 84, 92
2, 101280, Note_on_c, 0, 88, 92
2, 101380, Note_on_c, 0, 88, 0
2, 101380, Note_on_c, 0, 84, 0
2, 101400, Note_on_c, 0, 83, 92
2, 101400, Note_on_c, 0, 88, 92
2, 101500, Note_on_c, 0, 88, 0
2, 101500, Note_on_c, 0, 83, 0
2, 101520, Note_on_c, 0, 84, 92
2, 101520, Note_on_c, 0, 88, 92
2, 101620, Note_on_c, 0, 88, 0
2, 101620, Note_on_c, 0, 84, 0
2, 101640, Note_on_c, 0, 80, 92
2, 101640, Note_on_c, 0, 84, 92
2, 101740, Note_on_c, 0, 84, 0
2, 101740, Note_on_c, 0, 80, 0
2, 101760, Note_on_c, 0, 81, 92
2, 101760, Note_on_c, 0, 84, 92
2, 101860, Note_on_c, 0, 84, 0
2, 101860, Note_on_c, 0, 81, 0
2, 101880, Note_on_c, 0, 81, 92
2, 101880, Note_on_c, 0, 84, 92
2, 102090, Note_on_c, 0, 84, 0
2, 102090, Note_on_c, 0, 81, 0
2, 102120, Note_on_c, 0, 80, 92
2, 102120, Note_on_c, 0, 84, 92
2, 102220, Note_on_c, 0, 84, 0
2, 102220, Note_on_c, 0, 80, 0
2, 102240, Note_on_c, 0, 81, 92
2, 102240, Note_on_c, 0, 84, 92
2, 102340, Note_on_c, 0, 84, 0
2, 102340, Note_on_c, 0, 81, 0
2, 102360, Note_on_c, 0, 80, 92
2, 102360, Note_on_c, 0, 84, 92
2, 102460, Note_on_c, 0, 84, 0
2, 102460, Note_on_c, 0, 80, 0
2, 102480, Note_on_c, 0, 81, 92
2, 102480, Note_on_c, 0, 84, 92
2, 102580, Note_on_c, 0, 84, 0
2, 102580, Note_on_c, 0, 81, 0
2, 102600, Note_on_c, 0, 82, 92
2, 102600, Note_on_c, 0, 85, 92
2, 102700, Note_on_c, 0, 85, 0
2, 102700, Note_on_c, 0, 82, 0
2, 102720, Note_on_c, 0, 81, 92
2, 102720, Note_on_c, 0, 86, 92
2, 102820, Note_on_c, 0, 86, 0
2, 102820, Note_on_c, 0, 81, 0
2, 102840, Note_on_c, 0, 82, 92
2, 102840, Note_on_c, 0, 85, 92
2, 102940, Note_on_c, 0, 85, 0
2, 102940, Note_on_c, 0, 82, 0
2, 102960, Note_on_c, 0, 81, 92
2, 102960, Note_on_c, 0, 86, 92
2, 103080, Note_on_c, 0, 86, 0
2, 103080, Note_on_c, 0, 88, 92
2, 103180, Note_on_c, 0, 88, 0
2, 103200, Note_on_c, 0, 89, 92
2, 103300, Note_on_c, 0, 89, 0
2, 103300, Note_on_c, 0, 81, 0
2, 103320, Note_on_c, 0, 87, 92
2, 103320, Note_on_c, 0, 90, 92
2, 103420, Note_on_c, 0, 90, 0
2, 103420, Note_on_c, 0, 87, 0
2, 103440, Note_on_c, 0, 86, 92
2, 103440, Note_on_c, 0, 91, 92
2, 103540, Note_on_c, 0, 91, 0
2, 103540, Note_on_c, 0, 86, 0
2, 103560, Note_on_c, 0, 83, 92
2, 103560, Note_on_c, 0, 89, 92
2, 103660, Note_on_c, 0, 89, 0
2, 103660, Note_on_c, 0, 83, 0
2, 103680, Note_on_c, 0, 84, 92
2, 103680, Note_on_c, 0, 88, 92
2, 104130, Note_on_c, 0, 88, 0
2, 104160, Note_on_c, 0, 86, 92
2, 104370, Note_on_c, 0, 84, 0
2, 104400, Note_on_c, 0, 83, 92
2, 104610, Note_on_c, 0, 83, 0
2, 104610, Note_on_c, 0, 86, 0
2, 104640, Note_on_c, 0, 84, 92
2, 104740, Note_on_c, 0, 84, 0
2, 104760, Note_on_c, 0, 88, 92
2, 104760, Note_on_c, 0, 91, 92
2, 104970, Note_on_c, 0, 91, 0
2, 104970, Note_on_c, 0, 88, 0
2, 105000, Note_on_c, 0, 87, 92
2, 105000, Note_on_c, 0, 91, 92
2, 105100, Note_on_c, 0, 91, 0
2, 105100, Note_on_c, 0, 87, 0
2, 105120, Note_on_c, 0, 88, 92
2, 105120, Note_on_c, 0, 91, 92
2, 105220, Note_on_c, 0, 91, 0
2, 105220, Note_on_c, 0, 88, 0
2, 105240, Note_on_c, 0, 87, 92
2, 105240, Note_on_c, 0, 91, 92
2, 105340, Note_on_c, 0, 91, 0
2, 105340, Note_on_c, 0, 87, 0
2, 105360, Note_on_c, 0, 88, 92
2, 105360, Note_on_c, 0, 91, 92
2, 105460, Note_on_c, 0, 91, 0
2, 105460, Note_on_c, 0, 88, 0
2, 105480, Note_on_c, 0, 83, 92
2, 105480, Note_on_c, 0, 88, 92
2, 105580, Note_on_c, 0, 88, 0
2, 105580, Note_on_c, 0, 83, 0
2, 105600, Note_on_c, 0, 84, 92
2, 105600, Note_on_c, 0, 88, 92
2, 105700, Note_on_c, 0, 88, 0
2, 105700, Note_on_c, 0, 84, 0
2, 105720, Note_on_c, 0, 84, 92
2, 105720, Note_on_c, 0, 88, 92
2, 105930, Note_on_c, 0, 88, 0
2, 105930, Note_on_c, 0, 84, 0
2, 105960, Note_on_c, 0, 83, 92
2, 105960, Note_on_c, 0, 88, 92
2, 106060, Note_on_c, 0, 88, 0
2, 106060, Note_on_c, 0, 83, 0
2, 106080, Note_on_c, 0, 84, 92
2, 106080, Note_on_c, 0, 88, 92
2, 106180, Note_on_c, 0, 88, 0
2, 106180, Note_on_c, 0, 84, 0
2, 106200, Note_on_c, 0, 83, 92
2, 106200, Note_on_c, 0, 88, 92
2, 106300, Note_on_c, 0, 88, 0
2, 106300, Note_on_c, 0, 83, 0
2, 106320, Note_on_c, 0, 84, 92
2, 106320, Note_on_c, 0, 88, 92
2, 106420, Note_on_c, 0, 88, 0
2, 106420, Note_on_c, 0, 84, 0
2, 106440, Note_on_c, 0, 80, 92
2, 106440, Note_on_c, 0, 84, 92
2, 106540, Note_on_c, 0, 84, 0
2, 106540, Note_on_c, 0, 80, 0
2, 106560, Note_on_c, 0, 81, 92
2, 106560, Note_on_c, 0, 84, 92
2, 106660, Note_on_c, 0, 84, 0
2, 106660, Note_on_c, 0, 81, 0
2, 106680, Note_on_c, 0, 81, 92
2, 106680, Note_on_c, 0, 84, 92
2, 106890, Note_on_c, 0, 84, 0
2, 106890, Note_on_c, 0, 81, 0
2, 106920, Note_on_c, 0, 80, 92
2, 106920, Note_on_c, 0, 84, 92
2, 107020, Note_on_c, 0, 84, 0
2, 107020, Note_on_c, 0, 80, 0
2, 107040, Note_on_c, 0, 81, 92
2, 107040, Note_on_c, 0, 84, 92
2, 107140, Note_on_c, 0, 84, 0
2, 107140, Note_on_c, 0, 81, 0
2, 107160, Note_on_c, 0, 80, 92
2, 107160, Note_on_c, 0, 84, 92
2, 107260, Note_on_c, 0, 84, 0
2, 107260, Note_on_c, 0, 80, 0
2, 107280, Note_on_c, 0, 81, 92
2, 107280, Note_on_c, 0, 84, 92
2, 107380, Note_on_c, 0, 84, 0
2, 107380, Note_on_c, 0, 81, 0
2, 107400, Note_on_c, 0, 82, 92
2, 107400, Note_on_c, 0, 85, 92
2, 107500, Note_on_c, 0, 85, 0
2, 107500, Note_on_c, 0, 82, 0
2, 107520, Note_on_c, 0, 81, 92
2, 107520, Note_on_c, 0, 86, 92
2, 107620, Note_on_c, 0, 86, 0
2, 107620, Note_on_c, 0, 81, 0
2, 107640, Note_on_c, 0, 82, 92
2, 107640, Note_on_c, 0, 85, 92
2, 107740, Note_on_c, 0, 85, 0
2, 107740, Note_on_c, 0, 82, 0
2, 107760, Note_on_c, 0, 81, 92
2, 107760, Note_on_c, 0, 86, 92
2, 107860, Note_on_c, 0, 86, 0
2, 107880, Note_on_c, 0, 88, 92
2, 107980, Note_on_c, 0, 88, 0
2, 108000, Note_on_c, 0, 89, 92
2, 108100, Note_on_c, 0, 89, 0
2, 108100, Note_on_c, 0, 81, 0
2, 108120, Note_on_c, 0, 87, 92
2, 108120, Note_on_c, 0, 90, 92
2, 108220, Note_on_c, 0, 90, 0
2, 108220, Note_on_c, 0, 87, 0
2, 108240, Note_on_c, 0, 86, 92
2, 108240, Note_on_c, 0, 91, 92
2, 108340, Note_on_c, 0, 91, 0
2, 108340, Note_on_c, 0, 86, 0
2, 108360, Note_on_c, 0, 83, 92
2, 108360, Note_on_c, 0, 89, 92
2, 108460, Note_on_c, 0, 89, 0
2, 108460, Note_on_c, 0, 83, 0
2, 108480, Note_on_c, 0, 84, 92
2, 108480, Note_on_c, 0, 88, 92
2, 108580, Note_on_c, 0, 88, 0
2, 108580, Note_on_c, 0, 84, 0
2, 112800, Note_on_c, 0, 84, 92
2, 112800, Note_on_c, 0, 88, 92
2, 113250, Note_on_c, 0, 88, 0
2, 113280, Note_on_c, 0, 89, 92
2, 113730, Note_on_c, 0, 89, 0
2, 113760, Note_on_c, 0, 93, 92
2, 114210, Note_on_c, 0, 93, 0
2, 114240, Note_on_c, 0, 86, 92
2, 114690, Note_on_c, 0, 86, 0
2, 114690, Note_on_c, 0, 84, 0
2, 114720, Note_on_c, 0, 83, 92
2, 114720, Note_on_c, 0, 91, 92
2, 115170, Note_on_c, 0, 91, 0
2, 115170, Note_on_c, 0, 83, 0
2, 115200, Note_on_c, 0, 84, 92
2, 115300, Note_on_c, 0, 84, 0
2, 117120, Control_c, 0, 7, 32
2, 117120, Note_on_c, 0, 88, 60
2, 117120, Note_on_c, 0, 91, 60
2, 118560, Control_c, 0, 7, 48
2, 119040, Control_c, 0, 7, 64
2, 119520, Control_c, 0, 7, 80
2, 120000, Control_c, 0, 7, 96
2, 120930, Note_on_c, 0, 91, 0
2, 120930, Note_on_c, 0, 88, 0
2, 120960, Note_on_c, 0, 84, 108
2, 121060, Note_on_c, 0, 84, 0
2, 121080, Note_on_c, 0, 84, 108
2, 121290, Note_on_c, 0, 84, 0
2, 121320, Note_on_c, 0, 84, 108
2, 121420, Note_on_c, 0, 84, 0
2, 121440, Note_on_c, 0, 84, 108
2, 121540, Note_on_c, 0, 84, 0
2, 121560, Note_on_c, 0, 84, 108
2, 121660, Note_on_c, 0, 84, 0
2, 121680, Note_on_c, 0, 84, 108
2, 121780, Note_on_c, 0, 84, 0
2, 121800, Note_on_c, 0, 83, 108
2, 121800, Note_on_c, 0, 91, 108
2, 121900, Note_on_c, 0, 91, 0
2, 121900, Note_on_c, 0, 83, 0
2, 121920, Note_on_c, 0, 84, 108
2, 122020, Note_on_c, 0, 84, 0
2, 122040, Note_on_c, 0, 84, 108
2, 122250, Note_on_c, 0, 84, 0
2, 122280, Note_on_c, 0, 84, 108
2, 122380, Note_on_c, 0, 84, 0
2, 122400, Note_on_c, 0, 84, 108
2, 122500, Note_on_c, 0, 84, 0
2, 122520, Note_on_c, 0, 84, 108
2, 122620, Note_on_c, 0, 84, 0
2, 122640, Note_on_c, 0, 84, 108
2, 122740, Note_on_c, 0, 84, 0
2, 122760, Note_on_c, 0, 83, 108
2, 122760, Note_on_c, 0, 91, 108
2, 122860, Note_on_c, 0, 91, 0
2, 122860, Note_on_c, 0, 83, 0
2, 122880, Note_on_c, 0, 84, 108
2, 122980, Note_on_c, 0, 84, 0
2, 123000, Note_on_c, 0, 79, 108
2, 123100, Note_on_c, 0, 79, 0
2, 123120, Note_on_c, 0, 84, 108
2, 123220, Note_on_c, 0, 84, 0
2, 123240, Note_on_c, 0, 79, 108
2, 123340, Note_on_c, 0, 79, 0
2, 123360, Note_on_c, 0, 84, 108
2, 123460, Note_on_c, 0, 84, 0
2, 123480, Note_on_c, 0, 79, 108
2, 123580, Note_on_c, 0, 79, 0
2, 123600, Note_on_c, 0, 84, 108
2, 123700, Note_on_c, 0, 84, 0
2, 123720, Note_on_c, 0, 79, 108
2, 123820, Note_on_c, 0, 79, 0
2, 123840, Note_on_c, 0, 84, 108
2, 123940, Note_on_c, 0, 84, 0
2, 124320, Note_on_c, 0, 84, 108
2, 124420, Note_on_c, 0, 84, 0
2, 124560, Note_on_c, 0, 84, 108
2, 124660, Note_on_c, 0, 84, 0
2, 124800, Note_on_c, 0, 84, 108
2, 125010, Note_on_c, 0, 84, 0
2, 125010, End_track
3, 0, Start_track
3, 0, MIDI_port, 0
3, 0, Title_t, "Oboes"
3, 0, Program_c, 1, 68
3, 0, Control_c, 1, 7, 127
3, 0, Control_c, 1, 10, 48
3, 0, Note_on_c, 1, 76, 92
3, 0, Note_on_c, 1, 79, 92
3, 100, Note_on_c, 1, 79, 0
3, 100, Note_on_c, 1, 76, 0
3, 210, Note_on_c, 1, 72, 92
3, 238, Note_on_c, 1, 72, 0
3, 240, Note_on_c, 1, 72, 92
3, 340, Note_on_c, 1, 72, 0
3, 480, Note_on_c, 1, 67, 60
3, 720, Note_on_c, 1, 67, 0
3, 720, Note_on_c, 1, 72, 60
3, 840, Note_on_c, 1, 72, 0
3, 840, Note_on_c, 1, 76, 60
3, 940, Note_on_c, 1, 76, 0
3, 960, Note_on_c, 1, 79, 60
3, 1080, Note_on_c, 1, 67, 60
3, 1170, Note_on_c, 1, 79, 0
3, 1180, Note_on_c, 1, 67, 0
3, 1200, Note_on_c, 1, 67, 60
3, 1200, Note_on_c, 1, 79, 60
3, 1260, Note_on_c, 1, 79, 0
3, 1260, Note_on_c, 1, 81, 60
3, 1290, Note_on_c, 1, 81, 0
3, 1290, Note_on_c, 1, 79, 60
3, 1300, Note_on_c, 1, 67, 0
3, 1320, Note_on_c, 1, 79, 0
3, 1320, Note_on_c, 1, 67, 60
3, 1320, Note_on_c, 1, 77, 60
3, 1350, Note_on_c, 1, 77, 0
3, 1350, Note_on_c, 1, 76, 60
3, 1380, Note_on_c, 1, 76, 0
3, 1380, Note_on_c, 1, 74, 60
3, 1410, Note_on_c, 1, 74, 0
3, 1410, Note_on_c, 1, 72, 60
3, 1420, Note_on_c, 1, 67, 0
3, 1438, Note_on_c, 1, 72, 0
3, 1440, Note_on_c, 1, 67, 60
3, 1440, Note_on_c, 1, 72, 60
3, 1560, Note_on_c, 1, 72, 0
3, 1560, Note_on_c, 1, 67, 0
3, 1560, Note_on_c, 1, 72, 60
3, 1560, Note_on_c, 1, 76, 60
3, 1650, Note_on_c, 1, 76, 0
3, 1650, Note_on_c, 1, 72, 0
3, 1650, Note_on_c, 1, 71, 60
3, 1650, Note_on_c, 1, 74, 60
3, 1678, Note_on_c, 1, 74, 0
3, 1678, Note_on_c, 1, 71, 0
3, 1680, Note_on_c, 1, 71, 60
3, 1680, Note_on_c, 1, 74, 60
3, 1780, Note_on_c, 1, 74, 0
3, 1780, Note_on_c, 1, 71, 0
3, 1890, Note_on_c, 1, 79, 92
3, 1890, Note_on_c, 1, 83, 92
3, 1918, Note_on_c, 1, 83, 0
3, 1918, Note_on_c, 1, 79, 0
3, 1920, Note_on_c, 1, 79, 92
3, 1920, Note_on_c, 1, 83, 92
3, 2020, Note_on_c, 1, 83, 0
3, 2020, Note_on_c, 1, 79, 0
3, 2130, Note_on_c, 1, 71, 92
3, 2130, Note_on_c, 1, 74, 92
3, 2158, Note_on_c, 1, 74, 0
3, 2158, Note_on_c, 1, 71, 0
3, 2160, Note_on_c, 1, 71, 92
3, 2160, Note_on_c, 1, 74, 92
3, 2260, Note_on_c, 1, 74, 0
3, 2260, Note_on_c, 1, 71, 0
3, 2400, Note_on_c, 1, 67, 60
3, 2640, Note_on_c, 1, 67, 0
3, 2640, Note_on_c, 1, 71, 60
3, 2760, Note_on_c, 1, 71, 0
3, 2760, Note_on_c, 1, 74, 60
3, 2860, Note_on_c, 1, 74, 0
3, 2880, Note_on_c, 1, 77, 60
3, 3000, Note_on_c, 1, 71, 60
3, 3100, Note_on_c, 1, 71, 0
3, 3120, Note_on_c, 1, 71, 60
3, 3180, Note_on_c, 1, 77, 0
3, 3180, Note_on_c, 1, 79, 60
3, 3210, Note_on_c, 1, 79, 0
3, 3210, Note_on_c, 1, 81, 60
3, 3220, Note_on_c, 1, 71, 0
3, 3240, Note_on_c, 1, 81, 0
3, 3240, Note_on_c, 1, 71, 60
3, 3240, Note_on_c, 1, 79, 60
3, 3270, Note_on_c, 1, 79, 0
3, 3270, Note_on_c, 1, 77, 60
3, 3300, Note_on_c, 1, 77, 0
3, 3300, Note_on_c, 1, 76, 60
3, 3330, Note_on_c, 1, 76, 0
3, 3330, Note_on_c, 1, 74, 60
3, 3340, Note_on_c, 1, 71, 0
3, 3358, Note_on_c, 1, 74, 0
3, 3360, Note_on_c, 1, 71, 60
3, 3360, Note_on_c, 1, 74, 60
3, 3480, Note_on_c, 1, 74, 0
3, 3480, Note_on_c, 1, 77, 60
3, 3550, Note_on_c, 1, 71, 0
3, 3570, Note_on_c, 1, 77, 0
3, 3570, Note_on_c, 1, 72, 60
3, 3570, Note_on_c, 1, 76, 60
3, 3598, Note_on_c, 1, 76, 0
3, 3598, Note_on_c, 1, 72, 0
3, 3600, Note_on_c, 1, 72, 60
3, 3600, Note_on_c, 1, 76, 60
3, 3700, Note_on_c, 1, 76, 0
3, 3700, Note_on_c, 1, 72, 0
3, 5520, Note_on_c, 1, 72, 92
3, 5520, Note_on_c, 1, 76, 92
3, 5760, Note_on_c, 1, 76, 0
3, 5760, Note_on_c, 1, 77, 92
3, 6000, Note_on_c, 1, 77, 0
3, 6000, Note_on_c, 1, 81, 92
3, 6240, Note_on_c, 1, 81, 0
3, 6240, Note_on_c, 1, 74, 92
3, 6480, Note_on_c, 1, 74, 0
3, 6480, Note_on_c, 1, 72, 0
3, 6480, Note_on_c, 1, 71, 92
3, 6480, Note_on_c, 1, 79, 92
3, 6690, Note_on_c, 1, 79, 0
3, 6690, Note_on_c, 1, 71, 0
3, 6720, Note_on_c, 1, 72, 92
3, 6720, Note_on_c, 1, 76, 92
3, 6820, Note_on_c, 1, 76, 0
3, 6820, Note_on_c, 1, 72, 0
3, 11520, Note_on_c, 1, 76, 92
3, 11520, Note_on_c, 1, 79, 92
3, 11620, Note_on_c, 1, 79, 0
3, 11620, Note_on_c, 1, 76, 0
3, 11640, Note_on_c, 1, 76, 92
3, 11640, Note_on_c, 1, 79, 92
3, 11850, Note_on_c, 1, 79, 0
3, 11850, Note_on_c, 1, 76, 0
3, 11880, Note_on_c, 1, 77, 92
3, 11880, Note_on_c, 1, 81, 92
3, 11980, Note_on_c, 1, 81, 0
3, 11980, Note_on_c, 1, 77, 0
3, 12000, Note_on_c, 1, 76, 92
3, 12000, Note_on_c, 1, 79, 92
3, 12100, Note_on_c, 1, 79, 0
3, 12100, Note_on_c, 1, 76, 0
3, 12120, Note_on_c, 1, 77, 92
3, 12120, Note_on_c, 1, 81, 92
3, 12220, Note_on_c, 1, 81, 0
3, 12220, Note_on_c, 1, 77, 0
3, 12240, Note_on_c, 1, 76, 92
3, 12240, Note_on_c, 1, 79, 92
3, 12340, Note_on_c, 1, 79, 0
3, 12340, Note_on_c, 1, 76, 0
3, 12360, Note_on_c, 1, 77, 92
3, 12360, Note_on_c, 1, 81, 92
3, 12460, Note_on_c, 1, 81, 0
3, 12460, Note_on_c, 1, 77, 0
3, 12480, Note_on_c, 1, 76, 92
3, 12480, Note_on_c, 1, 79, 92
3, 12580, Note_on_c, 1, 79, 0
3, 12580, Note_on_c, 1, 76, 0
3, 12600, Note_on_c, 1, 76, 92
3, 12600, Note_on_c, 1, 79, 92
3, 12810, Note_on_c, 1, 79, 0
3, 12810, Note_on_c, 1, 76, 0
3, 12840, Note_on_c, 1, 77, 92
3, 12840, Note_on_c, 1, 81, 92
3, 12940, Note_on_c, 1, 81, 0
3, 12940, Note_on_c, 1, 77, 0
3, 12960, Note_on_c, 1, 76, 92
3, 12960, Note_on_c, 1, 79, 92
3, 13060, Note_on_c, 1, 79, 0
3, 13060, Note_on_c, 1, 76, 0
3, 13080, Note_on_c, 1, 77, 92
3, 13080, Note_on_c, 1, 81, 92
3, 13180, Note_on_c, 1, 81, 0
3, 13180, Note_on_c, 1, 77, 0
3, 13200, Note_on_c, 1, 76, 92
3, 13200, Note_on_c, 1, 79, 92
3, 13300, Note_on_c, 1, 79, 0
3, 13300, Note_on_c, 1, 76, 0
3, 13320, Note_on_c, 1, 77, 92
3, 13320, Note_on_c, 1, 81, 92
3, 13420, Note_on_c, 1, 81, 0
3, 13420, Note_on_c, 1, 77, 0
3, 13440, Note_on_c, 1, 76, 60
3, 13500, Note_on_c, 1, 79, 60
3, 13540, Note_on_c, 1, 76, 0
3, 13560, Note_on_c, 1, 79, 0
3, 13560, Note_on_c, 1, 77, 60
3, 13620, Note_on_c, 1, 77, 0
3, 13620, Note_on_c, 1, 76, 60
3, 13680, Note_on_c, 1, 76, 0
3, 13680, Note_on_c, 1, 74, 60
3, 13740, Note_on_c, 1, 74, 0
3, 13740, Note_on_c, 1, 72, 60
3, 13800, Note_on_c, 1, 72, 0
3, 13800, Note_on_c, 1, 71, 60
3, 13860, Note_on_c, 1, 71, 0
3, 13860, Note_on_c, 1, 72, 60
3, 13918, Note_on_c, 1, 72, 0
3, 13920, Note_on_c, 1, 76, 60
3, 13980, Note_on_c, 1, 76, 0
3, 13980, Note_on_c, 1, 79, 60
3, 14040, Note_on_c, 1, 79, 0
3, 14040, Note_on_c, 1, 77, 60
3, 14100, Note_on_c, 1, 77, 0
3, 14100, Note_on_c, 1, 76, 60
3, 14160, Note_on_c, 1, 76, 0
3, 14160, Note_on_c, 1, 74, 60
3, 14220, Note_on_c, 1, 74, 0
3, 14220, Note_on_c, 1, 72, 60
3, 14280, Note_on_c, 1, 72, 0
3, 14280, Note_on_c, 1, 71, 60
3, 14340, Note_on_c, 1, 71, 0
3, 14340, Note_on_c, 1, 72, 60
3, 14398, Note_on_c, 1, 72, 0
3, 15360, Note_on_c, 1, 76, 60
3, 15420, Note_on_c, 1, 76, 0
3, 15420, Note_on_c, 1, 79, 60
3, 15480, Note_on_c, 1, 79, 0
3, 15480, Note_on_c, 1, 77, 60
3, 15540, Note_on_c, 1, 77, 0
3, 15540, Note_on_c, 1, 76, 60
3, 15600, Note_on_c, 1, 76, 0
3, 15600, Note_on_c, 1, 74, 60
3, 15660, Note_on_c, 1, 74, 0
3, 15660, Note_on_c, 1, 72, 60
3, 15720, Note_on_c, 1, 72, 0
3, 15720, Note_on_c, 1, 71, 60
3, 15780, Note_on_c, 1, 71, 0
3, 15780, Note_on_c, 1, 72, 60
3, 15838, Note_on_c, 1, 72, 0
3, 15840, Note_on_c, 1, 76, 60
3, 15900, Note_on_c, 1, 76, 0
3, 15900, Note_on_c, 1, 79, 60
3, 15960, Note_on_c, 1, 79, 0
3, 15960, Note_on_c, 1, 77, 60
3, 16020, Note_on_c, 1, 77, 0
3, 16020, Note_on_c, 1, 76, 60
3, 16080, Note_on_c, 1, 76, 0
3, 16080, Note_on_c, 1, 74, 60
3, 16140, Note_on_c, 1, 74, 0
3, 16140, Note_on_c, 1, 72, 60
3, 16200, Note_on_c, 1, 72, 0
3, 16200, Note_on_c, 1, 71, 60
3, 16260, Note_on_c, 1, 71, 0
3, 16260, Note_on_c, 1, 72, 60
3, 16318, Note_on_c, 1, 72, 0
3, 16320, Note_on_c, 1, 71, 60
3, 16320, Note_on_c, 1, 74, 60
3, 16560, Note_on_c, 1, 74, 0
3, 16560, Note_on_c, 1, 71, 0
3, 16560, Note_on_c, 1, 72, 60
3, 16560, Note_on_c, 1, 76, 60
3, 16800, Note_on_c, 1, 76, 0
3, 16800, Note_on_c, 1, 72, 0
3, 16800, Note_on_c, 1, 74, 60
3, 16800, Note_on_c, 1, 77, 60
3, 17040, Note_on_c, 1, 77, 0
3, 17040, Note_on_c, 1, 74, 0
3, 17040, Note_on_c, 1, 71, 60
3, 17040, Note_on_c, 1, 74, 60
3, 17250, Note_on_c, 1, 74, 0
3, 17250, Note_on_c, 1, 71, 0
3, 17280, Note_on_c, 1, 72, 60
3, 17280, Note_on_c, 1, 76, 60
3, 17340, Note_on_c, 1, 76, 0
3, 17340, Note_on_c, 1, 79, 60
3, 17380, Note_on_c, 1, 72, 0
3, 17400, Note_on_c, 1, 79, 0
3, 17400, Note_on_c, 1, 77, 60
3, 17460, Note_on_c, 1, 77, 0
3, 17460, Note_on_c, 1, 76, 60
3, 17520, Note_on_c, 1, 76, 0
3, 17520, Note_on_c, 1, 74, 60
3, 17580, Note_on_c, 1, 74, 0
3, 17580, Note_on_c, 1, 72, 60
3, 17640, Note_on_c, 1, 72, 0
3, 17640, Note_on_c, 1, 71, 60
3, 17700, Note_on_c, 1, 71, 0
3, 17700, Note_on_c, 1, 72, 60
3, 17758, Note_on_c, 1, 72, 0
3, 17760, Note_on_c, 1, 76, 60
3, 17820, Note_on_c, 1, 76, 0
3, 17820, Note_on_c, 1, 79, 60
3, 17880, Note_on_c, 1, 79, 0
3, 17880, Note_on_c, 1, 77, 60
3, 17940, Note_on_c, 1, 77, 0
3, 17940, Note_on_c, 1, 76, 60
3, 18000, Note_on_c, 1, 76, 0
3, 18000, Note_on_c, 1, 74, 60
3, 18060, Note_on_c, 1, 74, 0
3, 18060, Note_on_c, 1, 72, 60
3, 18120, Note_on_c, 1, 72, 0
3, 18120, Note_on_c, 1, 71, 60
3, 18180, Note_on_c, 1, 71, 0
3, 18180, Note_on_c, 1, 72, 60
3, 18238, Note_on_c, 1, 72, 0
3, 19200, Note_on_c, 1, 76, 60
3, 19260, Note_on_c, 1, 76, 0
3, 19260, Note_on_c, 1, 79, 60
3, 19320, Note_on_c, 1, 79, 0
3, 19320, Note_on_c, 1, 77, 60
3, 19380, Note_on_c, 1, 77, 0
3, 19380, Note_on_c, 1, 76, 60
3, 19440, Note_on_c, 1, 76, 0
3, 19440, Note_on_c, 1, 74, 60
3, 19500, Note_on_c, 1, 74, 0
3, 19500, Note_on_c, 1, 72, 60
3, 19560, Note_on_c, 1, 72, 0
3, 19560, Note_on_c, 1, 71, 60
3, 19620, Note_on_c, 1, 71, 0
3, 19620, Note_on_c, 1, 72, 60
3, 19678, Note_on_c, 1, 72, 0
3, 19680, Note_on_c, 1, 76, 60
3, 19740, Note_on_c, 1, 76, 0
3, 19740, Note_on_c, 1, 79, 60
3, 19800, Note_on_c, 1, 79, 0
3, 19800, Note_on_c, 1, 77, 60
3, 19860, Note_on_c, 1, 77, 0
3, 19860, Note_on_c, 1, 76, 60
3, 19920, Note_on_c, 1, 76, 0
3, 19920, Note_on_c, 1, 74, 60
3, 19980, Note_on_c, 1, 74, 0
3, 19980, Note_on_c, 1, 72, 60
3, 20040, Note_on_c, 1, 72, 0
3, 20040, Note_on_c, 1, 71, 60
3, 20100, Note_on_c, 1, 71, 0
3, 20100, Note_on_c, 1, 72, 60
3, 20158, Note_on_c, 1, 72, 0
3, 20160, Note_on_c, 1, 71, 60
3, 20160, Note_on_c, 1, 74, 60
3, 20370, Note_on_c, 1, 74, 0
3, 20370, Note_on_c, 1, 71, 0
3, 20400, Note_on_c, 1, 72, 60
3, 20400, Note_on_c, 1, 76, 60
3, 20610, Note_on_c, 1, 76, 0
3, 20610, Note_on_c, 1, 72, 0
3, 20640, Note_on_c, 1, 74, 60
3, 20640, Note_on_c, 1, 77, 60
3, 20850, Note_on_c, 1, 77, 0
3, 20850, Note_on_c, 1, 74, 0
3, 20880, Note_on_c, 1, 71, 60
3, 20880, Note_on_c, 1, 74, 60
3, 21090, Note_on_c, 1, 74, 0
3, 21090, Note_on_c, 1, 71, 0
3, 21120, Note_on_c, 1, 72, 60
3, 21220, Note_on_c, 1, 72, 0
3, 24960, Note_on_c, 1, 78, 92
3, 24960, Note_on_c, 1, 81, 92
3, 25060, Note_on_c, 1, 81, 0
3, 25060, Note_on_c, 1, 78, 0
3, 25080, Note_on_c, 1, 78, 92
3, 25080, Note_on_c, 1, 81, 92
3, 25290, Note_on_c, 1, 81, 0
3, 25290, Note_on_c, 1, 78, 0
3, 25320, Note_on_c, 1, 79, 92
3, 25320, Note_on_c, 1, 83, 92
3, 25420, Note_on_c, 1, 83, 0
3, 25420, Note_on_c, 1, 79, 0
3, 25440, Note_on_c, 1, 78, 92
3, 25440, Note_on_c, 1, 81, 92
3, 25540, Note_on_c, 1, 81, 0
3, 25540, Note_on_c, 1, 78, 0
3, 25560, Note_on_c, 1, 79, 92
3, 25560, Note_on_c, 1, 83, 92
3, 25660, Note_on_c, 1, 83, 0
3, 25660, Note_on_c, 1, 79, 0
3, 25680, Note_on_c, 1, 81, 92
3, 25680, Note_on_c, 1, 84, 92
3, 25780, Note_on_c, 1, 84, 0
3, 25780, Note_on_c, 1, 81, 0
3, 25800, Note_on_c, 1, 79, 92
3, 25800, Note_on_c, 1, 83, 92
3, 25900, Note_on_c, 1, 83, 0
3, 25900, Note_on_c, 1, 79, 0
3, 25920, Note_on_c, 1, 78, 92
3, 25920, Note_on_c, 1, 81, 92
3, 26020, Note_on_c, 1, 81, 0
3, 26020, Note_on_c, 1, 78, 0
3, 26040, Note_on_c, 1, 78, 92
3, 26040, Note_on_c, 1, 81, 92
3, 26250, Note_on_c, 1, 81, 0
3, 26250, Note_on_c, 1, 78, 0
3, 26280, Note_on_c, 1, 79, 92
3, 26280, Note_on_c, 1, 83, 92
3, 26380, Note_on_c, 1, 83, 0
3, 26380, Note_on_c, 1, 79, 0
3, 26400, Note_on_c, 1, 78, 92
3, 26400, Note_on_c, 1, 81, 92
3, 26500, Note_on_c, 1, 81, 0
3, 26500, Note_on_c, 1, 78, 0
3, 26520, Note_on_c, 1, 79, 92
3, 26520, Note_on_c, 1, 83, 92
3, 26620, Note_on_c, 1, 83, 0
3, 26620, Note_on_c, 1, 79, 0
3, 26640, Note_on_c, 1, 81, 92
3, 26640, Note_on_c, 1, 84, 92
3, 26740, Note_on_c, 1, 84, 0
3, 26740, Note_on_c, 1, 81, 0
3, 26760, Note_on_c, 1, 79, 92
3, 26760, Note_on_c, 1, 83, 92
3, 26860, Note_on_c, 1, 83, 0
3, 26860, Note_on_c, 1, 79, 0
3, 26880, Note_on_c, 1, 78, 92
3, 26880, Note_on_c, 1, 81, 92
3, 26980, Note_on_c, 1, 81, 0
3, 26980, Note_on_c, 1, 78, 0
3, 27000, Note_on_c, 1, 74, 60
3, 27210, Note_on_c, 1, 74, 0
3, 27240, Note_on_c, 1, 74, 60
3, 27460, Note_on_c, 1, 74, 0
3, 27480, Note_on_c, 1, 74, 60
3, 27580, Note_on_c, 1, 74, 0
3, 27600, Note_on_c, 1, 74, 60
3, 27700, Note_on_c, 1, 74, 0
3, 27720, Note_on_c, 1, 74, 60
3, 27840, Note_on_c, 1, 75, 60
3, 27940, Note_on_c, 1, 75, 0
3, 27940, Note_on_c, 1, 74, 0
3, 27960, Note_on_c, 1, 74, 60
3, 27960, Note_on_c, 1, 75, 60
3, 28170, Note_on_c, 1, 75, 0
3, 28170, Note_on_c, 1, 74, 0
3, 28200, Note_on_c, 1, 74, 60
3, 28200, Note_on_c, 1, 75, 60
3, 28320, Note_on_c, 1, 74, 0
3, 28320, Note_on_c, 1, 72, 60
3, 28420, Note_on_c, 1, 72, 0
3, 28420, Note_on_c, 1, 75, 0
3, 28440, Note_on_c, 1, 72, 60
3, 28440, Note_on_c, 1, 75, 60
3, 28540, Note_on_c, 1, 75, 0
3, 28540, Note_on_c, 1, 72, 0
3, 28560, Note_on_c, 1, 72, 60
3, 28560, Note_on_c, 1, 75, 60
3, 28660, Note_on_c, 1, 75, 0
3, 28660, Note_on_c, 1, 72, 0
3, 28680, Note_on_c, 1, 72, 60
3, 28680, Note_on_c, 1, 75, 60
3, 28800, Note_on_c, 1, 75, 0
3, 28800, Note_on_c, 1, 74, 60
3, 28900, Note_on_c, 1, 74, 0
3, 28900, Note_on_c, 1, 72, 0
3, 28920, Note_on_c, 1, 72, 60
3, 28920, Note_on_c, 1, 74, 60
3, 29130, Note_on_c, 1, 74, 0
3, 29130, Note_on_c, 1, 72, 0
3, 29160, Note_on_c, 1, 72, 60
3, 29160, Note_on_c, 1, 74, 60
3, 29280, Note_on_c, 1, 72, 0
3, 29280, Note_on_c, 1, 70, 60
3, 29380, Note_on_c, 1, 70, 0
3, 29380, Note_on_c, 1, 74, 0
3, 29400, Note_on_c, 1, 70, 60
3, 29400, Note_on_c, 1, 74, 60
3, 29500, Note_on_c, 1, 74, 0
3, 29500, Note_on_c, 1, 70, 0
3, 29520, Note_on_c, 1, 70, 60
3, 29520, Note_on_c, 1, 74, 60
3, 29620, Note_on_c, 1, 74, 0
3, 29620, Note_on_c, 1, 70, 0
3, 29640, Note_on_c, 1, 70, 60
3, 29640, Note_on_c, 1, 74, 60
3, 29760, Note_on_c, 1, 74, 0
3, 29760, Note_on_c, 1, 72, 60
3, 29860, Note_on_c, 1, 72, 0
3, 29860, Note_on_c, 1, 70, 0
3, 29880, Note_on_c, 1, 70, 60
3, 29880, Note_on_c, 1, 72, 60
3, 30090, Note_on_c, 1, 72, 0
3, 30090, Note_on_c, 1, 70, 0
3, 30120, Note_on_c, 1, 70, 60
3, 30120, Note_on_c, 1, 72, 60
3, 30240, Note_on_c, 1, 70, 0
3, 30240, Note_on_c, 1, 69, 60
3, 30340, Note_on_c, 1, 69, 0
3, 30340, Note_on_c, 1, 72, 0
3, 30360, Note_on_c, 1, 69, 60
3, 30360, Note_on_c, 1, 72, 60
3, 30460, Note_on_c, 1, 72, 0
3, 30460, Note_on_c, 1, 69, 0
3, 30480, Note_on_c, 1, 69, 60
3, 30480, Note_on_c, 1, 72, 60
3, 30580, Note_on_c, 1, 72, 0
3, 30580, Note_on_c, 1, 69, 0
3, 30600, Note_on_c, 1, 69, 60
3, 30600, Note_on_c, 1, 72, 60
3, 30700, Note_on_c, 1, 72, 0
3, 30700, Note_on_c, 1, 69, 0
3, 30720, Note_on_c, 1, 67, 60
3, 30720, Note_on_c, 1, 71, 60
3, 30820, Note_on_c, 1, 71, 0
3, 30820, Note_on_c, 1, 67, 0
3, 30840, Note_on_c, 1, 74, 92
3, 30840, Note_on_c, 1, 83, 92
3, 31050, Note_on_c, 1, 83, 0
3, 31050, Note_on_c, 1, 74, 0
3, 31080, Note_on_c, 1, 74, 92
3, 31080, Note_on_c, 1, 82, 92
3, 31180, Note_on_c, 1, 82, 0
3, 31180, Note_on_c, 1, 74, 0
3, 31200, Note_on_c, 1, 74, 92
3, 31200, Note_on_c, 1, 83, 92
3, 31300, Note_on_c, 1, 83, 0
3, 31300, Note_on_c, 1, 74, 0
3, 31320, Note_on_c, 1, 74, 92
3, 31320, Note_on_c, 1, 82, 92
3, 31420, Note_on_c, 1, 82, 0
3, 31420, Note_on_c, 1, 74, 0
3, 31440, Note_on_c, 1, 74, 92
3, 31440, Note_on_c, 1, 83, 92
3, 31540, Note_on_c, 1, 83, 0
3, 31540, Note_on_c, 1, 74, 0
3, 31560, Note_on_c, 1, 78, 92
3, 31560, Note_on_c, 1, 83, 92
3, 31660, Note_on_c, 1, 83, 0
3, 31660, Note_on_c, 1, 78, 0
3, 31680, Note_on_c, 1, 79, 92
3, 31680, Note_on_c, 1, 83, 92
3, 31780, Note_on_c, 1, 83, 0
3, 31780, Note_on_c, 1, 79, 0
3, 31800, Note_on_c, 1, 79, 92
3, 31800, Note_on_c, 1, 83, 92
3, 32010, Note_on_c, 1, 83, 0
3, 32010, Note_on_c, 1, 79, 0
3, 32040, Note_on_c, 1, 78, 92
3, 32040, Note_on_c, 1, 83, 92
3, 32140, Note_on_c, 1, 83, 0
3, 32140, Note_on_c, 1, 78, 0
3, 32160, Note_on_c, 1, 79, 92
3, 32160, Note_on_c, 1, 83, 92
3, 32260, Note_on_c, 1, 83, 0
3, 32260, Note_on_c, 1, 79, 0
3, 32280, Note_on_c, 1, 78, 92
3, 32280, Note_on_c, 1, 83, 92
3, 32380, Note_on_c, 1, 83, 0
3, 32380, Note_on_c, 1, 78, 0
3, 32400, Note_on_c, 1, 79, 92
3, 32400, Note_on_c, 1, 83, 92
3, 32500, Note_on_c, 1, 83, 0
3, 32500, Note_on_c, 1, 79, 0
3, 32520, Note_on_c, 1, 75, 92
3, 32520, Note_on_c, 1, 79, 92
3, 32620, Note_on_c, 1, 79, 0
3, 32620, Note_on_c, 1, 75, 0
3, 32640, Note_on_c, 1, 76, 92
3, 32640, Note_on_c, 1, 79, 92
3, 32740, Note_on_c, 1, 79, 0
3, 32740, Note_on_c, 1, 76, 0
3, 32760, Note_on_c, 1, 76, 92
3, 32760, Note_on_c, 1, 79, 92
3, 32970, Note_on_c, 1, 79, 0
3, 32970, Note_on_c, 1, 76, 0
3, 33000, Note_on_c, 1, 75, 92
3, 33000, Note_on_c, 1, 79, 92
3, 33100, Note_on_c, 1, 79, 0
3, 33100, Note_on_c, 1, 75, 0
3, 33120, Note_on_c, 1, 76, 92
3, 33120, Note_on_c, 1, 79, 92
3, 33220, Note_on_c, 1, 79, 0
3, 33220, Note_on_c, 1, 76, 0
3, 33240, Note_on_c, 1, 75, 92
3, 33240, Note_on_c, 1, 79, 92
3, 33340, Note_on_c, 1, 79, 0
3, 33340, Note_on_c, 1, 75, 0
3, 33360, Note_on_c, 1, 76, 92
3, 33360, Note_on_c, 1, 79, 92
3, 33460, Note_on_c, 1, 79, 0
3, 33460, Note_on_c, 1, 76, 0
3, 33480, Note_on_c, 1, 77, 92
3, 33480, Note_on_c, 1, 80, 92
3, 33580, Note_on_c, 1, 80, 0
3, 33580, Note_on_c, 1, 77, 0
3, 33600, Note_on_c, 1, 76, 92
3, 33600, Note_on_c, 1, 81, 92
3, 33720, Note_on_c, 1, 81, 0
3, 33720, Note_on_c, 1, 83, 92
3, 33840, Note_on_c, 1, 83, 0
3, 33840, Note_on_c, 1, 84, 92
3, 33930, Note_on_c, 1, 76, 0
3, 33960, Note_on_c, 1, 84, 0
3, 33960, Note_on_c, 1, 82, 92
3, 33960, Note_on_c, 1, 85, 92
3, 34060, Note_on_c, 1, 85, 0
3, 34060, Note_on_c, 1, 82, 0
3, 34080, Note_on_c, 1, 81, 92
3, 34080, Note_on_c, 1, 86, 92
3, 34180, Note_on_c, 1, 86, 0
3, 34180, Note_on_c, 1, 81, 0
3, 34200, Note_on_c, 1, 78, 92
3, 34200, Note_on_c, 1, 83, 92
3, 34300, Note_on_c, 1, 83, 0
3, 34300, Note_on_c, 1, 78, 0
3, 34320, Note_on_c, 1, 79, 92
3, 34320, Note_on_c, 1, 84, 92
3, 34420, Note_on_c, 1, 84, 0
3, 34420, Note_on_c, 1, 79, 0
3, 34440, Note_on_c, 1, 74, 92
3, 34440, Note_on_c, 1, 81, 92
3, 34540, Note_on_c, 1, 81, 0
3, 34540, Note_on_c, 1, 74, 0
3, 34560, Note_on_c, 1, 79, 92
3, 34560, Note_on_c, 1, 83, 92
3, 35490, Note_on_c, 1, 83, 0
3, 35520, Note_on_c, 1, 81, 92
3, 35730, Note_on_c, 1, 79, 0
3, 35760, Note_on_c, 1, 78, 92
3, 35970, Note_on_c, 1, 78, 0
3, 35970, Note_on_c, 1, 81, 0
3, 36000, Note_on_c, 1, 79, 92
3, 36000, Note_on_c, 1, 83, 92
3, 36930, Note_on_c, 1, 83, 0
3, 36960, Note_on_c, 1, 81, 92
3, 37170, Note_on_c, 1, 79, 0
3, 37200, Note_on_c, 1, 78, 92
3, 37410, Note_on_c, 1, 78, 0
3, 37410, Note_on_c, 1, 81, 0
3, 37440, Note_on_c, 1, 79, 92
3, 37540, Note_on_c, 1, 79, 0
3, 38400, Note_on_c, 1, 76, 60
3, 38460, Note_on_c, 1, 76, 0
3, 38460, Note_on_c, 1, 79, 60
3, 38520, Note_on_c, 1, 79, 0
3, 38520, Note_on_c, 1, 77, 60
3, 38580, Note_on_c, 1, 77, 0
3, 38580, Note_on_c, 1, 76, 60
3, 38640, Note_on_c, 1, 76, 0
3, 38640, Note_on_c, 1, 74, 60
3, 38700, Note_on_c, 1, 74, 0
3, 38700, Note_on_c, 1, 72, 60
3, 38760, Note_on_c, 1, 72, 0
3, 38760, Note_on_c, 1, 71, 60
3, 38820, Note_on_c, 1, 71, 0
3, 38820, Note_on_c, 1, 72, 60
3, 38878, Note_on_c, 1, 72, 0
3, 38880, Note_on_c, 1, 76, 60
3, 38940, Note_on_c, 1, 76, 0
3, 38940, Note_on_c, 1, 79, 60
3, 39000, Note_on_c, 1, 79, 0
3, 39000, Note_on_c, 1, 77, 60
3, 39060, Note_on_c, 1, 77, 0
3, 39060, Note_on_c, 1, 76, 60
3, 39120, Note_on_c, 1, 76, 0
3, 39120, Note_on_c, 1, 74, 60
3, 39180, Note_on_c, 1, 74, 0
3, 39180, Note_on_c, 1, 72, 60
3, 39240, Note_on_c, 1, 72, 0
3, 39240, Note_on_c, 1, 71, 60
3, 39300, Note_on_c, 1, 71, 0
3, 39300, Note_on_c, 1, 72, 60
3, 39358, Note_on_c, 1, 72, 0
3, 40320, Note_on_c, 1, 74, 60
3, 40380, Note_on_c, 1, 74, 0
3, 40380, Note_on_c, 1, 76, 60
3, 40440, Note_on_c, 1, 76, 0
3, 40440, Note_on_c, 1, 74, 60
3, 40500, Note_on_c, 1, 74, 0
3, 40500, Note_on_c, 1, 76, 60
3, 40560, Note_on_c, 1, 76, 0
3, 40560, Note_on_c, 1, 74, 60
3, 40620, Note_on_c, 1, 74, 0
3, 40620, Note_on_c, 1, 76, 60
3, 40680, Note_on_c, 1, 76, 0
3, 40680, Note_on_c, 1, 74, 60
3, 40740, Note_on_c, 1, 74, 0
3, 40740, Note_on_c, 1, 76, 60
3, 40800, Note_on_c, 1, 76, 0
3, 40800, Note_on_c, 1, 74, 60
3, 40860, Note_on_c, 1, 74, 0
3, 40860, Note_on_c, 1, 76, 60
3, 40920, Note_on_c, 1, 76, 0
3, 40920, Note_on_c, 1, 74, 60
3, 40980, Note_on_c, 1, 74, 0
3, 40980, Note_on_c, 1, 76, 60
3, 41040, Note_on_c, 1, 76, 0
3, 41040, Note_on_c, 1, 74, 60
3, 41100, Note_on_c, 1, 74, 0
3, 41100, Note_on_c, 1, 72, 60
3, 41160, Note_on_c, 1, 72, 0
3, 41160, Note_on_c, 1, 71, 60
3, 41220, Note_on_c, 1, 71, 0
3, 41220, Note_on_c, 1, 69, 60
3, 41278, Note_on_c, 1, 69, 0
3, 41280, Note_on_c, 1, 67, 60
3, 41380, Note_on_c, 1, 67, 0
3, 42240, Note_on_c, 1, 76, 60
3, 42300, Note_on_c, 1, 76, 0
3, 42300, Note_on_c, 1, 79, 60
3, 42360, Note_on_c, 1, 79, 0
3, 42360, Note_on_c, 1, 77, 60
3, 42420, Note_on_c, 1, 77, 0
3, 42420, Note_on_c, 1, 76, 60
3, 42480, Note_on_c, 1, 76, 0
3, 42480, Note_on_c, 1, 74, 60
3, 42540, Note_on_c, 1, 74, 0
3, 42540, Note_on_c, 1, 72, 60
3, 42600, Note_on_c, 1, 72, 0
3, 42600, Note_on_c, 1, 71, 60
3, 42660, Note_on_c, 1, 71, 0
3, 42660, Note_on_c, 1, 72, 60
3, 42718, Note_on_c, 1, 72, 0
3, 42720, Note_on_c, 1, 76, 60
3, 42780, Note_on_c, 1, 76, 0
3, 42780, Note_on_c, 1, 79, 60
3, 42840, Note_on_c, 1, 79, 0
3, 42840, Note_on_c, 1, 77, 60
3, 42900, Note_on_c, 1, 77, 0
3, 42900, Note_on_c, 1, 76, 60
3, 42960, Note_on_c, 1, 76, 0
3, 42960, Note_on_c, 1, 74, 60
3, 43020, Note_on_c, 1, 74, 0
3, 43020, Note_on_c, 1, 72, 60
3, 43080, Note_on_c, 1, 72, 0
3, 43080, Note_on_c, 1, 71, 60
3, 43140, Note_on_c, 1, 71, 0
3, 43140, Note_on_c, 1, 72, 60
3, 43198, Note_on_c, 1, 72, 0
3, 44160, Note_on_c, 1, 74, 60
3, 44220, Note_on_c, 1, 74, 0
3, 44220, Note_on_c, 1, 76, 60
3, 44280, Note_on_c, 1, 76, 0
3, 44280, Note_on_c, 1, 74, 60
3, 44340, Note_on_c, 1, 74, 0
3, 44340, Note_on_c, 1, 76, 60
3, 44400, Note_on_c, 1, 76, 0
3, 44400, Note_on_c, 1, 74, 60
3, 44460, Note_on_c, 1, 74, 0
3, 44460, Note_on_c, 1, 76, 60
3, 44520, Note_on_c, 1, 76, 0
3, 44520, Note_on_c, 1, 74, 60
3, 44580, Note_on_c, 1, 74, 0
3, 44580, Note_on_c, 1, 76, 60
3, 44640, Note_on_c, 1, 76, 0
3, 44640, Note_on_c, 1, 74, 60
3, 44700, Note_on_c, 1, 74, 0
3, 44700, Note_on_c, 1, 76, 60
3, 44760, Note_on_c, 1, 76, 0
3, 44760, Note_on_c, 1, 74, 60
3, 44820, Note_on_c, 1, 74, 0
3, 44820, Note_on_c, 1, 76, 60
3, 44880, Note_on_c, 1, 76, 0
3, 44880, Note_on_c, 1, 74, 60
3, 44940, Note_on_c, 1, 74, 0
3, 44940, Note_on_c, 1, 72, 60
3, 45000, Note_on_c, 1, 72, 0
3, 45000, Note_on_c, 1, 71, 60
3, 45060, Note_on_c, 1, 71, 0
3, 45060, Note_on_c, 1, 69, 60
3, 45118, Note_on_c, 1, 69, 0
3, 45120, Note_on_c, 1, 67, 60
3, 45220, Note_on_c, 1, 67, 0
3, 48000, Note_on_c, 1, 71, 92
3, 48000, Note_on_c, 1, 80, 92
3, 48100, Note_on_c, 1, 80, 0
3, 48100, Note_on_c, 1, 71, 0
3, 48120, Note_on_c, 1, 71, 92
3, 48120, Note_on_c, 1, 80, 92
3, 48330, Note_on_c, 1, 80, 0
3, 48330, Note_on_c, 1, 71, 0
3, 48360, Note_on_c, 1, 72, 92
3, 48360, Note_on_c, 1, 81, 92
3, 48460, Note_on_c, 1, 81, 0
3, 48460, Note_on_c, 1, 72, 0
3, 48480, Note_on_c, 1, 71, 92
3, 48480, Note_on_c, 1, 80, 92
3, 48580, Note_on_c, 1, 80, 0
3, 48580, Note_on_c, 1, 71, 0
3, 48600, Note_on_c, 1, 72, 92
3, 48600, Note_on_c, 1, 81, 92
3, 48700, Note_on_c, 1, 81, 0
3, 48700, Note_on_c, 1, 72, 0
3, 48720, Note_on_c, 1, 74, 92
3, 48720, Note_on_c, 1, 83, 92
3, 48820, Note_on_c, 1, 83, 0
3, 48820, Note_on_c, 1, 74, 0
3, 48840, Note_on_c, 1, 72, 92
3, 48840, Note_on_c, 1, 81, 92
3, 48940, Note_on_c, 1, 81, 0
3, 48940, Note_on_c, 1, 72, 0
3, 48960, Note_on_c, 1, 71, 92
3, 48960, Note_on_c, 1, 80, 92
3, 49060, Note_on_c, 1, 80, 0
3, 49060, Note_on_c, 1, 71, 0
3, 49080, Note_on_c, 1, 71, 92
3, 49080, Note_on_c, 1, 80, 92
3, 49290, Note_on_c, 1, 80, 0
3, 49290, Note_on_c, 1, 71, 0
3, 49320, Note_on_c, 1, 72, 92
3, 49320, Note_on_c, 1, 81, 92
3, 49420, Note_on_c, 1, 81, 0
3, 49420, Note_on_c, 1, 72, 0
3, 49440, Note_on_c, 1, 71, 92
3, 49440, Note_on_c, 1, 80, 92
3, 49540, Note_on_c, 1, 80, 0
3, 49540, Note_on_c, 1, 71, 0
3, 49560, Note_on_c, 1, 72, 92
3, 49560, Note_on_c, 1, 81, 92
3, 49660, Note_on_c, 1, 81, 0
3, 49660, Note_on_c, 1, 72, 0
3, 49680, Note_on_c, 1, 74, 92
3, 49680, Note_on_c, 1, 83, 92
3, 49780, Note_on_c, 1, 83, 0
3, 49780, Note_on_c, 1, 74, 0
3, 49800, Note_on_c, 1, 72, 92
3, 49800, Note_on_c, 1, 81, 92
3, 49900, Note_on_c, 1, 81, 0
3, 49900, Note_on_c, 1, 72, 0
3, 49920, Note_on_c, 1, 71, 92
3, 49920, Note_on_c, 1, 80, 92
3, 50020, Note_on_c, 1, 80, 0
3, 50020, Note_on_c, 1, 71, 0
3, 53760, Note_on_c, 1, 69, 92
3, 53760, Note_on_c, 1, 81, 92
3, 53860, Note_on_c, 1, 81, 0
3, 53860, Note_on_c, 1, 69, 0
3, 53880, Note_on_c, 1, 69, 92
3, 53880, Note_on_c, 1, 81, 92
3, 54090, Note_on_c, 1, 81, 0
3, 54090, Note_on_c, 1, 69, 0
3, 54120, Note_on_c, 1, 69, 92
3, 54120, Note_on_c, 1, 81, 92
3, 54220, Note_on_c, 1, 81, 0
3, 54220, Note_on_c, 1, 69, 0
3, 54240, Note_on_c, 1, 69, 92
3, 54240, Note_on_c, 1, 81, 92
3, 54340, Note_on_c, 1, 81, 0
3, 54340, Note_on_c, 1, 69, 0
3, 54360, Note_on_c, 1, 69, 92
3, 54360, Note_on_c, 1, 81, 92
3, 54460, Note_on_c, 1, 81, 0
3, 54460, Note_on_c, 1, 69, 0
3, 54480, Note_on_c, 1, 69, 92
3, 54480, Note_on_c, 1, 81, 92
3, 54580, Note_on_c, 1, 81, 0
3, 54580, Note_on_c, 1, 69, 0
3, 54600, Note_on_c, 1, 69, 92
3, 54600, Note_on_c, 1, 81, 92
3, 54700, Note_on_c, 1, 81, 0
3, 54700, Note_on_c, 1, 69, 0
3, 54720, Note_on_c, 1, 69, 92
3, 54720, Note_on_c, 1, 81, 92
3, 54820, Note_on_c, 1, 81, 0
3, 54820, Note_on_c, 1, 69, 0
3, 57600, Note_on_c, 1, 78, 92
3, 57600, Note_on_c, 1, 81, 92
3, 57700, Note_on_c, 1, 81, 0
3, 57700, Note_on_c, 1, 78, 0
3, 57720, Note_on_c, 1, 78, 92
3, 57720, Note_on_c, 1, 81, 92
3, 57930, Note_on_c, 1, 81, 0
3, 57930, Note_on_c, 1, 78, 0
3, 57960, Note_on_c, 1, 79, 92
3, 57960, Note_on_c, 1, 82, 92
3, 58060, Note_on_c, 1, 82, 0
3, 58060, Note_on_c, 1, 79, 0
3, 58080, Note_on_c, 1, 78, 92
3, 58080, Note_on_c, 1, 81, 92
3, 58180, Note_on_c, 1, 81, 0
3, 58180, Note_on_c, 1, 78, 0
3, 58200, Note_on_c, 1, 79, 92
3, 58200, Note_on_c, 1, 82, 92
3, 58300, Note_on_c, 1, 82, 0
3, 58300, Note_on_c, 1, 79, 0
3, 58320, Note_on_c, 1, 78, 92
3, 58320, Note_on_c, 1, 81, 92
3, 58420, Note_on_c, 1, 81, 0
3, 58420, Note_on_c, 1, 78, 0
3, 58440, Note_on_c, 1, 79, 92
3, 58440, Note_on_c, 1, 82, 92
3, 58540, Note_on_c, 1, 82, 0
3, 58540, Note_on_c, 1, 79, 0
3, 58560, Note_on_c, 1, 78, 92
3, 58560, Note_on_c, 1, 81, 92
3, 58660, Note_on_c, 1, 81, 0
3, 58660, Note_on_c, 1, 78, 0
3, 59520, Note_on_c, 1, 67, 60
3, 59580, Note_on_c, 1, 67, 0
3, 59580, Note_on_c, 1, 69, 60
3, 59640, Note_on_c, 1, 69, 0
3, 59640, Note_on_c, 1, 70, 60
3, 59700, Note_on_c, 1, 70, 0
3, 59700, Note_on_c, 1, 69, 60
3, 59760, Note_on_c, 1, 69, 0
3, 59760, Note_on_c, 1, 67, 60
3, 59860, Note_on_c, 1, 67, 0
3, 60000, Note_on_c, 1, 69, 60
3, 60060, Note_on_c, 1, 69, 0
3, 60060, Note_on_c, 1, 70, 60
3, 60120, Note_on_c, 1, 70, 0
3, 60120, Note_on_c, 1, 72, 60
3, 60180, Note_on_c, 1, 72, 0
3, 60180, Note_on_c, 1, 70, 60
3, 60240, Note_on_c, 1, 70, 0
3, 60240, Note_on_c, 1, 69, 60
3, 60300, Note_on_c, 1, 69, 0
3, 60300, Note_on_c, 1, 70, 60
3, 60360, Note_on_c, 1, 70, 0
3, 60360, Note_on_c, 1, 69, 60
3, 60420, Note_on_c, 1, 69, 0
3, 60420, Note_on_c, 1, 67, 60
3, 60480, Note_on_c, 1, 67, 0
3, 60480, Note_on_c, 1, 66, 60
3, 60540, Note_on_c, 1, 66, 0
3, 60540, Note_on_c, 1, 67, 60
3, 60600, Note_on_c, 1, 67, 0
3, 60600, Note_on_c, 1, 69, 60
3, 60660, Note_on_c, 1, 69, 0
3, 60660, Note_on_c, 1, 67, 60
3, 60720, Note_on_c, 1, 67, 0
3, 60720, Note_on_c, 1, 66, 60
3, 60820, Note_on_c, 1, 66, 0
3, 60960, Note_on_c, 1, 67, 60
3, 61020, Note_on_c, 1, 67, 0
3, 61020, Note_on_c, 1, 69, 60
3, 61080, Note_on_c, 1, 69, 0
3, 61080, Note_on_c, 1, 70, 60
3, 61140, Note_on_c, 1, 70, 0
3, 61140, Note_on_c, 1, 69, 60
3, 61200, Note_on_c, 1, 69, 0
3, 61200, Note_on_c, 1, 67, 60
3, 61260, Note_on_c, 1, 67, 0
3, 61260, Note_on_c, 1, 69, 60
3, 61320, Note_on_c, 1, 69, 0
3, 61320, Note_on_c, 1, 67, 60
3, 61380, Note_on_c, 1, 67, 0
3, 61380, Note_on_c, 1, 65, 60
3, 61440, Note_on_c, 1, 65, 0
3, 61440, Note_on_c, 1, 64, 60
3, 61500, Note_on_c, 1, 64, 0
3, 61500, Note_on_c, 1, 66, 60
3, 61560, Note_on_c, 1, 66, 0
3, 61560, Note_on_c, 1, 67, 60
3, 61620, Note_on_c, 1, 67, 0
3, 61620, Note_on_c, 1, 66, 60
3, 61680, Note_on_c, 1, 66, 0
3, 61680, Note_on_c, 1, 64, 60
3, 61780, Note_on_c, 1, 64, 0
3, 61920, Note_on_c, 1, 66, 60
3, 61980, Note_on_c, 1, 66, 0
3, 61980, Note_on_c, 1, 67, 60
3, 62040, Note_on_c, 1, 67, 0
3, 62040, Note_on_c, 1, 69, 60
3, 62100, Note_on_c, 1, 69, 0
3, 62100, Note_on_c, 1, 67, 60
3, 62160, Note_on_c, 1, 67, 0
3, 62160, Note_on_c, 1, 66, 60
3, 62220, Note_on_c, 1, 66, 0
3, 62220, Note_on_c, 1, 62, 60
3, 62280, Note_on_c, 1, 62, 0
3, 62280, Note_on_c, 1, 64, 60
3, 62340, Note_on_c, 1, 64, 0
3, 62340, Note_on_c, 1, 66, 60
3, 62398, Note_on_c, 1, 66, 0
3, 62400, Note_on_c, 1, 67, 92
3, 62500, Note_on_c, 1, 67, 0
3, 62520, Note_on_c, 1, 79, 92
3, 62520, Note_on_c, 1, 83, 92
3, 62730, Note_on_c, 1, 83, 0
3, 62730, Note_on_c, 1, 79, 0
3, 62760, Note_on_c, 1, 79, 92
3, 62760, Note_on_c, 1, 84, 92
3, 62860, Note_on_c, 1, 84, 0
3, 62860, Note_on_c, 1, 79, 0
3, 62880, Note_on_c, 1, 79, 92
3, 62880, Note_on_c, 1, 83, 92
3, 62980, Note_on_c, 1, 83, 0
3, 62980, Note_on_c, 1, 79, 0
3, 63000, Note_on_c, 1, 79, 92
3, 63000, Note_on_c, 1, 84, 92
3, 63100, Note_on_c, 1, 84, 0
3, 63100, Note_on_c, 1, 79, 0
3, 63120, Note_on_c, 1, 79, 92
3, 63120, Note_on_c, 1, 83, 92
3, 63220, Note_on_c, 1, 83, 0
3, 63220, Note_on_c, 1, 79, 0
3, 63240, Note_on_c, 1, 79, 92
3, 63240, Note_on_c, 1, 84, 92
3, 63340, Note_on_c, 1, 84, 0
3, 63340, Note_on_c, 1, 79, 0
3, 63360, Note_on_c, 1, 79, 92
3, 63360, Note_on_c, 1, 83, 92
3, 63460, Note_on_c, 1, 83, 0
3, 63460, Note_on_c, 1, 79, 0
3, 66240, Note_on_c, 1, 76, 92
3, 66240, Note_on_c, 1, 79, 92
3, 66340, Note_on_c, 1, 79, 0
3, 66340, Note_on_c, 1, 76, 0
3, 66360, Note_on_c, 1, 76, 92
3, 66360, Note_on_c, 1, 79, 92
3, 66570, Note_on_c, 1, 79, 0
3, 66570, Note_on_c, 1, 76, 0
3, 66600, Note_on_c, 1, 77, 92
3, 66600, Note_on_c, 1, 80, 92
3, 66700, Note_on_c, 1, 80, 0
3, 66700, Note_on_c, 1, 77, 0
3, 66720, Note_on_c, 1, 76, 92
3, 66720, Note_on_c, 1, 79, 92
3, 66820, Note_on_c, 1, 79, 0
3, 66820, Note_on_c, 1, 76, 0
3, 66840, Note_on_c, 1, 77, 92
3, 66840, Note_on_c, 1, 80, 92
3, 66940, Note_on_c, 1, 80, 0
3, 66940, Note_on_c, 1, 77, 0
3, 66960, Note_on_c, 1, 76, 92
3, 66960, Note_on_c, 1, 79, 92
3, 67060, Note_on_c, 1, 79, 0
3, 67060, Note_on_c, 1, 76, 0
3, 67080, Note_on_c, 1, 77, 92
3, 67080, Note_on_c, 1, 80, 92
3, 67180, Note_on_c, 1, 80, 0
3, 67180, Note_on_c, 1, 77, 0
3, 67200, Note_on_c, 1, 76, 92
3, 67200, Note_on_c, 1, 79, 92
3, 67300, Note_on_c, 1, 79, 0
3, 67300, Note_on_c, 1, 76, 0
3, 72000, Note_on_c, 1, 74, 60
3, 72060, Note_on_c, 1, 74, 0
3, 72060, Note_on_c, 1, 77, 60
3, 72120, Note_on_c, 1, 77, 0
3, 72120, Note_on_c, 1, 75, 60
3, 72180, Note_on_c, 1, 75, 0
3, 72180, Note_on_c, 1, 74, 60
3, 72240, Note_on_c, 1, 74, 0
3, 72240, Note_on_c, 1, 72, 60
3, 72300, Note_on_c, 1, 72, 0
3, 72300, Note_on_c, 1, 70, 60
3, 72360, Note_on_c, 1, 70, 0
3, 72360, Note_on_c, 1, 69, 60
3, 72420, Note_on_c, 1, 69, 0
3, 72420, Note_on_c, 1, 70, 60
3, 72478, Note_on_c, 1, 70, 0
3, 72480, Note_on_c, 1, 74, 60
3, 72540, Note_on_c, 1, 74, 0
3, 72540, Note_on_c, 1, 77, 60
3, 72600, Note_on_c, 1, 77, 0
3, 72600, Note_on_c, 1, 75, 60
3, 72660, Note_on_c, 1, 75, 0
3, 72660, Note_on_c, 1, 74, 60
3, 72720, Note_on_c, 1, 74, 0
3, 72720, Note_on_c, 1, 72, 60
3, 72780, Note_on_c, 1, 72, 0
3, 72780, Note_on_c, 1, 70, 60
3, 72840, Note_on_c, 1, 70, 0
3, 72840, Note_on_c, 1, 69, 60
3, 72900, Note_on_c, 1, 69, 0
3, 72900, Note_on_c, 1, 70, 60
3, 72958, Note_on_c, 1, 70, 0
3, 75840, Note_on_c, 1, 74, 60
3, 75900, Note_on_c, 1, 74, 0
3, 75900, Note_on_c, 1, 77, 60
3, 75960, Note_on_c, 1, 77, 0
3, 75960, Note_on_c, 1, 75, 60
3, 76020, Note_on_c, 1, 75, 0
3, 76020, Note_on_c, 1, 74, 60
3, 76080, Note_on_c, 1, 74, 0
3, 76080, Note_on_c, 1, 72, 60
3, 76140, Note_on_c, 1, 72, 0
3, 76140, Note_on_c, 1, 70, 60
3, 76200, Note_on_c, 1, 70, 0
3, 76200, Note_on_c, 1, 69, 60
3, 76260, Note_on_c, 1, 69, 0
3, 76260, Note_on_c, 1, 70, 60
3, 76318, Note_on_c, 1, 70, 0
3, 76320, Note_on_c, 1, 74, 60
3, 76380, Note_on_c, 1, 74, 0
3, 76380, Note_on_c, 1, 77, 60
3, 76440, Note_on_c, 1, 77, 0
3, 76440, Note_on_c, 1, 75, 60
3, 76500, Note_on_c, 1, 75, 0
3, 76500, Note_on_c, 1, 74, 60
3, 76560, Note_on_c, 1, 74, 0
3, 76560, Note_on_c, 1, 72, 60
3, 76620, Note_on_c, 1, 72, 0
3, 76620, Note_on_c, 1, 70, 60
3, 76680, Note_on_c, 1, 70, 0
3, 76680, Note_on_c, 1, 69, 60
3, 76740, Note_on_c, 1, 69, 0
3, 76740, Note_on_c, 1, 70, 60
3, 76798, Note_on_c, 1, 70, 0
3, 77760, Note_on_c, 1, 72, 60
3, 77818, Note_on_c, 1, 72, 0
3, 77820, Note_on_c, 1, 74, 60
3, 77878, Note_on_c, 1, 74, 0
3, 77880, Note_on_c, 1, 72, 60
3, 77938, Note_on_c, 1, 72, 0
3, 77940, Note_on_c, 1, 74, 60
3, 77998, Note_on_c, 1, 74, 0
3, 78000, Note_on_c, 1, 72, 60
3, 78058, Note_on_c, 1, 72, 0
3, 78060, Note_on_c, 1, 74, 60
3, 78118, Note_on_c, 1, 74, 0
3, 78120, Note_on_c, 1, 72, 60
3, 78178, Note_on_c, 1, 72, 0
3, 78180, Note_on_c, 1, 74, 60
3, 78238, Note_on_c, 1, 74, 0
3, 78240, Note_on_c, 1, 72, 60
3, 78298, Note_on_c, 1, 72, 0
3, 78300, Note_on_c, 1, 74, 60
3, 78358, Note_on_c, 1, 74, 0
3, 78360, Note_on_c, 1, 72, 60
3, 78418, Note_on_c, 1, 72, 0
3, 78420, Note_on_c, 1, 74, 60
3, 78478, Note_on_c, 1, 74, 0
3, 78480, Note_on_c, 1, 72, 60
3, 78538, Note_on_c, 1, 72, 0
3, 78540, Note_on_c, 1, 70, 60
3, 78598, Note_on_c, 1, 70, 0
3, 78600, Note_on_c, 1, 69, 60
3, 78658, Note_on_c, 1, 69, 0
3, 78660, Note_on_c, 1, 67, 60
3, 78718, Note_on_c, 1, 67, 0
3, 78720, Note_on_c, 1, 65, 60
3, 78820, Note_on_c, 1, 65, 0
3, 78840, Note_on_c, 1, 81, 92
3, 78840, Note_on_c, 1, 84, 92
3, 79050, Note_on_c, 1, 84, 0
3, 79050, Note_on_c, 1, 81, 0
3, 79080, Note_on_c, 1, 80, 92
3, 79080, Note_on_c, 1, 84, 92
3, 79180, Note_on_c, 1, 84, 0
3, 79180, Note_on_c, 1, 80, 0
3, 79200, Note_on_c, 1, 81, 92
3, 79200, Note_on_c, 1, 84, 92
3, 79300, Note_on_c, 1, 84, 0
3, 79300, Note_on_c, 1, 81, 0
3, 79320, Note_on_c, 1, 80, 92
3, 79320, Note_on_c, 1, 84, 92
3, 79420, Note_on_c, 1, 84, 0
3, 79420, Note_on_c, 1, 80, 0
3, 79440, Note_on_c, 1, 81, 92
3, 79440, Note_on_c, 1, 84, 92
3, 79540, Note_on_c, 1, 84, 0
3, 79540, Note_on_c, 1, 81, 0
3, 79560, Note_on_c, 1, 76, 92
3, 79560, Note_on_c, 1, 81, 92
3, 79660, Note_on_c, 1, 81, 0
3, 79660, Note_on_c, 1, 76, 0
3, 79680, Note_on_c, 1, 77, 92
3, 79680, Note_on_c, 1, 81, 92
3, 79780, Note_on_c, 1, 81, 0
3, 79780, Note_on_c, 1, 77, 0
3, 79800, Note_on_c, 1, 77, 92
3, 79800, Note_on_c, 1, 81, 92
3, 80010, Note_on_c, 1, 81, 0
3, 80010, Note_on_c, 1, 77, 0
3, 80040, Note_on_c, 1, 76, 92
3, 80040, Note_on_c, 1, 81, 92
3, 80140, Note_on_c, 1, 81, 0
3, 80140, Note_on_c, 1, 76, 0
3, 80160, Note_on_c, 1, 77, 92
3, 80160, Note_on_c, 1, 81, 92
3, 80260, Note_on_c, 1, 81, 0
3, 80260, Note_on_c, 1, 77, 0
3, 80280, Note_on_c, 1, 76, 92
3, 80280, Note_on_c, 1, 81, 92
3, 80380, Note_on_c, 1, 81, 0
3, 80380, Note_on_c, 1, 76, 0
3, 80400, Note_on_c, 1, 77, 92
3, 80400, Note_on_c, 1, 81, 92
3, 80500, Note_on_c, 1, 81, 0
3, 80500, Note_on_c, 1, 77, 0
3, 80520, Note_on_c, 1, 74, 92
3, 80520, Note_on_c, 1, 79, 92
3, 80620, Note_on_c, 1, 79, 0
3, 80620, Note_on_c, 1, 74, 0
3, 80640, Note_on_c, 1, 75, 92
3, 80640, Note_on_c, 1, 79, 92
3, 80740, Note_on_c, 1, 79, 0
3, 80740, Note_on_c, 1, 75, 0
3, 80760, Note_on_c, 1, 75, 92
3, 80760, Note_on_c, 1, 79, 92
3, 80970, Note_on_c, 1, 79, 0
3, 80970, Note_on_c, 1, 75, 0
3, 81000, Note_on_c, 1, 74, 92
3, 81000, Note_on_c, 1, 79, 92
3, 81100, Note_on_c, 1, 79, 0
3, 81100, Note_on_c, 1, 74, 0
3, 81120, Note_on_c, 1, 75, 92
3, 81120, Note_on_c, 1, 79, 92
3, 81220, Note_on_c, 1, 79, 0
3, 81220, Note_on_c, 1, 75, 0
3, 81240, Note_on_c, 1, 74, 92
3, 81240, Note_on_c, 1, 79, 92
3, 81340, Note_on_c, 1, 79, 0
3, 81340, Note_on_c, 1, 74, 0
3, 81360, Note_on_c, 1, 75, 92
3, 81360, Note_on_c, 1, 79, 92
3, 81460, Note_on_c, 1, 79, 0
3, 81460, Note_on_c, 1, 75, 0
3, 81480, Note_on_c, 1, 75, 92
3, 81480, Note_on_c, 1, 83, 92
3, 81580, Note_on_c, 1, 83, 0
3, 81580, Note_on_c, 1, 75, 0
3, 81600, Note_on_c, 1, 75, 92
3, 81600, Note_on_c, 1, 84, 92
3, 81700, Note_on_c, 1, 84, 0
3, 81700, Note_on_c, 1, 75, 0
3, 81720, Note_on_c, 1, 75, 92
3, 81720, Note_on_c, 1, 83, 92
3, 81820, Note_on_c, 1, 83, 0
3, 81820, Note_on_c, 1, 75, 0
3, 81840, Note_on_c, 1, 75, 92
3, 81840, Note_on_c, 1, 84, 92
3, 81940, Note_on_c, 1, 84, 0
3, 81940, Note_on_c, 1, 75, 0
3, 81960, Note_on_c, 1, 72, 92
3, 81960, Note_on_c, 1, 79, 92
3, 82060, Note_on_c, 1, 79, 0
3, 82060, Note_on_c, 1, 72, 0
3, 82080, Note_on_c, 1, 72, 92
3, 82080, Note_on_c, 1, 80, 92
3, 82180, Note_on_c, 1, 80, 0
3, 82180, Note_on_c, 1, 72, 0
3, 82200, Note_on_c, 1, 72, 92
3, 82200, Note_on_c, 1, 79, 92
3, 82300, Note_on_c, 1, 79, 0
3, 82300, Note_on_c, 1, 72, 0
3, 82320, Note_on_c, 1, 72, 92
3, 82320, Note_on_c, 1, 80, 92
3, 82420, Note_on_c, 1, 80, 0
3, 82420, Note_on_c, 1, 72, 0
3, 82440, Note_on_c, 1, 72, 92
3, 82440, Note_on_c, 1, 76, 92
3, 82540, Note_on_c, 1, 76, 0
3, 82540, Note_on_c, 1, 72, 0
3, 82560, Note_on_c, 1, 72, 92
3, 82560, Note_on_c, 1, 77, 92
3, 82660, Note_on_c, 1, 77, 0
3, 82680, Note_on_c, 1, 76, 92
3, 82780, Note_on_c, 1, 76, 0
3, 82800, Note_on_c, 1, 80, 92
3, 82900, Note_on_c, 1, 80, 0
3, 82920, Note_on_c, 1, 79, 92
3, 83010, Note_on_c, 1, 72, 0
3, 83020, Note_on_c, 1, 79, 0
3, 83040, Note_on_c, 1, 77, 92
3, 83140, Note_on_c, 1, 77, 0
3, 83160, Note_on_c, 1, 75, 92
3, 83260, Note_on_c, 1, 75, 0
3, 83280, Note_on_c, 1, 74, 92
3, 83380, Note_on_c, 1, 74, 0
3, 83400, Note_on_c, 1, 72, 92
3, 83500, Note_on_c, 1, 72, 0
3, 83520, Note_on_c, 1, 67, 92
3, 83620, Note_on_c, 1, 67, 0
3, 85440, Note_on_c, 1, 71, 60
3, 85500, Note_on_c, 1, 71, 0
3, 85500, Note_on_c, 1, 74, 60
3, 85560, Note_on_c, 1, 74, 0
3, 85560, Note_on_c, 1, 72, 60
3, 85620, Note_on_c, 1, 72, 0
3, 85620, Note_on_c, 1, 71, 60
3, 85680, Note_on_c, 1, 71, 0
3, 85680, Note_on_c, 1, 69, 60
3, 85740, Note_on_c, 1, 69, 0
3, 85740, Note_on_c, 1, 67, 60
3, 85800, Note_on_c, 1, 67, 0
3, 85800, Note_on_c, 1, 66, 60
3, 85860, Note_on_c, 1, 66, 0
3, 85860, Note_on_c, 1, 67, 60
3, 85918, Note_on_c, 1, 67, 0
3, 85920, Note_on_c, 1, 71, 60
3, 85980, Note_on_c, 1, 71, 0
3, 85980, Note_on_c, 1, 74, 60
3, 86040, Note_on_c, 1, 74, 0
3, 86040, Note_on_c, 1, 72, 60
3, 86100, Note_on_c, 1, 72, 0
3, 86100, Note_on_c, 1, 71, 60
3, 86160, Note_on_c, 1, 71, 0
3, 86160, Note_on_c, 1, 69, 60
3, 86220, Note_on_c, 1, 69, 0
3, 86220, Note_on_c, 1, 67, 60
3, 86280, Note_on_c, 1, 67, 0
3, 86280, Note_on_c, 1, 66, 60
3, 86340, Note_on_c, 1, 66, 0
3, 86340, Note_on_c, 1, 67, 60
3, 86398, Note_on_c, 1, 67, 0
3, 86400, Note_on_c, 1, 75, 60
3, 86460, Note_on_c, 1, 75, 0
3, 86460, Note_on_c, 1, 79, 60
3, 86520, Note_on_c, 1, 79, 0
3, 86520, Note_on_c, 1, 77, 60
3, 86580, Note_on_c, 1, 77, 0
3, 86580, Note_on_c, 1, 75, 60
3, 86640, Note_on_c, 1, 75, 0
3, 86640, Note_on_c, 1, 74, 60
3, 86700, Note_on_c, 1, 74, 0
3, 86700, Note_on_c, 1, 72, 60
3, 86760, Note_on_c, 1, 72, 0
3, 86760, Note_on_c, 1, 71, 60
3, 86820, Note_on_c, 1, 71, 0
3, 86820, Note_on_c, 1, 72, 60
3, 86878, Note_on_c, 1, 72, 0
3, 86880, Note_on_c, 1, 75, 60
3, 86938, Note_on_c, 1, 75, 0
3, 86940, Note_on_c, 1, 79, 60
3, 86998, Note_on_c, 1, 79, 0
3, 87000, Note_on_c, 1, 77, 60
3, 87058, Note_on_c, 1, 77, 0
3, 87060, Note_on_c, 1, 75, 60
3, 87118, Note_on_c, 1, 75, 0
3, 87120, Note_on_c, 1, 74, 60
3, 87178, Note_on_c, 1, 74, 0
3, 87180, Note_on_c, 1, 72, 60
3, 87238, Note_on_c, 1, 72, 0
3, 87240, Note_on_c, 1, 71, 60
3, 87298, Note_on_c, 1, 71, 0
3, 87300, Note_on_c, 1, 72, 60
3, 87358, Note_on_c, 1, 72, 0
3, 87360, Note_on_c, 1, 67, 60
3, 87460, Note_on_c, 1, 67, 0
3, 90240, Note_on_c, 1, 76, 92
3, 90240, Note_on_c, 1, 79, 92
3, 90340, Note_on_c, 1, 79, 0
3, 90340, Note_on_c, 1, 76, 0
3, 90360, Note_on_c, 1, 76, 92
3, 90360, Note_on_c, 1, 79, 92
3, 90570, Note_on_c, 1, 79, 0
3, 90570, Note_on_c, 1, 76, 0
3, 90600, Note_on_c, 1, 77, 92
3, 90600, Note_on_c, 1, 81, 92
3, 90700, Note_on_c, 1, 81, 0
3, 90700, Note_on_c, 1, 77, 0
3, 90720, Note_on_c, 1, 76, 92
3, 90720, Note_on_c, 1, 79, 92
3, 90820, Note_on_c, 1, 79, 0
3, 90820, Note_on_c, 1, 76, 0
3, 90840, Note_on_c, 1, 77, 92
3, 90840, Note_on_c, 1, 81, 92
3, 90940, Note_on_c, 1, 81, 0
3, 90940, Note_on_c, 1, 77, 0
3, 90960, Note_on_c, 1, 76, 92
3, 90960, Note_on_c, 1, 79, 92
3, 91060, Note_on_c, 1, 79, 0
3, 91060, Note_on_c, 1, 76, 0
3, 91080, Note_on_c, 1, 77, 92
3, 91080, Note_on_c, 1, 81, 92
3, 91180, Note_on_c, 1, 81, 0
3, 91180, Note_on_c, 1, 77, 0
3, 91200, Note_on_c, 1, 76, 92
3, 91200, Note_on_c, 1, 79, 92
3, 91300, Note_on_c, 1, 79, 0
3, 91300, Note_on_c, 1, 76, 0
3, 91320, Note_on_c, 1, 76, 92
3, 91320, Note_on_c, 1, 79, 92
3, 91530, Note_on_c, 1, 79, 0
3, 91530, Note_on_c, 1, 76, 0
3, 91560, Note_on_c, 1, 77, 92
3, 91560, Note_on_c, 1, 81, 92
3, 91660, Note_on_c, 1, 81, 0
3, 91660, Note_on_c, 1, 77, 0
3, 91680, Note_on_c, 1, 76, 92
3, 91680, Note_on_c, 1, 79, 92
3, 91780, Note_on_c, 1, 79, 0
3, 91780, Note_on_c, 1, 76, 0
3, 91800, Note_on_c, 1, 77, 92
3, 91800, Note_on_c, 1, 81, 92
3, 91900, Note_on_c, 1, 81, 0
3, 91900, Note_on_c, 1, 77, 0
3, 91920, Note_on_c, 1, 76, 92
3, 91920, Note_on_c, 1, 79, 92
3, 92020, Note_on_c, 1, 79, 0
3, 92020, Note_on_c, 1, 76, 0
3, 92040, Note_on_c, 1, 77, 92
3, 92040, Note_on_c, 1, 81, 92
3, 92140, Note_on_c, 1, 81, 0
3, 92140, Note_on_c, 1, 77, 0
3, 92160, Note_on_c, 1, 76, 75
3, 92220, Note_on_c, 1, 79, 75
3, 92260, Note_on_c, 1, 76, 0
3, 92280, Note_on_c, 1, 79, 0
3, 92280, Note_on_c, 1, 77, 75
3, 92340, Note_on_c, 1, 77, 0
3, 92340, Note_on_c, 1, 76, 75
3, 92400, Note_on_c, 1, 76, 0
3, 92400, Note_on_c, 1, 74, 75
3, 92460, Note_on_c, 1, 74, 0
3, 92460, Note_on_c, 1, 72, 75
3, 92520, Note_on_c, 1, 72, 0
3, 92520, Note_on_c, 1, 71, 75
3, 92580, Note_on_c, 1, 71, 0
3, 92580, Note_on_c, 1, 72, 75
3, 92638, Note_on_c, 1, 72, 0
3, 92640, Note_on_c, 1, 76, 75
3, 92700, Note_on_c, 1, 76, 0
3, 92700, Note_on_c, 1, 79, 75
3, 92760, Note_on_c, 1, 79, 0
3, 92760, Note_on_c, 1, 77, 75
3, 92820, Note_on_c, 1, 77, 0
3, 92820, Note_on_c, 1, 76, 75
3, 92880, Note_on_c, 1, 76, 0
3, 92880, Note_on_c, 1, 74, 75
3, 92940, Note_on_c, 1, 74, 0
3, 92940, Note_on_c, 1, 72, 75
3, 93000, Note_on_c, 1, 72, 0
3, 93000, Note_on_c, 1, 71, 75
3, 93060, Note_on_c, 1, 71, 0
3, 93060, Note_on_c, 1, 72, 75
3, 93118, Note_on_c, 1, 72, 0
3, 94080, Note_on_c, 1, 76, 75
3, 94140, Note_on_c, 1, 76, 0
3, 94140, Note_on_c, 1, 79, 75
3, 94200, Note_on_c, 1, 79, 0
3, 94200, Note_on_c, 1, 77, 75
3, 94260, Note_on_c, 1, 77, 0
3, 94260, Note_on_c, 1, 76, 75
3, 94320, Note_on_c, 1, 76, 0
3, 94320, Note_on_c, 1, 74, 75
3, 94380, Note_on_c, 1, 74, 0
3, 94380, Note_on_c, 1, 72, 75
3, 94440, Note_on_c, 1, 72, 0
3, 94440, Note_on_c, 1, 71, 75
3, 94500, Note_on_c, 1, 71, 0
3, 94500, Note_on_c, 1, 72, 75
3, 94558, Note_on_c, 1, 72, 0
3, 94560, Note_on_c, 1, 76, 75
3, 94620, Note_on_c, 1, 76, 0
3, 94620, Note_on_c, 1, 79, 75
3, 94680, Note_on_c, 1, 79, 0
3, 94680, Note_on_c, 1, 77, 75
3, 94740, Note_on_c, 1, 77, 0
3, 94740, Note_on_c, 1, 76, 75
3, 94800, Note_on_c, 1, 76, 0
3, 94800, Note_on_c, 1, 74, 75
3, 94860, Note_on_c, 1, 74, 0
3, 94860, Note_on_c, 1, 72, 75
3, 94920, Note_on_c, 1, 72, 0
3, 94920, Note_on_c, 1, 71, 75
3, 94980, Note_on_c, 1, 71, 0
3, 94980, Note_on_c, 1, 72, 75
3, 95038, Note_on_c, 1, 72, 0
3, 95040, Note_on_c, 1, 71, 75
3, 95040, Note_on_c, 1, 74, 75
3, 95280, Note_on_c, 1, 74, 0
3, 95280, Note_on_c, 1, 71, 0
3, 95280, Note_on_c, 1, 72, 75
3, 95280, Note_on_c, 1, 76, 75
3, 95520, Note_on_c, 1, 76, 0
3, 95520, Note_on_c, 1, 72, 0
3, 95520, Note_on_c, 1, 74, 75
3, 95520, Note_on_c, 1, 77, 75
3, 95760, Note_on_c, 1, 77, 0
3, 95760, Note_on_c, 1, 74, 0
3, 95760, Note_on_c, 1, 71, 75
3, 95760, Note_on_c, 1, 74, 75
3, 95970, Note_on_c, 1, 74, 0
3, 95970, Note_on_c, 1, 71, 0
3, 96000, Note_on_c, 1, 72, 75
3, 96000, Note_on_c, 1, 76, 75
3, 96060, Note_on_c, 1, 76, 0
3, 96060, Note_on_c, 1, 79, 75
3, 96100, Note_on_c, 1, 72, 0
3, 96120, Note_on_c, 1, 79, 0
3, 96120, Note_on_c, 1, 77, 75
3, 96180, Note_on_c, 1, 77, 0
3, 96180, Note_on_c, 1, 76, 75
3, 96240, Note_on_c, 1, 76, 0
3, 96240, Note_on_c, 1, 74, 75
3, 96300, Note_on_c, 1, 74, 0
3, 96300, Note_on_c, 1, 72, 75
3, 96360, Note_on_c, 1, 72, 0
3, 96360, Note_on_c, 1, 71, 75
3, 96420, Note_on_c, 1, 71, 0
3, 96420, Note_on_c, 1, 72, 75
3, 96478, Note_on_c, 1, 72, 0
3, 96480, Note_on_c, 1, 76, 75
3, 96540, Note_on_c, 1, 76, 0
3, 96540, Note_on_c, 1, 79, 75
3, 96600, Note_on_c, 1, 79, 0
3, 96600, Note_on_c, 1, 77, 75
3, 96660, Note_on_c, 1, 77, 0
3, 96660, Note_on_c, 1, 76, 75
3, 96720, Note_on_c, 1, 76, 0
3, 96720, Note_on_c, 1, 74, 75
3, 96780, Note_on_c, 1, 74, 0
3, 96780, Note_on_c, 1, 72, 75
3, 96840, Note_on_c, 1, 72, 0
3, 96840, Note_on_c, 1, 71, 75
3, 96900, Note_on_c, 1, 71, 0
3, 96900, Note_on_c, 1, 72, 75
3, 96958, Note_on_c, 1, 72, 0
3, 97920, Note_on_c, 1, 76, 75
3, 97980, Note_on_c, 1, 76, 0
3, 97980, Note_on_c, 1, 79, 75
3, 98040, Note_on_c, 1, 79, 0
3, 98040, Note_on_c, 1, 77, 75
3, 98100, Note_on_c, 1, 77, 0
3, 98100, Note_on_c, 1, 76, 75
3, 98160, Note_on_c, 1, 76, 0
3, 98160, Note_on_c, 1, 74, 75
3, 98220, Note_on_c, 1, 74, 0
3, 98220, Note_on_c, 1, 72, 75
3, 98280, Note_on_c, 1, 72, 0
3, 98280, Note_on_c, 1, 71, 75
3, 98340, Note_on_c, 1, 71, 0
3, 98340, Note_on_c, 1, 72, 75
3, 98398, Note_on_c, 1, 72, 0
3, 98400, Note_on_c, 1, 76, 75
3, 98460, Note_on_c, 1, 76, 0
3, 98460, Note_on_c, 1, 79, 75
3, 98520, Note_on_c, 1, 79, 0
3, 98520, Note_on_c, 1, 77, 75
3, 98580, Note_on_c, 1, 77, 0
3, 98580, Note_on_c, 1, 76, 75
3, 98640, Note_on_c, 1, 76, 0
3, 98640, Note_on_c, 1, 74, 75
3, 98700, Note_on_c, 1, 74, 0
3, 98700, Note_on_c, 1, 72, 75
3, 98760, Note_on_c, 1, 72, 0
3, 98760, Note_on_c, 1, 71, 75
3, 98820, Note_on_c, 1, 71, 0
3, 98820, Note_on_c, 1, 72, 75
3, 98878, Note_on_c, 1, 72, 0
3, 98880, Note_on_c, 1, 71, 75
3, 98880, Note_on_c, 1, 74, 75
3, 99120, Note_on_c, 1, 74, 0
3, 99120, Note_on_c, 1, 71, 0
3, 99120, Note_on_c, 1, 72, 75
3, 99120, Note_on_c, 1, 76, 75
3, 99360, Note_on_c, 1, 76, 0
3, 99360, Note_on_c, 1, 72, 0
3, 99360, Note_on_c, 1, 74, 75
3, 99360, Note_on_c, 1, 77, 75
3, 99600, Note_on_c, 1, 77, 0
3, 99600, Note_on_c, 1, 74, 0
3, 99600, Note_on_c, 1, 71, 75
3, 99600, Note_on_c, 1, 74, 75
3, 99810, Note_on_c, 1, 74, 0
3, 99810, Note_on_c, 1, 71, 0
3, 99840, Note_on_c, 1, 72, 75
3, 99840, Note_on_c, 1, 76, 75
3, 99940, Note_on_c, 1, 76, 0
3, 99940, Note_on_c, 1, 72, 0
3, 99960, Note_on_c, 1, 76, 92
3, 99960, Note_on_c, 1, 79, 92
3, 100170, Note_on_c, 1, 79, 0
3, 100170, Note_on_c, 1, 76, 0
3, 100200, Note_on_c, 1, 75, 92
3, 100200, Note_on_c, 1, 79, 92
3, 100300, Note_on_c, 1, 79, 0
3, 100300, Note_on_c, 1, 75, 0
3, 100320, Note_on_c, 1, 76, 92
3, 100320, Note_on_c, 1, 79, 92
3, 100420, Note_on_c, 1, 79, 0
3, 100420, Note_on_c, 1, 76, 0
3, 100440, Note_on_c, 1, 75, 92
3, 100440, Note_on_c, 1, 79, 92
3, 100540, Note_on_c, 1, 79, 0
3, 100540, Note_on_c, 1, 75, 0
3, 100560, Note_on_c, 1, 76, 92
3, 100560, Note_on_c, 1, 79, 92
3, 100660, Note_on_c, 1, 79, 0
3, 100660, Note_on_c, 1, 76, 0
3, 100680, Note_on_c, 1, 76, 92
3, 100680, Note_on_c, 1, 83, 92
3, 100780, Note_on_c, 1, 83, 0
3, 100780, Note_on_c, 1, 76, 0
3, 100800, Note_on_c, 1, 76, 92
3, 100800, Note_on_c, 1, 84, 92
3, 100900, Note_on_c, 1, 84, 0
3, 100900, Note_on_c, 1, 76, 0
3, 100920, Note_on_c, 1, 76, 92
3, 100920, Note_on_c, 1, 84, 92
3, 101130, Note_on_c, 1, 84, 0
3, 101130, Note_on_c, 1, 76, 0
3, 101160, Note_on_c, 1, 76, 92
3, 101160, Note_on_c, 1, 83, 92
3, 101260, Note_on_c, 1, 83, 0
3, 101260, Note_on_c, 1, 76, 0
3, 101280, Note_on_c, 1, 76, 92
3, 101280, Note_on_c, 1, 84, 92
3, 101380, Note_on_c, 1, 84, 0
3, 101380, Note_on_c, 1, 76, 0
3, 101400, Note_on_c, 1, 76, 92
3, 101400, Note_on_c, 1, 83, 92
3, 101500, Note_on_c, 1, 83, 0
3, 101500, Note_on_c, 1, 76, 0
3, 101520, Note_on_c, 1, 76, 92
3, 101520, Note_on_c, 1, 84, 92
3, 101620, Note_on_c, 1, 84, 0
3, 101620, Note_on_c, 1, 76, 0
3, 101640, Note_on_c, 1, 72, 92
3, 101640, Note_on_c, 1, 80, 92
3, 101740, Note_on_c, 1, 80, 0
3, 101740, Note_on_c, 1, 72, 0
3, 101760, Note_on_c, 1, 72, 92
3, 101760, Note_on_c, 1, 81, 92
3, 101860, Note_on_c, 1, 81, 0
3, 101860, Note_on_c, 1, 72, 0
3, 101880, Note_on_c, 1, 72, 92
3, 101880, Note_on_c, 1, 81, 92
3, 102090, Note_on_c, 1, 81, 0
3, 102090, Note_on_c, 1, 72, 0
3, 102120, Note_on_c, 1, 72, 92
3, 102120, Note_on_c, 1, 80, 92
3, 102220, Note_on_c, 1, 80, 0
3, 102220, Note_on_c, 1, 72, 0
3, 102240, Note_on_c, 1, 72, 92
3, 102240, Note_on_c, 1, 81, 92
3, 102340, Note_on_c, 1, 81, 0
3, 102340, Note_on_c, 1, 72, 0
3, 102360, Note_on_c, 1, 72, 92
3, 102360, Note_on_c, 1, 80, 92
3, 102460, Note_on_c, 1, 80, 0
3, 102460, Note_on_c, 1, 72, 0
3, 102480, Note_on_c, 1, 72, 92
3, 102480, Note_on_c, 1, 81, 92
3, 102580, Note_on_c, 1, 81, 0
3, 102580, Note_on_c, 1, 72, 0
3, 102600, Note_on_c, 1, 73, 92
3, 102600, Note_on_c, 1, 82, 92
3, 102700, Note_on_c, 1, 82, 0
3, 102700, Note_on_c, 1, 73, 0
3, 102720, Note_on_c, 1, 74, 92
3, 102720, Note_on_c, 1, 81, 92
3, 102820, Note_on_c, 1, 81, 0
3, 102820, Note_on_c, 1, 74, 0
3, 102840, Note_on_c, 1, 70, 92
3, 102840, Note_on_c, 1, 73, 92
3, 102940, Note_on_c, 1, 73, 0
3, 102940, Note_on_c, 1, 70, 0
3, 102960, Note_on_c, 1, 69, 92
3, 102960, Note_on_c, 1, 74, 92
3, 103060, Note_on_c, 1, 74, 0
3, 103080, Note_on_c, 1, 76, 92
3, 103180, Note_on_c, 1, 76, 0
3, 103200, Note_on_c, 1, 77, 92
3, 103300, Note_on_c, 1, 77, 0
3, 103300, Note_on_c, 1, 69, 0
3, 103320, Note_on_c, 1, 75, 92
3, 103320, Note_on_c, 1, 78, 92
3, 103420, Note_on_c, 1, 78, 0
3, 103420, Note_on_c, 1, 75, 0
3, 103440, Note_on_c, 1, 74, 92
3, 103440, Note_on_c, 1, 79, 92
3, 103540, Note_on_c, 1, 79, 0
3, 103540, Note_on_c, 1, 74, 0
3, 103560, Note_on_c, 1, 71, 92
3, 103560, Note_on_c, 1, 77, 92
3, 103660, Note_on_c, 1, 77, 0
3, 103660, Note_on_c, 1, 71, 0
3, 103680, Note_on_c, 1, 72, 92
3, 103680, Note_on_c, 1, 76, 92
3, 104130, Note_on_c, 1, 76, 0
3, 104160, Note_on_c, 1, 74, 92
3, 104370, Note_on_c, 1, 72, 0
3, 104400, Note_on_c, 1, 71, 92
3, 104610, Note_on_c, 1, 71, 0
3, 104610, Note_on_c, 1, 74, 0
3, 104640, Note_on_c, 1, 72, 92
3, 104740, Note_on_c, 1, 72, 0
3, 104760, Note_on_c, 1, 76, 92
3, 104760, Note_on_c, 1, 79, 92
3, 104970, Note_on_c, 1, 79, 0
3, 104970, Note_on_c, 1, 76, 0
3, 105000, Note_on_c, 1, 75, 92
3, 105000, Note_on_c, 1, 79, 92
3, 105100, Note_on_c, 1, 79, 0
3, 105100, Note_on_c, 1, 75, 0
3, 105120, Note_on_c, 1, 76, 92
3, 105120, Note_on_c, 1, 79, 92
3, 105220, Note_on_c, 1, 79, 0
3, 105220, Note_on_c, 1, 76, 0
3, 105240, Note_on_c, 1, 75, 92
3, 105240, Note_on_c, 1, 79, 92
3, 105340, Note_on_c, 1, 79, 0
3, 105340, Note_on_c, 1, 75, 0
3, 105360, Note_on_c, 1, 76, 92
3, 105360, Note_on_c, 1, 79, 92
3, 105460, Note_on_c, 1, 79, 0
3, 105460, Note_on_c, 1, 76, 0
3, 105480, Note_on_c, 1, 76, 92
3, 105480, Note_on_c, 1, 83, 92
3, 105580, Note_on_c, 1, 83, 0
3, 105580, Note_on_c, 1, 76, 0
3, 105600, Note_on_c, 1, 76, 92
3, 105600, Note_on_c, 1, 84, 92
3, 105700, Note_on_c, 1, 84, 0
3, 105700, Note_on_c, 1, 76, 0
3, 105720, Note_on_c, 1, 76, 92
3, 105720, Note_on_c, 1, 84, 92
3, 105930, Note_on_c, 1, 84, 0
3, 105930, Note_on_c, 1, 76, 0
3, 105960, Note_on_c, 1, 76, 92
3, 105960, Note_on_c, 1, 83, 92
3, 106060, Note_on_c, 1, 83, 0
3, 106060, Note_on_c, 1, 76, 0
3, 106080, Note_on_c, 1, 76, 92
3, 106080, Note_on_c, 1, 84, 92
3, 106180, Note_on_c, 1, 84, 0
3, 106180, Note_on_c, 1, 76, 0
3, 106200, Note_on_c, 1, 76, 92
3, 106200, Note_on_c, 1, 83, 92
3, 106300, Note_on_c, 1, 83, 0
3, 106300, Note_on_c, 1, 76, 0
3, 106320, Note_on_c, 1, 76, 92
3, 106320, Note_on_c, 1, 84, 92
3, 106420, Note_on_c, 1, 84, 0
3, 106420, Note_on_c, 1, 76, 0
3, 106440, Note_on_c, 1, 72, 92
3, 106440, Note_on_c, 1, 80, 92
3, 106540, Note_on_c, 1, 80, 0
3, 106540, Note_on_c, 1, 72, 0
3, 106560, Note_on_c, 1, 72, 92
3, 106560, Note_on_c, 1, 81, 92
3, 106660, Note_on_c, 1, 81, 0
3, 106660, Note_on_c, 1, 72, 0
3, 106680, Note_on_c, 1, 72, 92
3, 106680, Note_on_c, 1, 81, 92
3, 106890, Note_on_c, 1, 81, 0
3, 106890, Note_on_c, 1, 72, 0
3, 106920, Note_on_c, 1, 72, 92
3, 106920, Note_on_c, 1, 80, 92
3, 107020, Note_on_c, 1, 80, 0
3, 107020, Note_on_c, 1, 72, 0
3, 107040, Note_on_c, 1, 72, 92
3, 107040, Note_on_c, 1, 81, 92
3, 107140, Note_on_c, 1, 81, 0
3, 107140, Note_on_c, 1, 72, 0
3, 107160, Note_on_c, 1, 72, 92
3, 107160, Note_on_c, 1, 80, 92
3, 107260, Note_on_c, 1, 80, 0
3, 107260, Note_on_c, 1, 72, 0
3, 107280, Note_on_c, 1, 72, 92
3, 107280, Note_on_c, 1, 81, 92
3, 107380, Note_on_c, 1, 81, 0
3, 107380, Note_on_c, 1, 72, 0
3, 107400, Note_on_c, 1, 73, 92
3, 107400, Note_on_c, 1, 82, 92
3, 107500, Note_on_c, 1, 82, 0
3, 107500, Note_on_c, 1, 73, 0
3, 107520, Note_on_c, 1, 74, 92
3, 107520, Note_on_c, 1, 81, 92
3, 107620, Note_on_c, 1, 81, 0
3, 107620, Note_on_c, 1, 74, 0
3, 107640, Note_on_c, 1, 70, 92
3, 107640, Note_on_c, 1, 73, 92
3, 107740, Note_on_c, 1, 73, 0
3, 107740, Note_on_c, 1, 70, 0
3, 107760, Note_on_c, 1, 69, 92
3, 107760, Note_on_c, 1, 74, 92
3, 107860, Note_on_c, 1, 74, 0
3, 107880, Note_on_c, 1, 76, 92
3, 107980, Note_on_c, 1, 76, 0
3, 108000, Note_on_c, 1, 77, 92
3, 108100, Note_on_c, 1, 77, 0
3, 108100, Note_on_c, 1, 69, 0
3, 108120, Note_on_c, 1, 75, 92
3, 108120, Note_on_c, 1, 78, 92
3, 108220, Note_on_c, 1, 78, 0
3, 108220, Note_on_c, 1, 75, 0
3, 108240, Note_on_c, 1, 74, 92
3, 108240, Note_on_c, 1, 79, 92
3, 108340, Note_on_c, 1, 79, 0
3, 108340, Note_on_c, 1, 74, 0
3, 108360, Note_on_c, 1, 71, 92
3, 108360, Note_on_c, 1, 77, 92
3, 108460, Note_on_c, 1, 77, 0
3, 108460, Note_on_c, 1, 71, 0
3, 108480, Note_on_c, 1, 72, 92
3, 108480, Note_on_c, 1, 76, 92
3, 108580, Note_on_c, 1, 76, 0
3, 108580, Note_on_c, 1, 72, 0
3, 110400, Note_on_c, 1, 72, 60
3, 110400, Note_on_c, 1, 74, 60
3, 110850, Note_on_c, 1, 72, 0
3, 110880, Note_on_c, 1, 71, 60
3, 111120, Note_on_c, 1, 74, 0
3, 111120, Note_on_c, 1, 76, 60
3, 111300, Note_on_c, 1, 76, 0
3, 111300, Note_on_c, 1, 77, 60
3, 111330, Note_on_c, 1, 71, 0
3, 111358, Note_on_c, 1, 77, 0
3, 111360, Note_on_c, 1, 72, 60
3, 111360, Note_on_c, 1, 77, 60
3, 111840, Note_on_c, 1, 77, 0
3, 111840, Note_on_c, 1, 76, 60
3, 111940, Note_on_c, 1, 76, 0
3, 111940, Note_on_c, 1, 72, 0
3, 112800, Note_on_c, 1, 72, 92
3, 112800, Note_on_c, 1, 76, 92
3, 113250, Note_on_c, 1, 76, 0
3, 113280, Note_on_c, 1, 77, 92
3, 113730, Note_on_c, 1, 77, 0
3, 113760, Note_on_c, 1, 81, 92
3, 114210, Note_on_c, 1, 81, 0
3, 114240, Note_on_c, 1, 74, 92
3, 114690, Note_on_c, 1, 74, 0
3, 114690, Note_on_c, 1, 72, 0
3, 114720, Note_on_c, 1, 71, 92
3, 114720, Note_on_c, 1, 79, 92
3, 115170, Note_on_c, 1, 79, 0
3, 115170, Note_on_c, 1, 71, 0
3, 115200, Note_on_c, 1, 72, 92
3, 115300, Note_on_c, 1, 72, 0
3, 117120, Control_c, 1, 7, 32
3, 117120, Note_on_c, 1, 79, 60
3, 117120, Note_on_c, 1, 84, 60
3, 118560, Control_c, 1, 7, 48
3, 119040, Control_c, 1, 7, 64
3, 119520, Control_c, 1, 7, 80
3, 120000, Control_c, 1, 7, 96
3, 120930, Note_on_c, 1, 84, 0
3, 120930, Note_on_c, 1, 79, 0
3, 120960, Note_on_c, 1, 76, 108
3, 120960, Note_on_c, 1, 79, 108
3, 121060, Note_on_c, 1, 79, 0
3, 121060, Note_on_c, 1, 76, 0
3, 121080, Note_on_c, 1, 76, 108
3, 121080, Note_on_c, 1, 79, 108
3, 121290, Note_on_c, 1, 79, 0
3, 121290, Note_on_c, 1, 76, 0
3, 121320, Note_on_c, 1, 77, 108
3, 121320, Note_on_c, 1, 81, 108
3, 121420, Note_on_c, 1, 81, 0
3, 121420, Note_on_c, 1, 77, 0
3, 121440, Note_on_c, 1, 76, 108
3, 121440, Note_on_c, 1, 79, 108
3, 121540, Note_on_c, 1, 79, 0
3, 121540, Note_on_c, 1, 76, 0
3, 121560, Note_on_c, 1, 77, 108
3, 121560, Note_on_c, 1, 81, 108
3, 121660, Note_on_c, 1, 81, 0
3, 121660, Note_on_c, 1, 77, 0
3, 121680, Note_on_c, 1, 76, 108
3, 121680, Note_on_c, 1, 79, 108
3, 121780, Note_on_c, 1, 79, 0
3, 121780, Note_on_c, 1, 76, 0
3, 121800, Note_on_c, 1, 77, 108
3, 121800, Note_on_c, 1, 83, 108
3, 121900, Note_on_c, 1, 83, 0
3, 121900, Note_on_c, 1, 77, 0
3, 121920, Note_on_c, 1, 76, 108
3, 121920, Note_on_c, 1, 84, 108
3, 122020, Note_on_c, 1, 84, 0
3, 122020, Note_on_c, 1, 76, 0
3, 122040, Note_on_c, 1, 76, 108
3, 122040, Note_on_c, 1, 79, 108
3, 122250, Note_on_c, 1, 79, 0
3, 122250, Note_on_c, 1, 76, 0
3, 122280, Note_on_c, 1, 77, 108
3, 122280, Note_on_c, 1, 81, 108
3, 122380, Note_on_c, 1, 81, 0
3, 122380, Note_on_c, 1, 77, 0
3, 122400, Note_on_c, 1, 76, 108
3, 122400, Note_on_c, 1, 79, 108
3, 122500, Note_on_c, 1, 79, 0
3, 122500, Note_on_c, 1, 76, 0
3, 122520, Note_on_c, 1, 77, 108
3, 122520, Note_on_c, 1, 81, 108
3, 122620, Note_on_c, 1, 81, 0
3, 122620, Note_on_c, 1, 77, 0
3, 122640, Note_on_c, 1, 76, 108
3, 122640, Note_on_c, 1, 79, 108
3, 122740, Note_on_c, 1, 79, 0
3, 122740, Note_on_c, 1, 76, 0
3, 122760, Note_on_c, 1, 77, 108
3, 122760, Note_on_c, 1, 83, 108
3, 122860, Note_on_c, 1, 83, 0
3, 122860, Note_on_c, 1, 77, 0
3, 122880, Note_on_c, 1, 76, 108
3, 122880, Note_on_c, 1, 84, 108
3, 122980, Note_on_c, 1, 84, 0
3, 122980, Note_on_c, 1, 76, 0
3, 123000, Note_on_c, 1, 79, 108
3, 123100, Note_on_c, 1, 79, 0
3, 123120, Note_on_c, 1, 84, 108
3, 123220, Note_on_c, 1, 84, 0
3, 123240, Note_on_c, 1, 79, 108
3, 123340, Note_on_c, 1, 79, 0
3, 123360, Note_on_c, 1, 84, 108
3, 123460, Note_on_c, 1, 84, 0
3, 123480, Note_on_c, 1, 79, 108
3, 123580, Note_on_c, 1, 79, 0
3, 123600, Note_on_c, 1, 84, 108
3, 123700, Note_on_c, 1, 84, 0
3, 123720, Note_on_c, 1, 79, 108
3, 123820, Note_on_c, 1, 79, 0
3, 123840, Note_on_c, 1, 84, 108
3, 123940, Note_on_c, 1, 84, 0
3, 124320, Note_on_c, 1, 76, 108
3, 124320, Note_on_c, 1, 79, 108
3, 124420, Note_on_c, 1, 79, 0
3, 124420, Note_on_c, 1, 76, 0
3, 124560, Note_on_c, 1, 76, 108
3, 124560, Note_on_c, 1, 79, 108
3, 124660, Note_on_c, 1, 79, 0
3, 124660, Note_on_c, 1, 76, 0
3, 124800, Note_on_c, 1, 76, 108
3, 124800, Note_on_c, 1, 79, 108
3, 125010, Note_on_c, 1, 79, 0
3, 125010, Note_on_c, 1, 76, 0
3, 125010, End_track
4, 0, Start_track
4, 0, MIDI_port, 0
4, 0, Title_t, "Clarinets (C)"
4, 0, Program_c, 2, 71
4, 0, Control_c, 2, 7, 127
4, 0, Control_c, 2, 10, 80
4, 0, Note_on_c, 2, 72, 92
4, 0, Note_on_c, 2, 76, 92
4, 100, Note_on_c, 2, 76, 0
4, 100, Note_on_c, 2, 72, 0
4, 210, Note_on_c, 2, 72, 92
4, 238, Note_on_c, 2, 72, 0
4, 240, Note_on_c, 2, 72, 92
4, 340, Note_on_c, 2, 72, 0
4, 1890, Note_on_c, 2, 71, 92
4, 1890, Note_on_c, 2, 74, 92
4, 1918, Note_on_c, 2, 74, 0
4, 1918, Note_on_c, 2, 71, 0
4, 1920, Note_on_c, 2, 71, 92
4, 1920, Note_on_c, 2, 74, 92
4, 2020, Note_on_c, 2, 74, 0
4, 2020, Note_on_c, 2, 71, 0
4, 2130, Note_on_c, 2, 71, 92
4, 2130, Note_on_c, 2, 74, 92
4, 2158, Note_on_c, 2, 74, 0
4, 2158, Note_on_c, 2, 71, 0
4, 2160, Note_on_c, 2, 71, 92
4, 2160, Note_on_c, 2, 74, 92
4, 2260, Note_on_c, 2, 74, 0
4, 2260, Note_on_c, 2, 71, 0
4, 3000, Note_on_c, 2, 67, 60
4, 3100, Note_on_c, 2, 67, 0
4, 3120, Note_on_c, 2, 67, 60
4, 3220, Note_on_c, 2, 67, 0
4, 3240, Note_on_c, 2, 67, 60
4, 3340, Note_on_c, 2, 67, 0
4, 3360, Note_on_c, 2, 67, 60
4, 3600, Note_on_c, 2, 67, 0
4, 3600, Note_on_c, 2, 67, 60
4, 3700, Note_on_c, 2, 67, 0
4, 5520, Note_on_c, 2, 72, 92
4, 5520, Note_on_c, 2, 76, 92
4, 5760, Note_on_c, 2, 76, 0
4, 5760, Note_on_c, 2, 77, 92
4, 6000, Note_on_c, 2, 77, 0
4, 6000, Note_on_c, 2, 81, 92
4, 6240, Note_on_c, 2, 81, 0
4, 6240, Note_on_c, 2, 74, 92
4, 6480, Note_on_c, 2, 74, 0
4, 6480, Note_on_c, 2, 72, 0
4, 6480, Note_on_c, 2, 71, 92
4, 6480, Note_on_c, 2, 79, 92
4, 6690, Note_on_c, 2, 79, 0
4, 6690, Note_on_c, 2, 71, 0
4, 6720, Note_on_c, 2, 72, 92
4, 6720, Note_on_c, 2, 76, 92
4, 6820, Note_on_c, 2, 76, 0
4, 6820, Note_on_c, 2, 72, 0
4, 11520, Note_on_c, 2, 76, 92
4, 11520, Note_on_c, 2, 79, 92
4, 11620, Note_on_c, 2, 79, 0
4, 11620, Note_on_c, 2, 76, 0
4, 11640, Note_on_c, 2, 76, 92
4, 11640, Note_on_c, 2, 79, 92
4, 11850, Note_on_c, 2, 79, 0
4, 11850, Note_on_c, 2, 76, 0
4, 11880, Note_on_c, 2, 77, 92
4, 11880, Note_on_c, 2, 81, 92
4, 11980, Note_on_c, 2, 81, 0
4, 11980, Note_on_c, 2, 77, 0
4, 12000, Note_on_c, 2, 76, 92
4, 12000, Note_on_c, 2, 79, 92
4, 12100, Note_on_c, 2, 79, 0
4, 12100, Note_on_c, 2, 76, 0
4, 12120, Note_on_c, 2, 77, 92
4, 12120, Note_on_c, 2, 81, 92
4, 12220, Note_on_c, 2, 81, 0
4, 12220, Note_on_c, 2, 77, 0
4, 12240, Note_on_c, 2, 76, 92
4, 12240, Note_on_c, 2, 79, 92
4, 12340, Note_on_c, 2, 79, 0
4, 12340, Note_on_c, 2, 76, 0
4, 12360, Note_on_c, 2, 77, 92
4, 12360, Note_on_c, 2, 81, 92
4, 12460, Note_on_c, 2, 81, 0
4, 12460, Note_on_c, 2, 77, 0
4, 12480, Note_on_c, 2, 76, 92
4, 12480, Note_on_c, 2, 79, 92
4, 12580, Note_on_c, 2, 79, 0
4, 12580, Note_on_c, 2, 76, 0
4, 12600, Note_on_c, 2, 76, 92
4, 12600, Note_on_c, 2, 79, 92
4, 12810, Note_on_c, 2, 79, 0
4, 12810, Note_on_c, 2, 76, 0
4, 12840, Note_on_c, 2, 77, 92
4, 12840, Note_on_c, 2, 81, 92
4, 12940, Note_on_c, 2, 81, 0
4, 12940, Note_on_c, 2, 77, 0
4, 12960, Note_on_c, 2, 76, 92
4, 12960, Note_on_c, 2, 79, 92
4, 13060, Note_on_c, 2, 79, 0
4, 13060, Note_on_c, 2, 76, 0
4, 13080, Note_on_c, 2, 77, 92
4, 13080, Note_on_c, 2, 81, 92
4, 13180, Note_on_c, 2, 81, 0
4, 13180, Note_on_c, 2, 77, 0
4, 13200, Note_on_c, 2, 76, 92
4, 13200, Note_on_c, 2, 79, 92
4, 13300, Note_on_c, 2, 79, 0
4, 13300, Note_on_c, 2, 76, 0
4, 13320, Note_on_c, 2, 77, 92
4, 13320, Note_on_c, 2, 81, 92
4, 13420, Note_on_c, 2, 81, 0
4, 13420, Note_on_c, 2, 77, 0
4, 13440, Note_on_c, 2, 76, 92
4, 13440, Note_on_c, 2, 79, 92
4, 13540, Note_on_c, 2, 79, 0
4, 13540, Note_on_c, 2, 76, 0
4, 24960, Note_on_c, 2, 78, 92
4, 24960, Note_on_c, 2, 81, 92
4, 25060, Note_on_c, 2, 81, 0
4, 25060, Note_on_c, 2, 78, 0
4, 25080, Note_on_c, 2, 78, 92
4, 25080, Note_on_c, 2, 81, 92
4, 25290, Note_on_c, 2, 81, 0
4, 25290, Note_on_c, 2, 78, 0
4, 25320, Note_on_c, 2, 79, 92
4, 25320, Note_on_c, 2, 83, 92
4, 25420, Note_on_c, 2, 83, 0
4, 25420, Note_on_c, 2, 79, 0
4, 25440, Note_on_c, 2, 78, 92
4, 25440, Note_on_c, 2, 81, 92
4, 25540, Note_on_c, 2, 81, 0
4, 25540, Note_on_c, 2, 78, 0
4, 25560, Note_on_c, 2, 79, 92
4, 25560, Note_on_c, 2, 83, 92
4, 25660, Note_on_c, 2, 83, 0
4, 25660, Note_on_c, 2, 79, 0
4, 25680, Note_on_c, 2, 81, 92
4, 25680, Note_on_c, 2, 84, 92
4, 25780, Note_on_c, 2, 84, 0
4, 25780, Note_on_c, 2, 81, 0
4, 25800, Note_on_c, 2, 79, 92
4, 25800, Note_on_c, 2, 83, 92
4, 25900, Note_on_c, 2, 83, 0
4, 25900, Note_on_c, 2, 79, 0
4, 25920, Note_on_c, 2, 78, 92
4, 25920, Note_on_c, 2, 81, 92
4, 26020, Note_on_c, 2, 81, 0
4, 26020, Note_on_c, 2, 78, 0
4, 26040, Note_on_c, 2, 78, 92
4, 26040, Note_on_c, 2, 81, 92
4, 26250, Note_on_c, 2, 81, 0
4, 26250, Note_on_c, 2, 78, 0
4, 26280, Note_on_c, 2, 79, 92
4, 26280, Note_on_c, 2, 83, 92
4, 26380, Note_on_c, 2, 83, 0
4, 26380, Note_on_c, 2, 79, 0
4, 26400, Note_on_c, 2, 78, 92
4, 26400, Note_on_c, 2, 81, 92
4, 26500, Note_on_c, 2, 81, 0
4, 26500, Note_on_c, 2, 78, 0
4, 26520, Note_on_c, 2, 79, 92
4, 26520, Note_on_c, 2, 83, 92
4, 26620, Note_on_c, 2, 83, 0
4, 26620, Note_on_c, 2, 79, 0
4, 26640, Note_on_c, 2, 81, 92
4, 26640, Note_on_c, 2, 84, 92
4, 26740, Note_on_c, 2, 84, 0
4, 26740, Note_on_c, 2, 81, 0
4, 26760, Note_on_c, 2, 79, 92
4, 26760, Note_on_c, 2, 83, 92
4, 26860, Note_on_c, 2, 83, 0
4, 26860, Note_on_c, 2, 79, 0
4, 26880, Note_on_c, 2, 78, 92
4, 26880, Note_on_c, 2, 81, 92
4, 26980, Note_on_c, 2, 81, 0
4, 26980, Note_on_c, 2, 78, 0
4, 30840, Note_on_c, 2, 74, 92
4, 30840, Note_on_c, 2, 83, 92
4, 31050, Note_on_c, 2, 83, 0
4, 31050, Note_on_c, 2, 74, 0
4, 31080, Note_on_c, 2, 74, 92
4, 31080, Note_on_c, 2, 82, 92
4, 31180, Note_on_c, 2, 82, 0
4, 31180, Note_on_c, 2, 74, 0
4, 31200, Note_on_c, 2, 74, 92
4, 31200, Note_on_c, 2, 83, 92
4, 31300, Note_on_c, 2, 83, 0
4, 31300, Note_on_c, 2, 74, 0
4, 31320, Note_on_c, 2, 74, 92
4, 31320, Note_on_c, 2, 82, 92
4, 31420, Note_on_c, 2, 82, 0
4, 31420, Note_on_c, 2, 74, 0
4, 31440, Note_on_c, 2, 74, 92
4, 31440, Note_on_c, 2, 83, 92
4, 31540, Note_on_c, 2, 83, 0
4, 31540, Note_on_c, 2, 74, 0
4, 31560, Note_on_c, 2, 71, 92
4, 31560, Note_on_c, 2, 78, 92
4, 31660, Note_on_c, 2, 78, 0
4, 31660, Note_on_c, 2, 71, 0
4, 31680, Note_on_c, 2, 71, 92
4, 31680, Note_on_c, 2, 79, 92
4, 31780, Note_on_c, 2, 79, 0
4, 31780, Note_on_c, 2, 71, 0
4, 31800, Note_on_c, 2, 71, 92
4, 31800, Note_on_c, 2, 79, 92
4, 32010, Note_on_c, 2, 79, 0
4, 32010, Note_on_c, 2, 71, 0
4, 32040, Note_on_c, 2, 71, 92
4, 32040, Note_on_c, 2, 78, 92
4, 32140, Note_on_c, 2, 78, 0
4, 32140, Note_on_c, 2, 71, 0
4, 32160, Note_on_c, 2, 71, 92
4, 32160, Note_on_c, 2, 79, 92
4, 32260, Note_on_c, 2, 79, 0
4, 32260, Note_on_c, 2, 71, 0
4, 32280, Note_on_c, 2, 71, 92
4, 32280, Note_on_c, 2, 78, 92
4, 32380, Note_on_c, 2, 78, 0
4, 32380, Note_on_c, 2, 71, 0
4, 32400, Note_on_c, 2, 71, 92
4, 32400, Note_on_c, 2, 79, 92
4, 32500, Note_on_c, 2, 79, 0
4, 32500, Note_on_c, 2, 71, 0
4, 32520, Note_on_c, 2, 67, 92
4, 32520, Note_on_c, 2, 75, 92
4, 32620, Note_on_c, 2, 75, 0
4, 32620, Note_on_c, 2, 67, 0
4, 32640, Note_on_c, 2, 67, 92
4, 32640, Note_on_c, 2, 76, 92
4, 32740, Note_on_c, 2, 76, 0
4, 32740, Note_on_c, 2, 67, 0
4, 32760, Note_on_c, 2, 67, 92
4, 32760, Note_on_c, 2, 76, 92
4, 32970, Note_on_c, 2, 76, 0
4, 32970, Note_on_c, 2, 67, 0
4, 33000, Note_on_c, 2, 67, 92
4, 33000, Note_on_c, 2, 75, 92
4, 33100, Note_on_c, 2, 75, 0
4, 33100, Note_on_c, 2, 67, 0
4, 33120, Note_on_c, 2, 67, 92
4, 33120, Note_on_c, 2, 76, 92
4, 33220, Note_on_c, 2, 76, 0
4, 33220, Note_on_c, 2, 67, 0
4, 33240, Note_on_c, 2, 67, 92
4, 33240, Note_on_c, 2, 75, 92
4, 33340, Note_on_c, 2, 75, 0
4, 33340, Note_on_c, 2, 67, 0
4, 33360, Note_on_c, 2, 67, 92
4, 33360, Note_on_c, 2, 76, 92
4, 33460, Note_on_c, 2, 76, 0
4, 33460, Note_on_c, 2, 67, 0
4, 33480, Note_on_c, 2, 75, 92
4, 33480, Note_on_c, 2, 77, 92
4, 33580, Note_on_c, 2, 77, 0
4, 33580, Note_on_c, 2, 75, 0
4, 33600, Note_on_c, 2, 72, 92
4, 33600, Note_on_c, 2, 76, 92
4, 33720, Note_on_c, 2, 76, 0
4, 33720, Note_on_c, 2, 72, 0
4, 33720, Note_on_c, 2, 71, 92
4, 33720, Note_on_c, 2, 74, 92
4, 33840, Note_on_c, 2, 74, 0
4, 33840, Note_on_c, 2, 71, 0
4, 33840, Note_on_c, 2, 69, 92
4, 33840, Note_on_c, 2, 72, 92
4, 33960, Note_on_c, 2, 72, 0
4, 33960, Note_on_c, 2, 69, 0
4, 33960, Note_on_c, 2, 70, 92
4, 33960, Note_on_c, 2, 73, 92
4, 34060, Note_on_c, 2, 73, 0
4, 34060, Note_on_c, 2, 70, 0
4, 34080, Note_on_c, 2, 69, 92
4, 34080, Note_on_c, 2, 74, 92
4, 34180, Note_on_c, 2, 74, 0
4, 34180, Note_on_c, 2, 69, 0
4, 34560, Note_on_c, 2, 71, 92
4, 34560, Note_on_c, 2, 79, 92
4, 35490, Note_on_c, 2, 71, 0
4, 35520, Note_on_c, 2, 69, 92
4, 35730, Note_on_c, 2, 79, 0
4, 35760, Note_on_c, 2, 78, 92
4, 35970, Note_on_c, 2, 78, 0
4, 35970, Note_on_c, 2, 69, 0
4, 36000, Note_on_c, 2, 71, 92
4, 36000, Note_on_c, 2, 79, 92
4, 36930, Note_on_c, 2, 71, 0
4, 36960, Note_on_c, 2, 69, 92
4, 37170, Note_on_c, 2, 79, 0
4, 37200, Note_on_c, 2, 78, 92
4, 37410, Note_on_c, 2, 78, 0
4, 37410, Note_on_c, 2, 69, 0
4, 37440, Note_on_c, 2, 67, 92
4, 37440, Note_on_c, 2, 79, 92
4, 37540, Note_on_c, 2, 79, 0
4, 37540, Note_on_c, 2, 67, 0
4, 43200, Note_on_c, 2, 71, 60
4, 43260, Note_on_c, 2, 71, 0
4, 43260, Note_on_c, 2, 74, 60
4, 43320, Note_on_c, 2, 74, 0
4, 43320, Note_on_c, 2, 72, 60
4, 43380, Note_on_c, 2, 72, 0
4, 43380, Note_on_c, 2, 71, 60
4, 43440, Note_on_c, 2, 71, 0
4, 43440, Note_on_c, 2, 69, 60
4, 43500, Note_on_c, 2, 69, 0
4, 43500, Note_on_c, 2, 67, 60
4, 43560, Note_on_c, 2, 67, 0
4, 43560, Note_on_c, 2, 66, 60
4, 43620, Note_on_c, 2, 66, 0
4, 43620, Note_on_c, 2, 67, 60
4, 43678, Note_on_c, 2, 67, 0
4, 43680, Note_on_c, 2, 71, 60
4, 43740, Note_on_c, 2, 71, 0
4, 43740, Note_on_c, 2, 74, 60
4, 43800, Note_on_c, 2, 74, 0
4, 43800, Note_on_c, 2, 72, 60
4, 43860, Note_on_c, 2, 72, 0
4, 43860, Note_on_c, 2, 71, 60
4, 43920, Note_on_c, 2, 71, 0
4, 43920, Note_on_c, 2, 69, 60
4, 43980, Note_on_c, 2, 69, 0
4, 43980, Note_on_c, 2, 67, 60
4, 44040, Note_on_c, 2, 67, 0
4, 44040, Note_on_c, 2, 66, 60
4, 44100, Note_on_c, 2, 66, 0
4, 44100, Note_on_c, 2, 67, 60
4, 44158, Note_on_c, 2, 67, 0
4, 44160, Note_on_c, 2, 66, 60
4, 44160, Note_on_c, 2, 69, 60
4, 44370, Note_on_c, 2, 69, 0
4, 44370, Note_on_c, 2, 66, 0
4, 44400, Note_on_c, 2, 67, 60
4, 44400, Note_on_c, 2, 71, 60
4, 44610, Note_on_c, 2, 71, 0
4, 44610, Note_on_c, 2, 67, 0
4, 44640, Note_on_c, 2, 69, 60
4, 44640, Note_on_c, 2, 72, 60
4, 44850, Note_on_c, 2, 72, 0
4, 44850, Note_on_c, 2, 69, 0
4, 44880, Note_on_c, 2, 66, 60
4, 44880, Note_on_c, 2, 69, 60
4, 45090, Note_on_c, 2, 69, 0
4, 45090, Note_on_c, 2, 66, 0
4, 45120, Note_on_c, 2, 67, 60
4, 45220, Note_on_c, 2, 67, 0
4, 48000, Note_on_c, 2, 71, 92
4, 48000, Note_on_c, 2, 80, 92
4, 48100, Note_on_c, 2, 80, 0
4, 48100, Note_on_c, 2, 71, 0
4, 48120, Note_on_c, 2, 71, 92
4, 48120, Note_on_c, 2, 80, 92
4, 48330, Note_on_c, 2, 80, 0
4, 48330, Note_on_c, 2, 71, 0
4, 48360, Note_on_c, 2, 72, 92
4, 48360, Note_on_c, 2, 81, 92
4, 48460, Note_on_c, 2, 81, 0
4, 48460, Note_on_c, 2, 72, 0
4, 48480, Note_on_c, 2, 71, 92
4, 48480, Note_on_c, 2, 80, 92
4, 48580, Note_on_c, 2, 80, 0
4, 48580, Note_on_c, 2, 71, 0
4, 48600, Note_on_c, 2, 72, 92
4, 48600, Note_on_c, 2, 81, 92
4, 48700, Note_on_c, 2, 81, 0
4, 48700, Note_on_c, 2, 72, 0
4, 48720, Note_on_c, 2, 74, 92
4, 48720, Note_on_c, 2, 83, 92
4, 48820, Note_on_c, 2, 83, 0
4, 48820, Note_on_c, 2, 74, 0
4, 48840, Note_on_c, 2, 72, 92
4, 48840, Note_on_c, 2, 81, 92
4, 48940, Note_on_c, 2, 81, 0
4, 48940, Note_on_c, 2, 72, 0
4, 48960, Note_on_c, 2, 71, 92
4, 48960, Note_on_c, 2, 80, 92
4, 49060, Note_on_c, 2, 80, 0
4, 49060, Note_on_c, 2, 71, 0
4, 49080, Note_on_c, 2, 71, 92
4, 49080, Note_on_c, 2, 80, 92
4, 49290, Note_on_c, 2, 80, 0
4, 49290, Note_on_c, 2, 71, 0
4, 49320, Note_on_c, 2, 72, 92
4, 49320, Note_on_c, 2, 81, 92
4, 49420, Note_on_c, 2, 81, 0
4, 49420, Note_on_c, 2, 72, 0
4, 49440, Note_on_c, 2, 71, 92
4, 49440, Note_on_c, 2, 80, 92
4, 49540, Note_on_c, 2, 80, 0
4, 49540, Note_on_c, 2, 71, 0
4, 49560, Note_on_c, 2, 72, 92
4, 49560, Note_on_c, 2, 81, 92
4, 49660, Note_on_c, 2, 81, 0
4, 49660, Note_on_c, 2, 72, 0
4, 49680, Note_on_c, 2, 74, 92
4, 49680, Note_on_c, 2, 83, 92
4, 49780, Note_on_c, 2, 83, 0
4, 49780, Note_on_c, 2, 74, 0
4, 49800, Note_on_c, 2, 72, 92
4, 49800, Note_on_c, 2, 81, 92
4, 49900, Note_on_c, 2, 81, 0
4, 49900, Note_on_c, 2, 72, 0
4, 49920, Note_on_c, 2, 71, 92
4, 49920, Note_on_c, 2, 80, 92
4, 50020, Note_on_c, 2, 80, 0
4, 50020, Note_on_c, 2, 71, 0
4, 53760, Note_on_c, 2, 69, 92
4, 53760, Note_on_c, 2, 81, 92
4, 53860, Note_on_c, 2, 81, 0
4, 53860, Note_on_c, 2, 69, 0
4, 53880, Note_on_c, 2, 69, 92
4, 53880, Note_on_c, 2, 81, 92
4, 54090, Note_on_c, 2, 81, 0
4, 54090, Note_on_c, 2, 69, 0
4, 54120, Note_on_c, 2, 69, 92
4, 54120, Note_on_c, 2, 81, 92
4, 54220, Note_on_c, 2, 81, 0
4, 54220, Note_on_c, 2, 69, 0
4, 54240, Note_on_c, 2, 69, 92
4, 54240, Note_on_c, 2, 81, 92
4, 54340, Note_on_c, 2, 81, 0
4, 54340, Note_on_c, 2, 69, 0
4, 54360, Note_on_c, 2, 69, 92
4, 54360, Note_on_c, 2, 81, 92
4, 54460, Note_on_c, 2, 81, 0
4, 54460, Note_on_c, 2, 69, 0
4, 54480, Note_on_c, 2, 69, 92
4, 54480, Note_on_c, 2, 81, 92
4, 54580, Note_on_c, 2, 81, 0
4, 54580, Note_on_c, 2, 69, 0
4, 54600, Note_on_c, 2, 69, 92
4, 54600, Note_on_c, 2, 81, 92
4, 54700, Note_on_c, 2, 81, 0
4, 54700, Note_on_c, 2, 69, 0
4, 54720, Note_on_c, 2, 69, 92
4, 54720, Note_on_c, 2, 81, 92
4, 54820, Note_on_c, 2, 81, 0
4, 54820, Note_on_c, 2, 69, 0
4, 57600, Note_on_c, 2, 78, 92
4, 57600, Note_on_c, 2, 81, 92
4, 57700, Note_on_c, 2, 81, 0
4, 57700, Note_on_c, 2, 78, 0
4, 57720, Note_on_c, 2, 78, 92
4, 57720, Note_on_c, 2, 81, 92
4, 57930, Note_on_c, 2, 81, 0
4, 57930, Note_on_c, 2, 78, 0
4, 57960, Note_on_c, 2, 79, 92
4, 57960, Note_on_c, 2, 82, 92
4, 58060, Note_on_c, 2, 82, 0
4, 58060, Note_on_c, 2, 79, 0
4, 58080, Note_on_c, 2, 78, 92
4, 58080, Note_on_c, 2, 81, 92
4, 58180, Note_on_c, 2, 81, 0
4, 58180, Note_on_c, 2, 78, 0
4, 58200, Note_on_c, 2, 79, 92
4, 58200, Note_on_c, 2, 82, 92
4, 58300, Note_on_c, 2, 82, 0
4, 58300, Note_on_c, 2, 79, 0
4, 58320, Note_on_c, 2, 78, 92
4, 58320, Note_on_c, 2, 81, 92
4, 58420, Note_on_c, 2, 81, 0
4, 58420, Note_on_c, 2, 78, 0
4, 58440, Note_on_c, 2, 79, 92
4, 58440, Note_on_c, 2, 82, 92
4, 58540, Note_on_c, 2, 82, 0
4, 58540, Note_on_c, 2, 79, 0
4, 58560, Note_on_c, 2, 78, 92
4, 58560, Note_on_c, 2, 81, 92
4, 58660, Note_on_c, 2, 81, 0
4, 58660, Note_on_c, 2, 78, 0
4, 62400, Note_on_c, 2, 71, 92
4, 62400, Note_on_c, 2, 74, 92
4, 62500, Note_on_c, 2, 74, 0
4, 62500, Note_on_c, 2, 71, 0
4, 62520, Note_on_c, 2, 71, 92
4, 62520, Note_on_c, 2, 74, 92
4, 62730, Note_on_c, 2, 74, 0
4, 62730, Note_on_c, 2, 71, 0
4, 62760, Note_on_c, 2, 72, 92
4, 62760, Note_on_c, 2, 75, 92
4, 62860, Note_on_c, 2, 75, 0
4, 62860, Note_on_c, 2, 72, 0
4, 62880, Note_on_c, 2, 71, 92
4, 62880, Note_on_c, 2, 74, 92
4, 62980, Note_on_c, 2, 74, 0
4, 62980, Note_on_c, 2, 71, 0
4, 63000, Note_on_c, 2, 72, 92
4, 63000, Note_on_c, 2, 75, 92
4, 63100, Note_on_c, 2, 75, 0
4, 63100, Note_on_c, 2, 72, 0
4, 63120, Note_on_c, 2, 71, 92
4, 63120, Note_on_c, 2, 74, 92
4, 63220, Note_on_c, 2, 74, 0
4, 63220, Note_on_c, 2, 71, 0
4, 63240, Note_on_c, 2, 72, 92
4, 63240, Note_on_c, 2, 75, 92
4, 63340, Note_on_c, 2, 75, 0
4, 63340, Note_on_c, 2, 72, 0
4, 63360, Note_on_c, 2, 71, 92
4, 63360, Note_on_c, 2, 74, 92
4, 63460, Note_on_c, 2, 74, 0
4, 63460, Note_on_c, 2, 71, 0
4, 66240, Note_on_c, 2, 76, 92
4, 66240, Note_on_c, 2, 79, 92
4, 66340, Note_on_c, 2, 79, 0
4, 66340, Note_on_c, 2, 76, 0
4, 66360, Note_on_c, 2, 76, 92
4, 66360, Note_on_c, 2, 79, 92
4, 66570, Note_on_c, 2, 79, 0
4, 66570, Note_on_c, 2, 76, 0
4, 66600, Note_on_c, 2, 77, 92
4, 66600, Note_on_c, 2, 80, 92
4, 66700, Note_on_c, 2, 80, 0
4, 66700, Note_on_c, 2, 77, 0
4, 66720, Note_on_c, 2, 76, 92
4, 66720, Note_on_c, 2, 79, 92
4, 66820, Note_on_c, 2, 79, 0
4, 66820, Note_on_c, 2, 76, 0
4, 66840, Note_on_c, 2, 77, 92
4, 66840, Note_on_c, 2, 80, 92
4, 66940, Note_on_c, 2, 80, 0
4, 66940, Note_on_c, 2, 77, 0
4, 66960, Note_on_c, 2, 76, 92
4, 66960, Note_on_c, 2, 79, 92
4, 67060, Note_on_c, 2, 79, 0
4, 67060, Note_on_c, 2, 76, 0
4, 67080, Note_on_c, 2, 77, 92
4, 67080, Note_on_c, 2, 80, 92
4, 67180, Note_on_c, 2, 80, 0
4, 67180, Note_on_c, 2, 77, 0
4, 67200, Note_on_c, 2, 76, 92
4, 67200, Note_on_c, 2, 79, 92
4, 67300, Note_on_c, 2, 79, 0
4, 67300, Note_on_c, 2, 76, 0
4, 67320, Note_on_c, 2, 72, 60
4, 67530, Note_on_c, 2, 72, 0
4, 67560, Note_on_c, 2, 72, 60
4, 67780, Note_on_c, 2, 72, 0
4, 67800, Note_on_c, 2, 72, 60
4, 67900, Note_on_c, 2, 72, 0
4, 67920, Note_on_c, 2, 72, 60
4, 68020, Note_on_c, 2, 72, 0
4, 68040, Note_on_c, 2, 72, 60
4, 68160, Note_on_c, 2, 74, 60
4, 68260, Note_on_c, 2, 74, 0
4, 68260, Note_on_c, 2, 72, 0
4, 68280, Note_on_c, 2, 72, 60
4, 68280, Note_on_c, 2, 74, 60
4, 68490, Note_on_c, 2, 74, 0
4, 68490, Note_on_c, 2, 72, 0
4, 68520, Note_on_c, 2, 72, 60
4, 68520, Note_on_c, 2, 74, 60
4, 68640, Note_on_c, 2, 72, 0
4, 68640, Note_on_c, 2, 70, 60
4, 68740, Note_on_c, 2, 70, 0
4, 68740, Note_on_c, 2, 74, 0
4, 68760, Note_on_c, 2, 70, 60
4, 68760, Note_on_c, 2, 74, 60
4, 68860, Note_on_c, 2, 74, 0
4, 68860, Note_on_c, 2, 70, 0
4, 68880, Note_on_c, 2, 70, 60
4, 68880, Note_on_c, 2, 74, 60
4, 68980, Note_on_c, 2, 74, 0
4, 68980, Note_on_c, 2, 70, 0
4, 69000, Note_on_c, 2, 70, 60
4, 69000, Note_on_c, 2, 74, 60
4, 69120, Note_on_c, 2, 74, 0
4, 69120, Note_on_c, 2, 72, 60
4, 69220, Note_on_c, 2, 72, 0
4, 69220, Note_on_c, 2, 70, 0
4, 69240, Note_on_c, 2, 70, 60
4, 69240, Note_on_c, 2, 72, 60
4, 69450, Note_on_c, 2, 72, 0
4, 69450, Note_on_c, 2, 70, 0
4, 69480, Note_on_c, 2, 70, 60
4, 69480, Note_on_c, 2, 72, 60
4, 69600, Note_on_c, 2, 70, 0
4, 69600, Note_on_c, 2, 69, 60
4, 69700, Note_on_c, 2, 69, 0
4, 69700, Note_on_c, 2, 72, 0
4, 69720, Note_on_c, 2, 69, 60
4, 69720, Note_on_c, 2, 72, 60
4, 69820, Note_on_c, 2, 72, 0
4, 69820, Note_on_c, 2, 69, 0
4, 69840, Note_on_c, 2, 69, 60
4, 69840, Note_on_c, 2, 72, 60
4, 69940, Note_on_c, 2, 72, 0
4, 69940, Note_on_c, 2, 69, 0
4, 69960, Note_on_c, 2, 69, 60
4, 69960, Note_on_c, 2, 72, 60
4, 70080, Note_on_c, 2, 72, 0
4, 70080, Note_on_c, 2, 70, 60
4, 70180, Note_on_c, 2, 70, 0
4, 70180, Note_on_c, 2, 69, 0
4, 70200, Note_on_c, 2, 69, 60
4, 70200, Note_on_c, 2, 70, 60
4, 70410, Note_on_c, 2, 70, 0
4, 70410, Note_on_c, 2, 69, 0
4, 70440, Note_on_c, 2, 69, 60
4, 70440, Note_on_c, 2, 70, 60
4, 70560, Note_on_c, 2, 69, 0
4, 70560, Note_on_c, 2, 67, 60
4, 70660, Note_on_c, 2, 67, 0
4, 70660, Note_on_c, 2, 70, 0
4, 70680, Note_on_c, 2, 67, 60
4, 70680, Note_on_c, 2, 70, 60
4, 70780, Note_on_c, 2, 70, 0
4, 70780, Note_on_c, 2, 67, 0
4, 70800, Note_on_c, 2, 67, 60
4, 70800, Note_on_c, 2, 70, 60
4, 70900, Note_on_c, 2, 70, 0
4, 70900, Note_on_c, 2, 67, 0
4, 70920, Note_on_c, 2, 67, 60
4, 70920, Note_on_c, 2, 70, 60
4, 71020, Note_on_c, 2, 70, 0
4, 71020, Note_on_c, 2, 67, 0
4, 71040, Note_on_c, 2, 65, 60
4, 71040, Note_on_c, 2, 69, 60
4, 71100, Note_on_c, 2, 69, 0
4, 71100, Note_on_c, 2, 72, 60
4, 71140, Note_on_c, 2, 65, 0
4, 71160, Note_on_c, 2, 72, 0
4, 71160, Note_on_c, 2, 70, 60
4, 71220, Note_on_c, 2, 70, 0
4, 71220, Note_on_c, 2, 69, 60
4, 71280, Note_on_c, 2, 69, 0
4, 71280, Note_on_c, 2, 67, 60
4, 71340, Note_on_c, 2, 67, 0
4, 71340, Note_on_c, 2, 65, 60
4, 71400, Note_on_c, 2, 65, 0
4, 71400, Note_on_c, 2, 64, 60
4, 71460, Note_on_c, 2, 64, 0
4, 71460, Note_on_c, 2, 65, 60
4, 71518, Note_on_c, 2, 65, 0
4, 71520, Note_on_c, 2, 69, 60
4, 71580, Note_on_c, 2, 69, 0
4, 71580, Note_on_c, 2, 72, 60
4, 71640, Note_on_c, 2, 72, 0
4, 71640, Note_on_c, 2, 70, 60
4, 71700, Note_on_c, 2, 70, 0
4, 71700, Note_on_c, 2, 69, 60
4, 71760, Note_on_c, 2, 69, 0
4, 71760, Note_on_c, 2, 67, 60
4, 71820, Note_on_c, 2, 67, 0
4, 71820, Note_on_c, 2, 65, 60
4, 71880, Note_on_c, 2, 65, 0
4, 71880, Note_on_c, 2, 64, 60
4, 71940, Note_on_c, 2, 64, 0
4, 71940, Note_on_c, 2, 65, 60
4, 71998, Note_on_c, 2, 65, 0
4, 73920, Note_on_c, 2, 72, 60
4, 73980, Note_on_c, 2, 72, 0
4, 73980, Note_on_c, 2, 74, 60
4, 74040, Note_on_c, 2, 74, 0
4, 74040, Note_on_c, 2, 72, 60
4, 74100, Note_on_c, 2, 72, 0
4, 74100, Note_on_c, 2, 74, 60
4, 74160, Note_on_c, 2, 74, 0
4, 74160, Note_on_c, 2, 72, 60
4, 74220, Note_on_c, 2, 72, 0
4, 74220, Note_on_c, 2, 74, 60
4, 74280, Note_on_c, 2, 74, 0
4, 74280, Note_on_c, 2, 72, 60
4, 74340, Note_on_c, 2, 72, 0
4, 74340, Note_on_c, 2, 74, 60
4, 74398, Note_on_c, 2, 74, 0
4, 74400, Note_on_c, 2, 72, 60
4, 74460, Note_on_c, 2, 72, 0
4, 74460, Note_on_c, 2, 74, 60
4, 74520, Note_on_c, 2, 74, 0
4, 74520, Note_on_c, 2, 72, 60
4, 74580, Note_on_c, 2, 72, 0
4, 74580, Note_on_c, 2, 74, 60
4, 74640, Note_on_c, 2, 74, 0
4, 74640, Note_on_c, 2, 72, 60
4, 74700, Note_on_c, 2, 72, 0
4, 74700, Note_on_c, 2, 70, 60
4, 74760, Note_on_c, 2, 70, 0
4, 74760, Note_on_c, 2, 69, 60
4, 74820, Note_on_c, 2, 69, 0
4, 74820, Note_on_c, 2, 67, 60
4, 74878, Note_on_c, 2, 67, 0
4, 74880, Note_on_c, 2, 69, 60
4, 74940, Note_on_c, 2, 69, 0
4, 74940, Note_on_c, 2, 72, 60
4, 75000, Note_on_c, 2, 72, 0
4, 75000, Note_on_c, 2, 70, 60
4, 75060, Note_on_c, 2, 70, 0
4, 75060, Note_on_c, 2, 69, 60
4, 75120, Note_on_c, 2, 69, 0
4, 75120, Note_on_c, 2, 67, 60
4, 75180, Note_on_c, 2, 67, 0
4, 75180, Note_on_c, 2, 65, 60
4, 75240, Note_on_c, 2, 65, 0
4, 75240, Note_on_c, 2, 64, 60
4, 75300, Note_on_c, 2, 64, 0
4, 75300, Note_on_c, 2, 65, 60
4, 75358, Note_on_c, 2, 65, 0
4, 75360, Note_on_c, 2, 69, 60
4, 75420, Note_on_c, 2, 69, 0
4, 75420, Note_on_c, 2, 72, 60
4, 75480, Note_on_c, 2, 72, 0
4, 75480, Note_on_c, 2, 70, 60
4, 75540, Note_on_c, 2, 70, 0
4, 75540, Note_on_c, 2, 69, 60
4, 75600, Note_on_c, 2, 69, 0
4, 75600, Note_on_c, 2, 67, 60
4, 75660, Note_on_c, 2, 67, 0
4, 75660, Note_on_c, 2, 65, 60
4, 75720, Note_on_c, 2, 65, 0
4, 75720, Note_on_c, 2, 64, 60
4, 75780, Note_on_c, 2, 64, 0
4, 75780, Note_on_c, 2, 65, 60
4, 75838, Note_on_c, 2, 65, 0
4, 76800, Note_on_c, 2, 69, 60
4, 76860, Note_on_c, 2, 69, 0
4, 76860, Note_on_c, 2, 72, 60
4, 76920, Note_on_c, 2, 72, 0
4, 76920, Note_on_c, 2, 70, 60
4, 76980, Note_on_c, 2, 70, 0
4, 76980, Note_on_c, 2, 69, 60
4, 77040, Note_on_c, 2, 69, 0
4, 77040, Note_on_c, 2, 67, 60
4, 77100, Note_on_c, 2, 67, 0
4, 77100, Note_on_c, 2, 65, 60
4, 77160, Note_on_c, 2, 65, 0
4, 77160, Note_on_c, 2, 64, 60
4, 77220, Note_on_c, 2, 64, 0
4, 77220, Note_on_c, 2, 65, 60
4, 77278, Note_on_c, 2, 65, 0
4, 77280, Note_on_c, 2, 69, 60
4, 77340, Note_on_c, 2, 69, 0
4, 77340, Note_on_c, 2, 72, 60
4, 77400, Note_on_c, 2, 72, 0
4, 77400, Note_on_c, 2, 70, 60
4, 77460, Note_on_c, 2, 70, 0
4, 77460, Note_on_c, 2, 69, 60
4, 77520, Note_on_c, 2, 69, 0
4, 77520, Note_on_c, 2, 67, 60
4, 77580, Note_on_c, 2, 67, 0
4, 77580, Note_on_c, 2, 65, 60
4, 77640, Note_on_c, 2, 65, 0
4, 77640, Note_on_c, 2, 64, 60
4, 77700, Note_on_c, 2, 64, 0
4, 77700, Note_on_c, 2, 65, 60
4, 77758, Note_on_c, 2, 65, 0
4, 77760, Note_on_c, 2, 64, 60
4, 77760, Note_on_c, 2, 67, 60
4, 78000, Note_on_c, 2, 67, 0
4, 78000, Note_on_c, 2, 64, 0
4, 78000, Note_on_c, 2, 65, 60
4, 78000, Note_on_c, 2, 69, 60
4, 78240, Note_on_c, 2, 69, 0
4, 78240, Note_on_c, 2, 65, 0
4, 78240, Note_on_c, 2, 67, 60
4, 78240, Note_on_c, 2, 70, 60
4, 78480, Note_on_c, 2, 70, 0
4, 78480, Note_on_c, 2, 67, 0
4, 78480, Note_on_c, 2, 64, 60
4, 78480, Note_on_c, 2, 67, 60
4, 78690, Note_on_c, 2, 67, 0
4, 78690, Note_on_c, 2, 64, 0
4, 78720, Note_on_c, 2, 65, 60
4, 78820, Note_on_c, 2, 65, 0
4, 78840, Note_on_c, 2, 72, 92
4, 78840, Note_on_c, 2, 81, 92
4, 79050, Note_on_c, 2, 81, 0
4, 79050, Note_on_c, 2, 72, 0
4, 79080, Note_on_c, 2, 72, 92
4, 79080, Note_on_c, 2, 80, 92
4, 79180, Note_on_c, 2, 80, 0
4, 79180, Note_on_c, 2, 72, 0
4, 79200, Note_on_c, 2, 72, 92
4, 79200, Note_on_c, 2, 81, 92
4, 79300, Note_on_c, 2, 81, 0
4, 79300, Note_on_c, 2, 72, 0
4, 79320, Note_on_c, 2, 72, 92
4, 79320, Note_on_c, 2, 80, 92
4, 79420, Note_on_c, 2, 80, 0
4, 79420, Note_on_c, 2, 72, 0
4, 79440, Note_on_c, 2, 72, 92
4, 79440, Note_on_c, 2, 81, 92
4, 79540, Note_on_c, 2, 81, 0
4, 79540, Note_on_c, 2, 72, 0
4, 79560, Note_on_c, 2, 69, 92
4, 79560, Note_on_c, 2, 76, 92
4, 79660, Note_on_c, 2, 76, 0
4, 79660, Note_on_c, 2, 69, 0
4, 79680, Note_on_c, 2, 69, 92
4, 79680, Note_on_c, 2, 77, 92
4, 79780, Note_on_c, 2, 77, 0
4, 79780, Note_on_c, 2, 69, 0
4, 79800, Note_on_c, 2, 69, 92
4, 79800, Note_on_c, 2, 77, 92
4, 80010, Note_on_c, 2, 77, 0
4, 80010, Note_on_c, 2, 69, 0
4, 80040, Note_on_c, 2, 69, 92
4, 80040, Note_on_c, 2, 76, 92
4, 80140, Note_on_c, 2, 76, 0
4, 80140, Note_on_c, 2, 69, 0
4, 80160, Note_on_c, 2, 69, 92
4, 80160, Note_on_c, 2, 77, 92
4, 80260, Note_on_c, 2, 77, 0
4, 80260, Note_on_c, 2, 69, 0
4, 80280, Note_on_c, 2, 69, 92
4, 80280, Note_on_c, 2, 76, 92
4, 80380, Note_on_c, 2, 76, 0
4, 80380, Note_on_c, 2, 69, 0
4, 80400, Note_on_c, 2, 69, 92
4, 80400, Note_on_c, 2, 77, 92
4, 80500, Note_on_c, 2, 77, 0
4, 80500, Note_on_c, 2, 69, 0
4, 80520, Note_on_c, 2, 67, 92
4, 80520, Note_on_c, 2, 74, 92
4, 80620, Note_on_c, 2, 74, 0
4, 80620, Note_on_c, 2, 67, 0
4, 80640, Note_on_c, 2, 67, 92
4, 80640, Note_on_c, 2, 75, 92
4, 80740, Note_on_c, 2, 75, 0
4, 80740, Note_on_c, 2, 67, 0
4, 80760, Note_on_c, 2, 67, 92
4, 80760, Note_on_c, 2, 75, 92
4, 80970, Note_on_c, 2, 75, 0
4, 80970, Note_on_c, 2, 67, 0
4, 81000, Note_on_c, 2, 67, 92
4, 81000, Note_on_c, 2, 74, 92
4, 81100, Note_on_c, 2, 74, 0
4, 81100, Note_on_c, 2, 67, 0
4, 81120, Note_on_c, 2, 67, 92
4, 81120, Note_on_c, 2, 75, 92
4, 81220, Note_on_c, 2, 75, 0
4, 81220, Note_on_c, 2, 67, 0
4, 81240, Note_on_c, 2, 67, 92
4, 81240, Note_on_c, 2, 74, 92
4, 81340, Note_on_c, 2, 74, 0
4, 81340, Note_on_c, 2, 67, 0
4, 81360, Note_on_c, 2, 67, 92
4, 81360, Note_on_c, 2, 75, 92
4, 81460, Note_on_c, 2, 75, 0
4, 81460, Note_on_c, 2, 67, 0
4, 81480, Note_on_c, 2, 63, 92
4, 81480, Note_on_c, 2, 71, 92
4, 81580, Note_on_c, 2, 71, 0
4, 81580, Note_on_c, 2, 63, 0
4, 81600, Note_on_c, 2, 63, 92
4, 81600, Note_on_c, 2, 72, 92
4, 81700, Note_on_c, 2, 72, 0
4, 81700, Note_on_c, 2, 63, 0
4, 81720, Note_on_c, 2, 63, 92
4, 81720, Note_on_c, 2, 71, 92
4, 81820, Note_on_c, 2, 71, 0
4, 81820, Note_on_c, 2, 63, 0
4, 81840, Note_on_c, 2, 63, 92
4, 81840, Note_on_c, 2, 72, 92
4, 81940, Note_on_c, 2, 72, 0
4, 81940, Note_on_c, 2, 63, 0
4, 81960, Note_on_c, 2, 67, 92
4, 81960, Note_on_c, 2, 72, 92
4, 82060, Note_on_c, 2, 72, 0
4, 82060, Note_on_c, 2, 67, 0
4, 82080, Note_on_c, 2, 68, 92
4, 82080, Note_on_c, 2, 72, 92
4, 82180, Note_on_c, 2, 72, 0
4, 82180, Note_on_c, 2, 68, 0
4, 82200, Note_on_c, 2, 67, 92
4, 82200, Note_on_c, 2, 72, 92
4, 82300, Note_on_c, 2, 72, 0
4, 82300, Note_on_c, 2, 67, 0
4, 82320, Note_on_c, 2, 68, 92
4, 82320, Note_on_c, 2, 72, 92
4, 82420, Note_on_c, 2, 72, 0
4, 82420, Note_on_c, 2, 68, 0
4, 82440, Note_on_c, 2, 64, 92
4, 82440, Note_on_c, 2, 72, 92
4, 82540, Note_on_c, 2, 72, 0
4, 82540, Note_on_c, 2, 64, 0
4, 82560, Note_on_c, 2, 65, 92
4, 82560, Note_on_c, 2, 72, 92
4, 82660, Note_on_c, 2, 65, 0
4, 82680, Note_on_c, 2, 64, 92
4, 82780, Note_on_c, 2, 64, 0
4, 82800, Note_on_c, 2, 68, 92
4, 82900, Note_on_c, 2, 68, 0
4, 82920, Note_on_c, 2, 67, 92
4, 83010, Note_on_c, 2, 72, 0
4, 83020, Note_on_c, 2, 67, 0
4, 83040, Note_on_c, 2, 77, 92
4, 83140, Note_on_c, 2, 77, 0
4, 83160, Note_on_c, 2, 75, 92
4, 83260, Note_on_c, 2, 75, 0
4, 83280, Note_on_c, 2, 74, 92
4, 83380, Note_on_c, 2, 74, 0
4, 83400, Note_on_c, 2, 72, 92
4, 83500, Note_on_c, 2, 72, 0
4, 83520, Note_on_c, 2, 67, 92
4, 83620, Note_on_c, 2, 67, 0
4, 90240, Note_on_c, 2, 76, 92
4, 90240, Note_on_c, 2, 79, 92
4, 90340, Note_on_c, 2, 79, 0
4, 90340, Note_on_c, 2, 76, 0
4, 90360, Note_on_c, 2, 76, 92
4, 90360, Note_on_c, 2, 79, 92
4, 90570, Note_on_c, 2, 79, 0
4, 90570, Note_on_c, 2, 76, 0
4, 90600, Note_on_c, 2, 77, 92
4, 90600, Note_on_c, 2, 81, 92
4, 90700, Note_on_c, 2, 81, 0
4, 90700, Note_on_c, 2, 77, 0
4, 90720, Note_on_c, 2, 76, 92
4, 90720, Note_on_c, 2, 79, 92
4, 90820, Note_on_c, 2, 79, 0
4, 90820, Note_on_c, 2, 76, 0
4, 90840, Note_on_c, 2, 77, 92
4, 90840, Note_on_c, 2, 81, 92
4, 90940, Note_on_c, 2, 81, 0
4, 90940, Note_on_c, 2, 77, 0
4, 90960, Note_on_c, 2, 76, 92
4, 90960, Note_on_c, 2, 79, 92
4, 91060, Note_on_c, 2, 79, 0
4, 91060, Note_on_c, 2, 76, 0
4, 91080, Note_on_c, 2, 77, 92
4, 91080, Note_on_c, 2, 81, 92
4, 91180, Note_on_c, 2, 81, 0
4, 91180, Note_on_c, 2, 77, 0
4, 91200, Note_on_c, 2, 76, 92
4, 91200, Note_on_c, 2, 79, 92
4, 91300, Note_on_c, 2, 79, 0
4, 91300, Note_on_c, 2, 76, 0
4, 91320, Note_on_c, 2, 76, 92
4, 91320, Note_on_c, 2, 79, 92
4, 91530, Note_on_c, 2, 79, 0
4, 91530, Note_on_c, 2, 76, 0
4, 91560, Note_on_c, 2, 77, 92
4, 91560, Note_on_c, 2, 81, 92
4, 91660, Note_on_c, 2, 81, 0
4, 91660, Note_on_c, 2, 77, 0
4, 91680, Note_on_c, 2, 76, 92
4, 91680, Note_on_c, 2, 79, 92
4, 91780, Note_on_c, 2, 79, 0
4, 91780, Note_on_c, 2, 76, 0
4, 91800, Note_on_c, 2, 77, 92
4, 91800, Note_on_c, 2, 81, 92
4, 91900, Note_on_c, 2, 81, 0
4, 91900, Note_on_c, 2, 77, 0
4, 91920, Note_on_c, 2, 76, 92
4, 91920, Note_on_c, 2, 79, 92
4, 92020, Note_on_c, 2, 79, 0
4, 92020, Note_on_c, 2, 76, 0
4, 92040, Note_on_c, 2, 77, 92
4, 92040, Note_on_c, 2, 81, 92
4, 92140, Note_on_c, 2, 81, 0
4, 92140, Note_on_c, 2, 77, 0
4, 92160, Note_on_c, 2, 76, 92
4, 92160, Note_on_c, 2, 79, 92
4, 92260, Note_on_c, 2, 79, 0
4, 92260, Note_on_c, 2, 76, 0
4, 99960, Note_on_c, 2, 76, 92
4, 99960, Note_on_c, 2, 79, 92
4, 100170, Note_on_c, 2, 79, 0
4, 100170, Note_on_c, 2, 76, 0
4, 100200, Note_on_c, 2, 75, 92
4, 100200, Note_on_c, 2, 79, 92
4, 100300, Note_on_c, 2, 79, 0
4, 100300, Note_on_c, 2, 75, 0
4, 100320, Note_on_c, 2, 76, 92
4, 100320, Note_on_c, 2, 79, 92
4, 100420, Note_on_c, 2, 79, 0
4, 100420, Note_on_c, 2, 76, 0
4, 100440, Note_on_c, 2, 75, 92
4, 100440, Note_on_c, 2, 79, 92
4, 100540, Note_on_c, 2, 79, 0
4, 100540, Note_on_c, 2, 75, 0
4, 100560, Note_on_c, 2, 76, 92
4, 100560, Note_on_c, 2, 79, 92
4, 100660, Note_on_c, 2, 79, 0
4, 100660, Note_on_c, 2, 76, 0
4, 100680, Note_on_c, 2, 71, 92
4, 100680, Note_on_c, 2, 76, 92
4, 100780, Note_on_c, 2, 76, 0
4, 100780, Note_on_c, 2, 71, 0
4, 100800, Note_on_c, 2, 72, 92
4, 100800, Note_on_c, 2, 76, 92
4, 100900, Note_on_c, 2, 76, 0
4, 100900, Note_on_c, 2, 72, 0
4, 100920, Note_on_c, 2, 72, 92
4, 100920, Note_on_c, 2, 76, 92
4, 101130, Note_on_c, 2, 76, 0
4, 101130, Note_on_c, 2, 72, 0
4, 101160, Note_on_c, 2, 71, 92
4, 101160, Note_on_c, 2, 76, 92
4, 101260, Note_on_c, 2, 76, 0
4, 101260, Note_on_c, 2, 71, 0
4, 101280, Note_on_c, 2, 72, 92
4, 101280, Note_on_c, 2, 76, 92
4, 101380, Note_on_c, 2, 76, 0
4, 101380, Note_on_c, 2, 72, 0
4, 101400, Note_on_c, 2, 71, 92
4, 101400, Note_on_c, 2, 76, 92
4, 101500, Note_on_c, 2, 76, 0
4, 101500, Note_on_c, 2, 71, 0
4, 101520, Note_on_c, 2, 72, 92
4, 101520, Note_on_c, 2, 76, 92
4, 101620, Note_on_c, 2, 76, 0
4, 101620, Note_on_c, 2, 72, 0
4, 101640, Note_on_c, 2, 68, 92
4, 101640, Note_on_c, 2, 72, 92
4, 101740, Note_on_c, 2, 72, 0
4, 101740, Note_on_c, 2, 68, 0
4, 101760, Note_on_c, 2, 69, 92
4, 101760, Note_on_c, 2, 72, 92
4, 101860, Note_on_c, 2, 72, 0
4, 101860, Note_on_c, 2, 69, 0
4, 101880, Note_on_c, 2, 69, 92
4, 101880, Note_on_c, 2, 72, 92
4, 102090, Note_on_c, 2, 72, 0
4, 102090, Note_on_c, 2, 69, 0
4, 102120, Note_on_c, 2, 68, 92
4, 102120, Note_on_c, 2, 72, 92
4, 102220, Note_on_c, 2, 72, 0
4, 102220, Note_on_c, 2, 68, 0
4, 102240, Note_on_c, 2, 69, 92
4, 102240, Note_on_c, 2, 72, 92
4, 102340, Note_on_c, 2, 72, 0
4, 102340, Note_on_c, 2, 69, 0
4, 102360, Note_on_c, 2, 68, 92
4, 102360, Note_on_c, 2, 72, 92
4, 102460, Note_on_c, 2, 72, 0
4, 102460, Note_on_c, 2, 68, 0
4, 102480, Note_on_c, 2, 69, 92
4, 102480, Note_on_c, 2, 72, 92
4, 102580, Note_on_c, 2, 72, 0
4, 102580, Note_on_c, 2, 69, 0
4, 102600, Note_on_c, 2, 70, 92
4, 102600, Note_on_c, 2, 73, 92
4, 102700, Note_on_c, 2, 73, 0
4, 102700, Note_on_c, 2, 70, 0
4, 102720, Note_on_c, 2, 69, 92
4, 102720, Note_on_c, 2, 74, 92
4, 102820, Note_on_c, 2, 74, 0
4, 102820, Note_on_c, 2, 69, 0
4, 102840, Note_on_c, 2, 70, 92
4, 102840, Note_on_c, 2, 73, 92
4, 102940, Note_on_c, 2, 73, 0
4, 102940, Note_on_c, 2, 70, 0
4, 102960, Note_on_c, 2, 69, 92
4, 102960, Note_on_c, 2, 74, 92
4, 103060, Note_on_c, 2, 74, 0
4, 103080, Note_on_c, 2, 76, 92
4, 103180, Note_on_c, 2, 76, 0
4, 103200, Note_on_c, 2, 77, 92
4, 103300, Note_on_c, 2, 77, 0
4, 103300, Note_on_c, 2, 69, 0
4, 103320, Note_on_c, 2, 75, 92
4, 103320, Note_on_c, 2, 78, 92
4, 103420, Note_on_c, 2, 78, 0
4, 103420, Note_on_c, 2, 75, 0
4, 103440, Note_on_c, 2, 74, 92
4, 103440, Note_on_c, 2, 79, 92
4, 103540, Note_on_c, 2, 79, 0
4, 103540, Note_on_c, 2, 74, 0
4, 103560, Note_on_c, 2, 71, 92
4, 103560, Note_on_c, 2, 77, 92
4, 103660, Note_on_c, 2, 77, 0
4, 103660, Note_on_c, 2, 71, 0
4, 103680, Note_on_c, 2, 72, 92
4, 103680, Note_on_c, 2, 76, 92
4, 104130, Note_on_c, 2, 76, 0
4, 104160, Note_on_c, 2, 74, 92
4, 104370, Note_on_c, 2, 72, 0
4, 104400, Note_on_c, 2, 71, 92
4, 104610, Note_on_c, 2, 71, 0
4, 104610, Note_on_c, 2, 74, 0
4, 104640, Note_on_c, 2, 72, 92
4, 104740, Note_on_c, 2, 72, 0
4, 104760, Note_on_c, 2, 76, 92
4, 104760, Note_on_c, 2, 79, 92
4, 104970, Note_on_c, 2, 79, 0
4, 104970, Note_on_c, 2, 76, 0
4, 105000, Note_on_c, 2, 75, 92
4, 105000, Note_on_c, 2, 79, 92
4, 105100, Note_on_c, 2, 79, 0
4, 105100, Note_on_c, 2, 75, 0
4, 105120, Note_on_c, 2, 76, 92
4, 105120, Note_on_c, 2, 79, 92
4, 105220, Note_on_c, 2, 79, 0
4, 105220, Note_on_c, 2, 76, 0
4, 105240, Note_on_c, 2, 75, 92
4, 105240, Note_on_c, 2, 79, 92
4, 105340, Note_on_c, 2, 79, 0
4, 105340, Note_on_c, 2, 75, 0
4, 105360, Note_on_c, 2, 76, 92
4, 105360, Note_on_c, 2, 79, 92
4, 105460, Note_on_c, 2, 79, 0
4, 105460, Note_on_c, 2, 76, 0
4, 105480, Note_on_c, 2, 71, 92
4, 105480, Note_on_c, 2, 76, 92
4, 105580, Note_on_c, 2, 76, 0
4, 105580, Note_on_c, 2, 71, 0
4, 105600, Note_on_c, 2, 72, 92
4, 105600, Note_on_c, 2, 76, 92
4, 105700, Note_on_c, 2, 76, 0
4, 105700, Note_on_c, 2, 72, 0
4, 105720, Note_on_c, 2, 72, 92
4, 105720, Note_on_c, 2, 76, 92
4, 105930, Note_on_c, 2, 76, 0
4, 105930, Note_on_c, 2, 72, 0
4, 105960, Note_on_c, 2, 71, 92
4, 105960, Note_on_c, 2, 76, 92
4, 106060, Note_on_c, 2, 76, 0
4, 106060, Note_on_c, 2, 71, 0
4, 106080, Note_on_c, 2, 72, 92
4, 106080, Note_on_c, 2, 76, 92
4, 106180, Note_on_c, 2, 76, 0
4, 106180, Note_on_c, 2, 72, 0
4, 106200, Note_on_c, 2, 71, 92
4, 106200, Note_on_c, 2, 76, 92
4, 106300, Note_on_c, 2, 76, 0
4, 106300, Note_on_c, 2, 71, 0
4, 106320, Note_on_c, 2, 72, 92
4, 106320, Note_on_c, 2, 76, 92
4, 106420, Note_on_c, 2, 76, 0
4, 106420, Note_on_c, 2, 72, 0
4, 106440, Note_on_c, 2, 68, 92
4, 106440, Note_on_c, 2, 72, 92
4, 106540, Note_on_c, 2, 72, 0
4, 106540, Note_on_c, 2, 68, 0
4, 106560, Note_on_c, 2, 69, 92
4, 106560, Note_on_c, 2, 72, 92
4, 106660, Note_on_c, 2, 72, 0
4, 106660, Note_on_c, 2, 69, 0
4, 106680, Note_on_c, 2, 69, 92
4, 106680, Note_on_c, 2, 72, 92
4, 106890, Note_on_c, 2, 72, 0
4, 106890, Note_on_c, 2, 69, 0
4, 106920, Note_on_c, 2, 68, 92
4, 106920, Note_on_c, 2, 72, 92
4, 107020, Note_on_c, 2, 72, 0
4, 107020, Note_on_c, 2, 68, 0
4, 107040, Note_on_c, 2, 69, 92
4, 107040, Note_on_c, 2, 72, 92
4, 107140, Note_on_c, 2, 72, 0
4, 107140, Note_on_c, 2, 69, 0
4, 107160, Note_on_c, 2, 68, 92
4, 107160, Note_on_c, 2, 72, 92
4, 107260, Note_on_c, 2, 72, 0
4, 107260, Note_on_c, 2, 68, 0
4, 107280, Note_on_c, 2, 69, 92
4, 107280, Note_on_c, 2, 72, 92
4, 107380, Note_on_c, 2, 72, 0
4, 107380, Note_on_c, 2, 69, 0
4, 107400, Note_on_c, 2, 70, 92
4, 107400, Note_on_c, 2, 73, 92
4, 107500, Note_on_c, 2, 73, 0
4, 107500, Note_on_c, 2, 70, 0
4, 107520, Note_on_c, 2, 69, 92
4, 107520, Note_on_c, 2, 74, 92
4, 107620, Note_on_c, 2, 74, 0
4, 107620, Note_on_c, 2, 69, 0
4, 107640, Note_on_c, 2, 70, 92
4, 107640, Note_on_c, 2, 73, 92
4, 107740, Note_on_c, 2, 73, 0
4, 107740, Note_on_c, 2, 70, 0
4, 107760, Note_on_c, 2, 69, 92
4, 107760, Note_on_c, 2, 74, 92
4, 107860, Note_on_c, 2, 74, 0
4, 107880, Note_on_c, 2, 76, 92
4, 107980, Note_on_c, 2, 76, 0
4, 108000, Note_on_c, 2, 77, 92
4, 108100, Note_on_c, 2, 77, 0
4, 108100, Note_on_c, 2, 69, 0
4, 108120, Note_on_c, 2, 75, 92
4, 108120, Note_on_c, 2, 78, 92
4, 108220, Note_on_c, 2, 78, 0
4, 108220, Note_on_c, 2, 75, 0
4, 108240, Note_on_c, 2, 74, 92
4, 108240, Note_on_c, 2, 79, 92
4, 108340, Note_on_c, 2, 79, 0
4, 108340, Note_on_c, 2, 74, 0
4, 108360, Note_on_c, 2, 71, 92
4, 108360, Note_on_c, 2, 77, 92
4, 108460, Note_on_c, 2, 77, 0
4, 108460, Note_on_c, 2, 71, 0
4, 108480, Note_on_c, 2, 72, 92
4, 108480, Note_on_c, 2, 76, 92
4, 108580, Note_on_c, 2, 76, 0
4, 108580, Note_on_c, 2, 72, 0
4, 112800, Note_on_c, 2, 72, 92
4, 112800, Note_on_c, 2, 76, 92
4, 113250, Note_on_c, 2, 76, 0
4, 113280, Note_on_c, 2, 77, 92
4, 113730, Note_on_c, 2, 77, 0
4, 113760, Note_on_c, 2, 81, 92
4, 114210, Note_on_c, 2, 81, 0
4, 114240, Note_on_c, 2, 74, 92
4, 114690, Note_on_c, 2, 74, 0
4, 114690, Note_on_c, 2, 72, 0
4, 114720, Note_on_c, 2, 71, 92
4, 114720, Note_on_c, 2, 79, 92
4, 115170, Note_on_c, 2, 79, 0
4, 115170, Note_on_c, 2, 71, 0
4, 115200, Note_on_c, 2, 72, 92
4, 115300, Note_on_c, 2, 72, 0
4, 117120, Control_c, 2, 7, 32
4, 117120, Note_on_c, 2, 72, 60
4, 117120, Note_on_c, 2, 76, 60
4, 118560, Control_c, 2, 7, 48
4, 119040, Control_c, 2, 7, 64
4, 119520, Control_c, 2, 7, 80
4, 120000, Control_c, 2, 7, 96
4, 120930, Note_on_c, 2, 76, 0
4, 120930, Note_on_c, 2, 72, 0
4, 120960, Note_on_c, 2, 76, 108
4, 120960, Note_on_c, 2, 79, 108
4, 121060, Note_on_c, 2, 79, 0
4, 121060, Note_on_c, 2, 76, 0
4, 121080, Note_on_c, 2, 76, 108
4, 121080, Note_on_c, 2, 79, 108
4, 121290, Note_on_c, 2, 79, 0
4, 121290, Note_on_c, 2, 76, 0
4, 121320, Note_on_c, 2, 77, 108
4, 121320, Note_on_c, 2, 81, 108
4, 121420, Note_on_c, 2, 81, 0
4, 121420, Note_on_c, 2, 77, 0
4, 121440, Note_on_c, 2, 76, 108
4, 121440, Note_on_c, 2, 79, 108
4, 121540, Note_on_c, 2, 79, 0
4, 121540, Note_on_c, 2, 76, 0
4, 121560, Note_on_c, 2, 77, 108
4, 121560, Note_on_c, 2, 81, 108
4, 121660, Note_on_c, 2, 81, 0
4, 121660, Note_on_c, 2, 77, 0
4, 121680, Note_on_c, 2, 76, 108
4, 121680, Note_on_c, 2, 79, 108
4, 121780, Note_on_c, 2, 79, 0
4, 121780, Note_on_c, 2, 76, 0
4, 121800, Note_on_c, 2, 74, 108
4, 121800, Note_on_c, 2, 77, 108
4, 121900, Note_on_c, 2, 77, 0
4, 121900, Note_on_c, 2, 74, 0
4, 121920, Note_on_c, 2, 72, 108
4, 121920, Note_on_c, 2, 76, 108
4, 122020, Note_on_c, 2, 76, 0
4, 122020, Note_on_c, 2, 72, 0
4, 122040, Note_on_c, 2, 76, 108
4, 122040, Note_on_c, 2, 79, 108
4, 122250, Note_on_c, 2, 79, 0
4, 122250, Note_on_c, 2, 76, 0
4, 122280, Note_on_c, 2, 77, 108
4, 122280, Note_on_c, 2, 81, 108
4, 122380, Note_on_c, 2, 81, 0
4, 122380, Note_on_c, 2, 77, 0
4, 122400, Note_on_c, 2, 76, 108
4, 122400, Note_on_c, 2, 79, 108
4, 122500, Note_on_c, 2, 79, 0
4, 122500, Note_on_c, 2, 76, 0
4, 122520, Note_on_c, 2, 77, 108
4, 122520, Note_on_c, 2, 81, 108
4, 122620, Note_on_c, 2, 81, 0
4, 122620, Note_on_c, 2, 77, 0
4, 122640, Note_on_c, 2, 76, 108
4, 122640, Note_on_c, 2, 79, 108
4, 122740, Note_on_c, 2, 79, 0
4, 122740, Note_on_c, 2, 76, 0
4, 122760, Note_on_c, 2, 74, 108
4, 122760, Note_on_c, 2, 77, 108
4, 122860, Note_on_c, 2, 77, 0
4, 122860, Note_on_c, 2, 74, 0
4, 122880, Note_on_c, 2, 72, 108
4, 122880, Note_on_c, 2, 76, 108
4, 122980, Note_on_c, 2, 76, 0
4, 122980, Note_on_c, 2, 72, 0
4, 123000, Note_on_c, 2, 67, 108
4, 123100, Note_on_c, 2, 67, 0
4, 123120, Note_on_c, 2, 72, 108
4, 123220, Note_on_c, 2, 72, 0
4, 123240, Note_on_c, 2, 67, 108
4, 123340, Note_on_c, 2, 67, 0
4, 123360, Note_on_c, 2, 72, 108
4, 123460, Note_on_c, 2, 72, 0
4, 123480, Note_on_c, 2, 67, 108
4, 123580, Note_on_c, 2, 67, 0
4, 123600, Note_on_c, 2, 72, 108
4, 123700, Note_on_c, 2, 72, 0
4, 123720, Note_on_c, 2, 67, 108
4, 123820, Note_on_c, 2, 67, 0
4, 123840, Note_on_c, 2, 72, 108
4, 123940, Note_on_c, 2, 72, 0
4, 124320, Note_on_c, 2, 64, 108
4, 124320, Note_on_c, 2, 72, 108
4, 124420, Note_on_c, 2, 72, 0
4, 124420, Note_on_c, 2, 64, 0
4, 124560, Note_on_c, 2, 64, 108
4, 124560, Note_on_c, 2, 72, 108
4, 124660, Note_on_c, 2, 72, 0
4, 124660, Note_on_c, 2, 64, 0
4, 124800, Note_on_c, 2, 64, 108
4, 124800, Note_on_c, 2, 72, 108
4, 125010, Note_on_c, 2, 72, 0
4, 125010, Note_on_c, 2, 64, 0
4, 125010, End_track
5, 0, Start_track
5, 0, MIDI_port, 0
5, 0, Title_t, "Bassoons"
5, 0, Program_c, 3, 70
5, 0, Control_c, 3, 7, 127
5, 0, Control_c, 3, 10, 96
5, 0, Note_on_c, 3, 60, 92
5, 100, Note_on_c, 3, 60, 0
5, 210, Note_on_c, 3, 48, 92
5, 238, Note_on_c, 3, 48, 0
5, 240, Note_on_c, 3, 48, 92
5, 340, Note_on_c, 3, 48, 0
5, 1080, Note_on_c, 3, 60, 60
5, 1080, Note_on_c, 3, 64, 60
5, 1180, Note_on_c, 3, 64, 0
5, 1180, Note_on_c, 3, 60, 0
5, 1200, Note_on_c, 3, 60, 60
5, 1200, Note_on_c, 3, 64, 60
5, 1300, Note_on_c, 3, 64, 0
5, 1300, Note_on_c, 3, 60, 0
5, 1320, Note_on_c, 3, 60, 60
5, 1320, Note_on_c, 3, 64, 60
5, 1420, Note_on_c, 3, 64, 0
5, 1420, Note_on_c, 3, 60, 0
5, 1440, Note_on_c, 3, 55, 60
5, 1440, Note_on_c, 3, 64, 60
5, 1560, Note_on_c, 3, 64, 0
5, 1560, Note_on_c, 3, 60, 60
5, 1650, Note_on_c, 3, 55, 0
5, 1660, Note_on_c, 3, 60, 0
5, 1680, Note_on_c, 3, 55, 60
5, 1680, Note_on_c, 3, 67, 60
5, 1780, Note_on_c, 3, 67, 0
5, 1780, Note_on_c, 3, 55, 0
5, 1890, Note_on_c, 3, 55, 92
5, 1918, Note_on_c, 3, 55, 0
5, 1920, Note_on_c, 3, 55, 92
5, 2020, Note_on_c, 3, 55, 0
5, 2130, Note_on_c, 3, 43, 92
5, 2158, Note_on_c, 3, 43, 0
5, 2160, Note_on_c, 3, 43, 92
5, 2260, Note_on_c, 3, 43, 0
5, 3000, Note_on_c, 3, 55, 60
5, 3000, Note_on_c, 3, 62, 60
5, 3100, Note_on_c, 3, 62, 0
5, 3100, Note_on_c, 3, 55, 0
5, 3120, Note_on_c, 3, 55, 60
5, 3120, Note_on_c, 3, 62, 60
5, 3220, Note_on_c, 3, 62, 0
5, 3220, Note_on_c, 3, 55, 0
5, 3240, Note_on_c, 3, 55, 60
5, 3240, Note_on_c, 3, 62, 60
5, 3340, Note_on_c, 3, 62, 0
5, 3340, Note_on_c, 3, 55, 0
5, 3360, Note_on_c, 3, 55, 60
5, 3360, Note_on_c, 3, 65, 60
5, 3480, Note_on_c, 3, 65, 0
5, 3480, Note_on_c, 3, 62, 60
5, 3550, Note_on_c, 3, 55, 0
5, 3570, Note_on_c, 3, 62, 0
5, 3570, Note_on_c, 3, 48, 60
5, 3570, Note_on_c, 3, 60, 60
5, 3598, Note_on_c, 3, 60, 0
5, 3598, Note_on_c, 3, 48, 0
5, 3600, Note_on_c, 3, 48, 60
5, 3600, Note_on_c, 3, 60, 60
5, 3700, Note_on_c, 3, 60, 0
5, 3700, Note_on_c, 3, 48, 0
5, 4320, Note_on_c, 3, 60, 60
5, 4320, Note_on_c, 3, 62, 60
5, 4560, Note_on_c, 3, 60, 0
5, 4560, Note_on_c, 3, 59, 60
5, 4680, Note_on_c, 3, 62, 0
5, 4680, Note_on_c, 3, 64, 60
5, 4770, Note_on_c, 3, 64, 0
5, 4770, Note_on_c, 3, 59, 0
5, 4770, Note_on_c, 3, 65, 60
5, 4798, Note_on_c, 3, 65, 0
5, 4800, Note_on_c, 3, 60, 60
5, 4800, Note_on_c, 3, 65, 60
5, 5040, Note_on_c, 3, 65, 0
5, 5040, Note_on_c, 3, 60, 0
5, 5040, Note_on_c, 3, 60, 60
5, 5040, Note_on_c, 3, 64, 60
5, 5140, Note_on_c, 3, 64, 0
5, 5140, Note_on_c, 3, 60, 0
5, 5520, Note_on_c, 3, 60, 92
5, 5520, Note_on_c, 3, 64, 92
5, 5760, Note_on_c, 3, 64, 0
5, 5760, Note_on_c, 3, 65, 92
5, 6000, Note_on_c, 3, 65, 0
5, 6000, Note_on_c, 3, 69, 92
5, 6240, Note_on_c, 3, 69, 0
5, 6240, Note_on_c, 3, 62, 92
5, 6480, Note_on_c, 3, 62, 0
5, 6480, Note_on_c, 3, 60, 0
5, 6480, Note_on_c, 3, 59, 92
5, 6480, Note_on_c, 3, 67, 92
5, 6690, Note_on_c, 3, 67, 0
5, 6690, Note_on_c, 3, 59, 0
5, 6720, Note_on_c, 3, 60, 92
5, 6720, Note_on_c, 3, 64, 92
5, 6820, Note_on_c, 3, 64, 0
5, 6820, Note_on_c, 3, 60, 0
5, 11520, Note_on_c, 3, 64, 92
5, 11620, Note_on_c, 3, 64, 0
5, 11640, Note_on_c, 3, 64, 92
5, 11850, Note_on_c, 3, 64, 0
5, 11880, Note_on_c, 3, 65, 92
5, 11980, Note_on_c, 3, 65, 0
5, 12000, Note_on_c, 3, 64, 92
5, 12100, Note_on_c, 3, 64, 0
5, 12120, Note_on_c, 3, 65, 92
5, 12220, Note_on_c, 3, 65, 0
5, 12240, Note_on_c, 3, 64, 92
5, 12340, Note_on_c, 3, 64, 0
5, 12360, Note_on_c, 3, 65, 92
5, 12460, Note_on_c, 3, 65, 0
5, 12480, Note_on_c, 3, 64, 92
5, 12580, Note_on_c, 3, 64, 0
5, 12600, Note_on_c, 3, 64, 92
5, 12810, Note_on_c, 3, 64, 0
5, 12840, Note_on_c, 3, 65, 92
5, 12940, Note_on_c, 3, 65, 0
5, 12960, Note_on_c, 3, 64, 92
5, 13060, Note_on_c, 3, 64, 0
5, 13080, Note_on_c, 3, 65, 92
5, 13180, Note_on_c, 3, 65, 0
5, 13200, Note_on_c, 3, 64, 92
5, 13300, Note_on_c, 3, 64, 0
5, 13320, Note_on_c, 3, 65, 92
5, 13420, Note_on_c, 3, 65, 0
5, 13440, Note_on_c, 3, 64, 92
5, 13540, Note_on_c, 3, 64, 0
5, 15360, Note_on_c, 3, 64, 60
5, 15420, Note_on_c, 3, 64, 0
5, 15420, Note_on_c, 3, 67, 60
5, 15480, Note_on_c, 3, 67, 0
5, 15480, Note_on_c, 3, 65, 60
5, 15540, Note_on_c, 3, 65, 0
5, 15540, Note_on_c, 3, 64, 60
5, 15600, Note_on_c, 3, 64, 0
5, 15600, Note_on_c, 3, 62, 60
5, 15660, Note_on_c, 3, 62, 0
5, 15660, Note_on_c, 3, 60, 60
5, 15720, Note_on_c, 3, 60, 0
5, 15720, Note_on_c, 3, 59, 60
5, 15780, Note_on_c, 3, 59, 0
5, 15780, Note_on_c, 3, 60, 60
5, 15838, Note_on_c, 3, 60, 0
5, 15840, Note_on_c, 3, 64, 60
5, 15900, Note_on_c, 3, 64, 0
5, 15900, Note_on_c, 3, 67, 60
5, 15960, Note_on_c, 3, 67, 0
5, 15960, Note_on_c, 3, 65, 60
5, 16020, Note_on_c, 3, 65, 0
5, 16020, Note_on_c, 3, 64, 60
5, 16080, Note_on_c, 3, 64, 0
5, 16080, Note_on_c, 3, 62, 60
5, 16140, Note_on_c, 3, 62, 0
5, 16140, Note_on_c, 3, 60, 60
5, 16200, Note_on_c, 3, 60, 0
5, 16200, Note_on_c, 3, 59, 60
5, 16260, Note_on_c, 3, 59, 0
5, 16260, Note_on_c, 3, 60, 60
5, 16318, Note_on_c, 3, 60, 0
5, 16320, Note_on_c, 3, 59, 60
5, 16320, Note_on_c, 3, 62, 60
5, 16560, Note_on_c, 3, 62, 0
5, 16560, Note_on_c, 3, 59, 0
5, 16560, Note_on_c, 3, 60, 60
5, 16560, Note_on_c, 3, 64, 60
5, 16800, Note_on_c, 3, 64, 0
5, 16800, Note_on_c, 3, 60, 0
5, 16800, Note_on_c, 3, 62, 60
5, 16800, Note_on_c, 3, 65, 60
5, 17040, Note_on_c, 3, 65, 0
5, 17040, Note_on_c, 3, 62, 0
5, 17040, Note_on_c, 3, 59, 60
5, 17040, Note_on_c, 3, 62, 60
5, 17250, Note_on_c, 3, 62, 0
5, 17250, Note_on_c, 3, 59, 0
5, 17280, Note_on_c, 3, 60, 60
5, 17280, Note_on_c, 3, 64, 60
5, 17380, Note_on_c, 3, 64, 0
5, 17380, Note_on_c, 3, 60, 0
5, 19200, Note_on_c, 3, 64, 60
5, 19260, Note_on_c, 3, 64, 0
5, 19260, Note_on_c, 3, 67, 60
5, 19320, Note_on_c, 3, 67, 0
5, 19320, Note_on_c, 3, 65, 60
5, 19380, Note_on_c, 3, 65, 0
5, 19380, Note_on_c, 3, 64, 60
5, 19440, Note_on_c, 3, 64, 0
5, 19440, Note_on_c, 3, 62, 60
5, 19500, Note_on_c, 3, 62, 0
5, 19500, Note_on_c, 3, 60, 60
5, 19560, Note_on_c, 3, 60, 0
5, 19560, Note_on_c, 3, 59, 60
5, 19620, Note_on_c, 3, 59, 0
5, 19620, Note_on_c, 3, 60, 60
5, 19678, Note_on_c, 3, 60, 0
5, 19680, Note_on_c, 3, 64, 60
5, 19740, Note_on_c, 3, 64, 0
5, 19740, Note_on_c, 3, 67, 60
5, 19800, Note_on_c, 3, 67, 0
5, 19800, Note_on_c, 3, 65, 60
5, 19860, Note_on_c, 3, 65, 0
5, 19860, Note_on_c, 3, 64, 60
5, 19920, Note_on_c, 3, 64, 0
5, 19920, Note_on_c, 3, 62, 60
5, 19980, Note_on_c, 3, 62, 0
5, 19980, Note_on_c, 3, 60, 60
5, 20040, Note_on_c, 3, 60, 0
5, 20040, Note_on_c, 3, 59, 60
5, 20100, Note_on_c, 3, 59, 0
5, 20100, Note_on_c, 3, 60, 60
5, 20158, Note_on_c, 3, 60, 0
5, 20160, Note_on_c, 3, 59, 60
5, 20160, Note_on_c, 3, 62, 60
5, 20400, Note_on_c, 3, 62, 0
5, 20400, Note_on_c, 3, 59, 0
5, 20400, Note_on_c, 3, 60, 60
5, 20400, Note_on_c, 3, 64, 60
5, 20640, Note_on_c, 3, 64, 0
5, 20640, Note_on_c, 3, 60, 0
5, 20640, Note_on_c, 3, 62, 60
5, 20640, Note_on_c, 3, 65, 60
5, 20880, Note_on_c, 3, 65, 0
5, 20880, Note_on_c, 3, 62, 0
5, 20880, Note_on_c, 3, 59, 60
5, 20880, Note_on_c, 3, 62, 60
5, 21090, Note_on_c, 3, 62, 0
5, 21090, Note_on_c, 3, 59, 0
5, 21120, Note_on_c, 3, 60, 60
5, 21220, Note_on_c, 3, 60, 0
5, 23040, Note_on_c, 3, 55, 60
5, 23040, Note_on_c, 3, 59, 60
5, 23970, Note_on_c, 3, 59, 0
5, 23970, Note_on_c, 3, 55, 0
5, 24000, Note_on_c, 3, 55, 60
5, 24000, Note_on_c, 3, 61, 60
5, 24930, Note_on_c, 3, 61, 0
5, 24930, Note_on_c, 3, 55, 0
5, 24960, Note_on_c, 3, 54, 92
5, 24960, Note_on_c, 3, 62, 92
5, 25060, Note_on_c, 3, 62, 0
5, 25060, Note_on_c, 3, 54, 0
5, 25080, Note_on_c, 3, 54, 92
5, 25080, Note_on_c, 3, 57, 92
5, 25290, Note_on_c, 3, 57, 0
5, 25290, Note_on_c, 3, 54, 0
5, 25320, Note_on_c, 3, 55, 92
5, 25320, Note_on_c, 3, 59, 92
5, 25420, Note_on_c, 3, 59, 0
5, 25420, Note_on_c, 3, 55, 0
5, 25440, Note_on_c, 3, 54, 92
5, 25440, Note_on_c, 3, 57, 92
5, 25540, Note_on_c, 3, 57, 0
5, 25540, Note_on_c, 3, 54, 0
5, 25560, Note_on_c, 3, 55, 92
5, 25560, Note_on_c, 3, 59, 92
5, 25660, Note_on_c, 3, 59, 0
5, 25660, Note_on_c, 3, 55, 0
5, 25680, Note_on_c, 3, 57, 92
5, 25680, Note_on_c, 3, 60, 92
5, 25780, Note_on_c, 3, 60, 0
5, 25780, Note_on_c, 3, 57, 0
5, 25800, Note_on_c, 3, 55, 92
5, 25800, Note_on_c, 3, 59, 92
5, 25900, Note_on_c, 3, 59, 0
5, 25900, Note_on_c, 3, 55, 0
5, 25920, Note_on_c, 3, 54, 92
5, 25920, Note_on_c, 3, 57, 92
5, 26020, Note_on_c, 3, 57, 0
5, 26020, Note_on_c, 3, 54, 0
5, 26040, Note_on_c, 3, 54, 92
5, 26040, Note_on_c, 3, 57, 92
5, 26250, Note_on_c, 3, 57, 0
5, 26250, Note_on_c, 3, 54, 0
5, 26280, Note_on_c, 3, 55, 92
5, 26280, Note_on_c, 3, 59, 92
5, 26380, Note_on_c, 3, 59, 0
5, 26380, Note_on_c, 3, 55, 0
5, 26400, Note_on_c, 3, 54, 92
5, 26400, Note_on_c, 3, 57, 92
5, 26500, Note_on_c, 3, 57, 0
5, 26500, Note_on_c, 3, 54, 0
5, 26520, Note_on_c, 3, 55, 92
5, 26520, Note_on_c, 3, 59, 92
5, 26620, Note_on_c, 3, 59, 0
5, 26620, Note_on_c, 3, 55, 0
5, 26640, Note_on_c, 3, 57, 92
5, 26640, Note_on_c, 3, 60, 92
5, 26740, Note_on_c, 3, 60, 0
5, 26740, Note_on_c, 3, 57, 0
5, 26760, Note_on_c, 3, 55, 92
5, 26760, Note_on_c, 3, 59, 92
5, 26860, Note_on_c, 3, 59, 0
5, 26860, Note_on_c, 3, 55, 0
5, 26880, Note_on_c, 3, 54, 92
5, 26880, Note_on_c, 3, 57, 92
5, 26980, Note_on_c, 3, 57, 0
5, 26980, Note_on_c, 3, 54, 0
5, 30840, Note_on_c, 3, 67, 92
5, 31050, Note_on_c, 3, 67, 0
5, 31080, Note_on_c, 3, 66, 92
5, 31180, Note_on_c, 3, 66, 0
5, 31200, Note_on_c, 3, 67, 92
5, 31300, Note_on_c, 3, 67, 0
5, 31320, Note_on_c, 3, 66, 92
5, 31420, Note_on_c, 3, 66, 0
5, 31440, Note_on_c, 3, 67, 92
5, 31540, Note_on_c, 3, 67, 0
5, 31560, Note_on_c, 3, 63, 92
5, 31660, Note_on_c, 3, 63, 0
5, 31680, Note_on_c, 3, 64, 92
5, 31780, Note_on_c, 3, 64, 0
5, 31800, Note_on_c, 3, 64, 92
5, 32010, Note_on_c, 3, 64, 0
5, 32040, Note_on_c, 3, 63, 92
5, 32140, Note_on_c, 3, 63, 0
5, 32160, Note_on_c, 3, 64, 92
5, 32260, Note_on_c, 3, 64, 0
5, 32280, Note_on_c, 3, 63, 92
5, 32380, Note_on_c, 3, 63, 0
5, 32400, Note_on_c, 3, 64, 92
5, 32500, Note_on_c, 3, 64, 0
5, 32520, Note_on_c, 3, 59, 92
5, 32620, Note_on_c, 3, 59, 0
5, 32640, Note_on_c, 3, 60, 92
5, 32740, Note_on_c, 3, 60, 0
5, 32760, Note_on_c, 3, 60, 92
5, 32970, Note_on_c, 3, 60, 0
5, 33000, Note_on_c, 3, 59, 92
5, 33100, Note_on_c, 3, 59, 0
5, 33120, Note_on_c, 3, 60, 92
5, 33220, Note_on_c, 3, 60, 0
5, 33240, Note_on_c, 3, 59, 92
5, 33340, Note_on_c, 3, 59, 0
5, 33360, Note_on_c, 3, 60, 92
5, 33460, Note_on_c, 3, 60, 0
5, 33480, Note_on_c, 3, 62, 92
5, 33580, Note_on_c, 3, 62, 0
5, 33600, Note_on_c, 3, 60, 92
5, 33700, Note_on_c, 3, 60, 0
5, 33720, Note_on_c, 3, 56, 92
5, 33820, Note_on_c, 3, 56, 0
5, 33840, Note_on_c, 3, 57, 92
5, 33940, Note_on_c, 3, 57, 0
5, 33960, Note_on_c, 3, 55, 92
5, 34060, Note_on_c, 3, 55, 0
5, 34080, Note_on_c, 3, 54, 92
5, 34180, Note_on_c, 3, 54, 0
5, 34200, Note_on_c, 3, 50, 92
5, 34300, Note_on_c, 3, 50, 0
5, 34320, Note_on_c, 3, 52, 92
5, 34420, Note_on_c, 3, 52, 0
5, 34440, Note_on_c, 3, 54, 92
5, 34540, Note_on_c, 3, 54, 0
5, 34560, Note_on_c, 3, 55, 92
5, 34590, Note_on_c, 3, 55, 0
5, 34680, Note_on_c, 3, 59, 92
5, 34710, Note_on_c, 3, 59, 0
5, 34800, Note_on_c, 3, 62, 92
5, 35010, Note_on_c, 3, 62, 0
5, 35040, Note_on_c, 3, 52, 92
5, 35070, Note_on_c, 3, 52, 0
5, 35160, Note_on_c, 3, 55, 92
5, 35190, Note_on_c, 3, 55, 0
5, 35280, Note_on_c, 3, 59, 92
5, 35490, Note_on_c, 3, 59, 0
5, 35520, Note_on_c, 3, 48, 92
5, 35550, Note_on_c, 3, 48, 0
5, 35640, Note_on_c, 3, 52, 92
5, 35670, Note_on_c, 3, 52, 0
5, 35760, Note_on_c, 3, 50, 92
5, 35790, Note_on_c, 3, 50, 0
5, 35880, Note_on_c, 3, 54, 92
5, 35910, Note_on_c, 3, 54, 0
5, 36000, Note_on_c, 3, 55, 92
5, 36030, Note_on_c, 3, 55, 0
5, 36120, Note_on_c, 3, 59, 92
5, 36150, Note_on_c, 3, 59, 0
5, 36240, Note_on_c, 3, 62, 92
5, 36450, Note_on_c, 3, 62, 0
5, 36480, Note_on_c, 3, 52, 92
5, 36510, Note_on_c, 3, 52, 0
5, 36600, Note_on_c, 3, 55, 92
5, 36630, Note_on_c, 3, 55, 0
5, 36720, Note_on_c, 3, 59, 92
5, 36930, Note_on_c, 3, 59, 0
5, 36960, Note_on_c, 3, 48, 92
5, 36990, Note_on_c, 3, 48, 0
5, 37080, Note_on_c, 3, 52, 92
5, 37110, Note_on_c, 3, 52, 0
5, 37200, Note_on_c, 3, 50, 92
5, 37230, Note_on_c, 3, 50, 0
5, 37320, Note_on_c, 3, 50, 92
5, 37350, Note_on_c, 3, 50, 0
5, 37440, Note_on_c, 3, 59, 60
5, 37500, Note_on_c, 3, 59, 0
5, 37500, Note_on_c, 3, 62, 60
5, 37560, Note_on_c, 3, 62, 0
5, 37560, Note_on_c, 3, 60, 60
5, 37620, Note_on_c, 3, 60, 0
5, 37620, Note_on_c, 3, 59, 60
5, 37680, Note_on_c, 3, 59, 0
5, 37680, Note_on_c, 3, 57, 60
5, 37740, Note_on_c, 3, 57, 0
5, 37740, Note_on_c, 3, 55, 60
5, 37800, Note_on_c, 3, 55, 0
5, 37800, Note_on_c, 3, 54, 60
5, 37860, Note_on_c, 3, 54, 0
5, 37860, Note_on_c, 3, 55, 60
5, 37918, Note_on_c, 3, 55, 0
5, 37920, Note_on_c, 3, 59, 60
5, 37980, Note_on_c, 3, 59, 0
5, 37980, Note_on_c, 3, 62, 60
5, 38040, Note_on_c, 3, 62, 0
5, 38040, Note_on_c, 3, 60, 60
5, 38100, Note_on_c, 3, 60, 0
5, 38100, Note_on_c, 3, 59, 60
5, 38160, Note_on_c, 3, 59, 0
5, 38160, Note_on_c, 3, 57, 60
5, 38220, Note_on_c, 3, 57, 0
5, 38220, Note_on_c, 3, 55, 60
5, 38280, Note_on_c, 3, 55, 0
5, 38280, Note_on_c, 3, 54, 60
5, 38340, Note_on_c, 3, 54, 0
5, 38340, Note_on_c, 3, 55, 60
5, 38398, Note_on_c, 3, 55, 0
5, 40320, Note_on_c, 3, 54, 60
5, 40320, Note_on_c, 3, 57, 60
5, 40560, Note_on_c, 3, 57, 0
5, 40560, Note_on_c, 3, 54, 0
5, 40560, Note_on_c, 3, 55, 60
5, 40560, Note_on_c, 3, 59, 60
5, 40800, Note_on_c, 3, 59, 0
5, 40800, Note_on_c, 3, 55, 0
5, 40800, Note_on_c, 3, 57, 60
5, 40800, Note_on_c, 3, 60, 60
5, 41040, Note_on_c, 3, 60, 0
5, 41040, Note_on_c, 3, 57, 0
5, 41040, Note_on_c, 3, 54, 60
5, 41040, Note_on_c, 3, 57, 60
5, 41250, Note_on_c, 3, 57, 0
5, 41250, Note_on_c, 3, 54, 0
5, 41280, Note_on_c, 3, 55, 60
5, 41280, Note_on_c, 3, 59, 60
5, 41340, Note_on_c, 3, 59, 0
5, 41340, Note_on_c, 3, 62, 60
5, 41380, Note_on_c, 3, 55, 0
5, 41400, Note_on_c, 3, 62, 0
5, 41400, Note_on_c, 3, 60, 60
5, 41460, Note_on_c, 3, 60, 0
5, 41460, Note_on_c, 3, 59, 60
5, 41520, Note_on_c, 3, 59, 0
5, 41520, Note_on_c, 3, 57, 60
5, 41580, Note_on_c, 3, 57, 0
5, 41580, Note_on_c, 3, 55, 60
5, 41640, Note_on_c, 3, 55, 0
5, 41640, Note_on_c, 3, 54, 60
5, 41700, Note_on_c, 3, 54, 0
5, 41700, Note_on_c, 3, 55, 60
5, 41758, Note_on_c, 3, 55, 0
5, 41760, Note_on_c, 3, 59, 60
5, 41820, Note_on_c, 3, 59, 0
5, 41820, Note_on_c, 3, 62, 60
5, 41880, Note_on_c, 3, 62, 0
5, 41880, Note_on_c, 3, 60, 60
5, 41940, Note_on_c, 3, 60, 0
5, 41940, Note_on_c, 3, 59, 60
5, 42000, Note_on_c, 3, 59, 0
5, 42000, Note_on_c, 3, 57, 60
5, 42060, Note_on_c, 3, 57, 0
5, 42060, Note_on_c, 3, 55, 60
5, 42120, Note_on_c, 3, 55, 0
5, 42120, Note_on_c, 3, 54, 60
5, 42180, Note_on_c, 3, 54, 0
5, 42180, Note_on_c, 3, 55, 60
5, 42238, Note_on_c, 3, 55, 0
5, 44160, Note_on_c, 3, 62, 60
5, 44220, Note_on_c, 3, 62, 0
5, 44220, Note_on_c, 3, 64, 60
5, 44280, Note_on_c, 3, 64, 0
5, 44280, Note_on_c, 3, 62, 60
5, 44340, Note_on_c, 3, 62, 0
5, 44340, Note_on_c, 3, 64, 60
5, 44400, Note_on_c, 3, 64, 0
5, 44400, Note_on_c, 3, 62, 60
5, 44460, Note_on_c, 3, 62, 0
5, 44460, Note_on_c, 3, 64, 60
5, 44520, Note_on_c, 3, 64, 0
5, 44520, Note_on_c, 3, 62, 60
5, 44580, Note_on_c, 3, 62, 0
5, 44580, Note_on_c, 3, 64, 60
5, 44640, Note_on_c, 3, 64, 0
5, 44640, Note_on_c, 3, 62, 60
5, 44700, Note_on_c, 3, 62, 0
5, 44700, Note_on_c, 3, 64, 60
5, 44760, Note_on_c, 3, 64, 0
5, 44760, Note_on_c, 3, 62, 60
5, 44820, Note_on_c, 3, 62, 0
5, 44820, Note_on_c, 3, 64, 60
5, 44880, Note_on_c, 3, 64, 0
5, 44880, Note_on_c, 3, 62, 60
5, 44940, Note_on_c, 3, 62, 0
5, 44940, Note_on_c, 3, 60, 60
5, 45000, Note_on_c, 3, 60, 0
5, 45000, Note_on_c, 3, 59, 60
5, 45060, Note_on_c, 3, 59, 0
5, 45060, Note_on_c, 3, 57, 60
5, 45118, Note_on_c, 3, 57, 0
5, 45120, Note_on_c, 3, 55, 60
5, 45220, Note_on_c, 3, 55, 0
5, 48000, Note_on_c, 3, 56, 92
5, 48000, Note_on_c, 3, 59, 92
5, 48100, Note_on_c, 3, 59, 0
5, 48100, Note_on_c, 3, 56, 0
5, 48120, Note_on_c, 3, 56, 92
5, 48120, Note_on_c, 3, 59, 92
5, 48330, Note_on_c, 3, 59, 0
5, 48330, Note_on_c, 3, 56, 0
5, 48360, Note_on_c, 3, 57, 92
5, 48360, Note_on_c, 3, 60, 92
5, 48460, Note_on_c, 3, 60, 0
5, 48460, Note_on_c, 3, 57, 0
5, 48480, Note_on_c, 3, 56, 92
5, 48480, Note_on_c, 3, 59, 92
5, 48580, Note_on_c, 3, 59, 0
5, 48580, Note_on_c, 3, 56, 0
5, 48600, Note_on_c, 3, 57, 92
5, 48600, Note_on_c, 3, 60, 92
5, 48700, Note_on_c, 3, 60, 0
5, 48700, Note_on_c, 3, 57, 0
5, 48720, Note_on_c, 3, 59, 92
5, 48720, Note_on_c, 3, 62, 92
5, 48820, Note_on_c, 3, 62, 0
5, 48820, Note_on_c, 3, 59, 0
5, 48840, Note_on_c, 3, 57, 92
5, 48840, Note_on_c, 3, 60, 92
5, 48940, Note_on_c, 3, 60, 0
5, 48940, Note_on_c, 3, 57, 0
5, 48960, Note_on_c, 3, 56, 92
5, 48960, Note_on_c, 3, 59, 92
5, 49060, Note_on_c, 3, 59, 0
5, 49060, Note_on_c, 3, 56, 0
5, 49080, Note_on_c, 3, 56, 92
5, 49080, Note_on_c, 3, 59, 92
5, 49290, Note_on_c, 3, 59, 0
5, 49290, Note_on_c, 3, 56, 0
5, 49320, Note_on_c, 3, 57, 92
5, 49320, Note_on_c, 3, 60, 92
5, 49420, Note_on_c, 3, 60, 0
5, 49420, Note_on_c, 3, 57, 0
5, 49440, Note_on_c, 3, 56, 92
5, 49440, Note_on_c, 3, 59, 92
5, 49540, Note_on_c, 3, 59, 0
5, 49540, Note_on_c, 3, 56, 0
5, 49560, Note_on_c, 3, 57, 92
5, 49560, Note_on_c, 3, 60, 92
5, 49660, Note_on_c, 3, 60, 0
5, 49660, Note_on_c, 3, 57, 0
5, 49680, Note_on_c, 3, 59, 92
5, 49680, Note_on_c, 3, 62, 92
5, 49780, Note_on_c, 3, 62, 0
5, 49780, Note_on_c, 3, 59, 0
5, 49800, Note_on_c, 3, 57, 92
5, 49800, Note_on_c, 3, 60, 92
5, 49900, Note_on_c, 3, 60, 0
5, 49900, Note_on_c, 3, 57, 0
5, 49920, Note_on_c, 3, 56, 92
5, 49920, Note_on_c, 3, 59, 92
5, 50020, Note_on_c, 3, 59, 0
5, 50020, Note_on_c, 3, 56, 0
5, 53760, Note_on_c, 3, 61, 92
5, 53760, Note_on_c, 3, 64, 92
5, 53860, Note_on_c, 3, 64, 0
5, 53860, Note_on_c, 3, 61, 0
5, 53880, Note_on_c, 3, 61, 92
5, 53880, Note_on_c, 3, 64, 92
5, 54090, Note_on_c, 3, 64, 0
5, 54090, Note_on_c, 3, 61, 0
5, 54120, Note_on_c, 3, 62, 92
5, 54120, Note_on_c, 3, 65, 92
5, 54220, Note_on_c, 3, 65, 0
5, 54220, Note_on_c, 3, 62, 0
5, 54240, Note_on_c, 3, 61, 92
5, 54240, Note_on_c, 3, 64, 92
5, 54340, Note_on_c, 3, 64, 0
5, 54340, Note_on_c, 3, 61, 0
5, 54360, Note_on_c, 3, 62, 92
5, 54360, Note_on_c, 3, 65, 92
5, 54460, Note_on_c, 3, 65, 0
5, 54460, Note_on_c, 3, 62, 0
5, 54480, Note_on_c, 3, 61, 92
5, 54480, Note_on_c, 3, 64, 92
5, 54580, Note_on_c, 3, 64, 0
5, 54580, Note_on_c, 3, 61, 0
5, 54600, Note_on_c, 3, 62, 92
5, 54600, Note_on_c, 3, 65, 92
5, 54700, Note_on_c, 3, 65, 0
5, 54700, Note_on_c, 3, 62, 0
5, 54720, Note_on_c, 3, 61, 92
5, 54720, Note_on_c, 3, 64, 92
5, 54820, Note_on_c, 3, 64, 0
5, 54820, Note_on_c, 3, 61, 0
5, 57600, Note_on_c, 3, 54, 92
5, 57600, Note_on_c, 3, 57, 92
5, 57700, Note_on_c, 3, 57, 0
5, 57700, Note_on_c, 3, 54, 0
5, 57720, Note_on_c, 3, 54, 92
5, 57720, Note_on_c, 3, 57, 92
5, 57930, Note_on_c, 3, 57, 0
5, 57930, Note_on_c, 3, 54, 0
5, 57960, Note_on_c, 3, 55, 92
5, 57960, Note_on_c, 3, 58, 92
5, 58060, Note_on_c, 3, 58, 0
5, 58060, Note_on_c, 3, 55, 0
5, 58080, Note_on_c, 3, 54, 92
5, 58080, Note_on_c, 3, 57, 92
5, 58180, Note_on_c, 3, 57, 0
5, 58180, Note_on_c, 3, 54, 0
5, 58200, Note_on_c, 3, 55, 92
5, 58200, Note_on_c, 3, 58, 92
5, 58300, Note_on_c, 3, 58, 0
5, 58300, Note_on_c, 3, 55, 0
5, 58320, Note_on_c, 3, 54, 92
5, 58320, Note_on_c, 3, 57, 92
5, 58420, Note_on_c, 3, 57, 0
5, 58420, Note_on_c, 3, 54, 0
5, 58440, Note_on_c, 3, 55, 92
5, 58440, Note_on_c, 3, 58, 92
5, 58540, Note_on_c, 3, 58, 0
5, 58540, Note_on_c, 3, 55, 0
5, 58560, Note_on_c, 3, 54, 92
5, 58560, Note_on_c, 3, 57, 92
5, 58660, Note_on_c, 3, 57, 0
5, 58660, Note_on_c, 3, 54, 0
5, 62400, Note_on_c, 3, 59, 92
5, 62400, Note_on_c, 3, 62, 92
5, 62500, Note_on_c, 3, 62, 0
5, 62500, Note_on_c, 3, 59, 0
5, 62520, Note_on_c, 3, 59, 92
5, 62520, Note_on_c, 3, 62, 92
5, 62730, Note_on_c, 3, 62, 0
5, 62730, Note_on_c, 3, 59, 0
5, 62760, Note_on_c, 3, 60, 92
5, 62760, Note_on_c, 3, 63, 92
5, 62860, Note_on_c, 3, 63, 0
5, 62860, Note_on_c, 3, 60, 0
5, 62880, Note_on_c, 3, 59, 92
5, 62880, Note_on_c, 3, 62, 92
5, 62980, Note_on_c, 3, 62, 0
5, 62980, Note_on_c, 3, 59, 0
5, 63000, Note_on_c, 3, 60, 92
5, 63000, Note_on_c, 3, 63, 92
5, 63100, Note_on_c, 3, 63, 0
5, 63100, Note_on_c, 3, 60, 0
5, 63120, Note_on_c, 3, 59, 92
5, 63120, Note_on_c, 3, 62, 92
5, 63220, Note_on_c, 3, 62, 0
5, 63220, Note_on_c, 3, 59, 0
5, 63240, Note_on_c, 3, 60, 92
5, 63240, Note_on_c, 3, 63, 92
5, 63340, Note_on_c, 3, 63, 0
5, 63340, Note_on_c, 3, 60, 0
5, 63360, Note_on_c, 3, 59, 92
5, 63360, Note_on_c, 3, 62, 92
5, 63460, Note_on_c, 3, 62, 0
5, 63460, Note_on_c, 3, 59, 0
5, 66240, Note_on_c, 3, 52, 92
5, 66240, Note_on_c, 3, 55, 92
5, 66340, Note_on_c, 3, 55, 0
5, 66340, Note_on_c, 3, 52, 0
5, 66360, Note_on_c, 3, 52, 92
5, 66360, Note_on_c, 3, 55, 92
5, 66570, Note_on_c, 3, 55, 0
5, 66570, Note_on_c, 3, 52, 0
5, 66600, Note_on_c, 3, 53, 92
5, 66600, Note_on_c, 3, 56, 92
5, 66700, Note_on_c, 3, 56, 0
5, 66700, Note_on_c, 3, 53, 0
5, 66720, Note_on_c, 3, 52, 92
5, 66720, Note_on_c, 3, 55, 92
5, 66820, Note_on_c, 3, 55, 0
5, 66820, Note_on_c, 3, 52, 0
5, 66840, Note_on_c, 3, 53, 92
5, 66840, Note_on_c, 3, 56, 92
5, 66940, Note_on_c, 3, 56, 0
5, 66940, Note_on_c, 3, 53, 0
5, 66960, Note_on_c, 3, 52, 92
5, 66960, Note_on_c, 3, 55, 92
5, 67060, Note_on_c, 3, 55, 0
5, 67060, Note_on_c, 3, 52, 0
5, 67080, Note_on_c, 3, 53, 92
5, 67080, Note_on_c, 3, 56, 92
5, 67180, Note_on_c, 3, 56, 0
5, 67180, Note_on_c, 3, 53, 0
5, 67200, Note_on_c, 3, 52, 92
5, 67200, Note_on_c, 3, 55, 92
5, 67300, Note_on_c, 3, 55, 0
5, 67300, Note_on_c, 3, 52, 0
5, 68160, Note_on_c, 3, 54, 60
5, 68220, Note_on_c, 3, 54, 0
5, 68220, Note_on_c, 3, 55, 60
5, 68280, Note_on_c, 3, 55, 0
5, 68280, Note_on_c, 3, 57, 60
5, 68340, Note_on_c, 3, 57, 0
5, 68340, Note_on_c, 3, 55, 60
5, 68400, Note_on_c, 3, 55, 0
5, 68400, Note_on_c, 3, 54, 60
5, 68500, Note_on_c, 3, 54, 0
5, 68640, Note_on_c, 3, 55, 60
5, 68700, Note_on_c, 3, 55, 0
5, 68700, Note_on_c, 3, 57, 60
5, 68760, Note_on_c, 3, 57, 0
5, 68760, Note_on_c, 3, 58, 60
5, 68820, Note_on_c, 3, 58, 0
5, 68820, Note_on_c, 3, 57, 60
5, 68880, Note_on_c, 3, 57, 0
5, 68880, Note_on_c, 3, 55, 60
5, 68940, Note_on_c, 3, 55, 0
5, 68940, Note_on_c, 3, 57, 60
5, 69000, Note_on_c, 3, 57, 0
5, 69000, Note_on_c, 3, 55, 60
5, 69060, Note_on_c, 3, 55, 0
5, 69060, Note_on_c, 3, 53, 60
5, 69118, Note_on_c, 3, 53, 0
5, 69120, Note_on_c, 3, 52, 60
5, 69180, Note_on_c, 3, 52, 0
5, 69180, Note_on_c, 3, 53, 60
5, 69240, Note_on_c, 3, 53, 0
5, 69240, Note_on_c, 3, 55, 60
5, 69300, Note_on_c, 3, 55, 0
5, 69300, Note_on_c, 3, 53, 60
5, 69360, Note_on_c, 3, 53, 0
5, 69360, Note_on_c, 3, 52, 60
5, 69460, Note_on_c, 3, 52, 0
5, 69600, Note_on_c, 3, 53, 60
5, 69660, Note_on_c, 3, 53, 0
5, 69660, Note_on_c, 3, 55, 60
5, 69720, Note_on_c, 3, 55, 0
5, 69720, Note_on_c, 3, 57, 60
5, 69780, Note_on_c, 3, 57, 0
5, 69780, Note_on_c, 3, 55, 60
5, 69840, Note_on_c, 3, 55, 0
5, 69840, Note_on_c, 3, 53, 60
5, 69900, Note_on_c, 3, 53, 0
5, 69900, Note_on_c, 3, 55, 60
5, 69960, Note_on_c, 3, 55, 0
5, 69960, Note_on_c, 3, 53, 60
5, 70020, Note_on_c, 3, 53, 0
5, 70020, Note_on_c, 3, 52, 60
5, 70078, Note_on_c, 3, 52, 0
5, 70080, Note_on_c, 3, 50, 60
5, 70140, Note_on_c, 3, 50, 0
5, 70140, Note_on_c, 3, 52, 60
5, 70200, Note_on_c, 3, 52, 0
5, 70200, Note_on_c, 3, 53, 60
5, 70260, Note_on_c, 3, 53, 0
5, 70260, Note_on_c, 3, 52, 60
5, 70320, Note_on_c, 3, 52, 0
5, 70320, Note_on_c, 3, 50, 60
5, 70420, Note_on_c, 3, 50, 0
5, 70560, Note_on_c, 3, 52, 60
5, 70620, Note_on_c, 3, 52, 0
5, 70620, Note_on_c, 3, 53, 60
5, 70680, Note_on_c, 3, 53, 0
5, 70680, Note_on_c, 3, 55, 60
5, 70740, Note_on_c, 3, 55, 0
5, 70740, Note_on_c, 3, 53, 60
5, 70800, Note_on_c, 3, 53, 0
5, 70800, Note_on_c, 3, 52, 60
5, 70860, Note_on_c, 3, 52, 0
5, 70860, Note_on_c, 3, 48, 60
5, 70920, Note_on_c, 3, 48, 0
5, 70920, Note_on_c, 3, 50, 60
5, 70980, Note_on_c, 3, 50, 0
5, 70980, Note_on_c, 3, 52, 60
5, 71038, Note_on_c, 3, 52, 0
5, 71040, Note_on_c, 3, 53, 60
5, 71140, Note_on_c, 3, 53, 0
5, 74880, Note_on_c, 3, 57, 60
5, 74940, Note_on_c, 3, 57, 0
5, 74940, Note_on_c, 3, 60, 60
5, 75000, Note_on_c, 3, 60, 0
5, 75000, Note_on_c, 3, 58, 60
5, 75060, Note_on_c, 3, 58, 0
5, 75060, Note_on_c, 3, 57, 60
5, 75120, Note_on_c, 3, 57, 0
5, 75120, Note_on_c, 3, 55, 60
5, 75180, Note_on_c, 3, 55, 0
5, 75180, Note_on_c, 3, 53, 60
5, 75240, Note_on_c, 3, 53, 0
5, 75240, Note_on_c, 3, 52, 60
5, 75300, Note_on_c, 3, 52, 0
5, 75300, Note_on_c, 3, 53, 60
5, 75358, Note_on_c, 3, 53, 0
5, 75360, Note_on_c, 3, 57, 60
5, 75420, Note_on_c, 3, 57, 0
5, 75420, Note_on_c, 3, 60, 60
5, 75480, Note_on_c, 3, 60, 0
5, 75480, Note_on_c, 3, 58, 60
5, 75540, Note_on_c, 3, 58, 0
5, 75540, Note_on_c, 3, 57, 60
5, 75600, Note_on_c, 3, 57, 0
5, 75600, Note_on_c, 3, 55, 60
5, 75660, Note_on_c, 3, 55, 0
5, 75660, Note_on_c, 3, 53, 60
5, 75720, Note_on_c, 3, 53, 0
5, 75720, Note_on_c, 3, 52, 60
5, 75780, Note_on_c, 3, 52, 0
5, 75780, Note_on_c, 3, 53, 60
5, 75838, Note_on_c, 3, 53, 0
5, 75840, Note_on_c, 3, 62, 60
5, 75900, Note_on_c, 3, 62, 0
5, 75900, Note_on_c, 3, 65, 60
5, 75960, Note_on_c, 3, 65, 0
5, 75960, Note_on_c, 3, 63, 60
5, 76020, Note_on_c, 3, 63, 0
5, 76020, Note_on_c, 3, 62, 60
5, 76080, Note_on_c, 3, 62, 0
5, 76080, Note_on_c, 3, 60, 60
5, 76140, Note_on_c, 3, 60, 0
5, 76140, Note_on_c, 3, 58, 60
5, 76200, Note_on_c, 3, 58, 0
5, 76200, Note_on_c, 3, 57, 60
5, 76260, Note_on_c, 3, 57, 0
5, 76260, Note_on_c, 3, 58, 60
5, 76318, Note_on_c, 3, 58, 0
5, 76320, Note_on_c, 3, 62, 60
5, 76380, Note_on_c, 3, 62, 0
5, 76380, Note_on_c, 3, 65, 60
5, 76440, Note_on_c, 3, 65, 0
5, 76440, Note_on_c, 3, 63, 60
5, 76500, Note_on_c, 3, 63, 0
5, 76500, Note_on_c, 3, 62, 60
5, 76560, Note_on_c, 3, 62, 0
5, 76560, Note_on_c, 3, 60, 60
5, 76620, Note_on_c, 3, 60, 0
5, 76620, Note_on_c, 3, 58, 60
5, 76680, Note_on_c, 3, 58, 0
5, 76680, Note_on_c, 3, 57, 60
5, 76740, Note_on_c, 3, 57, 0
5, 76740, Note_on_c, 3, 58, 60
5, 76798, Note_on_c, 3, 58, 0
5, 77760, Note_on_c, 3, 60, 60
5, 77820, Note_on_c, 3, 60, 0
5, 77820, Note_on_c, 3, 62, 60
5, 77880, Note_on_c, 3, 62, 0
5, 77880, Note_on_c, 3, 60, 60
5, 77940, Note_on_c, 3, 60, 0
5, 77940, Note_on_c, 3, 62, 60
5, 78000, Note_on_c, 3, 62, 0
5, 78000, Note_on_c, 3, 60, 60
5, 78060, Note_on_c, 3, 60, 0
5, 78060, Note_on_c, 3, 62, 60
5, 78120, Note_on_c, 3, 62, 0
5, 78120, Note_on_c, 3, 60, 60
5, 78180, Note_on_c, 3, 60, 0
5, 78180, Note_on_c, 3, 62, 60
5, 78240, Note_on_c, 3, 62, 0
5, 78240, Note_on_c, 3, 60, 60
5, 78300, Note_on_c, 3, 60, 0
5, 78300, Note_on_c, 3, 62, 60
5, 78360, Note_on_c, 3, 62, 0
5, 78360, Note_on_c, 3, 60, 60
5, 78420, Note_on_c, 3, 60, 0
5, 78420, Note_on_c, 3, 62, 60
5, 78480, Note_on_c, 3, 62, 0
5, 78480, Note_on_c, 3, 60, 60
5, 78540, Note_on_c, 3, 60, 0
5, 78540, Note_on_c, 3, 58, 60
5, 78600, Note_on_c, 3, 58, 0
5, 78600, Note_on_c, 3, 57, 60
5, 78660, Note_on_c, 3, 57, 0
5, 78660, Note_on_c, 3, 55, 60
5, 78718, Note_on_c, 3, 55, 0
5, 78720, Note_on_c, 3, 53, 60
5, 78820, Note_on_c, 3, 53, 0
5, 78840, Note_on_c, 3, 65, 92
5, 79050, Note_on_c, 3, 65, 0
5, 79080, Note_on_c, 3, 64, 92
5, 79180, Note_on_c, 3, 64, 0
5, 79200, Note_on_c, 3, 65, 92
5, 79300, Note_on_c, 3, 65, 0
5, 79320, Note_on_c, 3, 64, 92
5, 79420, Note_on_c, 3, 64, 0
5, 79440, Note_on_c, 3, 65, 92
5, 79540, Note_on_c, 3, 65, 0
5, 79560, Note_on_c, 3, 61, 92
5, 79660, Note_on_c, 3, 61, 0
5, 79680, Note_on_c, 3, 62, 92
5, 79780, Note_on_c, 3, 62, 0
5, 79800, Note_on_c, 3, 62, 92
5, 80010, Note_on_c, 3, 62, 0
5, 80040, Note_on_c, 3, 61, 92
5, 80140, Note_on_c, 3, 61, 0
5, 80160, Note_on_c, 3, 62, 92
5, 80260, Note_on_c, 3, 62, 0
5, 80280, Note_on_c, 3, 61, 92
5, 80380, Note_on_c, 3, 61, 0
5, 80400, Note_on_c, 3, 62, 92
5, 80500, Note_on_c, 3, 62, 0
5, 80520, Note_on_c, 3, 59, 92
5, 80620, Note_on_c, 3, 59, 0
5, 80640, Note_on_c, 3, 60, 92
5, 80740, Note_on_c, 3, 60, 0
5, 80760, Note_on_c, 3, 60, 92
5, 80970, Note_on_c, 3, 60, 0
5, 81000, Note_on_c, 3, 59, 92
5, 81100, Note_on_c, 3, 59, 0
5, 81120, Note_on_c, 3, 60, 92
5, 81220, Note_on_c, 3, 60, 0
5, 81240, Note_on_c, 3, 59, 92
5, 81340, Note_on_c, 3, 59, 0
5, 81360, Note_on_c, 3, 60, 92
5, 81460, Note_on_c, 3, 60, 0
5, 81480, Note_on_c, 3, 55, 92
5, 81580, Note_on_c, 3, 55, 0
5, 81600, Note_on_c, 3, 56, 92
5, 81700, Note_on_c, 3, 56, 0
5, 81720, Note_on_c, 3, 55, 92
5, 81820, Note_on_c, 3, 55, 0
5, 81840, Note_on_c, 3, 56, 92
5, 81940, Note_on_c, 3, 56, 0
5, 81960, Note_on_c, 3, 52, 92
5, 82060, Note_on_c, 3, 52, 0
5, 82080, Note_on_c, 3, 53, 92
5, 82180, Note_on_c, 3, 53, 0
5, 82200, Note_on_c, 3, 52, 92
5, 82300, Note_on_c, 3, 52, 0
5, 82320, Note_on_c, 3, 53, 92
5, 82420, Note_on_c, 3, 53, 0
5, 82440, Note_on_c, 3, 48, 92
5, 82540, Note_on_c, 3, 48, 0
5, 82560, Note_on_c, 3, 56, 92
5, 82660, Note_on_c, 3, 56, 0
5, 82680, Note_on_c, 3, 55, 92
5, 82780, Note_on_c, 3, 55, 0
5, 82800, Note_on_c, 3, 53, 92
5, 82900, Note_on_c, 3, 53, 0
5, 82920, Note_on_c, 3, 52, 92
5, 83020, Note_on_c, 3, 52, 0
5, 83040, Note_on_c, 3, 56, 92
5, 83140, Note_on_c, 3, 56, 0
5, 83160, Note_on_c, 3, 55, 92
5, 83260, Note_on_c, 3, 55, 0
5, 83280, Note_on_c, 3, 53, 92
5, 83380, Note_on_c, 3, 53, 0
5, 83400, Note_on_c, 3, 54, 92
5, 83500, Note_on_c, 3, 54, 0
5, 83520, Note_on_c, 3, 55, 60
5, 83520, Note_on_c, 3, 59, 60
5, 83580, Note_on_c, 3, 59, 0
5, 83580, Note_on_c, 3, 62, 60
5, 83620, Note_on_c, 3, 55, 0
5, 83640, Note_on_c, 3, 62, 0
5, 83640, Note_on_c, 3, 60, 60
5, 83700, Note_on_c, 3, 60, 0
5, 83700, Note_on_c, 3, 59, 60
5, 83760, Note_on_c, 3, 59, 0
5, 83760, Note_on_c, 3, 57, 60
5, 83820, Note_on_c, 3, 57, 0
5, 83820, Note_on_c, 3, 55, 60
5, 83880, Note_on_c, 3, 55, 0
5, 83880, Note_on_c, 3, 54, 60
5, 83940, Note_on_c, 3, 54, 0
5, 83940, Note_on_c, 3, 55, 60
5, 83998, Note_on_c, 3, 55, 0
5, 84000, Note_on_c, 3, 59, 60
5, 84060, Note_on_c, 3, 59, 0
5, 84060, Note_on_c, 3, 62, 60
5, 84120, Note_on_c, 3, 62, 0
5, 84120, Note_on_c, 3, 60, 60
5, 84180, Note_on_c, 3, 60, 0
5, 84180, Note_on_c, 3, 59, 60
5, 84240, Note_on_c, 3, 59, 0
5, 84240, Note_on_c, 3, 57, 60
5, 84300, Note_on_c, 3, 57, 0
5, 84300, Note_on_c, 3, 55, 60
5, 84360, Note_on_c, 3, 55, 0
5, 84360, Note_on_c, 3, 54, 60
5, 84420, Note_on_c, 3, 54, 0
5, 84420, Note_on_c, 3, 55, 60
5, 84478, Note_on_c, 3, 55, 0
5, 84480, Note_on_c, 3, 63, 60
5, 84540, Note_on_c, 3, 63, 0
5, 84540, Note_on_c, 3, 67, 60
5, 84600, Note_on_c, 3, 67, 0
5, 84600, Note_on_c, 3, 65, 60
5, 84660, Note_on_c, 3, 65, 0
5, 84660, Note_on_c, 3, 63, 60
5, 84720, Note_on_c, 3, 63, 0
5, 84720, Note_on_c, 3, 62, 60
5, 84780, Note_on_c, 3, 62, 0
5, 84780, Note_on_c, 3, 60, 60
5, 84840, Note_on_c, 3, 60, 0
5, 84840, Note_on_c, 3, 59, 60
5, 84900, Note_on_c, 3, 59, 0
5, 84900, Note_on_c, 3, 60, 60
5, 84958, Note_on_c, 3, 60, 0
5, 84960, Note_on_c, 3, 63, 60
5, 85020, Note_on_c, 3, 63, 0
5, 85020, Note_on_c, 3, 67, 60
5, 85080, Note_on_c, 3, 67, 0
5, 85080, Note_on_c, 3, 65, 60
5, 85140, Note_on_c, 3, 65, 0
5, 85140, Note_on_c, 3, 63, 60
5, 85200, Note_on_c, 3, 63, 0
5, 85200, Note_on_c, 3, 62, 60
5, 85260, Note_on_c, 3, 62, 0
5, 85260, Note_on_c, 3, 60, 60
5, 85320, Note_on_c, 3, 60, 0
5, 85320, Note_on_c, 3, 59, 60
5, 85380, Note_on_c, 3, 59, 0
5, 85380, Note_on_c, 3, 60, 60
5, 85438, Note_on_c, 3, 60, 0
5, 90240, Note_on_c, 3, 64, 92
5, 90340, Note_on_c, 3, 64, 0
5, 90360, Note_on_c, 3, 64, 92
5, 90570, Note_on_c, 3, 64, 0
5, 90600, Note_on_c, 3, 65, 92
5, 90700, Note_on_c, 3, 65, 0
5, 90720, Note_on_c, 3, 64, 92
5, 90820, Note_on_c, 3, 64, 0
5, 90840, Note_on_c, 3, 65, 92
5, 90940, Note_on_c, 3, 65, 0
5, 90960, Note_on_c, 3, 64, 92
5, 91060, Note_on_c, 3, 64, 0
5, 91080, Note_on_c, 3, 65, 92
5, 91180, Note_on_c, 3, 65, 0
5, 91200, Note_on_c, 3, 64, 92
5, 91300, Note_on_c, 3, 64, 0
5, 91320, Note_on_c, 3, 64, 92
5, 91530, Note_on_c, 3, 64, 0
5, 91560, Note_on_c, 3, 65, 92
5, 91660, Note_on_c, 3, 65, 0
5, 91680, Note_on_c, 3, 64, 92
5, 91780, Note_on_c, 3, 64, 0
5, 91800, Note_on_c, 3, 65, 92
5, 91900, Note_on_c, 3, 65, 0
5, 91920, Note_on_c, 3, 64, 92
5, 92020, Note_on_c, 3, 64, 0
5, 92040, Note_on_c, 3, 65, 92
5, 92140, Note_on_c, 3, 65, 0
5, 92160, Note_on_c, 3, 64, 92
5, 92260, Note_on_c, 3, 64, 0
5, 94080, Note_on_c, 3, 64, 75
5, 94140, Note_on_c, 3, 64, 0
5, 94140, Note_on_c, 3, 67, 75
5, 94200, Note_on_c, 3, 67, 0
5, 94200, Note_on_c, 3, 65, 75
5, 94260, Note_on_c, 3, 65, 0
5, 94260, Note_on_c, 3, 64, 75
5, 94320, Note_on_c, 3, 64, 0
5, 94320, Note_on_c, 3, 62, 75
5, 94380, Note_on_c, 3, 62, 0
5, 94380, Note_on_c, 3, 60, 75
5, 94440, Note_on_c, 3, 60, 0
5, 94440, Note_on_c, 3, 59, 75
5, 94500, Note_on_c, 3, 59, 0
5, 94500, Note_on_c, 3, 60, 75
5, 94558, Note_on_c, 3, 60, 0
5, 94560, Note_on_c, 3, 64, 75
5, 94620, Note_on_c, 3, 64, 0
5, 94620, Note_on_c, 3, 67, 75
5, 94680, Note_on_c, 3, 67, 0
5, 94680, Note_on_c, 3, 65, 75
5, 94740, Note_on_c, 3, 65, 0
5, 94740, Note_on_c, 3, 64, 75
5, 94800, Note_on_c, 3, 64, 0
5, 94800, Note_on_c, 3, 62, 75
5, 94860, Note_on_c, 3, 62, 0
5, 94860, Note_on_c, 3, 60, 75
5, 94920, Note_on_c, 3, 60, 0
5, 94920, Note_on_c, 3, 59, 75
5, 94980, Note_on_c, 3, 59, 0
5, 94980, Note_on_c, 3, 60, 75
5, 95038, Note_on_c, 3, 60, 0
5, 95040, Note_on_c, 3, 59, 60
5, 95040, Note_on_c, 3, 62, 60
5, 95280, Note_on_c, 3, 62, 0
5, 95280, Note_on_c, 3, 59, 0
5, 95280, Note_on_c, 3, 60, 60
5, 95280, Note_on_c, 3, 64, 60
5, 95520, Note_on_c, 3, 64, 0
5, 95520, Note_on_c, 3, 60, 0
5, 95520, Note_on_c, 3, 62, 60
5, 95520, Note_on_c, 3, 65, 60
5, 95760, Note_on_c, 3, 65, 0
5, 95760, Note_on_c, 3, 62, 0
5, 95760, Note_on_c, 3, 59, 60
5, 95760, Note_on_c, 3, 62, 60
5, 95970, Note_on_c, 3, 62, 0
5, 95970, Note_on_c, 3, 59, 0
5, 96000, Note_on_c, 3, 60, 60
5, 96100, Note_on_c, 3, 60, 0
5, 97920, Note_on_c, 3, 64, 60
5, 97980, Note_on_c, 3, 64, 0
5, 97980, Note_on_c, 3, 67, 60
5, 98040, Note_on_c, 3, 67, 0
5, 98040, Note_on_c, 3, 65, 60
5, 98100, Note_on_c, 3, 65, 0
5, 98100, Note_on_c, 3, 64, 60
5, 98160, Note_on_c, 3, 64, 0
5, 98160, Note_on_c, 3, 62, 60
5, 98220, Note_on_c, 3, 62, 0
5, 98220, Note_on_c, 3, 60, 60
5, 98280, Note_on_c, 3, 60, 0
5, 98280, Note_on_c, 3, 59, 60
5, 98340, Note_on_c, 3, 59, 0
5, 98340, Note_on_c, 3, 60, 60
5, 98398, Note_on_c, 3, 60, 0
5, 98400, Note_on_c, 3, 64, 60
5, 98460, Note_on_c, 3, 64, 0
5, 98460, Note_on_c, 3, 67, 60
5, 98520, Note_on_c, 3, 67, 0
5, 98520, Note_on_c, 3, 65, 60
5, 98580, Note_on_c, 3, 65, 0
5, 98580, Note_on_c, 3, 64, 60
5, 98640, Note_on_c, 3, 64, 0
5, 98640, Note_on_c, 3, 62, 60
5, 98700, Note_on_c, 3, 62, 0
5, 98700, Note_on_c, 3, 60, 60
5, 98760, Note_on_c, 3, 60, 0
5, 98760, Note_on_c, 3, 59, 60
5, 98820, Note_on_c, 3, 59, 0
5, 98820, Note_on_c, 3, 60, 60
5, 98878, Note_on_c, 3, 60, 0
5, 98880, Note_on_c, 3, 59, 60
5, 98880, Note_on_c, 3, 62, 60
5, 99120, Note_on_c, 3, 62, 0
5, 99120, Note_on_c, 3, 59, 0
5, 99120, Note_on_c, 3, 60, 60
5, 99120, Note_on_c, 3, 64, 60
5, 99360, Note_on_c, 3, 64, 0
5, 99360, Note_on_c, 3, 60, 0
5, 99360, Note_on_c, 3, 62, 60
5, 99360, Note_on_c, 3, 65, 60
5, 99600, Note_on_c, 3, 65, 0
5, 99600, Note_on_c, 3, 62, 0
5, 99600, Note_on_c, 3, 59, 60
5, 99600, Note_on_c, 3, 62, 60
5, 99810, Note_on_c, 3, 62, 0
5, 99810, Note_on_c, 3, 59, 0
5, 99840, Note_on_c, 3, 60, 60
5, 99840, Note_on_c, 3, 64, 60
5, 99940, Note_on_c, 3, 64, 0
5, 99940, Note_on_c, 3, 60, 0
5, 99960, Note_on_c, 3, 60, 92
5, 100170, Note_on_c, 3, 60, 0
5, 100200, Note_on_c, 3, 59, 92
5, 100300, Note_on_c, 3, 59, 0
5, 100320, Note_on_c, 3, 60, 92
5, 100420, Note_on_c, 3, 60, 0
5, 100440, Note_on_c, 3, 59, 92
5, 100540, Note_on_c, 3, 59, 0
5, 100560, Note_on_c, 3, 60, 92
5, 100660, Note_on_c, 3, 60, 0
5, 100680, Note_on_c, 3, 56, 92
5, 100780, Note_on_c, 3, 56, 0
5, 100800, Note_on_c, 3, 57, 92
5, 100900, Note_on_c, 3, 57, 0
5, 100920, Note_on_c, 3, 57, 92
5, 101130, Note_on_c, 3, 57, 0
5, 101160, Note_on_c, 3, 56, 92
5, 101260, Note_on_c, 3, 56, 0
5, 101280, Note_on_c, 3, 57, 92
5, 101380, Note_on_c, 3, 57, 0
5, 101400, Note_on_c, 3, 56, 92
5, 101500, Note_on_c, 3, 56, 0
5, 101520, Note_on_c, 3, 57, 92
5, 101620, Note_on_c, 3, 57, 0
5, 101640, Note_on_c, 3, 52, 92
5, 101740, Note_on_c, 3, 52, 0
5, 101760, Note_on_c, 3, 53, 92
5, 101860, Note_on_c, 3, 53, 0
5, 101880, Note_on_c, 3, 53, 92
5, 102090, Note_on_c, 3, 53, 0
5, 102120, Note_on_c, 3, 52, 92
5, 102220, Note_on_c, 3, 52, 0
5, 102240, Note_on_c, 3, 53, 92
5, 102340, Note_on_c, 3, 53, 0
5, 102360, Note_on_c, 3, 52, 92
5, 102460, Note_on_c, 3, 52, 0
5, 102480, Note_on_c, 3, 53, 92
5, 102580, Note_on_c, 3, 53, 0
5, 102600, Note_on_c, 3, 55, 92
5, 102700, Note_on_c, 3, 55, 0
5, 102720, Note_on_c, 3, 53, 92
5, 102820, Note_on_c, 3, 53, 0
5, 102840, Note_on_c, 3, 52, 92
5, 102940, Note_on_c, 3, 52, 0
5, 102960, Note_on_c, 3, 53, 92
5, 103060, Note_on_c, 3, 53, 0
5, 103080, Note_on_c, 3, 61, 92
5, 103180, Note_on_c, 3, 61, 0
5, 103200, Note_on_c, 3, 62, 92
5, 103300, Note_on_c, 3, 62, 0
5, 103320, Note_on_c, 3, 60, 92
5, 103420, Note_on_c, 3, 60, 0
5, 103440, Note_on_c, 3, 59, 92
5, 103540, Note_on_c, 3, 59, 0
5, 103560, Note_on_c, 3, 55, 92
5, 103660, Note_on_c, 3, 55, 0
5, 103680, Note_on_c, 3, 60, 92
5, 103780, Note_on_c, 3, 60, 0
5, 103800, Note_on_c, 3, 64, 92
5, 103900, Note_on_c, 3, 64, 0
5, 103920, Note_on_c, 3, 57, 92
5, 104020, Note_on_c, 3, 57, 0
5, 104040, Note_on_c, 3, 60, 92
5, 104140, Note_on_c, 3, 60, 0
5, 104160, Note_on_c, 3, 53, 92
5, 104260, Note_on_c, 3, 53, 0
5, 104280, Note_on_c, 3, 57, 92
5, 104380, Note_on_c, 3, 57, 0
5, 104400, Note_on_c, 3, 55, 92
5, 104500, Note_on_c, 3, 55, 0
5, 104520, Note_on_c, 3, 43, 92
5, 104620, Note_on_c, 3, 43, 0
5, 104640, Note_on_c, 3, 48, 92
5, 104740, Note_on_c, 3, 48, 0
5, 104760, Note_on_c, 3, 60, 92
5, 104970, Note_on_c, 3, 60, 0
5, 105000, Note_on_c, 3, 59, 92
5, 105100, Note_on_c, 3, 59, 0
5, 105120, Note_on_c, 3, 60, 92
5, 105220, Note_on_c, 3, 60, 0
5, 105240, Note_on_c, 3, 59, 92
5, 105340, Note_on_c, 3, 59, 0
5, 105360, Note_on_c, 3, 60, 92
5, 105460, Note_on_c, 3, 60, 0
5, 105480, Note_on_c, 3, 56, 92
5, 105580, Note_on_c, 3, 56, 0
5, 105600, Note_on_c, 3, 57, 92
5, 105700, Note_on_c, 3, 57, 0
5, 105720, Note_on_c, 3, 57, 92
5, 105930, Note_on_c, 3, 57, 0
5, 105960, Note_on_c, 3, 56, 92
5, 106060, Note_on_c, 3, 56, 0
5, 106080, Note_on_c, 3, 57, 92
5, 106180, Note_on_c, 3, 57, 0
5, 106200, Note_on_c, 3, 56, 92
5, 106300, Note_on_c, 3, 56, 0
5, 106320, Note_on_c, 3, 57, 92
5, 106420, Note_on_c, 3, 57, 0
5, 106440, Note_on_c, 3, 52, 92
5, 106540, Note_on_c, 3, 52, 0
5, 106560, Note_on_c, 3, 53, 92
5, 106660, Note_on_c, 3, 53, 0
5, 106680, Note_on_c, 3, 53, 92
5, 106890, Note_on_c, 3, 53, 0
5, 106920, Note_on_c, 3, 52, 92
5, 107020, Note_on_c, 3, 52, 0
5, 107040, Note_on_c, 3, 53, 92
5, 107140, Note_on_c, 3, 53, 0
5, 107160, Note_on_c, 3, 52, 92
5, 107260, Note_on_c, 3, 52, 0
5, 107280, Note_on_c, 3, 53, 92
5, 107380, Note_on_c, 3, 53, 0
5, 107400, Note_on_c, 3, 55, 92
5, 107500, Note_on_c, 3, 55, 0
5, 107520, Note_on_c, 3, 53, 92
5, 107620, Note_on_c, 3, 53, 0
5, 107640, Note_on_c, 3, 52, 92
5, 107740, Note_on_c, 3, 52, 0
5, 107760, Note_on_c, 3, 53, 92
5, 107860, Note_on_c, 3, 53, 0
5, 107880, Note_on_c, 3, 61, 92
5, 107980, Note_on_c, 3, 61, 0
5, 108000, Note_on_c, 3, 62, 92
5, 108100, Note_on_c, 3, 62, 0
5, 108120, Note_on_c, 3, 60, 92
5, 108220, Note_on_c, 3, 60, 0
5, 108240, Note_on_c, 3, 59, 92
5, 108340, Note_on_c, 3, 59, 0
5, 108360, Note_on_c, 3, 55, 92
5, 108460, Note_on_c, 3, 55, 0
5, 108480, Note_on_c, 3, 60, 92
5, 108580, Note_on_c, 3, 60, 0
5, 110400, Note_on_c, 3, 60, 60
5, 110400, Note_on_c, 3, 62, 60
5, 110850, Note_on_c, 3, 60, 0
5, 110880, Note_on_c, 3, 59, 60
5, 111120, Note_on_c, 3, 62, 0
5, 111120, Note_on_c, 3, 64, 60
5, 111300, Note_on_c, 3, 64, 0
5, 111300, Note_on_c, 3, 65, 60
5, 111330, Note_on_c, 3, 59, 0
5, 111358, Note_on_c, 3, 65, 0
5, 111360, Note_on_c, 3, 60, 60
5, 111360, Note_on_c, 3, 65, 60
5, 111840, Note_on_c, 3, 65, 0
5, 111840, Note_on_c, 3, 64, 60
5, 111940, Note_on_c, 3, 64, 0
5, 111940, Note_on_c, 3, 60, 0
5, 112800, Note_on_c, 3, 60, 92
5, 112800, Note_on_c, 3, 64, 92
5, 113250, Note_on_c, 3, 64, 0
5, 113280, Note_on_c, 3, 65, 92
5, 113730, Note_on_c, 3, 65, 0
5, 113760, Note_on_c, 3, 69, 92
5, 114210, Note_on_c, 3, 69, 0
5, 114240, Note_on_c, 3, 62, 92
5, 114690, Note_on_c, 3, 62, 0
5, 114690, Note_on_c, 3, 60, 0
5, 114720, Note_on_c, 3, 59, 92
5, 114720, Note_on_c, 3, 67, 92
5, 115170, Note_on_c, 3, 67, 0
5, 115170, Note_on_c, 3, 59, 0
5, 115200, Note_on_c, 3, 60, 92
5, 115300, Note_on_c, 3, 60, 0
5, 117120, Control_c, 3, 7, 32
5, 117120, Note_on_c, 3, 48, 60
5, 117120, Note_on_c, 3, 52, 60
5, 118560, Control_c, 3, 7, 48
5, 119040, Control_c, 3, 7, 64
5, 119520, Control_c, 3, 7, 80
5, 120000, Control_c, 3, 7, 96
5, 120930, Note_on_c, 3, 52, 0
5, 120930, Note_on_c, 3, 48, 0
5, 120960, Note_on_c, 3, 64, 108
5, 121060, Note_on_c, 3, 64, 0
5, 121080, Note_on_c, 3, 64, 108
5, 121290, Note_on_c, 3, 64, 0
5, 121320, Note_on_c, 3, 65, 108
5, 121420, Note_on_c, 3, 65, 0
5, 121440, Note_on_c, 3, 64, 108
5, 121540, Note_on_c, 3, 64, 0
5, 121560, Note_on_c, 3, 65, 108
5, 121660, Note_on_c, 3, 65, 0
5, 121680, Note_on_c, 3, 64, 108
5, 121780, Note_on_c, 3, 64, 0
5, 121800, Note_on_c, 3, 65, 108
5, 121900, Note_on_c, 3, 65, 0
5, 121920, Note_on_c, 3, 64, 108
5, 122020, Note_on_c, 3, 64, 0
5, 122040, Note_on_c, 3, 64, 108
5, 122250, Note_on_c, 3, 64, 0
5, 122280, Note_on_c, 3, 65, 108
5, 122380, Note_on_c, 3, 65, 0
5, 122400, Note_on_c, 3, 64, 108
5, 122500, Note_on_c, 3, 64, 0
5, 122520, Note_on_c, 3, 65, 108
5, 122620, Note_on_c, 3, 65, 0
5, 122640, Note_on_c, 3, 64, 108
5, 122740, Note_on_c, 3, 64, 0
5, 122760, Note_on_c, 3, 65, 108
5, 122860, Note_on_c, 3, 65, 0
5, 122880, Note_on_c, 3, 64, 108
5, 122980, Note_on_c, 3, 64, 0
5, 123000, Note_on_c, 3, 55, 108
5, 123100, Note_on_c, 3, 55, 0
5, 123120, Note_on_c, 3, 60, 108
5, 123220, Note_on_c, 3, 60, 0
5, 123240, Note_on_c, 3, 55, 108
5, 123340, Note_on_c, 3, 55, 0
5, 123360, Note_on_c, 3, 60, 108
5, 123460, Note_on_c, 3, 60, 0
5, 123480, Note_on_c, 3, 55, 108
5, 123580, Note_on_c, 3, 55, 0
5, 123600, Note_on_c, 3, 60, 108
5, 123700, Note_on_c, 3, 60, 0
5, 123720, Note_on_c, 3, 55, 108
5, 123820, Note_on_c, 3, 55, 0
5, 123840, Note_on_c, 3, 60, 108
5, 123940, Note_on_c, 3, 60, 0
5, 124320, Note_on_c, 3, 48, 108
5, 124420, Note_on_c, 3, 48, 0
5, 124560, Note_on_c, 3, 60, 108
5, 124660, Note_on_c, 3, 60, 0
5, 124800, Note_on_c, 3, 48, 108
5, 125010, Note_on_c, 3, 48, 0
5, 125010, End_track
6, 0, Start_track
6, 0, MIDI_port, 0
6, 0, Title_t, "Horns (G)"
6, 0, Program_c, 4, 60
6, 0, Control_c, 4, 7, 127
6, 0, Control_c, 4, 10, 40
6, 0, Note_on_c, 4, 55, 92
6, 0, Note_on_c, 4, 67, 92
6, 100, Note_on_c, 4, 67, 0
6, 100, Note_on_c, 4, 55, 0
6, 210, Note_on_c, 4, 55, 92
6, 210, Note_on_c, 4, 67, 92
6, 238, Note_on_c, 4, 67, 0
6, 238, Note_on_c, 4, 55, 0
6, 240, Note_on_c, 4, 55, 92
6, 240, Note_on_c, 4, 67, 92
6, 340, Note_on_c, 4, 67, 0
6, 340, Note_on_c, 4, 55, 0
6, 1890, Note_on_c, 4, 59, 92
6, 1890, Note_on_c, 4, 62, 92
6, 1918, Note_on_c, 4, 62, 0
6, 1918, Note_on_c, 4, 59, 0
6, 1920, Note_on_c, 4, 59, 92
6, 1920, Note_on_c, 4, 62, 92
6, 2020, Note_on_c, 4, 62, 0
6, 2020, Note_on_c, 4, 59, 0
6, 2130, Note_on_c, 4, 59, 92
6, 2130, Note_on_c, 4, 62, 92
6, 2158, Note_on_c, 4, 62, 0
6, 2158, Note_on_c, 4, 59, 0
6, 2160, Note_on_c, 4, 59, 92
6, 2160, Note_on_c, 4, 62, 92
6, 2260, Note_on_c, 4, 62, 0
6, 2260, Note_on_c, 4, 59, 0
6, 5520, Note_on_c, 4, 67, 92
6, 5620, Note_on_c, 4, 67, 0
6, 5760, Note_on_c, 4, 69, 92
6, 5860, Note_on_c, 4, 69, 0
6, 6000, Note_on_c, 4, 69, 92
6, 6100, Note_on_c, 4, 69, 0
6, 6240, Note_on_c, 4, 55, 92
6, 6240, Note_on_c, 4, 67, 92
6, 6340, Note_on_c, 4, 67, 0
6, 6340, Note_on_c, 4, 55, 0
6, 6480, Note_on_c, 4, 55, 92
6, 6480, Note_on_c, 4, 67, 92
6, 6580, Note_on_c, 4, 67, 0
6, 6580, Note_on_c, 4, 55, 0
6, 6720, Note_on_c, 4, 55, 92
6, 6720, Note_on_c, 4, 67, 92
6, 6820, Note_on_c, 4, 67, 0
6, 6820, Note_on_c, 4, 55, 0
6, 11520, Note_on_c, 4, 67, 92
6, 11620, Note_on_c, 4, 67, 0
6, 11640, Note_on_c, 4, 67, 92
6, 11850, Note_on_c, 4, 67, 0
6, 11880, Note_on_c, 4, 69, 92
6, 11980, Note_on_c, 4, 69, 0
6, 12000, Note_on_c, 4, 67, 92
6, 12100, Note_on_c, 4, 67, 0
6, 12120, Note_on_c, 4, 69, 92
6, 12220, Note_on_c, 4, 69, 0
6, 12240, Note_on_c, 4, 67, 92
6, 12340, Note_on_c, 4, 67, 0
6, 12360, Note_on_c, 4, 69, 92
6, 12460, Note_on_c, 4, 69, 0
6, 12480, Note_on_c, 4, 67, 92
6, 12580, Note_on_c, 4, 67, 0
6, 12600, Note_on_c, 4, 67, 92
6, 12810, Note_on_c, 4, 67, 0
6, 12840, Note_on_c, 4, 69, 92
6, 12940, Note_on_c, 4, 69, 0
6, 12960, Note_on_c, 4, 67, 92
6, 13060, Note_on_c, 4, 67, 0
6, 13080, Note_on_c, 4, 69, 92
6, 13180, Note_on_c, 4, 69, 0
6, 13200, Note_on_c, 4, 67, 92
6, 13300, Note_on_c, 4, 67, 0
6, 13320, Note_on_c, 4, 69, 92
6, 13420, Note_on_c, 4, 69, 0
6, 13440, Note_on_c, 4, 67, 92
6, 13540, Note_on_c, 4, 67, 0
6, 24960, Note_on_c, 4, 62, 92
6, 25060, Note_on_c, 4, 62, 0
6, 25080, Note_on_c, 4, 62, 92
6, 25290, Note_on_c, 4, 62, 0
6, 25320, Note_on_c, 4, 62, 92
6, 25420, Note_on_c, 4, 62, 0
6, 25440, Note_on_c, 4, 62, 92
6, 25540, Note_on_c, 4, 62, 0
6, 25560, Note_on_c, 4, 62, 92
6, 25660, Note_on_c, 4, 62, 0
6, 25680, Note_on_c, 4, 62, 92
6, 25780, Note_on_c, 4, 62, 0
6, 25800, Note_on_c, 4, 62, 92
6, 25900, Note_on_c, 4, 62, 0
6, 25920, Note_on_c, 4, 62, 92
6, 26020, Note_on_c, 4, 62, 0
6, 26040, Note_on_c, 4, 62, 92
6, 26250, Note_on_c, 4, 62, 0
6, 26280, Note_on_c, 4, 62, 92
6, 26380, Note_on_c, 4, 62, 0
6, 26400, Note_on_c, 4, 62, 92
6, 26500, Note_on_c, 4, 62, 0
6, 26520, Note_on_c, 4, 62, 92
6, 26620, Note_on_c, 4, 62, 0
6, 26640, Note_on_c, 4, 62, 92
6, 26740, Note_on_c, 4, 62, 0
6, 26760, Note_on_c, 4, 62, 92
6, 26860, Note_on_c, 4, 62, 0
6, 26880, Note_on_c, 4, 62, 92
6, 26980, Note_on_c, 4, 62, 0
6, 30840, Note_on_c, 4, 67, 92
6, 30840, Note_on_c, 4, 74, 92
6, 31050, Note_on_c, 4, 74, 0
6, 31050, Note_on_c, 4, 67, 0
6, 31080, Note_on_c, 4, 62, 92
6, 31080, Note_on_c, 4, 74, 92
6, 31180, Note_on_c, 4, 74, 0
6, 31180, Note_on_c, 4, 62, 0
6, 31200, Note_on_c, 4, 67, 92
6, 31200, Note_on_c, 4, 74, 92
6, 31300, Note_on_c, 4, 74, 0
6, 31300, Note_on_c, 4, 67, 0
6, 31320, Note_on_c, 4, 62, 92
6, 31320, Note_on_c, 4, 74, 92
6, 31420, Note_on_c, 4, 74, 0
6, 31420, Note_on_c, 4, 62, 0
6, 31440, Note_on_c, 4, 67, 92
6, 31440, Note_on_c, 4, 74, 92
6, 31540, Note_on_c, 4, 74, 0
6, 31540, Note_on_c, 4, 67, 0
6, 31560, Note_on_c, 4, 59, 92
6, 31560, Note_on_c, 4, 71, 92
6, 31660, Note_on_c, 4, 71, 0
6, 31660, Note_on_c, 4, 59, 0
6, 31680, Note_on_c, 4, 59, 92
6, 31680, Note_on_c, 4, 71, 92
6, 31780, Note_on_c, 4, 71, 0
6, 31780, Note_on_c, 4, 59, 0
6, 31800, Note_on_c, 4, 59, 92
6, 31800, Note_on_c, 4, 71, 92
6, 32010, Note_on_c, 4, 71, 0
6, 32010, Note_on_c, 4, 59, 0
6, 32040, Note_on_c, 4, 59, 92
6, 32040, Note_on_c, 4, 71, 92
6, 32140, Note_on_c, 4, 71, 0
6, 32140, Note_on_c, 4, 59, 0
6, 32160, Note_on_c, 4, 59, 92
6, 32160, Note_on_c, 4, 71, 92
6, 32260, Note_on_c, 4, 71, 0
6, 32260, Note_on_c, 4, 59, 0
6, 32280, Note_on_c, 4, 59, 92
6, 32280, Note_on_c, 4, 71, 92
6, 32380, Note_on_c, 4, 71, 0
6, 32380, Note_on_c, 4, 59, 0
6, 32400, Note_on_c, 4, 59, 92
6, 32400, Note_on_c, 4, 71, 92
6, 32500, Note_on_c, 4, 71, 0
6, 32500, Note_on_c, 4, 59, 0
6, 32520, Note_on_c, 4, 55, 92
6, 32520, Note_on_c, 4, 67, 92
6, 32620, Note_on_c, 4, 67, 0
6, 32620, Note_on_c, 4, 55, 0
6, 32640, Note_on_c, 4, 55, 92
6, 32640, Note_on_c, 4, 67, 92
6, 32740, Note_on_c, 4, 67, 0
6, 32740, Note_on_c, 4, 55, 0
6, 32760, Note_on_c, 4, 55, 92
6, 32760, Note_on_c, 4, 67, 92
6, 32970, Note_on_c, 4, 67, 0
6, 32970, Note_on_c, 4, 55, 0
6, 33000, Note_on_c, 4, 55, 92
6, 33000, Note_on_c, 4, 67, 92
6, 33100, Note_on_c, 4, 67, 0
6, 33100, Note_on_c, 4, 55, 0
6, 33120, Note_on_c, 4, 55, 92
6, 33120, Note_on_c, 4, 67, 92
6, 33220, Note_on_c, 4, 67, 0
6, 33220, Note_on_c, 4, 55, 0
6, 33240, Note_on_c, 4, 55, 92
6, 33240, Note_on_c, 4, 67, 92
6, 33340, Note_on_c, 4, 67, 0
6, 33340, Note_on_c, 4, 55, 0
6, 33360, Note_on_c, 4, 55, 92
6, 33360, Note_on_c, 4, 67, 92
6, 33460, Note_on_c, 4, 67, 0
6, 33460, Note_on_c, 4, 55, 0
6, 34560, Note_on_c, 4, 55, 92
6, 34560, Note_on_c, 4, 67, 92
6, 34590, Note_on_c, 4, 67, 0
6, 34590, Note_on_c, 4, 55, 0
6, 34680, Note_on_c, 4, 59, 92
6, 34680, Note_on_c, 4, 71, 92
6, 34710, Note_on_c, 4, 71, 0
6, 34710, Note_on_c, 4, 59, 0
6, 34800, Note_on_c, 4, 62, 92
6, 34800, Note_on_c, 4, 74, 92
6, 35010, Note_on_c, 4, 74, 0
6, 35010, Note_on_c, 4, 62, 0
6, 35280, Note_on_c, 4, 59, 92
6, 35280, Note_on_c, 4, 71, 92
6, 35490, Note_on_c, 4, 71, 0
6, 35490, Note_on_c, 4, 59, 0
6, 35760, Note_on_c, 4, 62, 92
6, 35760, Note_on_c, 4, 69, 92
6, 35970, Note_on_c, 4, 69, 0
6, 35970, Note_on_c, 4, 62, 0
6, 36000, Note_on_c, 4, 55, 92
6, 36000, Note_on_c, 4, 67, 92
6, 36030, Note_on_c, 4, 67, 0
6, 36030, Note_on_c, 4, 55, 0
6, 36120, Note_on_c, 4, 59, 92
6, 36120, Note_on_c, 4, 71, 92
6, 36150, Note_on_c, 4, 71, 0
6, 36150, Note_on_c, 4, 59, 0
6, 36240, Note_on_c, 4, 62, 92
6, 36240, Note_on_c, 4, 74, 92
6, 36450, Note_on_c, 4, 74, 0
6, 36450, Note_on_c, 4, 62, 0
6, 36720, Note_on_c, 4, 59, 92
6, 36720, Note_on_c, 4, 71, 92
6, 36930, Note_on_c, 4, 71, 0
6, 36930, Note_on_c, 4, 59, 0
6, 37200, Note_on_c, 4, 62, 92
6, 37200, Note_on_c, 4, 69, 92
6, 37410, Note_on_c, 4, 69, 0
6, 37410, Note_on_c, 4, 62, 0
6, 37440, Note_on_c, 4, 59, 92
6, 37440, Note_on_c, 4, 67, 92
6, 37540, Note_on_c, 4, 67, 0
6, 37540, Note_on_c, 4, 59, 0
6, 41280, Note_on_c, 4, 55, 60
6, 41280, Note_on_c, 4, 67, 60
6, 44130, Note_on_c, 4, 67, 0
6, 44130, Note_on_c, 4, 55, 0
6, 44160, Note_on_c, 4, 62, 60
6, 45090, Note_on_c, 4, 62, 0
6, 45120, Note_on_c, 4, 55, 60
6, 45220, Note_on_c, 4, 55, 0
6, 53760, Note_on_c, 4, 69, 92
6, 53860, Note_on_c, 4, 69, 0
6, 53880, Note_on_c, 4, 69, 92
6, 54090, Note_on_c, 4, 69, 0
6, 54120, Note_on_c, 4, 69, 92
6, 54220, Note_on_c, 4, 69, 0
6, 54240, Note_on_c, 4, 69, 92
6, 54340, Note_on_c, 4, 69, 0
6, 54360, Note_on_c, 4, 69, 92
6, 54460, Note_on_c, 4, 69, 0
6, 54480, Note_on_c, 4, 69, 92
6, 54580, Note_on_c, 4, 69, 0
6, 54600, Note_on_c, 4, 69, 92
6, 54700, Note_on_c, 4, 69, 0
6, 54720, Note_on_c, 4, 69, 92
6, 54820, Note_on_c, 4, 69, 0
6, 57600, Note_on_c, 4, 62, 92
6, 57700, Note_on_c, 4, 62, 0
6, 57720, Note_on_c, 4, 62, 92
6, 57930, Note_on_c, 4, 62, 0
6, 57960, Note_on_c, 4, 62, 92
6, 58060, Note_on_c, 4, 62, 0
6, 58080, Note_on_c, 4, 62, 92
6, 58180, Note_on_c, 4, 62, 0
6, 58200, Note_on_c, 4, 62, 92
6, 58300, Note_on_c, 4, 62, 0
6, 58320, Note_on_c, 4, 62, 92
6, 58420, Note_on_c, 4, 62, 0
6, 58440, Note_on_c, 4, 62, 92
6, 58540, Note_on_c, 4, 62, 0
6, 58560, Note_on_c, 4, 62, 92
6, 58660, Note_on_c, 4, 62, 0
6, 62400, Note_on_c, 4, 55, 92
6, 62400, Note_on_c, 4, 67, 92
6, 62500, Note_on_c, 4, 67, 0
6, 62500, Note_on_c, 4, 55, 0
6, 62520, Note_on_c, 4, 55, 92
6, 62520, Note_on_c, 4, 67, 92
6, 62730, Note_on_c, 4, 67, 0
6, 62730, Note_on_c, 4, 55, 0
6, 62760, Note_on_c, 4, 55, 92
6, 62760, Note_on_c, 4, 67, 92
6, 62860, Note_on_c, 4, 67, 0
6, 62860, Note_on_c, 4, 55, 0
6, 62880, Note_on_c, 4, 55, 92
6, 62880, Note_on_c, 4, 67, 92
6, 62980, Note_on_c, 4, 67, 0
6, 62980, Note_on_c, 4, 55, 0
6, 63000, Note_on_c, 4, 55, 92
6, 63000, Note_on_c, 4, 67, 92
6, 63100, Note_on_c, 4, 67, 0
6, 63100, Note_on_c, 4, 55, 0
6, 63120, Note_on_c, 4, 55, 92
6, 63120, Note_on_c, 4, 67, 92
6, 63220, Note_on_c, 4, 67, 0
6, 63220, Note_on_c, 4, 55, 0
6, 63240, Note_on_c, 4, 55, 92
6, 63240, Note_on_c, 4, 67, 92
6, 63340, Note_on_c, 4, 67, 0
6, 63340, Note_on_c, 4, 55, 0
6, 63360, Note_on_c, 4, 55, 92
6, 63360, Note_on_c, 4, 67, 92
6, 63460, Note_on_c, 4, 67, 0
6, 63460, Note_on_c, 4, 55, 0
6, 80520, Note_on_c, 4, 55, 92
6, 80520, Note_on_c, 4, 67, 92
6, 80620, Note_on_c, 4, 67, 0
6, 80620, Note_on_c, 4, 55, 0
6, 80640, Note_on_c, 4, 55, 92
6, 80640, Note_on_c, 4, 67, 92
6, 80740, Note_on_c, 4, 67, 0
6, 80740, Note_on_c, 4, 55, 0
6, 80760, Note_on_c, 4, 55, 92
6, 80760, Note_on_c, 4, 67, 92
6, 80970, Note_on_c, 4, 67, 0
6, 80970, Note_on_c, 4, 55, 0
6, 81000, Note_on_c, 4, 55, 92
6, 81000, Note_on_c, 4, 67, 92
6, 81100, Note_on_c, 4, 67, 0
6, 81100, Note_on_c, 4, 55, 0
6, 81120, Note_on_c, 4, 55, 92
6, 81120, Note_on_c, 4, 67, 92
6, 81220, Note_on_c, 4, 67, 0
6, 81220, Note_on_c, 4, 55, 0
6, 83520, Note_on_c, 4, 55, 60
6, 83520, Note_on_c, 4, 67, 60
6, 87460, Note_on_c, 4, 67, 0
6, 87460, Note_on_c, 4, 55, 0
6, 90240, Note_on_c, 4, 67, 92
6, 90340, Note_on_c, 4, 67, 0
6, 90360, Note_on_c, 4, 67, 92
6, 90570, Note_on_c, 4, 67, 0
6, 90600, Note_on_c, 4, 69, 92
6, 90700, Note_on_c, 4, 69, 0
6, 90720, Note_on_c, 4, 67, 92
6, 90820, Note_on_c, 4, 67, 0
6, 90840, Note_on_c, 4, 69, 92
6, 90940, Note_on_c, 4, 69, 0
6, 90960, Note_on_c, 4, 67, 92
6, 91060, Note_on_c, 4, 67, 0
6, 91080, Note_on_c, 4, 69, 92
6, 91180, Note_on_c, 4, 69, 0
6, 91200, Note_on_c, 4, 67, 92
6, 91300, Note_on_c, 4, 67, 0
6, 91320, Note_on_c, 4, 67, 92
6, 91530, Note_on_c, 4, 67, 0
6, 91560, Note_on_c, 4, 69, 92
6, 91660, Note_on_c, 4, 69, 0
6, 91680, Note_on_c, 4, 67, 92
6, 91780, Note_on_c, 4, 67, 0
6, 91800, Note_on_c, 4, 69, 92
6, 91900, Note_on_c, 4, 69, 0
6, 91920, Note_on_c, 4, 67, 92
6, 92020, Note_on_c, 4, 67, 0
6, 92040, Note_on_c, 4, 69, 92
6, 92140, Note_on_c, 4, 69, 0
6, 92160, Note_on_c, 4, 67, 92
6, 92260, Note_on_c, 4, 67, 0
6, 99960, Note_on_c, 4, 55, 92
6, 99960, Note_on_c, 4, 67, 92
6, 100170, Note_on_c, 4, 67, 0
6, 100170, Note_on_c, 4, 55, 0
6, 100200, Note_on_c, 4, 55, 92
6, 100200, Note_on_c, 4, 67, 92
6, 100300, Note_on_c, 4, 67, 0
6, 100300, Note_on_c, 4, 55, 0
6, 100320, Note_on_c, 4, 55, 92
6, 100320, Note_on_c, 4, 67, 92
6, 100420, Note_on_c, 4, 67, 0
6, 100420, Note_on_c, 4, 55, 0
6, 103440, Note_on_c, 4, 55, 92
6, 103440, Note_on_c, 4, 67, 92
6, 103650, Note_on_c, 4, 67, 0
6, 103650, Note_on_c, 4, 55, 0
6, 103680, Note_on_c, 4, 55, 92
6, 103680, Note_on_c, 4, 67, 92
6, 103780, Note_on_c, 4, 67, 0
6, 103780, Note_on_c, 4, 55, 0
6, 103920, Note_on_c, 4, 69, 92
6, 104020, Note_on_c, 4, 69, 0
6, 104160, Note_on_c, 4, 69, 92
6, 104260, Note_on_c, 4, 69, 0
6, 104400, Note_on_c, 4, 55, 92
6, 104400, Note_on_c, 4, 67, 92
6, 104500, Note_on_c, 4, 67, 0
6, 104500, Note_on_c, 4, 55, 0
6, 104520, Note_on_c, 4, 55, 92
6, 104520, Note_on_c, 4, 67, 92
6, 104620, Note_on_c, 4, 67, 0
6, 104620, Note_on_c, 4, 55, 0
6, 104640, Note_on_c, 4, 55, 92
6, 104640, Note_on_c, 4, 67, 92
6, 104740, Note_on_c, 4, 67, 0
6, 104740, Note_on_c, 4, 55, 0
6, 104760, Note_on_c, 4, 55, 92
6, 104760, Note_on_c, 4, 67, 92
6, 104970, Note_on_c, 4, 67, 0
6, 104970, Note_on_c, 4, 55, 0
6, 105000, Note_on_c, 4, 55, 92
6, 105000, Note_on_c, 4, 67, 92
6, 105100, Note_on_c, 4, 67, 0
6, 105100, Note_on_c, 4, 55, 0
6, 105120, Note_on_c, 4, 55, 92
6, 105120, Note_on_c, 4, 67, 92
6, 105220, Note_on_c, 4, 67, 0
6, 105220, Note_on_c, 4, 55, 0
6, 108240, Note_on_c, 4, 55, 92
6, 108240, Note_on_c, 4, 67, 92
6, 108450, Note_on_c, 4, 67, 0
6, 108450, Note_on_c, 4, 55, 0
6, 108480, Note_on_c, 4, 55, 92
6, 108480, Note_on_c, 4, 67, 92
6, 108580, Note_on_c, 4, 67, 0
6, 108580, Note_on_c, 4, 55, 0
6, 112800, Note_on_c, 4, 67, 92
6, 112900, Note_on_c, 4, 67, 0
6, 113280, Note_on_c, 4, 69, 92
6, 113380, Note_on_c, 4, 69, 0
6, 113760, Note_on_c, 4, 69, 92
6, 113860, Note_on_c, 4, 69, 0
6, 114240, Note_on_c, 4, 55, 92
6, 114240, Note_on_c, 4, 67, 92
6, 114340, Note_on_c, 4, 67, 0
6, 114340, Note_on_c, 4, 55, 0
6, 114720, Note_on_c, 4, 55, 92
6, 114720, Note_on_c, 4, 67, 92
6, 114820, Note_on_c, 4, 67, 0
6, 114820, Note_on_c, 4, 55, 0
6, 115200, Note_on_c, 4, 55, 92
6, 115200, Note_on_c, 4, 67, 92
6, 115300, Note_on_c, 4, 67, 0
6, 115300, Note_on_c, 4, 55, 0
6, 117120, Control_c, 4, 7, 32
6, 117120, Note_on_c, 4, 55, 60
6, 117120, Note_on_c, 4, 67, 60
6, 118560, Control_c, 4, 7, 48
6, 119040, Control_c, 4, 7, 64
6, 119520, Control_c, 4, 7, 80
6, 120000, Control_c, 4, 7, 96
6, 120930, Note_on_c, 4, 67, 0
6, 120930, Note_on_c, 4, 55, 0
6, 120960, Note_on_c, 4, 67, 108
6, 121060, Note_on_c, 4, 67, 0
6, 121080, Note_on_c, 4, 67, 108
6, 121290, Note_on_c, 4, 67, 0
6, 121320, Note_on_c, 4, 69, 108
6, 121420, Note_on_c, 4, 69, 0
6, 121440, Note_on_c, 4, 67, 108
6, 121540, Note_on_c, 4, 67, 0
6, 121560, Note_on_c, 4, 69, 108
6, 121660, Note_on_c, 4, 69, 0
6, 121680, Note_on_c, 4, 67, 108
6, 121780, Note_on_c, 4, 67, 0
6, 121800, Note_on_c, 4, 55, 108
6, 121800, Note_on_c, 4, 67, 108
6, 121900, Note_on_c, 4, 67, 0
6, 121900, Note_on_c, 4, 55, 0
6, 121920, Note_on_c, 4, 55, 108
6, 121920, Note_on_c, 4, 67, 108
6, 122020, Note_on_c, 4, 67, 0
6, 122020, Note_on_c, 4, 55, 0
6, 122040, Note_on_c, 4, 67, 108
6, 122250, Note_on_c, 4, 67, 0
6, 122280, Note_on_c, 4, 69, 108
6, 122380, Note_on_c, 4, 69, 0
6, 122400, Note_on_c, 4, 67, 108
6, 122500, Note_on_c, 4, 67, 0
6, 122520, Note_on_c, 4, 69, 108
6, 122620, Note_on_c, 4, 69, 0
6, 122640, Note_on_c, 4, 67, 108
6, 122740, Note_on_c, 4, 67, 0
6, 122760, Note_on_c, 4, 55, 108
6, 122760, Note_on_c, 4, 67, 108
6, 122860, Note_on_c, 4, 67, 0
6, 122860, Note_on_c, 4, 55, 0
6, 122880, Note_on_c, 4, 55, 108
6, 122880, Note_on_c, 4, 67, 108
6, 122980, Note_on_c, 4, 67, 0
6, 122980, Note_on_c, 4, 55, 0
6, 123000, Note_on_c, 4, 55, 108
6, 123000, Note_on_c, 4, 67, 108
6, 123100, Note_on_c, 4, 67, 0
6, 123100, Note_on_c, 4, 55, 0
6, 123120, Note_on_c, 4, 55, 108
6, 123120, Note_on_c, 4, 67, 108
6, 123220, Note_on_c, 4, 67, 0
6, 123220, Note_on_c, 4, 55, 0
6, 123240, Note_on_c, 4, 55, 108
6, 123240, Note_on_c, 4, 67, 108
6, 123340, Note_on_c, 4, 67, 0
6, 123340, Note_on_c, 4, 55, 0
6, 123360, Note_on_c, 4, 55, 108
6, 123360, Note_on_c, 4, 67, 108
6, 123460, Note_on_c, 4, 67, 0
6, 123460, Note_on_c, 4, 55, 0
6, 123480, Note_on_c, 4, 55, 108
6, 123480, Note_on_c, 4, 67, 108
6, 123580, Note_on_c, 4, 67, 0
6, 123580, Note_on_c, 4, 55, 0
6, 123600, Note_on_c, 4, 55, 108
6, 123600, Note_on_c, 4, 67, 108
6, 123700, Note_on_c, 4, 67, 0
6, 123700, Note_on_c, 4, 55, 0
6, 123720, Note_on_c, 4, 55, 108
6, 123720, Note_on_c, 4, 67, 108
6, 123820, Note_on_c, 4, 67, 0
6, 123820, Note_on_c, 4, 55, 0
6, 123840, Note_on_c, 4, 55, 108
6, 123840, Note_on_c, 4, 67, 108
6, 123940, Note_on_c, 4, 67, 0
6, 123940, Note_on_c, 4, 55, 0
6, 124320, Note_on_c, 4, 55, 108
6, 124320, Note_on_c, 4, 67, 108
6, 124420, Note_on_c, 4, 67, 0
6, 124420, Note_on_c, 4, 55, 0
6, 124560, Note_on_c, 4, 55, 108
6, 124560, Note_on_c, 4, 67, 108
6, 124660, Note_on_c, 4, 67, 0
6, 124660, Note_on_c, 4, 55, 0
6, 124800, Note_on_c, 4, 55, 108
6, 124800, Note_on_c, 4, 67, 108
6, 125010, Note_on_c, 4, 67, 0
6, 125010, Note_on_c, 4, 55, 0
6, 125010, End_track
7, 0, Start_track
7, 0, MIDI_port, 0
7, 0, Title_t, "Trumpets (C)"
7, 0, Program_c, 5, 56
7, 0, Control_c, 5, 7, 127
7, 0, Control_c, 5, 10, 90
7, 0, Note_on_c, 5, 64, 92
7, 0, Note_on_c, 5, 72, 92
7, 100, Note_on_c, 5, 72, 0
7, 100, Note_on_c, 5, 64, 0
7, 210, Note_on_c, 5, 60, 92
7, 210, Note_on_c, 5, 64, 92
7, 238, Note_on_c, 5, 64, 0
7, 238, Note_on_c, 5, 60, 0
7, 240, Note_on_c, 5, 60, 92
7, 240, Note_on_c, 5, 64, 92
7, 340, Note_on_c, 5, 64, 0
7, 340, Note_on_c, 5, 60, 0
7, 1890, Note_on_c, 5, 55, 92
7, 1890, Note_on_c, 5, 67, 92
7, 1918, Note_on_c, 5, 67, 0
7, 1918, Note_on_c, 5, 55, 0
7, 1920, Note_on_c, 5, 55, 92
7, 1920, Note_on_c, 5, 67, 92
7, 2020, Note_on_c, 5, 67, 0
7, 2020, Note_on_c, 5, 55, 0
7, 2130, Note_on_c, 5, 55, 92
7, 2130, Note_on_c, 5, 67, 92
7, 2158, Note_on_c, 5, 67, 0
7, 2158, Note_on_c, 5, 55, 0
7, 2160, Note_on_c, 5, 55, 92
7, 2160, Note_on_c, 5, 67, 92
7, 2260, Note_on_c, 5, 67, 0
7, 2260, Note_on_c, 5, 55, 0
7, 5520, Note_on_c, 5, 60, 92
7, 5520, Note_on_c, 5, 72, 92
7, 5620, Note_on_c, 5, 72, 0
7, 5620, Note_on_c, 5, 60, 0
7, 5760, Note_on_c, 5, 60, 92
7, 5760, Note_on_c, 5, 72, 92
7, 5860, Note_on_c, 5, 72, 0
7, 5860, Note_on_c, 5, 60, 0
7, 6000, Note_on_c, 5, 60, 92
7, 6000, Note_on_c, 5, 72, 92
7, 6100, Note_on_c, 5, 72, 0
7, 6100, Note_on_c, 5, 60, 0
7, 6240, Note_on_c, 5, 55, 92
7, 6240, Note_on_c, 5, 67, 92
7, 6340, Note_on_c, 5, 67, 0
7, 6340, Note_on_c, 5, 55, 0
7, 6480, Note_on_c, 5, 55, 92
7, 6480, Note_on_c, 5, 67, 92
7, 6580, Note_on_c, 5, 67, 0
7, 6580, Note_on_c, 5, 55, 0
7, 6720, Note_on_c, 5, 60, 92
7, 6720, Note_on_c, 5, 64, 92
7, 6820, Note_on_c, 5, 64, 0
7, 6820, Note_on_c, 5, 60, 0
7, 11520, Note_on_c, 5, 60, 92
7, 11520, Note_on_c, 5, 72, 92
7, 11620, Note_on_c, 5, 72, 0
7, 11620, Note_on_c, 5, 60, 0
7, 11640, Note_on_c, 5, 60, 92
7, 11640, Note_on_c, 5, 72, 92
7, 11850, Note_on_c, 5, 72, 0
7, 11850, Note_on_c, 5, 60, 0
7, 11880, Note_on_c, 5, 60, 92
7, 11880, Note_on_c, 5, 72, 92
7, 11980, Note_on_c, 5, 72, 0
7, 11980, Note_on_c, 5, 60, 0
7, 12000, Note_on_c, 5, 60, 92
7, 12000, Note_on_c, 5, 72, 92
7, 12100, Note_on_c, 5, 72, 0
7, 12100, Note_on_c, 5, 60, 0
7, 12120, Note_on_c, 5, 60, 92
7, 12120, Note_on_c, 5, 72, 92
7, 12220, Note_on_c, 5, 72, 0
7, 12220, Note_on_c, 5, 60, 0
7, 12240, Note_on_c, 5, 60, 92
7, 12240, Note_on_c, 5, 72, 92
7, 12340, Note_on_c, 5, 72, 0
7, 12340, Note_on_c, 5, 60, 0
7, 12360, Note_on_c, 5, 60, 92
7, 12360, Note_on_c, 5, 72, 92
7, 12460, Note_on_c, 5, 72, 0
7, 12460, Note_on_c, 5, 60, 0
7, 12480, Note_on_c, 5, 60, 92
7, 12480, Note_on_c, 5, 72, 92
7, 12580, Note_on_c, 5, 72, 0
7, 12580, Note_on_c, 5, 60, 0
7, 12600, Note_on_c, 5, 60, 92
7, 12600, Note_on_c, 5, 72, 92
7, 12810, Note_on_c, 5, 72, 0
7, 12810, Note_on_c, 5, 60, 0
7, 12840, Note_on_c, 5, 60, 92
7, 12840, Note_on_c, 5, 72, 92
7, 12940, Note_on_c, 5, 72, 0
7, 12940, Note_on_c, 5, 60, 0
7, 12960, Note_on_c, 5, 60, 92
7, 12960, Note_on_c, 5, 72, 92
7, 13060, Note_on_c, 5, 72, 0
7, 13060, Note_on_c, 5, 60, 0
7, 13080, Note_on_c, 5, 60, 92
7, 13080, Note_on_c, 5, 72, 92
7, 13180, Note_on_c, 5, 72, 0
7, 13180, Note_on_c, 5, 60, 0
7, 13200, Note_on_c, 5, 60, 92
7, 13200, Note_on_c, 5, 72, 92
7, 13300, Note_on_c, 5, 72, 0
7, 13300, Note_on_c, 5, 60, 0
7, 13320, Note_on_c, 5, 60, 92
7, 13320, Note_on_c, 5, 72, 92
7, 13420, Note_on_c, 5, 72, 0
7, 13420, Note_on_c, 5, 60, 0
7, 13440, Note_on_c, 5, 60, 92
7, 13440, Note_on_c, 5, 72, 92
7, 13540, Note_on_c, 5, 72, 0
7, 13540, Note_on_c, 5, 60, 0
7, 20160, Note_on_c, 5, 55, 60
7, 20160, Note_on_c, 5, 67, 60
7, 21090, Note_on_c, 5, 67, 0
7, 21090, Note_on_c, 5, 55, 0
7, 21120, Note_on_c, 5, 60, 60
7, 21220, Note_on_c, 5, 60, 0
7, 30840, Note_on_c, 5, 67, 92
7, 30840, Note_on_c, 5, 74, 92
7, 31050, Note_on_c, 5, 74, 0
7, 31050, Note_on_c, 5, 67, 0
7, 31080, Note_on_c, 5, 74, 92
7, 31180, Note_on_c, 5, 74, 0
7, 31200, Note_on_c, 5, 67, 92
7, 31200, Note_on_c, 5, 74, 92
7, 31300, Note_on_c, 5, 74, 0
7, 31300, Note_on_c, 5, 67, 0
7, 31320, Note_on_c, 5, 74, 92
7, 31420, Note_on_c, 5, 74, 0
7, 31440, Note_on_c, 5, 67, 92
7, 31440, Note_on_c, 5, 74, 92
7, 31540, Note_on_c, 5, 74, 0
7, 31540, Note_on_c, 5, 67, 0
7, 32520, Note_on_c, 5, 55, 92
7, 32520, Note_on_c, 5, 67, 92
7, 32620, Note_on_c, 5, 67, 0
7, 32620, Note_on_c, 5, 55, 0
7, 32640, Note_on_c, 5, 55, 92
7, 32640, Note_on_c, 5, 67, 92
7, 32740, Note_on_c, 5, 67, 0
7, 32740, Note_on_c, 5, 55, 0
7, 32760, Note_on_c, 5, 55, 92
7, 32760, Note_on_c, 5, 67, 92
7, 32970, Note_on_c, 5, 67, 0
7, 32970, Note_on_c, 5, 55, 0
7, 33000, Note_on_c, 5, 55, 92
7, 33000, Note_on_c, 5, 67, 92
7, 33100, Note_on_c, 5, 67, 0
7, 33100, Note_on_c, 5, 55, 0
7, 33120, Note_on_c, 5, 55, 92
7, 33120, Note_on_c, 5, 67, 92
7, 33220, Note_on_c, 5, 67, 0
7, 33220, Note_on_c, 5, 55, 0
7, 34560, Note_on_c, 5, 67, 92
7, 34560, Note_on_c, 5, 79, 92
7, 34770, Note_on_c, 5, 79, 0
7, 34770, Note_on_c, 5, 67, 0
7, 35040, Note_on_c, 5, 64, 92
7, 35040, Note_on_c, 5, 76, 92
7, 35250, Note_on_c, 5, 76, 0
7, 35250, Note_on_c, 5, 64, 0
7, 35520, Note_on_c, 5, 72, 92
7, 35730, Note_on_c, 5, 72, 0
7, 35760, Note_on_c, 5, 74, 92
7, 35970, Note_on_c, 5, 74, 0
7, 36000, Note_on_c, 5, 67, 92
7, 36000, Note_on_c, 5, 79, 92
7, 36210, Note_on_c, 5, 79, 0
7, 36210, Note_on_c, 5, 67, 0
7, 36480, Note_on_c, 5, 64, 92
7, 36480, Note_on_c, 5, 76, 92
7, 36690, Note_on_c, 5, 76, 0
7, 36690, Note_on_c, 5, 64, 0
7, 36960, Note_on_c, 5, 72, 92
7, 37170, Note_on_c, 5, 72, 0
7, 37200, Note_on_c, 5, 74, 92
7, 37410, Note_on_c, 5, 74, 0
7, 37440, Note_on_c, 5, 67, 92
7, 37540, Note_on_c, 5, 67, 0
7, 48000, Note_on_c, 5, 64, 92
7, 48000, Note_on_c, 5, 76, 92
7, 48100, Note_on_c, 5, 76, 0
7, 48100, Note_on_c, 5, 64, 0
7, 48120, Note_on_c, 5, 64, 92
7, 48120, Note_on_c, 5, 76, 92
7, 48330, Note_on_c, 5, 76, 0
7, 48330, Note_on_c, 5, 64, 0
7, 48360, Note_on_c, 5, 64, 92
7, 48360, Note_on_c, 5, 76, 92
7, 48460, Note_on_c, 5, 76, 0
7, 48460, Note_on_c, 5, 64, 0
7, 48480, Note_on_c, 5, 64, 92
7, 48480, Note_on_c, 5, 76, 92
7, 48580, Note_on_c, 5, 76, 0
7, 48580, Note_on_c, 5, 64, 0
7, 48600, Note_on_c, 5, 64, 92
7, 48600, Note_on_c, 5, 76, 92
7, 48700, Note_on_c, 5, 76, 0
7, 48700, Note_on_c, 5, 64, 0
7, 48720, Note_on_c, 5, 64, 92
7, 48720, Note_on_c, 5, 76, 92
7, 48820, Note_on_c, 5, 76, 0
7, 48820, Note_on_c, 5, 64, 0
7, 48840, Note_on_c, 5, 64, 92
7, 48840, Note_on_c, 5, 76, 92
7, 48940, Note_on_c, 5, 76, 0
7, 48940, Note_on_c, 5, 64, 0
7, 48960, Note_on_c, 5, 64, 92
7, 48960, Note_on_c, 5, 76, 92
7, 49060, Note_on_c, 5, 76, 0
7, 49060, Note_on_c, 5, 64, 0
7, 49080, Note_on_c, 5, 64, 92
7, 49080, Note_on_c, 5, 76, 92
7, 49290, Note_on_c, 5, 76, 0
7, 49290, Note_on_c, 5, 64, 0
7, 49320, Note_on_c, 5, 64, 92
7, 49320, Note_on_c, 5, 76, 92
7, 49420, Note_on_c, 5, 76, 0
7, 49420, Note_on_c, 5, 64, 0
7, 49440, Note_on_c, 5, 64, 92
7, 49440, Note_on_c, 5, 76, 92
7, 49540, Note_on_c, 5, 76, 0
7, 49540, Note_on_c, 5, 64, 0
7, 49560, Note_on_c, 5, 64, 92
7, 49560, Note_on_c, 5, 76, 92
7, 49660, Note_on_c, 5, 76, 0
7, 49660, Note_on_c, 5, 64, 0
7, 49680, Note_on_c, 5, 64, 92
7, 49680, Note_on_c, 5, 76, 92
7, 49780, Note_on_c, 5, 76, 0
7, 49780, Note_on_c, 5, 64, 0
7, 49800, Note_on_c, 5, 64, 92
7, 49800, Note_on_c, 5, 76, 92
7, 49900, Note_on_c, 5, 76, 0
7, 49900, Note_on_c, 5, 64, 0
7, 49920, Note_on_c, 5, 64, 92
7, 49920, Note_on_c, 5, 76, 92
7, 50020, Note_on_c, 5, 76, 0
7, 50020, Note_on_c, 5, 64, 0
7, 57600, Note_on_c, 5, 74, 92
7, 57700, Note_on_c, 5, 74, 0
7, 57720, Note_on_c, 5, 74, 92
7, 57930, Note_on_c, 5, 74, 0
7, 57960, Note_on_c, 5, 74, 92
7, 58060, Note_on_c, 5, 74, 0
7, 58080, Note_on_c, 5, 74, 92
7, 58180, Note_on_c, 5, 74, 0
7, 58200, Note_on_c, 5, 74, 92
7, 58300, Note_on_c, 5, 74, 0
7, 58320, Note_on_c, 5, 74, 92
7, 58420, Note_on_c, 5, 74, 0
7, 58440, Note_on_c, 5, 74, 92
7, 58540, Note_on_c, 5, 74, 0
7, 58560, Note_on_c, 5, 74, 92
7, 58660, Note_on_c, 5, 74, 0
7, 62400, Note_on_c, 5, 55, 92
7, 62400, Note_on_c, 5, 67, 92
7, 62500, Note_on_c, 5, 67, 0
7, 62500, Note_on_c, 5, 55, 0
7, 62520, Note_on_c, 5, 55, 92
7, 62520, Note_on_c, 5, 67, 92
7, 62730, Note_on_c, 5, 67, 0
7, 62730, Note_on_c, 5, 55, 0
7, 62760, Note_on_c, 5, 55, 92
7, 62760, Note_on_c, 5, 67, 92
7, 62860, Note_on_c, 5, 67, 0
7, 62860, Note_on_c, 5, 55, 0
7, 62880, Note_on_c, 5, 55, 92
7, 62880, Note_on_c, 5, 67, 92
7, 62980, Note_on_c, 5, 67, 0
7, 62980, Note_on_c, 5, 55, 0
7, 63000, Note_on_c, 5, 55, 92
7, 63000, Note_on_c, 5, 67, 92
7, 63100, Note_on_c, 5, 67, 0
7, 63100, Note_on_c, 5, 55, 0
7, 63120, Note_on_c, 5, 55, 92
7, 63120, Note_on_c, 5, 67, 92
7, 63220, Note_on_c, 5, 67, 0
7, 63220, Note_on_c, 5, 55, 0
7, 63240, Note_on_c, 5, 55, 92
7, 63240, Note_on_c, 5, 67, 92
7, 63340, Note_on_c, 5, 67, 0
7, 63340, Note_on_c, 5, 55, 0
7, 63360, Note_on_c, 5, 55, 92
7, 63360, Note_on_c, 5, 67, 92
7, 63460, Note_on_c, 5, 67, 0
7, 63460, Note_on_c, 5, 55, 0
7, 66240, Note_on_c, 5, 60, 92
7, 66240, Note_on_c, 5, 72, 92
7, 66340, Note_on_c, 5, 72, 0
7, 66340, Note_on_c, 5, 60, 0
7, 66360, Note_on_c, 5, 60, 92
7, 66360, Note_on_c, 5, 72, 92
7, 66570, Note_on_c, 5, 72, 0
7, 66570, Note_on_c, 5, 60, 0
7, 66600, Note_on_c, 5, 60, 92
7, 66600, Note_on_c, 5, 72, 92
7, 66700, Note_on_c, 5, 72, 0
7, 66700, Note_on_c, 5, 60, 0
7, 66720, Note_on_c, 5, 60, 92
7, 66720, Note_on_c, 5, 72, 92
7, 66820, Note_on_c, 5, 72, 0
7, 66820, Note_on_c, 5, 60, 0
7, 66840, Note_on_c, 5, 60, 92
7, 66840, Note_on_c, 5, 72, 92
7, 66940, Note_on_c, 5, 72, 0
7, 66940, Note_on_c, 5, 60, 0
7, 66960, Note_on_c, 5, 60, 92
7, 66960, Note_on_c, 5, 72, 92
7, 67060, Note_on_c, 5, 72, 0
7, 67060, Note_on_c, 5, 60, 0
7, 67080, Note_on_c, 5, 60, 92
7, 67080, Note_on_c, 5, 72, 92
7, 67180, Note_on_c, 5, 72, 0
7, 67180, Note_on_c, 5, 60, 0
7, 67200, Note_on_c, 5, 60, 92
7, 67200, Note_on_c, 5, 72, 92
7, 67300, Note_on_c, 5, 72, 0
7, 67300, Note_on_c, 5, 60, 0
7, 78720, Note_on_c, 5, 60, 92
7, 78720, Note_on_c, 5, 72, 92
7, 78820, Note_on_c, 5, 72, 0
7, 78820, Note_on_c, 5, 60, 0
7, 78840, Note_on_c, 5, 60, 92
7, 78840, Note_on_c, 5, 72, 92
7, 79050, Note_on_c, 5, 72, 0
7, 79050, Note_on_c, 5, 60, 0
7, 79080, Note_on_c, 5, 60, 92
7, 79080, Note_on_c, 5, 72, 92
7, 79180, Note_on_c, 5, 72, 0
7, 79180, Note_on_c, 5, 60, 0
7, 79200, Note_on_c, 5, 60, 92
7, 79200, Note_on_c, 5, 72, 92
7, 79300, Note_on_c, 5, 72, 0
7, 79300, Note_on_c, 5, 60, 0
7, 80520, Note_on_c, 5, 55, 92
7, 80520, Note_on_c, 5, 67, 92
7, 80620, Note_on_c, 5, 67, 0
7, 80620, Note_on_c, 5, 55, 0
7, 80640, Note_on_c, 5, 60, 92
7, 80640, Note_on_c, 5, 72, 92
7, 80740, Note_on_c, 5, 72, 0
7, 80740, Note_on_c, 5, 60, 0
7, 80760, Note_on_c, 5, 60, 92
7, 80760, Note_on_c, 5, 72, 92
7, 80970, Note_on_c, 5, 72, 0
7, 80970, Note_on_c, 5, 60, 0
7, 81000, Note_on_c, 5, 55, 92
7, 81000, Note_on_c, 5, 67, 92
7, 81100, Note_on_c, 5, 67, 0
7, 81100, Note_on_c, 5, 55, 0
7, 81120, Note_on_c, 5, 60, 92
7, 81120, Note_on_c, 5, 72, 92
7, 81220, Note_on_c, 5, 72, 0
7, 81220, Note_on_c, 5, 60, 0
7, 82560, Note_on_c, 5, 60, 92
7, 82560, Note_on_c, 5, 72, 92
7, 83140, Note_on_c, 5, 72, 0
7, 83140, Note_on_c, 5, 60, 0
7, 83160, Note_on_c, 5, 60, 92
7, 83160, Note_on_c, 5, 72, 92
7, 83260, Note_on_c, 5, 72, 0
7, 83260, Note_on_c, 5, 60, 0
7, 83280, Note_on_c, 5, 60, 92
7, 83280, Note_on_c, 5, 72, 92
7, 83380, Note_on_c, 5, 72, 0
7, 83380, Note_on_c, 5, 60, 0
7, 83400, Note_on_c, 5, 60, 92
7, 83400, Note_on_c, 5, 72, 92
7, 83500, Note_on_c, 5, 72, 0
7, 83500, Note_on_c, 5, 60, 0
7, 83520, Note_on_c, 5, 55, 92
7, 83520, Note_on_c, 5, 67, 92
7, 83620, Note_on_c, 5, 67, 0
7, 83620, Note_on_c, 5, 55, 0
7, 90240, Note_on_c, 5, 60, 92
7, 90240, Note_on_c, 5, 72, 92
7, 90340, Note_on_c, 5, 72, 0
7, 90340, Note_on_c, 5, 60, 0
7, 90360, Note_on_c, 5, 60, 92
7, 90360, Note_on_c, 5, 72, 92
7, 90570, Note_on_c, 5, 72, 0
7, 90570, Note_on_c, 5, 60, 0
7, 90600, Note_on_c, 5, 60, 92
7, 90600, Note_on_c, 5, 72, 92
7, 90700, Note_on_c, 5, 72, 0
7, 90700, Note_on_c, 5, 60, 0
7, 90720, Note_on_c, 5, 60, 92
7, 90720, Note_on_c, 5, 72, 92
7, 90820, Note_on_c, 5, 72, 0
7, 90820, Note_on_c, 5, 60, 0
7, 90840, Note_on_c, 5, 60, 92
7, 90840, Note_on_c, 5, 72, 92
7, 90940, Note_on_c, 5, 72, 0
7, 90940, Note_on_c, 5, 60, 0
7, 90960, Note_on_c, 5, 60, 92
7, 90960, Note_on_c, 5, 72, 92
7, 91060, Note_on_c, 5, 72, 0
7, 91060, Note_on_c, 5, 60, 0
7, 91080, Note_on_c, 5, 60, 92
7, 91080, Note_on_c, 5, 72, 92
7, 91180, Note_on_c, 5, 72, 0
7, 91180, Note_on_c, 5, 60, 0
7, 91200, Note_on_c, 5, 60, 92
7, 91200, Note_on_c, 5, 72, 92
7, 91300, Note_on_c, 5, 72, 0
7, 91300, Note_on_c, 5, 60, 0
7, 91320, Note_on_c, 5, 60, 92
7, 91320, Note_on_c, 5, 72, 92
7, 91530, Note_on_c, 5, 72, 0
7, 91530, Note_on_c, 5, 60, 0
7, 91560, Note_on_c, 5, 60, 92
7, 91560, Note_on_c, 5, 72, 92
7, 91660, Note_on_c, 5, 72, 0
7, 91660, Note_on_c, 5, 60, 0
7, 91680, Note_on_c, 5, 60, 92
7, 91680, Note_on_c, 5, 72, 92
7, 91780, Note_on_c, 5, 72, 0
7, 91780, Note_on_c, 5, 60, 0
7, 91800, Note_on_c, 5, 60, 92
7, 91800, Note_on_c, 5, 72, 92
7, 91900, Note_on_c, 5, 72, 0
7, 91900, Note_on_c, 5, 60, 0
7, 91920, Note_on_c, 5, 60, 92
7, 91920, Note_on_c, 5, 72, 92
7, 92020, Note_on_c, 5, 72, 0
7, 92020, Note_on_c, 5, 60, 0
7, 92040, Note_on_c, 5, 60, 92
7, 92040, Note_on_c, 5, 72, 92
7, 92140, Note_on_c, 5, 72, 0
7, 92140, Note_on_c, 5, 60, 0
7, 92160, Note_on_c, 5, 60, 92
7, 92160, Note_on_c, 5, 72, 92
7, 92260, Note_on_c, 5, 72, 0
7, 92260, Note_on_c, 5, 60, 0
7, 96000, Note_on_c, 5, 60, 60
7, 96000, Note_on_c, 5, 72, 60
7, 96100, Note_on_c, 5, 72, 0
7, 96100, Note_on_c, 5, 60, 0
7, 96480, Note_on_c, 5, 60, 60
7, 96480, Note_on_c, 5, 72, 60
7, 96580, Note_on_c, 5, 72, 0
7, 96580, Note_on_c, 5, 60, 0
7, 96960, Note_on_c, 5, 60, 60
7, 96960, Note_on_c, 5, 72, 60
7, 97060, Note_on_c, 5, 72, 0
7, 97060, Note_on_c, 5, 60, 0
7, 97440, Note_on_c, 5, 60, 60
7, 97440, Note_on_c, 5, 72, 60
7, 97540, Note_on_c, 5, 72, 0
7, 97540, Note_on_c, 5, 60, 0
7, 97920, Note_on_c, 5, 60, 60
7, 97920, Note_on_c, 5, 72, 60
7, 98020, Note_on_c, 5, 72, 0
7, 98020, Note_on_c, 5, 60, 0
7, 98400, Note_on_c, 5, 60, 60
7, 98400, Note_on_c, 5, 72, 60
7, 98500, Note_on_c, 5, 72, 0
7, 98500, Note_on_c, 5, 60, 0
7, 98880, Note_on_c, 5, 55, 60
7, 98880, Note_on_c, 5, 67, 60
7, 99810, Note_on_c, 5, 67, 0
7, 99810, Note_on_c, 5, 55, 0
7, 99840, Note_on_c, 5, 60, 60
7, 99840, Note_on_c, 5, 67, 60
7, 99940, Note_on_c, 5, 67, 0
7, 99940, Note_on_c, 5, 60, 0
7, 99960, Note_on_c, 5, 60, 92
7, 99960, Note_on_c, 5, 72, 92
7, 100170, Note_on_c, 5, 72, 0
7, 100170, Note_on_c, 5, 60, 0
7, 100200, Note_on_c, 5, 55, 92
7, 100200, Note_on_c, 5, 67, 92
7, 100300, Note_on_c, 5, 67, 0
7, 100300, Note_on_c, 5, 55, 0
7, 100320, Note_on_c, 5, 60, 92
7, 100320, Note_on_c, 5, 72, 92
7, 100420, Note_on_c, 5, 72, 0
7, 100420, Note_on_c, 5, 60, 0
7, 100440, Note_on_c, 5, 55, 92
7, 100440, Note_on_c, 5, 67, 92
7, 100540, Note_on_c, 5, 67, 0
7, 100540, Note_on_c, 5, 55, 0
7, 100560, Note_on_c, 5, 60, 92
7, 100560, Note_on_c, 5, 72, 92
7, 100660, Note_on_c, 5, 72, 0
7, 100660, Note_on_c, 5, 60, 0
7, 100680, Note_on_c, 5, 64, 92
7, 100680, Note_on_c, 5, 76, 92
7, 100780, Note_on_c, 5, 76, 0
7, 100780, Note_on_c, 5, 64, 0
7, 100800, Note_on_c, 5, 64, 92
7, 100800, Note_on_c, 5, 76, 92
7, 100900, Note_on_c, 5, 76, 0
7, 100900, Note_on_c, 5, 64, 0
7, 100920, Note_on_c, 5, 64, 92
7, 100920, Note_on_c, 5, 76, 92
7, 101130, Note_on_c, 5, 76, 0
7, 101130, Note_on_c, 5, 64, 0
7, 101160, Note_on_c, 5, 64, 92
7, 101160, Note_on_c, 5, 76, 92
7, 101260, Note_on_c, 5, 76, 0
7, 101260, Note_on_c, 5, 64, 0
7, 101280, Note_on_c, 5, 64, 92
7, 101280, Note_on_c, 5, 76, 92
7, 101380, Note_on_c, 5, 76, 0
7, 101380, Note_on_c, 5, 64, 0
7, 101400, Note_on_c, 5, 64, 92
7, 101400, Note_on_c, 5, 76, 92
7, 101500, Note_on_c, 5, 76, 0
7, 101500, Note_on_c, 5, 64, 0
7, 101520, Note_on_c, 5, 64, 92
7, 101520, Note_on_c, 5, 76, 92
7, 101620, Note_on_c, 5, 76, 0
7, 101620, Note_on_c, 5, 64, 0
7, 101640, Note_on_c, 5, 60, 92
7, 101640, Note_on_c, 5, 72, 92
7, 101740, Note_on_c, 5, 72, 0
7, 101740, Note_on_c, 5, 60, 0
7, 101760, Note_on_c, 5, 60, 92
7, 101760, Note_on_c, 5, 72, 92
7, 101860, Note_on_c, 5, 72, 0
7, 101860, Note_on_c, 5, 60, 0
7, 101880, Note_on_c, 5, 60, 92
7, 101880, Note_on_c, 5, 72, 92
7, 102090, Note_on_c, 5, 72, 0
7, 102090, Note_on_c, 5, 60, 0
7, 102120, Note_on_c, 5, 60, 92
7, 102120, Note_on_c, 5, 72, 92
7, 102220, Note_on_c, 5, 72, 0
7, 102220, Note_on_c, 5, 60, 0
7, 102240, Note_on_c, 5, 60, 92
7, 102240, Note_on_c, 5, 72, 92
7, 102340, Note_on_c, 5, 72, 0
7, 102340, Note_on_c, 5, 60, 0
7, 103440, Note_on_c, 5, 67, 92
7, 103440, Note_on_c, 5, 74, 92
7, 103650, Note_on_c, 5, 74, 0
7, 103650, Note_on_c, 5, 67, 0
7, 103680, Note_on_c, 5, 72, 92
7, 103680, Note_on_c, 5, 76, 92
7, 104130, Note_on_c, 5, 76, 0
7, 104160, Note_on_c, 5, 74, 92
7, 104370, Note_on_c, 5, 72, 0
7, 104400, Note_on_c, 5, 67, 92
7, 104610, Note_on_c, 5, 67, 0
7, 104610, Note_on_c, 5, 74, 0
7, 104640, Note_on_c, 5, 60, 92
7, 104640, Note_on_c, 5, 72, 92
7, 104740, Note_on_c, 5, 72, 0
7, 104740, Note_on_c, 5, 60, 0
7, 104760, Note_on_c, 5, 60, 92
7, 104760, Note_on_c, 5, 72, 92
7, 104970, Note_on_c, 5, 72, 0
7, 104970, Note_on_c, 5, 60, 0
7, 105000, Note_on_c, 5, 55, 92
7, 105000, Note_on_c, 5, 67, 92
7, 105100, Note_on_c, 5, 67, 0
7, 105100, Note_on_c, 5, 55, 0
7, 105120, Note_on_c, 5, 60, 92
7, 105120, Note_on_c, 5, 72, 92
7, 105220, Note_on_c, 5, 72, 0
7, 105220, Note_on_c, 5, 60, 0
7, 105240, Note_on_c, 5, 55, 92
7, 105240, Note_on_c, 5, 67, 92
7, 105340, Note_on_c, 5, 67, 0
7, 105340, Note_on_c, 5, 55, 0
7, 105360, Note_on_c, 5, 60, 92
7, 105360, Note_on_c, 5, 72, 92
7, 105460, Note_on_c, 5, 72, 0
7, 105460, Note_on_c, 5, 60, 0
7, 105480, Note_on_c, 5, 64, 92
7, 105480, Note_on_c, 5, 76, 92
7, 105580, Note_on_c, 5, 76, 0
7, 105580, Note_on_c, 5, 64, 0
7, 105600, Note_on_c, 5, 64, 92
7, 105600, Note_on_c, 5, 76, 92
7, 105700, Note_on_c, 5, 76, 0
7, 105700, Note_on_c, 5, 64, 0
7, 105720, Note_on_c, 5, 64, 92
7, 105720, Note_on_c, 5, 76, 92
7, 105930, Note_on_c, 5, 76, 0
7, 105930, Note_on_c, 5, 64, 0
7, 105960, Note_on_c, 5, 64, 92
7, 105960, Note_on_c, 5, 76, 92
7, 106060, Note_on_c, 5, 76, 0
7, 106060, Note_on_c, 5, 64, 0
7, 106080, Note_on_c, 5, 64, 92
7, 106080, Note_on_c, 5, 76, 92
7, 106180, Note_on_c, 5, 76, 0
7, 106180, Note_on_c, 5, 64, 0
7, 106200, Note_on_c, 5, 64, 92
7, 106200, Note_on_c, 5, 76, 92
7, 106300, Note_on_c, 5, 76, 0
7, 106300, Note_on_c, 5, 64, 0
7, 106320, Note_on_c, 5, 64, 92
7, 106320, Note_on_c, 5, 76, 92
7, 106420, Note_on_c, 5, 76, 0
7, 106420, Note_on_c, 5, 64, 0
7, 106440, Note_on_c, 5, 60, 92
7, 106440, Note_on_c, 5, 72, 92
7, 106540, Note_on_c, 5, 72, 0
7, 106540, Note_on_c, 5, 60, 0
7, 106560, Note_on_c, 5, 60, 92
7, 106560, Note_on_c, 5, 72, 92
7, 106660, Note_on_c, 5, 72, 0
7, 106660, Note_on_c, 5, 60, 0
7, 106680, Note_on_c, 5, 60, 92
7, 106680, Note_on_c, 5, 72, 92
7, 106890, Note_on_c, 5, 72, 0
7, 106890, Note_on_c, 5, 60, 0
7, 106920, Note_on_c, 5, 60, 92
7, 106920, Note_on_c, 5, 72, 92
7, 107020, Note_on_c, 5, 72, 0
7, 107020, Note_on_c, 5, 60, 0
7, 107040, Note_on_c, 5, 60, 92
7, 107040, Note_on_c, 5, 72, 92
7, 107140, Note_on_c, 5, 72, 0
7, 107140, Note_on_c, 5, 60, 0
7, 108240, Note_on_c, 5, 67, 92
7, 108240, Note_on_c, 5, 74, 92
7, 108450, Note_on_c, 5, 74, 0
7, 108450, Note_on_c, 5, 67, 0
7, 108480, Note_on_c, 5, 72, 92
7, 108480, Note_on_c, 5, 76, 92
7, 108580, Note_on_c, 5, 76, 0
7, 108580, Note_on_c, 5, 72, 0
7, 112800, Note_on_c, 5, 60, 92
7, 112800, Note_on_c, 5, 72, 92
7, 112900, Note_on_c, 5, 72, 0
7, 112900, Note_on_c, 5, 60, 0
7, 113280, Note_on_c, 5, 60, 92
7, 113280, Note_on_c, 5, 72, 92
7, 113380, Note_on_c, 5, 72, 0
7, 113380, Note_on_c, 5, 60, 0
7, 113760, Note_on_c, 5, 60, 92
7, 113760, Note_on_c, 5, 72, 92
7, 113860, Note_on_c, 5, 72, 0
7, 113860, Note_on_c, 5, 60, 0
7, 114240, Note_on_c, 5, 55, 92
7, 114240, Note_on_c, 5, 67, 92
7, 114340, Note_on_c, 5, 67, 0
7, 114340, Note_on_c, 5, 55, 0
7, 114720, Note_on_c, 5, 55, 92
7, 114720, Note_on_c, 5, 67, 92
7, 114820, Note_on_c, 5, 67, 0
7, 114820, Note_on_c, 5, 55, 0
7, 115200, Note_on_c, 5, 60, 92
7, 115200, Note_on_c, 5, 64, 92
7, 115300, Note_on_c, 5, 64, 0
7, 115300, Note_on_c, 5, 60, 0
7, 117120, Control_c, 5, 7, 32
7, 117120, Note_on_c, 5, 60, 60
7, 117120, Note_on_c, 5, 64, 60
7, 118560, Control_c, 5, 7, 48
7, 119040, Control_c, 5, 7, 64
7, 119520, Control_c, 5, 7, 80
7, 120000, Control_c, 5, 7, 96
7, 120930, Note_on_c, 5, 64, 0
7, 120930, Note_on_c, 5, 60, 0
7, 120960, Note_on_c, 5, 60, 108
7, 120960, Note_on_c, 5, 72, 108
7, 121060, Note_on_c, 5, 72, 0
7, 121060, Note_on_c, 5, 60, 0
7, 121080, Note_on_c, 5, 60, 108
7, 121080, Note_on_c, 5, 72, 108
7, 121290, Note_on_c, 5, 72, 0
7, 121290, Note_on_c, 5, 60, 0
7, 121320, Note_on_c, 5, 60, 108
7, 121320, Note_on_c, 5, 72, 108
7, 121420, Note_on_c, 5, 72, 0
7, 121420, Note_on_c, 5, 60, 0
7, 121440, Note_on_c, 5, 60, 108
7, 121440, Note_on_c, 5, 72, 108
7, 121540, Note_on_c, 5, 72, 0
7, 121540, Note_on_c, 5, 60, 0
7, 121560, Note_on_c, 5, 60, 108
7, 121560, Note_on_c, 5, 72, 108
7, 121660, Note_on_c, 5, 72, 0
7, 121660, Note_on_c, 5, 60, 0
7, 121680, Note_on_c, 5, 60, 108
7, 121680, Note_on_c, 5, 72, 108
7, 121780, Note_on_c, 5, 72, 0
7, 121780, Note_on_c, 5, 60, 0
7, 121800, Note_on_c, 5, 67, 108
7, 121800, Note_on_c, 5, 74, 108
7, 121900, Note_on_c, 5, 74, 0
7, 121900, Note_on_c, 5, 67, 0
7, 121920, Note_on_c, 5, 60, 108
7, 121920, Note_on_c, 5, 72, 108
7, 122020, Note_on_c, 5, 72, 0
7, 122020, Note_on_c, 5, 60, 0
7, 122040, Note_on_c, 5, 60, 108
7, 122040, Note_on_c, 5, 72, 108
7, 122250, Note_on_c, 5, 72, 0
7, 122250, Note_on_c, 5, 60, 0
7, 122280, Note_on_c, 5, 60, 108
7, 122280, Note_on_c, 5, 72, 108
7, 122380, Note_on_c, 5, 72, 0
7, 122380, Note_on_c, 5, 60, 0
7, 122400, Note_on_c, 5, 60, 108
7, 122400, Note_on_c, 5, 72, 108
7, 122500, Note_on_c, 5, 72, 0
7, 122500, Note_on_c, 5, 60, 0
7, 122520, Note_on_c, 5, 60, 108
7, 122520, Note_on_c, 5, 72, 108
7, 122620, Note_on_c, 5, 72, 0
7, 122620, Note_on_c, 5, 60, 0
7, 122640, Note_on_c, 5, 60, 108
7, 122640, Note_on_c, 5, 72, 108
7, 122740, Note_on_c, 5, 72, 0
7, 122740, Note_on_c, 5, 60, 0
7, 122760, Note_on_c, 5, 67, 108
7, 122760, Note_on_c, 5, 74, 108
7, 122860, Note_on_c, 5, 74, 0
7, 122860, Note_on_c, 5, 67, 0
7, 122880, Note_on_c, 5, 60, 108
7, 122880, Note_on_c, 5, 72, 108
7, 122980, Note_on_c, 5, 72, 0
7, 122980, Note_on_c, 5, 60, 0
7, 123000, Note_on_c, 5, 55, 108
7, 123000, Note_on_c, 5, 67, 108
7, 123100, Note_on_c, 5, 67, 0
7, 123100, Note_on_c, 5, 55, 0
7, 123120, Note_on_c, 5, 60, 108
7, 123120, Note_on_c, 5, 72, 108
7, 123220, Note_on_c, 5, 72, 0
7, 123220, Note_on_c, 5, 60, 0
7, 123240, Note_on_c, 5, 55, 108
7, 123240, Note_on_c, 5, 67, 108
7, 123340, Note_on_c, 5, 67, 0
7, 123340, Note_on_c, 5, 55, 0
7, 123360, Note_on_c, 5, 60, 108
7, 123360, Note_on_c, 5, 72, 108
7, 123460, Note_on_c, 5, 72, 0
7, 123460, Note_on_c, 5, 60, 0
7, 123480, Note_on_c, 5, 55, 108
7, 123480, Note_on_c, 5, 67, 108
7, 123580, Note_on_c, 5, 67, 0
7, 123580, Note_on_c, 5, 55, 0
7, 123600, Note_on_c, 5, 60, 108
7, 123600, Note_on_c, 5, 72, 108
7, 123700, Note_on_c, 5, 72, 0
7, 123700, Note_on_c, 5, 60, 0
7, 123720, Note_on_c, 5, 55, 108
7, 123720, Note_on_c, 5, 67, 108
7, 123820, Note_on_c, 5, 67, 0
7, 123820, Note_on_c, 5, 55, 0
7, 123840, Note_on_c, 5, 60, 108
7, 123840, Note_on_c, 5, 72, 108
7, 123940, Note_on_c, 5, 72, 0
7, 123940, Note_on_c, 5, 60, 0
7, 124320, Note_on_c, 5, 60, 108
7, 124320, Note_on_c, 5, 64, 108
7, 124420, Note_on_c, 5, 64, 0
7, 124420, Note_on_c, 5, 60, 0
7, 124560, Note_on_c, 5, 60, 108
7, 124560, Note_on_c, 5, 64, 108
7, 124660, Note_on_c, 5, 64, 0
7, 124660, Note_on_c, 5, 60, 0
7, 124800, Note_on_c, 5, 60, 108
7, 124800, Note_on_c, 5, 64, 108
7, 125010, Note_on_c, 5, 64, 0
7, 125010, Note_on_c, 5, 60, 0
7, 125010, End_track
8, 0, Start_track
8, 0, MIDI_port, 0
8, 0, Title_t, "Timpani (C,G)"
8, 0, Program_c, 6, 47
8, 0, Control_c, 6, 7, 127
8, 0, Control_c, 6, 10, 64
8, 0, Note_on_c, 6, 48, 92
8, 100, Note_on_c, 6, 48, 0
8, 210, Note_on_c, 6, 48, 92
8, 238, Note_on_c, 6, 48, 0
8, 240, Note_on_c, 6, 48, 92
8, 340, Note_on_c, 6, 48, 0
8, 1890, Note_on_c, 6, 43, 92
8, 1918, Note_on_c, 6, 43, 0
8, 1920, Note_on_c, 6, 43, 92
8, 2020, Note_on_c, 6, 43, 0
8, 2130, Note_on_c, 6, 43, 92
8, 2158, Note_on_c, 6, 43, 0
8, 2160, Note_on_c, 6, 43, 92
8, 2260, Note_on_c, 6, 43, 0
8, 5520, Note_on_c, 6, 48, 92
8, 5620, Note_on_c, 6, 48, 0
8, 5760, Note_on_c, 6, 48, 92
8, 5860, Note_on_c, 6, 48, 0
8, 6000, Note_on_c, 6, 48, 92
8, 6100, Note_on_c, 6, 48, 0
8, 6240, Note_on_c, 6, 43, 92
8, 6340, Note_on_c, 6, 43, 0
8, 6480, Note_on_c, 6, 43, 92
8, 6580, Note_on_c, 6, 43, 0
8, 6720, Note_on_c, 6, 48, 92
8, 6820, Note_on_c, 6, 48, 0
8, 11520, Note_on_c, 6, 48, 92
8, 11730, Note_on_c, 6, 48, 0
8, 11760, Note_on_c, 6, 48, 92
8, 11920, Note_on_c, 6, 48, 0
8, 11940, Note_on_c, 6, 48, 92
8, 11998, Note_on_c, 6, 48, 0
8, 12000, Note_on_c, 6, 48, 92
8, 12210, Note_on_c, 6, 48, 0
8, 12240, Note_on_c, 6, 48, 92
8, 12450, Note_on_c, 6, 48, 0
8, 12480, Note_on_c, 6, 48, 92
8, 12690, Note_on_c, 6, 48, 0
8, 12720, Note_on_c, 6, 48, 92
8, 12880, Note_on_c, 6, 48, 0
8, 12900, Note_on_c, 6, 48, 92
8, 12958, Note_on_c, 6, 48, 0
8, 12960, Note_on_c, 6, 48, 92
8, 13170, Note_on_c, 6, 48, 0
8, 13200, Note_on_c, 6, 48, 92
8, 13410, Note_on_c, 6, 48, 0
8, 13440, Note_on_c, 6, 48, 92
8, 13540, Note_on_c, 6, 48, 0
8, 20160, Note_on_c, 6, 43, 45
8, 20190, Note_on_c, 6, 43, 0
8, 20190, Note_on_c, 6, 43, 45
8, 20220, Note_on_c, 6, 43, 0
8, 20220, Note_on_c, 6, 43, 45
8, 20250, Note_on_c, 6, 43, 0
8, 20250, Note_on_c, 6, 43, 45
8, 20280, Note_on_c, 6, 43, 0
8, 20280, Note_on_c, 6, 43, 45
8, 20310, Note_on_c, 6, 43, 0
8, 20310, Note_on_c, 6, 43, 45
8, 20340, Note_on_c, 6, 43, 0
8, 20340, Note_on_c, 6, 43, 45
8, 20370, Note_on_c, 6, 43, 0
8, 20370, Note_on_c, 6, 43, 45
8, 20400, Note_on_c, 6, 43, 0
8, 20400, Note_on_c, 6, 43, 45
8, 20430, Note_on_c, 6, 43, 0
8, 20430, Note_on_c, 6, 43, 45
8, 20460, Note_on_c, 6, 43, 0
8, 20460, Note_on_c, 6, 43, 45
8, 20490, Note_on_c, 6, 43, 0
8, 20490, Note_on_c, 6, 43, 45
8, 20520, Note_on_c, 6, 43, 0
8, 20520, Note_on_c, 6, 43, 45
8, 20550, Note_on_c, 6, 43, 0
8, 20550, Note_on_c, 6, 43, 45
8, 20580, Note_on_c, 6, 43, 0
8, 20580, Note_on_c, 6, 43, 45
8, 20610, Note_on_c, 6, 43, 0
8, 20610, Note_on_c, 6, 43, 45
8, 20640, Note_on_c, 6, 43, 0
8, 20640, Note_on_c, 6, 43, 45
8, 20670, Note_on_c, 6, 43, 0
8, 20670, Note_on_c, 6, 43, 45
8, 20700, Note_on_c, 6, 43, 0
8, 20700, Note_on_c, 6, 43, 45
8, 20730, Note_on_c, 6, 43, 0
8, 20730, Note_on_c, 6, 43, 45
8, 20760, Note_on_c, 6, 43, 0
8, 20760, Note_on_c, 6, 43, 45
8, 20790, Note_on_c, 6, 43, 0
8, 20790, Note_on_c, 6, 43, 45
8, 20820, Note_on_c, 6, 43, 0
8, 20820, Note_on_c, 6, 43, 45
8, 20850, Note_on_c, 6, 43, 0
8, 20850, Note_on_c, 6, 43, 45
8, 20880, Note_on_c, 6, 43, 0
8, 20880, Note_on_c, 6, 43, 45
8, 20910, Note_on_c, 6, 43, 0
8, 20910, Note_on_c, 6, 43, 45
8, 20940, Note_on_c, 6, 43, 0
8, 20940, Note_on_c, 6, 43, 45
8, 20970, Note_on_c, 6, 43, 0
8, 20970, Note_on_c, 6, 43, 45
8, 21000, Note_on_c, 6, 43, 0
8, 21000, Note_on_c, 6, 43, 45
8, 21030, Note_on_c, 6, 43, 0
8, 21030, Note_on_c, 6, 43, 45
8, 21060, Note_on_c, 6, 43, 0
8, 21060, Note_on_c, 6, 43, 45
8, 21090, Note_on_c, 6, 43, 0
8, 21090, Note_on_c, 6, 43, 45
8, 21118, Note_on_c, 6, 43, 0
8, 21120, Note_on_c, 6, 48, 45
8, 21220, Note_on_c, 6, 48, 0
8, 34560, Note_on_c, 6, 43, 92
8, 34770, Note_on_c, 6, 43, 0
8, 35040, Note_on_c, 6, 43, 92
8, 35250, Note_on_c, 6, 43, 0
8, 36000, Note_on_c, 6, 43, 92
8, 36210, Note_on_c, 6, 43, 0
8, 36480, Note_on_c, 6, 43, 92
8, 36690, Note_on_c, 6, 43, 0
8, 62400, Note_on_c, 6, 43, 92
8, 62610, Note_on_c, 6, 43, 0
8, 62640, Note_on_c, 6, 43, 92
8, 62800, Note_on_c, 6, 43, 0
8, 62820, Note_on_c, 6, 43, 92
8, 62878, Note_on_c, 6, 43, 0
8, 62880, Note_on_c, 6, 43, 92
8, 63090, Note_on_c, 6, 43, 0
8, 63120, Note_on_c, 6, 43, 92
8, 63280, Note_on_c, 6, 43, 0
8, 63300, Note_on_c, 6, 43, 92
8, 63358, Note_on_c, 6, 43, 0
8, 63360, Note_on_c, 6, 43, 92
8, 63460, Note_on_c, 6, 43, 0
8, 66240, Note_on_c, 6, 48, 92
8, 66450, Note_on_c, 6, 48, 0
8, 66480, Note_on_c, 6, 48, 92
8, 66640, Note_on_c, 6, 48, 0
8, 66660, Note_on_c, 6, 48, 92
8, 66718, Note_on_c, 6, 48, 0
8, 66720, Note_on_c, 6, 48, 92
8, 66930, Note_on_c, 6, 48, 0
8, 66960, Note_on_c, 6, 48, 92
8, 67120, Note_on_c, 6, 48, 0
8, 67140, Note_on_c, 6, 48, 92
8, 67198, Note_on_c, 6, 48, 0
8, 67200, Note_on_c, 6, 48, 92
8, 67300, Note_on_c, 6, 48, 0
8, 78720, Note_on_c, 6, 48, 92
8, 78930, Note_on_c, 6, 48, 0
8, 78960, Note_on_c, 6, 48, 92
8, 79120, Note_on_c, 6, 48, 0
8, 79140, Note_on_c, 6, 48, 92
8, 79198, Note_on_c, 6, 48, 0
8, 79200, Note_on_c, 6, 48, 92
8, 79300, Note_on_c, 6, 48, 0
8, 80520, Note_on_c, 6, 43, 92
8, 80620, Note_on_c, 6, 43, 0
8, 80640, Note_on_c, 6, 48, 92
8, 80850, Note_on_c, 6, 48, 0
8, 80880, Note_on_c, 6, 43, 92
8, 81090, Note_on_c, 6, 43, 0
8, 81120, Note_on_c, 6, 48, 92
8, 81220, Note_on_c, 6, 48, 0
8, 82560, Note_on_c, 6, 48, 60
8, 82588, Note_on_c, 6, 48, 0
8, 82590, Note_on_c, 6, 48, 60
8, 82618, Note_on_c, 6, 48, 0
8, 82620, Note_on_c, 6, 48, 60
8, 82648, Note_on_c, 6, 48, 0
8, 82650, Note_on_c, 6, 48, 60
8, 82678, Note_on_c, 6, 48, 0
8, 82680, Note_on_c, 6, 48, 60
8, 82708, Note_on_c, 6, 48, 0
8, 82710, Note_on_c, 6, 48, 60
8, 82738, Note_on_c, 6, 48, 0
8, 82740, Note_on_c, 6, 48, 60
8, 82768, Note_on_c, 6, 48, 0
8, 82770, Note_on_c, 6, 48, 60
8, 82798, Note_on_c, 6, 48, 0
8, 82800, Note_on_c, 6, 48, 60
8, 82828, Note_on_c, 6, 48, 0
8, 82830, Note_on_c, 6, 48, 60
8, 82858, Note_on_c, 6, 48, 0
8, 82860, Note_on_c, 6, 48, 60
8, 82888, Note_on_c, 6, 48, 0
8, 82890, Note_on_c, 6, 48, 60
8, 82918, Note_on_c, 6, 48, 0
8, 82920, Note_on_c, 6, 48, 60
8, 82948, Note_on_c, 6, 48, 0
8, 82950, Note_on_c, 6, 48, 60
8, 82978, Note_on_c, 6, 48, 0
8, 82980, Note_on_c, 6, 48, 60
8, 83008, Note_on_c, 6, 48, 0
8, 83010, Note_on_c, 6, 48, 60
8, 83038, Note_on_c, 6, 48, 0
8, 83040, Note_on_c, 6, 48, 60
8, 83068, Note_on_c, 6, 48, 0
8, 83070, Note_on_c, 6, 48, 60
8, 83098, Note_on_c, 6, 48, 0
8, 83100, Note_on_c, 6, 48, 60
8, 83128, Note_on_c, 6, 48, 0
8, 83130, Note_on_c, 6, 48, 60
8, 83158, Note_on_c, 6, 48, 0
8, 83160, Note_on_c, 6, 48, 60
8, 83188, Note_on_c, 6, 48, 0
8, 83190, Note_on_c, 6, 48, 60
8, 83218, Note_on_c, 6, 48, 0
8, 83220, Note_on_c, 6, 48, 60
8, 83248, Note_on_c, 6, 48, 0
8, 83250, Note_on_c, 6, 48, 60
8, 83278, Note_on_c, 6, 48, 0
8, 83280, Note_on_c, 6, 48, 60
8, 83308, Note_on_c, 6, 48, 0
8, 83310, Note_on_c, 6, 48, 60
8, 83338, Note_on_c, 6, 48, 0
8, 83340, Note_on_c, 6, 48, 60
8, 83368, Note_on_c, 6, 48, 0
8, 83370, Note_on_c, 6, 48, 60
8, 83398, Note_on_c, 6, 48, 0
8, 83400, Note_on_c, 6, 48, 60
8, 83428, Note_on_c, 6, 48, 0
8, 83430, Note_on_c, 6, 48, 60
8, 83458, Note_on_c, 6, 48, 0
8, 83460, Note_on_c, 6, 48, 60
8, 83488, Note_on_c, 6, 48, 0
8, 83490, Note_on_c, 6, 48, 60
8, 83518, Note_on_c, 6, 48, 0
8, 83520, Note_on_c, 6, 43, 60
8, 83620, Note_on_c, 6, 43, 0
8, 90240, Note_on_c, 6, 48, 92
8, 90450, Note_on_c, 6, 48, 0
8, 90480, Note_on_c, 6, 48, 92
8, 90640, Note_on_c, 6, 48, 0
8, 90660, Note_on_c, 6, 48, 92
8, 90718, Note_on_c, 6, 48, 0
8, 90720, Note_on_c, 6, 48, 92
8, 90930, Note_on_c, 6, 48, 0
8, 90960, Note_on_c, 6, 48, 92
8, 91170, Note_on_c, 6, 48, 0
8, 91200, Note_on_c, 6, 48, 92
8, 91410, Note_on_c, 6, 48, 0
8, 91440, Note_on_c, 6, 48, 92
8, 91600, Note_on_c, 6, 48, 0
8, 91620, Note_on_c, 6, 48, 92
8, 91678, Note_on_c, 6, 48, 0
8, 91680, Note_on_c, 6, 48, 92
8, 91890, Note_on_c, 6, 48, 0
8, 91920, Note_on_c, 6, 48, 92
8, 92130, Note_on_c, 6, 48, 0
8, 92160, Note_on_c, 6, 48, 92
8, 92260, Note_on_c, 6, 48, 0
8, 96000, Note_on_c, 6, 48, 45
8, 96100, Note_on_c, 6, 48, 0
8, 96480, Note_on_c, 6, 48, 45
8, 96580, Note_on_c, 6, 48, 0
8, 96960, Note_on_c, 6, 48, 45
8, 97060, Note_on_c, 6, 48, 0
8, 97440, Note_on_c, 6, 48, 45
8, 97540, Note_on_c, 6, 48, 0
8, 97920, Note_on_c, 6, 48, 45
8, 98020, Note_on_c, 6, 48, 0
8, 98400, Note_on_c, 6, 48, 45
8, 98500, Note_on_c, 6, 48, 0
8, 98880, Note_on_c, 6, 43, 45
8, 98908, Note_on_c, 6, 43, 0
8, 98910, Note_on_c, 6, 43, 45
8, 98938, Note_on_c, 6, 43, 0
8, 98940, Note_on_c, 6, 43, 45
8, 98968, Note_on_c, 6, 43, 0
8, 98970, Note_on_c, 6, 43, 45
8, 98998, Note_on_c, 6, 43, 0
8, 99000, Note_on_c, 6, 43, 45
8, 99028, Note_on_c, 6, 43, 0
8, 99030, Note_on_c, 6, 43, 45
8, 99058, Note_on_c, 6, 43, 0
8, 99060, Note_on_c, 6, 43, 45
8, 99088, Note_on_c, 6, 43, 0
8, 99090, Note_on_c, 6, 43, 45
8, 99118, Note_on_c, 6, 43, 0
8, 99120, Note_on_c, 6, 43, 45
8, 99148, Note_on_c, 6, 43, 0
8, 99150, Note_on_c, 6, 43, 45
8, 99178, Note_on_c, 6, 43, 0
8, 99180, Note_on_c, 6, 43, 45
8, 99208, Note_on_c, 6, 43, 0
8, 99210, Note_on_c, 6, 43, 45
8, 99238, Note_on_c, 6, 43, 0
8, 99240, Note_on_c, 6, 43, 45
8, 99268, Note_on_c, 6, 43, 0
8, 99270, Note_on_c, 6, 43, 45
8, 99298, Note_on_c, 6, 43, 0
8, 99300, Note_on_c, 6, 43, 45
8, 99328, Note_on_c, 6, 43, 0
8, 99330, Note_on_c, 6, 43, 45
8, 99358, Note_on_c, 6, 43, 0
8, 99360, Note_on_c, 6, 43, 45
8, 99388, Note_on_c, 6, 43, 0
8, 99390, Note_on_c, 6, 43, 45
8, 99418, Note_on_c, 6, 43, 0
8, 99420, Note_on_c, 6, 43, 45
8, 99448, Note_on_c, 6, 43, 0
8, 99450, Note_on_c, 6, 43, 45
8, 99478, Note_on_c, 6, 43, 0
8, 99480, Note_on_c, 6, 43, 45
8, 99508, Note_on_c, 6, 43, 0
8, 99510, Note_on_c, 6, 43, 45
8, 99538, Note_on_c, 6, 43, 0
8, 99540, Note_on_c, 6, 43, 45
8, 99568, Note_on_c, 6, 43, 0
8, 99570, Note_on_c, 6, 43, 45
8, 99598, Note_on_c, 6, 43, 0
8, 99600, Note_on_c, 6, 43, 45
8, 99628, Note_on_c, 6, 43, 0
8, 99630, Note_on_c, 6, 43, 45
8, 99658, Note_on_c, 6, 43, 0
8, 99660, Note_on_c, 6, 43, 45
8, 99688, Note_on_c, 6, 43, 0
8, 99690, Note_on_c, 6, 43, 45
8, 99718, Note_on_c, 6, 43, 0
8, 99720, Note_on_c, 6, 43, 45
8, 99748, Note_on_c, 6, 43, 0
8, 99750, Note_on_c, 6, 43, 45
8, 99778, Note_on_c, 6, 43, 0
8, 99780, Note_on_c, 6, 43, 45
8, 99808, Note_on_c, 6, 43, 0
8, 99810, Note_on_c, 6, 43, 45
8, 99838, Note_on_c, 6, 43, 0
8, 99840, Note_on_c, 6, 48, 45
8, 99940, Note_on_c, 6, 48, 0
8, 100080, Note_on_c, 6, 43, 92
8, 100240, Note_on_c, 6, 43, 0
8, 100260, Note_on_c, 6, 43, 92
8, 100318, Note_on_c, 6, 43, 0
8, 100320, Note_on_c, 6, 48, 92
8, 100420, Note_on_c, 6, 48, 0
8, 100440, Note_on_c, 6, 43, 92
8, 100540, Note_on_c, 6, 43, 0
8, 100560, Note_on_c, 6, 48, 92
8, 100660, Note_on_c, 6, 48, 0
8, 101640, Note_on_c, 6, 48, 92
8, 101740, Note_on_c, 6, 48, 0
8, 101760, Note_on_c, 6, 48, 92
8, 101970, Note_on_c, 6, 48, 0
8, 102000, Note_on_c, 6, 48, 92
8, 102160, Note_on_c, 6, 48, 0
8, 102180, Note_on_c, 6, 48, 92
8, 102238, Note_on_c, 6, 48, 0
8, 102240, Note_on_c, 6, 48, 92
8, 102340, Note_on_c, 6, 48, 0
8, 103440, Note_on_c, 6, 43, 92
8, 103540, Note_on_c, 6, 43, 0
8, 103680, Note_on_c, 6, 48, 92
8, 103780, Note_on_c, 6, 48, 0
8, 103920, Note_on_c, 6, 48, 92
8, 104080, Note_on_c, 6, 48, 0
8, 104100, Note_on_c, 6, 48, 92
8, 104158, Note_on_c, 6, 48, 0
8, 104160, Note_on_c, 6, 48, 92
8, 104260, Note_on_c, 6, 48, 0
8, 104400, Note_on_c, 6, 43, 92
8, 104500, Note_on_c, 6, 43, 0
8, 104640, Note_on_c, 6, 48, 92
8, 104740, Note_on_c, 6, 48, 0
8, 104880, Note_on_c, 6, 43, 92
8, 105040, Note_on_c, 6, 43, 0
8, 105060, Note_on_c, 6, 43, 92
8, 105118, Note_on_c, 6, 43, 0
8, 105120, Note_on_c, 6, 48, 92
8, 105220, Note_on_c, 6, 48, 0
8, 105240, Note_on_c, 6, 43, 92
8, 105340, Note_on_c, 6, 43, 0
8, 105360, Note_on_c, 6, 48, 92
8, 105460, Note_on_c, 6, 48, 0
8, 106440, Note_on_c, 6, 48, 92
8, 106540, Note_on_c, 6, 48, 0
8, 106560, Note_on_c, 6, 48, 92
8, 106770, Note_on_c, 6, 48, 0
8, 106800, Note_on_c, 6, 48, 92
8, 106960, Note_on_c, 6, 48, 0
8, 106980, Note_on_c, 6, 48, 92
8, 107038, Note_on_c, 6, 48, 0
8, 107040, Note_on_c, 6, 48, 92
8, 107140, Note_on_c, 6, 48, 0
8, 108240, Note_on_c, 6, 43, 92
8, 108400, Note_on_c, 6, 43, 0
8, 108420, Note_on_c, 6, 43, 92
8, 108478, Note_on_c, 6, 43, 0
8, 108480, Note_on_c, 6, 48, 92
8, 108580, Note_on_c, 6, 48, 0
8, 112800, Note_on_c, 6, 48, 92
8, 112900, Note_on_c, 6, 48, 0
8, 113280, Note_on_c, 6, 48, 92
8, 113380, Note_on_c, 6, 48, 0
8, 113760, Note_on_c, 6, 48, 92
8, 113860, Note_on_c, 6, 48, 0
8, 114240, Note_on_c, 6, 43, 92
8, 114340, Note_on_c, 6, 43, 0
8, 114720, Note_on_c, 6, 43, 92
8, 114820, Note_on_c, 6, 43, 0
8, 115200, Note_on_c, 6, 48, 92
8, 115300, Note_on_c, 6, 48, 0
8, 117120, Note_on_c, 6, 48, 45
8, 117148, Note_on_c, 6, 48, 0
8, 117150, Note_on_c, 6, 48, 45
8, 117178, Note_on_c, 6, 48, 0
8, 117180, Note_on_c, 6, 48, 45
8, 117208, Note_on_c, 6, 48, 0
8, 117210, Note_on_c, 6, 48, 45
8, 117238, Note_on_c, 6, 48, 0
8, 117240, Note_on_c, 6, 48, 45
8, 117268, Note_on_c, 6, 48, 0
8, 117270, Note_on_c, 6, 48, 45
8, 117298, Note_on_c, 6, 48, 0
8, 117300, Note_on_c, 6, 48, 45
8, 117328, Note_on_c, 6, 48, 0
8, 117330, Note_on_c, 6, 48, 45
8, 117358, Note_on_c, 6, 48, 0
8, 117360, Note_on_c, 6, 48, 45
8, 117388, Note_on_c, 6, 48, 0
8, 117390, Note_on_c, 6, 48, 45
8, 117418, Note_on_c, 6, 48, 0
8, 117420, Note_on_c, 6, 48, 45
8, 117448, Note_on_c, 6, 48, 0
8, 117450, Note_on_c, 6, 48, 45
8, 117478, Note_on_c, 6, 48, 0
8, 117480, Note_on_c, 6, 48, 45
8, 117508, Note_on_c, 6, 48, 0
8, 117510, Note_on_c, 6, 48, 45
8, 117538, Note_on_c, 6, 48, 0
8, 117540, Note_on_c, 6, 48, 45
8, 117568, Note_on_c, 6, 48, 0
8, 117570, Note_on_c, 6, 48, 45
8, 117598, Note_on_c, 6, 48, 0
8, 117600, Note_on_c, 6, 48, 45
8, 117628, Note_on_c, 6, 48, 0
8, 117630, Note_on_c, 6, 48, 45
8, 117658, Note_on_c, 6, 48, 0
8, 117660, Note_on_c, 6, 48, 45
8, 117688, Note_on_c, 6, 48, 0
8, 117690, Note_on_c, 6, 48, 45
8, 117718, Note_on_c, 6, 48, 0
8, 117720, Note_on_c, 6, 48, 45
8, 117748, Note_on_c, 6, 48, 0
8, 117750, Note_on_c, 6, 48, 45
8, 117778, Note_on_c, 6, 48, 0
8, 117780, Note_on_c, 6, 48, 45
8, 117808, Note_on_c, 6, 48, 0
8, 117810, Note_on_c, 6, 48, 45
8, 117838, Note_on_c, 6, 48, 0
8, 117840, Note_on_c, 6, 48, 45
8, 117868, Note_on_c, 6, 48, 0
8, 117870, Note_on_c, 6, 48, 45
8, 117898, Note_on_c, 6, 48, 0
8, 117900, Note_on_c, 6, 48, 45
8, 117928, Note_on_c, 6, 48, 0
8, 117930, Note_on_c, 6, 48, 45
8, 117958, Note_on_c, 6, 48, 0
8, 117960, Note_on_c, 6, 48, 45
8, 117988, Note_on_c, 6, 48, 0
8, 117990, Note_on_c, 6, 48, 45
8, 118018, Note_on_c, 6, 48, 0
8, 118020, Note_on_c, 6, 48, 45
8, 118048, Note_on_c, 6, 48, 0
8, 118050, Note_on_c, 6, 48, 45
8, 118078, Note_on_c, 6, 48, 0
8, 118080, Note_on_c, 6, 48, 45
8, 118108, Note_on_c, 6, 48, 0
8, 118110, Note_on_c, 6, 48, 45
8, 118138, Note_on_c, 6, 48, 0
8, 118140, Note_on_c, 6, 48, 45
8, 118168, Note_on_c, 6, 48, 0
8, 118170, Note_on_c, 6, 48, 45
8, 118198, Note_on_c, 6, 48, 0
8, 118200, Note_on_c, 6, 48, 45
8, 118228, Note_on_c, 6, 48, 0
8, 118230, Note_on_c, 6, 48, 45
8, 118258, Note_on_c, 6, 48, 0
8, 118260, Note_on_c, 6, 48, 45
8, 118288, Note_on_c, 6, 48, 0
8, 118290, Note_on_c, 6, 48, 45
8, 118318, Note_on_c, 6, 48, 0
8, 118320, Note_on_c, 6, 48, 45
8, 118348, Note_on_c, 6, 48, 0
8, 118350, Note_on_c, 6, 48, 45
8, 118378, Note_on_c, 6, 48, 0
8, 118380, Note_on_c, 6, 48, 45
8, 118408, Note_on_c, 6, 48, 0
8, 118410, Note_on_c, 6, 48, 45
8, 118438, Note_on_c, 6, 48, 0
8, 118440, Note_on_c, 6, 48, 45
8, 118468, Note_on_c, 6, 48, 0
8, 118470, Note_on_c, 6, 48, 45
8, 118498, Note_on_c, 6, 48, 0
8, 118500, Note_on_c, 6, 48, 45
8, 118528, Note_on_c, 6, 48, 0
8, 118530, Note_on_c, 6, 48, 45
8, 118558, Note_on_c, 6, 48, 0
8, 118560, Note_on_c, 6, 48, 45
8, 118588, Note_on_c, 6, 48, 0
8, 118590, Note_on_c, 6, 48, 45
8, 118618, Note_on_c, 6, 48, 0
8, 118620, Note_on_c, 6, 48, 45
8, 118648, Note_on_c, 6, 48, 0
8, 118650, Note_on_c, 6, 48, 46
8, 118678, Note_on_c, 6, 48, 0
8, 118680, Note_on_c, 6, 48, 47
8, 118708, Note_on_c, 6, 48, 0
8, 118710, Note_on_c, 6, 48, 48
8, 118738, Note_on_c, 6, 48, 0
8, 118740, Note_on_c, 6, 48, 49
8, 118768, Note_on_c, 6, 48, 0
8, 118770, Note_on_c, 6, 48, 50
8, 118798, Note_on_c, 6, 48, 0
8, 118800, Note_on_c, 6, 48, 51
8, 118828, Note_on_c, 6, 48, 0
8, 118830, Note_on_c, 6, 48, 52
8, 118858, Note_on_c, 6, 48, 0
8, 118860, Note_on_c, 6, 48, 53
8, 118888, Note_on_c, 6, 48, 0
8, 118890, Note_on_c, 6, 48, 54
8, 118918, Note_on_c, 6, 48, 0
8, 118920, Note_on_c, 6, 48, 55
8, 118948, Note_on_c, 6, 48, 0
8, 118950, Note_on_c, 6, 48, 56
8, 118978, Note_on_c, 6, 48, 0
8, 118980, Note_on_c, 6, 48, 57
8, 119008, Note_on_c, 6, 48, 0
8, 119010, Note_on_c, 6, 48, 58
8, 119038, Note_on_c, 6, 48, 0
8, 119040, Note_on_c, 6, 48, 59
8, 119068, Note_on_c, 6, 48, 0
8, 119070, Note_on_c, 6, 48, 60
8, 119098, Note_on_c, 6, 48, 0
8, 119100, Note_on_c, 6, 48, 61
8, 119128, Note_on_c, 6, 48, 0
8, 119130, Note_on_c, 6, 48, 62
8, 119158, Note_on_c, 6, 48, 0
8, 119160, Note_on_c, 6, 48, 63
8, 119188, Note_on_c, 6, 48, 0
8, 119190, Note_on_c, 6, 48, 64
8, 119218, Note_on_c, 6, 48, 0
8, 119220, Note_on_c, 6, 48, 65
8, 119248, Note_on_c, 6, 48, 0
8, 119250, Note_on_c, 6, 48, 66
8, 119278, Note_on_c, 6, 48, 0
8, 119280, Note_on_c, 6, 48, 67
8, 119308, Note_on_c, 6, 48, 0
8, 119310, Note_on_c, 6, 48, 68
8, 119338, Note_on_c, 6, 48, 0
8, 119340, Note_on_c, 6, 48, 69
8, 119368, Note_on_c, 6, 48, 0
8, 119370, Note_on_c, 6, 48, 70
8, 119398, Note_on_c, 6, 48, 0
8, 119400, Note_on_c, 6, 48, 71
8, 119428, Note_on_c, 6, 48, 0
8, 119430, Note_on_c, 6, 48, 72
8, 119458, Note_on_c, 6, 48, 0
8, 119460, Note_on_c, 6, 48, 73
8, 119488, Note_on_c, 6, 48, 0
8, 119490, Note_on_c, 6, 48, 74
8, 119518, Note_on_c, 6, 48, 0
8, 119520, Note_on_c, 6, 48, 75
8, 119548, Note_on_c, 6, 48, 0
8, 119550, Note_on_c, 6, 48, 76
8, 119578, Note_on_c, 6, 48, 0
8, 119580, Note_on_c, 6, 48, 77
8, 119608, Note_on_c, 6, 48, 0
8, 119610, Note_on_c, 6, 48, 78
8, 119638, Note_on_c, 6, 48, 0
8, 119640, Note_on_c, 6, 48, 79
8, 119668, Note_on_c, 6, 48, 0
8, 119670, Note_on_c, 6, 48, 80
8, 119698, Note_on_c, 6, 48, 0
8, 119700, Note_on_c, 6, 48, 81
8, 119728, Note_on_c, 6, 48, 0
8, 119730, Note_on_c, 6, 48, 82
8, 119758, Note_on_c, 6, 48, 0
8, 119760, Note_on_c, 6, 48, 83
8, 119788, Note_on_c, 6, 48, 0
8, 119790, Note_on_c, 6, 48, 84
8, 119818, Note_on_c, 6, 48, 0
8, 119820, Note_on_c, 6, 48, 85
8, 119848, Note_on_c, 6, 48, 0
8, 119850, Note_on_c, 6, 48, 86
8, 119878, Note_on_c, 6, 48, 0
8, 119880, Note_on_c, 6, 48, 87
8, 119908, Note_on_c, 6, 48, 0
8, 119910, Note_on_c, 6, 48, 88
8, 119938, Note_on_c, 6, 48, 0
8, 119940, Note_on_c, 6, 48, 89
8, 119968, Note_on_c, 6, 48, 0
8, 119970, Note_on_c, 6, 48, 90
8, 119998, Note_on_c, 6, 48, 0
8, 120000, Note_on_c, 6, 48, 92
8, 120028, Note_on_c, 6, 48, 0
8, 120030, Note_on_c, 6, 48, 92
8, 120058, Note_on_c, 6, 48, 0
8, 120060, Note_on_c, 6, 48, 92
8, 120088, Note_on_c, 6, 48, 0
8, 120090, Note_on_c, 6, 48, 92
8, 120118, Note_on_c, 6, 48, 0
8, 120120, Note_on_c, 6, 48, 92
8, 120148, Note_on_c, 6, 48, 0
8, 120150, Note_on_c, 6, 48, 92
8, 120178, Note_on_c, 6, 48, 0
8, 120180, Note_on_c, 6, 48, 92
8, 120208, Note_on_c, 6, 48, 0
8, 120210, Note_on_c, 6, 48, 92
8, 120238, Note_on_c, 6, 48, 0
8, 120240, Note_on_c, 6, 48, 92
8, 120268, Note_on_c, 6, 48, 0
8, 120270, Note_on_c, 6, 48, 92
8, 120298, Note_on_c, 6, 48, 0
8, 120300, Note_on_c, 6, 48, 92
8, 120328, Note_on_c, 6, 48, 0
8, 120330, Note_on_c, 6, 48, 92
8, 120358, Note_on_c, 6, 48, 0
8, 120360, Note_on_c, 6, 48, 92
8, 120388, Note_on_c, 6, 48, 0
8, 120390, Note_on_c, 6, 48, 92
8, 120418, Note_on_c, 6, 48, 0
8, 120420, Note_on_c, 6, 48, 92
8, 120448, Note_on_c, 6, 48, 0
8, 120450, Note_on_c, 6, 48, 92
8, 120478, Note_on_c, 6, 48, 0
8, 120480, Note_on_c, 6, 48, 92
8, 120508, Note_on_c, 6, 48, 0
8, 120510, Note_on_c, 6, 48, 92
8, 120538, Note_on_c, 6, 48, 0
8, 120540, Note_on_c, 6, 48, 92
8, 120568, Note_on_c, 6, 48, 0
8, 120570, Note_on_c, 6, 48, 92
8, 120598, Note_on_c, 6, 48, 0
8, 120600, Note_on_c, 6, 48, 92
8, 120628, Note_on_c, 6, 48, 0
8, 120630, Note_on_c, 6, 48, 92
8, 120658, Note_on_c, 6, 48, 0
8, 120660, Note_on_c, 6, 48, 92
8, 120688, Note_on_c, 6, 48, 0
8, 120690, Note_on_c, 6, 48, 92
8, 120718, Note_on_c, 6, 48, 0
8, 120720, Note_on_c, 6, 48, 92
8, 120748, Note_on_c, 6, 48, 0
8, 120750, Note_on_c, 6, 48, 92
8, 120778, Note_on_c, 6, 48, 0
8, 120780, Note_on_c, 6, 48, 92
8, 120808, Note_on_c, 6, 48, 0
8, 120810, Note_on_c, 6, 48, 92
8, 120838, Note_on_c, 6, 48, 0
8, 120840, Note_on_c, 6, 48, 92
8, 120868, Note_on_c, 6, 48, 0
8, 120870, Note_on_c, 6, 48, 92
8, 120898, Note_on_c, 6, 48, 0
8, 120900, Note_on_c, 6, 48, 92
8, 120928, Note_on_c, 6, 48, 0
8, 120930, Note_on_c, 6, 48, 92
8, 120958, Note_on_c, 6, 48, 0
8, 120960, Note_on_c, 6, 48, 108
8, 120988, Note_on_c, 6, 48, 0
8, 120990, Note_on_c, 6, 48, 108
8, 121018, Note_on_c, 6, 48, 0
8, 121020, Note_on_c, 6, 48, 108
8, 121048, Note_on_c, 6, 48, 0
8, 121050, Note_on_c, 6, 48, 108
8, 121078, Note_on_c, 6, 48, 0
8, 121080, Note_on_c, 6, 48, 108
8, 121108, Note_on_c, 6, 48, 0
8, 121110, Note_on_c, 6, 48, 108
8, 121138, Note_on_c, 6, 48, 0
8, 121140, Note_on_c, 6, 48, 108
8, 121168, Note_on_c, 6, 48, 0
8, 121170, Note_on_c, 6, 48, 108
8, 121198, Note_on_c, 6, 48, 0
8, 121200, Note_on_c, 6, 48, 108
8, 121360, Note_on_c, 6, 48, 0
8, 121380, Note_on_c, 6, 48, 108
8, 121438, Note_on_c, 6, 48, 0
8, 121440, Note_on_c, 6, 48, 108
8, 121540, Note_on_c, 6, 48, 0
8, 121560, Note_on_c, 6, 48, 108
8, 121660, Note_on_c, 6, 48, 0
8, 121680, Note_on_c, 6, 48, 108
8, 121780, Note_on_c, 6, 48, 0
8, 121800, Note_on_c, 6, 43, 108
8, 121900, Note_on_c, 6, 43, 0
8, 121920, Note_on_c, 6, 48, 108
8, 122130, Note_on_c, 6, 48, 0
8, 122160, Note_on_c, 6, 48, 108
8, 122320, Note_on_c, 6, 48, 0
8, 122340, Note_on_c, 6, 48, 108
8, 122398, Note_on_c, 6, 48, 0
8, 122400, Note_on_c, 6, 48, 108
8, 122500, Note_on_c, 6, 48, 0
8, 122520, Note_on_c, 6, 48, 108
8, 122620, Note_on_c, 6, 48, 0
8, 122640, Note_on_c, 6, 48, 108
8, 122740, Note_on_c, 6, 48, 0
8, 122760, Note_on_c, 6, 43, 108
8, 122860, Note_on_c, 6, 43, 0
8, 122880, Note_on_c, 6, 48, 108
8, 122980, Note_on_c, 6, 48, 0
8, 123000, Note_on_c, 6, 43, 108
8, 123100, Note_on_c, 6, 43, 0
8, 123120, Note_on_c, 6, 48, 108
8, 123220, Note_on_c, 6, 48, 0
8, 123240, Note_on_c, 6, 43, 108
8, 123340, Note_on_c, 6, 43, 0
8, 123360, Note_on_c, 6, 48, 108
8, 123460, Note_on_c, 6, 48, 0
8, 123480, Note_on_c, 6, 43, 108
8, 123580, Note_on_c, 6, 43, 0
8, 123600, Note_on_c, 6, 48, 108
8, 123700, Note_on_c, 6, 48, 0
8, 123720, Note_on_c, 6, 43, 108
8, 123820, Note_on_c, 6, 43, 0
8, 123840, Note_on_c, 6, 48, 92
8, 123868, Note_on_c, 6, 48, 0
8, 123870, Note_on_c, 6, 48, 92
8, 123898, Note_on_c, 6, 48, 0
8, 123900, Note_on_c, 6, 48, 92
8, 123928, Note_on_c, 6, 48, 0
8, 123930, Note_on_c, 6, 48, 92
8, 123958, Note_on_c, 6, 48, 0
8, 123960, Note_on_c, 6, 48, 92
8, 123988, Note_on_c, 6, 48, 0
8, 123990, Note_on_c, 6, 48, 92
8, 124018, Note_on_c, 6, 48, 0
8, 124020, Note_on_c, 6, 48, 92
8, 124048, Note_on_c, 6, 48, 0
8, 124050, Note_on_c, 6, 48, 92
8, 124078, Note_on_c, 6, 48, 0
8, 124080, Note_on_c, 6, 48, 92
8, 124108, Note_on_c, 6, 48, 0
8, 124110, Note_on_c, 6, 48, 92
8, 124138, Note_on_c, 6, 48, 0
8, 124140, Note_on_c, 6, 48, 92
8, 124168, Note_on_c, 6, 48, 0
8, 124170, Note_on_c, 6, 48, 92
8, 124198, Note_on_c, 6, 48, 0
8, 124200, Note_on_c, 6, 48, 92
8, 124228, Note_on_c, 6, 48, 0
8, 124230, Note_on_c, 6, 48, 92
8, 124258, Note_on_c, 6, 48, 0
8, 124260, Note_on_c, 6, 48, 92
8, 124288, Note_on_c, 6, 48, 0
8, 124290, Note_on_c, 6, 48, 92
8, 124318, Note_on_c, 6, 48, 0
8, 124320, Note_on_c, 6, 48, 92
8, 124348, Note_on_c, 6, 48, 0
8, 124350, Note_on_c, 6, 48, 92
8, 124378, Note_on_c, 6, 48, 0
8, 124380, Note_on_c, 6, 48, 92
8, 124408, Note_on_c, 6, 48, 0
8, 124410, Note_on_c, 6, 48, 92
8, 124438, Note_on_c, 6, 48, 0
8, 124440, Note_on_c, 6, 48, 92
8, 124468, Note_on_c, 6, 48, 0
8, 124470, Note_on_c, 6, 48, 92
8, 124498, Note_on_c, 6, 48, 0
8, 124500, Note_on_c, 6, 48, 92
8, 124528, Note_on_c, 6, 48, 0
8, 124530, Note_on_c, 6, 48, 92
8, 124558, Note_on_c, 6, 48, 0
8, 124560, Note_on_c, 6, 48, 92
8, 124588, Note_on_c, 6, 48, 0
8, 124590, Note_on_c, 6, 48, 92
8, 124618, Note_on_c, 6, 48, 0
8, 124620, Note_on_c, 6, 48, 92
8, 124648, Note_on_c, 6, 48, 0
8, 124650, Note_on_c, 6, 48, 92
8, 124678, Note_on_c, 6, 48, 0
8, 124680, Note_on_c, 6, 48, 92
8, 124708, Note_on_c, 6, 48, 0
8, 124710, Note_on_c, 6, 48, 92
8, 124738, Note_on_c, 6, 48, 0
8, 124740, Note_on_c, 6, 48, 92
8, 124768, Note_on_c, 6, 48, 0
8, 124770, Note_on_c, 6, 48, 92
8, 124798, Note_on_c, 6, 48, 0
8, 124800, Note_on_c, 6, 48, 92
8, 124900, Note_on_c, 6, 48, 0
8, 124900, End_track
9, 0, Start_track
9, 0, MIDI_port, 0
9, 0, Title_t, "Violins I"
9, 0, Program_c, 7, 48
9, 0, Control_c, 7, 7, 127
9, 0, Control_c, 7, 10, 10
9, 0, Note_on_c, 7, 76, 92
9, 0, Note_on_c, 7, 84, 92
9, 100, Note_on_c, 7, 84, 0
9, 100, Note_on_c, 7, 76, 0
9, 210, Note_on_c, 7, 60, 92
9, 238, Note_on_c, 7, 60, 0
9, 240, Note_on_c, 7, 60, 92
9, 340, Note_on_c, 7, 60, 0
9, 1890, Note_on_c, 7, 86, 92
9, 1918, Note_on_c, 7, 86, 0
9, 1920, Note_on_c, 7, 86, 92
9, 2020, Note_on_c, 7, 86, 0
9, 2130, Note_on_c, 7, 55, 92
9, 2130, Note_on_c, 7, 67, 92
9, 2158, Note_on_c, 7, 67, 0
9, 2158, Note_on_c, 7, 55, 0
9, 2160, Note_on_c, 7, 55, 92
9, 2160, Note_on_c, 7, 67, 92
9, 2260, Note_on_c, 7, 67, 0
9, 2260, Note_on_c, 7, 55, 0
9, 4320, Note_on_c, 7, 62, 45
9, 4680, Note_on_c, 7, 62, 0
9, 4680, Note_on_c, 7, 64, 45
9, 4770, Note_on_c, 7, 64, 0
9, 4770, Note_on_c, 7, 65, 45
9, 4798, Note_on_c, 7, 65, 0
9, 4800, Note_on_c, 7, 65, 45
9, 5040, Note_on_c, 7, 65, 0
9, 5040, Note_on_c, 7, 64, 45
9, 5140, Note_on_c, 7, 64, 0
9, 5520, Note_on_c, 7, 67, 92
9, 5520, Note_on_c, 7, 72, 92
9, 5520, Note_on_c, 7, 76, 92
9, 5620, Note_on_c, 7, 76, 0
9, 5620, Note_on_c, 7, 72, 0
9, 5620, Note_on_c, 7, 67, 0
9, 5760, Note_on_c, 7, 65, 92
9, 5760, Note_on_c, 7, 72, 92
9, 5760, Note_on_c, 7, 77, 92
9, 5860, Note_on_c, 7, 77, 0
9, 5860, Note_on_c, 7, 72, 0
9, 5860, Note_on_c, 7, 65, 0
9, 6000, Note_on_c, 7, 65, 92
9, 6000, Note_on_c, 7, 72, 92
9, 6000, Note_on_c, 7, 81, 92
9, 6100, Note_on_c, 7, 81, 0
9, 6100, Note_on_c, 7, 72, 0
9, 6100, Note_on_c, 7, 65, 0
9, 6240, Note_on_c, 7, 55, 92
9, 6340, Note_on_c, 7, 55, 0
9, 6480, Note_on_c, 7, 67, 92
9, 6480, Note_on_c, 7, 74, 92
9, 6480, Note_on_c, 7, 83, 92
9, 6580, Note_on_c, 7, 83, 0
9, 6580, Note_on_c, 7, 74, 0
9, 6580, Note_on_c, 7, 67, 0
9, 6780, Note_on_c, 7, 60, 60
9, 6838, Note_on_c, 7, 60, 0
9, 6840, Note_on_c, 7, 60, 60
9, 6898, Note_on_c, 7, 60, 0
9, 6900, Note_on_c, 7, 60, 60
9, 6958, Note_on_c, 7, 60, 0
9, 6960, Note_on_c, 7, 60, 60
9, 7018, Note_on_c, 7, 60, 0
9, 7020, Note_on_c, 7, 60, 60
9, 7078, Note_on_c, 7, 60, 0
9, 7080, Note_on_c, 7, 60, 60
9, 7138, Note_on_c, 7, 60, 0
9, 7140, Note_on_c, 7, 60, 60
9, 7198, Note_on_c, 7, 60, 0
9, 7200, Note_on_c, 7, 64, 60
9, 7213, Note_on_c, 7, 64, 0
9, 7215, Note_on_c, 7, 62, 60
9, 7258, Note_on_c, 7, 62, 0
9, 7260, Note_on_c, 7, 60, 60
9, 7318, Note_on_c, 7, 60, 0
9, 7320, Note_on_c, 7, 60, 60
9, 7340, Note_on_c, 7, 60, 0
9, 7380, Note_on_c, 7, 60, 60
9, 7400, Note_on_c, 7, 60, 0
9, 7440, Note_on_c, 7, 59, 60
9, 7498, Note_on_c, 7, 59, 0
9, 7500, Note_on_c, 7, 60, 60
9, 7558, Note_on_c, 7, 60, 0
9, 7560, Note_on_c, 7, 59, 60
9, 7618, Note_on_c, 7, 59, 0
9, 7620, Note_on_c, 7, 60, 60
9, 7678, Note_on_c, 7, 60, 0
9, 7680, Note_on_c, 7, 59, 60
9, 7738, Note_on_c, 7, 59, 0
9, 7740, Note_on_c, 7, 62, 60
9, 7798, Note_on_c, 7, 62, 0
9, 7800, Note_on_c, 7, 62, 60
9, 7858, Note_on_c, 7, 62, 0
9, 7860, Note_on_c, 7, 62, 60
9, 7918, Note_on_c, 7, 62, 0
9, 7920, Note_on_c, 7, 62, 60
9, 7978, Note_on_c, 7, 62, 0
9, 7980, Note_on_c, 7, 62, 60
9, 8038, Note_on_c, 7, 62, 0
9, 8040, Note_on_c, 7, 62, 60
9, 8098, Note_on_c, 7, 62, 0
9, 8100, Note_on_c, 7, 62, 60
9, 8158, Note_on_c, 7, 62, 0
9, 8160, Note_on_c, 7, 65, 60
9, 8173, Note_on_c, 7, 65, 0
9, 8175, Note_on_c, 7, 64, 60
9, 8218, Note_on_c, 7, 64, 0
9, 8220, Note_on_c, 7, 62, 60
9, 8278, Note_on_c, 7, 62, 0
9, 8280, Note_on_c, 7, 62, 60
9, 8300, Note_on_c, 7, 62, 0
9, 8340, Note_on_c, 7, 62, 60
9, 8360, Note_on_c, 7, 62, 0
9, 8400, Note_on_c, 7, 61, 60
9, 8458, Note_on_c, 7, 61, 0
9, 8460, Note_on_c, 7, 62, 60
9, 8518, Note_on_c, 7, 62, 0
9, 8520, Note_on_c, 7, 61, 60
9, 8578, Note_on_c, 7, 61, 0
9, 8580, Note_on_c, 7, 62, 60
9, 8638, Note_on_c, 7, 62, 0
9, 8640, Note_on_c, 7, 60, 60
9, 8698, Note_on_c, 7, 60, 0
9, 8700, Note_on_c, 7, 64, 60
9, 8758, Note_on_c, 7, 64, 0
9, 8760, Note_on_c, 7, 64, 60
9, 8818, Note_on_c, 7, 64, 0
9, 8820, Note_on_c, 7, 64, 60
9, 8878, Note_on_c, 7, 64, 0
9, 8880, Note_on_c, 7, 64, 60
9, 8938, Note_on_c, 7, 64, 0
9, 8940, Note_on_c, 7, 64, 60
9, 8998, Note_on_c, 7, 64, 0
9, 9000, Note_on_c, 7, 64, 60
9, 9058, Note_on_c, 7, 64, 0
9, 9060, Note_on_c, 7, 64, 60
9, 9118, Note_on_c, 7, 64, 0
9, 9120, Note_on_c, 7, 67, 60
9, 9133, Note_on_c, 7, 67, 0
9, 9135, Note_on_c, 7, 65, 60
9, 9178, Note_on_c, 7, 65, 0
9, 9180, Note_on_c, 7, 64, 60
9, 9238, Note_on_c, 7, 64, 0
9, 9240, Note_on_c, 7, 64, 60
9, 9260, Note_on_c, 7, 64, 0
9, 9300, Note_on_c, 7, 64, 60
9, 9320, Note_on_c, 7, 64, 0
9, 9360, Note_on_c, 7, 62, 60
9, 9418, Note_on_c, 7, 62, 0
9, 9420, Note_on_c, 7, 64, 60
9, 9478, Note_on_c, 7, 64, 0
9, 9480, Note_on_c, 7, 62, 60
9, 9538, Note_on_c, 7, 62, 0
9, 9540, Note_on_c, 7, 64, 60
9, 9598, Note_on_c, 7, 64, 0
9, 9600, Note_on_c, 7, 62, 60
9, 9658, Note_on_c, 7, 62, 0
9, 9660, Note_on_c, 7, 65, 60
9, 9718, Note_on_c, 7, 65, 0
9, 9720, Note_on_c, 7, 65, 60
9, 9778, Note_on_c, 7, 65, 0
9, 9780, Note_on_c, 7, 65, 60
9, 9838, Note_on_c, 7, 65, 0
9, 9840, Note_on_c, 7, 65, 60
9, 9898, Note_on_c, 7, 65, 0
9, 9900, Note_on_c, 7, 65, 60
9, 9958, Note_on_c, 7, 65, 0
9, 9960, Note_on_c, 7, 65, 60
9, 10018, Note_on_c, 7, 65, 0
9, 10020, Note_on_c, 7, 65, 60
9, 10078, Note_on_c, 7, 65, 0
9, 10080, Note_on_c, 7, 69, 60
9, 10093, Note_on_c, 7, 69, 0
9, 10095, Note_on_c, 7, 67, 60
9, 10138, Note_on_c, 7, 67, 0
9, 10140, Note_on_c, 7, 65, 60
9, 10198, Note_on_c, 7, 65, 0
9, 10200, Note_on_c, 7, 65, 60
9, 10220, Note_on_c, 7, 65, 0
9, 10260, Note_on_c, 7, 65, 60
9, 10280, Note_on_c, 7, 65, 0
9, 10320, Note_on_c, 7, 64, 60
9, 10378, Note_on_c, 7, 64, 0
9, 10380, Note_on_c, 7, 65, 60
9, 10438, Note_on_c, 7, 65, 0
9, 10440, Note_on_c, 7, 64, 60
9, 10498, Note_on_c, 7, 64, 0
9, 10500, Note_on_c, 7, 65, 60
9, 10558, Note_on_c, 7, 65, 0
9, 10560, Note_on_c, 7, 64, 60
9, 10618, Note_on_c, 7, 64, 0
9, 10620, Note_on_c, 7, 64, 60
9, 10678, Note_on_c, 7, 64, 0
9, 10680, Note_on_c, 7, 64, 60
9, 10738, Note_on_c, 7, 64, 0
9, 10740, Note_on_c, 7, 64, 60
9, 10798, Note_on_c, 7, 64, 0
9, 10800, Note_on_c, 7, 65, 60
9, 10858, Note_on_c, 7, 65, 0
9, 10860, Note_on_c, 7, 65, 60
9, 10918, Note_on_c, 7, 65, 0
9, 10920, Note_on_c, 7, 67, 60
9, 10978, Note_on_c, 7, 67, 0
9, 10980, Note_on_c, 7, 67, 60
9, 11038, Note_on_c, 7, 67, 0
9, 11040, Note_on_c, 7, 69, 60
9, 11098, Note_on_c, 7, 69, 0
9, 11100, Note_on_c, 7, 69, 60
9, 11158, Note_on_c, 7, 69, 0
9, 11160, Note_on_c, 7, 67, 60
9, 11218, Note_on_c, 7, 67, 0
9, 11220, Note_on_c, 7, 67, 60
9, 11278, Note_on_c, 7, 67, 0
9, 11280, Note_on_c, 7, 69, 60
9, 11338, Note_on_c, 7, 69, 0
9, 11340, Note_on_c, 7, 69, 60
9, 11398, Note_on_c, 7, 69, 0
9, 11400, Note_on_c, 7, 71, 60
9, 11458, Note_on_c, 7, 71, 0
9, 11460, Note_on_c, 7, 71, 60
9, 11518, Note_on_c, 7, 71, 0
9, 11520, Note_on_c, 7, 72, 92
9, 11620, Note_on_c, 7, 72, 0
9, 11640, Note_on_c, 7, 72, 92
9, 11640, Note_on_c, 7, 84, 92
9, 11850, Note_on_c, 7, 84, 0
9, 11850, Note_on_c, 7, 72, 0
9, 11880, Note_on_c, 7, 72, 92
9, 11880, Note_on_c, 7, 84, 92
9, 11980, Note_on_c, 7, 84, 0
9, 11980, Note_on_c, 7, 72, 0
9, 12000, Note_on_c, 7, 72, 92
9, 12000, Note_on_c, 7, 84, 92
9, 12100, Note_on_c, 7, 84, 0
9, 12100, Note_on_c, 7, 72, 0
9, 12120, Note_on_c, 7, 72, 92
9, 12120, Note_on_c, 7, 84, 92
9, 12220, Note_on_c, 7, 84, 0
9, 12220, Note_on_c, 7, 72, 0
9, 12240, Note_on_c, 7, 72, 92
9, 12240, Note_on_c, 7, 84, 92
9, 12340, Note_on_c, 7, 84, 0
9, 12340, Note_on_c, 7, 72, 0
9, 12360, Note_on_c, 7, 72, 92
9, 12360, Note_on_c, 7, 84, 92
9, 12460, Note_on_c, 7, 84, 0
9, 12460, Note_on_c, 7, 72, 0
9, 12480, Note_on_c, 7, 72, 92
9, 12480, Note_on_c, 7, 84, 92
9, 12580, Note_on_c, 7, 84, 0
9, 12580, Note_on_c, 7, 72, 0
9, 12600, Note_on_c, 7, 72, 92
9, 12600, Note_on_c, 7, 84, 92
9, 12810, Note_on_c, 7, 84, 0
9, 12810, Note_on_c, 7, 72, 0
9, 12840, Note_on_c, 7, 72, 92
9, 12840, Note_on_c, 7, 84, 92
9, 12940, Note_on_c, 7, 84, 0
9, 12940, Note_on_c, 7, 72, 0
9, 12960, Note_on_c, 7, 72, 92
9, 12960, Note_on_c, 7, 84, 92
9, 13060, Note_on_c, 7, 84, 0
9, 13060, Note_on_c, 7, 72, 0
9, 13080, Note_on_c, 7, 72, 92
9, 13080, Note_on_c, 7, 84, 92
9, 13180, Note_on_c, 7, 84, 0
9, 13180, Note_on_c, 7, 72, 0
9, 13200, Note_on_c, 7, 72, 92
9, 13200, Note_on_c, 7, 84, 92
9, 13300, Note_on_c, 7, 84, 0
9, 13300, Note_on_c, 7, 72, 0
9, 13320, Note_on_c, 7, 72, 92
9, 13320, Note_on_c, 7, 84, 92
9, 13420, Note_on_c, 7, 84, 0
9, 13420, Note_on_c, 7, 72, 0
9, 13440, Note_on_c, 7, 72, 92
9, 13440, Note_on_c, 7, 84, 92
9, 13540, Note_on_c, 7, 84, 0
9, 13540, Note_on_c, 7, 72, 0
9, 13560, Note_on_c, 7, 67, 60
9, 13660, Note_on_c, 7, 67, 0
9, 13680, Note_on_c, 7, 67, 60
9, 13780, Note_on_c, 7, 67, 0
9, 13800, Note_on_c, 7, 67, 60
9, 13900, Note_on_c, 7, 67, 0
9, 14040, Note_on_c, 7, 67, 60
9, 14140, Note_on_c, 7, 67, 0
9, 14160, Note_on_c, 7, 67, 60
9, 14260, Note_on_c, 7, 67, 0
9, 14280, Note_on_c, 7, 67, 60
9, 14380, Note_on_c, 7, 67, 0
9, 14520, Note_on_c, 7, 69, 60
9, 14620, Note_on_c, 7, 69, 0
9, 14640, Note_on_c, 7, 69, 60
9, 14740, Note_on_c, 7, 69, 0
9, 14760, Note_on_c, 7, 69, 60
9, 14860, Note_on_c, 7, 69, 0
9, 15000, Note_on_c, 7, 69, 60
9, 15100, Note_on_c, 7, 69, 0
9, 15120, Note_on_c, 7, 69, 60
9, 15220, Note_on_c, 7, 69, 0
9, 15240, Note_on_c, 7, 69, 60
9, 15340, Note_on_c, 7, 69, 0
9, 15480, Note_on_c, 7, 67, 60
9, 15580, Note_on_c, 7, 67, 0
9, 15600, Note_on_c, 7, 67, 60
9, 15700, Note_on_c, 7, 67, 0
9, 15720, Note_on_c, 7, 67, 60
9, 15820, Note_on_c, 7, 67, 0
9, 15960, Note_on_c, 7, 67, 60
9, 16060, Note_on_c, 7, 67, 0
9, 16080, Note_on_c, 7, 67, 60
9, 16180, Note_on_c, 7, 67, 0
9, 16200, Note_on_c, 7, 67, 60
9, 16300, Note_on_c, 7, 67, 0
9, 16320, Note_on_c, 7, 62, 60
9, 16440, Note_on_c, 7, 62, 0
9, 16440, Note_on_c, 7, 67, 60
9, 16560, Note_on_c, 7, 67, 0
9, 16560, Note_on_c, 7, 64, 60
9, 16680, Note_on_c, 7, 64, 0
9, 16680, Note_on_c, 7, 67, 60
9, 16800, Note_on_c, 7, 67, 0
9, 16800, Note_on_c, 7, 65, 60
9, 16920, Note_on_c, 7, 65, 0
9, 16920, Note_on_c, 7, 67, 60
9, 17040, Note_on_c, 7, 67, 0
9, 17040, Note_on_c, 7, 62, 60
9, 17160, Note_on_c, 7, 62, 0
9, 17160, Note_on_c, 7, 67, 60
9, 17260, Note_on_c, 7, 67, 0
9, 17280, Note_on_c, 7, 64, 60
9, 17380, Note_on_c, 7, 64, 0
9, 17400, Note_on_c, 7, 67, 60
9, 17500, Note_on_c, 7, 67, 0
9, 17520, Note_on_c, 7, 67, 60
9, 17620, Note_on_c, 7, 67, 0
9, 17640, Note_on_c, 7, 67, 60
9, 17740, Note_on_c, 7, 67, 0
9, 17880, Note_on_c, 7, 67, 60
9, 17980, Note_on_c, 7, 67, 0
9, 18000, Note_on_c, 7, 67, 60
9, 18100, Note_on_c, 7, 67, 0
9, 18120, Note_on_c, 7, 67, 60
9, 18220, Note_on_c, 7, 67, 0
9, 18360, Note_on_c, 7, 69, 60
9, 18460, Note_on_c, 7, 69, 0
9, 18480, Note_on_c, 7, 69, 60
9, 18580, Note_on_c, 7, 69, 0
9, 18600, Note_on_c, 7, 69, 60
9, 18700, Note_on_c, 7, 69, 0
9, 18840, Note_on_c, 7, 69, 60
9, 18940, Note_on_c, 7, 69, 0
9, 18960, Note_on_c, 7, 69, 60
9, 19060, Note_on_c, 7, 69, 0
9, 19080, Note_on_c, 7, 69, 60
9, 19180, Note_on_c, 7, 69, 0
9, 19320, Note_on_c, 7, 67, 60
9, 19420, Note_on_c, 7, 67, 0
9, 19440, Note_on_c, 7, 67, 60
9, 19540, Note_on_c, 7, 67, 0
9, 19560, Note_on_c, 7, 67, 60
9, 19660, Note_on_c, 7, 67, 0
9, 19800, Note_on_c, 7, 67, 60
9, 19900, Note_on_c, 7, 67, 0
9, 19920, Note_on_c, 7, 67, 60
9, 20020, Note_on_c, 7, 67, 0
9, 20040, Note_on_c, 7, 67, 60
9, 20140, Note_on_c, 7, 67, 0
9, 20160, Note_on_c, 7, 62, 60
9, 20280, Note_on_c, 7, 62, 0
9, 20280, Note_on_c, 7, 67, 60
9, 20400, Note_on_c, 7, 67, 0
9, 20400, Note_on_c, 7, 64, 60
9, 20520, Note_on_c, 7, 64, 0
9, 20520, Note_on_c, 7, 67, 60
9, 20640, Note_on_c, 7, 67, 0
9, 20640, Note_on_c, 7, 65, 60
9, 20760, Note_on_c, 7, 65, 0
9, 20760, Note_on_c, 7, 67, 60
9, 20880, Note_on_c, 7, 67, 0
9, 20880, Note_on_c, 7, 62, 60
9, 21000, Note_on_c, 7, 62, 0
9, 21000, Note_on_c, 7, 67, 60
9, 21100, Note_on_c, 7, 67, 0
9, 21120, Note_on_c, 7, 64, 60
9, 21220, Note_on_c, 7, 64, 0
9, 22140, Note_on_c, 7, 72, 60
9, 22198, Note_on_c, 7, 72, 0
9, 22200, Note_on_c, 7, 72, 60
9, 22258, Note_on_c, 7, 72, 0
9, 22260, Note_on_c, 7, 72, 60
9, 22318, Note_on_c, 7, 72, 0
9, 22320, Note_on_c, 7, 72, 60
9, 22378, Note_on_c, 7, 72, 0
9, 22380, Note_on_c, 7, 72, 60
9, 22438, Note_on_c, 7, 72, 0
9, 22440, Note_on_c, 7, 72, 60
9, 22498, Note_on_c, 7, 72, 0
9, 22500, Note_on_c, 7, 72, 60
9, 22558, Note_on_c, 7, 72, 0
9, 22560, Note_on_c, 7, 76, 60
9, 22575, Note_on_c, 7, 76, 0
9, 22575, Note_on_c, 7, 74, 60
9, 22620, Note_on_c, 7, 74, 0
9, 22620, Note_on_c, 7, 72, 60
9, 22678, Note_on_c, 7, 72, 0
9, 22680, Note_on_c, 7, 72, 60
9, 22700, Note_on_c, 7, 72, 0
9, 22740, Note_on_c, 7, 72, 60
9, 22760, Note_on_c, 7, 72, 0
9, 22800, Note_on_c, 7, 71, 60
9, 22860, Note_on_c, 7, 71, 0
9, 22860, Note_on_c, 7, 72, 60
9, 22918, Note_on_c, 7, 72, 0
9, 22920, Note_on_c, 7, 71, 60
9, 22980, Note_on_c, 7, 71, 0
9, 22980, Note_on_c, 7, 72, 60
9, 23038, Note_on_c, 7, 72, 0
9, 23040, Note_on_c, 7, 71, 60
9, 23140, Note_on_c, 7, 71, 0
9, 24060, Note_on_c, 7, 79, 60
9, 24118, Note_on_c, 7, 79, 0
9, 24120, Note_on_c, 7, 79, 60
9, 24178, Note_on_c, 7, 79, 0
9, 24180, Note_on_c, 7, 79, 60
9, 24238, Note_on_c, 7, 79, 0
9, 24240, Note_on_c, 7, 79, 60
9, 24298, Note_on_c, 7, 79, 0
9, 24300, Note_on_c, 7, 79, 60
9, 24358, Note_on_c, 7, 79, 0
9, 24360, Note_on_c, 7, 79, 60
9, 24418, Note_on_c, 7, 79, 0
9, 24420, Note_on_c, 7, 79, 60
9, 24478, Note_on_c, 7, 79, 0
9, 24480, Note_on_c, 7, 83, 60
9, 24495, Note_on_c, 7, 83, 0
9, 24495, Note_on_c, 7, 81, 60
9, 24540, Note_on_c, 7, 81, 0
9, 24540, Note_on_c, 7, 79, 60
9, 24598, Note_on_c, 7, 79, 0
9, 24600, Note_on_c, 7, 79, 60
9, 24620, Note_on_c, 7, 79, 0
9, 24660, Note_on_c, 7, 79, 60
9, 24680, Note_on_c, 7, 79, 0
9, 24720, Note_on_c, 7, 78, 60
9, 24780, Note_on_c, 7, 78, 0
9, 24780, Note_on_c, 7, 79, 60
9, 24838, Note_on_c, 7, 79, 0
9, 24840, Note_on_c, 7, 78, 60
9, 24900, Note_on_c, 7, 78, 0
9, 24900, Note_on_c, 7, 79, 60
9, 24958, Note_on_c, 7, 79, 0
9, 24960, Note_on_c, 7, 78, 92
9, 25060, Note_on_c, 7, 78, 0
9, 25080, Note_on_c, 7, 74, 92
9, 25080, Note_on_c, 7, 86, 92
9, 25290, Note_on_c, 7, 86, 0
9, 25290, Note_on_c, 7, 74, 0
9, 25320, Note_on_c, 7, 74, 92
9, 25320, Note_on_c, 7, 86, 92
9, 25420, Note_on_c, 7, 86, 0
9, 25420, Note_on_c, 7, 74, 0
9, 25440, Note_on_c, 7, 74, 92
9, 25440, Note_on_c, 7, 86, 92
9, 25540, Note_on_c, 7, 86, 0
9, 25540, Note_on_c, 7, 74, 0
9, 25560, Note_on_c, 7, 74, 92
9, 25560, Note_on_c, 7, 86, 92
9, 25660, Note_on_c, 7, 86, 0
9, 25660, Note_on_c, 7, 74, 0
9, 25680, Note_on_c, 7, 74, 92
9, 25680, Note_on_c, 7, 86, 92
9, 25780, Note_on_c, 7, 86, 0
9, 25780, Note_on_c, 7, 74, 0
9, 25800, Note_on_c, 7, 74, 92
9, 25800, Note_on_c, 7, 86, 92
9, 25900, Note_on_c, 7, 86, 0
9, 25900, Note_on_c, 7, 74, 0
9, 25920, Note_on_c, 7, 74, 92
9, 25920, Note_on_c, 7, 86, 92
9, 26020, Note_on_c, 7, 86, 0
9, 26020, Note_on_c, 7, 74, 0
9, 26040, Note_on_c, 7, 74, 92
9, 26040, Note_on_c, 7, 86, 92
9, 26250, Note_on_c, 7, 86, 0
9, 26250, Note_on_c, 7, 74, 0
9, 26280, Note_on_c, 7, 74, 92
9, 26280, Note_on_c, 7, 86, 92
9, 26380, Note_on_c, 7, 86, 0
9, 26380, Note_on_c, 7, 74, 0
9, 26400, Note_on_c, 7, 74, 92
9, 26400, Note_on_c, 7, 86, 92
9, 26500, Note_on_c, 7, 86, 0
9, 26500, Note_on_c, 7, 74, 0
9, 26520, Note_on_c, 7, 74, 92
9, 26520, Note_on_c, 7, 86, 92
9, 26620, Note_on_c, 7, 86, 0
9, 26620, Note_on_c, 7, 74, 0
9, 26640, Note_on_c, 7, 74, 92
9, 26640, Note_on_c, 7, 86, 92
9, 26740, Note_on_c, 7, 86, 0
9, 26740, Note_on_c, 7, 74, 0
9, 26760, Note_on_c, 7, 74, 92
9, 26760, Note_on_c, 7, 86, 92
9, 26860, Note_on_c, 7, 86, 0
9, 26860, Note_on_c, 7, 74, 0
9, 26880, Note_on_c, 7, 74, 92
9, 26880, Note_on_c, 7, 86, 92
9, 26980, Note_on_c, 7, 86, 0
9, 26980, Note_on_c, 7, 74, 0
9, 27840, Note_on_c, 7, 67, 60
9, 27900, Note_on_c, 7, 67, 0
9, 27900, Note_on_c, 7, 69, 60
9, 27960, Note_on_c, 7, 69, 0
9, 27960, Note_on_c, 7, 70, 60
9, 28020, Note_on_c, 7, 70, 0
9, 28020, Note_on_c, 7, 69, 60
9, 28080, Note_on_c, 7, 69, 0
9, 28080, Note_on_c, 7, 67, 60
9, 28180, Note_on_c, 7, 67, 0
9, 28320, Note_on_c, 7, 69, 60
9, 28380, Note_on_c, 7, 69, 0
9, 28380, Note_on_c, 7, 70, 60
9, 28440, Note_on_c, 7, 70, 0
9, 28440, Note_on_c, 7, 72, 60
9, 28500, Note_on_c, 7, 72, 0
9, 28500, Note_on_c, 7, 70, 60
9, 28560, Note_on_c, 7, 70, 0
9, 28560, Note_on_c, 7, 69, 60
9, 28620, Note_on_c, 7, 69, 0
9, 28620, Note_on_c, 7, 70, 60
9, 28680, Note_on_c, 7, 70, 0
9, 28680, Note_on_c, 7, 69, 60
9, 28740, Note_on_c, 7, 69, 0
9, 28740, Note_on_c, 7, 67, 60
9, 28800, Note_on_c, 7, 67, 0
9, 28800, Note_on_c, 7, 66, 60
9, 28860, Note_on_c, 7, 66, 0
9, 28860, Note_on_c, 7, 67, 60
9, 28920, Note_on_c, 7, 67, 0
9, 28920, Note_on_c, 7, 69, 60
9, 28980, Note_on_c, 7, 69, 0
9, 28980, Note_on_c, 7, 67, 60
9, 29040, Note_on_c, 7, 67, 0
9, 29040, Note_on_c, 7, 66, 60
9, 29140, Note_on_c, 7, 66, 0
9, 29280, Note_on_c, 7, 67, 60
9, 29340, Note_on_c, 7, 67, 0
9, 29340, Note_on_c, 7, 69, 60
9, 29400, Note_on_c, 7, 69, 0
9, 29400, Note_on_c, 7, 70, 60
9, 29460, Note_on_c, 7, 70, 0
9, 29460, Note_on_c, 7, 69, 60
9, 29520, Note_on_c, 7, 69, 0
9, 29520, Note_on_c, 7, 67, 60
9, 29580, Note_on_c, 7, 67, 0
9, 29580, Note_on_c, 7, 69, 60
9, 29640, Note_on_c, 7, 69, 0
9, 29640, Note_on_c, 7, 67, 60
9, 29700, Note_on_c, 7, 67, 0
9, 29700, Note_on_c, 7, 65, 60
9, 29760, Note_on_c, 7, 65, 0
9, 29760, Note_on_c, 7, 64, 60
9, 29820, Note_on_c, 7, 64, 0
9, 29820, Note_on_c, 7, 66, 60
9, 29880, Note_on_c, 7, 66, 0
9, 29880, Note_on_c, 7, 67, 60
9, 29940, Note_on_c, 7, 67, 0
9, 29940, Note_on_c, 7, 66, 60
9, 30000, Note_on_c, 7, 66, 0
9, 30000, Note_on_c, 7, 64, 60
9, 30100, Note_on_c, 7, 64, 0
9, 30240, Note_on_c, 7, 66, 60
9, 30300, Note_on_c, 7, 66, 0
9, 30300, Note_on_c, 7, 67, 60
9, 30360, Note_on_c, 7, 67, 0
9, 30360, Note_on_c, 7, 69, 60
9, 30420, Note_on_c, 7, 69, 0
9, 30420, Note_on_c, 7, 67, 60
9, 30480, Note_on_c, 7, 67, 0
9, 30480, Note_on_c, 7, 66, 60
9, 30540, Note_on_c, 7, 66, 0
9, 30540, Note_on_c, 7, 62, 60
9, 30600, Note_on_c, 7, 62, 0
9, 30600, Note_on_c, 7, 64, 60
9, 30660, Note_on_c, 7, 64, 0
9, 30660, Note_on_c, 7, 66, 60
9, 30718, Note_on_c, 7, 66, 0
9, 30720, Note_on_c, 7, 67, 60
9, 30820, Note_on_c, 7, 67, 0
9, 30840, Note_on_c, 7, 74, 92
9, 30840, Note_on_c, 7, 86, 92
9, 31050, Note_on_c, 7, 86, 0
9, 31050, Note_on_c, 7, 74, 0
9, 31080, Note_on_c, 7, 74, 92
9, 31080, Note_on_c, 7, 86, 92
9, 31180, Note_on_c, 7, 86, 0
9, 31180, Note_on_c, 7, 74, 0
9, 31200, Note_on_c, 7, 74, 92
9, 31200, Note_on_c, 7, 86, 92
9, 31300, Note_on_c, 7, 86, 0
9, 31300, Note_on_c, 7, 74, 0
9, 31320, Note_on_c, 7, 74, 92
9, 31320, Note_on_c, 7, 86, 92
9, 31420, Note_on_c, 7, 86, 0
9, 31420, Note_on_c, 7, 74, 0
9, 31440, Note_on_c, 7, 74, 92
9, 31440, Note_on_c, 7, 86, 92
9, 31540, Note_on_c, 7, 86, 0
9, 31540, Note_on_c, 7, 74, 0
9, 31560, Note_on_c, 7, 71, 92
9, 31560, Note_on_c, 7, 83, 92
9, 31660, Note_on_c, 7, 83, 0
9, 31660, Note_on_c, 7, 71, 0
9, 31680, Note_on_c, 7, 71, 92
9, 31680, Note_on_c, 7, 83, 92
9, 31780, Note_on_c, 7, 83, 0
9, 31780, Note_on_c, 7, 71, 0
9, 31800, Note_on_c, 7, 71, 92
9, 31800, Note_on_c, 7, 83, 92
9, 32010, Note_on_c, 7, 83, 0
9, 32010, Note_on_c, 7, 71, 0
9, 32040, Note_on_c, 7, 71, 92
9, 32040, Note_on_c, 7, 83, 92
9, 32140, Note_on_c, 7, 83, 0
9, 32140, Note_on_c, 7, 71, 0
9, 32160, Note_on_c, 7, 71, 92
9, 32160, Note_on_c, 7, 83, 92
9, 32260, Note_on_c, 7, 83, 0
9, 32260, Note_on_c, 7, 71, 0
9, 32280, Note_on_c, 7, 71, 92
9, 32280, Note_on_c, 7, 83, 92
9, 32380, Note_on_c, 7, 83, 0
9, 32380, Note_on_c, 7, 71, 0
9, 32400, Note_on_c, 7, 71, 92
9, 32400, Note_on_c, 7, 83, 92
9, 32500, Note_on_c, 7, 83, 0
9, 32500, Note_on_c, 7, 71, 0
9, 32520, Note_on_c, 7, 79, 92
9, 32620, Note_on_c, 7, 79, 0
9, 32640, Note_on_c, 7, 79, 92
9, 32740, Note_on_c, 7, 79, 0
9, 32760, Note_on_c, 7, 79, 92
9, 32970, Note_on_c, 7, 79, 0
9, 33000, Note_on_c, 7, 79, 92
9, 33100, Note_on_c, 7, 79, 0
9, 33120, Note_on_c, 7, 79, 92
9, 33220, Note_on_c, 7, 79, 0
9, 33240, Note_on_c, 7, 79, 92
9, 33340, Note_on_c, 7, 79, 0
9, 33360, Note_on_c, 7, 79, 92
9, 33460, Note_on_c, 7, 79, 0
9, 33480, Note_on_c, 7, 80, 92
9, 33580, Note_on_c, 7, 80, 0
9, 33600, Note_on_c, 7, 81, 92
9, 33658, Note_on_c, 7, 81, 0
9, 33660, Note_on_c, 7, 81, 92
9, 33718, Note_on_c, 7, 81, 0
9, 33720, Note_on_c, 7, 83, 92
9, 33778, Note_on_c, 7, 83, 0
9, 33780, Note_on_c, 7, 83, 92
9, 33838, Note_on_c, 7, 83, 0
9, 33840, Note_on_c, 7, 84, 92
9, 33898, Note_on_c, 7, 84, 0
9, 33900, Note_on_c, 7, 84, 92
9, 33958, Note_on_c, 7, 84, 0
9, 33960, Note_on_c, 7, 85, 92
9, 34018, Note_on_c, 7, 85, 0
9, 34020, Note_on_c, 7, 85, 92
9, 34078, Note_on_c, 7, 85, 0
9, 34080, Note_on_c, 7, 86, 92
9, 34138, Note_on_c, 7, 86, 0
9, 34140, Note_on_c, 7, 86, 92
9, 34198, Note_on_c, 7, 86, 0
9, 34200, Note_on_c, 7, 83, 92
9, 34258, Note_on_c, 7, 83, 0
9, 34260, Note_on_c, 7, 83, 92
9, 34318, Note_on_c, 7, 83, 0
9, 34320, Note_on_c, 7, 84, 92
9, 34378, Note_on_c, 7, 84, 0
9, 34380, Note_on_c, 7, 84, 92
9, 34438, Note_on_c, 7, 84, 0
9, 34440, Note_on_c, 7, 81, 92
9, 34498, Note_on_c, 7, 81, 0
9, 34500, Note_on_c, 7, 81, 92
9, 34558, Note_on_c, 7, 81, 0
9, 34560, Note_on_c, 7, 83, 92
9, 34618, Note_on_c, 7, 83, 0
9, 34620, Note_on_c, 7, 83, 92
9, 34678, Note_on_c, 7, 83, 0
9, 34680, Note_on_c, 7, 83, 92
9, 34738, Note_on_c, 7, 83, 0
9, 34740, Note_on_c, 7, 83, 92
9, 34798, Note_on_c, 7, 83, 0
9, 34800, Note_on_c, 7, 83, 92
9, 34858, Note_on_c, 7, 83, 0
9, 34860, Note_on_c, 7, 83, 92
9, 34918, Note_on_c, 7, 83, 0
9, 34920, Note_on_c, 7, 83, 92
9, 34978, Note_on_c, 7, 83, 0
9, 34980, Note_on_c, 7, 83, 92
9, 35038, Note_on_c, 7, 83, 0
9, 35040, Note_on_c, 7, 83, 92
9, 35098, Note_on_c, 7, 83, 0
9, 35100, Note_on_c, 7, 83, 92
9, 35158, Note_on_c, 7, 83, 0
9, 35160, Note_on_c, 7, 83, 92
9, 35218, Note_on_c, 7, 83, 0
9, 35220, Note_on_c, 7, 83, 92
9, 35278, Note_on_c, 7, 83, 0
9, 35280, Note_on_c, 7, 83, 92
9, 35338, Note_on_c, 7, 83, 0
9, 35340, Note_on_c, 7, 83, 92
9, 35398, Note_on_c, 7, 83, 0
9, 35400, Note_on_c, 7, 83, 92
9, 35458, Note_on_c, 7, 83, 0
9, 35460, Note_on_c, 7, 83, 92
9, 35518, Note_on_c, 7, 83, 0
9, 35520, Note_on_c, 7, 81, 92
9, 35578, Note_on_c, 7, 81, 0
9, 35580, Note_on_c, 7, 81, 92
9, 35638, Note_on_c, 7, 81, 0
9, 35640, Note_on_c, 7, 81, 92
9, 35698, Note_on_c, 7, 81, 0
9, 35700, Note_on_c, 7, 81, 92
9, 35758, Note_on_c, 7, 81, 0
9, 35760, Note_on_c, 7, 86, 92
9, 35818, Note_on_c, 7, 86, 0
9, 35820, Note_on_c, 7, 86, 92
9, 35878, Note_on_c, 7, 86, 0
9, 35880, Note_on_c, 7, 86, 92
9, 35938, Note_on_c, 7, 86, 0
9, 35940, Note_on_c, 7, 86, 92
9, 35998, Note_on_c, 7, 86, 0
9, 36000, Note_on_c, 7, 83, 92
9, 36058, Note_on_c, 7, 83, 0
9, 36060, Note_on_c, 7, 83, 92
9, 36118, Note_on_c, 7, 83, 0
9, 36120, Note_on_c, 7, 83, 92
9, 36178, Note_on_c, 7, 83, 0
9, 36180, Note_on_c, 7, 83, 92
9, 36238, Note_on_c, 7, 83, 0
9, 36240, Note_on_c, 7, 83, 92
9, 36298, Note_on_c, 7, 83, 0
9, 36300, Note_on_c, 7, 83, 92
9, 36358, Note_on_c, 7, 83, 0
9, 36360, Note_on_c, 7, 83, 92
9, 36418, Note_on_c, 7, 83, 0
9, 36420, Note_on_c, 7, 83, 92
9, 36478, Note_on_c, 7, 83, 0
9, 36480, Note_on_c, 7, 83, 92
9, 36538, Note_on_c, 7, 83, 0
9, 36540, Note_on_c, 7, 83, 92
9, 36598, Note_on_c, 7, 83, 0
9, 36600, Note_on_c, 7, 83, 92
9, 36658, Note_on_c, 7, 83, 0
9, 36660, Note_on_c, 7, 83, 92
9, 36718, Note_on_c, 7, 83, 0
9, 36720, Note_on_c, 7, 83, 92
9, 36778, Note_on_c, 7, 83, 0
9, 36780, Note_on_c, 7, 83, 92
9, 36838, Note_on_c, 7, 83, 0
9, 36840, Note_on_c, 7, 83, 92
9, 36898, Note_on_c, 7, 83, 0
9, 36900, Note_on_c, 7, 83, 92
9, 36958, Note_on_c, 7, 83, 0
9, 36960, Note_on_c, 7, 81, 92
9, 37018, Note_on_c, 7, 81, 0
9, 37020, Note_on_c, 7, 81, 92
9, 37078, Note_on_c, 7, 81, 0
9, 37080, Note_on_c, 7, 81, 92
9, 37138, Note_on_c, 7, 81, 0
9, 37140, Note_on_c, 7, 81, 92
9, 37198, Note_on_c, 7, 81, 0
9, 37200, Note_on_c, 7, 86, 92
9, 37258, Note_on_c, 7, 86, 0
9, 37260, Note_on_c, 7, 86, 92
9, 37318, Note_on_c, 7, 86, 0
9, 37320, Note_on_c, 7, 86, 92
9, 37378, Note_on_c, 7, 86, 0
9, 37380, Note_on_c, 7, 86, 92
9, 37438, Note_on_c, 7, 86, 0
9, 37440, Note_on_c, 7, 79, 92
9, 37540, Note_on_c, 7, 79, 0
9, 37560, Note_on_c, 7, 62, 60
9, 37660, Note_on_c, 7, 62, 0
9, 37680, Note_on_c, 7, 62, 60
9, 37780, Note_on_c, 7, 62, 0
9, 37800, Note_on_c, 7, 62, 60
9, 37900, Note_on_c, 7, 62, 0
9, 38040, Note_on_c, 7, 62, 60
9, 38140, Note_on_c, 7, 62, 0
9, 38160, Note_on_c, 7, 62, 60
9, 38260, Note_on_c, 7, 62, 0
9, 38280, Note_on_c, 7, 62, 60
9, 38380, Note_on_c, 7, 62, 0
9, 38520, Note_on_c, 7, 64, 60
9, 38620, Note_on_c, 7, 64, 0
9, 38640, Note_on_c, 7, 64, 60
9, 38740, Note_on_c, 7, 64, 0
9, 38760, Note_on_c, 7, 64, 60
9, 38860, Note_on_c, 7, 64, 0
9, 39000, Note_on_c, 7, 64, 60
9, 39100, Note_on_c, 7, 64, 0
9, 39120, Note_on_c, 7, 64, 60
9, 39220, Note_on_c, 7, 64, 0
9, 39240, Note_on_c, 7, 64, 60
9, 39340, Note_on_c, 7, 64, 0
9, 39480, Note_on_c, 7, 62, 60
9, 39580, Note_on_c, 7, 62, 0
9, 39600, Note_on_c, 7, 62, 60
9, 39700, Note_on_c, 7, 62, 0
9, 39720, Note_on_c, 7, 62, 60
9, 39820, Note_on_c, 7, 62, 0
9, 39960, Note_on_c, 7, 62, 60
9, 40060, Note_on_c, 7, 62, 0
9, 40080, Note_on_c, 7, 62, 60
9, 40180, Note_on_c, 7, 62, 0
9, 40200, Note_on_c, 7, 62, 60
9, 40300, Note_on_c, 7, 62, 0
9, 40320, Note_on_c, 7, 62, 60
9, 41380, Note_on_c, 7, 62, 0
9, 41400, Note_on_c, 7, 62, 60
9, 41500, Note_on_c, 7, 62, 0
9, 41520, Note_on_c, 7, 62, 60
9, 41620, Note_on_c, 7, 62, 0
9, 41640, Note_on_c, 7, 62, 60
9, 41740, Note_on_c, 7, 62, 0
9, 41880, Note_on_c, 7, 62, 60
9, 41980, Note_on_c, 7, 62, 0
9, 42000, Note_on_c, 7, 62, 60
9, 42100, Note_on_c, 7, 62, 0
9, 42120, Note_on_c, 7, 62, 60
9, 42220, Note_on_c, 7, 62, 0
9, 42360, Note_on_c, 7, 64, 60
9, 42460, Note_on_c, 7, 64, 0
9, 42480, Note_on_c, 7, 64, 60
9, 42580, Note_on_c, 7, 64, 0
9, 42600, Note_on_c, 7, 64, 60
9, 42700, Note_on_c, 7, 64, 0
9, 42840, Note_on_c, 7, 64, 60
9, 42940, Note_on_c, 7, 64, 0
9, 42960, Note_on_c, 7, 64, 60
9, 43060, Note_on_c, 7, 64, 0
9, 43080, Note_on_c, 7, 64, 60
9, 43180, Note_on_c, 7, 64, 0
9, 43320, Note_on_c, 7, 62, 60
9, 43420, Note_on_c, 7, 62, 0
9, 43440, Note_on_c, 7, 62, 60
9, 43540, Note_on_c, 7, 62, 0
9, 43560, Note_on_c, 7, 62, 60
9, 43660, Note_on_c, 7, 62, 0
9, 43800, Note_on_c, 7, 62, 60
9, 43900, Note_on_c, 7, 62, 0
9, 43920, Note_on_c, 7, 62, 60
9, 44020, Note_on_c, 7, 62, 0
9, 44040, Note_on_c, 7, 62, 60
9, 44140, Note_on_c, 7, 62, 0
9, 44160, Note_on_c, 7, 62, 60
9, 45090, Note_on_c, 7, 62, 0
9, 45180, Note_on_c, 7, 67, 60
9, 45238, Note_on_c, 7, 67, 0
9, 45240, Note_on_c, 7, 67, 60
9, 45298, Note_on_c, 7, 67, 0
9, 45300, Note_on_c, 7, 67, 60
9, 45358, Note_on_c, 7, 67, 0
9, 45360, Note_on_c, 7, 67, 60
9, 45418, Note_on_c, 7, 67, 0
9, 45420, Note_on_c, 7, 67, 60
9, 45478, Note_on_c, 7, 67, 0
9, 45480, Note_on_c, 7, 67, 60
9, 45538, Note_on_c, 7, 67, 0
9, 45540, Note_on_c, 7, 67, 60
9, 45598, Note_on_c, 7, 67, 0
9, 45600, Note_on_c, 7, 71, 60
9, 45615, Note_on_c, 7, 71, 0
9, 45615, Note_on_c, 7, 69, 60
9, 45660, Note_on_c, 7, 69, 0
9, 45660, Note_on_c, 7, 67, 60
9, 45718, Note_on_c, 7, 67, 0
9, 45720, Note_on_c, 7, 67, 60
9, 45740, Note_on_c, 7, 67, 0
9, 45780, Note_on_c, 7, 67, 60
9, 45800, Note_on_c, 7, 67, 0
9, 45840, Note_on_c, 7, 66, 60
9, 45900, Note_on_c, 7, 66, 0
9, 45900, Note_on_c, 7, 67, 60
9, 45958, Note_on_c, 7, 67, 0
9, 45960, Note_on_c, 7, 66, 60
9, 46020, Note_on_c, 7, 66, 0
9, 46020, Note_on_c, 7, 67, 60
9, 46078, Note_on_c, 7, 67, 0
9, 46080, Note_on_c, 7, 66, 60
9, 47010, Note_on_c, 7, 66, 0
9, 47100, Note_on_c, 7, 77, 60
9, 47158, Note_on_c, 7, 77, 0
9, 47160, Note_on_c, 7, 77, 60
9, 47218, Note_on_c, 7, 77, 0
9, 47220, Note_on_c, 7, 77, 60
9, 47278, Note_on_c, 7, 77, 0
9, 47280, Note_on_c, 7, 77, 60
9, 47338, Note_on_c, 7, 77, 0
9, 47340, Note_on_c, 7, 77, 60
9, 47398, Note_on_c, 7, 77, 0
9, 47400, Note_on_c, 7, 77, 60
9, 47458, Note_on_c, 7, 77, 0
9, 47460, Note_on_c, 7, 77, 60
9, 47518, Note_on_c, 7, 77, 0
9, 47520, Note_on_c, 7, 81, 60
9, 47535, Note_on_c, 7, 81, 0
9, 47535, Note_on_c, 7, 79, 60
9, 47580, Note_on_c, 7, 79, 0
9, 47580, Note_on_c, 7, 77, 60
9, 47638, Note_on_c, 7, 77, 0
9, 47640, Note_on_c, 7, 77, 60
9, 47660, Note_on_c, 7, 77, 0
9, 47700, Note_on_c, 7, 77, 60
9, 47720, Note_on_c, 7, 77, 0
9, 47760, Note_on_c, 7, 76, 60
9, 47820, Note_on_c, 7, 76, 0
9, 47820, Note_on_c, 7, 77, 60
9, 47878, Note_on_c, 7, 77, 0
9, 47880, Note_on_c, 7, 76, 60
9, 47940, Note_on_c, 7, 76, 0
9, 47940, Note_on_c, 7, 77, 60
9, 47998, Note_on_c, 7, 77, 0
9, 48000, Note_on_c, 7, 76, 92
9, 48100, Note_on_c, 7, 76, 0
9, 48120, Note_on_c, 7, 88, 92
9, 48330, Note_on_c, 7, 88, 0
9, 48360, Note_on_c, 7, 88, 92
9, 48460, Note_on_c, 7, 88, 0
9, 48480, Note_on_c, 7, 88, 92
9, 48580, Note_on_c, 7, 88, 0
9, 48600, Note_on_c, 7, 88, 92
9, 48700, Note_on_c, 7, 88, 0
9, 48720, Note_on_c, 7, 88, 92
9, 48820, Note_on_c, 7, 88, 0
9, 48840, Note_on_c, 7, 88, 92
9, 48940, Note_on_c, 7, 88, 0
9, 48960, Note_on_c, 7, 88, 92
9, 49060, Note_on_c, 7, 88, 0
9, 49080, Note_on_c, 7, 88, 92
9, 49290, Note_on_c, 7, 88, 0
9, 49320, Note_on_c, 7, 88, 92
9, 49420, Note_on_c, 7, 88, 0
9, 49440, Note_on_c, 7, 88, 92
9, 49540, Note_on_c, 7, 88, 0
9, 49560, Note_on_c, 7, 88, 92
9, 49660, Note_on_c, 7, 88, 0
9, 49680, Note_on_c, 7, 88, 92
9, 49780, Note_on_c, 7, 88, 0
9, 49800, Note_on_c, 7, 88, 92
9, 49900, Note_on_c, 7, 88, 0
9, 49920, Note_on_c, 7, 88, 92
9, 50020, Note_on_c, 7, 88, 0
9, 50880, Note_on_c, 7, 81, 60
9, 50940, Note_on_c, 7, 81, 0
9, 50940, Note_on_c, 7, 83, 60
9, 51000, Note_on_c, 7, 83, 0
9, 51000, Note_on_c, 7, 84, 60
9, 51060, Note_on_c, 7, 84, 0
9, 51060, Note_on_c, 7, 83, 60
9, 51120, Note_on_c, 7, 83, 0
9, 51120, Note_on_c, 7, 81, 60
9, 51220, Note_on_c, 7, 81, 0
9, 51360, Note_on_c, 7, 83, 60
9, 51420, Note_on_c, 7, 83, 0
9, 51420, Note_on_c, 7, 84, 60
9, 51480, Note_on_c, 7, 84, 0
9, 51480, Note_on_c, 7, 86, 60
9, 51540, Note_on_c, 7, 86, 0
9, 51540, Note_on_c, 7, 84, 60
9, 51600, Note_on_c, 7, 84, 0
9, 51600, Note_on_c, 7, 83, 60
9, 51660, Note_on_c, 7, 83, 0
9, 51660, Note_on_c, 7, 84, 60
9, 51720, Note_on_c, 7, 84, 0
9, 51720, Note_on_c, 7, 83, 60
9, 51780, Note_on_c, 7, 83, 0
9, 51780, Note_on_c, 7, 81, 60
9, 51840, Note_on_c, 7, 81, 0
9, 51840, Note_on_c, 7, 80, 60
9, 51900, Note_on_c, 7, 80, 0
9, 51900, Note_on_c, 7, 81, 60
9, 51960, Note_on_c, 7, 81, 0
9, 51960, Note_on_c, 7, 83, 60
9, 52020, Note_on_c, 7, 83, 0
9, 52020, Note_on_c, 7, 81, 60
9, 52080, Note_on_c, 7, 81, 0
9, 52080, Note_on_c, 7, 80, 60
9, 52180, Note_on_c, 7, 80, 0
9, 52320, Note_on_c, 7, 81, 60
9, 52380, Note_on_c, 7, 81, 0
9, 52380, Note_on_c, 7, 83, 60
9, 52440, Note_on_c, 7, 83, 0
9, 52440, Note_on_c, 7, 84, 60
9, 52500, Note_on_c, 7, 84, 0
9, 52500, Note_on_c, 7, 83, 60
9, 52560, Note_on_c, 7, 83, 0
9, 52560, Note_on_c, 7, 81, 60
9, 52620, Note_on_c, 7, 81, 0
9, 52620, Note_on_c, 7, 83, 60
9, 52680, Note_on_c, 7, 83, 0
9, 52680, Note_on_c, 7, 81, 60
9, 52740, Note_on_c, 7, 81, 0
9, 52740, Note_on_c, 7, 79, 60
9, 52800, Note_on_c, 7, 79, 0
9, 52800, Note_on_c, 7, 78, 60
9, 52860, Note_on_c, 7, 78, 0
9, 52860, Note_on_c, 7, 80, 60
9, 52920, Note_on_c, 7, 80, 0
9, 52920, Note_on_c, 7, 81, 60
9, 52980, Note_on_c, 7, 81, 0
9, 52980, Note_on_c, 7, 80, 60
9, 53040, Note_on_c, 7, 80, 0
9, 53040, Note_on_c, 7, 78, 60
9, 53140, Note_on_c, 7, 78, 0
9, 53280, Note_on_c, 7, 80, 60
9, 53340, Note_on_c, 7, 80, 0
9, 53340, Note_on_c, 7, 81, 60
9, 53400, Note_on_c, 7, 81, 0
9, 53400, Note_on_c, 7, 83, 60
9, 53460, Note_on_c, 7, 83, 0
9, 53460, Note_on_c, 7, 81, 60
9, 53520, Note_on_c, 7, 81, 0
9, 53520, Note_on_c, 7, 80, 60
9, 53580, Note_on_c, 7, 80, 0
9, 53580, Note_on_c, 7, 76, 60
9, 53640, Note_on_c, 7, 76, 0
9, 53640, Note_on_c, 7, 78, 60
9, 53700, Note_on_c, 7, 78, 0
9, 53700, Note_on_c, 7, 80, 60
9, 53758, Note_on_c, 7, 80, 0
9, 53760, Note_on_c, 7, 81, 92
9, 53860, Note_on_c, 7, 81, 0
9, 53880, Note_on_c, 7, 69, 92
9, 53880, Note_on_c, 7, 81, 92
9, 54090, Note_on_c, 7, 81, 0
9, 54090, Note_on_c, 7, 69, 0
9, 54120, Note_on_c, 7, 69, 92
9, 54120, Note_on_c, 7, 81, 92
9, 54220, Note_on_c, 7, 81, 0
9, 54220, Note_on_c, 7, 69, 0
9, 54240, Note_on_c, 7, 69, 92
9, 54240, Note_on_c, 7, 81, 92
9, 54340, Note_on_c, 7, 81, 0
9, 54340, Note_on_c, 7, 69, 0
9, 54360, Note_on_c, 7, 69, 92
9, 54360, Note_on_c, 7, 81, 92
9, 54460, Note_on_c, 7, 81, 0
9, 54460, Note_on_c, 7, 69, 0
9, 54480, Note_on_c, 7, 69, 92
9, 54480, Note_on_c, 7, 81, 92
9, 54580, Note_on_c, 7, 81, 0
9, 54580, Note_on_c, 7, 69, 0
9, 54600, Note_on_c, 7, 69, 92
9, 54600, Note_on_c, 7, 81, 92
9, 54700, Note_on_c, 7, 81, 0
9, 54700, Note_on_c, 7, 69, 0
9, 54720, Note_on_c, 7, 81, 92
9, 54778, Note_on_c, 7, 81, 0
9, 54780, Note_on_c, 7, 69, 60
9, 54838, Note_on_c, 7, 69, 0
9, 54840, Note_on_c, 7, 69, 60
9, 54898, Note_on_c, 7, 69, 0
9, 54900, Note_on_c, 7, 69, 60
9, 54958, Note_on_c, 7, 69, 0
9, 54960, Note_on_c, 7, 69, 60
9, 55018, Note_on_c, 7, 69, 0
9, 55020, Note_on_c, 7, 69, 60
9, 55078, Note_on_c, 7, 69, 0
9, 55080, Note_on_c, 7, 69, 60
9, 55138, Note_on_c, 7, 69, 0
9, 55140, Note_on_c, 7, 69, 60
9, 55198, Note_on_c, 7, 69, 0
9, 55200, Note_on_c, 7, 72, 60
9, 55215, Note_on_c, 7, 72, 0
9, 55215, Note_on_c, 7, 71, 60
9, 55260, Note_on_c, 7, 71, 0
9, 55260, Note_on_c, 7, 69, 60
9, 55318, Note_on_c, 7, 69, 0
9, 55320, Note_on_c, 7, 69, 60
9, 55340, Note_on_c, 7, 69, 0
9, 55380, Note_on_c, 7, 69, 60
9, 55400, Note_on_c, 7, 69, 0
9, 55440, Note_on_c, 7, 68, 60
9, 55500, Note_on_c, 7, 68, 0
9, 55500, Note_on_c, 7, 69, 60
9, 55558, Note_on_c, 7, 69, 0
9, 55560, Note_on_c, 7, 68, 60
9, 55620, Note_on_c, 7, 68, 0
9, 55620, Note_on_c, 7, 69, 60
9, 55678, Note_on_c, 7, 69, 0
9, 55680, Note_on_c, 7, 68, 60
9, 56610, Note_on_c, 7, 68, 0
9, 56700, Note_on_c, 7, 79, 60
9, 56758, Note_on_c, 7, 79, 0
9, 56760, Note_on_c, 7, 79, 60
9, 56818, Note_on_c, 7, 79, 0
9, 56820, Note_on_c, 7, 79, 60
9, 56878, Note_on_c, 7, 79, 0
9, 56880, Note_on_c, 7, 79, 60
9, 56938, Note_on_c, 7, 79, 0
9, 56940, Note_on_c, 7, 79, 60
9, 56998, Note_on_c, 7, 79, 0
9, 57000, Note_on_c, 7, 79, 60
9, 57058, Note_on_c, 7, 79, 0
9, 57060, Note_on_c, 7, 79, 60
9, 57118, Note_on_c, 7, 79, 0
9, 57120, Note_on_c, 7, 82, 60
9, 57135, Note_on_c, 7, 82, 0
9, 57135, Note_on_c, 7, 81, 60
9, 57180, Note_on_c, 7, 81, 0
9, 57180, Note_on_c, 7, 79, 60
9, 57238, Note_on_c, 7, 79, 0
9, 57240, Note_on_c, 7, 79, 60
9, 57260, Note_on_c, 7, 79, 0
9, 57300, Note_on_c, 7, 79, 60
9, 57320, Note_on_c, 7, 79, 0
9, 57360, Note_on_c, 7, 78, 60
9, 57420, Note_on_c, 7, 78, 0
9, 57420, Note_on_c, 7, 79, 60
9, 57478, Note_on_c, 7, 79, 0
9, 57480, Note_on_c, 7, 78, 60
9, 57540, Note_on_c, 7, 78, 0
9, 57540, Note_on_c, 7, 79, 60
9, 57598, Note_on_c, 7, 79, 0
9, 57600, Note_on_c, 7, 78, 92
9, 57700, Note_on_c, 7, 78, 0
9, 57720, Note_on_c, 7, 74, 92
9, 57720, Note_on_c, 7, 86, 92
9, 57930, Note_on_c, 7, 86, 0
9, 57930, Note_on_c, 7, 74, 0
9, 57960, Note_on_c, 7, 74, 92
9, 57960, Note_on_c, 7, 86, 92
9, 58060, Note_on_c, 7, 86, 0
9, 58060, Note_on_c, 7, 74, 0
9, 58080, Note_on_c, 7, 74, 92
9, 58080, Note_on_c, 7, 86, 92
9, 58180, Note_on_c, 7, 86, 0
9, 58180, Note_on_c, 7, 74, 0
9, 58200, Note_on_c, 7, 74, 92
9, 58200, Note_on_c, 7, 86, 92
9, 58300, Note_on_c, 7, 86, 0
9, 58300, Note_on_c, 7, 74, 0
9, 58320, Note_on_c, 7, 74, 92
9, 58320, Note_on_c, 7, 86, 92
9, 58420, Note_on_c, 7, 86, 0
9, 58420, Note_on_c, 7, 74, 0
9, 58440, Note_on_c, 7, 74, 92
9, 58440, Note_on_c, 7, 86, 92
9, 58540, Note_on_c, 7, 86, 0
9, 58540, Note_on_c, 7, 74, 0
9, 58560, Note_on_c, 7, 74, 92
9, 58560, Note_on_c, 7, 86, 92
9, 58660, Note_on_c, 7, 86, 0
9, 58660, Note_on_c, 7, 74, 0
9, 58680, Note_on_c, 7, 86, 60
9, 58890, Note_on_c, 7, 86, 0
9, 58920, Note_on_c, 7, 86, 60
9, 59140, Note_on_c, 7, 86, 0
9, 59160, Note_on_c, 7, 86, 60
9, 59190, Note_on_c, 7, 86, 0
9, 59280, Note_on_c, 7, 86, 60
9, 59310, Note_on_c, 7, 86, 0
9, 59400, Note_on_c, 7, 86, 60
9, 59620, Note_on_c, 7, 86, 0
9, 59640, Note_on_c, 7, 86, 60
9, 59850, Note_on_c, 7, 86, 0
9, 59880, Note_on_c, 7, 86, 60
9, 60000, Note_on_c, 7, 86, 0
9, 60000, Note_on_c, 7, 84, 60
9, 60100, Note_on_c, 7, 84, 0
9, 60120, Note_on_c, 7, 84, 60
9, 60220, Note_on_c, 7, 84, 0
9, 60240, Note_on_c, 7, 84, 60
9, 60340, Note_on_c, 7, 84, 0
9, 60360, Note_on_c, 7, 84, 60
9, 60580, Note_on_c, 7, 84, 0
9, 60600, Note_on_c, 7, 84, 60
9, 60810, Note_on_c, 7, 84, 0
9, 60840, Note_on_c, 7, 84, 60
9, 60960, Note_on_c, 7, 84, 0
9, 60960, Note_on_c, 7, 82, 60
9, 61060, Note_on_c, 7, 82, 0
9, 61080, Note_on_c, 7, 82, 60
9, 61180, Note_on_c, 7, 82, 0
9, 61200, Note_on_c, 7, 82, 60
9, 61300, Note_on_c, 7, 82, 0
9, 61320, Note_on_c, 7, 82, 60
9, 61540, Note_on_c, 7, 82, 0
9, 61560, Note_on_c, 7, 82, 60
9, 61770, Note_on_c, 7, 82, 0
9, 61800, Note_on_c, 7, 82, 60
9, 61920, Note_on_c, 7, 82, 0
9, 61920, Note_on_c, 7, 81, 60
9, 62020, Note_on_c, 7, 81, 0
9, 62040, Note_on_c, 7, 81, 60
9, 62140, Note_on_c, 7, 81, 0
9, 62160, Note_on_c, 7, 81, 60
9, 62260, Note_on_c, 7, 81, 0
9, 62280, Note_on_c, 7, 81, 60
9, 62380, Note_on_c, 7, 81, 0
9, 62400, Note_on_c, 7, 79, 92
9, 62500, Note_on_c, 7, 79, 0
9, 62520, Note_on_c, 7, 79, 92
9, 62730, Note_on_c, 7, 79, 0
9, 62760, Note_on_c, 7, 79, 92
9, 62860, Note_on_c, 7, 79, 0
9, 62880, Note_on_c, 7, 79, 92
9, 62980, Note_on_c, 7, 79, 0
9, 63000, Note_on_c, 7, 79, 92
9, 63100, Note_on_c, 7, 79, 0
9, 63120, Note_on_c, 7, 79, 92
9, 63220, Note_on_c, 7, 79, 0
9, 63240, Note_on_c, 7, 79, 92
9, 63340, Note_on_c, 7, 79, 0
9, 63360, Note_on_c, 7, 79, 92
9, 63418, Note_on_c, 7, 79, 0
9, 63420, Note_on_c, 7, 67, 60
9, 63478, Note_on_c, 7, 67, 0
9, 63480, Note_on_c, 7, 67, 60
9, 63538, Note_on_c, 7, 67, 0
9, 63540, Note_on_c, 7, 67, 60
9, 63598, Note_on_c, 7, 67, 0
9, 63600, Note_on_c, 7, 67, 60
9, 63658, Note_on_c, 7, 67, 0
9, 63660, Note_on_c, 7, 67, 60
9, 63718, Note_on_c, 7, 67, 0
9, 63720, Note_on_c, 7, 67, 60
9, 63778, Note_on_c, 7, 67, 0
9, 63780, Note_on_c, 7, 67, 60
9, 63838, Note_on_c, 7, 67, 0
9, 63840, Note_on_c, 7, 71, 60
9, 63855, Note_on_c, 7, 71, 0
9, 63855, Note_on_c, 7, 69, 60
9, 63900, Note_on_c, 7, 69, 0
9, 63900, Note_on_c, 7, 67, 60
9, 63958, Note_on_c, 7, 67, 0
9, 63960, Note_on_c, 7, 67, 60
9, 63980, Note_on_c, 7, 67, 0
9, 64020, Note_on_c, 7, 67, 60
9, 64040, Note_on_c, 7, 67, 0
9, 64080, Note_on_c, 7, 66, 60
9, 64140, Note_on_c, 7, 66, 0
9, 64140, Note_on_c, 7, 67, 60
9, 64198, Note_on_c, 7, 67, 0
9, 64200, Note_on_c, 7, 66, 60
9, 64260, Note_on_c, 7, 66, 0
9, 64260, Note_on_c, 7, 67, 60
9, 64318, Note_on_c, 7, 67, 0
9, 64320, Note_on_c, 7, 66, 60
9, 65250, Note_on_c, 7, 66, 0
9, 65340, Note_on_c, 7, 77, 60
9, 65398, Note_on_c, 7, 77, 0
9, 65400, Note_on_c, 7, 77, 60
9, 65458, Note_on_c, 7, 77, 0
9, 65460, Note_on_c, 7, 77, 60
9, 65518, Note_on_c, 7, 77, 0
9, 65520, Note_on_c, 7, 77, 60
9, 65578, Note_on_c, 7, 77, 0
9, 65580, Note_on_c, 7, 77, 60
9, 65638, Note_on_c, 7, 77, 0
9, 65640, Note_on_c, 7, 77, 60
9, 65698, Note_on_c, 7, 77, 0
9, 65700, Note_on_c, 7, 77, 60
9, 65758, Note_on_c, 7, 77, 0
9, 65760, Note_on_c, 7, 81, 60
9, 65775, Note_on_c, 7, 81, 0
9, 65775, Note_on_c, 7, 79, 60
9, 65820, Note_on_c, 7, 79, 0
9, 65820, Note_on_c, 7, 77, 60
9, 65878, Note_on_c, 7, 77, 0
9, 65880, Note_on_c, 7, 77, 60
9, 65900, Note_on_c, 7, 77, 0
9, 65940, Note_on_c, 7, 77, 60
9, 65960, Note_on_c, 7, 77, 0
9, 66000, Note_on_c, 7, 76, 60
9, 66060, Note_on_c, 7, 76, 0
9, 66060, Note_on_c, 7, 77, 60
9, 66118, Note_on_c, 7, 77, 0
9, 66120, Note_on_c, 7, 76, 60
9, 66180, Note_on_c, 7, 76, 0
9, 66180, Note_on_c, 7, 77, 60
9, 66238, Note_on_c, 7, 77, 0
9, 66240, Note_on_c, 7, 76, 92
9, 66340, Note_on_c, 7, 76, 0
9, 66360, Note_on_c, 7, 72, 92
9, 66360, Note_on_c, 7, 84, 92
9, 66570, Note_on_c, 7, 84, 0
9, 66570, Note_on_c, 7, 72, 0
9, 66600, Note_on_c, 7, 72, 92
9, 66600, Note_on_c, 7, 84, 92
9, 66700, Note_on_c, 7, 84, 0
9, 66700, Note_on_c, 7, 72, 0
9, 66720, Note_on_c, 7, 72, 92
9, 66720, Note_on_c, 7, 84, 92
9, 66820, Note_on_c, 7, 84, 0
9, 66820, Note_on_c, 7, 72, 0
9, 66840, Note_on_c, 7, 72, 92
9, 66840, Note_on_c, 7, 84, 92
9, 66940, Note_on_c, 7, 84, 0
9, 66940, Note_on_c, 7, 72, 0
9, 66960, Note_on_c, 7, 72, 92
9, 66960, Note_on_c, 7, 84, 92
9, 67060, Note_on_c, 7, 84, 0
9, 67060, Note_on_c, 7, 72, 0
9, 67080, Note_on_c, 7, 72, 92
9, 67080, Note_on_c, 7, 84, 92
9, 67180, Note_on_c, 7, 84, 0
9, 67180, Note_on_c, 7, 72, 0
9, 67200, Note_on_c, 7, 72, 92
9, 67200, Note_on_c, 7, 84, 92
9, 67300, Note_on_c, 7, 84, 0
9, 67300, Note_on_c, 7, 72, 0
9, 68160, Note_on_c, 7, 66, 60
9, 68220, Note_on_c, 7, 66, 0
9, 68220, Note_on_c, 7, 67, 60
9, 68280, Note_on_c, 7, 67, 0
9, 68280, Note_on_c, 7, 69, 60
9, 68340, Note_on_c, 7, 69, 0
9, 68340, Note_on_c, 7, 67, 60
9, 68400, Note_on_c, 7, 67, 0
9, 68400, Note_on_c, 7, 66, 60
9, 68500, Note_on_c, 7, 66, 0
9, 68640, Note_on_c, 7, 67, 60
9, 68700, Note_on_c, 7, 67, 0
9, 68700, Note_on_c, 7, 69, 60
9, 68760, Note_on_c, 7, 69, 0
9, 68760, Note_on_c, 7, 70, 60
9, 68820, Note_on_c, 7, 70, 0
9, 68820, Note_on_c, 7, 69, 60
9, 68880, Note_on_c, 7, 69, 0
9, 68880, Note_on_c, 7, 67, 60
9, 68940, Note_on_c, 7, 67, 0
9, 68940, Note_on_c, 7, 69, 60
9, 69000, Note_on_c, 7, 69, 0
9, 69000, Note_on_c, 7, 67, 60
9, 69060, Note_on_c, 7, 67, 0
9, 69060, Note_on_c, 7, 65, 60
9, 69118, Note_on_c, 7, 65, 0
9, 69120, Note_on_c, 7, 64, 60
9, 69180, Note_on_c, 7, 64, 0
9, 69180, Note_on_c, 7, 65, 60
9, 69240, Note_on_c, 7, 65, 0
9, 69240, Note_on_c, 7, 67, 60
9, 69300, Note_on_c, 7, 67, 0
9, 69300, Note_on_c, 7, 65, 60
9, 69360, Note_on_c, 7, 65, 0
9, 69360, Note_on_c, 7, 64, 60
9, 69460, Note_on_c, 7, 64, 0
9, 69600, Note_on_c, 7, 65, 60
9, 69660, Note_on_c, 7, 65, 0
9, 69660, Note_on_c, 7, 67, 60
9, 69720, Note_on_c, 7, 67, 0
9, 69720, Note_on_c, 7, 69, 60
9, 69780, Note_on_c, 7, 69, 0
9, 69780, Note_on_c, 7, 67, 60
9, 69840, Note_on_c, 7, 67, 0
9, 69840, Note_on_c, 7, 65, 60
9, 69900, Note_on_c, 7, 65, 0
9, 69900, Note_on_c, 7, 67, 60
9, 69960, Note_on_c, 7, 67, 0
9, 69960, Note_on_c, 7, 65, 60
9, 70020, Note_on_c, 7, 65, 0
9, 70020, Note_on_c, 7, 64, 60
9, 70078, Note_on_c, 7, 64, 0
9, 70080, Note_on_c, 7, 62, 60
9, 70140, Note_on_c, 7, 62, 0
9, 70140, Note_on_c, 7, 64, 60
9, 70200, Note_on_c, 7, 64, 0
9, 70200, Note_on_c, 7, 65, 60
9, 70260, Note_on_c, 7, 65, 0
9, 70260, Note_on_c, 7, 64, 60
9, 70320, Note_on_c, 7, 64, 0
9, 70320, Note_on_c, 7, 62, 60
9, 70420, Note_on_c, 7, 62, 0
9, 70560, Note_on_c, 7, 64, 60
9, 70620, Note_on_c, 7, 64, 0
9, 70620, Note_on_c, 7, 65, 60
9, 70680, Note_on_c, 7, 65, 0
9, 70680, Note_on_c, 7, 67, 60
9, 70740, Note_on_c, 7, 67, 0
9, 70740, Note_on_c, 7, 65, 60
9, 70800, Note_on_c, 7, 65, 0
9, 70800, Note_on_c, 7, 64, 60
9, 70860, Note_on_c, 7, 64, 0
9, 70860, Note_on_c, 7, 60, 60
9, 70920, Note_on_c, 7, 60, 0
9, 70920, Note_on_c, 7, 62, 60
9, 70980, Note_on_c, 7, 62, 0
9, 70980, Note_on_c, 7, 64, 60
9, 71038, Note_on_c, 7, 64, 0
9, 71040, Note_on_c, 7, 65, 60
9, 71140, Note_on_c, 7, 65, 0
9, 71160, Note_on_c, 7, 60, 60
9, 71260, Note_on_c, 7, 60, 0
9, 71280, Note_on_c, 7, 60, 60
9, 71380, Note_on_c, 7, 60, 0
9, 71400, Note_on_c, 7, 60, 60
9, 71500, Note_on_c, 7, 60, 0
9, 71640, Note_on_c, 7, 60, 60
9, 71740, Note_on_c, 7, 60, 0
9, 71760, Note_on_c, 7, 60, 60
9, 71860, Note_on_c, 7, 60, 0
9, 71880, Note_on_c, 7, 60, 60
9, 71980, Note_on_c, 7, 60, 0
9, 72120, Note_on_c, 7, 62, 60
9, 72220, Note_on_c, 7, 62, 0
9, 72240, Note_on_c, 7, 62, 60
9, 72340, Note_on_c, 7, 62, 0
9, 72360, Note_on_c, 7, 62, 60
9, 72460, Note_on_c, 7, 62, 0
9, 72600, Note_on_c, 7, 62, 60
9, 72700, Note_on_c, 7, 62, 0
9, 72720, Note_on_c, 7, 62, 60
9, 72820, Note_on_c, 7, 62, 0
9, 72840, Note_on_c, 7, 62, 60
9, 72940, Note_on_c, 7, 62, 0
9, 73080, Note_on_c, 7, 60, 60
9, 73180, Note_on_c, 7, 60, 0
9, 73200, Note_on_c, 7, 60, 60
9, 73300, Note_on_c, 7, 60, 0
9, 73320, Note_on_c, 7, 60, 60
9, 73420, Note_on_c, 7, 60, 0
9, 73560, Note_on_c, 7, 60, 60
9, 73660, Note_on_c, 7, 60, 0
9, 73680, Note_on_c, 7, 60, 60
9, 73780, Note_on_c, 7, 60, 0
9, 73800, Note_on_c, 7, 60, 60
9, 73900, Note_on_c, 7, 60, 0
9, 73920, Note_on_c, 7, 60, 60
9, 74980, Note_on_c, 7, 60, 0
9, 75000, Note_on_c, 7, 60, 60
9, 75100, Note_on_c, 7, 60, 0
9, 75120, Note_on_c, 7, 60, 60
9, 75220, Note_on_c, 7, 60, 0
9, 75240, Note_on_c, 7, 60, 60
9, 75340, Note_on_c, 7, 60, 0
9, 75480, Note_on_c, 7, 60, 60
9, 75580, Note_on_c, 7, 60, 0
9, 75600, Note_on_c, 7, 60, 60
9, 75700, Note_on_c, 7, 60, 0
9, 75720, Note_on_c, 7, 60, 60
9, 75820, Note_on_c, 7, 60, 0
9, 75960, Note_on_c, 7, 62, 60
9, 76060, Note_on_c, 7, 62, 0
9, 76080, Note_on_c, 7, 62, 60
9, 76180, Note_on_c, 7, 62, 0
9, 76200, Note_on_c, 7, 62, 60
9, 76300, Note_on_c, 7, 62, 0
9, 76440, Note_on_c, 7, 62, 60
9, 76540, Note_on_c, 7, 62, 0
9, 76560, Note_on_c, 7, 62, 60
9, 76660, Note_on_c, 7, 62, 0
9, 76680, Note_on_c, 7, 62, 60
9, 76780, Note_on_c, 7, 62, 0
9, 76920, Note_on_c, 7, 60, 60
9, 77020, Note_on_c, 7, 60, 0
9, 77040, Note_on_c, 7, 60, 60
9, 77140, Note_on_c, 7, 60, 0
9, 77160, Note_on_c, 7, 60, 60
9, 77260, Note_on_c, 7, 60, 0
9, 77400, Note_on_c, 7, 60, 60
9, 77500, Note_on_c, 7, 60, 0
9, 77520, Note_on_c, 7, 60, 60
9, 77620, Note_on_c, 7, 60, 0
9, 77640, Note_on_c, 7, 60, 60
9, 77740, Note_on_c, 7, 60, 0
9, 77760, Note_on_c, 7, 60, 60
9, 78820, Note_on_c, 7, 60, 0
9, 78840, Note_on_c, 7, 84, 92
9, 79050, Note_on_c, 7, 84, 0
9, 79080, Note_on_c, 7, 84, 92
9, 79180, Note_on_c, 7, 84, 0
9, 79200, Note_on_c, 7, 84, 92
9, 79300, Note_on_c, 7, 84, 0
9, 79320, Note_on_c, 7, 84, 92
9, 79420, Note_on_c, 7, 84, 0
9, 79440, Note_on_c, 7, 84, 92
9, 79540, Note_on_c, 7, 84, 0
9, 79560, Note_on_c, 7, 81, 92
9, 79660, Note_on_c, 7, 81, 0
9, 79680, Note_on_c, 7, 81, 92
9, 79780, Note_on_c, 7, 81, 0
9, 79800, Note_on_c, 7, 81, 92
9, 80010, Note_on_c, 7, 81, 0
9, 80040, Note_on_c, 7, 81, 92
9, 80140, Note_on_c, 7, 81, 0
9, 80160, Note_on_c, 7, 81, 92
9, 80260, Note_on_c, 7, 81, 0
9, 80280, Note_on_c, 7, 81, 92
9, 80380, Note_on_c, 7, 81, 0
9, 80400, Note_on_c, 7, 81, 92
9, 80500, Note_on_c, 7, 81, 0
9, 80520, Note_on_c, 7, 79, 92
9, 80620, Note_on_c, 7, 79, 0
9, 80640, Note_on_c, 7, 79, 92
9, 80740, Note_on_c, 7, 79, 0
9, 80760, Note_on_c, 7, 87, 92
9, 80970, Note_on_c, 7, 87, 0
9, 81000, Note_on_c, 7, 86, 92
9, 81100, Note_on_c, 7, 86, 0
9, 81120, Note_on_c, 7, 87, 92
9, 81150, Note_on_c, 7, 87, 0
9, 81240, Note_on_c, 7, 86, 92
9, 81270, Note_on_c, 7, 86, 0
9, 81360, Note_on_c, 7, 87, 92
9, 81390, Note_on_c, 7, 87, 0
9, 81480, Note_on_c, 7, 83, 92
9, 81510, Note_on_c, 7, 83, 0
9, 81600, Note_on_c, 7, 84, 92
9, 81630, Note_on_c, 7, 84, 0
9, 81720, Note_on_c, 7, 83, 92
9, 81750, Note_on_c, 7, 83, 0
9, 81840, Note_on_c, 7, 84, 92
9, 81870, Note_on_c, 7, 84, 0
9, 81960, Note_on_c, 7, 79, 92
9, 81990, Note_on_c, 7, 79, 0
9, 82080, Note_on_c, 7, 80, 92
9, 82180, Note_on_c, 7, 80, 0
9, 82200, Note_on_c, 7, 79, 92
9, 82300, Note_on_c, 7, 79, 0
9, 82320, Note_on_c, 7, 80, 92
9, 82420, Note_on_c, 7, 80, 0
9, 82440, Note_on_c, 7, 76, 92
9, 82540, Note_on_c, 7, 76, 0
9, 82560, Note_on_c, 7, 77, 92
9, 82618, Note_on_c, 7, 77, 0
9, 82620, Note_on_c, 7, 77, 92
9, 82678, Note_on_c, 7, 77, 0
9, 82680, Note_on_c, 7, 76, 92
9, 82738, Note_on_c, 7, 76, 0
9, 82740, Note_on_c, 7, 76, 92
9, 82798, Note_on_c, 7, 76, 0
9, 82800, Note_on_c, 7, 80, 92
9, 82858, Note_on_c, 7, 80, 0
9, 82860, Note_on_c, 7, 80, 92
9, 82918, Note_on_c, 7, 80, 0
9, 82920, Note_on_c, 7, 79, 92
9, 82978, Note_on_c, 7, 79, 0
9, 82980, Note_on_c, 7, 79, 92
9, 83038, Note_on_c, 7, 79, 0
9, 83040, Note_on_c, 7, 77, 92
9, 83098, Note_on_c, 7, 77, 0
9, 83100, Note_on_c, 7, 77, 92
9, 83158, Note_on_c, 7, 77, 0
9, 83160, Note_on_c, 7, 75, 92
9, 83218, Note_on_c, 7, 75, 0
9, 83220, Note_on_c, 7, 75, 92
9, 83278, Note_on_c, 7, 75, 0
9, 83280, Note_on_c, 7, 74, 92
9, 83338, Note_on_c, 7, 74, 0
9, 83340, Note_on_c, 7, 74, 92
9, 83398, Note_on_c, 7, 74, 0
9, 83400, Note_on_c, 7, 72, 92
9, 83458, Note_on_c, 7, 72, 0
9, 83460, Note_on_c, 7, 72, 92
9, 83518, Note_on_c, 7, 72, 0
9, 83520, Note_on_c, 7, 71, 92
9, 83620, Note_on_c, 7, 71, 0
9, 83640, Note_on_c, 7, 62, 60
9, 83740, Note_on_c, 7, 62, 0
9, 83760, Note_on_c, 7, 62, 60
9, 83860, Note_on_c, 7, 62, 0
9, 83880, Note_on_c, 7, 62, 60
9, 83980, Note_on_c, 7, 62, 0
9, 84120, Note_on_c, 7, 62, 60
9, 84220, Note_on_c, 7, 62, 0
9, 84240, Note_on_c, 7, 62, 60
9, 84340, Note_on_c, 7, 62, 0
9, 84360, Note_on_c, 7, 62, 60
9, 84460, Note_on_c, 7, 62, 0
9, 84600, Note_on_c, 7, 63, 60
9, 84700, Note_on_c, 7, 63, 0
9, 84720, Note_on_c, 7, 63, 60
9, 84820, Note_on_c, 7, 63, 0
9, 84840, Note_on_c, 7, 63, 60
9, 84940, Note_on_c, 7, 63, 0
9, 85080, Note_on_c, 7, 63, 60
9, 85180, Note_on_c, 7, 63, 0
9, 85200, Note_on_c, 7, 63, 60
9, 85300, Note_on_c, 7, 63, 0
9, 85320, Note_on_c, 7, 63, 60
9, 85420, Note_on_c, 7, 63, 0
9, 85560, Note_on_c, 7, 62, 60
9, 85660, Note_on_c, 7, 62, 0
9, 85680, Note_on_c, 7, 62, 60
9, 85780, Note_on_c, 7, 62, 0
9, 85800, Note_on_c, 7, 62, 60
9, 85900, Note_on_c, 7, 62, 0
9, 86040, Note_on_c, 7, 62, 60
9, 86140, Note_on_c, 7, 62, 0
9, 86160, Note_on_c, 7, 62, 60
9, 86260, Note_on_c, 7, 62, 0
9, 86280, Note_on_c, 7, 62, 60
9, 86380, Note_on_c, 7, 62, 0
9, 86520, Note_on_c, 7, 63, 60
9, 86620, Note_on_c, 7, 63, 0
9, 86640, Note_on_c, 7, 63, 60
9, 86740, Note_on_c, 7, 63, 0
9, 86760, Note_on_c, 7, 63, 60
9, 86860, Note_on_c, 7, 63, 0
9, 87000, Note_on_c, 7, 63, 60
9, 87100, Note_on_c, 7, 63, 0
9, 87120, Note_on_c, 7, 63, 60
9, 87220, Note_on_c, 7, 63, 0
9, 87240, Note_on_c, 7, 63, 60
9, 87340, Note_on_c, 7, 63, 0
9, 87360, Note_on_c, 7, 62, 60
9, 87418, Note_on_c, 7, 62, 0
9, 87420, Note_on_c, 7, 67, 60
9, 87478, Note_on_c, 7, 67, 0
9, 87480, Note_on_c, 7, 67, 60
9, 87538, Note_on_c, 7, 67, 0
9, 87540, Note_on_c, 7, 67, 60
9, 87598, Note_on_c, 7, 67, 0
9, 87600, Note_on_c, 7, 67, 60
9, 87810, Note_on_c, 7, 67, 0
9, 87840, Note_on_c, 7, 71, 60
9, 87855, Note_on_c, 7, 71, 0
9, 87855, Note_on_c, 7, 69, 60
9, 87900, Note_on_c, 7, 69, 0
9, 87900, Note_on_c, 7, 67, 60
9, 87958, Note_on_c, 7, 67, 0
9, 87960, Note_on_c, 7, 67, 60
9, 87980, Note_on_c, 7, 67, 0
9, 88020, Note_on_c, 7, 67, 60
9, 88040, Note_on_c, 7, 67, 0
9, 88080, Note_on_c, 7, 66, 60
9, 88140, Note_on_c, 7, 66, 0
9, 88140, Note_on_c, 7, 67, 60
9, 88198, Note_on_c, 7, 67, 0
9, 88200, Note_on_c, 7, 66, 60
9, 88260, Note_on_c, 7, 66, 0
9, 88260, Note_on_c, 7, 67, 60
9, 88318, Note_on_c, 7, 67, 0
9, 88320, Note_on_c, 7, 66, 60
9, 89250, Note_on_c, 7, 66, 0
9, 89340, Note_on_c, 7, 77, 60
9, 89398, Note_on_c, 7, 77, 0
9, 89400, Note_on_c, 7, 77, 60
9, 89458, Note_on_c, 7, 77, 0
9, 89460, Note_on_c, 7, 77, 60
9, 89518, Note_on_c, 7, 77, 0
9, 89520, Note_on_c, 7, 77, 60
9, 89730, Note_on_c, 7, 77, 0
9, 89760, Note_on_c, 7, 81, 60
9, 89775, Note_on_c, 7, 81, 0
9, 89775, Note_on_c, 7, 79, 60
9, 89820, Note_on_c, 7, 79, 0
9, 89820, Note_on_c, 7, 77, 60
9, 89878, Note_on_c, 7, 77, 0
9, 89880, Note_on_c, 7, 77, 60
9, 89900, Note_on_c, 7, 77, 0
9, 89940, Note_on_c, 7, 77, 60
9, 89960, Note_on_c, 7, 77, 0
9, 90000, Note_on_c, 7, 76, 60
9, 90060, Note_on_c, 7, 76, 0
9, 90060, Note_on_c, 7, 77, 60
9, 90118, Note_on_c, 7, 77, 0
9, 90120, Note_on_c, 7, 76, 60
9, 90180, Note_on_c, 7, 76, 0
9, 90180, Note_on_c, 7, 77, 60
9, 90238, Note_on_c, 7, 77, 0
9, 90240, Note_on_c, 7, 76, 60
9, 90340, Note_on_c, 7, 76, 0
9, 90360, Note_on_c, 7, 72, 92
9, 90360, Note_on_c, 7, 84, 92
9, 90570, Note_on_c, 7, 84, 0
9, 90570, Note_on_c, 7, 72, 0
9, 90600, Note_on_c, 7, 72, 92
9, 90600, Note_on_c, 7, 84, 92
9, 90700, Note_on_c, 7, 84, 0
9, 90700, Note_on_c, 7, 72, 0
9, 90720, Note_on_c, 7, 72, 92
9, 90720, Note_on_c, 7, 84, 92
9, 90820, Note_on_c, 7, 84, 0
9, 90820, Note_on_c, 7, 72, 0
9, 90840, Note_on_c, 7, 72, 92
9, 90840, Note_on_c, 7, 84, 92
9, 90940, Note_on_c, 7, 84, 0
9, 90940, Note_on_c, 7, 72, 0
9, 90960, Note_on_c, 7, 72, 92
9, 90960, Note_on_c, 7, 84, 92
9, 91060, Note_on_c, 7, 84, 0
9, 91060, Note_on_c, 7, 72, 0
9, 91080, Note_on_c, 7, 72, 92
9, 91080, Note_on_c, 7, 84, 92
9, 91180, Note_on_c, 7, 84, 0
9, 91180, Note_on_c, 7, 72, 0
9, 91200, Note_on_c, 7, 72, 92
9, 91200, Note_on_c, 7, 84, 92
9, 91300, Note_on_c, 7, 84, 0
9, 91300, Note_on_c, 7, 72, 0
9, 91320, Note_on_c, 7, 72, 92
9, 91320, Note_on_c, 7, 84, 92
9, 91530, Note_on_c, 7, 84, 0
9, 91530, Note_on_c, 7, 72, 0
9, 91560, Note_on_c, 7, 72, 92
9, 91560, Note_on_c, 7, 84, 92
9, 91660, Note_on_c, 7, 84, 0
9, 91660, Note_on_c, 7, 72, 0
9, 91680, Note_on_c, 7, 72, 92
9, 91680, Note_on_c, 7, 84, 92
9, 91780, Note_on_c, 7, 84, 0
9, 91780, Note_on_c, 7, 72, 0
9, 91800, Note_on_c, 7, 72, 92
9, 91800, Note_on_c, 7, 84, 92
9, 91900, Note_on_c, 7, 84, 0
9, 91900, Note_on_c, 7, 72, 0
9, 91920, Note_on_c, 7, 72, 92
9, 91920, Note_on_c, 7, 84, 92
9, 92020, Note_on_c, 7, 84, 0
9, 92020, Note_on_c, 7, 72, 0
9, 92040, Note_on_c, 7, 72, 92
9, 92040, Note_on_c, 7, 84, 92
9, 92140, Note_on_c, 7, 84, 0
9, 92140, Note_on_c, 7, 72, 0
9, 92160, Note_on_c, 7, 72, 92
9, 92160, Note_on_c, 7, 84, 92
9, 92260, Note_on_c, 7, 84, 0
9, 92260, Note_on_c, 7, 72, 0
9, 92280, Note_on_c, 7, 67, 60
9, 92380, Note_on_c, 7, 67, 0
9, 92400, Note_on_c, 7, 67, 60
9, 92500, Note_on_c, 7, 67, 0
9, 92520, Note_on_c, 7, 67, 60
9, 92620, Note_on_c, 7, 67, 0
9, 92760, Note_on_c, 7, 67, 60
9, 92860, Note_on_c, 7, 67, 0
9, 92880, Note_on_c, 7, 67, 60
9, 92980, Note_on_c, 7, 67, 0
9, 93000, Note_on_c, 7, 67, 60
9, 93100, Note_on_c, 7, 67, 0
9, 93240, Note_on_c, 7, 69, 60
9, 93340, Note_on_c, 7, 69, 0
9, 93360, Note_on_c, 7, 69, 60
9, 93460, Note_on_c, 7, 69, 0
9, 93480, Note_on_c, 7, 69, 60
9, 93580, Note_on_c, 7, 69, 0
9, 93720, Note_on_c, 7, 69, 60
9, 93820, Note_on_c, 7, 69, 0
9, 93840, Note_on_c, 7, 69, 60
9, 93940, Note_on_c, 7, 69, 0
9, 93960, Note_on_c, 7, 69, 60
9, 94060, Note_on_c, 7, 69, 0
9, 94200, Note_on_c, 7, 67, 60
9, 94300, Note_on_c, 7, 67, 0
9, 94320, Note_on_c, 7, 67, 60
9, 94420, Note_on_c, 7, 67, 0
9, 94440, Note_on_c, 7, 67, 60
9, 94540, Note_on_c, 7, 67, 0
9, 94680, Note_on_c, 7, 67, 60
9, 94780, Note_on_c, 7, 67, 0
9, 94800, Note_on_c, 7, 67, 60
9, 94900, Note_on_c, 7, 67, 0
9, 94920, Note_on_c, 7, 67, 60
9, 95020, Note_on_c, 7, 67, 0
9, 95040, Note_on_c, 7, 62, 60
9, 95160, Note_on_c, 7, 62, 0
9, 95160, Note_on_c, 7, 67, 60
9, 95280, Note_on_c, 7, 67, 0
9, 95280, Note_on_c, 7, 64, 60
9, 95400, Note_on_c, 7, 64, 0
9, 95400, Note_on_c, 7, 67, 60
9, 95520, Note_on_c, 7, 67, 0
9, 95520, Note_on_c, 7, 65, 60
9, 95640, Note_on_c, 7, 65, 0
9, 95640, Note_on_c, 7, 67, 60
9, 95760, Note_on_c, 7, 67, 0
9, 95760, Note_on_c, 7, 62, 60
9, 95880, Note_on_c, 7, 62, 0
9, 95880, Note_on_c, 7, 67, 60
9, 95980, Note_on_c, 7, 67, 0
9, 96000, Note_on_c, 7, 64, 60
9, 96100, Note_on_c, 7, 64, 0
9, 96120, Note_on_c, 7, 67, 60
9, 96220, Note_on_c, 7, 67, 0
9, 96240, Note_on_c, 7, 67, 60
9, 96340, Note_on_c, 7, 67, 0
9, 96360, Note_on_c, 7, 67, 60
9, 96460, Note_on_c, 7, 67, 0
9, 96600, Note_on_c, 7, 67, 60
9, 96700, Note_on_c, 7, 67, 0
9, 96720, Note_on_c, 7, 67, 60
9, 96820, Note_on_c, 7, 67, 0
9, 96840, Note_on_c, 7, 67, 60
9, 96940, Note_on_c, 7, 67, 0
9, 97080, Note_on_c, 7, 69, 60
9, 97180, Note_on_c, 7, 69, 0
9, 97200, Note_on_c, 7, 69, 60
9, 97300, Note_on_c, 7, 69, 0
9, 97320, Note_on_c, 7, 69, 60
9, 97420, Note_on_c, 7, 69, 0
9, 97560, Note_on_c, 7, 69, 60
9, 97660, Note_on_c, 7, 69, 0
9, 97680, Note_on_c, 7, 69, 60
9, 97780, Note_on_c, 7, 69, 0
9, 97800, Note_on_c, 7, 69, 60
9, 97900, Note_on_c, 7, 69, 0
9, 98040, Note_on_c, 7, 67, 60
9, 98140, Note_on_c, 7, 67, 0
9, 98160, Note_on_c, 7, 67, 60
9, 98260, Note_on_c, 7, 67, 0
9, 98280, Note_on_c, 7, 67, 60
9, 98380, Note_on_c, 7, 67, 0
9, 98520, Note_on_c, 7, 67, 60
9, 98620, Note_on_c, 7, 67, 0
9, 98640, Note_on_c, 7, 67, 60
9, 98740, Note_on_c, 7, 67, 0
9, 98760, Note_on_c, 7, 67, 60
9, 98860, Note_on_c, 7, 67, 0
9, 98880, Note_on_c, 7, 62, 60
9, 99000, Note_on_c, 7, 62, 0
9, 99000, Note_on_c, 7, 67, 60
9, 99120, Note_on_c, 7, 67, 0
9, 99120, Note_on_c, 7, 64, 60
9, 99240, Note_on_c, 7, 64, 0
9, 99240, Note_on_c, 7, 67, 60
9, 99360, Note_on_c, 7, 67, 0
9, 99360, Note_on_c, 7, 65, 60
9, 99480, Note_on_c, 7, 65, 0
9, 99480, Note_on_c, 7, 67, 60
9, 99600, Note_on_c, 7, 67, 0
9, 99600, Note_on_c, 7, 62, 60
9, 99720, Note_on_c, 7, 62, 0
9, 99720, Note_on_c, 7, 67, 60
9, 99820, Note_on_c, 7, 67, 0
9, 99840, Note_on_c, 7, 64, 60
9, 99940, Note_on_c, 7, 64, 0
9, 99960, Note_on_c, 7, 88, 92
9, 100170, Note_on_c, 7, 88, 0
9, 100200, Note_on_c, 7, 87, 92
9, 100300, Note_on_c, 7, 87, 0
9, 100320, Note_on_c, 7, 88, 92
9, 100420, Note_on_c, 7, 88, 0
9, 100440, Note_on_c, 7, 87, 92
9, 100540, Note_on_c, 7, 87, 0
9, 100560, Note_on_c, 7, 88, 92
9, 100660, Note_on_c, 7, 88, 0
9, 100680, Note_on_c, 7, 83, 92
9, 100780, Note_on_c, 7, 83, 0
9, 100800, Note_on_c, 7, 84, 92
9, 100900, Note_on_c, 7, 84, 0
9, 100920, Note_on_c, 7, 84, 92
9, 101130, Note_on_c, 7, 84, 0
9, 101160, Note_on_c, 7, 83, 92
9, 101260, Note_on_c, 7, 83, 0
9, 101280, Note_on_c, 7, 84, 92
9, 101380, Note_on_c, 7, 84, 0
9, 101400, Note_on_c, 7, 83, 92
9, 101500, Note_on_c, 7, 83, 0
9, 101520, Note_on_c, 7, 84, 92
9, 101620, Note_on_c, 7, 84, 0
9, 101640, Note_on_c, 7, 80, 92
9, 101740, Note_on_c, 7, 80, 0
9, 101760, Note_on_c, 7, 81, 92
9, 101860, Note_on_c, 7, 81, 0
9, 101880, Note_on_c, 7, 81, 92
9, 102090, Note_on_c, 7, 81, 0
9, 102120, Note_on_c, 7, 80, 92
9, 102220, Note_on_c, 7, 80, 0
9, 102240, Note_on_c, 7, 81, 92
9, 102340, Note_on_c, 7, 81, 0
9, 102360, Note_on_c, 7, 80, 92
9, 102460, Note_on_c, 7, 80, 0
9, 102480, Note_on_c, 7, 81, 92
9, 102580, Note_on_c, 7, 81, 0
9, 102600, Note_on_c, 7, 82, 92
9, 102700, Note_on_c, 7, 82, 0
9, 102720, Note_on_c, 7, 81, 92
9, 102778, Note_on_c, 7, 81, 0
9, 102780, Note_on_c, 7, 81, 92
9, 102838, Note_on_c, 7, 81, 0
9, 102840, Note_on_c, 7, 85, 92
9, 102898, Note_on_c, 7, 85, 0
9, 102900, Note_on_c, 7, 85, 92
9, 102958, Note_on_c, 7, 85, 0
9, 102960, Note_on_c, 7, 86, 92
9, 103018, Note_on_c, 7, 86, 0
9, 103020, Note_on_c, 7, 86, 92
9, 103078, Note_on_c, 7, 86, 0
9, 103080, Note_on_c, 7, 88, 92
9, 103138, Note_on_c, 7, 88, 0
9, 103140, Note_on_c, 7, 88, 92
9, 103198, Note_on_c, 7, 88, 0
9, 103200, Note_on_c, 7, 89, 92
9, 103258, Note_on_c, 7, 89, 0
9, 103260, Note_on_c, 7, 89, 92
9, 103318, Note_on_c, 7, 89, 0
9, 103320, Note_on_c, 7, 90, 92
9, 103378, Note_on_c, 7, 90, 0
9, 103380, Note_on_c, 7, 90, 92
9, 103438, Note_on_c, 7, 90, 0
9, 103440, Note_on_c, 7, 91, 92
9, 103498, Note_on_c, 7, 91, 0
9, 103500, Note_on_c, 7, 91, 92
9, 103558, Note_on_c, 7, 91, 0
9, 103560, Note_on_c, 7, 89, 92
9, 103618, Note_on_c, 7, 89, 0
9, 103620, Note_on_c, 7, 89, 92
9, 103678, Note_on_c, 7, 89, 0
9, 103680, Note_on_c, 7, 88, 92
9, 103738, Note_on_c, 7, 88, 0
9, 103740, Note_on_c, 7, 88, 92
9, 103798, Note_on_c, 7, 88, 0
9, 103800, Note_on_c, 7, 88, 92
9, 103858, Note_on_c, 7, 88, 0
9, 103860, Note_on_c, 7, 88, 92
9, 103918, Note_on_c, 7, 88, 0
9, 103920, Note_on_c, 7, 88, 92
9, 103978, Note_on_c, 7, 88, 0
9, 103980, Note_on_c, 7, 88, 92
9, 104038, Note_on_c, 7, 88, 0
9, 104040, Note_on_c, 7, 88, 92
9, 104098, Note_on_c, 7, 88, 0
9, 104100, Note_on_c, 7, 88, 92
9, 104158, Note_on_c, 7, 88, 0
9, 104160, Note_on_c, 7, 86, 92
9, 104218, Note_on_c, 7, 86, 0
9, 104220, Note_on_c, 7, 86, 92
9, 104278, Note_on_c, 7, 86, 0
9, 104280, Note_on_c, 7, 86, 92
9, 104338, Note_on_c, 7, 86, 0
9, 104340, Note_on_c, 7, 86, 92
9, 104398, Note_on_c, 7, 86, 0
9, 104400, Note_on_c, 7, 86, 92
9, 104458, Note_on_c, 7, 86, 0
9, 104460, Note_on_c, 7, 86, 92
9, 104518, Note_on_c, 7, 86, 0
9, 104520, Note_on_c, 7, 86, 92
9, 104578, Note_on_c, 7, 86, 0
9, 104580, Note_on_c, 7, 86, 92
9, 104638, Note_on_c, 7, 86, 0
9, 104640, Note_on_c, 7, 84, 92
9, 104740, Note_on_c, 7, 84, 0
9, 104760, Note_on_c, 7, 88, 92
9, 104970, Note_on_c, 7, 88, 0
9, 105000, Note_on_c, 7, 87, 92
9, 105100, Note_on_c, 7, 87, 0
9, 105120, Note_on_c, 7, 88, 92
9, 105220, Note_on_c, 7, 88, 0
9, 105240, Note_on_c, 7, 87, 92
9, 105340, Note_on_c, 7, 87, 0
9, 105360, Note_on_c, 7, 88, 92
9, 105460, Note_on_c, 7, 88, 0
9, 105480, Note_on_c, 7, 83, 92
9, 105580, Note_on_c, 7, 83, 0
9, 105600, Note_on_c, 7, 84, 92
9, 105700, Note_on_c, 7, 84, 0
9, 105720, Note_on_c, 7, 84, 92
9, 105930, Note_on_c, 7, 84, 0
9, 105960, Note_on_c, 7, 83, 92
9, 106060, Note_on_c, 7, 83, 0
9, 106080, Note_on_c, 7, 84, 92
9, 106180, Note_on_c, 7, 84, 0
9, 106200, Note_on_c, 7, 83, 92
9, 106300, Note_on_c, 7, 83, 0
9, 106320, Note_on_c, 7, 84, 92
9, 106420, Note_on_c, 7, 84, 0
9, 106440, Note_on_c, 7, 80, 92
9, 106540, Note_on_c, 7, 80, 0
9, 106560, Note_on_c, 7, 81, 92
9, 106660, Note_on_c, 7, 81, 0
9, 106680, Note_on_c, 7, 81, 92
9, 106890, Note_on_c, 7, 81, 0
9, 106920, Note_on_c, 7, 80, 92
9, 107020, Note_on_c, 7, 80, 0
9, 107040, Note_on_c, 7, 81, 92
9, 107140, Note_on_c, 7, 81, 0
9, 107160, Note_on_c, 7, 80, 92
9, 107260, Note_on_c, 7, 80, 0
9, 107280, Note_on_c, 7, 81, 92
9, 107380, Note_on_c, 7, 81, 0
9, 107400, Note_on_c, 7, 82, 92
9, 107500, Note_on_c, 7, 82, 0
9, 107520, Note_on_c, 7, 81, 92
9, 107578, Note_on_c, 7, 81, 0
9, 107580, Note_on_c, 7, 81, 92
9, 107638, Note_on_c, 7, 81, 0
9, 107640, Note_on_c, 7, 85, 92
9, 107698, Note_on_c, 7, 85, 0
9, 107700, Note_on_c, 7, 85, 92
9, 107758, Note_on_c, 7, 85, 0
9, 107760, Note_on_c, 7, 86, 92
9, 107818, Note_on_c, 7, 86, 0
9, 107820, Note_on_c, 7, 86, 92
9, 107878, Note_on_c, 7, 86, 0
9, 107880, Note_on_c, 7, 88, 92
9, 107938, Note_on_c, 7, 88, 0
9, 107940, Note_on_c, 7, 88, 92
9, 107998, Note_on_c, 7, 88, 0
9, 108000, Note_on_c, 7, 89, 92
9, 108058, Note_on_c, 7, 89, 0
9, 108060, Note_on_c, 7, 89, 92
9, 108118, Note_on_c, 7, 89, 0
9, 108120, Note_on_c, 7, 90, 92
9, 108178, Note_on_c, 7, 90, 0
9, 108180, Note_on_c, 7, 90, 92
9, 108238, Note_on_c, 7, 90, 0
9, 108240, Note_on_c, 7, 91, 92
9, 108298, Note_on_c, 7, 91, 0
9, 108300, Note_on_c, 7, 91, 92
9, 108358, Note_on_c, 7, 91, 0
9, 108360, Note_on_c, 7, 89, 92
9, 108418, Note_on_c, 7, 89, 0
9, 108420, Note_on_c, 7, 89, 92
9, 108478, Note_on_c, 7, 89, 0
9, 108480, Note_on_c, 7, 88, 92
9, 108580, Note_on_c, 7, 88, 0
9, 110400, Note_on_c, 7, 62, 60
9, 111120, Note_on_c, 7, 62, 0
9, 111120, Note_on_c, 7, 64, 60
9, 111300, Note_on_c, 7, 64, 0
9, 111300, Note_on_c, 7, 65, 60
9, 111358, Note_on_c, 7, 65, 0
9, 111360, Note_on_c, 7, 65, 60
9, 111840, Note_on_c, 7, 65, 0
9, 111840, Note_on_c, 7, 64, 60
9, 111940, Note_on_c, 7, 64, 0
9, 112800, Note_on_c, 7, 67, 92
9, 112800, Note_on_c, 7, 72, 92
9, 112800, Note_on_c, 7, 76, 92
9, 112900, Note_on_c, 7, 76, 0
9, 112900, Note_on_c, 7, 72, 0
9, 112900, Note_on_c, 7, 67, 0
9, 113280, Note_on_c, 7, 65, 92
9, 113280, Note_on_c, 7, 72, 92
9, 113280, Note_on_c, 7, 77, 92
9, 113380, Note_on_c, 7, 77, 0
9, 113380, Note_on_c, 7, 72, 0
9, 113380, Note_on_c, 7, 65, 0
9, 113760, Note_on_c, 7, 65, 92
9, 113760, Note_on_c, 7, 72, 92
9, 113760, Note_on_c, 7, 81, 92
9, 113860, Note_on_c, 7, 81, 0
9, 113860, Note_on_c, 7, 72, 0
9, 113860, Note_on_c, 7, 65, 0
9, 114240, Note_on_c, 7, 55, 92
9, 114340, Note_on_c, 7, 55, 0
9, 114720, Note_on_c, 7, 67, 92
9, 114720, Note_on_c, 7, 74, 92
9, 114720, Note_on_c, 7, 83, 92
9, 114820, Note_on_c, 7, 83, 0
9, 114820, Note_on_c, 7, 74, 0
9, 114820, Note_on_c, 7, 67, 0
9, 115260, Note_on_c, 7, 60, 60
9, 115318, Note_on_c, 7, 60, 0
9, 115320, Note_on_c, 7, 60, 60
9, 115378, Note_on_c, 7, 60, 0
9, 115380, Note_on_c, 7, 60, 60
9, 115438, Note_on_c, 7, 60, 0
9, 115440, Note_on_c, 7, 60, 60
9, 115498, Note_on_c, 7, 60, 0
9, 115500, Note_on_c, 7, 60, 60
9, 115558, Note_on_c, 7, 60, 0
9, 115560, Note_on_c, 7, 60, 60
9, 115618, Note_on_c, 7, 60, 0
9, 115620, Note_on_c, 7, 60, 60
9, 115678, Note_on_c, 7, 60, 0
9, 115680, Note_on_c, 7, 64, 60
9, 115695, Note_on_c, 7, 64, 0
9, 115695, Note_on_c, 7, 62, 60
9, 115740, Note_on_c, 7, 62, 0
9, 115740, Note_on_c, 7, 60, 60
9, 115798, Note_on_c, 7, 60, 0
9, 115800, Note_on_c, 7, 60, 60
9, 115820, Note_on_c, 7, 60, 0
9, 115860, Note_on_c, 7, 60, 60
9, 115880, Note_on_c, 7, 60, 0
9, 115920, Note_on_c, 7, 59, 60
9, 115980, Note_on_c, 7, 59, 0
9, 115980, Note_on_c, 7, 60, 60
9, 116038, Note_on_c, 7, 60, 0
9, 116040, Note_on_c, 7, 59, 60
9, 116100, Note_on_c, 7, 59, 0
9, 116100, Note_on_c, 7, 60, 60
9, 116158, Note_on_c, 7, 60, 0
9, 116160, Note_on_c, 7, 64, 60
9, 116218, Note_on_c, 7, 64, 0
9, 116220, Note_on_c, 7, 64, 60
9, 116278, Note_on_c, 7, 64, 0
9, 116280, Note_on_c, 7, 64, 60
9, 116338, Note_on_c, 7, 64, 0
9, 116340, Note_on_c, 7, 64, 60
9, 116398, Note_on_c, 7, 64, 0
9, 116400, Note_on_c, 7, 64, 60
9, 116458, Note_on_c, 7, 64, 0
9, 116460, Note_on_c, 7, 64, 60
9, 116518, Note_on_c, 7, 64, 0
9, 116520, Note_on_c, 7, 64, 60
9, 116578, Note_on_c, 7, 64, 0
9, 116580, Note_on_c, 7, 64, 60
9, 116638, Note_on_c, 7, 64, 0
9, 116640, Note_on_c, 7, 67, 60
9, 116655, Note_on_c, 7, 67, 0
9, 116655, Note_on_c, 7, 65, 60
9, 116700, Note_on_c, 7, 65, 0
9, 116700, Note_on_c, 7, 64, 60
9, 116758, Note_on_c, 7, 64, 0
9, 116760, Note_on_c, 7, 64, 60
9, 116780, Note_on_c, 7, 64, 0
9, 116820, Note_on_c, 7, 64, 60
9, 116840, Note_on_c, 7, 64, 0
9, 116880, Note_on_c, 7, 63, 60
9, 116940, Note_on_c, 7, 63, 0
9, 116940, Note_on_c, 7, 64, 60
9, 116998, Note_on_c, 7, 64, 0
9, 117000, Note_on_c, 7, 63, 60
9, 117060, Note_on_c, 7, 63, 0
9, 117060, Note_on_c, 7, 64, 60
9, 117118, Note_on_c, 7, 64, 0
9, 117120, Note_on_c, 7, 67, 60
9, 117178, Note_on_c, 7, 67, 0
9, 117180, Note_on_c, 7, 67, 60
9, 117238, Note_on_c, 7, 67, 0
9, 117240, Note_on_c, 7, 67, 60
9, 117298, Note_on_c, 7, 67, 0
9, 117300, Note_on_c, 7, 67, 60
9, 117358, Note_on_c, 7, 67, 0
9, 117360, Note_on_c, 7, 67, 60
9, 117418, Note_on_c, 7, 67, 0
9, 117420, Note_on_c, 7, 67, 60
9, 117478, Note_on_c, 7, 67, 0
9, 117480, Note_on_c, 7, 67, 60
9, 117538, Note_on_c, 7, 67, 0
9, 117540, Note_on_c, 7, 67, 60
9, 117598, Note_on_c, 7, 67, 0
9, 117600, Note_on_c, 7, 71, 60
9, 117615, Note_on_c, 7, 71, 0
9, 117615, Note_on_c, 7, 69, 60
9, 117660, Note_on_c, 7, 69, 0
9, 117660, Note_on_c, 7, 67, 60
9, 117718, Note_on_c, 7, 67, 0
9, 117720, Note_on_c, 7, 67, 60
9, 117740, Note_on_c, 7, 67, 0
9, 117780, Note_on_c, 7, 67, 60
9, 117800, Note_on_c, 7, 67, 0
9, 117840, Note_on_c, 7, 66, 60
9, 117900, Note_on_c, 7, 66, 0
9, 117900, Note_on_c, 7, 67, 60
9, 117958, Note_on_c, 7, 67, 0
9, 117960, Note_on_c, 7, 66, 60
9, 118020, Note_on_c, 7, 66, 0
9, 118020, Note_on_c, 7, 67, 60
9, 118078, Note_on_c, 7, 67, 0
9, 118080, Note_on_c, 7, 72, 60
9, 118138, Note_on_c, 7, 72, 0
9, 118140, Note_on_c, 7, 72, 60
9, 118198, Note_on_c, 7, 72, 0
9, 118200, Note_on_c, 7, 72, 60
9, 118258, Note_on_c, 7, 72, 0
9, 118260, Note_on_c, 7, 72, 60
9, 118318, Note_on_c, 7, 72, 0
9, 118320, Note_on_c, 7, 72, 60
9, 118378, Note_on_c, 7, 72, 0
9, 118380, Note_on_c, 7, 72, 60
9, 118438, Note_on_c, 7, 72, 0
9, 118440, Note_on_c, 7, 72, 60
9, 118498, Note_on_c, 7, 72, 0
9, 118500, Note_on_c, 7, 72, 60
9, 118558, Note_on_c, 7, 72, 0
9, 118560, Note_on_c, 7, 76, 60
9, 118575, Note_on_c, 7, 76, 0
9, 118575, Note_on_c, 7, 74, 60
9, 118620, Note_on_c, 7, 74, 0
9, 118620, Note_on_c, 7, 72, 61
9, 118678, Note_on_c, 7, 72, 0
9, 118680, Note_on_c, 7, 72, 62
9, 118700, Note_on_c, 7, 72, 0
9, 118740, Note_on_c, 7, 72, 63
9, 118760, Note_on_c, 7, 72, 0
9, 118800, Note_on_c, 7, 71, 64
9, 118860, Note_on_c, 7, 71, 0
9, 118860, Note_on_c, 7, 72, 65
9, 118918, Note_on_c, 7, 72, 0
9, 118920, Note_on_c, 7, 71, 66
9, 118980, Note_on_c, 7, 71, 0
9, 118980, Note_on_c, 7, 72, 67
9, 119038, Note_on_c, 7, 72, 0
9, 119040, Note_on_c, 7, 76, 68
9, 119098, Note_on_c, 7, 76, 0
9, 119100, Note_on_c, 7, 76, 69
9, 119158, Note_on_c, 7, 76, 0
9, 119160, Note_on_c, 7, 76, 70
9, 119218, Note_on_c, 7, 76, 0
9, 119220, Note_on_c, 7, 76, 71
9, 119278, Note_on_c, 7, 76, 0
9, 119280, Note_on_c, 7, 76, 72
9, 119338, Note_on_c, 7, 76, 0
9, 119340, Note_on_c, 7, 76, 73
9, 119398, Note_on_c, 7, 76, 0
9, 119400, Note_on_c, 7, 76, 74
9, 119458, Note_on_c, 7, 76, 0
9, 119460, Note_on_c, 7, 76, 75
9, 119518, Note_on_c, 7, 76, 0
9, 119520, Note_on_c, 7, 79, 76
9, 119535, Note_on_c, 7, 79, 0
9, 119535, Note_on_c, 7, 77, 76
9, 119580, Note_on_c, 7, 77, 0
9, 119580, Note_on_c, 7, 76, 77
9, 119638, Note_on_c, 7, 76, 0
9, 119640, Note_on_c, 7, 76, 79
9, 119660, Note_on_c, 7, 76, 0
9, 119700, Note_on_c, 7, 76, 81
9, 119720, Note_on_c, 7, 76, 0
9, 119760, Note_on_c, 7, 75, 83
9, 119820, Note_on_c, 7, 75, 0
9, 119820, Note_on_c, 7, 76, 85
9, 119878, Note_on_c, 7, 76, 0
9, 119880, Note_on_c, 7, 75, 87
9, 119940, Note_on_c, 7, 75, 0
9, 119940, Note_on_c, 7, 76, 89
9, 119998, Note_on_c, 7, 76, 0
9, 120000, Note_on_c, 7, 79, 92
9, 120058, Note_on_c, 7, 79, 0
9, 120060, Note_on_c, 7, 79, 92
9, 120118, Note_on_c, 7, 79, 0
9, 120120, Note_on_c, 7, 79, 92
9, 120178, Note_on_c, 7, 79, 0
9, 120180, Note_on_c, 7, 79, 92
9, 120238, Note_on_c, 7, 79, 0
9, 120240, Note_on_c, 7, 79, 92
9, 120298, Note_on_c, 7, 79, 0
9, 120300, Note_on_c, 7, 79, 92
9, 120358, Note_on_c, 7, 79, 0
9, 120360, Note_on_c, 7, 79, 92
9, 120418, Note_on_c, 7, 79, 0
9, 120420, Note_on_c, 7, 79, 92
9, 120478, Note_on_c, 7, 79, 0
9, 120480, Note_on_c, 7, 83, 92
9, 120495, Note_on_c, 7, 83, 0
9, 120495, Note_on_c, 7, 81, 92
9, 120540, Note_on_c, 7, 81, 0
9, 120540, Note_on_c, 7, 79, 92
9, 120598, Note_on_c, 7, 79, 0
9, 120600, Note_on_c, 7, 79, 92
9, 120620, Note_on_c, 7, 79, 0
9, 120660, Note_on_c, 7, 79, 92
9, 120680, Note_on_c, 7, 79, 0
9, 120720, Note_on_c, 7, 78, 92
9, 120780, Note_on_c, 7, 78, 0
9, 120780, Note_on_c, 7, 79, 92
9, 120838, Note_on_c, 7, 79, 0
9, 120840, Note_on_c, 7, 78, 92
9, 120900, Note_on_c, 7, 78, 0
9, 120900, Note_on_c, 7, 79, 92
9, 120958, Note_on_c, 7, 79, 0
9, 120960, Note_on_c, 7, 84, 108
9, 121060, Note_on_c, 7, 84, 0
9, 121080, Note_on_c, 7, 72, 108
9, 121080, Note_on_c, 7, 84, 108
9, 121290, Note_on_c, 7, 84, 0
9, 121290, Note_on_c, 7, 72, 0
9, 121320, Note_on_c, 7, 72, 108
9, 121320, Note_on_c, 7, 84, 108
9, 121420, Note_on_c, 7, 84, 0
9, 121420, Note_on_c, 7, 72, 0
9, 121440, Note_on_c, 7, 72, 108
9, 121440, Note_on_c, 7, 84, 108
9, 121540, Note_on_c, 7, 84, 0
9, 121540, Note_on_c, 7, 72, 0
9, 121560, Note_on_c, 7, 72, 108
9, 121560, Note_on_c, 7, 84, 108
9, 121660, Note_on_c, 7, 84, 0
9, 121660, Note_on_c, 7, 72, 0
9, 121680, Note_on_c, 7, 72, 108
9, 121680, Note_on_c, 7, 84, 108
9, 121780, Note_on_c, 7, 84, 0
9, 121780, Note_on_c, 7, 72, 0
9, 121800, Note_on_c, 7, 79, 108
9, 121900, Note_on_c, 7, 79, 0
9, 121920, Note_on_c, 7, 84, 108
9, 122020, Note_on_c, 7, 84, 0
9, 122040, Note_on_c, 7, 72, 108
9, 122040, Note_on_c, 7, 84, 108
9, 122250, Note_on_c, 7, 84, 0
9, 122250, Note_on_c, 7, 72, 0
9, 122280, Note_on_c, 7, 72, 108
9, 122280, Note_on_c, 7, 84, 108
9, 122380, Note_on_c, 7, 84, 0
9, 122380, Note_on_c, 7, 72, 0
9, 122400, Note_on_c, 7, 72, 108
9, 122400, Note_on_c, 7, 84, 108
9, 122500, Note_on_c, 7, 84, 0
9, 122500, Note_on_c, 7, 72, 0
9, 122520, Note_on_c, 7, 72, 108
9, 122520, Note_on_c, 7, 84, 108
9, 122620, Note_on_c, 7, 84, 0
9, 122620, Note_on_c, 7, 72, 0
9, 122640, Note_on_c, 7, 72, 108
9, 122640, Note_on_c, 7, 84, 108
9, 122740, Note_on_c, 7, 84, 0
9, 122740, Note_on_c, 7, 72, 0
9, 122760, Note_on_c, 7, 79, 108
9, 122860, Note_on_c, 7, 79, 0
9, 122880, Note_on_c, 7, 84, 108
9, 122980, Note_on_c, 7, 84, 0
9, 123000, Note_on_c, 7, 79, 108
9, 123058, Note_on_c, 7, 79, 0
9, 123060, Note_on_c, 7, 79, 108
9, 123118, Note_on_c, 7, 79, 0
9, 123120, Note_on_c, 7, 84, 108
9, 123178, Note_on_c, 7, 84, 0
9, 123180, Note_on_c, 7, 84, 108
9, 123238, Note_on_c, 7, 84, 0
9, 123240, Note_on_c, 7, 79, 108
9, 123298, Note_on_c, 7, 79, 0
9, 123300, Note_on_c, 7, 79, 108
9, 123358, Note_on_c, 7, 79, 0
9, 123360, Note_on_c, 7, 84, 108
9, 123418, Note_on_c, 7, 84, 0
9, 123420, Note_on_c, 7, 84, 108
9, 123478, Note_on_c, 7, 84, 0
9, 123480, Note_on_c, 7, 79, 108
9, 123538, Note_on_c, 7, 79, 0
9, 123540, Note_on_c, 7, 79, 108
9, 123598, Note_on_c, 7, 79, 0
9, 123600, Note_on_c, 7, 84, 108
9, 123658, Note_on_c, 7, 84, 0
9, 123660, Note_on_c, 7, 84, 108
9, 123718, Note_on_c, 7, 84, 0
9, 123720, Note_on_c, 7, 79, 108
9, 123778, Note_on_c, 7, 79, 0
9, 123780, Note_on_c, 7, 79, 108
9, 123838, Note_on_c, 7, 79, 0
9, 123840, Note_on_c, 7, 84, 108
9, 123940, Note_on_c, 7, 84, 0
9, 124320, Note_on_c, 7, 67, 108
9, 124320, Note_on_c, 7, 76, 108
9, 124320, Note_on_c, 7, 84, 108
9, 124420, Note_on_c, 7, 84, 0
9, 124420, Note_on_c, 7, 76, 0
9, 124420, Note_on_c, 7, 67, 0
9, 124560, Note_on_c, 7, 67, 108
9, 124560, Note_on_c, 7, 76, 108
9, 124560, Note_on_c, 7, 84, 108
9, 124660, Note_on_c, 7, 84, 0
9, 124660, Note_on_c, 7, 76, 0
9, 124660, Note_on_c, 7, 67, 0
9, 124800, Note_on_c, 7, 67, 108
9, 124800, Note_on_c, 7, 76, 108
9, 124800, Note_on_c, 7, 84, 108
9, 125010, Note_on_c, 7, 84, 0
9, 125010, Note_on_c, 7, 76, 0
9, 125010, Note_on_c, 7, 67, 0
9, 125010, End_track
10, 0, Start_track
10, 0, MIDI_port, 0
10, 0, Title_t, "Violins II"
10, 0, Program_c, 8, 48
10, 0, Control_c, 8, 7, 127
10, 0, Control_c, 8, 10, 118
10, 0, Note_on_c, 8, 72, 92
10, 0, Note_on_c, 8, 76, 92
10, 100, Note_on_c, 8, 76, 0
10, 100, Note_on_c, 8, 72, 0
10, 210, Note_on_c, 8, 60, 92
10, 238, Note_on_c, 8, 60, 0
10, 240, Note_on_c, 8, 60, 92
10, 340, Note_on_c, 8, 60, 0
10, 1890, Note_on_c, 8, 83, 92
10, 1918, Note_on_c, 8, 83, 0
10, 1920, Note_on_c, 8, 83, 92
10, 2020, Note_on_c, 8, 83, 0
10, 2130, Note_on_c, 8, 59, 92
10, 2130, Note_on_c, 8, 62, 92
10, 2158, Note_on_c, 8, 62, 0
10, 2158, Note_on_c, 8, 59, 0
10, 2160, Note_on_c, 8, 59, 92
10, 2160, Note_on_c, 8, 62, 92
10, 2260, Note_on_c, 8, 62, 0
10, 2260, Note_on_c, 8, 59, 0
10, 4320, Note_on_c, 8, 60, 45
10, 4560, Note_on_c, 8, 60, 0
10, 4560, Note_on_c, 8, 59, 45
10, 4770, Note_on_c, 8, 59, 0
10, 4800, Note_on_c, 8, 60, 45
10, 5040, Note_on_c, 8, 60, 0
10, 5040, Note_on_c, 8, 60, 45
10, 5140, Note_on_c, 8, 60, 0
10, 5520, Note_on_c, 8, 67, 92
10, 5520, Note_on_c, 8, 72, 92
10, 5520, Note_on_c, 8, 76, 92
10, 5620, Note_on_c, 8, 76, 0
10, 5620, Note_on_c, 8, 72, 0
10, 5620, Note_on_c, 8, 67, 0
10, 5760, Note_on_c, 8, 65, 92
10, 5760, Note_on_c, 8, 72, 92
10, 5760, Note_on_c, 8, 77, 92
10, 5860, Note_on_c, 8, 77, 0
10, 5860, Note_on_c, 8, 72, 0
10, 5860, Note_on_c, 8, 65, 0
10, 6000, Note_on_c, 8, 65, 92
10, 6000, Note_on_c, 8, 72, 92
10, 6000, Note_on_c, 8, 81, 92
10, 6100, Note_on_c, 8, 81, 0
10, 6100, Note_on_c, 8, 72, 0
10, 6100, Note_on_c, 8, 65, 0
10, 6240, Note_on_c, 8, 55, 92
10, 6340, Note_on_c, 8, 55, 0
10, 6480, Note_on_c, 8, 67, 92
10, 6480, Note_on_c, 8, 74, 92
10, 6480, Note_on_c, 8, 83, 92
10, 6580, Note_on_c, 8, 83, 0
10, 6580, Note_on_c, 8, 74, 0
10, 6580, Note_on_c, 8, 67, 0
10, 8700, Note_on_c, 8, 60, 60
10, 8758, Note_on_c, 8, 60, 0
10, 8760, Note_on_c, 8, 60, 60
10, 8818, Note_on_c, 8, 60, 0
10, 8820, Note_on_c, 8, 60, 60
10, 8878, Note_on_c, 8, 60, 0
10, 8880, Note_on_c, 8, 60, 60
10, 8938, Note_on_c, 8, 60, 0
10, 8940, Note_on_c, 8, 60, 60
10, 8998, Note_on_c, 8, 60, 0
10, 9000, Note_on_c, 8, 60, 60
10, 9058, Note_on_c, 8, 60, 0
10, 9060, Note_on_c, 8, 60, 60
10, 9118, Note_on_c, 8, 60, 0
10, 9120, Note_on_c, 8, 64, 60
10, 9135, Note_on_c, 8, 64, 0
10, 9135, Note_on_c, 8, 62, 60
10, 9180, Note_on_c, 8, 62, 0
10, 9180, Note_on_c, 8, 60, 60
10, 9238, Note_on_c, 8, 60, 0
10, 9240, Note_on_c, 8, 60, 60
10, 9260, Note_on_c, 8, 60, 0
10, 9300, Note_on_c, 8, 60, 60
10, 9320, Note_on_c, 8, 60, 0
10, 9360, Note_on_c, 8, 59, 60
10, 9420, Note_on_c, 8, 59, 0
10, 9420, Note_on_c, 8, 60, 60
10, 9478, Note_on_c, 8, 60, 0
10, 9480, Note_on_c, 8, 59, 60
10, 9540, Note_on_c, 8, 59, 0
10, 9540, Note_on_c, 8, 60, 60
10, 9598, Note_on_c, 8, 60, 0
10, 9600, Note_on_c, 8, 59, 60
10, 9658, Note_on_c, 8, 59, 0
10, 9660, Note_on_c, 8, 62, 60
10, 9718, Note_on_c, 8, 62, 0
10, 9720, Note_on_c, 8, 62, 60
10, 9778, Note_on_c, 8, 62, 0
10, 9780, Note_on_c, 8, 62, 60
10, 9838, Note_on_c, 8, 62, 0
10, 9840, Note_on_c, 8, 62, 60
10, 9898, Note_on_c, 8, 62, 0
10, 9900, Note_on_c, 8, 62, 60
10, 9958, Note_on_c, 8, 62, 0
10, 9960, Note_on_c, 8, 62, 60
10, 10018, Note_on_c, 8, 62, 0
10, 10020, Note_on_c, 8, 62, 60
10, 10078, Note_on_c, 8, 62, 0
10, 10080, Note_on_c, 8, 65, 60
10, 10095, Note_on_c, 8, 65, 0
10, 10095, Note_on_c, 8, 64, 60
10, 10140, Note_on_c, 8, 64, 0
10, 10140, Note_on_c, 8, 62, 60
10, 10198, Note_on_c, 8, 62, 0
10, 10200, Note_on_c, 8, 62, 60
10, 10220, Note_on_c, 8, 62, 0
10, 10260, Note_on_c, 8, 62, 60
10, 10280, Note_on_c, 8, 62, 0
10, 10320, Note_on_c, 8, 61, 60
10, 10380, Note_on_c, 8, 61, 0
10, 10380, Note_on_c, 8, 62, 60
10, 10438, Note_on_c, 8, 62, 0
10, 10440, Note_on_c, 8, 61, 60
10, 10500, Note_on_c, 8, 61, 0
10, 10500, Note_on_c, 8, 62, 60
10, 10558, Note_on_c, 8, 62, 0
10, 10560, Note_on_c, 8, 60, 60
10, 10618, Note_on_c, 8, 60, 0
10, 10620, Note_on_c, 8, 60, 60
10, 10678, Note_on_c, 8, 60, 0
10, 10680, Note_on_c, 8, 60, 60
10, 10738, Note_on_c, 8, 60, 0
10, 10740, Note_on_c, 8, 60, 60
10, 10798, Note_on_c, 8, 60, 0
10, 10800, Note_on_c, 8, 62, 60
10, 10858, Note_on_c, 8, 62, 0
10, 10860, Note_on_c, 8, 62, 60
10, 10918, Note_on_c, 8, 62, 0
10, 10920, Note_on_c, 8, 64, 60
10, 10978, Note_on_c, 8, 64, 0
10, 10980, Note_on_c, 8, 64, 60
10, 11038, Note_on_c, 8, 64, 0
10, 11040, Note_on_c, 8, 65, 60
10, 11098, Note_on_c, 8, 65, 0
10, 11100, Note_on_c, 8, 65, 60
10, 11158, Note_on_c, 8, 65, 0
10, 11160, Note_on_c, 8, 64, 60
10, 11218, Note_on_c, 8, 64, 0
10, 11220, Note_on_c, 8, 64, 60
10, 11278, Note_on_c, 8, 64, 0
10, 11280, Note_on_c, 8, 65, 60
10, 11338, Note_on_c, 8, 65, 0
10, 11340, Note_on_c, 8, 65, 60
10, 11398, Note_on_c, 8, 65, 0
10, 11400, Note_on_c, 8, 62, 60
10, 11458, Note_on_c, 8, 62, 0
10, 11460, Note_on_c, 8, 62, 60
10, 11518, Note_on_c, 8, 62, 0
10, 11520, Note_on_c, 8, 64, 92
10, 11620, Note_on_c, 8, 64, 0
10, 11640, Note_on_c, 8, 67, 92
10, 11850, Note_on_c, 8, 67, 0
10, 11880, Note_on_c, 8, 69, 92
10, 11980, Note_on_c, 8, 69, 0
10, 12000, Note_on_c, 8, 67, 92
10, 12100, Note_on_c, 8, 67, 0
10, 12120, Note_on_c, 8, 69, 92
10, 12220, Note_on_c, 8, 69, 0
10, 12240, Note_on_c, 8, 67, 92
10, 12340, Note_on_c, 8, 67, 0
10, 12360, Note_on_c, 8, 69, 92
10, 12460, Note_on_c, 8, 69, 0
10, 12480, Note_on_c, 8, 67, 92
10, 12580, Note_on_c, 8, 67, 0
10, 12600, Note_on_c, 8, 67, 92
10, 12810, Note_on_c, 8, 67, 0
10, 12840, Note_on_c, 8, 69, 92
10, 12940, Note_on_c, 8, 69, 0
10, 12960, Note_on_c, 8, 67, 92
10, 13060, Note_on_c, 8, 67, 0
10, 13080, Note_on_c, 8, 69, 92
10, 13180, Note_on_c, 8, 69, 0
10, 13200, Note_on_c, 8, 67, 92
10, 13300, Note_on_c, 8, 67, 0
10, 13320, Note_on_c, 8, 69, 92
10, 13420, Note_on_c, 8, 69, 0
10, 13440, Note_on_c, 8, 67, 92
10, 13540, Note_on_c, 8, 67, 0
10, 13560, Note_on_c, 8, 64, 60
10, 13660, Note_on_c, 8, 64, 0
10, 13680, Note_on_c, 8, 64, 60
10, 13780, Note_on_c, 8, 64, 0
10, 13800, Note_on_c, 8, 64, 60
10, 13900, Note_on_c, 8, 64, 0
10, 14040, Note_on_c, 8, 64, 60
10, 14140, Note_on_c, 8, 64, 0
10, 14160, Note_on_c, 8, 64, 60
10, 14260, Note_on_c, 8, 64, 0
10, 14280, Note_on_c, 8, 64, 60
10, 14380, Note_on_c, 8, 64, 0
10, 14520, Note_on_c, 8, 65, 60
10, 14620, Note_on_c, 8, 65, 0
10, 14640, Note_on_c, 8, 65, 60
10, 14740, Note_on_c, 8, 65, 0
10, 14760, Note_on_c, 8, 65, 60
10, 14860, Note_on_c, 8, 65, 0
10, 15000, Note_on_c, 8, 65, 60
10, 15100, Note_on_c, 8, 65, 0
10, 15120, Note_on_c, 8, 65, 60
10, 15220, Note_on_c, 8, 65, 0
10, 15240, Note_on_c, 8, 65, 60
10, 15340, Note_on_c, 8, 65, 0
10, 15480, Note_on_c, 8, 64, 60
10, 15580, Note_on_c, 8, 64, 0
10, 15600, Note_on_c, 8, 64, 60
10, 15700, Note_on_c, 8, 64, 0
10, 15720, Note_on_c, 8, 64, 60
10, 15820, Note_on_c, 8, 64, 0
10, 15960, Note_on_c, 8, 64, 60
10, 16060, Note_on_c, 8, 64, 0
10, 16080, Note_on_c, 8, 64, 60
10, 16180, Note_on_c, 8, 64, 0
10, 16200, Note_on_c, 8, 64, 60
10, 16300, Note_on_c, 8, 64, 0
10, 16320, Note_on_c, 8, 59, 60
10, 16440, Note_on_c, 8, 59, 0
10, 16440, Note_on_c, 8, 55, 60
10, 16560, Note_on_c, 8, 55, 0
10, 16560, Note_on_c, 8, 60, 60
10, 16680, Note_on_c, 8, 60, 0
10, 16680, Note_on_c, 8, 55, 60
10, 16800, Note_on_c, 8, 55, 0
10, 16800, Note_on_c, 8, 62, 60
10, 16920, Note_on_c, 8, 62, 0
10, 16920, Note_on_c, 8, 55, 60
10, 17040, Note_on_c, 8, 55, 0
10, 17040, Note_on_c, 8, 59, 60
10, 17160, Note_on_c, 8, 59, 0
10, 17160, Note_on_c, 8, 55, 60
10, 17260, Note_on_c, 8, 55, 0
10, 17280, Note_on_c, 8, 60, 60
10, 17380, Note_on_c, 8, 60, 0
10, 17400, Note_on_c, 8, 64, 60
10, 17500, Note_on_c, 8, 64, 0
10, 17520, Note_on_c, 8, 64, 60
10, 17620, Note_on_c, 8, 64, 0
10, 17640, Note_on_c, 8, 64, 60
10, 17740, Note_on_c, 8, 64, 0
10, 17880, Note_on_c, 8, 64, 60
10, 17980, Note_on_c, 8, 64, 0
10, 18000, Note_on_c, 8, 64, 60
10, 18100, Note_on_c, 8, 64, 0
10, 18120, Note_on_c, 8, 64, 60
10, 18220, Note_on_c, 8, 64, 0
10, 18360, Note_on_c, 8, 65, 60
10, 18460, Note_on_c, 8, 65, 0
10, 18480, Note_on_c, 8, 65, 60
10, 18580, Note_on_c, 8, 65, 0
10, 18600, Note_on_c, 8, 65, 60
10, 18700, Note_on_c, 8, 65, 0
10, 18840, Note_on_c, 8, 65, 60
10, 18940, Note_on_c, 8, 65, 0
10, 18960, Note_on_c, 8, 65, 60
10, 19060, Note_on_c, 8, 65, 0
10, 19080, Note_on_c, 8, 65, 60
10, 19180, Note_on_c, 8, 65, 0
10, 19320, Note_on_c, 8, 64, 60
10, 19420, Note_on_c, 8, 64, 0
10, 19440, Note_on_c, 8, 64, 60
10, 19540, Note_on_c, 8, 64, 0
10, 19560, Note_on_c, 8, 64, 60
10, 19660, Note_on_c, 8, 64, 0
10, 19800, Note_on_c, 8, 64, 60
10, 19900, Note_on_c, 8, 64, 0
10, 19920, Note_on_c, 8, 64, 60
10, 20020, Note_on_c, 8, 64, 0
10, 20040, Note_on_c, 8, 64, 60
10, 20140, Note_on_c, 8, 64, 0
10, 20160, Note_on_c, 8, 59, 60
10, 20280, Note_on_c, 8, 59, 0
10, 20280, Note_on_c, 8, 55, 60
10, 20400, Note_on_c, 8, 55, 0
10, 20400, Note_on_c, 8, 60, 60
10, 20520, Note_on_c, 8, 60, 0
10, 20520, Note_on_c, 8, 55, 60
10, 20640, Note_on_c, 8, 55, 0
10, 20640, Note_on_c, 8, 62, 60
10, 20760, Note_on_c, 8, 62, 0
10, 20760, Note_on_c, 8, 55, 60
10, 20880, Note_on_c, 8, 55, 0
10, 20880, Note_on_c, 8, 59, 60
10, 21000, Note_on_c, 8, 59, 0
10, 21000, Note_on_c, 8, 55, 60
10, 21100, Note_on_c, 8, 55, 0
10, 21120, Note_on_c, 8, 60, 60
10, 21178, Note_on_c, 8, 60, 0
10, 21180, Note_on_c, 8, 60, 60
10, 21238, Note_on_c, 8, 60, 0
10, 21240, Note_on_c, 8, 60, 60
10, 21298, Note_on_c, 8, 60, 0
10, 21300, Note_on_c, 8, 60, 60
10, 21358, Note_on_c, 8, 60, 0
10, 21360, Note_on_c, 8, 60, 60
10, 21418, Note_on_c, 8, 60, 0
10, 21420, Note_on_c, 8, 60, 60
10, 21478, Note_on_c, 8, 60, 0
10, 21480, Note_on_c, 8, 60, 60
10, 21538, Note_on_c, 8, 60, 0
10, 21540, Note_on_c, 8, 60, 60
10, 21598, Note_on_c, 8, 60, 0
10, 21600, Note_on_c, 8, 64, 60
10, 21615, Note_on_c, 8, 64, 0
10, 21615, Note_on_c, 8, 62, 60
10, 21660, Note_on_c, 8, 62, 0
10, 21660, Note_on_c, 8, 60, 60
10, 21718, Note_on_c, 8, 60, 0
10, 21720, Note_on_c, 8, 60, 60
10, 21740, Note_on_c, 8, 60, 0
10, 21780, Note_on_c, 8, 60, 60
10, 21800, Note_on_c, 8, 60, 0
10, 21840, Note_on_c, 8, 59, 60
10, 21900, Note_on_c, 8, 59, 0
10, 21900, Note_on_c, 8, 60, 60
10, 21958, Note_on_c, 8, 60, 0
10, 21960, Note_on_c, 8, 59, 60
10, 22020, Note_on_c, 8, 59, 0
10, 22020, Note_on_c, 8, 60, 60
10, 22078, Note_on_c, 8, 60, 0
10, 22080, Note_on_c, 8, 66, 60
10, 23040, Note_on_c, 8, 66, 0
10, 23040, Note_on_c, 8, 67, 60
10, 23098, Note_on_c, 8, 67, 0
10, 23100, Note_on_c, 8, 67, 60
10, 23120, Note_on_c, 8, 67, 0
10, 23160, Note_on_c, 8, 67, 60
10, 23180, Note_on_c, 8, 67, 0
10, 23220, Note_on_c, 8, 67, 60
10, 23240, Note_on_c, 8, 67, 0
10, 23280, Note_on_c, 8, 67, 60
10, 23338, Note_on_c, 8, 67, 0
10, 23340, Note_on_c, 8, 67, 60
10, 23398, Note_on_c, 8, 67, 0
10, 23400, Note_on_c, 8, 67, 60
10, 23458, Note_on_c, 8, 67, 0
10, 23460, Note_on_c, 8, 67, 60
10, 23518, Note_on_c, 8, 67, 0
10, 23520, Note_on_c, 8, 71, 60
10, 23535, Note_on_c, 8, 71, 0
10, 23535, Note_on_c, 8, 69, 60
10, 23580, Note_on_c, 8, 69, 0
10, 23580, Note_on_c, 8, 67, 60
10, 23638, Note_on_c, 8, 67, 0
10, 23640, Note_on_c, 8, 67, 60
10, 23660, Note_on_c, 8, 67, 0
10, 23700, Note_on_c, 8, 67, 60
10, 23720, Note_on_c, 8, 67, 0
10, 23760, Note_on_c, 8, 66, 60
10, 23820, Note_on_c, 8, 66, 0
10, 23820, Note_on_c, 8, 67, 60
10, 23878, Note_on_c, 8, 67, 0
10, 23880, Note_on_c, 8, 66, 60
10, 23940, Note_on_c, 8, 66, 0
10, 23940, Note_on_c, 8, 67, 60
10, 23998, Note_on_c, 8, 67, 0
10, 24000, Note_on_c, 8, 73, 60
10, 24930, Note_on_c, 8, 73, 0
10, 24960, Note_on_c, 8, 74, 92
10, 25060, Note_on_c, 8, 74, 0
10, 25080, Note_on_c, 8, 69, 92
10, 25290, Note_on_c, 8, 69, 0
10, 25320, Note_on_c, 8, 71, 92
10, 25420, Note_on_c, 8, 71, 0
10, 25440, Note_on_c, 8, 69, 92
10, 25540, Note_on_c, 8, 69, 0
10, 25560, Note_on_c, 8, 71, 92
10, 25660, Note_on_c, 8, 71, 0
10, 25680, Note_on_c, 8, 72, 92
10, 25780, Note_on_c, 8, 72, 0
10, 25800, Note_on_c, 8, 71, 92
10, 25900, Note_on_c, 8, 71, 0
10, 25920, Note_on_c, 8, 69, 92
10, 26020, Note_on_c, 8, 69, 0
10, 26040, Note_on_c, 8, 69, 92
10, 26250, Note_on_c, 8, 69, 0
10, 26280, Note_on_c, 8, 71, 92
10, 26380, Note_on_c, 8, 71, 0
10, 26400, Note_on_c, 8, 69, 92
10, 26500, Note_on_c, 8, 69, 0
10, 26520, Note_on_c, 8, 71, 92
10, 26620, Note_on_c, 8, 71, 0
10, 26640, Note_on_c, 8, 72, 92
10, 26740, Note_on_c, 8, 72, 0
10, 26760, Note_on_c, 8, 71, 92
10, 26860, Note_on_c, 8, 71, 0
10, 26880, Note_on_c, 8, 69, 92
10, 26980, Note_on_c, 8, 69, 0
10, 27840, Note_on_c, 8, 67, 60
10, 27900, Note_on_c, 8, 67, 0
10, 27900, Note_on_c, 8, 69, 60
10, 27960, Note_on_c, 8, 69, 0
10, 27960, Note_on_c, 8, 70, 60
10, 28020, Note_on_c, 8, 70, 0
10, 28020, Note_on_c, 8, 69, 60
10, 28080, Note_on_c, 8, 69, 0
10, 28080, Note_on_c, 8, 67, 60
10, 28180, Note_on_c, 8, 67, 0
10, 28320, Note_on_c, 8, 69, 60
10, 28380, Note_on_c, 8, 69, 0
10, 28380, Note_on_c, 8, 70, 60
10, 28440, Note_on_c, 8, 70, 0
10, 28440, Note_on_c, 8, 72, 60
10, 28500, Note_on_c, 8, 72, 0
10, 28500, Note_on_c, 8, 70, 60
10, 28560, Note_on_c, 8, 70, 0
10, 28560, Note_on_c, 8, 69, 60
10, 28620, Note_on_c, 8, 69, 0
10, 28620, Note_on_c, 8, 70, 60
10, 28680, Note_on_c, 8, 70, 0
10, 28680, Note_on_c, 8, 69, 60
10, 28740, Note_on_c, 8, 69, 0
10, 28740, Note_on_c, 8, 67, 60
10, 28800, Note_on_c, 8, 67, 0
10, 28800, Note_on_c, 8, 66, 60
10, 28860, Note_on_c, 8, 66, 0
10, 28860, Note_on_c, 8, 67, 60
10, 28920, Note_on_c, 8, 67, 0
10, 28920, Note_on_c, 8, 69, 60
10, 28980, Note_on_c, 8, 69, 0
10, 28980, Note_on_c, 8, 67, 60
10, 29040, Note_on_c, 8, 67, 0
10, 29040, Note_on_c, 8, 66, 60
10, 29140, Note_on_c, 8, 66, 0
10, 29280, Note_on_c, 8, 67, 60
10, 29340, Note_on_c, 8, 67, 0
10, 29340, Note_on_c, 8, 69, 60
10, 29400, Note_on_c, 8, 69, 0
10, 29400, Note_on_c, 8, 70, 60
10, 29460, Note_on_c, 8, 70, 0
10, 29460, Note_on_c, 8, 69, 60
10, 29520, Note_on_c, 8, 69, 0
10, 29520, Note_on_c, 8, 67, 60
10, 29580, Note_on_c, 8, 67, 0
10, 29580, Note_on_c, 8, 69, 60
10, 29640, Note_on_c, 8, 69, 0
10, 29640, Note_on_c, 8, 67, 60
10, 29700, Note_on_c, 8, 67, 0
10, 29700, Note_on_c, 8, 65, 60
10, 29760, Note_on_c, 8, 65, 0
10, 29760, Note_on_c, 8, 64, 60
10, 29820, Note_on_c, 8, 64, 0
10, 29820, Note_on_c, 8, 66, 60
10, 29880, Note_on_c, 8, 66, 0
10, 29880, Note_on_c, 8, 67, 60
10, 29940, Note_on_c, 8, 67, 0
10, 29940, Note_on_c, 8, 66, 60
10, 30000, Note_on_c, 8, 66, 0
10, 30000, Note_on_c, 8, 64, 60
10, 30100, Note_on_c, 8, 64, 0
10, 30240, Note_on_c, 8, 66, 60
10, 30300, Note_on_c, 8, 66, 0
10, 30300, Note_on_c, 8, 67, 60
10, 30360, Note_on_c, 8, 67, 0
10, 30360, Note_on_c, 8, 69, 60
10, 30420, Note_on_c, 8, 69, 0
10, 30420, Note_on_c, 8, 67, 60
10, 30480, Note_on_c, 8, 67, 0
10, 30480, Note_on_c, 8, 66, 60
10, 30540, Note_on_c, 8, 66, 0
10, 30540, Note_on_c, 8, 62, 60
10, 30600, Note_on_c, 8, 62, 0
10, 30600, Note_on_c, 8, 64, 60
10, 30660, Note_on_c, 8, 64, 0
10, 30660, Note_on_c, 8, 66, 60
10, 30718, Note_on_c, 8, 66, 0
10, 30720, Note_on_c, 8, 67, 60
10, 30820, Note_on_c, 8, 67, 0
10, 30840, Note_on_c, 8, 83, 92
10, 31050, Note_on_c, 8, 83, 0
10, 31080, Note_on_c, 8, 82, 92
10, 31180, Note_on_c, 8, 82, 0
10, 31200, Note_on_c, 8, 83, 92
10, 31300, Note_on_c, 8, 83, 0
10, 31320, Note_on_c, 8, 82, 92
10, 31420, Note_on_c, 8, 82, 0
10, 31440, Note_on_c, 8, 83, 92
10, 31540, Note_on_c, 8, 83, 0
10, 31560, Note_on_c, 8, 78, 92
10, 31660, Note_on_c, 8, 78, 0
10, 31680, Note_on_c, 8, 79, 92
10, 31780, Note_on_c, 8, 79, 0
10, 31800, Note_on_c, 8, 79, 92
10, 32010, Note_on_c, 8, 79, 0
10, 32040, Note_on_c, 8, 78, 92
10, 32140, Note_on_c, 8, 78, 0
10, 32160, Note_on_c, 8, 79, 92
10, 32260, Note_on_c, 8, 79, 0
10, 32280, Note_on_c, 8, 78, 92
10, 32380, Note_on_c, 8, 78, 0
10, 32400, Note_on_c, 8, 79, 92
10, 32500, Note_on_c, 8, 79, 0
10, 32520, Note_on_c, 8, 75, 92
10, 32620, Note_on_c, 8, 75, 0
10, 32640, Note_on_c, 8, 76, 92
10, 32740, Note_on_c, 8, 76, 0
10, 32760, Note_on_c, 8, 76, 92
10, 32970, Note_on_c, 8, 76, 0
10, 33000, Note_on_c, 8, 75, 92
10, 33100, Note_on_c, 8, 75, 0
10, 33120, Note_on_c, 8, 76, 92
10, 33220, Note_on_c, 8, 76, 0
10, 33240, Note_on_c, 8, 75, 92
10, 33340, Note_on_c, 8, 75, 0
10, 33360, Note_on_c, 8, 76, 92
10, 33460, Note_on_c, 8, 76, 0
10, 33480, Note_on_c, 8, 77, 92
10, 33580, Note_on_c, 8, 77, 0
10, 33600, Note_on_c, 8, 76, 92
10, 33658, Note_on_c, 8, 76, 0
10, 33660, Note_on_c, 8, 76, 92
10, 33718, Note_on_c, 8, 76, 0
10, 33720, Note_on_c, 8, 76, 92
10, 33778, Note_on_c, 8, 76, 0
10, 33780, Note_on_c, 8, 76, 92
10, 33838, Note_on_c, 8, 76, 0
10, 33840, Note_on_c, 8, 76, 92
10, 33898, Note_on_c, 8, 76, 0
10, 33900, Note_on_c, 8, 76, 92
10, 33958, Note_on_c, 8, 76, 0
10, 33960, Note_on_c, 8, 82, 92
10, 34018, Note_on_c, 8, 82, 0
10, 34020, Note_on_c, 8, 82, 92
10, 34078, Note_on_c, 8, 82, 0
10, 34080, Note_on_c, 8, 81, 92
10, 34138, Note_on_c, 8, 81, 0
10, 34140, Note_on_c, 8, 81, 92
10, 34198, Note_on_c, 8, 81, 0
10, 34200, Note_on_c, 8, 78, 92
10, 34258, Note_on_c, 8, 78, 0
10, 34260, Note_on_c, 8, 78, 92
10, 34318, Note_on_c, 8, 78, 0
10, 34320, Note_on_c, 8, 79, 92
10, 34378, Note_on_c, 8, 79, 0
10, 34380, Note_on_c, 8, 79, 92
10, 34438, Note_on_c, 8, 79, 0
10, 34440, Note_on_c, 8, 74, 92
10, 34498, Note_on_c, 8, 74, 0
10, 34500, Note_on_c, 8, 74, 92
10, 34558, Note_on_c, 8, 74, 0
10, 34560, Note_on_c, 8, 79, 92
10, 34618, Note_on_c, 8, 79, 0
10, 34620, Note_on_c, 8, 79, 92
10, 34678, Note_on_c, 8, 79, 0
10, 34680, Note_on_c, 8, 79, 92
10, 34738, Note_on_c, 8, 79, 0
10, 34740, Note_on_c, 8, 79, 92
10, 34798, Note_on_c, 8, 79, 0
10, 34800, Note_on_c, 8, 79, 92
10, 34858, Note_on_c, 8, 79, 0
10, 34860, Note_on_c, 8, 79, 92
10, 34918, Note_on_c, 8, 79, 0
10, 34920, Note_on_c, 8, 79, 92
10, 34978, Note_on_c, 8, 79, 0
10, 34980, Note_on_c, 8, 79, 92
10, 35038, Note_on_c, 8, 79, 0
10, 35040, Note_on_c, 8, 79, 92
10, 35098, Note_on_c, 8, 79, 0
10, 35100, Note_on_c, 8, 79, 92
10, 35158, Note_on_c, 8, 79, 0
10, 35160, Note_on_c, 8, 79, 92
10, 35218, Note_on_c, 8, 79, 0
10, 35220, Note_on_c, 8, 79, 92
10, 35278, Note_on_c, 8, 79, 0
10, 35280, Note_on_c, 8, 79, 92
10, 35338, Note_on_c, 8, 79, 0
10, 35340, Note_on_c, 8, 79, 92
10, 35398, Note_on_c, 8, 79, 0
10, 35400, Note_on_c, 8, 79, 92
10, 35458, Note_on_c, 8, 79, 0
10, 35460, Note_on_c, 8, 79, 92
10, 35518, Note_on_c, 8, 79, 0
10, 35520, Note_on_c, 8, 79, 92
10, 35578, Note_on_c, 8, 79, 0
10, 35580, Note_on_c, 8, 79, 92
10, 35638, Note_on_c, 8, 79, 0
10, 35640, Note_on_c, 8, 79, 92
10, 35698, Note_on_c, 8, 79, 0
10, 35700, Note_on_c, 8, 79, 92
10, 35758, Note_on_c, 8, 79, 0
10, 35760, Note_on_c, 8, 78, 92
10, 35818, Note_on_c, 8, 78, 0
10, 35820, Note_on_c, 8, 78, 92
10, 35878, Note_on_c, 8, 78, 0
10, 35880, Note_on_c, 8, 81, 92
10, 35938, Note_on_c, 8, 81, 0
10, 35940, Note_on_c, 8, 81, 92
10, 35998, Note_on_c, 8, 81, 0
10, 36000, Note_on_c, 8, 79, 92
10, 36058, Note_on_c, 8, 79, 0
10, 36060, Note_on_c, 8, 79, 92
10, 36118, Note_on_c, 8, 79, 0
10, 36120, Note_on_c, 8, 79, 92
10, 36178, Note_on_c, 8, 79, 0
10, 36180, Note_on_c, 8, 79, 92
10, 36238, Note_on_c, 8, 79, 0
10, 36240, Note_on_c, 8, 79, 92
10, 36298, Note_on_c, 8, 79, 0
10, 36300, Note_on_c, 8, 79, 92
10, 36358, Note_on_c, 8, 79, 0
10, 36360, Note_on_c, 8, 79, 92
10, 36418, Note_on_c, 8, 79, 0
10, 36420, Note_on_c, 8, 79, 92
10, 36478, Note_on_c, 8, 79, 0
10, 36480, Note_on_c, 8, 79, 92
10, 36538, Note_on_c, 8, 79, 0
10, 36540, Note_on_c, 8, 79, 92
10, 36598, Note_on_c, 8, 79, 0
10, 36600, Note_on_c, 8, 79, 92
10, 36658, Note_on_c, 8, 79, 0
10, 36660, Note_on_c, 8, 79, 92
10, 36718, Note_on_c, 8, 79, 0
10, 36720, Note_on_c, 8, 79, 92
10, 36778, Note_on_c, 8, 79, 0
10, 36780, Note_on_c, 8, 79, 92
10, 36838, Note_on_c, 8, 79, 0
10, 36840, Note_on_c, 8, 79, 92
10, 36898, Note_on_c, 8, 79, 0
10, 36900, Note_on_c, 8, 79, 92
10, 36958, Note_on_c, 8, 79, 0
10, 36960, Note_on_c, 8, 79, 92
10, 37018, Note_on_c, 8, 79, 0
10, 37020, Note_on_c, 8, 79, 92
10, 37078, Note_on_c, 8, 79, 0
10, 37080, Note_on_c, 8, 79, 92
10, 37138, Note_on_c, 8, 79, 0
10, 37140, Note_on_c, 8, 79, 92
10, 37198, Note_on_c, 8, 79, 0
10, 37200, Note_on_c, 8, 78, 92
10, 37258, Note_on_c, 8, 78, 0
10, 37260, Note_on_c, 8, 78, 92
10, 37318, Note_on_c, 8, 78, 0
10, 37320, Note_on_c, 8, 78, 92
10, 37378, Note_on_c, 8, 78, 0
10, 37380, Note_on_c, 8, 78, 92
10, 37438, Note_on_c, 8, 78, 0
10, 37440, Note_on_c, 8, 79, 92
10, 37540, Note_on_c, 8, 79, 0
10, 37560, Note_on_c, 8, 59, 60
10, 37660, Note_on_c, 8, 59, 0
10, 37680, Note_on_c, 8, 59, 60
10, 37780, Note_on_c, 8, 59, 0
10, 37800, Note_on_c, 8, 59, 60
10, 37900, Note_on_c, 8, 59, 0
10, 38040, Note_on_c, 8, 59, 60
10, 38140, Note_on_c, 8, 59, 0
10, 38160, Note_on_c, 8, 59, 60
10, 38260, Note_on_c, 8, 59, 0
10, 38280, Note_on_c, 8, 59, 60
10, 38380, Note_on_c, 8, 59, 0
10, 38520, Note_on_c, 8, 60, 60
10, 38620, Note_on_c, 8, 60, 0
10, 38640, Note_on_c, 8, 60, 60
10, 38740, Note_on_c, 8, 60, 0
10, 38760, Note_on_c, 8, 60, 60
10, 38860, Note_on_c, 8, 60, 0
10, 39000, Note_on_c, 8, 60, 60
10, 39100, Note_on_c, 8, 60, 0
10, 39120, Note_on_c, 8, 60, 60
10, 39220, Note_on_c, 8, 60, 0
10, 39240, Note_on_c, 8, 60, 60
10, 39340, Note_on_c, 8, 60, 0
10, 39480, Note_on_c, 8, 59, 60
10, 39580, Note_on_c, 8, 59, 0
10, 39600, Note_on_c, 8, 59, 60
10, 39700, Note_on_c, 8, 59, 0
10, 39720, Note_on_c, 8, 59, 60
10, 39820, Note_on_c, 8, 59, 0
10, 39960, Note_on_c, 8, 59, 60
10, 40060, Note_on_c, 8, 59, 0
10, 40080, Note_on_c, 8, 59, 60
10, 40180, Note_on_c, 8, 59, 0
10, 40200, Note_on_c, 8, 59, 60
10, 40300, Note_on_c, 8, 59, 0
10, 40320, Note_on_c, 8, 57, 60
10, 40440, Note_on_c, 8, 57, 0
10, 40440, Note_on_c, 8, 62, 60
10, 40560, Note_on_c, 8, 62, 0
10, 40560, Note_on_c, 8, 59, 60
10, 40680, Note_on_c, 8, 59, 0
10, 40680, Note_on_c, 8, 62, 60
10, 40800, Note_on_c, 8, 62, 0
10, 40800, Note_on_c, 8, 60, 60
10, 40920, Note_on_c, 8, 60, 0
10, 40920, Note_on_c, 8, 62, 60
10, 41040, Note_on_c, 8, 62, 0
10, 41040, Note_on_c, 8, 57, 60
10, 41160, Note_on_c, 8, 57, 0
10, 41160, Note_on_c, 8, 62, 60
10, 41260, Note_on_c, 8, 62, 0
10, 41280, Note_on_c, 8, 59, 60
10, 41380, Note_on_c, 8, 59, 0
10, 41400, Note_on_c, 8, 59, 60
10, 41500, Note_on_c, 8, 59, 0
10, 41520, Note_on_c, 8, 59, 60
10, 41620, Note_on_c, 8, 59, 0
10, 41640, Note_on_c, 8, 59, 60
10, 41740, Note_on_c, 8, 59, 0
10, 41880, Note_on_c, 8, 59, 60
10, 41980, Note_on_c, 8, 59, 0
10, 42000, Note_on_c, 8, 59, 60
10, 42100, Note_on_c, 8, 59, 0
10, 42120, Note_on_c, 8, 59, 60
10, 42220, Note_on_c, 8, 59, 0
10, 42360, Note_on_c, 8, 60, 60
10, 42460, Note_on_c, 8, 60, 0
10, 42480, Note_on_c, 8, 60, 60
10, 42580, Note_on_c, 8, 60, 0
10, 42600, Note_on_c, 8, 60, 60
10, 42700, Note_on_c, 8, 60, 0
10, 42840, Note_on_c, 8, 60, 60
10, 42940, Note_on_c, 8, 60, 0
10, 42960, Note_on_c, 8, 60, 60
10, 43060, Note_on_c, 8, 60, 0
10, 43080, Note_on_c, 8, 60, 60
10, 43180, Note_on_c, 8, 60, 0
10, 43320, Note_on_c, 8, 59, 60
10, 43420, Note_on_c, 8, 59, 0
10, 43440, Note_on_c, 8, 59, 60
10, 43540, Note_on_c, 8, 59, 0
10, 43560, Note_on_c, 8, 59, 60
10, 43660, Note_on_c, 8, 59, 0
10, 43800, Note_on_c, 8, 59, 60
10, 43900, Note_on_c, 8, 59, 0
10, 43920, Note_on_c, 8, 59, 60
10, 44020, Note_on_c, 8, 59, 0
10, 44040, Note_on_c, 8, 59, 60
10, 44140, Note_on_c, 8, 59, 0
10, 44160, Note_on_c, 8, 57, 60
10, 44260, Note_on_c, 8, 57, 0
10, 44280, Note_on_c, 8, 62, 60
10, 44380, Note_on_c, 8, 62, 0
10, 44400, Note_on_c, 8, 59, 60
10, 44500, Note_on_c, 8, 59, 0
10, 44520, Note_on_c, 8, 62, 60
10, 44620, Note_on_c, 8, 62, 0
10, 44640, Note_on_c, 8, 60, 60
10, 44740, Note_on_c, 8, 60, 0
10, 44760, Note_on_c, 8, 62, 60
10, 44860, Note_on_c, 8, 62, 0
10, 44880, Note_on_c, 8, 57, 60
10, 44980, Note_on_c, 8, 57, 0
10, 45000, Note_on_c, 8, 62, 60
10, 45100, Note_on_c, 8, 62, 0
10, 45120, Note_on_c, 8, 55, 60
10, 45220, Note_on_c, 8, 55, 0
10, 46140, Note_on_c, 8, 72, 60
10, 46198, Note_on_c, 8, 72, 0
10, 46200, Note_on_c, 8, 72, 60
10, 46258, Note_on_c, 8, 72, 0
10, 46260, Note_on_c, 8, 72, 60
10, 46318, Note_on_c, 8, 72, 0
10, 46320, Note_on_c, 8, 72, 60
10, 46378, Note_on_c, 8, 72, 0
10, 46380, Note_on_c, 8, 72, 60
10, 46438, Note_on_c, 8, 72, 0
10, 46440, Note_on_c, 8, 72, 60
10, 46498, Note_on_c, 8, 72, 0
10, 46500, Note_on_c, 8, 72, 60
10, 46558, Note_on_c, 8, 72, 0
10, 46560, Note_on_c, 8, 76, 60
10, 46575, Note_on_c, 8, 76, 0
10, 46575, Note_on_c, 8, 74, 60
10, 46620, Note_on_c, 8, 74, 0
10, 46620, Note_on_c, 8, 72, 60
10, 46678, Note_on_c, 8, 72, 0
10, 46680, Note_on_c, 8, 72, 60
10, 46700, Note_on_c, 8, 72, 0
10, 46740, Note_on_c, 8, 72, 60
10, 46760, Note_on_c, 8, 72, 0
10, 46800, Note_on_c, 8, 71, 60
10, 46860, Note_on_c, 8, 71, 0
10, 46860, Note_on_c, 8, 72, 60
10, 46918, Note_on_c, 8, 72, 0
10, 46920, Note_on_c, 8, 71, 60
10, 46980, Note_on_c, 8, 71, 0
10, 46980, Note_on_c, 8, 72, 60
10, 47038, Note_on_c, 8, 72, 0
10, 47040, Note_on_c, 8, 71, 60
10, 47970, Note_on_c, 8, 71, 0
10, 48000, Note_on_c, 8, 71, 92
10, 48100, Note_on_c, 8, 71, 0
10, 48120, Note_on_c, 8, 71, 92
10, 48330, Note_on_c, 8, 71, 0
10, 48360, Note_on_c, 8, 72, 92
10, 48460, Note_on_c, 8, 72, 0
10, 48480, Note_on_c, 8, 71, 92
10, 48580, Note_on_c, 8, 71, 0
10, 48600, Note_on_c, 8, 72, 92
10, 48700, Note_on_c, 8, 72, 0
10, 48720, Note_on_c, 8, 74, 92
10, 48820, Note_on_c, 8, 74, 0
10, 48840, Note_on_c, 8, 72, 92
10, 48940, Note_on_c, 8, 72, 0
10, 48960, Note_on_c, 8, 71, 92
10, 49060, Note_on_c, 8, 71, 0
10, 49080, Note_on_c, 8, 71, 92
10, 49290, Note_on_c, 8, 71, 0
10, 49320, Note_on_c, 8, 72, 92
10, 49420, Note_on_c, 8, 72, 0
10, 49440, Note_on_c, 8, 71, 92
10, 49540, Note_on_c, 8, 71, 0
10, 49560, Note_on_c, 8, 72, 92
10, 49660, Note_on_c, 8, 72, 0
10, 49680, Note_on_c, 8, 74, 92
10, 49780, Note_on_c, 8, 74, 0
10, 49800, Note_on_c, 8, 72, 92
10, 49900, Note_on_c, 8, 72, 0
10, 49920, Note_on_c, 8, 71, 92
10, 50020, Note_on_c, 8, 71, 0
10, 50040, Note_on_c, 8, 76, 60
10, 50250, Note_on_c, 8, 76, 0
10, 50280, Note_on_c, 8, 76, 60
10, 50500, Note_on_c, 8, 76, 0
10, 50520, Note_on_c, 8, 76, 60
10, 50550, Note_on_c, 8, 76, 0
10, 50640, Note_on_c, 8, 76, 60
10, 50670, Note_on_c, 8, 76, 0
10, 50760, Note_on_c, 8, 76, 60
10, 50880, Note_on_c, 8, 76, 0
10, 50880, Note_on_c, 8, 77, 60
10, 50980, Note_on_c, 8, 77, 0
10, 51000, Note_on_c, 8, 77, 60
10, 51210, Note_on_c, 8, 77, 0
10, 51240, Note_on_c, 8, 77, 60
10, 51460, Note_on_c, 8, 77, 0
10, 51480, Note_on_c, 8, 77, 60
10, 51580, Note_on_c, 8, 77, 0
10, 51600, Note_on_c, 8, 77, 60
10, 51700, Note_on_c, 8, 77, 0
10, 51720, Note_on_c, 8, 77, 60
10, 51840, Note_on_c, 8, 77, 0
10, 51840, Note_on_c, 8, 76, 60
10, 51940, Note_on_c, 8, 76, 0
10, 51960, Note_on_c, 8, 76, 60
10, 52170, Note_on_c, 8, 76, 0
10, 52200, Note_on_c, 8, 76, 60
10, 52420, Note_on_c, 8, 76, 0
10, 52440, Note_on_c, 8, 76, 60
10, 52540, Note_on_c, 8, 76, 0
10, 52560, Note_on_c, 8, 76, 60
10, 52660, Note_on_c, 8, 76, 0
10, 52680, Note_on_c, 8, 76, 60
10, 52800, Note_on_c, 8, 76, 0
10, 52800, Note_on_c, 8, 74, 60
10, 52900, Note_on_c, 8, 74, 0
10, 52920, Note_on_c, 8, 74, 60
10, 53130, Note_on_c, 8, 74, 0
10, 53160, Note_on_c, 8, 74, 60
10, 53380, Note_on_c, 8, 74, 0
10, 53400, Note_on_c, 8, 74, 60
10, 53500, Note_on_c, 8, 74, 0
10, 53520, Note_on_c, 8, 74, 60
10, 53620, Note_on_c, 8, 74, 0
10, 53640, Note_on_c, 8, 74, 60
10, 53740, Note_on_c, 8, 74, 0
10, 53760, Note_on_c, 8, 73, 92
10, 53860, Note_on_c, 8, 73, 0
10, 53880, Note_on_c, 8, 76, 92
10, 54090, Note_on_c, 8, 76, 0
10, 54120, Note_on_c, 8, 77, 92
10, 54220, Note_on_c, 8, 77, 0
10, 54240, Note_on_c, 8, 76, 92
10, 54340, Note_on_c, 8, 76, 0
10, 54360, Note_on_c, 8, 77, 92
10, 54460, Note_on_c, 8, 77, 0
10, 54480, Note_on_c, 8, 76, 92
10, 54580, Note_on_c, 8, 76, 0
10, 54600, Note_on_c, 8, 77, 92
10, 54700, Note_on_c, 8, 77, 0
10, 54720, Note_on_c, 8, 76, 92
10, 54820, Note_on_c, 8, 76, 0
10, 55740, Note_on_c, 8, 74, 60
10, 55798, Note_on_c, 8, 74, 0
10, 55800, Note_on_c, 8, 74, 60
10, 55858, Note_on_c, 8, 74, 0
10, 55860, Note_on_c, 8, 74, 60
10, 55918, Note_on_c, 8, 74, 0
10, 55920, Note_on_c, 8, 74, 60
10, 55978, Note_on_c, 8, 74, 0
10, 55980, Note_on_c, 8, 74, 60
10, 56038, Note_on_c, 8, 74, 0
10, 56040, Note_on_c, 8, 74, 60
10, 56098, Note_on_c, 8, 74, 0
10, 56100, Note_on_c, 8, 74, 60
10, 56158, Note_on_c, 8, 74, 0
10, 56160, Note_on_c, 8, 77, 60
10, 56175, Note_on_c, 8, 77, 0
10, 56175, Note_on_c, 8, 76, 60
10, 56220, Note_on_c, 8, 76, 0
10, 56220, Note_on_c, 8, 74, 60
10, 56278, Note_on_c, 8, 74, 0
10, 56280, Note_on_c, 8, 74, 60
10, 56300, Note_on_c, 8, 74, 0
10, 56340, Note_on_c, 8, 74, 60
10, 56360, Note_on_c, 8, 74, 0
10, 56400, Note_on_c, 8, 73, 60
10, 56460, Note_on_c, 8, 73, 0
10, 56460, Note_on_c, 8, 74, 60
10, 56518, Note_on_c, 8, 74, 0
10, 56520, Note_on_c, 8, 73, 60
10, 56580, Note_on_c, 8, 73, 0
10, 56580, Note_on_c, 8, 74, 60
10, 56638, Note_on_c, 8, 74, 0
10, 56640, Note_on_c, 8, 73, 60
10, 57570, Note_on_c, 8, 73, 0
10, 57600, Note_on_c, 8, 74, 92
10, 57700, Note_on_c, 8, 74, 0
10, 57720, Note_on_c, 8, 69, 92
10, 57930, Note_on_c, 8, 69, 0
10, 57960, Note_on_c, 8, 70, 92
10, 58060, Note_on_c, 8, 70, 0
10, 58080, Note_on_c, 8, 69, 92
10, 58180, Note_on_c, 8, 69, 0
10, 58200, Note_on_c, 8, 70, 92
10, 58300, Note_on_c, 8, 70, 0
10, 58320, Note_on_c, 8, 69, 92
10, 58420, Note_on_c, 8, 69, 0
10, 58440, Note_on_c, 8, 70, 92
10, 58540, Note_on_c, 8, 70, 0
10, 58560, Note_on_c, 8, 69, 92
10, 58660, Note_on_c, 8, 69, 0
10, 59400, Note_on_c, 8, 74, 60
10, 59520, Note_on_c, 8, 74, 0
10, 59520, Note_on_c, 8, 75, 60
10, 59620, Note_on_c, 8, 75, 0
10, 59640, Note_on_c, 8, 75, 60
10, 59850, Note_on_c, 8, 75, 0
10, 59880, Note_on_c, 8, 75, 60
10, 60100, Note_on_c, 8, 75, 0
10, 60120, Note_on_c, 8, 75, 60
10, 60220, Note_on_c, 8, 75, 0
10, 60240, Note_on_c, 8, 75, 60
10, 60340, Note_on_c, 8, 75, 0
10, 60360, Note_on_c, 8, 75, 60
10, 60480, Note_on_c, 8, 75, 0
10, 60480, Note_on_c, 8, 74, 60
10, 60580, Note_on_c, 8, 74, 0
10, 60600, Note_on_c, 8, 74, 60
10, 60810, Note_on_c, 8, 74, 0
10, 60840, Note_on_c, 8, 74, 60
10, 61060, Note_on_c, 8, 74, 0
10, 61080, Note_on_c, 8, 74, 60
10, 61180, Note_on_c, 8, 74, 0
10, 61200, Note_on_c, 8, 74, 60
10, 61300, Note_on_c, 8, 74, 0
10, 61320, Note_on_c, 8, 74, 60
10, 61440, Note_on_c, 8, 74, 0
10, 61440, Note_on_c, 8, 72, 60
10, 61540, Note_on_c, 8, 72, 0
10, 61560, Note_on_c, 8, 72, 60
10, 61770, Note_on_c, 8, 72, 0
10, 61800, Note_on_c, 8, 72, 60
10, 62020, Note_on_c, 8, 72, 0
10, 62040, Note_on_c, 8, 72, 60
10, 62140, Note_on_c, 8, 72, 0
10, 62160, Note_on_c, 8, 72, 60
10, 62260, Note_on_c, 8, 72, 0
10, 62280, Note_on_c, 8, 72, 60
10, 62380, Note_on_c, 8, 72, 0
10, 62400, Note_on_c, 8, 71, 92
10, 62500, Note_on_c, 8, 71, 0
10, 62520, Note_on_c, 8, 62, 92
10, 62730, Note_on_c, 8, 62, 0
10, 62760, Note_on_c, 8, 63, 92
10, 62860, Note_on_c, 8, 63, 0
10, 62880, Note_on_c, 8, 62, 92
10, 62980, Note_on_c, 8, 62, 0
10, 63000, Note_on_c, 8, 63, 92
10, 63100, Note_on_c, 8, 63, 0
10, 63120, Note_on_c, 8, 62, 92
10, 63220, Note_on_c, 8, 62, 0
10, 63240, Note_on_c, 8, 63, 92
10, 63340, Note_on_c, 8, 63, 0
10, 63360, Note_on_c, 8, 62, 92
10, 63460, Note_on_c, 8, 62, 0
10, 64380, Note_on_c, 8, 72, 60
10, 64438, Note_on_c, 8, 72, 0
10, 64440, Note_on_c, 8, 72, 60
10, 64498, Note_on_c, 8, 72, 0
10, 64500, Note_on_c, 8, 72, 60
10, 64558, Note_on_c, 8, 72, 0
10, 64560, Note_on_c, 8, 72, 60
10, 64618, Note_on_c, 8, 72, 0
10, 64620, Note_on_c, 8, 72, 60
10, 64678, Note_on_c, 8, 72, 0
10, 64680, Note_on_c, 8, 72, 60
10, 64738, Note_on_c, 8, 72, 0
10, 64740, Note_on_c, 8, 72, 60
10, 64798, Note_on_c, 8, 72, 0
10, 64800, Note_on_c, 8, 76, 60
10, 64815, Note_on_c, 8, 76, 0
10, 64815, Note_on_c, 8, 74, 60
10, 64860, Note_on_c, 8, 74, 0
10, 64860, Note_on_c, 8, 72, 60
10, 64918, Note_on_c, 8, 72, 0
10, 64920, Note_on_c, 8, 72, 60
10, 64940, Note_on_c, 8, 72, 0
10, 64980, Note_on_c, 8, 72, 60
10, 65000, Note_on_c, 8, 72, 0
10, 65040, Note_on_c, 8, 71, 60
10, 65100, Note_on_c, 8, 71, 0
10, 65100, Note_on_c, 8, 72, 60
10, 65158, Note_on_c, 8, 72, 0
10, 65160, Note_on_c, 8, 71, 60
10, 65220, Note_on_c, 8, 71, 0
10, 65220, Note_on_c, 8, 72, 60
10, 65278, Note_on_c, 8, 72, 0
10, 65280, Note_on_c, 8, 71, 60
10, 66210, Note_on_c, 8, 71, 0
10, 66240, Note_on_c, 8, 72, 92
10, 66340, Note_on_c, 8, 72, 0
10, 66360, Note_on_c, 8, 67, 92
10, 66570, Note_on_c, 8, 67, 0
10, 66600, Note_on_c, 8, 68, 92
10, 66700, Note_on_c, 8, 68, 0
10, 66720, Note_on_c, 8, 67, 92
10, 66820, Note_on_c, 8, 67, 0
10, 66840, Note_on_c, 8, 68, 92
10, 66940, Note_on_c, 8, 68, 0
10, 66960, Note_on_c, 8, 67, 92
10, 67060, Note_on_c, 8, 67, 0
10, 67080, Note_on_c, 8, 68, 92
10, 67180, Note_on_c, 8, 68, 0
10, 67200, Note_on_c, 8, 67, 92
10, 67300, Note_on_c, 8, 67, 0
10, 68160, Note_on_c, 8, 66, 60
10, 68220, Note_on_c, 8, 66, 0
10, 68220, Note_on_c, 8, 67, 60
10, 68280, Note_on_c, 8, 67, 0
10, 68280, Note_on_c, 8, 69, 60
10, 68340, Note_on_c, 8, 69, 0
10, 68340, Note_on_c, 8, 67, 60
10, 68400, Note_on_c, 8, 67, 0
10, 68400, Note_on_c, 8, 66, 60
10, 68500, Note_on_c, 8, 66, 0
10, 68640, Note_on_c, 8, 67, 60
10, 68700, Note_on_c, 8, 67, 0
10, 68700, Note_on_c, 8, 69, 60
10, 68760, Note_on_c, 8, 69, 0
10, 68760, Note_on_c, 8, 70, 60
10, 68820, Note_on_c, 8, 70, 0
10, 68820, Note_on_c, 8, 69, 60
10, 68880, Note_on_c, 8, 69, 0
10, 68880, Note_on_c, 8, 67, 60
10, 68940, Note_on_c, 8, 67, 0
10, 68940, Note_on_c, 8, 69, 60
10, 69000, Note_on_c, 8, 69, 0
10, 69000, Note_on_c, 8, 67, 60
10, 69060, Note_on_c, 8, 67, 0
10, 69060, Note_on_c, 8, 65, 60
10, 69118, Note_on_c, 8, 65, 0
10, 69120, Note_on_c, 8, 64, 60
10, 69180, Note_on_c, 8, 64, 0
10, 69180, Note_on_c, 8, 65, 60
10, 69240, Note_on_c, 8, 65, 0
10, 69240, Note_on_c, 8, 67, 60
10, 69300, Note_on_c, 8, 67, 0
10, 69300, Note_on_c, 8, 65, 60
10, 69360, Note_on_c, 8, 65, 0
10, 69360, Note_on_c, 8, 64, 60
10, 69460, Note_on_c, 8, 64, 0
10, 69600, Note_on_c, 8, 65, 60
10, 69660, Note_on_c, 8, 65, 0
10, 69660, Note_on_c, 8, 67, 60
10, 69720, Note_on_c, 8, 67, 0
10, 69720, Note_on_c, 8, 69, 60
10, 69780, Note_on_c, 8, 69, 0
10, 69780, Note_on_c, 8, 67, 60
10, 69840, Note_on_c, 8, 67, 0
10, 69840, Note_on_c, 8, 65, 60
10, 69900, Note_on_c, 8, 65, 0
10, 69900, Note_on_c, 8, 67, 60
10, 69960, Note_on_c, 8, 67, 0
10, 69960, Note_on_c, 8, 65, 60
10, 70020, Note_on_c, 8, 65, 0
10, 70020, Note_on_c, 8, 64, 60
10, 70078, Note_on_c, 8, 64, 0
10, 70080, Note_on_c, 8, 62, 60
10, 70140, Note_on_c, 8, 62, 0
10, 70140, Note_on_c, 8, 64, 60
10, 70200, Note_on_c, 8, 64, 0
10, 70200, Note_on_c, 8, 65, 60
10, 70260, Note_on_c, 8, 65, 0
10, 70260, Note_on_c, 8, 64, 60
10, 70320, Note_on_c, 8, 64, 0
10, 70320, Note_on_c, 8, 62, 60
10, 70420, Note_on_c, 8, 62, 0
10, 70560, Note_on_c, 8, 64, 60
10, 70620, Note_on_c, 8, 64, 0
10, 70620, Note_on_c, 8, 65, 60
10, 70680, Note_on_c, 8, 65, 0
10, 70680, Note_on_c, 8, 67, 60
10, 70740, Note_on_c, 8, 67, 0
10, 70740, Note_on_c, 8, 65, 60
10, 70800, Note_on_c, 8, 65, 0
10, 70800, Note_on_c, 8, 64, 60
10, 70860, Note_on_c, 8, 64, 0
10, 70860, Note_on_c, 8, 60, 60
10, 70920, Note_on_c, 8, 60, 0
10, 70920, Note_on_c, 8, 62, 60
10, 70980, Note_on_c, 8, 62, 0
10, 70980, Note_on_c, 8, 64, 60
10, 71038, Note_on_c, 8, 64, 0
10, 71040, Note_on_c, 8, 65, 60
10, 71140, Note_on_c, 8, 65, 0
10, 71160, Note_on_c, 8, 57, 60
10, 71260, Note_on_c, 8, 57, 0
10, 71280, Note_on_c, 8, 57, 60
10, 71380, Note_on_c, 8, 57, 0
10, 71400, Note_on_c, 8, 57, 60
10, 71500, Note_on_c, 8, 57, 0
10, 71640, Note_on_c, 8, 57, 60
10, 71740, Note_on_c, 8, 57, 0
10, 71760, Note_on_c, 8, 57, 60
10, 71860, Note_on_c, 8, 57, 0
10, 71880, Note_on_c, 8, 57, 60
10, 71980, Note_on_c, 8, 57, 0
10, 72120, Note_on_c, 8, 58, 60
10, 72220, Note_on_c, 8, 58, 0
10, 72240, Note_on_c, 8, 58, 60
10, 72340, Note_on_c, 8, 58, 0
10, 72360, Note_on_c, 8, 58, 60
10, 72460, Note_on_c, 8, 58, 0
10, 72600, Note_on_c, 8, 58, 60
10, 72700, Note_on_c, 8, 58, 0
10, 72720, Note_on_c, 8, 58, 60
10, 72820, Note_on_c, 8, 58, 0
10, 72840, Note_on_c, 8, 58, 60
10, 72940, Note_on_c, 8, 58, 0
10, 73080, Note_on_c, 8, 57, 60
10, 73180, Note_on_c, 8, 57, 0
10, 73200, Note_on_c, 8, 57, 60
10, 73300, Note_on_c, 8, 57, 0
10, 73320, Note_on_c, 8, 57, 60
10, 73420, Note_on_c, 8, 57, 0
10, 73560, Note_on_c, 8, 57, 60
10, 73660, Note_on_c, 8, 57, 0
10, 73680, Note_on_c, 8, 57, 60
10, 73780, Note_on_c, 8, 57, 0
10, 73800, Note_on_c, 8, 57, 60
10, 73900, Note_on_c, 8, 57, 0
10, 73920, Note_on_c, 8, 55, 60
10, 74040, Note_on_c, 8, 55, 0
10, 74040, Note_on_c, 8, 60, 60
10, 74160, Note_on_c, 8, 60, 0
10, 74160, Note_on_c, 8, 57, 60
10, 74280, Note_on_c, 8, 57, 0
10, 74280, Note_on_c, 8, 60, 60
10, 74400, Note_on_c, 8, 60, 0
10, 74400, Note_on_c, 8, 58, 60
10, 74520, Note_on_c, 8, 58, 0
10, 74520, Note_on_c, 8, 60, 60
10, 74640, Note_on_c, 8, 60, 0
10, 74640, Note_on_c, 8, 55, 60
10, 74760, Note_on_c, 8, 55, 0
10, 74760, Note_on_c, 8, 60, 60
10, 74860, Note_on_c, 8, 60, 0
10, 74880, Note_on_c, 8, 57, 60
10, 74980, Note_on_c, 8, 57, 0
10, 75000, Note_on_c, 8, 57, 60
10, 75100, Note_on_c, 8, 57, 0
10, 75120, Note_on_c, 8, 57, 60
10, 75220, Note_on_c, 8, 57, 0
10, 75240, Note_on_c, 8, 57, 60
10, 75340, Note_on_c, 8, 57, 0
10, 75480, Note_on_c, 8, 57, 60
10, 75580, Note_on_c, 8, 57, 0
10, 75600, Note_on_c, 8, 57, 60
10, 75700, Note_on_c, 8, 57, 0
10, 75720, Note_on_c, 8, 57, 60
10, 75820, Note_on_c, 8, 57, 0
10, 75960, Note_on_c, 8, 58, 60
10, 76060, Note_on_c, 8, 58, 0
10, 76080, Note_on_c, 8, 58, 60
10, 76180, Note_on_c, 8, 58, 0
10, 76200, Note_on_c, 8, 58, 60
10, 76300, Note_on_c, 8, 58, 0
10, 76440, Note_on_c, 8, 58, 60
10, 76540, Note_on_c, 8, 58, 0
10, 76560, Note_on_c, 8, 58, 60
10, 76660, Note_on_c, 8, 58, 0
10, 76680, Note_on_c, 8, 58, 60
10, 76780, Note_on_c, 8, 58, 0
10, 76920, Note_on_c, 8, 57, 60
10, 77020, Note_on_c, 8, 57, 0
10, 77040, Note_on_c, 8, 57, 60
10, 77140, Note_on_c, 8, 57, 0
10, 77160, Note_on_c, 8, 57, 60
10, 77260, Note_on_c, 8, 57, 0
10, 77400, Note_on_c, 8, 57, 60
10, 77500, Note_on_c, 8, 57, 0
10, 77520, Note_on_c, 8, 57, 60
10, 77620, Note_on_c, 8, 57, 0
10, 77640, Note_on_c, 8, 57, 60
10, 77740, Note_on_c, 8, 57, 0
10, 77760, Note_on_c, 8, 55, 60
10, 77880, Note_on_c, 8, 55, 0
10, 77880, Note_on_c, 8, 60, 60
10, 78000, Note_on_c, 8, 60, 0
10, 78000, Note_on_c, 8, 57, 60
10, 78120, Note_on_c, 8, 57, 0
10, 78120, Note_on_c, 8, 60, 60
10, 78240, Note_on_c, 8, 60, 0
10, 78240, Note_on_c, 8, 58, 60
10, 78360, Note_on_c, 8, 58, 0
10, 78360, Note_on_c, 8, 60, 60
10, 78480, Note_on_c, 8, 60, 0
10, 78480, Note_on_c, 8, 55, 60
10, 78600, Note_on_c, 8, 55, 0
10, 78600, Note_on_c, 8, 60, 60
10, 78700, Note_on_c, 8, 60, 0
10, 78720, Note_on_c, 8, 57, 60
10, 78820, Note_on_c, 8, 57, 0
10, 78840, Note_on_c, 8, 81, 92
10, 79050, Note_on_c, 8, 81, 0
10, 79080, Note_on_c, 8, 80, 92
10, 79180, Note_on_c, 8, 80, 0
10, 79200, Note_on_c, 8, 81, 92
10, 79300, Note_on_c, 8, 81, 0
10, 79320, Note_on_c, 8, 80, 92
10, 79420, Note_on_c, 8, 80, 0
10, 79440, Note_on_c, 8, 81, 92
10, 79540, Note_on_c, 8, 81, 0
10, 79560, Note_on_c, 8, 76, 92
10, 79660, Note_on_c, 8, 76, 0
10, 79680, Note_on_c, 8, 77, 92
10, 79780, Note_on_c, 8, 77, 0
10, 79800, Note_on_c, 8, 77, 92
10, 80010, Note_on_c, 8, 77, 0
10, 80040, Note_on_c, 8, 76, 92
10, 80140, Note_on_c, 8, 76, 0
10, 80160, Note_on_c, 8, 77, 92
10, 80260, Note_on_c, 8, 77, 0
10, 80280, Note_on_c, 8, 76, 92
10, 80380, Note_on_c, 8, 76, 0
10, 80400, Note_on_c, 8, 77, 92
10, 80500, Note_on_c, 8, 77, 0
10, 80520, Note_on_c, 8, 74, 92
10, 80620, Note_on_c, 8, 74, 0
10, 80640, Note_on_c, 8, 75, 92
10, 80740, Note_on_c, 8, 75, 0
10, 80760, Note_on_c, 8, 79, 92
10, 80970, Note_on_c, 8, 79, 0
10, 81000, Note_on_c, 8, 79, 92
10, 81100, Note_on_c, 8, 79, 0
10, 81120, Note_on_c, 8, 79, 92
10, 81220, Note_on_c, 8, 79, 0
10, 81240, Note_on_c, 8, 79, 92
10, 81340, Note_on_c, 8, 79, 0
10, 81360, Note_on_c, 8, 79, 92
10, 81460, Note_on_c, 8, 79, 0
10, 81480, Note_on_c, 8, 75, 92
10, 81580, Note_on_c, 8, 75, 0
10, 81600, Note_on_c, 8, 75, 92
10, 81700, Note_on_c, 8, 75, 0
10, 81720, Note_on_c, 8, 75, 92
10, 81820, Note_on_c, 8, 75, 0
10, 81840, Note_on_c, 8, 75, 92
10, 81940, Note_on_c, 8, 75, 0
10, 81960, Note_on_c, 8, 72, 92
10, 82060, Note_on_c, 8, 72, 0
10, 82080, Note_on_c, 8, 72, 92
10, 82180, Note_on_c, 8, 72, 0
10, 82200, Note_on_c, 8, 72, 92
10, 82300, Note_on_c, 8, 72, 0
10, 82320, Note_on_c, 8, 72, 92
10, 82420, Note_on_c, 8, 72, 0
10, 82440, Note_on_c, 8, 76, 92
10, 82540, Note_on_c, 8, 76, 0
10, 82560, Note_on_c, 8, 77, 92
10, 82618, Note_on_c, 8, 77, 0
10, 82620, Note_on_c, 8, 77, 92
10, 82678, Note_on_c, 8, 77, 0
10, 82680, Note_on_c, 8, 76, 92
10, 82738, Note_on_c, 8, 76, 0
10, 82740, Note_on_c, 8, 76, 92
10, 82798, Note_on_c, 8, 76, 0
10, 82800, Note_on_c, 8, 80, 92
10, 82858, Note_on_c, 8, 80, 0
10, 82860, Note_on_c, 8, 80, 92
10, 82918, Note_on_c, 8, 80, 0
10, 82920, Note_on_c, 8, 79, 92
10, 82978, Note_on_c, 8, 79, 0
10, 82980, Note_on_c, 8, 79, 92
10, 83038, Note_on_c, 8, 79, 0
10, 83040, Note_on_c, 8, 77, 92
10, 83098, Note_on_c, 8, 77, 0
10, 83100, Note_on_c, 8, 77, 92
10, 83158, Note_on_c, 8, 77, 0
10, 83160, Note_on_c, 8, 75, 92
10, 83218, Note_on_c, 8, 75, 0
10, 83220, Note_on_c, 8, 75, 92
10, 83278, Note_on_c, 8, 75, 0
10, 83280, Note_on_c, 8, 74, 92
10, 83338, Note_on_c, 8, 74, 0
10, 83340, Note_on_c, 8, 74, 92
10, 83398, Note_on_c, 8, 74, 0
10, 83400, Note_on_c, 8, 72, 92
10, 83458, Note_on_c, 8, 72, 0
10, 83460, Note_on_c, 8, 72, 92
10, 83518, Note_on_c, 8, 72, 0
10, 83520, Note_on_c, 8, 71, 92
10, 83620, Note_on_c, 8, 71, 0
10, 83640, Note_on_c, 8, 59, 60
10, 83740, Note_on_c, 8, 59, 0
10, 83760, Note_on_c, 8, 59, 60
10, 83860, Note_on_c, 8, 59, 0
10, 83880, Note_on_c, 8, 59, 60
10, 83980, Note_on_c, 8, 59, 0
10, 84120, Note_on_c, 8, 59, 60
10, 84220, Note_on_c, 8, 59, 0
10, 84240, Note_on_c, 8, 59, 60
10, 84340, Note_on_c, 8, 59, 0
10, 84360, Note_on_c, 8, 59, 60
10, 84460, Note_on_c, 8, 59, 0
10, 84600, Note_on_c, 8, 60, 60
10, 84700, Note_on_c, 8, 60, 0
10, 84720, Note_on_c, 8, 60, 60
10, 84820, Note_on_c, 8, 60, 0
10, 84840, Note_on_c, 8, 60, 60
10, 84940, Note_on_c, 8, 60, 0
10, 85080, Note_on_c, 8, 60, 60
10, 85180, Note_on_c, 8, 60, 0
10, 85200, Note_on_c, 8, 60, 60
10, 85300, Note_on_c, 8, 60, 0
10, 85320, Note_on_c, 8, 60, 60
10, 85420, Note_on_c, 8, 60, 0
10, 85560, Note_on_c, 8, 59, 60
10, 85660, Note_on_c, 8, 59, 0
10, 85680, Note_on_c, 8, 59, 60
10, 85780, Note_on_c, 8, 59, 0
10, 85800, Note_on_c, 8, 59, 60
10, 85900, Note_on_c, 8, 59, 0
10, 86040, Note_on_c, 8, 59, 60
10, 86140, Note_on_c, 8, 59, 0
10, 86160, Note_on_c, 8, 59, 60
10, 86260, Note_on_c, 8, 59, 0
10, 86280, Note_on_c, 8, 59, 60
10, 86380, Note_on_c, 8, 59, 0
10, 86520, Note_on_c, 8, 60, 60
10, 86620, Note_on_c, 8, 60, 0
10, 86640, Note_on_c, 8, 60, 60
10, 86740, Note_on_c, 8, 60, 0
10, 86760, Note_on_c, 8, 60, 60
10, 86860, Note_on_c, 8, 60, 0
10, 87000, Note_on_c, 8, 60, 60
10, 87100, Note_on_c, 8, 60, 0
10, 87120, Note_on_c, 8, 60, 60
10, 87220, Note_on_c, 8, 60, 0
10, 87240, Note_on_c, 8, 60, 60
10, 87340, Note_on_c, 8, 60, 0
10, 87360, Note_on_c, 8, 55, 60
10, 87460, Note_on_c, 8, 55, 0
10, 88380, Note_on_c, 8, 72, 60
10, 88438, Note_on_c, 8, 72, 0
10, 88440, Note_on_c, 8, 72, 60
10, 88498, Note_on_c, 8, 72, 0
10, 88500, Note_on_c, 8, 72, 60
10, 88558, Note_on_c, 8, 72, 0
10, 88560, Note_on_c, 8, 72, 60
10, 88618, Note_on_c, 8, 72, 0
10, 88620, Note_on_c, 8, 72, 60
10, 88678, Note_on_c, 8, 72, 0
10, 88680, Note_on_c, 8, 72, 60
10, 88738, Note_on_c, 8, 72, 0
10, 88740, Note_on_c, 8, 72, 60
10, 88798, Note_on_c, 8, 72, 0
10, 88800, Note_on_c, 8, 76, 60
10, 88815, Note_on_c, 8, 76, 0
10, 88815, Note_on_c, 8, 74, 60
10, 88860, Note_on_c, 8, 74, 0
10, 88860, Note_on_c, 8, 72, 60
10, 88918, Note_on_c, 8, 72, 0
10, 88920, Note_on_c, 8, 72, 60
10, 88940, Note_on_c, 8, 72, 0
10, 88980, Note_on_c, 8, 72, 60
10, 89000, Note_on_c, 8, 72, 0
10, 89040, Note_on_c, 8, 71, 60
10, 89100, Note_on_c, 8, 71, 0
10, 89100, Note_on_c, 8, 72, 60
10, 89158, Note_on_c, 8, 72, 0
10, 89160, Note_on_c, 8, 71, 60
10, 89220, Note_on_c, 8, 71, 0
10, 89220, Note_on_c, 8, 72, 60
10, 89278, Note_on_c, 8, 72, 0
10, 89280, Note_on_c, 8, 71, 60
10, 90210, Note_on_c, 8, 71, 0
10, 90240, Note_on_c, 8, 72, 60
10, 90340, Note_on_c, 8, 72, 0
10, 90360, Note_on_c, 8, 67, 92
10, 90570, Note_on_c, 8, 67, 0
10, 90600, Note_on_c, 8, 69, 92
10, 90700, Note_on_c, 8, 69, 0
10, 90720, Note_on_c, 8, 67, 92
10, 90820, Note_on_c, 8, 67, 0
10, 90840, Note_on_c, 8, 69, 92
10, 90940, Note_on_c, 8, 69, 0
10, 90960, Note_on_c, 8, 67, 92
10, 91060, Note_on_c, 8, 67, 0
10, 91080, Note_on_c, 8, 69, 92
10, 91180, Note_on_c, 8, 69, 0
10, 91200, Note_on_c, 8, 67, 92
10, 91300, Note_on_c, 8, 67, 0
10, 91320, Note_on_c, 8, 67, 92
10, 91530, Note_on_c, 8, 67, 0
10, 91560, Note_on_c, 8, 69, 92
10, 91660, Note_on_c, 8, 69, 0
10, 91680, Note_on_c, 8, 67, 92
10, 91780, Note_on_c, 8, 67, 0
10, 91800, Note_on_c, 8, 69, 92
10, 91900, Note_on_c, 8, 69, 0
10, 91920, Note_on_c, 8, 67, 92
10, 92020, Note_on_c, 8, 67, 0
10, 92040, Note_on_c, 8, 69, 92
10, 92140, Note_on_c, 8, 69, 0
10, 92160, Note_on_c, 8, 67, 92
10, 92260, Note_on_c, 8, 67, 0
10, 92280, Note_on_c, 8, 64, 60
10, 92380, Note_on_c, 8, 64, 0
10, 92400, Note_on_c, 8, 64, 60
10, 92500, Note_on_c, 8, 64, 0
10, 92520, Note_on_c, 8, 64, 60
10, 92620, Note_on_c, 8, 64, 0
10, 92760, Note_on_c, 8, 64, 60
10, 92860, Note_on_c, 8, 64, 0
10, 92880, Note_on_c, 8, 64, 60
10, 92980, Note_on_c, 8, 64, 0
10, 93000, Note_on_c, 8, 64, 60
10, 93100, Note_on_c, 8, 64, 0
10, 93240, Note_on_c, 8, 65, 60
10, 93340, Note_on_c, 8, 65, 0
10, 93360, Note_on_c, 8, 65, 60
10, 93460, Note_on_c, 8, 65, 0
10, 93480, Note_on_c, 8, 65, 60
10, 93580, Note_on_c, 8, 65, 0
10, 93720, Note_on_c, 8, 65, 60
10, 93820, Note_on_c, 8, 65, 0
10, 93840, Note_on_c, 8, 65, 60
10, 93940, Note_on_c, 8, 65, 0
10, 93960, Note_on_c, 8, 65, 60
10, 94060, Note_on_c, 8, 65, 0
10, 94200, Note_on_c, 8, 64, 60
10, 94300, Note_on_c, 8, 64, 0
10, 94320, Note_on_c, 8, 64, 60
10, 94420, Note_on_c, 8, 64, 0
10, 94440, Note_on_c, 8, 64, 60
10, 94540, Note_on_c, 8, 64, 0
10, 94680, Note_on_c, 8, 64, 60
10, 94780, Note_on_c, 8, 64, 0
10, 94800, Note_on_c, 8, 64, 60
10, 94900, Note_on_c, 8, 64, 0
10, 94920, Note_on_c, 8, 64, 60
10, 95020, Note_on_c, 8, 64, 0
10, 95040, Note_on_c, 8, 59, 60
10, 95160, Note_on_c, 8, 59, 0
10, 95160, Note_on_c, 8, 55, 60
10, 95280, Note_on_c, 8, 55, 0
10, 95280, Note_on_c, 8, 60, 60
10, 95400, Note_on_c, 8, 60, 0
10, 95400, Note_on_c, 8, 55, 60
10, 95520, Note_on_c, 8, 55, 0
10, 95520, Note_on_c, 8, 62, 60
10, 95640, Note_on_c, 8, 62, 0
10, 95640, Note_on_c, 8, 55, 60
10, 95760, Note_on_c, 8, 55, 0
10, 95760, Note_on_c, 8, 59, 60
10, 95880, Note_on_c, 8, 59, 0
10, 95880, Note_on_c, 8, 55, 60
10, 95980, Note_on_c, 8, 55, 0
10, 96000, Note_on_c, 8, 60, 60
10, 96100, Note_on_c, 8, 60, 0
10, 96120, Note_on_c, 8, 64, 60
10, 96220, Note_on_c, 8, 64, 0
10, 96240, Note_on_c, 8, 64, 60
10, 96340, Note_on_c, 8, 64, 0
10, 96360, Note_on_c, 8, 64, 60
10, 96460, Note_on_c, 8, 64, 0
10, 96600, Note_on_c, 8, 64, 60
10, 96700, Note_on_c, 8, 64, 0
10, 96720, Note_on_c, 8, 64, 60
10, 96820, Note_on_c, 8, 64, 0
10, 96840, Note_on_c, 8, 64, 60
10, 96940, Note_on_c, 8, 64, 0
10, 97080, Note_on_c, 8, 65, 60
10, 97180, Note_on_c, 8, 65, 0
10, 97200, Note_on_c, 8, 65, 60
10, 97300, Note_on_c, 8, 65, 0
10, 97320, Note_on_c, 8, 65, 60
10, 97420, Note_on_c, 8, 65, 0
10, 97560, Note_on_c, 8, 65, 60
10, 97660, Note_on_c, 8, 65, 0
10, 97680, Note_on_c, 8, 65, 60
10, 97780, Note_on_c, 8, 65, 0
10, 97800, Note_on_c, 8, 65, 60
10, 97900, Note_on_c, 8, 65, 0
10, 98040, Note_on_c, 8, 64, 60
10, 98140, Note_on_c, 8, 64, 0
10, 98160, Note_on_c, 8, 64, 60
10, 98260, Note_on_c, 8, 64, 0
10, 98280, Note_on_c, 8, 64, 60
10, 98380, Note_on_c, 8, 64, 0
10, 98520, Note_on_c, 8, 64, 60
10, 98620, Note_on_c, 8, 64, 0
10, 98640, Note_on_c, 8, 64, 60
10, 98740, Note_on_c, 8, 64, 0
10, 98760, Note_on_c, 8, 64, 60
10, 98860, Note_on_c, 8, 64, 0
10, 98880, Note_on_c, 8, 59, 60
10, 99000, Note_on_c, 8, 59, 0
10, 99000, Note_on_c, 8, 55, 60
10, 99120, Note_on_c, 8, 55, 0
10, 99120, Note_on_c, 8, 60, 60
10, 99240, Note_on_c, 8, 60, 0
10, 99240, Note_on_c, 8, 55, 60
10, 99360, Note_on_c, 8, 55, 0
10, 99360, Note_on_c, 8, 62, 60
10, 99480, Note_on_c, 8, 62, 0
10, 99480, Note_on_c, 8, 55, 60
10, 99600, Note_on_c, 8, 55, 0
10, 99600, Note_on_c, 8, 59, 60
10, 99720, Note_on_c, 8, 59, 0
10, 99720, Note_on_c, 8, 55, 60
10, 99820, Note_on_c, 8, 55, 0
10, 99840, Note_on_c, 8, 60, 60
10, 99940, Note_on_c, 8, 60, 0
10, 99960, Note_on_c, 8, 79, 92
10, 100170, Note_on_c, 8, 79, 0
10, 100200, Note_on_c, 8, 79, 92
10, 100300, Note_on_c, 8, 79, 0
10, 100320, Note_on_c, 8, 79, 92
10, 100420, Note_on_c, 8, 79, 0
10, 100440, Note_on_c, 8, 79, 92
10, 100540, Note_on_c, 8, 79, 0
10, 100560, Note_on_c, 8, 79, 92
10, 100660, Note_on_c, 8, 79, 0
10, 100680, Note_on_c, 8, 76, 92
10, 100780, Note_on_c, 8, 76, 0
10, 100800, Note_on_c, 8, 76, 92
10, 100900, Note_on_c, 8, 76, 0
10, 100920, Note_on_c, 8, 76, 92
10, 101130, Note_on_c, 8, 76, 0
10, 101160, Note_on_c, 8, 76, 92
10, 101260, Note_on_c, 8, 76, 0
10, 101280, Note_on_c, 8, 76, 92
10, 101380, Note_on_c, 8, 76, 0
10, 101400, Note_on_c, 8, 76, 92
10, 101500, Note_on_c, 8, 76, 0
10, 101520, Note_on_c, 8, 76, 92
10, 101620, Note_on_c, 8, 76, 0
10, 101640, Note_on_c, 8, 72, 92
10, 101740, Note_on_c, 8, 72, 0
10, 101760, Note_on_c, 8, 72, 92
10, 101860, Note_on_c, 8, 72, 0
10, 101880, Note_on_c, 8, 72, 92
10, 102090, Note_on_c, 8, 72, 0
10, 102120, Note_on_c, 8, 72, 92
10, 102220, Note_on_c, 8, 72, 0
10, 102240, Note_on_c, 8, 72, 92
10, 102340, Note_on_c, 8, 72, 0
10, 102360, Note_on_c, 8, 72, 92
10, 102460, Note_on_c, 8, 72, 0
10, 102480, Note_on_c, 8, 72, 92
10, 102580, Note_on_c, 8, 72, 0
10, 102600, Note_on_c, 8, 73, 92
10, 102700, Note_on_c, 8, 73, 0
10, 102720, Note_on_c, 8, 74, 92
10, 102778, Note_on_c, 8, 74, 0
10, 102780, Note_on_c, 8, 74, 92
10, 102838, Note_on_c, 8, 74, 0
10, 102840, Note_on_c, 8, 82, 92
10, 102898, Note_on_c, 8, 82, 0
10, 102900, Note_on_c, 8, 82, 92
10, 102958, Note_on_c, 8, 82, 0
10, 102960, Note_on_c, 8, 81, 92
10, 103018, Note_on_c, 8, 81, 0
10, 103020, Note_on_c, 8, 81, 92
10, 103078, Note_on_c, 8, 81, 0
10, 103080, Note_on_c, 8, 81, 92
10, 103138, Note_on_c, 8, 81, 0
10, 103140, Note_on_c, 8, 81, 92
10, 103198, Note_on_c, 8, 81, 0
10, 103200, Note_on_c, 8, 81, 92
10, 103258, Note_on_c, 8, 81, 0
10, 103260, Note_on_c, 8, 81, 92
10, 103318, Note_on_c, 8, 81, 0
10, 103320, Note_on_c, 8, 87, 92
10, 103378, Note_on_c, 8, 87, 0
10, 103380, Note_on_c, 8, 87, 92
10, 103438, Note_on_c, 8, 87, 0
10, 103440, Note_on_c, 8, 86, 92
10, 103498, Note_on_c, 8, 86, 0
10, 103500, Note_on_c, 8, 86, 92
10, 103558, Note_on_c, 8, 86, 0
10, 103560, Note_on_c, 8, 83, 92
10, 103618, Note_on_c, 8, 83, 0
10, 103620, Note_on_c, 8, 83, 92
10, 103678, Note_on_c, 8, 83, 0
10, 103680, Note_on_c, 8, 84, 92
10, 103738, Note_on_c, 8, 84, 0
10, 103740, Note_on_c, 8, 84, 92
10, 103798, Note_on_c, 8, 84, 0
10, 103800, Note_on_c, 8, 84, 92
10, 103858, Note_on_c, 8, 84, 0
10, 103860, Note_on_c, 8, 84, 92
10, 103918, Note_on_c, 8, 84, 0
10, 103920, Note_on_c, 8, 84, 92
10, 103978, Note_on_c, 8, 84, 0
10, 103980, Note_on_c, 8, 84, 92
10, 104038, Note_on_c, 8, 84, 0
10, 104040, Note_on_c, 8, 84, 92
10, 104098, Note_on_c, 8, 84, 0
10, 104100, Note_on_c, 8, 84, 92
10, 104158, Note_on_c, 8, 84, 0
10, 104160, Note_on_c, 8, 84, 92
10, 104218, Note_on_c, 8, 84, 0
10, 104220, Note_on_c, 8, 84, 92
10, 104278, Note_on_c, 8, 84, 0
10, 104280, Note_on_c, 8, 84, 92
10, 104338, Note_on_c, 8, 84, 0
10, 104340, Note_on_c, 8, 84, 92
10, 104398, Note_on_c, 8, 84, 0
10, 104400, Note_on_c, 8, 83, 92
10, 104458, Note_on_c, 8, 83, 0
10, 104460, Note_on_c, 8, 83, 92
10, 104518, Note_on_c, 8, 83, 0
10, 104520, Note_on_c, 8, 83, 92
10, 104578, Note_on_c, 8, 83, 0
10, 104580, Note_on_c, 8, 83, 92
10, 104638, Note_on_c, 8, 83, 0
10, 104640, Note_on_c, 8, 84, 92
10, 104740, Note_on_c, 8, 84, 0
10, 104760, Note_on_c, 8, 79, 92
10, 104970, Note_on_c, 8, 79, 0
10, 105000, Note_on_c, 8, 79, 92
10, 105100, Note_on_c, 8, 79, 0
10, 105120, Note_on_c, 8, 79, 92
10, 105220, Note_on_c, 8, 79, 0
10, 105240, Note_on_c, 8, 79, 92
10, 105340, Note_on_c, 8, 79, 0
10, 105360, Note_on_c, 8, 79, 92
10, 105460, Note_on_c, 8, 79, 0
10, 105480, Note_on_c, 8, 76, 92
10, 105580, Note_on_c, 8, 76, 0
10, 105600, Note_on_c, 8, 76, 92
10, 105700, Note_on_c, 8, 76, 0
10, 105720, Note_on_c, 8, 76, 92
10, 105930, Note_on_c, 8, 76, 0
10, 105960, Note_on_c, 8, 76, 92
10, 106060, Note_on_c, 8, 76, 0
10, 106080, Note_on_c, 8, 76, 92
10, 106180, Note_on_c, 8, 76, 0
10, 106200, Note_on_c, 8, 76, 92
10, 106300, Note_on_c, 8, 76, 0
10, 106320, Note_on_c, 8, 76, 92
10, 106420, Note_on_c, 8, 76, 0
10, 106440, Note_on_c, 8, 72, 92
10, 106540, Note_on_c, 8, 72, 0
10, 106560, Note_on_c, 8, 72, 92
10, 106660, Note_on_c, 8, 72, 0
10, 106680, Note_on_c, 8, 72, 92
10, 106890, Note_on_c, 8, 72, 0
10, 106920, Note_on_c, 8, 72, 92
10, 107020, Note_on_c, 8, 72, 0
10, 107040, Note_on_c, 8, 72, 92
10, 107140, Note_on_c, 8, 72, 0
10, 107160, Note_on_c, 8, 72, 92
10, 107260, Note_on_c, 8, 72, 0
10, 107280, Note_on_c, 8, 72, 92
10, 107380, Note_on_c, 8, 72, 0
10, 107400, Note_on_c, 8, 73, 92
10, 107500, Note_on_c, 8, 73, 0
10, 107520, Note_on_c, 8, 74, 92
10, 107578, Note_on_c, 8, 74, 0
10, 107580, Note_on_c, 8, 74, 92
10, 107638, Note_on_c, 8, 74, 0
10, 107640, Note_on_c, 8, 82, 92
10, 107698, Note_on_c, 8, 82, 0
10, 107700, Note_on_c, 8, 82, 92
10, 107758, Note_on_c, 8, 82, 0
10, 107760, Note_on_c, 8, 81, 92
10, 107818, Note_on_c, 8, 81, 0
10, 107820, Note_on_c, 8, 81, 92
10, 107878, Note_on_c, 8, 81, 0
10, 107880, Note_on_c, 8, 81, 92
10, 107938, Note_on_c, 8, 81, 0
10, 107940, Note_on_c, 8, 81, 92
10, 107998, Note_on_c, 8, 81, 0
10, 108000, Note_on_c, 8, 81, 92
10, 108058, Note_on_c, 8, 81, 0
10, 108060, Note_on_c, 8, 81, 92
10, 108118, Note_on_c, 8, 81, 0
10, 108120, Note_on_c, 8, 87, 92
10, 108178, Note_on_c, 8, 87, 0
10, 108180, Note_on_c, 8, 87, 92
10, 108238, Note_on_c, 8, 87, 0
10, 108240, Note_on_c, 8, 86, 92
10, 108298, Note_on_c, 8, 86, 0
10, 108300, Note_on_c, 8, 86, 92
10, 108358, Note_on_c, 8, 86, 0
10, 108360, Note_on_c, 8, 83, 92
10, 108418, Note_on_c, 8, 83, 0
10, 108420, Note_on_c, 8, 83, 92
10, 108478, Note_on_c, 8, 83, 0
10, 108480, Note_on_c, 8, 84, 92
10, 108580, Note_on_c, 8, 84, 0
10, 110400, Note_on_c, 8, 60, 60
10, 110880, Note_on_c, 8, 60, 0
10, 110880, Note_on_c, 8, 59, 60
10, 111330, Note_on_c, 8, 59, 0
10, 111360, Note_on_c, 8, 60, 60
10, 111940, Note_on_c, 8, 60, 0
10, 112800, Note_on_c, 8, 67, 92
10, 112800, Note_on_c, 8, 72, 92
10, 112800, Note_on_c, 8, 76, 92
10, 112900, Note_on_c, 8, 76, 0
10, 112900, Note_on_c, 8, 72, 0
10, 112900, Note_on_c, 8, 67, 0
10, 113280, Note_on_c, 8, 65, 92
10, 113280, Note_on_c, 8, 72, 92
10, 113280, Note_on_c, 8, 77, 92
10, 113380, Note_on_c, 8, 77, 0
10, 113380, Note_on_c, 8, 72, 0
10, 113380, Note_on_c, 8, 65, 0
10, 113760, Note_on_c, 8, 65, 92
10, 113760, Note_on_c, 8, 72, 92
10, 113760, Note_on_c, 8, 81, 92
10, 113860, Note_on_c, 8, 81, 0
10, 113860, Note_on_c, 8, 72, 0
10, 113860, Note_on_c, 8, 65, 0
10, 114240, Note_on_c, 8, 55, 92
10, 114340, Note_on_c, 8, 55, 0
10, 114720, Note_on_c, 8, 67, 92
10, 114720, Note_on_c, 8, 74, 92
10, 114720, Note_on_c, 8, 83, 92
10, 114820, Note_on_c, 8, 83, 0
10, 114820, Note_on_c, 8, 74, 0
10, 114820, Note_on_c, 8, 67, 0
10, 116220, Note_on_c, 8, 60, 60
10, 116278, Note_on_c, 8, 60, 0
10, 116280, Note_on_c, 8, 60, 60
10, 116338, Note_on_c, 8, 60, 0
10, 116340, Note_on_c, 8, 60, 60
10, 116398, Note_on_c, 8, 60, 0
10, 116400, Note_on_c, 8, 60, 60
10, 116458, Note_on_c, 8, 60, 0
10, 116460, Note_on_c, 8, 60, 60
10, 116518, Note_on_c, 8, 60, 0
10, 116520, Note_on_c, 8, 60, 60
10, 116578, Note_on_c, 8, 60, 0
10, 116580, Note_on_c, 8, 60, 60
10, 116638, Note_on_c, 8, 60, 0
10, 116640, Note_on_c, 8, 64, 60
10, 116655, Note_on_c, 8, 64, 0
10, 116655, Note_on_c, 8, 62, 60
10, 116700, Note_on_c, 8, 62, 0
10, 116700, Note_on_c, 8, 60, 60
10, 116758, Note_on_c, 8, 60, 0
10, 116760, Note_on_c, 8, 60, 60
10, 116780, Note_on_c, 8, 60, 0
10, 116820, Note_on_c, 8, 60, 60
10, 116840, Note_on_c, 8, 60, 0
10, 116880, Note_on_c, 8, 59, 60
10, 116940, Note_on_c, 8, 59, 0
10, 116940, Note_on_c, 8, 60, 60
10, 116998, Note_on_c, 8, 60, 0
10, 117000, Note_on_c, 8, 59, 60
10, 117060, Note_on_c, 8, 59, 0
10, 117060, Note_on_c, 8, 60, 60
10, 117118, Note_on_c, 8, 60, 0
10, 117120, Note_on_c, 8, 64, 60
10, 117178, Note_on_c, 8, 64, 0
10, 117180, Note_on_c, 8, 64, 60
10, 117238, Note_on_c, 8, 64, 0
10, 117240, Note_on_c, 8, 64, 60
10, 117298, Note_on_c, 8, 64, 0
10, 117300, Note_on_c, 8, 64, 60
10, 117358, Note_on_c, 8, 64, 0
10, 117360, Note_on_c, 8, 64, 60
10, 117418, Note_on_c, 8, 64, 0
10, 117420, Note_on_c, 8, 64, 60
10, 117478, Note_on_c, 8, 64, 0
10, 117480, Note_on_c, 8, 64, 60
10, 117538, Note_on_c, 8, 64, 0
10, 117540, Note_on_c, 8, 64, 60
10, 117598, Note_on_c, 8, 64, 0
10, 117600, Note_on_c, 8, 67, 60
10, 117615, Note_on_c, 8, 67, 0
10, 117615, Note_on_c, 8, 65, 60
10, 117660, Note_on_c, 8, 65, 0
10, 117660, Note_on_c, 8, 64, 60
10, 117718, Note_on_c, 8, 64, 0
10, 117720, Note_on_c, 8, 64, 60
10, 117740, Note_on_c, 8, 64, 0
10, 117780, Note_on_c, 8, 64, 60
10, 117800, Note_on_c, 8, 64, 0
10, 117840, Note_on_c, 8, 63, 60
10, 117900, Note_on_c, 8, 63, 0
10, 117900, Note_on_c, 8, 64, 60
10, 117958, Note_on_c, 8, 64, 0
10, 117960, Note_on_c, 8, 63, 60
10, 118020, Note_on_c, 8, 63, 0
10, 118020, Note_on_c, 8, 64, 60
10, 118078, Note_on_c, 8, 64, 0
10, 118080, Note_on_c, 8, 64, 60
10, 118138, Note_on_c, 8, 64, 0
10, 118140, Note_on_c, 8, 64, 60
10, 118198, Note_on_c, 8, 64, 0
10, 118200, Note_on_c, 8, 64, 60
10, 118258, Note_on_c, 8, 64, 0
10, 118260, Note_on_c, 8, 64, 60
10, 118318, Note_on_c, 8, 64, 0
10, 118320, Note_on_c, 8, 64, 60
10, 118378, Note_on_c, 8, 64, 0
10, 118380, Note_on_c, 8, 64, 60
10, 118438, Note_on_c, 8, 64, 0
10, 118440, Note_on_c, 8, 64, 60
10, 118498, Note_on_c, 8, 64, 0
10, 118500, Note_on_c, 8, 64, 60
10, 118558, Note_on_c, 8, 64, 0
10, 118560, Note_on_c, 8, 67, 60
10, 118575, Note_on_c, 8, 67, 0
10, 118575, Note_on_c, 8, 65, 60
10, 118620, Note_on_c, 8, 65, 0
10, 118620, Note_on_c, 8, 64, 61
10, 118678, Note_on_c, 8, 64, 0
10, 118680, Note_on_c, 8, 64, 62
10, 118700, Note_on_c, 8, 64, 0
10, 118740, Note_on_c, 8, 64, 63
10, 118760, Note_on_c, 8, 64, 0
10, 118800, Note_on_c, 8, 63, 64
10, 118860, Note_on_c, 8, 63, 0
10, 118860, Note_on_c, 8, 64, 65
10, 118918, Note_on_c, 8, 64, 0
10, 118920, Note_on_c, 8, 63, 66
10, 118980, Note_on_c, 8, 63, 0
10, 118980, Note_on_c, 8, 64, 67
10, 119038, Note_on_c, 8, 64, 0
10, 119040, Note_on_c, 8, 72, 68
10, 119098, Note_on_c, 8, 72, 0
10, 119100, Note_on_c, 8, 72, 69
10, 119158, Note_on_c, 8, 72, 0
10, 119160, Note_on_c, 8, 72, 70
10, 119218, Note_on_c, 8, 72, 0
10, 119220, Note_on_c, 8, 72, 71
10, 119278, Note_on_c, 8, 72, 0
10, 119280, Note_on_c, 8, 72, 72
10, 119338, Note_on_c, 8, 72, 0
10, 119340, Note_on_c, 8, 72, 73
10, 119398, Note_on_c, 8, 72, 0
10, 119400, Note_on_c, 8, 72, 74
10, 119458, Note_on_c, 8, 72, 0
10, 119460, Note_on_c, 8, 72, 75
10, 119518, Note_on_c, 8, 72, 0
10, 119520, Note_on_c, 8, 76, 76
10, 119535, Note_on_c, 8, 76, 0
10, 119535, Note_on_c, 8, 74, 76
10, 119580, Note_on_c, 8, 74, 0
10, 119580, Note_on_c, 8, 72, 77
10, 119638, Note_on_c, 8, 72, 0
10, 119640, Note_on_c, 8, 72, 79
10, 119660, Note_on_c, 8, 72, 0
10, 119700, Note_on_c, 8, 72, 81
10, 119720, Note_on_c, 8, 72, 0
10, 119760, Note_on_c, 8, 71, 83
10, 119820, Note_on_c, 8, 71, 0
10, 119820, Note_on_c, 8, 72, 85
10, 119878, Note_on_c, 8, 72, 0
10, 119880, Note_on_c, 8, 71, 87
10, 119940, Note_on_c, 8, 71, 0
10, 119940, Note_on_c, 8, 72, 89
10, 119998, Note_on_c, 8, 72, 0
10, 120000, Note_on_c, 8, 76, 92
10, 120058, Note_on_c, 8, 76, 0
10, 120060, Note_on_c, 8, 76, 92
10, 120118, Note_on_c, 8, 76, 0
10, 120120, Note_on_c, 8, 76, 92
10, 120178, Note_on_c, 8, 76, 0
10, 120180, Note_on_c, 8, 76, 92
10, 120238, Note_on_c, 8, 76, 0
10, 120240, Note_on_c, 8, 76, 92
10, 120298, Note_on_c, 8, 76, 0
10, 120300, Note_on_c, 8, 76, 92
10, 120358, Note_on_c, 8, 76, 0
10, 120360, Note_on_c, 8, 76, 92
10, 120418, Note_on_c, 8, 76, 0
10, 120420, Note_on_c, 8, 76, 92
10, 120478, Note_on_c, 8, 76, 0
10, 120480, Note_on_c, 8, 79, 92
10, 120495, Note_on_c, 8, 79, 0
10, 120495, Note_on_c, 8, 77, 92
10, 120540, Note_on_c, 8, 77, 0
10, 120540, Note_on_c, 8, 76, 92
10, 120598, Note_on_c, 8, 76, 0
10, 120600, Note_on_c, 8, 76, 92
10, 120620, Note_on_c, 8, 76, 0
10, 120660, Note_on_c, 8, 76, 92
10, 120680, Note_on_c, 8, 76, 0
10, 120720, Note_on_c, 8, 75, 92
10, 120780, Note_on_c, 8, 75, 0
10, 120780, Note_on_c, 8, 76, 92
10, 120838, Note_on_c, 8, 76, 0
10, 120840, Note_on_c, 8, 75, 92
10, 120900, Note_on_c, 8, 75, 0
10, 120900, Note_on_c, 8, 76, 92
10, 120958, Note_on_c, 8, 76, 0
10, 120960, Note_on_c, 8, 67, 108
10, 121060, Note_on_c, 8, 67, 0
10, 121080, Note_on_c, 8, 67, 108
10, 121290, Note_on_c, 8, 67, 0
10, 121320, Note_on_c, 8, 69, 108
10, 121420, Note_on_c, 8, 69, 0
10, 121440, Note_on_c, 8, 67, 108
10, 121540, Note_on_c, 8, 67, 0
10, 121560, Note_on_c, 8, 69, 108
10, 121660, Note_on_c, 8, 69, 0
10, 121680, Note_on_c, 8, 67, 108
10, 121780, Note_on_c, 8, 67, 0
10, 121800, Note_on_c, 8, 55, 108
10, 121800, Note_on_c, 8, 62, 108
10, 121800, Note_on_c, 8, 71, 108
10, 121900, Note_on_c, 8, 71, 0
10, 121900, Note_on_c, 8, 62, 0
10, 121900, Note_on_c, 8, 55, 0
10, 121920, Note_on_c, 8, 55, 108
10, 121920, Note_on_c, 8, 64, 108
10, 121920, Note_on_c, 8, 72, 108
10, 122020, Note_on_c, 8, 72, 0
10, 122020, Note_on_c, 8, 64, 0
10, 122020, Note_on_c, 8, 55, 0
10, 122040, Note_on_c, 8, 67, 108
10, 122250, Note_on_c, 8, 67, 0
10, 122280, Note_on_c, 8, 69, 108
10, 122380, Note_on_c, 8, 69, 0
10, 122400, Note_on_c, 8, 67, 108
10, 122500, Note_on_c, 8, 67, 0
10, 122520, Note_on_c, 8, 69, 108
10, 122620, Note_on_c, 8, 69, 0
10, 122640, Note_on_c, 8, 67, 108
10, 122740, Note_on_c, 8, 67, 0
10, 122760, Note_on_c, 8, 55, 108
10, 122760, Note_on_c, 8, 62, 108
10, 122760, Note_on_c, 8, 71, 108
10, 122860, Note_on_c, 8, 71, 0
10, 122860, Note_on_c, 8, 62, 0
10, 122860, Note_on_c, 8, 55, 0
10, 122880, Note_on_c, 8, 55, 108
10, 122880, Note_on_c, 8, 64, 108
10, 122880, Note_on_c, 8, 72, 108
10, 122980, Note_on_c, 8, 72, 0
10, 122980, Note_on_c, 8, 64, 0
10, 122980, Note_on_c, 8, 55, 0
10, 123000, Note_on_c, 8, 79, 108
10, 123058, Note_on_c, 8, 79, 0
10, 123060, Note_on_c, 8, 79, 108
10, 123118, Note_on_c, 8, 79, 0
10, 123120, Note_on_c, 8, 84, 108
10, 123178, Note_on_c, 8, 84, 0
10, 123180, Note_on_c, 8, 84, 108
10, 123238, Note_on_c, 8, 84, 0
10, 123240, Note_on_c, 8, 79, 108
10, 123298, Note_on_c, 8, 79, 0
10, 123300, Note_on_c, 8, 79, 108
10, 123358, Note_on_c, 8, 79, 0
10, 123360, Note_on_c, 8, 84, 108
10, 123418, Note_on_c, 8, 84, 0
10, 123420, Note_on_c, 8, 84, 108
10, 123478, Note_on_c, 8, 84, 0
10, 123480, Note_on_c, 8, 79, 108
10, 123538, Note_on_c, 8, 79, 0
10, 123540, Note_on_c, 8, 79, 108
10, 123598, Note_on_c, 8, 79, 0
10, 123600, Note_on_c, 8, 84, 108
10, 123658, Note_on_c, 8, 84, 0
10, 123660, Note_on_c, 8, 84, 108
10, 123718, Note_on_c, 8, 84, 0
10, 123720, Note_on_c, 8, 79, 108
10, 123778, Note_on_c, 8, 79, 0
10, 123780, Note_on_c, 8, 79, 108
10, 123838, Note_on_c, 8, 79, 0
10, 123840, Note_on_c, 8, 84, 108
10, 123940, Note_on_c, 8, 84, 0
10, 124320, Note_on_c, 8, 67, 108
10, 124320, Note_on_c, 8, 76, 108
10, 124320, Note_on_c, 8, 84, 108
10, 124420, Note_on_c, 8, 84, 0
10, 124420, Note_on_c, 8, 76, 0
10, 124420, Note_on_c, 8, 67, 0
10, 124560, Note_on_c, 8, 67, 108
10, 124560, Note_on_c, 8, 76, 108
10, 124560, Note_on_c, 8, 84, 108
10, 124660, Note_on_c, 8, 84, 0
10, 124660, Note_on_c, 8, 76, 0
10, 124660, Note_on_c, 8, 67, 0
10, 124800, Note_on_c, 8, 67, 108
10, 124800, Note_on_c, 8, 76, 108
10, 124800, Note_on_c, 8, 84, 108
10, 125010, Note_on_c, 8, 84, 0
10, 125010, Note_on_c, 8, 76, 0
10, 125010, Note_on_c, 8, 67, 0
10, 125010, End_track
11, 0, Start_track
11, 0, MIDI_port, 0
11, 0, Title_t, "Violas"
11, 0, Program_c, 10, 48
11, 0, Control_c, 10, 7, 127
11, 0, Control_c, 10, 10, 64
11, 0, Note_on_c, 10, 72, 92
11, 100, Note_on_c, 10, 72, 0
11, 210, Note_on_c, 10, 60, 92
11, 238, Note_on_c, 10, 60, 0
11, 240, Note_on_c, 10, 60, 92
11, 340, Note_on_c, 10, 60, 0
11, 1890, Note_on_c, 10, 67, 92
11, 1918, Note_on_c, 10, 67, 0
11, 1920, Note_on_c, 10, 67, 92
11, 2020, Note_on_c, 10, 67, 0
11, 2130, Note_on_c, 10, 55, 92
11, 2158, Note_on_c, 10, 55, 0
11, 2160, Note_on_c, 10, 55, 92
11, 2260, Note_on_c, 10, 55, 0
11, 3600, Note_on_c, 10, 60, 45
11, 3630, Note_on_c, 10, 60, 0
11, 3840, Note_on_c, 10, 57, 45
11, 3870, Note_on_c, 10, 57, 0
11, 4080, Note_on_c, 10, 53, 45
11, 4110, Note_on_c, 10, 53, 0
11, 4320, Note_on_c, 10, 55, 45
11, 4770, Note_on_c, 10, 55, 0
11, 4800, Note_on_c, 10, 57, 45
11, 5040, Note_on_c, 10, 57, 0
11, 5040, Note_on_c, 10, 57, 45
11, 5140, Note_on_c, 10, 57, 0
11, 5520, Note_on_c, 10, 72, 92
11, 5620, Note_on_c, 10, 72, 0
11, 5760, Note_on_c, 10, 69, 92
11, 5860, Note_on_c, 10, 69, 0
11, 6000, Note_on_c, 10, 65, 92
11, 6100, Note_on_c, 10, 65, 0
11, 6240, Note_on_c, 10, 67, 92
11, 6340, Note_on_c, 10, 67, 0
11, 6480, Note_on_c, 10, 55, 92
11, 6580, Note_on_c, 10, 55, 0
11, 6720, Note_on_c, 10, 60, 45
11, 6820, Note_on_c, 10, 60, 0
11, 7200, Note_on_c, 10, 60, 45
11, 7300, Note_on_c, 10, 60, 0
11, 7440, Note_on_c, 10, 60, 45
11, 7540, Note_on_c, 10, 60, 0
11, 7560, Note_on_c, 10, 60, 45
11, 7660, Note_on_c, 10, 60, 0
11, 7680, Note_on_c, 10, 60, 45
11, 7780, Note_on_c, 10, 60, 0
11, 8160, Note_on_c, 10, 60, 45
11, 8260, Note_on_c, 10, 60, 0
11, 8400, Note_on_c, 10, 60, 45
11, 8500, Note_on_c, 10, 60, 0
11, 8520, Note_on_c, 10, 60, 45
11, 8620, Note_on_c, 10, 60, 0
11, 8640, Note_on_c, 10, 60, 45
11, 8740, Note_on_c, 10, 60, 0
11, 9120, Note_on_c, 10, 60, 45
11, 9220, Note_on_c, 10, 60, 0
11, 9360, Note_on_c, 10, 60, 45
11, 9460, Note_on_c, 10, 60, 0
11, 9480, Note_on_c, 10, 60, 45
11, 9580, Note_on_c, 10, 60, 0
11, 9600, Note_on_c, 10, 60, 45
11, 9700, Note_on_c, 10, 60, 0
11, 10080, Note_on_c, 10, 60, 45
11, 10180, Note_on_c, 10, 60, 0
11, 10320, Note_on_c, 10, 60, 45
11, 10420, Note_on_c, 10, 60, 0
11, 10440, Note_on_c, 10, 60, 45
11, 10540, Note_on_c, 10, 60, 0
11, 10560, Note_on_c, 10, 60, 45
11, 10660, Note_on_c, 10, 60, 0
11, 10800, Note_on_c, 10, 60, 45
11, 10900, Note_on_c, 10, 60, 0
11, 10920, Note_on_c, 10, 60, 45
11, 11020, Note_on_c, 10, 60, 0
11, 11040, Note_on_c, 10, 60, 45
11, 11140, Note_on_c, 10, 60, 0
11, 11160, Note_on_c, 10, 60, 45
11, 11260, Note_on_c, 10, 60, 0
11, 11280, Note_on_c, 10, 60, 45
11, 11380, Note_on_c, 10, 60, 0
11, 11400, Note_on_c, 10, 60, 45
11, 11500, Note_on_c, 10, 60, 0
11, 11520, Note_on_c, 10, 60, 92
11, 11620, Note_on_c, 10, 60, 0
11, 11640, Note_on_c, 10, 64, 92
11, 11850, Note_on_c, 10, 64, 0
11, 11880, Note_on_c, 10, 65, 92
11, 11980, Note_on_c, 10, 65, 0
11, 12000, Note_on_c, 10, 64, 92
11, 12100, Note_on_c, 10, 64, 0
11, 12120, Note_on_c, 10, 65, 92
11, 12220, Note_on_c, 10, 65, 0
11, 12240, Note_on_c, 10, 64, 92
11, 12340, Note_on_c, 10, 64, 0
11, 12360, Note_on_c, 10, 65, 92
11, 12460, Note_on_c, 10, 65, 0
11, 12480, Note_on_c, 10, 64, 92
11, 12580, Note_on_c, 10, 64, 0
11, 12600, Note_on_c, 10, 64, 92
11, 12810, Note_on_c, 10, 64, 0
11, 12840, Note_on_c, 10, 65, 92
11, 12940, Note_on_c, 10, 65, 0
11, 12960, Note_on_c, 10, 64, 92
11, 13060, Note_on_c, 10, 64, 0
11, 13080, Note_on_c, 10, 65, 92
11, 13180, Note_on_c, 10, 65, 0
11, 13200, Note_on_c, 10, 64, 92
11, 13300, Note_on_c, 10, 64, 0
11, 13320, Note_on_c, 10, 65, 92
11, 13420, Note_on_c, 10, 65, 0
11, 13440, Note_on_c, 10, 64, 92
11, 13540, Note_on_c, 10, 64, 0
11, 13560, Note_on_c, 10, 60, 60
11, 13660, Note_on_c, 10, 60, 0
11, 13680, Note_on_c, 10, 60, 60
11, 13780, Note_on_c, 10, 60, 0
11, 13800, Note_on_c, 10, 60, 60
11, 13900, Note_on_c, 10, 60, 0
11, 14040, Note_on_c, 10, 60, 60
11, 14140, Note_on_c, 10, 60, 0
11, 14160, Note_on_c, 10, 60, 60
11, 14260, Note_on_c, 10, 60, 0
11, 14280, Note_on_c, 10, 60, 60
11, 14380, Note_on_c, 10, 60, 0
11, 14520, Note_on_c, 10, 60, 60
11, 14620, Note_on_c, 10, 60, 0
11, 14640, Note_on_c, 10, 60, 60
11, 14740, Note_on_c, 10, 60, 0
11, 14760, Note_on_c, 10, 60, 60
11, 14860, Note_on_c, 10, 60, 0
11, 15000, Note_on_c, 10, 60, 60
11, 15100, Note_on_c, 10, 60, 0
11, 15120, Note_on_c, 10, 60, 60
11, 15220, Note_on_c, 10, 60, 0
11, 15240, Note_on_c, 10, 60, 60
11, 15340, Note_on_c, 10, 60, 0
11, 15480, Note_on_c, 10, 60, 60
11, 15580, Note_on_c, 10, 60, 0
11, 15600, Note_on_c, 10, 60, 60
11, 15700, Note_on_c, 10, 60, 0
11, 15720, Note_on_c, 10, 60, 60
11, 15820, Note_on_c, 10, 60, 0
11, 15960, Note_on_c, 10, 60, 60
11, 16060, Note_on_c, 10, 60, 0
11, 16080, Note_on_c, 10, 60, 60
11, 16180, Note_on_c, 10, 60, 0
11, 16200, Note_on_c, 10, 60, 60
11, 16300, Note_on_c, 10, 60, 0
11, 16320, Note_on_c, 10, 67, 60
11, 17250, Note_on_c, 10, 67, 0
11, 17400, Note_on_c, 10, 60, 60
11, 17500, Note_on_c, 10, 60, 0
11, 17520, Note_on_c, 10, 60, 60
11, 17620, Note_on_c, 10, 60, 0
11, 17640, Note_on_c, 10, 60, 60
11, 17740, Note_on_c, 10, 60, 0
11, 17880, Note_on_c, 10, 60, 60
11, 17980, Note_on_c, 10, 60, 0
11, 18000, Note_on_c, 10, 60, 60
11, 18100, Note_on_c, 10, 60, 0
11, 18120, Note_on_c, 10, 60, 60
11, 18220, Note_on_c, 10, 60, 0
11, 18360, Note_on_c, 10, 60, 60
11, 18460, Note_on_c, 10, 60, 0
11, 18480, Note_on_c, 10, 60, 60
11, 18580, Note_on_c, 10, 60, 0
11, 18600, Note_on_c, 10, 60, 60
11, 18700, Note_on_c, 10, 60, 0
11, 18840, Note_on_c, 10, 60, 60
11, 18940, Note_on_c, 10, 60, 0
11, 18960, Note_on_c, 10, 60, 60
11, 19060, Note_on_c, 10, 60, 0
11, 19080, Note_on_c, 10, 60, 60
11, 19180, Note_on_c, 10, 60, 0
11, 19320, Note_on_c, 10, 60, 60
11, 19420, Note_on_c, 10, 60, 0
11, 19440, Note_on_c, 10, 60, 60
11, 19540, Note_on_c, 10, 60, 0
11, 19560, Note_on_c, 10, 60, 60
11, 19660, Note_on_c, 10, 60, 0
11, 19800, Note_on_c, 10, 60, 60
11, 19900, Note_on_c, 10, 60, 0
11, 19920, Note_on_c, 10, 60, 60
11, 20020, Note_on_c, 10, 60, 0
11, 20040, Note_on_c, 10, 60, 60
11, 20140, Note_on_c, 10, 60, 0
11, 20160, Note_on_c, 10, 67, 60
11, 21090, Note_on_c, 10, 67, 0
11, 21120, Note_on_c, 10, 52, 60
11, 22050, Note_on_c, 10, 52, 0
11, 22080, Note_on_c, 10, 57, 60
11, 23010, Note_on_c, 10, 57, 0
11, 23040, Note_on_c, 10, 55, 60
11, 23280, Note_on_c, 10, 55, 0
11, 23280, Note_on_c, 10, 59, 60
11, 23760, Note_on_c, 10, 59, 0
11, 23760, Note_on_c, 10, 64, 60
11, 24930, Note_on_c, 10, 64, 0
11, 24960, Note_on_c, 10, 62, 92
11, 25060, Note_on_c, 10, 62, 0
11, 25080, Note_on_c, 10, 66, 92
11, 25290, Note_on_c, 10, 66, 0
11, 25320, Note_on_c, 10, 67, 92
11, 25420, Note_on_c, 10, 67, 0
11, 25440, Note_on_c, 10, 66, 92
11, 25540, Note_on_c, 10, 66, 0
11, 25560, Note_on_c, 10, 67, 92
11, 25660, Note_on_c, 10, 67, 0
11, 25680, Note_on_c, 10, 69, 92
11, 25780, Note_on_c, 10, 69, 0
11, 25800, Note_on_c, 10, 67, 92
11, 25900, Note_on_c, 10, 67, 0
11, 25920, Note_on_c, 10, 66, 92
11, 26020, Note_on_c, 10, 66, 0
11, 26040, Note_on_c, 10, 66, 92
11, 26250, Note_on_c, 10, 66, 0
11, 26280, Note_on_c, 10, 67, 92
11, 26380, Note_on_c, 10, 67, 0
11, 26400, Note_on_c, 10, 66, 92
11, 26500, Note_on_c, 10, 66, 0
11, 26520, Note_on_c, 10, 67, 92
11, 26620, Note_on_c, 10, 67, 0
11, 26640, Note_on_c, 10, 69, 92
11, 26740, Note_on_c, 10, 69, 0
11, 26760, Note_on_c, 10, 67, 92
11, 26860, Note_on_c, 10, 67, 0
11, 26880, Note_on_c, 10, 66, 92
11, 26980, Note_on_c, 10, 66, 0
11, 30840, Note_on_c, 10, 67, 92
11, 31050, Note_on_c, 10, 67, 0
11, 31080, Note_on_c, 10, 66, 92
11, 31180, Note_on_c, 10, 66, 0
11, 31200, Note_on_c, 10, 67, 92
11, 31300, Note_on_c, 10, 67, 0
11, 31320, Note_on_c, 10, 66, 92
11, 31420, Note_on_c, 10, 66, 0
11, 31440, Note_on_c, 10, 67, 92
11, 31540, Note_on_c, 10, 67, 0
11, 31560, Note_on_c, 10, 63, 92
11, 31660, Note_on_c, 10, 63, 0
11, 31680, Note_on_c, 10, 64, 92
11, 31780, Note_on_c, 10, 64, 0
11, 31800, Note_on_c, 10, 64, 92
11, 32010, Note_on_c, 10, 64, 0
11, 32040, Note_on_c, 10, 63, 92
11, 32140, Note_on_c, 10, 63, 0
11, 32160, Note_on_c, 10, 64, 92
11, 32260, Note_on_c, 10, 64, 0
11, 32280, Note_on_c, 10, 63, 92
11, 32380, Note_on_c, 10, 63, 0
11, 32400, Note_on_c, 10, 64, 92
11, 32500, Note_on_c, 10, 64, 0
11, 32520, Note_on_c, 10, 59, 92
11, 32620, Note_on_c, 10, 59, 0
11, 32640, Note_on_c, 10, 60, 92
11, 32740, Note_on_c, 10, 60, 0
11, 32760, Note_on_c, 10, 60, 92
11, 32970, Note_on_c, 10, 60, 0
11, 33000, Note_on_c, 10, 59, 92
11, 33100, Note_on_c, 10, 59, 0
11, 33120, Note_on_c, 10, 60, 92
11, 33220, Note_on_c, 10, 60, 0
11, 33240, Note_on_c, 10, 59, 92
11, 33340, Note_on_c, 10, 59, 0
11, 33360, Note_on_c, 10, 60, 92
11, 33460, Note_on_c, 10, 60, 0
11, 33480, Note_on_c, 10, 62, 92
11, 33580, Note_on_c, 10, 62, 0
11, 33600, Note_on_c, 10, 60, 92
11, 33700, Note_on_c, 10, 60, 0
11, 33720, Note_on_c, 10, 68, 92
11, 33820, Note_on_c, 10, 68, 0
11, 33840, Note_on_c, 10, 69, 92
11, 33940, Note_on_c, 10, 69, 0
11, 33960, Note_on_c, 10, 67, 92
11, 34060, Note_on_c, 10, 67, 0
11, 34080, Note_on_c, 10, 66, 92
11, 34180, Note_on_c, 10, 66, 0
11, 34200, Note_on_c, 10, 62, 92
11, 34300, Note_on_c, 10, 62, 0
11, 34320, Note_on_c, 10, 64, 92
11, 34420, Note_on_c, 10, 64, 0
11, 34440, Note_on_c, 10, 66, 92
11, 34540, Note_on_c, 10, 66, 0
11, 34560, Note_on_c, 10, 67, 92
11, 34590, Note_on_c, 10, 67, 0
11, 34680, Note_on_c, 10, 71, 92
11, 34710, Note_on_c, 10, 71, 0
11, 34800, Note_on_c, 10, 74, 92
11, 35010, Note_on_c, 10, 74, 0
11, 35040, Note_on_c, 10, 64, 92
11, 35070, Note_on_c, 10, 64, 0
11, 35160, Note_on_c, 10, 67, 92
11, 35190, Note_on_c, 10, 67, 0
11, 35280, Note_on_c, 10, 71, 92
11, 35490, Note_on_c, 10, 71, 0
11, 35520, Note_on_c, 10, 60, 92
11, 35550, Note_on_c, 10, 60, 0
11, 35640, Note_on_c, 10, 64, 92
11, 35670, Note_on_c, 10, 64, 0
11, 35760, Note_on_c, 10, 62, 92
11, 35790, Note_on_c, 10, 62, 0
11, 35880, Note_on_c, 10, 66, 92
11, 35910, Note_on_c, 10, 66, 0
11, 36000, Note_on_c, 10, 67, 92
11, 36030, Note_on_c, 10, 67, 0
11, 36120, Note_on_c, 10, 71, 92
11, 36150, Note_on_c, 10, 71, 0
11, 36240, Note_on_c, 10, 74, 92
11, 36450, Note_on_c, 10, 74, 0
11, 36480, Note_on_c, 10, 64, 92
11, 36510, Note_on_c, 10, 64, 0
11, 36600, Note_on_c, 10, 67, 92
11, 36630, Note_on_c, 10, 67, 0
11, 36720, Note_on_c, 10, 71, 92
11, 36930, Note_on_c, 10, 71, 0
11, 36960, Note_on_c, 10, 60, 92
11, 37060, Note_on_c, 10, 60, 0
11, 37080, Note_on_c, 10, 64, 92
11, 37180, Note_on_c, 10, 64, 0
11, 37200, Note_on_c, 10, 62, 92
11, 37300, Note_on_c, 10, 62, 0
11, 37320, Note_on_c, 10, 62, 92
11, 37420, Note_on_c, 10, 62, 0
11, 37440, Note_on_c, 10, 67, 92
11, 37540, Note_on_c, 10, 67, 0
11, 37560, Note_on_c, 10, 55, 60
11, 37660, Note_on_c, 10, 55, 0
11, 37680, Note_on_c, 10, 55, 60
11, 37780, Note_on_c, 10, 55, 0
11, 37800, Note_on_c, 10, 55, 60
11, 37900, Note_on_c, 10, 55, 0
11, 38040, Note_on_c, 10, 55, 60
11, 38140, Note_on_c, 10, 55, 0
11, 38160, Note_on_c, 10, 55, 60
11, 38260, Note_on_c, 10, 55, 0
11, 38280, Note_on_c, 10, 55, 60
11, 38380, Note_on_c, 10, 55, 0
11, 38520, Note_on_c, 10, 55, 60
11, 38620, Note_on_c, 10, 55, 0
11, 38640, Note_on_c, 10, 55, 60
11, 38740, Note_on_c, 10, 55, 0
11, 38760, Note_on_c, 10, 55, 60
11, 38860, Note_on_c, 10, 55, 0
11, 39000, Note_on_c, 10, 55, 60
11, 39100, Note_on_c, 10, 55, 0
11, 39120, Note_on_c, 10, 55, 60
11, 39220, Note_on_c, 10, 55, 0
11, 39240, Note_on_c, 10, 55, 60
11, 39340, Note_on_c, 10, 55, 0
11, 39480, Note_on_c, 10, 55, 60
11, 39580, Note_on_c, 10, 55, 0
11, 39600, Note_on_c, 10, 55, 60
11, 39700, Note_on_c, 10, 55, 0
11, 39720, Note_on_c, 10, 55, 60
11, 39820, Note_on_c, 10, 55, 0
11, 39960, Note_on_c, 10, 55, 60
11, 40060, Note_on_c, 10, 55, 0
11, 40080, Note_on_c, 10, 55, 60
11, 40180, Note_on_c, 10, 55, 0
11, 40200, Note_on_c, 10, 55, 60
11, 40300, Note_on_c, 10, 55, 0
11, 40320, Note_on_c, 10, 54, 60
11, 40440, Note_on_c, 10, 54, 0
11, 40440, Note_on_c, 10, 50, 60
11, 40560, Note_on_c, 10, 50, 0
11, 40560, Note_on_c, 10, 55, 60
11, 40680, Note_on_c, 10, 55, 0
11, 40680, Note_on_c, 10, 50, 60
11, 40800, Note_on_c, 10, 50, 0
11, 40800, Note_on_c, 10, 57, 60
11, 40920, Note_on_c, 10, 57, 0
11, 40920, Note_on_c, 10, 50, 60
11, 41040, Note_on_c, 10, 50, 0
11, 41040, Note_on_c, 10, 54, 60
11, 41160, Note_on_c, 10, 54, 0
11, 41160, Note_on_c, 10, 50, 60
11, 41260, Note_on_c, 10, 50, 0
11, 41280, Note_on_c, 10, 55, 60
11, 41380, Note_on_c, 10, 55, 0
11, 41400, Note_on_c, 10, 55, 60
11, 41500, Note_on_c, 10, 55, 0
11, 41520, Note_on_c, 10, 55, 60
11, 41620, Note_on_c, 10, 55, 0
11, 41640, Note_on_c, 10, 55, 60
11, 41740, Note_on_c, 10, 55, 0
11, 41880, Note_on_c, 10, 55, 60
11, 41980, Note_on_c, 10, 55, 0
11, 42000, Note_on_c, 10, 55, 60
11, 42100, Note_on_c, 10, 55, 0
11, 42120, Note_on_c, 10, 55, 60
11, 42220, Note_on_c, 10, 55, 0
11, 42360, Note_on_c, 10, 55, 60
11, 42460, Note_on_c, 10, 55, 0
11, 42480, Note_on_c, 10, 55, 60
11, 42580, Note_on_c, 10, 55, 0
11, 42600, Note_on_c, 10, 55, 60
11, 42700, Note_on_c, 10, 55, 0
11, 42840, Note_on_c, 10, 55, 60
11, 42940, Note_on_c, 10, 55, 0
11, 42960, Note_on_c, 10, 55, 60
11, 43060, Note_on_c, 10, 55, 0
11, 43080, Note_on_c, 10, 55, 60
11, 43180, Note_on_c, 10, 55, 0
11, 43320, Note_on_c, 10, 55, 60
11, 43420, Note_on_c, 10, 55, 0
11, 43440, Note_on_c, 10, 55, 60
11, 43540, Note_on_c, 10, 55, 0
11, 43560, Note_on_c, 10, 55, 60
11, 43660, Note_on_c, 10, 55, 0
11, 43800, Note_on_c, 10, 55, 60
11, 43900, Note_on_c, 10, 55, 0
11, 43920, Note_on_c, 10, 55, 60
11, 44020, Note_on_c, 10, 55, 0
11, 44040, Note_on_c, 10, 55, 60
11, 44140, Note_on_c, 10, 55, 0
11, 44160, Note_on_c, 10, 54, 60
11, 44280, Note_on_c, 10, 54, 0
11, 44280, Note_on_c, 10, 50, 60
11, 44400, Note_on_c, 10, 50, 0
11, 44400, Note_on_c, 10, 55, 60
11, 44520, Note_on_c, 10, 55, 0
11, 44520, Note_on_c, 10, 50, 60
11, 44640, Note_on_c, 10, 50, 0
11, 44640, Note_on_c, 10, 57, 60
11, 44760, Note_on_c, 10, 57, 0
11, 44760, Note_on_c, 10, 50, 60
11, 44880, Note_on_c, 10, 50, 0
11, 44880, Note_on_c, 10, 54, 60
11, 45000, Note_on_c, 10, 54, 0
11, 45000, Note_on_c, 10, 50, 60
11, 45100, Note_on_c, 10, 50, 0
11, 45120, Note_on_c, 10, 59, 60
11, 46050, Note_on_c, 10, 59, 0
11, 46080, Note_on_c, 10, 57, 60
11, 47010, Note_on_c, 10, 57, 0
11, 47040, Note_on_c, 10, 62, 60
11, 47970, Note_on_c, 10, 62, 0
11, 48000, Note_on_c, 10, 68, 92
11, 48100, Note_on_c, 10, 68, 0
11, 48120, Note_on_c, 10, 68, 92
11, 48330, Note_on_c, 10, 68, 0
11, 48360, Note_on_c, 10, 69, 92
11, 48460, Note_on_c, 10, 69, 0
11, 48480, Note_on_c, 10, 68, 92
11, 48580, Note_on_c, 10, 68, 0
11, 48600, Note_on_c, 10, 69, 92
11, 48700, Note_on_c, 10, 69, 0
11, 48720, Note_on_c, 10, 71, 92
11, 48820, Note_on_c, 10, 71, 0
11, 48840, Note_on_c, 10, 69, 92
11, 48940, Note_on_c, 10, 69, 0
11, 48960, Note_on_c, 10, 68, 92
11, 49060, Note_on_c, 10, 68, 0
11, 49080, Note_on_c, 10, 68, 92
11, 49290, Note_on_c, 10, 68, 0
11, 49320, Note_on_c, 10, 69, 92
11, 49420, Note_on_c, 10, 69, 0
11, 49440, Note_on_c, 10, 68, 92
11, 49540, Note_on_c, 10, 68, 0
11, 49560, Note_on_c, 10, 69, 92
11, 49660, Note_on_c, 10, 69, 0
11, 49680, Note_on_c, 10, 71, 92
11, 49780, Note_on_c, 10, 71, 0
11, 49800, Note_on_c, 10, 69, 92
11, 49900, Note_on_c, 10, 69, 0
11, 49920, Note_on_c, 10, 68, 92
11, 50020, Note_on_c, 10, 68, 0
11, 50760, Note_on_c, 10, 76, 60
11, 50980, Note_on_c, 10, 76, 0
11, 51000, Note_on_c, 10, 76, 60
11, 51210, Note_on_c, 10, 76, 0
11, 51240, Note_on_c, 10, 76, 60
11, 51360, Note_on_c, 10, 76, 0
11, 51360, Note_on_c, 10, 74, 60
11, 51460, Note_on_c, 10, 74, 0
11, 51480, Note_on_c, 10, 74, 60
11, 51580, Note_on_c, 10, 74, 0
11, 51600, Note_on_c, 10, 74, 60
11, 51700, Note_on_c, 10, 74, 0
11, 51720, Note_on_c, 10, 74, 60
11, 51940, Note_on_c, 10, 74, 0
11, 51960, Note_on_c, 10, 74, 60
11, 52170, Note_on_c, 10, 74, 0
11, 52200, Note_on_c, 10, 74, 60
11, 52320, Note_on_c, 10, 74, 0
11, 52320, Note_on_c, 10, 72, 60
11, 52420, Note_on_c, 10, 72, 0
11, 52440, Note_on_c, 10, 72, 60
11, 52540, Note_on_c, 10, 72, 0
11, 52560, Note_on_c, 10, 72, 60
11, 52660, Note_on_c, 10, 72, 0
11, 52680, Note_on_c, 10, 72, 60
11, 52900, Note_on_c, 10, 72, 0
11, 52920, Note_on_c, 10, 72, 60
11, 53130, Note_on_c, 10, 72, 0
11, 53160, Note_on_c, 10, 72, 60
11, 53280, Note_on_c, 10, 72, 0
11, 53280, Note_on_c, 10, 71, 60
11, 53380, Note_on_c, 10, 71, 0
11, 53400, Note_on_c, 10, 71, 60
11, 53500, Note_on_c, 10, 71, 0
11, 53520, Note_on_c, 10, 71, 60
11, 53620, Note_on_c, 10, 71, 0
11, 53640, Note_on_c, 10, 71, 60
11, 53740, Note_on_c, 10, 71, 0
11, 53760, Note_on_c, 10, 69, 92
11, 53860, Note_on_c, 10, 69, 0
11, 53880, Note_on_c, 10, 73, 92
11, 54090, Note_on_c, 10, 73, 0
11, 54120, Note_on_c, 10, 74, 92
11, 54220, Note_on_c, 10, 74, 0
11, 54240, Note_on_c, 10, 73, 92
11, 54340, Note_on_c, 10, 73, 0
11, 54360, Note_on_c, 10, 74, 92
11, 54460, Note_on_c, 10, 74, 0
11, 54480, Note_on_c, 10, 73, 92
11, 54580, Note_on_c, 10, 73, 0
11, 54600, Note_on_c, 10, 74, 92
11, 54700, Note_on_c, 10, 74, 0
11, 54720, Note_on_c, 10, 73, 92
11, 54820, Note_on_c, 10, 73, 0
11, 55200, Note_on_c, 10, 61, 60
11, 55650, Note_on_c, 10, 61, 0
11, 55680, Note_on_c, 10, 59, 60
11, 56610, Note_on_c, 10, 59, 0
11, 56640, Note_on_c, 10, 64, 60
11, 57570, Note_on_c, 10, 64, 0
11, 57600, Note_on_c, 10, 62, 92
11, 57700, Note_on_c, 10, 62, 0
11, 57720, Note_on_c, 10, 66, 92
11, 57930, Note_on_c, 10, 66, 0
11, 57960, Note_on_c, 10, 67, 92
11, 58060, Note_on_c, 10, 67, 0
11, 58080, Note_on_c, 10, 66, 92
11, 58180, Note_on_c, 10, 66, 0
11, 58200, Note_on_c, 10, 67, 92
11, 58300, Note_on_c, 10, 67, 0
11, 58320, Note_on_c, 10, 66, 92
11, 58420, Note_on_c, 10, 66, 0
11, 58440, Note_on_c, 10, 67, 92
11, 58540, Note_on_c, 10, 67, 0
11, 58560, Note_on_c, 10, 66, 92
11, 58660, Note_on_c, 10, 66, 0
11, 59520, Note_on_c, 10, 67, 60
11, 59580, Note_on_c, 10, 67, 0
11, 59580, Note_on_c, 10, 69, 60
11, 59640, Note_on_c, 10, 69, 0
11, 59640, Note_on_c, 10, 70, 60
11, 59700, Note_on_c, 10, 70, 0
11, 59700, Note_on_c, 10, 69, 60
11, 59760, Note_on_c, 10, 69, 0
11, 59760, Note_on_c, 10, 67, 60
11, 59860, Note_on_c, 10, 67, 0
11, 60000, Note_on_c, 10, 69, 60
11, 60060, Note_on_c, 10, 69, 0
11, 60060, Note_on_c, 10, 70, 60
11, 60120, Note_on_c, 10, 70, 0
11, 60120, Note_on_c, 10, 72, 60
11, 60180, Note_on_c, 10, 72, 0
11, 60180, Note_on_c, 10, 70, 60
11, 60240, Note_on_c, 10, 70, 0
11, 60240, Note_on_c, 10, 69, 60
11, 60300, Note_on_c, 10, 69, 0
11, 60300, Note_on_c, 10, 70, 60
11, 60360, Note_on_c, 10, 70, 0
11, 60360, Note_on_c, 10, 69, 60
11, 60420, Note_on_c, 10, 69, 0
11, 60420, Note_on_c, 10, 67, 60
11, 60480, Note_on_c, 10, 67, 0
11, 60480, Note_on_c, 10, 66, 60
11, 60540, Note_on_c, 10, 66, 0
11, 60540, Note_on_c, 10, 67, 60
11, 60600, Note_on_c, 10, 67, 0
11, 60600, Note_on_c, 10, 69, 60
11, 60660, Note_on_c, 10, 69, 0
11, 60660, Note_on_c, 10, 67, 60
11, 60720, Note_on_c, 10, 67, 0
11, 60720, Note_on_c, 10, 66, 60
11, 60820, Note_on_c, 10, 66, 0
11, 60960, Note_on_c, 10, 67, 60
11, 61020, Note_on_c, 10, 67, 0
11, 61020, Note_on_c, 10, 69, 60
11, 61080, Note_on_c, 10, 69, 0
11, 61080, Note_on_c, 10, 70, 60
11, 61140, Note_on_c, 10, 70, 0
11, 61140, Note_on_c, 10, 69, 60
11, 61200, Note_on_c, 10, 69, 0
11, 61200, Note_on_c, 10, 67, 60
11, 61260, Note_on_c, 10, 67, 0
11, 61260, Note_on_c, 10, 69, 60
11, 61320, Note_on_c, 10, 69, 0
11, 61320, Note_on_c, 10, 67, 60
11, 61380, Note_on_c, 10, 67, 0
11, 61380, Note_on_c, 10, 65, 60
11, 61440, Note_on_c, 10, 65, 0
11, 61440, Note_on_c, 10, 64, 60
11, 61500, Note_on_c, 10, 64, 0
11, 61500, Note_on_c, 10, 66, 60
11, 61560, Note_on_c, 10, 66, 0
11, 61560, Note_on_c, 10, 67, 60
11, 61620, Note_on_c, 10, 67, 0
11, 61620, Note_on_c, 10, 66, 60
11, 61680, Note_on_c, 10, 66, 0
11, 61680, Note_on_c, 10, 64, 60
11, 61780, Note_on_c, 10, 64, 0
11, 61920, Note_on_c, 10, 66, 60
11, 61980, Note_on_c, 10, 66, 0
11, 61980, Note_on_c, 10, 67, 60
11, 62040, Note_on_c, 10, 67, 0
11, 62040, Note_on_c, 10, 69, 60
11, 62100, Note_on_c, 10, 69, 0
11, 62100, Note_on_c, 10, 67, 60
11, 62160, Note_on_c, 10, 67, 0
11, 62160, Note_on_c, 10, 66, 60
11, 62220, Note_on_c, 10, 66, 0
11, 62220, Note_on_c, 10, 62, 60
11, 62280, Note_on_c, 10, 62, 0
11, 62280, Note_on_c, 10, 64, 60
11, 62340, Note_on_c, 10, 64, 0
11, 62340, Note_on_c, 10, 66, 60
11, 62398, Note_on_c, 10, 66, 0
11, 62400, Note_on_c, 10, 67, 92
11, 62500, Note_on_c, 10, 67, 0
11, 62520, Note_on_c, 10, 59, 92
11, 62730, Note_on_c, 10, 59, 0
11, 62760, Note_on_c, 10, 60, 92
11, 62860, Note_on_c, 10, 60, 0
11, 62880, Note_on_c, 10, 59, 92
11, 62980, Note_on_c, 10, 59, 0
11, 63000, Note_on_c, 10, 60, 92
11, 63100, Note_on_c, 10, 60, 0
11, 63120, Note_on_c, 10, 59, 92
11, 63220, Note_on_c, 10, 59, 0
11, 63240, Note_on_c, 10, 60, 92
11, 63340, Note_on_c, 10, 60, 0
11, 63360, Note_on_c, 10, 59, 92
11, 63460, Note_on_c, 10, 59, 0
11, 63840, Note_on_c, 10, 59, 60
11, 64290, Note_on_c, 10, 59, 0
11, 64320, Note_on_c, 10, 57, 60
11, 65250, Note_on_c, 10, 57, 0
11, 65280, Note_on_c, 10, 62, 60
11, 66210, Note_on_c, 10, 62, 0
11, 66240, Note_on_c, 10, 60, 92
11, 66340, Note_on_c, 10, 60, 0
11, 66360, Note_on_c, 10, 64, 92
11, 66570, Note_on_c, 10, 64, 0
11, 66600, Note_on_c, 10, 65, 92
11, 66700, Note_on_c, 10, 65, 0
11, 66720, Note_on_c, 10, 64, 92
11, 66820, Note_on_c, 10, 64, 0
11, 66840, Note_on_c, 10, 65, 92
11, 66940, Note_on_c, 10, 65, 0
11, 66960, Note_on_c, 10, 64, 92
11, 67060, Note_on_c, 10, 64, 0
11, 67080, Note_on_c, 10, 65, 92
11, 67180, Note_on_c, 10, 65, 0
11, 67200, Note_on_c, 10, 64, 92
11, 67300, Note_on_c, 10, 64, 0
11, 68160, Note_on_c, 10, 54, 60
11, 68220, Note_on_c, 10, 54, 0
11, 68220, Note_on_c, 10, 55, 60
11, 68280, Note_on_c, 10, 55, 0
11, 68280, Note_on_c, 10, 57, 60
11, 68340, Note_on_c, 10, 57, 0
11, 68340, Note_on_c, 10, 55, 60
11, 68400, Note_on_c, 10, 55, 0
11, 68400, Note_on_c, 10, 54, 60
11, 68500, Note_on_c, 10, 54, 0
11, 68640, Note_on_c, 10, 55, 60
11, 68700, Note_on_c, 10, 55, 0
11, 68700, Note_on_c, 10, 57, 60
11, 68760, Note_on_c, 10, 57, 0
11, 68760, Note_on_c, 10, 58, 60
11, 68820, Note_on_c, 10, 58, 0
11, 68820, Note_on_c, 10, 57, 60
11, 68880, Note_on_c, 10, 57, 0
11, 68880, Note_on_c, 10, 55, 60
11, 68940, Note_on_c, 10, 55, 0
11, 68940, Note_on_c, 10, 57, 60
11, 69000, Note_on_c, 10, 57, 0
11, 69000, Note_on_c, 10, 55, 60
11, 69060, Note_on_c, 10, 55, 0
11, 69060, Note_on_c, 10, 53, 60
11, 69118, Note_on_c, 10, 53, 0
11, 69120, Note_on_c, 10, 52, 60
11, 69180, Note_on_c, 10, 52, 0
11, 69180, Note_on_c, 10, 53, 60
11, 69240, Note_on_c, 10, 53, 0
11, 69240, Note_on_c, 10, 55, 60
11, 69300, Note_on_c, 10, 55, 0
11, 69300, Note_on_c, 10, 53, 60
11, 69360, Note_on_c, 10, 53, 0
11, 69360, Note_on_c, 10, 52, 60
11, 69460, Note_on_c, 10, 52, 0
11, 69600, Note_on_c, 10, 53, 60
11, 69660, Note_on_c, 10, 53, 0
11, 69660, Note_on_c, 10, 55, 60
11, 69720, Note_on_c, 10, 55, 0
11, 69720, Note_on_c, 10, 57, 60
11, 69780, Note_on_c, 10, 57, 0
11, 69780, Note_on_c, 10, 55, 60
11, 69840, Note_on_c, 10, 55, 0
11, 69840, Note_on_c, 10, 53, 60
11, 69900, Note_on_c, 10, 53, 0
11, 69900, Note_on_c, 10, 55, 60
11, 69960, Note_on_c, 10, 55, 0
11, 69960, Note_on_c, 10, 53, 60
11, 70020, Note_on_c, 10, 53, 0
11, 70020, Note_on_c, 10, 52, 60
11, 70078, Note_on_c, 10, 52, 0
11, 70080, Note_on_c, 10, 50, 60
11, 70140, Note_on_c, 10, 50, 0
11, 70140, Note_on_c, 10, 52, 60
11, 70200, Note_on_c, 10, 52, 0
11, 70200, Note_on_c, 10, 53, 60
11, 70260, Note_on_c, 10, 53, 0
11, 70260, Note_on_c, 10, 52, 60
11, 70320, Note_on_c, 10, 52, 0
11, 70320, Note_on_c, 10, 50, 60
11, 70420, Note_on_c, 10, 50, 0
11, 70560, Note_on_c, 10, 52, 60
11, 70620, Note_on_c, 10, 52, 0
11, 70620, Note_on_c, 10, 53, 60
11, 70680, Note_on_c, 10, 53, 0
11, 70680, Note_on_c, 10, 55, 60
11, 70740, Note_on_c, 10, 55, 0
11, 70740, Note_on_c, 10, 53, 60
11, 70800, Note_on_c, 10, 53, 0
11, 70800, Note_on_c, 10, 52, 60
11, 70860, Note_on_c, 10, 52, 0
11, 70860, Note_on_c, 10, 48, 60
11, 70920, Note_on_c, 10, 48, 0
11, 70920, Note_on_c, 10, 50, 60
11, 70980, Note_on_c, 10, 50, 0
11, 70980, Note_on_c, 10, 52, 60
11, 71038, Note_on_c, 10, 52, 0
11, 71040, Note_on_c, 10, 53, 60
11, 71140, Note_on_c, 10, 53, 0
11, 71160, Note_on_c, 10, 53, 60
11, 71260, Note_on_c, 10, 53, 0
11, 71280, Note_on_c, 10, 53, 60
11, 71380, Note_on_c, 10, 53, 0
11, 71400, Note_on_c, 10, 53, 60
11, 71500, Note_on_c, 10, 53, 0
11, 71640, Note_on_c, 10, 53, 60
11, 71740, Note_on_c, 10, 53, 0
11, 71760, Note_on_c, 10, 53, 60
11, 71860, Note_on_c, 10, 53, 0
11, 71880, Note_on_c, 10, 53, 60
11, 71980, Note_on_c, 10, 53, 0
11, 72120, Note_on_c, 10, 53, 60
11, 72220, Note_on_c, 10, 53, 0
11, 72240, Note_on_c, 10, 53, 60
11, 72340, Note_on_c, 10, 53, 0
11, 72360, Note_on_c, 10, 53, 60
11, 72460, Note_on_c, 10, 53, 0
11, 72600, Note_on_c, 10, 53, 60
11, 72700, Note_on_c, 10, 53, 0
11, 72720, Note_on_c, 10, 53, 60
11, 72820, Note_on_c, 10, 53, 0
11, 72840, Note_on_c, 10, 53, 60
11, 72940, Note_on_c, 10, 53, 0
11, 73080, Note_on_c, 10, 53, 60
11, 73180, Note_on_c, 10, 53, 0
11, 73200, Note_on_c, 10, 53, 60
11, 73300, Note_on_c, 10, 53, 0
11, 73320, Note_on_c, 10, 53, 60
11, 73420, Note_on_c, 10, 53, 0
11, 73560, Note_on_c, 10, 53, 60
11, 73660, Note_on_c, 10, 53, 0
11, 73680, Note_on_c, 10, 53, 60
11, 73780, Note_on_c, 10, 53, 0
11, 73800, Note_on_c, 10, 53, 60
11, 73900, Note_on_c, 10, 53, 0
11, 73920, Note_on_c, 10, 52, 60
11, 74040, Note_on_c, 10, 52, 0
11, 74040, Note_on_c, 10, 48, 60
11, 74160, Note_on_c, 10, 48, 0
11, 74160, Note_on_c, 10, 53, 60
11, 74280, Note_on_c, 10, 53, 0
11, 74280, Note_on_c, 10, 48, 60
11, 74400, Note_on_c, 10, 48, 0
11, 74400, Note_on_c, 10, 55, 60
11, 74520, Note_on_c, 10, 55, 0
11, 74520, Note_on_c, 10, 48, 60
11, 74640, Note_on_c, 10, 48, 0
11, 74640, Note_on_c, 10, 52, 60
11, 74760, Note_on_c, 10, 52, 0
11, 74760, Note_on_c, 10, 48, 60
11, 74860, Note_on_c, 10, 48, 0
11, 74880, Note_on_c, 10, 53, 60
11, 74980, Note_on_c, 10, 53, 0
11, 75000, Note_on_c, 10, 53, 60
11, 75100, Note_on_c, 10, 53, 0
11, 75120, Note_on_c, 10, 53, 60
11, 75220, Note_on_c, 10, 53, 0
11, 75240, Note_on_c, 10, 53, 60
11, 75340, Note_on_c, 10, 53, 0
11, 75480, Note_on_c, 10, 53, 60
11, 75580, Note_on_c, 10, 53, 0
11, 75600, Note_on_c, 10, 53, 60
11, 75700, Note_on_c, 10, 53, 0
11, 75720, Note_on_c, 10, 53, 60
11, 75820, Note_on_c, 10, 53, 0
11, 75960, Note_on_c, 10, 53, 60
11, 76060, Note_on_c, 10, 53, 0
11, 76080, Note_on_c, 10, 53, 60
11, 76180, Note_on_c, 10, 53, 0
11, 76200, Note_on_c, 10, 53, 60
11, 76300, Note_on_c, 10, 53, 0
11, 76440, Note_on_c, 10, 53, 60
11, 76540, Note_on_c, 10, 53, 0
11, 76560, Note_on_c, 10, 53, 60
11, 76660, Note_on_c, 10, 53, 0
11, 76680, Note_on_c, 10, 53, 60
11, 76780, Note_on_c, 10, 53, 0
11, 76920, Note_on_c, 10, 53, 60
11, 77020, Note_on_c, 10, 53, 0
11, 77040, Note_on_c, 10, 53, 60
11, 77140, Note_on_c, 10, 53, 0
11, 77160, Note_on_c, 10, 53, 60
11, 77260, Note_on_c, 10, 53, 0
11, 77400, Note_on_c, 10, 53, 60
11, 77500, Note_on_c, 10, 53, 0
11, 77520, Note_on_c, 10, 53, 60
11, 77620, Note_on_c, 10, 53, 0
11, 77640, Note_on_c, 10, 53, 60
11, 77740, Note_on_c, 10, 53, 0
11, 77760, Note_on_c, 10, 52, 60
11, 77880, Note_on_c, 10, 52, 0
11, 77880, Note_on_c, 10, 48, 60
11, 78000, Note_on_c, 10, 48, 0
11, 78000, Note_on_c, 10, 53, 60
11, 78120, Note_on_c, 10, 53, 0
11, 78120, Note_on_c, 10, 48, 60
11, 78240, Note_on_c, 10, 48, 0
11, 78240, Note_on_c, 10, 55, 60
11, 78360, Note_on_c, 10, 55, 0
11, 78360, Note_on_c, 10, 48, 60
11, 78480, Note_on_c, 10, 48, 0
11, 78480, Note_on_c, 10, 52, 60
11, 78600, Note_on_c, 10, 52, 0
11, 78600, Note_on_c, 10, 48, 60
11, 78700, Note_on_c, 10, 48, 0
11, 78720, Note_on_c, 10, 53, 60
11, 78820, Note_on_c, 10, 53, 0
11, 78840, Note_on_c, 10, 65, 92
11, 79050, Note_on_c, 10, 65, 0
11, 79080, Note_on_c, 10, 64, 92
11, 79180, Note_on_c, 10, 64, 0
11, 79200, Note_on_c, 10, 65, 92
11, 79300, Note_on_c, 10, 65, 0
11, 79320, Note_on_c, 10, 64, 92
11, 79420, Note_on_c, 10, 64, 0
11, 79440, Note_on_c, 10, 65, 92
11, 79540, Note_on_c, 10, 65, 0
11, 79560, Note_on_c, 10, 61, 92
11, 79660, Note_on_c, 10, 61, 0
11, 79680, Note_on_c, 10, 62, 92
11, 79780, Note_on_c, 10, 62, 0
11, 79800, Note_on_c, 10, 62, 92
11, 80010, Note_on_c, 10, 62, 0
11, 80040, Note_on_c, 10, 61, 92
11, 80140, Note_on_c, 10, 61, 0
11, 80160, Note_on_c, 10, 62, 92
11, 80260, Note_on_c, 10, 62, 0
11, 80280, Note_on_c, 10, 61, 92
11, 80380, Note_on_c, 10, 61, 0
11, 80400, Note_on_c, 10, 62, 92
11, 80500, Note_on_c, 10, 62, 0
11, 80520, Note_on_c, 10, 59, 92
11, 80620, Note_on_c, 10, 59, 0
11, 80640, Note_on_c, 10, 60, 92
11, 80740, Note_on_c, 10, 60, 0
11, 80760, Note_on_c, 10, 72, 92
11, 80970, Note_on_c, 10, 72, 0
11, 81000, Note_on_c, 10, 71, 92
11, 81100, Note_on_c, 10, 71, 0
11, 81120, Note_on_c, 10, 72, 92
11, 81150, Note_on_c, 10, 72, 0
11, 81240, Note_on_c, 10, 71, 92
11, 81270, Note_on_c, 10, 71, 0
11, 81360, Note_on_c, 10, 72, 92
11, 81390, Note_on_c, 10, 72, 0
11, 81480, Note_on_c, 10, 67, 92
11, 81510, Note_on_c, 10, 67, 0
11, 81600, Note_on_c, 10, 68, 92
11, 81630, Note_on_c, 10, 68, 0
11, 81720, Note_on_c, 10, 67, 92
11, 81750, Note_on_c, 10, 67, 0
11, 81840, Note_on_c, 10, 68, 92
11, 81870, Note_on_c, 10, 68, 0
11, 81960, Note_on_c, 10, 64, 92
11, 81990, Note_on_c, 10, 64, 0
11, 82080, Note_on_c, 10, 65, 92
11, 82110, Note_on_c, 10, 65, 0
11, 82200, Note_on_c, 10, 64, 92
11, 82230, Note_on_c, 10, 64, 0
11, 82320, Note_on_c, 10, 65, 92
11, 82350, Note_on_c, 10, 65, 0
11, 82440, Note_on_c, 10, 60, 92
11, 82470, Note_on_c, 10, 60, 0
11, 82560, Note_on_c, 10, 68, 92
11, 82590, Note_on_c, 10, 68, 0
11, 82680, Note_on_c, 10, 67, 92
11, 82710, Note_on_c, 10, 67, 0
11, 82800, Note_on_c, 10, 65, 92
11, 82830, Note_on_c, 10, 65, 0
11, 82920, Note_on_c, 10, 64, 92
11, 82950, Note_on_c, 10, 64, 0
11, 83040, Note_on_c, 10, 68, 92
11, 83070, Note_on_c, 10, 68, 0
11, 83160, Note_on_c, 10, 67, 92
11, 83190, Note_on_c, 10, 67, 0
11, 83280, Note_on_c, 10, 65, 92
11, 83310, Note_on_c, 10, 65, 0
11, 83400, Note_on_c, 10, 66, 92
11, 83430, Note_on_c, 10, 66, 0
11, 83520, Note_on_c, 10, 67, 92
11, 83620, Note_on_c, 10, 67, 0
11, 83640, Note_on_c, 10, 55, 60
11, 83740, Note_on_c, 10, 55, 0
11, 83760, Note_on_c, 10, 55, 60
11, 83860, Note_on_c, 10, 55, 0
11, 83880, Note_on_c, 10, 55, 60
11, 83980, Note_on_c, 10, 55, 0
11, 84120, Note_on_c, 10, 55, 60
11, 84220, Note_on_c, 10, 55, 0
11, 84240, Note_on_c, 10, 55, 60
11, 84340, Note_on_c, 10, 55, 0
11, 84360, Note_on_c, 10, 55, 60
11, 84460, Note_on_c, 10, 55, 0
11, 84600, Note_on_c, 10, 55, 60
11, 84700, Note_on_c, 10, 55, 0
11, 84720, Note_on_c, 10, 55, 60
11, 84820, Note_on_c, 10, 55, 0
11, 84840, Note_on_c, 10, 55, 60
11, 84940, Note_on_c, 10, 55, 0
11, 85080, Note_on_c, 10, 55, 60
11, 85180, Note_on_c, 10, 55, 0
11, 85200, Note_on_c, 10, 55, 60
11, 85300, Note_on_c, 10, 55, 0
11, 85320, Note_on_c, 10, 55, 60
11, 85420, Note_on_c, 10, 55, 0
11, 85560, Note_on_c, 10, 55, 60
11, 85660, Note_on_c, 10, 55, 0
11, 85680, Note_on_c, 10, 55, 60
11, 85780, Note_on_c, 10, 55, 0
11, 85800, Note_on_c, 10, 55, 60
11, 85900, Note_on_c, 10, 55, 0
11, 86040, Note_on_c, 10, 55, 60
11, 86140, Note_on_c, 10, 55, 0
11, 86160, Note_on_c, 10, 55, 60
11, 86260, Note_on_c, 10, 55, 0
11, 86280, Note_on_c, 10, 55, 60
11, 86380, Note_on_c, 10, 55, 0
11, 86520, Note_on_c, 10, 55, 60
11, 86620, Note_on_c, 10, 55, 0
11, 86640, Note_on_c, 10, 55, 60
11, 86740, Note_on_c, 10, 55, 0
11, 86760, Note_on_c, 10, 55, 60
11, 86860, Note_on_c, 10, 55, 0
11, 87000, Note_on_c, 10, 55, 60
11, 87100, Note_on_c, 10, 55, 0
11, 87120, Note_on_c, 10, 55, 60
11, 87220, Note_on_c, 10, 55, 0
11, 87240, Note_on_c, 10, 55, 60
11, 87340, Note_on_c, 10, 55, 0
11, 87360, Note_on_c, 10, 59, 60
11, 88290, Note_on_c, 10, 59, 0
11, 88320, Note_on_c, 10, 57, 60
11, 89250, Note_on_c, 10, 57, 0
11, 89280, Note_on_c, 10, 62, 60
11, 90210, Note_on_c, 10, 62, 0
11, 90240, Note_on_c, 10, 60, 60
11, 90340, Note_on_c, 10, 60, 0
11, 90360, Note_on_c, 10, 64, 92
11, 90570, Note_on_c, 10, 64, 0
11, 90600, Note_on_c, 10, 65, 92
11, 90700, Note_on_c, 10, 65, 0
11, 90720, Note_on_c, 10, 64, 92
11, 90820, Note_on_c, 10, 64, 0
11, 90840, Note_on_c, 10, 65, 92
11, 90940, Note_on_c, 10, 65, 0
11, 90960, Note_on_c, 10, 64, 92
11, 91060, Note_on_c, 10, 64, 0
11, 91080, Note_on_c, 10, 65, 92
11, 91180, Note_on_c, 10, 65, 0
11, 91200, Note_on_c, 10, 64, 92
11, 91300, Note_on_c, 10, 64, 0
11, 91320, Note_on_c, 10, 64, 92
11, 91530, Note_on_c, 10, 64, 0
11, 91560, Note_on_c, 10, 65, 92
11, 91660, Note_on_c, 10, 65, 0
11, 91680, Note_on_c, 10, 64, 92
11, 91780, Note_on_c, 10, 64, 0
11, 91800, Note_on_c, 10, 65, 92
11, 91900, Note_on_c, 10, 65, 0
11, 91920, Note_on_c, 10, 64, 92
11, 92020, Note_on_c, 10, 64, 0
11, 92040, Note_on_c, 10, 65, 92
11, 92140, Note_on_c, 10, 65, 0
11, 92160, Note_on_c, 10, 64, 92
11, 92260, Note_on_c, 10, 64, 0
11, 92280, Note_on_c, 10, 60, 60
11, 92380, Note_on_c, 10, 60, 0
11, 92400, Note_on_c, 10, 60, 60
11, 92500, Note_on_c, 10, 60, 0
11, 92520, Note_on_c, 10, 60, 60
11, 92620, Note_on_c, 10, 60, 0
11, 92760, Note_on_c, 10, 60, 60
11, 92860, Note_on_c, 10, 60, 0
11, 92880, Note_on_c, 10, 60, 60
11, 92980, Note_on_c, 10, 60, 0
11, 93000, Note_on_c, 10, 60, 60
11, 93100, Note_on_c, 10, 60, 0
11, 93240, Note_on_c, 10, 60, 60
11, 93340, Note_on_c, 10, 60, 0
11, 93360, Note_on_c, 10, 60, 60
11, 93460, Note_on_c, 10, 60, 0
11, 93480, Note_on_c, 10, 60, 60
11, 93580, Note_on_c, 10, 60, 0
11, 93720, Note_on_c, 10, 60, 60
11, 93820, Note_on_c, 10, 60, 0
11, 93840, Note_on_c, 10, 60, 60
11, 93940, Note_on_c, 10, 60, 0
11, 93960, Note_on_c, 10, 60, 60
11, 94060, Note_on_c, 10, 60, 0
11, 94200, Note_on_c, 10, 60, 60
11, 94300, Note_on_c, 10, 60, 0
11, 94320, Note_on_c, 10, 60, 60
11, 94420, Note_on_c, 10, 60, 0
11, 94440, Note_on_c, 10, 60, 60
11, 94540, Note_on_c, 10, 60, 0
11, 94680, Note_on_c, 10, 60, 60
11, 94780, Note_on_c, 10, 60, 0
11, 94800, Note_on_c, 10, 60, 60
11, 94900, Note_on_c, 10, 60, 0
11, 94920, Note_on_c, 10, 60, 60
11, 95020, Note_on_c, 10, 60, 0
11, 95040, Note_on_c, 10, 67, 60
11, 96100, Note_on_c, 10, 67, 0
11, 96120, Note_on_c, 10, 60, 60
11, 96220, Note_on_c, 10, 60, 0
11, 96240, Note_on_c, 10, 60, 60
11, 96340, Note_on_c, 10, 60, 0
11, 96360, Note_on_c, 10, 60, 60
11, 96460, Note_on_c, 10, 60, 0
11, 96600, Note_on_c, 10, 60, 60
11, 96700, Note_on_c, 10, 60, 0
11, 96720, Note_on_c, 10, 60, 60
11, 96820, Note_on_c, 10, 60, 0
11, 96840, Note_on_c, 10, 60, 60
11, 96940, Note_on_c, 10, 60, 0
11, 97080, Note_on_c, 10, 60, 60
11, 97180, Note_on_c, 10, 60, 0
11, 97200, Note_on_c, 10, 60, 60
11, 97300, Note_on_c, 10, 60, 0
11, 97320, Note_on_c, 10, 60, 60
11, 97420, Note_on_c, 10, 60, 0
11, 97560, Note_on_c, 10, 60, 60
11, 97660, Note_on_c, 10, 60, 0
11, 97680, Note_on_c, 10, 60, 60
11, 97780, Note_on_c, 10, 60, 0
11, 97800, Note_on_c, 10, 60, 60
11, 97900, Note_on_c, 10, 60, 0
11, 98040, Note_on_c, 10, 60, 60
11, 98140, Note_on_c, 10, 60, 0
11, 98160, Note_on_c, 10, 60, 60
11, 98260, Note_on_c, 10, 60, 0
11, 98280, Note_on_c, 10, 60, 60
11, 98380, Note_on_c, 10, 60, 0
11, 98520, Note_on_c, 10, 60, 60
11, 98620, Note_on_c, 10, 60, 0
11, 98640, Note_on_c, 10, 60, 60
11, 98740, Note_on_c, 10, 60, 0
11, 98760, Note_on_c, 10, 60, 60
11, 98860, Note_on_c, 10, 60, 0
11, 98880, Note_on_c, 10, 67, 60
11, 99940, Note_on_c, 10, 67, 0
11, 99960, Note_on_c, 10, 72, 92
11, 100170, Note_on_c, 10, 72, 0
11, 100200, Note_on_c, 10, 71, 92
11, 100300, Note_on_c, 10, 71, 0
11, 100320, Note_on_c, 10, 72, 92
11, 100420, Note_on_c, 10, 72, 0
11, 100440, Note_on_c, 10, 71, 92
11, 100540, Note_on_c, 10, 71, 0
11, 100560, Note_on_c, 10, 72, 92
11, 100660, Note_on_c, 10, 72, 0
11, 100680, Note_on_c, 10, 68, 92
11, 100780, Note_on_c, 10, 68, 0
11, 100800, Note_on_c, 10, 69, 92
11, 100900, Note_on_c, 10, 69, 0
11, 100920, Note_on_c, 10, 69, 92
11, 101130, Note_on_c, 10, 69, 0
11, 101160, Note_on_c, 10, 68, 92
11, 101260, Note_on_c, 10, 68, 0
11, 101280, Note_on_c, 10, 69, 92
11, 101380, Note_on_c, 10, 69, 0
11, 101400, Note_on_c, 10, 68, 92
11, 101500, Note_on_c, 10, 68, 0
11, 101520, Note_on_c, 10, 69, 92
11, 101620, Note_on_c, 10, 69, 0
11, 101640, Note_on_c, 10, 64, 92
11, 101740, Note_on_c, 10, 64, 0
11, 101760, Note_on_c, 10, 65, 92
11, 101860, Note_on_c, 10, 65, 0
11, 101880, Note_on_c, 10, 65, 92
11, 102090, Note_on_c, 10, 65, 0
11, 102120, Note_on_c, 10, 64, 92
11, 102220, Note_on_c, 10, 64, 0
11, 102240, Note_on_c, 10, 65, 92
11, 102340, Note_on_c, 10, 65, 0
11, 102360, Note_on_c, 10, 64, 92
11, 102460, Note_on_c, 10, 64, 0
11, 102480, Note_on_c, 10, 65, 92
11, 102580, Note_on_c, 10, 65, 0
11, 102600, Note_on_c, 10, 67, 92
11, 102700, Note_on_c, 10, 67, 0
11, 102720, Note_on_c, 10, 65, 92
11, 102820, Note_on_c, 10, 65, 0
11, 102840, Note_on_c, 10, 64, 92
11, 102940, Note_on_c, 10, 64, 0
11, 102960, Note_on_c, 10, 65, 92
11, 103060, Note_on_c, 10, 65, 0
11, 103080, Note_on_c, 10, 73, 92
11, 103180, Note_on_c, 10, 73, 0
11, 103200, Note_on_c, 10, 74, 92
11, 103300, Note_on_c, 10, 74, 0
11, 103320, Note_on_c, 10, 72, 92
11, 103420, Note_on_c, 10, 72, 0
11, 103440, Note_on_c, 10, 71, 92
11, 103540, Note_on_c, 10, 71, 0
11, 103560, Note_on_c, 10, 67, 92
11, 103660, Note_on_c, 10, 67, 0
11, 103680, Note_on_c, 10, 72, 92
11, 103780, Note_on_c, 10, 72, 0
11, 103800, Note_on_c, 10, 76, 92
11, 103900, Note_on_c, 10, 76, 0
11, 103920, Note_on_c, 10, 69, 92
11, 104020, Note_on_c, 10, 69, 0
11, 104040, Note_on_c, 10, 72, 92
11, 104140, Note_on_c, 10, 72, 0
11, 104160, Note_on_c, 10, 65, 92
11, 104260, Note_on_c, 10, 65, 0
11, 104280, Note_on_c, 10, 69, 92
11, 104380, Note_on_c, 10, 69, 0
11, 104400, Note_on_c, 10, 67, 92
11, 104500, Note_on_c, 10, 67, 0
11, 104520, Note_on_c, 10, 55, 92
11, 104620, Note_on_c, 10, 55, 0
11, 104640, Note_on_c, 10, 60, 92
11, 104740, Note_on_c, 10, 60, 0
11, 104760, Note_on_c, 10, 72, 92
11, 104970, Note_on_c, 10, 72, 0
11, 105000, Note_on_c, 10, 71, 92
11, 105100, Note_on_c, 10, 71, 0
11, 105120, Note_on_c, 10, 72, 92
11, 105220, Note_on_c, 10, 72, 0
11, 105240, Note_on_c, 10, 71, 92
11, 105340, Note_on_c, 10, 71, 0
11, 105360, Note_on_c, 10, 72, 92
11, 105460, Note_on_c, 10, 72, 0
11, 105480, Note_on_c, 10, 68, 92
11, 105580, Note_on_c, 10, 68, 0
11, 105600, Note_on_c, 10, 69, 92
11, 105700, Note_on_c, 10, 69, 0
11, 105720, Note_on_c, 10, 69, 92
11, 105930, Note_on_c, 10, 69, 0
11, 105960, Note_on_c, 10, 68, 92
11, 106060, Note_on_c, 10, 68, 0
11, 106080, Note_on_c, 10, 69, 92
11, 106180, Note_on_c, 10, 69, 0
11, 106200, Note_on_c, 10, 68, 92
11, 106300, Note_on_c, 10, 68, 0
11, 106320, Note_on_c, 10, 69, 92
11, 106420, Note_on_c, 10, 69, 0
11, 106440, Note_on_c, 10, 64, 92
11, 106540, Note_on_c, 10, 64, 0
11, 106560, Note_on_c, 10, 65, 92
11, 106660, Note_on_c, 10, 65, 0
11, 106680, Note_on_c, 10, 65, 92
11, 106890, Note_on_c, 10, 65, 0
11, 106920, Note_on_c, 10, 64, 92
11, 107020, Note_on_c, 10, 64, 0
11, 107040, Note_on_c, 10, 65, 92
11, 107140, Note_on_c, 10, 65, 0
11, 107160, Note_on_c, 10, 64, 92
11, 107260, Note_on_c, 10, 64, 0
11, 107280, Note_on_c, 10, 65, 92
11, 107380, Note_on_c, 10, 65, 0
11, 107400, Note_on_c, 10, 67, 92
11, 107500, Note_on_c, 10, 67, 0
11, 107520, Note_on_c, 10, 65, 92
11, 107620, Note_on_c, 10, 65, 0
11, 107640, Note_on_c, 10, 64, 92
11, 107740, Note_on_c, 10, 64, 0
11, 107760, Note_on_c, 10, 65, 92
11, 107860, Note_on_c, 10, 65, 0
11, 107880, Note_on_c, 10, 73, 92
11, 107980, Note_on_c, 10, 73, 0
11, 108000, Note_on_c, 10, 74, 92
11, 108100, Note_on_c, 10, 74, 0
11, 108120, Note_on_c, 10, 72, 92
11, 108220, Note_on_c, 10, 72, 0
11, 108240, Note_on_c, 10, 71, 92
11, 108340, Note_on_c, 10, 71, 0
11, 108360, Note_on_c, 10, 67, 92
11, 108460, Note_on_c, 10, 67, 0
11, 108480, Note_on_c, 10, 72, 92
11, 108580, Note_on_c, 10, 72, 0
11, 108960, Note_on_c, 10, 72, 60
11, 109060, Note_on_c, 10, 72, 0
11, 109440, Note_on_c, 10, 69, 60
11, 109540, Note_on_c, 10, 69, 0
11, 109920, Note_on_c, 10, 65, 60
11, 110020, Note_on_c, 10, 65, 0
11, 110400, Note_on_c, 10, 67, 60
11, 111330, Note_on_c, 10, 67, 0
11, 111360, Note_on_c, 10, 69, 60
11, 111940, Note_on_c, 10, 69, 0
11, 112800, Note_on_c, 10, 72, 92
11, 112900, Note_on_c, 10, 72, 0
11, 113280, Note_on_c, 10, 69, 92
11, 113380, Note_on_c, 10, 69, 0
11, 113760, Note_on_c, 10, 65, 92
11, 113860, Note_on_c, 10, 65, 0
11, 114240, Note_on_c, 10, 67, 92
11, 114340, Note_on_c, 10, 67, 0
11, 114720, Note_on_c, 10, 55, 92
11, 114820, Note_on_c, 10, 55, 0
11, 115200, Note_on_c, 10, 60, 60
11, 115300, Note_on_c, 10, 60, 0
11, 115680, Note_on_c, 10, 60, 60
11, 115780, Note_on_c, 10, 60, 0
11, 115920, Note_on_c, 10, 60, 60
11, 116020, Note_on_c, 10, 60, 0
11, 116040, Note_on_c, 10, 60, 60
11, 116140, Note_on_c, 10, 60, 0
11, 116160, Note_on_c, 10, 60, 60
11, 116260, Note_on_c, 10, 60, 0
11, 116640, Note_on_c, 10, 60, 60
11, 116740, Note_on_c, 10, 60, 0
11, 116880, Note_on_c, 10, 60, 60
11, 116980, Note_on_c, 10, 60, 0
11, 117000, Note_on_c, 10, 60, 60
11, 117100, Note_on_c, 10, 60, 0
11, 117120, Note_on_c, 10, 60, 60
11, 117220, Note_on_c, 10, 60, 0
11, 117600, Note_on_c, 10, 60, 60
11, 117700, Note_on_c, 10, 60, 0
11, 117840, Note_on_c, 10, 60, 60
11, 117940, Note_on_c, 10, 60, 0
11, 117960, Note_on_c, 10, 60, 60
11, 118060, Note_on_c, 10, 60, 0
11, 118080, Note_on_c, 10, 60, 60
11, 118180, Note_on_c, 10, 60, 0
11, 118560, Note_on_c, 10, 60, 60
11, 118660, Note_on_c, 10, 60, 0
11, 118800, Note_on_c, 10, 60, 64
11, 118900, Note_on_c, 10, 60, 0
11, 118920, Note_on_c, 10, 60, 66
11, 119020, Note_on_c, 10, 60, 0
11, 119040, Note_on_c, 10, 60, 68
11, 119140, Note_on_c, 10, 60, 0
11, 119520, Note_on_c, 10, 60, 80
11, 119620, Note_on_c, 10, 60, 0
11, 119760, Note_on_c, 10, 60, 86
11, 119860, Note_on_c, 10, 60, 0
11, 119880, Note_on_c, 10, 60, 89
11, 119980, Note_on_c, 10, 60, 0
11, 120000, Note_on_c, 10, 60, 92
11, 120100, Note_on_c, 10, 60, 0
11, 120480, Note_on_c, 10, 60, 92
11, 120580, Note_on_c, 10, 60, 0
11, 120720, Note_on_c, 10, 60, 92
11, 120820, Note_on_c, 10, 60, 0
11, 120840, Note_on_c, 10, 60, 92
11, 120940, Note_on_c, 10, 60, 0
11, 120960, Note_on_c, 10, 64, 108
11, 121060, Note_on_c, 10, 64, 0
11, 121080, Note_on_c, 10, 64, 108
11, 121290, Note_on_c, 10, 64, 0
11, 121320, Note_on_c, 10, 65, 108
11, 121420, Note_on_c, 10, 65, 0
11, 121440, Note_on_c, 10, 64, 108
11, 121540, Note_on_c, 10, 64, 0
11, 121560, Note_on_c, 10, 65, 108
11, 121660, Note_on_c, 10, 65, 0
11, 121680, Note_on_c, 10, 64, 108
11, 121780, Note_on_c, 10, 64, 0
11, 121800, Note_on_c, 10, 65, 108
11, 121900, Note_on_c, 10, 65, 0
11, 121920, Note_on_c, 10, 64, 108
11, 122020, Note_on_c, 10, 64, 0
11, 122040, Note_on_c, 10, 64, 108
11, 122250, Note_on_c, 10, 64, 0
11, 122280, Note_on_c, 10, 65, 108
11, 122380, Note_on_c, 10, 65, 0
11, 122400, Note_on_c, 10, 64, 108
11, 122500, Note_on_c, 10, 64, 0
11, 122520, Note_on_c, 10, 65, 108
11, 122620, Note_on_c, 10, 65, 0
11, 122640, Note_on_c, 10, 64, 108
11, 122740, Note_on_c, 10, 64, 0
11, 122760, Note_on_c, 10, 65, 108
11, 122860, Note_on_c, 10, 65, 0
11, 122880, Note_on_c, 10, 64, 108
11, 122980, Note_on_c, 10, 64, 0
11, 123000, Note_on_c, 10, 67, 108
11, 123058, Note_on_c, 10, 67, 0
11, 123060, Note_on_c, 10, 67, 108
11, 123118, Note_on_c, 10, 67, 0
11, 123120, Note_on_c, 10, 72, 108
11, 123178, Note_on_c, 10, 72, 0
11, 123180, Note_on_c, 10, 72, 108
11, 123238, Note_on_c, 10, 72, 0
11, 123240, Note_on_c, 10, 67, 108
11, 123298, Note_on_c, 10, 67, 0
11, 123300, Note_on_c, 10, 67, 108
11, 123358, Note_on_c, 10, 67, 0
11, 123360, Note_on_c, 10, 72, 108
11, 123418, Note_on_c, 10, 72, 0
11, 123420, Note_on_c, 10, 72, 108
11, 123478, Note_on_c, 10, 72, 0
11, 123480, Note_on_c, 10, 67, 108
11, 123538, Note_on_c, 10, 67, 0
11, 123540, Note_on_c, 10, 67, 108
11, 123598, Note_on_c, 10, 67, 0
11, 123600, Note_on_c, 10, 72, 108
11, 123658, Note_on_c, 10, 72, 0
11, 123660, Note_on_c, 10, 72, 108
11, 123718, Note_on_c, 10, 72, 0
11, 123720, Note_on_c, 10, 67, 108
11, 123778, Note_on_c, 10, 67, 0
11, 123780, Note_on_c, 10, 67, 108
11, 123838, Note_on_c, 10, 67, 0
11, 123840, Note_on_c, 10, 72, 108
11, 123940, Note_on_c, 10, 72, 0
11, 124320, Note_on_c, 10, 60, 108
11, 124420, Note_on_c, 10, 60, 0
11, 124560, Note_on_c, 10, 72, 108
11, 124660, Note_on_c, 10, 72, 0
11, 124800, Note_on_c, 10, 60, 108
11, 125010, Note_on_c, 10, 60, 0
11, 125010, End_track
12, 0, Start_track
12, 0, MIDI_port, 0
12, 0, Title_t, "Cellos"
12, 0, Program_c, 11, 48
12, 0, Control_c, 11, 7, 127
12, 0, Control_c, 11, 10, 42
12, 0, Note_on_c, 11, 60, 92
12, 100, Note_on_c, 11, 60, 0
12, 210, Note_on_c, 11, 48, 92
12, 238, Note_on_c, 11, 48, 0
12, 240, Note_on_c, 11, 48, 92
12, 340, Note_on_c, 11, 48, 0
12, 1890, Note_on_c, 11, 55, 92
12, 1918, Note_on_c, 11, 55, 0
12, 1920, Note_on_c, 11, 55, 92
12, 2020, Note_on_c, 11, 55, 0
12, 2130, Note_on_c, 11, 43, 92
12, 2158, Note_on_c, 11, 43, 0
12, 2160, Note_on_c, 11, 43, 92
12, 2260, Note_on_c, 11, 43, 0
12, 3600, Note_on_c, 11, 60, 45
12, 3630, Note_on_c, 11, 60, 0
12, 3840, Note_on_c, 11, 57, 45
12, 3870, Note_on_c, 11, 57, 0
12, 4080, Note_on_c, 11, 53, 45
12, 4110, Note_on_c, 11, 53, 0
12, 4320, Note_on_c, 11, 55, 45
12, 4770, Note_on_c, 11, 55, 0
12, 4800, Note_on_c, 11, 57, 45
12, 5040, Note_on_c, 11, 57, 0
12, 5040, Note_on_c, 11, 57, 45
12, 5140, Note_on_c, 11, 57, 0
12, 5520, Note_on_c, 11, 60, 92
12, 5550, Note_on_c, 11, 60, 0
12, 5760, Note_on_c, 11, 57, 92
12, 5790, Note_on_c, 11, 57, 0
12, 6000, Note_on_c, 11, 53, 92
12, 6030, Note_on_c, 11, 53, 0
12, 6240, Note_on_c, 11, 55, 92
12, 6340, Note_on_c, 11, 55, 0
12, 6480, Note_on_c, 11, 43, 92
12, 6580, Note_on_c, 11, 43, 0
12, 6720, Note_on_c, 11, 48, 45
12, 6820, Note_on_c, 11, 48, 0
12, 7200, Note_on_c, 11, 48, 45
12, 7300, Note_on_c, 11, 48, 0
12, 7440, Note_on_c, 11, 48, 45
12, 7540, Note_on_c, 11, 48, 0
12, 7560, Note_on_c, 11, 48, 45
12, 7660, Note_on_c, 11, 48, 0
12, 7680, Note_on_c, 11, 48, 45
12, 7780, Note_on_c, 11, 48, 0
12, 8160, Note_on_c, 11, 48, 45
12, 8260, Note_on_c, 11, 48, 0
12, 8400, Note_on_c, 11, 48, 45
12, 8500, Note_on_c, 11, 48, 0
12, 8520, Note_on_c, 11, 48, 45
12, 8620, Note_on_c, 11, 48, 0
12, 8640, Note_on_c, 11, 48, 45
12, 8740, Note_on_c, 11, 48, 0
12, 9120, Note_on_c, 11, 48, 45
12, 9220, Note_on_c, 11, 48, 0
12, 9360, Note_on_c, 11, 48, 45
12, 9460, Note_on_c, 11, 48, 0
12, 9480, Note_on_c, 11, 48, 45
12, 9580, Note_on_c, 11, 48, 0
12, 9600, Note_on_c, 11, 48, 45
12, 9700, Note_on_c, 11, 48, 0
12, 10080, Note_on_c, 11, 48, 45
12, 10180, Note_on_c, 11, 48, 0
12, 10320, Note_on_c, 11, 48, 45
12, 10420, Note_on_c, 11, 48, 0
12, 10440, Note_on_c, 11, 48, 45
12, 10540, Note_on_c, 11, 48, 0
12, 10560, Note_on_c, 11, 48, 45
12, 10660, Note_on_c, 11, 48, 0
12, 10800, Note_on_c, 11, 48, 45
12, 10900, Note_on_c, 11, 48, 0
12, 10920, Note_on_c, 11, 48, 45
12, 11020, Note_on_c, 11, 48, 0
12, 11040, Note_on_c, 11, 48, 45
12, 11140, Note_on_c, 11, 48, 0
12, 11160, Note_on_c, 11, 48, 45
12, 11260, Note_on_c, 11, 48, 0
12, 11280, Note_on_c, 11, 48, 45
12, 11380, Note_on_c, 11, 48, 0
12, 11400, Note_on_c, 11, 48, 45
12, 11500, Note_on_c, 11, 48, 0
12, 11520, Note_on_c, 11, 60, 92
12, 11620, Note_on_c, 11, 60, 0
12, 11640, Note_on_c, 11, 60, 92
12, 11850, Note_on_c, 11, 60, 0
12, 11880, Note_on_c, 11, 60, 92
12, 11980, Note_on_c, 11, 60, 0
12, 12000, Note_on_c, 11, 60, 92
12, 12100, Note_on_c, 11, 60, 0
12, 12120, Note_on_c, 11, 60, 92
12, 12220, Note_on_c, 11, 60, 0
12, 12240, Note_on_c, 11, 60, 92
12, 12340, Note_on_c, 11, 60, 0
12, 12360, Note_on_c, 11, 60, 92
12, 12460, Note_on_c, 11, 60, 0
12, 12480, Note_on_c, 11, 60, 92
12, 12580, Note_on_c, 11, 60, 0
12, 12600, Note_on_c, 11, 60, 92
12, 12810, Note_on_c, 11, 60, 0
12, 12840, Note_on_c, 11, 60, 92
12, 12940, Note_on_c, 11, 60, 0
12, 12960, Note_on_c, 11, 60, 92
12, 13060, Note_on_c, 11, 60, 0
12, 13080, Note_on_c, 11, 60, 92
12, 13180, Note_on_c, 11, 60, 0
12, 13200, Note_on_c, 11, 60, 92
12, 13300, Note_on_c, 11, 60, 0
12, 13320, Note_on_c, 11, 60, 92
12, 13420, Note_on_c, 11, 60, 0
12, 13440, Note_on_c, 11, 60, 92
12, 13540, Note_on_c, 11, 60, 0
12, 13920, Note_on_c, 11, 48, 60
12, 14020, Note_on_c, 11, 48, 0
12, 14400, Note_on_c, 11, 48, 60
12, 14500, Note_on_c, 11, 48, 0
12, 14880, Note_on_c, 11, 48, 60
12, 14980, Note_on_c, 11, 48, 0
12, 15360, Note_on_c, 11, 48, 60
12, 15460, Note_on_c, 11, 48, 0
12, 15840, Note_on_c, 11, 48, 60
12, 15940, Note_on_c, 11, 48, 0
12, 16320, Note_on_c, 11, 43, 60
12, 17250, Note_on_c, 11, 43, 0
12, 17280, Note_on_c, 11, 48, 60
12, 17380, Note_on_c, 11, 48, 0
12, 17760, Note_on_c, 11, 48, 60
12, 17860, Note_on_c, 11, 48, 0
12, 18240, Note_on_c, 11, 48, 60
12, 18340, Note_on_c, 11, 48, 0
12, 18720, Note_on_c, 11, 48, 60
12, 18820, Note_on_c, 11, 48, 0
12, 19200, Note_on_c, 11, 48, 60
12, 19300, Note_on_c, 11, 48, 0
12, 19680, Note_on_c, 11, 48, 60
12, 19780, Note_on_c, 11, 48, 0
12, 20160, Note_on_c, 11, 43, 60
12, 21090, Note_on_c, 11, 43, 0
12, 21120, Note_on_c, 11, 48, 60
12, 21220, Note_on_c, 11, 48, 0
12, 21600, Note_on_c, 11, 48, 60
12, 21700, Note_on_c, 11, 48, 0
12, 21840, Note_on_c, 11, 48, 60
12, 21940, Note_on_c, 11, 48, 0
12, 21960, Note_on_c, 11, 48, 60
12, 22060, Note_on_c, 11, 48, 0
12, 22080, Note_on_c, 11, 50, 60
12, 22180, Note_on_c, 11, 50, 0
12, 22560, Note_on_c, 11, 50, 60
12, 22660, Note_on_c, 11, 50, 0
12, 22800, Note_on_c, 11, 50, 60
12, 22900, Note_on_c, 11, 50, 0
12, 22920, Note_on_c, 11, 50, 60
12, 23020, Note_on_c, 11, 50, 0
12, 23040, Note_on_c, 11, 52, 60
12, 23140, Note_on_c, 11, 52, 0
12, 23520, Note_on_c, 11, 52, 60
12, 23620, Note_on_c, 11, 52, 0
12, 23760, Note_on_c, 11, 52, 60
12, 23860, Note_on_c, 11, 52, 0
12, 23880, Note_on_c, 11, 52, 60
12, 23980, Note_on_c, 11, 52, 0
12, 24000, Note_on_c, 11, 45, 60
12, 24100, Note_on_c, 11, 45, 0
12, 24480, Note_on_c, 11, 45, 60
12, 24580, Note_on_c, 11, 45, 0
12, 24720, Note_on_c, 11, 45, 60
12, 24820, Note_on_c, 11, 45, 0
12, 24840, Note_on_c, 11, 45, 60
12, 24940, Note_on_c, 11, 45, 0
12, 24960, Note_on_c, 11, 50, 92
12, 25060, Note_on_c, 11, 50, 0
12, 25080, Note_on_c, 11, 62, 92
12, 25290, Note_on_c, 11, 62, 0
12, 25320, Note_on_c, 11, 62, 92
12, 25420, Note_on_c, 11, 62, 0
12, 25440, Note_on_c, 11, 62, 92
12, 25540, Note_on_c, 11, 62, 0
12, 25560, Note_on_c, 11, 62, 92
12, 25660, Note_on_c, 11, 62, 0
12, 25680, Note_on_c, 11, 62, 92
12, 25780, Note_on_c, 11, 62, 0
12, 25800, Note_on_c, 11, 62, 92
12, 25900, Note_on_c, 11, 62, 0
12, 25920, Note_on_c, 11, 62, 92
12, 26020, Note_on_c, 11, 62, 0
12, 26040, Note_on_c, 11, 62, 92
12, 26250, Note_on_c, 11, 62, 0
12, 26280, Note_on_c, 11, 62, 92
12, 26380, Note_on_c, 11, 62, 0
12, 26400, Note_on_c, 11, 62, 92
12, 26500, Note_on_c, 11, 62, 0
12, 26520, Note_on_c, 11, 62, 92
12, 26620, Note_on_c, 11, 62, 0
12, 26640, Note_on_c, 11, 62, 92
12, 26740, Note_on_c, 11, 62, 0
12, 26760, Note_on_c, 11, 62, 92
12, 26860, Note_on_c, 11, 62, 0
12, 26880, Note_on_c, 11, 62, 92
12, 26980, Note_on_c, 11, 62, 0
12, 30840, Note_on_c, 11, 67, 92
12, 31050, Note_on_c, 11, 67, 0
12, 31080, Note_on_c, 11, 66, 92
12, 31180, Note_on_c, 11, 66, 0
12, 31200, Note_on_c, 11, 67, 92
12, 31230, Note_on_c, 11, 67, 0
12, 31320, Note_on_c, 11, 66, 92
12, 31350, Note_on_c, 11, 66, 0
12, 31440, Note_on_c, 11, 67, 92
12, 31470, Note_on_c, 11, 67, 0
12, 31560, Note_on_c, 11, 63, 92
12, 31590, Note_on_c, 11, 63, 0
12, 31680, Note_on_c, 11, 64, 92
12, 31780, Note_on_c, 11, 64, 0
12, 31800, Note_on_c, 11, 64, 92
12, 32010, Note_on_c, 11, 64, 0
12, 32040, Note_on_c, 11, 63, 92
12, 32140, Note_on_c, 11, 63, 0
12, 32160, Note_on_c, 11, 64, 92
12, 32260, Note_on_c, 11, 64, 0
12, 32280, Note_on_c, 11, 63, 92
12, 32380, Note_on_c, 11, 63, 0
12, 32400, Note_on_c, 11, 64, 92
12, 32500, Note_on_c, 11, 64, 0
12, 32520, Note_on_c, 11, 59, 92
12, 32620, Note_on_c, 11, 59, 0
12, 32640, Note_on_c, 11, 60, 92
12, 32740, Note_on_c, 11, 60, 0
12, 32760, Note_on_c, 11, 60, 92
12, 32970, Note_on_c, 11, 60, 0
12, 33000, Note_on_c, 11, 59, 92
12, 33100, Note_on_c, 11, 59, 0
12, 33120, Note_on_c, 11, 60, 92
12, 33220, Note_on_c, 11, 60, 0
12, 33240, Note_on_c, 11, 59, 92
12, 33340, Note_on_c, 11, 59, 0
12, 33360, Note_on_c, 11, 60, 92
12, 33460, Note_on_c, 11, 60, 0
12, 33480, Note_on_c, 11, 62, 92
12, 33580, Note_on_c, 11, 62, 0
12, 33600, Note_on_c, 11, 60, 92
12, 33700, Note_on_c, 11, 60, 0
12, 33720, Note_on_c, 11, 56, 92
12, 33820, Note_on_c, 11, 56, 0
12, 33840, Note_on_c, 11, 57, 92
12, 33940, Note_on_c, 11, 57, 0
12, 33960, Note_on_c, 11, 55, 92
12, 34060, Note_on_c, 11, 55, 0
12, 34080, Note_on_c, 11, 54, 92
12, 34180, Note_on_c, 11, 54, 0
12, 34200, Note_on_c, 11, 50, 92
12, 34300, Note_on_c, 11, 50, 0
12, 34320, Note_on_c, 11, 52, 92
12, 34420, Note_on_c, 11, 52, 0
12, 34440, Note_on_c, 11, 54, 92
12, 34540, Note_on_c, 11, 54, 0
12, 34560, Note_on_c, 11, 55, 92
12, 34590, Note_on_c, 11, 55, 0
12, 34680, Note_on_c, 11, 59, 92
12, 34710, Note_on_c, 11, 59, 0
12, 34800, Note_on_c, 11, 62, 92
12, 35010, Note_on_c, 11, 62, 0
12, 35040, Note_on_c, 11, 52, 92
12, 35070, Note_on_c, 11, 52, 0
12, 35160, Note_on_c, 11, 55, 92
12, 35190, Note_on_c, 11, 55, 0
12, 35280, Note_on_c, 11, 59, 92
12, 35490, Note_on_c, 11, 59, 0
12, 35520, Note_on_c, 11, 48, 92
12, 35550, Note_on_c, 11, 48, 0
12, 35640, Note_on_c, 11, 52, 92
12, 35670, Note_on_c, 11, 52, 0
12, 35760, Note_on_c, 11, 50, 92
12, 35790, Note_on_c, 11, 50, 0
12, 35880, Note_on_c, 11, 54, 92
12, 35910, Note_on_c, 11, 54, 0
12, 36000, Note_on_c, 11, 55, 92
12, 36030, Note_on_c, 11, 55, 0
12, 36120, Note_on_c, 11, 59, 92
12, 36150, Note_on_c, 11, 59, 0
12, 36240, Note_on_c, 11, 62, 92
12, 36450, Note_on_c, 11, 62, 0
12, 36480, Note_on_c, 11, 52, 92
12, 36510, Note_on_c, 11, 52, 0
12, 36600, Note_on_c, 11, 55, 92
12, 36630, Note_on_c, 11, 55, 0
12, 36720, Note_on_c, 11, 59, 92
12, 36930, Note_on_c, 11, 59, 0
12, 36960, Note_on_c, 11, 48, 92
12, 37060, Note_on_c, 11, 48, 0
12, 37080, Note_on_c, 11, 52, 92
12, 37180, Note_on_c, 11, 52, 0
12, 37200, Note_on_c, 11, 50, 92
12, 37300, Note_on_c, 11, 50, 0
12, 37320, Note_on_c, 11, 50, 92
12, 37420, Note_on_c, 11, 50, 0
12, 37440, Note_on_c, 11, 55, 92
12, 37540, Note_on_c, 11, 55, 0
12, 37920, Note_on_c, 11, 55, 60
12, 38020, Note_on_c, 11, 55, 0
12, 38400, Note_on_c, 11, 55, 60
12, 38500, Note_on_c, 11, 55, 0
12, 38880, Note_on_c, 11, 55, 60
12, 38980, Note_on_c, 11, 55, 0
12, 39360, Note_on_c, 11, 55, 60
12, 39460, Note_on_c, 11, 55, 0
12, 39840, Note_on_c, 11, 55, 60
12, 39940, Note_on_c, 11, 55, 0
12, 40320, Note_on_c, 11, 50, 60
12, 41250, Note_on_c, 11, 50, 0
12, 41280, Note_on_c, 11, 55, 60
12, 41380, Note_on_c, 11, 55, 0
12, 41760, Note_on_c, 11, 55, 60
12, 41860, Note_on_c, 11, 55, 0
12, 42240, Note_on_c, 11, 55, 60
12, 42340, Note_on_c, 11, 55, 0
12, 42720, Note_on_c, 11, 55, 60
12, 42820, Note_on_c, 11, 55, 0
12, 43200, Note_on_c, 11, 55, 60
12, 43300, Note_on_c, 11, 55, 0
12, 43680, Note_on_c, 11, 55, 60
12, 43780, Note_on_c, 11, 55, 0
12, 44160, Note_on_c, 11, 50, 60
12, 45090, Note_on_c, 11, 50, 0
12, 45120, Note_on_c, 11, 55, 60
12, 45220, Note_on_c, 11, 55, 0
12, 45600, Note_on_c, 11, 55, 60
12, 45700, Note_on_c, 11, 55, 0
12, 45840, Note_on_c, 11, 55, 60
12, 45940, Note_on_c, 11, 55, 0
12, 45960, Note_on_c, 11, 55, 60
12, 46060, Note_on_c, 11, 55, 0
12, 46080, Note_on_c, 11, 55, 60
12, 46180, Note_on_c, 11, 55, 0
12, 46560, Note_on_c, 11, 55, 60
12, 46660, Note_on_c, 11, 55, 0
12, 46800, Note_on_c, 11, 55, 60
12, 46900, Note_on_c, 11, 55, 0
12, 46920, Note_on_c, 11, 55, 60
12, 47020, Note_on_c, 11, 55, 0
12, 47040, Note_on_c, 11, 55, 60
12, 47140, Note_on_c, 11, 55, 0
12, 47520, Note_on_c, 11, 55, 60
12, 47620, Note_on_c, 11, 55, 0
12, 47760, Note_on_c, 11, 55, 60
12, 47860, Note_on_c, 11, 55, 0
12, 47880, Note_on_c, 11, 55, 60
12, 47980, Note_on_c, 11, 55, 0
12, 48000, Note_on_c, 11, 64, 92
12, 48100, Note_on_c, 11, 64, 0
12, 48120, Note_on_c, 11, 64, 92
12, 48330, Note_on_c, 11, 64, 0
12, 48360, Note_on_c, 11, 64, 92
12, 48460, Note_on_c, 11, 64, 0
12, 48480, Note_on_c, 11, 64, 92
12, 48580, Note_on_c, 11, 64, 0
12, 48600, Note_on_c, 11, 64, 92
12, 48700, Note_on_c, 11, 64, 0
12, 48720, Note_on_c, 11, 64, 92
12, 48820, Note_on_c, 11, 64, 0
12, 48840, Note_on_c, 11, 64, 92
12, 48940, Note_on_c, 11, 64, 0
12, 48960, Note_on_c, 11, 64, 92
12, 49060, Note_on_c, 11, 64, 0
12, 49080, Note_on_c, 11, 64, 92
12, 49290, Note_on_c, 11, 64, 0
12, 49320, Note_on_c, 11, 64, 92
12, 49420, Note_on_c, 11, 64, 0
12, 49440, Note_on_c, 11, 64, 92
12, 49540, Note_on_c, 11, 64, 0
12, 49560, Note_on_c, 11, 64, 92
12, 49660, Note_on_c, 11, 64, 0
12, 49680, Note_on_c, 11, 64, 92
12, 49780, Note_on_c, 11, 64, 0
12, 49800, Note_on_c, 11, 64, 92
12, 49900, Note_on_c, 11, 64, 0
12, 49920, Note_on_c, 11, 64, 92
12, 50020, Note_on_c, 11, 64, 0
12, 53760, Note_on_c, 11, 57, 92
12, 53860, Note_on_c, 11, 57, 0
12, 53880, Note_on_c, 11, 57, 92
12, 54090, Note_on_c, 11, 57, 0
12, 54120, Note_on_c, 11, 57, 92
12, 54220, Note_on_c, 11, 57, 0
12, 54240, Note_on_c, 11, 57, 92
12, 54340, Note_on_c, 11, 57, 0
12, 54360, Note_on_c, 11, 57, 92
12, 54460, Note_on_c, 11, 57, 0
12, 54480, Note_on_c, 11, 57, 92
12, 54580, Note_on_c, 11, 57, 0
12, 54600, Note_on_c, 11, 57, 92
12, 54700, Note_on_c, 11, 57, 0
12, 54720, Note_on_c, 11, 57, 92
12, 54820, Note_on_c, 11, 57, 0
12, 55200, Note_on_c, 11, 57, 60
12, 55300, Note_on_c, 11, 57, 0
12, 55440, Note_on_c, 11, 57, 60
12, 55540, Note_on_c, 11, 57, 0
12, 55560, Note_on_c, 11, 57, 60
12, 55660, Note_on_c, 11, 57, 0
12, 55680, Note_on_c, 11, 57, 60
12, 55780, Note_on_c, 11, 57, 0
12, 56160, Note_on_c, 11, 57, 60
12, 56260, Note_on_c, 11, 57, 0
12, 56400, Note_on_c, 11, 57, 60
12, 56500, Note_on_c, 11, 57, 0
12, 56520, Note_on_c, 11, 57, 60
12, 56620, Note_on_c, 11, 57, 0
12, 56640, Note_on_c, 11, 57, 60
12, 56740, Note_on_c, 11, 57, 0
12, 57120, Note_on_c, 11, 57, 60
12, 57220, Note_on_c, 11, 57, 0
12, 57360, Note_on_c, 11, 57, 60
12, 57460, Note_on_c, 11, 57, 0
12, 57480, Note_on_c, 11, 57, 60
12, 57580, Note_on_c, 11, 57, 0
12, 57600, Note_on_c, 11, 62, 92
12, 57700, Note_on_c, 11, 62, 0
12, 57720, Note_on_c, 11, 62, 92
12, 57930, Note_on_c, 11, 62, 0
12, 57960, Note_on_c, 11, 62, 92
12, 58060, Note_on_c, 11, 62, 0
12, 58080, Note_on_c, 11, 62, 92
12, 58180, Note_on_c, 11, 62, 0
12, 58200, Note_on_c, 11, 62, 92
12, 58300, Note_on_c, 11, 62, 0
12, 58320, Note_on_c, 11, 62, 92
12, 58420, Note_on_c, 11, 62, 0
12, 58440, Note_on_c, 11, 62, 92
12, 58540, Note_on_c, 11, 62, 0
12, 58560, Note_on_c, 11, 62, 92
12, 58660, Note_on_c, 11, 62, 0
12, 62400, Note_on_c, 11, 55, 92
12, 62500, Note_on_c, 11, 55, 0
12, 62520, Note_on_c, 11, 55, 92
12, 62730, Note_on_c, 11, 55, 0
12, 62760, Note_on_c, 11, 55, 92
12, 62860, Note_on_c, 11, 55, 0
12, 62880, Note_on_c, 11, 55, 92
12, 62980, Note_on_c, 11, 55, 0
12, 63000, Note_on_c, 11, 55, 92
12, 63100, Note_on_c, 11, 55, 0
12, 63120, Note_on_c, 11, 55, 92
12, 63220, Note_on_c, 11, 55, 0
12, 63240, Note_on_c, 11, 55, 92
12, 63340, Note_on_c, 11, 55, 0
12, 63360, Note_on_c, 11, 55, 92
12, 63460, Note_on_c, 11, 55, 0
12, 63840, Note_on_c, 11, 55, 60
12, 63940, Note_on_c, 11, 55, 0
12, 64080, Note_on_c, 11, 55, 60
12, 64180, Note_on_c, 11, 55, 0
12, 64200, Note_on_c, 11, 55, 60
12, 64300, Note_on_c, 11, 55, 0
12, 64320, Note_on_c, 11, 55, 60
12, 64420, Note_on_c, 11, 55, 0
12, 64800, Note_on_c, 11, 55, 60
12, 64900, Note_on_c, 11, 55, 0
12, 65040, Note_on_c, 11, 55, 60
12, 65140, Note_on_c, 11, 55, 0
12, 65160, Note_on_c, 11, 55, 60
12, 65260, Note_on_c, 11, 55, 0
12, 65280, Note_on_c, 11, 55, 60
12, 65380, Note_on_c, 11, 55, 0
12, 65760, Note_on_c, 11, 55, 60
12, 65860, Note_on_c, 11, 55, 0
12, 66000, Note_on_c, 11, 55, 60
12, 66100, Note_on_c, 11, 55, 0
12, 66120, Note_on_c, 11, 55, 60
12, 66220, Note_on_c, 11, 55, 0
12, 66240, Note_on_c, 11, 60, 92
12, 66340, Note_on_c, 11, 60, 0
12, 66360, Note_on_c, 11, 60, 92
12, 66570, Note_on_c, 11, 60, 0
12, 66600, Note_on_c, 11, 60, 92
12, 66700, Note_on_c, 11, 60, 0
12, 66720, Note_on_c, 11, 60, 92
12, 66820, Note_on_c, 11, 60, 0
12, 66840, Note_on_c, 11, 60, 92
12, 66940, Note_on_c, 11, 60, 0
12, 66960, Note_on_c, 11, 60, 92
12, 67060, Note_on_c, 11, 60, 0
12, 67080, Note_on_c, 11, 60, 92
12, 67180, Note_on_c, 11, 60, 0
12, 67200, Note_on_c, 11, 60, 92
12, 67300, Note_on_c, 11, 60, 0
12, 71040, Note_on_c, 11, 53, 60
12, 71140, Note_on_c, 11, 53, 0
12, 71520, Note_on_c, 11, 53, 60
12, 71620, Note_on_c, 11, 53, 0
12, 72000, Note_on_c, 11, 53, 60
12, 72100, Note_on_c, 11, 53, 0
12, 72480, Note_on_c, 11, 53, 60
12, 72580, Note_on_c, 11, 53, 0
12, 72960, Note_on_c, 11, 53, 60
12, 73060, Note_on_c, 11, 53, 0
12, 73440, Note_on_c, 11, 53, 60
12, 73540, Note_on_c, 11, 53, 0
12, 73920, Note_on_c, 11, 48, 60
12, 74850, Note_on_c, 11, 48, 0
12, 74880, Note_on_c, 11, 53, 60
12, 74980, Note_on_c, 11, 53, 0
12, 75360, Note_on_c, 11, 53, 60
12, 75460, Note_on_c, 11, 53, 0
12, 75840, Note_on_c, 11, 53, 60
12, 75940, Note_on_c, 11, 53, 0
12, 76320, Note_on_c, 11, 53, 60
12, 76420, Note_on_c, 11, 53, 0
12, 76800, Note_on_c, 11, 53, 60
12, 76900, Note_on_c, 11, 53, 0
12, 77280, Note_on_c, 11, 53, 60
12, 77380, Note_on_c, 11, 53, 0
12, 77760, Note_on_c, 11, 48, 60
12, 78690, Note_on_c, 11, 48, 0
12, 78720, Note_on_c, 11, 53, 60
12, 78820, Note_on_c, 11, 53, 0
12, 78840, Note_on_c, 11, 65, 92
12, 79050, Note_on_c, 11, 65, 0
12, 79080, Note_on_c, 11, 64, 92
12, 79180, Note_on_c, 11, 64, 0
12, 79200, Note_on_c, 11, 65, 92
12, 79300, Note_on_c, 11, 65, 0
12, 79320, Note_on_c, 11, 64, 92
12, 79420, Note_on_c, 11, 64, 0
12, 79440, Note_on_c, 11, 65, 92
12, 79540, Note_on_c, 11, 65, 0
12, 79560, Note_on_c, 11, 61, 92
12, 79660, Note_on_c, 11, 61, 0
12, 79680, Note_on_c, 11, 62, 92
12, 79780, Note_on_c, 11, 62, 0
12, 79800, Note_on_c, 11, 62, 92
12, 80010, Note_on_c, 11, 62, 0
12, 80040, Note_on_c, 11, 61, 92
12, 80140, Note_on_c, 11, 61, 0
12, 80160, Note_on_c, 11, 62, 92
12, 80260, Note_on_c, 11, 62, 0
12, 80280, Note_on_c, 11, 61, 92
12, 80380, Note_on_c, 11, 61, 0
12, 80400, Note_on_c, 11, 62, 92
12, 80500, Note_on_c, 11, 62, 0
12, 80520, Note_on_c, 11, 59, 92
12, 80620, Note_on_c, 11, 59, 0
12, 80640, Note_on_c, 11, 60, 92
12, 80740, Note_on_c, 11, 60, 0
12, 80760, Note_on_c, 11, 60, 92
12, 80970, Note_on_c, 11, 60, 0
12, 81000, Note_on_c, 11, 59, 92
12, 81100, Note_on_c, 11, 59, 0
12, 81120, Note_on_c, 11, 60, 92
12, 81150, Note_on_c, 11, 60, 0
12, 81240, Note_on_c, 11, 59, 92
12, 81270, Note_on_c, 11, 59, 0
12, 81360, Note_on_c, 11, 60, 92
12, 81390, Note_on_c, 11, 60, 0
12, 81480, Note_on_c, 11, 55, 92
12, 81510, Note_on_c, 11, 55, 0
12, 81600, Note_on_c, 11, 56, 92
12, 81630, Note_on_c, 11, 56, 0
12, 81720, Note_on_c, 11, 55, 92
12, 81750, Note_on_c, 11, 55, 0
12, 81840, Note_on_c, 11, 56, 92
12, 81870, Note_on_c, 11, 56, 0
12, 81960, Note_on_c, 11, 52, 92
12, 81990, Note_on_c, 11, 52, 0
12, 82080, Note_on_c, 11, 53, 92
12, 82110, Note_on_c, 11, 53, 0
12, 82200, Note_on_c, 11, 52, 92
12, 82230, Note_on_c, 11, 52, 0
12, 82320, Note_on_c, 11, 53, 92
12, 82350, Note_on_c, 11, 53, 0
12, 82440, Note_on_c, 11, 48, 92
12, 82470, Note_on_c, 11, 48, 0
12, 82560, Note_on_c, 11, 56, 92
12, 82590, Note_on_c, 11, 56, 0
12, 82680, Note_on_c, 11, 55, 92
12, 82710, Note_on_c, 11, 55, 0
12, 82800, Note_on_c, 11, 53, 92
12, 82830, Note_on_c, 11, 53, 0
12, 82920, Note_on_c, 11, 52, 92
12, 82950, Note_on_c, 11, 52, 0
12, 83040, Note_on_c, 11, 56, 92
12, 83070, Note_on_c, 11, 56, 0
12, 83160, Note_on_c, 11, 55, 92
12, 83190, Note_on_c, 11, 55, 0
12, 83280, Note_on_c, 11, 53, 92
12, 83310, Note_on_c, 11, 53, 0
12, 83400, Note_on_c, 11, 54, 92
12, 83430, Note_on_c, 11, 54, 0
12, 83520, Note_on_c, 11, 55, 92
12, 83620, Note_on_c, 11, 55, 0
12, 84000, Note_on_c, 11, 55, 60
12, 84100, Note_on_c, 11, 55, 0
12, 84480, Note_on_c, 11, 55, 60
12, 84580, Note_on_c, 11, 55, 0
12, 84960, Note_on_c, 11, 55, 60
12, 85060, Note_on_c, 11, 55, 0
12, 85440, Note_on_c, 11, 55, 60
12, 85540, Note_on_c, 11, 55, 0
12, 85920, Note_on_c, 11, 55, 60
12, 86020, Note_on_c, 11, 55, 0
12, 86400, Note_on_c, 11, 55, 60
12, 86500, Note_on_c, 11, 55, 0
12, 86880, Note_on_c, 11, 55, 60
12, 86980, Note_on_c, 11, 55, 0
12, 87360, Note_on_c, 11, 55, 60
12, 87460, Note_on_c, 11, 55, 0
12, 87840, Note_on_c, 11, 55, 60
12, 87940, Note_on_c, 11, 55, 0
12, 88080, Note_on_c, 11, 55, 60
12, 88180, Note_on_c, 11, 55, 0
12, 88200, Note_on_c, 11, 55, 60
12, 88300, Note_on_c, 11, 55, 0
12, 88320, Note_on_c, 11, 55, 60
12, 88420, Note_on_c, 11, 55, 0
12, 88800, Note_on_c, 11, 55, 60
12, 88900, Note_on_c, 11, 55, 0
12, 89040, Note_on_c, 11, 55, 60
12, 89140, Note_on_c, 11, 55, 0
12, 89160, Note_on_c, 11, 55, 60
12, 89260, Note_on_c, 11, 55, 0
12, 89280, Note_on_c, 11, 55, 60
12, 89380, Note_on_c, 11, 55, 0
12, 89760, Note_on_c, 11, 55, 60
12, 89860, Note_on_c, 11, 55, 0
12, 90000, Note_on_c, 11, 55, 60
12, 90100, Note_on_c, 11, 55, 0
12, 90120, Note_on_c, 11, 55, 60
12, 90220, Note_on_c, 11, 55, 0
12, 90240, Note_on_c, 11, 60, 60
12, 90340, Note_on_c, 11, 60, 0
12, 90360, Note_on_c, 11, 60, 92
12, 90570, Note_on_c, 11, 60, 0
12, 90600, Note_on_c, 11, 60, 92
12, 90700, Note_on_c, 11, 60, 0
12, 90720, Note_on_c, 11, 60, 92
12, 90820, Note_on_c, 11, 60, 0
12, 90840, Note_on_c, 11, 60, 92
12, 90940, Note_on_c, 11, 60, 0
12, 90960, Note_on_c, 11, 60, 92
12, 91060, Note_on_c, 11, 60, 0
12, 91080, Note_on_c, 11, 60, 92
12, 91180, Note_on_c, 11, 60, 0
12, 91200, Note_on_c, 11, 60, 92
12, 91300, Note_on_c, 11, 60, 0
12, 91320, Note_on_c, 11, 60, 92
12, 91530, Note_on_c, 11, 60, 0
12, 91560, Note_on_c, 11, 60, 92
12, 91660, Note_on_c, 11, 60, 0
12, 91680, Note_on_c, 11, 60, 92
12, 91780, Note_on_c, 11, 60, 0
12, 91800, Note_on_c, 11, 60, 92
12, 91900, Note_on_c, 11, 60, 0
12, 91920, Note_on_c, 11, 60, 92
12, 92020, Note_on_c, 11, 60, 0
12, 92040, Note_on_c, 11, 60, 92
12, 92140, Note_on_c, 11, 60, 0
12, 92160, Note_on_c, 11, 60, 92
12, 92260, Note_on_c, 11, 60, 0
12, 92640, Note_on_c, 11, 48, 60
12, 92740, Note_on_c, 11, 48, 0
12, 93120, Note_on_c, 11, 48, 60
12, 93220, Note_on_c, 11, 48, 0
12, 93600, Note_on_c, 11, 48, 60
12, 93700, Note_on_c, 11, 48, 0
12, 94080, Note_on_c, 11, 48, 60
12, 94180, Note_on_c, 11, 48, 0
12, 94560, Note_on_c, 11, 48, 60
12, 94660, Note_on_c, 11, 48, 0
12, 95040, Note_on_c, 11, 43, 60
12, 95970, Note_on_c, 11, 43, 0
12, 96000, Note_on_c, 11, 48, 60
12, 96100, Note_on_c, 11, 48, 0
12, 96480, Note_on_c, 11, 48, 60
12, 96580, Note_on_c, 11, 48, 0
12, 96960, Note_on_c, 11, 48, 60
12, 97060, Note_on_c, 11, 48, 0
12, 97440, Note_on_c, 11, 48, 60
12, 97540, Note_on_c, 11, 48, 0
12, 97920, Note_on_c, 11, 48, 60
12, 98020, Note_on_c, 11, 48, 0
12, 98400, Note_on_c, 11, 48, 60
12, 98500, Note_on_c, 11, 48, 0
12, 98880, Note_on_c, 11, 43, 60
12, 99810, Note_on_c, 11, 43, 0
12, 99840, Note_on_c, 11, 48, 60
12, 99940, Note_on_c, 11, 48, 0
12, 99960, Note_on_c, 11, 60, 92
12, 100170, Note_on_c, 11, 60, 0
12, 100200, Note_on_c, 11, 59, 92
12, 100300, Note_on_c, 11, 59, 0
12, 100320, Note_on_c, 11, 60, 92
12, 100420, Note_on_c, 11, 60, 0
12, 100440, Note_on_c, 11, 59, 92
12, 100540, Note_on_c, 11, 59, 0
12, 100560, Note_on_c, 11, 60, 92
12, 100660, Note_on_c, 11, 60, 0
12, 100680, Note_on_c, 11, 56, 92
12, 100780, Note_on_c, 11, 56, 0
12, 100800, Note_on_c, 11, 57, 92
12, 100900, Note_on_c, 11, 57, 0
12, 100920, Note_on_c, 11, 57, 92
12, 101130, Note_on_c, 11, 57, 0
12, 101160, Note_on_c, 11, 56, 92
12, 101260, Note_on_c, 11, 56, 0
12, 101280, Note_on_c, 11, 57, 92
12, 101380, Note_on_c, 11, 57, 0
12, 101400, Note_on_c, 11, 56, 92
12, 101500, Note_on_c, 11, 56, 0
12, 101520, Note_on_c, 11, 57, 92
12, 101620, Note_on_c, 11, 57, 0
12, 101640, Note_on_c, 11, 52, 92
12, 101740, Note_on_c, 11, 52, 0
12, 101760, Note_on_c, 11, 53, 92
12, 101860, Note_on_c, 11, 53, 0
12, 101880, Note_on_c, 11, 53, 92
12, 102090, Note_on_c, 11, 53, 0
12, 102120, Note_on_c, 11, 52, 92
12, 102220, Note_on_c, 11, 52, 0
12, 102240, Note_on_c, 11, 53, 92
12, 102340, Note_on_c, 11, 53, 0
12, 102360, Note_on_c, 11, 52, 92
12, 102460, Note_on_c, 11, 52, 0
12, 102480, Note_on_c, 11, 53, 92
12, 102580, Note_on_c, 11, 53, 0
12, 102600, Note_on_c, 11, 55, 92
12, 102700, Note_on_c, 11, 55, 0
12, 102720, Note_on_c, 11, 53, 92
12, 102820, Note_on_c, 11, 53, 0
12, 102840, Note_on_c, 11, 52, 92
12, 102940, Note_on_c, 11, 52, 0
12, 102960, Note_on_c, 11, 53, 92
12, 103060, Note_on_c, 11, 53, 0
12, 103080, Note_on_c, 11, 61, 92
12, 103180, Note_on_c, 11, 61, 0
12, 103200, Note_on_c, 11, 62, 92
12, 103300, Note_on_c, 11, 62, 0
12, 103320, Note_on_c, 11, 60, 92
12, 103420, Note_on_c, 11, 60, 0
12, 103440, Note_on_c, 11, 59, 92
12, 103540, Note_on_c, 11, 59, 0
12, 103560, Note_on_c, 11, 55, 92
12, 103660, Note_on_c, 11, 55, 0
12, 103680, Note_on_c, 11, 60, 92
12, 103780, Note_on_c, 11, 60, 0
12, 103800, Note_on_c, 11, 64, 92
12, 103900, Note_on_c, 11, 64, 0
12, 103920, Note_on_c, 11, 57, 92
12, 104020, Note_on_c, 11, 57, 0
12, 104040, Note_on_c, 11, 60, 92
12, 104140, Note_on_c, 11, 60, 0
12, 104160, Note_on_c, 11, 53, 92
12, 104260, Note_on_c, 11, 53, 0
12, 104280, Note_on_c, 11, 57, 92
12, 104380, Note_on_c, 11, 57, 0
12, 104400, Note_on_c, 11, 55, 92
12, 104500, Note_on_c, 11, 55, 0
12, 104520, Note_on_c, 11, 43, 92
12, 104620, Note_on_c, 11, 43, 0
12, 104640, Note_on_c, 11, 48, 92
12, 104740, Note_on_c, 11, 48, 0
12, 104760, Note_on_c, 11, 60, 92
12, 104970, Note_on_c, 11, 60, 0
12, 105000, Note_on_c, 11, 59, 92
12, 105100, Note_on_c, 11, 59, 0
12, 105120, Note_on_c, 11, 60, 92
12, 105220, Note_on_c, 11, 60, 0
12, 105240, Note_on_c, 11, 59, 92
12, 105340, Note_on_c, 11, 59, 0
12, 105360, Note_on_c, 11, 60, 92
12, 105460, Note_on_c, 11, 60, 0
12, 105480, Note_on_c, 11, 56, 92
12, 105580, Note_on_c, 11, 56, 0
12, 105600, Note_on_c, 11, 57, 92
12, 105700, Note_on_c, 11, 57, 0
12, 105720, Note_on_c, 11, 57, 92
12, 105930, Note_on_c, 11, 57, 0
12, 105960, Note_on_c, 11, 56, 92
12, 106060, Note_on_c, 11, 56, 0
12, 106080, Note_on_c, 11, 57, 92
12, 106180, Note_on_c, 11, 57, 0
12, 106200, Note_on_c, 11, 56, 92
12, 106300, Note_on_c, 11, 56, 0
12, 106320, Note_on_c, 11, 57, 92
12, 106420, Note_on_c, 11, 57, 0
12, 106440, Note_on_c, 11, 52, 92
12, 106540, Note_on_c, 11, 52, 0
12, 106560, Note_on_c, 11, 53, 92
12, 106660, Note_on_c, 11, 53, 0
12, 106680, Note_on_c, 11, 53, 92
12, 106890, Note_on_c, 11, 53, 0
12, 106920, Note_on_c, 11, 52, 92
12, 107020, Note_on_c, 11, 52, 0
12, 107040, Note_on_c, 11, 53, 92
12, 107140, Note_on_c, 11, 53, 0
12, 107160, Note_on_c, 11, 52, 92
12, 107260, Note_on_c, 11, 52, 0
12, 107280, Note_on_c, 11, 53, 92
12, 107380, Note_on_c, 11, 53, 0
12, 107400, Note_on_c, 11, 55, 92
12, 107500, Note_on_c, 11, 55, 0
12, 107520, Note_on_c, 11, 53, 92
12, 107620, Note_on_c, 11, 53, 0
12, 107640, Note_on_c, 11, 52, 92
12, 107740, Note_on_c, 11, 52, 0
12, 107760, Note_on_c, 11, 53, 92
12, 107860, Note_on_c, 11, 53, 0
12, 107880, Note_on_c, 11, 61, 92
12, 107980, Note_on_c, 11, 61, 0
12, 108000, Note_on_c, 11, 62, 92
12, 108100, Note_on_c, 11, 62, 0
12, 108120, Note_on_c, 11, 60, 92
12, 108220, Note_on_c, 11, 60, 0
12, 108240, Note_on_c, 11, 59, 92
12, 108340, Note_on_c, 11, 59, 0
12, 108360, Note_on_c, 11, 55, 92
12, 108460, Note_on_c, 11, 55, 0
12, 108480, Note_on_c, 11, 60, 92
12, 108580, Note_on_c, 11, 60, 0
12, 108960, Note_on_c, 11, 60, 60
12, 109060, Note_on_c, 11, 60, 0
12, 109440, Note_on_c, 11, 57, 60
12, 109540, Note_on_c, 11, 57, 0
12, 109920, Note_on_c, 11, 53, 60
12, 110020, Note_on_c, 11, 53, 0
12, 110400, Note_on_c, 11, 55, 60
12, 111330, Note_on_c, 11, 55, 0
12, 111360, Note_on_c, 11, 57, 60
12, 111940, Note_on_c, 11, 57, 0
12, 112800, Note_on_c, 11, 60, 92
12, 112900, Note_on_c, 11, 60, 0
12, 113280, Note_on_c, 11, 57, 92
12, 113380, Note_on_c, 11, 57, 0
12, 113760, Note_on_c, 11, 53, 92
12, 113860, Note_on_c, 11, 53, 0
12, 114240, Note_on_c, 11, 55, 92
12, 114340, Note_on_c, 11, 55, 0
12, 114720, Note_on_c, 11, 43, 92
12, 114820, Note_on_c, 11, 43, 0
12, 115200, Note_on_c, 11, 48, 60
12, 115300, Note_on_c, 11, 48, 0
12, 115680, Note_on_c, 11, 48, 60
12, 115780, Note_on_c, 11, 48, 0
12, 115920, Note_on_c, 11, 48, 60
12, 116020, Note_on_c, 11, 48, 0
12, 116040, Note_on_c, 11, 48, 60
12, 116140, Note_on_c, 11, 48, 0
12, 116160, Note_on_c, 11, 48, 60
12, 116260, Note_on_c, 11, 48, 0
12, 116640, Note_on_c, 11, 48, 60
12, 116740, Note_on_c, 11, 48, 0
12, 116880, Note_on_c, 11, 48, 60
12, 116980, Note_on_c, 11, 48, 0
12, 117000, Note_on_c, 11, 48, 60
12, 117100, Note_on_c, 11, 48, 0
12, 117120, Note_on_c, 11, 48, 60
12, 117220, Note_on_c, 11, 48, 0
12, 117600, Note_on_c, 11, 48, 60
12, 117700, Note_on_c, 11, 48, 0
12, 117840, Note_on_c, 11, 48, 60
12, 117940, Note_on_c, 11, 48, 0
12, 117960, Note_on_c, 11, 48, 60
12, 118060, Note_on_c, 11, 48, 0
12, 118080, Note_on_c, 11, 48, 60
12, 118180, Note_on_c, 11, 48, 0
12, 118560, Note_on_c, 11, 48, 60
12, 118660, Note_on_c, 11, 48, 0
12, 118800, Note_on_c, 11, 48, 64
12, 118900, Note_on_c, 11, 48, 0
12, 118920, Note_on_c, 11, 48, 66
12, 119020, Note_on_c, 11, 48, 0
12, 119040, Note_on_c, 11, 48, 68
12, 119140, Note_on_c, 11, 48, 0
12, 119520, Note_on_c, 11, 48, 80
12, 119620, Note_on_c, 11, 48, 0
12, 119760, Note_on_c, 11, 48, 86
12, 119860, Note_on_c, 11, 48, 0
12, 119880, Note_on_c, 11, 48, 89
12, 119980, Note_on_c, 11, 48, 0
12, 120000, Note_on_c, 11, 48, 92
12, 120100, Note_on_c, 11, 48, 0
12, 120480, Note_on_c, 11, 48, 92
12, 120580, Note_on_c, 11, 48, 0
12, 120720, Note_on_c, 11, 48, 92
12, 120820, Note_on_c, 11, 48, 0
12, 120840, Note_on_c, 11, 48, 92
12, 120940, Note_on_c, 11, 48, 0
12, 120960, Note_on_c, 11, 60, 108
12, 121060, Note_on_c, 11, 60, 0
12, 121080, Note_on_c, 11, 60, 108
12, 121290, Note_on_c, 11, 60, 0
12, 121320, Note_on_c, 11, 60, 108
12, 121420, Note_on_c, 11, 60, 0
12, 121440, Note_on_c, 11, 60, 108
12, 121540, Note_on_c, 11, 60, 0
12, 121560, Note_on_c, 11, 60, 108
12, 121660, Note_on_c, 11, 60, 0
12, 121680, Note_on_c, 11, 60, 108
12, 121780, Note_on_c, 11, 60, 0
12, 121800, Note_on_c, 11, 55, 108
12, 121900, Note_on_c, 11, 55, 0
12, 121920, Note_on_c, 11, 60, 108
12, 122020, Note_on_c, 11, 60, 0
12, 122040, Note_on_c, 11, 60, 108
12, 122250, Note_on_c, 11, 60, 0
12, 122280, Note_on_c, 11, 60, 108
12, 122380, Note_on_c, 11, 60, 0
12, 122400, Note_on_c, 11, 60, 108
12, 122500, Note_on_c, 11, 60, 0
12, 122520, Note_on_c, 11, 60, 108
12, 122620, Note_on_c, 11, 60, 0
12, 122640, Note_on_c, 11, 60, 108
12, 122740, Note_on_c, 11, 60, 0
12, 122760, Note_on_c, 11, 55, 108
12, 122860, Note_on_c, 11, 55, 0
12, 122880, Note_on_c, 11, 60, 108
12, 122980, Note_on_c, 11, 60, 0
12, 123000, Note_on_c, 11, 55, 108
12, 123100, Note_on_c, 11, 55, 0
12, 123120, Note_on_c, 11, 60, 108
12, 123220, Note_on_c, 11, 60, 0
12, 123240, Note_on_c, 11, 55, 108
12, 123340, Note_on_c, 11, 55, 0
12, 123360, Note_on_c, 11, 60, 108
12, 123460, Note_on_c, 11, 60, 0
12, 123480, Note_on_c, 11, 55, 108
12, 123580, Note_on_c, 11, 55, 0
12, 123600, Note_on_c, 11, 60, 108
12, 123700, Note_on_c, 11, 60, 0
12, 123720, Note_on_c, 11, 55, 108
12, 123820, Note_on_c, 11, 55, 0
12, 123840, Note_on_c, 11, 60, 108
12, 123940, Note_on_c, 11, 60, 0
12, 124320, Note_on_c, 11, 48, 108
12, 124420, Note_on_c, 11, 48, 0
12, 124560, Note_on_c, 11, 60, 108
12, 124660, Note_on_c, 11, 60, 0
12, 124800, Note_on_c, 11, 48, 108
12, 125010, Note_on_c, 11, 48, 0
12, 125010, End_track
13, 0, Start_track
13, 0, MIDI_port, 0
13, 0, Title_t, "Double Bass"
13, 0, Program_c, 12, 43
13, 0, Control_c, 12, 7, 127
13, 0, Control_c, 12, 10, 127
13, 0, Note_on_c, 12, 48, 92
13, 100, Note_on_c, 12, 48, 0
13, 210, Note_on_c, 12, 36, 92
13, 238, Note_on_c, 12, 36, 0
13, 240, Note_on_c, 12, 36, 92
13, 340, Note_on_c, 12, 36, 0
13, 1890, Note_on_c, 12, 43, 92
13, 1918, Note_on_c, 12, 43, 0
13, 1920, Note_on_c, 12, 43, 92
13, 2020, Note_on_c, 12, 43, 0
13, 2130, Note_on_c, 12, 31, 92
13, 2158, Note_on_c, 12, 31, 0
13, 2160, Note_on_c, 12, 31, 92
13, 2260, Note_on_c, 12, 31, 0
13, 3600, Note_on_c, 12, 48, 45
13, 3630, Note_on_c, 12, 48, 0
13, 3840, Note_on_c, 12, 45, 45
13, 3870, Note_on_c, 12, 45, 0
13, 4080, Note_on_c, 12, 41, 45
13, 4110, Note_on_c, 12, 41, 0
13, 4320, Note_on_c, 12, 43, 45
13, 4770, Note_on_c, 12, 43, 0
13, 4800, Note_on_c, 12, 45, 45
13, 5040, Note_on_c, 12, 45, 0
13, 5040, Note_on_c, 12, 45, 45
13, 5140, Note_on_c, 12, 45, 0
13, 5520, Note_on_c, 12, 48, 92
13, 5550, Note_on_c, 12, 48, 0
13, 5760, Note_on_c, 12, 45, 92
13, 5790, Note_on_c, 12, 45, 0
13, 6000, Note_on_c, 12, 41, 92
13, 6030, Note_on_c, 12, 41, 0
13, 6240, Note_on_c, 12, 43, 92
13, 6340, Note_on_c, 12, 43, 0
13, 6480, Note_on_c, 12, 31, 92
13, 6580, Note_on_c, 12, 31, 0
13, 6720, Note_on_c, 12, 36, 45
13, 6820, Note_on_c, 12, 36, 0
13, 7200, Note_on_c, 12, 36, 45
13, 7300, Note_on_c, 12, 36, 0
13, 7440, Note_on_c, 12, 36, 45
13, 7540, Note_on_c, 12, 36, 0
13, 7560, Note_on_c, 12, 36, 45
13, 7660, Note_on_c, 12, 36, 0
13, 7680, Note_on_c, 12, 36, 45
13, 7780, Note_on_c, 12, 36, 0
13, 8160, Note_on_c, 12, 36, 45
13, 8260, Note_on_c, 12, 36, 0
13, 8400, Note_on_c, 12, 36, 45
13, 8500, Note_on_c, 12, 36, 0
13, 8520, Note_on_c, 12, 36, 45
13, 8620, Note_on_c, 12, 36, 0
13, 8640, Note_on_c, 12, 36, 45
13, 8740, Note_on_c, 12, 36, 0
13, 9120, Note_on_c, 12, 36, 45
13, 9220, Note_on_c, 12, 36, 0
13, 9360, Note_on_c, 12, 36, 45
13, 9460, Note_on_c, 12, 36, 0
13, 9480, Note_on_c, 12, 36, 45
13, 9580, Note_on_c, 12, 36, 0
13, 9600, Note_on_c, 12, 36, 45
13, 9700, Note_on_c, 12, 36, 0
13, 10080, Note_on_c, 12, 36, 45
13, 10180, Note_on_c, 12, 36, 0
13, 10320, Note_on_c, 12, 36, 45
13, 10420, Note_on_c, 12, 36, 0
13, 10440, Note_on_c, 12, 36, 45
13, 10540, Note_on_c, 12, 36, 0
13, 10560, Note_on_c, 12, 36, 45
13, 10660, Note_on_c, 12, 36, 0
13, 10800, Note_on_c, 12, 36, 45
13, 10900, Note_on_c, 12, 36, 0
13, 10920, Note_on_c, 12, 36, 45
13, 11020, Note_on_c, 12, 36, 0
13, 11040, Note_on_c, 12, 36, 45
13, 11140, Note_on_c, 12, 36, 0
13, 11160, Note_on_c, 12, 36, 45
13, 11260, Note_on_c, 12, 36, 0
13, 11280, Note_on_c, 12, 36, 45
13, 11380, Note_on_c, 12, 36, 0
13, 11400, Note_on_c, 12, 36, 45
13, 11500, Note_on_c, 12, 36, 0
13, 11520, Note_on_c, 12, 48, 92
13, 11620, Note_on_c, 12, 48, 0
13, 11640, Note_on_c, 12, 48, 92
13, 11850, Note_on_c, 12, 48, 0
13, 11880, Note_on_c, 12, 48, 92
13, 11980, Note_on_c, 12, 48, 0
13, 12000, Note_on_c, 12, 48, 92
13, 12100, Note_on_c, 12, 48, 0
13, 12120, Note_on_c, 12, 48, 92
13, 12220, Note_on_c, 12, 48, 0
13, 12240, Note_on_c, 12, 48, 92
13, 12340, Note_on_c, 12, 48, 0
13, 12360, Note_on_c, 12, 48, 92
13, 12460, Note_on_c, 12, 48, 0
13, 12480, Note_on_c, 12, 48, 92
13, 12580, Note_on_c, 12, 48, 0
13, 12600, Note_on_c, 12, 48, 92
13, 12810, Note_on_c, 12, 48, 0
13, 12840, Note_on_c, 12, 48, 92
13, 12940, Note_on_c, 12, 48, 0
13, 12960, Note_on_c, 12, 48, 92
13, 13060, Note_on_c, 12, 48, 0
13, 13080, Note_on_c, 12, 48, 92
13, 13180, Note_on_c, 12, 48, 0
13, 13200, Note_on_c, 12, 48, 92
13, 13300, Note_on_c, 12, 48, 0
13, 13320, Note_on_c, 12, 48, 92
13, 13420, Note_on_c, 12, 48, 0
13, 13440, Note_on_c, 12, 48, 92
13, 13540, Note_on_c, 12, 48, 0
13, 13920, Note_on_c, 12, 36, 60
13, 14020, Note_on_c, 12, 36, 0
13, 14400, Note_on_c, 12, 36, 60
13, 14500, Note_on_c, 12, 36, 0
13, 14880, Note_on_c, 12, 36, 60
13, 14980, Note_on_c, 12, 36, 0
13, 15360, Note_on_c, 12, 36, 60
13, 15460, Note_on_c, 12, 36, 0
13, 15840, Note_on_c, 12, 36, 60
13, 15940, Note_on_c, 12, 36, 0
13, 16320, Note_on_c, 12, 31, 60
13, 17250, Note_on_c, 12, 31, 0
13, 17280, Note_on_c, 12, 36, 60
13, 17380, Note_on_c, 12, 36, 0
13, 17760, Note_on_c, 12, 36, 60
13, 17860, Note_on_c, 12, 36, 0
13, 18240, Note_on_c, 12, 36, 60
13, 18340, Note_on_c, 12, 36, 0
13, 18720, Note_on_c, 12, 36, 60
13, 18820, Note_on_c, 12, 36, 0
13, 19200, Note_on_c, 12, 36, 60
13, 19300, Note_on_c, 12, 36, 0
13, 19680, Note_on_c, 12, 36, 60
13, 19780, Note_on_c, 12, 36, 0
13, 20160, Note_on_c, 12, 31, 60
13, 21090, Note_on_c, 12, 31, 0
13, 21120, Note_on_c, 12, 36, 60
13, 21220, Note_on_c, 12, 36, 0
13, 21600, Note_on_c, 12, 36, 60
13, 21700, Note_on_c, 12, 36, 0
13, 21840, Note_on_c, 12, 36, 60
13, 21940, Note_on_c, 12, 36, 0
13, 21960, Note_on_c, 12, 36, 60
13, 22060, Note_on_c, 12, 36, 0
13, 22080, Note_on_c, 12, 38, 60
13, 22180, Note_on_c, 12, 38, 0
13, 22560, Note_on_c, 12, 38, 60
13, 22660, Note_on_c, 12, 38, 0
13, 22800, Note_on_c, 12, 38, 60
13, 22900, Note_on_c, 12, 38, 0
13, 22920, Note_on_c, 12, 38, 60
13, 23020, Note_on_c, 12, 38, 0
13, 23040, Note_on_c, 12, 40, 60
13, 23140, Note_on_c, 12, 40, 0
13, 23520, Note_on_c, 12, 40, 60
13, 23620, Note_on_c, 12, 40, 0
13, 23760, Note_on_c, 12, 40, 60
13, 23860, Note_on_c, 12, 40, 0
13, 23880, Note_on_c, 12, 40, 60
13, 23980, Note_on_c, 12, 40, 0
13, 24000, Note_on_c, 12, 33, 60
13, 24100, Note_on_c, 12, 33, 0
13, 24480, Note_on_c, 12, 33, 60
13, 24580, Note_on_c, 12, 33, 0
13, 24720, Note_on_c, 12, 33, 60
13, 24820, Note_on_c, 12, 33, 0
13, 24840, Note_on_c, 12, 33, 60
13, 24940, Note_on_c, 12, 33, 0
13, 24960, Note_on_c, 12, 38, 92
13, 25060, Note_on_c, 12, 38, 0
13, 25080, Note_on_c, 12, 50, 92
13, 25290, Note_on_c, 12, 50, 0
13, 25320, Note_on_c, 12, 50, 92
13, 25420, Note_on_c, 12, 50, 0
13, 25440, Note_on_c, 12, 50, 92
13, 25540, Note_on_c, 12, 50, 0
13, 25560, Note_on_c, 12, 50, 92
13, 25660, Note_on_c, 12, 50, 0
13, 25680, Note_on_c, 12, 50, 92
13, 25780, Note_on_c, 12, 50, 0
13, 25800, Note_on_c, 12, 50, 92
13, 25900, Note_on_c, 12, 50, 0
13, 25920, Note_on_c, 12, 50, 92
13, 26020, Note_on_c, 12, 50, 0
13, 26040, Note_on_c, 12, 50, 92
13, 26250, Note_on_c, 12, 50, 0
13, 26280, Note_on_c, 12, 50, 92
13, 26380, Note_on_c, 12, 50, 0
13, 26400, Note_on_c, 12, 50, 92
13, 26500, Note_on_c, 12, 50, 0
13, 26520, Note_on_c, 12, 50, 92
13, 26620, Note_on_c, 12, 50, 0
13, 26640, Note_on_c, 12, 50, 92
13, 26740, Note_on_c, 12, 50, 0
13, 26760, Note_on_c, 12, 50, 92
13, 26860, Note_on_c, 12, 50, 0
13, 26880, Note_on_c, 12, 50, 92
13, 26980, Note_on_c, 12, 50, 0
13, 30840, Note_on_c, 12, 55, 92
13, 31050, Note_on_c, 12, 55, 0
13, 31080, Note_on_c, 12, 54, 92
13, 31180, Note_on_c, 12, 54, 0
13, 31200, Note_on_c, 12, 55, 92
13, 31230, Note_on_c, 12, 55, 0
13, 31320, Note_on_c, 12, 54, 92
13, 31350, Note_on_c, 12, 54, 0
13, 31440, Note_on_c, 12, 55, 92
13, 31470, Note_on_c, 12, 55, 0
13, 31560, Note_on_c, 12, 51, 92
13, 31590, Note_on_c, 12, 51, 0
13, 31680, Note_on_c, 12, 52, 92
13, 31780, Note_on_c, 12, 52, 0
13, 31800, Note_on_c, 12, 52, 92
13, 32010, Note_on_c, 12, 52, 0
13, 32040, Note_on_c, 12, 51, 92
13, 32140, Note_on_c, 12, 51, 0
13, 32160, Note_on_c, 12, 52, 92
13, 32260, Note_on_c, 12, 52, 0
13, 32280, Note_on_c, 12, 51, 92
13, 32380, Note_on_c, 12, 51, 0
13, 32400, Note_on_c, 12, 52, 92
13, 32500, Note_on_c, 12, 52, 0
13, 32520, Note_on_c, 12, 47, 92
13, 32620, Note_on_c, 12, 47, 0
13, 32640, Note_on_c, 12, 48, 92
13, 32740, Note_on_c, 12, 48, 0
13, 32760, Note_on_c, 12, 48, 92
13, 32970, Note_on_c, 12, 48, 0
13, 33000, Note_on_c, 12, 47, 92
13, 33100, Note_on_c, 12, 47, 0
13, 33120, Note_on_c, 12, 48, 92
13, 33220, Note_on_c, 12, 48, 0
13, 33240, Note_on_c, 12, 47, 92
13, 33340, Note_on_c, 12, 47, 0
13, 33360, Note_on_c, 12, 48, 92
13, 33460, Note_on_c, 12, 48, 0
13, 33480, Note_on_c, 12, 50, 92
13, 33580, Note_on_c, 12, 50, 0
13, 33600, Note_on_c, 12, 48, 92
13, 33700, Note_on_c, 12, 48, 0
13, 33720, Note_on_c, 12, 44, 92
13, 33820, Note_on_c, 12, 44, 0
13, 33840, Note_on_c, 12, 45, 92
13, 33940, Note_on_c, 12, 45, 0
13, 33960, Note_on_c, 12, 43, 92
13, 34060, Note_on_c, 12, 43, 0
13, 34080, Note_on_c, 12, 42, 92
13, 34180, Note_on_c, 12, 42, 0
13, 34200, Note_on_c, 12, 38, 92
13, 34300, Note_on_c, 12, 38, 0
13, 34320, Note_on_c, 12, 40, 92
13, 34420, Note_on_c, 12, 40, 0
13, 34440, Note_on_c, 12, 42, 92
13, 34540, Note_on_c, 12, 42, 0
13, 34560, Note_on_c, 12, 43, 92
13, 34590, Note_on_c, 12, 43, 0
13, 34680, Note_on_c, 12, 47, 92
13, 34710, Note_on_c, 12, 47, 0
13, 34800, Note_on_c, 12, 50, 92
13, 35010, Note_on_c, 12, 50, 0
13, 35040, Note_on_c, 12, 40, 92
13, 35070, Note_on_c, 12, 40, 0
13, 35160, Note_on_c, 12, 43, 92
13, 35190, Note_on_c, 12, 43, 0
13, 35280, Note_on_c, 12, 47, 92
13, 35490, Note_on_c, 12, 47, 0
13, 35520, Note_on_c, 12, 36, 92
13, 35550, Note_on_c, 12, 36, 0
13, 35640, Note_on_c, 12, 40, 92
13, 35670, Note_on_c, 12, 40, 0
13, 35760, Note_on_c, 12, 38, 92
13, 35790, Note_on_c, 12, 38, 0
13, 35880, Note_on_c, 12, 42, 92
13, 35910, Note_on_c, 12, 42, 0
13, 36000, Note_on_c, 12, 43, 92
13, 36030, Note_on_c, 12, 43, 0
13, 36120, Note_on_c, 12, 47, 92
13, 36150, Note_on_c, 12, 47, 0
13, 36240, Note_on_c, 12, 50, 92
13, 36450, Note_on_c, 12, 50, 0
13, 36480, Note_on_c, 12, 40, 92
13, 36510, Note_on_c, 12, 40, 0
13, 36600, Note_on_c, 12, 43, 92
13, 36630, Note_on_c, 12, 43, 0
13, 36720, Note_on_c, 12, 47, 92
13, 36930, Note_on_c, 12, 47, 0
13, 36960, Note_on_c, 12, 36, 92
13, 37060, Note_on_c, 12, 36, 0
13, 37080, Note_on_c, 12, 40, 92
13, 37180, Note_on_c, 12, 40, 0
13, 37200, Note_on_c, 12, 38, 92
13, 37300, Note_on_c, 12, 38, 0
13, 37320, Note_on_c, 12, 38, 92
13, 37420, Note_on_c, 12, 38, 0
13, 37440, Note_on_c, 12, 43, 92
13, 37540, Note_on_c, 12, 43, 0
13, 37920, Note_on_c, 12, 43, 60
13, 38020, Note_on_c, 12, 43, 0
13, 38400, Note_on_c, 12, 43, 60
13, 38500, Note_on_c, 12, 43, 0
13, 38880, Note_on_c, 12, 43, 60
13, 38980, Note_on_c, 12, 43, 0
13, 39360, Note_on_c, 12, 43, 60
13, 39460, Note_on_c, 12, 43, 0
13, 39840, Note_on_c, 12, 43, 60
13, 39940, Note_on_c, 12, 43, 0
13, 40320, Note_on_c, 12, 38, 60
13, 41250, Note_on_c, 12, 38, 0
13, 41280, Note_on_c, 12, 43, 60
13, 41380, Note_on_c, 12, 43, 0
13, 41760, Note_on_c, 12, 43, 60
13, 41860, Note_on_c, 12, 43, 0
13, 42240, Note_on_c, 12, 43, 60
13, 42340, Note_on_c, 12, 43, 0
13, 42720, Note_on_c, 12, 43, 60
13, 42820, Note_on_c, 12, 43, 0
13, 43200, Note_on_c, 12, 43, 60
13, 43300, Note_on_c, 12, 43, 0
13, 43680, Note_on_c, 12, 43, 60
13, 43780, Note_on_c, 12, 43, 0
13, 44160, Note_on_c, 12, 38, 60
13, 45090, Note_on_c, 12, 38, 0
13, 45120, Note_on_c, 12, 43, 60
13, 45220, Note_on_c, 12, 43, 0
13, 45600, Note_on_c, 12, 43, 60
13, 45700, Note_on_c, 12, 43, 0
13, 45840, Note_on_c, 12, 43, 60
13, 45940, Note_on_c, 12, 43, 0
13, 45960, Note_on_c, 12, 43, 60
13, 46060, Note_on_c, 12, 43, 0
13, 46080, Note_on_c, 12, 43, 60
13, 46180, Note_on_c, 12, 43, 0
13, 46560, Note_on_c, 12, 43, 60
13, 46660, Note_on_c, 12, 43, 0
13, 46800, Note_on_c, 12, 43, 60
13, 46900, Note_on_c, 12, 43, 0
13, 46920, Note_on_c, 12, 43, 60
13, 47020, Note_on_c, 12, 43, 0
13, 47040, Note_on_c, 12, 43, 60
13, 47140, Note_on_c, 12, 43, 0
13, 47520, Note_on_c, 12, 43, 60
13, 47620, Note_on_c, 12, 43, 0
13, 47760, Note_on_c, 12, 43, 60
13, 47860, Note_on_c, 12, 43, 0
13, 47880, Note_on_c, 12, 43, 60
13, 47980, Note_on_c, 12, 43, 0
13, 48000, Note_on_c, 12, 52, 92
13, 48100, Note_on_c, 12, 52, 0
13, 48120, Note_on_c, 12, 52, 92
13, 48330, Note_on_c, 12, 52, 0
13, 48360, Note_on_c, 12, 52, 92
13, 48460, Note_on_c, 12, 52, 0
13, 48480, Note_on_c, 12, 52, 92
13, 48580, Note_on_c, 12, 52, 0
13, 48600, Note_on_c, 12, 52, 92
13, 48700, Note_on_c, 12, 52, 0
13, 48720, Note_on_c, 12, 52, 92
13, 48820, Note_on_c, 12, 52, 0
13, 48840, Note_on_c, 12, 52, 92
13, 48940, Note_on_c, 12, 52, 0
13, 48960, Note_on_c, 12, 52, 92
13, 49060, Note_on_c, 12, 52, 0
13, 49080, Note_on_c, 12, 52, 92
13, 49290, Note_on_c, 12, 52, 0
13, 49320, Note_on_c, 12, 52, 92
13, 49420, Note_on_c, 12, 52, 0
13, 49440, Note_on_c, 12, 52, 92
13, 49540, Note_on_c, 12, 52, 0
13, 49560, Note_on_c, 12, 52, 92
13, 49660, Note_on_c, 12, 52, 0
13, 49680, Note_on_c, 12, 52, 92
13, 49780, Note_on_c, 12, 52, 0
13, 49800, Note_on_c, 12, 52, 92
13, 49900, Note_on_c, 12, 52, 0
13, 49920, Note_on_c, 12, 52, 92
13, 50020, Note_on_c, 12, 52, 0
13, 53760, Note_on_c, 12, 45, 92
13, 53860, Note_on_c, 12, 45, 0
13, 53880, Note_on_c, 12, 45, 92
13, 54090, Note_on_c, 12, 45, 0
13, 54120, Note_on_c, 12, 45, 92
13, 54220, Note_on_c, 12, 45, 0
13, 54240, Note_on_c, 12, 45, 92
13, 54340, Note_on_c, 12, 45, 0
13, 54360, Note_on_c, 12, 45, 92
13, 54460, Note_on_c, 12, 45, 0
13, 54480, Note_on_c, 12, 45, 92
13, 54580, Note_on_c, 12, 45, 0
13, 54600, Note_on_c, 12, 45, 92
13, 54700, Note_on_c, 12, 45, 0
13, 54720, Note_on_c, 12, 45, 92
13, 54820, Note_on_c, 12, 45, 0
13, 55200, Note_on_c, 12, 45, 60
13, 55300, Note_on_c, 12, 45, 0
13, 55440, Note_on_c, 12, 45, 60
13, 55540, Note_on_c, 12, 45, 0
13, 55560, Note_on_c, 12, 45, 60
13, 55660, Note_on_c, 12, 45, 0
13, 55680, Note_on_c, 12, 45, 60
13, 55780, Note_on_c, 12, 45, 0
13, 56160, Note_on_c, 12, 45, 60
13, 56260, Note_on_c, 12, 45, 0
13, 56400, Note_on_c, 12, 45, 60
13, 56500, Note_on_c, 12, 45, 0
13, 56520, Note_on_c, 12, 45, 60
13, 56620, Note_on_c, 12, 45, 0
13, 56640, Note_on_c, 12, 45, 60
13, 56740, Note_on_c, 12, 45, 0
13, 57120, Note_on_c, 12, 45, 60
13, 57220, Note_on_c, 12, 45, 0
13, 57360, Note_on_c, 12, 45, 60
13, 57460, Note_on_c, 12, 45, 0
13, 57480, Note_on_c, 12, 45, 60
13, 57580, Note_on_c, 12, 45, 0
13, 57600, Note_on_c, 12, 50, 92
13, 57700, Note_on_c, 12, 50, 0
13, 57720, Note_on_c, 12, 50, 92
13, 57930, Note_on_c, 12, 50, 0
13, 57960, Note_on_c, 12, 50, 92
13, 58060, Note_on_c, 12, 50, 0
13, 58080, Note_on_c, 12, 50, 92
13, 58180, Note_on_c, 12, 50, 0
13, 58200, Note_on_c, 12, 50, 92
13, 58300, Note_on_c, 12, 50, 0
13, 58320, Note_on_c, 12, 50, 92
13, 58420, Note_on_c, 12, 50, 0
13, 58440, Note_on_c, 12, 50, 92
13, 58540, Note_on_c, 12, 50, 0
13, 58560, Note_on_c, 12, 50, 92
13, 58660, Note_on_c, 12, 50, 0
13, 62400, Note_on_c, 12, 43, 92
13, 62500, Note_on_c, 12, 43, 0
13, 62520, Note_on_c, 12, 43, 92
13, 62730, Note_on_c, 12, 43, 0
13, 62760, Note_on_c, 12, 43, 92
13, 62860, Note_on_c, 12, 43, 0
13, 62880, Note_on_c, 12, 43, 92
13, 62980, Note_on_c, 12, 43, 0
13, 63000, Note_on_c, 12, 43, 92
13, 63100, Note_on_c, 12, 43, 0
13, 63120, Note_on_c, 12, 43, 92
13, 63220, Note_on_c, 12, 43, 0
13, 63240, Note_on_c, 12, 43, 92
13, 63340, Note_on_c, 12, 43, 0
13, 63360, Note_on_c, 12, 43, 92
13, 63460, Note_on_c, 12, 43, 0
13, 63840, Note_on_c, 12, 43, 60
13, 63940, Note_on_c, 12, 43, 0
13, 64080, Note_on_c, 12, 43, 60
13, 64180, Note_on_c, 12, 43, 0
13, 64200, Note_on_c, 12, 43, 60
13, 64300, Note_on_c, 12, 43, 0
13, 64320, Note_on_c, 12, 43, 60
13, 64420, Note_on_c, 12, 43, 0
13, 64800, Note_on_c, 12, 43, 60
13, 64900, Note_on_c, 12, 43, 0
13, 65040, Note_on_c, 12, 43, 60
13, 65140, Note_on_c, 12, 43, 0
13, 65160, Note_on_c, 12, 43, 60
13, 65260, Note_on_c, 12, 43, 0
13, 65280, Note_on_c, 12, 43, 60
13, 65380, Note_on_c, 12, 43, 0
13, 65760, Note_on_c, 12, 43, 60
13, 65860, Note_on_c, 12, 43, 0
13, 66000, Note_on_c, 12, 43, 60
13, 66100, Note_on_c, 12, 43, 0
13, 66120, Note_on_c, 12, 43, 60
13, 66220, Note_on_c, 12, 43, 0
13, 66240, Note_on_c, 12, 48, 92
13, 66340, Note_on_c, 12, 48, 0
13, 66360, Note_on_c, 12, 48, 92
13, 66570, Note_on_c, 12, 48, 0
13, 66600, Note_on_c, 12, 48, 92
13, 66700, Note_on_c, 12, 48, 0
13, 66720, Note_on_c, 12, 48, 92
13, 66820, Note_on_c, 12, 48, 0
13, 66840, Note_on_c, 12, 48, 92
13, 66940, Note_on_c, 12, 48, 0
13, 66960, Note_on_c, 12, 48, 92
13, 67060, Note_on_c, 12, 48, 0
13, 67080, Note_on_c, 12, 48, 92
13, 67180, Note_on_c, 12, 48, 0
13, 67200, Note_on_c, 12, 48, 92
13, 67300, Note_on_c, 12, 48, 0
13, 71040, Note_on_c, 12, 41, 60
13, 71140, Note_on_c, 12, 41, 0
13, 71520, Note_on_c, 12, 41, 60
13, 71620, Note_on_c, 12, 41, 0
13, 72000, Note_on_c, 12, 41, 60
13, 72100, Note_on_c, 12, 41, 0
13, 72480, Note_on_c, 12, 41, 60
13, 72580, Note_on_c, 12, 41, 0
13, 72960, Note_on_c, 12, 41, 60
13, 73060, Note_on_c, 12, 41, 0
13, 73440, Note_on_c, 12, 41, 60
13, 73540, Note_on_c, 12, 41, 0
13, 73920, Note_on_c, 12, 36, 60
13, 74850, Note_on_c, 12, 36, 0
13, 74880, Note_on_c, 12, 41, 60
13, 74980, Note_on_c, 12, 41, 0
13, 75360, Note_on_c, 12, 41, 60
13, 75460, Note_on_c, 12, 41, 0
13, 75840, Note_on_c, 12, 41, 60
13, 75940, Note_on_c, 12, 41, 0
13, 76320, Note_on_c, 12, 41, 60
13, 76420, Note_on_c, 12, 41, 0
13, 76800, Note_on_c, 12, 41, 60
13, 76900, Note_on_c, 12, 41, 0
13, 77280, Note_on_c, 12, 41, 60
13, 77380, Note_on_c, 12, 41, 0
13, 77760, Note_on_c, 12, 36, 60
13, 78690, Note_on_c, 12, 36, 0
13, 78720, Note_on_c, 12, 41, 60
13, 78820, Note_on_c, 12, 41, 0
13, 78840, Note_on_c, 12, 53, 92
13, 79050, Note_on_c, 12, 53, 0
13, 79080, Note_on_c, 12, 52, 92
13, 79180, Note_on_c, 12, 52, 0
13, 79200, Note_on_c, 12, 53, 92
13, 79300, Note_on_c, 12, 53, 0
13, 79320, Note_on_c, 12, 52, 92
13, 79420, Note_on_c, 12, 52, 0
13, 79440, Note_on_c, 12, 53, 92
13, 79540, Note_on_c, 12, 53, 0
13, 79560, Note_on_c, 12, 49, 92
13, 79660, Note_on_c, 12, 49, 0
13, 79680, Note_on_c, 12, 50, 92
13, 79780, Note_on_c, 12, 50, 0
13, 79800, Note_on_c, 12, 50, 92
13, 80010, Note_on_c, 12, 50, 0
13, 80040, Note_on_c, 12, 49, 92
13, 80140, Note_on_c, 12, 49, 0
13, 80160, Note_on_c, 12, 50, 92
13, 80260, Note_on_c, 12, 50, 0
13, 80280, Note_on_c, 12, 49, 92
13, 80380, Note_on_c, 12, 49, 0
13, 80400, Note_on_c, 12, 50, 92
13, 80500, Note_on_c, 12, 50, 0
13, 80520, Note_on_c, 12, 47, 92
13, 80620, Note_on_c, 12, 47, 0
13, 80640, Note_on_c, 12, 48, 92
13, 80740, Note_on_c, 12, 48, 0
13, 80760, Note_on_c, 12, 48, 92
13, 80970, Note_on_c, 12, 48, 0
13, 81000, Note_on_c, 12, 47, 92
13, 81100, Note_on_c, 12, 47, 0
13, 81120, Note_on_c, 12, 48, 92
13, 81150, Note_on_c, 12, 48, 0
13, 81240, Note_on_c, 12, 47, 92
13, 81270, Note_on_c, 12, 47, 0
13, 81360, Note_on_c, 12, 48, 92
13, 81390, Note_on_c, 12, 48, 0
13, 81480, Note_on_c, 12, 43, 92
13, 81510, Note_on_c, 12, 43, 0
13, 81600, Note_on_c, 12, 44, 92
13, 81630, Note_on_c, 12, 44, 0
13, 81720, Note_on_c, 12, 43, 92
13, 81750, Note_on_c, 12, 43, 0
13, 81840, Note_on_c, 12, 44, 92
13, 81870, Note_on_c, 12, 44, 0
13, 81960, Note_on_c, 12, 40, 92
13, 81990, Note_on_c, 12, 40, 0
13, 82080, Note_on_c, 12, 41, 92
13, 82110, Note_on_c, 12, 41, 0
13, 82200, Note_on_c, 12, 40, 92
13, 82230, Note_on_c, 12, 40, 0
13, 82320, Note_on_c, 12, 41, 92
13, 82350, Note_on_c, 12, 41, 0
13, 82440, Note_on_c, 12, 36, 92
13, 82470, Note_on_c, 12, 36, 0
13, 82560, Note_on_c, 12, 44, 92
13, 82590, Note_on_c, 12, 44, 0
13, 82680, Note_on_c, 12, 43, 92
13, 82710, Note_on_c, 12, 43, 0
13, 82800, Note_on_c, 12, 41, 92
13, 82830, Note_on_c, 12, 41, 0
13, 82920, Note_on_c, 12, 40, 92
13, 82950, Note_on_c, 12, 40, 0
13, 83040, Note_on_c, 12, 44, 92
13, 83070, Note_on_c, 12, 44, 0
13, 83160, Note_on_c, 12, 43, 92
13, 83190, Note_on_c, 12, 43, 0
13, 83280, Note_on_c, 12, 41, 92
13, 83310, Note_on_c, 12, 41, 0
13, 83400, Note_on_c, 12, 42, 92
13, 83430, Note_on_c, 12, 42, 0
13, 83520, Note_on_c, 12, 43, 92
13, 83620, Note_on_c, 12, 43, 0
13, 84000, Note_on_c, 12, 43, 60
13, 84100, Note_on_c, 12, 43, 0
13, 84480, Note_on_c, 12, 43, 60
13, 84580, Note_on_c, 12, 43, 0
13, 84960, Note_on_c, 12, 43, 60
13, 85060, Note_on_c, 12, 43, 0
13, 85440, Note_on_c, 12, 43, 60
13, 85540, Note_on_c, 12, 43, 0
13, 85920, Note_on_c, 12, 43, 60
13, 86020, Note_on_c, 12, 43, 0
13, 86400, Note_on_c, 12, 43, 60
13, 86500, Note_on_c, 12, 43, 0
13, 86880, Note_on_c, 12, 43, 60
13, 86980, Note_on_c, 12, 43, 0
13, 87360, Note_on_c, 12, 43, 60
13, 87460, Note_on_c, 12, 43, 0
13, 87840, Note_on_c, 12, 43, 60
13, 87940, Note_on_c, 12, 43, 0
13, 88080, Note_on_c, 12, 43, 60
13, 88180, Note_on_c, 12, 43, 0
13, 88200, Note_on_c, 12, 43, 60
13, 88300, Note_on_c, 12, 43, 0
13, 88320, Note_on_c, 12, 43, 60
13, 88420, Note_on_c, 12, 43, 0
13, 88800, Note_on_c, 12, 43, 60
13, 88900, Note_on_c, 12, 43, 0
13, 89040, Note_on_c, 12, 43, 60
13, 89140, Note_on_c, 12, 43, 0
13, 89160, Note_on_c, 12, 43, 60
13, 89260, Note_on_c, 12, 43, 0
13, 89280, Note_on_c, 12, 43, 60
13, 89380, Note_on_c, 12, 43, 0
13, 89760, Note_on_c, 12, 43, 60
13, 89860, Note_on_c, 12, 43, 0
13, 90000, Note_on_c, 12, 43, 60
13, 90100, Note_on_c, 12, 43, 0
13, 90120, Note_on_c, 12, 43, 60
13, 90220, Note_on_c, 12, 43, 0
13, 90240, Note_on_c, 12, 48, 60
13, 90340, Note_on_c, 12, 48, 0
13, 90360, Note_on_c, 12, 48, 92
13, 90570, Note_on_c, 12, 48, 0
13, 90600, Note_on_c, 12, 48, 92
13, 90700, Note_on_c, 12, 48, 0
13, 90720, Note_on_c, 12, 48, 92
13, 90820, Note_on_c, 12, 48, 0
13, 90840, Note_on_c, 12, 48, 92
13, 90940, Note_on_c, 12, 48, 0
13, 90960, Note_on_c, 12, 48, 92
13, 91060, Note_on_c, 12, 48, 0
13, 91080, Note_on_c, 12, 48, 92
13, 91180, Note_on_c, 12, 48, 0
13, 91200, Note_on_c, 12, 48, 92
13, 91300, Note_on_c, 12, 48, 0
13, 91320, Note_on_c, 12, 48, 92
13, 91530, Note_on_c, 12, 48, 0
13, 91560, Note_on_c, 12, 48, 92
13, 91660, Note_on_c, 12, 48, 0
13, 91680, Note_on_c, 12, 48, 92
13, 91780, Note_on_c, 12, 48, 0
13, 91800, Note_on_c, 12, 48, 92
13, 91900, Note_on_c, 12, 48, 0
13, 91920, Note_on_c, 12, 48, 92
13, 92020, Note_on_c, 12, 48, 0
13, 92040, Note_on_c, 12, 48, 92
13, 92140, Note_on_c, 12, 48, 0
13, 92160, Note_on_c, 12, 48, 92
13, 92260, Note_on_c, 12, 48, 0
13, 92640, Note_on_c, 12, 36, 60
13, 92740, Note_on_c, 12, 36, 0
13, 93120, Note_on_c, 12, 36, 60
13, 93220, Note_on_c, 12, 36, 0
13, 93600, Note_on_c, 12, 36, 60
13, 93700, Note_on_c, 12, 36, 0
13, 94080, Note_on_c, 12, 36, 60
13, 94180, Note_on_c, 12, 36, 0
13, 94560, Note_on_c, 12, 36, 60
13, 94660, Note_on_c, 12, 36, 0
13, 95040, Note_on_c, 12, 31, 60
13, 95970, Note_on_c, 12, 31, 0
13, 96000, Note_on_c, 12, 36, 60
13, 96100, Note_on_c, 12, 36, 0
13, 96480, Note_on_c, 12, 36, 60
13, 96580, Note_on_c, 12, 36, 0
13, 96960, Note_on_c, 12, 36, 60
13, 97060, Note_on_c, 12, 36, 0
13, 97440, Note_on_c, 12, 36, 60
13, 97540, Note_on_c, 12, 36, 0
13, 97920, Note_on_c, 12, 36, 60
13, 98020, Note_on_c, 12, 36, 0
13, 98400, Note_on_c, 12, 36, 60
13, 98500, Note_on_c, 12, 36, 0
13, 98880, Note_on_c, 12, 31, 60
13, 99810, Note_on_c, 12, 31, 0
13, 99840, Note_on_c, 12, 36, 60
13, 99940, Note_on_c, 12, 36, 0
13, 99960, Note_on_c, 12, 48, 92
13, 100170, Note_on_c, 12, 48, 0
13, 100200, Note_on_c, 12, 47, 92
13, 100300, Note_on_c, 12, 47, 0
13, 100320, Note_on_c, 12, 48, 92
13, 100420, Note_on_c, 12, 48, 0
13, 100440, Note_on_c, 12, 47, 92
13, 100540, Note_on_c, 12, 47, 0
13, 100560, Note_on_c, 12, 48, 92
13, 100660, Note_on_c, 12, 48, 0
13, 100680, Note_on_c, 12, 44, 92
13, 100780, Note_on_c, 12, 44, 0
13, 100800, Note_on_c, 12, 45, 92
13, 100900, Note_on_c, 12, 45, 0
13, 100920, Note_on_c, 12, 45, 92
13, 101130, Note_on_c, 12, 45, 0
13, 101160, Note_on_c, 12, 44, 92
13, 101260, Note_on_c, 12, 44, 0
13, 101280, Note_on_c, 12, 45, 92
13, 101380, Note_on_c, 12, 45, 0
13, 101400, Note_on_c, 12, 44, 92
13, 101500, Note_on_c, 12, 44, 0
13, 101520, Note_on_c, 12, 45, 92
13, 101620, Note_on_c, 12, 45, 0
13, 101640, Note_on_c, 12, 40, 92
13, 101740, Note_on_c, 12, 40, 0
13, 101760, Note_on_c, 12, 41, 92
13, 101860, Note_on_c, 12, 41, 0
13, 101880, Note_on_c, 12, 41, 92
13, 102090, Note_on_c, 12, 41, 0
13, 102120, Note_on_c, 12, 40, 92
13, 102220, Note_on_c, 12, 40, 0
13, 102240, Note_on_c, 12, 41, 92
13, 102340, Note_on_c, 12, 41, 0
13, 102360, Note_on_c, 12, 40, 92
13, 102460, Note_on_c, 12, 40, 0
13, 102480, Note_on_c, 12, 41, 92
13, 102580, Note_on_c, 12, 41, 0
13, 102600, Note_on_c, 12, 43, 92
13, 102700, Note_on_c, 12, 43, 0
13, 102720, Note_on_c, 12, 41, 92
13, 102820, Note_on_c, 12, 41, 0
13, 102840, Note_on_c, 12, 40, 92
13, 102940, Note_on_c, 12, 40, 0
13, 102960, Note_on_c, 12, 41, 92
13, 103060, Note_on_c, 12, 41, 0
13, 103080, Note_on_c, 12, 49, 92
13, 103180, Note_on_c, 12, 49, 0
13, 103200, Note_on_c, 12, 50, 92
13, 103300, Note_on_c, 12, 50, 0
13, 103320, Note_on_c, 12, 48, 92
13, 103420, Note_on_c, 12, 48, 0
13, 103440, Note_on_c, 12, 47, 92
13, 103540, Note_on_c, 12, 47, 0
13, 103560, Note_on_c, 12, 43, 92
13, 103660, Note_on_c, 12, 43, 0
13, 103680, Note_on_c, 12, 48, 92
13, 103780, Note_on_c, 12, 48, 0
13, 103800, Note_on_c, 12, 52, 92
13, 103900, Note_on_c, 12, 52, 0
13, 103920, Note_on_c, 12, 45, 92
13, 104020, Note_on_c, 12, 45, 0
13, 104040, Note_on_c, 12, 48, 92
13, 104140, Note_on_c, 12, 48, 0
13, 104160, Note_on_c, 12, 41, 92
13, 104260, Note_on_c, 12, 41, 0
13, 104280, Note_on_c, 12, 45, 92
13, 104380, Note_on_c, 12, 45, 0
13, 104400, Note_on_c, 12, 43, 92
13, 104500, Note_on_c, 12, 43, 0
13, 104520, Note_on_c, 12, 31, 92
13, 104620, Note_on_c, 12, 31, 0
13, 104640, Note_on_c, 12, 36, 92
13, 104740, Note_on_c, 12, 36, 0
13, 104760, Note_on_c, 12, 48, 92
13, 104970, Note_on_c, 12, 48, 0
13, 105000, Note_on_c, 12, 47, 92
13, 105100, Note_on_c, 12, 47, 0
13, 105120, Note_on_c, 12, 48, 92
13, 105220, Note_on_c, 12, 48, 0
13, 105240, Note_on_c, 12, 47, 92
13, 105340, Note_on_c, 12, 47, 0
13, 105360, Note_on_c, 12, 48, 92
13, 105460, Note_on_c, 12, 48, 0
13, 105480, Note_on_c, 12, 44, 92
13, 105580, Note_on_c, 12, 44, 0
13, 105600, Note_on_c, 12, 45, 92
13, 105700, Note_on_c, 12, 45, 0
13, 105720, Note_on_c, 12, 45, 92
13, 105930, Note_on_c, 12, 45, 0
13, 105960, Note_on_c, 12, 44, 92
13, 106060, Note_on_c, 12, 44, 0
13, 106080, Note_on_c, 12, 45, 92
13, 106180, Note_on_c, 12, 45, 0
13, 106200, Note_on_c, 12, 44, 92
13, 106300, Note_on_c, 12, 44, 0
13, 106320, Note_on_c, 12, 45, 92
13, 106420, Note_on_c, 12, 45, 0
13, 106440, Note_on_c, 12, 40, 92
13, 106540, Note_on_c, 12, 40, 0
13, 106560, Note_on_c, 12, 41, 92
13, 106660, Note_on_c, 12, 41, 0
13, 106680, Note_on_c, 12, 41, 92
13, 106890, Note_on_c, 12, 41, 0
13, 106920, Note_on_c, 12, 40, 92
13, 107020, Note_on_c, 12, 40, 0
13, 107040, Note_on_c, 12, 41, 92
13, 107140, Note_on_c, 12, 41, 0
13, 107160, Note_on_c, 12, 40, 92
13, 107260, Note_on_c, 12, 40, 0
13, 107280, Note_on_c, 12, 41, 92
13, 107380, Note_on_c, 12, 41, 0
13, 107400, Note_on_c, 12, 43, 92
13, 107500, Note_on_c, 12, 43, 0
13, 107520, Note_on_c, 12, 41, 92
13, 107620, Note_on_c, 12, 41, 0
13, 107640, Note_on_c, 12, 40, 92
13, 107740, Note_on_c, 12, 40, 0
13, 107760, Note_on_c, 12, 41, 92
13, 107860, Note_on_c, 12, 41, 0
13, 107880, Note_on_c, 12, 49, 92
13, 107980, Note_on_c, 12, 49, 0
13, 108000, Note_on_c, 12, 50, 92
13, 108100, Note_on_c, 12, 50, 0
13, 108120, Note_on_c, 12, 48, 92
13, 108220, Note_on_c, 12, 48, 0
13, 108240, Note_on_c, 12, 47, 92
13, 108340, Note_on_c, 12, 47, 0
13, 108360, Note_on_c, 12, 43, 92
13, 108460, Note_on_c, 12, 43, 0
13, 108480, Note_on_c, 12, 48, 92
13, 108580, Note_on_c, 12, 48, 0
13, 108960, Note_on_c, 12, 48, 60
13, 109060, Note_on_c, 12, 48, 0
13, 109440, Note_on_c, 12, 45, 60
13, 109540, Note_on_c, 12, 45, 0
13, 109920, Note_on_c, 12, 41, 60
13, 110020, Note_on_c, 12, 41, 0
13, 110400, Note_on_c, 12, 43, 60
13, 111330, Note_on_c, 12, 43, 0
13, 111360, Note_on_c, 12, 45, 60
13, 111940, Note_on_c, 12, 45, 0
13, 112800, Note_on_c, 12, 48, 92
13, 112900, Note_on_c, 12, 48, 0
13, 113280, Note_on_c, 12, 45, 92
13, 113380, Note_on_c, 12, 45, 0
13, 113760, Note_on_c, 12, 41, 92
13, 113860, Note_on_c, 12, 41, 0
13, 114240, Note_on_c, 12, 43, 92
13, 114340, Note_on_c, 12, 43, 0
13, 114720, Note_on_c, 12, 31, 92
13, 114820, Note_on_c, 12, 31, 0
13, 115200, Note_on_c, 12, 36, 60
13, 115300, Note_on_c, 12, 36, 0
13, 115680, Note_on_c, 12, 36, 60
13, 115780, Note_on_c, 12, 36, 0
13, 115920, Note_on_c, 12, 36, 60
13, 116020, Note_on_c, 12, 36, 0
13, 116040, Note_on_c, 12, 36, 60
13, 116140, Note_on_c, 12, 36, 0
13, 116160, Note_on_c, 12, 36, 60
13, 116260, Note_on_c, 12, 36, 0
13, 116640, Note_on_c, 12, 36, 60
13, 116740, Note_on_c, 12, 36, 0
13, 116880, Note_on_c, 12, 36, 60
13, 116980, Note_on_c, 12, 36, 0
13, 117000, Note_on_c, 12, 36, 60
13, 117100, Note_on_c, 12, 36, 0
13, 117120, Note_on_c, 12, 36, 60
13, 117220, Note_on_c, 12, 36, 0
13, 117600, Note_on_c, 12, 36, 60
13, 117700, Note_on_c, 12, 36, 0
13, 117840, Note_on_c, 12, 36, 60
13, 117940, Note_on_c, 12, 36, 0
13, 117960, Note_on_c, 12, 36, 60
13, 118060, Note_on_c, 12, 36, 0
13, 118080, Note_on_c, 12, 36, 60
13, 118180, Note_on_c, 12, 36, 0
13, 118560, Note_on_c, 12, 36, 60
13, 118660, Note_on_c, 12, 36, 0
13, 118800, Note_on_c, 12, 36, 64
13, 118900, Note_on_c, 12, 36, 0
13, 118920, Note_on_c, 12, 36, 66
13, 119020, Note_on_c, 12, 36, 0
13, 119040, Note_on_c, 12, 36, 68
13, 119140, Note_on_c, 12, 36, 0
13, 119520, Note_on_c, 12, 36, 80
13, 119620, Note_on_c, 12, 36, 0
13, 119760, Note_on_c, 12, 36, 86
13, 119860, Note_on_c, 12, 36, 0
13, 119880, Note_on_c, 12, 36, 89
13, 119980, Note_on_c, 12, 36, 0
13, 120000, Note_on_c, 12, 36, 92
13, 120100, Note_on_c, 12, 36, 0
13, 120480, Note_on_c, 12, 36, 92
13, 120580, Note_on_c, 12, 36, 0
13, 120720, Note_on_c, 12, 36, 92
13, 120820, Note_on_c, 12, 36, 0
13, 120840, Note_on_c, 12, 36, 92
13, 120940, Note_on_c, 12, 36, 0
13, 120960, Note_on_c, 12, 48, 108
13, 121060, Note_on_c, 12, 48, 0
13, 121080, Note_on_c, 12, 48, 108
13, 121290, Note_on_c, 12, 48, 0
13, 121320, Note_on_c, 12, 48, 108
13, 121420, Note_on_c, 12, 48, 0
13, 121440, Note_on_c, 12, 48, 108
13, 121540, Note_on_c, 12, 48, 0
13, 121560, Note_on_c, 12, 48, 108
13, 121660, Note_on_c, 12, 48, 0
13, 121680, Note_on_c, 12, 48, 108
13, 121780, Note_on_c, 12, 48, 0
13, 121800, Note_on_c, 12, 43, 108
13, 121900, Note_on_c, 12, 43, 0
13, 121920, Note_on_c, 12, 48, 108
13, 122020, Note_on_c, 12, 48, 0
13, 122040, Note_on_c, 12, 48, 108
13, 122250, Note_on_c, 12, 48, 0
13, 122280, Note_on_c, 12, 48, 108
13, 122380, Note_on_c, 12, 48, 0
13, 122400, Note_on_c, 12, 48, 108
13, 122500, Note_on_c, 12, 48, 0
13, 122520, Note_on_c, 12, 48, 108
13, 122620, Note_on_c, 12, 48, 0
13, 122640, Note_on_c, 12, 48, 108
13, 122740, Note_on_c, 12, 48, 0
13, 122760, Note_on_c, 12, 43, 108
13, 122860, Note_on_c, 12, 43, 0
13, 122880, Note_on_c, 12, 48, 108
13, 122980, Note_on_c, 12, 48, 0
13, 123000, Note_on_c, 12, 43, 108
13, 123100, Note_on_c, 12, 43, 0
13, 123120, Note_on_c, 12, 48, 108
13, 123220, Note_on_c, 12, 48, 0
13, 123240, Note_on_c, 12, 43, 108
13, 123340, Note_on_c, 12, 43, 0
13, 123360, Note_on_c, 12, 48, 108
13, 123460, Note_on_c, 12, 48, 0
13, 123480, Note_on_c, 12, 43, 108
13, 123580, Note_on_c, 12, 43, 0
13, 123600, Note_on_c, 12, 48, 108
13, 123700, Note_on_c, 12, 48, 0
13, 123720, Note_on_c, 12, 43, 108
13, 123820, Note_on_c, 12, 43, 0
13, 123840, Note_on_c, 12, 48, 108
13, 123940, Note_on_c, 12, 48, 0
13, 124320, Note_on_c, 12, 36, 108
13, 124420, Note_on_c, 12, 36, 0
13, 124560, Note_on_c, 12, 48, 108
13, 124660, Note_on_c, 12, 48, 0
13, 124800, Note_on_c, 12, 36, 108
13, 125010, Note_on_c, 12, 36, 0
13, 125010, End_track
0, 0, End_of_file
