0, 0, Header, 1, 13, 480
1, 0, Start_track
1, 0, Time_signature, 4, 2, 24, 8
1, 0, Key_signature, 0, "major"
1, 0, Tempo, 400000
1, 0, End_track
2, 0, Start_track
2, 0, MIDI_port, 0
2, 0, Title_t, "Track 1"
2, 0, Program_c, 0, 56
2, 0, Control_c, 0, 7, 100
2, 0, Control_c, 0, 10, 50
2, 2, Control_c, 0, 91, 127
2, 40, Note_on_c, 0, 86, 80
2, 40, Note_on_c, 0, 77, 80
2, 960, Note_on_c, 0, 81, 80
2, 960, Note_on_c, 0, 77, 80
2, 1000, Note_on_c, 0, 77, 0
2, 1000, Note_on_c, 0, 86, 0
2, 1920, Note_on_c, 0, 81, 0
2, 1920, Note_on_c, 0, 77, 0
2, 1920, Note_on_c, 0, 88, 80
2, 1920, Note_on_c, 0, 79, 80
2, 3840, Note_on_c, 0, 79, 0
2, 3840, Note_on_c, 0, 88, 0
2, 3840, Note_on_c, 0, 88, 80
2, 3840, Note_on_c, 0, 79, 80
2, 4800, Note_on_c, 0, 79, 0
2, 4800, Note_on_c, 0, 88, 0
2, 4800, Note_on_c, 0, 81, 80
2, 4800, Note_on_c, 0, 79, 80
2, 5760, Note_on_c, 0, 79, 0
2, 5760, Note_on_c, 0, 81, 0
2, 5760, Note_on_c, 0, 86, 80
2, 5760, Note_on_c, 0, 74, 80
2, 7200, Note_on_c, 0, 74, 0
2, 7200, Note_on_c, 0, 86, 0
2, 7200, Note_on_c, 0, 86, 80
2, 7200, Note_on_c, 0, 77, 80
2, 7680, Note_on_c, 0, 77, 0
2, 7680, Note_on_c, 0, 86, 0
2, 7680, Note_on_c, 0, 81, 80
2, 7680, Note_on_c, 0, 76, 80
2, 8160, Note_on_c, 0, 76, 0
2, 8160, Note_on_c, 0, 81, 0
2, 8160, Note_on_c, 0, 81, 80
2, 8160, Note_on_c, 0, 76, 80
2, 8640, Note_on_c, 0, 76, 0
2, 8640, Note_on_c, 0, 81, 0
2, 9120, Note_on_c, 0, 81, 80
2, 9120, Note_on_c, 0, 72, 80
2, 9600, Note_on_c, 0, 72, 0
2, 9600, Note_on_c, 0, 81, 0
2, 9600, Note_on_c, 0, 81, 80
2, 9600, Note_on_c, 0, 69, 80
2, 10080, Note_on_c, 0, 69, 0
2, 10080, Note_on_c, 0, 81, 0
2, 10080, Note_on_c, 0, 81, 80
2, 10080, Note_on_c, 0, 69, 80
2, 10560, Note_on_c, 0, 69, 0
2, 10560, Note_on_c, 0, 81, 0
2, 10560, Note_on_c, 0, 81, 80
2, 11040, Note_on_c, 0, 77, 80
2, 11520, Note_on_c, 0, 77, 0
2, 11520, Note_on_c, 0, 81, 0
2, 11520, Note_on_c, 0, 74, 80
2, 12000, Note_on_c, 0, 74, 0
2, 12000, Note_on_c, 0, 89, 80
2, 12000, Note_on_c, 0, 81, 80
2, 12480, Note_on_c, 0, 81, 0
2, 12480, Note_on_c, 0, 89, 0
2, 12480, Note_on_c, 0, 88, 80
2, 12480, Note_on_c, 0, 79, 80
2, 12960, Note_on_c, 0, 79, 0
2, 12960, Note_on_c, 0, 88, 0
2, 12960, Note_on_c, 0, 86, 80
2, 12960, Note_on_c, 0, 81, 80
2, 13440, Note_on_c, 0, 81, 0
2, 13440, Note_on_c, 0, 86, 0
2, 13440, Note_on_c, 0, 86, 80
2, 13440, Note_on_c, 0, 81, 80
2, 13920, Note_on_c, 0, 81, 0
2, 13920, Note_on_c, 0, 86, 0
2, 13920, Note_on_c, 0, 85, 80
2, 13920, Note_on_c, 0, 81, 80
2, 14400, Note_on_c, 0, 81, 0
2, 14400, Note_on_c, 0, 85, 0
2, 16320, Note_on_c, 0, 84, 80
2, 16320, Note_on_c, 0, 72, 80
2, 16560, Note_on_c, 0, 72, 0
2, 16560, Note_on_c, 0, 84, 0
2, 16560, Note_on_c, 0, 85, 80
2, 16560, Note_on_c, 0, 77, 80
2, 16800, Note_on_c, 0, 85, 0
2, 16800, Note_on_c, 0, 86, 80
2, 17040, Note_on_c, 0, 86, 0
2, 17040, Note_on_c, 0, 77, 0
2, 17040, Note_on_c, 0, 88, 80
2, 17040, Note_on_c, 0, 82, 80
2, 17280, Note_on_c, 0, 82, 0
2, 17280, Note_on_c, 0, 88, 0
2, 17280, Note_on_c, 0, 81, 80
2, 17280, Note_on_c, 0, 89, 80
2, 18720, Note_on_c, 0, 89, 0
2, 18720, Note_on_c, 0, 84, 80
2, 19200, Note_on_c, 0, 84, 0
2, 19200, Note_on_c, 0, 81, 0
2, 19200, Note_on_c, 0, 77, 80
2, 19200, Note_on_c, 0, 81, 80
2, 19680, Note_on_c, 0, 81, 0
2, 19680, Note_on_c, 0, 77, 0
2, 19680, Note_on_c, 0, 72, 80
2, 19680, Note_on_c, 0, 77, 80
2, 20160, Note_on_c, 0, 77, 0
2, 20160, Note_on_c, 0, 72, 0
2, 20160, Note_on_c, 0, 77, 80
2, 20160, Note_on_c, 0, 81, 80
2, 20640, Note_on_c, 0, 81, 0
2, 20640, Note_on_c, 0, 77, 0
2, 20640, Note_on_c, 0, 81, 80
2, 20640, Note_on_c, 0, 84, 80
2, 21120, Note_on_c, 0, 84, 0
2, 21120, Note_on_c, 0, 81, 0
2, 21120, Note_on_c, 0, 87, 80
2, 21120, Note_on_c, 0, 84, 80
2, 22080, Note_on_c, 0, 84, 0
2, 22080, Note_on_c, 0, 87, 0
2, 22080, Note_on_c, 0, 86, 80
2, 22080, Note_on_c, 0, 81, 80
2, 23040, Note_on_c, 0, 81, 0
2, 23040, Note_on_c, 0, 86, 0
2, 23040, Note_on_c, 0, 79, 80
2, 23040, Note_on_c, 0, 79, 80
2, 24480, Note_on_c, 0, 86, 80
2, 24960, Note_on_c, 0, 86, 0
2, 24960, Note_on_c, 0, 79, 0
2, 24960, Note_on_c, 0, 83, 80
2, 25440, Note_on_c, 0, 83, 0
2, 25440, Note_on_c, 0, 79, 0
2, 25440, Note_on_c, 0, 79, 80
2, 25440, Note_on_c, 0, 74, 80
2, 25920, Note_on_c, 0, 74, 0
2, 25920, Note_on_c, 0, 79, 0
2, 25920, Note_on_c, 0, 83, 80
2, 25920, Note_on_c, 0, 79, 80
2, 26400, Note_on_c, 0, 79, 0
2, 26400, Note_on_c, 0, 83, 0
2, 26400, Note_on_c, 0, 86, 80
2, 26400, Note_on_c, 0, 83, 80
2, 26880, Note_on_c, 0, 83, 0
2, 26880, Note_on_c, 0, 86, 0
2, 26880, Note_on_c, 0, 89, 80
2, 26880, Note_on_c, 0, 86, 80
2, 27840, Note_on_c, 0, 86, 0
2, 27840, Note_on_c, 0, 89, 0
2, 27840, Note_on_c, 0, 88, 80
2, 27840, Note_on_c, 0, 83, 80
2, 28800, Note_on_c, 0, 83, 0
2, 28800, Note_on_c, 0, 88, 0
2, 28800, Note_on_c, 0, 81, 80
2, 28800, Note_on_c, 0, 88, 80
2, 29760, Note_on_c, 0, 81, 0
2, 29760, Note_on_c, 0, 80, 80
2, 30720, Note_on_c, 0, 80, 0
2, 30720, Note_on_c, 0, 81, 80
2, 31200, Note_on_c, 0, 81, 0
2, 31200, Note_on_c, 0, 84, 80
2, 31680, Note_on_c, 0, 88, 0
2, 31680, Note_on_c, 0, 86, 80
2, 32160, Note_on_c, 0, 84, 0
2, 32160, Note_on_c, 0, 83, 80
2, 32400, Note_on_c, 0, 83, 0
2, 32400, Note_on_c, 0, 81, 80
2, 32640, Note_on_c, 0, 81, 0
2, 32640, Note_on_c, 0, 86, 0
2, 32640, Note_on_c, 0, 80, 80
2, 33120, Note_on_c, 0, 80, 0
2, 33120, Note_on_c, 0, 84, 80
2, 33120, Note_on_c, 0, 81, 80
2, 33600, Note_on_c, 0, 84, 0
2, 33600, Note_on_c, 0, 83, 80
2, 34080, Note_on_c, 0, 81, 0
2, 34080, Note_on_c, 0, 80, 80
2, 34560, Note_on_c, 0, 80, 0
2, 34560, Note_on_c, 0, 83, 0
2, 34560, Note_on_c, 0, 81, 80
2, 35040, Note_on_c, 0, 81, 0
2, 40320, Note_on_c, 0, 84, 80
2, 40320, Note_on_c, 0, 81, 80
2, 41280, Note_on_c, 0, 81, 0
2, 41280, Note_on_c, 0, 84, 0
2, 41280, Note_on_c, 0, 84, 80
2, 41280, Note_on_c, 0, 81, 80
2, 42240, Note_on_c, 0, 81, 0
2, 42240, Note_on_c, 0, 84, 0
2, 42240, Note_on_c, 0, 86, 80
2, 42240, Note_on_c, 0, 83, 80
2, 44160, Note_on_c, 0, 83, 0
2, 44160, Note_on_c, 0, 86, 0
2, 44160, Note_on_c, 0, 81, 80
2, 44160, Note_on_c, 0, 78, 80
2, 45120, Note_on_c, 0, 78, 0
2, 45120, Note_on_c, 0, 81, 0
2, 45120, Note_on_c, 0, 81, 80
2, 45120, Note_on_c, 0, 78, 80
2, 46080, Note_on_c, 0, 78, 0
2, 46080, Note_on_c, 0, 81, 0
2, 46080, Note_on_c, 0, 84, 80
2, 46080, Note_on_c, 0, 81, 80
2, 48000, Note_on_c, 0, 81, 0
2, 48000, Note_on_c, 0, 84, 0
2, 48000, Note_on_c, 0, 89, 80
2, 48000, Note_on_c, 0, 81, 80
2, 48480, Note_on_c, 0, 81, 0
2, 48480, Note_on_c, 0, 89, 0
2, 48480, Note_on_c, 0, 88, 80
2, 48480, Note_on_c, 0, 84, 80
2, 48960, Note_on_c, 0, 84, 0
2, 48960, Note_on_c, 0, 88, 0
2, 49440, Note_on_c, 0, 88, 80
2, 49440, Note_on_c, 0, 84, 80
2, 49920, Note_on_c, 0, 84, 0
2, 49920, Note_on_c, 0, 88, 0
2, 49920, Note_on_c, 0, 86, 80
2, 49920, Note_on_c, 0, 80, 80
2, 50400, Note_on_c, 0, 80, 0
2, 50400, Note_on_c, 0, 86, 0
2, 50400, Note_on_c, 0, 84, 80
2, 50400, Note_on_c, 0, 81, 80
2, 50880, Note_on_c, 0, 81, 0
2, 50880, Note_on_c, 0, 84, 0
2, 51360, Note_on_c, 0, 83, 80
2, 51360, Note_on_c, 0, 79, 80
2, 51600, Note_on_c, 0, 79, 0
2, 51600, Note_on_c, 0, 78, 80
2, 51840, Note_on_c, 0, 78, 0
2, 51840, Note_on_c, 0, 83, 0
2, 51840, Note_on_c, 0, 86, 80
2, 51840, Note_on_c, 0, 81, 80
2, 52320, Note_on_c, 0, 81, 0
2, 52320, Note_on_c, 0, 86, 0
2, 52320, Note_on_c, 0, 84, 80
2, 52320, Note_on_c, 0, 79, 80
2, 52800, Note_on_c, 0, 79, 0
2, 52800, Note_on_c, 0, 84, 0
2, 52800, Note_on_c, 0, 82, 80
2, 52800, Note_on_c, 0, 77, 80
2, 53280, Note_on_c, 0, 77, 0
2, 53280, Note_on_c, 0, 82, 0
2, 53280, Note_on_c, 0, 81, 80
2, 53280, Note_on_c, 0, 76, 80
2, 53760, Note_on_c, 0, 76, 0
2, 53760, Note_on_c, 0, 81, 0
2, 53760, Note_on_c, 0, 81, 80
2, 53760, Note_on_c, 0, 76, 80
2, 54240, Note_on_c, 0, 76, 0
2, 54240, Note_on_c, 0, 81, 0
2, 54240, Note_on_c, 0, 80, 80
2, 54240, Note_on_c, 0, 76, 80
2, 54720, Note_on_c, 0, 76, 0
2, 54720, Note_on_c, 0, 80, 0
2, 54720, Note_on_c, 0, 83, 80
2, 54720, Note_on_c, 0, 79, 80
2, 55680, Note_on_c, 0, 79, 0
2, 55680, Note_on_c, 0, 80, 80
2, 56640, Note_on_c, 0, 80, 0
2, 56640, Note_on_c, 0, 79, 80
2, 57120, Note_on_c, 0, 79, 0
2, 57120, Note_on_c, 0, 77, 80
2, 57600, Note_on_c, 0, 77, 0
2, 57600, Note_on_c, 0, 83, 0
2, 57600, Note_on_c, 0, 84, 80
2, 57600, Note_on_c, 0, 75, 80
2, 58560, Note_on_c, 0, 75, 0
2, 58560, Note_on_c, 0, 84, 0
2, 58560, Note_on_c, 0, 84, 80
2, 58560, Note_on_c, 0, 75, 80
2, 59520, Note_on_c, 0, 75, 0
2, 59520, Note_on_c, 0, 84, 0
2, 59520, Note_on_c, 0, 87, 80
2, 59520, Note_on_c, 0, 79, 80
2, 60000, Note_on_c, 0, 79, 0
2, 60000, Note_on_c, 0, 87, 0
2, 60000, Note_on_c, 0, 84, 80
2, 60000, Note_on_c, 0, 79, 80
2, 60480, Note_on_c, 0, 79, 0
2, 60480, Note_on_c, 0, 84, 0
2, 60480, Note_on_c, 0, 79, 80
2, 60960, Note_on_c, 0, 79, 0
2, 60960, Note_on_c, 0, 84, 80
2, 60960, Note_on_c, 0, 79, 80
2, 61440, Note_on_c, 0, 79, 0
2, 61440, Note_on_c, 0, 84, 0
2, 61440, Note_on_c, 0, 84, 80
2, 61440, Note_on_c, 0, 79, 80
2, 61920, Note_on_c, 0, 84, 0
2, 61920, Note_on_c, 0, 85, 80
2, 62400, Note_on_c, 0, 85, 0
2, 62400, Note_on_c, 0, 79, 0
2, 62400, Note_on_c, 0, 85, 80
2, 62400, Note_on_c, 0, 79, 80
2, 63360, Note_on_c, 0, 79, 0
2, 63360, Note_on_c, 0, 85, 0
2, 63360, Note_on_c, 0, 85, 80
2, 63360, Note_on_c, 0, 79, 80
2, 64320, Note_on_c, 0, 79, 0
2, 64320, Note_on_c, 0, 85, 0
2, 64320, Note_on_c, 0, 85, 80
2, 64320, Note_on_c, 0, 76, 80
2, 65280, Note_on_c, 0, 76, 0
2, 65280, Note_on_c, 0, 85, 0
2, 65280, Note_on_c, 0, 88, 80
2, 65280, Note_on_c, 0, 79, 80
2, 65760, Note_on_c, 0, 79, 0
2, 65760, Note_on_c, 0, 88, 0
2, 65760, Note_on_c, 0, 85, 80
2, 65760, Note_on_c, 0, 79, 80
2, 66240, Note_on_c, 0, 79, 0
2, 66240, Note_on_c, 0, 85, 0
2, 66240, Note_on_c, 0, 81, 80
2, 66240, Note_on_c, 0, 76, 80
2, 66720, Note_on_c, 0, 76, 0
2, 66720, Note_on_c, 0, 81, 0
2, 66720, Note_on_c, 0, 85, 80
2, 66720, Note_on_c, 0, 81, 80
2, 67200, Note_on_c, 0, 81, 0
2, 67200, Note_on_c, 0, 85, 0
2, 67200, Note_on_c, 0, 81, 80
2, 67200, Note_on_c, 0, 85, 80
2, 67680, Note_on_c, 0, 85, 0
2, 67680, Note_on_c, 0, 86, 80
2, 68160, Note_on_c, 0, 86, 0
2, 68160, Note_on_c, 0, 81, 0
2, 68160, Note_on_c, 0, 81, 80
2, 68160, Note_on_c, 0, 86, 80
2, 69120, Note_on_c, 0, 86, 0
2, 69120, Note_on_c, 0, 81, 0
2, 69120, Note_on_c, 0, 87, 80
2, 69120, Note_on_c, 0, 82, 80
2, 70080, Note_on_c, 0, 82, 0
2, 70080, Note_on_c, 0, 87, 0
2, 70080, Note_on_c, 0, 84, 80
2, 70080, Note_on_c, 0, 81, 80
2, 71040, Note_on_c, 0, 81, 0
2, 71040, Note_on_c, 0, 84, 0
2, 71040, Note_on_c, 0, 82, 80
2, 71040, Note_on_c, 0, 79, 80
2, 72000, Note_on_c, 0, 79, 0
2, 72000, Note_on_c, 0, 82, 0
2, 72000, Note_on_c, 0, 89, 80
2, 72000, Note_on_c, 0, 81, 80
2, 72960, Note_on_c, 0, 81, 0
2, 72960, Note_on_c, 0, 89, 0
2, 72960, Note_on_c, 0, 87, 80
2, 72960, Note_on_c, 0, 82, 80
2, 73920, Note_on_c, 0, 82, 0
2, 73920, Note_on_c, 0, 87, 0
2, 73920, Note_on_c, 0, 86, 80
2, 73920, Note_on_c, 0, 83, 80
2, 74880, Note_on_c, 0, 83, 0
2, 74880, Note_on_c, 0, 86, 0
2, 74880, Note_on_c, 0, 81, 80
2, 74880, Note_on_c, 0, 86, 80
2, 75360, Note_on_c, 0, 86, 0
2, 75360, Note_on_c, 0, 85, 80
2, 75840, Note_on_c, 0, 85, 0
2, 75840, Note_on_c, 0, 81, 0
2, 79680, Note_on_c, 0, 81, 80
2, 79680, Note_on_c, 0, 76, 80
2, 80640, Note_on_c, 0, 76, 0
2, 80640, Note_on_c, 0, 81, 0
2, 80640, Note_on_c, 0, 80, 80
2, 80640, Note_on_c, 0, 77, 80
2, 81120, Note_on_c, 0, 77, 0
2, 81120, Note_on_c, 0, 80, 0
2, 81120, Note_on_c, 0, 81, 80
2, 81120, Note_on_c, 0, 76, 80
2, 81600, Note_on_c, 0, 76, 0
2, 81600, Note_on_c, 0, 81, 0
2, 81600, Note_on_c, 0, 81, 80
2, 81600, Note_on_c, 0, 76, 80
2, 82560, Note_on_c, 0, 76, 0
2, 82560, Note_on_c, 0, 81, 0
2, 82560, Note_on_c, 0, 80, 80
2, 82560, Note_on_c, 0, 77, 80
2, 83040, Note_on_c, 0, 77, 0
2, 83040, Note_on_c, 0, 80, 0
2, 83040, Note_on_c, 0, 81, 80
2, 83040, Note_on_c, 0, 76, 80
2, 83520, Note_on_c, 0, 76, 0
2, 83520, Note_on_c, 0, 81, 0
2, 87360, Note_on_c, 0, 88, 80
2, 87360, Note_on_c, 0, 81, 80
2, 88320, Note_on_c, 0, 81, 0
2, 88320, Note_on_c, 0, 88, 0
2, 88320, Note_on_c, 0, 89, 80
2, 88320, Note_on_c, 0, 80, 80
2, 88800, Note_on_c, 0, 80, 0
2, 88800, Note_on_c, 0, 89, 0
2, 88800, Note_on_c, 0, 88, 80
2, 88800, Note_on_c, 0, 81, 80
2, 89280, Note_on_c, 0, 81, 0
2, 89280, Note_on_c, 0, 88, 0
2, 89280, Note_on_c, 0, 88, 80
2, 89280, Note_on_c, 0, 81, 80
2, 90240, Note_on_c, 0, 81, 0
2, 90240, Note_on_c, 0, 88, 0
2, 90240, Note_on_c, 0, 89, 80
2, 90240, Note_on_c, 0, 80, 80
2, 90720, Note_on_c, 0, 80, 0
2, 90720, Note_on_c, 0, 89, 0
2, 90720, Note_on_c, 0, 88, 80
2, 90720, Note_on_c, 0, 81, 80
2, 91200, Note_on_c, 0, 81, 0
2, 91200, Note_on_c, 0, 88, 0
2, 95040, Note_on_c, 0, 86, 80
2, 95040, Note_on_c, 0, 79, 80
2, 96000, Note_on_c, 0, 79, 0
2, 96000, Note_on_c, 0, 86, 0
2, 96000, Note_on_c, 0, 84, 80
2, 96000, Note_on_c, 0, 81, 80
2, 96240, Note_on_c, 0, 81, 0
2, 96240, Note_on_c, 0, 84, 0
2, 96240, Note_on_c, 0, 86, 80
2, 96240, Note_on_c, 0, 82, 80
2, 96480, Note_on_c, 0, 82, 0
2, 96480, Note_on_c, 0, 86, 0
2, 96480, Note_on_c, 0, 84, 80
2, 96480, Note_on_c, 0, 81, 80
2, 96720, Note_on_c, 0, 81, 0
2, 96720, Note_on_c, 0, 84, 0
2, 96720, Note_on_c, 0, 86, 80
2, 96720, Note_on_c, 0, 82, 80
2, 96960, Note_on_c, 0, 82, 0
2, 96960, Note_on_c, 0, 86, 0
2, 96960, Note_on_c, 0, 84, 80
2, 96960, Note_on_c, 0, 81, 80
2, 97200, Note_on_c, 0, 81, 0
2, 97200, Note_on_c, 0, 84, 0
2, 97200, Note_on_c, 0, 86, 80
2, 97200, Note_on_c, 0, 82, 80
2, 97440, Note_on_c, 0, 82, 0
2, 97440, Note_on_c, 0, 86, 0
2, 97440, Note_on_c, 0, 84, 80
2, 97440, Note_on_c, 0, 81, 80
2, 97680, Note_on_c, 0, 81, 0
2, 97680, Note_on_c, 0, 84, 0
2, 97680, Note_on_c, 0, 86, 80
2, 97680, Note_on_c, 0, 82, 80
2, 97920, Note_on_c, 0, 82, 0
2, 97920, Note_on_c, 0, 86, 0
2, 97920, Note_on_c, 0, 88, 80
2, 97920, Note_on_c, 0, 81, 80
2, 98400, Note_on_c, 0, 81, 0
2, 98400, Note_on_c, 0, 88, 0
2, 98400, Note_on_c, 0, 85, 80
2, 98400, Note_on_c, 0, 81, 80
2, 98880, Note_on_c, 0, 81, 0
2, 98880, Note_on_c, 0, 85, 0
2, 99360, Note_on_c, 0, 85, 80
2, 99360, Note_on_c, 0, 76, 80
2, 99840, Note_on_c, 0, 76, 0
2, 99840, Note_on_c, 0, 85, 0
2, 99840, Note_on_c, 0, 86, 80
2, 99840, Note_on_c, 0, 77, 80
2, 100320, Note_on_c, 0, 77, 0
2, 100320, Note_on_c, 0, 86, 0
2, 100320, Note_on_c, 0, 85, 80
2, 100320, Note_on_c, 0, 76, 80
2, 100800, Note_on_c, 0, 76, 0
2, 100800, Note_on_c, 0, 85, 0
2, 100800, Note_on_c, 0, 86, 80
2, 100800, Note_on_c, 0, 77, 80
2, 101280, Note_on_c, 0, 77, 0
2, 101280, Note_on_c, 0, 86, 0
2, 101280, Note_on_c, 0, 85, 80
2, 101280, Note_on_c, 0, 76, 80
2, 101760, Note_on_c, 0, 76, 0
2, 101760, Note_on_c, 0, 85, 0
2, 101760, Note_on_c, 0, 86, 80
2, 101760, Note_on_c, 0, 77, 80
2, 102240, Note_on_c, 0, 77, 0
2, 102240, Note_on_c, 0, 86, 0
2, 102240, Note_on_c, 0, 85, 80
2, 102240, Note_on_c, 0, 76, 80
2, 102720, Note_on_c, 0, 76, 0
2, 102720, Note_on_c, 0, 85, 0
2, 103200, Note_on_c, 0, 86, 80
2, 103200, Note_on_c, 0, 77, 80
2, 103680, Note_on_c, 0, 77, 0
2, 103680, Note_on_c, 0, 86, 0
2, 103680, Note_on_c, 0, 88, 80
2, 103680, Note_on_c, 0, 79, 80
2, 104160, Note_on_c, 0, 79, 0
2, 104160, Note_on_c, 0, 88, 0
2, 104160, Note_on_c, 0, 86, 80
2, 104160, Note_on_c, 0, 77, 80
2, 104640, Note_on_c, 0, 77, 0
2, 104640, Note_on_c, 0, 86, 0
2, 104640, Note_on_c, 0, 88, 80
2, 104640, Note_on_c, 0, 79, 80
2, 105120, Note_on_c, 0, 79, 0
2, 105120, Note_on_c, 0, 88, 0
2, 105120, Note_on_c, 0, 86, 80
2, 105120, Note_on_c, 0, 77, 80
2, 105600, Note_on_c, 0, 77, 0
2, 105600, Note_on_c, 0, 86, 0
2, 105600, Note_on_c, 0, 88, 80
2, 105600, Note_on_c, 0, 79, 80
2, 106080, Note_on_c, 0, 79, 0
2, 106080, Note_on_c, 0, 88, 0
2, 106080, Note_on_c, 0, 86, 80
2, 106080, Note_on_c, 0, 77, 80
2, 106560, Note_on_c, 0, 77, 0
2, 106560, Note_on_c, 0, 86, 0
2, 108000, Note_on_c, 0, 86, 80
2, 108000, Note_on_c, 0, 77, 80
2, 108960, Note_on_c, 0, 77, 0
2, 108960, Note_on_c, 0, 86, 0
2, 108960, Note_on_c, 0, 86, 80
2, 108960, Note_on_c, 0, 77, 80
2, 109440, Note_on_c, 0, 77, 0
2, 109440, Note_on_c, 0, 86, 0
2, 109440, Note_on_c, 0, 89, 80
2, 109440, Note_on_c, 0, 81, 80
2, 109920, Note_on_c, 0, 81, 0
2, 109920, Note_on_c, 0, 89, 0
2, 109920, Note_on_c, 0, 86, 80
2, 109920, Note_on_c, 0, 77, 80
2, 110400, Note_on_c, 0, 77, 0
2, 110400, Note_on_c, 0, 86, 0
2, 112320, Note_on_c, 0, 86, 80
2, 112320, Note_on_c, 0, 79, 80
2, 113040, Note_on_c, 0, 79, 0
2, 113040, Note_on_c, 0, 86, 0
2, 113040, Note_on_c, 0, 86, 80
2, 113040, Note_on_c, 0, 79, 80
2, 113280, Note_on_c, 0, 79, 0
2, 113280, Note_on_c, 0, 86, 0
2, 113280, Note_on_c, 0, 85, 80
2, 113280, Note_on_c, 0, 79, 80
2, 113760, Note_on_c, 0, 79, 0
2, 113760, Note_on_c, 0, 85, 0
2, 113760, Note_on_c, 0, 77, 80
2, 113760, Note_on_c, 0, 86, 80
2, 114240, Note_on_c, 0, 77, 0
2, 114240, Note_on_c, 0, 76, 80
2, 114720, Note_on_c, 0, 86, 0
2, 114720, Note_on_c, 0, 85, 80
2, 115200, Note_on_c, 0, 85, 0
2, 115200, Note_on_c, 0, 76, 0
2, 115200, Note_on_c, 0, 86, 80
2, 115200, Note_on_c, 0, 74, 80
2, 115680, Note_on_c, 0, 74, 0
2, 115680, Note_on_c, 0, 86, 0
2, 115680, Note_on_c, 0, 86, 80
2, 115680, Note_on_c, 0, 77, 80
2, 116640, Note_on_c, 0, 77, 0
2, 116640, Note_on_c, 0, 86, 0
2, 116640, Note_on_c, 0, 86, 80
2, 116640, Note_on_c, 0, 77, 80
2, 117120, Note_on_c, 0, 77, 0
2, 117120, Note_on_c, 0, 86, 0
2, 117120, Note_on_c, 0, 89, 80
2, 117120, Note_on_c, 0, 86, 80
2, 117600, Note_on_c, 0, 86, 0
2, 117600, Note_on_c, 0, 89, 0
2, 117600, Note_on_c, 0, 86, 80
2, 117600, Note_on_c, 0, 82, 80
2, 118080, Note_on_c, 0, 82, 0
2, 118080, Note_on_c, 0, 86, 0
2, 120000, Note_on_c, 0, 87, 80
2, 120000, Note_on_c, 0, 79, 80
2, 120720, Note_on_c, 0, 79, 0
2, 120720, Note_on_c, 0, 87, 0
2, 120720, Note_on_c, 0, 86, 80
2, 120720, Note_on_c, 0, 79, 80
2, 120960, Note_on_c, 0, 79, 0
2, 120960, Note_on_c, 0, 86, 0
2, 120960, Note_on_c, 0, 85, 80
2, 120960, Note_on_c, 0, 79, 80
2, 121440, Note_on_c, 0, 79, 0
2, 121440, Note_on_c, 0, 85, 0
2, 121440, Note_on_c, 0, 77, 80
2, 121440, Note_on_c, 0, 86, 80
2, 121920, Note_on_c, 0, 77, 0
2, 121920, Note_on_c, 0, 76, 80
2, 122400, Note_on_c, 0, 86, 0
2, 122400, Note_on_c, 0, 85, 80
2, 122880, Note_on_c, 0, 85, 0
2, 122880, Note_on_c, 0, 76, 0
2, 122880, Note_on_c, 0, 86, 80
2, 122880, Note_on_c, 0, 74, 80
2, 123360, Note_on_c, 0, 74, 0
2, 123360, Note_on_c, 0, 86, 0
2, 126240, Note_on_c, 0, 81, 80
2, 126480, Note_on_c, 0, 81, 0
2, 126480, Note_on_c, 0, 85, 80
2, 126480, Note_on_c, 0, 79, 80
2, 126720, Note_on_c, 0, 79, 0
2, 126720, Note_on_c, 0, 85, 0
2, 126720, Note_on_c, 0, 77, 80
2, 126720, Note_on_c, 0, 86, 80
2, 126960, Note_on_c, 0, 77, 0
2, 126960, Note_on_c, 0, 81, 80
2, 127200, Note_on_c, 0, 81, 0
2, 127200, Note_on_c, 0, 86, 0
2, 127200, Note_on_c, 0, 82, 80
2, 127200, Note_on_c, 0, 86, 80
2, 127440, Note_on_c, 0, 82, 0
2, 127440, Note_on_c, 0, 79, 80
2, 127680, Note_on_c, 0, 79, 0
2, 127680, Note_on_c, 0, 77, 80
2, 128160, Note_on_c, 0, 77, 0
2, 128160, Note_on_c, 0, 86, 0
2, 128160, Note_on_c, 0, 76, 80
2, 128160, Note_on_c, 0, 85, 80
2, 128640, Note_on_c, 0, 85, 0
2, 128640, Note_on_c, 0, 76, 0
2, 128640, Note_on_c, 0, 86, 80
2, 128640, Note_on_c, 0, 74, 80
2, 129120, Note_on_c, 0, 74, 0
2, 129120, Note_on_c, 0, 86, 0
2, 129120, End_track
3, 0, Start_track
3, 0, MIDI_port, 0
3, 0, Title_t, "Track 2"
3, 0, Program_c, 1, 70
3, 0, Control_c, 1, 7, 108
3, 0, Control_c, 1, 10, 75
3, 8, Control_c, 1, 91, 70
3, 40, Note_on_c, 1, 65, 80
3, 40, Note_on_c, 1, 62, 80
3, 960, Note_on_c, 1, 65, 80
3, 960, Note_on_c, 1, 62, 80
3, 1000, Note_on_c, 1, 62, 0
3, 1000, Note_on_c, 1, 65, 0
3, 1920, Note_on_c, 1, 62, 0
3, 1920, Note_on_c, 1, 65, 0
3, 1920, Note_on_c, 1, 67, 80
3, 1920, Note_on_c, 1, 64, 80
3, 3840, Note_on_c, 1, 64, 0
3, 3840, Note_on_c, 1, 67, 0
3, 3840, Note_on_c, 1, 64, 80
3, 3840, Note_on_c, 1, 61, 80
3, 4800, Note_on_c, 1, 61, 0
3, 4800, Note_on_c, 1, 64, 0
3, 4800, Note_on_c, 1, 64, 80
3, 4800, Note_on_c, 1, 61, 80
3, 5760, Note_on_c, 1, 61, 0
3, 5760, Note_on_c, 1, 64, 0
3, 5760, Note_on_c, 1, 65, 80
3, 5760, Note_on_c, 1, 62, 80
3, 7200, Note_on_c, 1, 62, 0
3, 7200, Note_on_c, 1, 65, 0
3, 7200, Note_on_c, 1, 65, 80
3, 7200, Note_on_c, 1, 50, 80
3, 7680, Note_on_c, 1, 50, 0
3, 7680, Note_on_c, 1, 65, 0
3, 7680, Note_on_c, 1, 64, 80
3, 7680, Note_on_c, 1, 52, 80
3, 8160, Note_on_c, 1, 52, 0
3, 8160, Note_on_c, 1, 64, 0
3, 8160, Note_on_c, 1, 62, 80
3, 8160, Note_on_c, 1, 53, 80
3, 8640, Note_on_c, 1, 53, 0
3, 8640, Note_on_c, 1, 62, 0
3, 9120, Note_on_c, 1, 57, 80
3, 9120, Note_on_c, 1, 53, 80
3, 9600, Note_on_c, 1, 53, 0
3, 9600, Note_on_c, 1, 57, 0
3, 9600, Note_on_c, 1, 64, 80
3, 9600, Note_on_c, 1, 49, 80
3, 10080, Note_on_c, 1, 49, 0
3, 10080, Note_on_c, 1, 64, 0
3, 10080, Note_on_c, 1, 62, 80
3, 10080, Note_on_c, 1, 50, 80
3, 10560, Note_on_c, 1, 50, 0
3, 10560, Note_on_c, 1, 62, 0
3, 11040, Note_on_c, 1, 65, 80
3, 11040, Note_on_c, 1, 62, 80
3, 11280, Note_on_c, 1, 62, 0
3, 11280, Note_on_c, 1, 60, 80
3, 11520, Note_on_c, 1, 60, 0
3, 11520, Note_on_c, 1, 65, 0
3, 11520, Note_on_c, 1, 67, 80
3, 11520, Note_on_c, 1, 58, 80
3, 12000, Note_on_c, 1, 58, 0
3, 12000, Note_on_c, 1, 67, 0
3, 12000, Note_on_c, 1, 65, 80
3, 12000, Note_on_c, 1, 57, 80
3, 12480, Note_on_c, 1, 57, 0
3, 12480, Note_on_c, 1, 65, 0
3, 12480, Note_on_c, 1, 61, 80
3, 12480, Note_on_c, 1, 55, 80
3, 12960, Note_on_c, 1, 55, 0
3, 12960, Note_on_c, 1, 61, 0
3, 12960, Note_on_c, 1, 62, 80
3, 12960, Note_on_c, 1, 53, 80
3, 13440, Note_on_c, 1, 53, 0
3, 13440, Note_on_c, 1, 62, 0
3, 13440, Note_on_c, 1, 65, 80
3, 13440, Note_on_c, 1, 57, 80
3, 13920, Note_on_c, 1, 57, 0
3, 13920, Note_on_c, 1, 65, 0
3, 13920, Note_on_c, 1, 64, 80
3, 13920, Note_on_c, 1, 45, 80
3, 14400, Note_on_c, 1, 45, 0
3, 14400, Note_on_c, 1, 64, 0
3, 17280, Note_on_c, 1, 65, 80
3, 17280, Note_on_c, 1, 53, 80
3, 18720, Note_on_c, 1, 53, 0
3, 18720, Note_on_c, 1, 53, 80
3, 19200, Note_on_c, 1, 53, 0
3, 19200, Note_on_c, 1, 53, 80
3, 19680, Note_on_c, 1, 53, 0
3, 19680, Note_on_c, 1, 53, 80
3, 20160, Note_on_c, 1, 53, 0
3, 20160, Note_on_c, 1, 53, 80
3, 20640, Note_on_c, 1, 53, 0
3, 20640, Note_on_c, 1, 65, 0
3, 20640, Note_on_c, 1, 60, 80
3, 20640, Note_on_c, 1, 53, 80
3, 21120, Note_on_c, 1, 53, 0
3, 21120, Note_on_c, 1, 60, 0
3, 21120, Note_on_c, 1, 54, 80
3, 21120, Note_on_c, 1, 57, 80
3, 21600, Note_on_c, 1, 57, 0
3, 21600, Note_on_c, 1, 54, 80
3, 22080, Note_on_c, 1, 54, 0
3, 22080, Note_on_c, 1, 54, 0
3, 22080, Note_on_c, 1, 54, 80
3, 22080, Note_on_c, 1, 57, 80
3, 22560, Note_on_c, 1, 57, 0
3, 22560, Note_on_c, 1, 60, 80
3, 23040, Note_on_c, 1, 60, 0
3, 23040, Note_on_c, 1, 54, 0
3, 23040, Note_on_c, 1, 60, 80
3, 23040, Note_on_c, 1, 55, 80
3, 24000, Note_on_c, 1, 60, 0
3, 24000, Note_on_c, 1, 59, 80
3, 24480, Note_on_c, 1, 55, 0
3, 24480, Note_on_c, 1, 55, 80
3, 24960, Note_on_c, 1, 55, 0
3, 24960, Note_on_c, 1, 59, 0
3, 24960, Note_on_c, 1, 67, 80
3, 24960, Note_on_c, 1, 55, 80
3, 25440, Note_on_c, 1, 55, 0
3, 25440, Note_on_c, 1, 55, 80
3, 25920, Note_on_c, 1, 55, 0
3, 25920, Note_on_c, 1, 55, 80
3, 26400, Note_on_c, 1, 55, 0
3, 26400, Note_on_c, 1, 67, 0
3, 26400, Note_on_c, 1, 62, 80
3, 26400, Note_on_c, 1, 55, 80
3, 26880, Note_on_c, 1, 55, 0
3, 26880, Note_on_c, 1, 62, 0
3, 26880, Note_on_c, 1, 59, 80
3, 26880, Note_on_c, 1, 56, 80
3, 27360, Note_on_c, 1, 59, 0
3, 27360, Note_on_c, 1, 56, 80
3, 27840, Note_on_c, 1, 56, 0
3, 27840, Note_on_c, 1, 56, 0
3, 27840, Note_on_c, 1, 59, 80
3, 27840, Note_on_c, 1, 56, 80
3, 28320, Note_on_c, 1, 59, 0
3, 28320, Note_on_c, 1, 62, 80
3, 28800, Note_on_c, 1, 62, 0
3, 28800, Note_on_c, 1, 56, 0
3, 28800, Note_on_c, 1, 57, 80
3, 28800, Note_on_c, 1, 60, 80
3, 29520, Note_on_c, 1, 60, 0
3, 29520, Note_on_c, 1, 57, 80
3, 29760, Note_on_c, 1, 57, 0
3, 29760, Note_on_c, 1, 57, 0
3, 29760, Note_on_c, 1, 59, 80
3, 29760, Note_on_c, 1, 62, 80
3, 30480, Note_on_c, 1, 62, 0
3, 30480, Note_on_c, 1, 59, 80
3, 30720, Note_on_c, 1, 59, 0
3, 30720, Note_on_c, 1, 59, 0
3, 30720, Note_on_c, 1, 60, 80
3, 30720, Note_on_c, 1, 64, 80
3, 31200, Note_on_c, 1, 64, 0
3, 31200, Note_on_c, 1, 57, 80
3, 31680, Note_on_c, 1, 57, 0
3, 31680, Note_on_c, 1, 60, 0
3, 31680, Note_on_c, 1, 62, 80
3, 32160, Note_on_c, 1, 65, 80
3, 32640, Note_on_c, 1, 65, 0
3, 32640, Note_on_c, 1, 62, 0
3, 32640, Note_on_c, 1, 64, 80
3, 33120, Note_on_c, 1, 64, 0
3, 33120, Note_on_c, 1, 64, 80
3, 33120, Note_on_c, 1, 57, 80
3, 33600, Note_on_c, 1, 57, 0
3, 33600, Note_on_c, 1, 64, 0
3, 33600, Note_on_c, 1, 64, 80
3, 33600, Note_on_c, 1, 52, 80
3, 34560, Note_on_c, 1, 52, 0
3, 34560, Note_on_c, 1, 64, 0
3, 34560, Note_on_c, 1, 64, 80
3, 34560, Note_on_c, 1, 57, 80
3, 35040, Note_on_c, 1, 57, 0
3, 35040, Note_on_c, 1, 64, 0
3, 35760, Note_on_c, 1, 60, 80
3, 36000, Note_on_c, 1, 60, 0
3, 36000, Note_on_c, 1, 59, 80
3, 36240, Note_on_c, 1, 59, 0
3, 36240, Note_on_c, 1, 57, 80
3, 36480, Note_on_c, 1, 57, 0
3, 36480, Note_on_c, 1, 56, 80
3, 36720, Note_on_c, 1, 56, 0
3, 36720, Note_on_c, 1, 65, 80
3, 36960, Note_on_c, 1, 65, 0
3, 36960, Note_on_c, 1, 62, 80
3, 37200, Note_on_c, 1, 62, 0
3, 37200, Note_on_c, 1, 60, 80
3, 37440, Note_on_c, 1, 60, 0
3, 37440, Note_on_c, 1, 59, 80
3, 37680, Note_on_c, 1, 59, 0
3, 37680, Note_on_c, 1, 56, 80
3, 37920, Note_on_c, 1, 56, 0
3, 37920, Note_on_c, 1, 56, 80
3, 38160, Note_on_c, 1, 56, 0
3, 38160, Note_on_c, 1, 59, 80
3, 38400, Note_on_c, 1, 59, 0
3, 38400, Note_on_c, 1, 57, 80
3, 38640, Note_on_c, 1, 57, 0
3, 38640, Note_on_c, 1, 48, 80
3, 38880, Note_on_c, 1, 48, 0
3, 38880, Note_on_c, 1, 50, 80
3, 39120, Note_on_c, 1, 50, 0
3, 39120, Note_on_c, 1, 53, 80
3, 39360, Note_on_c, 1, 53, 0
3, 39360, Note_on_c, 1, 52, 80
3, 39600, Note_on_c, 1, 52, 0
3, 39600, Note_on_c, 1, 50, 80
3, 39840, Note_on_c, 1, 50, 0
3, 39840, Note_on_c, 1, 52, 80
3, 40080, Note_on_c, 1, 52, 0
3, 40080, Note_on_c, 1, 40, 80
3, 40320, Note_on_c, 1, 40, 0
3, 40320, Note_on_c, 1, 45, 80
3, 40560, Note_on_c, 1, 45, 0
3, 40560, Note_on_c, 1, 48, 80
3, 40800, Note_on_c, 1, 48, 0
3, 40800, Note_on_c, 1, 52, 80
3, 41040, Note_on_c, 1, 52, 0
3, 41040, Note_on_c, 1, 57, 80
3, 41280, Note_on_c, 1, 57, 0
3, 41280, Note_on_c, 1, 45, 80
3, 41520, Note_on_c, 1, 45, 0
3, 41520, Note_on_c, 1, 48, 80
3, 41760, Note_on_c, 1, 48, 0
3, 41760, Note_on_c, 1, 52, 80
3, 42000, Note_on_c, 1, 52, 0
3, 42000, Note_on_c, 1, 57, 80
3, 42240, Note_on_c, 1, 57, 0
3, 42240, Note_on_c, 1, 45, 80
3, 42720, Note_on_c, 1, 45, 0
3, 42720, Note_on_c, 1, 62, 80
3, 42720, Note_on_c, 1, 59, 80
3, 43680, Note_on_c, 1, 59, 0
3, 43680, Note_on_c, 1, 62, 0
3, 43680, Note_on_c, 1, 62, 80
3, 43680, Note_on_c, 1, 59, 80
3, 44160, Note_on_c, 1, 59, 0
3, 44160, Note_on_c, 1, 62, 0
3, 44160, Note_on_c, 1, 44, 80
3, 44400, Note_on_c, 1, 44, 0
3, 44400, Note_on_c, 1, 47, 80
3, 44640, Note_on_c, 1, 47, 0
3, 44640, Note_on_c, 1, 52, 80
3, 44880, Note_on_c, 1, 52, 0
3, 44880, Note_on_c, 1, 56, 80
3, 45120, Note_on_c, 1, 56, 0
3, 45120, Note_on_c, 1, 44, 80
3, 45360, Note_on_c, 1, 44, 0
3, 45360, Note_on_c, 1, 47, 80
3, 45600, Note_on_c, 1, 47, 0
3, 45600, Note_on_c, 1, 52, 80
3, 45840, Note_on_c, 1, 52, 0
3, 45840, Note_on_c, 1, 56, 80
3, 46080, Note_on_c, 1, 56, 0
3, 46080, Note_on_c, 1, 45, 80
3, 46560, Note_on_c, 1, 45, 0
3, 46560, Note_on_c, 1, 64, 80
3, 46560, Note_on_c, 1, 60, 80
3, 47520, Note_on_c, 1, 60, 0
3, 47520, Note_on_c, 1, 64, 0
3, 47520, Note_on_c, 1, 64, 80
3, 47520, Note_on_c, 1, 60, 80
3, 48000, Note_on_c, 1, 60, 0
3, 48000, Note_on_c, 1, 64, 0
3, 48000, Note_on_c, 1, 62, 80
3, 48480, Note_on_c, 1, 62, 0
3, 48480, Note_on_c, 1, 60, 80
3, 48960, Note_on_c, 1, 60, 0
3, 49440, Note_on_c, 1, 64, 80
3, 49440, Note_on_c, 1, 60, 80
3, 49920, Note_on_c, 1, 60, 0
3, 49920, Note_on_c, 1, 64, 0
3, 49920, Note_on_c, 1, 64, 80
3, 49920, Note_on_c, 1, 59, 80
3, 50400, Note_on_c, 1, 59, 0
3, 50400, Note_on_c, 1, 64, 0
3, 50400, Note_on_c, 1, 64, 80
3, 50400, Note_on_c, 1, 57, 80
3, 50880, Note_on_c, 1, 57, 0
3, 50880, Note_on_c, 1, 64, 0
3, 51120, Note_on_c, 1, 45, 80
3, 51360, Note_on_c, 1, 45, 0
3, 51360, Note_on_c, 1, 57, 80
3, 51600, Note_on_c, 1, 57, 0
3, 51600, Note_on_c, 1, 55, 80
3, 51840, Note_on_c, 1, 55, 0
3, 51840, Note_on_c, 1, 53, 80
3, 52080, Note_on_c, 1, 53, 0
3, 52080, Note_on_c, 1, 65, 80
3, 52320, Note_on_c, 1, 65, 0
3, 52320, Note_on_c, 1, 64, 80
3, 52560, Note_on_c, 1, 64, 0
3, 52560, Note_on_c, 1, 52, 80
3, 52800, Note_on_c, 1, 52, 0
3, 52800, Note_on_c, 1, 50, 80
3, 53040, Note_on_c, 1, 50, 0
3, 53040, Note_on_c, 1, 62, 80
3, 53280, Note_on_c, 1, 62, 0
3, 53280, Note_on_c, 1, 57, 80
3, 53520, Note_on_c, 1, 57, 0
3, 53520, Note_on_c, 1, 45, 80
3, 53760, Note_on_c, 1, 45, 0
3, 53760, Note_on_c, 1, 52, 80
3, 54000, Note_on_c, 1, 52, 0
3, 54000, Note_on_c, 1, 64, 80
3, 54240, Note_on_c, 1, 64, 0
3, 54240, Note_on_c, 1, 52, 80
3, 54480, Note_on_c, 1, 52, 0
3, 54480, Note_on_c, 1, 52, 80
3, 54720, Note_on_c, 1, 52, 0
3, 54720, Note_on_c, 1, 55, 80
3, 54720, Note_on_c, 1, 52, 80
3, 55680, Note_on_c, 1, 52, 0
3, 55680, Note_on_c, 1, 55, 0
3, 55680, Note_on_c, 1, 56, 80
3, 55680, Note_on_c, 1, 53, 80
3, 56640, Note_on_c, 1, 53, 0
3, 56640, Note_on_c, 1, 56, 0
3, 56640, Note_on_c, 1, 55, 80
3, 57600, Note_on_c, 1, 55, 0
3, 57600, Note_on_c, 1, 48, 80
3, 57840, Note_on_c, 1, 48, 0
3, 57840, Note_on_c, 1, 51, 80
3, 58080, Note_on_c, 1, 51, 0
3, 58080, Note_on_c, 1, 55, 80
3, 58320, Note_on_c, 1, 55, 0
3, 58320, Note_on_c, 1, 60, 80
3, 58560, Note_on_c, 1, 60, 0
3, 58560, Note_on_c, 1, 48, 80
3, 58800, Note_on_c, 1, 48, 0
3, 58800, Note_on_c, 1, 51, 80
3, 59040, Note_on_c, 1, 51, 0
3, 59040, Note_on_c, 1, 55, 80
3, 59280, Note_on_c, 1, 55, 0
3, 59280, Note_on_c, 1, 60, 80
3, 59520, Note_on_c, 1, 60, 0
3, 59520, Note_on_c, 1, 48, 80
3, 60000, Note_on_c, 1, 48, 0
3, 60000, Note_on_c, 1, 63, 80
3, 60000, Note_on_c, 1, 60, 80
3, 60480, Note_on_c, 1, 60, 0
3, 60480, Note_on_c, 1, 63, 0
3, 60480, Note_on_c, 1, 63, 80
3, 60480, Note_on_c, 1, 60, 80
3, 60960, Note_on_c, 1, 60, 0
3, 60960, Note_on_c, 1, 63, 0
3, 60960, Note_on_c, 1, 63, 80
3, 60960, Note_on_c, 1, 60, 80
3, 61440, Note_on_c, 1, 60, 0
3, 61440, Note_on_c, 1, 63, 0
3, 61440, Note_on_c, 1, 63, 80
3, 61440, Note_on_c, 1, 60, 80
3, 61920, Note_on_c, 1, 60, 0
3, 61920, Note_on_c, 1, 63, 0
3, 61920, Note_on_c, 1, 64, 80
3, 61920, Note_on_c, 1, 58, 80
3, 62400, Note_on_c, 1, 58, 0
3, 62400, Note_on_c, 1, 64, 0
3, 62400, Note_on_c, 1, 64, 80
3, 62400, Note_on_c, 1, 58, 80
3, 63360, Note_on_c, 1, 58, 0
3, 63360, Note_on_c, 1, 64, 0
3, 63360, Note_on_c, 1, 64, 80
3, 63360, Note_on_c, 1, 58, 80
3, 64800, Note_on_c, 1, 58, 0
3, 64800, Note_on_c, 1, 64, 0
3, 64800, Note_on_c, 1, 61, 80
3, 64800, Note_on_c, 1, 58, 80
3, 65280, Note_on_c, 1, 58, 0
3, 65280, Note_on_c, 1, 61, 0
3, 65280, Note_on_c, 1, 61, 80
3, 65280, Note_on_c, 1, 58, 80
3, 65760, Note_on_c, 1, 58, 0
3, 65760, Note_on_c, 1, 61, 0
3, 65760, Note_on_c, 1, 64, 80
3, 65760, Note_on_c, 1, 57, 80
3, 66240, Note_on_c, 1, 57, 0
3, 66240, Note_on_c, 1, 64, 0
3, 66240, Note_on_c, 1, 61, 80
3, 66240, Note_on_c, 1, 57, 80
3, 66720, Note_on_c, 1, 57, 0
3, 66720, Note_on_c, 1, 61, 0
3, 66720, Note_on_c, 1, 64, 80
3, 66720, Note_on_c, 1, 55, 80
3, 67200, Note_on_c, 1, 55, 0
3, 67200, Note_on_c, 1, 64, 0
3, 67200, Note_on_c, 1, 55, 80
3, 67200, Note_on_c, 1, 64, 80
3, 67680, Note_on_c, 1, 64, 0
3, 67680, Note_on_c, 1, 55, 0
3, 67680, Note_on_c, 1, 53, 80
3, 67680, Note_on_c, 1, 65, 80
3, 68160, Note_on_c, 1, 65, 0
3, 68160, Note_on_c, 1, 53, 0
3, 68160, Note_on_c, 1, 53, 80
3, 68160, Note_on_c, 1, 65, 80
3, 68400, Note_on_c, 1, 53, 0
3, 68400, Note_on_c, 1, 50, 80
3, 68640, Note_on_c, 1, 50, 0
3, 68640, Note_on_c, 1, 45, 80
3, 68880, Note_on_c, 1, 45, 0
3, 68880, Note_on_c, 1, 41, 80
3, 69120, Note_on_c, 1, 41, 0
3, 69120, Note_on_c, 1, 65, 0
3, 69120, Note_on_c, 1, 43, 80
3, 69120, Note_on_c, 1, 63, 80
3, 69360, Note_on_c, 1, 43, 0
3, 69360, Note_on_c, 1, 46, 80
3, 69600, Note_on_c, 1, 46, 0
3, 69600, Note_on_c, 1, 51, 80
3, 69840, Note_on_c, 1, 51, 0
3, 69840, Note_on_c, 1, 55, 80
3, 70080, Note_on_c, 1, 55, 0
3, 70080, Note_on_c, 1, 63, 0
3, 70080, Note_on_c, 1, 45, 80
3, 70080, Note_on_c, 1, 63, 80
3, 70320, Note_on_c, 1, 45, 0
3, 70320, Note_on_c, 1, 48, 80
3, 70560, Note_on_c, 1, 48, 0
3, 70560, Note_on_c, 1, 54, 80
3, 70800, Note_on_c, 1, 54, 0
3, 70800, Note_on_c, 1, 57, 80
3, 71040, Note_on_c, 1, 57, 0
3, 71040, Note_on_c, 1, 63, 0
3, 71040, Note_on_c, 1, 46, 80
3, 71040, Note_on_c, 1, 62, 80
3, 71280, Note_on_c, 1, 46, 0
3, 71280, Note_on_c, 1, 50, 80
3, 71520, Note_on_c, 1, 50, 0
3, 71520, Note_on_c, 1, 55, 80
3, 71760, Note_on_c, 1, 55, 0
3, 71760, Note_on_c, 1, 58, 80
3, 72000, Note_on_c, 1, 58, 0
3, 72000, Note_on_c, 1, 62, 0
3, 72000, Note_on_c, 1, 45, 80
3, 72000, Note_on_c, 1, 60, 80
3, 72240, Note_on_c, 1, 45, 0
3, 72240, Note_on_c, 1, 48, 80
3, 72480, Note_on_c, 1, 48, 0
3, 72480, Note_on_c, 1, 53, 80
3, 72720, Note_on_c, 1, 53, 0
3, 72720, Note_on_c, 1, 57, 80
3, 72960, Note_on_c, 1, 57, 0
3, 72960, Note_on_c, 1, 60, 0
3, 72960, Note_on_c, 1, 43, 80
3, 72960, Note_on_c, 1, 58, 80
3, 73200, Note_on_c, 1, 43, 0
3, 73200, Note_on_c, 1, 46, 80
3, 73440, Note_on_c, 1, 46, 0
3, 73440, Note_on_c, 1, 51, 80
3, 73680, Note_on_c, 1, 51, 0
3, 73680, Note_on_c, 1, 55, 80
3, 73920, Note_on_c, 1, 55, 0
3, 73920, Note_on_c, 1, 58, 0
3, 73920, Note_on_c, 1, 44, 80
3, 73920, Note_on_c, 1, 65, 80
3, 74160, Note_on_c, 1, 44, 0
3, 74160, Note_on_c, 1, 47, 80
3, 74400, Note_on_c, 1, 47, 0
3, 74400, Note_on_c, 1, 50, 80
3, 74640, Note_on_c, 1, 50, 0
3, 74640, Note_on_c, 1, 56, 80
3, 74880, Note_on_c, 1, 56, 0
3, 74880, Note_on_c, 1, 65, 0
3, 74880, Note_on_c, 1, 65, 80
3, 74880, Note_on_c, 1, 57, 80
3, 75360, Note_on_c, 1, 57, 0
3, 75360, Note_on_c, 1, 65, 0
3, 75360, Note_on_c, 1, 64, 80
3, 75360, Note_on_c, 1, 45, 80
3, 75840, Note_on_c, 1, 45, 0
3, 75840, Note_on_c, 1, 64, 0
3, 75840, Note_on_c, 1, 57, 80
3, 76560, Note_on_c, 1, 57, 0
3, 76560, Note_on_c, 1, 57, 80
3, 76800, Note_on_c, 1, 57, 0
3, 76800, Note_on_c, 1, 56, 80
3, 77040, Note_on_c, 1, 56, 0
3, 77040, Note_on_c, 1, 57, 80
3, 77280, Note_on_c, 1, 57, 0
3, 77280, Note_on_c, 1, 56, 80
3, 77520, Note_on_c, 1, 56, 0
3, 77520, Note_on_c, 1, 57, 80
3, 77760, Note_on_c, 1, 57, 0
3, 77760, Note_on_c, 1, 56, 80
3, 78000, Note_on_c, 1, 56, 0
3, 78000, Note_on_c, 1, 57, 80
3, 78240, Note_on_c, 1, 57, 0
3, 78240, Note_on_c, 1, 56, 80
3, 78480, Note_on_c, 1, 56, 0
3, 78480, Note_on_c, 1, 57, 80
3, 78720, Note_on_c, 1, 57, 0
3, 78720, Note_on_c, 1, 58, 80
3, 79200, Note_on_c, 1, 58, 0
3, 79200, Note_on_c, 1, 57, 80
3, 79680, Note_on_c, 1, 57, 0
3, 79680, Note_on_c, 1, 64, 80
3, 80640, Note_on_c, 1, 64, 0
3, 80640, Note_on_c, 1, 65, 80
3, 81120, Note_on_c, 1, 65, 0
3, 81120, Note_on_c, 1, 64, 80
3, 81600, Note_on_c, 1, 64, 0
3, 81600, Note_on_c, 1, 64, 80
3, 82560, Note_on_c, 1, 64, 0
3, 82560, Note_on_c, 1, 65, 80
3, 83040, Note_on_c, 1, 65, 0
3, 83040, Note_on_c, 1, 64, 80
3, 83520, Note_on_c, 1, 64, 0
3, 83520, Note_on_c, 1, 57, 80
3, 84240, Note_on_c, 1, 57, 0
3, 84240, Note_on_c, 1, 57, 80
3, 84480, Note_on_c, 1, 57, 0
3, 84480, Note_on_c, 1, 56, 80
3, 84720, Note_on_c, 1, 56, 0
3, 84720, Note_on_c, 1, 57, 80
3, 84960, Note_on_c, 1, 57, 0
3, 84960, Note_on_c, 1, 56, 80
3, 85200, Note_on_c, 1, 56, 0
3, 85200, Note_on_c, 1, 57, 80
3, 85440, Note_on_c, 1, 57, 0
3, 85440, Note_on_c, 1, 56, 80
3, 85680, Note_on_c, 1, 56, 0
3, 85680, Note_on_c, 1, 57, 80
3, 85920, Note_on_c, 1, 57, 0
3, 85920, Note_on_c, 1, 56, 80
3, 86160, Note_on_c, 1, 56, 0
3, 86160, Note_on_c, 1, 57, 80
3, 86400, Note_on_c, 1, 57, 0
3, 86400, Note_on_c, 1, 58, 80
3, 86880, Note_on_c, 1, 58, 0
3, 86880, Note_on_c, 1, 57, 80
3, 87360, Note_on_c, 1, 57, 0
3, 87360, Note_on_c, 1, 64, 80
3, 88320, Note_on_c, 1, 64, 0
3, 88320, Note_on_c, 1, 65, 80
3, 88800, Note_on_c, 1, 65, 0
3, 88800, Note_on_c, 1, 64, 80
3, 89280, Note_on_c, 1, 64, 0
3, 89280, Note_on_c, 1, 64, 80
3, 90240, Note_on_c, 1, 64, 0
3, 90240, Note_on_c, 1, 65, 80
3, 90720, Note_on_c, 1, 65, 0
3, 90720, Note_on_c, 1, 64, 80
3, 91200, Note_on_c, 1, 64, 0
3, 91200, Note_on_c, 1, 57, 80
3, 91920, Note_on_c, 1, 57, 0
3, 91920, Note_on_c, 1, 57, 80
3, 92160, Note_on_c, 1, 57, 0
3, 92160, Note_on_c, 1, 56, 80
3, 92400, Note_on_c, 1, 56, 0
3, 92400, Note_on_c, 1, 57, 80
3, 92640, Note_on_c, 1, 57, 0
3, 92640, Note_on_c, 1, 56, 80
3, 92880, Note_on_c, 1, 56, 0
3, 92880, Note_on_c, 1, 57, 80
3, 93120, Note_on_c, 1, 57, 0
3, 93120, Note_on_c, 1, 56, 80
3, 93360, Note_on_c, 1, 56, 0
3, 93360, Note_on_c, 1, 57, 80
3, 93600, Note_on_c, 1, 57, 0
3, 93600, Note_on_c, 1, 56, 80
3, 93840, Note_on_c, 1, 56, 0
3, 93840, Note_on_c, 1, 57, 80
3, 94080, Note_on_c, 1, 57, 0
3, 94080, Note_on_c, 1, 58, 80
3, 94320, Note_on_c, 1, 58, 0
3, 94320, Note_on_c, 1, 46, 80
3, 94560, Note_on_c, 1, 46, 0
3, 94560, Note_on_c, 1, 58, 80
3, 94800, Note_on_c, 1, 58, 0
3, 94800, Note_on_c, 1, 58, 80
3, 95040, Note_on_c, 1, 58, 0
3, 95040, Note_on_c, 1, 62, 80
3, 95040, Note_on_c, 1, 58, 80
3, 96000, Note_on_c, 1, 58, 0
3, 96000, Note_on_c, 1, 62, 0
3, 96000, Note_on_c, 1, 63, 80
3, 96000, Note_on_c, 1, 60, 80
3, 96240, Note_on_c, 1, 60, 0
3, 96240, Note_on_c, 1, 63, 0
3, 96240, Note_on_c, 1, 62, 80
3, 96240, Note_on_c, 1, 58, 80
3, 96480, Note_on_c, 1, 58, 0
3, 96480, Note_on_c, 1, 62, 0
3, 96480, Note_on_c, 1, 63, 80
3, 96480, Note_on_c, 1, 60, 80
3, 96720, Note_on_c, 1, 60, 0
3, 96720, Note_on_c, 1, 63, 0
3, 96720, Note_on_c, 1, 62, 80
3, 96720, Note_on_c, 1, 58, 80
3, 96960, Note_on_c, 1, 58, 0
3, 96960, Note_on_c, 1, 62, 0
3, 96960, Note_on_c, 1, 63, 80
3, 96960, Note_on_c, 1, 60, 80
3, 97200, Note_on_c, 1, 60, 0
3, 97200, Note_on_c, 1, 63, 0
3, 97200, Note_on_c, 1, 62, 80
3, 97200, Note_on_c, 1, 58, 80
3, 97440, Note_on_c, 1, 58, 0
3, 97440, Note_on_c, 1, 62, 0
3, 97440, Note_on_c, 1, 63, 80
3, 97440, Note_on_c, 1, 60, 80
3, 97680, Note_on_c, 1, 60, 0
3, 97680, Note_on_c, 1, 63, 0
3, 97680, Note_on_c, 1, 62, 80
3, 97680, Note_on_c, 1, 58, 80
3, 97920, Note_on_c, 1, 58, 0
3, 97920, Note_on_c, 1, 62, 0
3, 97920, Note_on_c, 1, 61, 80
3, 97920, Note_on_c, 1, 57, 80
3, 98400, Note_on_c, 1, 57, 0
3, 98400, Note_on_c, 1, 61, 0
3, 98400, Note_on_c, 1, 64, 80
3, 98400, Note_on_c, 1, 45, 80
3, 98880, Note_on_c, 1, 45, 0
3, 98880, Note_on_c, 1, 64, 0
3, 99360, Note_on_c, 1, 57, 80
3, 99600, Note_on_c, 1, 57, 0
3, 99600, Note_on_c, 1, 57, 80
3, 99840, Note_on_c, 1, 57, 0
3, 99840, Note_on_c, 1, 62, 80
3, 100080, Note_on_c, 1, 62, 0
3, 100080, Note_on_c, 1, 50, 80
3, 100320, Note_on_c, 1, 50, 0
3, 100320, Note_on_c, 1, 45, 80
3, 100560, Note_on_c, 1, 45, 0
3, 100560, Note_on_c, 1, 57, 80
3, 100800, Note_on_c, 1, 57, 0
3, 100800, Note_on_c, 1, 62, 80
3, 101040, Note_on_c, 1, 62, 0
3, 101040, Note_on_c, 1, 50, 80
3, 101280, Note_on_c, 1, 50, 0
3, 101280, Note_on_c, 1, 45, 80
3, 101520, Note_on_c, 1, 45, 0
3, 101520, Note_on_c, 1, 57, 80
3, 101760, Note_on_c, 1, 57, 0
3, 101760, Note_on_c, 1, 62, 80
3, 102000, Note_on_c, 1, 62, 0
3, 102000, Note_on_c, 1, 50, 80
3, 102240, Note_on_c, 1, 50, 0
3, 102240, Note_on_c, 1, 57, 80
3, 102720, Note_on_c, 1, 57, 0
3, 103200, Note_on_c, 1, 62, 80
3, 103440, Note_on_c, 1, 62, 0
3, 103440, Note_on_c, 1, 50, 80
3, 103680, Note_on_c, 1, 50, 0
3, 103680, Note_on_c, 1, 49, 80
3, 103920, Note_on_c, 1, 49, 0
3, 103920, Note_on_c, 1, 61, 80
3, 104160, Note_on_c, 1, 61, 0
3, 104160, Note_on_c, 1, 62, 80
3, 104400, Note_on_c, 1, 62, 0
3, 104400, Note_on_c, 1, 50, 80
3, 104640, Note_on_c, 1, 50, 0
3, 104640, Note_on_c, 1, 49, 80
3, 104880, Note_on_c, 1, 49, 0
3, 104880, Note_on_c, 1, 61, 80
3, 105120, Note_on_c, 1, 61, 0
3, 105120, Note_on_c, 1, 62, 80
3, 105360, Note_on_c, 1, 62, 0
3, 105360, Note_on_c, 1, 50, 80
3, 105600, Note_on_c, 1, 50, 0
3, 105600, Note_on_c, 1, 49, 80
3, 105840, Note_on_c, 1, 49, 0
3, 105840, Note_on_c, 1, 61, 80
3, 106080, Note_on_c, 1, 61, 0
3, 106080, Note_on_c, 1, 62, 80
3, 106320, Note_on_c, 1, 62, 0
3, 106320, Note_on_c, 1, 57, 80
3, 106560, Note_on_c, 1, 57, 0
3, 106560, Note_on_c, 1, 53, 80
3, 106800, Note_on_c, 1, 53, 0
3, 106800, Note_on_c, 1, 50, 80
3, 107040, Note_on_c, 1, 50, 0
3, 107040, Note_on_c, 1, 53, 80
3, 107280, Note_on_c, 1, 53, 0
3, 107280, Note_on_c, 1, 57, 80
3, 107520, Note_on_c, 1, 57, 0
3, 107520, Note_on_c, 1, 50, 80
3, 107760, Note_on_c, 1, 50, 0
3, 107760, Note_on_c, 1, 53, 80
3, 108000, Note_on_c, 1, 53, 0
3, 108000, Note_on_c, 1, 57, 80
3, 108240, Note_on_c, 1, 57, 0
3, 108240, Note_on_c, 1, 62, 80
3, 108480, Note_on_c, 1, 62, 0
3, 108480, Note_on_c, 1, 50, 80
3, 108720, Note_on_c, 1, 50, 0
3, 108720, Note_on_c, 1, 53, 80
3, 108960, Note_on_c, 1, 53, 0
3, 108960, Note_on_c, 1, 57, 80
3, 109200, Note_on_c, 1, 57, 0
3, 109200, Note_on_c, 1, 62, 80
3, 109440, Note_on_c, 1, 62, 0
3, 109440, Note_on_c, 1, 53, 80
3, 109920, Note_on_c, 1, 53, 0
3, 109920, Note_on_c, 1, 62, 80
3, 109920, Note_on_c, 1, 53, 80
3, 110880, Note_on_c, 1, 53, 0
3, 110880, Note_on_c, 1, 62, 0
3, 110880, Note_on_c, 1, 62, 80
3, 110880, Note_on_c, 1, 53, 80
3, 111360, Note_on_c, 1, 53, 0
3, 111360, Note_on_c, 1, 62, 0
3, 111360, Note_on_c, 1, 65, 80
3, 111360, Note_on_c, 1, 62, 80
3, 111840, Note_on_c, 1, 62, 0
3, 111840, Note_on_c, 1, 65, 0
3, 111840, Note_on_c, 1, 62, 80
3, 111840, Note_on_c, 1, 58, 80
3, 112320, Note_on_c, 1, 58, 0
3, 112320, Note_on_c, 1, 62, 0
3, 112320, Note_on_c, 1, 55, 80
3, 112320, Note_on_c, 1, 58, 80
3, 112800, Note_on_c, 1, 55, 0
3, 112800, Note_on_c, 1, 52, 80
3, 113280, Note_on_c, 1, 52, 0
3, 113280, Note_on_c, 1, 58, 0
3, 113280, Note_on_c, 1, 45, 80
3, 113520, Note_on_c, 1, 45, 0
3, 113520, Note_on_c, 1, 57, 80
3, 113760, Note_on_c, 1, 57, 0
3, 113760, Note_on_c, 1, 50, 80
3, 114000, Note_on_c, 1, 50, 0
3, 114000, Note_on_c, 1, 53, 80
3, 114240, Note_on_c, 1, 53, 0
3, 114240, Note_on_c, 1, 57, 80
3, 114480, Note_on_c, 1, 57, 0
3, 114480, Note_on_c, 1, 55, 80
3, 114720, Note_on_c, 1, 55, 0
3, 114720, Note_on_c, 1, 57, 80
3, 114960, Note_on_c, 1, 57, 0
3, 114960, Note_on_c, 1, 45, 80
3, 115200, Note_on_c, 1, 45, 0
3, 115200, Note_on_c, 1, 50, 80
3, 115440, Note_on_c, 1, 50, 0
3, 115440, Note_on_c, 1, 53, 80
3, 115680, Note_on_c, 1, 53, 0
3, 115680, Note_on_c, 1, 57, 80
3, 115920, Note_on_c, 1, 57, 0
3, 115920, Note_on_c, 1, 62, 80
3, 116160, Note_on_c, 1, 62, 0
3, 116160, Note_on_c, 1, 50, 80
3, 116400, Note_on_c, 1, 50, 0
3, 116400, Note_on_c, 1, 53, 80
3, 116640, Note_on_c, 1, 53, 0
3, 116640, Note_on_c, 1, 57, 80
3, 116880, Note_on_c, 1, 57, 0
3, 116880, Note_on_c, 1, 62, 80
3, 117120, Note_on_c, 1, 62, 0
3, 117120, Note_on_c, 1, 46, 80
3, 117600, Note_on_c, 1, 46, 0
3, 117600, Note_on_c, 1, 62, 80
3, 117600, Note_on_c, 1, 58, 80
3, 118560, Note_on_c, 1, 58, 0
3, 118560, Note_on_c, 1, 62, 0
3, 118560, Note_on_c, 1, 62, 80
3, 118560, Note_on_c, 1, 58, 80
3, 119040, Note_on_c, 1, 58, 0
3, 119040, Note_on_c, 1, 62, 0
3, 119040, Note_on_c, 1, 67, 80
3, 119040, Note_on_c, 1, 58, 80
3, 119520, Note_on_c, 1, 58, 0
3, 119520, Note_on_c, 1, 67, 0
3, 119520, Note_on_c, 1, 63, 80
3, 119520, Note_on_c, 1, 55, 80
3, 120000, Note_on_c, 1, 55, 0
3, 120000, Note_on_c, 1, 63, 0
3, 120000, Note_on_c, 1, 43, 80
3, 120240, Note_on_c, 1, 43, 0
3, 120240, Note_on_c, 1, 46, 80
3, 120480, Note_on_c, 1, 46, 0
3, 120480, Note_on_c, 1, 51, 80
3, 120720, Note_on_c, 1, 51, 0
3, 120720, Note_on_c, 1, 55, 80
3, 120960, Note_on_c, 1, 55, 0
3, 120960, Note_on_c, 1, 45, 80
3, 121200, Note_on_c, 1, 45, 0
3, 121200, Note_on_c, 1, 57, 80
3, 121440, Note_on_c, 1, 57, 0
3, 121440, Note_on_c, 1, 50, 80
3, 121680, Note_on_c, 1, 50, 0
3, 121680, Note_on_c, 1, 53, 80
3, 121920, Note_on_c, 1, 53, 0
3, 121920, Note_on_c, 1, 57, 80
3, 122160, Note_on_c, 1, 57, 0
3, 122160, Note_on_c, 1, 55, 80
3, 122400, Note_on_c, 1, 55, 0
3, 122400, Note_on_c, 1, 57, 80
3, 122640, Note_on_c, 1, 57, 0
3, 122640, Note_on_c, 1, 45, 80
3, 122880, Note_on_c, 1, 45, 0
3, 122880, Note_on_c, 1, 50, 80
3, 123360, Note_on_c, 1, 50, 0
3, 123600, Note_on_c, 1, 57, 80
3, 123840, Note_on_c, 1, 57, 0
3, 123840, Note_on_c, 1, 62, 80
3, 124080, Note_on_c, 1, 62, 0
3, 124080, Note_on_c, 1, 65, 80
3, 124320, Note_on_c, 1, 65, 0
3, 124320, Note_on_c, 1, 64, 80
3, 124560, Note_on_c, 1, 64, 0
3, 124560, Note_on_c, 1, 62, 80
3, 124800, Note_on_c, 1, 62, 0
3, 124800, Note_on_c, 1, 61, 80
3, 125040, Note_on_c, 1, 61, 0
3, 125040, Note_on_c, 1, 58, 80
3, 125280, Note_on_c, 1, 58, 0
3, 125280, Note_on_c, 1, 55, 80
3, 125520, Note_on_c, 1, 55, 0
3, 125520, Note_on_c, 1, 53, 80
3, 125760, Note_on_c, 1, 53, 0
3, 125760, Note_on_c, 1, 52, 80
3, 126000, Note_on_c, 1, 52, 0
3, 126000, Note_on_c, 1, 50, 80
3, 126240, Note_on_c, 1, 50, 0
3, 126240, Note_on_c, 1, 49, 80
3, 126480, Note_on_c, 1, 49, 0
3, 126480, Note_on_c, 1, 52, 80
3, 126720, Note_on_c, 1, 52, 0
3, 126720, Note_on_c, 1, 50, 80
3, 126960, Note_on_c, 1, 50, 0
3, 126960, Note_on_c, 1, 53, 80
3, 127200, Note_on_c, 1, 53, 0
3, 127200, Note_on_c, 1, 55, 80
3, 127440, Note_on_c, 1, 55, 0
3, 127440, Note_on_c, 1, 58, 80
3, 127680, Note_on_c, 1, 58, 0
3, 127680, Note_on_c, 1, 57, 80
3, 127920, Note_on_c, 1, 57, 0
3, 127920, Note_on_c, 1, 55, 80
3, 128160, Note_on_c, 1, 55, 0
3, 128160, Note_on_c, 1, 57, 80
3, 128400, Note_on_c, 1, 57, 0
3, 128400, Note_on_c, 1, 45, 80
3, 128640, Note_on_c, 1, 45, 0
3, 128640, Note_on_c, 1, 50, 80
3, 129120, Note_on_c, 1, 50, 0
3, 129120, End_track
4, 0, Start_track
4, 0, MIDI_port, 0
4, 0, Title_t, "Track 3"
4, 0, Program_c, 2, 57
4, 0, Control_c, 2, 7, 106
4, 0, Control_c, 2, 10, 45
4, 11, Control_c, 2, 91, 80
4, 40, Note_on_c, 2, 74, 80
4, 40, Note_on_c, 2, 62, 80
4, 520, Note_on_c, 2, 62, 0
4, 520, Note_on_c, 2, 74, 0
4, 960, Note_on_c, 2, 74, 80
4, 960, Note_on_c, 2, 62, 80
4, 1440, Note_on_c, 2, 62, 0
4, 1440, Note_on_c, 2, 74, 0
4, 2400, Note_on_c, 2, 62, 80
4, 2400, Note_on_c, 2, 69, 80
4, 2640, Note_on_c, 2, 69, 0
4, 2640, Note_on_c, 2, 62, 0
4, 2640, Note_on_c, 2, 62, 80
4, 2640, Note_on_c, 2, 69, 80
4, 2880, Note_on_c, 2, 69, 0
4, 2880, Note_on_c, 2, 62, 0
4, 2880, Note_on_c, 2, 62, 80
4, 2880, Note_on_c, 2, 69, 80
4, 3120, Note_on_c, 2, 69, 0
4, 3120, Note_on_c, 2, 62, 0
4, 3120, Note_on_c, 2, 62, 80
4, 3120, Note_on_c, 2, 69, 80
4, 3360, Note_on_c, 2, 69, 0
4, 3360, Note_on_c, 2, 62, 0
4, 3360, Note_on_c, 2, 62, 80
4, 3360, Note_on_c, 2, 69, 80
4, 3600, Note_on_c, 2, 69, 0
4, 3600, Note_on_c, 2, 62, 0
4, 3600, Note_on_c, 2, 62, 80
4, 3600, Note_on_c, 2, 69, 80
4, 3840, Note_on_c, 2, 69, 0
4, 3840, Note_on_c, 2, 62, 0
4, 3840, Note_on_c, 2, 57, 80
4, 3840, Note_on_c, 2, 69, 80
4, 4320, Note_on_c, 2, 69, 0
4, 4320, Note_on_c, 2, 57, 0
4, 4800, Note_on_c, 2, 57, 80
4, 4800, Note_on_c, 2, 69, 80
4, 5280, Note_on_c, 2, 69, 0
4, 5280, Note_on_c, 2, 57, 0
4, 6240, Note_on_c, 2, 62, 80
4, 6240, Note_on_c, 2, 69, 80
4, 6480, Note_on_c, 2, 69, 0
4, 6480, Note_on_c, 2, 62, 0
4, 6480, Note_on_c, 2, 62, 80
4, 6480, Note_on_c, 2, 69, 80
4, 6720, Note_on_c, 2, 69, 0
4, 6720, Note_on_c, 2, 62, 0
4, 6720, Note_on_c, 2, 62, 80
4, 6720, Note_on_c, 2, 69, 80
4, 6960, Note_on_c, 2, 69, 0
4, 6960, Note_on_c, 2, 62, 0
4, 6960, Note_on_c, 2, 62, 80
4, 6960, Note_on_c, 2, 69, 80
4, 7200, Note_on_c, 2, 69, 0
4, 7200, Note_on_c, 2, 62, 0
4, 7200, Note_on_c, 2, 62, 80
4, 7200, Note_on_c, 2, 69, 80
4, 7440, Note_on_c, 2, 69, 0
4, 7440, Note_on_c, 2, 62, 0
4, 7440, Note_on_c, 2, 62, 80
4, 7440, Note_on_c, 2, 69, 80
4, 7680, Note_on_c, 2, 69, 0
4, 7680, Note_on_c, 2, 62, 0
4, 8160, Note_on_c, 2, 62, 80
4, 8160, Note_on_c, 2, 69, 80
4, 8400, Note_on_c, 2, 69, 0
4, 8400, Note_on_c, 2, 62, 0
4, 8400, Note_on_c, 2, 62, 80
4, 8400, Note_on_c, 2, 69, 80
4, 8640, Note_on_c, 2, 69, 0
4, 8640, Note_on_c, 2, 62, 0
4, 8640, Note_on_c, 2, 62, 80
4, 8640, Note_on_c, 2, 69, 80
4, 9120, Note_on_c, 2, 69, 0
4, 9120, Note_on_c, 2, 62, 0
4, 10080, Note_on_c, 2, 62, 80
4, 10080, Note_on_c, 2, 69, 80
4, 10320, Note_on_c, 2, 69, 0
4, 10320, Note_on_c, 2, 62, 0
4, 10320, Note_on_c, 2, 62, 80
4, 10320, Note_on_c, 2, 69, 80
4, 10560, Note_on_c, 2, 69, 0
4, 10560, Note_on_c, 2, 62, 0
4, 10560, Note_on_c, 2, 62, 80
4, 10560, Note_on_c, 2, 69, 80
4, 11040, Note_on_c, 2, 69, 0
4, 11040, Note_on_c, 2, 62, 0
4, 11520, Note_on_c, 2, 74, 80
4, 11520, Note_on_c, 2, 62, 80
4, 12480, Note_on_c, 2, 62, 0
4, 12480, Note_on_c, 2, 74, 0
4, 12480, Note_on_c, 2, 74, 80
4, 12480, Note_on_c, 2, 67, 80
4, 12960, Note_on_c, 2, 67, 0
4, 12960, Note_on_c, 2, 74, 0
4, 12960, Note_on_c, 2, 74, 80
4, 12960, Note_on_c, 2, 62, 80
4, 13440, Note_on_c, 2, 62, 0
4, 13440, Note_on_c, 2, 74, 0
4, 13440, Note_on_c, 2, 57, 80
4, 13440, Note_on_c, 2, 69, 80
4, 13920, Note_on_c, 2, 69, 0
4, 13920, Note_on_c, 2, 57, 0
4, 13920, Note_on_c, 2, 57, 80
4, 13920, Note_on_c, 2, 69, 80
4, 14160, Note_on_c, 2, 69, 0
4, 14160, Note_on_c, 2, 57, 0
4, 14160, Note_on_c, 2, 57, 80
4, 14160, Note_on_c, 2, 69, 80
4, 14400, Note_on_c, 2, 69, 0
4, 14400, Note_on_c, 2, 57, 0
4, 14400, Note_on_c, 2, 69, 80
4, 14640, Note_on_c, 2, 69, 0
4, 14640, Note_on_c, 2, 69, 80
4, 14880, Note_on_c, 2, 69, 0
4, 14880, Note_on_c, 2, 69, 80
4, 15120, Note_on_c, 2, 69, 0
4, 15120, Note_on_c, 2, 69, 80
4, 15360, Note_on_c, 2, 69, 0
4, 15360, Note_on_c, 2, 57, 80
4, 15360, Note_on_c, 2, 69, 80
4, 15840, Note_on_c, 2, 69, 0
4, 15840, Note_on_c, 2, 57, 0
4, 22080, Note_on_c, 2, 62, 80
4, 22080, Note_on_c, 2, 74, 80
4, 22320, Note_on_c, 2, 74, 0
4, 22320, Note_on_c, 2, 62, 0
4, 22320, Note_on_c, 2, 62, 80
4, 22320, Note_on_c, 2, 74, 80
4, 22560, Note_on_c, 2, 74, 0
4, 22560, Note_on_c, 2, 62, 0
4, 22560, Note_on_c, 2, 62, 80
4, 22560, Note_on_c, 2, 74, 80
4, 22800, Note_on_c, 2, 74, 0
4, 22800, Note_on_c, 2, 62, 0
4, 22800, Note_on_c, 2, 62, 80
4, 22800, Note_on_c, 2, 74, 80
4, 23040, Note_on_c, 2, 74, 0
4, 23040, Note_on_c, 2, 62, 0
4, 23040, Note_on_c, 2, 74, 80
4, 23040, Note_on_c, 2, 62, 80
4, 23520, Note_on_c, 2, 62, 0
4, 23520, Note_on_c, 2, 74, 0
4, 27840, Note_on_c, 2, 74, 80
4, 28080, Note_on_c, 2, 74, 0
4, 28080, Note_on_c, 2, 74, 80
4, 28320, Note_on_c, 2, 74, 0
4, 28320, Note_on_c, 2, 74, 80
4, 28560, Note_on_c, 2, 74, 0
4, 28560, Note_on_c, 2, 74, 80
4, 28800, Note_on_c, 2, 74, 0
4, 28800, Note_on_c, 2, 76, 80
4, 28800, Note_on_c, 2, 69, 80
4, 29280, Note_on_c, 2, 69, 0
4, 29280, Note_on_c, 2, 76, 0
4, 29760, Note_on_c, 2, 76, 80
4, 29760, Note_on_c, 2, 62, 80
4, 30240, Note_on_c, 2, 62, 0
4, 30240, Note_on_c, 2, 76, 0
4, 30720, Note_on_c, 2, 76, 80
4, 30720, Note_on_c, 2, 69, 80
4, 31200, Note_on_c, 2, 69, 0
4, 31200, Note_on_c, 2, 76, 0
4, 31680, Note_on_c, 2, 74, 80
4, 31680, Note_on_c, 2, 62, 80
4, 32160, Note_on_c, 2, 62, 0
4, 32160, Note_on_c, 2, 74, 0
4, 32640, Note_on_c, 2, 74, 80
4, 33120, Note_on_c, 2, 74, 0
4, 33120, Note_on_c, 2, 74, 80
4, 33600, Note_on_c, 2, 74, 0
4, 33600, Note_on_c, 2, 74, 80
4, 33840, Note_on_c, 2, 74, 0
4, 33840, Note_on_c, 2, 74, 80
4, 34080, Note_on_c, 2, 74, 0
4, 34080, Note_on_c, 2, 74, 80
4, 34320, Note_on_c, 2, 74, 0
4, 34320, Note_on_c, 2, 74, 80
4, 34560, Note_on_c, 2, 74, 0
4, 34560, Note_on_c, 2, 76, 80
4, 34560, Note_on_c, 2, 69, 80
4, 35040, Note_on_c, 2, 69, 0
4, 35040, Note_on_c, 2, 76, 0
4, 40320, Note_on_c, 2, 76, 80
4, 40320, Note_on_c, 2, 69, 80
4, 40800, Note_on_c, 2, 69, 0
4, 40800, Note_on_c, 2, 76, 0
4, 41280, Note_on_c, 2, 76, 80
4, 41280, Note_on_c, 2, 69, 80
4, 41760, Note_on_c, 2, 69, 0
4, 41760, Note_on_c, 2, 76, 0
4, 42240, Note_on_c, 2, 76, 80
4, 44160, Note_on_c, 2, 76, 0
4, 44160, Note_on_c, 2, 76, 80
4, 44640, Note_on_c, 2, 76, 0
4, 45120, Note_on_c, 2, 76, 80
4, 45600, Note_on_c, 2, 76, 0
4, 46080, Note_on_c, 2, 69, 80
4, 46320, Note_on_c, 2, 69, 0
4, 46320, Note_on_c, 2, 69, 80
4, 46440, Note_on_c, 2, 69, 0
4, 46440, Note_on_c, 2, 69, 80
4, 46560, Note_on_c, 2, 69, 0
4, 46560, Note_on_c, 2, 69, 80
4, 46800, Note_on_c, 2, 69, 0
4, 46800, Note_on_c, 2, 69, 80
4, 47040, Note_on_c, 2, 69, 0
4, 47040, Note_on_c, 2, 69, 80
4, 47280, Note_on_c, 2, 69, 0
4, 47280, Note_on_c, 2, 69, 80
4, 47520, Note_on_c, 2, 69, 0
4, 47520, Note_on_c, 2, 69, 80
4, 47760, Note_on_c, 2, 69, 0
4, 47760, Note_on_c, 2, 69, 80
4, 48000, Note_on_c, 2, 69, 0
4, 48000, Note_on_c, 2, 62, 80
4, 48000, Note_on_c, 2, 69, 80
4, 48480, Note_on_c, 2, 69, 0
4, 48480, Note_on_c, 2, 62, 0
4, 48480, Note_on_c, 2, 57, 80
4, 48480, Note_on_c, 2, 69, 80
4, 48720, Note_on_c, 2, 69, 0
4, 48720, Note_on_c, 2, 57, 0
4, 48720, Note_on_c, 2, 57, 80
4, 48720, Note_on_c, 2, 69, 80
4, 48960, Note_on_c, 2, 69, 0
4, 48960, Note_on_c, 2, 57, 0
4, 48960, Note_on_c, 2, 57, 80
4, 48960, Note_on_c, 2, 69, 80
4, 49440, Note_on_c, 2, 69, 0
4, 49440, Note_on_c, 2, 57, 0
4, 50400, Note_on_c, 2, 57, 80
4, 50400, Note_on_c, 2, 69, 80
4, 50640, Note_on_c, 2, 69, 0
4, 50640, Note_on_c, 2, 57, 0
4, 50640, Note_on_c, 2, 57, 80
4, 50640, Note_on_c, 2, 69, 80
4, 50880, Note_on_c, 2, 69, 0
4, 50880, Note_on_c, 2, 57, 0
4, 50880, Note_on_c, 2, 57, 80
4, 50880, Note_on_c, 2, 69, 80
4, 51360, Note_on_c, 2, 69, 0
4, 51360, Note_on_c, 2, 57, 0
4, 74880, Note_on_c, 2, 57, 80
4, 74880, Note_on_c, 2, 69, 80
4, 75120, Note_on_c, 2, 69, 0
4, 75120, Note_on_c, 2, 57, 0
4, 75120, Note_on_c, 2, 57, 80
4, 75120, Note_on_c, 2, 69, 80
4, 75240, Note_on_c, 2, 69, 0
4, 75240, Note_on_c, 2, 57, 0
4, 75240, Note_on_c, 2, 57, 80
4, 75240, Note_on_c, 2, 69, 80
4, 75360, Note_on_c, 2, 69, 0
4, 75360, Note_on_c, 2, 57, 0
4, 75360, Note_on_c, 2, 57, 80
4, 75360, Note_on_c, 2, 69, 80
4, 75600, Note_on_c, 2, 69, 0
4, 75600, Note_on_c, 2, 57, 0
4, 75600, Note_on_c, 2, 57, 80
4, 75600, Note_on_c, 2, 69, 80
4, 75840, Note_on_c, 2, 69, 0
4, 75840, Note_on_c, 2, 57, 0
4, 75840, Note_on_c, 2, 57, 80
4, 75840, Note_on_c, 2, 69, 80
4, 76320, Note_on_c, 2, 69, 0
4, 76320, Note_on_c, 2, 57, 0
4, 83520, Note_on_c, 2, 57, 80
4, 83520, Note_on_c, 2, 69, 80
4, 84000, Note_on_c, 2, 69, 0
4, 84000, Note_on_c, 2, 57, 0
4, 91200, Note_on_c, 2, 57, 80
4, 91200, Note_on_c, 2, 69, 80
4, 91680, Note_on_c, 2, 69, 0
4, 91680, Note_on_c, 2, 57, 0
4, 95040, Note_on_c, 2, 74, 80
4, 95040, Note_on_c, 2, 62, 80
4, 96000, Note_on_c, 2, 62, 0
4, 96000, Note_on_c, 2, 74, 0
4, 97920, Note_on_c, 2, 57, 80
4, 97920, Note_on_c, 2, 69, 80
4, 98160, Note_on_c, 2, 69, 0
4, 98160, Note_on_c, 2, 57, 0
4, 98160, Note_on_c, 2, 57, 80
4, 98160, Note_on_c, 2, 69, 80
4, 98280, Note_on_c, 2, 69, 0
4, 98280, Note_on_c, 2, 57, 0
4, 98280, Note_on_c, 2, 57, 80
4, 98280, Note_on_c, 2, 69, 80
4, 98400, Note_on_c, 2, 69, 0
4, 98400, Note_on_c, 2, 57, 0
4, 98400, Note_on_c, 2, 57, 80
4, 98400, Note_on_c, 2, 69, 80
4, 98640, Note_on_c, 2, 69, 0
4, 98640, Note_on_c, 2, 57, 0
4, 98640, Note_on_c, 2, 57, 80
4, 98640, Note_on_c, 2, 69, 80
4, 98880, Note_on_c, 2, 69, 0
4, 98880, Note_on_c, 2, 57, 0
4, 98880, Note_on_c, 2, 57, 80
4, 98880, Note_on_c, 2, 69, 80
4, 99120, Note_on_c, 2, 69, 0
4, 99120, Note_on_c, 2, 57, 0
4, 99120, Note_on_c, 2, 57, 80
4, 99120, Note_on_c, 2, 69, 80
4, 99360, Note_on_c, 2, 69, 0
4, 99360, Note_on_c, 2, 57, 0
4, 99360, Note_on_c, 2, 57, 80
4, 99360, Note_on_c, 2, 69, 80
4, 99600, Note_on_c, 2, 69, 0
4, 99600, Note_on_c, 2, 57, 0
4, 99600, Note_on_c, 2, 57, 80
4, 99600, Note_on_c, 2, 69, 80
4, 99840, Note_on_c, 2, 69, 0
4, 99840, Note_on_c, 2, 57, 0
4, 99840, Note_on_c, 2, 62, 80
4, 99840, Note_on_c, 2, 69, 80
4, 100080, Note_on_c, 2, 69, 0
4, 100080, Note_on_c, 2, 62, 0
4, 100080, Note_on_c, 2, 62, 80
4, 100080, Note_on_c, 2, 69, 80
4, 100320, Note_on_c, 2, 69, 0
4, 100320, Note_on_c, 2, 62, 0
4, 100320, Note_on_c, 2, 57, 80
4, 100320, Note_on_c, 2, 69, 80
4, 100560, Note_on_c, 2, 69, 0
4, 100560, Note_on_c, 2, 57, 0
4, 100560, Note_on_c, 2, 57, 80
4, 100560, Note_on_c, 2, 69, 80
4, 100800, Note_on_c, 2, 69, 0
4, 100800, Note_on_c, 2, 57, 0
4, 100800, Note_on_c, 2, 62, 80
4, 100800, Note_on_c, 2, 69, 80
4, 101040, Note_on_c, 2, 69, 0
4, 101040, Note_on_c, 2, 62, 0
4, 101040, Note_on_c, 2, 62, 80
4, 101040, Note_on_c, 2, 69, 80
4, 101280, Note_on_c, 2, 69, 0
4, 101280, Note_on_c, 2, 62, 0
4, 101280, Note_on_c, 2, 57, 80
4, 101280, Note_on_c, 2, 69, 80
4, 101520, Note_on_c, 2, 69, 0
4, 101520, Note_on_c, 2, 57, 0
4, 101520, Note_on_c, 2, 57, 80
4, 101520, Note_on_c, 2, 69, 80
4, 101760, Note_on_c, 2, 69, 0
4, 101760, Note_on_c, 2, 57, 0
4, 101760, Note_on_c, 2, 62, 80
4, 101760, Note_on_c, 2, 69, 80
4, 102240, Note_on_c, 2, 69, 0
4, 102240, Note_on_c, 2, 62, 0
4, 102240, Note_on_c, 2, 57, 80
4, 102240, Note_on_c, 2, 69, 80
4, 102480, Note_on_c, 2, 69, 0
4, 102480, Note_on_c, 2, 57, 0
4, 102480, Note_on_c, 2, 57, 80
4, 102480, Note_on_c, 2, 69, 80
4, 102720, Note_on_c, 2, 69, 0
4, 102720, Note_on_c, 2, 57, 0
4, 102720, Note_on_c, 2, 57, 80
4, 102720, Note_on_c, 2, 69, 80
4, 103200, Note_on_c, 2, 69, 0
4, 103200, Note_on_c, 2, 57, 0
4, 103200, Note_on_c, 2, 62, 80
4, 103200, Note_on_c, 2, 69, 80
4, 103440, Note_on_c, 2, 69, 0
4, 103440, Note_on_c, 2, 62, 0
4, 103440, Note_on_c, 2, 62, 80
4, 103440, Note_on_c, 2, 69, 80
4, 103680, Note_on_c, 2, 69, 0
4, 103680, Note_on_c, 2, 62, 0
4, 103680, Note_on_c, 2, 57, 80
4, 103680, Note_on_c, 2, 69, 80
4, 103920, Note_on_c, 2, 69, 0
4, 103920, Note_on_c, 2, 57, 0
4, 103920, Note_on_c, 2, 57, 80
4, 103920, Note_on_c, 2, 69, 80
4, 104160, Note_on_c, 2, 69, 0
4, 104160, Note_on_c, 2, 57, 0
4, 104160, Note_on_c, 2, 62, 80
4, 104160, Note_on_c, 2, 69, 80
4, 104400, Note_on_c, 2, 69, 0
4, 104400, Note_on_c, 2, 62, 0
4, 104400, Note_on_c, 2, 62, 80
4, 104400, Note_on_c, 2, 69, 80
4, 104640, Note_on_c, 2, 69, 0
4, 104640, Note_on_c, 2, 62, 0
4, 104640, Note_on_c, 2, 57, 80
4, 104640, Note_on_c, 2, 69, 80
4, 104880, Note_on_c, 2, 69, 0
4, 104880, Note_on_c, 2, 57, 0
4, 104880, Note_on_c, 2, 57, 80
4, 104880, Note_on_c, 2, 69, 80
4, 105120, Note_on_c, 2, 69, 0
4, 105120, Note_on_c, 2, 57, 0
4, 105120, Note_on_c, 2, 62, 80
4, 105120, Note_on_c, 2, 69, 80
4, 105360, Note_on_c, 2, 69, 0
4, 105360, Note_on_c, 2, 62, 0
4, 105360, Note_on_c, 2, 62, 80
4, 105360, Note_on_c, 2, 69, 80
4, 105600, Note_on_c, 2, 69, 0
4, 105600, Note_on_c, 2, 62, 0
4, 105600, Note_on_c, 2, 57, 80
4, 105600, Note_on_c, 2, 69, 80
4, 106080, Note_on_c, 2, 69, 0
4, 106080, Note_on_c, 2, 57, 0
4, 106080, Note_on_c, 2, 62, 80
4, 106080, Note_on_c, 2, 69, 80
4, 106560, Note_on_c, 2, 69, 0
4, 106560, Note_on_c, 2, 62, 0
4, 107520, Note_on_c, 2, 74, 80
4, 107520, Note_on_c, 2, 62, 80
4, 108000, Note_on_c, 2, 62, 0
4, 108000, Note_on_c, 2, 74, 0
4, 109440, Note_on_c, 2, 74, 80
4, 109440, Note_on_c, 2, 62, 80
4, 109920, Note_on_c, 2, 62, 0
4, 109920, Note_on_c, 2, 74, 0
4, 111360, Note_on_c, 2, 74, 80
4, 111360, Note_on_c, 2, 62, 80
4, 111840, Note_on_c, 2, 62, 0
4, 111840, Note_on_c, 2, 74, 0
4, 113280, Note_on_c, 2, 76, 80
4, 113280, Note_on_c, 2, 69, 80
4, 113760, Note_on_c, 2, 69, 0
4, 113760, Note_on_c, 2, 76, 0
4, 113760, Note_on_c, 2, 74, 80
4, 113760, Note_on_c, 2, 62, 80
4, 114240, Note_on_c, 2, 62, 0
4, 114240, Note_on_c, 2, 74, 0
4, 114240, Note_on_c, 2, 57, 80
4, 114240, Note_on_c, 2, 69, 80
4, 115200, Note_on_c, 2, 69, 0
4, 115200, Note_on_c, 2, 57, 0
4, 115200, Note_on_c, 2, 74, 80
4, 115200, Note_on_c, 2, 62, 80
4, 115680, Note_on_c, 2, 62, 0
4, 115680, Note_on_c, 2, 74, 0
4, 117120, Note_on_c, 2, 74, 80
4, 117120, Note_on_c, 2, 62, 80
4, 117600, Note_on_c, 2, 62, 0
4, 117600, Note_on_c, 2, 74, 0
4, 120960, Note_on_c, 2, 57, 80
4, 120960, Note_on_c, 2, 69, 80
4, 121440, Note_on_c, 2, 69, 0
4, 121440, Note_on_c, 2, 57, 0
4, 121440, Note_on_c, 2, 62, 80
4, 121440, Note_on_c, 2, 69, 80
4, 121680, Note_on_c, 2, 69, 0
4, 121680, Note_on_c, 2, 62, 0
4, 121680, Note_on_c, 2, 62, 80
4, 121680, Note_on_c, 2, 69, 80
4, 121920, Note_on_c, 2, 69, 0
4, 121920, Note_on_c, 2, 62, 0
4, 121920, Note_on_c, 2, 57, 80
4, 121920, Note_on_c, 2, 69, 80
4, 122400, Note_on_c, 2, 69, 0
4, 122400, Note_on_c, 2, 57, 0
4, 122400, Note_on_c, 2, 57, 80
4, 122400, Note_on_c, 2, 69, 80
4, 122640, Note_on_c, 2, 69, 0
4, 122640, Note_on_c, 2, 57, 0
4, 122640, Note_on_c, 2, 57, 80
4, 122640, Note_on_c, 2, 69, 80
4, 122880, Note_on_c, 2, 69, 0
4, 122880, Note_on_c, 2, 57, 0
4, 122880, Note_on_c, 2, 62, 80
4, 122880, Note_on_c, 2, 69, 80
4, 123360, Note_on_c, 2, 69, 0
4, 123360, Note_on_c, 2, 62, 0
4, 126720, Note_on_c, 2, 74, 80
4, 126720, Note_on_c, 2, 62, 80
4, 127200, Note_on_c, 2, 62, 0
4, 127200, Note_on_c, 2, 74, 0
4, 127680, Note_on_c, 2, 57, 80
4, 127680, Note_on_c, 2, 69, 80
4, 128160, Note_on_c, 2, 69, 0
4, 128160, Note_on_c, 2, 57, 0
4, 128160, Note_on_c, 2, 57, 80
4, 128160, Note_on_c, 2, 69, 80
4, 128400, Note_on_c, 2, 69, 0
4, 128400, Note_on_c, 2, 57, 0
4, 128400, Note_on_c, 2, 57, 80
4, 128400, Note_on_c, 2, 69, 80
4, 128640, Note_on_c, 2, 69, 0
4, 128640, Note_on_c, 2, 57, 0
4, 128640, Note_on_c, 2, 62, 80
4, 128640, Note_on_c, 2, 69, 80
4, 129120, Note_on_c, 2, 69, 0
4, 129120, Note_on_c, 2, 62, 0
4, 129120, End_track
5, 0, Start_track
5, 0, MIDI_port, 0
5, 0, Title_t, "Track 4"
5, 0, Program_c, 3, 47
5, 0, Control_c, 3, 7, 113
5, 0, Control_c, 3, 10, 64
5, 14, Control_c, 3, 91, 90
5, 40, Note_on_c, 3, 50, 80
5, 520, Note_on_c, 3, 50, 0
5, 960, Note_on_c, 3, 50, 80
5, 1440, Note_on_c, 3, 50, 0
5, 2400, Note_on_c, 3, 50, 80
5, 2640, Note_on_c, 3, 50, 0
5, 2640, Note_on_c, 3, 50, 80
5, 2880, Note_on_c, 3, 50, 0
5, 2880, Note_on_c, 3, 50, 80
5, 3120, Note_on_c, 3, 50, 0
5, 3120, Note_on_c, 3, 50, 80
5, 3360, Note_on_c, 3, 50, 0
5, 3360, Note_on_c, 3, 50, 80
5, 3600, Note_on_c, 3, 50, 0
5, 3600, Note_on_c, 3, 50, 80
5, 3840, Note_on_c, 3, 50, 0
5, 3840, Note_on_c, 3, 45, 80
5, 4320, Note_on_c, 3, 45, 0
5, 4800, Note_on_c, 3, 45, 80
5, 5280, Note_on_c, 3, 45, 0
5, 6240, Note_on_c, 3, 50, 80
5, 6480, Note_on_c, 3, 50, 0
5, 6480, Note_on_c, 3, 50, 80
5, 6720, Note_on_c, 3, 50, 0
5, 6720, Note_on_c, 3, 50, 80
5, 6960, Note_on_c, 3, 50, 0
5, 6960, Note_on_c, 3, 50, 80
5, 7200, Note_on_c, 3, 50, 0
5, 7200, Note_on_c, 3, 50, 80
5, 7440, Note_on_c, 3, 50, 0
5, 7440, Note_on_c, 3, 50, 80
5, 7680, Note_on_c, 3, 50, 0
5, 8160, Note_on_c, 3, 50, 80
5, 8400, Note_on_c, 3, 50, 0
5, 8400, Note_on_c, 3, 50, 80
5, 8640, Note_on_c, 3, 50, 0
5, 8640, Note_on_c, 3, 50, 80
5, 9120, Note_on_c, 3, 50, 0
5, 10080, Note_on_c, 3, 50, 80
5, 10320, Note_on_c, 3, 50, 0
5, 10320, Note_on_c, 3, 50, 80
5, 10560, Note_on_c, 3, 50, 0
5, 10560, Note_on_c, 3, 50, 80
5, 11040, Note_on_c, 3, 50, 0
5, 11520, Note_on_c, 3, 50, 80
5, 11760, Note_on_c, 3, 50, 0
5, 11760, Note_on_c, 3, 50, 80
5, 12000, Note_on_c, 3, 50, 0
5, 12000, Note_on_c, 3, 50, 80
5, 12240, Note_on_c, 3, 50, 0
5, 12240, Note_on_c, 3, 50, 80
5, 12480, Note_on_c, 3, 50, 0
5, 12480, Note_on_c, 3, 45, 80
5, 12960, Note_on_c, 3, 45, 0
5, 12960, Note_on_c, 3, 50, 80
5, 13440, Note_on_c, 3, 50, 0
5, 13440, Note_on_c, 3, 45, 80
5, 13680, Note_on_c, 3, 45, 0
5, 13680, Note_on_c, 3, 45, 80
5, 13800, Note_on_c, 3, 45, 0
5, 13800, Note_on_c, 3, 45, 80
5, 13920, Note_on_c, 3, 45, 0
5, 13920, Note_on_c, 3, 45, 80
5, 14160, Note_on_c, 3, 45, 0
5, 14160, Note_on_c, 3, 45, 80
5, 14400, Note_on_c, 3, 45, 0
5, 14400, Note_on_c, 3, 45, 80
5, 14640, Note_on_c, 3, 45, 0
5, 14640, Note_on_c, 3, 45, 80
5, 14880, Note_on_c, 3, 45, 0
5, 14880, Note_on_c, 3, 45, 80
5, 15120, Note_on_c, 3, 45, 0
5, 15120, Note_on_c, 3, 45, 80
5, 15360, Note_on_c, 3, 45, 0
5, 15360, Note_on_c, 3, 45, 80
5, 15840, Note_on_c, 3, 45, 0
5, 22080, Note_on_c, 3, 50, 80
5, 22320, Note_on_c, 3, 50, 0
5, 22320, Note_on_c, 3, 50, 80
5, 22560, Note_on_c, 3, 50, 0
5, 22560, Note_on_c, 3, 50, 80
5, 22800, Note_on_c, 3, 50, 0
5, 22800, Note_on_c, 3, 50, 80
5, 23040, Note_on_c, 3, 50, 0
5, 23040, Note_on_c, 3, 50, 80
5, 23520, Note_on_c, 3, 50, 0
5, 28800, Note_on_c, 3, 45, 80
5, 29280, Note_on_c, 3, 45, 0
5, 29760, Note_on_c, 3, 50, 80
5, 30240, Note_on_c, 3, 50, 0
5, 30720, Note_on_c, 3, 45, 80
5, 31200, Note_on_c, 3, 45, 0
5, 31680, Note_on_c, 3, 50, 80
5, 32160, Note_on_c, 3, 50, 0
5, 34560, Note_on_c, 3, 45, 80
5, 35040, Note_on_c, 3, 45, 0
5, 40320, Note_on_c, 3, 45, 80
5, 40800, Note_on_c, 3, 45, 0
5, 41280, Note_on_c, 3, 45, 80
5, 41760, Note_on_c, 3, 45, 0
5, 42240, Note_on_c, 3, 45, 80
5, 42480, Note_on_c, 3, 45, 0
5, 42480, Note_on_c, 3, 45, 80
5, 42600, Note_on_c, 3, 45, 0
5, 42600, Note_on_c, 3, 45, 80
5, 42720, Note_on_c, 3, 45, 0
5, 42720, Note_on_c, 3, 45, 80
5, 42960, Note_on_c, 3, 45, 0
5, 42960, Note_on_c, 3, 45, 80
5, 43200, Note_on_c, 3, 45, 0
5, 43200, Note_on_c, 3, 45, 80
5, 43440, Note_on_c, 3, 45, 0
5, 43440, Note_on_c, 3, 45, 80
5, 43680, Note_on_c, 3, 45, 0
5, 43680, Note_on_c, 3, 45, 80
5, 43920, Note_on_c, 3, 45, 0
5, 43920, Note_on_c, 3, 45, 80
5, 44160, Note_on_c, 3, 45, 0
5, 44160, Note_on_c, 3, 45, 80
5, 44640, Note_on_c, 3, 45, 0
5, 46080, Note_on_c, 3, 45, 80
5, 46320, Note_on_c, 3, 45, 0
5, 46320, Note_on_c, 3, 45, 80
5, 46440, Note_on_c, 3, 45, 0
5, 46440, Note_on_c, 3, 45, 80
5, 46560, Note_on_c, 3, 45, 0
5, 46560, Note_on_c, 3, 45, 80
5, 46800, Note_on_c, 3, 45, 0
5, 46800, Note_on_c, 3, 45, 80
5, 47040, Note_on_c, 3, 45, 0
5, 47040, Note_on_c, 3, 45, 80
5, 47280, Note_on_c, 3, 45, 0
5, 47280, Note_on_c, 3, 45, 80
5, 47520, Note_on_c, 3, 45, 0
5, 47520, Note_on_c, 3, 45, 80
5, 47760, Note_on_c, 3, 45, 0
5, 47760, Note_on_c, 3, 45, 80
5, 48000, Note_on_c, 3, 45, 0
5, 48000, Note_on_c, 3, 50, 80
5, 48480, Note_on_c, 3, 50, 0
5, 48480, Note_on_c, 3, 45, 80
5, 48720, Note_on_c, 3, 45, 0
5, 48720, Note_on_c, 3, 45, 80
5, 48960, Note_on_c, 3, 45, 0
5, 48960, Note_on_c, 3, 45, 80
5, 49200, Note_on_c, 3, 45, 0
5, 50400, Note_on_c, 3, 45, 80
5, 50640, Note_on_c, 3, 45, 0
5, 50640, Note_on_c, 3, 45, 80
5, 50880, Note_on_c, 3, 45, 0
5, 50880, Note_on_c, 3, 45, 80
5, 51360, Note_on_c, 3, 45, 0
5, 74880, Note_on_c, 3, 45, 80
5, 75120, Note_on_c, 3, 45, 0
5, 75120, Note_on_c, 3, 45, 80
5, 75240, Note_on_c, 3, 45, 0
5, 75240, Note_on_c, 3, 45, 80
5, 75360, Note_on_c, 3, 45, 0
5, 75360, Note_on_c, 3, 45, 80
5, 75600, Note_on_c, 3, 45, 0
5, 75600, Note_on_c, 3, 45, 80
5, 75840, Note_on_c, 3, 45, 0
5, 75840, Note_on_c, 3, 45, 80
5, 76320, Note_on_c, 3, 45, 0
5, 83520, Note_on_c, 3, 45, 80
5, 84000, Note_on_c, 3, 45, 0
5, 91200, Note_on_c, 3, 45, 80
5, 91680, Note_on_c, 3, 45, 0
5, 95040, Note_on_c, 3, 50, 80
5, 95280, Note_on_c, 3, 50, 0
5, 95280, Note_on_c, 3, 50, 80
5, 95400, Note_on_c, 3, 50, 0
5, 95400, Note_on_c, 3, 50, 80
5, 95520, Note_on_c, 3, 50, 0
5, 95520, Note_on_c, 3, 50, 80
5, 95760, Note_on_c, 3, 50, 0
5, 95760, Note_on_c, 3, 50, 80
5, 96000, Note_on_c, 3, 50, 0
5, 97920, Note_on_c, 3, 45, 80
5, 98160, Note_on_c, 3, 45, 0
5, 98160, Note_on_c, 3, 45, 80
5, 98280, Note_on_c, 3, 45, 0
5, 98280, Note_on_c, 3, 45, 80
5, 98400, Note_on_c, 3, 45, 0
5, 98400, Note_on_c, 3, 45, 80
5, 98640, Note_on_c, 3, 45, 0
5, 98640, Note_on_c, 3, 45, 80
5, 98880, Note_on_c, 3, 45, 0
5, 98880, Note_on_c, 3, 45, 80
5, 99120, Note_on_c, 3, 45, 0
5, 99120, Note_on_c, 3, 45, 80
5, 99360, Note_on_c, 3, 45, 0
5, 99360, Note_on_c, 3, 45, 80
5, 99600, Note_on_c, 3, 45, 0
5, 99600, Note_on_c, 3, 45, 80
5, 99840, Note_on_c, 3, 45, 0
5, 99840, Note_on_c, 3, 45, 80
5, 100320, Note_on_c, 3, 45, 0
5, 100320, Note_on_c, 3, 50, 80
5, 100800, Note_on_c, 3, 50, 0
5, 100800, Note_on_c, 3, 45, 80
5, 101280, Note_on_c, 3, 45, 0
5, 101280, Note_on_c, 3, 50, 80
5, 101760, Note_on_c, 3, 50, 0
5, 101760, Note_on_c, 3, 50, 80
5, 102240, Note_on_c, 3, 50, 0
5, 102240, Note_on_c, 3, 45, 80
5, 102480, Note_on_c, 3, 45, 0
5, 102480, Note_on_c, 3, 45, 80
5, 102720, Note_on_c, 3, 45, 0
5, 102720, Note_on_c, 3, 45, 80
5, 103200, Note_on_c, 3, 45, 0
5, 103200, Note_on_c, 3, 50, 80
5, 103680, Note_on_c, 3, 50, 0
5, 103680, Note_on_c, 3, 45, 80
5, 104160, Note_on_c, 3, 45, 0
5, 104160, Note_on_c, 3, 50, 80
5, 104640, Note_on_c, 3, 50, 0
5, 104640, Note_on_c, 3, 45, 80
5, 105120, Note_on_c, 3, 45, 0
5, 105120, Note_on_c, 3, 50, 80
5, 105600, Note_on_c, 3, 50, 0
5, 105600, Note_on_c, 3, 45, 80
5, 106080, Note_on_c, 3, 45, 0
5, 106080, Note_on_c, 3, 50, 80
5, 106560, Note_on_c, 3, 50, 0
5, 107520, Note_on_c, 3, 50, 80
5, 108000, Note_on_c, 3, 50, 0
5, 109440, Note_on_c, 3, 50, 80
5, 109920, Note_on_c, 3, 50, 0
5, 111360, Note_on_c, 3, 50, 80
5, 111840, Note_on_c, 3, 50, 0
5, 113280, Note_on_c, 3, 45, 80
5, 113760, Note_on_c, 3, 45, 0
5, 113760, Note_on_c, 3, 50, 80
5, 114000, Note_on_c, 3, 50, 0
5, 114000, Note_on_c, 3, 50, 80
5, 114240, Note_on_c, 3, 50, 0
5, 114240, Note_on_c, 3, 45, 80
5, 114720, Note_on_c, 3, 45, 0
5, 114720, Note_on_c, 3, 45, 80
5, 114960, Note_on_c, 3, 45, 0
5, 114960, Note_on_c, 3, 45, 80
5, 115200, Note_on_c, 3, 45, 0
5, 115200, Note_on_c, 3, 50, 80
5, 115680, Note_on_c, 3, 50, 0
5, 117120, Note_on_c, 3, 50, 80
5, 117600, Note_on_c, 3, 50, 0
5, 120960, Note_on_c, 3, 45, 80
5, 121440, Note_on_c, 3, 45, 0
5, 121440, Note_on_c, 3, 50, 80
5, 121680, Note_on_c, 3, 50, 0
5, 121680, Note_on_c, 3, 50, 80
5, 121920, Note_on_c, 3, 50, 0
5, 121920, Note_on_c, 3, 45, 80
5, 122400, Note_on_c, 3, 45, 0
5, 122400, Note_on_c, 3, 45, 80
5, 122640, Note_on_c, 3, 45, 0
5, 122640, Note_on_c, 3, 45, 80
5, 122880, Note_on_c, 3, 45, 0
5, 122880, Note_on_c, 3, 50, 80
5, 123360, Note_on_c, 3, 50, 0
5, 126720, Note_on_c, 3, 50, 80
5, 127200, Note_on_c, 3, 50, 0
5, 127680, Note_on_c, 3, 45, 80
5, 128160, Note_on_c, 3, 45, 0
5, 128160, Note_on_c, 3, 45, 80
5, 128400, Note_on_c, 3, 45, 0
5, 128400, Note_on_c, 3, 45, 80
5, 128640, Note_on_c, 3, 45, 0
5, 128640, Note_on_c, 3, 50, 80
5, 129120, Note_on_c, 3, 50, 0
5, 129120, End_track
6, 0, Start_track
6, 0, MIDI_port, 0
6, 0, Title_t, "Track 5"
6, 0, Program_c, 4, 48
6, 0, Control_c, 4, 7, 114
6, 0, Control_c, 4, 10, 30
6, 17, Control_c, 4, 91, 80
6, 40, Note_on_c, 4, 74, 90
6, 120, Note_on_c, 4, 69, 90
6, 160, Note_on_c, 4, 74, 0
6, 240, Note_on_c, 4, 69, 0
6, 240, Note_on_c, 4, 69, 90
6, 360, Note_on_c, 4, 69, 0
6, 360, Note_on_c, 4, 69, 90
6, 480, Note_on_c, 4, 69, 0
6, 480, Note_on_c, 4, 69, 90
6, 600, Note_on_c, 4, 69, 0
6, 600, Note_on_c, 4, 69, 90
6, 720, Note_on_c, 4, 69, 0
6, 720, Note_on_c, 4, 69, 90
6, 840, Note_on_c, 4, 69, 0
6, 840, Note_on_c, 4, 69, 90
6, 960, Note_on_c, 4, 69, 0
6, 960, Note_on_c, 4, 74, 90
6, 1080, Note_on_c, 4, 74, 0
6, 1080, Note_on_c, 4, 69, 90
6, 1200, Note_on_c, 4, 69, 0
6, 1200, Note_on_c, 4, 69, 90
6, 1320, Note_on_c, 4, 69, 0
6, 1320, Note_on_c, 4, 69, 90
6, 1440, Note_on_c, 4, 69, 0
6, 1440, Note_on_c, 4, 69, 90
6, 1560, Note_on_c, 4, 69, 0
6, 1560, Note_on_c, 4, 69, 90
6, 1680, Note_on_c, 4, 69, 0
6, 1680, Note_on_c, 4, 69, 90
6, 1800, Note_on_c, 4, 69, 0
6, 1800, Note_on_c, 4, 69, 90
6, 1920, Note_on_c, 4, 69, 0
6, 1920, Note_on_c, 4, 76, 90
6, 2160, Note_on_c, 4, 76, 0
6, 2160, Note_on_c, 4, 69, 90
6, 2640, Note_on_c, 4, 69, 0
6, 2640, Note_on_c, 4, 69, 90
6, 3120, Note_on_c, 4, 69, 0
6, 3120, Note_on_c, 4, 69, 90
6, 3600, Note_on_c, 4, 69, 0
6, 3600, Note_on_c, 4, 69, 90
6, 3840, Note_on_c, 4, 69, 0
6, 3840, Note_on_c, 4, 67, 90
6, 3960, Note_on_c, 4, 67, 0
6, 3960, Note_on_c, 4, 67, 90
6, 4080, Note_on_c, 4, 67, 0
6, 4080, Note_on_c, 4, 67, 90
6, 4200, Note_on_c, 4, 67, 0
6, 4200, Note_on_c, 4, 67, 90
6, 4320, Note_on_c, 4, 67, 0
6, 4320, Note_on_c, 4, 67, 90
6, 4440, Note_on_c, 4, 67, 0
6, 4440, Note_on_c, 4, 67, 90
6, 4560, Note_on_c, 4, 67, 0
6, 4560, Note_on_c, 4, 67, 90
6, 4680, Note_on_c, 4, 67, 0
6, 4680, Note_on_c, 4, 67, 90
6, 4800, Note_on_c, 4, 67, 0
6, 4800, Note_on_c, 4, 67, 90
6, 4920, Note_on_c, 4, 67, 0
6, 4920, Note_on_c, 4, 67, 90
6, 5040, Note_on_c, 4, 67, 0
6, 5040, Note_on_c, 4, 67, 90
6, 5160, Note_on_c, 4, 67, 0
6, 5160, Note_on_c, 4, 67, 90
6, 5280, Note_on_c, 4, 67, 0
6, 5280, Note_on_c, 4, 67, 90
6, 5400, Note_on_c, 4, 67, 0
6, 5400, Note_on_c, 4, 67, 90
6, 5520, Note_on_c, 4, 67, 0
6, 5520, Note_on_c, 4, 67, 90
6, 5640, Note_on_c, 4, 67, 0
6, 5640, Note_on_c, 4, 67, 90
6, 5760, Note_on_c, 4, 67, 0
6, 5760, Note_on_c, 4, 77, 90
6, 6000, Note_on_c, 4, 77, 0
6, 6000, Note_on_c, 4, 69, 90
6, 6480, Note_on_c, 4, 69, 0
6, 6480, Note_on_c, 4, 69, 90
6, 6960, Note_on_c, 4, 69, 0
6, 6960, Note_on_c, 4, 69, 90
6, 7200, Note_on_c, 4, 69, 0
6, 7200, Note_on_c, 4, 74, 90
6, 7440, Note_on_c, 4, 74, 0
6, 7440, Note_on_c, 4, 74, 90
6, 7680, Note_on_c, 4, 74, 0
6, 7680, Note_on_c, 4, 73, 90
6, 8160, Note_on_c, 4, 73, 0
6, 8160, Note_on_c, 4, 74, 90
6, 8280, Note_on_c, 4, 74, 0
6, 8280, Note_on_c, 4, 69, 90
6, 8400, Note_on_c, 4, 69, 0
6, 8400, Note_on_c, 4, 74, 90
6, 8520, Note_on_c, 4, 74, 0
6, 8520, Note_on_c, 4, 77, 90
6, 8640, Note_on_c, 4, 77, 0
6, 8640, Note_on_c, 4, 81, 90
6, 8880, Note_on_c, 4, 81, 0
6, 8880, Note_on_c, 4, 81, 90
6, 9360, Note_on_c, 4, 81, 0
6, 9360, Note_on_c, 4, 81, 90
6, 10080, Note_on_c, 4, 81, 0
6, 10080, Note_on_c, 4, 77, 90
6, 10200, Note_on_c, 4, 77, 0
6, 10200, Note_on_c, 4, 74, 90
6, 10320, Note_on_c, 4, 74, 0
6, 10320, Note_on_c, 4, 77, 90
6, 10440, Note_on_c, 4, 77, 0
6, 10440, Note_on_c, 4, 81, 90
6, 10560, Note_on_c, 4, 81, 0
6, 10560, Note_on_c, 4, 86, 90
6, 10800, Note_on_c, 4, 86, 0
6, 10800, Note_on_c, 4, 86, 90
6, 11280, Note_on_c, 4, 86, 0
6, 11280, Note_on_c, 4, 86, 90
6, 11520, Note_on_c, 4, 86, 0
6, 11520, Note_on_c, 4, 86, 90
6, 11760, Note_on_c, 4, 86, 0
6, 11760, Note_on_c, 4, 79, 90
6, 11880, Note_on_c, 4, 79, 0
6, 11880, Note_on_c, 4, 79, 90
6, 12000, Note_on_c, 4, 79, 0
6, 12000, Note_on_c, 4, 77, 90
6, 12120, Note_on_c, 4, 77, 0
6, 12120, Note_on_c, 4, 77, 90
6, 12240, Note_on_c, 4, 77, 0
6, 12240, Note_on_c, 4, 86, 90
6, 12360, Note_on_c, 4, 86, 0
6, 12360, Note_on_c, 4, 86, 90
6, 12480, Note_on_c, 4, 86, 0
6, 12480, Note_on_c, 4, 76, 90
6, 12600, Note_on_c, 4, 76, 0
6, 12600, Note_on_c, 4, 76, 90
6, 12720, Note_on_c, 4, 76, 0
6, 12720, Note_on_c, 4, 85, 90
6, 12840, Note_on_c, 4, 85, 0
6, 12840, Note_on_c, 4, 85, 90
6, 12960, Note_on_c, 4, 85, 0
6, 12960, Note_on_c, 4, 86, 90
6, 13080, Note_on_c, 4, 86, 0
6, 13080, Note_on_c, 4, 86, 90
6, 13200, Note_on_c, 4, 86, 0
6, 13200, Note_on_c, 4, 77, 90
6, 13320, Note_on_c, 4, 77, 0
6, 13320, Note_on_c, 4, 77, 90
6, 13440, Note_on_c, 4, 77, 0
6, 13440, Note_on_c, 4, 77, 90
6, 13800, Note_on_c, 4, 77, 0
6, 13800, Note_on_c, 4, 76, 90
6, 13860, Note_on_c, 4, 76, 0
6, 13860, Note_on_c, 4, 77, 90
6, 13920, Note_on_c, 4, 77, 0
6, 13920, Note_on_c, 4, 76, 90
6, 14160, Note_on_c, 4, 76, 0
6, 14160, Note_on_c, 4, 81, 90
6, 14400, Note_on_c, 4, 81, 0
6, 14400, Note_on_c, 4, 69, 90
6, 14640, Note_on_c, 4, 69, 0
6, 14640, Note_on_c, 4, 69, 90
6, 15120, Note_on_c, 4, 69, 0
6, 15120, Note_on_c, 4, 69, 90
6, 15600, Note_on_c, 4, 69, 0
6, 15600, Note_on_c, 4, 69, 90
6, 15720, Note_on_c, 4, 69, 0
6, 15720, Note_on_c, 4, 69, 90
6, 15840, Note_on_c, 4, 69, 0
6, 15840, Note_on_c, 4, 70, 90
6, 15960, Note_on_c, 4, 70, 0
6, 15960, Note_on_c, 4, 70, 90
6, 16080, Note_on_c, 4, 70, 0
6, 16080, Note_on_c, 4, 71, 90
6, 16200, Note_on_c, 4, 71, 0
6, 16200, Note_on_c, 4, 71, 90
6, 16320, Note_on_c, 4, 71, 0
6, 16320, Note_on_c, 4, 72, 90
6, 16440, Note_on_c, 4, 72, 0
6, 16440, Note_on_c, 4, 72, 90
6, 16560, Note_on_c, 4, 72, 0
6, 16560, Note_on_c, 4, 73, 90
6, 16680, Note_on_c, 4, 73, 0
6, 16680, Note_on_c, 4, 73, 90
6, 16800, Note_on_c, 4, 73, 0
6, 16800, Note_on_c, 4, 74, 90
6, 16920, Note_on_c, 4, 74, 0
6, 16920, Note_on_c, 4, 74, 90
6, 17040, Note_on_c, 4, 74, 0
6, 17040, Note_on_c, 4, 76, 90
6, 17160, Note_on_c, 4, 76, 0
6, 17160, Note_on_c, 4, 76, 90
6, 17280, Note_on_c, 4, 76, 0
6, 17280, Note_on_c, 4, 77, 90
6, 17400, Note_on_c, 4, 77, 0
6, 17400, Note_on_c, 4, 72, 90
6, 17520, Note_on_c, 4, 72, 0
6, 17520, Note_on_c, 4, 72, 90
6, 17640, Note_on_c, 4, 72, 0
6, 17640, Note_on_c, 4, 72, 90
6, 17760, Note_on_c, 4, 72, 0
6, 17760, Note_on_c, 4, 72, 90
6, 17880, Note_on_c, 4, 72, 0
6, 17880, Note_on_c, 4, 72, 90
6, 18000, Note_on_c, 4, 72, 0
6, 18000, Note_on_c, 4, 72, 90
6, 18120, Note_on_c, 4, 72, 0
6, 18120, Note_on_c, 4, 72, 90
6, 18240, Note_on_c, 4, 72, 0
6, 18240, Note_on_c, 4, 77, 90
6, 18360, Note_on_c, 4, 77, 0
6, 18360, Note_on_c, 4, 72, 90
6, 18480, Note_on_c, 4, 72, 0
6, 18480, Note_on_c, 4, 72, 90
6, 18600, Note_on_c, 4, 72, 0
6, 18600, Note_on_c, 4, 72, 90
6, 18720, Note_on_c, 4, 72, 0
6, 18720, Note_on_c, 4, 72, 90
6, 18840, Note_on_c, 4, 72, 0
6, 18840, Note_on_c, 4, 72, 90
6, 18960, Note_on_c, 4, 72, 0
6, 18960, Note_on_c, 4, 72, 90
6, 19080, Note_on_c, 4, 72, 0
6, 19080, Note_on_c, 4, 72, 90
6, 19200, Note_on_c, 4, 72, 0
6, 19200, Note_on_c, 4, 77, 90
6, 19320, Note_on_c, 4, 77, 0
6, 19320, Note_on_c, 4, 77, 90
6, 19440, Note_on_c, 4, 77, 0
6, 19440, Note_on_c, 4, 77, 90
6, 19560, Note_on_c, 4, 77, 0
6, 19560, Note_on_c, 4, 77, 90
6, 19680, Note_on_c, 4, 77, 0
6, 19680, Note_on_c, 4, 65, 90
6, 19800, Note_on_c, 4, 65, 0
6, 19800, Note_on_c, 4, 65, 90
6, 19920, Note_on_c, 4, 65, 0
6, 19920, Note_on_c, 4, 65, 90
6, 20040, Note_on_c, 4, 65, 0
6, 20040, Note_on_c, 4, 65, 90
6, 20160, Note_on_c, 4, 65, 0
6, 20160, Note_on_c, 4, 69, 90
6, 20280, Note_on_c, 4, 69, 0
6, 20280, Note_on_c, 4, 69, 90
6, 20400, Note_on_c, 4, 69, 0
6, 20400, Note_on_c, 4, 69, 90
6, 20520, Note_on_c, 4, 69, 0
6, 20520, Note_on_c, 4, 69, 90
6, 20640, Note_on_c, 4, 69, 0
6, 20640, Note_on_c, 4, 72, 90
6, 20760, Note_on_c, 4, 72, 0
6, 20760, Note_on_c, 4, 72, 90
6, 20880, Note_on_c, 4, 72, 0
6, 20880, Note_on_c, 4, 72, 90
6, 21000, Note_on_c, 4, 72, 0
6, 21000, Note_on_c, 4, 72, 90
6, 21120, Note_on_c, 4, 72, 0
6, 21120, Note_on_c, 4, 75, 90
6, 21240, Note_on_c, 4, 75, 0
6, 21240, Note_on_c, 4, 72, 90
6, 21360, Note_on_c, 4, 72, 0
6, 21360, Note_on_c, 4, 72, 90
6, 21480, Note_on_c, 4, 72, 0
6, 21480, Note_on_c, 4, 72, 90
6, 21600, Note_on_c, 4, 72, 0
6, 21600, Note_on_c, 4, 72, 90
6, 21720, Note_on_c, 4, 72, 0
6, 21720, Note_on_c, 4, 72, 90
6, 21840, Note_on_c, 4, 72, 0
6, 21840, Note_on_c, 4, 72, 90
6, 21960, Note_on_c, 4, 72, 0
6, 21960, Note_on_c, 4, 72, 90
6, 22080, Note_on_c, 4, 72, 0
6, 22080, Note_on_c, 4, 74, 90
6, 22200, Note_on_c, 4, 74, 0
6, 22200, Note_on_c, 4, 72, 90
6, 22320, Note_on_c, 4, 72, 0
6, 22320, Note_on_c, 4, 72, 90
6, 22440, Note_on_c, 4, 72, 0
6, 22440, Note_on_c, 4, 72, 90
6, 22560, Note_on_c, 4, 72, 0
6, 22560, Note_on_c, 4, 72, 90
6, 22680, Note_on_c, 4, 72, 0
6, 22680, Note_on_c, 4, 72, 90
6, 22800, Note_on_c, 4, 72, 0
6, 22800, Note_on_c, 4, 72, 90
6, 22920, Note_on_c, 4, 72, 0
6, 22920, Note_on_c, 4, 72, 90
6, 23040, Note_on_c, 4, 72, 0
6, 23040, Note_on_c, 4, 79, 90
6, 23160, Note_on_c, 4, 79, 0
6, 23160, Note_on_c, 4, 74, 90
6, 23280, Note_on_c, 4, 74, 0
6, 23280, Note_on_c, 4, 74, 90
6, 23400, Note_on_c, 4, 74, 0
6, 23400, Note_on_c, 4, 74, 90
6, 23520, Note_on_c, 4, 74, 0
6, 23520, Note_on_c, 4, 74, 90
6, 23640, Note_on_c, 4, 74, 0
6, 23640, Note_on_c, 4, 74, 90
6, 23760, Note_on_c, 4, 74, 0
6, 23760, Note_on_c, 4, 74, 90
6, 23880, Note_on_c, 4, 74, 0
6, 23880, Note_on_c, 4, 74, 90
6, 24000, Note_on_c, 4, 74, 0
6, 24000, Note_on_c, 4, 79, 90
6, 24120, Note_on_c, 4, 79, 0
6, 24120, Note_on_c, 4, 74, 90
6, 24240, Note_on_c, 4, 74, 0
6, 24240, Note_on_c, 4, 74, 90
6, 24360, Note_on_c, 4, 74, 0
6, 24360, Note_on_c, 4, 74, 90
6, 24480, Note_on_c, 4, 74, 0
6, 24480, Note_on_c, 4, 74, 90
6, 24600, Note_on_c, 4, 74, 0
6, 24600, Note_on_c, 4, 74, 90
6, 24720, Note_on_c, 4, 74, 0
6, 24720, Note_on_c, 4, 74, 90
6, 24840, Note_on_c, 4, 74, 0
6, 24840, Note_on_c, 4, 74, 90
6, 24960, Note_on_c, 4, 74, 0
6, 24960, Note_on_c, 4, 71, 90
6, 25080, Note_on_c, 4, 71, 0
6, 25080, Note_on_c, 4, 71, 90
6, 25200, Note_on_c, 4, 71, 0
6, 25200, Note_on_c, 4, 71, 90
6, 25320, Note_on_c, 4, 71, 0
6, 25320, Note_on_c, 4, 71, 90
6, 25440, Note_on_c, 4, 71, 0
6, 25440, Note_on_c, 4, 67, 90
6, 25560, Note_on_c, 4, 67, 0
6, 25560, Note_on_c, 4, 67, 90
6, 25680, Note_on_c, 4, 67, 0
6, 25680, Note_on_c, 4, 67, 90
6, 25800, Note_on_c, 4, 67, 0
6, 25800, Note_on_c, 4, 67, 90
6, 25920, Note_on_c, 4, 67, 0
6, 25920, Note_on_c, 4, 71, 90
6, 26040, Note_on_c, 4, 71, 0
6, 26040, Note_on_c, 4, 71, 90
6, 26160, Note_on_c, 4, 71, 0
6, 26160, Note_on_c, 4, 71, 90
6, 26280, Note_on_c, 4, 71, 0
6, 26280, Note_on_c, 4, 71, 90
6, 26400, Note_on_c, 4, 71, 0
6, 26400, Note_on_c, 4, 74, 90
6, 26520, Note_on_c, 4, 74, 0
6, 26520, Note_on_c, 4, 74, 90
6, 26640, Note_on_c, 4, 74, 0
6, 26640, Note_on_c, 4, 74, 90
6, 26760, Note_on_c, 4, 74, 0
6, 26760, Note_on_c, 4, 74, 90
6, 26880, Note_on_c, 4, 74, 0
6, 26880, Note_on_c, 4, 77, 90
6, 27000, Note_on_c, 4, 77, 0
6, 27000, Note_on_c, 4, 74, 90
6, 27120, Note_on_c, 4, 74, 0
6, 27120, Note_on_c, 4, 74, 90
6, 27240, Note_on_c, 4, 74, 0
6, 27240, Note_on_c, 4, 74, 90
6, 27360, Note_on_c, 4, 74, 0
6, 27360, Note_on_c, 4, 74, 90
6, 27480, Note_on_c, 4, 74, 0
6, 27480, Note_on_c, 4, 74, 90
6, 27600, Note_on_c, 4, 74, 0
6, 27600, Note_on_c, 4, 74, 90
6, 27720, Note_on_c, 4, 74, 0
6, 27720, Note_on_c, 4, 74, 90
6, 27840, Note_on_c, 4, 74, 0
6, 27840, Note_on_c, 4, 76, 90
6, 27960, Note_on_c, 4, 76, 0
6, 27960, Note_on_c, 4, 74, 90
6, 28080, Note_on_c, 4, 74, 0
6, 28080, Note_on_c, 4, 74, 90
6, 28200, Note_on_c, 4, 74, 0
6, 28200, Note_on_c, 4, 74, 90
6, 28320, Note_on_c, 4, 74, 0
6, 28320, Note_on_c, 4, 74, 90
6, 28440, Note_on_c, 4, 74, 0
6, 28440, Note_on_c, 4, 74, 90
6, 28560, Note_on_c, 4, 74, 0
6, 28560, Note_on_c, 4, 74, 90
6, 28680, Note_on_c, 4, 74, 0
6, 28680, Note_on_c, 4, 74, 90
6, 28800, Note_on_c, 4, 74, 0
6, 28800, Note_on_c, 4, 81, 90
6, 28920, Note_on_c, 4, 81, 0
6, 28920, Note_on_c, 4, 76, 90
6, 29040, Note_on_c, 4, 76, 0
6, 29040, Note_on_c, 4, 76, 90
6, 29160, Note_on_c, 4, 76, 0
6, 29160, Note_on_c, 4, 76, 90
6, 29280, Note_on_c, 4, 76, 0
6, 29280, Note_on_c, 4, 76, 90
6, 29400, Note_on_c, 4, 76, 0
6, 29400, Note_on_c, 4, 76, 90
6, 29520, Note_on_c, 4, 76, 0
6, 29520, Note_on_c, 4, 76, 90
6, 29640, Note_on_c, 4, 76, 0
6, 29640, Note_on_c, 4, 76, 90
6, 29760, Note_on_c, 4, 76, 0
6, 29760, Note_on_c, 4, 80, 90
6, 29880, Note_on_c, 4, 80, 0
6, 29880, Note_on_c, 4, 76, 90
6, 30000, Note_on_c, 4, 76, 0
6, 30000, Note_on_c, 4, 76, 90
6, 30120, Note_on_c, 4, 76, 0
6, 30120, Note_on_c, 4, 76, 90
6, 30240, Note_on_c, 4, 76, 0
6, 30240, Note_on_c, 4, 76, 90
6, 30360, Note_on_c, 4, 76, 0
6, 30360, Note_on_c, 4, 76, 90
6, 30480, Note_on_c, 4, 76, 0
6, 30480, Note_on_c, 4, 76, 90
6, 30600, Note_on_c, 4, 76, 0
6, 30600, Note_on_c, 4, 76, 90
6, 30720, Note_on_c, 4, 76, 0
6, 30720, Note_on_c, 4, 81, 90
6, 30840, Note_on_c, 4, 81, 0
6, 30840, Note_on_c, 4, 76, 90
6, 30960, Note_on_c, 4, 76, 0
6, 30960, Note_on_c, 4, 76, 90
6, 31080, Note_on_c, 4, 76, 0
6, 31080, Note_on_c, 4, 76, 90
6, 31200, Note_on_c, 4, 76, 0
6, 31200, Note_on_c, 4, 76, 90
6, 31320, Note_on_c, 4, 76, 0
6, 31320, Note_on_c, 4, 76, 90
6, 31440, Note_on_c, 4, 76, 0
6, 31440, Note_on_c, 4, 76, 90
6, 31560, Note_on_c, 4, 76, 0
6, 31560, Note_on_c, 4, 76, 90
6, 31680, Note_on_c, 4, 76, 0
6, 31680, Note_on_c, 4, 77, 90
6, 31800, Note_on_c, 4, 77, 0
6, 31800, Note_on_c, 4, 74, 90
6, 31920, Note_on_c, 4, 74, 0
6, 31920, Note_on_c, 4, 74, 90
6, 32040, Note_on_c, 4, 74, 0
6, 32040, Note_on_c, 4, 74, 90
6, 32160, Note_on_c, 4, 74, 0
6, 32160, Note_on_c, 4, 74, 90
6, 32280, Note_on_c, 4, 74, 0
6, 32280, Note_on_c, 4, 74, 90
6, 32400, Note_on_c, 4, 74, 0
6, 32400, Note_on_c, 4, 74, 90
6, 32520, Note_on_c, 4, 74, 0
6, 32520, Note_on_c, 4, 74, 90
6, 32640, Note_on_c, 4, 74, 0
6, 32640, Note_on_c, 4, 74, 90
6, 32760, Note_on_c, 4, 74, 0
6, 32760, Note_on_c, 4, 74, 90
6, 32880, Note_on_c, 4, 74, 0
6, 32880, Note_on_c, 4, 71, 90
6, 33000, Note_on_c, 4, 71, 0
6, 33000, Note_on_c, 4, 71, 90
6, 33120, Note_on_c, 4, 71, 0
6, 33120, Note_on_c, 4, 72, 90
6, 33240, Note_on_c, 4, 72, 0
6, 33240, Note_on_c, 4, 72, 90
6, 33360, Note_on_c, 4, 72, 0
6, 33360, Note_on_c, 4, 81, 90
6, 33480, Note_on_c, 4, 81, 0
6, 33480, Note_on_c, 4, 81, 90
6, 33600, Note_on_c, 4, 81, 0
6, 33600, Note_on_c, 4, 71, 90
6, 33720, Note_on_c, 4, 71, 0
6, 33720, Note_on_c, 4, 71, 90
6, 33840, Note_on_c, 4, 71, 0
6, 33840, Note_on_c, 4, 81, 90
6, 33960, Note_on_c, 4, 81, 0
6, 33960, Note_on_c, 4, 81, 90
6, 34080, Note_on_c, 4, 81, 0
6, 34080, Note_on_c, 4, 71, 90
6, 34200, Note_on_c, 4, 71, 0
6, 34200, Note_on_c, 4, 71, 90
6, 34320, Note_on_c, 4, 71, 0
6, 34320, Note_on_c, 4, 80, 90
6, 34440, Note_on_c, 4, 80, 0
6, 34440, Note_on_c, 4, 80, 90
6, 34560, Note_on_c, 4, 80, 0
6, 34560, Note_on_c, 4, 69, 90
6, 34680, Note_on_c, 4, 69, 0
6, 34680, Note_on_c, 4, 69, 90
6, 34800, Note_on_c, 4, 69, 0
6, 34800, Note_on_c, 4, 84, 90
6, 34920, Note_on_c, 4, 84, 0
6, 34920, Note_on_c, 4, 84, 90
6, 35040, Note_on_c, 4, 84, 0
6, 35040, Note_on_c, 4, 81, 90
6, 35160, Note_on_c, 4, 81, 0
6, 35160, Note_on_c, 4, 81, 90
6, 35280, Note_on_c, 4, 81, 0
6, 35280, Note_on_c, 4, 79, 90
6, 35400, Note_on_c, 4, 79, 0
6, 35400, Note_on_c, 4, 79, 90
6, 35520, Note_on_c, 4, 79, 0
6, 35520, Note_on_c, 4, 77, 90
6, 35640, Note_on_c, 4, 77, 0
6, 35640, Note_on_c, 4, 77, 90
6, 35760, Note_on_c, 4, 77, 0
6, 35760, Note_on_c, 4, 76, 90
6, 35880, Note_on_c, 4, 76, 0
6, 35880, Note_on_c, 4, 76, 90
6, 36000, Note_on_c, 4, 76, 0
6, 36000, Note_on_c, 4, 75, 90
6, 36120, Note_on_c, 4, 75, 0
6, 36120, Note_on_c, 4, 75, 90
6, 36240, Note_on_c, 4, 75, 0
6, 36240, Note_on_c, 4, 78, 90
6, 36360, Note_on_c, 4, 78, 0
6, 36360, Note_on_c, 4, 78, 90
6, 36480, Note_on_c, 4, 78, 0
6, 36480, Note_on_c, 4, 76, 90
6, 36600, Note_on_c, 4, 76, 0
6, 36600, Note_on_c, 4, 76, 90
6, 36720, Note_on_c, 4, 76, 0
6, 36720, Note_on_c, 4, 74, 90
6, 36840, Note_on_c, 4, 74, 0
6, 36840, Note_on_c, 4, 74, 90
6, 36960, Note_on_c, 4, 74, 0
6, 36960, Note_on_c, 4, 83, 90
6, 37080, Note_on_c, 4, 83, 0
6, 37080, Note_on_c, 4, 83, 90
6, 37200, Note_on_c, 4, 83, 0
6, 37200, Note_on_c, 4, 81, 90
6, 37320, Note_on_c, 4, 81, 0
6, 37320, Note_on_c, 4, 81, 90
6, 37440, Note_on_c, 4, 81, 0
6, 37440, Note_on_c, 4, 80, 90
6, 37560, Note_on_c, 4, 80, 0
6, 37560, Note_on_c, 4, 80, 90
6, 37680, Note_on_c, 4, 80, 0
6, 37680, Note_on_c, 4, 77, 90
6, 37800, Note_on_c, 4, 77, 0
6, 37800, Note_on_c, 4, 77, 90
6, 37920, Note_on_c, 4, 77, 0
6, 37920, Note_on_c, 4, 76, 90
6, 38040, Note_on_c, 4, 76, 0
6, 38040, Note_on_c, 4, 76, 90
6, 38160, Note_on_c, 4, 76, 0
6, 38160, Note_on_c, 4, 74, 90
6, 38280, Note_on_c, 4, 74, 0
6, 38280, Note_on_c, 4, 74, 90
6, 38400, Note_on_c, 4, 74, 0
6, 38400, Note_on_c, 4, 72, 90
6, 38520, Note_on_c, 4, 72, 0
6, 38520, Note_on_c, 4, 72, 90
6, 38640, Note_on_c, 4, 72, 0
6, 38640, Note_on_c, 4, 81, 90
6, 38760, Note_on_c, 4, 81, 0
6, 38760, Note_on_c, 4, 81, 90
6, 38880, Note_on_c, 4, 81, 0
6, 38880, Note_on_c, 4, 77, 90
6, 39000, Note_on_c, 4, 77, 0
6, 39000, Note_on_c, 4, 77, 90
6, 39120, Note_on_c, 4, 77, 0
6, 39120, Note_on_c, 4, 74, 90
6, 39240, Note_on_c, 4, 74, 0
6, 39240, Note_on_c, 4, 74, 90
6, 39360, Note_on_c, 4, 74, 0
6, 39360, Note_on_c, 4, 72, 90
6, 39480, Note_on_c, 4, 72, 0
6, 39480, Note_on_c, 4, 72, 90
6, 39600, Note_on_c, 4, 72, 0
6, 39600, Note_on_c, 4, 81, 90
6, 39720, Note_on_c, 4, 81, 0
6, 39720, Note_on_c, 4, 81, 90
6, 39840, Note_on_c, 4, 81, 0
6, 39840, Note_on_c, 4, 71, 90
6, 39960, Note_on_c, 4, 71, 0
6, 39960, Note_on_c, 4, 71, 90
6, 40080, Note_on_c, 4, 71, 0
6, 40080, Note_on_c, 4, 80, 90
6, 40200, Note_on_c, 4, 80, 0
6, 40200, Note_on_c, 4, 80, 90
6, 40320, Note_on_c, 4, 80, 0
6, 40320, Note_on_c, 4, 81, 90
6, 40440, Note_on_c, 4, 81, 0
6, 40440, Note_on_c, 4, 72, 90
6, 40560, Note_on_c, 4, 72, 0
6, 40560, Note_on_c, 4, 72, 90
6, 40680, Note_on_c, 4, 72, 0
6, 40680, Note_on_c, 4, 72, 90
6, 40800, Note_on_c, 4, 72, 0
6, 40800, Note_on_c, 4, 72, 90
6, 40920, Note_on_c, 4, 72, 0
6, 40920, Note_on_c, 4, 72, 90
6, 41040, Note_on_c, 4, 72, 0
6, 41040, Note_on_c, 4, 72, 90
6, 41160, Note_on_c, 4, 72, 0
6, 41160, Note_on_c, 4, 72, 90
6, 41280, Note_on_c, 4, 72, 0
6, 41280, Note_on_c, 4, 81, 90
6, 41400, Note_on_c, 4, 81, 0
6, 41400, Note_on_c, 4, 72, 90
6, 41520, Note_on_c, 4, 72, 0
6, 41520, Note_on_c, 4, 72, 90
6, 41640, Note_on_c, 4, 72, 0
6, 41640, Note_on_c, 4, 72, 90
6, 41760, Note_on_c, 4, 72, 0
6, 41760, Note_on_c, 4, 72, 90
6, 41880, Note_on_c, 4, 72, 0
6, 41880, Note_on_c, 4, 72, 90
6, 42000, Note_on_c, 4, 72, 0
6, 42000, Note_on_c, 4, 72, 90
6, 42120, Note_on_c, 4, 72, 0
6, 42120, Note_on_c, 4, 72, 90
6, 42240, Note_on_c, 4, 72, 0
6, 42240, Note_on_c, 4, 83, 90
6, 42480, Note_on_c, 4, 83, 0
6, 42480, Note_on_c, 4, 71, 90
6, 42960, Note_on_c, 4, 71, 0
6, 42960, Note_on_c, 4, 71, 90
6, 43440, Note_on_c, 4, 71, 0
6, 43440, Note_on_c, 4, 71, 90
6, 43920, Note_on_c, 4, 71, 0
6, 43920, Note_on_c, 4, 71, 90
6, 44160, Note_on_c, 4, 71, 0
6, 44160, Note_on_c, 4, 83, 90
6, 44280, Note_on_c, 4, 83, 0
6, 44280, Note_on_c, 4, 71, 90
6, 44400, Note_on_c, 4, 71, 0
6, 44400, Note_on_c, 4, 71, 90
6, 44520, Note_on_c, 4, 71, 0
6, 44520, Note_on_c, 4, 71, 90
6, 44640, Note_on_c, 4, 71, 0
6, 44640, Note_on_c, 4, 71, 90
6, 44760, Note_on_c, 4, 71, 0
6, 44760, Note_on_c, 4, 71, 90
6, 44880, Note_on_c, 4, 71, 0
6, 44880, Note_on_c, 4, 71, 90
6, 45000, Note_on_c, 4, 71, 0
6, 45000, Note_on_c, 4, 71, 90
6, 45120, Note_on_c, 4, 71, 0
6, 45120, Note_on_c, 4, 83, 90
6, 45240, Note_on_c, 4, 83, 0
6, 45240, Note_on_c, 4, 71, 90
6, 45360, Note_on_c, 4, 71, 0
6, 45360, Note_on_c, 4, 71, 90
6, 45480, Note_on_c, 4, 71, 0
6, 45480, Note_on_c, 4, 71, 90
6, 45600, Note_on_c, 4, 71, 0
6, 45600, Note_on_c, 4, 71, 90
6, 45720, Note_on_c, 4, 71, 0
6, 45720, Note_on_c, 4, 71, 90
6, 45840, Note_on_c, 4, 71, 0
6, 45840, Note_on_c, 4, 71, 90
6, 45960, Note_on_c, 4, 71, 0
6, 45960, Note_on_c, 4, 71, 90
6, 46080, Note_on_c, 4, 71, 0
6, 46080, Note_on_c, 4, 84, 90
6, 46320, Note_on_c, 4, 84, 0
6, 46320, Note_on_c, 4, 72, 90
6, 46800, Note_on_c, 4, 72, 0
6, 46800, Note_on_c, 4, 72, 90
6, 47280, Note_on_c, 4, 72, 0
6, 47280, Note_on_c, 4, 69, 90
6, 47520, Note_on_c, 4, 69, 0
6, 47520, Note_on_c, 4, 69, 90
6, 47760, Note_on_c, 4, 69, 0
6, 47760, Note_on_c, 4, 69, 90
6, 48000, Note_on_c, 4, 69, 0
6, 48000, Note_on_c, 4, 62, 90
6, 48000, Note_on_c, 4, 69, 90
6, 48000, Note_on_c, 4, 77, 90
6, 48480, Note_on_c, 4, 77, 0
6, 48480, Note_on_c, 4, 69, 0
6, 48480, Note_on_c, 4, 62, 0
6, 48480, Note_on_c, 4, 76, 90
6, 48600, Note_on_c, 4, 76, 0
6, 48600, Note_on_c, 4, 69, 90
6, 48720, Note_on_c, 4, 69, 0
6, 48720, Note_on_c, 4, 72, 90
6, 48840, Note_on_c, 4, 72, 0
6, 48840, Note_on_c, 4, 76, 90
6, 48960, Note_on_c, 4, 76, 0
6, 48960, Note_on_c, 4, 81, 90
6, 49200, Note_on_c, 4, 81, 0
6, 49200, Note_on_c, 4, 76, 90
6, 49680, Note_on_c, 4, 76, 0
6, 49680, Note_on_c, 4, 76, 90
6, 50400, Note_on_c, 4, 76, 0
6, 50400, Note_on_c, 4, 81, 90
6, 50520, Note_on_c, 4, 81, 0
6, 50520, Note_on_c, 4, 76, 90
6, 50640, Note_on_c, 4, 76, 0
6, 50640, Note_on_c, 4, 81, 90
6, 50760, Note_on_c, 4, 81, 0
6, 50760, Note_on_c, 4, 84, 90
6, 50880, Note_on_c, 4, 84, 0
6, 50880, Note_on_c, 4, 88, 90
6, 51120, Note_on_c, 4, 88, 0
6, 51120, Note_on_c, 4, 88, 90
6, 51600, Note_on_c, 4, 88, 0
6, 51600, Note_on_c, 4, 88, 90
6, 51840, Note_on_c, 4, 88, 0
6, 51840, Note_on_c, 4, 86, 90
6, 51960, Note_on_c, 4, 86, 0
6, 51960, Note_on_c, 4, 86, 90
6, 52080, Note_on_c, 4, 86, 0
6, 52080, Note_on_c, 4, 74, 90
6, 52200, Note_on_c, 4, 74, 0
6, 52200, Note_on_c, 4, 74, 90
6, 52320, Note_on_c, 4, 74, 0
6, 52320, Note_on_c, 4, 72, 90
6, 52440, Note_on_c, 4, 72, 0
6, 52440, Note_on_c, 4, 72, 90
6, 52560, Note_on_c, 4, 72, 0
6, 52560, Note_on_c, 4, 84, 90
6, 52680, Note_on_c, 4, 84, 0
6, 52680, Note_on_c, 4, 84, 90
6, 52800, Note_on_c, 4, 84, 0
6, 52800, Note_on_c, 4, 82, 90
6, 52920, Note_on_c, 4, 82, 0
6, 52920, Note_on_c, 4, 82, 90
6, 53040, Note_on_c, 4, 82, 0
6, 53040, Note_on_c, 4, 70, 90
6, 53160, Note_on_c, 4, 70, 0
6, 53160, Note_on_c, 4, 70, 90
6, 53280, Note_on_c, 4, 70, 0
6, 53280, Note_on_c, 4, 69, 90
6, 53400, Note_on_c, 4, 69, 0
6, 53400, Note_on_c, 4, 69, 90
6, 53520, Note_on_c, 4, 69, 0
6, 53520, Note_on_c, 4, 81, 90
6, 53640, Note_on_c, 4, 81, 0
6, 53640, Note_on_c, 4, 81, 90
6, 53760, Note_on_c, 4, 81, 0
6, 53760, Note_on_c, 4, 81, 90
6, 54120, Note_on_c, 4, 81, 0
6, 54120, Note_on_c, 4, 80, 90
6, 54180, Note_on_c, 4, 80, 0
6, 54180, Note_on_c, 4, 81, 90
6, 54240, Note_on_c, 4, 81, 0
6, 54240, Note_on_c, 4, 80, 90
6, 54480, Note_on_c, 4, 80, 0
6, 54480, Note_on_c, 4, 76, 90
6, 54960, Note_on_c, 4, 76, 0
6, 54960, Note_on_c, 4, 64, 90
6, 55440, Note_on_c, 4, 64, 0
6, 55440, Note_on_c, 4, 76, 90
6, 55680, Note_on_c, 4, 76, 0
6, 55680, Note_on_c, 4, 77, 90
6, 55800, Note_on_c, 4, 77, 0
6, 55800, Note_on_c, 4, 77, 90
6, 55920, Note_on_c, 4, 77, 0
6, 55920, Note_on_c, 4, 80, 90
6, 56040, Note_on_c, 4, 80, 0
6, 56040, Note_on_c, 4, 80, 90
6, 56160, Note_on_c, 4, 80, 0
6, 56160, Note_on_c, 4, 77, 90
6, 56280, Note_on_c, 4, 77, 0
6, 56280, Note_on_c, 4, 77, 90
6, 56400, Note_on_c, 4, 77, 0
6, 56400, Note_on_c, 4, 74, 90
6, 56520, Note_on_c, 4, 74, 0
6, 56520, Note_on_c, 4, 74, 90
6, 56640, Note_on_c, 4, 74, 0
6, 56640, Note_on_c, 4, 71, 90
6, 56760, Note_on_c, 4, 71, 0
6, 56760, Note_on_c, 4, 71, 90
6, 56880, Note_on_c, 4, 71, 0
6, 56880, Note_on_c, 4, 67, 90
6, 57000, Note_on_c, 4, 67, 0
6, 57000, Note_on_c, 4, 67, 90
6, 57120, Note_on_c, 4, 67, 0
6, 57120, Note_on_c, 4, 65, 90
6, 57240, Note_on_c, 4, 65, 0
6, 57240, Note_on_c, 4, 65, 90
6, 57360, Note_on_c, 4, 65, 0
6, 57360, Note_on_c, 4, 62, 90
6, 57480, Note_on_c, 4, 62, 0
6, 57480, Note_on_c, 4, 62, 90
6, 57600, Note_on_c, 4, 62, 0
6, 57600, Note_on_c, 4, 55, 90
6, 57600, Note_on_c, 4, 63, 90
6, 57600, Note_on_c, 4, 72, 90
6, 57720, Note_on_c, 4, 72, 0
6, 57720, Note_on_c, 4, 63, 0
6, 57720, Note_on_c, 4, 55, 0
6, 57720, Note_on_c, 4, 67, 90
6, 57840, Note_on_c, 4, 67, 0
6, 57840, Note_on_c, 4, 67, 90
6, 57960, Note_on_c, 4, 67, 0
6, 57960, Note_on_c, 4, 67, 90
6, 58080, Note_on_c, 4, 67, 0
6, 58080, Note_on_c, 4, 67, 90
6, 58200, Note_on_c, 4, 67, 0
6, 58200, Note_on_c, 4, 67, 90
6, 58320, Note_on_c, 4, 67, 0
6, 58320, Note_on_c, 4, 67, 90
6, 58440, Note_on_c, 4, 67, 0
6, 58440, Note_on_c, 4, 67, 90
6, 58560, Note_on_c, 4, 67, 0
6, 58560, Note_on_c, 4, 72, 90
6, 58680, Note_on_c, 4, 72, 0
6, 58680, Note_on_c, 4, 67, 90
6, 58800, Note_on_c, 4, 67, 0
6, 58800, Note_on_c, 4, 67, 90
6, 58920, Note_on_c, 4, 67, 0
6, 58920, Note_on_c, 4, 67, 90
6, 59040, Note_on_c, 4, 67, 0
6, 59040, Note_on_c, 4, 67, 90
6, 59160, Note_on_c, 4, 67, 0
6, 59160, Note_on_c, 4, 67, 90
6, 59280, Note_on_c, 4, 67, 0
6, 59280, Note_on_c, 4, 67, 90
6, 59400, Note_on_c, 4, 67, 0
6, 59400, Note_on_c, 4, 67, 90
6, 59520, Note_on_c, 4, 67, 0
6, 59520, Note_on_c, 4, 75, 90
6, 59640, Note_on_c, 4, 75, 0
6, 59640, Note_on_c, 4, 72, 90
6, 59760, Note_on_c, 4, 72, 0
6, 59760, Note_on_c, 4, 72, 90
6, 59880, Note_on_c, 4, 72, 0
6, 59880, Note_on_c, 4, 72, 90
6, 60000, Note_on_c, 4, 72, 0
6, 60000, Note_on_c, 4, 72, 90
6, 60120, Note_on_c, 4, 72, 0
6, 60120, Note_on_c, 4, 72, 90
6, 60240, Note_on_c, 4, 72, 0
6, 60240, Note_on_c, 4, 72, 90
6, 60360, Note_on_c, 4, 72, 0
6, 60360, Note_on_c, 4, 72, 90
6, 60480, Note_on_c, 4, 72, 0
6, 60480, Note_on_c, 4, 67, 90
6, 60600, Note_on_c, 4, 67, 0
6, 60600, Note_on_c, 4, 72, 90
6, 60720, Note_on_c, 4, 72, 0
6, 60720, Note_on_c, 4, 72, 90
6, 60840, Note_on_c, 4, 72, 0
6, 60840, Note_on_c, 4, 72, 90
6, 60960, Note_on_c, 4, 72, 0
6, 60960, Note_on_c, 4, 72, 90
6, 61080, Note_on_c, 4, 72, 0
6, 61080, Note_on_c, 4, 72, 90
6, 61200, Note_on_c, 4, 72, 0
6, 61200, Note_on_c, 4, 72, 90
6, 61320, Note_on_c, 4, 72, 0
6, 61320, Note_on_c, 4, 72, 90
6, 61440, Note_on_c, 4, 72, 0
6, 61440, Note_on_c, 4, 72, 90
6, 61680, Note_on_c, 4, 72, 0
6, 61680, Note_on_c, 4, 72, 90
6, 61920, Note_on_c, 4, 72, 0
6, 61920, Note_on_c, 4, 73, 90
6, 62160, Note_on_c, 4, 73, 0
6, 62160, Note_on_c, 4, 73, 90
6, 62640, Note_on_c, 4, 73, 0
6, 62640, Note_on_c, 4, 73, 90
6, 63120, Note_on_c, 4, 73, 0
6, 63120, Note_on_c, 4, 73, 90
6, 63360, Note_on_c, 4, 73, 0
6, 63360, Note_on_c, 4, 73, 90
6, 63480, Note_on_c, 4, 73, 0
6, 63480, Note_on_c, 4, 67, 90
6, 63600, Note_on_c, 4, 67, 0
6, 63600, Note_on_c, 4, 67, 90
6, 63720, Note_on_c, 4, 67, 0
6, 63720, Note_on_c, 4, 67, 90
6, 63840, Note_on_c, 4, 67, 0
6, 63840, Note_on_c, 4, 67, 90
6, 63960, Note_on_c, 4, 67, 0
6, 63960, Note_on_c, 4, 67, 90
6, 64080, Note_on_c, 4, 67, 0
6, 64080, Note_on_c, 4, 67, 90
6, 64200, Note_on_c, 4, 67, 0
6, 64200, Note_on_c, 4, 67, 90
6, 64320, Note_on_c, 4, 67, 0
6, 64320, Note_on_c, 4, 73, 90
6, 64440, Note_on_c, 4, 73, 0
6, 64440, Note_on_c, 4, 67, 90
6, 64560, Note_on_c, 4, 67, 0
6, 64560, Note_on_c, 4, 67, 90
6, 64680, Note_on_c, 4, 67, 0
6, 64680, Note_on_c, 4, 67, 90
6, 64800, Note_on_c, 4, 67, 0
6, 64800, Note_on_c, 4, 67, 90
6, 64920, Note_on_c, 4, 67, 0
6, 64920, Note_on_c, 4, 67, 90
6, 65040, Note_on_c, 4, 67, 0
6, 65040, Note_on_c, 4, 67, 90
6, 65160, Note_on_c, 4, 67, 0
6, 65160, Note_on_c, 4, 67, 90
6, 65280, Note_on_c, 4, 67, 0
6, 65280, Note_on_c, 4, 76, 90
6, 65400, Note_on_c, 4, 76, 0
6, 65400, Note_on_c, 4, 73, 90
6, 65520, Note_on_c, 4, 73, 0
6, 65520, Note_on_c, 4, 73, 90
6, 65640, Note_on_c, 4, 73, 0
6, 65640, Note_on_c, 4, 73, 90
6, 65760, Note_on_c, 4, 73, 0
6, 65760, Note_on_c, 4, 73, 90
6, 65880, Note_on_c, 4, 73, 0
6, 65880, Note_on_c, 4, 73, 90
6, 66000, Note_on_c, 4, 73, 0
6, 66000, Note_on_c, 4, 73, 90
6, 66120, Note_on_c, 4, 73, 0
6, 66120, Note_on_c, 4, 73, 90
6, 66240, Note_on_c, 4, 73, 0
6, 66240, Note_on_c, 4, 76, 90
6, 66360, Note_on_c, 4, 76, 0
6, 66360, Note_on_c, 4, 73, 90
6, 66480, Note_on_c, 4, 73, 0
6, 66480, Note_on_c, 4, 73, 90
6, 66600, Note_on_c, 4, 73, 0
6, 66600, Note_on_c, 4, 73, 90
6, 66720, Note_on_c, 4, 73, 0
6, 66720, Note_on_c, 4, 73, 90
6, 66840, Note_on_c, 4, 73, 0
6, 66840, Note_on_c, 4, 73, 90
6, 66960, Note_on_c, 4, 73, 0
6, 66960, Note_on_c, 4, 73, 90
6, 67080, Note_on_c, 4, 73, 0
6, 67080, Note_on_c, 4, 73, 90
6, 67200, Note_on_c, 4, 73, 0
6, 67200, Note_on_c, 4, 73, 90
6, 67440, Note_on_c, 4, 73, 0
6, 67440, Note_on_c, 4, 73, 90
6, 67680, Note_on_c, 4, 73, 0
6, 67680, Note_on_c, 4, 74, 90
6, 67920, Note_on_c, 4, 74, 0
6, 67920, Note_on_c, 4, 74, 90
6, 68400, Note_on_c, 4, 74, 0
6, 68400, Note_on_c, 4, 74, 90
6, 68880, Note_on_c, 4, 74, 0
6, 68880, Note_on_c, 4, 74, 90
6, 69120, Note_on_c, 4, 74, 0
6, 69120, Note_on_c, 4, 75, 90
6, 69240, Note_on_c, 4, 75, 0
6, 69240, Note_on_c, 4, 70, 90
6, 69360, Note_on_c, 4, 70, 0
6, 69360, Note_on_c, 4, 70, 90
6, 69480, Note_on_c, 4, 70, 0
6, 69480, Note_on_c, 4, 70, 90
6, 69600, Note_on_c, 4, 70, 0
6, 69600, Note_on_c, 4, 70, 90
6, 69720, Note_on_c, 4, 70, 0
6, 69720, Note_on_c, 4, 70, 90
6, 69840, Note_on_c, 4, 70, 0
6, 69840, Note_on_c, 4, 70, 90
6, 69960, Note_on_c, 4, 70, 0
6, 69960, Note_on_c, 4, 70, 90
6, 70080, Note_on_c, 4, 70, 0
6, 70080, Note_on_c, 4, 78, 90
6, 70200, Note_on_c, 4, 78, 0
6, 70200, Note_on_c, 4, 72, 90
6, 70320, Note_on_c, 4, 72, 0
6, 70320, Note_on_c, 4, 72, 90
6, 70440, Note_on_c, 4, 72, 0
6, 70440, Note_on_c, 4, 72, 90
6, 70560, Note_on_c, 4, 72, 0
6, 70560, Note_on_c, 4, 72, 90
6, 70680, Note_on_c, 4, 72, 0
6, 70680, Note_on_c, 4, 72, 90
6, 70800, Note_on_c, 4, 72, 0
6, 70800, Note_on_c, 4, 72, 90
6, 70920, Note_on_c, 4, 72, 0
6, 70920, Note_on_c, 4, 72, 90
6, 71040, Note_on_c, 4, 72, 0
6, 71040, Note_on_c, 4, 79, 90
6, 71160, Note_on_c, 4, 79, 0
6, 71160, Note_on_c, 4, 74, 90
6, 71280, Note_on_c, 4, 74, 0
6, 71280, Note_on_c, 4, 74, 90
6, 71400, Note_on_c, 4, 74, 0
6, 71400, Note_on_c, 4, 74, 90
6, 71520, Note_on_c, 4, 74, 0
6, 71520, Note_on_c, 4, 74, 90
6, 71640, Note_on_c, 4, 74, 0
6, 71640, Note_on_c, 4, 74, 90
6, 71760, Note_on_c, 4, 74, 0
6, 71760, Note_on_c, 4, 74, 90
6, 71880, Note_on_c, 4, 74, 0
6, 71880, Note_on_c, 4, 74, 90
6, 72000, Note_on_c, 4, 74, 0
6, 72000, Note_on_c, 4, 77, 90
6, 72120, Note_on_c, 4, 77, 0
6, 72120, Note_on_c, 4, 72, 90
6, 72240, Note_on_c, 4, 72, 0
6, 72240, Note_on_c, 4, 72, 90
6, 72360, Note_on_c, 4, 72, 0
6, 72360, Note_on_c, 4, 72, 90
6, 72480, Note_on_c, 4, 72, 0
6, 72480, Note_on_c, 4, 72, 90
6, 72600, Note_on_c, 4, 72, 0
6, 72600, Note_on_c, 4, 72, 90
6, 72720, Note_on_c, 4, 72, 0
6, 72720, Note_on_c, 4, 72, 90
6, 72840, Note_on_c, 4, 72, 0
6, 72840, Note_on_c, 4, 72, 90
6, 72960, Note_on_c, 4, 72, 0
6, 72960, Note_on_c, 4, 75, 90
6, 73080, Note_on_c, 4, 75, 0
6, 73080, Note_on_c, 4, 70, 90
6, 73200, Note_on_c, 4, 70, 0
6, 73200, Note_on_c, 4, 70, 90
6, 73320, Note_on_c, 4, 70, 0
6, 73320, Note_on_c, 4, 70, 90
6, 73440, Note_on_c, 4, 70, 0
6, 73440, Note_on_c, 4, 70, 90
6, 73560, Note_on_c, 4, 70, 0
6, 73560, Note_on_c, 4, 70, 90
6, 73680, Note_on_c, 4, 70, 0
6, 73680, Note_on_c, 4, 70, 90
6, 73800, Note_on_c, 4, 70, 0
6, 73800, Note_on_c, 4, 70, 90
6, 73920, Note_on_c, 4, 70, 0
6, 73920, Note_on_c, 4, 74, 90
6, 74040, Note_on_c, 4, 74, 0
6, 74040, Note_on_c, 4, 71, 90
6, 74160, Note_on_c, 4, 71, 0
6, 74160, Note_on_c, 4, 71, 90
6, 74280, Note_on_c, 4, 71, 0
6, 74280, Note_on_c, 4, 71, 90
6, 74400, Note_on_c, 4, 71, 0
6, 74400, Note_on_c, 4, 71, 90
6, 74520, Note_on_c, 4, 71, 0
6, 74520, Note_on_c, 4, 71, 90
6, 74640, Note_on_c, 4, 71, 0
6, 74640, Note_on_c, 4, 71, 90
6, 74760, Note_on_c, 4, 71, 0
6, 74760, Note_on_c, 4, 71, 90
6, 74880, Note_on_c, 4, 71, 0
6, 74880, Note_on_c, 4, 74, 90
6, 75000, Note_on_c, 4, 74, 0
6, 75000, Note_on_c, 4, 69, 90
6, 75120, Note_on_c, 4, 69, 0
6, 75120, Note_on_c, 4, 69, 90
6, 75240, Note_on_c, 4, 69, 0
6, 75240, Note_on_c, 4, 69, 90
6, 75360, Note_on_c, 4, 69, 0
6, 75360, Note_on_c, 4, 73, 90
6, 75480, Note_on_c, 4, 73, 0
6, 75480, Note_on_c, 4, 69, 90
6, 75600, Note_on_c, 4, 69, 0
6, 75600, Note_on_c, 4, 69, 90
6, 75720, Note_on_c, 4, 69, 0
6, 75720, Note_on_c, 4, 69, 90
6, 75840, Note_on_c, 4, 69, 0
6, 75840, Note_on_c, 4, 57, 90
6, 76560, Note_on_c, 4, 57, 0
6, 76560, Note_on_c, 4, 57, 90
6, 76800, Note_on_c, 4, 57, 0
6, 76800, Note_on_c, 4, 56, 90
6, 76920, Note_on_c, 4, 56, 0
6, 76920, Note_on_c, 4, 56, 90
6, 77040, Note_on_c, 4, 56, 0
6, 77040, Note_on_c, 4, 57, 90
6, 77160, Note_on_c, 4, 57, 0
6, 77160, Note_on_c, 4, 57, 90
6, 77280, Note_on_c, 4, 57, 0
6, 77280, Note_on_c, 4, 56, 90
6, 77400, Note_on_c, 4, 56, 0
6, 77400, Note_on_c, 4, 56, 90
6, 77520, Note_on_c, 4, 56, 0
6, 77520, Note_on_c, 4, 57, 90
6, 77640, Note_on_c, 4, 57, 0
6, 77640, Note_on_c, 4, 57, 90
6, 77760, Note_on_c, 4, 57, 0
6, 77760, Note_on_c, 4, 56, 90
6, 77880, Note_on_c, 4, 56, 0
6, 77880, Note_on_c, 4, 56, 90
6, 78000, Note_on_c, 4, 56, 0
6, 78000, Note_on_c, 4, 57, 90
6, 78120, Note_on_c, 4, 57, 0
6, 78120, Note_on_c, 4, 57, 90
6, 78240, Note_on_c, 4, 57, 0
6, 78240, Note_on_c, 4, 56, 90
6, 78360, Note_on_c, 4, 56, 0
6, 78360, Note_on_c, 4, 56, 90
6, 78480, Note_on_c, 4, 56, 0
6, 78480, Note_on_c, 4, 57, 90
6, 78600, Note_on_c, 4, 57, 0
6, 78600, Note_on_c, 4, 57, 90
6, 78720, Note_on_c, 4, 57, 0
6, 78720, Note_on_c, 4, 58, 90
6, 79200, Note_on_c, 4, 58, 0
6, 79200, Note_on_c, 4, 57, 90
6, 79680, Note_on_c, 4, 57, 0
6, 79680, Note_on_c, 4, 64, 90
6, 79800, Note_on_c, 4, 64, 0
6, 79800, Note_on_c, 4, 64, 90
6, 79920, Note_on_c, 4, 64, 0
6, 79920, Note_on_c, 4, 69, 90
6, 80040, Note_on_c, 4, 69, 0
6, 80040, Note_on_c, 4, 69, 90
6, 80160, Note_on_c, 4, 69, 0
6, 80160, Note_on_c, 4, 73, 90
6, 80280, Note_on_c, 4, 73, 0
6, 80280, Note_on_c, 4, 73, 90
6, 80400, Note_on_c, 4, 73, 0
6, 80400, Note_on_c, 4, 76, 90
6, 80520, Note_on_c, 4, 76, 0
6, 80520, Note_on_c, 4, 76, 90
6, 80640, Note_on_c, 4, 76, 0
6, 80640, Note_on_c, 4, 77, 90
6, 80760, Note_on_c, 4, 77, 0
6, 80760, Note_on_c, 4, 77, 90
6, 80880, Note_on_c, 4, 77, 0
6, 80880, Note_on_c, 4, 68, 90
6, 81000, Note_on_c, 4, 68, 0
6, 81000, Note_on_c, 4, 68, 90
6, 81120, Note_on_c, 4, 68, 0
6, 81120, Note_on_c, 4, 73, 90
6, 81240, Note_on_c, 4, 73, 0
6, 81240, Note_on_c, 4, 73, 90
6, 81360, Note_on_c, 4, 73, 0
6, 81360, Note_on_c, 4, 76, 90
6, 81480, Note_on_c, 4, 76, 0
6, 81480, Note_on_c, 4, 76, 90
6, 81600, Note_on_c, 4, 76, 0
6, 81600, Note_on_c, 4, 64, 90
6, 81720, Note_on_c, 4, 64, 0
6, 81720, Note_on_c, 4, 64, 90
6, 81840, Note_on_c, 4, 64, 0
6, 81840, Note_on_c, 4, 68, 90
6, 81960, Note_on_c, 4, 68, 0
6, 81960, Note_on_c, 4, 68, 90
6, 82080, Note_on_c, 4, 68, 0
6, 82080, Note_on_c, 4, 73, 90
6, 82200, Note_on_c, 4, 73, 0
6, 82200, Note_on_c, 4, 73, 90
6, 82320, Note_on_c, 4, 73, 0
6, 82320, Note_on_c, 4, 76, 90
6, 82440, Note_on_c, 4, 76, 0
6, 82440, Note_on_c, 4, 76, 90
6, 82560, Note_on_c, 4, 76, 0
6, 82560, Note_on_c, 4, 77, 90
6, 82680, Note_on_c, 4, 77, 0
6, 82680, Note_on_c, 4, 77, 90
6, 82800, Note_on_c, 4, 77, 0
6, 82800, Note_on_c, 4, 68, 90
6, 82920, Note_on_c, 4, 68, 0
6, 82920, Note_on_c, 4, 68, 90
6, 83040, Note_on_c, 4, 68, 0
6, 83040, Note_on_c, 4, 69, 90
6, 83160, Note_on_c, 4, 69, 0
6, 83160, Note_on_c, 4, 69, 90
6, 83280, Note_on_c, 4, 69, 0
6, 83280, Note_on_c, 4, 76, 90
6, 83400, Note_on_c, 4, 76, 0
6, 83400, Note_on_c, 4, 76, 90
6, 83520, Note_on_c, 4, 76, 0
6, 83520, Note_on_c, 4, 57, 90
6, 84240, Note_on_c, 4, 57, 0
6, 84240, Note_on_c, 4, 57, 90
6, 84480, Note_on_c, 4, 57, 0
6, 84480, Note_on_c, 4, 56, 90
6, 84600, Note_on_c, 4, 56, 0
6, 84600, Note_on_c, 4, 56, 90
6, 84720, Note_on_c, 4, 56, 0
6, 84720, Note_on_c, 4, 57, 90
6, 84840, Note_on_c, 4, 57, 0
6, 84840, Note_on_c, 4, 57, 90
6, 84960, Note_on_c, 4, 57, 0
6, 84960, Note_on_c, 4, 56, 90
6, 85080, Note_on_c, 4, 56, 0
6, 85080, Note_on_c, 4, 56, 90
6, 85200, Note_on_c, 4, 56, 0
6, 85200, Note_on_c, 4, 57, 90
6, 85320, Note_on_c, 4, 57, 0
6, 85320, Note_on_c, 4, 57, 90
6, 85440, Note_on_c, 4, 57, 0
6, 85440, Note_on_c, 4, 56, 90
6, 85560, Note_on_c, 4, 56, 0
6, 85560, Note_on_c, 4, 56, 90
6, 85680, Note_on_c, 4, 56, 0
6, 85680, Note_on_c, 4, 57, 90
6, 85800, Note_on_c, 4, 57, 0
6, 85800, Note_on_c, 4, 57, 90
6, 85920, Note_on_c, 4, 57, 0
6, 85920, Note_on_c, 4, 56, 90
6, 86040, Note_on_c, 4, 56, 0
6, 86040, Note_on_c, 4, 56, 90
6, 86160, Note_on_c, 4, 56, 0
6, 86160, Note_on_c, 4, 57, 90
6, 86280, Note_on_c, 4, 57, 0
6, 86280, Note_on_c, 4, 57, 90
6, 86400, Note_on_c, 4, 57, 0
6, 86400, Note_on_c, 4, 58, 90
6, 86880, Note_on_c, 4, 58, 0
6, 86880, Note_on_c, 4, 57, 90
6, 87360, Note_on_c, 4, 57, 0
6, 87360, Note_on_c, 4, 69, 90
6, 87480, Note_on_c, 4, 69, 0
6, 87480, Note_on_c, 4, 69, 90
6, 87600, Note_on_c, 4, 69, 0
6, 87600, Note_on_c, 4, 73, 90
6, 87720, Note_on_c, 4, 73, 0
6, 87720, Note_on_c, 4, 73, 90
6, 87840, Note_on_c, 4, 73, 0
6, 87840, Note_on_c, 4, 76, 90
6, 87960, Note_on_c, 4, 76, 0
6, 87960, Note_on_c, 4, 76, 90
6, 88080, Note_on_c, 4, 76, 0
6, 88080, Note_on_c, 4, 81, 90
6, 88200, Note_on_c, 4, 81, 0
6, 88200, Note_on_c, 4, 81, 90
6, 88320, Note_on_c, 4, 81, 0
6, 88320, Note_on_c, 4, 80, 90
6, 88440, Note_on_c, 4, 80, 0
6, 88440, Note_on_c, 4, 80, 90
6, 88560, Note_on_c, 4, 80, 0
6, 88560, Note_on_c, 4, 71, 90
6, 88680, Note_on_c, 4, 71, 0
6, 88680, Note_on_c, 4, 71, 90
6, 88800, Note_on_c, 4, 71, 0
6, 88800, Note_on_c, 4, 69, 90
6, 88920, Note_on_c, 4, 69, 0
6, 88920, Note_on_c, 4, 69, 90
6, 89040, Note_on_c, 4, 69, 0
6, 89040, Note_on_c, 4, 81, 90
6, 89160, Note_on_c, 4, 81, 0
6, 89160, Note_on_c, 4, 81, 90
6, 89280, Note_on_c, 4, 81, 0
6, 89280, Note_on_c, 4, 69, 90
6, 89400, Note_on_c, 4, 69, 0
6, 89400, Note_on_c, 4, 69, 90
6, 89520, Note_on_c, 4, 69, 0
6, 89520, Note_on_c, 4, 73, 90
6, 89640, Note_on_c, 4, 73, 0
6, 89640, Note_on_c, 4, 73, 90
6, 89760, Note_on_c, 4, 73, 0
6, 89760, Note_on_c, 4, 76, 90
6, 89880, Note_on_c, 4, 76, 0
6, 89880, Note_on_c, 4, 76, 90
6, 90000, Note_on_c, 4, 76, 0
6, 90000, Note_on_c, 4, 81, 90
6, 90120, Note_on_c, 4, 81, 0
6, 90120, Note_on_c, 4, 81, 90
6, 90240, Note_on_c, 4, 81, 0
6, 90240, Note_on_c, 4, 80, 90
6, 90360, Note_on_c, 4, 80, 0
6, 90360, Note_on_c, 4, 80, 90
6, 90480, Note_on_c, 4, 80, 0
6, 90480, Note_on_c, 4, 71, 90
6, 90600, Note_on_c, 4, 71, 0
6, 90600, Note_on_c, 4, 71, 90
6, 90720, Note_on_c, 4, 71, 0
6, 90720, Note_on_c, 4, 69, 90
6, 90840, Note_on_c, 4, 69, 0
6, 90840, Note_on_c, 4, 69, 90
6, 90960, Note_on_c, 4, 69, 0
6, 90960, Note_on_c, 4, 81, 90
6, 91080, Note_on_c, 4, 81, 0
6, 91080, Note_on_c, 4, 81, 90
6, 91200, Note_on_c, 4, 81, 0
6, 91200, Note_on_c, 4, 57, 90
6, 91920, Note_on_c, 4, 57, 0
6, 91920, Note_on_c, 4, 57, 90
6, 92160, Note_on_c, 4, 57, 0
6, 92160, Note_on_c, 4, 56, 90
6, 92280, Note_on_c, 4, 56, 0
6, 92280, Note_on_c, 4, 56, 90
6, 92400, Note_on_c, 4, 56, 0
6, 92400, Note_on_c, 4, 57, 90
6, 92520, Note_on_c, 4, 57, 0
6, 92520, Note_on_c, 4, 57, 90
6, 92640, Note_on_c, 4, 57, 0
6, 92640, Note_on_c, 4, 56, 90
6, 92760, Note_on_c, 4, 56, 0
6, 92760, Note_on_c, 4, 56, 90
6, 92880, Note_on_c, 4, 56, 0
6, 92880, Note_on_c, 4, 57, 90
6, 93000, Note_on_c, 4, 57, 0
6, 93000, Note_on_c, 4, 57, 90
6, 93120, Note_on_c, 4, 57, 0
6, 93120, Note_on_c, 4, 56, 90
6, 93240, Note_on_c, 4, 56, 0
6, 93240, Note_on_c, 4, 56, 90
6, 93360, Note_on_c, 4, 56, 0
6, 93360, Note_on_c, 4, 57, 90
6, 93480, Note_on_c, 4, 57, 0
6, 93480, Note_on_c, 4, 57, 90
6, 93600, Note_on_c, 4, 57, 0
6, 93600, Note_on_c, 4, 56, 90
6, 93720, Note_on_c, 4, 56, 0
6, 93720, Note_on_c, 4, 56, 90
6, 93840, Note_on_c, 4, 56, 0
6, 93840, Note_on_c, 4, 57, 90
6, 93960, Note_on_c, 4, 57, 0
6, 93960, Note_on_c, 4, 57, 90
6, 94080, Note_on_c, 4, 57, 0
6, 94080, Note_on_c, 4, 58, 90
6, 94320, Note_on_c, 4, 58, 0
6, 94320, Note_on_c, 4, 67, 90
6, 94440, Note_on_c, 4, 67, 0
6, 94440, Note_on_c, 4, 67, 90
6, 94560, Note_on_c, 4, 67, 0
6, 94560, Note_on_c, 4, 70, 90
6, 94680, Note_on_c, 4, 70, 0
6, 94680, Note_on_c, 4, 70, 90
6, 94800, Note_on_c, 4, 70, 0
6, 94800, Note_on_c, 4, 74, 90
6, 94920, Note_on_c, 4, 74, 0
6, 94920, Note_on_c, 4, 74, 90
6, 95040, Note_on_c, 4, 74, 0
6, 95040, Note_on_c, 4, 79, 90
6, 95280, Note_on_c, 4, 79, 0
6, 95280, Note_on_c, 4, 79, 90
6, 95760, Note_on_c, 4, 79, 0
6, 95760, Note_on_c, 4, 79, 90
6, 96000, Note_on_c, 4, 79, 0
6, 96000, Note_on_c, 4, 78, 90
6, 96120, Note_on_c, 4, 78, 0
6, 96120, Note_on_c, 4, 78, 90
6, 96240, Note_on_c, 4, 78, 0
6, 96240, Note_on_c, 4, 79, 90
6, 96360, Note_on_c, 4, 79, 0
6, 96360, Note_on_c, 4, 79, 90
6, 96480, Note_on_c, 4, 79, 0
6, 96480, Note_on_c, 4, 78, 90
6, 96600, Note_on_c, 4, 78, 0
6, 96600, Note_on_c, 4, 78, 90
6, 96720, Note_on_c, 4, 78, 0
6, 96720, Note_on_c, 4, 79, 90
6, 96840, Note_on_c, 4, 79, 0
6, 96840, Note_on_c, 4, 79, 90
6, 96960, Note_on_c, 4, 79, 0
6, 96960, Note_on_c, 4, 78, 90
6, 97080, Note_on_c, 4, 78, 0
6, 97080, Note_on_c, 4, 78, 90
6, 97200, Note_on_c, 4, 78, 0
6, 97200, Note_on_c, 4, 79, 90
6, 97320, Note_on_c, 4, 79, 0
6, 97320, Note_on_c, 4, 79, 90
6, 97440, Note_on_c, 4, 79, 0
6, 97440, Note_on_c, 4, 78, 90
6, 97560, Note_on_c, 4, 78, 0
6, 97560, Note_on_c, 4, 78, 90
6, 97680, Note_on_c, 4, 78, 0
6, 97680, Note_on_c, 4, 79, 90
6, 97800, Note_on_c, 4, 79, 0
6, 97800, Note_on_c, 4, 79, 90
6, 97920, Note_on_c, 4, 79, 0
6, 97920, Note_on_c, 4, 79, 90
6, 98040, Note_on_c, 4, 79, 0
6, 98040, Note_on_c, 4, 76, 90
6, 98160, Note_on_c, 4, 76, 0
6, 98160, Note_on_c, 4, 79, 90
6, 98280, Note_on_c, 4, 79, 0
6, 98280, Note_on_c, 4, 76, 90
6, 98400, Note_on_c, 4, 76, 0
6, 98400, Note_on_c, 4, 73, 90
6, 98520, Note_on_c, 4, 73, 0
6, 98520, Note_on_c, 4, 69, 90
6, 98640, Note_on_c, 4, 69, 0
6, 98640, Note_on_c, 4, 73, 90
6, 98760, Note_on_c, 4, 73, 0
6, 98760, Note_on_c, 4, 76, 90
6, 98880, Note_on_c, 4, 76, 0
6, 98880, Note_on_c, 4, 81, 90
6, 99120, Note_on_c, 4, 81, 0
6, 99120, Note_on_c, 4, 81, 90
6, 99600, Note_on_c, 4, 81, 0
6, 99600, Note_on_c, 4, 81, 90
6, 100080, Note_on_c, 4, 81, 0
6, 100080, Note_on_c, 4, 81, 90
6, 100560, Note_on_c, 4, 81, 0
6, 100560, Note_on_c, 4, 81, 90
6, 101040, Note_on_c, 4, 81, 0
6, 101040, Note_on_c, 4, 81, 90
6, 101520, Note_on_c, 4, 81, 0
6, 101520, Note_on_c, 4, 81, 90
6, 102240, Note_on_c, 4, 81, 0
6, 102240, Note_on_c, 4, 73, 90
6, 102360, Note_on_c, 4, 73, 0
6, 102360, Note_on_c, 4, 69, 90
6, 102480, Note_on_c, 4, 69, 0
6, 102480, Note_on_c, 4, 73, 90
6, 102600, Note_on_c, 4, 73, 0
6, 102600, Note_on_c, 4, 76, 90
6, 102720, Note_on_c, 4, 76, 0
6, 102720, Note_on_c, 4, 81, 90
6, 102960, Note_on_c, 4, 81, 0
6, 102960, Note_on_c, 4, 81, 90
6, 103440, Note_on_c, 4, 81, 0
6, 103440, Note_on_c, 4, 81, 90
6, 103680, Note_on_c, 4, 81, 0
6, 103920, Note_on_c, 4, 81, 90
6, 104400, Note_on_c, 4, 81, 0
6, 104400, Note_on_c, 4, 81, 90
6, 104880, Note_on_c, 4, 81, 0
6, 104880, Note_on_c, 4, 81, 90
6, 105360, Note_on_c, 4, 81, 0
6, 105360, Note_on_c, 4, 81, 90
6, 105840, Note_on_c, 4, 81, 0
6, 105840, Note_on_c, 4, 81, 90
6, 106320, Note_on_c, 4, 81, 0
6, 106320, Note_on_c, 4, 81, 90
6, 106440, Note_on_c, 4, 81, 0
6, 106440, Note_on_c, 4, 81, 90
6, 106560, Note_on_c, 4, 81, 0
6, 106560, Note_on_c, 4, 77, 90
6, 106680, Note_on_c, 4, 77, 0
6, 106680, Note_on_c, 4, 77, 90
6, 106800, Note_on_c, 4, 77, 0
6, 106800, Note_on_c, 4, 74, 90
6, 106920, Note_on_c, 4, 74, 0
6, 106920, Note_on_c, 4, 74, 90
6, 107040, Note_on_c, 4, 74, 0
6, 107040, Note_on_c, 4, 77, 90
6, 107160, Note_on_c, 4, 77, 0
6, 107160, Note_on_c, 4, 77, 90
6, 107280, Note_on_c, 4, 77, 0
6, 107280, Note_on_c, 4, 81, 90
6, 107400, Note_on_c, 4, 81, 0
6, 107400, Note_on_c, 4, 81, 90
6, 107520, Note_on_c, 4, 81, 0
6, 107520, Note_on_c, 4, 86, 90
6, 107640, Note_on_c, 4, 86, 0
6, 107640, Note_on_c, 4, 86, 90
6, 107760, Note_on_c, 4, 86, 0
6, 107760, Note_on_c, 4, 81, 90
6, 107880, Note_on_c, 4, 81, 0
6, 107880, Note_on_c, 4, 81, 90
6, 108000, Note_on_c, 4, 81, 0
6, 108000, Note_on_c, 4, 77, 90
6, 108120, Note_on_c, 4, 77, 0
6, 108120, Note_on_c, 4, 77, 90
6, 108240, Note_on_c, 4, 77, 0
6, 108240, Note_on_c, 4, 74, 90
6, 108360, Note_on_c, 4, 74, 0
6, 108360, Note_on_c, 4, 74, 90
6, 108480, Note_on_c, 4, 74, 0
6, 108480, Note_on_c, 4, 86, 90
6, 108600, Note_on_c, 4, 86, 0
6, 108600, Note_on_c, 4, 86, 90
6, 108720, Note_on_c, 4, 86, 0
6, 108720, Note_on_c, 4, 81, 90
6, 108840, Note_on_c, 4, 81, 0
6, 108840, Note_on_c, 4, 81, 90
6, 108960, Note_on_c, 4, 81, 0
6, 108960, Note_on_c, 4, 77, 90
6, 109080, Note_on_c, 4, 77, 0
6, 109080, Note_on_c, 4, 77, 90
6, 109200, Note_on_c, 4, 77, 0
6, 109200, Note_on_c, 4, 74, 90
6, 109320, Note_on_c, 4, 74, 0
6, 109320, Note_on_c, 4, 74, 90
6, 109440, Note_on_c, 4, 74, 0
6, 109440, Note_on_c, 4, 86, 90
6, 109560, Note_on_c, 4, 86, 0
6, 109560, Note_on_c, 4, 86, 90
6, 109680, Note_on_c, 4, 86, 0
6, 109680, Note_on_c, 4, 81, 90
6, 109800, Note_on_c, 4, 81, 0
6, 109800, Note_on_c, 4, 81, 90
6, 109920, Note_on_c, 4, 81, 0
6, 109920, Note_on_c, 4, 77, 90
6, 110040, Note_on_c, 4, 77, 0
6, 110040, Note_on_c, 4, 77, 90
6, 110160, Note_on_c, 4, 77, 0
6, 110160, Note_on_c, 4, 74, 90
6, 110280, Note_on_c, 4, 74, 0
6, 110280, Note_on_c, 4, 74, 90
6, 110400, Note_on_c, 4, 74, 0
6, 110400, Note_on_c, 4, 86, 90
6, 110520, Note_on_c, 4, 86, 0
6, 110520, Note_on_c, 4, 86, 90
6, 110640, Note_on_c, 4, 86, 0
6, 110640, Note_on_c, 4, 81, 90
6, 110760, Note_on_c, 4, 81, 0
6, 110760, Note_on_c, 4, 81, 90
6, 110880, Note_on_c, 4, 81, 0
6, 110880, Note_on_c, 4, 77, 90
6, 111000, Note_on_c, 4, 77, 0
6, 111000, Note_on_c, 4, 77, 90
6, 111120, Note_on_c, 4, 77, 0
6, 111120, Note_on_c, 4, 74, 90
6, 111240, Note_on_c, 4, 74, 0
6, 111240, Note_on_c, 4, 74, 90
6, 111360, Note_on_c, 4, 74, 0
6, 111360, Note_on_c, 4, 86, 90
6, 111480, Note_on_c, 4, 86, 0
6, 111480, Note_on_c, 4, 86, 90
6, 111600, Note_on_c, 4, 86, 0
6, 111600, Note_on_c, 4, 81, 90
6, 111720, Note_on_c, 4, 81, 0
6, 111720, Note_on_c, 4, 81, 90
6, 111840, Note_on_c, 4, 81, 0
6, 111840, Note_on_c, 4, 77, 90
6, 111960, Note_on_c, 4, 77, 0
6, 111960, Note_on_c, 4, 77, 90
6, 112080, Note_on_c, 4, 77, 0
6, 112080, Note_on_c, 4, 74, 90
6, 112200, Note_on_c, 4, 74, 0
6, 112200, Note_on_c, 4, 74, 90
6, 112320, Note_on_c, 4, 74, 0
6, 112320, Note_on_c, 4, 86, 90
6, 112440, Note_on_c, 4, 86, 0
6, 112440, Note_on_c, 4, 86, 90
6, 112560, Note_on_c, 4, 86, 0
6, 112560, Note_on_c, 4, 81, 90
6, 112680, Note_on_c, 4, 81, 0
6, 112680, Note_on_c, 4, 81, 90
6, 112800, Note_on_c, 4, 81, 0
6, 112800, Note_on_c, 4, 77, 90
6, 112920, Note_on_c, 4, 77, 0
6, 112920, Note_on_c, 4, 77, 90
6, 113040, Note_on_c, 4, 77, 0
6, 113040, Note_on_c, 4, 74, 90
6, 113160, Note_on_c, 4, 74, 0
6, 113160, Note_on_c, 4, 74, 90
6, 113280, Note_on_c, 4, 74, 0
6, 113280, Note_on_c, 4, 85, 90
6, 113400, Note_on_c, 4, 85, 0
6, 113400, Note_on_c, 4, 85, 90
6, 113520, Note_on_c, 4, 85, 0
6, 113520, Note_on_c, 4, 79, 90
6, 113640, Note_on_c, 4, 79, 0
6, 113640, Note_on_c, 4, 79, 90
6, 113760, Note_on_c, 4, 79, 0
6, 113760, Note_on_c, 4, 77, 90
6, 113880, Note_on_c, 4, 77, 0
6, 113880, Note_on_c, 4, 77, 90
6, 114000, Note_on_c, 4, 77, 0
6, 114000, Note_on_c, 4, 86, 90
6, 114120, Note_on_c, 4, 86, 0
6, 114120, Note_on_c, 4, 86, 90
6, 114240, Note_on_c, 4, 86, 0
6, 114240, Note_on_c, 4, 76, 90
6, 114360, Note_on_c, 4, 76, 0
6, 114360, Note_on_c, 4, 76, 90
6, 114480, Note_on_c, 4, 76, 0
6, 114480, Note_on_c, 4, 86, 90
6, 114600, Note_on_c, 4, 86, 0
6, 114600, Note_on_c, 4, 86, 90
6, 114720, Note_on_c, 4, 86, 0
6, 114720, Note_on_c, 4, 76, 90
6, 114840, Note_on_c, 4, 76, 0
6, 114840, Note_on_c, 4, 76, 90
6, 114960, Note_on_c, 4, 76, 0
6, 114960, Note_on_c, 4, 85, 90
6, 115080, Note_on_c, 4, 85, 0
6, 115080, Note_on_c, 4, 85, 90
6, 115200, Note_on_c, 4, 85, 0
6, 115200, Note_on_c, 4, 86, 90
6, 115320, Note_on_c, 4, 86, 0
6, 115320, Note_on_c, 4, 86, 90
6, 115440, Note_on_c, 4, 86, 0
6, 115440, Note_on_c, 4, 81, 90
6, 115560, Note_on_c, 4, 81, 0
6, 115560, Note_on_c, 4, 81, 90
6, 115680, Note_on_c, 4, 81, 0
6, 115680, Note_on_c, 4, 77, 90
6, 115800, Note_on_c, 4, 77, 0
6, 115800, Note_on_c, 4, 77, 90
6, 115920, Note_on_c, 4, 77, 0
6, 115920, Note_on_c, 4, 74, 90
6, 116040, Note_on_c, 4, 74, 0
6, 116040, Note_on_c, 4, 74, 90
6, 116160, Note_on_c, 4, 74, 0
6, 116160, Note_on_c, 4, 86, 90
6, 116280, Note_on_c, 4, 86, 0
6, 116280, Note_on_c, 4, 86, 90
6, 116400, Note_on_c, 4, 86, 0
6, 116400, Note_on_c, 4, 81, 90
6, 116520, Note_on_c, 4, 81, 0
6, 116520, Note_on_c, 4, 81, 90
6, 116640, Note_on_c, 4, 81, 0
6, 116640, Note_on_c, 4, 77, 90
6, 116760, Note_on_c, 4, 77, 0
6, 116760, Note_on_c, 4, 77, 90
6, 116880, Note_on_c, 4, 77, 0
6, 116880, Note_on_c, 4, 74, 90
6, 117000, Note_on_c, 4, 74, 0
6, 117000, Note_on_c, 4, 74, 90
6, 117120, Note_on_c, 4, 74, 0
6, 117120, Note_on_c, 4, 86, 90
6, 117240, Note_on_c, 4, 86, 0
6, 117240, Note_on_c, 4, 86, 90
6, 117360, Note_on_c, 4, 86, 0
6, 117360, Note_on_c, 4, 82, 90
6, 117480, Note_on_c, 4, 82, 0
6, 117480, Note_on_c, 4, 82, 90
6, 117600, Note_on_c, 4, 82, 0
6, 117600, Note_on_c, 4, 77, 90
6, 117720, Note_on_c, 4, 77, 0
6, 117720, Note_on_c, 4, 77, 90
6, 117840, Note_on_c, 4, 77, 0
6, 117840, Note_on_c, 4, 74, 90
6, 117960, Note_on_c, 4, 74, 0
6, 117960, Note_on_c, 4, 74, 90
6, 118080, Note_on_c, 4, 74, 0
6, 118080, Note_on_c, 4, 86, 90
6, 118200, Note_on_c, 4, 86, 0
6, 118200, Note_on_c, 4, 86, 90
6, 118320, Note_on_c, 4, 86, 0
6, 118320, Note_on_c, 4, 82, 90
6, 118440, Note_on_c, 4, 82, 0
6, 118440, Note_on_c, 4, 82, 90
6, 118560, Note_on_c, 4, 82, 0
6, 118560, Note_on_c, 4, 77, 90
6, 118680, Note_on_c, 4, 77, 0
6, 118680, Note_on_c, 4, 77, 90
6, 118800, Note_on_c, 4, 77, 0
6, 118800, Note_on_c, 4, 74, 90
6, 118920, Note_on_c, 4, 74, 0
6, 118920, Note_on_c, 4, 74, 90
6, 119040, Note_on_c, 4, 74, 0
6, 119040, Note_on_c, 4, 87, 90
6, 119160, Note_on_c, 4, 87, 0
6, 119160, Note_on_c, 4, 87, 90
6, 119280, Note_on_c, 4, 87, 0
6, 119280, Note_on_c, 4, 82, 90
6, 119400, Note_on_c, 4, 82, 0
6, 119400, Note_on_c, 4, 82, 90
6, 119520, Note_on_c, 4, 82, 0
6, 119520, Note_on_c, 4, 79, 90
6, 119640, Note_on_c, 4, 79, 0
6, 119640, Note_on_c, 4, 79, 90
6, 119760, Note_on_c, 4, 79, 0
6, 119760, Note_on_c, 4, 75, 90
6, 119880, Note_on_c, 4, 75, 0
6, 119880, Note_on_c, 4, 75, 90
6, 120000, Note_on_c, 4, 75, 0
6, 120000, Note_on_c, 4, 82, 90
6, 120120, Note_on_c, 4, 82, 0
6, 120120, Note_on_c, 4, 82, 90
6, 120240, Note_on_c, 4, 82, 0
6, 120240, Note_on_c, 4, 79, 90
6, 120360, Note_on_c, 4, 79, 0
6, 120360, Note_on_c, 4, 79, 90
6, 120480, Note_on_c, 4, 79, 0
6, 120480, Note_on_c, 4, 75, 90
6, 120600, Note_on_c, 4, 75, 0
6, 120600, Note_on_c, 4, 75, 90
6, 120720, Note_on_c, 4, 75, 0
6, 120720, Note_on_c, 4, 74, 90
6, 120840, Note_on_c, 4, 74, 0
6, 120840, Note_on_c, 4, 74, 90
6, 120960, Note_on_c, 4, 74, 0
6, 120960, Note_on_c, 4, 73, 90
6, 121080, Note_on_c, 4, 73, 0
6, 121080, Note_on_c, 4, 73, 90
6, 121200, Note_on_c, 4, 73, 0
6, 121200, Note_on_c, 4, 79, 90
6, 121320, Note_on_c, 4, 79, 0
6, 121320, Note_on_c, 4, 79, 90
6, 121440, Note_on_c, 4, 79, 0
6, 121440, Note_on_c, 4, 77, 90
6, 121560, Note_on_c, 4, 77, 0
6, 121560, Note_on_c, 4, 77, 90
6, 121680, Note_on_c, 4, 77, 0
6, 121680, Note_on_c, 4, 86, 90
6, 121800, Note_on_c, 4, 86, 0
6, 121800, Note_on_c, 4, 86, 90
6, 121920, Note_on_c, 4, 86, 0
6, 121920, Note_on_c, 4, 76, 90
6, 122040, Note_on_c, 4, 76, 0
6, 122040, Note_on_c, 4, 76, 90
6, 122160, Note_on_c, 4, 76, 0
6, 122160, Note_on_c, 4, 86, 90
6, 122280, Note_on_c, 4, 86, 0
6, 122280, Note_on_c, 4, 86, 90
6, 122400, Note_on_c, 4, 86, 0
6, 122400, Note_on_c, 4, 69, 90
6, 122520, Note_on_c, 4, 69, 0
6, 122520, Note_on_c, 4, 69, 90
6, 122640, Note_on_c, 4, 69, 0
6, 122640, Note_on_c, 4, 85, 90
6, 122760, Note_on_c, 4, 85, 0
6, 122760, Note_on_c, 4, 85, 90
6, 122880, Note_on_c, 4, 85, 0
6, 122880, Note_on_c, 4, 86, 90
6, 123120, Note_on_c, 4, 86, 0
6, 123120, Note_on_c, 4, 77, 90
6, 123240, Note_on_c, 4, 77, 0
6, 123240, Note_on_c, 4, 77, 90
6, 123360, Note_on_c, 4, 77, 0
6, 123360, Note_on_c, 4, 74, 90
6, 123480, Note_on_c, 4, 74, 0
6, 123480, Note_on_c, 4, 74, 90
6, 123600, Note_on_c, 4, 74, 0
6, 123600, Note_on_c, 4, 72, 90
6, 123720, Note_on_c, 4, 72, 0
6, 123720, Note_on_c, 4, 72, 90
6, 123840, Note_on_c, 4, 72, 0
6, 123840, Note_on_c, 4, 70, 90
6, 123960, Note_on_c, 4, 70, 0
6, 123960, Note_on_c, 4, 70, 90
6, 124080, Note_on_c, 4, 70, 0
6, 124080, Note_on_c, 4, 69, 90
6, 124200, Note_on_c, 4, 69, 0
6, 124200, Note_on_c, 4, 69, 90
6, 124320, Note_on_c, 4, 69, 0
6, 124320, Note_on_c, 4, 68, 90
6, 124440, Note_on_c, 4, 68, 0
6, 124440, Note_on_c, 4, 68, 90
6, 124560, Note_on_c, 4, 68, 0
6, 124560, Note_on_c, 4, 71, 90
6, 124680, Note_on_c, 4, 71, 0
6, 124680, Note_on_c, 4, 71, 90
6, 124800, Note_on_c, 4, 71, 0
6, 124800, Note_on_c, 4, 69, 90
6, 124920, Note_on_c, 4, 69, 0
6, 124920, Note_on_c, 4, 69, 90
6, 125040, Note_on_c, 4, 69, 0
6, 125040, Note_on_c, 4, 79, 90
6, 125160, Note_on_c, 4, 79, 0
6, 125160, Note_on_c, 4, 79, 90
6, 125280, Note_on_c, 4, 79, 0
6, 125280, Note_on_c, 4, 76, 90
6, 125400, Note_on_c, 4, 76, 0
6, 125400, Note_on_c, 4, 76, 90
6, 125520, Note_on_c, 4, 76, 0
6, 125520, Note_on_c, 4, 74, 90
6, 125640, Note_on_c, 4, 74, 0
6, 125640, Note_on_c, 4, 74, 90
6, 125760, Note_on_c, 4, 74, 0
6, 125760, Note_on_c, 4, 73, 90
6, 125880, Note_on_c, 4, 73, 0
6, 125880, Note_on_c, 4, 73, 90
6, 126000, Note_on_c, 4, 73, 0
6, 126000, Note_on_c, 4, 82, 90
6, 126120, Note_on_c, 4, 82, 0
6, 126120, Note_on_c, 4, 82, 90
6, 126240, Note_on_c, 4, 82, 0
6, 126240, Note_on_c, 4, 81, 90
6, 126360, Note_on_c, 4, 81, 0
6, 126360, Note_on_c, 4, 81, 90
6, 126480, Note_on_c, 4, 81, 0
6, 126480, Note_on_c, 4, 79, 90
6, 126600, Note_on_c, 4, 79, 0
6, 126600, Note_on_c, 4, 79, 90
6, 126720, Note_on_c, 4, 79, 0
6, 126720, Note_on_c, 4, 77, 90
6, 126840, Note_on_c, 4, 77, 0
6, 126840, Note_on_c, 4, 77, 90
6, 126960, Note_on_c, 4, 77, 0
6, 126960, Note_on_c, 4, 86, 90
6, 127080, Note_on_c, 4, 86, 0
6, 127080, Note_on_c, 4, 86, 90
6, 127200, Note_on_c, 4, 86, 0
6, 127200, Note_on_c, 4, 82, 90
6, 127320, Note_on_c, 4, 82, 0
6, 127320, Note_on_c, 4, 82, 90
6, 127440, Note_on_c, 4, 82, 0
6, 127440, Note_on_c, 4, 79, 90
6, 127560, Note_on_c, 4, 79, 0
6, 127560, Note_on_c, 4, 79, 90
6, 127680, Note_on_c, 4, 79, 0
6, 127680, Note_on_c, 4, 77, 90
6, 127800, Note_on_c, 4, 77, 0
6, 127800, Note_on_c, 4, 77, 90
6, 127920, Note_on_c, 4, 77, 0
6, 127920, Note_on_c, 4, 86, 90
6, 128040, Note_on_c, 4, 86, 0
6, 128040, Note_on_c, 4, 86, 90
6, 128160, Note_on_c, 4, 86, 0
6, 128160, Note_on_c, 4, 76, 90
6, 128280, Note_on_c, 4, 76, 0
6, 128280, Note_on_c, 4, 76, 90
6, 128400, Note_on_c, 4, 76, 0
6, 128400, Note_on_c, 4, 85, 90
6, 128520, Note_on_c, 4, 85, 0
6, 128520, Note_on_c, 4, 85, 90
6, 128640, Note_on_c, 4, 85, 0
6, 128640, Note_on_c, 4, 86, 90
6, 129120, Note_on_c, 4, 86, 0
6, 129120, Note_on_c, 4, 62, 90
6, 129600, Note_on_c, 4, 62, 0
6, 129600, End_track
7, 0, Start_track
7, 0, MIDI_port, 0
7, 0, Title_t, "Track 6"
7, 0, Program_c, 5, 48
7, 0, Control_c, 5, 7, 112
7, 0, Control_c, 5, 10, 50
7, 20, Control_c, 5, 91, 80
7, 40, Note_on_c, 5, 65, 90
7, 120, Note_on_c, 5, 65, 90
7, 160, Note_on_c, 5, 65, 0
7, 240, Note_on_c, 5, 65, 0
7, 240, Note_on_c, 5, 65, 90
7, 360, Note_on_c, 5, 65, 0
7, 360, Note_on_c, 5, 65, 90
7, 480, Note_on_c, 5, 65, 0
7, 480, Note_on_c, 5, 65, 90
7, 600, Note_on_c, 5, 65, 0
7, 600, Note_on_c, 5, 65, 90
7, 720, Note_on_c, 5, 65, 0
7, 720, Note_on_c, 5, 65, 90
7, 840, Note_on_c, 5, 65, 0
7, 840, Note_on_c, 5, 65, 90
7, 960, Note_on_c, 5, 65, 0
7, 960, Note_on_c, 5, 65, 90
7, 1080, Note_on_c, 5, 65, 0
7, 1080, Note_on_c, 5, 65, 90
7, 1200, Note_on_c, 5, 65, 0
7, 1200, Note_on_c, 5, 65, 90
7, 1320, Note_on_c, 5, 65, 0
7, 1320, Note_on_c, 5, 65, 90
7, 1440, Note_on_c, 5, 65, 0
7, 1440, Note_on_c, 5, 65, 90
7, 1560, Note_on_c, 5, 65, 0
7, 1560, Note_on_c, 5, 65, 90
7, 1680, Note_on_c, 5, 65, 0
7, 1680, Note_on_c, 5, 65, 90
7, 1800, Note_on_c, 5, 65, 0
7, 1800, Note_on_c, 5, 65, 90
7, 1920, Note_on_c, 5, 65, 0
7, 1920, Note_on_c, 5, 67, 90
7, 2160, Note_on_c, 5, 67, 0
7, 2160, Note_on_c, 5, 67, 90
7, 2640, Note_on_c, 5, 67, 0
7, 2640, Note_on_c, 5, 67, 90
7, 3120, Note_on_c, 5, 67, 0
7, 3120, Note_on_c, 5, 67, 90
7, 3600, Note_on_c, 5, 67, 0
7, 3600, Note_on_c, 5, 67, 90
7, 3840, Note_on_c, 5, 67, 0
7, 3840, Note_on_c, 5, 67, 90
7, 3960, Note_on_c, 5, 67, 0
7, 3960, Note_on_c, 5, 67, 90
7, 4080, Note_on_c, 5, 67, 0
7, 4080, Note_on_c, 5, 67, 90
7, 4200, Note_on_c, 5, 67, 0
7, 4200, Note_on_c, 5, 67, 90
7, 4320, Note_on_c, 5, 67, 0
7, 4320, Note_on_c, 5, 67, 90
7, 4440, Note_on_c, 5, 67, 0
7, 4440, Note_on_c, 5, 67, 90
7, 4560, Note_on_c, 5, 67, 0
7, 4560, Note_on_c, 5, 67, 90
7, 4680, Note_on_c, 5, 67, 0
7, 4680, Note_on_c, 5, 67, 90
7, 4800, Note_on_c, 5, 67, 0
7, 4800, Note_on_c, 5, 67, 90
7, 4920, Note_on_c, 5, 67, 0
7, 4920, Note_on_c, 5, 67, 90
7, 5040, Note_on_c, 5, 67, 0
7, 5040, Note_on_c, 5, 67, 90
7, 5160, Note_on_c, 5, 67, 0
7, 5160, Note_on_c, 5, 67, 90
7, 5280, Note_on_c, 5, 67, 0
7, 5280, Note_on_c, 5, 67, 90
7, 5400, Note_on_c, 5, 67, 0
7, 5400, Note_on_c, 5, 67, 90
7, 5520, Note_on_c, 5, 67, 0
7, 5520, Note_on_c, 5, 67, 90
7, 5640, Note_on_c, 5, 67, 0
7, 5640, Note_on_c, 5, 67, 90
7, 5760, Note_on_c, 5, 67, 0
7, 5760, Note_on_c, 5, 65, 90
7, 6000, Note_on_c, 5, 65, 0
7, 6000, Note_on_c, 5, 65, 90
7, 6480, Note_on_c, 5, 65, 0
7, 6480, Note_on_c, 5, 65, 90
7, 6960, Note_on_c, 5, 65, 0
7, 6960, Note_on_c, 5, 65, 90
7, 7440, Note_on_c, 5, 65, 0
7, 7440, Note_on_c, 5, 65, 90
7, 7680, Note_on_c, 5, 65, 0
7, 7680, Note_on_c, 5, 67, 90
7, 8160, Note_on_c, 5, 67, 0
7, 8160, Note_on_c, 5, 65, 90
7, 8400, Note_on_c, 5, 65, 0
7, 8400, Note_on_c, 5, 65, 90
7, 8640, Note_on_c, 5, 65, 0
7, 8640, Note_on_c, 5, 65, 90
7, 8880, Note_on_c, 5, 65, 0
7, 8880, Note_on_c, 5, 65, 90
7, 9360, Note_on_c, 5, 65, 0
7, 9360, Note_on_c, 5, 65, 90
7, 9600, Note_on_c, 5, 65, 0
7, 9600, Note_on_c, 5, 69, 90
7, 9840, Note_on_c, 5, 69, 0
7, 9840, Note_on_c, 5, 69, 90
7, 10320, Note_on_c, 5, 69, 0
7, 10320, Note_on_c, 5, 69, 90
7, 10800, Note_on_c, 5, 69, 0
7, 10800, Note_on_c, 5, 69, 90
7, 11280, Note_on_c, 5, 69, 0
7, 11280, Note_on_c, 5, 69, 90
7, 11520, Note_on_c, 5, 69, 0
7, 11520, Note_on_c, 5, 67, 90
7, 11640, Note_on_c, 5, 67, 0
7, 11640, Note_on_c, 5, 67, 90
7, 11760, Note_on_c, 5, 67, 0
7, 11760, Note_on_c, 5, 67, 90
7, 11880, Note_on_c, 5, 67, 0
7, 11880, Note_on_c, 5, 67, 90
7, 12000, Note_on_c, 5, 67, 0
7, 12000, Note_on_c, 5, 69, 90
7, 12120, Note_on_c, 5, 69, 0
7, 12120, Note_on_c, 5, 69, 90
7, 12240, Note_on_c, 5, 69, 0
7, 12240, Note_on_c, 5, 69, 90
7, 12360, Note_on_c, 5, 69, 0
7, 12360, Note_on_c, 5, 69, 90
7, 12480, Note_on_c, 5, 69, 0
7, 12480, Note_on_c, 5, 70, 90
7, 12600, Note_on_c, 5, 70, 0
7, 12600, Note_on_c, 5, 70, 90
7, 12720, Note_on_c, 5, 70, 0
7, 12720, Note_on_c, 5, 70, 90
7, 12840, Note_on_c, 5, 70, 0
7, 12840, Note_on_c, 5, 70, 90
7, 12960, Note_on_c, 5, 70, 0
7, 12960, Note_on_c, 5, 69, 90
7, 13080, Note_on_c, 5, 69, 0
7, 13080, Note_on_c, 5, 69, 90
7, 13200, Note_on_c, 5, 69, 0
7, 13200, Note_on_c, 5, 74, 90
7, 13320, Note_on_c, 5, 74, 0
7, 13320, Note_on_c, 5, 74, 90
7, 13440, Note_on_c, 5, 74, 0
7, 13440, Note_on_c, 5, 74, 90
7, 13800, Note_on_c, 5, 74, 0
7, 13800, Note_on_c, 5, 73, 90
7, 13860, Note_on_c, 5, 73, 0
7, 13860, Note_on_c, 5, 74, 90
7, 13920, Note_on_c, 5, 74, 0
7, 13920, Note_on_c, 5, 73, 90
7, 14160, Note_on_c, 5, 73, 0
7, 14160, Note_on_c, 5, 69, 90
7, 14400, Note_on_c, 5, 69, 0
7, 14400, Note_on_c, 5, 69, 90
7, 14640, Note_on_c, 5, 69, 0
7, 14640, Note_on_c, 5, 69, 90
7, 15120, Note_on_c, 5, 69, 0
7, 15120, Note_on_c, 5, 69, 90
7, 15600, Note_on_c, 5, 69, 0
7, 15600, Note_on_c, 5, 69, 90
7, 15720, Note_on_c, 5, 69, 0
7, 15720, Note_on_c, 5, 69, 90
7, 15840, Note_on_c, 5, 69, 0
7, 15840, Note_on_c, 5, 70, 90
7, 15960, Note_on_c, 5, 70, 0
7, 15960, Note_on_c, 5, 70, 90
7, 16080, Note_on_c, 5, 70, 0
7, 16080, Note_on_c, 5, 71, 90
7, 16200, Note_on_c, 5, 71, 0
7, 16200, Note_on_c, 5, 71, 90
7, 16320, Note_on_c, 5, 71, 0
7, 16320, Note_on_c, 5, 72, 90
7, 16440, Note_on_c, 5, 72, 0
7, 16440, Note_on_c, 5, 72, 90
7, 16560, Note_on_c, 5, 72, 0
7, 16560, Note_on_c, 5, 73, 90
7, 16680, Note_on_c, 5, 73, 0
7, 16680, Note_on_c, 5, 73, 90
7, 16800, Note_on_c, 5, 73, 0
7, 16800, Note_on_c, 5, 74, 90
7, 16920, Note_on_c, 5, 74, 0
7, 16920, Note_on_c, 5, 74, 90
7, 17040, Note_on_c, 5, 74, 0
7, 17040, Note_on_c, 5, 70, 90
7, 17160, Note_on_c, 5, 70, 0
7, 17160, Note_on_c, 5, 70, 90
7, 17280, Note_on_c, 5, 70, 0
7, 17280, Note_on_c, 5, 69, 90
7, 17400, Note_on_c, 5, 69, 0
7, 17400, Note_on_c, 5, 69, 90
7, 17520, Note_on_c, 5, 69, 0
7, 17520, Note_on_c, 5, 69, 90
7, 17640, Note_on_c, 5, 69, 0
7, 17640, Note_on_c, 5, 69, 90
7, 17760, Note_on_c, 5, 69, 0
7, 17760, Note_on_c, 5, 69, 90
7, 17880, Note_on_c, 5, 69, 0
7, 17880, Note_on_c, 5, 69, 90
7, 18000, Note_on_c, 5, 69, 0
7, 18000, Note_on_c, 5, 69, 90
7, 18120, Note_on_c, 5, 69, 0
7, 18120, Note_on_c, 5, 69, 90
7, 18240, Note_on_c, 5, 69, 0
7, 18240, Note_on_c, 5, 69, 90
7, 18360, Note_on_c, 5, 69, 0
7, 18360, Note_on_c, 5, 69, 90
7, 18480, Note_on_c, 5, 69, 0
7, 18480, Note_on_c, 5, 69, 90
7, 18600, Note_on_c, 5, 69, 0
7, 18600, Note_on_c, 5, 69, 90
7, 18720, Note_on_c, 5, 69, 0
7, 18720, Note_on_c, 5, 69, 90
7, 18840, Note_on_c, 5, 69, 0
7, 18840, Note_on_c, 5, 69, 90
7, 18960, Note_on_c, 5, 69, 0
7, 18960, Note_on_c, 5, 69, 90
7, 19080, Note_on_c, 5, 69, 0
7, 19080, Note_on_c, 5, 69, 90
7, 19200, Note_on_c, 5, 69, 0
7, 19200, Note_on_c, 5, 69, 90
7, 19320, Note_on_c, 5, 69, 0
7, 19320, Note_on_c, 5, 69, 90
7, 19440, Note_on_c, 5, 69, 0
7, 19440, Note_on_c, 5, 69, 90
7, 19560, Note_on_c, 5, 69, 0
7, 19560, Note_on_c, 5, 69, 90
7, 19680, Note_on_c, 5, 69, 0
7, 19680, Note_on_c, 5, 60, 90
7, 19800, Note_on_c, 5, 60, 0
7, 19800, Note_on_c, 5, 60, 90
7, 19920, Note_on_c, 5, 60, 0
7, 19920, Note_on_c, 5, 60, 90
7, 20040, Note_on_c, 5, 60, 0
7, 20040, Note_on_c, 5, 60, 90
7, 20160, Note_on_c, 5, 60, 0
7, 20160, Note_on_c, 5, 65, 90
7, 20280, Note_on_c, 5, 65, 0
7, 20280, Note_on_c, 5, 65, 90
7, 20400, Note_on_c, 5, 65, 0
7, 20400, Note_on_c, 5, 65, 90
7, 20520, Note_on_c, 5, 65, 0
7, 20520, Note_on_c, 5, 65, 90
7, 20640, Note_on_c, 5, 65, 0
7, 20640, Note_on_c, 5, 69, 90
7, 20760, Note_on_c, 5, 69, 0
7, 20760, Note_on_c, 5, 69, 90
7, 20880, Note_on_c, 5, 69, 0
7, 20880, Note_on_c, 5, 69, 90
7, 21000, Note_on_c, 5, 69, 0
7, 21000, Note_on_c, 5, 69, 90
7, 21120, Note_on_c, 5, 69, 0
7, 21120, Note_on_c, 5, 72, 90
7, 21240, Note_on_c, 5, 72, 0
7, 21240, Note_on_c, 5, 63, 90
7, 21360, Note_on_c, 5, 63, 0
7, 21360, Note_on_c, 5, 63, 90
7, 21480, Note_on_c, 5, 63, 0
7, 21480, Note_on_c, 5, 63, 90
7, 21600, Note_on_c, 5, 63, 0
7, 21600, Note_on_c, 5, 63, 90
7, 21720, Note_on_c, 5, 63, 0
7, 21720, Note_on_c, 5, 63, 90
7, 21840, Note_on_c, 5, 63, 0
7, 21840, Note_on_c, 5, 63, 90
7, 21960, Note_on_c, 5, 63, 0
7, 21960, Note_on_c, 5, 63, 90
7, 22080, Note_on_c, 5, 63, 0
7, 22080, Note_on_c, 5, 72, 90
7, 22200, Note_on_c, 5, 72, 0
7, 22200, Note_on_c, 5, 62, 90
7, 22320, Note_on_c, 5, 62, 0
7, 22320, Note_on_c, 5, 62, 90
7, 22440, Note_on_c, 5, 62, 0
7, 22440, Note_on_c, 5, 62, 90
7, 22560, Note_on_c, 5, 62, 0
7, 22560, Note_on_c, 5, 62, 90
7, 22680, Note_on_c, 5, 62, 0
7, 22680, Note_on_c, 5, 62, 90
7, 22800, Note_on_c, 5, 62, 0
7, 22800, Note_on_c, 5, 62, 90
7, 22920, Note_on_c, 5, 62, 0
7, 22920, Note_on_c, 5, 62, 90
7, 23040, Note_on_c, 5, 62, 0
7, 23040, Note_on_c, 5, 62, 90
7, 23160, Note_on_c, 5, 62, 0
7, 23160, Note_on_c, 5, 67, 90
7, 23280, Note_on_c, 5, 67, 0
7, 23280, Note_on_c, 5, 67, 90
7, 23400, Note_on_c, 5, 67, 0
7, 23400, Note_on_c, 5, 67, 90
7, 23520, Note_on_c, 5, 67, 0
7, 23520, Note_on_c, 5, 67, 90
7, 23640, Note_on_c, 5, 67, 0
7, 23640, Note_on_c, 5, 67, 90
7, 23760, Note_on_c, 5, 67, 0
7, 23760, Note_on_c, 5, 67, 90
7, 23880, Note_on_c, 5, 67, 0
7, 23880, Note_on_c, 5, 67, 90
7, 24000, Note_on_c, 5, 67, 0
7, 24000, Note_on_c, 5, 62, 90
7, 24120, Note_on_c, 5, 62, 0
7, 24120, Note_on_c, 5, 67, 90
7, 24240, Note_on_c, 5, 67, 0
7, 24240, Note_on_c, 5, 67, 90
7, 24360, Note_on_c, 5, 67, 0
7, 24360, Note_on_c, 5, 67, 90
7, 24480, Note_on_c, 5, 67, 0
7, 24480, Note_on_c, 5, 67, 90
7, 24600, Note_on_c, 5, 67, 0
7, 24600, Note_on_c, 5, 67, 90
7, 24720, Note_on_c, 5, 67, 0
7, 24720, Note_on_c, 5, 67, 90
7, 24840, Note_on_c, 5, 67, 0
7, 24840, Note_on_c, 5, 67, 90
7, 24960, Note_on_c, 5, 67, 0
7, 24960, Note_on_c, 5, 62, 90
7, 25080, Note_on_c, 5, 62, 0
7, 25080, Note_on_c, 5, 62, 90
7, 25200, Note_on_c, 5, 62, 0
7, 25200, Note_on_c, 5, 62, 90
7, 25320, Note_on_c, 5, 62, 0
7, 25320, Note_on_c, 5, 62, 90
7, 25440, Note_on_c, 5, 62, 0
7, 25440, Note_on_c, 5, 62, 90
7, 25560, Note_on_c, 5, 62, 0
7, 25560, Note_on_c, 5, 62, 90
7, 25680, Note_on_c, 5, 62, 0
7, 25680, Note_on_c, 5, 62, 90
7, 25800, Note_on_c, 5, 62, 0
7, 25800, Note_on_c, 5, 62, 90
7, 25920, Note_on_c, 5, 62, 0
7, 25920, Note_on_c, 5, 67, 90
7, 26040, Note_on_c, 5, 67, 0
7, 26040, Note_on_c, 5, 67, 90
7, 26160, Note_on_c, 5, 67, 0
7, 26160, Note_on_c, 5, 67, 90
7, 26280, Note_on_c, 5, 67, 0
7, 26280, Note_on_c, 5, 67, 90
7, 26400, Note_on_c, 5, 67, 0
7, 26400, Note_on_c, 5, 71, 90
7, 26520, Note_on_c, 5, 71, 0
7, 26520, Note_on_c, 5, 71, 90
7, 26640, Note_on_c, 5, 71, 0
7, 26640, Note_on_c, 5, 71, 90
7, 26760, Note_on_c, 5, 71, 0
7, 26760, Note_on_c, 5, 71, 90
7, 26880, Note_on_c, 5, 71, 0
7, 26880, Note_on_c, 5, 74, 90
7, 27000, Note_on_c, 5, 74, 0
7, 27000, Note_on_c, 5, 71, 90
7, 27120, Note_on_c, 5, 71, 0
7, 27120, Note_on_c, 5, 71, 90
7, 27240, Note_on_c, 5, 71, 0
7, 27240, Note_on_c, 5, 71, 90
7, 27360, Note_on_c, 5, 71, 0
7, 27360, Note_on_c, 5, 71, 90
7, 27480, Note_on_c, 5, 71, 0
7, 27480, Note_on_c, 5, 71, 90
7, 27600, Note_on_c, 5, 71, 0
7, 27600, Note_on_c, 5, 71, 90
7, 27720, Note_on_c, 5, 71, 0
7, 27720, Note_on_c, 5, 71, 90
7, 27840, Note_on_c, 5, 71, 0
7, 27840, Note_on_c, 5, 74, 90
7, 27960, Note_on_c, 5, 74, 0
7, 27960, Note_on_c, 5, 71, 90
7, 28080, Note_on_c, 5, 71, 0
7, 28080, Note_on_c, 5, 71, 90
7, 28200, Note_on_c, 5, 71, 0
7, 28200, Note_on_c, 5, 71, 90
7, 28320, Note_on_c, 5, 71, 0
7, 28320, Note_on_c, 5, 71, 90
7, 28440, Note_on_c, 5, 71, 0
7, 28440, Note_on_c, 5, 71, 90
7, 28560, Note_on_c, 5, 71, 0
7, 28560, Note_on_c, 5, 71, 90
7, 28680, Note_on_c, 5, 71, 0
7, 28680, Note_on_c, 5, 71, 90
7, 28800, Note_on_c, 5, 71, 0
7, 28800, Note_on_c, 5, 72, 90
7, 28920, Note_on_c, 5, 72, 0
7, 28920, Note_on_c, 5, 72, 90
7, 29040, Note_on_c, 5, 72, 0
7, 29040, Note_on_c, 5, 72, 90
7, 29160, Note_on_c, 5, 72, 0
7, 29160, Note_on_c, 5, 72, 90
7, 29280, Note_on_c, 5, 72, 0
7, 29280, Note_on_c, 5, 72, 90
7, 29400, Note_on_c, 5, 72, 0
7, 29400, Note_on_c, 5, 72, 90
7, 29520, Note_on_c, 5, 72, 0
7, 29520, Note_on_c, 5, 72, 90
7, 29640, Note_on_c, 5, 72, 0
7, 29640, Note_on_c, 5, 72, 90
7, 29760, Note_on_c, 5, 72, 0
7, 29760, Note_on_c, 5, 74, 90
7, 29880, Note_on_c, 5, 74, 0
7, 29880, Note_on_c, 5, 74, 90
7, 30000, Note_on_c, 5, 74, 0
7, 30000, Note_on_c, 5, 74, 90
7, 30120, Note_on_c, 5, 74, 0
7, 30120, Note_on_c, 5, 74, 90
7, 30240, Note_on_c, 5, 74, 0
7, 30240, Note_on_c, 5, 74, 90
7, 30360, Note_on_c, 5, 74, 0
7, 30360, Note_on_c, 5, 74, 90
7, 30480, Note_on_c, 5, 74, 0
7, 30480, Note_on_c, 5, 74, 90
7, 30600, Note_on_c, 5, 74, 0
7, 30600, Note_on_c, 5, 74, 90
7, 30720, Note_on_c, 5, 74, 0
7, 30720, Note_on_c, 5, 72, 90
7, 30840, Note_on_c, 5, 72, 0
7, 30840, Note_on_c, 5, 72, 90
7, 30960, Note_on_c, 5, 72, 0
7, 30960, Note_on_c, 5, 72, 90
7, 31080, Note_on_c, 5, 72, 0
7, 31080, Note_on_c, 5, 72, 90
7, 31200, Note_on_c, 5, 72, 0
7, 31200, Note_on_c, 5, 72, 90
7, 31320, Note_on_c, 5, 72, 0
7, 31320, Note_on_c, 5, 72, 90
7, 31440, Note_on_c, 5, 72, 0
7, 31440, Note_on_c, 5, 72, 90
7, 31560, Note_on_c, 5, 72, 0
7, 31560, Note_on_c, 5, 72, 90
7, 31680, Note_on_c, 5, 72, 0
7, 31680, Note_on_c, 5, 72, 90
7, 31800, Note_on_c, 5, 72, 0
7, 31800, Note_on_c, 5, 72, 90
7, 31920, Note_on_c, 5, 72, 0
7, 31920, Note_on_c, 5, 72, 90
7, 32040, Note_on_c, 5, 72, 0
7, 32040, Note_on_c, 5, 72, 90
7, 32160, Note_on_c, 5, 72, 0
7, 32160, Note_on_c, 5, 71, 90
7, 32280, Note_on_c, 5, 71, 0
7, 32280, Note_on_c, 5, 71, 90
7, 32400, Note_on_c, 5, 71, 0
7, 32400, Note_on_c, 5, 69, 90
7, 32520, Note_on_c, 5, 69, 0
7, 32520, Note_on_c, 5, 69, 90
7, 32640, Note_on_c, 5, 69, 0
7, 32640, Note_on_c, 5, 68, 90
7, 32760, Note_on_c, 5, 68, 0
7, 32760, Note_on_c, 5, 68, 90
7, 32880, Note_on_c, 5, 68, 0
7, 32880, Note_on_c, 5, 68, 90
7, 33000, Note_on_c, 5, 68, 0
7, 33000, Note_on_c, 5, 68, 90
7, 33120, Note_on_c, 5, 68, 0
7, 33120, Note_on_c, 5, 69, 90
7, 33240, Note_on_c, 5, 69, 0
7, 33240, Note_on_c, 5, 69, 90
7, 33360, Note_on_c, 5, 69, 0
7, 33360, Note_on_c, 5, 69, 90
7, 33480, Note_on_c, 5, 69, 0
7, 33480, Note_on_c, 5, 69, 90
7, 33600, Note_on_c, 5, 69, 0
7, 33600, Note_on_c, 5, 69, 90
7, 33720, Note_on_c, 5, 69, 0
7, 33720, Note_on_c, 5, 69, 90
7, 33840, Note_on_c, 5, 69, 0
7, 33840, Note_on_c, 5, 71, 90
7, 33960, Note_on_c, 5, 71, 0
7, 33960, Note_on_c, 5, 71, 90
7, 34080, Note_on_c, 5, 71, 0
7, 34080, Note_on_c, 5, 68, 90
7, 34200, Note_on_c, 5, 68, 0
7, 34200, Note_on_c, 5, 68, 90
7, 34320, Note_on_c, 5, 68, 0
7, 34320, Note_on_c, 5, 71, 90
7, 34440, Note_on_c, 5, 71, 0
7, 34440, Note_on_c, 5, 71, 90
7, 34560, Note_on_c, 5, 71, 0
7, 34560, Note_on_c, 5, 69, 90
7, 34800, Note_on_c, 5, 69, 0
7, 35040, Note_on_c, 5, 72, 90
7, 35160, Note_on_c, 5, 72, 0
7, 35160, Note_on_c, 5, 72, 90
7, 35280, Note_on_c, 5, 72, 0
7, 35280, Note_on_c, 5, 71, 90
7, 35400, Note_on_c, 5, 71, 0
7, 35400, Note_on_c, 5, 71, 90
7, 35520, Note_on_c, 5, 71, 0
7, 35520, Note_on_c, 5, 69, 90
7, 35640, Note_on_c, 5, 69, 0
7, 35640, Note_on_c, 5, 69, 90
7, 35760, Note_on_c, 5, 69, 0
7, 35760, Note_on_c, 5, 69, 90
7, 35880, Note_on_c, 5, 69, 0
7, 35880, Note_on_c, 5, 69, 90
7, 36000, Note_on_c, 5, 69, 0
7, 36000, Note_on_c, 5, 69, 90
7, 36120, Note_on_c, 5, 69, 0
7, 36120, Note_on_c, 5, 69, 90
7, 36240, Note_on_c, 5, 69, 0
7, 36240, Note_on_c, 5, 72, 90
7, 36360, Note_on_c, 5, 72, 0
7, 36360, Note_on_c, 5, 72, 90
7, 36480, Note_on_c, 5, 72, 0
7, 36480, Note_on_c, 5, 71, 90
7, 36600, Note_on_c, 5, 71, 0
7, 36600, Note_on_c, 5, 71, 90
7, 36720, Note_on_c, 5, 71, 0
7, 36720, Note_on_c, 5, 69, 90
7, 36840, Note_on_c, 5, 69, 0
7, 36840, Note_on_c, 5, 69, 90
7, 36960, Note_on_c, 5, 69, 0
7, 36960, Note_on_c, 5, 77, 90
7, 37080, Note_on_c, 5, 77, 0
7, 37080, Note_on_c, 5, 77, 90
7, 37200, Note_on_c, 5, 77, 0
7, 37200, Note_on_c, 5, 76, 90
7, 37320, Note_on_c, 5, 76, 0
7, 37320, Note_on_c, 5, 76, 90
7, 37440, Note_on_c, 5, 76, 0
7, 37440, Note_on_c, 5, 74, 90
7, 37560, Note_on_c, 5, 74, 0
7, 37560, Note_on_c, 5, 74, 90
7, 37680, Note_on_c, 5, 74, 0
7, 37680, Note_on_c, 5, 72, 90
7, 37800, Note_on_c, 5, 72, 0
7, 37800, Note_on_c, 5, 72, 90
7, 37920, Note_on_c, 5, 72, 0
7, 37920, Note_on_c, 5, 71, 90
7, 38040, Note_on_c, 5, 71, 0
7, 38040, Note_on_c, 5, 71, 90
7, 38160, Note_on_c, 5, 71, 0
7, 38160, Note_on_c, 5, 68, 90
7, 38280, Note_on_c, 5, 68, 0
7, 38280, Note_on_c, 5, 68, 90
7, 38400, Note_on_c, 5, 68, 0
7, 38400, Note_on_c, 5, 69, 90
7, 38520, Note_on_c, 5, 69, 0
7, 38520, Note_on_c, 5, 69, 90
7, 38640, Note_on_c, 5, 69, 0
7, 38640, Note_on_c, 5, 76, 90
7, 38760, Note_on_c, 5, 76, 0
7, 38760, Note_on_c, 5, 76, 90
7, 38880, Note_on_c, 5, 76, 0
7, 38880, Note_on_c, 5, 69, 90
7, 39000, Note_on_c, 5, 69, 0
7, 39000, Note_on_c, 5, 69, 90
7, 39120, Note_on_c, 5, 69, 0
7, 39120, Note_on_c, 5, 74, 90
7, 39240, Note_on_c, 5, 74, 0
7, 39240, Note_on_c, 5, 74, 90
7, 39360, Note_on_c, 5, 74, 0
7, 39360, Note_on_c, 5, 69, 90
7, 39480, Note_on_c, 5, 69, 0
7, 39480, Note_on_c, 5, 69, 90
7, 39600, Note_on_c, 5, 69, 0
7, 39600, Note_on_c, 5, 72, 90
7, 39720, Note_on_c, 5, 72, 0
7, 39720, Note_on_c, 5, 72, 90
7, 39840, Note_on_c, 5, 72, 0
7, 39840, Note_on_c, 5, 68, 90
7, 39960, Note_on_c, 5, 68, 0
7, 39960, Note_on_c, 5, 68, 90
7, 40080, Note_on_c, 5, 68, 0
7, 40080, Note_on_c, 5, 71, 90
7, 40200, Note_on_c, 5, 71, 0
7, 40200, Note_on_c, 5, 71, 90
7, 40320, Note_on_c, 5, 71, 0
7, 40320, Note_on_c, 5, 69, 90
7, 40440, Note_on_c, 5, 69, 0
7, 40440, Note_on_c, 5, 69, 90
7, 40560, Note_on_c, 5, 69, 0
7, 40560, Note_on_c, 5, 69, 90
7, 40680, Note_on_c, 5, 69, 0
7, 40680, Note_on_c, 5, 69, 90
7, 40800, Note_on_c, 5, 69, 0
7, 40800, Note_on_c, 5, 69, 90
7, 40920, Note_on_c, 5, 69, 0
7, 40920, Note_on_c, 5, 69, 90
7, 41040, Note_on_c, 5, 69, 0
7, 41040, Note_on_c, 5, 69, 90
7, 41160, Note_on_c, 5, 69, 0
7, 41160, Note_on_c, 5, 69, 90
7, 41280, Note_on_c, 5, 69, 0
7, 41280, Note_on_c, 5, 69, 90
7, 41400, Note_on_c, 5, 69, 0
7, 41400, Note_on_c, 5, 69, 90
7, 41520, Note_on_c, 5, 69, 0
7, 41520, Note_on_c, 5, 69, 90
7, 41640, Note_on_c, 5, 69, 0
7, 41640, Note_on_c, 5, 69, 90
7, 41760, Note_on_c, 5, 69, 0
7, 41760, Note_on_c, 5, 69, 90
7, 41880, Note_on_c, 5, 69, 0
7, 41880, Note_on_c, 5, 69, 90
7, 42000, Note_on_c, 5, 69, 0
7, 42000, Note_on_c, 5, 69, 90
7, 42120, Note_on_c, 5, 69, 0
7, 42120, Note_on_c, 5, 69, 90
7, 42240, Note_on_c, 5, 69, 0
7, 42240, Note_on_c, 5, 64, 90
7, 42480, Note_on_c, 5, 64, 0
7, 42480, Note_on_c, 5, 64, 90
7, 42960, Note_on_c, 5, 64, 0
7, 42960, Note_on_c, 5, 64, 90
7, 43440, Note_on_c, 5, 64, 0
7, 43440, Note_on_c, 5, 64, 90
7, 43920, Note_on_c, 5, 64, 0
7, 43920, Note_on_c, 5, 64, 90
7, 44160, Note_on_c, 5, 64, 0
7, 44160, Note_on_c, 5, 62, 90
7, 44280, Note_on_c, 5, 62, 0
7, 44280, Note_on_c, 5, 62, 90
7, 44400, Note_on_c, 5, 62, 0
7, 44400, Note_on_c, 5, 62, 90
7, 44520, Note_on_c, 5, 62, 0
7, 44520, Note_on_c, 5, 62, 90
7, 44640, Note_on_c, 5, 62, 0
7, 44640, Note_on_c, 5, 62, 90
7, 44760, Note_on_c, 5, 62, 0
7, 44760, Note_on_c, 5, 62, 90
7, 44880, Note_on_c, 5, 62, 0
7, 44880, Note_on_c, 5, 62, 90
7, 45000, Note_on_c, 5, 62, 0
7, 45000, Note_on_c, 5, 62, 90
7, 45120, Note_on_c, 5, 62, 0
7, 45120, Note_on_c, 5, 62, 90
7, 45240, Note_on_c, 5, 62, 0
7, 45240, Note_on_c, 5, 62, 90
7, 45360, Note_on_c, 5, 62, 0
7, 45360, Note_on_c, 5, 62, 90
7, 45480, Note_on_c, 5, 62, 0
7, 45480, Note_on_c, 5, 62, 90
7, 45600, Note_on_c, 5, 62, 0
7, 45600, Note_on_c, 5, 62, 90
7, 45720, Note_on_c, 5, 62, 0
7, 45720, Note_on_c, 5, 62, 90
7, 45840, Note_on_c, 5, 62, 0
7, 45840, Note_on_c, 5, 62, 90
7, 45960, Note_on_c, 5, 62, 0
7, 45960, Note_on_c, 5, 62, 90
7, 46080, Note_on_c, 5, 62, 0
7, 46080, Note_on_c, 5, 60, 90
7, 46320, Note_on_c, 5, 60, 0
7, 46320, Note_on_c, 5, 64, 90
7, 46800, Note_on_c, 5, 64, 0
7, 46800, Note_on_c, 5, 64, 90
7, 47280, Note_on_c, 5, 64, 0
7, 47280, Note_on_c, 5, 64, 90
7, 47520, Note_on_c, 5, 64, 0
7, 47520, Note_on_c, 5, 64, 90
7, 47760, Note_on_c, 5, 64, 0
7, 47760, Note_on_c, 5, 64, 90
7, 48000, Note_on_c, 5, 64, 0
7, 48000, Note_on_c, 5, 62, 90
7, 48480, Note_on_c, 5, 62, 0
7, 48480, Note_on_c, 5, 64, 90
7, 48720, Note_on_c, 5, 64, 0
7, 48720, Note_on_c, 5, 64, 90
7, 48960, Note_on_c, 5, 64, 0
7, 48960, Note_on_c, 5, 64, 90
7, 49200, Note_on_c, 5, 64, 0
7, 49200, Note_on_c, 5, 64, 90
7, 49680, Note_on_c, 5, 64, 0
7, 49680, Note_on_c, 5, 64, 90
7, 49920, Note_on_c, 5, 64, 0
7, 49920, Note_on_c, 5, 68, 90
7, 50400, Note_on_c, 5, 68, 0
7, 50400, Note_on_c, 5, 69, 90
7, 50520, Note_on_c, 5, 69, 0
7, 50520, Note_on_c, 5, 64, 90
7, 50640, Note_on_c, 5, 64, 0
7, 50640, Note_on_c, 5, 69, 90
7, 50760, Note_on_c, 5, 69, 0
7, 50760, Note_on_c, 5, 72, 90
7, 50880, Note_on_c, 5, 72, 0
7, 50880, Note_on_c, 5, 76, 90
7, 51120, Note_on_c, 5, 76, 0
7, 51120, Note_on_c, 5, 76, 90
7, 51600, Note_on_c, 5, 76, 0
7, 51600, Note_on_c, 5, 76, 90
7, 51840, Note_on_c, 5, 76, 0
7, 51840, Note_on_c, 5, 77, 90
7, 51960, Note_on_c, 5, 77, 0
7, 51960, Note_on_c, 5, 77, 90
7, 52080, Note_on_c, 5, 77, 0
7, 52080, Note_on_c, 5, 69, 90
7, 52200, Note_on_c, 5, 69, 0
7, 52200, Note_on_c, 5, 69, 90
7, 52320, Note_on_c, 5, 69, 0
7, 52320, Note_on_c, 5, 67, 90
7, 52440, Note_on_c, 5, 67, 0
7, 52440, Note_on_c, 5, 67, 90
7, 52560, Note_on_c, 5, 67, 0
7, 52560, Note_on_c, 5, 79, 90
7, 52680, Note_on_c, 5, 79, 0
7, 52680, Note_on_c, 5, 79, 90
7, 52800, Note_on_c, 5, 79, 0
7, 52800, Note_on_c, 5, 77, 90
7, 52920, Note_on_c, 5, 77, 0
7, 52920, Note_on_c, 5, 77, 90
7, 53040, Note_on_c, 5, 77, 0
7, 53040, Note_on_c, 5, 65, 90
7, 53160, Note_on_c, 5, 65, 0
7, 53160, Note_on_c, 5, 65, 90
7, 53280, Note_on_c, 5, 65, 0
7, 53280, Note_on_c, 5, 72, 90
7, 53400, Note_on_c, 5, 72, 0
7, 53400, Note_on_c, 5, 72, 90
7, 53520, Note_on_c, 5, 72, 0
7, 53520, Note_on_c, 5, 69, 90
7, 53640, Note_on_c, 5, 69, 0
7, 53640, Note_on_c, 5, 69, 90
7, 53760, Note_on_c, 5, 69, 0
7, 53760, Note_on_c, 5, 72, 90
7, 54120, Note_on_c, 5, 72, 0
7, 54120, Note_on_c, 5, 71, 90
7, 54180, Note_on_c, 5, 71, 0
7, 54180, Note_on_c, 5, 72, 90
7, 54240, Note_on_c, 5, 72, 0
7, 54240, Note_on_c, 5, 71, 90
7, 54480, Note_on_c, 5, 71, 0
7, 54480, Note_on_c, 5, 68, 90
7, 54720, Note_on_c, 5, 68, 0
7, 54720, Note_on_c, 5, 67, 90
7, 54960, Note_on_c, 5, 67, 0
7, 54960, Note_on_c, 5, 67, 90
7, 55440, Note_on_c, 5, 67, 0
7, 55440, Note_on_c, 5, 67, 90
7, 55680, Note_on_c, 5, 67, 0
7, 55680, Note_on_c, 5, 68, 90
7, 55920, Note_on_c, 5, 68, 0
7, 55920, Note_on_c, 5, 68, 90
7, 56160, Note_on_c, 5, 68, 0
7, 56160, Note_on_c, 5, 68, 90
7, 56400, Note_on_c, 5, 68, 0
7, 56400, Note_on_c, 5, 68, 90
7, 56640, Note_on_c, 5, 68, 0
7, 56640, Note_on_c, 5, 62, 90
7, 56880, Note_on_c, 5, 62, 0
7, 56880, Note_on_c, 5, 59, 90
7, 57120, Note_on_c, 5, 59, 0
7, 57120, Note_on_c, 5, 59, 90
7, 57360, Note_on_c, 5, 59, 0
7, 57360, Note_on_c, 5, 59, 90
7, 57600, Note_on_c, 5, 59, 0
7, 57600, Note_on_c, 5, 60, 90
7, 57720, Note_on_c, 5, 60, 0
7, 57720, Note_on_c, 5, 63, 90
7, 57840, Note_on_c, 5, 63, 0
7, 57840, Note_on_c, 5, 63, 90
7, 57960, Note_on_c, 5, 63, 0
7, 57960, Note_on_c, 5, 63, 90
7, 58080, Note_on_c, 5, 63, 0
7, 58080, Note_on_c, 5, 63, 90
7, 58200, Note_on_c, 5, 63, 0
7, 58200, Note_on_c, 5, 63, 90
7, 58320, Note_on_c, 5, 63, 0
7, 58320, Note_on_c, 5, 63, 90
7, 58440, Note_on_c, 5, 63, 0
7, 58440, Note_on_c, 5, 63, 90
7, 58560, Note_on_c, 5, 63, 0
7, 58560, Note_on_c, 5, 63, 90
7, 58680, Note_on_c, 5, 63, 0
7, 58680, Note_on_c, 5, 63, 90
7, 58800, Note_on_c, 5, 63, 0
7, 58800, Note_on_c, 5, 63, 90
7, 58920, Note_on_c, 5, 63, 0
7, 58920, Note_on_c, 5, 63, 90
7, 59040, Note_on_c, 5, 63, 0
7, 59040, Note_on_c, 5, 63, 90
7, 59160, Note_on_c, 5, 63, 0
7, 59160, Note_on_c, 5, 63, 90
7, 59280, Note_on_c, 5, 63, 0
7, 59280, Note_on_c, 5, 63, 90
7, 59400, Note_on_c, 5, 63, 0
7, 59400, Note_on_c, 5, 63, 90
7, 59520, Note_on_c, 5, 63, 0
7, 59520, Note_on_c, 5, 67, 90
7, 59640, Note_on_c, 5, 67, 0
7, 59640, Note_on_c, 5, 67, 90
7, 59760, Note_on_c, 5, 67, 0
7, 59760, Note_on_c, 5, 67, 90
7, 59880, Note_on_c, 5, 67, 0
7, 59880, Note_on_c, 5, 67, 90
7, 60000, Note_on_c, 5, 67, 0
7, 60000, Note_on_c, 5, 67, 90
7, 60120, Note_on_c, 5, 67, 0
7, 60120, Note_on_c, 5, 67, 90
7, 60240, Note_on_c, 5, 67, 0
7, 60240, Note_on_c, 5, 67, 90
7, 60360, Note_on_c, 5, 67, 0
7, 60360, Note_on_c, 5, 67, 90
7, 60480, Note_on_c, 5, 67, 0
7, 60480, Note_on_c, 5, 67, 90
7, 60600, Note_on_c, 5, 67, 0
7, 60600, Note_on_c, 5, 67, 90
7, 60720, Note_on_c, 5, 67, 0
7, 60720, Note_on_c, 5, 67, 90
7, 60840, Note_on_c, 5, 67, 0
7, 60840, Note_on_c, 5, 67, 90
7, 60960, Note_on_c, 5, 67, 0
7, 60960, Note_on_c, 5, 67, 90
7, 61080, Note_on_c, 5, 67, 0
7, 61080, Note_on_c, 5, 67, 90
7, 61200, Note_on_c, 5, 67, 0
7, 61200, Note_on_c, 5, 67, 90
7, 61320, Note_on_c, 5, 67, 0
7, 61320, Note_on_c, 5, 67, 90
7, 61440, Note_on_c, 5, 67, 0
7, 61440, Note_on_c, 5, 67, 90
7, 61680, Note_on_c, 5, 67, 0
7, 61680, Note_on_c, 5, 67, 90
7, 62160, Note_on_c, 5, 67, 0
7, 62160, Note_on_c, 5, 67, 90
7, 62640, Note_on_c, 5, 67, 0
7, 62640, Note_on_c, 5, 67, 90
7, 63120, Note_on_c, 5, 67, 0
7, 63120, Note_on_c, 5, 67, 90
7, 63360, Note_on_c, 5, 67, 0
7, 63360, Note_on_c, 5, 64, 90
7, 63480, Note_on_c, 5, 64, 0
7, 63480, Note_on_c, 5, 64, 90
7, 63600, Note_on_c, 5, 64, 0
7, 63600, Note_on_c, 5, 64, 90
7, 63720, Note_on_c, 5, 64, 0
7, 63720, Note_on_c, 5, 64, 90
7, 63840, Note_on_c, 5, 64, 0
7, 63840, Note_on_c, 5, 64, 90
7, 63960, Note_on_c, 5, 64, 0
7, 63960, Note_on_c, 5, 64, 90
7, 64080, Note_on_c, 5, 64, 0
7, 64080, Note_on_c, 5, 64, 90
7, 64200, Note_on_c, 5, 64, 0
7, 64200, Note_on_c, 5, 64, 90
7, 64320, Note_on_c, 5, 64, 0
7, 64320, Note_on_c, 5, 64, 90
7, 64440, Note_on_c, 5, 64, 0
7, 64440, Note_on_c, 5, 64, 90
7, 64560, Note_on_c, 5, 64, 0
7, 64560, Note_on_c, 5, 64, 90
7, 64680, Note_on_c, 5, 64, 0
7, 64680, Note_on_c, 5, 64, 90
7, 64800, Note_on_c, 5, 64, 0
7, 64800, Note_on_c, 5, 64, 90
7, 64920, Note_on_c, 5, 64, 0
7, 64920, Note_on_c, 5, 64, 90
7, 65040, Note_on_c, 5, 64, 0
7, 65040, Note_on_c, 5, 64, 90
7, 65160, Note_on_c, 5, 64, 0
7, 65160, Note_on_c, 5, 64, 90
7, 65280, Note_on_c, 5, 64, 0
7, 65280, Note_on_c, 5, 64, 90
7, 65400, Note_on_c, 5, 64, 0
7, 65400, Note_on_c, 5, 64, 90
7, 65520, Note_on_c, 5, 64, 0
7, 65520, Note_on_c, 5, 64, 90
7, 65640, Note_on_c, 5, 64, 0
7, 65640, Note_on_c, 5, 64, 90
7, 65760, Note_on_c, 5, 64, 0
7, 65760, Note_on_c, 5, 64, 90
7, 65880, Note_on_c, 5, 64, 0
7, 65880, Note_on_c, 5, 64, 90
7, 66000, Note_on_c, 5, 64, 0
7, 66000, Note_on_c, 5, 64, 90
7, 66120, Note_on_c, 5, 64, 0
7, 66120, Note_on_c, 5, 64, 90
7, 66240, Note_on_c, 5, 64, 0
7, 66240, Note_on_c, 5, 64, 90
7, 66360, Note_on_c, 5, 64, 0
7, 66360, Note_on_c, 5, 64, 90
7, 66480, Note_on_c, 5, 64, 0
7, 66480, Note_on_c, 5, 64, 90
7, 66600, Note_on_c, 5, 64, 0
7, 66600, Note_on_c, 5, 64, 90
7, 66720, Note_on_c, 5, 64, 0
7, 66720, Note_on_c, 5, 64, 90
7, 66840, Note_on_c, 5, 64, 0
7, 66840, Note_on_c, 5, 64, 90
7, 66960, Note_on_c, 5, 64, 0
7, 66960, Note_on_c, 5, 64, 90
7, 67080, Note_on_c, 5, 64, 0
7, 67080, Note_on_c, 5, 64, 90
7, 67200, Note_on_c, 5, 64, 0
7, 67200, Note_on_c, 5, 69, 90
7, 67440, Note_on_c, 5, 69, 0
7, 67440, Note_on_c, 5, 69, 90
7, 67920, Note_on_c, 5, 69, 0
7, 67920, Note_on_c, 5, 69, 90
7, 68400, Note_on_c, 5, 69, 0
7, 68400, Note_on_c, 5, 69, 90
7, 68880, Note_on_c, 5, 69, 0
7, 68880, Note_on_c, 5, 69, 90
7, 69120, Note_on_c, 5, 69, 0
7, 69120, Note_on_c, 5, 67, 90
7, 69240, Note_on_c, 5, 67, 0
7, 69240, Note_on_c, 5, 67, 90
7, 69360, Note_on_c, 5, 67, 0
7, 69360, Note_on_c, 5, 67, 90
7, 69480, Note_on_c, 5, 67, 0
7, 69480, Note_on_c, 5, 67, 90
7, 69600, Note_on_c, 5, 67, 0
7, 69600, Note_on_c, 5, 67, 90
7, 69720, Note_on_c, 5, 67, 0
7, 69720, Note_on_c, 5, 67, 90
7, 69840, Note_on_c, 5, 67, 0
7, 69840, Note_on_c, 5, 67, 90
7, 69960, Note_on_c, 5, 67, 0
7, 69960, Note_on_c, 5, 67, 90
7, 70080, Note_on_c, 5, 67, 0
7, 70080, Note_on_c, 5, 63, 90
7, 70200, Note_on_c, 5, 63, 0
7, 70200, Note_on_c, 5, 63, 90
7, 70320, Note_on_c, 5, 63, 0
7, 70320, Note_on_c, 5, 63, 90
7, 70440, Note_on_c, 5, 63, 0
7, 70440, Note_on_c, 5, 63, 90
7, 70560, Note_on_c, 5, 63, 0
7, 70560, Note_on_c, 5, 63, 90
7, 70680, Note_on_c, 5, 63, 0
7, 70680, Note_on_c, 5, 63, 90
7, 70800, Note_on_c, 5, 63, 0
7, 70800, Note_on_c, 5, 63, 90
7, 70920, Note_on_c, 5, 63, 0
7, 70920, Note_on_c, 5, 63, 90
7, 71040, Note_on_c, 5, 63, 0
7, 71040, Note_on_c, 5, 62, 90
7, 71160, Note_on_c, 5, 62, 0
7, 71160, Note_on_c, 5, 62, 90
7, 71280, Note_on_c, 5, 62, 0
7, 71280, Note_on_c, 5, 62, 90
7, 71400, Note_on_c, 5, 62, 0
7, 71400, Note_on_c, 5, 62, 90
7, 71520, Note_on_c, 5, 62, 0
7, 71520, Note_on_c, 5, 62, 90
7, 71640, Note_on_c, 5, 62, 0
7, 71640, Note_on_c, 5, 62, 90
7, 71760, Note_on_c, 5, 62, 0
7, 71760, Note_on_c, 5, 62, 90
7, 71880, Note_on_c, 5, 62, 0
7, 71880, Note_on_c, 5, 62, 90
7, 72000, Note_on_c, 5, 62, 0
7, 72000, Note_on_c, 5, 60, 90
7, 72120, Note_on_c, 5, 60, 0
7, 72120, Note_on_c, 5, 60, 90
7, 72240, Note_on_c, 5, 60, 0
7, 72240, Note_on_c, 5, 60, 90
7, 72360, Note_on_c, 5, 60, 0
7, 72360, Note_on_c, 5, 60, 90
7, 72480, Note_on_c, 5, 60, 0
7, 72480, Note_on_c, 5, 60, 90
7, 72600, Note_on_c, 5, 60, 0
7, 72600, Note_on_c, 5, 60, 90
7, 72720, Note_on_c, 5, 60, 0
7, 72720, Note_on_c, 5, 60, 90
7, 72840, Note_on_c, 5, 60, 0
7, 72840, Note_on_c, 5, 60, 90
7, 72960, Note_on_c, 5, 60, 0
7, 72960, Note_on_c, 5, 67, 90
7, 73080, Note_on_c, 5, 67, 0
7, 73080, Note_on_c, 5, 67, 90
7, 73200, Note_on_c, 5, 67, 0
7, 73200, Note_on_c, 5, 67, 90
7, 73320, Note_on_c, 5, 67, 0
7, 73320, Note_on_c, 5, 67, 90
7, 73440, Note_on_c, 5, 67, 0
7, 73440, Note_on_c, 5, 67, 90
7, 73560, Note_on_c, 5, 67, 0
7, 73560, Note_on_c, 5, 67, 90
7, 73680, Note_on_c, 5, 67, 0
7, 73680, Note_on_c, 5, 67, 90
7, 73800, Note_on_c, 5, 67, 0
7, 73800, Note_on_c, 5, 67, 90
7, 73920, Note_on_c, 5, 67, 0
7, 73920, Note_on_c, 5, 65, 90
7, 74040, Note_on_c, 5, 65, 0
7, 74040, Note_on_c, 5, 65, 90
7, 74160, Note_on_c, 5, 65, 0
7, 74160, Note_on_c, 5, 65, 90
7, 74280, Note_on_c, 5, 65, 0
7, 74280, Note_on_c, 5, 65, 90
7, 74400, Note_on_c, 5, 65, 0
7, 74400, Note_on_c, 5, 65, 90
7, 74520, Note_on_c, 5, 65, 0
7, 74520, Note_on_c, 5, 65, 90
7, 74640, Note_on_c, 5, 65, 0
7, 74640, Note_on_c, 5, 65, 90
7, 74760, Note_on_c, 5, 65, 0
7, 74760, Note_on_c, 5, 65, 90
7, 74880, Note_on_c, 5, 65, 0
7, 74880, Note_on_c, 5, 65, 90
7, 75000, Note_on_c, 5, 65, 0
7, 75000, Note_on_c, 5, 65, 90
7, 75120, Note_on_c, 5, 65, 0
7, 75120, Note_on_c, 5, 65, 90
7, 75240, Note_on_c, 5, 65, 0
7, 75240, Note_on_c, 5, 65, 90
7, 75360, Note_on_c, 5, 65, 0
7, 75360, Note_on_c, 5, 64, 90
7, 75480, Note_on_c, 5, 64, 0
7, 75480, Note_on_c, 5, 64, 90
7, 75600, Note_on_c, 5, 64, 0
7, 75600, Note_on_c, 5, 64, 90
7, 75720, Note_on_c, 5, 64, 0
7, 75720, Note_on_c, 5, 64, 90
7, 75840, Note_on_c, 5, 64, 0
7, 75840, Note_on_c, 5, 57, 90
7, 76560, Note_on_c, 5, 57, 0
7, 76560, Note_on_c, 5, 57, 90
7, 76800, Note_on_c, 5, 57, 0
7, 76800, Note_on_c, 5, 56, 90
7, 76920, Note_on_c, 5, 56, 0
7, 76920, Note_on_c, 5, 56, 90
7, 77040, Note_on_c, 5, 56, 0
7, 77040, Note_on_c, 5, 57, 90
7, 77160, Note_on_c, 5, 57, 0
7, 77160, Note_on_c, 5, 57, 90
7, 77280, Note_on_c, 5, 57, 0
7, 77280, Note_on_c, 5, 56, 90
7, 77400, Note_on_c, 5, 56, 0
7, 77400, Note_on_c, 5, 56, 90
7, 77520, Note_on_c, 5, 56, 0
7, 77520, Note_on_c, 5, 57, 90
7, 77640, Note_on_c, 5, 57, 0
7, 77640, Note_on_c, 5, 57, 90
7, 77760, Note_on_c, 5, 57, 0
7, 77760, Note_on_c, 5, 56, 90
7, 77880, Note_on_c, 5, 56, 0
7, 77880, Note_on_c, 5, 56, 90
7, 78000, Note_on_c, 5, 56, 0
7, 78000, Note_on_c, 5, 57, 90
7, 78120, Note_on_c, 5, 57, 0
7, 78120, Note_on_c, 5, 57, 90
7, 78240, Note_on_c, 5, 57, 0
7, 78240, Note_on_c, 5, 56, 90
7, 78360, Note_on_c, 5, 56, 0
7, 78360, Note_on_c, 5, 56, 90
7, 78480, Note_on_c, 5, 56, 0
7, 78480, Note_on_c, 5, 57, 90
7, 78600, Note_on_c, 5, 57, 0
7, 78600, Note_on_c, 5, 57, 90
7, 78720, Note_on_c, 5, 57, 0
7, 78720, Note_on_c, 5, 58, 90
7, 79200, Note_on_c, 5, 58, 0
7, 79200, Note_on_c, 5, 57, 90
7, 79680, Note_on_c, 5, 57, 0
7, 79680, Note_on_c, 5, 69, 90
7, 80400, Note_on_c, 5, 69, 0
7, 80400, Note_on_c, 5, 69, 90
7, 80640, Note_on_c, 5, 69, 0
7, 80640, Note_on_c, 5, 68, 90
7, 81120, Note_on_c, 5, 68, 0
7, 81120, Note_on_c, 5, 69, 90
7, 81600, Note_on_c, 5, 69, 0
7, 81600, Note_on_c, 5, 69, 90
7, 82320, Note_on_c, 5, 69, 0
7, 82320, Note_on_c, 5, 69, 90
7, 82560, Note_on_c, 5, 69, 0
7, 82560, Note_on_c, 5, 68, 90
7, 83040, Note_on_c, 5, 68, 0
7, 83040, Note_on_c, 5, 69, 90
7, 83520, Note_on_c, 5, 69, 0
7, 83520, Note_on_c, 5, 57, 90
7, 84240, Note_on_c, 5, 57, 0
7, 84240, Note_on_c, 5, 57, 90
7, 84480, Note_on_c, 5, 57, 0
7, 84480, Note_on_c, 5, 56, 90
7, 84600, Note_on_c, 5, 56, 0
7, 84600, Note_on_c, 5, 56, 90
7, 84720, Note_on_c, 5, 56, 0
7, 84720, Note_on_c, 5, 57, 90
7, 84840, Note_on_c, 5, 57, 0
7, 84840, Note_on_c, 5, 57, 90
7, 84960, Note_on_c, 5, 57, 0
7, 84960, Note_on_c, 5, 56, 90
7, 85080, Note_on_c, 5, 56, 0
7, 85080, Note_on_c, 5, 56, 90
7, 85200, Note_on_c, 5, 56, 0
7, 85200, Note_on_c, 5, 57, 90
7, 85320, Note_on_c, 5, 57, 0
7, 85320, Note_on_c, 5, 57, 90
7, 85440, Note_on_c, 5, 57, 0
7, 85440, Note_on_c, 5, 56, 90
7, 85560, Note_on_c, 5, 56, 0
7, 85560, Note_on_c, 5, 56, 90
7, 85680, Note_on_c, 5, 56, 0
7, 85680, Note_on_c, 5, 57, 90
7, 85800, Note_on_c, 5, 57, 0
7, 85800, Note_on_c, 5, 57, 90
7, 85920, Note_on_c, 5, 57, 0
7, 85920, Note_on_c, 5, 56, 90
7, 86040, Note_on_c, 5, 56, 0
7, 86040, Note_on_c, 5, 56, 90
7, 86160, Note_on_c, 5, 56, 0
7, 86160, Note_on_c, 5, 57, 90
7, 86280, Note_on_c, 5, 57, 0
7, 86280, Note_on_c, 5, 57, 90
7, 86400, Note_on_c, 5, 57, 0
7, 86400, Note_on_c, 5, 58, 90
7, 86880, Note_on_c, 5, 58, 0
7, 86880, Note_on_c, 5, 57, 90
7, 87360, Note_on_c, 5, 57, 0
7, 87360, Note_on_c, 5, 64, 90
7, 88080, Note_on_c, 5, 64, 0
7, 88080, Note_on_c, 5, 64, 90
7, 88320, Note_on_c, 5, 64, 0
7, 88320, Note_on_c, 5, 65, 90
7, 88800, Note_on_c, 5, 65, 0
7, 88800, Note_on_c, 5, 64, 90
7, 89280, Note_on_c, 5, 64, 0
7, 89280, Note_on_c, 5, 64, 90
7, 90000, Note_on_c, 5, 64, 0
7, 90000, Note_on_c, 5, 64, 90
7, 90240, Note_on_c, 5, 64, 0
7, 90240, Note_on_c, 5, 65, 90
7, 90720, Note_on_c, 5, 65, 0
7, 90720, Note_on_c, 5, 64, 90
7, 91200, Note_on_c, 5, 64, 0
7, 91200, Note_on_c, 5, 57, 90
7, 91920, Note_on_c, 5, 57, 0
7, 91920, Note_on_c, 5, 57, 90
7, 92160, Note_on_c, 5, 57, 0
7, 92160, Note_on_c, 5, 56, 90
7, 92280, Note_on_c, 5, 56, 0
7, 92280, Note_on_c, 5, 56, 90
7, 92400, Note_on_c, 5, 56, 0
7, 92400, Note_on_c, 5, 57, 90
7, 92520, Note_on_c, 5, 57, 0
7, 92520, Note_on_c, 5, 57, 90
7, 92640, Note_on_c, 5, 57, 0
7, 92640, Note_on_c, 5, 56, 90
7, 92760, Note_on_c, 5, 56, 0
7, 92760, Note_on_c, 5, 56, 90
7, 92880, Note_on_c, 5, 56, 0
7, 92880, Note_on_c, 5, 57, 90
7, 93000, Note_on_c, 5, 57, 0
7, 93000, Note_on_c, 5, 57, 90
7, 93120, Note_on_c, 5, 57, 0
7, 93120, Note_on_c, 5, 56, 90
7, 93240, Note_on_c, 5, 56, 0
7, 93240, Note_on_c, 5, 56, 90
7, 93360, Note_on_c, 5, 56, 0
7, 93360, Note_on_c, 5, 57, 90
7, 93480, Note_on_c, 5, 57, 0
7, 93480, Note_on_c, 5, 57, 90
7, 93600, Note_on_c, 5, 57, 0
7, 93600, Note_on_c, 5, 56, 90
7, 93720, Note_on_c, 5, 56, 0
7, 93720, Note_on_c, 5, 56, 90
7, 93840, Note_on_c, 5, 56, 0
7, 93840, Note_on_c, 5, 57, 90
7, 93960, Note_on_c, 5, 57, 0
7, 93960, Note_on_c, 5, 57, 90
7, 94080, Note_on_c, 5, 57, 0
7, 94080, Note_on_c, 5, 58, 90
7, 94320, Note_on_c, 5, 58, 0
7, 94320, Note_on_c, 5, 67, 90
7, 94440, Note_on_c, 5, 67, 0
7, 94440, Note_on_c, 5, 67, 90
7, 94560, Note_on_c, 5, 67, 0
7, 94560, Note_on_c, 5, 70, 90
7, 94680, Note_on_c, 5, 70, 0
7, 94680, Note_on_c, 5, 70, 90
7, 94800, Note_on_c, 5, 70, 0
7, 94800, Note_on_c, 5, 74, 90
7, 94920, Note_on_c, 5, 74, 0
7, 94920, Note_on_c, 5, 74, 90
7, 95040, Note_on_c, 5, 74, 0
7, 95040, Note_on_c, 5, 79, 90
7, 95280, Note_on_c, 5, 79, 0
7, 95280, Note_on_c, 5, 67, 90
7, 95760, Note_on_c, 5, 67, 0
7, 95760, Note_on_c, 5, 67, 90
7, 96000, Note_on_c, 5, 67, 0
7, 96000, Note_on_c, 5, 69, 90
7, 96120, Note_on_c, 5, 69, 0
7, 96120, Note_on_c, 5, 69, 90
7, 96240, Note_on_c, 5, 69, 0
7, 96240, Note_on_c, 5, 70, 90
7, 96360, Note_on_c, 5, 70, 0
7, 96360, Note_on_c, 5, 70, 90
7, 96480, Note_on_c, 5, 70, 0
7, 96480, Note_on_c, 5, 69, 90
7, 96600, Note_on_c, 5, 69, 0
7, 96600, Note_on_c, 5, 69, 90
7, 96720, Note_on_c, 5, 69, 0
7, 96720, Note_on_c, 5, 70, 90
7, 96840, Note_on_c, 5, 70, 0
7, 96840, Note_on_c, 5, 70, 90
7, 96960, Note_on_c, 5, 70, 0
7, 96960, Note_on_c, 5, 69, 90
7, 97080, Note_on_c, 5, 69, 0
7, 97080, Note_on_c, 5, 69, 90
7, 97200, Note_on_c, 5, 69, 0
7, 97200, Note_on_c, 5, 70, 90
7, 97320, Note_on_c, 5, 70, 0
7, 97320, Note_on_c, 5, 70, 90
7, 97440, Note_on_c, 5, 70, 0
7, 97440, Note_on_c, 5, 69, 90
7, 97560, Note_on_c, 5, 69, 0
7, 97560, Note_on_c, 5, 69, 90
7, 97680, Note_on_c, 5, 69, 0
7, 97680, Note_on_c, 5, 70, 90
7, 97800, Note_on_c, 5, 70, 0
7, 97800, Note_on_c, 5, 70, 90
7, 97920, Note_on_c, 5, 70, 0
7, 97920, Note_on_c, 5, 64, 90
7, 98040, Note_on_c, 5, 64, 0
7, 98040, Note_on_c, 5, 67, 90
7, 98160, Note_on_c, 5, 67, 0
7, 98160, Note_on_c, 5, 64, 90
7, 98280, Note_on_c, 5, 64, 0
7, 98280, Note_on_c, 5, 67, 90
7, 98400, Note_on_c, 5, 67, 0
7, 98400, Note_on_c, 5, 64, 90
7, 98520, Note_on_c, 5, 64, 0
7, 98520, Note_on_c, 5, 69, 90
7, 98640, Note_on_c, 5, 69, 0
7, 98640, Note_on_c, 5, 73, 90
7, 98760, Note_on_c, 5, 73, 0
7, 98760, Note_on_c, 5, 76, 90
7, 98880, Note_on_c, 5, 76, 0
7, 98880, Note_on_c, 5, 81, 90
7, 99120, Note_on_c, 5, 81, 0
7, 99120, Note_on_c, 5, 73, 90
7, 99600, Note_on_c, 5, 73, 0
7, 99600, Note_on_c, 5, 73, 90
7, 99840, Note_on_c, 5, 73, 0
7, 99840, Note_on_c, 5, 74, 90
7, 99960, Note_on_c, 5, 74, 0
7, 99960, Note_on_c, 5, 74, 90
7, 100080, Note_on_c, 5, 74, 0
7, 100080, Note_on_c, 5, 74, 90
7, 100200, Note_on_c, 5, 74, 0
7, 100200, Note_on_c, 5, 74, 90
7, 100320, Note_on_c, 5, 74, 0
7, 100320, Note_on_c, 5, 73, 90
7, 100440, Note_on_c, 5, 73, 0
7, 100440, Note_on_c, 5, 73, 90
7, 100560, Note_on_c, 5, 73, 0
7, 100560, Note_on_c, 5, 73, 90
7, 100680, Note_on_c, 5, 73, 0
7, 100680, Note_on_c, 5, 73, 90
7, 100800, Note_on_c, 5, 73, 0
7, 100800, Note_on_c, 5, 74, 90
7, 100920, Note_on_c, 5, 74, 0
7, 100920, Note_on_c, 5, 74, 90
7, 101040, Note_on_c, 5, 74, 0
7, 101040, Note_on_c, 5, 74, 90
7, 101160, Note_on_c, 5, 74, 0
7, 101160, Note_on_c, 5, 74, 90
7, 101280, Note_on_c, 5, 74, 0
7, 101280, Note_on_c, 5, 73, 90
7, 101400, Note_on_c, 5, 73, 0
7, 101400, Note_on_c, 5, 73, 90
7, 101520, Note_on_c, 5, 73, 0
7, 101520, Note_on_c, 5, 73, 90
7, 101640, Note_on_c, 5, 73, 0
7, 101640, Note_on_c, 5, 73, 90
7, 101760, Note_on_c, 5, 73, 0
7, 101760, Note_on_c, 5, 74, 90
7, 101880, Note_on_c, 5, 74, 0
7, 101880, Note_on_c, 5, 74, 90
7, 102000, Note_on_c, 5, 74, 0
7, 102000, Note_on_c, 5, 74, 90
7, 102120, Note_on_c, 5, 74, 0
7, 102120, Note_on_c, 5, 74, 90
7, 102240, Note_on_c, 5, 74, 0
7, 102240, Note_on_c, 5, 73, 90
7, 102360, Note_on_c, 5, 73, 0
7, 102360, Note_on_c, 5, 69, 90
7, 102480, Note_on_c, 5, 69, 0
7, 102480, Note_on_c, 5, 73, 90
7, 102600, Note_on_c, 5, 73, 0
7, 102600, Note_on_c, 5, 76, 90
7, 102720, Note_on_c, 5, 76, 0
7, 102720, Note_on_c, 5, 81, 90
7, 102960, Note_on_c, 5, 81, 0
7, 102960, Note_on_c, 5, 77, 90
7, 103440, Note_on_c, 5, 77, 0
7, 103440, Note_on_c, 5, 77, 90
7, 103680, Note_on_c, 5, 77, 0
7, 103680, Note_on_c, 5, 79, 90
7, 103800, Note_on_c, 5, 79, 0
7, 103800, Note_on_c, 5, 79, 90
7, 103920, Note_on_c, 5, 79, 0
7, 103920, Note_on_c, 5, 79, 90
7, 104040, Note_on_c, 5, 79, 0
7, 104040, Note_on_c, 5, 79, 90
7, 104160, Note_on_c, 5, 79, 0
7, 104160, Note_on_c, 5, 77, 90
7, 104280, Note_on_c, 5, 77, 0
7, 104280, Note_on_c, 5, 77, 90
7, 104400, Note_on_c, 5, 77, 0
7, 104400, Note_on_c, 5, 77, 90
7, 104520, Note_on_c, 5, 77, 0
7, 104520, Note_on_c, 5, 77, 90
7, 104640, Note_on_c, 5, 77, 0
7, 104640, Note_on_c, 5, 79, 90
7, 104760, Note_on_c, 5, 79, 0
7, 104760, Note_on_c, 5, 79, 90
7, 104880, Note_on_c, 5, 79, 0
7, 104880, Note_on_c, 5, 79, 90
7, 105000, Note_on_c, 5, 79, 0
7, 105000, Note_on_c, 5, 79, 90
7, 105120, Note_on_c, 5, 79, 0
7, 105120, Note_on_c, 5, 77, 90
7, 105240, Note_on_c, 5, 77, 0
7, 105240, Note_on_c, 5, 77, 90
7, 105360, Note_on_c, 5, 77, 0
7, 105360, Note_on_c, 5, 77, 90
7, 105480, Note_on_c, 5, 77, 0
7, 105480, Note_on_c, 5, 77, 90
7, 105600, Note_on_c, 5, 77, 0
7, 105600, Note_on_c, 5, 79, 90
7, 105720, Note_on_c, 5, 79, 0
7, 105720, Note_on_c, 5, 79, 90
7, 105840, Note_on_c, 5, 79, 0
7, 105840, Note_on_c, 5, 79, 90
7, 105960, Note_on_c, 5, 79, 0
7, 105960, Note_on_c, 5, 79, 90
7, 106080, Note_on_c, 5, 79, 0
7, 106080, Note_on_c, 5, 77, 90
7, 106320, Note_on_c, 5, 77, 0
7, 106320, Note_on_c, 5, 81, 90
7, 106440, Note_on_c, 5, 81, 0
7, 106440, Note_on_c, 5, 81, 90
7, 106560, Note_on_c, 5, 81, 0
7, 106560, Note_on_c, 5, 77, 90
7, 106680, Note_on_c, 5, 77, 0
7, 106680, Note_on_c, 5, 77, 90
7, 106800, Note_on_c, 5, 77, 0
7, 106800, Note_on_c, 5, 74, 90
7, 106920, Note_on_c, 5, 74, 0
7, 106920, Note_on_c, 5, 74, 90
7, 107040, Note_on_c, 5, 74, 0
7, 107040, Note_on_c, 5, 77, 90
7, 107160, Note_on_c, 5, 77, 0
7, 107160, Note_on_c, 5, 77, 90
7, 107280, Note_on_c, 5, 77, 0
7, 107280, Note_on_c, 5, 81, 90
7, 107400, Note_on_c, 5, 81, 0
7, 107400, Note_on_c, 5, 81, 90
7, 107520, Note_on_c, 5, 81, 0
7, 107520, Note_on_c, 5, 86, 90
7, 107640, Note_on_c, 5, 86, 0
7, 107640, Note_on_c, 5, 86, 90
7, 107760, Note_on_c, 5, 86, 0
7, 107760, Note_on_c, 5, 81, 90
7, 107880, Note_on_c, 5, 81, 0
7, 107880, Note_on_c, 5, 81, 90
7, 108000, Note_on_c, 5, 81, 0
7, 108000, Note_on_c, 5, 77, 90
7, 108120, Note_on_c, 5, 77, 0
7, 108120, Note_on_c, 5, 77, 90
7, 108240, Note_on_c, 5, 77, 0
7, 108240, Note_on_c, 5, 74, 90
7, 108360, Note_on_c, 5, 74, 0
7, 108360, Note_on_c, 5, 74, 90
7, 108480, Note_on_c, 5, 74, 0
7, 108480, Note_on_c, 5, 86, 90
7, 108600, Note_on_c, 5, 86, 0
7, 108600, Note_on_c, 5, 86, 90
7, 108720, Note_on_c, 5, 86, 0
7, 108720, Note_on_c, 5, 81, 90
7, 108840, Note_on_c, 5, 81, 0
7, 108840, Note_on_c, 5, 81, 90
7, 108960, Note_on_c, 5, 81, 0
7, 108960, Note_on_c, 5, 77, 90
7, 109080, Note_on_c, 5, 77, 0
7, 109080, Note_on_c, 5, 77, 90
7, 109200, Note_on_c, 5, 77, 0
7, 109200, Note_on_c, 5, 74, 90
7, 109320, Note_on_c, 5, 74, 0
7, 109320, Note_on_c, 5, 74, 90
7, 109440, Note_on_c, 5, 74, 0
7, 109440, Note_on_c, 5, 86, 90
7, 109560, Note_on_c, 5, 86, 0
7, 109560, Note_on_c, 5, 86, 90
7, 109680, Note_on_c, 5, 86, 0
7, 109680, Note_on_c, 5, 81, 90
7, 109800, Note_on_c, 5, 81, 0
7, 109800, Note_on_c, 5, 81, 90
7, 109920, Note_on_c, 5, 81, 0
7, 109920, Note_on_c, 5, 77, 90
7, 110040, Note_on_c, 5, 77, 0
7, 110040, Note_on_c, 5, 77, 90
7, 110160, Note_on_c, 5, 77, 0
7, 110160, Note_on_c, 5, 74, 90
7, 110280, Note_on_c, 5, 74, 0
7, 110280, Note_on_c, 5, 74, 90
7, 110400, Note_on_c, 5, 74, 0
7, 110400, Note_on_c, 5, 86, 90
7, 110520, Note_on_c, 5, 86, 0
7, 110520, Note_on_c, 5, 86, 90
7, 110640, Note_on_c, 5, 86, 0
7, 110640, Note_on_c, 5, 81, 90
7, 110760, Note_on_c, 5, 81, 0
7, 110760, Note_on_c, 5, 81, 90
7, 110880, Note_on_c, 5, 81, 0
7, 110880, Note_on_c, 5, 77, 90
7, 111000, Note_on_c, 5, 77, 0
7, 111000, Note_on_c, 5, 77, 90
7, 111120, Note_on_c, 5, 77, 0
7, 111120, Note_on_c, 5, 74, 90
7, 111240, Note_on_c, 5, 74, 0
7, 111240, Note_on_c, 5, 74, 90
7, 111360, Note_on_c, 5, 74, 0
7, 111360, Note_on_c, 5, 86, 90
7, 111480, Note_on_c, 5, 86, 0
7, 111480, Note_on_c, 5, 86, 90
7, 111600, Note_on_c, 5, 86, 0
7, 111600, Note_on_c, 5, 81, 90
7, 111720, Note_on_c, 5, 81, 0
7, 111720, Note_on_c, 5, 81, 90
7, 111840, Note_on_c, 5, 81, 0
7, 111840, Note_on_c, 5, 77, 90
7, 111960, Note_on_c, 5, 77, 0
7, 111960, Note_on_c, 5, 77, 90
7, 112080, Note_on_c, 5, 77, 0
7, 112080, Note_on_c, 5, 74, 90
7, 112200, Note_on_c, 5, 74, 0
7, 112200, Note_on_c, 5, 74, 90
7, 112320, Note_on_c, 5, 74, 0
7, 112320, Note_on_c, 5, 86, 90
7, 112440, Note_on_c, 5, 86, 0
7, 112440, Note_on_c, 5, 86, 90
7, 112560, Note_on_c, 5, 86, 0
7, 112560, Note_on_c, 5, 81, 90
7, 112680, Note_on_c, 5, 81, 0
7, 112680, Note_on_c, 5, 81, 90
7, 112800, Note_on_c, 5, 81, 0
7, 112800, Note_on_c, 5, 77, 90
7, 112920, Note_on_c, 5, 77, 0
7, 112920, Note_on_c, 5, 77, 90
7, 113040, Note_on_c, 5, 77, 0
7, 113040, Note_on_c, 5, 74, 90
7, 113160, Note_on_c, 5, 74, 0
7, 113160, Note_on_c, 5, 74, 90
7, 113280, Note_on_c, 5, 74, 0
7, 113280, Note_on_c, 5, 85, 90
7, 113400, Note_on_c, 5, 85, 0
7, 113400, Note_on_c, 5, 85, 90
7, 113520, Note_on_c, 5, 85, 0
7, 113520, Note_on_c, 5, 79, 90
7, 113640, Note_on_c, 5, 79, 0
7, 113640, Note_on_c, 5, 79, 90
7, 113760, Note_on_c, 5, 79, 0
7, 113760, Note_on_c, 5, 77, 90
7, 113880, Note_on_c, 5, 77, 0
7, 113880, Note_on_c, 5, 77, 90
7, 114000, Note_on_c, 5, 77, 0
7, 114000, Note_on_c, 5, 86, 90
7, 114120, Note_on_c, 5, 86, 0
7, 114120, Note_on_c, 5, 86, 90
7, 114240, Note_on_c, 5, 86, 0
7, 114240, Note_on_c, 5, 76, 90
7, 114360, Note_on_c, 5, 76, 0
7, 114360, Note_on_c, 5, 76, 90
7, 114480, Note_on_c, 5, 76, 0
7, 114480, Note_on_c, 5, 86, 90
7, 114600, Note_on_c, 5, 86, 0
7, 114600, Note_on_c, 5, 86, 90
7, 114720, Note_on_c, 5, 86, 0
7, 114720, Note_on_c, 5, 76, 90
7, 114840, Note_on_c, 5, 76, 0
7, 114840, Note_on_c, 5, 76, 90
7, 114960, Note_on_c, 5, 76, 0
7, 114960, Note_on_c, 5, 85, 90
7, 115080, Note_on_c, 5, 85, 0
7, 115080, Note_on_c, 5, 85, 90
7, 115200, Note_on_c, 5, 85, 0
7, 115200, Note_on_c, 5, 86, 90
7, 115320, Note_on_c, 5, 86, 0
7, 115320, Note_on_c, 5, 86, 90
7, 115440, Note_on_c, 5, 86, 0
7, 115440, Note_on_c, 5, 81, 90
7, 115560, Note_on_c, 5, 81, 0
7, 115560, Note_on_c, 5, 81, 90
7, 115680, Note_on_c, 5, 81, 0
7, 115680, Note_on_c, 5, 77, 90
7, 115800, Note_on_c, 5, 77, 0
7, 115800, Note_on_c, 5, 77, 90
7, 115920, Note_on_c, 5, 77, 0
7, 115920, Note_on_c, 5, 74, 90
7, 116040, Note_on_c, 5, 74, 0
7, 116040, Note_on_c, 5, 74, 90
7, 116160, Note_on_c, 5, 74, 0
7, 116160, Note_on_c, 5, 86, 90
7, 116280, Note_on_c, 5, 86, 0
7, 116280, Note_on_c, 5, 86, 90
7, 116400, Note_on_c, 5, 86, 0
7, 116400, Note_on_c, 5, 81, 90
7, 116520, Note_on_c, 5, 81, 0
7, 116520, Note_on_c, 5, 81, 90
7, 116640, Note_on_c, 5, 81, 0
7, 116640, Note_on_c, 5, 77, 90
7, 116760, Note_on_c, 5, 77, 0
7, 116760, Note_on_c, 5, 77, 90
7, 116880, Note_on_c, 5, 77, 0
7, 116880, Note_on_c, 5, 74, 90
7, 117000, Note_on_c, 5, 74, 0
7, 117000, Note_on_c, 5, 74, 90
7, 117120, Note_on_c, 5, 74, 0
7, 117120, Note_on_c, 5, 86, 90
7, 117240, Note_on_c, 5, 86, 0
7, 117240, Note_on_c, 5, 86, 90
7, 117360, Note_on_c, 5, 86, 0
7, 117360, Note_on_c, 5, 82, 90
7, 117480, Note_on_c, 5, 82, 0
7, 117480, Note_on_c, 5, 82, 90
7, 117600, Note_on_c, 5, 82, 0
7, 117600, Note_on_c, 5, 77, 90
7, 117720, Note_on_c, 5, 77, 0
7, 117720, Note_on_c, 5, 77, 90
7, 117840, Note_on_c, 5, 77, 0
7, 117840, Note_on_c, 5, 74, 90
7, 117960, Note_on_c, 5, 74, 0
7, 117960, Note_on_c, 5, 74, 90
7, 118080, Note_on_c, 5, 74, 0
7, 118080, Note_on_c, 5, 86, 90
7, 118200, Note_on_c, 5, 86, 0
7, 118200, Note_on_c, 5, 86, 90
7, 118320, Note_on_c, 5, 86, 0
7, 118320, Note_on_c, 5, 82, 90
7, 118440, Note_on_c, 5, 82, 0
7, 118440, Note_on_c, 5, 82, 90
7, 118560, Note_on_c, 5, 82, 0
7, 118560, Note_on_c, 5, 77, 90
7, 118680, Note_on_c, 5, 77, 0
7, 118680, Note_on_c, 5, 77, 90
7, 118800, Note_on_c, 5, 77, 0
7, 118800, Note_on_c, 5, 74, 90
7, 118920, Note_on_c, 5, 74, 0
7, 118920, Note_on_c, 5, 74, 90
7, 119040, Note_on_c, 5, 74, 0
7, 119040, Note_on_c, 5, 87, 90
7, 119160, Note_on_c, 5, 87, 0
7, 119160, Note_on_c, 5, 87, 90
7, 119280, Note_on_c, 5, 87, 0
7, 119280, Note_on_c, 5, 82, 90
7, 119400, Note_on_c, 5, 82, 0
7, 119400, Note_on_c, 5, 82, 90
7, 119520, Note_on_c, 5, 82, 0
7, 119520, Note_on_c, 5, 79, 90
7, 119640, Note_on_c, 5, 79, 0
7, 119640, Note_on_c, 5, 79, 90
7, 119760, Note_on_c, 5, 79, 0
7, 119760, Note_on_c, 5, 75, 90
7, 119880, Note_on_c, 5, 75, 0
7, 119880, Note_on_c, 5, 75, 90
7, 120000, Note_on_c, 5, 75, 0
7, 120000, Note_on_c, 5, 82, 90
7, 120120, Note_on_c, 5, 82, 0
7, 120120, Note_on_c, 5, 82, 90
7, 120240, Note_on_c, 5, 82, 0
7, 120240, Note_on_c, 5, 79, 90
7, 120360, Note_on_c, 5, 79, 0
7, 120360, Note_on_c, 5, 79, 90
7, 120480, Note_on_c, 5, 79, 0
7, 120480, Note_on_c, 5, 75, 90
7, 120600, Note_on_c, 5, 75, 0
7, 120600, Note_on_c, 5, 75, 90
7, 120720, Note_on_c, 5, 75, 0
7, 120720, Note_on_c, 5, 74, 90
7, 120840, Note_on_c, 5, 74, 0
7, 120840, Note_on_c, 5, 74, 90
7, 120960, Note_on_c, 5, 74, 0
7, 120960, Note_on_c, 5, 73, 90
7, 121080, Note_on_c, 5, 73, 0
7, 121080, Note_on_c, 5, 73, 90
7, 121200, Note_on_c, 5, 73, 0
7, 121200, Note_on_c, 5, 79, 90
7, 121320, Note_on_c, 5, 79, 0
7, 121320, Note_on_c, 5, 79, 90
7, 121440, Note_on_c, 5, 79, 0
7, 121440, Note_on_c, 5, 77, 90
7, 121560, Note_on_c, 5, 77, 0
7, 121560, Note_on_c, 5, 77, 90
7, 121680, Note_on_c, 5, 77, 0
7, 121680, Note_on_c, 5, 86, 90
7, 121800, Note_on_c, 5, 86, 0
7, 121800, Note_on_c, 5, 86, 90
7, 121920, Note_on_c, 5, 86, 0
7, 121920, Note_on_c, 5, 76, 90
7, 122040, Note_on_c, 5, 76, 0
7, 122040, Note_on_c, 5, 76, 90
7, 122160, Note_on_c, 5, 76, 0
7, 122160, Note_on_c, 5, 86, 90
7, 122280, Note_on_c, 5, 86, 0
7, 122280, Note_on_c, 5, 86, 90
7, 122400, Note_on_c, 5, 86, 0
7, 122400, Note_on_c, 5, 69, 90
7, 122520, Note_on_c, 5, 69, 0
7, 122520, Note_on_c, 5, 69, 90
7, 122640, Note_on_c, 5, 69, 0
7, 122640, Note_on_c, 5, 85, 90
7, 122760, Note_on_c, 5, 85, 0
7, 122760, Note_on_c, 5, 85, 90
7, 122880, Note_on_c, 5, 85, 0
7, 122880, Note_on_c, 5, 74, 90
7, 123360, Note_on_c, 5, 74, 0
7, 123600, Note_on_c, 5, 65, 90
7, 123720, Note_on_c, 5, 65, 0
7, 123720, Note_on_c, 5, 65, 90
7, 123840, Note_on_c, 5, 65, 0
7, 123840, Note_on_c, 5, 64, 90
7, 123960, Note_on_c, 5, 64, 0
7, 123960, Note_on_c, 5, 64, 90
7, 124080, Note_on_c, 5, 64, 0
7, 124080, Note_on_c, 5, 62, 90
7, 124200, Note_on_c, 5, 62, 0
7, 124200, Note_on_c, 5, 62, 90
7, 124320, Note_on_c, 5, 62, 0
7, 124320, Note_on_c, 5, 64, 90
7, 124440, Note_on_c, 5, 64, 0
7, 124440, Note_on_c, 5, 64, 90
7, 124560, Note_on_c, 5, 64, 0
7, 124560, Note_on_c, 5, 65, 90
7, 124680, Note_on_c, 5, 65, 0
7, 124680, Note_on_c, 5, 65, 90
7, 124800, Note_on_c, 5, 65, 0
7, 124800, Note_on_c, 5, 64, 90
7, 124920, Note_on_c, 5, 64, 0
7, 124920, Note_on_c, 5, 64, 90
7, 125040, Note_on_c, 5, 64, 0
7, 125040, Note_on_c, 5, 62, 90
7, 125160, Note_on_c, 5, 62, 0
7, 125160, Note_on_c, 5, 62, 90
7, 125280, Note_on_c, 5, 62, 0
7, 125280, Note_on_c, 5, 70, 90
7, 125400, Note_on_c, 5, 70, 0
7, 125400, Note_on_c, 5, 70, 90
7, 125520, Note_on_c, 5, 70, 0
7, 125520, Note_on_c, 5, 69, 90
7, 125640, Note_on_c, 5, 69, 0
7, 125640, Note_on_c, 5, 69, 90
7, 125760, Note_on_c, 5, 69, 0
7, 125760, Note_on_c, 5, 67, 90
7, 125880, Note_on_c, 5, 67, 0
7, 125880, Note_on_c, 5, 67, 90
7, 126000, Note_on_c, 5, 67, 0
7, 126000, Note_on_c, 5, 65, 90
7, 126120, Note_on_c, 5, 65, 0
7, 126120, Note_on_c, 5, 65, 90
7, 126240, Note_on_c, 5, 65, 0
7, 126240, Note_on_c, 5, 64, 90
7, 126360, Note_on_c, 5, 64, 0
7, 126360, Note_on_c, 5, 64, 90
7, 126480, Note_on_c, 5, 64, 0
7, 126480, Note_on_c, 5, 73, 90
7, 126600, Note_on_c, 5, 73, 0
7, 126600, Note_on_c, 5, 73, 90
7, 126720, Note_on_c, 5, 73, 0
7, 126720, Note_on_c, 5, 74, 90
7, 126840, Note_on_c, 5, 74, 0
7, 126840, Note_on_c, 5, 74, 90
7, 126960, Note_on_c, 5, 74, 0
7, 126960, Note_on_c, 5, 74, 90
7, 127080, Note_on_c, 5, 74, 0
7, 127080, Note_on_c, 5, 74, 90
7, 127200, Note_on_c, 5, 74, 0
7, 127200, Note_on_c, 5, 74, 90
7, 127320, Note_on_c, 5, 74, 0
7, 127320, Note_on_c, 5, 74, 90
7, 127440, Note_on_c, 5, 74, 0
7, 127440, Note_on_c, 5, 74, 90
7, 127560, Note_on_c, 5, 74, 0
7, 127560, Note_on_c, 5, 74, 90
7, 127680, Note_on_c, 5, 74, 0
7, 127680, Note_on_c, 5, 74, 90
7, 127800, Note_on_c, 5, 74, 0
7, 127800, Note_on_c, 5, 74, 90
7, 127920, Note_on_c, 5, 74, 0
7, 127920, Note_on_c, 5, 77, 90
7, 128040, Note_on_c, 5, 77, 0
7, 128040, Note_on_c, 5, 77, 90
7, 128160, Note_on_c, 5, 77, 0
7, 128160, Note_on_c, 5, 73, 90
7, 128280, Note_on_c, 5, 73, 0
7, 128280, Note_on_c, 5, 73, 90
7, 128400, Note_on_c, 5, 73, 0
7, 128400, Note_on_c, 5, 76, 90
7, 128520, Note_on_c, 5, 76, 0
7, 128520, Note_on_c, 5, 76, 90
7, 128640, Note_on_c, 5, 76, 0
7, 128640, Note_on_c, 5, 74, 90
7, 129120, Note_on_c, 5, 74, 0
7, 129120, Note_on_c, 5, 62, 90
7, 129600, Note_on_c, 5, 62, 0
7, 129600, End_track
8, 0, Start_track
8, 0, MIDI_port, 0
8, 0, Title_t, "Track 7"
8, 0, Program_c, 6, 48
8, 0, Control_c, 6, 7, 112
8, 0, Control_c, 6, 10, 90
8, 23, Control_c, 6, 91, 80
8, 40, Note_on_c, 6, 57, 90
8, 120, Note_on_c, 6, 62, 90
8, 160, Note_on_c, 6, 57, 0
8, 240, Note_on_c, 6, 62, 0
8, 240, Note_on_c, 6, 62, 90
8, 360, Note_on_c, 6, 62, 0
8, 360, Note_on_c, 6, 62, 90
8, 480, Note_on_c, 6, 62, 0
8, 480, Note_on_c, 6, 62, 90
8, 600, Note_on_c, 6, 62, 0
8, 600, Note_on_c, 6, 62, 90
8, 720, Note_on_c, 6, 62, 0
8, 720, Note_on_c, 6, 62, 90
8, 840, Note_on_c, 6, 62, 0
8, 840, Note_on_c, 6, 62, 90
8, 960, Note_on_c, 6, 62, 0
8, 960, Note_on_c, 6, 57, 90
8, 1080, Note_on_c, 6, 57, 0
8, 1080, Note_on_c, 6, 62, 90
8, 1200, Note_on_c, 6, 62, 0
8, 1200, Note_on_c, 6, 62, 90
8, 1320, Note_on_c, 6, 62, 0
8, 1320, Note_on_c, 6, 62, 90
8, 1440, Note_on_c, 6, 62, 0
8, 1440, Note_on_c, 6, 62, 90
8, 1560, Note_on_c, 6, 62, 0
8, 1560, Note_on_c, 6, 62, 90
8, 1680, Note_on_c, 6, 62, 0
8, 1680, Note_on_c, 6, 62, 90
8, 1800, Note_on_c, 6, 62, 0
8, 1800, Note_on_c, 6, 62, 90
8, 1920, Note_on_c, 6, 62, 0
8, 1920, Note_on_c, 6, 57, 90
8, 2160, Note_on_c, 6, 57, 0
8, 2160, Note_on_c, 6, 64, 90
8, 2640, Note_on_c, 6, 64, 0
8, 2640, Note_on_c, 6, 64, 90
8, 3120, Note_on_c, 6, 64, 0
8, 3120, Note_on_c, 6, 64, 90
8, 3600, Note_on_c, 6, 64, 0
8, 3600, Note_on_c, 6, 64, 90
8, 3840, Note_on_c, 6, 64, 0
8, 3840, Note_on_c, 6, 57, 90
8, 3960, Note_on_c, 6, 57, 0
8, 3960, Note_on_c, 6, 57, 90
8, 4080, Note_on_c, 6, 57, 0
8, 4080, Note_on_c, 6, 57, 90
8, 4200, Note_on_c, 6, 57, 0
8, 4200, Note_on_c, 6, 57, 90
8, 4320, Note_on_c, 6, 57, 0
8, 4320, Note_on_c, 6, 57, 90
8, 4440, Note_on_c, 6, 57, 0
8, 4440, Note_on_c, 6, 57, 90
8, 4560, Note_on_c, 6, 57, 0
8, 4560, Note_on_c, 6, 57, 90
8, 4680, Note_on_c, 6, 57, 0
8, 4680, Note_on_c, 6, 57, 90
8, 4800, Note_on_c, 6, 57, 0
8, 4800, Note_on_c, 6, 57, 90
8, 4920, Note_on_c, 6, 57, 0
8, 4920, Note_on_c, 6, 57, 90
8, 5040, Note_on_c, 6, 57, 0
8, 5040, Note_on_c, 6, 57, 90
8, 5160, Note_on_c, 6, 57, 0
8, 5160, Note_on_c, 6, 57, 90
8, 5280, Note_on_c, 6, 57, 0
8, 5280, Note_on_c, 6, 57, 90
8, 5400, Note_on_c, 6, 57, 0
8, 5400, Note_on_c, 6, 57, 90
8, 5520, Note_on_c, 6, 57, 0
8, 5520, Note_on_c, 6, 57, 90
8, 5640, Note_on_c, 6, 57, 0
8, 5640, Note_on_c, 6, 57, 90
8, 5760, Note_on_c, 6, 57, 0
8, 5760, Note_on_c, 6, 57, 90
8, 6000, Note_on_c, 6, 57, 0
8, 6000, Note_on_c, 6, 62, 90
8, 6480, Note_on_c, 6, 62, 0
8, 6480, Note_on_c, 6, 62, 90
8, 6960, Note_on_c, 6, 62, 0
8, 6960, Note_on_c, 6, 62, 90
8, 7440, Note_on_c, 6, 62, 0
8, 7440, Note_on_c, 6, 62, 90
8, 7680, Note_on_c, 6, 62, 0
8, 7680, Note_on_c, 6, 58, 90
8, 8160, Note_on_c, 6, 58, 0
8, 8160, Note_on_c, 6, 57, 90
8, 8400, Note_on_c, 6, 57, 0
8, 8400, Note_on_c, 6, 57, 90
8, 8640, Note_on_c, 6, 57, 0
8, 8640, Note_on_c, 6, 62, 90
8, 8880, Note_on_c, 6, 62, 0
8, 8880, Note_on_c, 6, 62, 90
8, 9360, Note_on_c, 6, 62, 0
8, 9360, Note_on_c, 6, 62, 90
8, 9600, Note_on_c, 6, 62, 0
8, 9600, Note_on_c, 6, 64, 90
8, 10080, Note_on_c, 6, 64, 0
8, 10080, Note_on_c, 6, 65, 90
8, 10320, Note_on_c, 6, 65, 0
8, 10320, Note_on_c, 6, 65, 90
8, 10560, Note_on_c, 6, 65, 0
8, 10560, Note_on_c, 6, 65, 90
8, 10800, Note_on_c, 6, 65, 0
8, 10800, Note_on_c, 6, 65, 90
8, 11280, Note_on_c, 6, 65, 0
8, 11280, Note_on_c, 6, 65, 90
8, 11520, Note_on_c, 6, 65, 0
8, 11520, Note_on_c, 6, 62, 90
8, 11760, Note_on_c, 6, 62, 0
8, 11760, Note_on_c, 6, 62, 90
8, 12000, Note_on_c, 6, 62, 0
8, 12000, Note_on_c, 6, 62, 90
8, 12240, Note_on_c, 6, 62, 0
8, 12240, Note_on_c, 6, 62, 90
8, 12480, Note_on_c, 6, 62, 0
8, 12480, Note_on_c, 6, 61, 90
8, 12720, Note_on_c, 6, 61, 0
8, 12720, Note_on_c, 6, 64, 90
8, 12960, Note_on_c, 6, 64, 0
8, 12960, Note_on_c, 6, 65, 90
8, 13200, Note_on_c, 6, 65, 0
8, 13200, Note_on_c, 6, 69, 90
8, 13440, Note_on_c, 6, 69, 0
8, 13440, Note_on_c, 6, 69, 90
8, 13680, Note_on_c, 6, 69, 0
8, 13680, Note_on_c, 6, 57, 90
8, 13920, Note_on_c, 6, 57, 0
8, 13920, Note_on_c, 6, 57, 90
8, 14160, Note_on_c, 6, 57, 0
8, 14160, Note_on_c, 6, 57, 90
8, 14400, Note_on_c, 6, 57, 0
8, 14400, Note_on_c, 6, 57, 90
8, 14640, Note_on_c, 6, 57, 0
8, 14640, Note_on_c, 6, 57, 90
8, 14880, Note_on_c, 6, 57, 0
8, 14880, Note_on_c, 6, 57, 90
8, 15120, Note_on_c, 6, 57, 0
8, 15120, Note_on_c, 6, 57, 90
8, 15360, Note_on_c, 6, 57, 0
8, 15360, Note_on_c, 6, 57, 90
8, 15600, Note_on_c, 6, 57, 0
8, 15600, Note_on_c, 6, 57, 90
8, 15840, Note_on_c, 6, 57, 0
8, 15840, Note_on_c, 6, 58, 90
8, 16080, Note_on_c, 6, 58, 0
8, 16080, Note_on_c, 6, 59, 90
8, 16320, Note_on_c, 6, 59, 0
8, 16320, Note_on_c, 6, 60, 90
8, 16560, Note_on_c, 6, 60, 0
8, 16560, Note_on_c, 6, 65, 90
8, 16800, Note_on_c, 6, 65, 0
8, 16800, Note_on_c, 6, 65, 90
8, 17040, Note_on_c, 6, 65, 0
8, 17040, Note_on_c, 6, 67, 90
8, 17280, Note_on_c, 6, 67, 0
8, 17280, Note_on_c, 6, 60, 90
8, 17400, Note_on_c, 6, 60, 0
8, 17400, Note_on_c, 6, 65, 90
8, 17520, Note_on_c, 6, 65, 0
8, 17520, Note_on_c, 6, 65, 90
8, 17640, Note_on_c, 6, 65, 0
8, 17640, Note_on_c, 6, 65, 90
8, 17760, Note_on_c, 6, 65, 0
8, 17760, Note_on_c, 6, 65, 90
8, 17880, Note_on_c, 6, 65, 0
8, 17880, Note_on_c, 6, 65, 90
8, 18000, Note_on_c, 6, 65, 0
8, 18000, Note_on_c, 6, 65, 90
8, 18120, Note_on_c, 6, 65, 0
8, 18120, Note_on_c, 6, 65, 90
8, 18240, Note_on_c, 6, 65, 0
8, 18240, Note_on_c, 6, 60, 90
8, 18360, Note_on_c, 6, 60, 0
8, 18360, Note_on_c, 6, 65, 90
8, 18480, Note_on_c, 6, 65, 0
8, 18480, Note_on_c, 6, 65, 90
8, 18600, Note_on_c, 6, 65, 0
8, 18600, Note_on_c, 6, 65, 90
8, 18720, Note_on_c, 6, 65, 0
8, 18720, Note_on_c, 6, 65, 90
8, 18840, Note_on_c, 6, 65, 0
8, 18840, Note_on_c, 6, 65, 90
8, 18960, Note_on_c, 6, 65, 0
8, 18960, Note_on_c, 6, 65, 90
8, 19080, Note_on_c, 6, 65, 0
8, 19080, Note_on_c, 6, 65, 90
8, 19200, Note_on_c, 6, 65, 0
8, 19200, Note_on_c, 6, 65, 90
8, 19320, Note_on_c, 6, 65, 0
8, 19320, Note_on_c, 6, 65, 90
8, 19440, Note_on_c, 6, 65, 0
8, 19440, Note_on_c, 6, 65, 90
8, 19560, Note_on_c, 6, 65, 0
8, 19560, Note_on_c, 6, 65, 90
8, 19680, Note_on_c, 6, 65, 0
8, 19680, Note_on_c, 6, 65, 90
8, 19800, Note_on_c, 6, 65, 0
8, 19800, Note_on_c, 6, 65, 90
8, 19920, Note_on_c, 6, 65, 0
8, 19920, Note_on_c, 6, 65, 90
8, 20040, Note_on_c, 6, 65, 0
8, 20040, Note_on_c, 6, 65, 90
8, 20160, Note_on_c, 6, 65, 0
8, 20160, Note_on_c, 6, 65, 90
8, 20280, Note_on_c, 6, 65, 0
8, 20280, Note_on_c, 6, 65, 90
8, 20400, Note_on_c, 6, 65, 0
8, 20400, Note_on_c, 6, 65, 90
8, 20520, Note_on_c, 6, 65, 0
8, 20520, Note_on_c, 6, 65, 90
8, 20640, Note_on_c, 6, 65, 0
8, 20640, Note_on_c, 6, 60, 90
8, 20760, Note_on_c, 6, 60, 0
8, 20760, Note_on_c, 6, 60, 90
8, 20880, Note_on_c, 6, 60, 0
8, 20880, Note_on_c, 6, 60, 90
8, 21000, Note_on_c, 6, 60, 0
8, 21000, Note_on_c, 6, 60, 90
8, 21120, Note_on_c, 6, 60, 0
8, 21120, Note_on_c, 6, 57, 90
8, 21240, Note_on_c, 6, 57, 0
8, 21240, Note_on_c, 6, 57, 90
8, 21360, Note_on_c, 6, 57, 0
8, 21360, Note_on_c, 6, 57, 90
8, 21480, Note_on_c, 6, 57, 0
8, 21480, Note_on_c, 6, 57, 90
8, 21600, Note_on_c, 6, 57, 0
8, 21600, Note_on_c, 6, 54, 90
8, 21720, Note_on_c, 6, 54, 0
8, 21720, Note_on_c, 6, 54, 90
8, 21840, Note_on_c, 6, 54, 0
8, 21840, Note_on_c, 6, 54, 90
8, 21960, Note_on_c, 6, 54, 0
8, 21960, Note_on_c, 6, 54, 90
8, 22080, Note_on_c, 6, 54, 0
8, 22080, Note_on_c, 6, 57, 90
8, 22200, Note_on_c, 6, 57, 0
8, 22200, Note_on_c, 6, 57, 90
8, 22320, Note_on_c, 6, 57, 0
8, 22320, Note_on_c, 6, 57, 90
8, 22440, Note_on_c, 6, 57, 0
8, 22440, Note_on_c, 6, 57, 90
8, 22560, Note_on_c, 6, 57, 0
8, 22560, Note_on_c, 6, 60, 90
8, 22680, Note_on_c, 6, 60, 0
8, 22680, Note_on_c, 6, 60, 90
8, 22800, Note_on_c, 6, 60, 0
8, 22800, Note_on_c, 6, 60, 90
8, 22920, Note_on_c, 6, 60, 0
8, 22920, Note_on_c, 6, 60, 90
8, 23040, Note_on_c, 6, 60, 0
8, 23040, Note_on_c, 6, 60, 90
8, 23160, Note_on_c, 6, 60, 0
8, 23160, Note_on_c, 6, 60, 90
8, 23280, Note_on_c, 6, 60, 0
8, 23280, Note_on_c, 6, 60, 90
8, 23400, Note_on_c, 6, 60, 0
8, 23400, Note_on_c, 6, 60, 90
8, 23520, Note_on_c, 6, 60, 0
8, 23520, Note_on_c, 6, 60, 90
8, 23640, Note_on_c, 6, 60, 0
8, 23640, Note_on_c, 6, 60, 90
8, 23760, Note_on_c, 6, 60, 0
8, 23760, Note_on_c, 6, 60, 90
8, 23880, Note_on_c, 6, 60, 0
8, 23880, Note_on_c, 6, 60, 90
8, 24000, Note_on_c, 6, 60, 0
8, 24000, Note_on_c, 6, 59, 90
8, 24120, Note_on_c, 6, 59, 0
8, 24120, Note_on_c, 6, 59, 90
8, 24240, Note_on_c, 6, 59, 0
8, 24240, Note_on_c, 6, 59, 90
8, 24360, Note_on_c, 6, 59, 0
8, 24360, Note_on_c, 6, 59, 90
8, 24480, Note_on_c, 6, 59, 0
8, 24480, Note_on_c, 6, 59, 90
8, 24600, Note_on_c, 6, 59, 0
8, 24600, Note_on_c, 6, 59, 90
8, 24720, Note_on_c, 6, 59, 0
8, 24720, Note_on_c, 6, 59, 90
8, 24840, Note_on_c, 6, 59, 0
8, 24840, Note_on_c, 6, 59, 90
8, 24960, Note_on_c, 6, 59, 0
8, 24960, Note_on_c, 6, 67, 90
8, 25080, Note_on_c, 6, 67, 0
8, 25080, Note_on_c, 6, 67, 90
8, 25200, Note_on_c, 6, 67, 0
8, 25200, Note_on_c, 6, 67, 90
8, 25320, Note_on_c, 6, 67, 0
8, 25320, Note_on_c, 6, 67, 90
8, 25440, Note_on_c, 6, 67, 0
8, 25440, Note_on_c, 6, 67, 90
8, 25560, Note_on_c, 6, 67, 0
8, 25560, Note_on_c, 6, 67, 90
8, 25680, Note_on_c, 6, 67, 0
8, 25680, Note_on_c, 6, 67, 90
8, 25800, Note_on_c, 6, 67, 0
8, 25800, Note_on_c, 6, 67, 90
8, 25920, Note_on_c, 6, 67, 0
8, 25920, Note_on_c, 6, 67, 90
8, 26040, Note_on_c, 6, 67, 0
8, 26040, Note_on_c, 6, 67, 90
8, 26160, Note_on_c, 6, 67, 0
8, 26160, Note_on_c, 6, 67, 90
8, 26280, Note_on_c, 6, 67, 0
8, 26280, Note_on_c, 6, 67, 90
8, 26400, Note_on_c, 6, 67, 0
8, 26400, Note_on_c, 6, 62, 90
8, 26520, Note_on_c, 6, 62, 0
8, 26520, Note_on_c, 6, 62, 90
8, 26640, Note_on_c, 6, 62, 0
8, 26640, Note_on_c, 6, 62, 90
8, 26760, Note_on_c, 6, 62, 0
8, 26760, Note_on_c, 6, 62, 90
8, 26880, Note_on_c, 6, 62, 0
8, 26880, Note_on_c, 6, 59, 90
8, 27000, Note_on_c, 6, 59, 0
8, 27000, Note_on_c, 6, 59, 90
8, 27120, Note_on_c, 6, 59, 0
8, 27120, Note_on_c, 6, 59, 90
8, 27240, Note_on_c, 6, 59, 0
8, 27240, Note_on_c, 6, 59, 90
8, 27360, Note_on_c, 6, 59, 0
8, 27360, Note_on_c, 6, 56, 90
8, 27480, Note_on_c, 6, 56, 0
8, 27480, Note_on_c, 6, 56, 90
8, 27600, Note_on_c, 6, 56, 0
8, 27600, Note_on_c, 6, 56, 90
8, 27720, Note_on_c, 6, 56, 0
8, 27720, Note_on_c, 6, 56, 90
8, 27840, Note_on_c, 6, 56, 0
8, 27840, Note_on_c, 6, 59, 90
8, 27960, Note_on_c, 6, 59, 0
8, 27960, Note_on_c, 6, 59, 90
8, 28080, Note_on_c, 6, 59, 0
8, 28080, Note_on_c, 6, 59, 90
8, 28200, Note_on_c, 6, 59, 0
8, 28200, Note_on_c, 6, 59, 90
8, 28320, Note_on_c, 6, 59, 0
8, 28320, Note_on_c, 6, 62, 90
8, 28440, Note_on_c, 6, 62, 0
8, 28440, Note_on_c, 6, 62, 90
8, 28560, Note_on_c, 6, 62, 0
8, 28560, Note_on_c, 6, 62, 90
8, 28680, Note_on_c, 6, 62, 0
8, 28680, Note_on_c, 6, 62, 90
8, 28800, Note_on_c, 6, 62, 0
8, 28800, Note_on_c, 6, 60, 90
8, 28920, Note_on_c, 6, 60, 0
8, 28920, Note_on_c, 6, 69, 90
8, 29040, Note_on_c, 6, 69, 0
8, 29040, Note_on_c, 6, 69, 90
8, 29160, Note_on_c, 6, 69, 0
8, 29160, Note_on_c, 6, 69, 90
8, 29280, Note_on_c, 6, 69, 0
8, 29280, Note_on_c, 6, 69, 90
8, 29400, Note_on_c, 6, 69, 0
8, 29400, Note_on_c, 6, 69, 90
8, 29520, Note_on_c, 6, 69, 0
8, 29520, Note_on_c, 6, 69, 90
8, 29640, Note_on_c, 6, 69, 0
8, 29640, Note_on_c, 6, 69, 90
8, 29760, Note_on_c, 6, 69, 0
8, 29760, Note_on_c, 6, 62, 90
8, 29880, Note_on_c, 6, 62, 0
8, 29880, Note_on_c, 6, 68, 90
8, 30000, Note_on_c, 6, 68, 0
8, 30000, Note_on_c, 6, 68, 90
8, 30120, Note_on_c, 6, 68, 0
8, 30120, Note_on_c, 6, 68, 90
8, 30240, Note_on_c, 6, 68, 0
8, 30240, Note_on_c, 6, 68, 90
8, 30360, Note_on_c, 6, 68, 0
8, 30360, Note_on_c, 6, 68, 90
8, 30480, Note_on_c, 6, 68, 0
8, 30480, Note_on_c, 6, 68, 90
8, 30600, Note_on_c, 6, 68, 0
8, 30600, Note_on_c, 6, 68, 90
8, 30720, Note_on_c, 6, 68, 0
8, 30720, Note_on_c, 6, 64, 90
8, 30840, Note_on_c, 6, 64, 0
8, 30840, Note_on_c, 6, 69, 90
8, 30960, Note_on_c, 6, 69, 0
8, 30960, Note_on_c, 6, 69, 90
8, 31080, Note_on_c, 6, 69, 0
8, 31080, Note_on_c, 6, 69, 90
8, 31200, Note_on_c, 6, 69, 0
8, 31200, Note_on_c, 6, 69, 90
8, 31320, Note_on_c, 6, 69, 0
8, 31320, Note_on_c, 6, 69, 90
8, 31440, Note_on_c, 6, 69, 0
8, 31440, Note_on_c, 6, 69, 90
8, 31560, Note_on_c, 6, 69, 0
8, 31560, Note_on_c, 6, 69, 90
8, 31680, Note_on_c, 6, 69, 0
8, 31680, Note_on_c, 6, 62, 90
8, 31800, Note_on_c, 6, 62, 0
8, 31800, Note_on_c, 6, 65, 90
8, 31920, Note_on_c, 6, 65, 0
8, 31920, Note_on_c, 6, 65, 90
8, 32040, Note_on_c, 6, 65, 0
8, 32040, Note_on_c, 6, 65, 90
8, 32160, Note_on_c, 6, 65, 0
8, 32160, Note_on_c, 6, 65, 90
8, 32280, Note_on_c, 6, 65, 0
8, 32280, Note_on_c, 6, 65, 90
8, 32400, Note_on_c, 6, 65, 0
8, 32400, Note_on_c, 6, 65, 90
8, 32520, Note_on_c, 6, 65, 0
8, 32520, Note_on_c, 6, 65, 90
8, 32640, Note_on_c, 6, 65, 0
8, 32640, Note_on_c, 6, 59, 90
8, 32760, Note_on_c, 6, 59, 0
8, 32760, Note_on_c, 6, 59, 90
8, 32880, Note_on_c, 6, 59, 0
8, 32880, Note_on_c, 6, 62, 90
8, 33000, Note_on_c, 6, 62, 0
8, 33000, Note_on_c, 6, 62, 90
8, 33120, Note_on_c, 6, 62, 0
8, 33120, Note_on_c, 6, 60, 90
8, 33240, Note_on_c, 6, 60, 0
8, 33240, Note_on_c, 6, 60, 90
8, 33360, Note_on_c, 6, 60, 0
8, 33360, Note_on_c, 6, 64, 90
8, 33480, Note_on_c, 6, 64, 0
8, 33480, Note_on_c, 6, 64, 90
8, 33600, Note_on_c, 6, 64, 0
8, 33600, Note_on_c, 6, 64, 90
8, 33720, Note_on_c, 6, 64, 0
8, 33720, Note_on_c, 6, 64, 90
8, 33840, Note_on_c, 6, 64, 0
8, 33840, Note_on_c, 6, 64, 90
8, 33960, Note_on_c, 6, 64, 0
8, 33960, Note_on_c, 6, 64, 90
8, 34080, Note_on_c, 6, 64, 0
8, 34080, Note_on_c, 6, 64, 90
8, 34200, Note_on_c, 6, 64, 0
8, 34200, Note_on_c, 6, 64, 90
8, 34320, Note_on_c, 6, 64, 0
8, 34320, Note_on_c, 6, 64, 90
8, 34440, Note_on_c, 6, 64, 0
8, 34440, Note_on_c, 6, 64, 90
8, 34560, Note_on_c, 6, 64, 0
8, 34560, Note_on_c, 6, 57, 90
8, 35040, Note_on_c, 6, 57, 0
8, 35760, Note_on_c, 6, 64, 90
8, 36000, Note_on_c, 6, 64, 0
8, 36000, Note_on_c, 6, 66, 90
8, 36240, Note_on_c, 6, 66, 0
8, 36240, Note_on_c, 6, 63, 90
8, 36480, Note_on_c, 6, 63, 0
8, 36480, Note_on_c, 6, 64, 90
8, 36720, Note_on_c, 6, 64, 0
8, 36720, Note_on_c, 6, 65, 90
8, 36960, Note_on_c, 6, 65, 0
8, 36960, Note_on_c, 6, 62, 90
8, 37200, Note_on_c, 6, 62, 0
8, 37200, Note_on_c, 6, 69, 90
8, 37440, Note_on_c, 6, 69, 0
8, 37440, Note_on_c, 6, 59, 90
8, 37680, Note_on_c, 6, 59, 0
8, 37680, Note_on_c, 6, 65, 90
8, 37920, Note_on_c, 6, 65, 0
8, 37920, Note_on_c, 6, 56, 90
8, 38160, Note_on_c, 6, 56, 0
8, 38160, Note_on_c, 6, 64, 90
8, 38400, Note_on_c, 6, 64, 0
8, 38400, Note_on_c, 6, 64, 90
8, 38640, Note_on_c, 6, 64, 0
8, 38640, Note_on_c, 6, 64, 90
8, 38880, Note_on_c, 6, 64, 0
8, 38880, Note_on_c, 6, 65, 90
8, 39120, Note_on_c, 6, 65, 0
8, 39120, Note_on_c, 6, 65, 90
8, 39360, Note_on_c, 6, 65, 0
8, 39360, Note_on_c, 6, 64, 90
8, 39600, Note_on_c, 6, 64, 0
8, 39600, Note_on_c, 6, 62, 90
8, 39840, Note_on_c, 6, 62, 0
8, 39840, Note_on_c, 6, 64, 90
8, 40080, Note_on_c, 6, 64, 0
8, 40080, Note_on_c, 6, 52, 90
8, 40320, Note_on_c, 6, 52, 0
8, 40320, Note_on_c, 6, 60, 90
8, 40440, Note_on_c, 6, 60, 0
8, 40440, Note_on_c, 6, 64, 90
8, 40560, Note_on_c, 6, 64, 0
8, 40560, Note_on_c, 6, 64, 90
8, 40680, Note_on_c, 6, 64, 0
8, 40680, Note_on_c, 6, 64, 90
8, 40800, Note_on_c, 6, 64, 0
8, 40800, Note_on_c, 6, 64, 90
8, 40920, Note_on_c, 6, 64, 0
8, 40920, Note_on_c, 6, 64, 90
8, 41040, Note_on_c, 6, 64, 0
8, 41040, Note_on_c, 6, 64, 90
8, 41160, Note_on_c, 6, 64, 0
8, 41160, Note_on_c, 6, 64, 90
8, 41280, Note_on_c, 6, 64, 0
8, 41280, Note_on_c, 6, 60, 90
8, 41400, Note_on_c, 6, 60, 0
8, 41400, Note_on_c, 6, 64, 90
8, 41520, Note_on_c, 6, 64, 0
8, 41520, Note_on_c, 6, 64, 90
8, 41640, Note_on_c, 6, 64, 0
8, 41640, Note_on_c, 6, 64, 90
8, 41760, Note_on_c, 6, 64, 0
8, 41760, Note_on_c, 6, 64, 90
8, 41880, Note_on_c, 6, 64, 0
8, 41880, Note_on_c, 6, 64, 90
8, 42000, Note_on_c, 6, 64, 0
8, 42000, Note_on_c, 6, 64, 90
8, 42120, Note_on_c, 6, 64, 0
8, 42120, Note_on_c, 6, 64, 90
8, 42240, Note_on_c, 6, 64, 0
8, 42240, Note_on_c, 6, 62, 90
8, 42480, Note_on_c, 6, 62, 0
8, 42480, Note_on_c, 6, 62, 90
8, 42960, Note_on_c, 6, 62, 0
8, 42960, Note_on_c, 6, 62, 90
8, 43440, Note_on_c, 6, 62, 0
8, 43440, Note_on_c, 6, 62, 90
8, 43920, Note_on_c, 6, 62, 0
8, 43920, Note_on_c, 6, 62, 90
8, 44160, Note_on_c, 6, 62, 0
8, 44160, Note_on_c, 6, 56, 90
8, 44280, Note_on_c, 6, 56, 0
8, 44280, Note_on_c, 6, 64, 90
8, 44400, Note_on_c, 6, 64, 0
8, 44400, Note_on_c, 6, 64, 90
8, 44520, Note_on_c, 6, 64, 0
8, 44520, Note_on_c, 6, 64, 90
8, 44640, Note_on_c, 6, 64, 0
8, 44640, Note_on_c, 6, 64, 90
8, 44760, Note_on_c, 6, 64, 0
8, 44760, Note_on_c, 6, 64, 90
8, 44880, Note_on_c, 6, 64, 0
8, 44880, Note_on_c, 6, 64, 90
8, 45000, Note_on_c, 6, 64, 0
8, 45000, Note_on_c, 6, 64, 90
8, 45120, Note_on_c, 6, 64, 0
8, 45120, Note_on_c, 6, 56, 90
8, 45240, Note_on_c, 6, 56, 0
8, 45240, Note_on_c, 6, 64, 90
8, 45360, Note_on_c, 6, 64, 0
8, 45360, Note_on_c, 6, 64, 90
8, 45480, Note_on_c, 6, 64, 0
8, 45480, Note_on_c, 6, 64, 90
8, 45600, Note_on_c, 6, 64, 0
8, 45600, Note_on_c, 6, 64, 90
8, 45720, Note_on_c, 6, 64, 0
8, 45720, Note_on_c, 6, 64, 90
8, 45840, Note_on_c, 6, 64, 0
8, 45840, Note_on_c, 6, 64, 90
8, 45960, Note_on_c, 6, 64, 0
8, 45960, Note_on_c, 6, 64, 90
8, 46080, Note_on_c, 6, 64, 0
8, 46080, Note_on_c, 6, 64, 90
8, 46320, Note_on_c, 6, 64, 0
8, 46320, Note_on_c, 6, 57, 90
8, 46800, Note_on_c, 6, 57, 0
8, 46800, Note_on_c, 6, 57, 90
8, 47280, Note_on_c, 6, 57, 0
8, 47280, Note_on_c, 6, 60, 90
8, 47520, Note_on_c, 6, 60, 0
8, 47520, Note_on_c, 6, 60, 90
8, 47760, Note_on_c, 6, 60, 0
8, 47760, Note_on_c, 6, 60, 90
8, 48000, Note_on_c, 6, 60, 0
8, 48000, Note_on_c, 6, 62, 90
8, 48480, Note_on_c, 6, 62, 0
8, 48480, Note_on_c, 6, 60, 90
8, 48720, Note_on_c, 6, 60, 0
8, 48720, Note_on_c, 6, 60, 90
8, 48960, Note_on_c, 6, 60, 0
8, 48960, Note_on_c, 6, 60, 90
8, 49200, Note_on_c, 6, 60, 0
8, 49200, Note_on_c, 6, 60, 90
8, 49680, Note_on_c, 6, 60, 0
8, 49680, Note_on_c, 6, 60, 90
8, 49920, Note_on_c, 6, 60, 0
8, 49920, Note_on_c, 6, 62, 90
8, 50400, Note_on_c, 6, 62, 0
8, 50400, Note_on_c, 6, 60, 90
8, 50880, Note_on_c, 6, 60, 0
8, 51120, Note_on_c, 6, 60, 90
8, 51360, Note_on_c, 6, 60, 0
8, 51360, Note_on_c, 6, 60, 90
8, 51600, Note_on_c, 6, 60, 0
8, 51600, Note_on_c, 6, 59, 90
8, 51840, Note_on_c, 6, 59, 0
8, 51840, Note_on_c, 6, 57, 90
8, 52080, Note_on_c, 6, 57, 0
8, 52080, Note_on_c, 6, 65, 90
8, 52320, Note_on_c, 6, 65, 0
8, 52320, Note_on_c, 6, 64, 90
8, 52560, Note_on_c, 6, 64, 0
8, 52560, Note_on_c, 6, 64, 90
8, 52800, Note_on_c, 6, 64, 0
8, 52800, Note_on_c, 6, 62, 90
8, 53040, Note_on_c, 6, 62, 0
8, 53040, Note_on_c, 6, 62, 90
8, 53280, Note_on_c, 6, 62, 0
8, 53280, Note_on_c, 6, 60, 90
8, 53520, Note_on_c, 6, 60, 0
8, 53520, Note_on_c, 6, 60, 90
8, 53760, Note_on_c, 6, 60, 0
8, 53760, Note_on_c, 6, 64, 90
8, 54000, Note_on_c, 6, 64, 0
8, 54000, Note_on_c, 6, 64, 90
8, 54240, Note_on_c, 6, 64, 0
8, 54240, Note_on_c, 6, 64, 90
8, 54480, Note_on_c, 6, 64, 0
8, 54480, Note_on_c, 6, 64, 90
8, 54720, Note_on_c, 6, 64, 0
8, 54720, Note_on_c, 6, 64, 90
8, 54960, Note_on_c, 6, 64, 0
8, 54960, Note_on_c, 6, 64, 90
8, 55200, Note_on_c, 6, 64, 0
8, 55200, Note_on_c, 6, 64, 90
8, 55440, Note_on_c, 6, 64, 0
8, 55440, Note_on_c, 6, 64, 90
8, 55680, Note_on_c, 6, 64, 0
8, 55680, Note_on_c, 6, 59, 90
8, 55920, Note_on_c, 6, 59, 0
8, 55920, Note_on_c, 6, 59, 90
8, 56160, Note_on_c, 6, 59, 0
8, 56160, Note_on_c, 6, 59, 90
8, 56400, Note_on_c, 6, 59, 0
8, 56400, Note_on_c, 6, 59, 90
8, 56640, Note_on_c, 6, 59, 0
8, 56640, Note_on_c, 6, 55, 90
8, 56880, Note_on_c, 6, 55, 0
8, 56880, Note_on_c, 6, 55, 90
8, 57120, Note_on_c, 6, 55, 0
8, 57120, Note_on_c, 6, 55, 90
8, 57360, Note_on_c, 6, 55, 0
8, 57360, Note_on_c, 6, 55, 90
8, 57600, Note_on_c, 6, 55, 0
8, 57600, Note_on_c, 6, 55, 90
8, 57720, Note_on_c, 6, 55, 0
8, 57720, Note_on_c, 6, 60, 90
8, 57840, Note_on_c, 6, 60, 0
8, 57840, Note_on_c, 6, 60, 90
8, 57960, Note_on_c, 6, 60, 0
8, 57960, Note_on_c, 6, 60, 90
8, 58080, Note_on_c, 6, 60, 0
8, 58080, Note_on_c, 6, 60, 90
8, 58200, Note_on_c, 6, 60, 0
8, 58200, Note_on_c, 6, 60, 90
8, 58320, Note_on_c, 6, 60, 0
8, 58320, Note_on_c, 6, 60, 90
8, 58440, Note_on_c, 6, 60, 0
8, 58440, Note_on_c, 6, 60, 90
8, 58560, Note_on_c, 6, 60, 0
8, 58560, Note_on_c, 6, 55, 90
8, 58680, Note_on_c, 6, 55, 0
8, 58680, Note_on_c, 6, 60, 90
8, 58800, Note_on_c, 6, 60, 0
8, 58800, Note_on_c, 6, 60, 90
8, 58920, Note_on_c, 6, 60, 0
8, 58920, Note_on_c, 6, 60, 90
8, 59040, Note_on_c, 6, 60, 0
8, 59040, Note_on_c, 6, 60, 90
8, 59160, Note_on_c, 6, 60, 0
8, 59160, Note_on_c, 6, 60, 90
8, 59280, Note_on_c, 6, 60, 0
8, 59280, Note_on_c, 6, 60, 90
8, 59400, Note_on_c, 6, 60, 0
8, 59400, Note_on_c, 6, 60, 90
8, 59520, Note_on_c, 6, 60, 0
8, 59520, Note_on_c, 6, 60, 90
8, 59640, Note_on_c, 6, 60, 0
8, 59640, Note_on_c, 6, 63, 90
8, 59760, Note_on_c, 6, 63, 0
8, 59760, Note_on_c, 6, 63, 90
8, 59880, Note_on_c, 6, 63, 0
8, 59880, Note_on_c, 6, 63, 90
8, 60000, Note_on_c, 6, 63, 0
8, 60000, Note_on_c, 6, 63, 90
8, 60120, Note_on_c, 6, 63, 0
8, 60120, Note_on_c, 6, 63, 90
8, 60240, Note_on_c, 6, 63, 0
8, 60240, Note_on_c, 6, 63, 90
8, 60360, Note_on_c, 6, 63, 0
8, 60360, Note_on_c, 6, 63, 90
8, 60480, Note_on_c, 6, 63, 0
8, 60480, Note_on_c, 6, 60, 90
8, 60600, Note_on_c, 6, 60, 0
8, 60600, Note_on_c, 6, 63, 90
8, 60720, Note_on_c, 6, 63, 0
8, 60720, Note_on_c, 6, 63, 90
8, 60840, Note_on_c, 6, 63, 0
8, 60840, Note_on_c, 6, 63, 90
8, 60960, Note_on_c, 6, 63, 0
8, 60960, Note_on_c, 6, 63, 90
8, 61080, Note_on_c, 6, 63, 0
8, 61080, Note_on_c, 6, 63, 90
8, 61200, Note_on_c, 6, 63, 0
8, 61200, Note_on_c, 6, 63, 90
8, 61320, Note_on_c, 6, 63, 0
8, 61320, Note_on_c, 6, 63, 90
8, 61440, Note_on_c, 6, 63, 0
8, 61440, Note_on_c, 6, 63, 90
8, 61680, Note_on_c, 6, 63, 0
8, 61680, Note_on_c, 6, 63, 90
8, 61920, Note_on_c, 6, 63, 0
8, 61920, Note_on_c, 6, 64, 90
8, 62160, Note_on_c, 6, 64, 0
8, 62160, Note_on_c, 6, 64, 90
8, 62640, Note_on_c, 6, 64, 0
8, 62640, Note_on_c, 6, 64, 90
8, 63120, Note_on_c, 6, 64, 0
8, 63120, Note_on_c, 6, 64, 90
8, 63360, Note_on_c, 6, 64, 0
8, 63360, Note_on_c, 6, 55, 90
8, 63480, Note_on_c, 6, 55, 0
8, 63480, Note_on_c, 6, 61, 90
8, 63600, Note_on_c, 6, 61, 0
8, 63600, Note_on_c, 6, 61, 90
8, 63720, Note_on_c, 6, 61, 0
8, 63720, Note_on_c, 6, 61, 90
8, 63840, Note_on_c, 6, 61, 0
8, 63840, Note_on_c, 6, 61, 90
8, 63960, Note_on_c, 6, 61, 0
8, 63960, Note_on_c, 6, 61, 90
8, 64080, Note_on_c, 6, 61, 0
8, 64080, Note_on_c, 6, 61, 90
8, 64200, Note_on_c, 6, 61, 0
8, 64200, Note_on_c, 6, 61, 90
8, 64320, Note_on_c, 6, 61, 0
8, 64320, Note_on_c, 6, 55, 90
8, 64440, Note_on_c, 6, 55, 0
8, 64440, Note_on_c, 6, 61, 90
8, 64560, Note_on_c, 6, 61, 0
8, 64560, Note_on_c, 6, 61, 90
8, 64680, Note_on_c, 6, 61, 0
8, 64680, Note_on_c, 6, 61, 90
8, 64800, Note_on_c, 6, 61, 0
8, 64800, Note_on_c, 6, 61, 90
8, 64920, Note_on_c, 6, 61, 0
8, 64920, Note_on_c, 6, 61, 90
8, 65040, Note_on_c, 6, 61, 0
8, 65040, Note_on_c, 6, 61, 90
8, 65160, Note_on_c, 6, 61, 0
8, 65160, Note_on_c, 6, 61, 90
8, 65280, Note_on_c, 6, 61, 0
8, 65280, Note_on_c, 6, 61, 90
8, 65400, Note_on_c, 6, 61, 0
8, 65400, Note_on_c, 6, 67, 90
8, 65520, Note_on_c, 6, 67, 0
8, 65520, Note_on_c, 6, 67, 90
8, 65640, Note_on_c, 6, 67, 0
8, 65640, Note_on_c, 6, 67, 90
8, 65760, Note_on_c, 6, 67, 0
8, 65760, Note_on_c, 6, 67, 90
8, 65880, Note_on_c, 6, 67, 0
8, 65880, Note_on_c, 6, 67, 90
8, 66000, Note_on_c, 6, 67, 0
8, 66000, Note_on_c, 6, 67, 90
8, 66120, Note_on_c, 6, 67, 0
8, 66120, Note_on_c, 6, 67, 90
8, 66240, Note_on_c, 6, 67, 0
8, 66240, Note_on_c, 6, 61, 90
8, 66360, Note_on_c, 6, 61, 0
8, 66360, Note_on_c, 6, 67, 90
8, 66480, Note_on_c, 6, 67, 0
8, 66480, Note_on_c, 6, 67, 90
8, 66600, Note_on_c, 6, 67, 0
8, 66600, Note_on_c, 6, 67, 90
8, 66720, Note_on_c, 6, 67, 0
8, 66720, Note_on_c, 6, 67, 90
8, 66840, Note_on_c, 6, 67, 0
8, 66840, Note_on_c, 6, 67, 90
8, 66960, Note_on_c, 6, 67, 0
8, 66960, Note_on_c, 6, 67, 90
8, 67080, Note_on_c, 6, 67, 0
8, 67080, Note_on_c, 6, 67, 90
8, 67200, Note_on_c, 6, 67, 0
8, 67200, Note_on_c, 6, 64, 90
8, 67440, Note_on_c, 6, 64, 0
8, 67440, Note_on_c, 6, 64, 90
8, 67680, Note_on_c, 6, 64, 0
8, 67680, Note_on_c, 6, 65, 90
8, 67920, Note_on_c, 6, 65, 0
8, 67920, Note_on_c, 6, 65, 90
8, 68400, Note_on_c, 6, 65, 0
8, 68400, Note_on_c, 6, 65, 90
8, 68880, Note_on_c, 6, 65, 0
8, 68880, Note_on_c, 6, 65, 90
8, 69120, Note_on_c, 6, 65, 0
8, 69120, Note_on_c, 6, 58, 90
8, 69240, Note_on_c, 6, 58, 0
8, 69240, Note_on_c, 6, 63, 90
8, 69360, Note_on_c, 6, 63, 0
8, 69360, Note_on_c, 6, 63, 90
8, 69480, Note_on_c, 6, 63, 0
8, 69480, Note_on_c, 6, 63, 90
8, 69600, Note_on_c, 6, 63, 0
8, 69600, Note_on_c, 6, 63, 90
8, 69720, Note_on_c, 6, 63, 0
8, 69720, Note_on_c, 6, 63, 90
8, 69840, Note_on_c, 6, 63, 0
8, 69840, Note_on_c, 6, 63, 90
8, 69960, Note_on_c, 6, 63, 0
8, 69960, Note_on_c, 6, 63, 90
8, 70080, Note_on_c, 6, 63, 0
8, 70080, Note_on_c, 6, 60, 90
8, 70200, Note_on_c, 6, 60, 0
8, 70200, Note_on_c, 6, 66, 90
8, 70320, Note_on_c, 6, 66, 0
8, 70320, Note_on_c, 6, 66, 90
8, 70440, Note_on_c, 6, 66, 0
8, 70440, Note_on_c, 6, 66, 90
8, 70560, Note_on_c, 6, 66, 0
8, 70560, Note_on_c, 6, 66, 90
8, 70680, Note_on_c, 6, 66, 0
8, 70680, Note_on_c, 6, 66, 90
8, 70800, Note_on_c, 6, 66, 0
8, 70800, Note_on_c, 6, 66, 90
8, 70920, Note_on_c, 6, 66, 0
8, 70920, Note_on_c, 6, 66, 90
8, 71040, Note_on_c, 6, 66, 0
8, 71040, Note_on_c, 6, 62, 90
8, 71160, Note_on_c, 6, 62, 0
8, 71160, Note_on_c, 6, 67, 90
8, 71280, Note_on_c, 6, 67, 0
8, 71280, Note_on_c, 6, 67, 90
8, 71400, Note_on_c, 6, 67, 0
8, 71400, Note_on_c, 6, 67, 90
8, 71520, Note_on_c, 6, 67, 0
8, 71520, Note_on_c, 6, 67, 90
8, 71640, Note_on_c, 6, 67, 0
8, 71640, Note_on_c, 6, 67, 90
8, 71760, Note_on_c, 6, 67, 0
8, 71760, Note_on_c, 6, 67, 90
8, 71880, Note_on_c, 6, 67, 0
8, 71880, Note_on_c, 6, 67, 90
8, 72000, Note_on_c, 6, 67, 0
8, 72000, Note_on_c, 6, 60, 90
8, 72120, Note_on_c, 6, 60, 0
8, 72120, Note_on_c, 6, 65, 90
8, 72240, Note_on_c, 6, 65, 0
8, 72240, Note_on_c, 6, 65, 90
8, 72360, Note_on_c, 6, 65, 0
8, 72360, Note_on_c, 6, 65, 90
8, 72480, Note_on_c, 6, 65, 0
8, 72480, Note_on_c, 6, 65, 90
8, 72600, Note_on_c, 6, 65, 0
8, 72600, Note_on_c, 6, 65, 90
8, 72720, Note_on_c, 6, 65, 0
8, 72720, Note_on_c, 6, 65, 90
8, 72840, Note_on_c, 6, 65, 0
8, 72840, Note_on_c, 6, 65, 90
8, 72960, Note_on_c, 6, 65, 0
8, 72960, Note_on_c, 6, 58, 90
8, 73080, Note_on_c, 6, 58, 0
8, 73080, Note_on_c, 6, 63, 90
8, 73200, Note_on_c, 6, 63, 0
8, 73200, Note_on_c, 6, 63, 90
8, 73320, Note_on_c, 6, 63, 0
8, 73320, Note_on_c, 6, 63, 90
8, 73440, Note_on_c, 6, 63, 0
8, 73440, Note_on_c, 6, 63, 90
8, 73560, Note_on_c, 6, 63, 0
8, 73560, Note_on_c, 6, 63, 90
8, 73680, Note_on_c, 6, 63, 0
8, 73680, Note_on_c, 6, 63, 90
8, 73800, Note_on_c, 6, 63, 0
8, 73800, Note_on_c, 6, 63, 90
8, 73920, Note_on_c, 6, 63, 0
8, 73920, Note_on_c, 6, 59, 90
8, 74040, Note_on_c, 6, 59, 0
8, 74040, Note_on_c, 6, 62, 90
8, 74160, Note_on_c, 6, 62, 0
8, 74160, Note_on_c, 6, 62, 90
8, 74280, Note_on_c, 6, 62, 0
8, 74280, Note_on_c, 6, 62, 90
8, 74400, Note_on_c, 6, 62, 0
8, 74400, Note_on_c, 6, 62, 90
8, 74520, Note_on_c, 6, 62, 0
8, 74520, Note_on_c, 6, 62, 90
8, 74640, Note_on_c, 6, 62, 0
8, 74640, Note_on_c, 6, 62, 90
8, 74760, Note_on_c, 6, 62, 0
8, 74760, Note_on_c, 6, 62, 90
8, 74880, Note_on_c, 6, 62, 0
8, 74880, Note_on_c, 6, 57, 90
8, 75000, Note_on_c, 6, 57, 0
8, 75000, Note_on_c, 6, 62, 90
8, 75120, Note_on_c, 6, 62, 0
8, 75120, Note_on_c, 6, 62, 90
8, 75240, Note_on_c, 6, 62, 0
8, 75240, Note_on_c, 6, 62, 90
8, 75360, Note_on_c, 6, 62, 0
8, 75360, Note_on_c, 6, 57, 90
8, 75480, Note_on_c, 6, 57, 0
8, 75480, Note_on_c, 6, 61, 90
8, 75600, Note_on_c, 6, 61, 0
8, 75600, Note_on_c, 6, 61, 90
8, 75720, Note_on_c, 6, 61, 0
8, 75720, Note_on_c, 6, 61, 90
8, 75840, Note_on_c, 6, 61, 0
8, 75840, Note_on_c, 6, 57, 90
8, 76560, Note_on_c, 6, 57, 0
8, 76560, Note_on_c, 6, 57, 90
8, 76800, Note_on_c, 6, 57, 0
8, 76800, Note_on_c, 6, 56, 90
8, 77040, Note_on_c, 6, 56, 0
8, 77040, Note_on_c, 6, 57, 90
8, 77280, Note_on_c, 6, 57, 0
8, 77280, Note_on_c, 6, 56, 90
8, 77520, Note_on_c, 6, 56, 0
8, 77520, Note_on_c, 6, 57, 90
8, 77760, Note_on_c, 6, 57, 0
8, 77760, Note_on_c, 6, 56, 90
8, 78000, Note_on_c, 6, 56, 0
8, 78000, Note_on_c, 6, 57, 90
8, 78240, Note_on_c, 6, 57, 0
8, 78240, Note_on_c, 6, 56, 90
8, 78480, Note_on_c, 6, 56, 0
8, 78480, Note_on_c, 6, 57, 90
8, 78720, Note_on_c, 6, 57, 0
8, 78720, Note_on_c, 6, 58, 90
8, 79200, Note_on_c, 6, 58, 0
8, 79200, Note_on_c, 6, 57, 90
8, 79680, Note_on_c, 6, 57, 0
8, 79680, Note_on_c, 6, 64, 90
8, 80400, Note_on_c, 6, 64, 0
8, 80400, Note_on_c, 6, 64, 90
8, 80640, Note_on_c, 6, 64, 0
8, 80640, Note_on_c, 6, 65, 90
8, 81120, Note_on_c, 6, 65, 0
8, 81120, Note_on_c, 6, 64, 90
8, 81600, Note_on_c, 6, 64, 0
8, 81600, Note_on_c, 6, 64, 90
8, 82320, Note_on_c, 6, 64, 0
8, 82320, Note_on_c, 6, 64, 90
8, 82560, Note_on_c, 6, 64, 0
8, 82560, Note_on_c, 6, 65, 90
8, 83040, Note_on_c, 6, 65, 0
8, 83040, Note_on_c, 6, 64, 90
8, 83520, Note_on_c, 6, 64, 0
8, 83520, Note_on_c, 6, 57, 90
8, 84240, Note_on_c, 6, 57, 0
8, 84240, Note_on_c, 6, 57, 90
8, 84480, Note_on_c, 6, 57, 0
8, 84480, Note_on_c, 6, 56, 90
8, 84720, Note_on_c, 6, 56, 0
8, 84720, Note_on_c, 6, 57, 90
8, 84960, Note_on_c, 6, 57, 0
8, 84960, Note_on_c, 6, 56, 90
8, 85200, Note_on_c, 6, 56, 0
8, 85200, Note_on_c, 6, 57, 90
8, 85440, Note_on_c, 6, 57, 0
8, 85440, Note_on_c, 6, 56, 90
8, 85680, Note_on_c, 6, 56, 0
8, 85680, Note_on_c, 6, 57, 90
8, 85920, Note_on_c, 6, 57, 0
8, 85920, Note_on_c, 6, 56, 90
8, 86160, Note_on_c, 6, 56, 0
8, 86160, Note_on_c, 6, 57, 90
8, 86400, Note_on_c, 6, 57, 0
8, 86400, Note_on_c, 6, 58, 90
8, 86880, Note_on_c, 6, 58, 0
8, 86880, Note_on_c, 6, 57, 90
8, 87360, Note_on_c, 6, 57, 0
8, 87360, Note_on_c, 6, 61, 90
8, 88080, Note_on_c, 6, 61, 0
8, 88080, Note_on_c, 6, 61, 90
8, 88320, Note_on_c, 6, 61, 0
8, 88320, Note_on_c, 6, 62, 90
8, 88800, Note_on_c, 6, 62, 0
8, 88800, Note_on_c, 6, 61, 90
8, 89280, Note_on_c, 6, 61, 0
8, 89280, Note_on_c, 6, 61, 90
8, 90000, Note_on_c, 6, 61, 0
8, 90000, Note_on_c, 6, 61, 90
8, 90240, Note_on_c, 6, 61, 0
8, 90240, Note_on_c, 6, 62, 90
8, 90720, Note_on_c, 6, 62, 0
8, 90720, Note_on_c, 6, 61, 90
8, 91200, Note_on_c, 6, 61, 0
8, 91200, Note_on_c, 6, 57, 90
8, 91920, Note_on_c, 6, 57, 0
8, 91920, Note_on_c, 6, 57, 90
8, 92160, Note_on_c, 6, 57, 0
8, 92160, Note_on_c, 6, 56, 90
8, 92400, Note_on_c, 6, 56, 0
8, 92400, Note_on_c, 6, 57, 90
8, 92640, Note_on_c, 6, 57, 0
8, 92640, Note_on_c, 6, 56, 90
8, 92880, Note_on_c, 6, 56, 0
8, 92880, Note_on_c, 6, 57, 90
8, 93120, Note_on_c, 6, 57, 0
8, 93120, Note_on_c, 6, 56, 90
8, 93360, Note_on_c, 6, 56, 0
8, 93360, Note_on_c, 6, 57, 90
8, 93600, Note_on_c, 6, 57, 0
8, 93600, Note_on_c, 6, 56, 90
8, 93840, Note_on_c, 6, 56, 0
8, 93840, Note_on_c, 6, 57, 90
8, 94080, Note_on_c, 6, 57, 0
8, 94080, Note_on_c, 6, 58, 90
8, 94320, Note_on_c, 6, 58, 0
8, 94320, Note_on_c, 6, 58, 90
8, 94560, Note_on_c, 6, 58, 0
8, 94560, Note_on_c, 6, 58, 90
8, 94800, Note_on_c, 6, 58, 0
8, 94800, Note_on_c, 6, 58, 90
8, 95040, Note_on_c, 6, 58, 0
8, 95040, Note_on_c, 6, 58, 90
8, 95280, Note_on_c, 6, 58, 0
8, 95280, Note_on_c, 6, 58, 90
8, 95520, Note_on_c, 6, 58, 0
8, 95520, Note_on_c, 6, 58, 90
8, 95760, Note_on_c, 6, 58, 0
8, 95760, Note_on_c, 6, 58, 90
8, 96000, Note_on_c, 6, 58, 0
8, 96000, Note_on_c, 6, 63, 90
8, 96240, Note_on_c, 6, 63, 0
8, 96240, Note_on_c, 6, 62, 90
8, 96480, Note_on_c, 6, 62, 0
8, 96480, Note_on_c, 6, 63, 90
8, 96720, Note_on_c, 6, 63, 0
8, 96720, Note_on_c, 6, 62, 90
8, 96960, Note_on_c, 6, 62, 0
8, 96960, Note_on_c, 6, 63, 90
8, 97200, Note_on_c, 6, 63, 0
8, 97200, Note_on_c, 6, 62, 90
8, 97440, Note_on_c, 6, 62, 0
8, 97440, Note_on_c, 6, 63, 90
8, 97680, Note_on_c, 6, 63, 0
8, 97680, Note_on_c, 6, 62, 90
8, 97920, Note_on_c, 6, 62, 0
8, 97920, Note_on_c, 6, 61, 90
8, 98400, Note_on_c, 6, 61, 0
8, 98400, Note_on_c, 6, 64, 90
8, 98880, Note_on_c, 6, 64, 0
8, 99360, Note_on_c, 6, 64, 90
8, 99600, Note_on_c, 6, 64, 0
8, 99600, Note_on_c, 6, 64, 90
8, 99840, Note_on_c, 6, 64, 0
8, 99840, Note_on_c, 6, 65, 90
8, 99960, Note_on_c, 6, 65, 0
8, 99960, Note_on_c, 6, 65, 90
8, 100080, Note_on_c, 6, 65, 0
8, 100080, Note_on_c, 6, 65, 90
8, 100200, Note_on_c, 6, 65, 0
8, 100200, Note_on_c, 6, 65, 90
8, 100320, Note_on_c, 6, 65, 0
8, 100320, Note_on_c, 6, 64, 90
8, 100440, Note_on_c, 6, 64, 0
8, 100440, Note_on_c, 6, 64, 90
8, 100560, Note_on_c, 6, 64, 0
8, 100560, Note_on_c, 6, 64, 90
8, 100680, Note_on_c, 6, 64, 0
8, 100680, Note_on_c, 6, 64, 90
8, 100800, Note_on_c, 6, 64, 0
8, 100800, Note_on_c, 6, 65, 90
8, 100920, Note_on_c, 6, 65, 0
8, 100920, Note_on_c, 6, 65, 90
8, 101040, Note_on_c, 6, 65, 0
8, 101040, Note_on_c, 6, 65, 90
8, 101160, Note_on_c, 6, 65, 0
8, 101160, Note_on_c, 6, 65, 90
8, 101280, Note_on_c, 6, 65, 0
8, 101280, Note_on_c, 6, 64, 90
8, 101400, Note_on_c, 6, 64, 0
8, 101400, Note_on_c, 6, 64, 90
8, 101520, Note_on_c, 6, 64, 0
8, 101520, Note_on_c, 6, 64, 90
8, 101640, Note_on_c, 6, 64, 0
8, 101640, Note_on_c, 6, 64, 90
8, 101760, Note_on_c, 6, 64, 0
8, 101760, Note_on_c, 6, 65, 90
8, 101880, Note_on_c, 6, 65, 0
8, 101880, Note_on_c, 6, 65, 90
8, 102000, Note_on_c, 6, 65, 0
8, 102000, Note_on_c, 6, 65, 90
8, 102120, Note_on_c, 6, 65, 0
8, 102120, Note_on_c, 6, 65, 90
8, 102240, Note_on_c, 6, 65, 0
8, 102240, Note_on_c, 6, 64, 90
8, 102720, Note_on_c, 6, 64, 0
8, 103200, Note_on_c, 6, 62, 90
8, 103440, Note_on_c, 6, 62, 0
8, 103440, Note_on_c, 6, 62, 90
8, 103680, Note_on_c, 6, 62, 0
8, 103680, Note_on_c, 6, 64, 90
8, 103800, Note_on_c, 6, 64, 0
8, 103800, Note_on_c, 6, 64, 90
8, 103920, Note_on_c, 6, 64, 0
8, 103920, Note_on_c, 6, 64, 90
8, 104040, Note_on_c, 6, 64, 0
8, 104040, Note_on_c, 6, 64, 90
8, 104160, Note_on_c, 6, 64, 0
8, 104160, Note_on_c, 6, 62, 90
8, 104280, Note_on_c, 6, 62, 0
8, 104280, Note_on_c, 6, 62, 90
8, 104400, Note_on_c, 6, 62, 0
8, 104400, Note_on_c, 6, 62, 90
8, 104520, Note_on_c, 6, 62, 0
8, 104520, Note_on_c, 6, 62, 90
8, 104640, Note_on_c, 6, 62, 0
8, 104640, Note_on_c, 6, 64, 90
8, 104760, Note_on_c, 6, 64, 0
8, 104760, Note_on_c, 6, 64, 90
8, 104880, Note_on_c, 6, 64, 0
8, 104880, Note_on_c, 6, 64, 90
8, 105000, Note_on_c, 6, 64, 0
8, 105000, Note_on_c, 6, 64, 90
8, 105120, Note_on_c, 6, 64, 0
8, 105120, Note_on_c, 6, 62, 90
8, 105240, Note_on_c, 6, 62, 0
8, 105240, Note_on_c, 6, 62, 90
8, 105360, Note_on_c, 6, 62, 0
8, 105360, Note_on_c, 6, 62, 90
8, 105480, Note_on_c, 6, 62, 0
8, 105480, Note_on_c, 6, 62, 90
8, 105600, Note_on_c, 6, 62, 0
8, 105600, Note_on_c, 6, 64, 90
8, 105720, Note_on_c, 6, 64, 0
8, 105720, Note_on_c, 6, 64, 90
8, 105840, Note_on_c, 6, 64, 0
8, 105840, Note_on_c, 6, 64, 90
8, 105960, Note_on_c, 6, 64, 0
8, 105960, Note_on_c, 6, 64, 90
8, 106080, Note_on_c, 6, 64, 0
8, 106080, Note_on_c, 6, 62, 90
8, 106320, Note_on_c, 6, 62, 0
8, 106320, Note_on_c, 6, 69, 90
8, 106560, Note_on_c, 6, 69, 0
8, 106560, Note_on_c, 6, 65, 90
8, 106800, Note_on_c, 6, 65, 0
8, 106800, Note_on_c, 6, 62, 90
8, 107040, Note_on_c, 6, 62, 0
8, 107040, Note_on_c, 6, 65, 90
8, 107280, Note_on_c, 6, 65, 0
8, 107280, Note_on_c, 6, 69, 90
8, 107520, Note_on_c, 6, 69, 0
8, 107520, Note_on_c, 6, 62, 90
8, 107760, Note_on_c, 6, 62, 0
8, 107760, Note_on_c, 6, 65, 90
8, 108000, Note_on_c, 6, 65, 0
8, 108000, Note_on_c, 6, 69, 90
8, 108240, Note_on_c, 6, 69, 0
8, 108240, Note_on_c, 6, 74, 90
8, 108480, Note_on_c, 6, 74, 0
8, 108480, Note_on_c, 6, 62, 90
8, 108720, Note_on_c, 6, 62, 0
8, 108720, Note_on_c, 6, 65, 90
8, 108960, Note_on_c, 6, 65, 0
8, 108960, Note_on_c, 6, 69, 90
8, 109200, Note_on_c, 6, 69, 0
8, 109200, Note_on_c, 6, 74, 90
8, 109440, Note_on_c, 6, 74, 0
8, 109440, Note_on_c, 6, 53, 90
8, 109680, Note_on_c, 6, 53, 0
8, 109680, Note_on_c, 6, 57, 90
8, 109920, Note_on_c, 6, 57, 0
8, 109920, Note_on_c, 6, 62, 90
8, 110160, Note_on_c, 6, 62, 0
8, 110160, Note_on_c, 6, 65, 90
8, 110400, Note_on_c, 6, 65, 0
8, 110400, Note_on_c, 6, 53, 90
8, 110640, Note_on_c, 6, 53, 0
8, 110640, Note_on_c, 6, 57, 90
8, 110880, Note_on_c, 6, 57, 0
8, 110880, Note_on_c, 6, 62, 90
8, 111120, Note_on_c, 6, 62, 0
8, 111120, Note_on_c, 6, 65, 90
8, 111360, Note_on_c, 6, 65, 0
8, 111360, Note_on_c, 6, 58, 90
8, 111600, Note_on_c, 6, 58, 0
8, 111600, Note_on_c, 6, 62, 90
8, 111840, Note_on_c, 6, 62, 0
8, 111840, Note_on_c, 6, 65, 90
8, 112080, Note_on_c, 6, 65, 0
8, 112080, Note_on_c, 6, 70, 90
8, 112320, Note_on_c, 6, 70, 0
8, 112320, Note_on_c, 6, 52, 90
8, 112560, Note_on_c, 6, 52, 0
8, 112560, Note_on_c, 6, 55, 90
8, 112800, Note_on_c, 6, 55, 0
8, 112800, Note_on_c, 6, 58, 90
8, 113040, Note_on_c, 6, 58, 0
8, 113040, Note_on_c, 6, 64, 90
8, 113280, Note_on_c, 6, 64, 0
8, 113280, Note_on_c, 6, 57, 90
8, 113520, Note_on_c, 6, 57, 0
8, 113520, Note_on_c, 6, 69, 90
8, 113760, Note_on_c, 6, 69, 0
8, 113760, Note_on_c, 6, 62, 90
8, 114000, Note_on_c, 6, 62, 0
8, 114000, Note_on_c, 6, 65, 90
8, 114240, Note_on_c, 6, 65, 0
8, 114240, Note_on_c, 6, 69, 90
8, 114480, Note_on_c, 6, 69, 0
8, 114480, Note_on_c, 6, 67, 90
8, 114720, Note_on_c, 6, 67, 0
8, 114720, Note_on_c, 6, 69, 90
8, 114960, Note_on_c, 6, 69, 0
8, 114960, Note_on_c, 6, 57, 90
8, 115200, Note_on_c, 6, 57, 0
8, 115200, Note_on_c, 6, 62, 90
8, 115440, Note_on_c, 6, 62, 0
8, 115440, Note_on_c, 6, 65, 90
8, 115680, Note_on_c, 6, 65, 0
8, 115680, Note_on_c, 6, 69, 90
8, 115920, Note_on_c, 6, 69, 0
8, 115920, Note_on_c, 6, 74, 90
8, 116160, Note_on_c, 6, 74, 0
8, 116160, Note_on_c, 6, 62, 90
8, 116400, Note_on_c, 6, 62, 0
8, 116400, Note_on_c, 6, 65, 90
8, 116640, Note_on_c, 6, 65, 0
8, 116640, Note_on_c, 6, 69, 90
8, 116880, Note_on_c, 6, 69, 0
8, 116880, Note_on_c, 6, 74, 90
8, 117120, Note_on_c, 6, 74, 0
8, 117120, Note_on_c, 6, 58, 90
8, 117360, Note_on_c, 6, 58, 0
8, 117360, Note_on_c, 6, 62, 90
8, 117600, Note_on_c, 6, 62, 0
8, 117600, Note_on_c, 6, 65, 90
8, 117840, Note_on_c, 6, 65, 0
8, 117840, Note_on_c, 6, 70, 90
8, 118080, Note_on_c, 6, 70, 0
8, 118080, Note_on_c, 6, 58, 90
8, 118320, Note_on_c, 6, 58, 0
8, 118320, Note_on_c, 6, 62, 90
8, 118560, Note_on_c, 6, 62, 0
8, 118560, Note_on_c, 6, 65, 90
8, 118800, Note_on_c, 6, 65, 0
8, 118800, Note_on_c, 6, 70, 90
8, 119040, Note_on_c, 6, 70, 0
8, 119040, Note_on_c, 6, 55, 90
8, 119280, Note_on_c, 6, 55, 0
8, 119280, Note_on_c, 6, 58, 90
8, 119520, Note_on_c, 6, 58, 0
8, 119520, Note_on_c, 6, 63, 90
8, 119760, Note_on_c, 6, 63, 0
8, 119760, Note_on_c, 6, 67, 90
8, 120000, Note_on_c, 6, 67, 0
8, 120000, Note_on_c, 6, 55, 90
8, 120240, Note_on_c, 6, 55, 0
8, 120240, Note_on_c, 6, 58, 90
8, 120480, Note_on_c, 6, 58, 0
8, 120480, Note_on_c, 6, 63, 90
8, 120720, Note_on_c, 6, 63, 0
8, 120720, Note_on_c, 6, 67, 90
8, 120960, Note_on_c, 6, 67, 0
8, 120960, Note_on_c, 6, 57, 90
8, 121200, Note_on_c, 6, 57, 0
8, 121200, Note_on_c, 6, 69, 90
8, 121440, Note_on_c, 6, 69, 0
8, 121440, Note_on_c, 6, 62, 90
8, 121680, Note_on_c, 6, 62, 0
8, 121680, Note_on_c, 6, 65, 90
8, 121920, Note_on_c, 6, 65, 0
8, 121920, Note_on_c, 6, 69, 90
8, 122160, Note_on_c, 6, 69, 0
8, 122160, Note_on_c, 6, 67, 90
8, 122400, Note_on_c, 6, 67, 0
8, 122400, Note_on_c, 6, 69, 90
8, 122640, Note_on_c, 6, 69, 0
8, 122640, Note_on_c, 6, 57, 90
8, 122880, Note_on_c, 6, 57, 0
8, 122880, Note_on_c, 6, 62, 90
8, 123360, Note_on_c, 6, 62, 0
8, 123600, Note_on_c, 6, 57, 90
8, 123840, Note_on_c, 6, 57, 0
8, 123840, Note_on_c, 6, 58, 90
8, 124080, Note_on_c, 6, 58, 0
8, 124080, Note_on_c, 6, 62, 90
8, 124320, Note_on_c, 6, 62, 0
8, 124320, Note_on_c, 6, 59, 90
8, 124560, Note_on_c, 6, 59, 0
8, 124560, Note_on_c, 6, 56, 90
8, 124800, Note_on_c, 6, 56, 0
8, 124800, Note_on_c, 6, 57, 90
8, 125040, Note_on_c, 6, 57, 0
8, 125040, Note_on_c, 6, 58, 90
8, 125280, Note_on_c, 6, 58, 0
8, 125280, Note_on_c, 6, 67, 90
8, 125520, Note_on_c, 6, 67, 0
8, 125520, Note_on_c, 6, 65, 90
8, 125760, Note_on_c, 6, 65, 0
8, 125760, Note_on_c, 6, 64, 90
8, 126000, Note_on_c, 6, 64, 0
8, 126000, Note_on_c, 6, 62, 90
8, 126240, Note_on_c, 6, 62, 0
8, 126240, Note_on_c, 6, 61, 90
8, 126480, Note_on_c, 6, 61, 0
8, 126480, Note_on_c, 6, 69, 90
8, 126720, Note_on_c, 6, 69, 0
8, 126720, Note_on_c, 6, 69, 90
8, 126840, Note_on_c, 6, 69, 0
8, 126840, Note_on_c, 6, 69, 90
8, 126960, Note_on_c, 6, 69, 0
8, 126960, Note_on_c, 6, 69, 90
8, 127080, Note_on_c, 6, 69, 0
8, 127080, Note_on_c, 6, 69, 90
8, 127200, Note_on_c, 6, 69, 0
8, 127200, Note_on_c, 6, 70, 90
8, 127320, Note_on_c, 6, 70, 0
8, 127320, Note_on_c, 6, 70, 90
8, 127440, Note_on_c, 6, 70, 0
8, 127440, Note_on_c, 6, 70, 90
8, 127560, Note_on_c, 6, 70, 0
8, 127560, Note_on_c, 6, 70, 90
8, 127680, Note_on_c, 6, 70, 0
8, 127680, Note_on_c, 6, 69, 90
8, 127920, Note_on_c, 6, 69, 0
8, 127920, Note_on_c, 6, 67, 90
8, 128160, Note_on_c, 6, 67, 0
8, 128160, Note_on_c, 6, 69, 90
8, 128400, Note_on_c, 6, 69, 0
8, 128400, Note_on_c, 6, 57, 90
8, 128640, Note_on_c, 6, 57, 0
8, 128640, Note_on_c, 6, 62, 90
8, 129120, Note_on_c, 6, 62, 0
8, 129120, Note_on_c, 6, 50, 90
8, 129600, Note_on_c, 6, 50, 0
8, 129600, End_track
9, 0, Start_track
9, 0, MIDI_port, 0
9, 0, Title_t, "Track 8"
9, 0, Program_c, 7, 52
9, 0, Control_c, 7, 7, 127
9, 0, Control_c, 7, 10, 50
9, 26, Control_c, 7, 91, 90
9, 40, Note_on_c, 7, 74, 100
9, 960, Note_on_c, 7, 69, 100
9, 1000, Note_on_c, 7, 74, 0
9, 1920, Note_on_c, 7, 69, 0
9, 1920, Note_on_c, 7, 76, 100
9, 2400, Note_on_c, 7, 76, 0
9, 2400, Note_on_c, 7, 69, 100
9, 2880, Note_on_c, 7, 69, 0
9, 3840, Note_on_c, 7, 76, 100
9, 4800, Note_on_c, 7, 76, 0
9, 4800, Note_on_c, 7, 69, 100
9, 5760, Note_on_c, 7, 69, 0
9, 5760, Note_on_c, 7, 77, 100
9, 6240, Note_on_c, 7, 77, 0
9, 6240, Note_on_c, 7, 74, 100
9, 6720, Note_on_c, 7, 74, 0
9, 7200, Note_on_c, 7, 74, 100
9, 7440, Note_on_c, 7, 74, 0
9, 7440, Note_on_c, 7, 74, 100
9, 7680, Note_on_c, 7, 74, 0
9, 7680, Note_on_c, 7, 73, 100
9, 8160, Note_on_c, 7, 73, 0
9, 8160, Note_on_c, 7, 74, 100
9, 8640, Note_on_c, 7, 74, 0
9, 9120, Note_on_c, 7, 74, 100
9, 9360, Note_on_c, 7, 74, 0
9, 9360, Note_on_c, 7, 74, 100
9, 9600, Note_on_c, 7, 74, 0
9, 9600, Note_on_c, 7, 76, 100
9, 10080, Note_on_c, 7, 76, 0
9, 10080, Note_on_c, 7, 77, 100
9, 10560, Note_on_c, 7, 77, 0
9, 10560, Note_on_c, 7, 74, 100
9, 11280, Note_on_c, 7, 74, 0
9, 11280, Note_on_c, 7, 74, 100
9, 11520, Note_on_c, 7, 74, 0
9, 11520, Note_on_c, 7, 79, 100
9, 12000, Note_on_c, 7, 79, 0
9, 12000, Note_on_c, 7, 77, 100
9, 12480, Note_on_c, 7, 77, 0
9, 12480, Note_on_c, 7, 76, 100
9, 12960, Note_on_c, 7, 76, 0
9, 12960, Note_on_c, 7, 74, 100
9, 13440, Note_on_c, 7, 74, 0
9, 13440, Note_on_c, 7, 74, 100
9, 13920, Note_on_c, 7, 74, 0
9, 13920, Note_on_c, 7, 73, 100
9, 14400, Note_on_c, 7, 73, 0
9, 17280, Note_on_c, 7, 77, 100
9, 18720, Note_on_c, 7, 77, 0
9, 18720, Note_on_c, 7, 72, 100
9, 19200, Note_on_c, 7, 72, 0
9, 19200, Note_on_c, 7, 69, 100
9, 19680, Note_on_c, 7, 69, 0
9, 19680, Note_on_c, 7, 65, 100
9, 20160, Note_on_c, 7, 65, 0
9, 20160, Note_on_c, 7, 69, 100
9, 20640, Note_on_c, 7, 69, 0
9, 20640, Note_on_c, 7, 72, 100
9, 21120, Note_on_c, 7, 72, 0
9, 21120, Note_on_c, 7, 75, 100
9, 22080, Note_on_c, 7, 75, 0
9, 22080, Note_on_c, 7, 74, 100
9, 23040, Note_on_c, 7, 74, 0
9, 23040, Note_on_c, 7, 79, 100
9, 24480, Note_on_c, 7, 79, 0
9, 24480, Note_on_c, 7, 74, 100
9, 24960, Note_on_c, 7, 74, 0
9, 24960, Note_on_c, 7, 71, 100
9, 25440, Note_on_c, 7, 71, 0
9, 25440, Note_on_c, 7, 67, 100
9, 25920, Note_on_c, 7, 67, 0
9, 25920, Note_on_c, 7, 71, 100
9, 26400, Note_on_c, 7, 71, 0
9, 26400, Note_on_c, 7, 74, 100
9, 26880, Note_on_c, 7, 74, 0
9, 26880, Note_on_c, 7, 77, 100
9, 27840, Note_on_c, 7, 77, 0
9, 27840, Note_on_c, 7, 76, 100
9, 28800, Note_on_c, 7, 76, 0
9, 28800, Note_on_c, 7, 76, 100
9, 29760, Note_on_c, 7, 76, 0
9, 29760, Note_on_c, 7, 76, 100
9, 30720, Note_on_c, 7, 76, 0
9, 30720, Note_on_c, 7, 76, 100
9, 31680, Note_on_c, 7, 76, 0
9, 31680, Note_on_c, 7, 74, 100
9, 32640, Note_on_c, 7, 74, 0
9, 32640, Note_on_c, 7, 74, 100
9, 33120, Note_on_c, 7, 74, 0
9, 33120, Note_on_c, 7, 72, 100
9, 33600, Note_on_c, 7, 72, 0
9, 33600, Note_on_c, 7, 71, 100
9, 34560, Note_on_c, 7, 71, 0
9, 34560, Note_on_c, 7, 69, 100
9, 35040, Note_on_c, 7, 69, 0
9, 40320, Note_on_c, 7, 76, 100
9, 41280, Note_on_c, 7, 76, 0
9, 41280, Note_on_c, 7, 76, 100
9, 42240, Note_on_c, 7, 76, 0
9, 42240, Note_on_c, 7, 76, 100
9, 42720, Note_on_c, 7, 76, 0
9, 42720, Note_on_c, 7, 71, 100
9, 43200, Note_on_c, 7, 71, 0
9, 44160, Note_on_c, 7, 76, 100
9, 45120, Note_on_c, 7, 76, 0
9, 45120, Note_on_c, 7, 76, 100
9, 46080, Note_on_c, 7, 76, 0
9, 46080, Note_on_c, 7, 76, 100
9, 46560, Note_on_c, 7, 76, 0
9, 46560, Note_on_c, 7, 72, 100
9, 47040, Note_on_c, 7, 72, 0
9, 47520, Note_on_c, 7, 69, 100
9, 47760, Note_on_c, 7, 69, 0
9, 47760, Note_on_c, 7, 69, 100
9, 48000, Note_on_c, 7, 69, 0
9, 48000, Note_on_c, 7, 77, 100
9, 48480, Note_on_c, 7, 77, 0
9, 48480, Note_on_c, 7, 76, 100
9, 48960, Note_on_c, 7, 76, 0
9, 49440, Note_on_c, 7, 69, 100
9, 49680, Note_on_c, 7, 69, 0
9, 49680, Note_on_c, 7, 69, 100
9, 49920, Note_on_c, 7, 69, 0
9, 49920, Note_on_c, 7, 74, 100
9, 50400, Note_on_c, 7, 74, 0
9, 50400, Note_on_c, 7, 72, 100
9, 50880, Note_on_c, 7, 72, 0
9, 50880, Note_on_c, 7, 76, 100
9, 51600, Note_on_c, 7, 76, 0
9, 51600, Note_on_c, 7, 76, 100
9, 51840, Note_on_c, 7, 76, 0
9, 51840, Note_on_c, 7, 74, 100
9, 52320, Note_on_c, 7, 74, 0
9, 52320, Note_on_c, 7, 72, 100
9, 52800, Note_on_c, 7, 72, 0
9, 52800, Note_on_c, 7, 70, 100
9, 53280, Note_on_c, 7, 70, 0
9, 53280, Note_on_c, 7, 69, 100
9, 53760, Note_on_c, 7, 69, 0
9, 53760, Note_on_c, 7, 69, 100
9, 54240, Note_on_c, 7, 69, 0
9, 54240, Note_on_c, 7, 68, 100
9, 54720, Note_on_c, 7, 68, 0
9, 57600, Note_on_c, 7, 72, 100
9, 59040, Note_on_c, 7, 72, 0
9, 59040, Note_on_c, 7, 79, 100
9, 59520, Note_on_c, 7, 79, 0
9, 59520, Note_on_c, 7, 75, 100
9, 60000, Note_on_c, 7, 75, 0
9, 60000, Note_on_c, 7, 72, 100
9, 60480, Note_on_c, 7, 72, 0
9, 60480, Note_on_c, 7, 67, 100
9, 60960, Note_on_c, 7, 67, 0
9, 60960, Note_on_c, 7, 72, 100
9, 61440, Note_on_c, 7, 72, 0
9, 61440, Note_on_c, 7, 72, 100
9, 61920, Note_on_c, 7, 72, 0
9, 61920, Note_on_c, 7, 73, 100
9, 62400, Note_on_c, 7, 73, 0
9, 62400, Note_on_c, 7, 73, 100
9, 63360, Note_on_c, 7, 73, 0
9, 63360, Note_on_c, 7, 73, 100
9, 64800, Note_on_c, 7, 73, 0
9, 64800, Note_on_c, 7, 79, 100
9, 65280, Note_on_c, 7, 79, 0
9, 65280, Note_on_c, 7, 76, 100
9, 65760, Note_on_c, 7, 76, 0
9, 65760, Note_on_c, 7, 73, 100
9, 66240, Note_on_c, 7, 73, 0
9, 66240, Note_on_c, 7, 69, 100
9, 66720, Note_on_c, 7, 69, 0
9, 66720, Note_on_c, 7, 73, 100
9, 67200, Note_on_c, 7, 73, 0
9, 67200, Note_on_c, 7, 73, 100
9, 67680, Note_on_c, 7, 73, 0
9, 67680, Note_on_c, 7, 74, 100
9, 68160, Note_on_c, 7, 74, 0
9, 68160, Note_on_c, 7, 74, 100
9, 69120, Note_on_c, 7, 74, 0
9, 69120, Note_on_c, 7, 75, 100
9, 70080, Note_on_c, 7, 75, 0
9, 70080, Note_on_c, 7, 78, 100
9, 71040, Note_on_c, 7, 78, 0
9, 71040, Note_on_c, 7, 79, 100
9, 72000, Note_on_c, 7, 79, 0
9, 72000, Note_on_c, 7, 77, 100
9, 72960, Note_on_c, 7, 77, 0
9, 72960, Note_on_c, 7, 75, 100
9, 73920, Note_on_c, 7, 75, 0
9, 73920, Note_on_c, 7, 74, 100
9, 74880, Note_on_c, 7, 74, 0
9, 74880, Note_on_c, 7, 74, 100
9, 75360, Note_on_c, 7, 74, 0
9, 75360, Note_on_c, 7, 73, 100
9, 75840, Note_on_c, 7, 73, 0
9, 79680, Note_on_c, 7, 69, 100
9, 80400, Note_on_c, 7, 69, 0
9, 80400, Note_on_c, 7, 69, 100
9, 80640, Note_on_c, 7, 69, 0
9, 80640, Note_on_c, 7, 68, 100
9, 81120, Note_on_c, 7, 68, 0
9, 81120, Note_on_c, 7, 69, 100
9, 81600, Note_on_c, 7, 69, 0
9, 81600, Note_on_c, 7, 69, 100
9, 82320, Note_on_c, 7, 69, 0
9, 82320, Note_on_c, 7, 69, 100
9, 82560, Note_on_c, 7, 69, 0
9, 82560, Note_on_c, 7, 68, 100
9, 83040, Note_on_c, 7, 68, 0
9, 83040, Note_on_c, 7, 69, 100
9, 83520, Note_on_c, 7, 69, 0
9, 87360, Note_on_c, 7, 76, 100
9, 88080, Note_on_c, 7, 76, 0
9, 88080, Note_on_c, 7, 76, 100
9, 88320, Note_on_c, 7, 76, 0
9, 88320, Note_on_c, 7, 77, 100
9, 88800, Note_on_c, 7, 77, 0
9, 88800, Note_on_c, 7, 76, 100
9, 89280, Note_on_c, 7, 76, 0
9, 89280, Note_on_c, 7, 76, 100
9, 90000, Note_on_c, 7, 76, 0
9, 90000, Note_on_c, 7, 76, 100
9, 90240, Note_on_c, 7, 76, 0
9, 90240, Note_on_c, 7, 77, 100
9, 90720, Note_on_c, 7, 77, 0
9, 90720, Note_on_c, 7, 76, 100
9, 91200, Note_on_c, 7, 76, 0
9, 95040, Note_on_c, 7, 79, 100
9, 95760, Note_on_c, 7, 79, 0
9, 95760, Note_on_c, 7, 79, 100
9, 96000, Note_on_c, 7, 79, 0
9, 96000, Note_on_c, 7, 78, 100
9, 96240, Note_on_c, 7, 78, 0
9, 96240, Note_on_c, 7, 79, 100
9, 96480, Note_on_c, 7, 79, 0
9, 96480, Note_on_c, 7, 78, 100
9, 96720, Note_on_c, 7, 78, 0
9, 96720, Note_on_c, 7, 79, 100
9, 96960, Note_on_c, 7, 79, 0
9, 96960, Note_on_c, 7, 78, 100
9, 97200, Note_on_c, 7, 78, 0
9, 97200, Note_on_c, 7, 79, 100
9, 97440, Note_on_c, 7, 79, 0
9, 97440, Note_on_c, 7, 78, 100
9, 97680, Note_on_c, 7, 78, 0
9, 97680, Note_on_c, 7, 79, 100
9, 97920, Note_on_c, 7, 79, 0
9, 97920, Note_on_c, 7, 79, 100
9, 98400, Note_on_c, 7, 79, 0
9, 98400, Note_on_c, 7, 73, 100
9, 98880, Note_on_c, 7, 73, 0
9, 99360, Note_on_c, 7, 73, 100
9, 99600, Note_on_c, 7, 73, 0
9, 99600, Note_on_c, 7, 73, 100
9, 99840, Note_on_c, 7, 73, 0
9, 99840, Note_on_c, 7, 74, 100
9, 100320, Note_on_c, 7, 74, 0
9, 100320, Note_on_c, 7, 73, 100
9, 100800, Note_on_c, 7, 73, 0
9, 100800, Note_on_c, 7, 74, 100
9, 101280, Note_on_c, 7, 74, 0
9, 101280, Note_on_c, 7, 73, 100
9, 101760, Note_on_c, 7, 73, 0
9, 101760, Note_on_c, 7, 74, 100
9, 102240, Note_on_c, 7, 74, 0
9, 102240, Note_on_c, 7, 73, 100
9, 102720, Note_on_c, 7, 73, 0
9, 103200, Note_on_c, 7, 74, 100
9, 103440, Note_on_c, 7, 74, 0
9, 103440, Note_on_c, 7, 74, 100
9, 103680, Note_on_c, 7, 74, 0
9, 103680, Note_on_c, 7, 79, 100
9, 104160, Note_on_c, 7, 79, 0
9, 104160, Note_on_c, 7, 77, 100
9, 104640, Note_on_c, 7, 77, 0
9, 104640, Note_on_c, 7, 79, 100
9, 105120, Note_on_c, 7, 79, 0
9, 105120, Note_on_c, 7, 77, 100
9, 105600, Note_on_c, 7, 77, 0
9, 105600, Note_on_c, 7, 79, 100
9, 106080, Note_on_c, 7, 79, 0
9, 106080, Note_on_c, 7, 77, 100
9, 106560, Note_on_c, 7, 77, 0
9, 108000, Note_on_c, 7, 74, 100
9, 108960, Note_on_c, 7, 74, 0
9, 108960, Note_on_c, 7, 74, 100
9, 109440, Note_on_c, 7, 74, 0
9, 109440, Note_on_c, 7, 77, 100
9, 109920, Note_on_c, 7, 77, 0
9, 109920, Note_on_c, 7, 74, 100
9, 110400, Note_on_c, 7, 74, 0
9, 112320, Note_on_c, 7, 79, 100
9, 113040, Note_on_c, 7, 79, 0
9, 113040, Note_on_c, 7, 79, 100
9, 113280, Note_on_c, 7, 79, 0
9, 113280, Note_on_c, 7, 79, 100
9, 113760, Note_on_c, 7, 79, 0
9, 113760, Note_on_c, 7, 77, 100
9, 114240, Note_on_c, 7, 77, 0
9, 114240, Note_on_c, 7, 76, 100
9, 115200, Note_on_c, 7, 76, 0
9, 115200, Note_on_c, 7, 74, 100
9, 115680, Note_on_c, 7, 74, 0
9, 115680, Note_on_c, 7, 74, 100
9, 116640, Note_on_c, 7, 74, 0
9, 116640, Note_on_c, 7, 74, 100
9, 117120, Note_on_c, 7, 74, 0
9, 117120, Note_on_c, 7, 77, 100
9, 117600, Note_on_c, 7, 77, 0
9, 117600, Note_on_c, 7, 74, 100
9, 118080, Note_on_c, 7, 74, 0
9, 120000, Note_on_c, 7, 79, 100
9, 120720, Note_on_c, 7, 79, 0
9, 120720, Note_on_c, 7, 79, 100
9, 120960, Note_on_c, 7, 79, 0
9, 120960, Note_on_c, 7, 79, 100
9, 121440, Note_on_c, 7, 79, 0
9, 121440, Note_on_c, 7, 77, 100
9, 121920, Note_on_c, 7, 77, 0
9, 121920, Note_on_c, 7, 76, 100
9, 122880, Note_on_c, 7, 76, 0
9, 122880, Note_on_c, 7, 74, 100
9, 123360, Note_on_c, 7, 74, 0
9, 123360, End_track
10, 0, Start_track
10, 0, MIDI_port, 0
10, 0, Title_t, "Track 9"
10, 0, Program_c, 8, 52
10, 0, Control_c, 8, 7, 127
10, 0, Control_c, 8, 10, 60
10, 29, Control_c, 8, 91, 90
10, 40, Note_on_c, 8, 69, 100
10, 960, Note_on_c, 8, 69, 100
10, 1000, Note_on_c, 8, 69, 0
10, 1920, Note_on_c, 8, 69, 0
10, 1920, Note_on_c, 8, 69, 100
10, 2400, Note_on_c, 8, 69, 0
10, 2400, Note_on_c, 8, 69, 100
10, 2880, Note_on_c, 8, 69, 0
10, 3840, Note_on_c, 8, 69, 100
10, 4800, Note_on_c, 8, 69, 0
10, 4800, Note_on_c, 8, 69, 100
10, 5760, Note_on_c, 8, 69, 0
10, 5760, Note_on_c, 8, 69, 100
10, 6240, Note_on_c, 8, 69, 0
10, 6240, Note_on_c, 8, 69, 100
10, 6720, Note_on_c, 8, 69, 0
10, 7200, Note_on_c, 8, 69, 100
10, 7440, Note_on_c, 8, 69, 0
10, 7440, Note_on_c, 8, 69, 100
10, 7680, Note_on_c, 8, 69, 0
10, 7680, Note_on_c, 8, 67, 100
10, 8160, Note_on_c, 8, 67, 0
10, 8160, Note_on_c, 8, 69, 100
10, 8640, Note_on_c, 8, 69, 0
10, 9120, Note_on_c, 8, 69, 100
10, 9360, Note_on_c, 8, 69, 0
10, 9360, Note_on_c, 8, 69, 100
10, 9600, Note_on_c, 8, 69, 0
10, 9600, Note_on_c, 8, 69, 100
10, 10080, Note_on_c, 8, 69, 0
10, 10080, Note_on_c, 8, 69, 100
10, 10560, Note_on_c, 8, 69, 0
10, 11040, Note_on_c, 8, 69, 100
10, 11280, Note_on_c, 8, 69, 0
10, 11280, Note_on_c, 8, 69, 100
10, 11520, Note_on_c, 8, 69, 0
10, 11520, Note_on_c, 8, 67, 100
10, 12000, Note_on_c, 8, 67, 0
10, 12000, Note_on_c, 8, 69, 100
10, 12480, Note_on_c, 8, 69, 0
10, 12480, Note_on_c, 8, 70, 100
10, 12960, Note_on_c, 8, 70, 0
10, 12960, Note_on_c, 8, 69, 100
10, 13440, Note_on_c, 8, 69, 0
10, 13440, Note_on_c, 8, 69, 100
10, 13920, Note_on_c, 8, 69, 0
10, 13920, Note_on_c, 8, 69, 100
10, 14400, Note_on_c, 8, 69, 0
10, 17280, Note_on_c, 8, 69, 100
10, 18720, Note_on_c, 8, 69, 0
10, 18720, Note_on_c, 8, 69, 100
10, 19200, Note_on_c, 8, 69, 0
10, 19200, Note_on_c, 8, 65, 100
10, 19680, Note_on_c, 8, 65, 0
10, 19680, Note_on_c, 8, 60, 100
10, 20160, Note_on_c, 8, 60, 0
10, 20160, Note_on_c, 8, 65, 100
10, 20640, Note_on_c, 8, 65, 0
10, 20640, Note_on_c, 8, 69, 100
10, 21120, Note_on_c, 8, 69, 0
10, 21120, Note_on_c, 8, 72, 100
10, 22080, Note_on_c, 8, 72, 0
10, 22080, Note_on_c, 8, 69, 100
10, 23040, Note_on_c, 8, 69, 0
10, 23040, Note_on_c, 8, 62, 100
10, 24480, Note_on_c, 8, 62, 0
10, 24480, Note_on_c, 8, 67, 100
10, 24960, Note_on_c, 8, 67, 0
10, 24960, Note_on_c, 8, 62, 100
10, 25440, Note_on_c, 8, 62, 0
10, 25440, Note_on_c, 8, 62, 100
10, 25920, Note_on_c, 8, 62, 0
10, 25920, Note_on_c, 8, 67, 100
10, 26400, Note_on_c, 8, 67, 0
10, 26400, Note_on_c, 8, 71, 100
10, 26880, Note_on_c, 8, 71, 0
10, 26880, Note_on_c, 8, 74, 100
10, 27840, Note_on_c, 8, 74, 0
10, 27840, Note_on_c, 8, 71, 100
10, 28800, Note_on_c, 8, 71, 0
10, 28800, Note_on_c, 8, 69, 100
10, 29760, Note_on_c, 8, 69, 0
10, 29760, Note_on_c, 8, 68, 100
10, 30720, Note_on_c, 8, 68, 0
10, 30720, Note_on_c, 8, 69, 100
10, 31200, Note_on_c, 8, 69, 0
10, 31200, Note_on_c, 8, 72, 100
10, 32160, Note_on_c, 8, 72, 0
10, 32160, Note_on_c, 8, 71, 100
10, 32400, Note_on_c, 8, 71, 0
10, 32400, Note_on_c, 8, 69, 100
10, 32640, Note_on_c, 8, 69, 0
10, 32640, Note_on_c, 8, 68, 100
10, 33120, Note_on_c, 8, 68, 0
10, 33120, Note_on_c, 8, 69, 100
10, 33600, Note_on_c, 8, 69, 0
10, 33600, Note_on_c, 8, 69, 100
10, 34080, Note_on_c, 8, 69, 0
10, 34080, Note_on_c, 8, 68, 100
10, 34560, Note_on_c, 8, 68, 0
10, 34560, Note_on_c, 8, 69, 100
10, 35040, Note_on_c, 8, 69, 0
10, 40320, Note_on_c, 8, 72, 100
10, 41280, Note_on_c, 8, 72, 0
10, 41280, Note_on_c, 8, 72, 100
10, 42240, Note_on_c, 8, 72, 0
10, 42240, Note_on_c, 8, 71, 100
10, 42720, Note_on_c, 8, 71, 0
10, 42720, Note_on_c, 8, 71, 100
10, 43200, Note_on_c, 8, 71, 0
10, 44160, Note_on_c, 8, 71, 100
10, 45120, Note_on_c, 8, 71, 0
10, 45120, Note_on_c, 8, 71, 100
10, 46080, Note_on_c, 8, 71, 0
10, 46080, Note_on_c, 8, 69, 100
10, 46560, Note_on_c, 8, 69, 0
10, 46560, Note_on_c, 8, 69, 100
10, 47040, Note_on_c, 8, 69, 0
10, 47520, Note_on_c, 8, 69, 100
10, 47760, Note_on_c, 8, 69, 0
10, 47760, Note_on_c, 8, 69, 100
10, 48000, Note_on_c, 8, 69, 0
10, 48000, Note_on_c, 8, 69, 100
10, 48480, Note_on_c, 8, 69, 0
10, 48480, Note_on_c, 8, 69, 100
10, 48960, Note_on_c, 8, 69, 0
10, 49440, Note_on_c, 8, 69, 100
10, 49680, Note_on_c, 8, 69, 0
10, 49680, Note_on_c, 8, 69, 100
10, 49920, Note_on_c, 8, 69, 0
10, 49920, Note_on_c, 8, 68, 100
10, 50400, Note_on_c, 8, 68, 0
10, 50400, Note_on_c, 8, 69, 100
10, 50880, Note_on_c, 8, 69, 0
10, 51360, Note_on_c, 8, 64, 100
10, 51600, Note_on_c, 8, 64, 0
10, 51600, Note_on_c, 8, 64, 100
10, 51840, Note_on_c, 8, 64, 0
10, 51840, Note_on_c, 8, 69, 100
10, 52320, Note_on_c, 8, 69, 0
10, 52320, Note_on_c, 8, 67, 100
10, 52800, Note_on_c, 8, 67, 0
10, 52800, Note_on_c, 8, 65, 100
10, 53280, Note_on_c, 8, 65, 0
10, 53280, Note_on_c, 8, 64, 100
10, 53760, Note_on_c, 8, 64, 0
10, 53760, Note_on_c, 8, 64, 100
10, 54240, Note_on_c, 8, 64, 0
10, 54240, Note_on_c, 8, 64, 100
10, 54720, Note_on_c, 8, 64, 0
10, 57600, Note_on_c, 8, 67, 100
10, 59040, Note_on_c, 8, 67, 0
10, 59040, Note_on_c, 8, 67, 100
10, 59520, Note_on_c, 8, 67, 0
10, 59520, Note_on_c, 8, 67, 100
10, 60000, Note_on_c, 8, 67, 0
10, 60000, Note_on_c, 8, 67, 100
10, 60480, Note_on_c, 8, 67, 0
10, 60480, Note_on_c, 8, 67, 100
10, 60960, Note_on_c, 8, 67, 0
10, 60960, Note_on_c, 8, 67, 100
10, 61440, Note_on_c, 8, 67, 0
10, 61440, Note_on_c, 8, 67, 100
10, 62400, Note_on_c, 8, 67, 0
10, 62400, Note_on_c, 8, 67, 100
10, 63360, Note_on_c, 8, 67, 0
10, 63360, Note_on_c, 8, 67, 100
10, 64800, Note_on_c, 8, 67, 0
10, 64800, Note_on_c, 8, 64, 100
10, 65280, Note_on_c, 8, 64, 0
10, 65280, Note_on_c, 8, 67, 100
10, 65760, Note_on_c, 8, 67, 0
10, 65760, Note_on_c, 8, 67, 100
10, 66240, Note_on_c, 8, 67, 0
10, 66240, Note_on_c, 8, 64, 100
10, 66720, Note_on_c, 8, 64, 0
10, 66720, Note_on_c, 8, 69, 100
10, 67200, Note_on_c, 8, 69, 0
10, 67200, Note_on_c, 8, 69, 100
10, 68160, Note_on_c, 8, 69, 0
10, 68160, Note_on_c, 8, 69, 100
10, 69120, Note_on_c, 8, 69, 0
10, 69120, Note_on_c, 8, 70, 100
10, 70080, Note_on_c, 8, 70, 0
10, 70080, Note_on_c, 8, 72, 100
10, 70800, Note_on_c, 8, 72, 0
10, 70800, Note_on_c, 8, 69, 100
10, 71040, Note_on_c, 8, 69, 0
10, 71040, Note_on_c, 8, 67, 100
10, 72000, Note_on_c, 8, 67, 0
10, 72000, Note_on_c, 8, 69, 100
10, 72960, Note_on_c, 8, 69, 0
10, 72960, Note_on_c, 8, 70, 100
10, 73920, Note_on_c, 8, 70, 0
10, 73920, Note_on_c, 8, 71, 100
10, 74880, Note_on_c, 8, 71, 0
10, 74880, Note_on_c, 8, 69, 100
10, 75360, Note_on_c, 8, 69, 0
10, 75360, Note_on_c, 8, 69, 100
10, 75840, Note_on_c, 8, 69, 0
10, 79680, Note_on_c, 8, 64, 100
10, 80400, Note_on_c, 8, 64, 0
10, 80400, Note_on_c, 8, 64, 100
10, 80640, Note_on_c, 8, 64, 0
10, 80640, Note_on_c, 8, 65, 100
10, 81120, Note_on_c, 8, 65, 0
10, 81120, Note_on_c, 8, 64, 100
10, 81600, Note_on_c, 8, 64, 0
10, 81600, Note_on_c, 8, 64, 100
10, 82320, Note_on_c, 8, 64, 0
10, 82320, Note_on_c, 8, 64, 100
10, 82560, Note_on_c, 8, 64, 0
10, 82560, Note_on_c, 8, 65, 100
10, 83040, Note_on_c, 8, 65, 0
10, 83040, Note_on_c, 8, 64, 100
10, 83520, Note_on_c, 8, 64, 0
10, 87360, Note_on_c, 8, 69, 100
10, 88080, Note_on_c, 8, 69, 0
10, 88080, Note_on_c, 8, 69, 100
10, 88320, Note_on_c, 8, 69, 0
10, 88320, Note_on_c, 8, 68, 100
10, 88800, Note_on_c, 8, 68, 0
10, 88800, Note_on_c, 8, 69, 100
10, 89280, Note_on_c, 8, 69, 0
10, 89280, Note_on_c, 8, 69, 100
10, 90000, Note_on_c, 8, 69, 0
10, 90000, Note_on_c, 8, 69, 100
10, 90240, Note_on_c, 8, 69, 0
10, 90240, Note_on_c, 8, 68, 100
10, 90720, Note_on_c, 8, 68, 0
10, 90720, Note_on_c, 8, 69, 100
10, 91200, Note_on_c, 8, 69, 0
10, 95040, Note_on_c, 8, 67, 100
10, 95760, Note_on_c, 8, 67, 0
10, 95760, Note_on_c, 8, 67, 100
10, 96000, Note_on_c, 8, 67, 0
10, 96000, Note_on_c, 8, 69, 100
10, 96240, Note_on_c, 8, 69, 0
10, 96240, Note_on_c, 8, 70, 100
10, 96480, Note_on_c, 8, 70, 0
10, 96480, Note_on_c, 8, 69, 100
10, 96720, Note_on_c, 8, 69, 0
10, 96720, Note_on_c, 8, 70, 100
10, 96960, Note_on_c, 8, 70, 0
10, 96960, Note_on_c, 8, 69, 100
10, 97200, Note_on_c, 8, 69, 0
10, 97200, Note_on_c, 8, 70, 100
10, 97440, Note_on_c, 8, 70, 0
10, 97440, Note_on_c, 8, 69, 100
10, 97680, Note_on_c, 8, 69, 0
10, 97680, Note_on_c, 8, 70, 100
10, 97920, Note_on_c, 8, 70, 0
10, 97920, Note_on_c, 8, 64, 100
10, 98400, Note_on_c, 8, 64, 0
10, 98400, Note_on_c, 8, 69, 100
10, 98880, Note_on_c, 8, 69, 0
10, 99360, Note_on_c, 8, 69, 100
10, 99600, Note_on_c, 8, 69, 0
10, 99600, Note_on_c, 8, 69, 100
10, 99840, Note_on_c, 8, 69, 0
10, 99840, Note_on_c, 8, 69, 100
10, 100320, Note_on_c, 8, 69, 0
10, 100320, Note_on_c, 8, 69, 100
10, 100800, Note_on_c, 8, 69, 0
10, 100800, Note_on_c, 8, 69, 100
10, 101280, Note_on_c, 8, 69, 0
10, 101280, Note_on_c, 8, 69, 100
10, 101760, Note_on_c, 8, 69, 0
10, 101760, Note_on_c, 8, 69, 100
10, 102240, Note_on_c, 8, 69, 0
10, 102240, Note_on_c, 8, 69, 100
10, 102720, Note_on_c, 8, 69, 0
10, 103200, Note_on_c, 8, 69, 100
10, 103440, Note_on_c, 8, 69, 0
10, 103440, Note_on_c, 8, 69, 100
10, 103680, Note_on_c, 8, 69, 0
10, 103680, Note_on_c, 8, 69, 100
10, 104160, Note_on_c, 8, 69, 0
10, 104160, Note_on_c, 8, 69, 100
10, 104640, Note_on_c, 8, 69, 0
10, 104640, Note_on_c, 8, 69, 100
10, 105120, Note_on_c, 8, 69, 0
10, 105120, Note_on_c, 8, 69, 100
10, 105600, Note_on_c, 8, 69, 0
10, 105600, Note_on_c, 8, 69, 100
10, 106080, Note_on_c, 8, 69, 0
10, 106080, Note_on_c, 8, 69, 100
10, 106560, Note_on_c, 8, 69, 0
10, 108000, Note_on_c, 8, 65, 100
10, 108960, Note_on_c, 8, 65, 0
10, 108960, Note_on_c, 8, 65, 100
10, 109440, Note_on_c, 8, 65, 0
10, 109440, Note_on_c, 8, 69, 100
10, 109920, Note_on_c, 8, 69, 0
10, 109920, Note_on_c, 8, 65, 100
10, 110400, Note_on_c, 8, 65, 0
10, 112320, Note_on_c, 8, 70, 100
10, 113040, Note_on_c, 8, 70, 0
10, 113040, Note_on_c, 8, 70, 100
10, 113280, Note_on_c, 8, 70, 0
10, 113280, Note_on_c, 8, 69, 100
10, 113760, Note_on_c, 8, 69, 0
10, 113760, Note_on_c, 8, 69, 100
10, 114240, Note_on_c, 8, 69, 0
10, 114240, Note_on_c, 8, 69, 100
10, 115200, Note_on_c, 8, 69, 0
10, 115200, Note_on_c, 8, 69, 100
10, 115680, Note_on_c, 8, 69, 0
10, 115680, Note_on_c, 8, 65, 100
10, 116640, Note_on_c, 8, 65, 0
10, 116640, Note_on_c, 8, 65, 100
10, 117120, Note_on_c, 8, 65, 0
10, 117120, Note_on_c, 8, 74, 100
10, 117600, Note_on_c, 8, 74, 0
10, 117600, Note_on_c, 8, 70, 100
10, 118080, Note_on_c, 8, 70, 0
10, 120000, Note_on_c, 8, 70, 100
10, 120720, Note_on_c, 8, 70, 0
10, 120720, Note_on_c, 8, 70, 100
10, 120960, Note_on_c, 8, 70, 0
10, 120960, Note_on_c, 8, 69, 100
10, 121440, Note_on_c, 8, 69, 0
10, 121440, Note_on_c, 8, 69, 100
10, 121920, Note_on_c, 8, 69, 0
10, 121920, Note_on_c, 8, 69, 100
10, 122880, Note_on_c, 8, 69, 0
10, 122880, Note_on_c, 8, 69, 100
10, 123360, Note_on_c, 8, 69, 0
10, 123360, End_track
11, 0, Start_track
11, 0, MIDI_port, 0
11, 0, Title_t, "Track 10"
11, 0, Program_c, 10, 52
11, 0, Control_c, 10, 7, 127
11, 0, Control_c, 10, 10, 70
11, 32, Control_c, 10, 91, 90
11, 40, Note_on_c, 10, 65, 100
11, 960, Note_on_c, 10, 65, 100
11, 1000, Note_on_c, 10, 65, 0
11, 1920, Note_on_c, 10, 65, 0
11, 1920, Note_on_c, 10, 67, 100
11, 2400, Note_on_c, 10, 67, 0
11, 2400, Note_on_c, 10, 67, 100
11, 2880, Note_on_c, 10, 67, 0
11, 3840, Note_on_c, 10, 67, 100
11, 4800, Note_on_c, 10, 67, 0
11, 4800, Note_on_c, 10, 67, 100
11, 5760, Note_on_c, 10, 67, 0
11, 5760, Note_on_c, 10, 65, 100
11, 6240, Note_on_c, 10, 65, 0
11, 6240, Note_on_c, 10, 65, 100
11, 6720, Note_on_c, 10, 65, 0
11, 7200, Note_on_c, 10, 65, 100
11, 7440, Note_on_c, 10, 65, 0
11, 7440, Note_on_c, 10, 65, 100
11, 7680, Note_on_c, 10, 65, 0
11, 7680, Note_on_c, 10, 64, 100
11, 8160, Note_on_c, 10, 64, 0
11, 8160, Note_on_c, 10, 62, 100
11, 8640, Note_on_c, 10, 62, 0
11, 9120, Note_on_c, 10, 57, 100
11, 9360, Note_on_c, 10, 57, 0
11, 9360, Note_on_c, 10, 57, 100
11, 9600, Note_on_c, 10, 57, 0
11, 9600, Note_on_c, 10, 64, 100
11, 10080, Note_on_c, 10, 64, 0
11, 10080, Note_on_c, 10, 62, 100
11, 10560, Note_on_c, 10, 62, 0
11, 11040, Note_on_c, 10, 65, 100
11, 11280, Note_on_c, 10, 65, 0
11, 11280, Note_on_c, 10, 65, 100
11, 11520, Note_on_c, 10, 65, 0
11, 11520, Note_on_c, 10, 62, 100
11, 12000, Note_on_c, 10, 62, 0
11, 12000, Note_on_c, 10, 62, 100
11, 12480, Note_on_c, 10, 62, 0
11, 12480, Note_on_c, 10, 61, 100
11, 12960, Note_on_c, 10, 61, 0
11, 12960, Note_on_c, 10, 65, 100
11, 13440, Note_on_c, 10, 65, 0
11, 13440, Note_on_c, 10, 65, 100
11, 13920, Note_on_c, 10, 65, 0
11, 13920, Note_on_c, 10, 64, 100
11, 14400, Note_on_c, 10, 64, 0
11, 17280, Note_on_c, 10, 60, 100
11, 18720, Note_on_c, 10, 60, 0
11, 18720, Note_on_c, 10, 53, 100
11, 19200, Note_on_c, 10, 53, 0
11, 19200, Note_on_c, 10, 65, 100
11, 20640, Note_on_c, 10, 65, 0
11, 20640, Note_on_c, 10, 60, 100
11, 21120, Note_on_c, 10, 60, 0
11, 21120, Note_on_c, 10, 57, 100
11, 21600, Note_on_c, 10, 57, 0
11, 21600, Note_on_c, 10, 54, 100
11, 22080, Note_on_c, 10, 54, 0
11, 22080, Note_on_c, 10, 57, 100
11, 22560, Note_on_c, 10, 57, 0
11, 22560, Note_on_c, 10, 60, 100
11, 23040, Note_on_c, 10, 60, 0
11, 23040, Note_on_c, 10, 60, 100
11, 24000, Note_on_c, 10, 60, 0
11, 24000, Note_on_c, 10, 59, 100
11, 24960, Note_on_c, 10, 59, 0
11, 24960, Note_on_c, 10, 67, 100
11, 26400, Note_on_c, 10, 67, 0
11, 26400, Note_on_c, 10, 62, 100
11, 26880, Note_on_c, 10, 62, 0
11, 26880, Note_on_c, 10, 59, 100
11, 27360, Note_on_c, 10, 59, 0
11, 27360, Note_on_c, 10, 56, 100
11, 27840, Note_on_c, 10, 56, 0
11, 27840, Note_on_c, 10, 59, 100
11, 28320, Note_on_c, 10, 59, 0
11, 28320, Note_on_c, 10, 62, 100
11, 28800, Note_on_c, 10, 62, 0
11, 28800, Note_on_c, 10, 60, 100
11, 29520, Note_on_c, 10, 60, 0
11, 29520, Note_on_c, 10, 57, 100
11, 29760, Note_on_c, 10, 57, 0
11, 29760, Note_on_c, 10, 62, 100
11, 30480, Note_on_c, 10, 62, 0
11, 30480, Note_on_c, 10, 59, 100
11, 30720, Note_on_c, 10, 59, 0
11, 30720, Note_on_c, 10, 64, 100
11, 31200, Note_on_c, 10, 64, 0
11, 31200, Note_on_c, 10, 57, 100
11, 31680, Note_on_c, 10, 57, 0
11, 32160, Note_on_c, 10, 65, 100
11, 32400, Note_on_c, 10, 65, 0
11, 32400, Note_on_c, 10, 65, 100
11, 32640, Note_on_c, 10, 65, 0
11, 32640, Note_on_c, 10, 64, 100
11, 33120, Note_on_c, 10, 64, 0
11, 33120, Note_on_c, 10, 64, 100
11, 33600, Note_on_c, 10, 64, 0
11, 33600, Note_on_c, 10, 64, 100
11, 34560, Note_on_c, 10, 64, 0
11, 34560, Note_on_c, 10, 64, 100
11, 35040, Note_on_c, 10, 64, 0
11, 40320, Note_on_c, 10, 64, 100
11, 41280, Note_on_c, 10, 64, 0
11, 41280, Note_on_c, 10, 64, 100
11, 42240, Note_on_c, 10, 64, 0
11, 42240, Note_on_c, 10, 62, 100
11, 42720, Note_on_c, 10, 62, 0
11, 42720, Note_on_c, 10, 62, 100
11, 43200, Note_on_c, 10, 62, 0
11, 44160, Note_on_c, 10, 62, 100
11, 45120, Note_on_c, 10, 62, 0
11, 45120, Note_on_c, 10, 62, 100
11, 46080, Note_on_c, 10, 62, 0
11, 46080, Note_on_c, 10, 60, 100
11, 46560, Note_on_c, 10, 60, 0
11, 46560, Note_on_c, 10, 60, 100
11, 47040, Note_on_c, 10, 60, 0
11, 47520, Note_on_c, 10, 60, 100
11, 47760, Note_on_c, 10, 60, 0
11, 47760, Note_on_c, 10, 60, 100
11, 48000, Note_on_c, 10, 60, 0
11, 48000, Note_on_c, 10, 62, 100
11, 48480, Note_on_c, 10, 62, 0
11, 48480, Note_on_c, 10, 64, 100
11, 48960, Note_on_c, 10, 64, 0
11, 49440, Note_on_c, 10, 64, 100
11, 49680, Note_on_c, 10, 64, 0
11, 49680, Note_on_c, 10, 64, 100
11, 49920, Note_on_c, 10, 64, 0
11, 49920, Note_on_c, 10, 64, 100
11, 50400, Note_on_c, 10, 64, 0
11, 50400, Note_on_c, 10, 64, 100
11, 50880, Note_on_c, 10, 64, 0
11, 51360, Note_on_c, 10, 60, 100
11, 51600, Note_on_c, 10, 60, 0
11, 51600, Note_on_c, 10, 59, 100
11, 51840, Note_on_c, 10, 59, 0
11, 51840, Note_on_c, 10, 57, 100
11, 52320, Note_on_c, 10, 57, 0
11, 52320, Note_on_c, 10, 60, 100
11, 52800, Note_on_c, 10, 60, 0
11, 52800, Note_on_c, 10, 62, 100
11, 53280, Note_on_c, 10, 62, 0
11, 53280, Note_on_c, 10, 60, 100
11, 53760, Note_on_c, 10, 60, 0
11, 53760, Note_on_c, 10, 60, 100
11, 54240, Note_on_c, 10, 60, 0
11, 54240, Note_on_c, 10, 59, 100
11, 54720, Note_on_c, 10, 59, 0
11, 57600, Note_on_c, 10, 63, 100
11, 59040, Note_on_c, 10, 63, 0
11, 59040, Note_on_c, 10, 63, 100
11, 59520, Note_on_c, 10, 63, 0
11, 59520, Note_on_c, 10, 63, 100
11, 60000, Note_on_c, 10, 63, 0
11, 60000, Note_on_c, 10, 63, 100
11, 60480, Note_on_c, 10, 63, 0
11, 60480, Note_on_c, 10, 63, 100
11, 60960, Note_on_c, 10, 63, 0
11, 60960, Note_on_c, 10, 63, 100
11, 61440, Note_on_c, 10, 63, 0
11, 61440, Note_on_c, 10, 63, 100
11, 61920, Note_on_c, 10, 63, 0
11, 61920, Note_on_c, 10, 64, 100
11, 62400, Note_on_c, 10, 64, 0
11, 62400, Note_on_c, 10, 64, 100
11, 63360, Note_on_c, 10, 64, 0
11, 63360, Note_on_c, 10, 64, 100
11, 64800, Note_on_c, 10, 64, 0
11, 64800, Note_on_c, 10, 61, 100
11, 65280, Note_on_c, 10, 61, 0
11, 65280, Note_on_c, 10, 61, 100
11, 65760, Note_on_c, 10, 61, 0
11, 65760, Note_on_c, 10, 64, 100
11, 66240, Note_on_c, 10, 64, 0
11, 66240, Note_on_c, 10, 61, 100
11, 66720, Note_on_c, 10, 61, 0
11, 66720, Note_on_c, 10, 64, 100
11, 67200, Note_on_c, 10, 64, 0
11, 67200, Note_on_c, 10, 64, 100
11, 67680, Note_on_c, 10, 64, 0
11, 67680, Note_on_c, 10, 65, 100
11, 68160, Note_on_c, 10, 65, 0
11, 68160, Note_on_c, 10, 65, 100
11, 69120, Note_on_c, 10, 65, 0
11, 69120, Note_on_c, 10, 63, 100
11, 70080, Note_on_c, 10, 63, 0
11, 70080, Note_on_c, 10, 63, 100
11, 71040, Note_on_c, 10, 63, 0
11, 71040, Note_on_c, 10, 62, 100
11, 72000, Note_on_c, 10, 62, 0
11, 72000, Note_on_c, 10, 60, 100
11, 72960, Note_on_c, 10, 60, 0
11, 72960, Note_on_c, 10, 58, 100
11, 73920, Note_on_c, 10, 58, 0
11, 73920, Note_on_c, 10, 65, 100
11, 74880, Note_on_c, 10, 65, 0
11, 74880, Note_on_c, 10, 65, 100
11, 75360, Note_on_c, 10, 65, 0
11, 75360, Note_on_c, 10, 64, 100
11, 75840, Note_on_c, 10, 64, 0
11, 79680, Note_on_c, 10, 61, 100
11, 80400, Note_on_c, 10, 61, 0
11, 80400, Note_on_c, 10, 61, 100
11, 80640, Note_on_c, 10, 61, 0
11, 80640, Note_on_c, 10, 62, 100
11, 81120, Note_on_c, 10, 62, 0
11, 81120, Note_on_c, 10, 61, 100
11, 81600, Note_on_c, 10, 61, 0
11, 81600, Note_on_c, 10, 61, 100
11, 82320, Note_on_c, 10, 61, 0
11, 82320, Note_on_c, 10, 61, 100
11, 82560, Note_on_c, 10, 61, 0
11, 82560, Note_on_c, 10, 62, 100
11, 83040, Note_on_c, 10, 62, 0
11, 83040, Note_on_c, 10, 61, 100
11, 83520, Note_on_c, 10, 61, 0
11, 87360, Note_on_c, 10, 61, 100
11, 88080, Note_on_c, 10, 61, 0
11, 88080, Note_on_c, 10, 61, 100
11, 88320, Note_on_c, 10, 61, 0
11, 88320, Note_on_c, 10, 62, 100
11, 88800, Note_on_c, 10, 62, 0
11, 88800, Note_on_c, 10, 61, 100
11, 89280, Note_on_c, 10, 61, 0
11, 89280, Note_on_c, 10, 61, 100
11, 90000, Note_on_c, 10, 61, 0
11, 90000, Note_on_c, 10, 61, 100
11, 90240, Note_on_c, 10, 61, 0
11, 90240, Note_on_c, 10, 62, 100
11, 90720, Note_on_c, 10, 62, 0
11, 90720, Note_on_c, 10, 61, 100
11, 91200, Note_on_c, 10, 61, 0
11, 95040, Note_on_c, 10, 62, 100
11, 95760, Note_on_c, 10, 62, 0
11, 95760, Note_on_c, 10, 62, 100
11, 96000, Note_on_c, 10, 62, 0
11, 96000, Note_on_c, 10, 63, 100
11, 96240, Note_on_c, 10, 63, 0
11, 96240, Note_on_c, 10, 62, 100
11, 96480, Note_on_c, 10, 62, 0
11, 96480, Note_on_c, 10, 63, 100
11, 96720, Note_on_c, 10, 63, 0
11, 96720, Note_on_c, 10, 62, 100
11, 96960, Note_on_c, 10, 62, 0
11, 96960, Note_on_c, 10, 63, 100
11, 97200, Note_on_c, 10, 63, 0
11, 97200, Note_on_c, 10, 62, 100
11, 97440, Note_on_c, 10, 62, 0
11, 97440, Note_on_c, 10, 63, 100
11, 97680, Note_on_c, 10, 63, 0
11, 97680, Note_on_c, 10, 62, 100
11, 97920, Note_on_c, 10, 62, 0
11, 97920, Note_on_c, 10, 61, 100
11, 98400, Note_on_c, 10, 61, 0
11, 98400, Note_on_c, 10, 64, 100
11, 98880, Note_on_c, 10, 64, 0
11, 99360, Note_on_c, 10, 64, 100
11, 99600, Note_on_c, 10, 64, 0
11, 99600, Note_on_c, 10, 64, 100
11, 99840, Note_on_c, 10, 64, 0
11, 99840, Note_on_c, 10, 65, 100
11, 100320, Note_on_c, 10, 65, 0
11, 100320, Note_on_c, 10, 64, 100
11, 100800, Note_on_c, 10, 64, 0
11, 100800, Note_on_c, 10, 65, 100
11, 101280, Note_on_c, 10, 65, 0
11, 101280, Note_on_c, 10, 64, 100
11, 101760, Note_on_c, 10, 64, 0
11, 101760, Note_on_c, 10, 65, 100
11, 102240, Note_on_c, 10, 65, 0
11, 102240, Note_on_c, 10, 64, 100
11, 102720, Note_on_c, 10, 64, 0
11, 103200, Note_on_c, 10, 65, 100
11, 103440, Note_on_c, 10, 65, 0
11, 103440, Note_on_c, 10, 65, 100
11, 103680, Note_on_c, 10, 65, 0
11, 103680, Note_on_c, 10, 64, 100
11, 104160, Note_on_c, 10, 64, 0
11, 104160, Note_on_c, 10, 62, 100
11, 104640, Note_on_c, 10, 62, 0
11, 104640, Note_on_c, 10, 64, 100
11, 105120, Note_on_c, 10, 64, 0
11, 105120, Note_on_c, 10, 62, 100
11, 105600, Note_on_c, 10, 62, 0
11, 105600, Note_on_c, 10, 64, 100
11, 106080, Note_on_c, 10, 64, 0
11, 106080, Note_on_c, 10, 62, 100
11, 106560, Note_on_c, 10, 62, 0
11, 109920, Note_on_c, 10, 62, 100
11, 110880, Note_on_c, 10, 62, 0
11, 110880, Note_on_c, 10, 62, 100
11, 111360, Note_on_c, 10, 62, 0
11, 111360, Note_on_c, 10, 65, 100
11, 111840, Note_on_c, 10, 65, 0
11, 111840, Note_on_c, 10, 62, 100
11, 112320, Note_on_c, 10, 62, 0
11, 112320, Note_on_c, 10, 62, 100
11, 113040, Note_on_c, 10, 62, 0
11, 113040, Note_on_c, 10, 62, 100
11, 113280, Note_on_c, 10, 62, 0
11, 113280, Note_on_c, 10, 61, 100
11, 113760, Note_on_c, 10, 61, 0
11, 113760, Note_on_c, 10, 62, 100
11, 114240, Note_on_c, 10, 62, 0
11, 114240, Note_on_c, 10, 62, 100
11, 114720, Note_on_c, 10, 62, 0
11, 114720, Note_on_c, 10, 61, 100
11, 115200, Note_on_c, 10, 61, 0
11, 115200, Note_on_c, 10, 62, 100
11, 115680, Note_on_c, 10, 62, 0
11, 117600, Note_on_c, 10, 62, 100
11, 118560, Note_on_c, 10, 62, 0
11, 118560, Note_on_c, 10, 62, 100
11, 119040, Note_on_c, 10, 62, 0
11, 119040, Note_on_c, 10, 67, 100
11, 119520, Note_on_c, 10, 67, 0
11, 119520, Note_on_c, 10, 63, 100
11, 120000, Note_on_c, 10, 63, 0
11, 120000, Note_on_c, 10, 63, 100
11, 120720, Note_on_c, 10, 63, 0
11, 120720, Note_on_c, 10, 62, 100
11, 120960, Note_on_c, 10, 62, 0
11, 120960, Note_on_c, 10, 61, 100
11, 121440, Note_on_c, 10, 61, 0
11, 121440, Note_on_c, 10, 62, 100
11, 121920, Note_on_c, 10, 62, 0
11, 121920, Note_on_c, 10, 62, 100
11, 122400, Note_on_c, 10, 62, 0
11, 122400, Note_on_c, 10, 61, 100
11, 122880, Note_on_c, 10, 61, 0
11, 122880, Note_on_c, 10, 62, 100
11, 123360, Note_on_c, 10, 62, 0
11, 123360, End_track
12, 0, Start_track
12, 0, MIDI_port, 0
12, 0, Title_t, "Track 11"
12, 0, Program_c, 11, 52
12, 0, Control_c, 11, 7, 127
12, 0, Control_c, 11, 10, 80
12, 35, Control_c, 11, 91, 90
12, 40, Note_on_c, 11, 62, 100
12, 960, Note_on_c, 11, 62, 100
12, 1000, Note_on_c, 11, 62, 0
12, 1920, Note_on_c, 11, 62, 0
12, 1920, Note_on_c, 11, 62, 100
12, 2400, Note_on_c, 11, 62, 0
12, 2400, Note_on_c, 11, 62, 100
12, 2880, Note_on_c, 11, 62, 0
12, 3840, Note_on_c, 11, 61, 100
12, 4800, Note_on_c, 11, 61, 0
12, 4800, Note_on_c, 11, 61, 100
12, 5760, Note_on_c, 11, 61, 0
12, 5760, Note_on_c, 11, 62, 100
12, 6240, Note_on_c, 11, 62, 0
12, 6240, Note_on_c, 11, 62, 100
12, 6720, Note_on_c, 11, 62, 0
12, 7200, Note_on_c, 11, 50, 100
12, 7440, Note_on_c, 11, 50, 0
12, 7440, Note_on_c, 11, 50, 100
12, 7680, Note_on_c, 11, 50, 0
12, 7680, Note_on_c, 11, 52, 100
12, 8160, Note_on_c, 11, 52, 0
12, 8160, Note_on_c, 11, 53, 100
12, 8640, Note_on_c, 11, 53, 0
12, 9120, Note_on_c, 11, 53, 100
12, 9360, Note_on_c, 11, 53, 0
12, 9360, Note_on_c, 11, 53, 100
12, 9600, Note_on_c, 11, 53, 0
12, 9600, Note_on_c, 11, 49, 100
12, 10080, Note_on_c, 11, 49, 0
12, 10080, Note_on_c, 11, 50, 100
12, 10560, Note_on_c, 11, 50, 0
12, 11040, Note_on_c, 11, 62, 100
12, 11280, Note_on_c, 11, 62, 0
12, 11280, Note_on_c, 11, 60, 100
12, 11520, Note_on_c, 11, 60, 0
12, 11520, Note_on_c, 11, 58, 100
12, 12000, Note_on_c, 11, 58, 0
12, 12000, Note_on_c, 11, 57, 100
12, 12480, Note_on_c, 11, 57, 0
12, 12480, Note_on_c, 11, 55, 100
12, 12960, Note_on_c, 11, 55, 0
12, 12960, Note_on_c, 11, 50, 100
12, 13440, Note_on_c, 11, 50, 0
12, 13440, Note_on_c, 11, 57, 100
12, 13920, Note_on_c, 11, 57, 0
12, 13920, Note_on_c, 11, 57, 100
12, 14400, Note_on_c, 11, 57, 0
12, 17280, Note_on_c, 11, 53, 100
12, 18720, Note_on_c, 11, 53, 0
12, 18720, Note_on_c, 11, 53, 100
12, 19200, Note_on_c, 11, 53, 0
12, 19200, Note_on_c, 11, 53, 100
12, 19680, Note_on_c, 11, 53, 0
12, 19680, Note_on_c, 11, 53, 100
12, 20160, Note_on_c, 11, 53, 0
12, 20160, Note_on_c, 11, 53, 100
12, 20640, Note_on_c, 11, 53, 0
12, 20640, Note_on_c, 11, 53, 100
12, 21120, Note_on_c, 11, 53, 0
12, 21120, Note_on_c, 11, 54, 100
12, 22080, Note_on_c, 11, 54, 0
12, 22080, Note_on_c, 11, 54, 100
12, 23040, Note_on_c, 11, 54, 0
12, 23040, Note_on_c, 11, 55, 100
12, 24480, Note_on_c, 11, 55, 0
12, 24480, Note_on_c, 11, 55, 100
12, 24960, Note_on_c, 11, 55, 0
12, 24960, Note_on_c, 11, 55, 100
12, 25440, Note_on_c, 11, 55, 0
12, 25440, Note_on_c, 11, 55, 100
12, 25920, Note_on_c, 11, 55, 0
12, 25920, Note_on_c, 11, 55, 100
12, 26400, Note_on_c, 11, 55, 0
12, 26400, Note_on_c, 11, 55, 100
12, 26880, Note_on_c, 11, 55, 0
12, 26880, Note_on_c, 11, 56, 100
12, 27840, Note_on_c, 11, 56, 0
12, 27840, Note_on_c, 11, 56, 100
12, 28800, Note_on_c, 11, 56, 0
12, 28800, Note_on_c, 11, 57, 100
12, 29760, Note_on_c, 11, 57, 0
12, 29760, Note_on_c, 11, 59, 100
12, 30720, Note_on_c, 11, 59, 0
12, 30720, Note_on_c, 11, 60, 100
12, 31680, Note_on_c, 11, 60, 0
12, 31680, Note_on_c, 11, 62, 100
12, 32640, Note_on_c, 11, 62, 0
12, 32640, Note_on_c, 11, 64, 100
12, 33120, Note_on_c, 11, 64, 0
12, 33120, Note_on_c, 11, 57, 100
12, 33600, Note_on_c, 11, 57, 0
12, 33600, Note_on_c, 11, 52, 100
12, 34560, Note_on_c, 11, 52, 0
12, 34560, Note_on_c, 11, 57, 100
12, 35040, Note_on_c, 11, 57, 0
12, 40320, Note_on_c, 11, 57, 100
12, 41280, Note_on_c, 11, 57, 0
12, 41280, Note_on_c, 11, 57, 100
12, 42240, Note_on_c, 11, 57, 0
12, 42240, Note_on_c, 11, 57, 100
12, 42720, Note_on_c, 11, 57, 0
12, 42720, Note_on_c, 11, 57, 100
12, 43200, Note_on_c, 11, 57, 0
12, 44160, Note_on_c, 11, 56, 100
12, 45120, Note_on_c, 11, 56, 0
12, 45120, Note_on_c, 11, 56, 100
12, 46080, Note_on_c, 11, 56, 0
12, 46080, Note_on_c, 11, 57, 100
12, 46560, Note_on_c, 11, 57, 0
12, 46560, Note_on_c, 11, 57, 100
12, 47040, Note_on_c, 11, 57, 0
12, 47520, Note_on_c, 11, 57, 100
12, 47760, Note_on_c, 11, 57, 0
12, 47760, Note_on_c, 11, 57, 100
12, 48000, Note_on_c, 11, 57, 0
12, 48000, Note_on_c, 11, 62, 100
12, 48480, Note_on_c, 11, 62, 0
12, 48480, Note_on_c, 11, 60, 100
12, 48960, Note_on_c, 11, 60, 0
12, 49440, Note_on_c, 11, 60, 100
12, 49680, Note_on_c, 11, 60, 0
12, 49680, Note_on_c, 11, 60, 100
12, 49920, Note_on_c, 11, 60, 0
12, 49920, Note_on_c, 11, 59, 100
12, 50400, Note_on_c, 11, 59, 0
12, 50400, Note_on_c, 11, 57, 100
12, 50880, Note_on_c, 11, 57, 0
12, 51360, Note_on_c, 11, 57, 100
12, 51600, Note_on_c, 11, 57, 0
12, 51600, Note_on_c, 11, 55, 100
12, 51840, Note_on_c, 11, 55, 0
12, 51840, Note_on_c, 11, 53, 100
12, 52320, Note_on_c, 11, 53, 0
12, 52320, Note_on_c, 11, 52, 100
12, 52800, Note_on_c, 11, 52, 0
12, 52800, Note_on_c, 11, 50, 100
12, 53280, Note_on_c, 11, 50, 0
12, 53280, Note_on_c, 11, 57, 100
12, 53760, Note_on_c, 11, 57, 0
12, 53760, Note_on_c, 11, 52, 100
12, 54240, Note_on_c, 11, 52, 0
12, 54240, Note_on_c, 11, 52, 100
12, 54720, Note_on_c, 11, 52, 0
12, 57600, Note_on_c, 11, 60, 100
12, 59040, Note_on_c, 11, 60, 0
12, 59040, Note_on_c, 11, 60, 100
12, 59520, Note_on_c, 11, 60, 0
12, 59520, Note_on_c, 11, 60, 100
12, 60000, Note_on_c, 11, 60, 0
12, 60000, Note_on_c, 11, 60, 100
12, 60480, Note_on_c, 11, 60, 0
12, 60480, Note_on_c, 11, 60, 100
12, 60960, Note_on_c, 11, 60, 0
12, 60960, Note_on_c, 11, 60, 100
12, 61440, Note_on_c, 11, 60, 0
12, 61440, Note_on_c, 11, 60, 100
12, 61920, Note_on_c, 11, 60, 0
12, 61920, Note_on_c, 11, 58, 100
12, 62400, Note_on_c, 11, 58, 0
12, 62400, Note_on_c, 11, 58, 100
12, 63360, Note_on_c, 11, 58, 0
12, 63360, Note_on_c, 11, 58, 100
12, 64800, Note_on_c, 11, 58, 0
12, 64800, Note_on_c, 11, 58, 100
12, 65280, Note_on_c, 11, 58, 0
12, 65280, Note_on_c, 11, 58, 100
12, 65760, Note_on_c, 11, 58, 0
12, 65760, Note_on_c, 11, 57, 100
12, 66240, Note_on_c, 11, 57, 0
12, 66240, Note_on_c, 11, 57, 100
12, 66720, Note_on_c, 11, 57, 0
12, 66720, Note_on_c, 11, 55, 100
12, 67200, Note_on_c, 11, 55, 0
12, 67200, Note_on_c, 11, 55, 100
12, 67680, Note_on_c, 11, 55, 0
12, 67680, Note_on_c, 11, 53, 100
12, 68160, Note_on_c, 11, 53, 0
12, 68160, Note_on_c, 11, 53, 100
12, 69120, Note_on_c, 11, 53, 0
12, 69120, Note_on_c, 11, 55, 100
12, 70080, Note_on_c, 11, 55, 0
12, 70080, Note_on_c, 11, 57, 100
12, 71040, Note_on_c, 11, 57, 0
12, 71040, Note_on_c, 11, 58, 100
12, 72000, Note_on_c, 11, 58, 0
12, 72000, Note_on_c, 11, 57, 100
12, 72960, Note_on_c, 11, 57, 0
12, 72960, Note_on_c, 11, 55, 100
12, 73920, Note_on_c, 11, 55, 0
12, 73920, Note_on_c, 11, 56, 100
12, 74880, Note_on_c, 11, 56, 0
12, 74880, Note_on_c, 11, 57, 100
12, 75360, Note_on_c, 11, 57, 0
12, 75360, Note_on_c, 11, 57, 100
12, 75840, Note_on_c, 11, 57, 0
12, 75840, Note_on_c, 11, 57, 100
12, 76560, Note_on_c, 11, 57, 0
12, 76560, Note_on_c, 11, 57, 100
12, 76800, Note_on_c, 11, 57, 0
12, 76800, Note_on_c, 11, 56, 100
12, 77040, Note_on_c, 11, 56, 0
12, 77040, Note_on_c, 11, 57, 100
12, 77280, Note_on_c, 11, 57, 0
12, 77280, Note_on_c, 11, 56, 100
12, 77520, Note_on_c, 11, 56, 0
12, 77520, Note_on_c, 11, 57, 100
12, 77760, Note_on_c, 11, 57, 0
12, 77760, Note_on_c, 11, 56, 100
12, 78000, Note_on_c, 11, 56, 0
12, 78000, Note_on_c, 11, 57, 100
12, 78240, Note_on_c, 11, 57, 0
12, 78240, Note_on_c, 11, 56, 100
12, 78480, Note_on_c, 11, 56, 0
12, 78480, Note_on_c, 11, 57, 100
12, 78720, Note_on_c, 11, 57, 0
12, 78720, Note_on_c, 11, 58, 100
12, 79200, Note_on_c, 11, 58, 0
12, 79200, Note_on_c, 11, 57, 100
12, 79680, Note_on_c, 11, 57, 0
12, 83520, Note_on_c, 11, 57, 100
12, 84240, Note_on_c, 11, 57, 0
12, 84240, Note_on_c, 11, 57, 100
12, 84480, Note_on_c, 11, 57, 0
12, 84480, Note_on_c, 11, 56, 100
12, 84720, Note_on_c, 11, 56, 0
12, 84720, Note_on_c, 11, 57, 100
12, 84960, Note_on_c, 11, 57, 0
12, 84960, Note_on_c, 11, 56, 100
12, 85200, Note_on_c, 11, 56, 0
12, 85200, Note_on_c, 11, 57, 100
12, 85440, Note_on_c, 11, 57, 0
12, 85440, Note_on_c, 11, 56, 100
12, 85680, Note_on_c, 11, 56, 0
12, 85680, Note_on_c, 11, 57, 100
12, 85920, Note_on_c, 11, 57, 0
12, 85920, Note_on_c, 11, 56, 100
12, 86160, Note_on_c, 11, 56, 0
12, 86160, Note_on_c, 11, 57, 100
12, 86400, Note_on_c, 11, 57, 0
12, 86400, Note_on_c, 11, 58, 100
12, 86880, Note_on_c, 11, 58, 0
12, 86880, Note_on_c, 11, 57, 100
12, 87360, Note_on_c, 11, 57, 0
12, 91200, Note_on_c, 11, 57, 100
12, 91920, Note_on_c, 11, 57, 0
12, 91920, Note_on_c, 11, 57, 100
12, 92160, Note_on_c, 11, 57, 0
12, 92160, Note_on_c, 11, 56, 100
12, 92400, Note_on_c, 11, 56, 0
12, 92400, Note_on_c, 11, 57, 100
12, 92640, Note_on_c, 11, 57, 0
12, 92640, Note_on_c, 11, 56, 100
12, 92880, Note_on_c, 11, 56, 0
12, 92880, Note_on_c, 11, 57, 100
12, 93120, Note_on_c, 11, 57, 0
12, 93120, Note_on_c, 11, 56, 100
12, 93360, Note_on_c, 11, 56, 0
12, 93360, Note_on_c, 11, 57, 100
12, 93600, Note_on_c, 11, 57, 0
12, 93600, Note_on_c, 11, 56, 100
12, 93840, Note_on_c, 11, 56, 0
12, 93840, Note_on_c, 11, 57, 100
12, 94080, Note_on_c, 11, 57, 0
12, 94080, Note_on_c, 11, 58, 100
12, 94560, Note_on_c, 11, 58, 0
12, 94560, Note_on_c, 11, 46, 100
12, 95040, Note_on_c, 11, 46, 0
12, 95040, Note_on_c, 11, 58, 100
12, 95760, Note_on_c, 11, 58, 0
12, 95760, Note_on_c, 11, 58, 100
12, 96000, Note_on_c, 11, 58, 0
12, 96000, Note_on_c, 11, 60, 100
12, 96240, Note_on_c, 11, 60, 0
12, 96240, Note_on_c, 11, 58, 100
12, 96480, Note_on_c, 11, 58, 0
12, 96480, Note_on_c, 11, 60, 100
12, 96720, Note_on_c, 11, 60, 0
12, 96720, Note_on_c, 11, 58, 100
12, 96960, Note_on_c, 11, 58, 0
12, 96960, Note_on_c, 11, 60, 100
12, 97200, Note_on_c, 11, 60, 0
12, 97200, Note_on_c, 11, 58, 100
12, 97440, Note_on_c, 11, 58, 0
12, 97440, Note_on_c, 11, 60, 100
12, 97680, Note_on_c, 11, 60, 0
12, 97680, Note_on_c, 11, 58, 100
12, 97920, Note_on_c, 11, 58, 0
12, 97920, Note_on_c, 11, 57, 100
12, 98400, Note_on_c, 11, 57, 0
12, 98400, Note_on_c, 11, 57, 100
12, 98880, Note_on_c, 11, 57, 0
12, 99360, Note_on_c, 11, 57, 100
12, 99600, Note_on_c, 11, 57, 0
12, 99600, Note_on_c, 11, 57, 100
12, 99840, Note_on_c, 11, 57, 0
12, 99840, Note_on_c, 11, 62, 100
12, 100320, Note_on_c, 11, 62, 0
12, 100320, Note_on_c, 11, 57, 100
12, 100800, Note_on_c, 11, 57, 0
12, 100800, Note_on_c, 11, 62, 100
12, 101280, Note_on_c, 11, 62, 0
12, 101280, Note_on_c, 11, 57, 100
12, 101760, Note_on_c, 11, 57, 0
12, 101760, Note_on_c, 11, 62, 100
12, 102240, Note_on_c, 11, 62, 0
12, 102240, Note_on_c, 11, 57, 100
12, 102720, Note_on_c, 11, 57, 0
12, 103200, Note_on_c, 11, 62, 100
12, 103440, Note_on_c, 11, 62, 0
12, 103440, Note_on_c, 11, 62, 100
12, 103680, Note_on_c, 11, 62, 0
12, 103680, Note_on_c, 11, 61, 100
12, 104160, Note_on_c, 11, 61, 0
12, 104160, Note_on_c, 11, 62, 100
12, 104640, Note_on_c, 11, 62, 0
12, 104640, Note_on_c, 11, 61, 100
12, 105120, Note_on_c, 11, 61, 0
12, 105120, Note_on_c, 11, 62, 100
12, 105600, Note_on_c, 11, 62, 0
12, 105600, Note_on_c, 11, 61, 100
12, 106080, Note_on_c, 11, 61, 0
12, 106080, Note_on_c, 11, 62, 100
12, 106560, Note_on_c, 11, 62, 0
12, 109920, Note_on_c, 11, 53, 100
12, 110880, Note_on_c, 11, 53, 0
12, 110880, Note_on_c, 11, 53, 100
12, 111360, Note_on_c, 11, 53, 0
12, 111360, Note_on_c, 11, 62, 100
12, 111840, Note_on_c, 11, 62, 0
12, 111840, Note_on_c, 11, 58, 100
12, 112320, Note_on_c, 11, 58, 0
12, 112320, Note_on_c, 11, 55, 100
12, 112800, Note_on_c, 11, 55, 0
12, 112800, Note_on_c, 11, 52, 100
12, 113280, Note_on_c, 11, 52, 0
12, 113280, Note_on_c, 11, 57, 100
12, 113760, Note_on_c, 11, 57, 0
12, 113760, Note_on_c, 11, 50, 100
12, 114240, Note_on_c, 11, 50, 0
12, 114240, Note_on_c, 11, 57, 100
12, 115200, Note_on_c, 11, 57, 0
12, 115200, Note_on_c, 11, 50, 100
12, 115680, Note_on_c, 11, 50, 0
12, 117600, Note_on_c, 11, 58, 100
12, 118560, Note_on_c, 11, 58, 0
12, 118560, Note_on_c, 11, 58, 100
12, 119040, Note_on_c, 11, 58, 0
12, 119040, Note_on_c, 11, 58, 100
12, 119520, Note_on_c, 11, 58, 0
12, 119520, Note_on_c, 11, 55, 100
12, 120000, Note_on_c, 11, 55, 0
12, 120000, Note_on_c, 11, 55, 100
12, 120480, Note_on_c, 11, 55, 0
12, 120480, Note_on_c, 11, 55, 100
12, 120960, Note_on_c, 11, 55, 0
12, 120960, Note_on_c, 11, 57, 100
12, 121440, Note_on_c, 11, 57, 0
12, 121440, Note_on_c, 11, 62, 100
12, 121920, Note_on_c, 11, 62, 0
12, 121920, Note_on_c, 11, 57, 100
12, 122880, Note_on_c, 11, 57, 0
12, 122880, Note_on_c, 11, 50, 100
12, 123360, Note_on_c, 11, 50, 0
12, 123360, End_track
13, 0, Start_track
13, 0, MIDI_port, 0
13, 0, Title_t, "Track 12"
13, 0, Program_c, 12, 48
13, 0, Control_c, 12, 7, 120
13, 0, Control_c, 12, 10, 110
13, 38, Control_c, 12, 91, 80
13, 40, Note_on_c, 12, 50, 90
13, 240, Note_on_c, 12, 53, 90
13, 280, Note_on_c, 12, 50, 0
13, 480, Note_on_c, 12, 53, 0
13, 480, Note_on_c, 12, 57, 90
13, 720, Note_on_c, 12, 57, 0
13, 720, Note_on_c, 12, 62, 90
13, 960, Note_on_c, 12, 62, 0
13, 960, Note_on_c, 12, 50, 90
13, 1200, Note_on_c, 12, 50, 0
13, 1200, Note_on_c, 12, 53, 90
13, 1440, Note_on_c, 12, 53, 0
13, 1440, Note_on_c, 12, 57, 90
13, 1680, Note_on_c, 12, 57, 0
13, 1680, Note_on_c, 12, 62, 90
13, 1920, Note_on_c, 12, 62, 0
13, 1920, Note_on_c, 12, 50, 90
13, 2160, Note_on_c, 12, 50, 0
13, 2160, Note_on_c, 12, 62, 90
13, 2640, Note_on_c, 12, 62, 0
13, 2640, Note_on_c, 12, 62, 90
13, 3120, Note_on_c, 12, 62, 0
13, 3120, Note_on_c, 12, 62, 90
13, 3600, Note_on_c, 12, 62, 0
13, 3600, Note_on_c, 12, 62, 90
13, 3840, Note_on_c, 12, 62, 0
13, 3840, Note_on_c, 12, 49, 90
13, 4080, Note_on_c, 12, 49, 0
13, 4080, Note_on_c, 12, 52, 90
13, 4320, Note_on_c, 12, 52, 0
13, 4320, Note_on_c, 12, 57, 90
13, 4560, Note_on_c, 12, 57, 0
13, 4560, Note_on_c, 12, 61, 90
13, 4800, Note_on_c, 12, 61, 0
13, 4800, Note_on_c, 12, 49, 90
13, 5040, Note_on_c, 12, 49, 0
13, 5040, Note_on_c, 12, 52, 90
13, 5280, Note_on_c, 12, 52, 0
13, 5280, Note_on_c, 12, 57, 90
13, 5520, Note_on_c, 12, 57, 0
13, 5520, Note_on_c, 12, 61, 90
13, 5760, Note_on_c, 12, 61, 0
13, 5760, Note_on_c, 12, 50, 90
13, 6000, Note_on_c, 12, 50, 0
13, 6000, Note_on_c, 12, 62, 90
13, 6480, Note_on_c, 12, 62, 0
13, 6480, Note_on_c, 12, 62, 90
13, 6960, Note_on_c, 12, 62, 0
13, 6960, Note_on_c, 12, 62, 90
13, 7440, Note_on_c, 12, 62, 0
13, 7440, Note_on_c, 12, 50, 90
13, 7680, Note_on_c, 12, 50, 0
13, 7680, Note_on_c, 12, 52, 90
13, 8160, Note_on_c, 12, 52, 0
13, 8160, Note_on_c, 12, 53, 90
13, 8640, Note_on_c, 12, 53, 0
13, 9120, Note_on_c, 12, 53, 90
13, 9600, Note_on_c, 12, 53, 0
13, 9600, Note_on_c, 12, 49, 90
13, 10080, Note_on_c, 12, 49, 0
13, 10080, Note_on_c, 12, 50, 90
13, 10560, Note_on_c, 12, 50, 0
13, 10800, Note_on_c, 12, 50, 90
13, 11040, Note_on_c, 12, 50, 0
13, 11040, Note_on_c, 12, 62, 90
13, 11280, Note_on_c, 12, 62, 0
13, 11280, Note_on_c, 12, 60, 90
13, 11520, Note_on_c, 12, 60, 0
13, 11520, Note_on_c, 12, 58, 90
13, 11760, Note_on_c, 12, 58, 0
13, 11760, Note_on_c, 12, 46, 90
13, 12000, Note_on_c, 12, 46, 0
13, 12000, Note_on_c, 12, 45, 90
13, 12240, Note_on_c, 12, 45, 0
13, 12240, Note_on_c, 12, 57, 90
13, 12480, Note_on_c, 12, 57, 0
13, 12480, Note_on_c, 12, 55, 90
13, 12720, Note_on_c, 12, 55, 0
13, 12720, Note_on_c, 12, 43, 90
13, 12960, Note_on_c, 12, 43, 0
13, 12960, Note_on_c, 12, 50, 90
13, 13200, Note_on_c, 12, 50, 0
13, 13200, Note_on_c, 12, 62, 90
13, 13440, Note_on_c, 12, 62, 0
13, 13440, Note_on_c, 12, 57, 90
13, 13680, Note_on_c, 12, 57, 0
13, 13680, Note_on_c, 12, 45, 90
13, 13920, Note_on_c, 12, 45, 0
13, 13920, Note_on_c, 12, 57, 90
13, 14160, Note_on_c, 12, 57, 0
13, 14160, Note_on_c, 12, 57, 90
13, 14400, Note_on_c, 12, 57, 0
13, 14400, Note_on_c, 12, 57, 90
13, 14640, Note_on_c, 12, 57, 0
13, 14640, Note_on_c, 12, 57, 90
13, 14880, Note_on_c, 12, 57, 0
13, 14880, Note_on_c, 12, 57, 90
13, 15120, Note_on_c, 12, 57, 0
13, 15120, Note_on_c, 12, 57, 90
13, 15360, Note_on_c, 12, 57, 0
13, 15360, Note_on_c, 12, 57, 90
13, 15600, Note_on_c, 12, 57, 0
13, 15600, Note_on_c, 12, 57, 90
13, 15840, Note_on_c, 12, 57, 0
13, 15840, Note_on_c, 12, 58, 90
13, 16080, Note_on_c, 12, 58, 0
13, 16080, Note_on_c, 12, 59, 90
13, 16320, Note_on_c, 12, 59, 0
13, 16320, Note_on_c, 12, 60, 90
13, 16560, Note_on_c, 12, 60, 0
13, 16560, Note_on_c, 12, 57, 90
13, 16800, Note_on_c, 12, 57, 0
13, 16800, Note_on_c, 12, 58, 90
13, 17040, Note_on_c, 12, 58, 0
13, 17040, Note_on_c, 12, 55, 90
13, 17280, Note_on_c, 12, 55, 0
13, 17280, Note_on_c, 12, 53, 90
13, 17520, Note_on_c, 12, 53, 0
13, 17520, Note_on_c, 12, 53, 90
13, 17760, Note_on_c, 12, 53, 0
13, 17760, Note_on_c, 12, 53, 90
13, 18000, Note_on_c, 12, 53, 0
13, 18000, Note_on_c, 12, 53, 90
13, 18240, Note_on_c, 12, 53, 0
13, 18240, Note_on_c, 12, 53, 90
13, 18480, Note_on_c, 12, 53, 0
13, 18480, Note_on_c, 12, 53, 90
13, 18720, Note_on_c, 12, 53, 0
13, 18720, Note_on_c, 12, 53, 90
13, 18960, Note_on_c, 12, 53, 0
13, 18960, Note_on_c, 12, 53, 90
13, 19200, Note_on_c, 12, 53, 0
13, 19200, Note_on_c, 12, 53, 90
13, 19440, Note_on_c, 12, 53, 0
13, 19440, Note_on_c, 12, 53, 90
13, 19680, Note_on_c, 12, 53, 0
13, 19680, Note_on_c, 12, 53, 90
13, 19920, Note_on_c, 12, 53, 0
13, 19920, Note_on_c, 12, 53, 90
13, 20160, Note_on_c, 12, 53, 0
13, 20160, Note_on_c, 12, 53, 90
13, 20400, Note_on_c, 12, 53, 0
13, 20400, Note_on_c, 12, 53, 90
13, 20640, Note_on_c, 12, 53, 0
13, 20640, Note_on_c, 12, 53, 90
13, 20880, Note_on_c, 12, 53, 0
13, 20880, Note_on_c, 12, 53, 90
13, 21120, Note_on_c, 12, 53, 0
13, 21120, Note_on_c, 12, 54, 90
13, 21360, Note_on_c, 12, 54, 0
13, 21360, Note_on_c, 12, 42, 90
13, 21600, Note_on_c, 12, 42, 0
13, 21600, Note_on_c, 12, 45, 90
13, 21840, Note_on_c, 12, 45, 0
13, 21840, Note_on_c, 12, 48, 90
13, 22080, Note_on_c, 12, 48, 0
13, 22080, Note_on_c, 12, 54, 90
13, 22320, Note_on_c, 12, 54, 0
13, 22320, Note_on_c, 12, 60, 90
13, 22560, Note_on_c, 12, 60, 0
13, 22560, Note_on_c, 12, 57, 90
13, 22800, Note_on_c, 12, 57, 0
13, 22800, Note_on_c, 12, 54, 90
13, 23040, Note_on_c, 12, 54, 0
13, 23040, Note_on_c, 12, 55, 90
13, 23280, Note_on_c, 12, 55, 0
13, 23280, Note_on_c, 12, 55, 90
13, 23520, Note_on_c, 12, 55, 0
13, 23520, Note_on_c, 12, 55, 90
13, 23760, Note_on_c, 12, 55, 0
13, 23760, Note_on_c, 12, 55, 90
13, 24000, Note_on_c, 12, 55, 0
13, 24000, Note_on_c, 12, 55, 90
13, 24240, Note_on_c, 12, 55, 0
13, 24240, Note_on_c, 12, 55, 90
13, 24480, Note_on_c, 12, 55, 0
13, 24480, Note_on_c, 12, 55, 90
13, 24720, Note_on_c, 12, 55, 0
13, 24720, Note_on_c, 12, 55, 90
13, 24960, Note_on_c, 12, 55, 0
13, 24960, Note_on_c, 12, 55, 90
13, 25200, Note_on_c, 12, 55, 0
13, 25200, Note_on_c, 12, 55, 90
13, 25440, Note_on_c, 12, 55, 0
13, 25440, Note_on_c, 12, 55, 90
13, 25680, Note_on_c, 12, 55, 0
13, 25680, Note_on_c, 12, 55, 90
13, 25920, Note_on_c, 12, 55, 0
13, 25920, Note_on_c, 12, 55, 90
13, 26160, Note_on_c, 12, 55, 0
13, 26160, Note_on_c, 12, 55, 90
13, 26400, Note_on_c, 12, 55, 0
13, 26400, Note_on_c, 12, 55, 90
13, 26640, Note_on_c, 12, 55, 0
13, 26640, Note_on_c, 12, 55, 90
13, 26880, Note_on_c, 12, 55, 0
13, 26880, Note_on_c, 12, 56, 90
13, 27120, Note_on_c, 12, 56, 0
13, 27120, Note_on_c, 12, 44, 90
13, 27360, Note_on_c, 12, 44, 0
13, 27360, Note_on_c, 12, 47, 90
13, 27600, Note_on_c, 12, 47, 0
13, 27600, Note_on_c, 12, 50, 90
13, 27840, Note_on_c, 12, 50, 0
13, 27840, Note_on_c, 12, 56, 90
13, 28080, Note_on_c, 12, 56, 0
13, 28080, Note_on_c, 12, 62, 90
13, 28320, Note_on_c, 12, 62, 0
13, 28320, Note_on_c, 12, 59, 90
13, 28560, Note_on_c, 12, 59, 0
13, 28560, Note_on_c, 12, 56, 90
13, 28800, Note_on_c, 12, 56, 0
13, 28800, Note_on_c, 12, 45, 90
13, 29040, Note_on_c, 12, 45, 0
13, 29040, Note_on_c, 12, 48, 90
13, 29280, Note_on_c, 12, 48, 0
13, 29280, Note_on_c, 12, 52, 90
13, 29520, Note_on_c, 12, 52, 0
13, 29520, Note_on_c, 12, 57, 90
13, 29760, Note_on_c, 12, 57, 0
13, 29760, Note_on_c, 12, 47, 90
13, 30000, Note_on_c, 12, 47, 0
13, 30000, Note_on_c, 12, 50, 90
13, 30240, Note_on_c, 12, 50, 0
13, 30240, Note_on_c, 12, 56, 90
13, 30480, Note_on_c, 12, 56, 0
13, 30480, Note_on_c, 12, 59, 90
13, 30720, Note_on_c, 12, 59, 0
13, 30720, Note_on_c, 12, 48, 90
13, 30960, Note_on_c, 12, 48, 0
13, 30960, Note_on_c, 12, 52, 90
13, 31200, Note_on_c, 12, 52, 0
13, 31200, Note_on_c, 12, 57, 90
13, 31440, Note_on_c, 12, 57, 0
13, 31440, Note_on_c, 12, 60, 90
13, 31680, Note_on_c, 12, 60, 0
13, 31680, Note_on_c, 12, 50, 90
13, 31920, Note_on_c, 12, 50, 0
13, 31920, Note_on_c, 12, 53, 90
13, 32160, Note_on_c, 12, 53, 0
13, 32160, Note_on_c, 12, 59, 90
13, 32400, Note_on_c, 12, 59, 0
13, 32400, Note_on_c, 12, 62, 90
13, 32640, Note_on_c, 12, 62, 0
13, 32640, Note_on_c, 12, 64, 90
13, 32880, Note_on_c, 12, 64, 0
13, 32880, Note_on_c, 12, 52, 90
13, 33120, Note_on_c, 12, 52, 0
13, 33120, Note_on_c, 12, 57, 90
13, 33360, Note_on_c, 12, 57, 0
13, 33360, Note_on_c, 12, 60, 90
13, 33600, Note_on_c, 12, 60, 0
13, 33600, Note_on_c, 12, 64, 90
13, 33840, Note_on_c, 12, 64, 0
13, 33840, Note_on_c, 12, 64, 90
13, 34080, Note_on_c, 12, 64, 0
13, 34080, Note_on_c, 12, 52, 90
13, 34320, Note_on_c, 12, 52, 0
13, 34320, Note_on_c, 12, 52, 90
13, 34560, Note_on_c, 12, 52, 0
13, 34560, Note_on_c, 12, 57, 90
13, 35040, Note_on_c, 12, 57, 0
13, 35760, Note_on_c, 12, 60, 90
13, 36000, Note_on_c, 12, 60, 0
13, 36000, Note_on_c, 12, 59, 90
13, 36240, Note_on_c, 12, 59, 0
13, 36240, Note_on_c, 12, 57, 90
13, 36480, Note_on_c, 12, 57, 0
13, 36480, Note_on_c, 12, 56, 90
13, 36720, Note_on_c, 12, 56, 0
13, 36720, Note_on_c, 12, 65, 90
13, 36960, Note_on_c, 12, 65, 0
13, 36960, Note_on_c, 12, 62, 90
13, 37200, Note_on_c, 12, 62, 0
13, 37200, Note_on_c, 12, 60, 90
13, 37440, Note_on_c, 12, 60, 0
13, 37440, Note_on_c, 12, 59, 90
13, 37680, Note_on_c, 12, 59, 0
13, 37680, Note_on_c, 12, 57, 90
13, 37920, Note_on_c, 12, 57, 0
13, 37920, Note_on_c, 12, 56, 90
13, 38160, Note_on_c, 12, 56, 0
13, 38160, Note_on_c, 12, 59, 90
13, 38400, Note_on_c, 12, 59, 0
13, 38400, Note_on_c, 12, 57, 90
13, 38640, Note_on_c, 12, 57, 0
13, 38640, Note_on_c, 12, 48, 90
13, 38880, Note_on_c, 12, 48, 0
13, 38880, Note_on_c, 12, 50, 90
13, 39120, Note_on_c, 12, 50, 0
13, 39120, Note_on_c, 12, 53, 90
13, 39360, Note_on_c, 12, 53, 0
13, 39360, Note_on_c, 12, 52, 90
13, 39600, Note_on_c, 12, 52, 0
13, 39600, Note_on_c, 12, 50, 90
13, 39840, Note_on_c, 12, 50, 0
13, 39840, Note_on_c, 12, 52, 90
13, 40080, Note_on_c, 12, 52, 0
13, 40080, Note_on_c, 12, 40, 90
13, 40320, Note_on_c, 12, 40, 0
13, 40320, Note_on_c, 12, 45, 90
13, 40560, Note_on_c, 12, 45, 0
13, 40560, Note_on_c, 12, 48, 90
13, 40800, Note_on_c, 12, 48, 0
13, 40800, Note_on_c, 12, 52, 90
13, 41040, Note_on_c, 12, 52, 0
13, 41040, Note_on_c, 12, 57, 90
13, 41280, Note_on_c, 12, 57, 0
13, 41280, Note_on_c, 12, 45, 90
13, 41520, Note_on_c, 12, 45, 0
13, 41520, Note_on_c, 12, 48, 90
13, 41760, Note_on_c, 12, 48, 0
13, 41760, Note_on_c, 12, 52, 90
13, 42000, Note_on_c, 12, 52, 0
13, 42000, Note_on_c, 12, 57, 90
13, 42240, Note_on_c, 12, 57, 0
13, 42240, Note_on_c, 12, 45, 90
13, 42480, Note_on_c, 12, 45, 0
13, 42480, Note_on_c, 12, 57, 90
13, 42960, Note_on_c, 12, 57, 0
13, 42960, Note_on_c, 12, 57, 90
13, 43440, Note_on_c, 12, 57, 0
13, 43440, Note_on_c, 12, 57, 90
13, 43920, Note_on_c, 12, 57, 0
13, 43920, Note_on_c, 12, 57, 90
13, 44160, Note_on_c, 12, 57, 0
13, 44160, Note_on_c, 12, 44, 90
13, 44400, Note_on_c, 12, 44, 0
13, 44400, Note_on_c, 12, 47, 90
13, 44640, Note_on_c, 12, 47, 0
13, 44640, Note_on_c, 12, 52, 90
13, 44880, Note_on_c, 12, 52, 0
13, 44880, Note_on_c, 12, 56, 90
13, 45120, Note_on_c, 12, 56, 0
13, 45120, Note_on_c, 12, 44, 90
13, 45360, Note_on_c, 12, 44, 0
13, 45360, Note_on_c, 12, 47, 90
13, 45600, Note_on_c, 12, 47, 0
13, 45600, Note_on_c, 12, 52, 90
13, 45840, Note_on_c, 12, 52, 0
13, 45840, Note_on_c, 12, 56, 90
13, 46080, Note_on_c, 12, 56, 0
13, 46080, Note_on_c, 12, 45, 90
13, 46320, Note_on_c, 12, 45, 0
13, 46320, Note_on_c, 12, 57, 90
13, 46800, Note_on_c, 12, 57, 0
13, 46800, Note_on_c, 12, 57, 90
13, 47280, Note_on_c, 12, 57, 0
13, 47280, Note_on_c, 12, 57, 90
13, 47760, Note_on_c, 12, 57, 0
13, 47760, Note_on_c, 12, 57, 90
13, 48000, Note_on_c, 12, 57, 0
13, 48000, Note_on_c, 12, 62, 90
13, 48480, Note_on_c, 12, 62, 0
13, 48480, Note_on_c, 12, 60, 90
13, 48960, Note_on_c, 12, 60, 0
13, 49440, Note_on_c, 12, 60, 90
13, 49920, Note_on_c, 12, 60, 0
13, 49920, Note_on_c, 12, 59, 90
13, 50400, Note_on_c, 12, 59, 0
13, 50400, Note_on_c, 12, 57, 90
13, 50880, Note_on_c, 12, 57, 0
13, 51120, Note_on_c, 12, 45, 90
13, 51360, Note_on_c, 12, 45, 0
13, 51360, Note_on_c, 12, 57, 90
13, 51600, Note_on_c, 12, 57, 0
13, 51600, Note_on_c, 12, 55, 90
13, 51840, Note_on_c, 12, 55, 0
13, 51840, Note_on_c, 12, 53, 90
13, 52080, Note_on_c, 12, 53, 0
13, 52080, Note_on_c, 12, 65, 90
13, 52320, Note_on_c, 12, 65, 0
13, 52320, Note_on_c, 12, 64, 90
13, 52560, Note_on_c, 12, 64, 0
13, 52560, Note_on_c, 12, 52, 90
13, 52800, Note_on_c, 12, 52, 0
13, 52800, Note_on_c, 12, 50, 90
13, 53040, Note_on_c, 12, 50, 0
13, 53040, Note_on_c, 12, 62, 90
13, 53280, Note_on_c, 12, 62, 0
13, 53280, Note_on_c, 12, 57, 90
13, 53520, Note_on_c, 12, 57, 0
13, 53520, Note_on_c, 12, 45, 90
13, 53760, Note_on_c, 12, 45, 0
13, 53760, Note_on_c, 12, 52, 90
13, 54000, Note_on_c, 12, 52, 0
13, 54000, Note_on_c, 12, 64, 90
13, 54240, Note_on_c, 12, 64, 0
13, 54240, Note_on_c, 12, 52, 90
13, 54480, Note_on_c, 12, 52, 0
13, 54480, Note_on_c, 12, 52, 90
13, 54720, Note_on_c, 12, 52, 0
13, 54720, Note_on_c, 12, 52, 90
13, 54960, Note_on_c, 12, 52, 0
13, 54960, Note_on_c, 12, 52, 90
13, 55200, Note_on_c, 12, 52, 0
13, 55200, Note_on_c, 12, 52, 90
13, 55440, Note_on_c, 12, 52, 0
13, 55440, Note_on_c, 12, 52, 90
13, 55680, Note_on_c, 12, 52, 0
13, 55680, Note_on_c, 12, 50, 90
13, 55920, Note_on_c, 12, 50, 0
13, 55920, Note_on_c, 12, 50, 90
13, 56160, Note_on_c, 12, 50, 0
13, 56160, Note_on_c, 12, 50, 90
13, 56400, Note_on_c, 12, 50, 0
13, 56400, Note_on_c, 12, 50, 90
13, 56640, Note_on_c, 12, 50, 0
13, 56640, Note_on_c, 12, 55, 90
13, 56880, Note_on_c, 12, 55, 0
13, 56880, Note_on_c, 12, 55, 90
13, 57120, Note_on_c, 12, 55, 0
13, 57120, Note_on_c, 12, 55, 90
13, 57360, Note_on_c, 12, 55, 0
13, 57360, Note_on_c, 12, 55, 90
13, 57600, Note_on_c, 12, 55, 0
13, 57600, Note_on_c, 12, 48, 90
13, 57840, Note_on_c, 12, 48, 0
13, 57840, Note_on_c, 12, 51, 90
13, 58080, Note_on_c, 12, 51, 0
13, 58080, Note_on_c, 12, 55, 90
13, 58320, Note_on_c, 12, 55, 0
13, 58320, Note_on_c, 12, 60, 90
13, 58560, Note_on_c, 12, 60, 0
13, 58560, Note_on_c, 12, 48, 90
13, 58800, Note_on_c, 12, 48, 0
13, 58800, Note_on_c, 12, 51, 90
13, 59040, Note_on_c, 12, 51, 0
13, 59040, Note_on_c, 12, 55, 90
13, 59280, Note_on_c, 12, 55, 0
13, 59280, Note_on_c, 12, 60, 90
13, 59520, Note_on_c, 12, 60, 0
13, 59520, Note_on_c, 12, 48, 90
13, 59760, Note_on_c, 12, 48, 0
13, 59760, Note_on_c, 12, 60, 90
13, 60000, Note_on_c, 12, 60, 0
13, 60000, Note_on_c, 12, 60, 90
13, 60240, Note_on_c, 12, 60, 0
13, 60240, Note_on_c, 12, 60, 90
13, 60480, Note_on_c, 12, 60, 0
13, 60480, Note_on_c, 12, 60, 90
13, 60720, Note_on_c, 12, 60, 0
13, 60720, Note_on_c, 12, 60, 90
13, 60960, Note_on_c, 12, 60, 0
13, 60960, Note_on_c, 12, 60, 90
13, 61200, Note_on_c, 12, 60, 0
13, 61200, Note_on_c, 12, 60, 90
13, 61440, Note_on_c, 12, 60, 0
13, 61440, Note_on_c, 12, 60, 90
13, 61680, Note_on_c, 12, 60, 0
13, 61680, Note_on_c, 12, 60, 90
13, 61920, Note_on_c, 12, 60, 0
13, 61920, Note_on_c, 12, 58, 90
13, 62160, Note_on_c, 12, 58, 0
13, 62160, Note_on_c, 12, 58, 90
13, 62400, Note_on_c, 12, 58, 0
13, 62400, Note_on_c, 12, 58, 90
13, 62640, Note_on_c, 12, 58, 0
13, 62640, Note_on_c, 12, 58, 90
13, 62880, Note_on_c, 12, 58, 0
13, 62880, Note_on_c, 12, 55, 90
13, 63120, Note_on_c, 12, 55, 0
13, 63120, Note_on_c, 12, 52, 90
13, 63360, Note_on_c, 12, 52, 0
13, 63360, Note_on_c, 12, 46, 90
13, 63600, Note_on_c, 12, 46, 0
13, 63600, Note_on_c, 12, 52, 90
13, 63840, Note_on_c, 12, 52, 0
13, 63840, Note_on_c, 12, 55, 90
13, 64080, Note_on_c, 12, 55, 0
13, 64080, Note_on_c, 12, 58, 90
13, 64320, Note_on_c, 12, 58, 0
13, 64320, Note_on_c, 12, 46, 90
13, 64560, Note_on_c, 12, 46, 0
13, 64560, Note_on_c, 12, 52, 90
13, 64800, Note_on_c, 12, 52, 0
13, 64800, Note_on_c, 12, 55, 90
13, 65040, Note_on_c, 12, 55, 0
13, 65040, Note_on_c, 12, 58, 90
13, 65280, Note_on_c, 12, 58, 0
13, 65280, Note_on_c, 12, 58, 90
13, 65520, Note_on_c, 12, 58, 0
13, 65520, Note_on_c, 12, 58, 90
13, 65760, Note_on_c, 12, 58, 0
13, 65760, Note_on_c, 12, 57, 90
13, 66000, Note_on_c, 12, 57, 0
13, 66000, Note_on_c, 12, 57, 90
13, 66240, Note_on_c, 12, 57, 0
13, 66240, Note_on_c, 12, 57, 90
13, 66480, Note_on_c, 12, 57, 0
13, 66480, Note_on_c, 12, 57, 90
13, 66720, Note_on_c, 12, 57, 0
13, 66720, Note_on_c, 12, 55, 90
13, 66960, Note_on_c, 12, 55, 0
13, 66960, Note_on_c, 12, 55, 90
13, 67200, Note_on_c, 12, 55, 0
13, 67200, Note_on_c, 12, 55, 90
13, 67440, Note_on_c, 12, 55, 0
13, 67440, Note_on_c, 12, 55, 90
13, 67680, Note_on_c, 12, 55, 0
13, 67680, Note_on_c, 12, 53, 90
13, 67920, Note_on_c, 12, 53, 0
13, 67920, Note_on_c, 12, 53, 90
13, 68160, Note_on_c, 12, 53, 0
13, 68160, Note_on_c, 12, 53, 90
13, 68400, Note_on_c, 12, 53, 0
13, 68400, Note_on_c, 12, 50, 90
13, 68640, Note_on_c, 12, 50, 0
13, 68640, Note_on_c, 12, 45, 90
13, 68880, Note_on_c, 12, 45, 0
13, 68880, Note_on_c, 12, 41, 90
13, 69120, Note_on_c, 12, 41, 0
13, 69120, Note_on_c, 12, 43, 90
13, 69360, Note_on_c, 12, 43, 0
13, 69360, Note_on_c, 12, 46, 90
13, 69600, Note_on_c, 12, 46, 0
13, 69600, Note_on_c, 12, 51, 90
13, 69840, Note_on_c, 12, 51, 0
13, 69840, Note_on_c, 12, 55, 90
13, 70080, Note_on_c, 12, 55, 0
13, 70080, Note_on_c, 12, 45, 90
13, 70320, Note_on_c, 12, 45, 0
13, 70320, Note_on_c, 12, 48, 90
13, 70560, Note_on_c, 12, 48, 0
13, 70560, Note_on_c, 12, 54, 90
13, 70800, Note_on_c, 12, 54, 0
13, 70800, Note_on_c, 12, 57, 90
13, 71040, Note_on_c, 12, 57, 0
13, 71040, Note_on_c, 12, 46, 90
13, 71280, Note_on_c, 12, 46, 0
13, 71280, Note_on_c, 12, 50, 90
13, 71520, Note_on_c, 12, 50, 0
13, 71520, Note_on_c, 12, 55, 90
13, 71760, Note_on_c, 12, 55, 0
13, 71760, Note_on_c, 12, 58, 90
13, 72000, Note_on_c, 12, 58, 0
13, 72000, Note_on_c, 12, 45, 90
13, 72240, Note_on_c, 12, 45, 0
13, 72240, Note_on_c, 12, 48, 90
13, 72480, Note_on_c, 12, 48, 0
13, 72480, Note_on_c, 12, 53, 90
13, 72720, Note_on_c, 12, 53, 0
13, 72720, Note_on_c, 12, 57, 90
13, 72960, Note_on_c, 12, 57, 0
13, 72960, Note_on_c, 12, 43, 90
13, 73200, Note_on_c, 12, 43, 0
13, 73200, Note_on_c, 12, 46, 90
13, 73440, Note_on_c, 12, 46, 0
13, 73440, Note_on_c, 12, 51, 90
13, 73680, Note_on_c, 12, 51, 0
13, 73680, Note_on_c, 12, 55, 90
13, 73920, Note_on_c, 12, 55, 0
13, 73920, Note_on_c, 12, 44, 90
13, 74160, Note_on_c, 12, 44, 0
13, 74160, Note_on_c, 12, 47, 90
13, 74400, Note_on_c, 12, 47, 0
13, 74400, Note_on_c, 12, 50, 90
13, 74640, Note_on_c, 12, 50, 0
13, 74640, Note_on_c, 12, 56, 90
13, 74880, Note_on_c, 12, 56, 0
13, 74880, Note_on_c, 12, 57, 90
13, 75360, Note_on_c, 12, 57, 0
13, 75360, Note_on_c, 12, 45, 90
13, 75840, Note_on_c, 12, 45, 0
13, 75840, Note_on_c, 12, 45, 90
13, 76560, Note_on_c, 12, 45, 0
13, 76560, Note_on_c, 12, 45, 90
13, 76800, Note_on_c, 12, 45, 0
13, 76800, Note_on_c, 12, 44, 90
13, 77040, Note_on_c, 12, 44, 0
13, 77040, Note_on_c, 12, 45, 90
13, 77280, Note_on_c, 12, 45, 0
13, 77280, Note_on_c, 12, 44, 90
13, 77520, Note_on_c, 12, 44, 0
13, 77520, Note_on_c, 12, 45, 90
13, 77760, Note_on_c, 12, 45, 0
13, 77760, Note_on_c, 12, 44, 90
13, 78000, Note_on_c, 12, 44, 0
13, 78000, Note_on_c, 12, 45, 90
13, 78240, Note_on_c, 12, 45, 0
13, 78240, Note_on_c, 12, 44, 90
13, 78480, Note_on_c, 12, 44, 0
13, 78480, Note_on_c, 12, 45, 90
13, 78720, Note_on_c, 12, 45, 0
13, 78720, Note_on_c, 12, 46, 90
13, 79200, Note_on_c, 12, 46, 0
13, 79200, Note_on_c, 12, 45, 90
13, 79680, Note_on_c, 12, 45, 0
13, 79680, Note_on_c, 12, 64, 90
13, 80400, Note_on_c, 12, 64, 0
13, 80400, Note_on_c, 12, 64, 90
13, 80640, Note_on_c, 12, 64, 0
13, 80640, Note_on_c, 12, 65, 90
13, 81120, Note_on_c, 12, 65, 0
13, 81120, Note_on_c, 12, 64, 90
13, 81600, Note_on_c, 12, 64, 0
13, 81600, Note_on_c, 12, 64, 90
13, 82320, Note_on_c, 12, 64, 0
13, 82320, Note_on_c, 12, 64, 90
13, 82560, Note_on_c, 12, 64, 0
13, 82560, Note_on_c, 12, 65, 90
13, 83040, Note_on_c, 12, 65, 0
13, 83040, Note_on_c, 12, 64, 90
13, 83520, Note_on_c, 12, 64, 0
13, 83520, Note_on_c, 12, 45, 90
13, 84240, Note_on_c, 12, 45, 0
13, 84240, Note_on_c, 12, 45, 90
13, 84480, Note_on_c, 12, 45, 0
13, 84480, Note_on_c, 12, 44, 90
13, 84720, Note_on_c, 12, 44, 0
13, 84720, Note_on_c, 12, 45, 90
13, 84960, Note_on_c, 12, 45, 0
13, 84960, Note_on_c, 12, 44, 90
13, 85200, Note_on_c, 12, 44, 0
13, 85200, Note_on_c, 12, 45, 90
13, 85440, Note_on_c, 12, 45, 0
13, 85440, Note_on_c, 12, 44, 90
13, 85680, Note_on_c, 12, 44, 0
13, 85680, Note_on_c, 12, 45, 90
13, 85920, Note_on_c, 12, 45, 0
13, 85920, Note_on_c, 12, 44, 90
13, 86160, Note_on_c, 12, 44, 0
13, 86160, Note_on_c, 12, 45, 90
13, 86400, Note_on_c, 12, 45, 0
13, 86400, Note_on_c, 12, 46, 90
13, 86880, Note_on_c, 12, 46, 0
13, 86880, Note_on_c, 12, 45, 90
13, 87360, Note_on_c, 12, 45, 0
13, 87360, Note_on_c, 12, 64, 90
13, 88080, Note_on_c, 12, 64, 0
13, 88080, Note_on_c, 12, 64, 90
13, 88320, Note_on_c, 12, 64, 0
13, 88320, Note_on_c, 12, 65, 90
13, 88800, Note_on_c, 12, 65, 0
13, 88800, Note_on_c, 12, 64, 90
13, 89280, Note_on_c, 12, 64, 0
13, 89280, Note_on_c, 12, 64, 90
13, 90000, Note_on_c, 12, 64, 0
13, 90000, Note_on_c, 12, 64, 90
13, 90240, Note_on_c, 12, 64, 0
13, 90240, Note_on_c, 12, 65, 90
13, 90720, Note_on_c, 12, 65, 0
13, 90720, Note_on_c, 12, 64, 90
13, 91200, Note_on_c, 12, 64, 0
13, 91200, Note_on_c, 12, 45, 90
13, 91920, Note_on_c, 12, 45, 0
13, 91920, Note_on_c, 12, 45, 90
13, 92160, Note_on_c, 12, 45, 0
13, 92160, Note_on_c, 12, 44, 90
13, 92400, Note_on_c, 12, 44, 0
13, 92400, Note_on_c, 12, 45, 90
13, 92640, Note_on_c, 12, 45, 0
13, 92640, Note_on_c, 12, 44, 90
13, 92880, Note_on_c, 12, 44, 0
13, 92880, Note_on_c, 12, 45, 90
13, 93120, Note_on_c, 12, 45, 0
13, 93120, Note_on_c, 12, 44, 90
13, 93360, Note_on_c, 12, 44, 0
13, 93360, Note_on_c, 12, 45, 90
13, 93600, Note_on_c, 12, 45, 0
13, 93600, Note_on_c, 12, 44, 90
13, 93840, Note_on_c, 12, 44, 0
13, 93840, Note_on_c, 12, 45, 90
13, 94080, Note_on_c, 12, 45, 0
13, 94080, Note_on_c, 12, 58, 90
13, 94320, Note_on_c, 12, 58, 0
13, 94320, Note_on_c, 12, 46, 90
13, 94560, Note_on_c, 12, 46, 0
13, 94560, Note_on_c, 12, 58, 90
13, 94800, Note_on_c, 12, 58, 0
13, 94800, Note_on_c, 12, 58, 90
13, 95040, Note_on_c, 12, 58, 0
13, 95040, Note_on_c, 12, 58, 90
13, 95280, Note_on_c, 12, 58, 0
13, 95280, Note_on_c, 12, 58, 90
13, 95520, Note_on_c, 12, 58, 0
13, 95520, Note_on_c, 12, 58, 90
13, 95760, Note_on_c, 12, 58, 0
13, 95760, Note_on_c, 12, 58, 90
13, 96000, Note_on_c, 12, 58, 0
13, 96000, Note_on_c, 12, 60, 90
13, 96240, Note_on_c, 12, 60, 0
13, 96240, Note_on_c, 12, 58, 90
13, 96480, Note_on_c, 12, 58, 0
13, 96480, Note_on_c, 12, 60, 90
13, 96720, Note_on_c, 12, 60, 0
13, 96720, Note_on_c, 12, 58, 90
13, 96960, Note_on_c, 12, 58, 0
13, 96960, Note_on_c, 12, 60, 90
13, 97200, Note_on_c, 12, 60, 0
13, 97200, Note_on_c, 12, 58, 90
13, 97440, Note_on_c, 12, 58, 0
13, 97440, Note_on_c, 12, 60, 90
13, 97680, Note_on_c, 12, 60, 0
13, 97680, Note_on_c, 12, 58, 90
13, 97920, Note_on_c, 12, 58, 0
13, 97920, Note_on_c, 12, 57, 90
13, 98400, Note_on_c, 12, 57, 0
13, 98400, Note_on_c, 12, 45, 90
13, 98880, Note_on_c, 12, 45, 0
13, 99360, Note_on_c, 12, 57, 90
13, 99600, Note_on_c, 12, 57, 0
13, 99600, Note_on_c, 12, 57, 90
13, 99840, Note_on_c, 12, 57, 0
13, 99840, Note_on_c, 12, 62, 90
13, 100080, Note_on_c, 12, 62, 0
13, 100080, Note_on_c, 12, 50, 90
13, 100320, Note_on_c, 12, 50, 0
13, 100320, Note_on_c, 12, 45, 90
13, 100560, Note_on_c, 12, 45, 0
13, 100560, Note_on_c, 12, 57, 90
13, 100800, Note_on_c, 12, 57, 0
13, 100800, Note_on_c, 12, 62, 90
13, 101040, Note_on_c, 12, 62, 0
13, 101040, Note_on_c, 12, 50, 90
13, 101280, Note_on_c, 12, 50, 0
13, 101280, Note_on_c, 12, 45, 90
13, 101520, Note_on_c, 12, 45, 0
13, 101520, Note_on_c, 12, 57, 90
13, 101760, Note_on_c, 12, 57, 0
13, 101760, Note_on_c, 12, 62, 90
13, 102000, Note_on_c, 12, 62, 0
13, 102000, Note_on_c, 12, 50, 90
13, 102240, Note_on_c, 12, 50, 0
13, 102240, Note_on_c, 12, 57, 90
13, 102720, Note_on_c, 12, 57, 0
13, 103200, Note_on_c, 12, 62, 90
13, 103440, Note_on_c, 12, 62, 0
13, 103440, Note_on_c, 12, 50, 90
13, 103680, Note_on_c, 12, 50, 0
13, 103680, Note_on_c, 12, 49, 90
13, 103920, Note_on_c, 12, 49, 0
13, 103920, Note_on_c, 12, 61, 90
13, 104160, Note_on_c, 12, 61, 0
13, 104160, Note_on_c, 12, 62, 90
13, 104400, Note_on_c, 12, 62, 0
13, 104400, Note_on_c, 12, 50, 90
13, 104640, Note_on_c, 12, 50, 0
13, 104640, Note_on_c, 12, 49, 90
13, 104880, Note_on_c, 12, 49, 0
13, 104880, Note_on_c, 12, 61, 90
13, 105120, Note_on_c, 12, 61, 0
13, 105120, Note_on_c, 12, 62, 90
13, 105360, Note_on_c, 12, 62, 0
13, 105360, Note_on_c, 12, 50, 90
13, 105600, Note_on_c, 12, 50, 0
13, 105600, Note_on_c, 12, 49, 90
13, 105840, Note_on_c, 12, 49, 0
13, 105840, Note_on_c, 12, 61, 90
13, 106080, Note_on_c, 12, 61, 0
13, 106080, Note_on_c, 12, 62, 90
13, 106320, Note_on_c, 12, 62, 0
13, 106320, Note_on_c, 12, 57, 90
13, 106560, Note_on_c, 12, 57, 0
13, 106560, Note_on_c, 12, 53, 90
13, 106800, Note_on_c, 12, 53, 0
13, 106800, Note_on_c, 12, 50, 90
13, 107040, Note_on_c, 12, 50, 0
13, 107040, Note_on_c, 12, 53, 90
13, 107280, Note_on_c, 12, 53, 0
13, 107280, Note_on_c, 12, 57, 90
13, 107520, Note_on_c, 12, 57, 0
13, 107520, Note_on_c, 12, 50, 90
13, 107760, Note_on_c, 12, 50, 0
13, 107760, Note_on_c, 12, 53, 90
13, 108000, Note_on_c, 12, 53, 0
13, 108000, Note_on_c, 12, 57, 90
13, 108240, Note_on_c, 12, 57, 0
13, 108240, Note_on_c, 12, 62, 90
13, 108480, Note_on_c, 12, 62, 0
13, 108480, Note_on_c, 12, 50, 90
13, 108720, Note_on_c, 12, 50, 0
13, 108720, Note_on_c, 12, 53, 90
13, 108960, Note_on_c, 12, 53, 0
13, 108960, Note_on_c, 12, 57, 90
13, 109200, Note_on_c, 12, 57, 0
13, 109200, Note_on_c, 12, 62, 90
13, 109440, Note_on_c, 12, 62, 0
13, 109440, Note_on_c, 12, 41, 90
13, 109680, Note_on_c, 12, 41, 0
13, 109680, Note_on_c, 12, 45, 90
13, 109920, Note_on_c, 12, 45, 0
13, 109920, Note_on_c, 12, 50, 90
13, 110160, Note_on_c, 12, 50, 0
13, 110160, Note_on_c, 12, 53, 90
13, 110400, Note_on_c, 12, 53, 0
13, 110400, Note_on_c, 12, 41, 90
13, 110640, Note_on_c, 12, 41, 0
13, 110640, Note_on_c, 12, 45, 90
13, 110880, Note_on_c, 12, 45, 0
13, 110880, Note_on_c, 12, 50, 90
13, 111120, Note_on_c, 12, 50, 0
13, 111120, Note_on_c, 12, 53, 90
13, 111360, Note_on_c, 12, 53, 0
13, 111360, Note_on_c, 12, 46, 90
13, 111600, Note_on_c, 12, 46, 0
13, 111600, Note_on_c, 12, 50, 90
13, 111840, Note_on_c, 12, 50, 0
13, 111840, Note_on_c, 12, 53, 90
13, 112080, Note_on_c, 12, 53, 0
13, 112080, Note_on_c, 12, 58, 90
13, 112320, Note_on_c, 12, 58, 0
13, 112320, Note_on_c, 12, 40, 90
13, 112560, Note_on_c, 12, 40, 0
13, 112560, Note_on_c, 12, 43, 90
13, 112800, Note_on_c, 12, 43, 0
13, 112800, Note_on_c, 12, 46, 90
13, 113040, Note_on_c, 12, 46, 0
13, 113040, Note_on_c, 12, 52, 90
13, 113280, Note_on_c, 12, 52, 0
13, 113280, Note_on_c, 12, 45, 90
13, 113520, Note_on_c, 12, 45, 0
13, 113520, Note_on_c, 12, 57, 90
13, 113760, Note_on_c, 12, 57, 0
13, 113760, Note_on_c, 12, 50, 90
13, 114000, Note_on_c, 12, 50, 0
13, 114000, Note_on_c, 12, 53, 90
13, 114240, Note_on_c, 12, 53, 0
13, 114240, Note_on_c, 12, 57, 90
13, 114480, Note_on_c, 12, 57, 0
13, 114480, Note_on_c, 12, 55, 90
13, 114720, Note_on_c, 12, 55, 0
13, 114720, Note_on_c, 12, 57, 90
13, 114960, Note_on_c, 12, 57, 0
13, 114960, Note_on_c, 12, 45, 90
13, 115200, Note_on_c, 12, 45, 0
13, 115200, Note_on_c, 12, 50, 90
13, 115440, Note_on_c, 12, 50, 0
13, 115440, Note_on_c, 12, 53, 90
13, 115680, Note_on_c, 12, 53, 0
13, 115680, Note_on_c, 12, 57, 90
13, 115920, Note_on_c, 12, 57, 0
13, 115920, Note_on_c, 12, 62, 90
13, 116160, Note_on_c, 12, 62, 0
13, 116160, Note_on_c, 12, 50, 90
13, 116400, Note_on_c, 12, 50, 0
13, 116400, Note_on_c, 12, 53, 90
13, 116640, Note_on_c, 12, 53, 0
13, 116640, Note_on_c, 12, 57, 90
13, 116880, Note_on_c, 12, 57, 0
13, 116880, Note_on_c, 12, 62, 90
13, 117120, Note_on_c, 12, 62, 0
13, 117120, Note_on_c, 12, 46, 90
13, 117360, Note_on_c, 12, 46, 0
13, 117360, Note_on_c, 12, 50, 90
13, 117600, Note_on_c, 12, 50, 0
13, 117600, Note_on_c, 12, 53, 90
13, 117840, Note_on_c, 12, 53, 0
13, 117840, Note_on_c, 12, 58, 90
13, 118080, Note_on_c, 12, 58, 0
13, 118080, Note_on_c, 12, 46, 90
13, 118320, Note_on_c, 12, 46, 0
13, 118320, Note_on_c, 12, 50, 90
13, 118560, Note_on_c, 12, 50, 0
13, 118560, Note_on_c, 12, 53, 90
13, 118800, Note_on_c, 12, 53, 0
13, 118800, Note_on_c, 12, 58, 90
13, 119040, Note_on_c, 12, 58, 0
13, 119040, Note_on_c, 12, 43, 90
13, 119280, Note_on_c, 12, 43, 0
13, 119280, Note_on_c, 12, 46, 90
13, 119520, Note_on_c, 12, 46, 0
13, 119520, Note_on_c, 12, 51, 90
13, 119760, Note_on_c, 12, 51, 0
13, 119760, Note_on_c, 12, 55, 90
13, 120000, Note_on_c, 12, 55, 0
13, 120000, Note_on_c, 12, 43, 90
13, 120240, Note_on_c, 12, 43, 0
13, 120240, Note_on_c, 12, 46, 90
13, 120480, Note_on_c, 12, 46, 0
13, 120480, Note_on_c, 12, 51, 90
13, 120720, Note_on_c, 12, 51, 0
13, 120720, Note_on_c, 12, 55, 90
13, 120960, Note_on_c, 12, 55, 0
13, 120960, Note_on_c, 12, 45, 90
13, 121200, Note_on_c, 12, 45, 0
13, 121200, Note_on_c, 12, 57, 90
13, 121440, Note_on_c, 12, 57, 0
13, 121440, Note_on_c, 12, 50, 90
13, 121680, Note_on_c, 12, 50, 0
13, 121680, Note_on_c, 12, 53, 90
13, 121920, Note_on_c, 12, 53, 0
13, 121920, Note_on_c, 12, 57, 90
13, 122160, Note_on_c, 12, 57, 0
13, 122160, Note_on_c, 12, 55, 90
13, 122400, Note_on_c, 12, 55, 0
13, 122400, Note_on_c, 12, 57, 90
13, 122640, Note_on_c, 12, 57, 0
13, 122640, Note_on_c, 12, 45, 90
13, 122880, Note_on_c, 12, 45, 0
13, 122880, Note_on_c, 12, 50, 90
13, 123360, Note_on_c, 12, 50, 0
13, 123600, Note_on_c, 12, 57, 90
13, 123840, Note_on_c, 12, 57, 0
13, 123840, Note_on_c, 12, 62, 90
13, 124080, Note_on_c, 12, 62, 0
13, 124080, Note_on_c, 12, 65, 90
13, 124320, Note_on_c, 12, 65, 0
13, 124320, Note_on_c, 12, 64, 90
13, 124560, Note_on_c, 12, 64, 0
13, 124560, Note_on_c, 12, 62, 90
13, 124800, Note_on_c, 12, 62, 0
13, 124800, Note_on_c, 12, 61, 90
13, 125040, Note_on_c, 12, 61, 0
13, 125040, Note_on_c, 12, 58, 90
13, 125280, Note_on_c, 12, 58, 0
13, 125280, Note_on_c, 12, 55, 90
13, 125520, Note_on_c, 12, 55, 0
13, 125520, Note_on_c, 12, 53, 90
13, 125760, Note_on_c, 12, 53, 0
13, 125760, Note_on_c, 12, 52, 90
13, 126000, Note_on_c, 12, 52, 0
13, 126000, Note_on_c, 12, 50, 90
13, 126240, Note_on_c, 12, 50, 0
13, 126240, Note_on_c, 12, 49, 90
13, 126480, Note_on_c, 12, 49, 0
13, 126480, Note_on_c, 12, 52, 90
13, 126720, Note_on_c, 12, 52, 0
13, 126720, Note_on_c, 12, 50, 90
13, 126960, Note_on_c, 12, 50, 0
13, 126960, Note_on_c, 12, 53, 90
13, 127200, Note_on_c, 12, 53, 0
13, 127200, Note_on_c, 12, 55, 90
13, 127440, Note_on_c, 12, 55, 0
13, 127440, Note_on_c, 12, 58, 90
13, 127680, Note_on_c, 12, 58, 0
13, 127680, Note_on_c, 12, 57, 90
13, 127920, Note_on_c, 12, 57, 0
13, 127920, Note_on_c, 12, 55, 90
13, 128160, Note_on_c, 12, 55, 0
13, 128160, Note_on_c, 12, 57, 90
13, 128400, Note_on_c, 12, 57, 0
13, 128400, Note_on_c, 12, 45, 90
13, 128640, Note_on_c, 12, 45, 0
13, 128640, Note_on_c, 12, 50, 90
13, 129120, Note_on_c, 12, 50, 0
13, 129120, End_track
0, 0, End_of_file
