0, 0, Header, 1, 7, 384
1, 0, Start_track
1, 0, Sequencer_specific, 3, 0, 0, 65
1, 0, Time_signature, 4, 2, 24, 8
1, 0, Key_signature, 0, "major"
1, 0, Tempo, 1463415
1, 30720, Tempo, 674157
1, 30720, End_track
2, 0, Start_track
2, 0, MIDI_port, 0
2, 0, Title_t, "Piano"
2, 0, Control_c, 0, 0, 0
2, 0, Control_c, 0, 32, 0
2, 0, Program_c, 0, 0
2, 0, Control_c, 0, 7, 127
2, 0, Control_c, 0, 10, 75
2, 1, Control_c, 0, 91, 80
2, 2, Note_on_c, 0, 63, 98
2, 2, Note_on_c, 0, 58, 98
2, 2, Note_on_c, 0, 55, 98
2, 322, Note_on_c, 0, 55, 0
2, 322, Note_on_c, 0, 58, 0
2, 322, Note_on_c, 0, 63, 0
2, 384, Note_on_c, 0, 70, 98
2, 672, Note_on_c, 0, 70, 0
2, 672, Note_on_c, 0, 74, 98
2, 720, Note_on_c, 0, 74, 0
2, 720, Note_on_c, 0, 72, 98
2, 768, Note_on_c, 0, 72, 0
2, 768, Note_on_c, 0, 70, 98
2, 956, Note_on_c, 0, 70, 0
2, 960, Note_on_c, 0, 82, 98
2, 1152, Note_on_c, 0, 82, 0
2, 1152, Note_on_c, 0, 74, 98
2, 1344, Note_on_c, 0, 74, 0
2, 1344, Note_on_c, 0, 75, 98
2, 1532, Note_on_c, 0, 75, 0
2, 1536, Note_on_c, 0, 65, 98
2, 1536, Note_on_c, 0, 70, 98
2, 1536, Note_on_c, 0, 74, 98
2, 1536, Note_on_c, 0, 77, 98
2, 1920, Note_on_c, 0, 77, 0
2, 1920, Note_on_c, 0, 65, 0
2, 1920, Note_on_c, 0, 70, 0
2, 1920, Note_on_c, 0, 74, 0
2, 1920, Note_on_c, 0, 70, 98
2, 2208, Note_on_c, 0, 70, 0
2, 2208, Note_on_c, 0, 74, 98
2, 2256, Note_on_c, 0, 74, 0
2, 2256, Note_on_c, 0, 72, 98
2, 2304, Note_on_c, 0, 72, 0
2, 2304, Note_on_c, 0, 70, 98
2, 2492, Note_on_c, 0, 70, 0
2, 2496, Note_on_c, 0, 82, 98
2, 2688, Note_on_c, 0, 82, 0
2, 2688, Note_on_c, 0, 75, 98
2, 2880, Note_on_c, 0, 75, 0
2, 2880, Note_on_c, 0, 77, 98
2, 3068, Note_on_c, 0, 77, 0
2, 3072, Note_on_c, 0, 67, 98
2, 3072, Note_on_c, 0, 70, 98
2, 3072, Note_on_c, 0, 75, 98
2, 3072, Note_on_c, 0, 79, 98
2, 3456, Note_on_c, 0, 79, 0
2, 3456, Note_on_c, 0, 67, 0
2, 3456, Note_on_c, 0, 70, 0
2, 3456, Note_on_c, 0, 75, 0
2, 3456, Note_on_c, 0, 70, 98
2, 3744, Note_on_c, 0, 70, 0
2, 3744, Note_on_c, 0, 74, 98
2, 3792, Note_on_c, 0, 74, 0
2, 3792, Note_on_c, 0, 72, 98
2, 3840, Note_on_c, 0, 72, 0
2, 3840, Note_on_c, 0, 70, 98
2, 4028, Note_on_c, 0, 70, 0
2, 4032, Note_on_c, 0, 79, 98
2, 4032, Note_on_c, 0, 82, 98
2, 4224, Note_on_c, 0, 82, 0
2, 4224, Note_on_c, 0, 79, 0
2, 4224, Note_on_c, 0, 77, 98
2, 4224, Note_on_c, 0, 80, 98
2, 4416, Note_on_c, 0, 80, 0
2, 4416, Note_on_c, 0, 77, 0
2, 4416, Note_on_c, 0, 75, 98
2, 4416, Note_on_c, 0, 79, 98
2, 4604, Note_on_c, 0, 79, 0
2, 4604, Note_on_c, 0, 75, 0
2, 4608, Note_on_c, 0, 75, 98
2, 4608, Note_on_c, 0, 79, 98
2, 4704, Note_on_c, 0, 79, 0
2, 4704, Note_on_c, 0, 75, 0
2, 4704, Note_on_c, 0, 77, 98
2, 4796, Note_on_c, 0, 77, 0
2, 4800, Note_on_c, 0, 75, 98
2, 4800, Note_on_c, 0, 77, 98
2, 4988, Note_on_c, 0, 77, 0
2, 4988, Note_on_c, 0, 75, 0
2, 5184, Note_on_c, 0, 75, 98
2, 5184, Note_on_c, 0, 78, 98
2, 5372, Note_on_c, 0, 78, 0
2, 5372, Note_on_c, 0, 75, 0
2, 5568, Note_on_c, 0, 75, 98
2, 5568, Note_on_c, 0, 79, 98
2, 5756, Note_on_c, 0, 79, 0
2, 5756, Note_on_c, 0, 75, 0
2, 5760, Note_on_c, 0, 74, 98
2, 5760, Note_on_c, 0, 82, 98
2, 5952, Note_on_c, 0, 82, 0
2, 5952, Note_on_c, 0, 74, 0
2, 5952, Note_on_c, 0, 80, 98
2, 6096, Note_on_c, 0, 80, 0
2, 6096, Note_on_c, 0, 77, 98
2, 6140, Note_on_c, 0, 77, 0
2, 6144, Note_on_c, 0, 63, 98
2, 6144, Note_on_c, 0, 67, 98
2, 6144, Note_on_c, 0, 70, 98
2, 6144, Note_on_c, 0, 75, 98
2, 6528, Note_on_c, 0, 75, 0
2, 6528, Note_on_c, 0, 63, 0
2, 6528, Note_on_c, 0, 67, 0
2, 6528, Note_on_c, 0, 70, 0
2, 7680, Note_on_c, 0, 62, 98
2, 7680, Note_on_c, 0, 65, 98
2, 7680, Note_on_c, 0, 68, 98
2, 7680, Note_on_c, 0, 70, 98
2, 7680, Note_on_c, 0, 74, 98
2, 8064, Note_on_c, 0, 74, 0
2, 8064, Note_on_c, 0, 68, 0
2, 8064, Note_on_c, 0, 62, 0
2, 8064, Note_on_c, 0, 65, 0
2, 8064, Note_on_c, 0, 70, 0
2, 9216, Note_on_c, 0, 64, 98
2, 9216, Note_on_c, 0, 67, 98
2, 9216, Note_on_c, 0, 70, 98
2, 9216, Note_on_c, 0, 73, 98
2, 9216, Note_on_c, 0, 76, 98
2, 9536, Note_on_c, 0, 76, 0
2, 9536, Note_on_c, 0, 70, 0
2, 9536, Note_on_c, 0, 64, 0
2, 9536, Note_on_c, 0, 67, 0
2, 9536, Note_on_c, 0, 73, 0
2, 9600, Note_on_c, 0, 76, 98
2, 9888, Note_on_c, 0, 76, 0
2, 9888, Note_on_c, 0, 79, 98
2, 9936, Note_on_c, 0, 79, 0
2, 9936, Note_on_c, 0, 77, 98
2, 9984, Note_on_c, 0, 77, 0
2, 9984, Note_on_c, 0, 76, 98
2, 10172, Note_on_c, 0, 76, 0
2, 10176, Note_on_c, 0, 85, 98
2, 10368, Note_on_c, 0, 85, 0
2, 10368, Note_on_c, 0, 84, 98
2, 10560, Note_on_c, 0, 84, 0
2, 10560, Note_on_c, 0, 82, 98
2, 10748, Note_on_c, 0, 82, 0
2, 10752, Note_on_c, 0, 80, 98
2, 11424, Note_on_c, 0, 80, 0
2, 11424, Note_on_c, 0, 77, 98
2, 11472, Note_on_c, 0, 77, 0
2, 11472, Note_on_c, 0, 79, 98
2, 11520, Note_on_c, 0, 79, 0
2, 11520, Note_on_c, 0, 80, 98
2, 11664, Note_on_c, 0, 80, 0
2, 11664, Note_on_c, 0, 77, 98
2, 11712, Note_on_c, 0, 77, 0
2, 11712, Note_on_c, 0, 74, 98
2, 11900, Note_on_c, 0, 74, 0
2, 12384, Note_on_c, 0, 58, 98
2, 12480, Note_on_c, 0, 58, 0
2, 12480, Note_on_c, 0, 70, 98
2, 12576, Note_on_c, 0, 70, 0
2, 12576, Note_on_c, 0, 67, 98
2, 12668, Note_on_c, 0, 67, 0
2, 12768, Note_on_c, 0, 60, 98
2, 12864, Note_on_c, 0, 60, 0
2, 12864, Note_on_c, 0, 72, 98
2, 12960, Note_on_c, 0, 72, 0
2, 12960, Note_on_c, 0, 68, 98
2, 13052, Note_on_c, 0, 68, 0
2, 13152, Note_on_c, 0, 58, 98
2, 13248, Note_on_c, 0, 58, 0
2, 13248, Note_on_c, 0, 70, 98
2, 13344, Note_on_c, 0, 70, 0
2, 13344, Note_on_c, 0, 67, 98
2, 13436, Note_on_c, 0, 67, 0
2, 13536, Note_on_c, 0, 56, 98
2, 13632, Note_on_c, 0, 56, 0
2, 13632, Note_on_c, 0, 68, 98
2, 13728, Note_on_c, 0, 68, 0
2, 13728, Note_on_c, 0, 65, 98
2, 13820, Note_on_c, 0, 65, 0
2, 13872, Note_on_c, 0, 55, 98
2, 13920, Note_on_c, 0, 55, 0
2, 13920, Note_on_c, 0, 58, 98
2, 13968, Note_on_c, 0, 58, 0
2, 13968, Note_on_c, 0, 63, 98
2, 14016, Note_on_c, 0, 63, 0
2, 14016, Note_on_c, 0, 67, 98
2, 14064, Note_on_c, 0, 67, 0
2, 14064, Note_on_c, 0, 63, 98
2, 14112, Note_on_c, 0, 63, 0
2, 14112, Note_on_c, 0, 58, 98
2, 14160, Note_on_c, 0, 58, 0
2, 14160, Note_on_c, 0, 55, 98
2, 14204, Note_on_c, 0, 55, 0
2, 14256, Note_on_c, 0, 55, 98
2, 14304, Note_on_c, 0, 55, 0
2, 14304, Note_on_c, 0, 60, 98
2, 14352, Note_on_c, 0, 60, 0
2, 14352, Note_on_c, 0, 63, 98
2, 14400, Note_on_c, 0, 63, 0
2, 14400, Note_on_c, 0, 67, 98
2, 14448, Note_on_c, 0, 67, 0
2, 14448, Note_on_c, 0, 63, 98
2, 14496, Note_on_c, 0, 63, 0
2, 14496, Note_on_c, 0, 60, 98
2, 14544, Note_on_c, 0, 60, 0
2, 14544, Note_on_c, 0, 55, 98
2, 14588, Note_on_c, 0, 55, 0
2, 14640, Note_on_c, 0, 56, 98
2, 14688, Note_on_c, 0, 56, 0
2, 14688, Note_on_c, 0, 60, 98
2, 14736, Note_on_c, 0, 60, 0
2, 14736, Note_on_c, 0, 63, 98
2, 14784, Note_on_c, 0, 63, 0
2, 14784, Note_on_c, 0, 68, 98
2, 14832, Note_on_c, 0, 68, 0
2, 14832, Note_on_c, 0, 63, 98
2, 14880, Note_on_c, 0, 63, 0
2, 14880, Note_on_c, 0, 60, 98
2, 14928, Note_on_c, 0, 60, 0
2, 14928, Note_on_c, 0, 56, 98
2, 14972, Note_on_c, 0, 56, 0
2, 15024, Note_on_c, 0, 56, 98
2, 15072, Note_on_c, 0, 56, 0
2, 15072, Note_on_c, 0, 62, 98
2, 15120, Note_on_c, 0, 62, 0
2, 15120, Note_on_c, 0, 65, 98
2, 15168, Note_on_c, 0, 65, 0
2, 15168, Note_on_c, 0, 68, 98
2, 15216, Note_on_c, 0, 68, 0
2, 15216, Note_on_c, 0, 65, 98
2, 15264, Note_on_c, 0, 65, 0
2, 15264, Note_on_c, 0, 62, 98
2, 15312, Note_on_c, 0, 62, 0
2, 15312, Note_on_c, 0, 56, 98
2, 15356, Note_on_c, 0, 56, 0
2, 15408, Note_on_c, 0, 58, 98
2, 15456, Note_on_c, 0, 58, 0
2, 15456, Note_on_c, 0, 62, 98
2, 15504, Note_on_c, 0, 62, 0
2, 15504, Note_on_c, 0, 65, 98
2, 15552, Note_on_c, 0, 65, 0
2, 15552, Note_on_c, 0, 70, 98
2, 15600, Note_on_c, 0, 70, 0
2, 15600, Note_on_c, 0, 65, 98
2, 15648, Note_on_c, 0, 65, 0
2, 15648, Note_on_c, 0, 62, 98
2, 15696, Note_on_c, 0, 62, 0
2, 15696, Note_on_c, 0, 58, 98
2, 15740, Note_on_c, 0, 58, 0
2, 15792, Note_on_c, 0, 58, 98
2, 15840, Note_on_c, 0, 58, 0
2, 15840, Note_on_c, 0, 63, 98
2, 15888, Note_on_c, 0, 63, 0
2, 15888, Note_on_c, 0, 67, 98
2, 15936, Note_on_c, 0, 67, 0
2, 15936, Note_on_c, 0, 70, 98
2, 15984, Note_on_c, 0, 70, 0
2, 15984, Note_on_c, 0, 67, 98
2, 16032, Note_on_c, 0, 67, 0
2, 16032, Note_on_c, 0, 63, 98
2, 16080, Note_on_c, 0, 63, 0
2, 16080, Note_on_c, 0, 58, 98
2, 16124, Note_on_c, 0, 58, 0
2, 16176, Note_on_c, 0, 60, 98
2, 16224, Note_on_c, 0, 60, 0
2, 16224, Note_on_c, 0, 63, 98
2, 16272, Note_on_c, 0, 63, 0
2, 16272, Note_on_c, 0, 67, 98
2, 16320, Note_on_c, 0, 67, 0
2, 16320, Note_on_c, 0, 70, 98
2, 16368, Note_on_c, 0, 70, 0
2, 16368, Note_on_c, 0, 67, 98
2, 16416, Note_on_c, 0, 67, 0
2, 16416, Note_on_c, 0, 64, 98
2, 16464, Note_on_c, 0, 64, 0
2, 16464, Note_on_c, 0, 60, 98
2, 16508, Note_on_c, 0, 60, 0
2, 16560, Note_on_c, 0, 60, 98
2, 16608, Note_on_c, 0, 60, 0
2, 16608, Note_on_c, 0, 65, 98
2, 16656, Note_on_c, 0, 65, 0
2, 16656, Note_on_c, 0, 68, 98
2, 16704, Note_on_c, 0, 68, 0
2, 16704, Note_on_c, 0, 72, 98
2, 16752, Note_on_c, 0, 72, 0
2, 16752, Note_on_c, 0, 68, 98
2, 16800, Note_on_c, 0, 68, 0
2, 16800, Note_on_c, 0, 65, 98
2, 16848, Note_on_c, 0, 65, 0
2, 16848, Note_on_c, 0, 60, 98
2, 16892, Note_on_c, 0, 60, 0
2, 17088, Note_on_c, 0, 68, 98
2, 17088, Note_on_c, 0, 77, 98
2, 17184, Note_on_c, 0, 77, 0
2, 17184, Note_on_c, 0, 68, 0
2, 17184, Note_on_c, 0, 67, 98
2, 17184, Note_on_c, 0, 75, 98
2, 17280, Note_on_c, 0, 75, 0
2, 17280, Note_on_c, 0, 67, 0
2, 17280, Note_on_c, 0, 65, 98
2, 17280, Note_on_c, 0, 74, 98
2, 17376, Note_on_c, 0, 74, 0
2, 17376, Note_on_c, 0, 65, 0
2, 17376, Note_on_c, 0, 63, 98
2, 17376, Note_on_c, 0, 72, 98
2, 17472, Note_on_c, 0, 72, 0
2, 17472, Note_on_c, 0, 63, 0
2, 17472, Note_on_c, 0, 62, 98
2, 17472, Note_on_c, 0, 70, 98
2, 17568, Note_on_c, 0, 70, 0
2, 17568, Note_on_c, 0, 62, 0
2, 17568, Note_on_c, 0, 65, 98
2, 17568, Note_on_c, 0, 68, 98
2, 17660, Note_on_c, 0, 68, 0
2, 17660, Note_on_c, 0, 65, 0
2, 17664, Note_on_c, 0, 63, 98
2, 17664, Note_on_c, 0, 67, 98
2, 17852, Note_on_c, 0, 67, 0
2, 17852, Note_on_c, 0, 63, 0
2, 18168, Note_on_c, 0, 63, 98
2, 18192, Note_on_c, 0, 63, 0
2, 18192, Note_on_c, 0, 67, 98
2, 18216, Note_on_c, 0, 67, 0
2, 18216, Note_on_c, 0, 70, 98
2, 18240, Note_on_c, 0, 70, 0
2, 18240, Note_on_c, 0, 75, 98
2, 18332, Note_on_c, 0, 75, 0
2, 18384, Note_on_c, 0, 70, 98
2, 18384, Note_on_c, 0, 75, 98
2, 18428, Note_on_c, 0, 75, 0
2, 18428, Note_on_c, 0, 70, 0
2, 18432, Note_on_c, 0, 68, 98
2, 18432, Note_on_c, 0, 75, 98
2, 18576, Note_on_c, 0, 75, 0
2, 18576, Note_on_c, 0, 74, 98
2, 18620, Note_on_c, 0, 74, 0
2, 18620, Note_on_c, 0, 68, 0
2, 18624, Note_on_c, 0, 68, 98
2, 18624, Note_on_c, 0, 77, 98
2, 18812, Note_on_c, 0, 77, 0
2, 18812, Note_on_c, 0, 68, 0
2, 18936, Note_on_c, 0, 65, 98
2, 18960, Note_on_c, 0, 65, 0
2, 18960, Note_on_c, 0, 68, 98
2, 18984, Note_on_c, 0, 68, 0
2, 18984, Note_on_c, 0, 74, 98
2, 19008, Note_on_c, 0, 74, 0
2, 19008, Note_on_c, 0, 77, 98
2, 19100, Note_on_c, 0, 77, 0
2, 19152, Note_on_c, 0, 68, 98
2, 19152, Note_on_c, 0, 74, 98
2, 19152, Note_on_c, 0, 77, 98
2, 19196, Note_on_c, 0, 77, 0
2, 19196, Note_on_c, 0, 74, 0
2, 19196, Note_on_c, 0, 68, 0
2, 19200, Note_on_c, 0, 70, 98
2, 19200, Note_on_c, 0, 77, 98
2, 19340, Note_on_c, 0, 77, 0
2, 19344, Note_on_c, 0, 75, 98
2, 19388, Note_on_c, 0, 75, 0
2, 19388, Note_on_c, 0, 70, 0
2, 19392, Note_on_c, 0, 70, 98
2, 19392, Note_on_c, 0, 75, 98
2, 19392, Note_on_c, 0, 79, 98
2, 19580, Note_on_c, 0, 79, 0
2, 19580, Note_on_c, 0, 75, 0
2, 19580, Note_on_c, 0, 70, 0
2, 19704, Note_on_c, 0, 67, 98
2, 19728, Note_on_c, 0, 67, 0
2, 19728, Note_on_c, 0, 70, 98
2, 19752, Note_on_c, 0, 70, 0
2, 19752, Note_on_c, 0, 75, 98
2, 19772, Note_on_c, 0, 75, 0
2, 19776, Note_on_c, 0, 79, 98
2, 19868, Note_on_c, 0, 79, 0
2, 19920, Note_on_c, 0, 70, 98
2, 19920, Note_on_c, 0, 75, 98
2, 19920, Note_on_c, 0, 79, 98
2, 19964, Note_on_c, 0, 79, 0
2, 19964, Note_on_c, 0, 75, 0
2, 19964, Note_on_c, 0, 70, 0
2, 19968, Note_on_c, 0, 72, 98
2, 19968, Note_on_c, 0, 79, 98
2, 20108, Note_on_c, 0, 79, 0
2, 20112, Note_on_c, 0, 77, 98
2, 20156, Note_on_c, 0, 77, 0
2, 20156, Note_on_c, 0, 72, 0
2, 20160, Note_on_c, 0, 72, 98
2, 20160, Note_on_c, 0, 80, 98
2, 20348, Note_on_c, 0, 80, 0
2, 20348, Note_on_c, 0, 72, 0
2, 20496, Note_on_c, 0, 72, 98
2, 20540, Note_on_c, 0, 72, 0
2, 20544, Note_on_c, 0, 75, 98
2, 20544, Note_on_c, 0, 77, 98
2, 20544, Note_on_c, 0, 84, 98
2, 20684, Note_on_c, 0, 84, 0
2, 20684, Note_on_c, 0, 77, 0
2, 20684, Note_on_c, 0, 75, 0
2, 20688, Note_on_c, 0, 75, 98
2, 20688, Note_on_c, 0, 77, 98
2, 20688, Note_on_c, 0, 84, 98
2, 20732, Note_on_c, 0, 84, 0
2, 20732, Note_on_c, 0, 77, 0
2, 20732, Note_on_c, 0, 75, 0
2, 20736, Note_on_c, 0, 75, 98
2, 20736, Note_on_c, 0, 77, 98
2, 20736, Note_on_c, 0, 84, 98
2, 20924, Note_on_c, 0, 84, 0
2, 20924, Note_on_c, 0, 77, 0
2, 20924, Note_on_c, 0, 75, 0
2, 21264, Note_on_c, 0, 60, 98
2, 21264, Note_on_c, 0, 63, 98
2, 21308, Note_on_c, 0, 63, 0
2, 21308, Note_on_c, 0, 60, 0
2, 21312, Note_on_c, 0, 69, 98
2, 21312, Note_on_c, 0, 72, 98
2, 21312, Note_on_c, 0, 75, 98
2, 21452, Note_on_c, 0, 75, 0
2, 21452, Note_on_c, 0, 72, 0
2, 21452, Note_on_c, 0, 69, 0
2, 21456, Note_on_c, 0, 69, 98
2, 21456, Note_on_c, 0, 72, 98
2, 21456, Note_on_c, 0, 75, 98
2, 21500, Note_on_c, 0, 75, 0
2, 21500, Note_on_c, 0, 72, 0
2, 21500, Note_on_c, 0, 69, 0
2, 21504, Note_on_c, 0, 69, 98
2, 21504, Note_on_c, 0, 72, 98
2, 21504, Note_on_c, 0, 75, 98
2, 21824, Note_on_c, 0, 75, 0
2, 21824, Note_on_c, 0, 72, 0
2, 21824, Note_on_c, 0, 69, 0
2, 21888, Note_on_c, 0, 57, 98
2, 21888, Note_on_c, 0, 60, 98
2, 21888, Note_on_c, 0, 63, 98
2, 22208, Note_on_c, 0, 63, 0
2, 22208, Note_on_c, 0, 60, 0
2, 22208, Note_on_c, 0, 57, 0
2, 22272, Note_on_c, 0, 53, 98
2, 22272, Note_on_c, 0, 58, 98
2, 22272, Note_on_c, 0, 62, 98
2, 22592, Note_on_c, 0, 62, 0
2, 22592, Note_on_c, 0, 58, 0
2, 22592, Note_on_c, 0, 53, 0
2, 23088, Note_on_c, 0, 51, 98
2, 23136, Note_on_c, 0, 51, 0
2, 23136, Note_on_c, 0, 54, 98
2, 23184, Note_on_c, 0, 54, 0
2, 23184, Note_on_c, 0, 57, 98
2, 23232, Note_on_c, 0, 57, 0
2, 23232, Note_on_c, 0, 60, 98
2, 23280, Note_on_c, 0, 60, 0
2, 23280, Note_on_c, 0, 57, 98
2, 23328, Note_on_c, 0, 57, 0
2, 23328, Note_on_c, 0, 53, 98
2, 23376, Note_on_c, 0, 53, 0
2, 23376, Note_on_c, 0, 51, 98
2, 23424, Note_on_c, 0, 51, 0
2, 23424, Note_on_c, 0, 60, 98
2, 23472, Note_on_c, 0, 60, 0
2, 23472, Note_on_c, 0, 57, 98
2, 23520, Note_on_c, 0, 57, 0
2, 23520, Note_on_c, 0, 53, 98
2, 23568, Note_on_c, 0, 53, 0
2, 23568, Note_on_c, 0, 51, 98
2, 23616, Note_on_c, 0, 51, 0
2, 23616, Note_on_c, 0, 60, 98
2, 23664, Note_on_c, 0, 60, 0
2, 23664, Note_on_c, 0, 57, 98
2, 23712, Note_on_c, 0, 57, 0
2, 23712, Note_on_c, 0, 53, 98
2, 23760, Note_on_c, 0, 53, 0
2, 23760, Note_on_c, 0, 51, 98
2, 23804, Note_on_c, 0, 51, 0
2, 23808, Note_on_c, 0, 50, 98
2, 23808, Note_on_c, 0, 53, 98
2, 23808, Note_on_c, 0, 58, 98
2, 23996, Note_on_c, 0, 58, 0
2, 23996, Note_on_c, 0, 53, 0
2, 23996, Note_on_c, 0, 50, 0
2, 24624, Note_on_c, 0, 48, 98
2, 24672, Note_on_c, 0, 48, 0
2, 24672, Note_on_c, 0, 51, 98
2, 24720, Note_on_c, 0, 51, 0
2, 24720, Note_on_c, 0, 53, 98
2, 24768, Note_on_c, 0, 53, 0
2, 24768, Note_on_c, 0, 57, 98
2, 24816, Note_on_c, 0, 57, 0
2, 24816, Note_on_c, 0, 53, 98
2, 24864, Note_on_c, 0, 53, 0
2, 24864, Note_on_c, 0, 51, 98
2, 24912, Note_on_c, 0, 51, 0
2, 24912, Note_on_c, 0, 48, 98
2, 24960, Note_on_c, 0, 48, 0
2, 24960, Note_on_c, 0, 57, 98
2, 25008, Note_on_c, 0, 57, 0
2, 25008, Note_on_c, 0, 53, 98
2, 25056, Note_on_c, 0, 53, 0
2, 25056, Note_on_c, 0, 51, 98
2, 25104, Note_on_c, 0, 51, 0
2, 25104, Note_on_c, 0, 48, 98
2, 25152, Note_on_c, 0, 48, 0
2, 25152, Note_on_c, 0, 57, 98
2, 25200, Note_on_c, 0, 57, 0
2, 25200, Note_on_c, 0, 53, 98
2, 25248, Note_on_c, 0, 53, 0
2, 25248, Note_on_c, 0, 51, 98
2, 25296, Note_on_c, 0, 51, 0
2, 25296, Note_on_c, 0, 48, 98
2, 25340, Note_on_c, 0, 48, 0
2, 25344, Note_on_c, 0, 50, 98
2, 25344, Note_on_c, 0, 58, 98
2, 25532, Note_on_c, 0, 58, 0
2, 25532, Note_on_c, 0, 50, 0
2, 25536, Note_on_c, 0, 77, 98
2, 25536, Note_on_c, 0, 86, 98
2, 25728, Note_on_c, 0, 86, 0
2, 25728, Note_on_c, 0, 87, 98
2, 25776, Note_on_c, 0, 87, 0
2, 25776, Note_on_c, 0, 86, 98
2, 25820, Note_on_c, 0, 77, 0
2, 25824, Note_on_c, 0, 86, 0
2, 25824, Note_on_c, 0, 75, 98
2, 25824, Note_on_c, 0, 84, 98
2, 25872, Note_on_c, 0, 84, 0
2, 25872, Note_on_c, 0, 75, 0
2, 25872, Note_on_c, 0, 77, 98
2, 25872, Note_on_c, 0, 86, 98
2, 25920, Note_on_c, 0, 86, 0
2, 25920, Note_on_c, 0, 77, 0
2, 25920, Note_on_c, 0, 79, 98
2, 25920, Note_on_c, 0, 87, 98
2, 26016, Note_on_c, 0, 87, 0
2, 26016, Note_on_c, 0, 79, 0
2, 26016, Note_on_c, 0, 74, 98
2, 26016, Note_on_c, 0, 83, 98
2, 26108, Note_on_c, 0, 83, 0
2, 26108, Note_on_c, 0, 74, 0
2, 26112, Note_on_c, 0, 75, 98
2, 26112, Note_on_c, 0, 84, 98
2, 26300, Note_on_c, 0, 84, 0
2, 26300, Note_on_c, 0, 75, 0
2, 26304, Note_on_c, 0, 75, 98
2, 26304, Note_on_c, 0, 84, 98
2, 26496, Note_on_c, 0, 84, 0
2, 26496, Note_on_c, 0, 86, 98
2, 26544, Note_on_c, 0, 86, 0
2, 26544, Note_on_c, 0, 84, 98
2, 26588, Note_on_c, 0, 75, 0
2, 26592, Note_on_c, 0, 84, 0
2, 26592, Note_on_c, 0, 74, 98
2, 26592, Note_on_c, 0, 82, 98
2, 26640, Note_on_c, 0, 82, 0
2, 26640, Note_on_c, 0, 74, 0
2, 26640, Note_on_c, 0, 75, 98
2, 26640, Note_on_c, 0, 84, 98
2, 26688, Note_on_c, 0, 84, 0
2, 26688, Note_on_c, 0, 75, 0
2, 26688, Note_on_c, 0, 77, 98
2, 26688, Note_on_c, 0, 86, 98
2, 26784, Note_on_c, 0, 86, 0
2, 26784, Note_on_c, 0, 77, 0
2, 26784, Note_on_c, 0, 72, 98
2, 26784, Note_on_c, 0, 81, 98
2, 26876, Note_on_c, 0, 81, 0
2, 26876, Note_on_c, 0, 72, 0
2, 26880, Note_on_c, 0, 82, 98
2, 27552, Note_on_c, 0, 82, 0
2, 27648, Note_on_c, 0, 82, 98
2, 27768, Note_on_c, 0, 82, 0
2, 27768, Note_on_c, 0, 86, 98
2, 27792, Note_on_c, 0, 86, 0
2, 27792, Note_on_c, 0, 89, 98
2, 27816, Note_on_c, 0, 89, 0
2, 27816, Note_on_c, 0, 86, 98
2, 27840, Note_on_c, 0, 86, 0
2, 27840, Note_on_c, 0, 82, 98
2, 27932, Note_on_c, 0, 82, 0
2, 27936, Note_on_c, 0, 82, 98
2, 28028, Note_on_c, 0, 82, 0
2, 28032, Note_on_c, 0, 82, 98
2, 28352, Note_on_c, 0, 82, 0
2, 28416, Note_on_c, 0, 82, 98
2, 28464, Note_on_c, 0, 82, 0
2, 28464, Note_on_c, 0, 86, 98
2, 28488, Note_on_c, 0, 86, 0
2, 28488, Note_on_c, 0, 87, 98
2, 28512, Note_on_c, 0, 87, 0
2, 28512, Note_on_c, 0, 89, 98
2, 28536, Note_on_c, 0, 89, 0
2, 28536, Note_on_c, 0, 86, 98
2, 28560, Note_on_c, 0, 86, 0
2, 28560, Note_on_c, 0, 87, 98
2, 28584, Note_on_c, 0, 87, 0
2, 28584, Note_on_c, 0, 84, 98
2, 28608, Note_on_c, 0, 84, 0
2, 28608, Note_on_c, 0, 82, 98
2, 28672, Note_on_c, 0, 82, 0
2, 28704, Note_on_c, 0, 82, 98
2, 28768, Note_on_c, 0, 82, 0
2, 28800, Note_on_c, 0, 82, 98
2, 29120, Note_on_c, 0, 82, 0
2, 29184, Note_on_c, 0, 82, 98
2, 29372, Note_on_c, 0, 82, 0
2, 29520, Note_on_c, 0, 62, 98
2, 29520, Note_on_c, 0, 65, 98
2, 29520, Note_on_c, 0, 68, 98
2, 29564, Note_on_c, 0, 68, 0
2, 29564, Note_on_c, 0, 65, 0
2, 29564, Note_on_c, 0, 62, 0
2, 29568, Note_on_c, 0, 62, 98
2, 29568, Note_on_c, 0, 65, 98
2, 29568, Note_on_c, 0, 68, 98
2, 29756, Note_on_c, 0, 68, 0
2, 29756, Note_on_c, 0, 65, 0
2, 29756, Note_on_c, 0, 62, 0
2, 29760, Note_on_c, 0, 62, 98
2, 29760, Note_on_c, 0, 65, 98
2, 29760, Note_on_c, 0, 68, 98
2, 29948, Note_on_c, 0, 68, 0
2, 29948, Note_on_c, 0, 65, 0
2, 29948, Note_on_c, 0, 62, 0
2, 29952, Note_on_c, 0, 62, 98
2, 29952, Note_on_c, 0, 65, 98
2, 29952, Note_on_c, 0, 68, 98
2, 30624, Note_on_c, 0, 68, 0
2, 30624, Note_on_c, 0, 65, 0
2, 30624, Note_on_c, 0, 62, 0
2, 30720, Note_on_c, 0, 67, 98
2, 30784, Note_on_c, 0, 67, 0
2, 30912, Note_on_c, 0, 67, 98
2, 31296, Note_on_c, 0, 67, 0
2, 31296, Note_on_c, 0, 68, 98
2, 31484, Note_on_c, 0, 68, 0
2, 31488, Note_on_c, 0, 67, 98
2, 31584, Note_on_c, 0, 67, 0
2, 31584, Note_on_c, 0, 65, 98
2, 31676, Note_on_c, 0, 65, 0
2, 31680, Note_on_c, 0, 65, 98
2, 32064, Note_on_c, 0, 65, 0
2, 32064, Note_on_c, 0, 70, 98
2, 32252, Note_on_c, 0, 70, 0
2, 32256, Note_on_c, 0, 70, 98
2, 32352, Note_on_c, 0, 70, 0
2, 32352, Note_on_c, 0, 63, 98
2, 32444, Note_on_c, 0, 63, 0
2, 32448, Note_on_c, 0, 63, 98
2, 32768, Note_on_c, 0, 63, 0
2, 32832, Note_on_c, 0, 72, 98
2, 32928, Note_on_c, 0, 72, 0
2, 32928, Note_on_c, 0, 68, 98
2, 33020, Note_on_c, 0, 68, 0
2, 33024, Note_on_c, 0, 63, 98
2, 33024, Note_on_c, 0, 67, 98
2, 33408, Note_on_c, 0, 67, 0
2, 33408, Note_on_c, 0, 63, 0
2, 33408, Note_on_c, 0, 62, 98
2, 33408, Note_on_c, 0, 65, 98
2, 33596, Note_on_c, 0, 65, 0
2, 33596, Note_on_c, 0, 62, 0
2, 33792, Note_on_c, 0, 55, 98
2, 33792, Note_on_c, 0, 58, 98
2, 33792, Note_on_c, 0, 63, 98
2, 34112, Note_on_c, 0, 63, 0
2, 34112, Note_on_c, 0, 58, 0
2, 34112, Note_on_c, 0, 55, 0
2, 34176, Note_on_c, 0, 58, 98
2, 34176, Note_on_c, 0, 62, 98
2, 34176, Note_on_c, 0, 65, 98
2, 34496, Note_on_c, 0, 65, 0
2, 34496, Note_on_c, 0, 62, 0
2, 34496, Note_on_c, 0, 58, 0
2, 34560, Note_on_c, 0, 67, 98
2, 34848, Note_on_c, 0, 67, 0
2, 34848, Note_on_c, 0, 65, 98
2, 34896, Note_on_c, 0, 65, 0
2, 34896, Note_on_c, 0, 67, 98
2, 34940, Note_on_c, 0, 67, 0
2, 34944, Note_on_c, 0, 68, 98
2, 35132, Note_on_c, 0, 68, 0
2, 35328, Note_on_c, 0, 70, 98
2, 35616, Note_on_c, 0, 70, 0
2, 35616, Note_on_c, 0, 69, 98
2, 35664, Note_on_c, 0, 69, 0
2, 35664, Note_on_c, 0, 70, 98
2, 35712, Note_on_c, 0, 70, 0
2, 35712, Note_on_c, 0, 72, 98
2, 35900, Note_on_c, 0, 72, 0
2, 35904, Note_on_c, 0, 60, 98
2, 35904, Note_on_c, 0, 65, 98
2, 35904, Note_on_c, 0, 68, 98
2, 36092, Note_on_c, 0, 68, 0
2, 36092, Note_on_c, 0, 65, 0
2, 36092, Note_on_c, 0, 60, 0
2, 36096, Note_on_c, 0, 58, 98
2, 36096, Note_on_c, 0, 63, 98
2, 36096, Note_on_c, 0, 67, 98
2, 36480, Note_on_c, 0, 67, 0
2, 36480, Note_on_c, 0, 63, 0
2, 36480, Note_on_c, 0, 58, 0
2, 36480, Note_on_c, 0, 58, 98
2, 36480, Note_on_c, 0, 62, 98
2, 36480, Note_on_c, 0, 65, 98
2, 36668, Note_on_c, 0, 65, 0
2, 36668, Note_on_c, 0, 62, 0
2, 36668, Note_on_c, 0, 58, 0
2, 39936, Note_on_c, 0, 63, 98
2, 39936, Note_on_c, 0, 75, 98
2, 40256, Note_on_c, 0, 75, 0
2, 40256, Note_on_c, 0, 63, 0
2, 40320, Note_on_c, 0, 65, 98
2, 40320, Note_on_c, 0, 77, 98
2, 40640, Note_on_c, 0, 77, 0
2, 40640, Note_on_c, 0, 65, 0
2, 40704, Note_on_c, 0, 79, 98
2, 40992, Note_on_c, 0, 79, 0
2, 40992, Note_on_c, 0, 77, 98
2, 41040, Note_on_c, 0, 77, 0
2, 41040, Note_on_c, 0, 79, 98
2, 41088, Note_on_c, 0, 79, 0
2, 41088, Note_on_c, 0, 80, 98
2, 41276, Note_on_c, 0, 80, 0
2, 41280, Note_on_c, 0, 81, 98
2, 41344, Note_on_c, 0, 81, 0
2, 41472, Note_on_c, 0, 82, 98
2, 41660, Note_on_c, 0, 82, 0
2, 41664, Note_on_c, 0, 75, 98
2, 41760, Note_on_c, 0, 75, 0
2, 41760, Note_on_c, 0, 79, 98
2, 41852, Note_on_c, 0, 79, 0
2, 41856, Note_on_c, 0, 79, 98
2, 41952, Note_on_c, 0, 79, 0
2, 41952, Note_on_c, 0, 77, 98
2, 42048, Note_on_c, 0, 77, 0
2, 42048, Note_on_c, 0, 75, 98
2, 42144, Note_on_c, 0, 75, 0
2, 42144, Note_on_c, 0, 74, 98
2, 42236, Note_on_c, 0, 74, 0
2, 42240, Note_on_c, 0, 75, 98
2, 42560, Note_on_c, 0, 75, 0
2, 43776, Note_on_c, 0, 89, 98
2, 43840, Note_on_c, 0, 89, 0
2, 43840, Note_on_c, 0, 87, 98
2, 43904, Note_on_c, 0, 87, 0
2, 43904, Note_on_c, 0, 86, 98
2, 43968, Note_on_c, 0, 86, 0
2, 43968, Note_on_c, 0, 84, 98
2, 44032, Note_on_c, 0, 84, 0
2, 44032, Note_on_c, 0, 82, 98
2, 44096, Note_on_c, 0, 82, 0
2, 44096, Note_on_c, 0, 80, 98
2, 44160, Note_on_c, 0, 80, 0
2, 44160, Note_on_c, 0, 79, 98
2, 44224, Note_on_c, 0, 79, 0
2, 44224, Note_on_c, 0, 77, 98
2, 44288, Note_on_c, 0, 77, 0
2, 44288, Note_on_c, 0, 75, 98
2, 44352, Note_on_c, 0, 75, 0
2, 44352, Note_on_c, 0, 74, 98
2, 44416, Note_on_c, 0, 74, 0
2, 44416, Note_on_c, 0, 72, 98
2, 44480, Note_on_c, 0, 72, 0
2, 44480, Note_on_c, 0, 70, 98
2, 44544, Note_on_c, 0, 70, 0
2, 44544, Note_on_c, 0, 75, 98
2, 44608, Note_on_c, 0, 75, 0
2, 46080, Note_on_c, 0, 77, 98
2, 46144, Note_on_c, 0, 77, 0
2, 46144, Note_on_c, 0, 75, 98
2, 46208, Note_on_c, 0, 75, 0
2, 46208, Note_on_c, 0, 74, 98
2, 46272, Note_on_c, 0, 74, 0
2, 46272, Note_on_c, 0, 72, 98
2, 46336, Note_on_c, 0, 72, 0
2, 46336, Note_on_c, 0, 70, 98
2, 46400, Note_on_c, 0, 70, 0
2, 46400, Note_on_c, 0, 68, 98
2, 46464, Note_on_c, 0, 68, 0
2, 46464, Note_on_c, 0, 67, 98
2, 46528, Note_on_c, 0, 67, 0
2, 46528, Note_on_c, 0, 65, 98
2, 46592, Note_on_c, 0, 65, 0
2, 46592, Note_on_c, 0, 63, 98
2, 46656, Note_on_c, 0, 63, 0
2, 46656, Note_on_c, 0, 62, 98
2, 46720, Note_on_c, 0, 62, 0
2, 46720, Note_on_c, 0, 60, 98
2, 46784, Note_on_c, 0, 60, 0
2, 46784, Note_on_c, 0, 58, 98
2, 46848, Note_on_c, 0, 58, 0
2, 46848, Note_on_c, 0, 63, 98
2, 46912, Note_on_c, 0, 63, 0
2, 46912, Note_on_c, 0, 58, 98
2, 46976, Note_on_c, 0, 58, 0
2, 46976, Note_on_c, 0, 67, 98
2, 47040, Note_on_c, 0, 67, 0
2, 47040, Note_on_c, 0, 65, 98
2, 47104, Note_on_c, 0, 65, 0
2, 47104, Note_on_c, 0, 58, 98
2, 47168, Note_on_c, 0, 58, 0
2, 47168, Note_on_c, 0, 68, 98
2, 47232, Note_on_c, 0, 68, 0
2, 47232, Note_on_c, 0, 67, 98
2, 47296, Note_on_c, 0, 67, 0
2, 47296, Note_on_c, 0, 63, 98
2, 47360, Note_on_c, 0, 63, 0
2, 47360, Note_on_c, 0, 70, 98
2, 47424, Note_on_c, 0, 70, 0
2, 47424, Note_on_c, 0, 68, 98
2, 47488, Note_on_c, 0, 68, 0
2, 47488, Note_on_c, 0, 65, 98
2, 47552, Note_on_c, 0, 65, 0
2, 47552, Note_on_c, 0, 62, 98
2, 47616, Note_on_c, 0, 62, 0
2, 47616, Note_on_c, 0, 63, 98
2, 47680, Note_on_c, 0, 63, 0
2, 47680, Note_on_c, 0, 58, 98
2, 47744, Note_on_c, 0, 58, 0
2, 47744, Note_on_c, 0, 67, 98
2, 47808, Note_on_c, 0, 67, 0
2, 47808, Note_on_c, 0, 65, 98
2, 47872, Note_on_c, 0, 65, 0
2, 47872, Note_on_c, 0, 58, 98
2, 47936, Note_on_c, 0, 58, 0
2, 47936, Note_on_c, 0, 68, 98
2, 48000, Note_on_c, 0, 68, 0
2, 48000, Note_on_c, 0, 67, 98
2, 48064, Note_on_c, 0, 67, 0
2, 48064, Note_on_c, 0, 63, 98
2, 48128, Note_on_c, 0, 63, 0
2, 48128, Note_on_c, 0, 70, 98
2, 48192, Note_on_c, 0, 70, 0
2, 48192, Note_on_c, 0, 68, 98
2, 48256, Note_on_c, 0, 68, 0
2, 48256, Note_on_c, 0, 65, 98
2, 48320, Note_on_c, 0, 65, 0
2, 48320, Note_on_c, 0, 62, 98
2, 48380, Note_on_c, 0, 62, 0
2, 48384, Note_on_c, 0, 63, 98
2, 48448, Note_on_c, 0, 63, 0
2, 48448, Note_on_c, 0, 67, 98
2, 48512, Note_on_c, 0, 67, 0
2, 48512, Note_on_c, 0, 70, 98
2, 48576, Note_on_c, 0, 70, 0
2, 48576, Note_on_c, 0, 75, 98
2, 48640, Note_on_c, 0, 75, 0
2, 48640, Note_on_c, 0, 70, 98
2, 48704, Note_on_c, 0, 70, 0
2, 48704, Note_on_c, 0, 75, 98
2, 48764, Note_on_c, 0, 75, 0
2, 48768, Note_on_c, 0, 60, 98
2, 48832, Note_on_c, 0, 60, 0
2, 48832, Note_on_c, 0, 63, 98
2, 48896, Note_on_c, 0, 63, 0
2, 48896, Note_on_c, 0, 67, 98
2, 48960, Note_on_c, 0, 67, 0
2, 48960, Note_on_c, 0, 72, 98
2, 49024, Note_on_c, 0, 72, 0
2, 49024, Note_on_c, 0, 67, 98
2, 49088, Note_on_c, 0, 67, 0
2, 49088, Note_on_c, 0, 72, 98
2, 49148, Note_on_c, 0, 72, 0
2, 49152, Note_on_c, 0, 56, 98
2, 49216, Note_on_c, 0, 56, 0
2, 49216, Note_on_c, 0, 60, 98
2, 49280, Note_on_c, 0, 60, 0
2, 49280, Note_on_c, 0, 63, 98
2, 49344, Note_on_c, 0, 63, 0
2, 49344, Note_on_c, 0, 68, 98
2, 49408, Note_on_c, 0, 68, 0
2, 49408, Note_on_c, 0, 63, 98
2, 49472, Note_on_c, 0, 63, 0
2, 49472, Note_on_c, 0, 68, 98
2, 49532, Note_on_c, 0, 68, 0
2, 49536, Note_on_c, 0, 53, 98
2, 49600, Note_on_c, 0, 53, 0
2, 49600, Note_on_c, 0, 56, 98
2, 49664, Note_on_c, 0, 56, 0
2, 49664, Note_on_c, 0, 60, 98
2, 49728, Note_on_c, 0, 60, 0
2, 49728, Note_on_c, 0, 65, 98
2, 49792, Note_on_c, 0, 65, 0
2, 49792, Note_on_c, 0, 60, 98
2, 49856, Note_on_c, 0, 60, 0
2, 49856, Note_on_c, 0, 65, 98
2, 49916, Note_on_c, 0, 65, 0
2, 49920, Note_on_c, 0, 58, 98
2, 50108, Note_on_c, 0, 58, 0
2, 50112, Note_on_c, 0, 65, 98
2, 50112, Note_on_c, 0, 68, 98
2, 50496, Note_on_c, 0, 68, 0
2, 50496, Note_on_c, 0, 65, 0
2, 50496, Note_on_c, 0, 63, 98
2, 50496, Note_on_c, 0, 67, 98
2, 50684, Note_on_c, 0, 67, 0
2, 50684, Note_on_c, 0, 63, 0
2, 50688, Note_on_c, 0, 62, 98
2, 50688, Note_on_c, 0, 65, 98
2, 51008, Note_on_c, 0, 65, 0
2, 51008, Note_on_c, 0, 62, 0
2, 51648, Note_on_c, 0, 82, 98
2, 51696, Note_on_c, 0, 82, 0
2, 51696, Note_on_c, 0, 80, 98
2, 51744, Note_on_c, 0, 80, 0
2, 51744, Note_on_c, 0, 79, 98
2, 51792, Note_on_c, 0, 79, 0
2, 51792, Note_on_c, 0, 77, 98
2, 51840, Note_on_c, 0, 77, 0
2, 51840, Note_on_c, 0, 75, 98
2, 51888, Note_on_c, 0, 75, 0
2, 51888, Note_on_c, 0, 74, 98
2, 51936, Note_on_c, 0, 74, 0
2, 51936, Note_on_c, 0, 72, 98
2, 51984, Note_on_c, 0, 72, 0
2, 51984, Note_on_c, 0, 70, 98
2, 52032, Note_on_c, 0, 70, 0
2, 52032, Note_on_c, 0, 68, 98
2, 52080, Note_on_c, 0, 68, 0
2, 52080, Note_on_c, 0, 67, 98
2, 52128, Note_on_c, 0, 67, 0
2, 52128, Note_on_c, 0, 65, 98
2, 52176, Note_on_c, 0, 65, 0
2, 52176, Note_on_c, 0, 63, 98
2, 52224, Note_on_c, 0, 63, 0
2, 52224, Note_on_c, 0, 62, 98
2, 52412, Note_on_c, 0, 62, 0
2, 52416, Note_on_c, 0, 58, 98
2, 52464, Note_on_c, 0, 58, 0
2, 52464, Note_on_c, 0, 60, 98
2, 52512, Note_on_c, 0, 60, 0
2, 52512, Note_on_c, 0, 62, 98
2, 52560, Note_on_c, 0, 62, 0
2, 52560, Note_on_c, 0, 63, 98
2, 52608, Note_on_c, 0, 63, 0
2, 52608, Note_on_c, 0, 65, 98
2, 52656, Note_on_c, 0, 65, 0
2, 52656, Note_on_c, 0, 67, 98
2, 52704, Note_on_c, 0, 67, 0
2, 52704, Note_on_c, 0, 68, 98
2, 52752, Note_on_c, 0, 68, 0
2, 52752, Note_on_c, 0, 70, 98
2, 52800, Note_on_c, 0, 70, 0
2, 52800, Note_on_c, 0, 72, 98
2, 52848, Note_on_c, 0, 72, 0
2, 52848, Note_on_c, 0, 74, 98
2, 52896, Note_on_c, 0, 74, 0
2, 52896, Note_on_c, 0, 75, 98
2, 52944, Note_on_c, 0, 75, 0
2, 52944, Note_on_c, 0, 77, 98
2, 52992, Note_on_c, 0, 77, 0
2, 52992, Note_on_c, 0, 79, 98
2, 53180, Note_on_c, 0, 79, 0
2, 53184, Note_on_c, 0, 82, 98
2, 53232, Note_on_c, 0, 82, 0
2, 53232, Note_on_c, 0, 80, 98
2, 53280, Note_on_c, 0, 80, 0
2, 53280, Note_on_c, 0, 79, 98
2, 53328, Note_on_c, 0, 79, 0
2, 53328, Note_on_c, 0, 77, 98
2, 53376, Note_on_c, 0, 77, 0
2, 53376, Note_on_c, 0, 75, 98
2, 53424, Note_on_c, 0, 75, 0
2, 53424, Note_on_c, 0, 74, 98
2, 53472, Note_on_c, 0, 74, 0
2, 53472, Note_on_c, 0, 72, 98
2, 53520, Note_on_c, 0, 72, 0
2, 53520, Note_on_c, 0, 70, 98
2, 53568, Note_on_c, 0, 70, 0
2, 53568, Note_on_c, 0, 68, 98
2, 53616, Note_on_c, 0, 68, 0
2, 53616, Note_on_c, 0, 67, 98
2, 53664, Note_on_c, 0, 67, 0
2, 53664, Note_on_c, 0, 65, 98
2, 53712, Note_on_c, 0, 65, 0
2, 53712, Note_on_c, 0, 63, 98
2, 53760, Note_on_c, 0, 63, 0
2, 53760, Note_on_c, 0, 62, 98
2, 53760, Note_on_c, 0, 65, 98
2, 53760, Note_on_c, 0, 70, 98
2, 53948, Note_on_c, 0, 70, 0
2, 53948, Note_on_c, 0, 65, 0
2, 53948, Note_on_c, 0, 62, 0
2, 54048, Note_on_c, 0, 58, 98
2, 54144, Note_on_c, 0, 58, 0
2, 54144, Note_on_c, 0, 57, 98
2, 54240, Note_on_c, 0, 57, 0
2, 54240, Note_on_c, 0, 58, 98
2, 54336, Note_on_c, 0, 58, 0
2, 54336, Note_on_c, 0, 60, 98
2, 54432, Note_on_c, 0, 60, 0
2, 54432, Note_on_c, 0, 62, 98
2, 54528, Note_on_c, 0, 62, 0
2, 54528, Note_on_c, 0, 63, 98
2, 54624, Note_on_c, 0, 63, 0
2, 54624, Note_on_c, 0, 65, 98
2, 54720, Note_on_c, 0, 65, 0
2, 54720, Note_on_c, 0, 67, 98
2, 54816, Note_on_c, 0, 67, 0
2, 54816, Note_on_c, 0, 65, 98
2, 54912, Note_on_c, 0, 65, 0
2, 54912, Note_on_c, 0, 64, 98
2, 55008, Note_on_c, 0, 64, 0
2, 55008, Note_on_c, 0, 60, 98
2, 55104, Note_on_c, 0, 60, 0
2, 55104, Note_on_c, 0, 62, 98
2, 55200, Note_on_c, 0, 62, 0
2, 55200, Note_on_c, 0, 64, 98
2, 55296, Note_on_c, 0, 64, 0
2, 55296, Note_on_c, 0, 65, 98
2, 55484, Note_on_c, 0, 65, 0
2, 55488, Note_on_c, 0, 77, 98
2, 55680, Note_on_c, 0, 77, 0
2, 55680, Note_on_c, 0, 72, 98
2, 55872, Note_on_c, 0, 72, 0
2, 55872, Note_on_c, 0, 74, 98
2, 56060, Note_on_c, 0, 74, 0
2, 56064, Note_on_c, 0, 75, 98
2, 56576, Note_on_c, 0, 75, 0
2, 56640, Note_on_c, 0, 72, 98
2, 56828, Note_on_c, 0, 72, 0
2, 56832, Note_on_c, 0, 74, 98
2, 57152, Note_on_c, 0, 74, 0
2, 59232, Note_on_c, 0, 81, 98
2, 59280, Note_on_c, 0, 81, 0
2, 59280, Note_on_c, 0, 82, 98
2, 59328, Note_on_c, 0, 82, 0
2, 59328, Note_on_c, 0, 84, 98
2, 59420, Note_on_c, 0, 84, 0
2, 59424, Note_on_c, 0, 82, 98
2, 59488, Note_on_c, 0, 82, 0
2, 59520, Note_on_c, 0, 81, 98
2, 59584, Note_on_c, 0, 81, 0
2, 59616, Note_on_c, 0, 79, 98
2, 59680, Note_on_c, 0, 79, 0
2, 59712, Note_on_c, 0, 77, 98
2, 59776, Note_on_c, 0, 77, 0
2, 59808, Note_on_c, 0, 75, 98
2, 59872, Note_on_c, 0, 75, 0
2, 59904, Note_on_c, 0, 74, 98
2, 59952, Note_on_c, 0, 74, 0
2, 59952, Note_on_c, 0, 77, 98
2, 60000, Note_on_c, 0, 77, 0
2, 60000, Note_on_c, 0, 82, 98
2, 60048, Note_on_c, 0, 82, 0
2, 60048, Note_on_c, 0, 86, 98
2, 60096, Note_on_c, 0, 86, 0
2, 60096, Note_on_c, 0, 89, 98
2, 60188, Note_on_c, 0, 89, 0
2, 60192, Note_on_c, 0, 89, 98
2, 60284, Note_on_c, 0, 89, 0
2, 60288, Note_on_c, 0, 89, 98
2, 60476, Note_on_c, 0, 89, 0
2, 61488, Note_on_c, 0, 72, 98
2, 61536, Note_on_c, 0, 72, 0
2, 61536, Note_on_c, 0, 84, 98
2, 61584, Note_on_c, 0, 84, 0
2, 61584, Note_on_c, 0, 81, 98
2, 61632, Note_on_c, 0, 81, 0
2, 61632, Note_on_c, 0, 77, 98
2, 61680, Note_on_c, 0, 77, 0
2, 61680, Note_on_c, 0, 72, 98
2, 61728, Note_on_c, 0, 72, 0
2, 61728, Note_on_c, 0, 69, 98
2, 61772, Note_on_c, 0, 69, 0
2, 61872, Note_on_c, 0, 74, 98
2, 61920, Note_on_c, 0, 74, 0
2, 61920, Note_on_c, 0, 86, 98
2, 61968, Note_on_c, 0, 86, 0
2, 61968, Note_on_c, 0, 82, 98
2, 62016, Note_on_c, 0, 82, 0
2, 62016, Note_on_c, 0, 77, 98
2, 62064, Note_on_c, 0, 77, 0
2, 62064, Note_on_c, 0, 74, 98
2, 62112, Note_on_c, 0, 74, 0
2, 62112, Note_on_c, 0, 70, 98
2, 62156, Note_on_c, 0, 70, 0
2, 62256, Note_on_c, 0, 72, 98
2, 62304, Note_on_c, 0, 72, 0
2, 62304, Note_on_c, 0, 84, 98
2, 62352, Note_on_c, 0, 84, 0
2, 62352, Note_on_c, 0, 81, 98
2, 62400, Note_on_c, 0, 81, 0
2, 62400, Note_on_c, 0, 77, 98
2, 62448, Note_on_c, 0, 77, 0
2, 62448, Note_on_c, 0, 72, 98
2, 62496, Note_on_c, 0, 72, 0
2, 62496, Note_on_c, 0, 69, 98
2, 62540, Note_on_c, 0, 69, 0
2, 62640, Note_on_c, 0, 74, 98
2, 62688, Note_on_c, 0, 74, 0
2, 62688, Note_on_c, 0, 86, 98
2, 62736, Note_on_c, 0, 86, 0
2, 62736, Note_on_c, 0, 82, 98
2, 62784, Note_on_c, 0, 82, 0
2, 62784, Note_on_c, 0, 77, 98
2, 62832, Note_on_c, 0, 77, 0
2, 62832, Note_on_c, 0, 74, 98
2, 62880, Note_on_c, 0, 74, 0
2, 62880, Note_on_c, 0, 70, 98
2, 62924, Note_on_c, 0, 70, 0
2, 63024, Note_on_c, 0, 72, 98
2, 63056, Note_on_c, 0, 72, 0
2, 63072, Note_on_c, 0, 84, 98
2, 63120, Note_on_c, 0, 84, 0
2, 63120, Note_on_c, 0, 81, 98
2, 63164, Note_on_c, 0, 81, 0
2, 63216, Note_on_c, 0, 74, 98
2, 63248, Note_on_c, 0, 74, 0
2, 63264, Note_on_c, 0, 86, 98
2, 63312, Note_on_c, 0, 86, 0
2, 63312, Note_on_c, 0, 82, 98
2, 63356, Note_on_c, 0, 82, 0
2, 63408, Note_on_c, 0, 72, 98
2, 63440, Note_on_c, 0, 72, 0
2, 63456, Note_on_c, 0, 84, 98
2, 63504, Note_on_c, 0, 84, 0
2, 63504, Note_on_c, 0, 81, 98
2, 63548, Note_on_c, 0, 81, 0
2, 63600, Note_on_c, 0, 74, 98
2, 63632, Note_on_c, 0, 74, 0
2, 63648, Note_on_c, 0, 86, 98
2, 63696, Note_on_c, 0, 86, 0
2, 63696, Note_on_c, 0, 82, 98
2, 63744, Note_on_c, 0, 82, 0
2, 63744, Note_on_c, 0, 84, 98
2, 63840, Note_on_c, 0, 84, 0
2, 63840, Note_on_c, 0, 77, 98
2, 63932, Note_on_c, 0, 77, 0
2, 63936, Note_on_c, 0, 77, 98
2, 64000, Note_on_c, 0, 77, 0
2, 64032, Note_on_c, 0, 77, 98
2, 64096, Note_on_c, 0, 77, 0
2, 64128, Note_on_c, 0, 77, 98
2, 64224, Note_on_c, 0, 77, 0
2, 64224, Note_on_c, 0, 78, 98
2, 64320, Note_on_c, 0, 78, 0
2, 64320, Note_on_c, 0, 79, 98
2, 64416, Note_on_c, 0, 79, 0
2, 64416, Note_on_c, 0, 75, 98
2, 64508, Note_on_c, 0, 75, 0
2, 64512, Note_on_c, 0, 74, 98
2, 64800, Note_on_c, 0, 74, 0
2, 64800, Note_on_c, 0, 70, 98
2, 64896, Note_on_c, 0, 70, 0
2, 64896, Note_on_c, 0, 74, 98
2, 64992, Note_on_c, 0, 74, 0
2, 64992, Note_on_c, 0, 70, 98
2, 65088, Note_on_c, 0, 70, 0
2, 65088, Note_on_c, 0, 74, 98
2, 65184, Note_on_c, 0, 74, 0
2, 65184, Note_on_c, 0, 77, 98
2, 65276, Note_on_c, 0, 77, 0
2, 65280, Note_on_c, 0, 69, 98
2, 65280, Note_on_c, 0, 77, 98
2, 65376, Note_on_c, 0, 77, 0
2, 65376, Note_on_c, 0, 75, 98
2, 65472, Note_on_c, 0, 75, 0
2, 65472, Note_on_c, 0, 74, 98
2, 65568, Note_on_c, 0, 74, 0
2, 65568, Note_on_c, 0, 72, 98
2, 65660, Note_on_c, 0, 72, 0
2, 65664, Note_on_c, 0, 72, 98
2, 65792, Note_on_c, 0, 69, 0
2, 65852, Note_on_c, 0, 72, 0
2, 67584, Note_on_c, 0, 82, 98
2, 67872, Note_on_c, 0, 82, 0
2, 67872, Note_on_c, 0, 86, 98
2, 67968, Note_on_c, 0, 86, 0
2, 67968, Note_on_c, 0, 77, 98
2, 68032, Note_on_c, 0, 77, 0
2, 68064, Note_on_c, 0, 77, 98
2, 68128, Note_on_c, 0, 77, 0
2, 68160, Note_on_c, 0, 77, 98
2, 68252, Note_on_c, 0, 77, 0
2, 68256, Note_on_c, 0, 78, 98
2, 68348, Note_on_c, 0, 78, 0
2, 68352, Note_on_c, 0, 79, 98
2, 68640, Note_on_c, 0, 79, 0
2, 68640, Note_on_c, 0, 82, 98
2, 68736, Note_on_c, 0, 82, 0
2, 68736, Note_on_c, 0, 72, 98
2, 68804, Note_on_c, 0, 72, 0
2, 68832, Note_on_c, 0, 72, 98
2, 68896, Note_on_c, 0, 72, 0
2, 68928, Note_on_c, 0, 72, 98
2, 69024, Note_on_c, 0, 72, 0
2, 69024, Note_on_c, 0, 75, 98
2, 69116, Note_on_c, 0, 75, 0
2, 69120, Note_on_c, 0, 74, 98
2, 69216, Note_on_c, 0, 74, 0
2, 69216, Note_on_c, 0, 77, 98
2, 69308, Note_on_c, 0, 77, 0
2, 69408, Note_on_c, 0, 70, 98
2, 69500, Note_on_c, 0, 70, 0
2, 69504, Note_on_c, 0, 67, 98
2, 69600, Note_on_c, 0, 67, 0
2, 69600, Note_on_c, 0, 75, 98
2, 69692, Note_on_c, 0, 75, 0
2, 69792, Note_on_c, 0, 79, 98
2, 69884, Note_on_c, 0, 79, 0
2, 69888, Note_on_c, 0, 74, 98
2, 70176, Note_on_c, 0, 74, 0
2, 70176, Note_on_c, 0, 75, 98
2, 70224, Note_on_c, 0, 75, 0
2, 70224, Note_on_c, 0, 74, 98
2, 70272, Note_on_c, 0, 74, 0
2, 70272, Note_on_c, 0, 72, 98
2, 70460, Note_on_c, 0, 72, 0
2, 72192, Note_on_c, 0, 72, 98
2, 72192, Note_on_c, 0, 75, 98
2, 72288, Note_on_c, 0, 75, 0
2, 72288, Note_on_c, 0, 72, 0
2, 72288, Note_on_c, 0, 71, 98
2, 72288, Note_on_c, 0, 74, 98
2, 72384, Note_on_c, 0, 74, 0
2, 72384, Note_on_c, 0, 71, 0
2, 72384, Note_on_c, 0, 72, 98
2, 72384, Note_on_c, 0, 75, 98
2, 72480, Note_on_c, 0, 75, 0
2, 72480, Note_on_c, 0, 72, 0
2, 72480, Note_on_c, 0, 71, 98
2, 72480, Note_on_c, 0, 74, 98
2, 72576, Note_on_c, 0, 74, 0
2, 72576, Note_on_c, 0, 71, 0
2, 72576, Note_on_c, 0, 72, 98
2, 72576, Note_on_c, 0, 75, 98
2, 72672, Note_on_c, 0, 75, 0
2, 72672, Note_on_c, 0, 72, 0
2, 72672, Note_on_c, 0, 71, 98
2, 72672, Note_on_c, 0, 74, 98
2, 72768, Note_on_c, 0, 74, 0
2, 72768, Note_on_c, 0, 71, 0
2, 72768, Note_on_c, 0, 72, 98
2, 72768, Note_on_c, 0, 75, 98
2, 72864, Note_on_c, 0, 75, 0
2, 72864, Note_on_c, 0, 72, 0
2, 72864, Note_on_c, 0, 73, 98
2, 72864, Note_on_c, 0, 76, 98
2, 72960, Note_on_c, 0, 76, 0
2, 72960, Note_on_c, 0, 73, 0
2, 72960, Note_on_c, 0, 74, 98
2, 72960, Note_on_c, 0, 77, 98
2, 73056, Note_on_c, 0, 77, 0
2, 73056, Note_on_c, 0, 74, 0
2, 73056, Note_on_c, 0, 73, 98
2, 73056, Note_on_c, 0, 76, 98
2, 73152, Note_on_c, 0, 76, 0
2, 73152, Note_on_c, 0, 73, 0
2, 73152, Note_on_c, 0, 74, 98
2, 73152, Note_on_c, 0, 77, 98
2, 73248, Note_on_c, 0, 77, 0
2, 73248, Note_on_c, 0, 74, 0
2, 73248, Note_on_c, 0, 73, 98
2, 73248, Note_on_c, 0, 76, 98
2, 73344, Note_on_c, 0, 76, 0
2, 73344, Note_on_c, 0, 73, 0
2, 73344, Note_on_c, 0, 74, 98
2, 73344, Note_on_c, 0, 77, 98
2, 73532, Note_on_c, 0, 77, 0
2, 73532, Note_on_c, 0, 74, 0
2, 76224, Note_on_c, 0, 82, 98
2, 76272, Note_on_c, 0, 82, 0
2, 76272, Note_on_c, 0, 81, 98
2, 76320, Note_on_c, 0, 81, 0
2, 76320, Note_on_c, 0, 79, 98
2, 76368, Note_on_c, 0, 79, 0
2, 76368, Note_on_c, 0, 77, 98
2, 76416, Note_on_c, 0, 77, 0
2, 76416, Note_on_c, 0, 76, 98
2, 76464, Note_on_c, 0, 76, 0
2, 76464, Note_on_c, 0, 77, 98
2, 76512, Note_on_c, 0, 77, 0
2, 76512, Note_on_c, 0, 79, 98
2, 76560, Note_on_c, 0, 79, 0
2, 76560, Note_on_c, 0, 77, 98
2, 76608, Note_on_c, 0, 77, 0
2, 76608, Note_on_c, 0, 75, 98
2, 76656, Note_on_c, 0, 75, 0
2, 76656, Note_on_c, 0, 74, 98
2, 76704, Note_on_c, 0, 74, 0
2, 76704, Note_on_c, 0, 72, 98
2, 76752, Note_on_c, 0, 72, 0
2, 76752, Note_on_c, 0, 70, 98
2, 76800, Note_on_c, 0, 70, 0
2, 76800, Note_on_c, 0, 69, 98
2, 76848, Note_on_c, 0, 69, 0
2, 76848, Note_on_c, 0, 81, 98
2, 76896, Note_on_c, 0, 81, 0
2, 76896, Note_on_c, 0, 70, 98
2, 76944, Note_on_c, 0, 70, 0
2, 76944, Note_on_c, 0, 82, 98
2, 76992, Note_on_c, 0, 82, 0
2, 76992, Note_on_c, 0, 72, 98
2, 77040, Note_on_c, 0, 72, 0
2, 77040, Note_on_c, 0, 84, 98
2, 77088, Note_on_c, 0, 84, 0
2, 77088, Note_on_c, 0, 74, 98
2, 77136, Note_on_c, 0, 74, 0
2, 77136, Note_on_c, 0, 86, 98
2, 77184, Note_on_c, 0, 86, 0
2, 77184, Note_on_c, 0, 75, 98
2, 77184, Note_on_c, 0, 87, 98
2, 77372, Note_on_c, 0, 87, 0
2, 77372, Note_on_c, 0, 75, 0
2, 77376, Note_on_c, 0, 69, 98
2, 77376, Note_on_c, 0, 81, 98
2, 77564, Note_on_c, 0, 81, 0
2, 77564, Note_on_c, 0, 69, 0
2, 77568, Note_on_c, 0, 70, 98
2, 77568, Note_on_c, 0, 82, 98
2, 77756, Note_on_c, 0, 82, 0
2, 77756, Note_on_c, 0, 70, 0
2, 77760, Note_on_c, 0, 82, 98
2, 77808, Note_on_c, 0, 82, 0
2, 77808, Note_on_c, 0, 81, 98
2, 77856, Note_on_c, 0, 81, 0
2, 77856, Note_on_c, 0, 79, 98
2, 77904, Note_on_c, 0, 79, 0
2, 77904, Note_on_c, 0, 77, 98
2, 77952, Note_on_c, 0, 77, 0
2, 77952, Note_on_c, 0, 76, 98
2, 78000, Note_on_c, 0, 76, 0
2, 78000, Note_on_c, 0, 77, 98
2, 78048, Note_on_c, 0, 77, 0
2, 78048, Note_on_c, 0, 79, 98
2, 78096, Note_on_c, 0, 79, 0
2, 78096, Note_on_c, 0, 77, 98
2, 78144, Note_on_c, 0, 77, 0
2, 78144, Note_on_c, 0, 75, 98
2, 78192, Note_on_c, 0, 75, 0
2, 78192, Note_on_c, 0, 74, 98
2, 78240, Note_on_c, 0, 74, 0
2, 78240, Note_on_c, 0, 72, 98
2, 78288, Note_on_c, 0, 72, 0
2, 78288, Note_on_c, 0, 70, 98
2, 78336, Note_on_c, 0, 70, 0
2, 78336, Note_on_c, 0, 69, 98
2, 78384, Note_on_c, 0, 69, 0
2, 78384, Note_on_c, 0, 81, 98
2, 78432, Note_on_c, 0, 81, 0
2, 78432, Note_on_c, 0, 70, 98
2, 78480, Note_on_c, 0, 70, 0
2, 78480, Note_on_c, 0, 82, 98
2, 78528, Note_on_c, 0, 82, 0
2, 78528, Note_on_c, 0, 72, 98
2, 78576, Note_on_c, 0, 72, 0
2, 78576, Note_on_c, 0, 84, 98
2, 78624, Note_on_c, 0, 84, 0
2, 78624, Note_on_c, 0, 74, 98
2, 78672, Note_on_c, 0, 74, 0
2, 78672, Note_on_c, 0, 86, 98
2, 78720, Note_on_c, 0, 86, 0
2, 78720, Note_on_c, 0, 75, 98
2, 78720, Note_on_c, 0, 87, 98
2, 78908, Note_on_c, 0, 87, 0
2, 78908, Note_on_c, 0, 75, 0
2, 78912, Note_on_c, 0, 69, 98
2, 78912, Note_on_c, 0, 81, 98
2, 79100, Note_on_c, 0, 81, 0
2, 79100, Note_on_c, 0, 69, 0
2, 79104, Note_on_c, 0, 70, 98
2, 79104, Note_on_c, 0, 82, 98
2, 79292, Note_on_c, 0, 82, 0
2, 79292, Note_on_c, 0, 70, 0
2, 79296, Note_on_c, 0, 89, 98
2, 79344, Note_on_c, 0, 89, 0
2, 79344, Note_on_c, 0, 87, 98
2, 79392, Note_on_c, 0, 87, 0
2, 79392, Note_on_c, 0, 86, 98
2, 79440, Note_on_c, 0, 86, 0
2, 79440, Note_on_c, 0, 84, 98
2, 79488, Note_on_c, 0, 84, 0
2, 79488, Note_on_c, 0, 82, 98
2, 79536, Note_on_c, 0, 82, 0
2, 79536, Note_on_c, 0, 81, 98
2, 79584, Note_on_c, 0, 81, 0
2, 79584, Note_on_c, 0, 79, 98
2, 79632, Note_on_c, 0, 79, 0
2, 79632, Note_on_c, 0, 77, 98
2, 79680, Note_on_c, 0, 77, 0
2, 79680, Note_on_c, 0, 75, 98
2, 79728, Note_on_c, 0, 75, 0
2, 79728, Note_on_c, 0, 74, 98
2, 79776, Note_on_c, 0, 74, 0
2, 79776, Note_on_c, 0, 72, 98
2, 79824, Note_on_c, 0, 72, 0
2, 79824, Note_on_c, 0, 71, 98
2, 79872, Note_on_c, 0, 71, 0
2, 79872, Note_on_c, 0, 72, 98
2, 80060, Note_on_c, 0, 72, 0
2, 80064, Note_on_c, 0, 82, 98
2, 80112, Note_on_c, 0, 82, 0
2, 80112, Note_on_c, 0, 81, 98
2, 80160, Note_on_c, 0, 81, 0
2, 80160, Note_on_c, 0, 79, 98
2, 80208, Note_on_c, 0, 79, 0
2, 80208, Note_on_c, 0, 77, 98
2, 80256, Note_on_c, 0, 77, 0
2, 80256, Note_on_c, 0, 75, 98
2, 80304, Note_on_c, 0, 75, 0
2, 80304, Note_on_c, 0, 74, 98
2, 80352, Note_on_c, 0, 74, 0
2, 80352, Note_on_c, 0, 72, 98
2, 80400, Note_on_c, 0, 72, 0
2, 80400, Note_on_c, 0, 70, 98
2, 80448, Note_on_c, 0, 70, 0
2, 80448, Note_on_c, 0, 69, 98
2, 80496, Note_on_c, 0, 69, 0
2, 80496, Note_on_c, 0, 67, 98
2, 80544, Note_on_c, 0, 67, 0
2, 80544, Note_on_c, 0, 65, 98
2, 80592, Note_on_c, 0, 65, 0
2, 80592, Note_on_c, 0, 64, 98
2, 80640, Note_on_c, 0, 64, 0
2, 80640, Note_on_c, 0, 62, 98
2, 80736, Note_on_c, 0, 62, 0
2, 80736, Note_on_c, 0, 70, 98
2, 80784, Note_on_c, 0, 70, 0
2, 80784, Note_on_c, 0, 74, 98
2, 80832, Note_on_c, 0, 74, 0
2, 80832, Note_on_c, 0, 77, 98
2, 80924, Note_on_c, 0, 77, 0
2, 80928, Note_on_c, 0, 74, 98
2, 80928, Note_on_c, 0, 77, 98
2, 80992, Note_on_c, 0, 77, 0
2, 80992, Note_on_c, 0, 74, 0
2, 81024, Note_on_c, 0, 74, 98
2, 81024, Note_on_c, 0, 77, 98
2, 81120, Note_on_c, 0, 77, 0
2, 81120, Note_on_c, 0, 74, 0
2, 81120, Note_on_c, 0, 72, 98
2, 81120, Note_on_c, 0, 75, 98
2, 81212, Note_on_c, 0, 75, 0
2, 81212, Note_on_c, 0, 72, 0
2, 81216, Note_on_c, 0, 70, 98
2, 81216, Note_on_c, 0, 74, 98
2, 81280, Note_on_c, 0, 74, 0
2, 81280, Note_on_c, 0, 70, 0
2, 81312, Note_on_c, 0, 69, 98
2, 81312, Note_on_c, 0, 72, 98
2, 81376, Note_on_c, 0, 72, 0
2, 81376, Note_on_c, 0, 69, 0
2, 81408, Note_on_c, 0, 70, 98
2, 81596, Note_on_c, 0, 70, 0
2, 86112, Note_on_c, 0, 85, 98
2, 86300, Note_on_c, 0, 85, 0
2, 86304, Note_on_c, 0, 82, 98
2, 86492, Note_on_c, 0, 82, 0
2, 86496, Note_on_c, 0, 79, 98
2, 86684, Note_on_c, 0, 79, 0
2, 86688, Note_on_c, 0, 76, 98
2, 86780, Note_on_c, 0, 76, 0
2, 86784, Note_on_c, 0, 77, 98
2, 86928, Note_on_c, 0, 77, 0
2, 86928, Note_on_c, 0, 74, 98
2, 86976, Note_on_c, 0, 74, 0
2, 86976, Note_on_c, 0, 77, 98
2, 87164, Note_on_c, 0, 77, 0
2, 88512, Note_on_c, 0, 77, 98
2, 88800, Note_on_c, 0, 77, 0
2, 88800, Note_on_c, 0, 79, 98
2, 88848, Note_on_c, 0, 79, 0
2, 88848, Note_on_c, 0, 81, 98
2, 88896, Note_on_c, 0, 81, 0
2, 88896, Note_on_c, 0, 82, 98
2, 88944, Note_on_c, 0, 82, 0
2, 88944, Note_on_c, 0, 84, 98
2, 88992, Note_on_c, 0, 84, 0
2, 88992, Note_on_c, 0, 86, 98
2, 89040, Note_on_c, 0, 86, 0
2, 89040, Note_on_c, 0, 87, 98
2, 89088, Note_on_c, 0, 87, 0
2, 89088, Note_on_c, 0, 89, 98
2, 89280, Note_on_c, 0, 89, 0
2, 89280, Note_on_c, 0, 77, 98
2, 89472, Note_on_c, 0, 77, 0
2, 89472, Note_on_c, 0, 89, 98
2, 89660, Note_on_c, 0, 89, 0
2, 89664, Note_on_c, 0, 89, 98
2, 89852, Note_on_c, 0, 89, 0
2, 89856, Note_on_c, 0, 88, 98
2, 90048, Note_on_c, 0, 88, 0
2, 90048, Note_on_c, 0, 76, 98
2, 90240, Note_on_c, 0, 76, 0
2, 90240, Note_on_c, 0, 88, 98
2, 90428, Note_on_c, 0, 88, 0
2, 90432, Note_on_c, 0, 88, 98
2, 90620, Note_on_c, 0, 88, 0
2, 90624, Note_on_c, 0, 87, 98
2, 90912, Note_on_c, 0, 87, 0
2, 90912, Note_on_c, 0, 89, 98
2, 90960, Note_on_c, 0, 89, 0
2, 90960, Note_on_c, 0, 87, 98
2, 91008, Note_on_c, 0, 87, 0
2, 91008, Note_on_c, 0, 86, 98
2, 91196, Note_on_c, 0, 86, 0
2, 91488, Note_on_c, 0, 84, 98
2, 91584, Note_on_c, 0, 84, 0
2, 91584, Note_on_c, 0, 87, 98
2, 91680, Note_on_c, 0, 87, 0
2, 91680, Note_on_c, 0, 84, 98
2, 91772, Note_on_c, 0, 84, 0
2, 91872, Note_on_c, 0, 81, 98
2, 91968, Note_on_c, 0, 81, 0
2, 91968, Note_on_c, 0, 84, 98
2, 92064, Note_on_c, 0, 84, 0
2, 92064, Note_on_c, 0, 81, 98
2, 92156, Note_on_c, 0, 81, 0
2, 92160, Note_on_c, 0, 82, 98
2, 92480, Note_on_c, 0, 82, 0
2, 93312, Note_on_c, 0, 84, 98
2, 93600, Note_on_c, 0, 84, 0
2, 93600, Note_on_c, 0, 82, 98
2, 93692, Note_on_c, 0, 82, 0
2, 93696, Note_on_c, 0, 82, 98
2, 93792, Note_on_c, 0, 82, 0
2, 93792, Note_on_c, 0, 81, 98
2, 93888, Note_on_c, 0, 81, 0
2, 93888, Note_on_c, 0, 79, 98
2, 93984, Note_on_c, 0, 79, 0
2, 93984, Note_on_c, 0, 77, 98
2, 94076, Note_on_c, 0, 77, 0
2, 94080, Note_on_c, 0, 77, 98
2, 94144, Note_on_c, 0, 77, 0
2, 94176, Note_on_c, 0, 77, 98
2, 94272, Note_on_c, 0, 77, 0
2, 94272, Note_on_c, 0, 79, 98
2, 94368, Note_on_c, 0, 79, 0
2, 94368, Note_on_c, 0, 81, 98
2, 94464, Note_on_c, 0, 81, 0
2, 94464, Note_on_c, 0, 82, 98
2, 94652, Note_on_c, 0, 82, 0
2, 95616, Note_on_c, 0, 84, 98
2, 95904, Note_on_c, 0, 84, 0
2, 95904, Note_on_c, 0, 82, 98
2, 95996, Note_on_c, 0, 82, 0
2, 96000, Note_on_c, 0, 82, 98
2, 96096, Note_on_c, 0, 82, 0
2, 96096, Note_on_c, 0, 81, 98
2, 96192, Note_on_c, 0, 81, 0
2, 96192, Note_on_c, 0, 79, 98
2, 96288, Note_on_c, 0, 79, 0
2, 96288, Note_on_c, 0, 77, 98
2, 96380, Note_on_c, 0, 77, 0
2, 96384, Note_on_c, 0, 76, 98
2, 96448, Note_on_c, 0, 76, 0
2, 96448, Note_on_c, 0, 77, 98
2, 96512, Note_on_c, 0, 77, 0
2, 96512, Note_on_c, 0, 78, 98
2, 96576, Note_on_c, 0, 78, 0
2, 96576, Note_on_c, 0, 79, 98
2, 96640, Note_on_c, 0, 79, 0
2, 96640, Note_on_c, 0, 80, 98
2, 96704, Note_on_c, 0, 80, 0
2, 96704, Note_on_c, 0, 81, 98
2, 96768, Note_on_c, 0, 81, 0
2, 96768, Note_on_c, 0, 82, 98
2, 96956, Note_on_c, 0, 82, 0
2, 97152, Note_on_c, 0, 84, 98
2, 97440, Note_on_c, 0, 84, 0
2, 97440, Note_on_c, 0, 87, 98
2, 97488, Note_on_c, 0, 87, 0
2, 97488, Note_on_c, 0, 84, 98
2, 97536, Note_on_c, 0, 84, 0
2, 97536, Note_on_c, 0, 82, 98
2, 97724, Note_on_c, 0, 82, 0
2, 97728, Note_on_c, 0, 82, 98
2, 97916, Note_on_c, 0, 82, 0
2, 97920, Note_on_c, 0, 84, 98
2, 98208, Note_on_c, 0, 84, 0
2, 98208, Note_on_c, 0, 87, 98
2, 98256, Note_on_c, 0, 87, 0
2, 98256, Note_on_c, 0, 84, 98
2, 98304, Note_on_c, 0, 84, 0
2, 98304, Note_on_c, 0, 82, 98
2, 98492, Note_on_c, 0, 82, 0
2, 98496, Note_on_c, 0, 84, 98
2, 98640, Note_on_c, 0, 84, 0
2, 98640, Note_on_c, 0, 86, 98
2, 98688, Note_on_c, 0, 86, 0
2, 98688, Note_on_c, 0, 82, 98
2, 98876, Note_on_c, 0, 82, 0
2, 98880, Note_on_c, 0, 84, 98
2, 99024, Note_on_c, 0, 84, 0
2, 99024, Note_on_c, 0, 86, 98
2, 99072, Note_on_c, 0, 86, 0
2, 99072, Note_on_c, 0, 82, 98
2, 99260, Note_on_c, 0, 82, 0
2, 99840, Note_on_c, 0, 67, 98
2, 99904, Note_on_c, 0, 67, 0
2, 100032, Note_on_c, 0, 67, 98
2, 100416, Note_on_c, 0, 67, 0
2, 100416, Note_on_c, 0, 68, 98
2, 100604, Note_on_c, 0, 68, 0
2, 100608, Note_on_c, 0, 67, 98
2, 100704, Note_on_c, 0, 67, 0
2, 100704, Note_on_c, 0, 65, 98
2, 100796, Note_on_c, 0, 65, 0
2, 100800, Note_on_c, 0, 65, 98
2, 101184, Note_on_c, 0, 65, 0
2, 101184, Note_on_c, 0, 70, 98
2, 101372, Note_on_c, 0, 70, 0
2, 101376, Note_on_c, 0, 70, 98
2, 101472, Note_on_c, 0, 70, 0
2, 101472, Note_on_c, 0, 63, 98
2, 101564, Note_on_c, 0, 63, 0
2, 101568, Note_on_c, 0, 63, 98
2, 101888, Note_on_c, 0, 63, 0
2, 101952, Note_on_c, 0, 72, 98
2, 102048, Note_on_c, 0, 72, 0
2, 102048, Note_on_c, 0, 68, 98
2, 102140, Note_on_c, 0, 68, 0
2, 102144, Note_on_c, 0, 63, 98
2, 102144, Note_on_c, 0, 67, 98
2, 102528, Note_on_c, 0, 67, 0
2, 102528, Note_on_c, 0, 63, 0
2, 102528, Note_on_c, 0, 62, 98
2, 102528, Note_on_c, 0, 65, 98
2, 102716, Note_on_c, 0, 65, 0
2, 102716, Note_on_c, 0, 62, 0
2, 102912, Note_on_c, 0, 55, 98
2, 102912, Note_on_c, 0, 58, 98
2, 102912, Note_on_c, 0, 63, 98
2, 103232, Note_on_c, 0, 63, 0
2, 103232, Note_on_c, 0, 58, 0
2, 103232, Note_on_c, 0, 55, 0
2, 103296, Note_on_c, 0, 58, 98
2, 103296, Note_on_c, 0, 62, 98
2, 103296, Note_on_c, 0, 65, 98
2, 103616, Note_on_c, 0, 65, 0
2, 103616, Note_on_c, 0, 62, 0
2, 103616, Note_on_c, 0, 58, 0
2, 103680, Note_on_c, 0, 67, 98
2, 103968, Note_on_c, 0, 67, 0
2, 103968, Note_on_c, 0, 65, 98
2, 104016, Note_on_c, 0, 65, 0
2, 104016, Note_on_c, 0, 67, 98
2, 104060, Note_on_c, 0, 67, 0
2, 104064, Note_on_c, 0, 68, 98
2, 104252, Note_on_c, 0, 68, 0
2, 104448, Note_on_c, 0, 70, 98
2, 104736, Note_on_c, 0, 70, 0
2, 104736, Note_on_c, 0, 69, 98
2, 104784, Note_on_c, 0, 69, 0
2, 104784, Note_on_c, 0, 70, 98
2, 104832, Note_on_c, 0, 70, 0
2, 104832, Note_on_c, 0, 72, 98
2, 105020, Note_on_c, 0, 72, 0
2, 105024, Note_on_c, 0, 60, 98
2, 105024, Note_on_c, 0, 65, 98
2, 105024, Note_on_c, 0, 68, 98
2, 105212, Note_on_c, 0, 68, 0
2, 105212, Note_on_c, 0, 65, 0
2, 105212, Note_on_c, 0, 60, 0
2, 105216, Note_on_c, 0, 58, 98
2, 105216, Note_on_c, 0, 63, 98
2, 105216, Note_on_c, 0, 67, 98
2, 105600, Note_on_c, 0, 67, 0
2, 105600, Note_on_c, 0, 63, 0
2, 105600, Note_on_c, 0, 58, 0
2, 105600, Note_on_c, 0, 58, 98
2, 105600, Note_on_c, 0, 62, 98
2, 105600, Note_on_c, 0, 65, 98
2, 105788, Note_on_c, 0, 65, 0
2, 105788, Note_on_c, 0, 62, 0
2, 105788, Note_on_c, 0, 58, 0
2, 109056, Note_on_c, 0, 63, 98
2, 109056, Note_on_c, 0, 75, 98
2, 109376, Note_on_c, 0, 75, 0
2, 109376, Note_on_c, 0, 63, 0
2, 109440, Note_on_c, 0, 65, 98
2, 109440, Note_on_c, 0, 77, 98
2, 109760, Note_on_c, 0, 77, 0
2, 109760, Note_on_c, 0, 65, 0
2, 109824, Note_on_c, 0, 79, 98
2, 110112, Note_on_c, 0, 79, 0
2, 110112, Note_on_c, 0, 77, 98
2, 110160, Note_on_c, 0, 77, 0
2, 110160, Note_on_c, 0, 79, 98
2, 110208, Note_on_c, 0, 79, 0
2, 110208, Note_on_c, 0, 80, 98
2, 110396, Note_on_c, 0, 80, 0
2, 110400, Note_on_c, 0, 81, 98
2, 110464, Note_on_c, 0, 81, 0
2, 110592, Note_on_c, 0, 82, 98
2, 110780, Note_on_c, 0, 82, 0
2, 110784, Note_on_c, 0, 75, 98
2, 110880, Note_on_c, 0, 75, 0
2, 110880, Note_on_c, 0, 79, 98
2, 110972, Note_on_c, 0, 79, 0
2, 110976, Note_on_c, 0, 79, 98
2, 111072, Note_on_c, 0, 79, 0
2, 111072, Note_on_c, 0, 77, 98
2, 111168, Note_on_c, 0, 77, 0
2, 111168, Note_on_c, 0, 75, 98
2, 111264, Note_on_c, 0, 75, 0
2, 111264, Note_on_c, 0, 74, 98
2, 111356, Note_on_c, 0, 74, 0
2, 111360, Note_on_c, 0, 75, 98
2, 111680, Note_on_c, 0, 75, 0
2, 112896, Note_on_c, 0, 89, 98
2, 112960, Note_on_c, 0, 89, 0
2, 112960, Note_on_c, 0, 87, 98
2, 113024, Note_on_c, 0, 87, 0
2, 113024, Note_on_c, 0, 86, 98
2, 113088, Note_on_c, 0, 86, 0
2, 113088, Note_on_c, 0, 84, 98
2, 113152, Note_on_c, 0, 84, 0
2, 113152, Note_on_c, 0, 82, 98
2, 113216, Note_on_c, 0, 82, 0
2, 113216, Note_on_c, 0, 80, 98
2, 113280, Note_on_c, 0, 80, 0
2, 113280, Note_on_c, 0, 79, 98
2, 113344, Note_on_c, 0, 79, 0
2, 113344, Note_on_c, 0, 77, 98
2, 113408, Note_on_c, 0, 77, 0
2, 113408, Note_on_c, 0, 75, 98
2, 113472, Note_on_c, 0, 75, 0
2, 113472, Note_on_c, 0, 74, 98
2, 113536, Note_on_c, 0, 74, 0
2, 113536, Note_on_c, 0, 72, 98
2, 113600, Note_on_c, 0, 72, 0
2, 113600, Note_on_c, 0, 70, 98
2, 113664, Note_on_c, 0, 70, 0
2, 113664, Note_on_c, 0, 75, 98
2, 113728, Note_on_c, 0, 75, 0
2, 115200, Note_on_c, 0, 77, 98
2, 115264, Note_on_c, 0, 77, 0
2, 115264, Note_on_c, 0, 75, 98
2, 115328, Note_on_c, 0, 75, 0
2, 115328, Note_on_c, 0, 74, 98
2, 115392, Note_on_c, 0, 74, 0
2, 115392, Note_on_c, 0, 72, 98
2, 115456, Note_on_c, 0, 72, 0
2, 115456, Note_on_c, 0, 70, 98
2, 115520, Note_on_c, 0, 70, 0
2, 115520, Note_on_c, 0, 68, 98
2, 115584, Note_on_c, 0, 68, 0
2, 115584, Note_on_c, 0, 67, 98
2, 115648, Note_on_c, 0, 67, 0
2, 115648, Note_on_c, 0, 65, 98
2, 115712, Note_on_c, 0, 65, 0
2, 115712, Note_on_c, 0, 63, 98
2, 115776, Note_on_c, 0, 63, 0
2, 115776, Note_on_c, 0, 62, 98
2, 115840, Note_on_c, 0, 62, 0
2, 115840, Note_on_c, 0, 60, 98
2, 115904, Note_on_c, 0, 60, 0
2, 115904, Note_on_c, 0, 58, 98
2, 115968, Note_on_c, 0, 58, 0
2, 115968, Note_on_c, 0, 63, 98
2, 116032, Note_on_c, 0, 63, 0
2, 116032, Note_on_c, 0, 58, 98
2, 116096, Note_on_c, 0, 58, 0
2, 116096, Note_on_c, 0, 67, 98
2, 116160, Note_on_c, 0, 67, 0
2, 116160, Note_on_c, 0, 65, 98
2, 116224, Note_on_c, 0, 65, 0
2, 116224, Note_on_c, 0, 58, 98
2, 116288, Note_on_c, 0, 58, 0
2, 116288, Note_on_c, 0, 68, 98
2, 116352, Note_on_c, 0, 68, 0
2, 116352, Note_on_c, 0, 67, 98
2, 116416, Note_on_c, 0, 67, 0
2, 116416, Note_on_c, 0, 63, 98
2, 116480, Note_on_c, 0, 63, 0
2, 116480, Note_on_c, 0, 70, 98
2, 116544, Note_on_c, 0, 70, 0
2, 116544, Note_on_c, 0, 68, 98
2, 116608, Note_on_c, 0, 68, 0
2, 116608, Note_on_c, 0, 65, 98
2, 116672, Note_on_c, 0, 65, 0
2, 116672, Note_on_c, 0, 62, 98
2, 116736, Note_on_c, 0, 62, 0
2, 116736, Note_on_c, 0, 63, 98
2, 116800, Note_on_c, 0, 63, 0
2, 116800, Note_on_c, 0, 58, 98
2, 116864, Note_on_c, 0, 58, 0
2, 116864, Note_on_c, 0, 67, 98
2, 116928, Note_on_c, 0, 67, 0
2, 116928, Note_on_c, 0, 65, 98
2, 116992, Note_on_c, 0, 65, 0
2, 116992, Note_on_c, 0, 58, 98
2, 117056, Note_on_c, 0, 58, 0
2, 117056, Note_on_c, 0, 68, 98
2, 117120, Note_on_c, 0, 68, 0
2, 117120, Note_on_c, 0, 67, 98
2, 117184, Note_on_c, 0, 67, 0
2, 117184, Note_on_c, 0, 63, 98
2, 117248, Note_on_c, 0, 63, 0
2, 117248, Note_on_c, 0, 70, 98
2, 117312, Note_on_c, 0, 70, 0
2, 117312, Note_on_c, 0, 68, 98
2, 117376, Note_on_c, 0, 68, 0
2, 117376, Note_on_c, 0, 65, 98
2, 117440, Note_on_c, 0, 65, 0
2, 117440, Note_on_c, 0, 62, 98
2, 117500, Note_on_c, 0, 62, 0
2, 117504, Note_on_c, 0, 63, 98
2, 117568, Note_on_c, 0, 63, 0
2, 117568, Note_on_c, 0, 67, 98
2, 117632, Note_on_c, 0, 67, 0
2, 117632, Note_on_c, 0, 70, 98
2, 117696, Note_on_c, 0, 70, 0
2, 117696, Note_on_c, 0, 75, 98
2, 117760, Note_on_c, 0, 75, 0
2, 117760, Note_on_c, 0, 70, 98
2, 117824, Note_on_c, 0, 70, 0
2, 117824, Note_on_c, 0, 75, 98
2, 117884, Note_on_c, 0, 75, 0
2, 117888, Note_on_c, 0, 60, 98
2, 117952, Note_on_c, 0, 60, 0
2, 117952, Note_on_c, 0, 63, 98
2, 118016, Note_on_c, 0, 63, 0
2, 118016, Note_on_c, 0, 67, 98
2, 118080, Note_on_c, 0, 67, 0
2, 118080, Note_on_c, 0, 72, 98
2, 118144, Note_on_c, 0, 72, 0
2, 118144, Note_on_c, 0, 67, 98
2, 118208, Note_on_c, 0, 67, 0
2, 118208, Note_on_c, 0, 72, 98
2, 118268, Note_on_c, 0, 72, 0
2, 118272, Note_on_c, 0, 56, 98
2, 118336, Note_on_c, 0, 56, 0
2, 118336, Note_on_c, 0, 60, 98
2, 118400, Note_on_c, 0, 60, 0
2, 118400, Note_on_c, 0, 63, 98
2, 118464, Note_on_c, 0, 63, 0
2, 118464, Note_on_c, 0, 68, 98
2, 118528, Note_on_c, 0, 68, 0
2, 118528, Note_on_c, 0, 63, 98
2, 118592, Note_on_c, 0, 63, 0
2, 118592, Note_on_c, 0, 68, 98
2, 118652, Note_on_c, 0, 68, 0
2, 118656, Note_on_c, 0, 53, 98
2, 118720, Note_on_c, 0, 53, 0
2, 118720, Note_on_c, 0, 56, 98
2, 118784, Note_on_c, 0, 56, 0
2, 118784, Note_on_c, 0, 60, 98
2, 118848, Note_on_c, 0, 60, 0
2, 118848, Note_on_c, 0, 65, 98
2, 118912, Note_on_c, 0, 65, 0
2, 118912, Note_on_c, 0, 60, 98
2, 118976, Note_on_c, 0, 60, 0
2, 118976, Note_on_c, 0, 65, 98
2, 119036, Note_on_c, 0, 65, 0
2, 119040, Note_on_c, 0, 58, 98
2, 119228, Note_on_c, 0, 58, 0
2, 119232, Note_on_c, 0, 65, 98
2, 119232, Note_on_c, 0, 68, 98
2, 119616, Note_on_c, 0, 68, 0
2, 119616, Note_on_c, 0, 65, 0
2, 119616, Note_on_c, 0, 63, 98
2, 119616, Note_on_c, 0, 67, 98
2, 119804, Note_on_c, 0, 67, 0
2, 119804, Note_on_c, 0, 63, 0
2, 119808, Note_on_c, 0, 62, 98
2, 119808, Note_on_c, 0, 65, 98
2, 120128, Note_on_c, 0, 65, 0
2, 120128, Note_on_c, 0, 62, 0
2, 120768, Note_on_c, 0, 82, 98
2, 120816, Note_on_c, 0, 82, 0
2, 120816, Note_on_c, 0, 80, 98
2, 120864, Note_on_c, 0, 80, 0
2, 120864, Note_on_c, 0, 79, 98
2, 120912, Note_on_c, 0, 79, 0
2, 120912, Note_on_c, 0, 77, 98
2, 120960, Note_on_c, 0, 77, 0
2, 120960, Note_on_c, 0, 75, 98
2, 121008, Note_on_c, 0, 75, 0
2, 121008, Note_on_c, 0, 74, 98
2, 121056, Note_on_c, 0, 74, 0
2, 121056, Note_on_c, 0, 72, 98
2, 121104, Note_on_c, 0, 72, 0
2, 121104, Note_on_c, 0, 70, 98
2, 121152, Note_on_c, 0, 70, 0
2, 121152, Note_on_c, 0, 68, 98
2, 121200, Note_on_c, 0, 68, 0
2, 121200, Note_on_c, 0, 67, 98
2, 121248, Note_on_c, 0, 67, 0
2, 121248, Note_on_c, 0, 65, 98
2, 121296, Note_on_c, 0, 65, 0
2, 121296, Note_on_c, 0, 63, 98
2, 121344, Note_on_c, 0, 63, 0
2, 121344, Note_on_c, 0, 62, 98
2, 121532, Note_on_c, 0, 62, 0
2, 121536, Note_on_c, 0, 58, 98
2, 121584, Note_on_c, 0, 58, 0
2, 121584, Note_on_c, 0, 60, 98
2, 121632, Note_on_c, 0, 60, 0
2, 121632, Note_on_c, 0, 62, 98
2, 121680, Note_on_c, 0, 62, 0
2, 121680, Note_on_c, 0, 63, 98
2, 121728, Note_on_c, 0, 63, 0
2, 121728, Note_on_c, 0, 65, 98
2, 121776, Note_on_c, 0, 65, 0
2, 121776, Note_on_c, 0, 67, 98
2, 121824, Note_on_c, 0, 67, 0
2, 121824, Note_on_c, 0, 68, 98
2, 121872, Note_on_c, 0, 68, 0
2, 121872, Note_on_c, 0, 70, 98
2, 121920, Note_on_c, 0, 70, 0
2, 121920, Note_on_c, 0, 72, 98
2, 121968, Note_on_c, 0, 72, 0
2, 121968, Note_on_c, 0, 74, 98
2, 122016, Note_on_c, 0, 74, 0
2, 122016, Note_on_c, 0, 75, 98
2, 122064, Note_on_c, 0, 75, 0
2, 122064, Note_on_c, 0, 77, 98
2, 122112, Note_on_c, 0, 77, 0
2, 122112, Note_on_c, 0, 79, 98
2, 122300, Note_on_c, 0, 79, 0
2, 122304, Note_on_c, 0, 82, 98
2, 122352, Note_on_c, 0, 82, 0
2, 122352, Note_on_c, 0, 80, 98
2, 122400, Note_on_c, 0, 80, 0
2, 122400, Note_on_c, 0, 79, 98
2, 122448, Note_on_c, 0, 79, 0
2, 122448, Note_on_c, 0, 77, 98
2, 122496, Note_on_c, 0, 77, 0
2, 122496, Note_on_c, 0, 75, 98
2, 122544, Note_on_c, 0, 75, 0
2, 122544, Note_on_c, 0, 74, 98
2, 122592, Note_on_c, 0, 74, 0
2, 122592, Note_on_c, 0, 72, 98
2, 122640, Note_on_c, 0, 72, 0
2, 122640, Note_on_c, 0, 70, 98
2, 122688, Note_on_c, 0, 70, 0
2, 122688, Note_on_c, 0, 68, 98
2, 122736, Note_on_c, 0, 68, 0
2, 122736, Note_on_c, 0, 67, 98
2, 122784, Note_on_c, 0, 67, 0
2, 122784, Note_on_c, 0, 65, 98
2, 122832, Note_on_c, 0, 65, 0
2, 122832, Note_on_c, 0, 63, 98
2, 122880, Note_on_c, 0, 63, 0
2, 122880, Note_on_c, 0, 62, 98
2, 122880, Note_on_c, 0, 65, 98
2, 122880, Note_on_c, 0, 70, 98
2, 123068, Note_on_c, 0, 70, 0
2, 123068, Note_on_c, 0, 65, 0
2, 123068, Note_on_c, 0, 62, 0
2, 123168, Note_on_c, 0, 58, 98
2, 123264, Note_on_c, 0, 58, 0
2, 123264, Note_on_c, 0, 57, 98
2, 123360, Note_on_c, 0, 57, 0
2, 123360, Note_on_c, 0, 58, 98
2, 123456, Note_on_c, 0, 58, 0
2, 123456, Note_on_c, 0, 60, 98
2, 123552, Note_on_c, 0, 60, 0
2, 123552, Note_on_c, 0, 62, 98
2, 123648, Note_on_c, 0, 62, 0
2, 123648, Note_on_c, 0, 63, 98
2, 123744, Note_on_c, 0, 63, 0
2, 123744, Note_on_c, 0, 65, 98
2, 123840, Note_on_c, 0, 65, 0
2, 123840, Note_on_c, 0, 67, 98
2, 123936, Note_on_c, 0, 67, 0
2, 123936, Note_on_c, 0, 65, 98
2, 124032, Note_on_c, 0, 65, 0
2, 124032, Note_on_c, 0, 64, 98
2, 124128, Note_on_c, 0, 64, 0
2, 124128, Note_on_c, 0, 60, 98
2, 124224, Note_on_c, 0, 60, 0
2, 124224, Note_on_c, 0, 62, 98
2, 124320, Note_on_c, 0, 62, 0
2, 124320, Note_on_c, 0, 64, 98
2, 124416, Note_on_c, 0, 64, 0
2, 124416, Note_on_c, 0, 65, 98
2, 124604, Note_on_c, 0, 65, 0
2, 124608, Note_on_c, 0, 77, 98
2, 124800, Note_on_c, 0, 77, 0
2, 124800, Note_on_c, 0, 72, 98
2, 124992, Note_on_c, 0, 72, 0
2, 124992, Note_on_c, 0, 74, 98
2, 125180, Note_on_c, 0, 74, 0
2, 125184, Note_on_c, 0, 75, 98
2, 125696, Note_on_c, 0, 75, 0
2, 125760, Note_on_c, 0, 72, 98
2, 125948, Note_on_c, 0, 72, 0
2, 125952, Note_on_c, 0, 74, 98
2, 126272, Note_on_c, 0, 74, 0
2, 128352, Note_on_c, 0, 81, 98
2, 128400, Note_on_c, 0, 81, 0
2, 128400, Note_on_c, 0, 82, 98
2, 128448, Note_on_c, 0, 82, 0
2, 128448, Note_on_c, 0, 84, 98
2, 128540, Note_on_c, 0, 84, 0
2, 128544, Note_on_c, 0, 82, 98
2, 128608, Note_on_c, 0, 82, 0
2, 128640, Note_on_c, 0, 81, 98
2, 128704, Note_on_c, 0, 81, 0
2, 128736, Note_on_c, 0, 79, 98
2, 128800, Note_on_c, 0, 79, 0
2, 128832, Note_on_c, 0, 77, 98
2, 128896, Note_on_c, 0, 77, 0
2, 128928, Note_on_c, 0, 75, 98
2, 128992, Note_on_c, 0, 75, 0
2, 129024, Note_on_c, 0, 74, 98
2, 129072, Note_on_c, 0, 74, 0
2, 129072, Note_on_c, 0, 77, 98
2, 129120, Note_on_c, 0, 77, 0
2, 129120, Note_on_c, 0, 82, 98
2, 129168, Note_on_c, 0, 82, 0
2, 129168, Note_on_c, 0, 86, 98
2, 129216, Note_on_c, 0, 86, 0
2, 129216, Note_on_c, 0, 89, 98
2, 129308, Note_on_c, 0, 89, 0
2, 129312, Note_on_c, 0, 89, 98
2, 129404, Note_on_c, 0, 89, 0
2, 129408, Note_on_c, 0, 89, 98
2, 129596, Note_on_c, 0, 89, 0
2, 130608, Note_on_c, 0, 72, 98
2, 130656, Note_on_c, 0, 72, 0
2, 130656, Note_on_c, 0, 84, 98
2, 130704, Note_on_c, 0, 84, 0
2, 130704, Note_on_c, 0, 81, 98
2, 130752, Note_on_c, 0, 81, 0
2, 130752, Note_on_c, 0, 77, 98
2, 130800, Note_on_c, 0, 77, 0
2, 130800, Note_on_c, 0, 72, 98
2, 130848, Note_on_c, 0, 72, 0
2, 130848, Note_on_c, 0, 69, 98
2, 130892, Note_on_c, 0, 69, 0
2, 130992, Note_on_c, 0, 74, 98
2, 131040, Note_on_c, 0, 74, 0
2, 131040, Note_on_c, 0, 86, 98
2, 131088, Note_on_c, 0, 86, 0
2, 131088, Note_on_c, 0, 82, 98
2, 131136, Note_on_c, 0, 82, 0
2, 131136, Note_on_c, 0, 77, 98
2, 131184, Note_on_c, 0, 77, 0
2, 131184, Note_on_c, 0, 74, 98
2, 131232, Note_on_c, 0, 74, 0
2, 131232, Note_on_c, 0, 70, 98
2, 131276, Note_on_c, 0, 70, 0
2, 131376, Note_on_c, 0, 72, 98
2, 131424, Note_on_c, 0, 72, 0
2, 131424, Note_on_c, 0, 84, 98
2, 131472, Note_on_c, 0, 84, 0
2, 131472, Note_on_c, 0, 81, 98
2, 131520, Note_on_c, 0, 81, 0
2, 131520, Note_on_c, 0, 77, 98
2, 131568, Note_on_c, 0, 77, 0
2, 131568, Note_on_c, 0, 72, 98
2, 131616, Note_on_c, 0, 72, 0
2, 131616, Note_on_c, 0, 69, 98
2, 131660, Note_on_c, 0, 69, 0
2, 131760, Note_on_c, 0, 74, 98
2, 131808, Note_on_c, 0, 74, 0
2, 131808, Note_on_c, 0, 86, 98
2, 131856, Note_on_c, 0, 86, 0
2, 131856, Note_on_c, 0, 82, 98
2, 131904, Note_on_c, 0, 82, 0
2, 131904, Note_on_c, 0, 77, 98
2, 131952, Note_on_c, 0, 77, 0
2, 131952, Note_on_c, 0, 74, 98
2, 132000, Note_on_c, 0, 74, 0
2, 132000, Note_on_c, 0, 70, 98
2, 132044, Note_on_c, 0, 70, 0
2, 132144, Note_on_c, 0, 72, 98
2, 132176, Note_on_c, 0, 72, 0
2, 132192, Note_on_c, 0, 84, 98
2, 132240, Note_on_c, 0, 84, 0
2, 132240, Note_on_c, 0, 81, 98
2, 132284, Note_on_c, 0, 81, 0
2, 132336, Note_on_c, 0, 74, 98
2, 132368, Note_on_c, 0, 74, 0
2, 132384, Note_on_c, 0, 86, 98
2, 132432, Note_on_c, 0, 86, 0
2, 132432, Note_on_c, 0, 82, 98
2, 132476, Note_on_c, 0, 82, 0
2, 132528, Note_on_c, 0, 72, 98
2, 132560, Note_on_c, 0, 72, 0
2, 132576, Note_on_c, 0, 84, 98
2, 132624, Note_on_c, 0, 84, 0
2, 132624, Note_on_c, 0, 81, 98
2, 132668, Note_on_c, 0, 81, 0
2, 132720, Note_on_c, 0, 74, 98
2, 132752, Note_on_c, 0, 74, 0
2, 132768, Note_on_c, 0, 86, 98
2, 132816, Note_on_c, 0, 86, 0
2, 132816, Note_on_c, 0, 82, 98
2, 132864, Note_on_c, 0, 82, 0
2, 132864, Note_on_c, 0, 84, 98
2, 132960, Note_on_c, 0, 84, 0
2, 132960, Note_on_c, 0, 77, 98
2, 133052, Note_on_c, 0, 77, 0
2, 133056, Note_on_c, 0, 77, 98
2, 133120, Note_on_c, 0, 77, 0
2, 133152, Note_on_c, 0, 77, 98
2, 133216, Note_on_c, 0, 77, 0
2, 133248, Note_on_c, 0, 77, 98
2, 133344, Note_on_c, 0, 77, 0
2, 133344, Note_on_c, 0, 78, 98
2, 133440, Note_on_c, 0, 78, 0
2, 133440, Note_on_c, 0, 79, 98
2, 133536, Note_on_c, 0, 79, 0
2, 133536, Note_on_c, 0, 75, 98
2, 133628, Note_on_c, 0, 75, 0
2, 133632, Note_on_c, 0, 74, 98
2, 133920, Note_on_c, 0, 74, 0
2, 133920, Note_on_c, 0, 70, 98
2, 134016, Note_on_c, 0, 70, 0
2, 134016, Note_on_c, 0, 74, 98
2, 134112, Note_on_c, 0, 74, 0
2, 134112, Note_on_c, 0, 70, 98
2, 134208, Note_on_c, 0, 70, 0
2, 134208, Note_on_c, 0, 74, 98
2, 134304, Note_on_c, 0, 74, 0
2, 134304, Note_on_c, 0, 77, 98
2, 134396, Note_on_c, 0, 77, 0
2, 134400, Note_on_c, 0, 69, 98
2, 134400, Note_on_c, 0, 77, 98
2, 134496, Note_on_c, 0, 77, 0
2, 134496, Note_on_c, 0, 75, 98
2, 134592, Note_on_c, 0, 75, 0
2, 134592, Note_on_c, 0, 74, 98
2, 134688, Note_on_c, 0, 74, 0
2, 134688, Note_on_c, 0, 72, 98
2, 134780, Note_on_c, 0, 72, 0
2, 134784, Note_on_c, 0, 72, 98
2, 134912, Note_on_c, 0, 69, 0
2, 134972, Note_on_c, 0, 72, 0
2, 136704, Note_on_c, 0, 82, 98
2, 136992, Note_on_c, 0, 82, 0
2, 136992, Note_on_c, 0, 86, 98
2, 137088, Note_on_c, 0, 86, 0
2, 137088, Note_on_c, 0, 77, 98
2, 137152, Note_on_c, 0, 77, 0
2, 137184, Note_on_c, 0, 77, 98
2, 137248, Note_on_c, 0, 77, 0
2, 137280, Note_on_c, 0, 77, 98
2, 137372, Note_on_c, 0, 77, 0
2, 137376, Note_on_c, 0, 78, 98
2, 137468, Note_on_c, 0, 78, 0
2, 137472, Note_on_c, 0, 79, 98
2, 137760, Note_on_c, 0, 79, 0
2, 137760, Note_on_c, 0, 82, 98
2, 137856, Note_on_c, 0, 82, 0
2, 137856, Note_on_c, 0, 72, 98
2, 137924, Note_on_c, 0, 72, 0
2, 137952, Note_on_c, 0, 72, 98
2, 138016, Note_on_c, 0, 72, 0
2, 138048, Note_on_c, 0, 72, 98
2, 138144, Note_on_c, 0, 72, 0
2, 138144, Note_on_c, 0, 75, 98
2, 138236, Note_on_c, 0, 75, 0
2, 138240, Note_on_c, 0, 74, 98
2, 138336, Note_on_c, 0, 74, 0
2, 138336, Note_on_c, 0, 77, 98
2, 138428, Note_on_c, 0, 77, 0
2, 138528, Note_on_c, 0, 70, 98
2, 138620, Note_on_c, 0, 70, 0
2, 138624, Note_on_c, 0, 67, 98
2, 138720, Note_on_c, 0, 67, 0
2, 138720, Note_on_c, 0, 75, 98
2, 138812, Note_on_c, 0, 75, 0
2, 138912, Note_on_c, 0, 79, 98
2, 139004, Note_on_c, 0, 79, 0
2, 139008, Note_on_c, 0, 74, 98
2, 139296, Note_on_c, 0, 74, 0
2, 139296, Note_on_c, 0, 75, 98
2, 139344, Note_on_c, 0, 75, 0
2, 139344, Note_on_c, 0, 74, 98
2, 139392, Note_on_c, 0, 74, 0
2, 139392, Note_on_c, 0, 72, 98
2, 139580, Note_on_c, 0, 72, 0
2, 141312, Note_on_c, 0, 72, 98
2, 141312, Note_on_c, 0, 75, 98
2, 141408, Note_on_c, 0, 75, 0
2, 141408, Note_on_c, 0, 72, 0
2, 141408, Note_on_c, 0, 71, 98
2, 141408, Note_on_c, 0, 74, 98
2, 141504, Note_on_c, 0, 74, 0
2, 141504, Note_on_c, 0, 71, 0
2, 141504, Note_on_c, 0, 72, 98
2, 141504, Note_on_c, 0, 75, 98
2, 141600, Note_on_c, 0, 75, 0
2, 141600, Note_on_c, 0, 72, 0
2, 141600, Note_on_c, 0, 71, 98
2, 141600, Note_on_c, 0, 74, 98
2, 141696, Note_on_c, 0, 74, 0
2, 141696, Note_on_c, 0, 71, 0
2, 141696, Note_on_c, 0, 72, 98
2, 141696, Note_on_c, 0, 75, 98
2, 141792, Note_on_c, 0, 75, 0
2, 141792, Note_on_c, 0, 72, 0
2, 141792, Note_on_c, 0, 71, 98
2, 141792, Note_on_c, 0, 74, 98
2, 141888, Note_on_c, 0, 74, 0
2, 141888, Note_on_c, 0, 71, 0
2, 141888, Note_on_c, 0, 72, 98
2, 141888, Note_on_c, 0, 75, 98
2, 141984, Note_on_c, 0, 75, 0
2, 141984, Note_on_c, 0, 72, 0
2, 141984, Note_on_c, 0, 73, 98
2, 141984, Note_on_c, 0, 76, 98
2, 142080, Note_on_c, 0, 76, 0
2, 142080, Note_on_c, 0, 73, 0
2, 142080, Note_on_c, 0, 74, 98
2, 142080, Note_on_c, 0, 77, 98
2, 142176, Note_on_c, 0, 77, 0
2, 142176, Note_on_c, 0, 74, 0
2, 142176, Note_on_c, 0, 73, 98
2, 142176, Note_on_c, 0, 76, 98
2, 142272, Note_on_c, 0, 76, 0
2, 142272, Note_on_c, 0, 73, 0
2, 142272, Note_on_c, 0, 74, 98
2, 142272, Note_on_c, 0, 77, 98
2, 142368, Note_on_c, 0, 77, 0
2, 142368, Note_on_c, 0, 74, 0
2, 142368, Note_on_c, 0, 73, 98
2, 142368, Note_on_c, 0, 76, 98
2, 142464, Note_on_c, 0, 76, 0
2, 142464, Note_on_c, 0, 73, 0
2, 142464, Note_on_c, 0, 74, 98
2, 142464, Note_on_c, 0, 77, 98
2, 142652, Note_on_c, 0, 77, 0
2, 142652, Note_on_c, 0, 74, 0
2, 145344, Note_on_c, 0, 82, 98
2, 145392, Note_on_c, 0, 82, 0
2, 145392, Note_on_c, 0, 81, 98
2, 145440, Note_on_c, 0, 81, 0
2, 145440, Note_on_c, 0, 79, 98
2, 145488, Note_on_c, 0, 79, 0
2, 145488, Note_on_c, 0, 77, 98
2, 145536, Note_on_c, 0, 77, 0
2, 145536, Note_on_c, 0, 76, 98
2, 145584, Note_on_c, 0, 76, 0
2, 145584, Note_on_c, 0, 77, 98
2, 145632, Note_on_c, 0, 77, 0
2, 145632, Note_on_c, 0, 79, 98
2, 145680, Note_on_c, 0, 79, 0
2, 145680, Note_on_c, 0, 77, 98
2, 145728, Note_on_c, 0, 77, 0
2, 145728, Note_on_c, 0, 75, 98
2, 145776, Note_on_c, 0, 75, 0
2, 145776, Note_on_c, 0, 74, 98
2, 145824, Note_on_c, 0, 74, 0
2, 145824, Note_on_c, 0, 72, 98
2, 145872, Note_on_c, 0, 72, 0
2, 145872, Note_on_c, 0, 70, 98
2, 145920, Note_on_c, 0, 70, 0
2, 145920, Note_on_c, 0, 69, 98
2, 145968, Note_on_c, 0, 69, 0
2, 145968, Note_on_c, 0, 81, 98
2, 146016, Note_on_c, 0, 81, 0
2, 146016, Note_on_c, 0, 70, 98
2, 146064, Note_on_c, 0, 70, 0
2, 146064, Note_on_c, 0, 82, 98
2, 146112, Note_on_c, 0, 82, 0
2, 146112, Note_on_c, 0, 72, 98
2, 146160, Note_on_c, 0, 72, 0
2, 146160, Note_on_c, 0, 84, 98
2, 146208, Note_on_c, 0, 84, 0
2, 146208, Note_on_c, 0, 74, 98
2, 146256, Note_on_c, 0, 74, 0
2, 146256, Note_on_c, 0, 86, 98
2, 146304, Note_on_c, 0, 86, 0
2, 146304, Note_on_c, 0, 75, 98
2, 146304, Note_on_c, 0, 87, 98
2, 146492, Note_on_c, 0, 87, 0
2, 146492, Note_on_c, 0, 75, 0
2, 146496, Note_on_c, 0, 69, 98
2, 146496, Note_on_c, 0, 81, 98
2, 146684, Note_on_c, 0, 81, 0
2, 146684, Note_on_c, 0, 69, 0
2, 146688, Note_on_c, 0, 70, 98
2, 146688, Note_on_c, 0, 82, 98
2, 146876, Note_on_c, 0, 82, 0
2, 146876, Note_on_c, 0, 70, 0
2, 146880, Note_on_c, 0, 82, 98
2, 146928, Note_on_c, 0, 82, 0
2, 146928, Note_on_c, 0, 81, 98
2, 146976, Note_on_c, 0, 81, 0
2, 146976, Note_on_c, 0, 79, 98
2, 147024, Note_on_c, 0, 79, 0
2, 147024, Note_on_c, 0, 77, 98
2, 147072, Note_on_c, 0, 77, 0
2, 147072, Note_on_c, 0, 76, 98
2, 147120, Note_on_c, 0, 76, 0
2, 147120, Note_on_c, 0, 77, 98
2, 147168, Note_on_c, 0, 77, 0
2, 147168, Note_on_c, 0, 79, 98
2, 147216, Note_on_c, 0, 79, 0
2, 147216, Note_on_c, 0, 77, 98
2, 147264, Note_on_c, 0, 77, 0
2, 147264, Note_on_c, 0, 75, 98
2, 147312, Note_on_c, 0, 75, 0
2, 147312, Note_on_c, 0, 74, 98
2, 147360, Note_on_c, 0, 74, 0
2, 147360, Note_on_c, 0, 72, 98
2, 147408, Note_on_c, 0, 72, 0
2, 147408, Note_on_c, 0, 70, 98
2, 147456, Note_on_c, 0, 70, 0
2, 147456, Note_on_c, 0, 69, 98
2, 147504, Note_on_c, 0, 69, 0
2, 147504, Note_on_c, 0, 81, 98
2, 147552, Note_on_c, 0, 81, 0
2, 147552, Note_on_c, 0, 70, 98
2, 147600, Note_on_c, 0, 70, 0
2, 147600, Note_on_c, 0, 82, 98
2, 147648, Note_on_c, 0, 82, 0
2, 147648, Note_on_c, 0, 72, 98
2, 147696, Note_on_c, 0, 72, 0
2, 147696, Note_on_c, 0, 84, 98
2, 147744, Note_on_c, 0, 84, 0
2, 147744, Note_on_c, 0, 74, 98
2, 147792, Note_on_c, 0, 74, 0
2, 147792, Note_on_c, 0, 86, 98
2, 147840, Note_on_c, 0, 86, 0
2, 147840, Note_on_c, 0, 75, 98
2, 147840, Note_on_c, 0, 87, 98
2, 148028, Note_on_c, 0, 87, 0
2, 148028, Note_on_c, 0, 75, 0
2, 148032, Note_on_c, 0, 69, 98
2, 148032, Note_on_c, 0, 81, 98
2, 148220, Note_on_c, 0, 81, 0
2, 148220, Note_on_c, 0, 69, 0
2, 148224, Note_on_c, 0, 70, 98
2, 148224, Note_on_c, 0, 82, 98
2, 148412, Note_on_c, 0, 82, 0
2, 148412, Note_on_c, 0, 70, 0
2, 148416, Note_on_c, 0, 89, 98
2, 148464, Note_on_c, 0, 89, 0
2, 148464, Note_on_c, 0, 87, 98
2, 148512, Note_on_c, 0, 87, 0
2, 148512, Note_on_c, 0, 86, 98
2, 148560, Note_on_c, 0, 86, 0
2, 148560, Note_on_c, 0, 84, 98
2, 148608, Note_on_c, 0, 84, 0
2, 148608, Note_on_c, 0, 82, 98
2, 148656, Note_on_c, 0, 82, 0
2, 148656, Note_on_c, 0, 81, 98
2, 148704, Note_on_c, 0, 81, 0
2, 148704, Note_on_c, 0, 79, 98
2, 148752, Note_on_c, 0, 79, 0
2, 148752, Note_on_c, 0, 77, 98
2, 148800, Note_on_c, 0, 77, 0
2, 148800, Note_on_c, 0, 75, 98
2, 148848, Note_on_c, 0, 75, 0
2, 148848, Note_on_c, 0, 74, 98
2, 148896, Note_on_c, 0, 74, 0
2, 148896, Note_on_c, 0, 72, 98
2, 148944, Note_on_c, 0, 72, 0
2, 148944, Note_on_c, 0, 71, 98
2, 148992, Note_on_c, 0, 71, 0
2, 148992, Note_on_c, 0, 72, 98
2, 149180, Note_on_c, 0, 72, 0
2, 149184, Note_on_c, 0, 82, 98
2, 149232, Note_on_c, 0, 82, 0
2, 149232, Note_on_c, 0, 81, 98
2, 149280, Note_on_c, 0, 81, 0
2, 149280, Note_on_c, 0, 79, 98
2, 149328, Note_on_c, 0, 79, 0
2, 149328, Note_on_c, 0, 77, 98
2, 149376, Note_on_c, 0, 77, 0
2, 149376, Note_on_c, 0, 75, 98
2, 149424, Note_on_c, 0, 75, 0
2, 149424, Note_on_c, 0, 74, 98
2, 149472, Note_on_c, 0, 74, 0
2, 149472, Note_on_c, 0, 72, 98
2, 149520, Note_on_c, 0, 72, 0
2, 149520, Note_on_c, 0, 70, 98
2, 149568, Note_on_c, 0, 70, 0
2, 149568, Note_on_c, 0, 69, 98
2, 149616, Note_on_c, 0, 69, 0
2, 149616, Note_on_c, 0, 67, 98
2, 149664, Note_on_c, 0, 67, 0
2, 149664, Note_on_c, 0, 65, 98
2, 149712, Note_on_c, 0, 65, 0
2, 149712, Note_on_c, 0, 64, 98
2, 149760, Note_on_c, 0, 64, 0
2, 149760, Note_on_c, 0, 62, 98
2, 149856, Note_on_c, 0, 62, 0
2, 149856, Note_on_c, 0, 70, 98
2, 149904, Note_on_c, 0, 70, 0
2, 149904, Note_on_c, 0, 74, 98
2, 149952, Note_on_c, 0, 74, 0
2, 149952, Note_on_c, 0, 77, 98
2, 150044, Note_on_c, 0, 77, 0
2, 150048, Note_on_c, 0, 74, 98
2, 150048, Note_on_c, 0, 77, 98
2, 150112, Note_on_c, 0, 77, 0
2, 150112, Note_on_c, 0, 74, 0
2, 150144, Note_on_c, 0, 74, 98
2, 150144, Note_on_c, 0, 77, 98
2, 150240, Note_on_c, 0, 77, 0
2, 150240, Note_on_c, 0, 74, 0
2, 150240, Note_on_c, 0, 72, 98
2, 150240, Note_on_c, 0, 75, 98
2, 150332, Note_on_c, 0, 75, 0
2, 150332, Note_on_c, 0, 72, 0
2, 150336, Note_on_c, 0, 70, 98
2, 150336, Note_on_c, 0, 74, 98
2, 150400, Note_on_c, 0, 74, 0
2, 150400, Note_on_c, 0, 70, 0
2, 150432, Note_on_c, 0, 69, 98
2, 150432, Note_on_c, 0, 72, 98
2, 150496, Note_on_c, 0, 72, 0
2, 150496, Note_on_c, 0, 69, 0
2, 150528, Note_on_c, 0, 70, 98
2, 150716, Note_on_c, 0, 70, 0
2, 155232, Note_on_c, 0, 85, 98
2, 155420, Note_on_c, 0, 85, 0
2, 155424, Note_on_c, 0, 82, 98
2, 155612, Note_on_c, 0, 82, 0
2, 155616, Note_on_c, 0, 79, 98
2, 155804, Note_on_c, 0, 79, 0
2, 155808, Note_on_c, 0, 76, 98
2, 155900, Note_on_c, 0, 76, 0
2, 155904, Note_on_c, 0, 77, 98
2, 156048, Note_on_c, 0, 77, 0
2, 156048, Note_on_c, 0, 74, 98
2, 156096, Note_on_c, 0, 74, 0
2, 156096, Note_on_c, 0, 77, 98
2, 156284, Note_on_c, 0, 77, 0
2, 157632, Note_on_c, 0, 77, 98
2, 157920, Note_on_c, 0, 77, 0
2, 157920, Note_on_c, 0, 79, 98
2, 157968, Note_on_c, 0, 79, 0
2, 157968, Note_on_c, 0, 81, 98
2, 158016, Note_on_c, 0, 81, 0
2, 158016, Note_on_c, 0, 82, 98
2, 158064, Note_on_c, 0, 82, 0
2, 158064, Note_on_c, 0, 84, 98
2, 158112, Note_on_c, 0, 84, 0
2, 158112, Note_on_c, 0, 86, 98
2, 158160, Note_on_c, 0, 86, 0
2, 158160, Note_on_c, 0, 87, 98
2, 158208, Note_on_c, 0, 87, 0
2, 158208, Note_on_c, 0, 89, 98
2, 158400, Note_on_c, 0, 89, 0
2, 158400, Note_on_c, 0, 77, 98
2, 158592, Note_on_c, 0, 77, 0
2, 158592, Note_on_c, 0, 89, 98
2, 158780, Note_on_c, 0, 89, 0
2, 158784, Note_on_c, 0, 89, 98
2, 158972, Note_on_c, 0, 89, 0
2, 158976, Note_on_c, 0, 88, 98
2, 159168, Note_on_c, 0, 88, 0
2, 159168, Note_on_c, 0, 76, 98
2, 159360, Note_on_c, 0, 76, 0
2, 159360, Note_on_c, 0, 88, 98
2, 159548, Note_on_c, 0, 88, 0
2, 159552, Note_on_c, 0, 88, 98
2, 159740, Note_on_c, 0, 88, 0
2, 159744, Note_on_c, 0, 87, 98
2, 160032, Note_on_c, 0, 87, 0
2, 160032, Note_on_c, 0, 89, 98
2, 160080, Note_on_c, 0, 89, 0
2, 160080, Note_on_c, 0, 87, 98
2, 160128, Note_on_c, 0, 87, 0
2, 160128, Note_on_c, 0, 86, 98
2, 160316, Note_on_c, 0, 86, 0
2, 160608, Note_on_c, 0, 84, 98
2, 160704, Note_on_c, 0, 84, 0
2, 160704, Note_on_c, 0, 87, 98
2, 160800, Note_on_c, 0, 87, 0
2, 160800, Note_on_c, 0, 84, 98
2, 160892, Note_on_c, 0, 84, 0
2, 160992, Note_on_c, 0, 81, 98
2, 161088, Note_on_c, 0, 81, 0
2, 161088, Note_on_c, 0, 84, 98
2, 161184, Note_on_c, 0, 84, 0
2, 161184, Note_on_c, 0, 81, 98
2, 161276, Note_on_c, 0, 81, 0
2, 161280, Note_on_c, 0, 82, 98
2, 161600, Note_on_c, 0, 82, 0
2, 162432, Note_on_c, 0, 84, 98
2, 162720, Note_on_c, 0, 84, 0
2, 162720, Note_on_c, 0, 82, 98
2, 162812, Note_on_c, 0, 82, 0
2, 162816, Note_on_c, 0, 82, 98
2, 162912, Note_on_c, 0, 82, 0
2, 162912, Note_on_c, 0, 81, 98
2, 163008, Note_on_c, 0, 81, 0
2, 163008, Note_on_c, 0, 79, 98
2, 163104, Note_on_c, 0, 79, 0
2, 163104, Note_on_c, 0, 77, 98
2, 163196, Note_on_c, 0, 77, 0
2, 163200, Note_on_c, 0, 77, 98
2, 163264, Note_on_c, 0, 77, 0
2, 163296, Note_on_c, 0, 77, 98
2, 163392, Note_on_c, 0, 77, 0
2, 163392, Note_on_c, 0, 79, 98
2, 163488, Note_on_c, 0, 79, 0
2, 163488, Note_on_c, 0, 81, 98
2, 163584, Note_on_c, 0, 81, 0
2, 163584, Note_on_c, 0, 82, 98
2, 163772, Note_on_c, 0, 82, 0
2, 164736, Note_on_c, 0, 84, 98
2, 165024, Note_on_c, 0, 84, 0
2, 165024, Note_on_c, 0, 82, 98
2, 165116, Note_on_c, 0, 82, 0
2, 165120, Note_on_c, 0, 82, 98
2, 165216, Note_on_c, 0, 82, 0
2, 165216, Note_on_c, 0, 81, 98
2, 165312, Note_on_c, 0, 81, 0
2, 165312, Note_on_c, 0, 79, 98
2, 165408, Note_on_c, 0, 79, 0
2, 165408, Note_on_c, 0, 77, 98
2, 165500, Note_on_c, 0, 77, 0
2, 165504, Note_on_c, 0, 76, 98
2, 165568, Note_on_c, 0, 76, 0
2, 165568, Note_on_c, 0, 77, 98
2, 165632, Note_on_c, 0, 77, 0
2, 165632, Note_on_c, 0, 78, 98
2, 165696, Note_on_c, 0, 78, 0
2, 165696, Note_on_c, 0, 79, 98
2, 165760, Note_on_c, 0, 79, 0
2, 165760, Note_on_c, 0, 80, 98
2, 165824, Note_on_c, 0, 80, 0
2, 165824, Note_on_c, 0, 81, 98
2, 165888, Note_on_c, 0, 81, 0
2, 165888, Note_on_c, 0, 82, 98
2, 166076, Note_on_c, 0, 82, 0
2, 166272, Note_on_c, 0, 84, 98
2, 166560, Note_on_c, 0, 84, 0
2, 166560, Note_on_c, 0, 87, 98
2, 166608, Note_on_c, 0, 87, 0
2, 166608, Note_on_c, 0, 84, 98
2, 166656, Note_on_c, 0, 84, 0
2, 166656, Note_on_c, 0, 82, 98
2, 166844, Note_on_c, 0, 82, 0
2, 166848, Note_on_c, 0, 82, 98
2, 167036, Note_on_c, 0, 82, 0
2, 167040, Note_on_c, 0, 84, 98
2, 167328, Note_on_c, 0, 84, 0
2, 167328, Note_on_c, 0, 87, 98
2, 167376, Note_on_c, 0, 87, 0
2, 167376, Note_on_c, 0, 84, 98
2, 167424, Note_on_c, 0, 84, 0
2, 167424, Note_on_c, 0, 82, 98
2, 167612, Note_on_c, 0, 82, 0
2, 167616, Note_on_c, 0, 84, 98
2, 167760, Note_on_c, 0, 84, 0
2, 167760, Note_on_c, 0, 86, 98
2, 167808, Note_on_c, 0, 86, 0
2, 167808, Note_on_c, 0, 82, 98
2, 167996, Note_on_c, 0, 82, 0
2, 168000, Note_on_c, 0, 84, 98
2, 168144, Note_on_c, 0, 84, 0
2, 168144, Note_on_c, 0, 86, 98
2, 168192, Note_on_c, 0, 86, 0
2, 168192, Note_on_c, 0, 82, 98
2, 168380, Note_on_c, 0, 82, 0
2, 169152, Note_on_c, 0, 81, 98
2, 169296, Note_on_c, 0, 81, 0
2, 169296, Note_on_c, 0, 82, 98
2, 169344, Note_on_c, 0, 82, 0
2, 169344, Note_on_c, 0, 79, 98
2, 169532, Note_on_c, 0, 79, 0
2, 169536, Note_on_c, 0, 81, 98
2, 169680, Note_on_c, 0, 81, 0
2, 169680, Note_on_c, 0, 82, 98
2, 169728, Note_on_c, 0, 82, 0
2, 169728, Note_on_c, 0, 79, 98
2, 169916, Note_on_c, 0, 79, 0
2, 170688, Note_on_c, 0, 77, 98
2, 170832, Note_on_c, 0, 77, 0
2, 170832, Note_on_c, 0, 79, 98
2, 170880, Note_on_c, 0, 79, 0
2, 170880, Note_on_c, 0, 75, 98
2, 171068, Note_on_c, 0, 75, 0
2, 171072, Note_on_c, 0, 77, 98
2, 171216, Note_on_c, 0, 77, 0
2, 171216, Note_on_c, 0, 79, 98
2, 171264, Note_on_c, 0, 79, 0
2, 171264, Note_on_c, 0, 75, 98
2, 171452, Note_on_c, 0, 75, 0
2, 173568, Note_on_c, 0, 72, 98
2, 173756, Note_on_c, 0, 72, 0
2, 173760, Note_on_c, 0, 72, 98
2, 174144, Note_on_c, 0, 72, 0
2, 174144, Note_on_c, 0, 73, 98
2, 174332, Note_on_c, 0, 73, 0
2, 174336, Note_on_c, 0, 72, 98
2, 174432, Note_on_c, 0, 72, 0
2, 174432, Note_on_c, 0, 70, 98
2, 174524, Note_on_c, 0, 70, 0
2, 174528, Note_on_c, 0, 70, 98
2, 174912, Note_on_c, 0, 70, 0
2, 174912, Note_on_c, 0, 75, 98
2, 175100, Note_on_c, 0, 75, 0
2, 175104, Note_on_c, 0, 75, 98
2, 175200, Note_on_c, 0, 75, 0
2, 175200, Note_on_c, 0, 68, 98
2, 175292, Note_on_c, 0, 68, 0
2, 175296, Note_on_c, 0, 68, 98
2, 175680, Note_on_c, 0, 68, 0
2, 175680, Note_on_c, 0, 77, 98
2, 175776, Note_on_c, 0, 77, 0
2, 175776, Note_on_c, 0, 73, 98
2, 175868, Note_on_c, 0, 73, 0
2, 175872, Note_on_c, 0, 68, 98
2, 175872, Note_on_c, 0, 72, 98
2, 176256, Note_on_c, 0, 72, 0
2, 176256, Note_on_c, 0, 68, 0
2, 176256, Note_on_c, 0, 67, 98
2, 176256, Note_on_c, 0, 70, 98
2, 176444, Note_on_c, 0, 70, 0
2, 176444, Note_on_c, 0, 67, 0
2, 177408, Note_on_c, 0, 73, 98
2, 177596, Note_on_c, 0, 73, 0
2, 177600, Note_on_c, 0, 73, 98
2, 177984, Note_on_c, 0, 73, 0
2, 177984, Note_on_c, 0, 75, 98
2, 178172, Note_on_c, 0, 75, 0
2, 178176, Note_on_c, 0, 73, 98
2, 178272, Note_on_c, 0, 73, 0
2, 178272, Note_on_c, 0, 72, 98
2, 178364, Note_on_c, 0, 72, 0
2, 178368, Note_on_c, 0, 69, 98
2, 178368, Note_on_c, 0, 72, 98
2, 178688, Note_on_c, 0, 72, 0
2, 178688, Note_on_c, 0, 69, 0
2, 178752, Note_on_c, 0, 69, 98
2, 178752, Note_on_c, 0, 77, 98
2, 178940, Note_on_c, 0, 77, 0
2, 178940, Note_on_c, 0, 69, 0
2, 178944, Note_on_c, 0, 77, 98
2, 179040, Note_on_c, 0, 77, 0
2, 179040, Note_on_c, 0, 70, 98
2, 179132, Note_on_c, 0, 70, 0
2, 179136, Note_on_c, 0, 70, 98
2, 179520, Note_on_c, 0, 70, 0
2, 179520, Note_on_c, 0, 78, 98
2, 179616, Note_on_c, 0, 78, 0
2, 179616, Note_on_c, 0, 75, 98
2, 179708, Note_on_c, 0, 75, 0
2, 179712, Note_on_c, 0, 70, 98
2, 179712, Note_on_c, 0, 73, 98
2, 180096, Note_on_c, 0, 73, 0
2, 180096, Note_on_c, 0, 70, 0
2, 180096, Note_on_c, 0, 69, 98
2, 180096, Note_on_c, 0, 72, 98
2, 180284, Note_on_c, 0, 72, 0
2, 180284, Note_on_c, 0, 69, 0
2, 181248, Note_on_c, 0, 75, 98
2, 181436, Note_on_c, 0, 75, 0
2, 181440, Note_on_c, 0, 75, 98
2, 181824, Note_on_c, 0, 75, 0
2, 181824, Note_on_c, 0, 77, 98
2, 182012, Note_on_c, 0, 77, 0
2, 182016, Note_on_c, 0, 75, 98
2, 182112, Note_on_c, 0, 75, 0
2, 182112, Note_on_c, 0, 74, 98
2, 182204, Note_on_c, 0, 74, 0
2, 182208, Note_on_c, 0, 71, 98
2, 182208, Note_on_c, 0, 74, 98
2, 182528, Note_on_c, 0, 74, 0
2, 182528, Note_on_c, 0, 71, 0
2, 182592, Note_on_c, 0, 71, 98
2, 182592, Note_on_c, 0, 79, 98
2, 182780, Note_on_c, 0, 79, 0
2, 182780, Note_on_c, 0, 71, 0
2, 182784, Note_on_c, 0, 79, 98
2, 182880, Note_on_c, 0, 79, 0
2, 182880, Note_on_c, 0, 72, 98
2, 182972, Note_on_c, 0, 72, 0
2, 182976, Note_on_c, 0, 72, 98
2, 183360, Note_on_c, 0, 72, 0
2, 183360, Note_on_c, 0, 80, 98
2, 183456, Note_on_c, 0, 80, 0
2, 183456, Note_on_c, 0, 77, 98
2, 183548, Note_on_c, 0, 77, 0
2, 183552, Note_on_c, 0, 72, 98
2, 183552, Note_on_c, 0, 75, 98
2, 183936, Note_on_c, 0, 75, 0
2, 183936, Note_on_c, 0, 72, 0
2, 183936, Note_on_c, 0, 71, 98
2, 183936, Note_on_c, 0, 74, 98
2, 184124, Note_on_c, 0, 74, 0
2, 184124, Note_on_c, 0, 71, 0
2, 184416, Note_on_c, 0, 55, 98
2, 184512, Note_on_c, 0, 55, 0
2, 184512, Note_on_c, 0, 60, 98
2, 184512, Note_on_c, 0, 64, 98
2, 184608, Note_on_c, 0, 64, 0
2, 184608, Note_on_c, 0, 60, 0
2, 184608, Note_on_c, 0, 55, 98
2, 184704, Note_on_c, 0, 55, 0
2, 184704, Note_on_c, 0, 60, 98
2, 184704, Note_on_c, 0, 64, 98
2, 184800, Note_on_c, 0, 64, 0
2, 184800, Note_on_c, 0, 60, 0
2, 184800, Note_on_c, 0, 55, 98
2, 184896, Note_on_c, 0, 55, 0
2, 184896, Note_on_c, 0, 60, 98
2, 184896, Note_on_c, 0, 64, 98
2, 184992, Note_on_c, 0, 64, 0
2, 184992, Note_on_c, 0, 60, 0
2, 184992, Note_on_c, 0, 55, 98
2, 185084, Note_on_c, 0, 55, 0
2, 185184, Note_on_c, 0, 55, 98
2, 185280, Note_on_c, 0, 55, 0
2, 185280, Note_on_c, 0, 59, 98
2, 185280, Note_on_c, 0, 62, 98
2, 185376, Note_on_c, 0, 62, 0
2, 185376, Note_on_c, 0, 59, 0
2, 185376, Note_on_c, 0, 55, 98
2, 185472, Note_on_c, 0, 55, 0
2, 185472, Note_on_c, 0, 59, 98
2, 185472, Note_on_c, 0, 62, 98
2, 185568, Note_on_c, 0, 62, 0
2, 185568, Note_on_c, 0, 59, 0
2, 185568, Note_on_c, 0, 55, 98
2, 185664, Note_on_c, 0, 55, 0
2, 185664, Note_on_c, 0, 59, 98
2, 185664, Note_on_c, 0, 62, 98
2, 185760, Note_on_c, 0, 62, 0
2, 185760, Note_on_c, 0, 59, 0
2, 185760, Note_on_c, 0, 55, 98
2, 185852, Note_on_c, 0, 55, 0
2, 186048, Note_on_c, 0, 60, 98
2, 186048, Note_on_c, 0, 67, 98
2, 186236, Note_on_c, 0, 67, 0
2, 186236, Note_on_c, 0, 60, 0
2, 186240, Note_on_c, 0, 60, 98
2, 186240, Note_on_c, 0, 67, 98
2, 186428, Note_on_c, 0, 67, 0
2, 186428, Note_on_c, 0, 60, 0
2, 186816, Note_on_c, 0, 59, 98
2, 186816, Note_on_c, 0, 62, 98
2, 186816, Note_on_c, 0, 67, 98
2, 187004, Note_on_c, 0, 67, 0
2, 187004, Note_on_c, 0, 62, 0
2, 187004, Note_on_c, 0, 59, 0
2, 187008, Note_on_c, 0, 59, 98
2, 187008, Note_on_c, 0, 62, 98
2, 187008, Note_on_c, 0, 67, 98
2, 187196, Note_on_c, 0, 67, 0
2, 187196, Note_on_c, 0, 62, 0
2, 187196, Note_on_c, 0, 59, 0
2, 187584, Note_on_c, 0, 60, 98
2, 187584, Note_on_c, 0, 67, 98
2, 187772, Note_on_c, 0, 67, 0
2, 187772, Note_on_c, 0, 60, 0
2, 187776, Note_on_c, 0, 60, 98
2, 187776, Note_on_c, 0, 67, 98
2, 187964, Note_on_c, 0, 67, 0
2, 187964, Note_on_c, 0, 60, 0
2, 188352, Note_on_c, 0, 59, 98
2, 188352, Note_on_c, 0, 62, 98
2, 188352, Note_on_c, 0, 67, 98
2, 188540, Note_on_c, 0, 67, 0
2, 188540, Note_on_c, 0, 62, 0
2, 188540, Note_on_c, 0, 59, 0
2, 188544, Note_on_c, 0, 59, 98
2, 188544, Note_on_c, 0, 62, 98
2, 188544, Note_on_c, 0, 67, 98
2, 188732, Note_on_c, 0, 67, 0
2, 188732, Note_on_c, 0, 62, 0
2, 188732, Note_on_c, 0, 59, 0
2, 189120, Note_on_c, 0, 60, 98
2, 189120, Note_on_c, 0, 67, 98
2, 189308, Note_on_c, 0, 67, 0
2, 189308, Note_on_c, 0, 60, 0
2, 189312, Note_on_c, 0, 60, 98
2, 189312, Note_on_c, 0, 67, 98
2, 189500, Note_on_c, 0, 67, 0
2, 189500, Note_on_c, 0, 60, 0
2, 189888, Note_on_c, 0, 57, 98
2, 189888, Note_on_c, 0, 66, 98
2, 190076, Note_on_c, 0, 66, 0
2, 190076, Note_on_c, 0, 57, 0
2, 190080, Note_on_c, 0, 57, 98
2, 190080, Note_on_c, 0, 66, 98
2, 190268, Note_on_c, 0, 66, 0
2, 190268, Note_on_c, 0, 57, 0
2, 190656, Note_on_c, 0, 58, 98
2, 190656, Note_on_c, 0, 65, 98
2, 190844, Note_on_c, 0, 65, 0
2, 190844, Note_on_c, 0, 58, 0
2, 190848, Note_on_c, 0, 58, 98
2, 190848, Note_on_c, 0, 65, 98
2, 191036, Note_on_c, 0, 65, 0
2, 191036, Note_on_c, 0, 58, 0
2, 191424, Note_on_c, 0, 55, 98
2, 191424, Note_on_c, 0, 58, 98
2, 191424, Note_on_c, 0, 63, 98
2, 191612, Note_on_c, 0, 63, 0
2, 191612, Note_on_c, 0, 58, 0
2, 191612, Note_on_c, 0, 55, 0
2, 191616, Note_on_c, 0, 55, 98
2, 191616, Note_on_c, 0, 58, 98
2, 191616, Note_on_c, 0, 63, 98
2, 191804, Note_on_c, 0, 63, 0
2, 191804, Note_on_c, 0, 58, 0
2, 191804, Note_on_c, 0, 55, 0
2, 191808, Note_on_c, 0, 75, 98
2, 191996, Note_on_c, 0, 75, 0
2, 192000, Note_on_c, 0, 75, 98
2, 192096, Note_on_c, 0, 75, 0
2, 192096, Note_on_c, 0, 68, 98
2, 192188, Note_on_c, 0, 68, 0
2, 192192, Note_on_c, 0, 68, 98
2, 192512, Note_on_c, 0, 68, 0
2, 192576, Note_on_c, 0, 80, 98
2, 192764, Note_on_c, 0, 80, 0
2, 192768, Note_on_c, 0, 80, 98
2, 192864, Note_on_c, 0, 80, 0
2, 192864, Note_on_c, 0, 77, 98
2, 192956, Note_on_c, 0, 77, 0
2, 192960, Note_on_c, 0, 70, 98
2, 192960, Note_on_c, 0, 74, 98
2, 193248, Note_on_c, 0, 74, 0
2, 193248, Note_on_c, 0, 70, 0
2, 193248, Note_on_c, 0, 68, 98
2, 193248, Note_on_c, 0, 72, 98
2, 193344, Note_on_c, 0, 72, 0
2, 193344, Note_on_c, 0, 68, 0
2, 193344, Note_on_c, 0, 67, 98
2, 193344, Note_on_c, 0, 70, 98
2, 193440, Note_on_c, 0, 70, 0
2, 193440, Note_on_c, 0, 67, 0
2, 193440, Note_on_c, 0, 65, 98
2, 193440, Note_on_c, 0, 68, 98
2, 193532, Note_on_c, 0, 68, 0
2, 193532, Note_on_c, 0, 65, 0
2, 193536, Note_on_c, 0, 63, 98
2, 193536, Note_on_c, 0, 67, 98
2, 193724, Note_on_c, 0, 67, 0
2, 193724, Note_on_c, 0, 63, 0
2, 193728, Note_on_c, 0, 67, 98
2, 194112, Note_on_c, 0, 67, 0
2, 194112, Note_on_c, 0, 68, 98
2, 194300, Note_on_c, 0, 68, 0
2, 194304, Note_on_c, 0, 67, 98
2, 194400, Note_on_c, 0, 67, 0
2, 194400, Note_on_c, 0, 65, 98
2, 194492, Note_on_c, 0, 65, 0
2, 194496, Note_on_c, 0, 65, 98
2, 194880, Note_on_c, 0, 65, 0
2, 194880, Note_on_c, 0, 70, 98
2, 195068, Note_on_c, 0, 70, 0
2, 195072, Note_on_c, 0, 70, 98
2, 195168, Note_on_c, 0, 70, 0
2, 195168, Note_on_c, 0, 63, 98
2, 195260, Note_on_c, 0, 63, 0
2, 195264, Note_on_c, 0, 63, 98
2, 195648, Note_on_c, 0, 63, 0
2, 195648, Note_on_c, 0, 72, 98
2, 195744, Note_on_c, 0, 72, 0
2, 195744, Note_on_c, 0, 68, 98
2, 195836, Note_on_c, 0, 68, 0
2, 195840, Note_on_c, 0, 63, 98
2, 195840, Note_on_c, 0, 67, 98
2, 196224, Note_on_c, 0, 67, 0
2, 196224, Note_on_c, 0, 63, 0
2, 196224, Note_on_c, 0, 62, 98
2, 196224, Note_on_c, 0, 65, 98
2, 196412, Note_on_c, 0, 65, 0
2, 196412, Note_on_c, 0, 62, 0
2, 196608, Note_on_c, 0, 55, 98
2, 196608, Note_on_c, 0, 58, 98
2, 196608, Note_on_c, 0, 63, 98
2, 196928, Note_on_c, 0, 63, 0
2, 196928, Note_on_c, 0, 58, 0
2, 196928, Note_on_c, 0, 55, 0
2, 196992, Note_on_c, 0, 58, 98
2, 196992, Note_on_c, 0, 62, 98
2, 196992, Note_on_c, 0, 65, 98
2, 197312, Note_on_c, 0, 65, 0
2, 197312, Note_on_c, 0, 62, 0
2, 197312, Note_on_c, 0, 58, 0
2, 197376, Note_on_c, 0, 67, 98
2, 197664, Note_on_c, 0, 67, 0
2, 197664, Note_on_c, 0, 65, 98
2, 197712, Note_on_c, 0, 65, 0
2, 197712, Note_on_c, 0, 67, 98
2, 197760, Note_on_c, 0, 67, 0
2, 197760, Note_on_c, 0, 68, 98
2, 197948, Note_on_c, 0, 68, 0
2, 198144, Note_on_c, 0, 70, 98
2, 198432, Note_on_c, 0, 70, 0
2, 198432, Note_on_c, 0, 68, 98
2, 198480, Note_on_c, 0, 68, 0
2, 198480, Note_on_c, 0, 70, 98
2, 198528, Note_on_c, 0, 70, 0
2, 198528, Note_on_c, 0, 72, 98
2, 198716, Note_on_c, 0, 72, 0
2, 198720, Note_on_c, 0, 60, 98
2, 198720, Note_on_c, 0, 65, 98
2, 198720, Note_on_c, 0, 68, 98
2, 198908, Note_on_c, 0, 68, 0
2, 198908, Note_on_c, 0, 65, 0
2, 198908, Note_on_c, 0, 60, 0
2, 198912, Note_on_c, 0, 58, 98
2, 198912, Note_on_c, 0, 63, 98
2, 198912, Note_on_c, 0, 67, 98
2, 199296, Note_on_c, 0, 67, 0
2, 199296, Note_on_c, 0, 63, 0
2, 199296, Note_on_c, 0, 58, 0
2, 199296, Note_on_c, 0, 58, 98
2, 199296, Note_on_c, 0, 62, 98
2, 199296, Note_on_c, 0, 65, 98
2, 199484, Note_on_c, 0, 65, 0
2, 199484, Note_on_c, 0, 62, 0
2, 199484, Note_on_c, 0, 58, 0
2, 199872, Note_on_c, 0, 63, 98
2, 199872, Note_on_c, 0, 70, 98
2, 200060, Note_on_c, 0, 70, 0
2, 200060, Note_on_c, 0, 63, 0
2, 200064, Note_on_c, 0, 63, 98
2, 200064, Note_on_c, 0, 70, 98
2, 200252, Note_on_c, 0, 70, 0
2, 200252, Note_on_c, 0, 63, 0
2, 200256, Note_on_c, 0, 63, 98
2, 200256, Note_on_c, 0, 70, 98
2, 200444, Note_on_c, 0, 70, 0
2, 200444, Note_on_c, 0, 63, 0
2, 200640, Note_on_c, 0, 62, 98
2, 200640, Note_on_c, 0, 70, 98
2, 200828, Note_on_c, 0, 70, 0
2, 200828, Note_on_c, 0, 62, 0
2, 200832, Note_on_c, 0, 62, 98
2, 200832, Note_on_c, 0, 70, 98
2, 201020, Note_on_c, 0, 70, 0
2, 201020, Note_on_c, 0, 62, 0
2, 201024, Note_on_c, 0, 62, 98
2, 201024, Note_on_c, 0, 70, 98
2, 201212, Note_on_c, 0, 70, 0
2, 201212, Note_on_c, 0, 62, 0
2, 201408, Note_on_c, 0, 61, 98
2, 201408, Note_on_c, 0, 64, 98
2, 201408, Note_on_c, 0, 70, 98
2, 201596, Note_on_c, 0, 70, 0
2, 201596, Note_on_c, 0, 64, 0
2, 201596, Note_on_c, 0, 61, 0
2, 201600, Note_on_c, 0, 61, 98
2, 201600, Note_on_c, 0, 64, 98
2, 201600, Note_on_c, 0, 70, 98
2, 201788, Note_on_c, 0, 70, 0
2, 201788, Note_on_c, 0, 64, 0
2, 201788, Note_on_c, 0, 61, 0
2, 201792, Note_on_c, 0, 61, 98
2, 201792, Note_on_c, 0, 65, 98
2, 201792, Note_on_c, 0, 70, 98
2, 201980, Note_on_c, 0, 70, 0
2, 201980, Note_on_c, 0, 65, 0
2, 201980, Note_on_c, 0, 61, 0
2, 202176, Note_on_c, 0, 60, 98
2, 202176, Note_on_c, 0, 67, 98
2, 202176, Note_on_c, 0, 70, 98
2, 202364, Note_on_c, 0, 70, 0
2, 202364, Note_on_c, 0, 67, 0
2, 202364, Note_on_c, 0, 60, 0
2, 202368, Note_on_c, 0, 60, 98
2, 202368, Note_on_c, 0, 67, 98
2, 202368, Note_on_c, 0, 70, 98
2, 202556, Note_on_c, 0, 70, 0
2, 202556, Note_on_c, 0, 67, 0
2, 202556, Note_on_c, 0, 60, 0
2, 202560, Note_on_c, 0, 60, 98
2, 202560, Note_on_c, 0, 67, 98
2, 202560, Note_on_c, 0, 70, 98
2, 202748, Note_on_c, 0, 70, 0
2, 202748, Note_on_c, 0, 67, 0
2, 202748, Note_on_c, 0, 60, 0
2, 202944, Note_on_c, 0, 60, 98
2, 202944, Note_on_c, 0, 65, 98
2, 202944, Note_on_c, 0, 68, 98
2, 203132, Note_on_c, 0, 68, 0
2, 203132, Note_on_c, 0, 65, 0
2, 203132, Note_on_c, 0, 60, 0
2, 203136, Note_on_c, 0, 60, 98
2, 203136, Note_on_c, 0, 65, 98
2, 203324, Note_on_c, 0, 65, 0
2, 203324, Note_on_c, 0, 60, 0
2, 203328, Note_on_c, 0, 60, 98
2, 203328, Note_on_c, 0, 65, 98
2, 203516, Note_on_c, 0, 65, 0
2, 203516, Note_on_c, 0, 60, 0
2, 203712, Note_on_c, 0, 60, 98
2, 203712, Note_on_c, 0, 64, 98
2, 203900, Note_on_c, 0, 64, 0
2, 203900, Note_on_c, 0, 60, 0
2, 203904, Note_on_c, 0, 60, 98
2, 203904, Note_on_c, 0, 64, 98
2, 204092, Note_on_c, 0, 64, 0
2, 204092, Note_on_c, 0, 60, 0
2, 204096, Note_on_c, 0, 64, 98
2, 204096, Note_on_c, 0, 67, 98
2, 204284, Note_on_c, 0, 67, 0
2, 204284, Note_on_c, 0, 64, 0
2, 204480, Note_on_c, 0, 63, 98
2, 204480, Note_on_c, 0, 66, 98
2, 204480, Note_on_c, 0, 72, 98
2, 204668, Note_on_c, 0, 72, 0
2, 204668, Note_on_c, 0, 66, 0
2, 204668, Note_on_c, 0, 63, 0
2, 204672, Note_on_c, 0, 63, 98
2, 204672, Note_on_c, 0, 66, 98
2, 204672, Note_on_c, 0, 72, 98
2, 204860, Note_on_c, 0, 72, 0
2, 204860, Note_on_c, 0, 66, 0
2, 204860, Note_on_c, 0, 63, 0
2, 204864, Note_on_c, 0, 63, 98
2, 204864, Note_on_c, 0, 67, 98
2, 204864, Note_on_c, 0, 72, 98
2, 205052, Note_on_c, 0, 72, 0
2, 205052, Note_on_c, 0, 67, 0
2, 205052, Note_on_c, 0, 63, 0
2, 205248, Note_on_c, 0, 62, 98
2, 205248, Note_on_c, 0, 69, 98
2, 205248, Note_on_c, 0, 72, 98
2, 205436, Note_on_c, 0, 72, 0
2, 205436, Note_on_c, 0, 69, 0
2, 205436, Note_on_c, 0, 62, 0
2, 205440, Note_on_c, 0, 62, 98
2, 205440, Note_on_c, 0, 69, 98
2, 205440, Note_on_c, 0, 72, 98
2, 205628, Note_on_c, 0, 72, 0
2, 205628, Note_on_c, 0, 69, 0
2, 205628, Note_on_c, 0, 62, 0
2, 205632, Note_on_c, 0, 62, 98
2, 205632, Note_on_c, 0, 69, 98
2, 205632, Note_on_c, 0, 72, 98
2, 205820, Note_on_c, 0, 72, 0
2, 205820, Note_on_c, 0, 69, 0
2, 205820, Note_on_c, 0, 62, 0
2, 206016, Note_on_c, 0, 62, 98
2, 206016, Note_on_c, 0, 70, 98
2, 206208, Note_on_c, 0, 70, 0
2, 206208, Note_on_c, 0, 62, 0
2, 206208, Note_on_c, 0, 60, 98
2, 206208, Note_on_c, 0, 67, 98
2, 206400, Note_on_c, 0, 67, 0
2, 206400, Note_on_c, 0, 64, 98
2, 206528, Note_on_c, 0, 60, 0
2, 206588, Note_on_c, 0, 64, 0
2, 206784, Note_on_c, 0, 60, 98
2, 206784, Note_on_c, 0, 68, 98
2, 206976, Note_on_c, 0, 68, 0
2, 206976, Note_on_c, 0, 60, 0
2, 206976, Note_on_c, 0, 58, 98
2, 206976, Note_on_c, 0, 65, 98
2, 207168, Note_on_c, 0, 65, 0
2, 207168, Note_on_c, 0, 62, 98
2, 207296, Note_on_c, 0, 58, 0
2, 207356, Note_on_c, 0, 62, 0
2, 207552, Note_on_c, 0, 58, 98
2, 207552, Note_on_c, 0, 63, 98
2, 207552, Note_on_c, 0, 67, 98
2, 207740, Note_on_c, 0, 67, 0
2, 207740, Note_on_c, 0, 63, 0
2, 207740, Note_on_c, 0, 58, 0
2, 207744, Note_on_c, 0, 58, 98
2, 207744, Note_on_c, 0, 63, 98
2, 207744, Note_on_c, 0, 67, 98
2, 207932, Note_on_c, 0, 67, 0
2, 207932, Note_on_c, 0, 63, 0
2, 207932, Note_on_c, 0, 58, 0
2, 207936, Note_on_c, 0, 58, 98
2, 207936, Note_on_c, 0, 63, 98
2, 207936, Note_on_c, 0, 67, 98
2, 208124, Note_on_c, 0, 67, 0
2, 208124, Note_on_c, 0, 63, 0
2, 208124, Note_on_c, 0, 58, 0
2, 208320, Note_on_c, 0, 63, 98
2, 208320, Note_on_c, 0, 69, 98
2, 208508, Note_on_c, 0, 69, 0
2, 208508, Note_on_c, 0, 63, 0
2, 208512, Note_on_c, 0, 63, 98
2, 208512, Note_on_c, 0, 69, 98
2, 208700, Note_on_c, 0, 69, 0
2, 208700, Note_on_c, 0, 63, 0
2, 208704, Note_on_c, 0, 63, 98
2, 208704, Note_on_c, 0, 69, 98
2, 208892, Note_on_c, 0, 69, 0
2, 208892, Note_on_c, 0, 63, 0
2, 208896, Note_on_c, 0, 62, 98
2, 208896, Note_on_c, 0, 70, 98
2, 209216, Note_on_c, 0, 70, 0
2, 209216, Note_on_c, 0, 62, 0
2, 209856, Note_on_c, 0, 82, 98
2, 209904, Note_on_c, 0, 82, 0
2, 209904, Note_on_c, 0, 80, 98
2, 209952, Note_on_c, 0, 80, 0
2, 209952, Note_on_c, 0, 79, 98
2, 210000, Note_on_c, 0, 79, 0
2, 210000, Note_on_c, 0, 77, 98
2, 210048, Note_on_c, 0, 77, 0
2, 210048, Note_on_c, 0, 75, 98
2, 210096, Note_on_c, 0, 75, 0
2, 210096, Note_on_c, 0, 74, 98
2, 210144, Note_on_c, 0, 74, 0
2, 210144, Note_on_c, 0, 72, 98
2, 210192, Note_on_c, 0, 72, 0
2, 210192, Note_on_c, 0, 70, 98
2, 210240, Note_on_c, 0, 70, 0
2, 210240, Note_on_c, 0, 68, 98
2, 210288, Note_on_c, 0, 68, 0
2, 210288, Note_on_c, 0, 67, 98
2, 210336, Note_on_c, 0, 67, 0
2, 210336, Note_on_c, 0, 65, 98
2, 210384, Note_on_c, 0, 65, 0
2, 210384, Note_on_c, 0, 63, 98
2, 210432, Note_on_c, 0, 63, 0
2, 210432, Note_on_c, 0, 62, 98
2, 210620, Note_on_c, 0, 62, 0
2, 210624, Note_on_c, 0, 58, 98
2, 210672, Note_on_c, 0, 58, 0
2, 210672, Note_on_c, 0, 60, 98
2, 210720, Note_on_c, 0, 60, 0
2, 210720, Note_on_c, 0, 62, 98
2, 210768, Note_on_c, 0, 62, 0
2, 210768, Note_on_c, 0, 63, 98
2, 210816, Note_on_c, 0, 63, 0
2, 210816, Note_on_c, 0, 65, 98
2, 210864, Note_on_c, 0, 65, 0
2, 210864, Note_on_c, 0, 67, 98
2, 210912, Note_on_c, 0, 67, 0
2, 210912, Note_on_c, 0, 68, 98
2, 210960, Note_on_c, 0, 68, 0
2, 210960, Note_on_c, 0, 70, 98
2, 211008, Note_on_c, 0, 70, 0
2, 211008, Note_on_c, 0, 72, 98
2, 211056, Note_on_c, 0, 72, 0
2, 211056, Note_on_c, 0, 74, 98
2, 211104, Note_on_c, 0, 74, 0
2, 211104, Note_on_c, 0, 75, 98
2, 211152, Note_on_c, 0, 75, 0
2, 211152, Note_on_c, 0, 77, 98
2, 211200, Note_on_c, 0, 77, 0
2, 211200, Note_on_c, 0, 79, 98
2, 211388, Note_on_c, 0, 79, 0
2, 211392, Note_on_c, 0, 82, 98
2, 211440, Note_on_c, 0, 82, 0
2, 211440, Note_on_c, 0, 80, 98
2, 211488, Note_on_c, 0, 80, 0
2, 211488, Note_on_c, 0, 79, 98
2, 211536, Note_on_c, 0, 79, 0
2, 211536, Note_on_c, 0, 77, 98
2, 211584, Note_on_c, 0, 77, 0
2, 211584, Note_on_c, 0, 75, 98
2, 211632, Note_on_c, 0, 75, 0
2, 211632, Note_on_c, 0, 74, 98
2, 211680, Note_on_c, 0, 74, 0
2, 211680, Note_on_c, 0, 72, 98
2, 211728, Note_on_c, 0, 72, 0
2, 211728, Note_on_c, 0, 70, 98
2, 211776, Note_on_c, 0, 70, 0
2, 211776, Note_on_c, 0, 68, 98
2, 211824, Note_on_c, 0, 68, 0
2, 211824, Note_on_c, 0, 67, 98
2, 211872, Note_on_c, 0, 67, 0
2, 211872, Note_on_c, 0, 65, 98
2, 211920, Note_on_c, 0, 65, 0
2, 211920, Note_on_c, 0, 63, 98
2, 211964, Note_on_c, 0, 63, 0
2, 212016, Note_on_c, 0, 65, 98
2, 212064, Note_on_c, 0, 65, 0
2, 212064, Note_on_c, 0, 77, 98
2, 212112, Note_on_c, 0, 77, 0
2, 212112, Note_on_c, 0, 74, 98
2, 212160, Note_on_c, 0, 74, 0
2, 212160, Note_on_c, 0, 70, 98
2, 212208, Note_on_c, 0, 70, 0
2, 212208, Note_on_c, 0, 65, 98
2, 212256, Note_on_c, 0, 65, 0
2, 212256, Note_on_c, 0, 62, 98
2, 212300, Note_on_c, 0, 62, 0
2, 212400, Note_on_c, 0, 67, 98
2, 212448, Note_on_c, 0, 67, 0
2, 212448, Note_on_c, 0, 79, 98
2, 212496, Note_on_c, 0, 79, 0
2, 212496, Note_on_c, 0, 75, 98
2, 212544, Note_on_c, 0, 75, 0
2, 212544, Note_on_c, 0, 70, 98
2, 212592, Note_on_c, 0, 70, 0
2, 212592, Note_on_c, 0, 67, 98
2, 212640, Note_on_c, 0, 67, 0
2, 212640, Note_on_c, 0, 63, 98
2, 212684, Note_on_c, 0, 63, 0
2, 212784, Note_on_c, 0, 65, 98
2, 212832, Note_on_c, 0, 65, 0
2, 212832, Note_on_c, 0, 77, 98
2, 212880, Note_on_c, 0, 77, 0
2, 212880, Note_on_c, 0, 74, 98
2, 212928, Note_on_c, 0, 74, 0
2, 212928, Note_on_c, 0, 70, 98
2, 212976, Note_on_c, 0, 70, 0
2, 212976, Note_on_c, 0, 65, 98
2, 213024, Note_on_c, 0, 65, 0
2, 213024, Note_on_c, 0, 62, 98
2, 213068, Note_on_c, 0, 62, 0
2, 213168, Note_on_c, 0, 67, 98
2, 213216, Note_on_c, 0, 67, 0
2, 213216, Note_on_c, 0, 79, 98
2, 213264, Note_on_c, 0, 79, 0
2, 213264, Note_on_c, 0, 75, 98
2, 213312, Note_on_c, 0, 75, 0
2, 213312, Note_on_c, 0, 70, 98
2, 213360, Note_on_c, 0, 70, 0
2, 213360, Note_on_c, 0, 67, 98
2, 213408, Note_on_c, 0, 67, 0
2, 213408, Note_on_c, 0, 63, 98
2, 213452, Note_on_c, 0, 63, 0
2, 213552, Note_on_c, 0, 65, 98
2, 213584, Note_on_c, 0, 65, 0
2, 213600, Note_on_c, 0, 77, 98
2, 213648, Note_on_c, 0, 77, 0
2, 213648, Note_on_c, 0, 74, 98
2, 213692, Note_on_c, 0, 74, 0
2, 213744, Note_on_c, 0, 67, 98
2, 213776, Note_on_c, 0, 67, 0
2, 213792, Note_on_c, 0, 79, 98
2, 213840, Note_on_c, 0, 79, 0
2, 213840, Note_on_c, 0, 75, 98
2, 213884, Note_on_c, 0, 75, 0
2, 213936, Note_on_c, 0, 65, 98
2, 213968, Note_on_c, 0, 65, 0
2, 213984, Note_on_c, 0, 77, 98
2, 214032, Note_on_c, 0, 77, 0
2, 214032, Note_on_c, 0, 74, 98
2, 214076, Note_on_c, 0, 74, 0
2, 214128, Note_on_c, 0, 67, 98
2, 214160, Note_on_c, 0, 67, 0
2, 214176, Note_on_c, 0, 79, 98
2, 214224, Note_on_c, 0, 79, 0
2, 214224, Note_on_c, 0, 75, 98
2, 214268, Note_on_c, 0, 75, 0
2, 214272, Note_on_c, 0, 77, 98
2, 214368, Note_on_c, 0, 77, 0
2, 214368, Note_on_c, 0, 82, 98
2, 214460, Note_on_c, 0, 82, 0
2, 214464, Note_on_c, 0, 82, 98
2, 214528, Note_on_c, 0, 82, 0
2, 214560, Note_on_c, 0, 82, 98
2, 214624, Note_on_c, 0, 82, 0
2, 214656, Note_on_c, 0, 82, 98
2, 214752, Note_on_c, 0, 82, 0
2, 214752, Note_on_c, 0, 83, 98
2, 214848, Note_on_c, 0, 83, 0
2, 214848, Note_on_c, 0, 84, 98
2, 214944, Note_on_c, 0, 84, 0
2, 214944, Note_on_c, 0, 80, 98
2, 215036, Note_on_c, 0, 80, 0
2, 215040, Note_on_c, 0, 79, 98
2, 215328, Note_on_c, 0, 79, 0
2, 215328, Note_on_c, 0, 75, 98
2, 215424, Note_on_c, 0, 75, 0
2, 215424, Note_on_c, 0, 79, 98
2, 215520, Note_on_c, 0, 79, 0
2, 215520, Note_on_c, 0, 75, 98
2, 215616, Note_on_c, 0, 75, 0
2, 215616, Note_on_c, 0, 79, 98
2, 215712, Note_on_c, 0, 79, 0
2, 215712, Note_on_c, 0, 82, 98
2, 215804, Note_on_c, 0, 82, 0
2, 215808, Note_on_c, 0, 74, 98
2, 215808, Note_on_c, 0, 82, 98
2, 215904, Note_on_c, 0, 82, 0
2, 215904, Note_on_c, 0, 80, 98
2, 216000, Note_on_c, 0, 80, 0
2, 216000, Note_on_c, 0, 79, 98
2, 216096, Note_on_c, 0, 79, 0
2, 216096, Note_on_c, 0, 77, 98
2, 216188, Note_on_c, 0, 77, 0
2, 216192, Note_on_c, 0, 77, 98
2, 216320, Note_on_c, 0, 74, 0
2, 216380, Note_on_c, 0, 77, 0
2, 218112, Note_on_c, 0, 87, 98
2, 218176, Note_on_c, 0, 87, 0
2, 218208, Note_on_c, 0, 87, 98
2, 218272, Note_on_c, 0, 87, 0
2, 218304, Note_on_c, 0, 89, 98
2, 218352, Note_on_c, 0, 89, 0
2, 218352, Note_on_c, 0, 87, 98
2, 218400, Note_on_c, 0, 87, 0
2, 218400, Note_on_c, 0, 86, 98
2, 218448, Note_on_c, 0, 86, 0
2, 218448, Note_on_c, 0, 87, 98
2, 218492, Note_on_c, 0, 87, 0
2, 218496, Note_on_c, 0, 82, 98
2, 218784, Note_on_c, 0, 82, 0
2, 218784, Note_on_c, 0, 83, 98
2, 218880, Note_on_c, 0, 83, 0
2, 218880, Note_on_c, 0, 84, 98
2, 218944, Note_on_c, 0, 84, 0
2, 218976, Note_on_c, 0, 84, 98
2, 219040, Note_on_c, 0, 84, 0
2, 219072, Note_on_c, 0, 83, 98
2, 219120, Note_on_c, 0, 83, 0
2, 219120, Note_on_c, 0, 84, 98
2, 219168, Note_on_c, 0, 84, 0
2, 219168, Note_on_c, 0, 86, 98
2, 219216, Note_on_c, 0, 86, 0
2, 219216, Note_on_c, 0, 84, 98
2, 219260, Note_on_c, 0, 84, 0
2, 219264, Note_on_c, 0, 77, 98
2, 219552, Note_on_c, 0, 77, 0
2, 219552, Note_on_c, 0, 80, 98
2, 219644, Note_on_c, 0, 80, 0
2, 219648, Note_on_c, 0, 79, 98
2, 219744, Note_on_c, 0, 79, 0
2, 219744, Note_on_c, 0, 82, 98
2, 219836, Note_on_c, 0, 82, 0
2, 219936, Note_on_c, 0, 75, 98
2, 220000, Note_on_c, 0, 75, 0
2, 220032, Note_on_c, 0, 72, 98
2, 220128, Note_on_c, 0, 72, 0
2, 220128, Note_on_c, 0, 80, 98
2, 220220, Note_on_c, 0, 80, 0
2, 220320, Note_on_c, 0, 84, 98
2, 220384, Note_on_c, 0, 84, 0
2, 220416, Note_on_c, 0, 79, 98
2, 220704, Note_on_c, 0, 79, 0
2, 220704, Note_on_c, 0, 80, 98
2, 220752, Note_on_c, 0, 80, 0
2, 220752, Note_on_c, 0, 79, 98
2, 220796, Note_on_c, 0, 79, 0
2, 220800, Note_on_c, 0, 77, 98
2, 220988, Note_on_c, 0, 77, 0
2, 222720, Note_on_c, 0, 77, 98
2, 222720, Note_on_c, 0, 80, 98
2, 222816, Note_on_c, 0, 80, 0
2, 222816, Note_on_c, 0, 77, 0
2, 222816, Note_on_c, 0, 76, 98
2, 222816, Note_on_c, 0, 79, 98
2, 222912, Note_on_c, 0, 79, 0
2, 222912, Note_on_c, 0, 76, 0
2, 222912, Note_on_c, 0, 77, 98
2, 222912, Note_on_c, 0, 80, 98
2, 223008, Note_on_c, 0, 80, 0
2, 223008, Note_on_c, 0, 77, 0
2, 223008, Note_on_c, 0, 76, 98
2, 223008, Note_on_c, 0, 79, 98
2, 223104, Note_on_c, 0, 79, 0
2, 223104, Note_on_c, 0, 76, 0
2, 223104, Note_on_c, 0, 77, 98
2, 223104, Note_on_c, 0, 80, 98
2, 223200, Note_on_c, 0, 80, 0
2, 223200, Note_on_c, 0, 77, 0
2, 223200, Note_on_c, 0, 76, 98
2, 223200, Note_on_c, 0, 79, 98
2, 223296, Note_on_c, 0, 79, 0
2, 223296, Note_on_c, 0, 76, 0
2, 223296, Note_on_c, 0, 77, 98
2, 223296, Note_on_c, 0, 80, 98
2, 223392, Note_on_c, 0, 80, 0
2, 223392, Note_on_c, 0, 77, 0
2, 223392, Note_on_c, 0, 78, 98
2, 223392, Note_on_c, 0, 81, 98
2, 223488, Note_on_c, 0, 81, 0
2, 223488, Note_on_c, 0, 78, 0
2, 223488, Note_on_c, 0, 79, 98
2, 223488, Note_on_c, 0, 82, 98
2, 223584, Note_on_c, 0, 82, 0
2, 223584, Note_on_c, 0, 79, 0
2, 223584, Note_on_c, 0, 78, 98
2, 223584, Note_on_c, 0, 81, 98
2, 223680, Note_on_c, 0, 81, 0
2, 223680, Note_on_c, 0, 78, 0
2, 223680, Note_on_c, 0, 79, 98
2, 223680, Note_on_c, 0, 82, 98
2, 223776, Note_on_c, 0, 82, 0
2, 223776, Note_on_c, 0, 79, 0
2, 223776, Note_on_c, 0, 78, 98
2, 223776, Note_on_c, 0, 81, 98
2, 223868, Note_on_c, 0, 81, 0
2, 223868, Note_on_c, 0, 78, 0
2, 223872, Note_on_c, 0, 79, 98
2, 223872, Note_on_c, 0, 82, 98
2, 224060, Note_on_c, 0, 82, 0
2, 224060, Note_on_c, 0, 79, 0
2, 226752, Note_on_c, 0, 75, 98
2, 226800, Note_on_c, 0, 75, 0
2, 226800, Note_on_c, 0, 74, 98
2, 226848, Note_on_c, 0, 74, 0
2, 226848, Note_on_c, 0, 72, 98
2, 226896, Note_on_c, 0, 72, 0
2, 226896, Note_on_c, 0, 70, 98
2, 226944, Note_on_c, 0, 70, 0
2, 226944, Note_on_c, 0, 69, 98
2, 226992, Note_on_c, 0, 69, 0
2, 226992, Note_on_c, 0, 70, 98
2, 227040, Note_on_c, 0, 70, 0
2, 227040, Note_on_c, 0, 72, 98
2, 227088, Note_on_c, 0, 72, 0
2, 227088, Note_on_c, 0, 70, 98
2, 227136, Note_on_c, 0, 70, 0
2, 227136, Note_on_c, 0, 68, 98
2, 227184, Note_on_c, 0, 68, 0
2, 227184, Note_on_c, 0, 67, 98
2, 227232, Note_on_c, 0, 67, 0
2, 227232, Note_on_c, 0, 65, 98
2, 227280, Note_on_c, 0, 65, 0
2, 227280, Note_on_c, 0, 63, 98
2, 227328, Note_on_c, 0, 63, 0
2, 227328, Note_on_c, 0, 62, 98
2, 227376, Note_on_c, 0, 62, 0
2, 227376, Note_on_c, 0, 74, 98
2, 227424, Note_on_c, 0, 74, 0
2, 227424, Note_on_c, 0, 63, 98
2, 227472, Note_on_c, 0, 63, 0
2, 227472, Note_on_c, 0, 75, 98
2, 227520, Note_on_c, 0, 75, 0
2, 227520, Note_on_c, 0, 65, 98
2, 227568, Note_on_c, 0, 65, 0
2, 227568, Note_on_c, 0, 77, 98
2, 227616, Note_on_c, 0, 77, 0
2, 227616, Note_on_c, 0, 67, 98
2, 227664, Note_on_c, 0, 67, 0
2, 227664, Note_on_c, 0, 79, 98
2, 227712, Note_on_c, 0, 79, 0
2, 227712, Note_on_c, 0, 68, 98
2, 227712, Note_on_c, 0, 80, 98
2, 227900, Note_on_c, 0, 80, 0
2, 227900, Note_on_c, 0, 68, 0
2, 227904, Note_on_c, 0, 62, 98
2, 227904, Note_on_c, 0, 74, 98
2, 228092, Note_on_c, 0, 74, 0
2, 228092, Note_on_c, 0, 62, 0
2, 228096, Note_on_c, 0, 63, 98
2, 228096, Note_on_c, 0, 75, 98
2, 228284, Note_on_c, 0, 75, 0
2, 228284, Note_on_c, 0, 63, 0
2, 228288, Note_on_c, 0, 87, 98
2, 228336, Note_on_c, 0, 87, 0
2, 228336, Note_on_c, 0, 86, 98
2, 228384, Note_on_c, 0, 86, 0
2, 228384, Note_on_c, 0, 84, 98
2, 228432, Note_on_c, 0, 84, 0
2, 228432, Note_on_c, 0, 82, 98
2, 228480, Note_on_c, 0, 82, 0
2, 228480, Note_on_c, 0, 81, 98
2, 228528, Note_on_c, 0, 81, 0
2, 228528, Note_on_c, 0, 82, 98
2, 228576, Note_on_c, 0, 82, 0
2, 228576, Note_on_c, 0, 84, 98
2, 228624, Note_on_c, 0, 84, 0
2, 228624, Note_on_c, 0, 82, 98
2, 228672, Note_on_c, 0, 82, 0
2, 228672, Note_on_c, 0, 80, 98
2, 228720, Note_on_c, 0, 80, 0
2, 228720, Note_on_c, 0, 79, 98
2, 228768, Note_on_c, 0, 79, 0
2, 228768, Note_on_c, 0, 77, 98
2, 228816, Note_on_c, 0, 77, 0
2, 228816, Note_on_c, 0, 75, 98
2, 228864, Note_on_c, 0, 75, 0
2, 228864, Note_on_c, 0, 74, 98
2, 228912, Note_on_c, 0, 74, 0
2, 228912, Note_on_c, 0, 77, 98
2, 228960, Note_on_c, 0, 77, 0
2, 228960, Note_on_c, 0, 75, 98
2, 229008, Note_on_c, 0, 75, 0
2, 229008, Note_on_c, 0, 79, 98
2, 229056, Note_on_c, 0, 79, 0
2, 229056, Note_on_c, 0, 77, 98
2, 229104, Note_on_c, 0, 77, 0
2, 229104, Note_on_c, 0, 80, 98
2, 229152, Note_on_c, 0, 80, 0
2, 229152, Note_on_c, 0, 79, 98
2, 229200, Note_on_c, 0, 79, 0
2, 229200, Note_on_c, 0, 82, 98
2, 229248, Note_on_c, 0, 82, 0
2, 229248, Note_on_c, 0, 80, 98
2, 229436, Note_on_c, 0, 80, 0
2, 229440, Note_on_c, 0, 74, 98
2, 229628, Note_on_c, 0, 74, 0
2, 229632, Note_on_c, 0, 75, 98
2, 229820, Note_on_c, 0, 75, 0
2, 229824, Note_on_c, 0, 82, 98
2, 229872, Note_on_c, 0, 82, 0
2, 229872, Note_on_c, 0, 80, 98
2, 229920, Note_on_c, 0, 80, 0
2, 229920, Note_on_c, 0, 79, 98
2, 229968, Note_on_c, 0, 79, 0
2, 229968, Note_on_c, 0, 77, 98
2, 230016, Note_on_c, 0, 77, 0
2, 230016, Note_on_c, 0, 75, 98
2, 230064, Note_on_c, 0, 75, 0
2, 230064, Note_on_c, 0, 74, 98
2, 230112, Note_on_c, 0, 74, 0
2, 230112, Note_on_c, 0, 72, 98
2, 230160, Note_on_c, 0, 72, 0
2, 230160, Note_on_c, 0, 70, 98
2, 230208, Note_on_c, 0, 70, 0
2, 230208, Note_on_c, 0, 68, 98
2, 230256, Note_on_c, 0, 68, 0
2, 230256, Note_on_c, 0, 67, 98
2, 230304, Note_on_c, 0, 67, 0
2, 230304, Note_on_c, 0, 65, 98
2, 230352, Note_on_c, 0, 65, 0
2, 230352, Note_on_c, 0, 64, 98
2, 230400, Note_on_c, 0, 64, 0
2, 230400, Note_on_c, 0, 65, 98
2, 230588, Note_on_c, 0, 65, 0
2, 230592, Note_on_c, 0, 87, 98
2, 230640, Note_on_c, 0, 87, 0
2, 230640, Note_on_c, 0, 86, 98
2, 230688, Note_on_c, 0, 86, 0
2, 230688, Note_on_c, 0, 84, 98
2, 230736, Note_on_c, 0, 84, 0
2, 230736, Note_on_c, 0, 82, 98
2, 230784, Note_on_c, 0, 82, 0
2, 230784, Note_on_c, 0, 80, 98
2, 230832, Note_on_c, 0, 80, 0
2, 230832, Note_on_c, 0, 79, 98
2, 230880, Note_on_c, 0, 79, 0
2, 230880, Note_on_c, 0, 77, 98
2, 230928, Note_on_c, 0, 77, 0
2, 230928, Note_on_c, 0, 75, 98
2, 230976, Note_on_c, 0, 75, 0
2, 230976, Note_on_c, 0, 74, 98
2, 231024, Note_on_c, 0, 74, 0
2, 231024, Note_on_c, 0, 72, 98
2, 231072, Note_on_c, 0, 72, 0
2, 231072, Note_on_c, 0, 70, 98
2, 231120, Note_on_c, 0, 70, 0
2, 231120, Note_on_c, 0, 69, 98
2, 231168, Note_on_c, 0, 69, 0
2, 231168, Note_on_c, 0, 70, 98
2, 231264, Note_on_c, 0, 70, 0
2, 231264, Note_on_c, 0, 75, 98
2, 231312, Note_on_c, 0, 75, 0
2, 231312, Note_on_c, 0, 79, 98
2, 231360, Note_on_c, 0, 79, 0
2, 231360, Note_on_c, 0, 82, 98
2, 231452, Note_on_c, 0, 82, 0
2, 231456, Note_on_c, 0, 79, 98
2, 231456, Note_on_c, 0, 82, 98
2, 231548, Note_on_c, 0, 82, 0
2, 231548, Note_on_c, 0, 79, 0
2, 231552, Note_on_c, 0, 79, 98
2, 231552, Note_on_c, 0, 82, 98
2, 231648, Note_on_c, 0, 82, 0
2, 231648, Note_on_c, 0, 79, 0
2, 231648, Note_on_c, 0, 77, 98
2, 231648, Note_on_c, 0, 80, 98
2, 231740, Note_on_c, 0, 80, 0
2, 231740, Note_on_c, 0, 77, 0
2, 231744, Note_on_c, 0, 75, 98
2, 231744, Note_on_c, 0, 79, 98
2, 231808, Note_on_c, 0, 79, 0
2, 231808, Note_on_c, 0, 75, 0
2, 231840, Note_on_c, 0, 74, 98
2, 231840, Note_on_c, 0, 77, 98
2, 231904, Note_on_c, 0, 77, 0
2, 231904, Note_on_c, 0, 74, 0
2, 231936, Note_on_c, 0, 75, 98
2, 232256, Note_on_c, 0, 75, 0
2, 232704, Note_on_c, 0, 80, 98
2, 232768, Note_on_c, 0, 80, 0
2, 232768, Note_on_c, 0, 79, 98
2, 232832, Note_on_c, 0, 79, 0
2, 232832, Note_on_c, 0, 77, 98
2, 232896, Note_on_c, 0, 77, 0
2, 232896, Note_on_c, 0, 75, 98
2, 232960, Note_on_c, 0, 75, 0
2, 232960, Note_on_c, 0, 74, 98
2, 233024, Note_on_c, 0, 74, 0
2, 233024, Note_on_c, 0, 72, 98
2, 233088, Note_on_c, 0, 72, 0
2, 233088, Note_on_c, 0, 70, 98
2, 233152, Note_on_c, 0, 70, 0
2, 233152, Note_on_c, 0, 68, 98
2, 233216, Note_on_c, 0, 68, 0
2, 233216, Note_on_c, 0, 67, 98
2, 233280, Note_on_c, 0, 67, 0
2, 233280, Note_on_c, 0, 65, 98
2, 233344, Note_on_c, 0, 65, 0
2, 233344, Note_on_c, 0, 63, 98
2, 233408, Note_on_c, 0, 63, 0
2, 233408, Note_on_c, 0, 62, 98
2, 233472, Note_on_c, 0, 62, 0
2, 233472, Note_on_c, 0, 67, 98
2, 233660, Note_on_c, 0, 67, 0
2, 234240, Note_on_c, 0, 77, 98
2, 234304, Note_on_c, 0, 77, 0
2, 234304, Note_on_c, 0, 75, 98
2, 234368, Note_on_c, 0, 75, 0
2, 234368, Note_on_c, 0, 74, 98
2, 234432, Note_on_c, 0, 74, 0
2, 234432, Note_on_c, 0, 72, 98
2, 234496, Note_on_c, 0, 72, 0
2, 234496, Note_on_c, 0, 70, 98
2, 234560, Note_on_c, 0, 70, 0
2, 234560, Note_on_c, 0, 68, 98
2, 234624, Note_on_c, 0, 68, 0
2, 234624, Note_on_c, 0, 67, 98
2, 234688, Note_on_c, 0, 67, 0
2, 234688, Note_on_c, 0, 65, 98
2, 234752, Note_on_c, 0, 65, 0
2, 234752, Note_on_c, 0, 63, 98
2, 234816, Note_on_c, 0, 63, 0
2, 234816, Note_on_c, 0, 62, 98
2, 234880, Note_on_c, 0, 62, 0
2, 234880, Note_on_c, 0, 60, 98
2, 234944, Note_on_c, 0, 60, 0
2, 234944, Note_on_c, 0, 58, 98
2, 235008, Note_on_c, 0, 58, 0
2, 235008, Note_on_c, 0, 63, 98
2, 235328, Note_on_c, 0, 63, 0
2, 238176, Note_on_c, 0, 81, 98
2, 238364, Note_on_c, 0, 81, 0
2, 238368, Note_on_c, 0, 78, 98
2, 238556, Note_on_c, 0, 78, 0
2, 238560, Note_on_c, 0, 75, 98
2, 238748, Note_on_c, 0, 75, 0
2, 238752, Note_on_c, 0, 69, 98
2, 238844, Note_on_c, 0, 69, 0
2, 238848, Note_on_c, 0, 70, 98
2, 238992, Note_on_c, 0, 70, 0
2, 238992, Note_on_c, 0, 67, 98
2, 239040, Note_on_c, 0, 67, 0
2, 239040, Note_on_c, 0, 70, 98
2, 239228, Note_on_c, 0, 70, 0
2, 241344, Note_on_c, 0, 70, 98
2, 241584, Note_on_c, 0, 70, 0
2, 241584, Note_on_c, 0, 72, 98
2, 241632, Note_on_c, 0, 72, 0
2, 241632, Note_on_c, 0, 74, 98
2, 241680, Note_on_c, 0, 74, 0
2, 241680, Note_on_c, 0, 75, 98
2, 241728, Note_on_c, 0, 75, 0
2, 241728, Note_on_c, 0, 77, 98
2, 241776, Note_on_c, 0, 77, 0
2, 241776, Note_on_c, 0, 78, 98
2, 241824, Note_on_c, 0, 78, 0
2, 241824, Note_on_c, 0, 80, 98
2, 241872, Note_on_c, 0, 80, 0
2, 241872, Note_on_c, 0, 82, 98
2, 241920, Note_on_c, 0, 82, 0
2, 241920, Note_on_c, 0, 84, 98
2, 242108, Note_on_c, 0, 84, 0
2, 242112, Note_on_c, 0, 72, 98
2, 242300, Note_on_c, 0, 72, 0
2, 242304, Note_on_c, 0, 84, 98
2, 242492, Note_on_c, 0, 84, 0
2, 242496, Note_on_c, 0, 84, 98
2, 242684, Note_on_c, 0, 84, 0
2, 242688, Note_on_c, 0, 86, 98
2, 242876, Note_on_c, 0, 86, 0
2, 242880, Note_on_c, 0, 74, 98
2, 243068, Note_on_c, 0, 74, 0
2, 243072, Note_on_c, 0, 86, 98
2, 243260, Note_on_c, 0, 86, 0
2, 243264, Note_on_c, 0, 86, 98
2, 243452, Note_on_c, 0, 86, 0
2, 243456, Note_on_c, 0, 87, 98
2, 243644, Note_on_c, 0, 87, 0
2, 243840, Note_on_c, 0, 84, 98
2, 243888, Note_on_c, 0, 84, 0
2, 243888, Note_on_c, 0, 86, 98
2, 243932, Note_on_c, 0, 86, 0
2, 243936, Note_on_c, 0, 87, 98
2, 244028, Note_on_c, 0, 87, 0
2, 244224, Note_on_c, 0, 79, 98
2, 244272, Note_on_c, 0, 79, 0
2, 244272, Note_on_c, 0, 80, 98
2, 244320, Note_on_c, 0, 80, 0
2, 244320, Note_on_c, 0, 82, 98
2, 244412, Note_on_c, 0, 82, 0
2, 244608, Note_on_c, 0, 74, 98
2, 244656, Note_on_c, 0, 74, 0
2, 244656, Note_on_c, 0, 75, 98
2, 244704, Note_on_c, 0, 75, 0
2, 244704, Note_on_c, 0, 77, 98
2, 244796, Note_on_c, 0, 77, 0
2, 244992, Note_on_c, 0, 75, 98
2, 245180, Note_on_c, 0, 75, 0
2, 245376, Note_on_c, 0, 67, 98
2, 245376, Note_on_c, 0, 70, 98
2, 245376, Note_on_c, 0, 73, 98
2, 245760, Note_on_c, 0, 73, 0
2, 245760, Note_on_c, 0, 70, 0
2, 245760, Note_on_c, 0, 67, 0
2, 245760, Note_on_c, 0, 68, 98
2, 245760, Note_on_c, 0, 72, 98
2, 245948, Note_on_c, 0, 72, 0
2, 245948, Note_on_c, 0, 68, 0
2, 247680, Note_on_c, 0, 73, 98
2, 247680, Note_on_c, 0, 79, 98
2, 247680, Note_on_c, 0, 82, 98
2, 247680, Note_on_c, 0, 85, 98
2, 248064, Note_on_c, 0, 85, 0
2, 248064, Note_on_c, 0, 73, 0
2, 248064, Note_on_c, 0, 79, 0
2, 248064, Note_on_c, 0, 82, 0
2, 248064, Note_on_c, 0, 72, 98
2, 248064, Note_on_c, 0, 75, 98
2, 248064, Note_on_c, 0, 80, 98
2, 248064, Note_on_c, 0, 84, 98
2, 248252, Note_on_c, 0, 84, 0
2, 248252, Note_on_c, 0, 72, 0
2, 248252, Note_on_c, 0, 75, 0
2, 248252, Note_on_c, 0, 80, 0
2, 249984, Note_on_c, 0, 77, 98
2, 250272, Note_on_c, 0, 77, 0
2, 250272, Note_on_c, 0, 80, 98
2, 250320, Note_on_c, 0, 80, 0
2, 250320, Note_on_c, 0, 77, 98
2, 250368, Note_on_c, 0, 77, 0
2, 250368, Note_on_c, 0, 75, 98
2, 250556, Note_on_c, 0, 75, 0
2, 250560, Note_on_c, 0, 75, 98
2, 250624, Note_on_c, 0, 75, 0
2, 250752, Note_on_c, 0, 77, 98
2, 251040, Note_on_c, 0, 77, 0
2, 251040, Note_on_c, 0, 80, 98
2, 251088, Note_on_c, 0, 80, 0
2, 251088, Note_on_c, 0, 77, 98
2, 251136, Note_on_c, 0, 77, 0
2, 251136, Note_on_c, 0, 75, 98
2, 251324, Note_on_c, 0, 75, 0
2, 251968, Note_on_c, 0, 87, 98
2, 252032, Note_on_c, 0, 87, 0
2, 252032, Note_on_c, 0, 82, 98
2, 252096, Note_on_c, 0, 82, 0
2, 252096, Note_on_c, 0, 79, 98
2, 252160, Note_on_c, 0, 79, 0
2, 252160, Note_on_c, 0, 75, 98
2, 252224, Note_on_c, 0, 75, 0
2, 252224, Note_on_c, 0, 70, 98
2, 252288, Note_on_c, 0, 70, 0
2, 252288, Note_on_c, 0, 67, 98
2, 252348, Note_on_c, 0, 67, 0
2, 252352, Note_on_c, 0, 82, 98
2, 252416, Note_on_c, 0, 82, 0
2, 252416, Note_on_c, 0, 79, 98
2, 252480, Note_on_c, 0, 79, 0
2, 252480, Note_on_c, 0, 75, 98
2, 252544, Note_on_c, 0, 75, 0
2, 252544, Note_on_c, 0, 70, 98
2, 252608, Note_on_c, 0, 70, 0
2, 252608, Note_on_c, 0, 67, 98
2, 252672, Note_on_c, 0, 67, 0
2, 252672, Note_on_c, 0, 63, 98
2, 252860, Note_on_c, 0, 63, 0
2, 252864, Note_on_c, 0, 77, 98
2, 253008, Note_on_c, 0, 77, 0
2, 253008, Note_on_c, 0, 79, 98
2, 253056, Note_on_c, 0, 79, 0
2, 253056, Note_on_c, 0, 75, 98
2, 253244, Note_on_c, 0, 75, 0
2, 253248, Note_on_c, 0, 77, 98
2, 253392, Note_on_c, 0, 77, 0
2, 253392, Note_on_c, 0, 79, 98
2, 253440, Note_on_c, 0, 79, 0
2, 253440, Note_on_c, 0, 75, 98
2, 253628, Note_on_c, 0, 75, 0
2, 254400, Note_on_c, 0, 82, 98
2, 254544, Note_on_c, 0, 82, 0
2, 254544, Note_on_c, 0, 84, 98
2, 254568, Note_on_c, 0, 84, 0
2, 254568, Note_on_c, 0, 86, 98
2, 254592, Note_on_c, 0, 86, 0
2, 254592, Note_on_c, 0, 87, 98
2, 254780, Note_on_c, 0, 87, 0
2, 254784, Note_on_c, 0, 82, 98
2, 254928, Note_on_c, 0, 82, 0
2, 254928, Note_on_c, 0, 84, 98
2, 254952, Note_on_c, 0, 84, 0
2, 254952, Note_on_c, 0, 86, 98
2, 254976, Note_on_c, 0, 86, 0
2, 254976, Note_on_c, 0, 87, 98
2, 255164, Note_on_c, 0, 87, 0
2, 255360, Note_on_c, 0, 70, 98
2, 255360, Note_on_c, 0, 75, 98
2, 255360, Note_on_c, 0, 79, 98
2, 255680, Note_on_c, 0, 79, 0
2, 255680, Note_on_c, 0, 75, 0
2, 255680, Note_on_c, 0, 70, 0
2, 255744, Note_on_c, 0, 55, 98
2, 255744, Note_on_c, 0, 58, 98
2, 255744, Note_on_c, 0, 63, 98
2, 256064, Note_on_c, 0, 63, 0
2, 256064, Note_on_c, 0, 58, 0
2, 256064, Note_on_c, 0, 55, 0
2, 256064, End_track
3, 0, Start_track
3, 0, MIDI_port, 0
3, 0, Title_t, "`"
3, 0, Control_c, 5, 0, 0
3, 0, Control_c, 5, 32, 0
3, 0, Program_c, 5, 0
3, 0, Control_c, 5, 7, 127
3, 0, Control_c, 5, 10, 45
3, 1, Control_c, 5, 91, 80
3, 2, Note_on_c, 5, 51, 98
3, 2, Note_on_c, 5, 39, 98
3, 386, Note_on_c, 5, 39, 0
3, 386, Note_on_c, 5, 51, 0
3, 960, Note_on_c, 5, 67, 98
3, 960, Note_on_c, 5, 70, 98
3, 1152, Note_on_c, 5, 70, 0
3, 1152, Note_on_c, 5, 67, 0
3, 1152, Note_on_c, 5, 65, 98
3, 1152, Note_on_c, 5, 68, 98
3, 1344, Note_on_c, 5, 68, 0
3, 1344, Note_on_c, 5, 65, 0
3, 1344, Note_on_c, 5, 63, 98
3, 1344, Note_on_c, 5, 67, 98
3, 1532, Note_on_c, 5, 67, 0
3, 1532, Note_on_c, 5, 63, 0
3, 1536, Note_on_c, 5, 34, 98
3, 1536, Note_on_c, 5, 46, 98
3, 1920, Note_on_c, 5, 46, 0
3, 1920, Note_on_c, 5, 34, 0
3, 2496, Note_on_c, 5, 62, 98
3, 2496, Note_on_c, 5, 65, 98
3, 2688, Note_on_c, 5, 65, 0
3, 2688, Note_on_c, 5, 62, 0
3, 2688, Note_on_c, 5, 67, 98
3, 2688, Note_on_c, 5, 70, 98
3, 2880, Note_on_c, 5, 70, 0
3, 2880, Note_on_c, 5, 67, 0
3, 2880, Note_on_c, 5, 65, 98
3, 2880, Note_on_c, 5, 68, 98
3, 3068, Note_on_c, 5, 68, 0
3, 3068, Note_on_c, 5, 65, 0
3, 3072, Note_on_c, 5, 39, 98
3, 3072, Note_on_c, 5, 51, 98
3, 3456, Note_on_c, 5, 51, 0
3, 3456, Note_on_c, 5, 39, 0
3, 4032, Note_on_c, 5, 63, 98
3, 4032, Note_on_c, 5, 67, 98
3, 4224, Note_on_c, 5, 67, 0
3, 4224, Note_on_c, 5, 63, 0
3, 4224, Note_on_c, 5, 65, 98
3, 4224, Note_on_c, 5, 68, 98
3, 4416, Note_on_c, 5, 68, 0
3, 4416, Note_on_c, 5, 65, 0
3, 4416, Note_on_c, 5, 67, 98
3, 4416, Note_on_c, 5, 70, 98
3, 4604, Note_on_c, 5, 70, 0
3, 4604, Note_on_c, 5, 67, 0
3, 4608, Note_on_c, 5, 68, 98
3, 4608, Note_on_c, 5, 72, 98
3, 4992, Note_on_c, 5, 72, 0
3, 4992, Note_on_c, 5, 68, 0
3, 4992, Note_on_c, 5, 69, 98
3, 4992, Note_on_c, 5, 72, 98
3, 5312, Note_on_c, 5, 72, 0
3, 5312, Note_on_c, 5, 69, 0
3, 5376, Note_on_c, 5, 70, 98
3, 5696, Note_on_c, 5, 70, 0
3, 5760, Note_on_c, 5, 58, 98
3, 5760, Note_on_c, 5, 68, 98
3, 6080, Note_on_c, 5, 68, 0
3, 6080, Note_on_c, 5, 58, 0
3, 6144, Note_on_c, 5, 39, 98
3, 6144, Note_on_c, 5, 43, 98
3, 6144, Note_on_c, 5, 46, 98
3, 6144, Note_on_c, 5, 51, 98
3, 6528, Note_on_c, 5, 51, 0
3, 6528, Note_on_c, 5, 39, 0
3, 6528, Note_on_c, 5, 43, 0
3, 6528, Note_on_c, 5, 46, 0
3, 7680, Note_on_c, 5, 41, 98
3, 7680, Note_on_c, 5, 44, 98
3, 7680, Note_on_c, 5, 46, 98
3, 7680, Note_on_c, 5, 50, 98
3, 7680, Note_on_c, 5, 53, 98
3, 8064, Note_on_c, 5, 53, 0
3, 8064, Note_on_c, 5, 46, 0
3, 8064, Note_on_c, 5, 41, 0
3, 8064, Note_on_c, 5, 44, 0
3, 8064, Note_on_c, 5, 50, 0
3, 9216, Note_on_c, 5, 43, 98
3, 9216, Note_on_c, 5, 46, 98
3, 9216, Note_on_c, 5, 49, 98
3, 9216, Note_on_c, 5, 52, 98
3, 9216, Note_on_c, 5, 55, 98
3, 9536, Note_on_c, 5, 55, 0
3, 9536, Note_on_c, 5, 49, 0
3, 9536, Note_on_c, 5, 43, 0
3, 9536, Note_on_c, 5, 46, 0
3, 9536, Note_on_c, 5, 52, 0
3, 9984, Note_on_c, 5, 60, 98
3, 9984, Note_on_c, 5, 70, 98
3, 10368, Note_on_c, 5, 70, 0
3, 10368, Note_on_c, 5, 68, 98
3, 10560, Note_on_c, 5, 68, 0
3, 10560, Note_on_c, 5, 67, 98
3, 10656, Note_on_c, 5, 60, 0
3, 10748, Note_on_c, 5, 67, 0
3, 10752, Note_on_c, 5, 65, 98
3, 10940, Note_on_c, 5, 65, 0
3, 11136, Note_on_c, 5, 53, 98
3, 11324, Note_on_c, 5, 53, 0
3, 11520, Note_on_c, 5, 58, 98
3, 11708, Note_on_c, 5, 58, 0
3, 11904, Note_on_c, 5, 46, 98
3, 12092, Note_on_c, 5, 46, 0
3, 12288, Note_on_c, 5, 51, 98
3, 12476, Note_on_c, 5, 51, 0
3, 12672, Note_on_c, 5, 44, 98
3, 12860, Note_on_c, 5, 44, 0
3, 13056, Note_on_c, 5, 46, 98
3, 13244, Note_on_c, 5, 46, 0
3, 13440, Note_on_c, 5, 34, 98
3, 13628, Note_on_c, 5, 34, 0
3, 13824, Note_on_c, 5, 39, 98
3, 13824, Note_on_c, 5, 51, 98
3, 14144, Note_on_c, 5, 51, 0
3, 14144, Note_on_c, 5, 39, 0
3, 14208, Note_on_c, 5, 39, 98
3, 14208, Note_on_c, 5, 51, 98
3, 14528, Note_on_c, 5, 51, 0
3, 14528, Note_on_c, 5, 39, 0
3, 14592, Note_on_c, 5, 29, 98
3, 14592, Note_on_c, 5, 41, 98
3, 14912, Note_on_c, 5, 41, 0
3, 14912, Note_on_c, 5, 29, 0
3, 14976, Note_on_c, 5, 41, 98
3, 14976, Note_on_c, 5, 53, 98
3, 15296, Note_on_c, 5, 53, 0
3, 15296, Note_on_c, 5, 41, 0
3, 15360, Note_on_c, 5, 31, 98
3, 15360, Note_on_c, 5, 43, 98
3, 15680, Note_on_c, 5, 43, 0
3, 15680, Note_on_c, 5, 31, 0
3, 15744, Note_on_c, 5, 43, 98
3, 15744, Note_on_c, 5, 55, 98
3, 16064, Note_on_c, 5, 55, 0
3, 16064, Note_on_c, 5, 43, 0
3, 16128, Note_on_c, 5, 32, 98
3, 16128, Note_on_c, 5, 44, 98
3, 16448, Note_on_c, 5, 44, 0
3, 16448, Note_on_c, 5, 32, 0
3, 16512, Note_on_c, 5, 44, 98
3, 16512, Note_on_c, 5, 56, 98
3, 16832, Note_on_c, 5, 56, 0
3, 16832, Note_on_c, 5, 44, 0
3, 16896, Note_on_c, 5, 46, 98
3, 16896, Note_on_c, 5, 58, 98
3, 17216, Note_on_c, 5, 58, 0
3, 17216, Note_on_c, 5, 46, 0
3, 17280, Note_on_c, 5, 46, 98
3, 17280, Note_on_c, 5, 58, 98
3, 17600, Note_on_c, 5, 58, 0
3, 17600, Note_on_c, 5, 46, 0
3, 17664, Note_on_c, 5, 39, 98
3, 17664, Note_on_c, 5, 51, 98
3, 17852, Note_on_c, 5, 51, 0
3, 17852, Note_on_c, 5, 39, 0
3, 17856, Note_on_c, 5, 51, 98
3, 17856, Note_on_c, 5, 63, 98
3, 17952, Note_on_c, 5, 63, 0
3, 17952, Note_on_c, 5, 51, 0
3, 17952, Note_on_c, 5, 50, 98
3, 17952, Note_on_c, 5, 62, 98
3, 18048, Note_on_c, 5, 62, 0
3, 18048, Note_on_c, 5, 50, 0
3, 18048, Note_on_c, 5, 48, 98
3, 18048, Note_on_c, 5, 60, 98
3, 18144, Note_on_c, 5, 60, 0
3, 18144, Note_on_c, 5, 48, 0
3, 18144, Note_on_c, 5, 46, 98
3, 18144, Note_on_c, 5, 58, 98
3, 18240, Note_on_c, 5, 58, 0
3, 18240, Note_on_c, 5, 46, 0
3, 18240, Note_on_c, 5, 44, 98
3, 18240, Note_on_c, 5, 56, 98
3, 18336, Note_on_c, 5, 56, 0
3, 18336, Note_on_c, 5, 44, 0
3, 18336, Note_on_c, 5, 43, 98
3, 18336, Note_on_c, 5, 55, 98
3, 18428, Note_on_c, 5, 55, 0
3, 18428, Note_on_c, 5, 43, 0
3, 18432, Note_on_c, 5, 41, 98
3, 18432, Note_on_c, 5, 53, 98
3, 18620, Note_on_c, 5, 53, 0
3, 18620, Note_on_c, 5, 41, 0
3, 18624, Note_on_c, 5, 53, 98
3, 18624, Note_on_c, 5, 65, 98
3, 18720, Note_on_c, 5, 65, 0
3, 18720, Note_on_c, 5, 53, 0
3, 18720, Note_on_c, 5, 51, 98
3, 18720, Note_on_c, 5, 63, 98
3, 18816, Note_on_c, 5, 63, 0
3, 18816, Note_on_c, 5, 51, 0
3, 18816, Note_on_c, 5, 50, 98
3, 18816, Note_on_c, 5, 62, 98
3, 18912, Note_on_c, 5, 62, 0
3, 18912, Note_on_c, 5, 50, 0
3, 18912, Note_on_c, 5, 48, 98
3, 18912, Note_on_c, 5, 60, 98
3, 19008, Note_on_c, 5, 60, 0
3, 19008, Note_on_c, 5, 48, 0
3, 19008, Note_on_c, 5, 46, 98
3, 19008, Note_on_c, 5, 58, 98
3, 19104, Note_on_c, 5, 58, 0
3, 19104, Note_on_c, 5, 46, 0
3, 19104, Note_on_c, 5, 44, 98
3, 19104, Note_on_c, 5, 56, 98
3, 19196, Note_on_c, 5, 56, 0
3, 19196, Note_on_c, 5, 44, 0
3, 19200, Note_on_c, 5, 43, 98
3, 19200, Note_on_c, 5, 55, 98
3, 19388, Note_on_c, 5, 55, 0
3, 19388, Note_on_c, 5, 43, 0
3, 19392, Note_on_c, 5, 55, 98
3, 19392, Note_on_c, 5, 67, 98
3, 19488, Note_on_c, 5, 67, 0
3, 19488, Note_on_c, 5, 55, 0
3, 19488, Note_on_c, 5, 53, 98
3, 19488, Note_on_c, 5, 65, 98
3, 19584, Note_on_c, 5, 65, 0
3, 19584, Note_on_c, 5, 53, 0
3, 19584, Note_on_c, 5, 51, 98
3, 19584, Note_on_c, 5, 63, 98
3, 19680, Note_on_c, 5, 63, 0
3, 19680, Note_on_c, 5, 51, 0
3, 19680, Note_on_c, 5, 50, 98
3, 19680, Note_on_c, 5, 62, 98
3, 19776, Note_on_c, 5, 62, 0
3, 19776, Note_on_c, 5, 50, 0
3, 19776, Note_on_c, 5, 48, 98
3, 19776, Note_on_c, 5, 60, 98
3, 19872, Note_on_c, 5, 60, 0
3, 19872, Note_on_c, 5, 48, 0
3, 19872, Note_on_c, 5, 46, 98
3, 19872, Note_on_c, 5, 58, 98
3, 19964, Note_on_c, 5, 58, 0
3, 19964, Note_on_c, 5, 46, 0
3, 19968, Note_on_c, 5, 44, 98
3, 19968, Note_on_c, 5, 56, 98
3, 20288, Note_on_c, 5, 56, 0
3, 20288, Note_on_c, 5, 44, 0
3, 20496, Note_on_c, 5, 56, 98
3, 20496, Note_on_c, 5, 60, 98
3, 20496, Note_on_c, 5, 63, 98
3, 20496, Note_on_c, 5, 65, 98
3, 20540, Note_on_c, 5, 65, 0
3, 20540, Note_on_c, 5, 56, 0
3, 20540, Note_on_c, 5, 60, 0
3, 20540, Note_on_c, 5, 63, 0
3, 20544, Note_on_c, 5, 56, 98
3, 20544, Note_on_c, 5, 60, 98
3, 20544, Note_on_c, 5, 63, 98
3, 20544, Note_on_c, 5, 65, 98
3, 20684, Note_on_c, 5, 65, 0
3, 20684, Note_on_c, 5, 56, 0
3, 20684, Note_on_c, 5, 60, 0
3, 20684, Note_on_c, 5, 63, 0
3, 20688, Note_on_c, 5, 56, 98
3, 20688, Note_on_c, 5, 60, 98
3, 20688, Note_on_c, 5, 63, 98
3, 20688, Note_on_c, 5, 65, 98
3, 20732, Note_on_c, 5, 65, 0
3, 20732, Note_on_c, 5, 56, 0
3, 20732, Note_on_c, 5, 60, 0
3, 20732, Note_on_c, 5, 63, 0
3, 20736, Note_on_c, 5, 57, 98
3, 20736, Note_on_c, 5, 60, 98
3, 20736, Note_on_c, 5, 63, 98
3, 20736, Note_on_c, 5, 65, 98
3, 20924, Note_on_c, 5, 65, 0
3, 20924, Note_on_c, 5, 57, 0
3, 20924, Note_on_c, 5, 60, 0
3, 20924, Note_on_c, 5, 63, 0
3, 21264, Note_on_c, 5, 41, 98
3, 21308, Note_on_c, 5, 41, 0
3, 21312, Note_on_c, 5, 53, 98
3, 21452, Note_on_c, 5, 53, 0
3, 21456, Note_on_c, 5, 53, 98
3, 21500, Note_on_c, 5, 53, 0
3, 21504, Note_on_c, 5, 53, 98
3, 21824, Note_on_c, 5, 53, 0
3, 21888, Note_on_c, 5, 41, 98
3, 22208, Note_on_c, 5, 41, 0
3, 22272, Note_on_c, 5, 34, 98
3, 22364, Note_on_c, 5, 34, 0
3, 22368, Note_on_c, 5, 46, 98
3, 22460, Note_on_c, 5, 46, 0
3, 22464, Note_on_c, 5, 34, 98
3, 22556, Note_on_c, 5, 34, 0
3, 22560, Note_on_c, 5, 46, 98
3, 22652, Note_on_c, 5, 46, 0
3, 22656, Note_on_c, 5, 34, 98
3, 22748, Note_on_c, 5, 34, 0
3, 22752, Note_on_c, 5, 46, 98
3, 22844, Note_on_c, 5, 46, 0
3, 22848, Note_on_c, 5, 34, 98
3, 22940, Note_on_c, 5, 34, 0
3, 22944, Note_on_c, 5, 46, 98
3, 23036, Note_on_c, 5, 46, 0
3, 23040, Note_on_c, 5, 34, 98
3, 23132, Note_on_c, 5, 34, 0
3, 23136, Note_on_c, 5, 46, 98
3, 23228, Note_on_c, 5, 46, 0
3, 23232, Note_on_c, 5, 34, 98
3, 23324, Note_on_c, 5, 34, 0
3, 23328, Note_on_c, 5, 46, 98
3, 23420, Note_on_c, 5, 46, 0
3, 23424, Note_on_c, 5, 34, 98
3, 23516, Note_on_c, 5, 34, 0
3, 23520, Note_on_c, 5, 46, 98
3, 23612, Note_on_c, 5, 46, 0
3, 23616, Note_on_c, 5, 34, 98
3, 23708, Note_on_c, 5, 34, 0
3, 23712, Note_on_c, 5, 46, 98
3, 23804, Note_on_c, 5, 46, 0
3, 23808, Note_on_c, 5, 34, 98
3, 23900, Note_on_c, 5, 34, 0
3, 23904, Note_on_c, 5, 46, 98
3, 23996, Note_on_c, 5, 46, 0
3, 24000, Note_on_c, 5, 34, 98
3, 24092, Note_on_c, 5, 34, 0
3, 24096, Note_on_c, 5, 46, 98
3, 24188, Note_on_c, 5, 46, 0
3, 24192, Note_on_c, 5, 34, 98
3, 24284, Note_on_c, 5, 34, 0
3, 24288, Note_on_c, 5, 46, 98
3, 24380, Note_on_c, 5, 46, 0
3, 24384, Note_on_c, 5, 34, 98
3, 24476, Note_on_c, 5, 34, 0
3, 24480, Note_on_c, 5, 46, 98
3, 24572, Note_on_c, 5, 46, 0
3, 24576, Note_on_c, 5, 34, 98
3, 24668, Note_on_c, 5, 34, 0
3, 24672, Note_on_c, 5, 46, 98
3, 24764, Note_on_c, 5, 46, 0
3, 24768, Note_on_c, 5, 34, 98
3, 24860, Note_on_c, 5, 34, 0
3, 24864, Note_on_c, 5, 46, 98
3, 24956, Note_on_c, 5, 46, 0
3, 24960, Note_on_c, 5, 34, 98
3, 25052, Note_on_c, 5, 34, 0
3, 25056, Note_on_c, 5, 46, 98
3, 25148, Note_on_c, 5, 46, 0
3, 25152, Note_on_c, 5, 34, 98
3, 25244, Note_on_c, 5, 34, 0
3, 25248, Note_on_c, 5, 46, 98
3, 25340, Note_on_c, 5, 46, 0
3, 25344, Note_on_c, 5, 34, 98
3, 25532, Note_on_c, 5, 34, 0
3, 26160, Note_on_c, 5, 58, 98
3, 26208, Note_on_c, 5, 58, 0
3, 26208, Note_on_c, 5, 60, 98
3, 26256, Note_on_c, 5, 60, 0
3, 26256, Note_on_c, 5, 63, 98
3, 26304, Note_on_c, 5, 63, 0
3, 26304, Note_on_c, 5, 66, 98
3, 26352, Note_on_c, 5, 66, 0
3, 26352, Note_on_c, 5, 63, 98
3, 26400, Note_on_c, 5, 63, 0
3, 26400, Note_on_c, 5, 60, 98
3, 26448, Note_on_c, 5, 60, 0
3, 26448, Note_on_c, 5, 58, 98
3, 26496, Note_on_c, 5, 58, 0
3, 26496, Note_on_c, 5, 66, 98
3, 26544, Note_on_c, 5, 66, 0
3, 26544, Note_on_c, 5, 63, 98
3, 26592, Note_on_c, 5, 63, 0
3, 26592, Note_on_c, 5, 60, 98
3, 26640, Note_on_c, 5, 60, 0
3, 26640, Note_on_c, 5, 58, 98
3, 26688, Note_on_c, 5, 58, 0
3, 26688, Note_on_c, 5, 66, 98
3, 26736, Note_on_c, 5, 66, 0
3, 26736, Note_on_c, 5, 63, 98
3, 26784, Note_on_c, 5, 63, 0
3, 26784, Note_on_c, 5, 60, 98
3, 26832, Note_on_c, 5, 60, 0
3, 26832, Note_on_c, 5, 58, 98
3, 26876, Note_on_c, 5, 58, 0
3, 26880, Note_on_c, 5, 58, 98
3, 26880, Note_on_c, 5, 62, 98
3, 27068, Note_on_c, 5, 62, 0
3, 27068, Note_on_c, 5, 58, 0
3, 27648, Note_on_c, 5, 46, 98
3, 27648, Note_on_c, 5, 58, 98
3, 27836, Note_on_c, 5, 58, 0
3, 27836, Note_on_c, 5, 46, 0
3, 28416, Note_on_c, 5, 46, 98
3, 28416, Note_on_c, 5, 58, 98
3, 28604, Note_on_c, 5, 58, 0
3, 28604, Note_on_c, 5, 46, 0
3, 29520, Note_on_c, 5, 34, 98
3, 29520, Note_on_c, 5, 46, 98
3, 29564, Note_on_c, 5, 46, 0
3, 29564, Note_on_c, 5, 34, 0
3, 29568, Note_on_c, 5, 34, 98
3, 29568, Note_on_c, 5, 46, 98
3, 29756, Note_on_c, 5, 46, 0
3, 29756, Note_on_c, 5, 34, 0
3, 29760, Note_on_c, 5, 34, 98
3, 29760, Note_on_c, 5, 46, 98
3, 29948, Note_on_c, 5, 46, 0
3, 29948, Note_on_c, 5, 34, 0
3, 29952, Note_on_c, 5, 34, 98
3, 29952, Note_on_c, 5, 46, 98
3, 30624, Note_on_c, 5, 46, 0
3, 30624, Note_on_c, 5, 34, 0
3, 30912, Note_on_c, 5, 51, 98
3, 30912, Note_on_c, 5, 58, 98
3, 31100, Note_on_c, 5, 58, 0
3, 31100, Note_on_c, 5, 51, 0
3, 31104, Note_on_c, 5, 51, 98
3, 31104, Note_on_c, 5, 58, 98
3, 31292, Note_on_c, 5, 58, 0
3, 31292, Note_on_c, 5, 51, 0
3, 31296, Note_on_c, 5, 51, 98
3, 31296, Note_on_c, 5, 58, 98
3, 31484, Note_on_c, 5, 58, 0
3, 31484, Note_on_c, 5, 51, 0
3, 31680, Note_on_c, 5, 56, 98
3, 31680, Note_on_c, 5, 62, 98
3, 31868, Note_on_c, 5, 62, 0
3, 31868, Note_on_c, 5, 56, 0
3, 31872, Note_on_c, 5, 56, 98
3, 31872, Note_on_c, 5, 62, 98
3, 32060, Note_on_c, 5, 62, 0
3, 32060, Note_on_c, 5, 56, 0
3, 32064, Note_on_c, 5, 56, 98
3, 32064, Note_on_c, 5, 62, 98
3, 32252, Note_on_c, 5, 62, 0
3, 32252, Note_on_c, 5, 56, 0
3, 32448, Note_on_c, 5, 55, 98
3, 32448, Note_on_c, 5, 58, 98
3, 32636, Note_on_c, 5, 58, 0
3, 32636, Note_on_c, 5, 55, 0
3, 32640, Note_on_c, 5, 55, 98
3, 32640, Note_on_c, 5, 58, 98
3, 32828, Note_on_c, 5, 58, 0
3, 32828, Note_on_c, 5, 55, 0
3, 32832, Note_on_c, 5, 56, 98
3, 33020, Note_on_c, 5, 56, 0
3, 33024, Note_on_c, 5, 58, 98
3, 33344, Note_on_c, 5, 58, 0
3, 33408, Note_on_c, 5, 46, 98
3, 33596, Note_on_c, 5, 46, 0
3, 33792, Note_on_c, 5, 39, 98
3, 33792, Note_on_c, 5, 51, 98
3, 34112, Note_on_c, 5, 51, 0
3, 34112, Note_on_c, 5, 39, 0
3, 34176, Note_on_c, 5, 34, 98
3, 34176, Note_on_c, 5, 46, 98
3, 34496, Note_on_c, 5, 46, 0
3, 34496, Note_on_c, 5, 34, 0
3, 34560, Note_on_c, 5, 39, 98
3, 34748, Note_on_c, 5, 39, 0
3, 34752, Note_on_c, 5, 51, 98
3, 34940, Note_on_c, 5, 51, 0
3, 34944, Note_on_c, 5, 48, 98
3, 35132, Note_on_c, 5, 48, 0
3, 35136, Note_on_c, 5, 44, 98
3, 35324, Note_on_c, 5, 44, 0
3, 35328, Note_on_c, 5, 43, 98
3, 35516, Note_on_c, 5, 43, 0
3, 35520, Note_on_c, 5, 39, 98
3, 35708, Note_on_c, 5, 39, 0
3, 35712, Note_on_c, 5, 44, 98
3, 35900, Note_on_c, 5, 44, 0
3, 35904, Note_on_c, 5, 41, 98
3, 36092, Note_on_c, 5, 41, 0
3, 36096, Note_on_c, 5, 34, 98
3, 36096, Note_on_c, 5, 46, 98
3, 36608, Note_on_c, 5, 46, 0
3, 36608, Note_on_c, 5, 34, 0
3, 39936, Note_on_c, 5, 43, 98
3, 39936, Note_on_c, 5, 55, 98
3, 40256, Note_on_c, 5, 55, 0
3, 40256, Note_on_c, 5, 43, 0
3, 40320, Note_on_c, 5, 44, 98
3, 40320, Note_on_c, 5, 56, 98
3, 40640, Note_on_c, 5, 56, 0
3, 40640, Note_on_c, 5, 44, 0
3, 40704, Note_on_c, 5, 58, 98
3, 40992, Note_on_c, 5, 58, 0
3, 40992, Note_on_c, 5, 57, 98
3, 41040, Note_on_c, 5, 57, 0
3, 41040, Note_on_c, 5, 58, 98
3, 41088, Note_on_c, 5, 58, 0
3, 41088, Note_on_c, 5, 60, 98
3, 41276, Note_on_c, 5, 60, 0
3, 41280, Note_on_c, 5, 59, 98
3, 41344, Note_on_c, 5, 59, 0
3, 41472, Note_on_c, 5, 58, 98
3, 41660, Note_on_c, 5, 58, 0
3, 41664, Note_on_c, 5, 58, 98
3, 41852, Note_on_c, 5, 58, 0
3, 41856, Note_on_c, 5, 46, 98
3, 42044, Note_on_c, 5, 46, 0
3, 42048, Note_on_c, 5, 46, 98
3, 42236, Note_on_c, 5, 46, 0
3, 42240, Note_on_c, 5, 51, 98
3, 42332, Note_on_c, 5, 51, 0
3, 42336, Note_on_c, 5, 63, 98
3, 42428, Note_on_c, 5, 63, 0
3, 42432, Note_on_c, 5, 51, 98
3, 42524, Note_on_c, 5, 51, 0
3, 42528, Note_on_c, 5, 63, 98
3, 42620, Note_on_c, 5, 63, 0
3, 42624, Note_on_c, 5, 51, 98
3, 42716, Note_on_c, 5, 51, 0
3, 42720, Note_on_c, 5, 63, 98
3, 42812, Note_on_c, 5, 63, 0
3, 42816, Note_on_c, 5, 51, 98
3, 42908, Note_on_c, 5, 51, 0
3, 42912, Note_on_c, 5, 63, 98
3, 43004, Note_on_c, 5, 63, 0
3, 43008, Note_on_c, 5, 51, 98
3, 43100, Note_on_c, 5, 51, 0
3, 43104, Note_on_c, 5, 63, 98
3, 43196, Note_on_c, 5, 63, 0
3, 43200, Note_on_c, 5, 51, 98
3, 43292, Note_on_c, 5, 51, 0
3, 43296, Note_on_c, 5, 63, 98
3, 43388, Note_on_c, 5, 63, 0
3, 43392, Note_on_c, 5, 51, 98
3, 43484, Note_on_c, 5, 51, 0
3, 43488, Note_on_c, 5, 63, 98
3, 43580, Note_on_c, 5, 63, 0
3, 43584, Note_on_c, 5, 51, 98
3, 43676, Note_on_c, 5, 51, 0
3, 43680, Note_on_c, 5, 63, 98
3, 43772, Note_on_c, 5, 63, 0
3, 43776, Note_on_c, 5, 51, 98
3, 43868, Note_on_c, 5, 51, 0
3, 43872, Note_on_c, 5, 63, 98
3, 43964, Note_on_c, 5, 63, 0
3, 43968, Note_on_c, 5, 51, 98
3, 44060, Note_on_c, 5, 51, 0
3, 44064, Note_on_c, 5, 63, 98
3, 44156, Note_on_c, 5, 63, 0
3, 44160, Note_on_c, 5, 51, 98
3, 44252, Note_on_c, 5, 51, 0
3, 44256, Note_on_c, 5, 63, 98
3, 44348, Note_on_c, 5, 63, 0
3, 44352, Note_on_c, 5, 51, 98
3, 44444, Note_on_c, 5, 51, 0
3, 44448, Note_on_c, 5, 63, 98
3, 44540, Note_on_c, 5, 63, 0
3, 44544, Note_on_c, 5, 39, 98
3, 44636, Note_on_c, 5, 39, 0
3, 44640, Note_on_c, 5, 51, 98
3, 44732, Note_on_c, 5, 51, 0
3, 44736, Note_on_c, 5, 39, 98
3, 44828, Note_on_c, 5, 39, 0
3, 44832, Note_on_c, 5, 51, 98
3, 44924, Note_on_c, 5, 51, 0
3, 44928, Note_on_c, 5, 39, 98
3, 45020, Note_on_c, 5, 39, 0
3, 45024, Note_on_c, 5, 51, 98
3, 45116, Note_on_c, 5, 51, 0
3, 45120, Note_on_c, 5, 39, 98
3, 45212, Note_on_c, 5, 39, 0
3, 45216, Note_on_c, 5, 51, 98
3, 45308, Note_on_c, 5, 51, 0
3, 45312, Note_on_c, 5, 39, 98
3, 45404, Note_on_c, 5, 39, 0
3, 45408, Note_on_c, 5, 51, 98
3, 45500, Note_on_c, 5, 51, 0
3, 45504, Note_on_c, 5, 39, 98
3, 45596, Note_on_c, 5, 39, 0
3, 45600, Note_on_c, 5, 51, 98
3, 45692, Note_on_c, 5, 51, 0
3, 45696, Note_on_c, 5, 39, 98
3, 45788, Note_on_c, 5, 39, 0
3, 45792, Note_on_c, 5, 51, 98
3, 45884, Note_on_c, 5, 51, 0
3, 45888, Note_on_c, 5, 39, 98
3, 45980, Note_on_c, 5, 39, 0
3, 45984, Note_on_c, 5, 51, 98
3, 46076, Note_on_c, 5, 51, 0
3, 46080, Note_on_c, 5, 39, 98
3, 46172, Note_on_c, 5, 39, 0
3, 46176, Note_on_c, 5, 51, 98
3, 46268, Note_on_c, 5, 51, 0
3, 46272, Note_on_c, 5, 39, 98
3, 46364, Note_on_c, 5, 39, 0
3, 46368, Note_on_c, 5, 51, 98
3, 46460, Note_on_c, 5, 51, 0
3, 46464, Note_on_c, 5, 39, 98
3, 46556, Note_on_c, 5, 39, 0
3, 46560, Note_on_c, 5, 51, 98
3, 46652, Note_on_c, 5, 51, 0
3, 46656, Note_on_c, 5, 39, 98
3, 46748, Note_on_c, 5, 39, 0
3, 46752, Note_on_c, 5, 51, 98
3, 46844, Note_on_c, 5, 51, 0
3, 46848, Note_on_c, 5, 39, 98
3, 47036, Note_on_c, 5, 39, 0
3, 47040, Note_on_c, 5, 50, 98
3, 47228, Note_on_c, 5, 50, 0
3, 47232, Note_on_c, 5, 51, 98
3, 47420, Note_on_c, 5, 51, 0
3, 47424, Note_on_c, 5, 46, 98
3, 47612, Note_on_c, 5, 46, 0
3, 47616, Note_on_c, 5, 39, 98
3, 47804, Note_on_c, 5, 39, 0
3, 47808, Note_on_c, 5, 50, 98
3, 47996, Note_on_c, 5, 50, 0
3, 48000, Note_on_c, 5, 51, 98
3, 48188, Note_on_c, 5, 51, 0
3, 48192, Note_on_c, 5, 46, 98
3, 48380, Note_on_c, 5, 46, 0
3, 48384, Note_on_c, 5, 39, 98
3, 48384, Note_on_c, 5, 51, 98
3, 48668, Note_on_c, 5, 51, 0
3, 48668, Note_on_c, 5, 39, 0
3, 48672, Note_on_c, 5, 50, 98
3, 48764, Note_on_c, 5, 50, 0
3, 48768, Note_on_c, 5, 36, 98
3, 48768, Note_on_c, 5, 48, 98
3, 49052, Note_on_c, 5, 48, 0
3, 49052, Note_on_c, 5, 36, 0
3, 49056, Note_on_c, 5, 46, 98
3, 49148, Note_on_c, 5, 46, 0
3, 49152, Note_on_c, 5, 32, 98
3, 49152, Note_on_c, 5, 44, 98
3, 49436, Note_on_c, 5, 44, 0
3, 49436, Note_on_c, 5, 32, 0
3, 49440, Note_on_c, 5, 43, 98
3, 49532, Note_on_c, 5, 43, 0
3, 49536, Note_on_c, 5, 41, 98
3, 49820, Note_on_c, 5, 41, 0
3, 49824, Note_on_c, 5, 39, 98
3, 49916, Note_on_c, 5, 39, 0
3, 49920, Note_on_c, 5, 38, 98
3, 50108, Note_on_c, 5, 38, 0
3, 50112, Note_on_c, 5, 50, 98
3, 50304, Note_on_c, 5, 50, 0
3, 50304, Note_on_c, 5, 51, 98
3, 50496, Note_on_c, 5, 51, 0
3, 50496, Note_on_c, 5, 45, 98
3, 50684, Note_on_c, 5, 45, 0
3, 50688, Note_on_c, 5, 46, 98
3, 51008, Note_on_c, 5, 46, 0
3, 51456, Note_on_c, 5, 34, 98
3, 51456, Note_on_c, 5, 46, 98
3, 51776, Note_on_c, 5, 46, 0
3, 51776, Note_on_c, 5, 34, 0
3, 52224, Note_on_c, 5, 34, 98
3, 52224, Note_on_c, 5, 46, 98
3, 52544, Note_on_c, 5, 46, 0
3, 52544, Note_on_c, 5, 34, 0
3, 52992, Note_on_c, 5, 34, 98
3, 52992, Note_on_c, 5, 46, 98
3, 53312, Note_on_c, 5, 46, 0
3, 53312, Note_on_c, 5, 34, 0
3, 53760, Note_on_c, 5, 34, 98
3, 53760, Note_on_c, 5, 46, 98
3, 53948, Note_on_c, 5, 46, 0
3, 53948, Note_on_c, 5, 34, 0
3, 54048, Note_on_c, 5, 46, 98
3, 54144, Note_on_c, 5, 46, 0
3, 54144, Note_on_c, 5, 45, 98
3, 54240, Note_on_c, 5, 45, 0
3, 54240, Note_on_c, 5, 46, 98
3, 54336, Note_on_c, 5, 46, 0
3, 54336, Note_on_c, 5, 48, 98
3, 54432, Note_on_c, 5, 48, 0
3, 54432, Note_on_c, 5, 50, 98
3, 54528, Note_on_c, 5, 50, 0
3, 54528, Note_on_c, 5, 51, 98
3, 54624, Note_on_c, 5, 51, 0
3, 54624, Note_on_c, 5, 53, 98
3, 54720, Note_on_c, 5, 53, 0
3, 54720, Note_on_c, 5, 55, 98
3, 54816, Note_on_c, 5, 55, 0
3, 54816, Note_on_c, 5, 53, 98
3, 54912, Note_on_c, 5, 53, 0
3, 54912, Note_on_c, 5, 52, 98
3, 55008, Note_on_c, 5, 52, 0
3, 55008, Note_on_c, 5, 48, 98
3, 55104, Note_on_c, 5, 48, 0
3, 55104, Note_on_c, 5, 50, 98
3, 55200, Note_on_c, 5, 50, 0
3, 55200, Note_on_c, 5, 52, 98
3, 55296, Note_on_c, 5, 52, 0
3, 55296, Note_on_c, 5, 41, 98
3, 55296, Note_on_c, 5, 53, 98
3, 55616, Note_on_c, 5, 53, 0
3, 55616, Note_on_c, 5, 41, 0
3, 57600, Note_on_c, 5, 57, 98
3, 57788, Note_on_c, 5, 57, 0
3, 57984, Note_on_c, 5, 58, 98
3, 58172, Note_on_c, 5, 58, 0
3, 58368, Note_on_c, 5, 53, 98
3, 58688, Note_on_c, 5, 53, 0
3, 59136, Note_on_c, 5, 41, 98
3, 59136, Note_on_c, 5, 53, 98
3, 60224, Note_on_c, 5, 53, 0
3, 60224, Note_on_c, 5, 41, 0
3, 61440, Note_on_c, 5, 53, 98
3, 61484, Note_on_c, 5, 53, 0
3, 61776, Note_on_c, 5, 65, 98
3, 61820, Note_on_c, 5, 65, 0
3, 61824, Note_on_c, 5, 53, 98
3, 61868, Note_on_c, 5, 53, 0
3, 62160, Note_on_c, 5, 65, 98
3, 62204, Note_on_c, 5, 65, 0
3, 62208, Note_on_c, 5, 53, 98
3, 62252, Note_on_c, 5, 53, 0
3, 62544, Note_on_c, 5, 65, 98
3, 62588, Note_on_c, 5, 65, 0
3, 62592, Note_on_c, 5, 53, 98
3, 62636, Note_on_c, 5, 53, 0
3, 62928, Note_on_c, 5, 65, 98
3, 62972, Note_on_c, 5, 65, 0
3, 62976, Note_on_c, 5, 53, 98
3, 63020, Note_on_c, 5, 53, 0
3, 63168, Note_on_c, 5, 65, 98
3, 63212, Note_on_c, 5, 65, 0
3, 63360, Note_on_c, 5, 53, 98
3, 63404, Note_on_c, 5, 53, 0
3, 63552, Note_on_c, 5, 65, 98
3, 63596, Note_on_c, 5, 65, 0
3, 63744, Note_on_c, 5, 53, 98
3, 64064, Note_on_c, 5, 53, 0
3, 64512, Note_on_c, 5, 58, 98
3, 64608, Note_on_c, 5, 58, 0
3, 64608, Note_on_c, 5, 62, 98
3, 64704, Note_on_c, 5, 62, 0
3, 64704, Note_on_c, 5, 65, 98
3, 64800, Note_on_c, 5, 65, 0
3, 64800, Note_on_c, 5, 62, 98
3, 64896, Note_on_c, 5, 62, 0
3, 64896, Note_on_c, 5, 58, 98
3, 64992, Note_on_c, 5, 58, 0
3, 64992, Note_on_c, 5, 62, 98
3, 65088, Note_on_c, 5, 62, 0
3, 65088, Note_on_c, 5, 65, 98
3, 65184, Note_on_c, 5, 65, 0
3, 65184, Note_on_c, 5, 62, 98
3, 65280, Note_on_c, 5, 62, 0
3, 65280, Note_on_c, 5, 58, 98
3, 65376, Note_on_c, 5, 58, 0
3, 65376, Note_on_c, 5, 60, 98
3, 65472, Note_on_c, 5, 60, 0
3, 65472, Note_on_c, 5, 63, 98
3, 65568, Note_on_c, 5, 63, 0
3, 65568, Note_on_c, 5, 60, 98
3, 65664, Note_on_c, 5, 60, 0
3, 65664, Note_on_c, 5, 58, 98
3, 65760, Note_on_c, 5, 58, 0
3, 65760, Note_on_c, 5, 60, 98
3, 65856, Note_on_c, 5, 60, 0
3, 65856, Note_on_c, 5, 63, 98
3, 65952, Note_on_c, 5, 63, 0
3, 65952, Note_on_c, 5, 60, 98
3, 66044, Note_on_c, 5, 60, 0
3, 66048, Note_on_c, 5, 46, 98
3, 66240, Note_on_c, 5, 46, 0
3, 66240, Note_on_c, 5, 58, 98
3, 66432, Note_on_c, 5, 58, 0
3, 66432, Note_on_c, 5, 46, 98
3, 66624, Note_on_c, 5, 46, 0
3, 66624, Note_on_c, 5, 58, 98
3, 66816, Note_on_c, 5, 58, 0
3, 66816, Note_on_c, 5, 46, 98
3, 67008, Note_on_c, 5, 46, 0
3, 67008, Note_on_c, 5, 58, 98
3, 67200, Note_on_c, 5, 58, 0
3, 67200, Note_on_c, 5, 46, 98
3, 67392, Note_on_c, 5, 46, 0
3, 67392, Note_on_c, 5, 58, 98
3, 67580, Note_on_c, 5, 58, 0
3, 67968, Note_on_c, 5, 62, 98
3, 67968, Note_on_c, 5, 70, 98
3, 68352, Note_on_c, 5, 70, 0
3, 68352, Note_on_c, 5, 62, 0
3, 68352, Note_on_c, 5, 63, 98
3, 68352, Note_on_c, 5, 70, 98
3, 68540, Note_on_c, 5, 70, 0
3, 68540, Note_on_c, 5, 63, 0
3, 68736, Note_on_c, 5, 57, 98
3, 68736, Note_on_c, 5, 65, 98
3, 69120, Note_on_c, 5, 65, 0
3, 69120, Note_on_c, 5, 57, 0
3, 69120, Note_on_c, 5, 58, 98
3, 69120, Note_on_c, 5, 65, 98
3, 69308, Note_on_c, 5, 65, 0
3, 69308, Note_on_c, 5, 58, 0
3, 69312, Note_on_c, 5, 62, 98
3, 69500, Note_on_c, 5, 62, 0
3, 69504, Note_on_c, 5, 63, 98
3, 69692, Note_on_c, 5, 63, 0
3, 69696, Note_on_c, 5, 51, 98
3, 69696, Note_on_c, 5, 60, 98
3, 69884, Note_on_c, 5, 60, 0
3, 69884, Note_on_c, 5, 51, 0
3, 69888, Note_on_c, 5, 53, 98
3, 69888, Note_on_c, 5, 58, 98
3, 70272, Note_on_c, 5, 58, 0
3, 70272, Note_on_c, 5, 57, 98
3, 70400, Note_on_c, 5, 53, 0
3, 70460, Note_on_c, 5, 57, 0
3, 72192, Note_on_c, 5, 60, 98
3, 72192, Note_on_c, 5, 63, 98
3, 72288, Note_on_c, 5, 63, 0
3, 72288, Note_on_c, 5, 60, 0
3, 72288, Note_on_c, 5, 59, 98
3, 72288, Note_on_c, 5, 62, 98
3, 72384, Note_on_c, 5, 62, 0
3, 72384, Note_on_c, 5, 59, 0
3, 72384, Note_on_c, 5, 60, 98
3, 72384, Note_on_c, 5, 63, 98
3, 72480, Note_on_c, 5, 63, 0
3, 72480, Note_on_c, 5, 60, 0
3, 72480, Note_on_c, 5, 59, 98
3, 72480, Note_on_c, 5, 62, 98
3, 72576, Note_on_c, 5, 62, 0
3, 72576, Note_on_c, 5, 59, 0
3, 72576, Note_on_c, 5, 60, 98
3, 72576, Note_on_c, 5, 63, 98
3, 72672, Note_on_c, 5, 63, 0
3, 72672, Note_on_c, 5, 60, 0
3, 72672, Note_on_c, 5, 59, 98
3, 72672, Note_on_c, 5, 62, 98
3, 72768, Note_on_c, 5, 62, 0
3, 72768, Note_on_c, 5, 59, 0
3, 72768, Note_on_c, 5, 60, 98
3, 72768, Note_on_c, 5, 63, 98
3, 72864, Note_on_c, 5, 63, 0
3, 72864, Note_on_c, 5, 60, 0
3, 72864, Note_on_c, 5, 61, 98
3, 72864, Note_on_c, 5, 64, 98
3, 72960, Note_on_c, 5, 64, 0
3, 72960, Note_on_c, 5, 61, 0
3, 72960, Note_on_c, 5, 62, 98
3, 72960, Note_on_c, 5, 65, 98
3, 73056, Note_on_c, 5, 65, 0
3, 73056, Note_on_c, 5, 62, 0
3, 73056, Note_on_c, 5, 61, 98
3, 73056, Note_on_c, 5, 64, 98
3, 73152, Note_on_c, 5, 64, 0
3, 73152, Note_on_c, 5, 61, 0
3, 73152, Note_on_c, 5, 62, 98
3, 73152, Note_on_c, 5, 65, 98
3, 73248, Note_on_c, 5, 65, 0
3, 73248, Note_on_c, 5, 62, 0
3, 73248, Note_on_c, 5, 61, 98
3, 73248, Note_on_c, 5, 64, 98
3, 73344, Note_on_c, 5, 64, 0
3, 73344, Note_on_c, 5, 61, 0
3, 73344, Note_on_c, 5, 62, 98
3, 73344, Note_on_c, 5, 65, 98
3, 73532, Note_on_c, 5, 65, 0
3, 73532, Note_on_c, 5, 62, 0
3, 76800, Note_on_c, 5, 63, 98
3, 76848, Note_on_c, 5, 63, 0
3, 76848, Note_on_c, 5, 65, 98
3, 76896, Note_on_c, 5, 65, 0
3, 76896, Note_on_c, 5, 62, 98
3, 76944, Note_on_c, 5, 62, 0
3, 76944, Note_on_c, 5, 65, 98
3, 76992, Note_on_c, 5, 65, 0
3, 76992, Note_on_c, 5, 60, 98
3, 77040, Note_on_c, 5, 60, 0
3, 77040, Note_on_c, 5, 65, 98
3, 77088, Note_on_c, 5, 65, 0
3, 77088, Note_on_c, 5, 58, 98
3, 77136, Note_on_c, 5, 58, 0
3, 77136, Note_on_c, 5, 65, 98
3, 77184, Note_on_c, 5, 65, 0
3, 77184, Note_on_c, 5, 57, 98
3, 77232, Note_on_c, 5, 57, 0
3, 77232, Note_on_c, 5, 65, 98
3, 77280, Note_on_c, 5, 65, 0
3, 77280, Note_on_c, 5, 60, 98
3, 77328, Note_on_c, 5, 60, 0
3, 77328, Note_on_c, 5, 65, 98
3, 77376, Note_on_c, 5, 65, 0
3, 77376, Note_on_c, 5, 62, 98
3, 77424, Note_on_c, 5, 62, 0
3, 77424, Note_on_c, 5, 65, 98
3, 77472, Note_on_c, 5, 65, 0
3, 77472, Note_on_c, 5, 63, 98
3, 77520, Note_on_c, 5, 63, 0
3, 77520, Note_on_c, 5, 65, 98
3, 77568, Note_on_c, 5, 65, 0
3, 77568, Note_on_c, 5, 62, 98
3, 77756, Note_on_c, 5, 62, 0
3, 78336, Note_on_c, 5, 63, 98
3, 78384, Note_on_c, 5, 63, 0
3, 78384, Note_on_c, 5, 65, 98
3, 78432, Note_on_c, 5, 65, 0
3, 78432, Note_on_c, 5, 62, 98
3, 78480, Note_on_c, 5, 62, 0
3, 78480, Note_on_c, 5, 65, 98
3, 78528, Note_on_c, 5, 65, 0
3, 78528, Note_on_c, 5, 60, 98
3, 78576, Note_on_c, 5, 60, 0
3, 78576, Note_on_c, 5, 65, 98
3, 78624, Note_on_c, 5, 65, 0
3, 78624, Note_on_c, 5, 58, 98
3, 78672, Note_on_c, 5, 58, 0
3, 78672, Note_on_c, 5, 65, 98
3, 78720, Note_on_c, 5, 65, 0
3, 78720, Note_on_c, 5, 57, 98
3, 78768, Note_on_c, 5, 57, 0
3, 78768, Note_on_c, 5, 65, 98
3, 78816, Note_on_c, 5, 65, 0
3, 78816, Note_on_c, 5, 60, 98
3, 78864, Note_on_c, 5, 60, 0
3, 78864, Note_on_c, 5, 65, 98
3, 78912, Note_on_c, 5, 65, 0
3, 78912, Note_on_c, 5, 62, 98
3, 78960, Note_on_c, 5, 62, 0
3, 78960, Note_on_c, 5, 65, 98
3, 79008, Note_on_c, 5, 65, 0
3, 79008, Note_on_c, 5, 63, 98
3, 79056, Note_on_c, 5, 63, 0
3, 79056, Note_on_c, 5, 65, 98
3, 79104, Note_on_c, 5, 65, 0
3, 79104, Note_on_c, 5, 62, 98
3, 79424, Note_on_c, 5, 62, 0
3, 79680, Note_on_c, 5, 50, 98
3, 79680, Note_on_c, 5, 53, 98
3, 79680, Note_on_c, 5, 56, 98
3, 79868, Note_on_c, 5, 56, 0
3, 79868, Note_on_c, 5, 53, 0
3, 79868, Note_on_c, 5, 50, 0
3, 79872, Note_on_c, 5, 51, 98
3, 79872, Note_on_c, 5, 55, 98
3, 80060, Note_on_c, 5, 55, 0
3, 80060, Note_on_c, 5, 51, 0
3, 80256, Note_on_c, 5, 55, 98
3, 80256, Note_on_c, 5, 58, 98
3, 80256, Note_on_c, 5, 60, 98
3, 80444, Note_on_c, 5, 60, 0
3, 80444, Note_on_c, 5, 58, 0
3, 80444, Note_on_c, 5, 55, 0
3, 80640, Note_on_c, 5, 53, 98
3, 80640, Note_on_c, 5, 58, 98
3, 80640, Note_on_c, 5, 62, 98
3, 80828, Note_on_c, 5, 62, 0
3, 80828, Note_on_c, 5, 58, 0
3, 80828, Note_on_c, 5, 53, 0
3, 80832, Note_on_c, 5, 53, 98
3, 81020, Note_on_c, 5, 53, 0
3, 81024, Note_on_c, 5, 41, 98
3, 81212, Note_on_c, 5, 41, 0
3, 81216, Note_on_c, 5, 53, 98
3, 81404, Note_on_c, 5, 53, 0
3, 81408, Note_on_c, 5, 46, 98
3, 81596, Note_on_c, 5, 46, 0
3, 86976, Note_on_c, 5, 53, 98
3, 87164, Note_on_c, 5, 53, 0
3, 87168, Note_on_c, 5, 53, 98
3, 87356, Note_on_c, 5, 53, 0
3, 87744, Note_on_c, 5, 53, 98
3, 87932, Note_on_c, 5, 53, 0
3, 87936, Note_on_c, 5, 53, 98
3, 88124, Note_on_c, 5, 53, 0
3, 89280, Note_on_c, 5, 55, 98
3, 89520, Note_on_c, 5, 55, 0
3, 89520, Note_on_c, 5, 57, 98
3, 89568, Note_on_c, 5, 57, 0
3, 89568, Note_on_c, 5, 59, 98
3, 89616, Note_on_c, 5, 59, 0
3, 89616, Note_on_c, 5, 60, 98
3, 89664, Note_on_c, 5, 60, 0
3, 89664, Note_on_c, 5, 62, 98
3, 89712, Note_on_c, 5, 62, 0
3, 89712, Note_on_c, 5, 63, 98
3, 89760, Note_on_c, 5, 63, 0
3, 89760, Note_on_c, 5, 65, 98
3, 89808, Note_on_c, 5, 65, 0
3, 89808, Note_on_c, 5, 67, 98
3, 89852, Note_on_c, 5, 67, 0
3, 89856, Note_on_c, 5, 61, 98
3, 90240, Note_on_c, 5, 61, 0
3, 90240, Note_on_c, 5, 60, 98
3, 90560, Note_on_c, 5, 60, 0
3, 90624, Note_on_c, 5, 54, 98
3, 91008, Note_on_c, 5, 54, 0
3, 91008, Note_on_c, 5, 55, 98
3, 91196, Note_on_c, 5, 55, 0
3, 91392, Note_on_c, 5, 51, 98
3, 91580, Note_on_c, 5, 51, 0
3, 91776, Note_on_c, 5, 53, 98
3, 91964, Note_on_c, 5, 53, 0
3, 92160, Note_on_c, 5, 58, 98
3, 92252, Note_on_c, 5, 58, 0
3, 92256, Note_on_c, 5, 62, 98
3, 92348, Note_on_c, 5, 62, 0
3, 92352, Note_on_c, 5, 65, 98
3, 92444, Note_on_c, 5, 65, 0
3, 92448, Note_on_c, 5, 62, 98
3, 92540, Note_on_c, 5, 62, 0
3, 92544, Note_on_c, 5, 58, 98
3, 92636, Note_on_c, 5, 58, 0
3, 92640, Note_on_c, 5, 62, 98
3, 92732, Note_on_c, 5, 62, 0
3, 92736, Note_on_c, 5, 65, 98
3, 92828, Note_on_c, 5, 65, 0
3, 92832, Note_on_c, 5, 62, 98
3, 92924, Note_on_c, 5, 62, 0
3, 92928, Note_on_c, 5, 58, 98
3, 93020, Note_on_c, 5, 58, 0
3, 93024, Note_on_c, 5, 63, 98
3, 93116, Note_on_c, 5, 63, 0
3, 93120, Note_on_c, 5, 67, 98
3, 93212, Note_on_c, 5, 67, 0
3, 93216, Note_on_c, 5, 63, 98
3, 93308, Note_on_c, 5, 63, 0
3, 93312, Note_on_c, 5, 58, 98
3, 93404, Note_on_c, 5, 58, 0
3, 93408, Note_on_c, 5, 63, 98
3, 93500, Note_on_c, 5, 63, 0
3, 93504, Note_on_c, 5, 67, 98
3, 93596, Note_on_c, 5, 67, 0
3, 93600, Note_on_c, 5, 63, 98
3, 93692, Note_on_c, 5, 63, 0
3, 93696, Note_on_c, 5, 58, 98
3, 93788, Note_on_c, 5, 58, 0
3, 93792, Note_on_c, 5, 60, 98
3, 93884, Note_on_c, 5, 60, 0
3, 93888, Note_on_c, 5, 63, 98
3, 93980, Note_on_c, 5, 63, 0
3, 93984, Note_on_c, 5, 60, 98
3, 94076, Note_on_c, 5, 60, 0
3, 94080, Note_on_c, 5, 58, 98
3, 94172, Note_on_c, 5, 58, 0
3, 94176, Note_on_c, 5, 60, 98
3, 94268, Note_on_c, 5, 60, 0
3, 94272, Note_on_c, 5, 63, 98
3, 94364, Note_on_c, 5, 63, 0
3, 94368, Note_on_c, 5, 60, 98
3, 94460, Note_on_c, 5, 60, 0
3, 94464, Note_on_c, 5, 58, 98
3, 94556, Note_on_c, 5, 58, 0
3, 94560, Note_on_c, 5, 62, 98
3, 94652, Note_on_c, 5, 62, 0
3, 94656, Note_on_c, 5, 65, 98
3, 94748, Note_on_c, 5, 65, 0
3, 94752, Note_on_c, 5, 62, 98
3, 94844, Note_on_c, 5, 62, 0
3, 94848, Note_on_c, 5, 58, 98
3, 94940, Note_on_c, 5, 58, 0
3, 94944, Note_on_c, 5, 62, 98
3, 95036, Note_on_c, 5, 62, 0
3, 95040, Note_on_c, 5, 65, 98
3, 95132, Note_on_c, 5, 65, 0
3, 95136, Note_on_c, 5, 62, 98
3, 95228, Note_on_c, 5, 62, 0
3, 95232, Note_on_c, 5, 58, 98
3, 95324, Note_on_c, 5, 58, 0
3, 95328, Note_on_c, 5, 63, 98
3, 95420, Note_on_c, 5, 63, 0
3, 95424, Note_on_c, 5, 67, 98
3, 95516, Note_on_c, 5, 67, 0
3, 95520, Note_on_c, 5, 63, 98
3, 95612, Note_on_c, 5, 63, 0
3, 95616, Note_on_c, 5, 58, 98
3, 95708, Note_on_c, 5, 58, 0
3, 95712, Note_on_c, 5, 63, 98
3, 95804, Note_on_c, 5, 63, 0
3, 95808, Note_on_c, 5, 67, 98
3, 95900, Note_on_c, 5, 67, 0
3, 95904, Note_on_c, 5, 63, 98
3, 95996, Note_on_c, 5, 63, 0
3, 96000, Note_on_c, 5, 58, 98
3, 96092, Note_on_c, 5, 58, 0
3, 96096, Note_on_c, 5, 60, 98
3, 96188, Note_on_c, 5, 60, 0
3, 96192, Note_on_c, 5, 63, 98
3, 96284, Note_on_c, 5, 63, 0
3, 96288, Note_on_c, 5, 60, 98
3, 96380, Note_on_c, 5, 60, 0
3, 96384, Note_on_c, 5, 58, 98
3, 96476, Note_on_c, 5, 58, 0
3, 96480, Note_on_c, 5, 60, 98
3, 96572, Note_on_c, 5, 60, 0
3, 96576, Note_on_c, 5, 63, 98
3, 96668, Note_on_c, 5, 63, 0
3, 96672, Note_on_c, 5, 60, 98
3, 96764, Note_on_c, 5, 60, 0
3, 96768, Note_on_c, 5, 58, 98
3, 96768, Note_on_c, 5, 62, 98
3, 96956, Note_on_c, 5, 62, 0
3, 96956, Note_on_c, 5, 58, 0
3, 97152, Note_on_c, 5, 53, 98
3, 97340, Note_on_c, 5, 53, 0
3, 97536, Note_on_c, 5, 58, 98
3, 97724, Note_on_c, 5, 58, 0
3, 97920, Note_on_c, 5, 53, 98
3, 98108, Note_on_c, 5, 53, 0
3, 98304, Note_on_c, 5, 58, 98
3, 98492, Note_on_c, 5, 58, 0
3, 98496, Note_on_c, 5, 53, 98
3, 98496, Note_on_c, 5, 57, 98
3, 98496, Note_on_c, 5, 63, 98
3, 98684, Note_on_c, 5, 63, 0
3, 98684, Note_on_c, 5, 57, 0
3, 98684, Note_on_c, 5, 53, 0
3, 98688, Note_on_c, 5, 58, 98
3, 98688, Note_on_c, 5, 62, 98
3, 98876, Note_on_c, 5, 62, 0
3, 98876, Note_on_c, 5, 58, 0
3, 98880, Note_on_c, 5, 53, 98
3, 98880, Note_on_c, 5, 57, 98
3, 98880, Note_on_c, 5, 63, 98
3, 99068, Note_on_c, 5, 63, 0
3, 99068, Note_on_c, 5, 57, 0
3, 99068, Note_on_c, 5, 53, 0
3, 99072, Note_on_c, 5, 58, 98
3, 99072, Note_on_c, 5, 62, 98
3, 99260, Note_on_c, 5, 62, 0
3, 99260, Note_on_c, 5, 58, 0
3, 100032, Note_on_c, 5, 51, 98
3, 100032, Note_on_c, 5, 58, 98
3, 100220, Note_on_c, 5, 58, 0
3, 100220, Note_on_c, 5, 51, 0
3, 100224, Note_on_c, 5, 51, 98
3, 100224, Note_on_c, 5, 58, 98
3, 100412, Note_on_c, 5, 58, 0
3, 100412, Note_on_c, 5, 51, 0
3, 100416, Note_on_c, 5, 51, 98
3, 100416, Note_on_c, 5, 58, 98
3, 100604, Note_on_c, 5, 58, 0
3, 100604, Note_on_c, 5, 51, 0
3, 100800, Note_on_c, 5, 56, 98
3, 100800, Note_on_c, 5, 62, 98
3, 100988, Note_on_c, 5, 62, 0
3, 100988, Note_on_c, 5, 56, 0
3, 100992, Note_on_c, 5, 56, 98
3, 100992, Note_on_c, 5, 62, 98
3, 101180, Note_on_c, 5, 62, 0
3, 101180, Note_on_c, 5, 56, 0
3, 101184, Note_on_c, 5, 56, 98
3, 101184, Note_on_c, 5, 62, 98
3, 101372, Note_on_c, 5, 62, 0
3, 101372, Note_on_c, 5, 56, 0
3, 101568, Note_on_c, 5, 55, 98
3, 101568, Note_on_c, 5, 58, 98
3, 101756, Note_on_c, 5, 58, 0
3, 101756, Note_on_c, 5, 55, 0
3, 101760, Note_on_c, 5, 55, 98
3, 101760, Note_on_c, 5, 58, 98
3, 101948, Note_on_c, 5, 58, 0
3, 101948, Note_on_c, 5, 55, 0
3, 101952, Note_on_c, 5, 56, 98
3, 102140, Note_on_c, 5, 56, 0
3, 102144, Note_on_c, 5, 58, 98
3, 102464, Note_on_c, 5, 58, 0
3, 102528, Note_on_c, 5, 46, 98
3, 102716, Note_on_c, 5, 46, 0
3, 102912, Note_on_c, 5, 39, 98
3, 102912, Note_on_c, 5, 51, 98
3, 103232, Note_on_c, 5, 51, 0
3, 103232, Note_on_c, 5, 39, 0
3, 103296, Note_on_c, 5, 34, 98
3, 103296, Note_on_c, 5, 46, 98
3, 103616, Note_on_c, 5, 46, 0
3, 103616, Note_on_c, 5, 34, 0
3, 103680, Note_on_c, 5, 39, 98
3, 103868, Note_on_c, 5, 39, 0
3, 103872, Note_on_c, 5, 51, 98
3, 104060, Note_on_c, 5, 51, 0
3, 104064, Note_on_c, 5, 48, 98
3, 104252, Note_on_c, 5, 48, 0
3, 104256, Note_on_c, 5, 44, 98
3, 104444, Note_on_c, 5, 44, 0
3, 104448, Note_on_c, 5, 43, 98
3, 104636, Note_on_c, 5, 43, 0
3, 104640, Note_on_c, 5, 39, 98
3, 104828, Note_on_c, 5, 39, 0
3, 104832, Note_on_c, 5, 44, 98
3, 105020, Note_on_c, 5, 44, 0
3, 105024, Note_on_c, 5, 41, 98
3, 105212, Note_on_c, 5, 41, 0
3, 105216, Note_on_c, 5, 34, 98
3, 105216, Note_on_c, 5, 46, 98
3, 105728, Note_on_c, 5, 46, 0
3, 105728, Note_on_c, 5, 34, 0
3, 109056, Note_on_c, 5, 43, 98
3, 109056, Note_on_c, 5, 55, 98
3, 109376, Note_on_c, 5, 55, 0
3, 109376, Note_on_c, 5, 43, 0
3, 109440, Note_on_c, 5, 44, 98
3, 109440, Note_on_c, 5, 56, 98
3, 109760, Note_on_c, 5, 56, 0
3, 109760, Note_on_c, 5, 44, 0
3, 109824, Note_on_c, 5, 58, 98
3, 110112, Note_on_c, 5, 58, 0
3, 110112, Note_on_c, 5, 57, 98
3, 110160, Note_on_c, 5, 57, 0
3, 110160, Note_on_c, 5, 58, 98
3, 110208, Note_on_c, 5, 58, 0
3, 110208, Note_on_c, 5, 60, 98
3, 110396, Note_on_c, 5, 60, 0
3, 110400, Note_on_c, 5, 59, 98
3, 110464, Note_on_c, 5, 59, 0
3, 110592, Note_on_c, 5, 58, 98
3, 110780, Note_on_c, 5, 58, 0
3, 110784, Note_on_c, 5, 58, 98
3, 110972, Note_on_c, 5, 58, 0
3, 110976, Note_on_c, 5, 46, 98
3, 111164, Note_on_c, 5, 46, 0
3, 111168, Note_on_c, 5, 46, 98
3, 111356, Note_on_c, 5, 46, 0
3, 111360, Note_on_c, 5, 51, 98
3, 111452, Note_on_c, 5, 51, 0
3, 111456, Note_on_c, 5, 63, 98
3, 111548, Note_on_c, 5, 63, 0
3, 111552, Note_on_c, 5, 51, 98
3, 111644, Note_on_c, 5, 51, 0
3, 111648, Note_on_c, 5, 63, 98
3, 111740, Note_on_c, 5, 63, 0
3, 111744, Note_on_c, 5, 51, 98
3, 111836, Note_on_c, 5, 51, 0
3, 111840, Note_on_c, 5, 63, 98
3, 111932, Note_on_c, 5, 63, 0
3, 111936, Note_on_c, 5, 51, 98
3, 112028, Note_on_c, 5, 51, 0
3, 112032, Note_on_c, 5, 63, 98
3, 112124, Note_on_c, 5, 63, 0
3, 112128, Note_on_c, 5, 51, 98
3, 112220, Note_on_c, 5, 51, 0
3, 112224, Note_on_c, 5, 63, 98
3, 112316, Note_on_c, 5, 63, 0
3, 112320, Note_on_c, 5, 51, 98
3, 112412, Note_on_c, 5, 51, 0
3, 112416, Note_on_c, 5, 63, 98
3, 112508, Note_on_c, 5, 63, 0
3, 112512, Note_on_c, 5, 51, 98
3, 112604, Note_on_c, 5, 51, 0
3, 112608, Note_on_c, 5, 63, 98
3, 112700, Note_on_c, 5, 63, 0
3, 112704, Note_on_c, 5, 51, 98
3, 112796, Note_on_c, 5, 51, 0
3, 112800, Note_on_c, 5, 63, 98
3, 112892, Note_on_c, 5, 63, 0
3, 112896, Note_on_c, 5, 51, 98
3, 112988, Note_on_c, 5, 51, 0
3, 112992, Note_on_c, 5, 63, 98
3, 113084, Note_on_c, 5, 63, 0
3, 113088, Note_on_c, 5, 51, 98
3, 113180, Note_on_c, 5, 51, 0
3, 113184, Note_on_c, 5, 63, 98
3, 113276, Note_on_c, 5, 63, 0
3, 113280, Note_on_c, 5, 51, 98
3, 113372, Note_on_c, 5, 51, 0
3, 113376, Note_on_c, 5, 63, 98
3, 113468, Note_on_c, 5, 63, 0
3, 113472, Note_on_c, 5, 51, 98
3, 113564, Note_on_c, 5, 51, 0
3, 113568, Note_on_c, 5, 63, 98
3, 113660, Note_on_c, 5, 63, 0
3, 113664, Note_on_c, 5, 39, 98
3, 113756, Note_on_c, 5, 39, 0
3, 113760, Note_on_c, 5, 51, 98
3, 113852, Note_on_c, 5, 51, 0
3, 113856, Note_on_c, 5, 39, 98
3, 113948, Note_on_c, 5, 39, 0
3, 113952, Note_on_c, 5, 51, 98
3, 114044, Note_on_c, 5, 51, 0
3, 114048, Note_on_c, 5, 39, 98
3, 114140, Note_on_c, 5, 39, 0
3, 114144, Note_on_c, 5, 51, 98
3, 114236, Note_on_c, 5, 51, 0
3, 114240, Note_on_c, 5, 39, 98
3, 114332, Note_on_c, 5, 39, 0
3, 114336, Note_on_c, 5, 51, 98
3, 114428, Note_on_c, 5, 51, 0
3, 114432, Note_on_c, 5, 39, 98
3, 114524, Note_on_c, 5, 39, 0
3, 114528, Note_on_c, 5, 51, 98
3, 114620, Note_on_c, 5, 51, 0
3, 114624, Note_on_c, 5, 39, 98
3, 114716, Note_on_c, 5, 39, 0
3, 114720, Note_on_c, 5, 51, 98
3, 114812, Note_on_c, 5, 51, 0
3, 114816, Note_on_c, 5, 39, 98
3, 114908, Note_on_c, 5, 39, 0
3, 114912, Note_on_c, 5, 51, 98
3, 115004, Note_on_c, 5, 51, 0
3, 115008, Note_on_c, 5, 39, 98
3, 115100, Note_on_c, 5, 39, 0
3, 115104, Note_on_c, 5, 51, 98
3, 115196, Note_on_c, 5, 51, 0
3, 115200, Note_on_c, 5, 39, 98
3, 115292, Note_on_c, 5, 39, 0
3, 115296, Note_on_c, 5, 51, 98
3, 115388, Note_on_c, 5, 51, 0
3, 115392, Note_on_c, 5, 39, 98
3, 115484, Note_on_c, 5, 39, 0
3, 115488, Note_on_c, 5, 51, 98
3, 115580, Note_on_c, 5, 51, 0
3, 115584, Note_on_c, 5, 39, 98
3, 115676, Note_on_c, 5, 39, 0
3, 115680, Note_on_c, 5, 51, 98
3, 115772, Note_on_c, 5, 51, 0
3, 115776, Note_on_c, 5, 39, 98
3, 115868, Note_on_c, 5, 39, 0
3, 115872, Note_on_c, 5, 51, 98
3, 115964, Note_on_c, 5, 51, 0
3, 115968, Note_on_c, 5, 39, 98
3, 116156, Note_on_c, 5, 39, 0
3, 116160, Note_on_c, 5, 50, 98
3, 116348, Note_on_c, 5, 50, 0
3, 116352, Note_on_c, 5, 51, 98
3, 116540, Note_on_c, 5, 51, 0
3, 116544, Note_on_c, 5, 46, 98
3, 116732, Note_on_c, 5, 46, 0
3, 116736, Note_on_c, 5, 39, 98
3, 116924, Note_on_c, 5, 39, 0
3, 116928, Note_on_c, 5, 50, 98
3, 117116, Note_on_c, 5, 50, 0
3, 117120, Note_on_c, 5, 51, 98
3, 117308, Note_on_c, 5, 51, 0
3, 117312, Note_on_c, 5, 46, 98
3, 117500, Note_on_c, 5, 46, 0
3, 117504, Note_on_c, 5, 39, 98
3, 117504, Note_on_c, 5, 51, 98
3, 117788, Note_on_c, 5, 51, 0
3, 117788, Note_on_c, 5, 39, 0
3, 117792, Note_on_c, 5, 50, 98
3, 117884, Note_on_c, 5, 50, 0
3, 117888, Note_on_c, 5, 36, 98
3, 117888, Note_on_c, 5, 48, 98
3, 118172, Note_on_c, 5, 48, 0
3, 118172, Note_on_c, 5, 36, 0
3, 118176, Note_on_c, 5, 46, 98
3, 118268, Note_on_c, 5, 46, 0
3, 118272, Note_on_c, 5, 32, 98
3, 118272, Note_on_c, 5, 44, 98
3, 118556, Note_on_c, 5, 44, 0
3, 118556, Note_on_c, 5, 32, 0
3, 118560, Note_on_c, 5, 43, 98
3, 118652, Note_on_c, 5, 43, 0
3, 118656, Note_on_c, 5, 41, 98
3, 118940, Note_on_c, 5, 41, 0
3, 118944, Note_on_c, 5, 39, 98
3, 119036, Note_on_c, 5, 39, 0
3, 119040, Note_on_c, 5, 38, 98
3, 119228, Note_on_c, 5, 38, 0
3, 119232, Note_on_c, 5, 50, 98
3, 119424, Note_on_c, 5, 50, 0
3, 119424, Note_on_c, 5, 51, 98
3, 119616, Note_on_c, 5, 51, 0
3, 119616, Note_on_c, 5, 45, 98
3, 119804, Note_on_c, 5, 45, 0
3, 119808, Note_on_c, 5, 46, 98
3, 120128, Note_on_c, 5, 46, 0
3, 120576, Note_on_c, 5, 34, 98
3, 120576, Note_on_c, 5, 46, 98
3, 120896, Note_on_c, 5, 46, 0
3, 120896, Note_on_c, 5, 34, 0
3, 121344, Note_on_c, 5, 34, 98
3, 121344, Note_on_c, 5, 46, 98
3, 121664, Note_on_c, 5, 46, 0
3, 121664, Note_on_c, 5, 34, 0
3, 122112, Note_on_c, 5, 34, 98
3, 122112, Note_on_c, 5, 46, 98
3, 122432, Note_on_c, 5, 46, 0
3, 122432, Note_on_c, 5, 34, 0
3, 122880, Note_on_c, 5, 34, 98
3, 122880, Note_on_c, 5, 46, 98
3, 123068, Note_on_c, 5, 46, 0
3, 123068, Note_on_c, 5, 34, 0
3, 123168, Note_on_c, 5, 46, 98
3, 123264, Note_on_c, 5, 46, 0
3, 123264, Note_on_c, 5, 45, 98
3, 123360, Note_on_c, 5, 45, 0
3, 123360, Note_on_c, 5, 46, 98
3, 123456, Note_on_c, 5, 46, 0
3, 123456, Note_on_c, 5, 48, 98
3, 123552, Note_on_c, 5, 48, 0
3, 123552, Note_on_c, 5, 50, 98
3, 123648, Note_on_c, 5, 50, 0
3, 123648, Note_on_c, 5, 51, 98
3, 123744, Note_on_c, 5, 51, 0
3, 123744, Note_on_c, 5, 53, 98
3, 123840, Note_on_c, 5, 53, 0
3, 123840, Note_on_c, 5, 55, 98
3, 123936, Note_on_c, 5, 55, 0
3, 123936, Note_on_c, 5, 53, 98
3, 124032, Note_on_c, 5, 53, 0
3, 124032, Note_on_c, 5, 52, 98
3, 124128, Note_on_c, 5, 52, 0
3, 124128, Note_on_c, 5, 48, 98
3, 124224, Note_on_c, 5, 48, 0
3, 124224, Note_on_c, 5, 50, 98
3, 124320, Note_on_c, 5, 50, 0
3, 124320, Note_on_c, 5, 52, 98
3, 124416, Note_on_c, 5, 52, 0
3, 124416, Note_on_c, 5, 41, 98
3, 124416, Note_on_c, 5, 53, 98
3, 124736, Note_on_c, 5, 53, 0
3, 124736, Note_on_c, 5, 41, 0
3, 126720, Note_on_c, 5, 57, 98
3, 126908, Note_on_c, 5, 57, 0
3, 127104, Note_on_c, 5, 58, 98
3, 127292, Note_on_c, 5, 58, 0
3, 127488, Note_on_c, 5, 53, 98
3, 127808, Note_on_c, 5, 53, 0
3, 128256, Note_on_c, 5, 41, 98
3, 128256, Note_on_c, 5, 53, 98
3, 129344, Note_on_c, 5, 53, 0
3, 129344, Note_on_c, 5, 41, 0
3, 130560, Note_on_c, 5, 53, 98
3, 130604, Note_on_c, 5, 53, 0
3, 130896, Note_on_c, 5, 65, 98
3, 130940, Note_on_c, 5, 65, 0
3, 130944, Note_on_c, 5, 53, 98
3, 130988, Note_on_c, 5, 53, 0
3, 131280, Note_on_c, 5, 65, 98
3, 131324, Note_on_c, 5, 65, 0
3, 131328, Note_on_c, 5, 53, 98
3, 131372, Note_on_c, 5, 53, 0
3, 131664, Note_on_c, 5, 65, 98
3, 131708, Note_on_c, 5, 65, 0
3, 131712, Note_on_c, 5, 53, 98
3, 131756, Note_on_c, 5, 53, 0
3, 132048, Note_on_c, 5, 65, 98
3, 132092, Note_on_c, 5, 65, 0
3, 132096, Note_on_c, 5, 53, 98
3, 132140, Note_on_c, 5, 53, 0
3, 132288, Note_on_c, 5, 65, 98
3, 132332, Note_on_c, 5, 65, 0
3, 132480, Note_on_c, 5, 53, 98
3, 132524, Note_on_c, 5, 53, 0
3, 132672, Note_on_c, 5, 65, 98
3, 132716, Note_on_c, 5, 65, 0
3, 132864, Note_on_c, 5, 53, 98
3, 133184, Note_on_c, 5, 53, 0
3, 133632, Note_on_c, 5, 58, 98
3, 133728, Note_on_c, 5, 58, 0
3, 133728, Note_on_c, 5, 62, 98
3, 133824, Note_on_c, 5, 62, 0
3, 133824, Note_on_c, 5, 65, 98
3, 133920, Note_on_c, 5, 65, 0
3, 133920, Note_on_c, 5, 62, 98
3, 134016, Note_on_c, 5, 62, 0
3, 134016, Note_on_c, 5, 58, 98
3, 134112, Note_on_c, 5, 58, 0
3, 134112, Note_on_c, 5, 62, 98
3, 134208, Note_on_c, 5, 62, 0
3, 134208, Note_on_c, 5, 65, 98
3, 134304, Note_on_c, 5, 65, 0
3, 134304, Note_on_c, 5, 62, 98
3, 134400, Note_on_c, 5, 62, 0
3, 134400, Note_on_c, 5, 58, 98
3, 134496, Note_on_c, 5, 58, 0
3, 134496, Note_on_c, 5, 60, 98
3, 134592, Note_on_c, 5, 60, 0
3, 134592, Note_on_c, 5, 63, 98
3, 134688, Note_on_c, 5, 63, 0
3, 134688, Note_on_c, 5, 60, 98
3, 134784, Note_on_c, 5, 60, 0
3, 134784, Note_on_c, 5, 58, 98
3, 134880, Note_on_c, 5, 58, 0
3, 134880, Note_on_c, 5, 60, 98
3, 134976, Note_on_c, 5, 60, 0
3, 134976, Note_on_c, 5, 63, 98
3, 135072, Note_on_c, 5, 63, 0
3, 135072, Note_on_c, 5, 60, 98
3, 135164, Note_on_c, 5, 60, 0
3, 135168, Note_on_c, 5, 46, 98
3, 135360, Note_on_c, 5, 46, 0
3, 135360, Note_on_c, 5, 58, 98
3, 135552, Note_on_c, 5, 58, 0
3, 135552, Note_on_c, 5, 46, 98
3, 135744, Note_on_c, 5, 46, 0
3, 135744, Note_on_c, 5, 58, 98
3, 135936, Note_on_c, 5, 58, 0
3, 135936, Note_on_c, 5, 46, 98
3, 136128, Note_on_c, 5, 46, 0
3, 136128, Note_on_c, 5, 58, 98
3, 136320, Note_on_c, 5, 58, 0
3, 136320, Note_on_c, 5, 46, 98
3, 136512, Note_on_c, 5, 46, 0
3, 136512, Note_on_c, 5, 58, 98
3, 136700, Note_on_c, 5, 58, 0
3, 137088, Note_on_c, 5, 62, 98
3, 137088, Note_on_c, 5, 70, 98
3, 137472, Note_on_c, 5, 70, 0
3, 137472, Note_on_c, 5, 62, 0
3, 137472, Note_on_c, 5, 63, 98
3, 137472, Note_on_c, 5, 70, 98
3, 137660, Note_on_c, 5, 70, 0
3, 137660, Note_on_c, 5, 63, 0
3, 137856, Note_on_c, 5, 57, 98
3, 137856, Note_on_c, 5, 65, 98
3, 138240, Note_on_c, 5, 65, 0
3, 138240, Note_on_c, 5, 57, 0
3, 138240, Note_on_c, 5, 58, 98
3, 138240, Note_on_c, 5, 65, 98
3, 138428, Note_on_c, 5, 65, 0
3, 138428, Note_on_c, 5, 58, 0
3, 138432, Note_on_c, 5, 62, 98
3, 138620, Note_on_c, 5, 62, 0
3, 138624, Note_on_c, 5, 63, 98
3, 138812, Note_on_c, 5, 63, 0
3, 138816, Note_on_c, 5, 51, 98
3, 138816, Note_on_c, 5, 60, 98
3, 139004, Note_on_c, 5, 60, 0
3, 139004, Note_on_c, 5, 51, 0
3, 139008, Note_on_c, 5, 53, 98
3, 139008, Note_on_c, 5, 58, 98
3, 139392, Note_on_c, 5, 58, 0
3, 139392, Note_on_c, 5, 57, 98
3, 139520, Note_on_c, 5, 53, 0
3, 139580, Note_on_c, 5, 57, 0
3, 141312, Note_on_c, 5, 60, 98
3, 141312, Note_on_c, 5, 63, 98
3, 141408, Note_on_c, 5, 63, 0
3, 141408, Note_on_c, 5, 60, 0
3, 141408, Note_on_c, 5, 59, 98
3, 141408, Note_on_c, 5, 62, 98
3, 141504, Note_on_c, 5, 62, 0
3, 141504, Note_on_c, 5, 59, 0
3, 141504, Note_on_c, 5, 60, 98
3, 141504, Note_on_c, 5, 63, 98
3, 141600, Note_on_c, 5, 63, 0
3, 141600, Note_on_c, 5, 60, 0
3, 141600, Note_on_c, 5, 59, 98
3, 141600, Note_on_c, 5, 62, 98
3, 141696, Note_on_c, 5, 62, 0
3, 141696, Note_on_c, 5, 59, 0
3, 141696, Note_on_c, 5, 60, 98
3, 141696, Note_on_c, 5, 63, 98
3, 141792, Note_on_c, 5, 63, 0
3, 141792, Note_on_c, 5, 60, 0
3, 141792, Note_on_c, 5, 59, 98
3, 141792, Note_on_c, 5, 62, 98
3, 141888, Note_on_c, 5, 62, 0
3, 141888, Note_on_c, 5, 59, 0
3, 141888, Note_on_c, 5, 60, 98
3, 141888, Note_on_c, 5, 63, 98
3, 141984, Note_on_c, 5, 63, 0
3, 141984, Note_on_c, 5, 60, 0
3, 141984, Note_on_c, 5, 61, 98
3, 141984, Note_on_c, 5, 64, 98
3, 142080, Note_on_c, 5, 64, 0
3, 142080, Note_on_c, 5, 61, 0
3, 142080, Note_on_c, 5, 62, 98
3, 142080, Note_on_c, 5, 65, 98
3, 142176, Note_on_c, 5, 65, 0
3, 142176, Note_on_c, 5, 62, 0
3, 142176, Note_on_c, 5, 61, 98
3, 142176, Note_on_c, 5, 64, 98
3, 142272, Note_on_c, 5, 64, 0
3, 142272, Note_on_c, 5, 61, 0
3, 142272, Note_on_c, 5, 62, 98
3, 142272, Note_on_c, 5, 65, 98
3, 142368, Note_on_c, 5, 65, 0
3, 142368, Note_on_c, 5, 62, 0
3, 142368, Note_on_c, 5, 61, 98
3, 142368, Note_on_c, 5, 64, 98
3, 142464, Note_on_c, 5, 64, 0
3, 142464, Note_on_c, 5, 61, 0
3, 142464, Note_on_c, 5, 62, 98
3, 142464, Note_on_c, 5, 65, 98
3, 142652, Note_on_c, 5, 65, 0
3, 142652, Note_on_c, 5, 62, 0
3, 145920, Note_on_c, 5, 63, 98
3, 145968, Note_on_c, 5, 63, 0
3, 145968, Note_on_c, 5, 65, 98
3, 146016, Note_on_c, 5, 65, 0
3, 146016, Note_on_c, 5, 62, 98
3, 146064, Note_on_c, 5, 62, 0
3, 146064, Note_on_c, 5, 65, 98
3, 146112, Note_on_c, 5, 65, 0
3, 146112, Note_on_c, 5, 60, 98
3, 146160, Note_on_c, 5, 60, 0
3, 146160, Note_on_c, 5, 65, 98
3, 146208, Note_on_c, 5, 65, 0
3, 146208, Note_on_c, 5, 58, 98
3, 146256, Note_on_c, 5, 58, 0
3, 146256, Note_on_c, 5, 65, 98
3, 146304, Note_on_c, 5, 65, 0
3, 146304, Note_on_c, 5, 57, 98
3, 146352, Note_on_c, 5, 57, 0
3, 146352, Note_on_c, 5, 65, 98
3, 146400, Note_on_c, 5, 65, 0
3, 146400, Note_on_c, 5, 60, 98
3, 146448, Note_on_c, 5, 60, 0
3, 146448, Note_on_c, 5, 65, 98
3, 146496, Note_on_c, 5, 65, 0
3, 146496, Note_on_c, 5, 62, 98
3, 146544, Note_on_c, 5, 62, 0
3, 146544, Note_on_c, 5, 65, 98
3, 146592, Note_on_c, 5, 65, 0
3, 146592, Note_on_c, 5, 63, 98
3, 146640, Note_on_c, 5, 63, 0
3, 146640, Note_on_c, 5, 65, 98
3, 146688, Note_on_c, 5, 65, 0
3, 146688, Note_on_c, 5, 62, 98
3, 146876, Note_on_c, 5, 62, 0
3, 147456, Note_on_c, 5, 63, 98
3, 147504, Note_on_c, 5, 63, 0
3, 147504, Note_on_c, 5, 65, 98
3, 147552, Note_on_c, 5, 65, 0
3, 147552, Note_on_c, 5, 62, 98
3, 147600, Note_on_c, 5, 62, 0
3, 147600, Note_on_c, 5, 65, 98
3, 147648, Note_on_c, 5, 65, 0
3, 147648, Note_on_c, 5, 60, 98
3, 147696, Note_on_c, 5, 60, 0
3, 147696, Note_on_c, 5, 65, 98
3, 147744, Note_on_c, 5, 65, 0
3, 147744, Note_on_c, 5, 58, 98
3, 147792, Note_on_c, 5, 58, 0
3, 147792, Note_on_c, 5, 65, 98
3, 147840, Note_on_c, 5, 65, 0
3, 147840, Note_on_c, 5, 57, 98
3, 147888, Note_on_c, 5, 57, 0
3, 147888, Note_on_c, 5, 65, 98
3, 147936, Note_on_c, 5, 65, 0
3, 147936, Note_on_c, 5, 60, 98
3, 147984, Note_on_c, 5, 60, 0
3, 147984, Note_on_c, 5, 65, 98
3, 148032, Note_on_c, 5, 65, 0
3, 148032, Note_on_c, 5, 62, 98
3, 148080, Note_on_c, 5, 62, 0
3, 148080, Note_on_c, 5, 65, 98
3, 148128, Note_on_c, 5, 65, 0
3, 148128, Note_on_c, 5, 63, 98
3, 148176, Note_on_c, 5, 63, 0
3, 148176, Note_on_c, 5, 65, 98
3, 148224, Note_on_c, 5, 65, 0
3, 148224, Note_on_c, 5, 62, 98
3, 148544, Note_on_c, 5, 62, 0
3, 148800, Note_on_c, 5, 50, 98
3, 148800, Note_on_c, 5, 53, 98
3, 148800, Note_on_c, 5, 56, 98
3, 148988, Note_on_c, 5, 56, 0
3, 148988, Note_on_c, 5, 53, 0
3, 148988, Note_on_c, 5, 50, 0
3, 148992, Note_on_c, 5, 51, 98
3, 148992, Note_on_c, 5, 55, 98
3, 149180, Note_on_c, 5, 55, 0
3, 149180, Note_on_c, 5, 51, 0
3, 149376, Note_on_c, 5, 55, 98
3, 149376, Note_on_c, 5, 58, 98
3, 149376, Note_on_c, 5, 60, 98
3, 149564, Note_on_c, 5, 60, 0
3, 149564, Note_on_c, 5, 58, 0
3, 149564, Note_on_c, 5, 55, 0
3, 149760, Note_on_c, 5, 53, 98
3, 149760, Note_on_c, 5, 58, 98
3, 149760, Note_on_c, 5, 62, 98
3, 149948, Note_on_c, 5, 62, 0
3, 149948, Note_on_c, 5, 58, 0
3, 149948, Note_on_c, 5, 53, 0
3, 149952, Note_on_c, 5, 53, 98
3, 150140, Note_on_c, 5, 53, 0
3, 150144, Note_on_c, 5, 41, 98
3, 150332, Note_on_c, 5, 41, 0
3, 150336, Note_on_c, 5, 53, 98
3, 150524, Note_on_c, 5, 53, 0
3, 150528, Note_on_c, 5, 46, 98
3, 150716, Note_on_c, 5, 46, 0
3, 156096, Note_on_c, 5, 53, 98
3, 156284, Note_on_c, 5, 53, 0
3, 156288, Note_on_c, 5, 53, 98
3, 156476, Note_on_c, 5, 53, 0
3, 156864, Note_on_c, 5, 53, 98
3, 157052, Note_on_c, 5, 53, 0
3, 157056, Note_on_c, 5, 53, 98
3, 157244, Note_on_c, 5, 53, 0
3, 158400, Note_on_c, 5, 55, 98
3, 158640, Note_on_c, 5, 55, 0
3, 158640, Note_on_c, 5, 57, 98
3, 158688, Note_on_c, 5, 57, 0
3, 158688, Note_on_c, 5, 59, 98
3, 158736, Note_on_c, 5, 59, 0
3, 158736, Note_on_c, 5, 60, 98
3, 158784, Note_on_c, 5, 60, 0
3, 158784, Note_on_c, 5, 62, 98
3, 158832, Note_on_c, 5, 62, 0
3, 158832, Note_on_c, 5, 63, 98
3, 158880, Note_on_c, 5, 63, 0
3, 158880, Note_on_c, 5, 65, 98
3, 158928, Note_on_c, 5, 65, 0
3, 158928, Note_on_c, 5, 67, 98
3, 158972, Note_on_c, 5, 67, 0
3, 158976, Note_on_c, 5, 61, 98
3, 159360, Note_on_c, 5, 61, 0
3, 159360, Note_on_c, 5, 60, 98
3, 159680, Note_on_c, 5, 60, 0
3, 159744, Note_on_c, 5, 54, 98
3, 160128, Note_on_c, 5, 54, 0
3, 160128, Note_on_c, 5, 55, 98
3, 160316, Note_on_c, 5, 55, 0
3, 160512, Note_on_c, 5, 51, 98
3, 160700, Note_on_c, 5, 51, 0
3, 160896, Note_on_c, 5, 53, 98
3, 161084, Note_on_c, 5, 53, 0
3, 161280, Note_on_c, 5, 58, 98
3, 161372, Note_on_c, 5, 58, 0
3, 161376, Note_on_c, 5, 62, 98
3, 161468, Note_on_c, 5, 62, 0
3, 161472, Note_on_c, 5, 65, 98
3, 161564, Note_on_c, 5, 65, 0
3, 161568, Note_on_c, 5, 62, 98
3, 161660, Note_on_c, 5, 62, 0
3, 161664, Note_on_c, 5, 58, 98
3, 161756, Note_on_c, 5, 58, 0
3, 161760, Note_on_c, 5, 62, 98
3, 161852, Note_on_c, 5, 62, 0
3, 161856, Note_on_c, 5, 65, 98
3, 161948, Note_on_c, 5, 65, 0
3, 161952, Note_on_c, 5, 62, 98
3, 162044, Note_on_c, 5, 62, 0
3, 162048, Note_on_c, 5, 58, 98
3, 162140, Note_on_c, 5, 58, 0
3, 162144, Note_on_c, 5, 63, 98
3, 162236, Note_on_c, 5, 63, 0
3, 162240, Note_on_c, 5, 67, 98
3, 162332, Note_on_c, 5, 67, 0
3, 162336, Note_on_c, 5, 63, 98
3, 162428, Note_on_c, 5, 63, 0
3, 162432, Note_on_c, 5, 58, 98
3, 162524, Note_on_c, 5, 58, 0
3, 162528, Note_on_c, 5, 63, 98
3, 162620, Note_on_c, 5, 63, 0
3, 162624, Note_on_c, 5, 67, 98
3, 162716, Note_on_c, 5, 67, 0
3, 162720, Note_on_c, 5, 63, 98
3, 162812, Note_on_c, 5, 63, 0
3, 162816, Note_on_c, 5, 58, 98
3, 162908, Note_on_c, 5, 58, 0
3, 162912, Note_on_c, 5, 60, 98
3, 163004, Note_on_c, 5, 60, 0
3, 163008, Note_on_c, 5, 63, 98
3, 163100, Note_on_c, 5, 63, 0
3, 163104, Note_on_c, 5, 60, 98
3, 163196, Note_on_c, 5, 60, 0
3, 163200, Note_on_c, 5, 58, 98
3, 163292, Note_on_c, 5, 58, 0
3, 163296, Note_on_c, 5, 60, 98
3, 163388, Note_on_c, 5, 60, 0
3, 163392, Note_on_c, 5, 63, 98
3, 163484, Note_on_c, 5, 63, 0
3, 163488, Note_on_c, 5, 60, 98
3, 163580, Note_on_c, 5, 60, 0
3, 163584, Note_on_c, 5, 58, 98
3, 163676, Note_on_c, 5, 58, 0
3, 163680, Note_on_c, 5, 62, 98
3, 163772, Note_on_c, 5, 62, 0
3, 163776, Note_on_c, 5, 65, 98
3, 163868, Note_on_c, 5, 65, 0
3, 163872, Note_on_c, 5, 62, 98
3, 163964, Note_on_c, 5, 62, 0
3, 163968, Note_on_c, 5, 58, 98
3, 164060, Note_on_c, 5, 58, 0
3, 164064, Note_on_c, 5, 62, 98
3, 164156, Note_on_c, 5, 62, 0
3, 164160, Note_on_c, 5, 65, 98
3, 164252, Note_on_c, 5, 65, 0
3, 164256, Note_on_c, 5, 62, 98
3, 164348, Note_on_c, 5, 62, 0
3, 164352, Note_on_c, 5, 58, 98
3, 164444, Note_on_c, 5, 58, 0
3, 164448, Note_on_c, 5, 63, 98
3, 164540, Note_on_c, 5, 63, 0
3, 164544, Note_on_c, 5, 67, 98
3, 164636, Note_on_c, 5, 67, 0
3, 164640, Note_on_c, 5, 63, 98
3, 164732, Note_on_c, 5, 63, 0
3, 164736, Note_on_c, 5, 58, 98
3, 164828, Note_on_c, 5, 58, 0
3, 164832, Note_on_c, 5, 63, 98
3, 164924, Note_on_c, 5, 63, 0
3, 164928, Note_on_c, 5, 67, 98
3, 165020, Note_on_c, 5, 67, 0
3, 165024, Note_on_c, 5, 63, 98
3, 165116, Note_on_c, 5, 63, 0
3, 165120, Note_on_c, 5, 58, 98
3, 165212, Note_on_c, 5, 58, 0
3, 165216, Note_on_c, 5, 60, 98
3, 165308, Note_on_c, 5, 60, 0
3, 165312, Note_on_c, 5, 63, 98
3, 165404, Note_on_c, 5, 63, 0
3, 165408, Note_on_c, 5, 60, 98
3, 165500, Note_on_c, 5, 60, 0
3, 165504, Note_on_c, 5, 58, 98
3, 165596, Note_on_c, 5, 58, 0
3, 165600, Note_on_c, 5, 60, 98
3, 165692, Note_on_c, 5, 60, 0
3, 165696, Note_on_c, 5, 63, 98
3, 165788, Note_on_c, 5, 63, 0
3, 165792, Note_on_c, 5, 60, 98
3, 165884, Note_on_c, 5, 60, 0
3, 165888, Note_on_c, 5, 58, 98
3, 165888, Note_on_c, 5, 62, 98
3, 166076, Note_on_c, 5, 62, 0
3, 166076, Note_on_c, 5, 58, 0
3, 166272, Note_on_c, 5, 53, 98
3, 166460, Note_on_c, 5, 53, 0
3, 166656, Note_on_c, 5, 58, 98
3, 166844, Note_on_c, 5, 58, 0
3, 167040, Note_on_c, 5, 53, 98
3, 167228, Note_on_c, 5, 53, 0
3, 167424, Note_on_c, 5, 58, 98
3, 167612, Note_on_c, 5, 58, 0
3, 167616, Note_on_c, 5, 53, 98
3, 167616, Note_on_c, 5, 57, 98
3, 167616, Note_on_c, 5, 63, 98
3, 167804, Note_on_c, 5, 63, 0
3, 167804, Note_on_c, 5, 57, 0
3, 167804, Note_on_c, 5, 53, 0
3, 167808, Note_on_c, 5, 58, 98
3, 167808, Note_on_c, 5, 62, 98
3, 167996, Note_on_c, 5, 62, 0
3, 167996, Note_on_c, 5, 58, 0
3, 168000, Note_on_c, 5, 53, 98
3, 168000, Note_on_c, 5, 57, 98
3, 168000, Note_on_c, 5, 63, 98
3, 168188, Note_on_c, 5, 63, 0
3, 168188, Note_on_c, 5, 57, 0
3, 168188, Note_on_c, 5, 53, 0
3, 168192, Note_on_c, 5, 58, 98
3, 168192, Note_on_c, 5, 62, 98
3, 168380, Note_on_c, 5, 62, 0
3, 168380, Note_on_c, 5, 58, 0
3, 169152, Note_on_c, 5, 62, 98
3, 169152, Note_on_c, 5, 66, 98
3, 169152, Note_on_c, 5, 72, 98
3, 169340, Note_on_c, 5, 72, 0
3, 169340, Note_on_c, 5, 66, 0
3, 169340, Note_on_c, 5, 62, 0
3, 169344, Note_on_c, 5, 67, 98
3, 169344, Note_on_c, 5, 70, 98
3, 169532, Note_on_c, 5, 70, 0
3, 169532, Note_on_c, 5, 67, 0
3, 169536, Note_on_c, 5, 62, 98
3, 169536, Note_on_c, 5, 66, 98
3, 169536, Note_on_c, 5, 72, 98
3, 169724, Note_on_c, 5, 72, 0
3, 169724, Note_on_c, 5, 66, 0
3, 169724, Note_on_c, 5, 62, 0
3, 169728, Note_on_c, 5, 67, 98
3, 169728, Note_on_c, 5, 70, 98
3, 169916, Note_on_c, 5, 70, 0
3, 169916, Note_on_c, 5, 67, 0
3, 170688, Note_on_c, 5, 58, 98
3, 170688, Note_on_c, 5, 62, 98
3, 170688, Note_on_c, 5, 68, 98
3, 170876, Note_on_c, 5, 68, 0
3, 170876, Note_on_c, 5, 62, 0
3, 170876, Note_on_c, 5, 58, 0
3, 170880, Note_on_c, 5, 63, 98
3, 170880, Note_on_c, 5, 67, 98
3, 171068, Note_on_c, 5, 67, 0
3, 171068, Note_on_c, 5, 63, 0
3, 171072, Note_on_c, 5, 58, 98
3, 171072, Note_on_c, 5, 62, 98
3, 171072, Note_on_c, 5, 68, 98
3, 171260, Note_on_c, 5, 68, 0
3, 171260, Note_on_c, 5, 62, 0
3, 171260, Note_on_c, 5, 58, 0
3, 171264, Note_on_c, 5, 63, 98
3, 171264, Note_on_c, 5, 67, 98
3, 171452, Note_on_c, 5, 67, 0
3, 171452, Note_on_c, 5, 63, 0
3, 172992, Note_on_c, 5, 39, 98
3, 173184, Note_on_c, 5, 39, 0
3, 173184, Note_on_c, 5, 51, 98
3, 173372, Note_on_c, 5, 51, 0
3, 173376, Note_on_c, 5, 51, 98
3, 173440, Note_on_c, 5, 51, 0
3, 173568, Note_on_c, 5, 44, 98
3, 173756, Note_on_c, 5, 44, 0
3, 173760, Note_on_c, 5, 56, 98
3, 173760, Note_on_c, 5, 63, 98
3, 173948, Note_on_c, 5, 63, 0
3, 173948, Note_on_c, 5, 56, 0
3, 173952, Note_on_c, 5, 56, 98
3, 173952, Note_on_c, 5, 63, 98
3, 174140, Note_on_c, 5, 63, 0
3, 174140, Note_on_c, 5, 56, 0
3, 174144, Note_on_c, 5, 56, 98
3, 174144, Note_on_c, 5, 63, 98
3, 174332, Note_on_c, 5, 63, 0
3, 174332, Note_on_c, 5, 56, 0
3, 174528, Note_on_c, 5, 61, 98
3, 174528, Note_on_c, 5, 67, 98
3, 174716, Note_on_c, 5, 67, 0
3, 174716, Note_on_c, 5, 61, 0
3, 174720, Note_on_c, 5, 61, 98
3, 174720, Note_on_c, 5, 67, 98
3, 174908, Note_on_c, 5, 67, 0
3, 174908, Note_on_c, 5, 61, 0
3, 174912, Note_on_c, 5, 61, 98
3, 174912, Note_on_c, 5, 67, 98
3, 175100, Note_on_c, 5, 67, 0
3, 175100, Note_on_c, 5, 61, 0
3, 175296, Note_on_c, 5, 60, 98
3, 175296, Note_on_c, 5, 63, 98
3, 175484, Note_on_c, 5, 63, 0
3, 175484, Note_on_c, 5, 60, 0
3, 175488, Note_on_c, 5, 60, 98
3, 175488, Note_on_c, 5, 63, 98
3, 175676, Note_on_c, 5, 63, 0
3, 175676, Note_on_c, 5, 60, 0
3, 175680, Note_on_c, 5, 61, 98
3, 175868, Note_on_c, 5, 61, 0
3, 175872, Note_on_c, 5, 63, 98
3, 176256, Note_on_c, 5, 63, 0
3, 176256, Note_on_c, 5, 51, 98
3, 176444, Note_on_c, 5, 51, 0
3, 177600, Note_on_c, 5, 58, 98
3, 177600, Note_on_c, 5, 65, 98
3, 177788, Note_on_c, 5, 65, 0
3, 177788, Note_on_c, 5, 58, 0
3, 177792, Note_on_c, 5, 58, 98
3, 177792, Note_on_c, 5, 65, 98
3, 177980, Note_on_c, 5, 65, 0
3, 177980, Note_on_c, 5, 58, 0
3, 177984, Note_on_c, 5, 58, 98
3, 177984, Note_on_c, 5, 65, 98
3, 178172, Note_on_c, 5, 65, 0
3, 178172, Note_on_c, 5, 58, 0
3, 178368, Note_on_c, 5, 63, 98
3, 178368, Note_on_c, 5, 65, 98
3, 178556, Note_on_c, 5, 65, 0
3, 178556, Note_on_c, 5, 63, 0
3, 178560, Note_on_c, 5, 63, 98
3, 178560, Note_on_c, 5, 65, 98
3, 178748, Note_on_c, 5, 65, 0
3, 178748, Note_on_c, 5, 63, 0
3, 178752, Note_on_c, 5, 63, 98
3, 178752, Note_on_c, 5, 65, 98
3, 178940, Note_on_c, 5, 65, 0
3, 178940, Note_on_c, 5, 63, 0
3, 179136, Note_on_c, 5, 61, 98
3, 179136, Note_on_c, 5, 65, 98
3, 179324, Note_on_c, 5, 65, 0
3, 179324, Note_on_c, 5, 61, 0
3, 179328, Note_on_c, 5, 61, 98
3, 179328, Note_on_c, 5, 65, 98
3, 179516, Note_on_c, 5, 65, 0
3, 179516, Note_on_c, 5, 61, 0
3, 179520, Note_on_c, 5, 63, 98
3, 179708, Note_on_c, 5, 63, 0
3, 179712, Note_on_c, 5, 65, 98
3, 180096, Note_on_c, 5, 65, 0
3, 180096, Note_on_c, 5, 53, 98
3, 180284, Note_on_c, 5, 53, 0
3, 181440, Note_on_c, 5, 60, 98
3, 181440, Note_on_c, 5, 67, 98
3, 181628, Note_on_c, 5, 67, 0
3, 181628, Note_on_c, 5, 60, 0
3, 181632, Note_on_c, 5, 60, 98
3, 181632, Note_on_c, 5, 67, 98
3, 181820, Note_on_c, 5, 67, 0
3, 181820, Note_on_c, 5, 60, 0
3, 181824, Note_on_c, 5, 60, 98
3, 181824, Note_on_c, 5, 67, 98
3, 182012, Note_on_c, 5, 67, 0
3, 182012, Note_on_c, 5, 60, 0
3, 182208, Note_on_c, 5, 65, 98
3, 182208, Note_on_c, 5, 67, 98
3, 182396, Note_on_c, 5, 67, 0
3, 182396, Note_on_c, 5, 65, 0
3, 182400, Note_on_c, 5, 65, 98
3, 182400, Note_on_c, 5, 67, 98
3, 182588, Note_on_c, 5, 67, 0
3, 182588, Note_on_c, 5, 65, 0
3, 182592, Note_on_c, 5, 65, 98
3, 182592, Note_on_c, 5, 67, 98
3, 182780, Note_on_c, 5, 67, 0
3, 182780, Note_on_c, 5, 65, 0
3, 182976, Note_on_c, 5, 63, 98
3, 182976, Note_on_c, 5, 67, 98
3, 183164, Note_on_c, 5, 67, 0
3, 183164, Note_on_c, 5, 63, 0
3, 183168, Note_on_c, 5, 63, 98
3, 183168, Note_on_c, 5, 67, 98
3, 183356, Note_on_c, 5, 67, 0
3, 183356, Note_on_c, 5, 63, 0
3, 183360, Note_on_c, 5, 65, 98
3, 183548, Note_on_c, 5, 65, 0
3, 183552, Note_on_c, 5, 67, 98
3, 183936, Note_on_c, 5, 67, 0
3, 183936, Note_on_c, 5, 55, 98
3, 184124, Note_on_c, 5, 55, 0
3, 184512, Note_on_c, 5, 36, 98
3, 184512, Note_on_c, 5, 48, 98
3, 184700, Note_on_c, 5, 48, 0
3, 184700, Note_on_c, 5, 36, 0
3, 184704, Note_on_c, 5, 36, 98
3, 184704, Note_on_c, 5, 48, 98
3, 184892, Note_on_c, 5, 48, 0
3, 184892, Note_on_c, 5, 36, 0
3, 184896, Note_on_c, 5, 36, 98
3, 184896, Note_on_c, 5, 48, 98
3, 185084, Note_on_c, 5, 48, 0
3, 185084, Note_on_c, 5, 36, 0
3, 185280, Note_on_c, 5, 41, 98
3, 185280, Note_on_c, 5, 53, 98
3, 185468, Note_on_c, 5, 53, 0
3, 185468, Note_on_c, 5, 41, 0
3, 185472, Note_on_c, 5, 41, 98
3, 185472, Note_on_c, 5, 53, 98
3, 185660, Note_on_c, 5, 53, 0
3, 185660, Note_on_c, 5, 41, 0
3, 185664, Note_on_c, 5, 41, 98
3, 185664, Note_on_c, 5, 53, 98
3, 185852, Note_on_c, 5, 53, 0
3, 185852, Note_on_c, 5, 41, 0
3, 186048, Note_on_c, 5, 52, 98
3, 186236, Note_on_c, 5, 52, 0
3, 186240, Note_on_c, 5, 52, 98
3, 186428, Note_on_c, 5, 52, 0
3, 186816, Note_on_c, 5, 53, 98
3, 187004, Note_on_c, 5, 53, 0
3, 187008, Note_on_c, 5, 53, 98
3, 187196, Note_on_c, 5, 53, 0
3, 187584, Note_on_c, 5, 51, 98
3, 187772, Note_on_c, 5, 51, 0
3, 187776, Note_on_c, 5, 51, 98
3, 187964, Note_on_c, 5, 51, 0
3, 188352, Note_on_c, 5, 53, 98
3, 188540, Note_on_c, 5, 53, 0
3, 188544, Note_on_c, 5, 53, 98
3, 188732, Note_on_c, 5, 53, 0
3, 189120, Note_on_c, 5, 39, 98
3, 189120, Note_on_c, 5, 51, 98
3, 189308, Note_on_c, 5, 51, 0
3, 189308, Note_on_c, 5, 39, 0
3, 189312, Note_on_c, 5, 39, 98
3, 189312, Note_on_c, 5, 51, 98
3, 189500, Note_on_c, 5, 51, 0
3, 189500, Note_on_c, 5, 39, 0
3, 189888, Note_on_c, 5, 39, 98
3, 189888, Note_on_c, 5, 51, 98
3, 190076, Note_on_c, 5, 51, 0
3, 190076, Note_on_c, 5, 39, 0
3, 190080, Note_on_c, 5, 39, 98
3, 190080, Note_on_c, 5, 51, 98
3, 190268, Note_on_c, 5, 51, 0
3, 190268, Note_on_c, 5, 39, 0
3, 190656, Note_on_c, 5, 38, 98
3, 190656, Note_on_c, 5, 50, 98
3, 190844, Note_on_c, 5, 50, 0
3, 190844, Note_on_c, 5, 38, 0
3, 190848, Note_on_c, 5, 38, 98
3, 190848, Note_on_c, 5, 50, 98
3, 191036, Note_on_c, 5, 50, 0
3, 191036, Note_on_c, 5, 38, 0
3, 191424, Note_on_c, 5, 37, 98
3, 191424, Note_on_c, 5, 49, 98
3, 191612, Note_on_c, 5, 49, 0
3, 191612, Note_on_c, 5, 37, 0
3, 191616, Note_on_c, 5, 37, 98
3, 191616, Note_on_c, 5, 49, 98
3, 191804, Note_on_c, 5, 49, 0
3, 191804, Note_on_c, 5, 37, 0
3, 193248, Note_on_c, 5, 46, 98
3, 193344, Note_on_c, 5, 46, 0
3, 193344, Note_on_c, 5, 48, 98
3, 193440, Note_on_c, 5, 48, 0
3, 193440, Note_on_c, 5, 50, 98
3, 193532, Note_on_c, 5, 50, 0
3, 193536, Note_on_c, 5, 51, 98
3, 193724, Note_on_c, 5, 51, 0
3, 193728, Note_on_c, 5, 51, 98
3, 193728, Note_on_c, 5, 58, 98
3, 193916, Note_on_c, 5, 58, 0
3, 193916, Note_on_c, 5, 51, 0
3, 193920, Note_on_c, 5, 51, 98
3, 193920, Note_on_c, 5, 58, 98
3, 194108, Note_on_c, 5, 58, 0
3, 194108, Note_on_c, 5, 51, 0
3, 194112, Note_on_c, 5, 51, 98
3, 194112, Note_on_c, 5, 58, 98
3, 194300, Note_on_c, 5, 58, 0
3, 194300, Note_on_c, 5, 51, 0
3, 194496, Note_on_c, 5, 56, 98
3, 194496, Note_on_c, 5, 62, 98
3, 194684, Note_on_c, 5, 62, 0
3, 194684, Note_on_c, 5, 56, 0
3, 194688, Note_on_c, 5, 56, 98
3, 194688, Note_on_c, 5, 62, 98
3, 194876, Note_on_c, 5, 62, 0
3, 194876, Note_on_c, 5, 56, 0
3, 194880, Note_on_c, 5, 56, 98
3, 194880, Note_on_c, 5, 62, 98
3, 195068, Note_on_c, 5, 62, 0
3, 195068, Note_on_c, 5, 56, 0
3, 195264, Note_on_c, 5, 55, 98
3, 195264, Note_on_c, 5, 58, 98
3, 195452, Note_on_c, 5, 58, 0
3, 195452, Note_on_c, 5, 55, 0
3, 195456, Note_on_c, 5, 55, 98
3, 195456, Note_on_c, 5, 58, 98
3, 195644, Note_on_c, 5, 58, 0
3, 195644, Note_on_c, 5, 55, 0
3, 195648, Note_on_c, 5, 56, 98
3, 195836, Note_on_c, 5, 56, 0
3, 195840, Note_on_c, 5, 58, 98
3, 196160, Note_on_c, 5, 58, 0
3, 196224, Note_on_c, 5, 46, 98
3, 196412, Note_on_c, 5, 46, 0
3, 196608, Note_on_c, 5, 39, 98
3, 196608, Note_on_c, 5, 51, 98
3, 196928, Note_on_c, 5, 51, 0
3, 196928, Note_on_c, 5, 39, 0
3, 196992, Note_on_c, 5, 34, 98
3, 196992, Note_on_c, 5, 46, 98
3, 197312, Note_on_c, 5, 46, 0
3, 197312, Note_on_c, 5, 34, 0
3, 197376, Note_on_c, 5, 39, 98
3, 197564, Note_on_c, 5, 39, 0
3, 197568, Note_on_c, 5, 51, 98
3, 197756, Note_on_c, 5, 51, 0
3, 197760, Note_on_c, 5, 48, 98
3, 197948, Note_on_c, 5, 48, 0
3, 197952, Note_on_c, 5, 44, 98
3, 198140, Note_on_c, 5, 44, 0
3, 198144, Note_on_c, 5, 43, 98
3, 198332, Note_on_c, 5, 43, 0
3, 198336, Note_on_c, 5, 39, 98
3, 198524, Note_on_c, 5, 39, 0
3, 198528, Note_on_c, 5, 44, 98
3, 198716, Note_on_c, 5, 44, 0
3, 198720, Note_on_c, 5, 41, 98
3, 198908, Note_on_c, 5, 41, 0
3, 198912, Note_on_c, 5, 34, 98
3, 198912, Note_on_c, 5, 46, 98
3, 199424, Note_on_c, 5, 46, 0
3, 199424, Note_on_c, 5, 34, 0
3, 199872, Note_on_c, 5, 39, 98
3, 199872, Note_on_c, 5, 51, 98
3, 200060, Note_on_c, 5, 51, 0
3, 200060, Note_on_c, 5, 39, 0
3, 200064, Note_on_c, 5, 39, 98
3, 200064, Note_on_c, 5, 51, 98
3, 200252, Note_on_c, 5, 51, 0
3, 200252, Note_on_c, 5, 39, 0
3, 200256, Note_on_c, 5, 39, 98
3, 200256, Note_on_c, 5, 51, 98
3, 200444, Note_on_c, 5, 51, 0
3, 200444, Note_on_c, 5, 39, 0
3, 200640, Note_on_c, 5, 44, 98
3, 200640, Note_on_c, 5, 56, 98
3, 200828, Note_on_c, 5, 56, 0
3, 200828, Note_on_c, 5, 44, 0
3, 200832, Note_on_c, 5, 44, 98
3, 200832, Note_on_c, 5, 56, 98
3, 201020, Note_on_c, 5, 56, 0
3, 201020, Note_on_c, 5, 44, 0
3, 201024, Note_on_c, 5, 44, 98
3, 201024, Note_on_c, 5, 56, 98
3, 201212, Note_on_c, 5, 56, 0
3, 201212, Note_on_c, 5, 44, 0
3, 201408, Note_on_c, 5, 43, 98
3, 201408, Note_on_c, 5, 55, 98
3, 201596, Note_on_c, 5, 55, 0
3, 201596, Note_on_c, 5, 43, 0
3, 201600, Note_on_c, 5, 43, 98
3, 201600, Note_on_c, 5, 55, 98
3, 201788, Note_on_c, 5, 55, 0
3, 201788, Note_on_c, 5, 43, 0
3, 201792, Note_on_c, 5, 41, 98
3, 201792, Note_on_c, 5, 53, 98
3, 201980, Note_on_c, 5, 53, 0
3, 201980, Note_on_c, 5, 41, 0
3, 202176, Note_on_c, 5, 40, 98
3, 202176, Note_on_c, 5, 52, 98
3, 202364, Note_on_c, 5, 52, 0
3, 202364, Note_on_c, 5, 40, 0
3, 202368, Note_on_c, 5, 40, 98
3, 202368, Note_on_c, 5, 52, 98
3, 202556, Note_on_c, 5, 52, 0
3, 202556, Note_on_c, 5, 40, 0
3, 202560, Note_on_c, 5, 40, 98
3, 202560, Note_on_c, 5, 52, 98
3, 202748, Note_on_c, 5, 52, 0
3, 202748, Note_on_c, 5, 40, 0
3, 202944, Note_on_c, 5, 41, 98
3, 202944, Note_on_c, 5, 53, 98
3, 203132, Note_on_c, 5, 53, 0
3, 203132, Note_on_c, 5, 41, 0
3, 203136, Note_on_c, 5, 41, 98
3, 203136, Note_on_c, 5, 53, 98
3, 203324, Note_on_c, 5, 53, 0
3, 203324, Note_on_c, 5, 41, 0
3, 203328, Note_on_c, 5, 41, 98
3, 203328, Note_on_c, 5, 53, 98
3, 203516, Note_on_c, 5, 53, 0
3, 203516, Note_on_c, 5, 41, 0
3, 203712, Note_on_c, 5, 46, 98
3, 203712, Note_on_c, 5, 58, 98
3, 203900, Note_on_c, 5, 58, 0
3, 203900, Note_on_c, 5, 46, 0
3, 203904, Note_on_c, 5, 46, 98
3, 203904, Note_on_c, 5, 58, 98
3, 204092, Note_on_c, 5, 58, 0
3, 204092, Note_on_c, 5, 46, 0
3, 204096, Note_on_c, 5, 46, 98
3, 204096, Note_on_c, 5, 58, 98
3, 204284, Note_on_c, 5, 58, 0
3, 204284, Note_on_c, 5, 46, 0
3, 204480, Note_on_c, 5, 45, 98
3, 204480, Note_on_c, 5, 57, 98
3, 204668, Note_on_c, 5, 57, 0
3, 204668, Note_on_c, 5, 45, 0
3, 204672, Note_on_c, 5, 45, 98
3, 204672, Note_on_c, 5, 57, 98
3, 204860, Note_on_c, 5, 57, 0
3, 204860, Note_on_c, 5, 45, 0
3, 204864, Note_on_c, 5, 43, 98
3, 204864, Note_on_c, 5, 55, 98
3, 205052, Note_on_c, 5, 55, 0
3, 205052, Note_on_c, 5, 43, 0
3, 205248, Note_on_c, 5, 42, 98
3, 205248, Note_on_c, 5, 54, 98
3, 205436, Note_on_c, 5, 54, 0
3, 205436, Note_on_c, 5, 42, 0
3, 205440, Note_on_c, 5, 42, 98
3, 205440, Note_on_c, 5, 54, 98
3, 205628, Note_on_c, 5, 54, 0
3, 205628, Note_on_c, 5, 42, 0
3, 205632, Note_on_c, 5, 42, 98
3, 205632, Note_on_c, 5, 54, 98
3, 205820, Note_on_c, 5, 54, 0
3, 205820, Note_on_c, 5, 42, 0
3, 206016, Note_on_c, 5, 55, 98
3, 206208, Note_on_c, 5, 55, 0
3, 206208, Note_on_c, 5, 52, 98
3, 206400, Note_on_c, 5, 52, 0
3, 206400, Note_on_c, 5, 48, 98
3, 206588, Note_on_c, 5, 48, 0
3, 206784, Note_on_c, 5, 53, 98
3, 206976, Note_on_c, 5, 53, 0
3, 206976, Note_on_c, 5, 50, 98
3, 207168, Note_on_c, 5, 50, 0
3, 207168, Note_on_c, 5, 46, 98
3, 207356, Note_on_c, 5, 46, 0
3, 207552, Note_on_c, 5, 51, 98
3, 207740, Note_on_c, 5, 51, 0
3, 207744, Note_on_c, 5, 51, 98
3, 207932, Note_on_c, 5, 51, 0
3, 207936, Note_on_c, 5, 51, 98
3, 208124, Note_on_c, 5, 51, 0
3, 208320, Note_on_c, 5, 48, 98
3, 208508, Note_on_c, 5, 48, 0
3, 208512, Note_on_c, 5, 48, 98
3, 208700, Note_on_c, 5, 48, 0
3, 208704, Note_on_c, 5, 48, 98
3, 208892, Note_on_c, 5, 48, 0
3, 208896, Note_on_c, 5, 46, 98
3, 209216, Note_on_c, 5, 46, 0
3, 209664, Note_on_c, 5, 34, 98
3, 209664, Note_on_c, 5, 46, 98
3, 209984, Note_on_c, 5, 46, 0
3, 209984, Note_on_c, 5, 34, 0
3, 210432, Note_on_c, 5, 34, 98
3, 210432, Note_on_c, 5, 46, 98
3, 210752, Note_on_c, 5, 46, 0
3, 210752, Note_on_c, 5, 34, 0
3, 211200, Note_on_c, 5, 34, 98
3, 211200, Note_on_c, 5, 46, 98
3, 211520, Note_on_c, 5, 46, 0
3, 211520, Note_on_c, 5, 34, 0
3, 211968, Note_on_c, 5, 46, 98
3, 212012, Note_on_c, 5, 46, 0
3, 212304, Note_on_c, 5, 58, 98
3, 212348, Note_on_c, 5, 58, 0
3, 212352, Note_on_c, 5, 46, 98
3, 212396, Note_on_c, 5, 46, 0
3, 212688, Note_on_c, 5, 58, 98
3, 212732, Note_on_c, 5, 58, 0
3, 212736, Note_on_c, 5, 46, 98
3, 212780, Note_on_c, 5, 46, 0
3, 213072, Note_on_c, 5, 58, 98
3, 213116, Note_on_c, 5, 58, 0
3, 213120, Note_on_c, 5, 46, 98
3, 213164, Note_on_c, 5, 46, 0
3, 213456, Note_on_c, 5, 58, 98
3, 213500, Note_on_c, 5, 58, 0
3, 213504, Note_on_c, 5, 46, 98
3, 213548, Note_on_c, 5, 46, 0
3, 213696, Note_on_c, 5, 58, 98
3, 213740, Note_on_c, 5, 58, 0
3, 213888, Note_on_c, 5, 46, 98
3, 213932, Note_on_c, 5, 46, 0
3, 214080, Note_on_c, 5, 58, 98
3, 214124, Note_on_c, 5, 58, 0
3, 214272, Note_on_c, 5, 46, 98
3, 214592, Note_on_c, 5, 46, 0
3, 215040, Note_on_c, 5, 63, 98
3, 215136, Note_on_c, 5, 63, 0
3, 215136, Note_on_c, 5, 67, 98
3, 215232, Note_on_c, 5, 67, 0
3, 215232, Note_on_c, 5, 70, 98
3, 215328, Note_on_c, 5, 70, 0
3, 215328, Note_on_c, 5, 67, 98
3, 215424, Note_on_c, 5, 67, 0
3, 215424, Note_on_c, 5, 63, 98
3, 215520, Note_on_c, 5, 63, 0
3, 215520, Note_on_c, 5, 67, 98
3, 215616, Note_on_c, 5, 67, 0
3, 215616, Note_on_c, 5, 70, 98
3, 215712, Note_on_c, 5, 70, 0
3, 215712, Note_on_c, 5, 67, 98
3, 215808, Note_on_c, 5, 67, 0
3, 215808, Note_on_c, 5, 63, 98
3, 215904, Note_on_c, 5, 63, 0
3, 215904, Note_on_c, 5, 65, 98
3, 216000, Note_on_c, 5, 65, 0
3, 216000, Note_on_c, 5, 68, 98
3, 216096, Note_on_c, 5, 68, 0
3, 216096, Note_on_c, 5, 65, 98
3, 216192, Note_on_c, 5, 65, 0
3, 216192, Note_on_c, 5, 63, 98
3, 216288, Note_on_c, 5, 63, 0
3, 216288, Note_on_c, 5, 65, 98
3, 216384, Note_on_c, 5, 65, 0
3, 216384, Note_on_c, 5, 68, 98
3, 216480, Note_on_c, 5, 68, 0
3, 216480, Note_on_c, 5, 65, 98
3, 216572, Note_on_c, 5, 65, 0
3, 216576, Note_on_c, 5, 51, 98
3, 216768, Note_on_c, 5, 51, 0
3, 216768, Note_on_c, 5, 63, 98
3, 216960, Note_on_c, 5, 63, 0
3, 216960, Note_on_c, 5, 51, 98
3, 217152, Note_on_c, 5, 51, 0
3, 217152, Note_on_c, 5, 63, 98
3, 217344, Note_on_c, 5, 63, 0
3, 217344, Note_on_c, 5, 51, 98
3, 217536, Note_on_c, 5, 51, 0
3, 217536, Note_on_c, 5, 63, 98
3, 217728, Note_on_c, 5, 63, 0
3, 217728, Note_on_c, 5, 51, 98
3, 217920, Note_on_c, 5, 51, 0
3, 217920, Note_on_c, 5, 63, 98
3, 218108, Note_on_c, 5, 63, 0
3, 218496, Note_on_c, 5, 67, 98
3, 218496, Note_on_c, 5, 75, 98
3, 218588, Note_on_c, 5, 75, 0
3, 218588, Note_on_c, 5, 67, 0
3, 218592, Note_on_c, 5, 67, 98
3, 218592, Note_on_c, 5, 75, 98
3, 218684, Note_on_c, 5, 75, 0
3, 218684, Note_on_c, 5, 67, 0
3, 218688, Note_on_c, 5, 67, 98
3, 218688, Note_on_c, 5, 75, 98
3, 218780, Note_on_c, 5, 75, 0
3, 218780, Note_on_c, 5, 67, 0
3, 218784, Note_on_c, 5, 67, 98
3, 218784, Note_on_c, 5, 75, 98
3, 218876, Note_on_c, 5, 75, 0
3, 218876, Note_on_c, 5, 67, 0
3, 218880, Note_on_c, 5, 68, 98
3, 218880, Note_on_c, 5, 75, 98
3, 219068, Note_on_c, 5, 75, 0
3, 219068, Note_on_c, 5, 68, 0
3, 219264, Note_on_c, 5, 62, 98
3, 219264, Note_on_c, 5, 70, 98
3, 219356, Note_on_c, 5, 70, 0
3, 219356, Note_on_c, 5, 62, 0
3, 219360, Note_on_c, 5, 62, 98
3, 219360, Note_on_c, 5, 70, 98
3, 219452, Note_on_c, 5, 70, 0
3, 219452, Note_on_c, 5, 62, 0
3, 219456, Note_on_c, 5, 62, 98
3, 219456, Note_on_c, 5, 70, 98
3, 219548, Note_on_c, 5, 70, 0
3, 219548, Note_on_c, 5, 62, 0
3, 219552, Note_on_c, 5, 62, 98
3, 219552, Note_on_c, 5, 70, 98
3, 219644, Note_on_c, 5, 70, 0
3, 219644, Note_on_c, 5, 62, 0
3, 219648, Note_on_c, 5, 63, 98
3, 219648, Note_on_c, 5, 70, 98
3, 219836, Note_on_c, 5, 70, 0
3, 219836, Note_on_c, 5, 63, 0
3, 219840, Note_on_c, 5, 67, 98
3, 220028, Note_on_c, 5, 67, 0
3, 220032, Note_on_c, 5, 68, 98
3, 220220, Note_on_c, 5, 68, 0
3, 220224, Note_on_c, 5, 56, 98
3, 220224, Note_on_c, 5, 65, 98
3, 220412, Note_on_c, 5, 65, 0
3, 220412, Note_on_c, 5, 56, 0
3, 220416, Note_on_c, 5, 58, 98
3, 220416, Note_on_c, 5, 63, 98
3, 220800, Note_on_c, 5, 63, 0
3, 220800, Note_on_c, 5, 62, 98
3, 220928, Note_on_c, 5, 58, 0
3, 220988, Note_on_c, 5, 62, 0
3, 221184, Note_on_c, 5, 39, 98
3, 221372, Note_on_c, 5, 39, 0
3, 221376, Note_on_c, 5, 51, 98
3, 221564, Note_on_c, 5, 51, 0
3, 221568, Note_on_c, 5, 39, 98
3, 221756, Note_on_c, 5, 39, 0
3, 221760, Note_on_c, 5, 51, 98
3, 221948, Note_on_c, 5, 51, 0
3, 221952, Note_on_c, 5, 39, 98
3, 222140, Note_on_c, 5, 39, 0
3, 222144, Note_on_c, 5, 51, 98
3, 222332, Note_on_c, 5, 51, 0
3, 222336, Note_on_c, 5, 39, 98
3, 222524, Note_on_c, 5, 39, 0
3, 222528, Note_on_c, 5, 51, 98
3, 222716, Note_on_c, 5, 51, 0
3, 222720, Note_on_c, 5, 65, 98
3, 222720, Note_on_c, 5, 68, 98
3, 222816, Note_on_c, 5, 68, 0
3, 222816, Note_on_c, 5, 65, 0
3, 222816, Note_on_c, 5, 64, 98
3, 222816, Note_on_c, 5, 67, 98
3, 222912, Note_on_c, 5, 67, 0
3, 222912, Note_on_c, 5, 64, 0
3, 222912, Note_on_c, 5, 65, 98
3, 222912, Note_on_c, 5, 68, 98
3, 223008, Note_on_c, 5, 68, 0
3, 223008, Note_on_c, 5, 65, 0
3, 223008, Note_on_c, 5, 64, 98
3, 223008, Note_on_c, 5, 67, 98
3, 223104, Note_on_c, 5, 67, 0
3, 223104, Note_on_c, 5, 64, 0
3, 223104, Note_on_c, 5, 65, 98
3, 223104, Note_on_c, 5, 68, 98
3, 223200, Note_on_c, 5, 68, 0
3, 223200, Note_on_c, 5, 65, 0
3, 223200, Note_on_c, 5, 64, 98
3, 223200, Note_on_c, 5, 67, 98
3, 223296, Note_on_c, 5, 67, 0
3, 223296, Note_on_c, 5, 64, 0
3, 223296, Note_on_c, 5, 65, 98
3, 223296, Note_on_c, 5, 68, 98
3, 223392, Note_on_c, 5, 68, 0
3, 223392, Note_on_c, 5, 65, 0
3, 223392, Note_on_c, 5, 66, 98
3, 223392, Note_on_c, 5, 69, 98
3, 223488, Note_on_c, 5, 69, 0
3, 223488, Note_on_c, 5, 66, 0
3, 223488, Note_on_c, 5, 67, 98
3, 223488, Note_on_c, 5, 70, 98
3, 223584, Note_on_c, 5, 70, 0
3, 223584, Note_on_c, 5, 67, 0
3, 223584, Note_on_c, 5, 66, 98
3, 223584, Note_on_c, 5, 69, 98
3, 223680, Note_on_c, 5, 69, 0
3, 223680, Note_on_c, 5, 66, 0
3, 223680, Note_on_c, 5, 67, 98
3, 223680, Note_on_c, 5, 70, 98
3, 223776, Note_on_c, 5, 70, 0
3, 223776, Note_on_c, 5, 67, 0
3, 223776, Note_on_c, 5, 66, 98
3, 223776, Note_on_c, 5, 69, 98
3, 223868, Note_on_c, 5, 69, 0
3, 223868, Note_on_c, 5, 66, 0
3, 223872, Note_on_c, 5, 67, 98
3, 223872, Note_on_c, 5, 70, 98
3, 224060, Note_on_c, 5, 70, 0
3, 224060, Note_on_c, 5, 67, 0
3, 227328, Note_on_c, 5, 56, 98
3, 227376, Note_on_c, 5, 56, 0
3, 227376, Note_on_c, 5, 58, 98
3, 227424, Note_on_c, 5, 58, 0
3, 227424, Note_on_c, 5, 55, 98
3, 227472, Note_on_c, 5, 55, 0
3, 227472, Note_on_c, 5, 58, 98
3, 227520, Note_on_c, 5, 58, 0
3, 227520, Note_on_c, 5, 53, 98
3, 227568, Note_on_c, 5, 53, 0
3, 227568, Note_on_c, 5, 58, 98
3, 227616, Note_on_c, 5, 58, 0
3, 227616, Note_on_c, 5, 51, 98
3, 227664, Note_on_c, 5, 51, 0
3, 227664, Note_on_c, 5, 58, 98
3, 227712, Note_on_c, 5, 58, 0
3, 227712, Note_on_c, 5, 50, 98
3, 227760, Note_on_c, 5, 50, 0
3, 227760, Note_on_c, 5, 58, 98
3, 227808, Note_on_c, 5, 58, 0
3, 227808, Note_on_c, 5, 53, 98
3, 227856, Note_on_c, 5, 53, 0
3, 227856, Note_on_c, 5, 58, 98
3, 227904, Note_on_c, 5, 58, 0
3, 227904, Note_on_c, 5, 55, 98
3, 227952, Note_on_c, 5, 55, 0
3, 227952, Note_on_c, 5, 58, 98
3, 228000, Note_on_c, 5, 58, 0
3, 228000, Note_on_c, 5, 56, 98
3, 228048, Note_on_c, 5, 56, 0
3, 228048, Note_on_c, 5, 58, 98
3, 228096, Note_on_c, 5, 58, 0
3, 228096, Note_on_c, 5, 55, 98
3, 228284, Note_on_c, 5, 55, 0
3, 228864, Note_on_c, 5, 68, 98
3, 228912, Note_on_c, 5, 68, 0
3, 228912, Note_on_c, 5, 70, 98
3, 228960, Note_on_c, 5, 70, 0
3, 228960, Note_on_c, 5, 67, 98
3, 229008, Note_on_c, 5, 67, 0
3, 229008, Note_on_c, 5, 70, 98
3, 229056, Note_on_c, 5, 70, 0
3, 229056, Note_on_c, 5, 65, 98
3, 229104, Note_on_c, 5, 65, 0
3, 229104, Note_on_c, 5, 70, 98
3, 229152, Note_on_c, 5, 70, 0
3, 229152, Note_on_c, 5, 63, 98
3, 229200, Note_on_c, 5, 63, 0
3, 229200, Note_on_c, 5, 70, 98
3, 229248, Note_on_c, 5, 70, 0
3, 229248, Note_on_c, 5, 62, 98
3, 229296, Note_on_c, 5, 62, 0
3, 229296, Note_on_c, 5, 70, 98
3, 229344, Note_on_c, 5, 70, 0
3, 229344, Note_on_c, 5, 65, 98
3, 229392, Note_on_c, 5, 65, 0
3, 229392, Note_on_c, 5, 70, 98
3, 229440, Note_on_c, 5, 70, 0
3, 229440, Note_on_c, 5, 68, 98
3, 229488, Note_on_c, 5, 68, 0
3, 229488, Note_on_c, 5, 70, 98
3, 229536, Note_on_c, 5, 70, 0
3, 229536, Note_on_c, 5, 68, 98
3, 229584, Note_on_c, 5, 68, 0
3, 229584, Note_on_c, 5, 70, 98
3, 229632, Note_on_c, 5, 70, 0
3, 229632, Note_on_c, 5, 67, 98
3, 229820, Note_on_c, 5, 67, 0
3, 230208, Note_on_c, 5, 55, 98
3, 230208, Note_on_c, 5, 58, 98
3, 230208, Note_on_c, 5, 61, 98
3, 230396, Note_on_c, 5, 61, 0
3, 230396, Note_on_c, 5, 58, 0
3, 230396, Note_on_c, 5, 55, 0
3, 230400, Note_on_c, 5, 56, 98
3, 230400, Note_on_c, 5, 60, 98
3, 230720, Note_on_c, 5, 60, 0
3, 230720, Note_on_c, 5, 56, 0
3, 230976, Note_on_c, 5, 60, 98
3, 230976, Note_on_c, 5, 63, 98
3, 230976, Note_on_c, 5, 65, 98
3, 231164, Note_on_c, 5, 65, 0
3, 231164, Note_on_c, 5, 63, 0
3, 231164, Note_on_c, 5, 60, 0
3, 231168, Note_on_c, 5, 58, 98
3, 231168, Note_on_c, 5, 63, 98
3, 231168, Note_on_c, 5, 67, 98
3, 231356, Note_on_c, 5, 67, 0
3, 231356, Note_on_c, 5, 63, 0
3, 231356, Note_on_c, 5, 58, 0
3, 231360, Note_on_c, 5, 58, 98
3, 231548, Note_on_c, 5, 58, 0
3, 231552, Note_on_c, 5, 46, 98
3, 231740, Note_on_c, 5, 46, 0
3, 231744, Note_on_c, 5, 58, 98
3, 231932, Note_on_c, 5, 58, 0
3, 231936, Note_on_c, 5, 51, 98
3, 232256, Note_on_c, 5, 51, 0
3, 232704, Note_on_c, 5, 65, 98
3, 232768, Note_on_c, 5, 65, 0
3, 232768, Note_on_c, 5, 63, 98
3, 232832, Note_on_c, 5, 63, 0
3, 232832, Note_on_c, 5, 62, 98
3, 232896, Note_on_c, 5, 62, 0
3, 232896, Note_on_c, 5, 60, 98
3, 232960, Note_on_c, 5, 60, 0
3, 232960, Note_on_c, 5, 58, 98
3, 233024, Note_on_c, 5, 58, 0
3, 233024, Note_on_c, 5, 56, 98
3, 233088, Note_on_c, 5, 56, 0
3, 233088, Note_on_c, 5, 55, 98
3, 233152, Note_on_c, 5, 55, 0
3, 233152, Note_on_c, 5, 53, 98
3, 233216, Note_on_c, 5, 53, 0
3, 233216, Note_on_c, 5, 51, 98
3, 233280, Note_on_c, 5, 51, 0
3, 233280, Note_on_c, 5, 50, 98
3, 233344, Note_on_c, 5, 50, 0
3, 233344, Note_on_c, 5, 48, 98
3, 233408, Note_on_c, 5, 48, 0
3, 233408, Note_on_c, 5, 46, 98
3, 233472, Note_on_c, 5, 46, 0
3, 233472, Note_on_c, 5, 51, 98
3, 233660, Note_on_c, 5, 51, 0
3, 234240, Note_on_c, 5, 68, 98
3, 234304, Note_on_c, 5, 68, 0
3, 234304, Note_on_c, 5, 67, 98
3, 234368, Note_on_c, 5, 67, 0
3, 234368, Note_on_c, 5, 65, 98
3, 234432, Note_on_c, 5, 65, 0
3, 234432, Note_on_c, 5, 63, 98
3, 234496, Note_on_c, 5, 63, 0
3, 234496, Note_on_c, 5, 62, 98
3, 234560, Note_on_c, 5, 62, 0
3, 234560, Note_on_c, 5, 60, 98
3, 234624, Note_on_c, 5, 60, 0
3, 234624, Note_on_c, 5, 58, 98
3, 234688, Note_on_c, 5, 58, 0
3, 234688, Note_on_c, 5, 56, 98
3, 234752, Note_on_c, 5, 56, 0
3, 234752, Note_on_c, 5, 55, 98
3, 234816, Note_on_c, 5, 55, 0
3, 234816, Note_on_c, 5, 53, 98
3, 234880, Note_on_c, 5, 53, 0
3, 234880, Note_on_c, 5, 51, 98
3, 234944, Note_on_c, 5, 51, 0
3, 234944, Note_on_c, 5, 50, 98
3, 235008, Note_on_c, 5, 50, 0
3, 235008, Note_on_c, 5, 51, 98
3, 235328, Note_on_c, 5, 51, 0
3, 235584, Note_on_c, 5, 43, 98
3, 235584, Note_on_c, 5, 55, 98
3, 235772, Note_on_c, 5, 55, 0
3, 235772, Note_on_c, 5, 43, 0
3, 235776, Note_on_c, 5, 44, 98
3, 235776, Note_on_c, 5, 56, 98
3, 236096, Note_on_c, 5, 56, 0
3, 236096, Note_on_c, 5, 44, 0
3, 236352, Note_on_c, 5, 44, 98
3, 236352, Note_on_c, 5, 56, 98
3, 236540, Note_on_c, 5, 56, 0
3, 236540, Note_on_c, 5, 44, 0
3, 236544, Note_on_c, 5, 46, 98
3, 236544, Note_on_c, 5, 58, 98
3, 236864, Note_on_c, 5, 58, 0
3, 236864, Note_on_c, 5, 46, 0
3, 237120, Note_on_c, 5, 46, 98
3, 237120, Note_on_c, 5, 58, 98
3, 237308, Note_on_c, 5, 58, 0
3, 237308, Note_on_c, 5, 46, 0
3, 237312, Note_on_c, 5, 48, 98
3, 237312, Note_on_c, 5, 60, 98
3, 237632, Note_on_c, 5, 60, 0
3, 237632, Note_on_c, 5, 48, 0
3, 237888, Note_on_c, 5, 48, 98
3, 237888, Note_on_c, 5, 60, 98
3, 238076, Note_on_c, 5, 60, 0
3, 238076, Note_on_c, 5, 48, 0
3, 238080, Note_on_c, 5, 47, 98
3, 238080, Note_on_c, 5, 59, 98
3, 238400, Note_on_c, 5, 59, 0
3, 238400, Note_on_c, 5, 47, 0
3, 238656, Note_on_c, 5, 47, 98
3, 238656, Note_on_c, 5, 59, 98
3, 238844, Note_on_c, 5, 59, 0
3, 238844, Note_on_c, 5, 47, 0
3, 238848, Note_on_c, 5, 46, 98
3, 238848, Note_on_c, 5, 58, 98
3, 239036, Note_on_c, 5, 58, 0
3, 239036, Note_on_c, 5, 46, 0
3, 239040, Note_on_c, 5, 46, 98
3, 239040, Note_on_c, 5, 58, 98
3, 239228, Note_on_c, 5, 58, 0
3, 239228, Note_on_c, 5, 46, 0
3, 239232, Note_on_c, 5, 46, 98
3, 239232, Note_on_c, 5, 58, 98
3, 239420, Note_on_c, 5, 58, 0
3, 239420, Note_on_c, 5, 46, 0
3, 239808, Note_on_c, 5, 46, 98
3, 239996, Note_on_c, 5, 46, 0
3, 240000, Note_on_c, 5, 46, 98
3, 240188, Note_on_c, 5, 46, 0
3, 240576, Note_on_c, 5, 46, 98
3, 240576, Note_on_c, 5, 51, 98
3, 240764, Note_on_c, 5, 51, 0
3, 240764, Note_on_c, 5, 46, 0
3, 240768, Note_on_c, 5, 46, 98
3, 240768, Note_on_c, 5, 51, 98
3, 240956, Note_on_c, 5, 51, 0
3, 240956, Note_on_c, 5, 46, 0
3, 242112, Note_on_c, 5, 53, 98
3, 242352, Note_on_c, 5, 53, 0
3, 242352, Note_on_c, 5, 55, 98
3, 242400, Note_on_c, 5, 55, 0
3, 242400, Note_on_c, 5, 57, 98
3, 242448, Note_on_c, 5, 57, 0
3, 242448, Note_on_c, 5, 58, 98
3, 242496, Note_on_c, 5, 58, 0
3, 242496, Note_on_c, 5, 60, 98
3, 242544, Note_on_c, 5, 60, 0
3, 242544, Note_on_c, 5, 62, 98
3, 242592, Note_on_c, 5, 62, 0
3, 242592, Note_on_c, 5, 64, 98
3, 242640, Note_on_c, 5, 64, 0
3, 242640, Note_on_c, 5, 65, 98
3, 242684, Note_on_c, 5, 65, 0
3, 242688, Note_on_c, 5, 59, 98
3, 243008, Note_on_c, 5, 59, 0
3, 243072, Note_on_c, 5, 47, 98
3, 243392, Note_on_c, 5, 47, 0
3, 243456, Note_on_c, 5, 48, 98
3, 243644, Note_on_c, 5, 48, 0
3, 243840, Note_on_c, 5, 56, 98
3, 244028, Note_on_c, 5, 56, 0
3, 244224, Note_on_c, 5, 58, 98
3, 244412, Note_on_c, 5, 58, 0
3, 244608, Note_on_c, 5, 46, 98
3, 244796, Note_on_c, 5, 46, 0
3, 244992, Note_on_c, 5, 51, 98
3, 245084, Note_on_c, 5, 51, 0
3, 245088, Note_on_c, 5, 55, 98
3, 245180, Note_on_c, 5, 55, 0
3, 245184, Note_on_c, 5, 58, 98
3, 245276, Note_on_c, 5, 58, 0
3, 245280, Note_on_c, 5, 55, 98
3, 245372, Note_on_c, 5, 55, 0
3, 245376, Note_on_c, 5, 51, 98
3, 245468, Note_on_c, 5, 51, 0
3, 245472, Note_on_c, 5, 55, 98
3, 245564, Note_on_c, 5, 55, 0
3, 245568, Note_on_c, 5, 58, 98
3, 245660, Note_on_c, 5, 58, 0
3, 245664, Note_on_c, 5, 55, 98
3, 245756, Note_on_c, 5, 55, 0
3, 245760, Note_on_c, 5, 51, 98
3, 245852, Note_on_c, 5, 51, 0
3, 245856, Note_on_c, 5, 56, 98
3, 245948, Note_on_c, 5, 56, 0
3, 245952, Note_on_c, 5, 60, 98
3, 246044, Note_on_c, 5, 60, 0
3, 246048, Note_on_c, 5, 56, 98
3, 246140, Note_on_c, 5, 56, 0
3, 246144, Note_on_c, 5, 51, 98
3, 246236, Note_on_c, 5, 51, 0
3, 246240, Note_on_c, 5, 56, 98
3, 246332, Note_on_c, 5, 56, 0
3, 246336, Note_on_c, 5, 60, 98
3, 246428, Note_on_c, 5, 60, 0
3, 246432, Note_on_c, 5, 56, 98
3, 246524, Note_on_c, 5, 56, 0
3, 246528, Note_on_c, 5, 51, 98
3, 246620, Note_on_c, 5, 51, 0
3, 246624, Note_on_c, 5, 53, 98
3, 246716, Note_on_c, 5, 53, 0
3, 246720, Note_on_c, 5, 56, 98
3, 246812, Note_on_c, 5, 56, 0
3, 246816, Note_on_c, 5, 53, 98
3, 246908, Note_on_c, 5, 53, 0
3, 246912, Note_on_c, 5, 51, 98
3, 247004, Note_on_c, 5, 51, 0
3, 247008, Note_on_c, 5, 53, 98
3, 247100, Note_on_c, 5, 53, 0
3, 247104, Note_on_c, 5, 56, 98
3, 247196, Note_on_c, 5, 56, 0
3, 247200, Note_on_c, 5, 53, 98
3, 247292, Note_on_c, 5, 53, 0
3, 247296, Note_on_c, 5, 51, 98
3, 247388, Note_on_c, 5, 51, 0
3, 247392, Note_on_c, 5, 55, 98
3, 247484, Note_on_c, 5, 55, 0
3, 247488, Note_on_c, 5, 58, 98
3, 247580, Note_on_c, 5, 58, 0
3, 247584, Note_on_c, 5, 55, 98
3, 247676, Note_on_c, 5, 55, 0
3, 247680, Note_on_c, 5, 51, 98
3, 247772, Note_on_c, 5, 51, 0
3, 247776, Note_on_c, 5, 55, 98
3, 247868, Note_on_c, 5, 55, 0
3, 247872, Note_on_c, 5, 58, 98
3, 247964, Note_on_c, 5, 58, 0
3, 247968, Note_on_c, 5, 55, 98
3, 248060, Note_on_c, 5, 55, 0
3, 248064, Note_on_c, 5, 51, 98
3, 248156, Note_on_c, 5, 51, 0
3, 248160, Note_on_c, 5, 56, 98
3, 248252, Note_on_c, 5, 56, 0
3, 248256, Note_on_c, 5, 60, 98
3, 248348, Note_on_c, 5, 60, 0
3, 248352, Note_on_c, 5, 56, 98
3, 248444, Note_on_c, 5, 56, 0
3, 248448, Note_on_c, 5, 51, 98
3, 248540, Note_on_c, 5, 51, 0
3, 248544, Note_on_c, 5, 56, 98
3, 248636, Note_on_c, 5, 56, 0
3, 248640, Note_on_c, 5, 60, 98
3, 248732, Note_on_c, 5, 60, 0
3, 248736, Note_on_c, 5, 56, 98
3, 248828, Note_on_c, 5, 56, 0
3, 248832, Note_on_c, 5, 51, 98
3, 248924, Note_on_c, 5, 51, 0
3, 248928, Note_on_c, 5, 53, 98
3, 249020, Note_on_c, 5, 53, 0
3, 249024, Note_on_c, 5, 56, 98
3, 249116, Note_on_c, 5, 56, 0
3, 249120, Note_on_c, 5, 53, 98
3, 249212, Note_on_c, 5, 53, 0
3, 249216, Note_on_c, 5, 51, 98
3, 249308, Note_on_c, 5, 51, 0
3, 249312, Note_on_c, 5, 53, 98
3, 249404, Note_on_c, 5, 53, 0
3, 249408, Note_on_c, 5, 56, 98
3, 249500, Note_on_c, 5, 56, 0
3, 249504, Note_on_c, 5, 53, 98
3, 249596, Note_on_c, 5, 53, 0
3, 249600, Note_on_c, 5, 51, 98
3, 249600, Note_on_c, 5, 55, 98
3, 249788, Note_on_c, 5, 55, 0
3, 249788, Note_on_c, 5, 51, 0
3, 249984, Note_on_c, 5, 46, 98
3, 250172, Note_on_c, 5, 46, 0
3, 250368, Note_on_c, 5, 51, 98
3, 250556, Note_on_c, 5, 51, 0
3, 250752, Note_on_c, 5, 46, 98
3, 250940, Note_on_c, 5, 46, 0
3, 251136, Note_on_c, 5, 51, 98
3, 251324, Note_on_c, 5, 51, 0
3, 252864, Note_on_c, 5, 58, 98
3, 252864, Note_on_c, 5, 62, 98
3, 252864, Note_on_c, 5, 68, 98
3, 253052, Note_on_c, 5, 68, 0
3, 253052, Note_on_c, 5, 62, 0
3, 253052, Note_on_c, 5, 58, 0
3, 253056, Note_on_c, 5, 63, 98
3, 253056, Note_on_c, 5, 67, 98
3, 253244, Note_on_c, 5, 67, 0
3, 253244, Note_on_c, 5, 63, 0
3, 253248, Note_on_c, 5, 58, 98
3, 253248, Note_on_c, 5, 62, 98
3, 253248, Note_on_c, 5, 68, 98
3, 253436, Note_on_c, 5, 68, 0
3, 253436, Note_on_c, 5, 62, 0
3, 253436, Note_on_c, 5, 58, 0
3, 253440, Note_on_c, 5, 63, 98
3, 253440, Note_on_c, 5, 67, 98
3, 253628, Note_on_c, 5, 67, 0
3, 253628, Note_on_c, 5, 63, 0
3, 254400, Note_on_c, 5, 58, 98
3, 254400, Note_on_c, 5, 62, 98
3, 254400, Note_on_c, 5, 68, 98
3, 254588, Note_on_c, 5, 68, 0
3, 254588, Note_on_c, 5, 62, 0
3, 254588, Note_on_c, 5, 58, 0
3, 254592, Note_on_c, 5, 63, 98
3, 254592, Note_on_c, 5, 67, 98
3, 254780, Note_on_c, 5, 67, 0
3, 254780, Note_on_c, 5, 63, 0
3, 254784, Note_on_c, 5, 58, 98
3, 254784, Note_on_c, 5, 62, 98
3, 254784, Note_on_c, 5, 68, 98
3, 254972, Note_on_c, 5, 68, 0
3, 254972, Note_on_c, 5, 62, 0
3, 254972, Note_on_c, 5, 58, 0
3, 254976, Note_on_c, 5, 63, 98
3, 254976, Note_on_c, 5, 67, 98
3, 255164, Note_on_c, 5, 67, 0
3, 255164, Note_on_c, 5, 63, 0
3, 255360, Note_on_c, 5, 51, 98
3, 255360, Note_on_c, 5, 63, 98
3, 255680, Note_on_c, 5, 63, 0
3, 255680, Note_on_c, 5, 51, 0
3, 255744, Note_on_c, 5, 39, 98
3, 255744, Note_on_c, 5, 51, 98
3, 256064, Note_on_c, 5, 51, 0
3, 256064, Note_on_c, 5, 39, 0
3, 256064, End_track
4, 0, Start_track
4, 0, MIDI_port, 0
4, 0, Title_t, "Oboe"
4, 0, Control_c, 1, 0, 0
4, 0, Control_c, 1, 32, 0
4, 0, Program_c, 1, 68
4, 0, Control_c, 1, 7, 118
4, 0, Control_c, 1, 10, 42
4, 1, Control_c, 1, 91, 70
4, 2, Note_on_c, 1, 63, 85
4, 386, Note_on_c, 1, 63, 0
4, 1536, Note_on_c, 1, 65, 85
4, 1920, Note_on_c, 1, 65, 0
4, 3072, Note_on_c, 1, 63, 85
4, 3456, Note_on_c, 1, 63, 0
4, 6528, Note_on_c, 1, 70, 80
4, 6816, Note_on_c, 1, 70, 0
4, 6816, Note_on_c, 1, 74, 80
4, 6864, Note_on_c, 1, 74, 0
4, 6864, Note_on_c, 1, 72, 80
4, 6912, Note_on_c, 1, 72, 0
4, 6912, Note_on_c, 1, 70, 80
4, 7100, Note_on_c, 1, 70, 0
4, 7104, Note_on_c, 1, 79, 80
4, 7296, Note_on_c, 1, 79, 0
4, 7296, Note_on_c, 1, 77, 80
4, 7488, Note_on_c, 1, 77, 0
4, 7488, Note_on_c, 1, 75, 80
4, 7676, Note_on_c, 1, 75, 0
4, 7680, Note_on_c, 1, 74, 85
4, 8064, Note_on_c, 1, 74, 0
4, 8640, Note_on_c, 1, 70, 80
4, 8828, Note_on_c, 1, 70, 0
4, 8832, Note_on_c, 1, 70, 80
4, 9020, Note_on_c, 1, 70, 0
4, 9024, Note_on_c, 1, 70, 80
4, 9212, Note_on_c, 1, 70, 0
4, 9216, Note_on_c, 1, 85, 85
4, 9600, Note_on_c, 1, 85, 0
4, 11712, Note_on_c, 1, 84, 80
4, 11904, Note_on_c, 1, 84, 0
4, 11904, Note_on_c, 1, 82, 80
4, 12096, Note_on_c, 1, 82, 0
4, 12096, Note_on_c, 1, 80, 80
4, 12284, Note_on_c, 1, 80, 0
4, 12288, Note_on_c, 1, 79, 80
4, 12608, Note_on_c, 1, 79, 0
4, 16320, Note_on_c, 1, 84, 80
4, 16416, Note_on_c, 1, 84, 0
4, 16416, Note_on_c, 1, 82, 80
4, 16512, Note_on_c, 1, 82, 0
4, 16512, Note_on_c, 1, 80, 80
4, 16608, Note_on_c, 1, 80, 0
4, 16608, Note_on_c, 1, 79, 80
4, 16704, Note_on_c, 1, 79, 0
4, 16704, Note_on_c, 1, 77, 80
4, 16800, Note_on_c, 1, 77, 0
4, 16800, Note_on_c, 1, 75, 80
4, 16892, Note_on_c, 1, 75, 0
4, 16896, Note_on_c, 1, 74, 80
4, 16988, Note_on_c, 1, 74, 0
4, 17088, Note_on_c, 1, 77, 80
4, 17180, Note_on_c, 1, 77, 0
4, 17280, Note_on_c, 1, 80, 80
4, 17372, Note_on_c, 1, 80, 0
4, 17472, Note_on_c, 1, 74, 80
4, 17564, Note_on_c, 1, 74, 0
4, 17664, Note_on_c, 1, 75, 85
4, 17984, Note_on_c, 1, 75, 0
4, 18576, Note_on_c, 1, 80, 85
4, 18620, Note_on_c, 1, 80, 0
4, 18624, Note_on_c, 1, 80, 85
4, 18764, Note_on_c, 1, 80, 0
4, 18768, Note_on_c, 1, 80, 85
4, 18812, Note_on_c, 1, 80, 0
4, 18816, Note_on_c, 1, 80, 85
4, 19004, Note_on_c, 1, 80, 0
4, 19344, Note_on_c, 1, 82, 85
4, 19388, Note_on_c, 1, 82, 0
4, 19392, Note_on_c, 1, 82, 85
4, 19532, Note_on_c, 1, 82, 0
4, 19536, Note_on_c, 1, 82, 85
4, 19580, Note_on_c, 1, 82, 0
4, 19584, Note_on_c, 1, 82, 85
4, 19772, Note_on_c, 1, 82, 0
4, 20112, Note_on_c, 1, 84, 85
4, 20156, Note_on_c, 1, 84, 0
4, 20160, Note_on_c, 1, 84, 85
4, 20300, Note_on_c, 1, 84, 0
4, 20304, Note_on_c, 1, 84, 85
4, 20348, Note_on_c, 1, 84, 0
4, 20352, Note_on_c, 1, 84, 85
4, 20540, Note_on_c, 1, 84, 0
4, 20880, Note_on_c, 1, 75, 85
4, 20924, Note_on_c, 1, 75, 0
4, 20928, Note_on_c, 1, 84, 85
4, 21068, Note_on_c, 1, 84, 0
4, 21072, Note_on_c, 1, 84, 85
4, 21116, Note_on_c, 1, 84, 0
4, 21120, Note_on_c, 1, 84, 85
4, 21308, Note_on_c, 1, 84, 0
4, 21696, Note_on_c, 1, 75, 80
4, 21884, Note_on_c, 1, 75, 0
4, 21888, Note_on_c, 1, 77, 80
4, 21936, Note_on_c, 1, 77, 0
4, 21936, Note_on_c, 1, 75, 80
4, 21984, Note_on_c, 1, 75, 0
4, 21984, Note_on_c, 1, 74, 80
4, 22032, Note_on_c, 1, 74, 0
4, 22032, Note_on_c, 1, 75, 80
4, 22080, Note_on_c, 1, 75, 0
4, 22080, Note_on_c, 1, 77, 80
4, 22172, Note_on_c, 1, 77, 0
4, 22176, Note_on_c, 1, 72, 80
4, 22268, Note_on_c, 1, 72, 0
4, 22272, Note_on_c, 1, 74, 80
4, 22460, Note_on_c, 1, 74, 0
4, 24000, Note_on_c, 1, 77, 80
4, 24192, Note_on_c, 1, 77, 0
4, 24192, Note_on_c, 1, 79, 80
4, 24240, Note_on_c, 1, 79, 0
4, 24240, Note_on_c, 1, 77, 80
4, 24288, Note_on_c, 1, 77, 0
4, 24288, Note_on_c, 1, 75, 80
4, 24336, Note_on_c, 1, 75, 0
4, 24336, Note_on_c, 1, 77, 80
4, 24384, Note_on_c, 1, 77, 0
4, 24384, Note_on_c, 1, 79, 80
4, 24476, Note_on_c, 1, 79, 0
4, 24480, Note_on_c, 1, 74, 80
4, 24572, Note_on_c, 1, 74, 0
4, 24576, Note_on_c, 1, 75, 80
4, 24764, Note_on_c, 1, 75, 0
4, 24768, Note_on_c, 1, 75, 80
4, 24960, Note_on_c, 1, 75, 0
4, 24960, Note_on_c, 1, 77, 80
4, 25008, Note_on_c, 1, 77, 0
4, 25008, Note_on_c, 1, 75, 80
4, 25056, Note_on_c, 1, 75, 0
4, 25056, Note_on_c, 1, 74, 80
4, 25104, Note_on_c, 1, 74, 0
4, 25104, Note_on_c, 1, 75, 80
4, 25152, Note_on_c, 1, 75, 0
4, 25152, Note_on_c, 1, 77, 80
4, 25244, Note_on_c, 1, 77, 0
4, 25248, Note_on_c, 1, 72, 80
4, 25340, Note_on_c, 1, 72, 0
4, 25344, Note_on_c, 1, 74, 80
4, 25532, Note_on_c, 1, 74, 0
4, 26112, Note_on_c, 1, 81, 80
4, 26880, Note_on_c, 1, 81, 0
4, 26880, Note_on_c, 1, 82, 80
4, 27068, Note_on_c, 1, 82, 0
4, 27264, Note_on_c, 1, 77, 80
4, 27360, Note_on_c, 1, 77, 0
4, 27360, Note_on_c, 1, 79, 80
4, 27404, Note_on_c, 1, 79, 0
4, 27456, Note_on_c, 1, 79, 80
4, 27552, Note_on_c, 1, 79, 0
4, 27552, Note_on_c, 1, 80, 80
4, 27596, Note_on_c, 1, 80, 0
4, 27648, Note_on_c, 1, 80, 80
4, 27836, Note_on_c, 1, 80, 0
4, 28032, Note_on_c, 1, 77, 80
4, 28128, Note_on_c, 1, 77, 0
4, 28128, Note_on_c, 1, 79, 80
4, 28172, Note_on_c, 1, 79, 0
4, 28224, Note_on_c, 1, 79, 80
4, 28320, Note_on_c, 1, 79, 0
4, 28320, Note_on_c, 1, 80, 80
4, 28364, Note_on_c, 1, 80, 0
4, 28416, Note_on_c, 1, 80, 80
4, 28604, Note_on_c, 1, 80, 0
4, 28800, Note_on_c, 1, 77, 80
4, 28896, Note_on_c, 1, 77, 0
4, 28896, Note_on_c, 1, 79, 80
4, 28940, Note_on_c, 1, 79, 0
4, 28992, Note_on_c, 1, 79, 80
4, 29088, Note_on_c, 1, 79, 0
4, 29088, Note_on_c, 1, 80, 80
4, 29132, Note_on_c, 1, 80, 0
4, 29184, Note_on_c, 1, 80, 80
4, 29372, Note_on_c, 1, 80, 0
4, 29520, Note_on_c, 1, 80, 85
4, 29564, Note_on_c, 1, 80, 0
4, 29568, Note_on_c, 1, 80, 85
4, 29756, Note_on_c, 1, 80, 0
4, 29760, Note_on_c, 1, 80, 85
4, 29948, Note_on_c, 1, 80, 0
4, 29952, Note_on_c, 1, 80, 85
4, 30624, Note_on_c, 1, 80, 0
4, 33792, Note_on_c, 1, 75, 85
4, 33888, Note_on_c, 1, 75, 0
4, 34176, Note_on_c, 1, 77, 85
4, 34272, Note_on_c, 1, 77, 0
4, 34560, Note_on_c, 1, 79, 85
4, 34848, Note_on_c, 1, 79, 0
4, 34848, Note_on_c, 1, 77, 85
4, 34896, Note_on_c, 1, 77, 0
4, 34896, Note_on_c, 1, 79, 85
4, 34944, Note_on_c, 1, 79, 0
4, 34944, Note_on_c, 1, 80, 85
4, 35132, Note_on_c, 1, 80, 0
4, 35328, Note_on_c, 1, 82, 85
4, 35616, Note_on_c, 1, 82, 0
4, 35616, Note_on_c, 1, 81, 85
4, 35664, Note_on_c, 1, 81, 0
4, 35664, Note_on_c, 1, 82, 85
4, 35712, Note_on_c, 1, 82, 0
4, 35712, Note_on_c, 1, 84, 85
4, 35900, Note_on_c, 1, 84, 0
4, 35904, Note_on_c, 1, 80, 85
4, 35968, Note_on_c, 1, 80, 0
4, 36096, Note_on_c, 1, 79, 80
4, 36480, Note_on_c, 1, 79, 0
4, 36480, Note_on_c, 1, 77, 80
4, 36576, Note_on_c, 1, 77, 0
4, 36576, Note_on_c, 1, 76, 80
4, 36672, Note_on_c, 1, 76, 0
4, 36672, Note_on_c, 1, 77, 80
4, 36768, Note_on_c, 1, 77, 0
4, 36768, Note_on_c, 1, 78, 80
4, 36864, Note_on_c, 1, 78, 0
4, 36864, Note_on_c, 1, 79, 80
4, 37052, Note_on_c, 1, 79, 0
4, 37056, Note_on_c, 1, 79, 80
4, 37440, Note_on_c, 1, 79, 0
4, 37440, Note_on_c, 1, 80, 80
4, 37628, Note_on_c, 1, 80, 0
4, 37632, Note_on_c, 1, 79, 80
4, 37728, Note_on_c, 1, 79, 0
4, 37728, Note_on_c, 1, 77, 80
4, 37820, Note_on_c, 1, 77, 0
4, 37824, Note_on_c, 1, 77, 80
4, 38208, Note_on_c, 1, 77, 0
4, 38208, Note_on_c, 1, 82, 80
4, 38396, Note_on_c, 1, 82, 0
4, 38400, Note_on_c, 1, 82, 80
4, 38496, Note_on_c, 1, 82, 0
4, 38496, Note_on_c, 1, 75, 80
4, 38588, Note_on_c, 1, 75, 0
4, 38592, Note_on_c, 1, 75, 80
4, 38912, Note_on_c, 1, 75, 0
4, 38976, Note_on_c, 1, 84, 80
4, 39072, Note_on_c, 1, 84, 0
4, 39072, Note_on_c, 1, 80, 80
4, 39164, Note_on_c, 1, 80, 0
4, 39168, Note_on_c, 1, 79, 80
4, 39552, Note_on_c, 1, 79, 0
4, 39552, Note_on_c, 1, 77, 80
4, 39740, Note_on_c, 1, 77, 0
4, 39936, Note_on_c, 1, 75, 85
4, 41568, Note_on_c, 1, 75, 0
4, 41568, Note_on_c, 1, 79, 85
4, 41660, Note_on_c, 1, 79, 0
4, 41664, Note_on_c, 1, 79, 85
4, 41760, Note_on_c, 1, 79, 0
4, 41760, Note_on_c, 1, 82, 85
4, 41852, Note_on_c, 1, 82, 0
4, 41856, Note_on_c, 1, 82, 85
4, 41952, Note_on_c, 1, 82, 0
4, 41952, Note_on_c, 1, 80, 85
4, 42048, Note_on_c, 1, 80, 0
4, 42048, Note_on_c, 1, 79, 85
4, 42144, Note_on_c, 1, 79, 0
4, 42144, Note_on_c, 1, 77, 85
4, 42236, Note_on_c, 1, 77, 0
4, 42240, Note_on_c, 1, 75, 85
4, 42428, Note_on_c, 1, 75, 0
4, 42624, Note_on_c, 1, 75, 80
4, 42816, Note_on_c, 1, 75, 0
4, 42816, Note_on_c, 1, 73, 80
4, 43004, Note_on_c, 1, 73, 0
4, 43008, Note_on_c, 1, 72, 80
4, 43196, Note_on_c, 1, 72, 0
4, 43392, Note_on_c, 1, 77, 80
4, 43584, Note_on_c, 1, 77, 0
4, 43584, Note_on_c, 1, 75, 80
4, 43772, Note_on_c, 1, 75, 0
4, 43776, Note_on_c, 1, 74, 80
4, 44544, Note_on_c, 1, 74, 0
4, 44544, Note_on_c, 1, 75, 80
4, 44732, Note_on_c, 1, 75, 0
4, 46080, Note_on_c, 1, 80, 80
4, 46848, Note_on_c, 1, 80, 0
4, 46848, Note_on_c, 1, 79, 80
4, 47036, Note_on_c, 1, 79, 0
4, 47424, Note_on_c, 1, 80, 80
4, 47616, Note_on_c, 1, 80, 0
4, 47616, Note_on_c, 1, 79, 80
4, 47804, Note_on_c, 1, 79, 0
4, 48192, Note_on_c, 1, 80, 80
4, 48384, Note_on_c, 1, 80, 0
4, 48384, Note_on_c, 1, 79, 80
4, 48572, Note_on_c, 1, 79, 0
4, 50880, Note_on_c, 1, 77, 85
4, 50972, Note_on_c, 1, 77, 0
4, 50976, Note_on_c, 1, 75, 85
4, 51068, Note_on_c, 1, 75, 0
4, 51072, Note_on_c, 1, 74, 85
4, 51164, Note_on_c, 1, 74, 0
4, 51168, Note_on_c, 1, 72, 85
4, 51260, Note_on_c, 1, 72, 0
4, 51264, Note_on_c, 1, 70, 85
4, 51356, Note_on_c, 1, 70, 0
4, 51360, Note_on_c, 1, 68, 85
4, 51452, Note_on_c, 1, 68, 0
4, 51456, Note_on_c, 1, 67, 85
4, 51644, Note_on_c, 1, 67, 0
4, 51648, Note_on_c, 1, 70, 85
4, 51836, Note_on_c, 1, 70, 0
4, 51840, Note_on_c, 1, 75, 85
4, 52028, Note_on_c, 1, 75, 0
4, 52032, Note_on_c, 1, 79, 85
4, 52220, Note_on_c, 1, 79, 0
4, 52224, Note_on_c, 1, 77, 85
4, 52412, Note_on_c, 1, 77, 0
4, 52416, Note_on_c, 1, 77, 85
4, 52508, Note_on_c, 1, 77, 0
4, 52512, Note_on_c, 1, 75, 85
4, 52604, Note_on_c, 1, 75, 0
4, 52608, Note_on_c, 1, 74, 85
4, 52700, Note_on_c, 1, 74, 0
4, 52704, Note_on_c, 1, 72, 85
4, 52796, Note_on_c, 1, 72, 0
4, 52800, Note_on_c, 1, 70, 85
4, 52892, Note_on_c, 1, 70, 0
4, 52896, Note_on_c, 1, 68, 85
4, 52988, Note_on_c, 1, 68, 0
4, 52992, Note_on_c, 1, 67, 85
4, 53180, Note_on_c, 1, 67, 0
4, 53184, Note_on_c, 1, 70, 85
4, 53372, Note_on_c, 1, 70, 0
4, 53376, Note_on_c, 1, 75, 85
4, 53564, Note_on_c, 1, 75, 0
4, 53568, Note_on_c, 1, 79, 85
4, 53756, Note_on_c, 1, 79, 0
4, 53760, Note_on_c, 1, 77, 85
4, 54080, Note_on_c, 1, 77, 0
4, 56160, Note_on_c, 1, 81, 80
4, 56208, Note_on_c, 1, 81, 0
4, 56208, Note_on_c, 1, 82, 80
4, 56256, Note_on_c, 1, 82, 0
4, 56256, Note_on_c, 1, 84, 80
4, 56348, Note_on_c, 1, 84, 0
4, 56352, Note_on_c, 1, 82, 80
4, 56416, Note_on_c, 1, 82, 0
4, 56448, Note_on_c, 1, 81, 80
4, 56512, Note_on_c, 1, 81, 0
4, 56544, Note_on_c, 1, 79, 80
4, 56608, Note_on_c, 1, 79, 0
4, 56640, Note_on_c, 1, 77, 80
4, 56704, Note_on_c, 1, 77, 0
4, 56736, Note_on_c, 1, 75, 80
4, 56800, Note_on_c, 1, 75, 0
4, 56832, Note_on_c, 1, 74, 80
4, 56928, Note_on_c, 1, 74, 0
4, 56928, Note_on_c, 1, 77, 80
4, 57024, Note_on_c, 1, 77, 0
4, 57024, Note_on_c, 1, 82, 80
4, 57120, Note_on_c, 1, 82, 0
4, 57120, Note_on_c, 1, 79, 80
4, 57212, Note_on_c, 1, 79, 0
4, 57216, Note_on_c, 1, 77, 80
4, 57404, Note_on_c, 1, 77, 0
4, 58368, Note_on_c, 1, 77, 80
4, 60224, Note_on_c, 1, 77, 0
4, 60480, Note_on_c, 1, 77, 80
4, 60624, Note_on_c, 1, 77, 0
4, 60624, Note_on_c, 1, 79, 80
4, 60668, Note_on_c, 1, 79, 0
4, 60672, Note_on_c, 1, 75, 80
4, 60736, Note_on_c, 1, 75, 0
4, 60864, Note_on_c, 1, 75, 80
4, 61008, Note_on_c, 1, 75, 0
4, 61008, Note_on_c, 1, 77, 80
4, 61052, Note_on_c, 1, 77, 0
4, 61056, Note_on_c, 1, 74, 80
4, 61120, Note_on_c, 1, 74, 0
4, 61248, Note_on_c, 1, 74, 80
4, 61392, Note_on_c, 1, 74, 0
4, 61392, Note_on_c, 1, 75, 80
4, 61436, Note_on_c, 1, 75, 0
4, 61440, Note_on_c, 1, 72, 80
4, 61628, Note_on_c, 1, 72, 0
4, 61824, Note_on_c, 1, 77, 80
4, 62112, Note_on_c, 1, 77, 0
4, 62112, Note_on_c, 1, 74, 80
4, 62204, Note_on_c, 1, 74, 0
4, 62208, Note_on_c, 1, 72, 80
4, 62396, Note_on_c, 1, 72, 0
4, 62592, Note_on_c, 1, 77, 80
4, 62880, Note_on_c, 1, 77, 0
4, 62880, Note_on_c, 1, 74, 80
4, 62972, Note_on_c, 1, 74, 0
4, 62976, Note_on_c, 1, 72, 80
4, 63040, Note_on_c, 1, 72, 0
4, 63168, Note_on_c, 1, 74, 80
4, 63232, Note_on_c, 1, 74, 0
4, 63360, Note_on_c, 1, 72, 80
4, 63424, Note_on_c, 1, 72, 0
4, 63552, Note_on_c, 1, 74, 80
4, 63616, Note_on_c, 1, 74, 0
4, 63744, Note_on_c, 1, 72, 80
4, 63932, Note_on_c, 1, 72, 0
4, 66048, Note_on_c, 1, 75, 85
4, 66144, Note_on_c, 1, 75, 0
4, 66144, Note_on_c, 1, 74, 85
4, 66240, Note_on_c, 1, 74, 0
4, 66240, Note_on_c, 1, 75, 85
4, 66336, Note_on_c, 1, 75, 0
4, 66336, Note_on_c, 1, 74, 85
4, 66432, Note_on_c, 1, 74, 0
4, 66432, Note_on_c, 1, 75, 85
4, 66528, Note_on_c, 1, 75, 0
4, 66528, Note_on_c, 1, 74, 85
4, 66624, Note_on_c, 1, 74, 0
4, 66624, Note_on_c, 1, 75, 85
4, 66720, Note_on_c, 1, 75, 0
4, 66720, Note_on_c, 1, 76, 85
4, 66816, Note_on_c, 1, 76, 0
4, 66816, Note_on_c, 1, 77, 85
4, 66912, Note_on_c, 1, 77, 0
4, 66912, Note_on_c, 1, 76, 85
4, 67008, Note_on_c, 1, 76, 0
4, 67008, Note_on_c, 1, 77, 85
4, 67104, Note_on_c, 1, 77, 0
4, 67104, Note_on_c, 1, 76, 85
4, 67200, Note_on_c, 1, 76, 0
4, 67200, Note_on_c, 1, 77, 85
4, 67388, Note_on_c, 1, 77, 0
4, 70368, Note_on_c, 1, 77, 85
4, 70464, Note_on_c, 1, 77, 0
4, 70464, Note_on_c, 1, 76, 85
4, 70560, Note_on_c, 1, 76, 0
4, 70560, Note_on_c, 1, 75, 85
4, 70652, Note_on_c, 1, 75, 0
4, 70656, Note_on_c, 1, 74, 85
4, 70944, Note_on_c, 1, 74, 0
4, 70944, Note_on_c, 1, 70, 85
4, 71036, Note_on_c, 1, 70, 0
4, 71040, Note_on_c, 1, 74, 85
4, 71136, Note_on_c, 1, 74, 0
4, 71136, Note_on_c, 1, 70, 85
4, 71232, Note_on_c, 1, 70, 0
4, 71232, Note_on_c, 1, 74, 85
4, 71328, Note_on_c, 1, 74, 0
4, 71328, Note_on_c, 1, 77, 85
4, 71420, Note_on_c, 1, 77, 0
4, 71424, Note_on_c, 1, 77, 85
4, 71520, Note_on_c, 1, 77, 0
4, 71520, Note_on_c, 1, 75, 85
4, 71616, Note_on_c, 1, 75, 0
4, 71616, Note_on_c, 1, 74, 85
4, 71712, Note_on_c, 1, 74, 0
4, 71712, Note_on_c, 1, 72, 85
4, 71804, Note_on_c, 1, 72, 0
4, 71808, Note_on_c, 1, 72, 85
4, 71996, Note_on_c, 1, 72, 0
4, 73728, Note_on_c, 1, 82, 80
4, 73792, Note_on_c, 1, 82, 0
4, 73824, Note_on_c, 1, 82, 80
4, 74016, Note_on_c, 1, 82, 0
4, 74016, Note_on_c, 1, 86, 80
4, 74108, Note_on_c, 1, 86, 0
4, 74112, Note_on_c, 1, 77, 80
4, 74400, Note_on_c, 1, 77, 0
4, 74400, Note_on_c, 1, 78, 80
4, 74492, Note_on_c, 1, 78, 0
4, 74496, Note_on_c, 1, 79, 80
4, 74560, Note_on_c, 1, 79, 0
4, 74592, Note_on_c, 1, 79, 80
4, 74784, Note_on_c, 1, 79, 0
4, 74784, Note_on_c, 1, 82, 80
4, 74876, Note_on_c, 1, 82, 0
4, 74880, Note_on_c, 1, 72, 80
4, 75168, Note_on_c, 1, 72, 0
4, 75168, Note_on_c, 1, 73, 80
4, 75260, Note_on_c, 1, 73, 0
4, 75264, Note_on_c, 1, 74, 80
4, 75360, Note_on_c, 1, 74, 0
4, 75360, Note_on_c, 1, 77, 80
4, 75404, Note_on_c, 1, 77, 0
4, 75456, Note_on_c, 1, 75, 80
4, 75552, Note_on_c, 1, 75, 0
4, 75552, Note_on_c, 1, 79, 80
4, 75596, Note_on_c, 1, 79, 0
4, 75648, Note_on_c, 1, 70, 80
4, 75840, Note_on_c, 1, 70, 0
4, 75840, Note_on_c, 1, 74, 80
4, 75936, Note_on_c, 1, 74, 0
4, 75936, Note_on_c, 1, 72, 80
4, 76028, Note_on_c, 1, 72, 0
4, 76032, Note_on_c, 1, 70, 80
4, 76352, Note_on_c, 1, 70, 0
4, 81504, Note_on_c, 1, 82, 85
4, 81692, Note_on_c, 1, 82, 0
4, 81696, Note_on_c, 1, 77, 85
4, 81884, Note_on_c, 1, 77, 0
4, 81888, Note_on_c, 1, 74, 85
4, 82076, Note_on_c, 1, 74, 0
4, 82080, Note_on_c, 1, 70, 85
4, 82172, Note_on_c, 1, 70, 0
4, 82176, Note_on_c, 1, 69, 85
4, 82364, Note_on_c, 1, 69, 0
4, 82368, Note_on_c, 1, 72, 85
4, 82556, Note_on_c, 1, 72, 0
4, 82560, Note_on_c, 1, 75, 85
4, 82848, Note_on_c, 1, 75, 0
4, 82848, Note_on_c, 1, 74, 85
4, 82896, Note_on_c, 1, 74, 0
4, 82896, Note_on_c, 1, 75, 85
4, 82944, Note_on_c, 1, 75, 0
4, 82944, Note_on_c, 1, 74, 85
4, 83036, Note_on_c, 1, 74, 0
4, 83040, Note_on_c, 1, 82, 85
4, 83228, Note_on_c, 1, 82, 0
4, 83232, Note_on_c, 1, 77, 85
4, 83420, Note_on_c, 1, 77, 0
4, 83424, Note_on_c, 1, 74, 85
4, 83612, Note_on_c, 1, 74, 0
4, 83616, Note_on_c, 1, 70, 85
4, 83708, Note_on_c, 1, 70, 0
4, 83712, Note_on_c, 1, 69, 85
4, 83900, Note_on_c, 1, 69, 0
4, 83904, Note_on_c, 1, 72, 85
4, 84092, Note_on_c, 1, 72, 0
4, 84096, Note_on_c, 1, 75, 85
4, 84384, Note_on_c, 1, 75, 0
4, 84384, Note_on_c, 1, 74, 85
4, 84432, Note_on_c, 1, 74, 0
4, 84432, Note_on_c, 1, 75, 85
4, 84480, Note_on_c, 1, 75, 0
4, 84480, Note_on_c, 1, 74, 85
4, 84800, Note_on_c, 1, 74, 0
4, 85344, Note_on_c, 1, 84, 80
4, 85532, Note_on_c, 1, 84, 0
4, 85536, Note_on_c, 1, 79, 80
4, 85724, Note_on_c, 1, 79, 0
4, 85728, Note_on_c, 1, 75, 80
4, 85916, Note_on_c, 1, 75, 0
4, 85920, Note_on_c, 1, 72, 80
4, 86012, Note_on_c, 1, 72, 0
4, 86016, Note_on_c, 1, 73, 80
4, 86784, Note_on_c, 1, 73, 0
4, 86784, Note_on_c, 1, 74, 80
4, 87104, Note_on_c, 1, 74, 0
4, 87744, Note_on_c, 1, 74, 80
4, 88032, Note_on_c, 1, 74, 0
4, 88032, Note_on_c, 1, 75, 80
4, 88080, Note_on_c, 1, 75, 0
4, 88080, Note_on_c, 1, 77, 80
4, 88128, Note_on_c, 1, 77, 0
4, 88128, Note_on_c, 1, 79, 80
4, 88176, Note_on_c, 1, 79, 0
4, 88176, Note_on_c, 1, 81, 80
4, 88224, Note_on_c, 1, 81, 0
4, 88224, Note_on_c, 1, 82, 80
4, 88272, Note_on_c, 1, 82, 0
4, 88272, Note_on_c, 1, 84, 80
4, 88316, Note_on_c, 1, 84, 0
4, 88320, Note_on_c, 1, 86, 80
4, 88704, Note_on_c, 1, 86, 0
4, 88704, Note_on_c, 1, 84, 52
4, 89024, Note_on_c, 1, 84, 0
4, 89088, Note_on_c, 1, 83, 80
4, 89856, Note_on_c, 1, 83, 0
4, 89856, Note_on_c, 1, 82, 76
4, 90528, Note_on_c, 1, 82, 0
4, 90624, Note_on_c, 1, 81, 85
4, 91008, Note_on_c, 1, 81, 0
4, 91008, Note_on_c, 1, 82, 85
4, 91196, Note_on_c, 1, 82, 0
4, 91488, Note_on_c, 1, 75, 80
4, 91584, Note_on_c, 1, 75, 0
4, 91584, Note_on_c, 1, 79, 80
4, 91680, Note_on_c, 1, 79, 0
4, 91680, Note_on_c, 1, 75, 80
4, 91772, Note_on_c, 1, 75, 0
4, 91872, Note_on_c, 1, 72, 80
4, 91968, Note_on_c, 1, 72, 0
4, 91968, Note_on_c, 1, 75, 80
4, 92064, Note_on_c, 1, 75, 0
4, 92064, Note_on_c, 1, 72, 80
4, 92156, Note_on_c, 1, 72, 0
4, 92160, Note_on_c, 1, 70, 80
4, 92348, Note_on_c, 1, 70, 0
4, 92544, Note_on_c, 1, 80, 80
4, 92928, Note_on_c, 1, 80, 0
4, 92928, Note_on_c, 1, 79, 80
4, 93116, Note_on_c, 1, 79, 0
4, 94848, Note_on_c, 1, 80, 80
4, 95232, Note_on_c, 1, 80, 0
4, 95232, Note_on_c, 1, 79, 80
4, 95420, Note_on_c, 1, 79, 0
4, 97152, Note_on_c, 1, 77, 80
4, 97440, Note_on_c, 1, 77, 0
4, 97440, Note_on_c, 1, 75, 80
4, 97532, Note_on_c, 1, 75, 0
4, 97536, Note_on_c, 1, 74, 80
4, 97724, Note_on_c, 1, 74, 0
4, 97920, Note_on_c, 1, 77, 80
4, 98208, Note_on_c, 1, 77, 0
4, 98208, Note_on_c, 1, 75, 80
4, 98300, Note_on_c, 1, 75, 0
4, 98304, Note_on_c, 1, 74, 80
4, 98368, Note_on_c, 1, 74, 0
4, 98496, Note_on_c, 1, 81, 80
4, 98560, Note_on_c, 1, 81, 0
4, 98688, Note_on_c, 1, 82, 80
4, 98752, Note_on_c, 1, 82, 0
4, 98880, Note_on_c, 1, 81, 80
4, 98944, Note_on_c, 1, 81, 0
4, 99072, Note_on_c, 1, 82, 80
4, 99260, Note_on_c, 1, 82, 0
4, 102912, Note_on_c, 1, 75, 85
4, 103008, Note_on_c, 1, 75, 0
4, 103296, Note_on_c, 1, 77, 85
4, 103392, Note_on_c, 1, 77, 0
4, 103680, Note_on_c, 1, 79, 85
4, 103968, Note_on_c, 1, 79, 0
4, 103968, Note_on_c, 1, 77, 85
4, 104016, Note_on_c, 1, 77, 0
4, 104016, Note_on_c, 1, 79, 85
4, 104064, Note_on_c, 1, 79, 0
4, 104064, Note_on_c, 1, 80, 85
4, 104252, Note_on_c, 1, 80, 0
4, 104448, Note_on_c, 1, 82, 85
4, 104736, Note_on_c, 1, 82, 0
4, 104736, Note_on_c, 1, 81, 85
4, 104784, Note_on_c, 1, 81, 0
4, 104784, Note_on_c, 1, 82, 85
4, 104832, Note_on_c, 1, 82, 0
4, 104832, Note_on_c, 1, 84, 85
4, 105020, Note_on_c, 1, 84, 0
4, 105024, Note_on_c, 1, 80, 85
4, 105088, Note_on_c, 1, 80, 0
4, 105216, Note_on_c, 1, 79, 80
4, 105600, Note_on_c, 1, 79, 0
4, 105600, Note_on_c, 1, 77, 80
4, 105696, Note_on_c, 1, 77, 0
4, 105696, Note_on_c, 1, 76, 80
4, 105792, Note_on_c, 1, 76, 0
4, 105792, Note_on_c, 1, 77, 80
4, 105888, Note_on_c, 1, 77, 0
4, 105888, Note_on_c, 1, 78, 80
4, 105984, Note_on_c, 1, 78, 0
4, 105984, Note_on_c, 1, 79, 80
4, 106172, Note_on_c, 1, 79, 0
4, 106176, Note_on_c, 1, 79, 80
4, 106560, Note_on_c, 1, 79, 0
4, 106560, Note_on_c, 1, 80, 80
4, 106748, Note_on_c, 1, 80, 0
4, 106752, Note_on_c, 1, 79, 80
4, 106848, Note_on_c, 1, 79, 0
4, 106848, Note_on_c, 1, 77, 80
4, 106940, Note_on_c, 1, 77, 0
4, 106944, Note_on_c, 1, 77, 80
4, 107328, Note_on_c, 1, 77, 0
4, 107328, Note_on_c, 1, 82, 80
4, 107516, Note_on_c, 1, 82, 0
4, 107520, Note_on_c, 1, 82, 80
4, 107616, Note_on_c, 1, 82, 0
4, 107616, Note_on_c, 1, 75, 80
4, 107708, Note_on_c, 1, 75, 0
4, 107712, Note_on_c, 1, 75, 80
4, 108032, Note_on_c, 1, 75, 0
4, 108096, Note_on_c, 1, 84, 80
4, 108192, Note_on_c, 1, 84, 0
4, 108192, Note_on_c, 1, 80, 80
4, 108284, Note_on_c, 1, 80, 0
4, 108288, Note_on_c, 1, 79, 80
4, 108672, Note_on_c, 1, 79, 0
4, 108672, Note_on_c, 1, 77, 80
4, 108860, Note_on_c, 1, 77, 0
4, 109056, Note_on_c, 1, 75, 85
4, 110688, Note_on_c, 1, 75, 0
4, 110688, Note_on_c, 1, 79, 85
4, 110780, Note_on_c, 1, 79, 0
4, 110784, Note_on_c, 1, 79, 85
4, 110880, Note_on_c, 1, 79, 0
4, 110880, Note_on_c, 1, 82, 85
4, 110972, Note_on_c, 1, 82, 0
4, 110976, Note_on_c, 1, 82, 85
4, 111072, Note_on_c, 1, 82, 0
4, 111072, Note_on_c, 1, 80, 85
4, 111168, Note_on_c, 1, 80, 0
4, 111168, Note_on_c, 1, 79, 85
4, 111264, Note_on_c, 1, 79, 0
4, 111264, Note_on_c, 1, 77, 85
4, 111356, Note_on_c, 1, 77, 0
4, 111360, Note_on_c, 1, 75, 85
4, 111548, Note_on_c, 1, 75, 0
4, 111744, Note_on_c, 1, 75, 80
4, 111936, Note_on_c, 1, 75, 0
4, 111936, Note_on_c, 1, 73, 80
4, 112124, Note_on_c, 1, 73, 0
4, 112128, Note_on_c, 1, 72, 80
4, 112316, Note_on_c, 1, 72, 0
4, 112512, Note_on_c, 1, 77, 80
4, 112704, Note_on_c, 1, 77, 0
4, 112704, Note_on_c, 1, 75, 80
4, 112892, Note_on_c, 1, 75, 0
4, 112896, Note_on_c, 1, 74, 80
4, 113664, Note_on_c, 1, 74, 0
4, 113664, Note_on_c, 1, 75, 80
4, 113852, Note_on_c, 1, 75, 0
4, 115200, Note_on_c, 1, 80, 80
4, 115968, Note_on_c, 1, 80, 0
4, 115968, Note_on_c, 1, 79, 80
4, 116156, Note_on_c, 1, 79, 0
4, 116544, Note_on_c, 1, 80, 80
4, 116736, Note_on_c, 1, 80, 0
4, 116736, Note_on_c, 1, 79, 80
4, 116924, Note_on_c, 1, 79, 0
4, 117312, Note_on_c, 1, 80, 80
4, 117504, Note_on_c, 1, 80, 0
4, 117504, Note_on_c, 1, 79, 80
4, 117692, Note_on_c, 1, 79, 0
4, 120000, Note_on_c, 1, 77, 85
4, 120092, Note_on_c, 1, 77, 0
4, 120096, Note_on_c, 1, 75, 85
4, 120188, Note_on_c, 1, 75, 0
4, 120192, Note_on_c, 1, 74, 85
4, 120284, Note_on_c, 1, 74, 0
4, 120288, Note_on_c, 1, 72, 85
4, 120380, Note_on_c, 1, 72, 0
4, 120384, Note_on_c, 1, 70, 85
4, 120476, Note_on_c, 1, 70, 0
4, 120480, Note_on_c, 1, 68, 85
4, 120572, Note_on_c, 1, 68, 0
4, 120576, Note_on_c, 1, 67, 85
4, 120764, Note_on_c, 1, 67, 0
4, 120768, Note_on_c, 1, 70, 85
4, 120956, Note_on_c, 1, 70, 0
4, 120960, Note_on_c, 1, 75, 85
4, 121148, Note_on_c, 1, 75, 0
4, 121152, Note_on_c, 1, 79, 85
4, 121340, Note_on_c, 1, 79, 0
4, 121344, Note_on_c, 1, 77, 85
4, 121532, Note_on_c, 1, 77, 0
4, 121536, Note_on_c, 1, 77, 85
4, 121628, Note_on_c, 1, 77, 0
4, 121632, Note_on_c, 1, 75, 85
4, 121724, Note_on_c, 1, 75, 0
4, 121728, Note_on_c, 1, 74, 85
4, 121820, Note_on_c, 1, 74, 0
4, 121824, Note_on_c, 1, 72, 85
4, 121916, Note_on_c, 1, 72, 0
4, 121920, Note_on_c, 1, 70, 85
4, 122012, Note_on_c, 1, 70, 0
4, 122016, Note_on_c, 1, 68, 85
4, 122108, Note_on_c, 1, 68, 0
4, 122112, Note_on_c, 1, 67, 85
4, 122300, Note_on_c, 1, 67, 0
4, 122304, Note_on_c, 1, 70, 85
4, 122492, Note_on_c, 1, 70, 0
4, 122496, Note_on_c, 1, 75, 85
4, 122684, Note_on_c, 1, 75, 0
4, 122688, Note_on_c, 1, 79, 85
4, 122876, Note_on_c, 1, 79, 0
4, 122880, Note_on_c, 1, 77, 85
4, 123200, Note_on_c, 1, 77, 0
4, 125280, Note_on_c, 1, 81, 80
4, 125328, Note_on_c, 1, 81, 0
4, 125328, Note_on_c, 1, 82, 80
4, 125376, Note_on_c, 1, 82, 0
4, 125376, Note_on_c, 1, 84, 80
4, 125468, Note_on_c, 1, 84, 0
4, 125472, Note_on_c, 1, 82, 80
4, 125536, Note_on_c, 1, 82, 0
4, 125568, Note_on_c, 1, 81, 80
4, 125632, Note_on_c, 1, 81, 0
4, 125664, Note_on_c, 1, 79, 80
4, 125728, Note_on_c, 1, 79, 0
4, 125760, Note_on_c, 1, 77, 80
4, 125824, Note_on_c, 1, 77, 0
4, 125856, Note_on_c, 1, 75, 80
4, 125920, Note_on_c, 1, 75, 0
4, 125952, Note_on_c, 1, 74, 80
4, 126048, Note_on_c, 1, 74, 0
4, 126048, Note_on_c, 1, 77, 80
4, 126144, Note_on_c, 1, 77, 0
4, 126144, Note_on_c, 1, 82, 80
4, 126240, Note_on_c, 1, 82, 0
4, 126240, Note_on_c, 1, 79, 80
4, 126332, Note_on_c, 1, 79, 0
4, 126336, Note_on_c, 1, 77, 80
4, 126524, Note_on_c, 1, 77, 0
4, 127488, Note_on_c, 1, 77, 80
4, 129344, Note_on_c, 1, 77, 0
4, 129600, Note_on_c, 1, 77, 80
4, 129744, Note_on_c, 1, 77, 0
4, 129744, Note_on_c, 1, 79, 80
4, 129788, Note_on_c, 1, 79, 0
4, 129792, Note_on_c, 1, 75, 80
4, 129856, Note_on_c, 1, 75, 0
4, 129984, Note_on_c, 1, 75, 80
4, 130128, Note_on_c, 1, 75, 0
4, 130128, Note_on_c, 1, 77, 80
4, 130172, Note_on_c, 1, 77, 0
4, 130176, Note_on_c, 1, 74, 80
4, 130240, Note_on_c, 1, 74, 0
4, 130368, Note_on_c, 1, 74, 80
4, 130512, Note_on_c, 1, 74, 0
4, 130512, Note_on_c, 1, 75, 80
4, 130556, Note_on_c, 1, 75, 0
4, 130560, Note_on_c, 1, 72, 80
4, 130748, Note_on_c, 1, 72, 0
4, 130944, Note_on_c, 1, 77, 80
4, 131232, Note_on_c, 1, 77, 0
4, 131232, Note_on_c, 1, 74, 80
4, 131324, Note_on_c, 1, 74, 0
4, 131328, Note_on_c, 1, 72, 80
4, 131516, Note_on_c, 1, 72, 0
4, 131712, Note_on_c, 1, 77, 80
4, 132000, Note_on_c, 1, 77, 0
4, 132000, Note_on_c, 1, 74, 80
4, 132092, Note_on_c, 1, 74, 0
4, 132096, Note_on_c, 1, 72, 80
4, 132160, Note_on_c, 1, 72, 0
4, 132288, Note_on_c, 1, 74, 80
4, 132352, Note_on_c, 1, 74, 0
4, 132480, Note_on_c, 1, 72, 80
4, 132544, Note_on_c, 1, 72, 0
4, 132672, Note_on_c, 1, 74, 80
4, 132736, Note_on_c, 1, 74, 0
4, 132864, Note_on_c, 1, 72, 80
4, 133052, Note_on_c, 1, 72, 0
4, 135168, Note_on_c, 1, 75, 85
4, 135264, Note_on_c, 1, 75, 0
4, 135264, Note_on_c, 1, 74, 85
4, 135360, Note_on_c, 1, 74, 0
4, 135360, Note_on_c, 1, 75, 85
4, 135456, Note_on_c, 1, 75, 0
4, 135456, Note_on_c, 1, 74, 85
4, 135552, Note_on_c, 1, 74, 0
4, 135552, Note_on_c, 1, 75, 85
4, 135648, Note_on_c, 1, 75, 0
4, 135648, Note_on_c, 1, 74, 85
4, 135744, Note_on_c, 1, 74, 0
4, 135744, Note_on_c, 1, 75, 85
4, 135840, Note_on_c, 1, 75, 0
4, 135840, Note_on_c, 1, 76, 85
4, 135936, Note_on_c, 1, 76, 0
4, 135936, Note_on_c, 1, 77, 85
4, 136032, Note_on_c, 1, 77, 0
4, 136032, Note_on_c, 1, 76, 85
4, 136128, Note_on_c, 1, 76, 0
4, 136128, Note_on_c, 1, 77, 85
4, 136224, Note_on_c, 1, 77, 0
4, 136224, Note_on_c, 1, 76, 85
4, 136320, Note_on_c, 1, 76, 0
4, 136320, Note_on_c, 1, 77, 85
4, 136508, Note_on_c, 1, 77, 0
4, 139488, Note_on_c, 1, 77, 85
4, 139584, Note_on_c, 1, 77, 0
4, 139584, Note_on_c, 1, 76, 85
4, 139680, Note_on_c, 1, 76, 0
4, 139680, Note_on_c, 1, 75, 85
4, 139772, Note_on_c, 1, 75, 0
4, 139776, Note_on_c, 1, 74, 85
4, 140064, Note_on_c, 1, 74, 0
4, 140064, Note_on_c, 1, 70, 85
4, 140156, Note_on_c, 1, 70, 0
4, 140160, Note_on_c, 1, 74, 85
4, 140256, Note_on_c, 1, 74, 0
4, 140256, Note_on_c, 1, 70, 85
4, 140352, Note_on_c, 1, 70, 0
4, 140352, Note_on_c, 1, 74, 85
4, 140448, Note_on_c, 1, 74, 0
4, 140448, Note_on_c, 1, 77, 85
4, 140540, Note_on_c, 1, 77, 0
4, 140544, Note_on_c, 1, 77, 85
4, 140640, Note_on_c, 1, 77, 0
4, 140640, Note_on_c, 1, 75, 85
4, 140736, Note_on_c, 1, 75, 0
4, 140736, Note_on_c, 1, 74, 85
4, 140832, Note_on_c, 1, 74, 0
4, 140832, Note_on_c, 1, 72, 85
4, 140924, Note_on_c, 1, 72, 0
4, 140928, Note_on_c, 1, 72, 85
4, 141116, Note_on_c, 1, 72, 0
4, 142848, Note_on_c, 1, 82, 80
4, 142912, Note_on_c, 1, 82, 0
4, 142944, Note_on_c, 1, 82, 80
4, 143136, Note_on_c, 1, 82, 0
4, 143136, Note_on_c, 1, 86, 80
4, 143228, Note_on_c, 1, 86, 0
4, 143232, Note_on_c, 1, 77, 80
4, 143520, Note_on_c, 1, 77, 0
4, 143520, Note_on_c, 1, 78, 80
4, 143612, Note_on_c, 1, 78, 0
4, 143616, Note_on_c, 1, 79, 80
4, 143680, Note_on_c, 1, 79, 0
4, 143712, Note_on_c, 1, 79, 80
4, 143904, Note_on_c, 1, 79, 0
4, 143904, Note_on_c, 1, 82, 80
4, 143996, Note_on_c, 1, 82, 0
4, 144000, Note_on_c, 1, 72, 80
4, 144288, Note_on_c, 1, 72, 0
4, 144288, Note_on_c, 1, 73, 80
4, 144380, Note_on_c, 1, 73, 0
4, 144384, Note_on_c, 1, 74, 80
4, 144480, Note_on_c, 1, 74, 0
4, 144480, Note_on_c, 1, 77, 80
4, 144524, Note_on_c, 1, 77, 0
4, 144576, Note_on_c, 1, 75, 80
4, 144672, Note_on_c, 1, 75, 0
4, 144672, Note_on_c, 1, 79, 80
4, 144716, Note_on_c, 1, 79, 0
4, 144768, Note_on_c, 1, 70, 80
4, 144960, Note_on_c, 1, 70, 0
4, 144960, Note_on_c, 1, 74, 80
4, 145056, Note_on_c, 1, 74, 0
4, 145056, Note_on_c, 1, 72, 80
4, 145148, Note_on_c, 1, 72, 0
4, 145152, Note_on_c, 1, 70, 80
4, 145472, Note_on_c, 1, 70, 0
4, 150624, Note_on_c, 1, 82, 85
4, 150812, Note_on_c, 1, 82, 0
4, 150816, Note_on_c, 1, 77, 85
4, 151004, Note_on_c, 1, 77, 0
4, 151008, Note_on_c, 1, 74, 85
4, 151196, Note_on_c, 1, 74, 0
4, 151200, Note_on_c, 1, 70, 85
4, 151292, Note_on_c, 1, 70, 0
4, 151296, Note_on_c, 1, 69, 85
4, 151484, Note_on_c, 1, 69, 0
4, 151488, Note_on_c, 1, 72, 85
4, 151676, Note_on_c, 1, 72, 0
4, 151680, Note_on_c, 1, 75, 85
4, 151968, Note_on_c, 1, 75, 0
4, 151968, Note_on_c, 1, 74, 85
4, 152016, Note_on_c, 1, 74, 0
4, 152016, Note_on_c, 1, 75, 85
4, 152064, Note_on_c, 1, 75, 0
4, 152064, Note_on_c, 1, 74, 85
4, 152156, Note_on_c, 1, 74, 0
4, 152160, Note_on_c, 1, 82, 85
4, 152348, Note_on_c, 1, 82, 0
4, 152352, Note_on_c, 1, 77, 85
4, 152540, Note_on_c, 1, 77, 0
4, 152544, Note_on_c, 1, 74, 85
4, 152732, Note_on_c, 1, 74, 0
4, 152736, Note_on_c, 1, 70, 85
4, 152828, Note_on_c, 1, 70, 0
4, 152832, Note_on_c, 1, 69, 85
4, 153020, Note_on_c, 1, 69, 0
4, 153024, Note_on_c, 1, 72, 85
4, 153212, Note_on_c, 1, 72, 0
4, 153216, Note_on_c, 1, 75, 85
4, 153504, Note_on_c, 1, 75, 0
4, 153504, Note_on_c, 1, 74, 85
4, 153552, Note_on_c, 1, 74, 0
4, 153552, Note_on_c, 1, 75, 85
4, 153600, Note_on_c, 1, 75, 0
4, 153600, Note_on_c, 1, 74, 85
4, 153920, Note_on_c, 1, 74, 0
4, 154464, Note_on_c, 1, 84, 80
4, 154652, Note_on_c, 1, 84, 0
4, 154656, Note_on_c, 1, 79, 80
4, 154844, Note_on_c, 1, 79, 0
4, 154848, Note_on_c, 1, 75, 80
4, 155036, Note_on_c, 1, 75, 0
4, 155040, Note_on_c, 1, 72, 80
4, 155132, Note_on_c, 1, 72, 0
4, 155136, Note_on_c, 1, 73, 80
4, 155904, Note_on_c, 1, 73, 0
4, 155904, Note_on_c, 1, 74, 80
4, 156224, Note_on_c, 1, 74, 0
4, 156864, Note_on_c, 1, 74, 80
4, 157152, Note_on_c, 1, 74, 0
4, 157152, Note_on_c, 1, 75, 80
4, 157200, Note_on_c, 1, 75, 0
4, 157200, Note_on_c, 1, 77, 80
4, 157248, Note_on_c, 1, 77, 0
4, 157248, Note_on_c, 1, 79, 80
4, 157296, Note_on_c, 1, 79, 0
4, 157296, Note_on_c, 1, 81, 80
4, 157344, Note_on_c, 1, 81, 0
4, 157344, Note_on_c, 1, 82, 80
4, 157392, Note_on_c, 1, 82, 0
4, 157392, Note_on_c, 1, 84, 80
4, 157436, Note_on_c, 1, 84, 0
4, 157440, Note_on_c, 1, 86, 80
4, 157824, Note_on_c, 1, 86, 0
4, 157824, Note_on_c, 1, 84, 52
4, 158144, Note_on_c, 1, 84, 0
4, 158208, Note_on_c, 1, 83, 80
4, 158976, Note_on_c, 1, 83, 0
4, 158976, Note_on_c, 1, 82, 76
4, 159648, Note_on_c, 1, 82, 0
4, 159744, Note_on_c, 1, 81, 85
4, 160128, Note_on_c, 1, 81, 0
4, 160128, Note_on_c, 1, 82, 85
4, 160316, Note_on_c, 1, 82, 0
4, 160608, Note_on_c, 1, 75, 80
4, 160704, Note_on_c, 1, 75, 0
4, 160704, Note_on_c, 1, 79, 80
4, 160800, Note_on_c, 1, 79, 0
4, 160800, Note_on_c, 1, 75, 80
4, 160892, Note_on_c, 1, 75, 0
4, 160992, Note_on_c, 1, 72, 80
4, 161088, Note_on_c, 1, 72, 0
4, 161088, Note_on_c, 1, 75, 80
4, 161184, Note_on_c, 1, 75, 0
4, 161184, Note_on_c, 1, 72, 80
4, 161276, Note_on_c, 1, 72, 0
4, 161280, Note_on_c, 1, 70, 80
4, 161468, Note_on_c, 1, 70, 0
4, 161664, Note_on_c, 1, 80, 80
4, 162048, Note_on_c, 1, 80, 0
4, 162048, Note_on_c, 1, 79, 80
4, 162236, Note_on_c, 1, 79, 0
4, 163968, Note_on_c, 1, 80, 80
4, 164352, Note_on_c, 1, 80, 0
4, 164352, Note_on_c, 1, 79, 80
4, 164540, Note_on_c, 1, 79, 0
4, 166272, Note_on_c, 1, 77, 80
4, 166560, Note_on_c, 1, 77, 0
4, 166560, Note_on_c, 1, 75, 80
4, 166652, Note_on_c, 1, 75, 0
4, 166656, Note_on_c, 1, 74, 80
4, 166844, Note_on_c, 1, 74, 0
4, 167040, Note_on_c, 1, 77, 80
4, 167328, Note_on_c, 1, 77, 0
4, 167328, Note_on_c, 1, 75, 80
4, 167420, Note_on_c, 1, 75, 0
4, 167424, Note_on_c, 1, 74, 80
4, 167488, Note_on_c, 1, 74, 0
4, 167616, Note_on_c, 1, 81, 80
4, 167680, Note_on_c, 1, 81, 0
4, 167808, Note_on_c, 1, 82, 80
4, 167872, Note_on_c, 1, 82, 0
4, 168000, Note_on_c, 1, 81, 80
4, 168064, Note_on_c, 1, 81, 0
4, 168192, Note_on_c, 1, 82, 80
4, 168380, Note_on_c, 1, 82, 0
4, 169152, Note_on_c, 1, 78, 80
4, 169216, Note_on_c, 1, 78, 0
4, 169344, Note_on_c, 1, 79, 80
4, 169408, Note_on_c, 1, 79, 0
4, 169536, Note_on_c, 1, 78, 80
4, 169600, Note_on_c, 1, 78, 0
4, 169728, Note_on_c, 1, 79, 80
4, 169916, Note_on_c, 1, 79, 0
4, 170688, Note_on_c, 1, 74, 80
4, 170752, Note_on_c, 1, 74, 0
4, 170880, Note_on_c, 1, 75, 80
4, 170944, Note_on_c, 1, 75, 0
4, 171072, Note_on_c, 1, 74, 80
4, 171136, Note_on_c, 1, 74, 0
4, 171264, Note_on_c, 1, 75, 80
4, 172032, Note_on_c, 1, 75, 0
4, 172032, Note_on_c, 1, 73, 80
4, 173472, Note_on_c, 1, 73, 0
4, 173568, Note_on_c, 1, 72, 85
4, 173756, Note_on_c, 1, 72, 0
4, 176640, Note_on_c, 1, 73, 80
4, 177024, Note_on_c, 1, 73, 0
4, 177024, Note_on_c, 1, 72, 80
4, 177212, Note_on_c, 1, 72, 0
4, 180480, Note_on_c, 1, 75, 80
4, 180864, Note_on_c, 1, 75, 0
4, 180864, Note_on_c, 1, 74, 80
4, 181052, Note_on_c, 1, 74, 0
4, 184032, Note_on_c, 1, 71, 80
4, 184128, Note_on_c, 1, 71, 0
4, 184128, Note_on_c, 1, 72, 80
4, 184224, Note_on_c, 1, 72, 0
4, 184224, Note_on_c, 1, 74, 80
4, 184316, Note_on_c, 1, 74, 0
4, 184320, Note_on_c, 1, 76, 80
4, 184508, Note_on_c, 1, 76, 0
4, 184512, Note_on_c, 1, 76, 80
4, 184896, Note_on_c, 1, 76, 0
4, 184896, Note_on_c, 1, 77, 80
4, 185084, Note_on_c, 1, 77, 0
4, 185088, Note_on_c, 1, 76, 80
4, 185184, Note_on_c, 1, 76, 0
4, 185184, Note_on_c, 1, 74, 80
4, 185276, Note_on_c, 1, 74, 0
4, 185280, Note_on_c, 1, 74, 80
4, 185600, Note_on_c, 1, 74, 0
4, 185664, Note_on_c, 1, 79, 80
4, 185852, Note_on_c, 1, 79, 0
4, 185856, Note_on_c, 1, 79, 80
4, 185952, Note_on_c, 1, 79, 0
4, 185952, Note_on_c, 1, 72, 80
4, 186044, Note_on_c, 1, 72, 0
4, 186048, Note_on_c, 1, 72, 80
4, 186368, Note_on_c, 1, 72, 0
4, 186432, Note_on_c, 1, 81, 80
4, 186620, Note_on_c, 1, 81, 0
4, 186624, Note_on_c, 1, 81, 80
4, 186720, Note_on_c, 1, 81, 0
4, 186720, Note_on_c, 1, 74, 80
4, 186812, Note_on_c, 1, 74, 0
4, 186816, Note_on_c, 1, 74, 80
4, 187136, Note_on_c, 1, 74, 0
4, 192192, Note_on_c, 1, 75, 80
4, 192256, Note_on_c, 1, 75, 0
4, 192384, Note_on_c, 1, 75, 80
4, 192448, Note_on_c, 1, 75, 0
4, 192960, Note_on_c, 1, 77, 80
4, 193152, Note_on_c, 1, 77, 0
4, 193152, Note_on_c, 1, 80, 47
4, 193340, Note_on_c, 1, 80, 0
4, 196608, Note_on_c, 1, 75, 85
4, 196928, Note_on_c, 1, 75, 0
4, 196992, Note_on_c, 1, 77, 85
4, 197312, Note_on_c, 1, 77, 0
4, 197376, Note_on_c, 1, 79, 85
4, 197664, Note_on_c, 1, 79, 0
4, 197664, Note_on_c, 1, 77, 85
4, 197712, Note_on_c, 1, 77, 0
4, 197712, Note_on_c, 1, 79, 85
4, 197756, Note_on_c, 1, 79, 0
4, 197760, Note_on_c, 1, 80, 85
4, 197948, Note_on_c, 1, 80, 0
4, 198144, Note_on_c, 1, 82, 85
4, 198432, Note_on_c, 1, 82, 0
4, 198432, Note_on_c, 1, 81, 85
4, 198480, Note_on_c, 1, 81, 0
4, 198480, Note_on_c, 1, 82, 85
4, 198528, Note_on_c, 1, 82, 0
4, 198528, Note_on_c, 1, 84, 85
4, 198716, Note_on_c, 1, 84, 0
4, 198720, Note_on_c, 1, 80, 85
4, 198784, Note_on_c, 1, 80, 0
4, 198912, Note_on_c, 1, 79, 85
4, 199296, Note_on_c, 1, 79, 0
4, 199296, Note_on_c, 1, 77, 85
4, 199392, Note_on_c, 1, 77, 0
4, 199392, Note_on_c, 1, 76, 85
4, 199488, Note_on_c, 1, 76, 0
4, 199488, Note_on_c, 1, 77, 85
4, 199584, Note_on_c, 1, 77, 0
4, 199584, Note_on_c, 1, 78, 85
4, 199680, Note_on_c, 1, 78, 0
4, 199680, Note_on_c, 1, 79, 80
4, 199868, Note_on_c, 1, 79, 0
4, 199872, Note_on_c, 1, 79, 80
4, 200256, Note_on_c, 1, 79, 0
4, 200256, Note_on_c, 1, 80, 80
4, 200444, Note_on_c, 1, 80, 0
4, 200448, Note_on_c, 1, 79, 80
4, 200544, Note_on_c, 1, 79, 0
4, 200544, Note_on_c, 1, 77, 80
4, 200636, Note_on_c, 1, 77, 0
4, 200640, Note_on_c, 1, 77, 80
4, 201024, Note_on_c, 1, 77, 0
4, 201024, Note_on_c, 1, 82, 80
4, 201212, Note_on_c, 1, 82, 0
4, 201216, Note_on_c, 1, 82, 80
4, 201312, Note_on_c, 1, 82, 0
4, 201312, Note_on_c, 1, 76, 80
4, 201404, Note_on_c, 1, 76, 0
4, 201408, Note_on_c, 1, 76, 80
4, 201472, Note_on_c, 1, 76, 0
4, 202752, Note_on_c, 1, 80, 80
4, 202940, Note_on_c, 1, 80, 0
4, 202944, Note_on_c, 1, 80, 80
4, 203328, Note_on_c, 1, 80, 0
4, 203328, Note_on_c, 1, 82, 80
4, 203516, Note_on_c, 1, 82, 0
4, 203520, Note_on_c, 1, 80, 80
4, 203616, Note_on_c, 1, 80, 0
4, 203616, Note_on_c, 1, 79, 80
4, 203708, Note_on_c, 1, 79, 0
4, 203712, Note_on_c, 1, 79, 80
4, 204096, Note_on_c, 1, 79, 0
4, 204096, Note_on_c, 1, 84, 80
4, 204284, Note_on_c, 1, 84, 0
4, 204288, Note_on_c, 1, 84, 80
4, 204384, Note_on_c, 1, 84, 0
4, 204384, Note_on_c, 1, 78, 80
4, 204476, Note_on_c, 1, 78, 0
4, 204480, Note_on_c, 1, 78, 80
4, 204544, Note_on_c, 1, 78, 0
4, 205824, Note_on_c, 1, 82, 80
4, 207680, Note_on_c, 1, 82, 0
4, 209088, Note_on_c, 1, 77, 85
4, 209180, Note_on_c, 1, 77, 0
4, 209184, Note_on_c, 1, 75, 85
4, 209276, Note_on_c, 1, 75, 0
4, 209280, Note_on_c, 1, 74, 85
4, 209372, Note_on_c, 1, 74, 0
4, 209376, Note_on_c, 1, 72, 85
4, 209468, Note_on_c, 1, 72, 0
4, 209472, Note_on_c, 1, 70, 85
4, 209564, Note_on_c, 1, 70, 0
4, 209568, Note_on_c, 1, 68, 85
4, 209660, Note_on_c, 1, 68, 0
4, 209664, Note_on_c, 1, 67, 85
4, 209852, Note_on_c, 1, 67, 0
4, 209856, Note_on_c, 1, 70, 85
4, 210044, Note_on_c, 1, 70, 0
4, 210048, Note_on_c, 1, 75, 85
4, 210236, Note_on_c, 1, 75, 0
4, 210240, Note_on_c, 1, 79, 85
4, 210428, Note_on_c, 1, 79, 0
4, 210432, Note_on_c, 1, 77, 85
4, 210620, Note_on_c, 1, 77, 0
4, 210624, Note_on_c, 1, 77, 85
4, 210716, Note_on_c, 1, 77, 0
4, 210720, Note_on_c, 1, 75, 85
4, 210812, Note_on_c, 1, 75, 0
4, 210816, Note_on_c, 1, 74, 85
4, 210908, Note_on_c, 1, 74, 0
4, 210912, Note_on_c, 1, 72, 85
4, 211004, Note_on_c, 1, 72, 0
4, 211008, Note_on_c, 1, 70, 85
4, 211100, Note_on_c, 1, 70, 0
4, 211104, Note_on_c, 1, 68, 85
4, 211196, Note_on_c, 1, 68, 0
4, 211200, Note_on_c, 1, 67, 85
4, 211388, Note_on_c, 1, 67, 0
4, 211392, Note_on_c, 1, 70, 85
4, 211580, Note_on_c, 1, 70, 0
4, 211584, Note_on_c, 1, 75, 85
4, 211772, Note_on_c, 1, 75, 0
4, 211776, Note_on_c, 1, 79, 85
4, 211964, Note_on_c, 1, 79, 0
4, 211968, Note_on_c, 1, 77, 85
4, 212156, Note_on_c, 1, 77, 0
4, 212352, Note_on_c, 1, 82, 85
4, 212640, Note_on_c, 1, 82, 0
4, 212640, Note_on_c, 1, 79, 85
4, 212732, Note_on_c, 1, 79, 0
4, 212736, Note_on_c, 1, 77, 85
4, 212924, Note_on_c, 1, 77, 0
4, 213120, Note_on_c, 1, 82, 85
4, 213408, Note_on_c, 1, 82, 0
4, 213408, Note_on_c, 1, 79, 85
4, 213500, Note_on_c, 1, 79, 0
4, 213504, Note_on_c, 1, 77, 80
4, 213568, Note_on_c, 1, 77, 0
4, 213696, Note_on_c, 1, 79, 80
4, 213760, Note_on_c, 1, 79, 0
4, 213888, Note_on_c, 1, 77, 80
4, 213952, Note_on_c, 1, 77, 0
4, 214080, Note_on_c, 1, 79, 80
4, 214144, Note_on_c, 1, 79, 0
4, 214272, Note_on_c, 1, 77, 80
4, 214460, Note_on_c, 1, 77, 0
4, 216576, Note_on_c, 1, 80, 85
4, 216672, Note_on_c, 1, 80, 0
4, 216672, Note_on_c, 1, 79, 85
4, 216768, Note_on_c, 1, 79, 0
4, 216768, Note_on_c, 1, 80, 85
4, 216864, Note_on_c, 1, 80, 0
4, 216864, Note_on_c, 1, 79, 85
4, 216960, Note_on_c, 1, 79, 0
4, 216960, Note_on_c, 1, 80, 85
4, 217056, Note_on_c, 1, 80, 0
4, 217056, Note_on_c, 1, 79, 85
4, 217152, Note_on_c, 1, 79, 0
4, 217152, Note_on_c, 1, 80, 85
4, 217248, Note_on_c, 1, 80, 0
4, 217248, Note_on_c, 1, 81, 85
4, 217344, Note_on_c, 1, 81, 0
4, 217344, Note_on_c, 1, 82, 85
4, 217440, Note_on_c, 1, 82, 0
4, 217440, Note_on_c, 1, 81, 85
4, 217536, Note_on_c, 1, 81, 0
4, 217536, Note_on_c, 1, 82, 85
4, 217632, Note_on_c, 1, 82, 0
4, 217632, Note_on_c, 1, 81, 85
4, 217728, Note_on_c, 1, 81, 0
4, 217728, Note_on_c, 1, 82, 85
4, 217916, Note_on_c, 1, 82, 0
4, 221184, Note_on_c, 1, 75, 80
4, 221952, Note_on_c, 1, 75, 0
4, 221952, Note_on_c, 1, 74, 80
4, 222624, Note_on_c, 1, 74, 0
4, 225024, Note_on_c, 1, 80, 80
4, 225088, Note_on_c, 1, 80, 0
4, 225120, Note_on_c, 1, 80, 80
4, 225184, Note_on_c, 1, 80, 0
4, 225216, Note_on_c, 1, 80, 80
4, 225312, Note_on_c, 1, 80, 0
4, 225312, Note_on_c, 1, 84, 80
4, 225404, Note_on_c, 1, 84, 0
4, 225408, Note_on_c, 1, 77, 80
4, 225696, Note_on_c, 1, 77, 0
4, 225696, Note_on_c, 1, 78, 80
4, 225788, Note_on_c, 1, 78, 0
4, 225792, Note_on_c, 1, 79, 80
4, 225888, Note_on_c, 1, 79, 0
4, 225888, Note_on_c, 1, 82, 80
4, 225932, Note_on_c, 1, 82, 0
4, 225984, Note_on_c, 1, 80, 80
4, 226080, Note_on_c, 1, 80, 0
4, 226080, Note_on_c, 1, 84, 80
4, 226124, Note_on_c, 1, 84, 0
4, 226176, Note_on_c, 1, 75, 80
4, 226368, Note_on_c, 1, 75, 0
4, 226368, Note_on_c, 1, 79, 80
4, 226464, Note_on_c, 1, 79, 0
4, 226464, Note_on_c, 1, 77, 80
4, 226556, Note_on_c, 1, 77, 0
4, 226560, Note_on_c, 1, 75, 80
4, 226880, Note_on_c, 1, 75, 0
4, 231936, Note_on_c, 1, 75, 85
4, 232128, Note_on_c, 1, 75, 0
4, 232128, Note_on_c, 1, 82, 85
4, 232320, Note_on_c, 1, 82, 0
4, 232320, Note_on_c, 1, 79, 85
4, 232512, Note_on_c, 1, 79, 0
4, 232512, Note_on_c, 1, 75, 85
4, 232700, Note_on_c, 1, 75, 0
4, 232704, Note_on_c, 1, 74, 85
4, 232768, Note_on_c, 1, 74, 0
4, 232896, Note_on_c, 1, 77, 85
4, 232960, Note_on_c, 1, 77, 0
4, 233088, Note_on_c, 1, 80, 85
4, 233376, Note_on_c, 1, 80, 0
4, 233376, Note_on_c, 1, 79, 85
4, 233424, Note_on_c, 1, 79, 0
4, 233424, Note_on_c, 1, 80, 85
4, 233468, Note_on_c, 1, 80, 0
4, 233472, Note_on_c, 1, 79, 85
4, 233664, Note_on_c, 1, 79, 0
4, 233664, Note_on_c, 1, 82, 85
4, 233856, Note_on_c, 1, 82, 0
4, 233856, Note_on_c, 1, 79, 85
4, 234048, Note_on_c, 1, 79, 0
4, 234048, Note_on_c, 1, 75, 85
4, 234236, Note_on_c, 1, 75, 0
4, 234240, Note_on_c, 1, 74, 85
4, 234304, Note_on_c, 1, 74, 0
4, 234432, Note_on_c, 1, 77, 85
4, 234496, Note_on_c, 1, 77, 0
4, 234624, Note_on_c, 1, 80, 85
4, 234912, Note_on_c, 1, 80, 0
4, 234912, Note_on_c, 1, 79, 85
4, 234960, Note_on_c, 1, 79, 0
4, 234960, Note_on_c, 1, 80, 85
4, 235004, Note_on_c, 1, 80, 0
4, 235008, Note_on_c, 1, 79, 85
4, 235328, Note_on_c, 1, 79, 0
4, 235872, Note_on_c, 1, 77, 80
4, 236060, Note_on_c, 1, 77, 0
4, 236064, Note_on_c, 1, 72, 80
4, 236252, Note_on_c, 1, 72, 0
4, 236256, Note_on_c, 1, 68, 80
4, 236444, Note_on_c, 1, 68, 0
4, 236448, Note_on_c, 1, 65, 80
4, 236540, Note_on_c, 1, 65, 0
4, 236544, Note_on_c, 1, 67, 80
4, 237312, Note_on_c, 1, 67, 0
4, 237312, Note_on_c, 1, 68, 68
4, 237404, Note_on_c, 1, 68, 0
4, 237408, Note_on_c, 1, 80, 71
4, 237596, Note_on_c, 1, 80, 0
4, 237600, Note_on_c, 1, 75, 77
4, 237788, Note_on_c, 1, 75, 0
4, 237792, Note_on_c, 1, 72, 83
4, 237980, Note_on_c, 1, 72, 0
4, 237984, Note_on_c, 1, 68, 89
4, 238076, Note_on_c, 1, 68, 0
4, 238080, Note_on_c, 1, 69, 85
4, 238848, Note_on_c, 1, 69, 0
4, 238848, Note_on_c, 1, 70, 85
4, 239168, Note_on_c, 1, 70, 0
4, 239808, Note_on_c, 1, 67, 80
4, 240092, Note_on_c, 1, 67, 0
4, 240096, Note_on_c, 1, 68, 80
4, 240140, Note_on_c, 1, 68, 0
4, 240144, Note_on_c, 1, 70, 80
4, 240188, Note_on_c, 1, 70, 0
4, 240192, Note_on_c, 1, 72, 80
4, 240236, Note_on_c, 1, 72, 0
4, 240240, Note_on_c, 1, 74, 80
4, 240284, Note_on_c, 1, 74, 0
4, 240288, Note_on_c, 1, 75, 80
4, 240332, Note_on_c, 1, 75, 0
4, 240336, Note_on_c, 1, 77, 80
4, 240380, Note_on_c, 1, 77, 0
4, 240384, Note_on_c, 1, 79, 80
4, 241152, Note_on_c, 1, 79, 0
4, 241152, Note_on_c, 1, 78, 80
4, 241824, Note_on_c, 1, 78, 0
4, 241920, Note_on_c, 1, 77, 76
4, 243456, Note_on_c, 1, 77, 0
4, 243456, Note_on_c, 1, 75, 85
4, 243644, Note_on_c, 1, 75, 0
4, 243936, Note_on_c, 1, 80, 80
4, 244032, Note_on_c, 1, 80, 0
4, 244032, Note_on_c, 1, 84, 80
4, 244128, Note_on_c, 1, 84, 0
4, 244128, Note_on_c, 1, 80, 80
4, 244220, Note_on_c, 1, 80, 0
4, 244320, Note_on_c, 1, 79, 80
4, 244416, Note_on_c, 1, 79, 0
4, 244416, Note_on_c, 1, 82, 80
4, 244512, Note_on_c, 1, 82, 0
4, 244512, Note_on_c, 1, 79, 80
4, 244604, Note_on_c, 1, 79, 0
4, 244704, Note_on_c, 1, 77, 80
4, 244800, Note_on_c, 1, 77, 0
4, 244800, Note_on_c, 1, 80, 80
4, 244896, Note_on_c, 1, 80, 0
4, 244896, Note_on_c, 1, 77, 80
4, 244988, Note_on_c, 1, 77, 0
4, 244992, Note_on_c, 1, 75, 80
4, 245180, Note_on_c, 1, 75, 0
4, 246144, Note_on_c, 1, 77, 80
4, 246432, Note_on_c, 1, 77, 0
4, 246432, Note_on_c, 1, 75, 80
4, 246524, Note_on_c, 1, 75, 0
4, 246528, Note_on_c, 1, 75, 80
4, 246624, Note_on_c, 1, 75, 0
4, 246624, Note_on_c, 1, 74, 80
4, 246720, Note_on_c, 1, 74, 0
4, 246720, Note_on_c, 1, 72, 80
4, 246816, Note_on_c, 1, 72, 0
4, 246816, Note_on_c, 1, 70, 80
4, 246908, Note_on_c, 1, 70, 0
4, 246912, Note_on_c, 1, 70, 80
4, 246976, Note_on_c, 1, 70, 0
4, 247008, Note_on_c, 1, 70, 80
4, 247104, Note_on_c, 1, 70, 0
4, 247104, Note_on_c, 1, 72, 80
4, 247200, Note_on_c, 1, 72, 0
4, 247200, Note_on_c, 1, 74, 80
4, 247292, Note_on_c, 1, 74, 0
4, 247296, Note_on_c, 1, 75, 80
4, 247484, Note_on_c, 1, 75, 0
4, 249600, Note_on_c, 1, 70, 80
4, 251040, Note_on_c, 1, 70, 0
4, 251328, Note_on_c, 1, 77, 80
4, 251472, Note_on_c, 1, 77, 0
4, 251472, Note_on_c, 1, 79, 80
4, 251516, Note_on_c, 1, 79, 0
4, 251520, Note_on_c, 1, 75, 80
4, 251584, Note_on_c, 1, 75, 0
4, 251712, Note_on_c, 1, 77, 80
4, 251856, Note_on_c, 1, 77, 0
4, 251856, Note_on_c, 1, 79, 80
4, 251900, Note_on_c, 1, 79, 0
4, 251904, Note_on_c, 1, 75, 80
4, 252092, Note_on_c, 1, 75, 0
4, 254400, Note_on_c, 1, 77, 80
4, 254544, Note_on_c, 1, 77, 0
4, 254544, Note_on_c, 1, 79, 80
4, 254588, Note_on_c, 1, 79, 0
4, 254592, Note_on_c, 1, 75, 80
4, 254656, Note_on_c, 1, 75, 0
4, 254784, Note_on_c, 1, 77, 80
4, 254928, Note_on_c, 1, 77, 0
4, 254928, Note_on_c, 1, 79, 80
4, 254972, Note_on_c, 1, 79, 0
4, 254976, Note_on_c, 1, 75, 80
4, 255040, Note_on_c, 1, 75, 0
4, 255360, Note_on_c, 1, 79, 85
4, 255680, Note_on_c, 1, 79, 0
4, 255744, Note_on_c, 1, 63, 85
4, 256064, Note_on_c, 1, 63, 0
4, 256064, End_track
5, 0, Start_track
5, 0, MIDI_port, 0
5, 0, Title_t, "Clarinetto in B"
5, 0, Control_c, 2, 0, 0
5, 0, Control_c, 2, 32, 0
5, 0, Program_c, 2, 71
5, 0, Control_c, 2, 7, 115
5, 0, Control_c, 2, 10, 53
5, 1, Control_c, 2, 91, 70
5, 2, Note_on_c, 2, 58, 85
5, 386, Note_on_c, 2, 58, 0
5, 1536, Note_on_c, 2, 68, 85
5, 1920, Note_on_c, 2, 68, 0
5, 3072, Note_on_c, 2, 67, 85
5, 3456, Note_on_c, 2, 67, 0
5, 6144, Note_on_c, 2, 67, 85
5, 6528, Note_on_c, 2, 67, 0
5, 7104, Note_on_c, 2, 70, 80
5, 7240, Note_on_c, 2, 70, 0
5, 7296, Note_on_c, 2, 70, 80
5, 7432, Note_on_c, 2, 70, 0
5, 7488, Note_on_c, 2, 70, 80
5, 7552, Note_on_c, 2, 70, 0
5, 7680, Note_on_c, 2, 68, 85
5, 8064, Note_on_c, 2, 68, 0
5, 8064, Note_on_c, 2, 70, 80
5, 8352, Note_on_c, 2, 70, 0
5, 8352, Note_on_c, 2, 74, 80
5, 8400, Note_on_c, 2, 74, 0
5, 8400, Note_on_c, 2, 72, 80
5, 8448, Note_on_c, 2, 72, 0
5, 8448, Note_on_c, 2, 70, 80
5, 8636, Note_on_c, 2, 70, 0
5, 8640, Note_on_c, 2, 80, 80
5, 8832, Note_on_c, 2, 80, 0
5, 8832, Note_on_c, 2, 79, 80
5, 9024, Note_on_c, 2, 79, 0
5, 9024, Note_on_c, 2, 77, 80
5, 9212, Note_on_c, 2, 77, 0
5, 9216, Note_on_c, 2, 76, 85
5, 9600, Note_on_c, 2, 76, 0
5, 10944, Note_on_c, 2, 78, 80
5, 11136, Note_on_c, 2, 78, 0
5, 11136, Note_on_c, 2, 77, 80
5, 11328, Note_on_c, 2, 77, 0
5, 11328, Note_on_c, 2, 75, 80
5, 11516, Note_on_c, 2, 75, 0
5, 11520, Note_on_c, 2, 74, 80
5, 12192, Note_on_c, 2, 74, 0
5, 12288, Note_on_c, 2, 75, 80
5, 12608, Note_on_c, 2, 75, 0
5, 15552, Note_on_c, 2, 82, 80
5, 15648, Note_on_c, 2, 82, 0
5, 15648, Note_on_c, 2, 80, 80
5, 15744, Note_on_c, 2, 80, 0
5, 15744, Note_on_c, 2, 79, 80
5, 15840, Note_on_c, 2, 79, 0
5, 15840, Note_on_c, 2, 77, 80
5, 15936, Note_on_c, 2, 77, 0
5, 15936, Note_on_c, 2, 75, 80
5, 16032, Note_on_c, 2, 75, 0
5, 16032, Note_on_c, 2, 73, 80
5, 16124, Note_on_c, 2, 73, 0
5, 16128, Note_on_c, 2, 72, 80
5, 16800, Note_on_c, 2, 72, 0
5, 16896, Note_on_c, 2, 70, 80
5, 16988, Note_on_c, 2, 70, 0
5, 17088, Note_on_c, 2, 74, 80
5, 17180, Note_on_c, 2, 74, 0
5, 17280, Note_on_c, 2, 77, 80
5, 17372, Note_on_c, 2, 77, 0
5, 17472, Note_on_c, 2, 68, 80
5, 17564, Note_on_c, 2, 68, 0
5, 17664, Note_on_c, 2, 67, 85
5, 17984, Note_on_c, 2, 67, 0
5, 18576, Note_on_c, 2, 74, 85
5, 18620, Note_on_c, 2, 74, 0
5, 18624, Note_on_c, 2, 74, 85
5, 18764, Note_on_c, 2, 74, 0
5, 18768, Note_on_c, 2, 74, 85
5, 18812, Note_on_c, 2, 74, 0
5, 18816, Note_on_c, 2, 74, 85
5, 19004, Note_on_c, 2, 74, 0
5, 19344, Note_on_c, 2, 70, 85
5, 19388, Note_on_c, 2, 70, 0
5, 19392, Note_on_c, 2, 75, 85
5, 19532, Note_on_c, 2, 75, 0
5, 19536, Note_on_c, 2, 75, 85
5, 19580, Note_on_c, 2, 75, 0
5, 19584, Note_on_c, 2, 75, 85
5, 19772, Note_on_c, 2, 75, 0
5, 20112, Note_on_c, 2, 72, 85
5, 20156, Note_on_c, 2, 72, 0
5, 20160, Note_on_c, 2, 77, 85
5, 20300, Note_on_c, 2, 77, 0
5, 20304, Note_on_c, 2, 77, 85
5, 20348, Note_on_c, 2, 77, 0
5, 20352, Note_on_c, 2, 77, 85
5, 20540, Note_on_c, 2, 77, 0
5, 20880, Note_on_c, 2, 72, 85
5, 20924, Note_on_c, 2, 72, 0
5, 20928, Note_on_c, 2, 75, 85
5, 21068, Note_on_c, 2, 75, 0
5, 21072, Note_on_c, 2, 75, 85
5, 21116, Note_on_c, 2, 75, 0
5, 21120, Note_on_c, 2, 75, 85
5, 21308, Note_on_c, 2, 75, 0
5, 21504, Note_on_c, 2, 69, 80
5, 22272, Note_on_c, 2, 69, 0
5, 22272, Note_on_c, 2, 70, 80
5, 22460, Note_on_c, 2, 70, 0
5, 22464, Note_on_c, 2, 74, 80
5, 22656, Note_on_c, 2, 74, 0
5, 22656, Note_on_c, 2, 75, 80
5, 22704, Note_on_c, 2, 75, 0
5, 22704, Note_on_c, 2, 74, 80
5, 22752, Note_on_c, 2, 74, 0
5, 22752, Note_on_c, 2, 72, 80
5, 22800, Note_on_c, 2, 72, 0
5, 22800, Note_on_c, 2, 74, 80
5, 22848, Note_on_c, 2, 74, 0
5, 22848, Note_on_c, 2, 75, 80
5, 22944, Note_on_c, 2, 75, 0
5, 22944, Note_on_c, 2, 71, 80
5, 23036, Note_on_c, 2, 71, 0
5, 23040, Note_on_c, 2, 72, 80
5, 23228, Note_on_c, 2, 72, 0
5, 23232, Note_on_c, 2, 72, 80
5, 23424, Note_on_c, 2, 72, 0
5, 23424, Note_on_c, 2, 74, 80
5, 23472, Note_on_c, 2, 74, 0
5, 23472, Note_on_c, 2, 72, 80
5, 23520, Note_on_c, 2, 72, 0
5, 23520, Note_on_c, 2, 71, 80
5, 23568, Note_on_c, 2, 71, 0
5, 23568, Note_on_c, 2, 72, 80
5, 23616, Note_on_c, 2, 72, 0
5, 23616, Note_on_c, 2, 74, 80
5, 23708, Note_on_c, 2, 74, 0
5, 23712, Note_on_c, 2, 69, 80
5, 23804, Note_on_c, 2, 69, 0
5, 23808, Note_on_c, 2, 70, 80
5, 23996, Note_on_c, 2, 70, 0
5, 26112, Note_on_c, 2, 75, 80
5, 26880, Note_on_c, 2, 75, 0
5, 26880, Note_on_c, 2, 74, 80
5, 27068, Note_on_c, 2, 74, 0
5, 27264, Note_on_c, 2, 74, 80
5, 27360, Note_on_c, 2, 74, 0
5, 27360, Note_on_c, 2, 75, 80
5, 27404, Note_on_c, 2, 75, 0
5, 27456, Note_on_c, 2, 75, 80
5, 27552, Note_on_c, 2, 75, 0
5, 27552, Note_on_c, 2, 77, 80
5, 27596, Note_on_c, 2, 77, 0
5, 27648, Note_on_c, 2, 77, 80
5, 27836, Note_on_c, 2, 77, 0
5, 28032, Note_on_c, 2, 74, 80
5, 28128, Note_on_c, 2, 74, 0
5, 28128, Note_on_c, 2, 75, 80
5, 28172, Note_on_c, 2, 75, 0
5, 28224, Note_on_c, 2, 75, 80
5, 28320, Note_on_c, 2, 75, 0
5, 28320, Note_on_c, 2, 77, 80
5, 28364, Note_on_c, 2, 77, 0
5, 28416, Note_on_c, 2, 77, 80
5, 28604, Note_on_c, 2, 77, 0
5, 28800, Note_on_c, 2, 74, 80
5, 28896, Note_on_c, 2, 74, 0
5, 28896, Note_on_c, 2, 75, 80
5, 28940, Note_on_c, 2, 75, 0
5, 28992, Note_on_c, 2, 75, 80
5, 29088, Note_on_c, 2, 75, 0
5, 29088, Note_on_c, 2, 77, 80
5, 29132, Note_on_c, 2, 77, 0
5, 29184, Note_on_c, 2, 77, 80
5, 29372, Note_on_c, 2, 77, 0
5, 29520, Note_on_c, 2, 74, 85
5, 29564, Note_on_c, 2, 74, 0
5, 29568, Note_on_c, 2, 74, 85
5, 29756, Note_on_c, 2, 74, 0
5, 29760, Note_on_c, 2, 74, 85
5, 29948, Note_on_c, 2, 74, 0
5, 29952, Note_on_c, 2, 74, 85
5, 30624, Note_on_c, 2, 74, 0
5, 33792, Note_on_c, 2, 70, 85
5, 34112, Note_on_c, 2, 70, 0
5, 34176, Note_on_c, 2, 70, 85
5, 34496, Note_on_c, 2, 70, 0
5, 34560, Note_on_c, 2, 70, 85
5, 34880, Note_on_c, 2, 70, 0
5, 34944, Note_on_c, 2, 68, 85
5, 35132, Note_on_c, 2, 68, 0
5, 35136, Note_on_c, 2, 72, 85
5, 35324, Note_on_c, 2, 72, 0
5, 35328, Note_on_c, 2, 75, 85
5, 35840, Note_on_c, 2, 75, 0
5, 35904, Note_on_c, 2, 77, 85
5, 36092, Note_on_c, 2, 77, 0
5, 36096, Note_on_c, 2, 75, 85
5, 36480, Note_on_c, 2, 75, 0
5, 36480, Note_on_c, 2, 74, 85
5, 36668, Note_on_c, 2, 74, 0
5, 37056, Note_on_c, 2, 70, 80
5, 37192, Note_on_c, 2, 70, 0
5, 37248, Note_on_c, 2, 70, 80
5, 37384, Note_on_c, 2, 70, 0
5, 37440, Note_on_c, 2, 70, 80
5, 37504, Note_on_c, 2, 70, 0
5, 37824, Note_on_c, 2, 70, 80
5, 37960, Note_on_c, 2, 70, 0
5, 38016, Note_on_c, 2, 70, 80
5, 38152, Note_on_c, 2, 70, 0
5, 38208, Note_on_c, 2, 70, 80
5, 38272, Note_on_c, 2, 70, 0
5, 38592, Note_on_c, 2, 70, 80
5, 38784, Note_on_c, 2, 70, 0
5, 38784, Note_on_c, 2, 68, 80
5, 38972, Note_on_c, 2, 68, 0
5, 38976, Note_on_c, 2, 80, 80
5, 39072, Note_on_c, 2, 80, 0
5, 39072, Note_on_c, 2, 77, 80
5, 39164, Note_on_c, 2, 77, 0
5, 39168, Note_on_c, 2, 75, 80
5, 39552, Note_on_c, 2, 75, 0
5, 39552, Note_on_c, 2, 74, 80
5, 39740, Note_on_c, 2, 74, 0
5, 39936, Note_on_c, 2, 63, 85
5, 40256, Note_on_c, 2, 63, 0
5, 40320, Note_on_c, 2, 65, 85
5, 40640, Note_on_c, 2, 65, 0
5, 40704, Note_on_c, 2, 67, 85
5, 40992, Note_on_c, 2, 67, 0
5, 40992, Note_on_c, 2, 65, 85
5, 41040, Note_on_c, 2, 65, 0
5, 41040, Note_on_c, 2, 67, 85
5, 41088, Note_on_c, 2, 67, 0
5, 41088, Note_on_c, 2, 68, 85
5, 41276, Note_on_c, 2, 68, 0
5, 41280, Note_on_c, 2, 69, 85
5, 41344, Note_on_c, 2, 69, 0
5, 41472, Note_on_c, 2, 70, 85
5, 41568, Note_on_c, 2, 70, 0
5, 41568, Note_on_c, 2, 67, 85
5, 41660, Note_on_c, 2, 67, 0
5, 41664, Note_on_c, 2, 63, 85
5, 41760, Note_on_c, 2, 63, 0
5, 41760, Note_on_c, 2, 67, 85
5, 41852, Note_on_c, 2, 67, 0
5, 41856, Note_on_c, 2, 67, 85
5, 41952, Note_on_c, 2, 67, 0
5, 41952, Note_on_c, 2, 65, 85
5, 42048, Note_on_c, 2, 65, 0
5, 42048, Note_on_c, 2, 63, 85
5, 42144, Note_on_c, 2, 63, 0
5, 42144, Note_on_c, 2, 62, 85
5, 42236, Note_on_c, 2, 62, 0
5, 42240, Note_on_c, 2, 63, 85
5, 42428, Note_on_c, 2, 63, 0
5, 42624, Note_on_c, 2, 67, 80
5, 42816, Note_on_c, 2, 67, 0
5, 42816, Note_on_c, 2, 70, 80
5, 43004, Note_on_c, 2, 70, 0
5, 43008, Note_on_c, 2, 68, 80
5, 43196, Note_on_c, 2, 68, 0
5, 43392, Note_on_c, 2, 68, 80
5, 43584, Note_on_c, 2, 68, 0
5, 43584, Note_on_c, 2, 67, 80
5, 43772, Note_on_c, 2, 67, 0
5, 43776, Note_on_c, 2, 65, 80
5, 44544, Note_on_c, 2, 65, 0
5, 44544, Note_on_c, 2, 63, 80
5, 44732, Note_on_c, 2, 63, 0
5, 44928, Note_on_c, 2, 63, 80
5, 45120, Note_on_c, 2, 63, 0
5, 45120, Note_on_c, 2, 61, 80
5, 45308, Note_on_c, 2, 61, 0
5, 45312, Note_on_c, 2, 60, 80
5, 45500, Note_on_c, 2, 60, 0
5, 45696, Note_on_c, 2, 65, 80
5, 45888, Note_on_c, 2, 65, 0
5, 45888, Note_on_c, 2, 63, 80
5, 46076, Note_on_c, 2, 63, 0
5, 46080, Note_on_c, 2, 62, 80
5, 46848, Note_on_c, 2, 62, 0
5, 46848, Note_on_c, 2, 63, 80
5, 47036, Note_on_c, 2, 63, 0
5, 47424, Note_on_c, 2, 74, 80
5, 47616, Note_on_c, 2, 74, 0
5, 47616, Note_on_c, 2, 75, 80
5, 47804, Note_on_c, 2, 75, 0
5, 48192, Note_on_c, 2, 74, 80
5, 48384, Note_on_c, 2, 74, 0
5, 48384, Note_on_c, 2, 75, 80
5, 48572, Note_on_c, 2, 75, 0
5, 50880, Note_on_c, 2, 74, 85
5, 50972, Note_on_c, 2, 74, 0
5, 50976, Note_on_c, 2, 72, 85
5, 51068, Note_on_c, 2, 72, 0
5, 51072, Note_on_c, 2, 70, 85
5, 51164, Note_on_c, 2, 70, 0
5, 51168, Note_on_c, 2, 68, 85
5, 51260, Note_on_c, 2, 68, 0
5, 51264, Note_on_c, 2, 67, 85
5, 51356, Note_on_c, 2, 67, 0
5, 51360, Note_on_c, 2, 65, 85
5, 51452, Note_on_c, 2, 65, 0
5, 51456, Note_on_c, 2, 63, 85
5, 51644, Note_on_c, 2, 63, 0
5, 51648, Note_on_c, 2, 67, 85
5, 51836, Note_on_c, 2, 67, 0
5, 51840, Note_on_c, 2, 70, 85
5, 52028, Note_on_c, 2, 70, 0
5, 52032, Note_on_c, 2, 75, 85
5, 52220, Note_on_c, 2, 75, 0
5, 52224, Note_on_c, 2, 74, 85
5, 52412, Note_on_c, 2, 74, 0
5, 52416, Note_on_c, 2, 74, 85
5, 52508, Note_on_c, 2, 74, 0
5, 52512, Note_on_c, 2, 72, 85
5, 52604, Note_on_c, 2, 72, 0
5, 52608, Note_on_c, 2, 70, 85
5, 52700, Note_on_c, 2, 70, 0
5, 52704, Note_on_c, 2, 68, 85
5, 52796, Note_on_c, 2, 68, 0
5, 52800, Note_on_c, 2, 67, 85
5, 52892, Note_on_c, 2, 67, 0
5, 52896, Note_on_c, 2, 65, 85
5, 52988, Note_on_c, 2, 65, 0
5, 52992, Note_on_c, 2, 63, 85
5, 53180, Note_on_c, 2, 63, 0
5, 53184, Note_on_c, 2, 67, 85
5, 53372, Note_on_c, 2, 67, 0
5, 53376, Note_on_c, 2, 70, 85
5, 53564, Note_on_c, 2, 70, 0
5, 53568, Note_on_c, 2, 75, 85
5, 53756, Note_on_c, 2, 75, 0
5, 53760, Note_on_c, 2, 74, 85
5, 54080, Note_on_c, 2, 74, 0
5, 55488, Note_on_c, 2, 69, 80
5, 55872, Note_on_c, 2, 69, 0
5, 55872, Note_on_c, 2, 71, 80
5, 56060, Note_on_c, 2, 71, 0
5, 56064, Note_on_c, 2, 72, 80
5, 56640, Note_on_c, 2, 72, 0
5, 56640, Note_on_c, 2, 69, 80
5, 56828, Note_on_c, 2, 69, 0
5, 56832, Note_on_c, 2, 70, 80
5, 57152, Note_on_c, 2, 70, 0
5, 60480, Note_on_c, 2, 74, 80
5, 60624, Note_on_c, 2, 74, 0
5, 60624, Note_on_c, 2, 75, 80
5, 60668, Note_on_c, 2, 75, 0
5, 60672, Note_on_c, 2, 72, 80
5, 60736, Note_on_c, 2, 72, 0
5, 60864, Note_on_c, 2, 72, 80
5, 61008, Note_on_c, 2, 72, 0
5, 61008, Note_on_c, 2, 74, 80
5, 61052, Note_on_c, 2, 74, 0
5, 61056, Note_on_c, 2, 70, 80
5, 61120, Note_on_c, 2, 70, 0
5, 61248, Note_on_c, 2, 70, 80
5, 61392, Note_on_c, 2, 70, 0
5, 61392, Note_on_c, 2, 72, 80
5, 61436, Note_on_c, 2, 72, 0
5, 61440, Note_on_c, 2, 69, 80
5, 61628, Note_on_c, 2, 69, 0
5, 61824, Note_on_c, 2, 74, 80
5, 62112, Note_on_c, 2, 74, 0
5, 62112, Note_on_c, 2, 70, 80
5, 62204, Note_on_c, 2, 70, 0
5, 62208, Note_on_c, 2, 69, 80
5, 62396, Note_on_c, 2, 69, 0
5, 62592, Note_on_c, 2, 74, 80
5, 62880, Note_on_c, 2, 74, 0
5, 62880, Note_on_c, 2, 70, 80
5, 62972, Note_on_c, 2, 70, 0
5, 62976, Note_on_c, 2, 69, 80
5, 63040, Note_on_c, 2, 69, 0
5, 63168, Note_on_c, 2, 70, 80
5, 63232, Note_on_c, 2, 70, 0
5, 63360, Note_on_c, 2, 69, 80
5, 63424, Note_on_c, 2, 69, 0
5, 63552, Note_on_c, 2, 70, 80
5, 63616, Note_on_c, 2, 70, 0
5, 63744, Note_on_c, 2, 69, 80
5, 63932, Note_on_c, 2, 69, 0
5, 66048, Note_on_c, 2, 72, 85
5, 66144, Note_on_c, 2, 72, 0
5, 66144, Note_on_c, 2, 71, 85
5, 66240, Note_on_c, 2, 71, 0
5, 66240, Note_on_c, 2, 72, 85
5, 66336, Note_on_c, 2, 72, 0
5, 66336, Note_on_c, 2, 71, 85
5, 66432, Note_on_c, 2, 71, 0
5, 66432, Note_on_c, 2, 72, 85
5, 66528, Note_on_c, 2, 72, 0
5, 66528, Note_on_c, 2, 71, 85
5, 66624, Note_on_c, 2, 71, 0
5, 66624, Note_on_c, 2, 72, 85
5, 66720, Note_on_c, 2, 72, 0
5, 66720, Note_on_c, 2, 73, 85
5, 66816, Note_on_c, 2, 73, 0
5, 66816, Note_on_c, 2, 74, 85
5, 66912, Note_on_c, 2, 74, 0
5, 66912, Note_on_c, 2, 73, 85
5, 67008, Note_on_c, 2, 73, 0
5, 67008, Note_on_c, 2, 74, 85
5, 67104, Note_on_c, 2, 74, 0
5, 67104, Note_on_c, 2, 73, 85
5, 67196, Note_on_c, 2, 73, 0
5, 67200, Note_on_c, 2, 74, 85
5, 67388, Note_on_c, 2, 74, 0
5, 70656, Note_on_c, 2, 70, 80
5, 71424, Note_on_c, 2, 70, 0
5, 71424, Note_on_c, 2, 69, 80
5, 72096, Note_on_c, 2, 69, 0
5, 74112, Note_on_c, 2, 70, 80
5, 74180, Note_on_c, 2, 70, 0
5, 74208, Note_on_c, 2, 70, 80
5, 74276, Note_on_c, 2, 70, 0
5, 74304, Note_on_c, 2, 70, 80
5, 74372, Note_on_c, 2, 70, 0
5, 74400, Note_on_c, 2, 70, 80
5, 74464, Note_on_c, 2, 70, 0
5, 74496, Note_on_c, 2, 70, 80
5, 74684, Note_on_c, 2, 70, 0
5, 74880, Note_on_c, 2, 69, 80
5, 74948, Note_on_c, 2, 69, 0
5, 74976, Note_on_c, 2, 69, 80
5, 75044, Note_on_c, 2, 69, 0
5, 75072, Note_on_c, 2, 69, 80
5, 75140, Note_on_c, 2, 69, 0
5, 75168, Note_on_c, 2, 69, 80
5, 75232, Note_on_c, 2, 69, 0
5, 75264, Note_on_c, 2, 70, 80
5, 75328, Note_on_c, 2, 70, 0
5, 75456, Note_on_c, 2, 70, 80
5, 75520, Note_on_c, 2, 70, 0
5, 75648, Note_on_c, 2, 62, 80
5, 75840, Note_on_c, 2, 62, 0
5, 75840, Note_on_c, 2, 65, 80
5, 75936, Note_on_c, 2, 65, 0
5, 75936, Note_on_c, 2, 63, 80
5, 76028, Note_on_c, 2, 63, 0
5, 76032, Note_on_c, 2, 62, 80
5, 76352, Note_on_c, 2, 62, 0
5, 81504, Note_on_c, 2, 70, 85
5, 81692, Note_on_c, 2, 70, 0
5, 81696, Note_on_c, 2, 65, 85
5, 81884, Note_on_c, 2, 65, 0
5, 81888, Note_on_c, 2, 62, 85
5, 82076, Note_on_c, 2, 62, 0
5, 82080, Note_on_c, 2, 58, 85
5, 82172, Note_on_c, 2, 58, 0
5, 82176, Note_on_c, 2, 60, 85
5, 82364, Note_on_c, 2, 60, 0
5, 82368, Note_on_c, 2, 63, 85
5, 82556, Note_on_c, 2, 63, 0
5, 82560, Note_on_c, 2, 57, 85
5, 82748, Note_on_c, 2, 57, 0
5, 82752, Note_on_c, 2, 69, 85
5, 82816, Note_on_c, 2, 69, 0
5, 82816, Note_on_c, 2, 70, 85
5, 82880, Note_on_c, 2, 70, 0
5, 82880, Note_on_c, 2, 72, 85
5, 82940, Note_on_c, 2, 72, 0
5, 82944, Note_on_c, 2, 70, 85
5, 83036, Note_on_c, 2, 70, 0
5, 83040, Note_on_c, 2, 70, 85
5, 83228, Note_on_c, 2, 70, 0
5, 83232, Note_on_c, 2, 65, 85
5, 83420, Note_on_c, 2, 65, 0
5, 83424, Note_on_c, 2, 62, 85
5, 83612, Note_on_c, 2, 62, 0
5, 83616, Note_on_c, 2, 58, 85
5, 83708, Note_on_c, 2, 58, 0
5, 83712, Note_on_c, 2, 60, 85
5, 83900, Note_on_c, 2, 60, 0
5, 83904, Note_on_c, 2, 63, 85
5, 84092, Note_on_c, 2, 63, 0
5, 84096, Note_on_c, 2, 57, 85
5, 84284, Note_on_c, 2, 57, 0
5, 84288, Note_on_c, 2, 69, 85
5, 84352, Note_on_c, 2, 69, 0
5, 84352, Note_on_c, 2, 70, 85
5, 84416, Note_on_c, 2, 70, 0
5, 84416, Note_on_c, 2, 72, 85
5, 84476, Note_on_c, 2, 72, 0
5, 84480, Note_on_c, 2, 70, 80
5, 84572, Note_on_c, 2, 70, 0
5, 84576, Note_on_c, 2, 82, 80
5, 84764, Note_on_c, 2, 82, 0
5, 84768, Note_on_c, 2, 77, 80
5, 84956, Note_on_c, 2, 77, 0
5, 84960, Note_on_c, 2, 74, 80
5, 85148, Note_on_c, 2, 74, 0
5, 85152, Note_on_c, 2, 71, 80
5, 85244, Note_on_c, 2, 71, 0
5, 85248, Note_on_c, 2, 72, 80
5, 85568, Note_on_c, 2, 72, 0
5, 86016, Note_on_c, 2, 70, 80
5, 86972, Note_on_c, 2, 70, 0
5, 86976, Note_on_c, 2, 70, 80
5, 87264, Note_on_c, 2, 70, 0
5, 87264, Note_on_c, 2, 72, 80
5, 87312, Note_on_c, 2, 72, 0
5, 87312, Note_on_c, 2, 74, 80
5, 87360, Note_on_c, 2, 74, 0
5, 87360, Note_on_c, 2, 75, 80
5, 87408, Note_on_c, 2, 75, 0
5, 87408, Note_on_c, 2, 77, 80
5, 87456, Note_on_c, 2, 77, 0
5, 87456, Note_on_c, 2, 79, 80
5, 87504, Note_on_c, 2, 79, 0
5, 87504, Note_on_c, 2, 81, 80
5, 87548, Note_on_c, 2, 81, 0
5, 87552, Note_on_c, 2, 82, 80
5, 88704, Note_on_c, 2, 82, 0
5, 88704, Note_on_c, 2, 81, 80
5, 89024, Note_on_c, 2, 81, 0
5, 89088, Note_on_c, 2, 80, 54
5, 89472, Note_on_c, 2, 80, 0
5, 89472, Note_on_c, 2, 79, 63
5, 90528, Note_on_c, 2, 79, 0
5, 90624, Note_on_c, 2, 72, 85
5, 91008, Note_on_c, 2, 72, 0
5, 91008, Note_on_c, 2, 70, 85
5, 91196, Note_on_c, 2, 70, 0
5, 91488, Note_on_c, 2, 72, 80
5, 91584, Note_on_c, 2, 72, 0
5, 91584, Note_on_c, 2, 75, 80
5, 91680, Note_on_c, 2, 75, 0
5, 91680, Note_on_c, 2, 72, 80
5, 91772, Note_on_c, 2, 72, 0
5, 91872, Note_on_c, 2, 69, 80
5, 91968, Note_on_c, 2, 69, 0
5, 91968, Note_on_c, 2, 72, 80
5, 92064, Note_on_c, 2, 72, 0
5, 92064, Note_on_c, 2, 69, 80
5, 92156, Note_on_c, 2, 69, 0
5, 92160, Note_on_c, 2, 70, 80
5, 92348, Note_on_c, 2, 70, 0
5, 92544, Note_on_c, 2, 77, 80
5, 92928, Note_on_c, 2, 77, 0
5, 92928, Note_on_c, 2, 75, 80
5, 93116, Note_on_c, 2, 75, 0
5, 94848, Note_on_c, 2, 77, 80
5, 95232, Note_on_c, 2, 77, 0
5, 95232, Note_on_c, 2, 75, 80
5, 95420, Note_on_c, 2, 75, 0
5, 96864, Note_on_c, 2, 74, 80
5, 96960, Note_on_c, 2, 74, 0
5, 96960, Note_on_c, 2, 77, 80
5, 97056, Note_on_c, 2, 77, 0
5, 97056, Note_on_c, 2, 74, 80
5, 97152, Note_on_c, 2, 74, 0
5, 97152, Note_on_c, 2, 72, 80
5, 97248, Note_on_c, 2, 72, 0
5, 97248, Note_on_c, 2, 75, 80
5, 97344, Note_on_c, 2, 75, 0
5, 97344, Note_on_c, 2, 65, 80
5, 97440, Note_on_c, 2, 65, 0
5, 97440, Note_on_c, 2, 69, 80
5, 97532, Note_on_c, 2, 69, 0
5, 97536, Note_on_c, 2, 70, 80
5, 97600, Note_on_c, 2, 70, 0
5, 97632, Note_on_c, 2, 74, 80
5, 97728, Note_on_c, 2, 74, 0
5, 97728, Note_on_c, 2, 77, 80
5, 97824, Note_on_c, 2, 77, 0
5, 97824, Note_on_c, 2, 74, 80
5, 97920, Note_on_c, 2, 74, 0
5, 97920, Note_on_c, 2, 72, 80
5, 98016, Note_on_c, 2, 72, 0
5, 98016, Note_on_c, 2, 75, 80
5, 98112, Note_on_c, 2, 75, 0
5, 98112, Note_on_c, 2, 65, 80
5, 98208, Note_on_c, 2, 65, 0
5, 98208, Note_on_c, 2, 69, 80
5, 98300, Note_on_c, 2, 69, 0
5, 98304, Note_on_c, 2, 70, 80
5, 98368, Note_on_c, 2, 70, 0
5, 98496, Note_on_c, 2, 75, 80
5, 98560, Note_on_c, 2, 75, 0
5, 98688, Note_on_c, 2, 74, 80
5, 98752, Note_on_c, 2, 74, 0
5, 98880, Note_on_c, 2, 75, 80
5, 98944, Note_on_c, 2, 75, 0
5, 99072, Note_on_c, 2, 74, 80
5, 99260, Note_on_c, 2, 74, 0
5, 102912, Note_on_c, 2, 70, 85
5, 103232, Note_on_c, 2, 70, 0
5, 103296, Note_on_c, 2, 70, 85
5, 103616, Note_on_c, 2, 70, 0
5, 103680, Note_on_c, 2, 70, 85
5, 104000, Note_on_c, 2, 70, 0
5, 104064, Note_on_c, 2, 68, 85
5, 104252, Note_on_c, 2, 68, 0
5, 104256, Note_on_c, 2, 72, 85
5, 104444, Note_on_c, 2, 72, 0
5, 104448, Note_on_c, 2, 75, 85
5, 104960, Note_on_c, 2, 75, 0
5, 105024, Note_on_c, 2, 77, 85
5, 105212, Note_on_c, 2, 77, 0
5, 105216, Note_on_c, 2, 75, 85
5, 105600, Note_on_c, 2, 75, 0
5, 105600, Note_on_c, 2, 74, 85
5, 105788, Note_on_c, 2, 74, 0
5, 106176, Note_on_c, 2, 70, 80
5, 106312, Note_on_c, 2, 70, 0
5, 106368, Note_on_c, 2, 70, 80
5, 106504, Note_on_c, 2, 70, 0
5, 106560, Note_on_c, 2, 70, 80
5, 106624, Note_on_c, 2, 70, 0
5, 106944, Note_on_c, 2, 70, 80
5, 107080, Note_on_c, 2, 70, 0
5, 107136, Note_on_c, 2, 70, 80
5, 107272, Note_on_c, 2, 70, 0
5, 107328, Note_on_c, 2, 70, 80
5, 107392, Note_on_c, 2, 70, 0
5, 107712, Note_on_c, 2, 70, 80
5, 107904, Note_on_c, 2, 70, 0
5, 107904, Note_on_c, 2, 68, 80
5, 108092, Note_on_c, 2, 68, 0
5, 108096, Note_on_c, 2, 80, 80
5, 108192, Note_on_c, 2, 80, 0
5, 108192, Note_on_c, 2, 77, 80
5, 108284, Note_on_c, 2, 77, 0
5, 108288, Note_on_c, 2, 75, 80
5, 108672, Note_on_c, 2, 75, 0
5, 108672, Note_on_c, 2, 74, 80
5, 108860, Note_on_c, 2, 74, 0
5, 109056, Note_on_c, 2, 63, 85
5, 109376, Note_on_c, 2, 63, 0
5, 109440, Note_on_c, 2, 65, 85
5, 109760, Note_on_c, 2, 65, 0
5, 109824, Note_on_c, 2, 67, 85
5, 110112, Note_on_c, 2, 67, 0
5, 110112, Note_on_c, 2, 65, 85
5, 110160, Note_on_c, 2, 65, 0
5, 110160, Note_on_c, 2, 67, 85
5, 110208, Note_on_c, 2, 67, 0
5, 110208, Note_on_c, 2, 68, 85
5, 110396, Note_on_c, 2, 68, 0
5, 110400, Note_on_c, 2, 69, 85
5, 110464, Note_on_c, 2, 69, 0
5, 110592, Note_on_c, 2, 70, 85
5, 110688, Note_on_c, 2, 70, 0
5, 110688, Note_on_c, 2, 67, 85
5, 110780, Note_on_c, 2, 67, 0
5, 110784, Note_on_c, 2, 63, 85
5, 110880, Note_on_c, 2, 63, 0
5, 110880, Note_on_c, 2, 67, 85
5, 110972, Note_on_c, 2, 67, 0
5, 110976, Note_on_c, 2, 67, 85
5, 111072, Note_on_c, 2, 67, 0
5, 111072, Note_on_c, 2, 65, 85
5, 111168, Note_on_c, 2, 65, 0
5, 111168, Note_on_c, 2, 63, 85
5, 111264, Note_on_c, 2, 63, 0
5, 111264, Note_on_c, 2, 62, 85
5, 111356, Note_on_c, 2, 62, 0
5, 111360, Note_on_c, 2, 63, 85
5, 111548, Note_on_c, 2, 63, 0
5, 111744, Note_on_c, 2, 67, 80
5, 111936, Note_on_c, 2, 67, 0
5, 111936, Note_on_c, 2, 70, 80
5, 112124, Note_on_c, 2, 70, 0
5, 112128, Note_on_c, 2, 68, 80
5, 112316, Note_on_c, 2, 68, 0
5, 112512, Note_on_c, 2, 68, 80
5, 112704, Note_on_c, 2, 68, 0
5, 112704, Note_on_c, 2, 67, 80
5, 112892, Note_on_c, 2, 67, 0
5, 112896, Note_on_c, 2, 65, 80
5, 113664, Note_on_c, 2, 65, 0
5, 113664, Note_on_c, 2, 63, 80
5, 113852, Note_on_c, 2, 63, 0
5, 114048, Note_on_c, 2, 63, 80
5, 114240, Note_on_c, 2, 63, 0
5, 114240, Note_on_c, 2, 61, 80
5, 114428, Note_on_c, 2, 61, 0
5, 114432, Note_on_c, 2, 60, 80
5, 114620, Note_on_c, 2, 60, 0
5, 114816, Note_on_c, 2, 65, 80
5, 115008, Note_on_c, 2, 65, 0
5, 115008, Note_on_c, 2, 63, 80
5, 115196, Note_on_c, 2, 63, 0
5, 115200, Note_on_c, 2, 62, 80
5, 115968, Note_on_c, 2, 62, 0
5, 115968, Note_on_c, 2, 63, 80
5, 116156, Note_on_c, 2, 63, 0
5, 116544, Note_on_c, 2, 74, 80
5, 116736, Note_on_c, 2, 74, 0
5, 116736, Note_on_c, 2, 75, 80
5, 116924, Note_on_c, 2, 75, 0
5, 117312, Note_on_c, 2, 74, 80
5, 117504, Note_on_c, 2, 74, 0
5, 117504, Note_on_c, 2, 75, 80
5, 117692, Note_on_c, 2, 75, 0
5, 120000, Note_on_c, 2, 74, 85
5, 120092, Note_on_c, 2, 74, 0
5, 120096, Note_on_c, 2, 72, 85
5, 120188, Note_on_c, 2, 72, 0
5, 120192, Note_on_c, 2, 70, 85
5, 120284, Note_on_c, 2, 70, 0
5, 120288, Note_on_c, 2, 68, 85
5, 120380, Note_on_c, 2, 68, 0
5, 120384, Note_on_c, 2, 67, 85
5, 120476, Note_on_c, 2, 67, 0
5, 120480, Note_on_c, 2, 65, 85
5, 120572, Note_on_c, 2, 65, 0
5, 120576, Note_on_c, 2, 63, 85
5, 120764, Note_on_c, 2, 63, 0
5, 120768, Note_on_c, 2, 67, 85
5, 120956, Note_on_c, 2, 67, 0
5, 120960, Note_on_c, 2, 70, 85
5, 121148, Note_on_c, 2, 70, 0
5, 121152, Note_on_c, 2, 75, 85
5, 121340, Note_on_c, 2, 75, 0
5, 121344, Note_on_c, 2, 74, 85
5, 121532, Note_on_c, 2, 74, 0
5, 121536, Note_on_c, 2, 74, 85
5, 121628, Note_on_c, 2, 74, 0
5, 121632, Note_on_c, 2, 72, 85
5, 121724, Note_on_c, 2, 72, 0
5, 121728, Note_on_c, 2, 70, 85
5, 121820, Note_on_c, 2, 70, 0
5, 121824, Note_on_c, 2, 68, 85
5, 121916, Note_on_c, 2, 68, 0
5, 121920, Note_on_c, 2, 67, 85
5, 122012, Note_on_c, 2, 67, 0
5, 122016, Note_on_c, 2, 65, 85
5, 122108, Note_on_c, 2, 65, 0
5, 122112, Note_on_c, 2, 63, 85
5, 122300, Note_on_c, 2, 63, 0
5, 122304, Note_on_c, 2, 67, 85
5, 122492, Note_on_c, 2, 67, 0
5, 122496, Note_on_c, 2, 70, 85
5, 122684, Note_on_c, 2, 70, 0
5, 122688, Note_on_c, 2, 75, 85
5, 122876, Note_on_c, 2, 75, 0
5, 122880, Note_on_c, 2, 74, 85
5, 123200, Note_on_c, 2, 74, 0
5, 124608, Note_on_c, 2, 69, 80
5, 124992, Note_on_c, 2, 69, 0
5, 124992, Note_on_c, 2, 71, 80
5, 125180, Note_on_c, 2, 71, 0
5, 125184, Note_on_c, 2, 72, 80
5, 125760, Note_on_c, 2, 72, 0
5, 125760, Note_on_c, 2, 69, 80
5, 125948, Note_on_c, 2, 69, 0
5, 125952, Note_on_c, 2, 70, 80
5, 126272, Note_on_c, 2, 70, 0
5, 129600, Note_on_c, 2, 74, 80
5, 129744, Note_on_c, 2, 74, 0
5, 129744, Note_on_c, 2, 75, 80
5, 129788, Note_on_c, 2, 75, 0
5, 129792, Note_on_c, 2, 72, 80
5, 129856, Note_on_c, 2, 72, 0
5, 129984, Note_on_c, 2, 72, 80
5, 130128, Note_on_c, 2, 72, 0
5, 130128, Note_on_c, 2, 74, 80
5, 130172, Note_on_c, 2, 74, 0
5, 130176, Note_on_c, 2, 70, 80
5, 130240, Note_on_c, 2, 70, 0
5, 130368, Note_on_c, 2, 70, 80
5, 130512, Note_on_c, 2, 70, 0
5, 130512, Note_on_c, 2, 72, 80
5, 130556, Note_on_c, 2, 72, 0
5, 130560, Note_on_c, 2, 69, 80
5, 130748, Note_on_c, 2, 69, 0
5, 130944, Note_on_c, 2, 74, 80
5, 131232, Note_on_c, 2, 74, 0
5, 131232, Note_on_c, 2, 70, 80
5, 131324, Note_on_c, 2, 70, 0
5, 131328, Note_on_c, 2, 69, 80
5, 131516, Note_on_c, 2, 69, 0
5, 131712, Note_on_c, 2, 74, 80
5, 132000, Note_on_c, 2, 74, 0
5, 132000, Note_on_c, 2, 70, 80
5, 132092, Note_on_c, 2, 70, 0
5, 132096, Note_on_c, 2, 69, 80
5, 132160, Note_on_c, 2, 69, 0
5, 132288, Note_on_c, 2, 70, 80
5, 132352, Note_on_c, 2, 70, 0
5, 132480, Note_on_c, 2, 69, 80
5, 132544, Note_on_c, 2, 69, 0
5, 132672, Note_on_c, 2, 70, 80
5, 132736, Note_on_c, 2, 70, 0
5, 132864, Note_on_c, 2, 69, 80
5, 133052, Note_on_c, 2, 69, 0
5, 135168, Note_on_c, 2, 72, 85
5, 135264, Note_on_c, 2, 72, 0
5, 135264, Note_on_c, 2, 71, 85
5, 135360, Note_on_c, 2, 71, 0
5, 135360, Note_on_c, 2, 72, 85
5, 135456, Note_on_c, 2, 72, 0
5, 135456, Note_on_c, 2, 71, 85
5, 135552, Note_on_c, 2, 71, 0
5, 135552, Note_on_c, 2, 72, 85
5, 135648, Note_on_c, 2, 72, 0
5, 135648, Note_on_c, 2, 71, 85
5, 135744, Note_on_c, 2, 71, 0
5, 135744, Note_on_c, 2, 72, 85
5, 135840, Note_on_c, 2, 72, 0
5, 135840, Note_on_c, 2, 73, 85
5, 135936, Note_on_c, 2, 73, 0
5, 135936, Note_on_c, 2, 74, 85
5, 136032, Note_on_c, 2, 74, 0
5, 136032, Note_on_c, 2, 73, 85
5, 136128, Note_on_c, 2, 73, 0
5, 136128, Note_on_c, 2, 74, 85
5, 136224, Note_on_c, 2, 74, 0
5, 136224, Note_on_c, 2, 73, 85
5, 136316, Note_on_c, 2, 73, 0
5, 136320, Note_on_c, 2, 74, 85
5, 136508, Note_on_c, 2, 74, 0
5, 139776, Note_on_c, 2, 70, 80
5, 140544, Note_on_c, 2, 70, 0
5, 140544, Note_on_c, 2, 69, 80
5, 141216, Note_on_c, 2, 69, 0
5, 143232, Note_on_c, 2, 70, 80
5, 143300, Note_on_c, 2, 70, 0
5, 143328, Note_on_c, 2, 70, 80
5, 143396, Note_on_c, 2, 70, 0
5, 143424, Note_on_c, 2, 70, 80
5, 143492, Note_on_c, 2, 70, 0
5, 143520, Note_on_c, 2, 70, 80
5, 143584, Note_on_c, 2, 70, 0
5, 143616, Note_on_c, 2, 70, 80
5, 143804, Note_on_c, 2, 70, 0
5, 144000, Note_on_c, 2, 69, 80
5, 144068, Note_on_c, 2, 69, 0
5, 144096, Note_on_c, 2, 69, 80
5, 144164, Note_on_c, 2, 69, 0
5, 144192, Note_on_c, 2, 69, 80
5, 144260, Note_on_c, 2, 69, 0
5, 144288, Note_on_c, 2, 69, 80
5, 144352, Note_on_c, 2, 69, 0
5, 144384, Note_on_c, 2, 70, 80
5, 144448, Note_on_c, 2, 70, 0
5, 144576, Note_on_c, 2, 70, 80
5, 144640, Note_on_c, 2, 70, 0
5, 144768, Note_on_c, 2, 62, 80
5, 144960, Note_on_c, 2, 62, 0
5, 144960, Note_on_c, 2, 65, 80
5, 145056, Note_on_c, 2, 65, 0
5, 145056, Note_on_c, 2, 63, 80
5, 145148, Note_on_c, 2, 63, 0
5, 145152, Note_on_c, 2, 62, 80
5, 145472, Note_on_c, 2, 62, 0
5, 150624, Note_on_c, 2, 70, 85
5, 150812, Note_on_c, 2, 70, 0
5, 150816, Note_on_c, 2, 65, 85
5, 151004, Note_on_c, 2, 65, 0
5, 151008, Note_on_c, 2, 62, 85
5, 151196, Note_on_c, 2, 62, 0
5, 151200, Note_on_c, 2, 58, 85
5, 151292, Note_on_c, 2, 58, 0
5, 151296, Note_on_c, 2, 60, 85
5, 151484, Note_on_c, 2, 60, 0
5, 151488, Note_on_c, 2, 63, 85
5, 151676, Note_on_c, 2, 63, 0
5, 151680, Note_on_c, 2, 57, 85
5, 151868, Note_on_c, 2, 57, 0
5, 151872, Note_on_c, 2, 69, 85
5, 151936, Note_on_c, 2, 69, 0
5, 151936, Note_on_c, 2, 70, 85
5, 152000, Note_on_c, 2, 70, 0
5, 152000, Note_on_c, 2, 72, 85
5, 152060, Note_on_c, 2, 72, 0
5, 152064, Note_on_c, 2, 70, 85
5, 152156, Note_on_c, 2, 70, 0
5, 152160, Note_on_c, 2, 70, 85
5, 152348, Note_on_c, 2, 70, 0
5, 152352, Note_on_c, 2, 65, 85
5, 152540, Note_on_c, 2, 65, 0
5, 152544, Note_on_c, 2, 62, 85
5, 152732, Note_on_c, 2, 62, 0
5, 152736, Note_on_c, 2, 58, 85
5, 152828, Note_on_c, 2, 58, 0
5, 152832, Note_on_c, 2, 60, 85
5, 153020, Note_on_c, 2, 60, 0
5, 153024, Note_on_c, 2, 63, 85
5, 153212, Note_on_c, 2, 63, 0
5, 153216, Note_on_c, 2, 57, 85
5, 153404, Note_on_c, 2, 57, 0
5, 153408, Note_on_c, 2, 69, 85
5, 153472, Note_on_c, 2, 69, 0
5, 153472, Note_on_c, 2, 70, 85
5, 153536, Note_on_c, 2, 70, 0
5, 153536, Note_on_c, 2, 72, 85
5, 153596, Note_on_c, 2, 72, 0
5, 153600, Note_on_c, 2, 70, 80
5, 153692, Note_on_c, 2, 70, 0
5, 153696, Note_on_c, 2, 82, 80
5, 153884, Note_on_c, 2, 82, 0
5, 153888, Note_on_c, 2, 77, 80
5, 154076, Note_on_c, 2, 77, 0
5, 154080, Note_on_c, 2, 74, 80
5, 154268, Note_on_c, 2, 74, 0
5, 154272, Note_on_c, 2, 71, 80
5, 154364, Note_on_c, 2, 71, 0
5, 154368, Note_on_c, 2, 72, 80
5, 154688, Note_on_c, 2, 72, 0
5, 155136, Note_on_c, 2, 70, 80
5, 156092, Note_on_c, 2, 70, 0
5, 156096, Note_on_c, 2, 70, 80
5, 156384, Note_on_c, 2, 70, 0
5, 156384, Note_on_c, 2, 72, 80
5, 156432, Note_on_c, 2, 72, 0
5, 156432, Note_on_c, 2, 74, 80
5, 156480, Note_on_c, 2, 74, 0
5, 156480, Note_on_c, 2, 75, 80
5, 156528, Note_on_c, 2, 75, 0
5, 156528, Note_on_c, 2, 77, 80
5, 156576, Note_on_c, 2, 77, 0
5, 156576, Note_on_c, 2, 79, 80
5, 156624, Note_on_c, 2, 79, 0
5, 156624, Note_on_c, 2, 81, 80
5, 156668, Note_on_c, 2, 81, 0
5, 156672, Note_on_c, 2, 82, 80
5, 157824, Note_on_c, 2, 82, 0
5, 157824, Note_on_c, 2, 81, 80
5, 158144, Note_on_c, 2, 81, 0
5, 158208, Note_on_c, 2, 80, 54
5, 158592, Note_on_c, 2, 80, 0
5, 158592, Note_on_c, 2, 79, 63
5, 159648, Note_on_c, 2, 79, 0
5, 159744, Note_on_c, 2, 72, 85
5, 160128, Note_on_c, 2, 72, 0
5, 160128, Note_on_c, 2, 70, 85
5, 160316, Note_on_c, 2, 70, 0
5, 160608, Note_on_c, 2, 72, 80
5, 160704, Note_on_c, 2, 72, 0
5, 160704, Note_on_c, 2, 75, 80
5, 160800, Note_on_c, 2, 75, 0
5, 160800, Note_on_c, 2, 72, 80
5, 160892, Note_on_c, 2, 72, 0
5, 160992, Note_on_c, 2, 69, 80
5, 161088, Note_on_c, 2, 69, 0
5, 161088, Note_on_c, 2, 72, 80
5, 161184, Note_on_c, 2, 72, 0
5, 161184, Note_on_c, 2, 69, 80
5, 161276, Note_on_c, 2, 69, 0
5, 161280, Note_on_c, 2, 70, 80
5, 161468, Note_on_c, 2, 70, 0
5, 161664, Note_on_c, 2, 77, 80
5, 162048, Note_on_c, 2, 77, 0
5, 162048, Note_on_c, 2, 75, 80
5, 162236, Note_on_c, 2, 75, 0
5, 163968, Note_on_c, 2, 77, 80
5, 164352, Note_on_c, 2, 77, 0
5, 164352, Note_on_c, 2, 75, 80
5, 164540, Note_on_c, 2, 75, 0
5, 165984, Note_on_c, 2, 74, 80
5, 166080, Note_on_c, 2, 74, 0
5, 166080, Note_on_c, 2, 77, 80
5, 166176, Note_on_c, 2, 77, 0
5, 166176, Note_on_c, 2, 74, 80
5, 166272, Note_on_c, 2, 74, 0
5, 166272, Note_on_c, 2, 72, 80
5, 166368, Note_on_c, 2, 72, 0
5, 166368, Note_on_c, 2, 75, 80
5, 166464, Note_on_c, 2, 75, 0
5, 166464, Note_on_c, 2, 65, 80
5, 166560, Note_on_c, 2, 65, 0
5, 166560, Note_on_c, 2, 69, 80
5, 166652, Note_on_c, 2, 69, 0
5, 166656, Note_on_c, 2, 70, 80
5, 166720, Note_on_c, 2, 70, 0
5, 166752, Note_on_c, 2, 74, 80
5, 166848, Note_on_c, 2, 74, 0
5, 166848, Note_on_c, 2, 77, 80
5, 166944, Note_on_c, 2, 77, 0
5, 166944, Note_on_c, 2, 74, 80
5, 167040, Note_on_c, 2, 74, 0
5, 167040, Note_on_c, 2, 72, 80
5, 167136, Note_on_c, 2, 72, 0
5, 167136, Note_on_c, 2, 75, 80
5, 167232, Note_on_c, 2, 75, 0
5, 167232, Note_on_c, 2, 65, 80
5, 167328, Note_on_c, 2, 65, 0
5, 167328, Note_on_c, 2, 69, 80
5, 167420, Note_on_c, 2, 69, 0
5, 167424, Note_on_c, 2, 70, 80
5, 167488, Note_on_c, 2, 70, 0
5, 167616, Note_on_c, 2, 75, 80
5, 167680, Note_on_c, 2, 75, 0
5, 167808, Note_on_c, 2, 74, 80
5, 167872, Note_on_c, 2, 74, 0
5, 168000, Note_on_c, 2, 75, 80
5, 168064, Note_on_c, 2, 75, 0
5, 168192, Note_on_c, 2, 74, 80
5, 168380, Note_on_c, 2, 74, 0
5, 169152, Note_on_c, 2, 72, 80
5, 169216, Note_on_c, 2, 72, 0
5, 169344, Note_on_c, 2, 70, 80
5, 169408, Note_on_c, 2, 70, 0
5, 169536, Note_on_c, 2, 72, 80
5, 169600, Note_on_c, 2, 72, 0
5, 169728, Note_on_c, 2, 70, 80
5, 169916, Note_on_c, 2, 70, 0
5, 170688, Note_on_c, 2, 68, 80
5, 170752, Note_on_c, 2, 68, 0
5, 170880, Note_on_c, 2, 67, 80
5, 170944, Note_on_c, 2, 67, 0
5, 171072, Note_on_c, 2, 68, 80
5, 171136, Note_on_c, 2, 68, 0
5, 171264, Note_on_c, 2, 67, 80
5, 171584, Note_on_c, 2, 67, 0
5, 171648, Note_on_c, 2, 72, 52
5, 172800, Note_on_c, 2, 72, 0
5, 172800, Note_on_c, 2, 70, 76
5, 173568, Note_on_c, 2, 70, 0
5, 173568, Note_on_c, 2, 68, 85
5, 173756, Note_on_c, 2, 68, 0
5, 176640, Note_on_c, 2, 70, 80
5, 177024, Note_on_c, 2, 70, 0
5, 177024, Note_on_c, 2, 69, 80
5, 177212, Note_on_c, 2, 69, 0
5, 180480, Note_on_c, 2, 72, 80
5, 180864, Note_on_c, 2, 72, 0
5, 180864, Note_on_c, 2, 71, 80
5, 181052, Note_on_c, 2, 71, 0
5, 184032, Note_on_c, 2, 67, 80
5, 184128, Note_on_c, 2, 67, 0
5, 184128, Note_on_c, 2, 69, 80
5, 184224, Note_on_c, 2, 69, 0
5, 184224, Note_on_c, 2, 71, 80
5, 184316, Note_on_c, 2, 71, 0
5, 184320, Note_on_c, 2, 72, 80
5, 184508, Note_on_c, 2, 72, 0
5, 184512, Note_on_c, 2, 72, 80
5, 184896, Note_on_c, 2, 72, 0
5, 184896, Note_on_c, 2, 74, 80
5, 185084, Note_on_c, 2, 74, 0
5, 185088, Note_on_c, 2, 72, 80
5, 185184, Note_on_c, 2, 72, 0
5, 185184, Note_on_c, 2, 71, 80
5, 185276, Note_on_c, 2, 71, 0
5, 185280, Note_on_c, 2, 71, 80
5, 185600, Note_on_c, 2, 71, 0
5, 187200, Note_on_c, 2, 79, 80
5, 187388, Note_on_c, 2, 79, 0
5, 187392, Note_on_c, 2, 79, 80
5, 187488, Note_on_c, 2, 79, 0
5, 187488, Note_on_c, 2, 72, 80
5, 187580, Note_on_c, 2, 72, 0
5, 187584, Note_on_c, 2, 72, 80
5, 187904, Note_on_c, 2, 72, 0
5, 187968, Note_on_c, 2, 80, 80
5, 188156, Note_on_c, 2, 80, 0
5, 188160, Note_on_c, 2, 80, 80
5, 188256, Note_on_c, 2, 80, 0
5, 188256, Note_on_c, 2, 71, 80
5, 188348, Note_on_c, 2, 71, 0
5, 188352, Note_on_c, 2, 71, 80
5, 188672, Note_on_c, 2, 71, 0
5, 192192, Note_on_c, 2, 68, 80
5, 192256, Note_on_c, 2, 68, 0
5, 192384, Note_on_c, 2, 68, 80
5, 192448, Note_on_c, 2, 68, 0
5, 192960, Note_on_c, 2, 74, 80
5, 193152, Note_on_c, 2, 74, 0
5, 193152, Note_on_c, 2, 77, 47
5, 193340, Note_on_c, 2, 77, 0
5, 196608, Note_on_c, 2, 70, 85
5, 196928, Note_on_c, 2, 70, 0
5, 196992, Note_on_c, 2, 70, 85
5, 197312, Note_on_c, 2, 70, 0
5, 197376, Note_on_c, 2, 70, 85
5, 197696, Note_on_c, 2, 70, 0
5, 197760, Note_on_c, 2, 68, 85
5, 197948, Note_on_c, 2, 68, 0
5, 197952, Note_on_c, 2, 72, 85
5, 198140, Note_on_c, 2, 72, 0
5, 198144, Note_on_c, 2, 75, 85
5, 198656, Note_on_c, 2, 75, 0
5, 198720, Note_on_c, 2, 77, 85
5, 198908, Note_on_c, 2, 77, 0
5, 198912, Note_on_c, 2, 75, 85
5, 199296, Note_on_c, 2, 75, 0
5, 199296, Note_on_c, 2, 74, 85
5, 199484, Note_on_c, 2, 74, 0
5, 201216, Note_on_c, 2, 70, 80
5, 201404, Note_on_c, 2, 70, 0
5, 201408, Note_on_c, 2, 70, 80
5, 201792, Note_on_c, 2, 70, 0
5, 201792, Note_on_c, 2, 73, 80
5, 201980, Note_on_c, 2, 73, 0
5, 201984, Note_on_c, 2, 72, 80
5, 202080, Note_on_c, 2, 72, 0
5, 202080, Note_on_c, 2, 70, 80
5, 202172, Note_on_c, 2, 70, 0
5, 202176, Note_on_c, 2, 70, 80
5, 202560, Note_on_c, 2, 70, 0
5, 202560, Note_on_c, 2, 72, 80
5, 202748, Note_on_c, 2, 72, 0
5, 202752, Note_on_c, 2, 68, 80
5, 203072, Note_on_c, 2, 68, 0
5, 204288, Note_on_c, 2, 72, 80
5, 204476, Note_on_c, 2, 72, 0
5, 204480, Note_on_c, 2, 72, 80
5, 204864, Note_on_c, 2, 72, 0
5, 204864, Note_on_c, 2, 75, 80
5, 205052, Note_on_c, 2, 75, 0
5, 205056, Note_on_c, 2, 74, 80
5, 205152, Note_on_c, 2, 74, 0
5, 205152, Note_on_c, 2, 72, 80
5, 205244, Note_on_c, 2, 72, 0
5, 205248, Note_on_c, 2, 72, 80
5, 205632, Note_on_c, 2, 72, 0
5, 205632, Note_on_c, 2, 74, 80
5, 205820, Note_on_c, 2, 74, 0
5, 205824, Note_on_c, 2, 72, 80
5, 205920, Note_on_c, 2, 72, 0
5, 205920, Note_on_c, 2, 70, 80
5, 206012, Note_on_c, 2, 70, 0
5, 206016, Note_on_c, 2, 70, 80
5, 206400, Note_on_c, 2, 70, 0
5, 206400, Note_on_c, 2, 72, 80
5, 206588, Note_on_c, 2, 72, 0
5, 206592, Note_on_c, 2, 70, 80
5, 206688, Note_on_c, 2, 70, 0
5, 206688, Note_on_c, 2, 68, 80
5, 206780, Note_on_c, 2, 68, 0
5, 206784, Note_on_c, 2, 68, 80
5, 207168, Note_on_c, 2, 68, 0
5, 207168, Note_on_c, 2, 70, 80
5, 207356, Note_on_c, 2, 70, 0
5, 207360, Note_on_c, 2, 68, 80
5, 207456, Note_on_c, 2, 68, 0
5, 207456, Note_on_c, 2, 67, 80
5, 207548, Note_on_c, 2, 67, 0
5, 207552, Note_on_c, 2, 67, 80
5, 207740, Note_on_c, 2, 67, 0
5, 209088, Note_on_c, 2, 74, 85
5, 209180, Note_on_c, 2, 74, 0
5, 209184, Note_on_c, 2, 72, 85
5, 209276, Note_on_c, 2, 72, 0
5, 209280, Note_on_c, 2, 70, 85
5, 209372, Note_on_c, 2, 70, 0
5, 209376, Note_on_c, 2, 68, 85
5, 209468, Note_on_c, 2, 68, 0
5, 209472, Note_on_c, 2, 67, 85
5, 209564, Note_on_c, 2, 67, 0
5, 209568, Note_on_c, 2, 65, 85
5, 209660, Note_on_c, 2, 65, 0
5, 209664, Note_on_c, 2, 63, 85
5, 209852, Note_on_c, 2, 63, 0
5, 209856, Note_on_c, 2, 67, 85
5, 210044, Note_on_c, 2, 67, 0
5, 210048, Note_on_c, 2, 70, 85
5, 210236, Note_on_c, 2, 70, 0
5, 210240, Note_on_c, 2, 75, 85
5, 210428, Note_on_c, 2, 75, 0
5, 210432, Note_on_c, 2, 74, 85
5, 210620, Note_on_c, 2, 74, 0
5, 210624, Note_on_c, 2, 74, 85
5, 210716, Note_on_c, 2, 74, 0
5, 210720, Note_on_c, 2, 72, 85
5, 210812, Note_on_c, 2, 72, 0
5, 210816, Note_on_c, 2, 70, 85
5, 210908, Note_on_c, 2, 70, 0
5, 210912, Note_on_c, 2, 68, 85
5, 211004, Note_on_c, 2, 68, 0
5, 211008, Note_on_c, 2, 67, 85
5, 211100, Note_on_c, 2, 67, 0
5, 211104, Note_on_c, 2, 65, 85
5, 211196, Note_on_c, 2, 65, 0
5, 211200, Note_on_c, 2, 63, 85
5, 211388, Note_on_c, 2, 63, 0
5, 211392, Note_on_c, 2, 67, 85
5, 211580, Note_on_c, 2, 67, 0
5, 211584, Note_on_c, 2, 70, 85
5, 211772, Note_on_c, 2, 70, 0
5, 211776, Note_on_c, 2, 75, 85
5, 211964, Note_on_c, 2, 75, 0
5, 211968, Note_on_c, 2, 74, 85
5, 212156, Note_on_c, 2, 74, 0
5, 212352, Note_on_c, 2, 79, 85
5, 212640, Note_on_c, 2, 79, 0
5, 212640, Note_on_c, 2, 75, 85
5, 212732, Note_on_c, 2, 75, 0
5, 212736, Note_on_c, 2, 74, 85
5, 212924, Note_on_c, 2, 74, 0
5, 213120, Note_on_c, 2, 79, 85
5, 213408, Note_on_c, 2, 79, 0
5, 213408, Note_on_c, 2, 75, 85
5, 213500, Note_on_c, 2, 75, 0
5, 213504, Note_on_c, 2, 74, 80
5, 213568, Note_on_c, 2, 74, 0
5, 213696, Note_on_c, 2, 75, 80
5, 213760, Note_on_c, 2, 75, 0
5, 213888, Note_on_c, 2, 74, 80
5, 213952, Note_on_c, 2, 74, 0
5, 214080, Note_on_c, 2, 75, 80
5, 214144, Note_on_c, 2, 75, 0
5, 214272, Note_on_c, 2, 74, 80
5, 214460, Note_on_c, 2, 74, 0
5, 216576, Note_on_c, 2, 77, 85
5, 216672, Note_on_c, 2, 77, 0
5, 216672, Note_on_c, 2, 76, 85
5, 216768, Note_on_c, 2, 76, 0
5, 216768, Note_on_c, 2, 77, 85
5, 216864, Note_on_c, 2, 77, 0
5, 216864, Note_on_c, 2, 76, 85
5, 216960, Note_on_c, 2, 76, 0
5, 216960, Note_on_c, 2, 77, 85
5, 217056, Note_on_c, 2, 77, 0
5, 217056, Note_on_c, 2, 76, 85
5, 217152, Note_on_c, 2, 76, 0
5, 217152, Note_on_c, 2, 77, 85
5, 217248, Note_on_c, 2, 77, 0
5, 217248, Note_on_c, 2, 78, 85
5, 217344, Note_on_c, 2, 78, 0
5, 217344, Note_on_c, 2, 79, 85
5, 217440, Note_on_c, 2, 79, 0
5, 217440, Note_on_c, 2, 78, 85
5, 217536, Note_on_c, 2, 78, 0
5, 217536, Note_on_c, 2, 79, 85
5, 217632, Note_on_c, 2, 79, 0
5, 217632, Note_on_c, 2, 78, 85
5, 217728, Note_on_c, 2, 78, 0
5, 217728, Note_on_c, 2, 79, 85
5, 217916, Note_on_c, 2, 79, 0
5, 221184, Note_on_c, 2, 70, 80
5, 222624, Note_on_c, 2, 70, 0
5, 224256, Note_on_c, 2, 75, 80
5, 224320, Note_on_c, 2, 75, 0
5, 224352, Note_on_c, 2, 75, 80
5, 224416, Note_on_c, 2, 75, 0
5, 224448, Note_on_c, 2, 75, 80
5, 224544, Note_on_c, 2, 75, 0
5, 224544, Note_on_c, 2, 79, 80
5, 224636, Note_on_c, 2, 79, 0
5, 224640, Note_on_c, 2, 70, 80
5, 224928, Note_on_c, 2, 70, 0
5, 224928, Note_on_c, 2, 71, 80
5, 225020, Note_on_c, 2, 71, 0
5, 225024, Note_on_c, 2, 72, 80
5, 225212, Note_on_c, 2, 72, 0
5, 225408, Note_on_c, 2, 68, 80
5, 225792, Note_on_c, 2, 68, 0
5, 225792, Note_on_c, 2, 67, 80
5, 225984, Note_on_c, 2, 67, 0
5, 225984, Note_on_c, 2, 75, 80
5, 226172, Note_on_c, 2, 75, 0
5, 226176, Note_on_c, 2, 70, 80
5, 226496, Note_on_c, 2, 70, 0
5, 226560, Note_on_c, 2, 70, 80
5, 226880, Note_on_c, 2, 70, 0
5, 232032, Note_on_c, 2, 75, 85
5, 232220, Note_on_c, 2, 75, 0
5, 232224, Note_on_c, 2, 70, 85
5, 232412, Note_on_c, 2, 70, 0
5, 232416, Note_on_c, 2, 67, 85
5, 232604, Note_on_c, 2, 67, 0
5, 232608, Note_on_c, 2, 63, 85
5, 232700, Note_on_c, 2, 63, 0
5, 232704, Note_on_c, 2, 70, 85
5, 232768, Note_on_c, 2, 70, 0
5, 232896, Note_on_c, 2, 74, 85
5, 232960, Note_on_c, 2, 74, 0
5, 233088, Note_on_c, 2, 77, 85
5, 233376, Note_on_c, 2, 77, 0
5, 233376, Note_on_c, 2, 75, 85
5, 233424, Note_on_c, 2, 75, 0
5, 233424, Note_on_c, 2, 77, 85
5, 233468, Note_on_c, 2, 77, 0
5, 233472, Note_on_c, 2, 75, 85
5, 233564, Note_on_c, 2, 75, 0
5, 233568, Note_on_c, 2, 75, 85
5, 233756, Note_on_c, 2, 75, 0
5, 233760, Note_on_c, 2, 70, 85
5, 233948, Note_on_c, 2, 70, 0
5, 233952, Note_on_c, 2, 67, 85
5, 234140, Note_on_c, 2, 67, 0
5, 234144, Note_on_c, 2, 63, 85
5, 234236, Note_on_c, 2, 63, 0
5, 234240, Note_on_c, 2, 70, 85
5, 234304, Note_on_c, 2, 70, 0
5, 234432, Note_on_c, 2, 74, 85
5, 234496, Note_on_c, 2, 74, 0
5, 234624, Note_on_c, 2, 77, 85
5, 234912, Note_on_c, 2, 77, 0
5, 234912, Note_on_c, 2, 75, 85
5, 234960, Note_on_c, 2, 75, 0
5, 234960, Note_on_c, 2, 77, 85
5, 235004, Note_on_c, 2, 77, 0
5, 235008, Note_on_c, 2, 75, 85
5, 235100, Note_on_c, 2, 75, 0
5, 235104, Note_on_c, 2, 75, 85
5, 235292, Note_on_c, 2, 75, 0
5, 235296, Note_on_c, 2, 70, 85
5, 235484, Note_on_c, 2, 70, 0
5, 235488, Note_on_c, 2, 67, 85
5, 235676, Note_on_c, 2, 67, 0
5, 235680, Note_on_c, 2, 63, 85
5, 235772, Note_on_c, 2, 63, 0
5, 235776, Note_on_c, 2, 65, 80
5, 236544, Note_on_c, 2, 65, 0
5, 236544, Note_on_c, 2, 67, 80
5, 236636, Note_on_c, 2, 67, 0
5, 236640, Note_on_c, 2, 79, 47
5, 236828, Note_on_c, 2, 79, 0
5, 236832, Note_on_c, 2, 75, 53
5, 237020, Note_on_c, 2, 75, 0
5, 237024, Note_on_c, 2, 70, 59
5, 237212, Note_on_c, 2, 70, 0
5, 237216, Note_on_c, 2, 67, 65
5, 237308, Note_on_c, 2, 67, 0
5, 237312, Note_on_c, 2, 68, 68
5, 238080, Note_on_c, 2, 68, 0
5, 238080, Note_on_c, 2, 66, 85
5, 238752, Note_on_c, 2, 66, 0
5, 238848, Note_on_c, 2, 67, 85
5, 239040, Note_on_c, 2, 67, 0
5, 239040, Note_on_c, 2, 63, 85
5, 239328, Note_on_c, 2, 63, 0
5, 239328, Note_on_c, 2, 65, 85
5, 239376, Note_on_c, 2, 65, 0
5, 239376, Note_on_c, 2, 67, 85
5, 239424, Note_on_c, 2, 67, 0
5, 239424, Note_on_c, 2, 68, 85
5, 239472, Note_on_c, 2, 68, 0
5, 239472, Note_on_c, 2, 70, 85
5, 239520, Note_on_c, 2, 70, 0
5, 239520, Note_on_c, 2, 72, 85
5, 239568, Note_on_c, 2, 72, 0
5, 239568, Note_on_c, 2, 74, 85
5, 239612, Note_on_c, 2, 74, 0
5, 239616, Note_on_c, 2, 75, 80
5, 242592, Note_on_c, 2, 75, 0
5, 242688, Note_on_c, 2, 74, 85
5, 243456, Note_on_c, 2, 74, 0
5, 243456, Note_on_c, 2, 75, 85
5, 243644, Note_on_c, 2, 75, 0
5, 243936, Note_on_c, 2, 77, 80
5, 244032, Note_on_c, 2, 77, 0
5, 244032, Note_on_c, 2, 80, 80
5, 244128, Note_on_c, 2, 80, 0
5, 244128, Note_on_c, 2, 77, 80
5, 244220, Note_on_c, 2, 77, 0
5, 244320, Note_on_c, 2, 75, 80
5, 244416, Note_on_c, 2, 75, 0
5, 244416, Note_on_c, 2, 79, 80
5, 244512, Note_on_c, 2, 79, 0
5, 244512, Note_on_c, 2, 75, 80
5, 244604, Note_on_c, 2, 75, 0
5, 244704, Note_on_c, 2, 74, 80
5, 244800, Note_on_c, 2, 74, 0
5, 244800, Note_on_c, 2, 77, 80
5, 244896, Note_on_c, 2, 77, 0
5, 244896, Note_on_c, 2, 74, 80
5, 244988, Note_on_c, 2, 74, 0
5, 244992, Note_on_c, 2, 75, 80
5, 245180, Note_on_c, 2, 75, 0
5, 248448, Note_on_c, 2, 77, 80
5, 248736, Note_on_c, 2, 77, 0
5, 248736, Note_on_c, 2, 75, 80
5, 248828, Note_on_c, 2, 75, 0
5, 248832, Note_on_c, 2, 75, 80
5, 248928, Note_on_c, 2, 75, 0
5, 248928, Note_on_c, 2, 74, 80
5, 249024, Note_on_c, 2, 74, 0
5, 249024, Note_on_c, 2, 72, 80
5, 249120, Note_on_c, 2, 72, 0
5, 249120, Note_on_c, 2, 70, 80
5, 249212, Note_on_c, 2, 70, 0
5, 249216, Note_on_c, 2, 69, 80
5, 249280, Note_on_c, 2, 69, 0
5, 249280, Note_on_c, 2, 70, 80
5, 249344, Note_on_c, 2, 70, 0
5, 249344, Note_on_c, 2, 71, 80
5, 249408, Note_on_c, 2, 71, 0
5, 249408, Note_on_c, 2, 72, 80
5, 249472, Note_on_c, 2, 72, 0
5, 249472, Note_on_c, 2, 73, 80
5, 249536, Note_on_c, 2, 73, 0
5, 249536, Note_on_c, 2, 74, 80
5, 249600, Note_on_c, 2, 74, 0
5, 249600, Note_on_c, 2, 75, 80
5, 249788, Note_on_c, 2, 75, 0
5, 249984, Note_on_c, 2, 68, 80
5, 250368, Note_on_c, 2, 68, 0
5, 250368, Note_on_c, 2, 67, 80
5, 250752, Note_on_c, 2, 67, 0
5, 250752, Note_on_c, 2, 65, 80
5, 251072, Note_on_c, 2, 65, 0
5, 251136, Note_on_c, 2, 67, 80
5, 251200, Note_on_c, 2, 67, 0
5, 251328, Note_on_c, 2, 74, 80
5, 251392, Note_on_c, 2, 74, 0
5, 251520, Note_on_c, 2, 75, 80
5, 251584, Note_on_c, 2, 75, 0
5, 251712, Note_on_c, 2, 74, 80
5, 251776, Note_on_c, 2, 74, 0
5, 251904, Note_on_c, 2, 75, 80
5, 252092, Note_on_c, 2, 75, 0
5, 254400, Note_on_c, 2, 74, 80
5, 254464, Note_on_c, 2, 74, 0
5, 254592, Note_on_c, 2, 75, 80
5, 254656, Note_on_c, 2, 75, 0
5, 254784, Note_on_c, 2, 74, 80
5, 254848, Note_on_c, 2, 74, 0
5, 254976, Note_on_c, 2, 75, 80
5, 255164, Note_on_c, 2, 75, 0
5, 255360, Note_on_c, 2, 70, 85
5, 255680, Note_on_c, 2, 70, 0
5, 255744, Note_on_c, 2, 63, 85
5, 256064, Note_on_c, 2, 63, 0
5, 256064, End_track
6, 0, Start_track
6, 0, MIDI_port, 0
6, 0, Title_t, "Corno in Es"
6, 0, Control_c, 3, 0, 0
6, 0, Control_c, 3, 32, 0
6, 0, Program_c, 3, 60
6, 0, Control_c, 3, 7, 126
6, 0, Control_c, 3, 10, 78
6, 1, Control_c, 3, 91, 70
6, 2, Note_on_c, 3, 51, 85
6, 386, Note_on_c, 3, 51, 0
6, 1536, Note_on_c, 3, 58, 85
6, 1920, Note_on_c, 3, 58, 0
6, 3072, Note_on_c, 3, 51, 85
6, 3456, Note_on_c, 3, 51, 0
6, 6144, Note_on_c, 3, 58, 85
6, 6528, Note_on_c, 3, 58, 0
6, 7104, Note_on_c, 3, 70, 80
6, 7296, Note_on_c, 3, 70, 0
6, 7296, Note_on_c, 3, 68, 80
6, 7488, Note_on_c, 3, 68, 0
6, 7488, Note_on_c, 3, 67, 80
6, 7676, Note_on_c, 3, 67, 0
6, 7680, Note_on_c, 3, 58, 85
6, 8064, Note_on_c, 3, 58, 0
6, 8640, Note_on_c, 3, 65, 80
6, 8832, Note_on_c, 3, 65, 0
6, 8832, Note_on_c, 3, 67, 80
6, 9024, Note_on_c, 3, 67, 0
6, 9024, Note_on_c, 3, 68, 80
6, 9212, Note_on_c, 3, 68, 0
6, 9216, Note_on_c, 3, 58, 85
6, 9600, Note_on_c, 3, 58, 0
6, 10944, Note_on_c, 3, 63, 80
6, 11136, Note_on_c, 3, 63, 0
6, 11136, Note_on_c, 3, 62, 80
6, 11328, Note_on_c, 3, 62, 0
6, 11328, Note_on_c, 3, 60, 80
6, 11516, Note_on_c, 3, 60, 0
6, 11520, Note_on_c, 3, 58, 80
6, 12096, Note_on_c, 3, 58, 0
6, 12096, Note_on_c, 3, 60, 80
6, 12144, Note_on_c, 3, 60, 0
6, 12144, Note_on_c, 3, 62, 80
6, 12192, Note_on_c, 3, 62, 0
6, 12192, Note_on_c, 3, 63, 80
6, 12240, Note_on_c, 3, 63, 0
6, 12240, Note_on_c, 3, 65, 80
6, 12284, Note_on_c, 3, 65, 0
6, 12288, Note_on_c, 3, 67, 80
6, 12764, Note_on_c, 3, 67, 0
6, 12768, Note_on_c, 3, 65, 80
6, 12816, Note_on_c, 3, 65, 0
6, 12816, Note_on_c, 3, 67, 80
6, 12864, Note_on_c, 3, 67, 0
6, 12864, Note_on_c, 3, 68, 80
6, 12956, Note_on_c, 3, 68, 0
6, 12960, Note_on_c, 3, 65, 80
6, 13052, Note_on_c, 3, 65, 0
6, 13056, Note_on_c, 3, 70, 80
6, 13152, Note_on_c, 3, 70, 0
6, 13152, Note_on_c, 3, 67, 80
6, 13248, Note_on_c, 3, 67, 0
6, 13248, Note_on_c, 3, 63, 80
6, 13536, Note_on_c, 3, 63, 0
6, 13536, Note_on_c, 3, 62, 80
6, 13584, Note_on_c, 3, 62, 0
6, 13584, Note_on_c, 3, 63, 80
6, 13632, Note_on_c, 3, 63, 0
6, 13632, Note_on_c, 3, 65, 80
6, 13724, Note_on_c, 3, 65, 0
6, 13728, Note_on_c, 3, 62, 80
6, 13820, Note_on_c, 3, 62, 0
6, 13824, Note_on_c, 3, 63, 80
6, 14144, Note_on_c, 3, 63, 0
6, 14784, Note_on_c, 3, 68, 80
6, 14880, Note_on_c, 3, 68, 0
6, 14880, Note_on_c, 3, 67, 80
6, 14976, Note_on_c, 3, 67, 0
6, 14976, Note_on_c, 3, 65, 80
6, 15072, Note_on_c, 3, 65, 0
6, 15072, Note_on_c, 3, 63, 80
6, 15168, Note_on_c, 3, 63, 0
6, 15168, Note_on_c, 3, 62, 80
6, 15264, Note_on_c, 3, 62, 0
6, 15264, Note_on_c, 3, 60, 80
6, 15356, Note_on_c, 3, 60, 0
6, 15360, Note_on_c, 3, 58, 80
6, 15936, Note_on_c, 3, 58, 0
6, 15936, Note_on_c, 3, 63, 80
6, 16320, Note_on_c, 3, 63, 0
6, 16320, Note_on_c, 3, 64, 80
6, 16512, Note_on_c, 3, 64, 0
6, 16512, Note_on_c, 3, 65, 80
6, 16608, Note_on_c, 3, 65, 0
6, 16608, Note_on_c, 3, 67, 80
6, 16704, Note_on_c, 3, 67, 0
6, 16704, Note_on_c, 3, 68, 80
6, 16988, Note_on_c, 3, 68, 0
6, 17088, Note_on_c, 3, 65, 80
6, 17180, Note_on_c, 3, 65, 0
6, 17280, Note_on_c, 3, 62, 80
6, 17372, Note_on_c, 3, 62, 0
6, 17472, Note_on_c, 3, 58, 80
6, 17564, Note_on_c, 3, 58, 0
6, 17664, Note_on_c, 3, 51, 85
6, 17984, Note_on_c, 3, 51, 0
6, 18576, Note_on_c, 3, 65, 85
6, 18620, Note_on_c, 3, 65, 0
6, 18624, Note_on_c, 3, 65, 85
6, 18764, Note_on_c, 3, 65, 0
6, 18768, Note_on_c, 3, 65, 85
6, 18812, Note_on_c, 3, 65, 0
6, 18816, Note_on_c, 3, 65, 85
6, 19004, Note_on_c, 3, 65, 0
6, 19344, Note_on_c, 3, 67, 85
6, 19388, Note_on_c, 3, 67, 0
6, 19392, Note_on_c, 3, 67, 85
6, 19532, Note_on_c, 3, 67, 0
6, 19536, Note_on_c, 3, 67, 85
6, 19580, Note_on_c, 3, 67, 0
6, 19584, Note_on_c, 3, 67, 85
6, 19772, Note_on_c, 3, 67, 0
6, 20112, Note_on_c, 3, 65, 85
6, 20156, Note_on_c, 3, 65, 0
6, 20160, Note_on_c, 3, 65, 85
6, 20300, Note_on_c, 3, 65, 0
6, 20304, Note_on_c, 3, 65, 85
6, 20348, Note_on_c, 3, 65, 0
6, 20352, Note_on_c, 3, 65, 85
6, 20540, Note_on_c, 3, 65, 0
6, 20880, Note_on_c, 3, 65, 85
6, 20924, Note_on_c, 3, 65, 0
6, 20928, Note_on_c, 3, 65, 85
6, 21068, Note_on_c, 3, 65, 0
6, 21072, Note_on_c, 3, 65, 85
6, 21116, Note_on_c, 3, 65, 0
6, 21120, Note_on_c, 3, 65, 85
6, 21308, Note_on_c, 3, 65, 0
6, 21504, Note_on_c, 3, 65, 80
6, 22460, Note_on_c, 3, 65, 0
6, 22464, Note_on_c, 3, 65, 80
6, 22752, Note_on_c, 3, 65, 0
6, 22752, Note_on_c, 3, 63, 80
6, 22800, Note_on_c, 3, 63, 0
6, 22800, Note_on_c, 3, 65, 80
6, 22848, Note_on_c, 3, 65, 0
6, 22848, Note_on_c, 3, 67, 80
6, 22944, Note_on_c, 3, 67, 0
6, 22944, Note_on_c, 3, 62, 80
6, 23036, Note_on_c, 3, 62, 0
6, 23040, Note_on_c, 3, 63, 80
6, 23228, Note_on_c, 3, 63, 0
6, 23232, Note_on_c, 3, 63, 80
6, 23520, Note_on_c, 3, 63, 0
6, 23520, Note_on_c, 3, 62, 80
6, 23568, Note_on_c, 3, 62, 0
6, 23568, Note_on_c, 3, 63, 80
6, 23616, Note_on_c, 3, 63, 0
6, 23616, Note_on_c, 3, 65, 80
6, 23712, Note_on_c, 3, 65, 0
6, 23712, Note_on_c, 3, 60, 80
6, 23808, Note_on_c, 3, 60, 0
6, 23808, Note_on_c, 3, 62, 80
6, 23996, Note_on_c, 3, 62, 0
6, 25440, Note_on_c, 3, 58, 80
6, 25508, Note_on_c, 3, 58, 0
6, 25536, Note_on_c, 3, 58, 80
6, 25604, Note_on_c, 3, 58, 0
6, 25632, Note_on_c, 3, 58, 80
6, 25700, Note_on_c, 3, 58, 0
6, 25728, Note_on_c, 3, 58, 80
6, 25796, Note_on_c, 3, 58, 0
6, 25824, Note_on_c, 3, 58, 80
6, 25892, Note_on_c, 3, 58, 0
6, 25920, Note_on_c, 3, 58, 80
6, 25988, Note_on_c, 3, 58, 0
6, 26016, Note_on_c, 3, 58, 80
6, 26080, Note_on_c, 3, 58, 0
6, 26112, Note_on_c, 3, 46, 80
6, 26180, Note_on_c, 3, 46, 0
6, 26208, Note_on_c, 3, 46, 80
6, 26276, Note_on_c, 3, 46, 0
6, 26304, Note_on_c, 3, 46, 80
6, 26372, Note_on_c, 3, 46, 0
6, 26400, Note_on_c, 3, 46, 80
6, 26468, Note_on_c, 3, 46, 0
6, 26496, Note_on_c, 3, 46, 80
6, 26564, Note_on_c, 3, 46, 0
6, 26592, Note_on_c, 3, 46, 80
6, 26660, Note_on_c, 3, 46, 0
6, 26688, Note_on_c, 3, 46, 80
6, 26756, Note_on_c, 3, 46, 0
6, 26784, Note_on_c, 3, 46, 80
6, 26848, Note_on_c, 3, 46, 0
6, 26880, Note_on_c, 3, 46, 80
6, 27068, Note_on_c, 3, 46, 0
6, 27264, Note_on_c, 3, 68, 80
6, 27360, Note_on_c, 3, 68, 0
6, 27360, Note_on_c, 3, 67, 80
6, 27404, Note_on_c, 3, 67, 0
6, 27456, Note_on_c, 3, 67, 80
6, 27552, Note_on_c, 3, 67, 0
6, 27552, Note_on_c, 3, 65, 80
6, 27596, Note_on_c, 3, 65, 0
6, 27648, Note_on_c, 3, 65, 80
6, 27836, Note_on_c, 3, 65, 0
6, 28032, Note_on_c, 3, 68, 80
6, 28128, Note_on_c, 3, 68, 0
6, 28128, Note_on_c, 3, 67, 80
6, 28172, Note_on_c, 3, 67, 0
6, 28224, Note_on_c, 3, 67, 80
6, 28320, Note_on_c, 3, 67, 0
6, 28320, Note_on_c, 3, 65, 80
6, 28364, Note_on_c, 3, 65, 0
6, 28416, Note_on_c, 3, 65, 80
6, 28604, Note_on_c, 3, 65, 0
6, 28800, Note_on_c, 3, 68, 80
6, 28896, Note_on_c, 3, 68, 0
6, 28896, Note_on_c, 3, 67, 80
6, 28940, Note_on_c, 3, 67, 0
6, 28992, Note_on_c, 3, 67, 80
6, 29088, Note_on_c, 3, 67, 0
6, 29088, Note_on_c, 3, 65, 80
6, 29132, Note_on_c, 3, 65, 0
6, 29184, Note_on_c, 3, 65, 80
6, 29372, Note_on_c, 3, 65, 0
6, 29520, Note_on_c, 3, 58, 85
6, 29564, Note_on_c, 3, 58, 0
6, 29568, Note_on_c, 3, 58, 85
6, 29756, Note_on_c, 3, 58, 0
6, 29760, Note_on_c, 3, 58, 85
6, 29948, Note_on_c, 3, 58, 0
6, 29952, Note_on_c, 3, 46, 85
6, 30624, Note_on_c, 3, 46, 0
6, 33792, Note_on_c, 3, 51, 85
6, 34112, Note_on_c, 3, 51, 0
6, 34176, Note_on_c, 3, 58, 85
6, 34496, Note_on_c, 3, 58, 0
6, 34560, Note_on_c, 3, 51, 85
6, 34748, Note_on_c, 3, 51, 0
6, 34752, Note_on_c, 3, 63, 85
6, 34940, Note_on_c, 3, 63, 0
6, 34944, Note_on_c, 3, 63, 85
6, 35132, Note_on_c, 3, 63, 0
6, 35136, Note_on_c, 3, 63, 85
6, 35324, Note_on_c, 3, 63, 0
6, 35328, Note_on_c, 3, 63, 85
6, 35840, Note_on_c, 3, 63, 0
6, 35904, Note_on_c, 3, 68, 85
6, 36092, Note_on_c, 3, 68, 0
6, 36096, Note_on_c, 3, 67, 85
6, 36480, Note_on_c, 3, 67, 0
6, 36480, Note_on_c, 3, 65, 85
6, 36668, Note_on_c, 3, 65, 0
6, 37056, Note_on_c, 3, 63, 80
6, 37376, Note_on_c, 3, 63, 0
6, 37440, Note_on_c, 3, 63, 80
6, 37628, Note_on_c, 3, 63, 0
6, 37824, Note_on_c, 3, 62, 80
6, 38144, Note_on_c, 3, 62, 0
6, 38208, Note_on_c, 3, 62, 80
6, 38396, Note_on_c, 3, 62, 0
6, 38592, Note_on_c, 3, 61, 80
6, 38784, Note_on_c, 3, 61, 0
6, 38784, Note_on_c, 3, 60, 80
6, 38972, Note_on_c, 3, 60, 0
6, 38976, Note_on_c, 3, 60, 80
6, 39040, Note_on_c, 3, 60, 0
6, 39168, Note_on_c, 3, 58, 80
6, 39680, Note_on_c, 3, 58, 0
6, 39936, Note_on_c, 3, 63, 85
6, 41660, Note_on_c, 3, 63, 0
6, 41664, Note_on_c, 3, 67, 85
6, 41760, Note_on_c, 3, 67, 0
6, 41760, Note_on_c, 3, 70, 85
6, 41852, Note_on_c, 3, 70, 0
6, 41856, Note_on_c, 3, 70, 85
6, 41952, Note_on_c, 3, 70, 0
6, 41952, Note_on_c, 3, 68, 85
6, 42048, Note_on_c, 3, 68, 0
6, 42048, Note_on_c, 3, 67, 85
6, 42144, Note_on_c, 3, 67, 0
6, 42144, Note_on_c, 3, 65, 85
6, 42236, Note_on_c, 3, 65, 0
6, 42240, Note_on_c, 3, 63, 85
6, 42428, Note_on_c, 3, 63, 0
6, 43776, Note_on_c, 3, 58, 85
6, 44732, Note_on_c, 3, 58, 0
6, 46080, Note_on_c, 3, 58, 85
6, 47036, Note_on_c, 3, 58, 0
6, 47424, Note_on_c, 3, 58, 80
6, 47616, Note_on_c, 3, 58, 0
6, 47616, Note_on_c, 3, 63, 80
6, 47804, Note_on_c, 3, 63, 0
6, 48192, Note_on_c, 3, 58, 80
6, 48384, Note_on_c, 3, 58, 0
6, 48384, Note_on_c, 3, 63, 80
6, 48572, Note_on_c, 3, 63, 0
6, 50688, Note_on_c, 3, 58, 85
6, 51644, Note_on_c, 3, 58, 0
6, 51648, Note_on_c, 3, 70, 85
6, 51740, Note_on_c, 3, 70, 0
6, 51744, Note_on_c, 3, 67, 85
6, 51836, Note_on_c, 3, 67, 0
6, 51840, Note_on_c, 3, 63, 85
6, 51932, Note_on_c, 3, 63, 0
6, 51936, Note_on_c, 3, 58, 85
6, 52028, Note_on_c, 3, 58, 0
6, 52032, Note_on_c, 3, 55, 85
6, 52124, Note_on_c, 3, 55, 0
6, 52128, Note_on_c, 3, 51, 85
6, 52220, Note_on_c, 3, 51, 0
6, 52224, Note_on_c, 3, 46, 85
6, 52412, Note_on_c, 3, 46, 0
6, 52416, Note_on_c, 3, 46, 85
6, 52604, Note_on_c, 3, 46, 0
6, 52608, Note_on_c, 3, 50, 85
6, 52796, Note_on_c, 3, 50, 0
6, 52800, Note_on_c, 3, 46, 85
6, 52988, Note_on_c, 3, 46, 0
6, 52992, Note_on_c, 3, 51, 85
6, 53180, Note_on_c, 3, 51, 0
6, 53184, Note_on_c, 3, 70, 85
6, 53276, Note_on_c, 3, 70, 0
6, 53280, Note_on_c, 3, 67, 85
6, 53372, Note_on_c, 3, 67, 0
6, 53376, Note_on_c, 3, 63, 85
6, 53468, Note_on_c, 3, 63, 0
6, 53472, Note_on_c, 3, 58, 85
6, 53564, Note_on_c, 3, 58, 0
6, 53568, Note_on_c, 3, 55, 85
6, 53660, Note_on_c, 3, 55, 0
6, 53664, Note_on_c, 3, 51, 85
6, 53756, Note_on_c, 3, 51, 0
6, 53760, Note_on_c, 3, 46, 85
6, 54080, Note_on_c, 3, 46, 0
6, 55296, Note_on_c, 3, 65, 80
6, 57152, Note_on_c, 3, 65, 0
6, 57408, Note_on_c, 3, 65, 80
6, 57552, Note_on_c, 3, 65, 0
6, 57552, Note_on_c, 3, 67, 80
6, 57596, Note_on_c, 3, 67, 0
6, 57600, Note_on_c, 3, 63, 80
6, 57664, Note_on_c, 3, 63, 0
6, 57792, Note_on_c, 3, 63, 80
6, 57936, Note_on_c, 3, 63, 0
6, 57936, Note_on_c, 3, 65, 80
6, 57980, Note_on_c, 3, 65, 0
6, 57984, Note_on_c, 3, 62, 80
6, 58048, Note_on_c, 3, 62, 0
6, 58176, Note_on_c, 3, 62, 80
6, 58320, Note_on_c, 3, 62, 0
6, 58320, Note_on_c, 3, 63, 80
6, 58364, Note_on_c, 3, 63, 0
6, 58368, Note_on_c, 3, 60, 80
6, 58560, Note_on_c, 3, 60, 0
6, 58560, Note_on_c, 3, 65, 80
6, 58752, Note_on_c, 3, 65, 0
6, 58752, Note_on_c, 3, 60, 80
6, 58944, Note_on_c, 3, 60, 0
6, 58944, Note_on_c, 3, 62, 80
6, 59132, Note_on_c, 3, 62, 0
6, 59136, Note_on_c, 3, 63, 80
6, 59712, Note_on_c, 3, 63, 0
6, 59712, Note_on_c, 3, 60, 80
6, 59900, Note_on_c, 3, 60, 0
6, 59904, Note_on_c, 3, 62, 80
6, 60224, Note_on_c, 3, 62, 0
6, 60672, Note_on_c, 3, 65, 80
6, 60860, Note_on_c, 3, 65, 0
6, 61056, Note_on_c, 3, 65, 80
6, 61244, Note_on_c, 3, 65, 0
6, 61440, Note_on_c, 3, 65, 80
6, 61760, Note_on_c, 3, 65, 0
6, 66048, Note_on_c, 3, 63, 85
6, 66144, Note_on_c, 3, 63, 0
6, 66144, Note_on_c, 3, 62, 85
6, 66240, Note_on_c, 3, 62, 0
6, 66240, Note_on_c, 3, 63, 85
6, 66336, Note_on_c, 3, 63, 0
6, 66336, Note_on_c, 3, 62, 85
6, 66432, Note_on_c, 3, 62, 0
6, 66432, Note_on_c, 3, 63, 85
6, 66528, Note_on_c, 3, 63, 0
6, 66528, Note_on_c, 3, 62, 85
6, 66624, Note_on_c, 3, 62, 0
6, 66624, Note_on_c, 3, 63, 85
6, 66720, Note_on_c, 3, 63, 0
6, 66720, Note_on_c, 3, 64, 85
6, 66816, Note_on_c, 3, 64, 0
6, 66816, Note_on_c, 3, 65, 85
6, 66912, Note_on_c, 3, 65, 0
6, 66912, Note_on_c, 3, 64, 85
6, 67008, Note_on_c, 3, 64, 0
6, 67008, Note_on_c, 3, 65, 85
6, 67104, Note_on_c, 3, 65, 0
6, 67104, Note_on_c, 3, 64, 85
6, 67200, Note_on_c, 3, 64, 0
6, 67200, Note_on_c, 3, 65, 85
6, 67388, Note_on_c, 3, 65, 0
6, 70656, Note_on_c, 3, 46, 80
6, 70844, Note_on_c, 3, 46, 0
6, 70848, Note_on_c, 3, 58, 80
6, 71036, Note_on_c, 3, 58, 0
6, 71040, Note_on_c, 3, 46, 80
6, 71228, Note_on_c, 3, 46, 0
6, 71232, Note_on_c, 3, 58, 80
6, 71420, Note_on_c, 3, 58, 0
6, 71424, Note_on_c, 3, 46, 80
6, 71612, Note_on_c, 3, 46, 0
6, 71616, Note_on_c, 3, 58, 80
6, 71804, Note_on_c, 3, 58, 0
6, 71808, Note_on_c, 3, 46, 80
6, 71996, Note_on_c, 3, 46, 0
6, 72000, Note_on_c, 3, 58, 80
6, 72188, Note_on_c, 3, 58, 0
6, 72192, Note_on_c, 3, 46, 85
6, 73916, Note_on_c, 3, 46, 0
6, 74112, Note_on_c, 3, 58, 80
6, 74180, Note_on_c, 3, 58, 0
6, 74208, Note_on_c, 3, 58, 80
6, 74276, Note_on_c, 3, 58, 0
6, 74304, Note_on_c, 3, 58, 80
6, 74372, Note_on_c, 3, 58, 0
6, 74400, Note_on_c, 3, 58, 80
6, 74464, Note_on_c, 3, 58, 0
6, 74496, Note_on_c, 3, 51, 80
6, 74684, Note_on_c, 3, 51, 0
6, 74880, Note_on_c, 3, 63, 80
6, 74948, Note_on_c, 3, 63, 0
6, 74976, Note_on_c, 3, 63, 80
6, 75044, Note_on_c, 3, 63, 0
6, 75072, Note_on_c, 3, 63, 80
6, 75140, Note_on_c, 3, 63, 0
6, 75168, Note_on_c, 3, 63, 80
6, 75232, Note_on_c, 3, 63, 0
6, 75264, Note_on_c, 3, 62, 80
6, 75328, Note_on_c, 3, 62, 0
6, 75456, Note_on_c, 3, 58, 80
6, 75644, Note_on_c, 3, 58, 0
6, 75648, Note_on_c, 3, 65, 80
6, 75840, Note_on_c, 3, 65, 0
6, 75840, Note_on_c, 3, 57, 80
6, 76028, Note_on_c, 3, 57, 0
6, 76032, Note_on_c, 3, 58, 80
6, 76352, Note_on_c, 3, 58, 0
6, 81408, Note_on_c, 3, 70, 85
6, 81596, Note_on_c, 3, 70, 0
6, 81600, Note_on_c, 3, 65, 85
6, 81788, Note_on_c, 3, 65, 0
6, 81792, Note_on_c, 3, 62, 85
6, 81980, Note_on_c, 3, 62, 0
6, 81984, Note_on_c, 3, 58, 85
6, 82172, Note_on_c, 3, 58, 0
6, 82176, Note_on_c, 3, 65, 85
6, 82848, Note_on_c, 3, 65, 0
6, 82944, Note_on_c, 3, 70, 85
6, 83132, Note_on_c, 3, 70, 0
6, 83136, Note_on_c, 3, 65, 85
6, 83324, Note_on_c, 3, 65, 0
6, 83328, Note_on_c, 3, 62, 85
6, 83516, Note_on_c, 3, 62, 0
6, 83520, Note_on_c, 3, 58, 85
6, 83708, Note_on_c, 3, 58, 0
6, 83712, Note_on_c, 3, 65, 85
6, 84800, Note_on_c, 3, 65, 0
6, 85056, Note_on_c, 3, 65, 80
6, 85248, Note_on_c, 3, 65, 0
6, 85248, Note_on_c, 3, 67, 80
6, 85568, Note_on_c, 3, 67, 0
6, 85824, Note_on_c, 3, 67, 80
6, 86012, Note_on_c, 3, 67, 0
6, 86016, Note_on_c, 3, 67, 80
6, 86336, Note_on_c, 3, 67, 0
6, 86592, Note_on_c, 3, 58, 80
6, 86780, Note_on_c, 3, 58, 0
6, 86784, Note_on_c, 3, 65, 80
6, 86972, Note_on_c, 3, 65, 0
6, 86976, Note_on_c, 3, 65, 80
6, 87164, Note_on_c, 3, 65, 0
6, 87168, Note_on_c, 3, 65, 80
6, 87356, Note_on_c, 3, 65, 0
6, 87744, Note_on_c, 3, 70, 80
6, 87932, Note_on_c, 3, 70, 0
6, 87936, Note_on_c, 3, 70, 80
6, 88124, Note_on_c, 3, 70, 0
6, 91488, Note_on_c, 3, 63, 80
6, 91584, Note_on_c, 3, 63, 0
6, 91584, Note_on_c, 3, 67, 80
6, 91680, Note_on_c, 3, 67, 0
6, 91680, Note_on_c, 3, 63, 80
6, 91772, Note_on_c, 3, 63, 0
6, 91872, Note_on_c, 3, 60, 80
6, 91968, Note_on_c, 3, 60, 0
6, 91968, Note_on_c, 3, 63, 80
6, 92064, Note_on_c, 3, 63, 0
6, 92064, Note_on_c, 3, 60, 80
6, 92156, Note_on_c, 3, 60, 0
6, 92160, Note_on_c, 3, 58, 80
6, 92348, Note_on_c, 3, 58, 0
6, 92544, Note_on_c, 3, 58, 80
6, 92928, Note_on_c, 3, 58, 0
6, 92928, Note_on_c, 3, 46, 80
6, 93116, Note_on_c, 3, 46, 0
6, 94848, Note_on_c, 3, 58, 80
6, 95232, Note_on_c, 3, 58, 0
6, 95232, Note_on_c, 3, 46, 80
6, 95420, Note_on_c, 3, 46, 0
6, 96768, Note_on_c, 3, 65, 80
6, 98492, Note_on_c, 3, 65, 0
6, 98496, Note_on_c, 3, 65, 80
6, 98632, Note_on_c, 3, 65, 0
6, 98688, Note_on_c, 3, 65, 80
6, 98824, Note_on_c, 3, 65, 0
6, 98880, Note_on_c, 3, 65, 80
6, 98944, Note_on_c, 3, 65, 0
6, 99072, Note_on_c, 3, 65, 80
6, 99260, Note_on_c, 3, 65, 0
6, 102912, Note_on_c, 3, 51, 85
6, 103232, Note_on_c, 3, 51, 0
6, 103296, Note_on_c, 3, 58, 85
6, 103616, Note_on_c, 3, 58, 0
6, 103680, Note_on_c, 3, 51, 85
6, 103868, Note_on_c, 3, 51, 0
6, 103872, Note_on_c, 3, 63, 85
6, 104060, Note_on_c, 3, 63, 0
6, 104064, Note_on_c, 3, 63, 85
6, 104252, Note_on_c, 3, 63, 0
6, 104256, Note_on_c, 3, 63, 85
6, 104444, Note_on_c, 3, 63, 0
6, 104448, Note_on_c, 3, 63, 85
6, 104960, Note_on_c, 3, 63, 0
6, 105024, Note_on_c, 3, 68, 85
6, 105212, Note_on_c, 3, 68, 0
6, 105216, Note_on_c, 3, 67, 85
6, 105600, Note_on_c, 3, 67, 0
6, 105600, Note_on_c, 3, 65, 85
6, 105788, Note_on_c, 3, 65, 0
6, 106176, Note_on_c, 3, 63, 80
6, 106496, Note_on_c, 3, 63, 0
6, 106560, Note_on_c, 3, 63, 80
6, 106748, Note_on_c, 3, 63, 0
6, 106944, Note_on_c, 3, 62, 80
6, 107264, Note_on_c, 3, 62, 0
6, 107328, Note_on_c, 3, 62, 80
6, 107516, Note_on_c, 3, 62, 0
6, 107712, Note_on_c, 3, 61, 80
6, 107904, Note_on_c, 3, 61, 0
6, 107904, Note_on_c, 3, 60, 80
6, 108092, Note_on_c, 3, 60, 0
6, 108096, Note_on_c, 3, 60, 80
6, 108160, Note_on_c, 3, 60, 0
6, 108288, Note_on_c, 3, 58, 80
6, 108800, Note_on_c, 3, 58, 0
6, 109056, Note_on_c, 3, 63, 85
6, 110780, Note_on_c, 3, 63, 0
6, 110784, Note_on_c, 3, 67, 85
6, 110880, Note_on_c, 3, 67, 0
6, 110880, Note_on_c, 3, 70, 85
6, 110972, Note_on_c, 3, 70, 0
6, 110976, Note_on_c, 3, 70, 85
6, 111072, Note_on_c, 3, 70, 0
6, 111072, Note_on_c, 3, 68, 85
6, 111168, Note_on_c, 3, 68, 0
6, 111168, Note_on_c, 3, 67, 85
6, 111264, Note_on_c, 3, 67, 0
6, 111264, Note_on_c, 3, 65, 85
6, 111356, Note_on_c, 3, 65, 0
6, 111360, Note_on_c, 3, 63, 85
6, 111548, Note_on_c, 3, 63, 0
6, 112896, Note_on_c, 3, 58, 85
6, 113852, Note_on_c, 3, 58, 0
6, 115200, Note_on_c, 3, 58, 85
6, 116156, Note_on_c, 3, 58, 0
6, 116544, Note_on_c, 3, 58, 80
6, 116736, Note_on_c, 3, 58, 0
6, 116736, Note_on_c, 3, 63, 80
6, 116924, Note_on_c, 3, 63, 0
6, 117312, Note_on_c, 3, 58, 80
6, 117504, Note_on_c, 3, 58, 0
6, 117504, Note_on_c, 3, 63, 80
6, 117692, Note_on_c, 3, 63, 0
6, 119808, Note_on_c, 3, 58, 85
6, 120764, Note_on_c, 3, 58, 0
6, 120768, Note_on_c, 3, 70, 85
6, 120860, Note_on_c, 3, 70, 0
6, 120864, Note_on_c, 3, 67, 85
6, 120956, Note_on_c, 3, 67, 0
6, 120960, Note_on_c, 3, 63, 85
6, 121052, Note_on_c, 3, 63, 0
6, 121056, Note_on_c, 3, 58, 85
6, 121148, Note_on_c, 3, 58, 0
6, 121152, Note_on_c, 3, 55, 85
6, 121244, Note_on_c, 3, 55, 0
6, 121248, Note_on_c, 3, 51, 85
6, 121340, Note_on_c, 3, 51, 0
6, 121344, Note_on_c, 3, 46, 85
6, 121532, Note_on_c, 3, 46, 0
6, 121536, Note_on_c, 3, 46, 85
6, 121724, Note_on_c, 3, 46, 0
6, 121728, Note_on_c, 3, 50, 85
6, 121916, Note_on_c, 3, 50, 0
6, 121920, Note_on_c, 3, 46, 85
6, 122108, Note_on_c, 3, 46, 0
6, 122112, Note_on_c, 3, 51, 85
6, 122300, Note_on_c, 3, 51, 0
6, 122304, Note_on_c, 3, 70, 85
6, 122396, Note_on_c, 3, 70, 0
6, 122400, Note_on_c, 3, 67, 85
6, 122492, Note_on_c, 3, 67, 0
6, 122496, Note_on_c, 3, 63, 85
6, 122588, Note_on_c, 3, 63, 0
6, 122592, Note_on_c, 3, 58, 85
6, 122684, Note_on_c, 3, 58, 0
6, 122688, Note_on_c, 3, 55, 85
6, 122780, Note_on_c, 3, 55, 0
6, 122784, Note_on_c, 3, 51, 85
6, 122876, Note_on_c, 3, 51, 0
6, 122880, Note_on_c, 3, 46, 85
6, 123200, Note_on_c, 3, 46, 0
6, 124416, Note_on_c, 3, 65, 80
6, 126272, Note_on_c, 3, 65, 0
6, 126528, Note_on_c, 3, 65, 80
6, 126672, Note_on_c, 3, 65, 0
6, 126672, Note_on_c, 3, 67, 80
6, 126716, Note_on_c, 3, 67, 0
6, 126720, Note_on_c, 3, 63, 80
6, 126784, Note_on_c, 3, 63, 0
6, 126912, Note_on_c, 3, 63, 80
6, 127056, Note_on_c, 3, 63, 0
6, 127056, Note_on_c, 3, 65, 80
6, 127100, Note_on_c, 3, 65, 0
6, 127104, Note_on_c, 3, 62, 80
6, 127168, Note_on_c, 3, 62, 0
6, 127296, Note_on_c, 3, 62, 80
6, 127440, Note_on_c, 3, 62, 0
6, 127440, Note_on_c, 3, 63, 80
6, 127484, Note_on_c, 3, 63, 0
6, 127488, Note_on_c, 3, 60, 80
6, 127680, Note_on_c, 3, 60, 0
6, 127680, Note_on_c, 3, 65, 80
6, 127872, Note_on_c, 3, 65, 0
6, 127872, Note_on_c, 3, 60, 80
6, 128064, Note_on_c, 3, 60, 0
6, 128064, Note_on_c, 3, 62, 80
6, 128252, Note_on_c, 3, 62, 0
6, 128256, Note_on_c, 3, 63, 80
6, 128832, Note_on_c, 3, 63, 0
6, 128832, Note_on_c, 3, 60, 80
6, 129020, Note_on_c, 3, 60, 0
6, 129024, Note_on_c, 3, 62, 80
6, 129344, Note_on_c, 3, 62, 0
6, 129792, Note_on_c, 3, 65, 80
6, 129980, Note_on_c, 3, 65, 0
6, 130176, Note_on_c, 3, 65, 80
6, 130364, Note_on_c, 3, 65, 0
6, 130560, Note_on_c, 3, 65, 80
6, 130880, Note_on_c, 3, 65, 0
6, 135168, Note_on_c, 3, 63, 85
6, 135264, Note_on_c, 3, 63, 0
6, 135264, Note_on_c, 3, 62, 85
6, 135360, Note_on_c, 3, 62, 0
6, 135360, Note_on_c, 3, 63, 85
6, 135456, Note_on_c, 3, 63, 0
6, 135456, Note_on_c, 3, 62, 85
6, 135552, Note_on_c, 3, 62, 0
6, 135552, Note_on_c, 3, 63, 85
6, 135648, Note_on_c, 3, 63, 0
6, 135648, Note_on_c, 3, 62, 85
6, 135744, Note_on_c, 3, 62, 0
6, 135744, Note_on_c, 3, 63, 85
6, 135840, Note_on_c, 3, 63, 0
6, 135840, Note_on_c, 3, 64, 85
6, 135936, Note_on_c, 3, 64, 0
6, 135936, Note_on_c, 3, 65, 85
6, 136032, Note_on_c, 3, 65, 0
6, 136032, Note_on_c, 3, 64, 85
6, 136128, Note_on_c, 3, 64, 0
6, 136128, Note_on_c, 3, 65, 85
6, 136224, Note_on_c, 3, 65, 0
6, 136224, Note_on_c, 3, 64, 85
6, 136320, Note_on_c, 3, 64, 0
6, 136320, Note_on_c, 3, 65, 85
6, 136508, Note_on_c, 3, 65, 0
6, 139776, Note_on_c, 3, 46, 80
6, 139964, Note_on_c, 3, 46, 0
6, 139968, Note_on_c, 3, 58, 80
6, 140156, Note_on_c, 3, 58, 0
6, 140160, Note_on_c, 3, 46, 80
6, 140348, Note_on_c, 3, 46, 0
6, 140352, Note_on_c, 3, 58, 80
6, 140540, Note_on_c, 3, 58, 0
6, 140544, Note_on_c, 3, 46, 80
6, 140732, Note_on_c, 3, 46, 0
6, 140736, Note_on_c, 3, 58, 80
6, 140924, Note_on_c, 3, 58, 0
6, 140928, Note_on_c, 3, 46, 80
6, 141116, Note_on_c, 3, 46, 0
6, 141120, Note_on_c, 3, 58, 80
6, 141308, Note_on_c, 3, 58, 0
6, 141312, Note_on_c, 3, 46, 85
6, 143036, Note_on_c, 3, 46, 0
6, 143232, Note_on_c, 3, 58, 80
6, 143300, Note_on_c, 3, 58, 0
6, 143328, Note_on_c, 3, 58, 80
6, 143396, Note_on_c, 3, 58, 0
6, 143424, Note_on_c, 3, 58, 80
6, 143492, Note_on_c, 3, 58, 0
6, 143520, Note_on_c, 3, 58, 80
6, 143584, Note_on_c, 3, 58, 0
6, 143616, Note_on_c, 3, 51, 80
6, 143804, Note_on_c, 3, 51, 0
6, 144000, Note_on_c, 3, 63, 80
6, 144068, Note_on_c, 3, 63, 0
6, 144096, Note_on_c, 3, 63, 80
6, 144164, Note_on_c, 3, 63, 0
6, 144192, Note_on_c, 3, 63, 80
6, 144260, Note_on_c, 3, 63, 0
6, 144288, Note_on_c, 3, 63, 80
6, 144352, Note_on_c, 3, 63, 0
6, 144384, Note_on_c, 3, 62, 80
6, 144448, Note_on_c, 3, 62, 0
6, 144576, Note_on_c, 3, 58, 80
6, 144764, Note_on_c, 3, 58, 0
6, 144768, Note_on_c, 3, 65, 80
6, 144960, Note_on_c, 3, 65, 0
6, 144960, Note_on_c, 3, 57, 80
6, 145148, Note_on_c, 3, 57, 0
6, 145152, Note_on_c, 3, 58, 80
6, 145472, Note_on_c, 3, 58, 0
6, 150528, Note_on_c, 3, 70, 85
6, 150716, Note_on_c, 3, 70, 0
6, 150720, Note_on_c, 3, 65, 85
6, 150908, Note_on_c, 3, 65, 0
6, 150912, Note_on_c, 3, 62, 85
6, 151100, Note_on_c, 3, 62, 0
6, 151104, Note_on_c, 3, 58, 85
6, 151292, Note_on_c, 3, 58, 0
6, 151296, Note_on_c, 3, 65, 85
6, 151968, Note_on_c, 3, 65, 0
6, 152064, Note_on_c, 3, 70, 85
6, 152252, Note_on_c, 3, 70, 0
6, 152256, Note_on_c, 3, 65, 85
6, 152444, Note_on_c, 3, 65, 0
6, 152448, Note_on_c, 3, 62, 85
6, 152636, Note_on_c, 3, 62, 0
6, 152640, Note_on_c, 3, 58, 85
6, 152828, Note_on_c, 3, 58, 0
6, 152832, Note_on_c, 3, 65, 85
6, 153920, Note_on_c, 3, 65, 0
6, 154176, Note_on_c, 3, 65, 80
6, 154368, Note_on_c, 3, 65, 0
6, 154368, Note_on_c, 3, 67, 80
6, 154688, Note_on_c, 3, 67, 0
6, 154944, Note_on_c, 3, 67, 80
6, 155132, Note_on_c, 3, 67, 0
6, 155136, Note_on_c, 3, 67, 80
6, 155456, Note_on_c, 3, 67, 0
6, 155712, Note_on_c, 3, 58, 80
6, 155900, Note_on_c, 3, 58, 0
6, 155904, Note_on_c, 3, 65, 80
6, 156092, Note_on_c, 3, 65, 0
6, 156096, Note_on_c, 3, 65, 80
6, 156284, Note_on_c, 3, 65, 0
6, 156288, Note_on_c, 3, 65, 80
6, 156476, Note_on_c, 3, 65, 0
6, 156864, Note_on_c, 3, 70, 80
6, 157052, Note_on_c, 3, 70, 0
6, 157056, Note_on_c, 3, 70, 80
6, 157244, Note_on_c, 3, 70, 0
6, 160608, Note_on_c, 3, 63, 80
6, 160704, Note_on_c, 3, 63, 0
6, 160704, Note_on_c, 3, 67, 80
6, 160800, Note_on_c, 3, 67, 0
6, 160800, Note_on_c, 3, 63, 80
6, 160892, Note_on_c, 3, 63, 0
6, 160992, Note_on_c, 3, 60, 80
6, 161088, Note_on_c, 3, 60, 0
6, 161088, Note_on_c, 3, 63, 80
6, 161184, Note_on_c, 3, 63, 0
6, 161184, Note_on_c, 3, 60, 80
6, 161276, Note_on_c, 3, 60, 0
6, 161280, Note_on_c, 3, 58, 80
6, 161468, Note_on_c, 3, 58, 0
6, 161664, Note_on_c, 3, 58, 80
6, 162048, Note_on_c, 3, 58, 0
6, 162048, Note_on_c, 3, 46, 80
6, 162236, Note_on_c, 3, 46, 0
6, 163968, Note_on_c, 3, 58, 80
6, 164352, Note_on_c, 3, 58, 0
6, 164352, Note_on_c, 3, 46, 80
6, 164540, Note_on_c, 3, 46, 0
6, 165888, Note_on_c, 3, 65, 80
6, 167612, Note_on_c, 3, 65, 0
6, 167616, Note_on_c, 3, 65, 80
6, 167752, Note_on_c, 3, 65, 0
6, 167808, Note_on_c, 3, 65, 80
6, 167944, Note_on_c, 3, 65, 0
6, 168000, Note_on_c, 3, 65, 80
6, 168064, Note_on_c, 3, 65, 0
6, 168192, Note_on_c, 3, 65, 80
6, 168380, Note_on_c, 3, 65, 0
6, 169152, Note_on_c, 3, 62, 80
6, 169288, Note_on_c, 3, 62, 0
6, 169344, Note_on_c, 3, 62, 80
6, 169480, Note_on_c, 3, 62, 0
6, 169536, Note_on_c, 3, 62, 80
6, 169600, Note_on_c, 3, 62, 0
6, 169728, Note_on_c, 3, 62, 80
6, 169916, Note_on_c, 3, 62, 0
6, 170688, Note_on_c, 3, 58, 80
6, 170824, Note_on_c, 3, 58, 0
6, 170880, Note_on_c, 3, 58, 80
6, 171016, Note_on_c, 3, 58, 0
6, 171072, Note_on_c, 3, 58, 80
6, 171136, Note_on_c, 3, 58, 0
6, 171264, Note_on_c, 3, 58, 80
6, 171328, Note_on_c, 3, 58, 0
6, 171456, Note_on_c, 3, 55, 80
6, 171648, Note_on_c, 3, 55, 0
6, 171648, Note_on_c, 3, 67, 80
6, 171836, Note_on_c, 3, 67, 0
6, 171840, Note_on_c, 3, 67, 80
6, 171904, Note_on_c, 3, 67, 0
6, 172032, Note_on_c, 3, 68, 80
6, 172800, Note_on_c, 3, 68, 0
6, 172800, Note_on_c, 3, 63, 80
6, 173756, Note_on_c, 3, 63, 0
6, 184320, Note_on_c, 3, 67, 80
6, 185276, Note_on_c, 3, 67, 0
6, 185280, Note_on_c, 3, 55, 80
6, 185468, Note_on_c, 3, 55, 0
6, 185472, Note_on_c, 3, 55, 80
6, 185660, Note_on_c, 3, 55, 0
6, 190272, Note_on_c, 3, 65, 80
6, 190460, Note_on_c, 3, 65, 0
6, 190464, Note_on_c, 3, 65, 80
6, 190560, Note_on_c, 3, 65, 0
6, 190560, Note_on_c, 3, 58, 80
6, 190652, Note_on_c, 3, 58, 0
6, 190656, Note_on_c, 3, 58, 80
6, 190976, Note_on_c, 3, 58, 0
6, 191040, Note_on_c, 3, 70, 80
6, 191228, Note_on_c, 3, 70, 0
6, 191232, Note_on_c, 3, 70, 80
6, 191328, Note_on_c, 3, 70, 0
6, 191328, Note_on_c, 3, 63, 80
6, 191420, Note_on_c, 3, 63, 0
6, 191424, Note_on_c, 3, 63, 80
6, 191744, Note_on_c, 3, 63, 0
6, 192192, Note_on_c, 3, 63, 80
6, 192256, Note_on_c, 3, 63, 0
6, 192384, Note_on_c, 3, 63, 80
6, 192448, Note_on_c, 3, 63, 0
6, 192960, Note_on_c, 3, 68, 80
6, 193152, Note_on_c, 3, 68, 0
6, 193152, Note_on_c, 3, 62, 80
6, 193340, Note_on_c, 3, 62, 0
6, 196608, Note_on_c, 3, 51, 85
6, 196928, Note_on_c, 3, 51, 0
6, 196992, Note_on_c, 3, 58, 85
6, 197312, Note_on_c, 3, 58, 0
6, 197376, Note_on_c, 3, 51, 85
6, 197564, Note_on_c, 3, 51, 0
6, 197568, Note_on_c, 3, 63, 85
6, 197756, Note_on_c, 3, 63, 0
6, 197760, Note_on_c, 3, 63, 85
6, 197948, Note_on_c, 3, 63, 0
6, 197952, Note_on_c, 3, 63, 85
6, 198140, Note_on_c, 3, 63, 0
6, 198144, Note_on_c, 3, 63, 85
6, 198656, Note_on_c, 3, 63, 0
6, 198720, Note_on_c, 3, 68, 85
6, 198908, Note_on_c, 3, 68, 0
6, 198912, Note_on_c, 3, 67, 85
6, 199296, Note_on_c, 3, 67, 0
6, 199296, Note_on_c, 3, 65, 85
6, 199484, Note_on_c, 3, 65, 0
6, 205824, Note_on_c, 3, 67, 80
6, 206012, Note_on_c, 3, 67, 0
6, 206016, Note_on_c, 3, 67, 80
6, 206400, Note_on_c, 3, 67, 0
6, 206400, Note_on_c, 3, 68, 80
6, 206588, Note_on_c, 3, 68, 0
6, 206592, Note_on_c, 3, 67, 80
6, 206688, Note_on_c, 3, 67, 0
6, 206688, Note_on_c, 3, 65, 80
6, 206780, Note_on_c, 3, 65, 0
6, 206784, Note_on_c, 3, 65, 80
6, 207168, Note_on_c, 3, 65, 0
6, 207168, Note_on_c, 3, 67, 80
6, 207356, Note_on_c, 3, 67, 0
6, 207360, Note_on_c, 3, 65, 80
6, 207456, Note_on_c, 3, 65, 0
6, 207456, Note_on_c, 3, 63, 80
6, 207548, Note_on_c, 3, 63, 0
6, 207552, Note_on_c, 3, 63, 80
6, 207740, Note_on_c, 3, 63, 0
6, 208896, Note_on_c, 3, 58, 85
6, 209852, Note_on_c, 3, 58, 0
6, 209856, Note_on_c, 3, 70, 85
6, 209948, Note_on_c, 3, 70, 0
6, 209952, Note_on_c, 3, 67, 85
6, 210044, Note_on_c, 3, 67, 0
6, 210048, Note_on_c, 3, 63, 85
6, 210140, Note_on_c, 3, 63, 0
6, 210144, Note_on_c, 3, 58, 85
6, 210236, Note_on_c, 3, 58, 0
6, 210240, Note_on_c, 3, 55, 85
6, 210332, Note_on_c, 3, 55, 0
6, 210336, Note_on_c, 3, 51, 85
6, 210428, Note_on_c, 3, 51, 0
6, 210432, Note_on_c, 3, 46, 85
6, 210620, Note_on_c, 3, 46, 0
6, 210624, Note_on_c, 3, 46, 85
6, 210812, Note_on_c, 3, 46, 0
6, 210816, Note_on_c, 3, 50, 85
6, 211004, Note_on_c, 3, 50, 0
6, 211008, Note_on_c, 3, 46, 85
6, 211196, Note_on_c, 3, 46, 0
6, 211200, Note_on_c, 3, 51, 85
6, 211388, Note_on_c, 3, 51, 0
6, 211392, Note_on_c, 3, 70, 85
6, 211484, Note_on_c, 3, 70, 0
6, 211488, Note_on_c, 3, 67, 85
6, 211580, Note_on_c, 3, 67, 0
6, 211584, Note_on_c, 3, 63, 85
6, 211676, Note_on_c, 3, 63, 0
6, 211680, Note_on_c, 3, 58, 85
6, 211772, Note_on_c, 3, 58, 0
6, 211776, Note_on_c, 3, 55, 85
6, 211868, Note_on_c, 3, 55, 0
6, 211872, Note_on_c, 3, 51, 85
6, 211964, Note_on_c, 3, 51, 0
6, 211968, Note_on_c, 3, 58, 85
6, 212156, Note_on_c, 3, 58, 0
6, 212352, Note_on_c, 3, 70, 85
6, 212640, Note_on_c, 3, 70, 0
6, 212640, Note_on_c, 3, 67, 85
6, 212732, Note_on_c, 3, 67, 0
6, 212736, Note_on_c, 3, 65, 85
6, 212924, Note_on_c, 3, 65, 0
6, 213120, Note_on_c, 3, 70, 85
6, 213408, Note_on_c, 3, 70, 0
6, 213408, Note_on_c, 3, 67, 85
6, 213500, Note_on_c, 3, 67, 0
6, 213504, Note_on_c, 3, 65, 80
6, 213568, Note_on_c, 3, 65, 0
6, 213696, Note_on_c, 3, 67, 80
6, 213760, Note_on_c, 3, 67, 0
6, 213888, Note_on_c, 3, 65, 80
6, 213952, Note_on_c, 3, 65, 0
6, 214080, Note_on_c, 3, 67, 80
6, 214144, Note_on_c, 3, 67, 0
6, 214272, Note_on_c, 3, 65, 80
6, 214460, Note_on_c, 3, 65, 0
6, 216576, Note_on_c, 3, 68, 85
6, 216672, Note_on_c, 3, 68, 0
6, 216672, Note_on_c, 3, 67, 85
6, 216768, Note_on_c, 3, 67, 0
6, 216768, Note_on_c, 3, 68, 85
6, 216864, Note_on_c, 3, 68, 0
6, 216864, Note_on_c, 3, 67, 85
6, 216960, Note_on_c, 3, 67, 0
6, 216960, Note_on_c, 3, 68, 85
6, 217056, Note_on_c, 3, 68, 0
6, 217056, Note_on_c, 3, 67, 85
6, 217152, Note_on_c, 3, 67, 0
6, 217152, Note_on_c, 3, 68, 85
6, 217248, Note_on_c, 3, 68, 0
6, 217248, Note_on_c, 3, 69, 85
6, 217344, Note_on_c, 3, 69, 0
6, 217344, Note_on_c, 3, 70, 85
6, 217440, Note_on_c, 3, 70, 0
6, 217440, Note_on_c, 3, 69, 85
6, 217536, Note_on_c, 3, 69, 0
6, 217536, Note_on_c, 3, 70, 85
6, 217632, Note_on_c, 3, 70, 0
6, 217632, Note_on_c, 3, 69, 85
6, 217728, Note_on_c, 3, 69, 0
6, 217728, Note_on_c, 3, 70, 85
6, 217916, Note_on_c, 3, 70, 0
6, 220896, Note_on_c, 3, 70, 85
6, 220992, Note_on_c, 3, 70, 0
6, 220992, Note_on_c, 3, 69, 85
6, 221088, Note_on_c, 3, 69, 0
6, 221088, Note_on_c, 3, 68, 85
6, 221180, Note_on_c, 3, 68, 0
6, 221184, Note_on_c, 3, 67, 85
6, 221472, Note_on_c, 3, 67, 0
6, 221472, Note_on_c, 3, 63, 85
6, 221564, Note_on_c, 3, 63, 0
6, 221568, Note_on_c, 3, 67, 85
6, 221664, Note_on_c, 3, 67, 0
6, 221664, Note_on_c, 3, 63, 85
6, 221760, Note_on_c, 3, 63, 0
6, 221760, Note_on_c, 3, 67, 85
6, 221856, Note_on_c, 3, 67, 0
6, 221856, Note_on_c, 3, 70, 85
6, 221948, Note_on_c, 3, 70, 0
6, 221952, Note_on_c, 3, 70, 85
6, 222048, Note_on_c, 3, 70, 0
6, 222048, Note_on_c, 3, 68, 85
6, 222144, Note_on_c, 3, 68, 0
6, 222144, Note_on_c, 3, 67, 85
6, 222240, Note_on_c, 3, 67, 0
6, 222240, Note_on_c, 3, 65, 85
6, 222332, Note_on_c, 3, 65, 0
6, 222336, Note_on_c, 3, 65, 85
6, 222524, Note_on_c, 3, 65, 0
6, 222720, Note_on_c, 3, 51, 85
6, 222908, Note_on_c, 3, 51, 0
6, 222912, Note_on_c, 3, 63, 85
6, 223100, Note_on_c, 3, 63, 0
6, 223104, Note_on_c, 3, 51, 85
6, 223292, Note_on_c, 3, 51, 0
6, 223296, Note_on_c, 3, 63, 85
6, 223484, Note_on_c, 3, 63, 0
6, 223488, Note_on_c, 3, 51, 85
6, 223676, Note_on_c, 3, 51, 0
6, 223680, Note_on_c, 3, 63, 85
6, 223868, Note_on_c, 3, 63, 0
6, 223872, Note_on_c, 3, 51, 85
6, 224060, Note_on_c, 3, 51, 0
6, 224064, Note_on_c, 3, 63, 85
6, 224252, Note_on_c, 3, 63, 0
6, 224256, Note_on_c, 3, 51, 80
6, 224444, Note_on_c, 3, 51, 0
6, 224640, Note_on_c, 3, 67, 80
6, 225024, Note_on_c, 3, 67, 0
6, 225024, Note_on_c, 3, 68, 80
6, 225212, Note_on_c, 3, 68, 0
6, 225408, Note_on_c, 3, 62, 80
6, 225792, Note_on_c, 3, 62, 0
6, 225792, Note_on_c, 3, 63, 80
6, 225980, Note_on_c, 3, 63, 0
6, 225984, Note_on_c, 3, 63, 80
6, 226172, Note_on_c, 3, 63, 0
6, 226176, Note_on_c, 3, 67, 80
6, 226364, Note_on_c, 3, 67, 0
6, 226368, Note_on_c, 3, 70, 80
6, 226464, Note_on_c, 3, 70, 0
6, 226464, Note_on_c, 3, 68, 80
6, 226556, Note_on_c, 3, 68, 0
6, 226560, Note_on_c, 3, 67, 80
6, 226880, Note_on_c, 3, 67, 0
6, 232032, Note_on_c, 3, 63, 85
6, 232220, Note_on_c, 3, 63, 0
6, 232224, Note_on_c, 3, 58, 85
6, 232412, Note_on_c, 3, 58, 0
6, 232416, Note_on_c, 3, 55, 85
6, 232604, Note_on_c, 3, 55, 0
6, 232608, Note_on_c, 3, 51, 85
6, 232700, Note_on_c, 3, 51, 0
6, 232704, Note_on_c, 3, 58, 85
6, 232892, Note_on_c, 3, 58, 0
6, 233088, Note_on_c, 3, 70, 85
6, 233564, Note_on_c, 3, 70, 0
6, 233568, Note_on_c, 3, 63, 85
6, 233756, Note_on_c, 3, 63, 0
6, 233760, Note_on_c, 3, 58, 85
6, 233948, Note_on_c, 3, 58, 0
6, 233952, Note_on_c, 3, 55, 85
6, 234140, Note_on_c, 3, 55, 0
6, 234144, Note_on_c, 3, 51, 85
6, 234236, Note_on_c, 3, 51, 0
6, 234240, Note_on_c, 3, 58, 85
6, 234428, Note_on_c, 3, 58, 0
6, 234624, Note_on_c, 3, 70, 85
6, 234944, Note_on_c, 3, 70, 0
6, 235008, Note_on_c, 3, 70, 85
6, 235328, Note_on_c, 3, 70, 0
6, 235776, Note_on_c, 3, 63, 80
6, 239036, Note_on_c, 3, 63, 0
6, 239040, Note_on_c, 3, 51, 85
6, 239228, Note_on_c, 3, 51, 0
6, 239232, Note_on_c, 3, 51, 85
6, 239420, Note_on_c, 3, 51, 0
6, 239808, Note_on_c, 3, 63, 80
6, 239996, Note_on_c, 3, 63, 0
6, 240000, Note_on_c, 3, 63, 80
6, 240188, Note_on_c, 3, 63, 0
6, 240576, Note_on_c, 3, 58, 80
6, 240860, Note_on_c, 3, 58, 0
6, 240864, Note_on_c, 3, 60, 80
6, 240912, Note_on_c, 3, 60, 0
6, 240912, Note_on_c, 3, 62, 80
6, 240960, Note_on_c, 3, 62, 0
6, 240960, Note_on_c, 3, 63, 80
6, 241008, Note_on_c, 3, 63, 0
6, 241008, Note_on_c, 3, 65, 80
6, 241056, Note_on_c, 3, 65, 0
6, 241056, Note_on_c, 3, 67, 80
6, 241104, Note_on_c, 3, 67, 0
6, 241104, Note_on_c, 3, 68, 80
6, 241148, Note_on_c, 3, 68, 0
6, 241152, Note_on_c, 3, 70, 80
6, 241824, Note_on_c, 3, 70, 0
6, 241920, Note_on_c, 3, 69, 68
6, 242592, Note_on_c, 3, 69, 0
6, 242688, Note_on_c, 3, 68, 85
6, 243456, Note_on_c, 3, 68, 0
6, 243456, Note_on_c, 3, 67, 85
6, 243644, Note_on_c, 3, 67, 0
6, 244032, Note_on_c, 3, 68, 80
6, 244220, Note_on_c, 3, 68, 0
6, 244320, Note_on_c, 3, 67, 80
6, 244416, Note_on_c, 3, 67, 0
6, 244416, Note_on_c, 3, 70, 80
6, 244512, Note_on_c, 3, 70, 0
6, 244512, Note_on_c, 3, 67, 80
6, 244604, Note_on_c, 3, 67, 0
6, 244704, Note_on_c, 3, 65, 80
6, 244800, Note_on_c, 3, 65, 0
6, 244800, Note_on_c, 3, 68, 80
6, 244896, Note_on_c, 3, 68, 0
6, 244896, Note_on_c, 3, 65, 80
6, 244988, Note_on_c, 3, 65, 0
6, 244992, Note_on_c, 3, 63, 80
6, 245180, Note_on_c, 3, 63, 0
6, 247296, Note_on_c, 3, 51, 80
6, 249504, Note_on_c, 3, 51, 0
6, 249696, Note_on_c, 3, 70, 80
6, 249788, Note_on_c, 3, 70, 0
6, 249792, Note_on_c, 3, 67, 80
6, 249884, Note_on_c, 3, 67, 0
6, 249888, Note_on_c, 3, 63, 80
6, 249980, Note_on_c, 3, 63, 0
6, 249984, Note_on_c, 3, 62, 80
6, 250076, Note_on_c, 3, 62, 0
6, 250080, Note_on_c, 3, 65, 80
6, 250172, Note_on_c, 3, 65, 0
6, 250176, Note_on_c, 3, 58, 80
6, 250268, Note_on_c, 3, 58, 0
6, 250272, Note_on_c, 3, 62, 80
6, 250364, Note_on_c, 3, 62, 0
6, 250368, Note_on_c, 3, 63, 80
6, 250460, Note_on_c, 3, 63, 0
6, 250464, Note_on_c, 3, 70, 80
6, 250556, Note_on_c, 3, 70, 0
6, 250560, Note_on_c, 3, 67, 80
6, 250652, Note_on_c, 3, 67, 0
6, 250656, Note_on_c, 3, 63, 80
6, 250748, Note_on_c, 3, 63, 0
6, 250752, Note_on_c, 3, 62, 80
6, 250844, Note_on_c, 3, 62, 0
6, 250848, Note_on_c, 3, 65, 80
6, 250940, Note_on_c, 3, 65, 0
6, 250944, Note_on_c, 3, 58, 80
6, 251036, Note_on_c, 3, 58, 0
6, 251040, Note_on_c, 3, 62, 80
6, 251132, Note_on_c, 3, 62, 0
6, 251136, Note_on_c, 3, 63, 80
6, 251200, Note_on_c, 3, 63, 0
6, 251328, Note_on_c, 3, 68, 80
6, 251392, Note_on_c, 3, 68, 0
6, 251520, Note_on_c, 3, 67, 80
6, 251584, Note_on_c, 3, 67, 0
6, 251712, Note_on_c, 3, 68, 80
6, 251776, Note_on_c, 3, 68, 0
6, 251904, Note_on_c, 3, 67, 80
6, 252092, Note_on_c, 3, 67, 0
6, 253440, Note_on_c, 3, 63, 85
6, 253500, Note_on_c, 3, 63, 0
6, 253504, Note_on_c, 3, 70, 85
6, 253564, Note_on_c, 3, 70, 0
6, 253568, Note_on_c, 3, 67, 85
6, 253628, Note_on_c, 3, 67, 0
6, 253632, Note_on_c, 3, 63, 85
6, 253692, Note_on_c, 3, 63, 0
6, 253696, Note_on_c, 3, 58, 85
6, 253756, Note_on_c, 3, 58, 0
6, 253760, Note_on_c, 3, 55, 85
6, 253820, Note_on_c, 3, 55, 0
6, 253824, Note_on_c, 3, 51, 85
6, 253884, Note_on_c, 3, 51, 0
6, 253888, Note_on_c, 3, 67, 85
6, 253948, Note_on_c, 3, 67, 0
6, 253952, Note_on_c, 3, 63, 85
6, 254012, Note_on_c, 3, 63, 0
6, 254016, Note_on_c, 3, 58, 85
6, 254076, Note_on_c, 3, 58, 0
6, 254080, Note_on_c, 3, 55, 85
6, 254140, Note_on_c, 3, 55, 0
6, 254144, Note_on_c, 3, 51, 85
6, 254204, Note_on_c, 3, 51, 0
6, 254208, Note_on_c, 3, 46, 85
6, 254396, Note_on_c, 3, 46, 0
6, 255360, Note_on_c, 3, 63, 85
6, 255680, Note_on_c, 3, 63, 0
6, 255744, Note_on_c, 3, 51, 85
6, 256064, Note_on_c, 3, 51, 0
6, 256064, End_track
7, 0, Start_track
7, 0, MIDI_port, 0
7, 0, Title_t, "Fagotto"
7, 0, Control_c, 4, 0, 0
7, 0, Control_c, 4, 32, 0
7, 0, Program_c, 4, 70
7, 0, Control_c, 4, 7, 119
7, 0, Control_c, 4, 10, 84
7, 1, Control_c, 4, 91, 70
7, 2, Note_on_c, 4, 55, 85
7, 386, Note_on_c, 4, 55, 0
7, 1536, Note_on_c, 4, 62, 85
7, 1920, Note_on_c, 4, 62, 0
7, 3072, Note_on_c, 4, 58, 85
7, 3456, Note_on_c, 4, 58, 0
7, 6144, Note_on_c, 4, 51, 85
7, 6528, Note_on_c, 4, 51, 0
7, 7104, Note_on_c, 4, 63, 80
7, 7296, Note_on_c, 4, 63, 0
7, 7296, Note_on_c, 4, 65, 80
7, 7488, Note_on_c, 4, 65, 0
7, 7488, Note_on_c, 4, 67, 80
7, 7676, Note_on_c, 4, 67, 0
7, 7680, Note_on_c, 4, 53, 85
7, 8064, Note_on_c, 4, 53, 0
7, 8640, Note_on_c, 4, 62, 80
7, 8832, Note_on_c, 4, 62, 0
7, 8832, Note_on_c, 4, 63, 80
7, 9024, Note_on_c, 4, 63, 0
7, 9024, Note_on_c, 4, 65, 80
7, 9212, Note_on_c, 4, 65, 0
7, 9216, Note_on_c, 4, 55, 80
7, 9600, Note_on_c, 4, 55, 0
7, 11712, Note_on_c, 4, 56, 80
7, 11904, Note_on_c, 4, 56, 0
7, 11904, Note_on_c, 4, 55, 80
7, 12096, Note_on_c, 4, 55, 0
7, 12096, Note_on_c, 4, 53, 80
7, 12284, Note_on_c, 4, 53, 0
7, 12288, Note_on_c, 4, 51, 80
7, 12608, Note_on_c, 4, 51, 0
7, 14016, Note_on_c, 4, 67, 80
7, 14112, Note_on_c, 4, 67, 0
7, 14112, Note_on_c, 4, 65, 80
7, 14208, Note_on_c, 4, 65, 0
7, 14208, Note_on_c, 4, 63, 80
7, 14304, Note_on_c, 4, 63, 0
7, 14304, Note_on_c, 4, 62, 80
7, 14400, Note_on_c, 4, 62, 0
7, 14400, Note_on_c, 4, 60, 80
7, 14496, Note_on_c, 4, 60, 0
7, 14496, Note_on_c, 4, 58, 80
7, 14588, Note_on_c, 4, 58, 0
7, 14592, Note_on_c, 4, 56, 80
7, 15548, Note_on_c, 4, 56, 0
7, 15552, Note_on_c, 4, 55, 80
7, 15696, Note_on_c, 4, 55, 0
7, 15696, Note_on_c, 4, 56, 80
7, 15740, Note_on_c, 4, 56, 0
7, 15744, Note_on_c, 4, 58, 80
7, 16320, Note_on_c, 4, 58, 0
7, 16320, Note_on_c, 4, 56, 80
7, 16416, Note_on_c, 4, 56, 0
7, 16416, Note_on_c, 4, 55, 80
7, 16512, Note_on_c, 4, 55, 0
7, 16512, Note_on_c, 4, 53, 80
7, 16700, Note_on_c, 4, 53, 0
7, 16704, Note_on_c, 4, 65, 80
7, 16988, Note_on_c, 4, 65, 0
7, 17088, Note_on_c, 4, 62, 80
7, 17180, Note_on_c, 4, 62, 0
7, 17280, Note_on_c, 4, 58, 80
7, 17372, Note_on_c, 4, 58, 0
7, 17472, Note_on_c, 4, 65, 80
7, 17564, Note_on_c, 4, 65, 0
7, 17664, Note_on_c, 4, 63, 85
7, 17852, Note_on_c, 4, 63, 0
7, 17856, Note_on_c, 4, 51, 85
7, 17952, Note_on_c, 4, 51, 0
7, 17952, Note_on_c, 4, 50, 85
7, 18048, Note_on_c, 4, 50, 0
7, 18048, Note_on_c, 4, 48, 85
7, 18144, Note_on_c, 4, 48, 0
7, 18144, Note_on_c, 4, 46, 85
7, 18240, Note_on_c, 4, 46, 0
7, 18240, Note_on_c, 4, 44, 85
7, 18336, Note_on_c, 4, 44, 0
7, 18336, Note_on_c, 4, 43, 85
7, 18428, Note_on_c, 4, 43, 0
7, 18432, Note_on_c, 4, 41, 85
7, 18620, Note_on_c, 4, 41, 0
7, 18624, Note_on_c, 4, 53, 85
7, 18720, Note_on_c, 4, 53, 0
7, 18720, Note_on_c, 4, 51, 85
7, 18816, Note_on_c, 4, 51, 0
7, 18816, Note_on_c, 4, 50, 85
7, 18912, Note_on_c, 4, 50, 0
7, 18912, Note_on_c, 4, 48, 85
7, 19008, Note_on_c, 4, 48, 0
7, 19008, Note_on_c, 4, 46, 85
7, 19104, Note_on_c, 4, 46, 0
7, 19104, Note_on_c, 4, 44, 85
7, 19196, Note_on_c, 4, 44, 0
7, 19200, Note_on_c, 4, 43, 85
7, 19388, Note_on_c, 4, 43, 0
7, 19392, Note_on_c, 4, 55, 85
7, 19488, Note_on_c, 4, 55, 0
7, 19488, Note_on_c, 4, 53, 85
7, 19584, Note_on_c, 4, 53, 0
7, 19584, Note_on_c, 4, 51, 85
7, 19680, Note_on_c, 4, 51, 0
7, 19680, Note_on_c, 4, 50, 85
7, 19776, Note_on_c, 4, 50, 0
7, 19776, Note_on_c, 4, 48, 85
7, 19872, Note_on_c, 4, 48, 0
7, 19872, Note_on_c, 4, 46, 85
7, 19964, Note_on_c, 4, 46, 0
7, 19968, Note_on_c, 4, 44, 85
7, 20108, Note_on_c, 4, 44, 0
7, 20112, Note_on_c, 4, 56, 85
7, 20156, Note_on_c, 4, 56, 0
7, 20160, Note_on_c, 4, 56, 85
7, 20300, Note_on_c, 4, 56, 0
7, 20304, Note_on_c, 4, 56, 85
7, 20348, Note_on_c, 4, 56, 0
7, 20352, Note_on_c, 4, 56, 85
7, 20540, Note_on_c, 4, 56, 0
7, 20880, Note_on_c, 4, 45, 85
7, 20924, Note_on_c, 4, 45, 0
7, 20928, Note_on_c, 4, 57, 85
7, 21068, Note_on_c, 4, 57, 0
7, 21072, Note_on_c, 4, 57, 85
7, 21116, Note_on_c, 4, 57, 0
7, 21120, Note_on_c, 4, 57, 85
7, 21308, Note_on_c, 4, 57, 0
7, 21504, Note_on_c, 4, 60, 80
7, 22080, Note_on_c, 4, 60, 0
7, 22080, Note_on_c, 4, 63, 80
7, 22268, Note_on_c, 4, 63, 0
7, 22272, Note_on_c, 4, 62, 80
7, 22460, Note_on_c, 4, 62, 0
7, 24000, Note_on_c, 4, 62, 80
7, 24192, Note_on_c, 4, 62, 0
7, 24192, Note_on_c, 4, 63, 80
7, 24240, Note_on_c, 4, 63, 0
7, 24240, Note_on_c, 4, 62, 80
7, 24288, Note_on_c, 4, 62, 0
7, 24288, Note_on_c, 4, 60, 80
7, 24336, Note_on_c, 4, 60, 0
7, 24336, Note_on_c, 4, 62, 80
7, 24384, Note_on_c, 4, 62, 0
7, 24384, Note_on_c, 4, 63, 80
7, 24476, Note_on_c, 4, 63, 0
7, 24480, Note_on_c, 4, 59, 80
7, 24572, Note_on_c, 4, 59, 0
7, 24576, Note_on_c, 4, 60, 80
7, 24764, Note_on_c, 4, 60, 0
7, 24768, Note_on_c, 4, 60, 80
7, 24960, Note_on_c, 4, 60, 0
7, 24960, Note_on_c, 4, 62, 80
7, 25008, Note_on_c, 4, 62, 0
7, 25008, Note_on_c, 4, 60, 80
7, 25056, Note_on_c, 4, 60, 0
7, 25056, Note_on_c, 4, 59, 80
7, 25104, Note_on_c, 4, 59, 0
7, 25104, Note_on_c, 4, 60, 80
7, 25152, Note_on_c, 4, 60, 0
7, 25152, Note_on_c, 4, 62, 80
7, 25244, Note_on_c, 4, 62, 0
7, 25248, Note_on_c, 4, 57, 80
7, 25340, Note_on_c, 4, 57, 0
7, 25344, Note_on_c, 4, 58, 80
7, 25532, Note_on_c, 4, 58, 0
7, 26112, Note_on_c, 4, 66, 80
7, 26688, Note_on_c, 4, 66, 0
7, 26688, Note_on_c, 4, 65, 80
7, 26876, Note_on_c, 4, 65, 0
7, 26880, Note_on_c, 4, 65, 80
7, 27068, Note_on_c, 4, 65, 0
7, 27264, Note_on_c, 4, 65, 80
7, 27360, Note_on_c, 4, 65, 0
7, 27360, Note_on_c, 4, 63, 80
7, 27404, Note_on_c, 4, 63, 0
7, 27456, Note_on_c, 4, 63, 80
7, 27552, Note_on_c, 4, 63, 0
7, 27552, Note_on_c, 4, 62, 80
7, 27596, Note_on_c, 4, 62, 0
7, 27648, Note_on_c, 4, 62, 80
7, 27836, Note_on_c, 4, 62, 0
7, 28032, Note_on_c, 4, 65, 80
7, 28128, Note_on_c, 4, 65, 0
7, 28128, Note_on_c, 4, 63, 80
7, 28172, Note_on_c, 4, 63, 0
7, 28224, Note_on_c, 4, 63, 80
7, 28320, Note_on_c, 4, 63, 0
7, 28320, Note_on_c, 4, 62, 80
7, 28364, Note_on_c, 4, 62, 0
7, 28416, Note_on_c, 4, 62, 80
7, 28604, Note_on_c, 4, 62, 0
7, 28800, Note_on_c, 4, 65, 80
7, 28896, Note_on_c, 4, 65, 0
7, 28896, Note_on_c, 4, 63, 80
7, 28940, Note_on_c, 4, 63, 0
7, 28992, Note_on_c, 4, 63, 80
7, 29088, Note_on_c, 4, 63, 0
7, 29088, Note_on_c, 4, 62, 80
7, 29132, Note_on_c, 4, 62, 0
7, 29184, Note_on_c, 4, 62, 80
7, 29372, Note_on_c, 4, 62, 0
7, 29520, Note_on_c, 4, 65, 85
7, 29564, Note_on_c, 4, 65, 0
7, 29568, Note_on_c, 4, 65, 85
7, 29756, Note_on_c, 4, 65, 0
7, 29760, Note_on_c, 4, 65, 85
7, 29948, Note_on_c, 4, 65, 0
7, 29952, Note_on_c, 4, 65, 85
7, 30624, Note_on_c, 4, 65, 0
7, 33792, Note_on_c, 4, 67, 85
7, 34112, Note_on_c, 4, 67, 0
7, 34176, Note_on_c, 4, 62, 85
7, 34496, Note_on_c, 4, 62, 0
7, 34560, Note_on_c, 4, 63, 85
7, 34880, Note_on_c, 4, 63, 0
7, 34944, Note_on_c, 4, 60, 85
7, 35132, Note_on_c, 4, 60, 0
7, 35136, Note_on_c, 4, 56, 85
7, 35324, Note_on_c, 4, 56, 0
7, 35328, Note_on_c, 4, 55, 85
7, 35648, Note_on_c, 4, 55, 0
7, 35712, Note_on_c, 4, 56, 85
7, 35900, Note_on_c, 4, 56, 0
7, 35904, Note_on_c, 4, 53, 85
7, 36092, Note_on_c, 4, 53, 0
7, 36096, Note_on_c, 4, 58, 85
7, 36608, Note_on_c, 4, 58, 0
7, 37056, Note_on_c, 4, 51, 80
7, 37192, Note_on_c, 4, 51, 0
7, 37248, Note_on_c, 4, 51, 80
7, 37384, Note_on_c, 4, 51, 0
7, 37440, Note_on_c, 4, 51, 80
7, 37504, Note_on_c, 4, 51, 0
7, 37824, Note_on_c, 4, 56, 80
7, 37960, Note_on_c, 4, 56, 0
7, 38016, Note_on_c, 4, 56, 80
7, 38152, Note_on_c, 4, 56, 0
7, 38208, Note_on_c, 4, 56, 80
7, 38272, Note_on_c, 4, 56, 0
7, 38592, Note_on_c, 4, 55, 80
7, 38784, Note_on_c, 4, 55, 0
7, 38784, Note_on_c, 4, 56, 80
7, 38976, Note_on_c, 4, 56, 0
7, 38976, Note_on_c, 4, 53, 80
7, 39164, Note_on_c, 4, 53, 0
7, 39168, Note_on_c, 4, 46, 80
7, 39680, Note_on_c, 4, 46, 0
7, 39936, Note_on_c, 4, 43, 85
7, 40256, Note_on_c, 4, 43, 0
7, 40320, Note_on_c, 4, 44, 85
7, 40640, Note_on_c, 4, 44, 0
7, 40704, Note_on_c, 4, 46, 85
7, 40992, Note_on_c, 4, 46, 0
7, 40992, Note_on_c, 4, 45, 85
7, 41040, Note_on_c, 4, 45, 0
7, 41040, Note_on_c, 4, 46, 85
7, 41088, Note_on_c, 4, 46, 0
7, 41088, Note_on_c, 4, 48, 85
7, 41276, Note_on_c, 4, 48, 0
7, 41280, Note_on_c, 4, 47, 85
7, 41344, Note_on_c, 4, 47, 0
7, 41472, Note_on_c, 4, 46, 85
7, 41792, Note_on_c, 4, 46, 0
7, 41856, Note_on_c, 4, 34, 85
7, 42176, Note_on_c, 4, 34, 0
7, 42240, Note_on_c, 4, 39, 85
7, 42428, Note_on_c, 4, 39, 0
7, 43776, Note_on_c, 4, 56, 85
7, 44544, Note_on_c, 4, 56, 0
7, 44544, Note_on_c, 4, 55, 85
7, 44732, Note_on_c, 4, 55, 0
7, 44928, Note_on_c, 4, 55, 85
7, 45120, Note_on_c, 4, 55, 0
7, 45120, Note_on_c, 4, 58, 85
7, 45308, Note_on_c, 4, 58, 0
7, 45312, Note_on_c, 4, 56, 85
7, 45500, Note_on_c, 4, 56, 0
7, 45696, Note_on_c, 4, 56, 85
7, 45888, Note_on_c, 4, 56, 0
7, 45888, Note_on_c, 4, 55, 85
7, 46076, Note_on_c, 4, 55, 0
7, 46080, Note_on_c, 4, 53, 85
7, 46848, Note_on_c, 4, 53, 0
7, 46848, Note_on_c, 4, 51, 85
7, 47036, Note_on_c, 4, 51, 0
7, 47424, Note_on_c, 4, 65, 80
7, 47616, Note_on_c, 4, 65, 0
7, 47616, Note_on_c, 4, 67, 80
7, 47804, Note_on_c, 4, 67, 0
7, 48192, Note_on_c, 4, 65, 80
7, 48384, Note_on_c, 4, 65, 0
7, 48384, Note_on_c, 4, 67, 80
7, 48572, Note_on_c, 4, 67, 0
7, 50688, Note_on_c, 4, 46, 85
7, 50780, Note_on_c, 4, 46, 0
7, 50784, Note_on_c, 4, 58, 85
7, 50876, Note_on_c, 4, 58, 0
7, 50880, Note_on_c, 4, 62, 85
7, 50972, Note_on_c, 4, 62, 0
7, 50976, Note_on_c, 4, 58, 85
7, 51068, Note_on_c, 4, 58, 0
7, 51072, Note_on_c, 4, 53, 85
7, 51164, Note_on_c, 4, 53, 0
7, 51168, Note_on_c, 4, 58, 85
7, 51260, Note_on_c, 4, 58, 0
7, 51264, Note_on_c, 4, 50, 85
7, 51356, Note_on_c, 4, 50, 0
7, 51360, Note_on_c, 4, 53, 85
7, 51452, Note_on_c, 4, 53, 0
7, 51456, Note_on_c, 4, 46, 85
7, 51548, Note_on_c, 4, 46, 0
7, 51552, Note_on_c, 4, 58, 85
7, 51644, Note_on_c, 4, 58, 0
7, 51648, Note_on_c, 4, 63, 85
7, 51740, Note_on_c, 4, 63, 0
7, 51744, Note_on_c, 4, 58, 85
7, 51836, Note_on_c, 4, 58, 0
7, 51840, Note_on_c, 4, 55, 85
7, 51932, Note_on_c, 4, 55, 0
7, 51936, Note_on_c, 4, 58, 85
7, 52028, Note_on_c, 4, 58, 0
7, 52032, Note_on_c, 4, 51, 85
7, 52124, Note_on_c, 4, 51, 0
7, 52128, Note_on_c, 4, 58, 85
7, 52220, Note_on_c, 4, 58, 0
7, 52224, Note_on_c, 4, 46, 85
7, 52316, Note_on_c, 4, 46, 0
7, 52320, Note_on_c, 4, 58, 85
7, 52412, Note_on_c, 4, 58, 0
7, 52416, Note_on_c, 4, 62, 85
7, 52508, Note_on_c, 4, 62, 0
7, 52512, Note_on_c, 4, 58, 85
7, 52604, Note_on_c, 4, 58, 0
7, 52608, Note_on_c, 4, 53, 85
7, 52700, Note_on_c, 4, 53, 0
7, 52704, Note_on_c, 4, 58, 85
7, 52796, Note_on_c, 4, 58, 0
7, 52800, Note_on_c, 4, 50, 85
7, 52892, Note_on_c, 4, 50, 0
7, 52896, Note_on_c, 4, 53, 85
7, 52988, Note_on_c, 4, 53, 0
7, 52992, Note_on_c, 4, 46, 85
7, 53084, Note_on_c, 4, 46, 0
7, 53088, Note_on_c, 4, 58, 85
7, 53180, Note_on_c, 4, 58, 0
7, 53184, Note_on_c, 4, 63, 85
7, 53276, Note_on_c, 4, 63, 0
7, 53280, Note_on_c, 4, 58, 85
7, 53372, Note_on_c, 4, 58, 0
7, 53376, Note_on_c, 4, 55, 85
7, 53468, Note_on_c, 4, 55, 0
7, 53472, Note_on_c, 4, 58, 85
7, 53564, Note_on_c, 4, 58, 0
7, 53568, Note_on_c, 4, 51, 85
7, 53660, Note_on_c, 4, 51, 0
7, 53664, Note_on_c, 4, 58, 85
7, 53756, Note_on_c, 4, 58, 0
7, 53760, Note_on_c, 4, 46, 85
7, 54080, Note_on_c, 4, 46, 0
7, 57408, Note_on_c, 4, 62, 80
7, 57552, Note_on_c, 4, 62, 0
7, 57552, Note_on_c, 4, 63, 80
7, 57596, Note_on_c, 4, 63, 0
7, 57600, Note_on_c, 4, 60, 80
7, 57664, Note_on_c, 4, 60, 0
7, 57792, Note_on_c, 4, 60, 80
7, 57936, Note_on_c, 4, 60, 0
7, 57936, Note_on_c, 4, 62, 80
7, 57980, Note_on_c, 4, 62, 0
7, 57984, Note_on_c, 4, 58, 80
7, 58048, Note_on_c, 4, 58, 0
7, 58176, Note_on_c, 4, 58, 80
7, 58320, Note_on_c, 4, 58, 0
7, 58320, Note_on_c, 4, 60, 80
7, 58364, Note_on_c, 4, 60, 0
7, 58368, Note_on_c, 4, 57, 80
7, 58556, Note_on_c, 4, 57, 0
7, 58560, Note_on_c, 4, 57, 80
7, 58944, Note_on_c, 4, 57, 0
7, 58944, Note_on_c, 4, 59, 80
7, 59132, Note_on_c, 4, 59, 0
7, 59136, Note_on_c, 4, 60, 80
7, 59712, Note_on_c, 4, 60, 0
7, 59712, Note_on_c, 4, 57, 80
7, 59900, Note_on_c, 4, 57, 0
7, 59904, Note_on_c, 4, 58, 80
7, 60224, Note_on_c, 4, 58, 0
7, 60672, Note_on_c, 4, 57, 80
7, 60860, Note_on_c, 4, 57, 0
7, 61056, Note_on_c, 4, 58, 80
7, 61244, Note_on_c, 4, 58, 0
7, 61440, Note_on_c, 4, 53, 80
7, 61760, Note_on_c, 4, 53, 0
7, 66048, Note_on_c, 4, 60, 85
7, 66144, Note_on_c, 4, 60, 0
7, 66144, Note_on_c, 4, 59, 85
7, 66240, Note_on_c, 4, 59, 0
7, 66240, Note_on_c, 4, 60, 85
7, 66336, Note_on_c, 4, 60, 0
7, 66336, Note_on_c, 4, 59, 85
7, 66432, Note_on_c, 4, 59, 0
7, 66432, Note_on_c, 4, 60, 85
7, 66528, Note_on_c, 4, 60, 0
7, 66528, Note_on_c, 4, 59, 85
7, 66624, Note_on_c, 4, 59, 0
7, 66624, Note_on_c, 4, 60, 85
7, 66720, Note_on_c, 4, 60, 0
7, 66720, Note_on_c, 4, 61, 85
7, 66816, Note_on_c, 4, 61, 0
7, 66816, Note_on_c, 4, 62, 85
7, 66912, Note_on_c, 4, 62, 0
7, 66912, Note_on_c, 4, 61, 85
7, 67008, Note_on_c, 4, 61, 0
7, 67008, Note_on_c, 4, 62, 85
7, 67104, Note_on_c, 4, 62, 0
7, 67104, Note_on_c, 4, 61, 85
7, 67200, Note_on_c, 4, 61, 0
7, 67200, Note_on_c, 4, 62, 85
7, 67388, Note_on_c, 4, 62, 0
7, 70656, Note_on_c, 4, 58, 80
7, 70752, Note_on_c, 4, 58, 0
7, 70752, Note_on_c, 4, 62, 80
7, 70848, Note_on_c, 4, 62, 0
7, 70848, Note_on_c, 4, 65, 80
7, 70944, Note_on_c, 4, 65, 0
7, 70944, Note_on_c, 4, 62, 80
7, 71036, Note_on_c, 4, 62, 0
7, 71040, Note_on_c, 4, 58, 80
7, 71136, Note_on_c, 4, 58, 0
7, 71136, Note_on_c, 4, 62, 80
7, 71232, Note_on_c, 4, 62, 0
7, 71232, Note_on_c, 4, 65, 80
7, 71328, Note_on_c, 4, 65, 0
7, 71328, Note_on_c, 4, 62, 80
7, 71420, Note_on_c, 4, 62, 0
7, 71424, Note_on_c, 4, 60, 80
7, 71520, Note_on_c, 4, 60, 0
7, 71520, Note_on_c, 4, 63, 80
7, 71616, Note_on_c, 4, 63, 0
7, 71616, Note_on_c, 4, 65, 80
7, 71712, Note_on_c, 4, 65, 0
7, 71712, Note_on_c, 4, 63, 80
7, 71804, Note_on_c, 4, 63, 0
7, 71808, Note_on_c, 4, 60, 80
7, 71904, Note_on_c, 4, 60, 0
7, 71904, Note_on_c, 4, 63, 80
7, 72000, Note_on_c, 4, 63, 0
7, 72000, Note_on_c, 4, 65, 80
7, 72096, Note_on_c, 4, 65, 0
7, 72096, Note_on_c, 4, 63, 80
7, 72188, Note_on_c, 4, 63, 0
7, 72192, Note_on_c, 4, 46, 85
7, 72380, Note_on_c, 4, 46, 0
7, 72384, Note_on_c, 4, 58, 85
7, 72572, Note_on_c, 4, 58, 0
7, 72576, Note_on_c, 4, 46, 85
7, 72764, Note_on_c, 4, 46, 0
7, 72768, Note_on_c, 4, 58, 85
7, 72956, Note_on_c, 4, 58, 0
7, 72960, Note_on_c, 4, 46, 85
7, 73148, Note_on_c, 4, 46, 0
7, 73152, Note_on_c, 4, 58, 85
7, 73340, Note_on_c, 4, 58, 0
7, 73344, Note_on_c, 4, 46, 85
7, 73532, Note_on_c, 4, 46, 0
7, 73536, Note_on_c, 4, 58, 85
7, 73724, Note_on_c, 4, 58, 0
7, 73728, Note_on_c, 4, 46, 85
7, 73916, Note_on_c, 4, 46, 0
7, 74112, Note_on_c, 4, 62, 80
7, 74180, Note_on_c, 4, 62, 0
7, 74208, Note_on_c, 4, 62, 80
7, 74276, Note_on_c, 4, 62, 0
7, 74304, Note_on_c, 4, 62, 80
7, 74372, Note_on_c, 4, 62, 0
7, 74400, Note_on_c, 4, 62, 80
7, 74464, Note_on_c, 4, 62, 0
7, 74496, Note_on_c, 4, 63, 80
7, 74684, Note_on_c, 4, 63, 0
7, 74880, Note_on_c, 4, 53, 80
7, 74948, Note_on_c, 4, 53, 0
7, 74976, Note_on_c, 4, 53, 80
7, 75044, Note_on_c, 4, 53, 0
7, 75072, Note_on_c, 4, 53, 80
7, 75140, Note_on_c, 4, 53, 0
7, 75168, Note_on_c, 4, 53, 80
7, 75232, Note_on_c, 4, 53, 0
7, 75264, Note_on_c, 4, 58, 80
7, 75328, Note_on_c, 4, 58, 0
7, 75456, Note_on_c, 4, 55, 80
7, 75520, Note_on_c, 4, 55, 0
7, 75648, Note_on_c, 4, 53, 80
7, 75968, Note_on_c, 4, 53, 0
7, 76032, Note_on_c, 4, 46, 80
7, 76352, Note_on_c, 4, 46, 0
7, 82176, Note_on_c, 4, 63, 85
7, 82236, Note_on_c, 4, 63, 0
7, 82240, Note_on_c, 4, 62, 85
7, 82300, Note_on_c, 4, 62, 0
7, 82304, Note_on_c, 4, 60, 85
7, 82364, Note_on_c, 4, 60, 0
7, 82368, Note_on_c, 4, 58, 85
7, 82428, Note_on_c, 4, 58, 0
7, 82432, Note_on_c, 4, 57, 85
7, 82492, Note_on_c, 4, 57, 0
7, 82496, Note_on_c, 4, 55, 85
7, 82556, Note_on_c, 4, 55, 0
7, 82560, Note_on_c, 4, 53, 85
7, 82620, Note_on_c, 4, 53, 0
7, 82624, Note_on_c, 4, 51, 85
7, 82684, Note_on_c, 4, 51, 0
7, 82688, Note_on_c, 4, 50, 85
7, 82748, Note_on_c, 4, 50, 0
7, 82752, Note_on_c, 4, 48, 85
7, 82812, Note_on_c, 4, 48, 0
7, 82816, Note_on_c, 4, 46, 85
7, 82876, Note_on_c, 4, 46, 0
7, 82880, Note_on_c, 4, 45, 85
7, 82940, Note_on_c, 4, 45, 0
7, 82944, Note_on_c, 4, 46, 85
7, 83132, Note_on_c, 4, 46, 0
7, 83712, Note_on_c, 4, 63, 85
7, 83772, Note_on_c, 4, 63, 0
7, 83776, Note_on_c, 4, 62, 85
7, 83836, Note_on_c, 4, 62, 0
7, 83840, Note_on_c, 4, 60, 85
7, 83900, Note_on_c, 4, 60, 0
7, 83904, Note_on_c, 4, 58, 85
7, 83964, Note_on_c, 4, 58, 0
7, 83968, Note_on_c, 4, 57, 85
7, 84028, Note_on_c, 4, 57, 0
7, 84032, Note_on_c, 4, 55, 85
7, 84092, Note_on_c, 4, 55, 0
7, 84096, Note_on_c, 4, 53, 85
7, 84156, Note_on_c, 4, 53, 0
7, 84160, Note_on_c, 4, 51, 85
7, 84220, Note_on_c, 4, 51, 0
7, 84224, Note_on_c, 4, 50, 85
7, 84284, Note_on_c, 4, 50, 0
7, 84288, Note_on_c, 4, 48, 85
7, 84348, Note_on_c, 4, 48, 0
7, 84352, Note_on_c, 4, 46, 85
7, 84412, Note_on_c, 4, 46, 0
7, 84416, Note_on_c, 4, 45, 85
7, 84476, Note_on_c, 4, 45, 0
7, 84480, Note_on_c, 4, 46, 85
7, 84800, Note_on_c, 4, 46, 0
7, 85056, Note_on_c, 4, 50, 80
7, 85248, Note_on_c, 4, 50, 0
7, 85248, Note_on_c, 4, 51, 80
7, 85568, Note_on_c, 4, 51, 0
7, 85824, Note_on_c, 4, 51, 80
7, 86016, Note_on_c, 4, 51, 0
7, 86016, Note_on_c, 4, 52, 80
7, 86336, Note_on_c, 4, 52, 0
7, 86592, Note_on_c, 4, 55, 80
7, 86780, Note_on_c, 4, 55, 0
7, 86784, Note_on_c, 4, 53, 80
7, 86972, Note_on_c, 4, 53, 0
7, 86976, Note_on_c, 4, 62, 80
7, 87164, Note_on_c, 4, 62, 0
7, 87168, Note_on_c, 4, 62, 80
7, 87356, Note_on_c, 4, 62, 0
7, 87744, Note_on_c, 4, 65, 80
7, 87932, Note_on_c, 4, 65, 0
7, 87936, Note_on_c, 4, 65, 80
7, 88124, Note_on_c, 4, 65, 0
7, 90048, Note_on_c, 4, 48, 80
7, 90288, Note_on_c, 4, 48, 0
7, 90288, Note_on_c, 4, 50, 80
7, 90336, Note_on_c, 4, 50, 0
7, 90336, Note_on_c, 4, 52, 80
7, 90384, Note_on_c, 4, 52, 0
7, 90384, Note_on_c, 4, 53, 80
7, 90432, Note_on_c, 4, 53, 0
7, 90432, Note_on_c, 4, 55, 80
7, 90480, Note_on_c, 4, 55, 0
7, 90480, Note_on_c, 4, 57, 80
7, 90528, Note_on_c, 4, 57, 0
7, 90528, Note_on_c, 4, 59, 80
7, 90576, Note_on_c, 4, 59, 0
7, 90576, Note_on_c, 4, 60, 80
7, 90620, Note_on_c, 4, 60, 0
7, 90624, Note_on_c, 4, 54, 85
7, 91008, Note_on_c, 4, 54, 0
7, 91008, Note_on_c, 4, 55, 85
7, 91196, Note_on_c, 4, 55, 0
7, 91488, Note_on_c, 4, 60, 80
7, 91584, Note_on_c, 4, 60, 0
7, 91584, Note_on_c, 4, 63, 80
7, 91680, Note_on_c, 4, 63, 0
7, 91680, Note_on_c, 4, 60, 80
7, 91772, Note_on_c, 4, 60, 0
7, 91872, Note_on_c, 4, 57, 80
7, 91968, Note_on_c, 4, 57, 0
7, 91968, Note_on_c, 4, 60, 80
7, 92064, Note_on_c, 4, 60, 0
7, 92064, Note_on_c, 4, 57, 80
7, 92156, Note_on_c, 4, 57, 0
7, 92160, Note_on_c, 4, 58, 80
7, 92348, Note_on_c, 4, 58, 0
7, 92544, Note_on_c, 4, 62, 80
7, 92864, Note_on_c, 4, 62, 0
7, 92928, Note_on_c, 4, 63, 80
7, 93116, Note_on_c, 4, 63, 0
7, 94848, Note_on_c, 4, 62, 80
7, 95168, Note_on_c, 4, 62, 0
7, 95232, Note_on_c, 4, 63, 80
7, 95420, Note_on_c, 4, 63, 0
7, 96864, Note_on_c, 4, 58, 80
7, 96960, Note_on_c, 4, 58, 0
7, 96960, Note_on_c, 4, 62, 80
7, 97056, Note_on_c, 4, 62, 0
7, 97056, Note_on_c, 4, 58, 80
7, 97152, Note_on_c, 4, 58, 0
7, 97152, Note_on_c, 4, 63, 80
7, 97248, Note_on_c, 4, 63, 0
7, 97248, Note_on_c, 4, 60, 80
7, 97344, Note_on_c, 4, 60, 0
7, 97344, Note_on_c, 4, 57, 80
7, 97440, Note_on_c, 4, 57, 0
7, 97440, Note_on_c, 4, 60, 80
7, 97532, Note_on_c, 4, 60, 0
7, 97536, Note_on_c, 4, 62, 80
7, 97600, Note_on_c, 4, 62, 0
7, 97632, Note_on_c, 4, 58, 80
7, 97728, Note_on_c, 4, 58, 0
7, 97728, Note_on_c, 4, 62, 80
7, 97824, Note_on_c, 4, 62, 0
7, 97824, Note_on_c, 4, 58, 80
7, 97920, Note_on_c, 4, 58, 0
7, 97920, Note_on_c, 4, 63, 80
7, 98016, Note_on_c, 4, 63, 0
7, 98016, Note_on_c, 4, 60, 80
7, 98112, Note_on_c, 4, 60, 0
7, 98112, Note_on_c, 4, 57, 80
7, 98208, Note_on_c, 4, 57, 0
7, 98208, Note_on_c, 4, 60, 80
7, 98300, Note_on_c, 4, 60, 0
7, 98304, Note_on_c, 4, 58, 80
7, 98368, Note_on_c, 4, 58, 0
7, 98496, Note_on_c, 4, 53, 80
7, 98560, Note_on_c, 4, 53, 0
7, 98688, Note_on_c, 4, 58, 80
7, 98752, Note_on_c, 4, 58, 0
7, 98880, Note_on_c, 4, 41, 80
7, 98944, Note_on_c, 4, 41, 0
7, 99072, Note_on_c, 4, 46, 80
7, 99136, Note_on_c, 4, 46, 0
7, 102912, Note_on_c, 4, 67, 85
7, 103232, Note_on_c, 4, 67, 0
7, 103296, Note_on_c, 4, 62, 85
7, 103616, Note_on_c, 4, 62, 0
7, 103680, Note_on_c, 4, 63, 85
7, 104000, Note_on_c, 4, 63, 0
7, 104064, Note_on_c, 4, 60, 85
7, 104252, Note_on_c, 4, 60, 0
7, 104256, Note_on_c, 4, 56, 85
7, 104444, Note_on_c, 4, 56, 0
7, 104448, Note_on_c, 4, 55, 85
7, 104768, Note_on_c, 4, 55, 0
7, 104832, Note_on_c, 4, 56, 85
7, 105020, Note_on_c, 4, 56, 0
7, 105024, Note_on_c, 4, 53, 85
7, 105212, Note_on_c, 4, 53, 0
7, 105216, Note_on_c, 4, 58, 85
7, 105728, Note_on_c, 4, 58, 0
7, 106176, Note_on_c, 4, 51, 80
7, 106312, Note_on_c, 4, 51, 0
7, 106368, Note_on_c, 4, 51, 80
7, 106504, Note_on_c, 4, 51, 0
7, 106560, Note_on_c, 4, 51, 80
7, 106624, Note_on_c, 4, 51, 0
7, 106944, Note_on_c, 4, 56, 80
7, 107080, Note_on_c, 4, 56, 0
7, 107136, Note_on_c, 4, 56, 80
7, 107272, Note_on_c, 4, 56, 0
7, 107328, Note_on_c, 4, 56, 80
7, 107392, Note_on_c, 4, 56, 0
7, 107712, Note_on_c, 4, 55, 80
7, 107904, Note_on_c, 4, 55, 0
7, 107904, Note_on_c, 4, 56, 80
7, 108096, Note_on_c, 4, 56, 0
7, 108096, Note_on_c, 4, 53, 80
7, 108284, Note_on_c, 4, 53, 0
7, 108288, Note_on_c, 4, 46, 80
7, 108800, Note_on_c, 4, 46, 0
7, 109056, Note_on_c, 4, 43, 85
7, 109376, Note_on_c, 4, 43, 0
7, 109440, Note_on_c, 4, 44, 85
7, 109760, Note_on_c, 4, 44, 0
7, 109824, Note_on_c, 4, 46, 85
7, 110112, Note_on_c, 4, 46, 0
7, 110112, Note_on_c, 4, 45, 85
7, 110160, Note_on_c, 4, 45, 0
7, 110160, Note_on_c, 4, 46, 85
7, 110208, Note_on_c, 4, 46, 0
7, 110208, Note_on_c, 4, 48, 85
7, 110396, Note_on_c, 4, 48, 0
7, 110400, Note_on_c, 4, 47, 85
7, 110464, Note_on_c, 4, 47, 0
7, 110592, Note_on_c, 4, 46, 85
7, 110912, Note_on_c, 4, 46, 0
7, 110976, Note_on_c, 4, 34, 85
7, 111296, Note_on_c, 4, 34, 0
7, 111360, Note_on_c, 4, 39, 85
7, 111548, Note_on_c, 4, 39, 0
7, 112896, Note_on_c, 4, 56, 85
7, 113664, Note_on_c, 4, 56, 0
7, 113664, Note_on_c, 4, 55, 85
7, 113852, Note_on_c, 4, 55, 0
7, 114048, Note_on_c, 4, 55, 85
7, 114240, Note_on_c, 4, 55, 0
7, 114240, Note_on_c, 4, 58, 85
7, 114428, Note_on_c, 4, 58, 0
7, 114432, Note_on_c, 4, 56, 85
7, 114620, Note_on_c, 4, 56, 0
7, 114816, Note_on_c, 4, 56, 85
7, 115008, Note_on_c, 4, 56, 0
7, 115008, Note_on_c, 4, 55, 85
7, 115196, Note_on_c, 4, 55, 0
7, 115200, Note_on_c, 4, 53, 85
7, 115968, Note_on_c, 4, 53, 0
7, 115968, Note_on_c, 4, 51, 85
7, 116156, Note_on_c, 4, 51, 0
7, 116544, Note_on_c, 4, 65, 80
7, 116736, Note_on_c, 4, 65, 0
7, 116736, Note_on_c, 4, 67, 80
7, 116924, Note_on_c, 4, 67, 0
7, 117312, Note_on_c, 4, 65, 80
7, 117504, Note_on_c, 4, 65, 0
7, 117504, Note_on_c, 4, 67, 80
7, 117692, Note_on_c, 4, 67, 0
7, 119808, Note_on_c, 4, 46, 85
7, 119900, Note_on_c, 4, 46, 0
7, 119904, Note_on_c, 4, 58, 85
7, 119996, Note_on_c, 4, 58, 0
7, 120000, Note_on_c, 4, 62, 85
7, 120092, Note_on_c, 4, 62, 0
7, 120096, Note_on_c, 4, 58, 85
7, 120188, Note_on_c, 4, 58, 0
7, 120192, Note_on_c, 4, 53, 85
7, 120284, Note_on_c, 4, 53, 0
7, 120288, Note_on_c, 4, 58, 85
7, 120380, Note_on_c, 4, 58, 0
7, 120384, Note_on_c, 4, 50, 85
7, 120476, Note_on_c, 4, 50, 0
7, 120480, Note_on_c, 4, 53, 85
7, 120572, Note_on_c, 4, 53, 0
7, 120576, Note_on_c, 4, 46, 85
7, 120668, Note_on_c, 4, 46, 0
7, 120672, Note_on_c, 4, 58, 85
7, 120764, Note_on_c, 4, 58, 0
7, 120768, Note_on_c, 4, 63, 85
7, 120860, Note_on_c, 4, 63, 0
7, 120864, Note_on_c, 4, 58, 85
7, 120956, Note_on_c, 4, 58, 0
7, 120960, Note_on_c, 4, 55, 85
7, 121052, Note_on_c, 4, 55, 0
7, 121056, Note_on_c, 4, 58, 85
7, 121148, Note_on_c, 4, 58, 0
7, 121152, Note_on_c, 4, 51, 85
7, 121244, Note_on_c, 4, 51, 0
7, 121248, Note_on_c, 4, 58, 85
7, 121340, Note_on_c, 4, 58, 0
7, 121344, Note_on_c, 4, 46, 85
7, 121436, Note_on_c, 4, 46, 0
7, 121440, Note_on_c, 4, 58, 85
7, 121532, Note_on_c, 4, 58, 0
7, 121536, Note_on_c, 4, 62, 85
7, 121628, Note_on_c, 4, 62, 0
7, 121632, Note_on_c, 4, 58, 85
7, 121724, Note_on_c, 4, 58, 0
7, 121728, Note_on_c, 4, 53, 85
7, 121820, Note_on_c, 4, 53, 0
7, 121824, Note_on_c, 4, 58, 85
7, 121916, Note_on_c, 4, 58, 0
7, 121920, Note_on_c, 4, 50, 85
7, 122012, Note_on_c, 4, 50, 0
7, 122016, Note_on_c, 4, 53, 85
7, 122108, Note_on_c, 4, 53, 0
7, 122112, Note_on_c, 4, 46, 85
7, 122204, Note_on_c, 4, 46, 0
7, 122208, Note_on_c, 4, 58, 85
7, 122300, Note_on_c, 4, 58, 0
7, 122304, Note_on_c, 4, 63, 85
7, 122396, Note_on_c, 4, 63, 0
7, 122400, Note_on_c, 4, 58, 85
7, 122492, Note_on_c, 4, 58, 0
7, 122496, Note_on_c, 4, 55, 85
7, 122588, Note_on_c, 4, 55, 0
7, 122592, Note_on_c, 4, 58, 85
7, 122684, Note_on_c, 4, 58, 0
7, 122688, Note_on_c, 4, 51, 85
7, 122780, Note_on_c, 4, 51, 0
7, 122784, Note_on_c, 4, 58, 85
7, 122876, Note_on_c, 4, 58, 0
7, 122880, Note_on_c, 4, 46, 85
7, 123200, Note_on_c, 4, 46, 0
7, 126528, Note_on_c, 4, 62, 80
7, 126672, Note_on_c, 4, 62, 0
7, 126672, Note_on_c, 4, 63, 80
7, 126716, Note_on_c, 4, 63, 0
7, 126720, Note_on_c, 4, 60, 80
7, 126784, Note_on_c, 4, 60, 0
7, 126912, Note_on_c, 4, 60, 80
7, 127056, Note_on_c, 4, 60, 0
7, 127056, Note_on_c, 4, 62, 80
7, 127100, Note_on_c, 4, 62, 0
7, 127104, Note_on_c, 4, 58, 80
7, 127168, Note_on_c, 4, 58, 0
7, 127296, Note_on_c, 4, 58, 80
7, 127440, Note_on_c, 4, 58, 0
7, 127440, Note_on_c, 4, 60, 80
7, 127484, Note_on_c, 4, 60, 0
7, 127488, Note_on_c, 4, 57, 80
7, 127676, Note_on_c, 4, 57, 0
7, 127680, Note_on_c, 4, 57, 80
7, 128064, Note_on_c, 4, 57, 0
7, 128064, Note_on_c, 4, 59, 80
7, 128252, Note_on_c, 4, 59, 0
7, 128256, Note_on_c, 4, 60, 80
7, 128832, Note_on_c, 4, 60, 0
7, 128832, Note_on_c, 4, 57, 80
7, 129020, Note_on_c, 4, 57, 0
7, 129024, Note_on_c, 4, 58, 80
7, 129344, Note_on_c, 4, 58, 0
7, 129792, Note_on_c, 4, 57, 80
7, 129980, Note_on_c, 4, 57, 0
7, 130176, Note_on_c, 4, 58, 80
7, 130364, Note_on_c, 4, 58, 0
7, 130560, Note_on_c, 4, 53, 80
7, 130880, Note_on_c, 4, 53, 0
7, 135168, Note_on_c, 4, 60, 85
7, 135264, Note_on_c, 4, 60, 0
7, 135264, Note_on_c, 4, 59, 85
7, 135360, Note_on_c, 4, 59, 0
7, 135360, Note_on_c, 4, 60, 85
7, 135456, Note_on_c, 4, 60, 0
7, 135456, Note_on_c, 4, 59, 85
7, 135552, Note_on_c, 4, 59, 0
7, 135552, Note_on_c, 4, 60, 85
7, 135648, Note_on_c, 4, 60, 0
7, 135648, Note_on_c, 4, 59, 85
7, 135744, Note_on_c, 4, 59, 0
7, 135744, Note_on_c, 4, 60, 85
7, 135840, Note_on_c, 4, 60, 0
7, 135840, Note_on_c, 4, 61, 85
7, 135936, Note_on_c, 4, 61, 0
7, 135936, Note_on_c, 4, 62, 85
7, 136032, Note_on_c, 4, 62, 0
7, 136032, Note_on_c, 4, 61, 85
7, 136128, Note_on_c, 4, 61, 0
7, 136128, Note_on_c, 4, 62, 85
7, 136224, Note_on_c, 4, 62, 0
7, 136224, Note_on_c, 4, 61, 85
7, 136320, Note_on_c, 4, 61, 0
7, 136320, Note_on_c, 4, 62, 85
7, 136508, Note_on_c, 4, 62, 0
7, 139776, Note_on_c, 4, 58, 80
7, 139872, Note_on_c, 4, 58, 0
7, 139872, Note_on_c, 4, 62, 80
7, 139968, Note_on_c, 4, 62, 0
7, 139968, Note_on_c, 4, 65, 80
7, 140064, Note_on_c, 4, 65, 0
7, 140064, Note_on_c, 4, 62, 80
7, 140156, Note_on_c, 4, 62, 0
7, 140160, Note_on_c, 4, 58, 80
7, 140256, Note_on_c, 4, 58, 0
7, 140256, Note_on_c, 4, 62, 80
7, 140352, Note_on_c, 4, 62, 0
7, 140352, Note_on_c, 4, 65, 80
7, 140448, Note_on_c, 4, 65, 0
7, 140448, Note_on_c, 4, 62, 80
7, 140540, Note_on_c, 4, 62, 0
7, 140544, Note_on_c, 4, 60, 80
7, 140640, Note_on_c, 4, 60, 0
7, 140640, Note_on_c, 4, 63, 80
7, 140736, Note_on_c, 4, 63, 0
7, 140736, Note_on_c, 4, 65, 80
7, 140832, Note_on_c, 4, 65, 0
7, 140832, Note_on_c, 4, 63, 80
7, 140924, Note_on_c, 4, 63, 0
7, 140928, Note_on_c, 4, 60, 80
7, 141024, Note_on_c, 4, 60, 0
7, 141024, Note_on_c, 4, 63, 80
7, 141120, Note_on_c, 4, 63, 0
7, 141120, Note_on_c, 4, 65, 80
7, 141216, Note_on_c, 4, 65, 0
7, 141216, Note_on_c, 4, 63, 80
7, 141308, Note_on_c, 4, 63, 0
7, 141312, Note_on_c, 4, 46, 85
7, 141500, Note_on_c, 4, 46, 0
7, 141504, Note_on_c, 4, 58, 85
7, 141692, Note_on_c, 4, 58, 0
7, 141696, Note_on_c, 4, 46, 85
7, 141884, Note_on_c, 4, 46, 0
7, 141888, Note_on_c, 4, 58, 85
7, 142076, Note_on_c, 4, 58, 0
7, 142080, Note_on_c, 4, 46, 85
7, 142268, Note_on_c, 4, 46, 0
7, 142272, Note_on_c, 4, 58, 85
7, 142460, Note_on_c, 4, 58, 0
7, 142464, Note_on_c, 4, 46, 85
7, 142652, Note_on_c, 4, 46, 0
7, 142656, Note_on_c, 4, 58, 85
7, 142844, Note_on_c, 4, 58, 0
7, 142848, Note_on_c, 4, 46, 85
7, 143036, Note_on_c, 4, 46, 0
7, 143232, Note_on_c, 4, 62, 80
7, 143300, Note_on_c, 4, 62, 0
7, 143328, Note_on_c, 4, 62, 80
7, 143396, Note_on_c, 4, 62, 0
7, 143424, Note_on_c, 4, 62, 80
7, 143492, Note_on_c, 4, 62, 0
7, 143520, Note_on_c, 4, 62, 80
7, 143584, Note_on_c, 4, 62, 0
7, 143616, Note_on_c, 4, 63, 80
7, 143804, Note_on_c, 4, 63, 0
7, 144000, Note_on_c, 4, 53, 80
7, 144068, Note_on_c, 4, 53, 0
7, 144096, Note_on_c, 4, 53, 80
7, 144164, Note_on_c, 4, 53, 0
7, 144192, Note_on_c, 4, 53, 80
7, 144260, Note_on_c, 4, 53, 0
7, 144288, Note_on_c, 4, 53, 80
7, 144352, Note_on_c, 4, 53, 0
7, 144384, Note_on_c, 4, 58, 80
7, 144448, Note_on_c, 4, 58, 0
7, 144576, Note_on_c, 4, 55, 80
7, 144640, Note_on_c, 4, 55, 0
7, 144768, Note_on_c, 4, 53, 80
7, 145088, Note_on_c, 4, 53, 0
7, 145152, Note_on_c, 4, 46, 80
7, 145472, Note_on_c, 4, 46, 0
7, 151296, Note_on_c, 4, 63, 85
7, 151356, Note_on_c, 4, 63, 0
7, 151360, Note_on_c, 4, 62, 85
7, 151420, Note_on_c, 4, 62, 0
7, 151424, Note_on_c, 4, 60, 85
7, 151484, Note_on_c, 4, 60, 0
7, 151488, Note_on_c, 4, 58, 85
7, 151548, Note_on_c, 4, 58, 0
7, 151552, Note_on_c, 4, 57, 85
7, 151612, Note_on_c, 4, 57, 0
7, 151616, Note_on_c, 4, 55, 85
7, 151676, Note_on_c, 4, 55, 0
7, 151680, Note_on_c, 4, 53, 85
7, 151740, Note_on_c, 4, 53, 0
7, 151744, Note_on_c, 4, 51, 85
7, 151804, Note_on_c, 4, 51, 0
7, 151808, Note_on_c, 4, 50, 85
7, 151868, Note_on_c, 4, 50, 0
7, 151872, Note_on_c, 4, 48, 85
7, 151932, Note_on_c, 4, 48, 0
7, 151936, Note_on_c, 4, 46, 85
7, 151996, Note_on_c, 4, 46, 0
7, 152000, Note_on_c, 4, 45, 85
7, 152060, Note_on_c, 4, 45, 0
7, 152064, Note_on_c, 4, 46, 85
7, 152252, Note_on_c, 4, 46, 0
7, 152832, Note_on_c, 4, 63, 85
7, 152892, Note_on_c, 4, 63, 0
7, 152896, Note_on_c, 4, 62, 85
7, 152956, Note_on_c, 4, 62, 0
7, 152960, Note_on_c, 4, 60, 85
7, 153020, Note_on_c, 4, 60, 0
7, 153024, Note_on_c, 4, 58, 85
7, 153084, Note_on_c, 4, 58, 0
7, 153088, Note_on_c, 4, 57, 85
7, 153148, Note_on_c, 4, 57, 0
7, 153152, Note_on_c, 4, 55, 85
7, 153212, Note_on_c, 4, 55, 0
7, 153216, Note_on_c, 4, 53, 85
7, 153276, Note_on_c, 4, 53, 0
7, 153280, Note_on_c, 4, 51, 85
7, 153340, Note_on_c, 4, 51, 0
7, 153344, Note_on_c, 4, 50, 85
7, 153404, Note_on_c, 4, 50, 0
7, 153408, Note_on_c, 4, 48, 85
7, 153468, Note_on_c, 4, 48, 0
7, 153472, Note_on_c, 4, 46, 85
7, 153532, Note_on_c, 4, 46, 0
7, 153536, Note_on_c, 4, 45, 85
7, 153596, Note_on_c, 4, 45, 0
7, 153600, Note_on_c, 4, 46, 85
7, 153920, Note_on_c, 4, 46, 0
7, 154176, Note_on_c, 4, 50, 80
7, 154368, Note_on_c, 4, 50, 0
7, 154368, Note_on_c, 4, 51, 80
7, 154688, Note_on_c, 4, 51, 0
7, 154944, Note_on_c, 4, 51, 80
7, 155136, Note_on_c, 4, 51, 0
7, 155136, Note_on_c, 4, 52, 80
7, 155456, Note_on_c, 4, 52, 0
7, 155712, Note_on_c, 4, 55, 80
7, 155900, Note_on_c, 4, 55, 0
7, 155904, Note_on_c, 4, 53, 80
7, 156092, Note_on_c, 4, 53, 0
7, 156096, Note_on_c, 4, 62, 80
7, 156284, Note_on_c, 4, 62, 0
7, 156288, Note_on_c, 4, 62, 80
7, 156476, Note_on_c, 4, 62, 0
7, 156864, Note_on_c, 4, 65, 80
7, 157052, Note_on_c, 4, 65, 0
7, 157056, Note_on_c, 4, 65, 80
7, 157244, Note_on_c, 4, 65, 0
7, 159168, Note_on_c, 4, 48, 80
7, 159408, Note_on_c, 4, 48, 0
7, 159408, Note_on_c, 4, 50, 80
7, 159456, Note_on_c, 4, 50, 0
7, 159456, Note_on_c, 4, 52, 80
7, 159504, Note_on_c, 4, 52, 0
7, 159504, Note_on_c, 4, 53, 80
7, 159552, Note_on_c, 4, 53, 0
7, 159552, Note_on_c, 4, 55, 80
7, 159600, Note_on_c, 4, 55, 0
7, 159600, Note_on_c, 4, 57, 80
7, 159648, Note_on_c, 4, 57, 0
7, 159648, Note_on_c, 4, 59, 80
7, 159696, Note_on_c, 4, 59, 0
7, 159696, Note_on_c, 4, 60, 80
7, 159740, Note_on_c, 4, 60, 0
7, 159744, Note_on_c, 4, 54, 85
7, 160128, Note_on_c, 4, 54, 0
7, 160128, Note_on_c, 4, 55, 85
7, 160316, Note_on_c, 4, 55, 0
7, 160608, Note_on_c, 4, 60, 80
7, 160704, Note_on_c, 4, 60, 0
7, 160704, Note_on_c, 4, 63, 80
7, 160800, Note_on_c, 4, 63, 0
7, 160800, Note_on_c, 4, 60, 80
7, 160892, Note_on_c, 4, 60, 0
7, 160992, Note_on_c, 4, 57, 80
7, 161088, Note_on_c, 4, 57, 0
7, 161088, Note_on_c, 4, 60, 80
7, 161184, Note_on_c, 4, 60, 0
7, 161184, Note_on_c, 4, 57, 80
7, 161276, Note_on_c, 4, 57, 0
7, 161280, Note_on_c, 4, 58, 80
7, 161468, Note_on_c, 4, 58, 0
7, 161664, Note_on_c, 4, 62, 80
7, 161984, Note_on_c, 4, 62, 0
7, 162048, Note_on_c, 4, 63, 80
7, 162236, Note_on_c, 4, 63, 0
7, 163968, Note_on_c, 4, 62, 80
7, 164288, Note_on_c, 4, 62, 0
7, 164352, Note_on_c, 4, 63, 80
7, 164540, Note_on_c, 4, 63, 0
7, 165984, Note_on_c, 4, 58, 80
7, 166080, Note_on_c, 4, 58, 0
7, 166080, Note_on_c, 4, 62, 80
7, 166176, Note_on_c, 4, 62, 0
7, 166176, Note_on_c, 4, 58, 80
7, 166272, Note_on_c, 4, 58, 0
7, 166272, Note_on_c, 4, 63, 80
7, 166368, Note_on_c, 4, 63, 0
7, 166368, Note_on_c, 4, 60, 80
7, 166464, Note_on_c, 4, 60, 0
7, 166464, Note_on_c, 4, 57, 80
7, 166560, Note_on_c, 4, 57, 0
7, 166560, Note_on_c, 4, 60, 80
7, 166652, Note_on_c, 4, 60, 0
7, 166656, Note_on_c, 4, 62, 80
7, 166720, Note_on_c, 4, 62, 0
7, 166752, Note_on_c, 4, 58, 80
7, 166848, Note_on_c, 4, 58, 0
7, 166848, Note_on_c, 4, 62, 80
7, 166944, Note_on_c, 4, 62, 0
7, 166944, Note_on_c, 4, 58, 80
7, 167040, Note_on_c, 4, 58, 0
7, 167040, Note_on_c, 4, 63, 80
7, 167136, Note_on_c, 4, 63, 0
7, 167136, Note_on_c, 4, 60, 80
7, 167232, Note_on_c, 4, 60, 0
7, 167232, Note_on_c, 4, 57, 80
7, 167328, Note_on_c, 4, 57, 0
7, 167328, Note_on_c, 4, 60, 80
7, 167420, Note_on_c, 4, 60, 0
7, 167424, Note_on_c, 4, 58, 80
7, 167488, Note_on_c, 4, 58, 0
7, 167616, Note_on_c, 4, 53, 80
7, 167680, Note_on_c, 4, 53, 0
7, 167808, Note_on_c, 4, 58, 80
7, 167872, Note_on_c, 4, 58, 0
7, 168000, Note_on_c, 4, 41, 80
7, 168064, Note_on_c, 4, 41, 0
7, 168192, Note_on_c, 4, 46, 80
7, 168256, Note_on_c, 4, 46, 0
7, 169152, Note_on_c, 4, 50, 80
7, 169216, Note_on_c, 4, 50, 0
7, 169344, Note_on_c, 4, 55, 80
7, 169408, Note_on_c, 4, 55, 0
7, 169536, Note_on_c, 4, 50, 80
7, 169600, Note_on_c, 4, 50, 0
7, 169728, Note_on_c, 4, 55, 80
7, 169916, Note_on_c, 4, 55, 0
7, 170688, Note_on_c, 4, 46, 80
7, 170752, Note_on_c, 4, 46, 0
7, 170880, Note_on_c, 4, 51, 80
7, 170944, Note_on_c, 4, 51, 0
7, 171072, Note_on_c, 4, 46, 80
7, 171136, Note_on_c, 4, 46, 0
7, 171264, Note_on_c, 4, 51, 80
7, 171452, Note_on_c, 4, 51, 0
7, 172224, Note_on_c, 4, 41, 80
7, 172416, Note_on_c, 4, 41, 0
7, 172416, Note_on_c, 4, 53, 51
7, 172604, Note_on_c, 4, 53, 0
7, 172608, Note_on_c, 4, 53, 57
7, 172796, Note_on_c, 4, 53, 0
7, 172800, Note_on_c, 4, 55, 64
7, 173568, Note_on_c, 4, 55, 0
7, 173568, Note_on_c, 4, 56, 85
7, 173756, Note_on_c, 4, 56, 0
7, 176640, Note_on_c, 4, 64, 80
7, 177024, Note_on_c, 4, 64, 0
7, 177024, Note_on_c, 4, 65, 80
7, 177212, Note_on_c, 4, 65, 0
7, 180480, Note_on_c, 4, 66, 80
7, 180864, Note_on_c, 4, 66, 0
7, 180864, Note_on_c, 4, 67, 80
7, 181052, Note_on_c, 4, 67, 0
7, 184032, Note_on_c, 4, 67, 80
7, 184128, Note_on_c, 4, 67, 0
7, 184128, Note_on_c, 4, 66, 80
7, 184224, Note_on_c, 4, 66, 0
7, 184224, Note_on_c, 4, 65, 80
7, 184316, Note_on_c, 4, 65, 0
7, 184320, Note_on_c, 4, 64, 80
7, 184508, Note_on_c, 4, 64, 0
7, 184512, Note_on_c, 4, 48, 80
7, 184832, Note_on_c, 4, 48, 0
7, 184896, Note_on_c, 4, 48, 80
7, 185084, Note_on_c, 4, 48, 0
7, 185280, Note_on_c, 4, 53, 80
7, 185600, Note_on_c, 4, 53, 0
7, 185664, Note_on_c, 4, 53, 80
7, 185852, Note_on_c, 4, 53, 0
7, 188736, Note_on_c, 4, 67, 80
7, 188924, Note_on_c, 4, 67, 0
7, 188928, Note_on_c, 4, 67, 80
7, 189024, Note_on_c, 4, 67, 0
7, 189024, Note_on_c, 4, 60, 80
7, 189116, Note_on_c, 4, 60, 0
7, 189120, Note_on_c, 4, 60, 80
7, 189440, Note_on_c, 4, 60, 0
7, 189504, Note_on_c, 4, 66, 80
7, 189692, Note_on_c, 4, 66, 0
7, 189696, Note_on_c, 4, 66, 80
7, 189792, Note_on_c, 4, 66, 0
7, 189792, Note_on_c, 4, 57, 80
7, 189884, Note_on_c, 4, 57, 0
7, 189888, Note_on_c, 4, 57, 80
7, 190208, Note_on_c, 4, 57, 0
7, 192192, Note_on_c, 4, 60, 80
7, 192256, Note_on_c, 4, 60, 0
7, 192384, Note_on_c, 4, 59, 80
7, 192448, Note_on_c, 4, 59, 0
7, 192960, Note_on_c, 4, 58, 80
7, 193024, Note_on_c, 4, 58, 0
7, 193152, Note_on_c, 4, 58, 47
7, 193216, Note_on_c, 4, 58, 0
7, 196608, Note_on_c, 4, 67, 85
7, 196928, Note_on_c, 4, 67, 0
7, 196992, Note_on_c, 4, 62, 85
7, 197312, Note_on_c, 4, 62, 0
7, 197376, Note_on_c, 4, 63, 85
7, 197696, Note_on_c, 4, 63, 0
7, 197760, Note_on_c, 4, 60, 85
7, 197948, Note_on_c, 4, 60, 0
7, 197952, Note_on_c, 4, 56, 85
7, 198140, Note_on_c, 4, 56, 0
7, 198144, Note_on_c, 4, 55, 85
7, 198528, Note_on_c, 4, 55, 0
7, 198528, Note_on_c, 4, 56, 85
7, 198720, Note_on_c, 4, 56, 0
7, 198720, Note_on_c, 4, 53, 85
7, 198908, Note_on_c, 4, 53, 0
7, 198912, Note_on_c, 4, 58, 85
7, 199424, Note_on_c, 4, 58, 0
7, 207360, Note_on_c, 4, 58, 80
7, 207552, Note_on_c, 4, 58, 0
7, 207552, Note_on_c, 4, 63, 80
7, 207936, Note_on_c, 4, 63, 0
7, 207936, Note_on_c, 4, 67, 80
7, 208124, Note_on_c, 4, 67, 0
7, 208128, Note_on_c, 4, 65, 80
7, 208224, Note_on_c, 4, 65, 0
7, 208224, Note_on_c, 4, 63, 80
7, 208316, Note_on_c, 4, 63, 0
7, 208320, Note_on_c, 4, 63, 80
7, 208704, Note_on_c, 4, 63, 0
7, 208704, Note_on_c, 4, 57, 80
7, 208892, Note_on_c, 4, 57, 0
7, 208896, Note_on_c, 4, 46, 85
7, 208988, Note_on_c, 4, 46, 0
7, 208992, Note_on_c, 4, 58, 85
7, 209084, Note_on_c, 4, 58, 0
7, 209088, Note_on_c, 4, 62, 85
7, 209180, Note_on_c, 4, 62, 0
7, 209184, Note_on_c, 4, 58, 85
7, 209276, Note_on_c, 4, 58, 0
7, 209280, Note_on_c, 4, 53, 85
7, 209372, Note_on_c, 4, 53, 0
7, 209376, Note_on_c, 4, 58, 85
7, 209468, Note_on_c, 4, 58, 0
7, 209472, Note_on_c, 4, 50, 85
7, 209564, Note_on_c, 4, 50, 0
7, 209568, Note_on_c, 4, 53, 85
7, 209660, Note_on_c, 4, 53, 0
7, 209664, Note_on_c, 4, 46, 85
7, 209756, Note_on_c, 4, 46, 0
7, 209760, Note_on_c, 4, 58, 85
7, 209852, Note_on_c, 4, 58, 0
7, 209856, Note_on_c, 4, 63, 85
7, 209948, Note_on_c, 4, 63, 0
7, 209952, Note_on_c, 4, 58, 85
7, 210044, Note_on_c, 4, 58, 0
7, 210048, Note_on_c, 4, 55, 85
7, 210140, Note_on_c, 4, 55, 0
7, 210144, Note_on_c, 4, 58, 85
7, 210236, Note_on_c, 4, 58, 0
7, 210240, Note_on_c, 4, 51, 85
7, 210332, Note_on_c, 4, 51, 0
7, 210336, Note_on_c, 4, 58, 85
7, 210428, Note_on_c, 4, 58, 0
7, 210432, Note_on_c, 4, 46, 85
7, 210524, Note_on_c, 4, 46, 0
7, 210528, Note_on_c, 4, 58, 85
7, 210620, Note_on_c, 4, 58, 0
7, 210624, Note_on_c, 4, 62, 85
7, 210716, Note_on_c, 4, 62, 0
7, 210720, Note_on_c, 4, 58, 85
7, 210812, Note_on_c, 4, 58, 0
7, 210816, Note_on_c, 4, 53, 85
7, 210908, Note_on_c, 4, 53, 0
7, 210912, Note_on_c, 4, 58, 85
7, 211004, Note_on_c, 4, 58, 0
7, 211008, Note_on_c, 4, 50, 85
7, 211100, Note_on_c, 4, 50, 0
7, 211104, Note_on_c, 4, 53, 85
7, 211196, Note_on_c, 4, 53, 0
7, 211200, Note_on_c, 4, 46, 85
7, 211292, Note_on_c, 4, 46, 0
7, 211296, Note_on_c, 4, 58, 85
7, 211388, Note_on_c, 4, 58, 0
7, 211392, Note_on_c, 4, 63, 85
7, 211484, Note_on_c, 4, 63, 0
7, 211488, Note_on_c, 4, 58, 85
7, 211580, Note_on_c, 4, 58, 0
7, 211584, Note_on_c, 4, 55, 85
7, 211676, Note_on_c, 4, 55, 0
7, 211680, Note_on_c, 4, 58, 85
7, 211772, Note_on_c, 4, 58, 0
7, 211776, Note_on_c, 4, 51, 85
7, 211868, Note_on_c, 4, 51, 0
7, 211872, Note_on_c, 4, 58, 85
7, 211964, Note_on_c, 4, 58, 0
7, 211968, Note_on_c, 4, 46, 85
7, 212156, Note_on_c, 4, 46, 0
7, 212352, Note_on_c, 4, 67, 85
7, 212640, Note_on_c, 4, 67, 0
7, 212640, Note_on_c, 4, 63, 85
7, 212732, Note_on_c, 4, 63, 0
7, 212736, Note_on_c, 4, 62, 85
7, 212924, Note_on_c, 4, 62, 0
7, 213120, Note_on_c, 4, 67, 85
7, 213408, Note_on_c, 4, 67, 0
7, 213408, Note_on_c, 4, 63, 85
7, 213500, Note_on_c, 4, 63, 0
7, 213504, Note_on_c, 4, 62, 80
7, 213568, Note_on_c, 4, 62, 0
7, 213696, Note_on_c, 4, 63, 80
7, 213760, Note_on_c, 4, 63, 0
7, 213888, Note_on_c, 4, 62, 80
7, 213952, Note_on_c, 4, 62, 0
7, 214080, Note_on_c, 4, 63, 80
7, 214144, Note_on_c, 4, 63, 0
7, 214272, Note_on_c, 4, 62, 80
7, 214460, Note_on_c, 4, 62, 0
7, 216576, Note_on_c, 4, 65, 85
7, 216672, Note_on_c, 4, 65, 0
7, 216672, Note_on_c, 4, 64, 85
7, 216768, Note_on_c, 4, 64, 0
7, 216768, Note_on_c, 4, 65, 85
7, 216864, Note_on_c, 4, 65, 0
7, 216864, Note_on_c, 4, 64, 85
7, 216960, Note_on_c, 4, 64, 0
7, 216960, Note_on_c, 4, 65, 85
7, 217056, Note_on_c, 4, 65, 0
7, 217056, Note_on_c, 4, 64, 85
7, 217152, Note_on_c, 4, 64, 0
7, 217152, Note_on_c, 4, 65, 85
7, 217248, Note_on_c, 4, 65, 0
7, 217248, Note_on_c, 4, 66, 85
7, 217344, Note_on_c, 4, 66, 0
7, 217344, Note_on_c, 4, 67, 85
7, 217440, Note_on_c, 4, 67, 0
7, 217440, Note_on_c, 4, 66, 85
7, 217536, Note_on_c, 4, 66, 0
7, 217536, Note_on_c, 4, 67, 85
7, 217632, Note_on_c, 4, 67, 0
7, 217632, Note_on_c, 4, 66, 85
7, 217728, Note_on_c, 4, 66, 0
7, 217728, Note_on_c, 4, 67, 85
7, 217916, Note_on_c, 4, 67, 0
7, 221184, Note_on_c, 4, 51, 80
7, 221280, Note_on_c, 4, 51, 0
7, 221280, Note_on_c, 4, 55, 80
7, 221376, Note_on_c, 4, 55, 0
7, 221376, Note_on_c, 4, 58, 80
7, 221472, Note_on_c, 4, 58, 0
7, 221472, Note_on_c, 4, 55, 80
7, 221564, Note_on_c, 4, 55, 0
7, 221568, Note_on_c, 4, 51, 80
7, 221664, Note_on_c, 4, 51, 0
7, 221664, Note_on_c, 4, 55, 80
7, 221760, Note_on_c, 4, 55, 0
7, 221760, Note_on_c, 4, 58, 80
7, 221856, Note_on_c, 4, 58, 0
7, 221856, Note_on_c, 4, 55, 80
7, 221948, Note_on_c, 4, 55, 0
7, 221952, Note_on_c, 4, 53, 80
7, 222048, Note_on_c, 4, 53, 0
7, 222048, Note_on_c, 4, 56, 80
7, 222144, Note_on_c, 4, 56, 0
7, 222144, Note_on_c, 4, 58, 80
7, 222240, Note_on_c, 4, 58, 0
7, 222240, Note_on_c, 4, 56, 80
7, 222332, Note_on_c, 4, 56, 0
7, 222336, Note_on_c, 4, 53, 80
7, 222432, Note_on_c, 4, 53, 0
7, 222432, Note_on_c, 4, 56, 80
7, 222528, Note_on_c, 4, 56, 0
7, 222528, Note_on_c, 4, 58, 80
7, 222624, Note_on_c, 4, 58, 0
7, 222624, Note_on_c, 4, 56, 80
7, 222716, Note_on_c, 4, 56, 0
7, 222720, Note_on_c, 4, 39, 85
7, 224444, Note_on_c, 4, 39, 0
7, 224640, Note_on_c, 4, 63, 80
7, 224708, Note_on_c, 4, 63, 0
7, 224736, Note_on_c, 4, 63, 80
7, 224804, Note_on_c, 4, 63, 0
7, 224832, Note_on_c, 4, 63, 80
7, 224900, Note_on_c, 4, 63, 0
7, 224928, Note_on_c, 4, 63, 80
7, 224992, Note_on_c, 4, 63, 0
7, 225024, Note_on_c, 4, 56, 80
7, 225212, Note_on_c, 4, 56, 0
7, 225408, Note_on_c, 4, 58, 80
7, 225476, Note_on_c, 4, 58, 0
7, 225504, Note_on_c, 4, 58, 80
7, 225572, Note_on_c, 4, 58, 0
7, 225600, Note_on_c, 4, 58, 80
7, 225668, Note_on_c, 4, 58, 0
7, 225696, Note_on_c, 4, 58, 80
7, 225760, Note_on_c, 4, 58, 0
7, 225792, Note_on_c, 4, 51, 80
7, 225980, Note_on_c, 4, 51, 0
7, 225984, Note_on_c, 4, 60, 80
7, 226172, Note_on_c, 4, 60, 0
7, 226176, Note_on_c, 4, 58, 80
7, 226364, Note_on_c, 4, 58, 0
7, 226368, Note_on_c, 4, 46, 80
7, 226556, Note_on_c, 4, 46, 0
7, 226560, Note_on_c, 4, 51, 80
7, 226880, Note_on_c, 4, 51, 0
7, 231936, Note_on_c, 4, 51, 85
7, 232128, Note_on_c, 4, 51, 0
7, 232128, Note_on_c, 4, 46, 85
7, 232320, Note_on_c, 4, 46, 0
7, 232320, Note_on_c, 4, 43, 85
7, 232512, Note_on_c, 4, 43, 0
7, 232512, Note_on_c, 4, 39, 85
7, 232700, Note_on_c, 4, 39, 0
7, 232704, Note_on_c, 4, 46, 85
7, 233376, Note_on_c, 4, 46, 0
7, 233472, Note_on_c, 4, 51, 85
7, 233664, Note_on_c, 4, 51, 0
7, 233664, Note_on_c, 4, 46, 85
7, 233856, Note_on_c, 4, 46, 0
7, 233856, Note_on_c, 4, 43, 85
7, 234048, Note_on_c, 4, 43, 0
7, 234048, Note_on_c, 4, 39, 85
7, 234236, Note_on_c, 4, 39, 0
7, 234240, Note_on_c, 4, 46, 85
7, 234912, Note_on_c, 4, 46, 0
7, 235008, Note_on_c, 4, 51, 85
7, 235328, Note_on_c, 4, 51, 0
7, 236544, Note_on_c, 4, 61, 80
7, 237216, Note_on_c, 4, 61, 0
7, 237312, Note_on_c, 4, 60, 80
7, 238080, Note_on_c, 4, 60, 0
7, 238080, Note_on_c, 4, 59, 85
7, 238752, Note_on_c, 4, 59, 0
7, 238848, Note_on_c, 4, 58, 85
7, 239036, Note_on_c, 4, 58, 0
7, 239040, Note_on_c, 4, 55, 85
7, 239228, Note_on_c, 4, 55, 0
7, 239232, Note_on_c, 4, 55, 85
7, 239420, Note_on_c, 4, 55, 0
7, 239808, Note_on_c, 4, 58, 80
7, 239996, Note_on_c, 4, 58, 0
7, 240000, Note_on_c, 4, 58, 80
7, 240188, Note_on_c, 4, 58, 0
7, 240576, Note_on_c, 4, 55, 80
7, 240764, Note_on_c, 4, 55, 0
7, 240768, Note_on_c, 4, 55, 80
7, 240956, Note_on_c, 4, 55, 0
7, 242880, Note_on_c, 4, 47, 85
7, 243120, Note_on_c, 4, 47, 0
7, 243120, Note_on_c, 4, 48, 85
7, 243168, Note_on_c, 4, 48, 0
7, 243168, Note_on_c, 4, 50, 85
7, 243216, Note_on_c, 4, 50, 0
7, 243216, Note_on_c, 4, 51, 85
7, 243264, Note_on_c, 4, 51, 0
7, 243264, Note_on_c, 4, 53, 85
7, 243312, Note_on_c, 4, 53, 0
7, 243312, Note_on_c, 4, 55, 85
7, 243360, Note_on_c, 4, 55, 0
7, 243360, Note_on_c, 4, 57, 85
7, 243408, Note_on_c, 4, 57, 0
7, 243408, Note_on_c, 4, 59, 85
7, 243456, Note_on_c, 4, 59, 0
7, 243456, Note_on_c, 4, 60, 85
7, 243644, Note_on_c, 4, 60, 0
7, 244032, Note_on_c, 4, 65, 80
7, 244220, Note_on_c, 4, 65, 0
7, 244320, Note_on_c, 4, 63, 80
7, 244416, Note_on_c, 4, 63, 0
7, 244416, Note_on_c, 4, 67, 80
7, 244512, Note_on_c, 4, 67, 0
7, 244512, Note_on_c, 4, 63, 80
7, 244604, Note_on_c, 4, 63, 0
7, 244704, Note_on_c, 4, 62, 80
7, 244800, Note_on_c, 4, 62, 0
7, 244800, Note_on_c, 4, 65, 80
7, 244896, Note_on_c, 4, 65, 0
7, 244896, Note_on_c, 4, 62, 80
7, 244988, Note_on_c, 4, 62, 0
7, 244992, Note_on_c, 4, 63, 80
7, 245180, Note_on_c, 4, 63, 0
7, 248448, Note_on_c, 4, 65, 80
7, 248736, Note_on_c, 4, 65, 0
7, 248736, Note_on_c, 4, 63, 80
7, 248828, Note_on_c, 4, 63, 0
7, 248832, Note_on_c, 4, 63, 80
7, 248928, Note_on_c, 4, 63, 0
7, 248928, Note_on_c, 4, 62, 80
7, 249024, Note_on_c, 4, 62, 0
7, 249024, Note_on_c, 4, 60, 80
7, 249120, Note_on_c, 4, 60, 0
7, 249120, Note_on_c, 4, 58, 80
7, 249212, Note_on_c, 4, 58, 0
7, 249216, Note_on_c, 4, 57, 80
7, 249280, Note_on_c, 4, 57, 0
7, 249280, Note_on_c, 4, 58, 80
7, 249344, Note_on_c, 4, 58, 0
7, 249344, Note_on_c, 4, 59, 80
7, 249408, Note_on_c, 4, 59, 0
7, 249408, Note_on_c, 4, 60, 80
7, 249472, Note_on_c, 4, 60, 0
7, 249472, Note_on_c, 4, 61, 80
7, 249536, Note_on_c, 4, 61, 0
7, 249536, Note_on_c, 4, 62, 80
7, 249596, Note_on_c, 4, 62, 0
7, 249600, Note_on_c, 4, 63, 80
7, 249788, Note_on_c, 4, 63, 0
7, 251328, Note_on_c, 4, 58, 80
7, 251392, Note_on_c, 4, 58, 0
7, 251520, Note_on_c, 4, 63, 80
7, 251584, Note_on_c, 4, 63, 0
7, 251712, Note_on_c, 4, 58, 80
7, 251776, Note_on_c, 4, 58, 0
7, 251904, Note_on_c, 4, 51, 80
7, 252092, Note_on_c, 4, 51, 0
7, 254400, Note_on_c, 4, 46, 80
7, 254588, Note_on_c, 4, 46, 0
7, 254592, Note_on_c, 4, 51, 80
7, 254780, Note_on_c, 4, 51, 0
7, 254784, Note_on_c, 4, 46, 80
7, 254972, Note_on_c, 4, 46, 0
7, 254976, Note_on_c, 4, 51, 80
7, 255164, Note_on_c, 4, 51, 0
7, 255360, Note_on_c, 4, 51, 85
7, 255680, Note_on_c, 4, 51, 0
7, 255744, Note_on_c, 4, 39, 85
7, 256064, Note_on_c, 4, 39, 0
7, 256064, End_track
0, 0, End_of_file
