0, 0, Header, 1, 12, 120
1, 0, Start_track
1, 0, Time_signature, 4, 2, 24, 8
1, 0, Key_signature, 0, "major"
1, 0, Tempo, 307692
1, 0, Marker_t, """Krebsgang"" by Mozart"
1, 5280, Marker_t, "sequenced June '96 by Steve Gronseth - Metalneck Productions"
1, 5280, End_track
2, 0, Start_track
2, 0, MIDI_port, 0
2, 0, Title_t, "1st guitar"
2, 0, Program_c, 0, 24
2, 0, Control_c, 0, 7, 115
2, 0, Control_c, 0, 10, 34
2, 0, Control_c, 0, 93, 70
2, 0, Control_c, 0, 91, 45
2, 0, Control_c, 0, 11, 127
2, 0, Control_c, 0, 1, 0
2, 0, Pitch_bend_c, 0, 8192
2, 840, Note_on_c, 0, 62, 100
2, 960, Note_on_c, 0, 62, 0
2, 960, Note_on_c, 0, 67, 100
2, 1200, Note_on_c, 0, 67, 0
2, 1200, Note_on_c, 0, 62, 100
2, 1320, Note_on_c, 0, 62, 0
2, 1320, Note_on_c, 0, 59, 100
2, 1440, Note_on_c, 0, 59, 0
2, 1440, Note_on_c, 0, 55, 100
2, 1560, Note_on_c, 0, 55, 0
2, 1560, Note_on_c, 0, 50, 100
2, 1565, Note_on_c, 0, 55, 100
2, 1570, Note_on_c, 0, 59, 100
2, 1575, Note_on_c, 0, 67, 100
2, 1680, Note_on_c, 0, 50, 0
2, 1680, Note_on_c, 0, 50, 100
2, 1685, Note_on_c, 0, 55, 0
2, 1685, Note_on_c, 0, 55, 100
2, 1690, Note_on_c, 0, 59, 0
2, 1690, Note_on_c, 0, 59, 100
2, 1695, Note_on_c, 0, 67, 0
2, 1695, Note_on_c, 0, 67, 100
2, 1800, Note_on_c, 0, 50, 0
2, 1800, Note_on_c, 0, 74, 100
2, 1805, Note_on_c, 0, 55, 0
2, 1810, Note_on_c, 0, 59, 0
2, 1815, Note_on_c, 0, 67, 0
2, 1920, Note_on_c, 0, 74, 0
2, 1920, Note_on_c, 0, 71, 100
2, 1980, Note_on_c, 0, 71, 0
2, 1980, Note_on_c, 0, 71, 100
2, 2040, Note_on_c, 0, 71, 0
2, 2040, Note_on_c, 0, 67, 100
2, 2100, Note_on_c, 0, 67, 0
2, 2100, Note_on_c, 0, 67, 100
2, 2160, Note_on_c, 0, 67, 0
2, 2160, Note_on_c, 0, 62, 100
2, 2220, Note_on_c, 0, 62, 0
2, 2220, Note_on_c, 0, 62, 100
2, 2280, Note_on_c, 0, 62, 0
2, 2280, Note_on_c, 0, 62, 100
2, 2400, Note_on_c, 0, 62, 0
2, 2400, Note_on_c, 0, 67, 100
2, 2520, Note_on_c, 0, 67, 0
2, 2760, Note_on_c, 0, 62, 100
2, 2880, Note_on_c, 0, 62, 0
2, 2880, Note_on_c, 0, 64, 100
2, 2940, Note_on_c, 0, 64, 0
2, 2940, Note_on_c, 0, 64, 100
2, 3000, Note_on_c, 0, 64, 0
2, 3000, Note_on_c, 0, 67, 100
2, 3060, Note_on_c, 0, 67, 0
2, 3060, Note_on_c, 0, 64, 100
2, 3120, Note_on_c, 0, 64, 0
2, 3120, Note_on_c, 0, 62, 100
2, 3180, Note_on_c, 0, 62, 0
2, 3180, Note_on_c, 0, 62, 100
2, 3240, Note_on_c, 0, 62, 0
2, 3240, Note_on_c, 0, 67, 100
2, 3300, Note_on_c, 0, 67, 0
2, 3300, Note_on_c, 0, 62, 100
2, 3360, Note_on_c, 0, 62, 0
2, 3360, Note_on_c, 0, 60, 100
2, 3420, Note_on_c, 0, 60, 0
2, 3420, Note_on_c, 0, 60, 100
2, 3480, Note_on_c, 0, 60, 0
2, 3480, Note_on_c, 0, 57, 100
2, 3540, Note_on_c, 0, 57, 0
2, 3540, Note_on_c, 0, 57, 100
2, 3600, Note_on_c, 0, 57, 0
2, 3600, Note_on_c, 0, 59, 100
2, 3660, Note_on_c, 0, 59, 0
2, 3720, Note_on_c, 0, 59, 100
2, 3840, Note_on_c, 0, 59, 0
2, 3840, Note_on_c, 0, 60, 100
2, 3900, Note_on_c, 0, 60, 0
2, 3900, Note_on_c, 0, 60, 100
2, 3960, Note_on_c, 0, 60, 0
2, 3960, Note_on_c, 0, 64, 100
2, 4020, Note_on_c, 0, 64, 0
2, 4020, Note_on_c, 0, 60, 100
2, 4080, Note_on_c, 0, 60, 0
2, 4080, Note_on_c, 0, 59, 100
2, 4140, Note_on_c, 0, 59, 0
2, 4140, Note_on_c, 0, 59, 100
2, 4200, Note_on_c, 0, 59, 0
2, 4200, Note_on_c, 0, 62, 100
2, 4260, Note_on_c, 0, 62, 0
2, 4260, Note_on_c, 0, 59, 100
2, 4320, Note_on_c, 0, 59, 0
2, 4320, Note_on_c, 0, 57, 100
2, 4380, Note_on_c, 0, 57, 0
2, 4380, Note_on_c, 0, 57, 100
2, 4440, Note_on_c, 0, 57, 0
2, 4440, Note_on_c, 0, 54, 100
2, 4500, Note_on_c, 0, 54, 0
2, 4500, Note_on_c, 0, 54, 100
2, 4560, Note_on_c, 0, 54, 0
2, 4560, Note_on_c, 0, 55, 100
2, 4680, Note_on_c, 0, 55, 0
2, 4800, Note_on_c, 0, 62, 100
2, 5040, Note_on_c, 0, 62, 0
2, 5040, Note_on_c, 0, 64, 100
2, 5100, Note_on_c, 0, 64, 0
2, 5100, Note_on_c, 0, 62, 100
2, 5160, Note_on_c, 0, 62, 0
2, 5160, Note_on_c, 0, 60, 100
2, 5220, Note_on_c, 0, 60, 0
2, 5220, Note_on_c, 0, 59, 100
2, 5280, Note_on_c, 0, 59, 0
2, 5280, Note_on_c, 0, 59, 100
2, 5340, Note_on_c, 0, 59, 0
2, 5340, Note_on_c, 0, 60, 100
2, 5400, Note_on_c, 0, 60, 0
2, 5400, Note_on_c, 0, 61, 100
2, 5460, Note_on_c, 0, 61, 0
2, 5460, Note_on_c, 0, 62, 100
2, 5520, Note_on_c, 0, 62, 0
2, 5520, Note_on_c, 0, 57, 100
2, 5760, Note_on_c, 0, 57, 0
2, 5760, Note_on_c, 0, 59, 100
2, 6000, Note_on_c, 0, 59, 0
2, 6000, Note_on_c, 0, 60, 100
2, 6060, Note_on_c, 0, 60, 0
2, 6060, Note_on_c, 0, 59, 100
2, 6120, Note_on_c, 0, 59, 0
2, 6120, Note_on_c, 0, 57, 100
2, 6180, Note_on_c, 0, 57, 0
2, 6180, Note_on_c, 0, 55, 100
2, 6240, Note_on_c, 0, 55, 0
2, 6240, Note_on_c, 0, 55, 100
2, 6480, Note_on_c, 0, 55, 0
2, 6480, Note_on_c, 0, 54, 100
2, 6720, Note_on_c, 0, 54, 0
2, 6720, Note_on_c, 0, 59, 100
2, 6960, Note_on_c, 0, 59, 0
2, 6960, Note_on_c, 0, 55, 100
2, 7020, Note_on_c, 0, 55, 0
2, 7020, Note_on_c, 0, 57, 100
2, 7080, Note_on_c, 0, 57, 0
2, 7080, Note_on_c, 0, 58, 100
2, 7140, Note_on_c, 0, 58, 0
2, 7140, Note_on_c, 0, 59, 100
2, 7200, Note_on_c, 0, 59, 0
2, 7200, Note_on_c, 0, 59, 100
2, 7260, Note_on_c, 0, 59, 0
2, 7260, Note_on_c, 0, 57, 100
2, 7320, Note_on_c, 0, 57, 0
2, 7320, Note_on_c, 0, 55, 100
2, 7380, Note_on_c, 0, 55, 0
2, 7380, Note_on_c, 0, 54, 100
2, 7440, Note_on_c, 0, 54, 0
2, 7440, Note_on_c, 0, 55, 100
2, 7680, Note_on_c, 0, 55, 0
2, 7680, Note_on_c, 0, 64, 100
2, 7920, Note_on_c, 0, 64, 0
2, 7920, Note_on_c, 0, 62, 100
2, 8160, Note_on_c, 0, 62, 0
2, 8160, Note_on_c, 0, 62, 100
2, 8220, Note_on_c, 0, 62, 0
2, 8220, Note_on_c, 0, 60, 100
2, 8280, Note_on_c, 0, 60, 0
2, 8280, Note_on_c, 0, 59, 100
2, 8340, Note_on_c, 0, 59, 0
2, 8340, Note_on_c, 0, 57, 100
2, 8400, Note_on_c, 0, 57, 0
2, 8400, Note_on_c, 0, 59, 100
2, 8640, Note_on_c, 0, 59, 0
2, 8760, Note_on_c, 0, 71, 100
2, 8880, Note_on_c, 0, 71, 0
2, 8880, Note_on_c, 0, 72, 100
2, 8940, Note_on_c, 0, 72, 0
2, 8940, Note_on_c, 0, 72, 100
2, 9000, Note_on_c, 0, 72, 0
2, 9000, Note_on_c, 0, 69, 100
2, 9060, Note_on_c, 0, 69, 0
2, 9060, Note_on_c, 0, 69, 100
2, 9120, Note_on_c, 0, 69, 0
2, 9120, Note_on_c, 0, 67, 100
2, 9180, Note_on_c, 0, 67, 0
2, 9180, Note_on_c, 0, 62, 100
2, 9240, Note_on_c, 0, 62, 0
2, 9240, Note_on_c, 0, 67, 100
2, 9300, Note_on_c, 0, 67, 0
2, 9300, Note_on_c, 0, 67, 100
2, 9360, Note_on_c, 0, 67, 0
2, 9360, Note_on_c, 0, 66, 100
2, 9420, Note_on_c, 0, 66, 0
2, 9420, Note_on_c, 0, 62, 100
2, 9480, Note_on_c, 0, 62, 0
2, 9480, Note_on_c, 0, 66, 100
2, 9540, Note_on_c, 0, 66, 0
2, 9540, Note_on_c, 0, 66, 100
2, 9600, Note_on_c, 0, 66, 0
2, 9600, Note_on_c, 0, 67, 100
2, 9720, Note_on_c, 0, 67, 0
2, 9780, Note_on_c, 0, 62, 100
2, 9840, Note_on_c, 0, 62, 0
2, 9840, Note_on_c, 0, 64, 100
2, 9900, Note_on_c, 0, 64, 0
2, 9900, Note_on_c, 0, 64, 100
2, 9960, Note_on_c, 0, 64, 0
2, 9960, Note_on_c, 0, 60, 100
2, 10020, Note_on_c, 0, 60, 0
2, 10020, Note_on_c, 0, 60, 100
2, 10080, Note_on_c, 0, 60, 0
2, 10080, Note_on_c, 0, 59, 100
2, 10140, Note_on_c, 0, 59, 0
2, 10140, Note_on_c, 0, 55, 100
2, 10200, Note_on_c, 0, 55, 0
2, 10200, Note_on_c, 0, 59, 100
2, 10260, Note_on_c, 0, 59, 0
2, 10260, Note_on_c, 0, 59, 100
2, 10320, Note_on_c, 0, 59, 0
2, 10320, Note_on_c, 0, 57, 100
2, 10380, Note_on_c, 0, 57, 0
2, 10380, Note_on_c, 0, 54, 100
2, 10440, Note_on_c, 0, 54, 0
2, 10440, Note_on_c, 0, 57, 100
2, 10500, Note_on_c, 0, 57, 0
2, 10500, Note_on_c, 0, 57, 100
2, 10560, Note_on_c, 0, 57, 0
2, 10560, Note_on_c, 0, 59, 100
2, 10680, Note_on_c, 0, 59, 0
2, 10680, Note_on_c, 0, 50, 100
2, 10685, Note_on_c, 0, 55, 100
2, 10690, Note_on_c, 0, 59, 100
2, 10695, Note_on_c, 0, 67, 100
2, 10800, Note_on_c, 0, 50, 0
2, 10800, Note_on_c, 0, 50, 100
2, 10805, Note_on_c, 0, 55, 0
2, 10805, Note_on_c, 0, 55, 100
2, 10810, Note_on_c, 0, 59, 0
2, 10810, Note_on_c, 0, 59, 100
2, 10815, Note_on_c, 0, 67, 0
2, 10815, Note_on_c, 0, 67, 100
2, 10920, Note_on_c, 0, 50, 0
2, 10920, Note_on_c, 0, 62, 100
2, 10925, Note_on_c, 0, 55, 0
2, 10930, Note_on_c, 0, 59, 0
2, 10935, Note_on_c, 0, 67, 0
2, 11040, Note_on_c, 0, 62, 0
2, 11040, Note_on_c, 0, 67, 100
2, 11160, Note_on_c, 0, 67, 0
2, 11160, Note_on_c, 0, 67, 100
2, 11220, Note_on_c, 0, 67, 0
2, 11220, Note_on_c, 0, 67, 100
2, 11280, Note_on_c, 0, 67, 0
2, 11280, Note_on_c, 0, 62, 100
2, 11340, Note_on_c, 0, 62, 0
2, 11340, Note_on_c, 0, 62, 100
2, 11400, Note_on_c, 0, 62, 0
2, 11400, Note_on_c, 0, 59, 100
2, 11460, Note_on_c, 0, 59, 0
2, 11460, Note_on_c, 0, 59, 100
2, 11520, Note_on_c, 0, 59, 0
2, 11520, Note_on_c, 0, 55, 100
2, 11640, Note_on_c, 0, 55, 0
2, 11640, Note_on_c, 0, 50, 100
2, 11645, Note_on_c, 0, 55, 100
2, 11650, Note_on_c, 0, 59, 100
2, 11655, Note_on_c, 0, 67, 100
2, 11760, Note_on_c, 0, 50, 0
2, 11760, Note_on_c, 0, 50, 100
2, 11765, Note_on_c, 0, 55, 0
2, 11765, Note_on_c, 0, 55, 100
2, 11770, Note_on_c, 0, 59, 0
2, 11770, Note_on_c, 0, 59, 100
2, 11775, Note_on_c, 0, 67, 0
2, 11775, Note_on_c, 0, 67, 100
2, 11880, Note_on_c, 0, 50, 0
2, 11880, Note_on_c, 0, 74, 100
2, 11885, Note_on_c, 0, 55, 0
2, 11890, Note_on_c, 0, 59, 0
2, 11895, Note_on_c, 0, 67, 0
2, 12000, Note_on_c, 0, 74, 0
2, 12000, Note_on_c, 0, 71, 100
2, 12120, Note_on_c, 0, 71, 0
2, 12120, Note_on_c, 0, 67, 100
2, 12240, Note_on_c, 0, 67, 0
2, 12240, Note_on_c, 0, 62, 100
2, 12480, Note_on_c, 0, 62, 0
2, 12480, Note_on_c, 0, 67, 100
2, 12600, Note_on_c, 0, 67, 0
2, 12840, Note_on_c, 0, 62, 100
2, 12960, Note_on_c, 0, 62, 0
2, 12960, Note_on_c, 0, 67, 100
2, 13080, Note_on_c, 0, 67, 0
2, 13080, Note_on_c, 0, 71, 100
2, 13200, Note_on_c, 0, 71, 0
2, 13200, Note_on_c, 0, 74, 100
2, 13320, Note_on_c, 0, 74, 0
2, 13320, Note_on_c, 0, 71, 100
2, 13440, Note_on_c, 0, 71, 0
2, 13440, Note_on_c, 0, 67, 100
2, 13680, Note_on_c, 0, 67, 0
2, 13680, Note_on_c, 0, 62, 100
2, 13920, Note_on_c, 0, 62, 0
2, 13920, Note_on_c, 0, 59, 100
2, 14040, Note_on_c, 0, 59, 0
2, 14040, Note_on_c, 0, 55, 100
2, 14160, Note_on_c, 0, 55, 0
2, 14160, Note_on_c, 0, 59, 100
2, 14280, Note_on_c, 0, 59, 0
2, 14280, Note_on_c, 0, 62, 100
2, 14400, Note_on_c, 0, 62, 0
2, 14400, Note_on_c, 0, 67, 100
2, 14520, Note_on_c, 0, 67, 0
2, 14760, Note_on_c, 0, 71, 100
2, 14880, Note_on_c, 0, 71, 0
2, 14880, Note_on_c, 0, 69, 100
2, 15000, Note_on_c, 0, 69, 0
2, 15000, Note_on_c, 0, 67, 100
2, 15240, Note_on_c, 0, 67, 0
2, 15240, Note_on_c, 0, 66, 100
2, 15360, Note_on_c, 0, 66, 0
2, 15360, Note_on_c, 0, 67, 100
2, 15480, Note_on_c, 0, 67, 0
2, 15720, Note_on_c, 0, 62, 100
2, 15840, Note_on_c, 0, 62, 0
2, 15840, Note_on_c, 0, 64, 100
2, 15900, Note_on_c, 0, 64, 0
2, 15900, Note_on_c, 0, 60, 100
2, 15960, Note_on_c, 0, 60, 0
2, 15960, Note_on_c, 0, 55, 100
2, 16200, Note_on_c, 0, 55, 0
2, 16200, Note_on_c, 0, 60, 100
2, 16260, Note_on_c, 0, 60, 0
2, 16260, Note_on_c, 0, 64, 100
2, 16320, Note_on_c, 0, 64, 0
2, 16320, Note_on_c, 0, 62, 100
2, 16380, Note_on_c, 0, 62, 0
2, 16380, Note_on_c, 0, 59, 100
2, 16440, Note_on_c, 0, 59, 0
2, 16440, Note_on_c, 0, 55, 100
2, 16680, Note_on_c, 0, 55, 0
2, 16680, Note_on_c, 0, 59, 100
2, 16740, Note_on_c, 0, 59, 0
2, 16740, Note_on_c, 0, 62, 100
2, 16800, Note_on_c, 0, 62, 0
2, 16800, Note_on_c, 0, 60, 100
2, 16860, Note_on_c, 0, 60, 0
2, 16860, Note_on_c, 0, 60, 100
2, 16920, Note_on_c, 0, 60, 0
2, 16920, Note_on_c, 0, 69, 100
2, 16980, Note_on_c, 0, 69, 0
2, 16980, Note_on_c, 0, 60, 100
2, 17040, Note_on_c, 0, 60, 0
2, 17040, Note_on_c, 0, 59, 100
2, 17100, Note_on_c, 0, 59, 0
2, 17100, Note_on_c, 0, 59, 100
2, 17160, Note_on_c, 0, 59, 0
2, 17160, Note_on_c, 0, 67, 100
2, 17220, Note_on_c, 0, 67, 0
2, 17220, Note_on_c, 0, 59, 100
2, 17280, Note_on_c, 0, 59, 0
2, 17280, Note_on_c, 0, 57, 100
2, 17520, Note_on_c, 0, 57, 0
2, 17520, Note_on_c, 0, 59, 100
2, 17760, Note_on_c, 0, 59, 0
2, 17760, Note_on_c, 0, 60, 100
2, 17820, Note_on_c, 0, 60, 0
2, 17820, Note_on_c, 0, 60, 100
2, 17880, Note_on_c, 0, 60, 0
2, 17880, Note_on_c, 0, 69, 100
2, 17940, Note_on_c, 0, 69, 0
2, 17940, Note_on_c, 0, 60, 100
2, 18000, Note_on_c, 0, 60, 0
2, 18000, Note_on_c, 0, 59, 100
2, 18060, Note_on_c, 0, 59, 0
2, 18060, Note_on_c, 0, 59, 100
2, 18120, Note_on_c, 0, 59, 0
2, 18120, Note_on_c, 0, 67, 100
2, 18180, Note_on_c, 0, 67, 0
2, 18180, Note_on_c, 0, 59, 100
2, 18240, Note_on_c, 0, 59, 0
2, 18240, Note_on_c, 0, 57, 100
2, 18300, Note_on_c, 0, 57, 0
2, 18300, Note_on_c, 0, 54, 100
2, 18360, Note_on_c, 0, 54, 0
2, 18360, Note_on_c, 0, 57, 100
2, 18420, Note_on_c, 0, 57, 0
2, 18420, Note_on_c, 0, 57, 100
2, 18480, Note_on_c, 0, 57, 0
2, 18480, Note_on_c, 0, 57, 100
2, 18720, Note_on_c, 0, 57, 0
2, 18720, Note_on_c, 0, 66, 100
2, 18960, Note_on_c, 0, 66, 0
2, 18960, Note_on_c, 0, 64, 100
2, 19020, Note_on_c, 0, 64, 0
2, 19020, Note_on_c, 0, 64, 100
2, 19080, Note_on_c, 0, 64, 0
2, 19080, Note_on_c, 0, 67, 100
2, 19140, Note_on_c, 0, 67, 0
2, 19140, Note_on_c, 0, 64, 100
2, 19200, Note_on_c, 0, 64, 0
2, 19200, Note_on_c, 0, 62, 100
2, 19260, Note_on_c, 0, 62, 0
2, 19260, Note_on_c, 0, 59, 100
2, 19320, Note_on_c, 0, 59, 0
2, 19320, Note_on_c, 0, 62, 100
2, 19380, Note_on_c, 0, 62, 0
2, 19380, Note_on_c, 0, 62, 100
2, 19440, Note_on_c, 0, 62, 0
2, 19440, Note_on_c, 0, 60, 100
2, 19500, Note_on_c, 0, 60, 0
2, 19500, Note_on_c, 0, 57, 100
2, 19560, Note_on_c, 0, 57, 0
2, 19560, Note_on_c, 0, 60, 100
2, 19620, Note_on_c, 0, 60, 0
2, 19620, Note_on_c, 0, 60, 100
2, 19680, Note_on_c, 0, 60, 0
2, 19680, Note_on_c, 0, 62, 100
2, 19740, Note_on_c, 0, 62, 0
2, 19740, Note_on_c, 0, 62, 100
2, 19800, Note_on_c, 0, 62, 0
2, 19800, Note_on_c, 0, 67, 100
2, 19860, Note_on_c, 0, 67, 0
2, 19860, Note_on_c, 0, 62, 100
2, 19920, Note_on_c, 0, 62, 0
2, 19920, Note_on_c, 0, 64, 100
2, 19980, Note_on_c, 0, 64, 0
2, 19980, Note_on_c, 0, 64, 100
2, 20040, Note_on_c, 0, 64, 0
2, 20040, Note_on_c, 0, 67, 100
2, 20100, Note_on_c, 0, 67, 0
2, 20100, Note_on_c, 0, 64, 100
2, 20160, Note_on_c, 0, 64, 0
2, 20160, Note_on_c, 0, 62, 100
2, 20220, Note_on_c, 0, 62, 0
2, 20220, Note_on_c, 0, 59, 100
2, 20280, Note_on_c, 0, 59, 0
2, 20280, Note_on_c, 0, 62, 100
2, 20340, Note_on_c, 0, 62, 0
2, 20340, Note_on_c, 0, 62, 100
2, 20400, Note_on_c, 0, 62, 0
2, 20400, Note_on_c, 0, 60, 100
2, 20460, Note_on_c, 0, 60, 0
2, 20460, Note_on_c, 0, 57, 100
2, 20520, Note_on_c, 0, 57, 0
2, 20520, Note_on_c, 0, 60, 100
2, 20580, Note_on_c, 0, 60, 0
2, 20580, Note_on_c, 0, 60, 100
2, 20640, Note_on_c, 0, 60, 0
2, 20640, Note_on_c, 0, 59, 100
2, 20760, Note_on_c, 0, 59, 0
2, 20760, Note_on_c, 0, 50, 100
2, 20765, Note_on_c, 0, 55, 100
2, 20770, Note_on_c, 0, 59, 100
2, 20775, Note_on_c, 0, 67, 100
2, 20880, Note_on_c, 0, 50, 0
2, 20880, Note_on_c, 0, 50, 100
2, 20885, Note_on_c, 0, 55, 0
2, 20885, Note_on_c, 0, 55, 100
2, 20890, Note_on_c, 0, 59, 0
2, 20890, Note_on_c, 0, 59, 100
2, 20895, Note_on_c, 0, 67, 0
2, 20895, Note_on_c, 0, 67, 100
2, 21000, Note_on_c, 0, 50, 0
2, 21005, Note_on_c, 0, 55, 0
2, 21010, Note_on_c, 0, 59, 0
2, 21015, Note_on_c, 0, 67, 0
2, 21240, Note_on_c, 0, 50, 100
2, 21245, Note_on_c, 0, 57, 100
2, 21250, Note_on_c, 0, 62, 100
2, 21255, Note_on_c, 0, 66, 100
2, 21360, Note_on_c, 0, 50, 0
2, 21360, Note_on_c, 0, 50, 100
2, 21365, Note_on_c, 0, 57, 0
2, 21365, Note_on_c, 0, 57, 100
2, 21370, Note_on_c, 0, 62, 0
2, 21370, Note_on_c, 0, 62, 100
2, 21375, Note_on_c, 0, 66, 0
2, 21375, Note_on_c, 0, 66, 100
2, 21480, Note_on_c, 0, 50, 0
2, 21485, Note_on_c, 0, 57, 0
2, 21490, Note_on_c, 0, 62, 0
2, 21495, Note_on_c, 0, 66, 0
2, 21720, Note_on_c, 0, 50, 100
2, 21725, Note_on_c, 0, 55, 100
2, 21730, Note_on_c, 0, 59, 100
2, 21735, Note_on_c, 0, 67, 100
2, 21840, Note_on_c, 0, 50, 0
2, 21840, Note_on_c, 0, 50, 100
2, 21845, Note_on_c, 0, 55, 0
2, 21845, Note_on_c, 0, 55, 100
2, 21850, Note_on_c, 0, 59, 0
2, 21850, Note_on_c, 0, 59, 100
2, 21855, Note_on_c, 0, 67, 0
2, 21855, Note_on_c, 0, 67, 100
2, 21960, Note_on_c, 0, 50, 0
2, 21965, Note_on_c, 0, 55, 0
2, 21970, Note_on_c, 0, 59, 0
2, 21975, Note_on_c, 0, 67, 0
2, 22080, Note_on_c, 0, 60, 100
2, 22200, Note_on_c, 0, 60, 0
2, 22200, Note_on_c, 0, 59, 100
2, 22440, Note_on_c, 0, 59, 0
2, 22440, Note_on_c, 0, 57, 100
2, 22560, Note_on_c, 0, 57, 0
2, 22560, Note_on_c, 0, 50, 100
2, 22680, Note_on_c, 0, 50, 0
2, 22680, Note_on_c, 0, 50, 100
2, 22685, Note_on_c, 0, 55, 100
2, 22690, Note_on_c, 0, 59, 100
2, 22695, Note_on_c, 0, 67, 100
2, 22800, Note_on_c, 0, 50, 0
2, 22800, Note_on_c, 0, 50, 100
2, 22805, Note_on_c, 0, 55, 0
2, 22805, Note_on_c, 0, 55, 100
2, 22810, Note_on_c, 0, 59, 0
2, 22810, Note_on_c, 0, 59, 100
2, 22815, Note_on_c, 0, 67, 0
2, 22815, Note_on_c, 0, 67, 100
2, 22920, Note_on_c, 0, 50, 0
2, 22920, Note_on_c, 0, 62, 100
2, 22925, Note_on_c, 0, 55, 0
2, 22930, Note_on_c, 0, 59, 0
2, 22935, Note_on_c, 0, 67, 0
2, 23040, Note_on_c, 0, 62, 0
2, 23040, Note_on_c, 0, 67, 100
2, 23160, Note_on_c, 0, 67, 0
2, 23160, Note_on_c, 0, 71, 100
2, 23280, Note_on_c, 0, 71, 0
2, 23280, Note_on_c, 0, 74, 100
2, 23400, Note_on_c, 0, 74, 0
2, 23400, Note_on_c, 0, 71, 100
2, 23520, Note_on_c, 0, 71, 0
2, 23520, Note_on_c, 0, 67, 100
2, 23760, Note_on_c, 0, 67, 0
2, 23760, Note_on_c, 0, 62, 100
2, 24000, Note_on_c, 0, 62, 0
2, 24000, Note_on_c, 0, 59, 100
2, 24120, Note_on_c, 0, 59, 0
2, 24120, Note_on_c, 0, 55, 100
2, 24240, Note_on_c, 0, 55, 0
2, 24240, Note_on_c, 0, 59, 100
2, 24360, Note_on_c, 0, 59, 0
2, 24360, Note_on_c, 0, 62, 100
2, 24480, Note_on_c, 0, 62, 0
2, 24480, Note_on_c, 0, 67, 100
2, 24600, Note_on_c, 0, 67, 0
2, 24840, Note_on_c, 0, 62, 100
2, 24960, Note_on_c, 0, 62, 0
2, 24960, Note_on_c, 0, 67, 100
2, 25200, Note_on_c, 0, 67, 0
2, 25200, Note_on_c, 0, 62, 100
2, 25320, Note_on_c, 0, 62, 0
2, 25320, Note_on_c, 0, 59, 100
2, 25440, Note_on_c, 0, 59, 0
2, 25440, Note_on_c, 0, 55, 100
2, 25560, Note_on_c, 0, 55, 0
2, 25560, Note_on_c, 0, 50, 100
2, 25565, Note_on_c, 0, 55, 100
2, 25570, Note_on_c, 0, 59, 100
2, 25575, Note_on_c, 0, 67, 100
2, 25680, Note_on_c, 0, 50, 0
2, 25680, Note_on_c, 0, 50, 100
2, 25685, Note_on_c, 0, 55, 0
2, 25685, Note_on_c, 0, 55, 100
2, 25690, Note_on_c, 0, 59, 0
2, 25690, Note_on_c, 0, 59, 100
2, 25695, Note_on_c, 0, 67, 0
2, 25695, Note_on_c, 0, 67, 100
2, 25800, Note_on_c, 0, 50, 0
2, 25800, Note_on_c, 0, 74, 100
2, 25805, Note_on_c, 0, 55, 0
2, 25810, Note_on_c, 0, 59, 0
2, 25815, Note_on_c, 0, 67, 0
2, 25920, Note_on_c, 0, 74, 0
2, 25920, Note_on_c, 0, 71, 100
2, 25980, Note_on_c, 0, 71, 0
2, 25980, Note_on_c, 0, 71, 100
2, 26040, Note_on_c, 0, 71, 0
2, 26040, Note_on_c, 0, 67, 100
2, 26100, Note_on_c, 0, 67, 0
2, 26100, Note_on_c, 0, 67, 100
2, 26160, Note_on_c, 0, 67, 0
2, 26160, Note_on_c, 0, 62, 100
2, 26220, Note_on_c, 0, 62, 0
2, 26220, Note_on_c, 0, 62, 100
2, 26280, Note_on_c, 0, 62, 0
2, 26280, Note_on_c, 0, 62, 100
2, 26400, Note_on_c, 0, 62, 0
2, 26400, Note_on_c, 0, 67, 100
2, 26520, Note_on_c, 0, 67, 0
2, 26760, Note_on_c, 0, 62, 100
2, 26880, Note_on_c, 0, 62, 0
2, 26880, Note_on_c, 0, 64, 100
2, 26940, Note_on_c, 0, 64, 0
2, 26940, Note_on_c, 0, 64, 100
2, 27000, Note_on_c, 0, 64, 0
2, 27000, Note_on_c, 0, 67, 100
2, 27060, Note_on_c, 0, 67, 0
2, 27060, Note_on_c, 0, 64, 100
2, 27120, Note_on_c, 0, 64, 0
2, 27120, Note_on_c, 0, 62, 100
2, 27180, Note_on_c, 0, 62, 0
2, 27180, Note_on_c, 0, 62, 100
2, 27240, Note_on_c, 0, 62, 0
2, 27240, Note_on_c, 0, 67, 100
2, 27300, Note_on_c, 0, 67, 0
2, 27300, Note_on_c, 0, 62, 100
2, 27360, Note_on_c, 0, 62, 0
2, 27360, Note_on_c, 0, 60, 100
2, 27420, Note_on_c, 0, 60, 0
2, 27420, Note_on_c, 0, 60, 100
2, 27480, Note_on_c, 0, 60, 0
2, 27480, Note_on_c, 0, 57, 100
2, 27540, Note_on_c, 0, 57, 0
2, 27540, Note_on_c, 0, 57, 100
2, 27600, Note_on_c, 0, 57, 0
2, 27600, Note_on_c, 0, 59, 100
2, 27660, Note_on_c, 0, 59, 0
2, 27720, Note_on_c, 0, 59, 100
2, 27840, Note_on_c, 0, 59, 0
2, 27840, Note_on_c, 0, 60, 100
2, 27900, Note_on_c, 0, 60, 0
2, 27900, Note_on_c, 0, 60, 100
2, 27960, Note_on_c, 0, 60, 0
2, 27960, Note_on_c, 0, 64, 100
2, 28020, Note_on_c, 0, 64, 0
2, 28020, Note_on_c, 0, 60, 100
2, 28080, Note_on_c, 0, 60, 0
2, 28080, Note_on_c, 0, 59, 100
2, 28140, Note_on_c, 0, 59, 0
2, 28140, Note_on_c, 0, 59, 100
2, 28200, Note_on_c, 0, 59, 0
2, 28200, Note_on_c, 0, 62, 100
2, 28260, Note_on_c, 0, 62, 0
2, 28260, Note_on_c, 0, 59, 100
2, 28320, Note_on_c, 0, 59, 0
2, 28320, Note_on_c, 0, 57, 100
2, 28380, Note_on_c, 0, 57, 0
2, 28380, Note_on_c, 0, 57, 100
2, 28440, Note_on_c, 0, 57, 0
2, 28440, Note_on_c, 0, 54, 100
2, 28500, Note_on_c, 0, 54, 0
2, 28500, Note_on_c, 0, 54, 100
2, 28560, Note_on_c, 0, 54, 0
2, 28560, Note_on_c, 0, 55, 100
2, 28680, Note_on_c, 0, 55, 0
2, 28800, Note_on_c, 0, 62, 100
2, 29040, Note_on_c, 0, 62, 0
2, 29040, Note_on_c, 0, 64, 100
2, 29100, Note_on_c, 0, 64, 0
2, 29100, Note_on_c, 0, 62, 100
2, 29160, Note_on_c, 0, 62, 0
2, 29160, Note_on_c, 0, 60, 100
2, 29220, Note_on_c, 0, 60, 0
2, 29220, Note_on_c, 0, 59, 100
2, 29280, Note_on_c, 0, 59, 0
2, 29280, Note_on_c, 0, 59, 100
2, 29340, Note_on_c, 0, 59, 0
2, 29340, Note_on_c, 0, 60, 100
2, 29400, Note_on_c, 0, 60, 0
2, 29400, Note_on_c, 0, 61, 100
2, 29460, Note_on_c, 0, 61, 0
2, 29460, Note_on_c, 0, 62, 100
2, 29520, Note_on_c, 0, 62, 0
2, 29520, Note_on_c, 0, 57, 100
2, 29760, Note_on_c, 0, 57, 0
2, 29760, Note_on_c, 0, 59, 100
2, 30000, Note_on_c, 0, 59, 0
2, 30000, Note_on_c, 0, 60, 100
2, 30060, Note_on_c, 0, 60, 0
2, 30060, Note_on_c, 0, 59, 100
2, 30120, Note_on_c, 0, 59, 0
2, 30120, Note_on_c, 0, 57, 100
2, 30180, Note_on_c, 0, 57, 0
2, 30180, Note_on_c, 0, 55, 100
2, 30240, Note_on_c, 0, 55, 0
2, 30240, Note_on_c, 0, 55, 100
2, 30480, Note_on_c, 0, 55, 0
2, 30480, Note_on_c, 0, 54, 100
2, 30720, Note_on_c, 0, 54, 0
2, 30720, Note_on_c, 0, 59, 100
2, 30960, Note_on_c, 0, 59, 0
2, 30960, Note_on_c, 0, 55, 100
2, 31020, Note_on_c, 0, 55, 0
2, 31020, Note_on_c, 0, 57, 100
2, 31080, Note_on_c, 0, 57, 0
2, 31080, Note_on_c, 0, 58, 100
2, 31140, Note_on_c, 0, 58, 0
2, 31140, Note_on_c, 0, 59, 100
2, 31200, Note_on_c, 0, 59, 0
2, 31200, Note_on_c, 0, 59, 100
2, 31260, Note_on_c, 0, 59, 0
2, 31260, Note_on_c, 0, 57, 100
2, 31320, Note_on_c, 0, 57, 0
2, 31320, Note_on_c, 0, 55, 100
2, 31380, Note_on_c, 0, 55, 0
2, 31380, Note_on_c, 0, 54, 100
2, 31440, Note_on_c, 0, 54, 0
2, 31440, Note_on_c, 0, 55, 100
2, 31680, Note_on_c, 0, 55, 0
2, 31680, Note_on_c, 0, 64, 100
2, 31920, Note_on_c, 0, 64, 0
2, 31920, Note_on_c, 0, 62, 100
2, 32160, Note_on_c, 0, 62, 0
2, 32160, Note_on_c, 0, 62, 100
2, 32220, Note_on_c, 0, 62, 0
2, 32220, Note_on_c, 0, 60, 100
2, 32280, Note_on_c, 0, 60, 0
2, 32280, Note_on_c, 0, 59, 100
2, 32340, Note_on_c, 0, 59, 0
2, 32340, Note_on_c, 0, 57, 100
2, 32400, Note_on_c, 0, 57, 0
2, 32400, Note_on_c, 0, 59, 100
2, 32640, Note_on_c, 0, 59, 0
2, 32760, Note_on_c, 0, 71, 100
2, 32880, Note_on_c, 0, 71, 0
2, 32880, Note_on_c, 0, 72, 100
2, 32940, Note_on_c, 0, 72, 0
2, 32940, Note_on_c, 0, 72, 100
2, 33000, Note_on_c, 0, 72, 0
2, 33000, Note_on_c, 0, 69, 100
2, 33060, Note_on_c, 0, 69, 0
2, 33060, Note_on_c, 0, 69, 100
2, 33120, Note_on_c, 0, 69, 0
2, 33120, Note_on_c, 0, 67, 100
2, 33180, Note_on_c, 0, 67, 0
2, 33180, Note_on_c, 0, 62, 100
2, 33240, Note_on_c, 0, 62, 0
2, 33240, Note_on_c, 0, 67, 100
2, 33300, Note_on_c, 0, 67, 0
2, 33300, Note_on_c, 0, 67, 100
2, 33360, Note_on_c, 0, 67, 0
2, 33360, Note_on_c, 0, 66, 100
2, 33420, Note_on_c, 0, 66, 0
2, 33420, Note_on_c, 0, 62, 100
2, 33480, Note_on_c, 0, 62, 0
2, 33480, Note_on_c, 0, 66, 100
2, 33540, Note_on_c, 0, 66, 0
2, 33540, Note_on_c, 0, 66, 100
2, 33600, Note_on_c, 0, 66, 0
2, 33600, Note_on_c, 0, 67, 100
2, 33720, Note_on_c, 0, 67, 0
2, 33780, Note_on_c, 0, 55, 100
2, 33840, Note_on_c, 0, 55, 0
2, 33840, Note_on_c, 0, 64, 100
2, 33900, Note_on_c, 0, 64, 0
2, 33900, Note_on_c, 0, 64, 100
2, 33960, Note_on_c, 0, 64, 0
2, 33960, Note_on_c, 0, 60, 100
2, 34020, Note_on_c, 0, 60, 0
2, 34020, Note_on_c, 0, 60, 100
2, 34080, Note_on_c, 0, 60, 0
2, 34080, Note_on_c, 0, 59, 100
2, 34140, Note_on_c, 0, 59, 0
2, 34140, Note_on_c, 0, 55, 100
2, 34200, Note_on_c, 0, 55, 0
2, 34200, Note_on_c, 0, 59, 100
2, 34260, Note_on_c, 0, 59, 0
2, 34260, Note_on_c, 0, 59, 100
2, 34320, Note_on_c, 0, 59, 0
2, 34320, Note_on_c, 0, 57, 100
2, 34380, Note_on_c, 0, 57, 0
2, 34380, Note_on_c, 0, 54, 100
2, 34440, Note_on_c, 0, 54, 0
2, 34440, Note_on_c, 0, 57, 100
2, 34500, Note_on_c, 0, 57, 0
2, 34500, Note_on_c, 0, 57, 100
2, 34560, Note_on_c, 0, 57, 0
2, 34560, Note_on_c, 0, 55, 100
2, 34680, Note_on_c, 0, 55, 0
2, 34680, Note_on_c, 0, 50, 100
2, 34685, Note_on_c, 0, 55, 100
2, 34690, Note_on_c, 0, 59, 100
2, 34695, Note_on_c, 0, 67, 100
2, 34800, Note_on_c, 0, 50, 0
2, 34800, Note_on_c, 0, 50, 100
2, 34805, Note_on_c, 0, 55, 0
2, 34805, Note_on_c, 0, 55, 100
2, 34810, Note_on_c, 0, 59, 0
2, 34810, Note_on_c, 0, 59, 100
2, 34815, Note_on_c, 0, 67, 0
2, 34815, Note_on_c, 0, 67, 100
2, 34920, Note_on_c, 0, 50, 0
2, 34920, Note_on_c, 0, 62, 100
2, 34925, Note_on_c, 0, 55, 0
2, 34930, Note_on_c, 0, 59, 0
2, 34935, Note_on_c, 0, 67, 0
2, 35040, Note_on_c, 0, 62, 0
2, 35040, Note_on_c, 0, 67, 100
2, 35160, Note_on_c, 0, 67, 0
2, 35160, Note_on_c, 0, 67, 100
2, 35220, Note_on_c, 0, 67, 0
2, 35220, Note_on_c, 0, 67, 100
2, 35280, Note_on_c, 0, 67, 0
2, 35280, Note_on_c, 0, 62, 100
2, 35340, Note_on_c, 0, 62, 0
2, 35340, Note_on_c, 0, 62, 100
2, 35400, Note_on_c, 0, 62, 0
2, 35400, Note_on_c, 0, 59, 100
2, 35460, Note_on_c, 0, 59, 0
2, 35460, Note_on_c, 0, 59, 100
2, 35520, Note_on_c, 0, 59, 0
2, 35520, Note_on_c, 0, 55, 100
2, 35640, Note_on_c, 0, 55, 0
2, 35640, Note_on_c, 0, 50, 100
2, 35645, Note_on_c, 0, 55, 100
2, 35650, Note_on_c, 0, 59, 100
2, 35655, Note_on_c, 0, 67, 100
2, 35760, Note_on_c, 0, 50, 0
2, 35760, Note_on_c, 0, 50, 100
2, 35765, Note_on_c, 0, 55, 0
2, 35765, Note_on_c, 0, 55, 100
2, 35770, Note_on_c, 0, 59, 0
2, 35770, Note_on_c, 0, 59, 100
2, 35775, Note_on_c, 0, 67, 0
2, 35775, Note_on_c, 0, 67, 100
2, 35880, Note_on_c, 0, 50, 0
2, 35880, Note_on_c, 0, 74, 100
2, 35885, Note_on_c, 0, 55, 0
2, 35890, Note_on_c, 0, 59, 0
2, 35895, Note_on_c, 0, 67, 0
2, 36000, Note_on_c, 0, 74, 0
2, 36000, Note_on_c, 0, 71, 100
2, 36120, Note_on_c, 0, 71, 0
2, 36120, Note_on_c, 0, 67, 100
2, 36240, Note_on_c, 0, 67, 0
2, 36240, Note_on_c, 0, 62, 100
2, 36480, Note_on_c, 0, 62, 0
2, 36480, Note_on_c, 0, 67, 100
2, 36960, Note_on_c, 0, 67, 0
2, 36960, End_track
3, 0, Start_track
3, 0, MIDI_port, 0
3, 0, Title_t, "2nd guitar"
3, 0, Program_c, 1, 24
3, 0, Control_c, 1, 7, 115
3, 0, Control_c, 1, 10, 94
3, 0, Control_c, 1, 93, 70
3, 0, Control_c, 1, 91, 45
3, 0, Control_c, 1, 11, 127
3, 0, Control_c, 1, 1, 0
3, 0, Pitch_bend_c, 1, 8192
3, 840, Note_on_c, 1, 50, 100
3, 960, Note_on_c, 1, 50, 0
3, 960, Note_on_c, 1, 55, 100
3, 1200, Note_on_c, 1, 55, 0
3, 1200, Note_on_c, 1, 50, 100
3, 1320, Note_on_c, 1, 50, 0
3, 1320, Note_on_c, 1, 47, 100
3, 1440, Note_on_c, 1, 47, 0
3, 1440, Note_on_c, 1, 43, 100
3, 1560, Note_on_c, 1, 43, 0
3, 1560, Note_on_c, 1, 50, 100
3, 1565, Note_on_c, 1, 59, 100
3, 1570, Note_on_c, 1, 62, 100
3, 1575, Note_on_c, 1, 67, 100
3, 1680, Note_on_c, 1, 50, 0
3, 1680, Note_on_c, 1, 50, 100
3, 1685, Note_on_c, 1, 59, 0
3, 1685, Note_on_c, 1, 59, 100
3, 1690, Note_on_c, 1, 62, 0
3, 1690, Note_on_c, 1, 62, 100
3, 1695, Note_on_c, 1, 67, 0
3, 1695, Note_on_c, 1, 67, 100
3, 1800, Note_on_c, 1, 50, 0
3, 1800, Note_on_c, 1, 62, 100
3, 1805, Note_on_c, 1, 59, 0
3, 1810, Note_on_c, 1, 62, 0
3, 1815, Note_on_c, 1, 67, 0
3, 1920, Note_on_c, 1, 62, 0
3, 1920, Note_on_c, 1, 59, 100
3, 1980, Note_on_c, 1, 59, 0
3, 1980, Note_on_c, 1, 59, 100
3, 2040, Note_on_c, 1, 59, 0
3, 2040, Note_on_c, 1, 55, 100
3, 2100, Note_on_c, 1, 55, 0
3, 2100, Note_on_c, 1, 55, 100
3, 2160, Note_on_c, 1, 55, 0
3, 2160, Note_on_c, 1, 50, 100
3, 2220, Note_on_c, 1, 50, 0
3, 2220, Note_on_c, 1, 50, 100
3, 2280, Note_on_c, 1, 50, 0
3, 2280, Note_on_c, 1, 50, 100
3, 2400, Note_on_c, 1, 50, 0
3, 2400, Note_on_c, 1, 55, 100
3, 2520, Note_on_c, 1, 55, 0
3, 2520, Note_on_c, 1, 50, 100
3, 2525, Note_on_c, 1, 59, 100
3, 2530, Note_on_c, 1, 62, 100
3, 2535, Note_on_c, 1, 67, 100
3, 2640, Note_on_c, 1, 50, 0
3, 2640, Note_on_c, 1, 50, 100
3, 2645, Note_on_c, 1, 59, 0
3, 2645, Note_on_c, 1, 59, 100
3, 2650, Note_on_c, 1, 62, 0
3, 2650, Note_on_c, 1, 62, 100
3, 2655, Note_on_c, 1, 67, 0
3, 2655, Note_on_c, 1, 67, 100
3, 2760, Note_on_c, 1, 50, 0
3, 2760, Note_on_c, 1, 62, 100
3, 2765, Note_on_c, 1, 59, 0
3, 2770, Note_on_c, 1, 62, 0
3, 2775, Note_on_c, 1, 67, 0
3, 2880, Note_on_c, 1, 62, 0
3, 2880, Note_on_c, 1, 60, 100
3, 2940, Note_on_c, 1, 60, 0
3, 2940, Note_on_c, 1, 60, 100
3, 3000, Note_on_c, 1, 60, 0
3, 3000, Note_on_c, 1, 64, 100
3, 3060, Note_on_c, 1, 64, 0
3, 3060, Note_on_c, 1, 60, 100
3, 3120, Note_on_c, 1, 60, 0
3, 3120, Note_on_c, 1, 59, 100
3, 3180, Note_on_c, 1, 59, 0
3, 3180, Note_on_c, 1, 59, 100
3, 3240, Note_on_c, 1, 59, 0
3, 3240, Note_on_c, 1, 62, 100
3, 3300, Note_on_c, 1, 62, 0
3, 3300, Note_on_c, 1, 59, 100
3, 3360, Note_on_c, 1, 59, 0
3, 3360, Note_on_c, 1, 57, 100
3, 3420, Note_on_c, 1, 57, 0
3, 3420, Note_on_c, 1, 57, 100
3, 3480, Note_on_c, 1, 57, 0
3, 3480, Note_on_c, 1, 54, 100
3, 3540, Note_on_c, 1, 54, 0
3, 3540, Note_on_c, 1, 54, 100
3, 3600, Note_on_c, 1, 54, 0
3, 3600, Note_on_c, 1, 62, 100
3, 3660, Note_on_c, 1, 62, 0
3, 3720, Note_on_c, 1, 50, 100
3, 3840, Note_on_c, 1, 50, 0
3, 3840, Note_on_c, 1, 52, 100
3, 3900, Note_on_c, 1, 52, 0
3, 3900, Note_on_c, 1, 52, 100
3, 3960, Note_on_c, 1, 52, 0
3, 3960, Note_on_c, 1, 55, 100
3, 4020, Note_on_c, 1, 55, 0
3, 4020, Note_on_c, 1, 52, 100
3, 4080, Note_on_c, 1, 52, 0
3, 4080, Note_on_c, 1, 50, 100
3, 4140, Note_on_c, 1, 50, 0
3, 4140, Note_on_c, 1, 50, 100
3, 4200, Note_on_c, 1, 50, 0
3, 4200, Note_on_c, 1, 55, 100
3, 4260, Note_on_c, 1, 55, 0
3, 4260, Note_on_c, 1, 50, 100
3, 4320, Note_on_c, 1, 50, 0
3, 4320, Note_on_c, 1, 48, 100
3, 4380, Note_on_c, 1, 48, 0
3, 4380, Note_on_c, 1, 48, 100
3, 4440, Note_on_c, 1, 48, 0
3, 4440, Note_on_c, 1, 45, 100
3, 4500, Note_on_c, 1, 45, 0
3, 4500, Note_on_c, 1, 45, 100
3, 4560, Note_on_c, 1, 45, 0
3, 4560, Note_on_c, 1, 47, 100
3, 4680, Note_on_c, 1, 47, 0
3, 4800, Note_on_c, 1, 59, 100
3, 5040, Note_on_c, 1, 59, 0
3, 5040, Note_on_c, 1, 60, 100
3, 5100, Note_on_c, 1, 60, 0
3, 5100, Note_on_c, 1, 59, 100
3, 5160, Note_on_c, 1, 59, 0
3, 5160, Note_on_c, 1, 57, 100
3, 5220, Note_on_c, 1, 57, 0
3, 5220, Note_on_c, 1, 55, 100
3, 5280, Note_on_c, 1, 55, 0
3, 5280, Note_on_c, 1, 55, 100
3, 5520, Note_on_c, 1, 55, 0
3, 5520, Note_on_c, 1, 54, 100
3, 5760, Note_on_c, 1, 54, 0
3, 5760, Note_on_c, 1, 62, 100
3, 6000, Note_on_c, 1, 62, 0
3, 6000, Note_on_c, 1, 64, 100
3, 6060, Note_on_c, 1, 64, 0
3, 6060, Note_on_c, 1, 62, 100
3, 6120, Note_on_c, 1, 62, 0
3, 6120, Note_on_c, 1, 60, 100
3, 6180, Note_on_c, 1, 60, 0
3, 6180, Note_on_c, 1, 59, 100
3, 6240, Note_on_c, 1, 59, 0
3, 6240, Note_on_c, 1, 59, 100
3, 6300, Note_on_c, 1, 59, 0
3, 6300, Note_on_c, 1, 60, 100
3, 6360, Note_on_c, 1, 60, 0
3, 6360, Note_on_c, 1, 61, 100
3, 6420, Note_on_c, 1, 61, 0
3, 6420, Note_on_c, 1, 62, 100
3, 6480, Note_on_c, 1, 62, 0
3, 6480, Note_on_c, 1, 57, 100
3, 6720, Note_on_c, 1, 57, 0
3, 6720, Note_on_c, 1, 64, 100
3, 6960, Note_on_c, 1, 64, 0
3, 6960, Note_on_c, 1, 62, 100
3, 7200, Note_on_c, 1, 62, 0
3, 7200, Note_on_c, 1, 62, 100
3, 7260, Note_on_c, 1, 62, 0
3, 7260, Note_on_c, 1, 60, 100
3, 7320, Note_on_c, 1, 60, 0
3, 7320, Note_on_c, 1, 59, 100
3, 7380, Note_on_c, 1, 59, 0
3, 7380, Note_on_c, 1, 57, 100
3, 7440, Note_on_c, 1, 57, 0
3, 7440, Note_on_c, 1, 59, 100
3, 7680, Note_on_c, 1, 59, 0
3, 7680, Note_on_c, 1, 60, 100
3, 7920, Note_on_c, 1, 60, 0
3, 7920, Note_on_c, 1, 55, 100
3, 7980, Note_on_c, 1, 55, 0
3, 7980, Note_on_c, 1, 57, 100
3, 8040, Note_on_c, 1, 57, 0
3, 8040, Note_on_c, 1, 58, 100
3, 8100, Note_on_c, 1, 58, 0
3, 8100, Note_on_c, 1, 59, 100
3, 8160, Note_on_c, 1, 59, 0
3, 8160, Note_on_c, 1, 59, 100
3, 8220, Note_on_c, 1, 59, 0
3, 8220, Note_on_c, 1, 57, 100
3, 8280, Note_on_c, 1, 57, 0
3, 8280, Note_on_c, 1, 55, 100
3, 8340, Note_on_c, 1, 55, 0
3, 8340, Note_on_c, 1, 54, 100
3, 8400, Note_on_c, 1, 54, 0
3, 8400, Note_on_c, 1, 55, 100
3, 8640, Note_on_c, 1, 55, 0
3, 8760, Note_on_c, 1, 62, 100
3, 8880, Note_on_c, 1, 62, 0
3, 8880, Note_on_c, 1, 64, 100
3, 8940, Note_on_c, 1, 64, 0
3, 8940, Note_on_c, 1, 64, 100
3, 9000, Note_on_c, 1, 64, 0
3, 9000, Note_on_c, 1, 60, 100
3, 9060, Note_on_c, 1, 60, 0
3, 9060, Note_on_c, 1, 60, 100
3, 9120, Note_on_c, 1, 60, 0
3, 9120, Note_on_c, 1, 59, 100
3, 9180, Note_on_c, 1, 59, 0
3, 9180, Note_on_c, 1, 55, 100
3, 9240, Note_on_c, 1, 55, 0
3, 9240, Note_on_c, 1, 59, 100
3, 9300, Note_on_c, 1, 59, 0
3, 9300, Note_on_c, 1, 59, 100
3, 9360, Note_on_c, 1, 59, 0
3, 9360, Note_on_c, 1, 57, 100
3, 9420, Note_on_c, 1, 57, 0
3, 9420, Note_on_c, 1, 54, 100
3, 9480, Note_on_c, 1, 54, 0
3, 9480, Note_on_c, 1, 57, 100
3, 9540, Note_on_c, 1, 57, 0
3, 9540, Note_on_c, 1, 57, 100
3, 9600, Note_on_c, 1, 57, 0
3, 9600, Note_on_c, 1, 59, 100
3, 9720, Note_on_c, 1, 59, 0
3, 9780, Note_on_c, 1, 59, 100
3, 9840, Note_on_c, 1, 59, 0
3, 9840, Note_on_c, 1, 60, 100
3, 9900, Note_on_c, 1, 60, 0
3, 9900, Note_on_c, 1, 60, 100
3, 9960, Note_on_c, 1, 60, 0
3, 9960, Note_on_c, 1, 57, 100
3, 10020, Note_on_c, 1, 57, 0
3, 10020, Note_on_c, 1, 57, 100
3, 10080, Note_on_c, 1, 57, 0
3, 10080, Note_on_c, 1, 55, 100
3, 10140, Note_on_c, 1, 55, 0
3, 10140, Note_on_c, 1, 50, 100
3, 10200, Note_on_c, 1, 50, 0
3, 10200, Note_on_c, 1, 55, 100
3, 10260, Note_on_c, 1, 55, 0
3, 10260, Note_on_c, 1, 55, 100
3, 10320, Note_on_c, 1, 55, 0
3, 10320, Note_on_c, 1, 54, 100
3, 10380, Note_on_c, 1, 54, 0
3, 10380, Note_on_c, 1, 50, 100
3, 10440, Note_on_c, 1, 50, 0
3, 10440, Note_on_c, 1, 54, 100
3, 10500, Note_on_c, 1, 54, 0
3, 10500, Note_on_c, 1, 54, 100
3, 10560, Note_on_c, 1, 54, 0
3, 10560, Note_on_c, 1, 55, 100
3, 10680, Note_on_c, 1, 55, 0
3, 10920, Note_on_c, 1, 50, 100
3, 11040, Note_on_c, 1, 50, 0
3, 11040, Note_on_c, 1, 55, 100
3, 11160, Note_on_c, 1, 55, 0
3, 11160, Note_on_c, 1, 55, 100
3, 11220, Note_on_c, 1, 55, 0
3, 11220, Note_on_c, 1, 55, 100
3, 11280, Note_on_c, 1, 55, 0
3, 11280, Note_on_c, 1, 50, 100
3, 11340, Note_on_c, 1, 50, 0
3, 11340, Note_on_c, 1, 50, 100
3, 11400, Note_on_c, 1, 50, 0
3, 11400, Note_on_c, 1, 47, 100
3, 11460, Note_on_c, 1, 47, 0
3, 11460, Note_on_c, 1, 47, 100
3, 11520, Note_on_c, 1, 47, 0
3, 11520, Note_on_c, 1, 43, 100
3, 11640, Note_on_c, 1, 43, 0
3, 11640, Note_on_c, 1, 50, 100
3, 11645, Note_on_c, 1, 59, 100
3, 11650, Note_on_c, 1, 62, 100
3, 11655, Note_on_c, 1, 67, 100
3, 11760, Note_on_c, 1, 50, 0
3, 11760, Note_on_c, 1, 50, 100
3, 11765, Note_on_c, 1, 59, 0
3, 11765, Note_on_c, 1, 59, 100
3, 11770, Note_on_c, 1, 62, 0
3, 11770, Note_on_c, 1, 62, 100
3, 11775, Note_on_c, 1, 67, 0
3, 11775, Note_on_c, 1, 67, 100
3, 11880, Note_on_c, 1, 50, 0
3, 11880, Note_on_c, 1, 62, 100
3, 11885, Note_on_c, 1, 59, 0
3, 11890, Note_on_c, 1, 62, 0
3, 11895, Note_on_c, 1, 67, 0
3, 12000, Note_on_c, 1, 62, 0
3, 12000, Note_on_c, 1, 59, 100
3, 12120, Note_on_c, 1, 59, 0
3, 12120, Note_on_c, 1, 55, 100
3, 12240, Note_on_c, 1, 55, 0
3, 12240, Note_on_c, 1, 50, 100
3, 12480, Note_on_c, 1, 50, 0
3, 12480, Note_on_c, 1, 55, 100
3, 12600, Note_on_c, 1, 55, 0
3, 12840, Note_on_c, 1, 50, 100
3, 12960, Note_on_c, 1, 50, 0
3, 12960, Note_on_c, 1, 55, 100
3, 13080, Note_on_c, 1, 55, 0
3, 13080, Note_on_c, 1, 59, 100
3, 13200, Note_on_c, 1, 59, 0
3, 13200, Note_on_c, 1, 62, 100
3, 13320, Note_on_c, 1, 62, 0
3, 13320, Note_on_c, 1, 59, 100
3, 13440, Note_on_c, 1, 59, 0
3, 13440, Note_on_c, 1, 55, 100
3, 13680, Note_on_c, 1, 55, 0
3, 13680, Note_on_c, 1, 50, 100
3, 13920, Note_on_c, 1, 50, 0
3, 13920, Note_on_c, 1, 47, 100
3, 14040, Note_on_c, 1, 47, 0
3, 14040, Note_on_c, 1, 43, 100
3, 14160, Note_on_c, 1, 43, 0
3, 14160, Note_on_c, 1, 47, 100
3, 14280, Note_on_c, 1, 47, 0
3, 14280, Note_on_c, 1, 50, 100
3, 14400, Note_on_c, 1, 50, 0
3, 14400, Note_on_c, 1, 55, 100
3, 14520, Note_on_c, 1, 55, 0
3, 14520, Note_on_c, 1, 50, 100
3, 14525, Note_on_c, 1, 59, 100
3, 14530, Note_on_c, 1, 62, 100
3, 14535, Note_on_c, 1, 67, 100
3, 14640, Note_on_c, 1, 50, 0
3, 14640, Note_on_c, 1, 50, 100
3, 14645, Note_on_c, 1, 59, 0
3, 14645, Note_on_c, 1, 59, 100
3, 14650, Note_on_c, 1, 62, 0
3, 14650, Note_on_c, 1, 62, 100
3, 14655, Note_on_c, 1, 67, 0
3, 14655, Note_on_c, 1, 67, 100
3, 14760, Note_on_c, 1, 50, 0
3, 14760, Note_on_c, 1, 67, 100
3, 14765, Note_on_c, 1, 59, 0
3, 14770, Note_on_c, 1, 62, 0
3, 14775, Note_on_c, 1, 67, 0
3, 14880, Note_on_c, 1, 67, 0
3, 14880, Note_on_c, 1, 60, 100
3, 15000, Note_on_c, 1, 60, 0
3, 15000, Note_on_c, 1, 59, 100
3, 15240, Note_on_c, 1, 59, 0
3, 15240, Note_on_c, 1, 57, 100
3, 15360, Note_on_c, 1, 57, 0
3, 15480, Note_on_c, 1, 50, 100
3, 15485, Note_on_c, 1, 59, 100
3, 15490, Note_on_c, 1, 62, 100
3, 15495, Note_on_c, 1, 67, 100
3, 15600, Note_on_c, 1, 50, 0
3, 15600, Note_on_c, 1, 50, 100
3, 15605, Note_on_c, 1, 59, 0
3, 15605, Note_on_c, 1, 59, 100
3, 15610, Note_on_c, 1, 62, 0
3, 15610, Note_on_c, 1, 62, 100
3, 15615, Note_on_c, 1, 67, 0
3, 15615, Note_on_c, 1, 67, 100
3, 15720, Note_on_c, 1, 50, 0
3, 15725, Note_on_c, 1, 59, 0
3, 15730, Note_on_c, 1, 62, 0
3, 15735, Note_on_c, 1, 67, 0
3, 15960, Note_on_c, 1, 52, 100
3, 15965, Note_on_c, 1, 55, 100
3, 15970, Note_on_c, 1, 60, 100
3, 15975, Note_on_c, 1, 67, 100
3, 16080, Note_on_c, 1, 52, 0
3, 16080, Note_on_c, 1, 52, 100
3, 16085, Note_on_c, 1, 55, 0
3, 16085, Note_on_c, 1, 55, 100
3, 16090, Note_on_c, 1, 60, 0
3, 16090, Note_on_c, 1, 60, 100
3, 16095, Note_on_c, 1, 67, 0
3, 16095, Note_on_c, 1, 67, 100
3, 16200, Note_on_c, 1, 52, 0
3, 16205, Note_on_c, 1, 55, 0
3, 16210, Note_on_c, 1, 60, 0
3, 16215, Note_on_c, 1, 67, 0
3, 16440, Note_on_c, 1, 50, 100
3, 16445, Note_on_c, 1, 59, 100
3, 16450, Note_on_c, 1, 62, 100
3, 16455, Note_on_c, 1, 67, 100
3, 16560, Note_on_c, 1, 50, 0
3, 16560, Note_on_c, 1, 50, 100
3, 16565, Note_on_c, 1, 59, 0
3, 16565, Note_on_c, 1, 59, 100
3, 16570, Note_on_c, 1, 62, 0
3, 16570, Note_on_c, 1, 62, 100
3, 16575, Note_on_c, 1, 67, 0
3, 16575, Note_on_c, 1, 67, 100
3, 16680, Note_on_c, 1, 50, 0
3, 16680, Note_on_c, 1, 59, 100
3, 16685, Note_on_c, 1, 59, 0
3, 16690, Note_on_c, 1, 62, 0
3, 16695, Note_on_c, 1, 67, 0
3, 16800, Note_on_c, 1, 59, 0
3, 16800, Note_on_c, 1, 57, 100
3, 16860, Note_on_c, 1, 57, 0
3, 16860, Note_on_c, 1, 57, 100
3, 16920, Note_on_c, 1, 57, 0
3, 16920, Note_on_c, 1, 60, 100
3, 16980, Note_on_c, 1, 60, 0
3, 16980, Note_on_c, 1, 57, 100
3, 17040, Note_on_c, 1, 57, 0
3, 17040, Note_on_c, 1, 55, 100
3, 17100, Note_on_c, 1, 55, 0
3, 17100, Note_on_c, 1, 55, 100
3, 17160, Note_on_c, 1, 55, 0
3, 17160, Note_on_c, 1, 59, 100
3, 17220, Note_on_c, 1, 59, 0
3, 17220, Note_on_c, 1, 55, 100
3, 17280, Note_on_c, 1, 55, 0
3, 17280, Note_on_c, 1, 54, 100
3, 17340, Note_on_c, 1, 54, 0
3, 17340, Note_on_c, 1, 50, 100
3, 17400, Note_on_c, 1, 50, 0
3, 17400, Note_on_c, 1, 54, 100
3, 17460, Note_on_c, 1, 54, 0
3, 17460, Note_on_c, 1, 54, 100
3, 17520, Note_on_c, 1, 54, 0
3, 17520, Note_on_c, 1, 55, 100
3, 17580, Note_on_c, 1, 55, 0
3, 17580, Note_on_c, 1, 50, 100
3, 17640, Note_on_c, 1, 50, 0
3, 17640, Note_on_c, 1, 55, 100
3, 17700, Note_on_c, 1, 55, 0
3, 17700, Note_on_c, 1, 55, 100
3, 17760, Note_on_c, 1, 55, 0
3, 17760, Note_on_c, 1, 57, 100
3, 17820, Note_on_c, 1, 57, 0
3, 17820, Note_on_c, 1, 57, 100
3, 17880, Note_on_c, 1, 57, 0
3, 17880, Note_on_c, 1, 60, 100
3, 17940, Note_on_c, 1, 60, 0
3, 17940, Note_on_c, 1, 57, 100
3, 18000, Note_on_c, 1, 57, 0
3, 18000, Note_on_c, 1, 55, 100
3, 18060, Note_on_c, 1, 55, 0
3, 18060, Note_on_c, 1, 55, 100
3, 18120, Note_on_c, 1, 55, 0
3, 18120, Note_on_c, 1, 59, 100
3, 18180, Note_on_c, 1, 59, 0
3, 18180, Note_on_c, 1, 55, 100
3, 18240, Note_on_c, 1, 55, 0
3, 18240, Note_on_c, 1, 54, 100
3, 18300, Note_on_c, 1, 54, 0
3, 18300, Note_on_c, 1, 50, 100
3, 18360, Note_on_c, 1, 50, 0
3, 18360, Note_on_c, 1, 54, 100
3, 18420, Note_on_c, 1, 54, 0
3, 18420, Note_on_c, 1, 54, 100
3, 18480, Note_on_c, 1, 54, 0
3, 18480, Note_on_c, 1, 50, 100
3, 18720, Note_on_c, 1, 50, 0
3, 18720, Note_on_c, 1, 60, 100
3, 18960, Note_on_c, 1, 60, 0
3, 18960, Note_on_c, 1, 60, 100
3, 19020, Note_on_c, 1, 60, 0
3, 19020, Note_on_c, 1, 60, 100
3, 19080, Note_on_c, 1, 60, 0
3, 19080, Note_on_c, 1, 64, 100
3, 19140, Note_on_c, 1, 64, 0
3, 19140, Note_on_c, 1, 60, 100
3, 19200, Note_on_c, 1, 60, 0
3, 19200, Note_on_c, 1, 59, 100
3, 19260, Note_on_c, 1, 59, 0
3, 19260, Note_on_c, 1, 50, 100
3, 19320, Note_on_c, 1, 50, 0
3, 19320, Note_on_c, 1, 59, 100
3, 19380, Note_on_c, 1, 59, 0
3, 19380, Note_on_c, 1, 59, 100
3, 19440, Note_on_c, 1, 59, 0
3, 19440, Note_on_c, 1, 57, 100
3, 19500, Note_on_c, 1, 57, 0
3, 19500, Note_on_c, 1, 48, 100
3, 19560, Note_on_c, 1, 48, 0
3, 19560, Note_on_c, 1, 57, 100
3, 19620, Note_on_c, 1, 57, 0
3, 19620, Note_on_c, 1, 57, 100
3, 19680, Note_on_c, 1, 57, 0
3, 19680, Note_on_c, 1, 59, 100
3, 19920, Note_on_c, 1, 59, 0
3, 19920, Note_on_c, 1, 60, 100
3, 20160, Note_on_c, 1, 60, 0
3, 20160, Note_on_c, 1, 59, 100
3, 20220, Note_on_c, 1, 59, 0
3, 20220, Note_on_c, 1, 50, 100
3, 20280, Note_on_c, 1, 50, 0
3, 20280, Note_on_c, 1, 59, 100
3, 20340, Note_on_c, 1, 59, 0
3, 20340, Note_on_c, 1, 59, 100
3, 20400, Note_on_c, 1, 59, 0
3, 20400, Note_on_c, 1, 57, 100
3, 20460, Note_on_c, 1, 57, 0
3, 20460, Note_on_c, 1, 48, 100
3, 20520, Note_on_c, 1, 48, 0
3, 20520, Note_on_c, 1, 57, 100
3, 20580, Note_on_c, 1, 57, 0
3, 20580, Note_on_c, 1, 57, 100
3, 20640, Note_on_c, 1, 57, 0
3, 20640, Note_on_c, 1, 55, 100
3, 20700, Note_on_c, 1, 55, 0
3, 20700, Note_on_c, 1, 59, 100
3, 20760, Note_on_c, 1, 59, 0
3, 20760, Note_on_c, 1, 62, 100
3, 21000, Note_on_c, 1, 62, 0
3, 21000, Note_on_c, 1, 59, 100
3, 21060, Note_on_c, 1, 59, 0
3, 21060, Note_on_c, 1, 55, 100
3, 21120, Note_on_c, 1, 55, 0
3, 21120, Note_on_c, 1, 54, 100
3, 21180, Note_on_c, 1, 54, 0
3, 21180, Note_on_c, 1, 57, 100
3, 21240, Note_on_c, 1, 57, 0
3, 21240, Note_on_c, 1, 62, 100
3, 21480, Note_on_c, 1, 62, 0
3, 21480, Note_on_c, 1, 57, 100
3, 21540, Note_on_c, 1, 57, 0
3, 21540, Note_on_c, 1, 54, 100
3, 21600, Note_on_c, 1, 54, 0
3, 21600, Note_on_c, 1, 55, 100
3, 21720, Note_on_c, 1, 55, 0
3, 21960, Note_on_c, 1, 50, 100
3, 22080, Note_on_c, 1, 50, 0
3, 22080, Note_on_c, 1, 52, 100
3, 22200, Note_on_c, 1, 52, 0
3, 22200, Note_on_c, 1, 50, 100
3, 22440, Note_on_c, 1, 50, 0
3, 22440, Note_on_c, 1, 48, 100
3, 22560, Note_on_c, 1, 48, 0
3, 22560, Note_on_c, 1, 47, 100
3, 22680, Note_on_c, 1, 47, 0
3, 22920, Note_on_c, 1, 50, 100
3, 23040, Note_on_c, 1, 50, 0
3, 23040, Note_on_c, 1, 55, 100
3, 23160, Note_on_c, 1, 55, 0
3, 23160, Note_on_c, 1, 59, 100
3, 23280, Note_on_c, 1, 59, 0
3, 23280, Note_on_c, 1, 62, 100
3, 23400, Note_on_c, 1, 62, 0
3, 23400, Note_on_c, 1, 59, 100
3, 23520, Note_on_c, 1, 59, 0
3, 23520, Note_on_c, 1, 55, 100
3, 23760, Note_on_c, 1, 55, 0
3, 23760, Note_on_c, 1, 50, 100
3, 24000, Note_on_c, 1, 50, 0
3, 24000, Note_on_c, 1, 47, 100
3, 24120, Note_on_c, 1, 47, 0
3, 24120, Note_on_c, 1, 43, 100
3, 24240, Note_on_c, 1, 43, 0
3, 24240, Note_on_c, 1, 47, 100
3, 24360, Note_on_c, 1, 47, 0
3, 24360, Note_on_c, 1, 50, 100
3, 24480, Note_on_c, 1, 50, 0
3, 24480, Note_on_c, 1, 55, 100
3, 24600, Note_on_c, 1, 55, 0
3, 24840, Note_on_c, 1, 50, 100
3, 24960, Note_on_c, 1, 50, 0
3, 24960, Note_on_c, 1, 55, 100
3, 25200, Note_on_c, 1, 55, 0
3, 25200, Note_on_c, 1, 50, 100
3, 25320, Note_on_c, 1, 50, 0
3, 25320, Note_on_c, 1, 47, 100
3, 25440, Note_on_c, 1, 47, 0
3, 25440, Note_on_c, 1, 43, 100
3, 25560, Note_on_c, 1, 43, 0
3, 25560, Note_on_c, 1, 50, 100
3, 25565, Note_on_c, 1, 59, 100
3, 25570, Note_on_c, 1, 62, 100
3, 25575, Note_on_c, 1, 67, 100
3, 25680, Note_on_c, 1, 50, 0
3, 25680, Note_on_c, 1, 50, 100
3, 25685, Note_on_c, 1, 59, 0
3, 25685, Note_on_c, 1, 59, 100
3, 25690, Note_on_c, 1, 62, 0
3, 25690, Note_on_c, 1, 62, 100
3, 25695, Note_on_c, 1, 67, 0
3, 25695, Note_on_c, 1, 67, 100
3, 25800, Note_on_c, 1, 50, 0
3, 25800, Note_on_c, 1, 62, 100
3, 25805, Note_on_c, 1, 59, 0
3, 25810, Note_on_c, 1, 62, 0
3, 25815, Note_on_c, 1, 67, 0
3, 25920, Note_on_c, 1, 62, 0
3, 25920, Note_on_c, 1, 59, 100
3, 25980, Note_on_c, 1, 59, 0
3, 25980, Note_on_c, 1, 59, 100
3, 26040, Note_on_c, 1, 59, 0
3, 26040, Note_on_c, 1, 55, 100
3, 26100, Note_on_c, 1, 55, 0
3, 26100, Note_on_c, 1, 55, 100
3, 26160, Note_on_c, 1, 55, 0
3, 26160, Note_on_c, 1, 50, 100
3, 26220, Note_on_c, 1, 50, 0
3, 26220, Note_on_c, 1, 50, 100
3, 26280, Note_on_c, 1, 50, 0
3, 26280, Note_on_c, 1, 50, 100
3, 26400, Note_on_c, 1, 50, 0
3, 26400, Note_on_c, 1, 55, 100
3, 26520, Note_on_c, 1, 55, 0
3, 26520, Note_on_c, 1, 50, 100
3, 26525, Note_on_c, 1, 59, 100
3, 26530, Note_on_c, 1, 62, 100
3, 26535, Note_on_c, 1, 67, 100
3, 26640, Note_on_c, 1, 50, 0
3, 26640, Note_on_c, 1, 50, 100
3, 26645, Note_on_c, 1, 59, 0
3, 26645, Note_on_c, 1, 59, 100
3, 26650, Note_on_c, 1, 62, 0
3, 26650, Note_on_c, 1, 62, 100
3, 26655, Note_on_c, 1, 67, 0
3, 26655, Note_on_c, 1, 67, 100
3, 26760, Note_on_c, 1, 50, 0
3, 26760, Note_on_c, 1, 59, 100
3, 26765, Note_on_c, 1, 59, 0
3, 26770, Note_on_c, 1, 62, 0
3, 26775, Note_on_c, 1, 67, 0
3, 26880, Note_on_c, 1, 59, 0
3, 26880, Note_on_c, 1, 60, 100
3, 26940, Note_on_c, 1, 60, 0
3, 26940, Note_on_c, 1, 60, 100
3, 27000, Note_on_c, 1, 60, 0
3, 27000, Note_on_c, 1, 64, 100
3, 27060, Note_on_c, 1, 64, 0
3, 27060, Note_on_c, 1, 60, 100
3, 27120, Note_on_c, 1, 60, 0
3, 27120, Note_on_c, 1, 59, 100
3, 27180, Note_on_c, 1, 59, 0
3, 27180, Note_on_c, 1, 59, 100
3, 27240, Note_on_c, 1, 59, 0
3, 27240, Note_on_c, 1, 62, 100
3, 27300, Note_on_c, 1, 62, 0
3, 27300, Note_on_c, 1, 59, 100
3, 27360, Note_on_c, 1, 59, 0
3, 27360, Note_on_c, 1, 57, 100
3, 27420, Note_on_c, 1, 57, 0
3, 27420, Note_on_c, 1, 57, 100
3, 27480, Note_on_c, 1, 57, 0
3, 27480, Note_on_c, 1, 54, 100
3, 27540, Note_on_c, 1, 54, 0
3, 27540, Note_on_c, 1, 54, 100
3, 27600, Note_on_c, 1, 54, 0
3, 27600, Note_on_c, 1, 55, 100
3, 27660, Note_on_c, 1, 55, 0
3, 27720, Note_on_c, 1, 50, 100
3, 27840, Note_on_c, 1, 50, 0
3, 27840, Note_on_c, 1, 52, 100
3, 27900, Note_on_c, 1, 52, 0
3, 27900, Note_on_c, 1, 52, 100
3, 27960, Note_on_c, 1, 52, 0
3, 27960, Note_on_c, 1, 55, 100
3, 28020, Note_on_c, 1, 55, 0
3, 28020, Note_on_c, 1, 52, 100
3, 28080, Note_on_c, 1, 52, 0
3, 28080, Note_on_c, 1, 50, 100
3, 28140, Note_on_c, 1, 50, 0
3, 28140, Note_on_c, 1, 50, 100
3, 28200, Note_on_c, 1, 50, 0
3, 28200, Note_on_c, 1, 55, 100
3, 28260, Note_on_c, 1, 55, 0
3, 28260, Note_on_c, 1, 50, 100
3, 28320, Note_on_c, 1, 50, 0
3, 28320, Note_on_c, 1, 48, 100
3, 28380, Note_on_c, 1, 48, 0
3, 28380, Note_on_c, 1, 48, 100
3, 28440, Note_on_c, 1, 48, 0
3, 28440, Note_on_c, 1, 45, 100
3, 28500, Note_on_c, 1, 45, 0
3, 28500, Note_on_c, 1, 45, 100
3, 28560, Note_on_c, 1, 45, 0
3, 28560, Note_on_c, 1, 47, 100
3, 28680, Note_on_c, 1, 47, 0
3, 28800, Note_on_c, 1, 59, 100
3, 29040, Note_on_c, 1, 59, 0
3, 29040, Note_on_c, 1, 60, 100
3, 29100, Note_on_c, 1, 60, 0
3, 29100, Note_on_c, 1, 59, 100
3, 29160, Note_on_c, 1, 59, 0
3, 29160, Note_on_c, 1, 57, 100
3, 29220, Note_on_c, 1, 57, 0
3, 29220, Note_on_c, 1, 55, 100
3, 29280, Note_on_c, 1, 55, 0
3, 29280, Note_on_c, 1, 55, 100
3, 29520, Note_on_c, 1, 55, 0
3, 29520, Note_on_c, 1, 54, 100
3, 29760, Note_on_c, 1, 54, 0
3, 29760, Note_on_c, 1, 62, 100
3, 30000, Note_on_c, 1, 62, 0
3, 30000, Note_on_c, 1, 64, 100
3, 30060, Note_on_c, 1, 64, 0
3, 30060, Note_on_c, 1, 62, 100
3, 30120, Note_on_c, 1, 62, 0
3, 30120, Note_on_c, 1, 60, 100
3, 30180, Note_on_c, 1, 60, 0
3, 30180, Note_on_c, 1, 59, 100
3, 30240, Note_on_c, 1, 59, 0
3, 30240, Note_on_c, 1, 59, 100
3, 30300, Note_on_c, 1, 59, 0
3, 30300, Note_on_c, 1, 60, 100
3, 30360, Note_on_c, 1, 60, 0
3, 30360, Note_on_c, 1, 61, 100
3, 30420, Note_on_c, 1, 61, 0
3, 30420, Note_on_c, 1, 62, 100
3, 30480, Note_on_c, 1, 62, 0
3, 30480, Note_on_c, 1, 57, 100
3, 30720, Note_on_c, 1, 57, 0
3, 30720, Note_on_c, 1, 64, 100
3, 30960, Note_on_c, 1, 64, 0
3, 30960, Note_on_c, 1, 62, 100
3, 31200, Note_on_c, 1, 62, 0
3, 31200, Note_on_c, 1, 62, 100
3, 31260, Note_on_c, 1, 62, 0
3, 31260, Note_on_c, 1, 60, 100
3, 31320, Note_on_c, 1, 60, 0
3, 31320, Note_on_c, 1, 59, 100
3, 31380, Note_on_c, 1, 59, 0
3, 31380, Note_on_c, 1, 57, 100
3, 31440, Note_on_c, 1, 57, 0
3, 31440, Note_on_c, 1, 59, 100
3, 31680, Note_on_c, 1, 59, 0
3, 31680, Note_on_c, 1, 60, 100
3, 31920, Note_on_c, 1, 60, 0
3, 31920, Note_on_c, 1, 55, 100
3, 31980, Note_on_c, 1, 55, 0
3, 31980, Note_on_c, 1, 57, 100
3, 32040, Note_on_c, 1, 57, 0
3, 32040, Note_on_c, 1, 58, 100
3, 32100, Note_on_c, 1, 58, 0
3, 32100, Note_on_c, 1, 59, 100
3, 32160, Note_on_c, 1, 59, 0
3, 32160, Note_on_c, 1, 59, 100
3, 32220, Note_on_c, 1, 59, 0
3, 32220, Note_on_c, 1, 57, 100
3, 32280, Note_on_c, 1, 57, 0
3, 32280, Note_on_c, 1, 55, 100
3, 32340, Note_on_c, 1, 55, 0
3, 32340, Note_on_c, 1, 54, 100
3, 32400, Note_on_c, 1, 54, 0
3, 32400, Note_on_c, 1, 55, 100
3, 32640, Note_on_c, 1, 55, 0
3, 32760, Note_on_c, 1, 62, 100
3, 32880, Note_on_c, 1, 62, 0
3, 32880, Note_on_c, 1, 64, 100
3, 32940, Note_on_c, 1, 64, 0
3, 32940, Note_on_c, 1, 64, 100
3, 33000, Note_on_c, 1, 64, 0
3, 33000, Note_on_c, 1, 60, 100
3, 33060, Note_on_c, 1, 60, 0
3, 33060, Note_on_c, 1, 60, 100
3, 33120, Note_on_c, 1, 60, 0
3, 33120, Note_on_c, 1, 59, 100
3, 33180, Note_on_c, 1, 59, 0
3, 33180, Note_on_c, 1, 55, 100
3, 33240, Note_on_c, 1, 55, 0
3, 33240, Note_on_c, 1, 59, 100
3, 33300, Note_on_c, 1, 59, 0
3, 33300, Note_on_c, 1, 59, 100
3, 33360, Note_on_c, 1, 59, 0
3, 33360, Note_on_c, 1, 57, 100
3, 33420, Note_on_c, 1, 57, 0
3, 33420, Note_on_c, 1, 54, 100
3, 33480, Note_on_c, 1, 54, 0
3, 33480, Note_on_c, 1, 57, 100
3, 33540, Note_on_c, 1, 57, 0
3, 33540, Note_on_c, 1, 57, 100
3, 33600, Note_on_c, 1, 57, 0
3, 33600, Note_on_c, 1, 59, 100
3, 33720, Note_on_c, 1, 59, 0
3, 33780, Note_on_c, 1, 59, 100
3, 33840, Note_on_c, 1, 59, 0
3, 33840, Note_on_c, 1, 60, 100
3, 33900, Note_on_c, 1, 60, 0
3, 33900, Note_on_c, 1, 60, 100
3, 33960, Note_on_c, 1, 60, 0
3, 33960, Note_on_c, 1, 57, 100
3, 34020, Note_on_c, 1, 57, 0
3, 34020, Note_on_c, 1, 57, 100
3, 34080, Note_on_c, 1, 57, 0
3, 34080, Note_on_c, 1, 55, 100
3, 34140, Note_on_c, 1, 55, 0
3, 34140, Note_on_c, 1, 50, 100
3, 34200, Note_on_c, 1, 50, 0
3, 34200, Note_on_c, 1, 55, 100
3, 34260, Note_on_c, 1, 55, 0
3, 34260, Note_on_c, 1, 55, 100
3, 34320, Note_on_c, 1, 55, 0
3, 34320, Note_on_c, 1, 54, 100
3, 34380, Note_on_c, 1, 54, 0
3, 34380, Note_on_c, 1, 50, 100
3, 34440, Note_on_c, 1, 50, 0
3, 34440, Note_on_c, 1, 54, 100
3, 34500, Note_on_c, 1, 54, 0
3, 34500, Note_on_c, 1, 54, 100
3, 34560, Note_on_c, 1, 54, 0
3, 34560, Note_on_c, 1, 55, 100
3, 34680, Note_on_c, 1, 55, 0
3, 34920, Note_on_c, 1, 50, 100
3, 35040, Note_on_c, 1, 50, 0
3, 35040, Note_on_c, 1, 55, 100
3, 35160, Note_on_c, 1, 55, 0
3, 35160, Note_on_c, 1, 55, 100
3, 35220, Note_on_c, 1, 55, 0
3, 35220, Note_on_c, 1, 55, 100
3, 35280, Note_on_c, 1, 55, 0
3, 35280, Note_on_c, 1, 50, 100
3, 35340, Note_on_c, 1, 50, 0
3, 35340, Note_on_c, 1, 50, 100
3, 35400, Note_on_c, 1, 50, 0
3, 35400, Note_on_c, 1, 47, 100
3, 35460, Note_on_c, 1, 47, 0
3, 35460, Note_on_c, 1, 47, 100
3, 35520, Note_on_c, 1, 47, 0
3, 35520, Note_on_c, 1, 43, 100
3, 35640, Note_on_c, 1, 43, 0
3, 35640, Note_on_c, 1, 50, 100
3, 35645, Note_on_c, 1, 59, 100
3, 35650, Note_on_c, 1, 62, 100
3, 35655, Note_on_c, 1, 67, 100
3, 35760, Note_on_c, 1, 50, 0
3, 35760, Note_on_c, 1, 50, 100
3, 35765, Note_on_c, 1, 59, 0
3, 35765, Note_on_c, 1, 59, 100
3, 35770, Note_on_c, 1, 62, 0
3, 35770, Note_on_c, 1, 62, 100
3, 35775, Note_on_c, 1, 67, 0
3, 35775, Note_on_c, 1, 67, 100
3, 35880, Note_on_c, 1, 50, 0
3, 35880, Note_on_c, 1, 62, 100
3, 35885, Note_on_c, 1, 59, 0
3, 35890, Note_on_c, 1, 62, 0
3, 35895, Note_on_c, 1, 67, 0
3, 36000, Note_on_c, 1, 62, 0
3, 36000, Note_on_c, 1, 59, 100
3, 36120, Note_on_c, 1, 59, 0
3, 36120, Note_on_c, 1, 55, 100
3, 36240, Note_on_c, 1, 55, 0
3, 36240, Note_on_c, 1, 50, 100
3, 36480, Note_on_c, 1, 50, 0
3, 36480, Note_on_c, 1, 55, 100
3, 36960, Note_on_c, 1, 55, 0
3, 36960, End_track
4, 0, Start_track
4, 0, MIDI_port, 0
4, 0, Title_t, "1st echo"
4, 0, Program_c, 2, 24
4, 0, Control_c, 2, 7, 60
4, 0, Control_c, 2, 10, 0
4, 0, Control_c, 2, 93, 70
4, 0, Control_c, 2, 91, 45
4, 0, Control_c, 2, 11, 127
4, 0, Control_c, 2, 1, 0
4, 0, Pitch_bend_c, 2, 8192
4, 920, Note_on_c, 2, 62, 100
4, 1040, Note_on_c, 2, 62, 0
4, 1040, Note_on_c, 2, 67, 100
4, 1280, Note_on_c, 2, 67, 0
4, 1280, Note_on_c, 2, 62, 100
4, 1400, Note_on_c, 2, 62, 0
4, 1400, Note_on_c, 2, 59, 100
4, 1520, Note_on_c, 2, 59, 0
4, 1520, Note_on_c, 2, 55, 100
4, 1640, Note_on_c, 2, 55, 0
4, 1640, Note_on_c, 2, 50, 100
4, 1645, Note_on_c, 2, 55, 100
4, 1650, Note_on_c, 2, 59, 100
4, 1655, Note_on_c, 2, 67, 100
4, 1760, Note_on_c, 2, 50, 0
4, 1760, Note_on_c, 2, 50, 100
4, 1765, Note_on_c, 2, 55, 0
4, 1765, Note_on_c, 2, 55, 100
4, 1770, Note_on_c, 2, 59, 0
4, 1770, Note_on_c, 2, 59, 100
4, 1775, Note_on_c, 2, 67, 0
4, 1775, Note_on_c, 2, 67, 100
4, 1880, Note_on_c, 2, 50, 0
4, 1880, Note_on_c, 2, 74, 100
4, 1885, Note_on_c, 2, 55, 0
4, 1890, Note_on_c, 2, 59, 0
4, 1895, Note_on_c, 2, 67, 0
4, 2000, Note_on_c, 2, 74, 0
4, 2000, Note_on_c, 2, 71, 100
4, 2060, Note_on_c, 2, 71, 0
4, 2060, Note_on_c, 2, 71, 100
4, 2120, Note_on_c, 2, 71, 0
4, 2120, Note_on_c, 2, 67, 100
4, 2180, Note_on_c, 2, 67, 0
4, 2180, Note_on_c, 2, 67, 100
4, 2240, Note_on_c, 2, 67, 0
4, 2240, Note_on_c, 2, 62, 100
4, 2300, Note_on_c, 2, 62, 0
4, 2300, Note_on_c, 2, 62, 100
4, 2360, Note_on_c, 2, 62, 0
4, 2360, Note_on_c, 2, 62, 100
4, 2480, Note_on_c, 2, 62, 0
4, 2480, Note_on_c, 2, 67, 100
4, 2600, Note_on_c, 2, 67, 0
4, 2840, Note_on_c, 2, 62, 100
4, 2960, Note_on_c, 2, 62, 0
4, 2960, Note_on_c, 2, 64, 100
4, 3020, Note_on_c, 2, 64, 0
4, 3020, Note_on_c, 2, 64, 100
4, 3080, Note_on_c, 2, 64, 0
4, 3080, Note_on_c, 2, 67, 100
4, 3140, Note_on_c, 2, 67, 0
4, 3140, Note_on_c, 2, 64, 100
4, 3200, Note_on_c, 2, 64, 0
4, 3200, Note_on_c, 2, 62, 100
4, 3260, Note_on_c, 2, 62, 0
4, 3260, Note_on_c, 2, 62, 100
4, 3320, Note_on_c, 2, 62, 0
4, 3320, Note_on_c, 2, 67, 100
4, 3380, Note_on_c, 2, 67, 0
4, 3380, Note_on_c, 2, 62, 100
4, 3440, Note_on_c, 2, 62, 0
4, 3440, Note_on_c, 2, 60, 100
4, 3500, Note_on_c, 2, 60, 0
4, 3500, Note_on_c, 2, 60, 100
4, 3560, Note_on_c, 2, 60, 0
4, 3560, Note_on_c, 2, 57, 100
4, 3620, Note_on_c, 2, 57, 0
4, 3620, Note_on_c, 2, 57, 100
4, 3680, Note_on_c, 2, 57, 0
4, 3680, Note_on_c, 2, 59, 100
4, 3740, Note_on_c, 2, 59, 0
4, 3800, Note_on_c, 2, 59, 100
4, 3920, Note_on_c, 2, 59, 0
4, 3920, Note_on_c, 2, 60, 100
4, 3980, Note_on_c, 2, 60, 0
4, 3980, Note_on_c, 2, 60, 100
4, 4040, Note_on_c, 2, 60, 0
4, 4040, Note_on_c, 2, 64, 100
4, 4100, Note_on_c, 2, 64, 0
4, 4100, Note_on_c, 2, 60, 100
4, 4160, Note_on_c, 2, 60, 0
4, 4160, Note_on_c, 2, 59, 100
4, 4220, Note_on_c, 2, 59, 0
4, 4220, Note_on_c, 2, 59, 100
4, 4280, Note_on_c, 2, 59, 0
4, 4280, Note_on_c, 2, 62, 100
4, 4340, Note_on_c, 2, 62, 0
4, 4340, Note_on_c, 2, 59, 100
4, 4400, Note_on_c, 2, 59, 0
4, 4400, Note_on_c, 2, 57, 100
4, 4460, Note_on_c, 2, 57, 0
4, 4460, Note_on_c, 2, 57, 100
4, 4520, Note_on_c, 2, 57, 0
4, 4520, Note_on_c, 2, 54, 100
4, 4580, Note_on_c, 2, 54, 0
4, 4580, Note_on_c, 2, 54, 100
4, 4640, Note_on_c, 2, 54, 0
4, 4640, Note_on_c, 2, 55, 100
4, 4760, Note_on_c, 2, 55, 0
4, 4880, Note_on_c, 2, 62, 100
4, 5120, Note_on_c, 2, 62, 0
4, 5120, Note_on_c, 2, 64, 100
4, 5180, Note_on_c, 2, 64, 0
4, 5180, Note_on_c, 2, 62, 100
4, 5240, Note_on_c, 2, 62, 0
4, 5240, Note_on_c, 2, 60, 100
4, 5300, Note_on_c, 2, 60, 0
4, 5300, Note_on_c, 2, 59, 100
4, 5360, Note_on_c, 2, 59, 0
4, 5360, Note_on_c, 2, 59, 100
4, 5420, Note_on_c, 2, 59, 0
4, 5420, Note_on_c, 2, 60, 100
4, 5480, Note_on_c, 2, 60, 0
4, 5480, Note_on_c, 2, 61, 100
4, 5540, Note_on_c, 2, 61, 0
4, 5540, Note_on_c, 2, 62, 100
4, 5600, Note_on_c, 2, 62, 0
4, 5600, Note_on_c, 2, 57, 100
4, 5840, Note_on_c, 2, 57, 0
4, 5840, Note_on_c, 2, 59, 100
4, 6080, Note_on_c, 2, 59, 0
4, 6080, Note_on_c, 2, 60, 100
4, 6140, Note_on_c, 2, 60, 0
4, 6140, Note_on_c, 2, 59, 100
4, 6200, Note_on_c, 2, 59, 0
4, 6200, Note_on_c, 2, 57, 100
4, 6260, Note_on_c, 2, 57, 0
4, 6260, Note_on_c, 2, 55, 100
4, 6320, Note_on_c, 2, 55, 0
4, 6320, Note_on_c, 2, 55, 100
4, 6560, Note_on_c, 2, 55, 0
4, 6560, Note_on_c, 2, 54, 100
4, 6800, Note_on_c, 2, 54, 0
4, 6800, Note_on_c, 2, 59, 100
4, 7040, Note_on_c, 2, 59, 0
4, 7040, Note_on_c, 2, 55, 100
4, 7100, Note_on_c, 2, 55, 0
4, 7100, Note_on_c, 2, 57, 100
4, 7160, Note_on_c, 2, 57, 0
4, 7160, Note_on_c, 2, 58, 100
4, 7220, Note_on_c, 2, 58, 0
4, 7220, Note_on_c, 2, 59, 100
4, 7280, Note_on_c, 2, 59, 0
4, 7280, Note_on_c, 2, 59, 100
4, 7340, Note_on_c, 2, 59, 0
4, 7340, Note_on_c, 2, 57, 100
4, 7400, Note_on_c, 2, 57, 0
4, 7400, Note_on_c, 2, 55, 100
4, 7460, Note_on_c, 2, 55, 0
4, 7460, Note_on_c, 2, 54, 100
4, 7520, Note_on_c, 2, 54, 0
4, 7520, Note_on_c, 2, 55, 100
4, 7760, Note_on_c, 2, 55, 0
4, 7760, Note_on_c, 2, 64, 100
4, 8000, Note_on_c, 2, 64, 0
4, 8000, Note_on_c, 2, 62, 100
4, 8240, Note_on_c, 2, 62, 0
4, 8240, Note_on_c, 2, 62, 100
4, 8300, Note_on_c, 2, 62, 0
4, 8300, Note_on_c, 2, 60, 100
4, 8360, Note_on_c, 2, 60, 0
4, 8360, Note_on_c, 2, 59, 100
4, 8420, Note_on_c, 2, 59, 0
4, 8420, Note_on_c, 2, 57, 100
4, 8480, Note_on_c, 2, 57, 0
4, 8480, Note_on_c, 2, 59, 100
4, 8720, Note_on_c, 2, 59, 0
4, 8840, Note_on_c, 2, 71, 100
4, 8960, Note_on_c, 2, 71, 0
4, 8960, Note_on_c, 2, 72, 100
4, 9020, Note_on_c, 2, 72, 0
4, 9020, Note_on_c, 2, 72, 100
4, 9080, Note_on_c, 2, 72, 0
4, 9080, Note_on_c, 2, 69, 100
4, 9140, Note_on_c, 2, 69, 0
4, 9140, Note_on_c, 2, 69, 100
4, 9200, Note_on_c, 2, 69, 0
4, 9200, Note_on_c, 2, 67, 100
4, 9260, Note_on_c, 2, 67, 0
4, 9260, Note_on_c, 2, 62, 100
4, 9320, Note_on_c, 2, 62, 0
4, 9320, Note_on_c, 2, 67, 100
4, 9380, Note_on_c, 2, 67, 0
4, 9380, Note_on_c, 2, 67, 100
4, 9440, Note_on_c, 2, 67, 0
4, 9440, Note_on_c, 2, 66, 100
4, 9500, Note_on_c, 2, 66, 0
4, 9500, Note_on_c, 2, 62, 100
4, 9560, Note_on_c, 2, 62, 0
4, 9560, Note_on_c, 2, 66, 100
4, 9620, Note_on_c, 2, 66, 0
4, 9620, Note_on_c, 2, 66, 100
4, 9680, Note_on_c, 2, 66, 0
4, 9680, Note_on_c, 2, 67, 100
4, 9800, Note_on_c, 2, 67, 0
4, 9860, Note_on_c, 2, 62, 100
4, 9920, Note_on_c, 2, 62, 0
4, 9920, Note_on_c, 2, 64, 100
4, 9980, Note_on_c, 2, 64, 0
4, 9980, Note_on_c, 2, 64, 100
4, 10040, Note_on_c, 2, 64, 0
4, 10040, Note_on_c, 2, 60, 100
4, 10100, Note_on_c, 2, 60, 0
4, 10100, Note_on_c, 2, 60, 100
4, 10160, Note_on_c, 2, 60, 0
4, 10160, Note_on_c, 2, 59, 100
4, 10220, Note_on_c, 2, 59, 0
4, 10220, Note_on_c, 2, 55, 100
4, 10280, Note_on_c, 2, 55, 0
4, 10280, Note_on_c, 2, 59, 100
4, 10340, Note_on_c, 2, 59, 0
4, 10340, Note_on_c, 2, 59, 100
4, 10400, Note_on_c, 2, 59, 0
4, 10400, Note_on_c, 2, 57, 100
4, 10460, Note_on_c, 2, 57, 0
4, 10460, Note_on_c, 2, 54, 100
4, 10520, Note_on_c, 2, 54, 0
4, 10520, Note_on_c, 2, 57, 100
4, 10580, Note_on_c, 2, 57, 0
4, 10580, Note_on_c, 2, 57, 100
4, 10640, Note_on_c, 2, 57, 0
4, 10640, Note_on_c, 2, 59, 100
4, 10760, Note_on_c, 2, 59, 0
4, 10760, Note_on_c, 2, 50, 100
4, 10765, Note_on_c, 2, 55, 100
4, 10770, Note_on_c, 2, 59, 100
4, 10775, Note_on_c, 2, 67, 100
4, 10880, Note_on_c, 2, 50, 0
4, 10880, Note_on_c, 2, 50, 100
4, 10885, Note_on_c, 2, 55, 0
4, 10885, Note_on_c, 2, 55, 100
4, 10890, Note_on_c, 2, 59, 0
4, 10890, Note_on_c, 2, 59, 100
4, 10895, Note_on_c, 2, 67, 0
4, 10895, Note_on_c, 2, 67, 100
4, 11000, Note_on_c, 2, 50, 0
4, 11000, Note_on_c, 2, 62, 100
4, 11005, Note_on_c, 2, 55, 0
4, 11010, Note_on_c, 2, 59, 0
4, 11015, Note_on_c, 2, 67, 0
4, 11120, Note_on_c, 2, 62, 0
4, 11120, Note_on_c, 2, 67, 100
4, 11240, Note_on_c, 2, 67, 0
4, 11240, Note_on_c, 2, 67, 100
4, 11300, Note_on_c, 2, 67, 0
4, 11300, Note_on_c, 2, 67, 100
4, 11360, Note_on_c, 2, 67, 0
4, 11360, Note_on_c, 2, 62, 100
4, 11420, Note_on_c, 2, 62, 0
4, 11420, Note_on_c, 2, 62, 100
4, 11480, Note_on_c, 2, 62, 0
4, 11480, Note_on_c, 2, 59, 100
4, 11540, Note_on_c, 2, 59, 0
4, 11540, Note_on_c, 2, 59, 100
4, 11600, Note_on_c, 2, 59, 0
4, 11600, Note_on_c, 2, 55, 100
4, 11720, Note_on_c, 2, 55, 0
4, 11720, Note_on_c, 2, 50, 100
4, 11725, Note_on_c, 2, 55, 100
4, 11730, Note_on_c, 2, 59, 100
4, 11735, Note_on_c, 2, 67, 100
4, 11840, Note_on_c, 2, 50, 0
4, 11840, Note_on_c, 2, 50, 100
4, 11845, Note_on_c, 2, 55, 0
4, 11845, Note_on_c, 2, 55, 100
4, 11850, Note_on_c, 2, 59, 0
4, 11850, Note_on_c, 2, 59, 100
4, 11855, Note_on_c, 2, 67, 0
4, 11855, Note_on_c, 2, 67, 100
4, 11960, Note_on_c, 2, 50, 0
4, 11960, Note_on_c, 2, 74, 100
4, 11965, Note_on_c, 2, 55, 0
4, 11970, Note_on_c, 2, 59, 0
4, 11975, Note_on_c, 2, 67, 0
4, 12080, Note_on_c, 2, 74, 0
4, 12080, Note_on_c, 2, 71, 100
4, 12200, Note_on_c, 2, 71, 0
4, 12200, Note_on_c, 2, 67, 100
4, 12320, Note_on_c, 2, 67, 0
4, 12320, Note_on_c, 2, 62, 100
4, 12560, Note_on_c, 2, 62, 0
4, 12560, Note_on_c, 2, 67, 100
4, 12680, Note_on_c, 2, 67, 0
4, 12920, Note_on_c, 2, 62, 100
4, 13040, Note_on_c, 2, 62, 0
4, 13040, Note_on_c, 2, 67, 100
4, 13160, Note_on_c, 2, 67, 0
4, 13160, Note_on_c, 2, 71, 100
4, 13280, Note_on_c, 2, 71, 0
4, 13280, Note_on_c, 2, 74, 100
4, 13400, Note_on_c, 2, 74, 0
4, 13400, Note_on_c, 2, 71, 100
4, 13520, Note_on_c, 2, 71, 0
4, 13520, Note_on_c, 2, 67, 100
4, 13760, Note_on_c, 2, 67, 0
4, 13760, Note_on_c, 2, 62, 100
4, 14000, Note_on_c, 2, 62, 0
4, 14000, Note_on_c, 2, 59, 100
4, 14120, Note_on_c, 2, 59, 0
4, 14120, Note_on_c, 2, 55, 100
4, 14240, Note_on_c, 2, 55, 0
4, 14240, Note_on_c, 2, 59, 100
4, 14360, Note_on_c, 2, 59, 0
4, 14360, Note_on_c, 2, 62, 100
4, 14480, Note_on_c, 2, 62, 0
4, 14480, Note_on_c, 2, 67, 100
4, 14600, Note_on_c, 2, 67, 0
4, 14840, Note_on_c, 2, 71, 100
4, 14960, Note_on_c, 2, 71, 0
4, 14960, Note_on_c, 2, 69, 100
4, 15080, Note_on_c, 2, 69, 0
4, 15080, Note_on_c, 2, 67, 100
4, 15320, Note_on_c, 2, 67, 0
4, 15320, Note_on_c, 2, 66, 100
4, 15440, Note_on_c, 2, 66, 0
4, 15440, Note_on_c, 2, 67, 100
4, 15560, Note_on_c, 2, 67, 0
4, 15800, Note_on_c, 2, 62, 100
4, 15920, Note_on_c, 2, 62, 0
4, 15920, Note_on_c, 2, 64, 100
4, 15980, Note_on_c, 2, 64, 0
4, 15980, Note_on_c, 2, 60, 100
4, 16040, Note_on_c, 2, 60, 0
4, 16040, Note_on_c, 2, 55, 100
4, 16280, Note_on_c, 2, 55, 0
4, 16280, Note_on_c, 2, 60, 100
4, 16340, Note_on_c, 2, 60, 0
4, 16340, Note_on_c, 2, 64, 100
4, 16400, Note_on_c, 2, 64, 0
4, 16400, Note_on_c, 2, 62, 100
4, 16460, Note_on_c, 2, 62, 0
4, 16460, Note_on_c, 2, 59, 100
4, 16520, Note_on_c, 2, 59, 0
4, 16520, Note_on_c, 2, 55, 100
4, 16760, Note_on_c, 2, 55, 0
4, 16760, Note_on_c, 2, 59, 100
4, 16820, Note_on_c, 2, 59, 0
4, 16820, Note_on_c, 2, 62, 100
4, 16880, Note_on_c, 2, 62, 0
4, 16880, Note_on_c, 2, 60, 100
4, 16940, Note_on_c, 2, 60, 0
4, 16940, Note_on_c, 2, 60, 100
4, 17000, Note_on_c, 2, 60, 0
4, 17000, Note_on_c, 2, 69, 100
4, 17060, Note_on_c, 2, 69, 0
4, 17060, Note_on_c, 2, 60, 100
4, 17120, Note_on_c, 2, 60, 0
4, 17120, Note_on_c, 2, 59, 100
4, 17180, Note_on_c, 2, 59, 0
4, 17180, Note_on_c, 2, 59, 100
4, 17240, Note_on_c, 2, 59, 0
4, 17240, Note_on_c, 2, 67, 100
4, 17300, Note_on_c, 2, 67, 0
4, 17300, Note_on_c, 2, 59, 100
4, 17360, Note_on_c, 2, 59, 0
4, 17360, Note_on_c, 2, 57, 100
4, 17600, Note_on_c, 2, 57, 0
4, 17600, Note_on_c, 2, 59, 100
4, 17840, Note_on_c, 2, 59, 0
4, 17840, Note_on_c, 2, 60, 100
4, 17900, Note_on_c, 2, 60, 0
4, 17900, Note_on_c, 2, 60, 100
4, 17960, Note_on_c, 2, 60, 0
4, 17960, Note_on_c, 2, 69, 100
4, 18020, Note_on_c, 2, 69, 0
4, 18020, Note_on_c, 2, 60, 100
4, 18080, Note_on_c, 2, 60, 0
4, 18080, Note_on_c, 2, 59, 100
4, 18140, Note_on_c, 2, 59, 0
4, 18140, Note_on_c, 2, 59, 100
4, 18200, Note_on_c, 2, 59, 0
4, 18200, Note_on_c, 2, 67, 100
4, 18260, Note_on_c, 2, 67, 0
4, 18260, Note_on_c, 2, 59, 100
4, 18320, Note_on_c, 2, 59, 0
4, 18320, Note_on_c, 2, 57, 100
4, 18380, Note_on_c, 2, 57, 0
4, 18380, Note_on_c, 2, 54, 100
4, 18440, Note_on_c, 2, 54, 0
4, 18440, Note_on_c, 2, 57, 100
4, 18500, Note_on_c, 2, 57, 0
4, 18500, Note_on_c, 2, 57, 100
4, 18560, Note_on_c, 2, 57, 0
4, 18560, Note_on_c, 2, 57, 100
4, 18800, Note_on_c, 2, 57, 0
4, 18800, Note_on_c, 2, 66, 100
4, 19040, Note_on_c, 2, 66, 0
4, 19040, Note_on_c, 2, 64, 100
4, 19100, Note_on_c, 2, 64, 0
4, 19100, Note_on_c, 2, 64, 100
4, 19160, Note_on_c, 2, 64, 0
4, 19160, Note_on_c, 2, 67, 100
4, 19220, Note_on_c, 2, 67, 0
4, 19220, Note_on_c, 2, 64, 100
4, 19280, Note_on_c, 2, 64, 0
4, 19280, Note_on_c, 2, 62, 100
4, 19340, Note_on_c, 2, 62, 0
4, 19340, Note_on_c, 2, 59, 100
4, 19400, Note_on_c, 2, 59, 0
4, 19400, Note_on_c, 2, 62, 100
4, 19460, Note_on_c, 2, 62, 0
4, 19460, Note_on_c, 2, 62, 100
4, 19520, Note_on_c, 2, 62, 0
4, 19520, Note_on_c, 2, 60, 100
4, 19580, Note_on_c, 2, 60, 0
4, 19580, Note_on_c, 2, 57, 100
4, 19640, Note_on_c, 2, 57, 0
4, 19640, Note_on_c, 2, 60, 100
4, 19700, Note_on_c, 2, 60, 0
4, 19700, Note_on_c, 2, 60, 100
4, 19760, Note_on_c, 2, 60, 0
4, 19760, Note_on_c, 2, 62, 100
4, 19820, Note_on_c, 2, 62, 0
4, 19820, Note_on_c, 2, 62, 100
4, 19880, Note_on_c, 2, 62, 0
4, 19880, Note_on_c, 2, 67, 100
4, 19940, Note_on_c, 2, 67, 0
4, 19940, Note_on_c, 2, 62, 100
4, 20000, Note_on_c, 2, 62, 0
4, 20000, Note_on_c, 2, 64, 100
4, 20060, Note_on_c, 2, 64, 0
4, 20060, Note_on_c, 2, 64, 100
4, 20120, Note_on_c, 2, 64, 0
4, 20120, Note_on_c, 2, 67, 100
4, 20180, Note_on_c, 2, 67, 0
4, 20180, Note_on_c, 2, 64, 100
4, 20240, Note_on_c, 2, 64, 0
4, 20240, Note_on_c, 2, 62, 100
4, 20300, Note_on_c, 2, 62, 0
4, 20300, Note_on_c, 2, 59, 100
4, 20360, Note_on_c, 2, 59, 0
4, 20360, Note_on_c, 2, 62, 100
4, 20420, Note_on_c, 2, 62, 0
4, 20420, Note_on_c, 2, 62, 100
4, 20480, Note_on_c, 2, 62, 0
4, 20480, Note_on_c, 2, 60, 100
4, 20540, Note_on_c, 2, 60, 0
4, 20540, Note_on_c, 2, 57, 100
4, 20600, Note_on_c, 2, 57, 0
4, 20600, Note_on_c, 2, 60, 100
4, 20660, Note_on_c, 2, 60, 0
4, 20660, Note_on_c, 2, 60, 100
4, 20720, Note_on_c, 2, 60, 0
4, 20720, Note_on_c, 2, 59, 100
4, 20840, Note_on_c, 2, 59, 0
4, 20840, Note_on_c, 2, 50, 100
4, 20845, Note_on_c, 2, 55, 100
4, 20850, Note_on_c, 2, 59, 100
4, 20855, Note_on_c, 2, 67, 100
4, 20960, Note_on_c, 2, 50, 0
4, 20960, Note_on_c, 2, 50, 100
4, 20965, Note_on_c, 2, 55, 0
4, 20965, Note_on_c, 2, 55, 100
4, 20970, Note_on_c, 2, 59, 0
4, 20970, Note_on_c, 2, 59, 100
4, 20975, Note_on_c, 2, 67, 0
4, 20975, Note_on_c, 2, 67, 100
4, 21080, Note_on_c, 2, 50, 0
4, 21085, Note_on_c, 2, 55, 0
4, 21090, Note_on_c, 2, 59, 0
4, 21095, Note_on_c, 2, 67, 0
4, 21320, Note_on_c, 2, 50, 100
4, 21325, Note_on_c, 2, 57, 100
4, 21330, Note_on_c, 2, 62, 100
4, 21335, Note_on_c, 2, 66, 100
4, 21440, Note_on_c, 2, 50, 0
4, 21440, Note_on_c, 2, 50, 100
4, 21445, Note_on_c, 2, 57, 0
4, 21445, Note_on_c, 2, 57, 100
4, 21450, Note_on_c, 2, 62, 0
4, 21450, Note_on_c, 2, 62, 100
4, 21455, Note_on_c, 2, 66, 0
4, 21455, Note_on_c, 2, 66, 100
4, 21560, Note_on_c, 2, 50, 0
4, 21565, Note_on_c, 2, 57, 0
4, 21570, Note_on_c, 2, 62, 0
4, 21575, Note_on_c, 2, 66, 0
4, 21800, Note_on_c, 2, 50, 100
4, 21805, Note_on_c, 2, 55, 100
4, 21810, Note_on_c, 2, 59, 100
4, 21815, Note_on_c, 2, 67, 100
4, 21920, Note_on_c, 2, 50, 0
4, 21920, Note_on_c, 2, 50, 100
4, 21925, Note_on_c, 2, 55, 0
4, 21925, Note_on_c, 2, 55, 100
4, 21930, Note_on_c, 2, 59, 0
4, 21930, Note_on_c, 2, 59, 100
4, 21935, Note_on_c, 2, 67, 0
4, 21935, Note_on_c, 2, 67, 100
4, 22040, Note_on_c, 2, 50, 0
4, 22045, Note_on_c, 2, 55, 0
4, 22050, Note_on_c, 2, 59, 0
4, 22055, Note_on_c, 2, 67, 0
4, 22160, Note_on_c, 2, 60, 100
4, 22280, Note_on_c, 2, 60, 0
4, 22280, Note_on_c, 2, 59, 100
4, 22520, Note_on_c, 2, 59, 0
4, 22520, Note_on_c, 2, 57, 100
4, 22640, Note_on_c, 2, 57, 0
4, 22640, Note_on_c, 2, 50, 100
4, 22760, Note_on_c, 2, 50, 0
4, 22760, Note_on_c, 2, 50, 100
4, 22765, Note_on_c, 2, 55, 100
4, 22770, Note_on_c, 2, 59, 100
4, 22775, Note_on_c, 2, 67, 100
4, 22880, Note_on_c, 2, 50, 0
4, 22880, Note_on_c, 2, 50, 100
4, 22885, Note_on_c, 2, 55, 0
4, 22885, Note_on_c, 2, 55, 100
4, 22890, Note_on_c, 2, 59, 0
4, 22890, Note_on_c, 2, 59, 100
4, 22895, Note_on_c, 2, 67, 0
4, 22895, Note_on_c, 2, 67, 100
4, 23000, Note_on_c, 2, 50, 0
4, 23000, Note_on_c, 2, 62, 100
4, 23005, Note_on_c, 2, 55, 0
4, 23010, Note_on_c, 2, 59, 0
4, 23015, Note_on_c, 2, 67, 0
4, 23120, Note_on_c, 2, 62, 0
4, 23120, Note_on_c, 2, 67, 100
4, 23240, Note_on_c, 2, 67, 0
4, 23240, Note_on_c, 2, 71, 100
4, 23360, Note_on_c, 2, 71, 0
4, 23360, Note_on_c, 2, 74, 100
4, 23480, Note_on_c, 2, 74, 0
4, 23480, Note_on_c, 2, 71, 100
4, 23600, Note_on_c, 2, 71, 0
4, 23600, Note_on_c, 2, 67, 100
4, 23840, Note_on_c, 2, 67, 0
4, 23840, Note_on_c, 2, 62, 100
4, 24080, Note_on_c, 2, 62, 0
4, 24080, Note_on_c, 2, 59, 100
4, 24200, Note_on_c, 2, 59, 0
4, 24200, Note_on_c, 2, 55, 100
4, 24320, Note_on_c, 2, 55, 0
4, 24320, Note_on_c, 2, 59, 100
4, 24440, Note_on_c, 2, 59, 0
4, 24440, Note_on_c, 2, 62, 100
4, 24560, Note_on_c, 2, 62, 0
4, 24560, Note_on_c, 2, 67, 100
4, 24680, Note_on_c, 2, 67, 0
4, 24920, Note_on_c, 2, 62, 100
4, 25040, Note_on_c, 2, 62, 0
4, 25040, Note_on_c, 2, 67, 100
4, 25280, Note_on_c, 2, 67, 0
4, 25280, Note_on_c, 2, 62, 100
4, 25400, Note_on_c, 2, 62, 0
4, 25400, Note_on_c, 2, 59, 100
4, 25520, Note_on_c, 2, 59, 0
4, 25520, Note_on_c, 2, 55, 100
4, 25640, Note_on_c, 2, 55, 0
4, 25640, Note_on_c, 2, 50, 100
4, 25645, Note_on_c, 2, 55, 100
4, 25650, Note_on_c, 2, 59, 100
4, 25655, Note_on_c, 2, 67, 100
4, 25760, Note_on_c, 2, 50, 0
4, 25760, Note_on_c, 2, 50, 100
4, 25765, Note_on_c, 2, 55, 0
4, 25765, Note_on_c, 2, 55, 100
4, 25770, Note_on_c, 2, 59, 0
4, 25770, Note_on_c, 2, 59, 100
4, 25775, Note_on_c, 2, 67, 0
4, 25775, Note_on_c, 2, 67, 100
4, 25880, Note_on_c, 2, 50, 0
4, 25880, Note_on_c, 2, 74, 100
4, 25885, Note_on_c, 2, 55, 0
4, 25890, Note_on_c, 2, 59, 0
4, 25895, Note_on_c, 2, 67, 0
4, 26000, Note_on_c, 2, 74, 0
4, 26000, Note_on_c, 2, 71, 100
4, 26060, Note_on_c, 2, 71, 0
4, 26060, Note_on_c, 2, 71, 100
4, 26120, Note_on_c, 2, 71, 0
4, 26120, Note_on_c, 2, 67, 100
4, 26180, Note_on_c, 2, 67, 0
4, 26180, Note_on_c, 2, 67, 100
4, 26240, Note_on_c, 2, 67, 0
4, 26240, Note_on_c, 2, 62, 100
4, 26300, Note_on_c, 2, 62, 0
4, 26300, Note_on_c, 2, 62, 100
4, 26360, Note_on_c, 2, 62, 0
4, 26360, Note_on_c, 2, 62, 100
4, 26480, Note_on_c, 2, 62, 0
4, 26480, Note_on_c, 2, 67, 100
4, 26600, Note_on_c, 2, 67, 0
4, 26840, Note_on_c, 2, 62, 100
4, 26960, Note_on_c, 2, 62, 0
4, 26960, Note_on_c, 2, 64, 100
4, 27020, Note_on_c, 2, 64, 0
4, 27020, Note_on_c, 2, 64, 100
4, 27080, Note_on_c, 2, 64, 0
4, 27080, Note_on_c, 2, 67, 100
4, 27140, Note_on_c, 2, 67, 0
4, 27140, Note_on_c, 2, 64, 100
4, 27200, Note_on_c, 2, 64, 0
4, 27200, Note_on_c, 2, 62, 100
4, 27260, Note_on_c, 2, 62, 0
4, 27260, Note_on_c, 2, 62, 100
4, 27320, Note_on_c, 2, 62, 0
4, 27320, Note_on_c, 2, 67, 100
4, 27380, Note_on_c, 2, 67, 0
4, 27380, Note_on_c, 2, 62, 100
4, 27440, Note_on_c, 2, 62, 0
4, 27440, Note_on_c, 2, 60, 100
4, 27500, Note_on_c, 2, 60, 0
4, 27500, Note_on_c, 2, 60, 100
4, 27560, Note_on_c, 2, 60, 0
4, 27560, Note_on_c, 2, 57, 100
4, 27620, Note_on_c, 2, 57, 0
4, 27620, Note_on_c, 2, 57, 100
4, 27680, Note_on_c, 2, 57, 0
4, 27680, Note_on_c, 2, 59, 100
4, 27740, Note_on_c, 2, 59, 0
4, 27800, Note_on_c, 2, 59, 100
4, 27920, Note_on_c, 2, 59, 0
4, 27920, Note_on_c, 2, 60, 100
4, 27980, Note_on_c, 2, 60, 0
4, 27980, Note_on_c, 2, 60, 100
4, 28040, Note_on_c, 2, 60, 0
4, 28040, Note_on_c, 2, 64, 100
4, 28100, Note_on_c, 2, 64, 0
4, 28100, Note_on_c, 2, 60, 100
4, 28160, Note_on_c, 2, 60, 0
4, 28160, Note_on_c, 2, 59, 100
4, 28220, Note_on_c, 2, 59, 0
4, 28220, Note_on_c, 2, 59, 100
4, 28280, Note_on_c, 2, 59, 0
4, 28280, Note_on_c, 2, 62, 100
4, 28340, Note_on_c, 2, 62, 0
4, 28340, Note_on_c, 2, 59, 100
4, 28400, Note_on_c, 2, 59, 0
4, 28400, Note_on_c, 2, 57, 100
4, 28460, Note_on_c, 2, 57, 0
4, 28460, Note_on_c, 2, 57, 100
4, 28520, Note_on_c, 2, 57, 0
4, 28520, Note_on_c, 2, 54, 100
4, 28580, Note_on_c, 2, 54, 0
4, 28580, Note_on_c, 2, 54, 100
4, 28640, Note_on_c, 2, 54, 0
4, 28640, Note_on_c, 2, 55, 100
4, 28760, Note_on_c, 2, 55, 0
4, 28880, Note_on_c, 2, 62, 100
4, 29120, Note_on_c, 2, 62, 0
4, 29120, Note_on_c, 2, 64, 100
4, 29180, Note_on_c, 2, 64, 0
4, 29180, Note_on_c, 2, 62, 100
4, 29240, Note_on_c, 2, 62, 0
4, 29240, Note_on_c, 2, 60, 100
4, 29300, Note_on_c, 2, 60, 0
4, 29300, Note_on_c, 2, 59, 100
4, 29360, Note_on_c, 2, 59, 0
4, 29360, Note_on_c, 2, 59, 100
4, 29420, Note_on_c, 2, 59, 0
4, 29420, Note_on_c, 2, 60, 100
4, 29480, Note_on_c, 2, 60, 0
4, 29480, Note_on_c, 2, 61, 100
4, 29540, Note_on_c, 2, 61, 0
4, 29540, Note_on_c, 2, 62, 100
4, 29600, Note_on_c, 2, 62, 0
4, 29600, Note_on_c, 2, 57, 100
4, 29840, Note_on_c, 2, 57, 0
4, 29840, Note_on_c, 2, 59, 100
4, 30080, Note_on_c, 2, 59, 0
4, 30080, Note_on_c, 2, 60, 100
4, 30140, Note_on_c, 2, 60, 0
4, 30140, Note_on_c, 2, 59, 100
4, 30200, Note_on_c, 2, 59, 0
4, 30200, Note_on_c, 2, 57, 100
4, 30260, Note_on_c, 2, 57, 0
4, 30260, Note_on_c, 2, 55, 100
4, 30320, Note_on_c, 2, 55, 0
4, 30320, Note_on_c, 2, 55, 100
4, 30560, Note_on_c, 2, 55, 0
4, 30560, Note_on_c, 2, 54, 100
4, 30800, Note_on_c, 2, 54, 0
4, 30800, Note_on_c, 2, 59, 100
4, 31040, Note_on_c, 2, 59, 0
4, 31040, Note_on_c, 2, 55, 100
4, 31100, Note_on_c, 2, 55, 0
4, 31100, Note_on_c, 2, 57, 100
4, 31160, Note_on_c, 2, 57, 0
4, 31160, Note_on_c, 2, 58, 100
4, 31220, Note_on_c, 2, 58, 0
4, 31220, Note_on_c, 2, 59, 100
4, 31280, Note_on_c, 2, 59, 0
4, 31280, Note_on_c, 2, 59, 100
4, 31340, Note_on_c, 2, 59, 0
4, 31340, Note_on_c, 2, 57, 100
4, 31400, Note_on_c, 2, 57, 0
4, 31400, Note_on_c, 2, 55, 100
4, 31460, Note_on_c, 2, 55, 0
4, 31460, Note_on_c, 2, 54, 100
4, 31520, Note_on_c, 2, 54, 0
4, 31520, Note_on_c, 2, 55, 100
4, 31760, Note_on_c, 2, 55, 0
4, 31760, Note_on_c, 2, 64, 100
4, 32000, Note_on_c, 2, 64, 0
4, 32000, Note_on_c, 2, 62, 100
4, 32240, Note_on_c, 2, 62, 0
4, 32240, Note_on_c, 2, 62, 100
4, 32300, Note_on_c, 2, 62, 0
4, 32300, Note_on_c, 2, 60, 100
4, 32360, Note_on_c, 2, 60, 0
4, 32360, Note_on_c, 2, 59, 100
4, 32420, Note_on_c, 2, 59, 0
4, 32420, Note_on_c, 2, 57, 100
4, 32480, Note_on_c, 2, 57, 0
4, 32480, Note_on_c, 2, 59, 100
4, 32720, Note_on_c, 2, 59, 0
4, 32840, Note_on_c, 2, 71, 100
4, 32960, Note_on_c, 2, 71, 0
4, 32960, Note_on_c, 2, 72, 100
4, 33020, Note_on_c, 2, 72, 0
4, 33020, Note_on_c, 2, 72, 100
4, 33080, Note_on_c, 2, 72, 0
4, 33080, Note_on_c, 2, 69, 100
4, 33140, Note_on_c, 2, 69, 0
4, 33140, Note_on_c, 2, 69, 100
4, 33200, Note_on_c, 2, 69, 0
4, 33200, Note_on_c, 2, 67, 100
4, 33260, Note_on_c, 2, 67, 0
4, 33260, Note_on_c, 2, 62, 100
4, 33320, Note_on_c, 2, 62, 0
4, 33320, Note_on_c, 2, 67, 100
4, 33380, Note_on_c, 2, 67, 0
4, 33380, Note_on_c, 2, 67, 100
4, 33440, Note_on_c, 2, 67, 0
4, 33440, Note_on_c, 2, 66, 100
4, 33500, Note_on_c, 2, 66, 0
4, 33500, Note_on_c, 2, 62, 100
4, 33560, Note_on_c, 2, 62, 0
4, 33560, Note_on_c, 2, 66, 100
4, 33620, Note_on_c, 2, 66, 0
4, 33620, Note_on_c, 2, 66, 100
4, 33680, Note_on_c, 2, 66, 0
4, 33680, Note_on_c, 2, 67, 100
4, 33800, Note_on_c, 2, 67, 0
4, 33860, Note_on_c, 2, 55, 100
4, 33920, Note_on_c, 2, 55, 0
4, 33920, Note_on_c, 2, 64, 100
4, 33980, Note_on_c, 2, 64, 0
4, 33980, Note_on_c, 2, 64, 100
4, 34040, Note_on_c, 2, 64, 0
4, 34040, Note_on_c, 2, 60, 100
4, 34100, Note_on_c, 2, 60, 0
4, 34100, Note_on_c, 2, 60, 100
4, 34160, Note_on_c, 2, 60, 0
4, 34160, Note_on_c, 2, 59, 100
4, 34220, Note_on_c, 2, 59, 0
4, 34220, Note_on_c, 2, 55, 100
4, 34280, Note_on_c, 2, 55, 0
4, 34280, Note_on_c, 2, 59, 100
4, 34340, Note_on_c, 2, 59, 0
4, 34340, Note_on_c, 2, 59, 100
4, 34400, Note_on_c, 2, 59, 0
4, 34400, Note_on_c, 2, 57, 100
4, 34460, Note_on_c, 2, 57, 0
4, 34460, Note_on_c, 2, 54, 100
4, 34520, Note_on_c, 2, 54, 0
4, 34520, Note_on_c, 2, 57, 100
4, 34580, Note_on_c, 2, 57, 0
4, 34580, Note_on_c, 2, 57, 100
4, 34640, Note_on_c, 2, 57, 0
4, 34640, Note_on_c, 2, 55, 100
4, 34760, Note_on_c, 2, 55, 0
4, 34760, Note_on_c, 2, 50, 100
4, 34765, Note_on_c, 2, 55, 100
4, 34770, Note_on_c, 2, 59, 100
4, 34775, Note_on_c, 2, 67, 100
4, 34880, Note_on_c, 2, 50, 0
4, 34880, Note_on_c, 2, 50, 100
4, 34885, Note_on_c, 2, 55, 0
4, 34885, Note_on_c, 2, 55, 100
4, 34890, Note_on_c, 2, 59, 0
4, 34890, Note_on_c, 2, 59, 100
4, 34895, Note_on_c, 2, 67, 0
4, 34895, Note_on_c, 2, 67, 100
4, 35000, Note_on_c, 2, 50, 0
4, 35000, Note_on_c, 2, 62, 100
4, 35005, Note_on_c, 2, 55, 0
4, 35010, Note_on_c, 2, 59, 0
4, 35015, Note_on_c, 2, 67, 0
4, 35120, Note_on_c, 2, 62, 0
4, 35120, Note_on_c, 2, 67, 100
4, 35240, Note_on_c, 2, 67, 0
4, 35240, Note_on_c, 2, 67, 100
4, 35300, Note_on_c, 2, 67, 0
4, 35300, Note_on_c, 2, 67, 100
4, 35360, Note_on_c, 2, 67, 0
4, 35360, Note_on_c, 2, 62, 100
4, 35420, Note_on_c, 2, 62, 0
4, 35420, Note_on_c, 2, 62, 100
4, 35480, Note_on_c, 2, 62, 0
4, 35480, Note_on_c, 2, 59, 100
4, 35540, Note_on_c, 2, 59, 0
4, 35540, Note_on_c, 2, 59, 100
4, 35600, Note_on_c, 2, 59, 0
4, 35600, Note_on_c, 2, 55, 100
4, 35720, Note_on_c, 2, 55, 0
4, 35720, Note_on_c, 2, 50, 100
4, 35725, Note_on_c, 2, 55, 100
4, 35730, Note_on_c, 2, 59, 100
4, 35735, Note_on_c, 2, 67, 100
4, 35840, Note_on_c, 2, 50, 0
4, 35840, Note_on_c, 2, 50, 100
4, 35845, Note_on_c, 2, 55, 0
4, 35845, Note_on_c, 2, 55, 100
4, 35850, Note_on_c, 2, 59, 0
4, 35850, Note_on_c, 2, 59, 100
4, 35855, Note_on_c, 2, 67, 0
4, 35855, Note_on_c, 2, 67, 100
4, 35960, Note_on_c, 2, 50, 0
4, 35960, Note_on_c, 2, 74, 100
4, 35965, Note_on_c, 2, 55, 0
4, 35970, Note_on_c, 2, 59, 0
4, 35975, Note_on_c, 2, 67, 0
4, 36080, Note_on_c, 2, 74, 0
4, 36080, Note_on_c, 2, 71, 100
4, 36200, Note_on_c, 2, 71, 0
4, 36200, Note_on_c, 2, 67, 100
4, 36320, Note_on_c, 2, 67, 0
4, 36320, Note_on_c, 2, 62, 100
4, 36560, Note_on_c, 2, 62, 0
4, 36560, Note_on_c, 2, 67, 100
4, 37040, Note_on_c, 2, 67, 0
4, 37040, End_track
5, 0, Start_track
5, 0, MIDI_port, 0
5, 0, Title_t, "2nd echo"
5, 0, Program_c, 3, 24
5, 0, Control_c, 3, 7, 60
5, 0, Control_c, 3, 10, 127
5, 0, Control_c, 3, 93, 70
5, 0, Control_c, 3, 91, 45
5, 0, Control_c, 3, 11, 127
5, 0, Control_c, 3, 1, 0
5, 0, Pitch_bend_c, 3, 8192
5, 920, Note_on_c, 3, 50, 100
5, 1040, Note_on_c, 3, 50, 0
5, 1040, Note_on_c, 3, 55, 100
5, 1280, Note_on_c, 3, 55, 0
5, 1280, Note_on_c, 3, 50, 100
5, 1400, Note_on_c, 3, 50, 0
5, 1400, Note_on_c, 3, 47, 100
5, 1520, Note_on_c, 3, 47, 0
5, 1520, Note_on_c, 3, 43, 100
5, 1640, Note_on_c, 3, 43, 0
5, 1640, Note_on_c, 3, 50, 100
5, 1645, Note_on_c, 3, 59, 100
5, 1650, Note_on_c, 3, 62, 100
5, 1655, Note_on_c, 3, 67, 100
5, 1760, Note_on_c, 3, 50, 0
5, 1760, Note_on_c, 3, 50, 100
5, 1765, Note_on_c, 3, 59, 0
5, 1765, Note_on_c, 3, 59, 100
5, 1770, Note_on_c, 3, 62, 0
5, 1770, Note_on_c, 3, 62, 100
5, 1775, Note_on_c, 3, 67, 0
5, 1775, Note_on_c, 3, 67, 100
5, 1880, Note_on_c, 3, 50, 0
5, 1880, Note_on_c, 3, 62, 100
5, 1885, Note_on_c, 3, 59, 0
5, 1890, Note_on_c, 3, 62, 0
5, 1895, Note_on_c, 3, 67, 0
5, 2000, Note_on_c, 3, 62, 0
5, 2000, Note_on_c, 3, 59, 100
5, 2060, Note_on_c, 3, 59, 0
5, 2060, Note_on_c, 3, 59, 100
5, 2120, Note_on_c, 3, 59, 0
5, 2120, Note_on_c, 3, 55, 100
5, 2180, Note_on_c, 3, 55, 0
5, 2180, Note_on_c, 3, 55, 100
5, 2240, Note_on_c, 3, 55, 0
5, 2240, Note_on_c, 3, 50, 100
5, 2300, Note_on_c, 3, 50, 0
5, 2300, Note_on_c, 3, 50, 100
5, 2360, Note_on_c, 3, 50, 0
5, 2360, Note_on_c, 3, 50, 100
5, 2480, Note_on_c, 3, 50, 0
5, 2480, Note_on_c, 3, 55, 100
5, 2600, Note_on_c, 3, 55, 0
5, 2600, Note_on_c, 3, 50, 100
5, 2605, Note_on_c, 3, 59, 100
5, 2610, Note_on_c, 3, 62, 100
5, 2615, Note_on_c, 3, 67, 100
5, 2720, Note_on_c, 3, 50, 0
5, 2720, Note_on_c, 3, 50, 100
5, 2725, Note_on_c, 3, 59, 0
5, 2725, Note_on_c, 3, 59, 100
5, 2730, Note_on_c, 3, 62, 0
5, 2730, Note_on_c, 3, 62, 100
5, 2735, Note_on_c, 3, 67, 0
5, 2735, Note_on_c, 3, 67, 100
5, 2840, Note_on_c, 3, 50, 0
5, 2840, Note_on_c, 3, 62, 100
5, 2845, Note_on_c, 3, 59, 0
5, 2850, Note_on_c, 3, 62, 0
5, 2855, Note_on_c, 3, 67, 0
5, 2960, Note_on_c, 3, 62, 0
5, 2960, Note_on_c, 3, 60, 100
5, 3020, Note_on_c, 3, 60, 0
5, 3020, Note_on_c, 3, 60, 100
5, 3080, Note_on_c, 3, 60, 0
5, 3080, Note_on_c, 3, 64, 100
5, 3140, Note_on_c, 3, 64, 0
5, 3140, Note_on_c, 3, 60, 100
5, 3200, Note_on_c, 3, 60, 0
5, 3200, Note_on_c, 3, 59, 100
5, 3260, Note_on_c, 3, 59, 0
5, 3260, Note_on_c, 3, 59, 100
5, 3320, Note_on_c, 3, 59, 0
5, 3320, Note_on_c, 3, 62, 100
5, 3380, Note_on_c, 3, 62, 0
5, 3380, Note_on_c, 3, 59, 100
5, 3440, Note_on_c, 3, 59, 0
5, 3440, Note_on_c, 3, 57, 100
5, 3500, Note_on_c, 3, 57, 0
5, 3500, Note_on_c, 3, 57, 100
5, 3560, Note_on_c, 3, 57, 0
5, 3560, Note_on_c, 3, 54, 100
5, 3620, Note_on_c, 3, 54, 0
5, 3620, Note_on_c, 3, 54, 100
5, 3680, Note_on_c, 3, 54, 0
5, 3680, Note_on_c, 3, 62, 100
5, 3740, Note_on_c, 3, 62, 0
5, 3800, Note_on_c, 3, 50, 100
5, 3920, Note_on_c, 3, 50, 0
5, 3920, Note_on_c, 3, 52, 100
5, 3980, Note_on_c, 3, 52, 0
5, 3980, Note_on_c, 3, 52, 100
5, 4040, Note_on_c, 3, 52, 0
5, 4040, Note_on_c, 3, 55, 100
5, 4100, Note_on_c, 3, 55, 0
5, 4100, Note_on_c, 3, 52, 100
5, 4160, Note_on_c, 3, 52, 0
5, 4160, Note_on_c, 3, 50, 100
5, 4220, Note_on_c, 3, 50, 0
5, 4220, Note_on_c, 3, 50, 100
5, 4280, Note_on_c, 3, 50, 0
5, 4280, Note_on_c, 3, 55, 100
5, 4340, Note_on_c, 3, 55, 0
5, 4340, Note_on_c, 3, 50, 100
5, 4400, Note_on_c, 3, 50, 0
5, 4400, Note_on_c, 3, 48, 100
5, 4460, Note_on_c, 3, 48, 0
5, 4460, Note_on_c, 3, 48, 100
5, 4520, Note_on_c, 3, 48, 0
5, 4520, Note_on_c, 3, 45, 100
5, 4580, Note_on_c, 3, 45, 0
5, 4580, Note_on_c, 3, 45, 100
5, 4640, Note_on_c, 3, 45, 0
5, 4640, Note_on_c, 3, 47, 100
5, 4760, Note_on_c, 3, 47, 0
5, 4880, Note_on_c, 3, 59, 100
5, 5120, Note_on_c, 3, 59, 0
5, 5120, Note_on_c, 3, 60, 100
5, 5180, Note_on_c, 3, 60, 0
5, 5180, Note_on_c, 3, 59, 100
5, 5240, Note_on_c, 3, 59, 0
5, 5240, Note_on_c, 3, 57, 100
5, 5300, Note_on_c, 3, 57, 0
5, 5300, Note_on_c, 3, 55, 100
5, 5360, Note_on_c, 3, 55, 0
5, 5360, Note_on_c, 3, 55, 100
5, 5600, Note_on_c, 3, 55, 0
5, 5600, Note_on_c, 3, 54, 100
5, 5840, Note_on_c, 3, 54, 0
5, 5840, Note_on_c, 3, 62, 100
5, 6080, Note_on_c, 3, 62, 0
5, 6080, Note_on_c, 3, 64, 100
5, 6140, Note_on_c, 3, 64, 0
5, 6140, Note_on_c, 3, 62, 100
5, 6200, Note_on_c, 3, 62, 0
5, 6200, Note_on_c, 3, 60, 100
5, 6260, Note_on_c, 3, 60, 0
5, 6260, Note_on_c, 3, 59, 100
5, 6320, Note_on_c, 3, 59, 0
5, 6320, Note_on_c, 3, 59, 100
5, 6380, Note_on_c, 3, 59, 0
5, 6380, Note_on_c, 3, 60, 100
5, 6440, Note_on_c, 3, 60, 0
5, 6440, Note_on_c, 3, 61, 100
5, 6500, Note_on_c, 3, 61, 0
5, 6500, Note_on_c, 3, 62, 100
5, 6560, Note_on_c, 3, 62, 0
5, 6560, Note_on_c, 3, 57, 100
5, 6800, Note_on_c, 3, 57, 0
5, 6800, Note_on_c, 3, 64, 100
5, 7040, Note_on_c, 3, 64, 0
5, 7040, Note_on_c, 3, 62, 100
5, 7280, Note_on_c, 3, 62, 0
5, 7280, Note_on_c, 3, 62, 100
5, 7340, Note_on_c, 3, 62, 0
5, 7340, Note_on_c, 3, 60, 100
5, 7400, Note_on_c, 3, 60, 0
5, 7400, Note_on_c, 3, 59, 100
5, 7460, Note_on_c, 3, 59, 0
5, 7460, Note_on_c, 3, 57, 100
5, 7520, Note_on_c, 3, 57, 0
5, 7520, Note_on_c, 3, 59, 100
5, 7760, Note_on_c, 3, 59, 0
5, 7760, Note_on_c, 3, 60, 100
5, 8000, Note_on_c, 3, 60, 0
5, 8000, Note_on_c, 3, 55, 100
5, 8060, Note_on_c, 3, 55, 0
5, 8060, Note_on_c, 3, 57, 100
5, 8120, Note_on_c, 3, 57, 0
5, 8120, Note_on_c, 3, 58, 100
5, 8180, Note_on_c, 3, 58, 0
5, 8180, Note_on_c, 3, 59, 100
5, 8240, Note_on_c, 3, 59, 0
5, 8240, Note_on_c, 3, 59, 100
5, 8300, Note_on_c, 3, 59, 0
5, 8300, Note_on_c, 3, 57, 100
5, 8360, Note_on_c, 3, 57, 0
5, 8360, Note_on_c, 3, 55, 100
5, 8420, Note_on_c, 3, 55, 0
5, 8420, Note_on_c, 3, 54, 100
5, 8480, Note_on_c, 3, 54, 0
5, 8480, Note_on_c, 3, 55, 100
5, 8720, Note_on_c, 3, 55, 0
5, 8840, Note_on_c, 3, 62, 100
5, 8960, Note_on_c, 3, 62, 0
5, 8960, Note_on_c, 3, 64, 100
5, 9020, Note_on_c, 3, 64, 0
5, 9020, Note_on_c, 3, 64, 100
5, 9080, Note_on_c, 3, 64, 0
5, 9080, Note_on_c, 3, 60, 100
5, 9140, Note_on_c, 3, 60, 0
5, 9140, Note_on_c, 3, 60, 100
5, 9200, Note_on_c, 3, 60, 0
5, 9200, Note_on_c, 3, 59, 100
5, 9260, Note_on_c, 3, 59, 0
5, 9260, Note_on_c, 3, 55, 100
5, 9320, Note_on_c, 3, 55, 0
5, 9320, Note_on_c, 3, 59, 100
5, 9380, Note_on_c, 3, 59, 0
5, 9380, Note_on_c, 3, 59, 100
5, 9440, Note_on_c, 3, 59, 0
5, 9440, Note_on_c, 3, 57, 100
5, 9500, Note_on_c, 3, 57, 0
5, 9500, Note_on_c, 3, 54, 100
5, 9560, Note_on_c, 3, 54, 0
5, 9560, Note_on_c, 3, 57, 100
5, 9620, Note_on_c, 3, 57, 0
5, 9620, Note_on_c, 3, 57, 100
5, 9680, Note_on_c, 3, 57, 0
5, 9680, Note_on_c, 3, 59, 100
5, 9800, Note_on_c, 3, 59, 0
5, 9860, Note_on_c, 3, 59, 100
5, 9920, Note_on_c, 3, 59, 0
5, 9920, Note_on_c, 3, 60, 100
5, 9980, Note_on_c, 3, 60, 0
5, 9980, Note_on_c, 3, 60, 100
5, 10040, Note_on_c, 3, 60, 0
5, 10040, Note_on_c, 3, 57, 100
5, 10100, Note_on_c, 3, 57, 0
5, 10100, Note_on_c, 3, 57, 100
5, 10160, Note_on_c, 3, 57, 0
5, 10160, Note_on_c, 3, 55, 100
5, 10220, Note_on_c, 3, 55, 0
5, 10220, Note_on_c, 3, 50, 100
5, 10280, Note_on_c, 3, 50, 0
5, 10280, Note_on_c, 3, 55, 100
5, 10340, Note_on_c, 3, 55, 0
5, 10340, Note_on_c, 3, 55, 100
5, 10400, Note_on_c, 3, 55, 0
5, 10400, Note_on_c, 3, 54, 100
5, 10460, Note_on_c, 3, 54, 0
5, 10460, Note_on_c, 3, 50, 100
5, 10520, Note_on_c, 3, 50, 0
5, 10520, Note_on_c, 3, 54, 100
5, 10580, Note_on_c, 3, 54, 0
5, 10580, Note_on_c, 3, 54, 100
5, 10640, Note_on_c, 3, 54, 0
5, 10640, Note_on_c, 3, 55, 100
5, 10760, Note_on_c, 3, 55, 0
5, 11000, Note_on_c, 3, 50, 100
5, 11120, Note_on_c, 3, 50, 0
5, 11120, Note_on_c, 3, 55, 100
5, 11240, Note_on_c, 3, 55, 0
5, 11240, Note_on_c, 3, 55, 100
5, 11300, Note_on_c, 3, 55, 0
5, 11300, Note_on_c, 3, 55, 100
5, 11360, Note_on_c, 3, 55, 0
5, 11360, Note_on_c, 3, 50, 100
5, 11420, Note_on_c, 3, 50, 0
5, 11420, Note_on_c, 3, 50, 100
5, 11480, Note_on_c, 3, 50, 0
5, 11480, Note_on_c, 3, 47, 100
5, 11540, Note_on_c, 3, 47, 0
5, 11540, Note_on_c, 3, 47, 100
5, 11600, Note_on_c, 3, 47, 0
5, 11600, Note_on_c, 3, 43, 100
5, 11720, Note_on_c, 3, 43, 0
5, 11720, Note_on_c, 3, 50, 100
5, 11725, Note_on_c, 3, 59, 100
5, 11730, Note_on_c, 3, 62, 100
5, 11735, Note_on_c, 3, 67, 100
5, 11840, Note_on_c, 3, 50, 0
5, 11840, Note_on_c, 3, 50, 100
5, 11845, Note_on_c, 3, 59, 0
5, 11845, Note_on_c, 3, 59, 100
5, 11850, Note_on_c, 3, 62, 0
5, 11850, Note_on_c, 3, 62, 100
5, 11855, Note_on_c, 3, 67, 0
5, 11855, Note_on_c, 3, 67, 100
5, 11960, Note_on_c, 3, 50, 0
5, 11960, Note_on_c, 3, 62, 100
5, 11965, Note_on_c, 3, 59, 0
5, 11970, Note_on_c, 3, 62, 0
5, 11975, Note_on_c, 3, 67, 0
5, 12080, Note_on_c, 3, 62, 0
5, 12080, Note_on_c, 3, 59, 100
5, 12200, Note_on_c, 3, 59, 0
5, 12200, Note_on_c, 3, 55, 100
5, 12320, Note_on_c, 3, 55, 0
5, 12320, Note_on_c, 3, 50, 100
5, 12560, Note_on_c, 3, 50, 0
5, 12560, Note_on_c, 3, 55, 100
5, 12680, Note_on_c, 3, 55, 0
5, 12920, Note_on_c, 3, 50, 100
5, 13040, Note_on_c, 3, 50, 0
5, 13040, Note_on_c, 3, 55, 100
5, 13160, Note_on_c, 3, 55, 0
5, 13160, Note_on_c, 3, 59, 100
5, 13280, Note_on_c, 3, 59, 0
5, 13280, Note_on_c, 3, 62, 100
5, 13400, Note_on_c, 3, 62, 0
5, 13400, Note_on_c, 3, 59, 100
5, 13520, Note_on_c, 3, 59, 0
5, 13520, Note_on_c, 3, 55, 100
5, 13760, Note_on_c, 3, 55, 0
5, 13760, Note_on_c, 3, 50, 100
5, 14000, Note_on_c, 3, 50, 0
5, 14000, Note_on_c, 3, 47, 100
5, 14120, Note_on_c, 3, 47, 0
5, 14120, Note_on_c, 3, 43, 100
5, 14240, Note_on_c, 3, 43, 0
5, 14240, Note_on_c, 3, 47, 100
5, 14360, Note_on_c, 3, 47, 0
5, 14360, Note_on_c, 3, 50, 100
5, 14480, Note_on_c, 3, 50, 0
5, 14480, Note_on_c, 3, 55, 100
5, 14600, Note_on_c, 3, 55, 0
5, 14600, Note_on_c, 3, 50, 100
5, 14605, Note_on_c, 3, 59, 100
5, 14610, Note_on_c, 3, 62, 100
5, 14615, Note_on_c, 3, 67, 100
5, 14720, Note_on_c, 3, 50, 0
5, 14720, Note_on_c, 3, 50, 100
5, 14725, Note_on_c, 3, 59, 0
5, 14725, Note_on_c, 3, 59, 100
5, 14730, Note_on_c, 3, 62, 0
5, 14730, Note_on_c, 3, 62, 100
5, 14735, Note_on_c, 3, 67, 0
5, 14735, Note_on_c, 3, 67, 100
5, 14840, Note_on_c, 3, 50, 0
5, 14840, Note_on_c, 3, 67, 100
5, 14845, Note_on_c, 3, 59, 0
5, 14850, Note_on_c, 3, 62, 0
5, 14855, Note_on_c, 3, 67, 0
5, 14960, Note_on_c, 3, 67, 0
5, 14960, Note_on_c, 3, 60, 100
5, 15080, Note_on_c, 3, 60, 0
5, 15080, Note_on_c, 3, 59, 100
5, 15320, Note_on_c, 3, 59, 0
5, 15320, Note_on_c, 3, 57, 100
5, 15440, Note_on_c, 3, 57, 0
5, 15560, Note_on_c, 3, 50, 100
5, 15565, Note_on_c, 3, 59, 100
5, 15570, Note_on_c, 3, 62, 100
5, 15575, Note_on_c, 3, 67, 100
5, 15680, Note_on_c, 3, 50, 0
5, 15680, Note_on_c, 3, 50, 100
5, 15685, Note_on_c, 3, 59, 0
5, 15685, Note_on_c, 3, 59, 100
5, 15690, Note_on_c, 3, 62, 0
5, 15690, Note_on_c, 3, 62, 100
5, 15695, Note_on_c, 3, 67, 0
5, 15695, Note_on_c, 3, 67, 100
5, 15800, Note_on_c, 3, 50, 0
5, 15805, Note_on_c, 3, 59, 0
5, 15810, Note_on_c, 3, 62, 0
5, 15815, Note_on_c, 3, 67, 0
5, 16040, Note_on_c, 3, 52, 100
5, 16045, Note_on_c, 3, 55, 100
5, 16050, Note_on_c, 3, 60, 100
5, 16055, Note_on_c, 3, 67, 100
5, 16160, Note_on_c, 3, 52, 0
5, 16160, Note_on_c, 3, 52, 100
5, 16165, Note_on_c, 3, 55, 0
5, 16165, Note_on_c, 3, 55, 100
5, 16170, Note_on_c, 3, 60, 0
5, 16170, Note_on_c, 3, 60, 100
5, 16175, Note_on_c, 3, 67, 0
5, 16175, Note_on_c, 3, 67, 100
5, 16280, Note_on_c, 3, 52, 0
5, 16285, Note_on_c, 3, 55, 0
5, 16290, Note_on_c, 3, 60, 0
5, 16295, Note_on_c, 3, 67, 0
5, 16520, Note_on_c, 3, 50, 100
5, 16525, Note_on_c, 3, 59, 100
5, 16530, Note_on_c, 3, 62, 100
5, 16535, Note_on_c, 3, 67, 100
5, 16640, Note_on_c, 3, 50, 0
5, 16640, Note_on_c, 3, 50, 100
5, 16645, Note_on_c, 3, 59, 0
5, 16645, Note_on_c, 3, 59, 100
5, 16650, Note_on_c, 3, 62, 0
5, 16650, Note_on_c, 3, 62, 100
5, 16655, Note_on_c, 3, 67, 0
5, 16655, Note_on_c, 3, 67, 100
5, 16760, Note_on_c, 3, 50, 0
5, 16760, Note_on_c, 3, 59, 100
5, 16765, Note_on_c, 3, 59, 0
5, 16770, Note_on_c, 3, 62, 0
5, 16775, Note_on_c, 3, 67, 0
5, 16880, Note_on_c, 3, 59, 0
5, 16880, Note_on_c, 3, 57, 100
5, 16940, Note_on_c, 3, 57, 0
5, 16940, Note_on_c, 3, 57, 100
5, 17000, Note_on_c, 3, 57, 0
5, 17000, Note_on_c, 3, 60, 100
5, 17060, Note_on_c, 3, 60, 0
5, 17060, Note_on_c, 3, 57, 100
5, 17120, Note_on_c, 3, 57, 0
5, 17120, Note_on_c, 3, 55, 100
5, 17180, Note_on_c, 3, 55, 0
5, 17180, Note_on_c, 3, 55, 100
5, 17240, Note_on_c, 3, 55, 0
5, 17240, Note_on_c, 3, 59, 100
5, 17300, Note_on_c, 3, 59, 0
5, 17300, Note_on_c, 3, 55, 100
5, 17360, Note_on_c, 3, 55, 0
5, 17360, Note_on_c, 3, 54, 100
5, 17420, Note_on_c, 3, 54, 0
5, 17420, Note_on_c, 3, 50, 100
5, 17480, Note_on_c, 3, 50, 0
5, 17480, Note_on_c, 3, 54, 100
5, 17540, Note_on_c, 3, 54, 0
5, 17540, Note_on_c, 3, 54, 100
5, 17600, Note_on_c, 3, 54, 0
5, 17600, Note_on_c, 3, 55, 100
5, 17660, Note_on_c, 3, 55, 0
5, 17660, Note_on_c, 3, 50, 100
5, 17720, Note_on_c, 3, 50, 0
5, 17720, Note_on_c, 3, 55, 100
5, 17780, Note_on_c, 3, 55, 0
5, 17780, Note_on_c, 3, 55, 100
5, 17840, Note_on_c, 3, 55, 0
5, 17840, Note_on_c, 3, 57, 100
5, 17900, Note_on_c, 3, 57, 0
5, 17900, Note_on_c, 3, 57, 100
5, 17960, Note_on_c, 3, 57, 0
5, 17960, Note_on_c, 3, 60, 100
5, 18020, Note_on_c, 3, 60, 0
5, 18020, Note_on_c, 3, 57, 100
5, 18080, Note_on_c, 3, 57, 0
5, 18080, Note_on_c, 3, 55, 100
5, 18140, Note_on_c, 3, 55, 0
5, 18140, Note_on_c, 3, 55, 100
5, 18200, Note_on_c, 3, 55, 0
5, 18200, Note_on_c, 3, 59, 100
5, 18260, Note_on_c, 3, 59, 0
5, 18260, Note_on_c, 3, 55, 100
5, 18320, Note_on_c, 3, 55, 0
5, 18320, Note_on_c, 3, 54, 100
5, 18380, Note_on_c, 3, 54, 0
5, 18380, Note_on_c, 3, 50, 100
5, 18440, Note_on_c, 3, 50, 0
5, 18440, Note_on_c, 3, 54, 100
5, 18500, Note_on_c, 3, 54, 0
5, 18500, Note_on_c, 3, 54, 100
5, 18560, Note_on_c, 3, 54, 0
5, 18560, Note_on_c, 3, 50, 100
5, 18800, Note_on_c, 3, 50, 0
5, 18800, Note_on_c, 3, 60, 100
5, 19040, Note_on_c, 3, 60, 0
5, 19040, Note_on_c, 3, 60, 100
5, 19100, Note_on_c, 3, 60, 0
5, 19100, Note_on_c, 3, 60, 100
5, 19160, Note_on_c, 3, 60, 0
5, 19160, Note_on_c, 3, 64, 100
5, 19220, Note_on_c, 3, 64, 0
5, 19220, Note_on_c, 3, 60, 100
5, 19280, Note_on_c, 3, 60, 0
5, 19280, Note_on_c, 3, 59, 100
5, 19340, Note_on_c, 3, 59, 0
5, 19340, Note_on_c, 3, 50, 100
5, 19400, Note_on_c, 3, 50, 0
5, 19400, Note_on_c, 3, 59, 100
5, 19460, Note_on_c, 3, 59, 0
5, 19460, Note_on_c, 3, 59, 100
5, 19520, Note_on_c, 3, 59, 0
5, 19520, Note_on_c, 3, 57, 100
5, 19580, Note_on_c, 3, 57, 0
5, 19580, Note_on_c, 3, 48, 100
5, 19640, Note_on_c, 3, 48, 0
5, 19640, Note_on_c, 3, 57, 100
5, 19700, Note_on_c, 3, 57, 0
5, 19700, Note_on_c, 3, 57, 100
5, 19760, Note_on_c, 3, 57, 0
5, 19760, Note_on_c, 3, 59, 100
5, 20000, Note_on_c, 3, 59, 0
5, 20000, Note_on_c, 3, 60, 100
5, 20240, Note_on_c, 3, 60, 0
5, 20240, Note_on_c, 3, 59, 100
5, 20300, Note_on_c, 3, 59, 0
5, 20300, Note_on_c, 3, 50, 100
5, 20360, Note_on_c, 3, 50, 0
5, 20360, Note_on_c, 3, 59, 100
5, 20420, Note_on_c, 3, 59, 0
5, 20420, Note_on_c, 3, 59, 100
5, 20480, Note_on_c, 3, 59, 0
5, 20480, Note_on_c, 3, 57, 100
5, 20540, Note_on_c, 3, 57, 0
5, 20540, Note_on_c, 3, 48, 100
5, 20600, Note_on_c, 3, 48, 0
5, 20600, Note_on_c, 3, 57, 100
5, 20660, Note_on_c, 3, 57, 0
5, 20660, Note_on_c, 3, 57, 100
5, 20720, Note_on_c, 3, 57, 0
5, 20720, Note_on_c, 3, 55, 100
5, 20780, Note_on_c, 3, 55, 0
5, 20780, Note_on_c, 3, 59, 100
5, 20840, Note_on_c, 3, 59, 0
5, 20840, Note_on_c, 3, 62, 100
5, 21080, Note_on_c, 3, 62, 0
5, 21080, Note_on_c, 3, 59, 100
5, 21140, Note_on_c, 3, 59, 0
5, 21140, Note_on_c, 3, 55, 100
5, 21200, Note_on_c, 3, 55, 0
5, 21200, Note_on_c, 3, 54, 100
5, 21260, Note_on_c, 3, 54, 0
5, 21260, Note_on_c, 3, 57, 100
5, 21320, Note_on_c, 3, 57, 0
5, 21320, Note_on_c, 3, 62, 100
5, 21560, Note_on_c, 3, 62, 0
5, 21560, Note_on_c, 3, 57, 100
5, 21620, Note_on_c, 3, 57, 0
5, 21620, Note_on_c, 3, 54, 100
5, 21680, Note_on_c, 3, 54, 0
5, 21680, Note_on_c, 3, 55, 100
5, 21800, Note_on_c, 3, 55, 0
5, 22040, Note_on_c, 3, 50, 100
5, 22160, Note_on_c, 3, 50, 0
5, 22160, Note_on_c, 3, 52, 100
5, 22280, Note_on_c, 3, 52, 0
5, 22280, Note_on_c, 3, 50, 100
5, 22520, Note_on_c, 3, 50, 0
5, 22520, Note_on_c, 3, 48, 100
5, 22640, Note_on_c, 3, 48, 0
5, 22640, Note_on_c, 3, 47, 100
5, 22760, Note_on_c, 3, 47, 0
5, 23000, Note_on_c, 3, 50, 100
5, 23120, Note_on_c, 3, 50, 0
5, 23120, Note_on_c, 3, 55, 100
5, 23240, Note_on_c, 3, 55, 0
5, 23240, Note_on_c, 3, 59, 100
5, 23360, Note_on_c, 3, 59, 0
5, 23360, Note_on_c, 3, 62, 100
5, 23480, Note_on_c, 3, 62, 0
5, 23480, Note_on_c, 3, 59, 100
5, 23600, Note_on_c, 3, 59, 0
5, 23600, Note_on_c, 3, 55, 100
5, 23840, Note_on_c, 3, 55, 0
5, 23840, Note_on_c, 3, 50, 100
5, 24080, Note_on_c, 3, 50, 0
5, 24080, Note_on_c, 3, 47, 100
5, 24200, Note_on_c, 3, 47, 0
5, 24200, Note_on_c, 3, 43, 100
5, 24320, Note_on_c, 3, 43, 0
5, 24320, Note_on_c, 3, 47, 100
5, 24440, Note_on_c, 3, 47, 0
5, 24440, Note_on_c, 3, 50, 100
5, 24560, Note_on_c, 3, 50, 0
5, 24560, Note_on_c, 3, 55, 100
5, 24680, Note_on_c, 3, 55, 0
5, 24920, Note_on_c, 3, 50, 100
5, 25040, Note_on_c, 3, 50, 0
5, 25040, Note_on_c, 3, 55, 100
5, 25280, Note_on_c, 3, 55, 0
5, 25280, Note_on_c, 3, 50, 100
5, 25400, Note_on_c, 3, 50, 0
5, 25400, Note_on_c, 3, 47, 100
5, 25520, Note_on_c, 3, 47, 0
5, 25520, Note_on_c, 3, 43, 100
5, 25640, Note_on_c, 3, 43, 0
5, 25640, Note_on_c, 3, 50, 100
5, 25645, Note_on_c, 3, 59, 100
5, 25650, Note_on_c, 3, 62, 100
5, 25655, Note_on_c, 3, 67, 100
5, 25760, Note_on_c, 3, 50, 0
5, 25760, Note_on_c, 3, 50, 100
5, 25765, Note_on_c, 3, 59, 0
5, 25765, Note_on_c, 3, 59, 100
5, 25770, Note_on_c, 3, 62, 0
5, 25770, Note_on_c, 3, 62, 100
5, 25775, Note_on_c, 3, 67, 0
5, 25775, Note_on_c, 3, 67, 100
5, 25880, Note_on_c, 3, 50, 0
5, 25880, Note_on_c, 3, 62, 100
5, 25885, Note_on_c, 3, 59, 0
5, 25890, Note_on_c, 3, 62, 0
5, 25895, Note_on_c, 3, 67, 0
5, 26000, Note_on_c, 3, 62, 0
5, 26000, Note_on_c, 3, 59, 100
5, 26060, Note_on_c, 3, 59, 0
5, 26060, Note_on_c, 3, 59, 100
5, 26120, Note_on_c, 3, 59, 0
5, 26120, Note_on_c, 3, 55, 100
5, 26180, Note_on_c, 3, 55, 0
5, 26180, Note_on_c, 3, 55, 100
5, 26240, Note_on_c, 3, 55, 0
5, 26240, Note_on_c, 3, 50, 100
5, 26300, Note_on_c, 3, 50, 0
5, 26300, Note_on_c, 3, 50, 100
5, 26360, Note_on_c, 3, 50, 0
5, 26360, Note_on_c, 3, 50, 100
5, 26480, Note_on_c, 3, 50, 0
5, 26480, Note_on_c, 3, 55, 100
5, 26600, Note_on_c, 3, 55, 0
5, 26600, Note_on_c, 3, 50, 100
5, 26605, Note_on_c, 3, 59, 100
5, 26610, Note_on_c, 3, 62, 100
5, 26615, Note_on_c, 3, 67, 100
5, 26720, Note_on_c, 3, 50, 0
5, 26720, Note_on_c, 3, 50, 100
5, 26725, Note_on_c, 3, 59, 0
5, 26725, Note_on_c, 3, 59, 100
5, 26730, Note_on_c, 3, 62, 0
5, 26730, Note_on_c, 3, 62, 100
5, 26735, Note_on_c, 3, 67, 0
5, 26735, Note_on_c, 3, 67, 100
5, 26840, Note_on_c, 3, 50, 0
5, 26840, Note_on_c, 3, 59, 100
5, 26845, Note_on_c, 3, 59, 0
5, 26850, Note_on_c, 3, 62, 0
5, 26855, Note_on_c, 3, 67, 0
5, 26960, Note_on_c, 3, 59, 0
5, 26960, Note_on_c, 3, 60, 100
5, 27020, Note_on_c, 3, 60, 0
5, 27020, Note_on_c, 3, 60, 100
5, 27080, Note_on_c, 3, 60, 0
5, 27080, Note_on_c, 3, 64, 100
5, 27140, Note_on_c, 3, 64, 0
5, 27140, Note_on_c, 3, 60, 100
5, 27200, Note_on_c, 3, 60, 0
5, 27200, Note_on_c, 3, 59, 100
5, 27260, Note_on_c, 3, 59, 0
5, 27260, Note_on_c, 3, 59, 100
5, 27320, Note_on_c, 3, 59, 0
5, 27320, Note_on_c, 3, 62, 100
5, 27380, Note_on_c, 3, 62, 0
5, 27380, Note_on_c, 3, 59, 100
5, 27440, Note_on_c, 3, 59, 0
5, 27440, Note_on_c, 3, 57, 100
5, 27500, Note_on_c, 3, 57, 0
5, 27500, Note_on_c, 3, 57, 100
5, 27560, Note_on_c, 3, 57, 0
5, 27560, Note_on_c, 3, 54, 100
5, 27620, Note_on_c, 3, 54, 0
5, 27620, Note_on_c, 3, 54, 100
5, 27680, Note_on_c, 3, 54, 0
5, 27680, Note_on_c, 3, 55, 100
5, 27740, Note_on_c, 3, 55, 0
5, 27800, Note_on_c, 3, 50, 100
5, 27920, Note_on_c, 3, 50, 0
5, 27920, Note_on_c, 3, 52, 100
5, 27980, Note_on_c, 3, 52, 0
5, 27980, Note_on_c, 3, 52, 100
5, 28040, Note_on_c, 3, 52, 0
5, 28040, Note_on_c, 3, 55, 100
5, 28100, Note_on_c, 3, 55, 0
5, 28100, Note_on_c, 3, 52, 100
5, 28160, Note_on_c, 3, 52, 0
5, 28160, Note_on_c, 3, 50, 100
5, 28220, Note_on_c, 3, 50, 0
5, 28220, Note_on_c, 3, 50, 100
5, 28280, Note_on_c, 3, 50, 0
5, 28280, Note_on_c, 3, 55, 100
5, 28340, Note_on_c, 3, 55, 0
5, 28340, Note_on_c, 3, 50, 100
5, 28400, Note_on_c, 3, 50, 0
5, 28400, Note_on_c, 3, 48, 100
5, 28460, Note_on_c, 3, 48, 0
5, 28460, Note_on_c, 3, 48, 100
5, 28520, Note_on_c, 3, 48, 0
5, 28520, Note_on_c, 3, 45, 100
5, 28580, Note_on_c, 3, 45, 0
5, 28580, Note_on_c, 3, 45, 100
5, 28640, Note_on_c, 3, 45, 0
5, 28640, Note_on_c, 3, 47, 100
5, 28760, Note_on_c, 3, 47, 0
5, 28880, Note_on_c, 3, 59, 100
5, 29120, Note_on_c, 3, 59, 0
5, 29120, Note_on_c, 3, 60, 100
5, 29180, Note_on_c, 3, 60, 0
5, 29180, Note_on_c, 3, 59, 100
5, 29240, Note_on_c, 3, 59, 0
5, 29240, Note_on_c, 3, 57, 100
5, 29300, Note_on_c, 3, 57, 0
5, 29300, Note_on_c, 3, 55, 100
5, 29360, Note_on_c, 3, 55, 0
5, 29360, Note_on_c, 3, 55, 100
5, 29600, Note_on_c, 3, 55, 0
5, 29600, Note_on_c, 3, 54, 100
5, 29840, Note_on_c, 3, 54, 0
5, 29840, Note_on_c, 3, 62, 100
5, 30080, Note_on_c, 3, 62, 0
5, 30080, Note_on_c, 3, 64, 100
5, 30140, Note_on_c, 3, 64, 0
5, 30140, Note_on_c, 3, 62, 100
5, 30200, Note_on_c, 3, 62, 0
5, 30200, Note_on_c, 3, 60, 100
5, 30260, Note_on_c, 3, 60, 0
5, 30260, Note_on_c, 3, 59, 100
5, 30320, Note_on_c, 3, 59, 0
5, 30320, Note_on_c, 3, 59, 100
5, 30380, Note_on_c, 3, 59, 0
5, 30380, Note_on_c, 3, 60, 100
5, 30440, Note_on_c, 3, 60, 0
5, 30440, Note_on_c, 3, 61, 100
5, 30500, Note_on_c, 3, 61, 0
5, 30500, Note_on_c, 3, 62, 100
5, 30560, Note_on_c, 3, 62, 0
5, 30560, Note_on_c, 3, 57, 100
5, 30800, Note_on_c, 3, 57, 0
5, 30800, Note_on_c, 3, 64, 100
5, 31040, Note_on_c, 3, 64, 0
5, 31040, Note_on_c, 3, 62, 100
5, 31280, Note_on_c, 3, 62, 0
5, 31280, Note_on_c, 3, 62, 100
5, 31340, Note_on_c, 3, 62, 0
5, 31340, Note_on_c, 3, 60, 100
5, 31400, Note_on_c, 3, 60, 0
5, 31400, Note_on_c, 3, 59, 100
5, 31460, Note_on_c, 3, 59, 0
5, 31460, Note_on_c, 3, 57, 100
5, 31520, Note_on_c, 3, 57, 0
5, 31520, Note_on_c, 3, 59, 100
5, 31760, Note_on_c, 3, 59, 0
5, 31760, Note_on_c, 3, 60, 100
5, 32000, Note_on_c, 3, 60, 0
5, 32000, Note_on_c, 3, 55, 100
5, 32060, Note_on_c, 3, 55, 0
5, 32060, Note_on_c, 3, 57, 100
5, 32120, Note_on_c, 3, 57, 0
5, 32120, Note_on_c, 3, 58, 100
5, 32180, Note_on_c, 3, 58, 0
5, 32180, Note_on_c, 3, 59, 100
5, 32240, Note_on_c, 3, 59, 0
5, 32240, Note_on_c, 3, 59, 100
5, 32300, Note_on_c, 3, 59, 0
5, 32300, Note_on_c, 3, 57, 100
5, 32360, Note_on_c, 3, 57, 0
5, 32360, Note_on_c, 3, 55, 100
5, 32420, Note_on_c, 3, 55, 0
5, 32420, Note_on_c, 3, 54, 100
5, 32480, Note_on_c, 3, 54, 0
5, 32480, Note_on_c, 3, 55, 100
5, 32720, Note_on_c, 3, 55, 0
5, 32840, Note_on_c, 3, 62, 100
5, 32960, Note_on_c, 3, 62, 0
5, 32960, Note_on_c, 3, 64, 100
5, 33020, Note_on_c, 3, 64, 0
5, 33020, Note_on_c, 3, 64, 100
5, 33080, Note_on_c, 3, 64, 0
5, 33080, Note_on_c, 3, 60, 100
5, 33140, Note_on_c, 3, 60, 0
5, 33140, Note_on_c, 3, 60, 100
5, 33200, Note_on_c, 3, 60, 0
5, 33200, Note_on_c, 3, 59, 100
5, 33260, Note_on_c, 3, 59, 0
5, 33260, Note_on_c, 3, 55, 100
5, 33320, Note_on_c, 3, 55, 0
5, 33320, Note_on_c, 3, 59, 100
5, 33380, Note_on_c, 3, 59, 0
5, 33380, Note_on_c, 3, 59, 100
5, 33440, Note_on_c, 3, 59, 0
5, 33440, Note_on_c, 3, 57, 100
5, 33500, Note_on_c, 3, 57, 0
5, 33500, Note_on_c, 3, 54, 100
5, 33560, Note_on_c, 3, 54, 0
5, 33560, Note_on_c, 3, 57, 100
5, 33620, Note_on_c, 3, 57, 0
5, 33620, Note_on_c, 3, 57, 100
5, 33680, Note_on_c, 3, 57, 0
5, 33680, Note_on_c, 3, 59, 100
5, 33800, Note_on_c, 3, 59, 0
5, 33860, Note_on_c, 3, 59, 100
5, 33920, Note_on_c, 3, 59, 0
5, 33920, Note_on_c, 3, 60, 100
5, 33980, Note_on_c, 3, 60, 0
5, 33980, Note_on_c, 3, 60, 100
5, 34040, Note_on_c, 3, 60, 0
5, 34040, Note_on_c, 3, 57, 100
5, 34100, Note_on_c, 3, 57, 0
5, 34100, Note_on_c, 3, 57, 100
5, 34160, Note_on_c, 3, 57, 0
5, 34160, Note_on_c, 3, 55, 100
5, 34220, Note_on_c, 3, 55, 0
5, 34220, Note_on_c, 3, 50, 100
5, 34280, Note_on_c, 3, 50, 0
5, 34280, Note_on_c, 3, 55, 100
5, 34340, Note_on_c, 3, 55, 0
5, 34340, Note_on_c, 3, 55, 100
5, 34400, Note_on_c, 3, 55, 0
5, 34400, Note_on_c, 3, 54, 100
5, 34460, Note_on_c, 3, 54, 0
5, 34460, Note_on_c, 3, 50, 100
5, 34520, Note_on_c, 3, 50, 0
5, 34520, Note_on_c, 3, 54, 100
5, 34580, Note_on_c, 3, 54, 0
5, 34580, Note_on_c, 3, 54, 100
5, 34640, Note_on_c, 3, 54, 0
5, 34640, Note_on_c, 3, 55, 100
5, 34760, Note_on_c, 3, 55, 0
5, 35000, Note_on_c, 3, 50, 100
5, 35120, Note_on_c, 3, 50, 0
5, 35120, Note_on_c, 3, 55, 100
5, 35240, Note_on_c, 3, 55, 0
5, 35240, Note_on_c, 3, 55, 100
5, 35300, Note_on_c, 3, 55, 0
5, 35300, Note_on_c, 3, 55, 100
5, 35360, Note_on_c, 3, 55, 0
5, 35360, Note_on_c, 3, 50, 100
5, 35420, Note_on_c, 3, 50, 0
5, 35420, Note_on_c, 3, 50, 100
5, 35480, Note_on_c, 3, 50, 0
5, 35480, Note_on_c, 3, 47, 100
5, 35540, Note_on_c, 3, 47, 0
5, 35540, Note_on_c, 3, 47, 100
5, 35600, Note_on_c, 3, 47, 0
5, 35600, Note_on_c, 3, 43, 100
5, 35720, Note_on_c, 3, 43, 0
5, 35720, Note_on_c, 3, 50, 100
5, 35725, Note_on_c, 3, 59, 100
5, 35730, Note_on_c, 3, 62, 100
5, 35735, Note_on_c, 3, 67, 100
5, 35840, Note_on_c, 3, 50, 0
5, 35840, Note_on_c, 3, 50, 100
5, 35845, Note_on_c, 3, 59, 0
5, 35845, Note_on_c, 3, 59, 100
5, 35850, Note_on_c, 3, 62, 0
5, 35850, Note_on_c, 3, 62, 100
5, 35855, Note_on_c, 3, 67, 0
5, 35855, Note_on_c, 3, 67, 100
5, 35960, Note_on_c, 3, 50, 0
5, 35960, Note_on_c, 3, 62, 100
5, 35965, Note_on_c, 3, 59, 0
5, 35970, Note_on_c, 3, 62, 0
5, 35975, Note_on_c, 3, 67, 0
5, 36080, Note_on_c, 3, 62, 0
5, 36080, Note_on_c, 3, 59, 100
5, 36200, Note_on_c, 3, 59, 0
5, 36200, Note_on_c, 3, 55, 100
5, 36320, Note_on_c, 3, 55, 0
5, 36320, Note_on_c, 3, 50, 100
5, 36560, Note_on_c, 3, 50, 0
5, 36560, Note_on_c, 3, 55, 100
5, 37040, Note_on_c, 3, 55, 0
5, 37040, End_track
6, 0, Start_track
6, 0, MIDI_port, 0
6, 0, Title_t, """Krebsgang"""
6, 0, End_track
7, 0, Start_track
7, 0, MIDI_port, 0
7, 0, Title_t, "by Mozart"
7, 0, End_track
8, 0, Start_track
8, 0, MIDI_port, 0
8, 0, Title_t, "sequenced"
8, 0, End_track
9, 0, Start_track
9, 0, MIDI_port, 0
9, 0, Title_t, "June '96 by"
9, 0, End_track
10, 0, Start_track
10, 0, MIDI_port, 0
10, 0, Title_t, "Metalneck"
10, 0, End_track
11, 0, Start_track
11, 0, MIDI_port, 0
11, 0, Title_t, "Productions"
11, 0, End_track
12, 0, Start_track
12, 0, MIDI_port, 0
12, 0, Title_t, "steve@cybermontage.com"
12, 0, End_track
0, 0, End_of_file
