0, 0, Header, 1, 5, 240
1, 0, Start_track
1, 0, Time_signature, 4, 2, 24, 8
1, 0, Key_signature, 0, "major"
1, 0, Tempo, 419580
1, 79920, Tempo, 434783
1, 80160, Tempo, 447761
1, 80400, Tempo, 465116
1, 80640, Tempo, 480000
1, 80880, Tempo, 500000
1, 81120, Tempo, 517241
1, 81360, Tempo, 540541
1, 81600, Tempo, 566038
1, 81840, Tempo, 588235
1, 82080, Tempo, 645161
1, 82560, Tempo, 681818
1, 82800, Tempo, 714286
1, 83040, Tempo, 759494
1, 83280, Tempo, 800000
1, 83520, Tempo, 545455
1, 86400, Tempo, 419580
1, 87360, Tempo, 545455
1, 92160, Tempo, 419580
1, 92400, Tempo, 437956
1, 92640, Tempo, 458015
1, 92880, Tempo, 480000
1, 93120, Tempo, 504202
1, 93360, Tempo, 530973
1, 93600, Tempo, 566038
1, 93840, Tempo, 600000
1, 94080, Tempo, 638298
1, 94320, Tempo, 681818
1, 94560, Tempo, 731707
1, 94800, Tempo, 789474
1, 94800, End_track
2, 0, Start_track
2, 0, MIDI_port, 0
2, 0, Title_t, "Accomp. Queen of the Night's aria from"
2, 0, Program_c, 1, 48
2, 0, Control_c, 1, 7, 80
2, 0, Control_c, 1, 10, 32
2, 0, Control_c, 1, 91, 101
2, 1920, Note_on_c, 1, 65, 112
2, 1920, Note_on_c, 1, 69, 112
2, 1920, Note_on_c, 1, 74, 112
2, 2016, Note_on_c, 1, 74, 0
2, 2016, Note_on_c, 1, 69, 0
2, 2016, Note_on_c, 1, 65, 0
2, 2160, Note_on_c, 1, 62, 112
2, 2160, Note_on_c, 1, 65, 112
2, 2160, Note_on_c, 1, 69, 112
2, 2256, Note_on_c, 1, 69, 0
2, 2256, Note_on_c, 1, 65, 0
2, 2256, Note_on_c, 1, 62, 0
2, 2400, Note_on_c, 1, 69, 112
2, 2400, Note_on_c, 1, 74, 112
2, 2400, Note_on_c, 1, 77, 112
2, 2496, Note_on_c, 1, 77, 0
2, 2496, Note_on_c, 1, 74, 0
2, 2496, Note_on_c, 1, 69, 0
2, 2640, Note_on_c, 1, 67, 112
2, 2640, Note_on_c, 1, 73, 112
2, 2640, Note_on_c, 1, 76, 112
2, 2736, Note_on_c, 1, 76, 0
2, 2736, Note_on_c, 1, 73, 0
2, 2736, Note_on_c, 1, 67, 0
2, 2880, Note_on_c, 1, 65, 112
2, 2880, Note_on_c, 1, 69, 112
2, 2880, Note_on_c, 1, 74, 112
2, 3072, Note_on_c, 1, 74, 0
2, 3072, Note_on_c, 1, 69, 0
2, 3072, Note_on_c, 1, 65, 0
2, 3360, Note_on_c, 1, 65, 127
2, 3360, Note_on_c, 1, 69, 127
2, 3360, Note_on_c, 1, 74, 127
2, 3360, Note_on_c, 1, 77, 127
2, 3552, Note_on_c, 1, 77, 0
2, 3552, Note_on_c, 1, 65, 0
2, 3552, Note_on_c, 1, 69, 0
2, 3552, Note_on_c, 1, 74, 0
2, 3600, Note_on_c, 1, 76, 96
2, 3648, Note_on_c, 1, 76, 0
2, 3660, Note_on_c, 1, 74, 96
2, 3708, Note_on_c, 1, 74, 0
2, 3720, Note_on_c, 1, 73, 96
2, 3768, Note_on_c, 1, 73, 0
2, 3780, Note_on_c, 1, 74, 96
2, 3828, Note_on_c, 1, 74, 0
2, 3840, Note_on_c, 1, 67, 96
2, 3840, Note_on_c, 1, 70, 96
2, 3840, Note_on_c, 1, 73, 96
2, 4032, Note_on_c, 1, 73, 0
2, 4032, Note_on_c, 1, 70, 0
2, 4032, Note_on_c, 1, 67, 0
2, 4320, Note_on_c, 1, 67, 127
2, 4320, Note_on_c, 1, 70, 127
2, 4320, Note_on_c, 1, 73, 127
2, 4320, Note_on_c, 1, 76, 127
2, 4320, Note_on_c, 1, 79, 127
2, 4512, Note_on_c, 1, 79, 0
2, 4512, Note_on_c, 1, 73, 0
2, 4512, Note_on_c, 1, 67, 0
2, 4512, Note_on_c, 1, 70, 0
2, 4512, Note_on_c, 1, 76, 0
2, 4560, Note_on_c, 1, 77, 96
2, 4608, Note_on_c, 1, 77, 0
2, 4620, Note_on_c, 1, 76, 96
2, 4668, Note_on_c, 1, 76, 0
2, 4680, Note_on_c, 1, 74, 96
2, 4728, Note_on_c, 1, 74, 0
2, 4740, Note_on_c, 1, 76, 96
2, 4788, Note_on_c, 1, 76, 0
2, 4800, Note_on_c, 1, 69, 96
2, 4800, Note_on_c, 1, 74, 96
2, 4992, Note_on_c, 1, 74, 0
2, 4992, Note_on_c, 1, 69, 0
2, 5280, Note_on_c, 1, 69, 127
2, 5280, Note_on_c, 1, 74, 127
2, 5280, Note_on_c, 1, 77, 127
2, 5280, Note_on_c, 1, 81, 127
2, 5472, Note_on_c, 1, 81, 0
2, 5472, Note_on_c, 1, 69, 0
2, 5472, Note_on_c, 1, 74, 0
2, 5472, Note_on_c, 1, 77, 0
2, 5520, Note_on_c, 1, 79, 112
2, 5568, Note_on_c, 1, 79, 0
2, 5580, Note_on_c, 1, 77, 112
2, 5628, Note_on_c, 1, 77, 0
2, 5640, Note_on_c, 1, 76, 112
2, 5688, Note_on_c, 1, 76, 0
2, 5700, Note_on_c, 1, 74, 112
2, 5748, Note_on_c, 1, 74, 0
2, 5760, Note_on_c, 1, 70, 80
2, 5760, Note_on_c, 1, 75, 80
2, 5844, Note_on_c, 1, 75, 0
2, 5844, Note_on_c, 1, 70, 0
2, 5880, Note_on_c, 1, 70, 80
2, 5880, Note_on_c, 1, 75, 80
2, 5964, Note_on_c, 1, 75, 0
2, 5964, Note_on_c, 1, 70, 0
2, 6000, Note_on_c, 1, 70, 80
2, 6000, Note_on_c, 1, 75, 80
2, 6084, Note_on_c, 1, 75, 0
2, 6084, Note_on_c, 1, 70, 0
2, 6120, Note_on_c, 1, 70, 80
2, 6120, Note_on_c, 1, 75, 80
2, 6204, Note_on_c, 1, 75, 0
2, 6204, Note_on_c, 1, 70, 0
2, 6240, Note_on_c, 1, 72, 80
2, 6240, Note_on_c, 1, 78, 80
2, 6324, Note_on_c, 1, 78, 0
2, 6324, Note_on_c, 1, 72, 0
2, 6360, Note_on_c, 1, 72, 80
2, 6360, Note_on_c, 1, 78, 80
2, 6444, Note_on_c, 1, 78, 0
2, 6444, Note_on_c, 1, 72, 0
2, 6480, Note_on_c, 1, 72, 80
2, 6480, Note_on_c, 1, 78, 80
2, 6564, Note_on_c, 1, 78, 0
2, 6564, Note_on_c, 1, 72, 0
2, 6600, Note_on_c, 1, 72, 80
2, 6600, Note_on_c, 1, 78, 80
2, 6684, Note_on_c, 1, 78, 0
2, 6684, Note_on_c, 1, 72, 0
2, 6720, Note_on_c, 1, 74, 80
2, 6720, Note_on_c, 1, 79, 80
2, 6804, Note_on_c, 1, 79, 0
2, 6804, Note_on_c, 1, 74, 0
2, 6840, Note_on_c, 1, 74, 80
2, 6840, Note_on_c, 1, 79, 80
2, 6924, Note_on_c, 1, 79, 0
2, 6924, Note_on_c, 1, 74, 0
2, 6960, Note_on_c, 1, 74, 80
2, 6960, Note_on_c, 1, 81, 80
2, 7044, Note_on_c, 1, 81, 0
2, 7044, Note_on_c, 1, 74, 0
2, 7080, Note_on_c, 1, 74, 80
2, 7080, Note_on_c, 1, 81, 80
2, 7164, Note_on_c, 1, 81, 0
2, 7164, Note_on_c, 1, 74, 0
2, 7200, Note_on_c, 1, 74, 80
2, 7200, Note_on_c, 1, 82, 80
2, 7284, Note_on_c, 1, 82, 0
2, 7284, Note_on_c, 1, 74, 0
2, 7320, Note_on_c, 1, 74, 80
2, 7320, Note_on_c, 1, 82, 80
2, 7524, Note_on_c, 1, 82, 0
2, 7524, Note_on_c, 1, 74, 0
2, 7560, Note_on_c, 1, 74, 80
2, 7560, Note_on_c, 1, 82, 80
2, 7644, Note_on_c, 1, 82, 0
2, 7644, Note_on_c, 1, 74, 0
2, 7680, Note_on_c, 1, 75, 80
2, 7680, Note_on_c, 1, 82, 80
2, 7764, Note_on_c, 1, 82, 0
2, 7764, Note_on_c, 1, 75, 0
2, 7800, Note_on_c, 1, 75, 80
2, 7800, Note_on_c, 1, 82, 80
2, 7884, Note_on_c, 1, 82, 0
2, 7884, Note_on_c, 1, 75, 0
2, 7920, Note_on_c, 1, 70, 80
2, 7920, Note_on_c, 1, 79, 80
2, 8004, Note_on_c, 1, 79, 0
2, 8004, Note_on_c, 1, 70, 0
2, 8040, Note_on_c, 1, 70, 80
2, 8040, Note_on_c, 1, 79, 80
2, 8124, Note_on_c, 1, 79, 0
2, 8124, Note_on_c, 1, 70, 0
2, 8160, Note_on_c, 1, 67, 80
2, 8160, Note_on_c, 1, 75, 80
2, 8244, Note_on_c, 1, 75, 0
2, 8244, Note_on_c, 1, 67, 0
2, 8280, Note_on_c, 1, 67, 80
2, 8280, Note_on_c, 1, 75, 80
2, 8364, Note_on_c, 1, 75, 0
2, 8364, Note_on_c, 1, 67, 0
2, 8400, Note_on_c, 1, 65, 80
2, 8400, Note_on_c, 1, 71, 80
2, 8400, Note_on_c, 1, 74, 80
2, 8484, Note_on_c, 1, 74, 0
2, 8484, Note_on_c, 1, 71, 0
2, 8484, Note_on_c, 1, 65, 0
2, 8520, Note_on_c, 1, 65, 80
2, 8520, Note_on_c, 1, 71, 80
2, 8520, Note_on_c, 1, 74, 80
2, 8604, Note_on_c, 1, 74, 0
2, 8604, Note_on_c, 1, 71, 0
2, 8604, Note_on_c, 1, 65, 0
2, 8640, Note_on_c, 1, 64, 80
2, 8640, Note_on_c, 1, 69, 80
2, 8640, Note_on_c, 1, 73, 80
2, 8736, Note_on_c, 1, 73, 0
2, 8736, Note_on_c, 1, 69, 0
2, 8736, Note_on_c, 1, 64, 0
2, 8880, Note_on_c, 1, 72, 80
2, 9108, Note_on_c, 1, 72, 0
2, 9120, Note_on_c, 1, 70, 90
2, 9120, Note_on_c, 1, 74, 90
2, 9348, Note_on_c, 1, 74, 0
2, 9348, Note_on_c, 1, 70, 0
2, 9360, Note_on_c, 1, 72, 100
2, 9360, Note_on_c, 1, 70, 100
2, 9360, Note_on_c, 1, 76, 100
2, 9588, Note_on_c, 1, 76, 0
2, 9588, Note_on_c, 1, 70, 0
2, 9588, Note_on_c, 1, 72, 0
2, 9600, Note_on_c, 1, 69, 112
2, 9600, Note_on_c, 1, 72, 112
2, 9600, Note_on_c, 1, 77, 112
2, 9744, Note_on_c, 1, 77, 0
2, 9744, Note_on_c, 1, 72, 0
2, 9744, Note_on_c, 1, 69, 0
2, 9840, Note_on_c, 1, 65, 112
2, 9912, Note_on_c, 1, 65, 0
2, 10080, Note_on_c, 1, 69, 112
2, 10152, Note_on_c, 1, 69, 0
2, 10320, Note_on_c, 1, 72, 112
2, 10392, Note_on_c, 1, 72, 0
2, 10560, Note_on_c, 1, 77, 112
2, 10632, Note_on_c, 1, 77, 0
2, 10800, Note_on_c, 1, 69, 112
2, 10872, Note_on_c, 1, 69, 0
2, 11040, Note_on_c, 1, 72, 112
2, 11112, Note_on_c, 1, 72, 0
2, 11280, Note_on_c, 1, 77, 112
2, 11352, Note_on_c, 1, 77, 0
2, 11520, Note_on_c, 1, 81, 112
2, 11634, Note_on_c, 1, 81, 0
2, 11640, Note_on_c, 1, 79, 112
2, 11688, Note_on_c, 1, 79, 0
2, 11760, Note_on_c, 1, 77, 112
2, 11874, Note_on_c, 1, 77, 0
2, 11880, Note_on_c, 1, 76, 112
2, 11928, Note_on_c, 1, 76, 0
2, 12000, Note_on_c, 1, 74, 112
2, 12114, Note_on_c, 1, 74, 0
2, 12120, Note_on_c, 1, 72, 112
2, 12168, Note_on_c, 1, 72, 0
2, 12240, Note_on_c, 1, 70, 112
2, 12354, Note_on_c, 1, 70, 0
2, 12360, Note_on_c, 1, 69, 112
2, 12408, Note_on_c, 1, 69, 0
2, 12480, Note_on_c, 1, 70, 112
2, 12516, Note_on_c, 1, 70, 0
2, 12600, Note_on_c, 1, 67, 112
2, 12636, Note_on_c, 1, 67, 0
2, 12720, Note_on_c, 1, 70, 112
2, 12756, Note_on_c, 1, 70, 0
2, 12840, Note_on_c, 1, 74, 112
2, 12876, Note_on_c, 1, 74, 0
2, 12960, Note_on_c, 1, 79, 112
2, 12996, Note_on_c, 1, 79, 0
2, 13080, Note_on_c, 1, 70, 112
2, 13116, Note_on_c, 1, 70, 0
2, 13200, Note_on_c, 1, 74, 112
2, 13236, Note_on_c, 1, 74, 0
2, 13320, Note_on_c, 1, 79, 112
2, 13356, Note_on_c, 1, 79, 0
2, 13440, Note_on_c, 1, 82, 112
2, 13554, Note_on_c, 1, 82, 0
2, 13560, Note_on_c, 1, 81, 112
2, 13608, Note_on_c, 1, 81, 0
2, 13680, Note_on_c, 1, 79, 112
2, 13794, Note_on_c, 1, 79, 0
2, 13800, Note_on_c, 1, 77, 112
2, 13848, Note_on_c, 1, 77, 0
2, 13920, Note_on_c, 1, 76, 112
2, 14034, Note_on_c, 1, 76, 0
2, 14040, Note_on_c, 1, 74, 112
2, 14088, Note_on_c, 1, 74, 0
2, 14160, Note_on_c, 1, 72, 112
2, 14274, Note_on_c, 1, 72, 0
2, 14280, Note_on_c, 1, 70, 112
2, 14394, Note_on_c, 1, 70, 0
2, 14400, Note_on_c, 1, 69, 112
2, 14472, Note_on_c, 1, 69, 0
2, 14640, Note_on_c, 1, 69, 112
2, 14676, Note_on_c, 1, 69, 0
2, 14760, Note_on_c, 1, 72, 112
2, 14796, Note_on_c, 1, 72, 0
2, 14880, Note_on_c, 1, 77, 112
2, 14916, Note_on_c, 1, 77, 0
2, 15000, Note_on_c, 1, 81, 112
2, 15036, Note_on_c, 1, 81, 0
2, 15120, Note_on_c, 1, 84, 112
2, 15156, Note_on_c, 1, 84, 0
2, 15240, Note_on_c, 1, 77, 112
2, 15276, Note_on_c, 1, 77, 0
2, 15360, Note_on_c, 1, 82, 112
2, 15528, Note_on_c, 1, 82, 0
2, 15600, Note_on_c, 1, 70, 112
2, 15672, Note_on_c, 1, 70, 0
2, 15840, Note_on_c, 1, 74, 112
2, 15912, Note_on_c, 1, 74, 0
2, 16080, Note_on_c, 1, 77, 112
2, 16152, Note_on_c, 1, 77, 0
2, 16320, Note_on_c, 1, 70, 112
2, 16320, Note_on_c, 1, 77, 112
2, 16320, Note_on_c, 1, 82, 112
2, 16368, Note_on_c, 1, 82, 0
2, 16368, Note_on_c, 1, 77, 0
2, 16368, Note_on_c, 1, 70, 0
2, 16440, Note_on_c, 1, 70, 80
2, 16440, Note_on_c, 1, 77, 80
2, 16440, Note_on_c, 1, 82, 80
2, 16488, Note_on_c, 1, 82, 0
2, 16488, Note_on_c, 1, 77, 0
2, 16488, Note_on_c, 1, 70, 0
2, 16560, Note_on_c, 1, 70, 80
2, 16560, Note_on_c, 1, 77, 80
2, 16560, Note_on_c, 1, 82, 80
2, 16608, Note_on_c, 1, 82, 0
2, 16608, Note_on_c, 1, 77, 0
2, 16608, Note_on_c, 1, 70, 0
2, 16680, Note_on_c, 1, 70, 80
2, 16680, Note_on_c, 1, 77, 80
2, 16680, Note_on_c, 1, 82, 80
2, 16728, Note_on_c, 1, 82, 0
2, 16728, Note_on_c, 1, 77, 0
2, 16728, Note_on_c, 1, 70, 0
2, 16800, Note_on_c, 1, 69, 112
2, 16800, Note_on_c, 1, 77, 112
2, 16800, Note_on_c, 1, 81, 112
2, 16848, Note_on_c, 1, 81, 0
2, 16848, Note_on_c, 1, 77, 0
2, 16848, Note_on_c, 1, 69, 0
2, 16920, Note_on_c, 1, 69, 80
2, 16920, Note_on_c, 1, 77, 80
2, 16920, Note_on_c, 1, 81, 80
2, 16968, Note_on_c, 1, 81, 0
2, 16968, Note_on_c, 1, 77, 0
2, 16968, Note_on_c, 1, 69, 0
2, 17040, Note_on_c, 1, 69, 80
2, 17040, Note_on_c, 1, 77, 80
2, 17040, Note_on_c, 1, 81, 80
2, 17088, Note_on_c, 1, 81, 0
2, 17088, Note_on_c, 1, 77, 0
2, 17088, Note_on_c, 1, 69, 0
2, 17160, Note_on_c, 1, 69, 80
2, 17160, Note_on_c, 1, 77, 80
2, 17160, Note_on_c, 1, 81, 80
2, 17208, Note_on_c, 1, 81, 0
2, 17208, Note_on_c, 1, 77, 0
2, 17208, Note_on_c, 1, 69, 0
2, 17280, Note_on_c, 1, 77, 80
2, 17280, Note_on_c, 1, 80, 80
2, 17364, Note_on_c, 1, 80, 0
2, 17364, Note_on_c, 1, 77, 0
2, 17400, Note_on_c, 1, 77, 80
2, 17400, Note_on_c, 1, 80, 80
2, 17484, Note_on_c, 1, 77, 0
2, 17520, Note_on_c, 1, 77, 80
2, 17604, Note_on_c, 1, 77, 0
2, 17604, Note_on_c, 1, 80, 0
2, 17640, Note_on_c, 1, 74, 80
2, 17640, Note_on_c, 1, 77, 80
2, 17724, Note_on_c, 1, 77, 0
2, 17724, Note_on_c, 1, 74, 0
2, 17760, Note_on_c, 1, 77, 96
2, 17760, Note_on_c, 1, 80, 96
2, 17844, Note_on_c, 1, 80, 0
2, 17844, Note_on_c, 1, 77, 0
2, 17880, Note_on_c, 1, 77, 80
2, 17880, Note_on_c, 1, 80, 80
2, 18084, Note_on_c, 1, 80, 0
2, 18084, Note_on_c, 1, 77, 0
2, 18120, Note_on_c, 1, 68, 80
2, 18120, Note_on_c, 1, 77, 80
2, 18204, Note_on_c, 1, 77, 0
2, 18204, Note_on_c, 1, 68, 0
2, 18240, Note_on_c, 1, 67, 80
2, 18240, Note_on_c, 1, 76, 80
2, 18408, Note_on_c, 1, 76, 0
2, 18408, Note_on_c, 1, 67, 0
2, 19200, Note_on_c, 1, 77, 112
2, 19200, Note_on_c, 1, 72, 112
2, 19392, Note_on_c, 1, 72, 0
2, 19392, Note_on_c, 1, 77, 0
2, 19560, Note_on_c, 1, 79, 112
2, 19584, Note_on_c, 1, 79, 0
2, 19590, Note_on_c, 1, 77, 112
2, 19614, Note_on_c, 1, 77, 0
2, 19620, Note_on_c, 1, 76, 112
2, 19644, Note_on_c, 1, 76, 0
2, 19650, Note_on_c, 1, 77, 112
2, 19674, Note_on_c, 1, 77, 0
2, 19680, Note_on_c, 1, 72, 112
2, 19680, Note_on_c, 1, 79, 112
2, 19872, Note_on_c, 1, 79, 0
2, 19872, Note_on_c, 1, 72, 0
2, 20040, Note_on_c, 1, 81, 112
2, 20064, Note_on_c, 1, 81, 0
2, 20070, Note_on_c, 1, 79, 112
2, 20094, Note_on_c, 1, 79, 0
2, 20100, Note_on_c, 1, 77, 112
2, 20124, Note_on_c, 1, 77, 0
2, 20130, Note_on_c, 1, 79, 112
2, 20154, Note_on_c, 1, 79, 0
2, 20160, Note_on_c, 1, 72, 112
2, 20160, Note_on_c, 1, 81, 112
2, 20352, Note_on_c, 1, 81, 0
2, 20352, Note_on_c, 1, 72, 0
2, 21000, Note_on_c, 1, 72, 112
2, 21096, Note_on_c, 1, 72, 0
2, 21120, Note_on_c, 1, 72, 112
2, 21120, Note_on_c, 1, 77, 112
2, 21312, Note_on_c, 1, 77, 0
2, 21312, Note_on_c, 1, 72, 0
2, 21480, Note_on_c, 1, 79, 112
2, 21504, Note_on_c, 1, 79, 0
2, 21510, Note_on_c, 1, 77, 112
2, 21534, Note_on_c, 1, 77, 0
2, 21540, Note_on_c, 1, 76, 112
2, 21564, Note_on_c, 1, 76, 0
2, 21570, Note_on_c, 1, 77, 112
2, 21594, Note_on_c, 1, 77, 0
2, 21600, Note_on_c, 1, 79, 112
2, 21792, Note_on_c, 1, 79, 0
2, 21960, Note_on_c, 1, 81, 112
2, 21984, Note_on_c, 1, 81, 0
2, 21990, Note_on_c, 1, 79, 112
2, 22014, Note_on_c, 1, 79, 0
2, 22020, Note_on_c, 1, 77, 112
2, 22044, Note_on_c, 1, 77, 0
2, 22050, Note_on_c, 1, 79, 112
2, 22074, Note_on_c, 1, 79, 0
2, 22080, Note_on_c, 1, 72, 112
2, 22080, Note_on_c, 1, 81, 112
2, 22116, Note_on_c, 1, 81, 0
2, 22116, Note_on_c, 1, 72, 0
2, 22200, Note_on_c, 1, 81, 80
2, 22200, Note_on_c, 1, 72, 80
2, 22236, Note_on_c, 1, 72, 0
2, 22236, Note_on_c, 1, 81, 0
2, 22320, Note_on_c, 1, 81, 80
2, 22320, Note_on_c, 1, 72, 80
2, 22356, Note_on_c, 1, 72, 0
2, 22356, Note_on_c, 1, 81, 0
2, 22440, Note_on_c, 1, 72, 80
2, 22440, Note_on_c, 1, 81, 80
2, 22476, Note_on_c, 1, 81, 0
2, 22476, Note_on_c, 1, 72, 0
2, 22560, Note_on_c, 1, 72, 80
2, 22560, Note_on_c, 1, 81, 80
2, 22596, Note_on_c, 1, 81, 0
2, 22596, Note_on_c, 1, 72, 0
2, 22680, Note_on_c, 1, 72, 80
2, 22680, Note_on_c, 1, 81, 80
2, 22716, Note_on_c, 1, 81, 0
2, 22716, Note_on_c, 1, 72, 0
2, 22800, Note_on_c, 1, 72, 80
2, 22800, Note_on_c, 1, 81, 80
2, 22836, Note_on_c, 1, 81, 0
2, 22836, Note_on_c, 1, 72, 0
2, 22920, Note_on_c, 1, 72, 80
2, 22920, Note_on_c, 1, 81, 80
2, 22956, Note_on_c, 1, 81, 0
2, 22956, Note_on_c, 1, 72, 0
2, 23040, Note_on_c, 1, 72, 80
2, 23040, Note_on_c, 1, 79, 80
2, 23088, Note_on_c, 1, 79, 0
2, 23088, Note_on_c, 1, 72, 0
2, 23160, Note_on_c, 1, 79, 64
2, 23160, Note_on_c, 1, 84, 64
2, 23208, Note_on_c, 1, 84, 0
2, 23208, Note_on_c, 1, 79, 0
2, 23280, Note_on_c, 1, 79, 64
2, 23280, Note_on_c, 1, 84, 64
2, 23328, Note_on_c, 1, 84, 0
2, 23328, Note_on_c, 1, 79, 0
2, 23400, Note_on_c, 1, 79, 64
2, 23400, Note_on_c, 1, 84, 64
2, 23448, Note_on_c, 1, 84, 0
2, 23448, Note_on_c, 1, 79, 0
2, 23520, Note_on_c, 1, 79, 64
2, 23520, Note_on_c, 1, 84, 64
2, 23568, Note_on_c, 1, 84, 0
2, 23568, Note_on_c, 1, 79, 0
2, 23640, Note_on_c, 1, 79, 64
2, 23640, Note_on_c, 1, 84, 64
2, 23688, Note_on_c, 1, 84, 0
2, 23688, Note_on_c, 1, 79, 0
2, 23760, Note_on_c, 1, 79, 64
2, 23760, Note_on_c, 1, 84, 64
2, 23808, Note_on_c, 1, 84, 0
2, 23808, Note_on_c, 1, 79, 0
2, 23880, Note_on_c, 1, 79, 64
2, 23880, Note_on_c, 1, 84, 64
2, 23928, Note_on_c, 1, 84, 0
2, 23928, Note_on_c, 1, 79, 0
2, 24000, Note_on_c, 1, 81, 80
2, 24000, Note_on_c, 1, 89, 80
2, 24120, Note_on_c, 1, 89, 0
2, 24120, Note_on_c, 1, 81, 0
2, 24120, Note_on_c, 1, 69, 80
2, 24120, Note_on_c, 1, 77, 80
2, 24156, Note_on_c, 1, 77, 0
2, 24156, Note_on_c, 1, 69, 0
2, 24240, Note_on_c, 1, 69, 80
2, 24240, Note_on_c, 1, 77, 80
2, 24276, Note_on_c, 1, 77, 0
2, 24276, Note_on_c, 1, 69, 0
2, 24360, Note_on_c, 1, 69, 80
2, 24360, Note_on_c, 1, 77, 80
2, 24396, Note_on_c, 1, 77, 0
2, 24396, Note_on_c, 1, 69, 0
2, 24480, Note_on_c, 1, 69, 80
2, 24480, Note_on_c, 1, 77, 80
2, 24516, Note_on_c, 1, 77, 0
2, 24516, Note_on_c, 1, 69, 0
2, 24600, Note_on_c, 1, 69, 80
2, 24600, Note_on_c, 1, 77, 80
2, 24636, Note_on_c, 1, 77, 0
2, 24636, Note_on_c, 1, 69, 0
2, 24720, Note_on_c, 1, 69, 80
2, 24720, Note_on_c, 1, 77, 80
2, 24756, Note_on_c, 1, 77, 0
2, 24756, Note_on_c, 1, 69, 0
2, 24840, Note_on_c, 1, 69, 80
2, 24840, Note_on_c, 1, 77, 80
2, 24876, Note_on_c, 1, 77, 0
2, 24876, Note_on_c, 1, 69, 0
2, 24960, Note_on_c, 1, 69, 80
2, 24960, Note_on_c, 1, 76, 80
2, 25080, Note_on_c, 1, 76, 0
2, 25080, Note_on_c, 1, 69, 0
2, 25080, Note_on_c, 1, 76, 64
2, 25080, Note_on_c, 1, 81, 64
2, 25128, Note_on_c, 1, 81, 0
2, 25128, Note_on_c, 1, 76, 0
2, 25200, Note_on_c, 1, 76, 64
2, 25200, Note_on_c, 1, 81, 64
2, 25248, Note_on_c, 1, 81, 0
2, 25248, Note_on_c, 1, 76, 0
2, 25320, Note_on_c, 1, 76, 64
2, 25320, Note_on_c, 1, 81, 64
2, 25368, Note_on_c, 1, 81, 0
2, 25368, Note_on_c, 1, 76, 0
2, 25440, Note_on_c, 1, 76, 64
2, 25440, Note_on_c, 1, 81, 64
2, 25488, Note_on_c, 1, 81, 0
2, 25488, Note_on_c, 1, 76, 0
2, 25560, Note_on_c, 1, 76, 64
2, 25560, Note_on_c, 1, 81, 64
2, 25608, Note_on_c, 1, 81, 0
2, 25608, Note_on_c, 1, 76, 0
2, 25680, Note_on_c, 1, 76, 64
2, 25680, Note_on_c, 1, 81, 64
2, 25728, Note_on_c, 1, 81, 0
2, 25728, Note_on_c, 1, 76, 0
2, 25800, Note_on_c, 1, 76, 64
2, 25800, Note_on_c, 1, 81, 64
2, 25848, Note_on_c, 1, 81, 0
2, 25848, Note_on_c, 1, 76, 0
2, 25920, Note_on_c, 1, 74, 64
2, 25920, Note_on_c, 1, 77, 64
2, 25920, Note_on_c, 1, 86, 64
2, 26040, Note_on_c, 1, 86, 0
2, 26040, Note_on_c, 1, 77, 0
2, 26040, Note_on_c, 1, 74, 0
2, 26040, Note_on_c, 1, 70, 80
2, 26040, Note_on_c, 1, 65, 80
2, 26040, Note_on_c, 1, 74, 80
2, 26076, Note_on_c, 1, 74, 0
2, 26076, Note_on_c, 1, 65, 0
2, 26076, Note_on_c, 1, 70, 0
2, 26160, Note_on_c, 1, 70, 80
2, 26160, Note_on_c, 1, 65, 80
2, 26160, Note_on_c, 1, 74, 80
2, 26196, Note_on_c, 1, 74, 0
2, 26196, Note_on_c, 1, 65, 0
2, 26196, Note_on_c, 1, 70, 0
2, 26280, Note_on_c, 1, 65, 80
2, 26280, Note_on_c, 1, 70, 80
2, 26280, Note_on_c, 1, 74, 80
2, 26316, Note_on_c, 1, 74, 0
2, 26316, Note_on_c, 1, 70, 0
2, 26316, Note_on_c, 1, 65, 0
2, 26400, Note_on_c, 1, 65, 80
2, 26400, Note_on_c, 1, 70, 80
2, 26400, Note_on_c, 1, 74, 80
2, 26436, Note_on_c, 1, 74, 0
2, 26436, Note_on_c, 1, 70, 0
2, 26436, Note_on_c, 1, 65, 0
2, 26520, Note_on_c, 1, 65, 80
2, 26520, Note_on_c, 1, 70, 80
2, 26520, Note_on_c, 1, 74, 80
2, 26556, Note_on_c, 1, 74, 0
2, 26556, Note_on_c, 1, 70, 0
2, 26556, Note_on_c, 1, 65, 0
2, 26640, Note_on_c, 1, 65, 80
2, 26640, Note_on_c, 1, 70, 80
2, 26640, Note_on_c, 1, 74, 80
2, 26676, Note_on_c, 1, 74, 0
2, 26676, Note_on_c, 1, 70, 0
2, 26676, Note_on_c, 1, 65, 0
2, 26760, Note_on_c, 1, 65, 80
2, 26760, Note_on_c, 1, 70, 80
2, 26760, Note_on_c, 1, 74, 80
2, 26796, Note_on_c, 1, 74, 0
2, 26796, Note_on_c, 1, 70, 0
2, 26796, Note_on_c, 1, 65, 0
2, 26880, Note_on_c, 1, 65, 80
2, 26880, Note_on_c, 1, 72, 80
2, 27024, Note_on_c, 1, 72, 0
2, 27024, Note_on_c, 1, 65, 0
2, 27360, Note_on_c, 1, 67, 90
2, 27360, Note_on_c, 1, 72, 90
2, 27504, Note_on_c, 1, 72, 0
2, 27504, Note_on_c, 1, 67, 0
2, 27840, Note_on_c, 1, 72, 100
2, 27840, Note_on_c, 1, 69, 100
2, 27984, Note_on_c, 1, 69, 0
2, 27984, Note_on_c, 1, 72, 0
2, 28320, Note_on_c, 1, 77, 64
2, 28320, Note_on_c, 1, 81, 64
2, 28320, Note_on_c, 1, 84, 64
2, 28416, Note_on_c, 1, 84, 0
2, 28416, Note_on_c, 1, 81, 0
2, 28416, Note_on_c, 1, 77, 0
2, 28560, Note_on_c, 1, 77, 64
2, 28560, Note_on_c, 1, 82, 64
2, 28560, Note_on_c, 1, 86, 64
2, 28656, Note_on_c, 1, 86, 0
2, 28656, Note_on_c, 1, 82, 0
2, 28656, Note_on_c, 1, 77, 0
2, 28800, Note_on_c, 1, 84, 56
2, 28800, Note_on_c, 1, 81, 56
2, 28800, Note_on_c, 1, 77, 56
2, 28992, Note_on_c, 1, 77, 0
2, 28992, Note_on_c, 1, 81, 0
2, 28992, Note_on_c, 1, 84, 0
2, 29280, Note_on_c, 1, 84, 56
2, 29280, Note_on_c, 1, 81, 56
2, 29280, Note_on_c, 1, 77, 56
2, 29376, Note_on_c, 1, 77, 0
2, 29376, Note_on_c, 1, 81, 0
2, 29376, Note_on_c, 1, 84, 0
2, 29520, Note_on_c, 1, 77, 56
2, 29520, Note_on_c, 1, 82, 56
2, 29520, Note_on_c, 1, 86, 56
2, 29616, Note_on_c, 1, 86, 0
2, 29616, Note_on_c, 1, 82, 0
2, 29616, Note_on_c, 1, 77, 0
2, 29760, Note_on_c, 1, 77, 56
2, 29760, Note_on_c, 1, 81, 56
2, 29760, Note_on_c, 1, 84, 56
2, 30000, Note_on_c, 1, 84, 0
2, 30000, Note_on_c, 1, 81, 0
2, 30000, Note_on_c, 1, 77, 0
2, 30240, Note_on_c, 1, 69, 96
2, 30240, Note_on_c, 1, 77, 96
2, 30276, Note_on_c, 1, 77, 0
2, 30276, Note_on_c, 1, 69, 0
2, 30360, Note_on_c, 1, 69, 64
2, 30360, Note_on_c, 1, 77, 64
2, 30396, Note_on_c, 1, 77, 0
2, 30396, Note_on_c, 1, 69, 0
2, 30480, Note_on_c, 1, 69, 64
2, 30480, Note_on_c, 1, 77, 64
2, 30516, Note_on_c, 1, 77, 0
2, 30516, Note_on_c, 1, 69, 0
2, 30600, Note_on_c, 1, 69, 64
2, 30600, Note_on_c, 1, 77, 64
2, 30636, Note_on_c, 1, 77, 0
2, 30636, Note_on_c, 1, 69, 0
2, 30720, Note_on_c, 1, 70, 96
2, 30720, Note_on_c, 1, 74, 96
2, 30720, Note_on_c, 1, 79, 96
2, 30756, Note_on_c, 1, 79, 0
2, 30756, Note_on_c, 1, 74, 0
2, 30756, Note_on_c, 1, 70, 0
2, 30840, Note_on_c, 1, 70, 64
2, 30840, Note_on_c, 1, 74, 64
2, 30840, Note_on_c, 1, 79, 64
2, 30876, Note_on_c, 1, 79, 0
2, 30876, Note_on_c, 1, 74, 0
2, 30876, Note_on_c, 1, 70, 0
2, 30960, Note_on_c, 1, 70, 64
2, 30960, Note_on_c, 1, 74, 64
2, 30960, Note_on_c, 1, 79, 64
2, 30996, Note_on_c, 1, 79, 0
2, 30996, Note_on_c, 1, 74, 0
2, 30996, Note_on_c, 1, 70, 0
2, 31080, Note_on_c, 1, 70, 64
2, 31080, Note_on_c, 1, 74, 64
2, 31080, Note_on_c, 1, 79, 64
2, 31116, Note_on_c, 1, 79, 0
2, 31116, Note_on_c, 1, 74, 0
2, 31116, Note_on_c, 1, 70, 0
2, 31200, Note_on_c, 1, 74, 96
2, 31200, Note_on_c, 1, 79, 96
2, 31200, Note_on_c, 1, 82, 96
2, 31236, Note_on_c, 1, 82, 0
2, 31236, Note_on_c, 1, 79, 0
2, 31236, Note_on_c, 1, 74, 0
2, 31320, Note_on_c, 1, 74, 64
2, 31320, Note_on_c, 1, 79, 64
2, 31320, Note_on_c, 1, 82, 64
2, 31356, Note_on_c, 1, 82, 0
2, 31356, Note_on_c, 1, 79, 0
2, 31356, Note_on_c, 1, 74, 0
2, 31440, Note_on_c, 1, 74, 64
2, 31440, Note_on_c, 1, 79, 64
2, 31440, Note_on_c, 1, 82, 64
2, 31476, Note_on_c, 1, 82, 0
2, 31476, Note_on_c, 1, 79, 0
2, 31476, Note_on_c, 1, 74, 0
2, 31560, Note_on_c, 1, 74, 64
2, 31560, Note_on_c, 1, 79, 64
2, 31560, Note_on_c, 1, 82, 64
2, 31596, Note_on_c, 1, 82, 0
2, 31596, Note_on_c, 1, 79, 0
2, 31596, Note_on_c, 1, 74, 0
2, 31680, Note_on_c, 1, 64, 80
2, 31680, Note_on_c, 1, 67, 80
2, 31680, Note_on_c, 1, 72, 80
2, 31716, Note_on_c, 1, 72, 0
2, 31716, Note_on_c, 1, 67, 0
2, 31716, Note_on_c, 1, 64, 0
2, 31800, Note_on_c, 1, 64, 96
2, 31800, Note_on_c, 1, 67, 96
2, 31800, Note_on_c, 1, 72, 96
2, 31884, Note_on_c, 1, 67, 0
2, 31884, Note_on_c, 1, 64, 0
2, 31920, Note_on_c, 1, 60, 80
2, 32004, Note_on_c, 1, 60, 0
2, 32004, Note_on_c, 1, 72, 0
2, 32040, Note_on_c, 1, 64, 96
2, 32040, Note_on_c, 1, 67, 96
2, 32040, Note_on_c, 1, 72, 96
2, 32124, Note_on_c, 1, 67, 0
2, 32124, Note_on_c, 1, 64, 0
2, 32160, Note_on_c, 1, 60, 80
2, 32244, Note_on_c, 1, 60, 0
2, 32244, Note_on_c, 1, 72, 0
2, 32280, Note_on_c, 1, 64, 80
2, 32280, Note_on_c, 1, 67, 80
2, 32280, Note_on_c, 1, 72, 80
2, 32376, Note_on_c, 1, 72, 0
2, 32376, Note_on_c, 1, 67, 0
2, 32376, Note_on_c, 1, 64, 0
2, 32400, Note_on_c, 1, 65, 80
2, 32400, Note_on_c, 1, 69, 80
2, 32400, Note_on_c, 1, 74, 80
2, 32496, Note_on_c, 1, 74, 0
2, 32496, Note_on_c, 1, 69, 0
2, 32496, Note_on_c, 1, 65, 0
2, 32520, Note_on_c, 1, 67, 80
2, 32520, Note_on_c, 1, 70, 80
2, 32520, Note_on_c, 1, 76, 80
2, 32616, Note_on_c, 1, 76, 0
2, 32616, Note_on_c, 1, 70, 0
2, 32616, Note_on_c, 1, 67, 0
2, 32640, Note_on_c, 1, 69, 112
2, 32640, Note_on_c, 1, 77, 112
2, 32736, Note_on_c, 1, 77, 0
2, 32736, Note_on_c, 1, 69, 0
2, 32760, Note_on_c, 1, 72, 80
2, 32760, Note_on_c, 1, 77, 80
2, 32760, Note_on_c, 1, 81, 80
2, 32796, Note_on_c, 1, 81, 0
2, 32796, Note_on_c, 1, 77, 0
2, 32796, Note_on_c, 1, 72, 0
2, 32880, Note_on_c, 1, 72, 80
2, 32880, Note_on_c, 1, 77, 80
2, 32880, Note_on_c, 1, 81, 80
2, 32916, Note_on_c, 1, 81, 0
2, 32916, Note_on_c, 1, 77, 0
2, 32916, Note_on_c, 1, 72, 0
2, 33000, Note_on_c, 1, 72, 80
2, 33000, Note_on_c, 1, 81, 80
2, 33036, Note_on_c, 1, 81, 0
2, 33036, Note_on_c, 1, 72, 0
2, 33120, Note_on_c, 1, 72, 80
2, 33120, Note_on_c, 1, 81, 80
2, 33156, Note_on_c, 1, 81, 0
2, 33156, Note_on_c, 1, 72, 0
2, 33240, Note_on_c, 1, 72, 80
2, 33240, Note_on_c, 1, 81, 80
2, 33276, Note_on_c, 1, 81, 0
2, 33276, Note_on_c, 1, 72, 0
2, 33360, Note_on_c, 1, 72, 80
2, 33360, Note_on_c, 1, 81, 80
2, 33396, Note_on_c, 1, 81, 0
2, 33396, Note_on_c, 1, 72, 0
2, 33480, Note_on_c, 1, 72, 80
2, 33480, Note_on_c, 1, 81, 80
2, 33516, Note_on_c, 1, 81, 0
2, 33516, Note_on_c, 1, 72, 0
2, 33600, Note_on_c, 1, 79, 80
2, 33720, Note_on_c, 1, 79, 0
2, 33720, Note_on_c, 1, 79, 64
2, 33720, Note_on_c, 1, 84, 64
2, 33756, Note_on_c, 1, 84, 0
2, 33756, Note_on_c, 1, 79, 0
2, 33840, Note_on_c, 1, 79, 64
2, 33840, Note_on_c, 1, 84, 64
2, 33876, Note_on_c, 1, 84, 0
2, 33876, Note_on_c, 1, 79, 0
2, 33960, Note_on_c, 1, 79, 64
2, 33960, Note_on_c, 1, 84, 64
2, 33996, Note_on_c, 1, 84, 0
2, 33996, Note_on_c, 1, 79, 0
2, 34080, Note_on_c, 1, 79, 64
2, 34080, Note_on_c, 1, 84, 64
2, 34116, Note_on_c, 1, 84, 0
2, 34116, Note_on_c, 1, 79, 0
2, 34200, Note_on_c, 1, 79, 64
2, 34200, Note_on_c, 1, 84, 64
2, 34236, Note_on_c, 1, 84, 0
2, 34236, Note_on_c, 1, 79, 0
2, 34320, Note_on_c, 1, 79, 64
2, 34320, Note_on_c, 1, 84, 64
2, 34356, Note_on_c, 1, 84, 0
2, 34356, Note_on_c, 1, 79, 0
2, 34440, Note_on_c, 1, 79, 64
2, 34440, Note_on_c, 1, 84, 64
2, 34476, Note_on_c, 1, 84, 0
2, 34476, Note_on_c, 1, 79, 0
2, 34560, Note_on_c, 1, 81, 64
2, 34560, Note_on_c, 1, 86, 64
2, 34680, Note_on_c, 1, 86, 0
2, 34680, Note_on_c, 1, 81, 0
2, 34680, Note_on_c, 1, 69, 80
2, 34680, Note_on_c, 1, 77, 80
2, 34716, Note_on_c, 1, 77, 0
2, 34716, Note_on_c, 1, 69, 0
2, 34800, Note_on_c, 1, 69, 80
2, 34800, Note_on_c, 1, 77, 80
2, 34836, Note_on_c, 1, 77, 0
2, 34836, Note_on_c, 1, 69, 0
2, 34920, Note_on_c, 1, 69, 80
2, 34920, Note_on_c, 1, 77, 80
2, 34956, Note_on_c, 1, 77, 0
2, 34956, Note_on_c, 1, 69, 0
2, 35040, Note_on_c, 1, 69, 80
2, 35040, Note_on_c, 1, 77, 80
2, 35076, Note_on_c, 1, 77, 0
2, 35076, Note_on_c, 1, 69, 0
2, 35160, Note_on_c, 1, 69, 80
2, 35160, Note_on_c, 1, 77, 80
2, 35196, Note_on_c, 1, 77, 0
2, 35196, Note_on_c, 1, 69, 0
2, 35280, Note_on_c, 1, 69, 80
2, 35280, Note_on_c, 1, 77, 80
2, 35316, Note_on_c, 1, 77, 0
2, 35316, Note_on_c, 1, 69, 0
2, 35400, Note_on_c, 1, 69, 80
2, 35400, Note_on_c, 1, 77, 80
2, 35436, Note_on_c, 1, 77, 0
2, 35436, Note_on_c, 1, 69, 0
2, 35520, Note_on_c, 1, 69, 80
2, 35520, Note_on_c, 1, 76, 80
2, 35640, Note_on_c, 1, 76, 0
2, 35640, Note_on_c, 1, 69, 0
2, 35640, Note_on_c, 1, 76, 64
2, 35640, Note_on_c, 1, 81, 64
2, 35676, Note_on_c, 1, 81, 0
2, 35676, Note_on_c, 1, 76, 0
2, 35760, Note_on_c, 1, 76, 64
2, 35760, Note_on_c, 1, 81, 64
2, 35796, Note_on_c, 1, 81, 0
2, 35796, Note_on_c, 1, 76, 0
2, 35880, Note_on_c, 1, 76, 64
2, 35880, Note_on_c, 1, 81, 64
2, 35916, Note_on_c, 1, 81, 0
2, 35916, Note_on_c, 1, 76, 0
2, 36000, Note_on_c, 1, 76, 64
2, 36000, Note_on_c, 1, 81, 64
2, 36036, Note_on_c, 1, 81, 0
2, 36036, Note_on_c, 1, 76, 0
2, 36120, Note_on_c, 1, 76, 64
2, 36120, Note_on_c, 1, 81, 64
2, 36156, Note_on_c, 1, 81, 0
2, 36156, Note_on_c, 1, 76, 0
2, 36240, Note_on_c, 1, 76, 64
2, 36240, Note_on_c, 1, 81, 64
2, 36276, Note_on_c, 1, 81, 0
2, 36276, Note_on_c, 1, 76, 0
2, 36360, Note_on_c, 1, 76, 64
2, 36360, Note_on_c, 1, 81, 64
2, 36396, Note_on_c, 1, 81, 0
2, 36396, Note_on_c, 1, 76, 0
2, 36480, Note_on_c, 1, 77, 64
2, 36480, Note_on_c, 1, 86, 64
2, 36600, Note_on_c, 1, 86, 0
2, 36600, Note_on_c, 1, 77, 0
2, 36600, Note_on_c, 1, 65, 80
2, 36600, Note_on_c, 1, 74, 80
2, 36636, Note_on_c, 1, 74, 0
2, 36636, Note_on_c, 1, 65, 0
2, 36720, Note_on_c, 1, 65, 80
2, 36720, Note_on_c, 1, 70, 80
2, 36720, Note_on_c, 1, 74, 80
2, 36756, Note_on_c, 1, 74, 0
2, 36756, Note_on_c, 1, 70, 0
2, 36756, Note_on_c, 1, 65, 0
2, 36840, Note_on_c, 1, 65, 80
2, 36840, Note_on_c, 1, 70, 80
2, 36840, Note_on_c, 1, 74, 80
2, 36876, Note_on_c, 1, 74, 0
2, 36876, Note_on_c, 1, 70, 0
2, 36876, Note_on_c, 1, 65, 0
2, 36960, Note_on_c, 1, 65, 80
2, 36960, Note_on_c, 1, 70, 80
2, 36960, Note_on_c, 1, 74, 80
2, 36996, Note_on_c, 1, 74, 0
2, 36996, Note_on_c, 1, 70, 0
2, 36996, Note_on_c, 1, 65, 0
2, 37080, Note_on_c, 1, 65, 80
2, 37080, Note_on_c, 1, 70, 80
2, 37080, Note_on_c, 1, 74, 80
2, 37116, Note_on_c, 1, 74, 0
2, 37116, Note_on_c, 1, 70, 0
2, 37116, Note_on_c, 1, 65, 0
2, 37200, Note_on_c, 1, 65, 80
2, 37200, Note_on_c, 1, 70, 80
2, 37200, Note_on_c, 1, 74, 80
2, 37236, Note_on_c, 1, 74, 0
2, 37236, Note_on_c, 1, 70, 0
2, 37236, Note_on_c, 1, 65, 0
2, 37320, Note_on_c, 1, 65, 80
2, 37320, Note_on_c, 1, 70, 80
2, 37320, Note_on_c, 1, 74, 80
2, 37356, Note_on_c, 1, 74, 0
2, 37356, Note_on_c, 1, 70, 0
2, 37356, Note_on_c, 1, 65, 0
2, 37440, Note_on_c, 1, 72, 80
2, 37440, Note_on_c, 1, 65, 80
2, 37584, Note_on_c, 1, 65, 0
2, 37584, Note_on_c, 1, 72, 0
2, 37920, Note_on_c, 1, 72, 90
2, 37920, Note_on_c, 1, 67, 90
2, 38064, Note_on_c, 1, 67, 0
2, 38064, Note_on_c, 1, 72, 0
2, 38400, Note_on_c, 1, 69, 100
2, 38400, Note_on_c, 1, 72, 100
2, 38544, Note_on_c, 1, 72, 0
2, 38544, Note_on_c, 1, 69, 0
2, 38880, Note_on_c, 1, 84, 64
2, 38880, Note_on_c, 1, 81, 64
2, 38880, Note_on_c, 1, 77, 64
2, 38976, Note_on_c, 1, 77, 0
2, 38976, Note_on_c, 1, 81, 0
2, 38976, Note_on_c, 1, 84, 0
2, 39120, Note_on_c, 1, 86, 64
2, 39120, Note_on_c, 1, 82, 64
2, 39120, Note_on_c, 1, 77, 64
2, 39216, Note_on_c, 1, 77, 0
2, 39216, Note_on_c, 1, 82, 0
2, 39216, Note_on_c, 1, 86, 0
2, 39360, Note_on_c, 1, 77, 56
2, 39360, Note_on_c, 1, 81, 56
2, 39360, Note_on_c, 1, 84, 56
2, 39552, Note_on_c, 1, 84, 0
2, 39552, Note_on_c, 1, 81, 0
2, 39552, Note_on_c, 1, 77, 0
2, 39840, Note_on_c, 1, 77, 56
2, 39840, Note_on_c, 1, 81, 56
2, 39840, Note_on_c, 1, 84, 56
2, 39936, Note_on_c, 1, 84, 0
2, 39936, Note_on_c, 1, 81, 0
2, 39936, Note_on_c, 1, 77, 0
2, 40080, Note_on_c, 1, 86, 56
2, 40080, Note_on_c, 1, 82, 56
2, 40080, Note_on_c, 1, 77, 56
2, 40176, Note_on_c, 1, 77, 0
2, 40176, Note_on_c, 1, 82, 0
2, 40176, Note_on_c, 1, 86, 0
2, 40320, Note_on_c, 1, 84, 56
2, 40320, Note_on_c, 1, 81, 56
2, 40320, Note_on_c, 1, 77, 56
2, 40512, Note_on_c, 1, 77, 0
2, 40512, Note_on_c, 1, 81, 0
2, 40512, Note_on_c, 1, 84, 0
2, 40800, Note_on_c, 1, 72, 64
2, 40800, Note_on_c, 1, 77, 64
2, 40836, Note_on_c, 1, 77, 0
2, 40836, Note_on_c, 1, 72, 0
2, 40920, Note_on_c, 1, 72, 56
2, 40920, Note_on_c, 1, 77, 56
2, 40956, Note_on_c, 1, 77, 0
2, 40956, Note_on_c, 1, 72, 0
2, 41040, Note_on_c, 1, 72, 56
2, 41040, Note_on_c, 1, 77, 56
2, 41076, Note_on_c, 1, 77, 0
2, 41076, Note_on_c, 1, 72, 0
2, 41160, Note_on_c, 1, 72, 56
2, 41160, Note_on_c, 1, 77, 56
2, 41196, Note_on_c, 1, 77, 0
2, 41196, Note_on_c, 1, 72, 0
2, 41280, Note_on_c, 1, 74, 72
2, 41280, Note_on_c, 1, 77, 72
2, 41280, Note_on_c, 1, 79, 72
2, 41316, Note_on_c, 1, 79, 0
2, 41316, Note_on_c, 1, 77, 0
2, 41316, Note_on_c, 1, 74, 0
2, 41400, Note_on_c, 1, 74, 64
2, 41400, Note_on_c, 1, 77, 64
2, 41400, Note_on_c, 1, 79, 64
2, 41436, Note_on_c, 1, 79, 0
2, 41436, Note_on_c, 1, 77, 0
2, 41436, Note_on_c, 1, 74, 0
2, 41520, Note_on_c, 1, 74, 64
2, 41520, Note_on_c, 1, 77, 64
2, 41520, Note_on_c, 1, 79, 64
2, 41556, Note_on_c, 1, 79, 0
2, 41556, Note_on_c, 1, 77, 0
2, 41556, Note_on_c, 1, 74, 0
2, 41640, Note_on_c, 1, 74, 64
2, 41640, Note_on_c, 1, 77, 64
2, 41640, Note_on_c, 1, 79, 64
2, 41676, Note_on_c, 1, 79, 0
2, 41676, Note_on_c, 1, 77, 0
2, 41676, Note_on_c, 1, 74, 0
2, 41760, Note_on_c, 1, 74, 80
2, 41760, Note_on_c, 1, 77, 80
2, 41760, Note_on_c, 1, 80, 80
2, 41796, Note_on_c, 1, 80, 0
2, 41796, Note_on_c, 1, 77, 0
2, 41796, Note_on_c, 1, 74, 0
2, 41880, Note_on_c, 1, 74, 72
2, 41880, Note_on_c, 1, 77, 72
2, 41880, Note_on_c, 1, 80, 72
2, 41916, Note_on_c, 1, 80, 0
2, 41916, Note_on_c, 1, 77, 0
2, 41916, Note_on_c, 1, 74, 0
2, 42000, Note_on_c, 1, 74, 72
2, 42000, Note_on_c, 1, 77, 72
2, 42000, Note_on_c, 1, 80, 72
2, 42036, Note_on_c, 1, 80, 0
2, 42036, Note_on_c, 1, 77, 0
2, 42036, Note_on_c, 1, 74, 0
2, 42120, Note_on_c, 1, 74, 72
2, 42120, Note_on_c, 1, 77, 72
2, 42120, Note_on_c, 1, 80, 72
2, 42156, Note_on_c, 1, 80, 0
2, 42156, Note_on_c, 1, 77, 0
2, 42156, Note_on_c, 1, 74, 0
2, 42240, Note_on_c, 1, 72, 80
2, 42240, Note_on_c, 1, 77, 80
2, 42240, Note_on_c, 1, 81, 80
2, 42288, Note_on_c, 1, 81, 0
2, 42288, Note_on_c, 1, 77, 0
2, 42288, Note_on_c, 1, 72, 0
2, 42360, Note_on_c, 1, 72, 80
2, 42360, Note_on_c, 1, 77, 80
2, 42360, Note_on_c, 1, 81, 80
2, 42408, Note_on_c, 1, 81, 0
2, 42408, Note_on_c, 1, 77, 0
2, 42408, Note_on_c, 1, 72, 0
2, 42480, Note_on_c, 1, 69, 85
2, 42480, Note_on_c, 1, 72, 85
2, 42540, Note_on_c, 1, 72, 0
2, 42540, Note_on_c, 1, 69, 0
2, 42600, Note_on_c, 1, 69, 85
2, 42600, Note_on_c, 1, 72, 85
2, 42660, Note_on_c, 1, 72, 0
2, 42660, Note_on_c, 1, 69, 0
2, 42720, Note_on_c, 1, 72, 90
2, 42720, Note_on_c, 1, 77, 90
2, 42792, Note_on_c, 1, 77, 0
2, 42792, Note_on_c, 1, 72, 0
2, 42840, Note_on_c, 1, 72, 90
2, 42840, Note_on_c, 1, 77, 90
2, 42912, Note_on_c, 1, 77, 0
2, 42912, Note_on_c, 1, 72, 0
2, 42960, Note_on_c, 1, 72, 95
2, 42960, Note_on_c, 1, 77, 95
2, 42960, Note_on_c, 1, 81, 95
2, 43044, Note_on_c, 1, 81, 0
2, 43044, Note_on_c, 1, 77, 0
2, 43044, Note_on_c, 1, 72, 0
2, 43080, Note_on_c, 1, 72, 95
2, 43080, Note_on_c, 1, 77, 95
2, 43080, Note_on_c, 1, 81, 95
2, 43164, Note_on_c, 1, 81, 0
2, 43164, Note_on_c, 1, 77, 0
2, 43164, Note_on_c, 1, 72, 0
2, 43200, Note_on_c, 1, 72, 112
2, 43200, Note_on_c, 1, 77, 112
2, 43200, Note_on_c, 1, 81, 112
2, 43200, Note_on_c, 1, 84, 112
2, 43368, Note_on_c, 1, 84, 0
2, 43368, Note_on_c, 1, 72, 0
2, 43368, Note_on_c, 1, 77, 0
2, 43368, Note_on_c, 1, 81, 0
2, 43440, Note_on_c, 1, 72, 80
2, 43440, Note_on_c, 1, 77, 80
2, 43440, Note_on_c, 1, 81, 80
2, 43494, Note_on_c, 1, 81, 0
2, 43494, Note_on_c, 1, 77, 0
2, 43494, Note_on_c, 1, 72, 0
2, 43620, Note_on_c, 1, 81, 80
2, 43620, Note_on_c, 1, 77, 80
2, 43620, Note_on_c, 1, 72, 80
2, 43668, Note_on_c, 1, 72, 0
2, 43668, Note_on_c, 1, 77, 0
2, 43668, Note_on_c, 1, 81, 0
2, 43680, Note_on_c, 1, 72, 112
2, 43680, Note_on_c, 1, 76, 112
2, 43680, Note_on_c, 1, 79, 112
2, 43680, Note_on_c, 1, 84, 112
2, 43872, Note_on_c, 1, 84, 0
2, 43872, Note_on_c, 1, 72, 0
2, 43872, Note_on_c, 1, 76, 0
2, 43872, Note_on_c, 1, 79, 0
2, 43920, Note_on_c, 1, 72, 96
2, 43920, Note_on_c, 1, 76, 96
2, 43920, Note_on_c, 1, 79, 96
2, 43974, Note_on_c, 1, 79, 0
2, 43974, Note_on_c, 1, 76, 0
2, 43974, Note_on_c, 1, 72, 0
2, 44100, Note_on_c, 1, 72, 96
2, 44148, Note_on_c, 1, 72, 0
2, 44160, Note_on_c, 1, 77, 112
2, 44208, Note_on_c, 1, 77, 0
2, 44220, Note_on_c, 1, 72, 112
2, 44268, Note_on_c, 1, 72, 0
2, 44280, Note_on_c, 1, 74, 112
2, 44328, Note_on_c, 1, 74, 0
2, 44340, Note_on_c, 1, 76, 112
2, 44388, Note_on_c, 1, 76, 0
2, 44400, Note_on_c, 1, 77, 112
2, 44448, Note_on_c, 1, 77, 0
2, 44460, Note_on_c, 1, 79, 112
2, 44508, Note_on_c, 1, 79, 0
2, 44520, Note_on_c, 1, 81, 112
2, 44568, Note_on_c, 1, 81, 0
2, 44580, Note_on_c, 1, 82, 112
2, 44628, Note_on_c, 1, 82, 0
2, 44640, Note_on_c, 1, 84, 127
2, 44688, Note_on_c, 1, 84, 0
2, 44700, Note_on_c, 1, 82, 112
2, 44748, Note_on_c, 1, 82, 0
2, 44760, Note_on_c, 1, 81, 112
2, 44808, Note_on_c, 1, 81, 0
2, 44820, Note_on_c, 1, 79, 112
2, 44868, Note_on_c, 1, 79, 0
2, 44880, Note_on_c, 1, 81, 127
2, 44928, Note_on_c, 1, 81, 0
2, 44940, Note_on_c, 1, 79, 112
2, 44988, Note_on_c, 1, 79, 0
2, 45000, Note_on_c, 1, 77, 112
2, 45048, Note_on_c, 1, 77, 0
2, 45060, Note_on_c, 1, 76, 112
2, 45108, Note_on_c, 1, 76, 0
2, 45120, Note_on_c, 1, 77, 112
2, 45168, Note_on_c, 1, 77, 0
2, 45180, Note_on_c, 1, 72, 112
2, 45228, Note_on_c, 1, 72, 0
2, 45240, Note_on_c, 1, 74, 112
2, 45288, Note_on_c, 1, 74, 0
2, 45300, Note_on_c, 1, 76, 112
2, 45348, Note_on_c, 1, 76, 0
2, 45360, Note_on_c, 1, 77, 112
2, 45408, Note_on_c, 1, 77, 0
2, 45420, Note_on_c, 1, 79, 112
2, 45468, Note_on_c, 1, 79, 0
2, 45480, Note_on_c, 1, 81, 112
2, 45528, Note_on_c, 1, 81, 0
2, 45540, Note_on_c, 1, 82, 112
2, 45588, Note_on_c, 1, 82, 0
2, 45600, Note_on_c, 1, 84, 127
2, 45648, Note_on_c, 1, 84, 0
2, 45660, Note_on_c, 1, 82, 112
2, 45708, Note_on_c, 1, 82, 0
2, 45720, Note_on_c, 1, 81, 112
2, 45768, Note_on_c, 1, 81, 0
2, 45780, Note_on_c, 1, 79, 112
2, 45828, Note_on_c, 1, 79, 0
2, 45840, Note_on_c, 1, 81, 127
2, 45888, Note_on_c, 1, 81, 0
2, 45900, Note_on_c, 1, 79, 112
2, 45948, Note_on_c, 1, 79, 0
2, 45960, Note_on_c, 1, 77, 112
2, 46008, Note_on_c, 1, 77, 0
2, 46020, Note_on_c, 1, 76, 112
2, 46068, Note_on_c, 1, 76, 0
2, 46080, Note_on_c, 1, 77, 112
2, 46152, Note_on_c, 1, 77, 0
2, 46200, Note_on_c, 1, 81, 112
2, 46272, Note_on_c, 1, 81, 0
2, 46320, Note_on_c, 1, 74, 112
2, 46392, Note_on_c, 1, 74, 0
2, 46440, Note_on_c, 1, 77, 112
2, 46512, Note_on_c, 1, 77, 0
2, 46560, Note_on_c, 1, 70, 112
2, 46632, Note_on_c, 1, 70, 0
2, 46680, Note_on_c, 1, 74, 112
2, 46752, Note_on_c, 1, 74, 0
2, 46800, Note_on_c, 1, 67, 112
2, 46872, Note_on_c, 1, 67, 0
2, 46920, Note_on_c, 1, 70, 112
2, 46992, Note_on_c, 1, 70, 0
2, 47040, Note_on_c, 1, 64, 112
2, 47136, Note_on_c, 1, 64, 0
2, 47280, Note_on_c, 1, 72, 112
2, 47280, Note_on_c, 1, 77, 112
2, 47280, Note_on_c, 1, 81, 112
2, 47424, Note_on_c, 1, 81, 0
2, 47424, Note_on_c, 1, 77, 0
2, 47424, Note_on_c, 1, 72, 0
2, 47520, Note_on_c, 1, 70, 112
2, 47520, Note_on_c, 1, 74, 112
2, 47520, Note_on_c, 1, 79, 112
2, 47520, Note_on_c, 1, 82, 112
2, 47664, Note_on_c, 1, 82, 0
2, 47664, Note_on_c, 1, 70, 0
2, 47664, Note_on_c, 1, 74, 0
2, 47664, Note_on_c, 1, 79, 0
2, 47760, Note_on_c, 1, 67, 112
2, 47760, Note_on_c, 1, 70, 112
2, 47760, Note_on_c, 1, 76, 112
2, 47760, Note_on_c, 1, 79, 112
2, 47904, Note_on_c, 1, 79, 0
2, 47904, Note_on_c, 1, 67, 0
2, 47904, Note_on_c, 1, 70, 0
2, 47904, Note_on_c, 1, 76, 0
2, 48000, Note_on_c, 1, 65, 112
2, 48000, Note_on_c, 1, 69, 112
2, 48000, Note_on_c, 1, 72, 112
2, 48000, Note_on_c, 1, 77, 112
2, 48216, Note_on_c, 1, 77, 0
2, 48216, Note_on_c, 1, 65, 0
2, 48216, Note_on_c, 1, 69, 0
2, 48216, Note_on_c, 1, 72, 0
2, 48240, Note_on_c, 1, 65, 64
2, 48288, Note_on_c, 1, 65, 0
2, 48300, Note_on_c, 1, 77, 64
2, 48348, Note_on_c, 1, 77, 0
2, 48360, Note_on_c, 1, 65, 64
2, 48408, Note_on_c, 1, 65, 0
2, 48420, Note_on_c, 1, 77, 64
2, 48468, Note_on_c, 1, 77, 0
2, 48480, Note_on_c, 1, 65, 64
2, 48528, Note_on_c, 1, 65, 0
2, 48540, Note_on_c, 1, 77, 64
2, 48588, Note_on_c, 1, 77, 0
2, 48600, Note_on_c, 1, 65, 64
2, 48648, Note_on_c, 1, 65, 0
2, 48660, Note_on_c, 1, 77, 64
2, 48708, Note_on_c, 1, 77, 0
2, 48720, Note_on_c, 1, 65, 64
2, 48768, Note_on_c, 1, 65, 0
2, 48780, Note_on_c, 1, 77, 64
2, 48828, Note_on_c, 1, 77, 0
2, 48840, Note_on_c, 1, 65, 64
2, 48888, Note_on_c, 1, 65, 0
2, 48900, Note_on_c, 1, 77, 64
2, 48948, Note_on_c, 1, 77, 0
2, 48960, Note_on_c, 1, 65, 96
2, 49008, Note_on_c, 1, 65, 0
2, 49020, Note_on_c, 1, 77, 96
2, 49068, Note_on_c, 1, 77, 0
2, 49080, Note_on_c, 1, 65, 96
2, 49128, Note_on_c, 1, 65, 0
2, 49140, Note_on_c, 1, 77, 96
2, 49188, Note_on_c, 1, 77, 0
2, 49200, Note_on_c, 1, 65, 96
2, 49248, Note_on_c, 1, 65, 0
2, 49260, Note_on_c, 1, 77, 96
2, 49308, Note_on_c, 1, 77, 0
2, 49320, Note_on_c, 1, 65, 96
2, 49368, Note_on_c, 1, 65, 0
2, 49380, Note_on_c, 1, 77, 96
2, 49428, Note_on_c, 1, 77, 0
2, 49440, Note_on_c, 1, 65, 96
2, 49488, Note_on_c, 1, 65, 0
2, 49500, Note_on_c, 1, 77, 96
2, 49548, Note_on_c, 1, 77, 0
2, 49560, Note_on_c, 1, 65, 96
2, 49608, Note_on_c, 1, 65, 0
2, 49620, Note_on_c, 1, 77, 96
2, 49668, Note_on_c, 1, 77, 0
2, 49680, Note_on_c, 1, 65, 96
2, 49728, Note_on_c, 1, 65, 0
2, 49740, Note_on_c, 1, 77, 96
2, 49788, Note_on_c, 1, 77, 0
2, 49800, Note_on_c, 1, 65, 96
2, 49848, Note_on_c, 1, 65, 0
2, 49860, Note_on_c, 1, 77, 96
2, 49908, Note_on_c, 1, 77, 0
2, 49920, Note_on_c, 1, 65, 96
2, 49968, Note_on_c, 1, 65, 0
2, 49980, Note_on_c, 1, 77, 64
2, 50028, Note_on_c, 1, 77, 0
2, 50040, Note_on_c, 1, 65, 64
2, 50040, Note_on_c, 1, 69, 64
2, 50088, Note_on_c, 1, 69, 0
2, 50088, Note_on_c, 1, 65, 0
2, 50100, Note_on_c, 1, 77, 64
2, 50148, Note_on_c, 1, 77, 0
2, 50160, Note_on_c, 1, 67, 64
2, 50160, Note_on_c, 1, 70, 64
2, 50208, Note_on_c, 1, 70, 0
2, 50208, Note_on_c, 1, 67, 0
2, 50220, Note_on_c, 1, 77, 64
2, 50268, Note_on_c, 1, 77, 0
2, 50280, Note_on_c, 1, 69, 64
2, 50280, Note_on_c, 1, 72, 64
2, 50328, Note_on_c, 1, 72, 0
2, 50328, Note_on_c, 1, 69, 0
2, 50340, Note_on_c, 1, 77, 64
2, 50388, Note_on_c, 1, 77, 0
2, 50400, Note_on_c, 1, 70, 64
2, 50400, Note_on_c, 1, 74, 64
2, 50448, Note_on_c, 1, 74, 0
2, 50448, Note_on_c, 1, 70, 0
2, 50460, Note_on_c, 1, 77, 64
2, 50508, Note_on_c, 1, 77, 0
2, 50520, Note_on_c, 1, 69, 64
2, 50520, Note_on_c, 1, 72, 64
2, 50568, Note_on_c, 1, 72, 0
2, 50568, Note_on_c, 1, 69, 0
2, 50580, Note_on_c, 1, 77, 64
2, 50628, Note_on_c, 1, 77, 0
2, 50640, Note_on_c, 1, 70, 64
2, 50640, Note_on_c, 1, 74, 64
2, 50688, Note_on_c, 1, 74, 0
2, 50688, Note_on_c, 1, 70, 0
2, 50700, Note_on_c, 1, 77, 64
2, 50748, Note_on_c, 1, 77, 0
2, 50760, Note_on_c, 1, 67, 64
2, 50760, Note_on_c, 1, 70, 64
2, 50808, Note_on_c, 1, 70, 0
2, 50808, Note_on_c, 1, 67, 0
2, 50820, Note_on_c, 1, 77, 64
2, 50868, Note_on_c, 1, 77, 0
2, 50880, Note_on_c, 1, 69, 64
2, 50880, Note_on_c, 1, 65, 64
2, 50928, Note_on_c, 1, 65, 0
2, 50928, Note_on_c, 1, 69, 0
2, 50940, Note_on_c, 1, 77, 64
2, 50988, Note_on_c, 1, 77, 0
2, 51000, Note_on_c, 1, 65, 96
2, 51048, Note_on_c, 1, 65, 0
2, 51060, Note_on_c, 1, 77, 96
2, 51108, Note_on_c, 1, 77, 0
2, 51120, Note_on_c, 1, 65, 96
2, 51168, Note_on_c, 1, 65, 0
2, 51180, Note_on_c, 1, 77, 96
2, 51228, Note_on_c, 1, 77, 0
2, 51240, Note_on_c, 1, 65, 96
2, 51288, Note_on_c, 1, 65, 0
2, 51300, Note_on_c, 1, 77, 96
2, 51348, Note_on_c, 1, 77, 0
2, 51360, Note_on_c, 1, 65, 96
2, 51408, Note_on_c, 1, 65, 0
2, 51420, Note_on_c, 1, 77, 96
2, 51468, Note_on_c, 1, 77, 0
2, 51480, Note_on_c, 1, 65, 96
2, 51528, Note_on_c, 1, 65, 0
2, 51540, Note_on_c, 1, 77, 96
2, 51588, Note_on_c, 1, 77, 0
2, 51600, Note_on_c, 1, 65, 96
2, 51648, Note_on_c, 1, 65, 0
2, 51660, Note_on_c, 1, 77, 96
2, 51708, Note_on_c, 1, 77, 0
2, 51720, Note_on_c, 1, 65, 96
2, 51768, Note_on_c, 1, 65, 0
2, 51780, Note_on_c, 1, 77, 96
2, 51828, Note_on_c, 1, 77, 0
2, 51840, Note_on_c, 1, 65, 64
2, 51888, Note_on_c, 1, 65, 0
2, 51900, Note_on_c, 1, 77, 64
2, 51948, Note_on_c, 1, 77, 0
2, 51960, Note_on_c, 1, 69, 64
2, 51960, Note_on_c, 1, 65, 64
2, 52008, Note_on_c, 1, 65, 0
2, 52008, Note_on_c, 1, 69, 0
2, 52020, Note_on_c, 1, 77, 64
2, 52068, Note_on_c, 1, 77, 0
2, 52080, Note_on_c, 1, 70, 64
2, 52080, Note_on_c, 1, 67, 64
2, 52128, Note_on_c, 1, 67, 0
2, 52128, Note_on_c, 1, 70, 0
2, 52140, Note_on_c, 1, 77, 64
2, 52188, Note_on_c, 1, 77, 0
2, 52200, Note_on_c, 1, 72, 64
2, 52200, Note_on_c, 1, 69, 64
2, 52248, Note_on_c, 1, 69, 0
2, 52248, Note_on_c, 1, 72, 0
2, 52260, Note_on_c, 1, 77, 64
2, 52308, Note_on_c, 1, 77, 0
2, 52320, Note_on_c, 1, 74, 64
2, 52320, Note_on_c, 1, 70, 64
2, 52368, Note_on_c, 1, 70, 0
2, 52368, Note_on_c, 1, 74, 0
2, 52380, Note_on_c, 1, 77, 64
2, 52428, Note_on_c, 1, 77, 0
2, 52440, Note_on_c, 1, 72, 64
2, 52440, Note_on_c, 1, 69, 64
2, 52488, Note_on_c, 1, 69, 0
2, 52488, Note_on_c, 1, 72, 0
2, 52500, Note_on_c, 1, 77, 64
2, 52548, Note_on_c, 1, 77, 0
2, 52560, Note_on_c, 1, 74, 64
2, 52560, Note_on_c, 1, 70, 64
2, 52608, Note_on_c, 1, 70, 0
2, 52608, Note_on_c, 1, 74, 0
2, 52620, Note_on_c, 1, 77, 64
2, 52668, Note_on_c, 1, 77, 0
2, 52680, Note_on_c, 1, 70, 64
2, 52680, Note_on_c, 1, 67, 64
2, 52728, Note_on_c, 1, 67, 0
2, 52728, Note_on_c, 1, 70, 0
2, 52740, Note_on_c, 1, 77, 64
2, 52788, Note_on_c, 1, 77, 0
2, 52800, Note_on_c, 1, 69, 96
2, 52800, Note_on_c, 1, 65, 96
2, 52848, Note_on_c, 1, 65, 0
2, 52848, Note_on_c, 1, 69, 0
2, 52860, Note_on_c, 1, 77, 96
2, 52908, Note_on_c, 1, 77, 0
2, 52920, Note_on_c, 1, 65, 96
2, 52968, Note_on_c, 1, 65, 0
2, 52980, Note_on_c, 1, 77, 96
2, 53028, Note_on_c, 1, 77, 0
2, 53040, Note_on_c, 1, 65, 96
2, 53088, Note_on_c, 1, 65, 0
2, 53100, Note_on_c, 1, 77, 96
2, 53148, Note_on_c, 1, 77, 0
2, 53160, Note_on_c, 1, 65, 96
2, 53208, Note_on_c, 1, 65, 0
2, 53220, Note_on_c, 1, 77, 96
2, 53268, Note_on_c, 1, 77, 0
2, 53280, Note_on_c, 1, 65, 96
2, 53328, Note_on_c, 1, 65, 0
2, 53340, Note_on_c, 1, 77, 96
2, 53388, Note_on_c, 1, 77, 0
2, 53400, Note_on_c, 1, 65, 96
2, 53448, Note_on_c, 1, 65, 0
2, 53460, Note_on_c, 1, 77, 96
2, 53508, Note_on_c, 1, 77, 0
2, 53520, Note_on_c, 1, 65, 96
2, 53568, Note_on_c, 1, 65, 0
2, 53580, Note_on_c, 1, 77, 96
2, 53628, Note_on_c, 1, 77, 0
2, 53640, Note_on_c, 1, 65, 96
2, 53688, Note_on_c, 1, 65, 0
2, 53700, Note_on_c, 1, 77, 96
2, 53748, Note_on_c, 1, 77, 0
2, 53760, Note_on_c, 1, 65, 64
2, 53808, Note_on_c, 1, 65, 0
2, 53820, Note_on_c, 1, 77, 64
2, 53868, Note_on_c, 1, 77, 0
2, 53880, Note_on_c, 1, 69, 64
2, 53880, Note_on_c, 1, 65, 64
2, 53928, Note_on_c, 1, 65, 0
2, 53928, Note_on_c, 1, 69, 0
2, 53940, Note_on_c, 1, 77, 64
2, 53988, Note_on_c, 1, 77, 0
2, 54000, Note_on_c, 1, 70, 64
2, 54000, Note_on_c, 1, 67, 64
2, 54048, Note_on_c, 1, 67, 0
2, 54048, Note_on_c, 1, 70, 0
2, 54060, Note_on_c, 1, 77, 64
2, 54108, Note_on_c, 1, 77, 0
2, 54120, Note_on_c, 1, 72, 64
2, 54120, Note_on_c, 1, 69, 64
2, 54168, Note_on_c, 1, 69, 0
2, 54168, Note_on_c, 1, 72, 0
2, 54180, Note_on_c, 1, 77, 64
2, 54228, Note_on_c, 1, 77, 0
2, 54240, Note_on_c, 1, 74, 64
2, 54240, Note_on_c, 1, 70, 64
2, 54288, Note_on_c, 1, 70, 0
2, 54288, Note_on_c, 1, 74, 0
2, 54300, Note_on_c, 1, 77, 64
2, 54348, Note_on_c, 1, 77, 0
2, 54360, Note_on_c, 1, 72, 64
2, 54360, Note_on_c, 1, 69, 64
2, 54408, Note_on_c, 1, 69, 0
2, 54408, Note_on_c, 1, 72, 0
2, 54420, Note_on_c, 1, 77, 64
2, 54468, Note_on_c, 1, 77, 0
2, 54480, Note_on_c, 1, 74, 64
2, 54480, Note_on_c, 1, 70, 64
2, 54528, Note_on_c, 1, 70, 0
2, 54528, Note_on_c, 1, 74, 0
2, 54540, Note_on_c, 1, 77, 64
2, 54588, Note_on_c, 1, 77, 0
2, 54600, Note_on_c, 1, 70, 64
2, 54600, Note_on_c, 1, 67, 64
2, 54648, Note_on_c, 1, 67, 0
2, 54648, Note_on_c, 1, 70, 0
2, 54660, Note_on_c, 1, 77, 64
2, 54708, Note_on_c, 1, 77, 0
2, 54720, Note_on_c, 1, 69, 96
2, 54720, Note_on_c, 1, 65, 96
2, 54768, Note_on_c, 1, 65, 0
2, 54768, Note_on_c, 1, 69, 0
2, 54780, Note_on_c, 1, 77, 96
2, 54828, Note_on_c, 1, 77, 0
2, 54840, Note_on_c, 1, 65, 96
2, 54888, Note_on_c, 1, 65, 0
2, 54900, Note_on_c, 1, 77, 96
2, 54948, Note_on_c, 1, 77, 0
2, 54960, Note_on_c, 1, 65, 96
2, 55008, Note_on_c, 1, 65, 0
2, 55020, Note_on_c, 1, 77, 96
2, 55068, Note_on_c, 1, 77, 0
2, 55080, Note_on_c, 1, 65, 96
2, 55128, Note_on_c, 1, 65, 0
2, 55140, Note_on_c, 1, 77, 96
2, 55188, Note_on_c, 1, 77, 0
2, 55200, Note_on_c, 1, 65, 96
2, 55248, Note_on_c, 1, 65, 0
2, 55260, Note_on_c, 1, 77, 96
2, 55308, Note_on_c, 1, 77, 0
2, 55320, Note_on_c, 1, 65, 96
2, 55368, Note_on_c, 1, 65, 0
2, 55380, Note_on_c, 1, 77, 96
2, 55428, Note_on_c, 1, 77, 0
2, 55440, Note_on_c, 1, 65, 96
2, 55488, Note_on_c, 1, 65, 0
2, 55500, Note_on_c, 1, 77, 96
2, 55548, Note_on_c, 1, 77, 0
2, 55680, Note_on_c, 1, 75, 112
2, 55680, Note_on_c, 1, 81, 112
2, 55680, Note_on_c, 1, 84, 112
2, 55680, Note_on_c, 1, 87, 112
2, 56064, Note_on_c, 1, 87, 0
2, 56064, Note_on_c, 1, 75, 0
2, 56064, Note_on_c, 1, 81, 0
2, 56064, Note_on_c, 1, 84, 0
2, 56160, Note_on_c, 1, 72, 64
2, 56160, Note_on_c, 1, 75, 64
2, 56160, Note_on_c, 1, 81, 64
2, 56160, Note_on_c, 1, 84, 64
2, 56544, Note_on_c, 1, 84, 0
2, 56544, Note_on_c, 1, 72, 0
2, 56544, Note_on_c, 1, 75, 0
2, 56544, Note_on_c, 1, 81, 0
2, 56640, Note_on_c, 1, 69, 64
2, 56640, Note_on_c, 1, 72, 64
2, 56640, Note_on_c, 1, 81, 64
2, 57024, Note_on_c, 1, 81, 0
2, 57024, Note_on_c, 1, 72, 0
2, 57024, Note_on_c, 1, 69, 0
2, 57120, Note_on_c, 1, 74, 64
2, 57120, Note_on_c, 1, 82, 64
2, 57120, Note_on_c, 1, 86, 64
2, 57504, Note_on_c, 1, 86, 0
2, 57504, Note_on_c, 1, 82, 0
2, 57504, Note_on_c, 1, 74, 0
2, 57600, Note_on_c, 1, 67, 64
2, 57600, Note_on_c, 1, 70, 64
2, 57600, Note_on_c, 1, 74, 64
2, 57600, Note_on_c, 1, 79, 64
2, 57696, Note_on_c, 1, 79, 0
2, 57696, Note_on_c, 1, 67, 0
2, 57696, Note_on_c, 1, 70, 0
2, 57696, Note_on_c, 1, 74, 0
2, 57720, Note_on_c, 1, 67, 64
2, 57720, Note_on_c, 1, 70, 64
2, 57744, Note_on_c, 1, 70, 0
2, 57744, Note_on_c, 1, 67, 0
2, 57780, Note_on_c, 1, 79, 64
2, 57804, Note_on_c, 1, 79, 0
2, 57840, Note_on_c, 1, 69, 64
2, 57840, Note_on_c, 1, 72, 64
2, 57864, Note_on_c, 1, 72, 0
2, 57864, Note_on_c, 1, 69, 0
2, 57900, Note_on_c, 1, 79, 64
2, 57924, Note_on_c, 1, 79, 0
2, 57960, Note_on_c, 1, 70, 64
2, 57960, Note_on_c, 1, 74, 64
2, 57984, Note_on_c, 1, 74, 0
2, 57984, Note_on_c, 1, 70, 0
2, 58020, Note_on_c, 1, 79, 64
2, 58044, Note_on_c, 1, 79, 0
2, 58080, Note_on_c, 1, 72, 64
2, 58080, Note_on_c, 1, 75, 64
2, 58104, Note_on_c, 1, 75, 0
2, 58104, Note_on_c, 1, 72, 0
2, 58140, Note_on_c, 1, 79, 64
2, 58164, Note_on_c, 1, 79, 0
2, 58200, Note_on_c, 1, 70, 64
2, 58200, Note_on_c, 1, 74, 64
2, 58224, Note_on_c, 1, 74, 0
2, 58224, Note_on_c, 1, 70, 0
2, 58260, Note_on_c, 1, 79, 64
2, 58284, Note_on_c, 1, 79, 0
2, 58320, Note_on_c, 1, 72, 64
2, 58320, Note_on_c, 1, 75, 64
2, 58344, Note_on_c, 1, 75, 0
2, 58344, Note_on_c, 1, 72, 0
2, 58380, Note_on_c, 1, 79, 64
2, 58404, Note_on_c, 1, 79, 0
2, 58440, Note_on_c, 1, 69, 64
2, 58440, Note_on_c, 1, 72, 64
2, 58464, Note_on_c, 1, 72, 0
2, 58464, Note_on_c, 1, 69, 0
2, 58500, Note_on_c, 1, 79, 64
2, 58524, Note_on_c, 1, 79, 0
2, 58560, Note_on_c, 1, 67, 96
2, 58560, Note_on_c, 1, 70, 96
2, 58584, Note_on_c, 1, 70, 0
2, 58584, Note_on_c, 1, 67, 0
2, 58620, Note_on_c, 1, 79, 96
2, 58644, Note_on_c, 1, 79, 0
2, 58680, Note_on_c, 1, 67, 96
2, 58704, Note_on_c, 1, 67, 0
2, 58740, Note_on_c, 1, 79, 96
2, 58764, Note_on_c, 1, 79, 0
2, 58800, Note_on_c, 1, 67, 96
2, 58824, Note_on_c, 1, 67, 0
2, 58860, Note_on_c, 1, 79, 96
2, 58884, Note_on_c, 1, 79, 0
2, 58920, Note_on_c, 1, 67, 96
2, 58944, Note_on_c, 1, 67, 0
2, 58980, Note_on_c, 1, 79, 96
2, 59004, Note_on_c, 1, 79, 0
2, 59040, Note_on_c, 1, 67, 96
2, 59064, Note_on_c, 1, 67, 0
2, 59100, Note_on_c, 1, 79, 96
2, 59124, Note_on_c, 1, 79, 0
2, 59160, Note_on_c, 1, 67, 96
2, 59184, Note_on_c, 1, 67, 0
2, 59220, Note_on_c, 1, 79, 96
2, 59244, Note_on_c, 1, 79, 0
2, 59280, Note_on_c, 1, 67, 96
2, 59304, Note_on_c, 1, 67, 0
2, 59340, Note_on_c, 1, 79, 96
2, 59364, Note_on_c, 1, 79, 0
2, 59400, Note_on_c, 1, 67, 96
2, 59424, Note_on_c, 1, 67, 0
2, 59460, Note_on_c, 1, 79, 96
2, 59484, Note_on_c, 1, 79, 0
2, 59520, Note_on_c, 1, 67, 64
2, 59544, Note_on_c, 1, 67, 0
2, 59580, Note_on_c, 1, 79, 64
2, 59604, Note_on_c, 1, 79, 0
2, 59640, Note_on_c, 1, 67, 64
2, 59640, Note_on_c, 1, 70, 64
2, 59664, Note_on_c, 1, 70, 0
2, 59664, Note_on_c, 1, 67, 0
2, 59700, Note_on_c, 1, 79, 64
2, 59724, Note_on_c, 1, 79, 0
2, 59760, Note_on_c, 1, 69, 64
2, 59760, Note_on_c, 1, 72, 64
2, 59784, Note_on_c, 1, 72, 0
2, 59784, Note_on_c, 1, 69, 0
2, 59820, Note_on_c, 1, 79, 64
2, 59844, Note_on_c, 1, 79, 0
2, 59880, Note_on_c, 1, 70, 64
2, 59880, Note_on_c, 1, 74, 64
2, 59904, Note_on_c, 1, 74, 0
2, 59904, Note_on_c, 1, 70, 0
2, 59940, Note_on_c, 1, 79, 64
2, 59964, Note_on_c, 1, 79, 0
2, 60000, Note_on_c, 1, 72, 64
2, 60000, Note_on_c, 1, 75, 64
2, 60024, Note_on_c, 1, 75, 0
2, 60024, Note_on_c, 1, 72, 0
2, 60060, Note_on_c, 1, 79, 64
2, 60084, Note_on_c, 1, 79, 0
2, 60120, Note_on_c, 1, 70, 64
2, 60120, Note_on_c, 1, 74, 64
2, 60144, Note_on_c, 1, 74, 0
2, 60144, Note_on_c, 1, 70, 0
2, 60180, Note_on_c, 1, 79, 64
2, 60204, Note_on_c, 1, 79, 0
2, 60240, Note_on_c, 1, 72, 64
2, 60240, Note_on_c, 1, 75, 64
2, 60264, Note_on_c, 1, 75, 0
2, 60264, Note_on_c, 1, 72, 0
2, 60300, Note_on_c, 1, 79, 64
2, 60324, Note_on_c, 1, 79, 0
2, 60360, Note_on_c, 1, 69, 64
2, 60360, Note_on_c, 1, 72, 64
2, 60384, Note_on_c, 1, 72, 0
2, 60384, Note_on_c, 1, 69, 0
2, 60420, Note_on_c, 1, 79, 64
2, 60444, Note_on_c, 1, 79, 0
2, 60480, Note_on_c, 1, 67, 96
2, 60480, Note_on_c, 1, 70, 96
2, 60528, Note_on_c, 1, 70, 0
2, 60528, Note_on_c, 1, 67, 0
2, 60540, Note_on_c, 1, 79, 96
2, 60588, Note_on_c, 1, 79, 0
2, 60600, Note_on_c, 1, 67, 96
2, 60648, Note_on_c, 1, 67, 0
2, 60660, Note_on_c, 1, 79, 96
2, 60708, Note_on_c, 1, 79, 0
2, 60720, Note_on_c, 1, 67, 96
2, 60768, Note_on_c, 1, 67, 0
2, 60780, Note_on_c, 1, 79, 96
2, 60828, Note_on_c, 1, 79, 0
2, 60840, Note_on_c, 1, 67, 96
2, 60888, Note_on_c, 1, 67, 0
2, 60900, Note_on_c, 1, 79, 96
2, 60948, Note_on_c, 1, 79, 0
2, 60960, Note_on_c, 1, 67, 96
2, 61008, Note_on_c, 1, 67, 0
2, 61020, Note_on_c, 1, 79, 96
2, 61068, Note_on_c, 1, 79, 0
2, 61080, Note_on_c, 1, 67, 96
2, 61128, Note_on_c, 1, 67, 0
2, 61140, Note_on_c, 1, 79, 96
2, 61188, Note_on_c, 1, 79, 0
2, 61200, Note_on_c, 1, 67, 96
2, 61248, Note_on_c, 1, 67, 0
2, 61260, Note_on_c, 1, 79, 96
2, 61308, Note_on_c, 1, 79, 0
2, 61320, Note_on_c, 1, 67, 96
2, 61368, Note_on_c, 1, 67, 0
2, 61380, Note_on_c, 1, 79, 96
2, 61428, Note_on_c, 1, 79, 0
2, 61440, Note_on_c, 1, 89, 96
2, 61440, Note_on_c, 1, 77, 96
2, 61824, Note_on_c, 1, 77, 0
2, 61824, Note_on_c, 1, 89, 0
2, 61920, Note_on_c, 1, 86, 64
2, 61920, Note_on_c, 1, 74, 64
2, 62304, Note_on_c, 1, 74, 0
2, 62304, Note_on_c, 1, 86, 0
2, 62400, Note_on_c, 1, 83, 64
2, 62400, Note_on_c, 1, 74, 64
2, 62400, Note_on_c, 1, 71, 64
2, 62784, Note_on_c, 1, 71, 0
2, 62784, Note_on_c, 1, 74, 0
2, 62784, Note_on_c, 1, 83, 0
2, 62880, Note_on_c, 1, 88, 64
2, 62880, Note_on_c, 1, 76, 64
2, 63264, Note_on_c, 1, 76, 0
2, 63264, Note_on_c, 1, 88, 0
2, 63360, Note_on_c, 1, 81, 64
2, 63360, Note_on_c, 1, 76, 64
2, 63360, Note_on_c, 1, 73, 64
2, 63360, Note_on_c, 1, 69, 64
2, 63552, Note_on_c, 1, 69, 0
2, 63552, Note_on_c, 1, 81, 0
2, 63552, Note_on_c, 1, 76, 0
2, 63552, Note_on_c, 1, 73, 0
2, 63600, Note_on_c, 1, 81, 96
2, 63600, Note_on_c, 1, 76, 96
2, 63600, Note_on_c, 1, 73, 96
2, 63600, Note_on_c, 1, 69, 96
2, 63840, Note_on_c, 1, 69, 0
2, 63840, Note_on_c, 1, 81, 0
2, 63840, Note_on_c, 1, 76, 0
2, 63840, Note_on_c, 1, 73, 0
2, 64080, Note_on_c, 1, 81, 96
2, 64080, Note_on_c, 1, 76, 96
2, 64080, Note_on_c, 1, 73, 96
2, 64080, Note_on_c, 1, 69, 96
2, 64200, Note_on_c, 1, 69, 0
2, 64200, Note_on_c, 1, 81, 0
2, 64200, Note_on_c, 1, 76, 0
2, 64200, Note_on_c, 1, 73, 0
2, 64320, Note_on_c, 1, 81, 96
2, 64320, Note_on_c, 1, 76, 96
2, 64320, Note_on_c, 1, 73, 96
2, 64320, Note_on_c, 1, 69, 96
2, 64560, Note_on_c, 1, 69, 0
2, 64560, Note_on_c, 1, 81, 0
2, 64560, Note_on_c, 1, 76, 0
2, 64560, Note_on_c, 1, 73, 0
2, 69240, Note_on_c, 1, 74, 96
2, 69276, Note_on_c, 1, 74, 0
2, 69360, Note_on_c, 1, 77, 96
2, 69396, Note_on_c, 1, 77, 0
2, 69480, Note_on_c, 1, 81, 96
2, 69516, Note_on_c, 1, 81, 0
2, 69600, Note_on_c, 1, 86, 96
2, 69636, Note_on_c, 1, 86, 0
2, 69720, Note_on_c, 1, 81, 96
2, 69756, Note_on_c, 1, 81, 0
2, 69840, Note_on_c, 1, 82, 96
2, 69876, Note_on_c, 1, 82, 0
2, 69960, Note_on_c, 1, 79, 96
2, 69996, Note_on_c, 1, 79, 0
2, 70080, Note_on_c, 1, 81, 96
2, 70248, Note_on_c, 1, 81, 0
2, 71160, Note_on_c, 1, 74, 96
2, 71196, Note_on_c, 1, 74, 0
2, 71280, Note_on_c, 1, 77, 96
2, 71316, Note_on_c, 1, 77, 0
2, 71400, Note_on_c, 1, 81, 96
2, 71436, Note_on_c, 1, 81, 0
2, 71520, Note_on_c, 1, 86, 96
2, 71556, Note_on_c, 1, 86, 0
2, 71640, Note_on_c, 1, 81, 96
2, 71676, Note_on_c, 1, 81, 0
2, 71760, Note_on_c, 1, 82, 96
2, 71796, Note_on_c, 1, 82, 0
2, 71880, Note_on_c, 1, 79, 96
2, 71916, Note_on_c, 1, 79, 0
2, 72000, Note_on_c, 1, 81, 96
2, 72192, Note_on_c, 1, 81, 0
2, 73080, Note_on_c, 1, 74, 96
2, 73116, Note_on_c, 1, 74, 0
2, 73200, Note_on_c, 1, 77, 96
2, 73236, Note_on_c, 1, 77, 0
2, 73320, Note_on_c, 1, 81, 96
2, 73356, Note_on_c, 1, 81, 0
2, 73440, Note_on_c, 1, 86, 96
2, 73476, Note_on_c, 1, 86, 0
2, 73560, Note_on_c, 1, 81, 96
2, 73596, Note_on_c, 1, 81, 0
2, 73680, Note_on_c, 1, 86, 96
2, 73716, Note_on_c, 1, 86, 0
2, 73800, Note_on_c, 1, 84, 96
2, 73836, Note_on_c, 1, 84, 0
2, 73920, Note_on_c, 1, 82, 96
2, 73956, Note_on_c, 1, 82, 0
2, 74040, Note_on_c, 1, 79, 96
2, 74076, Note_on_c, 1, 79, 0
2, 74160, Note_on_c, 1, 84, 96
2, 74196, Note_on_c, 1, 84, 0
2, 74280, Note_on_c, 1, 82, 96
2, 74316, Note_on_c, 1, 82, 0
2, 74400, Note_on_c, 1, 81, 96
2, 74436, Note_on_c, 1, 81, 0
2, 74520, Note_on_c, 1, 77, 96
2, 74556, Note_on_c, 1, 77, 0
2, 74640, Note_on_c, 1, 82, 96
2, 74676, Note_on_c, 1, 82, 0
2, 74760, Note_on_c, 1, 81, 96
2, 74796, Note_on_c, 1, 81, 0
2, 74880, Note_on_c, 1, 79, 96
2, 74916, Note_on_c, 1, 79, 0
2, 75000, Note_on_c, 1, 76, 96
2, 75036, Note_on_c, 1, 76, 0
2, 75120, Note_on_c, 1, 81, 96
2, 75156, Note_on_c, 1, 81, 0
2, 75240, Note_on_c, 1, 79, 96
2, 75276, Note_on_c, 1, 79, 0
2, 75360, Note_on_c, 1, 77, 96
2, 75564, Note_on_c, 1, 77, 0
2, 75600, Note_on_c, 1, 74, 96
2, 75768, Note_on_c, 1, 74, 0
2, 75840, Note_on_c, 1, 70, 96
2, 75840, Note_on_c, 1, 75, 96
2, 75912, Note_on_c, 1, 75, 0
2, 75912, Note_on_c, 1, 70, 0
2, 75960, Note_on_c, 1, 70, 96
2, 75960, Note_on_c, 1, 75, 96
2, 76032, Note_on_c, 1, 75, 0
2, 76032, Note_on_c, 1, 70, 0
2, 76080, Note_on_c, 1, 70, 96
2, 76080, Note_on_c, 1, 75, 96
2, 76152, Note_on_c, 1, 75, 0
2, 76152, Note_on_c, 1, 70, 0
2, 76200, Note_on_c, 1, 70, 96
2, 76200, Note_on_c, 1, 75, 96
2, 76272, Note_on_c, 1, 75, 0
2, 76272, Note_on_c, 1, 70, 0
2, 76320, Note_on_c, 1, 70, 96
2, 76320, Note_on_c, 1, 75, 96
2, 76392, Note_on_c, 1, 75, 0
2, 76392, Note_on_c, 1, 70, 0
2, 76440, Note_on_c, 1, 70, 96
2, 76440, Note_on_c, 1, 75, 96
2, 76512, Note_on_c, 1, 75, 0
2, 76512, Note_on_c, 1, 70, 0
2, 76560, Note_on_c, 1, 70, 96
2, 76560, Note_on_c, 1, 75, 96
2, 76632, Note_on_c, 1, 75, 0
2, 76632, Note_on_c, 1, 70, 0
2, 76680, Note_on_c, 1, 70, 96
2, 76680, Note_on_c, 1, 75, 96
2, 76752, Note_on_c, 1, 75, 0
2, 76752, Note_on_c, 1, 70, 0
2, 76800, Note_on_c, 1, 70, 96
2, 76800, Note_on_c, 1, 75, 96
2, 76872, Note_on_c, 1, 75, 0
2, 76872, Note_on_c, 1, 70, 0
2, 76920, Note_on_c, 1, 70, 96
2, 76920, Note_on_c, 1, 75, 96
2, 76992, Note_on_c, 1, 75, 0
2, 76992, Note_on_c, 1, 70, 0
2, 77040, Note_on_c, 1, 70, 96
2, 77040, Note_on_c, 1, 75, 96
2, 77112, Note_on_c, 1, 75, 0
2, 77112, Note_on_c, 1, 70, 0
2, 77160, Note_on_c, 1, 70, 96
2, 77160, Note_on_c, 1, 75, 96
2, 77232, Note_on_c, 1, 75, 0
2, 77232, Note_on_c, 1, 70, 0
2, 77280, Note_on_c, 1, 70, 96
2, 77280, Note_on_c, 1, 75, 96
2, 77352, Note_on_c, 1, 75, 0
2, 77352, Note_on_c, 1, 70, 0
2, 77400, Note_on_c, 1, 70, 96
2, 77400, Note_on_c, 1, 75, 96
2, 77472, Note_on_c, 1, 75, 0
2, 77472, Note_on_c, 1, 70, 0
2, 77520, Note_on_c, 1, 71, 96
2, 77520, Note_on_c, 1, 74, 96
2, 77592, Note_on_c, 1, 74, 0
2, 77592, Note_on_c, 1, 71, 0
2, 77640, Note_on_c, 1, 71, 96
2, 77640, Note_on_c, 1, 74, 96
2, 77712, Note_on_c, 1, 74, 0
2, 77712, Note_on_c, 1, 71, 0
2, 77760, Note_on_c, 1, 69, 112
2, 77760, Note_on_c, 1, 73, 112
2, 77880, Note_on_c, 1, 73, 0
2, 77880, Note_on_c, 1, 69, 0
2, 78000, Note_on_c, 1, 73, 112
2, 78000, Note_on_c, 1, 76, 112
2, 78000, Note_on_c, 1, 81, 112
2, 78120, Note_on_c, 1, 81, 0
2, 78120, Note_on_c, 1, 76, 0
2, 78120, Note_on_c, 1, 73, 0
2, 78240, Note_on_c, 1, 64, 112
2, 78240, Note_on_c, 1, 69, 112
2, 78432, Note_on_c, 1, 69, 0
2, 78432, Note_on_c, 1, 64, 0
2, 78960, Note_on_c, 1, 73, 112
2, 78960, Note_on_c, 1, 76, 112
2, 78960, Note_on_c, 1, 81, 112
2, 79080, Note_on_c, 1, 81, 0
2, 79080, Note_on_c, 1, 76, 0
2, 79080, Note_on_c, 1, 73, 0
2, 79200, Note_on_c, 1, 64, 112
2, 79200, Note_on_c, 1, 69, 112
2, 79392, Note_on_c, 1, 69, 0
2, 79392, Note_on_c, 1, 64, 0
2, 79920, Note_on_c, 1, 73, 112
2, 79920, Note_on_c, 1, 76, 112
2, 79920, Note_on_c, 1, 81, 112
2, 80040, Note_on_c, 1, 81, 0
2, 80040, Note_on_c, 1, 76, 0
2, 80040, Note_on_c, 1, 73, 0
2, 80160, Note_on_c, 1, 64, 112
2, 80160, Note_on_c, 1, 69, 112
2, 80352, Note_on_c, 1, 69, 0
2, 80352, Note_on_c, 1, 64, 0
2, 81840, Note_on_c, 1, 74, 80
2, 81840, Note_on_c, 1, 79, 80
2, 81882, Note_on_c, 1, 79, 0
2, 81882, Note_on_c, 1, 74, 0
2, 81900, Note_on_c, 1, 74, 80
2, 81900, Note_on_c, 1, 79, 80
2, 81942, Note_on_c, 1, 79, 0
2, 81942, Note_on_c, 1, 74, 0
2, 81960, Note_on_c, 1, 74, 80
2, 81960, Note_on_c, 1, 79, 80
2, 82002, Note_on_c, 1, 79, 0
2, 82002, Note_on_c, 1, 74, 0
2, 82020, Note_on_c, 1, 74, 80
2, 82020, Note_on_c, 1, 79, 80
2, 82062, Note_on_c, 1, 79, 0
2, 82062, Note_on_c, 1, 74, 0
2, 82080, Note_on_c, 1, 70, 90
2, 82080, Note_on_c, 1, 73, 90
2, 82080, Note_on_c, 1, 79, 90
2, 82122, Note_on_c, 1, 79, 0
2, 82122, Note_on_c, 1, 73, 0
2, 82122, Note_on_c, 1, 70, 0
2, 82140, Note_on_c, 1, 70, 90
2, 82140, Note_on_c, 1, 73, 90
2, 82140, Note_on_c, 1, 79, 90
2, 82182, Note_on_c, 1, 79, 0
2, 82182, Note_on_c, 1, 73, 0
2, 82182, Note_on_c, 1, 70, 0
2, 82200, Note_on_c, 1, 70, 90
2, 82200, Note_on_c, 1, 73, 90
2, 82200, Note_on_c, 1, 79, 90
2, 82242, Note_on_c, 1, 79, 0
2, 82242, Note_on_c, 1, 73, 0
2, 82242, Note_on_c, 1, 70, 0
2, 82260, Note_on_c, 1, 70, 90
2, 82260, Note_on_c, 1, 73, 90
2, 82260, Note_on_c, 1, 79, 90
2, 82302, Note_on_c, 1, 79, 0
2, 82302, Note_on_c, 1, 73, 0
2, 82302, Note_on_c, 1, 70, 0
2, 82320, Note_on_c, 1, 70, 100
2, 82320, Note_on_c, 1, 74, 100
2, 82320, Note_on_c, 1, 79, 100
2, 82320, Note_on_c, 1, 82, 100
2, 82362, Note_on_c, 1, 82, 0
2, 82362, Note_on_c, 1, 70, 0
2, 82362, Note_on_c, 1, 74, 0
2, 82362, Note_on_c, 1, 79, 0
2, 82380, Note_on_c, 1, 70, 100
2, 82380, Note_on_c, 1, 74, 100
2, 82380, Note_on_c, 1, 79, 100
2, 82380, Note_on_c, 1, 82, 100
2, 82422, Note_on_c, 1, 82, 0
2, 82422, Note_on_c, 1, 70, 0
2, 82422, Note_on_c, 1, 74, 0
2, 82422, Note_on_c, 1, 79, 0
2, 82440, Note_on_c, 1, 70, 100
2, 82440, Note_on_c, 1, 74, 100
2, 82440, Note_on_c, 1, 79, 100
2, 82440, Note_on_c, 1, 82, 100
2, 82482, Note_on_c, 1, 82, 0
2, 82482, Note_on_c, 1, 70, 0
2, 82482, Note_on_c, 1, 74, 0
2, 82482, Note_on_c, 1, 79, 0
2, 82500, Note_on_c, 1, 70, 100
2, 82500, Note_on_c, 1, 74, 100
2, 82500, Note_on_c, 1, 79, 100
2, 82500, Note_on_c, 1, 82, 100
2, 82542, Note_on_c, 1, 82, 0
2, 82542, Note_on_c, 1, 70, 0
2, 82542, Note_on_c, 1, 74, 0
2, 82542, Note_on_c, 1, 79, 0
2, 82560, Note_on_c, 1, 69, 112
2, 82560, Note_on_c, 1, 76, 112
2, 82560, Note_on_c, 1, 79, 112
2, 82560, Note_on_c, 1, 81, 112
2, 82944, Note_on_c, 1, 81, 0
2, 82944, Note_on_c, 1, 69, 0
2, 82944, Note_on_c, 1, 76, 0
2, 82944, Note_on_c, 1, 79, 0
2, 83880, Note_on_c, 1, 69, 112
2, 83912, Note_on_c, 1, 69, 0
2, 83920, Note_on_c, 1, 71, 112
2, 83952, Note_on_c, 1, 71, 0
2, 83960, Note_on_c, 1, 73, 112
2, 83992, Note_on_c, 1, 73, 0
2, 84000, Note_on_c, 1, 74, 112
2, 84384, Note_on_c, 1, 74, 0
2, 84840, Note_on_c, 1, 73, 112
2, 84872, Note_on_c, 1, 73, 0
2, 84880, Note_on_c, 1, 74, 112
2, 84912, Note_on_c, 1, 74, 0
2, 84920, Note_on_c, 1, 76, 112
2, 84952, Note_on_c, 1, 76, 0
2, 84960, Note_on_c, 1, 77, 112
2, 85344, Note_on_c, 1, 77, 0
2, 86160, Note_on_c, 1, 58, 112
2, 86160, Note_on_c, 1, 62, 112
2, 86352, Note_on_c, 1, 62, 0
2, 86352, Note_on_c, 1, 58, 0
2, 86400, Note_on_c, 1, 63, 112
2, 86448, Note_on_c, 1, 63, 0
2, 86460, Note_on_c, 1, 67, 112
2, 86508, Note_on_c, 1, 67, 0
2, 86520, Note_on_c, 1, 65, 112
2, 86568, Note_on_c, 1, 65, 0
2, 86580, Note_on_c, 1, 63, 112
2, 86628, Note_on_c, 1, 63, 0
2, 86640, Note_on_c, 1, 62, 112
2, 86688, Note_on_c, 1, 62, 0
2, 86700, Note_on_c, 1, 65, 112
2, 86748, Note_on_c, 1, 65, 0
2, 86760, Note_on_c, 1, 63, 112
2, 86808, Note_on_c, 1, 63, 0
2, 86820, Note_on_c, 1, 62, 112
2, 86868, Note_on_c, 1, 62, 0
2, 86880, Note_on_c, 1, 63, 112
2, 86928, Note_on_c, 1, 63, 0
2, 86940, Note_on_c, 1, 67, 112
2, 86988, Note_on_c, 1, 67, 0
2, 87000, Note_on_c, 1, 65, 112
2, 87048, Note_on_c, 1, 65, 0
2, 87060, Note_on_c, 1, 63, 112
2, 87108, Note_on_c, 1, 63, 0
2, 87120, Note_on_c, 1, 62, 112
2, 87168, Note_on_c, 1, 62, 0
2, 87180, Note_on_c, 1, 65, 112
2, 87228, Note_on_c, 1, 65, 0
2, 87240, Note_on_c, 1, 63, 112
2, 87288, Note_on_c, 1, 63, 0
2, 87300, Note_on_c, 1, 62, 112
2, 87348, Note_on_c, 1, 62, 0
2, 87360, Note_on_c, 1, 63, 112
2, 87936, Note_on_c, 1, 63, 0
2, 88560, Note_on_c, 1, 73, 112
2, 88560, Note_on_c, 1, 76, 112
2, 88560, Note_on_c, 1, 82, 112
2, 88560, Note_on_c, 1, 85, 112
2, 88944, Note_on_c, 1, 85, 0
2, 88944, Note_on_c, 1, 73, 0
2, 88944, Note_on_c, 1, 76, 0
2, 88944, Note_on_c, 1, 82, 0
2, 89040, Note_on_c, 1, 74, 112
2, 89040, Note_on_c, 1, 77, 112
2, 89040, Note_on_c, 1, 83, 112
2, 89040, Note_on_c, 1, 86, 112
2, 89856, Note_on_c, 1, 86, 0
2, 89856, Note_on_c, 1, 74, 0
2, 89856, Note_on_c, 1, 77, 0
2, 89856, Note_on_c, 1, 83, 0
2, 91440, Note_on_c, 1, 73, 112
2, 91440, Note_on_c, 1, 76, 112
2, 91440, Note_on_c, 1, 79, 112
2, 91440, Note_on_c, 1, 85, 112
2, 92016, Note_on_c, 1, 85, 0
2, 92016, Note_on_c, 1, 73, 0
2, 92016, Note_on_c, 1, 76, 0
2, 92016, Note_on_c, 1, 79, 0
2, 92160, Note_on_c, 1, 74, 112
2, 92160, Note_on_c, 1, 77, 112
2, 92160, Note_on_c, 1, 86, 112
2, 92256, Note_on_c, 1, 86, 0
2, 92256, Note_on_c, 1, 77, 0
2, 92256, Note_on_c, 1, 74, 0
2, 92280, Note_on_c, 1, 73, 112
2, 92280, Note_on_c, 1, 85, 112
2, 92376, Note_on_c, 1, 85, 0
2, 92376, Note_on_c, 1, 73, 0
2, 92400, Note_on_c, 1, 74, 112
2, 92400, Note_on_c, 1, 86, 112
2, 92496, Note_on_c, 1, 86, 0
2, 92496, Note_on_c, 1, 74, 0
2, 92520, Note_on_c, 1, 76, 112
2, 92520, Note_on_c, 1, 88, 112
2, 92616, Note_on_c, 1, 88, 0
2, 92616, Note_on_c, 1, 76, 0
2, 92640, Note_on_c, 1, 77, 112
2, 92640, Note_on_c, 1, 89, 112
2, 92736, Note_on_c, 1, 89, 0
2, 92736, Note_on_c, 1, 77, 0
2, 92760, Note_on_c, 1, 78, 112
2, 92760, Note_on_c, 1, 90, 112
2, 92856, Note_on_c, 1, 90, 0
2, 92856, Note_on_c, 1, 78, 0
2, 92880, Note_on_c, 1, 79, 112
2, 92880, Note_on_c, 1, 91, 112
2, 92976, Note_on_c, 1, 91, 0
2, 92976, Note_on_c, 1, 79, 0
2, 93000, Note_on_c, 1, 80, 112
2, 93000, Note_on_c, 1, 92, 112
2, 93096, Note_on_c, 1, 92, 0
2, 93096, Note_on_c, 1, 80, 0
2, 93120, Note_on_c, 1, 93, 112
2, 93120, Note_on_c, 1, 89, 112
2, 93120, Note_on_c, 1, 86, 112
2, 93120, Note_on_c, 1, 81, 112
2, 93504, Note_on_c, 1, 81, 0
2, 93504, Note_on_c, 1, 93, 0
2, 93504, Note_on_c, 1, 89, 0
2, 93504, Note_on_c, 1, 86, 0
2, 93600, Note_on_c, 1, 69, 112
2, 93600, Note_on_c, 1, 73, 112
2, 93600, Note_on_c, 1, 76, 112
2, 93600, Note_on_c, 1, 81, 112
2, 93984, Note_on_c, 1, 81, 0
2, 93984, Note_on_c, 1, 69, 0
2, 93984, Note_on_c, 1, 73, 0
2, 93984, Note_on_c, 1, 76, 0
2, 94080, Note_on_c, 1, 62, 112
2, 94080, Note_on_c, 1, 65, 112
2, 94080, Note_on_c, 1, 69, 112
2, 94080, Note_on_c, 1, 74, 112
2, 94848, Note_on_c, 1, 74, 0
2, 94848, Note_on_c, 1, 62, 0
2, 94848, Note_on_c, 1, 65, 0
2, 94848, Note_on_c, 1, 69, 0
2, 94848, End_track
3, 0, Start_track
3, 0, MIDI_port, 0
3, 0, Title_t, "Accomp. ""The Magic Flute"" K. 620"
3, 0, Program_c, 2, 48
3, 0, Control_c, 2, 7, 80
3, 0, Control_c, 2, 10, 80
3, 0, Control_c, 2, 91, 101
3, 0, Control_c, 2, 91, 101
3, 0, Note_on_c, 2, 53, 70
3, 0, Note_on_c, 2, 57, 70
3, 48, Note_on_c, 2, 57, 0
3, 48, Note_on_c, 2, 53, 0
3, 60, Note_on_c, 2, 62, 70
3, 108, Note_on_c, 2, 62, 0
3, 120, Note_on_c, 2, 57, 75
3, 120, Note_on_c, 2, 53, 75
3, 168, Note_on_c, 2, 53, 0
3, 168, Note_on_c, 2, 57, 0
3, 180, Note_on_c, 2, 62, 75
3, 228, Note_on_c, 2, 62, 0
3, 240, Note_on_c, 2, 57, 80
3, 240, Note_on_c, 2, 53, 80
3, 288, Note_on_c, 2, 53, 0
3, 288, Note_on_c, 2, 57, 0
3, 300, Note_on_c, 2, 62, 80
3, 348, Note_on_c, 2, 62, 0
3, 360, Note_on_c, 2, 57, 85
3, 360, Note_on_c, 2, 53, 85
3, 408, Note_on_c, 2, 53, 0
3, 408, Note_on_c, 2, 57, 0
3, 420, Note_on_c, 2, 62, 85
3, 468, Note_on_c, 2, 62, 0
3, 480, Note_on_c, 2, 57, 90
3, 480, Note_on_c, 2, 53, 90
3, 528, Note_on_c, 2, 53, 0
3, 528, Note_on_c, 2, 57, 0
3, 540, Note_on_c, 2, 62, 90
3, 588, Note_on_c, 2, 62, 0
3, 600, Note_on_c, 2, 57, 95
3, 600, Note_on_c, 2, 53, 95
3, 648, Note_on_c, 2, 53, 0
3, 648, Note_on_c, 2, 57, 0
3, 660, Note_on_c, 2, 62, 95
3, 708, Note_on_c, 2, 62, 0
3, 720, Note_on_c, 2, 57, 100
3, 720, Note_on_c, 2, 53, 100
3, 768, Note_on_c, 2, 53, 0
3, 768, Note_on_c, 2, 57, 0
3, 780, Note_on_c, 2, 62, 100
3, 828, Note_on_c, 2, 62, 0
3, 840, Note_on_c, 2, 57, 105
3, 840, Note_on_c, 2, 53, 105
3, 888, Note_on_c, 2, 53, 0
3, 888, Note_on_c, 2, 57, 0
3, 900, Note_on_c, 2, 62, 105
3, 948, Note_on_c, 2, 62, 0
3, 960, Note_on_c, 2, 57, 112
3, 960, Note_on_c, 2, 53, 112
3, 1008, Note_on_c, 2, 53, 0
3, 1008, Note_on_c, 2, 57, 0
3, 1020, Note_on_c, 2, 62, 112
3, 1068, Note_on_c, 2, 62, 0
3, 1080, Note_on_c, 2, 53, 112
3, 1080, Note_on_c, 2, 57, 112
3, 1128, Note_on_c, 2, 57, 0
3, 1128, Note_on_c, 2, 53, 0
3, 1140, Note_on_c, 2, 62, 112
3, 1188, Note_on_c, 2, 62, 0
3, 1200, Note_on_c, 2, 53, 112
3, 1200, Note_on_c, 2, 57, 112
3, 1248, Note_on_c, 2, 57, 0
3, 1248, Note_on_c, 2, 53, 0
3, 1260, Note_on_c, 2, 62, 112
3, 1308, Note_on_c, 2, 62, 0
3, 1320, Note_on_c, 2, 53, 112
3, 1320, Note_on_c, 2, 57, 112
3, 1368, Note_on_c, 2, 57, 0
3, 1368, Note_on_c, 2, 53, 0
3, 1380, Note_on_c, 2, 62, 112
3, 1428, Note_on_c, 2, 62, 0
3, 1440, Note_on_c, 2, 53, 112
3, 1440, Note_on_c, 2, 57, 112
3, 1488, Note_on_c, 2, 57, 0
3, 1488, Note_on_c, 2, 53, 0
3, 1500, Note_on_c, 2, 62, 112
3, 1548, Note_on_c, 2, 62, 0
3, 1560, Note_on_c, 2, 53, 112
3, 1560, Note_on_c, 2, 57, 112
3, 1608, Note_on_c, 2, 57, 0
3, 1608, Note_on_c, 2, 53, 0
3, 1620, Note_on_c, 2, 62, 112
3, 1668, Note_on_c, 2, 62, 0
3, 1680, Note_on_c, 2, 53, 112
3, 1680, Note_on_c, 2, 57, 112
3, 1728, Note_on_c, 2, 57, 0
3, 1728, Note_on_c, 2, 53, 0
3, 1740, Note_on_c, 2, 62, 112
3, 1788, Note_on_c, 2, 62, 0
3, 1800, Note_on_c, 2, 53, 112
3, 1800, Note_on_c, 2, 57, 112
3, 1848, Note_on_c, 2, 57, 0
3, 1848, Note_on_c, 2, 53, 0
3, 1860, Note_on_c, 2, 62, 112
3, 1908, Note_on_c, 2, 62, 0
3, 1920, Note_on_c, 2, 50, 112
3, 1992, Note_on_c, 2, 50, 0
3, 2040, Note_on_c, 2, 50, 112
3, 2112, Note_on_c, 2, 50, 0
3, 2160, Note_on_c, 2, 50, 112
3, 2232, Note_on_c, 2, 50, 0
3, 2280, Note_on_c, 2, 50, 112
3, 2352, Note_on_c, 2, 50, 0
3, 2400, Note_on_c, 2, 50, 112
3, 2472, Note_on_c, 2, 50, 0
3, 2520, Note_on_c, 2, 50, 112
3, 2592, Note_on_c, 2, 50, 0
3, 2640, Note_on_c, 2, 50, 112
3, 2712, Note_on_c, 2, 50, 0
3, 2760, Note_on_c, 2, 50, 112
3, 2832, Note_on_c, 2, 50, 0
3, 2880, Note_on_c, 2, 50, 112
3, 2952, Note_on_c, 2, 50, 0
3, 3000, Note_on_c, 2, 50, 112
3, 3072, Note_on_c, 2, 50, 0
3, 3120, Note_on_c, 2, 50, 112
3, 3192, Note_on_c, 2, 50, 0
3, 3240, Note_on_c, 2, 50, 112
3, 3312, Note_on_c, 2, 50, 0
3, 3360, Note_on_c, 2, 57, 112
3, 3360, Note_on_c, 2, 53, 112
3, 3432, Note_on_c, 2, 53, 0
3, 3432, Note_on_c, 2, 57, 0
3, 3480, Note_on_c, 2, 57, 112
3, 3480, Note_on_c, 2, 53, 112
3, 3552, Note_on_c, 2, 53, 0
3, 3552, Note_on_c, 2, 57, 0
3, 3600, Note_on_c, 2, 57, 112
3, 3600, Note_on_c, 2, 53, 112
3, 3672, Note_on_c, 2, 53, 0
3, 3672, Note_on_c, 2, 57, 0
3, 3720, Note_on_c, 2, 57, 112
3, 3720, Note_on_c, 2, 53, 112
3, 3792, Note_on_c, 2, 53, 0
3, 3792, Note_on_c, 2, 57, 0
3, 3840, Note_on_c, 2, 61, 112
3, 3840, Note_on_c, 2, 58, 112
3, 3840, Note_on_c, 2, 55, 112
3, 3888, Note_on_c, 2, 55, 0
3, 3888, Note_on_c, 2, 58, 0
3, 3888, Note_on_c, 2, 61, 0
3, 3960, Note_on_c, 2, 61, 112
3, 3960, Note_on_c, 2, 58, 112
3, 3960, Note_on_c, 2, 55, 112
3, 4008, Note_on_c, 2, 55, 0
3, 4008, Note_on_c, 2, 58, 0
3, 4008, Note_on_c, 2, 61, 0
3, 4080, Note_on_c, 2, 61, 112
3, 4080, Note_on_c, 2, 58, 112
3, 4080, Note_on_c, 2, 55, 112
3, 4128, Note_on_c, 2, 55, 0
3, 4128, Note_on_c, 2, 58, 0
3, 4128, Note_on_c, 2, 61, 0
3, 4200, Note_on_c, 2, 61, 112
3, 4200, Note_on_c, 2, 58, 112
3, 4200, Note_on_c, 2, 55, 112
3, 4248, Note_on_c, 2, 55, 0
3, 4248, Note_on_c, 2, 58, 0
3, 4248, Note_on_c, 2, 61, 0
3, 4320, Note_on_c, 2, 61, 112
3, 4320, Note_on_c, 2, 58, 112
3, 4320, Note_on_c, 2, 55, 112
3, 4368, Note_on_c, 2, 55, 0
3, 4368, Note_on_c, 2, 58, 0
3, 4368, Note_on_c, 2, 61, 0
3, 4440, Note_on_c, 2, 61, 112
3, 4440, Note_on_c, 2, 58, 112
3, 4440, Note_on_c, 2, 55, 112
3, 4488, Note_on_c, 2, 55, 0
3, 4488, Note_on_c, 2, 58, 0
3, 4488, Note_on_c, 2, 61, 0
3, 4560, Note_on_c, 2, 61, 112
3, 4560, Note_on_c, 2, 58, 112
3, 4560, Note_on_c, 2, 55, 112
3, 4608, Note_on_c, 2, 55, 0
3, 4608, Note_on_c, 2, 58, 0
3, 4608, Note_on_c, 2, 61, 0
3, 4680, Note_on_c, 2, 61, 112
3, 4680, Note_on_c, 2, 58, 112
3, 4680, Note_on_c, 2, 55, 112
3, 4728, Note_on_c, 2, 55, 0
3, 4728, Note_on_c, 2, 58, 0
3, 4728, Note_on_c, 2, 61, 0
3, 4800, Note_on_c, 2, 62, 112
3, 4800, Note_on_c, 2, 57, 112
3, 4848, Note_on_c, 2, 57, 0
3, 4848, Note_on_c, 2, 62, 0
3, 4920, Note_on_c, 2, 62, 112
3, 4920, Note_on_c, 2, 57, 112
3, 4968, Note_on_c, 2, 57, 0
3, 4968, Note_on_c, 2, 62, 0
3, 5040, Note_on_c, 2, 62, 112
3, 5040, Note_on_c, 2, 57, 112
3, 5088, Note_on_c, 2, 57, 0
3, 5088, Note_on_c, 2, 62, 0
3, 5160, Note_on_c, 2, 62, 112
3, 5160, Note_on_c, 2, 57, 112
3, 5208, Note_on_c, 2, 57, 0
3, 5208, Note_on_c, 2, 62, 0
3, 5280, Note_on_c, 2, 62, 112
3, 5280, Note_on_c, 2, 57, 112
3, 5328, Note_on_c, 2, 57, 0
3, 5328, Note_on_c, 2, 62, 0
3, 5400, Note_on_c, 2, 62, 112
3, 5400, Note_on_c, 2, 57, 112
3, 5448, Note_on_c, 2, 57, 0
3, 5448, Note_on_c, 2, 62, 0
3, 5520, Note_on_c, 2, 62, 112
3, 5520, Note_on_c, 2, 57, 112
3, 5568, Note_on_c, 2, 57, 0
3, 5568, Note_on_c, 2, 62, 0
3, 5640, Note_on_c, 2, 62, 112
3, 5640, Note_on_c, 2, 57, 112
3, 5688, Note_on_c, 2, 57, 0
3, 5688, Note_on_c, 2, 62, 0
3, 5760, Note_on_c, 2, 55, 80
3, 5844, Note_on_c, 2, 55, 0
3, 5880, Note_on_c, 2, 55, 80
3, 5964, Note_on_c, 2, 55, 0
3, 6000, Note_on_c, 2, 55, 80
3, 6084, Note_on_c, 2, 55, 0
3, 6120, Note_on_c, 2, 55, 80
3, 6204, Note_on_c, 2, 55, 0
3, 6240, Note_on_c, 2, 57, 80
3, 6324, Note_on_c, 2, 57, 0
3, 6360, Note_on_c, 2, 57, 80
3, 6444, Note_on_c, 2, 57, 0
3, 6480, Note_on_c, 2, 57, 80
3, 6564, Note_on_c, 2, 57, 0
3, 6600, Note_on_c, 2, 57, 80
3, 6684, Note_on_c, 2, 57, 0
3, 6720, Note_on_c, 2, 58, 80
3, 6804, Note_on_c, 2, 58, 0
3, 6840, Note_on_c, 2, 58, 80
3, 6924, Note_on_c, 2, 58, 0
3, 6960, Note_on_c, 2, 54, 80
3, 7044, Note_on_c, 2, 54, 0
3, 7080, Note_on_c, 2, 54, 80
3, 7164, Note_on_c, 2, 54, 0
3, 7200, Note_on_c, 2, 55, 80
3, 7284, Note_on_c, 2, 55, 0
3, 7320, Note_on_c, 2, 55, 80
3, 7524, Note_on_c, 2, 55, 0
3, 7560, Note_on_c, 2, 55, 80
3, 7644, Note_on_c, 2, 55, 0
3, 7680, Note_on_c, 2, 55, 80
3, 7764, Note_on_c, 2, 55, 0
3, 7800, Note_on_c, 2, 55, 80
3, 7884, Note_on_c, 2, 55, 0
3, 7920, Note_on_c, 2, 55, 80
3, 8004, Note_on_c, 2, 55, 0
3, 8040, Note_on_c, 2, 55, 80
3, 8124, Note_on_c, 2, 55, 0
3, 8160, Note_on_c, 2, 55, 80
3, 8244, Note_on_c, 2, 55, 0
3, 8280, Note_on_c, 2, 55, 80
3, 8364, Note_on_c, 2, 55, 0
3, 8400, Note_on_c, 2, 56, 80
3, 8484, Note_on_c, 2, 56, 0
3, 8520, Note_on_c, 2, 56, 80
3, 8604, Note_on_c, 2, 56, 0
3, 8640, Note_on_c, 2, 57, 80
3, 8736, Note_on_c, 2, 57, 0
3, 8880, Note_on_c, 2, 57, 80
3, 8880, Note_on_c, 2, 60, 80
3, 9108, Note_on_c, 2, 60, 0
3, 9108, Note_on_c, 2, 57, 0
3, 9120, Note_on_c, 2, 56, 90
3, 9120, Note_on_c, 2, 62, 90
3, 9348, Note_on_c, 2, 62, 0
3, 9348, Note_on_c, 2, 56, 0
3, 9360, Note_on_c, 2, 55, 100
3, 9360, Note_on_c, 2, 64, 100
3, 9588, Note_on_c, 2, 64, 0
3, 9588, Note_on_c, 2, 55, 0
3, 9600, Note_on_c, 2, 53, 112
3, 9600, Note_on_c, 2, 65, 112
3, 9744, Note_on_c, 2, 65, 0
3, 9744, Note_on_c, 2, 53, 0
3, 9840, Note_on_c, 2, 57, 80
3, 9840, Note_on_c, 2, 53, 80
3, 9888, Note_on_c, 2, 53, 0
3, 9888, Note_on_c, 2, 57, 0
3, 9900, Note_on_c, 2, 60, 80
3, 9948, Note_on_c, 2, 60, 0
3, 9960, Note_on_c, 2, 57, 80
3, 9960, Note_on_c, 2, 53, 80
3, 10008, Note_on_c, 2, 53, 0
3, 10008, Note_on_c, 2, 57, 0
3, 10020, Note_on_c, 2, 60, 80
3, 10068, Note_on_c, 2, 60, 0
3, 10080, Note_on_c, 2, 57, 80
3, 10080, Note_on_c, 2, 53, 80
3, 10128, Note_on_c, 2, 53, 0
3, 10128, Note_on_c, 2, 57, 0
3, 10140, Note_on_c, 2, 60, 80
3, 10188, Note_on_c, 2, 60, 0
3, 10200, Note_on_c, 2, 57, 80
3, 10200, Note_on_c, 2, 53, 80
3, 10248, Note_on_c, 2, 53, 0
3, 10248, Note_on_c, 2, 57, 0
3, 10260, Note_on_c, 2, 60, 80
3, 10308, Note_on_c, 2, 60, 0
3, 10320, Note_on_c, 2, 57, 80
3, 10320, Note_on_c, 2, 53, 80
3, 10368, Note_on_c, 2, 53, 0
3, 10368, Note_on_c, 2, 57, 0
3, 10380, Note_on_c, 2, 60, 80
3, 10428, Note_on_c, 2, 60, 0
3, 10440, Note_on_c, 2, 57, 80
3, 10440, Note_on_c, 2, 53, 80
3, 10488, Note_on_c, 2, 53, 0
3, 10488, Note_on_c, 2, 57, 0
3, 10500, Note_on_c, 2, 60, 80
3, 10548, Note_on_c, 2, 60, 0
3, 10560, Note_on_c, 2, 57, 80
3, 10560, Note_on_c, 2, 53, 80
3, 10608, Note_on_c, 2, 53, 0
3, 10608, Note_on_c, 2, 57, 0
3, 10620, Note_on_c, 2, 60, 80
3, 10668, Note_on_c, 2, 60, 0
3, 10680, Note_on_c, 2, 57, 80
3, 10680, Note_on_c, 2, 53, 80
3, 10728, Note_on_c, 2, 53, 0
3, 10728, Note_on_c, 2, 57, 0
3, 10740, Note_on_c, 2, 60, 80
3, 10788, Note_on_c, 2, 60, 0
3, 10800, Note_on_c, 2, 57, 80
3, 10800, Note_on_c, 2, 53, 80
3, 10848, Note_on_c, 2, 53, 0
3, 10848, Note_on_c, 2, 57, 0
3, 10860, Note_on_c, 2, 60, 80
3, 10908, Note_on_c, 2, 60, 0
3, 10920, Note_on_c, 2, 57, 80
3, 10920, Note_on_c, 2, 53, 80
3, 10968, Note_on_c, 2, 53, 0
3, 10968, Note_on_c, 2, 57, 0
3, 10980, Note_on_c, 2, 60, 80
3, 11028, Note_on_c, 2, 60, 0
3, 11040, Note_on_c, 2, 57, 80
3, 11040, Note_on_c, 2, 53, 80
3, 11088, Note_on_c, 2, 53, 0
3, 11088, Note_on_c, 2, 57, 0
3, 11100, Note_on_c, 2, 60, 80
3, 11148, Note_on_c, 2, 60, 0
3, 11160, Note_on_c, 2, 57, 80
3, 11160, Note_on_c, 2, 53, 80
3, 11208, Note_on_c, 2, 53, 0
3, 11208, Note_on_c, 2, 57, 0
3, 11220, Note_on_c, 2, 60, 80
3, 11268, Note_on_c, 2, 60, 0
3, 11280, Note_on_c, 2, 57, 80
3, 11280, Note_on_c, 2, 53, 80
3, 11328, Note_on_c, 2, 53, 0
3, 11328, Note_on_c, 2, 57, 0
3, 11340, Note_on_c, 2, 60, 80
3, 11388, Note_on_c, 2, 60, 0
3, 11400, Note_on_c, 2, 57, 80
3, 11400, Note_on_c, 2, 53, 80
3, 11448, Note_on_c, 2, 53, 0
3, 11448, Note_on_c, 2, 57, 0
3, 11460, Note_on_c, 2, 60, 80
3, 11508, Note_on_c, 2, 60, 0
3, 11520, Note_on_c, 2, 53, 80
3, 11520, Note_on_c, 2, 57, 80
3, 11568, Note_on_c, 2, 57, 0
3, 11568, Note_on_c, 2, 53, 0
3, 11580, Note_on_c, 2, 60, 80
3, 11637, Note_on_c, 2, 60, 0
3, 11640, Note_on_c, 2, 57, 80
3, 11640, Note_on_c, 2, 53, 80
3, 11688, Note_on_c, 2, 53, 0
3, 11688, Note_on_c, 2, 57, 0
3, 11700, Note_on_c, 2, 60, 80
3, 11757, Note_on_c, 2, 60, 0
3, 11760, Note_on_c, 2, 57, 80
3, 11760, Note_on_c, 2, 53, 80
3, 11808, Note_on_c, 2, 53, 0
3, 11808, Note_on_c, 2, 57, 0
3, 11820, Note_on_c, 2, 60, 80
3, 11877, Note_on_c, 2, 60, 0
3, 11880, Note_on_c, 2, 57, 80
3, 11880, Note_on_c, 2, 53, 80
3, 11928, Note_on_c, 2, 53, 0
3, 11928, Note_on_c, 2, 57, 0
3, 11940, Note_on_c, 2, 60, 80
3, 11997, Note_on_c, 2, 60, 0
3, 12000, Note_on_c, 2, 53, 80
3, 12000, Note_on_c, 2, 57, 80
3, 12048, Note_on_c, 2, 57, 0
3, 12048, Note_on_c, 2, 53, 0
3, 12060, Note_on_c, 2, 60, 80
3, 12117, Note_on_c, 2, 60, 0
3, 12120, Note_on_c, 2, 53, 80
3, 12120, Note_on_c, 2, 57, 80
3, 12168, Note_on_c, 2, 57, 0
3, 12168, Note_on_c, 2, 53, 0
3, 12180, Note_on_c, 2, 60, 80
3, 12237, Note_on_c, 2, 60, 0
3, 12240, Note_on_c, 2, 53, 80
3, 12240, Note_on_c, 2, 57, 80
3, 12288, Note_on_c, 2, 57, 0
3, 12288, Note_on_c, 2, 53, 0
3, 12300, Note_on_c, 2, 60, 80
3, 12357, Note_on_c, 2, 60, 0
3, 12360, Note_on_c, 2, 53, 80
3, 12360, Note_on_c, 2, 57, 80
3, 12408, Note_on_c, 2, 57, 0
3, 12408, Note_on_c, 2, 53, 0
3, 12420, Note_on_c, 2, 60, 80
3, 12477, Note_on_c, 2, 60, 0
3, 12480, Note_on_c, 2, 53, 80
3, 12480, Note_on_c, 2, 58, 80
3, 12480, Note_on_c, 2, 55, 80
3, 12528, Note_on_c, 2, 55, 0
3, 12528, Note_on_c, 2, 58, 0
3, 12528, Note_on_c, 2, 53, 0
3, 12540, Note_on_c, 2, 62, 80
3, 12588, Note_on_c, 2, 62, 0
3, 12600, Note_on_c, 2, 53, 80
3, 12600, Note_on_c, 2, 58, 80
3, 12600, Note_on_c, 2, 55, 80
3, 12648, Note_on_c, 2, 55, 0
3, 12648, Note_on_c, 2, 58, 0
3, 12648, Note_on_c, 2, 53, 0
3, 12660, Note_on_c, 2, 62, 80
3, 12708, Note_on_c, 2, 62, 0
3, 12720, Note_on_c, 2, 53, 80
3, 12720, Note_on_c, 2, 58, 80
3, 12720, Note_on_c, 2, 55, 80
3, 12768, Note_on_c, 2, 55, 0
3, 12768, Note_on_c, 2, 58, 0
3, 12768, Note_on_c, 2, 53, 0
3, 12780, Note_on_c, 2, 62, 80
3, 12828, Note_on_c, 2, 62, 0
3, 12840, Note_on_c, 2, 53, 80
3, 12840, Note_on_c, 2, 58, 80
3, 12840, Note_on_c, 2, 55, 80
3, 12888, Note_on_c, 2, 55, 0
3, 12888, Note_on_c, 2, 58, 0
3, 12888, Note_on_c, 2, 53, 0
3, 12900, Note_on_c, 2, 62, 80
3, 12948, Note_on_c, 2, 62, 0
3, 12960, Note_on_c, 2, 58, 80
3, 12960, Note_on_c, 2, 55, 80
3, 12960, Note_on_c, 2, 53, 80
3, 13008, Note_on_c, 2, 53, 0
3, 13008, Note_on_c, 2, 55, 0
3, 13008, Note_on_c, 2, 58, 0
3, 13020, Note_on_c, 2, 62, 80
3, 13068, Note_on_c, 2, 62, 0
3, 13080, Note_on_c, 2, 58, 80
3, 13080, Note_on_c, 2, 55, 80
3, 13080, Note_on_c, 2, 53, 80
3, 13128, Note_on_c, 2, 53, 0
3, 13128, Note_on_c, 2, 55, 0
3, 13128, Note_on_c, 2, 58, 0
3, 13140, Note_on_c, 2, 62, 80
3, 13188, Note_on_c, 2, 62, 0
3, 13200, Note_on_c, 2, 58, 80
3, 13200, Note_on_c, 2, 55, 80
3, 13200, Note_on_c, 2, 53, 80
3, 13248, Note_on_c, 2, 53, 0
3, 13248, Note_on_c, 2, 55, 0
3, 13248, Note_on_c, 2, 58, 0
3, 13260, Note_on_c, 2, 62, 80
3, 13308, Note_on_c, 2, 62, 0
3, 13320, Note_on_c, 2, 58, 80
3, 13320, Note_on_c, 2, 53, 80
3, 13368, Note_on_c, 2, 53, 0
3, 13368, Note_on_c, 2, 58, 0
3, 13380, Note_on_c, 2, 62, 80
3, 13428, Note_on_c, 2, 62, 0
3, 13440, Note_on_c, 2, 55, 80
3, 13440, Note_on_c, 2, 52, 80
3, 13488, Note_on_c, 2, 52, 0
3, 13488, Note_on_c, 2, 55, 0
3, 13500, Note_on_c, 2, 60, 80
3, 13548, Note_on_c, 2, 60, 0
3, 13560, Note_on_c, 2, 55, 80
3, 13560, Note_on_c, 2, 52, 80
3, 13608, Note_on_c, 2, 52, 0
3, 13608, Note_on_c, 2, 55, 0
3, 13620, Note_on_c, 2, 60, 80
3, 13668, Note_on_c, 2, 60, 0
3, 13680, Note_on_c, 2, 55, 80
3, 13680, Note_on_c, 2, 52, 80
3, 13728, Note_on_c, 2, 52, 0
3, 13728, Note_on_c, 2, 55, 0
3, 13740, Note_on_c, 2, 60, 80
3, 13788, Note_on_c, 2, 60, 0
3, 13800, Note_on_c, 2, 55, 80
3, 13800, Note_on_c, 2, 52, 80
3, 13848, Note_on_c, 2, 52, 0
3, 13848, Note_on_c, 2, 55, 0
3, 13860, Note_on_c, 2, 60, 80
3, 13908, Note_on_c, 2, 60, 0
3, 13920, Note_on_c, 2, 55, 80
3, 13920, Note_on_c, 2, 52, 80
3, 13968, Note_on_c, 2, 52, 0
3, 13968, Note_on_c, 2, 55, 0
3, 13980, Note_on_c, 2, 60, 80
3, 14028, Note_on_c, 2, 60, 0
3, 14040, Note_on_c, 2, 55, 80
3, 14040, Note_on_c, 2, 52, 80
3, 14088, Note_on_c, 2, 52, 0
3, 14088, Note_on_c, 2, 55, 0
3, 14100, Note_on_c, 2, 60, 80
3, 14148, Note_on_c, 2, 60, 0
3, 14160, Note_on_c, 2, 55, 80
3, 14160, Note_on_c, 2, 52, 80
3, 14208, Note_on_c, 2, 52, 0
3, 14208, Note_on_c, 2, 55, 0
3, 14220, Note_on_c, 2, 60, 80
3, 14268, Note_on_c, 2, 60, 0
3, 14280, Note_on_c, 2, 55, 80
3, 14280, Note_on_c, 2, 52, 80
3, 14328, Note_on_c, 2, 52, 0
3, 14328, Note_on_c, 2, 55, 0
3, 14340, Note_on_c, 2, 60, 80
3, 14388, Note_on_c, 2, 60, 0
3, 14400, Note_on_c, 2, 57, 80
3, 14400, Note_on_c, 2, 53, 80
3, 14448, Note_on_c, 2, 53, 0
3, 14448, Note_on_c, 2, 57, 0
3, 14460, Note_on_c, 2, 60, 80
3, 14508, Note_on_c, 2, 60, 0
3, 14520, Note_on_c, 2, 57, 80
3, 14520, Note_on_c, 2, 53, 80
3, 14568, Note_on_c, 2, 53, 0
3, 14568, Note_on_c, 2, 57, 0
3, 14580, Note_on_c, 2, 60, 80
3, 14628, Note_on_c, 2, 60, 0
3, 14640, Note_on_c, 2, 57, 90
3, 14640, Note_on_c, 2, 53, 90
3, 14688, Note_on_c, 2, 53, 0
3, 14688, Note_on_c, 2, 57, 0
3, 14700, Note_on_c, 2, 60, 90
3, 14748, Note_on_c, 2, 60, 0
3, 14760, Note_on_c, 2, 57, 90
3, 14760, Note_on_c, 2, 53, 90
3, 14808, Note_on_c, 2, 53, 0
3, 14808, Note_on_c, 2, 57, 0
3, 14820, Note_on_c, 2, 60, 90
3, 14868, Note_on_c, 2, 60, 0
3, 14880, Note_on_c, 2, 51, 100
3, 14928, Note_on_c, 2, 51, 0
3, 14940, Note_on_c, 2, 60, 100
3, 14940, Note_on_c, 2, 57, 100
3, 14988, Note_on_c, 2, 57, 0
3, 14988, Note_on_c, 2, 60, 0
3, 15000, Note_on_c, 2, 51, 100
3, 15048, Note_on_c, 2, 51, 0
3, 15060, Note_on_c, 2, 60, 100
3, 15060, Note_on_c, 2, 57, 100
3, 15108, Note_on_c, 2, 57, 0
3, 15108, Note_on_c, 2, 60, 0
3, 15120, Note_on_c, 2, 60, 105
3, 15120, Note_on_c, 2, 57, 105
3, 15120, Note_on_c, 2, 51, 105
3, 15216, Note_on_c, 2, 51, 0
3, 15216, Note_on_c, 2, 57, 0
3, 15216, Note_on_c, 2, 60, 0
3, 15240, Note_on_c, 2, 60, 105
3, 15240, Note_on_c, 2, 57, 105
3, 15336, Note_on_c, 2, 57, 0
3, 15336, Note_on_c, 2, 60, 0
3, 15360, Note_on_c, 2, 62, 112
3, 15360, Note_on_c, 2, 58, 112
3, 15360, Note_on_c, 2, 53, 112
3, 15528, Note_on_c, 2, 53, 0
3, 15528, Note_on_c, 2, 58, 0
3, 15528, Note_on_c, 2, 62, 0
3, 16320, Note_on_c, 2, 62, 112
3, 16368, Note_on_c, 2, 62, 0
3, 16440, Note_on_c, 2, 62, 80
3, 16488, Note_on_c, 2, 62, 0
3, 16560, Note_on_c, 2, 62, 80
3, 16608, Note_on_c, 2, 62, 0
3, 16680, Note_on_c, 2, 62, 80
3, 16728, Note_on_c, 2, 62, 0
3, 16800, Note_on_c, 2, 60, 112
3, 16848, Note_on_c, 2, 60, 0
3, 16920, Note_on_c, 2, 60, 80
3, 16968, Note_on_c, 2, 60, 0
3, 17040, Note_on_c, 2, 60, 80
3, 17088, Note_on_c, 2, 60, 0
3, 17160, Note_on_c, 2, 60, 80
3, 17208, Note_on_c, 2, 60, 0
3, 17280, Note_on_c, 2, 59, 80
3, 17364, Note_on_c, 2, 59, 0
3, 17400, Note_on_c, 2, 59, 80
3, 17484, Note_on_c, 2, 59, 0
3, 17520, Note_on_c, 2, 59, 80
3, 17604, Note_on_c, 2, 59, 0
3, 17640, Note_on_c, 2, 59, 80
3, 17724, Note_on_c, 2, 59, 0
3, 17760, Note_on_c, 2, 59, 96
3, 17844, Note_on_c, 2, 59, 0
3, 17880, Note_on_c, 2, 59, 80
3, 17964, Note_on_c, 2, 59, 0
3, 18000, Note_on_c, 2, 59, 80
3, 18084, Note_on_c, 2, 59, 0
3, 18120, Note_on_c, 2, 59, 80
3, 18204, Note_on_c, 2, 59, 0
3, 18240, Note_on_c, 2, 60, 80
3, 18354, Note_on_c, 2, 60, 0
3, 18360, Note_on_c, 2, 60, 85
3, 18474, Note_on_c, 2, 60, 0
3, 18480, Note_on_c, 2, 59, 96
3, 18594, Note_on_c, 2, 59, 0
3, 18600, Note_on_c, 2, 60, 80
3, 18714, Note_on_c, 2, 60, 0
3, 18720, Note_on_c, 2, 59, 96
3, 18834, Note_on_c, 2, 59, 0
3, 18840, Note_on_c, 2, 60, 80
3, 18954, Note_on_c, 2, 60, 0
3, 18960, Note_on_c, 2, 58, 80
3, 19008, Note_on_c, 2, 58, 0
3, 19080, Note_on_c, 2, 55, 80
3, 19128, Note_on_c, 2, 55, 0
3, 19200, Note_on_c, 2, 57, 112
3, 19314, Note_on_c, 2, 57, 0
3, 19320, Note_on_c, 2, 60, 112
3, 19434, Note_on_c, 2, 60, 0
3, 19440, Note_on_c, 2, 57, 112
3, 19488, Note_on_c, 2, 57, 0
3, 19560, Note_on_c, 2, 53, 112
3, 19608, Note_on_c, 2, 53, 0
3, 19680, Note_on_c, 2, 52, 112
3, 19794, Note_on_c, 2, 52, 0
3, 19800, Note_on_c, 2, 55, 112
3, 19914, Note_on_c, 2, 55, 0
3, 19920, Note_on_c, 2, 52, 112
3, 19968, Note_on_c, 2, 52, 0
3, 20040, Note_on_c, 2, 48, 112
3, 20088, Note_on_c, 2, 48, 0
3, 20160, Note_on_c, 2, 53, 112
3, 20274, Note_on_c, 2, 53, 0
3, 20280, Note_on_c, 2, 60, 112
3, 20394, Note_on_c, 2, 60, 0
3, 20400, Note_on_c, 2, 59, 112
3, 20514, Note_on_c, 2, 59, 0
3, 20520, Note_on_c, 2, 60, 112
3, 20634, Note_on_c, 2, 60, 0
3, 20640, Note_on_c, 2, 59, 112
3, 20754, Note_on_c, 2, 59, 0
3, 20760, Note_on_c, 2, 60, 112
3, 20874, Note_on_c, 2, 60, 0
3, 20880, Note_on_c, 2, 58, 96
3, 20928, Note_on_c, 2, 58, 0
3, 21000, Note_on_c, 2, 55, 96
3, 21048, Note_on_c, 2, 55, 0
3, 21120, Note_on_c, 2, 57, 112
3, 21234, Note_on_c, 2, 57, 0
3, 21240, Note_on_c, 2, 60, 112
3, 21354, Note_on_c, 2, 60, 0
3, 21360, Note_on_c, 2, 57, 112
3, 21408, Note_on_c, 2, 57, 0
3, 21480, Note_on_c, 2, 53, 112
3, 21528, Note_on_c, 2, 53, 0
3, 21600, Note_on_c, 2, 52, 112
3, 21714, Note_on_c, 2, 52, 0
3, 21720, Note_on_c, 2, 55, 112
3, 21834, Note_on_c, 2, 55, 0
3, 21840, Note_on_c, 2, 52, 112
3, 21888, Note_on_c, 2, 52, 0
3, 21960, Note_on_c, 2, 48, 112
3, 22008, Note_on_c, 2, 48, 0
3, 22080, Note_on_c, 2, 65, 112
3, 22116, Note_on_c, 2, 65, 0
3, 22200, Note_on_c, 2, 65, 80
3, 22236, Note_on_c, 2, 65, 0
3, 22320, Note_on_c, 2, 65, 80
3, 22356, Note_on_c, 2, 65, 0
3, 22440, Note_on_c, 2, 65, 80
3, 22476, Note_on_c, 2, 65, 0
3, 22560, Note_on_c, 2, 65, 80
3, 22596, Note_on_c, 2, 65, 0
3, 22680, Note_on_c, 2, 65, 80
3, 22716, Note_on_c, 2, 65, 0
3, 22800, Note_on_c, 2, 65, 80
3, 22836, Note_on_c, 2, 65, 0
3, 22920, Note_on_c, 2, 65, 80
3, 22956, Note_on_c, 2, 65, 0
3, 23040, Note_on_c, 2, 64, 80
3, 23088, Note_on_c, 2, 64, 0
3, 23160, Note_on_c, 2, 76, 64
3, 23208, Note_on_c, 2, 76, 0
3, 23280, Note_on_c, 2, 76, 64
3, 23328, Note_on_c, 2, 76, 0
3, 23400, Note_on_c, 2, 76, 64
3, 23448, Note_on_c, 2, 76, 0
3, 23520, Note_on_c, 2, 76, 64
3, 23568, Note_on_c, 2, 76, 0
3, 23640, Note_on_c, 2, 76, 64
3, 23688, Note_on_c, 2, 76, 0
3, 23760, Note_on_c, 2, 76, 64
3, 23808, Note_on_c, 2, 76, 0
3, 23880, Note_on_c, 2, 76, 64
3, 23928, Note_on_c, 2, 76, 0
3, 24000, Note_on_c, 2, 74, 80
3, 24120, Note_on_c, 2, 74, 0
3, 24120, Note_on_c, 2, 62, 80
3, 24156, Note_on_c, 2, 62, 0
3, 24240, Note_on_c, 2, 62, 80
3, 24276, Note_on_c, 2, 62, 0
3, 24360, Note_on_c, 2, 62, 80
3, 24396, Note_on_c, 2, 62, 0
3, 24480, Note_on_c, 2, 62, 80
3, 24516, Note_on_c, 2, 62, 0
3, 24600, Note_on_c, 2, 62, 80
3, 24636, Note_on_c, 2, 62, 0
3, 24720, Note_on_c, 2, 62, 80
3, 24756, Note_on_c, 2, 62, 0
3, 24840, Note_on_c, 2, 62, 80
3, 24876, Note_on_c, 2, 62, 0
3, 24960, Note_on_c, 2, 60, 80
3, 25080, Note_on_c, 2, 60, 0
3, 25080, Note_on_c, 2, 72, 64
3, 25128, Note_on_c, 2, 72, 0
3, 25200, Note_on_c, 2, 72, 64
3, 25248, Note_on_c, 2, 72, 0
3, 25320, Note_on_c, 2, 72, 64
3, 25368, Note_on_c, 2, 72, 0
3, 25440, Note_on_c, 2, 72, 64
3, 25488, Note_on_c, 2, 72, 0
3, 25560, Note_on_c, 2, 72, 64
3, 25608, Note_on_c, 2, 72, 0
3, 25680, Note_on_c, 2, 72, 64
3, 25728, Note_on_c, 2, 72, 0
3, 25800, Note_on_c, 2, 72, 64
3, 25848, Note_on_c, 2, 72, 0
3, 25920, Note_on_c, 2, 70, 64
3, 26040, Note_on_c, 2, 70, 0
3, 26040, Note_on_c, 2, 58, 80
3, 26076, Note_on_c, 2, 58, 0
3, 26160, Note_on_c, 2, 58, 80
3, 26196, Note_on_c, 2, 58, 0
3, 26280, Note_on_c, 2, 58, 80
3, 26316, Note_on_c, 2, 58, 0
3, 26400, Note_on_c, 2, 58, 80
3, 26436, Note_on_c, 2, 58, 0
3, 26520, Note_on_c, 2, 58, 80
3, 26556, Note_on_c, 2, 58, 0
3, 26640, Note_on_c, 2, 58, 80
3, 26676, Note_on_c, 2, 58, 0
3, 26760, Note_on_c, 2, 58, 80
3, 26796, Note_on_c, 2, 58, 0
3, 26880, Note_on_c, 2, 57, 80
3, 27024, Note_on_c, 2, 57, 0
3, 27360, Note_on_c, 2, 64, 90
3, 27504, Note_on_c, 2, 64, 0
3, 27840, Note_on_c, 2, 65, 100
3, 27984, Note_on_c, 2, 65, 0
3, 30240, Note_on_c, 2, 62, 96
3, 30276, Note_on_c, 2, 62, 0
3, 30360, Note_on_c, 2, 62, 64
3, 30396, Note_on_c, 2, 62, 0
3, 30480, Note_on_c, 2, 62, 64
3, 30516, Note_on_c, 2, 62, 0
3, 30600, Note_on_c, 2, 62, 64
3, 30636, Note_on_c, 2, 62, 0
3, 30720, Note_on_c, 2, 58, 96
3, 30756, Note_on_c, 2, 58, 0
3, 30840, Note_on_c, 2, 58, 64
3, 30876, Note_on_c, 2, 58, 0
3, 30960, Note_on_c, 2, 58, 64
3, 30996, Note_on_c, 2, 58, 0
3, 31080, Note_on_c, 2, 58, 64
3, 31116, Note_on_c, 2, 58, 0
3, 31200, Note_on_c, 2, 55, 96
3, 31236, Note_on_c, 2, 55, 0
3, 31320, Note_on_c, 2, 55, 64
3, 31356, Note_on_c, 2, 55, 0
3, 31440, Note_on_c, 2, 55, 64
3, 31476, Note_on_c, 2, 55, 0
3, 31560, Note_on_c, 2, 55, 64
3, 31596, Note_on_c, 2, 55, 0
3, 31680, Note_on_c, 2, 60, 80
3, 31716, Note_on_c, 2, 60, 0
3, 31800, Note_on_c, 2, 60, 80
3, 31836, Note_on_c, 2, 60, 0
3, 31920, Note_on_c, 2, 60, 80
3, 31956, Note_on_c, 2, 60, 0
3, 32040, Note_on_c, 2, 60, 80
3, 32076, Note_on_c, 2, 60, 0
3, 32160, Note_on_c, 2, 60, 80
3, 32196, Note_on_c, 2, 60, 0
3, 32280, Note_on_c, 2, 60, 80
3, 32376, Note_on_c, 2, 60, 0
3, 32400, Note_on_c, 2, 60, 80
3, 32496, Note_on_c, 2, 60, 0
3, 32520, Note_on_c, 2, 60, 80
3, 32616, Note_on_c, 2, 60, 0
3, 32640, Note_on_c, 2, 53, 112
3, 32736, Note_on_c, 2, 53, 0
3, 32880, Note_on_c, 2, 65, 80
3, 32916, Note_on_c, 2, 65, 0
3, 33000, Note_on_c, 2, 65, 80
3, 33036, Note_on_c, 2, 65, 0
3, 33120, Note_on_c, 2, 65, 80
3, 33156, Note_on_c, 2, 65, 0
3, 33240, Note_on_c, 2, 65, 80
3, 33276, Note_on_c, 2, 65, 0
3, 33360, Note_on_c, 2, 65, 80
3, 33396, Note_on_c, 2, 65, 0
3, 33480, Note_on_c, 2, 65, 80
3, 33516, Note_on_c, 2, 65, 0
3, 33600, Note_on_c, 2, 64, 80
3, 33720, Note_on_c, 2, 64, 0
3, 33720, Note_on_c, 2, 76, 64
3, 33756, Note_on_c, 2, 76, 0
3, 33840, Note_on_c, 2, 76, 64
3, 33876, Note_on_c, 2, 76, 0
3, 33960, Note_on_c, 2, 76, 64
3, 33996, Note_on_c, 2, 76, 0
3, 34080, Note_on_c, 2, 76, 64
3, 34116, Note_on_c, 2, 76, 0
3, 34200, Note_on_c, 2, 76, 64
3, 34236, Note_on_c, 2, 76, 0
3, 34320, Note_on_c, 2, 76, 64
3, 34356, Note_on_c, 2, 76, 0
3, 34440, Note_on_c, 2, 76, 64
3, 34476, Note_on_c, 2, 76, 0
3, 34560, Note_on_c, 2, 74, 64
3, 34680, Note_on_c, 2, 74, 0
3, 34680, Note_on_c, 2, 62, 80
3, 34716, Note_on_c, 2, 62, 0
3, 34800, Note_on_c, 2, 62, 80
3, 34836, Note_on_c, 2, 62, 0
3, 34920, Note_on_c, 2, 62, 80
3, 34956, Note_on_c, 2, 62, 0
3, 35040, Note_on_c, 2, 62, 80
3, 35076, Note_on_c, 2, 62, 0
3, 35160, Note_on_c, 2, 62, 80
3, 35196, Note_on_c, 2, 62, 0
3, 35280, Note_on_c, 2, 62, 80
3, 35316, Note_on_c, 2, 62, 0
3, 35400, Note_on_c, 2, 62, 80
3, 35436, Note_on_c, 2, 62, 0
3, 35520, Note_on_c, 2, 60, 80
3, 35640, Note_on_c, 2, 60, 0
3, 35640, Note_on_c, 2, 72, 64
3, 35676, Note_on_c, 2, 72, 0
3, 35760, Note_on_c, 2, 72, 64
3, 35796, Note_on_c, 2, 72, 0
3, 35880, Note_on_c, 2, 72, 64
3, 35916, Note_on_c, 2, 72, 0
3, 36000, Note_on_c, 2, 72, 64
3, 36036, Note_on_c, 2, 72, 0
3, 36120, Note_on_c, 2, 72, 64
3, 36156, Note_on_c, 2, 72, 0
3, 36240, Note_on_c, 2, 72, 64
3, 36276, Note_on_c, 2, 72, 0
3, 36360, Note_on_c, 2, 72, 64
3, 36396, Note_on_c, 2, 72, 0
3, 36480, Note_on_c, 2, 70, 64
3, 36600, Note_on_c, 2, 70, 0
3, 36600, Note_on_c, 2, 58, 80
3, 36636, Note_on_c, 2, 58, 0
3, 36720, Note_on_c, 2, 58, 80
3, 36756, Note_on_c, 2, 58, 0
3, 36840, Note_on_c, 2, 58, 80
3, 36876, Note_on_c, 2, 58, 0
3, 36960, Note_on_c, 2, 58, 80
3, 36996, Note_on_c, 2, 58, 0
3, 37080, Note_on_c, 2, 58, 80
3, 37116, Note_on_c, 2, 58, 0
3, 37200, Note_on_c, 2, 58, 80
3, 37236, Note_on_c, 2, 58, 0
3, 37320, Note_on_c, 2, 58, 80
3, 37356, Note_on_c, 2, 58, 0
3, 37440, Note_on_c, 2, 57, 80
3, 37584, Note_on_c, 2, 57, 0
3, 37920, Note_on_c, 2, 64, 90
3, 38064, Note_on_c, 2, 64, 0
3, 38400, Note_on_c, 2, 65, 100
3, 38544, Note_on_c, 2, 65, 0
3, 40800, Note_on_c, 2, 57, 64
3, 40836, Note_on_c, 2, 57, 0
3, 40920, Note_on_c, 2, 57, 56
3, 40956, Note_on_c, 2, 57, 0
3, 41040, Note_on_c, 2, 57, 56
3, 41076, Note_on_c, 2, 57, 0
3, 41160, Note_on_c, 2, 57, 56
3, 41196, Note_on_c, 2, 57, 0
3, 41280, Note_on_c, 2, 58, 72
3, 41316, Note_on_c, 2, 58, 0
3, 41400, Note_on_c, 2, 58, 64
3, 41436, Note_on_c, 2, 58, 0
3, 41520, Note_on_c, 2, 58, 64
3, 41556, Note_on_c, 2, 58, 0
3, 41640, Note_on_c, 2, 58, 64
3, 41676, Note_on_c, 2, 58, 0
3, 41760, Note_on_c, 2, 58, 80
3, 41796, Note_on_c, 2, 58, 0
3, 41880, Note_on_c, 2, 58, 72
3, 41916, Note_on_c, 2, 58, 0
3, 42000, Note_on_c, 2, 58, 72
3, 42036, Note_on_c, 2, 58, 0
3, 42120, Note_on_c, 2, 58, 72
3, 42156, Note_on_c, 2, 58, 0
3, 42240, Note_on_c, 2, 60, 80
3, 42288, Note_on_c, 2, 60, 0
3, 42360, Note_on_c, 2, 60, 80
3, 42408, Note_on_c, 2, 60, 0
3, 42480, Note_on_c, 2, 60, 85
3, 42540, Note_on_c, 2, 60, 0
3, 42600, Note_on_c, 2, 60, 85
3, 42660, Note_on_c, 2, 60, 0
3, 42720, Note_on_c, 2, 57, 90
3, 42792, Note_on_c, 2, 57, 0
3, 42840, Note_on_c, 2, 57, 90
3, 42912, Note_on_c, 2, 57, 0
3, 42960, Note_on_c, 2, 53, 95
3, 43044, Note_on_c, 2, 53, 0
3, 43080, Note_on_c, 2, 53, 95
3, 43164, Note_on_c, 2, 53, 0
3, 43200, Note_on_c, 2, 48, 112
3, 43368, Note_on_c, 2, 48, 0
3, 43680, Note_on_c, 2, 52, 112
3, 43680, Note_on_c, 2, 55, 112
3, 43680, Note_on_c, 2, 58, 112
3, 43872, Note_on_c, 2, 58, 0
3, 43872, Note_on_c, 2, 55, 0
3, 43872, Note_on_c, 2, 52, 0
3, 44160, Note_on_c, 2, 57, 112
3, 44400, Note_on_c, 2, 57, 0
3, 44880, Note_on_c, 2, 55, 112
3, 44880, Note_on_c, 2, 58, 112
3, 45000, Note_on_c, 2, 58, 0
3, 45000, Note_on_c, 2, 55, 0
3, 45120, Note_on_c, 2, 57, 112
3, 45360, Note_on_c, 2, 57, 0
3, 45840, Note_on_c, 2, 55, 112
3, 45840, Note_on_c, 2, 58, 112
3, 45960, Note_on_c, 2, 58, 0
3, 45960, Note_on_c, 2, 55, 0
3, 46080, Note_on_c, 2, 57, 112
3, 46224, Note_on_c, 2, 57, 0
3, 46320, Note_on_c, 2, 50, 112
3, 46392, Note_on_c, 2, 50, 0
3, 46440, Note_on_c, 2, 53, 112
3, 46512, Note_on_c, 2, 53, 0
3, 46560, Note_on_c, 2, 46, 112
3, 46632, Note_on_c, 2, 46, 0
3, 46680, Note_on_c, 2, 50, 112
3, 46752, Note_on_c, 2, 50, 0
3, 46800, Note_on_c, 2, 43, 112
3, 46872, Note_on_c, 2, 43, 0
3, 46920, Note_on_c, 2, 46, 112
3, 46992, Note_on_c, 2, 46, 0
3, 47040, Note_on_c, 2, 52, 112
3, 47136, Note_on_c, 2, 52, 0
3, 47280, Note_on_c, 2, 53, 112
3, 47424, Note_on_c, 2, 53, 0
3, 47520, Note_on_c, 2, 46, 112
3, 47664, Note_on_c, 2, 46, 0
3, 47760, Note_on_c, 2, 48, 112
3, 47904, Note_on_c, 2, 48, 0
3, 48000, Note_on_c, 2, 53, 112
3, 48216, Note_on_c, 2, 53, 0
3, 49080, Note_on_c, 2, 57, 96
3, 49128, Note_on_c, 2, 57, 0
3, 49200, Note_on_c, 2, 58, 96
3, 49248, Note_on_c, 2, 58, 0
3, 49320, Note_on_c, 2, 60, 96
3, 49368, Note_on_c, 2, 60, 0
3, 49440, Note_on_c, 2, 62, 96
3, 49488, Note_on_c, 2, 62, 0
3, 49560, Note_on_c, 2, 60, 96
3, 49608, Note_on_c, 2, 60, 0
3, 49680, Note_on_c, 2, 62, 96
3, 49728, Note_on_c, 2, 62, 0
3, 49800, Note_on_c, 2, 58, 96
3, 49848, Note_on_c, 2, 58, 0
3, 49920, Note_on_c, 2, 57, 96
3, 50016, Note_on_c, 2, 57, 0
3, 51000, Note_on_c, 2, 57, 96
3, 51054, Note_on_c, 2, 57, 0
3, 51120, Note_on_c, 2, 58, 96
3, 51174, Note_on_c, 2, 58, 0
3, 51240, Note_on_c, 2, 60, 96
3, 51294, Note_on_c, 2, 60, 0
3, 51360, Note_on_c, 2, 62, 96
3, 51414, Note_on_c, 2, 62, 0
3, 51480, Note_on_c, 2, 60, 96
3, 51534, Note_on_c, 2, 60, 0
3, 51600, Note_on_c, 2, 62, 96
3, 51654, Note_on_c, 2, 62, 0
3, 51720, Note_on_c, 2, 58, 96
3, 51774, Note_on_c, 2, 58, 0
3, 51840, Note_on_c, 2, 57, 64
3, 51936, Note_on_c, 2, 57, 0
3, 52920, Note_on_c, 2, 57, 96
3, 52968, Note_on_c, 2, 57, 0
3, 53040, Note_on_c, 2, 58, 96
3, 53088, Note_on_c, 2, 58, 0
3, 53160, Note_on_c, 2, 60, 96
3, 53208, Note_on_c, 2, 60, 0
3, 53280, Note_on_c, 2, 62, 96
3, 53328, Note_on_c, 2, 62, 0
3, 53400, Note_on_c, 2, 60, 96
3, 53448, Note_on_c, 2, 60, 0
3, 53520, Note_on_c, 2, 62, 96
3, 53568, Note_on_c, 2, 62, 0
3, 53640, Note_on_c, 2, 58, 96
3, 53688, Note_on_c, 2, 58, 0
3, 53760, Note_on_c, 2, 57, 64
3, 53856, Note_on_c, 2, 57, 0
3, 54840, Note_on_c, 2, 57, 96
3, 54888, Note_on_c, 2, 57, 0
3, 54960, Note_on_c, 2, 58, 96
3, 55008, Note_on_c, 2, 58, 0
3, 55080, Note_on_c, 2, 60, 96
3, 55128, Note_on_c, 2, 60, 0
3, 55200, Note_on_c, 2, 62, 96
3, 55248, Note_on_c, 2, 62, 0
3, 55320, Note_on_c, 2, 60, 96
3, 55368, Note_on_c, 2, 60, 0
3, 55440, Note_on_c, 2, 62, 96
3, 55488, Note_on_c, 2, 62, 0
3, 55560, Note_on_c, 2, 58, 96
3, 55608, Note_on_c, 2, 58, 0
3, 55680, Note_on_c, 2, 54, 112
3, 55872, Note_on_c, 2, 54, 0
3, 55920, Note_on_c, 2, 63, 64
3, 55920, Note_on_c, 2, 60, 64
3, 56016, Note_on_c, 2, 60, 0
3, 56016, Note_on_c, 2, 63, 0
3, 56040, Note_on_c, 2, 63, 64
3, 56040, Note_on_c, 2, 60, 64
3, 56136, Note_on_c, 2, 60, 0
3, 56136, Note_on_c, 2, 63, 0
3, 56160, Note_on_c, 2, 63, 64
3, 56160, Note_on_c, 2, 60, 64
3, 56256, Note_on_c, 2, 60, 0
3, 56256, Note_on_c, 2, 63, 0
3, 56280, Note_on_c, 2, 63, 64
3, 56280, Note_on_c, 2, 60, 64
3, 56376, Note_on_c, 2, 60, 0
3, 56376, Note_on_c, 2, 63, 0
3, 56400, Note_on_c, 2, 63, 64
3, 56400, Note_on_c, 2, 60, 64
3, 56496, Note_on_c, 2, 60, 0
3, 56496, Note_on_c, 2, 63, 0
3, 56520, Note_on_c, 2, 62, 64
3, 56520, Note_on_c, 2, 60, 64
3, 56616, Note_on_c, 2, 60, 0
3, 56616, Note_on_c, 2, 62, 0
3, 56640, Note_on_c, 2, 60, 64
3, 56640, Note_on_c, 2, 62, 64
3, 56736, Note_on_c, 2, 62, 0
3, 56736, Note_on_c, 2, 60, 0
3, 56760, Note_on_c, 2, 60, 64
3, 56760, Note_on_c, 2, 62, 64
3, 56856, Note_on_c, 2, 62, 0
3, 56856, Note_on_c, 2, 60, 0
3, 56880, Note_on_c, 2, 60, 64
3, 56880, Note_on_c, 2, 62, 64
3, 56976, Note_on_c, 2, 62, 0
3, 56976, Note_on_c, 2, 60, 0
3, 57000, Note_on_c, 2, 60, 64
3, 57000, Note_on_c, 2, 62, 64
3, 57096, Note_on_c, 2, 62, 0
3, 57096, Note_on_c, 2, 60, 0
3, 57120, Note_on_c, 2, 62, 64
3, 57216, Note_on_c, 2, 62, 0
3, 57240, Note_on_c, 2, 62, 64
3, 57336, Note_on_c, 2, 62, 0
3, 57360, Note_on_c, 2, 62, 64
3, 57456, Note_on_c, 2, 62, 0
3, 57480, Note_on_c, 2, 60, 64
3, 57576, Note_on_c, 2, 60, 0
3, 57600, Note_on_c, 2, 58, 64
3, 57792, Note_on_c, 2, 58, 0
3, 58680, Note_on_c, 2, 58, 96
3, 58728, Note_on_c, 2, 58, 0
3, 58800, Note_on_c, 2, 60, 96
3, 58848, Note_on_c, 2, 60, 0
3, 58920, Note_on_c, 2, 62, 96
3, 58968, Note_on_c, 2, 62, 0
3, 59040, Note_on_c, 2, 63, 96
3, 59088, Note_on_c, 2, 63, 0
3, 59160, Note_on_c, 2, 62, 96
3, 59208, Note_on_c, 2, 62, 0
3, 59280, Note_on_c, 2, 63, 96
3, 59328, Note_on_c, 2, 63, 0
3, 59400, Note_on_c, 2, 60, 96
3, 59448, Note_on_c, 2, 60, 0
3, 59520, Note_on_c, 2, 58, 64
3, 59568, Note_on_c, 2, 58, 0
3, 60600, Note_on_c, 2, 58, 96
3, 60660, Note_on_c, 2, 58, 0
3, 60720, Note_on_c, 2, 60, 96
3, 60780, Note_on_c, 2, 60, 0
3, 60840, Note_on_c, 2, 62, 96
3, 60900, Note_on_c, 2, 62, 0
3, 60960, Note_on_c, 2, 63, 96
3, 61020, Note_on_c, 2, 63, 0
3, 61080, Note_on_c, 2, 62, 96
3, 61140, Note_on_c, 2, 62, 0
3, 61200, Note_on_c, 2, 63, 96
3, 61260, Note_on_c, 2, 63, 0
3, 61320, Note_on_c, 2, 60, 96
3, 61380, Note_on_c, 2, 60, 0
3, 61440, Note_on_c, 2, 56, 96
3, 61632, Note_on_c, 2, 56, 0
3, 61680, Note_on_c, 2, 65, 64
3, 61680, Note_on_c, 2, 62, 64
3, 61680, Note_on_c, 2, 59, 64
3, 61740, Note_on_c, 2, 59, 0
3, 61740, Note_on_c, 2, 62, 0
3, 61740, Note_on_c, 2, 65, 0
3, 61800, Note_on_c, 2, 65, 64
3, 61800, Note_on_c, 2, 62, 64
3, 61800, Note_on_c, 2, 59, 64
3, 61860, Note_on_c, 2, 59, 0
3, 61860, Note_on_c, 2, 62, 0
3, 61860, Note_on_c, 2, 65, 0
3, 61920, Note_on_c, 2, 65, 64
3, 61920, Note_on_c, 2, 62, 64
3, 61920, Note_on_c, 2, 59, 64
3, 61980, Note_on_c, 2, 59, 0
3, 61980, Note_on_c, 2, 62, 0
3, 61980, Note_on_c, 2, 65, 0
3, 62040, Note_on_c, 2, 65, 64
3, 62040, Note_on_c, 2, 62, 64
3, 62040, Note_on_c, 2, 59, 64
3, 62100, Note_on_c, 2, 59, 0
3, 62100, Note_on_c, 2, 62, 0
3, 62100, Note_on_c, 2, 65, 0
3, 62160, Note_on_c, 2, 65, 64
3, 62160, Note_on_c, 2, 62, 64
3, 62160, Note_on_c, 2, 59, 64
3, 62220, Note_on_c, 2, 59, 0
3, 62220, Note_on_c, 2, 62, 0
3, 62220, Note_on_c, 2, 65, 0
3, 62280, Note_on_c, 2, 65, 64
3, 62280, Note_on_c, 2, 62, 64
3, 62280, Note_on_c, 2, 59, 64
3, 62340, Note_on_c, 2, 59, 0
3, 62340, Note_on_c, 2, 62, 0
3, 62340, Note_on_c, 2, 65, 0
3, 62400, Note_on_c, 2, 62, 64
3, 62400, Note_on_c, 2, 64, 64
3, 62460, Note_on_c, 2, 64, 0
3, 62460, Note_on_c, 2, 62, 0
3, 62520, Note_on_c, 2, 62, 64
3, 62520, Note_on_c, 2, 64, 64
3, 62580, Note_on_c, 2, 64, 0
3, 62580, Note_on_c, 2, 62, 0
3, 62640, Note_on_c, 2, 62, 64
3, 62640, Note_on_c, 2, 64, 64
3, 62700, Note_on_c, 2, 64, 0
3, 62700, Note_on_c, 2, 62, 0
3, 62760, Note_on_c, 2, 62, 64
3, 62760, Note_on_c, 2, 64, 64
3, 62820, Note_on_c, 2, 64, 0
3, 62820, Note_on_c, 2, 62, 0
3, 62880, Note_on_c, 2, 62, 64
3, 62880, Note_on_c, 2, 64, 64
3, 62940, Note_on_c, 2, 64, 0
3, 62940, Note_on_c, 2, 62, 0
3, 63000, Note_on_c, 2, 62, 64
3, 63000, Note_on_c, 2, 64, 64
3, 63060, Note_on_c, 2, 64, 0
3, 63060, Note_on_c, 2, 62, 0
3, 63120, Note_on_c, 2, 62, 64
3, 63120, Note_on_c, 2, 64, 64
3, 63180, Note_on_c, 2, 64, 0
3, 63180, Note_on_c, 2, 62, 0
3, 63240, Note_on_c, 2, 62, 64
3, 63240, Note_on_c, 2, 64, 64
3, 63300, Note_on_c, 2, 64, 0
3, 63300, Note_on_c, 2, 62, 0
3, 64560, Note_on_c, 2, 64, 64
3, 64560, Note_on_c, 2, 61, 64
3, 64560, Note_on_c, 2, 57, 64
3, 64788, Note_on_c, 2, 57, 0
3, 64788, Note_on_c, 2, 61, 0
3, 64788, Note_on_c, 2, 64, 0
3, 64800, Note_on_c, 2, 64, 64
3, 64800, Note_on_c, 2, 61, 64
3, 64800, Note_on_c, 2, 57, 64
3, 65028, Note_on_c, 2, 57, 0
3, 65028, Note_on_c, 2, 61, 0
3, 65028, Note_on_c, 2, 64, 0
3, 65040, Note_on_c, 2, 64, 64
3, 65040, Note_on_c, 2, 61, 64
3, 65040, Note_on_c, 2, 57, 64
3, 65268, Note_on_c, 2, 57, 0
3, 65268, Note_on_c, 2, 61, 0
3, 65268, Note_on_c, 2, 64, 0
3, 65280, Note_on_c, 2, 45, 64
3, 65508, Note_on_c, 2, 45, 0
3, 65520, Note_on_c, 2, 57, 64
3, 65520, Note_on_c, 2, 62, 64
3, 65520, Note_on_c, 2, 65, 64
3, 65748, Note_on_c, 2, 65, 0
3, 65748, Note_on_c, 2, 62, 0
3, 65748, Note_on_c, 2, 57, 0
3, 65760, Note_on_c, 2, 57, 64
3, 65760, Note_on_c, 2, 62, 64
3, 65760, Note_on_c, 2, 65, 64
3, 65988, Note_on_c, 2, 65, 0
3, 65988, Note_on_c, 2, 62, 0
3, 65988, Note_on_c, 2, 57, 0
3, 66000, Note_on_c, 2, 57, 64
3, 66000, Note_on_c, 2, 62, 64
3, 66000, Note_on_c, 2, 65, 64
3, 66228, Note_on_c, 2, 65, 0
3, 66228, Note_on_c, 2, 62, 0
3, 66228, Note_on_c, 2, 57, 0
3, 66240, Note_on_c, 2, 45, 64
3, 66468, Note_on_c, 2, 45, 0
3, 66480, Note_on_c, 2, 64, 64
3, 66480, Note_on_c, 2, 61, 64
3, 66480, Note_on_c, 2, 57, 64
3, 66708, Note_on_c, 2, 57, 0
3, 66708, Note_on_c, 2, 61, 0
3, 66708, Note_on_c, 2, 64, 0
3, 66720, Note_on_c, 2, 64, 64
3, 66720, Note_on_c, 2, 61, 64
3, 66720, Note_on_c, 2, 57, 64
3, 66948, Note_on_c, 2, 57, 0
3, 66948, Note_on_c, 2, 61, 0
3, 66948, Note_on_c, 2, 64, 0
3, 66960, Note_on_c, 2, 64, 64
3, 66960, Note_on_c, 2, 61, 64
3, 66960, Note_on_c, 2, 57, 64
3, 67188, Note_on_c, 2, 57, 0
3, 67188, Note_on_c, 2, 61, 0
3, 67188, Note_on_c, 2, 64, 0
3, 67200, Note_on_c, 2, 45, 64
3, 67428, Note_on_c, 2, 45, 0
3, 67440, Note_on_c, 2, 57, 64
3, 67440, Note_on_c, 2, 62, 64
3, 67440, Note_on_c, 2, 65, 64
3, 67668, Note_on_c, 2, 65, 0
3, 67668, Note_on_c, 2, 62, 0
3, 67668, Note_on_c, 2, 57, 0
3, 67680, Note_on_c, 2, 57, 64
3, 67680, Note_on_c, 2, 62, 64
3, 67680, Note_on_c, 2, 65, 64
3, 67908, Note_on_c, 2, 65, 0
3, 67908, Note_on_c, 2, 62, 0
3, 67908, Note_on_c, 2, 57, 0
3, 67920, Note_on_c, 2, 57, 64
3, 67920, Note_on_c, 2, 62, 64
3, 67920, Note_on_c, 2, 65, 64
3, 68148, Note_on_c, 2, 65, 0
3, 68148, Note_on_c, 2, 62, 0
3, 68148, Note_on_c, 2, 57, 0
3, 68160, Note_on_c, 2, 45, 64
3, 68388, Note_on_c, 2, 45, 0
3, 68400, Note_on_c, 2, 64, 64
3, 68400, Note_on_c, 2, 61, 64
3, 68400, Note_on_c, 2, 57, 64
3, 68628, Note_on_c, 2, 57, 0
3, 68628, Note_on_c, 2, 61, 0
3, 68628, Note_on_c, 2, 64, 0
3, 68640, Note_on_c, 2, 64, 64
3, 68640, Note_on_c, 2, 61, 64
3, 68640, Note_on_c, 2, 57, 64
3, 68868, Note_on_c, 2, 57, 0
3, 68868, Note_on_c, 2, 61, 0
3, 68868, Note_on_c, 2, 64, 0
3, 68880, Note_on_c, 2, 64, 64
3, 68880, Note_on_c, 2, 61, 64
3, 68880, Note_on_c, 2, 57, 64
3, 69108, Note_on_c, 2, 57, 0
3, 69108, Note_on_c, 2, 61, 0
3, 69108, Note_on_c, 2, 64, 0
3, 69120, Note_on_c, 2, 57, 64
3, 69120, Note_on_c, 2, 50, 64
3, 69120, Note_on_c, 2, 62, 64
3, 69120, Note_on_c, 2, 65, 64
3, 69348, Note_on_c, 2, 65, 0
3, 69348, Note_on_c, 2, 57, 0
3, 69348, Note_on_c, 2, 50, 0
3, 69348, Note_on_c, 2, 62, 0
3, 69600, Note_on_c, 2, 81, 96
3, 69600, Note_on_c, 2, 69, 96
3, 69600, Note_on_c, 2, 65, 96
3, 69600, Note_on_c, 2, 62, 96
3, 69672, Note_on_c, 2, 62, 0
3, 69672, Note_on_c, 2, 81, 0
3, 69672, Note_on_c, 2, 69, 0
3, 69672, Note_on_c, 2, 65, 0
3, 69840, Note_on_c, 2, 70, 96
3, 69840, Note_on_c, 2, 67, 96
3, 69840, Note_on_c, 2, 62, 96
3, 69912, Note_on_c, 2, 62, 0
3, 69912, Note_on_c, 2, 67, 0
3, 69912, Note_on_c, 2, 70, 0
3, 70080, Note_on_c, 2, 69, 96
3, 70080, Note_on_c, 2, 65, 96
3, 70080, Note_on_c, 2, 62, 96
3, 70248, Note_on_c, 2, 62, 0
3, 70248, Note_on_c, 2, 65, 0
3, 70248, Note_on_c, 2, 69, 0
3, 70560, Note_on_c, 2, 69, 96
3, 70560, Note_on_c, 2, 65, 96
3, 70560, Note_on_c, 2, 62, 96
3, 70632, Note_on_c, 2, 62, 0
3, 70632, Note_on_c, 2, 65, 0
3, 70632, Note_on_c, 2, 69, 0
3, 70800, Note_on_c, 2, 70, 96
3, 70800, Note_on_c, 2, 67, 96
3, 70800, Note_on_c, 2, 62, 96
3, 70872, Note_on_c, 2, 62, 0
3, 70872, Note_on_c, 2, 67, 0
3, 70872, Note_on_c, 2, 70, 0
3, 71040, Note_on_c, 2, 62, 96
3, 71040, Note_on_c, 2, 65, 96
3, 71040, Note_on_c, 2, 69, 96
3, 71208, Note_on_c, 2, 69, 0
3, 71208, Note_on_c, 2, 65, 0
3, 71208, Note_on_c, 2, 62, 0
3, 71520, Note_on_c, 2, 62, 96
3, 71520, Note_on_c, 2, 65, 96
3, 71520, Note_on_c, 2, 69, 96
3, 71592, Note_on_c, 2, 69, 0
3, 71592, Note_on_c, 2, 65, 0
3, 71592, Note_on_c, 2, 62, 0
3, 71760, Note_on_c, 2, 62, 96
3, 71760, Note_on_c, 2, 67, 96
3, 71760, Note_on_c, 2, 70, 96
3, 71832, Note_on_c, 2, 70, 0
3, 71832, Note_on_c, 2, 67, 0
3, 71832, Note_on_c, 2, 62, 0
3, 72000, Note_on_c, 2, 69, 96
3, 72000, Note_on_c, 2, 65, 96
3, 72000, Note_on_c, 2, 62, 96
3, 72144, Note_on_c, 2, 62, 0
3, 72144, Note_on_c, 2, 65, 0
3, 72144, Note_on_c, 2, 69, 0
3, 72480, Note_on_c, 2, 69, 96
3, 72480, Note_on_c, 2, 65, 96
3, 72480, Note_on_c, 2, 62, 96
3, 72552, Note_on_c, 2, 62, 0
3, 72552, Note_on_c, 2, 65, 0
3, 72552, Note_on_c, 2, 69, 0
3, 72720, Note_on_c, 2, 70, 96
3, 72720, Note_on_c, 2, 67, 96
3, 72720, Note_on_c, 2, 62, 96
3, 72792, Note_on_c, 2, 62, 0
3, 72792, Note_on_c, 2, 67, 0
3, 72792, Note_on_c, 2, 70, 0
3, 72960, Note_on_c, 2, 69, 96
3, 72960, Note_on_c, 2, 65, 96
3, 72960, Note_on_c, 2, 62, 96
3, 73032, Note_on_c, 2, 62, 0
3, 73032, Note_on_c, 2, 65, 0
3, 73032, Note_on_c, 2, 69, 0
3, 73680, Note_on_c, 2, 74, 96
3, 73680, Note_on_c, 2, 69, 96
3, 73680, Note_on_c, 2, 65, 96
3, 73752, Note_on_c, 2, 65, 0
3, 73752, Note_on_c, 2, 69, 0
3, 73752, Note_on_c, 2, 74, 0
3, 73920, Note_on_c, 2, 74, 96
3, 73920, Note_on_c, 2, 70, 96
3, 73920, Note_on_c, 2, 67, 96
3, 73992, Note_on_c, 2, 67, 0
3, 73992, Note_on_c, 2, 70, 0
3, 73992, Note_on_c, 2, 74, 0
3, 74160, Note_on_c, 2, 72, 96
3, 74160, Note_on_c, 2, 67, 96
3, 74160, Note_on_c, 2, 64, 96
3, 74232, Note_on_c, 2, 64, 0
3, 74232, Note_on_c, 2, 67, 0
3, 74232, Note_on_c, 2, 72, 0
3, 74400, Note_on_c, 2, 72, 96
3, 74400, Note_on_c, 2, 69, 96
3, 74400, Note_on_c, 2, 65, 96
3, 74472, Note_on_c, 2, 65, 0
3, 74472, Note_on_c, 2, 69, 0
3, 74472, Note_on_c, 2, 72, 0
3, 74640, Note_on_c, 2, 70, 96
3, 74640, Note_on_c, 2, 65, 96
3, 74640, Note_on_c, 2, 62, 96
3, 74712, Note_on_c, 2, 62, 0
3, 74712, Note_on_c, 2, 65, 0
3, 74712, Note_on_c, 2, 70, 0
3, 74880, Note_on_c, 2, 70, 96
3, 74880, Note_on_c, 2, 67, 96
3, 74880, Note_on_c, 2, 64, 96
3, 74952, Note_on_c, 2, 64, 0
3, 74952, Note_on_c, 2, 67, 0
3, 74952, Note_on_c, 2, 70, 0
3, 75120, Note_on_c, 2, 69, 96
3, 75120, Note_on_c, 2, 64, 96
3, 75120, Note_on_c, 2, 61, 96
3, 75192, Note_on_c, 2, 61, 0
3, 75192, Note_on_c, 2, 64, 0
3, 75192, Note_on_c, 2, 69, 0
3, 75360, Note_on_c, 2, 69, 96
3, 75360, Note_on_c, 2, 65, 96
3, 75360, Note_on_c, 2, 62, 96
3, 75564, Note_on_c, 2, 62, 0
3, 75564, Note_on_c, 2, 65, 0
3, 75564, Note_on_c, 2, 69, 0
3, 75840, Note_on_c, 2, 55, 96
3, 75840, Note_on_c, 2, 63, 96
3, 75912, Note_on_c, 2, 63, 0
3, 75912, Note_on_c, 2, 55, 0
3, 75960, Note_on_c, 2, 55, 96
3, 75960, Note_on_c, 2, 63, 96
3, 76032, Note_on_c, 2, 63, 0
3, 76032, Note_on_c, 2, 55, 0
3, 76080, Note_on_c, 2, 55, 96
3, 76080, Note_on_c, 2, 63, 96
3, 76152, Note_on_c, 2, 63, 0
3, 76152, Note_on_c, 2, 55, 0
3, 76200, Note_on_c, 2, 55, 96
3, 76200, Note_on_c, 2, 63, 96
3, 76272, Note_on_c, 2, 63, 0
3, 76272, Note_on_c, 2, 55, 0
3, 76320, Note_on_c, 2, 55, 96
3, 76320, Note_on_c, 2, 63, 96
3, 76392, Note_on_c, 2, 63, 0
3, 76392, Note_on_c, 2, 55, 0
3, 76440, Note_on_c, 2, 55, 96
3, 76440, Note_on_c, 2, 63, 96
3, 76512, Note_on_c, 2, 63, 0
3, 76512, Note_on_c, 2, 55, 0
3, 76560, Note_on_c, 2, 55, 96
3, 76560, Note_on_c, 2, 63, 96
3, 76632, Note_on_c, 2, 63, 0
3, 76632, Note_on_c, 2, 55, 0
3, 76680, Note_on_c, 2, 55, 96
3, 76680, Note_on_c, 2, 63, 96
3, 76752, Note_on_c, 2, 63, 0
3, 76752, Note_on_c, 2, 55, 0
3, 76800, Note_on_c, 2, 63, 96
3, 76800, Note_on_c, 2, 55, 96
3, 76872, Note_on_c, 2, 55, 0
3, 76872, Note_on_c, 2, 63, 0
3, 76920, Note_on_c, 2, 63, 96
3, 76920, Note_on_c, 2, 55, 96
3, 76992, Note_on_c, 2, 55, 0
3, 76992, Note_on_c, 2, 63, 0
3, 77040, Note_on_c, 2, 63, 96
3, 77040, Note_on_c, 2, 55, 96
3, 77112, Note_on_c, 2, 55, 0
3, 77112, Note_on_c, 2, 63, 0
3, 77160, Note_on_c, 2, 63, 96
3, 77160, Note_on_c, 2, 55, 96
3, 77232, Note_on_c, 2, 55, 0
3, 77232, Note_on_c, 2, 63, 0
3, 77280, Note_on_c, 2, 63, 96
3, 77280, Note_on_c, 2, 55, 96
3, 77352, Note_on_c, 2, 55, 0
3, 77352, Note_on_c, 2, 63, 0
3, 77400, Note_on_c, 2, 63, 96
3, 77400, Note_on_c, 2, 55, 96
3, 77472, Note_on_c, 2, 55, 0
3, 77472, Note_on_c, 2, 63, 0
3, 77520, Note_on_c, 2, 65, 96
3, 77520, Note_on_c, 2, 56, 96
3, 77592, Note_on_c, 2, 56, 0
3, 77592, Note_on_c, 2, 65, 0
3, 77640, Note_on_c, 2, 65, 96
3, 77640, Note_on_c, 2, 56, 96
3, 77712, Note_on_c, 2, 56, 0
3, 77712, Note_on_c, 2, 65, 0
3, 77760, Note_on_c, 2, 57, 112
3, 77760, Note_on_c, 2, 64, 112
3, 77880, Note_on_c, 2, 64, 0
3, 77880, Note_on_c, 2, 57, 0
3, 78000, Note_on_c, 2, 69, 112
3, 78120, Note_on_c, 2, 69, 0
3, 78240, Note_on_c, 2, 52, 112
3, 78240, Note_on_c, 2, 61, 112
3, 78240, Note_on_c, 2, 57, 112
3, 78432, Note_on_c, 2, 57, 0
3, 78432, Note_on_c, 2, 61, 0
3, 78432, Note_on_c, 2, 52, 0
3, 78960, Note_on_c, 2, 69, 112
3, 79080, Note_on_c, 2, 69, 0
3, 79200, Note_on_c, 2, 45, 112
3, 79200, Note_on_c, 2, 61, 112
3, 79392, Note_on_c, 2, 61, 0
3, 79392, Note_on_c, 2, 45, 0
3, 79920, Note_on_c, 2, 69, 112
3, 80040, Note_on_c, 2, 69, 0
3, 80160, Note_on_c, 2, 45, 112
3, 80160, Note_on_c, 2, 61, 112
3, 80352, Note_on_c, 2, 61, 0
3, 80352, Note_on_c, 2, 45, 0
3, 81840, Note_on_c, 2, 55, 80
3, 81924, Note_on_c, 2, 55, 0
3, 81960, Note_on_c, 2, 55, 80
3, 82044, Note_on_c, 2, 55, 0
3, 82080, Note_on_c, 2, 52, 90
3, 82164, Note_on_c, 2, 52, 0
3, 82200, Note_on_c, 2, 52, 90
3, 82284, Note_on_c, 2, 52, 0
3, 82320, Note_on_c, 2, 50, 100
3, 82404, Note_on_c, 2, 50, 0
3, 82440, Note_on_c, 2, 50, 100
3, 82524, Note_on_c, 2, 50, 0
3, 82560, Note_on_c, 2, 49, 112
3, 82944, Note_on_c, 2, 49, 0
3, 83880, Note_on_c, 2, 57, 112
3, 83912, Note_on_c, 2, 57, 0
3, 83920, Note_on_c, 2, 59, 112
3, 83952, Note_on_c, 2, 59, 0
3, 83960, Note_on_c, 2, 60, 112
3, 83992, Note_on_c, 2, 60, 0
3, 84000, Note_on_c, 2, 62, 112
3, 84384, Note_on_c, 2, 62, 0
3, 84840, Note_on_c, 2, 61, 112
3, 84872, Note_on_c, 2, 61, 0
3, 84880, Note_on_c, 2, 62, 112
3, 84912, Note_on_c, 2, 62, 0
3, 84920, Note_on_c, 2, 64, 112
3, 84952, Note_on_c, 2, 64, 0
3, 84960, Note_on_c, 2, 65, 112
3, 85344, Note_on_c, 2, 65, 0
3, 86160, Note_on_c, 2, 50, 112
3, 86160, Note_on_c, 2, 53, 112
3, 86160, Note_on_c, 2, 56, 112
3, 86352, Note_on_c, 2, 56, 0
3, 86352, Note_on_c, 2, 53, 0
3, 86352, Note_on_c, 2, 50, 0
3, 86400, Note_on_c, 2, 51, 112
3, 86400, Note_on_c, 2, 55, 112
3, 86496, Note_on_c, 2, 55, 0
3, 86496, Note_on_c, 2, 51, 0
3, 86520, Note_on_c, 2, 51, 112
3, 86520, Note_on_c, 2, 55, 112
3, 86616, Note_on_c, 2, 55, 0
3, 86616, Note_on_c, 2, 51, 0
3, 86640, Note_on_c, 2, 50, 112
3, 86640, Note_on_c, 2, 53, 112
3, 86736, Note_on_c, 2, 53, 0
3, 86736, Note_on_c, 2, 50, 0
3, 86760, Note_on_c, 2, 50, 112
3, 86760, Note_on_c, 2, 53, 112
3, 86856, Note_on_c, 2, 53, 0
3, 86856, Note_on_c, 2, 50, 0
3, 86880, Note_on_c, 2, 51, 112
3, 86880, Note_on_c, 2, 55, 112
3, 86976, Note_on_c, 2, 55, 0
3, 86976, Note_on_c, 2, 51, 0
3, 87000, Note_on_c, 2, 51, 112
3, 87000, Note_on_c, 2, 55, 112
3, 87096, Note_on_c, 2, 55, 0
3, 87096, Note_on_c, 2, 51, 0
3, 87120, Note_on_c, 2, 50, 112
3, 87120, Note_on_c, 2, 53, 112
3, 87216, Note_on_c, 2, 53, 0
3, 87216, Note_on_c, 2, 50, 0
3, 87240, Note_on_c, 2, 50, 112
3, 87240, Note_on_c, 2, 53, 112
3, 87336, Note_on_c, 2, 53, 0
3, 87336, Note_on_c, 2, 50, 0
3, 87360, Note_on_c, 2, 51, 112
3, 87360, Note_on_c, 2, 55, 112
3, 87936, Note_on_c, 2, 55, 0
3, 87936, Note_on_c, 2, 51, 0
3, 88560, Note_on_c, 2, 52, 112
3, 88560, Note_on_c, 2, 55, 112
3, 88944, Note_on_c, 2, 55, 0
3, 88944, Note_on_c, 2, 52, 0
3, 89040, Note_on_c, 2, 56, 112
3, 89856, Note_on_c, 2, 56, 0
3, 91440, Note_on_c, 2, 57, 112
3, 92016, Note_on_c, 2, 57, 0
3, 92160, Note_on_c, 2, 46, 112
3, 92256, Note_on_c, 2, 46, 0
3, 92280, Note_on_c, 2, 50, 112
3, 92376, Note_on_c, 2, 50, 0
3, 92400, Note_on_c, 2, 50, 112
3, 92496, Note_on_c, 2, 50, 0
3, 92520, Note_on_c, 2, 50, 112
3, 92616, Note_on_c, 2, 50, 0
3, 92640, Note_on_c, 2, 50, 112
3, 92736, Note_on_c, 2, 50, 0
3, 92760, Note_on_c, 2, 50, 112
3, 92856, Note_on_c, 2, 50, 0
3, 92880, Note_on_c, 2, 50, 112
3, 92976, Note_on_c, 2, 50, 0
3, 93000, Note_on_c, 2, 50, 112
3, 93096, Note_on_c, 2, 50, 0
3, 93120, Note_on_c, 2, 45, 112
3, 93504, Note_on_c, 2, 45, 0
3, 93600, Note_on_c, 2, 45, 112
3, 93984, Note_on_c, 2, 45, 0
3, 94080, Note_on_c, 2, 50, 112
3, 94848, Note_on_c, 2, 50, 0
3, 94848, End_track
4, 0, Start_track
4, 0, MIDI_port, 0
4, 0, Title_t, "Accomp.  Act II by W.A. Mozart"
4, 0, Program_c, 3, 48
4, 0, Control_c, 3, 7, 80
4, 0, Control_c, 3, 10, 96
4, 0, Control_c, 3, 91, 101
4, 780, Note_on_c, 3, 45, 96
4, 828, Note_on_c, 3, 45, 0
4, 840, Note_on_c, 3, 47, 100
4, 888, Note_on_c, 3, 47, 0
4, 900, Note_on_c, 3, 49, 105
4, 948, Note_on_c, 3, 49, 0
4, 960, Note_on_c, 3, 50, 127
4, 1056, Note_on_c, 3, 50, 0
4, 1200, Note_on_c, 3, 45, 112
4, 1392, Note_on_c, 3, 45, 0
4, 1440, Note_on_c, 3, 41, 112
4, 1632, Note_on_c, 3, 41, 0
4, 1680, Note_on_c, 3, 38, 112
4, 1872, Note_on_c, 3, 38, 0
4, 1920, Note_on_c, 3, 38, 112
4, 1992, Note_on_c, 3, 38, 0
4, 2040, Note_on_c, 3, 38, 112
4, 2112, Note_on_c, 3, 38, 0
4, 2160, Note_on_c, 3, 38, 112
4, 2232, Note_on_c, 3, 38, 0
4, 2280, Note_on_c, 3, 38, 112
4, 2352, Note_on_c, 3, 38, 0
4, 2400, Note_on_c, 3, 38, 112
4, 2472, Note_on_c, 3, 38, 0
4, 2520, Note_on_c, 3, 38, 112
4, 2592, Note_on_c, 3, 38, 0
4, 2640, Note_on_c, 3, 38, 112
4, 2712, Note_on_c, 3, 38, 0
4, 2760, Note_on_c, 3, 38, 112
4, 2832, Note_on_c, 3, 38, 0
4, 2880, Note_on_c, 3, 38, 112
4, 2952, Note_on_c, 3, 38, 0
4, 3000, Note_on_c, 3, 38, 112
4, 3072, Note_on_c, 3, 38, 0
4, 3120, Note_on_c, 3, 38, 112
4, 3192, Note_on_c, 3, 38, 0
4, 3240, Note_on_c, 3, 38, 112
4, 3312, Note_on_c, 3, 38, 0
4, 3360, Note_on_c, 3, 50, 112
4, 3432, Note_on_c, 3, 50, 0
4, 3480, Note_on_c, 3, 50, 112
4, 3552, Note_on_c, 3, 50, 0
4, 3600, Note_on_c, 3, 50, 112
4, 3672, Note_on_c, 3, 50, 0
4, 3720, Note_on_c, 3, 50, 112
4, 3792, Note_on_c, 3, 50, 0
4, 3840, Note_on_c, 3, 52, 112
4, 3888, Note_on_c, 3, 52, 0
4, 3960, Note_on_c, 3, 52, 112
4, 4008, Note_on_c, 3, 52, 0
4, 4080, Note_on_c, 3, 52, 112
4, 4128, Note_on_c, 3, 52, 0
4, 4200, Note_on_c, 3, 52, 112
4, 4248, Note_on_c, 3, 52, 0
4, 4320, Note_on_c, 3, 52, 112
4, 4368, Note_on_c, 3, 52, 0
4, 4440, Note_on_c, 3, 52, 112
4, 4488, Note_on_c, 3, 52, 0
4, 4560, Note_on_c, 3, 52, 112
4, 4608, Note_on_c, 3, 52, 0
4, 4680, Note_on_c, 3, 52, 112
4, 4728, Note_on_c, 3, 52, 0
4, 4800, Note_on_c, 3, 53, 112
4, 4848, Note_on_c, 3, 53, 0
4, 4920, Note_on_c, 3, 53, 112
4, 4968, Note_on_c, 3, 53, 0
4, 5040, Note_on_c, 3, 53, 112
4, 5088, Note_on_c, 3, 53, 0
4, 5160, Note_on_c, 3, 53, 112
4, 5208, Note_on_c, 3, 53, 0
4, 5280, Note_on_c, 3, 53, 112
4, 5328, Note_on_c, 3, 53, 0
4, 5400, Note_on_c, 3, 53, 112
4, 5448, Note_on_c, 3, 53, 0
4, 5520, Note_on_c, 3, 53, 112
4, 5568, Note_on_c, 3, 53, 0
4, 5640, Note_on_c, 3, 53, 112
4, 5688, Note_on_c, 3, 53, 0
4, 5760, Note_on_c, 3, 43, 80
4, 5844, Note_on_c, 3, 43, 0
4, 5880, Note_on_c, 3, 43, 80
4, 5964, Note_on_c, 3, 43, 0
4, 6000, Note_on_c, 3, 43, 80
4, 6084, Note_on_c, 3, 43, 0
4, 6120, Note_on_c, 3, 43, 80
4, 6204, Note_on_c, 3, 43, 0
4, 6240, Note_on_c, 3, 45, 80
4, 6324, Note_on_c, 3, 45, 0
4, 6360, Note_on_c, 3, 45, 80
4, 6444, Note_on_c, 3, 45, 0
4, 6480, Note_on_c, 3, 45, 80
4, 6564, Note_on_c, 3, 45, 0
4, 6600, Note_on_c, 3, 45, 80
4, 6684, Note_on_c, 3, 45, 0
4, 6720, Note_on_c, 3, 46, 80
4, 6804, Note_on_c, 3, 46, 0
4, 6840, Note_on_c, 3, 46, 80
4, 6924, Note_on_c, 3, 46, 0
4, 6960, Note_on_c, 3, 42, 80
4, 7044, Note_on_c, 3, 42, 0
4, 7080, Note_on_c, 3, 42, 80
4, 7164, Note_on_c, 3, 42, 0
4, 7200, Note_on_c, 3, 43, 80
4, 7284, Note_on_c, 3, 43, 0
4, 7320, Note_on_c, 3, 43, 80
4, 7404, Note_on_c, 3, 43, 0
4, 7440, Note_on_c, 3, 43, 80
4, 7524, Note_on_c, 3, 43, 0
4, 7560, Note_on_c, 3, 43, 80
4, 7644, Note_on_c, 3, 43, 0
4, 7680, Note_on_c, 3, 43, 80
4, 7764, Note_on_c, 3, 43, 0
4, 7800, Note_on_c, 3, 43, 80
4, 7884, Note_on_c, 3, 43, 0
4, 7920, Note_on_c, 3, 43, 80
4, 8004, Note_on_c, 3, 43, 0
4, 8040, Note_on_c, 3, 43, 80
4, 8124, Note_on_c, 3, 43, 0
4, 8160, Note_on_c, 3, 43, 80
4, 8244, Note_on_c, 3, 43, 0
4, 8280, Note_on_c, 3, 43, 80
4, 8364, Note_on_c, 3, 43, 0
4, 8400, Note_on_c, 3, 44, 80
4, 8484, Note_on_c, 3, 44, 0
4, 8520, Note_on_c, 3, 44, 80
4, 8604, Note_on_c, 3, 44, 0
4, 8640, Note_on_c, 3, 45, 80
4, 8736, Note_on_c, 3, 45, 0
4, 8880, Note_on_c, 3, 45, 80
4, 9108, Note_on_c, 3, 45, 0
4, 9120, Note_on_c, 3, 44, 90
4, 9348, Note_on_c, 3, 44, 0
4, 9360, Note_on_c, 3, 43, 100
4, 9588, Note_on_c, 3, 43, 0
4, 9600, Note_on_c, 3, 41, 112
4, 9744, Note_on_c, 3, 41, 0
4, 15360, Note_on_c, 3, 50, 112
4, 15528, Note_on_c, 3, 50, 0
4, 16320, Note_on_c, 3, 50, 112
4, 16368, Note_on_c, 3, 50, 0
4, 16440, Note_on_c, 3, 50, 80
4, 16488, Note_on_c, 3, 50, 0
4, 16560, Note_on_c, 3, 50, 80
4, 16608, Note_on_c, 3, 50, 0
4, 16680, Note_on_c, 3, 50, 80
4, 16728, Note_on_c, 3, 50, 0
4, 16800, Note_on_c, 3, 48, 112
4, 16848, Note_on_c, 3, 48, 0
4, 16920, Note_on_c, 3, 48, 80
4, 16968, Note_on_c, 3, 48, 0
4, 17040, Note_on_c, 3, 48, 80
4, 17088, Note_on_c, 3, 48, 0
4, 17160, Note_on_c, 3, 48, 80
4, 17208, Note_on_c, 3, 48, 0
4, 17280, Note_on_c, 3, 47, 80
4, 17364, Note_on_c, 3, 47, 0
4, 17400, Note_on_c, 3, 47, 80
4, 17484, Note_on_c, 3, 47, 0
4, 17520, Note_on_c, 3, 47, 80
4, 17604, Note_on_c, 3, 47, 0
4, 17640, Note_on_c, 3, 47, 80
4, 17724, Note_on_c, 3, 47, 0
4, 17760, Note_on_c, 3, 47, 96
4, 17844, Note_on_c, 3, 47, 0
4, 17880, Note_on_c, 3, 47, 80
4, 17964, Note_on_c, 3, 47, 0
4, 18000, Note_on_c, 3, 47, 80
4, 18084, Note_on_c, 3, 47, 0
4, 18120, Note_on_c, 3, 47, 80
4, 18204, Note_on_c, 3, 47, 0
4, 18240, Note_on_c, 3, 48, 80
4, 18354, Note_on_c, 3, 48, 0
4, 18360, Note_on_c, 3, 48, 85
4, 18474, Note_on_c, 3, 48, 0
4, 18480, Note_on_c, 3, 47, 96
4, 18594, Note_on_c, 3, 47, 0
4, 18600, Note_on_c, 3, 48, 80
4, 18714, Note_on_c, 3, 48, 0
4, 18720, Note_on_c, 3, 47, 96
4, 18834, Note_on_c, 3, 47, 0
4, 18840, Note_on_c, 3, 48, 80
4, 18954, Note_on_c, 3, 48, 0
4, 18960, Note_on_c, 3, 46, 80
4, 19008, Note_on_c, 3, 46, 0
4, 19080, Note_on_c, 3, 43, 80
4, 19128, Note_on_c, 3, 43, 0
4, 19200, Note_on_c, 3, 45, 112
4, 19314, Note_on_c, 3, 45, 0
4, 19320, Note_on_c, 3, 60, 112
4, 19434, Note_on_c, 3, 60, 0
4, 19440, Note_on_c, 3, 57, 112
4, 19488, Note_on_c, 3, 57, 0
4, 19560, Note_on_c, 3, 53, 112
4, 19608, Note_on_c, 3, 53, 0
4, 19680, Note_on_c, 3, 52, 112
4, 19794, Note_on_c, 3, 52, 0
4, 19800, Note_on_c, 3, 55, 112
4, 19914, Note_on_c, 3, 55, 0
4, 19920, Note_on_c, 3, 52, 112
4, 19968, Note_on_c, 3, 52, 0
4, 20040, Note_on_c, 3, 48, 112
4, 20088, Note_on_c, 3, 48, 0
4, 20160, Note_on_c, 3, 53, 112
4, 20274, Note_on_c, 3, 53, 0
4, 20280, Note_on_c, 3, 48, 112
4, 20394, Note_on_c, 3, 48, 0
4, 20400, Note_on_c, 3, 47, 112
4, 20514, Note_on_c, 3, 47, 0
4, 20520, Note_on_c, 3, 48, 112
4, 20634, Note_on_c, 3, 48, 0
4, 20640, Note_on_c, 3, 47, 112
4, 20754, Note_on_c, 3, 47, 0
4, 20760, Note_on_c, 3, 48, 112
4, 20874, Note_on_c, 3, 48, 0
4, 20880, Note_on_c, 3, 46, 96
4, 20928, Note_on_c, 3, 46, 0
4, 21000, Note_on_c, 3, 43, 96
4, 21048, Note_on_c, 3, 43, 0
4, 21120, Note_on_c, 3, 45, 112
4, 21234, Note_on_c, 3, 45, 0
4, 21240, Note_on_c, 3, 60, 112
4, 21354, Note_on_c, 3, 60, 0
4, 21360, Note_on_c, 3, 57, 112
4, 21408, Note_on_c, 3, 57, 0
4, 21480, Note_on_c, 3, 53, 112
4, 21528, Note_on_c, 3, 53, 0
4, 21600, Note_on_c, 3, 52, 112
4, 21714, Note_on_c, 3, 52, 0
4, 21720, Note_on_c, 3, 55, 112
4, 21834, Note_on_c, 3, 55, 0
4, 21840, Note_on_c, 3, 52, 112
4, 21888, Note_on_c, 3, 52, 0
4, 21960, Note_on_c, 3, 48, 112
4, 22008, Note_on_c, 3, 48, 0
4, 22080, Note_on_c, 3, 41, 112
4, 22176, Note_on_c, 3, 41, 0
4, 30240, Note_on_c, 3, 50, 96
4, 30276, Note_on_c, 3, 50, 0
4, 30360, Note_on_c, 3, 50, 64
4, 30396, Note_on_c, 3, 50, 0
4, 30480, Note_on_c, 3, 50, 64
4, 30516, Note_on_c, 3, 50, 0
4, 30600, Note_on_c, 3, 50, 64
4, 30636, Note_on_c, 3, 50, 0
4, 30720, Note_on_c, 3, 46, 96
4, 30756, Note_on_c, 3, 46, 0
4, 30840, Note_on_c, 3, 46, 64
4, 30876, Note_on_c, 3, 46, 0
4, 30960, Note_on_c, 3, 46, 64
4, 30996, Note_on_c, 3, 46, 0
4, 31080, Note_on_c, 3, 46, 64
4, 31116, Note_on_c, 3, 46, 0
4, 31200, Note_on_c, 3, 43, 96
4, 31236, Note_on_c, 3, 43, 0
4, 31320, Note_on_c, 3, 43, 64
4, 31356, Note_on_c, 3, 43, 0
4, 31440, Note_on_c, 3, 43, 64
4, 31476, Note_on_c, 3, 43, 0
4, 31560, Note_on_c, 3, 43, 64
4, 31596, Note_on_c, 3, 43, 0
4, 31680, Note_on_c, 3, 48, 80
4, 31716, Note_on_c, 3, 48, 0
4, 31800, Note_on_c, 3, 48, 80
4, 31836, Note_on_c, 3, 48, 0
4, 31920, Note_on_c, 3, 48, 80
4, 31956, Note_on_c, 3, 48, 0
4, 32040, Note_on_c, 3, 48, 80
4, 32076, Note_on_c, 3, 48, 0
4, 32160, Note_on_c, 3, 48, 80
4, 32196, Note_on_c, 3, 48, 0
4, 32280, Note_on_c, 3, 48, 80
4, 32376, Note_on_c, 3, 48, 0
4, 32400, Note_on_c, 3, 48, 80
4, 32496, Note_on_c, 3, 48, 0
4, 32520, Note_on_c, 3, 48, 80
4, 32616, Note_on_c, 3, 48, 0
4, 32640, Note_on_c, 3, 41, 112
4, 32736, Note_on_c, 3, 41, 0
4, 40800, Note_on_c, 3, 45, 64
4, 40836, Note_on_c, 3, 45, 0
4, 40920, Note_on_c, 3, 45, 56
4, 40956, Note_on_c, 3, 45, 0
4, 41040, Note_on_c, 3, 45, 56
4, 41076, Note_on_c, 3, 45, 0
4, 41160, Note_on_c, 3, 45, 56
4, 41196, Note_on_c, 3, 45, 0
4, 41280, Note_on_c, 3, 46, 72
4, 41316, Note_on_c, 3, 46, 0
4, 41400, Note_on_c, 3, 46, 64
4, 41436, Note_on_c, 3, 46, 0
4, 41520, Note_on_c, 3, 46, 64
4, 41556, Note_on_c, 3, 46, 0
4, 41640, Note_on_c, 3, 46, 64
4, 41676, Note_on_c, 3, 46, 0
4, 41760, Note_on_c, 3, 46, 80
4, 41796, Note_on_c, 3, 46, 0
4, 41880, Note_on_c, 3, 46, 72
4, 41916, Note_on_c, 3, 46, 0
4, 42000, Note_on_c, 3, 46, 72
4, 42036, Note_on_c, 3, 46, 0
4, 42120, Note_on_c, 3, 46, 72
4, 42156, Note_on_c, 3, 46, 0
4, 42240, Note_on_c, 3, 48, 80
4, 42288, Note_on_c, 3, 48, 0
4, 42360, Note_on_c, 3, 48, 80
4, 42408, Note_on_c, 3, 48, 0
4, 42480, Note_on_c, 3, 48, 85
4, 42540, Note_on_c, 3, 48, 0
4, 42600, Note_on_c, 3, 48, 85
4, 42660, Note_on_c, 3, 48, 0
4, 42720, Note_on_c, 3, 45, 90
4, 42792, Note_on_c, 3, 45, 0
4, 42840, Note_on_c, 3, 45, 90
4, 42912, Note_on_c, 3, 45, 0
4, 42960, Note_on_c, 3, 41, 95
4, 43044, Note_on_c, 3, 41, 0
4, 43080, Note_on_c, 3, 41, 95
4, 43164, Note_on_c, 3, 41, 0
4, 43200, Note_on_c, 3, 36, 112
4, 43368, Note_on_c, 3, 36, 0
4, 43680, Note_on_c, 3, 48, 112
4, 43872, Note_on_c, 3, 48, 0
4, 44160, Note_on_c, 3, 53, 112
4, 44400, Note_on_c, 3, 53, 0
4, 44880, Note_on_c, 3, 48, 112
4, 45000, Note_on_c, 3, 48, 0
4, 45120, Note_on_c, 3, 53, 112
4, 45360, Note_on_c, 3, 53, 0
4, 45840, Note_on_c, 3, 48, 112
4, 45960, Note_on_c, 3, 48, 0
4, 46080, Note_on_c, 3, 53, 112
4, 46224, Note_on_c, 3, 53, 0
4, 47040, Note_on_c, 3, 40, 112
4, 47136, Note_on_c, 3, 40, 0
4, 47280, Note_on_c, 3, 41, 112
4, 47424, Note_on_c, 3, 41, 0
4, 47520, Note_on_c, 3, 34, 112
4, 47664, Note_on_c, 3, 34, 0
4, 47760, Note_on_c, 3, 36, 112
4, 47904, Note_on_c, 3, 36, 0
4, 48000, Note_on_c, 3, 41, 112
4, 48216, Note_on_c, 3, 41, 0
4, 49080, Note_on_c, 3, 53, 96
4, 49128, Note_on_c, 3, 53, 0
4, 49200, Note_on_c, 3, 55, 96
4, 49248, Note_on_c, 3, 55, 0
4, 49320, Note_on_c, 3, 57, 96
4, 49368, Note_on_c, 3, 57, 0
4, 49440, Note_on_c, 3, 58, 96
4, 49488, Note_on_c, 3, 58, 0
4, 49560, Note_on_c, 3, 57, 96
4, 49608, Note_on_c, 3, 57, 0
4, 49680, Note_on_c, 3, 58, 96
4, 49728, Note_on_c, 3, 58, 0
4, 49800, Note_on_c, 3, 55, 96
4, 49848, Note_on_c, 3, 55, 0
4, 49920, Note_on_c, 3, 53, 96
4, 50016, Note_on_c, 3, 53, 0
4, 51000, Note_on_c, 3, 53, 96
4, 51054, Note_on_c, 3, 53, 0
4, 51120, Note_on_c, 3, 55, 96
4, 51174, Note_on_c, 3, 55, 0
4, 51240, Note_on_c, 3, 57, 96
4, 51294, Note_on_c, 3, 57, 0
4, 51360, Note_on_c, 3, 58, 96
4, 51414, Note_on_c, 3, 58, 0
4, 51480, Note_on_c, 3, 57, 96
4, 51534, Note_on_c, 3, 57, 0
4, 51600, Note_on_c, 3, 58, 96
4, 51654, Note_on_c, 3, 58, 0
4, 51720, Note_on_c, 3, 55, 96
4, 51774, Note_on_c, 3, 55, 0
4, 51840, Note_on_c, 3, 53, 64
4, 51936, Note_on_c, 3, 53, 0
4, 52920, Note_on_c, 3, 53, 96
4, 52968, Note_on_c, 3, 53, 0
4, 53040, Note_on_c, 3, 55, 96
4, 53088, Note_on_c, 3, 55, 0
4, 53160, Note_on_c, 3, 57, 96
4, 53208, Note_on_c, 3, 57, 0
4, 53280, Note_on_c, 3, 58, 96
4, 53328, Note_on_c, 3, 58, 0
4, 53400, Note_on_c, 3, 57, 96
4, 53448, Note_on_c, 3, 57, 0
4, 53520, Note_on_c, 3, 58, 96
4, 53568, Note_on_c, 3, 58, 0
4, 53640, Note_on_c, 3, 55, 96
4, 53688, Note_on_c, 3, 55, 0
4, 53760, Note_on_c, 3, 53, 64
4, 53856, Note_on_c, 3, 53, 0
4, 54840, Note_on_c, 3, 53, 96
4, 54888, Note_on_c, 3, 53, 0
4, 54960, Note_on_c, 3, 55, 96
4, 55008, Note_on_c, 3, 55, 0
4, 55080, Note_on_c, 3, 57, 96
4, 55128, Note_on_c, 3, 57, 0
4, 55200, Note_on_c, 3, 58, 96
4, 55248, Note_on_c, 3, 58, 0
4, 55320, Note_on_c, 3, 57, 96
4, 55368, Note_on_c, 3, 57, 0
4, 55440, Note_on_c, 3, 58, 96
4, 55488, Note_on_c, 3, 58, 0
4, 55560, Note_on_c, 3, 55, 96
4, 55608, Note_on_c, 3, 55, 0
4, 55680, Note_on_c, 3, 42, 112
4, 55872, Note_on_c, 3, 42, 0
4, 55920, Note_on_c, 3, 54, 64
4, 56016, Note_on_c, 3, 54, 0
4, 56040, Note_on_c, 3, 54, 64
4, 56136, Note_on_c, 3, 54, 0
4, 56160, Note_on_c, 3, 54, 64
4, 56256, Note_on_c, 3, 54, 0
4, 56280, Note_on_c, 3, 54, 64
4, 56376, Note_on_c, 3, 54, 0
4, 56400, Note_on_c, 3, 54, 64
4, 56496, Note_on_c, 3, 54, 0
4, 56520, Note_on_c, 3, 54, 64
4, 56616, Note_on_c, 3, 54, 0
4, 56640, Note_on_c, 3, 54, 64
4, 56736, Note_on_c, 3, 54, 0
4, 56760, Note_on_c, 3, 54, 64
4, 56856, Note_on_c, 3, 54, 0
4, 56880, Note_on_c, 3, 54, 64
4, 56976, Note_on_c, 3, 54, 0
4, 57000, Note_on_c, 3, 54, 64
4, 57096, Note_on_c, 3, 54, 0
4, 57120, Note_on_c, 3, 54, 64
4, 57216, Note_on_c, 3, 54, 0
4, 57240, Note_on_c, 3, 54, 64
4, 57336, Note_on_c, 3, 54, 0
4, 57360, Note_on_c, 3, 54, 64
4, 57456, Note_on_c, 3, 54, 0
4, 57480, Note_on_c, 3, 54, 64
4, 57576, Note_on_c, 3, 54, 0
4, 57600, Note_on_c, 3, 55, 64
4, 57792, Note_on_c, 3, 55, 0
4, 58680, Note_on_c, 3, 55, 96
4, 58728, Note_on_c, 3, 55, 0
4, 58800, Note_on_c, 3, 57, 96
4, 58848, Note_on_c, 3, 57, 0
4, 58920, Note_on_c, 3, 58, 96
4, 58968, Note_on_c, 3, 58, 0
4, 59040, Note_on_c, 3, 60, 96
4, 59088, Note_on_c, 3, 60, 0
4, 59160, Note_on_c, 3, 58, 96
4, 59208, Note_on_c, 3, 58, 0
4, 59280, Note_on_c, 3, 60, 96
4, 59328, Note_on_c, 3, 60, 0
4, 59400, Note_on_c, 3, 57, 96
4, 59448, Note_on_c, 3, 57, 0
4, 59520, Note_on_c, 3, 55, 64
4, 59568, Note_on_c, 3, 55, 0
4, 60600, Note_on_c, 3, 55, 96
4, 60660, Note_on_c, 3, 55, 0
4, 60720, Note_on_c, 3, 57, 96
4, 60780, Note_on_c, 3, 57, 0
4, 60840, Note_on_c, 3, 58, 96
4, 60900, Note_on_c, 3, 58, 0
4, 60960, Note_on_c, 3, 60, 96
4, 61020, Note_on_c, 3, 60, 0
4, 61080, Note_on_c, 3, 58, 96
4, 61140, Note_on_c, 3, 58, 0
4, 61200, Note_on_c, 3, 60, 96
4, 61260, Note_on_c, 3, 60, 0
4, 61320, Note_on_c, 3, 57, 96
4, 61380, Note_on_c, 3, 57, 0
4, 61440, Note_on_c, 3, 44, 96
4, 61632, Note_on_c, 3, 44, 0
4, 61680, Note_on_c, 3, 56, 64
4, 61740, Note_on_c, 3, 56, 0
4, 61800, Note_on_c, 3, 56, 64
4, 61860, Note_on_c, 3, 56, 0
4, 61920, Note_on_c, 3, 56, 64
4, 61980, Note_on_c, 3, 56, 0
4, 62040, Note_on_c, 3, 56, 64
4, 62100, Note_on_c, 3, 56, 0
4, 62160, Note_on_c, 3, 56, 64
4, 62220, Note_on_c, 3, 56, 0
4, 62280, Note_on_c, 3, 56, 64
4, 62340, Note_on_c, 3, 56, 0
4, 62400, Note_on_c, 3, 56, 64
4, 62460, Note_on_c, 3, 56, 0
4, 62520, Note_on_c, 3, 56, 64
4, 62580, Note_on_c, 3, 56, 0
4, 62640, Note_on_c, 3, 56, 64
4, 62700, Note_on_c, 3, 56, 0
4, 62760, Note_on_c, 3, 56, 64
4, 62820, Note_on_c, 3, 56, 0
4, 62880, Note_on_c, 3, 56, 64
4, 62940, Note_on_c, 3, 56, 0
4, 63000, Note_on_c, 3, 56, 64
4, 63060, Note_on_c, 3, 56, 0
4, 63120, Note_on_c, 3, 56, 64
4, 63180, Note_on_c, 3, 56, 0
4, 63240, Note_on_c, 3, 56, 64
4, 63300, Note_on_c, 3, 56, 0
4, 63360, Note_on_c, 3, 57, 64
4, 63456, Note_on_c, 3, 57, 0
4, 63480, Note_on_c, 3, 57, 96
4, 63576, Note_on_c, 3, 57, 0
4, 63600, Note_on_c, 3, 61, 96
4, 63696, Note_on_c, 3, 61, 0
4, 63720, Note_on_c, 3, 57, 96
4, 63816, Note_on_c, 3, 57, 0
4, 63840, Note_on_c, 3, 52, 96
4, 63936, Note_on_c, 3, 52, 0
4, 63960, Note_on_c, 3, 57, 96
4, 64056, Note_on_c, 3, 57, 0
4, 64080, Note_on_c, 3, 49, 96
4, 64176, Note_on_c, 3, 49, 0
4, 64200, Note_on_c, 3, 52, 96
4, 64296, Note_on_c, 3, 52, 0
4, 64320, Note_on_c, 3, 45, 96
4, 64512, Note_on_c, 3, 45, 0
4, 65280, Note_on_c, 3, 33, 64
4, 65736, Note_on_c, 3, 33, 0
4, 66240, Note_on_c, 3, 33, 64
4, 66696, Note_on_c, 3, 33, 0
4, 67200, Note_on_c, 3, 33, 64
4, 67656, Note_on_c, 3, 33, 0
4, 68160, Note_on_c, 3, 33, 64
4, 68616, Note_on_c, 3, 33, 0
4, 69120, Note_on_c, 3, 38, 64
4, 69348, Note_on_c, 3, 38, 0
4, 75840, Note_on_c, 3, 43, 96
4, 75912, Note_on_c, 3, 43, 0
4, 75960, Note_on_c, 3, 43, 96
4, 76032, Note_on_c, 3, 43, 0
4, 76080, Note_on_c, 3, 43, 96
4, 76152, Note_on_c, 3, 43, 0
4, 76200, Note_on_c, 3, 43, 96
4, 76272, Note_on_c, 3, 43, 0
4, 76320, Note_on_c, 3, 43, 96
4, 76392, Note_on_c, 3, 43, 0
4, 76440, Note_on_c, 3, 43, 96
4, 76512, Note_on_c, 3, 43, 0
4, 76560, Note_on_c, 3, 43, 96
4, 76632, Note_on_c, 3, 43, 0
4, 76680, Note_on_c, 3, 43, 96
4, 76752, Note_on_c, 3, 43, 0
4, 76800, Note_on_c, 3, 43, 96
4, 76872, Note_on_c, 3, 43, 0
4, 76920, Note_on_c, 3, 43, 96
4, 76992, Note_on_c, 3, 43, 0
4, 77040, Note_on_c, 3, 43, 96
4, 77112, Note_on_c, 3, 43, 0
4, 77160, Note_on_c, 3, 43, 96
4, 77232, Note_on_c, 3, 43, 0
4, 77280, Note_on_c, 3, 43, 96
4, 77352, Note_on_c, 3, 43, 0
4, 77400, Note_on_c, 3, 43, 96
4, 77472, Note_on_c, 3, 43, 0
4, 77520, Note_on_c, 3, 44, 96
4, 77592, Note_on_c, 3, 44, 0
4, 77640, Note_on_c, 3, 44, 96
4, 77712, Note_on_c, 3, 44, 0
4, 77760, Note_on_c, 3, 45, 112
4, 77880, Note_on_c, 3, 45, 0
4, 78000, Note_on_c, 3, 57, 112
4, 78120, Note_on_c, 3, 57, 0
4, 78240, Note_on_c, 3, 33, 112
4, 78240, Note_on_c, 3, 45, 112
4, 78432, Note_on_c, 3, 45, 0
4, 78432, Note_on_c, 3, 33, 0
4, 78960, Note_on_c, 3, 57, 112
4, 79080, Note_on_c, 3, 57, 0
4, 79200, Note_on_c, 3, 33, 112
4, 79392, Note_on_c, 3, 33, 0
4, 79920, Note_on_c, 3, 57, 112
4, 80040, Note_on_c, 3, 57, 0
4, 80160, Note_on_c, 3, 33, 112
4, 80352, Note_on_c, 3, 33, 0
4, 81840, Note_on_c, 3, 43, 80
4, 81924, Note_on_c, 3, 43, 0
4, 81960, Note_on_c, 3, 43, 80
4, 82044, Note_on_c, 3, 43, 0
4, 82080, Note_on_c, 3, 40, 90
4, 82164, Note_on_c, 3, 40, 0
4, 82200, Note_on_c, 3, 40, 90
4, 82284, Note_on_c, 3, 40, 0
4, 82320, Note_on_c, 3, 38, 100
4, 82404, Note_on_c, 3, 38, 0
4, 82440, Note_on_c, 3, 38, 100
4, 82524, Note_on_c, 3, 38, 0
4, 82560, Note_on_c, 3, 37, 112
4, 82944, Note_on_c, 3, 37, 0
4, 83880, Note_on_c, 3, 45, 112
4, 83912, Note_on_c, 3, 45, 0
4, 83920, Note_on_c, 3, 47, 112
4, 83952, Note_on_c, 3, 47, 0
4, 83960, Note_on_c, 3, 48, 112
4, 83992, Note_on_c, 3, 48, 0
4, 84000, Note_on_c, 3, 38, 112
4, 84000, Note_on_c, 3, 50, 112
4, 84384, Note_on_c, 3, 50, 0
4, 84384, Note_on_c, 3, 38, 0
4, 84840, Note_on_c, 3, 49, 112
4, 84872, Note_on_c, 3, 49, 0
4, 84880, Note_on_c, 3, 50, 112
4, 84912, Note_on_c, 3, 50, 0
4, 84920, Note_on_c, 3, 52, 112
4, 84952, Note_on_c, 3, 52, 0
4, 84960, Note_on_c, 3, 41, 112
4, 84960, Note_on_c, 3, 53, 112
4, 85344, Note_on_c, 3, 53, 0
4, 85344, Note_on_c, 3, 41, 0
4, 86160, Note_on_c, 3, 44, 112
4, 86352, Note_on_c, 3, 44, 0
4, 86400, Note_on_c, 3, 43, 112
4, 86496, Note_on_c, 3, 43, 0
4, 86520, Note_on_c, 3, 43, 112
4, 86616, Note_on_c, 3, 43, 0
4, 86640, Note_on_c, 3, 44, 112
4, 86736, Note_on_c, 3, 44, 0
4, 86760, Note_on_c, 3, 44, 112
4, 86856, Note_on_c, 3, 44, 0
4, 86880, Note_on_c, 3, 43, 112
4, 86976, Note_on_c, 3, 43, 0
4, 87000, Note_on_c, 3, 43, 112
4, 87096, Note_on_c, 3, 43, 0
4, 87120, Note_on_c, 3, 44, 112
4, 87216, Note_on_c, 3, 44, 0
4, 87240, Note_on_c, 3, 44, 112
4, 87336, Note_on_c, 3, 44, 0
4, 87360, Note_on_c, 3, 43, 112
4, 87936, Note_on_c, 3, 43, 0
4, 88560, Note_on_c, 3, 43, 112
4, 88944, Note_on_c, 3, 43, 0
4, 89040, Note_on_c, 3, 44, 112
4, 89856, Note_on_c, 3, 44, 0
4, 91440, Note_on_c, 3, 45, 112
4, 92016, Note_on_c, 3, 45, 0
4, 92160, Note_on_c, 3, 34, 112
4, 92256, Note_on_c, 3, 34, 0
4, 92280, Note_on_c, 3, 46, 112
4, 92376, Note_on_c, 3, 46, 0
4, 92400, Note_on_c, 3, 46, 112
4, 92496, Note_on_c, 3, 46, 0
4, 92520, Note_on_c, 3, 46, 112
4, 92616, Note_on_c, 3, 46, 0
4, 92640, Note_on_c, 3, 46, 112
4, 92736, Note_on_c, 3, 46, 0
4, 92760, Note_on_c, 3, 46, 112
4, 92856, Note_on_c, 3, 46, 0
4, 92880, Note_on_c, 3, 46, 112
4, 92976, Note_on_c, 3, 46, 0
4, 93000, Note_on_c, 3, 47, 112
4, 93096, Note_on_c, 3, 47, 0
4, 93120, Note_on_c, 3, 33, 112
4, 93504, Note_on_c, 3, 33, 0
4, 93600, Note_on_c, 3, 33, 112
4, 93984, Note_on_c, 3, 33, 0
4, 94080, Note_on_c, 3, 38, 112
4, 94848, Note_on_c, 3, 38, 0
4, 94848, End_track
5, 0, Start_track
5, 0, MIDI_port, 0
5, 0, Title_t, "Soprano  weimermt@libby.org 7/21/95"
5, 0, Program_c, 0, 52
5, 0, Control_c, 0, 7, 127
5, 0, Control_c, 0, 10, 64
5, 0, Control_c, 0, 91, 101
5, 1560, Note_on_c, 0, 69, 112
5, 1597, Note_on_c, 0, 69, 0
5, 1680, Note_on_c, 0, 69, 112
5, 1720, Note_on_c, 0, 69, 0
5, 1800, Note_on_c, 0, 69, 112
5, 1834, Note_on_c, 0, 69, 0
5, 1920, Note_on_c, 0, 74, 112
5, 2255, Note_on_c, 0, 74, 0
5, 2280, Note_on_c, 0, 69, 112
5, 2352, Note_on_c, 0, 69, 0
5, 2400, Note_on_c, 0, 77, 112
5, 2472, Note_on_c, 0, 77, 0
5, 2520, Note_on_c, 0, 77, 112
5, 2592, Note_on_c, 0, 77, 0
5, 2640, Note_on_c, 0, 76, 112
5, 2712, Note_on_c, 0, 76, 0
5, 2760, Note_on_c, 0, 76, 112
5, 2832, Note_on_c, 0, 76, 0
5, 2880, Note_on_c, 0, 74, 112
5, 3120, Note_on_c, 0, 74, 0
5, 3120, Note_on_c, 0, 69, 112
5, 3480, Note_on_c, 0, 69, 0
5, 3840, Note_on_c, 0, 79, 112
5, 4200, Note_on_c, 0, 79, 0
5, 4560, Note_on_c, 0, 76, 112
5, 4622, Note_on_c, 0, 76, 0
5, 4680, Note_on_c, 0, 73, 112
5, 4756, Note_on_c, 0, 73, 0
5, 4800, Note_on_c, 0, 81, 112
5, 4933, Note_on_c, 0, 81, 0
5, 5040, Note_on_c, 0, 74, 112
5, 5490, Note_on_c, 0, 74, 0
5, 5760, Note_on_c, 0, 75, 112
5, 6196, Note_on_c, 0, 75, 0
5, 6240, Note_on_c, 0, 78, 112
5, 6522, Note_on_c, 0, 78, 0
5, 6600, Note_on_c, 0, 78, 112
5, 6692, Note_on_c, 0, 78, 0
5, 6720, Note_on_c, 0, 79, 112
5, 6919, Note_on_c, 0, 79, 0
5, 6960, Note_on_c, 0, 81, 112
5, 7180, Note_on_c, 0, 81, 0
5, 7200, Note_on_c, 0, 82, 112
5, 7914, Note_on_c, 0, 82, 0
5, 7920, Note_on_c, 0, 79, 112
5, 8158, Note_on_c, 0, 79, 0
5, 8160, Note_on_c, 0, 75, 112
5, 8280, Note_on_c, 0, 75, 0
5, 8400, Note_on_c, 0, 74, 112
5, 8640, Note_on_c, 0, 73, 112
5, 8700, Note_on_c, 0, 74, 0
5, 8844, Note_on_c, 0, 73, 0
5, 9600, Note_on_c, 0, 65, 112
5, 10080, Note_on_c, 0, 65, 0
5, 10080, Note_on_c, 0, 69, 112
5, 10200, Note_on_c, 0, 69, 0
5, 10320, Note_on_c, 0, 72, 112
5, 10440, Note_on_c, 0, 72, 0
5, 10560, Note_on_c, 0, 77, 112
5, 10998, Note_on_c, 0, 77, 0
5, 11400, Note_on_c, 0, 72, 112
5, 11520, Note_on_c, 0, 81, 112
5, 11521, Note_on_c, 0, 72, 0
5, 11634, Note_on_c, 0, 81, 0
5, 11640, Note_on_c, 0, 79, 112
5, 11688, Note_on_c, 0, 79, 0
5, 11760, Note_on_c, 0, 77, 112
5, 11874, Note_on_c, 0, 77, 0
5, 11880, Note_on_c, 0, 76, 112
5, 11928, Note_on_c, 0, 76, 0
5, 12000, Note_on_c, 0, 74, 112
5, 12114, Note_on_c, 0, 74, 0
5, 12120, Note_on_c, 0, 72, 112
5, 12168, Note_on_c, 0, 72, 0
5, 12240, Note_on_c, 0, 70, 112
5, 12354, Note_on_c, 0, 70, 0
5, 12360, Note_on_c, 0, 69, 112
5, 12408, Note_on_c, 0, 69, 0
5, 12480, Note_on_c, 0, 70, 112
5, 12672, Note_on_c, 0, 70, 0
5, 12720, Note_on_c, 0, 79, 112
5, 12960, Note_on_c, 0, 79, 0
5, 13320, Note_on_c, 0, 79, 112
5, 13434, Note_on_c, 0, 79, 0
5, 13440, Note_on_c, 0, 82, 112
5, 13554, Note_on_c, 0, 82, 0
5, 13560, Note_on_c, 0, 81, 112
5, 13608, Note_on_c, 0, 81, 0
5, 13680, Note_on_c, 0, 79, 112
5, 13794, Note_on_c, 0, 79, 0
5, 13800, Note_on_c, 0, 77, 112
5, 13848, Note_on_c, 0, 77, 0
5, 13920, Note_on_c, 0, 76, 112
5, 14034, Note_on_c, 0, 76, 0
5, 14040, Note_on_c, 0, 74, 112
5, 14088, Note_on_c, 0, 74, 0
5, 14160, Note_on_c, 0, 72, 112
5, 14274, Note_on_c, 0, 72, 0
5, 14280, Note_on_c, 0, 70, 112
5, 14394, Note_on_c, 0, 70, 0
5, 14400, Note_on_c, 0, 69, 112
5, 14592, Note_on_c, 0, 69, 0
5, 14640, Note_on_c, 0, 77, 112
5, 15024, Note_on_c, 0, 77, 0
5, 15600, Note_on_c, 0, 70, 112
5, 15792, Note_on_c, 0, 70, 0
5, 15840, Note_on_c, 0, 74, 112
5, 16032, Note_on_c, 0, 74, 0
5, 16080, Note_on_c, 0, 77, 112
5, 16272, Note_on_c, 0, 77, 0
5, 16320, Note_on_c, 0, 82, 112
5, 16776, Note_on_c, 0, 82, 0
5, 16800, Note_on_c, 0, 81, 112
5, 17256, Note_on_c, 0, 81, 0
5, 17280, Note_on_c, 0, 80, 112
5, 17424, Note_on_c, 0, 80, 0
5, 17640, Note_on_c, 0, 77, 112
5, 17736, Note_on_c, 0, 77, 0
5, 17760, Note_on_c, 0, 80, 112
5, 18048, Note_on_c, 0, 80, 0
5, 18120, Note_on_c, 0, 77, 112
5, 18216, Note_on_c, 0, 77, 0
5, 18240, Note_on_c, 0, 76, 112
5, 18432, Note_on_c, 0, 76, 0
5, 18960, Note_on_c, 0, 72, 112
5, 19188, Note_on_c, 0, 72, 0
5, 19200, Note_on_c, 0, 77, 112
5, 19656, Note_on_c, 0, 77, 0
5, 19680, Note_on_c, 0, 79, 112
5, 20136, Note_on_c, 0, 79, 0
5, 20160, Note_on_c, 0, 81, 112
5, 20544, Note_on_c, 0, 81, 0
5, 20880, Note_on_c, 0, 72, 112
5, 20976, Note_on_c, 0, 72, 0
5, 21000, Note_on_c, 0, 72, 112
5, 21096, Note_on_c, 0, 72, 0
5, 21120, Note_on_c, 0, 77, 112
5, 21408, Note_on_c, 0, 77, 0
5, 21480, Note_on_c, 0, 77, 112
5, 21576, Note_on_c, 0, 77, 0
5, 21600, Note_on_c, 0, 79, 112
5, 21888, Note_on_c, 0, 79, 0
5, 21960, Note_on_c, 0, 79, 112
5, 22056, Note_on_c, 0, 79, 0
5, 22080, Note_on_c, 0, 81, 112
5, 22272, Note_on_c, 0, 81, 0
5, 22770, Note_on_c, 0, 82, 112
5, 22794, Note_on_c, 0, 82, 0
5, 22800, Note_on_c, 0, 81, 112
5, 22848, Note_on_c, 0, 81, 0
5, 22860, Note_on_c, 0, 79, 112
5, 22908, Note_on_c, 0, 79, 0
5, 22920, Note_on_c, 0, 81, 112
5, 22968, Note_on_c, 0, 81, 0
5, 22980, Note_on_c, 0, 82, 112
5, 23028, Note_on_c, 0, 82, 0
5, 23040, Note_on_c, 0, 84, 112
5, 23088, Note_on_c, 0, 84, 0
5, 23160, Note_on_c, 0, 84, 112
5, 23208, Note_on_c, 0, 84, 0
5, 23280, Note_on_c, 0, 84, 112
5, 23328, Note_on_c, 0, 84, 0
5, 23400, Note_on_c, 0, 84, 112
5, 23448, Note_on_c, 0, 84, 0
5, 23520, Note_on_c, 0, 84, 112
5, 23568, Note_on_c, 0, 84, 0
5, 23640, Note_on_c, 0, 84, 112
5, 23688, Note_on_c, 0, 84, 0
5, 23760, Note_on_c, 0, 84, 112
5, 23808, Note_on_c, 0, 84, 0
5, 23880, Note_on_c, 0, 84, 112
5, 23928, Note_on_c, 0, 84, 0
5, 24000, Note_on_c, 0, 77, 112
5, 24384, Note_on_c, 0, 77, 0
5, 24690, Note_on_c, 0, 79, 112
5, 24714, Note_on_c, 0, 79, 0
5, 24720, Note_on_c, 0, 77, 112
5, 24768, Note_on_c, 0, 77, 0
5, 24780, Note_on_c, 0, 76, 112
5, 24828, Note_on_c, 0, 76, 0
5, 24840, Note_on_c, 0, 77, 112
5, 24888, Note_on_c, 0, 77, 0
5, 24900, Note_on_c, 0, 79, 112
5, 24948, Note_on_c, 0, 79, 0
5, 24960, Note_on_c, 0, 81, 112
5, 25008, Note_on_c, 0, 81, 0
5, 25080, Note_on_c, 0, 81, 112
5, 25128, Note_on_c, 0, 81, 0
5, 25200, Note_on_c, 0, 81, 112
5, 25248, Note_on_c, 0, 81, 0
5, 25320, Note_on_c, 0, 81, 112
5, 25368, Note_on_c, 0, 81, 0
5, 25440, Note_on_c, 0, 81, 112
5, 25488, Note_on_c, 0, 81, 0
5, 25560, Note_on_c, 0, 81, 112
5, 25608, Note_on_c, 0, 81, 0
5, 25680, Note_on_c, 0, 81, 112
5, 25728, Note_on_c, 0, 81, 0
5, 25800, Note_on_c, 0, 81, 112
5, 25848, Note_on_c, 0, 81, 0
5, 25920, Note_on_c, 0, 74, 112
5, 26304, Note_on_c, 0, 74, 0
5, 26610, Note_on_c, 0, 76, 112
5, 26634, Note_on_c, 0, 76, 0
5, 26640, Note_on_c, 0, 74, 112
5, 26688, Note_on_c, 0, 74, 0
5, 26700, Note_on_c, 0, 72, 112
5, 26748, Note_on_c, 0, 72, 0
5, 26760, Note_on_c, 0, 74, 112
5, 26808, Note_on_c, 0, 74, 0
5, 26820, Note_on_c, 0, 76, 112
5, 26868, Note_on_c, 0, 76, 0
5, 26880, Note_on_c, 0, 77, 112
5, 26916, Note_on_c, 0, 77, 0
5, 27000, Note_on_c, 0, 77, 112
5, 27036, Note_on_c, 0, 77, 0
5, 27120, Note_on_c, 0, 77, 112
5, 27156, Note_on_c, 0, 77, 0
5, 27240, Note_on_c, 0, 72, 112
5, 27336, Note_on_c, 0, 72, 0
5, 27360, Note_on_c, 0, 79, 112
5, 27396, Note_on_c, 0, 79, 0
5, 27480, Note_on_c, 0, 79, 112
5, 27516, Note_on_c, 0, 79, 0
5, 27600, Note_on_c, 0, 79, 112
5, 27636, Note_on_c, 0, 79, 0
5, 27720, Note_on_c, 0, 72, 112
5, 27816, Note_on_c, 0, 72, 0
5, 27840, Note_on_c, 0, 81, 112
5, 27888, Note_on_c, 0, 81, 0
5, 27960, Note_on_c, 0, 77, 112
5, 28008, Note_on_c, 0, 77, 0
5, 28080, Note_on_c, 0, 81, 112
5, 28128, Note_on_c, 0, 81, 0
5, 28200, Note_on_c, 0, 84, 112
5, 28248, Note_on_c, 0, 84, 0
5, 28320, Note_on_c, 0, 89, 112
5, 28368, Note_on_c, 0, 89, 0
5, 28440, Note_on_c, 0, 84, 112
5, 28488, Note_on_c, 0, 84, 0
5, 28560, Note_on_c, 0, 86, 112
5, 28608, Note_on_c, 0, 86, 0
5, 28680, Note_on_c, 0, 82, 112
5, 28728, Note_on_c, 0, 82, 0
5, 28800, Note_on_c, 0, 84, 112
5, 28848, Note_on_c, 0, 84, 0
5, 28920, Note_on_c, 0, 77, 112
5, 28968, Note_on_c, 0, 77, 0
5, 29040, Note_on_c, 0, 81, 112
5, 29088, Note_on_c, 0, 81, 0
5, 29160, Note_on_c, 0, 84, 112
5, 29208, Note_on_c, 0, 84, 0
5, 29280, Note_on_c, 0, 89, 112
5, 29328, Note_on_c, 0, 89, 0
5, 29400, Note_on_c, 0, 84, 112
5, 29448, Note_on_c, 0, 84, 0
5, 29520, Note_on_c, 0, 86, 112
5, 29568, Note_on_c, 0, 86, 0
5, 29640, Note_on_c, 0, 82, 112
5, 29688, Note_on_c, 0, 82, 0
5, 29760, Note_on_c, 0, 84, 112
5, 30000, Note_on_c, 0, 84, 0
5, 30240, Note_on_c, 0, 77, 112
5, 30528, Note_on_c, 0, 77, 0
5, 30600, Note_on_c, 0, 77, 112
5, 30696, Note_on_c, 0, 77, 0
5, 30720, Note_on_c, 0, 79, 112
5, 31104, Note_on_c, 0, 79, 0
5, 31200, Note_on_c, 0, 82, 112
5, 31584, Note_on_c, 0, 82, 0
5, 31680, Note_on_c, 0, 72, 112
5, 32256, Note_on_c, 0, 72, 0
5, 32400, Note_on_c, 0, 74, 112
5, 32496, Note_on_c, 0, 74, 0
5, 32520, Note_on_c, 0, 76, 112
5, 32616, Note_on_c, 0, 76, 0
5, 32640, Note_on_c, 0, 77, 112
5, 32832, Note_on_c, 0, 77, 0
5, 33330, Note_on_c, 0, 82, 112
5, 33354, Note_on_c, 0, 82, 0
5, 33360, Note_on_c, 0, 81, 112
5, 33408, Note_on_c, 0, 81, 0
5, 33420, Note_on_c, 0, 79, 112
5, 33468, Note_on_c, 0, 79, 0
5, 33480, Note_on_c, 0, 81, 112
5, 33528, Note_on_c, 0, 81, 0
5, 33540, Note_on_c, 0, 82, 112
5, 33588, Note_on_c, 0, 82, 0
5, 33600, Note_on_c, 0, 84, 112
5, 33636, Note_on_c, 0, 84, 0
5, 33720, Note_on_c, 0, 84, 112
5, 33756, Note_on_c, 0, 84, 0
5, 33840, Note_on_c, 0, 84, 112
5, 33876, Note_on_c, 0, 84, 0
5, 33960, Note_on_c, 0, 84, 112
5, 33996, Note_on_c, 0, 84, 0
5, 34080, Note_on_c, 0, 84, 112
5, 34116, Note_on_c, 0, 84, 0
5, 34200, Note_on_c, 0, 84, 112
5, 34236, Note_on_c, 0, 84, 0
5, 34320, Note_on_c, 0, 84, 112
5, 34356, Note_on_c, 0, 84, 0
5, 34440, Note_on_c, 0, 84, 112
5, 34476, Note_on_c, 0, 84, 0
5, 34560, Note_on_c, 0, 77, 112
5, 34944, Note_on_c, 0, 77, 0
5, 35250, Note_on_c, 0, 79, 112
5, 35274, Note_on_c, 0, 79, 0
5, 35280, Note_on_c, 0, 77, 112
5, 35328, Note_on_c, 0, 77, 0
5, 35340, Note_on_c, 0, 76, 112
5, 35388, Note_on_c, 0, 76, 0
5, 35400, Note_on_c, 0, 77, 112
5, 35448, Note_on_c, 0, 77, 0
5, 35460, Note_on_c, 0, 79, 112
5, 35508, Note_on_c, 0, 79, 0
5, 35520, Note_on_c, 0, 81, 112
5, 35556, Note_on_c, 0, 81, 0
5, 35640, Note_on_c, 0, 81, 112
5, 35676, Note_on_c, 0, 81, 0
5, 35760, Note_on_c, 0, 81, 112
5, 35796, Note_on_c, 0, 81, 0
5, 35880, Note_on_c, 0, 81, 112
5, 35916, Note_on_c, 0, 81, 0
5, 36000, Note_on_c, 0, 81, 112
5, 36036, Note_on_c, 0, 81, 0
5, 36120, Note_on_c, 0, 81, 112
5, 36156, Note_on_c, 0, 81, 0
5, 36240, Note_on_c, 0, 81, 112
5, 36276, Note_on_c, 0, 81, 0
5, 36360, Note_on_c, 0, 81, 112
5, 36396, Note_on_c, 0, 81, 0
5, 36480, Note_on_c, 0, 74, 112
5, 36864, Note_on_c, 0, 74, 0
5, 37170, Note_on_c, 0, 76, 112
5, 37194, Note_on_c, 0, 76, 0
5, 37200, Note_on_c, 0, 74, 112
5, 37248, Note_on_c, 0, 74, 0
5, 37260, Note_on_c, 0, 72, 112
5, 37308, Note_on_c, 0, 72, 0
5, 37320, Note_on_c, 0, 74, 112
5, 37368, Note_on_c, 0, 74, 0
5, 37380, Note_on_c, 0, 76, 112
5, 37428, Note_on_c, 0, 76, 0
5, 37440, Note_on_c, 0, 77, 112
5, 37476, Note_on_c, 0, 77, 0
5, 37560, Note_on_c, 0, 77, 112
5, 37596, Note_on_c, 0, 77, 0
5, 37680, Note_on_c, 0, 77, 112
5, 37716, Note_on_c, 0, 77, 0
5, 37800, Note_on_c, 0, 72, 112
5, 37896, Note_on_c, 0, 72, 0
5, 37920, Note_on_c, 0, 79, 112
5, 37956, Note_on_c, 0, 79, 0
5, 38040, Note_on_c, 0, 79, 112
5, 38076, Note_on_c, 0, 79, 0
5, 38160, Note_on_c, 0, 79, 112
5, 38196, Note_on_c, 0, 79, 0
5, 38280, Note_on_c, 0, 72, 112
5, 38376, Note_on_c, 0, 72, 0
5, 38400, Note_on_c, 0, 81, 112
5, 38448, Note_on_c, 0, 81, 0
5, 38520, Note_on_c, 0, 77, 112
5, 38568, Note_on_c, 0, 77, 0
5, 38640, Note_on_c, 0, 81, 112
5, 38688, Note_on_c, 0, 81, 0
5, 38760, Note_on_c, 0, 84, 112
5, 38808, Note_on_c, 0, 84, 0
5, 38880, Note_on_c, 0, 89, 112
5, 38928, Note_on_c, 0, 89, 0
5, 39000, Note_on_c, 0, 84, 112
5, 39048, Note_on_c, 0, 84, 0
5, 39120, Note_on_c, 0, 86, 112
5, 39168, Note_on_c, 0, 86, 0
5, 39240, Note_on_c, 0, 82, 112
5, 39288, Note_on_c, 0, 82, 0
5, 39360, Note_on_c, 0, 84, 112
5, 39408, Note_on_c, 0, 84, 0
5, 39480, Note_on_c, 0, 77, 112
5, 39528, Note_on_c, 0, 77, 0
5, 39600, Note_on_c, 0, 81, 112
5, 39648, Note_on_c, 0, 81, 0
5, 39720, Note_on_c, 0, 84, 112
5, 39768, Note_on_c, 0, 84, 0
5, 39840, Note_on_c, 0, 89, 112
5, 39888, Note_on_c, 0, 89, 0
5, 39960, Note_on_c, 0, 84, 112
5, 40008, Note_on_c, 0, 84, 0
5, 40080, Note_on_c, 0, 86, 112
5, 40128, Note_on_c, 0, 86, 0
5, 40200, Note_on_c, 0, 82, 112
5, 40248, Note_on_c, 0, 82, 0
5, 40320, Note_on_c, 0, 84, 112
5, 40560, Note_on_c, 0, 84, 0
5, 40800, Note_on_c, 0, 77, 112
5, 41250, Note_on_c, 0, 77, 0
5, 41280, Note_on_c, 0, 79, 112
5, 41568, Note_on_c, 0, 79, 0
5, 41640, Note_on_c, 0, 79, 112
5, 41736, Note_on_c, 0, 79, 0
5, 41760, Note_on_c, 0, 80, 112
5, 42048, Note_on_c, 0, 80, 0
5, 42120, Note_on_c, 0, 80, 112
5, 42216, Note_on_c, 0, 80, 0
5, 42240, Note_on_c, 0, 81, 112
5, 42624, Note_on_c, 0, 81, 0
5, 42720, Note_on_c, 0, 77, 112
5, 43104, Note_on_c, 0, 77, 0
5, 43200, Note_on_c, 0, 72, 112
5, 43776, Note_on_c, 0, 72, 0
5, 43920, Note_on_c, 0, 74, 112
5, 44016, Note_on_c, 0, 74, 0
5, 44040, Note_on_c, 0, 76, 112
5, 44136, Note_on_c, 0, 76, 0
5, 44160, Note_on_c, 0, 77, 112
5, 44544, Note_on_c, 0, 77, 0
5, 49800, Note_on_c, 0, 77, 112
5, 49896, Note_on_c, 0, 77, 0
5, 49920, Note_on_c, 0, 77, 112
5, 50112, Note_on_c, 0, 77, 0
5, 50280, Note_on_c, 0, 77, 112
5, 50376, Note_on_c, 0, 77, 0
5, 50400, Note_on_c, 0, 77, 112
5, 50592, Note_on_c, 0, 77, 0
5, 50760, Note_on_c, 0, 77, 112
5, 50856, Note_on_c, 0, 77, 0
5, 50880, Note_on_c, 0, 77, 112
5, 51072, Note_on_c, 0, 77, 0
5, 51120, Note_on_c, 0, 65, 112
5, 51312, Note_on_c, 0, 65, 0
5, 51720, Note_on_c, 0, 77, 112
5, 51816, Note_on_c, 0, 77, 0
5, 51840, Note_on_c, 0, 77, 112
5, 52032, Note_on_c, 0, 77, 0
5, 52200, Note_on_c, 0, 77, 112
5, 52296, Note_on_c, 0, 77, 0
5, 52320, Note_on_c, 0, 77, 112
5, 52512, Note_on_c, 0, 77, 0
5, 52680, Note_on_c, 0, 77, 112
5, 52776, Note_on_c, 0, 77, 0
5, 52800, Note_on_c, 0, 77, 112
5, 52992, Note_on_c, 0, 77, 0
5, 53040, Note_on_c, 0, 65, 112
5, 53232, Note_on_c, 0, 65, 0
5, 53640, Note_on_c, 0, 77, 112
5, 53736, Note_on_c, 0, 77, 0
5, 53760, Note_on_c, 0, 77, 112
5, 53952, Note_on_c, 0, 77, 0
5, 54120, Note_on_c, 0, 77, 112
5, 54216, Note_on_c, 0, 77, 0
5, 54240, Note_on_c, 0, 77, 112
5, 54432, Note_on_c, 0, 77, 0
5, 54600, Note_on_c, 0, 77, 112
5, 54696, Note_on_c, 0, 77, 0
5, 54720, Note_on_c, 0, 77, 112
5, 54912, Note_on_c, 0, 77, 0
5, 54960, Note_on_c, 0, 65, 112
5, 55152, Note_on_c, 0, 65, 0
5, 55440, Note_on_c, 0, 65, 112
5, 55536, Note_on_c, 0, 65, 0
5, 55560, Note_on_c, 0, 65, 112
5, 55656, Note_on_c, 0, 65, 0
5, 55680, Note_on_c, 0, 75, 112
5, 56064, Note_on_c, 0, 75, 0
5, 56160, Note_on_c, 0, 72, 112
5, 56544, Note_on_c, 0, 72, 0
5, 56640, Note_on_c, 0, 69, 112
5, 57024, Note_on_c, 0, 69, 0
5, 57120, Note_on_c, 0, 74, 112
5, 57504, Note_on_c, 0, 74, 0
5, 57600, Note_on_c, 0, 67, 112
5, 58176, Note_on_c, 0, 67, 0
5, 58440, Note_on_c, 0, 79, 112
5, 58536, Note_on_c, 0, 79, 0
5, 58560, Note_on_c, 0, 79, 112
5, 58752, Note_on_c, 0, 79, 0
5, 58800, Note_on_c, 0, 67, 112
5, 58992, Note_on_c, 0, 67, 0
5, 59400, Note_on_c, 0, 79, 112
5, 59496, Note_on_c, 0, 79, 0
5, 59520, Note_on_c, 0, 79, 112
5, 59712, Note_on_c, 0, 79, 0
5, 59760, Note_on_c, 0, 67, 112
5, 59952, Note_on_c, 0, 67, 0
5, 60240, Note_on_c, 0, 79, 112
5, 60336, Note_on_c, 0, 79, 0
5, 60360, Note_on_c, 0, 79, 112
5, 60456, Note_on_c, 0, 79, 0
5, 60480, Note_on_c, 0, 79, 112
5, 60672, Note_on_c, 0, 79, 0
5, 60720, Note_on_c, 0, 67, 112
5, 60912, Note_on_c, 0, 67, 0
5, 61200, Note_on_c, 0, 67, 112
5, 61296, Note_on_c, 0, 67, 0
5, 61320, Note_on_c, 0, 67, 112
5, 61416, Note_on_c, 0, 67, 0
5, 61440, Note_on_c, 0, 77, 112
5, 61824, Note_on_c, 0, 77, 0
5, 61920, Note_on_c, 0, 74, 112
5, 62304, Note_on_c, 0, 74, 0
5, 62400, Note_on_c, 0, 71, 112
5, 62784, Note_on_c, 0, 71, 0
5, 62880, Note_on_c, 0, 76, 112
5, 63264, Note_on_c, 0, 76, 0
5, 63360, Note_on_c, 0, 69, 112
5, 63936, Note_on_c, 0, 69, 0
5, 64320, Note_on_c, 0, 69, 112
5, 64776, Note_on_c, 0, 69, 0
5, 64800, Note_on_c, 0, 76, 112
5, 65256, Note_on_c, 0, 76, 0
5, 65280, Note_on_c, 0, 77, 112
5, 65356, Note_on_c, 0, 77, 0
5, 65360, Note_on_c, 0, 79, 112
5, 65436, Note_on_c, 0, 79, 0
5, 65440, Note_on_c, 0, 77, 112
5, 65516, Note_on_c, 0, 77, 0
5, 65520, Note_on_c, 0, 81, 112
5, 65596, Note_on_c, 0, 81, 0
5, 65600, Note_on_c, 0, 82, 112
5, 65676, Note_on_c, 0, 82, 0
5, 65680, Note_on_c, 0, 81, 112
5, 65756, Note_on_c, 0, 81, 0
5, 65760, Note_on_c, 0, 77, 112
5, 65836, Note_on_c, 0, 77, 0
5, 65840, Note_on_c, 0, 79, 112
5, 65916, Note_on_c, 0, 79, 0
5, 65920, Note_on_c, 0, 77, 112
5, 65996, Note_on_c, 0, 77, 0
5, 66000, Note_on_c, 0, 74, 112
5, 66076, Note_on_c, 0, 74, 0
5, 66080, Note_on_c, 0, 76, 112
5, 66156, Note_on_c, 0, 76, 0
5, 66160, Note_on_c, 0, 74, 112
5, 66236, Note_on_c, 0, 74, 0
5, 66240, Note_on_c, 0, 73, 112
5, 66316, Note_on_c, 0, 73, 0
5, 66320, Note_on_c, 0, 74, 112
5, 66396, Note_on_c, 0, 74, 0
5, 66400, Note_on_c, 0, 73, 112
5, 66476, Note_on_c, 0, 73, 0
5, 66480, Note_on_c, 0, 69, 112
5, 66556, Note_on_c, 0, 69, 0
5, 66560, Note_on_c, 0, 71, 112
5, 66636, Note_on_c, 0, 71, 0
5, 66640, Note_on_c, 0, 69, 112
5, 66716, Note_on_c, 0, 69, 0
5, 66720, Note_on_c, 0, 73, 112
5, 66796, Note_on_c, 0, 73, 0
5, 66800, Note_on_c, 0, 74, 112
5, 66876, Note_on_c, 0, 74, 0
5, 66880, Note_on_c, 0, 73, 112
5, 66956, Note_on_c, 0, 73, 0
5, 66960, Note_on_c, 0, 76, 112
5, 67036, Note_on_c, 0, 76, 0
5, 67040, Note_on_c, 0, 77, 112
5, 67116, Note_on_c, 0, 77, 0
5, 67120, Note_on_c, 0, 76, 112
5, 67196, Note_on_c, 0, 76, 0
5, 67200, Note_on_c, 0, 77, 112
5, 67276, Note_on_c, 0, 77, 0
5, 67280, Note_on_c, 0, 79, 112
5, 67356, Note_on_c, 0, 79, 0
5, 67360, Note_on_c, 0, 77, 112
5, 67436, Note_on_c, 0, 77, 0
5, 67440, Note_on_c, 0, 81, 112
5, 67516, Note_on_c, 0, 81, 0
5, 67520, Note_on_c, 0, 82, 112
5, 67596, Note_on_c, 0, 82, 0
5, 67600, Note_on_c, 0, 81, 112
5, 67676, Note_on_c, 0, 81, 0
5, 67680, Note_on_c, 0, 77, 112
5, 67756, Note_on_c, 0, 77, 0
5, 67760, Note_on_c, 0, 79, 112
5, 67836, Note_on_c, 0, 79, 0
5, 67840, Note_on_c, 0, 77, 112
5, 67916, Note_on_c, 0, 77, 0
5, 67920, Note_on_c, 0, 74, 112
5, 67996, Note_on_c, 0, 74, 0
5, 68000, Note_on_c, 0, 76, 112
5, 68076, Note_on_c, 0, 76, 0
5, 68080, Note_on_c, 0, 74, 112
5, 68156, Note_on_c, 0, 74, 0
5, 68160, Note_on_c, 0, 73, 112
5, 68236, Note_on_c, 0, 73, 0
5, 68240, Note_on_c, 0, 74, 112
5, 68316, Note_on_c, 0, 74, 0
5, 68320, Note_on_c, 0, 73, 112
5, 68396, Note_on_c, 0, 73, 0
5, 68400, Note_on_c, 0, 69, 112
5, 68476, Note_on_c, 0, 69, 0
5, 68480, Note_on_c, 0, 71, 112
5, 68556, Note_on_c, 0, 71, 0
5, 68560, Note_on_c, 0, 69, 112
5, 68636, Note_on_c, 0, 69, 0
5, 68640, Note_on_c, 0, 73, 112
5, 68716, Note_on_c, 0, 73, 0
5, 68720, Note_on_c, 0, 74, 112
5, 68796, Note_on_c, 0, 74, 0
5, 68800, Note_on_c, 0, 73, 112
5, 68876, Note_on_c, 0, 73, 0
5, 68880, Note_on_c, 0, 76, 112
5, 68956, Note_on_c, 0, 76, 0
5, 68960, Note_on_c, 0, 77, 112
5, 69036, Note_on_c, 0, 77, 0
5, 69040, Note_on_c, 0, 76, 112
5, 69116, Note_on_c, 0, 76, 0
5, 69120, Note_on_c, 0, 77, 112
5, 69348, Note_on_c, 0, 77, 0
5, 70200, Note_on_c, 0, 74, 112
5, 70248, Note_on_c, 0, 74, 0
5, 70320, Note_on_c, 0, 77, 112
5, 70368, Note_on_c, 0, 77, 0
5, 70440, Note_on_c, 0, 81, 112
5, 70488, Note_on_c, 0, 81, 0
5, 70560, Note_on_c, 0, 86, 112
5, 70608, Note_on_c, 0, 86, 0
5, 70680, Note_on_c, 0, 81, 112
5, 70728, Note_on_c, 0, 81, 0
5, 70800, Note_on_c, 0, 82, 112
5, 70848, Note_on_c, 0, 82, 0
5, 70920, Note_on_c, 0, 79, 112
5, 70968, Note_on_c, 0, 79, 0
5, 71040, Note_on_c, 0, 81, 112
5, 71232, Note_on_c, 0, 81, 0
5, 72120, Note_on_c, 0, 74, 112
5, 72156, Note_on_c, 0, 74, 0
5, 72240, Note_on_c, 0, 77, 112
5, 72276, Note_on_c, 0, 77, 0
5, 72360, Note_on_c, 0, 81, 112
5, 72396, Note_on_c, 0, 81, 0
5, 72480, Note_on_c, 0, 86, 112
5, 72516, Note_on_c, 0, 86, 0
5, 72600, Note_on_c, 0, 81, 112
5, 72636, Note_on_c, 0, 81, 0
5, 72720, Note_on_c, 0, 82, 112
5, 72756, Note_on_c, 0, 82, 0
5, 72840, Note_on_c, 0, 79, 112
5, 72876, Note_on_c, 0, 79, 0
5, 72960, Note_on_c, 0, 81, 112
5, 72996, Note_on_c, 0, 81, 0
5, 73080, Note_on_c, 0, 74, 112
5, 73116, Note_on_c, 0, 74, 0
5, 73200, Note_on_c, 0, 77, 112
5, 73236, Note_on_c, 0, 77, 0
5, 73320, Note_on_c, 0, 81, 112
5, 73356, Note_on_c, 0, 81, 0
5, 73440, Note_on_c, 0, 86, 112
5, 73476, Note_on_c, 0, 86, 0
5, 73560, Note_on_c, 0, 81, 112
5, 73596, Note_on_c, 0, 81, 0
5, 73680, Note_on_c, 0, 86, 112
5, 73716, Note_on_c, 0, 86, 0
5, 73800, Note_on_c, 0, 84, 112
5, 73836, Note_on_c, 0, 84, 0
5, 73920, Note_on_c, 0, 82, 112
5, 73956, Note_on_c, 0, 82, 0
5, 74040, Note_on_c, 0, 79, 112
5, 74076, Note_on_c, 0, 79, 0
5, 74160, Note_on_c, 0, 84, 112
5, 74196, Note_on_c, 0, 84, 0
5, 74280, Note_on_c, 0, 82, 112
5, 74316, Note_on_c, 0, 82, 0
5, 74400, Note_on_c, 0, 81, 112
5, 74436, Note_on_c, 0, 81, 0
5, 74520, Note_on_c, 0, 77, 112
5, 74556, Note_on_c, 0, 77, 0
5, 74640, Note_on_c, 0, 82, 112
5, 74676, Note_on_c, 0, 82, 0
5, 74760, Note_on_c, 0, 81, 112
5, 74796, Note_on_c, 0, 81, 0
5, 74880, Note_on_c, 0, 79, 112
5, 74916, Note_on_c, 0, 79, 0
5, 75000, Note_on_c, 0, 76, 112
5, 75036, Note_on_c, 0, 76, 0
5, 75120, Note_on_c, 0, 81, 112
5, 75156, Note_on_c, 0, 81, 0
5, 75240, Note_on_c, 0, 79, 112
5, 75276, Note_on_c, 0, 79, 0
5, 75360, Note_on_c, 0, 77, 112
5, 75564, Note_on_c, 0, 77, 0
5, 75600, Note_on_c, 0, 74, 112
5, 75768, Note_on_c, 0, 74, 0
5, 75840, Note_on_c, 0, 75, 112
5, 76272, Note_on_c, 0, 75, 0
5, 76320, Note_on_c, 0, 79, 112
5, 76752, Note_on_c, 0, 79, 0
5, 76800, Note_on_c, 0, 82, 112
5, 77016, Note_on_c, 0, 82, 0
5, 77040, Note_on_c, 0, 79, 112
5, 77256, Note_on_c, 0, 79, 0
5, 77280, Note_on_c, 0, 75, 112
5, 77496, Note_on_c, 0, 75, 0
5, 77520, Note_on_c, 0, 74, 112
5, 77736, Note_on_c, 0, 74, 0
5, 77760, Note_on_c, 0, 73, 112
5, 78000, Note_on_c, 0, 73, 0
5, 78480, Note_on_c, 0, 69, 112
5, 78672, Note_on_c, 0, 69, 0
5, 78720, Note_on_c, 0, 73, 112
5, 79104, Note_on_c, 0, 73, 0
5, 79440, Note_on_c, 0, 73, 112
5, 79632, Note_on_c, 0, 73, 0
5, 79680, Note_on_c, 0, 76, 112
5, 80064, Note_on_c, 0, 76, 0
5, 80400, Note_on_c, 0, 76, 112
5, 80592, Note_on_c, 0, 76, 0
5, 80640, Note_on_c, 0, 79, 112
5, 80832, Note_on_c, 0, 79, 0
5, 80880, Note_on_c, 0, 76, 112
5, 81072, Note_on_c, 0, 76, 0
5, 81120, Note_on_c, 0, 73, 112
5, 81312, Note_on_c, 0, 73, 0
5, 81360, Note_on_c, 0, 69, 112
5, 81552, Note_on_c, 0, 69, 0
5, 81600, Note_on_c, 0, 70, 112
5, 82368, Note_on_c, 0, 70, 0
5, 82560, Note_on_c, 0, 69, 112
5, 82944, Note_on_c, 0, 69, 0
5, 83520, Note_on_c, 0, 74, 112
5, 84096, Note_on_c, 0, 74, 0
5, 84480, Note_on_c, 0, 77, 112
5, 85056, Note_on_c, 0, 77, 0
5, 85440, Note_on_c, 0, 82, 112
5, 87744, Note_on_c, 0, 82, 0
5, 87840, Note_on_c, 0, 79, 112
5, 88128, Note_on_c, 0, 79, 0
5, 88200, Note_on_c, 0, 75, 112
5, 88296, Note_on_c, 0, 75, 0
5, 88320, Note_on_c, 0, 73, 112
5, 88512, Note_on_c, 0, 73, 0
5, 88560, Note_on_c, 0, 73, 112
5, 88752, Note_on_c, 0, 73, 0
5, 89040, Note_on_c, 0, 77, 112
5, 89856, Note_on_c, 0, 77, 0
5, 90000, Note_on_c, 0, 74, 112
5, 90192, Note_on_c, 0, 74, 0
5, 90240, Note_on_c, 0, 73, 112
5, 90528, Note_on_c, 0, 73, 0
5, 90600, Note_on_c, 0, 74, 112
5, 90696, Note_on_c, 0, 74, 0
5, 90720, Note_on_c, 0, 69, 112
5, 91776, Note_on_c, 0, 69, 0
5, 91776, End_track
0, 0, End_of_file
