0, 0, Header, 1, 6, 48
1, 0, Start_track
1, 0, Tempo, 234375
1, 0, Time_signature, 4, 2, 24, 8
1, 56448, End_track
2, 0, Start_track
2, 0, Key_signature, 2, "major"
2, 0, Control_c, 0, 7, 96
2, 0, Control_c, 0, 10, 63
2, 0, Program_c, 0, 6
2, 0, Note_on_c, 0, 62, 96
2, 24, Note_on_c, 0, 62, 0
2, 24, Note_on_c, 0, 61, 96
2, 48, Note_on_c, 0, 61, 0
2, 48, Note_on_c, 0, 62, 96
2, 72, Note_on_c, 0, 62, 0
2, 72, Note_on_c, 0, 61, 96
2, 96, Note_on_c, 0, 61, 0
2, 96, Note_on_c, 0, 62, 96
2, 144, Note_on_c, 0, 62, 0
2, 192, Note_on_c, 0, 62, 96
2, 216, Note_on_c, 0, 62, 0
2, 216, Note_on_c, 0, 61, 96
2, 240, Note_on_c, 0, 61, 0
2, 240, Note_on_c, 0, 62, 96
2, 264, Note_on_c, 0, 62, 0
2, 264, Note_on_c, 0, 64, 96
2, 288, Note_on_c, 0, 64, 0
2, 288, Note_on_c, 0, 66, 96
2, 312, Note_on_c, 0, 66, 0
2, 312, Note_on_c, 0, 64, 96
2, 336, Note_on_c, 0, 64, 0
2, 336, Note_on_c, 0, 66, 96
2, 360, Note_on_c, 0, 66, 0
2, 360, Note_on_c, 0, 67, 96
2, 384, Note_on_c, 0, 67, 0
2, 384, Note_on_c, 0, 69, 96
2, 408, Note_on_c, 0, 69, 0
2, 408, Note_on_c, 0, 68, 96
2, 432, Note_on_c, 0, 68, 0
2, 432, Note_on_c, 0, 69, 96
2, 456, Note_on_c, 0, 69, 0
2, 456, Note_on_c, 0, 68, 96
2, 480, Note_on_c, 0, 68, 0
2, 480, Note_on_c, 0, 69, 96
2, 528, Note_on_c, 0, 69, 0
2, 576, Note_on_c, 0, 69, 96
2, 600, Note_on_c, 0, 69, 0
2, 600, Note_on_c, 0, 68, 96
2, 624, Note_on_c, 0, 68, 0
2, 624, Note_on_c, 0, 69, 96
2, 648, Note_on_c, 0, 69, 0
2, 648, Note_on_c, 0, 70, 96
2, 672, Note_on_c, 0, 70, 0
2, 672, Note_on_c, 0, 71, 96
2, 696, Note_on_c, 0, 71, 0
2, 696, Note_on_c, 0, 69, 96
2, 720, Note_on_c, 0, 69, 0
2, 720, Note_on_c, 0, 67, 96
2, 744, Note_on_c, 0, 67, 0
2, 744, Note_on_c, 0, 66, 96
2, 768, Note_on_c, 0, 66, 0
2, 768, Note_on_c, 0, 64, 96
2, 792, Note_on_c, 0, 64, 0
2, 792, Note_on_c, 0, 63, 96
2, 816, Note_on_c, 0, 63, 0
2, 816, Note_on_c, 0, 64, 96
2, 840, Note_on_c, 0, 64, 0
2, 840, Note_on_c, 0, 66, 96
2, 864, Note_on_c, 0, 66, 0
2, 864, Note_on_c, 0, 67, 96
2, 888, Note_on_c, 0, 67, 0
2, 888, Note_on_c, 0, 66, 96
2, 912, Note_on_c, 0, 66, 0
2, 912, Note_on_c, 0, 64, 96
2, 936, Note_on_c, 0, 64, 0
2, 936, Note_on_c, 0, 62, 96
2, 960, Note_on_c, 0, 62, 0
2, 960, Note_on_c, 0, 61, 96
2, 984, Note_on_c, 0, 61, 0
2, 984, Note_on_c, 0, 62, 96
2, 1008, Note_on_c, 0, 62, 0
2, 1008, Note_on_c, 0, 64, 96
2, 1032, Note_on_c, 0, 64, 0
2, 1032, Note_on_c, 0, 62, 96
2, 1056, Note_on_c, 0, 62, 0
2, 1056, Note_on_c, 0, 61, 96
2, 1080, Note_on_c, 0, 61, 0
2, 1080, Note_on_c, 0, 57, 96
2, 1104, Note_on_c, 0, 57, 0
2, 1104, Note_on_c, 0, 59, 96
2, 1128, Note_on_c, 0, 59, 0
2, 1128, Note_on_c, 0, 61, 96
2, 1152, Note_on_c, 0, 61, 0
2, 1152, Note_on_c, 0, 62, 96
2, 1200, Note_on_c, 0, 62, 0
2, 1344, Note_on_c, 0, 78, 96
2, 1488, Note_on_c, 0, 78, 0
2, 1488, Note_on_c, 0, 76, 96
2, 1536, Note_on_c, 0, 76, 0
2, 1536, Note_on_c, 0, 74, 96
2, 1584, Note_on_c, 0, 74, 0
2, 1584, Note_on_c, 0, 69, 96
2, 1632, Note_on_c, 0, 69, 0
2, 1632, Note_on_c, 0, 74, 96
2, 1680, Note_on_c, 0, 74, 0
2, 1680, Note_on_c, 0, 78, 96
2, 1728, Note_on_c, 0, 78, 0
2, 1728, Note_on_c, 0, 81, 96
2, 1872, Note_on_c, 0, 81, 0
2, 1872, Note_on_c, 0, 79, 96
2, 1920, Note_on_c, 0, 79, 0
2, 1920, Note_on_c, 0, 78, 96
2, 1968, Note_on_c, 0, 78, 0
2, 1968, Note_on_c, 0, 74, 96
2, 2016, Note_on_c, 0, 74, 0
2, 2016, Note_on_c, 0, 78, 96
2, 2064, Note_on_c, 0, 78, 0
2, 2064, Note_on_c, 0, 81, 96
2, 2112, Note_on_c, 0, 81, 0
2, 2112, Note_on_c, 0, 86, 96
2, 2304, Note_on_c, 0, 86, 0
2, 2304, Note_on_c, 0, 85, 96
2, 2448, Note_on_c, 0, 85, 0
2, 2448, Note_on_c, 0, 86, 96
2, 2472, Note_on_c, 0, 86, 0
2, 2472, Note_on_c, 0, 83, 96
2, 2496, Note_on_c, 0, 83, 0
2, 2496, Note_on_c, 0, 81, 96
2, 2544, Note_on_c, 0, 81, 0
2, 2544, Note_on_c, 0, 86, 96
2, 2592, Note_on_c, 0, 86, 0
2, 2592, Note_on_c, 0, 86, 96
2, 2604, Note_on_c, 0, 86, 0
2, 2604, Note_on_c, 0, 85, 96
2, 2616, Note_on_c, 0, 85, 0
2, 2616, Note_on_c, 0, 83, 96
2, 2628, Note_on_c, 0, 83, 0
2, 2628, Note_on_c, 0, 85, 96
2, 2640, Note_on_c, 0, 85, 0
2, 2640, Note_on_c, 0, 86, 96
2, 2664, Note_on_c, 0, 86, 0
2, 2664, Note_on_c, 0, 83, 96
2, 2688, Note_on_c, 0, 83, 0
2, 2688, Note_on_c, 0, 81, 96
2, 2736, Note_on_c, 0, 81, 0
2, 2736, Note_on_c, 0, 86, 96
2, 2784, Note_on_c, 0, 86, 0
2, 2784, Note_on_c, 0, 86, 96
2, 2796, Note_on_c, 0, 86, 0
2, 2796, Note_on_c, 0, 85, 96
2, 2808, Note_on_c, 0, 85, 0
2, 2808, Note_on_c, 0, 83, 96
2, 2820, Note_on_c, 0, 83, 0
2, 2820, Note_on_c, 0, 85, 96
2, 2832, Note_on_c, 0, 85, 0
2, 2832, Note_on_c, 0, 86, 96
2, 2856, Note_on_c, 0, 86, 0
2, 2856, Note_on_c, 0, 83, 96
2, 2880, Note_on_c, 0, 83, 0
2, 2880, Note_on_c, 0, 81, 96
2, 2928, Note_on_c, 0, 81, 0
2, 2928, Note_on_c, 0, 81, 96
2, 2952, Note_on_c, 0, 81, 0
2, 2952, Note_on_c, 0, 81, 96
2, 2976, Note_on_c, 0, 81, 0
2, 2976, Note_on_c, 0, 79, 96
2, 3024, Note_on_c, 0, 79, 0
2, 3024, Note_on_c, 0, 79, 96
2, 3048, Note_on_c, 0, 79, 0
2, 3048, Note_on_c, 0, 79, 96
2, 3072, Note_on_c, 0, 79, 0
2, 3072, Note_on_c, 0, 78, 96
2, 3120, Note_on_c, 0, 78, 0
2, 3120, Note_on_c, 0, 78, 96
2, 3144, Note_on_c, 0, 78, 0
2, 3144, Note_on_c, 0, 78, 96
2, 3168, Note_on_c, 0, 78, 0
2, 3168, Note_on_c, 0, 76, 96
2, 3216, Note_on_c, 0, 76, 0
2, 3216, Note_on_c, 0, 76, 96
2, 3240, Note_on_c, 0, 76, 0
2, 3240, Note_on_c, 0, 76, 96
2, 3264, Note_on_c, 0, 76, 0
2, 3264, Note_on_c, 0, 74, 96
2, 3456, Note_on_c, 0, 74, 0
2, 3456, Note_on_c, 0, 86, 96
2, 3744, Note_on_c, 0, 86, 0
2, 3744, Note_on_c, 0, 85, 96
2, 3936, Note_on_c, 0, 85, 0
2, 3936, Note_on_c, 0, 86, 96
2, 4128, Note_on_c, 0, 86, 0
2, 4128, Note_on_c, 0, 85, 96
2, 4200, Note_on_c, 0, 85, 0
2, 4200, Note_on_c, 0, 86, 96
2, 4224, Note_on_c, 0, 86, 0
2, 4224, Note_on_c, 0, 88, 96
2, 4320, Note_on_c, 0, 88, 0
2, 4320, Note_on_c, 0, 79, 96
2, 4416, Note_on_c, 0, 79, 0
2, 4416, Note_on_c, 0, 78, 96
2, 4464, Note_on_c, 0, 78, 0
2, 4608, Note_on_c, 0, 78, 96
2, 4752, Note_on_c, 0, 78, 0
2, 4752, Note_on_c, 0, 76, 96
2, 4800, Note_on_c, 0, 76, 0
2, 4800, Note_on_c, 0, 74, 96
2, 4848, Note_on_c, 0, 74, 0
2, 4848, Note_on_c, 0, 69, 96
2, 4896, Note_on_c, 0, 69, 0
2, 4896, Note_on_c, 0, 74, 96
2, 4944, Note_on_c, 0, 74, 0
2, 4944, Note_on_c, 0, 78, 96
2, 4992, Note_on_c, 0, 78, 0
2, 4992, Note_on_c, 0, 81, 96
2, 5136, Note_on_c, 0, 81, 0
2, 5136, Note_on_c, 0, 79, 96
2, 5184, Note_on_c, 0, 79, 0
2, 5184, Note_on_c, 0, 78, 96
2, 5232, Note_on_c, 0, 78, 0
2, 5232, Note_on_c, 0, 74, 96
2, 5280, Note_on_c, 0, 74, 0
2, 5280, Note_on_c, 0, 78, 96
2, 5328, Note_on_c, 0, 78, 0
2, 5328, Note_on_c, 0, 81, 96
2, 5376, Note_on_c, 0, 81, 0
2, 5376, Note_on_c, 0, 86, 96
2, 5568, Note_on_c, 0, 86, 0
2, 5568, Note_on_c, 0, 85, 96
2, 5712, Note_on_c, 0, 85, 0
2, 5712, Note_on_c, 0, 86, 96
2, 5736, Note_on_c, 0, 86, 0
2, 5736, Note_on_c, 0, 83, 96
2, 5760, Note_on_c, 0, 83, 0
2, 5760, Note_on_c, 0, 81, 96
2, 5808, Note_on_c, 0, 81, 0
2, 5808, Note_on_c, 0, 86, 96
2, 5856, Note_on_c, 0, 86, 0
2, 5856, Note_on_c, 0, 86, 96
2, 5868, Note_on_c, 0, 86, 0
2, 5868, Note_on_c, 0, 85, 96
2, 5880, Note_on_c, 0, 85, 0
2, 5880, Note_on_c, 0, 83, 96
2, 5892, Note_on_c, 0, 83, 0
2, 5892, Note_on_c, 0, 85, 96
2, 5904, Note_on_c, 0, 85, 0
2, 5904, Note_on_c, 0, 86, 96
2, 5928, Note_on_c, 0, 86, 0
2, 5928, Note_on_c, 0, 83, 96
2, 5952, Note_on_c, 0, 83, 0
2, 5952, Note_on_c, 0, 81, 96
2, 6000, Note_on_c, 0, 81, 0
2, 6000, Note_on_c, 0, 86, 96
2, 6048, Note_on_c, 0, 86, 0
2, 6048, Note_on_c, 0, 86, 96
2, 6060, Note_on_c, 0, 86, 0
2, 6060, Note_on_c, 0, 85, 96
2, 6072, Note_on_c, 0, 85, 0
2, 6072, Note_on_c, 0, 83, 96
2, 6084, Note_on_c, 0, 83, 0
2, 6084, Note_on_c, 0, 85, 96
2, 6096, Note_on_c, 0, 85, 0
2, 6096, Note_on_c, 0, 86, 96
2, 6120, Note_on_c, 0, 86, 0
2, 6120, Note_on_c, 0, 83, 96
2, 6144, Note_on_c, 0, 83, 0
2, 6144, Note_on_c, 0, 81, 96
2, 6192, Note_on_c, 0, 81, 0
2, 6192, Note_on_c, 0, 81, 96
2, 6216, Note_on_c, 0, 81, 0
2, 6216, Note_on_c, 0, 81, 96
2, 6240, Note_on_c, 0, 81, 0
2, 6240, Note_on_c, 0, 79, 96
2, 6288, Note_on_c, 0, 79, 0
2, 6288, Note_on_c, 0, 79, 96
2, 6312, Note_on_c, 0, 79, 0
2, 6312, Note_on_c, 0, 79, 96
2, 6336, Note_on_c, 0, 79, 0
2, 6336, Note_on_c, 0, 78, 96
2, 6384, Note_on_c, 0, 78, 0
2, 6384, Note_on_c, 0, 78, 96
2, 6408, Note_on_c, 0, 78, 0
2, 6408, Note_on_c, 0, 78, 96
2, 6432, Note_on_c, 0, 78, 0
2, 6432, Note_on_c, 0, 76, 96
2, 6480, Note_on_c, 0, 76, 0
2, 6480, Note_on_c, 0, 76, 96
2, 6504, Note_on_c, 0, 76, 0
2, 6504, Note_on_c, 0, 76, 96
2, 6528, Note_on_c, 0, 76, 0
2, 6528, Note_on_c, 0, 74, 96
2, 6672, Note_on_c, 0, 74, 0
2, 6672, Note_on_c, 0, 78, 96
2, 6696, Note_on_c, 0, 78, 0
2, 6696, Note_on_c, 0, 76, 96
2, 6720, Note_on_c, 0, 76, 0
2, 6720, Note_on_c, 0, 74, 96
2, 6744, Note_on_c, 0, 74, 0
2, 6744, Note_on_c, 0, 73, 96
2, 6768, Note_on_c, 0, 73, 0
2, 6768, Note_on_c, 0, 71, 96
2, 6792, Note_on_c, 0, 71, 0
2, 6792, Note_on_c, 0, 69, 96
2, 6816, Note_on_c, 0, 69, 0
2, 6816, Note_on_c, 0, 67, 96
2, 6840, Note_on_c, 0, 67, 0
2, 6840, Note_on_c, 0, 66, 96
2, 6864, Note_on_c, 0, 66, 0
2, 6864, Note_on_c, 0, 64, 96
2, 6888, Note_on_c, 0, 64, 0
2, 6888, Note_on_c, 0, 62, 96
2, 6912, Note_on_c, 0, 62, 0
2, 6912, Note_on_c, 0, 76, 96
2, 7056, Note_on_c, 0, 76, 0
2, 7056, Note_on_c, 0, 79, 96
2, 7080, Note_on_c, 0, 79, 0
2, 7080, Note_on_c, 0, 78, 96
2, 7104, Note_on_c, 0, 78, 0
2, 7104, Note_on_c, 0, 76, 96
2, 7128, Note_on_c, 0, 76, 0
2, 7128, Note_on_c, 0, 74, 96
2, 7152, Note_on_c, 0, 74, 0
2, 7152, Note_on_c, 0, 73, 96
2, 7176, Note_on_c, 0, 73, 0
2, 7176, Note_on_c, 0, 71, 96
2, 7200, Note_on_c, 0, 71, 0
2, 7200, Note_on_c, 0, 69, 96
2, 7224, Note_on_c, 0, 69, 0
2, 7224, Note_on_c, 0, 67, 96
2, 7248, Note_on_c, 0, 67, 0
2, 7248, Note_on_c, 0, 66, 96
2, 7272, Note_on_c, 0, 66, 0
2, 7272, Note_on_c, 0, 64, 96
2, 7296, Note_on_c, 0, 64, 0
2, 7296, Note_on_c, 0, 78, 96
2, 7440, Note_on_c, 0, 78, 0
2, 7440, Note_on_c, 0, 81, 96
2, 7464, Note_on_c, 0, 81, 0
2, 7464, Note_on_c, 0, 79, 96
2, 7488, Note_on_c, 0, 79, 0
2, 7488, Note_on_c, 0, 78, 96
2, 7512, Note_on_c, 0, 78, 0
2, 7512, Note_on_c, 0, 76, 96
2, 7536, Note_on_c, 0, 76, 0
2, 7536, Note_on_c, 0, 74, 96
2, 7560, Note_on_c, 0, 74, 0
2, 7560, Note_on_c, 0, 73, 96
2, 7584, Note_on_c, 0, 73, 0
2, 7584, Note_on_c, 0, 71, 96
2, 7608, Note_on_c, 0, 71, 0
2, 7608, Note_on_c, 0, 69, 96
2, 7632, Note_on_c, 0, 69, 0
2, 7632, Note_on_c, 0, 67, 96
2, 7656, Note_on_c, 0, 67, 0
2, 7656, Note_on_c, 0, 66, 96
2, 7680, Note_on_c, 0, 66, 0
2, 7680, Note_on_c, 0, 71, 96
2, 7704, Note_on_c, 0, 71, 0
2, 7704, Note_on_c, 0, 72, 96
2, 7728, Note_on_c, 0, 72, 0
2, 7728, Note_on_c, 0, 74, 96
2, 7752, Note_on_c, 0, 74, 0
2, 7752, Note_on_c, 0, 76, 96
2, 7776, Note_on_c, 0, 76, 0
2, 7776, Note_on_c, 0, 78, 96
2, 7800, Note_on_c, 0, 78, 0
2, 7800, Note_on_c, 0, 79, 96
2, 7824, Note_on_c, 0, 79, 0
2, 7824, Note_on_c, 0, 81, 96
2, 7848, Note_on_c, 0, 81, 0
2, 7848, Note_on_c, 0, 83, 96
2, 7872, Note_on_c, 0, 83, 0
2, 7872, Note_on_c, 0, 84, 96
2, 8064, Note_on_c, 0, 84, 0
2, 8064, Note_on_c, 0, 83, 96
2, 8088, Note_on_c, 0, 83, 0
2, 8088, Note_on_c, 0, 74, 96
2, 8112, Note_on_c, 0, 74, 0
2, 8112, Note_on_c, 0, 83, 96
2, 8136, Note_on_c, 0, 83, 0
2, 8136, Note_on_c, 0, 74, 96
2, 8160, Note_on_c, 0, 74, 0
2, 8160, Note_on_c, 0, 81, 96
2, 8184, Note_on_c, 0, 81, 0
2, 8184, Note_on_c, 0, 74, 96
2, 8208, Note_on_c, 0, 74, 0
2, 8208, Note_on_c, 0, 81, 96
2, 8232, Note_on_c, 0, 81, 0
2, 8232, Note_on_c, 0, 74, 96
2, 8256, Note_on_c, 0, 74, 0
2, 8256, Note_on_c, 0, 83, 96
2, 8280, Note_on_c, 0, 83, 0
2, 8280, Note_on_c, 0, 74, 96
2, 8304, Note_on_c, 0, 74, 0
2, 8304, Note_on_c, 0, 83, 96
2, 8328, Note_on_c, 0, 83, 0
2, 8328, Note_on_c, 0, 74, 96
2, 8352, Note_on_c, 0, 74, 0
2, 8352, Note_on_c, 0, 85, 96
2, 8376, Note_on_c, 0, 85, 0
2, 8376, Note_on_c, 0, 76, 96
2, 8400, Note_on_c, 0, 76, 0
2, 8400, Note_on_c, 0, 85, 96
2, 8424, Note_on_c, 0, 85, 0
2, 8424, Note_on_c, 0, 76, 96
2, 8448, Note_on_c, 0, 76, 0
2, 8448, Note_on_c, 0, 86, 96
2, 8472, Note_on_c, 0, 86, 0
2, 8472, Note_on_c, 0, 81, 96
2, 8496, Note_on_c, 0, 81, 0
2, 8496, Note_on_c, 0, 81, 96
2, 8520, Note_on_c, 0, 81, 0
2, 8520, Note_on_c, 0, 81, 96
2, 8544, Note_on_c, 0, 81, 0
2, 8544, Note_on_c, 0, 81, 96
2, 8568, Note_on_c, 0, 81, 0
2, 8568, Note_on_c, 0, 81, 96
2, 8592, Note_on_c, 0, 81, 0
2, 8592, Note_on_c, 0, 85, 96
2, 8616, Note_on_c, 0, 85, 0
2, 8616, Note_on_c, 0, 81, 96
2, 8640, Note_on_c, 0, 81, 0
2, 8640, Note_on_c, 0, 86, 96
2, 8664, Note_on_c, 0, 86, 0
2, 8664, Note_on_c, 0, 81, 96
2, 8688, Note_on_c, 0, 81, 0
2, 8688, Note_on_c, 0, 81, 96
2, 8712, Note_on_c, 0, 81, 0
2, 8712, Note_on_c, 0, 81, 96
2, 8736, Note_on_c, 0, 81, 0
2, 8736, Note_on_c, 0, 81, 96
2, 8760, Note_on_c, 0, 81, 0
2, 8760, Note_on_c, 0, 81, 96
2, 8784, Note_on_c, 0, 81, 0
2, 8784, Note_on_c, 0, 85, 96
2, 8808, Note_on_c, 0, 85, 0
2, 8808, Note_on_c, 0, 81, 96
2, 8832, Note_on_c, 0, 81, 0
2, 8832, Note_on_c, 0, 86, 96
2, 8856, Note_on_c, 0, 86, 0
2, 8856, Note_on_c, 0, 81, 96
2, 8880, Note_on_c, 0, 81, 0
2, 8880, Note_on_c, 0, 81, 96
2, 8904, Note_on_c, 0, 81, 0
2, 8904, Note_on_c, 0, 81, 96
2, 8928, Note_on_c, 0, 81, 0
2, 8928, Note_on_c, 0, 81, 96
2, 8952, Note_on_c, 0, 81, 0
2, 8952, Note_on_c, 0, 81, 96
2, 8976, Note_on_c, 0, 81, 0
2, 8976, Note_on_c, 0, 85, 96
2, 9000, Note_on_c, 0, 85, 0
2, 9000, Note_on_c, 0, 81, 96
2, 9024, Note_on_c, 0, 81, 0
2, 9024, Note_on_c, 0, 86, 96
2, 9048, Note_on_c, 0, 86, 0
2, 9048, Note_on_c, 0, 81, 96
2, 9072, Note_on_c, 0, 81, 0
2, 9072, Note_on_c, 0, 85, 96
2, 9096, Note_on_c, 0, 85, 0
2, 9096, Note_on_c, 0, 81, 96
2, 9120, Note_on_c, 0, 81, 0
2, 9120, Note_on_c, 0, 86, 96
2, 9144, Note_on_c, 0, 86, 0
2, 9144, Note_on_c, 0, 81, 96
2, 9168, Note_on_c, 0, 81, 0
2, 9168, Note_on_c, 0, 85, 96
2, 9192, Note_on_c, 0, 85, 0
2, 9192, Note_on_c, 0, 81, 96
2, 9216, Note_on_c, 0, 81, 0
2, 9216, Note_on_c, 0, 86, 96
2, 9240, Note_on_c, 0, 86, 0
2, 9240, Note_on_c, 0, 85, 96
2, 9264, Note_on_c, 0, 85, 0
2, 9264, Note_on_c, 0, 83, 96
2, 9288, Note_on_c, 0, 83, 0
2, 9288, Note_on_c, 0, 81, 96
2, 9312, Note_on_c, 0, 81, 0
2, 9312, Note_on_c, 0, 86, 96
2, 9336, Note_on_c, 0, 86, 0
2, 9336, Note_on_c, 0, 85, 96
2, 9360, Note_on_c, 0, 85, 0
2, 9360, Note_on_c, 0, 83, 96
2, 9384, Note_on_c, 0, 83, 0
2, 9384, Note_on_c, 0, 81, 96
2, 9408, Note_on_c, 0, 81, 0
2, 9408, Note_on_c, 0, 86, 96
2, 9432, Note_on_c, 0, 86, 0
2, 9432, Note_on_c, 0, 85, 96
2, 9456, Note_on_c, 0, 85, 0
2, 9456, Note_on_c, 0, 83, 96
2, 9480, Note_on_c, 0, 83, 0
2, 9480, Note_on_c, 0, 81, 96
2, 9504, Note_on_c, 0, 81, 0
2, 9504, Note_on_c, 0, 79, 96
2, 9528, Note_on_c, 0, 79, 0
2, 9528, Note_on_c, 0, 78, 96
2, 9552, Note_on_c, 0, 78, 0
2, 9552, Note_on_c, 0, 76, 96
2, 9576, Note_on_c, 0, 76, 0
2, 9576, Note_on_c, 0, 74, 96
2, 9600, Note_on_c, 0, 74, 0
2, 9600, Note_on_c, 0, 81, 96
2, 9696, Note_on_c, 0, 81, 0
2, 9744, Note_on_c, 0, 85, 96
2, 9792, Note_on_c, 0, 85, 0
2, 9792, Note_on_c, 0, 86, 96
2, 9888, Note_on_c, 0, 86, 0
2, 9936, Note_on_c, 0, 78, 96
2, 9984, Note_on_c, 0, 78, 0
2, 9984, Note_on_c, 0, 81, 96
2, 10080, Note_on_c, 0, 81, 0
2, 10128, Note_on_c, 0, 85, 96
2, 10176, Note_on_c, 0, 85, 0
2, 10176, Note_on_c, 0, 86, 96
2, 10272, Note_on_c, 0, 86, 0
2, 10320, Note_on_c, 0, 78, 96
2, 10368, Note_on_c, 0, 78, 0
2, 10368, Note_on_c, 0, 81, 96
2, 10416, Note_on_c, 0, 81, 0
2, 10416, Note_on_c, 0, 85, 96
2, 10464, Note_on_c, 0, 85, 0
2, 10464, Note_on_c, 0, 86, 96
2, 10512, Note_on_c, 0, 86, 0
2, 10512, Note_on_c, 0, 86, 96
2, 10560, Note_on_c, 0, 86, 0
2, 10560, Note_on_c, 0, 85, 96
2, 10608, Note_on_c, 0, 85, 0
2, 10608, Note_on_c, 0, 85, 96
2, 10656, Note_on_c, 0, 85, 0
2, 10656, Note_on_c, 0, 86, 96
2, 10704, Note_on_c, 0, 86, 0
2, 10704, Note_on_c, 0, 86, 96
2, 10752, Note_on_c, 0, 86, 0
2, 10752, Note_on_c, 0, 85, 96
2, 10800, Note_on_c, 0, 85, 0
2, 10800, Note_on_c, 0, 69, 96
2, 10824, Note_on_c, 0, 69, 0
2, 10824, Note_on_c, 0, 69, 96
2, 10848, Note_on_c, 0, 69, 0
2, 10848, Note_on_c, 0, 69, 96
2, 10896, Note_on_c, 0, 69, 0
2, 10896, Note_on_c, 0, 69, 96
2, 10944, Note_on_c, 0, 69, 0
2, 10944, Note_on_c, 0, 69, 96
2, 11040, Note_on_c, 0, 69, 0
2, 11328, Note_on_c, 0, 76, 96
2, 11520, Note_on_c, 0, 76, 0
2, 11520, Note_on_c, 0, 75, 96
2, 11664, Note_on_c, 0, 75, 0
2, 11664, Note_on_c, 0, 76, 96
2, 11712, Note_on_c, 0, 76, 0
2, 11712, Note_on_c, 0, 75, 96
2, 11856, Note_on_c, 0, 75, 0
2, 11856, Note_on_c, 0, 76, 96
2, 11904, Note_on_c, 0, 76, 0
2, 11904, Note_on_c, 0, 78, 96
2, 11910, Note_on_c, 0, 78, 0
2, 11910, Note_on_c, 0, 80, 96
2, 11916, Note_on_c, 0, 80, 0
2, 11916, Note_on_c, 0, 81, 96
2, 11952, Note_on_c, 0, 81, 0
2, 11952, Note_on_c, 0, 81, 96
2, 11976, Note_on_c, 0, 81, 0
2, 11976, Note_on_c, 0, 81, 96
2, 12000, Note_on_c, 0, 81, 0
2, 12000, Note_on_c, 0, 81, 96
2, 12048, Note_on_c, 0, 81, 0
2, 12096, Note_on_c, 0, 78, 96
2, 12102, Note_on_c, 0, 78, 0
2, 12102, Note_on_c, 0, 80, 96
2, 12108, Note_on_c, 0, 80, 0
2, 12108, Note_on_c, 0, 81, 96
2, 12144, Note_on_c, 0, 81, 0
2, 12144, Note_on_c, 0, 81, 96
2, 12168, Note_on_c, 0, 81, 0
2, 12168, Note_on_c, 0, 81, 96
2, 12192, Note_on_c, 0, 81, 0
2, 12192, Note_on_c, 0, 81, 96
2, 12240, Note_on_c, 0, 81, 0
2, 12288, Note_on_c, 0, 74, 96
2, 12312, Note_on_c, 0, 74, 0
2, 12312, Note_on_c, 0, 76, 96
2, 12336, Note_on_c, 0, 76, 0
2, 12336, Note_on_c, 0, 78, 96
2, 12360, Note_on_c, 0, 78, 0
2, 12360, Note_on_c, 0, 76, 96
2, 12384, Note_on_c, 0, 76, 0
2, 12384, Note_on_c, 0, 74, 96
2, 12408, Note_on_c, 0, 74, 0
2, 12408, Note_on_c, 0, 73, 96
2, 12432, Note_on_c, 0, 73, 0
2, 12432, Note_on_c, 0, 71, 96
2, 12456, Note_on_c, 0, 71, 0
2, 12456, Note_on_c, 0, 69, 96
2, 12480, Note_on_c, 0, 69, 0
2, 12480, Note_on_c, 0, 80, 96
2, 12504, Note_on_c, 0, 80, 0
2, 12504, Note_on_c, 0, 81, 96
2, 12528, Note_on_c, 0, 81, 0
2, 12528, Note_on_c, 0, 83, 96
2, 12552, Note_on_c, 0, 83, 0
2, 12552, Note_on_c, 0, 81, 96
2, 12576, Note_on_c, 0, 81, 0
2, 12576, Note_on_c, 0, 80, 96
2, 12600, Note_on_c, 0, 80, 0
2, 12600, Note_on_c, 0, 78, 96
2, 12624, Note_on_c, 0, 78, 0
2, 12624, Note_on_c, 0, 76, 96
2, 12648, Note_on_c, 0, 76, 0
2, 12648, Note_on_c, 0, 74, 96
2, 12672, Note_on_c, 0, 74, 0
2, 12672, Note_on_c, 0, 73, 96
2, 12696, Note_on_c, 0, 73, 0
2, 12864, Note_on_c, 0, 76, 96
2, 13056, Note_on_c, 0, 76, 0
2, 13056, Note_on_c, 0, 75, 96
2, 13200, Note_on_c, 0, 75, 0
2, 13200, Note_on_c, 0, 76, 96
2, 13248, Note_on_c, 0, 76, 0
2, 13248, Note_on_c, 0, 75, 96
2, 13392, Note_on_c, 0, 75, 0
2, 13392, Note_on_c, 0, 76, 96
2, 13440, Note_on_c, 0, 76, 0
2, 13440, Note_on_c, 0, 78, 96
2, 13446, Note_on_c, 0, 78, 0
2, 13446, Note_on_c, 0, 80, 96
2, 13452, Note_on_c, 0, 80, 0
2, 13452, Note_on_c, 0, 81, 96
2, 13488, Note_on_c, 0, 81, 0
2, 13488, Note_on_c, 0, 81, 96
2, 13512, Note_on_c, 0, 81, 0
2, 13512, Note_on_c, 0, 81, 96
2, 13536, Note_on_c, 0, 81, 0
2, 13536, Note_on_c, 0, 81, 96
2, 13584, Note_on_c, 0, 81, 0
2, 13632, Note_on_c, 0, 78, 96
2, 13638, Note_on_c, 0, 78, 0
2, 13638, Note_on_c, 0, 80, 96
2, 13644, Note_on_c, 0, 80, 0
2, 13644, Note_on_c, 0, 81, 96
2, 13680, Note_on_c, 0, 81, 0
2, 13680, Note_on_c, 0, 81, 96
2, 13704, Note_on_c, 0, 81, 0
2, 13704, Note_on_c, 0, 81, 96
2, 13728, Note_on_c, 0, 81, 0
2, 13728, Note_on_c, 0, 81, 96
2, 13776, Note_on_c, 0, 81, 0
2, 13824, Note_on_c, 0, 74, 96
2, 13848, Note_on_c, 0, 74, 0
2, 13848, Note_on_c, 0, 76, 96
2, 13872, Note_on_c, 0, 76, 0
2, 13872, Note_on_c, 0, 78, 96
2, 13896, Note_on_c, 0, 78, 0
2, 13896, Note_on_c, 0, 76, 96
2, 13920, Note_on_c, 0, 76, 0
2, 13920, Note_on_c, 0, 74, 96
2, 13944, Note_on_c, 0, 74, 0
2, 13944, Note_on_c, 0, 73, 96
2, 13968, Note_on_c, 0, 73, 0
2, 13968, Note_on_c, 0, 71, 96
2, 13992, Note_on_c, 0, 71, 0
2, 13992, Note_on_c, 0, 69, 96
2, 14016, Note_on_c, 0, 69, 0
2, 14016, Note_on_c, 0, 80, 96
2, 14040, Note_on_c, 0, 80, 0
2, 14040, Note_on_c, 0, 81, 96
2, 14064, Note_on_c, 0, 81, 0
2, 14064, Note_on_c, 0, 83, 96
2, 14088, Note_on_c, 0, 83, 0
2, 14088, Note_on_c, 0, 81, 96
2, 14112, Note_on_c, 0, 81, 0
2, 14112, Note_on_c, 0, 80, 96
2, 14136, Note_on_c, 0, 80, 0
2, 14136, Note_on_c, 0, 78, 96
2, 14160, Note_on_c, 0, 78, 0
2, 14160, Note_on_c, 0, 76, 96
2, 14184, Note_on_c, 0, 76, 0
2, 14184, Note_on_c, 0, 74, 96
2, 14208, Note_on_c, 0, 74, 0
2, 14208, Note_on_c, 0, 73, 96
2, 14256, Note_on_c, 0, 73, 0
2, 14304, Note_on_c, 0, 85, 96
2, 14352, Note_on_c, 0, 85, 0
2, 14448, Note_on_c, 0, 78, 96
2, 14496, Note_on_c, 0, 78, 0
2, 14496, Note_on_c, 0, 81, 96
2, 14544, Note_on_c, 0, 81, 0
2, 14544, Note_on_c, 0, 78, 96
2, 14592, Note_on_c, 0, 78, 0
2, 14592, Note_on_c, 0, 75, 96
2, 14640, Note_on_c, 0, 75, 0
2, 14640, Note_on_c, 0, 71, 96
2, 14688, Note_on_c, 0, 71, 0
2, 14688, Note_on_c, 0, 83, 96
2, 14736, Note_on_c, 0, 83, 0
2, 14832, Note_on_c, 0, 76, 96
2, 14880, Note_on_c, 0, 76, 0
2, 14880, Note_on_c, 0, 79, 96
2, 14928, Note_on_c, 0, 79, 0
2, 14928, Note_on_c, 0, 76, 96
2, 14976, Note_on_c, 0, 76, 0
2, 14976, Note_on_c, 0, 73, 96
2, 15024, Note_on_c, 0, 73, 0
2, 15024, Note_on_c, 0, 69, 96
2, 15072, Note_on_c, 0, 69, 0
2, 15072, Note_on_c, 0, 81, 96
2, 15120, Note_on_c, 0, 81, 0
2, 15216, Note_on_c, 0, 74, 96
2, 15264, Note_on_c, 0, 74, 0
2, 15264, Note_on_c, 0, 77, 96
2, 15312, Note_on_c, 0, 77, 0
2, 15312, Note_on_c, 0, 69, 96
2, 15360, Note_on_c, 0, 69, 0
2, 15360, Note_on_c, 0, 68, 96
2, 15408, Note_on_c, 0, 68, 0
2, 15408, Note_on_c, 0, 80, 96
2, 15456, Note_on_c, 0, 80, 0
2, 15504, Note_on_c, 0, 68, 96
2, 15552, Note_on_c, 0, 68, 0
2, 15552, Note_on_c, 0, 69, 96
2, 15600, Note_on_c, 0, 69, 0
2, 15600, Note_on_c, 0, 81, 96
2, 15648, Note_on_c, 0, 81, 0
2, 15696, Note_on_c, 0, 69, 96
2, 15744, Note_on_c, 0, 69, 0
2, 15744, Note_on_c, 0, 71, 96
2, 15792, Note_on_c, 0, 71, 0
2, 15792, Note_on_c, 0, 83, 96
2, 15840, Note_on_c, 0, 83, 0
2, 15888, Note_on_c, 0, 71, 96
2, 15936, Note_on_c, 0, 71, 0
2, 15936, Note_on_c, 0, 73, 96
2, 15984, Note_on_c, 0, 73, 0
2, 15984, Note_on_c, 0, 85, 96
2, 16032, Note_on_c, 0, 85, 0
2, 16032, Note_on_c, 0, 74, 96
2, 16080, Note_on_c, 0, 74, 0
2, 16080, Note_on_c, 0, 86, 96
2, 16128, Note_on_c, 0, 86, 0
2, 16128, Note_on_c, 0, 85, 96
2, 16152, Note_on_c, 0, 85, 0
2, 16152, Note_on_c, 0, 73, 96
2, 16176, Note_on_c, 0, 73, 0
2, 16176, Note_on_c, 0, 85, 96
2, 16200, Note_on_c, 0, 85, 0
2, 16200, Note_on_c, 0, 73, 96
2, 16224, Note_on_c, 0, 73, 0
2, 16224, Note_on_c, 0, 85, 96
2, 16248, Note_on_c, 0, 85, 0
2, 16248, Note_on_c, 0, 73, 96
2, 16272, Note_on_c, 0, 73, 0
2, 16272, Note_on_c, 0, 85, 96
2, 16296, Note_on_c, 0, 85, 0
2, 16296, Note_on_c, 0, 73, 96
2, 16320, Note_on_c, 0, 73, 0
2, 16320, Note_on_c, 0, 85, 96
2, 16344, Note_on_c, 0, 85, 0
2, 16344, Note_on_c, 0, 73, 96
2, 16368, Note_on_c, 0, 73, 0
2, 16368, Note_on_c, 0, 85, 96
2, 16392, Note_on_c, 0, 85, 0
2, 16392, Note_on_c, 0, 73, 96
2, 16416, Note_on_c, 0, 73, 0
2, 16416, Note_on_c, 0, 85, 96
2, 16440, Note_on_c, 0, 85, 0
2, 16440, Note_on_c, 0, 73, 96
2, 16464, Note_on_c, 0, 73, 0
2, 16464, Note_on_c, 0, 85, 96
2, 16488, Note_on_c, 0, 85, 0
2, 16488, Note_on_c, 0, 73, 96
2, 16512, Note_on_c, 0, 73, 0
2, 16512, Note_on_c, 0, 85, 96
2, 16536, Note_on_c, 0, 85, 0
2, 16536, Note_on_c, 0, 73, 96
2, 16560, Note_on_c, 0, 73, 0
2, 16560, Note_on_c, 0, 85, 96
2, 16584, Note_on_c, 0, 85, 0
2, 16584, Note_on_c, 0, 73, 96
2, 16608, Note_on_c, 0, 73, 0
2, 16608, Note_on_c, 0, 85, 96
2, 16632, Note_on_c, 0, 85, 0
2, 16632, Note_on_c, 0, 73, 96
2, 16656, Note_on_c, 0, 73, 0
2, 16656, Note_on_c, 0, 85, 96
2, 16680, Note_on_c, 0, 85, 0
2, 16680, Note_on_c, 0, 73, 96
2, 16704, Note_on_c, 0, 73, 0
2, 16704, Note_on_c, 0, 85, 96
2, 16728, Note_on_c, 0, 85, 0
2, 16728, Note_on_c, 0, 73, 96
2, 16752, Note_on_c, 0, 73, 0
2, 16752, Note_on_c, 0, 85, 96
2, 16776, Note_on_c, 0, 85, 0
2, 16776, Note_on_c, 0, 73, 96
2, 16800, Note_on_c, 0, 73, 0
2, 16800, Note_on_c, 0, 85, 96
2, 16824, Note_on_c, 0, 85, 0
2, 16824, Note_on_c, 0, 73, 96
2, 16848, Note_on_c, 0, 73, 0
2, 16848, Note_on_c, 0, 85, 96
2, 16872, Note_on_c, 0, 85, 0
2, 16872, Note_on_c, 0, 73, 96
2, 16896, Note_on_c, 0, 73, 0
2, 16896, Note_on_c, 0, 85, 96
2, 16920, Note_on_c, 0, 85, 0
2, 16920, Note_on_c, 0, 73, 96
2, 16944, Note_on_c, 0, 73, 0
2, 16944, Note_on_c, 0, 85, 96
2, 16968, Note_on_c, 0, 85, 0
2, 16968, Note_on_c, 0, 73, 96
2, 16992, Note_on_c, 0, 73, 0
2, 16992, Note_on_c, 0, 85, 96
2, 17016, Note_on_c, 0, 85, 0
2, 17016, Note_on_c, 0, 73, 96
2, 17040, Note_on_c, 0, 73, 0
2, 17040, Note_on_c, 0, 85, 96
2, 17064, Note_on_c, 0, 85, 0
2, 17064, Note_on_c, 0, 73, 96
2, 17088, Note_on_c, 0, 73, 0
2, 17088, Note_on_c, 0, 85, 96
2, 17112, Note_on_c, 0, 85, 0
2, 17112, Note_on_c, 0, 73, 96
2, 17136, Note_on_c, 0, 73, 0
2, 17136, Note_on_c, 0, 85, 96
2, 17160, Note_on_c, 0, 85, 0
2, 17160, Note_on_c, 0, 73, 96
2, 17184, Note_on_c, 0, 73, 0
2, 17184, Note_on_c, 0, 85, 96
2, 17208, Note_on_c, 0, 85, 0
2, 17208, Note_on_c, 0, 73, 96
2, 17232, Note_on_c, 0, 73, 0
2, 17232, Note_on_c, 0, 85, 96
2, 17256, Note_on_c, 0, 85, 0
2, 17256, Note_on_c, 0, 73, 96
2, 17280, Note_on_c, 0, 73, 0
2, 17280, Note_on_c, 0, 84, 96
2, 17304, Note_on_c, 0, 84, 0
2, 17304, Note_on_c, 0, 72, 96
2, 17328, Note_on_c, 0, 72, 0
2, 17328, Note_on_c, 0, 84, 96
2, 17352, Note_on_c, 0, 84, 0
2, 17352, Note_on_c, 0, 72, 96
2, 17376, Note_on_c, 0, 72, 0
2, 17376, Note_on_c, 0, 84, 96
2, 17400, Note_on_c, 0, 84, 0
2, 17400, Note_on_c, 0, 72, 96
2, 17424, Note_on_c, 0, 72, 0
2, 17424, Note_on_c, 0, 84, 96
2, 17448, Note_on_c, 0, 84, 0
2, 17448, Note_on_c, 0, 72, 96
2, 17472, Note_on_c, 0, 72, 0
2, 17472, Note_on_c, 0, 83, 96
2, 17496, Note_on_c, 0, 83, 0
2, 17496, Note_on_c, 0, 78, 96
2, 17520, Note_on_c, 0, 78, 0
2, 17520, Note_on_c, 0, 83, 96
2, 17544, Note_on_c, 0, 83, 0
2, 17544, Note_on_c, 0, 78, 96
2, 17568, Note_on_c, 0, 78, 0
2, 17568, Note_on_c, 0, 83, 96
2, 17592, Note_on_c, 0, 83, 0
2, 17592, Note_on_c, 0, 76, 96
2, 17616, Note_on_c, 0, 76, 0
2, 17616, Note_on_c, 0, 83, 96
2, 17640, Note_on_c, 0, 83, 0
2, 17640, Note_on_c, 0, 76, 96
2, 17664, Note_on_c, 0, 76, 0
2, 17664, Note_on_c, 0, 85, 96
2, 17688, Note_on_c, 0, 85, 0
2, 17688, Note_on_c, 0, 76, 96
2, 17712, Note_on_c, 0, 76, 0
2, 17712, Note_on_c, 0, 85, 96
2, 17736, Note_on_c, 0, 85, 0
2, 17736, Note_on_c, 0, 76, 96
2, 17760, Note_on_c, 0, 76, 0
2, 17760, Note_on_c, 0, 83, 96
2, 17784, Note_on_c, 0, 83, 0
2, 17784, Note_on_c, 0, 74, 96
2, 17808, Note_on_c, 0, 74, 0
2, 17808, Note_on_c, 0, 83, 96
2, 17832, Note_on_c, 0, 83, 0
2, 17832, Note_on_c, 0, 74, 96
2, 17856, Note_on_c, 0, 74, 0
2, 17856, Note_on_c, 0, 81, 96
2, 17880, Note_on_c, 0, 81, 0
2, 17880, Note_on_c, 0, 73, 96
2, 17904, Note_on_c, 0, 73, 0
2, 17904, Note_on_c, 0, 81, 96
2, 17928, Note_on_c, 0, 81, 0
2, 17928, Note_on_c, 0, 73, 96
2, 17952, Note_on_c, 0, 73, 0
2, 17952, Note_on_c, 0, 80, 96
2, 17976, Note_on_c, 0, 80, 0
2, 17976, Note_on_c, 0, 71, 96
2, 18000, Note_on_c, 0, 71, 0
2, 18000, Note_on_c, 0, 80, 96
2, 18024, Note_on_c, 0, 80, 0
2, 18024, Note_on_c, 0, 71, 96
2, 18048, Note_on_c, 0, 71, 0
2, 18048, Note_on_c, 0, 81, 96
2, 18096, Note_on_c, 0, 81, 0
2, 18192, Note_on_c, 0, 69, 96
2, 18240, Note_on_c, 0, 69, 0
2, 18240, Note_on_c, 0, 71, 96
2, 18288, Note_on_c, 0, 71, 0
2, 18288, Note_on_c, 0, 73, 96
2, 18336, Note_on_c, 0, 73, 0
2, 18336, Note_on_c, 0, 74, 96
2, 18384, Note_on_c, 0, 74, 0
2, 18384, Note_on_c, 0, 75, 96
2, 18432, Note_on_c, 0, 75, 0
2, 18432, Note_on_c, 0, 78, 96
2, 18480, Note_on_c, 0, 78, 0
2, 18480, Note_on_c, 0, 76, 96
2, 18528, Note_on_c, 0, 76, 0
2, 18576, Note_on_c, 0, 69, 96
2, 18624, Note_on_c, 0, 69, 0
2, 18624, Note_on_c, 0, 71, 96
2, 18672, Note_on_c, 0, 71, 0
2, 18672, Note_on_c, 0, 73, 96
2, 18720, Note_on_c, 0, 73, 0
2, 18720, Note_on_c, 0, 74, 96
2, 18768, Note_on_c, 0, 74, 0
2, 18768, Note_on_c, 0, 75, 96
2, 18816, Note_on_c, 0, 75, 0
2, 18816, Note_on_c, 0, 78, 96
2, 18864, Note_on_c, 0, 78, 0
2, 18864, Note_on_c, 0, 76, 96
2, 18912, Note_on_c, 0, 76, 0
2, 18960, Note_on_c, 0, 69, 96
2, 19008, Note_on_c, 0, 69, 0
2, 19008, Note_on_c, 0, 71, 96
2, 19056, Note_on_c, 0, 71, 0
2, 19056, Note_on_c, 0, 72, 96
2, 19104, Note_on_c, 0, 72, 0
2, 19104, Note_on_c, 0, 74, 96
2, 19152, Note_on_c, 0, 74, 0
2, 19152, Note_on_c, 0, 76, 96
2, 19200, Note_on_c, 0, 76, 0
2, 19200, Note_on_c, 0, 77, 96
2, 19392, Note_on_c, 0, 77, 0
2, 19392, Note_on_c, 0, 77, 96
2, 19584, Note_on_c, 0, 77, 0
2, 19584, Note_on_c, 0, 77, 96
2, 19680, Note_on_c, 0, 77, 0
2, 19680, Note_on_c, 0, 76, 96
2, 19872, Note_on_c, 0, 76, 0
2, 19872, Note_on_c, 0, 74, 96
2, 20064, Note_on_c, 0, 74, 0
2, 20064, Note_on_c, 0, 72, 96
2, 20160, Note_on_c, 0, 72, 0
2, 20160, Note_on_c, 0, 69, 96
2, 20172, Note_on_c, 0, 69, 0
2, 20172, Note_on_c, 0, 71, 96
2, 20184, Note_on_c, 0, 71, 0
2, 20184, Note_on_c, 0, 69, 96
2, 20196, Note_on_c, 0, 69, 0
2, 20196, Note_on_c, 0, 71, 96
2, 20208, Note_on_c, 0, 71, 0
2, 20208, Note_on_c, 0, 69, 96
2, 20220, Note_on_c, 0, 69, 0
2, 20220, Note_on_c, 0, 71, 96
2, 20232, Note_on_c, 0, 71, 0
2, 20232, Note_on_c, 0, 69, 96
2, 20244, Note_on_c, 0, 69, 0
2, 20244, Note_on_c, 0, 71, 96
2, 20256, Note_on_c, 0, 71, 0
2, 20256, Note_on_c, 0, 69, 96
2, 20268, Note_on_c, 0, 69, 0
2, 20268, Note_on_c, 0, 71, 96
2, 20280, Note_on_c, 0, 71, 0
2, 20280, Note_on_c, 0, 69, 96
2, 20292, Note_on_c, 0, 69, 0
2, 20292, Note_on_c, 0, 71, 96
2, 20304, Note_on_c, 0, 71, 0
2, 20304, Note_on_c, 0, 69, 96
2, 20316, Note_on_c, 0, 69, 0
2, 20316, Note_on_c, 0, 71, 96
2, 20328, Note_on_c, 0, 71, 0
2, 20328, Note_on_c, 0, 69, 96
2, 20340, Note_on_c, 0, 69, 0
2, 20340, Note_on_c, 0, 71, 96
2, 20352, Note_on_c, 0, 71, 0
2, 20352, Note_on_c, 0, 69, 96
2, 20400, Note_on_c, 0, 69, 0
2, 20544, Note_on_c, 0, 69, 96
2, 20688, Note_on_c, 0, 69, 0
2, 20688, Note_on_c, 0, 73, 96
2, 20736, Note_on_c, 0, 73, 0
2, 20736, Note_on_c, 0, 71, 96
2, 20784, Note_on_c, 0, 71, 0
2, 20784, Note_on_c, 0, 68, 96
2, 20832, Note_on_c, 0, 68, 0
2, 20832, Note_on_c, 0, 66, 96
2, 20880, Note_on_c, 0, 66, 0
2, 20880, Note_on_c, 0, 64, 96
2, 20928, Note_on_c, 0, 64, 0
2, 20928, Note_on_c, 0, 76, 96
2, 20976, Note_on_c, 0, 76, 0
2, 20976, Note_on_c, 0, 76, 96
2, 21024, Note_on_c, 0, 76, 0
2, 21024, Note_on_c, 0, 76, 96
2, 21072, Note_on_c, 0, 76, 0
2, 21072, Note_on_c, 0, 76, 96
2, 21120, Note_on_c, 0, 76, 0
2, 21120, Note_on_c, 0, 76, 96
2, 21192, Note_on_c, 0, 76, 0
2, 21192, Note_on_c, 0, 78, 96
2, 21200, Note_on_c, 0, 78, 0
2, 21200, Note_on_c, 0, 76, 96
2, 21208, Note_on_c, 0, 76, 0
2, 21208, Note_on_c, 0, 74, 96
2, 21216, Note_on_c, 0, 74, 0
2, 21216, Note_on_c, 0, 73, 96
2, 21264, Note_on_c, 0, 73, 0
2, 21312, Note_on_c, 0, 81, 96
2, 21456, Note_on_c, 0, 81, 0
2, 21456, Note_on_c, 0, 73, 96
2, 21504, Note_on_c, 0, 73, 0
2, 21504, Note_on_c, 0, 71, 96
2, 21552, Note_on_c, 0, 71, 0
2, 21552, Note_on_c, 0, 74, 96
2, 21600, Note_on_c, 0, 74, 0
2, 21600, Note_on_c, 0, 78, 96
2, 21648, Note_on_c, 0, 78, 0
2, 21648, Note_on_c, 0, 78, 96
2, 21696, Note_on_c, 0, 78, 0
2, 21696, Note_on_c, 0, 74, 96
2, 21744, Note_on_c, 0, 74, 0
2, 21744, Note_on_c, 0, 71, 96
2, 21792, Note_on_c, 0, 71, 0
2, 21792, Note_on_c, 0, 68, 96
2, 21840, Note_on_c, 0, 68, 0
2, 21840, Note_on_c, 0, 68, 96
2, 21888, Note_on_c, 0, 68, 0
2, 21888, Note_on_c, 0, 69, 96
2, 21936, Note_on_c, 0, 69, 0
2, 21936, Note_on_c, 0, 64, 96
2, 21984, Note_on_c, 0, 64, 0
2, 21984, Note_on_c, 0, 61, 96
2, 22032, Note_on_c, 0, 61, 0
2, 22032, Note_on_c, 0, 61, 96
2, 22080, Note_on_c, 0, 61, 0
2, 22080, Note_on_c, 0, 81, 96
2, 22224, Note_on_c, 0, 81, 0
2, 22224, Note_on_c, 0, 85, 96
2, 22272, Note_on_c, 0, 85, 0
2, 22272, Note_on_c, 0, 83, 96
2, 22320, Note_on_c, 0, 83, 0
2, 22320, Note_on_c, 0, 80, 96
2, 22368, Note_on_c, 0, 80, 0
2, 22368, Note_on_c, 0, 78, 96
2, 22416, Note_on_c, 0, 78, 0
2, 22416, Note_on_c, 0, 76, 96
2, 22464, Note_on_c, 0, 76, 0
2, 22464, Note_on_c, 0, 88, 96
2, 22512, Note_on_c, 0, 88, 0
2, 22512, Note_on_c, 0, 88, 96
2, 22560, Note_on_c, 0, 88, 0
2, 22560, Note_on_c, 0, 88, 96
2, 22608, Note_on_c, 0, 88, 0
2, 22608, Note_on_c, 0, 88, 96
2, 22656, Note_on_c, 0, 88, 0
2, 22656, Note_on_c, 0, 88, 96
2, 22728, Note_on_c, 0, 88, 0
2, 22728, Note_on_c, 0, 90, 96
2, 22736, Note_on_c, 0, 90, 0
2, 22736, Note_on_c, 0, 88, 96
2, 22744, Note_on_c, 0, 88, 0
2, 22744, Note_on_c, 0, 86, 96
2, 22752, Note_on_c, 0, 86, 0
2, 22752, Note_on_c, 0, 85, 96
2, 22800, Note_on_c, 0, 85, 0
2, 22848, Note_on_c, 0, 81, 96
2, 22992, Note_on_c, 0, 81, 0
2, 22992, Note_on_c, 0, 73, 96
2, 23040, Note_on_c, 0, 73, 0
2, 23040, Note_on_c, 0, 71, 96
2, 23088, Note_on_c, 0, 71, 0
2, 23088, Note_on_c, 0, 74, 96
2, 23136, Note_on_c, 0, 74, 0
2, 23136, Note_on_c, 0, 78, 96
2, 23184, Note_on_c, 0, 78, 0
2, 23184, Note_on_c, 0, 78, 96
2, 23232, Note_on_c, 0, 78, 0
2, 23232, Note_on_c, 0, 74, 96
2, 23280, Note_on_c, 0, 74, 0
2, 23280, Note_on_c, 0, 71, 96
2, 23328, Note_on_c, 0, 71, 0
2, 23328, Note_on_c, 0, 68, 96
2, 23376, Note_on_c, 0, 68, 0
2, 23376, Note_on_c, 0, 68, 96
2, 23424, Note_on_c, 0, 68, 0
2, 23424, Note_on_c, 0, 69, 96
2, 23520, Note_on_c, 0, 69, 0
2, 23568, Note_on_c, 0, 69, 96
2, 23592, Note_on_c, 0, 69, 0
2, 23592, Note_on_c, 0, 73, 96
2, 23616, Note_on_c, 0, 73, 0
2, 23616, Note_on_c, 0, 73, 96
2, 23640, Note_on_c, 0, 73, 0
2, 23640, Note_on_c, 0, 71, 96
2, 23664, Note_on_c, 0, 71, 0
2, 23664, Note_on_c, 0, 69, 96
2, 23688, Note_on_c, 0, 69, 0
2, 23688, Note_on_c, 0, 71, 96
2, 23712, Note_on_c, 0, 71, 0
2, 23712, Note_on_c, 0, 73, 96
2, 23736, Note_on_c, 0, 73, 0
2, 23736, Note_on_c, 0, 71, 96
2, 23760, Note_on_c, 0, 71, 0
2, 23760, Note_on_c, 0, 73, 96
2, 23784, Note_on_c, 0, 73, 0
2, 23784, Note_on_c, 0, 69, 96
2, 23808, Note_on_c, 0, 69, 0
2, 23808, Note_on_c, 0, 71, 96
2, 23904, Note_on_c, 0, 71, 0
2, 23952, Note_on_c, 0, 71, 96
2, 23976, Note_on_c, 0, 71, 0
2, 23976, Note_on_c, 0, 73, 96
2, 24000, Note_on_c, 0, 73, 0
2, 24000, Note_on_c, 0, 74, 96
2, 24024, Note_on_c, 0, 74, 0
2, 24024, Note_on_c, 0, 73, 96
2, 24048, Note_on_c, 0, 73, 0
2, 24048, Note_on_c, 0, 71, 96
2, 24072, Note_on_c, 0, 71, 0
2, 24072, Note_on_c, 0, 73, 96
2, 24096, Note_on_c, 0, 73, 0
2, 24096, Note_on_c, 0, 74, 96
2, 24120, Note_on_c, 0, 74, 0
2, 24120, Note_on_c, 0, 73, 96
2, 24144, Note_on_c, 0, 73, 0
2, 24144, Note_on_c, 0, 74, 96
2, 24168, Note_on_c, 0, 74, 0
2, 24168, Note_on_c, 0, 71, 96
2, 24192, Note_on_c, 0, 71, 0
2, 24192, Note_on_c, 0, 73, 96
2, 24288, Note_on_c, 0, 73, 0
2, 24336, Note_on_c, 0, 73, 96
2, 24360, Note_on_c, 0, 73, 0
2, 24360, Note_on_c, 0, 74, 96
2, 24384, Note_on_c, 0, 74, 0
2, 24384, Note_on_c, 0, 76, 96
2, 24408, Note_on_c, 0, 76, 0
2, 24408, Note_on_c, 0, 74, 96
2, 24432, Note_on_c, 0, 74, 0
2, 24432, Note_on_c, 0, 73, 96
2, 24456, Note_on_c, 0, 73, 0
2, 24456, Note_on_c, 0, 74, 96
2, 24480, Note_on_c, 0, 74, 0
2, 24480, Note_on_c, 0, 76, 96
2, 24504, Note_on_c, 0, 76, 0
2, 24504, Note_on_c, 0, 74, 96
2, 24528, Note_on_c, 0, 74, 0
2, 24528, Note_on_c, 0, 76, 96
2, 24552, Note_on_c, 0, 76, 0
2, 24552, Note_on_c, 0, 73, 96
2, 24576, Note_on_c, 0, 73, 0
2, 24576, Note_on_c, 0, 74, 96
2, 24672, Note_on_c, 0, 74, 0
2, 24720, Note_on_c, 0, 74, 96
2, 24744, Note_on_c, 0, 74, 0
2, 24744, Note_on_c, 0, 76, 96
2, 24768, Note_on_c, 0, 76, 0
2, 24768, Note_on_c, 0, 78, 96
2, 24792, Note_on_c, 0, 78, 0
2, 24792, Note_on_c, 0, 76, 96
2, 24816, Note_on_c, 0, 76, 0
2, 24816, Note_on_c, 0, 74, 96
2, 24840, Note_on_c, 0, 74, 0
2, 24840, Note_on_c, 0, 76, 96
2, 24864, Note_on_c, 0, 76, 0
2, 24864, Note_on_c, 0, 78, 96
2, 24888, Note_on_c, 0, 78, 0
2, 24888, Note_on_c, 0, 76, 96
2, 24912, Note_on_c, 0, 76, 0
2, 24912, Note_on_c, 0, 78, 96
2, 24936, Note_on_c, 0, 78, 0
2, 24936, Note_on_c, 0, 74, 96
2, 24960, Note_on_c, 0, 74, 0
2, 24960, Note_on_c, 0, 76, 96
2, 25056, Note_on_c, 0, 76, 0
2, 25056, Note_on_c, 0, 76, 96
2, 25080, Note_on_c, 0, 76, 0
2, 25080, Note_on_c, 0, 78, 96
2, 25104, Note_on_c, 0, 78, 0
2, 25104, Note_on_c, 0, 79, 96
2, 25128, Note_on_c, 0, 79, 0
2, 25128, Note_on_c, 0, 76, 96
2, 25152, Note_on_c, 0, 76, 0
2, 25152, Note_on_c, 0, 78, 96
2, 25248, Note_on_c, 0, 78, 0
2, 25248, Note_on_c, 0, 78, 96
2, 25272, Note_on_c, 0, 78, 0
2, 25272, Note_on_c, 0, 79, 96
2, 25296, Note_on_c, 0, 79, 0
2, 25296, Note_on_c, 0, 81, 96
2, 25320, Note_on_c, 0, 81, 0
2, 25320, Note_on_c, 0, 78, 96
2, 25344, Note_on_c, 0, 78, 0
2, 25344, Note_on_c, 0, 79, 96
2, 25392, Note_on_c, 0, 79, 0
2, 25392, Note_on_c, 0, 79, 96
2, 25488, Note_on_c, 0, 79, 0
2, 25488, Note_on_c, 0, 79, 96
2, 25584, Note_on_c, 0, 79, 0
2, 25584, Note_on_c, 0, 79, 96
2, 25680, Note_on_c, 0, 79, 0
2, 25680, Note_on_c, 0, 79, 96
2, 25776, Note_on_c, 0, 79, 0
2, 25800, Note_on_c, 0, 78, 96
2, 25824, Note_on_c, 0, 78, 0
2, 25824, Note_on_c, 0, 79, 96
2, 25848, Note_on_c, 0, 79, 0
2, 25848, Note_on_c, 0, 78, 96
2, 25872, Note_on_c, 0, 78, 0
2, 25872, Note_on_c, 0, 79, 96
2, 25896, Note_on_c, 0, 79, 0
2, 25896, Note_on_c, 0, 78, 96
2, 25920, Note_on_c, 0, 78, 0
2, 25920, Note_on_c, 0, 79, 96
2, 25944, Note_on_c, 0, 79, 0
2, 25944, Note_on_c, 0, 78, 96
2, 25968, Note_on_c, 0, 78, 0
2, 25968, Note_on_c, 0, 79, 96
2, 25992, Note_on_c, 0, 79, 0
2, 25992, Note_on_c, 0, 78, 96
2, 26016, Note_on_c, 0, 78, 0
2, 26016, Note_on_c, 0, 79, 96
2, 26040, Note_on_c, 0, 79, 0
2, 26040, Note_on_c, 0, 78, 96
2, 26064, Note_on_c, 0, 78, 0
2, 26064, Note_on_c, 0, 79, 96
2, 26088, Note_on_c, 0, 79, 0
2, 26088, Note_on_c, 0, 78, 96
2, 26112, Note_on_c, 0, 78, 0
2, 26112, Note_on_c, 0, 79, 96
2, 26136, Note_on_c, 0, 79, 0
2, 26136, Note_on_c, 0, 78, 96
2, 26160, Note_on_c, 0, 78, 0
2, 26160, Note_on_c, 0, 76, 96
2, 26184, Note_on_c, 0, 76, 0
2, 26184, Note_on_c, 0, 78, 96
2, 26208, Note_on_c, 0, 78, 0
2, 26208, Note_on_c, 0, 76, 96
2, 26232, Note_on_c, 0, 76, 0
2, 26232, Note_on_c, 0, 74, 96
2, 26256, Note_on_c, 0, 74, 0
2, 26256, Note_on_c, 0, 73, 96
2, 26280, Note_on_c, 0, 73, 0
2, 26280, Note_on_c, 0, 74, 96
2, 26304, Note_on_c, 0, 74, 0
2, 26304, Note_on_c, 0, 73, 96
2, 26328, Note_on_c, 0, 73, 0
2, 26328, Note_on_c, 0, 71, 96
2, 26352, Note_on_c, 0, 71, 0
2, 26352, Note_on_c, 0, 69, 96
2, 26376, Note_on_c, 0, 69, 0
2, 26376, Note_on_c, 0, 71, 96
2, 26400, Note_on_c, 0, 71, 0
2, 26400, Note_on_c, 0, 69, 96
2, 26424, Note_on_c, 0, 69, 0
2, 26424, Note_on_c, 0, 67, 96
2, 26448, Note_on_c, 0, 67, 0
2, 26448, Note_on_c, 0, 66, 96
2, 26472, Note_on_c, 0, 66, 0
2, 26472, Note_on_c, 0, 64, 96
2, 26496, Note_on_c, 0, 64, 0
2, 26496, Note_on_c, 0, 62, 96
2, 26520, Note_on_c, 0, 62, 0
2, 26520, Note_on_c, 0, 61, 96
2, 26544, Note_on_c, 0, 61, 0
2, 26544, Note_on_c, 0, 62, 96
2, 26568, Note_on_c, 0, 62, 0
2, 26568, Note_on_c, 0, 61, 96
2, 26592, Note_on_c, 0, 61, 0
2, 26592, Note_on_c, 0, 62, 96
2, 26640, Note_on_c, 0, 62, 0
2, 26688, Note_on_c, 0, 62, 96
2, 26712, Note_on_c, 0, 62, 0
2, 26712, Note_on_c, 0, 61, 96
2, 26736, Note_on_c, 0, 61, 0
2, 26736, Note_on_c, 0, 62, 96
2, 26760, Note_on_c, 0, 62, 0
2, 26760, Note_on_c, 0, 64, 96
2, 26784, Note_on_c, 0, 64, 0
2, 26784, Note_on_c, 0, 66, 96
2, 26808, Note_on_c, 0, 66, 0
2, 26808, Note_on_c, 0, 64, 96
2, 26832, Note_on_c, 0, 64, 0
2, 26832, Note_on_c, 0, 66, 96
2, 26856, Note_on_c, 0, 66, 0
2, 26856, Note_on_c, 0, 67, 96
2, 26880, Note_on_c, 0, 67, 0
2, 26880, Note_on_c, 0, 69, 96
2, 26904, Note_on_c, 0, 69, 0
2, 26904, Note_on_c, 0, 68, 96
2, 26928, Note_on_c, 0, 68, 0
2, 26928, Note_on_c, 0, 69, 96
2, 26952, Note_on_c, 0, 69, 0
2, 26952, Note_on_c, 0, 68, 96
2, 26976, Note_on_c, 0, 68, 0
2, 26976, Note_on_c, 0, 69, 96
2, 27024, Note_on_c, 0, 69, 0
2, 27072, Note_on_c, 0, 69, 96
2, 27096, Note_on_c, 0, 69, 0
2, 27096, Note_on_c, 0, 68, 96
2, 27120, Note_on_c, 0, 68, 0
2, 27120, Note_on_c, 0, 69, 96
2, 27144, Note_on_c, 0, 69, 0
2, 27144, Note_on_c, 0, 70, 96
2, 27168, Note_on_c, 0, 70, 0
2, 27168, Note_on_c, 0, 71, 96
2, 27192, Note_on_c, 0, 71, 0
2, 27192, Note_on_c, 0, 69, 96
2, 27216, Note_on_c, 0, 69, 0
2, 27216, Note_on_c, 0, 67, 96
2, 27240, Note_on_c, 0, 67, 0
2, 27240, Note_on_c, 0, 66, 96
2, 27264, Note_on_c, 0, 66, 0
2, 27264, Note_on_c, 0, 64, 96
2, 27288, Note_on_c, 0, 64, 0
2, 27288, Note_on_c, 0, 63, 96
2, 27312, Note_on_c, 0, 63, 0
2, 27312, Note_on_c, 0, 64, 96
2, 27336, Note_on_c, 0, 64, 0
2, 27336, Note_on_c, 0, 66, 96
2, 27360, Note_on_c, 0, 66, 0
2, 27360, Note_on_c, 0, 67, 96
2, 27384, Note_on_c, 0, 67, 0
2, 27384, Note_on_c, 0, 66, 96
2, 27408, Note_on_c, 0, 66, 0
2, 27408, Note_on_c, 0, 64, 96
2, 27432, Note_on_c, 0, 64, 0
2, 27432, Note_on_c, 0, 62, 96
2, 27456, Note_on_c, 0, 62, 0
2, 27456, Note_on_c, 0, 61, 96
2, 27480, Note_on_c, 0, 61, 0
2, 27480, Note_on_c, 0, 62, 96
2, 27504, Note_on_c, 0, 62, 0
2, 27504, Note_on_c, 0, 64, 96
2, 27528, Note_on_c, 0, 64, 0
2, 27528, Note_on_c, 0, 62, 96
2, 27552, Note_on_c, 0, 62, 0
2, 27552, Note_on_c, 0, 61, 96
2, 27576, Note_on_c, 0, 61, 0
2, 27576, Note_on_c, 0, 57, 96
2, 27600, Note_on_c, 0, 57, 0
2, 27600, Note_on_c, 0, 59, 96
2, 27624, Note_on_c, 0, 59, 0
2, 27624, Note_on_c, 0, 61, 96
2, 27648, Note_on_c, 0, 61, 0
2, 27648, Note_on_c, 0, 62, 96
2, 27696, Note_on_c, 0, 62, 0
2, 27840, Note_on_c, 0, 78, 96
2, 27984, Note_on_c, 0, 78, 0
2, 27984, Note_on_c, 0, 76, 96
2, 28032, Note_on_c, 0, 76, 0
2, 28032, Note_on_c, 0, 74, 96
2, 28080, Note_on_c, 0, 74, 0
2, 28080, Note_on_c, 0, 69, 96
2, 28128, Note_on_c, 0, 69, 0
2, 28128, Note_on_c, 0, 74, 96
2, 28176, Note_on_c, 0, 74, 0
2, 28176, Note_on_c, 0, 78, 96
2, 28224, Note_on_c, 0, 78, 0
2, 28224, Note_on_c, 0, 81, 96
2, 28368, Note_on_c, 0, 81, 0
2, 28368, Note_on_c, 0, 79, 96
2, 28416, Note_on_c, 0, 79, 0
2, 28416, Note_on_c, 0, 78, 96
2, 28464, Note_on_c, 0, 78, 0
2, 28464, Note_on_c, 0, 74, 96
2, 28512, Note_on_c, 0, 74, 0
2, 28512, Note_on_c, 0, 78, 96
2, 28560, Note_on_c, 0, 78, 0
2, 28560, Note_on_c, 0, 81, 96
2, 28608, Note_on_c, 0, 81, 0
2, 28608, Note_on_c, 0, 86, 96
2, 28800, Note_on_c, 0, 86, 0
2, 28800, Note_on_c, 0, 85, 96
2, 28944, Note_on_c, 0, 85, 0
2, 28944, Note_on_c, 0, 86, 96
2, 28968, Note_on_c, 0, 86, 0
2, 28968, Note_on_c, 0, 83, 96
2, 28992, Note_on_c, 0, 83, 0
2, 28992, Note_on_c, 0, 81, 96
2, 29040, Note_on_c, 0, 81, 0
2, 29040, Note_on_c, 0, 86, 96
2, 29088, Note_on_c, 0, 86, 0
2, 29088, Note_on_c, 0, 86, 96
2, 29100, Note_on_c, 0, 86, 0
2, 29100, Note_on_c, 0, 85, 96
2, 29112, Note_on_c, 0, 85, 0
2, 29112, Note_on_c, 0, 83, 96
2, 29124, Note_on_c, 0, 83, 0
2, 29124, Note_on_c, 0, 85, 96
2, 29136, Note_on_c, 0, 85, 0
2, 29136, Note_on_c, 0, 86, 96
2, 29160, Note_on_c, 0, 86, 0
2, 29160, Note_on_c, 0, 83, 96
2, 29184, Note_on_c, 0, 83, 0
2, 29184, Note_on_c, 0, 81, 96
2, 29232, Note_on_c, 0, 81, 0
2, 29232, Note_on_c, 0, 86, 96
2, 29280, Note_on_c, 0, 86, 0
2, 29280, Note_on_c, 0, 86, 96
2, 29292, Note_on_c, 0, 86, 0
2, 29292, Note_on_c, 0, 85, 96
2, 29304, Note_on_c, 0, 85, 0
2, 29304, Note_on_c, 0, 83, 96
2, 29316, Note_on_c, 0, 83, 0
2, 29316, Note_on_c, 0, 85, 96
2, 29328, Note_on_c, 0, 85, 0
2, 29328, Note_on_c, 0, 86, 96
2, 29352, Note_on_c, 0, 86, 0
2, 29352, Note_on_c, 0, 83, 96
2, 29376, Note_on_c, 0, 83, 0
2, 29376, Note_on_c, 0, 81, 96
2, 29424, Note_on_c, 0, 81, 0
2, 29424, Note_on_c, 0, 81, 96
2, 29448, Note_on_c, 0, 81, 0
2, 29448, Note_on_c, 0, 81, 96
2, 29472, Note_on_c, 0, 81, 0
2, 29472, Note_on_c, 0, 79, 96
2, 29520, Note_on_c, 0, 79, 0
2, 29520, Note_on_c, 0, 79, 96
2, 29544, Note_on_c, 0, 79, 0
2, 29544, Note_on_c, 0, 79, 96
2, 29568, Note_on_c, 0, 79, 0
2, 29568, Note_on_c, 0, 78, 96
2, 29616, Note_on_c, 0, 78, 0
2, 29616, Note_on_c, 0, 78, 96
2, 29640, Note_on_c, 0, 78, 0
2, 29640, Note_on_c, 0, 78, 96
2, 29664, Note_on_c, 0, 78, 0
2, 29664, Note_on_c, 0, 76, 96
2, 29712, Note_on_c, 0, 76, 0
2, 29712, Note_on_c, 0, 76, 96
2, 29736, Note_on_c, 0, 76, 0
2, 29736, Note_on_c, 0, 76, 96
2, 29760, Note_on_c, 0, 76, 0
2, 29760, Note_on_c, 0, 74, 96
2, 29952, Note_on_c, 0, 74, 0
2, 29952, Note_on_c, 0, 86, 96
2, 30240, Note_on_c, 0, 86, 0
2, 30240, Note_on_c, 0, 85, 96
2, 30336, Note_on_c, 0, 85, 0
2, 30336, Note_on_c, 0, 84, 96
2, 30528, Note_on_c, 0, 84, 0
2, 30528, Note_on_c, 0, 83, 96
2, 30720, Note_on_c, 0, 83, 0
2, 30720, Note_on_c, 0, 81, 96
2, 30912, Note_on_c, 0, 81, 0
2, 30912, Note_on_c, 0, 79, 96
2, 31104, Note_on_c, 0, 79, 0
2, 31104, Note_on_c, 0, 76, 96
2, 31116, Note_on_c, 0, 76, 0
2, 31116, Note_on_c, 0, 78, 96
2, 31128, Note_on_c, 0, 78, 0
2, 31128, Note_on_c, 0, 76, 96
2, 31140, Note_on_c, 0, 76, 0
2, 31140, Note_on_c, 0, 78, 96
2, 31152, Note_on_c, 0, 78, 0
2, 31152, Note_on_c, 0, 76, 96
2, 31164, Note_on_c, 0, 76, 0
2, 31164, Note_on_c, 0, 78, 96
2, 31176, Note_on_c, 0, 78, 0
2, 31176, Note_on_c, 0, 76, 96
2, 31188, Note_on_c, 0, 76, 0
2, 31188, Note_on_c, 0, 78, 96
2, 31200, Note_on_c, 0, 78, 0
2, 31200, Note_on_c, 0, 76, 96
2, 31212, Note_on_c, 0, 76, 0
2, 31212, Note_on_c, 0, 78, 96
2, 31224, Note_on_c, 0, 78, 0
2, 31224, Note_on_c, 0, 76, 96
2, 31236, Note_on_c, 0, 76, 0
2, 31236, Note_on_c, 0, 78, 96
2, 31248, Note_on_c, 0, 78, 0
2, 31248, Note_on_c, 0, 76, 96
2, 31260, Note_on_c, 0, 76, 0
2, 31260, Note_on_c, 0, 78, 96
2, 31272, Note_on_c, 0, 78, 0
2, 31272, Note_on_c, 0, 76, 96
2, 31284, Note_on_c, 0, 76, 0
2, 31284, Note_on_c, 0, 78, 96
2, 31296, Note_on_c, 0, 78, 0
2, 31296, Note_on_c, 0, 76, 96
2, 31392, Note_on_c, 0, 76, 0
2, 31440, Note_on_c, 0, 85, 96
2, 31488, Note_on_c, 0, 85, 0
2, 31488, Note_on_c, 0, 86, 96
2, 31584, Note_on_c, 0, 86, 0
2, 31632, Note_on_c, 0, 78, 96
2, 31680, Note_on_c, 0, 78, 0
2, 31680, Note_on_c, 0, 81, 96
2, 31776, Note_on_c, 0, 81, 0
2, 31824, Note_on_c, 0, 85, 96
2, 31872, Note_on_c, 0, 85, 0
2, 31872, Note_on_c, 0, 86, 96
2, 31968, Note_on_c, 0, 86, 0
2, 32016, Note_on_c, 0, 78, 96
2, 32064, Note_on_c, 0, 78, 0
2, 32064, Note_on_c, 0, 81, 96
2, 32112, Note_on_c, 0, 81, 0
2, 32112, Note_on_c, 0, 85, 96
2, 32160, Note_on_c, 0, 85, 0
2, 32160, Note_on_c, 0, 86, 96
2, 32208, Note_on_c, 0, 86, 0
2, 32208, Note_on_c, 0, 86, 96
2, 32256, Note_on_c, 0, 86, 0
2, 32256, Note_on_c, 0, 85, 96
2, 32304, Note_on_c, 0, 85, 0
2, 32304, Note_on_c, 0, 85, 96
2, 32352, Note_on_c, 0, 85, 0
2, 32352, Note_on_c, 0, 86, 96
2, 32400, Note_on_c, 0, 86, 0
2, 32400, Note_on_c, 0, 86, 96
2, 32448, Note_on_c, 0, 86, 0
2, 32448, Note_on_c, 0, 85, 96
2, 32496, Note_on_c, 0, 85, 0
2, 32496, Note_on_c, 0, 69, 96
2, 32520, Note_on_c, 0, 69, 0
2, 32520, Note_on_c, 0, 69, 96
2, 32544, Note_on_c, 0, 69, 0
2, 32544, Note_on_c, 0, 69, 96
2, 32592, Note_on_c, 0, 69, 0
2, 32592, Note_on_c, 0, 69, 96
2, 32640, Note_on_c, 0, 69, 0
2, 32640, Note_on_c, 0, 69, 96
2, 32736, Note_on_c, 0, 69, 0
2, 33024, Note_on_c, 0, 81, 96
2, 33216, Note_on_c, 0, 81, 0
2, 33216, Note_on_c, 0, 80, 96
2, 33360, Note_on_c, 0, 80, 0
2, 33360, Note_on_c, 0, 81, 96
2, 33408, Note_on_c, 0, 81, 0
2, 33408, Note_on_c, 0, 80, 96
2, 33552, Note_on_c, 0, 80, 0
2, 33552, Note_on_c, 0, 81, 96
2, 33600, Note_on_c, 0, 81, 0
2, 33600, Note_on_c, 0, 83, 96
2, 33606, Note_on_c, 0, 83, 0
2, 33606, Note_on_c, 0, 85, 96
2, 33612, Note_on_c, 0, 85, 0
2, 33612, Note_on_c, 0, 86, 96
2, 33648, Note_on_c, 0, 86, 0
2, 33648, Note_on_c, 0, 86, 96
2, 33672, Note_on_c, 0, 86, 0
2, 33672, Note_on_c, 0, 86, 96
2, 33696, Note_on_c, 0, 86, 0
2, 33696, Note_on_c, 0, 86, 96
2, 33744, Note_on_c, 0, 86, 0
2, 33792, Note_on_c, 0, 83, 96
2, 33798, Note_on_c, 0, 83, 0
2, 33798, Note_on_c, 0, 85, 96
2, 33804, Note_on_c, 0, 85, 0
2, 33804, Note_on_c, 0, 86, 96
2, 33840, Note_on_c, 0, 86, 0
2, 33840, Note_on_c, 0, 86, 96
2, 33864, Note_on_c, 0, 86, 0
2, 33864, Note_on_c, 0, 86, 96
2, 33888, Note_on_c, 0, 86, 0
2, 33888, Note_on_c, 0, 86, 96
2, 33936, Note_on_c, 0, 86, 0
2, 33984, Note_on_c, 0, 79, 96
2, 34008, Note_on_c, 0, 79, 0
2, 34008, Note_on_c, 0, 81, 96
2, 34032, Note_on_c, 0, 81, 0
2, 34032, Note_on_c, 0, 83, 96
2, 34056, Note_on_c, 0, 83, 0
2, 34056, Note_on_c, 0, 81, 96
2, 34080, Note_on_c, 0, 81, 0
2, 34080, Note_on_c, 0, 79, 96
2, 34104, Note_on_c, 0, 79, 0
2, 34104, Note_on_c, 0, 78, 96
2, 34128, Note_on_c, 0, 78, 0
2, 34128, Note_on_c, 0, 76, 96
2, 34152, Note_on_c, 0, 76, 0
2, 34152, Note_on_c, 0, 74, 96
2, 34176, Note_on_c, 0, 74, 0
2, 34176, Note_on_c, 0, 85, 96
2, 34200, Note_on_c, 0, 85, 0
2, 34200, Note_on_c, 0, 86, 96
2, 34224, Note_on_c, 0, 86, 0
2, 34224, Note_on_c, 0, 88, 96
2, 34248, Note_on_c, 0, 88, 0
2, 34248, Note_on_c, 0, 86, 96
2, 34272, Note_on_c, 0, 86, 0
2, 34272, Note_on_c, 0, 85, 96
2, 34296, Note_on_c, 0, 85, 0
2, 34296, Note_on_c, 0, 83, 96
2, 34320, Note_on_c, 0, 83, 0
2, 34320, Note_on_c, 0, 81, 96
2, 34344, Note_on_c, 0, 81, 0
2, 34344, Note_on_c, 0, 79, 96
2, 34368, Note_on_c, 0, 79, 0
2, 34368, Note_on_c, 0, 78, 96
2, 34392, Note_on_c, 0, 78, 0
2, 34560, Note_on_c, 0, 81, 96
2, 34752, Note_on_c, 0, 81, 0
2, 34752, Note_on_c, 0, 80, 96
2, 34896, Note_on_c, 0, 80, 0
2, 34896, Note_on_c, 0, 81, 96
2, 34944, Note_on_c, 0, 81, 0
2, 34944, Note_on_c, 0, 80, 96
2, 35088, Note_on_c, 0, 80, 0
2, 35088, Note_on_c, 0, 81, 96
2, 35136, Note_on_c, 0, 81, 0
2, 35136, Note_on_c, 0, 83, 96
2, 35142, Note_on_c, 0, 83, 0
2, 35142, Note_on_c, 0, 85, 96
2, 35148, Note_on_c, 0, 85, 0
2, 35148, Note_on_c, 0, 86, 96
2, 35184, Note_on_c, 0, 86, 0
2, 35184, Note_on_c, 0, 86, 96
2, 35208, Note_on_c, 0, 86, 0
2, 35208, Note_on_c, 0, 86, 96
2, 35232, Note_on_c, 0, 86, 0
2, 35232, Note_on_c, 0, 86, 96
2, 35280, Note_on_c, 0, 86, 0
2, 35328, Note_on_c, 0, 83, 96
2, 35334, Note_on_c, 0, 83, 0
2, 35334, Note_on_c, 0, 85, 96
2, 35340, Note_on_c, 0, 85, 0
2, 35340, Note_on_c, 0, 86, 96
2, 35376, Note_on_c, 0, 86, 0
2, 35376, Note_on_c, 0, 86, 96
2, 35400, Note_on_c, 0, 86, 0
2, 35400, Note_on_c, 0, 86, 96
2, 35424, Note_on_c, 0, 86, 0
2, 35424, Note_on_c, 0, 86, 96
2, 35472, Note_on_c, 0, 86, 0
2, 35520, Note_on_c, 0, 79, 96
2, 35544, Note_on_c, 0, 79, 0
2, 35544, Note_on_c, 0, 81, 96
2, 35568, Note_on_c, 0, 81, 0
2, 35568, Note_on_c, 0, 83, 96
2, 35592, Note_on_c, 0, 83, 0
2, 35592, Note_on_c, 0, 81, 96
2, 35616, Note_on_c, 0, 81, 0
2, 35616, Note_on_c, 0, 79, 96
2, 35640, Note_on_c, 0, 79, 0
2, 35640, Note_on_c, 0, 78, 96
2, 35664, Note_on_c, 0, 78, 0
2, 35664, Note_on_c, 0, 76, 96
2, 35688, Note_on_c, 0, 76, 0
2, 35688, Note_on_c, 0, 74, 96
2, 35712, Note_on_c, 0, 74, 0
2, 35712, Note_on_c, 0, 85, 96
2, 35736, Note_on_c, 0, 85, 0
2, 35736, Note_on_c, 0, 86, 96
2, 35760, Note_on_c, 0, 86, 0
2, 35760, Note_on_c, 0, 88, 96
2, 35784, Note_on_c, 0, 88, 0
2, 35784, Note_on_c, 0, 86, 96
2, 35808, Note_on_c, 0, 86, 0
2, 35808, Note_on_c, 0, 85, 96
2, 35832, Note_on_c, 0, 85, 0
2, 35832, Note_on_c, 0, 83, 96
2, 35856, Note_on_c, 0, 83, 0
2, 35856, Note_on_c, 0, 81, 96
2, 35880, Note_on_c, 0, 81, 0
2, 35880, Note_on_c, 0, 79, 96
2, 35904, Note_on_c, 0, 79, 0
2, 35904, Note_on_c, 0, 78, 96
2, 35952, Note_on_c, 0, 78, 0
2, 36000, Note_on_c, 0, 83, 96
2, 36048, Note_on_c, 0, 83, 0
2, 36144, Note_on_c, 0, 83, 96
2, 36192, Note_on_c, 0, 83, 0
2, 36192, Note_on_c, 0, 86, 96
2, 36240, Note_on_c, 0, 86, 0
2, 36240, Note_on_c, 0, 83, 96
2, 36288, Note_on_c, 0, 83, 0
2, 36288, Note_on_c, 0, 80, 96
2, 36336, Note_on_c, 0, 80, 0
2, 36336, Note_on_c, 0, 76, 96
2, 36384, Note_on_c, 0, 76, 0
2, 36384, Note_on_c, 0, 81, 96
2, 36432, Note_on_c, 0, 81, 0
2, 36528, Note_on_c, 0, 81, 96
2, 36576, Note_on_c, 0, 81, 0
2, 36576, Note_on_c, 0, 84, 96
2, 36624, Note_on_c, 0, 84, 0
2, 36624, Note_on_c, 0, 81, 96
2, 36672, Note_on_c, 0, 81, 0
2, 36672, Note_on_c, 0, 78, 96
2, 36720, Note_on_c, 0, 78, 0
2, 36720, Note_on_c, 0, 74, 96
2, 36768, Note_on_c, 0, 74, 0
2, 36768, Note_on_c, 0, 79, 96
2, 36816, Note_on_c, 0, 79, 0
2, 36912, Note_on_c, 0, 79, 96
2, 36960, Note_on_c, 0, 79, 0
2, 36960, Note_on_c, 0, 82, 96
2, 37008, Note_on_c, 0, 82, 0
2, 37008, Note_on_c, 0, 74, 96
2, 37056, Note_on_c, 0, 74, 0
2, 37056, Note_on_c, 0, 73, 96
2, 37104, Note_on_c, 0, 73, 0
2, 37104, Note_on_c, 0, 69, 96
2, 37152, Note_on_c, 0, 69, 0
2, 37200, Note_on_c, 0, 73, 96
2, 37248, Note_on_c, 0, 73, 0
2, 37248, Note_on_c, 0, 74, 96
2, 37296, Note_on_c, 0, 74, 0
2, 37296, Note_on_c, 0, 69, 96
2, 37344, Note_on_c, 0, 69, 0
2, 37392, Note_on_c, 0, 74, 96
2, 37440, Note_on_c, 0, 74, 0
2, 37440, Note_on_c, 0, 76, 96
2, 37488, Note_on_c, 0, 76, 0
2, 37488, Note_on_c, 0, 69, 96
2, 37536, Note_on_c, 0, 69, 0
2, 37584, Note_on_c, 0, 76, 96
2, 37632, Note_on_c, 0, 76, 0
2, 37632, Note_on_c, 0, 78, 96
2, 37680, Note_on_c, 0, 78, 0
2, 37680, Note_on_c, 0, 69, 96
2, 37728, Note_on_c, 0, 69, 0
2, 37728, Note_on_c, 0, 79, 96
2, 37776, Note_on_c, 0, 79, 0
2, 37776, Note_on_c, 0, 69, 96
2, 37824, Note_on_c, 0, 69, 0
2, 37824, Note_on_c, 0, 86, 96
2, 37848, Note_on_c, 0, 86, 0
2, 37848, Note_on_c, 0, 74, 96
2, 37872, Note_on_c, 0, 74, 0
2, 37872, Note_on_c, 0, 86, 96
2, 37896, Note_on_c, 0, 86, 0
2, 37896, Note_on_c, 0, 74, 96
2, 37920, Note_on_c, 0, 74, 0
2, 37920, Note_on_c, 0, 86, 96
2, 37944, Note_on_c, 0, 86, 0
2, 37944, Note_on_c, 0, 74, 96
2, 37968, Note_on_c, 0, 74, 0
2, 37968, Note_on_c, 0, 86, 96
2, 37992, Note_on_c, 0, 86, 0
2, 37992, Note_on_c, 0, 74, 96
2, 38016, Note_on_c, 0, 74, 0
2, 38016, Note_on_c, 0, 86, 96
2, 38040, Note_on_c, 0, 86, 0
2, 38040, Note_on_c, 0, 74, 96
2, 38064, Note_on_c, 0, 74, 0
2, 38064, Note_on_c, 0, 86, 96
2, 38088, Note_on_c, 0, 86, 0
2, 38088, Note_on_c, 0, 74, 96
2, 38112, Note_on_c, 0, 74, 0
2, 38112, Note_on_c, 0, 86, 96
2, 38136, Note_on_c, 0, 86, 0
2, 38136, Note_on_c, 0, 74, 96
2, 38160, Note_on_c, 0, 74, 0
2, 38160, Note_on_c, 0, 86, 96
2, 38184, Note_on_c, 0, 86, 0
2, 38184, Note_on_c, 0, 74, 96
2, 38208, Note_on_c, 0, 74, 0
2, 38208, Note_on_c, 0, 86, 96
2, 38232, Note_on_c, 0, 86, 0
2, 38232, Note_on_c, 0, 74, 96
2, 38256, Note_on_c, 0, 74, 0
2, 38256, Note_on_c, 0, 86, 96
2, 38280, Note_on_c, 0, 86, 0
2, 38280, Note_on_c, 0, 74, 96
2, 38304, Note_on_c, 0, 74, 0
2, 38304, Note_on_c, 0, 86, 96
2, 38328, Note_on_c, 0, 86, 0
2, 38328, Note_on_c, 0, 74, 96
2, 38352, Note_on_c, 0, 74, 0
2, 38352, Note_on_c, 0, 86, 96
2, 38376, Note_on_c, 0, 86, 0
2, 38376, Note_on_c, 0, 74, 96
2, 38400, Note_on_c, 0, 74, 0
2, 38400, Note_on_c, 0, 86, 96
2, 38424, Note_on_c, 0, 86, 0
2, 38424, Note_on_c, 0, 74, 96
2, 38448, Note_on_c, 0, 74, 0
2, 38448, Note_on_c, 0, 86, 96
2, 38472, Note_on_c, 0, 86, 0
2, 38472, Note_on_c, 0, 74, 96
2, 38496, Note_on_c, 0, 74, 0
2, 38496, Note_on_c, 0, 86, 96
2, 38520, Note_on_c, 0, 86, 0
2, 38520, Note_on_c, 0, 74, 96
2, 38544, Note_on_c, 0, 74, 0
2, 38544, Note_on_c, 0, 86, 96
2, 38568, Note_on_c, 0, 86, 0
2, 38568, Note_on_c, 0, 74, 96
2, 38592, Note_on_c, 0, 74, 0
2, 38592, Note_on_c, 0, 86, 96
2, 38616, Note_on_c, 0, 86, 0
2, 38616, Note_on_c, 0, 74, 96
2, 38640, Note_on_c, 0, 74, 0
2, 38640, Note_on_c, 0, 86, 96
2, 38664, Note_on_c, 0, 86, 0
2, 38664, Note_on_c, 0, 74, 96
2, 38688, Note_on_c, 0, 74, 0
2, 38688, Note_on_c, 0, 86, 96
2, 38712, Note_on_c, 0, 86, 0
2, 38712, Note_on_c, 0, 74, 96
2, 38736, Note_on_c, 0, 74, 0
2, 38736, Note_on_c, 0, 86, 96
2, 38760, Note_on_c, 0, 86, 0
2, 38760, Note_on_c, 0, 74, 96
2, 38784, Note_on_c, 0, 74, 0
2, 38784, Note_on_c, 0, 86, 96
2, 38808, Note_on_c, 0, 86, 0
2, 38808, Note_on_c, 0, 74, 96
2, 38832, Note_on_c, 0, 74, 0
2, 38832, Note_on_c, 0, 86, 96
2, 38856, Note_on_c, 0, 86, 0
2, 38856, Note_on_c, 0, 74, 96
2, 38880, Note_on_c, 0, 74, 0
2, 38880, Note_on_c, 0, 86, 96
2, 38904, Note_on_c, 0, 86, 0
2, 38904, Note_on_c, 0, 74, 96
2, 38928, Note_on_c, 0, 74, 0
2, 38928, Note_on_c, 0, 86, 96
2, 38952, Note_on_c, 0, 86, 0
2, 38952, Note_on_c, 0, 74, 96
2, 38976, Note_on_c, 0, 74, 0
2, 38976, Note_on_c, 0, 86, 96
2, 39000, Note_on_c, 0, 86, 0
2, 39000, Note_on_c, 0, 74, 96
2, 39024, Note_on_c, 0, 74, 0
2, 39024, Note_on_c, 0, 86, 96
2, 39048, Note_on_c, 0, 86, 0
2, 39048, Note_on_c, 0, 74, 96
2, 39072, Note_on_c, 0, 74, 0
2, 39072, Note_on_c, 0, 86, 96
2, 39096, Note_on_c, 0, 86, 0
2, 39096, Note_on_c, 0, 74, 96
2, 39120, Note_on_c, 0, 74, 0
2, 39120, Note_on_c, 0, 86, 96
2, 39144, Note_on_c, 0, 86, 0
2, 39144, Note_on_c, 0, 74, 96
2, 39168, Note_on_c, 0, 74, 0
2, 39168, Note_on_c, 0, 86, 96
2, 39192, Note_on_c, 0, 86, 0
2, 39192, Note_on_c, 0, 76, 96
2, 39216, Note_on_c, 0, 76, 0
2, 39216, Note_on_c, 0, 86, 96
2, 39240, Note_on_c, 0, 86, 0
2, 39240, Note_on_c, 0, 76, 96
2, 39264, Note_on_c, 0, 76, 0
2, 39264, Note_on_c, 0, 85, 96
2, 39288, Note_on_c, 0, 85, 0
2, 39288, Note_on_c, 0, 76, 96
2, 39312, Note_on_c, 0, 76, 0
2, 39312, Note_on_c, 0, 85, 96
2, 39336, Note_on_c, 0, 85, 0
2, 39336, Note_on_c, 0, 76, 96
2, 39360, Note_on_c, 0, 76, 0
2, 39360, Note_on_c, 0, 86, 96
2, 39384, Note_on_c, 0, 86, 0
2, 39384, Note_on_c, 0, 74, 96
2, 39408, Note_on_c, 0, 74, 0
2, 39408, Note_on_c, 0, 86, 96
2, 39432, Note_on_c, 0, 86, 0
2, 39432, Note_on_c, 0, 74, 96
2, 39456, Note_on_c, 0, 74, 0
2, 39456, Note_on_c, 0, 83, 96
2, 39480, Note_on_c, 0, 83, 0
2, 39480, Note_on_c, 0, 74, 96
2, 39504, Note_on_c, 0, 74, 0
2, 39504, Note_on_c, 0, 83, 96
2, 39528, Note_on_c, 0, 83, 0
2, 39528, Note_on_c, 0, 74, 96
2, 39552, Note_on_c, 0, 74, 0
2, 39552, Note_on_c, 0, 78, 96
2, 39576, Note_on_c, 0, 78, 0
2, 39576, Note_on_c, 0, 69, 96
2, 39600, Note_on_c, 0, 69, 0
2, 39600, Note_on_c, 0, 78, 96
2, 39624, Note_on_c, 0, 78, 0
2, 39624, Note_on_c, 0, 69, 96
2, 39648, Note_on_c, 0, 69, 0
2, 39648, Note_on_c, 0, 76, 96
2, 39672, Note_on_c, 0, 76, 0
2, 39672, Note_on_c, 0, 69, 96
2, 39696, Note_on_c, 0, 69, 0
2, 39696, Note_on_c, 0, 76, 96
2, 39720, Note_on_c, 0, 76, 0
2, 39720, Note_on_c, 0, 69, 96
2, 39744, Note_on_c, 0, 69, 0
2, 39744, Note_on_c, 0, 74, 96
2, 39792, Note_on_c, 0, 74, 0
2, 39888, Note_on_c, 0, 74, 96
2, 39936, Note_on_c, 0, 74, 0
2, 39936, Note_on_c, 0, 76, 96
2, 39984, Note_on_c, 0, 76, 0
2, 39984, Note_on_c, 0, 78, 96
2, 40032, Note_on_c, 0, 78, 0
2, 40032, Note_on_c, 0, 79, 96
2, 40080, Note_on_c, 0, 79, 0
2, 40080, Note_on_c, 0, 80, 96
2, 40128, Note_on_c, 0, 80, 0
2, 40128, Note_on_c, 0, 83, 96
2, 40176, Note_on_c, 0, 83, 0
2, 40176, Note_on_c, 0, 81, 96
2, 40224, Note_on_c, 0, 81, 0
2, 40272, Note_on_c, 0, 74, 96
2, 40320, Note_on_c, 0, 74, 0
2, 40320, Note_on_c, 0, 76, 96
2, 40368, Note_on_c, 0, 76, 0
2, 40368, Note_on_c, 0, 78, 96
2, 40416, Note_on_c, 0, 78, 0
2, 40416, Note_on_c, 0, 79, 96
2, 40464, Note_on_c, 0, 79, 0
2, 40464, Note_on_c, 0, 80, 96
2, 40512, Note_on_c, 0, 80, 0
2, 40512, Note_on_c, 0, 83, 96
2, 40560, Note_on_c, 0, 83, 0
2, 40560, Note_on_c, 0, 81, 96
2, 40608, Note_on_c, 0, 81, 0
2, 40656, Note_on_c, 0, 74, 96
2, 40704, Note_on_c, 0, 74, 0
2, 40704, Note_on_c, 0, 76, 96
2, 40752, Note_on_c, 0, 76, 0
2, 40752, Note_on_c, 0, 77, 96
2, 40800, Note_on_c, 0, 77, 0
2, 40800, Note_on_c, 0, 79, 96
2, 40848, Note_on_c, 0, 79, 0
2, 40848, Note_on_c, 0, 81, 96
2, 40896, Note_on_c, 0, 81, 0
2, 40896, Note_on_c, 0, 82, 96
2, 41088, Note_on_c, 0, 82, 0
2, 41088, Note_on_c, 0, 82, 96
2, 41280, Note_on_c, 0, 82, 0
2, 41280, Note_on_c, 0, 82, 96
2, 41376, Note_on_c, 0, 82, 0
2, 41376, Note_on_c, 0, 81, 96
2, 41568, Note_on_c, 0, 81, 0
2, 41568, Note_on_c, 0, 79, 96
2, 41760, Note_on_c, 0, 79, 0
2, 41760, Note_on_c, 0, 77, 96
2, 41856, Note_on_c, 0, 77, 0
2, 41856, Note_on_c, 0, 74, 96
2, 41868, Note_on_c, 0, 74, 0
2, 41868, Note_on_c, 0, 76, 96
2, 41880, Note_on_c, 0, 76, 0
2, 41880, Note_on_c, 0, 74, 96
2, 41892, Note_on_c, 0, 74, 0
2, 41892, Note_on_c, 0, 76, 96
2, 41904, Note_on_c, 0, 76, 0
2, 41904, Note_on_c, 0, 74, 96
2, 41916, Note_on_c, 0, 74, 0
2, 41916, Note_on_c, 0, 76, 96
2, 41928, Note_on_c, 0, 76, 0
2, 41928, Note_on_c, 0, 74, 96
2, 41940, Note_on_c, 0, 74, 0
2, 41940, Note_on_c, 0, 76, 96
2, 41952, Note_on_c, 0, 76, 0
2, 41952, Note_on_c, 0, 74, 96
2, 41964, Note_on_c, 0, 74, 0
2, 41964, Note_on_c, 0, 76, 96
2, 41976, Note_on_c, 0, 76, 0
2, 41976, Note_on_c, 0, 74, 96
2, 41988, Note_on_c, 0, 74, 0
2, 41988, Note_on_c, 0, 76, 96
2, 42000, Note_on_c, 0, 76, 0
2, 42000, Note_on_c, 0, 74, 96
2, 42012, Note_on_c, 0, 74, 0
2, 42012, Note_on_c, 0, 76, 96
2, 42024, Note_on_c, 0, 76, 0
2, 42024, Note_on_c, 0, 74, 96
2, 42036, Note_on_c, 0, 74, 0
2, 42036, Note_on_c, 0, 76, 96
2, 42048, Note_on_c, 0, 76, 0
2, 42048, Note_on_c, 0, 74, 96
2, 42096, Note_on_c, 0, 74, 0
2, 42240, Note_on_c, 0, 74, 96
2, 42384, Note_on_c, 0, 74, 0
2, 42384, Note_on_c, 0, 78, 96
2, 42432, Note_on_c, 0, 78, 0
2, 42432, Note_on_c, 0, 76, 96
2, 42480, Note_on_c, 0, 76, 0
2, 42480, Note_on_c, 0, 73, 96
2, 42528, Note_on_c, 0, 73, 0
2, 42528, Note_on_c, 0, 71, 96
2, 42576, Note_on_c, 0, 71, 0
2, 42576, Note_on_c, 0, 69, 96
2, 42624, Note_on_c, 0, 69, 0
2, 42624, Note_on_c, 0, 81, 96
2, 42672, Note_on_c, 0, 81, 0
2, 42672, Note_on_c, 0, 81, 96
2, 42720, Note_on_c, 0, 81, 0
2, 42720, Note_on_c, 0, 81, 96
2, 42768, Note_on_c, 0, 81, 0
2, 42768, Note_on_c, 0, 81, 96
2, 42816, Note_on_c, 0, 81, 0
2, 42816, Note_on_c, 0, 81, 96
2, 42888, Note_on_c, 0, 81, 0
2, 42888, Note_on_c, 0, 83, 96
2, 42896, Note_on_c, 0, 83, 0
2, 42896, Note_on_c, 0, 81, 96
2, 42904, Note_on_c, 0, 81, 0
2, 42904, Note_on_c, 0, 79, 96
2, 42912, Note_on_c, 0, 79, 0
2, 42912, Note_on_c, 0, 78, 96
2, 42960, Note_on_c, 0, 78, 0
2, 43008, Note_on_c, 0, 86, 96
2, 43152, Note_on_c, 0, 86, 0
2, 43152, Note_on_c, 0, 78, 96
2, 43200, Note_on_c, 0, 78, 0
2, 43200, Note_on_c, 0, 76, 96
2, 43248, Note_on_c, 0, 76, 0
2, 43248, Note_on_c, 0, 79, 96
2, 43296, Note_on_c, 0, 79, 0
2, 43296, Note_on_c, 0, 83, 96
2, 43344, Note_on_c, 0, 83, 0
2, 43344, Note_on_c, 0, 83, 96
2, 43392, Note_on_c, 0, 83, 0
2, 43392, Note_on_c, 0, 79, 96
2, 43440, Note_on_c, 0, 79, 0
2, 43440, Note_on_c, 0, 76, 96
2, 43488, Note_on_c, 0, 76, 0
2, 43488, Note_on_c, 0, 73, 96
2, 43536, Note_on_c, 0, 73, 0
2, 43536, Note_on_c, 0, 73, 96
2, 43584, Note_on_c, 0, 73, 0
2, 43584, Note_on_c, 0, 74, 96
2, 43632, Note_on_c, 0, 74, 0
2, 43632, Note_on_c, 0, 69, 96
2, 43680, Note_on_c, 0, 69, 0
2, 43680, Note_on_c, 0, 66, 96
2, 43728, Note_on_c, 0, 66, 0
2, 43728, Note_on_c, 0, 66, 96
2, 43776, Note_on_c, 0, 66, 0
2, 43776, Note_on_c, 0, 74, 96
2, 43920, Note_on_c, 0, 74, 0
2, 43920, Note_on_c, 0, 78, 96
2, 43968, Note_on_c, 0, 78, 0
2, 43968, Note_on_c, 0, 76, 96
2, 44016, Note_on_c, 0, 76, 0
2, 44016, Note_on_c, 0, 73, 96
2, 44064, Note_on_c, 0, 73, 0
2, 44064, Note_on_c, 0, 71, 96
2, 44112, Note_on_c, 0, 71, 0
2, 44112, Note_on_c, 0, 69, 96
2, 44160, Note_on_c, 0, 69, 0
2, 44160, Note_on_c, 0, 81, 96
2, 44208, Note_on_c, 0, 81, 0
2, 44208, Note_on_c, 0, 81, 96
2, 44256, Note_on_c, 0, 81, 0
2, 44256, Note_on_c, 0, 81, 96
2, 44304, Note_on_c, 0, 81, 0
2, 44304, Note_on_c, 0, 81, 96
2, 44352, Note_on_c, 0, 81, 0
2, 44352, Note_on_c, 0, 81, 96
2, 44424, Note_on_c, 0, 81, 0
2, 44424, Note_on_c, 0, 83, 96
2, 44432, Note_on_c, 0, 83, 0
2, 44432, Note_on_c, 0, 81, 96
2, 44440, Note_on_c, 0, 81, 0
2, 44440, Note_on_c, 0, 79, 96
2, 44448, Note_on_c, 0, 79, 0
2, 44448, Note_on_c, 0, 78, 96
2, 44496, Note_on_c, 0, 78, 0
2, 44544, Note_on_c, 0, 86, 96
2, 44688, Note_on_c, 0, 86, 0
2, 44688, Note_on_c, 0, 78, 96
2, 44736, Note_on_c, 0, 78, 0
2, 44736, Note_on_c, 0, 76, 96
2, 44784, Note_on_c, 0, 76, 0
2, 44784, Note_on_c, 0, 79, 96
2, 44832, Note_on_c, 0, 79, 0
2, 44832, Note_on_c, 0, 83, 96
2, 44880, Note_on_c, 0, 83, 0
2, 44880, Note_on_c, 0, 83, 96
2, 44928, Note_on_c, 0, 83, 0
2, 44928, Note_on_c, 0, 79, 96
2, 44976, Note_on_c, 0, 79, 0
2, 44976, Note_on_c, 0, 76, 96
2, 45024, Note_on_c, 0, 76, 0
2, 45024, Note_on_c, 0, 73, 96
2, 45072, Note_on_c, 0, 73, 0
2, 45072, Note_on_c, 0, 73, 96
2, 45120, Note_on_c, 0, 73, 0
2, 45120, Note_on_c, 0, 62, 96
2, 45144, Note_on_c, 0, 62, 0
2, 45144, Note_on_c, 0, 61, 96
2, 45168, Note_on_c, 0, 61, 0
2, 45168, Note_on_c, 0, 59, 96
2, 45192, Note_on_c, 0, 59, 0
2, 45192, Note_on_c, 0, 57, 96
2, 45216, Note_on_c, 0, 57, 0
2, 45216, Note_on_c, 0, 59, 96
2, 45240, Note_on_c, 0, 59, 0
2, 45240, Note_on_c, 0, 57, 96
2, 45264, Note_on_c, 0, 57, 0
2, 45264, Note_on_c, 0, 59, 96
2, 45288, Note_on_c, 0, 59, 0
2, 45288, Note_on_c, 0, 61, 96
2, 45312, Note_on_c, 0, 61, 0
2, 45312, Note_on_c, 0, 62, 96
2, 45336, Note_on_c, 0, 62, 0
2, 45336, Note_on_c, 0, 61, 96
2, 45360, Note_on_c, 0, 61, 0
2, 45360, Note_on_c, 0, 62, 96
2, 45384, Note_on_c, 0, 62, 0
2, 45384, Note_on_c, 0, 66, 96
2, 45408, Note_on_c, 0, 66, 0
2, 45408, Note_on_c, 0, 64, 96
2, 45432, Note_on_c, 0, 64, 0
2, 45432, Note_on_c, 0, 62, 96
2, 45456, Note_on_c, 0, 62, 0
2, 45456, Note_on_c, 0, 64, 96
2, 45480, Note_on_c, 0, 64, 0
2, 45480, Note_on_c, 0, 67, 96
2, 45504, Note_on_c, 0, 67, 0
2, 45504, Note_on_c, 0, 66, 96
2, 45528, Note_on_c, 0, 66, 0
2, 45528, Note_on_c, 0, 64, 96
2, 45552, Note_on_c, 0, 64, 0
2, 45552, Note_on_c, 0, 62, 96
2, 45576, Note_on_c, 0, 62, 0
2, 45576, Note_on_c, 0, 61, 96
2, 45600, Note_on_c, 0, 61, 0
2, 45600, Note_on_c, 0, 62, 96
2, 45624, Note_on_c, 0, 62, 0
2, 45624, Note_on_c, 0, 61, 96
2, 45648, Note_on_c, 0, 61, 0
2, 45648, Note_on_c, 0, 62, 96
2, 45672, Note_on_c, 0, 62, 0
2, 45672, Note_on_c, 0, 64, 96
2, 45696, Note_on_c, 0, 64, 0
2, 45696, Note_on_c, 0, 66, 96
2, 45720, Note_on_c, 0, 66, 0
2, 45720, Note_on_c, 0, 64, 96
2, 45744, Note_on_c, 0, 64, 0
2, 45744, Note_on_c, 0, 66, 96
2, 45768, Note_on_c, 0, 66, 0
2, 45768, Note_on_c, 0, 69, 96
2, 45792, Note_on_c, 0, 69, 0
2, 45792, Note_on_c, 0, 67, 96
2, 45816, Note_on_c, 0, 67, 0
2, 45816, Note_on_c, 0, 66, 96
2, 45840, Note_on_c, 0, 66, 0
2, 45840, Note_on_c, 0, 67, 96
2, 45864, Note_on_c, 0, 67, 0
2, 45864, Note_on_c, 0, 71, 96
2, 45888, Note_on_c, 0, 71, 0
2, 45888, Note_on_c, 0, 69, 96
2, 45912, Note_on_c, 0, 69, 0
2, 45912, Note_on_c, 0, 67, 96
2, 45936, Note_on_c, 0, 67, 0
2, 45936, Note_on_c, 0, 66, 96
2, 45960, Note_on_c, 0, 66, 0
2, 45960, Note_on_c, 0, 64, 96
2, 45984, Note_on_c, 0, 64, 0
2, 45984, Note_on_c, 0, 66, 96
2, 46008, Note_on_c, 0, 66, 0
2, 46008, Note_on_c, 0, 64, 96
2, 46032, Note_on_c, 0, 64, 0
2, 46032, Note_on_c, 0, 66, 96
2, 46056, Note_on_c, 0, 66, 0
2, 46056, Note_on_c, 0, 67, 96
2, 46080, Note_on_c, 0, 67, 0
2, 46080, Note_on_c, 0, 69, 96
2, 46104, Note_on_c, 0, 69, 0
2, 46104, Note_on_c, 0, 67, 96
2, 46128, Note_on_c, 0, 67, 0
2, 46128, Note_on_c, 0, 66, 96
2, 46152, Note_on_c, 0, 66, 0
2, 46152, Note_on_c, 0, 67, 96
2, 46176, Note_on_c, 0, 67, 0
2, 46176, Note_on_c, 0, 69, 96
2, 46200, Note_on_c, 0, 69, 0
2, 46200, Note_on_c, 0, 71, 96
2, 46224, Note_on_c, 0, 71, 0
2, 46224, Note_on_c, 0, 72, 96
2, 46248, Note_on_c, 0, 72, 0
2, 46248, Note_on_c, 0, 69, 96
2, 46272, Note_on_c, 0, 69, 0
2, 46272, Note_on_c, 0, 71, 96
2, 46296, Note_on_c, 0, 71, 0
2, 46296, Note_on_c, 0, 69, 96
2, 46320, Note_on_c, 0, 69, 0
2, 46320, Note_on_c, 0, 67, 96
2, 46344, Note_on_c, 0, 67, 0
2, 46344, Note_on_c, 0, 69, 96
2, 46368, Note_on_c, 0, 69, 0
2, 46368, Note_on_c, 0, 71, 96
2, 46392, Note_on_c, 0, 71, 0
2, 46392, Note_on_c, 0, 72, 96
2, 46416, Note_on_c, 0, 72, 0
2, 46416, Note_on_c, 0, 74, 96
2, 46440, Note_on_c, 0, 74, 0
2, 46440, Note_on_c, 0, 71, 96
2, 46464, Note_on_c, 0, 71, 0
2, 46464, Note_on_c, 0, 73, 96
2, 46488, Note_on_c, 0, 73, 0
2, 46488, Note_on_c, 0, 71, 96
2, 46512, Note_on_c, 0, 71, 0
2, 46512, Note_on_c, 0, 69, 96
2, 46536, Note_on_c, 0, 69, 0
2, 46536, Note_on_c, 0, 71, 96
2, 46560, Note_on_c, 0, 71, 0
2, 46560, Note_on_c, 0, 73, 96
2, 46584, Note_on_c, 0, 73, 0
2, 46584, Note_on_c, 0, 74, 96
2, 46608, Note_on_c, 0, 74, 0
2, 46608, Note_on_c, 0, 76, 96
2, 46632, Note_on_c, 0, 76, 0
2, 46632, Note_on_c, 0, 73, 96
2, 46656, Note_on_c, 0, 73, 0
2, 46656, Note_on_c, 0, 74, 96
2, 46680, Note_on_c, 0, 74, 0
2, 46680, Note_on_c, 0, 73, 96
2, 46704, Note_on_c, 0, 73, 0
2, 46704, Note_on_c, 0, 71, 96
2, 46728, Note_on_c, 0, 71, 0
2, 46728, Note_on_c, 0, 69, 96
2, 46752, Note_on_c, 0, 69, 0
2, 46752, Note_on_c, 0, 71, 96
2, 46776, Note_on_c, 0, 71, 0
2, 46776, Note_on_c, 0, 69, 96
2, 46800, Note_on_c, 0, 69, 0
2, 46800, Note_on_c, 0, 71, 96
2, 46824, Note_on_c, 0, 71, 0
2, 46824, Note_on_c, 0, 73, 96
2, 46848, Note_on_c, 0, 73, 0
2, 46848, Note_on_c, 0, 74, 96
2, 46872, Note_on_c, 0, 74, 0
2, 46872, Note_on_c, 0, 73, 96
2, 46896, Note_on_c, 0, 73, 0
2, 46896, Note_on_c, 0, 74, 96
2, 46920, Note_on_c, 0, 74, 0
2, 46920, Note_on_c, 0, 78, 96
2, 46944, Note_on_c, 0, 78, 0
2, 46944, Note_on_c, 0, 76, 96
2, 46968, Note_on_c, 0, 76, 0
2, 46968, Note_on_c, 0, 74, 96
2, 46992, Note_on_c, 0, 74, 0
2, 46992, Note_on_c, 0, 76, 96
2, 47016, Note_on_c, 0, 76, 0
2, 47016, Note_on_c, 0, 79, 96
2, 47040, Note_on_c, 0, 79, 0
2, 47040, Note_on_c, 0, 78, 96
2, 47064, Note_on_c, 0, 78, 0
2, 47064, Note_on_c, 0, 76, 96
2, 47088, Note_on_c, 0, 76, 0
2, 47088, Note_on_c, 0, 74, 96
2, 47112, Note_on_c, 0, 74, 0
2, 47112, Note_on_c, 0, 73, 96
2, 47136, Note_on_c, 0, 73, 0
2, 47136, Note_on_c, 0, 74, 96
2, 47160, Note_on_c, 0, 74, 0
2, 47160, Note_on_c, 0, 73, 96
2, 47184, Note_on_c, 0, 73, 0
2, 47184, Note_on_c, 0, 74, 96
2, 47208, Note_on_c, 0, 74, 0
2, 47208, Note_on_c, 0, 76, 96
2, 47232, Note_on_c, 0, 76, 0
2, 47232, Note_on_c, 0, 78, 96
2, 47256, Note_on_c, 0, 78, 0
2, 47256, Note_on_c, 0, 76, 96
2, 47280, Note_on_c, 0, 76, 0
2, 47280, Note_on_c, 0, 78, 96
2, 47304, Note_on_c, 0, 78, 0
2, 47304, Note_on_c, 0, 81, 96
2, 47328, Note_on_c, 0, 81, 0
2, 47328, Note_on_c, 0, 79, 96
2, 47352, Note_on_c, 0, 79, 0
2, 47352, Note_on_c, 0, 78, 96
2, 47376, Note_on_c, 0, 78, 0
2, 47376, Note_on_c, 0, 79, 96
2, 47400, Note_on_c, 0, 79, 0
2, 47400, Note_on_c, 0, 83, 96
2, 47424, Note_on_c, 0, 83, 0
2, 47424, Note_on_c, 0, 81, 96
2, 47448, Note_on_c, 0, 81, 0
2, 47448, Note_on_c, 0, 79, 96
2, 47472, Note_on_c, 0, 79, 0
2, 47472, Note_on_c, 0, 78, 96
2, 47496, Note_on_c, 0, 78, 0
2, 47496, Note_on_c, 0, 76, 96
2, 47520, Note_on_c, 0, 76, 0
2, 47520, Note_on_c, 0, 78, 96
2, 47544, Note_on_c, 0, 78, 0
2, 47544, Note_on_c, 0, 76, 96
2, 47568, Note_on_c, 0, 76, 0
2, 47568, Note_on_c, 0, 78, 96
2, 47592, Note_on_c, 0, 78, 0
2, 47592, Note_on_c, 0, 79, 96
2, 47616, Note_on_c, 0, 79, 0
2, 47616, Note_on_c, 0, 81, 96
2, 47640, Note_on_c, 0, 81, 0
2, 47640, Note_on_c, 0, 79, 96
2, 47664, Note_on_c, 0, 79, 0
2, 47664, Note_on_c, 0, 78, 96
2, 47688, Note_on_c, 0, 78, 0
2, 47688, Note_on_c, 0, 79, 96
2, 47712, Note_on_c, 0, 79, 0
2, 47712, Note_on_c, 0, 81, 96
2, 47736, Note_on_c, 0, 81, 0
2, 47736, Note_on_c, 0, 83, 96
2, 47760, Note_on_c, 0, 83, 0
2, 47760, Note_on_c, 0, 84, 96
2, 47784, Note_on_c, 0, 84, 0
2, 47784, Note_on_c, 0, 81, 96
2, 47808, Note_on_c, 0, 81, 0
2, 47808, Note_on_c, 0, 83, 96
2, 47832, Note_on_c, 0, 83, 0
2, 47832, Note_on_c, 0, 74, 96
2, 47856, Note_on_c, 0, 74, 0
2, 47856, Note_on_c, 0, 83, 96
2, 47880, Note_on_c, 0, 83, 0
2, 47880, Note_on_c, 0, 74, 96
2, 47904, Note_on_c, 0, 74, 0
2, 47904, Note_on_c, 0, 81, 96
2, 47928, Note_on_c, 0, 81, 0
2, 47928, Note_on_c, 0, 74, 96
2, 47952, Note_on_c, 0, 74, 0
2, 47952, Note_on_c, 0, 81, 96
2, 47976, Note_on_c, 0, 81, 0
2, 47976, Note_on_c, 0, 74, 96
2, 48000, Note_on_c, 0, 74, 0
2, 48000, Note_on_c, 0, 83, 96
2, 48024, Note_on_c, 0, 83, 0
2, 48024, Note_on_c, 0, 74, 96
2, 48048, Note_on_c, 0, 74, 0
2, 48048, Note_on_c, 0, 83, 96
2, 48072, Note_on_c, 0, 83, 0
2, 48072, Note_on_c, 0, 74, 96
2, 48096, Note_on_c, 0, 74, 0
2, 48096, Note_on_c, 0, 85, 96
2, 48120, Note_on_c, 0, 85, 0
2, 48120, Note_on_c, 0, 76, 96
2, 48144, Note_on_c, 0, 76, 0
2, 48144, Note_on_c, 0, 85, 96
2, 48168, Note_on_c, 0, 85, 0
2, 48168, Note_on_c, 0, 76, 96
2, 48192, Note_on_c, 0, 76, 0
2, 48192, Note_on_c, 0, 86, 96
2, 48216, Note_on_c, 0, 86, 0
2, 48216, Note_on_c, 0, 74, 96
2, 48240, Note_on_c, 0, 74, 0
2, 48240, Note_on_c, 0, 86, 96
2, 48264, Note_on_c, 0, 86, 0
2, 48264, Note_on_c, 0, 74, 96
2, 48288, Note_on_c, 0, 74, 0
2, 48288, Note_on_c, 0, 86, 96
2, 48312, Note_on_c, 0, 86, 0
2, 48312, Note_on_c, 0, 74, 96
2, 48336, Note_on_c, 0, 74, 0
2, 48336, Note_on_c, 0, 86, 96
2, 48360, Note_on_c, 0, 86, 0
2, 48360, Note_on_c, 0, 74, 96
2, 48384, Note_on_c, 0, 74, 0
2, 48384, Note_on_c, 0, 86, 96
2, 48408, Note_on_c, 0, 86, 0
2, 48408, Note_on_c, 0, 74, 96
2, 48432, Note_on_c, 0, 74, 0
2, 48432, Note_on_c, 0, 86, 96
2, 48456, Note_on_c, 0, 86, 0
2, 48456, Note_on_c, 0, 74, 96
2, 48480, Note_on_c, 0, 74, 0
2, 48480, Note_on_c, 0, 86, 96
2, 48504, Note_on_c, 0, 86, 0
2, 48504, Note_on_c, 0, 74, 96
2, 48528, Note_on_c, 0, 74, 0
2, 48528, Note_on_c, 0, 86, 96
2, 48552, Note_on_c, 0, 86, 0
2, 48552, Note_on_c, 0, 74, 96
2, 48576, Note_on_c, 0, 74, 0
2, 48576, Note_on_c, 0, 86, 96
2, 48600, Note_on_c, 0, 86, 0
2, 48600, Note_on_c, 0, 74, 96
2, 48624, Note_on_c, 0, 74, 0
2, 48624, Note_on_c, 0, 86, 96
2, 48648, Note_on_c, 0, 86, 0
2, 48648, Note_on_c, 0, 74, 96
2, 48672, Note_on_c, 0, 74, 0
2, 48672, Note_on_c, 0, 86, 96
2, 48696, Note_on_c, 0, 86, 0
2, 48696, Note_on_c, 0, 74, 96
2, 48720, Note_on_c, 0, 74, 0
2, 48720, Note_on_c, 0, 86, 96
2, 48744, Note_on_c, 0, 86, 0
2, 48744, Note_on_c, 0, 74, 96
2, 48768, Note_on_c, 0, 74, 0
2, 48768, Note_on_c, 0, 86, 96
2, 48792, Note_on_c, 0, 86, 0
2, 48792, Note_on_c, 0, 74, 96
2, 48816, Note_on_c, 0, 74, 0
2, 48816, Note_on_c, 0, 86, 96
2, 48840, Note_on_c, 0, 86, 0
2, 48840, Note_on_c, 0, 74, 96
2, 48864, Note_on_c, 0, 74, 0
2, 48864, Note_on_c, 0, 86, 96
2, 48888, Note_on_c, 0, 86, 0
2, 48888, Note_on_c, 0, 74, 96
2, 48912, Note_on_c, 0, 74, 0
2, 48912, Note_on_c, 0, 86, 96
2, 48936, Note_on_c, 0, 86, 0
2, 48936, Note_on_c, 0, 74, 96
2, 48960, Note_on_c, 0, 74, 0
2, 48960, Note_on_c, 0, 86, 96
2, 48984, Note_on_c, 0, 86, 0
2, 48984, Note_on_c, 0, 81, 96
2, 49008, Note_on_c, 0, 81, 0
2, 49008, Note_on_c, 0, 81, 96
2, 49032, Note_on_c, 0, 81, 0
2, 49032, Note_on_c, 0, 81, 96
2, 49056, Note_on_c, 0, 81, 0
2, 49056, Note_on_c, 0, 81, 96
2, 49080, Note_on_c, 0, 81, 0
2, 49080, Note_on_c, 0, 81, 96
2, 49104, Note_on_c, 0, 81, 0
2, 49104, Note_on_c, 0, 85, 96
2, 49128, Note_on_c, 0, 85, 0
2, 49128, Note_on_c, 0, 81, 96
2, 49152, Note_on_c, 0, 81, 0
2, 49152, Note_on_c, 0, 86, 96
2, 49176, Note_on_c, 0, 86, 0
2, 49176, Note_on_c, 0, 81, 96
2, 49200, Note_on_c, 0, 81, 0
2, 49200, Note_on_c, 0, 81, 96
2, 49224, Note_on_c, 0, 81, 0
2, 49224, Note_on_c, 0, 81, 96
2, 49248, Note_on_c, 0, 81, 0
2, 49248, Note_on_c, 0, 81, 96
2, 49272, Note_on_c, 0, 81, 0
2, 49272, Note_on_c, 0, 81, 96
2, 49296, Note_on_c, 0, 81, 0
2, 49296, Note_on_c, 0, 85, 96
2, 49320, Note_on_c, 0, 85, 0
2, 49320, Note_on_c, 0, 81, 96
2, 49344, Note_on_c, 0, 81, 0
2, 49344, Note_on_c, 0, 86, 96
2, 49368, Note_on_c, 0, 86, 0
2, 49368, Note_on_c, 0, 81, 96
2, 49392, Note_on_c, 0, 81, 0
2, 49392, Note_on_c, 0, 81, 96
2, 49416, Note_on_c, 0, 81, 0
2, 49416, Note_on_c, 0, 81, 96
2, 49440, Note_on_c, 0, 81, 0
2, 49440, Note_on_c, 0, 81, 96
2, 49464, Note_on_c, 0, 81, 0
2, 49464, Note_on_c, 0, 81, 96
2, 49488, Note_on_c, 0, 81, 0
2, 49488, Note_on_c, 0, 85, 96
2, 49512, Note_on_c, 0, 85, 0
2, 49512, Note_on_c, 0, 81, 96
2, 49536, Note_on_c, 0, 81, 0
2, 49536, Note_on_c, 0, 86, 96
2, 49560, Note_on_c, 0, 86, 0
2, 49560, Note_on_c, 0, 81, 96
2, 49584, Note_on_c, 0, 81, 0
2, 49584, Note_on_c, 0, 85, 96
2, 49608, Note_on_c, 0, 85, 0
2, 49608, Note_on_c, 0, 81, 96
2, 49632, Note_on_c, 0, 81, 0
2, 49632, Note_on_c, 0, 86, 96
2, 49656, Note_on_c, 0, 86, 0
2, 49656, Note_on_c, 0, 81, 96
2, 49680, Note_on_c, 0, 81, 0
2, 49680, Note_on_c, 0, 85, 96
2, 49704, Note_on_c, 0, 85, 0
2, 49704, Note_on_c, 0, 81, 96
2, 49728, Note_on_c, 0, 81, 0
2, 49728, Note_on_c, 0, 86, 96
2, 49752, Note_on_c, 0, 86, 0
2, 49752, Note_on_c, 0, 85, 96
2, 49776, Note_on_c, 0, 85, 0
2, 49776, Note_on_c, 0, 83, 96
2, 49800, Note_on_c, 0, 83, 0
2, 49800, Note_on_c, 0, 81, 96
2, 49824, Note_on_c, 0, 81, 0
2, 49824, Note_on_c, 0, 79, 96
2, 49848, Note_on_c, 0, 79, 0
2, 49848, Note_on_c, 0, 78, 96
2, 49872, Note_on_c, 0, 78, 0
2, 49872, Note_on_c, 0, 76, 96
2, 49896, Note_on_c, 0, 76, 0
2, 49896, Note_on_c, 0, 74, 96
2, 49920, Note_on_c, 0, 74, 0
2, 49920, Note_on_c, 0, 73, 96
2, 49944, Note_on_c, 0, 73, 0
2, 49944, Note_on_c, 0, 71, 96
2, 49968, Note_on_c, 0, 71, 0
2, 49968, Note_on_c, 0, 69, 96
2, 49992, Note_on_c, 0, 69, 0
2, 49992, Note_on_c, 0, 67, 96
2, 50016, Note_on_c, 0, 67, 0
2, 50016, Note_on_c, 0, 66, 96
2, 50040, Note_on_c, 0, 66, 0
2, 50040, Note_on_c, 0, 64, 96
2, 50064, Note_on_c, 0, 64, 0
2, 50064, Note_on_c, 0, 62, 96
2, 50088, Note_on_c, 0, 62, 0
2, 50088, Note_on_c, 0, 61, 96
2, 50112, Note_on_c, 0, 61, 0
2, 50112, Note_on_c, 0, 74, 96
2, 50136, Note_on_c, 0, 74, 0
2, 50136, Note_on_c, 0, 73, 96
2, 50160, Note_on_c, 0, 73, 0
2, 50160, Note_on_c, 0, 71, 96
2, 50184, Note_on_c, 0, 71, 0
2, 50184, Note_on_c, 0, 69, 96
2, 50208, Note_on_c, 0, 69, 0
2, 50208, Note_on_c, 0, 67, 96
2, 50232, Note_on_c, 0, 67, 0
2, 50232, Note_on_c, 0, 66, 96
2, 50256, Note_on_c, 0, 66, 0
2, 50256, Note_on_c, 0, 64, 96
2, 50280, Note_on_c, 0, 64, 0
2, 50280, Note_on_c, 0, 62, 96
2, 50304, Note_on_c, 0, 62, 0
2, 50304, Note_on_c, 0, 79, 96
2, 50328, Note_on_c, 0, 79, 0
2, 50328, Note_on_c, 0, 78, 96
2, 50352, Note_on_c, 0, 78, 0
2, 50352, Note_on_c, 0, 76, 96
2, 50376, Note_on_c, 0, 76, 0
2, 50376, Note_on_c, 0, 74, 96
2, 50400, Note_on_c, 0, 74, 0
2, 50400, Note_on_c, 0, 73, 96
2, 50424, Note_on_c, 0, 73, 0
2, 50424, Note_on_c, 0, 71, 96
2, 50448, Note_on_c, 0, 71, 0
2, 50448, Note_on_c, 0, 69, 96
2, 50472, Note_on_c, 0, 69, 0
2, 50472, Note_on_c, 0, 67, 96
2, 50496, Note_on_c, 0, 67, 0
2, 50496, Note_on_c, 0, 66, 96
2, 50544, Note_on_c, 0, 66, 0
2, 50592, Note_on_c, 0, 86, 96
2, 50640, Note_on_c, 0, 86, 0
2, 50688, Note_on_c, 0, 83, 96
2, 50736, Note_on_c, 0, 83, 0
2, 50784, Note_on_c, 0, 81, 96
2, 50832, Note_on_c, 0, 81, 0
2, 50880, Note_on_c, 0, 86, 96
2, 50904, Note_on_c, 0, 86, 0
2, 50904, Note_on_c, 0, 74, 96
2, 50928, Note_on_c, 0, 74, 0
2, 50928, Note_on_c, 0, 86, 96
2, 50952, Note_on_c, 0, 86, 0
2, 50952, Note_on_c, 0, 74, 96
2, 50976, Note_on_c, 0, 74, 0
2, 50976, Note_on_c, 0, 86, 96
2, 51000, Note_on_c, 0, 86, 0
2, 51000, Note_on_c, 0, 74, 96
2, 51024, Note_on_c, 0, 74, 0
2, 51024, Note_on_c, 0, 86, 96
2, 51048, Note_on_c, 0, 86, 0
2, 51048, Note_on_c, 0, 74, 96
2, 51072, Note_on_c, 0, 74, 0
2, 51072, Note_on_c, 0, 86, 96
2, 51096, Note_on_c, 0, 86, 0
2, 51096, Note_on_c, 0, 74, 96
2, 51120, Note_on_c, 0, 74, 0
2, 51120, Note_on_c, 0, 86, 96
2, 51144, Note_on_c, 0, 86, 0
2, 51144, Note_on_c, 0, 74, 96
2, 51168, Note_on_c, 0, 74, 0
2, 51168, Note_on_c, 0, 86, 96
2, 51192, Note_on_c, 0, 86, 0
2, 51192, Note_on_c, 0, 74, 96
2, 51216, Note_on_c, 0, 74, 0
2, 51216, Note_on_c, 0, 86, 96
2, 51240, Note_on_c, 0, 86, 0
2, 51240, Note_on_c, 0, 74, 96
2, 51264, Note_on_c, 0, 74, 0
2, 51264, Note_on_c, 0, 86, 96
2, 51288, Note_on_c, 0, 86, 0
2, 51288, Note_on_c, 0, 74, 96
2, 51312, Note_on_c, 0, 74, 0
2, 51312, Note_on_c, 0, 86, 96
2, 51336, Note_on_c, 0, 86, 0
2, 51336, Note_on_c, 0, 74, 96
2, 51360, Note_on_c, 0, 74, 0
2, 51360, Note_on_c, 0, 86, 96
2, 51384, Note_on_c, 0, 86, 0
2, 51384, Note_on_c, 0, 74, 96
2, 51408, Note_on_c, 0, 74, 0
2, 51408, Note_on_c, 0, 86, 96
2, 51432, Note_on_c, 0, 86, 0
2, 51432, Note_on_c, 0, 74, 96
2, 51456, Note_on_c, 0, 74, 0
2, 51456, Note_on_c, 0, 86, 96
2, 51480, Note_on_c, 0, 86, 0
2, 51480, Note_on_c, 0, 74, 96
2, 51504, Note_on_c, 0, 74, 0
2, 51504, Note_on_c, 0, 86, 96
2, 51528, Note_on_c, 0, 86, 0
2, 51528, Note_on_c, 0, 74, 96
2, 51552, Note_on_c, 0, 74, 0
2, 51552, Note_on_c, 0, 86, 96
2, 51576, Note_on_c, 0, 86, 0
2, 51576, Note_on_c, 0, 74, 96
2, 51600, Note_on_c, 0, 74, 0
2, 51600, Note_on_c, 0, 86, 96
2, 51624, Note_on_c, 0, 86, 0
2, 51624, Note_on_c, 0, 74, 96
2, 51648, Note_on_c, 0, 74, 0
2, 51648, Note_on_c, 0, 86, 96
2, 51672, Note_on_c, 0, 86, 0
2, 51672, Note_on_c, 0, 81, 96
2, 51696, Note_on_c, 0, 81, 0
2, 51696, Note_on_c, 0, 81, 96
2, 51720, Note_on_c, 0, 81, 0
2, 51720, Note_on_c, 0, 81, 96
2, 51744, Note_on_c, 0, 81, 0
2, 51744, Note_on_c, 0, 81, 96
2, 51768, Note_on_c, 0, 81, 0
2, 51768, Note_on_c, 0, 81, 96
2, 51792, Note_on_c, 0, 81, 0
2, 51792, Note_on_c, 0, 85, 96
2, 51816, Note_on_c, 0, 85, 0
2, 51816, Note_on_c, 0, 81, 96
2, 51840, Note_on_c, 0, 81, 0
2, 51840, Note_on_c, 0, 86, 96
2, 51864, Note_on_c, 0, 86, 0
2, 51864, Note_on_c, 0, 81, 96
2, 51888, Note_on_c, 0, 81, 0
2, 51888, Note_on_c, 0, 81, 96
2, 51912, Note_on_c, 0, 81, 0
2, 51912, Note_on_c, 0, 81, 96
2, 51936, Note_on_c, 0, 81, 0
2, 51936, Note_on_c, 0, 81, 96
2, 51960, Note_on_c, 0, 81, 0
2, 51960, Note_on_c, 0, 81, 96
2, 51984, Note_on_c, 0, 81, 0
2, 51984, Note_on_c, 0, 85, 96
2, 52008, Note_on_c, 0, 85, 0
2, 52008, Note_on_c, 0, 81, 96
2, 52032, Note_on_c, 0, 81, 0
2, 52032, Note_on_c, 0, 86, 96
2, 52056, Note_on_c, 0, 86, 0
2, 52056, Note_on_c, 0, 81, 96
2, 52080, Note_on_c, 0, 81, 0
2, 52080, Note_on_c, 0, 81, 96
2, 52104, Note_on_c, 0, 81, 0
2, 52104, Note_on_c, 0, 81, 96
2, 52128, Note_on_c, 0, 81, 0
2, 52128, Note_on_c, 0, 81, 96
2, 52152, Note_on_c, 0, 81, 0
2, 52152, Note_on_c, 0, 81, 96
2, 52176, Note_on_c, 0, 81, 0
2, 52176, Note_on_c, 0, 85, 96
2, 52200, Note_on_c, 0, 85, 0
2, 52200, Note_on_c, 0, 81, 96
2, 52224, Note_on_c, 0, 81, 0
2, 52224, Note_on_c, 0, 86, 96
2, 52248, Note_on_c, 0, 86, 0
2, 52248, Note_on_c, 0, 81, 96
2, 52272, Note_on_c, 0, 81, 0
2, 52272, Note_on_c, 0, 81, 96
2, 52296, Note_on_c, 0, 81, 0
2, 52296, Note_on_c, 0, 81, 96
2, 52320, Note_on_c, 0, 81, 0
2, 52320, Note_on_c, 0, 81, 96
2, 52344, Note_on_c, 0, 81, 0
2, 52344, Note_on_c, 0, 81, 96
2, 52368, Note_on_c, 0, 81, 0
2, 52368, Note_on_c, 0, 85, 96
2, 52392, Note_on_c, 0, 85, 0
2, 52392, Note_on_c, 0, 81, 96
2, 52416, Note_on_c, 0, 81, 0
2, 52416, Note_on_c, 0, 86, 96
2, 52440, Note_on_c, 0, 86, 0
2, 52440, Note_on_c, 0, 85, 96
2, 52464, Note_on_c, 0, 85, 0
2, 52464, Note_on_c, 0, 83, 96
2, 52488, Note_on_c, 0, 83, 0
2, 52488, Note_on_c, 0, 81, 96
2, 52512, Note_on_c, 0, 81, 0
2, 52512, Note_on_c, 0, 79, 96
2, 52536, Note_on_c, 0, 79, 0
2, 52536, Note_on_c, 0, 78, 96
2, 52560, Note_on_c, 0, 78, 0
2, 52560, Note_on_c, 0, 76, 96
2, 52584, Note_on_c, 0, 76, 0
2, 52584, Note_on_c, 0, 74, 96
2, 52608, Note_on_c, 0, 74, 0
2, 52608, Note_on_c, 0, 73, 96
2, 52632, Note_on_c, 0, 73, 0
2, 52632, Note_on_c, 0, 71, 96
2, 52656, Note_on_c, 0, 71, 0
2, 52656, Note_on_c, 0, 69, 96
2, 52680, Note_on_c, 0, 69, 0
2, 52680, Note_on_c, 0, 67, 96
2, 52704, Note_on_c, 0, 67, 0
2, 52704, Note_on_c, 0, 66, 96
2, 52728, Note_on_c, 0, 66, 0
2, 52728, Note_on_c, 0, 64, 96
2, 52752, Note_on_c, 0, 64, 0
2, 52752, Note_on_c, 0, 62, 96
2, 52776, Note_on_c, 0, 62, 0
2, 52776, Note_on_c, 0, 61, 96
2, 52800, Note_on_c, 0, 61, 0
2, 52800, Note_on_c, 0, 74, 96
2, 52824, Note_on_c, 0, 74, 0
2, 52824, Note_on_c, 0, 73, 96
2, 52848, Note_on_c, 0, 73, 0
2, 52848, Note_on_c, 0, 71, 96
2, 52872, Note_on_c, 0, 71, 0
2, 52872, Note_on_c, 0, 69, 96
2, 52896, Note_on_c, 0, 69, 0
2, 52896, Note_on_c, 0, 67, 96
2, 52920, Note_on_c, 0, 67, 0
2, 52920, Note_on_c, 0, 66, 96
2, 52944, Note_on_c, 0, 66, 0
2, 52944, Note_on_c, 0, 64, 96
2, 52968, Note_on_c, 0, 64, 0
2, 52968, Note_on_c, 0, 62, 96
2, 52992, Note_on_c, 0, 62, 0
2, 52992, Note_on_c, 0, 79, 96
2, 53016, Note_on_c, 0, 79, 0
2, 53016, Note_on_c, 0, 78, 96
2, 53040, Note_on_c, 0, 78, 0
2, 53040, Note_on_c, 0, 76, 96
2, 53064, Note_on_c, 0, 76, 0
2, 53064, Note_on_c, 0, 74, 96
2, 53088, Note_on_c, 0, 74, 0
2, 53088, Note_on_c, 0, 73, 96
2, 53112, Note_on_c, 0, 73, 0
2, 53112, Note_on_c, 0, 71, 96
2, 53136, Note_on_c, 0, 71, 0
2, 53136, Note_on_c, 0, 69, 96
2, 53160, Note_on_c, 0, 69, 0
2, 53160, Note_on_c, 0, 67, 96
2, 53184, Note_on_c, 0, 67, 0
2, 53184, Note_on_c, 0, 66, 96
2, 53232, Note_on_c, 0, 66, 0
2, 53280, Note_on_c, 0, 86, 96
2, 53328, Note_on_c, 0, 86, 0
2, 53376, Note_on_c, 0, 83, 96
2, 53424, Note_on_c, 0, 83, 0
2, 53472, Note_on_c, 0, 81, 96
2, 53520, Note_on_c, 0, 81, 0
2, 53568, Note_on_c, 0, 74, 96
2, 53592, Note_on_c, 0, 74, 0
2, 53592, Note_on_c, 0, 73, 96
2, 53616, Note_on_c, 0, 73, 0
2, 53616, Note_on_c, 0, 71, 96
2, 53640, Note_on_c, 0, 71, 0
2, 53640, Note_on_c, 0, 69, 96
2, 53664, Note_on_c, 0, 69, 0
2, 53664, Note_on_c, 0, 67, 96
2, 53688, Note_on_c, 0, 67, 0
2, 53688, Note_on_c, 0, 66, 96
2, 53712, Note_on_c, 0, 66, 0
2, 53712, Note_on_c, 0, 64, 96
2, 53736, Note_on_c, 0, 64, 0
2, 53736, Note_on_c, 0, 62, 96
2, 53760, Note_on_c, 0, 62, 0
2, 53760, Note_on_c, 0, 79, 96
2, 53784, Note_on_c, 0, 79, 0
2, 53784, Note_on_c, 0, 78, 96
2, 53808, Note_on_c, 0, 78, 0
2, 53808, Note_on_c, 0, 76, 96
2, 53832, Note_on_c, 0, 76, 0
2, 53832, Note_on_c, 0, 74, 96
2, 53856, Note_on_c, 0, 74, 0
2, 53856, Note_on_c, 0, 73, 96
2, 53880, Note_on_c, 0, 73, 0
2, 53880, Note_on_c, 0, 71, 96
2, 53904, Note_on_c, 0, 71, 0
2, 53904, Note_on_c, 0, 69, 96
2, 53928, Note_on_c, 0, 69, 0
2, 53928, Note_on_c, 0, 67, 96
2, 53952, Note_on_c, 0, 67, 0
2, 53952, Note_on_c, 0, 66, 96
2, 54000, Note_on_c, 0, 66, 0
2, 54048, Note_on_c, 0, 86, 96
2, 54096, Note_on_c, 0, 86, 0
2, 54144, Note_on_c, 0, 83, 96
2, 54192, Note_on_c, 0, 83, 0
2, 54240, Note_on_c, 0, 81, 96
2, 54288, Note_on_c, 0, 81, 0
2, 54336, Note_on_c, 0, 78, 96
2, 54432, Note_on_c, 0, 78, 0
2, 54480, Note_on_c, 0, 81, 96
2, 54504, Note_on_c, 0, 81, 0
2, 54504, Note_on_c, 0, 81, 96
2, 54528, Note_on_c, 0, 81, 0
2, 54528, Note_on_c, 0, 81, 96
2, 54672, Note_on_c, 0, 81, 0
2, 54672, Note_on_c, 0, 86, 96
2, 54696, Note_on_c, 0, 86, 0
2, 54696, Note_on_c, 0, 86, 96
2, 54720, Note_on_c, 0, 86, 0
2, 54720, Note_on_c, 0, 86, 96
2, 54864, Note_on_c, 0, 86, 0
2, 54864, Note_on_c, 0, 78, 96
2, 54888, Note_on_c, 0, 78, 0
2, 54888, Note_on_c, 0, 78, 96
2, 54912, Note_on_c, 0, 78, 0
2, 54912, Note_on_c, 0, 78, 96
2, 55056, Note_on_c, 0, 78, 0
2, 55056, Note_on_c, 0, 81, 96
2, 55080, Note_on_c, 0, 81, 0
2, 55080, Note_on_c, 0, 81, 96
2, 55104, Note_on_c, 0, 81, 0
2, 55104, Note_on_c, 0, 81, 96
2, 55248, Note_on_c, 0, 81, 0
2, 55248, Note_on_c, 0, 69, 96
2, 55272, Note_on_c, 0, 69, 0
2, 55272, Note_on_c, 0, 69, 96
2, 55296, Note_on_c, 0, 69, 0
2, 55296, Note_on_c, 0, 69, 96
2, 55440, Note_on_c, 0, 69, 0
2, 55440, Note_on_c, 0, 74, 96
2, 55464, Note_on_c, 0, 74, 0
2, 55464, Note_on_c, 0, 74, 96
2, 55488, Note_on_c, 0, 74, 0
2, 55488, Note_on_c, 0, 74, 96
2, 55536, Note_on_c, 0, 74, 0
2, 55584, Note_on_c, 0, 86, 96
2, 55632, Note_on_c, 0, 86, 0
2, 55680, Note_on_c, 0, 86, 96
2, 55728, Note_on_c, 0, 86, 0
2, 55776, Note_on_c, 0, 86, 96
2, 55824, Note_on_c, 0, 86, 0
2, 55872, Note_on_c, 0, 86, 96
2, 55920, Note_on_c, 0, 86, 0
2, 56064, Note_on_c, 0, 86, 96
2, 56112, Note_on_c, 0, 86, 0
2, 56256, Note_on_c, 0, 86, 96
2, 56352, Note_on_c, 0, 86, 0
2, 56448, End_track
3, 0, Start_track
3, 0, Key_signature, 2, "major"
3, 0, Note_on_c, 0, 50, 96
3, 24, Note_on_c, 0, 50, 0
3, 24, Note_on_c, 0, 49, 96
3, 48, Note_on_c, 0, 49, 0
3, 48, Note_on_c, 0, 50, 96
3, 72, Note_on_c, 0, 50, 0
3, 72, Note_on_c, 0, 49, 96
3, 96, Note_on_c, 0, 49, 0
3, 96, Note_on_c, 0, 50, 96
3, 144, Note_on_c, 0, 50, 0
3, 192, Note_on_c, 0, 50, 96
3, 216, Note_on_c, 0, 50, 0
3, 216, Note_on_c, 0, 49, 96
3, 240, Note_on_c, 0, 49, 0
3, 240, Note_on_c, 0, 50, 96
3, 264, Note_on_c, 0, 50, 0
3, 264, Note_on_c, 0, 52, 96
3, 288, Note_on_c, 0, 52, 0
3, 288, Note_on_c, 0, 54, 96
3, 312, Note_on_c, 0, 54, 0
3, 312, Note_on_c, 0, 52, 96
3, 336, Note_on_c, 0, 52, 0
3, 336, Note_on_c, 0, 54, 96
3, 360, Note_on_c, 0, 54, 0
3, 360, Note_on_c, 0, 55, 96
3, 384, Note_on_c, 0, 55, 0
3, 384, Note_on_c, 0, 57, 96
3, 408, Note_on_c, 0, 57, 0
3, 408, Note_on_c, 0, 56, 96
3, 432, Note_on_c, 0, 56, 0
3, 432, Note_on_c, 0, 57, 96
3, 456, Note_on_c, 0, 57, 0
3, 456, Note_on_c, 0, 56, 96
3, 480, Note_on_c, 0, 56, 0
3, 480, Note_on_c, 0, 57, 96
3, 528, Note_on_c, 0, 57, 0
3, 576, Note_on_c, 0, 57, 96
3, 600, Note_on_c, 0, 57, 0
3, 600, Note_on_c, 0, 56, 96
3, 624, Note_on_c, 0, 56, 0
3, 624, Note_on_c, 0, 57, 96
3, 648, Note_on_c, 0, 57, 0
3, 648, Note_on_c, 0, 58, 96
3, 672, Note_on_c, 0, 58, 0
3, 672, Note_on_c, 0, 59, 96
3, 696, Note_on_c, 0, 59, 0
3, 696, Note_on_c, 0, 57, 96
3, 720, Note_on_c, 0, 57, 0
3, 720, Note_on_c, 0, 55, 96
3, 744, Note_on_c, 0, 55, 0
3, 744, Note_on_c, 0, 54, 96
3, 768, Note_on_c, 0, 54, 0
3, 768, Note_on_c, 0, 52, 96
3, 792, Note_on_c, 0, 52, 0
3, 792, Note_on_c, 0, 51, 96
3, 816, Note_on_c, 0, 51, 0
3, 816, Note_on_c, 0, 52, 96
3, 840, Note_on_c, 0, 52, 0
3, 840, Note_on_c, 0, 54, 96
3, 864, Note_on_c, 0, 54, 0
3, 864, Note_on_c, 0, 55, 96
3, 888, Note_on_c, 0, 55, 0
3, 888, Note_on_c, 0, 54, 96
3, 912, Note_on_c, 0, 54, 0
3, 912, Note_on_c, 0, 52, 96
3, 936, Note_on_c, 0, 52, 0
3, 936, Note_on_c, 0, 50, 96
3, 960, Note_on_c, 0, 50, 0
3, 960, Note_on_c, 0, 49, 96
3, 984, Note_on_c, 0, 49, 0
3, 984, Note_on_c, 0, 50, 96
3, 1008, Note_on_c, 0, 50, 0
3, 1008, Note_on_c, 0, 52, 96
3, 1032, Note_on_c, 0, 52, 0
3, 1032, Note_on_c, 0, 50, 96
3, 1056, Note_on_c, 0, 50, 0
3, 1056, Note_on_c, 0, 49, 96
3, 1080, Note_on_c, 0, 49, 0
3, 1080, Note_on_c, 0, 45, 96
3, 1104, Note_on_c, 0, 45, 0
3, 1104, Note_on_c, 0, 47, 96
3, 1128, Note_on_c, 0, 47, 0
3, 1128, Note_on_c, 0, 49, 96
3, 1152, Note_on_c, 0, 49, 0
3, 1152, Note_on_c, 0, 50, 96
3, 1176, Note_on_c, 0, 50, 0
3, 1176, Note_on_c, 0, 62, 96
3, 1200, Note_on_c, 0, 62, 0
3, 1200, Note_on_c, 0, 50, 96
3, 1224, Note_on_c, 0, 50, 0
3, 1224, Note_on_c, 0, 62, 96
3, 1248, Note_on_c, 0, 62, 0
3, 1248, Note_on_c, 0, 50, 96
3, 1272, Note_on_c, 0, 50, 0
3, 1272, Note_on_c, 0, 62, 96
3, 1296, Note_on_c, 0, 62, 0
3, 1296, Note_on_c, 0, 50, 96
3, 1320, Note_on_c, 0, 50, 0
3, 1320, Note_on_c, 0, 62, 96
3, 1344, Note_on_c, 0, 62, 0
3, 1344, Note_on_c, 0, 50, 96
3, 1368, Note_on_c, 0, 50, 0
3, 1368, Note_on_c, 0, 62, 96
3, 1392, Note_on_c, 0, 62, 0
3, 1392, Note_on_c, 0, 50, 96
3, 1416, Note_on_c, 0, 50, 0
3, 1416, Note_on_c, 0, 62, 96
3, 1440, Note_on_c, 0, 62, 0
3, 1440, Note_on_c, 0, 50, 96
3, 1464, Note_on_c, 0, 50, 0
3, 1464, Note_on_c, 0, 62, 96
3, 1488, Note_on_c, 0, 62, 0
3, 1488, Note_on_c, 0, 50, 96
3, 1512, Note_on_c, 0, 50, 0
3, 1512, Note_on_c, 0, 62, 96
3, 1536, Note_on_c, 0, 62, 0
3, 1536, Note_on_c, 0, 50, 96
3, 1560, Note_on_c, 0, 50, 0
3, 1560, Note_on_c, 0, 62, 96
3, 1584, Note_on_c, 0, 62, 0
3, 1584, Note_on_c, 0, 50, 96
3, 1608, Note_on_c, 0, 50, 0
3, 1608, Note_on_c, 0, 62, 96
3, 1632, Note_on_c, 0, 62, 0
3, 1632, Note_on_c, 0, 50, 96
3, 1656, Note_on_c, 0, 50, 0
3, 1656, Note_on_c, 0, 62, 96
3, 1680, Note_on_c, 0, 62, 0
3, 1680, Note_on_c, 0, 50, 96
3, 1704, Note_on_c, 0, 50, 0
3, 1704, Note_on_c, 0, 62, 96
3, 1728, Note_on_c, 0, 62, 0
3, 1728, Note_on_c, 0, 50, 96
3, 1752, Note_on_c, 0, 50, 0
3, 1752, Note_on_c, 0, 62, 96
3, 1776, Note_on_c, 0, 62, 0
3, 1776, Note_on_c, 0, 50, 96
3, 1800, Note_on_c, 0, 50, 0
3, 1800, Note_on_c, 0, 62, 96
3, 1824, Note_on_c, 0, 62, 0
3, 1824, Note_on_c, 0, 50, 96
3, 1848, Note_on_c, 0, 50, 0
3, 1848, Note_on_c, 0, 62, 96
3, 1872, Note_on_c, 0, 62, 0
3, 1872, Note_on_c, 0, 50, 96
3, 1896, Note_on_c, 0, 50, 0
3, 1896, Note_on_c, 0, 62, 96
3, 1920, Note_on_c, 0, 62, 0
3, 1920, Note_on_c, 0, 50, 96
3, 1944, Note_on_c, 0, 50, 0
3, 1944, Note_on_c, 0, 62, 96
3, 1968, Note_on_c, 0, 62, 0
3, 1968, Note_on_c, 0, 50, 96
3, 1992, Note_on_c, 0, 50, 0
3, 1992, Note_on_c, 0, 62, 96
3, 2016, Note_on_c, 0, 62, 0
3, 2016, Note_on_c, 0, 50, 96
3, 2040, Note_on_c, 0, 50, 0
3, 2040, Note_on_c, 0, 62, 96
3, 2064, Note_on_c, 0, 62, 0
3, 2064, Note_on_c, 0, 50, 96
3, 2088, Note_on_c, 0, 50, 0
3, 2088, Note_on_c, 0, 62, 96
3, 2112, Note_on_c, 0, 62, 0
3, 2112, Note_on_c, 0, 50, 96
3, 2136, Note_on_c, 0, 50, 0
3, 2136, Note_on_c, 0, 62, 96
3, 2160, Note_on_c, 0, 62, 0
3, 2160, Note_on_c, 0, 50, 96
3, 2184, Note_on_c, 0, 50, 0
3, 2184, Note_on_c, 0, 62, 96
3, 2208, Note_on_c, 0, 62, 0
3, 2208, Note_on_c, 0, 50, 96
3, 2232, Note_on_c, 0, 50, 0
3, 2232, Note_on_c, 0, 62, 96
3, 2256, Note_on_c, 0, 62, 0
3, 2256, Note_on_c, 0, 50, 96
3, 2280, Note_on_c, 0, 50, 0
3, 2280, Note_on_c, 0, 62, 96
3, 2304, Note_on_c, 0, 62, 0
3, 2304, Note_on_c, 0, 50, 96
3, 2328, Note_on_c, 0, 50, 0
3, 2328, Note_on_c, 0, 62, 96
3, 2352, Note_on_c, 0, 62, 0
3, 2352, Note_on_c, 0, 50, 96
3, 2376, Note_on_c, 0, 50, 0
3, 2376, Note_on_c, 0, 62, 96
3, 2400, Note_on_c, 0, 62, 0
3, 2400, Note_on_c, 0, 50, 96
3, 2424, Note_on_c, 0, 50, 0
3, 2424, Note_on_c, 0, 62, 96
3, 2448, Note_on_c, 0, 62, 0
3, 2448, Note_on_c, 0, 50, 96
3, 2472, Note_on_c, 0, 50, 0
3, 2472, Note_on_c, 0, 62, 96
3, 2496, Note_on_c, 0, 62, 0
3, 2496, Note_on_c, 0, 50, 96
3, 2520, Note_on_c, 0, 50, 0
3, 2520, Note_on_c, 0, 62, 96
3, 2544, Note_on_c, 0, 62, 0
3, 2544, Note_on_c, 0, 50, 96
3, 2568, Note_on_c, 0, 50, 0
3, 2568, Note_on_c, 0, 62, 96
3, 2592, Note_on_c, 0, 62, 0
3, 2592, Note_on_c, 0, 50, 96
3, 2616, Note_on_c, 0, 50, 0
3, 2616, Note_on_c, 0, 62, 96
3, 2640, Note_on_c, 0, 62, 0
3, 2640, Note_on_c, 0, 50, 96
3, 2664, Note_on_c, 0, 50, 0
3, 2664, Note_on_c, 0, 62, 96
3, 2688, Note_on_c, 0, 62, 0
3, 2688, Note_on_c, 0, 50, 96
3, 2712, Note_on_c, 0, 50, 0
3, 2712, Note_on_c, 0, 62, 96
3, 2736, Note_on_c, 0, 62, 0
3, 2736, Note_on_c, 0, 50, 96
3, 2760, Note_on_c, 0, 50, 0
3, 2760, Note_on_c, 0, 62, 96
3, 2784, Note_on_c, 0, 62, 0
3, 2784, Note_on_c, 0, 50, 96
3, 2808, Note_on_c, 0, 50, 0
3, 2808, Note_on_c, 0, 62, 96
3, 2832, Note_on_c, 0, 62, 0
3, 2832, Note_on_c, 0, 50, 96
3, 2856, Note_on_c, 0, 50, 0
3, 2856, Note_on_c, 0, 62, 96
3, 2880, Note_on_c, 0, 62, 0
3, 2880, Note_on_c, 0, 50, 96
3, 2928, Note_on_c, 0, 50, 0
3, 2976, Note_on_c, 0, 55, 96
3, 3024, Note_on_c, 0, 55, 0
3, 3072, Note_on_c, 0, 57, 96
3, 3120, Note_on_c, 0, 57, 0
3, 3168, Note_on_c, 0, 45, 96
3, 3216, Note_on_c, 0, 45, 0
3, 3264, Note_on_c, 0, 50, 96
3, 3288, Note_on_c, 0, 50, 0
3, 3288, Note_on_c, 0, 49, 96
3, 3312, Note_on_c, 0, 49, 0
3, 3312, Note_on_c, 0, 50, 96
3, 3336, Note_on_c, 0, 50, 0
3, 3336, Note_on_c, 0, 49, 96
3, 3360, Note_on_c, 0, 49, 0
3, 3360, Note_on_c, 0, 50, 96
3, 3408, Note_on_c, 0, 50, 0
3, 3456, Note_on_c, 0, 50, 96
3, 3480, Note_on_c, 0, 50, 0
3, 3480, Note_on_c, 0, 49, 96
3, 3504, Note_on_c, 0, 49, 0
3, 3504, Note_on_c, 0, 50, 96
3, 3528, Note_on_c, 0, 50, 0
3, 3528, Note_on_c, 0, 52, 96
3, 3552, Note_on_c, 0, 52, 0
3, 3552, Note_on_c, 0, 54, 96
3, 3576, Note_on_c, 0, 54, 0
3, 3576, Note_on_c, 0, 52, 96
3, 3600, Note_on_c, 0, 52, 0
3, 3600, Note_on_c, 0, 54, 96
3, 3624, Note_on_c, 0, 54, 0
3, 3624, Note_on_c, 0, 55, 96
3, 3648, Note_on_c, 0, 55, 0
3, 3648, Note_on_c, 0, 57, 96
3, 3672, Note_on_c, 0, 57, 0
3, 3672, Note_on_c, 0, 56, 96
3, 3696, Note_on_c, 0, 56, 0
3, 3696, Note_on_c, 0, 57, 96
3, 3720, Note_on_c, 0, 57, 0
3, 3720, Note_on_c, 0, 56, 96
3, 3744, Note_on_c, 0, 56, 0
3, 3744, Note_on_c, 0, 57, 96
3, 3792, Note_on_c, 0, 57, 0
3, 3840, Note_on_c, 0, 57, 96
3, 3864, Note_on_c, 0, 57, 0
3, 3864, Note_on_c, 0, 56, 96
3, 3888, Note_on_c, 0, 56, 0
3, 3888, Note_on_c, 0, 57, 96
3, 3912, Note_on_c, 0, 57, 0
3, 3912, Note_on_c, 0, 58, 96
3, 3936, Note_on_c, 0, 58, 0
3, 3936, Note_on_c, 0, 59, 96
3, 3960, Note_on_c, 0, 59, 0
3, 3960, Note_on_c, 0, 57, 96
3, 3984, Note_on_c, 0, 57, 0
3, 3984, Note_on_c, 0, 55, 96
3, 4008, Note_on_c, 0, 55, 0
3, 4008, Note_on_c, 0, 54, 96
3, 4032, Note_on_c, 0, 54, 0
3, 4032, Note_on_c, 0, 52, 96
3, 4056, Note_on_c, 0, 52, 0
3, 4056, Note_on_c, 0, 51, 96
3, 4080, Note_on_c, 0, 51, 0
3, 4080, Note_on_c, 0, 52, 96
3, 4104, Note_on_c, 0, 52, 0
3, 4104, Note_on_c, 0, 54, 96
3, 4128, Note_on_c, 0, 54, 0
3, 4128, Note_on_c, 0, 55, 96
3, 4152, Note_on_c, 0, 55, 0
3, 4152, Note_on_c, 0, 54, 96
3, 4176, Note_on_c, 0, 54, 0
3, 4176, Note_on_c, 0, 52, 96
3, 4200, Note_on_c, 0, 52, 0
3, 4200, Note_on_c, 0, 50, 96
3, 4224, Note_on_c, 0, 50, 0
3, 4224, Note_on_c, 0, 49, 96
3, 4248, Note_on_c, 0, 49, 0
3, 4248, Note_on_c, 0, 50, 96
3, 4272, Note_on_c, 0, 50, 0
3, 4272, Note_on_c, 0, 52, 96
3, 4296, Note_on_c, 0, 52, 0
3, 4296, Note_on_c, 0, 50, 96
3, 4320, Note_on_c, 0, 50, 0
3, 4320, Note_on_c, 0, 49, 96
3, 4344, Note_on_c, 0, 49, 0
3, 4344, Note_on_c, 0, 45, 96
3, 4368, Note_on_c, 0, 45, 0
3, 4368, Note_on_c, 0, 47, 96
3, 4392, Note_on_c, 0, 47, 0
3, 4392, Note_on_c, 0, 49, 96
3, 4416, Note_on_c, 0, 49, 0
3, 4416, Note_on_c, 0, 50, 96
3, 4440, Note_on_c, 0, 50, 0
3, 4440, Note_on_c, 0, 62, 96
3, 4464, Note_on_c, 0, 62, 0
3, 4464, Note_on_c, 0, 50, 96
3, 4488, Note_on_c, 0, 50, 0
3, 4488, Note_on_c, 0, 62, 96
3, 4512, Note_on_c, 0, 62, 0
3, 4512, Note_on_c, 0, 50, 96
3, 4536, Note_on_c, 0, 50, 0
3, 4536, Note_on_c, 0, 62, 96
3, 4560, Note_on_c, 0, 62, 0
3, 4560, Note_on_c, 0, 50, 96
3, 4584, Note_on_c, 0, 50, 0
3, 4584, Note_on_c, 0, 62, 96
3, 4608, Note_on_c, 0, 62, 0
3, 4608, Note_on_c, 0, 50, 96
3, 4632, Note_on_c, 0, 50, 0
3, 4632, Note_on_c, 0, 62, 96
3, 4656, Note_on_c, 0, 62, 0
3, 4656, Note_on_c, 0, 50, 96
3, 4680, Note_on_c, 0, 50, 0
3, 4680, Note_on_c, 0, 62, 96
3, 4704, Note_on_c, 0, 62, 0
3, 4704, Note_on_c, 0, 50, 96
3, 4728, Note_on_c, 0, 50, 0
3, 4728, Note_on_c, 0, 62, 96
3, 4752, Note_on_c, 0, 62, 0
3, 4752, Note_on_c, 0, 50, 96
3, 4776, Note_on_c, 0, 50, 0
3, 4776, Note_on_c, 0, 62, 96
3, 4800, Note_on_c, 0, 62, 0
3, 4800, Note_on_c, 0, 50, 96
3, 4824, Note_on_c, 0, 50, 0
3, 4824, Note_on_c, 0, 62, 96
3, 4848, Note_on_c, 0, 62, 0
3, 4848, Note_on_c, 0, 50, 96
3, 4872, Note_on_c, 0, 50, 0
3, 4872, Note_on_c, 0, 62, 96
3, 4896, Note_on_c, 0, 62, 0
3, 4896, Note_on_c, 0, 50, 96
3, 4920, Note_on_c, 0, 50, 0
3, 4920, Note_on_c, 0, 62, 96
3, 4944, Note_on_c, 0, 62, 0
3, 4944, Note_on_c, 0, 50, 96
3, 4968, Note_on_c, 0, 50, 0
3, 4968, Note_on_c, 0, 62, 96
3, 4992, Note_on_c, 0, 62, 0
3, 4992, Note_on_c, 0, 50, 96
3, 5016, Note_on_c, 0, 50, 0
3, 5016, Note_on_c, 0, 62, 96
3, 5040, Note_on_c, 0, 62, 0
3, 5040, Note_on_c, 0, 50, 96
3, 5064, Note_on_c, 0, 50, 0
3, 5064, Note_on_c, 0, 62, 96
3, 5088, Note_on_c, 0, 62, 0
3, 5088, Note_on_c, 0, 50, 96
3, 5112, Note_on_c, 0, 50, 0
3, 5112, Note_on_c, 0, 62, 96
3, 5136, Note_on_c, 0, 62, 0
3, 5136, Note_on_c, 0, 50, 96
3, 5160, Note_on_c, 0, 50, 0
3, 5160, Note_on_c, 0, 62, 96
3, 5184, Note_on_c, 0, 62, 0
3, 5184, Note_on_c, 0, 50, 96
3, 5208, Note_on_c, 0, 50, 0
3, 5208, Note_on_c, 0, 62, 96
3, 5232, Note_on_c, 0, 62, 0
3, 5232, Note_on_c, 0, 50, 96
3, 5256, Note_on_c, 0, 50, 0
3, 5256, Note_on_c, 0, 62, 96
3, 5280, Note_on_c, 0, 62, 0
3, 5280, Note_on_c, 0, 50, 96
3, 5304, Note_on_c, 0, 50, 0
3, 5304, Note_on_c, 0, 62, 96
3, 5328, Note_on_c, 0, 62, 0
3, 5328, Note_on_c, 0, 50, 96
3, 5352, Note_on_c, 0, 50, 0
3, 5352, Note_on_c, 0, 62, 96
3, 5376, Note_on_c, 0, 62, 0
3, 5376, Note_on_c, 0, 50, 96
3, 5400, Note_on_c, 0, 50, 0
3, 5400, Note_on_c, 0, 62, 96
3, 5424, Note_on_c, 0, 62, 0
3, 5424, Note_on_c, 0, 50, 96
3, 5448, Note_on_c, 0, 50, 0
3, 5448, Note_on_c, 0, 62, 96
3, 5472, Note_on_c, 0, 62, 0
3, 5472, Note_on_c, 0, 50, 96
3, 5496, Note_on_c, 0, 50, 0
3, 5496, Note_on_c, 0, 62, 96
3, 5520, Note_on_c, 0, 62, 0
3, 5520, Note_on_c, 0, 50, 96
3, 5544, Note_on_c, 0, 50, 0
3, 5544, Note_on_c, 0, 62, 96
3, 5568, Note_on_c, 0, 62, 0
3, 5568, Note_on_c, 0, 50, 96
3, 5592, Note_on_c, 0, 50, 0
3, 5592, Note_on_c, 0, 62, 96
3, 5616, Note_on_c, 0, 62, 0
3, 5616, Note_on_c, 0, 50, 96
3, 5640, Note_on_c, 0, 50, 0
3, 5640, Note_on_c, 0, 62, 96
3, 5664, Note_on_c, 0, 62, 0
3, 5664, Note_on_c, 0, 50, 96
3, 5688, Note_on_c, 0, 50, 0
3, 5688, Note_on_c, 0, 62, 96
3, 5712, Note_on_c, 0, 62, 0
3, 5712, Note_on_c, 0, 50, 96
3, 5736, Note_on_c, 0, 50, 0
3, 5736, Note_on_c, 0, 62, 96
3, 5760, Note_on_c, 0, 62, 0
3, 5760, Note_on_c, 0, 50, 96
3, 5784, Note_on_c, 0, 50, 0
3, 5784, Note_on_c, 0, 62, 96
3, 5808, Note_on_c, 0, 62, 0
3, 5808, Note_on_c, 0, 50, 96
3, 5832, Note_on_c, 0, 50, 0
3, 5832, Note_on_c, 0, 62, 96
3, 5856, Note_on_c, 0, 62, 0
3, 5856, Note_on_c, 0, 50, 96
3, 5880, Note_on_c, 0, 50, 0
3, 5880, Note_on_c, 0, 62, 96
3, 5904, Note_on_c, 0, 62, 0
3, 5904, Note_on_c, 0, 50, 96
3, 5928, Note_on_c, 0, 50, 0
3, 5928, Note_on_c, 0, 62, 96
3, 5952, Note_on_c, 0, 62, 0
3, 5952, Note_on_c, 0, 50, 96
3, 5976, Note_on_c, 0, 50, 0
3, 5976, Note_on_c, 0, 62, 96
3, 6000, Note_on_c, 0, 62, 0
3, 6000, Note_on_c, 0, 50, 96
3, 6024, Note_on_c, 0, 50, 0
3, 6024, Note_on_c, 0, 62, 96
3, 6048, Note_on_c, 0, 62, 0
3, 6048, Note_on_c, 0, 50, 96
3, 6072, Note_on_c, 0, 50, 0
3, 6072, Note_on_c, 0, 62, 96
3, 6096, Note_on_c, 0, 62, 0
3, 6096, Note_on_c, 0, 50, 96
3, 6120, Note_on_c, 0, 50, 0
3, 6120, Note_on_c, 0, 62, 96
3, 6144, Note_on_c, 0, 62, 0
3, 6144, Note_on_c, 0, 50, 96
3, 6192, Note_on_c, 0, 50, 0
3, 6240, Note_on_c, 0, 55, 96
3, 6288, Note_on_c, 0, 55, 0
3, 6336, Note_on_c, 0, 57, 96
3, 6384, Note_on_c, 0, 57, 0
3, 6432, Note_on_c, 0, 45, 96
3, 6480, Note_on_c, 0, 45, 0
3, 6528, Note_on_c, 0, 54, 96
3, 6552, Note_on_c, 0, 54, 0
3, 6552, Note_on_c, 0, 57, 96
3, 6576, Note_on_c, 0, 57, 0
3, 6576, Note_on_c, 0, 54, 96
3, 6600, Note_on_c, 0, 54, 0
3, 6600, Note_on_c, 0, 57, 96
3, 6624, Note_on_c, 0, 57, 0
3, 6624, Note_on_c, 0, 54, 96
3, 6648, Note_on_c, 0, 54, 0
3, 6648, Note_on_c, 0, 57, 96
3, 6672, Note_on_c, 0, 57, 0
3, 6672, Note_on_c, 0, 54, 96
3, 6696, Note_on_c, 0, 54, 0
3, 6696, Note_on_c, 0, 57, 96
3, 6720, Note_on_c, 0, 57, 0
3, 6720, Note_on_c, 0, 54, 96
3, 6744, Note_on_c, 0, 54, 0
3, 6744, Note_on_c, 0, 57, 96
3, 6768, Note_on_c, 0, 57, 0
3, 6768, Note_on_c, 0, 54, 96
3, 6792, Note_on_c, 0, 54, 0
3, 6792, Note_on_c, 0, 57, 96
3, 6816, Note_on_c, 0, 57, 0
3, 6816, Note_on_c, 0, 54, 96
3, 6840, Note_on_c, 0, 54, 0
3, 6840, Note_on_c, 0, 57, 96
3, 6864, Note_on_c, 0, 57, 0
3, 6864, Note_on_c, 0, 54, 96
3, 6888, Note_on_c, 0, 54, 0
3, 6888, Note_on_c, 0, 57, 96
3, 6912, Note_on_c, 0, 57, 0
3, 6912, Note_on_c, 0, 55, 96
3, 6936, Note_on_c, 0, 55, 0
3, 6936, Note_on_c, 0, 57, 96
3, 6960, Note_on_c, 0, 57, 0
3, 6960, Note_on_c, 0, 55, 96
3, 6984, Note_on_c, 0, 55, 0
3, 6984, Note_on_c, 0, 57, 96
3, 7008, Note_on_c, 0, 57, 0
3, 7008, Note_on_c, 0, 55, 96
3, 7032, Note_on_c, 0, 55, 0
3, 7032, Note_on_c, 0, 57, 96
3, 7056, Note_on_c, 0, 57, 0
3, 7056, Note_on_c, 0, 55, 96
3, 7080, Note_on_c, 0, 55, 0
3, 7080, Note_on_c, 0, 57, 96
3, 7104, Note_on_c, 0, 57, 0
3, 7104, Note_on_c, 0, 55, 96
3, 7128, Note_on_c, 0, 55, 0
3, 7128, Note_on_c, 0, 57, 96
3, 7152, Note_on_c, 0, 57, 0
3, 7152, Note_on_c, 0, 55, 96
3, 7176, Note_on_c, 0, 55, 0
3, 7176, Note_on_c, 0, 57, 96
3, 7200, Note_on_c, 0, 57, 0
3, 7200, Note_on_c, 0, 55, 96
3, 7224, Note_on_c, 0, 55, 0
3, 7224, Note_on_c, 0, 57, 96
3, 7248, Note_on_c, 0, 57, 0
3, 7248, Note_on_c, 0, 55, 96
3, 7272, Note_on_c, 0, 55, 0
3, 7272, Note_on_c, 0, 57, 96
3, 7296, Note_on_c, 0, 57, 0
3, 7296, Note_on_c, 0, 54, 96
3, 7320, Note_on_c, 0, 54, 0
3, 7320, Note_on_c, 0, 57, 96
3, 7344, Note_on_c, 0, 57, 0
3, 7344, Note_on_c, 0, 54, 96
3, 7368, Note_on_c, 0, 54, 0
3, 7368, Note_on_c, 0, 57, 96
3, 7392, Note_on_c, 0, 57, 0
3, 7392, Note_on_c, 0, 54, 96
3, 7416, Note_on_c, 0, 54, 0
3, 7416, Note_on_c, 0, 57, 96
3, 7440, Note_on_c, 0, 57, 0
3, 7440, Note_on_c, 0, 54, 96
3, 7464, Note_on_c, 0, 54, 0
3, 7464, Note_on_c, 0, 57, 96
3, 7488, Note_on_c, 0, 57, 0
3, 7488, Note_on_c, 0, 54, 96
3, 7512, Note_on_c, 0, 54, 0
3, 7512, Note_on_c, 0, 57, 96
3, 7536, Note_on_c, 0, 57, 0
3, 7536, Note_on_c, 0, 54, 96
3, 7560, Note_on_c, 0, 54, 0
3, 7560, Note_on_c, 0, 57, 96
3, 7584, Note_on_c, 0, 57, 0
3, 7584, Note_on_c, 0, 54, 96
3, 7608, Note_on_c, 0, 54, 0
3, 7608, Note_on_c, 0, 57, 96
3, 7632, Note_on_c, 0, 57, 0
3, 7632, Note_on_c, 0, 54, 96
3, 7656, Note_on_c, 0, 54, 0
3, 7656, Note_on_c, 0, 57, 96
3, 7680, Note_on_c, 0, 57, 0
3, 7680, Note_on_c, 0, 55, 96
3, 7704, Note_on_c, 0, 55, 0
3, 7704, Note_on_c, 0, 59, 96
3, 7728, Note_on_c, 0, 59, 0
3, 7728, Note_on_c, 0, 55, 96
3, 7752, Note_on_c, 0, 55, 0
3, 7752, Note_on_c, 0, 59, 96
3, 7776, Note_on_c, 0, 59, 0
3, 7776, Note_on_c, 0, 55, 96
3, 7800, Note_on_c, 0, 55, 0
3, 7800, Note_on_c, 0, 59, 96
3, 7824, Note_on_c, 0, 59, 0
3, 7824, Note_on_c, 0, 55, 96
3, 7848, Note_on_c, 0, 55, 0
3, 7848, Note_on_c, 0, 59, 96
3, 7872, Note_on_c, 0, 59, 0
3, 7872, Note_on_c, 0, 50, 96
3, 7896, Note_on_c, 0, 50, 0
3, 7896, Note_on_c, 0, 52, 96
3, 7920, Note_on_c, 0, 52, 0
3, 7920, Note_on_c, 0, 54, 96
3, 7944, Note_on_c, 0, 54, 0
3, 7944, Note_on_c, 0, 55, 96
3, 7968, Note_on_c, 0, 55, 0
3, 7968, Note_on_c, 0, 57, 96
3, 7992, Note_on_c, 0, 57, 0
3, 7992, Note_on_c, 0, 59, 96
3, 8016, Note_on_c, 0, 59, 0
3, 8016, Note_on_c, 0, 60, 96
3, 8040, Note_on_c, 0, 60, 0
3, 8040, Note_on_c, 0, 62, 96
3, 8064, Note_on_c, 0, 62, 0
3, 8064, Note_on_c, 0, 50, 96
3, 8088, Note_on_c, 0, 50, 0
3, 8088, Note_on_c, 0, 62, 96
3, 8112, Note_on_c, 0, 62, 0
3, 8112, Note_on_c, 0, 50, 96
3, 8136, Note_on_c, 0, 50, 0
3, 8136, Note_on_c, 0, 62, 96
3, 8160, Note_on_c, 0, 62, 0
3, 8160, Note_on_c, 0, 50, 96
3, 8184, Note_on_c, 0, 50, 0
3, 8184, Note_on_c, 0, 62, 96
3, 8208, Note_on_c, 0, 62, 0
3, 8208, Note_on_c, 0, 50, 96
3, 8232, Note_on_c, 0, 50, 0
3, 8232, Note_on_c, 0, 62, 96
3, 8256, Note_on_c, 0, 62, 0
3, 8256, Note_on_c, 0, 50, 96
3, 8280, Note_on_c, 0, 50, 0
3, 8280, Note_on_c, 0, 62, 96
3, 8304, Note_on_c, 0, 62, 0
3, 8304, Note_on_c, 0, 50, 96
3, 8328, Note_on_c, 0, 50, 0
3, 8328, Note_on_c, 0, 62, 96
3, 8352, Note_on_c, 0, 62, 0
3, 8352, Note_on_c, 0, 50, 96
3, 8376, Note_on_c, 0, 50, 0
3, 8376, Note_on_c, 0, 62, 96
3, 8400, Note_on_c, 0, 62, 0
3, 8400, Note_on_c, 0, 50, 96
3, 8424, Note_on_c, 0, 50, 0
3, 8424, Note_on_c, 0, 62, 96
3, 8448, Note_on_c, 0, 62, 0
3, 8448, Note_on_c, 0, 50, 96
3, 8544, Note_on_c, 0, 50, 0
3, 8592, Note_on_c, 0, 57, 96
3, 8640, Note_on_c, 0, 57, 0
3, 8640, Note_on_c, 0, 54, 96
3, 8688, Note_on_c, 0, 54, 0
3, 8688, Note_on_c, 0, 50, 96
3, 8736, Note_on_c, 0, 50, 0
3, 8784, Note_on_c, 0, 57, 96
3, 8832, Note_on_c, 0, 57, 0
3, 8832, Note_on_c, 0, 54, 96
3, 8880, Note_on_c, 0, 54, 0
3, 8880, Note_on_c, 0, 50, 96
3, 8928, Note_on_c, 0, 50, 0
3, 8976, Note_on_c, 0, 57, 96
3, 9024, Note_on_c, 0, 57, 0
3, 9024, Note_on_c, 0, 54, 96
3, 9072, Note_on_c, 0, 54, 0
3, 9072, Note_on_c, 0, 57, 96
3, 9120, Note_on_c, 0, 57, 0
3, 9120, Note_on_c, 0, 54, 96
3, 9168, Note_on_c, 0, 54, 0
3, 9168, Note_on_c, 0, 57, 96
3, 9216, Note_on_c, 0, 57, 0
3, 9216, Note_on_c, 0, 54, 96
3, 9264, Note_on_c, 0, 54, 0
3, 9312, Note_on_c, 0, 62, 96
3, 9336, Note_on_c, 0, 62, 0
3, 9336, Note_on_c, 0, 61, 96
3, 9360, Note_on_c, 0, 61, 0
3, 9360, Note_on_c, 0, 59, 96
3, 9384, Note_on_c, 0, 59, 0
3, 9384, Note_on_c, 0, 57, 96
3, 9408, Note_on_c, 0, 57, 0
3, 9408, Note_on_c, 0, 62, 96
3, 9432, Note_on_c, 0, 62, 0
3, 9432, Note_on_c, 0, 61, 96
3, 9456, Note_on_c, 0, 61, 0
3, 9456, Note_on_c, 0, 59, 96
3, 9480, Note_on_c, 0, 59, 0
3, 9480, Note_on_c, 0, 57, 96
3, 9504, Note_on_c, 0, 57, 0
3, 9504, Note_on_c, 0, 55, 96
3, 9528, Note_on_c, 0, 55, 0
3, 9528, Note_on_c, 0, 54, 96
3, 9552, Note_on_c, 0, 54, 0
3, 9552, Note_on_c, 0, 52, 96
3, 9576, Note_on_c, 0, 52, 0
3, 9576, Note_on_c, 0, 50, 96
3, 9600, Note_on_c, 0, 50, 0
3, 9600, Note_on_c, 0, 45, 96
3, 9624, Note_on_c, 0, 45, 0
3, 9624, Note_on_c, 0, 49, 96
3, 9648, Note_on_c, 0, 49, 0
3, 9648, Note_on_c, 0, 52, 96
3, 9672, Note_on_c, 0, 52, 0
3, 9672, Note_on_c, 0, 57, 96
3, 9696, Note_on_c, 0, 57, 0
3, 9696, Note_on_c, 0, 45, 96
3, 9720, Note_on_c, 0, 45, 0
3, 9720, Note_on_c, 0, 49, 96
3, 9744, Note_on_c, 0, 49, 0
3, 9744, Note_on_c, 0, 52, 96
3, 9768, Note_on_c, 0, 52, 0
3, 9768, Note_on_c, 0, 57, 96
3, 9792, Note_on_c, 0, 57, 0
3, 9792, Note_on_c, 0, 45, 96
3, 9816, Note_on_c, 0, 45, 0
3, 9816, Note_on_c, 0, 50, 96
3, 9840, Note_on_c, 0, 50, 0
3, 9840, Note_on_c, 0, 54, 96
3, 9864, Note_on_c, 0, 54, 0
3, 9864, Note_on_c, 0, 57, 96
3, 9888, Note_on_c, 0, 57, 0
3, 9888, Note_on_c, 0, 45, 96
3, 9912, Note_on_c, 0, 45, 0
3, 9912, Note_on_c, 0, 50, 96
3, 9936, Note_on_c, 0, 50, 0
3, 9936, Note_on_c, 0, 54, 96
3, 9960, Note_on_c, 0, 54, 0
3, 9960, Note_on_c, 0, 57, 96
3, 9984, Note_on_c, 0, 57, 0
3, 9984, Note_on_c, 0, 45, 96
3, 10008, Note_on_c, 0, 45, 0
3, 10008, Note_on_c, 0, 49, 96
3, 10032, Note_on_c, 0, 49, 0
3, 10032, Note_on_c, 0, 52, 96
3, 10056, Note_on_c, 0, 52, 0
3, 10056, Note_on_c, 0, 57, 96
3, 10080, Note_on_c, 0, 57, 0
3, 10080, Note_on_c, 0, 45, 96
3, 10104, Note_on_c, 0, 45, 0
3, 10104, Note_on_c, 0, 49, 96
3, 10128, Note_on_c, 0, 49, 0
3, 10128, Note_on_c, 0, 52, 96
3, 10152, Note_on_c, 0, 52, 0
3, 10152, Note_on_c, 0, 57, 96
3, 10176, Note_on_c, 0, 57, 0
3, 10176, Note_on_c, 0, 45, 96
3, 10200, Note_on_c, 0, 45, 0
3, 10200, Note_on_c, 0, 50, 96
3, 10224, Note_on_c, 0, 50, 0
3, 10224, Note_on_c, 0, 54, 96
3, 10248, Note_on_c, 0, 54, 0
3, 10248, Note_on_c, 0, 57, 96
3, 10272, Note_on_c, 0, 57, 0
3, 10272, Note_on_c, 0, 45, 96
3, 10296, Note_on_c, 0, 45, 0
3, 10296, Note_on_c, 0, 50, 96
3, 10320, Note_on_c, 0, 50, 0
3, 10320, Note_on_c, 0, 54, 96
3, 10344, Note_on_c, 0, 54, 0
3, 10344, Note_on_c, 0, 57, 96
3, 10368, Note_on_c, 0, 57, 0
3, 10368, Note_on_c, 0, 45, 96
3, 10392, Note_on_c, 0, 45, 0
3, 10392, Note_on_c, 0, 49, 96
3, 10416, Note_on_c, 0, 49, 0
3, 10416, Note_on_c, 0, 52, 96
3, 10440, Note_on_c, 0, 52, 0
3, 10440, Note_on_c, 0, 57, 96
3, 10464, Note_on_c, 0, 57, 0
3, 10464, Note_on_c, 0, 45, 96
3, 10488, Note_on_c, 0, 45, 0
3, 10488, Note_on_c, 0, 50, 96
3, 10512, Note_on_c, 0, 50, 0
3, 10512, Note_on_c, 0, 54, 96
3, 10536, Note_on_c, 0, 54, 0
3, 10536, Note_on_c, 0, 57, 96
3, 10560, Note_on_c, 0, 57, 0
3, 10560, Note_on_c, 0, 45, 96
3, 10584, Note_on_c, 0, 45, 0
3, 10584, Note_on_c, 0, 49, 96
3, 10608, Note_on_c, 0, 49, 0
3, 10608, Note_on_c, 0, 52, 96
3, 10632, Note_on_c, 0, 52, 0
3, 10632, Note_on_c, 0, 57, 96
3, 10656, Note_on_c, 0, 57, 0
3, 10656, Note_on_c, 0, 45, 96
3, 10680, Note_on_c, 0, 45, 0
3, 10680, Note_on_c, 0, 50, 96
3, 10704, Note_on_c, 0, 50, 0
3, 10704, Note_on_c, 0, 54, 96
3, 10728, Note_on_c, 0, 54, 0
3, 10728, Note_on_c, 0, 57, 96
3, 10752, Note_on_c, 0, 57, 0
3, 10752, Note_on_c, 0, 57, 96
3, 10800, Note_on_c, 0, 57, 0
3, 10800, Note_on_c, 0, 57, 96
3, 10824, Note_on_c, 0, 57, 0
3, 10824, Note_on_c, 0, 57, 96
3, 10848, Note_on_c, 0, 57, 0
3, 10848, Note_on_c, 0, 57, 96
3, 10896, Note_on_c, 0, 57, 0
3, 10896, Note_on_c, 0, 57, 96
3, 10944, Note_on_c, 0, 57, 0
3, 10944, Note_on_c, 0, 57, 96
3, 11040, Note_on_c, 0, 57, 0
3, 12288, Note_on_c, 0, 59, 96
3, 12432, Note_on_c, 0, 59, 0
3, 12480, Note_on_c, 0, 56, 96
3, 12672, Note_on_c, 0, 56, 0
3, 13824, Note_on_c, 0, 59, 96
3, 13968, Note_on_c, 0, 59, 0
3, 14016, Note_on_c, 0, 56, 96
3, 14208, Note_on_c, 0, 56, 0
3, 14208, Note_on_c, 0, 57, 96
3, 14232, Note_on_c, 0, 57, 0
3, 14232, Note_on_c, 0, 61, 96
3, 14256, Note_on_c, 0, 61, 0
3, 14256, Note_on_c, 0, 57, 96
3, 14280, Note_on_c, 0, 57, 0
3, 14280, Note_on_c, 0, 61, 96
3, 14304, Note_on_c, 0, 61, 0
3, 14304, Note_on_c, 0, 57, 96
3, 14328, Note_on_c, 0, 57, 0
3, 14328, Note_on_c, 0, 61, 96
3, 14352, Note_on_c, 0, 61, 0
3, 14352, Note_on_c, 0, 57, 96
3, 14376, Note_on_c, 0, 57, 0
3, 14376, Note_on_c, 0, 61, 96
3, 14400, Note_on_c, 0, 61, 0
3, 14400, Note_on_c, 0, 57, 96
3, 14424, Note_on_c, 0, 57, 0
3, 14424, Note_on_c, 0, 60, 96
3, 14448, Note_on_c, 0, 60, 0
3, 14448, Note_on_c, 0, 57, 96
3, 14472, Note_on_c, 0, 57, 0
3, 14472, Note_on_c, 0, 60, 96
3, 14496, Note_on_c, 0, 60, 0
3, 14496, Note_on_c, 0, 57, 96
3, 14520, Note_on_c, 0, 57, 0
3, 14520, Note_on_c, 0, 60, 96
3, 14544, Note_on_c, 0, 60, 0
3, 14544, Note_on_c, 0, 57, 96
3, 14568, Note_on_c, 0, 57, 0
3, 14568, Note_on_c, 0, 60, 96
3, 14592, Note_on_c, 0, 60, 0
3, 14592, Note_on_c, 0, 57, 96
3, 14616, Note_on_c, 0, 57, 0
3, 14616, Note_on_c, 0, 59, 96
3, 14640, Note_on_c, 0, 59, 0
3, 14640, Note_on_c, 0, 57, 96
3, 14664, Note_on_c, 0, 57, 0
3, 14664, Note_on_c, 0, 59, 96
3, 14688, Note_on_c, 0, 59, 0
3, 14688, Note_on_c, 0, 55, 96
3, 14712, Note_on_c, 0, 55, 0
3, 14712, Note_on_c, 0, 59, 96
3, 14736, Note_on_c, 0, 59, 0
3, 14736, Note_on_c, 0, 55, 96
3, 14760, Note_on_c, 0, 55, 0
3, 14760, Note_on_c, 0, 59, 96
3, 14784, Note_on_c, 0, 59, 0
3, 14784, Note_on_c, 0, 55, 96
3, 14808, Note_on_c, 0, 55, 0
3, 14808, Note_on_c, 0, 58, 96
3, 14832, Note_on_c, 0, 58, 0
3, 14832, Note_on_c, 0, 55, 96
3, 14856, Note_on_c, 0, 55, 0
3, 14856, Note_on_c, 0, 58, 96
3, 14880, Note_on_c, 0, 58, 0
3, 14880, Note_on_c, 0, 55, 96
3, 14904, Note_on_c, 0, 55, 0
3, 14904, Note_on_c, 0, 58, 96
3, 14928, Note_on_c, 0, 58, 0
3, 14928, Note_on_c, 0, 55, 96
3, 14952, Note_on_c, 0, 55, 0
3, 14952, Note_on_c, 0, 58, 96
3, 14976, Note_on_c, 0, 58, 0
3, 14976, Note_on_c, 0, 55, 96
3, 15000, Note_on_c, 0, 55, 0
3, 15000, Note_on_c, 0, 57, 96
3, 15024, Note_on_c, 0, 57, 0
3, 15024, Note_on_c, 0, 55, 96
3, 15048, Note_on_c, 0, 55, 0
3, 15048, Note_on_c, 0, 57, 96
3, 15072, Note_on_c, 0, 57, 0
3, 15072, Note_on_c, 0, 53, 96
3, 15096, Note_on_c, 0, 53, 0
3, 15096, Note_on_c, 0, 57, 96
3, 15120, Note_on_c, 0, 57, 0
3, 15120, Note_on_c, 0, 53, 96
3, 15144, Note_on_c, 0, 53, 0
3, 15144, Note_on_c, 0, 57, 96
3, 15168, Note_on_c, 0, 57, 0
3, 15168, Note_on_c, 0, 53, 96
3, 15192, Note_on_c, 0, 53, 0
3, 15192, Note_on_c, 0, 57, 96
3, 15216, Note_on_c, 0, 57, 0
3, 15216, Note_on_c, 0, 53, 96
3, 15240, Note_on_c, 0, 53, 0
3, 15240, Note_on_c, 0, 57, 96
3, 15264, Note_on_c, 0, 57, 0
3, 15264, Note_on_c, 0, 53, 96
3, 15288, Note_on_c, 0, 53, 0
3, 15288, Note_on_c, 0, 57, 96
3, 15312, Note_on_c, 0, 57, 0
3, 15312, Note_on_c, 0, 53, 96
3, 15336, Note_on_c, 0, 53, 0
3, 15336, Note_on_c, 0, 57, 96
3, 15360, Note_on_c, 0, 57, 0
3, 15360, Note_on_c, 0, 59, 96
3, 15384, Note_on_c, 0, 59, 0
3, 15384, Note_on_c, 0, 62, 96
3, 15408, Note_on_c, 0, 62, 0
3, 15408, Note_on_c, 0, 59, 96
3, 15432, Note_on_c, 0, 59, 0
3, 15432, Note_on_c, 0, 62, 96
3, 15456, Note_on_c, 0, 62, 0
3, 15456, Note_on_c, 0, 59, 96
3, 15480, Note_on_c, 0, 59, 0
3, 15480, Note_on_c, 0, 62, 96
3, 15504, Note_on_c, 0, 62, 0
3, 15504, Note_on_c, 0, 59, 96
3, 15528, Note_on_c, 0, 59, 0
3, 15528, Note_on_c, 0, 62, 96
3, 15552, Note_on_c, 0, 62, 0
3, 15552, Note_on_c, 0, 57, 96
3, 15576, Note_on_c, 0, 57, 0
3, 15576, Note_on_c, 0, 61, 96
3, 15600, Note_on_c, 0, 61, 0
3, 15600, Note_on_c, 0, 57, 96
3, 15624, Note_on_c, 0, 57, 0
3, 15624, Note_on_c, 0, 61, 96
3, 15648, Note_on_c, 0, 61, 0
3, 15648, Note_on_c, 0, 57, 96
3, 15672, Note_on_c, 0, 57, 0
3, 15672, Note_on_c, 0, 61, 96
3, 15696, Note_on_c, 0, 61, 0
3, 15696, Note_on_c, 0, 57, 96
3, 15720, Note_on_c, 0, 57, 0
3, 15720, Note_on_c, 0, 61, 96
3, 15744, Note_on_c, 0, 61, 0
3, 15744, Note_on_c, 0, 56, 96
3, 15768, Note_on_c, 0, 56, 0
3, 15768, Note_on_c, 0, 62, 96
3, 15792, Note_on_c, 0, 62, 0
3, 15792, Note_on_c, 0, 56, 96
3, 15816, Note_on_c, 0, 56, 0
3, 15816, Note_on_c, 0, 62, 96
3, 15840, Note_on_c, 0, 62, 0
3, 15840, Note_on_c, 0, 56, 96
3, 15864, Note_on_c, 0, 56, 0
3, 15864, Note_on_c, 0, 62, 96
3, 15888, Note_on_c, 0, 62, 0
3, 15888, Note_on_c, 0, 56, 96
3, 15912, Note_on_c, 0, 56, 0
3, 15912, Note_on_c, 0, 62, 96
3, 15936, Note_on_c, 0, 62, 0
3, 15936, Note_on_c, 0, 57, 96
3, 15960, Note_on_c, 0, 57, 0
3, 15960, Note_on_c, 0, 61, 96
3, 15984, Note_on_c, 0, 61, 0
3, 15984, Note_on_c, 0, 57, 96
3, 16008, Note_on_c, 0, 57, 0
3, 16008, Note_on_c, 0, 61, 96
3, 16032, Note_on_c, 0, 61, 0
3, 16032, Note_on_c, 0, 56, 96
3, 16056, Note_on_c, 0, 56, 0
3, 16056, Note_on_c, 0, 59, 96
3, 16080, Note_on_c, 0, 59, 0
3, 16080, Note_on_c, 0, 56, 96
3, 16104, Note_on_c, 0, 56, 0
3, 16104, Note_on_c, 0, 59, 96
3, 16128, Note_on_c, 0, 59, 0
3, 16128, Note_on_c, 0, 57, 96
3, 16224, Note_on_c, 0, 57, 0
3, 16272, Note_on_c, 0, 57, 96
3, 16320, Note_on_c, 0, 57, 0
3, 16320, Note_on_c, 0, 59, 96
3, 16368, Note_on_c, 0, 59, 0
3, 16368, Note_on_c, 0, 61, 96
3, 16416, Note_on_c, 0, 61, 0
3, 16416, Note_on_c, 0, 62, 96
3, 16464, Note_on_c, 0, 62, 0
3, 16464, Note_on_c, 0, 63, 96
3, 16512, Note_on_c, 0, 63, 0
3, 16512, Note_on_c, 0, 66, 96
3, 16560, Note_on_c, 0, 66, 0
3, 16560, Note_on_c, 0, 64, 96
3, 16608, Note_on_c, 0, 64, 0
3, 16656, Note_on_c, 0, 57, 96
3, 16704, Note_on_c, 0, 57, 0
3, 16704, Note_on_c, 0, 59, 96
3, 16752, Note_on_c, 0, 59, 0
3, 16752, Note_on_c, 0, 61, 96
3, 16800, Note_on_c, 0, 61, 0
3, 16800, Note_on_c, 0, 62, 96
3, 16848, Note_on_c, 0, 62, 0
3, 16848, Note_on_c, 0, 63, 96
3, 16896, Note_on_c, 0, 63, 0
3, 16896, Note_on_c, 0, 66, 96
3, 16944, Note_on_c, 0, 66, 0
3, 16944, Note_on_c, 0, 64, 96
3, 16992, Note_on_c, 0, 64, 0
3, 17040, Note_on_c, 0, 57, 96
3, 17088, Note_on_c, 0, 57, 0
3, 17088, Note_on_c, 0, 59, 96
3, 17136, Note_on_c, 0, 59, 0
3, 17136, Note_on_c, 0, 61, 96
3, 17184, Note_on_c, 0, 61, 0
3, 17184, Note_on_c, 0, 62, 96
3, 17232, Note_on_c, 0, 62, 0
3, 17232, Note_on_c, 0, 64, 96
3, 17280, Note_on_c, 0, 64, 0
3, 17280, Note_on_c, 0, 65, 96
3, 17376, Note_on_c, 0, 65, 0
3, 17376, Note_on_c, 0, 64, 96
3, 17472, Note_on_c, 0, 64, 0
3, 17472, Note_on_c, 0, 63, 96
3, 17568, Note_on_c, 0, 63, 0
3, 17568, Note_on_c, 0, 62, 96
3, 17664, Note_on_c, 0, 62, 0
3, 17664, Note_on_c, 0, 61, 96
3, 17712, Note_on_c, 0, 61, 0
3, 17712, Note_on_c, 0, 61, 96
3, 17760, Note_on_c, 0, 61, 0
3, 17760, Note_on_c, 0, 62, 96
3, 17808, Note_on_c, 0, 62, 0
3, 17808, Note_on_c, 0, 62, 96
3, 17856, Note_on_c, 0, 62, 0
3, 17856, Note_on_c, 0, 64, 96
3, 17904, Note_on_c, 0, 64, 0
3, 17904, Note_on_c, 0, 64, 96
3, 17952, Note_on_c, 0, 64, 0
3, 17952, Note_on_c, 0, 52, 96
3, 18000, Note_on_c, 0, 52, 0
3, 18000, Note_on_c, 0, 52, 96
3, 18048, Note_on_c, 0, 52, 0
3, 18048, Note_on_c, 0, 57, 96
3, 18096, Note_on_c, 0, 57, 0
3, 18480, Note_on_c, 0, 62, 96
3, 18528, Note_on_c, 0, 62, 0
3, 18528, Note_on_c, 0, 61, 96
3, 18576, Note_on_c, 0, 61, 0
3, 18864, Note_on_c, 0, 62, 96
3, 18912, Note_on_c, 0, 62, 0
3, 18912, Note_on_c, 0, 61, 96
3, 18960, Note_on_c, 0, 61, 0
3, 19344, Note_on_c, 0, 55, 96
3, 19392, Note_on_c, 0, 55, 0
3, 19392, Note_on_c, 0, 56, 96
3, 19440, Note_on_c, 0, 56, 0
3, 19440, Note_on_c, 0, 57, 96
3, 19488, Note_on_c, 0, 57, 0
3, 19488, Note_on_c, 0, 58, 96
3, 19536, Note_on_c, 0, 58, 0
3, 19536, Note_on_c, 0, 59, 96
3, 19584, Note_on_c, 0, 59, 0
3, 19584, Note_on_c, 0, 60, 96
3, 19680, Note_on_c, 0, 60, 0
3, 19680, Note_on_c, 0, 48, 96
3, 19776, Note_on_c, 0, 48, 0
3, 19776, Note_on_c, 0, 53, 96
3, 19968, Note_on_c, 0, 53, 0
3, 19968, Note_on_c, 0, 52, 96
3, 20064, Note_on_c, 0, 52, 0
3, 20064, Note_on_c, 0, 57, 96
3, 20256, Note_on_c, 0, 57, 0
3, 20256, Note_on_c, 0, 56, 96
3, 20352, Note_on_c, 0, 56, 0
3, 20352, Note_on_c, 0, 45, 96
3, 20376, Note_on_c, 0, 45, 0
3, 20376, Note_on_c, 0, 52, 96
3, 20400, Note_on_c, 0, 52, 0
3, 20400, Note_on_c, 0, 49, 96
3, 20424, Note_on_c, 0, 49, 0
3, 20424, Note_on_c, 0, 52, 96
3, 20448, Note_on_c, 0, 52, 0
3, 20448, Note_on_c, 0, 49, 96
3, 20472, Note_on_c, 0, 49, 0
3, 20472, Note_on_c, 0, 52, 96
3, 20496, Note_on_c, 0, 52, 0
3, 20496, Note_on_c, 0, 47, 96
3, 20520, Note_on_c, 0, 47, 0
3, 20520, Note_on_c, 0, 52, 96
3, 20544, Note_on_c, 0, 52, 0
3, 20544, Note_on_c, 0, 49, 96
3, 20568, Note_on_c, 0, 49, 0
3, 20568, Note_on_c, 0, 52, 96
3, 20592, Note_on_c, 0, 52, 0
3, 20592, Note_on_c, 0, 49, 96
3, 20616, Note_on_c, 0, 49, 0
3, 20616, Note_on_c, 0, 52, 96
3, 20640, Note_on_c, 0, 52, 0
3, 20640, Note_on_c, 0, 49, 96
3, 20664, Note_on_c, 0, 49, 0
3, 20664, Note_on_c, 0, 52, 96
3, 20688, Note_on_c, 0, 52, 0
3, 20688, Note_on_c, 0, 49, 96
3, 20712, Note_on_c, 0, 49, 0
3, 20712, Note_on_c, 0, 52, 96
3, 20736, Note_on_c, 0, 52, 0
3, 20736, Note_on_c, 0, 50, 96
3, 20760, Note_on_c, 0, 50, 0
3, 20760, Note_on_c, 0, 52, 96
3, 20784, Note_on_c, 0, 52, 0
3, 20784, Note_on_c, 0, 50, 96
3, 20808, Note_on_c, 0, 50, 0
3, 20808, Note_on_c, 0, 52, 96
3, 20832, Note_on_c, 0, 52, 0
3, 20832, Note_on_c, 0, 47, 96
3, 20856, Note_on_c, 0, 47, 0
3, 20856, Note_on_c, 0, 50, 96
3, 20880, Note_on_c, 0, 50, 0
3, 20880, Note_on_c, 0, 49, 96
3, 20904, Note_on_c, 0, 49, 0
3, 20904, Note_on_c, 0, 50, 96
3, 20928, Note_on_c, 0, 50, 0
3, 20928, Note_on_c, 0, 49, 96
3, 20952, Note_on_c, 0, 49, 0
3, 20952, Note_on_c, 0, 52, 96
3, 20976, Note_on_c, 0, 52, 0
3, 20976, Note_on_c, 0, 49, 96
3, 21000, Note_on_c, 0, 49, 0
3, 21000, Note_on_c, 0, 52, 96
3, 21024, Note_on_c, 0, 52, 0
3, 21024, Note_on_c, 0, 50, 96
3, 21048, Note_on_c, 0, 50, 0
3, 21048, Note_on_c, 0, 52, 96
3, 21072, Note_on_c, 0, 52, 0
3, 21072, Note_on_c, 0, 50, 96
3, 21096, Note_on_c, 0, 50, 0
3, 21096, Note_on_c, 0, 52, 96
3, 21120, Note_on_c, 0, 52, 0
3, 21120, Note_on_c, 0, 49, 96
3, 21144, Note_on_c, 0, 49, 0
3, 21144, Note_on_c, 0, 52, 96
3, 21168, Note_on_c, 0, 52, 0
3, 21168, Note_on_c, 0, 49, 96
3, 21192, Note_on_c, 0, 49, 0
3, 21192, Note_on_c, 0, 52, 96
3, 21216, Note_on_c, 0, 52, 0
3, 21216, Note_on_c, 0, 49, 96
3, 21240, Note_on_c, 0, 49, 0
3, 21240, Note_on_c, 0, 52, 96
3, 21264, Note_on_c, 0, 52, 0
3, 21264, Note_on_c, 0, 49, 96
3, 21288, Note_on_c, 0, 49, 0
3, 21288, Note_on_c, 0, 52, 96
3, 21312, Note_on_c, 0, 52, 0
3, 21312, Note_on_c, 0, 52, 96
3, 21336, Note_on_c, 0, 52, 0
3, 21336, Note_on_c, 0, 57, 96
3, 21360, Note_on_c, 0, 57, 0
3, 21360, Note_on_c, 0, 52, 96
3, 21384, Note_on_c, 0, 52, 0
3, 21384, Note_on_c, 0, 57, 96
3, 21408, Note_on_c, 0, 57, 0
3, 21408, Note_on_c, 0, 52, 96
3, 21432, Note_on_c, 0, 52, 0
3, 21432, Note_on_c, 0, 57, 96
3, 21456, Note_on_c, 0, 57, 0
3, 21456, Note_on_c, 0, 52, 96
3, 21480, Note_on_c, 0, 52, 0
3, 21480, Note_on_c, 0, 57, 96
3, 21504, Note_on_c, 0, 57, 0
3, 21504, Note_on_c, 0, 54, 96
3, 21528, Note_on_c, 0, 54, 0
3, 21528, Note_on_c, 0, 59, 96
3, 21552, Note_on_c, 0, 59, 0
3, 21552, Note_on_c, 0, 54, 96
3, 21576, Note_on_c, 0, 54, 0
3, 21576, Note_on_c, 0, 59, 96
3, 21600, Note_on_c, 0, 59, 0
3, 21600, Note_on_c, 0, 54, 96
3, 21624, Note_on_c, 0, 54, 0
3, 21624, Note_on_c, 0, 59, 96
3, 21648, Note_on_c, 0, 59, 0
3, 21648, Note_on_c, 0, 54, 96
3, 21672, Note_on_c, 0, 54, 0
3, 21672, Note_on_c, 0, 59, 96
3, 21696, Note_on_c, 0, 59, 0
3, 21696, Note_on_c, 0, 59, 96
3, 21720, Note_on_c, 0, 59, 0
3, 21720, Note_on_c, 0, 62, 96
3, 21744, Note_on_c, 0, 62, 0
3, 21744, Note_on_c, 0, 59, 96
3, 21768, Note_on_c, 0, 59, 0
3, 21768, Note_on_c, 0, 62, 96
3, 21792, Note_on_c, 0, 62, 0
3, 21792, Note_on_c, 0, 59, 96
3, 21816, Note_on_c, 0, 59, 0
3, 21816, Note_on_c, 0, 62, 96
3, 21840, Note_on_c, 0, 62, 0
3, 21840, Note_on_c, 0, 59, 96
3, 21864, Note_on_c, 0, 59, 0
3, 21864, Note_on_c, 0, 62, 96
3, 21888, Note_on_c, 0, 62, 0
3, 21888, Note_on_c, 0, 52, 96
3, 21912, Note_on_c, 0, 52, 0
3, 21912, Note_on_c, 0, 57, 96
3, 21936, Note_on_c, 0, 57, 0
3, 21936, Note_on_c, 0, 52, 96
3, 21960, Note_on_c, 0, 52, 0
3, 21960, Note_on_c, 0, 57, 96
3, 21984, Note_on_c, 0, 57, 0
3, 21984, Note_on_c, 0, 52, 96
3, 22008, Note_on_c, 0, 52, 0
3, 22008, Note_on_c, 0, 57, 96
3, 22032, Note_on_c, 0, 57, 0
3, 22032, Note_on_c, 0, 52, 96
3, 22056, Note_on_c, 0, 52, 0
3, 22056, Note_on_c, 0, 57, 96
3, 22080, Note_on_c, 0, 57, 0
3, 22080, Note_on_c, 0, 59, 96
3, 22104, Note_on_c, 0, 59, 0
3, 22104, Note_on_c, 0, 64, 96
3, 22128, Note_on_c, 0, 64, 0
3, 22128, Note_on_c, 0, 61, 96
3, 22152, Note_on_c, 0, 61, 0
3, 22152, Note_on_c, 0, 64, 96
3, 22176, Note_on_c, 0, 64, 0
3, 22176, Note_on_c, 0, 61, 96
3, 22200, Note_on_c, 0, 61, 0
3, 22200, Note_on_c, 0, 64, 96
3, 22224, Note_on_c, 0, 64, 0
3, 22224, Note_on_c, 0, 61, 96
3, 22248, Note_on_c, 0, 61, 0
3, 22248, Note_on_c, 0, 64, 96
3, 22272, Note_on_c, 0, 64, 0
3, 22272, Note_on_c, 0, 62, 96
3, 22296, Note_on_c, 0, 62, 0
3, 22296, Note_on_c, 0, 64, 96
3, 22320, Note_on_c, 0, 64, 0
3, 22320, Note_on_c, 0, 62, 96
3, 22344, Note_on_c, 0, 62, 0
3, 22344, Note_on_c, 0, 64, 96
3, 22368, Note_on_c, 0, 64, 0
3, 22368, Note_on_c, 0, 59, 96
3, 22392, Note_on_c, 0, 59, 0
3, 22392, Note_on_c, 0, 62, 96
3, 22416, Note_on_c, 0, 62, 0
3, 22416, Note_on_c, 0, 59, 96
3, 22440, Note_on_c, 0, 59, 0
3, 22440, Note_on_c, 0, 62, 96
3, 22464, Note_on_c, 0, 62, 0
3, 22464, Note_on_c, 0, 61, 96
3, 22488, Note_on_c, 0, 61, 0
3, 22488, Note_on_c, 0, 64, 96
3, 22512, Note_on_c, 0, 64, 0
3, 22512, Note_on_c, 0, 61, 96
3, 22536, Note_on_c, 0, 61, 0
3, 22536, Note_on_c, 0, 64, 96
3, 22560, Note_on_c, 0, 64, 0
3, 22560, Note_on_c, 0, 62, 96
3, 22584, Note_on_c, 0, 62, 0
3, 22584, Note_on_c, 0, 64, 96
3, 22608, Note_on_c, 0, 64, 0
3, 22608, Note_on_c, 0, 62, 96
3, 22632, Note_on_c, 0, 62, 0
3, 22632, Note_on_c, 0, 64, 96
3, 22656, Note_on_c, 0, 64, 0
3, 22656, Note_on_c, 0, 61, 96
3, 22680, Note_on_c, 0, 61, 0
3, 22680, Note_on_c, 0, 64, 96
3, 22704, Note_on_c, 0, 64, 0
3, 22704, Note_on_c, 0, 61, 96
3, 22728, Note_on_c, 0, 61, 0
3, 22728, Note_on_c, 0, 64, 96
3, 22752, Note_on_c, 0, 64, 0
3, 22752, Note_on_c, 0, 61, 96
3, 22776, Note_on_c, 0, 61, 0
3, 22776, Note_on_c, 0, 64, 96
3, 22800, Note_on_c, 0, 64, 0
3, 22800, Note_on_c, 0, 61, 96
3, 22824, Note_on_c, 0, 61, 0
3, 22824, Note_on_c, 0, 64, 96
3, 22848, Note_on_c, 0, 64, 0
3, 22848, Note_on_c, 0, 52, 96
3, 22872, Note_on_c, 0, 52, 0
3, 22872, Note_on_c, 0, 57, 96
3, 22896, Note_on_c, 0, 57, 0
3, 22896, Note_on_c, 0, 52, 96
3, 22920, Note_on_c, 0, 52, 0
3, 22920, Note_on_c, 0, 57, 96
3, 22944, Note_on_c, 0, 57, 0
3, 22944, Note_on_c, 0, 52, 96
3, 22968, Note_on_c, 0, 52, 0
3, 22968, Note_on_c, 0, 57, 96
3, 22992, Note_on_c, 0, 57, 0
3, 22992, Note_on_c, 0, 52, 96
3, 23016, Note_on_c, 0, 52, 0
3, 23016, Note_on_c, 0, 57, 96
3, 23040, Note_on_c, 0, 57, 0
3, 23040, Note_on_c, 0, 54, 96
3, 23064, Note_on_c, 0, 54, 0
3, 23064, Note_on_c, 0, 59, 96
3, 23088, Note_on_c, 0, 59, 0
3, 23088, Note_on_c, 0, 54, 96
3, 23112, Note_on_c, 0, 54, 0
3, 23112, Note_on_c, 0, 59, 96
3, 23136, Note_on_c, 0, 59, 0
3, 23136, Note_on_c, 0, 54, 96
3, 23160, Note_on_c, 0, 54, 0
3, 23160, Note_on_c, 0, 59, 96
3, 23184, Note_on_c, 0, 59, 0
3, 23184, Note_on_c, 0, 54, 96
3, 23208, Note_on_c, 0, 54, 0
3, 23208, Note_on_c, 0, 59, 96
3, 23232, Note_on_c, 0, 59, 0
3, 23232, Note_on_c, 0, 59, 96
3, 23256, Note_on_c, 0, 59, 0
3, 23256, Note_on_c, 0, 62, 96
3, 23280, Note_on_c, 0, 62, 0
3, 23280, Note_on_c, 0, 59, 96
3, 23304, Note_on_c, 0, 59, 0
3, 23304, Note_on_c, 0, 62, 96
3, 23328, Note_on_c, 0, 62, 0
3, 23328, Note_on_c, 0, 59, 96
3, 23352, Note_on_c, 0, 59, 0
3, 23352, Note_on_c, 0, 62, 96
3, 23376, Note_on_c, 0, 62, 0
3, 23376, Note_on_c, 0, 59, 96
3, 23400, Note_on_c, 0, 59, 0
3, 23400, Note_on_c, 0, 62, 96
3, 23424, Note_on_c, 0, 62, 0
3, 23424, Note_on_c, 0, 61, 96
3, 23448, Note_on_c, 0, 61, 0
3, 23448, Note_on_c, 0, 64, 96
3, 23472, Note_on_c, 0, 64, 0
3, 23472, Note_on_c, 0, 61, 96
3, 23496, Note_on_c, 0, 61, 0
3, 23496, Note_on_c, 0, 64, 96
3, 23520, Note_on_c, 0, 64, 0
3, 23520, Note_on_c, 0, 61, 96
3, 23544, Note_on_c, 0, 61, 0
3, 23544, Note_on_c, 0, 64, 96
3, 23568, Note_on_c, 0, 64, 0
3, 23568, Note_on_c, 0, 61, 96
3, 23592, Note_on_c, 0, 61, 0
3, 23592, Note_on_c, 0, 64, 96
3, 23616, Note_on_c, 0, 64, 0
3, 23616, Note_on_c, 0, 61, 96
3, 23640, Note_on_c, 0, 61, 0
3, 23640, Note_on_c, 0, 64, 96
3, 23664, Note_on_c, 0, 64, 0
3, 23664, Note_on_c, 0, 61, 96
3, 23688, Note_on_c, 0, 61, 0
3, 23688, Note_on_c, 0, 64, 96
3, 23712, Note_on_c, 0, 64, 0
3, 23712, Note_on_c, 0, 61, 96
3, 23736, Note_on_c, 0, 61, 0
3, 23736, Note_on_c, 0, 64, 96
3, 23760, Note_on_c, 0, 64, 0
3, 23760, Note_on_c, 0, 61, 96
3, 23784, Note_on_c, 0, 61, 0
3, 23784, Note_on_c, 0, 64, 96
3, 23808, Note_on_c, 0, 64, 0
3, 23808, Note_on_c, 0, 57, 96
3, 23832, Note_on_c, 0, 57, 0
3, 23856, Note_on_c, 0, 57, 96
3, 23880, Note_on_c, 0, 57, 0
3, 23904, Note_on_c, 0, 57, 96
3, 23928, Note_on_c, 0, 57, 0
3, 23952, Note_on_c, 0, 57, 96
3, 23976, Note_on_c, 0, 57, 0
3, 24000, Note_on_c, 0, 57, 96
3, 24024, Note_on_c, 0, 57, 0
3, 24048, Note_on_c, 0, 57, 96
3, 24072, Note_on_c, 0, 57, 0
3, 24096, Note_on_c, 0, 57, 96
3, 24120, Note_on_c, 0, 57, 0
3, 24144, Note_on_c, 0, 57, 96
3, 24168, Note_on_c, 0, 57, 0
3, 24192, Note_on_c, 0, 57, 96
3, 24216, Note_on_c, 0, 57, 0
3, 24240, Note_on_c, 0, 57, 96
3, 24264, Note_on_c, 0, 57, 0
3, 24288, Note_on_c, 0, 57, 96
3, 24312, Note_on_c, 0, 57, 0
3, 24336, Note_on_c, 0, 57, 96
3, 24360, Note_on_c, 0, 57, 0
3, 24384, Note_on_c, 0, 57, 96
3, 24408, Note_on_c, 0, 57, 0
3, 24432, Note_on_c, 0, 57, 96
3, 24456, Note_on_c, 0, 57, 0
3, 24480, Note_on_c, 0, 57, 96
3, 24504, Note_on_c, 0, 57, 0
3, 24528, Note_on_c, 0, 57, 96
3, 24552, Note_on_c, 0, 57, 0
3, 24576, Note_on_c, 0, 57, 96
3, 24600, Note_on_c, 0, 57, 0
3, 24624, Note_on_c, 0, 57, 96
3, 24648, Note_on_c, 0, 57, 0
3, 24672, Note_on_c, 0, 57, 96
3, 24696, Note_on_c, 0, 57, 0
3, 24720, Note_on_c, 0, 57, 96
3, 24744, Note_on_c, 0, 57, 0
3, 24768, Note_on_c, 0, 57, 96
3, 24792, Note_on_c, 0, 57, 0
3, 24816, Note_on_c, 0, 57, 96
3, 24840, Note_on_c, 0, 57, 0
3, 24864, Note_on_c, 0, 57, 96
3, 24888, Note_on_c, 0, 57, 0
3, 24912, Note_on_c, 0, 57, 96
3, 24936, Note_on_c, 0, 57, 0
3, 24960, Note_on_c, 0, 57, 96
3, 24984, Note_on_c, 0, 57, 0
3, 25008, Note_on_c, 0, 57, 96
3, 25032, Note_on_c, 0, 57, 0
3, 25056, Note_on_c, 0, 57, 96
3, 25080, Note_on_c, 0, 57, 0
3, 25104, Note_on_c, 0, 57, 96
3, 25128, Note_on_c, 0, 57, 0
3, 25152, Note_on_c, 0, 57, 96
3, 25176, Note_on_c, 0, 57, 0
3, 25200, Note_on_c, 0, 57, 96
3, 25224, Note_on_c, 0, 57, 0
3, 25248, Note_on_c, 0, 57, 96
3, 25272, Note_on_c, 0, 57, 0
3, 25296, Note_on_c, 0, 57, 96
3, 25320, Note_on_c, 0, 57, 0
3, 25344, Note_on_c, 0, 45, 96
3, 25368, Note_on_c, 0, 45, 0
3, 25368, Note_on_c, 0, 47, 96
3, 25392, Note_on_c, 0, 47, 0
3, 25392, Note_on_c, 0, 49, 96
3, 25416, Note_on_c, 0, 49, 0
3, 25416, Note_on_c, 0, 50, 96
3, 25440, Note_on_c, 0, 50, 0
3, 25440, Note_on_c, 0, 52, 96
3, 25464, Note_on_c, 0, 52, 0
3, 25464, Note_on_c, 0, 54, 96
3, 25488, Note_on_c, 0, 54, 0
3, 25488, Note_on_c, 0, 55, 96
3, 25512, Note_on_c, 0, 55, 0
3, 25512, Note_on_c, 0, 54, 96
3, 25536, Note_on_c, 0, 54, 0
3, 25536, Note_on_c, 0, 55, 96
3, 25560, Note_on_c, 0, 55, 0
3, 25560, Note_on_c, 0, 54, 96
3, 25584, Note_on_c, 0, 54, 0
3, 25584, Note_on_c, 0, 52, 96
3, 25608, Note_on_c, 0, 52, 0
3, 25608, Note_on_c, 0, 54, 96
3, 25632, Note_on_c, 0, 54, 0
3, 25632, Note_on_c, 0, 52, 96
3, 25656, Note_on_c, 0, 52, 0
3, 25656, Note_on_c, 0, 50, 96
3, 25680, Note_on_c, 0, 50, 0
3, 25680, Note_on_c, 0, 49, 96
3, 25704, Note_on_c, 0, 49, 0
3, 25704, Note_on_c, 0, 47, 96
3, 25728, Note_on_c, 0, 47, 0
3, 25728, Note_on_c, 0, 45, 96
3, 25776, Note_on_c, 0, 45, 0
3, 26496, Note_on_c, 0, 50, 96
3, 26520, Note_on_c, 0, 50, 0
3, 26520, Note_on_c, 0, 49, 96
3, 26544, Note_on_c, 0, 49, 0
3, 26544, Note_on_c, 0, 50, 96
3, 26568, Note_on_c, 0, 50, 0
3, 26568, Note_on_c, 0, 49, 96
3, 26592, Note_on_c, 0, 49, 0
3, 26592, Note_on_c, 0, 50, 96
3, 26640, Note_on_c, 0, 50, 0
3, 26688, Note_on_c, 0, 50, 96
3, 26712, Note_on_c, 0, 50, 0
3, 26712, Note_on_c, 0, 49, 96
3, 26736, Note_on_c, 0, 49, 0
3, 26736, Note_on_c, 0, 50, 96
3, 26760, Note_on_c, 0, 50, 0
3, 26760, Note_on_c, 0, 52, 96
3, 26784, Note_on_c, 0, 52, 0
3, 26784, Note_on_c, 0, 54, 96
3, 26808, Note_on_c, 0, 54, 0
3, 26808, Note_on_c, 0, 52, 96
3, 26832, Note_on_c, 0, 52, 0
3, 26832, Note_on_c, 0, 54, 96
3, 26856, Note_on_c, 0, 54, 0
3, 26856, Note_on_c, 0, 55, 96
3, 26880, Note_on_c, 0, 55, 0
3, 26880, Note_on_c, 0, 57, 96
3, 26904, Note_on_c, 0, 57, 0
3, 26904, Note_on_c, 0, 56, 96
3, 26928, Note_on_c, 0, 56, 0
3, 26928, Note_on_c, 0, 57, 96
3, 26952, Note_on_c, 0, 57, 0
3, 26952, Note_on_c, 0, 56, 96
3, 26976, Note_on_c, 0, 56, 0
3, 26976, Note_on_c, 0, 57, 96
3, 27024, Note_on_c, 0, 57, 0
3, 27072, Note_on_c, 0, 57, 96
3, 27096, Note_on_c, 0, 57, 0
3, 27096, Note_on_c, 0, 56, 96
3, 27120, Note_on_c, 0, 56, 0
3, 27120, Note_on_c, 0, 57, 96
3, 27144, Note_on_c, 0, 57, 0
3, 27144, Note_on_c, 0, 58, 96
3, 27168, Note_on_c, 0, 58, 0
3, 27168, Note_on_c, 0, 59, 96
3, 27192, Note_on_c, 0, 59, 0
3, 27192, Note_on_c, 0, 57, 96
3, 27216, Note_on_c, 0, 57, 0
3, 27216, Note_on_c, 0, 55, 96
3, 27240, Note_on_c, 0, 55, 0
3, 27240, Note_on_c, 0, 54, 96
3, 27264, Note_on_c, 0, 54, 0
3, 27264, Note_on_c, 0, 52, 96
3, 27288, Note_on_c, 0, 52, 0
3, 27288, Note_on_c, 0, 51, 96
3, 27312, Note_on_c, 0, 51, 0
3, 27312, Note_on_c, 0, 52, 96
3, 27336, Note_on_c, 0, 52, 0
3, 27336, Note_on_c, 0, 54, 96
3, 27360, Note_on_c, 0, 54, 0
3, 27360, Note_on_c, 0, 55, 96
3, 27384, Note_on_c, 0, 55, 0
3, 27384, Note_on_c, 0, 54, 96
3, 27408, Note_on_c, 0, 54, 0
3, 27408, Note_on_c, 0, 52, 96
3, 27432, Note_on_c, 0, 52, 0
3, 27432, Note_on_c, 0, 50, 96
3, 27456, Note_on_c, 0, 50, 0
3, 27456, Note_on_c, 0, 49, 96
3, 27480, Note_on_c, 0, 49, 0
3, 27480, Note_on_c, 0, 50, 96
3, 27504, Note_on_c, 0, 50, 0
3, 27504, Note_on_c, 0, 52, 96
3, 27528, Note_on_c, 0, 52, 0
3, 27528, Note_on_c, 0, 50, 96
3, 27552, Note_on_c, 0, 50, 0
3, 27552, Note_on_c, 0, 49, 96
3, 27576, Note_on_c, 0, 49, 0
3, 27576, Note_on_c, 0, 45, 96
3, 27600, Note_on_c, 0, 45, 0
3, 27600, Note_on_c, 0, 47, 96
3, 27624, Note_on_c, 0, 47, 0
3, 27624, Note_on_c, 0, 49, 96
3, 27648, Note_on_c, 0, 49, 0
3, 27648, Note_on_c, 0, 50, 96
3, 27672, Note_on_c, 0, 50, 0
3, 27672, Note_on_c, 0, 62, 96
3, 27696, Note_on_c, 0, 62, 0
3, 27696, Note_on_c, 0, 50, 96
3, 27720, Note_on_c, 0, 50, 0
3, 27720, Note_on_c, 0, 62, 96
3, 27744, Note_on_c, 0, 62, 0
3, 27744, Note_on_c, 0, 50, 96
3, 27768, Note_on_c, 0, 50, 0
3, 27768, Note_on_c, 0, 62, 96
3, 27792, Note_on_c, 0, 62, 0
3, 27792, Note_on_c, 0, 50, 96
3, 27816, Note_on_c, 0, 50, 0
3, 27816, Note_on_c, 0, 62, 96
3, 27840, Note_on_c, 0, 62, 0
3, 27840, Note_on_c, 0, 50, 96
3, 27864, Note_on_c, 0, 50, 0
3, 27864, Note_on_c, 0, 62, 96
3, 27888, Note_on_c, 0, 62, 0
3, 27888, Note_on_c, 0, 50, 96
3, 27912, Note_on_c, 0, 50, 0
3, 27912, Note_on_c, 0, 62, 96
3, 27936, Note_on_c, 0, 62, 0
3, 27936, Note_on_c, 0, 50, 96
3, 27960, Note_on_c, 0, 50, 0
3, 27960, Note_on_c, 0, 62, 96
3, 27984, Note_on_c, 0, 62, 0
3, 27984, Note_on_c, 0, 50, 96
3, 28008, Note_on_c, 0, 50, 0
3, 28008, Note_on_c, 0, 62, 96
3, 28032, Note_on_c, 0, 62, 0
3, 28032, Note_on_c, 0, 50, 96
3, 28056, Note_on_c, 0, 50, 0
3, 28056, Note_on_c, 0, 62, 96
3, 28080, Note_on_c, 0, 62, 0
3, 28080, Note_on_c, 0, 50, 96
3, 28104, Note_on_c, 0, 50, 0
3, 28104, Note_on_c, 0, 62, 96
3, 28128, Note_on_c, 0, 62, 0
3, 28128, Note_on_c, 0, 50, 96
3, 28152, Note_on_c, 0, 50, 0
3, 28152, Note_on_c, 0, 62, 96
3, 28176, Note_on_c, 0, 62, 0
3, 28176, Note_on_c, 0, 50, 96
3, 28200, Note_on_c, 0, 50, 0
3, 28200, Note_on_c, 0, 62, 96
3, 28224, Note_on_c, 0, 62, 0
3, 28224, Note_on_c, 0, 50, 96
3, 28248, Note_on_c, 0, 50, 0
3, 28248, Note_on_c, 0, 62, 96
3, 28272, Note_on_c, 0, 62, 0
3, 28272, Note_on_c, 0, 50, 96
3, 28296, Note_on_c, 0, 50, 0
3, 28296, Note_on_c, 0, 62, 96
3, 28320, Note_on_c, 0, 62, 0
3, 28320, Note_on_c, 0, 50, 96
3, 28344, Note_on_c, 0, 50, 0
3, 28344, Note_on_c, 0, 62, 96
3, 28368, Note_on_c, 0, 62, 0
3, 28368, Note_on_c, 0, 50, 96
3, 28392, Note_on_c, 0, 50, 0
3, 28392, Note_on_c, 0, 62, 96
3, 28416, Note_on_c, 0, 62, 0
3, 28416, Note_on_c, 0, 50, 96
3, 28440, Note_on_c, 0, 50, 0
3, 28440, Note_on_c, 0, 62, 96
3, 28464, Note_on_c, 0, 62, 0
3, 28464, Note_on_c, 0, 50, 96
3, 28488, Note_on_c, 0, 50, 0
3, 28488, Note_on_c, 0, 62, 96
3, 28512, Note_on_c, 0, 62, 0
3, 28512, Note_on_c, 0, 50, 96
3, 28536, Note_on_c, 0, 50, 0
3, 28536, Note_on_c, 0, 62, 96
3, 28560, Note_on_c, 0, 62, 0
3, 28560, Note_on_c, 0, 50, 96
3, 28584, Note_on_c, 0, 50, 0
3, 28584, Note_on_c, 0, 62, 96
3, 28608, Note_on_c, 0, 62, 0
3, 28608, Note_on_c, 0, 50, 96
3, 28632, Note_on_c, 0, 50, 0
3, 28632, Note_on_c, 0, 62, 96
3, 28656, Note_on_c, 0, 62, 0
3, 28656, Note_on_c, 0, 50, 96
3, 28680, Note_on_c, 0, 50, 0
3, 28680, Note_on_c, 0, 62, 96
3, 28704, Note_on_c, 0, 62, 0
3, 28704, Note_on_c, 0, 50, 96
3, 28728, Note_on_c, 0, 50, 0
3, 28728, Note_on_c, 0, 62, 96
3, 28752, Note_on_c, 0, 62, 0
3, 28752, Note_on_c, 0, 50, 96
3, 28776, Note_on_c, 0, 50, 0
3, 28776, Note_on_c, 0, 62, 96
3, 28800, Note_on_c, 0, 62, 0
3, 28800, Note_on_c, 0, 50, 96
3, 28824, Note_on_c, 0, 50, 0
3, 28824, Note_on_c, 0, 62, 96
3, 28848, Note_on_c, 0, 62, 0
3, 28848, Note_on_c, 0, 50, 96
3, 28872, Note_on_c, 0, 50, 0
3, 28872, Note_on_c, 0, 62, 96
3, 28896, Note_on_c, 0, 62, 0
3, 28896, Note_on_c, 0, 50, 96
3, 28920, Note_on_c, 0, 50, 0
3, 28920, Note_on_c, 0, 62, 96
3, 28944, Note_on_c, 0, 62, 0
3, 28944, Note_on_c, 0, 50, 96
3, 28968, Note_on_c, 0, 50, 0
3, 28968, Note_on_c, 0, 62, 96
3, 28992, Note_on_c, 0, 62, 0
3, 28992, Note_on_c, 0, 50, 96
3, 29016, Note_on_c, 0, 50, 0
3, 29016, Note_on_c, 0, 62, 96
3, 29040, Note_on_c, 0, 62, 0
3, 29040, Note_on_c, 0, 50, 96
3, 29064, Note_on_c, 0, 50, 0
3, 29064, Note_on_c, 0, 62, 96
3, 29088, Note_on_c, 0, 62, 0
3, 29088, Note_on_c, 0, 50, 96
3, 29112, Note_on_c, 0, 50, 0
3, 29112, Note_on_c, 0, 62, 96
3, 29136, Note_on_c, 0, 62, 0
3, 29136, Note_on_c, 0, 50, 96
3, 29160, Note_on_c, 0, 50, 0
3, 29160, Note_on_c, 0, 62, 96
3, 29184, Note_on_c, 0, 62, 0
3, 29184, Note_on_c, 0, 50, 96
3, 29208, Note_on_c, 0, 50, 0
3, 29208, Note_on_c, 0, 62, 96
3, 29232, Note_on_c, 0, 62, 0
3, 29232, Note_on_c, 0, 50, 96
3, 29256, Note_on_c, 0, 50, 0
3, 29256, Note_on_c, 0, 62, 96
3, 29280, Note_on_c, 0, 62, 0
3, 29280, Note_on_c, 0, 50, 96
3, 29304, Note_on_c, 0, 50, 0
3, 29304, Note_on_c, 0, 62, 96
3, 29328, Note_on_c, 0, 62, 0
3, 29328, Note_on_c, 0, 50, 96
3, 29352, Note_on_c, 0, 50, 0
3, 29352, Note_on_c, 0, 62, 96
3, 29376, Note_on_c, 0, 62, 0
3, 29376, Note_on_c, 0, 50, 96
3, 29424, Note_on_c, 0, 50, 0
3, 29472, Note_on_c, 0, 55, 96
3, 29520, Note_on_c, 0, 55, 0
3, 29568, Note_on_c, 0, 57, 96
3, 29616, Note_on_c, 0, 57, 0
3, 29664, Note_on_c, 0, 45, 96
3, 29712, Note_on_c, 0, 45, 0
3, 29760, Note_on_c, 0, 50, 96
3, 29784, Note_on_c, 0, 50, 0
3, 29784, Note_on_c, 0, 49, 96
3, 29808, Note_on_c, 0, 49, 0
3, 29808, Note_on_c, 0, 50, 96
3, 29832, Note_on_c, 0, 50, 0
3, 29832, Note_on_c, 0, 49, 96
3, 29856, Note_on_c, 0, 49, 0
3, 29856, Note_on_c, 0, 50, 96
3, 29904, Note_on_c, 0, 50, 0
3, 29952, Note_on_c, 0, 50, 96
3, 29976, Note_on_c, 0, 50, 0
3, 29976, Note_on_c, 0, 49, 96
3, 30000, Note_on_c, 0, 49, 0
3, 30000, Note_on_c, 0, 50, 96
3, 30024, Note_on_c, 0, 50, 0
3, 30024, Note_on_c, 0, 52, 96
3, 30048, Note_on_c, 0, 52, 0
3, 30048, Note_on_c, 0, 54, 96
3, 30072, Note_on_c, 0, 54, 0
3, 30072, Note_on_c, 0, 52, 96
3, 30096, Note_on_c, 0, 52, 0
3, 30096, Note_on_c, 0, 54, 96
3, 30120, Note_on_c, 0, 54, 0
3, 30120, Note_on_c, 0, 56, 96
3, 30144, Note_on_c, 0, 56, 0
3, 30144, Note_on_c, 0, 57, 96
3, 30168, Note_on_c, 0, 57, 0
3, 30168, Note_on_c, 0, 56, 96
3, 30192, Note_on_c, 0, 56, 0
3, 30192, Note_on_c, 0, 57, 96
3, 30216, Note_on_c, 0, 57, 0
3, 30216, Note_on_c, 0, 56, 96
3, 30240, Note_on_c, 0, 56, 0
3, 30240, Note_on_c, 0, 57, 96
3, 30288, Note_on_c, 0, 57, 0
3, 30336, Note_on_c, 0, 50, 96
3, 30360, Note_on_c, 0, 50, 0
3, 30360, Note_on_c, 0, 49, 96
3, 30384, Note_on_c, 0, 49, 0
3, 30384, Note_on_c, 0, 50, 96
3, 30408, Note_on_c, 0, 50, 0
3, 30408, Note_on_c, 0, 52, 96
3, 30432, Note_on_c, 0, 52, 0
3, 30432, Note_on_c, 0, 54, 96
3, 30456, Note_on_c, 0, 54, 0
3, 30456, Note_on_c, 0, 52, 96
3, 30480, Note_on_c, 0, 52, 0
3, 30480, Note_on_c, 0, 54, 96
3, 30504, Note_on_c, 0, 54, 0
3, 30504, Note_on_c, 0, 50, 96
3, 30528, Note_on_c, 0, 50, 0
3, 30528, Note_on_c, 0, 55, 96
3, 30552, Note_on_c, 0, 55, 0
3, 30552, Note_on_c, 0, 54, 96
3, 30576, Note_on_c, 0, 54, 0
3, 30576, Note_on_c, 0, 55, 96
3, 30600, Note_on_c, 0, 55, 0
3, 30600, Note_on_c, 0, 54, 96
3, 30624, Note_on_c, 0, 54, 0
3, 30624, Note_on_c, 0, 55, 96
3, 30672, Note_on_c, 0, 55, 0
3, 30720, Note_on_c, 0, 47, 96
3, 30744, Note_on_c, 0, 47, 0
3, 30744, Note_on_c, 0, 46, 96
3, 30768, Note_on_c, 0, 46, 0
3, 30768, Note_on_c, 0, 47, 96
3, 30792, Note_on_c, 0, 47, 0
3, 30792, Note_on_c, 0, 49, 96
3, 30816, Note_on_c, 0, 49, 0
3, 30816, Note_on_c, 0, 51, 96
3, 30840, Note_on_c, 0, 51, 0
3, 30840, Note_on_c, 0, 49, 96
3, 30864, Note_on_c, 0, 49, 0
3, 30864, Note_on_c, 0, 51, 96
3, 30888, Note_on_c, 0, 51, 0
3, 30888, Note_on_c, 0, 47, 96
3, 30912, Note_on_c, 0, 47, 0
3, 30912, Note_on_c, 0, 52, 96
3, 30936, Note_on_c, 0, 52, 0
3, 30936, Note_on_c, 0, 54, 96
3, 30960, Note_on_c, 0, 54, 0
3, 30960, Note_on_c, 0, 52, 96
3, 30984, Note_on_c, 0, 52, 0
3, 30984, Note_on_c, 0, 50, 96
3, 31008, Note_on_c, 0, 50, 0
3, 31008, Note_on_c, 0, 49, 96
3, 31032, Note_on_c, 0, 49, 0
3, 31032, Note_on_c, 0, 47, 96
3, 31056, Note_on_c, 0, 47, 0
3, 31056, Note_on_c, 0, 49, 96
3, 31080, Note_on_c, 0, 49, 0
3, 31080, Note_on_c, 0, 45, 96
3, 31104, Note_on_c, 0, 45, 0
3, 31104, Note_on_c, 0, 50, 96
3, 31128, Note_on_c, 0, 50, 0
3, 31128, Note_on_c, 0, 49, 96
3, 31152, Note_on_c, 0, 49, 0
3, 31152, Note_on_c, 0, 50, 96
3, 31176, Note_on_c, 0, 50, 0
3, 31176, Note_on_c, 0, 52, 96
3, 31200, Note_on_c, 0, 52, 0
3, 31200, Note_on_c, 0, 54, 96
3, 31224, Note_on_c, 0, 54, 0
3, 31224, Note_on_c, 0, 52, 96
3, 31248, Note_on_c, 0, 52, 0
3, 31248, Note_on_c, 0, 54, 96
3, 31272, Note_on_c, 0, 54, 0
3, 31272, Note_on_c, 0, 56, 96
3, 31296, Note_on_c, 0, 56, 0
3, 31296, Note_on_c, 0, 45, 96
3, 31320, Note_on_c, 0, 45, 0
3, 31320, Note_on_c, 0, 49, 96
3, 31344, Note_on_c, 0, 49, 0
3, 31344, Note_on_c, 0, 52, 96
3, 31368, Note_on_c, 0, 52, 0
3, 31368, Note_on_c, 0, 57, 96
3, 31392, Note_on_c, 0, 57, 0
3, 31392, Note_on_c, 0, 45, 96
3, 31416, Note_on_c, 0, 45, 0
3, 31416, Note_on_c, 0, 49, 96
3, 31440, Note_on_c, 0, 49, 0
3, 31440, Note_on_c, 0, 52, 96
3, 31464, Note_on_c, 0, 52, 0
3, 31464, Note_on_c, 0, 57, 96
3, 31488, Note_on_c, 0, 57, 0
3, 31488, Note_on_c, 0, 45, 96
3, 31512, Note_on_c, 0, 45, 0
3, 31512, Note_on_c, 0, 50, 96
3, 31536, Note_on_c, 0, 50, 0
3, 31536, Note_on_c, 0, 54, 96
3, 31560, Note_on_c, 0, 54, 0
3, 31560, Note_on_c, 0, 57, 96
3, 31584, Note_on_c, 0, 57, 0
3, 31584, Note_on_c, 0, 45, 96
3, 31608, Note_on_c, 0, 45, 0
3, 31608, Note_on_c, 0, 50, 96
3, 31632, Note_on_c, 0, 50, 0
3, 31632, Note_on_c, 0, 54, 96
3, 31656, Note_on_c, 0, 54, 0
3, 31656, Note_on_c, 0, 57, 96
3, 31680, Note_on_c, 0, 57, 0
3, 31680, Note_on_c, 0, 45, 96
3, 31704, Note_on_c, 0, 45, 0
3, 31704, Note_on_c, 0, 49, 96
3, 31728, Note_on_c, 0, 49, 0
3, 31728, Note_on_c, 0, 52, 96
3, 31752, Note_on_c, 0, 52, 0
3, 31752, Note_on_c, 0, 57, 96
3, 31776, Note_on_c, 0, 57, 0
3, 31776, Note_on_c, 0, 43, 96
3, 31800, Note_on_c, 0, 43, 0
3, 31800, Note_on_c, 0, 49, 96
3, 31824, Note_on_c, 0, 49, 0
3, 31824, Note_on_c, 0, 52, 96
3, 31848, Note_on_c, 0, 52, 0
3, 31848, Note_on_c, 0, 57, 96
3, 31872, Note_on_c, 0, 57, 0
3, 31872, Note_on_c, 0, 45, 96
3, 31896, Note_on_c, 0, 45, 0
3, 31896, Note_on_c, 0, 50, 96
3, 31920, Note_on_c, 0, 50, 0
3, 31920, Note_on_c, 0, 54, 96
3, 31944, Note_on_c, 0, 54, 0
3, 31944, Note_on_c, 0, 57, 96
3, 31968, Note_on_c, 0, 57, 0
3, 31968, Note_on_c, 0, 45, 96
3, 31992, Note_on_c, 0, 45, 0
3, 31992, Note_on_c, 0, 50, 96
3, 32016, Note_on_c, 0, 50, 0
3, 32016, Note_on_c, 0, 54, 96
3, 32040, Note_on_c, 0, 54, 0
3, 32040, Note_on_c, 0, 57, 96
3, 32064, Note_on_c, 0, 57, 0
3, 32064, Note_on_c, 0, 45, 96
3, 32088, Note_on_c, 0, 45, 0
3, 32088, Note_on_c, 0, 49, 96
3, 32112, Note_on_c, 0, 49, 0
3, 32112, Note_on_c, 0, 52, 96
3, 32136, Note_on_c, 0, 52, 0
3, 32136, Note_on_c, 0, 57, 96
3, 32160, Note_on_c, 0, 57, 0
3, 32160, Note_on_c, 0, 45, 96
3, 32184, Note_on_c, 0, 45, 0
3, 32184, Note_on_c, 0, 50, 96
3, 32208, Note_on_c, 0, 50, 0
3, 32208, Note_on_c, 0, 54, 96
3, 32232, Note_on_c, 0, 54, 0
3, 32232, Note_on_c, 0, 57, 96
3, 32256, Note_on_c, 0, 57, 0
3, 32256, Note_on_c, 0, 45, 96
3, 32280, Note_on_c, 0, 45, 0
3, 32280, Note_on_c, 0, 49, 96
3, 32304, Note_on_c, 0, 49, 0
3, 32304, Note_on_c, 0, 52, 96
3, 32328, Note_on_c, 0, 52, 0
3, 32328, Note_on_c, 0, 57, 96
3, 32352, Note_on_c, 0, 57, 0
3, 32352, Note_on_c, 0, 45, 96
3, 32376, Note_on_c, 0, 45, 0
3, 32376, Note_on_c, 0, 50, 96
3, 32400, Note_on_c, 0, 50, 0
3, 32400, Note_on_c, 0, 54, 96
3, 32424, Note_on_c, 0, 54, 0
3, 32424, Note_on_c, 0, 57, 96
3, 32448, Note_on_c, 0, 57, 0
3, 32448, Note_on_c, 0, 57, 96
3, 32496, Note_on_c, 0, 57, 0
3, 32496, Note_on_c, 0, 57, 96
3, 32520, Note_on_c, 0, 57, 0
3, 32520, Note_on_c, 0, 57, 96
3, 32544, Note_on_c, 0, 57, 0
3, 32544, Note_on_c, 0, 57, 96
3, 32592, Note_on_c, 0, 57, 0
3, 32592, Note_on_c, 0, 57, 96
3, 32640, Note_on_c, 0, 57, 0
3, 32640, Note_on_c, 0, 57, 96
3, 32736, Note_on_c, 0, 57, 0
3, 33984, Note_on_c, 0, 71, 96
3, 34128, Note_on_c, 0, 71, 0
3, 34176, Note_on_c, 0, 61, 96
3, 34368, Note_on_c, 0, 61, 0
3, 35520, Note_on_c, 0, 59, 96
3, 35712, Note_on_c, 0, 59, 0
3, 35712, Note_on_c, 0, 61, 96
3, 35904, Note_on_c, 0, 61, 0
3, 36000, Note_on_c, 0, 71, 96
3, 36048, Note_on_c, 0, 71, 0
3, 36384, Note_on_c, 0, 69, 96
3, 36432, Note_on_c, 0, 69, 0
3, 36768, Note_on_c, 0, 67, 96
3, 36816, Note_on_c, 0, 67, 0
3, 37824, Note_on_c, 0, 62, 96
3, 37920, Note_on_c, 0, 62, 0
3, 37968, Note_on_c, 0, 50, 96
3, 38016, Note_on_c, 0, 50, 0
3, 38016, Note_on_c, 0, 52, 96
3, 38064, Note_on_c, 0, 52, 0
3, 38064, Note_on_c, 0, 54, 96
3, 38112, Note_on_c, 0, 54, 0
3, 38112, Note_on_c, 0, 55, 96
3, 38160, Note_on_c, 0, 55, 0
3, 38160, Note_on_c, 0, 56, 96
3, 38208, Note_on_c, 0, 56, 0
3, 38208, Note_on_c, 0, 59, 96
3, 38256, Note_on_c, 0, 59, 0
3, 38256, Note_on_c, 0, 57, 96
3, 38304, Note_on_c, 0, 57, 0
3, 38352, Note_on_c, 0, 50, 96
3, 38400, Note_on_c, 0, 50, 0
3, 38400, Note_on_c, 0, 52, 96
3, 38448, Note_on_c, 0, 52, 0
3, 38448, Note_on_c, 0, 54, 96
3, 38496, Note_on_c, 0, 54, 0
3, 38496, Note_on_c, 0, 55, 96
3, 38544, Note_on_c, 0, 55, 0
3, 38544, Note_on_c, 0, 56, 96
3, 38592, Note_on_c, 0, 56, 0
3, 38592, Note_on_c, 0, 59, 96
3, 38640, Note_on_c, 0, 59, 0
3, 38640, Note_on_c, 0, 57, 96
3, 38688, Note_on_c, 0, 57, 0
3, 38736, Note_on_c, 0, 50, 96
3, 38784, Note_on_c, 0, 50, 0
3, 38784, Note_on_c, 0, 52, 96
3, 38832, Note_on_c, 0, 52, 0
3, 38832, Note_on_c, 0, 54, 96
3, 38880, Note_on_c, 0, 54, 0
3, 38880, Note_on_c, 0, 55, 96
3, 38928, Note_on_c, 0, 55, 0
3, 38928, Note_on_c, 0, 57, 96
3, 38976, Note_on_c, 0, 57, 0
3, 38976, Note_on_c, 0, 58, 96
3, 39072, Note_on_c, 0, 58, 0
3, 39072, Note_on_c, 0, 57, 96
3, 39168, Note_on_c, 0, 57, 0
3, 39168, Note_on_c, 0, 56, 96
3, 39264, Note_on_c, 0, 56, 0
3, 39264, Note_on_c, 0, 55, 96
3, 39360, Note_on_c, 0, 55, 0
3, 39360, Note_on_c, 0, 54, 96
3, 39408, Note_on_c, 0, 54, 0
3, 39408, Note_on_c, 0, 54, 96
3, 39456, Note_on_c, 0, 54, 0
3, 39456, Note_on_c, 0, 55, 96
3, 39504, Note_on_c, 0, 55, 0
3, 39504, Note_on_c, 0, 55, 96
3, 39552, Note_on_c, 0, 55, 0
3, 39552, Note_on_c, 0, 57, 96
3, 39600, Note_on_c, 0, 57, 0
3, 39600, Note_on_c, 0, 57, 96
3, 39648, Note_on_c, 0, 57, 0
3, 39648, Note_on_c, 0, 45, 96
3, 39696, Note_on_c, 0, 45, 0
3, 39696, Note_on_c, 0, 45, 96
3, 39744, Note_on_c, 0, 45, 0
3, 39744, Note_on_c, 0, 50, 96
3, 39792, Note_on_c, 0, 50, 0
3, 40176, Note_on_c, 0, 64, 96
3, 40224, Note_on_c, 0, 64, 0
3, 40224, Note_on_c, 0, 62, 96
3, 40272, Note_on_c, 0, 62, 0
3, 40560, Note_on_c, 0, 64, 96
3, 40608, Note_on_c, 0, 64, 0
3, 40608, Note_on_c, 0, 62, 96
3, 40656, Note_on_c, 0, 62, 0
3, 41040, Note_on_c, 0, 48, 96
3, 41088, Note_on_c, 0, 48, 0
3, 41088, Note_on_c, 0, 49, 96
3, 41136, Note_on_c, 0, 49, 0
3, 41136, Note_on_c, 0, 50, 96
3, 41184, Note_on_c, 0, 50, 0
3, 41184, Note_on_c, 0, 51, 96
3, 41232, Note_on_c, 0, 51, 0
3, 41232, Note_on_c, 0, 52, 96
3, 41280, Note_on_c, 0, 52, 0
3, 41280, Note_on_c, 0, 53, 96
3, 41472, Note_on_c, 0, 53, 0
3, 41472, Note_on_c, 0, 58, 96
3, 41664, Note_on_c, 0, 58, 0
3, 41664, Note_on_c, 0, 57, 96
3, 41760, Note_on_c, 0, 57, 0
3, 41760, Note_on_c, 0, 62, 96
3, 41952, Note_on_c, 0, 62, 0
3, 41952, Note_on_c, 0, 61, 96
3, 42048, Note_on_c, 0, 61, 0
3, 42048, Note_on_c, 0, 50, 96
3, 42072, Note_on_c, 0, 50, 0
3, 42072, Note_on_c, 0, 57, 96
3, 42096, Note_on_c, 0, 57, 0
3, 42096, Note_on_c, 0, 54, 96
3, 42120, Note_on_c, 0, 54, 0
3, 42120, Note_on_c, 0, 57, 96
3, 42144, Note_on_c, 0, 57, 0
3, 42144, Note_on_c, 0, 54, 96
3, 42168, Note_on_c, 0, 54, 0
3, 42168, Note_on_c, 0, 57, 96
3, 42192, Note_on_c, 0, 57, 0
3, 42192, Note_on_c, 0, 54, 96
3, 42216, Note_on_c, 0, 54, 0
3, 42216, Note_on_c, 0, 57, 96
3, 42240, Note_on_c, 0, 57, 0
3, 42240, Note_on_c, 0, 54, 96
3, 42264, Note_on_c, 0, 54, 0
3, 42264, Note_on_c, 0, 57, 96
3, 42288, Note_on_c, 0, 57, 0
3, 42288, Note_on_c, 0, 54, 96
3, 42312, Note_on_c, 0, 54, 0
3, 42312, Note_on_c, 0, 57, 96
3, 42336, Note_on_c, 0, 57, 0
3, 42336, Note_on_c, 0, 54, 96
3, 42360, Note_on_c, 0, 54, 0
3, 42360, Note_on_c, 0, 57, 96
3, 42384, Note_on_c, 0, 57, 0
3, 42384, Note_on_c, 0, 54, 96
3, 42408, Note_on_c, 0, 54, 0
3, 42408, Note_on_c, 0, 57, 96
3, 42432, Note_on_c, 0, 57, 0
3, 42432, Note_on_c, 0, 55, 96
3, 42456, Note_on_c, 0, 55, 0
3, 42456, Note_on_c, 0, 57, 96
3, 42480, Note_on_c, 0, 57, 0
3, 42480, Note_on_c, 0, 55, 96
3, 42504, Note_on_c, 0, 55, 0
3, 42504, Note_on_c, 0, 57, 96
3, 42528, Note_on_c, 0, 57, 0
3, 42528, Note_on_c, 0, 52, 96
3, 42552, Note_on_c, 0, 52, 0
3, 42552, Note_on_c, 0, 55, 96
3, 42576, Note_on_c, 0, 55, 0
3, 42576, Note_on_c, 0, 52, 96
3, 42600, Note_on_c, 0, 52, 0
3, 42600, Note_on_c, 0, 55, 96
3, 42624, Note_on_c, 0, 55, 0
3, 42624, Note_on_c, 0, 54, 96
3, 42648, Note_on_c, 0, 54, 0
3, 42648, Note_on_c, 0, 57, 96
3, 42672, Note_on_c, 0, 57, 0
3, 42672, Note_on_c, 0, 54, 96
3, 42696, Note_on_c, 0, 54, 0
3, 42696, Note_on_c, 0, 57, 96
3, 42720, Note_on_c, 0, 57, 0
3, 42720, Note_on_c, 0, 55, 96
3, 42744, Note_on_c, 0, 55, 0
3, 42744, Note_on_c, 0, 61, 96
3, 42768, Note_on_c, 0, 61, 0
3, 42768, Note_on_c, 0, 55, 96
3, 42792, Note_on_c, 0, 55, 0
3, 42792, Note_on_c, 0, 61, 96
3, 42816, Note_on_c, 0, 61, 0
3, 42816, Note_on_c, 0, 54, 96
3, 42840, Note_on_c, 0, 54, 0
3, 42840, Note_on_c, 0, 57, 96
3, 42864, Note_on_c, 0, 57, 0
3, 42864, Note_on_c, 0, 54, 96
3, 42888, Note_on_c, 0, 54, 0
3, 42888, Note_on_c, 0, 57, 96
3, 42912, Note_on_c, 0, 57, 0
3, 42912, Note_on_c, 0, 54, 96
3, 42936, Note_on_c, 0, 54, 0
3, 42936, Note_on_c, 0, 57, 96
3, 42960, Note_on_c, 0, 57, 0
3, 42960, Note_on_c, 0, 54, 96
3, 42984, Note_on_c, 0, 54, 0
3, 42984, Note_on_c, 0, 57, 96
3, 43008, Note_on_c, 0, 57, 0
3, 43008, Note_on_c, 0, 57, 96
3, 43032, Note_on_c, 0, 57, 0
3, 43032, Note_on_c, 0, 62, 96
3, 43056, Note_on_c, 0, 62, 0
3, 43056, Note_on_c, 0, 57, 96
3, 43080, Note_on_c, 0, 57, 0
3, 43080, Note_on_c, 0, 62, 96
3, 43104, Note_on_c, 0, 62, 0
3, 43104, Note_on_c, 0, 57, 96
3, 43128, Note_on_c, 0, 57, 0
3, 43128, Note_on_c, 0, 62, 96
3, 43152, Note_on_c, 0, 62, 0
3, 43152, Note_on_c, 0, 57, 96
3, 43176, Note_on_c, 0, 57, 0
3, 43176, Note_on_c, 0, 62, 96
3, 43200, Note_on_c, 0, 62, 0
3, 43200, Note_on_c, 0, 59, 96
3, 43224, Note_on_c, 0, 59, 0
3, 43224, Note_on_c, 0, 64, 96
3, 43248, Note_on_c, 0, 64, 0
3, 43248, Note_on_c, 0, 59, 96
3, 43272, Note_on_c, 0, 59, 0
3, 43272, Note_on_c, 0, 64, 96
3, 43296, Note_on_c, 0, 64, 0
3, 43296, Note_on_c, 0, 59, 96
3, 43320, Note_on_c, 0, 59, 0
3, 43320, Note_on_c, 0, 64, 96
3, 43344, Note_on_c, 0, 64, 0
3, 43344, Note_on_c, 0, 59, 96
3, 43368, Note_on_c, 0, 59, 0
3, 43368, Note_on_c, 0, 64, 96
3, 43392, Note_on_c, 0, 64, 0
3, 43392, Note_on_c, 0, 64, 96
3, 43416, Note_on_c, 0, 64, 0
3, 43416, Note_on_c, 0, 67, 96
3, 43440, Note_on_c, 0, 67, 0
3, 43440, Note_on_c, 0, 64, 96
3, 43464, Note_on_c, 0, 64, 0
3, 43464, Note_on_c, 0, 67, 96
3, 43488, Note_on_c, 0, 67, 0
3, 43488, Note_on_c, 0, 64, 96
3, 43512, Note_on_c, 0, 64, 0
3, 43512, Note_on_c, 0, 67, 96
3, 43536, Note_on_c, 0, 67, 0
3, 43536, Note_on_c, 0, 64, 96
3, 43560, Note_on_c, 0, 64, 0
3, 43560, Note_on_c, 0, 67, 96
3, 43584, Note_on_c, 0, 67, 0
3, 43584, Note_on_c, 0, 57, 96
3, 43608, Note_on_c, 0, 57, 0
3, 43608, Note_on_c, 0, 62, 96
3, 43632, Note_on_c, 0, 62, 0
3, 43632, Note_on_c, 0, 57, 96
3, 43656, Note_on_c, 0, 57, 0
3, 43656, Note_on_c, 0, 62, 96
3, 43680, Note_on_c, 0, 62, 0
3, 43680, Note_on_c, 0, 57, 96
3, 43704, Note_on_c, 0, 57, 0
3, 43704, Note_on_c, 0, 62, 96
3, 43728, Note_on_c, 0, 62, 0
3, 43728, Note_on_c, 0, 57, 96
3, 43752, Note_on_c, 0, 57, 0
3, 43752, Note_on_c, 0, 62, 96
3, 43776, Note_on_c, 0, 62, 0
3, 43776, Note_on_c, 0, 54, 96
3, 43800, Note_on_c, 0, 54, 0
3, 43800, Note_on_c, 0, 57, 96
3, 43824, Note_on_c, 0, 57, 0
3, 43824, Note_on_c, 0, 54, 96
3, 43848, Note_on_c, 0, 54, 0
3, 43848, Note_on_c, 0, 57, 96
3, 43872, Note_on_c, 0, 57, 0
3, 43872, Note_on_c, 0, 54, 96
3, 43896, Note_on_c, 0, 54, 0
3, 43896, Note_on_c, 0, 57, 96
3, 43920, Note_on_c, 0, 57, 0
3, 43920, Note_on_c, 0, 54, 96
3, 43944, Note_on_c, 0, 54, 0
3, 43944, Note_on_c, 0, 57, 96
3, 43968, Note_on_c, 0, 57, 0
3, 43968, Note_on_c, 0, 55, 96
3, 43992, Note_on_c, 0, 55, 0
3, 43992, Note_on_c, 0, 57, 96
3, 44016, Note_on_c, 0, 57, 0
3, 44016, Note_on_c, 0, 55, 96
3, 44040, Note_on_c, 0, 55, 0
3, 44040, Note_on_c, 0, 57, 96
3, 44064, Note_on_c, 0, 57, 0
3, 44064, Note_on_c, 0, 52, 96
3, 44088, Note_on_c, 0, 52, 0
3, 44088, Note_on_c, 0, 55, 96
3, 44112, Note_on_c, 0, 55, 0
3, 44112, Note_on_c, 0, 52, 96
3, 44136, Note_on_c, 0, 52, 0
3, 44136, Note_on_c, 0, 55, 96
3, 44160, Note_on_c, 0, 55, 0
3, 44160, Note_on_c, 0, 54, 96
3, 44184, Note_on_c, 0, 54, 0
3, 44184, Note_on_c, 0, 57, 96
3, 44208, Note_on_c, 0, 57, 0
3, 44208, Note_on_c, 0, 54, 96
3, 44232, Note_on_c, 0, 54, 0
3, 44232, Note_on_c, 0, 57, 96
3, 44256, Note_on_c, 0, 57, 0
3, 44256, Note_on_c, 0, 55, 96
3, 44280, Note_on_c, 0, 55, 0
3, 44280, Note_on_c, 0, 57, 96
3, 44304, Note_on_c, 0, 57, 0
3, 44304, Note_on_c, 0, 55, 96
3, 44328, Note_on_c, 0, 55, 0
3, 44328, Note_on_c, 0, 57, 96
3, 44352, Note_on_c, 0, 57, 0
3, 44352, Note_on_c, 0, 54, 96
3, 44376, Note_on_c, 0, 54, 0
3, 44376, Note_on_c, 0, 57, 96
3, 44400, Note_on_c, 0, 57, 0
3, 44400, Note_on_c, 0, 54, 96
3, 44424, Note_on_c, 0, 54, 0
3, 44424, Note_on_c, 0, 57, 96
3, 44448, Note_on_c, 0, 57, 0
3, 44448, Note_on_c, 0, 54, 96
3, 44472, Note_on_c, 0, 54, 0
3, 44472, Note_on_c, 0, 57, 96
3, 44496, Note_on_c, 0, 57, 0
3, 44496, Note_on_c, 0, 54, 96
3, 44520, Note_on_c, 0, 54, 0
3, 44520, Note_on_c, 0, 57, 96
3, 44544, Note_on_c, 0, 57, 0
3, 44544, Note_on_c, 0, 45, 96
3, 44568, Note_on_c, 0, 45, 0
3, 44568, Note_on_c, 0, 50, 96
3, 44592, Note_on_c, 0, 50, 0
3, 44592, Note_on_c, 0, 45, 96
3, 44616, Note_on_c, 0, 45, 0
3, 44616, Note_on_c, 0, 50, 96
3, 44640, Note_on_c, 0, 50, 0
3, 44640, Note_on_c, 0, 45, 96
3, 44664, Note_on_c, 0, 45, 0
3, 44664, Note_on_c, 0, 50, 96
3, 44688, Note_on_c, 0, 50, 0
3, 44688, Note_on_c, 0, 45, 96
3, 44712, Note_on_c, 0, 45, 0
3, 44712, Note_on_c, 0, 50, 96
3, 44736, Note_on_c, 0, 50, 0
3, 44736, Note_on_c, 0, 47, 96
3, 44760, Note_on_c, 0, 47, 0
3, 44760, Note_on_c, 0, 52, 96
3, 44784, Note_on_c, 0, 52, 0
3, 44784, Note_on_c, 0, 47, 96
3, 44808, Note_on_c, 0, 47, 0
3, 44808, Note_on_c, 0, 52, 96
3, 44832, Note_on_c, 0, 52, 0
3, 44832, Note_on_c, 0, 47, 96
3, 44856, Note_on_c, 0, 47, 0
3, 44856, Note_on_c, 0, 52, 96
3, 44880, Note_on_c, 0, 52, 0
3, 44880, Note_on_c, 0, 47, 96
3, 44904, Note_on_c, 0, 47, 0
3, 44904, Note_on_c, 0, 52, 96
3, 44928, Note_on_c, 0, 52, 0
3, 44928, Note_on_c, 0, 52, 96
3, 44952, Note_on_c, 0, 52, 0
3, 44952, Note_on_c, 0, 55, 96
3, 44976, Note_on_c, 0, 55, 0
3, 44976, Note_on_c, 0, 52, 96
3, 45000, Note_on_c, 0, 52, 0
3, 45000, Note_on_c, 0, 55, 96
3, 45024, Note_on_c, 0, 55, 0
3, 45024, Note_on_c, 0, 52, 96
3, 45048, Note_on_c, 0, 52, 0
3, 45048, Note_on_c, 0, 55, 96
3, 45072, Note_on_c, 0, 55, 0
3, 45072, Note_on_c, 0, 52, 96
3, 45096, Note_on_c, 0, 52, 0
3, 45096, Note_on_c, 0, 55, 96
3, 45120, Note_on_c, 0, 55, 0
3, 45120, Note_on_c, 0, 54, 96
3, 45168, Note_on_c, 0, 54, 0
3, 45216, Note_on_c, 0, 50, 96
3, 45264, Note_on_c, 0, 50, 0
3, 45312, Note_on_c, 0, 50, 96
3, 45360, Note_on_c, 0, 50, 0
3, 45408, Note_on_c, 0, 50, 96
3, 45456, Note_on_c, 0, 50, 0
3, 45504, Note_on_c, 0, 50, 96
3, 45552, Note_on_c, 0, 50, 0
3, 45600, Note_on_c, 0, 50, 96
3, 45648, Note_on_c, 0, 50, 0
3, 45696, Note_on_c, 0, 50, 96
3, 45744, Note_on_c, 0, 50, 0
3, 45792, Note_on_c, 0, 50, 96
3, 45840, Note_on_c, 0, 50, 0
3, 45888, Note_on_c, 0, 54, 96
3, 46080, Note_on_c, 0, 54, 0
3, 46080, Note_on_c, 0, 54, 96
3, 46176, Note_on_c, 0, 54, 0
3, 46176, Note_on_c, 0, 57, 96
3, 46272, Note_on_c, 0, 57, 0
3, 46272, Note_on_c, 0, 55, 96
3, 46368, Note_on_c, 0, 55, 0
3, 46368, Note_on_c, 0, 59, 96
3, 46464, Note_on_c, 0, 59, 0
3, 46464, Note_on_c, 0, 52, 96
3, 46560, Note_on_c, 0, 52, 0
3, 46560, Note_on_c, 0, 52, 96
3, 46656, Note_on_c, 0, 52, 0
3, 46656, Note_on_c, 0, 54, 96
3, 46704, Note_on_c, 0, 54, 0
3, 46752, Note_on_c, 0, 62, 96
3, 46800, Note_on_c, 0, 62, 0
3, 46848, Note_on_c, 0, 62, 96
3, 46896, Note_on_c, 0, 62, 0
3, 46944, Note_on_c, 0, 62, 96
3, 46992, Note_on_c, 0, 62, 0
3, 47040, Note_on_c, 0, 62, 96
3, 47088, Note_on_c, 0, 62, 0
3, 47136, Note_on_c, 0, 62, 96
3, 47184, Note_on_c, 0, 62, 0
3, 47232, Note_on_c, 0, 62, 96
3, 47280, Note_on_c, 0, 62, 0
3, 47328, Note_on_c, 0, 62, 96
3, 47376, Note_on_c, 0, 62, 0
3, 47424, Note_on_c, 0, 54, 96
3, 47472, Note_on_c, 0, 54, 0
3, 47472, Note_on_c, 0, 62, 96
3, 47520, Note_on_c, 0, 62, 0
3, 47520, Note_on_c, 0, 54, 96
3, 47568, Note_on_c, 0, 54, 0
3, 47568, Note_on_c, 0, 62, 96
3, 47616, Note_on_c, 0, 62, 0
3, 47616, Note_on_c, 0, 54, 96
3, 47664, Note_on_c, 0, 54, 0
3, 47664, Note_on_c, 0, 60, 96
3, 47712, Note_on_c, 0, 60, 0
3, 47712, Note_on_c, 0, 54, 96
3, 47760, Note_on_c, 0, 54, 0
3, 47760, Note_on_c, 0, 60, 96
3, 47808, Note_on_c, 0, 60, 0
3, 47808, Note_on_c, 0, 50, 96
3, 47832, Note_on_c, 0, 50, 0
3, 47832, Note_on_c, 0, 62, 96
3, 47856, Note_on_c, 0, 62, 0
3, 47856, Note_on_c, 0, 50, 96
3, 47880, Note_on_c, 0, 50, 0
3, 47880, Note_on_c, 0, 62, 96
3, 47904, Note_on_c, 0, 62, 0
3, 47904, Note_on_c, 0, 50, 96
3, 47928, Note_on_c, 0, 50, 0
3, 47928, Note_on_c, 0, 62, 96
3, 47952, Note_on_c, 0, 62, 0
3, 47952, Note_on_c, 0, 50, 96
3, 47976, Note_on_c, 0, 50, 0
3, 47976, Note_on_c, 0, 62, 96
3, 48000, Note_on_c, 0, 62, 0
3, 48000, Note_on_c, 0, 50, 96
3, 48024, Note_on_c, 0, 50, 0
3, 48024, Note_on_c, 0, 62, 96
3, 48048, Note_on_c, 0, 62, 0
3, 48048, Note_on_c, 0, 50, 96
3, 48072, Note_on_c, 0, 50, 0
3, 48072, Note_on_c, 0, 62, 96
3, 48096, Note_on_c, 0, 62, 0
3, 48096, Note_on_c, 0, 50, 96
3, 48120, Note_on_c, 0, 50, 0
3, 48120, Note_on_c, 0, 62, 96
3, 48144, Note_on_c, 0, 62, 0
3, 48144, Note_on_c, 0, 50, 96
3, 48168, Note_on_c, 0, 50, 0
3, 48168, Note_on_c, 0, 62, 96
3, 48192, Note_on_c, 0, 62, 0
3, 48192, Note_on_c, 0, 62, 96
3, 48288, Note_on_c, 0, 62, 0
3, 48336, Note_on_c, 0, 55, 96
3, 48384, Note_on_c, 0, 55, 0
3, 48384, Note_on_c, 0, 54, 96
3, 48432, Note_on_c, 0, 54, 0
3, 48432, Note_on_c, 0, 50, 96
3, 48480, Note_on_c, 0, 50, 0
3, 48528, Note_on_c, 0, 55, 96
3, 48576, Note_on_c, 0, 55, 0
3, 48576, Note_on_c, 0, 54, 96
3, 48624, Note_on_c, 0, 54, 0
3, 48624, Note_on_c, 0, 50, 96
3, 48672, Note_on_c, 0, 50, 0
3, 48720, Note_on_c, 0, 55, 96
3, 48768, Note_on_c, 0, 55, 0
3, 48768, Note_on_c, 0, 54, 96
3, 48816, Note_on_c, 0, 54, 0
3, 48816, Note_on_c, 0, 50, 96
3, 48864, Note_on_c, 0, 50, 0
3, 48864, Note_on_c, 0, 54, 96
3, 48912, Note_on_c, 0, 54, 0
3, 48912, Note_on_c, 0, 55, 96
3, 48960, Note_on_c, 0, 55, 0
3, 48960, Note_on_c, 0, 54, 96
3, 49008, Note_on_c, 0, 54, 0
3, 49008, Note_on_c, 0, 50, 96
3, 49056, Note_on_c, 0, 50, 0
3, 49104, Note_on_c, 0, 57, 96
3, 49152, Note_on_c, 0, 57, 0
3, 49152, Note_on_c, 0, 54, 96
3, 49200, Note_on_c, 0, 54, 0
3, 49200, Note_on_c, 0, 50, 96
3, 49248, Note_on_c, 0, 50, 0
3, 49296, Note_on_c, 0, 57, 96
3, 49344, Note_on_c, 0, 57, 0
3, 49344, Note_on_c, 0, 54, 96
3, 49392, Note_on_c, 0, 54, 0
3, 49392, Note_on_c, 0, 50, 96
3, 49440, Note_on_c, 0, 50, 0
3, 49488, Note_on_c, 0, 57, 96
3, 49536, Note_on_c, 0, 57, 0
3, 49536, Note_on_c, 0, 54, 96
3, 49584, Note_on_c, 0, 54, 0
3, 49584, Note_on_c, 0, 57, 96
3, 49632, Note_on_c, 0, 57, 0
3, 49632, Note_on_c, 0, 54, 96
3, 49680, Note_on_c, 0, 54, 0
3, 49680, Note_on_c, 0, 57, 96
3, 49728, Note_on_c, 0, 57, 0
3, 49728, Note_on_c, 0, 50, 96
3, 49872, Note_on_c, 0, 50, 0
3, 49896, Note_on_c, 0, 62, 96
3, 49920, Note_on_c, 0, 62, 0
3, 49920, Note_on_c, 0, 61, 96
3, 49944, Note_on_c, 0, 61, 0
3, 49944, Note_on_c, 0, 59, 96
3, 49968, Note_on_c, 0, 59, 0
3, 49968, Note_on_c, 0, 57, 96
3, 49992, Note_on_c, 0, 57, 0
3, 49992, Note_on_c, 0, 55, 96
3, 50016, Note_on_c, 0, 55, 0
3, 50016, Note_on_c, 0, 54, 96
3, 50040, Note_on_c, 0, 54, 0
3, 50040, Note_on_c, 0, 52, 96
3, 50064, Note_on_c, 0, 52, 0
3, 50064, Note_on_c, 0, 50, 96
3, 50088, Note_on_c, 0, 50, 0
3, 50088, Note_on_c, 0, 49, 96
3, 50112, Note_on_c, 0, 49, 0
3, 50112, Note_on_c, 0, 47, 96
3, 50304, Note_on_c, 0, 47, 0
3, 50304, Note_on_c, 0, 47, 96
3, 50316, Note_on_c, 0, 47, 0
3, 50316, Note_on_c, 0, 49, 96
3, 50328, Note_on_c, 0, 49, 0
3, 50328, Note_on_c, 0, 47, 96
3, 50340, Note_on_c, 0, 47, 0
3, 50340, Note_on_c, 0, 49, 96
3, 50352, Note_on_c, 0, 49, 0
3, 50352, Note_on_c, 0, 47, 96
3, 50364, Note_on_c, 0, 47, 0
3, 50364, Note_on_c, 0, 49, 96
3, 50376, Note_on_c, 0, 49, 0
3, 50376, Note_on_c, 0, 47, 96
3, 50388, Note_on_c, 0, 47, 0
3, 50388, Note_on_c, 0, 49, 96
3, 50400, Note_on_c, 0, 49, 0
3, 50400, Note_on_c, 0, 47, 96
3, 50412, Note_on_c, 0, 47, 0
3, 50412, Note_on_c, 0, 49, 96
3, 50424, Note_on_c, 0, 49, 0
3, 50424, Note_on_c, 0, 47, 96
3, 50436, Note_on_c, 0, 47, 0
3, 50436, Note_on_c, 0, 49, 96
3, 50448, Note_on_c, 0, 49, 0
3, 50448, Note_on_c, 0, 47, 96
3, 50460, Note_on_c, 0, 47, 0
3, 50460, Note_on_c, 0, 49, 96
3, 50472, Note_on_c, 0, 49, 0
3, 50472, Note_on_c, 0, 47, 96
3, 50484, Note_on_c, 0, 47, 0
3, 50484, Note_on_c, 0, 49, 96
3, 50496, Note_on_c, 0, 49, 0
3, 50496, Note_on_c, 0, 50, 96
3, 50544, Note_on_c, 0, 50, 0
3, 50592, Note_on_c, 0, 62, 96
3, 50640, Note_on_c, 0, 62, 0
3, 50688, Note_on_c, 0, 55, 96
3, 50736, Note_on_c, 0, 55, 0
3, 50784, Note_on_c, 0, 57, 96
3, 50832, Note_on_c, 0, 57, 0
3, 50880, Note_on_c, 0, 50, 96
3, 50976, Note_on_c, 0, 50, 0
3, 51024, Note_on_c, 0, 55, 96
3, 51072, Note_on_c, 0, 55, 0
3, 51072, Note_on_c, 0, 54, 96
3, 51120, Note_on_c, 0, 54, 0
3, 51120, Note_on_c, 0, 50, 96
3, 51168, Note_on_c, 0, 50, 0
3, 51216, Note_on_c, 0, 55, 96
3, 51264, Note_on_c, 0, 55, 0
3, 51264, Note_on_c, 0, 54, 96
3, 51312, Note_on_c, 0, 54, 0
3, 51312, Note_on_c, 0, 50, 96
3, 51360, Note_on_c, 0, 50, 0
3, 51408, Note_on_c, 0, 55, 96
3, 51456, Note_on_c, 0, 55, 0
3, 51456, Note_on_c, 0, 54, 96
3, 51504, Note_on_c, 0, 54, 0
3, 51504, Note_on_c, 0, 50, 96
3, 51552, Note_on_c, 0, 50, 0
3, 51552, Note_on_c, 0, 54, 96
3, 51600, Note_on_c, 0, 54, 0
3, 51600, Note_on_c, 0, 55, 96
3, 51648, Note_on_c, 0, 55, 0
3, 51648, Note_on_c, 0, 54, 96
3, 51696, Note_on_c, 0, 54, 0
3, 51696, Note_on_c, 0, 50, 96
3, 51744, Note_on_c, 0, 50, 0
3, 51792, Note_on_c, 0, 57, 96
3, 51840, Note_on_c, 0, 57, 0
3, 51840, Note_on_c, 0, 54, 96
3, 51888, Note_on_c, 0, 54, 0
3, 51888, Note_on_c, 0, 50, 96
3, 51936, Note_on_c, 0, 50, 0
3, 51984, Note_on_c, 0, 57, 96
3, 52032, Note_on_c, 0, 57, 0
3, 52032, Note_on_c, 0, 54, 96
3, 52080, Note_on_c, 0, 54, 0
3, 52080, Note_on_c, 0, 50, 96
3, 52128, Note_on_c, 0, 50, 0
3, 52176, Note_on_c, 0, 57, 96
3, 52224, Note_on_c, 0, 57, 0
3, 52224, Note_on_c, 0, 54, 96
3, 52272, Note_on_c, 0, 54, 0
3, 52272, Note_on_c, 0, 57, 96
3, 52320, Note_on_c, 0, 57, 0
3, 52320, Note_on_c, 0, 54, 96
3, 52368, Note_on_c, 0, 54, 0
3, 52368, Note_on_c, 0, 57, 96
3, 52416, Note_on_c, 0, 57, 0
3, 52416, Note_on_c, 0, 50, 96
3, 52560, Note_on_c, 0, 50, 0
3, 52584, Note_on_c, 0, 62, 96
3, 52608, Note_on_c, 0, 62, 0
3, 52608, Note_on_c, 0, 61, 96
3, 52632, Note_on_c, 0, 61, 0
3, 52632, Note_on_c, 0, 59, 96
3, 52656, Note_on_c, 0, 59, 0
3, 52656, Note_on_c, 0, 57, 96
3, 52680, Note_on_c, 0, 57, 0
3, 52680, Note_on_c, 0, 55, 96
3, 52704, Note_on_c, 0, 55, 0
3, 52704, Note_on_c, 0, 54, 96
3, 52728, Note_on_c, 0, 54, 0
3, 52728, Note_on_c, 0, 52, 96
3, 52752, Note_on_c, 0, 52, 0
3, 52752, Note_on_c, 0, 50, 96
3, 52776, Note_on_c, 0, 50, 0
3, 52776, Note_on_c, 0, 49, 96
3, 52800, Note_on_c, 0, 49, 0
3, 52800, Note_on_c, 0, 47, 96
3, 52992, Note_on_c, 0, 47, 0
3, 52992, Note_on_c, 0, 47, 96
3, 53004, Note_on_c, 0, 47, 0
3, 53004, Note_on_c, 0, 49, 96
3, 53016, Note_on_c, 0, 49, 0
3, 53016, Note_on_c, 0, 47, 96
3, 53028, Note_on_c, 0, 47, 0
3, 53028, Note_on_c, 0, 49, 96
3, 53040, Note_on_c, 0, 49, 0
3, 53040, Note_on_c, 0, 47, 96
3, 53052, Note_on_c, 0, 47, 0
3, 53052, Note_on_c, 0, 49, 96
3, 53064, Note_on_c, 0, 49, 0
3, 53064, Note_on_c, 0, 47, 96
3, 53076, Note_on_c, 0, 47, 0
3, 53076, Note_on_c, 0, 49, 96
3, 53088, Note_on_c, 0, 49, 0
3, 53088, Note_on_c, 0, 47, 96
3, 53100, Note_on_c, 0, 47, 0
3, 53100, Note_on_c, 0, 49, 96
3, 53112, Note_on_c, 0, 49, 0
3, 53112, Note_on_c, 0, 47, 96
3, 53124, Note_on_c, 0, 47, 0
3, 53124, Note_on_c, 0, 49, 96
3, 53136, Note_on_c, 0, 49, 0
3, 53136, Note_on_c, 0, 47, 96
3, 53148, Note_on_c, 0, 47, 0
3, 53148, Note_on_c, 0, 49, 96
3, 53160, Note_on_c, 0, 49, 0
3, 53160, Note_on_c, 0, 47, 96
3, 53172, Note_on_c, 0, 47, 0
3, 53172, Note_on_c, 0, 49, 96
3, 53184, Note_on_c, 0, 49, 0
3, 53184, Note_on_c, 0, 50, 96
3, 53232, Note_on_c, 0, 50, 0
3, 53280, Note_on_c, 0, 62, 96
3, 53328, Note_on_c, 0, 62, 0
3, 53376, Note_on_c, 0, 55, 96
3, 53424, Note_on_c, 0, 55, 0
3, 53472, Note_on_c, 0, 57, 96
3, 53520, Note_on_c, 0, 57, 0
3, 53568, Note_on_c, 0, 47, 96
3, 53760, Note_on_c, 0, 47, 0
3, 53760, Note_on_c, 0, 47, 96
3, 53772, Note_on_c, 0, 47, 0
3, 53772, Note_on_c, 0, 49, 96
3, 53784, Note_on_c, 0, 49, 0
3, 53784, Note_on_c, 0, 47, 96
3, 53796, Note_on_c, 0, 47, 0
3, 53796, Note_on_c, 0, 49, 96
3, 53808, Note_on_c, 0, 49, 0
3, 53808, Note_on_c, 0, 47, 96
3, 53820, Note_on_c, 0, 47, 0
3, 53820, Note_on_c, 0, 49, 96
3, 53832, Note_on_c, 0, 49, 0
3, 53832, Note_on_c, 0, 47, 96
3, 53844, Note_on_c, 0, 47, 0
3, 53844, Note_on_c, 0, 49, 96
3, 53856, Note_on_c, 0, 49, 0
3, 53856, Note_on_c, 0, 47, 96
3, 53868, Note_on_c, 0, 47, 0
3, 53868, Note_on_c, 0, 49, 96
3, 53880, Note_on_c, 0, 49, 0
3, 53880, Note_on_c, 0, 47, 96
3, 53892, Note_on_c, 0, 47, 0
3, 53892, Note_on_c, 0, 49, 96
3, 53904, Note_on_c, 0, 49, 0
3, 53904, Note_on_c, 0, 47, 96
3, 53916, Note_on_c, 0, 47, 0
3, 53916, Note_on_c, 0, 49, 96
3, 53928, Note_on_c, 0, 49, 0
3, 53928, Note_on_c, 0, 47, 96
3, 53940, Note_on_c, 0, 47, 0
3, 53940, Note_on_c, 0, 49, 96
3, 53952, Note_on_c, 0, 49, 0
3, 53952, Note_on_c, 0, 50, 96
3, 54000, Note_on_c, 0, 50, 0
3, 54048, Note_on_c, 0, 62, 96
3, 54096, Note_on_c, 0, 62, 0
3, 54144, Note_on_c, 0, 55, 96
3, 54192, Note_on_c, 0, 55, 0
3, 54240, Note_on_c, 0, 57, 96
3, 54288, Note_on_c, 0, 57, 0
3, 54336, Note_on_c, 0, 57, 96
3, 54360, Note_on_c, 0, 57, 0
3, 54360, Note_on_c, 0, 62, 96
3, 54384, Note_on_c, 0, 62, 0
3, 54384, Note_on_c, 0, 57, 96
3, 54408, Note_on_c, 0, 57, 0
3, 54408, Note_on_c, 0, 62, 96
3, 54432, Note_on_c, 0, 62, 0
3, 54432, Note_on_c, 0, 57, 96
3, 54456, Note_on_c, 0, 57, 0
3, 54456, Note_on_c, 0, 62, 96
3, 54480, Note_on_c, 0, 62, 0
3, 54480, Note_on_c, 0, 57, 96
3, 54504, Note_on_c, 0, 57, 0
3, 54504, Note_on_c, 0, 62, 96
3, 54528, Note_on_c, 0, 62, 0
3, 54528, Note_on_c, 0, 57, 96
3, 54552, Note_on_c, 0, 57, 0
3, 54552, Note_on_c, 0, 62, 96
3, 54576, Note_on_c, 0, 62, 0
3, 54576, Note_on_c, 0, 57, 96
3, 54600, Note_on_c, 0, 57, 0
3, 54600, Note_on_c, 0, 62, 96
3, 54624, Note_on_c, 0, 62, 0
3, 54624, Note_on_c, 0, 57, 96
3, 54648, Note_on_c, 0, 57, 0
3, 54648, Note_on_c, 0, 62, 96
3, 54672, Note_on_c, 0, 62, 0
3, 54672, Note_on_c, 0, 57, 96
3, 54696, Note_on_c, 0, 57, 0
3, 54696, Note_on_c, 0, 62, 96
3, 54720, Note_on_c, 0, 62, 0
3, 54720, Note_on_c, 0, 57, 96
3, 54744, Note_on_c, 0, 57, 0
3, 54744, Note_on_c, 0, 62, 96
3, 54768, Note_on_c, 0, 62, 0
3, 54768, Note_on_c, 0, 57, 96
3, 54792, Note_on_c, 0, 57, 0
3, 54792, Note_on_c, 0, 62, 96
3, 54816, Note_on_c, 0, 62, 0
3, 54816, Note_on_c, 0, 57, 96
3, 54840, Note_on_c, 0, 57, 0
3, 54840, Note_on_c, 0, 62, 96
3, 54864, Note_on_c, 0, 62, 0
3, 54864, Note_on_c, 0, 57, 96
3, 54888, Note_on_c, 0, 57, 0
3, 54888, Note_on_c, 0, 62, 96
3, 54912, Note_on_c, 0, 62, 0
3, 54912, Note_on_c, 0, 57, 96
3, 54936, Note_on_c, 0, 57, 0
3, 54936, Note_on_c, 0, 62, 96
3, 54960, Note_on_c, 0, 62, 0
3, 54960, Note_on_c, 0, 57, 96
3, 54984, Note_on_c, 0, 57, 0
3, 54984, Note_on_c, 0, 62, 96
3, 55008, Note_on_c, 0, 62, 0
3, 55008, Note_on_c, 0, 57, 96
3, 55032, Note_on_c, 0, 57, 0
3, 55032, Note_on_c, 0, 62, 96
3, 55056, Note_on_c, 0, 62, 0
3, 55056, Note_on_c, 0, 57, 96
3, 55080, Note_on_c, 0, 57, 0
3, 55080, Note_on_c, 0, 62, 96
3, 55104, Note_on_c, 0, 62, 0
3, 55104, Note_on_c, 0, 57, 96
3, 55128, Note_on_c, 0, 57, 0
3, 55128, Note_on_c, 0, 62, 96
3, 55152, Note_on_c, 0, 62, 0
3, 55152, Note_on_c, 0, 57, 96
3, 55176, Note_on_c, 0, 57, 0
3, 55176, Note_on_c, 0, 62, 96
3, 55200, Note_on_c, 0, 62, 0
3, 55200, Note_on_c, 0, 57, 96
3, 55224, Note_on_c, 0, 57, 0
3, 55224, Note_on_c, 0, 62, 96
3, 55248, Note_on_c, 0, 62, 0
3, 55248, Note_on_c, 0, 57, 96
3, 55272, Note_on_c, 0, 57, 0
3, 55272, Note_on_c, 0, 62, 96
3, 55296, Note_on_c, 0, 62, 0
3, 55296, Note_on_c, 0, 57, 96
3, 55320, Note_on_c, 0, 57, 0
3, 55320, Note_on_c, 0, 62, 96
3, 55344, Note_on_c, 0, 62, 0
3, 55344, Note_on_c, 0, 57, 96
3, 55368, Note_on_c, 0, 57, 0
3, 55368, Note_on_c, 0, 62, 96
3, 55392, Note_on_c, 0, 62, 0
3, 55392, Note_on_c, 0, 57, 96
3, 55416, Note_on_c, 0, 57, 0
3, 55416, Note_on_c, 0, 62, 96
3, 55440, Note_on_c, 0, 62, 0
3, 55440, Note_on_c, 0, 57, 96
3, 55464, Note_on_c, 0, 57, 0
3, 55464, Note_on_c, 0, 62, 96
3, 55488, Note_on_c, 0, 62, 0
3, 55488, Note_on_c, 0, 57, 96
3, 55536, Note_on_c, 0, 57, 0
3, 55584, Note_on_c, 0, 54, 96
3, 55632, Note_on_c, 0, 54, 0
3, 55680, Note_on_c, 0, 57, 96
3, 55728, Note_on_c, 0, 57, 0
3, 55776, Note_on_c, 0, 54, 96
3, 55824, Note_on_c, 0, 54, 0
3, 55872, Note_on_c, 0, 50, 96
3, 55920, Note_on_c, 0, 50, 0
3, 56064, Note_on_c, 0, 50, 96
3, 56112, Note_on_c, 0, 50, 0
3, 56256, Note_on_c, 0, 50, 96
3, 56352, Note_on_c, 0, 50, 0
3, 56448, End_track
4, 0, Start_track
4, 0, Key_signature, 2, "major"
4, 1344, Note_on_c, 0, 74, 53
4, 1488, Note_on_c, 0, 74, 0
4, 1488, Note_on_c, 0, 73, 53
4, 1536, Note_on_c, 0, 73, 0
4, 1536, Note_on_c, 0, 66, 53
4, 1584, Note_on_c, 0, 66, 0
4, 1584, Note_on_c, 0, 66, 53
4, 1632, Note_on_c, 0, 66, 0
4, 1632, Note_on_c, 0, 69, 53
4, 1680, Note_on_c, 0, 69, 0
4, 1680, Note_on_c, 0, 74, 53
4, 1728, Note_on_c, 0, 74, 0
4, 1728, Note_on_c, 0, 78, 53
4, 1872, Note_on_c, 0, 78, 0
4, 1872, Note_on_c, 0, 76, 53
4, 1920, Note_on_c, 0, 76, 0
4, 1920, Note_on_c, 0, 74, 53
4, 1968, Note_on_c, 0, 74, 0
4, 1968, Note_on_c, 0, 69, 53
4, 2016, Note_on_c, 0, 69, 0
4, 2016, Note_on_c, 0, 74, 53
4, 2064, Note_on_c, 0, 74, 0
4, 2064, Note_on_c, 0, 78, 53
4, 2112, Note_on_c, 0, 78, 0
4, 2112, Note_on_c, 0, 81, 53
4, 2304, Note_on_c, 0, 81, 0
4, 2304, Note_on_c, 0, 76, 53
4, 2448, Note_on_c, 0, 76, 0
4, 2448, Note_on_c, 0, 79, 53
4, 2496, Note_on_c, 0, 79, 0
4, 2496, Note_on_c, 0, 78, 53
4, 2544, Note_on_c, 0, 78, 0
4, 2544, Note_on_c, 0, 78, 53
4, 2592, Note_on_c, 0, 78, 0
4, 2592, Note_on_c, 0, 76, 53
4, 2640, Note_on_c, 0, 76, 0
4, 2640, Note_on_c, 0, 79, 53
4, 2688, Note_on_c, 0, 79, 0
4, 2688, Note_on_c, 0, 78, 53
4, 2736, Note_on_c, 0, 78, 0
4, 2736, Note_on_c, 0, 78, 53
4, 2784, Note_on_c, 0, 78, 0
4, 2784, Note_on_c, 0, 76, 53
4, 2832, Note_on_c, 0, 76, 0
4, 2832, Note_on_c, 0, 79, 53
4, 2880, Note_on_c, 0, 79, 0
4, 2880, Note_on_c, 0, 78, 53
4, 2928, Note_on_c, 0, 78, 0
4, 2928, Note_on_c, 0, 78, 53
4, 2952, Note_on_c, 0, 78, 0
4, 2952, Note_on_c, 0, 78, 53
4, 2976, Note_on_c, 0, 78, 0
4, 2976, Note_on_c, 0, 76, 53
4, 3024, Note_on_c, 0, 76, 0
4, 3024, Note_on_c, 0, 76, 53
4, 3048, Note_on_c, 0, 76, 0
4, 3048, Note_on_c, 0, 76, 53
4, 3072, Note_on_c, 0, 76, 0
4, 3072, Note_on_c, 0, 74, 53
4, 3120, Note_on_c, 0, 74, 0
4, 3120, Note_on_c, 0, 74, 53
4, 3144, Note_on_c, 0, 74, 0
4, 3144, Note_on_c, 0, 74, 53
4, 3168, Note_on_c, 0, 74, 0
4, 3168, Note_on_c, 0, 73, 53
4, 3216, Note_on_c, 0, 73, 0
4, 3216, Note_on_c, 0, 73, 53
4, 3240, Note_on_c, 0, 73, 0
4, 3240, Note_on_c, 0, 73, 53
4, 3264, Note_on_c, 0, 73, 0
4, 3264, Note_on_c, 0, 66, 53
4, 3312, Note_on_c, 0, 66, 0
4, 3456, Note_on_c, 0, 78, 53
4, 3648, Note_on_c, 0, 78, 0
4, 3648, Note_on_c, 0, 76, 53
4, 3816, Note_on_c, 0, 76, 0
4, 3816, Note_on_c, 0, 78, 53
4, 3840, Note_on_c, 0, 78, 0
4, 3840, Note_on_c, 0, 79, 53
4, 3936, Note_on_c, 0, 79, 0
4, 3936, Note_on_c, 0, 78, 53
4, 4032, Note_on_c, 0, 78, 0
4, 4032, Note_on_c, 0, 79, 53
4, 4104, Note_on_c, 0, 79, 0
4, 4104, Note_on_c, 0, 78, 53
4, 4128, Note_on_c, 0, 78, 0
4, 4128, Note_on_c, 0, 76, 53
4, 4200, Note_on_c, 0, 76, 0
4, 4200, Note_on_c, 0, 78, 53
4, 4224, Note_on_c, 0, 78, 0
4, 4224, Note_on_c, 0, 79, 53
4, 4320, Note_on_c, 0, 79, 0
4, 4320, Note_on_c, 0, 76, 53
4, 4416, Note_on_c, 0, 76, 0
4, 4416, Note_on_c, 0, 74, 53
4, 4464, Note_on_c, 0, 74, 0
4, 4608, Note_on_c, 0, 74, 53
4, 4752, Note_on_c, 0, 74, 0
4, 4752, Note_on_c, 0, 73, 53
4, 4800, Note_on_c, 0, 73, 0
4, 4800, Note_on_c, 0, 66, 53
4, 4848, Note_on_c, 0, 66, 0
4, 4848, Note_on_c, 0, 66, 53
4, 4896, Note_on_c, 0, 66, 0
4, 4896, Note_on_c, 0, 69, 53
4, 4944, Note_on_c, 0, 69, 0
4, 4944, Note_on_c, 0, 74, 53
4, 4992, Note_on_c, 0, 74, 0
4, 4992, Note_on_c, 0, 78, 53
4, 5136, Note_on_c, 0, 78, 0
4, 5136, Note_on_c, 0, 76, 53
4, 5184, Note_on_c, 0, 76, 0
4, 5184, Note_on_c, 0, 74, 53
4, 5232, Note_on_c, 0, 74, 0
4, 5232, Note_on_c, 0, 69, 53
4, 5280, Note_on_c, 0, 69, 0
4, 5280, Note_on_c, 0, 74, 53
4, 5328, Note_on_c, 0, 74, 0
4, 5328, Note_on_c, 0, 78, 53
4, 5376, Note_on_c, 0, 78, 0
4, 5376, Note_on_c, 0, 81, 53
4, 5568, Note_on_c, 0, 81, 0
4, 5568, Note_on_c, 0, 76, 53
4, 5712, Note_on_c, 0, 76, 0
4, 5712, Note_on_c, 0, 79, 53
4, 5760, Note_on_c, 0, 79, 0
4, 5760, Note_on_c, 0, 78, 53
4, 5808, Note_on_c, 0, 78, 0
4, 5808, Note_on_c, 0, 78, 53
4, 5856, Note_on_c, 0, 78, 0
4, 5856, Note_on_c, 0, 76, 53
4, 5904, Note_on_c, 0, 76, 0
4, 5904, Note_on_c, 0, 79, 53
4, 5952, Note_on_c, 0, 79, 0
4, 5952, Note_on_c, 0, 78, 53
4, 6000, Note_on_c, 0, 78, 0
4, 6000, Note_on_c, 0, 78, 53
4, 6048, Note_on_c, 0, 78, 0
4, 6048, Note_on_c, 0, 76, 53
4, 6096, Note_on_c, 0, 76, 0
4, 6096, Note_on_c, 0, 79, 53
4, 6144, Note_on_c, 0, 79, 0
4, 6144, Note_on_c, 0, 78, 53
4, 6192, Note_on_c, 0, 78, 0
4, 6192, Note_on_c, 0, 78, 53
4, 6216, Note_on_c, 0, 78, 0
4, 6216, Note_on_c, 0, 78, 53
4, 6240, Note_on_c, 0, 78, 0
4, 6240, Note_on_c, 0, 76, 53
4, 6288, Note_on_c, 0, 76, 0
4, 6288, Note_on_c, 0, 76, 53
4, 6312, Note_on_c, 0, 76, 0
4, 6312, Note_on_c, 0, 76, 53
4, 6336, Note_on_c, 0, 76, 0
4, 6336, Note_on_c, 0, 74, 53
4, 6384, Note_on_c, 0, 74, 0
4, 6384, Note_on_c, 0, 74, 53
4, 6408, Note_on_c, 0, 74, 0
4, 6408, Note_on_c, 0, 74, 53
4, 6432, Note_on_c, 0, 74, 0
4, 6432, Note_on_c, 0, 73, 53
4, 6480, Note_on_c, 0, 73, 0
4, 6480, Note_on_c, 0, 73, 53
4, 6504, Note_on_c, 0, 73, 0
4, 6504, Note_on_c, 0, 73, 53
4, 6528, Note_on_c, 0, 73, 0
4, 6528, Note_on_c, 0, 66, 53
4, 6672, Note_on_c, 0, 66, 0
4, 6912, Note_on_c, 0, 73, 53
4, 7056, Note_on_c, 0, 73, 0
4, 7296, Note_on_c, 0, 74, 53
4, 7440, Note_on_c, 0, 74, 0
4, 7872, Note_on_c, 0, 81, 53
4, 8064, Note_on_c, 0, 81, 0
4, 8064, Note_on_c, 0, 79, 53
4, 8088, Note_on_c, 0, 79, 0
4, 8112, Note_on_c, 0, 79, 53
4, 8136, Note_on_c, 0, 79, 0
4, 8160, Note_on_c, 0, 78, 53
4, 8184, Note_on_c, 0, 78, 0
4, 8208, Note_on_c, 0, 78, 53
4, 8232, Note_on_c, 0, 78, 0
4, 8256, Note_on_c, 0, 79, 53
4, 8280, Note_on_c, 0, 79, 0
4, 8304, Note_on_c, 0, 79, 53
4, 8328, Note_on_c, 0, 79, 0
4, 8352, Note_on_c, 0, 79, 53
4, 8376, Note_on_c, 0, 79, 0
4, 8400, Note_on_c, 0, 79, 53
4, 8424, Note_on_c, 0, 79, 0
4, 8448, Note_on_c, 0, 78, 53
4, 8472, Note_on_c, 0, 78, 0
4, 8592, Note_on_c, 0, 79, 53
4, 8616, Note_on_c, 0, 79, 0
4, 8640, Note_on_c, 0, 78, 53
4, 8664, Note_on_c, 0, 78, 0
4, 8784, Note_on_c, 0, 79, 53
4, 8808, Note_on_c, 0, 79, 0
4, 8832, Note_on_c, 0, 78, 53
4, 8856, Note_on_c, 0, 78, 0
4, 8976, Note_on_c, 0, 79, 53
4, 9000, Note_on_c, 0, 79, 0
4, 9024, Note_on_c, 0, 78, 53
4, 9048, Note_on_c, 0, 78, 0
4, 9072, Note_on_c, 0, 76, 53
4, 9096, Note_on_c, 0, 76, 0
4, 9120, Note_on_c, 0, 78, 53
4, 9144, Note_on_c, 0, 78, 0
4, 9168, Note_on_c, 0, 79, 53
4, 9192, Note_on_c, 0, 79, 0
4, 9216, Note_on_c, 0, 78, 53
4, 9240, Note_on_c, 0, 78, 0
4, 9600, Note_on_c, 0, 76, 53
4, 9696, Note_on_c, 0, 76, 0
4, 9744, Note_on_c, 0, 81, 53
4, 9792, Note_on_c, 0, 81, 0
4, 9792, Note_on_c, 0, 81, 53
4, 9888, Note_on_c, 0, 81, 0
4, 9936, Note_on_c, 0, 74, 53
4, 9984, Note_on_c, 0, 74, 0
4, 9984, Note_on_c, 0, 76, 53
4, 10080, Note_on_c, 0, 76, 0
4, 10128, Note_on_c, 0, 81, 53
4, 10176, Note_on_c, 0, 81, 0
4, 10176, Note_on_c, 0, 81, 53
4, 10272, Note_on_c, 0, 81, 0
4, 10320, Note_on_c, 0, 74, 53
4, 10368, Note_on_c, 0, 74, 0
4, 10368, Note_on_c, 0, 76, 53
4, 10416, Note_on_c, 0, 76, 0
4, 10416, Note_on_c, 0, 81, 53
4, 10464, Note_on_c, 0, 81, 0
4, 10464, Note_on_c, 0, 81, 53
4, 10512, Note_on_c, 0, 81, 0
4, 10512, Note_on_c, 0, 81, 53
4, 10560, Note_on_c, 0, 81, 0
4, 10560, Note_on_c, 0, 81, 53
4, 10608, Note_on_c, 0, 81, 0
4, 10608, Note_on_c, 0, 81, 53
4, 10656, Note_on_c, 0, 81, 0
4, 10656, Note_on_c, 0, 81, 53
4, 10704, Note_on_c, 0, 81, 0
4, 10704, Note_on_c, 0, 81, 53
4, 10752, Note_on_c, 0, 81, 0
4, 10752, Note_on_c, 0, 81, 53
4, 10800, Note_on_c, 0, 81, 0
4, 11136, Note_on_c, 0, 69, 53
4, 11160, Note_on_c, 0, 69, 0
4, 11160, Note_on_c, 0, 73, 53
4, 11184, Note_on_c, 0, 73, 0
4, 11184, Note_on_c, 0, 69, 53
4, 11208, Note_on_c, 0, 69, 0
4, 11208, Note_on_c, 0, 73, 53
4, 11232, Note_on_c, 0, 73, 0
4, 11232, Note_on_c, 0, 69, 53
4, 11256, Note_on_c, 0, 69, 0
4, 11256, Note_on_c, 0, 73, 53
4, 11280, Note_on_c, 0, 73, 0
4, 11280, Note_on_c, 0, 68, 53
4, 11304, Note_on_c, 0, 68, 0
4, 11304, Note_on_c, 0, 71, 53
4, 11328, Note_on_c, 0, 71, 0
4, 11328, Note_on_c, 0, 69, 53
4, 11352, Note_on_c, 0, 69, 0
4, 11352, Note_on_c, 0, 73, 53
4, 11376, Note_on_c, 0, 73, 0
4, 11376, Note_on_c, 0, 69, 53
4, 11400, Note_on_c, 0, 69, 0
4, 11400, Note_on_c, 0, 73, 53
4, 11424, Note_on_c, 0, 73, 0
4, 11424, Note_on_c, 0, 69, 53
4, 11448, Note_on_c, 0, 69, 0
4, 11448, Note_on_c, 0, 73, 53
4, 11472, Note_on_c, 0, 73, 0
4, 11472, Note_on_c, 0, 68, 53
4, 11496, Note_on_c, 0, 68, 0
4, 11496, Note_on_c, 0, 71, 53
4, 11520, Note_on_c, 0, 71, 0
4, 11520, Note_on_c, 0, 66, 53
4, 11544, Note_on_c, 0, 66, 0
4, 11544, Note_on_c, 0, 69, 53
4, 11568, Note_on_c, 0, 69, 0
4, 11568, Note_on_c, 0, 66, 53
4, 11592, Note_on_c, 0, 66, 0
4, 11592, Note_on_c, 0, 69, 53
4, 11616, Note_on_c, 0, 69, 0
4, 11616, Note_on_c, 0, 66, 53
4, 11640, Note_on_c, 0, 66, 0
4, 11640, Note_on_c, 0, 69, 53
4, 11664, Note_on_c, 0, 69, 0
4, 11664, Note_on_c, 0, 64, 53
4, 11688, Note_on_c, 0, 64, 0
4, 11688, Note_on_c, 0, 68, 53
4, 11712, Note_on_c, 0, 68, 0
4, 11712, Note_on_c, 0, 66, 53
4, 11736, Note_on_c, 0, 66, 0
4, 11736, Note_on_c, 0, 69, 53
4, 11760, Note_on_c, 0, 69, 0
4, 11760, Note_on_c, 0, 66, 53
4, 11784, Note_on_c, 0, 66, 0
4, 11784, Note_on_c, 0, 69, 53
4, 11808, Note_on_c, 0, 69, 0
4, 11808, Note_on_c, 0, 66, 53
4, 11832, Note_on_c, 0, 66, 0
4, 11832, Note_on_c, 0, 69, 53
4, 11856, Note_on_c, 0, 69, 0
4, 11856, Note_on_c, 0, 64, 53
4, 11880, Note_on_c, 0, 64, 0
4, 11880, Note_on_c, 0, 68, 53
4, 11904, Note_on_c, 0, 68, 0
4, 11904, Note_on_c, 0, 62, 53
4, 11928, Note_on_c, 0, 62, 0
4, 11928, Note_on_c, 0, 66, 53
4, 11952, Note_on_c, 0, 66, 0
4, 11952, Note_on_c, 0, 62, 53
4, 11976, Note_on_c, 0, 62, 0
4, 11976, Note_on_c, 0, 66, 53
4, 12000, Note_on_c, 0, 66, 0
4, 12000, Note_on_c, 0, 62, 53
4, 12024, Note_on_c, 0, 62, 0
4, 12024, Note_on_c, 0, 66, 53
4, 12048, Note_on_c, 0, 66, 0
4, 12048, Note_on_c, 0, 61, 53
4, 12072, Note_on_c, 0, 61, 0
4, 12072, Note_on_c, 0, 64, 53
4, 12096, Note_on_c, 0, 64, 0
4, 12096, Note_on_c, 0, 62, 53
4, 12120, Note_on_c, 0, 62, 0
4, 12120, Note_on_c, 0, 66, 53
4, 12144, Note_on_c, 0, 66, 0
4, 12144, Note_on_c, 0, 62, 53
4, 12168, Note_on_c, 0, 62, 0
4, 12168, Note_on_c, 0, 66, 53
4, 12192, Note_on_c, 0, 66, 0
4, 12192, Note_on_c, 0, 62, 53
4, 12216, Note_on_c, 0, 62, 0
4, 12216, Note_on_c, 0, 66, 53
4, 12240, Note_on_c, 0, 66, 0
4, 12240, Note_on_c, 0, 61, 53
4, 12264, Note_on_c, 0, 61, 0
4, 12264, Note_on_c, 0, 64, 53
4, 12288, Note_on_c, 0, 64, 0
4, 12288, Note_on_c, 0, 69, 53
4, 12432, Note_on_c, 0, 69, 0
4, 12480, Note_on_c, 0, 62, 53
4, 12672, Note_on_c, 0, 62, 0
4, 12672, Note_on_c, 0, 69, 53
4, 12696, Note_on_c, 0, 69, 0
4, 12696, Note_on_c, 0, 73, 53
4, 12720, Note_on_c, 0, 73, 0
4, 12720, Note_on_c, 0, 69, 53
4, 12744, Note_on_c, 0, 69, 0
4, 12744, Note_on_c, 0, 73, 53
4, 12768, Note_on_c, 0, 73, 0
4, 12768, Note_on_c, 0, 69, 53
4, 12792, Note_on_c, 0, 69, 0
4, 12792, Note_on_c, 0, 73, 53
4, 12816, Note_on_c, 0, 73, 0
4, 12816, Note_on_c, 0, 68, 53
4, 12840, Note_on_c, 0, 68, 0
4, 12840, Note_on_c, 0, 71, 53
4, 12864, Note_on_c, 0, 71, 0
4, 12864, Note_on_c, 0, 69, 53
4, 12888, Note_on_c, 0, 69, 0
4, 12888, Note_on_c, 0, 73, 53
4, 12912, Note_on_c, 0, 73, 0
4, 12912, Note_on_c, 0, 69, 53
4, 12936, Note_on_c, 0, 69, 0
4, 12936, Note_on_c, 0, 73, 53
4, 12960, Note_on_c, 0, 73, 0
4, 12960, Note_on_c, 0, 69, 53
4, 12984, Note_on_c, 0, 69, 0
4, 12984, Note_on_c, 0, 73, 53
4, 13008, Note_on_c, 0, 73, 0
4, 13008, Note_on_c, 0, 68, 53
4, 13032, Note_on_c, 0, 68, 0
4, 13032, Note_on_c, 0, 71, 53
4, 13056, Note_on_c, 0, 71, 0
4, 13056, Note_on_c, 0, 66, 53
4, 13080, Note_on_c, 0, 66, 0
4, 13080, Note_on_c, 0, 69, 53
4, 13104, Note_on_c, 0, 69, 0
4, 13104, Note_on_c, 0, 66, 53
4, 13128, Note_on_c, 0, 66, 0
4, 13128, Note_on_c, 0, 69, 53
4, 13152, Note_on_c, 0, 69, 0
4, 13152, Note_on_c, 0, 66, 53
4, 13176, Note_on_c, 0, 66, 0
4, 13176, Note_on_c, 0, 69, 53
4, 13200, Note_on_c, 0, 69, 0
4, 13200, Note_on_c, 0, 64, 53
4, 13224, Note_on_c, 0, 64, 0
4, 13224, Note_on_c, 0, 68, 53
4, 13248, Note_on_c, 0, 68, 0
4, 13248, Note_on_c, 0, 66, 53
4, 13272, Note_on_c, 0, 66, 0
4, 13272, Note_on_c, 0, 69, 53
4, 13296, Note_on_c, 0, 69, 0
4, 13296, Note_on_c, 0, 66, 53
4, 13320, Note_on_c, 0, 66, 0
4, 13320, Note_on_c, 0, 69, 53
4, 13344, Note_on_c, 0, 69, 0
4, 13344, Note_on_c, 0, 66, 53
4, 13368, Note_on_c, 0, 66, 0
4, 13368, Note_on_c, 0, 69, 53
4, 13392, Note_on_c, 0, 69, 0
4, 13392, Note_on_c, 0, 64, 53
4, 13416, Note_on_c, 0, 64, 0
4, 13416, Note_on_c, 0, 68, 53
4, 13440, Note_on_c, 0, 68, 0
4, 13440, Note_on_c, 0, 62, 53
4, 13464, Note_on_c, 0, 62, 0
4, 13464, Note_on_c, 0, 66, 53
4, 13488, Note_on_c, 0, 66, 0
4, 13488, Note_on_c, 0, 62, 53
4, 13512, Note_on_c, 0, 62, 0
4, 13512, Note_on_c, 0, 66, 53
4, 13536, Note_on_c, 0, 66, 0
4, 13536, Note_on_c, 0, 62, 53
4, 13560, Note_on_c, 0, 62, 0
4, 13560, Note_on_c, 0, 66, 53
4, 13584, Note_on_c, 0, 66, 0
4, 13584, Note_on_c, 0, 61, 53
4, 13608, Note_on_c, 0, 61, 0
4, 13608, Note_on_c, 0, 64, 53
4, 13632, Note_on_c, 0, 64, 0
4, 13632, Note_on_c, 0, 62, 53
4, 13656, Note_on_c, 0, 62, 0
4, 13656, Note_on_c, 0, 66, 53
4, 13680, Note_on_c, 0, 66, 0
4, 13680, Note_on_c, 0, 62, 53
4, 13704, Note_on_c, 0, 62, 0
4, 13704, Note_on_c, 0, 66, 53
4, 13728, Note_on_c, 0, 66, 0
4, 13728, Note_on_c, 0, 62, 53
4, 13752, Note_on_c, 0, 62, 0
4, 13752, Note_on_c, 0, 66, 53
4, 13776, Note_on_c, 0, 66, 0
4, 13776, Note_on_c, 0, 61, 53
4, 13800, Note_on_c, 0, 61, 0
4, 13800, Note_on_c, 0, 64, 53
4, 13824, Note_on_c, 0, 64, 0
4, 13824, Note_on_c, 0, 69, 53
4, 13968, Note_on_c, 0, 69, 0
4, 14016, Note_on_c, 0, 62, 53
4, 14208, Note_on_c, 0, 62, 0
4, 14304, Note_on_c, 0, 78, 53
4, 14352, Note_on_c, 0, 78, 0
4, 14688, Note_on_c, 0, 76, 53
4, 14736, Note_on_c, 0, 76, 0
4, 15072, Note_on_c, 0, 74, 53
4, 15120, Note_on_c, 0, 74, 0
4, 16080, Note_on_c, 0, 80, 53
4, 16128, Note_on_c, 0, 80, 0
4, 16128, Note_on_c, 0, 81, 53
4, 16152, Note_on_c, 0, 81, 0
4, 16176, Note_on_c, 0, 81, 53
4, 16200, Note_on_c, 0, 81, 0
4, 16224, Note_on_c, 0, 81, 53
4, 16248, Note_on_c, 0, 81, 0
4, 16272, Note_on_c, 0, 81, 53
4, 16296, Note_on_c, 0, 81, 0
4, 16320, Note_on_c, 0, 81, 53
4, 16344, Note_on_c, 0, 81, 0
4, 16368, Note_on_c, 0, 81, 53
4, 16392, Note_on_c, 0, 81, 0
4, 16416, Note_on_c, 0, 81, 53
4, 16440, Note_on_c, 0, 81, 0
4, 16464, Note_on_c, 0, 81, 53
4, 16488, Note_on_c, 0, 81, 0
4, 16512, Note_on_c, 0, 81, 53
4, 16536, Note_on_c, 0, 81, 0
4, 16560, Note_on_c, 0, 81, 53
4, 16584, Note_on_c, 0, 81, 0
4, 16608, Note_on_c, 0, 81, 53
4, 16632, Note_on_c, 0, 81, 0
4, 16656, Note_on_c, 0, 81, 53
4, 16680, Note_on_c, 0, 81, 0
4, 16704, Note_on_c, 0, 81, 53
4, 16728, Note_on_c, 0, 81, 0
4, 16752, Note_on_c, 0, 81, 53
4, 16776, Note_on_c, 0, 81, 0
4, 16800, Note_on_c, 0, 81, 53
4, 16824, Note_on_c, 0, 81, 0
4, 16848, Note_on_c, 0, 81, 53
4, 16872, Note_on_c, 0, 81, 0
4, 16896, Note_on_c, 0, 81, 53
4, 16920, Note_on_c, 0, 81, 0
4, 16944, Note_on_c, 0, 81, 53
4, 16968, Note_on_c, 0, 81, 0
4, 16992, Note_on_c, 0, 81, 53
4, 17016, Note_on_c, 0, 81, 0
4, 17040, Note_on_c, 0, 81, 53
4, 17064, Note_on_c, 0, 81, 0
4, 17088, Note_on_c, 0, 81, 53
4, 17112, Note_on_c, 0, 81, 0
4, 17136, Note_on_c, 0, 81, 53
4, 17160, Note_on_c, 0, 81, 0
4, 17184, Note_on_c, 0, 81, 53
4, 17208, Note_on_c, 0, 81, 0
4, 17232, Note_on_c, 0, 81, 53
4, 17256, Note_on_c, 0, 81, 0
4, 17280, Note_on_c, 0, 81, 53
4, 17304, Note_on_c, 0, 81, 0
4, 17328, Note_on_c, 0, 81, 53
4, 17352, Note_on_c, 0, 81, 0
4, 17376, Note_on_c, 0, 81, 53
4, 17400, Note_on_c, 0, 81, 0
4, 17424, Note_on_c, 0, 81, 53
4, 17448, Note_on_c, 0, 81, 0
4, 17472, Note_on_c, 0, 81, 53
4, 17496, Note_on_c, 0, 81, 0
4, 17520, Note_on_c, 0, 81, 53
4, 17544, Note_on_c, 0, 81, 0
4, 17568, Note_on_c, 0, 80, 53
4, 17592, Note_on_c, 0, 80, 0
4, 17616, Note_on_c, 0, 80, 53
4, 17640, Note_on_c, 0, 80, 0
4, 17664, Note_on_c, 0, 81, 53
4, 17688, Note_on_c, 0, 81, 0
4, 17712, Note_on_c, 0, 81, 53
4, 17736, Note_on_c, 0, 81, 0
4, 17760, Note_on_c, 0, 78, 53
4, 17784, Note_on_c, 0, 78, 0
4, 17808, Note_on_c, 0, 78, 53
4, 17832, Note_on_c, 0, 78, 0
4, 17856, Note_on_c, 0, 76, 53
4, 17880, Note_on_c, 0, 76, 0
4, 17904, Note_on_c, 0, 76, 53
4, 17928, Note_on_c, 0, 76, 0
4, 17952, Note_on_c, 0, 76, 53
4, 17976, Note_on_c, 0, 76, 0
4, 18000, Note_on_c, 0, 76, 53
4, 18024, Note_on_c, 0, 76, 0
4, 18048, Note_on_c, 0, 76, 53
4, 18096, Note_on_c, 0, 76, 0
4, 18192, Note_on_c, 0, 57, 53
4, 18240, Note_on_c, 0, 57, 0
4, 18240, Note_on_c, 0, 59, 53
4, 18288, Note_on_c, 0, 59, 0
4, 18288, Note_on_c, 0, 61, 53
4, 18336, Note_on_c, 0, 61, 0
4, 18336, Note_on_c, 0, 62, 53
4, 18384, Note_on_c, 0, 62, 0
4, 18384, Note_on_c, 0, 63, 53
4, 18432, Note_on_c, 0, 63, 0
4, 18432, Note_on_c, 0, 66, 53
4, 18480, Note_on_c, 0, 66, 0
4, 18480, Note_on_c, 0, 64, 53
4, 18528, Note_on_c, 0, 64, 0
4, 18576, Note_on_c, 0, 57, 53
4, 18624, Note_on_c, 0, 57, 0
4, 18624, Note_on_c, 0, 59, 53
4, 18672, Note_on_c, 0, 59, 0
4, 18672, Note_on_c, 0, 61, 53
4, 18720, Note_on_c, 0, 61, 0
4, 18720, Note_on_c, 0, 62, 53
4, 18768, Note_on_c, 0, 62, 0
4, 18768, Note_on_c, 0, 63, 53
4, 18816, Note_on_c, 0, 63, 0
4, 18816, Note_on_c, 0, 66, 53
4, 18864, Note_on_c, 0, 66, 0
4, 18864, Note_on_c, 0, 64, 53
4, 18912, Note_on_c, 0, 64, 0
4, 18960, Note_on_c, 0, 57, 53
4, 19008, Note_on_c, 0, 57, 0
4, 19008, Note_on_c, 0, 59, 53
4, 19056, Note_on_c, 0, 59, 0
4, 19056, Note_on_c, 0, 60, 53
4, 19104, Note_on_c, 0, 60, 0
4, 19104, Note_on_c, 0, 62, 53
4, 19152, Note_on_c, 0, 62, 0
4, 19152, Note_on_c, 0, 64, 53
4, 19200, Note_on_c, 0, 64, 0
4, 19200, Note_on_c, 0, 65, 53
4, 19344, Note_on_c, 0, 65, 0
4, 19344, Note_on_c, 0, 71, 53
4, 19392, Note_on_c, 0, 71, 0
4, 19392, Note_on_c, 0, 72, 53
4, 19440, Note_on_c, 0, 72, 0
4, 19440, Note_on_c, 0, 73, 53
4, 19488, Note_on_c, 0, 73, 0
4, 19488, Note_on_c, 0, 74, 53
4, 19632, Note_on_c, 0, 74, 0
4, 19632, Note_on_c, 0, 71, 53
4, 19680, Note_on_c, 0, 71, 0
4, 19680, Note_on_c, 0, 72, 53
4, 19728, Note_on_c, 0, 72, 0
4, 19728, Note_on_c, 0, 64, 53
4, 19776, Note_on_c, 0, 64, 0
4, 19776, Note_on_c, 0, 69, 53
4, 19824, Note_on_c, 0, 69, 0
4, 19824, Note_on_c, 0, 65, 53
4, 19872, Note_on_c, 0, 65, 0
4, 19872, Note_on_c, 0, 70, 53
4, 19920, Note_on_c, 0, 70, 0
4, 19920, Note_on_c, 0, 62, 53
4, 19968, Note_on_c, 0, 62, 0
4, 19968, Note_on_c, 0, 68, 53
4, 20016, Note_on_c, 0, 68, 0
4, 20016, Note_on_c, 0, 71, 53
4, 20064, Note_on_c, 0, 71, 0
4, 20064, Note_on_c, 0, 69, 53
4, 20112, Note_on_c, 0, 69, 0
4, 20112, Note_on_c, 0, 65, 53
4, 20160, Note_on_c, 0, 65, 0
4, 21888, Note_on_c, 0, 61, 53
4, 21936, Note_on_c, 0, 61, 0
4, 22080, Note_on_c, 0, 69, 53
4, 22224, Note_on_c, 0, 69, 0
4, 22224, Note_on_c, 0, 73, 53
4, 22272, Note_on_c, 0, 73, 0
4, 22272, Note_on_c, 0, 71, 53
4, 22320, Note_on_c, 0, 71, 0
4, 22464, Note_on_c, 0, 76, 53
4, 22512, Note_on_c, 0, 76, 0
4, 22512, Note_on_c, 0, 76, 53
4, 22560, Note_on_c, 0, 76, 0
4, 22560, Note_on_c, 0, 76, 53
4, 22608, Note_on_c, 0, 76, 0
4, 22608, Note_on_c, 0, 76, 53
4, 22656, Note_on_c, 0, 76, 0
4, 22656, Note_on_c, 0, 76, 53
4, 22728, Note_on_c, 0, 76, 0
4, 22848, Note_on_c, 0, 69, 53
4, 22992, Note_on_c, 0, 69, 0
4, 23808, Note_on_c, 0, 64, 53
4, 23832, Note_on_c, 0, 64, 0
4, 23832, Note_on_c, 0, 68, 53
4, 23856, Note_on_c, 0, 68, 0
4, 23856, Note_on_c, 0, 64, 53
4, 23880, Note_on_c, 0, 64, 0
4, 23880, Note_on_c, 0, 68, 53
4, 23904, Note_on_c, 0, 68, 0
4, 23904, Note_on_c, 0, 64, 53
4, 23928, Note_on_c, 0, 64, 0
4, 23928, Note_on_c, 0, 68, 53
4, 23952, Note_on_c, 0, 68, 0
4, 23952, Note_on_c, 0, 64, 53
4, 23976, Note_on_c, 0, 64, 0
4, 23976, Note_on_c, 0, 68, 53
4, 24000, Note_on_c, 0, 68, 0
4, 24000, Note_on_c, 0, 64, 53
4, 24024, Note_on_c, 0, 64, 0
4, 24024, Note_on_c, 0, 68, 53
4, 24048, Note_on_c, 0, 68, 0
4, 24048, Note_on_c, 0, 64, 53
4, 24072, Note_on_c, 0, 64, 0
4, 24072, Note_on_c, 0, 68, 53
4, 24096, Note_on_c, 0, 68, 0
4, 24096, Note_on_c, 0, 64, 53
4, 24120, Note_on_c, 0, 64, 0
4, 24120, Note_on_c, 0, 68, 53
4, 24144, Note_on_c, 0, 68, 0
4, 24144, Note_on_c, 0, 64, 53
4, 24168, Note_on_c, 0, 64, 0
4, 24168, Note_on_c, 0, 68, 53
4, 24192, Note_on_c, 0, 68, 0
4, 24192, Note_on_c, 0, 64, 53
4, 24216, Note_on_c, 0, 64, 0
4, 24216, Note_on_c, 0, 67, 53
4, 24240, Note_on_c, 0, 67, 0
4, 24240, Note_on_c, 0, 64, 53
4, 24264, Note_on_c, 0, 64, 0
4, 24264, Note_on_c, 0, 67, 53
4, 24288, Note_on_c, 0, 67, 0
4, 24288, Note_on_c, 0, 64, 53
4, 24312, Note_on_c, 0, 64, 0
4, 24312, Note_on_c, 0, 67, 53
4, 24336, Note_on_c, 0, 67, 0
4, 24336, Note_on_c, 0, 64, 53
4, 24360, Note_on_c, 0, 64, 0
4, 24360, Note_on_c, 0, 67, 53
4, 24384, Note_on_c, 0, 67, 0
4, 24384, Note_on_c, 0, 64, 53
4, 24408, Note_on_c, 0, 64, 0
4, 24408, Note_on_c, 0, 67, 53
4, 24432, Note_on_c, 0, 67, 0
4, 24432, Note_on_c, 0, 64, 53
4, 24456, Note_on_c, 0, 64, 0
4, 24456, Note_on_c, 0, 67, 53
4, 24480, Note_on_c, 0, 67, 0
4, 24480, Note_on_c, 0, 64, 53
4, 24504, Note_on_c, 0, 64, 0
4, 24504, Note_on_c, 0, 67, 53
4, 24528, Note_on_c, 0, 67, 0
4, 24528, Note_on_c, 0, 64, 53
4, 24552, Note_on_c, 0, 64, 0
4, 24552, Note_on_c, 0, 67, 53
4, 24576, Note_on_c, 0, 67, 0
4, 24576, Note_on_c, 0, 62, 53
4, 24600, Note_on_c, 0, 62, 0
4, 24600, Note_on_c, 0, 66, 53
4, 24624, Note_on_c, 0, 66, 0
4, 24624, Note_on_c, 0, 62, 53
4, 24648, Note_on_c, 0, 62, 0
4, 24648, Note_on_c, 0, 66, 53
4, 24672, Note_on_c, 0, 66, 0
4, 24672, Note_on_c, 0, 62, 53
4, 24696, Note_on_c, 0, 62, 0
4, 24696, Note_on_c, 0, 66, 53
4, 24720, Note_on_c, 0, 66, 0
4, 24720, Note_on_c, 0, 62, 53
4, 24744, Note_on_c, 0, 62, 0
4, 24744, Note_on_c, 0, 66, 53
4, 24768, Note_on_c, 0, 66, 0
4, 24768, Note_on_c, 0, 62, 53
4, 24792, Note_on_c, 0, 62, 0
4, 24792, Note_on_c, 0, 66, 53
4, 24816, Note_on_c, 0, 66, 0
4, 24816, Note_on_c, 0, 62, 53
4, 24840, Note_on_c, 0, 62, 0
4, 24840, Note_on_c, 0, 66, 53
4, 24864, Note_on_c, 0, 66, 0
4, 24864, Note_on_c, 0, 62, 53
4, 24888, Note_on_c, 0, 62, 0
4, 24888, Note_on_c, 0, 66, 53
4, 24912, Note_on_c, 0, 66, 0
4, 24912, Note_on_c, 0, 62, 53
4, 24936, Note_on_c, 0, 62, 0
4, 24936, Note_on_c, 0, 66, 53
4, 24960, Note_on_c, 0, 66, 0
4, 24960, Note_on_c, 0, 61, 53
4, 24984, Note_on_c, 0, 61, 0
4, 24984, Note_on_c, 0, 67, 53
4, 25008, Note_on_c, 0, 67, 0
4, 25008, Note_on_c, 0, 61, 53
4, 25032, Note_on_c, 0, 61, 0
4, 25032, Note_on_c, 0, 67, 53
4, 25056, Note_on_c, 0, 67, 0
4, 25056, Note_on_c, 0, 61, 53
4, 25080, Note_on_c, 0, 61, 0
4, 25080, Note_on_c, 0, 67, 53
4, 25104, Note_on_c, 0, 67, 0
4, 25104, Note_on_c, 0, 61, 53
4, 25128, Note_on_c, 0, 61, 0
4, 25128, Note_on_c, 0, 67, 53
4, 25152, Note_on_c, 0, 67, 0
4, 25152, Note_on_c, 0, 62, 53
4, 25176, Note_on_c, 0, 62, 0
4, 25176, Note_on_c, 0, 66, 53
4, 25200, Note_on_c, 0, 66, 0
4, 25200, Note_on_c, 0, 62, 53
4, 25224, Note_on_c, 0, 62, 0
4, 25224, Note_on_c, 0, 66, 53
4, 25248, Note_on_c, 0, 66, 0
4, 25248, Note_on_c, 0, 62, 53
4, 25272, Note_on_c, 0, 62, 0
4, 25272, Note_on_c, 0, 66, 53
4, 25296, Note_on_c, 0, 66, 0
4, 25296, Note_on_c, 0, 62, 53
4, 25320, Note_on_c, 0, 62, 0
4, 25320, Note_on_c, 0, 66, 53
4, 25344, Note_on_c, 0, 66, 0
4, 25344, Note_on_c, 0, 76, 53
4, 25392, Note_on_c, 0, 76, 0
4, 25392, Note_on_c, 0, 76, 53
4, 25488, Note_on_c, 0, 76, 0
4, 25488, Note_on_c, 0, 76, 53
4, 25584, Note_on_c, 0, 76, 0
4, 25584, Note_on_c, 0, 76, 53
4, 25680, Note_on_c, 0, 76, 0
4, 25680, Note_on_c, 0, 76, 53
4, 25776, Note_on_c, 0, 76, 0
4, 25800, Note_on_c, 0, 75, 53
4, 25824, Note_on_c, 0, 75, 0
4, 25824, Note_on_c, 0, 76, 53
4, 25848, Note_on_c, 0, 76, 0
4, 25848, Note_on_c, 0, 75, 53
4, 25872, Note_on_c, 0, 75, 0
4, 25872, Note_on_c, 0, 76, 53
4, 25896, Note_on_c, 0, 76, 0
4, 25896, Note_on_c, 0, 75, 53
4, 25920, Note_on_c, 0, 75, 0
4, 25920, Note_on_c, 0, 76, 53
4, 25944, Note_on_c, 0, 76, 0
4, 25944, Note_on_c, 0, 75, 53
4, 25968, Note_on_c, 0, 75, 0
4, 25968, Note_on_c, 0, 76, 53
4, 25992, Note_on_c, 0, 76, 0
4, 25992, Note_on_c, 0, 75, 53
4, 26016, Note_on_c, 0, 75, 0
4, 26016, Note_on_c, 0, 76, 53
4, 26040, Note_on_c, 0, 76, 0
4, 26040, Note_on_c, 0, 75, 53
4, 26064, Note_on_c, 0, 75, 0
4, 26064, Note_on_c, 0, 76, 53
4, 26088, Note_on_c, 0, 76, 0
4, 26088, Note_on_c, 0, 75, 53
4, 26112, Note_on_c, 0, 75, 0
4, 26112, Note_on_c, 0, 76, 53
4, 26136, Note_on_c, 0, 76, 0
4, 26136, Note_on_c, 0, 74, 53
4, 26160, Note_on_c, 0, 74, 0
4, 26160, Note_on_c, 0, 73, 53
4, 26184, Note_on_c, 0, 73, 0
4, 26184, Note_on_c, 0, 74, 53
4, 26208, Note_on_c, 0, 74, 0
4, 26208, Note_on_c, 0, 73, 53
4, 26232, Note_on_c, 0, 73, 0
4, 26232, Note_on_c, 0, 71, 53
4, 26256, Note_on_c, 0, 71, 0
4, 26256, Note_on_c, 0, 69, 53
4, 26280, Note_on_c, 0, 69, 0
4, 26280, Note_on_c, 0, 71, 53
4, 26304, Note_on_c, 0, 71, 0
4, 26304, Note_on_c, 0, 69, 53
4, 26328, Note_on_c, 0, 69, 0
4, 26328, Note_on_c, 0, 67, 53
4, 26352, Note_on_c, 0, 67, 0
4, 26352, Note_on_c, 0, 66, 53
4, 26376, Note_on_c, 0, 66, 0
4, 26376, Note_on_c, 0, 67, 53
4, 26400, Note_on_c, 0, 67, 0
4, 26400, Note_on_c, 0, 66, 53
4, 26424, Note_on_c, 0, 66, 0
4, 26424, Note_on_c, 0, 64, 53
4, 26448, Note_on_c, 0, 64, 0
4, 26448, Note_on_c, 0, 62, 53
4, 26472, Note_on_c, 0, 62, 0
4, 26472, Note_on_c, 0, 61, 53
4, 26496, Note_on_c, 0, 61, 0
4, 27840, Note_on_c, 0, 74, 53
4, 27984, Note_on_c, 0, 74, 0
4, 27984, Note_on_c, 0, 73, 53
4, 28032, Note_on_c, 0, 73, 0
4, 28032, Note_on_c, 0, 66, 53
4, 28080, Note_on_c, 0, 66, 0
4, 28080, Note_on_c, 0, 66, 53
4, 28128, Note_on_c, 0, 66, 0
4, 28128, Note_on_c, 0, 69, 53
4, 28176, Note_on_c, 0, 69, 0
4, 28176, Note_on_c, 0, 74, 53
4, 28224, Note_on_c, 0, 74, 0
4, 28224, Note_on_c, 0, 78, 53
4, 28368, Note_on_c, 0, 78, 0
4, 28368, Note_on_c, 0, 76, 53
4, 28416, Note_on_c, 0, 76, 0
4, 28416, Note_on_c, 0, 74, 53
4, 28464, Note_on_c, 0, 74, 0
4, 28464, Note_on_c, 0, 69, 53
4, 28512, Note_on_c, 0, 69, 0
4, 28512, Note_on_c, 0, 74, 53
4, 28560, Note_on_c, 0, 74, 0
4, 28560, Note_on_c, 0, 78, 53
4, 28608, Note_on_c, 0, 78, 0
4, 28608, Note_on_c, 0, 81, 53
4, 28800, Note_on_c, 0, 81, 0
4, 28800, Note_on_c, 0, 76, 53
4, 28944, Note_on_c, 0, 76, 0
4, 28944, Note_on_c, 0, 79, 53
4, 28992, Note_on_c, 0, 79, 0
4, 28992, Note_on_c, 0, 78, 53
4, 29040, Note_on_c, 0, 78, 0
4, 29040, Note_on_c, 0, 78, 53
4, 29088, Note_on_c, 0, 78, 0
4, 29088, Note_on_c, 0, 76, 53
4, 29136, Note_on_c, 0, 76, 0
4, 29136, Note_on_c, 0, 79, 53
4, 29184, Note_on_c, 0, 79, 0
4, 29184, Note_on_c, 0, 78, 53
4, 29232, Note_on_c, 0, 78, 0
4, 29232, Note_on_c, 0, 78, 53
4, 29280, Note_on_c, 0, 78, 0
4, 29280, Note_on_c, 0, 76, 53
4, 29328, Note_on_c, 0, 76, 0
4, 29328, Note_on_c, 0, 79, 53
4, 29376, Note_on_c, 0, 79, 0
4, 29376, Note_on_c, 0, 78, 53
4, 29424, Note_on_c, 0, 78, 0
4, 29424, Note_on_c, 0, 78, 53
4, 29448, Note_on_c, 0, 78, 0
4, 29448, Note_on_c, 0, 78, 53
4, 29472, Note_on_c, 0, 78, 0
4, 29472, Note_on_c, 0, 76, 53
4, 29520, Note_on_c, 0, 76, 0
4, 29520, Note_on_c, 0, 76, 53
4, 29544, Note_on_c, 0, 76, 0
4, 29544, Note_on_c, 0, 76, 53
4, 29568, Note_on_c, 0, 76, 0
4, 29568, Note_on_c, 0, 74, 53
4, 29616, Note_on_c, 0, 74, 0
4, 29616, Note_on_c, 0, 74, 53
4, 29640, Note_on_c, 0, 74, 0
4, 29640, Note_on_c, 0, 74, 53
4, 29664, Note_on_c, 0, 74, 0
4, 29664, Note_on_c, 0, 73, 53
4, 29712, Note_on_c, 0, 73, 0
4, 29712, Note_on_c, 0, 73, 53
4, 29736, Note_on_c, 0, 73, 0
4, 29736, Note_on_c, 0, 73, 53
4, 29760, Note_on_c, 0, 73, 0
4, 29760, Note_on_c, 0, 66, 53
4, 29808, Note_on_c, 0, 66, 0
4, 29952, Note_on_c, 0, 78, 53
4, 30144, Note_on_c, 0, 78, 0
4, 30144, Note_on_c, 0, 76, 53
4, 30336, Note_on_c, 0, 76, 0
4, 30336, Note_on_c, 0, 78, 53
4, 30432, Note_on_c, 0, 78, 0
4, 30432, Note_on_c, 0, 81, 53
4, 30624, Note_on_c, 0, 81, 0
4, 30624, Note_on_c, 0, 79, 53
4, 30816, Note_on_c, 0, 79, 0
4, 30816, Note_on_c, 0, 78, 53
4, 31008, Note_on_c, 0, 78, 0
4, 31008, Note_on_c, 0, 76, 53
4, 31200, Note_on_c, 0, 76, 0
4, 31200, Note_on_c, 0, 74, 53
4, 31296, Note_on_c, 0, 74, 0
4, 31296, Note_on_c, 0, 73, 53
4, 31392, Note_on_c, 0, 73, 0
4, 31440, Note_on_c, 0, 81, 53
4, 31488, Note_on_c, 0, 81, 0
4, 31488, Note_on_c, 0, 81, 53
4, 31584, Note_on_c, 0, 81, 0
4, 31632, Note_on_c, 0, 74, 53
4, 31680, Note_on_c, 0, 74, 0
4, 31680, Note_on_c, 0, 76, 53
4, 31776, Note_on_c, 0, 76, 0
4, 31824, Note_on_c, 0, 81, 53
4, 31872, Note_on_c, 0, 81, 0
4, 31872, Note_on_c, 0, 81, 53
4, 31968, Note_on_c, 0, 81, 0
4, 32016, Note_on_c, 0, 74, 53
4, 32064, Note_on_c, 0, 74, 0
4, 32064, Note_on_c, 0, 76, 53
4, 32112, Note_on_c, 0, 76, 0
4, 32112, Note_on_c, 0, 81, 53
4, 32160, Note_on_c, 0, 81, 0
4, 32160, Note_on_c, 0, 81, 53
4, 32208, Note_on_c, 0, 81, 0
4, 32208, Note_on_c, 0, 81, 53
4, 32256, Note_on_c, 0, 81, 0
4, 32256, Note_on_c, 0, 81, 53
4, 32304, Note_on_c, 0, 81, 0
4, 32304, Note_on_c, 0, 81, 53
4, 32352, Note_on_c, 0, 81, 0
4, 32352, Note_on_c, 0, 81, 53
4, 32400, Note_on_c, 0, 81, 0
4, 32400, Note_on_c, 0, 81, 53
4, 32448, Note_on_c, 0, 81, 0
4, 32448, Note_on_c, 0, 81, 53
4, 32496, Note_on_c, 0, 81, 0
4, 32832, Note_on_c, 0, 74, 53
4, 32856, Note_on_c, 0, 74, 0
4, 32856, Note_on_c, 0, 78, 53
4, 32880, Note_on_c, 0, 78, 0
4, 32880, Note_on_c, 0, 74, 53
4, 32904, Note_on_c, 0, 74, 0
4, 32904, Note_on_c, 0, 78, 53
4, 32928, Note_on_c, 0, 78, 0
4, 32928, Note_on_c, 0, 74, 53
4, 32952, Note_on_c, 0, 74, 0
4, 32952, Note_on_c, 0, 78, 53
4, 32976, Note_on_c, 0, 78, 0
4, 32976, Note_on_c, 0, 73, 53
4, 33000, Note_on_c, 0, 73, 0
4, 33000, Note_on_c, 0, 76, 53
4, 33024, Note_on_c, 0, 76, 0
4, 33024, Note_on_c, 0, 74, 53
4, 33048, Note_on_c, 0, 74, 0
4, 33048, Note_on_c, 0, 78, 53
4, 33072, Note_on_c, 0, 78, 0
4, 33072, Note_on_c, 0, 74, 53
4, 33096, Note_on_c, 0, 74, 0
4, 33096, Note_on_c, 0, 78, 53
4, 33120, Note_on_c, 0, 78, 0
4, 33120, Note_on_c, 0, 74, 53
4, 33144, Note_on_c, 0, 74, 0
4, 33144, Note_on_c, 0, 78, 53
4, 33168, Note_on_c, 0, 78, 0
4, 33168, Note_on_c, 0, 73, 53
4, 33192, Note_on_c, 0, 73, 0
4, 33192, Note_on_c, 0, 76, 53
4, 33216, Note_on_c, 0, 76, 0
4, 33216, Note_on_c, 0, 71, 53
4, 33240, Note_on_c, 0, 71, 0
4, 33240, Note_on_c, 0, 74, 53
4, 33264, Note_on_c, 0, 74, 0
4, 33264, Note_on_c, 0, 71, 53
4, 33288, Note_on_c, 0, 71, 0
4, 33288, Note_on_c, 0, 74, 53
4, 33312, Note_on_c, 0, 74, 0
4, 33312, Note_on_c, 0, 71, 53
4, 33336, Note_on_c, 0, 71, 0
4, 33336, Note_on_c, 0, 74, 53
4, 33360, Note_on_c, 0, 74, 0
4, 33360, Note_on_c, 0, 69, 53
4, 33384, Note_on_c, 0, 69, 0
4, 33384, Note_on_c, 0, 73, 53
4, 33408, Note_on_c, 0, 73, 0
4, 33408, Note_on_c, 0, 71, 53
4, 33432, Note_on_c, 0, 71, 0
4, 33432, Note_on_c, 0, 74, 53
4, 33456, Note_on_c, 0, 74, 0
4, 33456, Note_on_c, 0, 71, 53
4, 33480, Note_on_c, 0, 71, 0
4, 33480, Note_on_c, 0, 74, 53
4, 33504, Note_on_c, 0, 74, 0
4, 33504, Note_on_c, 0, 71, 53
4, 33528, Note_on_c, 0, 71, 0
4, 33528, Note_on_c, 0, 74, 53
4, 33552, Note_on_c, 0, 74, 0
4, 33552, Note_on_c, 0, 69, 53
4, 33576, Note_on_c, 0, 69, 0
4, 33576, Note_on_c, 0, 73, 53
4, 33600, Note_on_c, 0, 73, 0
4, 33600, Note_on_c, 0, 67, 53
4, 33624, Note_on_c, 0, 67, 0
4, 33624, Note_on_c, 0, 71, 53
4, 33648, Note_on_c, 0, 71, 0
4, 33648, Note_on_c, 0, 67, 53
4, 33672, Note_on_c, 0, 67, 0
4, 33672, Note_on_c, 0, 71, 53
4, 33696, Note_on_c, 0, 71, 0
4, 33696, Note_on_c, 0, 67, 53
4, 33720, Note_on_c, 0, 67, 0
4, 33720, Note_on_c, 0, 71, 53
4, 33744, Note_on_c, 0, 71, 0
4, 33744, Note_on_c, 0, 66, 53
4, 33768, Note_on_c, 0, 66, 0
4, 33768, Note_on_c, 0, 69, 53
4, 33792, Note_on_c, 0, 69, 0
4, 33792, Note_on_c, 0, 67, 53
4, 33816, Note_on_c, 0, 67, 0
4, 33816, Note_on_c, 0, 71, 53
4, 33840, Note_on_c, 0, 71, 0
4, 33840, Note_on_c, 0, 67, 53
4, 33864, Note_on_c, 0, 67, 0
4, 33864, Note_on_c, 0, 71, 53
4, 33888, Note_on_c, 0, 71, 0
4, 33888, Note_on_c, 0, 67, 53
4, 33912, Note_on_c, 0, 67, 0
4, 33912, Note_on_c, 0, 71, 53
4, 33936, Note_on_c, 0, 71, 0
4, 33936, Note_on_c, 0, 66, 53
4, 33960, Note_on_c, 0, 66, 0
4, 33960, Note_on_c, 0, 69, 53
4, 33984, Note_on_c, 0, 69, 0
4, 33984, Note_on_c, 0, 74, 53
4, 34128, Note_on_c, 0, 74, 0
4, 34176, Note_on_c, 0, 67, 53
4, 34368, Note_on_c, 0, 67, 0
4, 34368, Note_on_c, 0, 74, 53
4, 34392, Note_on_c, 0, 74, 0
4, 34392, Note_on_c, 0, 78, 53
4, 34416, Note_on_c, 0, 78, 0
4, 34416, Note_on_c, 0, 74, 53
4, 34440, Note_on_c, 0, 74, 0
4, 34440, Note_on_c, 0, 78, 53
4, 34464, Note_on_c, 0, 78, 0
4, 34464, Note_on_c, 0, 74, 53
4, 34488, Note_on_c, 0, 74, 0
4, 34488, Note_on_c, 0, 78, 53
4, 34512, Note_on_c, 0, 78, 0
4, 34512, Note_on_c, 0, 73, 53
4, 34536, Note_on_c, 0, 73, 0
4, 34536, Note_on_c, 0, 76, 53
4, 34560, Note_on_c, 0, 76, 0
4, 34560, Note_on_c, 0, 74, 53
4, 34584, Note_on_c, 0, 74, 0
4, 34584, Note_on_c, 0, 78, 53
4, 34608, Note_on_c, 0, 78, 0
4, 34608, Note_on_c, 0, 74, 53
4, 34632, Note_on_c, 0, 74, 0
4, 34632, Note_on_c, 0, 78, 53
4, 34656, Note_on_c, 0, 78, 0
4, 34656, Note_on_c, 0, 74, 53
4, 34680, Note_on_c, 0, 74, 0
4, 34680, Note_on_c, 0, 78, 53
4, 34704, Note_on_c, 0, 78, 0
4, 34704, Note_on_c, 0, 73, 53
4, 34728, Note_on_c, 0, 73, 0
4, 34728, Note_on_c, 0, 76, 53
4, 34752, Note_on_c, 0, 76, 0
4, 34752, Note_on_c, 0, 71, 53
4, 34776, Note_on_c, 0, 71, 0
4, 34776, Note_on_c, 0, 74, 53
4, 34800, Note_on_c, 0, 74, 0
4, 34800, Note_on_c, 0, 71, 53
4, 34824, Note_on_c, 0, 71, 0
4, 34824, Note_on_c, 0, 74, 53
4, 34848, Note_on_c, 0, 74, 0
4, 34848, Note_on_c, 0, 71, 53
4, 34872, Note_on_c, 0, 71, 0
4, 34872, Note_on_c, 0, 74, 53
4, 34896, Note_on_c, 0, 74, 0
4, 34896, Note_on_c, 0, 69, 53
4, 34920, Note_on_c, 0, 69, 0
4, 34920, Note_on_c, 0, 73, 53
4, 34944, Note_on_c, 0, 73, 0
4, 34944, Note_on_c, 0, 71, 53
4, 34968, Note_on_c, 0, 71, 0
4, 34968, Note_on_c, 0, 74, 53
4, 34992, Note_on_c, 0, 74, 0
4, 34992, Note_on_c, 0, 71, 53
4, 35016, Note_on_c, 0, 71, 0
4, 35016, Note_on_c, 0, 74, 53
4, 35040, Note_on_c, 0, 74, 0
4, 35040, Note_on_c, 0, 71, 53
4, 35064, Note_on_c, 0, 71, 0
4, 35064, Note_on_c, 0, 74, 53
4, 35088, Note_on_c, 0, 74, 0
4, 35088, Note_on_c, 0, 69, 53
4, 35112, Note_on_c, 0, 69, 0
4, 35112, Note_on_c, 0, 73, 53
4, 35136, Note_on_c, 0, 73, 0
4, 35136, Note_on_c, 0, 67, 53
4, 35160, Note_on_c, 0, 67, 0
4, 35160, Note_on_c, 0, 71, 53
4, 35184, Note_on_c, 0, 71, 0
4, 35184, Note_on_c, 0, 67, 53
4, 35208, Note_on_c, 0, 67, 0
4, 35208, Note_on_c, 0, 71, 53
4, 35232, Note_on_c, 0, 71, 0
4, 35232, Note_on_c, 0, 67, 53
4, 35256, Note_on_c, 0, 67, 0
4, 35256, Note_on_c, 0, 71, 53
4, 35280, Note_on_c, 0, 71, 0
4, 35280, Note_on_c, 0, 66, 53
4, 35304, Note_on_c, 0, 66, 0
4, 35304, Note_on_c, 0, 69, 53
4, 35328, Note_on_c, 0, 69, 0
4, 35328, Note_on_c, 0, 67, 53
4, 35352, Note_on_c, 0, 67, 0
4, 35352, Note_on_c, 0, 71, 53
4, 35376, Note_on_c, 0, 71, 0
4, 35376, Note_on_c, 0, 67, 53
4, 35400, Note_on_c, 0, 67, 0
4, 35400, Note_on_c, 0, 71, 53
4, 35424, Note_on_c, 0, 71, 0
4, 35424, Note_on_c, 0, 67, 53
4, 35448, Note_on_c, 0, 67, 0
4, 35448, Note_on_c, 0, 71, 53
4, 35472, Note_on_c, 0, 71, 0
4, 35472, Note_on_c, 0, 66, 53
4, 35496, Note_on_c, 0, 66, 0
4, 35496, Note_on_c, 0, 69, 53
4, 35520, Note_on_c, 0, 69, 0
4, 35520, Note_on_c, 0, 62, 53
4, 35712, Note_on_c, 0, 62, 0
4, 35712, Note_on_c, 0, 67, 53
4, 35904, Note_on_c, 0, 67, 0
4, 35904, Note_on_c, 0, 62, 53
4, 35928, Note_on_c, 0, 62, 0
4, 35928, Note_on_c, 0, 66, 53
4, 35952, Note_on_c, 0, 66, 0
4, 35952, Note_on_c, 0, 62, 53
4, 35976, Note_on_c, 0, 62, 0
4, 35976, Note_on_c, 0, 66, 53
4, 36000, Note_on_c, 0, 66, 0
4, 36000, Note_on_c, 0, 62, 53
4, 36024, Note_on_c, 0, 62, 0
4, 36024, Note_on_c, 0, 66, 53
4, 36048, Note_on_c, 0, 66, 0
4, 36048, Note_on_c, 0, 62, 53
4, 36072, Note_on_c, 0, 62, 0
4, 36072, Note_on_c, 0, 66, 53
4, 36096, Note_on_c, 0, 66, 0
4, 36096, Note_on_c, 0, 62, 53
4, 36120, Note_on_c, 0, 62, 0
4, 36120, Note_on_c, 0, 65, 53
4, 36144, Note_on_c, 0, 65, 0
4, 36144, Note_on_c, 0, 62, 53
4, 36168, Note_on_c, 0, 62, 0
4, 36168, Note_on_c, 0, 65, 53
4, 36192, Note_on_c, 0, 65, 0
4, 36192, Note_on_c, 0, 62, 53
4, 36216, Note_on_c, 0, 62, 0
4, 36216, Note_on_c, 0, 65, 53
4, 36240, Note_on_c, 0, 65, 0
4, 36240, Note_on_c, 0, 62, 53
4, 36264, Note_on_c, 0, 62, 0
4, 36264, Note_on_c, 0, 65, 53
4, 36288, Note_on_c, 0, 65, 0
4, 36288, Note_on_c, 0, 62, 53
4, 36312, Note_on_c, 0, 62, 0
4, 36312, Note_on_c, 0, 64, 53
4, 36336, Note_on_c, 0, 64, 0
4, 36336, Note_on_c, 0, 62, 53
4, 36360, Note_on_c, 0, 62, 0
4, 36360, Note_on_c, 0, 64, 53
4, 36384, Note_on_c, 0, 64, 0
4, 36384, Note_on_c, 0, 60, 53
4, 36408, Note_on_c, 0, 60, 0
4, 36408, Note_on_c, 0, 64, 53
4, 36432, Note_on_c, 0, 64, 0
4, 36432, Note_on_c, 0, 60, 53
4, 36456, Note_on_c, 0, 60, 0
4, 36456, Note_on_c, 0, 64, 53
4, 36480, Note_on_c, 0, 64, 0
4, 36480, Note_on_c, 0, 60, 53
4, 36504, Note_on_c, 0, 60, 0
4, 36504, Note_on_c, 0, 63, 53
4, 36528, Note_on_c, 0, 63, 0
4, 36528, Note_on_c, 0, 60, 53
4, 36552, Note_on_c, 0, 60, 0
4, 36552, Note_on_c, 0, 63, 53
4, 36576, Note_on_c, 0, 63, 0
4, 36576, Note_on_c, 0, 60, 53
4, 36600, Note_on_c, 0, 60, 0
4, 36600, Note_on_c, 0, 63, 53
4, 36624, Note_on_c, 0, 63, 0
4, 36624, Note_on_c, 0, 60, 53
4, 36648, Note_on_c, 0, 60, 0
4, 36648, Note_on_c, 0, 63, 53
4, 36672, Note_on_c, 0, 63, 0
4, 36672, Note_on_c, 0, 60, 53
4, 36696, Note_on_c, 0, 60, 0
4, 36696, Note_on_c, 0, 62, 53
4, 36720, Note_on_c, 0, 62, 0
4, 36720, Note_on_c, 0, 60, 53
4, 36744, Note_on_c, 0, 60, 0
4, 36744, Note_on_c, 0, 62, 53
4, 36768, Note_on_c, 0, 62, 0
4, 36768, Note_on_c, 0, 58, 53
4, 36792, Note_on_c, 0, 58, 0
4, 36792, Note_on_c, 0, 62, 53
4, 36816, Note_on_c, 0, 62, 0
4, 36816, Note_on_c, 0, 58, 53
4, 36840, Note_on_c, 0, 58, 0
4, 36840, Note_on_c, 0, 62, 53
4, 36864, Note_on_c, 0, 62, 0
4, 36864, Note_on_c, 0, 58, 53
4, 36888, Note_on_c, 0, 58, 0
4, 36888, Note_on_c, 0, 62, 53
4, 36912, Note_on_c, 0, 62, 0
4, 36912, Note_on_c, 0, 58, 53
4, 36936, Note_on_c, 0, 58, 0
4, 36936, Note_on_c, 0, 62, 53
4, 36960, Note_on_c, 0, 62, 0
4, 36960, Note_on_c, 0, 58, 53
4, 36984, Note_on_c, 0, 58, 0
4, 36984, Note_on_c, 0, 62, 53
4, 37008, Note_on_c, 0, 62, 0
4, 37008, Note_on_c, 0, 58, 53
4, 37032, Note_on_c, 0, 58, 0
4, 37032, Note_on_c, 0, 62, 53
4, 37056, Note_on_c, 0, 62, 0
4, 37056, Note_on_c, 0, 64, 53
4, 37080, Note_on_c, 0, 64, 0
4, 37080, Note_on_c, 0, 67, 53
4, 37104, Note_on_c, 0, 67, 0
4, 37104, Note_on_c, 0, 64, 53
4, 37128, Note_on_c, 0, 64, 0
4, 37128, Note_on_c, 0, 67, 53
4, 37152, Note_on_c, 0, 67, 0
4, 37152, Note_on_c, 0, 64, 53
4, 37176, Note_on_c, 0, 64, 0
4, 37176, Note_on_c, 0, 67, 53
4, 37200, Note_on_c, 0, 67, 0
4, 37200, Note_on_c, 0, 64, 53
4, 37224, Note_on_c, 0, 64, 0
4, 37224, Note_on_c, 0, 67, 53
4, 37248, Note_on_c, 0, 67, 0
4, 37248, Note_on_c, 0, 62, 53
4, 37272, Note_on_c, 0, 62, 0
4, 37272, Note_on_c, 0, 66, 53
4, 37296, Note_on_c, 0, 66, 0
4, 37296, Note_on_c, 0, 62, 53
4, 37320, Note_on_c, 0, 62, 0
4, 37320, Note_on_c, 0, 66, 53
4, 37344, Note_on_c, 0, 66, 0
4, 37344, Note_on_c, 0, 62, 53
4, 37368, Note_on_c, 0, 62, 0
4, 37368, Note_on_c, 0, 66, 53
4, 37392, Note_on_c, 0, 66, 0
4, 37392, Note_on_c, 0, 62, 53
4, 37416, Note_on_c, 0, 62, 0
4, 37416, Note_on_c, 0, 66, 53
4, 37440, Note_on_c, 0, 66, 0
4, 37440, Note_on_c, 0, 61, 53
4, 37464, Note_on_c, 0, 61, 0
4, 37464, Note_on_c, 0, 67, 53
4, 37488, Note_on_c, 0, 67, 0
4, 37488, Note_on_c, 0, 61, 53
4, 37512, Note_on_c, 0, 61, 0
4, 37512, Note_on_c, 0, 67, 53
4, 37536, Note_on_c, 0, 67, 0
4, 37536, Note_on_c, 0, 61, 53
4, 37560, Note_on_c, 0, 61, 0
4, 37560, Note_on_c, 0, 67, 53
4, 37584, Note_on_c, 0, 67, 0
4, 37584, Note_on_c, 0, 61, 53
4, 37608, Note_on_c, 0, 61, 0
4, 37608, Note_on_c, 0, 67, 53
4, 37632, Note_on_c, 0, 67, 0
4, 37632, Note_on_c, 0, 62, 53
4, 37656, Note_on_c, 0, 62, 0
4, 37656, Note_on_c, 0, 66, 53
4, 37680, Note_on_c, 0, 66, 0
4, 37680, Note_on_c, 0, 62, 53
4, 37704, Note_on_c, 0, 62, 0
4, 37704, Note_on_c, 0, 66, 53
4, 37728, Note_on_c, 0, 66, 0
4, 37728, Note_on_c, 0, 61, 53
4, 37752, Note_on_c, 0, 61, 0
4, 37752, Note_on_c, 0, 64, 53
4, 37776, Note_on_c, 0, 64, 0
4, 37776, Note_on_c, 0, 61, 53
4, 37800, Note_on_c, 0, 61, 0
4, 37800, Note_on_c, 0, 64, 53
4, 37824, Note_on_c, 0, 64, 0
4, 37824, Note_on_c, 0, 78, 53
4, 37848, Note_on_c, 0, 78, 0
4, 37872, Note_on_c, 0, 78, 53
4, 37896, Note_on_c, 0, 78, 0
4, 37920, Note_on_c, 0, 78, 53
4, 37944, Note_on_c, 0, 78, 0
4, 37968, Note_on_c, 0, 78, 53
4, 37992, Note_on_c, 0, 78, 0
4, 38016, Note_on_c, 0, 78, 53
4, 38040, Note_on_c, 0, 78, 0
4, 38064, Note_on_c, 0, 78, 53
4, 38088, Note_on_c, 0, 78, 0
4, 38112, Note_on_c, 0, 78, 53
4, 38136, Note_on_c, 0, 78, 0
4, 38160, Note_on_c, 0, 78, 53
4, 38184, Note_on_c, 0, 78, 0
4, 38208, Note_on_c, 0, 78, 53
4, 38232, Note_on_c, 0, 78, 0
4, 38256, Note_on_c, 0, 78, 53
4, 38280, Note_on_c, 0, 78, 0
4, 38304, Note_on_c, 0, 78, 53
4, 38328, Note_on_c, 0, 78, 0
4, 38352, Note_on_c, 0, 78, 53
4, 38376, Note_on_c, 0, 78, 0
4, 38400, Note_on_c, 0, 78, 53
4, 38424, Note_on_c, 0, 78, 0
4, 38448, Note_on_c, 0, 78, 53
4, 38472, Note_on_c, 0, 78, 0
4, 38496, Note_on_c, 0, 78, 53
4, 38520, Note_on_c, 0, 78, 0
4, 38544, Note_on_c, 0, 78, 53
4, 38568, Note_on_c, 0, 78, 0
4, 38592, Note_on_c, 0, 78, 53
4, 38616, Note_on_c, 0, 78, 0
4, 38640, Note_on_c, 0, 78, 53
4, 38664, Note_on_c, 0, 78, 0
4, 38688, Note_on_c, 0, 78, 53
4, 38712, Note_on_c, 0, 78, 0
4, 38736, Note_on_c, 0, 78, 53
4, 38760, Note_on_c, 0, 78, 0
4, 38784, Note_on_c, 0, 78, 53
4, 38808, Note_on_c, 0, 78, 0
4, 38832, Note_on_c, 0, 78, 53
4, 38856, Note_on_c, 0, 78, 0
4, 38880, Note_on_c, 0, 78, 53
4, 38904, Note_on_c, 0, 78, 0
4, 38928, Note_on_c, 0, 78, 53
4, 38952, Note_on_c, 0, 78, 0
4, 38976, Note_on_c, 0, 77, 53
4, 39000, Note_on_c, 0, 77, 0
4, 39024, Note_on_c, 0, 77, 53
4, 39048, Note_on_c, 0, 77, 0
4, 39072, Note_on_c, 0, 77, 53
4, 39096, Note_on_c, 0, 77, 0
4, 39120, Note_on_c, 0, 77, 53
4, 39144, Note_on_c, 0, 77, 0
4, 39168, Note_on_c, 0, 83, 53
4, 39192, Note_on_c, 0, 83, 0
4, 39216, Note_on_c, 0, 83, 53
4, 39240, Note_on_c, 0, 83, 0
4, 39264, Note_on_c, 0, 81, 53
4, 39288, Note_on_c, 0, 81, 0
4, 39312, Note_on_c, 0, 81, 53
4, 39336, Note_on_c, 0, 81, 0
4, 39360, Note_on_c, 0, 81, 53
4, 39384, Note_on_c, 0, 81, 0
4, 39408, Note_on_c, 0, 81, 53
4, 39432, Note_on_c, 0, 81, 0
4, 39456, Note_on_c, 0, 79, 53
4, 39480, Note_on_c, 0, 79, 0
4, 39504, Note_on_c, 0, 79, 53
4, 39528, Note_on_c, 0, 79, 0
4, 39552, Note_on_c, 0, 74, 53
4, 39576, Note_on_c, 0, 74, 0
4, 39600, Note_on_c, 0, 74, 53
4, 39624, Note_on_c, 0, 74, 0
4, 39648, Note_on_c, 0, 73, 53
4, 39672, Note_on_c, 0, 73, 0
4, 39696, Note_on_c, 0, 73, 53
4, 39720, Note_on_c, 0, 73, 0
4, 39744, Note_on_c, 0, 66, 53
4, 39792, Note_on_c, 0, 66, 0
4, 39888, Note_on_c, 0, 62, 53
4, 39936, Note_on_c, 0, 62, 0
4, 39936, Note_on_c, 0, 64, 53
4, 39984, Note_on_c, 0, 64, 0
4, 39984, Note_on_c, 0, 66, 53
4, 40032, Note_on_c, 0, 66, 0
4, 40032, Note_on_c, 0, 67, 53
4, 40080, Note_on_c, 0, 67, 0
4, 40080, Note_on_c, 0, 68, 53
4, 40128, Note_on_c, 0, 68, 0
4, 40128, Note_on_c, 0, 71, 53
4, 40176, Note_on_c, 0, 71, 0
4, 40176, Note_on_c, 0, 69, 53
4, 40224, Note_on_c, 0, 69, 0
4, 40272, Note_on_c, 0, 62, 53
4, 40320, Note_on_c, 0, 62, 0
4, 40320, Note_on_c, 0, 64, 53
4, 40368, Note_on_c, 0, 64, 0
4, 40368, Note_on_c, 0, 66, 53
4, 40416, Note_on_c, 0, 66, 0
4, 40416, Note_on_c, 0, 67, 53
4, 40464, Note_on_c, 0, 67, 0
4, 40464, Note_on_c, 0, 68, 53
4, 40512, Note_on_c, 0, 68, 0
4, 40512, Note_on_c, 0, 71, 53
4, 40560, Note_on_c, 0, 71, 0
4, 40560, Note_on_c, 0, 69, 53
4, 40608, Note_on_c, 0, 69, 0
4, 40656, Note_on_c, 0, 62, 53
4, 40704, Note_on_c, 0, 62, 0
4, 40704, Note_on_c, 0, 64, 53
4, 40752, Note_on_c, 0, 64, 0
4, 40752, Note_on_c, 0, 65, 53
4, 40800, Note_on_c, 0, 65, 0
4, 40800, Note_on_c, 0, 67, 53
4, 40848, Note_on_c, 0, 67, 0
4, 40848, Note_on_c, 0, 69, 53
4, 40896, Note_on_c, 0, 69, 0
4, 40896, Note_on_c, 0, 70, 53
4, 41040, Note_on_c, 0, 70, 0
4, 41040, Note_on_c, 0, 76, 53
4, 41088, Note_on_c, 0, 76, 0
4, 41088, Note_on_c, 0, 77, 53
4, 41136, Note_on_c, 0, 77, 0
4, 41136, Note_on_c, 0, 78, 53
4, 41184, Note_on_c, 0, 78, 0
4, 41184, Note_on_c, 0, 79, 53
4, 41328, Note_on_c, 0, 79, 0
4, 41328, Note_on_c, 0, 76, 53
4, 41376, Note_on_c, 0, 76, 0
4, 41376, Note_on_c, 0, 77, 53
4, 41424, Note_on_c, 0, 77, 0
4, 41424, Note_on_c, 0, 69, 53
4, 41472, Note_on_c, 0, 69, 0
4, 41472, Note_on_c, 0, 74, 53
4, 41520, Note_on_c, 0, 74, 0
4, 41520, Note_on_c, 0, 70, 53
4, 41568, Note_on_c, 0, 70, 0
4, 41568, Note_on_c, 0, 75, 53
4, 41616, Note_on_c, 0, 75, 0
4, 41616, Note_on_c, 0, 67, 53
4, 41664, Note_on_c, 0, 67, 0
4, 41664, Note_on_c, 0, 73, 53
4, 41712, Note_on_c, 0, 73, 0
4, 41712, Note_on_c, 0, 76, 53
4, 41760, Note_on_c, 0, 76, 0
4, 41760, Note_on_c, 0, 74, 53
4, 41808, Note_on_c, 0, 74, 0
4, 41808, Note_on_c, 0, 70, 53
4, 41856, Note_on_c, 0, 70, 0
4, 43584, Note_on_c, 0, 66, 53
4, 43632, Note_on_c, 0, 66, 0
4, 43776, Note_on_c, 0, 62, 53
4, 43920, Note_on_c, 0, 62, 0
4, 43920, Note_on_c, 0, 66, 53
4, 43968, Note_on_c, 0, 66, 0
4, 43968, Note_on_c, 0, 64, 53
4, 44016, Note_on_c, 0, 64, 0
4, 44160, Note_on_c, 0, 69, 53
4, 44208, Note_on_c, 0, 69, 0
4, 44208, Note_on_c, 0, 69, 53
4, 44256, Note_on_c, 0, 69, 0
4, 44256, Note_on_c, 0, 69, 53
4, 44304, Note_on_c, 0, 69, 0
4, 44304, Note_on_c, 0, 69, 53
4, 44352, Note_on_c, 0, 69, 0
4, 44352, Note_on_c, 0, 69, 53
4, 44424, Note_on_c, 0, 69, 0
4, 44544, Note_on_c, 0, 74, 53
4, 44688, Note_on_c, 0, 74, 0
4, 44688, Note_on_c, 0, 66, 53
4, 44736, Note_on_c, 0, 66, 0
4, 44736, Note_on_c, 0, 64, 53
4, 44784, Note_on_c, 0, 64, 0
4, 44784, Note_on_c, 0, 67, 53
4, 44832, Note_on_c, 0, 67, 0
4, 44832, Note_on_c, 0, 71, 53
4, 44880, Note_on_c, 0, 71, 0
4, 44880, Note_on_c, 0, 71, 53
4, 44928, Note_on_c, 0, 71, 0
4, 44928, Note_on_c, 0, 67, 53
4, 44976, Note_on_c, 0, 67, 0
4, 44976, Note_on_c, 0, 64, 53
4, 45024, Note_on_c, 0, 64, 0
4, 45024, Note_on_c, 0, 61, 53
4, 45072, Note_on_c, 0, 61, 0
4, 45072, Note_on_c, 0, 61, 53
4, 45120, Note_on_c, 0, 61, 0
4, 45888, Note_on_c, 0, 57, 53
4, 46080, Note_on_c, 0, 57, 0
4, 46080, Note_on_c, 0, 57, 53
4, 46176, Note_on_c, 0, 57, 0
4, 46176, Note_on_c, 0, 60, 53
4, 46272, Note_on_c, 0, 60, 0
4, 46272, Note_on_c, 0, 59, 53
4, 46368, Note_on_c, 0, 59, 0
4, 46368, Note_on_c, 0, 62, 53
4, 46464, Note_on_c, 0, 62, 0
4, 46464, Note_on_c, 0, 61, 53
4, 46560, Note_on_c, 0, 61, 0
4, 46560, Note_on_c, 0, 55, 53
4, 46656, Note_on_c, 0, 55, 0
4, 47808, Note_on_c, 0, 79, 53
4, 47832, Note_on_c, 0, 79, 0
4, 47856, Note_on_c, 0, 79, 53
4, 47880, Note_on_c, 0, 79, 0
4, 47904, Note_on_c, 0, 78, 53
4, 47928, Note_on_c, 0, 78, 0
4, 47952, Note_on_c, 0, 78, 53
4, 47976, Note_on_c, 0, 78, 0
4, 48000, Note_on_c, 0, 79, 53
4, 48024, Note_on_c, 0, 79, 0
4, 48048, Note_on_c, 0, 78, 53
4, 48072, Note_on_c, 0, 78, 0
4, 48096, Note_on_c, 0, 79, 53
4, 48120, Note_on_c, 0, 79, 0
4, 48144, Note_on_c, 0, 79, 53
4, 48168, Note_on_c, 0, 79, 0
4, 48192, Note_on_c, 0, 78, 53
4, 48216, Note_on_c, 0, 78, 0
4, 48336, Note_on_c, 0, 83, 53
4, 48360, Note_on_c, 0, 83, 0
4, 48384, Note_on_c, 0, 81, 53
4, 48408, Note_on_c, 0, 81, 0
4, 48432, Note_on_c, 0, 78, 53
4, 48456, Note_on_c, 0, 78, 0
4, 48528, Note_on_c, 0, 83, 53
4, 48552, Note_on_c, 0, 83, 0
4, 48576, Note_on_c, 0, 81, 53
4, 48600, Note_on_c, 0, 81, 0
4, 48624, Note_on_c, 0, 78, 53
4, 48648, Note_on_c, 0, 78, 0
4, 48720, Note_on_c, 0, 83, 53
4, 48744, Note_on_c, 0, 83, 0
4, 48768, Note_on_c, 0, 81, 53
4, 48792, Note_on_c, 0, 81, 0
4, 48816, Note_on_c, 0, 78, 53
4, 48840, Note_on_c, 0, 78, 0
4, 48912, Note_on_c, 0, 83, 53
4, 48936, Note_on_c, 0, 83, 0
4, 48960, Note_on_c, 0, 81, 53
4, 48984, Note_on_c, 0, 81, 0
4, 49104, Note_on_c, 0, 76, 53
4, 49128, Note_on_c, 0, 76, 0
4, 49152, Note_on_c, 0, 78, 53
4, 49176, Note_on_c, 0, 78, 0
4, 49296, Note_on_c, 0, 79, 53
4, 49320, Note_on_c, 0, 79, 0
4, 49344, Note_on_c, 0, 78, 53
4, 49368, Note_on_c, 0, 78, 0
4, 49488, Note_on_c, 0, 79, 53
4, 49512, Note_on_c, 0, 79, 0
4, 49536, Note_on_c, 0, 78, 53
4, 49560, Note_on_c, 0, 78, 0
4, 49584, Note_on_c, 0, 76, 53
4, 49608, Note_on_c, 0, 76, 0
4, 49632, Note_on_c, 0, 78, 53
4, 49656, Note_on_c, 0, 78, 0
4, 49680, Note_on_c, 0, 76, 53
4, 49704, Note_on_c, 0, 76, 0
4, 49728, Note_on_c, 0, 78, 53
4, 49752, Note_on_c, 0, 78, 0
4, 50304, Note_on_c, 0, 76, 53
4, 50328, Note_on_c, 0, 76, 0
4, 50328, Note_on_c, 0, 74, 53
4, 50352, Note_on_c, 0, 74, 0
4, 50352, Note_on_c, 0, 73, 53
4, 50376, Note_on_c, 0, 73, 0
4, 50376, Note_on_c, 0, 71, 53
4, 50400, Note_on_c, 0, 71, 0
4, 50400, Note_on_c, 0, 69, 53
4, 50424, Note_on_c, 0, 69, 0
4, 50424, Note_on_c, 0, 67, 53
4, 50448, Note_on_c, 0, 67, 0
4, 50448, Note_on_c, 0, 66, 53
4, 50472, Note_on_c, 0, 66, 0
4, 50472, Note_on_c, 0, 64, 53
4, 50496, Note_on_c, 0, 64, 0
4, 50496, Note_on_c, 0, 62, 53
4, 50544, Note_on_c, 0, 62, 0
4, 50592, Note_on_c, 0, 81, 53
4, 50640, Note_on_c, 0, 81, 0
4, 50688, Note_on_c, 0, 79, 53
4, 50736, Note_on_c, 0, 79, 0
4, 50784, Note_on_c, 0, 76, 53
4, 50832, Note_on_c, 0, 76, 0
4, 50880, Note_on_c, 0, 78, 53
4, 50904, Note_on_c, 0, 78, 0
4, 51024, Note_on_c, 0, 83, 53
4, 51048, Note_on_c, 0, 83, 0
4, 51072, Note_on_c, 0, 81, 53
4, 51096, Note_on_c, 0, 81, 0
4, 51120, Note_on_c, 0, 78, 53
4, 51144, Note_on_c, 0, 78, 0
4, 51216, Note_on_c, 0, 83, 53
4, 51240, Note_on_c, 0, 83, 0
4, 51264, Note_on_c, 0, 81, 53
4, 51288, Note_on_c, 0, 81, 0
4, 51312, Note_on_c, 0, 78, 53
4, 51336, Note_on_c, 0, 78, 0
4, 51408, Note_on_c, 0, 83, 53
4, 51432, Note_on_c, 0, 83, 0
4, 51456, Note_on_c, 0, 81, 53
4, 51480, Note_on_c, 0, 81, 0
4, 51504, Note_on_c, 0, 78, 53
4, 51528, Note_on_c, 0, 78, 0
4, 51552, Note_on_c, 0, 81, 53
4, 51576, Note_on_c, 0, 81, 0
4, 51600, Note_on_c, 0, 83, 53
4, 51624, Note_on_c, 0, 83, 0
4, 51648, Note_on_c, 0, 81, 53
4, 51672, Note_on_c, 0, 81, 0
4, 51792, Note_on_c, 0, 76, 53
4, 51816, Note_on_c, 0, 76, 0
4, 51840, Note_on_c, 0, 78, 53
4, 51864, Note_on_c, 0, 78, 0
4, 51984, Note_on_c, 0, 76, 53
4, 52008, Note_on_c, 0, 76, 0
4, 52032, Note_on_c, 0, 78, 53
4, 52056, Note_on_c, 0, 78, 0
4, 52176, Note_on_c, 0, 76, 53
4, 52200, Note_on_c, 0, 76, 0
4, 52224, Note_on_c, 0, 78, 53
4, 52248, Note_on_c, 0, 78, 0
4, 52272, Note_on_c, 0, 76, 53
4, 52296, Note_on_c, 0, 76, 0
4, 52320, Note_on_c, 0, 78, 53
4, 52344, Note_on_c, 0, 78, 0
4, 52368, Note_on_c, 0, 76, 53
4, 52392, Note_on_c, 0, 76, 0
4, 52416, Note_on_c, 0, 78, 53
4, 52440, Note_on_c, 0, 78, 0
4, 52992, Note_on_c, 0, 76, 53
4, 53016, Note_on_c, 0, 76, 0
4, 53016, Note_on_c, 0, 74, 53
4, 53040, Note_on_c, 0, 74, 0
4, 53040, Note_on_c, 0, 73, 53
4, 53064, Note_on_c, 0, 73, 0
4, 53064, Note_on_c, 0, 71, 53
4, 53088, Note_on_c, 0, 71, 0
4, 53088, Note_on_c, 0, 69, 53
4, 53112, Note_on_c, 0, 69, 0
4, 53112, Note_on_c, 0, 67, 53
4, 53136, Note_on_c, 0, 67, 0
4, 53136, Note_on_c, 0, 66, 53
4, 53160, Note_on_c, 0, 66, 0
4, 53160, Note_on_c, 0, 64, 53
4, 53184, Note_on_c, 0, 64, 0
4, 53184, Note_on_c, 0, 62, 53
4, 53232, Note_on_c, 0, 62, 0
4, 53280, Note_on_c, 0, 81, 53
4, 53328, Note_on_c, 0, 81, 0
4, 53376, Note_on_c, 0, 79, 53
4, 53424, Note_on_c, 0, 79, 0
4, 53472, Note_on_c, 0, 76, 53
4, 53520, Note_on_c, 0, 76, 0
4, 53760, Note_on_c, 0, 76, 53
4, 53784, Note_on_c, 0, 76, 0
4, 53784, Note_on_c, 0, 74, 53
4, 53808, Note_on_c, 0, 74, 0
4, 53808, Note_on_c, 0, 73, 53
4, 53832, Note_on_c, 0, 73, 0
4, 53832, Note_on_c, 0, 71, 53
4, 53856, Note_on_c, 0, 71, 0
4, 53856, Note_on_c, 0, 69, 53
4, 53880, Note_on_c, 0, 69, 0
4, 53880, Note_on_c, 0, 67, 53
4, 53904, Note_on_c, 0, 67, 0
4, 53904, Note_on_c, 0, 66, 53
4, 53928, Note_on_c, 0, 66, 0
4, 53928, Note_on_c, 0, 64, 53
4, 53952, Note_on_c, 0, 64, 0
4, 53952, Note_on_c, 0, 62, 53
4, 54000, Note_on_c, 0, 62, 0
4, 54048, Note_on_c, 0, 81, 53
4, 54096, Note_on_c, 0, 81, 0
4, 54144, Note_on_c, 0, 79, 53
4, 54192, Note_on_c, 0, 79, 0
4, 54240, Note_on_c, 0, 76, 53
4, 54288, Note_on_c, 0, 76, 0
4, 54336, Note_on_c, 0, 74, 53
4, 54432, Note_on_c, 0, 74, 0
4, 54480, Note_on_c, 0, 78, 53
4, 54504, Note_on_c, 0, 78, 0
4, 54504, Note_on_c, 0, 78, 53
4, 54528, Note_on_c, 0, 78, 0
4, 54528, Note_on_c, 0, 78, 53
4, 54672, Note_on_c, 0, 78, 0
4, 54672, Note_on_c, 0, 78, 53
4, 54696, Note_on_c, 0, 78, 0
4, 54696, Note_on_c, 0, 78, 53
4, 54720, Note_on_c, 0, 78, 0
4, 54720, Note_on_c, 0, 78, 53
4, 54864, Note_on_c, 0, 78, 0
4, 54864, Note_on_c, 0, 74, 53
4, 54888, Note_on_c, 0, 74, 0
4, 54888, Note_on_c, 0, 74, 53
4, 54912, Note_on_c, 0, 74, 0
4, 54912, Note_on_c, 0, 74, 53
4, 55056, Note_on_c, 0, 74, 0
4, 55056, Note_on_c, 0, 78, 53
4, 55080, Note_on_c, 0, 78, 0
4, 55080, Note_on_c, 0, 78, 53
4, 55104, Note_on_c, 0, 78, 0
4, 55104, Note_on_c, 0, 78, 53
4, 55248, Note_on_c, 0, 78, 0
4, 55248, Note_on_c, 0, 66, 53
4, 55272, Note_on_c, 0, 66, 0
4, 55272, Note_on_c, 0, 66, 53
4, 55296, Note_on_c, 0, 66, 0
4, 55296, Note_on_c, 0, 66, 53
4, 55440, Note_on_c, 0, 66, 0
4, 55440, Note_on_c, 0, 66, 53
4, 55464, Note_on_c, 0, 66, 0
4, 55464, Note_on_c, 0, 66, 53
4, 55488, Note_on_c, 0, 66, 0
4, 55488, Note_on_c, 0, 66, 53
4, 55536, Note_on_c, 0, 66, 0
4, 55584, Note_on_c, 0, 81, 53
4, 55632, Note_on_c, 0, 81, 0
4, 55680, Note_on_c, 0, 81, 53
4, 55728, Note_on_c, 0, 81, 0
4, 55776, Note_on_c, 0, 81, 53
4, 55824, Note_on_c, 0, 81, 0
4, 55872, Note_on_c, 0, 81, 53
4, 55920, Note_on_c, 0, 81, 0
4, 56064, Note_on_c, 0, 81, 53
4, 56112, Note_on_c, 0, 81, 0
4, 56256, Note_on_c, 0, 81, 53
4, 56352, Note_on_c, 0, 81, 0
4, 56448, End_track
5, 0, Start_track
5, 0, Key_signature, 2, "major"
5, 1344, Note_on_c, 0, 69, 96
5, 1536, Note_on_c, 0, 69, 0
5, 2112, Note_on_c, 0, 78, 96
5, 2304, Note_on_c, 0, 78, 0
5, 2976, Note_on_c, 0, 71, 96
5, 3024, Note_on_c, 0, 71, 0
5, 3024, Note_on_c, 0, 71, 96
5, 3048, Note_on_c, 0, 71, 0
5, 3048, Note_on_c, 0, 71, 96
5, 3072, Note_on_c, 0, 71, 0
5, 3072, Note_on_c, 0, 69, 96
5, 3120, Note_on_c, 0, 69, 0
5, 3120, Note_on_c, 0, 69, 96
5, 3144, Note_on_c, 0, 69, 0
5, 3144, Note_on_c, 0, 69, 96
5, 3168, Note_on_c, 0, 69, 0
5, 3168, Note_on_c, 0, 67, 96
5, 3216, Note_on_c, 0, 67, 0
5, 3216, Note_on_c, 0, 67, 96
5, 3240, Note_on_c, 0, 67, 0
5, 3240, Note_on_c, 0, 67, 96
5, 3264, Note_on_c, 0, 67, 0
5, 4608, Note_on_c, 0, 69, 96
5, 4800, Note_on_c, 0, 69, 0
5, 5376, Note_on_c, 0, 78, 96
5, 5568, Note_on_c, 0, 78, 0
5, 6240, Note_on_c, 0, 71, 96
5, 6288, Note_on_c, 0, 71, 0
5, 6288, Note_on_c, 0, 71, 96
5, 6312, Note_on_c, 0, 71, 0
5, 6312, Note_on_c, 0, 71, 96
5, 6336, Note_on_c, 0, 71, 0
5, 6336, Note_on_c, 0, 69, 96
5, 6384, Note_on_c, 0, 69, 0
5, 6384, Note_on_c, 0, 69, 96
5, 6408, Note_on_c, 0, 69, 0
5, 6408, Note_on_c, 0, 69, 96
5, 6432, Note_on_c, 0, 69, 0
5, 6432, Note_on_c, 0, 67, 96
5, 6480, Note_on_c, 0, 67, 0
5, 6480, Note_on_c, 0, 67, 96
5, 6504, Note_on_c, 0, 67, 0
5, 6504, Note_on_c, 0, 67, 96
5, 6528, Note_on_c, 0, 67, 0
5, 6912, Note_on_c, 0, 67, 96
5, 7056, Note_on_c, 0, 67, 0
5, 7296, Note_on_c, 0, 69, 96
5, 7440, Note_on_c, 0, 69, 0
5, 7872, Note_on_c, 0, 78, 96
5, 8064, Note_on_c, 0, 78, 0
5, 9600, Note_on_c, 0, 73, 96
5, 9696, Note_on_c, 0, 73, 0
5, 9744, Note_on_c, 0, 79, 96
5, 9792, Note_on_c, 0, 79, 0
5, 9792, Note_on_c, 0, 78, 96
5, 9888, Note_on_c, 0, 78, 0
5, 9984, Note_on_c, 0, 73, 96
5, 10080, Note_on_c, 0, 73, 0
5, 10128, Note_on_c, 0, 79, 96
5, 10176, Note_on_c, 0, 79, 0
5, 10176, Note_on_c, 0, 78, 96
5, 10272, Note_on_c, 0, 78, 0
5, 10368, Note_on_c, 0, 73, 96
5, 10416, Note_on_c, 0, 73, 0
5, 10416, Note_on_c, 0, 76, 96
5, 10464, Note_on_c, 0, 76, 0
5, 10464, Note_on_c, 0, 78, 96
5, 10512, Note_on_c, 0, 78, 0
5, 10512, Note_on_c, 0, 78, 96
5, 10560, Note_on_c, 0, 78, 0
5, 10560, Note_on_c, 0, 76, 96
5, 10608, Note_on_c, 0, 76, 0
5, 10608, Note_on_c, 0, 76, 96
5, 10656, Note_on_c, 0, 76, 0
5, 10656, Note_on_c, 0, 78, 96
5, 10704, Note_on_c, 0, 78, 0
5, 10704, Note_on_c, 0, 78, 96
5, 10752, Note_on_c, 0, 78, 0
5, 10752, Note_on_c, 0, 76, 96
5, 10800, Note_on_c, 0, 76, 0
5, 12288, Note_on_c, 0, 66, 96
5, 12432, Note_on_c, 0, 66, 0
5, 12480, Note_on_c, 0, 59, 96
5, 12672, Note_on_c, 0, 59, 0
5, 13824, Note_on_c, 0, 66, 96
5, 13968, Note_on_c, 0, 66, 0
5, 14016, Note_on_c, 0, 59, 96
5, 14208, Note_on_c, 0, 59, 0
5, 14304, Note_on_c, 0, 73, 96
5, 14352, Note_on_c, 0, 73, 0
5, 14688, Note_on_c, 0, 71, 96
5, 14736, Note_on_c, 0, 71, 0
5, 15072, Note_on_c, 0, 69, 96
5, 15120, Note_on_c, 0, 69, 0
5, 17664, Note_on_c, 0, 88, 96
5, 17760, Note_on_c, 0, 88, 0
5, 17760, Note_on_c, 0, 86, 96
5, 17856, Note_on_c, 0, 86, 0
5, 17856, Note_on_c, 0, 85, 96
5, 17952, Note_on_c, 0, 85, 0
5, 17952, Note_on_c, 0, 83, 96
5, 18048, Note_on_c, 0, 83, 0
5, 18048, Note_on_c, 0, 73, 96
5, 18096, Note_on_c, 0, 73, 0
5, 18480, Note_on_c, 0, 56, 96
5, 18528, Note_on_c, 0, 56, 0
5, 18864, Note_on_c, 0, 56, 96
5, 18912, Note_on_c, 0, 56, 0
5, 19488, Note_on_c, 0, 74, 96
5, 19536, Note_on_c, 0, 74, 0
5, 19536, Note_on_c, 0, 68, 96
5, 19584, Note_on_c, 0, 68, 0
5, 19584, Note_on_c, 0, 67, 96
5, 19680, Note_on_c, 0, 67, 0
5, 23808, Note_on_c, 0, 62, 96
5, 23832, Note_on_c, 0, 62, 0
5, 23856, Note_on_c, 0, 62, 96
5, 23880, Note_on_c, 0, 62, 0
5, 23904, Note_on_c, 0, 62, 96
5, 23928, Note_on_c, 0, 62, 0
5, 23952, Note_on_c, 0, 62, 96
5, 23976, Note_on_c, 0, 62, 0
5, 24000, Note_on_c, 0, 62, 96
5, 24024, Note_on_c, 0, 62, 0
5, 24048, Note_on_c, 0, 62, 96
5, 24072, Note_on_c, 0, 62, 0
5, 24096, Note_on_c, 0, 62, 96
5, 24120, Note_on_c, 0, 62, 0
5, 24144, Note_on_c, 0, 62, 96
5, 24168, Note_on_c, 0, 62, 0
5, 24192, Note_on_c, 0, 69, 96
5, 24288, Note_on_c, 0, 69, 0
5, 24576, Note_on_c, 0, 69, 96
5, 24672, Note_on_c, 0, 69, 0
5, 25344, Note_on_c, 0, 73, 96
5, 25392, Note_on_c, 0, 73, 0
5, 25392, Note_on_c, 0, 73, 96
5, 25488, Note_on_c, 0, 73, 0
5, 25488, Note_on_c, 0, 73, 96
5, 25584, Note_on_c, 0, 73, 0
5, 25584, Note_on_c, 0, 73, 96
5, 25680, Note_on_c, 0, 73, 0
5, 25680, Note_on_c, 0, 73, 96
5, 25776, Note_on_c, 0, 73, 0
5, 27840, Note_on_c, 0, 69, 96
5, 28032, Note_on_c, 0, 69, 0
5, 28608, Note_on_c, 0, 78, 96
5, 28800, Note_on_c, 0, 78, 0
5, 29472, Note_on_c, 0, 71, 96
5, 29520, Note_on_c, 0, 71, 0
5, 29520, Note_on_c, 0, 71, 96
5, 29544, Note_on_c, 0, 71, 0
5, 29544, Note_on_c, 0, 71, 96
5, 29568, Note_on_c, 0, 71, 0
5, 29568, Note_on_c, 0, 69, 96
5, 29616, Note_on_c, 0, 69, 0
5, 29616, Note_on_c, 0, 69, 96
5, 29640, Note_on_c, 0, 69, 0
5, 29640, Note_on_c, 0, 69, 96
5, 29664, Note_on_c, 0, 69, 0
5, 29664, Note_on_c, 0, 67, 96
5, 29712, Note_on_c, 0, 67, 0
5, 29712, Note_on_c, 0, 67, 96
5, 29736, Note_on_c, 0, 67, 0
5, 29736, Note_on_c, 0, 67, 96
5, 29760, Note_on_c, 0, 67, 0
5, 31296, Note_on_c, 0, 69, 96
5, 31392, Note_on_c, 0, 69, 0
5, 31440, Note_on_c, 0, 79, 96
5, 31488, Note_on_c, 0, 79, 0
5, 31488, Note_on_c, 0, 78, 96
5, 31584, Note_on_c, 0, 78, 0
5, 31680, Note_on_c, 0, 73, 96
5, 31776, Note_on_c, 0, 73, 0
5, 31824, Note_on_c, 0, 79, 96
5, 31872, Note_on_c, 0, 79, 0
5, 31872, Note_on_c, 0, 78, 96
5, 31968, Note_on_c, 0, 78, 0
5, 32064, Note_on_c, 0, 73, 96
5, 32112, Note_on_c, 0, 73, 0
5, 32112, Note_on_c, 0, 76, 96
5, 32160, Note_on_c, 0, 76, 0
5, 32160, Note_on_c, 0, 78, 96
5, 32208, Note_on_c, 0, 78, 0
5, 32208, Note_on_c, 0, 78, 96
5, 32256, Note_on_c, 0, 78, 0
5, 32256, Note_on_c, 0, 76, 96
5, 32304, Note_on_c, 0, 76, 0
5, 32304, Note_on_c, 0, 76, 96
5, 32352, Note_on_c, 0, 76, 0
5, 32352, Note_on_c, 0, 78, 96
5, 32400, Note_on_c, 0, 78, 0
5, 32400, Note_on_c, 0, 78, 96
5, 32448, Note_on_c, 0, 78, 0
5, 32448, Note_on_c, 0, 76, 96
5, 32496, Note_on_c, 0, 76, 0
5, 34176, Note_on_c, 0, 64, 96
5, 34368, Note_on_c, 0, 64, 0
5, 35712, Note_on_c, 0, 64, 96
5, 35904, Note_on_c, 0, 64, 0
5, 36000, Note_on_c, 0, 78, 96
5, 36048, Note_on_c, 0, 78, 0
5, 36384, Note_on_c, 0, 76, 96
5, 36432, Note_on_c, 0, 76, 0
5, 36768, Note_on_c, 0, 74, 96
5, 36816, Note_on_c, 0, 74, 0
5, 37056, Note_on_c, 0, 57, 96
5, 37080, Note_on_c, 0, 57, 0
5, 37104, Note_on_c, 0, 57, 96
5, 37128, Note_on_c, 0, 57, 0
5, 37152, Note_on_c, 0, 57, 96
5, 37176, Note_on_c, 0, 57, 0
5, 37200, Note_on_c, 0, 57, 96
5, 37224, Note_on_c, 0, 57, 0
5, 37248, Note_on_c, 0, 57, 96
5, 37272, Note_on_c, 0, 57, 0
5, 37296, Note_on_c, 0, 57, 96
5, 37320, Note_on_c, 0, 57, 0
5, 37344, Note_on_c, 0, 57, 96
5, 37368, Note_on_c, 0, 57, 0
5, 37392, Note_on_c, 0, 57, 96
5, 37416, Note_on_c, 0, 57, 0
5, 37440, Note_on_c, 0, 57, 96
5, 37464, Note_on_c, 0, 57, 0
5, 37488, Note_on_c, 0, 57, 96
5, 37512, Note_on_c, 0, 57, 0
5, 37536, Note_on_c, 0, 57, 96
5, 37560, Note_on_c, 0, 57, 0
5, 37584, Note_on_c, 0, 57, 96
5, 37608, Note_on_c, 0, 57, 0
5, 37632, Note_on_c, 0, 57, 96
5, 37656, Note_on_c, 0, 57, 0
5, 37680, Note_on_c, 0, 57, 96
5, 37704, Note_on_c, 0, 57, 0
5, 37728, Note_on_c, 0, 57, 96
5, 37752, Note_on_c, 0, 57, 0
5, 37776, Note_on_c, 0, 57, 96
5, 37800, Note_on_c, 0, 57, 0
5, 40176, Note_on_c, 0, 67, 96
5, 40224, Note_on_c, 0, 67, 0
5, 40224, Note_on_c, 0, 66, 96
5, 40272, Note_on_c, 0, 66, 0
5, 40560, Note_on_c, 0, 67, 96
5, 40608, Note_on_c, 0, 67, 0
5, 40608, Note_on_c, 0, 66, 96
5, 40656, Note_on_c, 0, 66, 0
5, 41184, Note_on_c, 0, 79, 96
5, 41232, Note_on_c, 0, 79, 0
5, 41232, Note_on_c, 0, 73, 96
5, 41280, Note_on_c, 0, 73, 0
5, 41280, Note_on_c, 0, 72, 96
5, 41376, Note_on_c, 0, 72, 0
5, 48960, Note_on_c, 0, 74, 96
5, 48984, Note_on_c, 0, 74, 0
5, 50592, Note_on_c, 0, 78, 96
5, 50640, Note_on_c, 0, 78, 0
5, 50688, Note_on_c, 0, 74, 96
5, 50736, Note_on_c, 0, 74, 0
5, 50784, Note_on_c, 0, 73, 96
5, 50832, Note_on_c, 0, 73, 0
5, 51648, Note_on_c, 0, 74, 96
5, 51672, Note_on_c, 0, 74, 0
5, 53280, Note_on_c, 0, 78, 96
5, 53328, Note_on_c, 0, 78, 0
5, 53376, Note_on_c, 0, 74, 96
5, 53424, Note_on_c, 0, 74, 0
5, 53472, Note_on_c, 0, 73, 96
5, 53520, Note_on_c, 0, 73, 0
5, 54048, Note_on_c, 0, 78, 96
5, 54096, Note_on_c, 0, 78, 0
5, 54144, Note_on_c, 0, 74, 96
5, 54192, Note_on_c, 0, 74, 0
5, 54240, Note_on_c, 0, 73, 96
5, 54288, Note_on_c, 0, 73, 0
5, 54336, Note_on_c, 0, 50, 96
5, 54360, Note_on_c, 0, 50, 0
5, 54384, Note_on_c, 0, 50, 96
5, 54408, Note_on_c, 0, 50, 0
5, 54432, Note_on_c, 0, 50, 96
5, 54456, Note_on_c, 0, 50, 0
5, 54480, Note_on_c, 0, 50, 96
5, 54504, Note_on_c, 0, 50, 0
5, 54528, Note_on_c, 0, 50, 96
5, 54552, Note_on_c, 0, 50, 0
5, 54576, Note_on_c, 0, 50, 96
5, 54600, Note_on_c, 0, 50, 0
5, 54624, Note_on_c, 0, 50, 96
5, 54648, Note_on_c, 0, 50, 0
5, 54672, Note_on_c, 0, 50, 96
5, 54696, Note_on_c, 0, 50, 0
5, 54720, Note_on_c, 0, 50, 96
5, 54744, Note_on_c, 0, 50, 0
5, 54768, Note_on_c, 0, 50, 96
5, 54792, Note_on_c, 0, 50, 0
5, 54816, Note_on_c, 0, 50, 96
5, 54840, Note_on_c, 0, 50, 0
5, 54864, Note_on_c, 0, 50, 96
5, 54888, Note_on_c, 0, 50, 0
5, 54912, Note_on_c, 0, 50, 96
5, 54936, Note_on_c, 0, 50, 0
5, 54960, Note_on_c, 0, 50, 96
5, 54984, Note_on_c, 0, 50, 0
5, 55008, Note_on_c, 0, 50, 96
5, 55032, Note_on_c, 0, 50, 0
5, 55056, Note_on_c, 0, 50, 96
5, 55080, Note_on_c, 0, 50, 0
5, 55104, Note_on_c, 0, 50, 96
5, 55128, Note_on_c, 0, 50, 0
5, 55152, Note_on_c, 0, 50, 96
5, 55176, Note_on_c, 0, 50, 0
5, 55200, Note_on_c, 0, 50, 96
5, 55224, Note_on_c, 0, 50, 0
5, 55248, Note_on_c, 0, 50, 96
5, 55272, Note_on_c, 0, 50, 0
5, 55296, Note_on_c, 0, 50, 96
5, 55320, Note_on_c, 0, 50, 0
5, 55344, Note_on_c, 0, 50, 96
5, 55368, Note_on_c, 0, 50, 0
5, 55392, Note_on_c, 0, 50, 96
5, 55416, Note_on_c, 0, 50, 0
5, 55440, Note_on_c, 0, 50, 96
5, 55464, Note_on_c, 0, 50, 0
5, 55488, Note_on_c, 0, 50, 96
5, 55536, Note_on_c, 0, 50, 0
5, 55584, Note_on_c, 0, 78, 96
5, 55632, Note_on_c, 0, 78, 0
5, 55680, Note_on_c, 0, 78, 96
5, 55728, Note_on_c, 0, 78, 0
5, 55776, Note_on_c, 0, 78, 96
5, 55824, Note_on_c, 0, 78, 0
5, 55872, Note_on_c, 0, 78, 96
5, 55920, Note_on_c, 0, 78, 0
5, 56064, Note_on_c, 0, 78, 96
5, 56112, Note_on_c, 0, 78, 0
5, 56256, Note_on_c, 0, 78, 96
5, 56352, Note_on_c, 0, 78, 0
5, 56448, End_track
6, 0, Start_track
6, 0, Key_signature, 2, "major"
6, 2112, Note_on_c, 0, 74, 96
6, 2304, Note_on_c, 0, 74, 0
6, 5376, Note_on_c, 0, 74, 96
6, 5568, Note_on_c, 0, 74, 0
6, 6528, Note_on_c, 0, 50, 96
6, 6552, Note_on_c, 0, 50, 0
6, 6576, Note_on_c, 0, 50, 96
6, 6600, Note_on_c, 0, 50, 0
6, 6624, Note_on_c, 0, 50, 96
6, 6648, Note_on_c, 0, 50, 0
6, 6672, Note_on_c, 0, 50, 96
6, 6696, Note_on_c, 0, 50, 0
6, 6720, Note_on_c, 0, 50, 96
6, 6744, Note_on_c, 0, 50, 0
6, 6768, Note_on_c, 0, 50, 96
6, 6792, Note_on_c, 0, 50, 0
6, 6816, Note_on_c, 0, 50, 96
6, 6840, Note_on_c, 0, 50, 0
6, 6864, Note_on_c, 0, 50, 96
6, 6888, Note_on_c, 0, 50, 0
6, 6912, Note_on_c, 0, 50, 96
6, 6936, Note_on_c, 0, 50, 0
6, 6960, Note_on_c, 0, 50, 96
6, 6984, Note_on_c, 0, 50, 0
6, 7008, Note_on_c, 0, 50, 96
6, 7032, Note_on_c, 0, 50, 0
6, 7056, Note_on_c, 0, 50, 96
6, 7080, Note_on_c, 0, 50, 0
6, 7104, Note_on_c, 0, 50, 96
6, 7128, Note_on_c, 0, 50, 0
6, 7152, Note_on_c, 0, 50, 96
6, 7176, Note_on_c, 0, 50, 0
6, 7200, Note_on_c, 0, 50, 96
6, 7224, Note_on_c, 0, 50, 0
6, 7248, Note_on_c, 0, 50, 96
6, 7272, Note_on_c, 0, 50, 0
6, 7296, Note_on_c, 0, 50, 96
6, 7320, Note_on_c, 0, 50, 0
6, 7344, Note_on_c, 0, 50, 96
6, 7368, Note_on_c, 0, 50, 0
6, 7392, Note_on_c, 0, 50, 96
6, 7416, Note_on_c, 0, 50, 0
6, 7440, Note_on_c, 0, 50, 96
6, 7464, Note_on_c, 0, 50, 0
6, 7488, Note_on_c, 0, 50, 96
6, 7512, Note_on_c, 0, 50, 0
6, 7536, Note_on_c, 0, 50, 96
6, 7560, Note_on_c, 0, 50, 0
6, 7584, Note_on_c, 0, 50, 96
6, 7608, Note_on_c, 0, 50, 0
6, 7632, Note_on_c, 0, 50, 96
6, 7656, Note_on_c, 0, 50, 0
6, 7680, Note_on_c, 0, 50, 96
6, 7704, Note_on_c, 0, 50, 0
6, 7728, Note_on_c, 0, 50, 96
6, 7752, Note_on_c, 0, 50, 0
6, 7776, Note_on_c, 0, 50, 96
6, 7800, Note_on_c, 0, 50, 0
6, 7824, Note_on_c, 0, 50, 96
6, 7848, Note_on_c, 0, 50, 0
6, 7872, Note_on_c, 0, 74, 96
6, 8064, Note_on_c, 0, 74, 0
6, 8592, Note_on_c, 0, 45, 96
6, 8640, Note_on_c, 0, 45, 0
6, 8640, Note_on_c, 0, 42, 96
6, 8688, Note_on_c, 0, 42, 0
6, 8688, Note_on_c, 0, 38, 96
6, 8736, Note_on_c, 0, 38, 0
6, 8784, Note_on_c, 0, 45, 96
6, 8832, Note_on_c, 0, 45, 0
6, 8832, Note_on_c, 0, 42, 96
6, 8880, Note_on_c, 0, 42, 0
6, 8880, Note_on_c, 0, 38, 96
6, 8928, Note_on_c, 0, 38, 0
6, 8976, Note_on_c, 0, 45, 96
6, 9024, Note_on_c, 0, 45, 0
6, 9024, Note_on_c, 0, 42, 96
6, 9072, Note_on_c, 0, 42, 0
6, 9072, Note_on_c, 0, 45, 96
6, 9120, Note_on_c, 0, 45, 0
6, 9120, Note_on_c, 0, 42, 96
6, 9168, Note_on_c, 0, 42, 0
6, 9168, Note_on_c, 0, 45, 96
6, 9216, Note_on_c, 0, 45, 0
6, 9216, Note_on_c, 0, 42, 96
6, 9264, Note_on_c, 0, 42, 0
6, 10752, Note_on_c, 0, 45, 96
6, 10800, Note_on_c, 0, 45, 0
6, 10800, Note_on_c, 0, 45, 96
6, 10824, Note_on_c, 0, 45, 0
6, 10824, Note_on_c, 0, 45, 96
6, 10848, Note_on_c, 0, 45, 0
6, 10848, Note_on_c, 0, 45, 96
6, 10896, Note_on_c, 0, 45, 0
6, 10896, Note_on_c, 0, 45, 96
6, 10944, Note_on_c, 0, 45, 0
6, 10944, Note_on_c, 0, 45, 96
6, 11040, Note_on_c, 0, 45, 0
6, 12480, Note_on_c, 0, 52, 96
6, 12672, Note_on_c, 0, 52, 0
6, 14016, Note_on_c, 0, 52, 96
6, 14208, Note_on_c, 0, 52, 0
6, 15360, Note_on_c, 0, 52, 96
6, 15384, Note_on_c, 0, 52, 0
6, 15408, Note_on_c, 0, 52, 96
6, 15432, Note_on_c, 0, 52, 0
6, 15456, Note_on_c, 0, 52, 96
6, 15480, Note_on_c, 0, 52, 0
6, 15504, Note_on_c, 0, 52, 96
6, 15528, Note_on_c, 0, 52, 0
6, 15552, Note_on_c, 0, 52, 96
6, 15576, Note_on_c, 0, 52, 0
6, 15600, Note_on_c, 0, 52, 96
6, 15624, Note_on_c, 0, 52, 0
6, 15648, Note_on_c, 0, 52, 96
6, 15672, Note_on_c, 0, 52, 0
6, 15696, Note_on_c, 0, 52, 96
6, 15720, Note_on_c, 0, 52, 0
6, 15744, Note_on_c, 0, 52, 96
6, 15768, Note_on_c, 0, 52, 0
6, 15792, Note_on_c, 0, 52, 96
6, 15816, Note_on_c, 0, 52, 0
6, 15840, Note_on_c, 0, 52, 96
6, 15864, Note_on_c, 0, 52, 0
6, 15888, Note_on_c, 0, 52, 96
6, 15912, Note_on_c, 0, 52, 0
6, 15936, Note_on_c, 0, 52, 96
6, 15960, Note_on_c, 0, 52, 0
6, 15984, Note_on_c, 0, 52, 96
6, 16008, Note_on_c, 0, 52, 0
6, 16032, Note_on_c, 0, 52, 96
6, 16056, Note_on_c, 0, 52, 0
6, 16080, Note_on_c, 0, 52, 96
6, 16104, Note_on_c, 0, 52, 0
6, 16128, Note_on_c, 0, 45, 96
6, 16224, Note_on_c, 0, 45, 0
6, 16272, Note_on_c, 0, 45, 96
6, 16320, Note_on_c, 0, 45, 0
6, 16320, Note_on_c, 0, 47, 96
6, 16368, Note_on_c, 0, 47, 0
6, 16368, Note_on_c, 0, 49, 96
6, 16416, Note_on_c, 0, 49, 0
6, 16416, Note_on_c, 0, 50, 96
6, 16464, Note_on_c, 0, 50, 0
6, 16464, Note_on_c, 0, 51, 96
6, 16512, Note_on_c, 0, 51, 0
6, 16512, Note_on_c, 0, 54, 96
6, 16560, Note_on_c, 0, 54, 0
6, 16560, Note_on_c, 0, 52, 96
6, 16608, Note_on_c, 0, 52, 0
6, 16656, Note_on_c, 0, 45, 96
6, 16704, Note_on_c, 0, 45, 0
6, 16704, Note_on_c, 0, 47, 96
6, 16752, Note_on_c, 0, 47, 0
6, 16752, Note_on_c, 0, 49, 96
6, 16800, Note_on_c, 0, 49, 0
6, 16800, Note_on_c, 0, 50, 96
6, 16848, Note_on_c, 0, 50, 0
6, 16848, Note_on_c, 0, 51, 96
6, 16896, Note_on_c, 0, 51, 0
6, 16896, Note_on_c, 0, 54, 96
6, 16944, Note_on_c, 0, 54, 0
6, 16944, Note_on_c, 0, 52, 96
6, 16992, Note_on_c, 0, 52, 0
6, 17040, Note_on_c, 0, 45, 96
6, 17088, Note_on_c, 0, 45, 0
6, 17088, Note_on_c, 0, 47, 96
6, 17136, Note_on_c, 0, 47, 0
6, 17136, Note_on_c, 0, 49, 96
6, 17184, Note_on_c, 0, 49, 0
6, 17184, Note_on_c, 0, 50, 96
6, 17232, Note_on_c, 0, 50, 0
6, 17232, Note_on_c, 0, 52, 96
6, 17280, Note_on_c, 0, 52, 0
6, 17280, Note_on_c, 0, 53, 96
6, 17376, Note_on_c, 0, 53, 0
6, 17376, Note_on_c, 0, 52, 96
6, 17472, Note_on_c, 0, 52, 0
6, 17472, Note_on_c, 0, 51, 96
6, 17568, Note_on_c, 0, 51, 0
6, 17568, Note_on_c, 0, 50, 96
6, 17664, Note_on_c, 0, 50, 0
6, 17664, Note_on_c, 0, 49, 96
6, 17712, Note_on_c, 0, 49, 0
6, 17712, Note_on_c, 0, 49, 96
6, 17760, Note_on_c, 0, 49, 0
6, 17760, Note_on_c, 0, 50, 96
6, 17808, Note_on_c, 0, 50, 0
6, 17808, Note_on_c, 0, 50, 96
6, 17856, Note_on_c, 0, 50, 0
6, 17856, Note_on_c, 0, 52, 96
6, 17904, Note_on_c, 0, 52, 0
6, 17904, Note_on_c, 0, 52, 96
6, 17952, Note_on_c, 0, 52, 0
6, 17952, Note_on_c, 0, 40, 96
6, 18000, Note_on_c, 0, 40, 0
6, 18000, Note_on_c, 0, 40, 96
6, 18048, Note_on_c, 0, 40, 0
6, 18048, Note_on_c, 0, 45, 96
6, 18096, Note_on_c, 0, 45, 0
6, 18480, Note_on_c, 0, 59, 96
6, 18528, Note_on_c, 0, 59, 0
6, 18528, Note_on_c, 0, 57, 96
6, 18576, Note_on_c, 0, 57, 0
6, 18864, Note_on_c, 0, 59, 96
6, 18912, Note_on_c, 0, 59, 0
6, 18912, Note_on_c, 0, 57, 96
6, 18960, Note_on_c, 0, 57, 0
6, 19776, Note_on_c, 0, 50, 96
6, 19968, Note_on_c, 0, 50, 0
6, 20064, Note_on_c, 0, 53, 96
6, 20160, Note_on_c, 0, 53, 0
6, 20160, Note_on_c, 0, 50, 96
6, 20208, Note_on_c, 0, 50, 0
6, 20208, Note_on_c, 0, 47, 96
6, 20256, Note_on_c, 0, 47, 0
6, 20256, Note_on_c, 0, 52, 96
6, 20304, Note_on_c, 0, 52, 0
6, 20304, Note_on_c, 0, 52, 96
6, 20352, Note_on_c, 0, 52, 0
6, 20352, Note_on_c, 0, 45, 96
6, 20544, Note_on_c, 0, 45, 0
6, 20544, Note_on_c, 0, 45, 96
6, 20736, Note_on_c, 0, 45, 0
6, 20736, Note_on_c, 0, 45, 96
6, 20928, Note_on_c, 0, 45, 0
6, 20928, Note_on_c, 0, 45, 96
6, 21120, Note_on_c, 0, 45, 0
6, 21120, Note_on_c, 0, 45, 96
6, 21312, Note_on_c, 0, 45, 0
6, 21312, Note_on_c, 0, 49, 96
6, 21504, Note_on_c, 0, 49, 0
6, 21504, Note_on_c, 0, 50, 96
6, 21696, Note_on_c, 0, 50, 0
6, 21696, Note_on_c, 0, 52, 96
6, 21888, Note_on_c, 0, 52, 0
6, 21888, Note_on_c, 0, 45, 96
6, 22080, Note_on_c, 0, 45, 0
6, 22080, Note_on_c, 0, 57, 96
6, 22272, Note_on_c, 0, 57, 0
6, 22272, Note_on_c, 0, 57, 96
6, 22464, Note_on_c, 0, 57, 0
6, 22464, Note_on_c, 0, 57, 96
6, 22656, Note_on_c, 0, 57, 0
6, 22656, Note_on_c, 0, 57, 96
6, 22848, Note_on_c, 0, 57, 0
6, 22848, Note_on_c, 0, 49, 96
6, 23040, Note_on_c, 0, 49, 0
6, 23040, Note_on_c, 0, 50, 96
6, 23232, Note_on_c, 0, 50, 0
6, 23232, Note_on_c, 0, 52, 96
6, 23424, Note_on_c, 0, 52, 0
6, 23424, Note_on_c, 0, 57, 96
6, 23448, Note_on_c, 0, 57, 0
6, 23472, Note_on_c, 0, 57, 96
6, 23496, Note_on_c, 0, 57, 0
6, 23520, Note_on_c, 0, 57, 96
6, 23544, Note_on_c, 0, 57, 0
6, 23568, Note_on_c, 0, 57, 96
6, 23592, Note_on_c, 0, 57, 0
6, 23616, Note_on_c, 0, 57, 96
6, 23640, Note_on_c, 0, 57, 0
6, 23664, Note_on_c, 0, 57, 96
6, 23688, Note_on_c, 0, 57, 0
6, 23712, Note_on_c, 0, 57, 96
6, 23736, Note_on_c, 0, 57, 0
6, 23760, Note_on_c, 0, 57, 96
6, 23784, Note_on_c, 0, 57, 0
6, 25344, Note_on_c, 0, 69, 96
6, 25392, Note_on_c, 0, 69, 0
6, 25392, Note_on_c, 0, 69, 96
6, 25488, Note_on_c, 0, 69, 0
6, 25488, Note_on_c, 0, 69, 96
6, 25584, Note_on_c, 0, 69, 0
6, 25584, Note_on_c, 0, 69, 96
6, 25680, Note_on_c, 0, 69, 0
6, 25680, Note_on_c, 0, 69, 96
6, 25776, Note_on_c, 0, 69, 0
6, 28608, Note_on_c, 0, 74, 96
6, 28800, Note_on_c, 0, 74, 0
6, 31440, Note_on_c, 0, 76, 96
6, 31488, Note_on_c, 0, 76, 0
6, 31824, Note_on_c, 0, 76, 96
6, 31872, Note_on_c, 0, 76, 0
6, 32448, Note_on_c, 0, 45, 96
6, 32496, Note_on_c, 0, 45, 0
6, 32496, Note_on_c, 0, 45, 96
6, 32520, Note_on_c, 0, 45, 0
6, 32520, Note_on_c, 0, 45, 96
6, 32544, Note_on_c, 0, 45, 0
6, 32544, Note_on_c, 0, 45, 96
6, 32592, Note_on_c, 0, 45, 0
6, 32592, Note_on_c, 0, 45, 96
6, 32640, Note_on_c, 0, 45, 0
6, 32640, Note_on_c, 0, 45, 96
6, 32736, Note_on_c, 0, 45, 0
6, 33984, Note_on_c, 0, 64, 96
6, 34128, Note_on_c, 0, 64, 0
6, 34176, Note_on_c, 0, 57, 96
6, 34368, Note_on_c, 0, 57, 0
6, 35520, Note_on_c, 0, 52, 96
6, 35712, Note_on_c, 0, 52, 0
6, 35712, Note_on_c, 0, 57, 96
6, 35904, Note_on_c, 0, 57, 0
6, 37824, Note_on_c, 0, 50, 96
6, 37920, Note_on_c, 0, 50, 0
6, 37968, Note_on_c, 0, 38, 96
6, 38016, Note_on_c, 0, 38, 0
6, 38016, Note_on_c, 0, 40, 96
6, 38064, Note_on_c, 0, 40, 0
6, 38064, Note_on_c, 0, 42, 96
6, 38112, Note_on_c, 0, 42, 0
6, 38112, Note_on_c, 0, 43, 96
6, 38160, Note_on_c, 0, 43, 0
6, 38160, Note_on_c, 0, 44, 96
6, 38208, Note_on_c, 0, 44, 0
6, 38208, Note_on_c, 0, 47, 96
6, 38256, Note_on_c, 0, 47, 0
6, 38256, Note_on_c, 0, 45, 96
6, 38304, Note_on_c, 0, 45, 0
6, 38352, Note_on_c, 0, 38, 96
6, 38400, Note_on_c, 0, 38, 0
6, 38400, Note_on_c, 0, 40, 96
6, 38448, Note_on_c, 0, 40, 0
6, 38448, Note_on_c, 0, 42, 96
6, 38496, Note_on_c, 0, 42, 0
6, 38496, Note_on_c, 0, 43, 96
6, 38544, Note_on_c, 0, 43, 0
6, 38544, Note_on_c, 0, 44, 96
6, 38592, Note_on_c, 0, 44, 0
6, 38592, Note_on_c, 0, 47, 96
6, 38640, Note_on_c, 0, 47, 0
6, 38640, Note_on_c, 0, 45, 96
6, 38688, Note_on_c, 0, 45, 0
6, 38736, Note_on_c, 0, 38, 96
6, 38784, Note_on_c, 0, 38, 0
6, 38784, Note_on_c, 0, 40, 96
6, 38832, Note_on_c, 0, 40, 0
6, 38832, Note_on_c, 0, 42, 96
6, 38880, Note_on_c, 0, 42, 0
6, 38880, Note_on_c, 0, 43, 96
6, 38928, Note_on_c, 0, 43, 0
6, 38928, Note_on_c, 0, 45, 96
6, 38976, Note_on_c, 0, 45, 0
6, 38976, Note_on_c, 0, 46, 96
6, 39072, Note_on_c, 0, 46, 0
6, 39072, Note_on_c, 0, 45, 96
6, 39168, Note_on_c, 0, 45, 0
6, 39168, Note_on_c, 0, 44, 96
6, 39264, Note_on_c, 0, 44, 0
6, 39264, Note_on_c, 0, 43, 96
6, 39360, Note_on_c, 0, 43, 0
6, 39360, Note_on_c, 0, 42, 96
6, 39408, Note_on_c, 0, 42, 0
6, 39408, Note_on_c, 0, 42, 96
6, 39456, Note_on_c, 0, 42, 0
6, 39456, Note_on_c, 0, 43, 96
6, 39504, Note_on_c, 0, 43, 0
6, 39504, Note_on_c, 0, 43, 96
6, 39552, Note_on_c, 0, 43, 0
6, 39552, Note_on_c, 0, 45, 96
6, 39600, Note_on_c, 0, 45, 0
6, 39600, Note_on_c, 0, 45, 96
6, 39648, Note_on_c, 0, 45, 0
6, 39648, Note_on_c, 0, 33, 96
6, 39696, Note_on_c, 0, 33, 0
6, 39696, Note_on_c, 0, 33, 96
6, 39744, Note_on_c, 0, 33, 0
6, 39744, Note_on_c, 0, 38, 96
6, 39792, Note_on_c, 0, 38, 0
6, 40176, Note_on_c, 0, 61, 96
6, 40224, Note_on_c, 0, 61, 0
6, 40560, Note_on_c, 0, 61, 96
6, 40608, Note_on_c, 0, 61, 0
6, 41472, Note_on_c, 0, 55, 96
6, 41664, Note_on_c, 0, 55, 0
6, 41760, Note_on_c, 0, 58, 96
6, 41856, Note_on_c, 0, 58, 0
6, 41856, Note_on_c, 0, 55, 96
6, 41904, Note_on_c, 0, 55, 0
6, 41904, Note_on_c, 0, 52, 96
6, 41952, Note_on_c, 0, 52, 0
6, 41952, Note_on_c, 0, 57, 96
6, 42000, Note_on_c, 0, 57, 0
6, 42000, Note_on_c, 0, 57, 96
6, 42048, Note_on_c, 0, 57, 0
6, 42048, Note_on_c, 0, 50, 96
6, 42240, Note_on_c, 0, 50, 0
6, 42240, Note_on_c, 0, 50, 96
6, 42432, Note_on_c, 0, 50, 0
6, 42432, Note_on_c, 0, 50, 96
6, 42624, Note_on_c, 0, 50, 0
6, 42624, Note_on_c, 0, 50, 96
6, 42816, Note_on_c, 0, 50, 0
6, 42816, Note_on_c, 0, 50, 96
6, 43008, Note_on_c, 0, 50, 0
6, 43008, Note_on_c, 0, 54, 96
6, 43200, Note_on_c, 0, 54, 0
6, 43200, Note_on_c, 0, 55, 96
6, 43392, Note_on_c, 0, 55, 0
6, 43392, Note_on_c, 0, 57, 96
6, 43584, Note_on_c, 0, 57, 0
6, 43584, Note_on_c, 0, 50, 96
6, 43776, Note_on_c, 0, 50, 0
6, 43776, Note_on_c, 0, 50, 96
6, 43968, Note_on_c, 0, 50, 0
6, 43968, Note_on_c, 0, 50, 96
6, 44160, Note_on_c, 0, 50, 0
6, 44160, Note_on_c, 0, 50, 96
6, 44352, Note_on_c, 0, 50, 0
6, 44352, Note_on_c, 0, 50, 96
6, 44544, Note_on_c, 0, 50, 0
6, 44544, Note_on_c, 0, 42, 96
6, 44736, Note_on_c, 0, 42, 0
6, 44736, Note_on_c, 0, 43, 96
6, 44928, Note_on_c, 0, 43, 0
6, 44928, Note_on_c, 0, 45, 96
6, 45120, Note_on_c, 0, 45, 0
6, 45120, Note_on_c, 0, 50, 96
6, 45168, Note_on_c, 0, 50, 0
6, 45888, Note_on_c, 0, 50, 96
6, 45936, Note_on_c, 0, 50, 0
6, 45984, Note_on_c, 0, 50, 96
6, 46032, Note_on_c, 0, 50, 0
6, 46080, Note_on_c, 0, 50, 96
6, 46128, Note_on_c, 0, 50, 0
6, 46176, Note_on_c, 0, 50, 96
6, 46224, Note_on_c, 0, 50, 0
6, 46272, Note_on_c, 0, 50, 96
6, 46320, Note_on_c, 0, 50, 0
6, 46368, Note_on_c, 0, 50, 96
6, 46416, Note_on_c, 0, 50, 0
6, 46464, Note_on_c, 0, 50, 96
6, 46512, Note_on_c, 0, 50, 0
6, 46560, Note_on_c, 0, 50, 96
6, 46608, Note_on_c, 0, 50, 0
6, 46656, Note_on_c, 0, 50, 96
6, 46704, Note_on_c, 0, 50, 0
6, 46752, Note_on_c, 0, 50, 96
6, 46800, Note_on_c, 0, 50, 0
6, 46848, Note_on_c, 0, 50, 96
6, 46896, Note_on_c, 0, 50, 0
6, 46944, Note_on_c, 0, 50, 96
6, 46992, Note_on_c, 0, 50, 0
6, 47040, Note_on_c, 0, 50, 96
6, 47088, Note_on_c, 0, 50, 0
6, 47136, Note_on_c, 0, 50, 96
6, 47184, Note_on_c, 0, 50, 0
6, 47232, Note_on_c, 0, 50, 96
6, 47280, Note_on_c, 0, 50, 0
6, 47328, Note_on_c, 0, 50, 96
6, 47376, Note_on_c, 0, 50, 0
6, 47424, Note_on_c, 0, 50, 96
6, 47520, Note_on_c, 0, 50, 0
6, 47520, Note_on_c, 0, 50, 96
6, 47616, Note_on_c, 0, 50, 0
6, 47616, Note_on_c, 0, 50, 96
6, 47712, Note_on_c, 0, 50, 0
6, 47712, Note_on_c, 0, 50, 96
6, 47808, Note_on_c, 0, 50, 0
6, 48192, Note_on_c, 0, 50, 96
6, 48288, Note_on_c, 0, 50, 0
6, 48336, Note_on_c, 0, 43, 96
6, 48384, Note_on_c, 0, 43, 0
6, 48384, Note_on_c, 0, 42, 96
6, 48432, Note_on_c, 0, 42, 0
6, 48432, Note_on_c, 0, 38, 96
6, 48480, Note_on_c, 0, 38, 0
6, 48528, Note_on_c, 0, 43, 96
6, 48576, Note_on_c, 0, 43, 0
6, 48576, Note_on_c, 0, 42, 96
6, 48624, Note_on_c, 0, 42, 0
6, 48624, Note_on_c, 0, 38, 96
6, 48672, Note_on_c, 0, 38, 0
6, 48720, Note_on_c, 0, 43, 96
6, 48768, Note_on_c, 0, 43, 0
6, 48768, Note_on_c, 0, 42, 96
6, 48816, Note_on_c, 0, 42, 0
6, 48816, Note_on_c, 0, 38, 96
6, 48864, Note_on_c, 0, 38, 0
6, 48864, Note_on_c, 0, 42, 96
6, 48912, Note_on_c, 0, 42, 0
6, 48912, Note_on_c, 0, 43, 96
6, 48960, Note_on_c, 0, 43, 0
6, 48960, Note_on_c, 0, 42, 96
6, 49008, Note_on_c, 0, 42, 0
6, 49008, Note_on_c, 0, 38, 96
6, 49056, Note_on_c, 0, 38, 0
6, 49104, Note_on_c, 0, 45, 96
6, 49152, Note_on_c, 0, 45, 0
6, 49152, Note_on_c, 0, 42, 96
6, 49200, Note_on_c, 0, 42, 0
6, 49200, Note_on_c, 0, 38, 96
6, 49248, Note_on_c, 0, 38, 0
6, 49296, Note_on_c, 0, 45, 96
6, 49344, Note_on_c, 0, 45, 0
6, 49344, Note_on_c, 0, 42, 96
6, 49392, Note_on_c, 0, 42, 0
6, 49392, Note_on_c, 0, 38, 96
6, 49440, Note_on_c, 0, 38, 0
6, 49488, Note_on_c, 0, 45, 96
6, 49536, Note_on_c, 0, 45, 0
6, 49536, Note_on_c, 0, 42, 96
6, 49584, Note_on_c, 0, 42, 0
6, 49584, Note_on_c, 0, 45, 96
6, 49632, Note_on_c, 0, 45, 0
6, 49632, Note_on_c, 0, 42, 96
6, 49680, Note_on_c, 0, 42, 0
6, 49680, Note_on_c, 0, 45, 96
6, 49728, Note_on_c, 0, 45, 0
6, 49728, Note_on_c, 0, 38, 96
6, 49872, Note_on_c, 0, 38, 0
6, 50592, Note_on_c, 0, 50, 96
6, 50640, Note_on_c, 0, 50, 0
6, 50688, Note_on_c, 0, 43, 96
6, 50736, Note_on_c, 0, 43, 0
6, 50784, Note_on_c, 0, 45, 96
6, 50832, Note_on_c, 0, 45, 0
6, 50880, Note_on_c, 0, 38, 96
6, 50976, Note_on_c, 0, 38, 0
6, 51024, Note_on_c, 0, 43, 96
6, 51072, Note_on_c, 0, 43, 0
6, 51072, Note_on_c, 0, 42, 96
6, 51120, Note_on_c, 0, 42, 0
6, 51120, Note_on_c, 0, 38, 96
6, 51168, Note_on_c, 0, 38, 0
6, 51216, Note_on_c, 0, 43, 96
6, 51264, Note_on_c, 0, 43, 0
6, 51264, Note_on_c, 0, 42, 96
6, 51312, Note_on_c, 0, 42, 0
6, 51312, Note_on_c, 0, 38, 96
6, 51360, Note_on_c, 0, 38, 0
6, 51408, Note_on_c, 0, 43, 96
6, 51456, Note_on_c, 0, 43, 0
6, 51456, Note_on_c, 0, 42, 96
6, 51504, Note_on_c, 0, 42, 0
6, 51504, Note_on_c, 0, 38, 96
6, 51552, Note_on_c, 0, 38, 0
6, 51552, Note_on_c, 0, 42, 96
6, 51600, Note_on_c, 0, 42, 0
6, 51600, Note_on_c, 0, 43, 96
6, 51648, Note_on_c, 0, 43, 0
6, 51648, Note_on_c, 0, 42, 96
6, 51696, Note_on_c, 0, 42, 0
6, 51696, Note_on_c, 0, 38, 96
6, 51744, Note_on_c, 0, 38, 0
6, 51792, Note_on_c, 0, 45, 96
6, 51840, Note_on_c, 0, 45, 0
6, 51840, Note_on_c, 0, 42, 96
6, 51888, Note_on_c, 0, 42, 0
6, 51888, Note_on_c, 0, 38, 96
6, 51936, Note_on_c, 0, 38, 0
6, 51984, Note_on_c, 0, 45, 96
6, 52032, Note_on_c, 0, 45, 0
6, 52032, Note_on_c, 0, 42, 96
6, 52080, Note_on_c, 0, 42, 0
6, 52080, Note_on_c, 0, 38, 96
6, 52128, Note_on_c, 0, 38, 0
6, 52176, Note_on_c, 0, 45, 96
6, 52224, Note_on_c, 0, 45, 0
6, 52224, Note_on_c, 0, 42, 96
6, 52272, Note_on_c, 0, 42, 0
6, 52272, Note_on_c, 0, 45, 96
6, 52320, Note_on_c, 0, 45, 0
6, 52320, Note_on_c, 0, 42, 96
6, 52368, Note_on_c, 0, 42, 0
6, 52368, Note_on_c, 0, 45, 96
6, 52416, Note_on_c, 0, 45, 0
6, 52416, Note_on_c, 0, 38, 96
6, 52560, Note_on_c, 0, 38, 0
6, 53280, Note_on_c, 0, 50, 96
6, 53328, Note_on_c, 0, 50, 0
6, 53376, Note_on_c, 0, 43, 96
6, 53424, Note_on_c, 0, 43, 0
6, 53472, Note_on_c, 0, 45, 96
6, 53520, Note_on_c, 0, 45, 0
6, 54048, Note_on_c, 0, 50, 96
6, 54096, Note_on_c, 0, 50, 0
6, 54144, Note_on_c, 0, 43, 96
6, 54192, Note_on_c, 0, 43, 0
6, 54240, Note_on_c, 0, 45, 96
6, 54288, Note_on_c, 0, 45, 0
6, 54336, Note_on_c, 0, 54, 96
6, 54360, Note_on_c, 0, 54, 0
6, 54384, Note_on_c, 0, 54, 96
6, 54408, Note_on_c, 0, 54, 0
6, 54432, Note_on_c, 0, 54, 96
6, 54456, Note_on_c, 0, 54, 0
6, 54480, Note_on_c, 0, 54, 96
6, 54504, Note_on_c, 0, 54, 0
6, 54528, Note_on_c, 0, 54, 96
6, 54552, Note_on_c, 0, 54, 0
6, 54576, Note_on_c, 0, 54, 96
6, 54600, Note_on_c, 0, 54, 0
6, 54624, Note_on_c, 0, 54, 96
6, 54648, Note_on_c, 0, 54, 0
6, 54672, Note_on_c, 0, 54, 96
6, 54696, Note_on_c, 0, 54, 0
6, 54720, Note_on_c, 0, 54, 96
6, 54744, Note_on_c, 0, 54, 0
6, 54768, Note_on_c, 0, 54, 96
6, 54792, Note_on_c, 0, 54, 0
6, 54816, Note_on_c, 0, 54, 96
6, 54840, Note_on_c, 0, 54, 0
6, 54864, Note_on_c, 0, 54, 96
6, 54888, Note_on_c, 0, 54, 0
6, 54912, Note_on_c, 0, 54, 96
6, 54936, Note_on_c, 0, 54, 0
6, 54960, Note_on_c, 0, 54, 96
6, 54984, Note_on_c, 0, 54, 0
6, 55008, Note_on_c, 0, 54, 96
6, 55032, Note_on_c, 0, 54, 0
6, 55056, Note_on_c, 0, 54, 96
6, 55080, Note_on_c, 0, 54, 0
6, 55104, Note_on_c, 0, 54, 96
6, 55128, Note_on_c, 0, 54, 0
6, 55152, Note_on_c, 0, 54, 96
6, 55176, Note_on_c, 0, 54, 0
6, 55200, Note_on_c, 0, 54, 96
6, 55224, Note_on_c, 0, 54, 0
6, 55248, Note_on_c, 0, 54, 96
6, 55272, Note_on_c, 0, 54, 0
6, 55296, Note_on_c, 0, 54, 96
6, 55320, Note_on_c, 0, 54, 0
6, 55344, Note_on_c, 0, 54, 96
6, 55368, Note_on_c, 0, 54, 0
6, 55392, Note_on_c, 0, 54, 96
6, 55416, Note_on_c, 0, 54, 0
6, 55440, Note_on_c, 0, 54, 96
6, 55464, Note_on_c, 0, 54, 0
6, 55488, Note_on_c, 0, 54, 96
6, 55536, Note_on_c, 0, 54, 0
6, 55584, Note_on_c, 0, 42, 96
6, 55632, Note_on_c, 0, 42, 0
6, 55680, Note_on_c, 0, 45, 96
6, 55728, Note_on_c, 0, 45, 0
6, 55776, Note_on_c, 0, 42, 96
6, 55824, Note_on_c, 0, 42, 0
6, 55872, Note_on_c, 0, 38, 96
6, 55920, Note_on_c, 0, 38, 0
6, 56064, Note_on_c, 0, 38, 96
6, 56112, Note_on_c, 0, 38, 0
6, 56256, Note_on_c, 0, 38, 96
6, 56352, Note_on_c, 0, 38, 0
6, 56448, End_track
0, 0, End_of_file
