0, 0, Header, 1, 15, 480
1, 0, Start_track
1, 0, Time_signature, 4, 2, 24, 8
1, 0, Key_signature, 0, "major"
1, 0, Tempo, 517241
1, 0, Marker_t, "untitled"
1, 0, Marker_t, "1st Movement,  Allegro"
1, 478560, Tempo, 606061
1, 479480, Tempo, 833333
1, 480000, Tempo, 1481481
1, 480504, Tempo, 3000000
1, 480680, Tempo, 6000000
1, 480784, Tempo, 1188119
1, 480972, Tempo, 869565
1, 481944, Tempo, 521739
1, 507845, Tempo, 603015
1, 508330, Tempo, 710059
1, 508805, Tempo, 1250000
1, 510720, Time_signature, 3, 2, 24, 8
1, 510720, Key_signature, -1, "major"
1, 510720, Marker_t, "2nd Movement, Andantino"
1, 656630, Tempo, 1333333
1, 657130, Tempo, 1500000
1, 657600, Tempo, 1714286
1, 658080, Tempo, 3000000
1, 658300, Tempo, 6000000
1, 658500, Tempo, 3076923
1, 658555, Tempo, 1518987
1, 658800, Tempo, 1318681
1, 658965, Tempo, 2000000
1, 659040, Tempo, 1200000
1, 674890, Tempo, 1250000
1, 676320, Tempo, 1363636
1, 677750, Tempo, 1518987
1, 679240, Tempo, 2000000
1, 680640, Time_signature, 2, 1, 48, 8
1, 680640, Key_signature, 0, "major"
1, 680640, Tempo, 394737
1, 680640, Marker_t, "3rd Movement, Rondo.Allegro"
1, 1367940, Tempo, 427046
1, 1368980, Tempo, 458015
1, 1369980, Tempo, 495868
1, 1371780, Tempo, 597015
1, 1373700, Tempo, 670391
1, 1375660, Tempo, 461538
1, 1376180, Tempo, 427046
1, 1377500, Tempo, 410959
1, 1433280, Tempo, 428571
1, 1434280, Tempo, 458015
1, 1435200, Tempo, 545455
1, 1435200, End_track
2, 0, Start_track
2, 0, MIDI_port, 0
2, 0, Title_t, "Oboe"
2, 0, Control_c, 0, 0, 0
2, 0, Control_c, 0, 32, 1
2, 0, Program_c, 0, 68
2, 0, Control_c, 0, 7, 100
2, 0, Control_c, 0, 10, 50
2, 1910, Note_on_c, 0, 84, 105
2, 2594, Note_on_c, 0, 84, 0
2, 2630, Note_on_c, 0, 79, 105
2, 2858, Note_on_c, 0, 79, 0
2, 2870, Note_on_c, 0, 76, 105
2, 3098, Note_on_c, 0, 76, 0
2, 3110, Note_on_c, 0, 72, 105
2, 3338, Note_on_c, 0, 72, 0
2, 3350, Note_on_c, 0, 76, 105
2, 3578, Note_on_c, 0, 76, 0
2, 3590, Note_on_c, 0, 79, 105
2, 3818, Note_on_c, 0, 79, 0
2, 3830, Note_on_c, 0, 84, 105
2, 4514, Note_on_c, 0, 84, 0
2, 4550, Note_on_c, 0, 79, 105
2, 4778, Note_on_c, 0, 79, 0
2, 4790, Note_on_c, 0, 76, 105
2, 5018, Note_on_c, 0, 76, 0
2, 5030, Note_on_c, 0, 72, 105
2, 5258, Note_on_c, 0, 72, 0
2, 5270, Note_on_c, 0, 76, 105
2, 5498, Note_on_c, 0, 76, 0
2, 5510, Note_on_c, 0, 79, 105
2, 5738, Note_on_c, 0, 79, 0
2, 5750, Note_on_c, 0, 84, 105
2, 6206, Note_on_c, 0, 84, 0
2, 6230, Note_on_c, 0, 72, 70
2, 6710, Note_on_c, 0, 71, 70
2, 6829, Note_on_c, 0, 72, 0
2, 7190, Note_on_c, 0, 72, 70
2, 7249, Note_on_c, 0, 71, 0
2, 7609, Note_on_c, 0, 72, 0
2, 7670, Note_on_c, 0, 74, 88
2, 7862, Note_on_c, 0, 74, 0
2, 8150, Note_on_c, 0, 74, 70
2, 8630, Note_on_c, 0, 73, 70
2, 8749, Note_on_c, 0, 74, 0
2, 9110, Note_on_c, 0, 74, 70
2, 9169, Note_on_c, 0, 73, 0
2, 9526, Note_on_c, 0, 74, 0
2, 9590, Note_on_c, 0, 76, 89
2, 9782, Note_on_c, 0, 76, 0
2, 10070, Note_on_c, 0, 76, 70
2, 10550, Note_on_c, 0, 75, 70
2, 10622, Note_on_c, 0, 76, 0
2, 11030, Note_on_c, 0, 76, 70
2, 11094, Note_on_c, 0, 75, 0
2, 11438, Note_on_c, 0, 76, 0
2, 11510, Note_on_c, 0, 77, 70
2, 11990, Note_on_c, 0, 79, 77
2, 12054, Note_on_c, 0, 77, 0
2, 12470, Note_on_c, 0, 81, 85
2, 12550, Note_on_c, 0, 79, 0
2, 12950, Note_on_c, 0, 83, 94
2, 13014, Note_on_c, 0, 81, 0
2, 13350, Note_on_c, 0, 83, 0
2, 13430, Note_on_c, 0, 84, 102
2, 16726, Note_on_c, 0, 84, 0
2, 16790, Note_on_c, 0, 76, 103
2, 16910, Note_on_c, 0, 77, 106
2, 16950, Note_on_c, 0, 76, 0
2, 17030, Note_on_c, 0, 76, 105
2, 17030, Note_on_c, 0, 79, 105
2, 17070, Note_on_c, 0, 77, 0
2, 17126, Note_on_c, 0, 76, 0
2, 17150, Note_on_c, 0, 76, 101
2, 17190, Note_on_c, 0, 79, 0
2, 17270, Note_on_c, 0, 76, 0
2, 17270, Note_on_c, 0, 81, 101
2, 17750, Note_on_c, 0, 81, 0
2, 20630, Note_on_c, 0, 72, 94
2, 20750, Note_on_c, 0, 74, 101
2, 20790, Note_on_c, 0, 72, 0
2, 20870, Note_on_c, 0, 76, 99
2, 20910, Note_on_c, 0, 74, 0
2, 20990, Note_on_c, 0, 76, 0
2, 20990, Note_on_c, 0, 76, 96
2, 21110, Note_on_c, 0, 76, 0
2, 21110, Note_on_c, 0, 77, 104
2, 23030, Note_on_c, 0, 77, 0
2, 23030, Note_on_c, 0, 76, 105
2, 24902, Note_on_c, 0, 76, 0
2, 24950, Note_on_c, 0, 74, 105
2, 25670, Note_on_c, 0, 76, 104
2, 25702, Note_on_c, 0, 74, 0
2, 25790, Note_on_c, 0, 77, 108
2, 25830, Note_on_c, 0, 76, 0
2, 25894, Note_on_c, 0, 77, 0
2, 25910, Note_on_c, 0, 72, 102
2, 26390, Note_on_c, 0, 72, 0
2, 26390, Note_on_c, 0, 71, 105
2, 26870, Note_on_c, 0, 71, 0
2, 28790, Note_on_c, 0, 77, 105
2, 30710, Note_on_c, 0, 77, 0
2, 30710, Note_on_c, 0, 76, 105
2, 32630, Note_on_c, 0, 76, 0
2, 32630, Note_on_c, 0, 74, 97
2, 32870, Note_on_c, 0, 74, 0
2, 32870, Note_on_c, 0, 76, 102
2, 33110, Note_on_c, 0, 76, 0
2, 33110, Note_on_c, 0, 77, 106
2, 33350, Note_on_c, 0, 77, 0
2, 33350, Note_on_c, 0, 79, 108
2, 33590, Note_on_c, 0, 79, 0
2, 33590, Note_on_c, 0, 81, 105
2, 33710, Note_on_c, 0, 81, 0
2, 33710, Note_on_c, 0, 79, 105
2, 33830, Note_on_c, 0, 79, 0
2, 33830, Note_on_c, 0, 77, 105
2, 33950, Note_on_c, 0, 77, 0
2, 33950, Note_on_c, 0, 76, 107
2, 34070, Note_on_c, 0, 76, 0
2, 34070, Note_on_c, 0, 74, 106
2, 34190, Note_on_c, 0, 74, 0
2, 34190, Note_on_c, 0, 72, 105
2, 34310, Note_on_c, 0, 72, 0
2, 34310, Note_on_c, 0, 71, 103
2, 34430, Note_on_c, 0, 71, 0
2, 34430, Note_on_c, 0, 72, 103
2, 34550, Note_on_c, 0, 72, 0
2, 34550, Note_on_c, 0, 71, 102
2, 34790, Note_on_c, 0, 74, 105
2, 34838, Note_on_c, 0, 71, 0
2, 34950, Note_on_c, 0, 74, 0
2, 35030, Note_on_c, 0, 77, 105
2, 35126, Note_on_c, 0, 77, 0
2, 35270, Note_on_c, 0, 77, 105
2, 35366, Note_on_c, 0, 77, 0
2, 35510, Note_on_c, 0, 76, 105
2, 35990, Note_on_c, 0, 76, 0
2, 36230, Note_on_c, 0, 76, 105
2, 36470, Note_on_c, 0, 76, 0
2, 36470, Note_on_c, 0, 74, 105
2, 36710, Note_on_c, 0, 74, 0
2, 36710, Note_on_c, 0, 74, 105
2, 36950, Note_on_c, 0, 74, 0
2, 36950, Note_on_c, 0, 77, 105
2, 37046, Note_on_c, 0, 77, 0
2, 37190, Note_on_c, 0, 77, 105
2, 37286, Note_on_c, 0, 77, 0
2, 37430, Note_on_c, 0, 76, 105
2, 37910, Note_on_c, 0, 76, 0
2, 38150, Note_on_c, 0, 76, 105
2, 38390, Note_on_c, 0, 76, 0
2, 38390, Note_on_c, 0, 74, 105
2, 38870, Note_on_c, 0, 74, 0
2, 38870, Note_on_c, 0, 79, 105
2, 39350, Note_on_c, 0, 79, 0
2, 39350, Note_on_c, 0, 67, 105
2, 39830, Note_on_c, 0, 67, 0
2, 44150, Note_on_c, 0, 79, 72
2, 44270, Note_on_c, 0, 81, 75
2, 44310, Note_on_c, 0, 79, 0
2, 44390, Note_on_c, 0, 79, 79
2, 44430, Note_on_c, 0, 81, 0
2, 44510, Note_on_c, 0, 77, 77
2, 44550, Note_on_c, 0, 79, 0
2, 44630, Note_on_c, 0, 77, 0
2, 44630, Note_on_c, 0, 76, 75
2, 45110, Note_on_c, 0, 76, 0
2, 47990, Note_on_c, 0, 79, 76
2, 48110, Note_on_c, 0, 79, 0
2, 48110, Note_on_c, 0, 81, 81
2, 48230, Note_on_c, 0, 81, 0
2, 48230, Note_on_c, 0, 79, 81
2, 48350, Note_on_c, 0, 79, 0
2, 48350, Note_on_c, 0, 77, 81
2, 48470, Note_on_c, 0, 77, 0
2, 48470, Note_on_c, 0, 76, 80
2, 48950, Note_on_c, 0, 76, 0
2, 51830, Note_on_c, 0, 79, 75
2, 51950, Note_on_c, 0, 81, 78
2, 51990, Note_on_c, 0, 79, 0
2, 52070, Note_on_c, 0, 79, 83
2, 52110, Note_on_c, 0, 81, 0
2, 52190, Note_on_c, 0, 77, 82
2, 52230, Note_on_c, 0, 79, 0
2, 52310, Note_on_c, 0, 77, 0
2, 52310, Note_on_c, 0, 76, 78
2, 52790, Note_on_c, 0, 76, 0
2, 53750, Note_on_c, 0, 84, 74
2, 53870, Note_on_c, 0, 86, 77
2, 53910, Note_on_c, 0, 84, 0
2, 53990, Note_on_c, 0, 84, 81
2, 54030, Note_on_c, 0, 86, 0
2, 54110, Note_on_c, 0, 82, 81
2, 54150, Note_on_c, 0, 84, 0
2, 54230, Note_on_c, 0, 82, 0
2, 54230, Note_on_c, 0, 81, 77
2, 54710, Note_on_c, 0, 81, 0
2, 55670, Note_on_c, 0, 82, 75
2, 55790, Note_on_c, 0, 84, 79
2, 55830, Note_on_c, 0, 82, 0
2, 55910, Note_on_c, 0, 82, 79
2, 55950, Note_on_c, 0, 84, 0
2, 56030, Note_on_c, 0, 81, 79
2, 56070, Note_on_c, 0, 82, 0
2, 56150, Note_on_c, 0, 81, 0
2, 56150, Note_on_c, 0, 79, 76
2, 56630, Note_on_c, 0, 79, 0
2, 61430, Note_on_c, 0, 79, 91
2, 61910, Note_on_c, 0, 79, 0
2, 61910, Note_on_c, 0, 79, 91
2, 62630, Note_on_c, 0, 79, 0
2, 62630, Note_on_c, 0, 81, 97
2, 62750, Note_on_c, 0, 81, 0
2, 62750, Note_on_c, 0, 79, 103
2, 62870, Note_on_c, 0, 79, 0
2, 62870, Note_on_c, 0, 77, 97
2, 63110, Note_on_c, 0, 77, 0
2, 63110, Note_on_c, 0, 76, 94
2, 63318, Note_on_c, 0, 76, 0
2, 63350, Note_on_c, 0, 76, 91
2, 63710, Note_on_c, 0, 74, 87
2, 63758, Note_on_c, 0, 76, 0
2, 63810, Note_on_c, 0, 74, 0
2, 63830, Note_on_c, 0, 72, 87
2, 64790, Note_on_c, 0, 72, 0
2, 64790, Note_on_c, 0, 71, 91
2, 65270, Note_on_c, 0, 71, 0
2, 65270, Note_on_c, 0, 72, 91
2, 65750, Note_on_c, 0, 72, 0
2, 70070, Note_on_c, 0, 76, 70
2, 70214, Note_on_c, 0, 76, 0
2, 70550, Note_on_c, 0, 77, 70
2, 70694, Note_on_c, 0, 77, 0
2, 71030, Note_on_c, 0, 79, 70
2, 71174, Note_on_c, 0, 79, 0
2, 71510, Note_on_c, 0, 77, 70
2, 71654, Note_on_c, 0, 77, 0
2, 71990, Note_on_c, 0, 76, 70
2, 72134, Note_on_c, 0, 76, 0
2, 72470, Note_on_c, 0, 74, 70
2, 72614, Note_on_c, 0, 74, 0
2, 72950, Note_on_c, 0, 72, 105
2, 73910, Note_on_c, 0, 72, 0
2, 73910, Note_on_c, 0, 81, 105
2, 74870, Note_on_c, 0, 81, 0
2, 74870, Note_on_c, 0, 76, 105
2, 75590, Note_on_c, 0, 76, 0
2, 75590, Note_on_c, 0, 77, 105
2, 75710, Note_on_c, 0, 77, 0
2, 75710, Note_on_c, 0, 79, 105
2, 75810, Note_on_c, 0, 79, 0
2, 75830, Note_on_c, 0, 79, 105
2, 76070, Note_on_c, 0, 77, 105
2, 76126, Note_on_c, 0, 79, 0
2, 76262, Note_on_c, 0, 77, 0
2, 76310, Note_on_c, 0, 76, 105
2, 76406, Note_on_c, 0, 76, 0
2, 76550, Note_on_c, 0, 74, 105
2, 76646, Note_on_c, 0, 74, 0
2, 76790, Note_on_c, 0, 72, 105
2, 77204, Note_on_c, 0, 72, 0
2, 77270, Note_on_c, 0, 72, 105
2, 77549, Note_on_c, 0, 72, 0
2, 77630, Note_on_c, 0, 72, 105
2, 77719, Note_on_c, 0, 72, 0
2, 77750, Note_on_c, 0, 72, 105
2, 78174, Note_on_c, 0, 72, 0
2, 78230, Note_on_c, 0, 76, 105
2, 78524, Note_on_c, 0, 76, 0
2, 78590, Note_on_c, 0, 76, 105
2, 78684, Note_on_c, 0, 76, 0
2, 78710, Note_on_c, 0, 76, 105
2, 79149, Note_on_c, 0, 76, 0
2, 79190, Note_on_c, 0, 79, 105
2, 79484, Note_on_c, 0, 79, 0
2, 79550, Note_on_c, 0, 79, 105
2, 79639, Note_on_c, 0, 79, 0
2, 79670, Note_on_c, 0, 79, 105
2, 80124, Note_on_c, 0, 79, 0
2, 80150, Note_on_c, 0, 84, 105
2, 80439, Note_on_c, 0, 84, 0
2, 80510, Note_on_c, 0, 84, 105
2, 80604, Note_on_c, 0, 84, 0
2, 80630, Note_on_c, 0, 84, 105
2, 81038, Note_on_c, 0, 84, 0
2, 81110, Note_on_c, 0, 84, 77
2, 81590, Note_on_c, 0, 83, 78
2, 81670, Note_on_c, 0, 84, 0
2, 82070, Note_on_c, 0, 81, 78
2, 82142, Note_on_c, 0, 83, 0
2, 82470, Note_on_c, 0, 81, 0
2, 82550, Note_on_c, 0, 79, 94
2, 82798, Note_on_c, 0, 79, 0
2, 83030, Note_on_c, 0, 77, 82
2, 83510, Note_on_c, 0, 76, 78
2, 83598, Note_on_c, 0, 77, 0
2, 83990, Note_on_c, 0, 74, 70
2, 84054, Note_on_c, 0, 76, 0
2, 84398, Note_on_c, 0, 74, 0
2, 84470, Note_on_c, 0, 72, 92
2, 84950, Note_on_c, 0, 72, 0
2, 165110, Note_on_c, 0, 74, 93
2, 165350, Note_on_c, 0, 81, 93
2, 165390, Note_on_c, 0, 74, 0
2, 165542, Note_on_c, 0, 81, 0
2, 165590, Note_on_c, 0, 84, 98
2, 165830, Note_on_c, 0, 84, 0
2, 165830, Note_on_c, 0, 84, 98
2, 166070, Note_on_c, 0, 84, 0
2, 166070, Note_on_c, 0, 83, 98
2, 166550, Note_on_c, 0, 83, 0
2, 166790, Note_on_c, 0, 83, 98
2, 167030, Note_on_c, 0, 83, 0
2, 167030, Note_on_c, 0, 81, 98
2, 167230, Note_on_c, 0, 81, 0
2, 167278, Note_on_c, 0, 81, 98
2, 167510, Note_on_c, 0, 84, 98
2, 167518, Note_on_c, 0, 81, 0
2, 167638, Note_on_c, 0, 84, 0
2, 167750, Note_on_c, 0, 84, 98
2, 167854, Note_on_c, 0, 84, 0
2, 167990, Note_on_c, 0, 83, 98
2, 168470, Note_on_c, 0, 83, 0
2, 168710, Note_on_c, 0, 83, 98
2, 168950, Note_on_c, 0, 83, 0
2, 168950, Note_on_c, 0, 81, 98
2, 169430, Note_on_c, 0, 81, 0
2, 169430, Note_on_c, 0, 86, 98
2, 169910, Note_on_c, 0, 86, 0
2, 169910, Note_on_c, 0, 74, 98
2, 170390, Note_on_c, 0, 74, 0
2, 230390, Note_on_c, 0, 79, 105
2, 233694, Note_on_c, 0, 79, 0
2, 233750, Note_on_c, 0, 71, 105
2, 233870, Note_on_c, 0, 72, 105
2, 233910, Note_on_c, 0, 71, 0
2, 233990, Note_on_c, 0, 71, 105
2, 233990, Note_on_c, 0, 74, 105
2, 234030, Note_on_c, 0, 72, 0
2, 234096, Note_on_c, 0, 71, 0
2, 234110, Note_on_c, 0, 71, 105
2, 234150, Note_on_c, 0, 74, 0
2, 234230, Note_on_c, 0, 71, 0
2, 234230, Note_on_c, 0, 76, 105
2, 234710, Note_on_c, 0, 76, 0
2, 237590, Note_on_c, 0, 79, 105
2, 237710, Note_on_c, 0, 81, 105
2, 237750, Note_on_c, 0, 79, 0
2, 237830, Note_on_c, 0, 83, 105
2, 237870, Note_on_c, 0, 81, 0
2, 237950, Note_on_c, 0, 83, 0
2, 237950, Note_on_c, 0, 83, 105
2, 238070, Note_on_c, 0, 83, 0
2, 238070, Note_on_c, 0, 84, 105
2, 239990, Note_on_c, 0, 84, 0
2, 239990, Note_on_c, 0, 83, 105
2, 241862, Note_on_c, 0, 83, 0
2, 241910, Note_on_c, 0, 81, 105
2, 242630, Note_on_c, 0, 83, 105
2, 242678, Note_on_c, 0, 81, 0
2, 242750, Note_on_c, 0, 84, 105
2, 242798, Note_on_c, 0, 83, 0
2, 242846, Note_on_c, 0, 84, 0
2, 242870, Note_on_c, 0, 79, 105
2, 243350, Note_on_c, 0, 79, 0
2, 243350, Note_on_c, 0, 78, 105
2, 243830, Note_on_c, 0, 78, 0
2, 243830, Note_on_c, 0, 79, 97
2, 245750, Note_on_c, 0, 79, 0
2, 245750, Note_on_c, 0, 74, 105
2, 246230, Note_on_c, 0, 74, 0
2, 246230, Note_on_c, 0, 74, 105
2, 246950, Note_on_c, 0, 74, 0
2, 246950, Note_on_c, 0, 76, 105
2, 247070, Note_on_c, 0, 76, 0
2, 247070, Note_on_c, 0, 74, 105
2, 247190, Note_on_c, 0, 74, 0
2, 247190, Note_on_c, 0, 72, 105
2, 247430, Note_on_c, 0, 72, 0
2, 247430, Note_on_c, 0, 71, 105
2, 247630, Note_on_c, 0, 71, 0
2, 247670, Note_on_c, 0, 74, 105
2, 248030, Note_on_c, 0, 72, 105
2, 248054, Note_on_c, 0, 74, 0
2, 248118, Note_on_c, 0, 72, 0
2, 248150, Note_on_c, 0, 71, 105
2, 249110, Note_on_c, 0, 71, 0
2, 249110, Note_on_c, 0, 69, 105
2, 249590, Note_on_c, 0, 69, 0
2, 249590, Note_on_c, 0, 67, 105
2, 250070, Note_on_c, 0, 67, 0
2, 324470, Note_on_c, 0, 84, 105
2, 325154, Note_on_c, 0, 84, 0
2, 325190, Note_on_c, 0, 79, 105
2, 325418, Note_on_c, 0, 79, 0
2, 325430, Note_on_c, 0, 76, 105
2, 325658, Note_on_c, 0, 76, 0
2, 325670, Note_on_c, 0, 72, 105
2, 325898, Note_on_c, 0, 72, 0
2, 325910, Note_on_c, 0, 76, 105
2, 326138, Note_on_c, 0, 76, 0
2, 326150, Note_on_c, 0, 79, 105
2, 326378, Note_on_c, 0, 79, 0
2, 326390, Note_on_c, 0, 84, 105
2, 327074, Note_on_c, 0, 84, 0
2, 327110, Note_on_c, 0, 79, 105
2, 327338, Note_on_c, 0, 79, 0
2, 327350, Note_on_c, 0, 76, 105
2, 327578, Note_on_c, 0, 76, 0
2, 327590, Note_on_c, 0, 72, 105
2, 327818, Note_on_c, 0, 72, 0
2, 327830, Note_on_c, 0, 76, 105
2, 328058, Note_on_c, 0, 76, 0
2, 328070, Note_on_c, 0, 79, 105
2, 328298, Note_on_c, 0, 79, 0
2, 328310, Note_on_c, 0, 84, 105
2, 328766, Note_on_c, 0, 84, 0
2, 328790, Note_on_c, 0, 72, 70
2, 329270, Note_on_c, 0, 71, 70
2, 329350, Note_on_c, 0, 72, 0
2, 329750, Note_on_c, 0, 72, 70
2, 329822, Note_on_c, 0, 71, 0
2, 330174, Note_on_c, 0, 72, 0
2, 330230, Note_on_c, 0, 74, 95
2, 330470, Note_on_c, 0, 74, 0
2, 330710, Note_on_c, 0, 74, 70
2, 331190, Note_on_c, 0, 73, 70
2, 331254, Note_on_c, 0, 74, 0
2, 331670, Note_on_c, 0, 74, 70
2, 331750, Note_on_c, 0, 73, 0
2, 332070, Note_on_c, 0, 74, 0
2, 332150, Note_on_c, 0, 76, 92
2, 332390, Note_on_c, 0, 76, 0
2, 332630, Note_on_c, 0, 76, 70
2, 333110, Note_on_c, 0, 75, 70
2, 333182, Note_on_c, 0, 76, 0
2, 333590, Note_on_c, 0, 76, 70
2, 333662, Note_on_c, 0, 75, 0
2, 333998, Note_on_c, 0, 76, 0
2, 334070, Note_on_c, 0, 77, 70
2, 334550, Note_on_c, 0, 79, 80
2, 334622, Note_on_c, 0, 77, 0
2, 335030, Note_on_c, 0, 81, 80
2, 335102, Note_on_c, 0, 79, 0
2, 335510, Note_on_c, 0, 83, 90
2, 335566, Note_on_c, 0, 81, 0
2, 335950, Note_on_c, 0, 83, 0
2, 335990, Note_on_c, 0, 84, 105
2, 336470, Note_on_c, 0, 84, 0
2, 393590, Note_on_c, 0, 77, 70
2, 397430, Note_on_c, 0, 77, 0
2, 397430, Note_on_c, 0, 76, 70
2, 401270, Note_on_c, 0, 76, 0
2, 401270, Note_on_c, 0, 74, 92
2, 401366, Note_on_c, 0, 74, 0
2, 401510, Note_on_c, 0, 74, 91
2, 401750, Note_on_c, 0, 77, 91
2, 401814, Note_on_c, 0, 74, 0
2, 401934, Note_on_c, 0, 77, 0
2, 401990, Note_on_c, 0, 77, 91
2, 402086, Note_on_c, 0, 77, 0
2, 402230, Note_on_c, 0, 76, 91
2, 402710, Note_on_c, 0, 76, 0
2, 402950, Note_on_c, 0, 76, 91
2, 403190, Note_on_c, 0, 76, 0
2, 403190, Note_on_c, 0, 74, 91
2, 403286, Note_on_c, 0, 74, 0
2, 403430, Note_on_c, 0, 74, 91
2, 403670, Note_on_c, 0, 77, 91
2, 403734, Note_on_c, 0, 74, 0
2, 403862, Note_on_c, 0, 77, 0
2, 403910, Note_on_c, 0, 77, 92
2, 404006, Note_on_c, 0, 77, 0
2, 404150, Note_on_c, 0, 76, 92
2, 404630, Note_on_c, 0, 76, 0
2, 404870, Note_on_c, 0, 76, 92
2, 405110, Note_on_c, 0, 76, 0
2, 405110, Note_on_c, 0, 74, 92
2, 405590, Note_on_c, 0, 74, 0
2, 405590, Note_on_c, 0, 79, 92
2, 406070, Note_on_c, 0, 79, 0
2, 406070, Note_on_c, 0, 67, 92
2, 406550, Note_on_c, 0, 67, 0
2, 454070, Note_on_c, 0, 76, 70
2, 454310, Note_on_c, 0, 76, 0
2, 454550, Note_on_c, 0, 77, 70
2, 454790, Note_on_c, 0, 77, 0
2, 455030, Note_on_c, 0, 79, 70
2, 455270, Note_on_c, 0, 79, 0
2, 455510, Note_on_c, 0, 77, 70
2, 455750, Note_on_c, 0, 77, 0
2, 455990, Note_on_c, 0, 76, 70
2, 456230, Note_on_c, 0, 76, 0
2, 456470, Note_on_c, 0, 74, 70
2, 456710, Note_on_c, 0, 74, 0
2, 460790, Note_on_c, 0, 79, 70
2, 461750, Note_on_c, 0, 79, 0
2, 461750, Note_on_c, 0, 77, 70
2, 462710, Note_on_c, 0, 77, 0
2, 462710, Note_on_c, 0, 76, 70
2, 463150, Note_on_c, 0, 76, 0
2, 463190, Note_on_c, 0, 76, 70
2, 463430, Note_on_c, 0, 76, 0
2, 463670, Note_on_c, 0, 79, 70
2, 464150, Note_on_c, 0, 76, 70
2, 464214, Note_on_c, 0, 79, 0
2, 464630, Note_on_c, 0, 76, 0
2, 465110, Note_on_c, 0, 74, 80
2, 465350, Note_on_c, 0, 74, 0
2, 465590, Note_on_c, 0, 77, 80
2, 466070, Note_on_c, 0, 74, 90
2, 466126, Note_on_c, 0, 77, 0
2, 466526, Note_on_c, 0, 74, 0
2, 466550, Note_on_c, 0, 72, 105
2, 467234, Note_on_c, 0, 72, 0
2, 467270, Note_on_c, 0, 79, 105
2, 467498, Note_on_c, 0, 79, 0
2, 467510, Note_on_c, 0, 76, 105
2, 467738, Note_on_c, 0, 76, 0
2, 467750, Note_on_c, 0, 72, 105
2, 467978, Note_on_c, 0, 72, 0
2, 467990, Note_on_c, 0, 76, 105
2, 468218, Note_on_c, 0, 76, 0
2, 468230, Note_on_c, 0, 79, 105
2, 468458, Note_on_c, 0, 79, 0
2, 468470, Note_on_c, 0, 84, 105
2, 469154, Note_on_c, 0, 84, 0
2, 469190, Note_on_c, 0, 79, 105
2, 469418, Note_on_c, 0, 79, 0
2, 469430, Note_on_c, 0, 76, 105
2, 469658, Note_on_c, 0, 76, 0
2, 469670, Note_on_c, 0, 72, 105
2, 469898, Note_on_c, 0, 72, 0
2, 469910, Note_on_c, 0, 76, 105
2, 470138, Note_on_c, 0, 76, 0
2, 470150, Note_on_c, 0, 79, 105
2, 470378, Note_on_c, 0, 79, 0
2, 470390, Note_on_c, 0, 84, 105
2, 471110, Note_on_c, 0, 84, 0
2, 471110, Note_on_c, 0, 83, 105
2, 471350, Note_on_c, 0, 83, 0
2, 471350, Note_on_c, 0, 81, 105
2, 472070, Note_on_c, 0, 81, 0
2, 472070, Note_on_c, 0, 79, 105
2, 472310, Note_on_c, 0, 79, 0
2, 472310, Note_on_c, 0, 77, 105
2, 473030, Note_on_c, 0, 77, 0
2, 473030, Note_on_c, 0, 76, 105
2, 473270, Note_on_c, 0, 76, 0
2, 473270, Note_on_c, 0, 74, 105
2, 473990, Note_on_c, 0, 74, 0
2, 473990, Note_on_c, 0, 73, 105
2, 474230, Note_on_c, 0, 73, 0
2, 474230, Note_on_c, 0, 74, 105
2, 474470, Note_on_c, 0, 74, 0
2, 474470, Note_on_c, 0, 76, 105
2, 474710, Note_on_c, 0, 76, 0
2, 474710, Note_on_c, 0, 77, 105
2, 474950, Note_on_c, 0, 77, 0
2, 474950, Note_on_c, 0, 79, 105
2, 475190, Note_on_c, 0, 79, 0
2, 475190, Note_on_c, 0, 81, 105
2, 475310, Note_on_c, 0, 81, 0
2, 475310, Note_on_c, 0, 79, 105
2, 475430, Note_on_c, 0, 79, 0
2, 475430, Note_on_c, 0, 77, 105
2, 475550, Note_on_c, 0, 77, 0
2, 475550, Note_on_c, 0, 76, 105
2, 475670, Note_on_c, 0, 76, 0
2, 475670, Note_on_c, 0, 74, 105
2, 475790, Note_on_c, 0, 74, 0
2, 475790, Note_on_c, 0, 72, 105
2, 475910, Note_on_c, 0, 72, 0
2, 475910, Note_on_c, 0, 71, 105
2, 476030, Note_on_c, 0, 71, 0
2, 476030, Note_on_c, 0, 72, 105
2, 476150, Note_on_c, 0, 72, 0
2, 476150, Note_on_c, 0, 71, 105
2, 476350, Note_on_c, 0, 71, 0
2, 476390, Note_on_c, 0, 74, 105
2, 476630, Note_on_c, 0, 77, 105
2, 476686, Note_on_c, 0, 74, 0
2, 476846, Note_on_c, 0, 77, 0
2, 476870, Note_on_c, 0, 77, 105
2, 476982, Note_on_c, 0, 77, 0
2, 477110, Note_on_c, 0, 76, 105
2, 477590, Note_on_c, 0, 76, 0
2, 477830, Note_on_c, 0, 76, 105
2, 478070, Note_on_c, 0, 76, 0
2, 478070, Note_on_c, 0, 74, 105
2, 478270, Note_on_c, 0, 74, 0
2, 478310, Note_on_c, 0, 74, 105
2, 478550, Note_on_c, 0, 77, 105
2, 478638, Note_on_c, 0, 74, 0
2, 478750, Note_on_c, 0, 77, 0
2, 478790, Note_on_c, 0, 77, 105
2, 478910, Note_on_c, 0, 77, 0
2, 479030, Note_on_c, 0, 76, 105
2, 479510, Note_on_c, 0, 76, 0
2, 479750, Note_on_c, 0, 84, 105
2, 479990, Note_on_c, 0, 84, 0
2, 479990, Note_on_c, 0, 67, 105
2, 480470, Note_on_c, 0, 67, 0
2, 481910, Note_on_c, 0, 84, 105
2, 485230, Note_on_c, 0, 84, 0
2, 485270, Note_on_c, 0, 76, 105
2, 485390, Note_on_c, 0, 77, 105
2, 485430, Note_on_c, 0, 76, 0
2, 485510, Note_on_c, 0, 76, 105
2, 485510, Note_on_c, 0, 79, 105
2, 485550, Note_on_c, 0, 77, 0
2, 485630, Note_on_c, 0, 76, 0
2, 485670, Note_on_c, 0, 79, 0
2, 485750, Note_on_c, 0, 81, 105
2, 486230, Note_on_c, 0, 81, 0
2, 489110, Note_on_c, 0, 72, 105
2, 489230, Note_on_c, 0, 74, 105
2, 489270, Note_on_c, 0, 72, 0
2, 489350, Note_on_c, 0, 76, 105
2, 489390, Note_on_c, 0, 74, 0
2, 489470, Note_on_c, 0, 76, 0
2, 489470, Note_on_c, 0, 76, 105
2, 489590, Note_on_c, 0, 76, 0
2, 489590, Note_on_c, 0, 77, 105
2, 491510, Note_on_c, 0, 77, 0
2, 491510, Note_on_c, 0, 76, 105
2, 493430, Note_on_c, 0, 76, 0
2, 493430, Note_on_c, 0, 74, 105
2, 494150, Note_on_c, 0, 76, 105
2, 494182, Note_on_c, 0, 74, 0
2, 494270, Note_on_c, 0, 76, 0
2, 494270, Note_on_c, 0, 77, 105
2, 494350, Note_on_c, 0, 77, 0
2, 494390, Note_on_c, 0, 72, 105
2, 494870, Note_on_c, 0, 72, 0
2, 494870, Note_on_c, 0, 71, 98
2, 495350, Note_on_c, 0, 71, 0
2, 495350, Note_on_c, 0, 72, 96
2, 496310, Note_on_c, 0, 72, 0
2, 496310, Note_on_c, 0, 81, 96
2, 497270, Note_on_c, 0, 81, 0
2, 497270, Note_on_c, 0, 76, 105
2, 497990, Note_on_c, 0, 76, 0
2, 497990, Note_on_c, 0, 77, 105
2, 498110, Note_on_c, 0, 77, 0
2, 498110, Note_on_c, 0, 79, 105
2, 498206, Note_on_c, 0, 79, 0
2, 498230, Note_on_c, 0, 79, 105
2, 498470, Note_on_c, 0, 77, 105
2, 498526, Note_on_c, 0, 79, 0
2, 498662, Note_on_c, 0, 77, 0
2, 498710, Note_on_c, 0, 76, 105
2, 498806, Note_on_c, 0, 76, 0
2, 498950, Note_on_c, 0, 74, 105
2, 499046, Note_on_c, 0, 74, 0
2, 499190, Note_on_c, 0, 72, 105
2, 499614, Note_on_c, 0, 72, 0
2, 499670, Note_on_c, 0, 72, 105
2, 499989, Note_on_c, 0, 72, 0
2, 500030, Note_on_c, 0, 72, 105
2, 500119, Note_on_c, 0, 72, 0
2, 500150, Note_on_c, 0, 72, 105
2, 500599, Note_on_c, 0, 72, 0
2, 500630, Note_on_c, 0, 76, 105
2, 500949, Note_on_c, 0, 76, 0
2, 500990, Note_on_c, 0, 76, 105
2, 501079, Note_on_c, 0, 76, 0
2, 501110, Note_on_c, 0, 76, 105
2, 501539, Note_on_c, 0, 76, 0
2, 501590, Note_on_c, 0, 79, 105
2, 501899, Note_on_c, 0, 79, 0
2, 501950, Note_on_c, 0, 79, 105
2, 502044, Note_on_c, 0, 79, 0
2, 502070, Note_on_c, 0, 79, 105
2, 502519, Note_on_c, 0, 79, 0
2, 502550, Note_on_c, 0, 84, 105
2, 502859, Note_on_c, 0, 84, 0
2, 502910, Note_on_c, 0, 84, 105
2, 502999, Note_on_c, 0, 84, 0
2, 503030, Note_on_c, 0, 84, 105
2, 503510, Note_on_c, 0, 84, 0
2, 503990, Note_on_c, 0, 84, 105
2, 504710, Note_on_c, 0, 84, 0
2, 504710, Note_on_c, 0, 79, 105
2, 504950, Note_on_c, 0, 79, 0
2, 504950, Note_on_c, 0, 76, 105
2, 505190, Note_on_c, 0, 76, 0
2, 505190, Note_on_c, 0, 72, 105
2, 505430, Note_on_c, 0, 72, 0
2, 505430, Note_on_c, 0, 76, 105
2, 505670, Note_on_c, 0, 76, 0
2, 505670, Note_on_c, 0, 79, 105
2, 505910, Note_on_c, 0, 79, 0
2, 505910, Note_on_c, 0, 84, 105
2, 506630, Note_on_c, 0, 84, 0
2, 506630, Note_on_c, 0, 79, 105
2, 506870, Note_on_c, 0, 79, 0
2, 506870, Note_on_c, 0, 76, 105
2, 507110, Note_on_c, 0, 76, 0
2, 507110, Note_on_c, 0, 72, 105
2, 507350, Note_on_c, 0, 72, 0
2, 507350, Note_on_c, 0, 76, 105
2, 507590, Note_on_c, 0, 76, 0
2, 507590, Note_on_c, 0, 79, 105
2, 507830, Note_on_c, 0, 79, 0
2, 507830, Note_on_c, 0, 76, 105
2, 508070, Note_on_c, 0, 76, 0
2, 508070, Note_on_c, 0, 72, 105
2, 508310, Note_on_c, 0, 72, 0
2, 508310, Note_on_c, 0, 76, 105
2, 508550, Note_on_c, 0, 76, 0
2, 508550, Note_on_c, 0, 79, 105
2, 508790, Note_on_c, 0, 79, 0
2, 508790, Note_on_c, 0, 72, 105
2, 508790, Note_on_c, 0, 76, 105
2, 509270, Note_on_c, 0, 76, 0
2, 509270, Note_on_c, 0, 72, 0
2, 510710, Control_c, 0, 0, 0
2, 510710, Control_c, 0, 32, 0
2, 510710, Program_c, 0, 68
2, 696950, Note_on_c, 0, 76, 84
2, 697378, Note_on_c, 0, 76, 0
2, 697430, Note_on_c, 0, 76, 84
2, 697858, Note_on_c, 0, 76, 0
2, 697910, Note_on_c, 0, 76, 84
2, 698762, Note_on_c, 0, 76, 0
2, 698870, Note_on_c, 0, 79, 83
2, 699110, Note_on_c, 0, 77, 83
2, 699154, Note_on_c, 0, 79, 0
2, 699306, Note_on_c, 0, 77, 0
2, 699350, Note_on_c, 0, 76, 82
2, 699590, Note_on_c, 0, 77, 96
2, 699642, Note_on_c, 0, 76, 0
2, 699802, Note_on_c, 0, 77, 0
2, 699830, Note_on_c, 0, 79, 114
2, 700070, Note_on_c, 0, 76, 127
2, 700130, Note_on_c, 0, 79, 0
2, 700310, Note_on_c, 0, 76, 0
2, 700310, Note_on_c, 0, 72, 82
2, 700790, Note_on_c, 0, 72, 0
2, 700790, Note_on_c, 0, 84, 100
2, 701458, Note_on_c, 0, 84, 0
2, 701510, Note_on_c, 0, 83, 99
2, 701698, Note_on_c, 0, 83, 0
2, 701750, Note_on_c, 0, 83, 98
2, 701990, Note_on_c, 0, 81, 98
2, 702034, Note_on_c, 0, 83, 0
2, 702230, Note_on_c, 0, 79, 100
2, 702274, Note_on_c, 0, 81, 0
2, 702658, Note_on_c, 0, 79, 0
2, 702710, Note_on_c, 0, 84, 100
2, 703370, Note_on_c, 0, 84, 0
2, 703430, Note_on_c, 0, 83, 93
2, 703610, Note_on_c, 0, 83, 0
2, 703670, Note_on_c, 0, 83, 94
2, 703910, Note_on_c, 0, 81, 96
2, 703946, Note_on_c, 0, 83, 0
2, 704150, Note_on_c, 0, 79, 98
2, 704202, Note_on_c, 0, 81, 0
2, 704562, Note_on_c, 0, 79, 0
2, 704630, Note_on_c, 0, 72, 97
2, 705050, Note_on_c, 0, 72, 0
2, 705110, Note_on_c, 0, 72, 96
2, 705530, Note_on_c, 0, 72, 0
2, 705590, Note_on_c, 0, 72, 95
2, 706498, Note_on_c, 0, 72, 0
2, 706550, Note_on_c, 0, 76, 100
2, 706790, Note_on_c, 0, 74, 100
2, 706850, Note_on_c, 0, 76, 0
2, 706962, Note_on_c, 0, 74, 0
2, 707030, Note_on_c, 0, 72, 97
2, 707270, Note_on_c, 0, 74, 95
2, 707314, Note_on_c, 0, 72, 0
2, 707450, Note_on_c, 0, 74, 0
2, 707510, Note_on_c, 0, 76, 96
2, 707930, Note_on_c, 0, 76, 0
2, 707990, Note_on_c, 0, 76, 104
2, 708402, Note_on_c, 0, 76, 0
2, 708470, Note_on_c, 0, 79, 105
2, 708710, Note_on_c, 0, 77, 105
2, 708738, Note_on_c, 0, 79, 0
2, 708898, Note_on_c, 0, 77, 0
2, 708950, Note_on_c, 0, 76, 101
2, 709190, Note_on_c, 0, 77, 100
2, 709242, Note_on_c, 0, 76, 0
2, 709362, Note_on_c, 0, 77, 0
2, 709430, Note_on_c, 0, 79, 100
2, 709834, Note_on_c, 0, 79, 0
2, 709910, Note_on_c, 0, 76, 100
2, 710338, Note_on_c, 0, 76, 0
2, 710390, Note_on_c, 0, 79, 94
2, 710630, Note_on_c, 0, 77, 96
2, 710690, Note_on_c, 0, 79, 0
2, 710802, Note_on_c, 0, 77, 0
2, 710870, Note_on_c, 0, 76, 100
2, 711110, Note_on_c, 0, 74, 103
2, 711162, Note_on_c, 0, 76, 0
2, 711274, Note_on_c, 0, 74, 0
2, 711350, Note_on_c, 0, 72, 105
2, 711830, Note_on_c, 0, 72, 0
2, 715190, Note_on_c, 0, 79, 105
2, 718954, Note_on_c, 0, 79, 0
2, 719030, Note_on_c, 0, 79, 105
2, 719306, Note_on_c, 0, 79, 0
2, 719510, Note_on_c, 0, 77, 112
2, 720470, Note_on_c, 0, 76, 95
2, 720562, Note_on_c, 0, 77, 0
2, 720874, Note_on_c, 0, 76, 0
2, 723350, Note_on_c, 0, 77, 97
2, 724310, Note_on_c, 0, 76, 70
2, 724410, Note_on_c, 0, 77, 0
2, 724698, Note_on_c, 0, 76, 0
2, 730550, Note_on_c, 0, 74, 89
2, 732386, Note_on_c, 0, 74, 0
2, 732470, Note_on_c, 0, 77, 95
2, 734314, Note_on_c, 0, 77, 0
2, 734390, Note_on_c, 0, 76, 90
2, 734608, Control_c, 0, 7, 89
2, 734688, Control_c, 0, 7, 86
2, 734708, Control_c, 0, 7, 82
2, 734720, Control_c, 0, 7, 80
2, 734736, Control_c, 0, 7, 74
2, 734746, Note_on_c, 0, 76, 0
2, 734748, Control_c, 0, 7, 68
2, 734764, Control_c, 0, 7, 63
2, 734776, Control_c, 0, 7, 53
2, 734792, Control_c, 0, 7, 37
2, 734804, Control_c, 0, 7, 18
2, 734820, Control_c, 0, 7, 11
2, 734840, Control_c, 0, 7, 8
2, 735176, Control_c, 0, 7, 89
2, 748310, Note_on_c, 0, 79, 97
2, 749030, Note_on_c, 0, 76, 99
2, 749090, Note_on_c, 0, 79, 0
2, 749270, Note_on_c, 0, 77, 106
2, 749330, Note_on_c, 0, 76, 0
2, 749510, Note_on_c, 0, 74, 95
2, 749586, Note_on_c, 0, 77, 0
2, 749714, Note_on_c, 0, 74, 0
2, 749750, Note_on_c, 0, 72, 85
2, 750230, Note_on_c, 0, 72, 0
2, 757430, Note_on_c, 0, 79, 80
2, 760706, Note_on_c, 0, 79, 0
2, 760790, Note_on_c, 0, 77, 100
2, 761030, Note_on_c, 0, 74, 90
2, 761074, Note_on_c, 0, 77, 0
2, 761226, Note_on_c, 0, 74, 0
2, 761270, Note_on_c, 0, 72, 83
2, 761750, Note_on_c, 0, 72, 0
2, 765590, Note_on_c, 0, 72, 123
2, 765686, Note_on_c, 0, 72, 0
2, 765830, Note_on_c, 0, 72, 123
2, 765926, Note_on_c, 0, 72, 0
2, 766070, Note_on_c, 0, 71, 121
2, 766310, Note_on_c, 0, 74, 119
2, 766386, Note_on_c, 0, 71, 0
2, 766474, Note_on_c, 0, 74, 0
2, 766550, Note_on_c, 0, 77, 116
2, 766646, Note_on_c, 0, 77, 0
2, 766790, Note_on_c, 0, 77, 112
2, 766886, Note_on_c, 0, 77, 0
2, 767030, Note_on_c, 0, 72, 112
2, 767270, Note_on_c, 0, 76, 113
2, 767346, Note_on_c, 0, 72, 0
2, 767418, Note_on_c, 0, 76, 0
2, 767510, Note_on_c, 0, 79, 113
2, 767606, Note_on_c, 0, 79, 0
2, 767750, Note_on_c, 0, 79, 115
2, 767846, Note_on_c, 0, 79, 0
2, 767990, Note_on_c, 0, 74, 115
2, 768230, Note_on_c, 0, 79, 114
2, 768282, Note_on_c, 0, 74, 0
2, 768362, Note_on_c, 0, 79, 0
2, 768470, Note_on_c, 0, 83, 114
2, 768566, Note_on_c, 0, 83, 0
2, 768710, Note_on_c, 0, 83, 114
2, 768806, Note_on_c, 0, 83, 0
2, 768950, Note_on_c, 0, 84, 114
2, 769354, Note_on_c, 0, 84, 0
2, 769430, Note_on_c, 0, 72, 120
2, 769526, Note_on_c, 0, 72, 0
2, 769670, Note_on_c, 0, 72, 121
2, 769766, Note_on_c, 0, 72, 0
2, 769910, Note_on_c, 0, 71, 123
2, 770150, Note_on_c, 0, 74, 120
2, 770218, Note_on_c, 0, 71, 0
2, 770314, Note_on_c, 0, 74, 0
2, 770390, Note_on_c, 0, 77, 120
2, 770486, Note_on_c, 0, 77, 0
2, 770630, Note_on_c, 0, 77, 118
2, 770726, Note_on_c, 0, 77, 0
2, 770870, Note_on_c, 0, 72, 117
2, 771110, Note_on_c, 0, 76, 115
2, 771194, Note_on_c, 0, 72, 0
2, 771266, Note_on_c, 0, 76, 0
2, 771350, Note_on_c, 0, 79, 115
2, 771446, Note_on_c, 0, 79, 0
2, 771590, Note_on_c, 0, 79, 115
2, 771686, Note_on_c, 0, 79, 0
2, 771830, Note_on_c, 0, 74, 115
2, 772070, Note_on_c, 0, 79, 116
2, 772146, Note_on_c, 0, 74, 0
2, 772234, Note_on_c, 0, 79, 0
2, 772310, Note_on_c, 0, 83, 119
2, 772406, Note_on_c, 0, 83, 0
2, 772550, Note_on_c, 0, 83, 105
2, 772650, Note_on_c, 0, 83, 0
2, 772790, Note_on_c, 0, 84, 105
2, 775586, Note_on_c, 0, 84, 0
2, 775670, Note_on_c, 0, 83, 105
2, 776562, Note_on_c, 0, 83, 0
2, 776630, Note_on_c, 0, 84, 105
2, 777590, Note_on_c, 0, 84, 0
2, 780470, Note_on_c, 0, 72, 90
2, 782330, Note_on_c, 0, 72, 0
2, 782390, Note_on_c, 0, 74, 97
2, 784250, Note_on_c, 0, 74, 0
2, 784310, Note_on_c, 0, 76, 104
2, 784550, Note_on_c, 0, 79, 116
2, 784610, Note_on_c, 0, 76, 0
2, 784698, Note_on_c, 0, 79, 0
2, 784790, Note_on_c, 0, 76, 123
2, 784886, Note_on_c, 0, 76, 0
2, 785030, Note_on_c, 0, 74, 121
2, 785126, Note_on_c, 0, 74, 0
2, 785270, Note_on_c, 0, 72, 110
2, 785750, Note_on_c, 0, 74, 100
2, 785810, Note_on_c, 0, 72, 0
2, 786130, Note_on_c, 0, 74, 0
2, 786230, Note_on_c, 0, 76, 101
2, 786470, Note_on_c, 0, 79, 109
2, 786506, Note_on_c, 0, 76, 0
2, 786586, Note_on_c, 0, 79, 0
2, 786710, Note_on_c, 0, 76, 120
2, 786806, Note_on_c, 0, 76, 0
2, 786950, Note_on_c, 0, 74, 119
2, 787046, Note_on_c, 0, 74, 0
2, 787190, Note_on_c, 0, 72, 112
2, 787670, Note_on_c, 0, 74, 97
2, 787730, Note_on_c, 0, 72, 0
2, 788050, Note_on_c, 0, 74, 0
2, 788150, Note_on_c, 0, 76, 104
2, 788390, Note_on_c, 0, 79, 113
2, 788466, Note_on_c, 0, 76, 0
2, 788514, Note_on_c, 0, 79, 0
2, 788630, Note_on_c, 0, 76, 116
2, 788726, Note_on_c, 0, 76, 0
2, 788870, Note_on_c, 0, 74, 116
2, 788966, Note_on_c, 0, 74, 0
2, 789110, Note_on_c, 0, 72, 108
2, 789590, Note_on_c, 0, 76, 99
2, 789674, Note_on_c, 0, 72, 0
2, 789830, Note_on_c, 0, 74, 98
2, 789890, Note_on_c, 0, 76, 0
2, 789994, Note_on_c, 0, 74, 0
2, 790070, Note_on_c, 0, 72, 103
2, 790550, Note_on_c, 0, 72, 0
2, 826550, Note_on_c, 0, 72, 105
2, 826930, Note_on_c, 0, 72, 0
2, 827030, Note_on_c, 0, 72, 105
2, 827210, Note_on_c, 0, 72, 0
2, 827270, Note_on_c, 0, 72, 105
2, 827418, Note_on_c, 0, 72, 0
2, 827510, Note_on_c, 0, 72, 105
2, 827922, Note_on_c, 0, 72, 0
2, 827990, Note_on_c, 0, 72, 105
2, 828402, Note_on_c, 0, 72, 0
2, 828470, Note_on_c, 0, 72, 105
2, 828850, Note_on_c, 0, 72, 0
2, 828950, Note_on_c, 0, 76, 105
2, 829138, Note_on_c, 0, 76, 0
2, 829190, Note_on_c, 0, 76, 105
2, 829378, Note_on_c, 0, 76, 0
2, 829430, Note_on_c, 0, 76, 105
2, 829834, Note_on_c, 0, 76, 0
2, 829910, Note_on_c, 0, 76, 105
2, 830390, Note_on_c, 0, 76, 0
2, 882230, Note_on_c, 0, 79, 90
2, 883190, Note_on_c, 0, 79, 0
2, 884150, Note_on_c, 0, 78, 90
2, 885110, Note_on_c, 0, 78, 0
2, 886070, Note_on_c, 0, 85, 90
2, 887030, Note_on_c, 0, 85, 0
2, 887990, Note_on_c, 0, 86, 70
2, 894710, Note_on_c, 0, 86, 0
2, 894710, Note_on_c, 0, 78, 105
2, 895670, Note_on_c, 0, 78, 0
2, 895670, Note_on_c, 0, 79, 105
2, 896150, Note_on_c, 0, 79, 0
2, 926870, Note_on_c, 0, 79, 70
2, 927278, Note_on_c, 0, 79, 0
2, 927350, Note_on_c, 0, 79, 70
2, 927746, Note_on_c, 0, 79, 0
2, 927830, Note_on_c, 0, 79, 70
2, 928310, Note_on_c, 0, 79, 0
2, 928310, Note_on_c, 0, 81, 70
2, 929030, Note_on_c, 0, 83, 70
2, 929102, Note_on_c, 0, 81, 0
2, 929270, Note_on_c, 0, 79, 70
2, 929342, Note_on_c, 0, 83, 0
2, 929606, Note_on_c, 0, 79, 0
2, 929750, Note_on_c, 0, 79, 70
2, 929990, Note_on_c, 0, 79, 0
2, 930230, Note_on_c, 0, 81, 70
2, 930950, Note_on_c, 0, 83, 70
2, 931022, Note_on_c, 0, 81, 0
2, 931190, Note_on_c, 0, 79, 70
2, 931274, Note_on_c, 0, 83, 0
2, 931574, Note_on_c, 0, 79, 0
2, 931670, Note_on_c, 0, 84, 70
2, 932114, Note_on_c, 0, 84, 0
2, 932150, Note_on_c, 0, 83, 70
2, 933110, Note_on_c, 0, 81, 70
2, 933206, Note_on_c, 0, 83, 0
2, 933590, Note_on_c, 0, 81, 0
2, 934550, Note_on_c, 0, 81, 70
2, 934958, Note_on_c, 0, 81, 0
2, 935030, Note_on_c, 0, 81, 70
2, 935438, Note_on_c, 0, 81, 0
2, 935510, Note_on_c, 0, 81, 70
2, 935954, Note_on_c, 0, 81, 0
2, 935990, Note_on_c, 0, 83, 70
2, 936710, Note_on_c, 0, 84, 70
2, 936746, Note_on_c, 0, 83, 0
2, 936950, Note_on_c, 0, 81, 70
2, 936998, Note_on_c, 0, 84, 0
2, 937358, Note_on_c, 0, 81, 0
2, 937430, Note_on_c, 0, 81, 70
2, 937658, Note_on_c, 0, 81, 0
2, 937910, Note_on_c, 0, 83, 70
2, 938630, Note_on_c, 0, 84, 70
2, 938702, Note_on_c, 0, 83, 0
2, 938870, Note_on_c, 0, 81, 70
2, 938930, Note_on_c, 0, 84, 0
2, 939266, Note_on_c, 0, 81, 0
2, 939350, Note_on_c, 0, 86, 70
2, 939770, Note_on_c, 0, 86, 0
2, 939830, Note_on_c, 0, 84, 70
2, 940790, Note_on_c, 0, 83, 70
2, 940874, Note_on_c, 0, 84, 0
2, 941270, Note_on_c, 0, 83, 0
2, 1009910, Note_on_c, 0, 84, 70
2, 1010870, Note_on_c, 0, 84, 0
2, 1010870, Note_on_c, 0, 83, 70
2, 1011830, Note_on_c, 0, 83, 0
2, 1011830, Note_on_c, 0, 81, 70
2, 1012790, Note_on_c, 0, 81, 0
2, 1012790, Note_on_c, 0, 79, 70
2, 1013270, Note_on_c, 0, 79, 0
2, 1023350, Note_on_c, 0, 74, 70
2, 1023590, Note_on_c, 0, 74, 0
2, 1023590, Note_on_c, 0, 77, 70
2, 1023830, Note_on_c, 0, 77, 0
2, 1023830, Note_on_c, 0, 76, 70
2, 1024070, Note_on_c, 0, 76, 0
2, 1024070, Note_on_c, 0, 79, 70
2, 1024310, Note_on_c, 0, 79, 0
2, 1024310, Note_on_c, 0, 77, 70
2, 1024790, Note_on_c, 0, 77, 0
2, 1027190, Note_on_c, 0, 74, 70
2, 1027430, Note_on_c, 0, 74, 0
2, 1027430, Note_on_c, 0, 77, 70
2, 1027670, Note_on_c, 0, 77, 0
2, 1027670, Note_on_c, 0, 76, 70
2, 1027910, Note_on_c, 0, 76, 0
2, 1027910, Note_on_c, 0, 79, 70
2, 1028150, Note_on_c, 0, 79, 0
2, 1028150, Note_on_c, 0, 77, 70
2, 1028630, Note_on_c, 0, 77, 0
2, 1044470, Note_on_c, 0, 76, 105
2, 1044950, Note_on_c, 0, 76, 0
2, 1044950, Note_on_c, 0, 76, 105
2, 1045430, Note_on_c, 0, 76, 0
2, 1045430, Note_on_c, 0, 76, 105
2, 1046390, Note_on_c, 0, 76, 0
2, 1046390, Note_on_c, 0, 79, 105
2, 1046630, Note_on_c, 0, 79, 0
2, 1046630, Note_on_c, 0, 77, 105
2, 1046870, Note_on_c, 0, 77, 0
2, 1046870, Note_on_c, 0, 76, 105
2, 1047110, Note_on_c, 0, 76, 0
2, 1047110, Note_on_c, 0, 77, 105
2, 1047350, Note_on_c, 0, 77, 0
2, 1047350, Note_on_c, 0, 76, 105
2, 1047830, Note_on_c, 0, 76, 0
2, 1048310, Note_on_c, 0, 84, 105
2, 1049030, Note_on_c, 0, 84, 0
2, 1049030, Note_on_c, 0, 83, 105
2, 1049270, Note_on_c, 0, 83, 0
2, 1049270, Note_on_c, 0, 83, 105
2, 1049510, Note_on_c, 0, 83, 0
2, 1049510, Note_on_c, 0, 81, 105
2, 1049750, Note_on_c, 0, 81, 0
2, 1049750, Note_on_c, 0, 79, 105
2, 1050230, Note_on_c, 0, 79, 0
2, 1050230, Note_on_c, 0, 84, 105
2, 1050950, Note_on_c, 0, 84, 0
2, 1050950, Note_on_c, 0, 83, 105
2, 1051190, Note_on_c, 0, 83, 0
2, 1051190, Note_on_c, 0, 83, 105
2, 1051430, Note_on_c, 0, 83, 0
2, 1051430, Note_on_c, 0, 81, 105
2, 1051670, Note_on_c, 0, 81, 0
2, 1051670, Note_on_c, 0, 79, 105
2, 1052150, Note_on_c, 0, 79, 0
2, 1052150, Note_on_c, 0, 72, 105
2, 1052630, Note_on_c, 0, 72, 0
2, 1052630, Note_on_c, 0, 72, 105
2, 1053110, Note_on_c, 0, 72, 0
2, 1053110, Note_on_c, 0, 72, 105
2, 1054070, Note_on_c, 0, 72, 0
2, 1054070, Note_on_c, 0, 76, 105
2, 1054310, Note_on_c, 0, 76, 0
2, 1054310, Note_on_c, 0, 74, 105
2, 1054550, Note_on_c, 0, 74, 0
2, 1054550, Note_on_c, 0, 72, 105
2, 1054790, Note_on_c, 0, 72, 0
2, 1054790, Note_on_c, 0, 74, 105
2, 1055030, Note_on_c, 0, 74, 0
2, 1055030, Note_on_c, 0, 76, 105
2, 1055510, Note_on_c, 0, 76, 0
2, 1055510, Note_on_c, 0, 76, 105
2, 1055990, Note_on_c, 0, 76, 0
2, 1055990, Note_on_c, 0, 79, 105
2, 1056230, Note_on_c, 0, 79, 0
2, 1056230, Note_on_c, 0, 77, 105
2, 1056470, Note_on_c, 0, 77, 0
2, 1056470, Note_on_c, 0, 76, 105
2, 1056710, Note_on_c, 0, 76, 0
2, 1056710, Note_on_c, 0, 77, 105
2, 1056950, Note_on_c, 0, 77, 0
2, 1056950, Note_on_c, 0, 79, 105
2, 1057430, Note_on_c, 0, 79, 0
2, 1057430, Note_on_c, 0, 76, 105
2, 1057910, Note_on_c, 0, 76, 0
2, 1057910, Note_on_c, 0, 79, 105
2, 1058150, Note_on_c, 0, 79, 0
2, 1058150, Note_on_c, 0, 77, 105
2, 1058390, Note_on_c, 0, 77, 0
2, 1058390, Note_on_c, 0, 76, 105
2, 1058630, Note_on_c, 0, 76, 0
2, 1058630, Note_on_c, 0, 74, 105
2, 1058870, Note_on_c, 0, 74, 0
2, 1058870, Note_on_c, 0, 72, 105
2, 1059350, Note_on_c, 0, 72, 0
2, 1063190, Note_on_c, 0, 72, 105
2, 1063286, Note_on_c, 0, 72, 0
2, 1063430, Note_on_c, 0, 72, 105
2, 1063526, Note_on_c, 0, 72, 0
2, 1063670, Note_on_c, 0, 71, 105
2, 1063910, Note_on_c, 0, 71, 0
2, 1063910, Note_on_c, 0, 74, 105
2, 1064150, Note_on_c, 0, 74, 0
2, 1064150, Note_on_c, 0, 77, 105
2, 1064246, Note_on_c, 0, 77, 0
2, 1064390, Note_on_c, 0, 77, 105
2, 1064486, Note_on_c, 0, 77, 0
2, 1064630, Note_on_c, 0, 72, 105
2, 1064870, Note_on_c, 0, 72, 0
2, 1064870, Note_on_c, 0, 76, 105
2, 1065110, Note_on_c, 0, 76, 0
2, 1065110, Note_on_c, 0, 79, 105
2, 1065206, Note_on_c, 0, 79, 0
2, 1065350, Note_on_c, 0, 79, 105
2, 1065446, Note_on_c, 0, 79, 0
2, 1065590, Note_on_c, 0, 74, 105
2, 1065830, Note_on_c, 0, 74, 0
2, 1065830, Note_on_c, 0, 79, 105
2, 1066070, Note_on_c, 0, 79, 0
2, 1066070, Note_on_c, 0, 83, 105
2, 1066166, Note_on_c, 0, 83, 0
2, 1066310, Note_on_c, 0, 83, 105
2, 1066406, Note_on_c, 0, 83, 0
2, 1066550, Note_on_c, 0, 84, 105
2, 1067030, Note_on_c, 0, 84, 0
2, 1067030, Note_on_c, 0, 72, 105
2, 1067126, Note_on_c, 0, 72, 0
2, 1067270, Note_on_c, 0, 72, 105
2, 1067366, Note_on_c, 0, 72, 0
2, 1067510, Note_on_c, 0, 71, 105
2, 1067750, Note_on_c, 0, 71, 0
2, 1067750, Note_on_c, 0, 74, 105
2, 1067990, Note_on_c, 0, 74, 0
2, 1067990, Note_on_c, 0, 77, 105
2, 1068086, Note_on_c, 0, 77, 0
2, 1068230, Note_on_c, 0, 77, 105
2, 1068326, Note_on_c, 0, 77, 0
2, 1068470, Note_on_c, 0, 72, 105
2, 1068710, Note_on_c, 0, 72, 0
2, 1068710, Note_on_c, 0, 76, 105
2, 1068950, Note_on_c, 0, 76, 0
2, 1068950, Note_on_c, 0, 79, 105
2, 1069046, Note_on_c, 0, 79, 0
2, 1069190, Note_on_c, 0, 79, 105
2, 1069286, Note_on_c, 0, 79, 0
2, 1069430, Note_on_c, 0, 71, 105
2, 1069670, Note_on_c, 0, 71, 0
2, 1069670, Note_on_c, 0, 76, 105
2, 1069910, Note_on_c, 0, 76, 0
2, 1069910, Note_on_c, 0, 80, 105
2, 1070006, Note_on_c, 0, 80, 0
2, 1070150, Note_on_c, 0, 80, 105
2, 1070246, Note_on_c, 0, 80, 0
2, 1070390, Note_on_c, 0, 81, 105
2, 1070870, Note_on_c, 0, 81, 0
2, 1070870, Note_on_c, 0, 69, 105
2, 1070966, Note_on_c, 0, 69, 0
2, 1071110, Note_on_c, 0, 69, 105
2, 1071206, Note_on_c, 0, 69, 0
2, 1071350, Note_on_c, 0, 68, 105
2, 1071590, Note_on_c, 0, 68, 0
2, 1071590, Note_on_c, 0, 71, 105
2, 1071830, Note_on_c, 0, 71, 0
2, 1071830, Note_on_c, 0, 74, 105
2, 1071926, Note_on_c, 0, 74, 0
2, 1072070, Note_on_c, 0, 74, 105
2, 1072166, Note_on_c, 0, 74, 0
2, 1072310, Note_on_c, 0, 69, 105
2, 1072550, Note_on_c, 0, 69, 0
2, 1072550, Note_on_c, 0, 72, 105
2, 1072790, Note_on_c, 0, 72, 0
2, 1072790, Note_on_c, 0, 76, 105
2, 1072886, Note_on_c, 0, 76, 0
2, 1073030, Note_on_c, 0, 76, 105
2, 1073126, Note_on_c, 0, 76, 0
2, 1073270, Note_on_c, 0, 82, 105
2, 1073510, Note_on_c, 0, 82, 0
2, 1073510, Note_on_c, 0, 79, 105
2, 1073750, Note_on_c, 0, 79, 0
2, 1073750, Note_on_c, 0, 76, 105
2, 1073846, Note_on_c, 0, 76, 0
2, 1073990, Note_on_c, 0, 76, 105
2, 1074086, Note_on_c, 0, 76, 0
2, 1074230, Note_on_c, 0, 77, 105
2, 1074710, Note_on_c, 0, 77, 0
2, 1074710, Note_on_c, 0, 65, 105
2, 1074806, Note_on_c, 0, 65, 0
2, 1074950, Note_on_c, 0, 65, 105
2, 1075046, Note_on_c, 0, 65, 0
2, 1075190, Note_on_c, 0, 64, 105
2, 1075430, Note_on_c, 0, 64, 0
2, 1075430, Note_on_c, 0, 67, 105
2, 1075670, Note_on_c, 0, 67, 0
2, 1075670, Note_on_c, 0, 70, 105
2, 1075766, Note_on_c, 0, 70, 0
2, 1075910, Note_on_c, 0, 70, 105
2, 1076006, Note_on_c, 0, 70, 0
2, 1076150, Note_on_c, 0, 65, 105
2, 1076390, Note_on_c, 0, 65, 0
2, 1076390, Note_on_c, 0, 69, 105
2, 1076630, Note_on_c, 0, 69, 0
2, 1076630, Note_on_c, 0, 72, 105
2, 1076726, Note_on_c, 0, 72, 0
2, 1076870, Note_on_c, 0, 72, 105
2, 1076966, Note_on_c, 0, 72, 0
2, 1077110, Note_on_c, 0, 67, 105
2, 1077350, Note_on_c, 0, 67, 0
2, 1077350, Note_on_c, 0, 72, 105
2, 1077590, Note_on_c, 0, 72, 0
2, 1077590, Note_on_c, 0, 76, 105
2, 1077686, Note_on_c, 0, 76, 0
2, 1077830, Note_on_c, 0, 76, 105
2, 1077926, Note_on_c, 0, 76, 0
2, 1078070, Note_on_c, 0, 77, 105
2, 1078550, Note_on_c, 0, 77, 0
2, 1093430, Note_on_c, 0, 72, 70
2, 1099190, Note_on_c, 0, 72, 0
2, 1099190, Note_on_c, 0, 74, 70
2, 1100150, Note_on_c, 0, 74, 0
2, 1100150, Note_on_c, 0, 72, 70
2, 1101110, Note_on_c, 0, 72, 0
2, 1106870, Note_on_c, 0, 77, 70
2, 1108790, Note_on_c, 0, 77, 0
2, 1108790, Note_on_c, 0, 79, 70
2, 1110710, Note_on_c, 0, 79, 0
2, 1110710, Note_on_c, 0, 81, 70
2, 1110950, Note_on_c, 0, 81, 0
2, 1110950, Note_on_c, 0, 84, 70
2, 1111190, Note_on_c, 0, 84, 0
2, 1111190, Note_on_c, 0, 81, 70
2, 1111286, Note_on_c, 0, 81, 0
2, 1111430, Note_on_c, 0, 79, 70
2, 1111526, Note_on_c, 0, 79, 0
2, 1111670, Note_on_c, 0, 77, 70
2, 1112150, Note_on_c, 0, 77, 0
2, 1112150, Note_on_c, 0, 79, 70
2, 1112630, Note_on_c, 0, 79, 0
2, 1112630, Note_on_c, 0, 81, 70
2, 1112870, Note_on_c, 0, 81, 0
2, 1112870, Note_on_c, 0, 84, 70
2, 1113110, Note_on_c, 0, 84, 0
2, 1113110, Note_on_c, 0, 81, 70
2, 1113206, Note_on_c, 0, 81, 0
2, 1113350, Note_on_c, 0, 79, 70
2, 1113446, Note_on_c, 0, 79, 0
2, 1113590, Note_on_c, 0, 77, 70
2, 1114070, Note_on_c, 0, 77, 0
2, 1114070, Note_on_c, 0, 79, 70
2, 1114550, Note_on_c, 0, 79, 0
2, 1114550, Note_on_c, 0, 81, 70
2, 1114790, Note_on_c, 0, 81, 0
2, 1114790, Note_on_c, 0, 84, 70
2, 1115030, Note_on_c, 0, 84, 0
2, 1115030, Note_on_c, 0, 81, 70
2, 1115126, Note_on_c, 0, 81, 0
2, 1115270, Note_on_c, 0, 79, 70
2, 1115366, Note_on_c, 0, 79, 0
2, 1115510, Note_on_c, 0, 77, 70
2, 1115990, Note_on_c, 0, 77, 0
2, 1115990, Note_on_c, 0, 81, 70
2, 1116230, Note_on_c, 0, 81, 0
2, 1116230, Note_on_c, 0, 79, 70
2, 1116470, Note_on_c, 0, 79, 0
2, 1116470, Note_on_c, 0, 77, 70
2, 1116950, Note_on_c, 0, 77, 0
2, 1174070, Note_on_c, 0, 74, 70
2, 1175030, Note_on_c, 0, 74, 0
2, 1175030, Note_on_c, 0, 75, 70
2, 1175990, Note_on_c, 0, 75, 0
2, 1175990, Note_on_c, 0, 74, 70
2, 1176950, Note_on_c, 0, 74, 0
2, 1176950, Note_on_c, 0, 75, 70
2, 1177910, Note_on_c, 0, 75, 0
2, 1177910, Note_on_c, 0, 74, 70
2, 1178870, Note_on_c, 0, 74, 0
2, 1178870, Note_on_c, 0, 76, 70
2, 1179830, Note_on_c, 0, 76, 0
2, 1179830, Note_on_c, 0, 77, 70
2, 1180790, Note_on_c, 0, 77, 0
2, 1180790, Note_on_c, 0, 74, 70
2, 1181750, Note_on_c, 0, 74, 0
2, 1181750, Note_on_c, 0, 76, 70
2, 1182230, Note_on_c, 0, 76, 0
2, 1210550, Note_on_c, 0, 84, 90
2, 1211510, Note_on_c, 0, 84, 0
2, 1212470, Note_on_c, 0, 83, 90
2, 1213430, Note_on_c, 0, 83, 0
2, 1214390, Note_on_c, 0, 78, 90
2, 1215350, Note_on_c, 0, 78, 0
2, 1216310, Note_on_c, 0, 79, 70
2, 1223030, Note_on_c, 0, 79, 0
2, 1223030, Note_on_c, 0, 83, 90
2, 1223990, Note_on_c, 0, 83, 0
2, 1223990, Note_on_c, 0, 84, 90
2, 1224470, Note_on_c, 0, 84, 0
2, 1281590, Note_on_c, 0, 83, 70
2, 1282070, Note_on_c, 0, 83, 0
2, 1282070, Note_on_c, 0, 83, 70
2, 1282310, Note_on_c, 0, 83, 0
2, 1282310, Note_on_c, 0, 83, 70
2, 1282550, Note_on_c, 0, 83, 0
2, 1282550, Note_on_c, 0, 83, 70
2, 1283030, Note_on_c, 0, 83, 0
2, 1283030, Note_on_c, 0, 83, 70
2, 1283510, Note_on_c, 0, 83, 0
2, 1283510, Note_on_c, 0, 84, 70
2, 1283990, Note_on_c, 0, 84, 0
2, 1283990, Note_on_c, 0, 77, 90
2, 1284950, Note_on_c, 0, 77, 0
2, 1284950, Note_on_c, 0, 76, 70
2, 1285430, Note_on_c, 0, 76, 0
2, 1287830, Note_on_c, 0, 77, 90
2, 1288790, Note_on_c, 0, 77, 0
2, 1288790, Note_on_c, 0, 76, 70
2, 1289270, Note_on_c, 0, 76, 0
2, 1295030, Note_on_c, 0, 74, 70
2, 1296950, Note_on_c, 0, 74, 0
2, 1296950, Note_on_c, 0, 77, 70
2, 1298870, Note_on_c, 0, 77, 0
2, 1298870, Note_on_c, 0, 76, 70
2, 1299350, Note_on_c, 0, 76, 0
2, 1364150, Note_on_c, 0, 84, 90
2, 1367990, Note_on_c, 0, 84, 0
2, 1367990, Note_on_c, 0, 81, 105
2, 1368950, Note_on_c, 0, 81, 0
2, 1368950, Note_on_c, 0, 83, 105
2, 1369910, Note_on_c, 0, 83, 0
2, 1369910, Note_on_c, 0, 84, 105
2, 1370870, Note_on_c, 0, 84, 0
2, 1370870, Note_on_c, 0, 78, 105
2, 1371830, Note_on_c, 0, 78, 0
2, 1371830, Note_on_c, 0, 79, 105
2, 1372790, Note_on_c, 0, 79, 0
2, 1375670, Note_on_c, 0, 72, 90
2, 1376150, Note_on_c, 0, 72, 0
2, 1377590, Note_on_c, 0, 67, 105
2, 1378070, Note_on_c, 0, 67, 0
2, 1379510, Note_on_c, 0, 79, 105
2, 1383350, Note_on_c, 0, 79, 0
2, 1383350, Note_on_c, 0, 79, 105
2, 1384310, Note_on_c, 0, 79, 0
2, 1384310, Note_on_c, 0, 84, 105
2, 1386230, Note_on_c, 0, 84, 0
2, 1386230, Note_on_c, 0, 83, 105
2, 1387190, Note_on_c, 0, 83, 0
2, 1387190, Note_on_c, 0, 84, 105
2, 1388150, Note_on_c, 0, 84, 0
2, 1417910, Note_on_c, 0, 72, 70
2, 1419830, Note_on_c, 0, 72, 0
2, 1419830, Note_on_c, 0, 74, 70
2, 1421750, Note_on_c, 0, 74, 0
2, 1421750, Note_on_c, 0, 76, 70
2, 1421990, Note_on_c, 0, 76, 0
2, 1421990, Note_on_c, 0, 79, 70
2, 1422230, Note_on_c, 0, 79, 0
2, 1422230, Note_on_c, 0, 76, 70
2, 1422326, Note_on_c, 0, 76, 0
2, 1422470, Note_on_c, 0, 74, 70
2, 1422566, Note_on_c, 0, 74, 0
2, 1422710, Note_on_c, 0, 72, 70
2, 1423190, Note_on_c, 0, 72, 0
2, 1423190, Note_on_c, 0, 74, 70
2, 1423670, Note_on_c, 0, 74, 0
2, 1423670, Note_on_c, 0, 76, 70
2, 1423910, Note_on_c, 0, 76, 0
2, 1423910, Note_on_c, 0, 79, 70
2, 1424150, Note_on_c, 0, 79, 0
2, 1424150, Note_on_c, 0, 76, 70
2, 1424246, Note_on_c, 0, 76, 0
2, 1424390, Note_on_c, 0, 74, 70
2, 1424486, Note_on_c, 0, 74, 0
2, 1424630, Note_on_c, 0, 72, 70
2, 1425110, Note_on_c, 0, 72, 0
2, 1425110, Note_on_c, 0, 74, 70
2, 1425590, Note_on_c, 0, 74, 0
2, 1425590, Note_on_c, 0, 76, 70
2, 1425830, Note_on_c, 0, 76, 0
2, 1425830, Note_on_c, 0, 79, 70
2, 1426070, Note_on_c, 0, 79, 0
2, 1426070, Note_on_c, 0, 76, 70
2, 1426166, Note_on_c, 0, 76, 0
2, 1426310, Note_on_c, 0, 74, 70
2, 1426406, Note_on_c, 0, 74, 0
2, 1426550, Note_on_c, 0, 72, 70
2, 1427030, Note_on_c, 0, 72, 0
2, 1427030, Note_on_c, 0, 76, 70
2, 1427270, Note_on_c, 0, 76, 0
2, 1427270, Note_on_c, 0, 74, 70
2, 1427510, Note_on_c, 0, 74, 0
2, 1427510, Note_on_c, 0, 72, 70
2, 1427990, Note_on_c, 0, 72, 0
2, 1428950, Note_on_c, 0, 74, 105
2, 1429430, Note_on_c, 0, 74, 0
2, 1429430, Note_on_c, 0, 76, 105
2, 1430390, Note_on_c, 0, 76, 0
2, 1430870, Note_on_c, 0, 74, 105
2, 1431350, Note_on_c, 0, 74, 0
2, 1431350, Note_on_c, 0, 76, 105
2, 1432310, Note_on_c, 0, 76, 0
2, 1432790, Note_on_c, 0, 74, 105
2, 1433270, Note_on_c, 0, 74, 0
2, 1433270, Note_on_c, 0, 76, 105
2, 1434230, Note_on_c, 0, 76, 0
2, 1434230, Note_on_c, 0, 79, 105
2, 1435190, Note_on_c, 0, 79, 0
2, 1435190, Note_on_c, 0, 84, 105
2, 1436150, Note_on_c, 0, 84, 0
2, 1436150, End_track
3, 0, Start_track
3, 0, MIDI_port, 0
3, 0, Title_t, "Oboe"
3, 0, Control_c, 1, 0, 0
3, 0, Control_c, 1, 32, 1
3, 0, Program_c, 1, 68
3, 0, Control_c, 1, 7, 100
3, 0, Control_c, 1, 10, 60
3, 13910, Note_on_c, 1, 72, 105
3, 16734, Note_on_c, 1, 72, 0
3, 16790, Note_on_c, 1, 72, 103
3, 16910, Note_on_c, 1, 74, 106
3, 16950, Note_on_c, 1, 72, 0
3, 17030, Note_on_c, 1, 76, 105
3, 17070, Note_on_c, 1, 74, 0
3, 17126, Note_on_c, 1, 76, 0
3, 17150, Note_on_c, 1, 72, 101
3, 17270, Note_on_c, 1, 72, 0
3, 17270, Note_on_c, 1, 77, 101
3, 17750, Note_on_c, 1, 77, 0
3, 20750, Note_on_c, 1, 71, 101
3, 20870, Note_on_c, 1, 72, 99
3, 20910, Note_on_c, 1, 71, 0
3, 20990, Note_on_c, 1, 72, 0
3, 20990, Note_on_c, 1, 72, 96
3, 21110, Note_on_c, 1, 72, 0
3, 21110, Note_on_c, 1, 74, 104
3, 23030, Note_on_c, 1, 74, 0
3, 23030, Note_on_c, 1, 72, 105
3, 24886, Note_on_c, 1, 72, 0
3, 24950, Note_on_c, 1, 69, 105
3, 25910, Note_on_c, 1, 69, 0
3, 25910, Note_on_c, 1, 64, 102
3, 26390, Note_on_c, 1, 64, 0
3, 26390, Note_on_c, 1, 62, 105
3, 26870, Note_on_c, 1, 62, 0
3, 28790, Note_on_c, 1, 74, 105
3, 30710, Note_on_c, 1, 74, 0
3, 30710, Note_on_c, 1, 72, 105
3, 32630, Note_on_c, 1, 72, 0
3, 32630, Note_on_c, 1, 72, 97
3, 34070, Note_on_c, 1, 72, 0
3, 34070, Note_on_c, 1, 69, 106
3, 34550, Note_on_c, 1, 69, 0
3, 34550, Note_on_c, 1, 67, 102
3, 34790, Note_on_c, 1, 67, 0
3, 35030, Note_on_c, 1, 71, 105
3, 35126, Note_on_c, 1, 71, 0
3, 35270, Note_on_c, 1, 71, 105
3, 35366, Note_on_c, 1, 71, 0
3, 35510, Note_on_c, 1, 72, 105
3, 35990, Note_on_c, 1, 72, 0
3, 36230, Note_on_c, 1, 72, 105
3, 36470, Note_on_c, 1, 72, 0
3, 36470, Note_on_c, 1, 71, 105
3, 36766, Note_on_c, 1, 71, 0
3, 36950, Note_on_c, 1, 71, 105
3, 37046, Note_on_c, 1, 71, 0
3, 37190, Note_on_c, 1, 71, 105
3, 37286, Note_on_c, 1, 71, 0
3, 37430, Note_on_c, 1, 72, 105
3, 37910, Note_on_c, 1, 72, 0
3, 38150, Note_on_c, 1, 72, 105
3, 38390, Note_on_c, 1, 72, 0
3, 38390, Note_on_c, 1, 71, 105
3, 38870, Note_on_c, 1, 71, 0
3, 44150, Note_on_c, 1, 76, 72
3, 44270, Note_on_c, 1, 77, 75
3, 44310, Note_on_c, 1, 76, 0
3, 44390, Note_on_c, 1, 76, 79
3, 44430, Note_on_c, 1, 77, 0
3, 44510, Note_on_c, 1, 74, 77
3, 44550, Note_on_c, 1, 76, 0
3, 44630, Note_on_c, 1, 74, 0
3, 44630, Note_on_c, 1, 72, 75
3, 45110, Note_on_c, 1, 72, 0
3, 47990, Note_on_c, 1, 76, 76
3, 48110, Note_on_c, 1, 76, 0
3, 48110, Note_on_c, 1, 77, 81
3, 48230, Note_on_c, 1, 77, 0
3, 48230, Note_on_c, 1, 76, 81
3, 48350, Note_on_c, 1, 76, 0
3, 48350, Note_on_c, 1, 74, 81
3, 48470, Note_on_c, 1, 74, 0
3, 48470, Note_on_c, 1, 72, 80
3, 48950, Note_on_c, 1, 72, 0
3, 51830, Note_on_c, 1, 76, 75
3, 51950, Note_on_c, 1, 77, 78
3, 51990, Note_on_c, 1, 76, 0
3, 52070, Note_on_c, 1, 76, 83
3, 52110, Note_on_c, 1, 77, 0
3, 52190, Note_on_c, 1, 74, 82
3, 52230, Note_on_c, 1, 76, 0
3, 52310, Note_on_c, 1, 74, 0
3, 52310, Note_on_c, 1, 72, 78
3, 52790, Note_on_c, 1, 72, 0
3, 53750, Note_on_c, 1, 81, 74
3, 53870, Note_on_c, 1, 82, 77
3, 53910, Note_on_c, 1, 81, 0
3, 53990, Note_on_c, 1, 81, 81
3, 54030, Note_on_c, 1, 82, 0
3, 54110, Note_on_c, 1, 79, 81
3, 54150, Note_on_c, 1, 81, 0
3, 54230, Note_on_c, 1, 79, 0
3, 54230, Note_on_c, 1, 77, 77
3, 54710, Note_on_c, 1, 77, 0
3, 55670, Note_on_c, 1, 79, 75
3, 55790, Note_on_c, 1, 81, 79
3, 55830, Note_on_c, 1, 79, 0
3, 55910, Note_on_c, 1, 79, 79
3, 55950, Note_on_c, 1, 81, 0
3, 56030, Note_on_c, 1, 77, 79
3, 56070, Note_on_c, 1, 79, 0
3, 56150, Note_on_c, 1, 77, 0
3, 56150, Note_on_c, 1, 76, 76
3, 56630, Note_on_c, 1, 76, 0
3, 61430, Note_on_c, 1, 76, 91
3, 61910, Note_on_c, 1, 76, 0
3, 61910, Note_on_c, 1, 76, 91
3, 62630, Note_on_c, 1, 76, 0
3, 62630, Note_on_c, 1, 77, 97
3, 62750, Note_on_c, 1, 77, 0
3, 62750, Note_on_c, 1, 76, 103
3, 62870, Note_on_c, 1, 76, 0
3, 62870, Note_on_c, 1, 74, 97
3, 63110, Note_on_c, 1, 74, 0
3, 63110, Note_on_c, 1, 72, 94
3, 63326, Note_on_c, 1, 72, 0
3, 63350, Note_on_c, 1, 67, 91
3, 63710, Note_on_c, 1, 65, 87
3, 63750, Note_on_c, 1, 67, 0
3, 63810, Note_on_c, 1, 65, 0
3, 63830, Note_on_c, 1, 64, 87
3, 64790, Note_on_c, 1, 64, 0
3, 64790, Note_on_c, 1, 62, 91
3, 65270, Note_on_c, 1, 62, 0
3, 65270, Note_on_c, 1, 64, 91
3, 65750, Note_on_c, 1, 64, 0
3, 70070, Note_on_c, 1, 72, 70
3, 70214, Note_on_c, 1, 72, 0
3, 70550, Note_on_c, 1, 74, 70
3, 70694, Note_on_c, 1, 74, 0
3, 71030, Note_on_c, 1, 76, 70
3, 71174, Note_on_c, 1, 76, 0
3, 71510, Note_on_c, 1, 74, 70
3, 71654, Note_on_c, 1, 74, 0
3, 71990, Note_on_c, 1, 72, 70
3, 72134, Note_on_c, 1, 72, 0
3, 72470, Note_on_c, 1, 71, 70
3, 72614, Note_on_c, 1, 71, 0
3, 74870, Note_on_c, 1, 72, 105
3, 75590, Note_on_c, 1, 72, 0
3, 75590, Note_on_c, 1, 74, 105
3, 75710, Note_on_c, 1, 74, 0
3, 75710, Note_on_c, 1, 76, 105
3, 75810, Note_on_c, 1, 76, 0
3, 75830, Note_on_c, 1, 76, 105
3, 76070, Note_on_c, 1, 74, 105
3, 76134, Note_on_c, 1, 76, 0
3, 76246, Note_on_c, 1, 74, 0
3, 76310, Note_on_c, 1, 72, 105
3, 76406, Note_on_c, 1, 72, 0
3, 76550, Note_on_c, 1, 71, 105
3, 76646, Note_on_c, 1, 71, 0
3, 77270, Note_on_c, 1, 67, 105
3, 77549, Note_on_c, 1, 67, 0
3, 77630, Note_on_c, 1, 67, 105
3, 77724, Note_on_c, 1, 67, 0
3, 77750, Note_on_c, 1, 67, 105
3, 78189, Note_on_c, 1, 67, 0
3, 78230, Note_on_c, 1, 72, 105
3, 78534, Note_on_c, 1, 72, 0
3, 78590, Note_on_c, 1, 72, 105
3, 78679, Note_on_c, 1, 72, 0
3, 78710, Note_on_c, 1, 72, 105
3, 79149, Note_on_c, 1, 72, 0
3, 79190, Note_on_c, 1, 76, 105
3, 79479, Note_on_c, 1, 76, 0
3, 79550, Note_on_c, 1, 76, 105
3, 79639, Note_on_c, 1, 76, 0
3, 79670, Note_on_c, 1, 76, 105
3, 80109, Note_on_c, 1, 76, 0
3, 80150, Note_on_c, 1, 76, 105
3, 80444, Note_on_c, 1, 76, 0
3, 80510, Note_on_c, 1, 76, 105
3, 80599, Note_on_c, 1, 76, 0
3, 80630, Note_on_c, 1, 76, 105
3, 81070, Note_on_c, 1, 76, 0
3, 165590, Note_on_c, 1, 78, 98
3, 165830, Note_on_c, 1, 78, 0
3, 165830, Note_on_c, 1, 78, 98
3, 166070, Note_on_c, 1, 78, 0
3, 166070, Note_on_c, 1, 79, 98
3, 166550, Note_on_c, 1, 79, 0
3, 166790, Note_on_c, 1, 79, 98
3, 167030, Note_on_c, 1, 79, 0
3, 167030, Note_on_c, 1, 78, 98
3, 167310, Note_on_c, 1, 78, 0
3, 167510, Note_on_c, 1, 78, 98
3, 167638, Note_on_c, 1, 78, 0
3, 167750, Note_on_c, 1, 78, 98
3, 167870, Note_on_c, 1, 78, 0
3, 167990, Note_on_c, 1, 79, 98
3, 168470, Note_on_c, 1, 79, 0
3, 168710, Note_on_c, 1, 79, 98
3, 168950, Note_on_c, 1, 79, 0
3, 168950, Note_on_c, 1, 78, 98
3, 169430, Note_on_c, 1, 78, 0
3, 169430, Note_on_c, 1, 74, 98
3, 169910, Note_on_c, 1, 74, 0
3, 169910, Note_on_c, 1, 62, 98
3, 170390, Note_on_c, 1, 62, 0
3, 230390, Note_on_c, 1, 67, 105
3, 233678, Note_on_c, 1, 67, 0
3, 233750, Note_on_c, 1, 67, 105
3, 233870, Note_on_c, 1, 69, 105
3, 233910, Note_on_c, 1, 67, 0
3, 233990, Note_on_c, 1, 71, 105
3, 234030, Note_on_c, 1, 69, 0
3, 234096, Note_on_c, 1, 71, 0
3, 234110, Note_on_c, 1, 67, 105
3, 234230, Note_on_c, 1, 67, 0
3, 234230, Note_on_c, 1, 72, 105
3, 234710, Note_on_c, 1, 72, 0
3, 237710, Note_on_c, 1, 78, 105
3, 237830, Note_on_c, 1, 79, 105
3, 237870, Note_on_c, 1, 78, 0
3, 237950, Note_on_c, 1, 79, 0
3, 237950, Note_on_c, 1, 79, 105
3, 238070, Note_on_c, 1, 79, 0
3, 238070, Note_on_c, 1, 81, 105
3, 239990, Note_on_c, 1, 81, 0
3, 239990, Note_on_c, 1, 79, 105
3, 241862, Note_on_c, 1, 79, 0
3, 241910, Note_on_c, 1, 76, 105
3, 242830, Note_on_c, 1, 76, 0
3, 242870, Note_on_c, 1, 71, 105
3, 243350, Note_on_c, 1, 71, 0
3, 243350, Note_on_c, 1, 69, 105
3, 243830, Note_on_c, 1, 69, 0
3, 243830, Note_on_c, 1, 67, 97
3, 244790, Note_on_c, 1, 67, 0
3, 244790, Note_on_c, 1, 76, 96
3, 245750, Note_on_c, 1, 76, 0
3, 246230, Note_on_c, 1, 71, 105
3, 246950, Note_on_c, 1, 71, 0
3, 246950, Note_on_c, 1, 72, 105
3, 247070, Note_on_c, 1, 72, 0
3, 247070, Note_on_c, 1, 71, 105
3, 247190, Note_on_c, 1, 71, 0
3, 247190, Note_on_c, 1, 69, 105
3, 247430, Note_on_c, 1, 69, 0
3, 247430, Note_on_c, 1, 67, 105
3, 247630, Note_on_c, 1, 67, 0
3, 247670, Note_on_c, 1, 71, 105
3, 248030, Note_on_c, 1, 69, 105
3, 248070, Note_on_c, 1, 71, 0
3, 248126, Note_on_c, 1, 69, 0
3, 248150, Note_on_c, 1, 67, 105
3, 249110, Note_on_c, 1, 67, 0
3, 249110, Note_on_c, 1, 66, 105
3, 249590, Note_on_c, 1, 66, 0
3, 393590, Note_on_c, 1, 71, 70
3, 397430, Note_on_c, 1, 71, 0
3, 397430, Note_on_c, 1, 72, 70
3, 401270, Note_on_c, 1, 72, 0
3, 401270, Note_on_c, 1, 71, 92
3, 401366, Note_on_c, 1, 71, 0
3, 401750, Note_on_c, 1, 71, 91
3, 401934, Note_on_c, 1, 71, 0
3, 401990, Note_on_c, 1, 71, 91
3, 402086, Note_on_c, 1, 71, 0
3, 402230, Note_on_c, 1, 72, 91
3, 402710, Note_on_c, 1, 72, 0
3, 402950, Note_on_c, 1, 72, 91
3, 403190, Note_on_c, 1, 72, 0
3, 403190, Note_on_c, 1, 71, 91
3, 403286, Note_on_c, 1, 71, 0
3, 403670, Note_on_c, 1, 71, 91
3, 403862, Note_on_c, 1, 71, 0
3, 403910, Note_on_c, 1, 71, 92
3, 404006, Note_on_c, 1, 71, 0
3, 404150, Note_on_c, 1, 72, 92
3, 404630, Note_on_c, 1, 72, 0
3, 404870, Note_on_c, 1, 72, 92
3, 405110, Note_on_c, 1, 72, 0
3, 405110, Note_on_c, 1, 71, 92
3, 405590, Note_on_c, 1, 71, 0
3, 454070, Note_on_c, 1, 72, 70
3, 454310, Note_on_c, 1, 72, 0
3, 454550, Note_on_c, 1, 74, 70
3, 454790, Note_on_c, 1, 74, 0
3, 455030, Note_on_c, 1, 76, 70
3, 455270, Note_on_c, 1, 76, 0
3, 455510, Note_on_c, 1, 74, 70
3, 455750, Note_on_c, 1, 74, 0
3, 455990, Note_on_c, 1, 72, 70
3, 456230, Note_on_c, 1, 72, 0
3, 456470, Note_on_c, 1, 71, 70
3, 456710, Note_on_c, 1, 71, 0
3, 460790, Note_on_c, 1, 76, 70
3, 461750, Note_on_c, 1, 76, 0
3, 461750, Note_on_c, 1, 74, 70
3, 462710, Note_on_c, 1, 74, 0
3, 462710, Note_on_c, 1, 72, 70
3, 463158, Note_on_c, 1, 72, 0
3, 463190, Note_on_c, 1, 72, 70
3, 463430, Note_on_c, 1, 72, 0
3, 463670, Note_on_c, 1, 76, 70
3, 464150, Note_on_c, 1, 76, 0
3, 464150, Note_on_c, 1, 72, 70
3, 464630, Note_on_c, 1, 72, 0
3, 465110, Note_on_c, 1, 71, 80
3, 465350, Note_on_c, 1, 71, 0
3, 465590, Note_on_c, 1, 74, 80
3, 466070, Note_on_c, 1, 74, 0
3, 466070, Note_on_c, 1, 71, 90
3, 466526, Note_on_c, 1, 71, 0
3, 470390, Note_on_c, 1, 76, 105
3, 471110, Note_on_c, 1, 76, 0
3, 471110, Note_on_c, 1, 74, 105
3, 471350, Note_on_c, 1, 74, 0
3, 471350, Note_on_c, 1, 72, 105
3, 472070, Note_on_c, 1, 72, 0
3, 472070, Note_on_c, 1, 71, 105
3, 472310, Note_on_c, 1, 71, 0
3, 472310, Note_on_c, 1, 69, 105
3, 473030, Note_on_c, 1, 69, 0
3, 473030, Note_on_c, 1, 67, 105
3, 473270, Note_on_c, 1, 67, 0
3, 473270, Note_on_c, 1, 65, 105
3, 473990, Note_on_c, 1, 65, 0
3, 473990, Note_on_c, 1, 64, 105
3, 474230, Note_on_c, 1, 64, 0
3, 474230, Note_on_c, 1, 69, 105
3, 476150, Note_on_c, 1, 69, 0
3, 476150, Note_on_c, 1, 67, 105
3, 476334, Note_on_c, 1, 67, 0
3, 476630, Note_on_c, 1, 71, 105
3, 476830, Note_on_c, 1, 71, 0
3, 476870, Note_on_c, 1, 71, 105
3, 476982, Note_on_c, 1, 71, 0
3, 477110, Note_on_c, 1, 72, 105
3, 477590, Note_on_c, 1, 72, 0
3, 477830, Note_on_c, 1, 72, 105
3, 478070, Note_on_c, 1, 72, 0
3, 478070, Note_on_c, 1, 71, 105
3, 478278, Note_on_c, 1, 71, 0
3, 478550, Note_on_c, 1, 71, 105
3, 478758, Note_on_c, 1, 71, 0
3, 478790, Note_on_c, 1, 71, 105
3, 478918, Note_on_c, 1, 71, 0
3, 479030, Note_on_c, 1, 72, 105
3, 479510, Note_on_c, 1, 72, 0
3, 479750, Note_on_c, 1, 76, 105
3, 479990, Note_on_c, 1, 76, 0
3, 481910, Note_on_c, 1, 72, 105
3, 485214, Note_on_c, 1, 72, 0
3, 485270, Note_on_c, 1, 72, 105
3, 485390, Note_on_c, 1, 74, 105
3, 485430, Note_on_c, 1, 72, 0
3, 485510, Note_on_c, 1, 76, 105
3, 485550, Note_on_c, 1, 74, 0
3, 485630, Note_on_c, 1, 76, 0
3, 485630, Note_on_c, 1, 72, 105
3, 485750, Note_on_c, 1, 72, 0
3, 485750, Note_on_c, 1, 77, 105
3, 486230, Note_on_c, 1, 77, 0
3, 489230, Note_on_c, 1, 71, 105
3, 489350, Note_on_c, 1, 72, 105
3, 489390, Note_on_c, 1, 71, 0
3, 489470, Note_on_c, 1, 72, 0
3, 489470, Note_on_c, 1, 72, 105
3, 489590, Note_on_c, 1, 72, 0
3, 489590, Note_on_c, 1, 74, 105
3, 491510, Note_on_c, 1, 74, 0
3, 491510, Note_on_c, 1, 72, 105
3, 493430, Note_on_c, 1, 72, 0
3, 493430, Note_on_c, 1, 69, 105
3, 494390, Note_on_c, 1, 69, 0
3, 494390, Note_on_c, 1, 64, 105
3, 494870, Note_on_c, 1, 64, 0
3, 494870, Note_on_c, 1, 62, 98
3, 495350, Note_on_c, 1, 62, 0
3, 495350, Note_on_c, 1, 67, 96
3, 496310, Note_on_c, 1, 67, 0
3, 496310, Note_on_c, 1, 72, 96
3, 497270, Note_on_c, 1, 72, 0
3, 497270, Note_on_c, 1, 72, 105
3, 497990, Note_on_c, 1, 72, 0
3, 497990, Note_on_c, 1, 74, 105
3, 498110, Note_on_c, 1, 74, 0
3, 498110, Note_on_c, 1, 76, 105
3, 498206, Note_on_c, 1, 76, 0
3, 498230, Note_on_c, 1, 76, 105
3, 498470, Note_on_c, 1, 74, 105
3, 498526, Note_on_c, 1, 76, 0
3, 498654, Note_on_c, 1, 74, 0
3, 498710, Note_on_c, 1, 72, 105
3, 498806, Note_on_c, 1, 72, 0
3, 498950, Note_on_c, 1, 71, 105
3, 499046, Note_on_c, 1, 71, 0
3, 499670, Note_on_c, 1, 67, 105
3, 499974, Note_on_c, 1, 67, 0
3, 500030, Note_on_c, 1, 67, 105
3, 500119, Note_on_c, 1, 67, 0
3, 500150, Note_on_c, 1, 67, 105
3, 500604, Note_on_c, 1, 67, 0
3, 500630, Note_on_c, 1, 72, 105
3, 500959, Note_on_c, 1, 72, 0
3, 500990, Note_on_c, 1, 72, 105
3, 501084, Note_on_c, 1, 72, 0
3, 501110, Note_on_c, 1, 72, 105
3, 501549, Note_on_c, 1, 72, 0
3, 501590, Note_on_c, 1, 76, 105
3, 501909, Note_on_c, 1, 76, 0
3, 501950, Note_on_c, 1, 76, 105
3, 502044, Note_on_c, 1, 76, 0
3, 502070, Note_on_c, 1, 76, 105
3, 502519, Note_on_c, 1, 76, 0
3, 502550, Note_on_c, 1, 76, 105
3, 502854, Note_on_c, 1, 76, 0
3, 502910, Note_on_c, 1, 76, 105
3, 503004, Note_on_c, 1, 76, 0
3, 503030, Note_on_c, 1, 76, 105
3, 503510, Note_on_c, 1, 76, 0
3, 508790, Note_on_c, 1, 72, 105
3, 509270, Note_on_c, 1, 72, 0
3, 512630, Control_c, 1, 0, 0
3, 512630, Control_c, 1, 32, 0
3, 512630, Program_c, 1, 68
3, 696950, Note_on_c, 1, 72, 84
3, 697354, Note_on_c, 1, 72, 0
3, 697430, Note_on_c, 1, 72, 84
3, 697826, Note_on_c, 1, 72, 0
3, 697910, Note_on_c, 1, 72, 84
3, 698770, Note_on_c, 1, 72, 0
3, 698870, Note_on_c, 1, 76, 83
3, 699110, Note_on_c, 1, 74, 83
3, 699162, Note_on_c, 1, 76, 0
3, 699298, Note_on_c, 1, 74, 0
3, 699350, Note_on_c, 1, 72, 82
3, 699590, Note_on_c, 1, 74, 96
3, 699650, Note_on_c, 1, 72, 0
3, 699794, Note_on_c, 1, 74, 0
3, 700790, Note_on_c, 1, 76, 100
3, 701450, Note_on_c, 1, 76, 0
3, 701510, Note_on_c, 1, 79, 99
3, 701706, Note_on_c, 1, 79, 0
3, 701750, Note_on_c, 1, 79, 98
3, 701990, Note_on_c, 1, 77, 98
3, 702026, Note_on_c, 1, 79, 0
3, 702230, Note_on_c, 1, 76, 100
3, 702274, Note_on_c, 1, 77, 0
3, 702650, Note_on_c, 1, 76, 0
3, 702710, Note_on_c, 1, 76, 100
3, 703362, Note_on_c, 1, 76, 0
3, 703430, Note_on_c, 1, 79, 93
3, 703610, Note_on_c, 1, 79, 0
3, 703670, Note_on_c, 1, 79, 94
3, 703910, Note_on_c, 1, 77, 96
3, 703954, Note_on_c, 1, 79, 0
3, 704150, Note_on_c, 1, 76, 98
3, 704210, Note_on_c, 1, 77, 0
3, 704570, Note_on_c, 1, 76, 0
3, 704630, Note_on_c, 1, 67, 97
3, 705058, Note_on_c, 1, 67, 0
3, 705110, Note_on_c, 1, 67, 96
3, 705530, Note_on_c, 1, 67, 0
3, 705590, Note_on_c, 1, 67, 95
3, 706498, Note_on_c, 1, 67, 0
3, 706550, Note_on_c, 1, 72, 100
3, 706790, Note_on_c, 1, 71, 100
3, 706842, Note_on_c, 1, 72, 0
3, 706986, Note_on_c, 1, 71, 0
3, 707030, Note_on_c, 1, 69, 97
3, 707270, Note_on_c, 1, 71, 95
3, 707306, Note_on_c, 1, 69, 0
3, 707450, Note_on_c, 1, 71, 0
3, 707510, Note_on_c, 1, 72, 96
3, 707898, Note_on_c, 1, 72, 0
3, 707990, Note_on_c, 1, 72, 104
3, 708394, Note_on_c, 1, 72, 0
3, 708470, Note_on_c, 1, 76, 105
3, 708710, Note_on_c, 1, 74, 105
3, 708738, Note_on_c, 1, 76, 0
3, 708914, Note_on_c, 1, 74, 0
3, 708950, Note_on_c, 1, 72, 101
3, 709190, Note_on_c, 1, 74, 100
3, 709250, Note_on_c, 1, 72, 0
3, 709378, Note_on_c, 1, 74, 0
3, 709430, Note_on_c, 1, 76, 100
3, 709842, Note_on_c, 1, 76, 0
3, 709910, Note_on_c, 1, 72, 100
3, 710338, Note_on_c, 1, 72, 0
3, 710390, Note_on_c, 1, 76, 94
3, 710630, Note_on_c, 1, 74, 96
3, 710682, Note_on_c, 1, 76, 0
3, 710810, Note_on_c, 1, 74, 0
3, 710870, Note_on_c, 1, 72, 100
3, 711110, Note_on_c, 1, 71, 103
3, 711154, Note_on_c, 1, 72, 0
3, 711274, Note_on_c, 1, 71, 0
3, 715190, Note_on_c, 1, 76, 105
3, 717110, Note_on_c, 1, 77, 105
3, 717202, Note_on_c, 1, 76, 0
3, 718954, Note_on_c, 1, 77, 0
3, 719030, Note_on_c, 1, 76, 105
3, 719306, Note_on_c, 1, 76, 0
3, 730550, Note_on_c, 1, 71, 89
3, 732470, Note_on_c, 1, 74, 95
3, 732554, Note_on_c, 1, 71, 0
3, 734306, Note_on_c, 1, 74, 0
3, 734390, Note_on_c, 1, 72, 90
3, 734608, Control_c, 1, 7, 89
3, 734688, Control_c, 1, 7, 86
3, 734708, Control_c, 1, 7, 82
3, 734720, Control_c, 1, 7, 80
3, 734736, Control_c, 1, 7, 74
3, 734748, Control_c, 1, 7, 68
3, 734754, Note_on_c, 1, 72, 0
3, 734764, Control_c, 1, 7, 63
3, 734776, Control_c, 1, 7, 53
3, 734792, Control_c, 1, 7, 37
3, 734804, Control_c, 1, 7, 18
3, 734820, Control_c, 1, 7, 11
3, 734840, Control_c, 1, 7, 8
3, 735176, Control_c, 1, 7, 89
3, 748310, Note_on_c, 1, 76, 97
3, 748978, Note_on_c, 1, 76, 0
3, 749030, Note_on_c, 1, 72, 99
3, 749270, Note_on_c, 1, 74, 106
3, 749362, Note_on_c, 1, 72, 0
3, 749474, Note_on_c, 1, 74, 0
3, 749510, Note_on_c, 1, 71, 95
3, 749698, Note_on_c, 1, 71, 0
3, 757430, Note_on_c, 1, 67, 80
3, 760706, Note_on_c, 1, 67, 0
3, 760790, Note_on_c, 1, 74, 100
3, 760986, Note_on_c, 1, 74, 0
3, 761030, Note_on_c, 1, 71, 90
3, 761226, Note_on_c, 1, 71, 0
3, 773750, Note_on_c, 1, 76, 105
3, 774642, Note_on_c, 1, 76, 0
3, 774710, Note_on_c, 1, 74, 105
3, 776578, Note_on_c, 1, 74, 0
3, 776630, Note_on_c, 1, 76, 105
3, 777590, Note_on_c, 1, 76, 0
3, 780470, Note_on_c, 1, 67, 90
3, 782338, Note_on_c, 1, 67, 0
3, 782390, Note_on_c, 1, 71, 97
3, 784258, Note_on_c, 1, 71, 0
3, 784310, Note_on_c, 1, 72, 104
3, 784790, Note_on_c, 1, 72, 0
3, 784790, Note_on_c, 1, 67, 123
3, 785750, Note_on_c, 1, 71, 100
3, 785826, Note_on_c, 1, 67, 0
3, 786114, Note_on_c, 1, 71, 0
3, 786230, Note_on_c, 1, 72, 101
3, 786698, Note_on_c, 1, 72, 0
3, 786710, Note_on_c, 1, 67, 120
3, 787670, Note_on_c, 1, 71, 97
3, 787770, Note_on_c, 1, 67, 0
3, 788050, Note_on_c, 1, 71, 0
3, 788150, Note_on_c, 1, 72, 104
3, 788630, Note_on_c, 1, 72, 0
3, 788630, Note_on_c, 1, 67, 116
3, 788870, Note_on_c, 1, 74, 116
3, 788966, Note_on_c, 1, 74, 0
3, 789110, Note_on_c, 1, 72, 108
3, 789590, Note_on_c, 1, 71, 99
3, 789674, Note_on_c, 1, 72, 0
3, 789682, Note_on_c, 1, 67, 0
3, 790002, Note_on_c, 1, 71, 0
3, 826550, Note_on_c, 1, 64, 105
3, 826930, Note_on_c, 1, 64, 0
3, 827030, Note_on_c, 1, 64, 105
3, 827194, Note_on_c, 1, 64, 0
3, 827270, Note_on_c, 1, 64, 105
3, 827426, Note_on_c, 1, 64, 0
3, 827510, Note_on_c, 1, 64, 105
3, 827922, Note_on_c, 1, 64, 0
3, 827990, Note_on_c, 1, 64, 105
3, 828410, Note_on_c, 1, 64, 0
3, 828470, Note_on_c, 1, 64, 105
3, 828874, Note_on_c, 1, 64, 0
3, 828950, Note_on_c, 1, 72, 105
3, 829130, Note_on_c, 1, 72, 0
3, 829190, Note_on_c, 1, 72, 105
3, 829378, Note_on_c, 1, 72, 0
3, 829430, Note_on_c, 1, 72, 105
3, 829810, Note_on_c, 1, 72, 0
3, 829910, Note_on_c, 1, 72, 105
3, 830390, Note_on_c, 1, 72, 0
3, 882230, Note_on_c, 1, 73, 90
3, 883190, Note_on_c, 1, 73, 0
3, 884150, Note_on_c, 1, 74, 90
3, 885110, Note_on_c, 1, 74, 0
3, 886070, Note_on_c, 1, 79, 90
3, 887030, Note_on_c, 1, 79, 0
3, 887990, Note_on_c, 1, 78, 70
3, 888470, Note_on_c, 1, 78, 0
3, 891830, Note_on_c, 1, 74, 105
3, 894710, Note_on_c, 1, 74, 0
3, 894710, Note_on_c, 1, 72, 105
3, 895670, Note_on_c, 1, 72, 0
3, 895670, Note_on_c, 1, 71, 105
3, 896150, Note_on_c, 1, 71, 0
3, 926870, Note_on_c, 1, 71, 70
3, 927350, Note_on_c, 1, 74, 70
3, 927422, Note_on_c, 1, 71, 0
3, 927926, Note_on_c, 1, 74, 0
3, 928310, Note_on_c, 1, 78, 70
3, 929342, Note_on_c, 1, 78, 0
3, 929750, Note_on_c, 1, 74, 70
3, 929990, Note_on_c, 1, 74, 0
3, 930230, Note_on_c, 1, 78, 70
3, 931262, Note_on_c, 1, 78, 0
3, 931670, Note_on_c, 1, 79, 70
3, 932102, Note_on_c, 1, 79, 0
3, 932150, Note_on_c, 1, 79, 70
3, 933110, Note_on_c, 1, 78, 70
3, 933230, Note_on_c, 1, 79, 0
3, 933590, Note_on_c, 1, 78, 0
3, 934550, Note_on_c, 1, 78, 70
3, 934982, Note_on_c, 1, 78, 0
3, 935030, Note_on_c, 1, 78, 70
3, 935438, Note_on_c, 1, 78, 0
3, 935510, Note_on_c, 1, 78, 70
3, 935942, Note_on_c, 1, 78, 0
3, 935990, Note_on_c, 1, 79, 70
3, 936710, Note_on_c, 1, 81, 70
3, 936758, Note_on_c, 1, 79, 0
3, 936950, Note_on_c, 1, 81, 0
3, 936950, Note_on_c, 1, 78, 70
3, 937346, Note_on_c, 1, 78, 0
3, 937430, Note_on_c, 1, 78, 70
3, 937658, Note_on_c, 1, 78, 0
3, 937910, Note_on_c, 1, 79, 70
3, 938630, Note_on_c, 1, 81, 70
3, 938690, Note_on_c, 1, 79, 0
3, 938870, Note_on_c, 1, 81, 0
3, 938870, Note_on_c, 1, 78, 70
3, 939266, Note_on_c, 1, 78, 0
3, 939350, Note_on_c, 1, 81, 70
3, 939746, Note_on_c, 1, 81, 0
3, 939830, Note_on_c, 1, 81, 70
3, 940790, Note_on_c, 1, 79, 70
3, 940874, Note_on_c, 1, 81, 0
3, 941270, Note_on_c, 1, 79, 0
3, 1009910, Note_on_c, 1, 81, 70
3, 1010870, Note_on_c, 1, 81, 0
3, 1010870, Note_on_c, 1, 79, 70
3, 1011830, Note_on_c, 1, 79, 0
3, 1011830, Note_on_c, 1, 72, 70
3, 1012790, Note_on_c, 1, 72, 0
3, 1012790, Note_on_c, 1, 71, 70
3, 1013270, Note_on_c, 1, 71, 0
3, 1023350, Note_on_c, 1, 71, 70
3, 1023590, Note_on_c, 1, 71, 0
3, 1023590, Note_on_c, 1, 74, 70
3, 1023830, Note_on_c, 1, 74, 0
3, 1023830, Note_on_c, 1, 73, 70
3, 1024070, Note_on_c, 1, 73, 0
3, 1024070, Note_on_c, 1, 76, 70
3, 1024310, Note_on_c, 1, 76, 0
3, 1024310, Note_on_c, 1, 74, 70
3, 1024790, Note_on_c, 1, 74, 0
3, 1027190, Note_on_c, 1, 71, 70
3, 1027430, Note_on_c, 1, 71, 0
3, 1027430, Note_on_c, 1, 74, 70
3, 1027670, Note_on_c, 1, 74, 0
3, 1027670, Note_on_c, 1, 73, 70
3, 1027910, Note_on_c, 1, 73, 0
3, 1027910, Note_on_c, 1, 76, 70
3, 1028150, Note_on_c, 1, 76, 0
3, 1028150, Note_on_c, 1, 74, 70
3, 1028630, Note_on_c, 1, 74, 0
3, 1044470, Note_on_c, 1, 72, 105
3, 1044950, Note_on_c, 1, 72, 0
3, 1044950, Note_on_c, 1, 72, 105
3, 1045430, Note_on_c, 1, 72, 0
3, 1045430, Note_on_c, 1, 72, 105
3, 1046390, Note_on_c, 1, 72, 0
3, 1046390, Note_on_c, 1, 71, 105
3, 1047350, Note_on_c, 1, 71, 0
3, 1047350, Note_on_c, 1, 72, 105
3, 1047830, Note_on_c, 1, 72, 0
3, 1052150, Note_on_c, 1, 67, 105
3, 1052630, Note_on_c, 1, 67, 0
3, 1052630, Note_on_c, 1, 67, 105
3, 1053110, Note_on_c, 1, 67, 0
3, 1053110, Note_on_c, 1, 67, 105
3, 1054070, Note_on_c, 1, 67, 0
3, 1054070, Note_on_c, 1, 72, 105
3, 1054310, Note_on_c, 1, 72, 0
3, 1054310, Note_on_c, 1, 71, 105
3, 1054550, Note_on_c, 1, 71, 0
3, 1054550, Note_on_c, 1, 69, 105
3, 1054790, Note_on_c, 1, 69, 0
3, 1054790, Note_on_c, 1, 71, 105
3, 1055030, Note_on_c, 1, 71, 0
3, 1055030, Note_on_c, 1, 72, 105
3, 1055510, Note_on_c, 1, 72, 0
3, 1055510, Note_on_c, 1, 72, 105
3, 1055990, Note_on_c, 1, 72, 0
3, 1055990, Note_on_c, 1, 71, 105
3, 1056950, Note_on_c, 1, 71, 0
3, 1056950, Note_on_c, 1, 67, 105
3, 1057430, Note_on_c, 1, 67, 0
3, 1057430, Note_on_c, 1, 72, 105
3, 1057910, Note_on_c, 1, 72, 0
3, 1057910, Note_on_c, 1, 76, 105
3, 1058150, Note_on_c, 1, 76, 0
3, 1058150, Note_on_c, 1, 74, 105
3, 1058390, Note_on_c, 1, 74, 0
3, 1058390, Note_on_c, 1, 72, 105
3, 1058630, Note_on_c, 1, 72, 0
3, 1058630, Note_on_c, 1, 71, 105
3, 1058870, Note_on_c, 1, 71, 0
3, 1093430, Note_on_c, 1, 69, 70
3, 1099190, Note_on_c, 1, 69, 0
3, 1099190, Note_on_c, 1, 70, 70
3, 1100150, Note_on_c, 1, 70, 0
3, 1100150, Note_on_c, 1, 69, 70
3, 1101110, Note_on_c, 1, 69, 0
3, 1106870, Note_on_c, 1, 72, 70
3, 1108790, Note_on_c, 1, 72, 0
3, 1108790, Note_on_c, 1, 76, 70
3, 1110710, Note_on_c, 1, 76, 0
3, 1110710, Note_on_c, 1, 77, 70
3, 1111190, Note_on_c, 1, 77, 0
3, 1111190, Note_on_c, 1, 72, 70
3, 1112150, Note_on_c, 1, 72, 0
3, 1112150, Note_on_c, 1, 76, 70
3, 1112630, Note_on_c, 1, 76, 0
3, 1112630, Note_on_c, 1, 77, 70
3, 1113110, Note_on_c, 1, 77, 0
3, 1113110, Note_on_c, 1, 72, 70
3, 1114070, Note_on_c, 1, 72, 0
3, 1114070, Note_on_c, 1, 76, 70
3, 1114550, Note_on_c, 1, 76, 0
3, 1114550, Note_on_c, 1, 77, 70
3, 1115030, Note_on_c, 1, 77, 0
3, 1115030, Note_on_c, 1, 72, 70
3, 1115990, Note_on_c, 1, 72, 0
3, 1115990, Note_on_c, 1, 76, 70
3, 1116470, Note_on_c, 1, 76, 0
3, 1174070, Note_on_c, 1, 71, 70
3, 1175030, Note_on_c, 1, 71, 0
3, 1175030, Note_on_c, 1, 72, 70
3, 1175990, Note_on_c, 1, 72, 0
3, 1175990, Note_on_c, 1, 71, 70
3, 1176950, Note_on_c, 1, 71, 0
3, 1176950, Note_on_c, 1, 72, 70
3, 1177910, Note_on_c, 1, 72, 0
3, 1177910, Note_on_c, 1, 71, 70
3, 1178870, Note_on_c, 1, 71, 0
3, 1178870, Note_on_c, 1, 73, 70
3, 1179830, Note_on_c, 1, 73, 0
3, 1179830, Note_on_c, 1, 74, 70
3, 1180790, Note_on_c, 1, 74, 0
3, 1180790, Note_on_c, 1, 71, 70
3, 1181750, Note_on_c, 1, 71, 0
3, 1181750, Note_on_c, 1, 72, 70
3, 1182230, Note_on_c, 1, 72, 0
3, 1210550, Note_on_c, 1, 78, 90
3, 1211510, Note_on_c, 1, 78, 0
3, 1212470, Note_on_c, 1, 79, 90
3, 1213430, Note_on_c, 1, 79, 0
3, 1214390, Note_on_c, 1, 72, 90
3, 1215350, Note_on_c, 1, 72, 0
3, 1216310, Note_on_c, 1, 71, 70
3, 1216790, Note_on_c, 1, 71, 0
3, 1223030, Note_on_c, 1, 77, 90
3, 1223990, Note_on_c, 1, 77, 0
3, 1223990, Note_on_c, 1, 76, 90
3, 1224470, Note_on_c, 1, 76, 0
3, 1281590, Note_on_c, 1, 77, 70
3, 1282070, Note_on_c, 1, 77, 0
3, 1282070, Note_on_c, 1, 77, 70
3, 1282310, Note_on_c, 1, 77, 0
3, 1282310, Note_on_c, 1, 77, 70
3, 1282550, Note_on_c, 1, 77, 0
3, 1282550, Note_on_c, 1, 77, 70
3, 1283030, Note_on_c, 1, 77, 0
3, 1283030, Note_on_c, 1, 77, 70
3, 1283510, Note_on_c, 1, 77, 0
3, 1283510, Note_on_c, 1, 76, 70
3, 1283990, Note_on_c, 1, 76, 0
3, 1295030, Note_on_c, 1, 71, 70
3, 1296950, Note_on_c, 1, 71, 0
3, 1296950, Note_on_c, 1, 74, 70
3, 1298870, Note_on_c, 1, 74, 0
3, 1298870, Note_on_c, 1, 72, 70
3, 1299350, Note_on_c, 1, 72, 0
3, 1364150, Note_on_c, 1, 76, 90
3, 1367990, Note_on_c, 1, 76, 0
3, 1367990, Note_on_c, 1, 77, 105
3, 1369910, Note_on_c, 1, 77, 0
3, 1370870, Note_on_c, 1, 72, 105
3, 1371830, Note_on_c, 1, 72, 0
3, 1371830, Note_on_c, 1, 72, 105
3, 1372790, Note_on_c, 1, 72, 0
3, 1379510, Note_on_c, 1, 76, 105
3, 1381430, Note_on_c, 1, 76, 0
3, 1381430, Note_on_c, 1, 77, 105
3, 1383350, Note_on_c, 1, 77, 0
3, 1383350, Note_on_c, 1, 76, 105
3, 1385270, Note_on_c, 1, 76, 0
3, 1385270, Note_on_c, 1, 74, 105
3, 1387190, Note_on_c, 1, 74, 0
3, 1387190, Note_on_c, 1, 72, 105
3, 1388150, Note_on_c, 1, 72, 0
3, 1417910, Note_on_c, 1, 67, 70
3, 1419830, Note_on_c, 1, 67, 0
3, 1419830, Note_on_c, 1, 71, 70
3, 1421750, Note_on_c, 1, 71, 0
3, 1421750, Note_on_c, 1, 72, 70
3, 1422230, Note_on_c, 1, 72, 0
3, 1422230, Note_on_c, 1, 67, 70
3, 1423190, Note_on_c, 1, 67, 0
3, 1423190, Note_on_c, 1, 71, 70
3, 1423670, Note_on_c, 1, 71, 0
3, 1423670, Note_on_c, 1, 72, 70
3, 1424150, Note_on_c, 1, 72, 0
3, 1424150, Note_on_c, 1, 67, 70
3, 1425110, Note_on_c, 1, 67, 0
3, 1425110, Note_on_c, 1, 71, 70
3, 1425590, Note_on_c, 1, 71, 0
3, 1425590, Note_on_c, 1, 72, 70
3, 1426070, Note_on_c, 1, 72, 0
3, 1426070, Note_on_c, 1, 67, 70
3, 1427030, Note_on_c, 1, 67, 0
3, 1427270, Note_on_c, 1, 71, 70
3, 1427510, Note_on_c, 1, 71, 0
3, 1428950, Note_on_c, 1, 71, 105
3, 1429430, Note_on_c, 1, 71, 0
3, 1429430, Note_on_c, 1, 72, 105
3, 1430390, Note_on_c, 1, 72, 0
3, 1430870, Note_on_c, 1, 71, 105
3, 1431350, Note_on_c, 1, 71, 0
3, 1431350, Note_on_c, 1, 72, 105
3, 1432310, Note_on_c, 1, 72, 0
3, 1432790, Note_on_c, 1, 71, 105
3, 1433270, Note_on_c, 1, 71, 0
3, 1433270, Note_on_c, 1, 72, 105
3, 1434230, Note_on_c, 1, 72, 0
3, 1434230, Note_on_c, 1, 76, 105
3, 1435190, Note_on_c, 1, 76, 0
3, 1435190, Note_on_c, 1, 76, 105
3, 1436150, Note_on_c, 1, 76, 0
3, 1436150, End_track
4, 0, Start_track
4, 0, MIDI_port, 0
4, 0, Title_t, "Corni in C"
4, 0, Control_c, 2, 0, 0
4, 0, Control_c, 2, 32, 1
4, 0, Program_c, 2, 60
4, 0, Control_c, 2, 7, 100
4, 0, Control_c, 2, 10, 80
4, 1920, Note_on_c, 2, 60, 105
4, 2604, Note_on_c, 2, 60, 0
4, 2640, Note_on_c, 2, 55, 105
4, 2868, Note_on_c, 2, 55, 0
4, 2880, Note_on_c, 2, 52, 105
4, 3108, Note_on_c, 2, 52, 0
4, 3120, Note_on_c, 2, 48, 105
4, 3348, Note_on_c, 2, 48, 0
4, 3360, Note_on_c, 2, 52, 105
4, 3588, Note_on_c, 2, 52, 0
4, 3600, Note_on_c, 2, 55, 105
4, 3828, Note_on_c, 2, 55, 0
4, 3840, Note_on_c, 2, 60, 105
4, 4524, Note_on_c, 2, 60, 0
4, 4560, Note_on_c, 2, 55, 105
4, 4788, Note_on_c, 2, 55, 0
4, 4800, Note_on_c, 2, 52, 105
4, 5028, Note_on_c, 2, 52, 0
4, 5040, Note_on_c, 2, 48, 105
4, 5268, Note_on_c, 2, 48, 0
4, 5280, Note_on_c, 2, 52, 105
4, 5508, Note_on_c, 2, 52, 0
4, 5520, Note_on_c, 2, 55, 105
4, 5748, Note_on_c, 2, 55, 0
4, 5760, Note_on_c, 2, 60, 105
4, 6216, Note_on_c, 2, 60, 0
4, 7680, Note_on_c, 2, 62, 92
4, 8160, Note_on_c, 2, 62, 0
4, 9600, Note_on_c, 2, 52, 89
4, 9600, Note_on_c, 2, 64, 89
4, 10080, Note_on_c, 2, 64, 0
4, 10080, Note_on_c, 2, 52, 0
4, 13440, Note_on_c, 2, 48, 105
4, 13440, Note_on_c, 2, 60, 105
4, 16739, Note_on_c, 2, 60, 0
4, 16739, Note_on_c, 2, 48, 0
4, 16800, Note_on_c, 2, 48, 105
4, 16800, Note_on_c, 2, 60, 105
4, 17089, Note_on_c, 2, 48, 0
4, 17099, Note_on_c, 2, 60, 0
4, 17160, Note_on_c, 2, 48, 105
4, 17160, Note_on_c, 2, 60, 105
4, 17258, Note_on_c, 2, 60, 0
4, 17259, Note_on_c, 2, 48, 0
4, 17280, Note_on_c, 2, 48, 70
4, 17280, Note_on_c, 2, 60, 70
4, 20509, Note_on_c, 2, 48, 0
4, 20519, Note_on_c, 2, 60, 0
4, 20640, Note_on_c, 2, 48, 105
4, 20640, Note_on_c, 2, 60, 105
4, 20919, Note_on_c, 2, 48, 0
4, 20929, Note_on_c, 2, 60, 0
4, 21000, Note_on_c, 2, 48, 105
4, 21000, Note_on_c, 2, 60, 105
4, 21109, Note_on_c, 2, 60, 0
4, 21109, Note_on_c, 2, 48, 0
4, 21120, Note_on_c, 2, 55, 105
4, 21120, Note_on_c, 2, 62, 105
4, 23040, Note_on_c, 2, 62, 0
4, 23040, Note_on_c, 2, 55, 0
4, 23040, Note_on_c, 2, 60, 105
4, 23040, Note_on_c, 2, 64, 105
4, 24960, Note_on_c, 2, 64, 0
4, 24960, Note_on_c, 2, 60, 0
4, 24960, Note_on_c, 2, 62, 105
4, 24960, Note_on_c, 2, 65, 105
4, 25920, Note_on_c, 2, 65, 0
4, 25920, Note_on_c, 2, 62, 0
4, 25920, Note_on_c, 2, 60, 105
4, 25920, Note_on_c, 2, 64, 105
4, 26400, Note_on_c, 2, 64, 0
4, 26400, Note_on_c, 2, 60, 0
4, 26400, Note_on_c, 2, 55, 105
4, 26400, Note_on_c, 2, 62, 105
4, 26880, Note_on_c, 2, 62, 0
4, 26880, Note_on_c, 2, 55, 0
4, 26880, Note_on_c, 2, 48, 70
4, 26880, Note_on_c, 2, 60, 70
4, 27072, Note_on_c, 2, 60, 0
4, 27072, Note_on_c, 2, 48, 0
4, 27120, Note_on_c, 2, 62, 70
4, 27312, Note_on_c, 2, 62, 0
4, 27360, Note_on_c, 2, 52, 70
4, 27360, Note_on_c, 2, 64, 70
4, 27552, Note_on_c, 2, 64, 0
4, 27552, Note_on_c, 2, 52, 0
4, 27600, Note_on_c, 2, 65, 70
4, 27792, Note_on_c, 2, 65, 0
4, 27840, Note_on_c, 2, 55, 70
4, 27840, Note_on_c, 2, 67, 70
4, 28320, Note_on_c, 2, 67, 0
4, 28320, Note_on_c, 2, 55, 0
4, 28800, Note_on_c, 2, 55, 105
4, 28800, Note_on_c, 2, 62, 105
4, 29760, Note_on_c, 2, 62, 0
4, 29760, Note_on_c, 2, 55, 0
4, 29760, Note_on_c, 2, 55, 105
4, 29760, Note_on_c, 2, 62, 105
4, 30240, Note_on_c, 2, 62, 0
4, 30240, Note_on_c, 2, 55, 0
4, 30240, Note_on_c, 2, 55, 105
4, 30240, Note_on_c, 2, 62, 105
4, 30720, Note_on_c, 2, 62, 0
4, 30720, Note_on_c, 2, 55, 0
4, 30720, Note_on_c, 2, 60, 105
4, 30720, Note_on_c, 2, 64, 105
4, 31680, Note_on_c, 2, 64, 0
4, 31680, Note_on_c, 2, 60, 0
4, 31680, Note_on_c, 2, 60, 105
4, 31680, Note_on_c, 2, 64, 105
4, 32160, Note_on_c, 2, 64, 0
4, 32160, Note_on_c, 2, 60, 0
4, 32160, Note_on_c, 2, 60, 105
4, 32160, Note_on_c, 2, 64, 105
4, 32640, Note_on_c, 2, 64, 0
4, 32640, Note_on_c, 2, 60, 0
4, 32640, Note_on_c, 2, 62, 105
4, 32640, Note_on_c, 2, 60, 105
4, 32880, Note_on_c, 2, 62, 0
4, 32880, Note_on_c, 2, 64, 105
4, 33120, Note_on_c, 2, 64, 0
4, 33120, Note_on_c, 2, 65, 105
4, 33360, Note_on_c, 2, 65, 0
4, 33360, Note_on_c, 2, 67, 105
4, 33600, Note_on_c, 2, 67, 0
4, 33600, Note_on_c, 2, 65, 105
4, 34080, Note_on_c, 2, 65, 0
4, 34080, Note_on_c, 2, 60, 0
4, 34080, Note_on_c, 2, 62, 105
4, 34080, Note_on_c, 2, 60, 105
4, 34560, Note_on_c, 2, 60, 0
4, 34560, Note_on_c, 2, 62, 0
4, 34560, Note_on_c, 2, 55, 105
4, 34560, Note_on_c, 2, 62, 105
4, 35040, Note_on_c, 2, 62, 0
4, 35040, Note_on_c, 2, 55, 0
4, 35280, Note_on_c, 2, 55, 105
4, 35280, Note_on_c, 2, 62, 105
4, 35520, Note_on_c, 2, 62, 0
4, 35520, Note_on_c, 2, 55, 0
4, 35520, Note_on_c, 2, 60, 105
4, 35520, Note_on_c, 2, 64, 105
4, 35760, Note_on_c, 2, 64, 0
4, 35760, Note_on_c, 2, 60, 0
4, 35760, Note_on_c, 2, 60, 105
4, 35760, Note_on_c, 2, 64, 105
4, 36000, Note_on_c, 2, 64, 0
4, 36000, Note_on_c, 2, 60, 0
4, 36000, Note_on_c, 2, 60, 105
4, 36000, Note_on_c, 2, 64, 105
4, 36240, Note_on_c, 2, 64, 0
4, 36240, Note_on_c, 2, 60, 0
4, 36240, Note_on_c, 2, 60, 105
4, 36240, Note_on_c, 2, 64, 105
4, 36480, Note_on_c, 2, 64, 0
4, 36480, Note_on_c, 2, 60, 0
4, 36480, Note_on_c, 2, 55, 105
4, 36480, Note_on_c, 2, 62, 105
4, 36960, Note_on_c, 2, 62, 0
4, 36960, Note_on_c, 2, 55, 0
4, 37200, Note_on_c, 2, 55, 105
4, 37200, Note_on_c, 2, 62, 105
4, 37440, Note_on_c, 2, 62, 0
4, 37440, Note_on_c, 2, 55, 0
4, 37440, Note_on_c, 2, 60, 105
4, 37440, Note_on_c, 2, 64, 105
4, 37680, Note_on_c, 2, 64, 0
4, 37680, Note_on_c, 2, 60, 0
4, 37680, Note_on_c, 2, 60, 105
4, 37680, Note_on_c, 2, 64, 105
4, 37920, Note_on_c, 2, 64, 0
4, 37920, Note_on_c, 2, 60, 0
4, 37920, Note_on_c, 2, 60, 105
4, 37920, Note_on_c, 2, 64, 105
4, 38160, Note_on_c, 2, 64, 0
4, 38160, Note_on_c, 2, 60, 0
4, 38160, Note_on_c, 2, 60, 105
4, 38160, Note_on_c, 2, 64, 105
4, 38400, Note_on_c, 2, 64, 0
4, 38400, Note_on_c, 2, 60, 0
4, 38400, Note_on_c, 2, 55, 105
4, 38400, Note_on_c, 2, 62, 105
4, 38880, Note_on_c, 2, 62, 0
4, 38880, Note_on_c, 2, 55, 0
4, 38880, Note_on_c, 2, 55, 105
4, 38880, Note_on_c, 2, 67, 105
4, 39360, Note_on_c, 2, 67, 0
4, 39360, Note_on_c, 2, 55, 0
4, 39360, Note_on_c, 2, 55, 105
4, 39840, Note_on_c, 2, 55, 0
4, 40320, Note_on_c, 2, 60, 70
4, 42240, Note_on_c, 2, 60, 0
4, 42240, Note_on_c, 2, 55, 70
4, 44160, Note_on_c, 2, 55, 0
4, 44160, Note_on_c, 2, 48, 70
4, 44640, Note_on_c, 2, 48, 0
4, 51840, Note_on_c, 2, 48, 70
4, 51840, Note_on_c, 2, 60, 70
4, 58080, Note_on_c, 2, 60, 0
4, 58080, Note_on_c, 2, 48, 0
4, 61440, Note_on_c, 2, 64, 95
4, 61440, Note_on_c, 2, 67, 95
4, 61920, Note_on_c, 2, 67, 0
4, 61920, Note_on_c, 2, 64, 0
4, 61920, Note_on_c, 2, 64, 95
4, 61920, Note_on_c, 2, 67, 95
4, 62880, Note_on_c, 2, 67, 0
4, 62880, Note_on_c, 2, 64, 0
4, 62880, Note_on_c, 2, 62, 96
4, 62880, Note_on_c, 2, 65, 96
4, 63120, Note_on_c, 2, 65, 0
4, 63120, Note_on_c, 2, 62, 0
4, 63120, Note_on_c, 2, 60, 97
4, 63120, Note_on_c, 2, 64, 97
4, 63360, Note_on_c, 2, 64, 0
4, 63360, Note_on_c, 2, 60, 0
4, 63360, Note_on_c, 2, 64, 97
4, 63360, Note_on_c, 2, 67, 97
4, 63720, Note_on_c, 2, 67, 0
4, 63720, Note_on_c, 2, 64, 0
4, 63720, Note_on_c, 2, 62, 97
4, 63720, Note_on_c, 2, 65, 97
4, 63840, Note_on_c, 2, 65, 0
4, 63840, Note_on_c, 2, 62, 0
4, 63840, Note_on_c, 2, 60, 97
4, 63840, Note_on_c, 2, 64, 97
4, 64800, Note_on_c, 2, 64, 0
4, 64800, Note_on_c, 2, 60, 0
4, 64800, Note_on_c, 2, 55, 105
4, 64800, Note_on_c, 2, 62, 105
4, 65280, Note_on_c, 2, 62, 0
4, 65280, Note_on_c, 2, 55, 0
4, 65280, Note_on_c, 2, 52, 105
4, 65280, Note_on_c, 2, 60, 105
4, 65760, Note_on_c, 2, 60, 0
4, 65760, Note_on_c, 2, 52, 0
4, 66240, Note_on_c, 2, 60, 70
4, 66240, Note_on_c, 2, 64, 70
4, 66480, Note_on_c, 2, 64, 0
4, 66480, Note_on_c, 2, 60, 0
4, 66720, Note_on_c, 2, 55, 70
4, 66720, Note_on_c, 2, 62, 70
4, 66960, Note_on_c, 2, 62, 0
4, 66960, Note_on_c, 2, 55, 0
4, 67200, Note_on_c, 2, 52, 70
4, 67200, Note_on_c, 2, 60, 70
4, 67680, Note_on_c, 2, 60, 0
4, 67680, Note_on_c, 2, 52, 0
4, 68160, Note_on_c, 2, 60, 70
4, 68160, Note_on_c, 2, 64, 70
4, 68400, Note_on_c, 2, 64, 0
4, 68400, Note_on_c, 2, 60, 0
4, 68640, Note_on_c, 2, 55, 70
4, 68640, Note_on_c, 2, 62, 70
4, 68880, Note_on_c, 2, 62, 0
4, 68880, Note_on_c, 2, 55, 0
4, 69120, Note_on_c, 2, 52, 70
4, 69120, Note_on_c, 2, 60, 70
4, 69600, Note_on_c, 2, 60, 0
4, 69600, Note_on_c, 2, 52, 0
4, 70080, Note_on_c, 2, 60, 70
4, 70080, Note_on_c, 2, 64, 70
4, 70320, Note_on_c, 2, 64, 0
4, 70320, Note_on_c, 2, 60, 0
4, 70560, Note_on_c, 2, 55, 70
4, 70560, Note_on_c, 2, 62, 70
4, 70800, Note_on_c, 2, 62, 0
4, 70800, Note_on_c, 2, 55, 0
4, 71040, Note_on_c, 2, 52, 70
4, 71040, Note_on_c, 2, 60, 70
4, 71280, Note_on_c, 2, 60, 0
4, 71280, Note_on_c, 2, 52, 0
4, 71520, Note_on_c, 2, 55, 70
4, 71520, Note_on_c, 2, 62, 70
4, 71760, Note_on_c, 2, 62, 0
4, 71760, Note_on_c, 2, 55, 0
4, 72000, Note_on_c, 2, 60, 70
4, 72000, Note_on_c, 2, 64, 70
4, 72240, Note_on_c, 2, 64, 0
4, 72240, Note_on_c, 2, 60, 0
4, 72480, Note_on_c, 2, 55, 70
4, 72480, Note_on_c, 2, 62, 70
4, 72720, Note_on_c, 2, 62, 0
4, 72720, Note_on_c, 2, 55, 0
4, 72960, Note_on_c, 2, 48, 105
4, 72960, Note_on_c, 2, 60, 105
4, 73440, Note_on_c, 2, 60, 0
4, 73440, Note_on_c, 2, 48, 0
4, 73440, Note_on_c, 2, 60, 105
4, 73680, Note_on_c, 2, 60, 0
4, 73680, Note_on_c, 2, 60, 105
4, 73920, Note_on_c, 2, 60, 0
4, 73920, Note_on_c, 2, 60, 105
4, 73920, Note_on_c, 2, 62, 105
4, 74400, Note_on_c, 2, 62, 0
4, 74400, Note_on_c, 2, 60, 0
4, 74400, Note_on_c, 2, 60, 105
4, 74400, Note_on_c, 2, 62, 105
4, 74640, Note_on_c, 2, 62, 0
4, 74640, Note_on_c, 2, 60, 0
4, 74640, Note_on_c, 2, 60, 105
4, 74640, Note_on_c, 2, 62, 105
4, 74880, Note_on_c, 2, 62, 0
4, 74880, Note_on_c, 2, 60, 0
4, 74880, Note_on_c, 2, 60, 105
4, 74880, Note_on_c, 2, 64, 105
4, 75360, Note_on_c, 2, 64, 0
4, 75360, Note_on_c, 2, 60, 0
4, 75360, Note_on_c, 2, 64, 105
4, 75360, Note_on_c, 2, 60, 105
4, 75600, Note_on_c, 2, 60, 0
4, 75600, Note_on_c, 2, 64, 0
4, 75600, Note_on_c, 2, 60, 105
4, 75600, Note_on_c, 2, 64, 105
4, 75840, Note_on_c, 2, 64, 0
4, 75840, Note_on_c, 2, 60, 0
4, 75840, Note_on_c, 2, 64, 105
4, 75840, Note_on_c, 2, 67, 105
4, 76080, Note_on_c, 2, 67, 0
4, 76080, Note_on_c, 2, 64, 0
4, 76080, Note_on_c, 2, 62, 105
4, 76080, Note_on_c, 2, 65, 105
4, 76320, Note_on_c, 2, 65, 0
4, 76320, Note_on_c, 2, 62, 0
4, 76320, Note_on_c, 2, 60, 105
4, 76320, Note_on_c, 2, 64, 105
4, 76416, Note_on_c, 2, 64, 0
4, 76416, Note_on_c, 2, 60, 0
4, 76560, Note_on_c, 2, 55, 105
4, 76560, Note_on_c, 2, 62, 105
4, 76656, Note_on_c, 2, 62, 0
4, 76656, Note_on_c, 2, 55, 0
4, 76800, Note_on_c, 2, 52, 105
4, 76800, Note_on_c, 2, 60, 105
4, 77224, Note_on_c, 2, 60, 0
4, 77224, Note_on_c, 2, 52, 0
4, 77280, Note_on_c, 2, 52, 105
4, 77280, Note_on_c, 2, 60, 105
4, 77599, Note_on_c, 2, 60, 0
4, 77599, Note_on_c, 2, 52, 0
4, 77640, Note_on_c, 2, 52, 105
4, 77640, Note_on_c, 2, 60, 105
4, 77724, Note_on_c, 2, 52, 0
4, 77729, Note_on_c, 2, 60, 0
4, 77760, Note_on_c, 2, 52, 105
4, 77760, Note_on_c, 2, 60, 105
4, 78189, Note_on_c, 2, 60, 0
4, 78204, Note_on_c, 2, 52, 0
4, 78240, Note_on_c, 2, 60, 105
4, 78240, Note_on_c, 2, 64, 105
4, 78549, Note_on_c, 2, 64, 0
4, 78559, Note_on_c, 2, 60, 0
4, 78600, Note_on_c, 2, 60, 105
4, 78600, Note_on_c, 2, 64, 105
4, 78684, Note_on_c, 2, 64, 0
4, 78684, Note_on_c, 2, 60, 0
4, 78720, Note_on_c, 2, 60, 105
4, 78720, Note_on_c, 2, 64, 105
4, 79159, Note_on_c, 2, 64, 0
4, 79164, Note_on_c, 2, 60, 0
4, 79200, Note_on_c, 2, 64, 105
4, 79200, Note_on_c, 2, 67, 105
4, 79504, Note_on_c, 2, 67, 0
4, 79524, Note_on_c, 2, 64, 0
4, 79560, Note_on_c, 2, 64, 105
4, 79560, Note_on_c, 2, 67, 105
4, 79644, Note_on_c, 2, 67, 0
4, 79649, Note_on_c, 2, 64, 0
4, 79680, Note_on_c, 2, 64, 105
4, 79680, Note_on_c, 2, 67, 105
4, 80109, Note_on_c, 2, 64, 0
4, 80160, Note_on_c, 2, 67, 0
4, 80160, Note_on_c, 2, 60, 105
4, 80160, Note_on_c, 2, 64, 105
4, 80469, Note_on_c, 2, 60, 0
4, 80489, Note_on_c, 2, 64, 0
4, 80520, Note_on_c, 2, 60, 105
4, 80520, Note_on_c, 2, 64, 105
4, 80609, Note_on_c, 2, 60, 0
4, 80624, Note_on_c, 2, 64, 0
4, 80640, Note_on_c, 2, 60, 105
4, 80640, Note_on_c, 2, 64, 105
4, 81120, Note_on_c, 2, 64, 0
4, 81120, Note_on_c, 2, 60, 0
4, 82560, Note_on_c, 2, 55, 70
4, 82560, Note_on_c, 2, 67, 70
4, 83040, Note_on_c, 2, 67, 0
4, 83040, Note_on_c, 2, 55, 0
4, 84480, Note_on_c, 2, 48, 70
4, 84480, Note_on_c, 2, 60, 70
4, 84960, Note_on_c, 2, 60, 0
4, 84960, Note_on_c, 2, 48, 0
4, 165120, Note_on_c, 2, 62, 105
4, 165600, Note_on_c, 2, 62, 0
4, 165840, Note_on_c, 2, 62, 105
4, 166080, Note_on_c, 2, 62, 0
4, 166080, Note_on_c, 2, 55, 105
4, 166080, Note_on_c, 2, 62, 105
4, 166320, Note_on_c, 2, 62, 0
4, 166320, Note_on_c, 2, 55, 0
4, 166320, Note_on_c, 2, 55, 105
4, 166320, Note_on_c, 2, 62, 105
4, 166560, Note_on_c, 2, 62, 0
4, 166560, Note_on_c, 2, 55, 0
4, 166560, Note_on_c, 2, 55, 105
4, 166560, Note_on_c, 2, 62, 105
4, 166800, Note_on_c, 2, 62, 0
4, 166800, Note_on_c, 2, 55, 0
4, 166800, Note_on_c, 2, 55, 105
4, 166800, Note_on_c, 2, 62, 105
4, 167040, Note_on_c, 2, 62, 0
4, 167040, Note_on_c, 2, 55, 0
4, 167040, Note_on_c, 2, 62, 105
4, 167520, Note_on_c, 2, 62, 0
4, 167760, Note_on_c, 2, 62, 105
4, 168000, Note_on_c, 2, 62, 0
4, 168000, Note_on_c, 2, 55, 105
4, 168000, Note_on_c, 2, 62, 105
4, 168240, Note_on_c, 2, 62, 0
4, 168240, Note_on_c, 2, 55, 0
4, 168240, Note_on_c, 2, 55, 105
4, 168240, Note_on_c, 2, 62, 105
4, 168480, Note_on_c, 2, 62, 0
4, 168480, Note_on_c, 2, 55, 0
4, 168480, Note_on_c, 2, 55, 105
4, 168480, Note_on_c, 2, 62, 105
4, 168720, Note_on_c, 2, 62, 0
4, 168720, Note_on_c, 2, 55, 0
4, 168720, Note_on_c, 2, 55, 105
4, 168720, Note_on_c, 2, 62, 105
4, 168960, Note_on_c, 2, 62, 0
4, 168960, Note_on_c, 2, 55, 0
4, 168960, Note_on_c, 2, 62, 105
4, 169440, Note_on_c, 2, 62, 0
4, 169440, Note_on_c, 2, 62, 105
4, 169920, Note_on_c, 2, 62, 0
4, 169920, Note_on_c, 2, 62, 105
4, 170400, Note_on_c, 2, 62, 0
4, 182400, Note_on_c, 2, 55, 70
4, 188160, Note_on_c, 2, 55, 0
4, 230400, Note_on_c, 2, 55, 105
4, 233760, Note_on_c, 2, 55, 0
4, 233760, Note_on_c, 2, 55, 105
4, 234120, Note_on_c, 2, 55, 0
4, 234120, Note_on_c, 2, 55, 105
4, 234240, Note_on_c, 2, 55, 0
4, 234240, Note_on_c, 2, 55, 105
4, 235200, Note_on_c, 2, 55, 0
4, 235200, Note_on_c, 2, 55, 70
4, 237600, Note_on_c, 2, 55, 0
4, 237600, Note_on_c, 2, 55, 105
4, 237600, Note_on_c, 2, 62, 105
4, 237960, Note_on_c, 2, 62, 0
4, 237960, Note_on_c, 2, 55, 0
4, 237960, Note_on_c, 2, 55, 105
4, 237960, Note_on_c, 2, 62, 105
4, 238080, Note_on_c, 2, 62, 0
4, 238080, Note_on_c, 2, 55, 0
4, 238080, Note_on_c, 2, 62, 105
4, 240000, Note_on_c, 2, 62, 0
4, 240000, Note_on_c, 2, 55, 105
4, 240000, Note_on_c, 2, 62, 105
4, 241920, Note_on_c, 2, 62, 0
4, 241920, Note_on_c, 2, 55, 0
4, 241920, Note_on_c, 2, 60, 105
4, 241920, Note_on_c, 2, 64, 105
4, 242880, Note_on_c, 2, 64, 0
4, 242880, Note_on_c, 2, 60, 0
4, 242880, Note_on_c, 2, 62, 105
4, 243360, Note_on_c, 2, 62, 0
4, 243360, Note_on_c, 2, 62, 105
4, 243840, Note_on_c, 2, 62, 0
4, 243840, Note_on_c, 2, 55, 105
4, 243840, Note_on_c, 2, 62, 105
4, 244320, Note_on_c, 2, 62, 0
4, 244320, Note_on_c, 2, 55, 0
4, 244320, Note_on_c, 2, 55, 105
4, 244320, Note_on_c, 2, 62, 105
4, 244560, Note_on_c, 2, 62, 0
4, 244560, Note_on_c, 2, 55, 0
4, 244560, Note_on_c, 2, 55, 105
4, 244560, Note_on_c, 2, 62, 105
4, 244800, Note_on_c, 2, 62, 0
4, 244800, Note_on_c, 2, 55, 0
4, 244800, Note_on_c, 2, 60, 105
4, 244800, Note_on_c, 2, 64, 105
4, 245280, Note_on_c, 2, 64, 0
4, 245280, Note_on_c, 2, 60, 0
4, 245280, Note_on_c, 2, 60, 105
4, 245280, Note_on_c, 2, 64, 105
4, 245520, Note_on_c, 2, 64, 0
4, 245520, Note_on_c, 2, 60, 0
4, 245520, Note_on_c, 2, 60, 105
4, 245520, Note_on_c, 2, 64, 105
4, 245760, Note_on_c, 2, 64, 0
4, 245760, Note_on_c, 2, 60, 0
4, 245760, Note_on_c, 2, 62, 105
4, 248160, Note_on_c, 2, 62, 0
4, 248160, Note_on_c, 2, 62, 105
4, 248520, Note_on_c, 2, 62, 0
4, 248520, Note_on_c, 2, 62, 105
4, 248640, Note_on_c, 2, 62, 0
4, 248640, Note_on_c, 2, 62, 105
4, 249120, Note_on_c, 2, 62, 0
4, 249120, Note_on_c, 2, 62, 105
4, 249600, Note_on_c, 2, 62, 0
4, 249600, Note_on_c, 2, 55, 105
4, 249600, Note_on_c, 2, 62, 105
4, 250080, Note_on_c, 2, 62, 0
4, 250080, Note_on_c, 2, 55, 0
4, 318720, Note_on_c, 2, 55, 70
4, 320640, Note_on_c, 2, 55, 0
4, 320640, Note_on_c, 2, 55, 90
4, 322560, Note_on_c, 2, 55, 0
4, 322560, Note_on_c, 2, 55, 105
4, 324480, Note_on_c, 2, 55, 0
4, 324480, Note_on_c, 2, 60, 105
4, 325164, Note_on_c, 2, 60, 0
4, 325200, Note_on_c, 2, 55, 105
4, 325428, Note_on_c, 2, 55, 0
4, 325440, Note_on_c, 2, 52, 105
4, 325668, Note_on_c, 2, 52, 0
4, 325680, Note_on_c, 2, 48, 105
4, 325908, Note_on_c, 2, 48, 0
4, 325920, Note_on_c, 2, 52, 105
4, 326148, Note_on_c, 2, 52, 0
4, 326160, Note_on_c, 2, 55, 105
4, 326388, Note_on_c, 2, 55, 0
4, 326400, Note_on_c, 2, 60, 105
4, 327084, Note_on_c, 2, 60, 0
4, 327120, Note_on_c, 2, 55, 105
4, 327348, Note_on_c, 2, 55, 0
4, 327360, Note_on_c, 2, 52, 105
4, 327588, Note_on_c, 2, 52, 0
4, 327600, Note_on_c, 2, 48, 105
4, 327828, Note_on_c, 2, 48, 0
4, 327840, Note_on_c, 2, 52, 105
4, 328068, Note_on_c, 2, 52, 0
4, 328080, Note_on_c, 2, 55, 105
4, 328308, Note_on_c, 2, 55, 0
4, 328320, Note_on_c, 2, 60, 105
4, 328776, Note_on_c, 2, 60, 0
4, 330240, Note_on_c, 2, 62, 105
4, 330720, Note_on_c, 2, 62, 0
4, 332160, Note_on_c, 2, 52, 105
4, 332160, Note_on_c, 2, 64, 105
4, 332640, Note_on_c, 2, 64, 0
4, 332640, Note_on_c, 2, 52, 0
4, 393600, Note_on_c, 2, 55, 70
4, 393600, Note_on_c, 2, 62, 70
4, 397440, Note_on_c, 2, 62, 0
4, 397440, Note_on_c, 2, 55, 0
4, 397440, Note_on_c, 2, 60, 70
4, 397440, Note_on_c, 2, 64, 70
4, 401280, Note_on_c, 2, 64, 0
4, 401280, Note_on_c, 2, 60, 0
4, 401280, Note_on_c, 2, 55, 105
4, 401280, Note_on_c, 2, 62, 105
4, 401760, Note_on_c, 2, 62, 0
4, 401760, Note_on_c, 2, 55, 0
4, 402000, Note_on_c, 2, 55, 105
4, 402000, Note_on_c, 2, 62, 105
4, 402240, Note_on_c, 2, 62, 0
4, 402240, Note_on_c, 2, 55, 0
4, 402240, Note_on_c, 2, 60, 105
4, 402240, Note_on_c, 2, 64, 105
4, 402480, Note_on_c, 2, 64, 0
4, 402480, Note_on_c, 2, 60, 0
4, 402480, Note_on_c, 2, 60, 105
4, 402480, Note_on_c, 2, 64, 105
4, 402720, Note_on_c, 2, 64, 0
4, 402720, Note_on_c, 2, 60, 0
4, 402720, Note_on_c, 2, 60, 105
4, 402720, Note_on_c, 2, 64, 105
4, 402960, Note_on_c, 2, 64, 0
4, 402960, Note_on_c, 2, 60, 0
4, 402960, Note_on_c, 2, 60, 105
4, 402960, Note_on_c, 2, 64, 105
4, 403200, Note_on_c, 2, 64, 0
4, 403200, Note_on_c, 2, 60, 0
4, 403200, Note_on_c, 2, 55, 105
4, 403200, Note_on_c, 2, 62, 105
4, 403680, Note_on_c, 2, 62, 0
4, 403680, Note_on_c, 2, 55, 0
4, 403920, Note_on_c, 2, 55, 105
4, 403920, Note_on_c, 2, 62, 105
4, 404160, Note_on_c, 2, 62, 0
4, 404160, Note_on_c, 2, 55, 0
4, 404160, Note_on_c, 2, 60, 105
4, 404160, Note_on_c, 2, 64, 105
4, 404400, Note_on_c, 2, 64, 0
4, 404400, Note_on_c, 2, 60, 0
4, 404400, Note_on_c, 2, 60, 105
4, 404400, Note_on_c, 2, 64, 105
4, 404640, Note_on_c, 2, 64, 0
4, 404640, Note_on_c, 2, 60, 0
4, 404640, Note_on_c, 2, 60, 105
4, 404640, Note_on_c, 2, 64, 105
4, 404880, Note_on_c, 2, 64, 0
4, 404880, Note_on_c, 2, 60, 0
4, 404880, Note_on_c, 2, 60, 105
4, 404880, Note_on_c, 2, 64, 105
4, 405120, Note_on_c, 2, 64, 0
4, 405120, Note_on_c, 2, 60, 0
4, 405120, Note_on_c, 2, 55, 105
4, 405120, Note_on_c, 2, 62, 105
4, 405600, Note_on_c, 2, 62, 0
4, 405600, Note_on_c, 2, 55, 0
4, 405600, Note_on_c, 2, 55, 105
4, 405600, Note_on_c, 2, 67, 105
4, 406080, Note_on_c, 2, 67, 0
4, 406080, Note_on_c, 2, 55, 0
4, 406080, Note_on_c, 2, 55, 105
4, 406560, Note_on_c, 2, 55, 0
4, 407040, Note_on_c, 2, 60, 100
4, 408960, Note_on_c, 2, 60, 0
4, 408960, Note_on_c, 2, 55, 101
4, 410880, Note_on_c, 2, 55, 0
4, 410880, Note_on_c, 2, 48, 99
4, 411360, Note_on_c, 2, 48, 0
4, 418560, Note_on_c, 2, 48, 70
4, 418560, Note_on_c, 2, 60, 70
4, 424320, Note_on_c, 2, 60, 0
4, 424320, Note_on_c, 2, 48, 0
4, 450240, Note_on_c, 2, 60, 70
4, 450240, Note_on_c, 2, 64, 70
4, 450480, Note_on_c, 2, 64, 0
4, 450480, Note_on_c, 2, 60, 0
4, 450720, Note_on_c, 2, 55, 70
4, 450720, Note_on_c, 2, 62, 70
4, 450960, Note_on_c, 2, 62, 0
4, 450960, Note_on_c, 2, 55, 0
4, 451200, Note_on_c, 2, 52, 70
4, 451200, Note_on_c, 2, 60, 70
4, 451680, Note_on_c, 2, 60, 0
4, 451680, Note_on_c, 2, 52, 0
4, 452160, Note_on_c, 2, 60, 70
4, 452160, Note_on_c, 2, 64, 70
4, 452400, Note_on_c, 2, 64, 0
4, 452400, Note_on_c, 2, 60, 0
4, 452640, Note_on_c, 2, 55, 70
4, 452640, Note_on_c, 2, 62, 70
4, 452880, Note_on_c, 2, 62, 0
4, 452880, Note_on_c, 2, 55, 0
4, 453120, Note_on_c, 2, 52, 70
4, 453120, Note_on_c, 2, 60, 70
4, 453600, Note_on_c, 2, 60, 0
4, 453600, Note_on_c, 2, 52, 0
4, 454080, Note_on_c, 2, 60, 70
4, 454080, Note_on_c, 2, 64, 70
4, 454320, Note_on_c, 2, 64, 0
4, 454320, Note_on_c, 2, 60, 0
4, 454560, Note_on_c, 2, 55, 70
4, 454560, Note_on_c, 2, 62, 70
4, 454800, Note_on_c, 2, 62, 0
4, 454800, Note_on_c, 2, 55, 0
4, 455040, Note_on_c, 2, 52, 70
4, 455040, Note_on_c, 2, 60, 70
4, 455280, Note_on_c, 2, 60, 0
4, 455280, Note_on_c, 2, 52, 0
4, 455520, Note_on_c, 2, 55, 70
4, 455520, Note_on_c, 2, 62, 70
4, 455760, Note_on_c, 2, 62, 0
4, 455760, Note_on_c, 2, 55, 0
4, 456000, Note_on_c, 2, 60, 70
4, 456000, Note_on_c, 2, 64, 70
4, 456240, Note_on_c, 2, 64, 0
4, 456240, Note_on_c, 2, 60, 0
4, 456480, Note_on_c, 2, 55, 70
4, 456480, Note_on_c, 2, 62, 70
4, 456720, Note_on_c, 2, 62, 0
4, 456720, Note_on_c, 2, 55, 0
4, 462720, Note_on_c, 2, 55, 70
4, 466560, Note_on_c, 2, 55, 0
4, 466560, Note_on_c, 2, 52, 105
4, 466560, Note_on_c, 2, 60, 105
4, 467016, Note_on_c, 2, 60, 0
4, 467016, Note_on_c, 2, 52, 0
4, 467520, Note_on_c, 2, 60, 105
4, 468204, Note_on_c, 2, 60, 0
4, 468240, Note_on_c, 2, 55, 105
4, 468468, Note_on_c, 2, 55, 0
4, 468480, Note_on_c, 2, 52, 105
4, 468708, Note_on_c, 2, 52, 0
4, 468720, Note_on_c, 2, 48, 105
4, 468948, Note_on_c, 2, 48, 0
4, 468960, Note_on_c, 2, 52, 105
4, 469188, Note_on_c, 2, 52, 0
4, 469200, Note_on_c, 2, 55, 105
4, 469428, Note_on_c, 2, 55, 0
4, 469440, Note_on_c, 2, 60, 105
4, 470124, Note_on_c, 2, 60, 0
4, 470160, Note_on_c, 2, 55, 105
4, 470388, Note_on_c, 2, 55, 0
4, 470400, Note_on_c, 2, 52, 105
4, 470640, Note_on_c, 2, 52, 0
4, 470640, Note_on_c, 2, 48, 105
4, 470880, Note_on_c, 2, 48, 0
4, 470880, Note_on_c, 2, 52, 105
4, 471120, Note_on_c, 2, 52, 0
4, 471120, Note_on_c, 2, 55, 105
4, 471360, Note_on_c, 2, 55, 0
4, 471360, Note_on_c, 2, 52, 105
4, 471360, Note_on_c, 2, 60, 105
4, 472080, Note_on_c, 2, 60, 0
4, 472080, Note_on_c, 2, 64, 105
4, 472320, Note_on_c, 2, 64, 0
4, 472320, Note_on_c, 2, 52, 0
4, 472320, Note_on_c, 2, 48, 105
4, 472320, Note_on_c, 2, 60, 105
4, 472800, Note_on_c, 2, 60, 0
4, 472800, Note_on_c, 2, 48, 0
4, 475440, Note_on_c, 2, 62, 105
4, 475680, Note_on_c, 2, 62, 0
4, 475680, Note_on_c, 2, 62, 105
4, 475920, Note_on_c, 2, 62, 0
4, 475920, Note_on_c, 2, 62, 105
4, 476160, Note_on_c, 2, 62, 0
4, 476160, Note_on_c, 2, 55, 105
4, 476160, Note_on_c, 2, 62, 105
4, 476640, Note_on_c, 2, 62, 0
4, 476640, Note_on_c, 2, 55, 0
4, 476880, Note_on_c, 2, 55, 105
4, 476880, Note_on_c, 2, 62, 105
4, 477120, Note_on_c, 2, 62, 0
4, 477120, Note_on_c, 2, 55, 0
4, 477120, Note_on_c, 2, 60, 105
4, 477120, Note_on_c, 2, 64, 105
4, 477360, Note_on_c, 2, 64, 0
4, 477360, Note_on_c, 2, 60, 0
4, 477360, Note_on_c, 2, 60, 105
4, 477360, Note_on_c, 2, 64, 105
4, 477600, Note_on_c, 2, 64, 0
4, 477600, Note_on_c, 2, 60, 0
4, 477600, Note_on_c, 2, 60, 105
4, 477600, Note_on_c, 2, 64, 105
4, 477840, Note_on_c, 2, 64, 0
4, 477840, Note_on_c, 2, 60, 0
4, 477840, Note_on_c, 2, 60, 105
4, 477840, Note_on_c, 2, 64, 105
4, 478080, Note_on_c, 2, 64, 0
4, 478080, Note_on_c, 2, 60, 0
4, 478080, Note_on_c, 2, 55, 105
4, 478080, Note_on_c, 2, 62, 105
4, 478560, Note_on_c, 2, 62, 0
4, 478560, Note_on_c, 2, 55, 0
4, 478800, Note_on_c, 2, 55, 105
4, 478800, Note_on_c, 2, 62, 105
4, 479040, Note_on_c, 2, 62, 0
4, 479040, Note_on_c, 2, 55, 0
4, 479040, Note_on_c, 2, 60, 105
4, 479040, Note_on_c, 2, 64, 105
4, 479280, Note_on_c, 2, 64, 0
4, 479280, Note_on_c, 2, 60, 0
4, 479280, Note_on_c, 2, 60, 105
4, 479280, Note_on_c, 2, 64, 105
4, 479520, Note_on_c, 2, 64, 0
4, 479520, Note_on_c, 2, 60, 0
4, 479520, Note_on_c, 2, 60, 105
4, 479520, Note_on_c, 2, 64, 105
4, 479760, Note_on_c, 2, 64, 0
4, 479760, Note_on_c, 2, 60, 0
4, 479760, Note_on_c, 2, 60, 105
4, 479760, Note_on_c, 2, 64, 105
4, 480000, Note_on_c, 2, 64, 0
4, 480000, Note_on_c, 2, 60, 0
4, 480000, Note_on_c, 2, 60, 105
4, 480000, Note_on_c, 2, 64, 105
4, 480480, Note_on_c, 2, 64, 0
4, 480480, Note_on_c, 2, 60, 0
4, 481920, Note_on_c, 2, 48, 105
4, 481920, Note_on_c, 2, 60, 105
4, 485280, Note_on_c, 2, 60, 0
4, 485280, Note_on_c, 2, 48, 0
4, 485280, Note_on_c, 2, 48, 105
4, 485280, Note_on_c, 2, 60, 105
4, 485640, Note_on_c, 2, 60, 0
4, 485640, Note_on_c, 2, 48, 0
4, 485640, Note_on_c, 2, 48, 105
4, 485640, Note_on_c, 2, 60, 105
4, 485760, Note_on_c, 2, 60, 0
4, 485760, Note_on_c, 2, 48, 0
4, 485760, Note_on_c, 2, 48, 105
4, 485760, Note_on_c, 2, 60, 105
4, 486720, Note_on_c, 2, 60, 0
4, 486720, Note_on_c, 2, 48, 0
4, 486720, Note_on_c, 2, 48, 70
4, 486720, Note_on_c, 2, 60, 70
4, 489120, Note_on_c, 2, 60, 0
4, 489120, Note_on_c, 2, 48, 0
4, 489120, Note_on_c, 2, 52, 105
4, 489120, Note_on_c, 2, 60, 105
4, 489480, Note_on_c, 2, 60, 0
4, 489480, Note_on_c, 2, 52, 0
4, 489480, Note_on_c, 2, 52, 105
4, 489480, Note_on_c, 2, 60, 105
4, 489600, Note_on_c, 2, 60, 0
4, 489600, Note_on_c, 2, 52, 0
4, 489600, Note_on_c, 2, 55, 105
4, 489600, Note_on_c, 2, 62, 105
4, 491520, Note_on_c, 2, 62, 0
4, 491520, Note_on_c, 2, 55, 0
4, 491520, Note_on_c, 2, 60, 105
4, 491520, Note_on_c, 2, 64, 105
4, 493440, Note_on_c, 2, 64, 0
4, 493440, Note_on_c, 2, 60, 0
4, 493440, Note_on_c, 2, 62, 105
4, 493440, Note_on_c, 2, 65, 105
4, 494400, Note_on_c, 2, 65, 0
4, 494400, Note_on_c, 2, 62, 0
4, 494400, Note_on_c, 2, 60, 105
4, 494400, Note_on_c, 2, 64, 105
4, 494880, Note_on_c, 2, 64, 0
4, 494880, Note_on_c, 2, 60, 0
4, 494880, Note_on_c, 2, 55, 105
4, 494880, Note_on_c, 2, 62, 105
4, 495360, Note_on_c, 2, 62, 0
4, 495360, Note_on_c, 2, 55, 0
4, 495360, Note_on_c, 2, 48, 105
4, 495360, Note_on_c, 2, 60, 105
4, 495840, Note_on_c, 2, 60, 0
4, 495840, Note_on_c, 2, 48, 0
4, 495840, Note_on_c, 2, 60, 105
4, 496080, Note_on_c, 2, 60, 0
4, 496080, Note_on_c, 2, 60, 105
4, 496320, Note_on_c, 2, 60, 0
4, 496320, Note_on_c, 2, 60, 105
4, 496320, Note_on_c, 2, 62, 105
4, 496800, Note_on_c, 2, 62, 0
4, 496800, Note_on_c, 2, 60, 0
4, 496800, Note_on_c, 2, 60, 105
4, 496800, Note_on_c, 2, 62, 105
4, 497040, Note_on_c, 2, 62, 0
4, 497040, Note_on_c, 2, 60, 0
4, 497040, Note_on_c, 2, 60, 105
4, 497040, Note_on_c, 2, 62, 105
4, 497280, Note_on_c, 2, 62, 0
4, 497280, Note_on_c, 2, 60, 0
4, 497280, Note_on_c, 2, 60, 105
4, 497280, Note_on_c, 2, 64, 105
4, 497760, Note_on_c, 2, 64, 0
4, 497760, Note_on_c, 2, 60, 0
4, 497760, Note_on_c, 2, 60, 105
4, 497760, Note_on_c, 2, 64, 105
4, 498000, Note_on_c, 2, 64, 0
4, 498000, Note_on_c, 2, 60, 0
4, 498000, Note_on_c, 2, 60, 105
4, 498000, Note_on_c, 2, 64, 105
4, 498240, Note_on_c, 2, 64, 0
4, 498240, Note_on_c, 2, 60, 0
4, 498240, Note_on_c, 2, 64, 105
4, 498240, Note_on_c, 2, 67, 105
4, 498480, Note_on_c, 2, 67, 0
4, 498480, Note_on_c, 2, 64, 0
4, 498480, Note_on_c, 2, 62, 105
4, 498480, Note_on_c, 2, 65, 105
4, 498720, Note_on_c, 2, 65, 0
4, 498720, Note_on_c, 2, 62, 0
4, 498720, Note_on_c, 2, 60, 105
4, 498720, Note_on_c, 2, 64, 105
4, 498960, Note_on_c, 2, 64, 0
4, 498960, Note_on_c, 2, 60, 0
4, 498960, Note_on_c, 2, 55, 105
4, 498960, Note_on_c, 2, 62, 105
4, 499200, Note_on_c, 2, 62, 0
4, 499200, Note_on_c, 2, 55, 0
4, 499200, Note_on_c, 2, 52, 105
4, 499200, Note_on_c, 2, 60, 105
4, 499629, Note_on_c, 2, 60, 0
4, 499644, Note_on_c, 2, 52, 0
4, 499680, Note_on_c, 2, 52, 105
4, 499680, Note_on_c, 2, 60, 105
4, 499984, Note_on_c, 2, 52, 0
4, 500004, Note_on_c, 2, 60, 0
4, 500040, Note_on_c, 2, 52, 105
4, 500040, Note_on_c, 2, 60, 105
4, 500124, Note_on_c, 2, 52, 0
4, 500129, Note_on_c, 2, 60, 0
4, 500160, Note_on_c, 2, 52, 105
4, 500160, Note_on_c, 2, 60, 105
4, 500604, Note_on_c, 2, 60, 0
4, 500609, Note_on_c, 2, 52, 0
4, 500640, Note_on_c, 2, 60, 105
4, 500640, Note_on_c, 2, 64, 105
4, 500944, Note_on_c, 2, 64, 0
4, 500944, Note_on_c, 2, 60, 0
4, 501000, Note_on_c, 2, 60, 105
4, 501000, Note_on_c, 2, 64, 105
4, 501089, Note_on_c, 2, 60, 0
4, 501099, Note_on_c, 2, 64, 0
4, 501120, Note_on_c, 2, 60, 105
4, 501120, Note_on_c, 2, 64, 105
4, 501549, Note_on_c, 2, 64, 0
4, 501564, Note_on_c, 2, 60, 0
4, 501600, Note_on_c, 2, 64, 105
4, 501600, Note_on_c, 2, 67, 105
4, 501909, Note_on_c, 2, 64, 0
4, 501919, Note_on_c, 2, 67, 0
4, 501960, Note_on_c, 2, 64, 105
4, 501960, Note_on_c, 2, 67, 105
4, 502044, Note_on_c, 2, 64, 0
4, 502049, Note_on_c, 2, 67, 0
4, 502080, Note_on_c, 2, 64, 105
4, 502080, Note_on_c, 2, 67, 105
4, 502519, Note_on_c, 2, 67, 0
4, 502519, Note_on_c, 2, 64, 0
4, 502560, Note_on_c, 2, 60, 105
4, 502560, Note_on_c, 2, 64, 105
4, 502879, Note_on_c, 2, 64, 0
4, 502879, Note_on_c, 2, 60, 0
4, 502920, Note_on_c, 2, 60, 105
4, 502920, Note_on_c, 2, 64, 105
4, 503004, Note_on_c, 2, 64, 0
4, 503004, Note_on_c, 2, 60, 0
4, 503040, Note_on_c, 2, 60, 105
4, 503040, Note_on_c, 2, 64, 105
4, 503520, Note_on_c, 2, 64, 0
4, 503520, Note_on_c, 2, 60, 0
4, 504000, Note_on_c, 2, 60, 105
4, 504720, Note_on_c, 2, 60, 0
4, 504720, Note_on_c, 2, 55, 105
4, 504960, Note_on_c, 2, 55, 0
4, 504960, Note_on_c, 2, 52, 105
4, 505200, Note_on_c, 2, 52, 0
4, 505200, Note_on_c, 2, 48, 105
4, 505440, Note_on_c, 2, 48, 0
4, 505440, Note_on_c, 2, 52, 105
4, 505680, Note_on_c, 2, 52, 0
4, 505680, Note_on_c, 2, 55, 105
4, 505920, Note_on_c, 2, 55, 0
4, 505920, Note_on_c, 2, 60, 105
4, 506640, Note_on_c, 2, 60, 0
4, 506640, Note_on_c, 2, 55, 105
4, 506880, Note_on_c, 2, 55, 0
4, 506880, Note_on_c, 2, 52, 105
4, 507120, Note_on_c, 2, 52, 0
4, 507120, Note_on_c, 2, 48, 105
4, 507360, Note_on_c, 2, 48, 0
4, 507360, Note_on_c, 2, 52, 105
4, 507600, Note_on_c, 2, 52, 0
4, 507600, Note_on_c, 2, 55, 105
4, 507840, Note_on_c, 2, 55, 0
4, 507840, Note_on_c, 2, 52, 105
4, 508080, Note_on_c, 2, 52, 0
4, 508080, Note_on_c, 2, 48, 105
4, 508320, Note_on_c, 2, 48, 0
4, 508320, Note_on_c, 2, 52, 105
4, 508560, Note_on_c, 2, 52, 0
4, 508560, Note_on_c, 2, 55, 105
4, 508800, Note_on_c, 2, 55, 0
4, 508800, Note_on_c, 2, 52, 105
4, 508800, Note_on_c, 2, 60, 105
4, 509280, Note_on_c, 2, 60, 0
4, 509280, Note_on_c, 2, 52, 0
4, 510720, Control_c, 2, 0, 0
4, 510720, Control_c, 2, 32, 0
4, 510720, Program_c, 2, 60
4, 696960, Note_on_c, 2, 55, 65
4, 696960, Note_on_c, 2, 64, 65
4, 697356, Note_on_c, 2, 64, 0
4, 697356, Note_on_c, 2, 55, 0
4, 697440, Note_on_c, 2, 55, 65
4, 697440, Note_on_c, 2, 64, 65
4, 697828, Note_on_c, 2, 55, 0
4, 697852, Note_on_c, 2, 64, 0
4, 697920, Note_on_c, 2, 60, 65
4, 697920, Note_on_c, 2, 64, 65
4, 698812, Note_on_c, 2, 64, 0
4, 698820, Note_on_c, 2, 60, 0
4, 698880, Note_on_c, 2, 64, 64
4, 698880, Note_on_c, 2, 67, 64
4, 699120, Note_on_c, 2, 62, 64
4, 699120, Note_on_c, 2, 65, 64
4, 699164, Note_on_c, 2, 64, 0
4, 699172, Note_on_c, 2, 67, 0
4, 699308, Note_on_c, 2, 65, 0
4, 699316, Note_on_c, 2, 62, 0
4, 699360, Note_on_c, 2, 60, 63
4, 699360, Note_on_c, 2, 64, 63
4, 699600, Note_on_c, 2, 62, 63
4, 699600, Note_on_c, 2, 65, 63
4, 699644, Note_on_c, 2, 64, 0
4, 699652, Note_on_c, 2, 60, 0
4, 699804, Note_on_c, 2, 62, 0
4, 699812, Note_on_c, 2, 65, 0
4, 699840, Note_on_c, 2, 64, 63
4, 699840, Note_on_c, 2, 67, 63
4, 700320, Note_on_c, 2, 67, 0
4, 700320, Note_on_c, 2, 64, 0
4, 700800, Note_on_c, 2, 48, 85
4, 700800, Note_on_c, 2, 60, 85
4, 702240, Note_on_c, 2, 60, 0
4, 702240, Note_on_c, 2, 48, 0
4, 702720, Note_on_c, 2, 48, 70
4, 702720, Note_on_c, 2, 60, 70
4, 704160, Note_on_c, 2, 60, 0
4, 704160, Note_on_c, 2, 48, 0
4, 704640, Note_on_c, 2, 52, 70
4, 704640, Note_on_c, 2, 60, 70
4, 705036, Note_on_c, 2, 60, 0
4, 705036, Note_on_c, 2, 52, 0
4, 705120, Note_on_c, 2, 52, 70
4, 705120, Note_on_c, 2, 60, 70
4, 705508, Note_on_c, 2, 52, 0
4, 705532, Note_on_c, 2, 60, 0
4, 705600, Note_on_c, 2, 52, 70
4, 705600, Note_on_c, 2, 60, 70
4, 706492, Note_on_c, 2, 60, 0
4, 706492, Note_on_c, 2, 52, 0
4, 706560, Note_on_c, 2, 60, 70
4, 706560, Note_on_c, 2, 64, 70
4, 706800, Note_on_c, 2, 55, 70
4, 706800, Note_on_c, 2, 62, 70
4, 706844, Note_on_c, 2, 64, 0
4, 706860, Note_on_c, 2, 60, 0
4, 706948, Note_on_c, 2, 55, 0
4, 706972, Note_on_c, 2, 62, 0
4, 707040, Note_on_c, 2, 55, 70
4, 707040, Note_on_c, 2, 60, 70
4, 707280, Note_on_c, 2, 62, 70
4, 707332, Note_on_c, 2, 60, 0
4, 707452, Note_on_c, 2, 55, 0
4, 707460, Note_on_c, 2, 62, 0
4, 707520, Note_on_c, 2, 60, 70
4, 707520, Note_on_c, 2, 64, 70
4, 707876, Note_on_c, 2, 60, 0
4, 707900, Note_on_c, 2, 64, 0
4, 708000, Note_on_c, 2, 60, 70
4, 708000, Note_on_c, 2, 64, 70
4, 708396, Note_on_c, 2, 60, 0
4, 708404, Note_on_c, 2, 64, 0
4, 708480, Note_on_c, 2, 64, 70
4, 708480, Note_on_c, 2, 67, 70
4, 708720, Note_on_c, 2, 62, 70
4, 708720, Note_on_c, 2, 65, 70
4, 708772, Note_on_c, 2, 64, 0
4, 708780, Note_on_c, 2, 67, 0
4, 708892, Note_on_c, 2, 62, 0
4, 708900, Note_on_c, 2, 65, 0
4, 708960, Note_on_c, 2, 60, 70
4, 708960, Note_on_c, 2, 64, 70
4, 709200, Note_on_c, 2, 62, 70
4, 709200, Note_on_c, 2, 65, 70
4, 709252, Note_on_c, 2, 64, 0
4, 709260, Note_on_c, 2, 60, 0
4, 709372, Note_on_c, 2, 62, 0
4, 709372, Note_on_c, 2, 65, 0
4, 709440, Note_on_c, 2, 64, 70
4, 709440, Note_on_c, 2, 67, 70
4, 710332, Note_on_c, 2, 67, 0
4, 710348, Note_on_c, 2, 64, 0
4, 710400, Note_on_c, 2, 64, 70
4, 710400, Note_on_c, 2, 67, 70
4, 710640, Note_on_c, 2, 62, 70
4, 710640, Note_on_c, 2, 65, 70
4, 710692, Note_on_c, 2, 67, 0
4, 710700, Note_on_c, 2, 64, 0
4, 710812, Note_on_c, 2, 62, 0
4, 710812, Note_on_c, 2, 65, 0
4, 710880, Note_on_c, 2, 55, 70
4, 710880, Note_on_c, 2, 64, 70
4, 711076, Note_on_c, 2, 55, 0
4, 711120, Note_on_c, 2, 55, 70
4, 711120, Note_on_c, 2, 62, 70
4, 711180, Note_on_c, 2, 64, 0
4, 711308, Note_on_c, 2, 62, 0
4, 711316, Note_on_c, 2, 55, 0
4, 711360, Note_on_c, 2, 52, 105
4, 711360, Note_on_c, 2, 60, 105
4, 711840, Note_on_c, 2, 60, 0
4, 711840, Note_on_c, 2, 52, 0
4, 715200, Note_on_c, 2, 60, 105
4, 715200, Note_on_c, 2, 64, 105
4, 717052, Note_on_c, 2, 60, 0
4, 717068, Note_on_c, 2, 64, 0
4, 717120, Note_on_c, 2, 55, 105
4, 717120, Note_on_c, 2, 62, 105
4, 718956, Note_on_c, 2, 62, 0
4, 718956, Note_on_c, 2, 55, 0
4, 719040, Note_on_c, 2, 60, 105
4, 719040, Note_on_c, 2, 64, 105
4, 719356, Note_on_c, 2, 60, 0
4, 719364, Note_on_c, 2, 64, 0
4, 719520, Note_on_c, 2, 48, 105
4, 719520, Note_on_c, 2, 60, 105
4, 720812, Note_on_c, 2, 60, 0
4, 720836, Note_on_c, 2, 48, 0
4, 720960, Note_on_c, 2, 48, 70
4, 720960, Note_on_c, 2, 60, 70
4, 722812, Note_on_c, 2, 60, 0
4, 722812, Note_on_c, 2, 48, 0
4, 722880, Note_on_c, 2, 48, 70
4, 722880, Note_on_c, 2, 60, 70
4, 723156, Note_on_c, 2, 60, 0
4, 723188, Note_on_c, 2, 48, 0
4, 723360, Note_on_c, 2, 48, 105
4, 723360, Note_on_c, 2, 60, 105
4, 724756, Note_on_c, 2, 60, 0
4, 724764, Note_on_c, 2, 48, 0
4, 724800, Note_on_c, 2, 48, 70
4, 724800, Note_on_c, 2, 60, 70
4, 730508, Note_on_c, 2, 60, 0
4, 730508, Note_on_c, 2, 48, 0
4, 730560, Note_on_c, 2, 55, 70
4, 730924, Note_on_c, 2, 55, 0
4, 748320, Note_on_c, 2, 60, 83
4, 748320, Note_on_c, 2, 64, 83
4, 749204, Note_on_c, 2, 60, 0
4, 749212, Note_on_c, 2, 64, 0
4, 749280, Note_on_c, 2, 55, 81
4, 749280, Note_on_c, 2, 62, 81
4, 749636, Note_on_c, 2, 62, 0
4, 749644, Note_on_c, 2, 55, 0
4, 749760, Note_on_c, 2, 48, 81
4, 749760, Note_on_c, 2, 60, 81
4, 757332, Note_on_c, 2, 60, 0
4, 757348, Note_on_c, 2, 48, 0
4, 757440, Note_on_c, 2, 55, 87
4, 761140, Note_on_c, 2, 55, 0
4, 761280, Note_on_c, 2, 52, 70
4, 761280, Note_on_c, 2, 60, 70
4, 761760, Note_on_c, 2, 60, 0
4, 761760, Note_on_c, 2, 52, 0
4, 764640, Note_on_c, 2, 55, 116
4, 764772, Note_on_c, 2, 55, 0
4, 764880, Note_on_c, 2, 55, 114
4, 765020, Note_on_c, 2, 55, 0
4, 765120, Note_on_c, 2, 60, 105
4, 765532, Note_on_c, 2, 60, 0
4, 765600, Note_on_c, 2, 55, 117
4, 765764, Note_on_c, 2, 55, 0
4, 765840, Note_on_c, 2, 55, 121
4, 765996, Note_on_c, 2, 55, 0
4, 766080, Note_on_c, 2, 62, 105
4, 766508, Note_on_c, 2, 62, 0
4, 766560, Note_on_c, 2, 55, 114
4, 766724, Note_on_c, 2, 55, 0
4, 766800, Note_on_c, 2, 55, 114
4, 767004, Note_on_c, 2, 55, 0
4, 767040, Note_on_c, 2, 64, 105
4, 767520, Note_on_c, 2, 64, 0
4, 768480, Note_on_c, 2, 55, 116
4, 768644, Note_on_c, 2, 55, 0
4, 768720, Note_on_c, 2, 55, 116
4, 768892, Note_on_c, 2, 55, 0
4, 768960, Note_on_c, 2, 60, 105
4, 769372, Note_on_c, 2, 60, 0
4, 769440, Note_on_c, 2, 55, 114
4, 769596, Note_on_c, 2, 55, 0
4, 769680, Note_on_c, 2, 55, 117
4, 769868, Note_on_c, 2, 55, 0
4, 769920, Note_on_c, 2, 62, 105
4, 770308, Note_on_c, 2, 62, 0
4, 770400, Note_on_c, 2, 55, 113
4, 770564, Note_on_c, 2, 55, 0
4, 770640, Note_on_c, 2, 55, 115
4, 770812, Note_on_c, 2, 55, 0
4, 770880, Note_on_c, 2, 64, 105
4, 771360, Note_on_c, 2, 64, 0
4, 772320, Note_on_c, 2, 55, 105
4, 772500, Note_on_c, 2, 55, 0
4, 772560, Note_on_c, 2, 55, 105
4, 772748, Note_on_c, 2, 55, 0
4, 772800, Note_on_c, 2, 60, 105
4, 773196, Note_on_c, 2, 60, 0
4, 773280, Note_on_c, 2, 60, 105
4, 773280, Note_on_c, 2, 64, 105
4, 773760, Note_on_c, 2, 64, 0
4, 773760, Note_on_c, 2, 60, 0
4, 774240, Note_on_c, 2, 60, 105
4, 774240, Note_on_c, 2, 64, 105
4, 774720, Note_on_c, 2, 64, 0
4, 774720, Note_on_c, 2, 60, 0
4, 775200, Note_on_c, 2, 60, 105
4, 775200, Note_on_c, 2, 62, 105
4, 775680, Note_on_c, 2, 62, 0
4, 775680, Note_on_c, 2, 60, 0
4, 776160, Note_on_c, 2, 55, 105
4, 776160, Note_on_c, 2, 62, 105
4, 776580, Note_on_c, 2, 55, 0
4, 776588, Note_on_c, 2, 62, 0
4, 776640, Note_on_c, 2, 60, 105
4, 776640, Note_on_c, 2, 64, 105
4, 777600, Note_on_c, 2, 64, 0
4, 777600, Note_on_c, 2, 60, 0
4, 780480, Note_on_c, 2, 52, 70
4, 780480, Note_on_c, 2, 60, 70
4, 782348, Note_on_c, 2, 60, 0
4, 782372, Note_on_c, 2, 52, 0
4, 782400, Note_on_c, 2, 55, 70
4, 782400, Note_on_c, 2, 62, 70
4, 784252, Note_on_c, 2, 62, 0
4, 784252, Note_on_c, 2, 55, 0
4, 784320, Note_on_c, 2, 60, 86
4, 784320, Note_on_c, 2, 64, 86
4, 784800, Note_on_c, 2, 60, 0
4, 785040, Note_on_c, 2, 62, 70
4, 785108, Note_on_c, 2, 64, 0
4, 785280, Note_on_c, 2, 52, 70
4, 785280, Note_on_c, 2, 60, 70
4, 785316, Note_on_c, 2, 62, 0
4, 785660, Note_on_c, 2, 52, 0
4, 785760, Note_on_c, 2, 55, 70
4, 785760, Note_on_c, 2, 62, 70
4, 785812, Note_on_c, 2, 60, 0
4, 786132, Note_on_c, 2, 55, 0
4, 786140, Note_on_c, 2, 62, 0
4, 786240, Note_on_c, 2, 60, 94
4, 786240, Note_on_c, 2, 64, 94
4, 786720, Note_on_c, 2, 60, 0
4, 786960, Note_on_c, 2, 62, 70
4, 787044, Note_on_c, 2, 64, 0
4, 787200, Note_on_c, 2, 52, 70
4, 787200, Note_on_c, 2, 60, 70
4, 787268, Note_on_c, 2, 62, 0
4, 787548, Note_on_c, 2, 52, 0
4, 787680, Note_on_c, 2, 60, 0
4, 787680, Note_on_c, 2, 55, 70
4, 787680, Note_on_c, 2, 62, 70
4, 788076, Note_on_c, 2, 62, 0
4, 788076, Note_on_c, 2, 55, 0
4, 788160, Note_on_c, 2, 60, 97
4, 788160, Note_on_c, 2, 64, 97
4, 788640, Note_on_c, 2, 60, 0
4, 788880, Note_on_c, 2, 62, 70
4, 788956, Note_on_c, 2, 64, 0
4, 789120, Note_on_c, 2, 52, 70
4, 789120, Note_on_c, 2, 60, 70
4, 789196, Note_on_c, 2, 62, 0
4, 789500, Note_on_c, 2, 52, 0
4, 789600, Note_on_c, 2, 60, 0
4, 789600, Note_on_c, 2, 55, 70
4, 789600, Note_on_c, 2, 62, 70
4, 789996, Note_on_c, 2, 62, 0
4, 790012, Note_on_c, 2, 55, 0
4, 790080, Note_on_c, 2, 52, 92
4, 790080, Note_on_c, 2, 60, 92
4, 790560, Note_on_c, 2, 60, 0
4, 790560, Note_on_c, 2, 52, 0
4, 826560, Note_on_c, 2, 52, 105
4, 826560, Note_on_c, 2, 60, 105
4, 826980, Note_on_c, 2, 60, 0
4, 826988, Note_on_c, 2, 52, 0
4, 827040, Note_on_c, 2, 52, 105
4, 827040, Note_on_c, 2, 60, 105
4, 827220, Note_on_c, 2, 60, 0
4, 827220, Note_on_c, 2, 52, 0
4, 827280, Note_on_c, 2, 52, 105
4, 827280, Note_on_c, 2, 60, 105
4, 827452, Note_on_c, 2, 60, 0
4, 827460, Note_on_c, 2, 52, 0
4, 827520, Note_on_c, 2, 52, 105
4, 827520, Note_on_c, 2, 60, 105
4, 827916, Note_on_c, 2, 52, 0
4, 827932, Note_on_c, 2, 60, 0
4, 828000, Note_on_c, 2, 52, 105
4, 828000, Note_on_c, 2, 60, 105
4, 828412, Note_on_c, 2, 52, 0
4, 828420, Note_on_c, 2, 60, 0
4, 828480, Note_on_c, 2, 52, 105
4, 828480, Note_on_c, 2, 60, 105
4, 828884, Note_on_c, 2, 60, 0
4, 828900, Note_on_c, 2, 52, 0
4, 828960, Note_on_c, 2, 60, 105
4, 828960, Note_on_c, 2, 64, 105
4, 829140, Note_on_c, 2, 64, 0
4, 829140, Note_on_c, 2, 60, 0
4, 829200, Note_on_c, 2, 60, 105
4, 829200, Note_on_c, 2, 64, 105
4, 829380, Note_on_c, 2, 60, 0
4, 829396, Note_on_c, 2, 64, 0
4, 829440, Note_on_c, 2, 60, 105
4, 829440, Note_on_c, 2, 64, 105
4, 829852, Note_on_c, 2, 64, 0
4, 829852, Note_on_c, 2, 60, 0
4, 829920, Note_on_c, 2, 60, 105
4, 829920, Note_on_c, 2, 64, 105
4, 830324, Note_on_c, 2, 60, 0
4, 830332, Note_on_c, 2, 64, 0
4, 830400, Note_on_c, 2, 60, 105
4, 830400, Note_on_c, 2, 64, 105
4, 830880, Note_on_c, 2, 64, 0
4, 830880, Note_on_c, 2, 60, 0
4, 882240, Note_on_c, 2, 64, 90
4, 883200, Note_on_c, 2, 64, 0
4, 884160, Note_on_c, 2, 62, 90
4, 885120, Note_on_c, 2, 62, 0
4, 886080, Note_on_c, 2, 64, 90
4, 887040, Note_on_c, 2, 64, 0
4, 888000, Note_on_c, 2, 62, 70
4, 888480, Note_on_c, 2, 62, 0
4, 891840, Note_on_c, 2, 62, 105
4, 895680, Note_on_c, 2, 55, 105
4, 896160, Note_on_c, 2, 55, 0
4, 896160, Note_on_c, 2, 62, 0
4, 1012800, Note_on_c, 2, 43, 70
4, 1012800, Note_on_c, 2, 55, 70
4, 1028640, Note_on_c, 2, 55, 0
4, 1028640, Note_on_c, 2, 43, 0
4, 1044480, Note_on_c, 2, 60, 105
4, 1044480, Note_on_c, 2, 64, 105
4, 1044960, Note_on_c, 2, 64, 0
4, 1044960, Note_on_c, 2, 60, 0
4, 1044960, Note_on_c, 2, 60, 105
4, 1044960, Note_on_c, 2, 64, 105
4, 1045440, Note_on_c, 2, 64, 0
4, 1045440, Note_on_c, 2, 60, 0
4, 1045440, Note_on_c, 2, 60, 105
4, 1045440, Note_on_c, 2, 64, 105
4, 1046400, Note_on_c, 2, 64, 0
4, 1046400, Note_on_c, 2, 60, 0
4, 1046400, Note_on_c, 2, 55, 105
4, 1046400, Note_on_c, 2, 64, 105
4, 1046640, Note_on_c, 2, 64, 0
4, 1046640, Note_on_c, 2, 62, 105
4, 1046880, Note_on_c, 2, 62, 0
4, 1046880, Note_on_c, 2, 60, 105
4, 1047120, Note_on_c, 2, 60, 0
4, 1047120, Note_on_c, 2, 62, 105
4, 1047360, Note_on_c, 2, 62, 0
4, 1047360, Note_on_c, 2, 55, 0
4, 1047360, Note_on_c, 2, 52, 105
4, 1047360, Note_on_c, 2, 60, 105
4, 1047840, Note_on_c, 2, 60, 0
4, 1047840, Note_on_c, 2, 52, 0
4, 1048320, Note_on_c, 2, 48, 105
4, 1048320, Note_on_c, 2, 60, 105
4, 1050240, Note_on_c, 2, 60, 0
4, 1050240, Note_on_c, 2, 48, 0
4, 1050240, Note_on_c, 2, 48, 105
4, 1050240, Note_on_c, 2, 60, 105
4, 1052160, Note_on_c, 2, 60, 0
4, 1052160, Note_on_c, 2, 48, 0
4, 1054080, Note_on_c, 2, 55, 105
4, 1054560, Note_on_c, 2, 55, 0
4, 1054560, Note_on_c, 2, 55, 105
4, 1055040, Note_on_c, 2, 55, 0
4, 1055040, Note_on_c, 2, 52, 105
4, 1055040, Note_on_c, 2, 60, 105
4, 1056000, Note_on_c, 2, 60, 0
4, 1056000, Note_on_c, 2, 52, 0
4, 1056000, Note_on_c, 2, 55, 105
4, 1056000, Note_on_c, 2, 64, 105
4, 1056240, Note_on_c, 2, 64, 0
4, 1056240, Note_on_c, 2, 62, 105
4, 1056480, Note_on_c, 2, 62, 0
4, 1056480, Note_on_c, 2, 60, 105
4, 1056720, Note_on_c, 2, 60, 0
4, 1056720, Note_on_c, 2, 62, 105
4, 1056960, Note_on_c, 2, 62, 0
4, 1056960, Note_on_c, 2, 55, 0
4, 1056960, Note_on_c, 2, 60, 105
4, 1056960, Note_on_c, 2, 64, 105
4, 1057440, Note_on_c, 2, 64, 0
4, 1057440, Note_on_c, 2, 60, 0
4, 1057440, Note_on_c, 2, 64, 105
4, 1057440, Note_on_c, 2, 67, 105
4, 1057920, Note_on_c, 2, 67, 0
4, 1057920, Note_on_c, 2, 64, 0
4, 1057920, Note_on_c, 2, 64, 105
4, 1057920, Note_on_c, 2, 67, 105
4, 1058160, Note_on_c, 2, 67, 0
4, 1058160, Note_on_c, 2, 64, 0
4, 1058160, Note_on_c, 2, 62, 105
4, 1058160, Note_on_c, 2, 65, 105
4, 1058400, Note_on_c, 2, 65, 0
4, 1058400, Note_on_c, 2, 62, 0
4, 1058400, Note_on_c, 2, 60, 105
4, 1058400, Note_on_c, 2, 64, 105
4, 1058640, Note_on_c, 2, 64, 0
4, 1058640, Note_on_c, 2, 60, 0
4, 1058640, Note_on_c, 2, 55, 105
4, 1058640, Note_on_c, 2, 62, 105
4, 1058880, Note_on_c, 2, 62, 0
4, 1058880, Note_on_c, 2, 55, 0
4, 1058880, Note_on_c, 2, 52, 105
4, 1058880, Note_on_c, 2, 60, 105
4, 1059360, Note_on_c, 2, 60, 0
4, 1059360, Note_on_c, 2, 52, 0
4, 1062240, Note_on_c, 2, 55, 105
4, 1062480, Note_on_c, 2, 55, 0
4, 1062480, Note_on_c, 2, 55, 105
4, 1062720, Note_on_c, 2, 55, 0
4, 1062720, Note_on_c, 2, 60, 105
4, 1063200, Note_on_c, 2, 60, 0
4, 1063200, Note_on_c, 2, 55, 105
4, 1063440, Note_on_c, 2, 55, 0
4, 1063440, Note_on_c, 2, 55, 105
4, 1063680, Note_on_c, 2, 55, 0
4, 1063680, Note_on_c, 2, 62, 105
4, 1064160, Note_on_c, 2, 62, 0
4, 1064160, Note_on_c, 2, 55, 105
4, 1064400, Note_on_c, 2, 55, 0
4, 1064400, Note_on_c, 2, 55, 105
4, 1064640, Note_on_c, 2, 55, 0
4, 1064640, Note_on_c, 2, 64, 105
4, 1065120, Note_on_c, 2, 64, 0
4, 1066080, Note_on_c, 2, 55, 105
4, 1066320, Note_on_c, 2, 55, 0
4, 1066320, Note_on_c, 2, 55, 105
4, 1066560, Note_on_c, 2, 55, 0
4, 1066560, Note_on_c, 2, 60, 105
4, 1067040, Note_on_c, 2, 60, 0
4, 1067040, Note_on_c, 2, 55, 105
4, 1067280, Note_on_c, 2, 55, 0
4, 1067280, Note_on_c, 2, 55, 105
4, 1067520, Note_on_c, 2, 55, 0
4, 1067520, Note_on_c, 2, 62, 105
4, 1068000, Note_on_c, 2, 62, 0
4, 1068000, Note_on_c, 2, 55, 105
4, 1068240, Note_on_c, 2, 55, 0
4, 1068240, Note_on_c, 2, 55, 105
4, 1068480, Note_on_c, 2, 55, 0
4, 1068480, Note_on_c, 2, 64, 105
4, 1068960, Note_on_c, 2, 64, 0
4, 1069920, Note_on_c, 2, 52, 105
4, 1069920, Note_on_c, 2, 64, 105
4, 1070160, Note_on_c, 2, 64, 0
4, 1070160, Note_on_c, 2, 52, 0
4, 1070160, Note_on_c, 2, 52, 105
4, 1070160, Note_on_c, 2, 64, 105
4, 1070400, Note_on_c, 2, 64, 0
4, 1070400, Note_on_c, 2, 52, 0
4, 1070400, Note_on_c, 2, 52, 105
4, 1070400, Note_on_c, 2, 64, 105
4, 1070880, Note_on_c, 2, 64, 0
4, 1070880, Note_on_c, 2, 52, 0
4, 1070880, Note_on_c, 2, 52, 105
4, 1070880, Note_on_c, 2, 64, 105
4, 1071120, Note_on_c, 2, 64, 0
4, 1071120, Note_on_c, 2, 52, 0
4, 1071120, Note_on_c, 2, 52, 105
4, 1071120, Note_on_c, 2, 64, 105
4, 1071360, Note_on_c, 2, 64, 0
4, 1071360, Note_on_c, 2, 52, 0
4, 1071360, Note_on_c, 2, 52, 105
4, 1071360, Note_on_c, 2, 64, 105
4, 1071840, Note_on_c, 2, 64, 0
4, 1071840, Note_on_c, 2, 52, 0
4, 1071840, Note_on_c, 2, 52, 105
4, 1071840, Note_on_c, 2, 64, 105
4, 1072080, Note_on_c, 2, 64, 0
4, 1072080, Note_on_c, 2, 52, 0
4, 1072080, Note_on_c, 2, 52, 105
4, 1072080, Note_on_c, 2, 64, 105
4, 1072320, Note_on_c, 2, 64, 0
4, 1072320, Note_on_c, 2, 52, 0
4, 1072320, Note_on_c, 2, 52, 105
4, 1072320, Note_on_c, 2, 64, 105
4, 1072800, Note_on_c, 2, 64, 0
4, 1072800, Note_on_c, 2, 52, 0
4, 1073760, Note_on_c, 2, 48, 105
4, 1073760, Note_on_c, 2, 60, 105
4, 1074000, Note_on_c, 2, 60, 0
4, 1074000, Note_on_c, 2, 48, 0
4, 1074000, Note_on_c, 2, 48, 105
4, 1074000, Note_on_c, 2, 60, 105
4, 1074240, Note_on_c, 2, 60, 0
4, 1074240, Note_on_c, 2, 48, 0
4, 1074240, Note_on_c, 2, 48, 105
4, 1074240, Note_on_c, 2, 60, 105
4, 1074720, Note_on_c, 2, 60, 0
4, 1074720, Note_on_c, 2, 48, 0
4, 1074720, Note_on_c, 2, 48, 105
4, 1074720, Note_on_c, 2, 60, 105
4, 1074960, Note_on_c, 2, 60, 0
4, 1074960, Note_on_c, 2, 48, 0
4, 1074960, Note_on_c, 2, 48, 105
4, 1074960, Note_on_c, 2, 60, 105
4, 1075200, Note_on_c, 2, 60, 0
4, 1075200, Note_on_c, 2, 48, 0
4, 1075200, Note_on_c, 2, 48, 105
4, 1075200, Note_on_c, 2, 60, 105
4, 1075680, Note_on_c, 2, 60, 0
4, 1075680, Note_on_c, 2, 48, 0
4, 1075680, Note_on_c, 2, 48, 105
4, 1075680, Note_on_c, 2, 60, 105
4, 1075920, Note_on_c, 2, 60, 0
4, 1075920, Note_on_c, 2, 48, 0
4, 1075920, Note_on_c, 2, 48, 105
4, 1075920, Note_on_c, 2, 60, 105
4, 1076160, Note_on_c, 2, 60, 0
4, 1076160, Note_on_c, 2, 48, 0
4, 1076160, Note_on_c, 2, 48, 105
4, 1076160, Note_on_c, 2, 60, 105
4, 1076640, Note_on_c, 2, 60, 0
4, 1076640, Note_on_c, 2, 48, 0
4, 1077600, Note_on_c, 2, 48, 105
4, 1077600, Note_on_c, 2, 60, 105
4, 1077840, Note_on_c, 2, 60, 0
4, 1077840, Note_on_c, 2, 48, 0
4, 1077840, Note_on_c, 2, 48, 105
4, 1077840, Note_on_c, 2, 60, 105
4, 1078080, Note_on_c, 2, 60, 0
4, 1078080, Note_on_c, 2, 48, 0
4, 1078080, Note_on_c, 2, 48, 105
4, 1078080, Note_on_c, 2, 60, 105
4, 1078560, Note_on_c, 2, 60, 0
4, 1078560, Note_on_c, 2, 48, 0
4, 1151040, Note_on_c, 2, 43, 70
4, 1151040, Note_on_c, 2, 55, 70
4, 1156800, Note_on_c, 2, 55, 0
4, 1156800, Note_on_c, 2, 43, 0
4, 1174080, Note_on_c, 2, 55, 70
4, 1181760, Note_on_c, 2, 55, 0
4, 1181760, Note_on_c, 2, 48, 70
4, 1181760, Note_on_c, 2, 60, 70
4, 1182240, Note_on_c, 2, 60, 0
4, 1182240, Note_on_c, 2, 48, 0
4, 1210560, Note_on_c, 2, 48, 90
4, 1210560, Note_on_c, 2, 60, 90
4, 1211520, Note_on_c, 2, 60, 0
4, 1211520, Note_on_c, 2, 48, 0
4, 1212480, Note_on_c, 2, 55, 90
4, 1212480, Note_on_c, 2, 62, 90
4, 1213440, Note_on_c, 2, 62, 0
4, 1213440, Note_on_c, 2, 55, 0
4, 1214400, Note_on_c, 2, 48, 90
4, 1214400, Note_on_c, 2, 60, 90
4, 1215360, Note_on_c, 2, 60, 0
4, 1215360, Note_on_c, 2, 48, 0
4, 1216320, Note_on_c, 2, 55, 70
4, 1216320, Note_on_c, 2, 62, 70
4, 1216800, Note_on_c, 2, 62, 0
4, 1216800, Note_on_c, 2, 55, 0
4, 1220160, Note_on_c, 2, 55, 90
4, 1220160, Note_on_c, 2, 67, 90
4, 1224000, Note_on_c, 2, 55, 0
4, 1224000, Note_on_c, 2, 60, 90
4, 1224480, Note_on_c, 2, 60, 0
4, 1224480, Note_on_c, 2, 67, 0
4, 1255200, Note_on_c, 2, 52, 70
4, 1255200, Note_on_c, 2, 60, 70
4, 1255680, Note_on_c, 2, 60, 0
4, 1255680, Note_on_c, 2, 52, 0
4, 1255680, Note_on_c, 2, 52, 70
4, 1255680, Note_on_c, 2, 60, 70
4, 1256160, Note_on_c, 2, 60, 0
4, 1256160, Note_on_c, 2, 52, 0
4, 1256160, Note_on_c, 2, 52, 70
4, 1256160, Note_on_c, 2, 60, 70
4, 1256640, Note_on_c, 2, 60, 0
4, 1256640, Note_on_c, 2, 52, 0
4, 1256640, Note_on_c, 2, 55, 70
4, 1256640, Note_on_c, 2, 62, 70
4, 1257360, Note_on_c, 2, 62, 0
4, 1257360, Note_on_c, 2, 64, 70
4, 1257600, Note_on_c, 2, 64, 0
4, 1257600, Note_on_c, 2, 55, 0
4, 1257600, Note_on_c, 2, 52, 70
4, 1257600, Note_on_c, 2, 60, 70
4, 1258080, Note_on_c, 2, 60, 0
4, 1258080, Note_on_c, 2, 52, 0
4, 1258080, Note_on_c, 2, 52, 70
4, 1258080, Note_on_c, 2, 60, 70
4, 1258560, Note_on_c, 2, 60, 0
4, 1258560, Note_on_c, 2, 52, 0
4, 1258560, Note_on_c, 2, 55, 70
4, 1258560, Note_on_c, 2, 62, 70
4, 1259280, Note_on_c, 2, 62, 0
4, 1259280, Note_on_c, 2, 64, 70
4, 1259520, Note_on_c, 2, 64, 0
4, 1259520, Note_on_c, 2, 55, 0
4, 1259520, Note_on_c, 2, 55, 70
4, 1259520, Note_on_c, 2, 60, 70
4, 1260000, Note_on_c, 2, 60, 0
4, 1260000, Note_on_c, 2, 55, 0
4, 1260000, Note_on_c, 2, 62, 70
4, 1260000, Note_on_c, 2, 65, 70
4, 1260480, Note_on_c, 2, 65, 0
4, 1260480, Note_on_c, 2, 62, 0
4, 1260480, Note_on_c, 2, 60, 70
4, 1260480, Note_on_c, 2, 64, 70
4, 1261440, Note_on_c, 2, 64, 0
4, 1261440, Note_on_c, 2, 60, 0
4, 1261440, Note_on_c, 2, 55, 70
4, 1261440, Note_on_c, 2, 62, 70
4, 1261920, Note_on_c, 2, 62, 0
4, 1261920, Note_on_c, 2, 55, 0
4, 1262880, Note_on_c, 2, 55, 70
4, 1262880, Note_on_c, 2, 62, 70
4, 1263360, Note_on_c, 2, 62, 0
4, 1263360, Note_on_c, 2, 55, 0
4, 1263360, Note_on_c, 2, 55, 70
4, 1263360, Note_on_c, 2, 62, 70
4, 1263840, Note_on_c, 2, 62, 0
4, 1263840, Note_on_c, 2, 55, 0
4, 1263840, Note_on_c, 2, 55, 70
4, 1263840, Note_on_c, 2, 62, 70
4, 1264320, Note_on_c, 2, 62, 0
4, 1264320, Note_on_c, 2, 55, 0
4, 1264320, Note_on_c, 2, 60, 70
4, 1264320, Note_on_c, 2, 64, 70
4, 1264800, Note_on_c, 2, 64, 0
4, 1264800, Note_on_c, 2, 60, 0
4, 1264800, Note_on_c, 2, 64, 70
4, 1265040, Note_on_c, 2, 64, 0
4, 1265040, Note_on_c, 2, 65, 70
4, 1265280, Note_on_c, 2, 65, 0
4, 1265280, Note_on_c, 2, 62, 70
4, 1265760, Note_on_c, 2, 62, 0
4, 1265760, Note_on_c, 2, 59, 70
4, 1265760, Note_on_c, 2, 62, 70
4, 1266240, Note_on_c, 2, 62, 0
4, 1266240, Note_on_c, 2, 59, 0
4, 1266240, Note_on_c, 2, 60, 70
4, 1266240, Note_on_c, 2, 64, 70
4, 1266720, Note_on_c, 2, 64, 0
4, 1266720, Note_on_c, 2, 60, 0
4, 1266720, Note_on_c, 2, 64, 70
4, 1266960, Note_on_c, 2, 64, 0
4, 1266960, Note_on_c, 2, 65, 70
4, 1267200, Note_on_c, 2, 65, 0
4, 1267200, Note_on_c, 2, 62, 70
4, 1267680, Note_on_c, 2, 62, 0
4, 1267680, Note_on_c, 2, 59, 70
4, 1267680, Note_on_c, 2, 67, 70
4, 1268160, Note_on_c, 2, 67, 0
4, 1268160, Note_on_c, 2, 59, 0
4, 1268160, Note_on_c, 2, 62, 70
4, 1268160, Note_on_c, 2, 65, 70
4, 1269120, Note_on_c, 2, 65, 0
4, 1269120, Note_on_c, 2, 62, 0
4, 1269120, Note_on_c, 2, 60, 70
4, 1269120, Note_on_c, 2, 64, 70
4, 1269600, Note_on_c, 2, 64, 0
4, 1269600, Note_on_c, 2, 60, 0
4, 1281600, Note_on_c, 2, 55, 70
4, 1281600, Note_on_c, 2, 62, 70
4, 1282080, Note_on_c, 2, 62, 0
4, 1282080, Note_on_c, 2, 55, 0
4, 1282080, Note_on_c, 2, 55, 70
4, 1282080, Note_on_c, 2, 62, 70
4, 1282320, Note_on_c, 2, 62, 0
4, 1282320, Note_on_c, 2, 55, 0
4, 1282320, Note_on_c, 2, 55, 70
4, 1282320, Note_on_c, 2, 62, 70
4, 1282560, Note_on_c, 2, 62, 0
4, 1282560, Note_on_c, 2, 55, 0
4, 1282560, Note_on_c, 2, 55, 70
4, 1282560, Note_on_c, 2, 62, 70
4, 1283040, Note_on_c, 2, 62, 0
4, 1283040, Note_on_c, 2, 55, 0
4, 1283040, Note_on_c, 2, 55, 70
4, 1283040, Note_on_c, 2, 62, 70
4, 1283520, Note_on_c, 2, 62, 0
4, 1283520, Note_on_c, 2, 55, 0
4, 1283520, Note_on_c, 2, 48, 70
4, 1283520, Note_on_c, 2, 60, 70
4, 1284000, Note_on_c, 2, 60, 0
4, 1284000, Note_on_c, 2, 48, 0
4, 1284000, Note_on_c, 2, 48, 90
4, 1284000, Note_on_c, 2, 60, 90
4, 1284960, Note_on_c, 2, 60, 0
4, 1284960, Note_on_c, 2, 48, 0
4, 1284960, Note_on_c, 2, 48, 70
4, 1284960, Note_on_c, 2, 60, 70
4, 1287840, Note_on_c, 2, 60, 0
4, 1287840, Note_on_c, 2, 48, 0
4, 1287840, Note_on_c, 2, 48, 90
4, 1287840, Note_on_c, 2, 60, 90
4, 1288800, Note_on_c, 2, 60, 0
4, 1288800, Note_on_c, 2, 48, 0
4, 1288800, Note_on_c, 2, 48, 70
4, 1288800, Note_on_c, 2, 60, 70
4, 1295040, Note_on_c, 2, 60, 0
4, 1295040, Note_on_c, 2, 48, 0
4, 1295040, Note_on_c, 2, 55, 70
4, 1295520, Note_on_c, 2, 55, 0
4, 1314240, Note_on_c, 2, 48, 70
4, 1314240, Note_on_c, 2, 60, 70
4, 1321920, Note_on_c, 2, 60, 0
4, 1321920, Note_on_c, 2, 48, 0
4, 1321920, Note_on_c, 2, 55, 70
4, 1325760, Note_on_c, 2, 55, 0
4, 1325760, Note_on_c, 2, 52, 70
4, 1325760, Note_on_c, 2, 60, 70
4, 1326240, Note_on_c, 2, 60, 0
4, 1326240, Note_on_c, 2, 52, 0
4, 1364160, Note_on_c, 2, 60, 90
4, 1364160, Note_on_c, 2, 64, 90
4, 1368000, Note_on_c, 2, 64, 0
4, 1368000, Note_on_c, 2, 60, 0
4, 1368000, Note_on_c, 2, 60, 105
4, 1368000, Note_on_c, 2, 65, 105
4, 1368960, Note_on_c, 2, 65, 0
4, 1368960, Note_on_c, 2, 60, 0
4, 1368960, Note_on_c, 2, 55, 105
4, 1368960, Note_on_c, 2, 62, 105
4, 1369920, Note_on_c, 2, 62, 0
4, 1369920, Note_on_c, 2, 55, 0
4, 1369920, Note_on_c, 2, 55, 105
4, 1369920, Note_on_c, 2, 64, 105
4, 1370880, Note_on_c, 2, 64, 0
4, 1370880, Note_on_c, 2, 55, 0
4, 1370880, Note_on_c, 2, 48, 105
4, 1370880, Note_on_c, 2, 60, 105
4, 1371840, Note_on_c, 2, 60, 0
4, 1371840, Note_on_c, 2, 48, 0
4, 1371840, Note_on_c, 2, 60, 105
4, 1371840, Note_on_c, 2, 64, 105
4, 1372800, Note_on_c, 2, 64, 0
4, 1372800, Note_on_c, 2, 60, 0
4, 1375680, Note_on_c, 2, 60, 101
4, 1376160, Note_on_c, 2, 60, 0
4, 1377600, Note_on_c, 2, 55, 84
4, 1378080, Note_on_c, 2, 55, 0
4, 1379520, Note_on_c, 2, 60, 105
4, 1379520, Note_on_c, 2, 64, 105
4, 1381440, Note_on_c, 2, 64, 0
4, 1381440, Note_on_c, 2, 60, 0
4, 1381440, Note_on_c, 2, 55, 105
4, 1381440, Note_on_c, 2, 62, 105
4, 1383360, Note_on_c, 2, 62, 0
4, 1383360, Note_on_c, 2, 55, 0
4, 1383360, Note_on_c, 2, 60, 105
4, 1383840, Note_on_c, 2, 60, 0
4, 1383840, Note_on_c, 2, 60, 105
4, 1383840, Note_on_c, 2, 64, 105
4, 1384320, Note_on_c, 2, 64, 0
4, 1384320, Note_on_c, 2, 60, 0
4, 1384800, Note_on_c, 2, 60, 105
4, 1384800, Note_on_c, 2, 64, 105
4, 1385280, Note_on_c, 2, 64, 0
4, 1385280, Note_on_c, 2, 60, 0
4, 1385760, Note_on_c, 2, 60, 105
4, 1385760, Note_on_c, 2, 62, 105
4, 1386240, Note_on_c, 2, 62, 0
4, 1386240, Note_on_c, 2, 60, 0
4, 1386720, Note_on_c, 2, 55, 105
4, 1386720, Note_on_c, 2, 62, 105
4, 1387200, Note_on_c, 2, 62, 0
4, 1387200, Note_on_c, 2, 55, 0
4, 1387200, Note_on_c, 2, 48, 105
4, 1387200, Note_on_c, 2, 60, 105
4, 1388160, Note_on_c, 2, 60, 0
4, 1388160, Note_on_c, 2, 48, 0
4, 1403520, Note_on_c, 2, 60, 78
4, 1403520, Note_on_c, 2, 64, 78
4, 1404000, Note_on_c, 2, 64, 0
4, 1404000, Note_on_c, 2, 60, 0
4, 1404000, Note_on_c, 2, 60, 78
4, 1404000, Note_on_c, 2, 64, 78
4, 1404480, Note_on_c, 2, 64, 0
4, 1404480, Note_on_c, 2, 60, 0
4, 1404480, Note_on_c, 2, 60, 78
4, 1404480, Note_on_c, 2, 64, 78
4, 1405440, Note_on_c, 2, 64, 0
4, 1405440, Note_on_c, 2, 60, 0
4, 1405440, Note_on_c, 2, 67, 78
4, 1405680, Note_on_c, 2, 67, 0
4, 1405680, Note_on_c, 2, 62, 78
4, 1405680, Note_on_c, 2, 65, 78
4, 1405920, Note_on_c, 2, 65, 0
4, 1405920, Note_on_c, 2, 62, 0
4, 1405920, Note_on_c, 2, 60, 78
4, 1405920, Note_on_c, 2, 64, 78
4, 1406160, Note_on_c, 2, 64, 0
4, 1406160, Note_on_c, 2, 60, 0
4, 1406160, Note_on_c, 2, 62, 78
4, 1406160, Note_on_c, 2, 65, 78
4, 1406400, Note_on_c, 2, 65, 0
4, 1406400, Note_on_c, 2, 62, 0
4, 1406400, Note_on_c, 2, 64, 78
4, 1406400, Note_on_c, 2, 67, 78
4, 1406880, Note_on_c, 2, 67, 0
4, 1406880, Note_on_c, 2, 64, 0
4, 1411200, Note_on_c, 2, 52, 81
4, 1411200, Note_on_c, 2, 60, 81
4, 1411680, Note_on_c, 2, 60, 0
4, 1411680, Note_on_c, 2, 52, 0
4, 1411680, Note_on_c, 2, 52, 81
4, 1411680, Note_on_c, 2, 60, 81
4, 1412160, Note_on_c, 2, 60, 0
4, 1412160, Note_on_c, 2, 52, 0
4, 1412160, Note_on_c, 2, 52, 81
4, 1412160, Note_on_c, 2, 60, 81
4, 1413120, Note_on_c, 2, 60, 0
4, 1413120, Note_on_c, 2, 52, 0
4, 1413120, Note_on_c, 2, 55, 81
4, 1413120, Note_on_c, 2, 62, 81
4, 1414080, Note_on_c, 2, 62, 0
4, 1414080, Note_on_c, 2, 55, 0
4, 1414080, Note_on_c, 2, 60, 81
4, 1414080, Note_on_c, 2, 64, 81
4, 1415040, Note_on_c, 2, 64, 0
4, 1415040, Note_on_c, 2, 60, 0
4, 1415040, Note_on_c, 2, 62, 81
4, 1415040, Note_on_c, 2, 65, 81
4, 1416000, Note_on_c, 2, 65, 0
4, 1416000, Note_on_c, 2, 62, 0
4, 1416000, Note_on_c, 2, 64, 81
4, 1416000, Note_on_c, 2, 67, 81
4, 1416960, Note_on_c, 2, 67, 0
4, 1416960, Note_on_c, 2, 64, 0
4, 1416960, Note_on_c, 2, 64, 78
4, 1416960, Note_on_c, 2, 67, 78
4, 1417200, Note_on_c, 2, 67, 0
4, 1417200, Note_on_c, 2, 64, 0
4, 1417200, Note_on_c, 2, 62, 78
4, 1417200, Note_on_c, 2, 65, 78
4, 1417440, Note_on_c, 2, 65, 0
4, 1417440, Note_on_c, 2, 62, 0
4, 1417440, Note_on_c, 2, 60, 78
4, 1417440, Note_on_c, 2, 64, 78
4, 1417680, Note_on_c, 2, 64, 0
4, 1417680, Note_on_c, 2, 60, 0
4, 1417680, Note_on_c, 2, 55, 78
4, 1417680, Note_on_c, 2, 62, 78
4, 1417920, Note_on_c, 2, 62, 0
4, 1417920, Note_on_c, 2, 55, 0
4, 1417920, Note_on_c, 2, 52, 94
4, 1417920, Note_on_c, 2, 60, 94
4, 1419840, Note_on_c, 2, 60, 0
4, 1419840, Note_on_c, 2, 52, 0
4, 1419840, Note_on_c, 2, 55, 102
4, 1419840, Note_on_c, 2, 62, 102
4, 1421760, Note_on_c, 2, 62, 0
4, 1421760, Note_on_c, 2, 55, 0
4, 1421760, Note_on_c, 2, 60, 102
4, 1421760, Note_on_c, 2, 64, 102
4, 1422480, Note_on_c, 2, 64, 0
4, 1422480, Note_on_c, 2, 60, 0
4, 1422480, Note_on_c, 2, 62, 79
4, 1422720, Note_on_c, 2, 62, 0
4, 1422720, Note_on_c, 2, 52, 79
4, 1422720, Note_on_c, 2, 60, 79
4, 1423200, Note_on_c, 2, 60, 0
4, 1423200, Note_on_c, 2, 52, 0
4, 1423200, Note_on_c, 2, 55, 79
4, 1423200, Note_on_c, 2, 62, 79
4, 1423680, Note_on_c, 2, 62, 0
4, 1423680, Note_on_c, 2, 55, 0
4, 1423680, Note_on_c, 2, 60, 79
4, 1423680, Note_on_c, 2, 64, 79
4, 1424400, Note_on_c, 2, 64, 0
4, 1424400, Note_on_c, 2, 60, 0
4, 1424400, Note_on_c, 2, 62, 79
4, 1424640, Note_on_c, 2, 62, 0
4, 1424640, Note_on_c, 2, 52, 79
4, 1424640, Note_on_c, 2, 60, 79
4, 1425120, Note_on_c, 2, 60, 0
4, 1425120, Note_on_c, 2, 52, 0
4, 1425120, Note_on_c, 2, 55, 79
4, 1425120, Note_on_c, 2, 62, 79
4, 1425600, Note_on_c, 2, 62, 0
4, 1425600, Note_on_c, 2, 55, 0
4, 1425600, Note_on_c, 2, 60, 79
4, 1425600, Note_on_c, 2, 64, 79
4, 1426320, Note_on_c, 2, 64, 0
4, 1426320, Note_on_c, 2, 60, 0
4, 1426320, Note_on_c, 2, 62, 79
4, 1426560, Note_on_c, 2, 62, 0
4, 1426560, Note_on_c, 2, 52, 79
4, 1426560, Note_on_c, 2, 60, 79
4, 1427040, Note_on_c, 2, 60, 0
4, 1427040, Note_on_c, 2, 52, 0
4, 1427040, Note_on_c, 2, 55, 79
4, 1427040, Note_on_c, 2, 62, 79
4, 1427520, Note_on_c, 2, 62, 0
4, 1427520, Note_on_c, 2, 55, 0
4, 1427520, Note_on_c, 2, 52, 79
4, 1427520, Note_on_c, 2, 60, 79
4, 1428000, Note_on_c, 2, 60, 0
4, 1428000, Note_on_c, 2, 52, 0
4, 1429920, Note_on_c, 2, 48, 105
4, 1429920, Note_on_c, 2, 60, 105
4, 1430400, Note_on_c, 2, 60, 0
4, 1430400, Note_on_c, 2, 48, 0
4, 1430400, Note_on_c, 2, 52, 105
4, 1430400, Note_on_c, 2, 64, 105
4, 1430880, Note_on_c, 2, 64, 0
4, 1430880, Note_on_c, 2, 52, 0
4, 1430880, Note_on_c, 2, 55, 105
4, 1430880, Note_on_c, 2, 67, 105
4, 1431360, Note_on_c, 2, 67, 0
4, 1431360, Note_on_c, 2, 55, 0
4, 1431840, Note_on_c, 2, 48, 105
4, 1431840, Note_on_c, 2, 60, 105
4, 1432320, Note_on_c, 2, 60, 0
4, 1432320, Note_on_c, 2, 48, 0
4, 1432320, Note_on_c, 2, 52, 105
4, 1432320, Note_on_c, 2, 64, 105
4, 1432800, Note_on_c, 2, 64, 0
4, 1432800, Note_on_c, 2, 52, 0
4, 1432800, Note_on_c, 2, 55, 105
4, 1432800, Note_on_c, 2, 67, 105
4, 1433280, Note_on_c, 2, 67, 0
4, 1433280, Note_on_c, 2, 55, 0
4, 1433280, Note_on_c, 2, 60, 105
4, 1433280, Note_on_c, 2, 64, 105
4, 1434240, Note_on_c, 2, 64, 0
4, 1434240, Note_on_c, 2, 60, 0
4, 1434240, Note_on_c, 2, 60, 105
4, 1434240, Note_on_c, 2, 64, 105
4, 1435200, Note_on_c, 2, 64, 0
4, 1435200, Note_on_c, 2, 60, 0
4, 1435200, Note_on_c, 2, 60, 105
4, 1435200, Note_on_c, 2, 64, 105
4, 1436160, Note_on_c, 2, 64, 0
4, 1436160, Note_on_c, 2, 60, 0
4, 1436160, End_track
5, 0, Start_track
5, 0, MIDI_port, 0
5, 0, Title_t, "Flute"
5, 0, Control_c, 3, 0, 0
5, 0, Control_c, 3, 32, 1
5, 0, Program_c, 3, 73
5, 0, Control_c, 3, 7, 100
5, 0, Control_c, 3, 10, 60
5, 1920, Control_c, 3, 0, 0
5, 1920, Control_c, 3, 32, 2
5, 1920, Program_c, 3, 73
5, 1920, Note_on_c, 3, 84, 105
5, 2640, Note_on_c, 3, 84, 0
5, 2640, Note_on_c, 3, 79, 105
5, 2880, Note_on_c, 3, 79, 0
5, 2880, Note_on_c, 3, 76, 105
5, 3120, Note_on_c, 3, 76, 0
5, 3120, Note_on_c, 3, 72, 105
5, 3360, Note_on_c, 3, 72, 0
5, 3360, Note_on_c, 3, 76, 105
5, 3600, Note_on_c, 3, 76, 0
5, 3600, Note_on_c, 3, 79, 105
5, 3840, Note_on_c, 3, 79, 0
5, 3840, Note_on_c, 3, 84, 105
5, 4560, Note_on_c, 3, 84, 0
5, 4560, Note_on_c, 3, 79, 105
5, 4800, Note_on_c, 3, 79, 0
5, 4800, Note_on_c, 3, 76, 105
5, 5040, Note_on_c, 3, 76, 0
5, 5040, Note_on_c, 3, 72, 105
5, 5280, Note_on_c, 3, 72, 0
5, 5280, Note_on_c, 3, 76, 105
5, 5520, Note_on_c, 3, 76, 0
5, 5520, Note_on_c, 3, 79, 105
5, 5760, Note_on_c, 3, 79, 0
5, 5760, Note_on_c, 3, 84, 105
5, 6240, Note_on_c, 3, 84, 0
5, 84480, Note_on_c, 3, 84, 105
5, 85200, Note_on_c, 3, 84, 0
5, 85200, Note_on_c, 3, 79, 105
5, 85440, Note_on_c, 3, 79, 0
5, 85440, Note_on_c, 3, 76, 105
5, 85680, Note_on_c, 3, 76, 0
5, 85680, Note_on_c, 3, 72, 105
5, 85920, Note_on_c, 3, 72, 0
5, 85920, Note_on_c, 3, 76, 105
5, 86160, Note_on_c, 3, 76, 0
5, 86160, Note_on_c, 3, 79, 105
5, 86400, Note_on_c, 3, 79, 0
5, 86400, Note_on_c, 3, 84, 105
5, 87120, Note_on_c, 3, 84, 0
5, 87120, Note_on_c, 3, 79, 105
5, 87360, Note_on_c, 3, 79, 0
5, 87360, Note_on_c, 3, 76, 105
5, 87600, Note_on_c, 3, 76, 0
5, 87600, Note_on_c, 3, 72, 105
5, 87840, Note_on_c, 3, 72, 0
5, 87840, Note_on_c, 3, 76, 105
5, 88080, Note_on_c, 3, 76, 0
5, 88080, Note_on_c, 3, 79, 105
5, 88320, Note_on_c, 3, 79, 0
5, 88320, Note_on_c, 3, 84, 105
5, 88759, Note_on_c, 3, 84, 0
5, 88800, Note_on_c, 3, 72, 70
5, 89280, Note_on_c, 3, 71, 70
5, 89349, Note_on_c, 3, 72, 0
5, 89760, Note_on_c, 3, 72, 70
5, 89804, Note_on_c, 3, 71, 0
5, 90199, Note_on_c, 3, 72, 0
5, 90240, Note_on_c, 3, 74, 105
5, 90432, Note_on_c, 3, 74, 0
5, 90720, Note_on_c, 3, 74, 70
5, 91200, Note_on_c, 3, 73, 70
5, 91289, Note_on_c, 3, 74, 0
5, 91680, Note_on_c, 3, 74, 70
5, 91749, Note_on_c, 3, 73, 0
5, 92099, Note_on_c, 3, 74, 0
5, 92160, Note_on_c, 3, 76, 105
5, 92352, Note_on_c, 3, 76, 0
5, 92640, Note_on_c, 3, 76, 70
5, 93120, Note_on_c, 3, 75, 70
5, 93199, Note_on_c, 3, 76, 0
5, 93600, Note_on_c, 3, 76, 70
5, 93689, Note_on_c, 3, 75, 0
5, 94019, Note_on_c, 3, 76, 0
5, 94080, Note_on_c, 3, 77, 80
5, 94560, Note_on_c, 3, 79, 80
5, 94629, Note_on_c, 3, 77, 0
5, 95040, Note_on_c, 3, 81, 90
5, 95159, Note_on_c, 3, 79, 0
5, 95520, Note_on_c, 3, 83, 90
5, 95609, Note_on_c, 3, 81, 0
5, 95899, Note_on_c, 3, 83, 0
5, 96000, Note_on_c, 3, 84, 105
5, 97859, Note_on_c, 3, 84, 0
5, 97920, Note_on_c, 3, 79, 105
5, 99779, Note_on_c, 3, 79, 0
5, 99840, Note_on_c, 3, 72, 105
5, 101689, Note_on_c, 3, 72, 0
5, 101760, Note_on_c, 3, 67, 105
5, 103599, Note_on_c, 3, 67, 0
5, 103680, Note_on_c, 3, 72, 105
5, 103920, Note_on_c, 3, 72, 0
5, 103920, Note_on_c, 3, 74, 105
5, 104040, Note_on_c, 3, 74, 0
5, 104040, Note_on_c, 3, 76, 105
5, 104160, Note_on_c, 3, 76, 0
5, 104160, Note_on_c, 3, 77, 105
5, 104280, Note_on_c, 3, 77, 0
5, 104280, Note_on_c, 3, 79, 105
5, 104400, Note_on_c, 3, 79, 0
5, 104400, Note_on_c, 3, 81, 105
5, 104520, Note_on_c, 3, 81, 0
5, 104520, Note_on_c, 3, 83, 105
5, 104640, Note_on_c, 3, 83, 0
5, 104640, Note_on_c, 3, 84, 105
5, 104760, Note_on_c, 3, 84, 0
5, 104760, Note_on_c, 3, 83, 105
5, 104880, Note_on_c, 3, 83, 0
5, 104880, Note_on_c, 3, 84, 105
5, 105000, Note_on_c, 3, 84, 0
5, 105000, Note_on_c, 3, 83, 105
5, 105120, Note_on_c, 3, 83, 0
5, 105120, Note_on_c, 3, 84, 105
5, 105240, Note_on_c, 3, 84, 0
5, 105240, Note_on_c, 3, 83, 105
5, 105360, Note_on_c, 3, 83, 0
5, 105360, Note_on_c, 3, 81, 105
5, 105480, Note_on_c, 3, 81, 0
5, 105480, Note_on_c, 3, 79, 105
5, 105600, Note_on_c, 3, 79, 0
5, 105600, Note_on_c, 3, 81, 105
5, 105689, Note_on_c, 3, 81, 0
5, 105720, Note_on_c, 3, 72, 105
5, 105840, Note_on_c, 3, 72, 0
5, 105840, Note_on_c, 3, 74, 105
5, 105960, Note_on_c, 3, 74, 0
5, 105960, Note_on_c, 3, 76, 105
5, 106080, Note_on_c, 3, 76, 0
5, 106080, Note_on_c, 3, 77, 105
5, 106200, Note_on_c, 3, 77, 0
5, 106200, Note_on_c, 3, 79, 105
5, 106320, Note_on_c, 3, 79, 0
5, 106320, Note_on_c, 3, 81, 105
5, 106440, Note_on_c, 3, 81, 0
5, 106440, Note_on_c, 3, 83, 105
5, 106560, Note_on_c, 3, 83, 0
5, 106560, Note_on_c, 3, 84, 105
5, 106680, Note_on_c, 3, 84, 0
5, 106680, Note_on_c, 3, 83, 105
5, 106800, Note_on_c, 3, 83, 0
5, 106800, Note_on_c, 3, 84, 105
5, 106920, Note_on_c, 3, 84, 0
5, 106920, Note_on_c, 3, 83, 105
5, 107040, Note_on_c, 3, 83, 0
5, 107040, Note_on_c, 3, 86, 105
5, 107160, Note_on_c, 3, 86, 0
5, 107160, Note_on_c, 3, 84, 105
5, 107280, Note_on_c, 3, 84, 0
5, 107280, Note_on_c, 3, 83, 105
5, 107400, Note_on_c, 3, 83, 0
5, 107400, Note_on_c, 3, 81, 105
5, 107520, Note_on_c, 3, 81, 0
5, 107520, Note_on_c, 3, 79, 105
5, 107604, Note_on_c, 3, 79, 0
5, 107640, Note_on_c, 3, 72, 105
5, 107760, Note_on_c, 3, 72, 0
5, 107760, Note_on_c, 3, 74, 105
5, 107880, Note_on_c, 3, 74, 0
5, 107880, Note_on_c, 3, 76, 105
5, 108000, Note_on_c, 3, 76, 0
5, 108000, Note_on_c, 3, 77, 105
5, 108120, Note_on_c, 3, 77, 0
5, 108120, Note_on_c, 3, 79, 105
5, 108240, Note_on_c, 3, 79, 0
5, 108240, Note_on_c, 3, 81, 105
5, 108360, Note_on_c, 3, 81, 0
5, 108360, Note_on_c, 3, 83, 105
5, 108480, Note_on_c, 3, 83, 0
5, 108480, Note_on_c, 3, 84, 105
5, 108600, Note_on_c, 3, 84, 0
5, 108600, Note_on_c, 3, 86, 105
5, 108720, Note_on_c, 3, 86, 0
5, 108720, Note_on_c, 3, 88, 105
5, 108840, Note_on_c, 3, 88, 0
5, 108840, Note_on_c, 3, 86, 105
5, 108960, Note_on_c, 3, 86, 0
5, 108960, Note_on_c, 3, 84, 105
5, 109080, Note_on_c, 3, 84, 0
5, 109080, Note_on_c, 3, 83, 105
5, 109200, Note_on_c, 3, 83, 0
5, 109200, Note_on_c, 3, 81, 105
5, 109320, Note_on_c, 3, 81, 0
5, 109320, Note_on_c, 3, 79, 105
5, 109404, Note_on_c, 3, 79, 0
5, 109440, Note_on_c, 3, 79, 105
5, 109560, Note_on_c, 3, 77, 105
5, 109589, Note_on_c, 3, 79, 0
5, 109680, Note_on_c, 3, 81, 105
5, 109699, Note_on_c, 3, 77, 0
5, 109800, Note_on_c, 3, 77, 105
5, 109824, Note_on_c, 3, 81, 0
5, 109904, Note_on_c, 3, 77, 0
5, 109920, Note_on_c, 3, 76, 105
5, 110834, Note_on_c, 3, 76, 0
5, 110880, Note_on_c, 3, 76, 105
5, 110950, Note_on_c, 3, 74, 105
5, 110964, Note_on_c, 3, 76, 0
5, 110982, Note_on_c, 3, 74, 0
5, 110990, Note_on_c, 3, 76, 105
5, 111018, Note_on_c, 3, 76, 0
5, 111020, Note_on_c, 3, 74, 105
5, 111052, Note_on_c, 3, 74, 0
5, 111060, Note_on_c, 3, 76, 105
5, 111088, Note_on_c, 3, 76, 0
5, 111088, Note_on_c, 3, 74, 105
5, 111120, Note_on_c, 3, 74, 0
5, 111120, Note_on_c, 3, 72, 105
5, 111240, Note_on_c, 3, 72, 0
5, 111240, Note_on_c, 3, 74, 105
5, 111360, Note_on_c, 3, 74, 0
5, 111360, Note_on_c, 3, 72, 105
5, 111840, Note_on_c, 3, 72, 0
5, 119040, Note_on_c, 3, 72, 105
5, 119280, Note_on_c, 3, 88, 105
5, 119324, Note_on_c, 3, 72, 0
5, 119669, Note_on_c, 3, 88, 0
5, 119760, Note_on_c, 3, 86, 105
5, 119974, Note_on_c, 3, 86, 0
5, 120000, Note_on_c, 3, 69, 105
5, 120240, Note_on_c, 3, 84, 105
5, 120309, Note_on_c, 3, 69, 0
5, 120649, Note_on_c, 3, 84, 0
5, 120720, Note_on_c, 3, 83, 105
5, 120939, Note_on_c, 3, 83, 0
5, 120960, Note_on_c, 3, 65, 105
5, 121200, Note_on_c, 3, 81, 105
5, 121279, Note_on_c, 3, 65, 0
5, 121599, Note_on_c, 3, 81, 0
5, 121680, Note_on_c, 3, 79, 105
5, 121894, Note_on_c, 3, 79, 0
5, 121920, Note_on_c, 3, 77, 105
5, 122049, Note_on_c, 3, 77, 0
5, 122160, Note_on_c, 3, 76, 105
5, 122279, Note_on_c, 3, 76, 0
5, 122400, Note_on_c, 3, 74, 105
5, 122549, Note_on_c, 3, 74, 0
5, 122640, Note_on_c, 3, 72, 105
5, 122769, Note_on_c, 3, 72, 0
5, 122880, Note_on_c, 3, 79, 105
5, 125040, Note_on_c, 3, 79, 0
5, 125040, Note_on_c, 3, 79, 105
5, 125136, Note_on_c, 3, 79, 0
5, 125280, Note_on_c, 3, 81, 105
5, 125376, Note_on_c, 3, 81, 0
5, 125520, Note_on_c, 3, 83, 105
5, 125616, Note_on_c, 3, 83, 0
5, 125760, Note_on_c, 3, 84, 105
5, 125856, Note_on_c, 3, 84, 0
5, 126000, Note_on_c, 3, 86, 105
5, 126096, Note_on_c, 3, 86, 0
5, 126240, Note_on_c, 3, 88, 105
5, 126336, Note_on_c, 3, 88, 0
5, 126480, Note_on_c, 3, 90, 105
5, 126576, Note_on_c, 3, 90, 0
5, 126720, Note_on_c, 3, 91, 105
5, 127200, Note_on_c, 3, 91, 0
5, 130500, Note_on_c, 3, 74, 105
5, 130560, Note_on_c, 3, 86, 105
5, 130609, Note_on_c, 3, 74, 0
5, 131489, Note_on_c, 3, 86, 0
5, 131520, Note_on_c, 3, 83, 105
5, 131760, Note_on_c, 3, 83, 0
5, 131760, Note_on_c, 3, 84, 105
5, 131820, Note_on_c, 3, 84, 0
5, 131820, Note_on_c, 3, 83, 105
5, 131880, Note_on_c, 3, 83, 0
5, 131880, Note_on_c, 3, 81, 105
5, 132000, Note_on_c, 3, 83, 105
5, 132049, Note_on_c, 3, 81, 0
5, 132209, Note_on_c, 3, 83, 0
5, 132240, Note_on_c, 3, 84, 105
5, 132354, Note_on_c, 3, 84, 0
5, 132480, Note_on_c, 3, 88, 105
5, 132720, Note_on_c, 3, 86, 105
5, 132769, Note_on_c, 3, 88, 0
5, 132879, Note_on_c, 3, 86, 0
5, 132960, Note_on_c, 3, 86, 105
5, 133839, Note_on_c, 3, 86, 0
5, 133920, Note_on_c, 3, 84, 105
5, 134040, Note_on_c, 3, 84, 0
5, 134040, Note_on_c, 3, 83, 105
5, 134160, Note_on_c, 3, 83, 0
5, 134160, Note_on_c, 3, 81, 105
5, 134280, Note_on_c, 3, 81, 0
5, 134280, Note_on_c, 3, 79, 105
5, 134379, Note_on_c, 3, 79, 0
5, 134400, Note_on_c, 3, 79, 105
5, 134640, Note_on_c, 3, 88, 105
5, 134694, Note_on_c, 3, 79, 0
5, 134829, Note_on_c, 3, 88, 0
5, 134880, Note_on_c, 3, 88, 105
5, 136320, Note_on_c, 3, 88, 0
5, 136320, Note_on_c, 3, 86, 105
5, 136800, Note_on_c, 3, 86, 0
5, 136800, Note_on_c, 3, 79, 105
5, 137280, Note_on_c, 3, 79, 0
5, 137280, Note_on_c, 3, 81, 105
5, 138000, Note_on_c, 3, 83, 105
5, 138049, Note_on_c, 3, 81, 0
5, 138120, Note_on_c, 3, 84, 105
5, 138164, Note_on_c, 3, 83, 0
5, 138219, Note_on_c, 3, 84, 0
5, 138240, Note_on_c, 3, 83, 105
5, 138720, Note_on_c, 3, 83, 0
5, 140160, Note_on_c, 3, 74, 105
5, 141360, Note_on_c, 3, 74, 0
5, 141360, Note_on_c, 3, 76, 105
5, 141480, Note_on_c, 3, 76, 0
5, 141480, Note_on_c, 3, 74, 105
5, 141600, Note_on_c, 3, 74, 0
5, 141600, Note_on_c, 3, 72, 105
5, 141720, Note_on_c, 3, 72, 0
5, 141720, Note_on_c, 3, 71, 105
5, 141840, Note_on_c, 3, 71, 0
5, 141840, Note_on_c, 3, 69, 105
5, 141960, Note_on_c, 3, 69, 0
5, 141960, Note_on_c, 3, 67, 105
5, 142049, Note_on_c, 3, 67, 0
5, 142080, Note_on_c, 3, 67, 105
5, 142320, Note_on_c, 3, 76, 105
5, 142359, Note_on_c, 3, 67, 0
5, 142539, Note_on_c, 3, 76, 0
5, 142560, Note_on_c, 3, 76, 105
5, 143239, Note_on_c, 3, 76, 0
5, 143280, Note_on_c, 3, 79, 105
5, 143520, Note_on_c, 3, 78, 105
5, 143589, Note_on_c, 3, 79, 0
5, 143760, Note_on_c, 3, 76, 105
5, 143829, Note_on_c, 3, 78, 0
5, 143949, Note_on_c, 3, 76, 0
5, 144000, Note_on_c, 3, 76, 105
5, 144240, Note_on_c, 3, 74, 105
5, 144284, Note_on_c, 3, 76, 0
5, 144449, Note_on_c, 3, 74, 0
5, 144480, Note_on_c, 3, 72, 105
5, 144600, Note_on_c, 3, 71, 105
5, 144654, Note_on_c, 3, 72, 0
5, 144720, Note_on_c, 3, 69, 105
5, 144749, Note_on_c, 3, 71, 0
5, 144840, Note_on_c, 3, 67, 105
5, 144889, Note_on_c, 3, 69, 0
5, 144949, Note_on_c, 3, 67, 0
5, 144960, Note_on_c, 3, 69, 105
5, 145680, Note_on_c, 3, 71, 105
5, 145719, Note_on_c, 3, 69, 0
5, 145800, Note_on_c, 3, 72, 105
5, 145849, Note_on_c, 3, 71, 0
5, 145894, Note_on_c, 3, 72, 0
5, 145920, Note_on_c, 3, 71, 105
5, 146040, Note_on_c, 3, 71, 0
5, 146040, Note_on_c, 3, 74, 105
5, 146160, Note_on_c, 3, 74, 0
5, 146160, Note_on_c, 3, 76, 105
5, 146280, Note_on_c, 3, 76, 0
5, 146280, Note_on_c, 3, 78, 105
5, 146400, Note_on_c, 3, 78, 0
5, 146400, Note_on_c, 3, 79, 105
5, 146520, Note_on_c, 3, 79, 0
5, 146520, Note_on_c, 3, 81, 105
5, 146640, Note_on_c, 3, 81, 0
5, 146640, Note_on_c, 3, 83, 105
5, 146760, Note_on_c, 3, 83, 0
5, 146760, Note_on_c, 3, 84, 105
5, 146880, Note_on_c, 3, 84, 0
5, 146880, Note_on_c, 3, 86, 105
5, 147084, Note_on_c, 3, 86, 0
5, 147120, Note_on_c, 3, 86, 105
5, 147600, Note_on_c, 3, 86, 0
5, 147600, Note_on_c, 3, 84, 105
5, 147714, Note_on_c, 3, 84, 0
5, 147720, Note_on_c, 3, 83, 105
5, 147814, Note_on_c, 3, 83, 0
5, 147840, Note_on_c, 3, 83, 105
5, 148080, Note_on_c, 3, 81, 105
5, 148149, Note_on_c, 3, 83, 0
5, 148289, Note_on_c, 3, 81, 0
5, 148320, Note_on_c, 3, 81, 105
5, 149040, Note_on_c, 3, 81, 0
5, 149040, Note_on_c, 3, 83, 105
5, 149160, Note_on_c, 3, 83, 0
5, 149160, Note_on_c, 3, 81, 105
5, 149280, Note_on_c, 3, 81, 0
5, 149280, Note_on_c, 3, 81, 105
5, 149400, Note_on_c, 3, 81, 0
5, 149400, Note_on_c, 3, 79, 105
5, 149520, Note_on_c, 3, 79, 0
5, 149520, Note_on_c, 3, 78, 105
5, 149640, Note_on_c, 3, 78, 0
5, 149640, Note_on_c, 3, 79, 105
5, 149760, Note_on_c, 3, 79, 0
5, 149760, Note_on_c, 3, 78, 105
5, 150240, Note_on_c, 3, 78, 0
5, 153360, Note_on_c, 3, 62, 105
5, 153574, Note_on_c, 3, 62, 0
5, 153600, Note_on_c, 3, 86, 115
5, 154080, Note_on_c, 3, 83, 105
5, 154149, Note_on_c, 3, 86, 0
5, 154259, Note_on_c, 3, 83, 0
5, 154560, Note_on_c, 3, 83, 117
5, 155040, Note_on_c, 3, 79, 105
5, 155129, Note_on_c, 3, 83, 0
5, 155239, Note_on_c, 3, 79, 0
5, 155520, Note_on_c, 3, 79, 117
5, 156000, Note_on_c, 3, 74, 105
5, 156094, Note_on_c, 3, 79, 0
5, 156179, Note_on_c, 3, 74, 0
5, 156480, Note_on_c, 3, 71, 115
5, 156960, Note_on_c, 3, 67, 105
5, 157044, Note_on_c, 3, 71, 0
5, 157149, Note_on_c, 3, 67, 0
5, 157440, Note_on_c, 3, 62, 105
5, 157920, Note_on_c, 3, 62, 0
5, 159840, Note_on_c, 3, 62, 105
5, 160379, Note_on_c, 3, 62, 0
5, 160440, Note_on_c, 3, 74, 105
5, 160506, Note_on_c, 3, 74, 0
5, 160560, Note_on_c, 3, 76, 105
5, 160626, Note_on_c, 3, 76, 0
5, 160680, Note_on_c, 3, 78, 105
5, 160746, Note_on_c, 3, 78, 0
5, 160800, Note_on_c, 3, 79, 105
5, 160866, Note_on_c, 3, 79, 0
5, 160920, Note_on_c, 3, 81, 105
5, 160986, Note_on_c, 3, 81, 0
5, 161040, Note_on_c, 3, 83, 105
5, 161106, Note_on_c, 3, 83, 0
5, 161160, Note_on_c, 3, 84, 105
5, 161226, Note_on_c, 3, 84, 0
5, 161280, Note_on_c, 3, 86, 121
5, 161760, Note_on_c, 3, 83, 105
5, 161814, Note_on_c, 3, 86, 0
5, 161929, Note_on_c, 3, 83, 0
5, 162240, Note_on_c, 3, 83, 117
5, 162720, Note_on_c, 3, 79, 105
5, 162799, Note_on_c, 3, 83, 0
5, 162909, Note_on_c, 3, 79, 0
5, 163200, Note_on_c, 3, 79, 119
5, 163680, Note_on_c, 3, 74, 105
5, 163759, Note_on_c, 3, 79, 0
5, 163859, Note_on_c, 3, 74, 0
5, 164160, Note_on_c, 3, 71, 120
5, 164640, Note_on_c, 3, 67, 105
5, 164709, Note_on_c, 3, 71, 0
5, 164814, Note_on_c, 3, 67, 0
5, 165120, Note_on_c, 3, 62, 105
5, 165600, Note_on_c, 3, 62, 0
5, 170880, Note_on_c, 3, 79, 105
5, 172744, Note_on_c, 3, 79, 0
5, 172800, Note_on_c, 3, 74, 105
5, 174649, Note_on_c, 3, 74, 0
5, 174720, Note_on_c, 3, 67, 105
5, 175200, Note_on_c, 3, 67, 0
5, 175680, Note_on_c, 3, 74, 105
5, 175776, Note_on_c, 3, 74, 0
5, 175920, Note_on_c, 3, 76, 105
5, 176016, Note_on_c, 3, 76, 0
5, 176160, Note_on_c, 3, 78, 105
5, 176256, Note_on_c, 3, 78, 0
5, 176400, Note_on_c, 3, 79, 105
5, 176496, Note_on_c, 3, 79, 0
5, 176640, Note_on_c, 3, 79, 105
5, 176880, Note_on_c, 3, 78, 105
5, 176959, Note_on_c, 3, 79, 0
5, 177120, Note_on_c, 3, 76, 105
5, 177179, Note_on_c, 3, 78, 0
5, 177360, Note_on_c, 3, 74, 105
5, 177404, Note_on_c, 3, 76, 0
5, 177544, Note_on_c, 3, 74, 0
5, 177600, Note_on_c, 3, 74, 105
5, 177720, Note_on_c, 3, 74, 0
5, 177720, Note_on_c, 3, 72, 105
5, 177840, Note_on_c, 3, 72, 0
5, 177840, Note_on_c, 3, 71, 105
5, 177960, Note_on_c, 3, 71, 0
5, 177960, Note_on_c, 3, 72, 105
5, 178080, Note_on_c, 3, 72, 0
5, 178080, Note_on_c, 3, 76, 105
5, 178320, Note_on_c, 3, 76, 0
5, 178320, Note_on_c, 3, 72, 105
5, 178560, Note_on_c, 3, 72, 0
5, 178560, Note_on_c, 3, 70, 105
5, 178800, Note_on_c, 3, 70, 0
5, 178800, Note_on_c, 3, 71, 105
5, 179040, Note_on_c, 3, 71, 0
5, 179280, Note_on_c, 3, 71, 105
5, 179346, Note_on_c, 3, 71, 0
5, 179400, Note_on_c, 3, 72, 105
5, 179466, Note_on_c, 3, 72, 0
5, 179520, Note_on_c, 3, 74, 105
5, 179616, Note_on_c, 3, 74, 0
5, 179760, Note_on_c, 3, 76, 105
5, 179856, Note_on_c, 3, 76, 0
5, 180000, Note_on_c, 3, 78, 105
5, 180096, Note_on_c, 3, 78, 0
5, 180240, Note_on_c, 3, 79, 105
5, 180336, Note_on_c, 3, 79, 0
5, 180480, Note_on_c, 3, 79, 105
5, 180720, Note_on_c, 3, 78, 105
5, 180779, Note_on_c, 3, 79, 0
5, 180960, Note_on_c, 3, 76, 105
5, 181039, Note_on_c, 3, 78, 0
5, 181200, Note_on_c, 3, 74, 105
5, 181269, Note_on_c, 3, 76, 0
5, 181379, Note_on_c, 3, 74, 0
5, 181440, Note_on_c, 3, 74, 105
5, 181560, Note_on_c, 3, 74, 0
5, 181560, Note_on_c, 3, 72, 105
5, 181680, Note_on_c, 3, 72, 0
5, 181680, Note_on_c, 3, 71, 105
5, 181800, Note_on_c, 3, 71, 0
5, 181800, Note_on_c, 3, 72, 105
5, 181920, Note_on_c, 3, 72, 0
5, 181920, Note_on_c, 3, 76, 105
5, 182160, Note_on_c, 3, 76, 0
5, 182160, Note_on_c, 3, 72, 105
5, 182400, Note_on_c, 3, 72, 0
5, 182400, Note_on_c, 3, 71, 105
5, 182584, Note_on_c, 3, 71, 0
5, 182640, Note_on_c, 3, 79, 105
5, 183120, Note_on_c, 3, 77, 105
5, 183239, Note_on_c, 3, 79, 0
5, 183600, Note_on_c, 3, 76, 105
5, 183704, Note_on_c, 3, 77, 0
5, 184080, Note_on_c, 3, 74, 105
5, 184164, Note_on_c, 3, 76, 0
5, 184469, Note_on_c, 3, 74, 0
5, 184560, Note_on_c, 3, 72, 105
5, 185040, Note_on_c, 3, 79, 105
5, 185099, Note_on_c, 3, 72, 0
5, 185520, Note_on_c, 3, 77, 105
5, 185609, Note_on_c, 3, 79, 0
5, 186000, Note_on_c, 3, 76, 105
5, 186104, Note_on_c, 3, 77, 0
5, 186419, Note_on_c, 3, 76, 0
5, 186480, Note_on_c, 3, 74, 105
5, 186960, Note_on_c, 3, 79, 105
5, 187049, Note_on_c, 3, 74, 0
5, 187440, Note_on_c, 3, 77, 105
5, 187509, Note_on_c, 3, 79, 0
5, 187920, Note_on_c, 3, 75, 105
5, 187969, Note_on_c, 3, 77, 0
5, 188119, Note_on_c, 3, 75, 0
5, 188160, Note_on_c, 3, 76, 111
5, 188220, Note_on_c, 3, 78, 104
5, 188249, Note_on_c, 3, 76, 0
5, 188280, Note_on_c, 3, 79, 101
5, 188319, Note_on_c, 3, 78, 0
5, 188599, Note_on_c, 3, 79, 0
5, 188640, Note_on_c, 3, 79, 105
5, 188736, Note_on_c, 3, 79, 0
5, 188880, Note_on_c, 3, 79, 105
5, 188976, Note_on_c, 3, 79, 0
5, 189120, Note_on_c, 3, 79, 105
5, 189600, Note_on_c, 3, 79, 0
5, 190080, Note_on_c, 3, 76, 114
5, 190140, Note_on_c, 3, 78, 110
5, 190179, Note_on_c, 3, 76, 0
5, 190200, Note_on_c, 3, 79, 105
5, 190244, Note_on_c, 3, 78, 0
5, 190504, Note_on_c, 3, 79, 0
5, 190560, Note_on_c, 3, 79, 105
5, 190656, Note_on_c, 3, 79, 0
5, 190800, Note_on_c, 3, 79, 105
5, 190896, Note_on_c, 3, 79, 0
5, 191040, Note_on_c, 3, 79, 105
5, 191520, Note_on_c, 3, 79, 0
5, 192000, Note_on_c, 3, 69, 105
5, 192960, Note_on_c, 3, 69, 0
5, 192960, Note_on_c, 3, 84, 105
5, 193920, Note_on_c, 3, 84, 0
5, 193920, Note_on_c, 3, 67, 105
5, 194880, Note_on_c, 3, 67, 0
5, 194880, Note_on_c, 3, 83, 105
5, 195840, Note_on_c, 3, 83, 0
5, 195840, Note_on_c, 3, 81, 105
5, 196080, Note_on_c, 3, 81, 0
5, 196080, Note_on_c, 3, 83, 105
5, 196140, Note_on_c, 3, 83, 0
5, 196140, Note_on_c, 3, 81, 105
5, 196200, Note_on_c, 3, 81, 0
5, 196200, Note_on_c, 3, 80, 105
5, 196320, Note_on_c, 3, 80, 0
5, 196320, Note_on_c, 3, 81, 105
5, 196560, Note_on_c, 3, 81, 0
5, 196560, Note_on_c, 3, 84, 105
5, 196800, Note_on_c, 3, 84, 0
5, 196800, Note_on_c, 3, 83, 105
5, 196896, Note_on_c, 3, 83, 0
5, 197040, Note_on_c, 3, 81, 105
5, 197136, Note_on_c, 3, 81, 0
5, 197280, Note_on_c, 3, 79, 105
5, 197376, Note_on_c, 3, 79, 0
5, 197520, Note_on_c, 3, 78, 105
5, 197616, Note_on_c, 3, 78, 0
5, 197760, Note_on_c, 3, 79, 105
5, 197856, Note_on_c, 3, 79, 0
5, 198000, Note_on_c, 3, 81, 105
5, 198096, Note_on_c, 3, 81, 0
5, 198240, Note_on_c, 3, 83, 105
5, 198336, Note_on_c, 3, 83, 0
5, 198480, Note_on_c, 3, 84, 105
5, 198576, Note_on_c, 3, 84, 0
5, 198720, Note_on_c, 3, 86, 105
5, 199200, Note_on_c, 3, 86, 0
5, 199680, Note_on_c, 3, 72, 105
5, 199919, Note_on_c, 3, 72, 0
5, 199920, Note_on_c, 3, 84, 105
5, 200040, Note_on_c, 3, 84, 0
5, 200040, Note_on_c, 3, 86, 105
5, 200160, Note_on_c, 3, 86, 0
5, 200160, Note_on_c, 3, 88, 105
5, 200280, Note_on_c, 3, 88, 0
5, 200280, Note_on_c, 3, 86, 105
5, 200400, Note_on_c, 3, 86, 0
5, 200400, Note_on_c, 3, 84, 105
5, 200520, Note_on_c, 3, 84, 0
5, 200520, Note_on_c, 3, 83, 105
5, 200640, Note_on_c, 3, 83, 0
5, 200640, Note_on_c, 3, 81, 105
5, 200760, Note_on_c, 3, 81, 0
5, 200760, Note_on_c, 3, 80, 105
5, 200880, Note_on_c, 3, 80, 0
5, 200880, Note_on_c, 3, 81, 105
5, 201000, Note_on_c, 3, 81, 0
5, 201000, Note_on_c, 3, 79, 105
5, 201120, Note_on_c, 3, 79, 0
5, 201120, Note_on_c, 3, 78, 105
5, 201240, Note_on_c, 3, 78, 0
5, 201240, Note_on_c, 3, 76, 105
5, 201360, Note_on_c, 3, 76, 0
5, 201360, Note_on_c, 3, 74, 105
5, 201480, Note_on_c, 3, 74, 0
5, 201480, Note_on_c, 3, 72, 105
5, 201600, Note_on_c, 3, 72, 0
5, 201600, Note_on_c, 3, 71, 105
5, 201789, Note_on_c, 3, 71, 0
5, 201840, Note_on_c, 3, 83, 105
5, 201960, Note_on_c, 3, 83, 0
5, 201960, Note_on_c, 3, 84, 105
5, 202080, Note_on_c, 3, 84, 0
5, 202080, Note_on_c, 3, 86, 105
5, 202200, Note_on_c, 3, 86, 0
5, 202200, Note_on_c, 3, 84, 105
5, 202320, Note_on_c, 3, 84, 0
5, 202320, Note_on_c, 3, 83, 105
5, 202440, Note_on_c, 3, 83, 0
5, 202440, Note_on_c, 3, 81, 105
5, 202560, Note_on_c, 3, 81, 0
5, 202560, Note_on_c, 3, 79, 105
5, 202680, Note_on_c, 3, 79, 0
5, 202680, Note_on_c, 3, 78, 105
5, 202800, Note_on_c, 3, 78, 0
5, 202800, Note_on_c, 3, 79, 105
5, 202920, Note_on_c, 3, 79, 0
5, 202920, Note_on_c, 3, 78, 105
5, 203040, Note_on_c, 3, 78, 0
5, 203040, Note_on_c, 3, 76, 105
5, 203160, Note_on_c, 3, 76, 0
5, 203160, Note_on_c, 3, 74, 105
5, 203280, Note_on_c, 3, 74, 0
5, 203280, Note_on_c, 3, 72, 105
5, 203400, Note_on_c, 3, 72, 0
5, 203400, Note_on_c, 3, 71, 105
5, 203489, Note_on_c, 3, 71, 0
5, 203520, Note_on_c, 3, 69, 105
5, 204240, Note_on_c, 3, 84, 105
5, 204324, Note_on_c, 3, 69, 0
5, 204389, Note_on_c, 3, 84, 0
5, 204480, Note_on_c, 3, 83, 105
5, 204576, Note_on_c, 3, 83, 0
5, 204720, Note_on_c, 3, 81, 105
5, 204816, Note_on_c, 3, 81, 0
5, 204960, Note_on_c, 3, 79, 105
5, 205056, Note_on_c, 3, 79, 0
5, 205200, Note_on_c, 3, 78, 105
5, 205296, Note_on_c, 3, 78, 0
5, 205440, Note_on_c, 3, 79, 105
5, 205920, Note_on_c, 3, 79, 0
5, 206400, Note_on_c, 3, 84, 103
5, 206520, Note_on_c, 3, 84, 0
5, 206520, Note_on_c, 3, 83, 105
5, 206640, Note_on_c, 3, 83, 0
5, 206640, Note_on_c, 3, 81, 107
5, 206760, Note_on_c, 3, 81, 0
5, 206760, Note_on_c, 3, 83, 109
5, 206880, Note_on_c, 3, 83, 0
5, 206880, Note_on_c, 3, 86, 111
5, 207000, Note_on_c, 3, 86, 0
5, 207000, Note_on_c, 3, 84, 113
5, 207120, Note_on_c, 3, 84, 0
5, 207120, Note_on_c, 3, 83, 115
5, 207240, Note_on_c, 3, 83, 0
5, 207240, Note_on_c, 3, 84, 117
5, 207360, Note_on_c, 3, 84, 0
5, 207360, Note_on_c, 3, 86, 119
5, 207600, Note_on_c, 3, 83, 105
5, 207649, Note_on_c, 3, 86, 0
5, 207759, Note_on_c, 3, 83, 0
5, 207840, Note_on_c, 3, 79, 105
5, 207936, Note_on_c, 3, 79, 0
5, 208080, Note_on_c, 3, 79, 105
5, 208176, Note_on_c, 3, 79, 0
5, 208320, Note_on_c, 3, 84, 99
5, 208440, Note_on_c, 3, 84, 0
5, 208440, Note_on_c, 3, 83, 101
5, 208560, Note_on_c, 3, 83, 0
5, 208560, Note_on_c, 3, 81, 104
5, 208680, Note_on_c, 3, 81, 0
5, 208680, Note_on_c, 3, 83, 107
5, 208800, Note_on_c, 3, 83, 0
5, 208800, Note_on_c, 3, 86, 110
5, 208920, Note_on_c, 3, 86, 0
5, 208920, Note_on_c, 3, 84, 112
5, 209040, Note_on_c, 3, 84, 0
5, 209040, Note_on_c, 3, 83, 115
5, 209160, Note_on_c, 3, 83, 0
5, 209160, Note_on_c, 3, 84, 118
5, 209280, Note_on_c, 3, 84, 0
5, 209280, Note_on_c, 3, 86, 121
5, 209520, Note_on_c, 3, 83, 105
5, 209584, Note_on_c, 3, 86, 0
5, 209719, Note_on_c, 3, 83, 0
5, 209760, Note_on_c, 3, 79, 105
5, 209856, Note_on_c, 3, 79, 0
5, 210000, Note_on_c, 3, 79, 105
5, 210096, Note_on_c, 3, 79, 0
5, 210240, Note_on_c, 3, 84, 103
5, 210360, Note_on_c, 3, 84, 0
5, 210360, Note_on_c, 3, 83, 105
5, 210480, Note_on_c, 3, 83, 0
5, 210480, Note_on_c, 3, 81, 105
5, 210600, Note_on_c, 3, 81, 0
5, 210600, Note_on_c, 3, 83, 105
5, 210720, Note_on_c, 3, 83, 0
5, 210720, Note_on_c, 3, 86, 105
5, 210840, Note_on_c, 3, 86, 0
5, 210840, Note_on_c, 3, 84, 105
5, 210960, Note_on_c, 3, 84, 0
5, 210960, Note_on_c, 3, 83, 105
5, 211080, Note_on_c, 3, 83, 0
5, 211080, Note_on_c, 3, 84, 105
5, 211200, Note_on_c, 3, 84, 0
5, 211200, Note_on_c, 3, 86, 105
5, 211296, Note_on_c, 3, 86, 0
5, 211440, Note_on_c, 3, 86, 105
5, 211560, Note_on_c, 3, 88, 105
5, 211609, Note_on_c, 3, 86, 0
5, 211664, Note_on_c, 3, 88, 0
5, 211680, Note_on_c, 3, 84, 105
5, 211776, Note_on_c, 3, 84, 0
5, 211920, Note_on_c, 3, 84, 105
5, 212040, Note_on_c, 3, 86, 105
5, 212089, Note_on_c, 3, 84, 0
5, 212144, Note_on_c, 3, 86, 0
5, 212160, Note_on_c, 3, 83, 105
5, 212256, Note_on_c, 3, 83, 0
5, 212400, Note_on_c, 3, 83, 105
5, 212520, Note_on_c, 3, 84, 105
5, 212579, Note_on_c, 3, 83, 0
5, 212609, Note_on_c, 3, 84, 0
5, 212640, Note_on_c, 3, 81, 105
5, 212736, Note_on_c, 3, 81, 0
5, 212880, Note_on_c, 3, 81, 105
5, 213000, Note_on_c, 3, 83, 105
5, 213049, Note_on_c, 3, 81, 0
5, 213099, Note_on_c, 3, 83, 0
5, 213120, Note_on_c, 3, 79, 105
5, 213240, Note_on_c, 3, 79, 0
5, 213240, Note_on_c, 3, 74, 105
5, 213360, Note_on_c, 3, 74, 0
5, 213360, Note_on_c, 3, 76, 105
5, 213480, Note_on_c, 3, 76, 0
5, 213480, Note_on_c, 3, 78, 105
5, 213600, Note_on_c, 3, 78, 0
5, 213600, Note_on_c, 3, 79, 105
5, 213720, Note_on_c, 3, 79, 0
5, 213720, Note_on_c, 3, 81, 105
5, 213840, Note_on_c, 3, 81, 0
5, 213840, Note_on_c, 3, 83, 105
5, 213960, Note_on_c, 3, 83, 0
5, 213960, Note_on_c, 3, 84, 105
5, 214080, Note_on_c, 3, 84, 0
5, 214080, Note_on_c, 3, 86, 105
5, 221104, Note_on_c, 3, 86, 0
5, 221280, Note_on_c, 3, 71, 105
5, 221729, Note_on_c, 3, 71, 0
5, 221760, Note_on_c, 3, 72, 105
5, 222224, Note_on_c, 3, 72, 0
5, 222240, Note_on_c, 3, 88, 105
5, 222689, Note_on_c, 3, 88, 0
5, 222720, Note_on_c, 3, 86, 105
5, 222960, Note_on_c, 3, 86, 0
5, 222960, Note_on_c, 3, 83, 105
5, 223440, Note_on_c, 3, 79, 105
5, 223524, Note_on_c, 3, 83, 0
5, 223644, Note_on_c, 3, 79, 0
5, 223680, Note_on_c, 3, 84, 105
5, 223909, Note_on_c, 3, 84, 0
5, 223920, Note_on_c, 3, 81, 105
5, 224400, Note_on_c, 3, 78, 105
5, 224484, Note_on_c, 3, 81, 0
5, 224549, Note_on_c, 3, 78, 0
5, 224640, Note_on_c, 3, 86, 116
5, 224760, Note_on_c, 3, 86, 0
5, 224760, Note_on_c, 3, 84, 110
5, 224880, Note_on_c, 3, 84, 0
5, 224880, Note_on_c, 3, 83, 106
5, 225000, Note_on_c, 3, 83, 0
5, 225000, Note_on_c, 3, 81, 101
5, 225120, Note_on_c, 3, 81, 0
5, 225120, Note_on_c, 3, 79, 101
5, 225240, Note_on_c, 3, 79, 0
5, 225240, Note_on_c, 3, 78, 98
5, 225360, Note_on_c, 3, 78, 0
5, 225360, Note_on_c, 3, 76, 99
5, 225480, Note_on_c, 3, 76, 0
5, 225480, Note_on_c, 3, 74, 99
5, 225600, Note_on_c, 3, 74, 0
5, 225600, Note_on_c, 3, 76, 93
5, 225720, Note_on_c, 3, 76, 0
5, 225720, Note_on_c, 3, 78, 95
5, 225840, Note_on_c, 3, 78, 0
5, 225840, Note_on_c, 3, 79, 100
5, 225960, Note_on_c, 3, 79, 0
5, 225960, Note_on_c, 3, 81, 105
5, 226080, Note_on_c, 3, 81, 0
5, 226080, Note_on_c, 3, 83, 109
5, 226200, Note_on_c, 3, 83, 0
5, 226200, Note_on_c, 3, 84, 111
5, 226320, Note_on_c, 3, 84, 0
5, 226320, Note_on_c, 3, 86, 114
5, 226440, Note_on_c, 3, 86, 0
5, 226440, Note_on_c, 3, 88, 117
5, 226560, Note_on_c, 3, 88, 0
5, 226560, Note_on_c, 3, 62, 91
5, 226716, Note_on_c, 3, 62, 0
5, 226716, Note_on_c, 3, 67, 98
5, 226880, Note_on_c, 3, 67, 0
5, 226880, Note_on_c, 3, 71, 103
5, 227040, Note_on_c, 3, 71, 0
5, 227040, Note_on_c, 3, 74, 103
5, 227196, Note_on_c, 3, 74, 0
5, 227196, Note_on_c, 3, 79, 100
5, 227360, Note_on_c, 3, 79, 0
5, 227360, Note_on_c, 3, 83, 103
5, 227520, Note_on_c, 3, 83, 0
5, 227520, Note_on_c, 3, 86, 115
5, 228000, Note_on_c, 3, 86, 0
5, 228000, Note_on_c, 3, 84, 104
5, 228120, Note_on_c, 3, 84, 0
5, 228120, Note_on_c, 3, 83, 112
5, 228240, Note_on_c, 3, 83, 0
5, 228240, Note_on_c, 3, 81, 114
5, 228360, Note_on_c, 3, 81, 0
5, 228360, Note_on_c, 3, 79, 105
5, 228469, Note_on_c, 3, 79, 0
5, 228480, Note_on_c, 3, 83, 103
5, 228645, Note_on_c, 3, 81, 116
5, 228674, Note_on_c, 3, 83, 0
5, 228725, Note_on_c, 3, 83, 113
5, 228764, Note_on_c, 3, 81, 0
5, 228785, Note_on_c, 3, 81, 111
5, 228809, Note_on_c, 3, 83, 0
5, 228850, Note_on_c, 3, 83, 109
5, 228879, Note_on_c, 3, 81, 0
5, 228910, Note_on_c, 3, 81, 108
5, 228944, Note_on_c, 3, 83, 0
5, 228960, Note_on_c, 3, 83, 104
5, 229006, Note_on_c, 3, 81, 0
5, 229020, Note_on_c, 3, 81, 103
5, 229044, Note_on_c, 3, 83, 0
5, 229080, Note_on_c, 3, 83, 101
5, 229116, Note_on_c, 3, 81, 0
5, 229135, Note_on_c, 3, 81, 101
5, 229164, Note_on_c, 3, 83, 0
5, 229200, Note_on_c, 3, 83, 101
5, 229231, Note_on_c, 3, 81, 0
5, 229260, Note_on_c, 3, 81, 101
5, 229284, Note_on_c, 3, 83, 0
5, 229320, Note_on_c, 3, 83, 101
5, 229356, Note_on_c, 3, 81, 0
5, 229380, Note_on_c, 3, 81, 102
5, 229404, Note_on_c, 3, 83, 0
5, 229440, Note_on_c, 3, 83, 103
5, 229476, Note_on_c, 3, 81, 0
5, 229500, Note_on_c, 3, 81, 106
5, 229524, Note_on_c, 3, 83, 0
5, 229560, Note_on_c, 3, 83, 107
5, 229596, Note_on_c, 3, 81, 0
5, 229620, Note_on_c, 3, 81, 109
5, 229644, Note_on_c, 3, 83, 0
5, 229680, Note_on_c, 3, 83, 111
5, 229716, Note_on_c, 3, 81, 0
5, 229740, Note_on_c, 3, 81, 111
5, 229764, Note_on_c, 3, 83, 0
5, 229800, Note_on_c, 3, 83, 111
5, 229836, Note_on_c, 3, 81, 0
5, 229860, Note_on_c, 3, 81, 111
5, 229884, Note_on_c, 3, 83, 0
5, 229920, Note_on_c, 3, 83, 111
5, 229956, Note_on_c, 3, 81, 0
5, 229985, Note_on_c, 3, 81, 114
5, 230004, Note_on_c, 3, 83, 0
5, 230040, Note_on_c, 3, 83, 114
5, 230081, Note_on_c, 3, 81, 0
5, 230105, Note_on_c, 3, 81, 113
5, 230124, Note_on_c, 3, 83, 0
5, 230160, Note_on_c, 3, 83, 113
5, 230201, Note_on_c, 3, 81, 0
5, 230225, Note_on_c, 3, 81, 113
5, 230244, Note_on_c, 3, 83, 0
5, 230280, Note_on_c, 3, 79, 112
5, 230321, Note_on_c, 3, 81, 0
5, 230340, Note_on_c, 3, 81, 108
5, 230400, Note_on_c, 3, 79, 123
5, 230460, Note_on_c, 3, 79, 0
5, 230520, Note_on_c, 3, 81, 0
5, 230880, Note_on_c, 3, 79, 0
5, 255360, Note_on_c, 3, 76, 105
5, 256080, Note_on_c, 3, 77, 105
5, 256114, Note_on_c, 3, 76, 0
5, 256200, Note_on_c, 3, 76, 105
5, 256234, Note_on_c, 3, 77, 0
5, 256320, Note_on_c, 3, 71, 105
5, 256354, Note_on_c, 3, 76, 0
5, 257029, Note_on_c, 3, 71, 0
5, 257040, Note_on_c, 3, 74, 105
5, 257254, Note_on_c, 3, 74, 0
5, 257280, Note_on_c, 3, 72, 105
5, 257376, Note_on_c, 3, 72, 0
5, 257520, Note_on_c, 3, 76, 105
5, 257616, Note_on_c, 3, 76, 0
5, 257760, Note_on_c, 3, 81, 105
5, 257856, Note_on_c, 3, 81, 0
5, 258000, Note_on_c, 3, 84, 105
5, 258096, Note_on_c, 3, 84, 0
5, 258240, Note_on_c, 3, 88, 105
5, 258929, Note_on_c, 3, 88, 0
5, 258960, Note_on_c, 3, 88, 105
5, 259159, Note_on_c, 3, 88, 0
5, 259200, Note_on_c, 3, 88, 105
5, 259440, Note_on_c, 3, 80, 105
5, 259489, Note_on_c, 3, 88, 0
5, 259629, Note_on_c, 3, 80, 0
5, 259680, Note_on_c, 3, 80, 105
5, 260339, Note_on_c, 3, 80, 0
5, 260400, Note_on_c, 3, 88, 105
5, 260640, Note_on_c, 3, 87, 105
5, 260674, Note_on_c, 3, 88, 0
5, 260880, Note_on_c, 3, 88, 105
5, 260924, Note_on_c, 3, 87, 0
5, 261089, Note_on_c, 3, 88, 0
5, 261120, Note_on_c, 3, 88, 105
5, 261360, Note_on_c, 3, 81, 105
5, 261424, Note_on_c, 3, 88, 0
5, 261539, Note_on_c, 3, 81, 0
5, 261600, Note_on_c, 3, 81, 105
5, 262320, Note_on_c, 3, 81, 0
5, 262320, Note_on_c, 3, 84, 105
5, 262560, Note_on_c, 3, 80, 105
5, 262609, Note_on_c, 3, 84, 0
5, 262800, Note_on_c, 3, 81, 105
5, 262839, Note_on_c, 3, 80, 0
5, 262999, Note_on_c, 3, 81, 0
5, 263040, Note_on_c, 3, 79, 105
5, 263160, Note_on_c, 3, 77, 105
5, 263189, Note_on_c, 3, 79, 0
5, 263264, Note_on_c, 3, 77, 0
5, 263280, Note_on_c, 3, 76, 105
5, 263400, Note_on_c, 3, 76, 0
5, 263400, Note_on_c, 3, 77, 105
5, 263520, Note_on_c, 3, 77, 0
5, 263520, Note_on_c, 3, 79, 105
5, 263640, Note_on_c, 3, 79, 0
5, 263640, Note_on_c, 3, 77, 105
5, 263760, Note_on_c, 3, 77, 0
5, 263760, Note_on_c, 3, 76, 105
5, 263880, Note_on_c, 3, 76, 0
5, 263880, Note_on_c, 3, 74, 105
5, 264000, Note_on_c, 3, 74, 0
5, 264000, Note_on_c, 3, 72, 105
5, 264439, Note_on_c, 3, 72, 0
5, 264480, Note_on_c, 3, 72, 98
5, 264508, Note_on_c, 3, 71, 100
5, 264536, Note_on_c, 3, 72, 0
5, 264540, Note_on_c, 3, 72, 103
5, 264568, Note_on_c, 3, 71, 103
5, 264572, Note_on_c, 3, 71, 0
5, 264596, Note_on_c, 3, 72, 0
5, 264600, Note_on_c, 3, 72, 106
5, 264628, Note_on_c, 3, 71, 108
5, 264632, Note_on_c, 3, 71, 0
5, 264656, Note_on_c, 3, 72, 0
5, 264660, Note_on_c, 3, 72, 107
5, 264688, Note_on_c, 3, 71, 106
5, 264692, Note_on_c, 3, 71, 0
5, 264716, Note_on_c, 3, 72, 0
5, 264720, Note_on_c, 3, 69, 99
5, 264752, Note_on_c, 3, 71, 0
5, 264840, Note_on_c, 3, 69, 0
5, 264840, Note_on_c, 3, 71, 105
5, 264960, Note_on_c, 3, 71, 0
5, 264960, Note_on_c, 3, 69, 97
5, 265149, Note_on_c, 3, 69, 0
5, 265200, Note_on_c, 3, 84, 114
5, 265404, Note_on_c, 3, 84, 0
5, 265440, Note_on_c, 3, 71, 96
5, 265649, Note_on_c, 3, 71, 0
5, 265680, Note_on_c, 3, 86, 118
5, 265904, Note_on_c, 3, 86, 0
5, 265920, Note_on_c, 3, 72, 95
5, 266139, Note_on_c, 3, 72, 0
5, 266160, Note_on_c, 3, 88, 118
5, 266349, Note_on_c, 3, 88, 0
5, 266400, Note_on_c, 3, 86, 105
5, 266520, Note_on_c, 3, 86, 0
5, 266520, Note_on_c, 3, 84, 105
5, 266640, Note_on_c, 3, 84, 0
5, 266640, Note_on_c, 3, 83, 105
5, 266760, Note_on_c, 3, 83, 0
5, 266760, Note_on_c, 3, 81, 105
5, 266880, Note_on_c, 3, 81, 0
5, 266880, Note_on_c, 3, 80, 105
5, 267000, Note_on_c, 3, 80, 0
5, 267000, Note_on_c, 3, 81, 105
5, 267120, Note_on_c, 3, 81, 0
5, 267120, Note_on_c, 3, 80, 105
5, 267240, Note_on_c, 3, 80, 0
5, 267240, Note_on_c, 3, 81, 105
5, 267360, Note_on_c, 3, 81, 0
5, 267360, Note_on_c, 3, 79, 105
5, 267480, Note_on_c, 3, 79, 0
5, 267480, Note_on_c, 3, 77, 105
5, 267600, Note_on_c, 3, 77, 0
5, 267600, Note_on_c, 3, 76, 105
5, 267720, Note_on_c, 3, 76, 0
5, 267720, Note_on_c, 3, 74, 105
5, 267840, Note_on_c, 3, 74, 0
5, 267840, Note_on_c, 3, 72, 105
5, 268269, Note_on_c, 3, 72, 0
5, 268320, Note_on_c, 3, 72, 92
5, 268348, Note_on_c, 3, 71, 95
5, 268376, Note_on_c, 3, 72, 0
5, 268380, Note_on_c, 3, 72, 102
5, 268408, Note_on_c, 3, 71, 105
5, 268412, Note_on_c, 3, 71, 0
5, 268436, Note_on_c, 3, 72, 0
5, 268440, Note_on_c, 3, 72, 107
5, 268468, Note_on_c, 3, 71, 103
5, 268472, Note_on_c, 3, 71, 0
5, 268496, Note_on_c, 3, 72, 0
5, 268500, Note_on_c, 3, 72, 98
5, 268528, Note_on_c, 3, 71, 98
5, 268532, Note_on_c, 3, 71, 0
5, 268556, Note_on_c, 3, 72, 0
5, 268560, Note_on_c, 3, 69, 98
5, 268592, Note_on_c, 3, 71, 0
5, 268680, Note_on_c, 3, 69, 0
5, 268680, Note_on_c, 3, 71, 106
5, 268800, Note_on_c, 3, 71, 0
5, 268800, Note_on_c, 3, 69, 114
5, 269280, Note_on_c, 3, 69, 0
5, 274560, Note_on_c, 3, 81, 110
5, 275280, Note_on_c, 3, 82, 110
5, 275309, Note_on_c, 3, 81, 0
5, 275400, Note_on_c, 3, 81, 110
5, 275449, Note_on_c, 3, 82, 0
5, 275520, Note_on_c, 3, 76, 110
5, 275569, Note_on_c, 3, 81, 0
5, 276204, Note_on_c, 3, 76, 0
5, 276240, Note_on_c, 3, 79, 110
5, 276454, Note_on_c, 3, 79, 0
5, 276480, Note_on_c, 3, 77, 110
5, 276524, Note_on_c, 3, 77, 0
5, 276600, Note_on_c, 3, 81, 110
5, 276720, Note_on_c, 3, 80, 110
5, 276760, Note_on_c, 3, 81, 0
5, 276840, Note_on_c, 3, 81, 110
5, 276880, Note_on_c, 3, 80, 0
5, 276960, Note_on_c, 3, 80, 110
5, 277000, Note_on_c, 3, 81, 0
5, 277080, Note_on_c, 3, 81, 110
5, 277120, Note_on_c, 3, 80, 0
5, 277200, Note_on_c, 3, 80, 110
5, 277240, Note_on_c, 3, 81, 0
5, 277320, Note_on_c, 3, 81, 110
5, 277360, Note_on_c, 3, 80, 0
5, 277440, Note_on_c, 3, 80, 110
5, 277480, Note_on_c, 3, 81, 0
5, 277560, Note_on_c, 3, 81, 110
5, 277600, Note_on_c, 3, 80, 0
5, 277680, Note_on_c, 3, 80, 110
5, 277720, Note_on_c, 3, 81, 0
5, 277800, Note_on_c, 3, 81, 110
5, 277840, Note_on_c, 3, 80, 0
5, 277920, Note_on_c, 3, 79, 110
5, 277960, Note_on_c, 3, 81, 0
5, 278040, Note_on_c, 3, 79, 0
5, 278040, Note_on_c, 3, 77, 110
5, 278160, Note_on_c, 3, 77, 0
5, 278160, Note_on_c, 3, 76, 110
5, 278280, Note_on_c, 3, 76, 0
5, 278280, Note_on_c, 3, 74, 110
5, 278389, Note_on_c, 3, 74, 0
5, 278400, Note_on_c, 3, 74, 110
5, 278640, Note_on_c, 3, 73, 110
5, 278704, Note_on_c, 3, 74, 0
5, 278824, Note_on_c, 3, 73, 0
5, 278880, Note_on_c, 3, 73, 110
5, 279600, Note_on_c, 3, 82, 110
5, 279639, Note_on_c, 3, 73, 0
5, 279840, Note_on_c, 3, 81, 110
5, 279904, Note_on_c, 3, 82, 0
5, 280080, Note_on_c, 3, 73, 110
5, 280134, Note_on_c, 3, 81, 0
5, 280264, Note_on_c, 3, 73, 0
5, 280320, Note_on_c, 3, 74, 110
5, 280560, Note_on_c, 3, 74, 0
5, 280560, Note_on_c, 3, 76, 110
5, 280680, Note_on_c, 3, 76, 0
5, 280680, Note_on_c, 3, 77, 110
5, 280800, Note_on_c, 3, 77, 0
5, 280800, Note_on_c, 3, 79, 110
5, 280920, Note_on_c, 3, 79, 0
5, 280920, Note_on_c, 3, 81, 110
5, 281040, Note_on_c, 3, 81, 0
5, 281040, Note_on_c, 3, 83, 110
5, 281160, Note_on_c, 3, 83, 0
5, 281160, Note_on_c, 3, 85, 110
5, 281280, Note_on_c, 3, 85, 0
5, 281280, Note_on_c, 3, 86, 110
5, 281479, Note_on_c, 3, 86, 0
5, 281520, Note_on_c, 3, 86, 109
5, 281729, Note_on_c, 3, 86, 0
5, 281760, Note_on_c, 3, 86, 109
5, 281959, Note_on_c, 3, 86, 0
5, 282000, Note_on_c, 3, 86, 109
5, 282240, Note_on_c, 3, 86, 0
5, 282240, Note_on_c, 3, 76, 109
5, 282720, Note_on_c, 3, 76, 0
5, 282720, Note_on_c, 3, 81, 109
5, 282840, Note_on_c, 3, 81, 0
5, 282840, Note_on_c, 3, 79, 109
5, 282960, Note_on_c, 3, 79, 0
5, 282960, Note_on_c, 3, 77, 109
5, 283080, Note_on_c, 3, 77, 0
5, 283080, Note_on_c, 3, 76, 109
5, 283200, Note_on_c, 3, 76, 0
5, 283200, Note_on_c, 3, 74, 109
5, 283680, Note_on_c, 3, 74, 0
5, 283680, Note_on_c, 3, 73, 109
5, 284114, Note_on_c, 3, 73, 0
5, 284160, Note_on_c, 3, 62, 109
5, 284359, Note_on_c, 3, 62, 0
5, 284400, Note_on_c, 3, 77, 109
5, 284599, Note_on_c, 3, 77, 0
5, 284640, Note_on_c, 3, 64, 109
5, 284859, Note_on_c, 3, 64, 0
5, 284880, Note_on_c, 3, 79, 109
5, 285069, Note_on_c, 3, 79, 0
5, 285120, Note_on_c, 3, 65, 109
5, 285309, Note_on_c, 3, 65, 0
5, 285360, Note_on_c, 3, 81, 109
5, 285600, Note_on_c, 3, 81, 0
5, 285600, Note_on_c, 3, 79, 109
5, 285720, Note_on_c, 3, 79, 0
5, 285720, Note_on_c, 3, 77, 109
5, 285840, Note_on_c, 3, 77, 0
5, 285840, Note_on_c, 3, 76, 109
5, 285960, Note_on_c, 3, 76, 0
5, 285960, Note_on_c, 3, 74, 109
5, 286080, Note_on_c, 3, 74, 0
5, 286080, Note_on_c, 3, 67, 109
5, 286269, Note_on_c, 3, 67, 0
5, 286320, Note_on_c, 3, 86, 109
5, 286519, Note_on_c, 3, 86, 0
5, 286560, Note_on_c, 3, 84, 109
5, 286680, Note_on_c, 3, 84, 0
5, 286680, Note_on_c, 3, 82, 109
5, 286800, Note_on_c, 3, 82, 0
5, 286800, Note_on_c, 3, 81, 109
5, 286920, Note_on_c, 3, 81, 0
5, 286920, Note_on_c, 3, 79, 109
5, 287040, Note_on_c, 3, 79, 0
5, 287040, Note_on_c, 3, 77, 109
5, 287449, Note_on_c, 3, 77, 0
5, 287520, Note_on_c, 3, 77, 98
5, 287548, Note_on_c, 3, 76, 101
5, 287576, Note_on_c, 3, 77, 0
5, 287580, Note_on_c, 3, 77, 105
5, 287608, Note_on_c, 3, 76, 106
5, 287612, Note_on_c, 3, 76, 0
5, 287636, Note_on_c, 3, 77, 0
5, 287640, Note_on_c, 3, 77, 112
5, 287668, Note_on_c, 3, 76, 114
5, 287672, Note_on_c, 3, 76, 0
5, 287696, Note_on_c, 3, 77, 0
5, 287700, Note_on_c, 3, 77, 112
5, 287728, Note_on_c, 3, 76, 107
5, 287732, Note_on_c, 3, 76, 0
5, 287756, Note_on_c, 3, 77, 0
5, 287760, Note_on_c, 3, 74, 102
5, 287792, Note_on_c, 3, 76, 0
5, 287880, Note_on_c, 3, 74, 0
5, 287880, Note_on_c, 3, 76, 101
5, 288000, Note_on_c, 3, 76, 0
5, 288000, Note_on_c, 3, 74, 113
5, 288960, Note_on_c, 3, 74, 0
5, 288960, Note_on_c, 3, 62, 89
5, 290880, Note_on_c, 3, 62, 0
5, 290880, Note_on_c, 3, 61, 99
5, 291840, Note_on_c, 3, 61, 0
5, 291840, Note_on_c, 3, 60, 105
5, 293760, Note_on_c, 3, 60, 0
5, 294000, Note_on_c, 3, 81, 88
5, 294209, Note_on_c, 3, 81, 0
5, 294240, Note_on_c, 3, 81, 88
5, 294449, Note_on_c, 3, 81, 0
5, 294480, Note_on_c, 3, 81, 88
5, 294704, Note_on_c, 3, 81, 0
5, 294720, Note_on_c, 3, 83, 88
5, 294840, Note_on_c, 3, 83, 0
5, 294840, Note_on_c, 3, 81, 88
5, 294960, Note_on_c, 3, 81, 0
5, 294960, Note_on_c, 3, 80, 88
5, 295080, Note_on_c, 3, 80, 0
5, 295080, Note_on_c, 3, 81, 88
5, 295200, Note_on_c, 3, 81, 0
5, 295200, Note_on_c, 3, 83, 88
5, 295320, Note_on_c, 3, 83, 0
5, 295320, Note_on_c, 3, 81, 88
5, 295440, Note_on_c, 3, 81, 0
5, 295440, Note_on_c, 3, 80, 88
5, 295560, Note_on_c, 3, 80, 0
5, 295560, Note_on_c, 3, 81, 88
5, 295680, Note_on_c, 3, 81, 0
5, 295680, Note_on_c, 3, 80, 88
5, 295776, Note_on_c, 3, 80, 0
5, 295920, Note_on_c, 3, 80, 87
5, 296016, Note_on_c, 3, 80, 0
5, 296160, Note_on_c, 3, 80, 90
5, 296256, Note_on_c, 3, 80, 0
5, 296400, Note_on_c, 3, 80, 93
5, 296496, Note_on_c, 3, 80, 0
5, 296640, Note_on_c, 3, 80, 96
5, 296760, Note_on_c, 3, 80, 0
5, 296760, Note_on_c, 3, 81, 97
5, 296880, Note_on_c, 3, 81, 0
5, 296880, Note_on_c, 3, 83, 98
5, 297000, Note_on_c, 3, 83, 0
5, 297000, Note_on_c, 3, 81, 100
5, 297120, Note_on_c, 3, 81, 0
5, 297120, Note_on_c, 3, 80, 101
5, 297240, Note_on_c, 3, 80, 0
5, 297240, Note_on_c, 3, 81, 103
5, 297360, Note_on_c, 3, 81, 0
5, 297360, Note_on_c, 3, 83, 104
5, 297480, Note_on_c, 3, 83, 0
5, 297480, Note_on_c, 3, 81, 105
5, 297600, Note_on_c, 3, 81, 0
5, 297600, Note_on_c, 3, 80, 105
5, 297840, Note_on_c, 3, 80, 0
5, 297840, Note_on_c, 3, 86, 105
5, 297936, Note_on_c, 3, 86, 0
5, 298080, Note_on_c, 3, 86, 105
5, 298176, Note_on_c, 3, 86, 0
5, 298320, Note_on_c, 3, 86, 105
5, 298416, Note_on_c, 3, 86, 0
5, 298560, Note_on_c, 3, 86, 105
5, 298680, Note_on_c, 3, 86, 0
5, 298680, Note_on_c, 3, 85, 105
5, 298800, Note_on_c, 3, 85, 0
5, 298800, Note_on_c, 3, 86, 105
5, 298920, Note_on_c, 3, 86, 0
5, 298920, Note_on_c, 3, 85, 105
5, 299040, Note_on_c, 3, 85, 0
5, 299040, Note_on_c, 3, 86, 105
5, 299160, Note_on_c, 3, 86, 0
5, 299160, Note_on_c, 3, 83, 105
5, 299280, Note_on_c, 3, 83, 0
5, 299280, Note_on_c, 3, 81, 105
5, 299400, Note_on_c, 3, 81, 0
5, 299400, Note_on_c, 3, 80, 105
5, 299520, Note_on_c, 3, 80, 0
5, 299520, Note_on_c, 3, 81, 105
5, 300480, Note_on_c, 3, 81, 0
5, 300480, Note_on_c, 3, 69, 70
5, 302400, Note_on_c, 3, 69, 0
5, 302400, Note_on_c, 3, 68, 90
5, 303360, Note_on_c, 3, 68, 0
5, 303360, Note_on_c, 3, 67, 105
5, 306964, Note_on_c, 3, 67, 0
5, 307140, Note_on_c, 3, 67, 105
5, 307200, Note_on_c, 3, 79, 105
5, 307229, Note_on_c, 3, 67, 0
5, 311040, Note_on_c, 3, 79, 0
5, 311160, Note_on_c, 3, 79, 80
5, 311280, Note_on_c, 3, 78, 80
5, 311320, Note_on_c, 3, 79, 0
5, 311400, Note_on_c, 3, 79, 80
5, 311440, Note_on_c, 3, 78, 0
5, 311520, Note_on_c, 3, 80, 80
5, 311560, Note_on_c, 3, 79, 0
5, 311640, Note_on_c, 3, 79, 80
5, 311680, Note_on_c, 3, 80, 0
5, 311760, Note_on_c, 3, 78, 80
5, 311800, Note_on_c, 3, 79, 0
5, 311880, Note_on_c, 3, 79, 80
5, 311920, Note_on_c, 3, 78, 0
5, 312000, Note_on_c, 3, 77, 80
5, 312040, Note_on_c, 3, 79, 0
5, 312120, Note_on_c, 3, 75, 80
5, 312160, Note_on_c, 3, 77, 0
5, 312240, Note_on_c, 3, 74, 80
5, 312280, Note_on_c, 3, 75, 0
5, 312360, Note_on_c, 3, 75, 80
5, 312400, Note_on_c, 3, 74, 0
5, 312480, Note_on_c, 3, 74, 80
5, 312520, Note_on_c, 3, 75, 0
5, 312600, Note_on_c, 3, 72, 80
5, 312640, Note_on_c, 3, 74, 0
5, 312720, Note_on_c, 3, 71, 80
5, 312760, Note_on_c, 3, 72, 0
5, 312840, Note_on_c, 3, 72, 80
5, 312880, Note_on_c, 3, 71, 0
5, 312929, Note_on_c, 3, 72, 0
5, 312960, Note_on_c, 3, 71, 80
5, 313044, Note_on_c, 3, 71, 0
5, 313080, Note_on_c, 3, 79, 81
5, 313200, Note_on_c, 3, 78, 81
5, 313240, Note_on_c, 3, 79, 0
5, 313320, Note_on_c, 3, 79, 81
5, 313360, Note_on_c, 3, 78, 0
5, 313440, Note_on_c, 3, 80, 81
5, 313480, Note_on_c, 3, 79, 0
5, 313560, Note_on_c, 3, 79, 81
5, 313600, Note_on_c, 3, 80, 0
5, 313680, Note_on_c, 3, 78, 81
5, 313720, Note_on_c, 3, 79, 0
5, 313800, Note_on_c, 3, 79, 81
5, 313840, Note_on_c, 3, 78, 0
5, 313920, Note_on_c, 3, 77, 81
5, 313960, Note_on_c, 3, 79, 0
5, 314040, Note_on_c, 3, 75, 81
5, 314080, Note_on_c, 3, 77, 0
5, 314160, Note_on_c, 3, 74, 81
5, 314200, Note_on_c, 3, 75, 0
5, 314280, Note_on_c, 3, 75, 81
5, 314320, Note_on_c, 3, 74, 0
5, 314400, Note_on_c, 3, 74, 81
5, 314440, Note_on_c, 3, 75, 0
5, 314520, Note_on_c, 3, 72, 81
5, 314560, Note_on_c, 3, 74, 0
5, 314640, Note_on_c, 3, 71, 81
5, 314680, Note_on_c, 3, 72, 0
5, 314760, Note_on_c, 3, 72, 81
5, 314800, Note_on_c, 3, 71, 0
5, 314859, Note_on_c, 3, 72, 0
5, 314880, Note_on_c, 3, 71, 81
5, 315360, Note_on_c, 3, 71, 0
5, 315780, Note_on_c, 3, 72, 112
5, 315840, Note_on_c, 3, 84, 118
5, 315904, Note_on_c, 3, 72, 0
5, 316560, Note_on_c, 3, 75, 105
5, 316619, Note_on_c, 3, 84, 0
5, 316769, Note_on_c, 3, 75, 0
5, 316800, Note_on_c, 3, 74, 105
5, 317280, Note_on_c, 3, 74, 0
5, 317700, Note_on_c, 3, 72, 115
5, 317760, Note_on_c, 3, 84, 119
5, 317829, Note_on_c, 3, 72, 0
5, 318480, Note_on_c, 3, 75, 70
5, 318559, Note_on_c, 3, 84, 0
5, 318679, Note_on_c, 3, 75, 0
5, 318720, Note_on_c, 3, 75, 70
5, 318780, Note_on_c, 3, 74, 70
5, 318800, Note_on_c, 3, 75, 0
5, 318840, Note_on_c, 3, 75, 70
5, 318860, Note_on_c, 3, 74, 0
5, 318900, Note_on_c, 3, 74, 71
5, 318920, Note_on_c, 3, 75, 0
5, 318960, Note_on_c, 3, 75, 71
5, 318980, Note_on_c, 3, 74, 0
5, 319020, Note_on_c, 3, 74, 72
5, 319040, Note_on_c, 3, 75, 0
5, 319080, Note_on_c, 3, 75, 72
5, 319100, Note_on_c, 3, 74, 0
5, 319140, Note_on_c, 3, 74, 73
5, 319160, Note_on_c, 3, 75, 0
5, 319200, Note_on_c, 3, 75, 73
5, 319220, Note_on_c, 3, 74, 0
5, 319260, Note_on_c, 3, 74, 74
5, 319280, Note_on_c, 3, 75, 0
5, 319320, Note_on_c, 3, 75, 75
5, 319340, Note_on_c, 3, 74, 0
5, 319380, Note_on_c, 3, 74, 75
5, 319400, Note_on_c, 3, 75, 0
5, 319440, Note_on_c, 3, 72, 76
5, 319460, Note_on_c, 3, 74, 0
5, 319560, Note_on_c, 3, 74, 77
5, 319619, Note_on_c, 3, 72, 0
5, 319659, Note_on_c, 3, 74, 0
5, 319680, Note_on_c, 3, 77, 78
5, 319740, Note_on_c, 3, 76, 78
5, 319760, Note_on_c, 3, 77, 0
5, 319800, Note_on_c, 3, 77, 79
5, 319820, Note_on_c, 3, 76, 0
5, 319860, Note_on_c, 3, 76, 79
5, 319880, Note_on_c, 3, 77, 0
5, 319920, Note_on_c, 3, 77, 80
5, 319940, Note_on_c, 3, 76, 0
5, 319980, Note_on_c, 3, 76, 80
5, 320000, Note_on_c, 3, 77, 0
5, 320040, Note_on_c, 3, 77, 81
5, 320060, Note_on_c, 3, 76, 0
5, 320100, Note_on_c, 3, 76, 81
5, 320120, Note_on_c, 3, 77, 0
5, 320160, Note_on_c, 3, 77, 82
5, 320180, Note_on_c, 3, 76, 0
5, 320220, Note_on_c, 3, 76, 83
5, 320240, Note_on_c, 3, 77, 0
5, 320280, Note_on_c, 3, 77, 83
5, 320300, Note_on_c, 3, 76, 0
5, 320340, Note_on_c, 3, 76, 84
5, 320360, Note_on_c, 3, 77, 0
5, 320400, Note_on_c, 3, 74, 84
5, 320420, Note_on_c, 3, 76, 0
5, 320520, Note_on_c, 3, 76, 85
5, 320579, Note_on_c, 3, 74, 0
5, 320609, Note_on_c, 3, 76, 0
5, 320640, Note_on_c, 3, 79, 86
5, 320700, Note_on_c, 3, 79, 0
5, 320700, Note_on_c, 3, 77, 87
5, 320760, Note_on_c, 3, 79, 87
5, 320780, Note_on_c, 3, 77, 0
5, 320820, Note_on_c, 3, 77, 88
5, 320840, Note_on_c, 3, 79, 0
5, 320880, Note_on_c, 3, 79, 88
5, 320900, Note_on_c, 3, 77, 0
5, 320940, Note_on_c, 3, 77, 89
5, 320960, Note_on_c, 3, 79, 0
5, 321000, Note_on_c, 3, 79, 90
5, 321020, Note_on_c, 3, 77, 0
5, 321060, Note_on_c, 3, 77, 90
5, 321080, Note_on_c, 3, 79, 0
5, 321120, Note_on_c, 3, 79, 91
5, 321140, Note_on_c, 3, 77, 0
5, 321180, Note_on_c, 3, 77, 91
5, 321200, Note_on_c, 3, 79, 0
5, 321240, Note_on_c, 3, 79, 92
5, 321260, Note_on_c, 3, 77, 0
5, 321300, Note_on_c, 3, 77, 92
5, 321320, Note_on_c, 3, 79, 0
5, 321360, Note_on_c, 3, 76, 93
5, 321380, Note_on_c, 3, 77, 0
5, 321480, Note_on_c, 3, 77, 94
5, 321539, Note_on_c, 3, 76, 0
5, 321564, Note_on_c, 3, 77, 0
5, 321600, Note_on_c, 3, 81, 95
5, 321660, Note_on_c, 3, 79, 95
5, 321680, Note_on_c, 3, 81, 0
5, 321720, Note_on_c, 3, 81, 96
5, 321740, Note_on_c, 3, 79, 0
5, 321780, Note_on_c, 3, 79, 96
5, 321800, Note_on_c, 3, 81, 0
5, 321840, Note_on_c, 3, 81, 97
5, 321860, Note_on_c, 3, 79, 0
5, 321900, Note_on_c, 3, 79, 98
5, 321920, Note_on_c, 3, 81, 0
5, 321960, Note_on_c, 3, 81, 98
5, 321980, Note_on_c, 3, 79, 0
5, 322020, Note_on_c, 3, 79, 99
5, 322040, Note_on_c, 3, 81, 0
5, 322080, Note_on_c, 3, 81, 99
5, 322100, Note_on_c, 3, 79, 0
5, 322140, Note_on_c, 3, 79, 100
5, 322160, Note_on_c, 3, 81, 0
5, 322200, Note_on_c, 3, 81, 100
5, 322220, Note_on_c, 3, 79, 0
5, 322260, Note_on_c, 3, 79, 101
5, 322280, Note_on_c, 3, 81, 0
5, 322320, Note_on_c, 3, 77, 101
5, 322340, Note_on_c, 3, 79, 0
5, 322440, Note_on_c, 3, 79, 102
5, 322479, Note_on_c, 3, 77, 0
5, 322524, Note_on_c, 3, 79, 0
5, 322560, Note_on_c, 3, 83, 103
5, 322620, Note_on_c, 3, 81, 104
5, 322640, Note_on_c, 3, 83, 0
5, 322680, Note_on_c, 3, 83, 105
5, 322700, Note_on_c, 3, 81, 0
5, 322740, Note_on_c, 3, 81, 105
5, 322760, Note_on_c, 3, 83, 0
5, 322800, Note_on_c, 3, 83, 105
5, 322820, Note_on_c, 3, 81, 0
5, 322860, Note_on_c, 3, 81, 105
5, 322880, Note_on_c, 3, 83, 0
5, 322920, Note_on_c, 3, 83, 105
5, 322940, Note_on_c, 3, 81, 0
5, 322980, Note_on_c, 3, 81, 105
5, 323000, Note_on_c, 3, 83, 0
5, 323040, Note_on_c, 3, 83, 105
5, 323060, Note_on_c, 3, 81, 0
5, 323100, Note_on_c, 3, 81, 105
5, 323120, Note_on_c, 3, 83, 0
5, 323160, Note_on_c, 3, 83, 105
5, 323180, Note_on_c, 3, 81, 0
5, 323220, Note_on_c, 3, 81, 105
5, 323240, Note_on_c, 3, 83, 0
5, 323280, Note_on_c, 3, 79, 105
5, 323300, Note_on_c, 3, 81, 0
5, 323400, Note_on_c, 3, 81, 105
5, 323444, Note_on_c, 3, 79, 0
5, 323489, Note_on_c, 3, 81, 0
5, 323520, Note_on_c, 3, 84, 105
5, 323580, Note_on_c, 3, 83, 105
5, 323600, Note_on_c, 3, 84, 0
5, 323640, Note_on_c, 3, 84, 105
5, 323660, Note_on_c, 3, 83, 0
5, 323700, Note_on_c, 3, 83, 105
5, 323720, Note_on_c, 3, 84, 0
5, 323760, Note_on_c, 3, 84, 105
5, 323780, Note_on_c, 3, 83, 0
5, 323820, Note_on_c, 3, 83, 105
5, 323840, Note_on_c, 3, 84, 0
5, 323880, Note_on_c, 3, 84, 105
5, 323900, Note_on_c, 3, 83, 0
5, 323940, Note_on_c, 3, 83, 105
5, 323960, Note_on_c, 3, 84, 0
5, 324000, Note_on_c, 3, 84, 105
5, 324020, Note_on_c, 3, 83, 0
5, 324060, Note_on_c, 3, 83, 105
5, 324080, Note_on_c, 3, 84, 0
5, 324120, Note_on_c, 3, 84, 105
5, 324140, Note_on_c, 3, 83, 0
5, 324180, Note_on_c, 3, 83, 105
5, 324200, Note_on_c, 3, 84, 0
5, 324240, Note_on_c, 3, 81, 105
5, 324260, Note_on_c, 3, 83, 0
5, 324360, Note_on_c, 3, 83, 105
5, 324409, Note_on_c, 3, 81, 0
5, 324449, Note_on_c, 3, 83, 0
5, 324480, Note_on_c, 3, 84, 117
5, 324960, Note_on_c, 3, 84, 0
5, 336480, Note_on_c, 3, 72, 82
5, 336720, Note_on_c, 3, 84, 82
5, 336769, Note_on_c, 3, 72, 0
5, 336919, Note_on_c, 3, 84, 0
5, 336960, Note_on_c, 3, 71, 82
5, 337200, Note_on_c, 3, 83, 82
5, 337269, Note_on_c, 3, 71, 0
5, 337379, Note_on_c, 3, 83, 0
5, 337440, Note_on_c, 3, 72, 82
5, 337680, Note_on_c, 3, 84, 82
5, 337739, Note_on_c, 3, 72, 0
5, 337859, Note_on_c, 3, 84, 0
5, 337920, Note_on_c, 3, 86, 105
5, 338400, Note_on_c, 3, 86, 0
5, 338400, Note_on_c, 3, 74, 83
5, 338640, Note_on_c, 3, 86, 83
5, 338729, Note_on_c, 3, 74, 0
5, 338839, Note_on_c, 3, 86, 0
5, 338880, Note_on_c, 3, 73, 83
5, 339120, Note_on_c, 3, 85, 82
5, 339179, Note_on_c, 3, 73, 0
5, 339279, Note_on_c, 3, 85, 0
5, 339360, Note_on_c, 3, 74, 82
5, 339600, Note_on_c, 3, 86, 82
5, 339669, Note_on_c, 3, 74, 0
5, 339789, Note_on_c, 3, 86, 0
5, 339840, Note_on_c, 3, 88, 105
5, 340320, Note_on_c, 3, 88, 0
5, 340320, Note_on_c, 3, 64, 81
5, 340560, Note_on_c, 3, 76, 81
5, 340609, Note_on_c, 3, 64, 0
5, 340729, Note_on_c, 3, 76, 0
5, 340800, Note_on_c, 3, 63, 81
5, 341040, Note_on_c, 3, 75, 81
5, 341139, Note_on_c, 3, 63, 0
5, 341229, Note_on_c, 3, 75, 0
5, 341280, Note_on_c, 3, 64, 81
5, 341520, Note_on_c, 3, 76, 81
5, 341589, Note_on_c, 3, 64, 0
5, 341699, Note_on_c, 3, 76, 0
5, 341760, Note_on_c, 3, 65, 80
5, 341888, Note_on_c, 3, 65, 0
5, 342000, Note_on_c, 3, 77, 83
5, 342128, Note_on_c, 3, 77, 0
5, 342240, Note_on_c, 3, 67, 86
5, 342368, Note_on_c, 3, 67, 0
5, 342480, Note_on_c, 3, 79, 89
5, 342608, Note_on_c, 3, 79, 0
5, 342720, Note_on_c, 3, 69, 93
5, 342848, Note_on_c, 3, 69, 0
5, 342960, Note_on_c, 3, 81, 96
5, 343088, Note_on_c, 3, 81, 0
5, 343200, Note_on_c, 3, 71, 99
5, 343328, Note_on_c, 3, 71, 0
5, 343440, Note_on_c, 3, 83, 102
5, 343568, Note_on_c, 3, 83, 0
5, 343680, Note_on_c, 3, 84, 105
5, 345549, Note_on_c, 3, 84, 0
5, 345600, Note_on_c, 3, 79, 105
5, 347459, Note_on_c, 3, 79, 0
5, 347520, Note_on_c, 3, 72, 105
5, 349389, Note_on_c, 3, 72, 0
5, 349440, Note_on_c, 3, 67, 105
5, 351279, Note_on_c, 3, 67, 0
5, 351360, Note_on_c, 3, 72, 105
5, 351600, Note_on_c, 3, 88, 105
5, 351739, Note_on_c, 3, 72, 0
5, 351989, Note_on_c, 3, 88, 0
5, 352080, Note_on_c, 3, 86, 105
5, 352269, Note_on_c, 3, 86, 0
5, 352320, Note_on_c, 3, 69, 105
5, 352560, Note_on_c, 3, 84, 105
5, 352649, Note_on_c, 3, 69, 0
5, 352929, Note_on_c, 3, 84, 0
5, 353040, Note_on_c, 3, 83, 105
5, 353249, Note_on_c, 3, 83, 0
5, 353280, Note_on_c, 3, 65, 105
5, 353520, Note_on_c, 3, 81, 105
5, 353679, Note_on_c, 3, 65, 0
5, 353899, Note_on_c, 3, 81, 0
5, 354000, Note_on_c, 3, 79, 105
5, 354149, Note_on_c, 3, 79, 0
5, 354240, Note_on_c, 3, 77, 105
5, 354409, Note_on_c, 3, 77, 0
5, 354480, Note_on_c, 3, 76, 105
5, 354629, Note_on_c, 3, 76, 0
5, 354720, Note_on_c, 3, 74, 105
5, 354869, Note_on_c, 3, 74, 0
5, 354960, Note_on_c, 3, 72, 105
5, 355089, Note_on_c, 3, 72, 0
5, 355200, Note_on_c, 3, 79, 105
5, 357299, Note_on_c, 3, 79, 0
5, 357360, Note_on_c, 3, 79, 104
5, 357488, Note_on_c, 3, 79, 0
5, 357600, Note_on_c, 3, 81, 104
5, 357728, Note_on_c, 3, 81, 0
5, 357840, Note_on_c, 3, 83, 106
5, 357968, Note_on_c, 3, 83, 0
5, 358080, Note_on_c, 3, 84, 108
5, 358208, Note_on_c, 3, 84, 0
5, 358320, Note_on_c, 3, 86, 114
5, 358448, Note_on_c, 3, 86, 0
5, 358560, Note_on_c, 3, 88, 117
5, 358688, Note_on_c, 3, 88, 0
5, 358800, Note_on_c, 3, 90, 115
5, 358928, Note_on_c, 3, 90, 0
5, 359040, Note_on_c, 3, 91, 110
5, 359520, Note_on_c, 3, 91, 0
5, 362820, Note_on_c, 3, 67, 115
5, 362880, Note_on_c, 3, 79, 122
5, 362969, Note_on_c, 3, 67, 0
5, 363819, Note_on_c, 3, 79, 0
5, 363840, Note_on_c, 3, 76, 105
5, 364080, Note_on_c, 3, 77, 105
5, 364119, Note_on_c, 3, 76, 0
5, 364140, Note_on_c, 3, 76, 105
5, 364169, Note_on_c, 3, 77, 0
5, 364200, Note_on_c, 3, 74, 105
5, 364219, Note_on_c, 3, 76, 0
5, 364320, Note_on_c, 3, 76, 105
5, 364359, Note_on_c, 3, 74, 0
5, 364519, Note_on_c, 3, 76, 0
5, 364560, Note_on_c, 3, 77, 105
5, 364679, Note_on_c, 3, 77, 0
5, 364800, Note_on_c, 3, 81, 105
5, 365040, Note_on_c, 3, 79, 105
5, 365089, Note_on_c, 3, 81, 0
5, 365219, Note_on_c, 3, 79, 0
5, 365280, Note_on_c, 3, 79, 105
5, 366240, Note_on_c, 3, 79, 0
5, 366240, Note_on_c, 3, 77, 105
5, 366360, Note_on_c, 3, 77, 0
5, 366360, Note_on_c, 3, 76, 105
5, 366480, Note_on_c, 3, 76, 0
5, 366480, Note_on_c, 3, 74, 105
5, 366600, Note_on_c, 3, 74, 0
5, 366600, Note_on_c, 3, 72, 105
5, 366684, Note_on_c, 3, 72, 0
5, 366720, Note_on_c, 3, 72, 105
5, 366960, Note_on_c, 3, 81, 105
5, 367029, Note_on_c, 3, 72, 0
5, 367129, Note_on_c, 3, 81, 0
5, 367200, Note_on_c, 3, 81, 105
5, 367920, Note_on_c, 3, 83, 105
5, 367949, Note_on_c, 3, 81, 0
5, 368040, Note_on_c, 3, 84, 105
5, 368089, Note_on_c, 3, 83, 0
5, 368160, Note_on_c, 3, 83, 105
5, 368209, Note_on_c, 3, 84, 0
5, 368364, Note_on_c, 3, 83, 0
5, 368400, Note_on_c, 3, 81, 105
5, 368524, Note_on_c, 3, 81, 0
5, 368640, Note_on_c, 3, 79, 105
5, 369109, Note_on_c, 3, 79, 0
5, 369120, Note_on_c, 3, 72, 105
5, 369579, Note_on_c, 3, 72, 0
5, 369600, Note_on_c, 3, 74, 105
5, 370320, Note_on_c, 3, 76, 105
5, 370369, Note_on_c, 3, 74, 0
5, 370440, Note_on_c, 3, 77, 105
5, 370489, Note_on_c, 3, 76, 0
5, 370539, Note_on_c, 3, 77, 0
5, 370560, Note_on_c, 3, 76, 105
5, 371040, Note_on_c, 3, 76, 0
5, 372480, Note_on_c, 3, 79, 105
5, 373680, Note_on_c, 3, 79, 0
5, 373680, Note_on_c, 3, 81, 105
5, 373800, Note_on_c, 3, 81, 0
5, 373800, Note_on_c, 3, 79, 105
5, 373920, Note_on_c, 3, 79, 0
5, 373920, Note_on_c, 3, 77, 105
5, 374040, Note_on_c, 3, 77, 0
5, 374040, Note_on_c, 3, 76, 105
5, 374160, Note_on_c, 3, 76, 0
5, 374160, Note_on_c, 3, 74, 105
5, 374280, Note_on_c, 3, 74, 0
5, 374280, Note_on_c, 3, 72, 105
5, 374400, Note_on_c, 3, 72, 0
5, 374400, Note_on_c, 3, 72, 105
5, 374640, Note_on_c, 3, 72, 0
5, 374640, Note_on_c, 3, 74, 105
5, 374760, Note_on_c, 3, 74, 0
5, 374760, Note_on_c, 3, 76, 105
5, 374880, Note_on_c, 3, 76, 0
5, 374880, Note_on_c, 3, 77, 105
5, 375000, Note_on_c, 3, 77, 0
5, 375000, Note_on_c, 3, 79, 105
5, 375120, Note_on_c, 3, 79, 0
5, 375120, Note_on_c, 3, 81, 105
5, 375240, Note_on_c, 3, 81, 0
5, 375240, Note_on_c, 3, 83, 105
5, 375360, Note_on_c, 3, 83, 0
5, 375360, Note_on_c, 3, 84, 105
5, 375480, Note_on_c, 3, 84, 0
5, 375480, Note_on_c, 3, 83, 105
5, 375600, Note_on_c, 3, 83, 0
5, 375600, Note_on_c, 3, 84, 105
5, 375720, Note_on_c, 3, 84, 0
5, 375720, Note_on_c, 3, 83, 105
5, 375840, Note_on_c, 3, 83, 0
5, 375840, Note_on_c, 3, 86, 105
5, 375960, Note_on_c, 3, 86, 0
5, 375960, Note_on_c, 3, 84, 105
5, 376080, Note_on_c, 3, 84, 0
5, 376080, Note_on_c, 3, 83, 105
5, 376200, Note_on_c, 3, 83, 0
5, 376200, Note_on_c, 3, 81, 105
5, 376320, Note_on_c, 3, 81, 0
5, 376320, Note_on_c, 3, 79, 105
5, 376800, Note_on_c, 3, 79, 0
5, 376800, Note_on_c, 3, 84, 105
5, 377280, Note_on_c, 3, 84, 0
5, 377280, Note_on_c, 3, 86, 105
5, 378000, Note_on_c, 3, 88, 105
5, 378044, Note_on_c, 3, 86, 0
5, 378120, Note_on_c, 3, 89, 105
5, 378169, Note_on_c, 3, 88, 0
5, 378224, Note_on_c, 3, 89, 0
5, 378240, Note_on_c, 3, 88, 105
5, 378360, Note_on_c, 3, 88, 0
5, 378360, Note_on_c, 3, 84, 105
5, 378480, Note_on_c, 3, 84, 0
5, 378480, Note_on_c, 3, 79, 105
5, 378600, Note_on_c, 3, 79, 0
5, 378600, Note_on_c, 3, 76, 105
5, 378720, Note_on_c, 3, 76, 0
5, 378720, Note_on_c, 3, 72, 105
5, 378840, Note_on_c, 3, 72, 0
5, 378840, Note_on_c, 3, 76, 105
5, 378960, Note_on_c, 3, 76, 0
5, 378960, Note_on_c, 3, 79, 105
5, 379080, Note_on_c, 3, 79, 0
5, 379080, Note_on_c, 3, 84, 105
5, 379200, Note_on_c, 3, 84, 0
5, 379200, Note_on_c, 3, 88, 105
5, 379440, Note_on_c, 3, 88, 0
5, 379440, Note_on_c, 3, 72, 105
5, 379680, Note_on_c, 3, 72, 0
5, 379680, Note_on_c, 3, 71, 105
5, 379920, Note_on_c, 3, 71, 0
5, 379920, Note_on_c, 3, 86, 105
5, 380160, Note_on_c, 3, 86, 0
5, 380160, Note_on_c, 3, 84, 105
5, 380280, Note_on_c, 3, 84, 0
5, 380280, Note_on_c, 3, 81, 105
5, 380400, Note_on_c, 3, 81, 0
5, 380400, Note_on_c, 3, 76, 105
5, 380520, Note_on_c, 3, 76, 0
5, 380520, Note_on_c, 3, 72, 105
5, 380640, Note_on_c, 3, 72, 0
5, 380640, Note_on_c, 3, 69, 105
5, 380760, Note_on_c, 3, 69, 0
5, 380760, Note_on_c, 3, 72, 105
5, 380880, Note_on_c, 3, 72, 0
5, 380880, Note_on_c, 3, 76, 105
5, 381000, Note_on_c, 3, 76, 0
5, 381000, Note_on_c, 3, 81, 105
5, 381120, Note_on_c, 3, 81, 0
5, 381120, Note_on_c, 3, 84, 105
5, 381360, Note_on_c, 3, 84, 0
5, 381360, Note_on_c, 3, 69, 105
5, 381600, Note_on_c, 3, 69, 0
5, 381600, Note_on_c, 3, 67, 105
5, 381840, Note_on_c, 3, 67, 0
5, 381840, Note_on_c, 3, 82, 105
5, 382080, Note_on_c, 3, 82, 0
5, 382080, Note_on_c, 3, 81, 105
5, 382200, Note_on_c, 3, 81, 0
5, 382200, Note_on_c, 3, 77, 105
5, 382320, Note_on_c, 3, 77, 0
5, 382320, Note_on_c, 3, 72, 105
5, 382440, Note_on_c, 3, 72, 0
5, 382440, Note_on_c, 3, 69, 105
5, 382560, Note_on_c, 3, 69, 0
5, 382560, Note_on_c, 3, 65, 105
5, 382680, Note_on_c, 3, 65, 0
5, 382680, Note_on_c, 3, 69, 105
5, 382800, Note_on_c, 3, 69, 0
5, 382800, Note_on_c, 3, 72, 105
5, 382920, Note_on_c, 3, 72, 0
5, 382920, Note_on_c, 3, 77, 105
5, 383040, Note_on_c, 3, 77, 0
5, 383040, Note_on_c, 3, 81, 105
5, 383280, Note_on_c, 3, 81, 0
5, 383280, Note_on_c, 3, 65, 105
5, 383520, Note_on_c, 3, 65, 0
5, 383520, Note_on_c, 3, 64, 105
5, 383760, Note_on_c, 3, 64, 0
5, 383760, Note_on_c, 3, 79, 105
5, 384000, Note_on_c, 3, 79, 0
5, 384000, Note_on_c, 3, 79, 105
5, 384120, Note_on_c, 3, 79, 0
5, 384120, Note_on_c, 3, 77, 105
5, 384240, Note_on_c, 3, 77, 0
5, 384240, Note_on_c, 3, 76, 105
5, 384360, Note_on_c, 3, 76, 0
5, 384360, Note_on_c, 3, 77, 105
5, 384480, Note_on_c, 3, 77, 0
5, 384480, Note_on_c, 3, 77, 105
5, 384600, Note_on_c, 3, 77, 0
5, 384600, Note_on_c, 3, 76, 105
5, 384720, Note_on_c, 3, 76, 0
5, 384720, Note_on_c, 3, 74, 105
5, 384840, Note_on_c, 3, 74, 0
5, 384840, Note_on_c, 3, 76, 105
5, 384960, Note_on_c, 3, 76, 0
5, 384960, Note_on_c, 3, 76, 105
5, 385080, Note_on_c, 3, 76, 0
5, 385080, Note_on_c, 3, 74, 105
5, 385200, Note_on_c, 3, 74, 0
5, 385200, Note_on_c, 3, 73, 105
5, 385320, Note_on_c, 3, 73, 0
5, 385320, Note_on_c, 3, 74, 105
5, 385440, Note_on_c, 3, 74, 0
5, 385440, Note_on_c, 3, 74, 105
5, 385560, Note_on_c, 3, 74, 0
5, 385560, Note_on_c, 3, 72, 105
5, 385680, Note_on_c, 3, 72, 0
5, 385680, Note_on_c, 3, 71, 105
5, 385800, Note_on_c, 3, 71, 0
5, 385800, Note_on_c, 3, 72, 105
5, 385920, Note_on_c, 3, 72, 0
5, 385920, Note_on_c, 3, 71, 105
5, 386400, Note_on_c, 3, 71, 0
5, 389520, Note_on_c, 3, 67, 121
5, 389709, Note_on_c, 3, 67, 0
5, 389760, Note_on_c, 3, 88, 116
5, 390240, Note_on_c, 3, 84, 105
5, 390329, Note_on_c, 3, 88, 0
5, 390429, Note_on_c, 3, 84, 0
5, 390720, Note_on_c, 3, 84, 116
5, 391200, Note_on_c, 3, 79, 105
5, 391289, Note_on_c, 3, 84, 0
5, 391389, Note_on_c, 3, 79, 0
5, 391680, Note_on_c, 3, 79, 117
5, 392160, Note_on_c, 3, 76, 105
5, 392229, Note_on_c, 3, 79, 0
5, 392329, Note_on_c, 3, 76, 0
5, 392640, Note_on_c, 3, 76, 121
5, 393120, Note_on_c, 3, 72, 105
5, 393204, Note_on_c, 3, 76, 0
5, 393309, Note_on_c, 3, 72, 0
5, 393600, Note_on_c, 3, 67, 105
5, 394080, Note_on_c, 3, 67, 0
5, 395520, Note_on_c, 3, 67, 105
5, 395760, Note_on_c, 3, 67, 0
5, 395760, Note_on_c, 3, 69, 105
5, 395880, Note_on_c, 3, 69, 0
5, 395880, Note_on_c, 3, 71, 105
5, 396000, Note_on_c, 3, 71, 0
5, 396000, Note_on_c, 3, 72, 105
5, 396120, Note_on_c, 3, 72, 0
5, 396120, Note_on_c, 3, 74, 105
5, 396240, Note_on_c, 3, 74, 0
5, 396240, Note_on_c, 3, 76, 105
5, 396360, Note_on_c, 3, 76, 0
5, 396360, Note_on_c, 3, 77, 105
5, 396480, Note_on_c, 3, 77, 0
5, 396480, Note_on_c, 3, 79, 105
5, 396600, Note_on_c, 3, 79, 0
5, 396600, Note_on_c, 3, 81, 105
5, 396720, Note_on_c, 3, 81, 0
5, 396720, Note_on_c, 3, 83, 105
5, 396840, Note_on_c, 3, 83, 0
5, 396840, Note_on_c, 3, 84, 105
5, 396960, Note_on_c, 3, 84, 0
5, 396960, Note_on_c, 3, 86, 105
5, 397149, Note_on_c, 3, 86, 0
5, 397200, Note_on_c, 3, 86, 105
5, 397389, Note_on_c, 3, 86, 0
5, 397440, Note_on_c, 3, 88, 120
5, 397920, Note_on_c, 3, 84, 105
5, 398009, Note_on_c, 3, 88, 0
5, 398109, Note_on_c, 3, 84, 0
5, 398400, Note_on_c, 3, 84, 121
5, 398880, Note_on_c, 3, 79, 105
5, 398949, Note_on_c, 3, 84, 0
5, 399049, Note_on_c, 3, 79, 0
5, 399360, Note_on_c, 3, 79, 117
5, 399840, Note_on_c, 3, 76, 105
5, 399929, Note_on_c, 3, 79, 0
5, 400029, Note_on_c, 3, 76, 0
5, 400320, Note_on_c, 3, 76, 120
5, 400800, Note_on_c, 3, 72, 105
5, 400909, Note_on_c, 3, 76, 0
5, 400969, Note_on_c, 3, 72, 0
5, 401280, Note_on_c, 3, 79, 105
5, 401760, Note_on_c, 3, 79, 0
5, 407040, Note_on_c, 3, 84, 105
5, 408960, Note_on_c, 3, 84, 0
5, 408960, Note_on_c, 3, 79, 105
5, 410880, Note_on_c, 3, 79, 0
5, 410880, Note_on_c, 3, 72, 105
5, 411360, Note_on_c, 3, 72, 0
5, 411840, Note_on_c, 3, 79, 105
5, 411936, Note_on_c, 3, 79, 0
5, 412080, Note_on_c, 3, 81, 105
5, 412176, Note_on_c, 3, 81, 0
5, 412320, Note_on_c, 3, 83, 105
5, 412416, Note_on_c, 3, 83, 0
5, 412560, Note_on_c, 3, 84, 105
5, 412656, Note_on_c, 3, 84, 0
5, 412800, Note_on_c, 3, 84, 105
5, 413040, Note_on_c, 3, 83, 105
5, 413099, Note_on_c, 3, 84, 0
5, 413280, Note_on_c, 3, 81, 105
5, 413329, Note_on_c, 3, 83, 0
5, 413520, Note_on_c, 3, 79, 105
5, 413569, Note_on_c, 3, 81, 0
5, 413719, Note_on_c, 3, 79, 0
5, 413760, Note_on_c, 3, 79, 105
5, 413880, Note_on_c, 3, 79, 0
5, 413880, Note_on_c, 3, 77, 105
5, 414000, Note_on_c, 3, 77, 0
5, 414000, Note_on_c, 3, 76, 105
5, 414120, Note_on_c, 3, 76, 0
5, 414120, Note_on_c, 3, 77, 105
5, 414240, Note_on_c, 3, 77, 0
5, 414240, Note_on_c, 3, 81, 105
5, 414480, Note_on_c, 3, 81, 0
5, 414480, Note_on_c, 3, 77, 105
5, 414720, Note_on_c, 3, 77, 0
5, 414720, Note_on_c, 3, 75, 105
5, 414960, Note_on_c, 3, 75, 0
5, 414960, Note_on_c, 3, 76, 105
5, 415200, Note_on_c, 3, 76, 0
5, 415440, Note_on_c, 3, 76, 105
5, 415484, Note_on_c, 3, 76, 0
5, 415560, Note_on_c, 3, 77, 105
5, 415604, Note_on_c, 3, 77, 0
5, 415680, Note_on_c, 3, 79, 105
5, 415776, Note_on_c, 3, 79, 0
5, 415920, Note_on_c, 3, 81, 105
5, 416016, Note_on_c, 3, 81, 0
5, 416160, Note_on_c, 3, 83, 105
5, 416256, Note_on_c, 3, 83, 0
5, 416400, Note_on_c, 3, 84, 105
5, 416496, Note_on_c, 3, 84, 0
5, 416640, Note_on_c, 3, 84, 105
5, 416890, Note_on_c, 3, 83, 105
5, 416949, Note_on_c, 3, 84, 0
5, 417120, Note_on_c, 3, 81, 105
5, 417219, Note_on_c, 3, 83, 0
5, 417360, Note_on_c, 3, 79, 105
5, 417399, Note_on_c, 3, 81, 0
5, 417544, Note_on_c, 3, 79, 0
5, 417600, Note_on_c, 3, 79, 105
5, 417720, Note_on_c, 3, 79, 0
5, 417720, Note_on_c, 3, 77, 105
5, 417840, Note_on_c, 3, 77, 0
5, 417840, Note_on_c, 3, 76, 105
5, 417960, Note_on_c, 3, 76, 0
5, 417960, Note_on_c, 3, 77, 105
5, 418080, Note_on_c, 3, 77, 0
5, 418080, Note_on_c, 3, 81, 105
5, 418289, Note_on_c, 3, 81, 0
5, 418320, Note_on_c, 3, 77, 105
5, 418529, Note_on_c, 3, 77, 0
5, 418560, Note_on_c, 3, 76, 105
5, 418764, Note_on_c, 3, 76, 0
5, 418800, Note_on_c, 3, 84, 105
5, 419280, Note_on_c, 3, 82, 105
5, 419339, Note_on_c, 3, 84, 0
5, 419760, Note_on_c, 3, 81, 105
5, 419824, Note_on_c, 3, 82, 0
5, 420240, Note_on_c, 3, 79, 105
5, 420309, Note_on_c, 3, 81, 0
5, 420659, Note_on_c, 3, 79, 0
5, 420720, Note_on_c, 3, 77, 105
5, 421200, Note_on_c, 3, 84, 105
5, 421274, Note_on_c, 3, 77, 0
5, 421680, Note_on_c, 3, 82, 105
5, 421754, Note_on_c, 3, 84, 0
5, 422160, Note_on_c, 3, 81, 105
5, 422269, Note_on_c, 3, 82, 0
5, 422574, Note_on_c, 3, 81, 0
5, 422640, Note_on_c, 3, 79, 105
5, 423120, Note_on_c, 3, 84, 105
5, 423224, Note_on_c, 3, 79, 0
5, 423600, Note_on_c, 3, 82, 105
5, 423674, Note_on_c, 3, 84, 0
5, 424080, Note_on_c, 3, 80, 105
5, 424154, Note_on_c, 3, 82, 0
5, 424269, Note_on_c, 3, 80, 0
5, 424320, Note_on_c, 3, 81, 110
5, 424380, Note_on_c, 3, 83, 115
5, 424414, Note_on_c, 3, 81, 0
5, 424440, Note_on_c, 3, 84, 123
5, 424474, Note_on_c, 3, 83, 0
5, 424749, Note_on_c, 3, 84, 0
5, 424800, Note_on_c, 3, 84, 105
5, 424896, Note_on_c, 3, 84, 0
5, 425040, Note_on_c, 3, 84, 105
5, 425136, Note_on_c, 3, 84, 0
5, 425280, Note_on_c, 3, 84, 105
5, 425760, Note_on_c, 3, 84, 0
5, 426240, Note_on_c, 3, 81, 104
5, 426300, Note_on_c, 3, 83, 107
5, 426354, Note_on_c, 3, 81, 0
5, 426360, Note_on_c, 3, 84, 114
5, 426414, Note_on_c, 3, 83, 0
5, 426669, Note_on_c, 3, 84, 0
5, 426720, Note_on_c, 3, 84, 105
5, 426816, Note_on_c, 3, 84, 0
5, 426960, Note_on_c, 3, 84, 105
5, 427056, Note_on_c, 3, 84, 0
5, 427200, Note_on_c, 3, 84, 105
5, 427680, Note_on_c, 3, 84, 0
5, 428160, Note_on_c, 3, 74, 105
5, 429120, Note_on_c, 3, 74, 0
5, 429120, Note_on_c, 3, 89, 105
5, 430080, Note_on_c, 3, 89, 0
5, 430080, Note_on_c, 3, 72, 105
5, 431040, Note_on_c, 3, 72, 0
5, 431040, Note_on_c, 3, 88, 105
5, 432000, Note_on_c, 3, 88, 0
5, 432000, Note_on_c, 3, 74, 105
5, 432240, Note_on_c, 3, 74, 0
5, 432240, Note_on_c, 3, 79, 105
5, 432300, Note_on_c, 3, 79, 0
5, 432300, Note_on_c, 3, 77, 105
5, 432360, Note_on_c, 3, 77, 0
5, 432360, Note_on_c, 3, 76, 105
5, 432480, Note_on_c, 3, 76, 0
5, 432480, Note_on_c, 3, 77, 105
5, 432720, Note_on_c, 3, 77, 0
5, 432720, Note_on_c, 3, 81, 105
5, 432960, Note_on_c, 3, 81, 0
5, 432960, Note_on_c, 3, 79, 105
5, 433056, Note_on_c, 3, 79, 0
5, 433200, Note_on_c, 3, 77, 105
5, 433296, Note_on_c, 3, 77, 0
5, 433440, Note_on_c, 3, 76, 105
5, 433536, Note_on_c, 3, 76, 0
5, 433680, Note_on_c, 3, 74, 105
5, 433776, Note_on_c, 3, 74, 0
5, 433920, Note_on_c, 3, 72, 105
5, 434016, Note_on_c, 3, 72, 0
5, 434160, Note_on_c, 3, 74, 105
5, 434256, Note_on_c, 3, 74, 0
5, 434400, Note_on_c, 3, 76, 105
5, 434496, Note_on_c, 3, 76, 0
5, 434640, Note_on_c, 3, 77, 105
5, 434736, Note_on_c, 3, 77, 0
5, 434880, Note_on_c, 3, 79, 105
5, 435360, Note_on_c, 3, 79, 0
5, 435840, Note_on_c, 3, 74, 105
5, 436080, Note_on_c, 3, 74, 0
5, 436080, Note_on_c, 3, 86, 105
5, 436200, Note_on_c, 3, 86, 0
5, 436200, Note_on_c, 3, 88, 105
5, 436320, Note_on_c, 3, 88, 0
5, 436320, Note_on_c, 3, 89, 105
5, 436440, Note_on_c, 3, 89, 0
5, 436440, Note_on_c, 3, 88, 105
5, 436560, Note_on_c, 3, 88, 0
5, 436560, Note_on_c, 3, 86, 105
5, 436680, Note_on_c, 3, 86, 0
5, 436680, Note_on_c, 3, 84, 105
5, 436800, Note_on_c, 3, 84, 0
5, 436800, Note_on_c, 3, 83, 105
5, 436920, Note_on_c, 3, 83, 0
5, 436920, Note_on_c, 3, 84, 105
5, 437040, Note_on_c, 3, 84, 0
5, 437040, Note_on_c, 3, 86, 105
5, 437160, Note_on_c, 3, 86, 0
5, 437160, Note_on_c, 3, 84, 105
5, 437280, Note_on_c, 3, 84, 0
5, 437280, Note_on_c, 3, 83, 105
5, 437400, Note_on_c, 3, 83, 0
5, 437400, Note_on_c, 3, 81, 105
5, 437520, Note_on_c, 3, 81, 0
5, 437520, Note_on_c, 3, 79, 105
5, 437640, Note_on_c, 3, 79, 0
5, 437640, Note_on_c, 3, 77, 105
5, 437760, Note_on_c, 3, 77, 0
5, 437760, Note_on_c, 3, 76, 105
5, 438000, Note_on_c, 3, 76, 0
5, 438000, Note_on_c, 3, 88, 105
5, 438120, Note_on_c, 3, 88, 0
5, 438120, Note_on_c, 3, 87, 105
5, 438240, Note_on_c, 3, 87, 0
5, 438240, Note_on_c, 3, 88, 105
5, 438360, Note_on_c, 3, 88, 0
5, 438360, Note_on_c, 3, 86, 105
5, 438480, Note_on_c, 3, 86, 0
5, 438480, Note_on_c, 3, 84, 105
5, 438600, Note_on_c, 3, 84, 0
5, 438600, Note_on_c, 3, 83, 105
5, 438720, Note_on_c, 3, 83, 0
5, 438720, Note_on_c, 3, 81, 105
5, 438840, Note_on_c, 3, 81, 0
5, 438840, Note_on_c, 3, 83, 105
5, 438960, Note_on_c, 3, 83, 0
5, 438960, Note_on_c, 3, 84, 105
5, 439080, Note_on_c, 3, 84, 0
5, 439080, Note_on_c, 3, 83, 105
5, 439200, Note_on_c, 3, 83, 0
5, 439200, Note_on_c, 3, 81, 105
5, 439320, Note_on_c, 3, 81, 0
5, 439320, Note_on_c, 3, 79, 105
5, 439440, Note_on_c, 3, 79, 0
5, 439440, Note_on_c, 3, 77, 105
5, 439560, Note_on_c, 3, 77, 0
5, 439560, Note_on_c, 3, 76, 105
5, 439680, Note_on_c, 3, 76, 0
5, 439680, Note_on_c, 3, 74, 105
5, 440400, Note_on_c, 3, 89, 105
5, 440469, Note_on_c, 3, 74, 0
5, 440589, Note_on_c, 3, 89, 0
5, 440640, Note_on_c, 3, 88, 105
5, 440736, Note_on_c, 3, 88, 0
5, 440880, Note_on_c, 3, 86, 105
5, 440976, Note_on_c, 3, 86, 0
5, 441120, Note_on_c, 3, 84, 105
5, 441216, Note_on_c, 3, 84, 0
5, 441360, Note_on_c, 3, 83, 105
5, 441456, Note_on_c, 3, 83, 0
5, 441600, Note_on_c, 3, 84, 105
5, 442080, Note_on_c, 3, 84, 0
5, 442560, Note_on_c, 3, 77, 105
5, 442680, Note_on_c, 3, 77, 0
5, 442680, Note_on_c, 3, 76, 105
5, 442800, Note_on_c, 3, 76, 0
5, 442800, Note_on_c, 3, 74, 105
5, 442920, Note_on_c, 3, 74, 0
5, 442920, Note_on_c, 3, 76, 105
5, 443040, Note_on_c, 3, 76, 0
5, 443040, Note_on_c, 3, 79, 105
5, 443160, Note_on_c, 3, 79, 0
5, 443160, Note_on_c, 3, 77, 105
5, 443280, Note_on_c, 3, 77, 0
5, 443280, Note_on_c, 3, 76, 105
5, 443400, Note_on_c, 3, 76, 0
5, 443400, Note_on_c, 3, 77, 105
5, 443520, Note_on_c, 3, 77, 0
5, 443520, Note_on_c, 3, 79, 105
5, 443760, Note_on_c, 3, 84, 105
5, 443844, Note_on_c, 3, 79, 0
5, 443944, Note_on_c, 3, 84, 0
5, 444000, Note_on_c, 3, 79, 105
5, 444129, Note_on_c, 3, 79, 0
5, 444240, Note_on_c, 3, 79, 105
5, 444369, Note_on_c, 3, 79, 0
5, 444480, Note_on_c, 3, 77, 105
5, 444600, Note_on_c, 3, 77, 0
5, 444600, Note_on_c, 3, 76, 105
5, 444720, Note_on_c, 3, 76, 0
5, 444720, Note_on_c, 3, 74, 105
5, 444840, Note_on_c, 3, 74, 0
5, 444840, Note_on_c, 3, 76, 105
5, 444960, Note_on_c, 3, 76, 0
5, 444960, Note_on_c, 3, 79, 105
5, 445080, Note_on_c, 3, 79, 0
5, 445080, Note_on_c, 3, 77, 105
5, 445200, Note_on_c, 3, 77, 0
5, 445200, Note_on_c, 3, 76, 105
5, 445320, Note_on_c, 3, 76, 0
5, 445320, Note_on_c, 3, 77, 105
5, 445440, Note_on_c, 3, 77, 0
5, 445440, Note_on_c, 3, 79, 105
5, 445680, Note_on_c, 3, 84, 105
5, 445749, Note_on_c, 3, 79, 0
5, 445824, Note_on_c, 3, 84, 0
5, 445920, Note_on_c, 3, 79, 105
5, 446016, Note_on_c, 3, 79, 0
5, 446160, Note_on_c, 3, 79, 105
5, 446256, Note_on_c, 3, 79, 0
5, 446400, Note_on_c, 3, 77, 105
5, 446520, Note_on_c, 3, 77, 0
5, 446520, Note_on_c, 3, 76, 105
5, 446640, Note_on_c, 3, 76, 0
5, 446640, Note_on_c, 3, 74, 105
5, 446760, Note_on_c, 3, 74, 0
5, 446760, Note_on_c, 3, 76, 105
5, 446880, Note_on_c, 3, 76, 0
5, 446880, Note_on_c, 3, 79, 105
5, 447000, Note_on_c, 3, 79, 0
5, 447000, Note_on_c, 3, 77, 105
5, 447120, Note_on_c, 3, 77, 0
5, 447120, Note_on_c, 3, 76, 105
5, 447240, Note_on_c, 3, 76, 0
5, 447240, Note_on_c, 3, 77, 105
5, 447360, Note_on_c, 3, 77, 0
5, 447360, Note_on_c, 3, 79, 105
5, 447456, Note_on_c, 3, 79, 0
5, 447600, Note_on_c, 3, 79, 105
5, 447720, Note_on_c, 3, 81, 105
5, 447764, Note_on_c, 3, 79, 0
5, 447804, Note_on_c, 3, 81, 0
5, 447840, Note_on_c, 3, 77, 105
5, 447936, Note_on_c, 3, 77, 0
5, 448080, Note_on_c, 3, 77, 105
5, 448200, Note_on_c, 3, 79, 105
5, 448249, Note_on_c, 3, 77, 0
5, 448289, Note_on_c, 3, 79, 0
5, 448320, Note_on_c, 3, 76, 105
5, 448416, Note_on_c, 3, 76, 0
5, 448560, Note_on_c, 3, 76, 105
5, 448680, Note_on_c, 3, 77, 105
5, 448724, Note_on_c, 3, 76, 0
5, 448769, Note_on_c, 3, 77, 0
5, 448800, Note_on_c, 3, 74, 105
5, 448896, Note_on_c, 3, 74, 0
5, 449040, Note_on_c, 3, 74, 105
5, 449160, Note_on_c, 3, 76, 105
5, 449204, Note_on_c, 3, 74, 0
5, 449249, Note_on_c, 3, 76, 0
5, 449280, Note_on_c, 3, 72, 105
5, 449400, Note_on_c, 3, 72, 0
5, 449400, Note_on_c, 3, 67, 105
5, 449520, Note_on_c, 3, 67, 0
5, 449520, Note_on_c, 3, 69, 105
5, 449640, Note_on_c, 3, 69, 0
5, 449640, Note_on_c, 3, 71, 105
5, 449760, Note_on_c, 3, 71, 0
5, 449760, Note_on_c, 3, 72, 105
5, 449880, Note_on_c, 3, 72, 0
5, 449880, Note_on_c, 3, 74, 105
5, 450000, Note_on_c, 3, 74, 0
5, 450000, Note_on_c, 3, 76, 105
5, 450120, Note_on_c, 3, 76, 0
5, 450120, Note_on_c, 3, 77, 105
5, 450240, Note_on_c, 3, 77, 0
5, 450240, Note_on_c, 3, 79, 105
5, 454999, Note_on_c, 3, 79, 0
5, 455040, Note_on_c, 3, 91, 105
5, 455484, Note_on_c, 3, 91, 0
5, 455520, Note_on_c, 3, 89, 105
5, 455979, Note_on_c, 3, 89, 0
5, 456000, Note_on_c, 3, 88, 105
5, 456449, Note_on_c, 3, 88, 0
5, 456480, Note_on_c, 3, 86, 105
5, 456944, Note_on_c, 3, 86, 0
5, 456960, Note_on_c, 3, 84, 105
5, 457399, Note_on_c, 3, 84, 0
5, 457440, Note_on_c, 3, 64, 105
5, 457889, Note_on_c, 3, 64, 0
5, 457920, Note_on_c, 3, 65, 105
5, 458369, Note_on_c, 3, 65, 0
5, 458400, Note_on_c, 3, 81, 105
5, 458859, Note_on_c, 3, 81, 0
5, 458880, Note_on_c, 3, 79, 105
5, 459069, Note_on_c, 3, 79, 0
5, 459120, Note_on_c, 3, 76, 105
5, 459600, Note_on_c, 3, 72, 105
5, 459659, Note_on_c, 3, 76, 0
5, 459789, Note_on_c, 3, 72, 0
5, 459840, Note_on_c, 3, 77, 105
5, 460049, Note_on_c, 3, 77, 0
5, 460080, Note_on_c, 3, 74, 105
5, 460560, Note_on_c, 3, 71, 105
5, 460629, Note_on_c, 3, 74, 0
5, 460749, Note_on_c, 3, 71, 0
5, 460800, Note_on_c, 3, 84, 105
5, 460920, Note_on_c, 3, 84, 0
5, 460920, Note_on_c, 3, 83, 105
5, 461040, Note_on_c, 3, 83, 0
5, 461040, Note_on_c, 3, 81, 105
5, 461160, Note_on_c, 3, 81, 0
5, 461160, Note_on_c, 3, 79, 105
5, 461280, Note_on_c, 3, 79, 0
5, 461280, Note_on_c, 3, 77, 105
5, 461400, Note_on_c, 3, 77, 0
5, 461400, Note_on_c, 3, 76, 105
5, 461520, Note_on_c, 3, 76, 0
5, 461520, Note_on_c, 3, 74, 105
5, 461640, Note_on_c, 3, 74, 0
5, 461640, Note_on_c, 3, 72, 105
5, 461744, Note_on_c, 3, 72, 0
5, 461760, Note_on_c, 3, 81, 105
5, 461880, Note_on_c, 3, 81, 0
5, 461880, Note_on_c, 3, 79, 105
5, 462000, Note_on_c, 3, 79, 0
5, 462000, Note_on_c, 3, 77, 105
5, 462120, Note_on_c, 3, 77, 0
5, 462120, Note_on_c, 3, 76, 105
5, 462240, Note_on_c, 3, 76, 0
5, 462240, Note_on_c, 3, 74, 105
5, 462360, Note_on_c, 3, 74, 0
5, 462360, Note_on_c, 3, 72, 105
5, 462480, Note_on_c, 3, 72, 0
5, 462480, Note_on_c, 3, 71, 105
5, 462600, Note_on_c, 3, 71, 0
5, 462600, Note_on_c, 3, 69, 105
5, 462699, Note_on_c, 3, 69, 0
5, 462720, Note_on_c, 3, 67, 105
5, 463344, Note_on_c, 3, 67, 0
5, 463440, Note_on_c, 3, 69, 105
5, 463560, Note_on_c, 3, 69, 0
5, 463560, Note_on_c, 3, 71, 105
5, 463680, Note_on_c, 3, 71, 0
5, 463680, Note_on_c, 3, 72, 105
5, 463800, Note_on_c, 3, 72, 0
5, 463800, Note_on_c, 3, 74, 105
5, 463920, Note_on_c, 3, 74, 0
5, 463920, Note_on_c, 3, 76, 105
5, 464040, Note_on_c, 3, 76, 0
5, 464040, Note_on_c, 3, 77, 105
5, 464160, Note_on_c, 3, 77, 0
5, 464160, Note_on_c, 3, 79, 105
5, 464280, Note_on_c, 3, 79, 0
5, 464280, Note_on_c, 3, 81, 105
5, 464400, Note_on_c, 3, 81, 0
5, 464400, Note_on_c, 3, 83, 105
5, 464520, Note_on_c, 3, 83, 0
5, 464520, Note_on_c, 3, 84, 105
5, 464604, Note_on_c, 3, 84, 0
5, 464640, Note_on_c, 3, 88, 105
5, 464820, Note_on_c, 3, 86, 108
5, 464849, Note_on_c, 3, 88, 0
5, 464910, Note_on_c, 3, 88, 107
5, 464934, Note_on_c, 3, 86, 0
5, 464990, Note_on_c, 3, 86, 103
5, 465014, Note_on_c, 3, 88, 0
5, 465090, Note_on_c, 3, 88, 94
5, 465104, Note_on_c, 3, 86, 0
5, 465165, Note_on_c, 3, 86, 91
5, 465199, Note_on_c, 3, 88, 0
5, 465220, Note_on_c, 3, 88, 91
5, 465249, Note_on_c, 3, 86, 0
5, 465280, Note_on_c, 3, 86, 89
5, 465316, Note_on_c, 3, 88, 0
5, 465340, Note_on_c, 3, 88, 89
5, 465364, Note_on_c, 3, 86, 0
5, 465400, Note_on_c, 3, 86, 90
5, 465436, Note_on_c, 3, 88, 0
5, 465455, Note_on_c, 3, 88, 90
5, 465484, Note_on_c, 3, 86, 0
5, 465505, Note_on_c, 3, 86, 92
5, 465539, Note_on_c, 3, 88, 0
5, 465565, Note_on_c, 3, 88, 92
5, 465601, Note_on_c, 3, 86, 0
5, 465620, Note_on_c, 3, 86, 100
5, 465649, Note_on_c, 3, 88, 0
5, 465670, Note_on_c, 3, 88, 101
5, 465710, Note_on_c, 3, 86, 101
5, 465716, Note_on_c, 3, 86, 0
5, 465754, Note_on_c, 3, 88, 0
5, 465755, Note_on_c, 3, 88, 103
5, 465806, Note_on_c, 3, 86, 0
5, 465810, Note_on_c, 3, 86, 105
5, 465839, Note_on_c, 3, 88, 0
5, 465860, Note_on_c, 3, 88, 106
5, 465906, Note_on_c, 3, 86, 0
5, 465910, Note_on_c, 3, 86, 108
5, 465944, Note_on_c, 3, 88, 0
5, 465960, Note_on_c, 3, 88, 110
5, 466006, Note_on_c, 3, 86, 0
5, 466010, Note_on_c, 3, 86, 113
5, 466044, Note_on_c, 3, 88, 0
5, 466065, Note_on_c, 3, 88, 117
5, 466106, Note_on_c, 3, 86, 0
5, 466115, Note_on_c, 3, 86, 118
5, 466149, Note_on_c, 3, 88, 0
5, 466170, Note_on_c, 3, 88, 122
5, 466211, Note_on_c, 3, 86, 0
5, 466220, Note_on_c, 3, 86, 123
5, 466266, Note_on_c, 3, 88, 0
5, 466320, Note_on_c, 3, 84, 127
5, 466359, Note_on_c, 3, 86, 0
5, 466440, Note_on_c, 3, 86, 119
5, 466479, Note_on_c, 3, 84, 0
5, 466560, Note_on_c, 3, 84, 124
5, 466594, Note_on_c, 3, 86, 0
5, 467040, Note_on_c, 3, 84, 0
5, 480000, Note_on_c, 3, 84, 105
5, 480480, Note_on_c, 3, 84, 0
5, 480720, Note_on_c, 3, 81, 105
5, 480960, Note_on_c, 3, 81, 0
5, 480960, Note_on_c, 3, 84, 105
5, 481080, Note_on_c, 3, 84, 0
5, 481080, Note_on_c, 3, 83, 105
5, 481200, Note_on_c, 3, 83, 0
5, 481200, Note_on_c, 3, 84, 105
5, 481260, Note_on_c, 3, 84, 0
5, 481260, Note_on_c, 3, 83, 105
5, 481320, Note_on_c, 3, 83, 0
5, 481320, Note_on_c, 3, 84, 105
5, 481348, Note_on_c, 3, 84, 0
5, 481348, Note_on_c, 3, 83, 105
5, 481380, Note_on_c, 3, 83, 0
5, 481380, Note_on_c, 3, 84, 105
5, 481408, Note_on_c, 3, 84, 0
5, 481408, Note_on_c, 3, 83, 105
5, 481440, Note_on_c, 3, 83, 0
5, 481440, Note_on_c, 3, 84, 105
5, 481468, Note_on_c, 3, 84, 0
5, 481468, Note_on_c, 3, 83, 105
5, 481500, Note_on_c, 3, 83, 0
5, 481500, Note_on_c, 3, 84, 105
5, 481528, Note_on_c, 3, 84, 0
5, 481528, Note_on_c, 3, 83, 105
5, 481560, Note_on_c, 3, 83, 0
5, 481560, Note_on_c, 3, 84, 105
5, 481588, Note_on_c, 3, 84, 0
5, 481588, Note_on_c, 3, 83, 105
5, 481620, Note_on_c, 3, 83, 0
5, 481620, Note_on_c, 3, 84, 105
5, 481648, Note_on_c, 3, 84, 0
5, 481648, Note_on_c, 3, 83, 105
5, 481680, Note_on_c, 3, 83, 0
5, 481680, Note_on_c, 3, 81, 105
5, 481800, Note_on_c, 3, 81, 0
5, 481800, Note_on_c, 3, 83, 105
5, 481920, Note_on_c, 3, 83, 0
5, 481920, Note_on_c, 3, 84, 105
5, 482400, Note_on_c, 3, 84, 0
5, 503040, Note_on_c, 3, 84, 123
5, 507344, Note_on_c, 3, 84, 0
5, 507360, Note_on_c, 3, 84, 127
5, 507809, Note_on_c, 3, 84, 0
5, 507840, Note_on_c, 3, 84, 127
5, 508284, Note_on_c, 3, 84, 0
5, 508320, Note_on_c, 3, 84, 126
5, 508769, Note_on_c, 3, 84, 0
5, 508800, Note_on_c, 3, 84, 126
5, 509280, Note_on_c, 3, 84, 0
5, 510720, Control_c, 3, 7, 90
5, 528000, Note_on_c, 3, 81, 87
5, 528240, Note_on_c, 3, 81, 0
5, 528480, Note_on_c, 3, 81, 87
5, 528720, Note_on_c, 3, 81, 0
5, 528960, Note_on_c, 3, 81, 87
5, 529200, Note_on_c, 3, 81, 0
5, 529440, Note_on_c, 3, 79, 97
5, 530280, Note_on_c, 3, 76, 101
5, 530319, Note_on_c, 3, 79, 0
5, 530400, Note_on_c, 3, 76, 0
5, 530400, Note_on_c, 3, 77, 96
5, 530640, Note_on_c, 3, 77, 0
5, 530880, Note_on_c, 3, 77, 80
5, 532320, Note_on_c, 3, 77, 0
5, 532320, Note_on_c, 3, 82, 92
5, 533160, Note_on_c, 3, 84, 88
5, 533184, Note_on_c, 3, 82, 0
5, 533220, Note_on_c, 3, 86, 89
5, 533254, Note_on_c, 3, 84, 0
5, 533280, Note_on_c, 3, 84, 89
5, 533309, Note_on_c, 3, 86, 0
5, 533520, Note_on_c, 3, 84, 0
5, 533760, Note_on_c, 3, 81, 105
5, 534480, Note_on_c, 3, 82, 105
5, 534504, Note_on_c, 3, 81, 0
5, 534600, Note_on_c, 3, 84, 105
5, 534630, Note_on_c, 3, 82, 0
5, 534720, Note_on_c, 3, 88, 105
5, 534750, Note_on_c, 3, 84, 0
5, 534840, Note_on_c, 3, 86, 105
5, 534870, Note_on_c, 3, 88, 0
5, 534960, Note_on_c, 3, 84, 105
5, 534990, Note_on_c, 3, 86, 0
5, 535080, Note_on_c, 3, 82, 105
5, 535110, Note_on_c, 3, 84, 0
5, 535169, Note_on_c, 3, 82, 0
5, 535200, Note_on_c, 3, 81, 105
5, 535440, Note_on_c, 3, 79, 105
5, 535489, Note_on_c, 3, 81, 0
5, 535920, Note_on_c, 3, 81, 105
5, 535944, Note_on_c, 3, 79, 0
5, 536040, Note_on_c, 3, 82, 105
5, 536070, Note_on_c, 3, 81, 0
5, 536160, Note_on_c, 3, 86, 105
5, 536190, Note_on_c, 3, 82, 0
5, 536280, Note_on_c, 3, 84, 105
5, 536310, Note_on_c, 3, 86, 0
5, 536400, Note_on_c, 3, 82, 105
5, 536430, Note_on_c, 3, 84, 0
5, 536520, Note_on_c, 3, 81, 105
5, 536550, Note_on_c, 3, 82, 0
5, 536619, Note_on_c, 3, 81, 0
5, 536640, Note_on_c, 3, 79, 105
5, 536880, Note_on_c, 3, 77, 105
5, 536934, Note_on_c, 3, 79, 0
5, 537360, Note_on_c, 3, 79, 105
5, 537384, Note_on_c, 3, 77, 0
5, 537480, Note_on_c, 3, 81, 105
5, 537510, Note_on_c, 3, 79, 0
5, 537600, Note_on_c, 3, 82, 105
5, 537630, Note_on_c, 3, 81, 0
5, 537720, Note_on_c, 3, 84, 105
5, 537750, Note_on_c, 3, 82, 0
5, 537840, Note_on_c, 3, 86, 105
5, 537870, Note_on_c, 3, 84, 0
5, 537960, Note_on_c, 3, 82, 105
5, 537990, Note_on_c, 3, 86, 0
5, 538054, Note_on_c, 3, 82, 0
5, 538080, Note_on_c, 3, 81, 105
5, 538560, Note_on_c, 3, 79, 105
5, 538609, Note_on_c, 3, 81, 0
5, 539040, Note_on_c, 3, 79, 0
5, 539520, Note_on_c, 3, 79, 105
5, 540240, Note_on_c, 3, 81, 105
5, 540274, Note_on_c, 3, 79, 0
5, 540360, Note_on_c, 3, 79, 105
5, 540394, Note_on_c, 3, 81, 0
5, 540469, Note_on_c, 3, 79, 0
5, 540480, Note_on_c, 3, 84, 105
5, 540600, Note_on_c, 3, 83, 105
5, 540649, Note_on_c, 3, 84, 0
5, 540720, Note_on_c, 3, 81, 105
5, 540754, Note_on_c, 3, 83, 0
5, 540840, Note_on_c, 3, 79, 105
5, 540874, Note_on_c, 3, 81, 0
5, 540939, Note_on_c, 3, 79, 0
5, 540960, Note_on_c, 3, 79, 105
5, 541320, Note_on_c, 3, 81, 105
5, 541364, Note_on_c, 3, 79, 0
5, 541419, Note_on_c, 3, 81, 0
5, 541440, Note_on_c, 3, 79, 105
5, 541920, Note_on_c, 3, 79, 0
5, 542340, Note_on_c, 3, 74, 105
5, 542400, Note_on_c, 3, 86, 105
5, 542434, Note_on_c, 3, 74, 0
5, 542869, Note_on_c, 3, 86, 0
5, 542880, Note_on_c, 3, 84, 105
5, 543000, Note_on_c, 3, 83, 105
5, 543059, Note_on_c, 3, 84, 0
5, 543120, Note_on_c, 3, 81, 105
5, 543149, Note_on_c, 3, 83, 0
5, 543240, Note_on_c, 3, 79, 105
5, 543269, Note_on_c, 3, 81, 0
5, 543324, Note_on_c, 3, 79, 0
5, 543360, Note_on_c, 3, 79, 105
5, 543456, Note_on_c, 3, 79, 0
5, 543600, Note_on_c, 3, 79, 105
5, 543696, Note_on_c, 3, 79, 0
5, 543840, Note_on_c, 3, 79, 105
5, 544200, Note_on_c, 3, 76, 105
5, 544239, Note_on_c, 3, 79, 0
5, 544304, Note_on_c, 3, 76, 0
5, 544320, Note_on_c, 3, 79, 105
5, 544800, Note_on_c, 3, 79, 0
5, 547200, Note_on_c, 3, 79, 105
5, 547560, Note_on_c, 3, 81, 105
5, 547599, Note_on_c, 3, 79, 0
5, 547680, Note_on_c, 3, 81, 0
5, 547680, Note_on_c, 3, 79, 105
5, 548160, Note_on_c, 3, 79, 0
5, 550080, Note_on_c, 3, 79, 105
5, 550440, Note_on_c, 3, 76, 105
5, 550479, Note_on_c, 3, 79, 0
5, 550544, Note_on_c, 3, 76, 0
5, 550560, Note_on_c, 3, 79, 105
5, 550656, Note_on_c, 3, 79, 0
5, 550800, Note_on_c, 3, 79, 105
5, 550896, Note_on_c, 3, 79, 0
5, 551040, Note_on_c, 3, 84, 105
5, 551520, Note_on_c, 3, 84, 0
5, 551520, Note_on_c, 3, 83, 105
5, 551640, Note_on_c, 3, 81, 105
5, 551664, Note_on_c, 3, 83, 0
5, 551760, Note_on_c, 3, 79, 105
5, 551799, Note_on_c, 3, 81, 0
5, 551880, Note_on_c, 3, 78, 105
5, 551919, Note_on_c, 3, 79, 0
5, 551969, Note_on_c, 3, 78, 0
5, 552000, Note_on_c, 3, 78, 105
5, 552096, Note_on_c, 3, 78, 0
5, 552240, Note_on_c, 3, 78, 105
5, 552336, Note_on_c, 3, 78, 0
5, 552480, Note_on_c, 3, 81, 105
5, 552600, Note_on_c, 3, 79, 105
5, 552639, Note_on_c, 3, 81, 0
5, 552694, Note_on_c, 3, 79, 0
5, 552720, Note_on_c, 3, 79, 105
5, 553200, Note_on_c, 3, 79, 0
5, 553200, Note_on_c, 3, 83, 105
5, 553320, Note_on_c, 3, 86, 105
5, 553359, Note_on_c, 3, 83, 0
5, 553419, Note_on_c, 3, 86, 0
5, 553440, Note_on_c, 3, 84, 105
5, 553560, Note_on_c, 3, 81, 105
5, 553589, Note_on_c, 3, 84, 0
5, 553680, Note_on_c, 3, 79, 105
5, 553729, Note_on_c, 3, 81, 0
5, 553800, Note_on_c, 3, 78, 105
5, 553859, Note_on_c, 3, 79, 0
5, 553909, Note_on_c, 3, 78, 0
5, 553920, Note_on_c, 3, 81, 105
5, 553980, Note_on_c, 3, 79, 105
5, 553995, Note_on_c, 3, 81, 0
5, 554040, Note_on_c, 3, 81, 106
5, 554055, Note_on_c, 3, 79, 0
5, 554068, Note_on_c, 3, 79, 107
5, 554075, Note_on_c, 3, 81, 0
5, 554100, Note_on_c, 3, 81, 109
5, 554108, Note_on_c, 3, 79, 0
5, 554128, Note_on_c, 3, 79, 109
5, 554135, Note_on_c, 3, 81, 0
5, 554160, Note_on_c, 3, 81, 108
5, 554168, Note_on_c, 3, 79, 0
5, 554188, Note_on_c, 3, 79, 106
5, 554195, Note_on_c, 3, 81, 0
5, 554220, Note_on_c, 3, 81, 105
5, 554228, Note_on_c, 3, 79, 0
5, 554248, Note_on_c, 3, 79, 100
5, 554255, Note_on_c, 3, 81, 0
5, 554280, Note_on_c, 3, 78, 98
5, 554288, Note_on_c, 3, 79, 0
5, 554340, Note_on_c, 3, 79, 98
5, 554355, Note_on_c, 3, 78, 0
5, 554400, Note_on_c, 3, 67, 102
5, 554415, Note_on_c, 3, 79, 0
5, 554880, Note_on_c, 3, 67, 0
5, 560160, Note_on_c, 3, 77, 105
5, 560604, Note_on_c, 3, 77, 0
5, 560640, Note_on_c, 3, 89, 105
5, 560760, Note_on_c, 3, 86, 105
5, 560790, Note_on_c, 3, 89, 0
5, 560880, Note_on_c, 3, 83, 105
5, 560910, Note_on_c, 3, 86, 0
5, 561000, Note_on_c, 3, 77, 105
5, 561030, Note_on_c, 3, 83, 0
5, 561099, Note_on_c, 3, 77, 0
5, 561120, Note_on_c, 3, 76, 105
5, 561600, Note_on_c, 3, 76, 0
5, 561600, Note_on_c, 3, 77, 105
5, 561660, Note_on_c, 3, 76, 105
5, 561675, Note_on_c, 3, 77, 0
5, 561720, Note_on_c, 3, 77, 105
5, 561735, Note_on_c, 3, 76, 0
5, 561748, Note_on_c, 3, 76, 105
5, 561755, Note_on_c, 3, 77, 0
5, 561780, Note_on_c, 3, 77, 105
5, 561788, Note_on_c, 3, 76, 0
5, 561808, Note_on_c, 3, 76, 105
5, 561815, Note_on_c, 3, 77, 0
5, 561840, Note_on_c, 3, 77, 105
5, 561848, Note_on_c, 3, 76, 0
5, 561868, Note_on_c, 3, 76, 105
5, 561875, Note_on_c, 3, 77, 0
5, 561900, Note_on_c, 3, 77, 105
5, 561908, Note_on_c, 3, 76, 0
5, 561928, Note_on_c, 3, 76, 105
5, 561935, Note_on_c, 3, 77, 0
5, 561960, Note_on_c, 3, 74, 105
5, 561968, Note_on_c, 3, 76, 0
5, 562020, Note_on_c, 3, 76, 105
5, 562035, Note_on_c, 3, 74, 0
5, 562080, Note_on_c, 3, 76, 0
5, 562080, Note_on_c, 3, 79, 105
5, 562140, Note_on_c, 3, 77, 105
5, 562155, Note_on_c, 3, 79, 0
5, 562200, Note_on_c, 3, 79, 105
5, 562215, Note_on_c, 3, 77, 0
5, 562228, Note_on_c, 3, 77, 105
5, 562235, Note_on_c, 3, 79, 0
5, 562260, Note_on_c, 3, 79, 105
5, 562268, Note_on_c, 3, 77, 0
5, 562288, Note_on_c, 3, 77, 105
5, 562295, Note_on_c, 3, 79, 0
5, 562320, Note_on_c, 3, 79, 105
5, 562328, Note_on_c, 3, 77, 0
5, 562348, Note_on_c, 3, 77, 105
5, 562355, Note_on_c, 3, 79, 0
5, 562380, Note_on_c, 3, 79, 105
5, 562388, Note_on_c, 3, 77, 0
5, 562408, Note_on_c, 3, 77, 105
5, 562415, Note_on_c, 3, 79, 0
5, 562440, Note_on_c, 3, 76, 105
5, 562448, Note_on_c, 3, 77, 0
5, 562500, Note_on_c, 3, 77, 105
5, 562515, Note_on_c, 3, 76, 0
5, 562560, Note_on_c, 3, 77, 0
5, 562560, Note_on_c, 3, 79, 105
5, 562920, Note_on_c, 3, 76, 105
5, 562969, Note_on_c, 3, 79, 0
5, 563009, Note_on_c, 3, 76, 0
5, 563040, Note_on_c, 3, 84, 105
5, 563760, Note_on_c, 3, 84, 0
5, 563760, Note_on_c, 3, 79, 105
5, 563979, Note_on_c, 3, 79, 0
5, 564000, Note_on_c, 3, 79, 105
5, 564120, Note_on_c, 3, 77, 105
5, 564149, Note_on_c, 3, 79, 0
5, 564219, Note_on_c, 3, 77, 0
5, 564240, Note_on_c, 3, 81, 105
5, 564284, Note_on_c, 3, 81, 0
5, 564360, Note_on_c, 3, 77, 105
5, 564404, Note_on_c, 3, 77, 0
5, 564480, Note_on_c, 3, 77, 105
5, 564600, Note_on_c, 3, 76, 105
5, 564639, Note_on_c, 3, 77, 0
5, 564699, Note_on_c, 3, 76, 0
5, 564720, Note_on_c, 3, 79, 105
5, 564764, Note_on_c, 3, 79, 0
5, 564840, Note_on_c, 3, 76, 105
5, 564884, Note_on_c, 3, 76, 0
5, 564960, Note_on_c, 3, 76, 105
5, 565080, Note_on_c, 3, 74, 105
5, 565114, Note_on_c, 3, 76, 0
5, 565164, Note_on_c, 3, 74, 0
5, 565200, Note_on_c, 3, 77, 105
5, 565244, Note_on_c, 3, 77, 0
5, 565320, Note_on_c, 3, 74, 105
5, 565364, Note_on_c, 3, 74, 0
5, 565440, Note_on_c, 3, 72, 105
5, 565920, Note_on_c, 3, 72, 0
5, 570240, Note_on_c, 3, 77, 105
5, 570480, Note_on_c, 3, 89, 105
5, 570534, Note_on_c, 3, 77, 0
5, 570840, Note_on_c, 3, 86, 105
5, 570879, Note_on_c, 3, 89, 0
5, 570960, Note_on_c, 3, 83, 105
5, 571004, Note_on_c, 3, 86, 0
5, 571080, Note_on_c, 3, 77, 105
5, 571114, Note_on_c, 3, 83, 0
5, 571174, Note_on_c, 3, 77, 0
5, 571200, Note_on_c, 3, 76, 105
5, 571680, Note_on_c, 3, 76, 0
5, 571680, Note_on_c, 3, 77, 105
5, 571740, Note_on_c, 3, 76, 105
5, 571755, Note_on_c, 3, 77, 0
5, 571800, Note_on_c, 3, 77, 105
5, 571815, Note_on_c, 3, 76, 0
5, 571828, Note_on_c, 3, 76, 105
5, 571835, Note_on_c, 3, 77, 0
5, 571860, Note_on_c, 3, 77, 105
5, 571868, Note_on_c, 3, 76, 0
5, 571888, Note_on_c, 3, 76, 105
5, 571895, Note_on_c, 3, 77, 0
5, 571920, Note_on_c, 3, 77, 105
5, 571928, Note_on_c, 3, 76, 0
5, 571948, Note_on_c, 3, 76, 105
5, 571955, Note_on_c, 3, 77, 0
5, 571980, Note_on_c, 3, 77, 105
5, 571988, Note_on_c, 3, 76, 0
5, 572008, Note_on_c, 3, 76, 105
5, 572015, Note_on_c, 3, 77, 0
5, 572040, Note_on_c, 3, 74, 105
5, 572048, Note_on_c, 3, 76, 0
5, 572100, Note_on_c, 3, 76, 105
5, 572115, Note_on_c, 3, 74, 0
5, 572159, Note_on_c, 3, 76, 0
5, 572160, Note_on_c, 3, 79, 105
5, 572220, Note_on_c, 3, 77, 105
5, 572235, Note_on_c, 3, 79, 0
5, 572280, Note_on_c, 3, 79, 105
5, 572295, Note_on_c, 3, 77, 0
5, 572308, Note_on_c, 3, 77, 105
5, 572315, Note_on_c, 3, 79, 0
5, 572340, Note_on_c, 3, 79, 105
5, 572348, Note_on_c, 3, 77, 0
5, 572368, Note_on_c, 3, 77, 105
5, 572375, Note_on_c, 3, 79, 0
5, 572400, Note_on_c, 3, 79, 105
5, 572408, Note_on_c, 3, 77, 0
5, 572428, Note_on_c, 3, 77, 105
5, 572435, Note_on_c, 3, 79, 0
5, 572460, Note_on_c, 3, 79, 105
5, 572468, Note_on_c, 3, 77, 0
5, 572488, Note_on_c, 3, 77, 105
5, 572495, Note_on_c, 3, 79, 0
5, 572520, Note_on_c, 3, 76, 105
5, 572528, Note_on_c, 3, 77, 0
5, 572580, Note_on_c, 3, 77, 105
5, 572595, Note_on_c, 3, 76, 0
5, 572640, Note_on_c, 3, 77, 0
5, 572640, Note_on_c, 3, 79, 105
5, 573000, Note_on_c, 3, 76, 105
5, 573024, Note_on_c, 3, 79, 0
5, 573094, Note_on_c, 3, 76, 0
5, 573120, Note_on_c, 3, 79, 105
5, 573600, Note_on_c, 3, 79, 0
5, 574080, Note_on_c, 3, 76, 105
5, 574560, Note_on_c, 3, 76, 0
5, 574560, Note_on_c, 3, 77, 105
5, 574620, Note_on_c, 3, 76, 105
5, 574635, Note_on_c, 3, 77, 0
5, 574680, Note_on_c, 3, 77, 105
5, 574695, Note_on_c, 3, 76, 0
5, 574708, Note_on_c, 3, 76, 105
5, 574715, Note_on_c, 3, 77, 0
5, 574740, Note_on_c, 3, 77, 105
5, 574748, Note_on_c, 3, 76, 0
5, 574768, Note_on_c, 3, 76, 105
5, 574775, Note_on_c, 3, 77, 0
5, 574800, Note_on_c, 3, 77, 105
5, 574808, Note_on_c, 3, 76, 0
5, 574828, Note_on_c, 3, 76, 105
5, 574835, Note_on_c, 3, 77, 0
5, 574860, Note_on_c, 3, 77, 105
5, 574868, Note_on_c, 3, 76, 0
5, 574888, Note_on_c, 3, 76, 105
5, 574895, Note_on_c, 3, 77, 0
5, 574920, Note_on_c, 3, 74, 105
5, 574928, Note_on_c, 3, 76, 0
5, 574980, Note_on_c, 3, 76, 105
5, 574995, Note_on_c, 3, 74, 0
5, 575040, Note_on_c, 3, 76, 0
5, 575040, Note_on_c, 3, 79, 105
5, 575100, Note_on_c, 3, 77, 105
5, 575115, Note_on_c, 3, 79, 0
5, 575160, Note_on_c, 3, 79, 105
5, 575175, Note_on_c, 3, 77, 0
5, 575188, Note_on_c, 3, 77, 105
5, 575195, Note_on_c, 3, 79, 0
5, 575220, Note_on_c, 3, 79, 105
5, 575228, Note_on_c, 3, 77, 0
5, 575248, Note_on_c, 3, 77, 105
5, 575255, Note_on_c, 3, 79, 0
5, 575280, Note_on_c, 3, 79, 105
5, 575288, Note_on_c, 3, 77, 0
5, 575308, Note_on_c, 3, 77, 105
5, 575315, Note_on_c, 3, 79, 0
5, 575340, Note_on_c, 3, 79, 105
5, 575348, Note_on_c, 3, 77, 0
5, 575368, Note_on_c, 3, 77, 105
5, 575375, Note_on_c, 3, 79, 0
5, 575400, Note_on_c, 3, 76, 105
5, 575408, Note_on_c, 3, 77, 0
5, 575460, Note_on_c, 3, 77, 105
5, 575475, Note_on_c, 3, 76, 0
5, 575520, Note_on_c, 3, 77, 0
5, 575520, Note_on_c, 3, 79, 105
5, 575640, Note_on_c, 3, 76, 105
5, 575669, Note_on_c, 3, 79, 0
5, 575719, Note_on_c, 3, 76, 0
5, 575760, Note_on_c, 3, 79, 105
5, 575809, Note_on_c, 3, 79, 0
5, 575880, Note_on_c, 3, 79, 105
5, 575934, Note_on_c, 3, 79, 0
5, 576000, Note_on_c, 3, 79, 105
5, 576480, Note_on_c, 3, 79, 0
5, 576960, Note_on_c, 3, 84, 105
5, 577200, Note_on_c, 3, 83, 105
5, 577244, Note_on_c, 3, 84, 0
5, 577440, Note_on_c, 3, 81, 105
5, 577474, Note_on_c, 3, 83, 0
5, 577680, Note_on_c, 3, 79, 105
5, 577734, Note_on_c, 3, 81, 0
5, 577920, Note_on_c, 3, 77, 105
5, 577964, Note_on_c, 3, 79, 0
5, 578160, Note_on_c, 3, 76, 105
5, 578204, Note_on_c, 3, 77, 0
5, 578349, Note_on_c, 3, 76, 0
5, 578400, Note_on_c, 3, 74, 105
5, 578640, Note_on_c, 3, 74, 0
5, 578640, Note_on_c, 3, 76, 105
5, 578668, Note_on_c, 3, 74, 105
5, 578675, Note_on_c, 3, 76, 0
5, 578700, Note_on_c, 3, 73, 105
5, 578708, Note_on_c, 3, 74, 0
5, 578728, Note_on_c, 3, 74, 105
5, 578735, Note_on_c, 3, 73, 0
5, 578760, Note_on_c, 3, 76, 105
5, 578768, Note_on_c, 3, 74, 0
5, 578880, Note_on_c, 3, 76, 0
5, 578880, Note_on_c, 3, 77, 105
5, 579120, Note_on_c, 3, 77, 0
5, 579120, Note_on_c, 3, 79, 105
5, 579148, Note_on_c, 3, 77, 105
5, 579155, Note_on_c, 3, 79, 0
5, 579180, Note_on_c, 3, 76, 105
5, 579188, Note_on_c, 3, 77, 0
5, 579208, Note_on_c, 3, 77, 105
5, 579215, Note_on_c, 3, 76, 0
5, 579240, Note_on_c, 3, 79, 105
5, 579248, Note_on_c, 3, 77, 0
5, 579360, Note_on_c, 3, 79, 0
5, 579360, Note_on_c, 3, 81, 105
5, 579600, Note_on_c, 3, 81, 0
5, 579600, Note_on_c, 3, 83, 105
5, 579628, Note_on_c, 3, 81, 105
5, 579635, Note_on_c, 3, 83, 0
5, 579660, Note_on_c, 3, 79, 105
5, 579668, Note_on_c, 3, 81, 0
5, 579688, Note_on_c, 3, 81, 105
5, 579695, Note_on_c, 3, 79, 0
5, 579720, Note_on_c, 3, 83, 105
5, 579728, Note_on_c, 3, 81, 0
5, 579840, Note_on_c, 3, 83, 0
5, 579840, Note_on_c, 3, 84, 105
5, 579960, Note_on_c, 3, 84, 0
5, 579960, Note_on_c, 3, 79, 105
5, 580080, Note_on_c, 3, 79, 0
5, 580080, Note_on_c, 3, 83, 105
5, 580140, Note_on_c, 3, 83, 0
5, 580140, Note_on_c, 3, 81, 105
5, 580200, Note_on_c, 3, 81, 0
5, 580200, Note_on_c, 3, 79, 105
5, 580260, Note_on_c, 3, 79, 0
5, 580260, Note_on_c, 3, 77, 105
5, 580320, Note_on_c, 3, 77, 0
5, 580320, Note_on_c, 3, 76, 105
5, 580800, Note_on_c, 3, 76, 0
5, 580800, Note_on_c, 3, 76, 105
5, 580860, Note_on_c, 3, 74, 105
5, 580875, Note_on_c, 3, 76, 0
5, 580920, Note_on_c, 3, 76, 105
5, 580935, Note_on_c, 3, 74, 0
5, 580948, Note_on_c, 3, 74, 105
5, 580955, Note_on_c, 3, 76, 0
5, 580980, Note_on_c, 3, 76, 105
5, 580988, Note_on_c, 3, 74, 0
5, 581008, Note_on_c, 3, 74, 105
5, 581015, Note_on_c, 3, 76, 0
5, 581040, Note_on_c, 3, 76, 105
5, 581048, Note_on_c, 3, 74, 0
5, 581068, Note_on_c, 3, 74, 105
5, 581075, Note_on_c, 3, 76, 0
5, 581100, Note_on_c, 3, 76, 105
5, 581108, Note_on_c, 3, 74, 0
5, 581128, Note_on_c, 3, 74, 105
5, 581135, Note_on_c, 3, 76, 0
5, 581160, Note_on_c, 3, 72, 105
5, 581168, Note_on_c, 3, 74, 0
5, 581220, Note_on_c, 3, 74, 105
5, 581235, Note_on_c, 3, 72, 0
5, 581280, Note_on_c, 3, 74, 0
5, 581280, Note_on_c, 3, 72, 105
5, 581760, Note_on_c, 3, 72, 0
5, 585600, Note_on_c, 3, 84, 91
5, 587040, Note_on_c, 3, 83, 95
5, 587084, Note_on_c, 3, 84, 0
5, 588480, Note_on_c, 3, 83, 0
5, 588480, Note_on_c, 3, 82, 99
5, 589920, Note_on_c, 3, 81, 103
5, 589974, Note_on_c, 3, 82, 0
5, 591360, Note_on_c, 3, 81, 0
5, 591360, Note_on_c, 3, 82, 105
5, 591840, Note_on_c, 3, 82, 0
5, 591840, Note_on_c, 3, 84, 107
5, 591900, Note_on_c, 3, 82, 107
5, 591920, Note_on_c, 3, 84, 0
5, 591960, Note_on_c, 3, 84, 107
5, 591980, Note_on_c, 3, 82, 0
5, 592020, Note_on_c, 3, 82, 110
5, 592040, Note_on_c, 3, 84, 0
5, 592080, Note_on_c, 3, 84, 112
5, 592100, Note_on_c, 3, 82, 0
5, 592108, Note_on_c, 3, 82, 114
5, 592118, Note_on_c, 3, 84, 0
5, 592140, Note_on_c, 3, 84, 115
5, 592151, Note_on_c, 3, 82, 0
5, 592168, Note_on_c, 3, 82, 115
5, 592178, Note_on_c, 3, 84, 0
5, 592200, Note_on_c, 3, 84, 115
5, 592211, Note_on_c, 3, 82, 0
5, 592228, Note_on_c, 3, 82, 115
5, 592238, Note_on_c, 3, 84, 0
5, 592260, Note_on_c, 3, 84, 115
5, 592271, Note_on_c, 3, 82, 0
5, 592288, Note_on_c, 3, 82, 115
5, 592298, Note_on_c, 3, 84, 0
5, 592320, Note_on_c, 3, 84, 115
5, 592331, Note_on_c, 3, 82, 0
5, 592348, Note_on_c, 3, 82, 117
5, 592358, Note_on_c, 3, 84, 0
5, 592380, Note_on_c, 3, 84, 117
5, 592391, Note_on_c, 3, 82, 0
5, 592408, Note_on_c, 3, 82, 117
5, 592418, Note_on_c, 3, 84, 0
5, 592440, Note_on_c, 3, 84, 117
5, 592451, Note_on_c, 3, 82, 0
5, 592468, Note_on_c, 3, 82, 117
5, 592478, Note_on_c, 3, 84, 0
5, 592500, Note_on_c, 3, 84, 117
5, 592511, Note_on_c, 3, 82, 0
5, 592528, Note_on_c, 3, 82, 117
5, 592538, Note_on_c, 3, 84, 0
5, 592560, Note_on_c, 3, 84, 115
5, 592571, Note_on_c, 3, 82, 0
5, 592588, Note_on_c, 3, 82, 115
5, 592598, Note_on_c, 3, 84, 0
5, 592620, Note_on_c, 3, 84, 114
5, 592631, Note_on_c, 3, 82, 0
5, 592648, Note_on_c, 3, 82, 114
5, 592658, Note_on_c, 3, 84, 0
5, 592680, Note_on_c, 3, 81, 113
5, 592691, Note_on_c, 3, 82, 0
5, 592740, Note_on_c, 3, 82, 110
5, 592760, Note_on_c, 3, 81, 0
5, 592800, Note_on_c, 3, 81, 107
5, 592820, Note_on_c, 3, 82, 0
5, 593040, Note_on_c, 3, 81, 0
5, 593280, Note_on_c, 3, 81, 92
5, 593520, Note_on_c, 3, 81, 0
5, 593760, Note_on_c, 3, 81, 93
5, 594000, Note_on_c, 3, 81, 0
5, 594240, Note_on_c, 3, 79, 105
5, 595080, Note_on_c, 3, 76, 105
5, 595109, Note_on_c, 3, 79, 0
5, 595179, Note_on_c, 3, 76, 0
5, 595200, Note_on_c, 3, 77, 105
5, 595440, Note_on_c, 3, 77, 0
5, 595680, Note_on_c, 3, 77, 84
5, 597120, Note_on_c, 3, 77, 0
5, 597120, Note_on_c, 3, 82, 97
5, 597960, Note_on_c, 3, 84, 89
5, 597989, Note_on_c, 3, 82, 0
5, 598020, Note_on_c, 3, 86, 96
5, 598049, Note_on_c, 3, 84, 0
5, 598080, Note_on_c, 3, 84, 99
5, 598109, Note_on_c, 3, 86, 0
5, 598320, Note_on_c, 3, 84, 0
5, 598500, Note_on_c, 3, 69, 105
5, 598560, Note_on_c, 3, 81, 105
5, 598599, Note_on_c, 3, 69, 0
5, 599249, Note_on_c, 3, 81, 0
5, 599280, Note_on_c, 3, 82, 105
5, 599400, Note_on_c, 3, 84, 105
5, 599426, Note_on_c, 3, 82, 0
5, 599520, Note_on_c, 3, 88, 105
5, 599546, Note_on_c, 3, 84, 0
5, 599640, Note_on_c, 3, 86, 105
5, 599666, Note_on_c, 3, 88, 0
5, 599760, Note_on_c, 3, 84, 105
5, 599786, Note_on_c, 3, 86, 0
5, 599880, Note_on_c, 3, 82, 105
5, 599906, Note_on_c, 3, 84, 0
5, 599964, Note_on_c, 3, 82, 0
5, 600000, Note_on_c, 3, 81, 105
5, 600240, Note_on_c, 3, 79, 105
5, 600299, Note_on_c, 3, 81, 0
5, 600720, Note_on_c, 3, 81, 105
5, 600749, Note_on_c, 3, 79, 0
5, 600840, Note_on_c, 3, 82, 105
5, 600866, Note_on_c, 3, 81, 0
5, 600960, Note_on_c, 3, 86, 105
5, 600986, Note_on_c, 3, 82, 0
5, 601080, Note_on_c, 3, 84, 105
5, 601106, Note_on_c, 3, 86, 0
5, 601200, Note_on_c, 3, 82, 105
5, 601226, Note_on_c, 3, 84, 0
5, 601320, Note_on_c, 3, 81, 105
5, 601346, Note_on_c, 3, 82, 0
5, 601404, Note_on_c, 3, 81, 0
5, 601440, Note_on_c, 3, 79, 105
5, 601680, Note_on_c, 3, 77, 105
5, 601724, Note_on_c, 3, 79, 0
5, 602109, Note_on_c, 3, 77, 0
5, 602160, Note_on_c, 3, 79, 105
5, 602280, Note_on_c, 3, 81, 105
5, 602306, Note_on_c, 3, 79, 0
5, 602400, Note_on_c, 3, 82, 105
5, 602426, Note_on_c, 3, 81, 0
5, 602520, Note_on_c, 3, 84, 105
5, 602546, Note_on_c, 3, 82, 0
5, 602640, Note_on_c, 3, 86, 105
5, 602666, Note_on_c, 3, 84, 0
5, 602760, Note_on_c, 3, 82, 105
5, 602786, Note_on_c, 3, 86, 0
5, 602854, Note_on_c, 3, 82, 0
5, 602880, Note_on_c, 3, 81, 105
5, 603360, Note_on_c, 3, 79, 105
5, 603394, Note_on_c, 3, 81, 0
5, 603840, Note_on_c, 3, 79, 0
5, 604320, Note_on_c, 3, 79, 105
5, 605040, Note_on_c, 3, 81, 105
5, 605074, Note_on_c, 3, 79, 0
5, 605160, Note_on_c, 3, 79, 105
5, 605184, Note_on_c, 3, 81, 0
5, 605249, Note_on_c, 3, 79, 0
5, 605280, Note_on_c, 3, 84, 105
5, 605400, Note_on_c, 3, 83, 105
5, 605426, Note_on_c, 3, 84, 0
5, 605520, Note_on_c, 3, 81, 105
5, 605546, Note_on_c, 3, 83, 0
5, 605640, Note_on_c, 3, 79, 105
5, 605666, Note_on_c, 3, 81, 0
5, 605734, Note_on_c, 3, 79, 0
5, 605760, Note_on_c, 3, 79, 105
5, 606120, Note_on_c, 3, 81, 105
5, 606149, Note_on_c, 3, 79, 0
5, 606219, Note_on_c, 3, 81, 0
5, 606240, Note_on_c, 3, 79, 105
5, 606720, Note_on_c, 3, 79, 0
5, 607140, Note_on_c, 3, 74, 105
5, 607200, Note_on_c, 3, 86, 105
5, 607229, Note_on_c, 3, 74, 0
5, 607680, Note_on_c, 3, 86, 0
5, 607680, Note_on_c, 3, 84, 105
5, 607800, Note_on_c, 3, 83, 105
5, 607826, Note_on_c, 3, 84, 0
5, 607920, Note_on_c, 3, 81, 105
5, 607946, Note_on_c, 3, 83, 0
5, 608040, Note_on_c, 3, 79, 105
5, 608066, Note_on_c, 3, 81, 0
5, 608124, Note_on_c, 3, 79, 0
5, 608160, Note_on_c, 3, 79, 105
5, 608299, Note_on_c, 3, 79, 0
5, 608400, Note_on_c, 3, 79, 105
5, 608509, Note_on_c, 3, 79, 0
5, 608640, Note_on_c, 3, 79, 105
5, 609000, Note_on_c, 3, 76, 105
5, 609044, Note_on_c, 3, 79, 0
5, 609099, Note_on_c, 3, 76, 0
5, 609120, Note_on_c, 3, 79, 105
5, 609600, Note_on_c, 3, 79, 0
5, 612000, Note_on_c, 3, 84, 105
5, 612360, Note_on_c, 3, 86, 105
5, 612404, Note_on_c, 3, 84, 0
5, 612459, Note_on_c, 3, 86, 0
5, 612480, Note_on_c, 3, 84, 105
5, 612960, Note_on_c, 3, 84, 0
5, 614880, Note_on_c, 3, 84, 105
5, 615240, Note_on_c, 3, 81, 105
5, 615269, Note_on_c, 3, 84, 0
5, 615334, Note_on_c, 3, 81, 0
5, 615360, Note_on_c, 3, 84, 105
5, 615484, Note_on_c, 3, 84, 0
5, 615600, Note_on_c, 3, 84, 105
5, 615719, Note_on_c, 3, 84, 0
5, 615840, Note_on_c, 3, 84, 105
5, 615960, Note_on_c, 3, 83, 105
5, 616009, Note_on_c, 3, 84, 0
5, 616044, Note_on_c, 3, 83, 0
5, 616080, Note_on_c, 3, 83, 105
5, 616440, Note_on_c, 3, 84, 105
5, 616474, Note_on_c, 3, 83, 0
5, 616560, Note_on_c, 3, 86, 105
5, 616586, Note_on_c, 3, 84, 0
5, 616680, Note_on_c, 3, 84, 105
5, 616706, Note_on_c, 3, 86, 0
5, 616800, Note_on_c, 3, 83, 105
5, 616826, Note_on_c, 3, 84, 0
5, 616920, Note_on_c, 3, 81, 105
5, 616946, Note_on_c, 3, 83, 0
5, 617040, Note_on_c, 3, 79, 105
5, 617066, Note_on_c, 3, 81, 0
5, 617160, Note_on_c, 3, 77, 105
5, 617186, Note_on_c, 3, 79, 0
5, 617239, Note_on_c, 3, 77, 0
5, 617280, Note_on_c, 3, 77, 105
5, 617400, Note_on_c, 3, 76, 105
5, 617434, Note_on_c, 3, 77, 0
5, 617520, Note_on_c, 3, 81, 105
5, 617549, Note_on_c, 3, 76, 0
5, 617640, Note_on_c, 3, 81, 0
5, 617640, Note_on_c, 3, 79, 105
5, 617714, Note_on_c, 3, 79, 0
5, 617760, Note_on_c, 3, 79, 105
5, 618164, Note_on_c, 3, 79, 0
5, 618240, Note_on_c, 3, 89, 105
5, 618360, Note_on_c, 3, 86, 105
5, 618386, Note_on_c, 3, 89, 0
5, 618480, Note_on_c, 3, 84, 105
5, 618506, Note_on_c, 3, 86, 0
5, 618600, Note_on_c, 3, 83, 105
5, 618626, Note_on_c, 3, 84, 0
5, 618720, Note_on_c, 3, 83, 0
5, 618720, Note_on_c, 3, 86, 102
5, 618780, Note_on_c, 3, 84, 107
5, 618793, Note_on_c, 3, 86, 0
5, 618840, Note_on_c, 3, 86, 108
5, 618853, Note_on_c, 3, 84, 0
5, 618868, Note_on_c, 3, 84, 109
5, 618874, Note_on_c, 3, 86, 0
5, 618900, Note_on_c, 3, 86, 106
5, 618907, Note_on_c, 3, 84, 0
5, 618928, Note_on_c, 3, 84, 105
5, 618934, Note_on_c, 3, 86, 0
5, 618960, Note_on_c, 3, 86, 101
5, 618967, Note_on_c, 3, 84, 0
5, 618988, Note_on_c, 3, 84, 99
5, 618994, Note_on_c, 3, 86, 0
5, 619020, Note_on_c, 3, 86, 96
5, 619027, Note_on_c, 3, 84, 0
5, 619048, Note_on_c, 3, 84, 93
5, 619054, Note_on_c, 3, 86, 0
5, 619080, Note_on_c, 3, 83, 93
5, 619087, Note_on_c, 3, 84, 0
5, 619140, Note_on_c, 3, 84, 95
5, 619153, Note_on_c, 3, 83, 0
5, 619200, Note_on_c, 3, 72, 100
5, 619213, Note_on_c, 3, 84, 0
5, 619680, Note_on_c, 3, 72, 0
5, 624960, Note_on_c, 3, 70, 105
5, 625560, Note_on_c, 3, 70, 0
5, 625560, Note_on_c, 3, 76, 105
5, 625680, Note_on_c, 3, 79, 105
5, 625706, Note_on_c, 3, 76, 0
5, 625800, Note_on_c, 3, 82, 105
5, 625826, Note_on_c, 3, 79, 0
5, 625884, Note_on_c, 3, 82, 0
5, 625920, Note_on_c, 3, 81, 105
5, 626354, Note_on_c, 3, 81, 0
5, 626400, Note_on_c, 3, 82, 105
5, 626460, Note_on_c, 3, 81, 105
5, 626473, Note_on_c, 3, 82, 0
5, 626520, Note_on_c, 3, 82, 105
5, 626533, Note_on_c, 3, 81, 0
5, 626548, Note_on_c, 3, 81, 105
5, 626554, Note_on_c, 3, 82, 0
5, 626580, Note_on_c, 3, 82, 105
5, 626587, Note_on_c, 3, 81, 0
5, 626608, Note_on_c, 3, 81, 105
5, 626614, Note_on_c, 3, 82, 0
5, 626640, Note_on_c, 3, 82, 105
5, 626647, Note_on_c, 3, 81, 0
5, 626668, Note_on_c, 3, 81, 105
5, 626674, Note_on_c, 3, 82, 0
5, 626700, Note_on_c, 3, 82, 105
5, 626707, Note_on_c, 3, 81, 0
5, 626728, Note_on_c, 3, 81, 105
5, 626734, Note_on_c, 3, 82, 0
5, 626760, Note_on_c, 3, 79, 105
5, 626767, Note_on_c, 3, 81, 0
5, 626820, Note_on_c, 3, 81, 105
5, 626833, Note_on_c, 3, 79, 0
5, 626880, Note_on_c, 3, 84, 105
5, 626893, Note_on_c, 3, 81, 0
5, 626940, Note_on_c, 3, 82, 105
5, 626953, Note_on_c, 3, 84, 0
5, 627000, Note_on_c, 3, 84, 105
5, 627013, Note_on_c, 3, 82, 0
5, 627028, Note_on_c, 3, 82, 105
5, 627034, Note_on_c, 3, 84, 0
5, 627060, Note_on_c, 3, 84, 105
5, 627067, Note_on_c, 3, 82, 0
5, 627088, Note_on_c, 3, 82, 105
5, 627094, Note_on_c, 3, 84, 0
5, 627120, Note_on_c, 3, 84, 105
5, 627127, Note_on_c, 3, 82, 0
5, 627148, Note_on_c, 3, 82, 105
5, 627154, Note_on_c, 3, 84, 0
5, 627180, Note_on_c, 3, 84, 105
5, 627187, Note_on_c, 3, 82, 0
5, 627208, Note_on_c, 3, 82, 105
5, 627214, Note_on_c, 3, 84, 0
5, 627240, Note_on_c, 3, 81, 105
5, 627247, Note_on_c, 3, 82, 0
5, 627300, Note_on_c, 3, 82, 105
5, 627313, Note_on_c, 3, 81, 0
5, 627360, Note_on_c, 3, 84, 105
5, 627373, Note_on_c, 3, 82, 0
5, 627720, Note_on_c, 3, 81, 105
5, 627759, Note_on_c, 3, 84, 0
5, 627804, Note_on_c, 3, 81, 0
5, 627840, Note_on_c, 3, 89, 105
5, 628560, Note_on_c, 3, 89, 0
5, 628560, Note_on_c, 3, 84, 105
5, 628744, Note_on_c, 3, 84, 0
5, 628800, Note_on_c, 3, 84, 105
5, 628920, Note_on_c, 3, 82, 105
5, 628954, Note_on_c, 3, 84, 0
5, 629004, Note_on_c, 3, 82, 0
5, 629040, Note_on_c, 3, 86, 105
5, 629084, Note_on_c, 3, 86, 0
5, 629160, Note_on_c, 3, 82, 105
5, 629204, Note_on_c, 3, 82, 0
5, 629280, Note_on_c, 3, 82, 105
5, 629400, Note_on_c, 3, 81, 105
5, 629439, Note_on_c, 3, 82, 0
5, 629494, Note_on_c, 3, 81, 0
5, 629520, Note_on_c, 3, 84, 105
5, 629564, Note_on_c, 3, 84, 0
5, 629640, Note_on_c, 3, 81, 105
5, 629684, Note_on_c, 3, 81, 0
5, 629760, Note_on_c, 3, 81, 105
5, 629880, Note_on_c, 3, 79, 105
5, 629924, Note_on_c, 3, 81, 0
5, 629964, Note_on_c, 3, 79, 0
5, 630000, Note_on_c, 3, 82, 105
5, 630044, Note_on_c, 3, 82, 0
5, 630120, Note_on_c, 3, 79, 105
5, 630164, Note_on_c, 3, 79, 0
5, 630240, Note_on_c, 3, 77, 105
5, 630720, Note_on_c, 3, 77, 0
5, 635040, Note_on_c, 3, 82, 105
5, 635640, Note_on_c, 3, 82, 0
5, 635640, Note_on_c, 3, 79, 105
5, 635760, Note_on_c, 3, 76, 105
5, 635786, Note_on_c, 3, 79, 0
5, 635880, Note_on_c, 3, 70, 105
5, 635906, Note_on_c, 3, 76, 0
5, 635969, Note_on_c, 3, 70, 0
5, 636000, Note_on_c, 3, 69, 105
5, 636560, Note_on_c, 3, 69, 0
5, 636560, Note_on_c, 3, 72, 105
5, 636636, Note_on_c, 3, 70, 105
5, 636653, Note_on_c, 3, 72, 0
5, 636720, Note_on_c, 3, 69, 105
5, 636738, Note_on_c, 3, 70, 0
5, 636800, Note_on_c, 3, 70, 105
5, 636818, Note_on_c, 3, 69, 0
5, 636876, Note_on_c, 3, 72, 105
5, 636893, Note_on_c, 3, 70, 0
5, 636960, Note_on_c, 3, 70, 105
5, 636978, Note_on_c, 3, 72, 0
5, 637004, Note_on_c, 3, 70, 0
5, 637040, Note_on_c, 3, 74, 105
5, 637116, Note_on_c, 3, 72, 105
5, 637133, Note_on_c, 3, 74, 0
5, 637200, Note_on_c, 3, 70, 105
5, 637218, Note_on_c, 3, 72, 0
5, 637280, Note_on_c, 3, 72, 105
5, 637298, Note_on_c, 3, 70, 0
5, 637356, Note_on_c, 3, 74, 105
5, 637373, Note_on_c, 3, 72, 0
5, 637420, Note_on_c, 3, 74, 0
5, 637440, Note_on_c, 3, 72, 105
5, 637920, Note_on_c, 3, 72, 0
5, 638820, Note_on_c, 3, 69, 105
5, 638880, Note_on_c, 3, 81, 105
5, 638919, Note_on_c, 3, 69, 0
5, 639344, Note_on_c, 3, 81, 0
5, 639360, Note_on_c, 3, 81, 105
5, 639459, Note_on_c, 3, 81, 0
5, 639480, Note_on_c, 3, 81, 105
5, 639579, Note_on_c, 3, 81, 0
5, 639600, Note_on_c, 3, 82, 105
5, 639660, Note_on_c, 3, 82, 0
5, 639660, Note_on_c, 3, 81, 105
5, 639720, Note_on_c, 3, 81, 0
5, 639720, Note_on_c, 3, 79, 105
5, 639780, Note_on_c, 3, 79, 0
5, 639780, Note_on_c, 3, 81, 105
5, 639840, Note_on_c, 3, 81, 0
5, 639840, Note_on_c, 3, 82, 105
5, 639934, Note_on_c, 3, 82, 0
5, 639960, Note_on_c, 3, 82, 105
5, 640069, Note_on_c, 3, 82, 0
5, 640080, Note_on_c, 3, 84, 105
5, 640140, Note_on_c, 3, 84, 0
5, 640140, Note_on_c, 3, 82, 105
5, 640200, Note_on_c, 3, 82, 0
5, 640200, Note_on_c, 3, 81, 105
5, 640260, Note_on_c, 3, 81, 0
5, 640260, Note_on_c, 3, 82, 105
5, 640320, Note_on_c, 3, 82, 0
5, 640320, Note_on_c, 3, 84, 105
5, 640680, Note_on_c, 3, 81, 105
5, 640714, Note_on_c, 3, 84, 0
5, 640769, Note_on_c, 3, 81, 0
5, 640800, Note_on_c, 3, 77, 105
5, 641280, Note_on_c, 3, 77, 0
5, 641700, Note_on_c, 3, 77, 105
5, 641760, Note_on_c, 3, 89, 105
5, 641789, Note_on_c, 3, 77, 0
5, 642000, Note_on_c, 3, 88, 105
5, 642059, Note_on_c, 3, 89, 0
5, 642240, Note_on_c, 3, 86, 105
5, 642289, Note_on_c, 3, 88, 0
5, 642480, Note_on_c, 3, 84, 105
5, 642529, Note_on_c, 3, 86, 0
5, 642720, Note_on_c, 3, 82, 105
5, 642754, Note_on_c, 3, 84, 0
5, 642960, Note_on_c, 3, 81, 105
5, 643009, Note_on_c, 3, 82, 0
5, 643174, Note_on_c, 3, 81, 0
5, 643200, Note_on_c, 3, 78, 105
5, 643320, Note_on_c, 3, 79, 105
5, 643359, Note_on_c, 3, 78, 0
5, 643419, Note_on_c, 3, 79, 0
5, 643560, Note_on_c, 3, 79, 105
5, 643604, Note_on_c, 3, 79, 0
5, 643680, Note_on_c, 3, 81, 105
5, 643800, Note_on_c, 3, 82, 105
5, 643829, Note_on_c, 3, 81, 0
5, 643894, Note_on_c, 3, 82, 0
5, 644040, Note_on_c, 3, 82, 105
5, 644084, Note_on_c, 3, 82, 0
5, 644160, Note_on_c, 3, 85, 105
5, 644280, Note_on_c, 3, 86, 105
5, 644314, Note_on_c, 3, 85, 0
5, 644379, Note_on_c, 3, 86, 0
5, 644520, Note_on_c, 3, 86, 105
5, 644564, Note_on_c, 3, 86, 0
5, 644640, Note_on_c, 3, 84, 105
5, 644820, Note_on_c, 3, 81, 105
5, 644844, Note_on_c, 3, 84, 0
5, 644859, Note_on_c, 3, 81, 0
5, 644880, Note_on_c, 3, 86, 105
5, 644940, Note_on_c, 3, 82, 105
5, 644960, Note_on_c, 3, 86, 0
5, 645000, Note_on_c, 3, 86, 105
5, 645020, Note_on_c, 3, 82, 0
5, 645060, Note_on_c, 3, 82, 105
5, 645080, Note_on_c, 3, 86, 0
5, 645120, Note_on_c, 3, 82, 0
5, 645120, Note_on_c, 3, 81, 105
5, 645600, Note_on_c, 3, 81, 0
5, 645600, Note_on_c, 3, 81, 105
5, 645660, Note_on_c, 3, 79, 105
5, 645680, Note_on_c, 3, 81, 0
5, 645720, Note_on_c, 3, 81, 105
5, 645740, Note_on_c, 3, 79, 0
5, 645748, Note_on_c, 3, 79, 105
5, 645757, Note_on_c, 3, 81, 0
5, 645780, Note_on_c, 3, 81, 105
5, 645791, Note_on_c, 3, 79, 0
5, 645808, Note_on_c, 3, 79, 105
5, 645817, Note_on_c, 3, 81, 0
5, 645840, Note_on_c, 3, 81, 105
5, 645851, Note_on_c, 3, 79, 0
5, 645868, Note_on_c, 3, 79, 105
5, 645877, Note_on_c, 3, 81, 0
5, 645900, Note_on_c, 3, 81, 105
5, 645911, Note_on_c, 3, 79, 0
5, 645928, Note_on_c, 3, 79, 105
5, 645937, Note_on_c, 3, 81, 0
5, 645960, Note_on_c, 3, 77, 105
5, 645971, Note_on_c, 3, 79, 0
5, 646020, Note_on_c, 3, 79, 105
5, 646040, Note_on_c, 3, 77, 0
5, 646080, Note_on_c, 3, 77, 105
5, 646100, Note_on_c, 3, 79, 0
5, 646560, Note_on_c, 3, 77, 0
5, 648960, Note_on_c, 3, 77, 105
5, 649920, Note_on_c, 3, 86, 105
5, 649954, Note_on_c, 3, 77, 0
5, 650359, Note_on_c, 3, 86, 0
5, 650400, Note_on_c, 3, 60, 105
5, 650880, Note_on_c, 3, 60, 0
5, 650880, Note_on_c, 3, 89, 105
5, 651120, Note_on_c, 3, 89, 0
5, 651120, Note_on_c, 3, 84, 105
5, 651360, Note_on_c, 3, 84, 0
5, 651360, Note_on_c, 3, 81, 105
5, 651600, Note_on_c, 3, 81, 0
5, 651600, Note_on_c, 3, 77, 105
5, 651769, Note_on_c, 3, 77, 0
5, 651840, Note_on_c, 3, 81, 87
5, 651960, Note_on_c, 3, 79, 99
5, 652000, Note_on_c, 3, 81, 0
5, 652080, Note_on_c, 3, 81, 105
5, 652120, Note_on_c, 3, 79, 0
5, 652140, Note_on_c, 3, 79, 105
5, 652160, Note_on_c, 3, 81, 0
5, 652200, Note_on_c, 3, 81, 101
5, 652220, Note_on_c, 3, 79, 0
5, 652260, Note_on_c, 3, 79, 99
5, 652280, Note_on_c, 3, 81, 0
5, 652320, Note_on_c, 3, 81, 104
5, 652340, Note_on_c, 3, 79, 0
5, 652348, Note_on_c, 3, 79, 105
5, 652357, Note_on_c, 3, 81, 0
5, 652380, Note_on_c, 3, 81, 107
5, 652391, Note_on_c, 3, 79, 0
5, 652408, Note_on_c, 3, 79, 107
5, 652417, Note_on_c, 3, 81, 0
5, 652440, Note_on_c, 3, 81, 107
5, 652451, Note_on_c, 3, 79, 0
5, 652468, Note_on_c, 3, 79, 109
5, 652477, Note_on_c, 3, 81, 0
5, 652500, Note_on_c, 3, 81, 108
5, 652511, Note_on_c, 3, 79, 0
5, 652528, Note_on_c, 3, 79, 106
5, 652537, Note_on_c, 3, 81, 0
5, 652560, Note_on_c, 3, 81, 106
5, 652571, Note_on_c, 3, 79, 0
5, 652588, Note_on_c, 3, 79, 103
5, 652597, Note_on_c, 3, 81, 0
5, 652620, Note_on_c, 3, 81, 101
5, 652631, Note_on_c, 3, 79, 0
5, 652648, Note_on_c, 3, 79, 99
5, 652657, Note_on_c, 3, 81, 0
5, 652680, Note_on_c, 3, 81, 98
5, 652691, Note_on_c, 3, 79, 0
5, 652708, Note_on_c, 3, 79, 96
5, 652717, Note_on_c, 3, 81, 0
5, 652740, Note_on_c, 3, 81, 94
5, 652751, Note_on_c, 3, 79, 0
5, 652768, Note_on_c, 3, 79, 93
5, 652777, Note_on_c, 3, 81, 0
5, 652800, Note_on_c, 3, 81, 93
5, 652811, Note_on_c, 3, 79, 0
5, 652828, Note_on_c, 3, 79, 91
5, 652837, Note_on_c, 3, 81, 0
5, 652860, Note_on_c, 3, 81, 89
5, 652871, Note_on_c, 3, 79, 0
5, 652888, Note_on_c, 3, 79, 89
5, 652897, Note_on_c, 3, 81, 0
5, 652920, Note_on_c, 3, 81, 88
5, 652931, Note_on_c, 3, 79, 0
5, 652948, Note_on_c, 3, 79, 88
5, 652957, Note_on_c, 3, 81, 0
5, 652980, Note_on_c, 3, 81, 88
5, 652991, Note_on_c, 3, 79, 0
5, 653008, Note_on_c, 3, 79, 86
5, 653017, Note_on_c, 3, 81, 0
5, 653040, Note_on_c, 3, 81, 86
5, 653051, Note_on_c, 3, 79, 0
5, 653068, Note_on_c, 3, 79, 87
5, 653077, Note_on_c, 3, 81, 0
5, 653100, Note_on_c, 3, 81, 87
5, 653111, Note_on_c, 3, 79, 0
5, 653128, Note_on_c, 3, 79, 88
5, 653137, Note_on_c, 3, 81, 0
5, 653160, Note_on_c, 3, 77, 88
5, 653171, Note_on_c, 3, 79, 0
5, 653220, Note_on_c, 3, 79, 93
5, 653240, Note_on_c, 3, 77, 0
5, 653280, Note_on_c, 3, 77, 102
5, 653300, Note_on_c, 3, 79, 0
5, 653760, Note_on_c, 3, 77, 0
5, 656640, Note_on_c, 3, 77, 105
5, 657120, Note_on_c, 3, 77, 0
5, 657120, Note_on_c, 3, 89, 105
5, 657600, Note_on_c, 3, 89, 0
5, 657600, Note_on_c, 3, 84, 105
5, 658304, Note_on_c, 3, 84, 0
5, 658440, Note_on_c, 3, 77, 105
5, 658500, Note_on_c, 3, 81, 105
5, 658520, Note_on_c, 3, 77, 0
5, 658560, Note_on_c, 3, 79, 105
5, 658580, Note_on_c, 3, 81, 0
5, 658620, Note_on_c, 3, 81, 105
5, 658640, Note_on_c, 3, 79, 0
5, 658648, Note_on_c, 3, 79, 105
5, 658657, Note_on_c, 3, 81, 0
5, 658680, Note_on_c, 3, 81, 105
5, 658691, Note_on_c, 3, 79, 0
5, 658708, Note_on_c, 3, 79, 105
5, 658717, Note_on_c, 3, 81, 0
5, 658740, Note_on_c, 3, 81, 105
5, 658751, Note_on_c, 3, 79, 0
5, 658768, Note_on_c, 3, 79, 105
5, 658777, Note_on_c, 3, 81, 0
5, 658800, Note_on_c, 3, 81, 105
5, 658811, Note_on_c, 3, 79, 0
5, 658828, Note_on_c, 3, 79, 105
5, 658837, Note_on_c, 3, 81, 0
5, 658860, Note_on_c, 3, 81, 105
5, 658871, Note_on_c, 3, 79, 0
5, 658888, Note_on_c, 3, 79, 105
5, 658897, Note_on_c, 3, 81, 0
5, 658920, Note_on_c, 3, 77, 105
5, 658931, Note_on_c, 3, 79, 0
5, 658980, Note_on_c, 3, 79, 105
5, 659000, Note_on_c, 3, 77, 0
5, 659040, Note_on_c, 3, 77, 105
5, 659060, Note_on_c, 3, 79, 0
5, 659520, Note_on_c, 3, 77, 0
5, 660480, Note_on_c, 3, 79, 105
5, 661320, Note_on_c, 3, 76, 105
5, 661349, Note_on_c, 3, 79, 0
5, 661440, Note_on_c, 3, 77, 105
5, 661469, Note_on_c, 3, 76, 0
5, 661680, Note_on_c, 3, 77, 0
5, 663240, Note_on_c, 3, 77, 91
5, 663360, Note_on_c, 3, 77, 0
5, 663360, Note_on_c, 3, 82, 96
5, 664200, Note_on_c, 3, 84, 92
5, 664214, Note_on_c, 3, 82, 0
5, 664260, Note_on_c, 3, 86, 94
5, 664284, Note_on_c, 3, 84, 0
5, 664320, Note_on_c, 3, 84, 94
5, 664344, Note_on_c, 3, 86, 0
5, 664560, Note_on_c, 3, 84, 0
5, 664800, Note_on_c, 3, 81, 105
5, 665520, Note_on_c, 3, 82, 105
5, 665554, Note_on_c, 3, 81, 0
5, 665640, Note_on_c, 3, 84, 105
5, 665680, Note_on_c, 3, 82, 0
5, 665760, Note_on_c, 3, 88, 105
5, 665800, Note_on_c, 3, 84, 0
5, 665880, Note_on_c, 3, 86, 105
5, 665920, Note_on_c, 3, 88, 0
5, 666000, Note_on_c, 3, 84, 105
5, 666040, Note_on_c, 3, 86, 0
5, 666120, Note_on_c, 3, 82, 105
5, 666160, Note_on_c, 3, 84, 0
5, 666199, Note_on_c, 3, 82, 0
5, 666240, Note_on_c, 3, 81, 105
5, 666480, Note_on_c, 3, 79, 105
5, 666514, Note_on_c, 3, 81, 0
5, 666819, Note_on_c, 3, 79, 0
5, 666960, Note_on_c, 3, 81, 105
5, 667080, Note_on_c, 3, 82, 105
5, 667109, Note_on_c, 3, 81, 0
5, 667169, Note_on_c, 3, 82, 0
5, 667200, Note_on_c, 3, 86, 105
5, 667320, Note_on_c, 3, 84, 105
5, 667360, Note_on_c, 3, 86, 0
5, 667440, Note_on_c, 3, 82, 105
5, 667480, Note_on_c, 3, 84, 0
5, 667560, Note_on_c, 3, 81, 105
5, 667600, Note_on_c, 3, 82, 0
5, 667639, Note_on_c, 3, 81, 0
5, 667680, Note_on_c, 3, 79, 105
5, 667920, Note_on_c, 3, 77, 105
5, 667949, Note_on_c, 3, 79, 0
5, 668229, Note_on_c, 3, 77, 0
5, 668400, Note_on_c, 3, 79, 105
5, 668520, Note_on_c, 3, 81, 105
5, 668549, Note_on_c, 3, 79, 0
5, 668619, Note_on_c, 3, 81, 0
5, 668640, Note_on_c, 3, 82, 105
5, 668760, Note_on_c, 3, 84, 105
5, 668800, Note_on_c, 3, 82, 0
5, 668880, Note_on_c, 3, 86, 105
5, 668920, Note_on_c, 3, 84, 0
5, 669000, Note_on_c, 3, 82, 105
5, 669040, Note_on_c, 3, 86, 0
5, 669084, Note_on_c, 3, 82, 0
5, 669120, Note_on_c, 3, 81, 105
5, 669480, Note_on_c, 3, 79, 105
5, 669509, Note_on_c, 3, 81, 0
5, 669564, Note_on_c, 3, 79, 0
5, 669600, Note_on_c, 3, 79, 105
5, 670320, Note_on_c, 3, 81, 98
5, 670354, Note_on_c, 3, 79, 0
5, 670514, Note_on_c, 3, 81, 0
5, 670560, Note_on_c, 3, 82, 93
5, 670920, Note_on_c, 3, 84, 95
5, 670949, Note_on_c, 3, 82, 0
5, 670980, Note_on_c, 3, 86, 95
5, 671009, Note_on_c, 3, 84, 0
5, 671040, Note_on_c, 3, 86, 0
5, 671040, Note_on_c, 3, 77, 94
5, 671520, Note_on_c, 3, 81, 92
5, 671554, Note_on_c, 3, 77, 0
5, 671760, Note_on_c, 3, 79, 88
5, 671809, Note_on_c, 3, 81, 0
5, 672000, Note_on_c, 3, 79, 0
5, 672000, Note_on_c, 3, 77, 87
5, 672184, Note_on_c, 3, 77, 0
5, 672240, Note_on_c, 3, 89, 106
5, 672360, Note_on_c, 3, 88, 90
5, 672409, Note_on_c, 3, 89, 0
5, 672439, Note_on_c, 3, 88, 0
5, 672480, Note_on_c, 3, 88, 107
5, 672600, Note_on_c, 3, 86, 92
5, 672644, Note_on_c, 3, 88, 0
5, 672674, Note_on_c, 3, 86, 0
5, 672720, Note_on_c, 3, 86, 108
5, 672840, Note_on_c, 3, 84, 89
5, 672874, Note_on_c, 3, 86, 0
5, 672934, Note_on_c, 3, 84, 0
5, 672960, Note_on_c, 3, 84, 106
5, 673080, Note_on_c, 3, 83, 97
5, 673119, Note_on_c, 3, 84, 0
5, 673200, Note_on_c, 3, 86, 93
5, 673219, Note_on_c, 3, 83, 0
5, 673320, Note_on_c, 3, 84, 92
5, 673344, Note_on_c, 3, 86, 0
5, 673409, Note_on_c, 3, 84, 0
5, 673440, Note_on_c, 3, 82, 90
5, 673800, Note_on_c, 3, 84, 94
5, 673829, Note_on_c, 3, 82, 0
5, 673860, Note_on_c, 3, 86, 93
5, 673884, Note_on_c, 3, 84, 0
5, 673914, Note_on_c, 3, 86, 0
5, 673920, Note_on_c, 3, 77, 92
5, 674400, Note_on_c, 3, 81, 89
5, 674429, Note_on_c, 3, 77, 0
5, 674640, Note_on_c, 3, 79, 89
5, 674669, Note_on_c, 3, 81, 0
5, 674849, Note_on_c, 3, 79, 0
5, 674880, Note_on_c, 3, 77, 91
5, 675120, Note_on_c, 3, 77, 0
5, 675120, Note_on_c, 3, 81, 94
5, 675309, Note_on_c, 3, 81, 0
5, 675360, Note_on_c, 3, 82, 101
5, 675420, Note_on_c, 3, 81, 101
5, 675440, Note_on_c, 3, 82, 0
5, 675480, Note_on_c, 3, 82, 102
5, 675500, Note_on_c, 3, 81, 0
5, 675508, Note_on_c, 3, 81, 102
5, 675517, Note_on_c, 3, 82, 0
5, 675540, Note_on_c, 3, 82, 102
5, 675551, Note_on_c, 3, 81, 0
5, 675568, Note_on_c, 3, 81, 102
5, 675577, Note_on_c, 3, 82, 0
5, 675600, Note_on_c, 3, 82, 102
5, 675611, Note_on_c, 3, 81, 0
5, 675628, Note_on_c, 3, 81, 101
5, 675637, Note_on_c, 3, 82, 0
5, 675660, Note_on_c, 3, 82, 99
5, 675671, Note_on_c, 3, 81, 0
5, 675688, Note_on_c, 3, 81, 99
5, 675697, Note_on_c, 3, 82, 0
5, 675720, Note_on_c, 3, 79, 97
5, 675731, Note_on_c, 3, 81, 0
5, 675780, Note_on_c, 3, 81, 94
5, 675800, Note_on_c, 3, 79, 0
5, 675840, Note_on_c, 3, 84, 94
5, 675860, Note_on_c, 3, 81, 0
5, 675900, Note_on_c, 3, 82, 95
5, 675920, Note_on_c, 3, 84, 0
5, 675960, Note_on_c, 3, 84, 97
5, 675980, Note_on_c, 3, 82, 0
5, 675988, Note_on_c, 3, 82, 97
5, 675997, Note_on_c, 3, 84, 0
5, 676020, Note_on_c, 3, 84, 97
5, 676031, Note_on_c, 3, 82, 0
5, 676048, Note_on_c, 3, 82, 99
5, 676057, Note_on_c, 3, 84, 0
5, 676080, Note_on_c, 3, 84, 99
5, 676091, Note_on_c, 3, 82, 0
5, 676108, Note_on_c, 3, 82, 99
5, 676117, Note_on_c, 3, 84, 0
5, 676140, Note_on_c, 3, 84, 99
5, 676151, Note_on_c, 3, 82, 0
5, 676168, Note_on_c, 3, 82, 98
5, 676177, Note_on_c, 3, 84, 0
5, 676200, Note_on_c, 3, 81, 98
5, 676211, Note_on_c, 3, 82, 0
5, 676260, Note_on_c, 3, 82, 94
5, 676280, Note_on_c, 3, 81, 0
5, 676320, Note_on_c, 3, 84, 92
5, 676340, Note_on_c, 3, 82, 0
5, 676800, Note_on_c, 3, 84, 0
5, 678240, Note_on_c, 3, 77, 96
5, 678376, Control_c, 3, 7, 87
5, 678400, Control_c, 3, 7, 86
5, 678416, Control_c, 3, 7, 83
5, 678428, Control_c, 3, 7, 80
5, 678444, Control_c, 3, 7, 78
5, 678448, Control_c, 3, 7, 74
5, 678460, Control_c, 3, 7, 69
5, 678480, Note_on_c, 3, 77, 0
5, 678480, Control_c, 3, 7, 66
5, 678496, Control_c, 3, 7, 59
5, 678508, Control_c, 3, 7, 54
5, 678524, Control_c, 3, 7, 43
5, 678536, Control_c, 3, 7, 0
5, 678608, Control_c, 3, 7, 89
5, 678720, Note_on_c, 3, 77, 96
5, 678880, Control_c, 3, 7, 89
5, 678912, Control_c, 3, 7, 87
5, 678920, Control_c, 3, 7, 86
5, 678936, Control_c, 3, 7, 83
5, 678948, Control_c, 3, 7, 76
5, 678960, Note_on_c, 3, 77, 0
5, 678964, Control_c, 3, 7, 71
5, 678976, Control_c, 3, 7, 65
5, 678992, Control_c, 3, 7, 9
5, 679084, Control_c, 3, 7, 89
5, 679200, Note_on_c, 3, 77, 96
5, 679700, Control_c, 3, 7, 89
5, 679728, Control_c, 3, 7, 88
5, 679792, Control_c, 3, 7, 87
5, 679816, Control_c, 3, 7, 86
5, 679828, Control_c, 3, 7, 84
5, 679832, Control_c, 3, 7, 83
5, 679868, Control_c, 3, 7, 81
5, 679880, Control_c, 3, 7, 80
5, 679896, Control_c, 3, 7, 77
5, 679924, Control_c, 3, 7, 75
5, 679928, Control_c, 3, 7, 74
5, 679936, Control_c, 3, 7, 72
5, 679940, Control_c, 3, 7, 71
5, 679960, Control_c, 3, 7, 68
5, 679964, Control_c, 3, 7, 67
5, 679980, Control_c, 3, 7, 64
5, 680008, Control_c, 3, 7, 62
5, 680028, Control_c, 3, 7, 61
5, 680040, Control_c, 3, 7, 55
5, 680056, Control_c, 3, 7, 50
5, 680068, Control_c, 3, 7, 48
5, 680072, Control_c, 3, 7, 41
5, 680084, Control_c, 3, 7, 39
5, 680100, Control_c, 3, 7, 32
5, 680112, Control_c, 3, 7, 22
5, 680128, Control_c, 3, 7, 16
5, 680140, Control_c, 3, 7, 3
5, 680160, Note_on_c, 3, 77, 0
5, 680160, Control_c, 3, 7, 0
5, 680444, Control_c, 3, 7, 89
5, 807360, Note_on_c, 3, 72, 90
5, 807600, Note_on_c, 3, 71, 90
5, 807644, Note_on_c, 3, 72, 0
5, 807840, Note_on_c, 3, 72, 90
5, 807868, Note_on_c, 3, 71, 0
5, 808080, Note_on_c, 3, 71, 90
5, 808124, Note_on_c, 3, 72, 0
5, 808320, Note_on_c, 3, 72, 90
5, 808364, Note_on_c, 3, 71, 0
5, 808560, Note_on_c, 3, 76, 90
5, 808612, Note_on_c, 3, 72, 0
5, 808800, Note_on_c, 3, 79, 90
5, 808860, Note_on_c, 3, 76, 0
5, 809040, Note_on_c, 3, 76, 90
5, 809092, Note_on_c, 3, 79, 0
5, 809280, Note_on_c, 3, 74, 90
5, 809332, Note_on_c, 3, 76, 0
5, 809520, Note_on_c, 3, 72, 90
5, 809572, Note_on_c, 3, 74, 0
5, 809692, Note_on_c, 3, 72, 0
5, 809760, Note_on_c, 3, 72, 90
5, 810000, Note_on_c, 3, 72, 0
5, 810000, Note_on_c, 3, 71, 90
5, 810240, Note_on_c, 3, 71, 0
5, 810240, Note_on_c, 3, 72, 90
5, 810720, Note_on_c, 3, 72, 0
5, 811200, Note_on_c, 3, 77, 90
5, 811440, Note_on_c, 3, 76, 90
5, 811492, Note_on_c, 3, 77, 0
5, 811680, Note_on_c, 3, 77, 90
5, 811708, Note_on_c, 3, 76, 0
5, 811920, Note_on_c, 3, 76, 90
5, 811972, Note_on_c, 3, 77, 0
5, 812160, Note_on_c, 3, 77, 90
5, 812196, Note_on_c, 3, 76, 0
5, 812400, Note_on_c, 3, 81, 90
5, 812428, Note_on_c, 3, 77, 0
5, 812640, Note_on_c, 3, 84, 90
5, 812668, Note_on_c, 3, 81, 0
5, 812880, Note_on_c, 3, 81, 90
5, 812932, Note_on_c, 3, 84, 0
5, 813076, Note_on_c, 3, 81, 0
5, 813120, Note_on_c, 3, 78, 90
5, 814080, Note_on_c, 3, 79, 90
5, 814140, Note_on_c, 3, 78, 0
5, 814560, Note_on_c, 3, 79, 0
5, 815040, Note_on_c, 3, 86, 90
5, 815100, Note_on_c, 3, 84, 90
5, 815120, Note_on_c, 3, 86, 0
5, 815160, Note_on_c, 3, 86, 90
5, 815180, Note_on_c, 3, 84, 0
5, 815220, Note_on_c, 3, 84, 90
5, 815240, Note_on_c, 3, 86, 0
5, 815280, Note_on_c, 3, 83, 90
5, 815300, Note_on_c, 3, 84, 0
5, 815520, Note_on_c, 3, 84, 90
5, 815568, Note_on_c, 3, 83, 0
5, 815760, Note_on_c, 3, 86, 90
5, 815808, Note_on_c, 3, 84, 0
5, 816000, Note_on_c, 3, 88, 90
5, 816048, Note_on_c, 3, 86, 0
5, 816240, Note_on_c, 3, 84, 90
5, 816288, Note_on_c, 3, 88, 0
5, 816480, Note_on_c, 3, 79, 90
5, 816528, Note_on_c, 3, 84, 0
5, 816720, Note_on_c, 3, 76, 90
5, 816768, Note_on_c, 3, 79, 0
5, 816860, Note_on_c, 3, 76, 0
5, 816960, Note_on_c, 3, 77, 90
5, 817200, Note_on_c, 3, 74, 90
5, 817248, Note_on_c, 3, 77, 0
5, 817440, Note_on_c, 3, 83, 90
5, 817488, Note_on_c, 3, 74, 0
5, 817680, Note_on_c, 3, 79, 90
5, 817728, Note_on_c, 3, 83, 0
5, 817920, Note_on_c, 3, 86, 90
5, 817968, Note_on_c, 3, 79, 0
5, 818160, Note_on_c, 3, 83, 90
5, 818208, Note_on_c, 3, 86, 0
5, 818400, Note_on_c, 3, 79, 90
5, 818448, Note_on_c, 3, 83, 0
5, 818640, Note_on_c, 3, 77, 90
5, 818688, Note_on_c, 3, 79, 0
5, 818780, Note_on_c, 3, 77, 0
5, 818880, Note_on_c, 3, 77, 90
5, 819120, Note_on_c, 3, 76, 90
5, 819188, Note_on_c, 3, 77, 0
5, 819268, Note_on_c, 3, 76, 0
5, 819360, Note_on_c, 3, 79, 90
5, 819456, Note_on_c, 3, 79, 0
5, 819600, Note_on_c, 3, 76, 90
5, 819696, Note_on_c, 3, 76, 0
5, 819840, Note_on_c, 3, 76, 90
5, 820080, Note_on_c, 3, 74, 90
5, 820140, Note_on_c, 3, 76, 0
5, 820228, Note_on_c, 3, 74, 0
5, 820320, Note_on_c, 3, 72, 90
5, 820416, Note_on_c, 3, 72, 0
5, 820560, Note_on_c, 3, 71, 90
5, 820656, Note_on_c, 3, 71, 0
5, 820800, Note_on_c, 3, 72, 91
5, 820896, Note_on_c, 3, 72, 0
5, 821040, Note_on_c, 3, 74, 93
5, 821136, Note_on_c, 3, 74, 0
5, 821280, Note_on_c, 3, 76, 95
5, 821376, Note_on_c, 3, 76, 0
5, 821520, Note_on_c, 3, 77, 97
5, 821616, Note_on_c, 3, 77, 0
5, 821760, Note_on_c, 3, 79, 99
5, 821856, Note_on_c, 3, 79, 0
5, 822000, Note_on_c, 3, 81, 101
5, 822096, Note_on_c, 3, 81, 0
5, 822240, Note_on_c, 3, 83, 103
5, 822336, Note_on_c, 3, 83, 0
5, 822480, Note_on_c, 3, 84, 105
5, 822576, Note_on_c, 3, 84, 0
5, 822720, Note_on_c, 3, 86, 107
5, 822816, Note_on_c, 3, 86, 0
5, 822960, Note_on_c, 3, 84, 107
5, 823056, Note_on_c, 3, 84, 0
5, 823200, Note_on_c, 3, 83, 105
5, 823296, Note_on_c, 3, 83, 0
5, 823440, Note_on_c, 3, 81, 103
5, 823536, Note_on_c, 3, 81, 0
5, 823680, Note_on_c, 3, 79, 101
5, 823776, Note_on_c, 3, 79, 0
5, 823920, Note_on_c, 3, 77, 99
5, 824016, Note_on_c, 3, 77, 0
5, 824160, Note_on_c, 3, 76, 98
5, 824256, Note_on_c, 3, 76, 0
5, 824400, Note_on_c, 3, 74, 96
5, 824496, Note_on_c, 3, 74, 0
5, 824640, Note_on_c, 3, 72, 94
5, 824880, Note_on_c, 3, 76, 90
5, 824928, Note_on_c, 3, 72, 0
5, 825120, Note_on_c, 3, 79, 90
5, 825168, Note_on_c, 3, 76, 0
5, 825360, Note_on_c, 3, 76, 90
5, 825408, Note_on_c, 3, 79, 0
5, 825484, Note_on_c, 3, 76, 0
5, 825600, Note_on_c, 3, 76, 90
5, 825840, Note_on_c, 3, 74, 90
5, 825888, Note_on_c, 3, 76, 0
5, 826080, Note_on_c, 3, 72, 90
5, 826128, Note_on_c, 3, 74, 0
5, 826320, Note_on_c, 3, 71, 90
5, 826368, Note_on_c, 3, 72, 0
5, 826500, Note_on_c, 3, 71, 0
5, 826560, Note_on_c, 3, 72, 90
5, 827040, Note_on_c, 3, 72, 0
5, 830640, Note_on_c, 3, 72, 90
5, 830880, Note_on_c, 3, 71, 90
5, 830948, Note_on_c, 3, 72, 0
5, 831120, Note_on_c, 3, 72, 90
5, 831188, Note_on_c, 3, 71, 0
5, 831360, Note_on_c, 3, 71, 90
5, 831428, Note_on_c, 3, 72, 0
5, 831600, Note_on_c, 3, 72, 90
5, 831668, Note_on_c, 3, 71, 0
5, 831840, Note_on_c, 3, 76, 90
5, 831908, Note_on_c, 3, 72, 0
5, 832080, Note_on_c, 3, 72, 90
5, 832148, Note_on_c, 3, 76, 0
5, 832244, Note_on_c, 3, 72, 0
5, 832320, Note_on_c, 3, 71, 107
5, 832520, Note_on_c, 3, 69, 99
5, 832644, Note_on_c, 3, 71, 0
5, 832728, Note_on_c, 3, 71, 106
5, 832844, Note_on_c, 3, 69, 0
5, 832920, Note_on_c, 3, 69, 100
5, 832980, Note_on_c, 3, 71, 0
5, 833040, Note_on_c, 3, 71, 95
5, 833084, Note_on_c, 3, 69, 0
5, 833144, Note_on_c, 3, 69, 90
5, 833204, Note_on_c, 3, 71, 0
5, 833248, Note_on_c, 3, 71, 90
5, 833308, Note_on_c, 3, 69, 0
5, 833328, Note_on_c, 3, 69, 92
5, 833356, Note_on_c, 3, 71, 0
5, 833400, Note_on_c, 3, 71, 93
5, 833428, Note_on_c, 3, 69, 0
5, 833460, Note_on_c, 3, 69, 97
5, 833480, Note_on_c, 3, 71, 0
5, 833520, Note_on_c, 3, 71, 98
5, 833540, Note_on_c, 3, 69, 0
5, 833580, Note_on_c, 3, 69, 100
5, 833600, Note_on_c, 3, 71, 0
5, 833640, Note_on_c, 3, 71, 100
5, 833660, Note_on_c, 3, 69, 0
5, 833700, Note_on_c, 3, 69, 100
5, 833720, Note_on_c, 3, 71, 0
5, 833760, Note_on_c, 3, 71, 99
5, 833780, Note_on_c, 3, 69, 0
5, 833820, Note_on_c, 3, 69, 98
5, 833840, Note_on_c, 3, 71, 0
5, 833880, Note_on_c, 3, 71, 94
5, 833900, Note_on_c, 3, 69, 0
5, 833940, Note_on_c, 3, 69, 93
5, 833960, Note_on_c, 3, 71, 0
5, 834000, Note_on_c, 3, 67, 91
5, 834020, Note_on_c, 3, 69, 0
5, 834120, Note_on_c, 3, 69, 89
5, 834164, Note_on_c, 3, 67, 0
5, 834240, Note_on_c, 3, 67, 93
5, 834284, Note_on_c, 3, 69, 0
5, 834404, Note_on_c, 3, 67, 0
5, 834720, Note_on_c, 3, 72, 84
5, 834960, Note_on_c, 3, 76, 89
5, 835036, Note_on_c, 3, 72, 0
5, 835200, Note_on_c, 3, 79, 95
5, 835260, Note_on_c, 3, 76, 0
5, 835440, Note_on_c, 3, 84, 95
5, 835476, Note_on_c, 3, 79, 0
5, 835580, Note_on_c, 3, 84, 0
5, 835680, Note_on_c, 3, 79, 87
5, 835776, Note_on_c, 3, 79, 0
5, 835920, Note_on_c, 3, 76, 85
5, 836016, Note_on_c, 3, 76, 0
5, 836160, Note_on_c, 3, 79, 90
5, 837060, Note_on_c, 3, 79, 0
5, 837120, Note_on_c, 3, 79, 87
5, 837240, Note_on_c, 3, 77, 90
5, 837272, Note_on_c, 3, 79, 0
5, 837360, Note_on_c, 3, 79, 90
5, 837392, Note_on_c, 3, 77, 0
5, 837480, Note_on_c, 3, 77, 84
5, 837512, Note_on_c, 3, 79, 0
5, 837600, Note_on_c, 3, 79, 77
5, 837600, Note_on_c, 3, 79, 77
5, 837632, Note_on_c, 3, 77, 0
5, 837660, Note_on_c, 3, 77, 77
5, 837660, Note_on_c, 3, 77, 77
5, 837697, Note_on_c, 3, 79, 0
5, 837697, Note_on_c, 3, 79, 0
5, 837720, Note_on_c, 3, 79, 72
5, 837720, Note_on_c, 3, 79, 72
5, 837757, Note_on_c, 3, 77, 0
5, 837757, Note_on_c, 3, 77, 0
5, 837780, Note_on_c, 3, 77, 72
5, 837780, Note_on_c, 3, 77, 72
5, 837817, Note_on_c, 3, 79, 0
5, 837817, Note_on_c, 3, 79, 0
5, 837840, Note_on_c, 3, 76, 75
5, 837877, Note_on_c, 3, 77, 0
5, 837877, Note_on_c, 3, 77, 0
5, 837960, Note_on_c, 3, 77, 78
5, 837992, Note_on_c, 3, 76, 0
5, 838080, Note_on_c, 3, 76, 91
5, 838112, Note_on_c, 3, 77, 0
5, 838320, Note_on_c, 3, 76, 0
5, 838320, Note_on_c, 3, 79, 90
5, 838320, Note_on_c, 3, 79, 90
5, 838320, Note_on_c, 3, 79, 90
5, 838560, Note_on_c, 3, 81, 97
5, 838584, Note_on_c, 3, 79, 0
5, 838584, Note_on_c, 3, 79, 0
5, 838584, Note_on_c, 3, 79, 0
5, 838620, Note_on_c, 3, 79, 100
5, 838657, Note_on_c, 3, 81, 0
5, 838680, Note_on_c, 3, 81, 98
5, 838717, Note_on_c, 3, 79, 0
5, 838740, Note_on_c, 3, 79, 93
5, 838777, Note_on_c, 3, 81, 0
5, 838800, Note_on_c, 3, 78, 90
5, 838800, Note_on_c, 3, 78, 90
5, 838800, Note_on_c, 3, 78, 90
5, 838837, Note_on_c, 3, 79, 0
5, 838920, Note_on_c, 3, 79, 84
5, 838952, Note_on_c, 3, 78, 0
5, 838952, Note_on_c, 3, 78, 0
5, 838952, Note_on_c, 3, 78, 0
5, 839040, Note_on_c, 3, 79, 0
5, 839040, Note_on_c, 3, 77, 84
5, 839280, Note_on_c, 3, 76, 91
5, 839345, Note_on_c, 3, 77, 0
5, 839520, Note_on_c, 3, 74, 93
5, 839585, Note_on_c, 3, 76, 0
5, 839760, Note_on_c, 3, 72, 89
5, 839825, Note_on_c, 3, 74, 0
5, 840000, Note_on_c, 3, 71, 84
5, 840065, Note_on_c, 3, 72, 0
5, 840120, Note_on_c, 3, 69, 84
5, 840152, Note_on_c, 3, 71, 0
5, 840240, Note_on_c, 3, 71, 85
5, 840272, Note_on_c, 3, 69, 0
5, 840360, Note_on_c, 3, 69, 93
5, 840392, Note_on_c, 3, 71, 0
5, 840480, Note_on_c, 3, 71, 94
5, 840512, Note_on_c, 3, 69, 0
5, 840540, Note_on_c, 3, 69, 94
5, 840577, Note_on_c, 3, 71, 0
5, 840600, Note_on_c, 3, 71, 94
5, 840637, Note_on_c, 3, 69, 0
5, 840660, Note_on_c, 3, 69, 94
5, 840697, Note_on_c, 3, 71, 0
5, 840720, Note_on_c, 3, 71, 93
5, 840757, Note_on_c, 3, 69, 0
5, 840780, Note_on_c, 3, 69, 93
5, 840817, Note_on_c, 3, 71, 0
5, 840840, Note_on_c, 3, 71, 93
5, 840877, Note_on_c, 3, 69, 0
5, 840900, Note_on_c, 3, 69, 90
5, 840937, Note_on_c, 3, 71, 0
5, 840960, Note_on_c, 3, 71, 90
5, 840997, Note_on_c, 3, 69, 0
5, 841020, Note_on_c, 3, 69, 88
5, 841057, Note_on_c, 3, 71, 0
5, 841080, Note_on_c, 3, 71, 88
5, 841117, Note_on_c, 3, 69, 0
5, 841140, Note_on_c, 3, 69, 85
5, 841177, Note_on_c, 3, 71, 0
5, 841200, Note_on_c, 3, 71, 85
5, 841237, Note_on_c, 3, 69, 0
5, 841260, Note_on_c, 3, 69, 83
5, 841297, Note_on_c, 3, 71, 0
5, 841320, Note_on_c, 3, 71, 83
5, 841357, Note_on_c, 3, 69, 0
5, 841380, Note_on_c, 3, 69, 83
5, 841417, Note_on_c, 3, 71, 0
5, 841440, Note_on_c, 3, 71, 80
5, 841477, Note_on_c, 3, 69, 0
5, 841500, Note_on_c, 3, 69, 80
5, 841537, Note_on_c, 3, 71, 0
5, 841560, Note_on_c, 3, 71, 80
5, 841597, Note_on_c, 3, 69, 0
5, 841620, Note_on_c, 3, 69, 81
5, 841657, Note_on_c, 3, 71, 0
5, 841680, Note_on_c, 3, 67, 87
5, 841717, Note_on_c, 3, 69, 0
5, 841800, Note_on_c, 3, 69, 92
5, 841832, Note_on_c, 3, 67, 0
5, 841920, Note_on_c, 3, 67, 92
5, 841952, Note_on_c, 3, 69, 0
5, 842160, Note_on_c, 3, 67, 0
5, 842160, Note_on_c, 3, 72, 79
5, 842400, Note_on_c, 3, 72, 0
5, 842400, Note_on_c, 3, 76, 90
5, 842640, Note_on_c, 3, 76, 0
5, 842640, Note_on_c, 3, 79, 95
5, 842880, Note_on_c, 3, 79, 0
5, 842880, Note_on_c, 3, 84, 103
5, 843120, Note_on_c, 3, 84, 0
5, 843120, Note_on_c, 3, 88, 110
5, 843360, Note_on_c, 3, 88, 0
5, 843360, Note_on_c, 3, 84, 113
5, 843600, Note_on_c, 3, 84, 0
5, 843600, Note_on_c, 3, 79, 111
5, 843780, Note_on_c, 3, 79, 0
5, 843840, Note_on_c, 3, 79, 101
5, 844740, Note_on_c, 3, 79, 0
5, 844800, Note_on_c, 3, 79, 90
5, 844920, Note_on_c, 3, 77, 80
5, 844952, Note_on_c, 3, 79, 0
5, 845040, Note_on_c, 3, 79, 82
5, 845072, Note_on_c, 3, 77, 0
5, 845160, Note_on_c, 3, 77, 85
5, 845192, Note_on_c, 3, 79, 0
5, 845280, Note_on_c, 3, 79, 88
5, 845312, Note_on_c, 3, 77, 0
5, 845340, Note_on_c, 3, 77, 91
5, 845377, Note_on_c, 3, 79, 0
5, 845400, Note_on_c, 3, 79, 88
5, 845437, Note_on_c, 3, 77, 0
5, 845460, Note_on_c, 3, 77, 85
5, 845497, Note_on_c, 3, 79, 0
5, 845520, Note_on_c, 3, 76, 83
5, 845557, Note_on_c, 3, 77, 0
5, 845640, Note_on_c, 3, 77, 80
5, 845672, Note_on_c, 3, 76, 0
5, 845724, Note_on_c, 3, 76, 80
5, 845762, Note_on_c, 3, 77, 0
5, 845846, Note_on_c, 3, 76, 0
5, 846000, Note_on_c, 3, 76, 83
5, 846240, Note_on_c, 3, 76, 0
5, 846240, Note_on_c, 3, 77, 93
5, 846300, Note_on_c, 3, 76, 96
5, 846337, Note_on_c, 3, 77, 0
5, 846360, Note_on_c, 3, 77, 96
5, 846397, Note_on_c, 3, 76, 0
5, 846420, Note_on_c, 3, 76, 96
5, 846457, Note_on_c, 3, 77, 0
5, 846480, Note_on_c, 3, 74, 90
5, 846517, Note_on_c, 3, 76, 0
5, 846600, Note_on_c, 3, 76, 85
5, 846632, Note_on_c, 3, 74, 0
5, 846688, Note_on_c, 3, 76, 0
5, 846720, Note_on_c, 3, 77, 87
5, 846930, Note_on_c, 3, 77, 0
5, 846960, Note_on_c, 3, 77, 93
5, 847200, Note_on_c, 3, 79, 101
5, 847215, Note_on_c, 3, 77, 0
5, 847260, Note_on_c, 3, 77, 101
5, 847297, Note_on_c, 3, 79, 0
5, 847320, Note_on_c, 3, 79, 101
5, 847357, Note_on_c, 3, 77, 0
5, 847380, Note_on_c, 3, 77, 101
5, 847417, Note_on_c, 3, 79, 0
5, 847440, Note_on_c, 3, 76, 99
5, 847477, Note_on_c, 3, 77, 0
5, 847560, Note_on_c, 3, 77, 95
5, 847592, Note_on_c, 3, 76, 0
5, 847647, Note_on_c, 3, 77, 0
5, 847680, Note_on_c, 3, 79, 90
5, 847886, Note_on_c, 3, 79, 0
5, 847920, Note_on_c, 3, 79, 87
5, 848160, Note_on_c, 3, 81, 94
5, 848180, Note_on_c, 3, 79, 0
5, 848220, Note_on_c, 3, 79, 97
5, 848257, Note_on_c, 3, 81, 0
5, 848280, Note_on_c, 3, 81, 97
5, 848317, Note_on_c, 3, 79, 0
5, 848340, Note_on_c, 3, 79, 97
5, 848377, Note_on_c, 3, 81, 0
5, 848400, Note_on_c, 3, 77, 99
5, 848437, Note_on_c, 3, 79, 0
5, 848520, Note_on_c, 3, 79, 99
5, 848552, Note_on_c, 3, 77, 0
5, 848604, Note_on_c, 3, 79, 0
5, 848640, Note_on_c, 3, 81, 99
5, 848842, Note_on_c, 3, 81, 0
5, 848880, Note_on_c, 3, 81, 91
5, 849120, Note_on_c, 3, 83, 95
5, 849147, Note_on_c, 3, 81, 0
5, 849180, Note_on_c, 3, 81, 98
5, 849217, Note_on_c, 3, 83, 0
5, 849240, Note_on_c, 3, 83, 100
5, 849277, Note_on_c, 3, 81, 0
5, 849300, Note_on_c, 3, 81, 106
5, 849337, Note_on_c, 3, 83, 0
5, 849360, Note_on_c, 3, 79, 106
5, 849397, Note_on_c, 3, 81, 0
5, 849480, Note_on_c, 3, 81, 108
5, 849512, Note_on_c, 3, 79, 0
5, 849572, Note_on_c, 3, 81, 0
5, 849600, Note_on_c, 3, 83, 111
5, 850080, Note_on_c, 3, 84, 107
5, 850128, Note_on_c, 3, 83, 0
5, 850428, Note_on_c, 3, 84, 0
5, 850560, Note_on_c, 3, 77, 99
5, 850980, Note_on_c, 3, 77, 0
5, 851040, Note_on_c, 3, 76, 93
5, 851436, Note_on_c, 3, 76, 0
5, 851520, Note_on_c, 3, 79, 91
5, 852240, Note_on_c, 3, 76, 83
5, 852288, Note_on_c, 3, 79, 0
5, 852480, Note_on_c, 3, 74, 83
5, 852564, Note_on_c, 3, 76, 0
5, 852828, Note_on_c, 3, 74, 0
5, 853440, Note_on_c, 3, 74, 90
5, 854880, Note_on_c, 3, 74, 0
5, 854880, Note_on_c, 3, 71, 90
5, 855120, Note_on_c, 3, 71, 0
5, 855120, Note_on_c, 3, 72, 90
5, 855360, Note_on_c, 3, 72, 0
5, 855360, Note_on_c, 3, 74, 90
5, 855792, Note_on_c, 3, 74, 0
5, 855840, Note_on_c, 3, 74, 90
5, 856284, Note_on_c, 3, 74, 0
5, 856320, Note_on_c, 3, 74, 90
5, 856776, Note_on_c, 3, 74, 0
5, 856800, Note_on_c, 3, 74, 90
5, 857244, Note_on_c, 3, 74, 0
5, 857280, Note_on_c, 3, 74, 90
5, 858000, Note_on_c, 3, 83, 90
5, 858060, Note_on_c, 3, 74, 0
5, 858168, Note_on_c, 3, 83, 0
5, 858240, Note_on_c, 3, 83, 90
5, 860160, Note_on_c, 3, 83, 0
5, 860160, Note_on_c, 3, 74, 90
5, 861120, Note_on_c, 3, 74, 0
5, 861120, Note_on_c, 3, 72, 90
5, 862560, Note_on_c, 3, 72, 0
5, 862560, Note_on_c, 3, 69, 90
5, 862800, Note_on_c, 3, 69, 0
5, 862800, Note_on_c, 3, 71, 90
5, 863040, Note_on_c, 3, 71, 0
5, 863040, Note_on_c, 3, 72, 90
5, 863448, Note_on_c, 3, 72, 0
5, 863520, Note_on_c, 3, 72, 90
5, 863952, Note_on_c, 3, 72, 0
5, 864000, Note_on_c, 3, 72, 90
5, 864444, Note_on_c, 3, 72, 0
5, 864480, Note_on_c, 3, 72, 90
5, 864900, Note_on_c, 3, 72, 0
5, 864960, Note_on_c, 3, 72, 90
5, 865680, Note_on_c, 3, 81, 90
5, 865704, Note_on_c, 3, 72, 0
5, 865836, Note_on_c, 3, 81, 0
5, 865920, Note_on_c, 3, 81, 90
5, 867840, Note_on_c, 3, 81, 0
5, 867840, Note_on_c, 3, 72, 90
5, 868800, Note_on_c, 3, 72, 0
5, 868800, Note_on_c, 3, 71, 90
5, 869280, Note_on_c, 3, 71, 0
5, 896160, Note_on_c, 3, 79, 105
5, 896568, Note_on_c, 3, 79, 0
5, 896640, Note_on_c, 3, 79, 94
5, 897072, Note_on_c, 3, 79, 0
5, 897120, Note_on_c, 3, 79, 109
5, 897552, Note_on_c, 3, 79, 0
5, 897600, Note_on_c, 3, 81, 105
5, 898080, Note_on_c, 3, 83, 103
5, 898101, Note_on_c, 3, 81, 0
5, 898140, Note_on_c, 3, 81, 102
5, 898188, Note_on_c, 3, 83, 0
5, 898200, Note_on_c, 3, 79, 100
5, 898248, Note_on_c, 3, 81, 0
5, 898260, Note_on_c, 3, 81, 97
5, 898308, Note_on_c, 3, 79, 0
5, 898320, Note_on_c, 3, 83, 97
5, 898368, Note_on_c, 3, 81, 0
5, 898560, Note_on_c, 3, 79, 105
5, 898608, Note_on_c, 3, 83, 0
5, 898956, Note_on_c, 3, 79, 0
5, 899040, Note_on_c, 3, 79, 105
5, 899448, Note_on_c, 3, 79, 0
5, 899520, Note_on_c, 3, 81, 105
5, 900000, Note_on_c, 3, 81, 0
5, 900000, Note_on_c, 3, 83, 101
5, 900060, Note_on_c, 3, 81, 106
5, 900108, Note_on_c, 3, 83, 0
5, 900120, Note_on_c, 3, 79, 106
5, 900168, Note_on_c, 3, 81, 0
5, 900180, Note_on_c, 3, 81, 104
5, 900228, Note_on_c, 3, 79, 0
5, 900240, Note_on_c, 3, 83, 101
5, 900288, Note_on_c, 3, 81, 0
5, 900480, Note_on_c, 3, 79, 105
5, 900528, Note_on_c, 3, 83, 0
5, 900852, Note_on_c, 3, 79, 0
5, 900960, Note_on_c, 3, 84, 105
5, 901344, Note_on_c, 3, 84, 0
5, 901440, Note_on_c, 3, 83, 112
5, 902400, Note_on_c, 3, 81, 105
5, 902448, Note_on_c, 3, 83, 0
5, 902880, Note_on_c, 3, 81, 0
5, 903840, Note_on_c, 3, 81, 105
5, 904248, Note_on_c, 3, 81, 0
5, 904320, Note_on_c, 3, 81, 105
5, 904716, Note_on_c, 3, 81, 0
5, 904800, Note_on_c, 3, 81, 105
5, 905208, Note_on_c, 3, 81, 0
5, 905280, Note_on_c, 3, 83, 105
5, 905760, Note_on_c, 3, 84, 100
5, 905784, Note_on_c, 3, 83, 0
5, 905820, Note_on_c, 3, 83, 102
5, 905868, Note_on_c, 3, 84, 0
5, 905880, Note_on_c, 3, 81, 107
5, 905928, Note_on_c, 3, 83, 0
5, 905940, Note_on_c, 3, 83, 110
5, 905988, Note_on_c, 3, 81, 0
5, 906000, Note_on_c, 3, 84, 107
5, 906048, Note_on_c, 3, 83, 0
5, 906240, Note_on_c, 3, 81, 105
5, 906300, Note_on_c, 3, 84, 0
5, 906612, Note_on_c, 3, 81, 0
5, 906720, Note_on_c, 3, 81, 96
5, 907140, Note_on_c, 3, 81, 0
5, 907200, Note_on_c, 3, 83, 105
5, 907680, Note_on_c, 3, 84, 104
5, 907704, Note_on_c, 3, 83, 0
5, 907740, Note_on_c, 3, 83, 104
5, 907788, Note_on_c, 3, 84, 0
5, 907800, Note_on_c, 3, 81, 107
5, 907848, Note_on_c, 3, 83, 0
5, 907860, Note_on_c, 3, 83, 105
5, 907908, Note_on_c, 3, 81, 0
5, 907920, Note_on_c, 3, 84, 105
5, 907968, Note_on_c, 3, 83, 0
5, 908160, Note_on_c, 3, 81, 105
5, 908220, Note_on_c, 3, 84, 0
5, 908544, Note_on_c, 3, 81, 0
5, 908640, Note_on_c, 3, 86, 98
5, 909000, Note_on_c, 3, 86, 0
5, 909120, Note_on_c, 3, 84, 117
5, 910080, Note_on_c, 3, 83, 105
5, 910176, Note_on_c, 3, 84, 0
5, 910560, Note_on_c, 3, 83, 0
5, 911280, Note_on_c, 3, 86, 105
5, 911520, Note_on_c, 3, 85, 105
5, 911580, Note_on_c, 3, 86, 0
5, 911760, Note_on_c, 3, 86, 105
5, 911820, Note_on_c, 3, 85, 0
5, 911916, Note_on_c, 3, 86, 0
5, 912000, Note_on_c, 3, 84, 105
5, 912240, Note_on_c, 3, 83, 105
5, 912324, Note_on_c, 3, 84, 0
5, 912480, Note_on_c, 3, 81, 105
5, 912540, Note_on_c, 3, 83, 0
5, 912720, Note_on_c, 3, 79, 105
5, 912780, Note_on_c, 3, 81, 0
5, 912900, Note_on_c, 3, 79, 0
5, 912960, Note_on_c, 3, 88, 105
5, 913680, Note_on_c, 3, 84, 105
5, 913752, Note_on_c, 3, 88, 0
5, 913836, Note_on_c, 3, 84, 0
5, 913920, Note_on_c, 3, 81, 117
5, 914043, Note_on_c, 3, 81, 0
5, 914880, Note_on_c, 3, 86, 105
5, 915600, Note_on_c, 3, 83, 105
5, 915648, Note_on_c, 3, 86, 0
5, 915780, Note_on_c, 3, 83, 0
5, 915840, Note_on_c, 3, 79, 114
5, 915966, Note_on_c, 3, 79, 0
5, 916800, Note_on_c, 3, 78, 105
5, 917520, Note_on_c, 3, 81, 105
5, 917580, Note_on_c, 3, 78, 0
5, 917712, Note_on_c, 3, 81, 0
5, 917760, Note_on_c, 3, 84, 121
5, 917885, Note_on_c, 3, 84, 0
5, 919200, Note_on_c, 3, 83, 105
5, 919584, Note_on_c, 3, 83, 0
5, 919680, Note_on_c, 3, 83, 105
5, 920004, Note_on_c, 3, 83, 0
5, 920160, Note_on_c, 3, 83, 105
5, 920472, Note_on_c, 3, 83, 0
5, 920640, Note_on_c, 3, 83, 105
5, 921120, Note_on_c, 3, 84, 105
5, 921180, Note_on_c, 3, 83, 0
5, 921360, Note_on_c, 3, 86, 105
5, 921420, Note_on_c, 3, 84, 0
5, 921528, Note_on_c, 3, 86, 0
5, 921600, Note_on_c, 3, 88, 105
5, 922080, Note_on_c, 3, 88, 0
5, 922080, Note_on_c, 3, 84, 105
5, 922320, Note_on_c, 3, 83, 105
5, 922380, Note_on_c, 3, 84, 0
5, 922560, Note_on_c, 3, 83, 0
5, 922560, Note_on_c, 3, 83, 105
5, 922680, Note_on_c, 3, 81, 105
5, 922710, Note_on_c, 3, 83, 0
5, 922800, Note_on_c, 3, 83, 105
5, 922830, Note_on_c, 3, 81, 0
5, 922920, Note_on_c, 3, 81, 105
5, 922950, Note_on_c, 3, 83, 0
5, 923040, Note_on_c, 3, 83, 105
5, 923070, Note_on_c, 3, 81, 0
5, 923100, Note_on_c, 3, 81, 105
5, 923148, Note_on_c, 3, 83, 0
5, 923160, Note_on_c, 3, 83, 105
5, 923208, Note_on_c, 3, 81, 0
5, 923220, Note_on_c, 3, 81, 105
5, 923268, Note_on_c, 3, 83, 0
5, 923280, Note_on_c, 3, 83, 105
5, 923328, Note_on_c, 3, 81, 0
5, 923340, Note_on_c, 3, 81, 105
5, 923388, Note_on_c, 3, 83, 0
5, 923400, Note_on_c, 3, 83, 105
5, 923448, Note_on_c, 3, 81, 0
5, 923460, Note_on_c, 3, 81, 105
5, 923508, Note_on_c, 3, 83, 0
5, 923520, Note_on_c, 3, 83, 105
5, 923568, Note_on_c, 3, 81, 0
5, 923580, Note_on_c, 3, 81, 105
5, 923628, Note_on_c, 3, 83, 0
5, 923640, Note_on_c, 3, 83, 105
5, 923688, Note_on_c, 3, 81, 0
5, 923700, Note_on_c, 3, 81, 105
5, 923748, Note_on_c, 3, 83, 0
5, 923760, Note_on_c, 3, 83, 105
5, 923808, Note_on_c, 3, 81, 0
5, 923820, Note_on_c, 3, 81, 105
5, 923868, Note_on_c, 3, 83, 0
5, 923880, Note_on_c, 3, 83, 105
5, 923928, Note_on_c, 3, 81, 0
5, 923940, Note_on_c, 3, 81, 105
5, 923988, Note_on_c, 3, 83, 0
5, 924000, Note_on_c, 3, 83, 105
5, 924048, Note_on_c, 3, 81, 0
5, 924060, Note_on_c, 3, 81, 105
5, 924108, Note_on_c, 3, 83, 0
5, 924120, Note_on_c, 3, 83, 105
5, 924168, Note_on_c, 3, 81, 0
5, 924180, Note_on_c, 3, 81, 105
5, 924228, Note_on_c, 3, 83, 0
5, 924240, Note_on_c, 3, 79, 105
5, 924288, Note_on_c, 3, 81, 0
5, 924360, Note_on_c, 3, 81, 105
5, 924390, Note_on_c, 3, 79, 0
5, 924480, Note_on_c, 3, 79, 105
5, 924510, Note_on_c, 3, 81, 0
5, 924960, Note_on_c, 3, 79, 0
5, 932400, Note_on_c, 3, 86, 104
5, 932640, Note_on_c, 3, 85, 101
5, 932700, Note_on_c, 3, 86, 0
5, 932880, Note_on_c, 3, 86, 102
5, 932940, Note_on_c, 3, 85, 0
5, 933120, Note_on_c, 3, 85, 105
5, 933180, Note_on_c, 3, 86, 0
5, 933360, Note_on_c, 3, 86, 103
5, 933420, Note_on_c, 3, 85, 0
5, 933600, Note_on_c, 3, 85, 101
5, 933660, Note_on_c, 3, 86, 0
5, 933840, Note_on_c, 3, 86, 102
5, 933900, Note_on_c, 3, 85, 0
5, 934080, Note_on_c, 3, 74, 100
5, 934140, Note_on_c, 3, 86, 0
5, 939840, Note_on_c, 3, 74, 0
5, 940080, Note_on_c, 3, 79, 105
5, 940320, Note_on_c, 3, 78, 105
5, 940380, Note_on_c, 3, 79, 0
5, 940560, Note_on_c, 3, 79, 105
5, 940620, Note_on_c, 3, 78, 0
5, 940800, Note_on_c, 3, 78, 105
5, 940860, Note_on_c, 3, 79, 0
5, 941040, Note_on_c, 3, 79, 105
5, 941100, Note_on_c, 3, 78, 0
5, 941280, Note_on_c, 3, 78, 105
5, 941340, Note_on_c, 3, 79, 0
5, 941520, Note_on_c, 3, 79, 105
5, 941580, Note_on_c, 3, 78, 0
5, 941760, Note_on_c, 3, 67, 105
5, 941820, Note_on_c, 3, 79, 0
5, 942612, Note_on_c, 3, 67, 0
5, 942720, Note_on_c, 3, 86, 105
5, 943632, Note_on_c, 3, 86, 0
5, 943680, Note_on_c, 3, 88, 105
5, 944160, Note_on_c, 3, 88, 0
5, 944640, Note_on_c, 3, 81, 105
5, 945120, Note_on_c, 3, 81, 0
5, 945120, Note_on_c, 3, 84, 105
5, 945360, Note_on_c, 3, 84, 0
5, 945360, Note_on_c, 3, 88, 105
5, 945600, Note_on_c, 3, 88, 0
5, 945600, Note_on_c, 3, 86, 105
5, 946080, Note_on_c, 3, 86, 0
5, 946560, Note_on_c, 3, 79, 105
5, 947040, Note_on_c, 3, 79, 0
5, 947040, Note_on_c, 3, 83, 105
5, 947280, Note_on_c, 3, 83, 0
5, 947280, Note_on_c, 3, 86, 105
5, 947520, Note_on_c, 3, 86, 0
5, 947520, Note_on_c, 3, 84, 105
5, 948000, Note_on_c, 3, 84, 0
5, 948480, Note_on_c, 3, 72, 105
5, 948960, Note_on_c, 3, 72, 0
5, 948960, Note_on_c, 3, 69, 105
5, 949200, Note_on_c, 3, 69, 0
5, 949200, Note_on_c, 3, 62, 105
5, 949440, Note_on_c, 3, 62, 0
5, 949440, Note_on_c, 3, 67, 105
5, 951360, Note_on_c, 3, 67, 0
5, 951360, Note_on_c, 3, 79, 105
5, 953280, Note_on_c, 3, 79, 0
5, 953280, Note_on_c, 3, 74, 105
5, 954240, Note_on_c, 3, 74, 0
5, 954240, Note_on_c, 3, 62, 105
5, 955200, Note_on_c, 3, 62, 0
5, 955200, Note_on_c, 3, 67, 105
5, 955680, Note_on_c, 3, 67, 0
5, 959520, Note_on_c, 3, 67, 116
5, 959616, Note_on_c, 3, 67, 0
5, 959760, Note_on_c, 3, 67, 116
5, 959856, Note_on_c, 3, 67, 0
5, 960000, Note_on_c, 3, 66, 105
5, 960240, Note_on_c, 3, 69, 105
5, 960300, Note_on_c, 3, 66, 0
5, 960420, Note_on_c, 3, 69, 0
5, 960480, Note_on_c, 3, 72, 115
5, 960576, Note_on_c, 3, 72, 0
5, 960720, Note_on_c, 3, 72, 119
5, 960816, Note_on_c, 3, 72, 0
5, 960960, Note_on_c, 3, 67, 105
5, 961200, Note_on_c, 3, 71, 105
5, 961248, Note_on_c, 3, 67, 0
5, 961392, Note_on_c, 3, 71, 0
5, 961440, Note_on_c, 3, 74, 117
5, 961536, Note_on_c, 3, 74, 0
5, 961680, Note_on_c, 3, 74, 119
5, 961776, Note_on_c, 3, 74, 0
5, 961920, Note_on_c, 3, 69, 105
5, 962160, Note_on_c, 3, 74, 105
5, 962232, Note_on_c, 3, 69, 0
5, 962340, Note_on_c, 3, 74, 0
5, 962400, Note_on_c, 3, 78, 122
5, 962496, Note_on_c, 3, 78, 0
5, 962640, Note_on_c, 3, 78, 113
5, 962736, Note_on_c, 3, 78, 0
5, 962880, Note_on_c, 3, 79, 105
5, 963240, Note_on_c, 3, 79, 0
5, 963360, Note_on_c, 3, 67, 118
5, 963456, Note_on_c, 3, 67, 0
5, 963600, Note_on_c, 3, 67, 116
5, 963696, Note_on_c, 3, 67, 0
5, 963840, Note_on_c, 3, 66, 105
5, 964080, Note_on_c, 3, 69, 105
5, 964128, Note_on_c, 3, 66, 0
5, 964272, Note_on_c, 3, 69, 0
5, 964320, Note_on_c, 3, 72, 115
5, 964416, Note_on_c, 3, 72, 0
5, 964560, Note_on_c, 3, 72, 117
5, 964656, Note_on_c, 3, 72, 0
5, 964800, Note_on_c, 3, 67, 105
5, 965040, Note_on_c, 3, 71, 105
5, 965112, Note_on_c, 3, 67, 0
5, 965232, Note_on_c, 3, 71, 0
5, 965280, Note_on_c, 3, 74, 116
5, 965376, Note_on_c, 3, 74, 0
5, 965520, Note_on_c, 3, 74, 115
5, 965616, Note_on_c, 3, 74, 0
5, 965760, Note_on_c, 3, 69, 105
5, 966000, Note_on_c, 3, 74, 105
5, 966060, Note_on_c, 3, 69, 0
5, 966192, Note_on_c, 3, 74, 0
5, 966240, Note_on_c, 3, 78, 121
5, 966336, Note_on_c, 3, 78, 0
5, 966480, Note_on_c, 3, 78, 120
5, 966576, Note_on_c, 3, 78, 0
5, 966720, Note_on_c, 3, 79, 105
5, 967200, Note_on_c, 3, 79, 0
5, 985920, Note_on_c, 3, 79, 105
5, 987300, Note_on_c, 3, 79, 0
5, 987360, Note_on_c, 3, 81, 105
5, 987600, Note_on_c, 3, 83, 105
5, 987660, Note_on_c, 3, 81, 0
5, 987840, Note_on_c, 3, 79, 105
5, 987924, Note_on_c, 3, 83, 0
5, 988236, Note_on_c, 3, 79, 0
5, 988320, Note_on_c, 3, 81, 105
5, 988560, Note_on_c, 3, 83, 105
5, 988620, Note_on_c, 3, 81, 0
5, 988800, Note_on_c, 3, 79, 105
5, 988884, Note_on_c, 3, 83, 0
5, 989184, Note_on_c, 3, 79, 0
5, 989280, Note_on_c, 3, 81, 105
5, 989520, Note_on_c, 3, 83, 105
5, 989580, Note_on_c, 3, 81, 0
5, 989760, Note_on_c, 3, 79, 105
5, 989844, Note_on_c, 3, 83, 0
5, 990132, Note_on_c, 3, 79, 0
5, 990240, Note_on_c, 3, 83, 105
5, 990588, Note_on_c, 3, 83, 0
5, 990720, Note_on_c, 3, 86, 105
5, 992028, Note_on_c, 3, 86, 0
5, 992160, Note_on_c, 3, 84, 105
5, 992400, Note_on_c, 3, 83, 105
5, 992472, Note_on_c, 3, 84, 0
5, 992580, Note_on_c, 3, 83, 0
5, 992640, Note_on_c, 3, 83, 105
5, 992880, Note_on_c, 3, 81, 105
5, 992928, Note_on_c, 3, 83, 0
5, 993060, Note_on_c, 3, 81, 0
5, 993120, Note_on_c, 3, 79, 105
5, 993360, Note_on_c, 3, 81, 105
5, 993444, Note_on_c, 3, 79, 0
5, 993600, Note_on_c, 3, 79, 105
5, 993672, Note_on_c, 3, 81, 0
5, 994800, Note_on_c, 3, 83, 105
5, 994848, Note_on_c, 3, 79, 0
5, 995040, Note_on_c, 3, 81, 105
5, 995100, Note_on_c, 3, 83, 0
5, 995280, Note_on_c, 3, 83, 105
5, 995340, Note_on_c, 3, 81, 0
5, 995520, Note_on_c, 3, 79, 105
5, 995580, Note_on_c, 3, 83, 0
5, 995760, Note_on_c, 3, 83, 105
5, 995820, Note_on_c, 3, 79, 0
5, 996000, Note_on_c, 3, 81, 105
5, 996060, Note_on_c, 3, 83, 0
5, 996240, Note_on_c, 3, 83, 105
5, 996300, Note_on_c, 3, 81, 0
5, 996480, Note_on_c, 3, 79, 105
5, 996540, Note_on_c, 3, 83, 0
5, 996720, Note_on_c, 3, 83, 105
5, 996780, Note_on_c, 3, 79, 0
5, 996960, Note_on_c, 3, 81, 105
5, 997020, Note_on_c, 3, 83, 0
5, 997200, Note_on_c, 3, 83, 105
5, 997260, Note_on_c, 3, 81, 0
5, 997440, Note_on_c, 3, 79, 105
5, 997500, Note_on_c, 3, 83, 0
5, 997740, Note_on_c, 3, 79, 0
5, 997920, Note_on_c, 3, 83, 105
5, 998220, Note_on_c, 3, 83, 0
5, 998400, Note_on_c, 3, 86, 105
5, 999840, Note_on_c, 3, 86, 0
5, 999840, Note_on_c, 3, 84, 105
5, 1000080, Note_on_c, 3, 83, 105
5, 1000152, Note_on_c, 3, 84, 0
5, 1000236, Note_on_c, 3, 83, 0
5, 1000320, Note_on_c, 3, 83, 105
5, 1000560, Note_on_c, 3, 81, 105
5, 1000620, Note_on_c, 3, 83, 0
5, 1000704, Note_on_c, 3, 81, 0
5, 1000800, Note_on_c, 3, 79, 105
5, 1001040, Note_on_c, 3, 81, 105
5, 1001088, Note_on_c, 3, 79, 0
5, 1001280, Note_on_c, 3, 79, 105
5, 1001340, Note_on_c, 3, 81, 0
5, 1001760, Note_on_c, 3, 79, 0
5, 1005120, Note_on_c, 3, 74, 80
5, 1008960, Note_on_c, 3, 74, 0
5, 1008960, Note_on_c, 3, 86, 90
5, 1012800, Note_on_c, 3, 86, 0
5, 1012800, Note_on_c, 3, 67, 90
5, 1013280, Note_on_c, 3, 67, 0
5, 1016640, Note_on_c, 3, 81, 97
5, 1016880, Note_on_c, 3, 79, 95
5, 1016904, Note_on_c, 3, 81, 0
5, 1017120, Note_on_c, 3, 78, 97
5, 1017144, Note_on_c, 3, 79, 0
5, 1017360, Note_on_c, 3, 79, 96
5, 1017384, Note_on_c, 3, 78, 0
5, 1017600, Note_on_c, 3, 78, 87
5, 1017624, Note_on_c, 3, 79, 0
5, 1017840, Note_on_c, 3, 79, 92
5, 1017864, Note_on_c, 3, 78, 0
5, 1018080, Note_on_c, 3, 81, 90
5, 1018104, Note_on_c, 3, 79, 0
5, 1018320, Note_on_c, 3, 79, 85
5, 1018344, Note_on_c, 3, 81, 0
5, 1018464, Note_on_c, 3, 79, 0
5, 1018560, Note_on_c, 3, 79, 94
5, 1018800, Note_on_c, 3, 77, 88
5, 1018824, Note_on_c, 3, 79, 0
5, 1019040, Note_on_c, 3, 76, 90
5, 1019064, Note_on_c, 3, 77, 0
5, 1019280, Note_on_c, 3, 77, 90
5, 1019304, Note_on_c, 3, 76, 0
5, 1019520, Note_on_c, 3, 76, 92
5, 1019544, Note_on_c, 3, 77, 0
5, 1019760, Note_on_c, 3, 77, 91
5, 1019784, Note_on_c, 3, 76, 0
5, 1020000, Note_on_c, 3, 79, 80
5, 1020024, Note_on_c, 3, 77, 0
5, 1020240, Note_on_c, 3, 77, 79
5, 1020264, Note_on_c, 3, 79, 0
5, 1020384, Note_on_c, 3, 77, 0
5, 1020480, Note_on_c, 3, 74, 90
5, 1020720, Note_on_c, 3, 77, 88
5, 1020782, Note_on_c, 3, 74, 0
5, 1020960, Note_on_c, 3, 76, 98
5, 1021022, Note_on_c, 3, 77, 0
5, 1021200, Note_on_c, 3, 79, 101
5, 1021262, Note_on_c, 3, 76, 0
5, 1021440, Note_on_c, 3, 77, 106
5, 1021502, Note_on_c, 3, 79, 0
5, 1021920, Note_on_c, 3, 77, 0
5, 1022400, Note_on_c, 3, 74, 80
5, 1022640, Note_on_c, 3, 77, 92
5, 1022702, Note_on_c, 3, 74, 0
5, 1022880, Note_on_c, 3, 76, 94
5, 1022942, Note_on_c, 3, 77, 0
5, 1023120, Note_on_c, 3, 79, 99
5, 1023182, Note_on_c, 3, 76, 0
5, 1023360, Note_on_c, 3, 77, 94
5, 1023422, Note_on_c, 3, 79, 0
5, 1023840, Note_on_c, 3, 77, 0
5, 1024320, Note_on_c, 3, 74, 90
5, 1024560, Note_on_c, 3, 77, 91
5, 1024622, Note_on_c, 3, 74, 0
5, 1024800, Note_on_c, 3, 76, 102
5, 1024862, Note_on_c, 3, 77, 0
5, 1025040, Note_on_c, 3, 79, 102
5, 1025102, Note_on_c, 3, 76, 0
5, 1025280, Note_on_c, 3, 77, 100
5, 1025342, Note_on_c, 3, 79, 0
5, 1025520, Note_on_c, 3, 79, 93
5, 1025582, Note_on_c, 3, 77, 0
5, 1025760, Note_on_c, 3, 76, 94
5, 1025822, Note_on_c, 3, 79, 0
5, 1026000, Note_on_c, 3, 77, 97
5, 1026062, Note_on_c, 3, 76, 0
5, 1026156, Note_on_c, 3, 77, 0
5, 1026240, Note_on_c, 3, 74, 72
5, 1026480, Note_on_c, 3, 77, 83
5, 1026542, Note_on_c, 3, 74, 0
5, 1026720, Note_on_c, 3, 76, 88
5, 1026782, Note_on_c, 3, 77, 0
5, 1026960, Note_on_c, 3, 79, 84
5, 1027022, Note_on_c, 3, 76, 0
5, 1027200, Note_on_c, 3, 77, 73
5, 1027262, Note_on_c, 3, 79, 0
5, 1027680, Note_on_c, 3, 77, 0
5, 1029120, Note_on_c, 3, 76, 80
5, 1029480, Note_on_c, 3, 76, 0
5, 1029600, Note_on_c, 3, 76, 80
5, 1029948, Note_on_c, 3, 76, 0
5, 1030080, Note_on_c, 3, 76, 80
5, 1030956, Note_on_c, 3, 76, 0
5, 1031040, Note_on_c, 3, 79, 80
5, 1031280, Note_on_c, 3, 77, 80
5, 1031342, Note_on_c, 3, 79, 0
5, 1031520, Note_on_c, 3, 76, 80
5, 1031582, Note_on_c, 3, 77, 0
5, 1031760, Note_on_c, 3, 77, 80
5, 1031822, Note_on_c, 3, 76, 0
5, 1031940, Note_on_c, 3, 77, 0
5, 1032000, Note_on_c, 3, 79, 80
5, 1032240, Note_on_c, 3, 76, 80
5, 1032302, Note_on_c, 3, 79, 0
5, 1032480, Note_on_c, 3, 72, 80
5, 1032542, Note_on_c, 3, 76, 0
5, 1032864, Note_on_c, 3, 72, 0
5, 1032960, Note_on_c, 3, 84, 80
5, 1033680, Note_on_c, 3, 83, 80
5, 1033764, Note_on_c, 3, 84, 0
5, 1033860, Note_on_c, 3, 83, 0
5, 1033920, Note_on_c, 3, 83, 80
5, 1034160, Note_on_c, 3, 81, 80
5, 1034232, Note_on_c, 3, 83, 0
5, 1034340, Note_on_c, 3, 81, 0
5, 1034400, Note_on_c, 3, 79, 80
5, 1034880, Note_on_c, 3, 79, 0
5, 1034880, Note_on_c, 3, 84, 80
5, 1035600, Note_on_c, 3, 83, 80
5, 1035696, Note_on_c, 3, 84, 0
5, 1035780, Note_on_c, 3, 83, 0
5, 1035840, Note_on_c, 3, 83, 80
5, 1036080, Note_on_c, 3, 81, 80
5, 1036128, Note_on_c, 3, 83, 0
5, 1036248, Note_on_c, 3, 81, 0
5, 1036320, Note_on_c, 3, 79, 80
5, 1036716, Note_on_c, 3, 79, 0
5, 1036800, Note_on_c, 3, 72, 90
5, 1037208, Note_on_c, 3, 72, 0
5, 1037280, Note_on_c, 3, 72, 90
5, 1037688, Note_on_c, 3, 72, 0
5, 1037760, Note_on_c, 3, 72, 90
5, 1038648, Note_on_c, 3, 72, 0
5, 1038720, Note_on_c, 3, 76, 90
5, 1038960, Note_on_c, 3, 74, 90
5, 1039022, Note_on_c, 3, 76, 0
5, 1039200, Note_on_c, 3, 72, 90
5, 1039262, Note_on_c, 3, 74, 0
5, 1039440, Note_on_c, 3, 74, 90
5, 1039502, Note_on_c, 3, 72, 0
5, 1039608, Note_on_c, 3, 74, 0
5, 1039680, Note_on_c, 3, 76, 90
5, 1040016, Note_on_c, 3, 76, 0
5, 1040160, Note_on_c, 3, 76, 90
5, 1040496, Note_on_c, 3, 76, 0
5, 1040640, Note_on_c, 3, 79, 90
5, 1040880, Note_on_c, 3, 77, 90
5, 1040942, Note_on_c, 3, 79, 0
5, 1041120, Note_on_c, 3, 76, 90
5, 1041182, Note_on_c, 3, 77, 0
5, 1041360, Note_on_c, 3, 77, 90
5, 1041422, Note_on_c, 3, 76, 0
5, 1041528, Note_on_c, 3, 77, 0
5, 1041600, Note_on_c, 3, 79, 90
5, 1041996, Note_on_c, 3, 79, 0
5, 1042080, Note_on_c, 3, 79, 90
5, 1042560, Note_on_c, 3, 79, 0
5, 1042560, Note_on_c, 3, 81, 90
5, 1042800, Note_on_c, 3, 79, 90
5, 1042862, Note_on_c, 3, 81, 0
5, 1043040, Note_on_c, 3, 77, 90
5, 1043102, Note_on_c, 3, 79, 0
5, 1043136, Note_on_c, 3, 77, 0
5, 1043280, Note_on_c, 3, 76, 90
5, 1043376, Note_on_c, 3, 76, 0
5, 1043520, Note_on_c, 3, 76, 90
5, 1044000, Note_on_c, 3, 74, 90
5, 1044072, Note_on_c, 3, 76, 0
5, 1044396, Note_on_c, 3, 74, 0
5, 1077972, Note_on_c, 3, 72, 122
5, 1078080, Note_on_c, 3, 84, 122
5, 1078224, Note_on_c, 3, 72, 0
5, 1079916, Note_on_c, 3, 84, 0
5, 1080000, Note_on_c, 3, 81, 90
5, 1080900, Note_on_c, 3, 81, 0
5, 1080960, Note_on_c, 3, 77, 90
5, 1081872, Note_on_c, 3, 77, 0
5, 1081920, Note_on_c, 3, 72, 90
5, 1083360, Note_on_c, 3, 77, 90
5, 1083408, Note_on_c, 3, 72, 0
5, 1083708, Note_on_c, 3, 77, 0
5, 1083840, Note_on_c, 3, 76, 90
5, 1084260, Note_on_c, 3, 76, 0
5, 1084320, Note_on_c, 3, 76, 98
5, 1084380, Note_on_c, 3, 74, 106
5, 1084431, Note_on_c, 3, 76, 0
5, 1084440, Note_on_c, 3, 76, 108
5, 1084491, Note_on_c, 3, 74, 0
5, 1084500, Note_on_c, 3, 74, 108
5, 1084551, Note_on_c, 3, 76, 0
5, 1084560, Note_on_c, 3, 72, 104
5, 1084611, Note_on_c, 3, 74, 0
5, 1084680, Note_on_c, 3, 74, 92
5, 1084716, Note_on_c, 3, 72, 0
5, 1084800, Note_on_c, 3, 72, 98
5, 1084860, Note_on_c, 3, 74, 0
5, 1085760, Note_on_c, 3, 72, 0
5, 1086000, Note_on_c, 3, 77, 95
5, 1086240, Note_on_c, 3, 76, 100
5, 1086300, Note_on_c, 3, 77, 0
5, 1086480, Note_on_c, 3, 77, 91
5, 1086540, Note_on_c, 3, 76, 0
5, 1086720, Note_on_c, 3, 76, 85
5, 1086780, Note_on_c, 3, 77, 0
5, 1086960, Note_on_c, 3, 77, 87
5, 1087020, Note_on_c, 3, 76, 0
5, 1087200, Note_on_c, 3, 79, 95
5, 1087260, Note_on_c, 3, 77, 0
5, 1087368, Note_on_c, 3, 79, 0
5, 1087440, Note_on_c, 3, 81, 97
5, 1087572, Note_on_c, 3, 81, 0
5, 1087680, Note_on_c, 3, 78, 102
5, 1088640, Note_on_c, 3, 78, 0
5, 1088640, Note_on_c, 3, 79, 99
5, 1089756, Note_on_c, 3, 79, 0
5, 1089840, Note_on_c, 3, 81, 99
5, 1090080, Note_on_c, 3, 82, 93
5, 1090140, Note_on_c, 3, 81, 0
5, 1090320, Note_on_c, 3, 81, 93
5, 1090380, Note_on_c, 3, 82, 0
5, 1090560, Note_on_c, 3, 84, 100
5, 1090620, Note_on_c, 3, 81, 0
5, 1090800, Note_on_c, 3, 82, 100
5, 1090860, Note_on_c, 3, 84, 0
5, 1091040, Note_on_c, 3, 81, 93
5, 1091100, Note_on_c, 3, 82, 0
5, 1091280, Note_on_c, 3, 79, 88
5, 1091340, Note_on_c, 3, 81, 0
5, 1091412, Note_on_c, 3, 79, 0
5, 1091520, Note_on_c, 3, 77, 90
5, 1091760, Note_on_c, 3, 79, 95
5, 1091784, Note_on_c, 3, 77, 0
5, 1091820, Note_on_c, 3, 77, 97
5, 1091864, Note_on_c, 3, 79, 0
5, 1091880, Note_on_c, 3, 76, 96
5, 1091924, Note_on_c, 3, 77, 0
5, 1092000, Note_on_c, 3, 77, 90
5, 1092012, Note_on_c, 3, 76, 0
5, 1092168, Note_on_c, 3, 77, 0
5, 1092240, Note_on_c, 3, 79, 84
5, 1092336, Note_on_c, 3, 79, 0
5, 1092480, Note_on_c, 3, 81, 84
5, 1092720, Note_on_c, 3, 82, 93
5, 1092744, Note_on_c, 3, 81, 0
5, 1092780, Note_on_c, 3, 81, 93
5, 1092824, Note_on_c, 3, 82, 0
5, 1092840, Note_on_c, 3, 79, 93
5, 1092884, Note_on_c, 3, 81, 0
5, 1092960, Note_on_c, 3, 81, 85
5, 1092972, Note_on_c, 3, 79, 0
5, 1093116, Note_on_c, 3, 81, 0
5, 1093200, Note_on_c, 3, 82, 87
5, 1093320, Note_on_c, 3, 82, 0
5, 1093440, Note_on_c, 3, 72, 103
5, 1093680, Note_on_c, 3, 84, 101
5, 1093728, Note_on_c, 3, 72, 0
5, 1093824, Note_on_c, 3, 84, 0
5, 1093920, Note_on_c, 3, 84, 96
5, 1094016, Note_on_c, 3, 84, 0
5, 1094160, Note_on_c, 3, 84, 90
5, 1094256, Note_on_c, 3, 84, 0
5, 1094400, Note_on_c, 3, 84, 88
5, 1094496, Note_on_c, 3, 84, 0
5, 1094640, Note_on_c, 3, 84, 90
5, 1094736, Note_on_c, 3, 84, 0
5, 1094880, Note_on_c, 3, 84, 90
5, 1094976, Note_on_c, 3, 84, 0
5, 1095120, Note_on_c, 3, 84, 90
5, 1095216, Note_on_c, 3, 84, 0
5, 1095360, Note_on_c, 3, 69, 100
5, 1095600, Note_on_c, 3, 81, 100
5, 1095624, Note_on_c, 3, 69, 0
5, 1095744, Note_on_c, 3, 81, 0
5, 1095840, Note_on_c, 3, 81, 90
5, 1095936, Note_on_c, 3, 81, 0
5, 1096080, Note_on_c, 3, 81, 90
5, 1096176, Note_on_c, 3, 81, 0
5, 1096320, Note_on_c, 3, 65, 104
5, 1096560, Note_on_c, 3, 77, 97
5, 1096608, Note_on_c, 3, 65, 0
5, 1096728, Note_on_c, 3, 77, 0
5, 1096800, Note_on_c, 3, 77, 90
5, 1096896, Note_on_c, 3, 77, 0
5, 1097040, Note_on_c, 3, 77, 90
5, 1097136, Note_on_c, 3, 77, 0
5, 1097280, Note_on_c, 3, 72, 90
5, 1097604, Note_on_c, 3, 72, 0
5, 1097760, Note_on_c, 3, 72, 90
5, 1098396, Note_on_c, 3, 72, 0
5, 1098480, Note_on_c, 3, 74, 89
5, 1098720, Note_on_c, 3, 76, 94
5, 1098768, Note_on_c, 3, 74, 0
5, 1098960, Note_on_c, 3, 77, 99
5, 1099020, Note_on_c, 3, 76, 0
5, 1099128, Note_on_c, 3, 77, 0
5, 1099200, Note_on_c, 3, 76, 90
5, 1099608, Note_on_c, 3, 76, 0
5, 1099680, Note_on_c, 3, 76, 88
5, 1099740, Note_on_c, 3, 74, 94
5, 1099784, Note_on_c, 3, 76, 0
5, 1099800, Note_on_c, 3, 76, 94
5, 1099844, Note_on_c, 3, 74, 0
5, 1099860, Note_on_c, 3, 74, 93
5, 1099904, Note_on_c, 3, 76, 0
5, 1099920, Note_on_c, 3, 72, 86
5, 1099964, Note_on_c, 3, 74, 0
5, 1100040, Note_on_c, 3, 74, 81
5, 1100080, Note_on_c, 3, 72, 0
5, 1100136, Note_on_c, 3, 74, 0
5, 1100160, Note_on_c, 3, 72, 90
5, 1101120, Note_on_c, 3, 72, 0
5, 1101360, Note_on_c, 3, 84, 92
5, 1101600, Note_on_c, 3, 83, 97
5, 1101679, Note_on_c, 3, 84, 0
5, 1101840, Note_on_c, 3, 84, 100
5, 1101919, Note_on_c, 3, 83, 0
5, 1102080, Note_on_c, 3, 86, 105
5, 1102159, Note_on_c, 3, 84, 0
5, 1102320, Note_on_c, 3, 84, 105
5, 1102399, Note_on_c, 3, 86, 0
5, 1102560, Note_on_c, 3, 82, 103
5, 1102639, Note_on_c, 3, 84, 0
5, 1102800, Note_on_c, 3, 81, 96
5, 1102879, Note_on_c, 3, 82, 0
5, 1102968, Note_on_c, 3, 81, 0
5, 1103040, Note_on_c, 3, 78, 83
5, 1103280, Note_on_c, 3, 79, 99
5, 1103340, Note_on_c, 3, 78, 0
5, 1103424, Note_on_c, 3, 79, 0
5, 1103520, Note_on_c, 3, 85, 90
5, 1103760, Note_on_c, 3, 86, 102
5, 1103820, Note_on_c, 3, 85, 0
5, 1103892, Note_on_c, 3, 86, 0
5, 1104000, Note_on_c, 3, 81, 90
5, 1104240, Note_on_c, 3, 82, 102
5, 1104288, Note_on_c, 3, 81, 0
5, 1104384, Note_on_c, 3, 82, 0
5, 1104480, Note_on_c, 3, 78, 90
5, 1104720, Note_on_c, 3, 79, 97
5, 1104780, Note_on_c, 3, 78, 0
5, 1104864, Note_on_c, 3, 79, 0
5, 1104960, Note_on_c, 3, 77, 99
5, 1105920, Note_on_c, 3, 77, 0
5, 1105920, Note_on_c, 3, 81, 100
5, 1105980, Note_on_c, 3, 79, 103
5, 1106024, Note_on_c, 3, 81, 0
5, 1106040, Note_on_c, 3, 81, 103
5, 1106084, Note_on_c, 3, 79, 0
5, 1106100, Note_on_c, 3, 79, 104
5, 1106144, Note_on_c, 3, 81, 0
5, 1106160, Note_on_c, 3, 81, 109
5, 1106204, Note_on_c, 3, 79, 0
5, 1106220, Note_on_c, 3, 79, 106
5, 1106264, Note_on_c, 3, 81, 0
5, 1106280, Note_on_c, 3, 81, 104
5, 1106324, Note_on_c, 3, 79, 0
5, 1106340, Note_on_c, 3, 79, 98
5, 1106384, Note_on_c, 3, 81, 0
5, 1106400, Note_on_c, 3, 81, 93
5, 1106444, Note_on_c, 3, 79, 0
5, 1106460, Note_on_c, 3, 79, 91
5, 1106504, Note_on_c, 3, 81, 0
5, 1106520, Note_on_c, 3, 81, 88
5, 1106564, Note_on_c, 3, 79, 0
5, 1106580, Note_on_c, 3, 79, 83
5, 1106624, Note_on_c, 3, 81, 0
5, 1106640, Note_on_c, 3, 77, 82
5, 1106719, Note_on_c, 3, 79, 0
5, 1106760, Note_on_c, 3, 79, 82
5, 1106800, Note_on_c, 3, 77, 0
5, 1106880, Note_on_c, 3, 77, 92
5, 1106920, Note_on_c, 3, 79, 0
5, 1107360, Note_on_c, 3, 77, 0
5, 1110720, Note_on_c, 3, 84, 90
5, 1116372, Note_on_c, 3, 84, 0
5, 1116480, Note_on_c, 3, 84, 90
5, 1117200, Note_on_c, 3, 81, 90
5, 1117248, Note_on_c, 3, 84, 0
5, 1117380, Note_on_c, 3, 81, 0
5, 1117440, Note_on_c, 3, 89, 90
5, 1117596, Note_on_c, 3, 89, 0
5, 1129920, Note_on_c, 3, 67, 90
5, 1133532, Note_on_c, 3, 67, 0
5, 1133760, Note_on_c, 3, 86, 90
5, 1134000, Note_on_c, 3, 86, 0
5, 1134000, Note_on_c, 3, 84, 90
5, 1134240, Note_on_c, 3, 84, 0
5, 1134240, Note_on_c, 3, 83, 90
5, 1134480, Note_on_c, 3, 83, 0
5, 1134480, Note_on_c, 3, 81, 90
5, 1134720, Note_on_c, 3, 81, 0
5, 1134720, Note_on_c, 3, 79, 90
5, 1134960, Note_on_c, 3, 79, 0
5, 1134960, Note_on_c, 3, 77, 90
5, 1135200, Note_on_c, 3, 77, 0
5, 1135200, Note_on_c, 3, 76, 90
5, 1135440, Note_on_c, 3, 76, 0
5, 1135440, Note_on_c, 3, 74, 90
5, 1135680, Note_on_c, 3, 74, 0
5, 1135680, Note_on_c, 3, 72, 90
5, 1135920, Note_on_c, 3, 72, 0
5, 1135920, Note_on_c, 3, 74, 90
5, 1136160, Note_on_c, 3, 74, 0
5, 1136160, Note_on_c, 3, 76, 90
5, 1136400, Note_on_c, 3, 76, 0
5, 1136400, Note_on_c, 3, 77, 90
5, 1136640, Note_on_c, 3, 77, 0
5, 1136640, Note_on_c, 3, 79, 90
5, 1136880, Note_on_c, 3, 79, 0
5, 1136880, Note_on_c, 3, 81, 90
5, 1137120, Note_on_c, 3, 81, 0
5, 1137120, Note_on_c, 3, 83, 90
5, 1137360, Note_on_c, 3, 83, 0
5, 1137360, Note_on_c, 3, 84, 90
5, 1137600, Note_on_c, 3, 84, 0
5, 1137600, Note_on_c, 3, 83, 90
5, 1137840, Note_on_c, 3, 83, 0
5, 1137840, Note_on_c, 3, 81, 90
5, 1138080, Note_on_c, 3, 81, 0
5, 1138080, Note_on_c, 3, 80, 90
5, 1138320, Note_on_c, 3, 80, 0
5, 1138320, Note_on_c, 3, 77, 90
5, 1138560, Note_on_c, 3, 77, 0
5, 1138560, Note_on_c, 3, 76, 90
5, 1138800, Note_on_c, 3, 76, 0
5, 1138800, Note_on_c, 3, 74, 90
5, 1139040, Note_on_c, 3, 74, 0
5, 1139040, Note_on_c, 3, 72, 90
5, 1139280, Note_on_c, 3, 72, 0
5, 1139280, Note_on_c, 3, 71, 90
5, 1139520, Note_on_c, 3, 71, 0
5, 1139520, Note_on_c, 3, 69, 90
5, 1139760, Note_on_c, 3, 69, 0
5, 1139760, Note_on_c, 3, 71, 90
5, 1140000, Note_on_c, 3, 71, 0
5, 1140000, Note_on_c, 3, 72, 90
5, 1140240, Note_on_c, 3, 72, 0
5, 1140240, Note_on_c, 3, 74, 90
5, 1140480, Note_on_c, 3, 74, 0
5, 1140480, Note_on_c, 3, 76, 90
5, 1140720, Note_on_c, 3, 76, 0
5, 1140720, Note_on_c, 3, 77, 90
5, 1140960, Note_on_c, 3, 77, 0
5, 1140960, Note_on_c, 3, 80, 90
5, 1141200, Note_on_c, 3, 80, 0
5, 1141200, Note_on_c, 3, 81, 90
5, 1141440, Note_on_c, 3, 81, 0
5, 1141440, Note_on_c, 3, 79, 90
5, 1141680, Note_on_c, 3, 79, 0
5, 1141680, Note_on_c, 3, 77, 90
5, 1141920, Note_on_c, 3, 77, 0
5, 1141920, Note_on_c, 3, 76, 90
5, 1142160, Note_on_c, 3, 76, 0
5, 1142160, Note_on_c, 3, 74, 90
5, 1142400, Note_on_c, 3, 74, 0
5, 1142400, Note_on_c, 3, 72, 90
5, 1142640, Note_on_c, 3, 72, 0
5, 1142640, Note_on_c, 3, 70, 90
5, 1142880, Note_on_c, 3, 70, 0
5, 1142880, Note_on_c, 3, 69, 90
5, 1143120, Note_on_c, 3, 69, 0
5, 1143120, Note_on_c, 3, 67, 90
5, 1143360, Note_on_c, 3, 67, 0
5, 1143360, Note_on_c, 3, 65, 90
5, 1143840, Note_on_c, 3, 65, 0
5, 1147200, Note_on_c, 3, 71, 90
5, 1147440, Note_on_c, 3, 71, 0
5, 1147440, Note_on_c, 3, 67, 90
5, 1147680, Note_on_c, 3, 67, 0
5, 1147680, Note_on_c, 3, 69, 90
5, 1147920, Note_on_c, 3, 69, 0
5, 1147920, Note_on_c, 3, 71, 90
5, 1148160, Note_on_c, 3, 71, 0
5, 1148160, Note_on_c, 3, 72, 90
5, 1148400, Note_on_c, 3, 72, 0
5, 1148400, Note_on_c, 3, 74, 90
5, 1148640, Note_on_c, 3, 74, 0
5, 1148640, Note_on_c, 3, 76, 90
5, 1148880, Note_on_c, 3, 76, 0
5, 1148880, Note_on_c, 3, 78, 90
5, 1149120, Note_on_c, 3, 78, 0
5, 1149120, Note_on_c, 3, 79, 90
5, 1149360, Note_on_c, 3, 79, 0
5, 1149360, Note_on_c, 3, 78, 90
5, 1149600, Note_on_c, 3, 78, 0
5, 1149600, Note_on_c, 3, 79, 90
5, 1149840, Note_on_c, 3, 79, 0
5, 1149840, Note_on_c, 3, 78, 90
5, 1150080, Note_on_c, 3, 78, 0
5, 1150080, Note_on_c, 3, 79, 90
5, 1150320, Note_on_c, 3, 79, 0
5, 1150320, Note_on_c, 3, 78, 90
5, 1150560, Note_on_c, 3, 78, 0
5, 1150560, Note_on_c, 3, 79, 90
5, 1150800, Note_on_c, 3, 79, 0
5, 1150800, Note_on_c, 3, 78, 90
5, 1151040, Note_on_c, 3, 78, 0
5, 1151040, Note_on_c, 3, 79, 90
5, 1159200, Note_on_c, 3, 79, 0
5, 1159440, Note_on_c, 3, 79, 90
5, 1159632, Note_on_c, 3, 79, 0
5, 1159680, Note_on_c, 3, 78, 90
5, 1159920, Note_on_c, 3, 79, 90
5, 1159994, Note_on_c, 3, 78, 0
5, 1160160, Note_on_c, 3, 78, 90
5, 1160234, Note_on_c, 3, 79, 0
5, 1160400, Note_on_c, 3, 79, 90
5, 1160474, Note_on_c, 3, 78, 0
5, 1160592, Note_on_c, 3, 79, 0
5, 1160640, Note_on_c, 3, 84, 90
5, 1161120, Note_on_c, 3, 82, 90
5, 1161168, Note_on_c, 3, 84, 0
5, 1161600, Note_on_c, 3, 80, 90
5, 1161648, Note_on_c, 3, 82, 0
5, 1162080, Note_on_c, 3, 79, 90
5, 1162128, Note_on_c, 3, 80, 0
5, 1162452, Note_on_c, 3, 79, 0
5, 1162560, Note_on_c, 3, 79, 90
5, 1163280, Note_on_c, 3, 78, 90
5, 1163364, Note_on_c, 3, 79, 0
5, 1163460, Note_on_c, 3, 78, 0
5, 1163520, Note_on_c, 3, 78, 90
5, 1164876, Note_on_c, 3, 78, 0
5, 1164960, Note_on_c, 3, 75, 90
5, 1165440, Note_on_c, 3, 75, 0
5, 1165440, Note_on_c, 3, 74, 90
5, 1165920, Note_on_c, 3, 74, 0
5, 1165920, Note_on_c, 3, 72, 90
5, 1166316, Note_on_c, 3, 72, 0
5, 1166400, Note_on_c, 3, 71, 90
5, 1166640, Note_on_c, 3, 74, 90
5, 1166688, Note_on_c, 3, 71, 0
5, 1166796, Note_on_c, 3, 74, 0
5, 1166880, Note_on_c, 3, 79, 90
5, 1166976, Note_on_c, 3, 79, 0
5, 1167120, Note_on_c, 3, 79, 90
5, 1167216, Note_on_c, 3, 79, 0
5, 1167360, Note_on_c, 3, 79, 90
5, 1168668, Note_on_c, 3, 79, 0
5, 1168800, Note_on_c, 3, 83, 90
5, 1168896, Note_on_c, 3, 83, 0
5, 1169040, Note_on_c, 3, 86, 90
5, 1169136, Note_on_c, 3, 86, 0
5, 1169280, Note_on_c, 3, 84, 90
5, 1169520, Note_on_c, 3, 83, 90
5, 1169604, Note_on_c, 3, 84, 0
5, 1169700, Note_on_c, 3, 83, 0
5, 1169760, Note_on_c, 3, 81, 90
5, 1169856, Note_on_c, 3, 81, 0
5, 1170000, Note_on_c, 3, 79, 90
5, 1170096, Note_on_c, 3, 79, 0
5, 1170240, Note_on_c, 3, 79, 90
5, 1170720, Note_on_c, 3, 78, 90
5, 1170792, Note_on_c, 3, 79, 0
5, 1171116, Note_on_c, 3, 78, 0
5, 1171200, Note_on_c, 3, 87, 90
5, 1172568, Note_on_c, 3, 87, 0
5, 1172640, Note_on_c, 3, 84, 90
5, 1173120, Note_on_c, 3, 87, 90
5, 1173204, Note_on_c, 3, 84, 0
5, 1173600, Note_on_c, 3, 78, 90
5, 1173672, Note_on_c, 3, 87, 0
5, 1173972, Note_on_c, 3, 78, 0
5, 1174080, Note_on_c, 3, 79, 90
5, 1174560, Note_on_c, 3, 79, 0
5, 1175040, Note_on_c, 3, 84, 90
5, 1175520, Note_on_c, 3, 78, 90
5, 1175568, Note_on_c, 3, 84, 0
5, 1175904, Note_on_c, 3, 78, 0
5, 1176000, Note_on_c, 3, 79, 90
5, 1176480, Note_on_c, 3, 79, 0
5, 1176960, Note_on_c, 3, 84, 90
5, 1177440, Note_on_c, 3, 78, 90
5, 1177488, Note_on_c, 3, 84, 0
5, 1177800, Note_on_c, 3, 78, 0
5, 1177920, Note_on_c, 3, 79, 90
5, 1178304, Note_on_c, 3, 79, 0
5, 1178880, Note_on_c, 3, 79, 90
5, 1179240, Note_on_c, 3, 79, 0
5, 1179840, Note_on_c, 3, 79, 90
5, 1180080, Note_on_c, 3, 78, 90
5, 1180145, Note_on_c, 3, 79, 0
5, 1180320, Note_on_c, 3, 79, 90
5, 1180385, Note_on_c, 3, 78, 0
5, 1180560, Note_on_c, 3, 78, 90
5, 1180625, Note_on_c, 3, 79, 0
5, 1180800, Note_on_c, 3, 79, 90
5, 1180865, Note_on_c, 3, 78, 0
5, 1181040, Note_on_c, 3, 78, 90
5, 1181105, Note_on_c, 3, 79, 0
5, 1181280, Note_on_c, 3, 79, 90
5, 1181345, Note_on_c, 3, 78, 0
5, 1181520, Note_on_c, 3, 78, 90
5, 1181585, Note_on_c, 3, 79, 0
5, 1181676, Note_on_c, 3, 78, 0
5, 1181760, Note_on_c, 3, 79, 90
5, 1183200, Note_on_c, 3, 79, 0
5, 1183200, Note_on_c, 3, 76, 90
5, 1183440, Note_on_c, 3, 76, 0
5, 1183440, Note_on_c, 3, 77, 90
5, 1183680, Note_on_c, 3, 77, 0
5, 1183680, Note_on_c, 3, 79, 90
5, 1184100, Note_on_c, 3, 79, 0
5, 1184160, Note_on_c, 3, 79, 90
5, 1184592, Note_on_c, 3, 79, 0
5, 1184640, Note_on_c, 3, 79, 90
5, 1185036, Note_on_c, 3, 79, 0
5, 1185120, Note_on_c, 3, 79, 90
5, 1185540, Note_on_c, 3, 79, 0
5, 1185600, Note_on_c, 3, 79, 90
5, 1186320, Note_on_c, 3, 88, 90
5, 1186344, Note_on_c, 3, 79, 0
5, 1186512, Note_on_c, 3, 88, 0
5, 1186560, Note_on_c, 3, 88, 90
5, 1188420, Note_on_c, 3, 88, 0
5, 1188480, Note_on_c, 3, 79, 90
5, 1189440, Note_on_c, 3, 79, 0
5, 1189440, Note_on_c, 3, 77, 90
5, 1190880, Note_on_c, 3, 77, 0
5, 1190880, Note_on_c, 3, 74, 90
5, 1191120, Note_on_c, 3, 74, 0
5, 1191120, Note_on_c, 3, 76, 90
5, 1191360, Note_on_c, 3, 76, 0
5, 1191360, Note_on_c, 3, 77, 90
5, 1191792, Note_on_c, 3, 77, 0
5, 1191840, Note_on_c, 3, 77, 90
5, 1192272, Note_on_c, 3, 77, 0
5, 1192320, Note_on_c, 3, 77, 90
5, 1192752, Note_on_c, 3, 77, 0
5, 1192800, Note_on_c, 3, 77, 90
5, 1193244, Note_on_c, 3, 77, 0
5, 1193280, Note_on_c, 3, 77, 90
5, 1194000, Note_on_c, 3, 86, 90
5, 1194060, Note_on_c, 3, 77, 0
5, 1194168, Note_on_c, 3, 86, 0
5, 1194240, Note_on_c, 3, 86, 90
5, 1196160, Note_on_c, 3, 86, 0
5, 1196160, Note_on_c, 3, 77, 90
5, 1197120, Note_on_c, 3, 77, 0
5, 1197120, Note_on_c, 3, 76, 90
5, 1197600, Note_on_c, 3, 76, 0
5, 1224480, Note_on_c, 3, 72, 90
5, 1224912, Note_on_c, 3, 72, 0
5, 1224960, Note_on_c, 3, 72, 90
5, 1225368, Note_on_c, 3, 72, 0
5, 1225440, Note_on_c, 3, 72, 90
5, 1225848, Note_on_c, 3, 72, 0
5, 1225920, Note_on_c, 3, 74, 90
5, 1226400, Note_on_c, 3, 74, 0
5, 1226400, Note_on_c, 3, 76, 96
5, 1226460, Note_on_c, 3, 74, 101
5, 1226499, Note_on_c, 3, 76, 0
5, 1226520, Note_on_c, 3, 72, 103
5, 1226559, Note_on_c, 3, 74, 0
5, 1226580, Note_on_c, 3, 74, 93
5, 1226619, Note_on_c, 3, 72, 0
5, 1226640, Note_on_c, 3, 76, 85
5, 1226679, Note_on_c, 3, 74, 0
5, 1226784, Note_on_c, 3, 76, 0
5, 1226880, Note_on_c, 3, 72, 90
5, 1227288, Note_on_c, 3, 72, 0
5, 1227360, Note_on_c, 3, 72, 90
5, 1227768, Note_on_c, 3, 72, 0
5, 1227840, Note_on_c, 3, 74, 90
5, 1228320, Note_on_c, 3, 74, 0
5, 1228320, Note_on_c, 3, 76, 97
5, 1228380, Note_on_c, 3, 74, 102
5, 1228419, Note_on_c, 3, 76, 0
5, 1228440, Note_on_c, 3, 72, 102
5, 1228479, Note_on_c, 3, 74, 0
5, 1228500, Note_on_c, 3, 74, 100
5, 1228539, Note_on_c, 3, 72, 0
5, 1228560, Note_on_c, 3, 76, 96
5, 1228599, Note_on_c, 3, 74, 0
5, 1228728, Note_on_c, 3, 76, 0
5, 1228800, Note_on_c, 3, 72, 90
5, 1229184, Note_on_c, 3, 72, 0
5, 1229280, Note_on_c, 3, 77, 90
5, 1229712, Note_on_c, 3, 77, 0
5, 1229760, Note_on_c, 3, 76, 90
5, 1230720, Note_on_c, 3, 74, 90
5, 1230792, Note_on_c, 3, 76, 0
5, 1231200, Note_on_c, 3, 74, 0
5, 1232160, Note_on_c, 3, 74, 90
5, 1232580, Note_on_c, 3, 74, 0
5, 1232640, Note_on_c, 3, 74, 90
5, 1233036, Note_on_c, 3, 74, 0
5, 1233120, Note_on_c, 3, 74, 90
5, 1233516, Note_on_c, 3, 74, 0
5, 1233600, Note_on_c, 3, 76, 90
5, 1234080, Note_on_c, 3, 76, 0
5, 1234080, Note_on_c, 3, 77, 90
5, 1234140, Note_on_c, 3, 76, 90
5, 1234179, Note_on_c, 3, 77, 0
5, 1234200, Note_on_c, 3, 74, 90
5, 1234239, Note_on_c, 3, 76, 0
5, 1234260, Note_on_c, 3, 76, 90
5, 1234299, Note_on_c, 3, 74, 0
5, 1234320, Note_on_c, 3, 77, 90
5, 1234359, Note_on_c, 3, 76, 0
5, 1234452, Note_on_c, 3, 77, 0
5, 1234560, Note_on_c, 3, 74, 90
5, 1234980, Note_on_c, 3, 74, 0
5, 1235040, Note_on_c, 3, 74, 90
5, 1235460, Note_on_c, 3, 74, 0
5, 1235520, Note_on_c, 3, 76, 90
5, 1236000, Note_on_c, 3, 76, 0
5, 1236000, Note_on_c, 3, 77, 90
5, 1236060, Note_on_c, 3, 76, 90
5, 1236099, Note_on_c, 3, 77, 0
5, 1236120, Note_on_c, 3, 74, 90
5, 1236159, Note_on_c, 3, 76, 0
5, 1236180, Note_on_c, 3, 76, 90
5, 1236219, Note_on_c, 3, 74, 0
5, 1236240, Note_on_c, 3, 77, 90
5, 1236279, Note_on_c, 3, 76, 0
5, 1236408, Note_on_c, 3, 77, 0
5, 1236480, Note_on_c, 3, 74, 90
5, 1236876, Note_on_c, 3, 74, 0
5, 1236960, Note_on_c, 3, 79, 90
5, 1237380, Note_on_c, 3, 79, 0
5, 1237440, Note_on_c, 3, 77, 90
5, 1238400, Note_on_c, 3, 76, 90
5, 1238460, Note_on_c, 3, 77, 0
5, 1238880, Note_on_c, 3, 76, 0
5, 1239600, Note_on_c, 3, 79, 90
5, 1239840, Note_on_c, 3, 78, 90
5, 1239910, Note_on_c, 3, 79, 0
5, 1240080, Note_on_c, 3, 79, 90
5, 1240150, Note_on_c, 3, 78, 0
5, 1240236, Note_on_c, 3, 79, 0
5, 1240320, Note_on_c, 3, 77, 90
5, 1240560, Note_on_c, 3, 76, 90
5, 1240630, Note_on_c, 3, 77, 0
5, 1240800, Note_on_c, 3, 74, 90
5, 1240870, Note_on_c, 3, 76, 0
5, 1241040, Note_on_c, 3, 72, 90
5, 1241110, Note_on_c, 3, 74, 0
5, 1241184, Note_on_c, 3, 72, 0
5, 1241280, Note_on_c, 3, 81, 90
5, 1242000, Note_on_c, 3, 77, 90
5, 1242048, Note_on_c, 3, 81, 0
5, 1242156, Note_on_c, 3, 77, 0
5, 1242240, Note_on_c, 3, 74, 90
5, 1242384, Note_on_c, 3, 74, 0
5, 1243200, Note_on_c, 3, 79, 90
5, 1243920, Note_on_c, 3, 76, 90
5, 1243980, Note_on_c, 3, 79, 0
5, 1244100, Note_on_c, 3, 76, 0
5, 1244160, Note_on_c, 3, 72, 90
5, 1244292, Note_on_c, 3, 72, 0
5, 1245120, Note_on_c, 3, 71, 90
5, 1245840, Note_on_c, 3, 74, 90
5, 1245888, Note_on_c, 3, 71, 0
5, 1246008, Note_on_c, 3, 74, 0
5, 1246080, Note_on_c, 3, 77, 90
5, 1246212, Note_on_c, 3, 77, 0
5, 1247520, Note_on_c, 3, 76, 90
5, 1247928, Note_on_c, 3, 76, 0
5, 1248000, Note_on_c, 3, 76, 90
5, 1248420, Note_on_c, 3, 76, 0
5, 1248480, Note_on_c, 3, 76, 90
5, 1248876, Note_on_c, 3, 76, 0
5, 1248960, Note_on_c, 3, 76, 90
5, 1249404, Note_on_c, 3, 76, 0
5, 1249440, Note_on_c, 3, 77, 89
5, 1249632, Note_on_c, 3, 77, 0
5, 1249680, Note_on_c, 3, 79, 91
5, 1249872, Note_on_c, 3, 79, 0
5, 1249920, Note_on_c, 3, 81, 99
5, 1250328, Note_on_c, 3, 81, 0
5, 1250400, Note_on_c, 3, 77, 99
5, 1250604, Note_on_c, 3, 77, 0
5, 1250640, Note_on_c, 3, 76, 97
5, 1250820, Note_on_c, 3, 76, 0
5, 1250880, Note_on_c, 3, 76, 87
5, 1251000, Note_on_c, 3, 74, 93
5, 1251035, Note_on_c, 3, 76, 0
5, 1251120, Note_on_c, 3, 76, 96
5, 1251155, Note_on_c, 3, 74, 0
5, 1251240, Note_on_c, 3, 74, 101
5, 1251275, Note_on_c, 3, 76, 0
5, 1251360, Note_on_c, 3, 76, 101
5, 1251395, Note_on_c, 3, 74, 0
5, 1251420, Note_on_c, 3, 74, 97
5, 1251460, Note_on_c, 3, 76, 0
5, 1251480, Note_on_c, 3, 76, 94
5, 1251520, Note_on_c, 3, 74, 0
5, 1251540, Note_on_c, 3, 74, 92
5, 1251580, Note_on_c, 3, 76, 0
5, 1251600, Note_on_c, 3, 76, 87
5, 1251640, Note_on_c, 3, 74, 0
5, 1251660, Note_on_c, 3, 74, 87
5, 1251700, Note_on_c, 3, 76, 0
5, 1251720, Note_on_c, 3, 76, 84
5, 1251760, Note_on_c, 3, 74, 0
5, 1251780, Note_on_c, 3, 74, 82
5, 1251820, Note_on_c, 3, 76, 0
5, 1251840, Note_on_c, 3, 76, 82
5, 1251880, Note_on_c, 3, 74, 0
5, 1251900, Note_on_c, 3, 74, 82
5, 1251940, Note_on_c, 3, 76, 0
5, 1251960, Note_on_c, 3, 76, 79
5, 1252000, Note_on_c, 3, 74, 0
5, 1252020, Note_on_c, 3, 74, 77
5, 1252060, Note_on_c, 3, 76, 0
5, 1252080, Note_on_c, 3, 76, 77
5, 1252120, Note_on_c, 3, 74, 0
5, 1252140, Note_on_c, 3, 74, 77
5, 1252180, Note_on_c, 3, 76, 0
5, 1252200, Note_on_c, 3, 76, 77
5, 1252240, Note_on_c, 3, 74, 0
5, 1252260, Note_on_c, 3, 74, 77
5, 1252300, Note_on_c, 3, 76, 0
5, 1252320, Note_on_c, 3, 76, 77
5, 1252360, Note_on_c, 3, 74, 0
5, 1252380, Note_on_c, 3, 74, 77
5, 1252420, Note_on_c, 3, 76, 0
5, 1252440, Note_on_c, 3, 76, 77
5, 1252480, Note_on_c, 3, 74, 0
5, 1252500, Note_on_c, 3, 74, 77
5, 1252540, Note_on_c, 3, 76, 0
5, 1252560, Note_on_c, 3, 72, 77
5, 1252600, Note_on_c, 3, 74, 0
5, 1252680, Note_on_c, 3, 74, 81
5, 1252715, Note_on_c, 3, 72, 0
5, 1252800, Note_on_c, 3, 72, 86
5, 1252835, Note_on_c, 3, 74, 0
5, 1253280, Note_on_c, 3, 72, 0
5, 1260720, Note_on_c, 3, 79, 90
5, 1260960, Note_on_c, 3, 78, 90
5, 1261008, Note_on_c, 3, 79, 0
5, 1261200, Note_on_c, 3, 79, 90
5, 1261248, Note_on_c, 3, 78, 0
5, 1261440, Note_on_c, 3, 78, 90
5, 1261488, Note_on_c, 3, 79, 0
5, 1261680, Note_on_c, 3, 79, 90
5, 1261728, Note_on_c, 3, 78, 0
5, 1261920, Note_on_c, 3, 78, 90
5, 1261968, Note_on_c, 3, 79, 0
5, 1262160, Note_on_c, 3, 79, 90
5, 1262208, Note_on_c, 3, 78, 0
5, 1262340, Note_on_c, 3, 79, 0
5, 1262400, Note_on_c, 3, 67, 90
5, 1268160, Note_on_c, 3, 67, 0
5, 1268400, Note_on_c, 3, 84, 90
5, 1268640, Note_on_c, 3, 83, 90
5, 1268688, Note_on_c, 3, 84, 0
5, 1268880, Note_on_c, 3, 84, 90
5, 1268928, Note_on_c, 3, 83, 0
5, 1269120, Note_on_c, 3, 83, 90
5, 1269168, Note_on_c, 3, 84, 0
5, 1269360, Note_on_c, 3, 84, 90
5, 1269408, Note_on_c, 3, 83, 0
5, 1269600, Note_on_c, 3, 83, 90
5, 1269648, Note_on_c, 3, 84, 0
5, 1269840, Note_on_c, 3, 84, 90
5, 1269888, Note_on_c, 3, 83, 0
5, 1270008, Note_on_c, 3, 84, 0
5, 1270080, Note_on_c, 3, 64, 90
5, 1270968, Note_on_c, 3, 64, 0
5, 1271040, Note_on_c, 3, 79, 90
5, 1271952, Note_on_c, 3, 79, 0
5, 1272000, Note_on_c, 3, 81, 90
5, 1272480, Note_on_c, 3, 81, 0
5, 1272960, Note_on_c, 3, 86, 90
5, 1273152, Note_on_c, 3, 86, 0
5, 1273200, Note_on_c, 3, 85, 90
5, 1273404, Note_on_c, 3, 85, 0
5, 1273440, Note_on_c, 3, 86, 90
5, 1273632, Note_on_c, 3, 86, 0
5, 1273680, Note_on_c, 3, 83, 90
5, 1273884, Note_on_c, 3, 83, 0
5, 1273920, Note_on_c, 3, 79, 90
5, 1274400, Note_on_c, 3, 79, 0
5, 1274880, Note_on_c, 3, 84, 90
5, 1275072, Note_on_c, 3, 84, 0
5, 1275120, Note_on_c, 3, 83, 90
5, 1275324, Note_on_c, 3, 83, 0
5, 1275360, Note_on_c, 3, 84, 90
5, 1275552, Note_on_c, 3, 84, 0
5, 1275600, Note_on_c, 3, 81, 90
5, 1275804, Note_on_c, 3, 81, 0
5, 1275840, Note_on_c, 3, 77, 90
5, 1276500, Note_on_c, 3, 77, 0
5, 1276560, Note_on_c, 3, 76, 90
5, 1276752, Note_on_c, 3, 76, 0
5, 1276800, Note_on_c, 3, 74, 90
5, 1276992, Note_on_c, 3, 74, 0
5, 1277040, Note_on_c, 3, 72, 90
5, 1277244, Note_on_c, 3, 72, 0
5, 1277280, Note_on_c, 3, 74, 90
5, 1277448, Note_on_c, 3, 74, 0
5, 1277520, Note_on_c, 3, 71, 90
5, 1277712, Note_on_c, 3, 71, 0
5, 1277760, Note_on_c, 3, 72, 90
5, 1280124, Note_on_c, 3, 72, 0
5, 1280160, Note_on_c, 3, 84, 90
5, 1280592, Note_on_c, 3, 84, 0
5, 1280640, Note_on_c, 3, 84, 90
5, 1281036, Note_on_c, 3, 84, 0
5, 1281120, Note_on_c, 3, 84, 90
5, 1281564, Note_on_c, 3, 84, 0
5, 1281600, Note_on_c, 3, 79, 90
5, 1282500, Note_on_c, 3, 79, 0
5, 1282560, Note_on_c, 3, 67, 90
5, 1283460, Note_on_c, 3, 67, 0
5, 1283520, Note_on_c, 3, 72, 90
5, 1284000, Note_on_c, 3, 72, 0
5, 1295040, Note_on_c, 3, 81, 90
5, 1295160, Note_on_c, 3, 79, 97
5, 1295184, Note_on_c, 3, 81, 0
5, 1295280, Note_on_c, 3, 81, 103
5, 1295304, Note_on_c, 3, 79, 0
5, 1295400, Note_on_c, 3, 79, 101
5, 1295424, Note_on_c, 3, 81, 0
5, 1295520, Note_on_c, 3, 81, 91
5, 1295544, Note_on_c, 3, 79, 0
5, 1295580, Note_on_c, 3, 79, 88
5, 1295620, Note_on_c, 3, 81, 0
5, 1295640, Note_on_c, 3, 81, 86
5, 1295680, Note_on_c, 3, 79, 0
5, 1295700, Note_on_c, 3, 79, 86
5, 1295740, Note_on_c, 3, 81, 0
5, 1295760, Note_on_c, 3, 81, 87
5, 1295800, Note_on_c, 3, 79, 0
5, 1295820, Note_on_c, 3, 79, 87
5, 1295860, Note_on_c, 3, 81, 0
5, 1295880, Note_on_c, 3, 81, 90
5, 1295920, Note_on_c, 3, 79, 0
5, 1295940, Note_on_c, 3, 79, 95
5, 1295980, Note_on_c, 3, 81, 0
5, 1296000, Note_on_c, 3, 81, 100
5, 1296040, Note_on_c, 3, 79, 0
5, 1296060, Note_on_c, 3, 79, 100
5, 1296100, Note_on_c, 3, 81, 0
5, 1296120, Note_on_c, 3, 81, 100
5, 1296160, Note_on_c, 3, 79, 0
5, 1296180, Note_on_c, 3, 79, 97
5, 1296220, Note_on_c, 3, 81, 0
5, 1296240, Note_on_c, 3, 81, 92
5, 1296280, Note_on_c, 3, 79, 0
5, 1296300, Note_on_c, 3, 79, 90
5, 1296340, Note_on_c, 3, 81, 0
5, 1296360, Note_on_c, 3, 81, 87
5, 1296400, Note_on_c, 3, 79, 0
5, 1296420, Note_on_c, 3, 79, 82
5, 1296460, Note_on_c, 3, 81, 0
5, 1296480, Note_on_c, 3, 81, 79
5, 1296520, Note_on_c, 3, 79, 0
5, 1296540, Note_on_c, 3, 79, 79
5, 1296580, Note_on_c, 3, 81, 0
5, 1296600, Note_on_c, 3, 81, 79
5, 1296640, Note_on_c, 3, 79, 0
5, 1296660, Note_on_c, 3, 79, 81
5, 1296700, Note_on_c, 3, 81, 0
5, 1296720, Note_on_c, 3, 81, 86
5, 1296760, Note_on_c, 3, 79, 0
5, 1296780, Note_on_c, 3, 79, 91
5, 1296820, Note_on_c, 3, 81, 0
5, 1296840, Note_on_c, 3, 81, 96
5, 1296880, Note_on_c, 3, 79, 0
5, 1296900, Note_on_c, 3, 79, 99
5, 1296940, Note_on_c, 3, 81, 0
5, 1296960, Note_on_c, 3, 81, 101
5, 1297000, Note_on_c, 3, 79, 0
5, 1297020, Note_on_c, 3, 79, 101
5, 1297060, Note_on_c, 3, 81, 0
5, 1297080, Note_on_c, 3, 81, 100
5, 1297120, Note_on_c, 3, 79, 0
5, 1297140, Note_on_c, 3, 79, 97
5, 1297180, Note_on_c, 3, 81, 0
5, 1297200, Note_on_c, 3, 81, 92
5, 1297240, Note_on_c, 3, 79, 0
5, 1297260, Note_on_c, 3, 79, 90
5, 1297300, Note_on_c, 3, 81, 0
5, 1297320, Note_on_c, 3, 81, 87
5, 1297360, Note_on_c, 3, 79, 0
5, 1297380, Note_on_c, 3, 79, 82
5, 1297420, Note_on_c, 3, 81, 0
5, 1297440, Note_on_c, 3, 81, 77
5, 1297480, Note_on_c, 3, 79, 0
5, 1297500, Note_on_c, 3, 79, 77
5, 1297540, Note_on_c, 3, 81, 0
5, 1297560, Note_on_c, 3, 81, 76
5, 1297600, Note_on_c, 3, 79, 0
5, 1297620, Note_on_c, 3, 79, 80
5, 1297660, Note_on_c, 3, 81, 0
5, 1297680, Note_on_c, 3, 81, 85
5, 1297720, Note_on_c, 3, 79, 0
5, 1297740, Note_on_c, 3, 79, 90
5, 1297780, Note_on_c, 3, 81, 0
5, 1297800, Note_on_c, 3, 81, 95
5, 1297840, Note_on_c, 3, 79, 0
5, 1297860, Note_on_c, 3, 79, 98
5, 1297900, Note_on_c, 3, 81, 0
5, 1297920, Note_on_c, 3, 81, 100
5, 1297960, Note_on_c, 3, 79, 0
5, 1297980, Note_on_c, 3, 79, 100
5, 1298020, Note_on_c, 3, 81, 0
5, 1298040, Note_on_c, 3, 81, 99
5, 1298080, Note_on_c, 3, 79, 0
5, 1298100, Note_on_c, 3, 79, 99
5, 1298140, Note_on_c, 3, 81, 0
5, 1298160, Note_on_c, 3, 81, 93
5, 1298200, Note_on_c, 3, 79, 0
5, 1298220, Note_on_c, 3, 79, 88
5, 1298260, Note_on_c, 3, 81, 0
5, 1298280, Note_on_c, 3, 81, 83
5, 1298320, Note_on_c, 3, 79, 0
5, 1298340, Note_on_c, 3, 79, 81
5, 1298380, Note_on_c, 3, 81, 0
5, 1298400, Note_on_c, 3, 81, 81
5, 1298440, Note_on_c, 3, 79, 0
5, 1298460, Note_on_c, 3, 79, 80
5, 1298500, Note_on_c, 3, 81, 0
5, 1298520, Note_on_c, 3, 81, 80
5, 1298560, Note_on_c, 3, 79, 0
5, 1298580, Note_on_c, 3, 79, 82
5, 1298620, Note_on_c, 3, 81, 0
5, 1298640, Note_on_c, 3, 78, 82
5, 1298680, Note_on_c, 3, 79, 0
5, 1298760, Note_on_c, 3, 79, 85
5, 1298784, Note_on_c, 3, 78, 0
5, 1298832, Note_on_c, 3, 79, 0
5, 1298880, Note_on_c, 3, 79, 90
5, 1299360, Note_on_c, 3, 79, 0
5, 1301760, Note_on_c, 3, 79, 104
5, 1302240, Note_on_c, 3, 77, 90
5, 1302288, Note_on_c, 3, 79, 0
5, 1302612, Note_on_c, 3, 77, 0
5, 1305600, Note_on_c, 3, 72, 109
5, 1306080, Note_on_c, 3, 71, 90
5, 1306152, Note_on_c, 3, 72, 0
5, 1306476, Note_on_c, 3, 71, 0
5, 1312800, Note_on_c, 3, 79, 90
5, 1313652, Note_on_c, 3, 79, 0
5, 1313760, Note_on_c, 3, 84, 91
5, 1313820, Note_on_c, 3, 83, 93
5, 1313860, Note_on_c, 3, 84, 0
5, 1313880, Note_on_c, 3, 84, 96
5, 1313920, Note_on_c, 3, 83, 0
5, 1313940, Note_on_c, 3, 83, 98
5, 1313980, Note_on_c, 3, 84, 0
5, 1314000, Note_on_c, 3, 81, 101
5, 1314040, Note_on_c, 3, 83, 0
5, 1314120, Note_on_c, 3, 83, 103
5, 1314156, Note_on_c, 3, 81, 0
5, 1314204, Note_on_c, 3, 83, 0
5, 1314240, Note_on_c, 3, 84, 96
5, 1322160, Note_on_c, 3, 79, 90
5, 1322208, Note_on_c, 3, 84, 0
5, 1322328, Note_on_c, 3, 79, 0
5, 1322400, Note_on_c, 3, 79, 90
5, 1323288, Note_on_c, 3, 79, 0
5, 1323360, Note_on_c, 3, 77, 90
5, 1323528, Note_on_c, 3, 77, 0
5, 1323600, Note_on_c, 3, 76, 90
5, 1323768, Note_on_c, 3, 76, 0
5, 1323840, Note_on_c, 3, 76, 90
5, 1324080, Note_on_c, 3, 74, 90
5, 1324128, Note_on_c, 3, 76, 0
5, 1324248, Note_on_c, 3, 74, 0
5, 1324320, Note_on_c, 3, 72, 90
5, 1325280, Note_on_c, 3, 71, 90
5, 1325328, Note_on_c, 3, 72, 0
5, 1325700, Note_on_c, 3, 71, 0
5, 1325760, Note_on_c, 3, 72, 90
5, 1326240, Note_on_c, 3, 72, 0
5, 1330080, Note_on_c, 3, 72, 105
5, 1330176, Note_on_c, 3, 72, 0
5, 1330320, Note_on_c, 3, 72, 104
5, 1330416, Note_on_c, 3, 72, 0
5, 1330560, Note_on_c, 3, 71, 105
5, 1330800, Note_on_c, 3, 74, 90
5, 1330860, Note_on_c, 3, 71, 0
5, 1330968, Note_on_c, 3, 74, 0
5, 1331040, Note_on_c, 3, 77, 105
5, 1331136, Note_on_c, 3, 77, 0
5, 1331280, Note_on_c, 3, 77, 105
5, 1331376, Note_on_c, 3, 77, 0
5, 1331520, Note_on_c, 3, 72, 105
5, 1331760, Note_on_c, 3, 76, 90
5, 1331832, Note_on_c, 3, 72, 0
5, 1331928, Note_on_c, 3, 76, 0
5, 1332000, Note_on_c, 3, 79, 102
5, 1332096, Note_on_c, 3, 79, 0
5, 1332240, Note_on_c, 3, 79, 102
5, 1332336, Note_on_c, 3, 79, 0
5, 1332480, Note_on_c, 3, 74, 104
5, 1332720, Note_on_c, 3, 79, 90
5, 1332804, Note_on_c, 3, 74, 0
5, 1332888, Note_on_c, 3, 79, 0
5, 1332960, Note_on_c, 3, 83, 103
5, 1333056, Note_on_c, 3, 83, 0
5, 1333200, Note_on_c, 3, 83, 106
5, 1333296, Note_on_c, 3, 83, 0
5, 1333440, Note_on_c, 3, 84, 106
5, 1333812, Note_on_c, 3, 84, 0
5, 1333920, Note_on_c, 3, 72, 99
5, 1334016, Note_on_c, 3, 72, 0
5, 1334160, Note_on_c, 3, 72, 99
5, 1334256, Note_on_c, 3, 72, 0
5, 1334400, Note_on_c, 3, 71, 101
5, 1334640, Note_on_c, 3, 74, 90
5, 1334724, Note_on_c, 3, 71, 0
5, 1334832, Note_on_c, 3, 74, 0
5, 1334880, Note_on_c, 3, 77, 90
5, 1334976, Note_on_c, 3, 77, 0
5, 1335120, Note_on_c, 3, 77, 99
5, 1335216, Note_on_c, 3, 77, 0
5, 1335360, Note_on_c, 3, 72, 101
5, 1335600, Note_on_c, 3, 76, 90
5, 1335660, Note_on_c, 3, 72, 0
5, 1335780, Note_on_c, 3, 76, 0
5, 1335840, Note_on_c, 3, 79, 99
5, 1335936, Note_on_c, 3, 79, 0
5, 1336080, Note_on_c, 3, 79, 101
5, 1336176, Note_on_c, 3, 79, 0
5, 1336320, Note_on_c, 3, 74, 103
5, 1336560, Note_on_c, 3, 79, 90
5, 1336632, Note_on_c, 3, 74, 0
5, 1336752, Note_on_c, 3, 79, 0
5, 1336800, Note_on_c, 3, 83, 100
5, 1336896, Note_on_c, 3, 83, 0
5, 1337040, Note_on_c, 3, 83, 100
5, 1337136, Note_on_c, 3, 83, 0
5, 1337280, Note_on_c, 3, 84, 100
5, 1337760, Note_on_c, 3, 84, 0
5, 1356480, Note_on_c, 3, 72, 90
5, 1356912, Note_on_c, 3, 72, 0
5, 1356960, Note_on_c, 3, 84, 90
5, 1357824, Note_on_c, 3, 84, 0
5, 1357920, Note_on_c, 3, 83, 90
5, 1358124, Note_on_c, 3, 83, 0
5, 1358160, Note_on_c, 3, 81, 90
5, 1358352, Note_on_c, 3, 81, 0
5, 1358400, Note_on_c, 3, 81, 90
5, 1358616, Note_on_c, 3, 81, 0
5, 1358640, Note_on_c, 3, 79, 90
5, 1358820, Note_on_c, 3, 79, 0
5, 1358880, Note_on_c, 3, 77, 90
5, 1359084, Note_on_c, 3, 77, 0
5, 1359120, Note_on_c, 3, 76, 90
5, 1359312, Note_on_c, 3, 76, 0
5, 1359360, Note_on_c, 3, 76, 90
5, 1359576, Note_on_c, 3, 76, 0
5, 1359600, Note_on_c, 3, 74, 90
5, 1359792, Note_on_c, 3, 74, 0
5, 1359840, Note_on_c, 3, 72, 90
5, 1360020, Note_on_c, 3, 72, 0
5, 1360080, Note_on_c, 3, 71, 90
5, 1360260, Note_on_c, 3, 71, 0
5, 1360320, Note_on_c, 3, 72, 90
5, 1360764, Note_on_c, 3, 72, 0
5, 1360800, Note_on_c, 3, 84, 90
5, 1361724, Note_on_c, 3, 84, 0
5, 1361760, Note_on_c, 3, 83, 90
5, 1361964, Note_on_c, 3, 83, 0
5, 1362000, Note_on_c, 3, 81, 90
5, 1362204, Note_on_c, 3, 81, 0
5, 1362240, Note_on_c, 3, 81, 90
5, 1362444, Note_on_c, 3, 81, 0
5, 1362480, Note_on_c, 3, 79, 90
5, 1362684, Note_on_c, 3, 79, 0
5, 1362720, Note_on_c, 3, 77, 90
5, 1362900, Note_on_c, 3, 77, 0
5, 1362960, Note_on_c, 3, 76, 90
5, 1363164, Note_on_c, 3, 76, 0
5, 1363200, Note_on_c, 3, 76, 90
5, 1363404, Note_on_c, 3, 76, 0
5, 1363440, Note_on_c, 3, 74, 90
5, 1363620, Note_on_c, 3, 74, 0
5, 1363680, Note_on_c, 3, 72, 90
5, 1363860, Note_on_c, 3, 72, 0
5, 1363920, Note_on_c, 3, 71, 90
5, 1364124, Note_on_c, 3, 71, 0
5, 1364160, Note_on_c, 3, 72, 90
5, 1364640, Note_on_c, 3, 72, 0
5, 1371840, Note_on_c, 3, 84, 90
5, 1373896, Control_c, 3, 7, 89
5, 1374212, Control_c, 3, 7, 87
5, 1374228, Control_c, 3, 7, 84
5, 1374240, Note_on_c, 3, 84, 0
5, 1374256, Control_c, 3, 7, 82
5, 1374276, Control_c, 3, 7, 79
5, 1374304, Control_c, 3, 7, 77
5, 1374316, Control_c, 3, 7, 72
5, 1374332, Control_c, 3, 7, 69
5, 1374344, Control_c, 3, 7, 64
5, 1374360, Control_c, 3, 7, 59
5, 1374376, Control_c, 3, 7, 49
5, 1374388, Control_c, 3, 7, 38
5, 1374404, Control_c, 3, 7, 17
5, 1374416, Control_c, 3, 7, 0
5, 1374492, Control_c, 3, 7, 89
5, 1374504, Note_on_c, 3, 84, 90
5, 1374650, Note_on_c, 3, 84, 0
5, 1374720, Note_on_c, 3, 84, 90
5, 1374840, Note_on_c, 3, 83, 90
5, 1374866, Note_on_c, 3, 84, 0
5, 1374960, Note_on_c, 3, 84, 90
5, 1374986, Note_on_c, 3, 83, 0
5, 1375020, Note_on_c, 3, 83, 90
5, 1375060, Note_on_c, 3, 84, 0
5, 1375080, Note_on_c, 3, 84, 90
5, 1375120, Note_on_c, 3, 83, 0
5, 1375140, Note_on_c, 3, 83, 90
5, 1375180, Note_on_c, 3, 84, 0
5, 1375200, Note_on_c, 3, 84, 90
5, 1375240, Note_on_c, 3, 83, 0
5, 1375260, Note_on_c, 3, 83, 90
5, 1375300, Note_on_c, 3, 84, 0
5, 1375320, Note_on_c, 3, 84, 90
5, 1375360, Note_on_c, 3, 83, 0
5, 1375380, Note_on_c, 3, 83, 90
5, 1375420, Note_on_c, 3, 84, 0
5, 1375440, Note_on_c, 3, 81, 90
5, 1375480, Note_on_c, 3, 83, 0
5, 1375560, Note_on_c, 3, 83, 90
5, 1375586, Note_on_c, 3, 81, 0
5, 1375680, Note_on_c, 3, 83, 0
5, 1375680, Note_on_c, 3, 84, 90
5, 1376160, Note_on_c, 3, 84, 0
5, 1389120, Note_on_c, 3, 72, 90
5, 1390020, Note_on_c, 3, 72, 0
5, 1390080, Note_on_c, 3, 71, 90
5, 1390920, Note_on_c, 3, 71, 0
5, 1391040, Note_on_c, 3, 72, 90
5, 1391448, Note_on_c, 3, 72, 0
5, 1391520, Note_on_c, 3, 67, 90
5, 1391712, Note_on_c, 3, 67, 0
5, 1391760, Note_on_c, 3, 64, 90
5, 1391964, Note_on_c, 3, 64, 0
5, 1392000, Note_on_c, 3, 60, 90
5, 1392480, Note_on_c, 3, 60, 0
5, 1392960, Note_on_c, 3, 72, 90
5, 1393152, Note_on_c, 3, 72, 0
5, 1393200, Note_on_c, 3, 71, 90
5, 1393404, Note_on_c, 3, 71, 0
5, 1393440, Note_on_c, 3, 72, 90
5, 1393644, Note_on_c, 3, 72, 0
5, 1393680, Note_on_c, 3, 71, 90
5, 1393872, Note_on_c, 3, 71, 0
5, 1393920, Note_on_c, 3, 72, 90
5, 1394400, Note_on_c, 3, 72, 0
5, 1394880, Note_on_c, 3, 84, 90
5, 1395096, Note_on_c, 3, 84, 0
5, 1395120, Note_on_c, 3, 83, 90
5, 1395324, Note_on_c, 3, 83, 0
5, 1395360, Note_on_c, 3, 84, 90
5, 1395564, Note_on_c, 3, 84, 0
5, 1395600, Note_on_c, 3, 83, 90
5, 1395804, Note_on_c, 3, 83, 0
5, 1395840, Note_on_c, 3, 84, 90
5, 1396320, Note_on_c, 3, 84, 0
5, 1396800, Note_on_c, 3, 79, 90
5, 1399644, Note_on_c, 3, 79, 0
5, 1399680, Note_on_c, 3, 71, 90
5, 1400604, Note_on_c, 3, 71, 0
5, 1400640, Note_on_c, 3, 72, 90
5, 1401072, Note_on_c, 3, 72, 0
5, 1401120, Note_on_c, 3, 76, 90
5, 1401540, Note_on_c, 3, 76, 0
5, 1401600, Note_on_c, 3, 77, 90
5, 1401828, Note_on_c, 3, 77, 0
5, 1401840, Note_on_c, 3, 76, 90
5, 1402068, Note_on_c, 3, 76, 0
5, 1402080, Note_on_c, 3, 74, 90
5, 1402272, Note_on_c, 3, 74, 0
5, 1402320, Note_on_c, 3, 72, 90
5, 1402512, Note_on_c, 3, 72, 0
5, 1402560, Note_on_c, 3, 72, 90
5, 1403040, Note_on_c, 3, 71, 90
5, 1403100, Note_on_c, 3, 72, 0
5, 1403424, Note_on_c, 3, 71, 0
5, 1403520, Note_on_c, 3, 76, 90
5, 1403940, Note_on_c, 3, 76, 0
5, 1404000, Note_on_c, 3, 76, 90
5, 1404396, Note_on_c, 3, 76, 0
5, 1404480, Note_on_c, 3, 76, 90
5, 1405404, Note_on_c, 3, 76, 0
5, 1405440, Note_on_c, 3, 79, 90
5, 1405656, Note_on_c, 3, 79, 0
5, 1405680, Note_on_c, 3, 77, 90
5, 1405896, Note_on_c, 3, 77, 0
5, 1405920, Note_on_c, 3, 76, 90
5, 1406136, Note_on_c, 3, 76, 0
5, 1406160, Note_on_c, 3, 77, 90
5, 1406376, Note_on_c, 3, 77, 0
5, 1406400, Note_on_c, 3, 79, 90
5, 1406616, Note_on_c, 3, 79, 0
5, 1406640, Note_on_c, 3, 76, 90
5, 1406856, Note_on_c, 3, 76, 0
5, 1406880, Note_on_c, 3, 72, 90
5, 1407360, Note_on_c, 3, 72, 0
5, 1407360, Note_on_c, 3, 84, 90
5, 1407996, Note_on_c, 3, 84, 0
5, 1408080, Note_on_c, 3, 83, 90
5, 1408296, Note_on_c, 3, 83, 0
5, 1408320, Note_on_c, 3, 83, 90
5, 1408536, Note_on_c, 3, 83, 0
5, 1408560, Note_on_c, 3, 81, 90
5, 1408776, Note_on_c, 3, 81, 0
5, 1408800, Note_on_c, 3, 79, 90
5, 1409244, Note_on_c, 3, 79, 0
5, 1409280, Note_on_c, 3, 84, 90
5, 1409928, Note_on_c, 3, 84, 0
5, 1410000, Note_on_c, 3, 83, 90
5, 1410216, Note_on_c, 3, 83, 0
5, 1410240, Note_on_c, 3, 83, 90
5, 1410456, Note_on_c, 3, 83, 0
5, 1410480, Note_on_c, 3, 81, 90
5, 1410696, Note_on_c, 3, 81, 0
5, 1410720, Note_on_c, 3, 79, 90
5, 1411164, Note_on_c, 3, 79, 0
5, 1411200, Note_on_c, 3, 72, 90
5, 1411644, Note_on_c, 3, 72, 0
5, 1411680, Note_on_c, 3, 72, 90
5, 1412112, Note_on_c, 3, 72, 0
5, 1412160, Note_on_c, 3, 72, 90
5, 1413060, Note_on_c, 3, 72, 0
5, 1413132, Note_on_c, 3, 76, 90
5, 1413312, Note_on_c, 3, 76, 0
5, 1413360, Note_on_c, 3, 74, 90
5, 1413576, Note_on_c, 3, 74, 0
5, 1413600, Note_on_c, 3, 72, 90
5, 1413816, Note_on_c, 3, 72, 0
5, 1413840, Note_on_c, 3, 74, 90
5, 1414056, Note_on_c, 3, 74, 0
5, 1414080, Note_on_c, 3, 76, 90
5, 1414512, Note_on_c, 3, 76, 0
5, 1414560, Note_on_c, 3, 76, 90
5, 1414992, Note_on_c, 3, 76, 0
5, 1415040, Note_on_c, 3, 79, 90
5, 1415256, Note_on_c, 3, 79, 0
5, 1415280, Note_on_c, 3, 77, 90
5, 1415496, Note_on_c, 3, 77, 0
5, 1415520, Note_on_c, 3, 76, 90
5, 1415736, Note_on_c, 3, 76, 0
5, 1415760, Note_on_c, 3, 77, 90
5, 1415976, Note_on_c, 3, 77, 0
5, 1416000, Note_on_c, 3, 79, 90
5, 1416216, Note_on_c, 3, 79, 0
5, 1416240, Note_on_c, 3, 76, 90
5, 1416456, Note_on_c, 3, 76, 0
5, 1416480, Note_on_c, 3, 79, 90
5, 1416696, Note_on_c, 3, 79, 0
5, 1416720, Note_on_c, 3, 76, 90
5, 1416936, Note_on_c, 3, 76, 0
5, 1416960, Note_on_c, 3, 79, 90
5, 1417200, Note_on_c, 3, 77, 90
5, 1417260, Note_on_c, 3, 79, 0
5, 1417380, Note_on_c, 3, 77, 0
5, 1417440, Note_on_c, 3, 76, 100
5, 1417548, Note_on_c, 3, 76, 0
5, 1417680, Note_on_c, 3, 74, 100
5, 1417764, Note_on_c, 3, 74, 0
5, 1417920, Note_on_c, 3, 72, 100
5, 1418400, Note_on_c, 3, 72, 0
5, 1421760, Note_on_c, 3, 81, 90
5, 1421880, Note_on_c, 3, 79, 87
5, 1421910, Note_on_c, 3, 81, 0
5, 1422000, Note_on_c, 3, 81, 90
5, 1422030, Note_on_c, 3, 79, 0
5, 1422120, Note_on_c, 3, 79, 93
5, 1422150, Note_on_c, 3, 81, 0
5, 1422240, Note_on_c, 3, 81, 95
5, 1422270, Note_on_c, 3, 79, 0
5, 1422300, Note_on_c, 3, 79, 98
5, 1422341, Note_on_c, 3, 81, 0
5, 1422360, Note_on_c, 3, 81, 101
5, 1422401, Note_on_c, 3, 79, 0
5, 1422420, Note_on_c, 3, 79, 101
5, 1422461, Note_on_c, 3, 81, 0
5, 1422480, Note_on_c, 3, 81, 101
5, 1422521, Note_on_c, 3, 79, 0
5, 1422540, Note_on_c, 3, 79, 101
5, 1422581, Note_on_c, 3, 81, 0
5, 1422600, Note_on_c, 3, 81, 103
5, 1422641, Note_on_c, 3, 79, 0
5, 1422660, Note_on_c, 3, 79, 103
5, 1422701, Note_on_c, 3, 81, 0
5, 1422720, Note_on_c, 3, 81, 103
5, 1422761, Note_on_c, 3, 79, 0
5, 1422780, Note_on_c, 3, 79, 103
5, 1422821, Note_on_c, 3, 81, 0
5, 1422840, Note_on_c, 3, 81, 103
5, 1422881, Note_on_c, 3, 79, 0
5, 1422900, Note_on_c, 3, 79, 102
5, 1422941, Note_on_c, 3, 81, 0
5, 1422960, Note_on_c, 3, 81, 97
5, 1423001, Note_on_c, 3, 79, 0
5, 1423020, Note_on_c, 3, 79, 94
5, 1423061, Note_on_c, 3, 81, 0
5, 1423080, Note_on_c, 3, 81, 91
5, 1423121, Note_on_c, 3, 79, 0
5, 1423140, Note_on_c, 3, 79, 89
5, 1423181, Note_on_c, 3, 81, 0
5, 1423200, Note_on_c, 3, 81, 86
5, 1423241, Note_on_c, 3, 79, 0
5, 1423260, Note_on_c, 3, 79, 84
5, 1423301, Note_on_c, 3, 81, 0
5, 1423320, Note_on_c, 3, 81, 84
5, 1423361, Note_on_c, 3, 79, 0
5, 1423380, Note_on_c, 3, 79, 84
5, 1423421, Note_on_c, 3, 81, 0
5, 1423440, Note_on_c, 3, 81, 81
5, 1423481, Note_on_c, 3, 79, 0
5, 1423500, Note_on_c, 3, 79, 81
5, 1423541, Note_on_c, 3, 81, 0
5, 1423560, Note_on_c, 3, 81, 79
5, 1423601, Note_on_c, 3, 79, 0
5, 1423620, Note_on_c, 3, 79, 79
5, 1423661, Note_on_c, 3, 81, 0
5, 1423680, Note_on_c, 3, 81, 79
5, 1423721, Note_on_c, 3, 79, 0
5, 1423740, Note_on_c, 3, 79, 80
5, 1423781, Note_on_c, 3, 81, 0
5, 1423800, Note_on_c, 3, 81, 80
5, 1423841, Note_on_c, 3, 79, 0
5, 1423860, Note_on_c, 3, 79, 83
5, 1423901, Note_on_c, 3, 81, 0
5, 1423920, Note_on_c, 3, 81, 83
5, 1423961, Note_on_c, 3, 79, 0
5, 1423980, Note_on_c, 3, 79, 83
5, 1424021, Note_on_c, 3, 81, 0
5, 1424040, Note_on_c, 3, 81, 85
5, 1424081, Note_on_c, 3, 79, 0
5, 1424100, Note_on_c, 3, 79, 85
5, 1424141, Note_on_c, 3, 81, 0
5, 1424160, Note_on_c, 3, 81, 88
5, 1424201, Note_on_c, 3, 79, 0
5, 1424220, Note_on_c, 3, 79, 88
5, 1424261, Note_on_c, 3, 81, 0
5, 1424280, Note_on_c, 3, 81, 90
5, 1424321, Note_on_c, 3, 79, 0
5, 1424340, Note_on_c, 3, 79, 93
5, 1424381, Note_on_c, 3, 81, 0
5, 1424400, Note_on_c, 3, 81, 96
5, 1424441, Note_on_c, 3, 79, 0
5, 1424460, Note_on_c, 3, 79, 96
5, 1424501, Note_on_c, 3, 81, 0
5, 1424520, Note_on_c, 3, 81, 96
5, 1424561, Note_on_c, 3, 79, 0
5, 1424580, Note_on_c, 3, 79, 96
5, 1424621, Note_on_c, 3, 81, 0
5, 1424640, Note_on_c, 3, 81, 96
5, 1424681, Note_on_c, 3, 79, 0
5, 1424700, Note_on_c, 3, 79, 96
5, 1424741, Note_on_c, 3, 81, 0
5, 1424760, Note_on_c, 3, 81, 96
5, 1424801, Note_on_c, 3, 79, 0
5, 1424820, Note_on_c, 3, 79, 94
5, 1424861, Note_on_c, 3, 81, 0
5, 1424880, Note_on_c, 3, 81, 94
5, 1424921, Note_on_c, 3, 79, 0
5, 1424940, Note_on_c, 3, 79, 91
5, 1424981, Note_on_c, 3, 81, 0
5, 1425000, Note_on_c, 3, 81, 89
5, 1425041, Note_on_c, 3, 79, 0
5, 1425060, Note_on_c, 3, 79, 86
5, 1425101, Note_on_c, 3, 81, 0
5, 1425120, Note_on_c, 3, 81, 86
5, 1425161, Note_on_c, 3, 79, 0
5, 1425180, Note_on_c, 3, 79, 86
5, 1425221, Note_on_c, 3, 81, 0
5, 1425240, Note_on_c, 3, 81, 86
5, 1425281, Note_on_c, 3, 79, 0
5, 1425300, Note_on_c, 3, 79, 86
5, 1425341, Note_on_c, 3, 81, 0
5, 1425360, Note_on_c, 3, 81, 86
5, 1425401, Note_on_c, 3, 79, 0
5, 1425420, Note_on_c, 3, 79, 86
5, 1425461, Note_on_c, 3, 81, 0
5, 1425480, Note_on_c, 3, 81, 86
5, 1425521, Note_on_c, 3, 79, 0
5, 1425540, Note_on_c, 3, 79, 88
5, 1425581, Note_on_c, 3, 81, 0
5, 1425600, Note_on_c, 3, 81, 88
5, 1425641, Note_on_c, 3, 79, 0
5, 1425660, Note_on_c, 3, 79, 90
5, 1425701, Note_on_c, 3, 81, 0
5, 1425720, Note_on_c, 3, 81, 93
5, 1425761, Note_on_c, 3, 79, 0
5, 1425780, Note_on_c, 3, 79, 93
5, 1425821, Note_on_c, 3, 81, 0
5, 1425840, Note_on_c, 3, 81, 96
5, 1425881, Note_on_c, 3, 79, 0
5, 1425900, Note_on_c, 3, 79, 96
5, 1425941, Note_on_c, 3, 81, 0
5, 1425960, Note_on_c, 3, 81, 96
5, 1426001, Note_on_c, 3, 79, 0
5, 1426020, Note_on_c, 3, 79, 98
5, 1426061, Note_on_c, 3, 81, 0
5, 1426080, Note_on_c, 3, 81, 98
5, 1426121, Note_on_c, 3, 79, 0
5, 1426140, Note_on_c, 3, 79, 98
5, 1426181, Note_on_c, 3, 81, 0
5, 1426200, Note_on_c, 3, 81, 101
5, 1426241, Note_on_c, 3, 79, 0
5, 1426260, Note_on_c, 3, 79, 103
5, 1426301, Note_on_c, 3, 81, 0
5, 1426320, Note_on_c, 3, 81, 103
5, 1426361, Note_on_c, 3, 79, 0
5, 1426380, Note_on_c, 3, 79, 103
5, 1426421, Note_on_c, 3, 81, 0
5, 1426440, Note_on_c, 3, 81, 103
5, 1426481, Note_on_c, 3, 79, 0
5, 1426500, Note_on_c, 3, 79, 103
5, 1426541, Note_on_c, 3, 81, 0
5, 1426560, Note_on_c, 3, 81, 103
5, 1426601, Note_on_c, 3, 79, 0
5, 1426620, Note_on_c, 3, 79, 103
5, 1426661, Note_on_c, 3, 81, 0
5, 1426680, Note_on_c, 3, 81, 102
5, 1426721, Note_on_c, 3, 79, 0
5, 1426740, Note_on_c, 3, 79, 102
5, 1426781, Note_on_c, 3, 81, 0
5, 1426800, Note_on_c, 3, 81, 99
5, 1426841, Note_on_c, 3, 79, 0
5, 1426860, Note_on_c, 3, 79, 99
5, 1426901, Note_on_c, 3, 81, 0
5, 1426920, Note_on_c, 3, 81, 99
5, 1426961, Note_on_c, 3, 79, 0
5, 1426980, Note_on_c, 3, 79, 99
5, 1427021, Note_on_c, 3, 81, 0
5, 1427040, Note_on_c, 3, 81, 99
5, 1427081, Note_on_c, 3, 79, 0
5, 1427100, Note_on_c, 3, 79, 99
5, 1427141, Note_on_c, 3, 81, 0
5, 1427160, Note_on_c, 3, 81, 99
5, 1427201, Note_on_c, 3, 79, 0
5, 1427220, Note_on_c, 3, 79, 103
5, 1427261, Note_on_c, 3, 81, 0
5, 1427280, Note_on_c, 3, 78, 103
5, 1427321, Note_on_c, 3, 79, 0
5, 1427400, Note_on_c, 3, 79, 106
5, 1427424, Note_on_c, 3, 78, 0
5, 1427484, Note_on_c, 3, 79, 0
5, 1427520, Note_on_c, 3, 79, 108
5, 1428144, Note_on_c, 3, 79, 0
5, 1428240, Note_on_c, 3, 76, 110
5, 1428480, Note_on_c, 3, 84, 117
5, 1428576, Note_on_c, 3, 76, 0
5, 1428960, Note_on_c, 3, 84, 0
5, 1428960, End_track
6, 0, Start_track
6, 0, MIDI_port, 0
6, 0, Title_t, "Harp"
6, 0, Control_c, 4, 0, 0
6, 0, Control_c, 4, 32, 1
6, 0, Program_c, 4, 46
6, 0, Control_c, 4, 7, 110
6, 0, Control_c, 4, 10, 70
6, 1805, Note_on_c, 4, 60, 105
6, 1830, Note_on_c, 4, 64, 105
6, 1860, Note_on_c, 4, 67, 105
6, 1865, Note_on_c, 4, 60, 0
6, 1890, Note_on_c, 4, 64, 0
6, 1920, Note_on_c, 4, 67, 0
6, 1920, Note_on_c, 4, 72, 105
6, 1920, Note_on_c, 4, 48, 105
6, 2640, Note_on_c, 4, 48, 0
6, 2640, Note_on_c, 4, 72, 0
6, 2640, Note_on_c, 4, 67, 105
6, 2640, Note_on_c, 4, 43, 105
6, 2880, Note_on_c, 4, 43, 0
6, 2880, Note_on_c, 4, 67, 0
6, 2880, Note_on_c, 4, 64, 105
6, 2880, Note_on_c, 4, 40, 105
6, 3120, Note_on_c, 4, 40, 0
6, 3120, Note_on_c, 4, 64, 0
6, 3120, Note_on_c, 4, 60, 105
6, 3120, Note_on_c, 4, 36, 105
6, 3360, Note_on_c, 4, 36, 0
6, 3360, Note_on_c, 4, 60, 0
6, 3360, Note_on_c, 4, 64, 105
6, 3360, Note_on_c, 4, 40, 105
6, 3600, Note_on_c, 4, 40, 0
6, 3600, Note_on_c, 4, 64, 0
6, 3600, Note_on_c, 4, 67, 105
6, 3600, Note_on_c, 4, 43, 105
6, 3840, Note_on_c, 4, 43, 0
6, 3840, Note_on_c, 4, 67, 0
6, 3840, Note_on_c, 4, 72, 105
6, 3840, Note_on_c, 4, 48, 105
6, 4560, Note_on_c, 4, 48, 0
6, 4560, Note_on_c, 4, 72, 0
6, 4560, Note_on_c, 4, 67, 105
6, 4560, Note_on_c, 4, 43, 105
6, 4800, Note_on_c, 4, 43, 0
6, 4800, Note_on_c, 4, 67, 0
6, 4800, Note_on_c, 4, 64, 105
6, 4800, Note_on_c, 4, 40, 105
6, 5040, Note_on_c, 4, 40, 0
6, 5040, Note_on_c, 4, 64, 0
6, 5040, Note_on_c, 4, 60, 105
6, 5040, Note_on_c, 4, 36, 105
6, 5280, Note_on_c, 4, 36, 0
6, 5280, Note_on_c, 4, 60, 0
6, 5280, Note_on_c, 4, 64, 105
6, 5280, Note_on_c, 4, 40, 105
6, 5520, Note_on_c, 4, 40, 0
6, 5520, Note_on_c, 4, 64, 0
6, 5520, Note_on_c, 4, 67, 105
6, 5520, Note_on_c, 4, 43, 105
6, 5760, Note_on_c, 4, 43, 0
6, 5760, Note_on_c, 4, 67, 0
6, 5760, Note_on_c, 4, 72, 105
6, 5760, Note_on_c, 4, 48, 105
6, 6240, Note_on_c, 4, 48, 0
6, 6240, Note_on_c, 4, 72, 0
6, 84300, Note_on_c, 4, 72, 105
6, 84300, Note_on_c, 4, 48, 105
6, 84360, Note_on_c, 4, 48, 0
6, 84360, Note_on_c, 4, 72, 0
6, 84360, Note_on_c, 4, 76, 105
6, 84360, Note_on_c, 4, 52, 105
6, 84420, Note_on_c, 4, 52, 0
6, 84420, Note_on_c, 4, 76, 0
6, 84420, Note_on_c, 4, 79, 105
6, 84420, Note_on_c, 4, 55, 105
6, 84480, Note_on_c, 4, 55, 0
6, 84480, Note_on_c, 4, 79, 0
6, 84480, Note_on_c, 4, 84, 105
6, 84480, Note_on_c, 4, 60, 105
6, 85200, Note_on_c, 4, 60, 0
6, 85200, Note_on_c, 4, 84, 0
6, 85200, Note_on_c, 4, 79, 105
6, 85200, Note_on_c, 4, 55, 105
6, 85440, Note_on_c, 4, 55, 0
6, 85440, Note_on_c, 4, 79, 0
6, 85440, Note_on_c, 4, 76, 105
6, 85440, Note_on_c, 4, 52, 105
6, 85680, Note_on_c, 4, 52, 0
6, 85680, Note_on_c, 4, 76, 0
6, 85680, Note_on_c, 4, 72, 105
6, 85680, Note_on_c, 4, 48, 105
6, 85920, Note_on_c, 4, 48, 0
6, 85920, Note_on_c, 4, 72, 0
6, 85920, Note_on_c, 4, 76, 105
6, 85920, Note_on_c, 4, 52, 105
6, 86160, Note_on_c, 4, 52, 0
6, 86160, Note_on_c, 4, 76, 0
6, 86160, Note_on_c, 4, 79, 105
6, 86160, Note_on_c, 4, 55, 105
6, 86400, Note_on_c, 4, 55, 0
6, 86400, Note_on_c, 4, 79, 0
6, 86400, Note_on_c, 4, 84, 105
6, 86400, Note_on_c, 4, 60, 105
6, 87120, Note_on_c, 4, 60, 0
6, 87120, Note_on_c, 4, 84, 0
6, 87120, Note_on_c, 4, 79, 105
6, 87120, Note_on_c, 4, 55, 105
6, 87360, Note_on_c, 4, 55, 0
6, 87360, Note_on_c, 4, 79, 0
6, 87360, Note_on_c, 4, 76, 105
6, 87360, Note_on_c, 4, 52, 105
6, 87600, Note_on_c, 4, 52, 0
6, 87600, Note_on_c, 4, 76, 0
6, 87600, Note_on_c, 4, 72, 105
6, 87600, Note_on_c, 4, 48, 105
6, 87840, Note_on_c, 4, 48, 0
6, 87840, Note_on_c, 4, 72, 0
6, 87840, Note_on_c, 4, 76, 105
6, 87840, Note_on_c, 4, 52, 105
6, 88080, Note_on_c, 4, 52, 0
6, 88080, Note_on_c, 4, 76, 0
6, 88080, Note_on_c, 4, 79, 105
6, 88080, Note_on_c, 4, 55, 105
6, 88320, Note_on_c, 4, 55, 0
6, 88320, Note_on_c, 4, 79, 0
6, 88320, Note_on_c, 4, 84, 105
6, 88320, Note_on_c, 4, 60, 105
6, 88800, Note_on_c, 4, 60, 0
6, 88800, Note_on_c, 4, 84, 0
6, 88800, Note_on_c, 4, 48, 70
6, 88920, Note_on_c, 4, 60, 70
6, 89040, Note_on_c, 4, 60, 0
6, 89040, Note_on_c, 4, 72, 70
6, 89160, Note_on_c, 4, 72, 0
6, 89160, Note_on_c, 4, 60, 70
6, 89280, Note_on_c, 4, 60, 0
6, 89280, Note_on_c, 4, 48, 0
6, 89280, Note_on_c, 4, 47, 70
6, 89400, Note_on_c, 4, 59, 70
6, 89520, Note_on_c, 4, 59, 0
6, 89520, Note_on_c, 4, 71, 70
6, 89640, Note_on_c, 4, 71, 0
6, 89640, Note_on_c, 4, 59, 70
6, 89760, Note_on_c, 4, 59, 0
6, 89760, Note_on_c, 4, 47, 0
6, 89760, Note_on_c, 4, 48, 70
6, 89880, Note_on_c, 4, 60, 70
6, 90000, Note_on_c, 4, 60, 0
6, 90000, Note_on_c, 4, 72, 70
6, 90120, Note_on_c, 4, 72, 0
6, 90120, Note_on_c, 4, 60, 70
6, 90240, Note_on_c, 4, 60, 0
6, 90240, Note_on_c, 4, 48, 0
6, 90240, Note_on_c, 4, 38, 105
6, 90240, Note_on_c, 4, 50, 105
6, 90360, Note_on_c, 4, 62, 105
6, 90480, Note_on_c, 4, 62, 0
6, 90480, Note_on_c, 4, 74, 105
6, 90600, Note_on_c, 4, 74, 0
6, 90600, Note_on_c, 4, 62, 105
6, 90720, Note_on_c, 4, 62, 0
6, 90720, Note_on_c, 4, 50, 0
6, 90720, Note_on_c, 4, 38, 0
6, 90720, Note_on_c, 4, 50, 70
6, 90840, Note_on_c, 4, 62, 70
6, 90960, Note_on_c, 4, 62, 0
6, 90960, Note_on_c, 4, 74, 70
6, 91080, Note_on_c, 4, 74, 0
6, 91080, Note_on_c, 4, 62, 70
6, 91200, Note_on_c, 4, 62, 0
6, 91200, Note_on_c, 4, 50, 0
6, 91200, Note_on_c, 4, 49, 70
6, 91320, Note_on_c, 4, 61, 70
6, 91440, Note_on_c, 4, 61, 0
6, 91440, Note_on_c, 4, 73, 70
6, 91560, Note_on_c, 4, 73, 0
6, 91560, Note_on_c, 4, 61, 70
6, 91680, Note_on_c, 4, 61, 0
6, 91680, Note_on_c, 4, 49, 0
6, 91680, Note_on_c, 4, 50, 70
6, 91800, Note_on_c, 4, 62, 70
6, 91920, Note_on_c, 4, 62, 0
6, 91920, Note_on_c, 4, 74, 70
6, 92040, Note_on_c, 4, 74, 0
6, 92040, Note_on_c, 4, 62, 70
6, 92160, Note_on_c, 4, 62, 0
6, 92160, Note_on_c, 4, 50, 0
6, 92160, Note_on_c, 4, 40, 105
6, 92160, Note_on_c, 4, 52, 105
6, 92280, Note_on_c, 4, 64, 105
6, 92400, Note_on_c, 4, 64, 0
6, 92400, Note_on_c, 4, 76, 105
6, 92520, Note_on_c, 4, 76, 0
6, 92520, Note_on_c, 4, 64, 105
6, 92640, Note_on_c, 4, 64, 0
6, 92640, Note_on_c, 4, 52, 0
6, 92640, Note_on_c, 4, 40, 0
6, 92640, Note_on_c, 4, 52, 70
6, 92760, Note_on_c, 4, 64, 70
6, 92880, Note_on_c, 4, 64, 0
6, 92880, Note_on_c, 4, 76, 70
6, 93000, Note_on_c, 4, 76, 0
6, 93000, Note_on_c, 4, 64, 70
6, 93120, Note_on_c, 4, 64, 0
6, 93120, Note_on_c, 4, 52, 0
6, 93120, Note_on_c, 4, 51, 70
6, 93240, Note_on_c, 4, 63, 70
6, 93360, Note_on_c, 4, 63, 0
6, 93360, Note_on_c, 4, 75, 70
6, 93480, Note_on_c, 4, 75, 0
6, 93480, Note_on_c, 4, 63, 70
6, 93600, Note_on_c, 4, 63, 0
6, 93600, Note_on_c, 4, 51, 0
6, 93600, Note_on_c, 4, 52, 70
6, 93720, Note_on_c, 4, 64, 70
6, 93840, Note_on_c, 4, 64, 0
6, 93840, Note_on_c, 4, 76, 70
6, 93960, Note_on_c, 4, 76, 0
6, 93960, Note_on_c, 4, 64, 70
6, 94080, Note_on_c, 4, 64, 0
6, 94080, Note_on_c, 4, 52, 0
6, 94080, Note_on_c, 4, 53, 80
6, 94200, Note_on_c, 4, 65, 80
6, 94320, Note_on_c, 4, 65, 0
6, 94320, Note_on_c, 4, 77, 80
6, 94440, Note_on_c, 4, 77, 0
6, 94440, Note_on_c, 4, 65, 80
6, 94560, Note_on_c, 4, 65, 0
6, 94560, Note_on_c, 4, 53, 0
6, 94560, Note_on_c, 4, 43, 80
6, 94560, Note_on_c, 4, 55, 80
6, 94680, Note_on_c, 4, 67, 80
6, 94800, Note_on_c, 4, 67, 0
6, 94800, Note_on_c, 4, 79, 80
6, 94920, Note_on_c, 4, 79, 0
6, 94920, Note_on_c, 4, 67, 80
6, 95040, Note_on_c, 4, 67, 0
6, 95040, Note_on_c, 4, 55, 0
6, 95040, Note_on_c, 4, 43, 0
6, 95040, Note_on_c, 4, 45, 90
6, 95040, Note_on_c, 4, 57, 90
6, 95160, Note_on_c, 4, 69, 90
6, 95280, Note_on_c, 4, 69, 0
6, 95280, Note_on_c, 4, 81, 90
6, 95400, Note_on_c, 4, 81, 0
6, 95400, Note_on_c, 4, 69, 90
6, 95520, Note_on_c, 4, 69, 0
6, 95520, Note_on_c, 4, 57, 0
6, 95520, Note_on_c, 4, 45, 0
6, 95520, Note_on_c, 4, 47, 90
6, 95520, Note_on_c, 4, 59, 90
6, 95640, Note_on_c, 4, 71, 90
6, 95760, Note_on_c, 4, 71, 0
6, 95760, Note_on_c, 4, 83, 90
6, 95880, Note_on_c, 4, 83, 0
6, 95880, Note_on_c, 4, 71, 90
6, 96000, Note_on_c, 4, 71, 0
6, 96000, Note_on_c, 4, 59, 0
6, 96000, Note_on_c, 4, 47, 0
6, 96000, Note_on_c, 4, 48, 105
6, 96120, Note_on_c, 4, 48, 0
6, 96120, Note_on_c, 4, 52, 105
6, 96240, Note_on_c, 4, 52, 0
6, 96240, Note_on_c, 4, 55, 105
6, 96360, Note_on_c, 4, 55, 0
6, 96360, Note_on_c, 4, 60, 105
6, 96480, Note_on_c, 4, 60, 0
6, 96480, Note_on_c, 4, 72, 105
6, 96600, Note_on_c, 4, 72, 0
6, 96600, Note_on_c, 4, 76, 105
6, 96720, Note_on_c, 4, 76, 0
6, 96720, Note_on_c, 4, 79, 105
6, 96840, Note_on_c, 4, 79, 0
6, 96840, Note_on_c, 4, 84, 105
6, 96960, Note_on_c, 4, 84, 0
6, 96960, Note_on_c, 4, 76, 105
6, 97080, Note_on_c, 4, 76, 0
6, 97080, Note_on_c, 4, 79, 105
6, 97200, Note_on_c, 4, 79, 0
6, 97200, Note_on_c, 4, 84, 105
6, 97320, Note_on_c, 4, 84, 0
6, 97320, Note_on_c, 4, 88, 105
6, 97440, Note_on_c, 4, 88, 0
6, 97440, Note_on_c, 4, 86, 105
6, 97560, Note_on_c, 4, 86, 0
6, 97560, Note_on_c, 4, 84, 105
6, 97680, Note_on_c, 4, 84, 0
6, 97680, Note_on_c, 4, 83, 105
6, 97800, Note_on_c, 4, 83, 0
6, 97800, Note_on_c, 4, 84, 105
6, 97920, Note_on_c, 4, 84, 0
6, 97920, Note_on_c, 4, 86, 105
6, 97920, Note_on_c, 4, 71, 105
6, 98040, Note_on_c, 4, 86, 0
6, 98040, Note_on_c, 4, 83, 105
6, 98160, Note_on_c, 4, 83, 0
6, 98160, Note_on_c, 4, 71, 0
6, 98160, Note_on_c, 4, 84, 105
6, 98160, Note_on_c, 4, 69, 105
6, 98280, Note_on_c, 4, 84, 0
6, 98280, Note_on_c, 4, 81, 105
6, 98400, Note_on_c, 4, 81, 0
6, 98400, Note_on_c, 4, 69, 0
6, 98400, Note_on_c, 4, 83, 105
6, 98400, Note_on_c, 4, 67, 105
6, 98520, Note_on_c, 4, 83, 0
6, 98520, Note_on_c, 4, 79, 105
6, 98640, Note_on_c, 4, 79, 0
6, 98640, Note_on_c, 4, 67, 0
6, 98640, Note_on_c, 4, 81, 105
6, 98640, Note_on_c, 4, 65, 105
6, 98760, Note_on_c, 4, 81, 0
6, 98760, Note_on_c, 4, 77, 105
6, 98880, Note_on_c, 4, 77, 0
6, 98880, Note_on_c, 4, 65, 0
6, 98880, Note_on_c, 4, 79, 105
6, 98880, Note_on_c, 4, 64, 105
6, 99000, Note_on_c, 4, 79, 0
6, 99000, Note_on_c, 4, 76, 105
6, 99120, Note_on_c, 4, 76, 0
6, 99120, Note_on_c, 4, 64, 0
6, 99120, Note_on_c, 4, 77, 105
6, 99120, Note_on_c, 4, 62, 105
6, 99240, Note_on_c, 4, 77, 0
6, 99240, Note_on_c, 4, 74, 105
6, 99360, Note_on_c, 4, 74, 0
6, 99360, Note_on_c, 4, 62, 0
6, 99360, Note_on_c, 4, 76, 105
6, 99360, Note_on_c, 4, 60, 105
6, 99480, Note_on_c, 4, 76, 0
6, 99480, Note_on_c, 4, 72, 105
6, 99600, Note_on_c, 4, 72, 0
6, 99600, Note_on_c, 4, 60, 0
6, 99600, Note_on_c, 4, 74, 105
6, 99600, Note_on_c, 4, 59, 105
6, 99720, Note_on_c, 4, 74, 0
6, 99720, Note_on_c, 4, 71, 105
6, 99840, Note_on_c, 4, 71, 0
6, 99840, Note_on_c, 4, 59, 0
6, 99840, Note_on_c, 4, 48, 105
6, 99960, Note_on_c, 4, 48, 0
6, 99960, Note_on_c, 4, 52, 105
6, 100080, Note_on_c, 4, 52, 0
6, 100080, Note_on_c, 4, 55, 105
6, 100200, Note_on_c, 4, 55, 0
6, 100200, Note_on_c, 4, 60, 105
6, 100320, Note_on_c, 4, 60, 0
6, 100320, Note_on_c, 4, 72, 105
6, 100440, Note_on_c, 4, 72, 0
6, 100440, Note_on_c, 4, 76, 105
6, 100560, Note_on_c, 4, 76, 0
6, 100560, Note_on_c, 4, 79, 105
6, 100680, Note_on_c, 4, 79, 0
6, 100680, Note_on_c, 4, 84, 105
6, 100800, Note_on_c, 4, 84, 0
6, 100800, Note_on_c, 4, 76, 105
6, 100920, Note_on_c, 4, 76, 0
6, 100920, Note_on_c, 4, 79, 105
6, 101040, Note_on_c, 4, 79, 0
6, 101040, Note_on_c, 4, 84, 105
6, 101160, Note_on_c, 4, 84, 0
6, 101160, Note_on_c, 4, 88, 105
6, 101280, Note_on_c, 4, 88, 0
6, 101280, Note_on_c, 4, 86, 105
6, 101400, Note_on_c, 4, 86, 0
6, 101400, Note_on_c, 4, 84, 105
6, 101520, Note_on_c, 4, 84, 0
6, 101520, Note_on_c, 4, 83, 105
6, 101640, Note_on_c, 4, 83, 0
6, 101640, Note_on_c, 4, 84, 105
6, 101760, Note_on_c, 4, 84, 0
6, 101760, Note_on_c, 4, 86, 105
6, 101760, Note_on_c, 4, 71, 105
6, 101880, Note_on_c, 4, 86, 0
6, 101880, Note_on_c, 4, 83, 105
6, 102000, Note_on_c, 4, 83, 0
6, 102000, Note_on_c, 4, 71, 0
6, 102000, Note_on_c, 4, 84, 105
6, 102000, Note_on_c, 4, 69, 105
6, 102120, Note_on_c, 4, 84, 0
6, 102120, Note_on_c, 4, 81, 105
6, 102240, Note_on_c, 4, 81, 0
6, 102240, Note_on_c, 4, 69, 0
6, 102240, Note_on_c, 4, 83, 105
6, 102240, Note_on_c, 4, 67, 105
6, 102360, Note_on_c, 4, 83, 0
6, 102360, Note_on_c, 4, 79, 105
6, 102480, Note_on_c, 4, 79, 0
6, 102480, Note_on_c, 4, 67, 0
6, 102480, Note_on_c, 4, 81, 105
6, 102480, Note_on_c, 4, 65, 105
6, 102600, Note_on_c, 4, 81, 0
6, 102600, Note_on_c, 4, 77, 105
6, 102720, Note_on_c, 4, 77, 0
6, 102720, Note_on_c, 4, 65, 0
6, 102720, Note_on_c, 4, 79, 105
6, 102720, Note_on_c, 4, 64, 105
6, 102840, Note_on_c, 4, 79, 0
6, 102840, Note_on_c, 4, 76, 105
6, 102960, Note_on_c, 4, 76, 0
6, 102960, Note_on_c, 4, 64, 0
6, 102960, Note_on_c, 4, 77, 105
6, 102960, Note_on_c, 4, 62, 105
6, 103080, Note_on_c, 4, 77, 0
6, 103080, Note_on_c, 4, 74, 105
6, 103200, Note_on_c, 4, 74, 0
6, 103200, Note_on_c, 4, 62, 0
6, 103200, Note_on_c, 4, 76, 105
6, 103200, Note_on_c, 4, 60, 105
6, 103320, Note_on_c, 4, 76, 0
6, 103320, Note_on_c, 4, 72, 105
6, 103440, Note_on_c, 4, 72, 0
6, 103440, Note_on_c, 4, 60, 0
6, 103440, Note_on_c, 4, 74, 105
6, 103440, Note_on_c, 4, 59, 105
6, 103560, Note_on_c, 4, 74, 0
6, 103560, Note_on_c, 4, 71, 105
6, 103680, Note_on_c, 4, 71, 0
6, 103680, Note_on_c, 4, 59, 0
6, 103680, Note_on_c, 4, 72, 105
6, 103680, Note_on_c, 4, 60, 105
6, 104160, Note_on_c, 4, 60, 0
6, 104160, Note_on_c, 4, 72, 0
6, 111360, Note_on_c, 4, 72, 105
6, 111360, Note_on_c, 4, 60, 105
6, 111600, Note_on_c, 4, 60, 0
6, 111600, Note_on_c, 4, 72, 0
6, 111600, Note_on_c, 4, 74, 105
6, 111600, Note_on_c, 4, 67, 105
6, 111720, Note_on_c, 4, 74, 0
6, 111720, Note_on_c, 4, 76, 105
6, 111840, Note_on_c, 4, 76, 0
6, 111840, Note_on_c, 4, 67, 0
6, 111840, Note_on_c, 4, 77, 105
6, 111840, Note_on_c, 4, 64, 105
6, 111960, Note_on_c, 4, 77, 0
6, 111960, Note_on_c, 4, 79, 105
6, 112080, Note_on_c, 4, 79, 0
6, 112080, Note_on_c, 4, 64, 0
6, 112080, Note_on_c, 4, 81, 105
6, 112080, Note_on_c, 4, 67, 105
6, 112200, Note_on_c, 4, 81, 0
6, 112200, Note_on_c, 4, 83, 105
6, 112320, Note_on_c, 4, 83, 0
6, 112320, Note_on_c, 4, 67, 0
6, 112320, Note_on_c, 4, 84, 105
6, 112320, Note_on_c, 4, 60, 105
6, 112440, Note_on_c, 4, 84, 0
6, 112440, Note_on_c, 4, 83, 105
6, 112560, Note_on_c, 4, 83, 0
6, 112560, Note_on_c, 4, 60, 0
6, 112560, Note_on_c, 4, 84, 105
6, 112560, Note_on_c, 4, 67, 105
6, 112680, Note_on_c, 4, 84, 0
6, 112680, Note_on_c, 4, 83, 105
6, 112800, Note_on_c, 4, 83, 0
6, 112800, Note_on_c, 4, 67, 0
6, 112800, Note_on_c, 4, 84, 105
6, 112800, Note_on_c, 4, 64, 105
6, 112920, Note_on_c, 4, 84, 0
6, 112920, Note_on_c, 4, 83, 105
6, 113040, Note_on_c, 4, 83, 0
6, 113040, Note_on_c, 4, 64, 0
6, 113040, Note_on_c, 4, 81, 105
6, 113040, Note_on_c, 4, 67, 105
6, 113160, Note_on_c, 4, 81, 0
6, 113160, Note_on_c, 4, 79, 105
6, 113280, Note_on_c, 4, 79, 0
6, 113280, Note_on_c, 4, 67, 0
6, 113280, Note_on_c, 4, 81, 105
6, 113280, Note_on_c, 4, 60, 105
6, 113400, Note_on_c, 4, 81, 0
6, 113400, Note_on_c, 4, 72, 105
6, 113520, Note_on_c, 4, 72, 0
6, 113520, Note_on_c, 4, 60, 0
6, 113520, Note_on_c, 4, 74, 105
6, 113520, Note_on_c, 4, 69, 105
6, 113640, Note_on_c, 4, 74, 0
6, 113640, Note_on_c, 4, 76, 105
6, 113760, Note_on_c, 4, 76, 0
6, 113760, Note_on_c, 4, 69, 0
6, 113760, Note_on_c, 4, 77, 105
6, 113760, Note_on_c, 4, 65, 105
6, 113880, Note_on_c, 4, 77, 0
6, 113880, Note_on_c, 4, 79, 105
6, 114000, Note_on_c, 4, 79, 0
6, 114000, Note_on_c, 4, 65, 0
6, 114000, Note_on_c, 4, 81, 105
6, 114000, Note_on_c, 4, 69, 105
6, 114120, Note_on_c, 4, 81, 0
6, 114120, Note_on_c, 4, 83, 105
6, 114240, Note_on_c, 4, 83, 0
6, 114240, Note_on_c, 4, 69, 0
6, 114240, Note_on_c, 4, 84, 105
6, 114240, Note_on_c, 4, 60, 105
6, 114360, Note_on_c, 4, 84, 0
6, 114360, Note_on_c, 4, 83, 105
6, 114480, Note_on_c, 4, 83, 0
6, 114480, Note_on_c, 4, 60, 0
6, 114480, Note_on_c, 4, 84, 105
6, 114480, Note_on_c, 4, 69, 105
6, 114600, Note_on_c, 4, 84, 0
6, 114600, Note_on_c, 4, 83, 105
6, 114720, Note_on_c, 4, 83, 0
6, 114720, Note_on_c, 4, 69, 0
6, 114720, Note_on_c, 4, 86, 105
6, 114720, Note_on_c, 4, 65, 105
6, 114840, Note_on_c, 4, 86, 0
6, 114840, Note_on_c, 4, 84, 105
6, 114960, Note_on_c, 4, 84, 0
6, 114960, Note_on_c, 4, 65, 0
6, 114960, Note_on_c, 4, 83, 105
6, 114960, Note_on_c, 4, 69, 105
6, 115080, Note_on_c, 4, 83, 0
6, 115080, Note_on_c, 4, 81, 105
6, 115200, Note_on_c, 4, 81, 0
6, 115200, Note_on_c, 4, 69, 0
6, 115200, Note_on_c, 4, 79, 105
6, 115200, Note_on_c, 4, 60, 105
6, 115320, Note_on_c, 4, 79, 0
6, 115320, Note_on_c, 4, 72, 105
6, 115440, Note_on_c, 4, 72, 0
6, 115440, Note_on_c, 4, 60, 0
6, 115440, Note_on_c, 4, 74, 105
6, 115440, Note_on_c, 4, 67, 105
6, 115560, Note_on_c, 4, 74, 0
6, 115560, Note_on_c, 4, 76, 105
6, 115680, Note_on_c, 4, 76, 0
6, 115680, Note_on_c, 4, 67, 0
6, 115680, Note_on_c, 4, 77, 105
6, 115680, Note_on_c, 4, 64, 105
6, 115800, Note_on_c, 4, 77, 0
6, 115800, Note_on_c, 4, 79, 105
6, 115920, Note_on_c, 4, 79, 0
6, 115920, Note_on_c, 4, 64, 0
6, 115920, Note_on_c, 4, 81, 105
6, 115920, Note_on_c, 4, 67, 105
6, 116040, Note_on_c, 4, 81, 0
6, 116040, Note_on_c, 4, 83, 105
6, 116160, Note_on_c, 4, 83, 0
6, 116160, Note_on_c, 4, 67, 0
6, 116160, Note_on_c, 4, 84, 105
6, 116160, Note_on_c, 4, 60, 105
6, 116280, Note_on_c, 4, 84, 0
6, 116280, Note_on_c, 4, 86, 105
6, 116400, Note_on_c, 4, 86, 0
6, 116400, Note_on_c, 4, 60, 0
6, 116400, Note_on_c, 4, 88, 105
6, 116400, Note_on_c, 4, 67, 105
6, 116520, Note_on_c, 4, 88, 0
6, 116520, Note_on_c, 4, 86, 105
6, 116640, Note_on_c, 4, 86, 0
6, 116640, Note_on_c, 4, 67, 0
6, 116640, Note_on_c, 4, 84, 105
6, 116640, Note_on_c, 4, 64, 105
6, 116760, Note_on_c, 4, 84, 0
6, 116760, Note_on_c, 4, 83, 105
6, 116880, Note_on_c, 4, 83, 0
6, 116880, Note_on_c, 4, 64, 0
6, 116880, Note_on_c, 4, 81, 105
6, 116880, Note_on_c, 4, 67, 105
6, 117000, Note_on_c, 4, 81, 0
6, 117000, Note_on_c, 4, 79, 105
6, 117120, Note_on_c, 4, 79, 0
6, 117120, Note_on_c, 4, 67, 0
6, 117120, Note_on_c, 4, 79, 105
6, 117120, Note_on_c, 4, 55, 105
6, 117360, Note_on_c, 4, 55, 0
6, 117360, Note_on_c, 4, 64, 105
6, 117480, Note_on_c, 4, 79, 0
6, 117480, Note_on_c, 4, 77, 105
6, 117600, Note_on_c, 4, 77, 0
6, 117600, Note_on_c, 4, 64, 0
6, 117600, Note_on_c, 4, 76, 105
6, 117600, Note_on_c, 4, 60, 105
6, 117840, Note_on_c, 4, 60, 0
6, 117840, Note_on_c, 4, 64, 105
6, 118080, Note_on_c, 4, 64, 0
6, 118080, Note_on_c, 4, 55, 105
6, 118200, Note_on_c, 4, 76, 0
6, 118200, Note_on_c, 4, 72, 105
6, 118320, Note_on_c, 4, 72, 0
6, 118320, Note_on_c, 4, 55, 0
6, 118320, Note_on_c, 4, 76, 105
6, 118320, Note_on_c, 4, 60, 105
6, 118440, Note_on_c, 4, 76, 0
6, 118440, Note_on_c, 4, 79, 105
6, 118560, Note_on_c, 4, 79, 0
6, 118560, Note_on_c, 4, 60, 0
6, 118560, Note_on_c, 4, 79, 105
6, 118560, Note_on_c, 4, 55, 105
6, 118680, Note_on_c, 4, 79, 0
6, 118680, Note_on_c, 4, 77, 105
6, 118800, Note_on_c, 4, 77, 0
6, 118800, Note_on_c, 4, 55, 0
6, 118800, Note_on_c, 4, 76, 105
6, 118800, Note_on_c, 4, 59, 105
6, 118920, Note_on_c, 4, 76, 0
6, 118920, Note_on_c, 4, 74, 105
6, 119040, Note_on_c, 4, 74, 0
6, 119040, Note_on_c, 4, 59, 0
6, 119040, Note_on_c, 4, 72, 105
6, 119040, Note_on_c, 4, 60, 105
6, 119160, Note_on_c, 4, 72, 0
6, 119160, Note_on_c, 4, 76, 105
6, 119280, Note_on_c, 4, 76, 0
6, 119280, Note_on_c, 4, 79, 105
6, 119400, Note_on_c, 4, 79, 0
6, 119400, Note_on_c, 4, 84, 105
6, 119520, Note_on_c, 4, 84, 0
6, 119520, Note_on_c, 4, 60, 0
6, 119520, Note_on_c, 4, 72, 105
6, 119520, Note_on_c, 4, 48, 105
6, 119520, Note_on_c, 4, 60, 105
6, 119640, Note_on_c, 4, 72, 0
6, 119640, Note_on_c, 4, 84, 105
6, 119760, Note_on_c, 4, 84, 0
6, 119760, Note_on_c, 4, 60, 0
6, 119760, Note_on_c, 4, 48, 0
6, 119760, Note_on_c, 4, 71, 105
6, 119760, Note_on_c, 4, 47, 105
6, 119760, Note_on_c, 4, 59, 105
6, 119880, Note_on_c, 4, 71, 0
6, 119880, Note_on_c, 4, 83, 105
6, 120000, Note_on_c, 4, 83, 0
6, 120000, Note_on_c, 4, 59, 0
6, 120000, Note_on_c, 4, 47, 0
6, 120000, Note_on_c, 4, 69, 105
6, 120000, Note_on_c, 4, 45, 105
6, 120000, Note_on_c, 4, 57, 105
6, 120120, Note_on_c, 4, 69, 0
6, 120120, Note_on_c, 4, 72, 105
6, 120240, Note_on_c, 4, 72, 0
6, 120240, Note_on_c, 4, 76, 105
6, 120360, Note_on_c, 4, 76, 0
6, 120360, Note_on_c, 4, 81, 105
6, 120480, Note_on_c, 4, 81, 0
6, 120480, Note_on_c, 4, 57, 0
6, 120480, Note_on_c, 4, 45, 0
6, 120480, Note_on_c, 4, 69, 105
6, 120480, Note_on_c, 4, 45, 105
6, 120480, Note_on_c, 4, 57, 105
6, 120600, Note_on_c, 4, 69, 0
6, 120600, Note_on_c, 4, 81, 105
6, 120720, Note_on_c, 4, 81, 0
6, 120720, Note_on_c, 4, 57, 0
6, 120720, Note_on_c, 4, 45, 0
6, 120720, Note_on_c, 4, 67, 105
6, 120720, Note_on_c, 4, 43, 105
6, 120720, Note_on_c, 4, 55, 105
6, 120840, Note_on_c, 4, 67, 0
6, 120840, Note_on_c, 4, 79, 105
6, 120960, Note_on_c, 4, 79, 0
6, 120960, Note_on_c, 4, 55, 0
6, 120960, Note_on_c, 4, 43, 0
6, 120960, Note_on_c, 4, 65, 105
6, 120960, Note_on_c, 4, 41, 105
6, 120960, Note_on_c, 4, 53, 105
6, 121080, Note_on_c, 4, 65, 0
6, 121080, Note_on_c, 4, 69, 105
6, 121200, Note_on_c, 4, 69, 0
6, 121200, Note_on_c, 4, 72, 105
6, 121320, Note_on_c, 4, 72, 0
6, 121320, Note_on_c, 4, 77, 105
6, 121440, Note_on_c, 4, 77, 0
6, 121440, Note_on_c, 4, 53, 0
6, 121440, Note_on_c, 4, 41, 0
6, 121440, Note_on_c, 4, 65, 105
6, 121440, Note_on_c, 4, 41, 105
6, 121440, Note_on_c, 4, 53, 105
6, 121560, Note_on_c, 4, 65, 0
6, 121560, Note_on_c, 4, 77, 105
6, 121680, Note_on_c, 4, 77, 0
6, 121680, Note_on_c, 4, 53, 0
6, 121680, Note_on_c, 4, 41, 0
6, 121680, Note_on_c, 4, 64, 105
6, 121680, Note_on_c, 4, 40, 105
6, 121680, Note_on_c, 4, 52, 105
6, 121800, Note_on_c, 4, 64, 0
6, 121800, Note_on_c, 4, 76, 105
6, 121920, Note_on_c, 4, 76, 0
6, 121920, Note_on_c, 4, 52, 0
6, 121920, Note_on_c, 4, 40, 0
6, 121920, Note_on_c, 4, 62, 105
6, 121920, Note_on_c, 4, 38, 105
6, 121920, Note_on_c, 4, 50, 105
6, 122040, Note_on_c, 4, 62, 0
6, 122040, Note_on_c, 4, 74, 105
6, 122160, Note_on_c, 4, 74, 0
6, 122160, Note_on_c, 4, 50, 0
6, 122160, Note_on_c, 4, 38, 0
6, 122160, Note_on_c, 4, 60, 105
6, 122160, Note_on_c, 4, 48, 105
6, 122256, Note_on_c, 4, 48, 0
6, 122280, Note_on_c, 4, 60, 0
6, 122280, Note_on_c, 4, 72, 105
6, 122400, Note_on_c, 4, 72, 0
6, 122400, Note_on_c, 4, 59, 105
6, 122400, Note_on_c, 4, 47, 105
6, 122496, Note_on_c, 4, 47, 0
6, 122520, Note_on_c, 4, 59, 0
6, 122520, Note_on_c, 4, 71, 105
6, 122640, Note_on_c, 4, 71, 0
6, 122640, Note_on_c, 4, 57, 105
6, 122640, Note_on_c, 4, 45, 105
6, 122736, Note_on_c, 4, 45, 0
6, 122760, Note_on_c, 4, 57, 0
6, 122760, Note_on_c, 4, 69, 105
6, 122880, Note_on_c, 4, 69, 0
6, 122880, Note_on_c, 4, 55, 105
6, 122880, Note_on_c, 4, 43, 105
6, 123120, Note_on_c, 4, 43, 0
6, 123120, Note_on_c, 4, 55, 0
6, 123120, Note_on_c, 4, 55, 105
6, 123120, Note_on_c, 4, 43, 105
6, 123240, Note_on_c, 4, 55, 0
6, 123240, Note_on_c, 4, 59, 105
6, 123360, Note_on_c, 4, 59, 0
6, 123360, Note_on_c, 4, 43, 0
6, 123360, Note_on_c, 4, 57, 105
6, 123360, Note_on_c, 4, 45, 105
6, 123480, Note_on_c, 4, 57, 0
6, 123480, Note_on_c, 4, 60, 105
6, 123600, Note_on_c, 4, 60, 0
6, 123600, Note_on_c, 4, 45, 0
6, 123600, Note_on_c, 4, 59, 105
6, 123600, Note_on_c, 4, 47, 105
6, 123720, Note_on_c, 4, 59, 0
6, 123720, Note_on_c, 4, 62, 105
6, 123840, Note_on_c, 4, 62, 0
6, 123840, Note_on_c, 4, 47, 0
6, 123840, Note_on_c, 4, 60, 105
6, 123840, Note_on_c, 4, 48, 105
6, 123960, Note_on_c, 4, 60, 0
6, 123960, Note_on_c, 4, 64, 105
6, 124080, Note_on_c, 4, 64, 0
6, 124080, Note_on_c, 4, 48, 0
6, 124080, Note_on_c, 4, 62, 105
6, 124080, Note_on_c, 4, 50, 105
6, 124200, Note_on_c, 4, 62, 0
6, 124200, Note_on_c, 4, 65, 105
6, 124320, Note_on_c, 4, 65, 0
6, 124320, Note_on_c, 4, 50, 0
6, 124320, Note_on_c, 4, 64, 105
6, 124320, Note_on_c, 4, 52, 105
6, 124440, Note_on_c, 4, 64, 0
6, 124440, Note_on_c, 4, 67, 105
6, 124560, Note_on_c, 4, 67, 0
6, 124560, Note_on_c, 4, 52, 0
6, 124560, Note_on_c, 4, 66, 105
6, 124560, Note_on_c, 4, 54, 105
6, 124680, Note_on_c, 4, 66, 0
6, 124680, Note_on_c, 4, 69, 105
6, 124800, Note_on_c, 4, 69, 0
6, 124800, Note_on_c, 4, 54, 0
6, 124800, Note_on_c, 4, 67, 105
6, 124800, Note_on_c, 4, 55, 105
6, 125040, Note_on_c, 4, 55, 0
6, 125040, Note_on_c, 4, 67, 0
6, 125040, Note_on_c, 4, 67, 105
6, 125040, Note_on_c, 4, 43, 105
6, 125160, Note_on_c, 4, 43, 0
6, 125160, Note_on_c, 4, 67, 0
6, 125160, Note_on_c, 4, 71, 105
6, 125160, Note_on_c, 4, 55, 105
6, 125280, Note_on_c, 4, 55, 0
6, 125280, Note_on_c, 4, 71, 0
6, 125280, Note_on_c, 4, 69, 105
6, 125280, Note_on_c, 4, 45, 105
6, 125400, Note_on_c, 4, 45, 0
6, 125400, Note_on_c, 4, 69, 0
6, 125400, Note_on_c, 4, 72, 105
6, 125400, Note_on_c, 4, 57, 105
6, 125520, Note_on_c, 4, 57, 0
6, 125520, Note_on_c, 4, 72, 0
6, 125520, Note_on_c, 4, 71, 105
6, 125520, Note_on_c, 4, 47, 105
6, 125640, Note_on_c, 4, 47, 0
6, 125640, Note_on_c, 4, 71, 0
6, 125640, Note_on_c, 4, 74, 105
6, 125640, Note_on_c, 4, 59, 105
6, 125760, Note_on_c, 4, 59, 0
6, 125760, Note_on_c, 4, 74, 0
6, 125760, Note_on_c, 4, 72, 105
6, 125760, Note_on_c, 4, 48, 105
6, 125880, Note_on_c, 4, 48, 0
6, 125880, Note_on_c, 4, 72, 0
6, 125880, Note_on_c, 4, 76, 105
6, 125880, Note_on_c, 4, 60, 105
6, 126000, Note_on_c, 4, 60, 0
6, 126000, Note_on_c, 4, 76, 0
6, 126000, Note_on_c, 4, 74, 105
6, 126000, Note_on_c, 4, 50, 105
6, 126120, Note_on_c, 4, 50, 0
6, 126120, Note_on_c, 4, 74, 0
6, 126120, Note_on_c, 4, 77, 105
6, 126120, Note_on_c, 4, 62, 105
6, 126240, Note_on_c, 4, 62, 0
6, 126240, Note_on_c, 4, 77, 0
6, 126240, Note_on_c, 4, 76, 105
6, 126240, Note_on_c, 4, 52, 105
6, 126360, Note_on_c, 4, 52, 0
6, 126360, Note_on_c, 4, 76, 0
6, 126360, Note_on_c, 4, 79, 105
6, 126360, Note_on_c, 4, 64, 105
6, 126480, Note_on_c, 4, 64, 0
6, 126480, Note_on_c, 4, 79, 0
6, 126480, Note_on_c, 4, 78, 105
6, 126480, Note_on_c, 4, 54, 105
6, 126600, Note_on_c, 4, 54, 0
6, 126600, Note_on_c, 4, 78, 0
6, 126600, Note_on_c, 4, 81, 105
6, 126600, Note_on_c, 4, 66, 105
6, 126720, Note_on_c, 4, 66, 0
6, 126720, Note_on_c, 4, 81, 0
6, 126720, Note_on_c, 4, 79, 105
6, 126720, Note_on_c, 4, 55, 105
6, 126720, Note_on_c, 4, 67, 105
6, 127200, Note_on_c, 4, 67, 0
6, 127200, Note_on_c, 4, 55, 0
6, 127200, Note_on_c, 4, 79, 0
6, 132480, Note_on_c, 4, 43, 105
6, 132600, Note_on_c, 4, 43, 0
6, 132600, Note_on_c, 4, 47, 105
6, 132720, Note_on_c, 4, 47, 0
6, 132720, Note_on_c, 4, 50, 105
6, 132840, Note_on_c, 4, 50, 0
6, 132840, Note_on_c, 4, 55, 105
6, 132960, Note_on_c, 4, 55, 0
6, 132960, Note_on_c, 4, 71, 105
6, 133080, Note_on_c, 4, 71, 0
6, 133080, Note_on_c, 4, 74, 105
6, 133200, Note_on_c, 4, 74, 0
6, 133200, Note_on_c, 4, 71, 105
6, 133320, Note_on_c, 4, 71, 0
6, 133320, Note_on_c, 4, 67, 105
6, 133440, Note_on_c, 4, 67, 0
6, 133440, Note_on_c, 4, 43, 105
6, 133560, Note_on_c, 4, 43, 0
6, 133560, Note_on_c, 4, 47, 105
6, 133680, Note_on_c, 4, 47, 0
6, 133680, Note_on_c, 4, 50, 105
6, 133800, Note_on_c, 4, 50, 0
6, 133800, Note_on_c, 4, 55, 105
6, 133920, Note_on_c, 4, 55, 0
6, 133920, Note_on_c, 4, 71, 105
6, 134040, Note_on_c, 4, 71, 0
6, 134040, Note_on_c, 4, 74, 105
6, 134160, Note_on_c, 4, 74, 0
6, 134160, Note_on_c, 4, 71, 105
6, 134280, Note_on_c, 4, 71, 0
6, 134280, Note_on_c, 4, 67, 105
6, 134400, Note_on_c, 4, 67, 0
6, 134400, Note_on_c, 4, 43, 105
6, 134520, Note_on_c, 4, 43, 0
6, 134520, Note_on_c, 4, 48, 105
6, 134640, Note_on_c, 4, 48, 0
6, 134640, Note_on_c, 4, 52, 105
6, 134760, Note_on_c, 4, 52, 0
6, 134760, Note_on_c, 4, 55, 105
6, 134880, Note_on_c, 4, 55, 0
6, 134880, Note_on_c, 4, 72, 105
6, 135000, Note_on_c, 4, 72, 0
6, 135000, Note_on_c, 4, 76, 105
6, 135120, Note_on_c, 4, 76, 0
6, 135120, Note_on_c, 4, 72, 105
6, 135240, Note_on_c, 4, 72, 0
6, 135240, Note_on_c, 4, 67, 105
6, 135360, Note_on_c, 4, 67, 0
6, 135360, Note_on_c, 4, 43, 105
6, 135480, Note_on_c, 4, 43, 0
6, 135480, Note_on_c, 4, 48, 105
6, 135600, Note_on_c, 4, 48, 0
6, 135600, Note_on_c, 4, 52, 105
6, 135720, Note_on_c, 4, 52, 0
6, 135720, Note_on_c, 4, 55, 105
6, 135840, Note_on_c, 4, 55, 0
6, 135840, Note_on_c, 4, 72, 105
6, 135960, Note_on_c, 4, 72, 0
6, 135960, Note_on_c, 4, 76, 105
6, 136080, Note_on_c, 4, 76, 0
6, 136080, Note_on_c, 4, 72, 105
6, 136200, Note_on_c, 4, 72, 0
6, 136200, Note_on_c, 4, 67, 105
6, 136320, Note_on_c, 4, 67, 0
6, 136320, Note_on_c, 4, 43, 105
6, 136440, Note_on_c, 4, 43, 0
6, 136440, Note_on_c, 4, 71, 105
6, 136440, Note_on_c, 4, 55, 105
6, 136560, Note_on_c, 4, 55, 0
6, 136560, Note_on_c, 4, 71, 0
6, 136560, Note_on_c, 4, 67, 105
6, 136680, Note_on_c, 4, 67, 0
6, 136680, Note_on_c, 4, 62, 105
6, 136800, Note_on_c, 4, 62, 0
6, 136800, Note_on_c, 4, 40, 105
6, 136920, Note_on_c, 4, 40, 0
6, 136920, Note_on_c, 4, 67, 105
6, 136920, Note_on_c, 4, 52, 105
6, 137040, Note_on_c, 4, 52, 0
6, 137040, Note_on_c, 4, 67, 0
6, 137040, Note_on_c, 4, 62, 105
6, 137160, Note_on_c, 4, 62, 0
6, 137160, Note_on_c, 4, 59, 105
6, 137280, Note_on_c, 4, 59, 0
6, 137280, Note_on_c, 4, 36, 105
6, 137400, Note_on_c, 4, 36, 0
6, 137400, Note_on_c, 4, 69, 105
6, 137400, Note_on_c, 4, 48, 105
6, 137520, Note_on_c, 4, 48, 0
6, 137520, Note_on_c, 4, 69, 0
6, 137520, Note_on_c, 4, 67, 105
6, 137640, Note_on_c, 4, 67, 0
6, 137640, Note_on_c, 4, 64, 105
6, 137760, Note_on_c, 4, 64, 0
6, 137760, Note_on_c, 4, 38, 105
6, 137880, Note_on_c, 4, 38, 0
6, 137880, Note_on_c, 4, 69, 105
6, 137880, Note_on_c, 4, 50, 105
6, 138000, Note_on_c, 4, 50, 0
6, 138000, Note_on_c, 4, 69, 0
6, 138000, Note_on_c, 4, 66, 105
6, 138120, Note_on_c, 4, 66, 0
6, 138120, Note_on_c, 4, 62, 105
6, 138240, Note_on_c, 4, 62, 0
6, 138240, Note_on_c, 4, 43, 105
6, 138360, Note_on_c, 4, 86, 105
6, 138480, Note_on_c, 4, 86, 0
6, 138480, Note_on_c, 4, 83, 105
6, 138600, Note_on_c, 4, 83, 0
6, 138600, Note_on_c, 4, 79, 105
6, 138720, Note_on_c, 4, 79, 0
6, 138720, Note_on_c, 4, 43, 0
6, 138720, Note_on_c, 4, 74, 105
6, 138840, Note_on_c, 4, 74, 0
6, 138840, Note_on_c, 4, 83, 105
6, 138960, Note_on_c, 4, 83, 0
6, 138960, Note_on_c, 4, 79, 105
6, 139080, Note_on_c, 4, 79, 0
6, 139080, Note_on_c, 4, 74, 105
6, 139200, Note_on_c, 4, 74, 0
6, 139200, Note_on_c, 4, 71, 105
6, 139320, Note_on_c, 4, 71, 0
6, 139320, Note_on_c, 4, 79, 105
6, 139440, Note_on_c, 4, 79, 0
6, 139440, Note_on_c, 4, 74, 105
6, 139560, Note_on_c, 4, 74, 0
6, 139560, Note_on_c, 4, 71, 105
6, 139680, Note_on_c, 4, 71, 0
6, 139680, Note_on_c, 4, 67, 105
6, 139800, Note_on_c, 4, 67, 0
6, 139800, Note_on_c, 4, 74, 105
6, 139920, Note_on_c, 4, 74, 0
6, 139920, Note_on_c, 4, 71, 105
6, 140040, Note_on_c, 4, 71, 0
6, 140040, Note_on_c, 4, 67, 105
6, 140160, Note_on_c, 4, 67, 0
6, 140160, Note_on_c, 4, 43, 105
6, 140280, Note_on_c, 4, 43, 0
6, 140280, Note_on_c, 4, 47, 105
6, 140400, Note_on_c, 4, 47, 0
6, 140400, Note_on_c, 4, 50, 105
6, 140520, Note_on_c, 4, 50, 0
6, 140520, Note_on_c, 4, 55, 105
6, 140640, Note_on_c, 4, 55, 0
6, 140640, Note_on_c, 4, 62, 105
6, 140760, Note_on_c, 4, 62, 0
6, 140760, Note_on_c, 4, 67, 105
6, 140880, Note_on_c, 4, 67, 0
6, 140880, Note_on_c, 4, 62, 105
6, 141000, Note_on_c, 4, 62, 0
6, 141000, Note_on_c, 4, 59, 105
6, 141120, Note_on_c, 4, 59, 0
6, 141120, Note_on_c, 4, 43, 105
6, 141240, Note_on_c, 4, 43, 0
6, 141240, Note_on_c, 4, 47, 105
6, 141360, Note_on_c, 4, 47, 0
6, 141360, Note_on_c, 4, 50, 105
6, 141480, Note_on_c, 4, 50, 0
6, 141480, Note_on_c, 4, 55, 105
6, 141600, Note_on_c, 4, 55, 0
6, 141600, Note_on_c, 4, 62, 105
6, 141720, Note_on_c, 4, 62, 0
6, 141720, Note_on_c, 4, 67, 105
6, 141840, Note_on_c, 4, 67, 0
6, 141840, Note_on_c, 4, 62, 105
6, 141960, Note_on_c, 4, 62, 0
6, 141960, Note_on_c, 4, 59, 105
6, 142080, Note_on_c, 4, 59, 0
6, 142080, Note_on_c, 4, 43, 105
6, 142200, Note_on_c, 4, 43, 0
6, 142200, Note_on_c, 4, 48, 105
6, 142320, Note_on_c, 4, 48, 0
6, 142320, Note_on_c, 4, 52, 105
6, 142440, Note_on_c, 4, 52, 0
6, 142440, Note_on_c, 4, 55, 105
6, 142560, Note_on_c, 4, 55, 0
6, 142560, Note_on_c, 4, 64, 105
6, 142680, Note_on_c, 4, 64, 0
6, 142680, Note_on_c, 4, 67, 105
6, 142800, Note_on_c, 4, 67, 0
6, 142800, Note_on_c, 4, 64, 105
6, 142920, Note_on_c, 4, 64, 0
6, 142920, Note_on_c, 4, 60, 105
6, 143040, Note_on_c, 4, 60, 0
6, 143040, Note_on_c, 4, 43, 105
6, 143160, Note_on_c, 4, 43, 0
6, 143160, Note_on_c, 4, 48, 105
6, 143280, Note_on_c, 4, 48, 0
6, 143280, Note_on_c, 4, 52, 105
6, 143400, Note_on_c, 4, 52, 0
6, 143400, Note_on_c, 4, 55, 105
6, 143520, Note_on_c, 4, 55, 0
6, 143520, Note_on_c, 4, 64, 105
6, 143640, Note_on_c, 4, 64, 0
6, 143640, Note_on_c, 4, 67, 105
6, 143760, Note_on_c, 4, 67, 0
6, 143760, Note_on_c, 4, 64, 105
6, 143880, Note_on_c, 4, 64, 0
6, 143880, Note_on_c, 4, 60, 105
6, 144000, Note_on_c, 4, 60, 0
6, 144000, Note_on_c, 4, 43, 105
6, 144120, Note_on_c, 4, 43, 0
6, 144120, Note_on_c, 4, 59, 105
6, 144120, Note_on_c, 4, 55, 105
6, 144240, Note_on_c, 4, 55, 0
6, 144240, Note_on_c, 4, 59, 0
6, 144240, Note_on_c, 4, 62, 105
6, 144360, Note_on_c, 4, 62, 0
6, 144360, Note_on_c, 4, 67, 105
6, 144480, Note_on_c, 4, 67, 0
6, 144480, Note_on_c, 4, 40, 105
6, 144600, Note_on_c, 4, 40, 0
6, 144600, Note_on_c, 4, 59, 105
6, 144600, Note_on_c, 4, 52, 105
6, 144720, Note_on_c, 4, 52, 0
6, 144720, Note_on_c, 4, 59, 0
6, 144720, Note_on_c, 4, 64, 105
6, 144840, Note_on_c, 4, 64, 0
6, 144840, Note_on_c, 4, 67, 105
6, 144960, Note_on_c, 4, 67, 0
6, 144960, Note_on_c, 4, 36, 105
6, 145080, Note_on_c, 4, 36, 0
6, 145080, Note_on_c, 4, 57, 105
6, 145080, Note_on_c, 4, 48, 105
6, 145200, Note_on_c, 4, 48, 0
6, 145200, Note_on_c, 4, 57, 0
6, 145200, Note_on_c, 4, 64, 105
6, 145320, Note_on_c, 4, 64, 0
6, 145320, Note_on_c, 4, 67, 105
6, 145440, Note_on_c, 4, 67, 0
6, 145440, Note_on_c, 4, 38, 105
6, 145560, Note_on_c, 4, 38, 0
6, 145560, Note_on_c, 4, 57, 105
6, 145560, Note_on_c, 4, 50, 105
6, 145680, Note_on_c, 4, 50, 0
6, 145680, Note_on_c, 4, 57, 0
6, 145680, Note_on_c, 4, 62, 105
6, 145800, Note_on_c, 4, 62, 0
6, 145800, Note_on_c, 4, 66, 105
6, 145920, Note_on_c, 4, 66, 0
6, 145920, Note_on_c, 4, 67, 105
6, 145920, Note_on_c, 4, 43, 105
6, 146400, Note_on_c, 4, 43, 0
6, 146400, Note_on_c, 4, 67, 0
6, 149760, Note_on_c, 4, 38, 105
6, 149760, Note_on_c, 4, 50, 105
6, 149880, Note_on_c, 4, 84, 105
6, 150000, Note_on_c, 4, 84, 0
6, 150000, Note_on_c, 4, 50, 0
6, 150000, Note_on_c, 4, 38, 0
6, 150000, Note_on_c, 4, 81, 105
6, 150120, Note_on_c, 4, 81, 0
6, 150120, Note_on_c, 4, 78, 105
6, 150240, Note_on_c, 4, 78, 0
6, 150240, Note_on_c, 4, 72, 105
6, 150360, Note_on_c, 4, 81, 105
6, 150480, Note_on_c, 4, 81, 0
6, 150480, Note_on_c, 4, 72, 0
6, 150480, Note_on_c, 4, 78, 105
6, 150600, Note_on_c, 4, 78, 0
6, 150600, Note_on_c, 4, 74, 105
6, 150720, Note_on_c, 4, 74, 0
6, 150720, Note_on_c, 4, 69, 105
6, 150840, Note_on_c, 4, 78, 105
6, 150960, Note_on_c, 4, 78, 0
6, 150960, Note_on_c, 4, 69, 0
6, 150960, Note_on_c, 4, 74, 105
6, 151080, Note_on_c, 4, 74, 0
6, 151080, Note_on_c, 4, 72, 105
6, 151200, Note_on_c, 4, 72, 0
6, 151200, Note_on_c, 4, 66, 105
6, 151320, Note_on_c, 4, 74, 105
6, 151440, Note_on_c, 4, 74, 0
6, 151440, Note_on_c, 4, 66, 0
6, 151440, Note_on_c, 4, 72, 105
6, 151560, Note_on_c, 4, 72, 0
6, 151560, Note_on_c, 4, 69, 105
6, 151680, Note_on_c, 4, 69, 0
6, 151680, Note_on_c, 4, 62, 105
6, 151800, Note_on_c, 4, 72, 105
6, 151920, Note_on_c, 4, 72, 0
6, 151920, Note_on_c, 4, 62, 0
6, 151920, Note_on_c, 4, 69, 105
6, 152040, Note_on_c, 4, 69, 0
6, 152040, Note_on_c, 4, 66, 105
6, 152160, Note_on_c, 4, 66, 0
6, 152160, Note_on_c, 4, 60, 105
6, 152280, Note_on_c, 4, 69, 105
6, 152400, Note_on_c, 4, 69, 0
6, 152400, Note_on_c, 4, 60, 0
6, 152400, Note_on_c, 4, 66, 105
6, 152520, Note_on_c, 4, 66, 0
6, 152520, Note_on_c, 4, 62, 105
6, 152640, Note_on_c, 4, 62, 0
6, 152640, Note_on_c, 4, 57, 105
6, 152760, Note_on_c, 4, 66, 105
6, 152880, Note_on_c, 4, 66, 0
6, 152880, Note_on_c, 4, 57, 0
6, 152880, Note_on_c, 4, 62, 105
6, 153000, Note_on_c, 4, 62, 0
6, 153000, Note_on_c, 4, 60, 105
6, 153120, Note_on_c, 4, 60, 0
6, 153120, Note_on_c, 4, 54, 105
6, 153240, Note_on_c, 4, 62, 105
6, 153360, Note_on_c, 4, 62, 0
6, 153360, Note_on_c, 4, 54, 0
6, 153360, Note_on_c, 4, 60, 105
6, 153480, Note_on_c, 4, 60, 0
6, 153480, Note_on_c, 4, 57, 105
6, 153600, Note_on_c, 4, 57, 0
6, 153600, Note_on_c, 4, 43, 105
6, 153600, Note_on_c, 4, 55, 105
6, 153720, Note_on_c, 4, 59, 105
6, 153840, Note_on_c, 4, 59, 0
6, 153840, Note_on_c, 4, 55, 0
6, 153840, Note_on_c, 4, 43, 0
6, 153840, Note_on_c, 4, 62, 105
6, 153960, Note_on_c, 4, 62, 0
6, 153960, Note_on_c, 4, 59, 105
6, 154080, Note_on_c, 4, 59, 0
6, 154080, Note_on_c, 4, 67, 105
6, 154200, Note_on_c, 4, 67, 0
6, 154200, Note_on_c, 4, 62, 105
6, 154320, Note_on_c, 4, 62, 0
6, 154320, Note_on_c, 4, 71, 105
6, 154440, Note_on_c, 4, 71, 0
6, 154440, Note_on_c, 4, 67, 105
6, 154560, Note_on_c, 4, 67, 0
6, 154560, Note_on_c, 4, 74, 105
6, 154680, Note_on_c, 4, 62, 105
6, 154800, Note_on_c, 4, 62, 0
6, 154800, Note_on_c, 4, 74, 0
6, 154800, Note_on_c, 4, 67, 105
6, 154920, Note_on_c, 4, 67, 0
6, 154920, Note_on_c, 4, 62, 105
6, 155040, Note_on_c, 4, 62, 0
6, 155040, Note_on_c, 4, 71, 105
6, 155160, Note_on_c, 4, 71, 0
6, 155160, Note_on_c, 4, 67, 105
6, 155280, Note_on_c, 4, 67, 0
6, 155280, Note_on_c, 4, 74, 105
6, 155400, Note_on_c, 4, 74, 0
6, 155400, Note_on_c, 4, 71, 105
6, 155520, Note_on_c, 4, 71, 0
6, 155520, Note_on_c, 4, 79, 105
6, 155640, Note_on_c, 4, 67, 105
6, 155760, Note_on_c, 4, 67, 0
6, 155760, Note_on_c, 4, 79, 0
6, 155760, Note_on_c, 4, 71, 105
6, 155880, Note_on_c, 4, 71, 0
6, 155880, Note_on_c, 4, 67, 105
6, 156000, Note_on_c, 4, 67, 0
6, 156000, Note_on_c, 4, 74, 105
6, 156120, Note_on_c, 4, 74, 0
6, 156120, Note_on_c, 4, 71, 105
6, 156240, Note_on_c, 4, 71, 0
6, 156240, Note_on_c, 4, 79, 105
6, 156360, Note_on_c, 4, 79, 0
6, 156360, Note_on_c, 4, 74, 105
6, 156480, Note_on_c, 4, 74, 0
6, 156480, Note_on_c, 4, 83, 105
6, 156600, Note_on_c, 4, 74, 105
6, 156720, Note_on_c, 4, 74, 0
6, 156720, Note_on_c, 4, 83, 0
6, 156720, Note_on_c, 4, 79, 105
6, 156840, Note_on_c, 4, 79, 0
6, 156840, Note_on_c, 4, 74, 105
6, 156960, Note_on_c, 4, 74, 0
6, 156960, Note_on_c, 4, 83, 105
6, 157080, Note_on_c, 4, 83, 0
6, 157080, Note_on_c, 4, 79, 105
6, 157200, Note_on_c, 4, 79, 0
6, 157200, Note_on_c, 4, 86, 105
6, 157320, Note_on_c, 4, 86, 0
6, 157320, Note_on_c, 4, 83, 105
6, 157440, Note_on_c, 4, 83, 0
6, 157440, Note_on_c, 4, 38, 105
6, 157440, Note_on_c, 4, 50, 105
6, 157560, Note_on_c, 4, 84, 105
6, 157680, Note_on_c, 4, 84, 0
6, 157680, Note_on_c, 4, 50, 0
6, 157680, Note_on_c, 4, 38, 0
6, 157680, Note_on_c, 4, 81, 105
6, 157800, Note_on_c, 4, 81, 0
6, 157800, Note_on_c, 4, 78, 105
6, 157920, Note_on_c, 4, 78, 0
6, 157920, Note_on_c, 4, 72, 105
6, 158040, Note_on_c, 4, 81, 105
6, 158160, Note_on_c, 4, 81, 0
6, 158160, Note_on_c, 4, 72, 0
6, 158160, Note_on_c, 4, 78, 105
6, 158280, Note_on_c, 4, 78, 0
6, 158280, Note_on_c, 4, 74, 105
6, 158400, Note_on_c, 4, 74, 0
6, 158400, Note_on_c, 4, 69, 105
6, 158520, Note_on_c, 4, 78, 105
6, 158640, Note_on_c, 4, 78, 0
6, 158640, Note_on_c, 4, 69, 0
6, 158640, Note_on_c, 4, 74, 105
6, 158760, Note_on_c, 4, 74, 0
6, 158760, Note_on_c, 4, 72, 105
6, 158880, Note_on_c, 4, 72, 0
6, 158880, Note_on_c, 4, 66, 105
6, 159000, Note_on_c, 4, 74, 105
6, 159120, Note_on_c, 4, 74, 0
6, 159120, Note_on_c, 4, 66, 0
6, 159120, Note_on_c, 4, 72, 105
6, 159240, Note_on_c, 4, 72, 0
6, 159240, Note_on_c, 4, 69, 105
6, 159360, Note_on_c, 4, 69, 0
6, 159360, Note_on_c, 4, 62, 105
6, 159480, Note_on_c, 4, 72, 105
6, 159600, Note_on_c, 4, 72, 0
6, 159600, Note_on_c, 4, 62, 0
6, 159600, Note_on_c, 4, 69, 105
6, 159720, Note_on_c, 4, 69, 0
6, 159720, Note_on_c, 4, 66, 105
6, 159840, Note_on_c, 4, 66, 0
6, 159840, Note_on_c, 4, 60, 105
6, 159960, Note_on_c, 4, 69, 105
6, 160080, Note_on_c, 4, 69, 0
6, 160080, Note_on_c, 4, 60, 0
6, 160080, Note_on_c, 4, 66, 105
6, 160200, Note_on_c, 4, 66, 0
6, 160200, Note_on_c, 4, 62, 105
6, 160320, Note_on_c, 4, 62, 0
6, 160320, Note_on_c, 4, 57, 105
6, 160440, Note_on_c, 4, 66, 105
6, 160560, Note_on_c, 4, 66, 0
6, 160560, Note_on_c, 4, 57, 0
6, 160560, Note_on_c, 4, 62, 105
6, 160680, Note_on_c, 4, 62, 0
6, 160680, Note_on_c, 4, 60, 105
6, 160800, Note_on_c, 4, 60, 0
6, 160800, Note_on_c, 4, 54, 105
6, 160920, Note_on_c, 4, 62, 105
6, 161040, Note_on_c, 4, 62, 0
6, 161040, Note_on_c, 4, 54, 0
6, 161040, Note_on_c, 4, 60, 105
6, 161160, Note_on_c, 4, 60, 0
6, 161160, Note_on_c, 4, 57, 105
6, 161280, Note_on_c, 4, 57, 0
6, 161280, Note_on_c, 4, 43, 105
6, 161280, Note_on_c, 4, 55, 105
6, 161400, Note_on_c, 4, 59, 105
6, 161520, Note_on_c, 4, 59, 0
6, 161520, Note_on_c, 4, 55, 0
6, 161520, Note_on_c, 4, 43, 0
6, 161520, Note_on_c, 4, 62, 105
6, 161640, Note_on_c, 4, 62, 0
6, 161640, Note_on_c, 4, 59, 105
6, 161760, Note_on_c, 4, 59, 0
6, 161760, Note_on_c, 4, 67, 105
6, 161880, Note_on_c, 4, 67, 0
6, 161880, Note_on_c, 4, 62, 105
6, 162000, Note_on_c, 4, 62, 0
6, 162000, Note_on_c, 4, 71, 105
6, 162120, Note_on_c, 4, 71, 0
6, 162120, Note_on_c, 4, 67, 105
6, 162240, Note_on_c, 4, 67, 0
6, 162240, Note_on_c, 4, 74, 105
6, 162360, Note_on_c, 4, 62, 105
6, 162480, Note_on_c, 4, 62, 0
6, 162480, Note_on_c, 4, 74, 0
6, 162480, Note_on_c, 4, 67, 105
6, 162600, Note_on_c, 4, 67, 0
6, 162600, Note_on_c, 4, 62, 105
6, 162720, Note_on_c, 4, 62, 0
6, 162720, Note_on_c, 4, 71, 105
6, 162840, Note_on_c, 4, 71, 0
6, 162840, Note_on_c, 4, 67, 105
6, 162960, Note_on_c, 4, 67, 0
6, 162960, Note_on_c, 4, 74, 105
6, 163080, Note_on_c, 4, 74, 0
6, 163080, Note_on_c, 4, 71, 105
6, 163200, Note_on_c, 4, 71, 0
6, 163200, Note_on_c, 4, 79, 105
6, 163320, Note_on_c, 4, 67, 105
6, 163440, Note_on_c, 4, 67, 0
6, 163440, Note_on_c, 4, 79, 0
6, 163440, Note_on_c, 4, 71, 105
6, 163560, Note_on_c, 4, 71, 0
6, 163560, Note_on_c, 4, 67, 105
6, 163680, Note_on_c, 4, 67, 0
6, 163680, Note_on_c, 4, 74, 105
6, 163800, Note_on_c, 4, 74, 0
6, 163800, Note_on_c, 4, 71, 105
6, 163920, Note_on_c, 4, 71, 0
6, 163920, Note_on_c, 4, 79, 105
6, 164040, Note_on_c, 4, 79, 0
6, 164040, Note_on_c, 4, 74, 105
6, 164160, Note_on_c, 4, 74, 0
6, 164160, Note_on_c, 4, 83, 105
6, 164280, Note_on_c, 4, 74, 105
6, 164400, Note_on_c, 4, 74, 0
6, 164400, Note_on_c, 4, 83, 0
6, 164400, Note_on_c, 4, 79, 105
6, 164520, Note_on_c, 4, 79, 0
6, 164520, Note_on_c, 4, 74, 105
6, 164640, Note_on_c, 4, 74, 0
6, 164640, Note_on_c, 4, 83, 105
6, 164760, Note_on_c, 4, 83, 0
6, 164760, Note_on_c, 4, 79, 105
6, 164880, Note_on_c, 4, 79, 0
6, 164880, Note_on_c, 4, 86, 105
6, 165000, Note_on_c, 4, 86, 0
6, 165000, Note_on_c, 4, 83, 105
6, 165120, Note_on_c, 4, 83, 0
6, 165120, Note_on_c, 4, 78, 105
6, 165120, Note_on_c, 4, 81, 105
6, 165120, Note_on_c, 4, 50, 105
6, 165120, Note_on_c, 4, 62, 105
6, 165600, Note_on_c, 4, 62, 0
6, 165600, Note_on_c, 4, 78, 0
6, 165600, Note_on_c, 4, 81, 0
6, 165600, Note_on_c, 4, 50, 0
6, 174720, Note_on_c, 4, 74, 105
6, 174720, Note_on_c, 4, 59, 105
6, 174840, Note_on_c, 4, 59, 0
6, 174840, Note_on_c, 4, 74, 0
6, 174840, Note_on_c, 4, 76, 105
6, 174840, Note_on_c, 4, 60, 105
6, 174960, Note_on_c, 4, 60, 0
6, 174960, Note_on_c, 4, 76, 0
6, 174960, Note_on_c, 4, 74, 105
6, 174960, Note_on_c, 4, 59, 105
6, 175080, Note_on_c, 4, 59, 0
6, 175080, Note_on_c, 4, 74, 0
6, 175080, Note_on_c, 4, 72, 105
6, 175080, Note_on_c, 4, 57, 105
6, 175200, Note_on_c, 4, 57, 0
6, 175200, Note_on_c, 4, 72, 0
6, 175200, Note_on_c, 4, 71, 105
6, 175200, Note_on_c, 4, 55, 105
6, 175680, Note_on_c, 4, 55, 0
6, 175680, Note_on_c, 4, 71, 0
6, 178560, Note_on_c, 4, 86, 105
6, 178560, Note_on_c, 4, 71, 105
6, 178680, Note_on_c, 4, 71, 0
6, 178680, Note_on_c, 4, 86, 0
6, 178680, Note_on_c, 4, 88, 105
6, 178680, Note_on_c, 4, 72, 105
6, 178800, Note_on_c, 4, 72, 0
6, 178800, Note_on_c, 4, 88, 0
6, 178800, Note_on_c, 4, 86, 105
6, 178800, Note_on_c, 4, 71, 105
6, 178920, Note_on_c, 4, 71, 0
6, 178920, Note_on_c, 4, 86, 0
6, 178920, Note_on_c, 4, 84, 105
6, 178920, Note_on_c, 4, 69, 105
6, 179040, Note_on_c, 4, 69, 0
6, 179040, Note_on_c, 4, 84, 0
6, 179040, Note_on_c, 4, 83, 105
6, 179040, Note_on_c, 4, 67, 105
6, 179520, Note_on_c, 4, 67, 0
6, 179520, Note_on_c, 4, 83, 0
6, 182400, Note_on_c, 4, 74, 105
6, 182400, Note_on_c, 4, 59, 105
6, 182520, Note_on_c, 4, 59, 0
6, 182520, Note_on_c, 4, 74, 0
6, 182520, Note_on_c, 4, 76, 105
6, 182520, Note_on_c, 4, 60, 105
6, 182640, Note_on_c, 4, 60, 0
6, 182640, Note_on_c, 4, 76, 0
6, 182640, Note_on_c, 4, 74, 105
6, 182640, Note_on_c, 4, 59, 105
6, 182760, Note_on_c, 4, 59, 0
6, 182760, Note_on_c, 4, 74, 0
6, 182760, Note_on_c, 4, 72, 105
6, 182760, Note_on_c, 4, 57, 105
6, 182880, Note_on_c, 4, 57, 0
6, 182880, Note_on_c, 4, 72, 0
6, 182880, Note_on_c, 4, 71, 105
6, 182880, Note_on_c, 4, 55, 105
6, 183360, Note_on_c, 4, 55, 0
6, 183360, Note_on_c, 4, 71, 0
6, 184320, Note_on_c, 4, 79, 105
6, 184320, Note_on_c, 4, 64, 105
6, 184440, Note_on_c, 4, 64, 0
6, 184440, Note_on_c, 4, 79, 0
6, 184440, Note_on_c, 4, 81, 105
6, 184440, Note_on_c, 4, 65, 105
6, 184560, Note_on_c, 4, 65, 0
6, 184560, Note_on_c, 4, 81, 0
6, 184560, Note_on_c, 4, 79, 105
6, 184560, Note_on_c, 4, 64, 105
6, 184680, Note_on_c, 4, 64, 0
6, 184680, Note_on_c, 4, 79, 0
6, 184680, Note_on_c, 4, 77, 105
6, 184680, Note_on_c, 4, 62, 105
6, 184800, Note_on_c, 4, 62, 0
6, 184800, Note_on_c, 4, 77, 0
6, 184800, Note_on_c, 4, 76, 105
6, 184800, Note_on_c, 4, 60, 105
6, 185280, Note_on_c, 4, 60, 0
6, 185280, Note_on_c, 4, 76, 0
6, 186240, Note_on_c, 4, 77, 105
6, 186240, Note_on_c, 4, 62, 105
6, 186360, Note_on_c, 4, 62, 0
6, 186360, Note_on_c, 4, 77, 0
6, 186360, Note_on_c, 4, 79, 105
6, 186360, Note_on_c, 4, 64, 105
6, 186480, Note_on_c, 4, 64, 0
6, 186480, Note_on_c, 4, 79, 0
6, 186480, Note_on_c, 4, 77, 105
6, 186480, Note_on_c, 4, 62, 105
6, 186600, Note_on_c, 4, 62, 0
6, 186600, Note_on_c, 4, 77, 0
6, 186600, Note_on_c, 4, 76, 105
6, 186600, Note_on_c, 4, 60, 105
6, 186720, Note_on_c, 4, 60, 0
6, 186720, Note_on_c, 4, 76, 0
6, 186720, Note_on_c, 4, 74, 105
6, 186720, Note_on_c, 4, 59, 105
6, 187200, Note_on_c, 4, 59, 0
6, 187200, Note_on_c, 4, 74, 0
6, 188160, Note_on_c, 4, 76, 105
6, 188160, Note_on_c, 4, 60, 105
6, 188280, Note_on_c, 4, 76, 0
6, 188280, Note_on_c, 4, 79, 105
6, 188400, Note_on_c, 4, 79, 0
6, 188400, Note_on_c, 4, 60, 0
6, 188400, Note_on_c, 4, 84, 105
6, 188400, Note_on_c, 4, 64, 105
6, 188520, Note_on_c, 4, 84, 0
6, 188520, Note_on_c, 4, 79, 105
6, 188640, Note_on_c, 4, 79, 0
6, 188640, Note_on_c, 4, 64, 0
6, 188640, Note_on_c, 4, 88, 105
6, 188640, Note_on_c, 4, 67, 105
6, 188760, Note_on_c, 4, 88, 0
6, 188760, Note_on_c, 4, 84, 105
6, 188880, Note_on_c, 4, 84, 0
6, 188880, Note_on_c, 4, 67, 0
6, 188880, Note_on_c, 4, 79, 105
6, 188880, Note_on_c, 4, 60, 105
6, 189000, Note_on_c, 4, 79, 0
6, 189000, Note_on_c, 4, 76, 105
6, 189120, Note_on_c, 4, 76, 0
6, 189120, Note_on_c, 4, 60, 0
6, 189120, Note_on_c, 4, 74, 105
6, 189120, Note_on_c, 4, 59, 105
6, 189240, Note_on_c, 4, 74, 0
6, 189240, Note_on_c, 4, 79, 105
6, 189360, Note_on_c, 4, 79, 0
6, 189360, Note_on_c, 4, 59, 0
6, 189360, Note_on_c, 4, 83, 105
6, 189360, Note_on_c, 4, 62, 105
6, 189480, Note_on_c, 4, 83, 0
6, 189480, Note_on_c, 4, 79, 105
6, 189600, Note_on_c, 4, 79, 0
6, 189600, Note_on_c, 4, 62, 0
6, 189600, Note_on_c, 4, 86, 105
6, 189600, Note_on_c, 4, 67, 105
6, 189720, Note_on_c, 4, 86, 0
6, 189720, Note_on_c, 4, 83, 105
6, 189840, Note_on_c, 4, 83, 0
6, 189840, Note_on_c, 4, 67, 0
6, 189840, Note_on_c, 4, 79, 105
6, 189840, Note_on_c, 4, 59, 105
6, 189960, Note_on_c, 4, 79, 0
6, 189960, Note_on_c, 4, 74, 105
6, 190080, Note_on_c, 4, 74, 0
6, 190080, Note_on_c, 4, 59, 0
6, 190080, Note_on_c, 4, 76, 105
6, 190080, Note_on_c, 4, 60, 105
6, 190200, Note_on_c, 4, 76, 0
6, 190200, Note_on_c, 4, 79, 105
6, 190320, Note_on_c, 4, 79, 0
6, 190320, Note_on_c, 4, 60, 0
6, 190320, Note_on_c, 4, 84, 105
6, 190320, Note_on_c, 4, 64, 105
6, 190440, Note_on_c, 4, 84, 0
6, 190440, Note_on_c, 4, 79, 105
6, 190560, Note_on_c, 4, 79, 0
6, 190560, Note_on_c, 4, 64, 0
6, 190560, Note_on_c, 4, 88, 105
6, 190560, Note_on_c, 4, 67, 105
6, 190680, Note_on_c, 4, 88, 0
6, 190680, Note_on_c, 4, 84, 105
6, 190800, Note_on_c, 4, 84, 0
6, 190800, Note_on_c, 4, 67, 0
6, 190800, Note_on_c, 4, 79, 105
6, 190800, Note_on_c, 4, 60, 105
6, 190920, Note_on_c, 4, 79, 0
6, 190920, Note_on_c, 4, 76, 105
6, 191040, Note_on_c, 4, 76, 0
6, 191040, Note_on_c, 4, 60, 0
6, 191040, Note_on_c, 4, 74, 105
6, 191040, Note_on_c, 4, 59, 105
6, 191160, Note_on_c, 4, 74, 0
6, 191160, Note_on_c, 4, 79, 105
6, 191280, Note_on_c, 4, 79, 0
6, 191280, Note_on_c, 4, 59, 0
6, 191280, Note_on_c, 4, 83, 105
6, 191280, Note_on_c, 4, 62, 105
6, 191400, Note_on_c, 4, 83, 0
6, 191400, Note_on_c, 4, 79, 105
6, 191520, Note_on_c, 4, 79, 0
6, 191520, Note_on_c, 4, 62, 0
6, 191520, Note_on_c, 4, 86, 105
6, 191520, Note_on_c, 4, 67, 105
6, 191640, Note_on_c, 4, 86, 0
6, 191640, Note_on_c, 4, 83, 105
6, 191760, Note_on_c, 4, 83, 0
6, 191760, Note_on_c, 4, 67, 0
6, 191760, Note_on_c, 4, 79, 105
6, 191760, Note_on_c, 4, 59, 105
6, 191880, Note_on_c, 4, 79, 0
6, 191880, Note_on_c, 4, 74, 105
6, 192000, Note_on_c, 4, 74, 0
6, 192000, Note_on_c, 4, 59, 0
6, 192000, Note_on_c, 4, 72, 105
6, 192000, Note_on_c, 4, 60, 105
6, 192240, Note_on_c, 4, 60, 0
6, 192240, Note_on_c, 4, 72, 0
6, 192240, Note_on_c, 4, 84, 105
6, 192240, Note_on_c, 4, 69, 105
6, 192360, Note_on_c, 4, 69, 0
6, 192360, Note_on_c, 4, 84, 0
6, 192360, Note_on_c, 4, 86, 105
6, 192360, Note_on_c, 4, 71, 105
6, 192480, Note_on_c, 4, 71, 0
6, 192480, Note_on_c, 4, 86, 0
6, 192480, Note_on_c, 4, 88, 105
6, 192480, Note_on_c, 4, 72, 105
6, 192600, Note_on_c, 4, 72, 0
6, 192600, Note_on_c, 4, 88, 0
6, 192600, Note_on_c, 4, 86, 105
6, 192600, Note_on_c, 4, 71, 105
6, 192720, Note_on_c, 4, 71, 0
6, 192720, Note_on_c, 4, 86, 0
6, 192720, Note_on_c, 4, 84, 105
6, 192720, Note_on_c, 4, 69, 105
6, 192840, Note_on_c, 4, 69, 0
6, 192840, Note_on_c, 4, 84, 0
6, 192840, Note_on_c, 4, 83, 105
6, 192840, Note_on_c, 4, 67, 105
6, 192960, Note_on_c, 4, 67, 0
6, 192960, Note_on_c, 4, 83, 0
6, 192960, Note_on_c, 4, 81, 105
6, 192960, Note_on_c, 4, 66, 105
6, 193080, Note_on_c, 4, 66, 0
6, 193080, Note_on_c, 4, 81, 0
6, 193080, Note_on_c, 4, 83, 105
6, 193080, Note_on_c, 4, 67, 105
6, 193200, Note_on_c, 4, 67, 0
6, 193200, Note_on_c, 4, 83, 0
6, 193200, Note_on_c, 4, 81, 105
6, 193200, Note_on_c, 4, 66, 105
6, 193320, Note_on_c, 4, 66, 0
6, 193320, Note_on_c, 4, 81, 0
6, 193320, Note_on_c, 4, 79, 105
6, 193320, Note_on_c, 4, 64, 105
6, 193440, Note_on_c, 4, 64, 0
6, 193440, Note_on_c, 4, 79, 0
6, 193440, Note_on_c, 4, 78, 105
6, 193440, Note_on_c, 4, 62, 105
6, 193560, Note_on_c, 4, 62, 0
6, 193560, Note_on_c, 4, 78, 0
6, 193560, Note_on_c, 4, 76, 105
6, 193560, Note_on_c, 4, 60, 105
6, 193680, Note_on_c, 4, 60, 0
6, 193680, Note_on_c, 4, 76, 0
6, 193680, Note_on_c, 4, 74, 105
6, 193680, Note_on_c, 4, 59, 105
6, 193800, Note_on_c, 4, 59, 0
6, 193800, Note_on_c, 4, 74, 0
6, 193800, Note_on_c, 4, 72, 105
6, 193800, Note_on_c, 4, 57, 105
6, 193920, Note_on_c, 4, 57, 0
6, 193920, Note_on_c, 4, 72, 0
6, 193920, Note_on_c, 4, 71, 105
6, 193920, Note_on_c, 4, 55, 105
6, 194160, Note_on_c, 4, 55, 0
6, 194160, Note_on_c, 4, 71, 0
6, 194160, Note_on_c, 4, 83, 105
6, 194160, Note_on_c, 4, 67, 105
6, 194280, Note_on_c, 4, 67, 0
6, 194280, Note_on_c, 4, 83, 0
6, 194280, Note_on_c, 4, 84, 105
6, 194280, Note_on_c, 4, 69, 105
6, 194400, Note_on_c, 4, 69, 0
6, 194400, Note_on_c, 4, 84, 0
6, 194400, Note_on_c, 4, 86, 105
6, 194400, Note_on_c, 4, 71, 105
6, 194520, Note_on_c, 4, 71, 0
6, 194520, Note_on_c, 4, 86, 0
6, 194520, Note_on_c, 4, 84, 105
6, 194520, Note_on_c, 4, 69, 105
6, 194640, Note_on_c, 4, 69, 0
6, 194640, Note_on_c, 4, 84, 0
6, 194640, Note_on_c, 4, 83, 105
6, 194640, Note_on_c, 4, 67, 105
6, 194760, Note_on_c, 4, 67, 0
6, 194760, Note_on_c, 4, 83, 0
6, 194760, Note_on_c, 4, 81, 105
6, 194760, Note_on_c, 4, 66, 105
6, 194880, Note_on_c, 4, 66, 0
6, 194880, Note_on_c, 4, 81, 0
6, 194880, Note_on_c, 4, 79, 105
6, 194880, Note_on_c, 4, 64, 105
6, 195000, Note_on_c, 4, 64, 0
6, 195000, Note_on_c, 4, 79, 0
6, 195000, Note_on_c, 4, 81, 105
6, 195000, Note_on_c, 4, 66, 105
6, 195120, Note_on_c, 4, 66, 0
6, 195120, Note_on_c, 4, 81, 0
6, 195120, Note_on_c, 4, 79, 105
6, 195120, Note_on_c, 4, 64, 105
6, 195240, Note_on_c, 4, 64, 0
6, 195240, Note_on_c, 4, 79, 0
6, 195240, Note_on_c, 4, 78, 105
6, 195240, Note_on_c, 4, 62, 105
6, 195360, Note_on_c, 4, 62, 0
6, 195360, Note_on_c, 4, 78, 0
6, 195360, Note_on_c, 4, 76, 105
6, 195360, Note_on_c, 4, 60, 105
6, 195480, Note_on_c, 4, 60, 0
6, 195480, Note_on_c, 4, 76, 0
6, 195480, Note_on_c, 4, 74, 105
6, 195480, Note_on_c, 4, 59, 105
6, 195600, Note_on_c, 4, 59, 0
6, 195600, Note_on_c, 4, 74, 0
6, 195600, Note_on_c, 4, 72, 105
6, 195600, Note_on_c, 4, 57, 105
6, 195720, Note_on_c, 4, 57, 0
6, 195720, Note_on_c, 4, 72, 0
6, 195720, Note_on_c, 4, 71, 105
6, 195720, Note_on_c, 4, 55, 105
6, 195840, Note_on_c, 4, 55, 0
6, 195840, Note_on_c, 4, 71, 0
6, 195840, Note_on_c, 4, 76, 105
6, 195840, Note_on_c, 4, 48, 105
6, 195960, Note_on_c, 4, 76, 0
6, 195960, Note_on_c, 4, 72, 105
6, 196080, Note_on_c, 4, 72, 0
6, 196080, Note_on_c, 4, 48, 0
6, 196080, Note_on_c, 4, 76, 105
6, 196080, Note_on_c, 4, 60, 105
6, 196200, Note_on_c, 4, 76, 0
6, 196200, Note_on_c, 4, 72, 105
6, 196320, Note_on_c, 4, 72, 0
6, 196320, Note_on_c, 4, 60, 0
6, 196320, Note_on_c, 4, 69, 105
6, 196320, Note_on_c, 4, 48, 105
6, 196560, Note_on_c, 4, 48, 0
6, 196560, Note_on_c, 4, 69, 0
6, 196560, Note_on_c, 4, 76, 105
6, 196560, Note_on_c, 4, 60, 105
6, 196800, Note_on_c, 4, 60, 0
6, 196800, Note_on_c, 4, 76, 0
6, 196800, Note_on_c, 4, 74, 105
6, 196800, Note_on_c, 4, 50, 105
6, 197040, Note_on_c, 4, 50, 0
6, 197040, Note_on_c, 4, 74, 0
6, 197040, Note_on_c, 4, 72, 105
6, 197040, Note_on_c, 4, 62, 105
6, 197136, Note_on_c, 4, 72, 0
6, 197280, Note_on_c, 4, 62, 0
6, 197280, Note_on_c, 4, 71, 105
6, 197280, Note_on_c, 4, 50, 105
6, 197376, Note_on_c, 4, 71, 0
6, 197520, Note_on_c, 4, 50, 0
6, 197520, Note_on_c, 4, 69, 105
6, 197520, Note_on_c, 4, 62, 105
6, 197616, Note_on_c, 4, 69, 0
6, 197760, Note_on_c, 4, 62, 0
6, 197760, Note_on_c, 4, 67, 105
6, 197760, Note_on_c, 4, 43, 105
6, 197760, Note_on_c, 4, 55, 105
6, 197880, Note_on_c, 4, 67, 0
6, 197880, Note_on_c, 4, 71, 105
6, 198000, Note_on_c, 4, 71, 0
6, 198000, Note_on_c, 4, 55, 0
6, 198000, Note_on_c, 4, 43, 0
6, 198000, Note_on_c, 4, 69, 105
6, 198000, Note_on_c, 4, 45, 105
6, 198000, Note_on_c, 4, 57, 105
6, 198120, Note_on_c, 4, 69, 0
6, 198120, Note_on_c, 4, 72, 105
6, 198240, Note_on_c, 4, 72, 0
6, 198240, Note_on_c, 4, 57, 0
6, 198240, Note_on_c, 4, 45, 0
6, 198240, Note_on_c, 4, 71, 105
6, 198240, Note_on_c, 4, 47, 105
6, 198240, Note_on_c, 4, 59, 105
6, 198360, Note_on_c, 4, 71, 0
6, 198360, Note_on_c, 4, 74, 105
6, 198480, Note_on_c, 4, 74, 0
6, 198480, Note_on_c, 4, 59, 0
6, 198480, Note_on_c, 4, 47, 0
6, 198480, Note_on_c, 4, 72, 105
6, 198480, Note_on_c, 4, 48, 105
6, 198480, Note_on_c, 4, 60, 105
6, 198600, Note_on_c, 4, 72, 0
6, 198600, Note_on_c, 4, 76, 105
6, 198720, Note_on_c, 4, 76, 0
6, 198720, Note_on_c, 4, 60, 0
6, 198720, Note_on_c, 4, 48, 0
6, 198720, Note_on_c, 4, 74, 105
6, 198720, Note_on_c, 4, 50, 105
6, 198720, Note_on_c, 4, 62, 105
6, 198816, Note_on_c, 4, 74, 0
6, 198960, Note_on_c, 4, 76, 105
6, 199056, Note_on_c, 4, 76, 0
6, 199200, Note_on_c, 4, 62, 0
6, 199200, Note_on_c, 4, 50, 0
6, 199200, Note_on_c, 4, 78, 105
6, 199296, Note_on_c, 4, 78, 0
6, 199440, Note_on_c, 4, 79, 105
6, 199536, Note_on_c, 4, 79, 0
6, 199680, Note_on_c, 4, 69, 105
6, 199800, Note_on_c, 4, 69, 0
6, 199800, Note_on_c, 4, 71, 105
6, 199920, Note_on_c, 4, 71, 0
6, 199920, Note_on_c, 4, 69, 105
6, 200040, Note_on_c, 4, 69, 0
6, 200040, Note_on_c, 4, 71, 105
6, 200160, Note_on_c, 4, 71, 0
6, 200160, Note_on_c, 4, 69, 105
6, 200160, Note_on_c, 4, 60, 105
6, 200280, Note_on_c, 4, 60, 0
6, 200280, Note_on_c, 4, 59, 105
6, 200400, Note_on_c, 4, 59, 0
6, 200400, Note_on_c, 4, 57, 105
6, 200520, Note_on_c, 4, 57, 0
6, 200520, Note_on_c, 4, 55, 105
6, 200640, Note_on_c, 4, 55, 0
6, 200640, Note_on_c, 4, 69, 0
6, 200640, Note_on_c, 4, 84, 105
6, 200640, Note_on_c, 4, 54, 105
6, 200760, Note_on_c, 4, 84, 0
6, 200760, Note_on_c, 4, 83, 105
6, 200880, Note_on_c, 4, 83, 0
6, 200880, Note_on_c, 4, 84, 105
6, 201000, Note_on_c, 4, 84, 0
6, 201000, Note_on_c, 4, 83, 105
6, 201120, Note_on_c, 4, 83, 0
6, 201120, Note_on_c, 4, 54, 0
6, 201120, Note_on_c, 4, 84, 105
6, 201120, Note_on_c, 4, 50, 105
6, 201240, Note_on_c, 4, 50, 0
6, 201240, Note_on_c, 4, 48, 105
6, 201360, Note_on_c, 4, 48, 0
6, 201360, Note_on_c, 4, 47, 105
6, 201480, Note_on_c, 4, 47, 0
6, 201480, Note_on_c, 4, 45, 105
6, 201600, Note_on_c, 4, 45, 0
6, 201600, Note_on_c, 4, 84, 0
6, 201600, Note_on_c, 4, 67, 105
6, 201600, Note_on_c, 4, 43, 105
6, 201720, Note_on_c, 4, 67, 0
6, 201720, Note_on_c, 4, 69, 105
6, 201840, Note_on_c, 4, 69, 0
6, 201840, Note_on_c, 4, 67, 105
6, 201960, Note_on_c, 4, 67, 0
6, 201960, Note_on_c, 4, 69, 105
6, 202080, Note_on_c, 4, 69, 0
6, 202080, Note_on_c, 4, 43, 0
6, 202080, Note_on_c, 4, 67, 105
6, 202080, Note_on_c, 4, 59, 105
6, 202200, Note_on_c, 4, 59, 0
6, 202200, Note_on_c, 4, 57, 105
6, 202320, Note_on_c, 4, 57, 0
6, 202320, Note_on_c, 4, 55, 105
6, 202440, Note_on_c, 4, 55, 0
6, 202440, Note_on_c, 4, 54, 105
6, 202560, Note_on_c, 4, 54, 0
6, 202560, Note_on_c, 4, 67, 0
6, 202560, Note_on_c, 4, 83, 105
6, 202560, Note_on_c, 4, 52, 105
6, 202680, Note_on_c, 4, 83, 0
6, 202680, Note_on_c, 4, 82, 105
6, 202800, Note_on_c, 4, 82, 0
6, 202800, Note_on_c, 4, 83, 105
6, 202920, Note_on_c, 4, 83, 0
6, 202920, Note_on_c, 4, 82, 105
6, 203040, Note_on_c, 4, 82, 0
6, 203040, Note_on_c, 4, 52, 0
6, 203040, Note_on_c, 4, 83, 105
6, 203040, Note_on_c, 4, 67, 105
6, 203160, Note_on_c, 4, 67, 0
6, 203160, Note_on_c, 4, 66, 105
6, 203280, Note_on_c, 4, 66, 0
6, 203280, Note_on_c, 4, 64, 105
6, 203400, Note_on_c, 4, 64, 0
6, 203400, Note_on_c, 4, 62, 105
6, 203520, Note_on_c, 4, 62, 0
6, 203520, Note_on_c, 4, 83, 0
6, 203520, Note_on_c, 4, 60, 105
6, 203640, Note_on_c, 4, 60, 0
6, 203640, Note_on_c, 4, 64, 105
6, 203760, Note_on_c, 4, 64, 0
6, 203760, Note_on_c, 4, 69, 105
6, 203880, Note_on_c, 4, 69, 0
6, 203880, Note_on_c, 4, 72, 105
6, 204000, Note_on_c, 4, 72, 0
6, 204000, Note_on_c, 4, 76, 105
6, 204120, Note_on_c, 4, 76, 0
6, 204120, Note_on_c, 4, 81, 105
6, 204240, Note_on_c, 4, 81, 0
6, 204240, Note_on_c, 4, 84, 105
6, 204360, Note_on_c, 4, 84, 0
6, 204360, Note_on_c, 4, 88, 105
6, 204480, Note_on_c, 4, 88, 0
6, 204480, Note_on_c, 4, 86, 105
6, 204480, Note_on_c, 4, 74, 105
6, 204600, Note_on_c, 4, 86, 0
6, 204600, Note_on_c, 4, 83, 105
6, 204720, Note_on_c, 4, 83, 0
6, 204720, Note_on_c, 4, 74, 0
6, 204720, Note_on_c, 4, 84, 105
6, 204840, Note_on_c, 4, 84, 0
6, 204840, Note_on_c, 4, 81, 105
6, 204960, Note_on_c, 4, 81, 0
6, 204960, Note_on_c, 4, 83, 105
6, 204960, Note_on_c, 4, 62, 105
6, 205080, Note_on_c, 4, 83, 0
6, 205080, Note_on_c, 4, 79, 105
6, 205200, Note_on_c, 4, 79, 0
6, 205200, Note_on_c, 4, 62, 0
6, 205200, Note_on_c, 4, 81, 105
6, 205320, Note_on_c, 4, 81, 0
6, 205320, Note_on_c, 4, 78, 105
6, 205440, Note_on_c, 4, 78, 0
6, 205440, Note_on_c, 4, 79, 105
6, 205440, Note_on_c, 4, 67, 105
6, 205560, Note_on_c, 4, 79, 0
6, 205560, Note_on_c, 4, 74, 105
6, 205680, Note_on_c, 4, 74, 0
6, 205680, Note_on_c, 4, 76, 105
6, 205800, Note_on_c, 4, 76, 0
6, 205800, Note_on_c, 4, 72, 105
6, 205920, Note_on_c, 4, 72, 0
6, 205920, Note_on_c, 4, 67, 0
6, 205920, Note_on_c, 4, 74, 105
6, 206040, Note_on_c, 4, 74, 0
6, 206040, Note_on_c, 4, 71, 105
6, 206160, Note_on_c, 4, 71, 0
6, 206160, Note_on_c, 4, 72, 105
6, 206280, Note_on_c, 4, 72, 0
6, 206280, Note_on_c, 4, 69, 105
6, 206400, Note_on_c, 4, 69, 0
6, 206400, Note_on_c, 4, 67, 105
6, 206640, Note_on_c, 4, 67, 0
6, 206640, Note_on_c, 4, 62, 105
6, 206880, Note_on_c, 4, 62, 0
6, 206880, Note_on_c, 4, 69, 105
6, 207120, Note_on_c, 4, 69, 0
6, 207120, Note_on_c, 4, 62, 105
6, 207360, Note_on_c, 4, 62, 0
6, 207360, Note_on_c, 4, 71, 105
6, 207600, Note_on_c, 4, 71, 0
6, 207600, Note_on_c, 4, 62, 105
6, 207840, Note_on_c, 4, 62, 0
6, 207840, Note_on_c, 4, 71, 105
6, 208080, Note_on_c, 4, 71, 0
6, 208080, Note_on_c, 4, 62, 105
6, 208320, Note_on_c, 4, 62, 0
6, 208320, Note_on_c, 4, 67, 105
6, 208560, Note_on_c, 4, 67, 0
6, 208560, Note_on_c, 4, 62, 105
6, 208800, Note_on_c, 4, 62, 0
6, 208800, Note_on_c, 4, 69, 105
6, 209040, Note_on_c, 4, 69, 0
6, 209040, Note_on_c, 4, 62, 105
6, 209280, Note_on_c, 4, 62, 0
6, 209280, Note_on_c, 4, 71, 105
6, 209520, Note_on_c, 4, 71, 0
6, 209520, Note_on_c, 4, 62, 105
6, 209760, Note_on_c, 4, 62, 0
6, 209760, Note_on_c, 4, 71, 105
6, 210000, Note_on_c, 4, 71, 0
6, 210000, Note_on_c, 4, 62, 105
6, 210240, Note_on_c, 4, 62, 0
6, 210240, Note_on_c, 4, 67, 105
6, 210480, Note_on_c, 4, 67, 0
6, 210480, Note_on_c, 4, 62, 105
6, 210720, Note_on_c, 4, 62, 0
6, 210720, Note_on_c, 4, 69, 105
6, 210960, Note_on_c, 4, 69, 0
6, 210960, Note_on_c, 4, 62, 105
6, 211200, Note_on_c, 4, 62, 0
6, 211200, Note_on_c, 4, 71, 105
6, 211440, Note_on_c, 4, 71, 0
6, 211440, Note_on_c, 4, 62, 105
6, 211680, Note_on_c, 4, 62, 0
6, 211680, Note_on_c, 4, 69, 105
6, 211920, Note_on_c, 4, 69, 0
6, 211920, Note_on_c, 4, 62, 105
6, 212160, Note_on_c, 4, 62, 0
6, 212160, Note_on_c, 4, 67, 105
6, 212400, Note_on_c, 4, 67, 0
6, 212400, Note_on_c, 4, 62, 105
6, 212640, Note_on_c, 4, 62, 0
6, 212640, Note_on_c, 4, 66, 105
6, 212880, Note_on_c, 4, 66, 0
6, 212880, Note_on_c, 4, 62, 105
6, 213120, Note_on_c, 4, 62, 0
6, 213120, Note_on_c, 4, 67, 105
6, 213240, Note_on_c, 4, 50, 105
6, 213360, Note_on_c, 4, 50, 0
6, 213360, Note_on_c, 4, 52, 105
6, 213480, Note_on_c, 4, 52, 0
6, 213480, Note_on_c, 4, 54, 105
6, 213600, Note_on_c, 4, 54, 0
6, 213600, Note_on_c, 4, 67, 0
6, 213600, Note_on_c, 4, 55, 105
6, 213720, Note_on_c, 4, 55, 0
6, 213720, Note_on_c, 4, 57, 105
6, 213840, Note_on_c, 4, 57, 0
6, 213840, Note_on_c, 4, 59, 105
6, 213960, Note_on_c, 4, 59, 0
6, 213960, Note_on_c, 4, 57, 105
6, 214080, Note_on_c, 4, 57, 0
6, 214080, Note_on_c, 4, 72, 105
6, 214080, Note_on_c, 4, 55, 105
6, 214200, Note_on_c, 4, 72, 0
6, 214200, Note_on_c, 4, 71, 105
6, 214320, Note_on_c, 4, 71, 0
6, 214320, Note_on_c, 4, 55, 0
6, 214320, Note_on_c, 4, 69, 105
6, 214320, Note_on_c, 4, 50, 105
6, 214440, Note_on_c, 4, 69, 0
6, 214440, Note_on_c, 4, 71, 105
6, 214560, Note_on_c, 4, 71, 0
6, 214560, Note_on_c, 4, 50, 0
6, 214560, Note_on_c, 4, 74, 105
6, 214560, Note_on_c, 4, 57, 105
6, 214680, Note_on_c, 4, 74, 0
6, 214680, Note_on_c, 4, 72, 105
6, 214800, Note_on_c, 4, 72, 0
6, 214800, Note_on_c, 4, 57, 0
6, 214800, Note_on_c, 4, 71, 105
6, 214800, Note_on_c, 4, 50, 105
6, 214920, Note_on_c, 4, 71, 0
6, 214920, Note_on_c, 4, 72, 105
6, 215040, Note_on_c, 4, 72, 0
6, 215040, Note_on_c, 4, 50, 0
6, 215040, Note_on_c, 4, 74, 105
6, 215040, Note_on_c, 4, 59, 105
6, 215280, Note_on_c, 4, 59, 0
6, 215280, Note_on_c, 4, 74, 0
6, 215280, Note_on_c, 4, 79, 105
6, 215280, Note_on_c, 4, 50, 105
6, 215520, Note_on_c, 4, 50, 0
6, 215520, Note_on_c, 4, 79, 0
6, 215520, Note_on_c, 4, 74, 105
6, 215520, Note_on_c, 4, 59, 105
6, 215616, Note_on_c, 4, 74, 0
6, 215760, Note_on_c, 4, 59, 0
6, 215760, Note_on_c, 4, 74, 105
6, 215760, Note_on_c, 4, 50, 105
6, 215856, Note_on_c, 4, 74, 0
6, 216000, Note_on_c, 4, 50, 0
6, 216000, Note_on_c, 4, 72, 105
6, 216000, Note_on_c, 4, 55, 105
6, 216120, Note_on_c, 4, 72, 0
6, 216120, Note_on_c, 4, 71, 105
6, 216240, Note_on_c, 4, 71, 0
6, 216240, Note_on_c, 4, 55, 0
6, 216240, Note_on_c, 4, 69, 105
6, 216240, Note_on_c, 4, 50, 105
6, 216360, Note_on_c, 4, 69, 0
6, 216360, Note_on_c, 4, 71, 105
6, 216480, Note_on_c, 4, 71, 0
6, 216480, Note_on_c, 4, 50, 0
6, 216480, Note_on_c, 4, 74, 105
6, 216480, Note_on_c, 4, 57, 105
6, 216600, Note_on_c, 4, 74, 0
6, 216600, Note_on_c, 4, 72, 105
6, 216720, Note_on_c, 4, 72, 0
6, 216720, Note_on_c, 4, 57, 0
6, 216720, Note_on_c, 4, 71, 105
6, 216720, Note_on_c, 4, 50, 105
6, 216840, Note_on_c, 4, 71, 0
6, 216840, Note_on_c, 4, 72, 105
6, 216960, Note_on_c, 4, 72, 0
6, 216960, Note_on_c, 4, 50, 0
6, 216960, Note_on_c, 4, 74, 105
6, 216960, Note_on_c, 4, 59, 105
6, 217080, Note_on_c, 4, 74, 0
6, 217080, Note_on_c, 4, 79, 105
6, 217200, Note_on_c, 4, 79, 0
6, 217200, Note_on_c, 4, 59, 0
6, 217200, Note_on_c, 4, 83, 105
6, 217200, Note_on_c, 4, 50, 105
6, 217320, Note_on_c, 4, 83, 0
6, 217320, Note_on_c, 4, 79, 105
6, 217440, Note_on_c, 4, 79, 0
6, 217440, Note_on_c, 4, 50, 0
6, 217440, Note_on_c, 4, 74, 105
6, 217440, Note_on_c, 4, 59, 105
6, 217536, Note_on_c, 4, 74, 0
6, 217680, Note_on_c, 4, 59, 0
6, 217680, Note_on_c, 4, 74, 105
6, 217680, Note_on_c, 4, 50, 105
6, 217776, Note_on_c, 4, 74, 0
6, 217920, Note_on_c, 4, 50, 0
6, 217920, Note_on_c, 4, 84, 105
6, 217920, Note_on_c, 4, 67, 105
6, 218040, Note_on_c, 4, 84, 0
6, 218040, Note_on_c, 4, 83, 105
6, 218160, Note_on_c, 4, 83, 0
6, 218160, Note_on_c, 4, 67, 0
6, 218160, Note_on_c, 4, 81, 105
6, 218160, Note_on_c, 4, 62, 105
6, 218280, Note_on_c, 4, 81, 0
6, 218280, Note_on_c, 4, 83, 105
6, 218400, Note_on_c, 4, 83, 0
6, 218400, Note_on_c, 4, 62, 0
6, 218400, Note_on_c, 4, 86, 105
6, 218400, Note_on_c, 4, 69, 105
6, 218520, Note_on_c, 4, 86, 0
6, 218520, Note_on_c, 4, 84, 105
6, 218640, Note_on_c, 4, 84, 0
6, 218640, Note_on_c, 4, 69, 0
6, 218640, Note_on_c, 4, 83, 105
6, 218640, Note_on_c, 4, 62, 105
6, 218760, Note_on_c, 4, 83, 0
6, 218760, Note_on_c, 4, 84, 105
6, 218880, Note_on_c, 4, 84, 0
6, 218880, Note_on_c, 4, 62, 0
6, 218880, Note_on_c, 4, 86, 105
6, 218880, Note_on_c, 4, 71, 105
6, 219000, Note_on_c, 4, 86, 0
6, 219000, Note_on_c, 4, 83, 105
6, 219120, Note_on_c, 4, 83, 0
6, 219120, Note_on_c, 4, 71, 0
6, 219120, Note_on_c, 4, 86, 105
6, 219120, Note_on_c, 4, 62, 105
6, 219240, Note_on_c, 4, 86, 0
6, 219240, Note_on_c, 4, 83, 105
6, 219360, Note_on_c, 4, 83, 0
6, 219360, Note_on_c, 4, 62, 0
6, 219360, Note_on_c, 4, 84, 105
6, 219360, Note_on_c, 4, 69, 105
6, 219480, Note_on_c, 4, 84, 0
6, 219480, Note_on_c, 4, 81, 105
6, 219600, Note_on_c, 4, 81, 0
6, 219600, Note_on_c, 4, 69, 0
6, 219600, Note_on_c, 4, 84, 105
6, 219600, Note_on_c, 4, 62, 105
6, 219720, Note_on_c, 4, 84, 0
6, 219720, Note_on_c, 4, 81, 105
6, 219840, Note_on_c, 4, 81, 0
6, 219840, Note_on_c, 4, 62, 0
6, 219840, Note_on_c, 4, 83, 105
6, 219840, Note_on_c, 4, 67, 105
6, 219960, Note_on_c, 4, 83, 0
6, 219960, Note_on_c, 4, 79, 105
6, 220080, Note_on_c, 4, 79, 0
6, 220080, Note_on_c, 4, 67, 0
6, 220080, Note_on_c, 4, 83, 105
6, 220080, Note_on_c, 4, 62, 105
6, 220200, Note_on_c, 4, 83, 0
6, 220200, Note_on_c, 4, 79, 105
6, 220320, Note_on_c, 4, 79, 0
6, 220320, Note_on_c, 4, 62, 0
6, 220320, Note_on_c, 4, 81, 105
6, 220320, Note_on_c, 4, 66, 105
6, 220440, Note_on_c, 4, 81, 0
6, 220440, Note_on_c, 4, 78, 105
6, 220560, Note_on_c, 4, 78, 0
6, 220560, Note_on_c, 4, 66, 0
6, 220560, Note_on_c, 4, 81, 105
6, 220560, Note_on_c, 4, 62, 105
6, 220680, Note_on_c, 4, 81, 0
6, 220680, Note_on_c, 4, 78, 105
6, 220800, Note_on_c, 4, 78, 0
6, 220800, Note_on_c, 4, 62, 0
6, 220800, Note_on_c, 4, 74, 105
6, 220800, Note_on_c, 4, 47, 105
6, 220920, Note_on_c, 4, 47, 0
6, 220920, Note_on_c, 4, 74, 0
6, 220920, Note_on_c, 4, 79, 105
6, 220920, Note_on_c, 4, 50, 105
6, 221040, Note_on_c, 4, 50, 0
6, 221040, Note_on_c, 4, 79, 0
6, 221040, Note_on_c, 4, 83, 105
6, 221040, Note_on_c, 4, 55, 105
6, 221160, Note_on_c, 4, 55, 0
6, 221160, Note_on_c, 4, 83, 0
6, 221160, Note_on_c, 4, 86, 105
6, 221160, Note_on_c, 4, 59, 105
6, 221280, Note_on_c, 4, 59, 0
6, 221280, Note_on_c, 4, 86, 0
6, 221280, Note_on_c, 4, 84, 105
6, 221400, Note_on_c, 4, 84, 0
6, 221400, Note_on_c, 4, 83, 105
6, 221520, Note_on_c, 4, 83, 0
6, 221520, Note_on_c, 4, 81, 105
6, 221640, Note_on_c, 4, 81, 0
6, 221640, Note_on_c, 4, 79, 105
6, 221760, Note_on_c, 4, 79, 0
6, 221760, Note_on_c, 4, 76, 105
6, 221760, Note_on_c, 4, 48, 105
6, 221880, Note_on_c, 4, 48, 0
6, 221880, Note_on_c, 4, 76, 0
6, 221880, Note_on_c, 4, 81, 105
6, 221880, Note_on_c, 4, 52, 105
6, 222000, Note_on_c, 4, 52, 0
6, 222000, Note_on_c, 4, 81, 0
6, 222000, Note_on_c, 4, 84, 105
6, 222000, Note_on_c, 4, 57, 105
6, 222120, Note_on_c, 4, 57, 0
6, 222120, Note_on_c, 4, 84, 0
6, 222120, Note_on_c, 4, 88, 105
6, 222120, Note_on_c, 4, 60, 105
6, 222240, Note_on_c, 4, 60, 0
6, 222240, Note_on_c, 4, 88, 0
6, 222240, Note_on_c, 4, 86, 105
6, 222360, Note_on_c, 4, 86, 0
6, 222360, Note_on_c, 4, 84, 105
6, 222480, Note_on_c, 4, 84, 0
6, 222480, Note_on_c, 4, 83, 105
6, 222600, Note_on_c, 4, 83, 0
6, 222600, Note_on_c, 4, 81, 105
6, 222720, Note_on_c, 4, 81, 0
6, 222720, Note_on_c, 4, 50, 105
6, 222840, Note_on_c, 4, 83, 105
6, 222960, Note_on_c, 4, 83, 0
6, 222960, Note_on_c, 4, 50, 0
6, 222960, Note_on_c, 4, 86, 105
6, 223080, Note_on_c, 4, 86, 0
6, 223080, Note_on_c, 4, 83, 105
6, 223200, Note_on_c, 4, 83, 0
6, 223200, Note_on_c, 4, 62, 105
6, 223200, Note_on_c, 4, 71, 105
6, 223320, Note_on_c, 4, 79, 105
6, 223440, Note_on_c, 4, 79, 0
6, 223440, Note_on_c, 4, 71, 0
6, 223440, Note_on_c, 4, 62, 0
6, 223440, Note_on_c, 4, 83, 105
6, 223560, Note_on_c, 4, 83, 0
6, 223560, Note_on_c, 4, 79, 105
6, 223680, Note_on_c, 4, 79, 0
6, 223680, Note_on_c, 4, 62, 105
6, 223680, Note_on_c, 4, 72, 105
6, 223800, Note_on_c, 4, 81, 105
6, 223920, Note_on_c, 4, 81, 0
6, 223920, Note_on_c, 4, 72, 0
6, 223920, Note_on_c, 4, 62, 0
6, 223920, Note_on_c, 4, 84, 105
6, 224040, Note_on_c, 4, 84, 0
6, 224040, Note_on_c, 4, 81, 105
6, 224160, Note_on_c, 4, 81, 0
6, 224160, Note_on_c, 4, 62, 105
6, 224160, Note_on_c, 4, 69, 105
6, 224280, Note_on_c, 4, 78, 105
6, 224400, Note_on_c, 4, 78, 0
6, 224400, Note_on_c, 4, 69, 0
6, 224400, Note_on_c, 4, 62, 0
6, 224400, Note_on_c, 4, 81, 105
6, 224520, Note_on_c, 4, 81, 0
6, 224520, Note_on_c, 4, 78, 105
6, 224548, Note_on_c, 4, 67, 105
6, 224548, Note_on_c, 4, 47, 105
6, 224580, Note_on_c, 4, 71, 105
6, 224580, Note_on_c, 4, 50, 105
6, 224608, Note_on_c, 4, 74, 105
6, 224608, Note_on_c, 4, 55, 105
6, 224640, Note_on_c, 4, 78, 0
6, 224640, Note_on_c, 4, 79, 105
6, 224640, Note_on_c, 4, 59, 105
6, 225120, Note_on_c, 4, 59, 0
6, 225120, Note_on_c, 4, 67, 0
6, 225120, Note_on_c, 4, 55, 0
6, 225120, Note_on_c, 4, 47, 0
6, 225120, Note_on_c, 4, 71, 0
6, 225120, Note_on_c, 4, 50, 0
6, 225120, Note_on_c, 4, 74, 0
6, 225120, Note_on_c, 4, 79, 0
6, 225508, Note_on_c, 4, 67, 105
6, 225508, Note_on_c, 4, 48, 105
6, 225540, Note_on_c, 4, 72, 105
6, 225540, Note_on_c, 4, 52, 105
6, 225568, Note_on_c, 4, 76, 105
6, 225568, Note_on_c, 4, 55, 105
6, 225600, Note_on_c, 4, 79, 105
6, 225600, Note_on_c, 4, 60, 105
6, 226080, Note_on_c, 4, 60, 0
6, 226080, Note_on_c, 4, 67, 0
6, 226080, Note_on_c, 4, 76, 0
6, 226080, Note_on_c, 4, 48, 0
6, 226080, Note_on_c, 4, 72, 0
6, 226080, Note_on_c, 4, 52, 0
6, 226080, Note_on_c, 4, 55, 0
6, 226080, Note_on_c, 4, 79, 0
6, 226560, Note_on_c, 4, 47, 105
6, 226680, Note_on_c, 4, 47, 0
6, 226680, Note_on_c, 4, 55, 105
6, 226800, Note_on_c, 4, 55, 0
6, 226800, Note_on_c, 4, 59, 105
6, 226920, Note_on_c, 4, 59, 0
6, 226920, Note_on_c, 4, 62, 105
6, 227040, Note_on_c, 4, 62, 0
6, 227040, Note_on_c, 4, 62, 105
6, 227160, Note_on_c, 4, 62, 0
6, 227160, Note_on_c, 4, 67, 105
6, 227280, Note_on_c, 4, 67, 0
6, 227280, Note_on_c, 4, 71, 105
6, 227400, Note_on_c, 4, 71, 0
6, 227400, Note_on_c, 4, 74, 105
6, 227520, Note_on_c, 4, 74, 0
6, 227520, Note_on_c, 4, 62, 105
6, 227640, Note_on_c, 4, 62, 0
6, 227640, Note_on_c, 4, 67, 105
6, 227760, Note_on_c, 4, 67, 0
6, 227760, Note_on_c, 4, 71, 105
6, 227880, Note_on_c, 4, 71, 0
6, 227880, Note_on_c, 4, 74, 105
6, 228000, Note_on_c, 4, 74, 0
6, 228000, Note_on_c, 4, 74, 105
6, 228120, Note_on_c, 4, 74, 0
6, 228120, Note_on_c, 4, 79, 105
6, 228240, Note_on_c, 4, 79, 0
6, 228240, Note_on_c, 4, 83, 105
6, 228360, Note_on_c, 4, 83, 0
6, 228360, Note_on_c, 4, 86, 105
6, 228480, Note_on_c, 4, 86, 0
6, 228480, Note_on_c, 4, 84, 105
6, 228600, Note_on_c, 4, 84, 0
6, 228600, Note_on_c, 4, 81, 105
6, 228720, Note_on_c, 4, 81, 0
6, 228720, Note_on_c, 4, 78, 105
6, 228840, Note_on_c, 4, 78, 0
6, 228840, Note_on_c, 4, 74, 105
6, 228960, Note_on_c, 4, 74, 0
6, 228960, Note_on_c, 4, 72, 105
6, 229080, Note_on_c, 4, 72, 0
6, 229080, Note_on_c, 4, 69, 105
6, 229200, Note_on_c, 4, 69, 0
6, 229200, Note_on_c, 4, 66, 105
6, 229320, Note_on_c, 4, 66, 0
6, 229320, Note_on_c, 4, 62, 105
6, 229440, Note_on_c, 4, 62, 0
6, 229440, Note_on_c, 4, 72, 105
6, 229560, Note_on_c, 4, 72, 0
6, 229560, Note_on_c, 4, 69, 105
6, 229680, Note_on_c, 4, 69, 0
6, 229680, Note_on_c, 4, 66, 105
6, 229800, Note_on_c, 4, 66, 0
6, 229800, Note_on_c, 4, 62, 105
6, 229920, Note_on_c, 4, 62, 0
6, 229920, Note_on_c, 4, 60, 105
6, 230040, Note_on_c, 4, 60, 0
6, 230040, Note_on_c, 4, 57, 105
6, 230160, Note_on_c, 4, 57, 0
6, 230160, Note_on_c, 4, 54, 105
6, 230280, Note_on_c, 4, 54, 0
6, 230280, Note_on_c, 4, 50, 105
6, 230400, Note_on_c, 4, 50, 0
6, 230400, Note_on_c, 4, 59, 105
6, 230400, Note_on_c, 4, 62, 105
6, 230400, Note_on_c, 4, 67, 105
6, 230400, Note_on_c, 4, 43, 105
6, 230400, Note_on_c, 4, 55, 105
6, 230880, Note_on_c, 4, 55, 0
6, 230880, Note_on_c, 4, 67, 0
6, 230880, Note_on_c, 4, 59, 0
6, 230880, Note_on_c, 4, 62, 0
6, 230880, Note_on_c, 4, 43, 0
6, 268800, Note_on_c, 4, 69, 105
6, 268800, Note_on_c, 4, 45, 105
6, 268800, Note_on_c, 4, 57, 105
6, 268920, Note_on_c, 4, 69, 0
6, 268920, Note_on_c, 4, 72, 105
6, 269040, Note_on_c, 4, 72, 0
6, 269040, Note_on_c, 4, 76, 105
6, 269160, Note_on_c, 4, 76, 0
6, 269160, Note_on_c, 4, 81, 105
6, 269280, Note_on_c, 4, 81, 0
6, 269280, Note_on_c, 4, 57, 0
6, 269280, Note_on_c, 4, 45, 0
6, 269280, Note_on_c, 4, 60, 70
6, 269400, Note_on_c, 4, 72, 70
6, 269520, Note_on_c, 4, 72, 0
6, 269520, Note_on_c, 4, 84, 70
6, 269640, Note_on_c, 4, 84, 0
6, 269640, Note_on_c, 4, 72, 70
6, 269760, Note_on_c, 4, 72, 0
6, 269760, Note_on_c, 4, 60, 0
6, 269760, Note_on_c, 4, 59, 70
6, 269880, Note_on_c, 4, 71, 70
6, 270000, Note_on_c, 4, 71, 0
6, 270000, Note_on_c, 4, 83, 70
6, 270120, Note_on_c, 4, 83, 0
6, 270120, Note_on_c, 4, 71, 70
6, 270240, Note_on_c, 4, 71, 0
6, 270240, Note_on_c, 4, 59, 0
6, 270240, Note_on_c, 4, 57, 70
6, 270360, Note_on_c, 4, 69, 70
6, 270480, Note_on_c, 4, 69, 0
6, 270480, Note_on_c, 4, 81, 70
6, 270600, Note_on_c, 4, 81, 0
6, 270600, Note_on_c, 4, 69, 70
6, 270720, Note_on_c, 4, 69, 0
6, 270720, Note_on_c, 4, 57, 0
6, 270720, Note_on_c, 4, 44, 105
6, 270720, Note_on_c, 4, 56, 105
6, 270840, Note_on_c, 4, 68, 105
6, 270960, Note_on_c, 4, 68, 0
6, 270960, Note_on_c, 4, 80, 105
6, 271080, Note_on_c, 4, 80, 0
6, 271080, Note_on_c, 4, 68, 105
6, 271200, Note_on_c, 4, 68, 0
6, 271200, Note_on_c, 4, 56, 0
6, 271200, Note_on_c, 4, 44, 0
6, 271200, Note_on_c, 4, 45, 70
6, 271200, Note_on_c, 4, 57, 70
6, 271320, Note_on_c, 4, 69, 70
6, 271440, Note_on_c, 4, 69, 0
6, 271440, Note_on_c, 4, 81, 70
6, 271560, Note_on_c, 4, 81, 0
6, 271560, Note_on_c, 4, 69, 70
6, 271680, Note_on_c, 4, 69, 0
6, 271680, Note_on_c, 4, 57, 0
6, 271680, Note_on_c, 4, 45, 0
6, 271680, Note_on_c, 4, 43, 70
6, 271680, Note_on_c, 4, 55, 70
6, 271800, Note_on_c, 4, 67, 70
6, 271920, Note_on_c, 4, 67, 0
6, 271920, Note_on_c, 4, 79, 70
6, 272040, Note_on_c, 4, 79, 0
6, 272040, Note_on_c, 4, 67, 70
6, 272160, Note_on_c, 4, 67, 0
6, 272160, Note_on_c, 4, 55, 0
6, 272160, Note_on_c, 4, 43, 0
6, 272160, Note_on_c, 4, 41, 70
6, 272160, Note_on_c, 4, 53, 70
6, 272280, Note_on_c, 4, 65, 70
6, 272400, Note_on_c, 4, 65, 0
6, 272400, Note_on_c, 4, 77, 70
6, 272520, Note_on_c, 4, 77, 0
6, 272520, Note_on_c, 4, 65, 70
6, 272640, Note_on_c, 4, 65, 0
6, 272640, Note_on_c, 4, 53, 0
6, 272640, Note_on_c, 4, 41, 0
6, 272640, Note_on_c, 4, 40, 105
6, 272640, Note_on_c, 4, 52, 105
6, 272760, Note_on_c, 4, 64, 105
6, 272880, Note_on_c, 4, 64, 0
6, 272880, Note_on_c, 4, 76, 105
6, 273000, Note_on_c, 4, 76, 0
6, 273000, Note_on_c, 4, 64, 105
6, 273120, Note_on_c, 4, 64, 0
6, 273120, Note_on_c, 4, 52, 0
6, 273120, Note_on_c, 4, 40, 0
6, 273120, Note_on_c, 4, 53, 70
6, 273240, Note_on_c, 4, 65, 70
6, 273360, Note_on_c, 4, 65, 0
6, 273360, Note_on_c, 4, 77, 70
6, 273480, Note_on_c, 4, 77, 0
6, 273480, Note_on_c, 4, 65, 70
6, 273600, Note_on_c, 4, 65, 0
6, 273600, Note_on_c, 4, 53, 0
6, 273600, Note_on_c, 4, 52, 70
6, 273720, Note_on_c, 4, 64, 70
6, 273840, Note_on_c, 4, 64, 0
6, 273840, Note_on_c, 4, 76, 70
6, 273960, Note_on_c, 4, 76, 0
6, 273960, Note_on_c, 4, 64, 70
6, 274080, Note_on_c, 4, 64, 0
6, 274080, Note_on_c, 4, 52, 0
6, 274080, Note_on_c, 4, 50, 70
6, 274200, Note_on_c, 4, 62, 70
6, 274320, Note_on_c, 4, 62, 0
6, 274320, Note_on_c, 4, 74, 70
6, 274440, Note_on_c, 4, 74, 0
6, 274440, Note_on_c, 4, 62, 70
6, 274560, Note_on_c, 4, 62, 0
6, 274560, Note_on_c, 4, 50, 0
6, 274560, Note_on_c, 4, 61, 105
6, 274560, Note_on_c, 4, 73, 105
6, 274560, Note_on_c, 4, 37, 105
6, 274560, Note_on_c, 4, 49, 105
6, 275040, Note_on_c, 4, 49, 0
6, 275040, Note_on_c, 4, 61, 0
6, 275040, Note_on_c, 4, 73, 0
6, 275040, Note_on_c, 4, 37, 0
6, 288000, Note_on_c, 4, 74, 70
6, 288000, Note_on_c, 4, 62, 70
6, 288120, Note_on_c, 4, 62, 0
6, 288120, Note_on_c, 4, 65, 70
6, 288240, Note_on_c, 4, 65, 0
6, 288240, Note_on_c, 4, 74, 0
6, 288240, Note_on_c, 4, 77, 70
6, 288240, Note_on_c, 4, 69, 70
6, 288336, Note_on_c, 4, 77, 0
6, 288360, Note_on_c, 4, 69, 0
6, 288360, Note_on_c, 4, 65, 70
6, 288480, Note_on_c, 4, 65, 0
6, 288480, Note_on_c, 4, 77, 70
6, 288480, Note_on_c, 4, 62, 70
6, 288576, Note_on_c, 4, 77, 0
6, 288600, Note_on_c, 4, 62, 0
6, 288600, Note_on_c, 4, 65, 70
6, 288720, Note_on_c, 4, 65, 0
6, 288720, Note_on_c, 4, 77, 70
6, 288720, Note_on_c, 4, 69, 70
6, 288816, Note_on_c, 4, 77, 0
6, 288840, Note_on_c, 4, 69, 0
6, 288840, Note_on_c, 4, 65, 70
6, 288960, Note_on_c, 4, 65, 0
6, 288960, Note_on_c, 4, 79, 70
6, 288960, Note_on_c, 4, 62, 70
6, 289080, Note_on_c, 4, 62, 0
6, 289080, Note_on_c, 4, 79, 0
6, 289080, Note_on_c, 4, 77, 70
6, 289080, Note_on_c, 4, 65, 70
6, 289200, Note_on_c, 4, 65, 0
6, 289200, Note_on_c, 4, 77, 0
6, 289200, Note_on_c, 4, 76, 70
6, 289200, Note_on_c, 4, 69, 70
6, 289320, Note_on_c, 4, 69, 0
6, 289320, Note_on_c, 4, 76, 0
6, 289320, Note_on_c, 4, 77, 70
6, 289320, Note_on_c, 4, 65, 70
6, 289440, Note_on_c, 4, 65, 0
6, 289440, Note_on_c, 4, 77, 0
6, 289440, Note_on_c, 4, 79, 70
6, 289440, Note_on_c, 4, 62, 70
6, 289560, Note_on_c, 4, 62, 0
6, 289560, Note_on_c, 4, 79, 0
6, 289560, Note_on_c, 4, 77, 70
6, 289560, Note_on_c, 4, 65, 70
6, 289680, Note_on_c, 4, 65, 0
6, 289680, Note_on_c, 4, 77, 0
6, 289680, Note_on_c, 4, 76, 70
6, 289680, Note_on_c, 4, 69, 70
6, 289800, Note_on_c, 4, 69, 0
6, 289800, Note_on_c, 4, 76, 0
6, 289800, Note_on_c, 4, 77, 70
6, 289800, Note_on_c, 4, 65, 70
6, 289920, Note_on_c, 4, 65, 0
6, 289920, Note_on_c, 4, 77, 0
6, 289920, Note_on_c, 4, 76, 70
6, 289920, Note_on_c, 4, 62, 70
6, 290016, Note_on_c, 4, 76, 0
6, 290040, Note_on_c, 4, 62, 0
6, 290040, Note_on_c, 4, 67, 70
6, 290160, Note_on_c, 4, 67, 0
6, 290160, Note_on_c, 4, 76, 70
6, 290160, Note_on_c, 4, 70, 70
6, 290256, Note_on_c, 4, 76, 0
6, 290280, Note_on_c, 4, 70, 0
6, 290280, Note_on_c, 4, 67, 70
6, 290400, Note_on_c, 4, 67, 0
6, 290400, Note_on_c, 4, 76, 70
6, 290400, Note_on_c, 4, 62, 70
6, 290496, Note_on_c, 4, 76, 0
6, 290520, Note_on_c, 4, 62, 0
6, 290520, Note_on_c, 4, 67, 70
6, 290640, Note_on_c, 4, 67, 0
6, 290640, Note_on_c, 4, 76, 70
6, 290640, Note_on_c, 4, 70, 70
6, 290736, Note_on_c, 4, 76, 0
6, 290760, Note_on_c, 4, 70, 0
6, 290760, Note_on_c, 4, 67, 68
6, 290880, Note_on_c, 4, 67, 0
6, 290880, Note_on_c, 4, 76, 72
6, 290880, Note_on_c, 4, 61, 72
6, 291000, Note_on_c, 4, 61, 0
6, 291000, Note_on_c, 4, 76, 0
6, 291000, Note_on_c, 4, 77, 76
6, 291000, Note_on_c, 4, 67, 76
6, 291120, Note_on_c, 4, 67, 0
6, 291120, Note_on_c, 4, 77, 0
6, 291120, Note_on_c, 4, 79, 79
6, 291120, Note_on_c, 4, 70, 79
6, 291240, Note_on_c, 4, 70, 0
6, 291240, Note_on_c, 4, 79, 0
6, 291240, Note_on_c, 4, 77, 83
6, 291240, Note_on_c, 4, 67, 83
6, 291360, Note_on_c, 4, 67, 0
6, 291360, Note_on_c, 4, 77, 0
6, 291360, Note_on_c, 4, 76, 87
6, 291360, Note_on_c, 4, 61, 87
6, 291480, Note_on_c, 4, 61, 0
6, 291480, Note_on_c, 4, 76, 0
6, 291480, Note_on_c, 4, 77, 91
6, 291480, Note_on_c, 4, 67, 91
6, 291600, Note_on_c, 4, 67, 0
6, 291600, Note_on_c, 4, 77, 0
6, 291600, Note_on_c, 4, 79, 95
6, 291600, Note_on_c, 4, 70, 95
6, 291720, Note_on_c, 4, 70, 0
6, 291720, Note_on_c, 4, 79, 0
6, 291720, Note_on_c, 4, 77, 99
6, 291720, Note_on_c, 4, 67, 99
6, 291840, Note_on_c, 4, 67, 0
6, 291840, Note_on_c, 4, 77, 0
6, 291840, Note_on_c, 4, 76, 105
6, 291840, Note_on_c, 4, 60, 105
6, 291960, Note_on_c, 4, 60, 0
6, 291960, Note_on_c, 4, 67, 105
6, 292080, Note_on_c, 4, 67, 0
6, 292080, Note_on_c, 4, 76, 0
6, 292080, Note_on_c, 4, 82, 105
6, 292080, Note_on_c, 4, 70, 105
6, 292176, Note_on_c, 4, 82, 0
6, 292200, Note_on_c, 4, 70, 0
6, 292200, Note_on_c, 4, 67, 105
6, 292320, Note_on_c, 4, 67, 0
6, 292320, Note_on_c, 4, 82, 105
6, 292320, Note_on_c, 4, 60, 105
6, 292416, Note_on_c, 4, 82, 0
6, 292440, Note_on_c, 4, 60, 0
6, 292440, Note_on_c, 4, 67, 105
6, 292560, Note_on_c, 4, 67, 0
6, 292560, Note_on_c, 4, 82, 105
6, 292560, Note_on_c, 4, 70, 105
6, 292656, Note_on_c, 4, 82, 0
6, 292680, Note_on_c, 4, 70, 0
6, 292680, Note_on_c, 4, 67, 105
6, 292800, Note_on_c, 4, 67, 0
6, 292800, Note_on_c, 4, 82, 105
6, 292800, Note_on_c, 4, 60, 105
6, 292920, Note_on_c, 4, 60, 0
6, 292920, Note_on_c, 4, 82, 0
6, 292920, Note_on_c, 4, 81, 105
6, 292920, Note_on_c, 4, 67, 105
6, 293040, Note_on_c, 4, 67, 0
6, 293040, Note_on_c, 4, 81, 0
6, 293040, Note_on_c, 4, 82, 105
6, 293040, Note_on_c, 4, 70, 105
6, 293160, Note_on_c, 4, 70, 0
6, 293160, Note_on_c, 4, 82, 0
6, 293160, Note_on_c, 4, 81, 105
6, 293160, Note_on_c, 4, 67, 105
6, 293280, Note_on_c, 4, 67, 0
6, 293280, Note_on_c, 4, 81, 0
6, 293280, Note_on_c, 4, 82, 105
6, 293280, Note_on_c, 4, 60, 105
6, 293400, Note_on_c, 4, 60, 0
6, 293400, Note_on_c, 4, 82, 0
6, 293400, Note_on_c, 4, 79, 105
6, 293400, Note_on_c, 4, 67, 105
6, 293520, Note_on_c, 4, 67, 0
6, 293520, Note_on_c, 4, 79, 0
6, 293520, Note_on_c, 4, 77, 105
6, 293520, Note_on_c, 4, 70, 105
6, 293640, Note_on_c, 4, 70, 0
6, 293640, Note_on_c, 4, 77, 0
6, 293640, Note_on_c, 4, 76, 105
6, 293640, Note_on_c, 4, 67, 105
6, 293760, Note_on_c, 4, 67, 0
6, 293760, Note_on_c, 4, 76, 0
6, 293760, Note_on_c, 4, 77, 105
6, 293760, Note_on_c, 4, 65, 105
6, 293880, Note_on_c, 4, 77, 0
6, 293880, Note_on_c, 4, 69, 92
6, 294000, Note_on_c, 4, 69, 0
6, 294000, Note_on_c, 4, 72, 85
6, 294120, Note_on_c, 4, 72, 0
6, 294120, Note_on_c, 4, 69, 82
6, 294240, Note_on_c, 4, 69, 0
6, 294240, Note_on_c, 4, 65, 0
6, 294240, Note_on_c, 4, 65, 79
6, 294360, Note_on_c, 4, 65, 0
6, 294360, Note_on_c, 4, 69, 77
6, 294480, Note_on_c, 4, 69, 0
6, 294480, Note_on_c, 4, 72, 77
6, 294600, Note_on_c, 4, 72, 0
6, 294600, Note_on_c, 4, 69, 77
6, 294720, Note_on_c, 4, 69, 0
6, 294720, Note_on_c, 4, 65, 77
6, 294840, Note_on_c, 4, 65, 0
6, 294840, Note_on_c, 4, 69, 77
6, 294960, Note_on_c, 4, 69, 0
6, 294960, Note_on_c, 4, 72, 77
6, 295080, Note_on_c, 4, 72, 0
6, 295080, Note_on_c, 4, 69, 77
6, 295200, Note_on_c, 4, 69, 0
6, 295200, Note_on_c, 4, 65, 77
6, 295320, Note_on_c, 4, 65, 0
6, 295320, Note_on_c, 4, 69, 77
6, 295440, Note_on_c, 4, 69, 0
6, 295440, Note_on_c, 4, 72, 77
6, 295560, Note_on_c, 4, 72, 0
6, 295560, Note_on_c, 4, 69, 77
6, 295680, Note_on_c, 4, 69, 0
6, 295680, Note_on_c, 4, 65, 77
6, 295680, Note_on_c, 4, 53, 77
6, 295800, Note_on_c, 4, 65, 0
6, 295800, Note_on_c, 4, 71, 77
6, 295920, Note_on_c, 4, 71, 0
6, 295920, Note_on_c, 4, 74, 77
6, 296040, Note_on_c, 4, 74, 0
6, 296040, Note_on_c, 4, 71, 77
6, 296160, Note_on_c, 4, 71, 0
6, 296160, Note_on_c, 4, 53, 0
6, 296160, Note_on_c, 4, 65, 77
6, 296280, Note_on_c, 4, 65, 0
6, 296280, Note_on_c, 4, 71, 78
6, 296400, Note_on_c, 4, 71, 0
6, 296400, Note_on_c, 4, 74, 81
6, 296520, Note_on_c, 4, 74, 0
6, 296520, Note_on_c, 4, 71, 83
6, 296640, Note_on_c, 4, 71, 0
6, 296640, Note_on_c, 4, 65, 86
6, 296760, Note_on_c, 4, 65, 0
6, 296760, Note_on_c, 4, 71, 89
6, 296880, Note_on_c, 4, 71, 0
6, 296880, Note_on_c, 4, 74, 92
6, 297000, Note_on_c, 4, 74, 0
6, 297000, Note_on_c, 4, 71, 94
6, 297120, Note_on_c, 4, 71, 0
6, 297120, Note_on_c, 4, 65, 97
6, 297240, Note_on_c, 4, 65, 0
6, 297240, Note_on_c, 4, 71, 100
6, 297360, Note_on_c, 4, 71, 0
6, 297360, Note_on_c, 4, 74, 102
6, 297480, Note_on_c, 4, 74, 0
6, 297480, Note_on_c, 4, 71, 105
6, 297600, Note_on_c, 4, 71, 0
6, 297600, Note_on_c, 4, 64, 105
6, 297600, Note_on_c, 4, 52, 105
6, 297720, Note_on_c, 4, 64, 0
6, 297720, Note_on_c, 4, 71, 105
6, 297840, Note_on_c, 4, 71, 0
6, 297840, Note_on_c, 4, 74, 105
6, 297960, Note_on_c, 4, 74, 0
6, 297960, Note_on_c, 4, 71, 105
6, 298080, Note_on_c, 4, 71, 0
6, 298080, Note_on_c, 4, 52, 0
6, 298080, Note_on_c, 4, 64, 105
6, 298200, Note_on_c, 4, 64, 0
6, 298200, Note_on_c, 4, 71, 105
6, 298320, Note_on_c, 4, 71, 0
6, 298320, Note_on_c, 4, 74, 105
6, 298440, Note_on_c, 4, 74, 0
6, 298440, Note_on_c, 4, 71, 105
6, 298560, Note_on_c, 4, 71, 0
6, 298560, Note_on_c, 4, 64, 105
6, 298680, Note_on_c, 4, 64, 0
6, 298680, Note_on_c, 4, 71, 105
6, 298800, Note_on_c, 4, 71, 0
6, 298800, Note_on_c, 4, 74, 105
6, 298920, Note_on_c, 4, 74, 0
6, 298920, Note_on_c, 4, 71, 105
6, 299040, Note_on_c, 4, 71, 0
6, 299040, Note_on_c, 4, 64, 105
6, 299160, Note_on_c, 4, 64, 0
6, 299160, Note_on_c, 4, 71, 105
6, 299280, Note_on_c, 4, 71, 0
6, 299280, Note_on_c, 4, 74, 105
6, 299400, Note_on_c, 4, 74, 0
6, 299400, Note_on_c, 4, 71, 105
6, 299520, Note_on_c, 4, 71, 0
6, 299520, Note_on_c, 4, 69, 105
6, 299520, Note_on_c, 4, 57, 70
6, 299640, Note_on_c, 4, 57, 0
6, 299640, Note_on_c, 4, 60, 87
6, 299760, Note_on_c, 4, 60, 0
6, 299760, Note_on_c, 4, 69, 0
6, 299760, Note_on_c, 4, 84, 83
6, 299760, Note_on_c, 4, 64, 83
6, 299880, Note_on_c, 4, 64, 0
6, 299880, Note_on_c, 4, 60, 82
6, 300000, Note_on_c, 4, 60, 0
6, 300000, Note_on_c, 4, 84, 0
6, 300000, Note_on_c, 4, 84, 77
6, 300000, Note_on_c, 4, 57, 77
6, 300120, Note_on_c, 4, 57, 0
6, 300120, Note_on_c, 4, 60, 70
6, 300240, Note_on_c, 4, 60, 0
6, 300240, Note_on_c, 4, 84, 0
6, 300240, Note_on_c, 4, 84, 70
6, 300240, Note_on_c, 4, 64, 70
6, 300360, Note_on_c, 4, 64, 0
6, 300360, Note_on_c, 4, 60, 70
6, 300480, Note_on_c, 4, 60, 0
6, 300480, Note_on_c, 4, 84, 0
6, 300480, Note_on_c, 4, 86, 70
6, 300480, Note_on_c, 4, 57, 70
6, 300600, Note_on_c, 4, 57, 0
6, 300600, Note_on_c, 4, 86, 0
6, 300600, Note_on_c, 4, 84, 70
6, 300600, Note_on_c, 4, 60, 70
6, 300720, Note_on_c, 4, 60, 0
6, 300720, Note_on_c, 4, 84, 0
6, 300720, Note_on_c, 4, 83, 70
6, 300720, Note_on_c, 4, 64, 70
6, 300840, Note_on_c, 4, 64, 0
6, 300840, Note_on_c, 4, 83, 0
6, 300840, Note_on_c, 4, 84, 70
6, 300840, Note_on_c, 4, 60, 70
6, 300960, Note_on_c, 4, 60, 0
6, 300960, Note_on_c, 4, 84, 0
6, 300960, Note_on_c, 4, 86, 70
6, 300960, Note_on_c, 4, 57, 70
6, 301080, Note_on_c, 4, 57, 0
6, 301080, Note_on_c, 4, 86, 0
6, 301080, Note_on_c, 4, 84, 70
6, 301080, Note_on_c, 4, 60, 70
6, 301200, Note_on_c, 4, 60, 0
6, 301200, Note_on_c, 4, 84, 0
6, 301200, Note_on_c, 4, 83, 70
6, 301200, Note_on_c, 4, 64, 70
6, 301320, Note_on_c, 4, 64, 0
6, 301320, Note_on_c, 4, 83, 0
6, 301320, Note_on_c, 4, 84, 70
6, 301320, Note_on_c, 4, 60, 70
6, 301440, Note_on_c, 4, 60, 0
6, 301440, Note_on_c, 4, 84, 0
6, 301440, Note_on_c, 4, 83, 70
6, 301440, Note_on_c, 4, 57, 70
6, 301560, Note_on_c, 4, 57, 0
6, 301560, Note_on_c, 4, 62, 74
6, 301680, Note_on_c, 4, 62, 0
6, 301680, Note_on_c, 4, 83, 0
6, 301680, Note_on_c, 4, 83, 76
6, 301680, Note_on_c, 4, 65, 76
6, 301800, Note_on_c, 4, 65, 0
6, 301800, Note_on_c, 4, 62, 78
6, 301920, Note_on_c, 4, 62, 0
6, 301920, Note_on_c, 4, 83, 0
6, 301920, Note_on_c, 4, 83, 80
6, 301920, Note_on_c, 4, 57, 80
6, 302040, Note_on_c, 4, 57, 0
6, 302040, Note_on_c, 4, 62, 82
6, 302160, Note_on_c, 4, 62, 0
6, 302160, Note_on_c, 4, 83, 0
6, 302160, Note_on_c, 4, 83, 84
6, 302160, Note_on_c, 4, 65, 84
6, 302280, Note_on_c, 4, 65, 0
6, 302280, Note_on_c, 4, 62, 86
6, 302400, Note_on_c, 4, 62, 0
6, 302400, Note_on_c, 4, 83, 0
6, 302400, Note_on_c, 4, 83, 88
6, 302400, Note_on_c, 4, 56, 88
6, 302520, Note_on_c, 4, 56, 0
6, 302520, Note_on_c, 4, 83, 0
6, 302520, Note_on_c, 4, 84, 89
6, 302520, Note_on_c, 4, 62, 89
6, 302640, Note_on_c, 4, 62, 0
6, 302640, Note_on_c, 4, 84, 0
6, 302640, Note_on_c, 4, 86, 91
6, 302640, Note_on_c, 4, 65, 91
6, 302760, Note_on_c, 4, 65, 0
6, 302760, Note_on_c, 4, 86, 0
6, 302760, Note_on_c, 4, 84, 93
6, 302760, Note_on_c, 4, 62, 93
6, 302880, Note_on_c, 4, 62, 0
6, 302880, Note_on_c, 4, 84, 0
6, 302880, Note_on_c, 4, 83, 95
6, 302880, Note_on_c, 4, 56, 95
6, 303000, Note_on_c, 4, 56, 0
6, 303000, Note_on_c, 4, 83, 0
6, 303000, Note_on_c, 4, 84, 97
6, 303000, Note_on_c, 4, 62, 97
6, 303120, Note_on_c, 4, 62, 0
6, 303120, Note_on_c, 4, 84, 0
6, 303120, Note_on_c, 4, 86, 99
6, 303120, Note_on_c, 4, 65, 99
6, 303240, Note_on_c, 4, 65, 0
6, 303240, Note_on_c, 4, 86, 0
6, 303240, Note_on_c, 4, 84, 101
6, 303240, Note_on_c, 4, 62, 101
6, 303360, Note_on_c, 4, 62, 0
6, 303360, Note_on_c, 4, 84, 0
6, 303360, Note_on_c, 4, 83, 105
6, 303360, Note_on_c, 4, 55, 105
6, 303480, Note_on_c, 4, 55, 0
6, 303480, Note_on_c, 4, 62, 105
6, 303600, Note_on_c, 4, 62, 0
6, 303600, Note_on_c, 4, 83, 0
6, 303600, Note_on_c, 4, 89, 105
6, 303600, Note_on_c, 4, 65, 105
6, 303696, Note_on_c, 4, 89, 0
6, 303720, Note_on_c, 4, 65, 0
6, 303720, Note_on_c, 4, 62, 105
6, 303840, Note_on_c, 4, 62, 0
6, 303840, Note_on_c, 4, 89, 105
6, 303840, Note_on_c, 4, 55, 105
6, 303936, Note_on_c, 4, 89, 0
6, 303960, Note_on_c, 4, 55, 0
6, 303960, Note_on_c, 4, 62, 105
6, 304080, Note_on_c, 4, 62, 0
6, 304080, Note_on_c, 4, 89, 105
6, 304080, Note_on_c, 4, 65, 105
6, 304176, Note_on_c, 4, 89, 0
6, 304200, Note_on_c, 4, 65, 0
6, 304200, Note_on_c, 4, 62, 105
6, 304320, Note_on_c, 4, 62, 0
6, 304320, Note_on_c, 4, 89, 105
6, 304320, Note_on_c, 4, 55, 105
6, 304440, Note_on_c, 4, 55, 0
6, 304440, Note_on_c, 4, 89, 0
6, 304440, Note_on_c, 4, 88, 105
6, 304440, Note_on_c, 4, 62, 105
6, 304560, Note_on_c, 4, 62, 0
6, 304560, Note_on_c, 4, 88, 0
6, 304560, Note_on_c, 4, 89, 105
6, 304560, Note_on_c, 4, 65, 105
6, 304680, Note_on_c, 4, 65, 0
6, 304680, Note_on_c, 4, 89, 0
6, 304680, Note_on_c, 4, 88, 105
6, 304680, Note_on_c, 4, 62, 105
6, 304800, Note_on_c, 4, 62, 0
6, 304800, Note_on_c, 4, 88, 0
6, 304800, Note_on_c, 4, 89, 105
6, 304800, Note_on_c, 4, 55, 105
6, 304920, Note_on_c, 4, 55, 0
6, 304920, Note_on_c, 4, 89, 0
6, 304920, Note_on_c, 4, 86, 105
6, 304920, Note_on_c, 4, 62, 105
6, 305040, Note_on_c, 4, 62, 0
6, 305040, Note_on_c, 4, 86, 0
6, 305040, Note_on_c, 4, 84, 105
6, 305040, Note_on_c, 4, 65, 105
6, 305160, Note_on_c, 4, 65, 0
6, 305160, Note_on_c, 4, 84, 0
6, 305160, Note_on_c, 4, 83, 105
6, 305160, Note_on_c, 4, 62, 105
6, 305280, Note_on_c, 4, 62, 0
6, 305280, Note_on_c, 4, 83, 0
6, 305280, Note_on_c, 4, 84, 105
6, 305280, Note_on_c, 4, 55, 70
6, 305400, Note_on_c, 4, 55, 0
6, 305400, Note_on_c, 4, 60, 84
6, 305520, Note_on_c, 4, 60, 0
6, 305520, Note_on_c, 4, 84, 0
6, 305520, Note_on_c, 4, 79, 74
6, 305520, Note_on_c, 4, 63, 74
6, 305640, Note_on_c, 4, 63, 0
6, 305640, Note_on_c, 4, 60, 69
6, 305760, Note_on_c, 4, 60, 0
6, 305760, Note_on_c, 4, 79, 0
6, 305760, Note_on_c, 4, 79, 70
6, 305760, Note_on_c, 4, 55, 70
6, 305880, Note_on_c, 4, 55, 0
6, 305880, Note_on_c, 4, 60, 70
6, 306000, Note_on_c, 4, 60, 0
6, 306000, Note_on_c, 4, 79, 0
6, 306000, Note_on_c, 4, 79, 70
6, 306000, Note_on_c, 4, 63, 70
6, 306120, Note_on_c, 4, 63, 0
6, 306120, Note_on_c, 4, 60, 70
6, 306240, Note_on_c, 4, 60, 0
6, 306240, Note_on_c, 4, 79, 0
6, 306240, Note_on_c, 4, 78, 70
6, 306240, Note_on_c, 4, 55, 70
6, 306360, Note_on_c, 4, 55, 0
6, 306360, Note_on_c, 4, 78, 0
6, 306360, Note_on_c, 4, 79, 70
6, 306360, Note_on_c, 4, 60, 70
6, 306480, Note_on_c, 4, 60, 0
6, 306480, Note_on_c, 4, 79, 0
6, 306480, Note_on_c, 4, 78, 70
6, 306480, Note_on_c, 4, 63, 70
6, 306600, Note_on_c, 4, 63, 0
6, 306600, Note_on_c, 4, 78, 0
6, 306600, Note_on_c, 4, 79, 70
6, 306600, Note_on_c, 4, 60, 70
6, 306720, Note_on_c, 4, 60, 0
6, 306720, Note_on_c, 4, 79, 0
6, 306720, Note_on_c, 4, 77, 70
6, 306720, Note_on_c, 4, 55, 70
6, 306840, Note_on_c, 4, 55, 0
6, 306840, Note_on_c, 4, 77, 0
6, 306840, Note_on_c, 4, 75, 70
6, 306840, Note_on_c, 4, 60, 70
6, 306960, Note_on_c, 4, 60, 0
6, 306960, Note_on_c, 4, 75, 0
6, 306960, Note_on_c, 4, 74, 72
6, 306960, Note_on_c, 4, 63, 72
6, 307080, Note_on_c, 4, 63, 0
6, 307080, Note_on_c, 4, 74, 0
6, 307080, Note_on_c, 4, 72, 75
6, 307080, Note_on_c, 4, 60, 75
6, 307200, Note_on_c, 4, 60, 0
6, 307200, Note_on_c, 4, 72, 0
6, 307200, Note_on_c, 4, 71, 70
6, 307200, Note_on_c, 4, 55, 105
6, 307320, Note_on_c, 4, 55, 0
6, 307320, Note_on_c, 4, 62, 105
6, 307440, Note_on_c, 4, 62, 0
6, 307440, Note_on_c, 4, 71, 0
6, 307440, Note_on_c, 4, 89, 105
6, 307440, Note_on_c, 4, 65, 105
6, 307536, Note_on_c, 4, 89, 0
6, 307560, Note_on_c, 4, 65, 0
6, 307560, Note_on_c, 4, 62, 105
6, 307680, Note_on_c, 4, 62, 0
6, 307680, Note_on_c, 4, 89, 105
6, 307680, Note_on_c, 4, 55, 105
6, 307776, Note_on_c, 4, 89, 0
6, 307800, Note_on_c, 4, 55, 0
6, 307800, Note_on_c, 4, 62, 105
6, 307920, Note_on_c, 4, 62, 0
6, 307920, Note_on_c, 4, 89, 105
6, 307920, Note_on_c, 4, 65, 105
6, 308016, Note_on_c, 4, 89, 0
6, 308040, Note_on_c, 4, 65, 0
6, 308040, Note_on_c, 4, 62, 105
6, 308160, Note_on_c, 4, 62, 0
6, 308160, Note_on_c, 4, 89, 105
6, 308160, Note_on_c, 4, 55, 105
6, 308280, Note_on_c, 4, 55, 0
6, 308280, Note_on_c, 4, 89, 0
6, 308280, Note_on_c, 4, 88, 105
6, 308280, Note_on_c, 4, 62, 105
6, 308400, Note_on_c, 4, 62, 0
6, 308400, Note_on_c, 4, 88, 0
6, 308400, Note_on_c, 4, 89, 105
6, 308400, Note_on_c, 4, 65, 105
6, 308520, Note_on_c, 4, 65, 0
6, 308520, Note_on_c, 4, 89, 0
6, 308520, Note_on_c, 4, 88, 105
6, 308520, Note_on_c, 4, 62, 105
6, 308640, Note_on_c, 4, 62, 0
6, 308640, Note_on_c, 4, 88, 0
6, 308640, Note_on_c, 4, 89, 105
6, 308640, Note_on_c, 4, 55, 105
6, 308760, Note_on_c, 4, 55, 0
6, 308760, Note_on_c, 4, 89, 0
6, 308760, Note_on_c, 4, 86, 105
6, 308760, Note_on_c, 4, 62, 105
6, 308880, Note_on_c, 4, 62, 0
6, 308880, Note_on_c, 4, 86, 0
6, 308880, Note_on_c, 4, 84, 105
6, 308880, Note_on_c, 4, 65, 105
6, 309000, Note_on_c, 4, 65, 0
6, 309000, Note_on_c, 4, 84, 0
6, 309000, Note_on_c, 4, 83, 105
6, 309000, Note_on_c, 4, 62, 105
6, 309120, Note_on_c, 4, 62, 0
6, 309120, Note_on_c, 4, 83, 0
6, 309120, Note_on_c, 4, 84, 105
6, 309120, Note_on_c, 4, 55, 70
6, 309240, Note_on_c, 4, 55, 0
6, 309240, Note_on_c, 4, 60, 89
6, 309360, Note_on_c, 4, 60, 0
6, 309360, Note_on_c, 4, 84, 0
6, 309360, Note_on_c, 4, 79, 88
6, 309360, Note_on_c, 4, 63, 88
6, 309456, Note_on_c, 4, 79, 0
6, 309480, Note_on_c, 4, 63, 0
6, 309480, Note_on_c, 4, 60, 86
6, 309600, Note_on_c, 4, 60, 0
6, 309600, Note_on_c, 4, 79, 84
6, 309600, Note_on_c, 4, 55, 84
6, 309696, Note_on_c, 4, 79, 0
6, 309720, Note_on_c, 4, 55, 0
6, 309720, Note_on_c, 4, 60, 81
6, 309840, Note_on_c, 4, 60, 0
6, 309840, Note_on_c, 4, 79, 81
6, 309840, Note_on_c, 4, 63, 81
6, 309936, Note_on_c, 4, 79, 0
6, 309960, Note_on_c, 4, 63, 0
6, 309960, Note_on_c, 4, 60, 81
6, 310080, Note_on_c, 4, 60, 0
6, 310080, Note_on_c, 4, 78, 81
6, 310080, Note_on_c, 4, 55, 81
6, 310200, Note_on_c, 4, 55, 0
6, 310200, Note_on_c, 4, 78, 0
6, 310200, Note_on_c, 4, 79, 81
6, 310200, Note_on_c, 4, 60, 81
6, 310320, Note_on_c, 4, 60, 0
6, 310320, Note_on_c, 4, 79, 0
6, 310320, Note_on_c, 4, 78, 81
6, 310320, Note_on_c, 4, 63, 81
6, 310440, Note_on_c, 4, 63, 0
6, 310440, Note_on_c, 4, 78, 0
6, 310440, Note_on_c, 4, 79, 81
6, 310440, Note_on_c, 4, 60, 81
6, 310560, Note_on_c, 4, 60, 0
6, 310560, Note_on_c, 4, 79, 0
6, 310560, Note_on_c, 4, 77, 81
6, 310560, Note_on_c, 4, 55, 81
6, 310680, Note_on_c, 4, 55, 0
6, 310680, Note_on_c, 4, 77, 0
6, 310680, Note_on_c, 4, 75, 81
6, 310680, Note_on_c, 4, 60, 81
6, 310800, Note_on_c, 4, 60, 0
6, 310800, Note_on_c, 4, 75, 0
6, 310800, Note_on_c, 4, 74, 79
6, 310800, Note_on_c, 4, 63, 79
6, 310920, Note_on_c, 4, 63, 0
6, 310920, Note_on_c, 4, 74, 0
6, 310920, Note_on_c, 4, 72, 79
6, 310920, Note_on_c, 4, 60, 79
6, 311040, Note_on_c, 4, 60, 0
6, 311040, Note_on_c, 4, 72, 0
6, 311040, Note_on_c, 4, 71, 79
6, 311040, Note_on_c, 4, 55, 79
6, 311280, Note_on_c, 4, 55, 0
6, 311280, Note_on_c, 4, 47, 77
6, 311520, Note_on_c, 4, 47, 0
6, 311520, Note_on_c, 4, 71, 0
6, 311520, Note_on_c, 4, 48, 77
6, 311760, Note_on_c, 4, 48, 0
6, 311760, Note_on_c, 4, 50, 76
6, 312000, Note_on_c, 4, 50, 0
6, 312000, Note_on_c, 4, 51, 74
6, 312240, Note_on_c, 4, 51, 0
6, 312240, Note_on_c, 4, 52, 78
6, 312480, Note_on_c, 4, 52, 0
6, 312480, Note_on_c, 4, 53, 80
6, 312720, Note_on_c, 4, 53, 0
6, 312720, Note_on_c, 4, 54, 82
6, 312960, Note_on_c, 4, 54, 0
6, 312960, Note_on_c, 4, 55, 83
6, 313200, Note_on_c, 4, 59, 78
6, 313440, Note_on_c, 4, 59, 0
6, 313440, Note_on_c, 4, 55, 0
6, 313440, Note_on_c, 4, 60, 79
6, 313680, Note_on_c, 4, 60, 0
6, 313680, Note_on_c, 4, 62, 80
6, 313920, Note_on_c, 4, 62, 0
6, 313920, Note_on_c, 4, 63, 81
6, 314160, Note_on_c, 4, 63, 0
6, 314160, Note_on_c, 4, 64, 83
6, 314400, Note_on_c, 4, 64, 0
6, 314400, Note_on_c, 4, 65, 84
6, 314640, Note_on_c, 4, 65, 0
6, 314640, Note_on_c, 4, 66, 85
6, 314880, Note_on_c, 4, 66, 0
6, 314880, Note_on_c, 4, 67, 86
6, 315360, Note_on_c, 4, 67, 0
6, 315840, Note_on_c, 4, 54, 104
6, 315900, Note_on_c, 4, 54, 0
6, 315900, Note_on_c, 4, 57, 106
6, 315960, Note_on_c, 4, 57, 0
6, 315960, Note_on_c, 4, 60, 108
6, 316020, Note_on_c, 4, 60, 0
6, 316020, Note_on_c, 4, 63, 110
6, 316080, Note_on_c, 4, 63, 0
6, 316080, Note_on_c, 4, 72, 112
6, 316140, Note_on_c, 4, 72, 0
6, 316140, Note_on_c, 4, 75, 114
6, 316200, Note_on_c, 4, 75, 0
6, 316200, Note_on_c, 4, 78, 116
6, 316260, Note_on_c, 4, 78, 0
6, 316260, Note_on_c, 4, 81, 118
6, 316320, Note_on_c, 4, 81, 0
6, 316320, Note_on_c, 4, 84, 121
6, 316560, Note_on_c, 4, 84, 0
6, 316560, Note_on_c, 4, 72, 70
6, 316800, Note_on_c, 4, 72, 0
6, 316800, Note_on_c, 4, 71, 70
6, 316800, Note_on_c, 4, 55, 70
6, 317280, Note_on_c, 4, 55, 0
6, 317280, Note_on_c, 4, 71, 0
6, 317760, Note_on_c, 4, 54, 100
6, 317820, Note_on_c, 4, 54, 0
6, 317820, Note_on_c, 4, 57, 102
6, 317880, Note_on_c, 4, 57, 0
6, 317880, Note_on_c, 4, 60, 105
6, 317940, Note_on_c, 4, 60, 0
6, 317940, Note_on_c, 4, 63, 108
6, 318000, Note_on_c, 4, 63, 0
6, 318000, Note_on_c, 4, 72, 110
6, 318060, Note_on_c, 4, 72, 0
6, 318060, Note_on_c, 4, 75, 113
6, 318120, Note_on_c, 4, 75, 0
6, 318120, Note_on_c, 4, 78, 116
6, 318180, Note_on_c, 4, 78, 0
6, 318180, Note_on_c, 4, 81, 118
6, 318240, Note_on_c, 4, 81, 0
6, 318240, Note_on_c, 4, 84, 121
6, 318480, Note_on_c, 4, 84, 0
6, 318480, Note_on_c, 4, 72, 70
6, 318720, Note_on_c, 4, 72, 0
6, 318720, Note_on_c, 4, 71, 70
6, 318720, Note_on_c, 4, 74, 70
6, 318960, Note_on_c, 4, 74, 0
6, 318960, Note_on_c, 4, 71, 0
6, 318960, Note_on_c, 4, 59, 70
6, 318960, Note_on_c, 4, 62, 70
6, 318960, Note_on_c, 4, 55, 70
6, 319200, Note_on_c, 4, 55, 0
6, 319200, Note_on_c, 4, 62, 0
6, 319200, Note_on_c, 4, 59, 0
6, 319200, Note_on_c, 4, 43, 70
6, 319440, Note_on_c, 4, 43, 0
6, 319440, Note_on_c, 4, 71, 70
6, 319440, Note_on_c, 4, 74, 70
6, 319680, Note_on_c, 4, 74, 0
6, 319680, Note_on_c, 4, 71, 0
6, 319680, Note_on_c, 4, 72, 70
6, 319680, Note_on_c, 4, 76, 70
6, 319920, Note_on_c, 4, 76, 0
6, 319920, Note_on_c, 4, 72, 0
6, 319920, Note_on_c, 4, 60, 70
6, 319920, Note_on_c, 4, 64, 70
6, 319920, Note_on_c, 4, 55, 70
6, 320160, Note_on_c, 4, 55, 0
6, 320160, Note_on_c, 4, 64, 0
6, 320160, Note_on_c, 4, 60, 0
6, 320160, Note_on_c, 4, 43, 70
6, 320400, Note_on_c, 4, 43, 0
6, 320400, Note_on_c, 4, 72, 70
6, 320400, Note_on_c, 4, 76, 70
6, 320640, Note_on_c, 4, 76, 0
6, 320640, Note_on_c, 4, 72, 0
6, 320640, Note_on_c, 4, 74, 72
6, 320640, Note_on_c, 4, 77, 72
6, 320880, Note_on_c, 4, 77, 0
6, 320880, Note_on_c, 4, 74, 0
6, 320880, Note_on_c, 4, 62, 75
6, 320880, Note_on_c, 4, 65, 75
6, 320880, Note_on_c, 4, 55, 75
6, 321120, Note_on_c, 4, 55, 0
6, 321120, Note_on_c, 4, 65, 0
6, 321120, Note_on_c, 4, 62, 0
6, 321120, Note_on_c, 4, 43, 78
6, 321360, Note_on_c, 4, 43, 0
6, 321360, Note_on_c, 4, 74, 80
6, 321360, Note_on_c, 4, 77, 80
6, 321600, Note_on_c, 4, 77, 0
6, 321600, Note_on_c, 4, 74, 0
6, 321600, Note_on_c, 4, 76, 83
6, 321600, Note_on_c, 4, 79, 83
6, 321840, Note_on_c, 4, 79, 0
6, 321840, Note_on_c, 4, 76, 0
6, 321840, Note_on_c, 4, 64, 86
6, 321840, Note_on_c, 4, 67, 86
6, 321840, Note_on_c, 4, 55, 86
6, 322080, Note_on_c, 4, 55, 0
6, 322080, Note_on_c, 4, 67, 0
6, 322080, Note_on_c, 4, 64, 0
6, 322080, Note_on_c, 4, 43, 88
6, 322320, Note_on_c, 4, 43, 0
6, 322320, Note_on_c, 4, 76, 91
6, 322320, Note_on_c, 4, 79, 91
6, 322560, Note_on_c, 4, 79, 0
6, 322560, Note_on_c, 4, 76, 0
6, 322560, Note_on_c, 4, 77, 93
6, 322560, Note_on_c, 4, 81, 93
6, 322800, Note_on_c, 4, 81, 0
6, 322800, Note_on_c, 4, 77, 0
6, 322800, Note_on_c, 4, 65, 96
6, 322800, Note_on_c, 4, 69, 96
6, 322800, Note_on_c, 4, 55, 96
6, 323040, Note_on_c, 4, 55, 0
6, 323040, Note_on_c, 4, 69, 0
6, 323040, Note_on_c, 4, 65, 0
6, 323040, Note_on_c, 4, 43, 99
6, 323280, Note_on_c, 4, 43, 0
6, 323280, Note_on_c, 4, 77, 101
6, 323280, Note_on_c, 4, 81, 101
6, 323520, Note_on_c, 4, 81, 0
6, 323520, Note_on_c, 4, 77, 0
6, 323520, Note_on_c, 4, 74, 104
6, 323520, Note_on_c, 4, 77, 104
6, 323520, Note_on_c, 4, 83, 104
6, 323760, Note_on_c, 4, 83, 0
6, 323760, Note_on_c, 4, 77, 0
6, 323760, Note_on_c, 4, 74, 0
6, 323760, Note_on_c, 4, 62, 106
6, 323760, Note_on_c, 4, 65, 106
6, 323760, Note_on_c, 4, 71, 106
6, 323760, Note_on_c, 4, 55, 106
6, 324000, Note_on_c, 4, 55, 0
6, 324000, Note_on_c, 4, 62, 0
6, 324000, Note_on_c, 4, 65, 0
6, 324000, Note_on_c, 4, 71, 0
6, 324000, Note_on_c, 4, 43, 109
6, 324240, Note_on_c, 4, 43, 0
6, 324240, Note_on_c, 4, 74, 112
6, 324240, Note_on_c, 4, 77, 112
6, 324240, Note_on_c, 4, 83, 112
6, 324359, Note_on_c, 4, 74, 0
6, 324364, Note_on_c, 4, 77, 0
6, 324379, Note_on_c, 4, 83, 0
6, 324388, Note_on_c, 4, 72, 113
6, 324388, Note_on_c, 4, 48, 113
6, 324420, Note_on_c, 4, 76, 114
6, 324420, Note_on_c, 4, 52, 114
6, 324448, Note_on_c, 4, 79, 114
6, 324448, Note_on_c, 4, 55, 114
6, 324480, Note_on_c, 4, 84, 114
6, 324480, Note_on_c, 4, 60, 114
6, 324960, Note_on_c, 4, 60, 0
6, 324960, Note_on_c, 4, 72, 0
6, 324960, Note_on_c, 4, 79, 0
6, 324960, Note_on_c, 4, 48, 0
6, 324960, Note_on_c, 4, 76, 0
6, 324960, Note_on_c, 4, 52, 0
6, 324960, Note_on_c, 4, 55, 0
6, 324960, Note_on_c, 4, 84, 0
6, 336000, Note_on_c, 4, 67, 105
6, 336120, Note_on_c, 4, 67, 0
6, 336120, Note_on_c, 4, 79, 105
6, 336240, Note_on_c, 4, 79, 0
6, 336240, Note_on_c, 4, 67, 105
6, 336360, Note_on_c, 4, 67, 0
6, 336360, Note_on_c, 4, 79, 105
6, 336480, Note_on_c, 4, 79, 0
6, 336480, Note_on_c, 4, 67, 70
6, 336480, Note_on_c, 4, 60, 70
6, 336600, Note_on_c, 4, 67, 0
6, 336600, Note_on_c, 4, 79, 70
6, 336720, Note_on_c, 4, 79, 0
6, 336720, Note_on_c, 4, 60, 0
6, 336720, Note_on_c, 4, 67, 70
6, 336720, Note_on_c, 4, 64, 70
6, 336840, Note_on_c, 4, 67, 0
6, 336840, Note_on_c, 4, 79, 70
6, 336960, Note_on_c, 4, 79, 0
6, 336960, Note_on_c, 4, 64, 0
6, 336960, Note_on_c, 4, 67, 70
6, 336960, Note_on_c, 4, 62, 70
6, 337080, Note_on_c, 4, 67, 0
6, 337080, Note_on_c, 4, 79, 70
6, 337200, Note_on_c, 4, 79, 0
6, 337200, Note_on_c, 4, 62, 0
6, 337200, Note_on_c, 4, 67, 70
6, 337200, Note_on_c, 4, 65, 70
6, 337320, Note_on_c, 4, 67, 0
6, 337320, Note_on_c, 4, 79, 70
6, 337440, Note_on_c, 4, 79, 0
6, 337440, Note_on_c, 4, 65, 0
6, 337440, Note_on_c, 4, 67, 70
6, 337440, Note_on_c, 4, 60, 70
6, 337560, Note_on_c, 4, 67, 0
6, 337560, Note_on_c, 4, 79, 70
6, 337680, Note_on_c, 4, 79, 0
6, 337680, Note_on_c, 4, 60, 0
6, 337680, Note_on_c, 4, 67, 70
6, 337680, Note_on_c, 4, 64, 70
6, 337800, Note_on_c, 4, 67, 0
6, 337800, Note_on_c, 4, 79, 70
6, 337920, Note_on_c, 4, 79, 0
6, 337920, Note_on_c, 4, 64, 0
6, 337920, Note_on_c, 4, 67, 105
6, 337920, Note_on_c, 4, 59, 105
6, 338040, Note_on_c, 4, 67, 0
6, 338040, Note_on_c, 4, 79, 105
6, 338160, Note_on_c, 4, 79, 0
6, 338160, Note_on_c, 4, 67, 105
6, 338280, Note_on_c, 4, 67, 0
6, 338280, Note_on_c, 4, 79, 105
6, 338400, Note_on_c, 4, 79, 0
6, 338400, Note_on_c, 4, 59, 0
6, 338400, Note_on_c, 4, 67, 70
6, 338400, Note_on_c, 4, 59, 70
6, 338520, Note_on_c, 4, 67, 0
6, 338520, Note_on_c, 4, 79, 70
6, 338640, Note_on_c, 4, 79, 0
6, 338640, Note_on_c, 4, 59, 0
6, 338640, Note_on_c, 4, 67, 70
6, 338640, Note_on_c, 4, 62, 70
6, 338760, Note_on_c, 4, 67, 0
6, 338760, Note_on_c, 4, 79, 70
6, 338880, Note_on_c, 4, 79, 0
6, 338880, Note_on_c, 4, 62, 0
6, 338880, Note_on_c, 4, 67, 70
6, 338880, Note_on_c, 4, 58, 70
6, 339000, Note_on_c, 4, 67, 0
6, 339000, Note_on_c, 4, 79, 70
6, 339120, Note_on_c, 4, 79, 0
6, 339120, Note_on_c, 4, 58, 0
6, 339120, Note_on_c, 4, 67, 70
6, 339120, Note_on_c, 4, 61, 70
6, 339240, Note_on_c, 4, 67, 0
6, 339240, Note_on_c, 4, 79, 70
6, 339360, Note_on_c, 4, 79, 0
6, 339360, Note_on_c, 4, 61, 0
6, 339360, Note_on_c, 4, 67, 70
6, 339360, Note_on_c, 4, 59, 70
6, 339480, Note_on_c, 4, 67, 0
6, 339480, Note_on_c, 4, 79, 70
6, 339600, Note_on_c, 4, 79, 0
6, 339600, Note_on_c, 4, 59, 0
6, 339600, Note_on_c, 4, 67, 70
6, 339600, Note_on_c, 4, 62, 70
6, 339720, Note_on_c, 4, 67, 0
6, 339720, Note_on_c, 4, 79, 70
6, 339840, Note_on_c, 4, 79, 0
6, 339840, Note_on_c, 4, 62, 0
6, 339840, Note_on_c, 4, 67, 105
6, 339840, Note_on_c, 4, 60, 105
6, 339840, Note_on_c, 4, 64, 105
6, 339960, Note_on_c, 4, 67, 0
6, 339960, Note_on_c, 4, 79, 105
6, 340080, Note_on_c, 4, 79, 0
6, 340080, Note_on_c, 4, 67, 105
6, 340200, Note_on_c, 4, 67, 0
6, 340200, Note_on_c, 4, 79, 105
6, 340320, Note_on_c, 4, 79, 0
6, 340320, Note_on_c, 4, 64, 0
6, 340320, Note_on_c, 4, 60, 0
6, 340320, Note_on_c, 4, 67, 70
6, 340320, Note_on_c, 4, 60, 70
6, 340440, Note_on_c, 4, 67, 0
6, 340440, Note_on_c, 4, 79, 70
6, 340560, Note_on_c, 4, 79, 0
6, 340560, Note_on_c, 4, 60, 0
6, 340560, Note_on_c, 4, 67, 70
6, 340560, Note_on_c, 4, 64, 70
6, 340680, Note_on_c, 4, 67, 0
6, 340680, Note_on_c, 4, 79, 70
6, 340800, Note_on_c, 4, 79, 0
6, 340800, Note_on_c, 4, 64, 0
6, 340800, Note_on_c, 4, 67, 70
6, 340800, Note_on_c, 4, 59, 70
6, 340920, Note_on_c, 4, 67, 0
6, 340920, Note_on_c, 4, 79, 70
6, 341040, Note_on_c, 4, 79, 0
6, 341040, Note_on_c, 4, 59, 0
6, 341040, Note_on_c, 4, 67, 70
6, 341040, Note_on_c, 4, 63, 70
6, 341160, Note_on_c, 4, 67, 0
6, 341160, Note_on_c, 4, 79, 70
6, 341280, Note_on_c, 4, 79, 0
6, 341280, Note_on_c, 4, 63, 0
6, 341280, Note_on_c, 4, 67, 70
6, 341280, Note_on_c, 4, 60, 70
6, 341400, Note_on_c, 4, 67, 0
6, 341400, Note_on_c, 4, 79, 70
6, 341520, Note_on_c, 4, 79, 0
6, 341520, Note_on_c, 4, 60, 0
6, 341520, Note_on_c, 4, 67, 70
6, 341520, Note_on_c, 4, 64, 70
6, 341640, Note_on_c, 4, 67, 0
6, 341640, Note_on_c, 4, 79, 70
6, 341760, Note_on_c, 4, 79, 0
6, 341760, Note_on_c, 4, 64, 0
6, 341760, Note_on_c, 4, 65, 69
6, 341760, Note_on_c, 4, 57, 69
6, 341880, Note_on_c, 4, 65, 0
6, 341880, Note_on_c, 4, 69, 71
6, 342000, Note_on_c, 4, 69, 0
6, 342000, Note_on_c, 4, 57, 0
6, 342000, Note_on_c, 4, 72, 73
6, 342000, Note_on_c, 4, 60, 73
6, 342120, Note_on_c, 4, 72, 0
6, 342120, Note_on_c, 4, 77, 75
6, 342240, Note_on_c, 4, 77, 0
6, 342240, Note_on_c, 4, 60, 0
6, 342240, Note_on_c, 4, 67, 77
6, 342240, Note_on_c, 4, 52, 77
6, 342360, Note_on_c, 4, 67, 0
6, 342360, Note_on_c, 4, 72, 80
6, 342480, Note_on_c, 4, 72, 0
6, 342480, Note_on_c, 4, 52, 0
6, 342480, Note_on_c, 4, 76, 82
6, 342480, Note_on_c, 4, 60, 82
6, 342600, Note_on_c, 4, 76, 0
6, 342600, Note_on_c, 4, 79, 84
6, 342720, Note_on_c, 4, 79, 0
6, 342720, Note_on_c, 4, 60, 0
6, 342720, Note_on_c, 4, 69, 86
6, 342720, Note_on_c, 4, 53, 86
6, 342840, Note_on_c, 4, 69, 0
6, 342840, Note_on_c, 4, 72, 89
6, 342960, Note_on_c, 4, 72, 0
6, 342960, Note_on_c, 4, 53, 0
6, 342960, Note_on_c, 4, 77, 91
6, 342960, Note_on_c, 4, 60, 91
6, 343080, Note_on_c, 4, 77, 0
6, 343080, Note_on_c, 4, 81, 93
6, 343200, Note_on_c, 4, 81, 0
6, 343200, Note_on_c, 4, 60, 0
6, 343200, Note_on_c, 4, 71, 95
6, 343200, Note_on_c, 4, 50, 95
6, 343320, Note_on_c, 4, 71, 0
6, 343320, Note_on_c, 4, 74, 97
6, 343440, Note_on_c, 4, 74, 0
6, 343440, Note_on_c, 4, 50, 0
6, 343440, Note_on_c, 4, 77, 100
6, 343440, Note_on_c, 4, 59, 100
6, 343560, Note_on_c, 4, 77, 0
6, 343560, Note_on_c, 4, 83, 102
6, 343680, Note_on_c, 4, 83, 0
6, 343680, Note_on_c, 4, 59, 0
6, 343680, Note_on_c, 4, 48, 104
6, 343800, Note_on_c, 4, 48, 0
6, 343800, Note_on_c, 4, 52, 106
6, 343920, Note_on_c, 4, 52, 0
6, 343920, Note_on_c, 4, 55, 105
6, 344040, Note_on_c, 4, 55, 0
6, 344040, Note_on_c, 4, 60, 105
6, 344160, Note_on_c, 4, 60, 0
6, 344160, Note_on_c, 4, 72, 105
6, 344280, Note_on_c, 4, 72, 0
6, 344280, Note_on_c, 4, 76, 105
6, 344400, Note_on_c, 4, 76, 0
6, 344400, Note_on_c, 4, 79, 105
6, 344520, Note_on_c, 4, 79, 0
6, 344520, Note_on_c, 4, 84, 105
6, 344640, Note_on_c, 4, 84, 0
6, 344640, Note_on_c, 4, 76, 105
6, 344760, Note_on_c, 4, 76, 0
6, 344760, Note_on_c, 4, 79, 105
6, 344880, Note_on_c, 4, 79, 0
6, 344880, Note_on_c, 4, 84, 105
6, 345000, Note_on_c, 4, 84, 0
6, 345000, Note_on_c, 4, 88, 105
6, 345120, Note_on_c, 4, 88, 0
6, 345120, Note_on_c, 4, 86, 105
6, 345240, Note_on_c, 4, 86, 0
6, 345240, Note_on_c, 4, 84, 105
6, 345360, Note_on_c, 4, 84, 0
6, 345360, Note_on_c, 4, 83, 105
6, 345480, Note_on_c, 4, 83, 0
6, 345480, Note_on_c, 4, 84, 105
6, 345600, Note_on_c, 4, 84, 0
6, 345600, Note_on_c, 4, 86, 105
6, 345600, Note_on_c, 4, 71, 105
6, 345720, Note_on_c, 4, 86, 0
6, 345720, Note_on_c, 4, 83, 105
6, 345840, Note_on_c, 4, 83, 0
6, 345840, Note_on_c, 4, 71, 0
6, 345840, Note_on_c, 4, 84, 105
6, 345840, Note_on_c, 4, 69, 105
6, 345960, Note_on_c, 4, 84, 0
6, 345960, Note_on_c, 4, 81, 105
6, 346080, Note_on_c, 4, 81, 0
6, 346080, Note_on_c, 4, 69, 0
6, 346080, Note_on_c, 4, 83, 105
6, 346080, Note_on_c, 4, 67, 105
6, 346200, Note_on_c, 4, 83, 0
6, 346200, Note_on_c, 4, 79, 105
6, 346320, Note_on_c, 4, 79, 0
6, 346320, Note_on_c, 4, 67, 0
6, 346320, Note_on_c, 4, 81, 105
6, 346320, Note_on_c, 4, 65, 105
6, 346440, Note_on_c, 4, 81, 0
6, 346440, Note_on_c, 4, 77, 105
6, 346560, Note_on_c, 4, 77, 0
6, 346560, Note_on_c, 4, 65, 0
6, 346560, Note_on_c, 4, 79, 105
6, 346560, Note_on_c, 4, 64, 105
6, 346680, Note_on_c, 4, 79, 0
6, 346680, Note_on_c, 4, 76, 105
6, 346800, Note_on_c, 4, 76, 0
6, 346800, Note_on_c, 4, 64, 0
6, 346800, Note_on_c, 4, 77, 105
6, 346800, Note_on_c, 4, 62, 105
6, 346920, Note_on_c, 4, 77, 0
6, 346920, Note_on_c, 4, 74, 105
6, 347040, Note_on_c, 4, 74, 0
6, 347040, Note_on_c, 4, 62, 0
6, 347040, Note_on_c, 4, 76, 105
6, 347040, Note_on_c, 4, 60, 105
6, 347160, Note_on_c, 4, 76, 0
6, 347160, Note_on_c, 4, 72, 105
6, 347280, Note_on_c, 4, 72, 0
6, 347280, Note_on_c, 4, 60, 0
6, 347280, Note_on_c, 4, 74, 105
6, 347280, Note_on_c, 4, 59, 105
6, 347400, Note_on_c, 4, 74, 0
6, 347400, Note_on_c, 4, 71, 105
6, 347520, Note_on_c, 4, 71, 0
6, 347520, Note_on_c, 4, 59, 0
6, 347520, Note_on_c, 4, 48, 105
6, 347640, Note_on_c, 4, 48, 0
6, 347640, Note_on_c, 4, 52, 105
6, 347760, Note_on_c, 4, 52, 0
6, 347760, Note_on_c, 4, 55, 105
6, 347880, Note_on_c, 4, 55, 0
6, 347880, Note_on_c, 4, 60, 105
6, 348000, Note_on_c, 4, 60, 0
6, 348000, Note_on_c, 4, 72, 105
6, 348120, Note_on_c, 4, 72, 0
6, 348120, Note_on_c, 4, 76, 105
6, 348240, Note_on_c, 4, 76, 0
6, 348240, Note_on_c, 4, 79, 105
6, 348360, Note_on_c, 4, 79, 0
6, 348360, Note_on_c, 4, 84, 105
6, 348480, Note_on_c, 4, 84, 0
6, 348480, Note_on_c, 4, 76, 105
6, 348600, Note_on_c, 4, 76, 0
6, 348600, Note_on_c, 4, 79, 105
6, 348720, Note_on_c, 4, 79, 0
6, 348720, Note_on_c, 4, 84, 105
6, 348840, Note_on_c, 4, 84, 0
6, 348840, Note_on_c, 4, 88, 105
6, 348960, Note_on_c, 4, 88, 0
6, 348960, Note_on_c, 4, 86, 105
6, 349080, Note_on_c, 4, 86, 0
6, 349080, Note_on_c, 4, 84, 105
6, 349200, Note_on_c, 4, 84, 0
6, 349200, Note_on_c, 4, 83, 105
6, 349320, Note_on_c, 4, 83, 0
6, 349320, Note_on_c, 4, 84, 105
6, 349440, Note_on_c, 4, 84, 0
6, 349440, Note_on_c, 4, 89, 105
6, 349440, Note_on_c, 4, 74, 105
6, 349560, Note_on_c, 4, 89, 0
6, 349560, Note_on_c, 4, 86, 105
6, 349680, Note_on_c, 4, 86, 0
6, 349680, Note_on_c, 4, 74, 0
6, 349680, Note_on_c, 4, 88, 105
6, 349680, Note_on_c, 4, 72, 105
6, 349800, Note_on_c, 4, 88, 0
6, 349800, Note_on_c, 4, 84, 105
6, 349920, Note_on_c, 4, 84, 0
6, 349920, Note_on_c, 4, 72, 0
6, 349920, Note_on_c, 4, 86, 105
6, 349920, Note_on_c, 4, 71, 105
6, 350040, Note_on_c, 4, 86, 0
6, 350040, Note_on_c, 4, 83, 105
6, 350160, Note_on_c, 4, 83, 0
6, 350160, Note_on_c, 4, 71, 0
6, 350160, Note_on_c, 4, 84, 105
6, 350160, Note_on_c, 4, 69, 105
6, 350280, Note_on_c, 4, 84, 0
6, 350280, Note_on_c, 4, 81, 105
6, 350400, Note_on_c, 4, 81, 0
6, 350400, Note_on_c, 4, 69, 0
6, 350400, Note_on_c, 4, 83, 105
6, 350400, Note_on_c, 4, 67, 105
6, 350520, Note_on_c, 4, 83, 0
6, 350520, Note_on_c, 4, 79, 105
6, 350640, Note_on_c, 4, 79, 0
6, 350640, Note_on_c, 4, 67, 0
6, 350640, Note_on_c, 4, 81, 105
6, 350640, Note_on_c, 4, 65, 105
6, 350760, Note_on_c, 4, 81, 0
6, 350760, Note_on_c, 4, 77, 105
6, 350880, Note_on_c, 4, 77, 0
6, 350880, Note_on_c, 4, 65, 0
6, 350880, Note_on_c, 4, 79, 105
6, 350880, Note_on_c, 4, 64, 105
6, 351000, Note_on_c, 4, 79, 0
6, 351000, Note_on_c, 4, 76, 105
6, 351120, Note_on_c, 4, 76, 0
6, 351120, Note_on_c, 4, 64, 0
6, 351120, Note_on_c, 4, 77, 105
6, 351120, Note_on_c, 4, 62, 105
6, 351240, Note_on_c, 4, 77, 0
6, 351240, Note_on_c, 4, 74, 105
6, 351360, Note_on_c, 4, 74, 0
6, 351360, Note_on_c, 4, 62, 0
6, 351360, Note_on_c, 4, 72, 105
6, 351360, Note_on_c, 4, 60, 105
6, 351480, Note_on_c, 4, 72, 0
6, 351480, Note_on_c, 4, 76, 105
6, 351600, Note_on_c, 4, 76, 0
6, 351600, Note_on_c, 4, 79, 105
6, 351720, Note_on_c, 4, 79, 0
6, 351720, Note_on_c, 4, 84, 105
6, 351840, Note_on_c, 4, 84, 0
6, 351840, Note_on_c, 4, 60, 0
6, 351840, Note_on_c, 4, 72, 105
6, 351840, Note_on_c, 4, 48, 105
6, 351840, Note_on_c, 4, 60, 105
6, 351960, Note_on_c, 4, 72, 0
6, 351960, Note_on_c, 4, 84, 105
6, 352080, Note_on_c, 4, 84, 0
6, 352080, Note_on_c, 4, 60, 0
6, 352080, Note_on_c, 4, 48, 0
6, 352080, Note_on_c, 4, 71, 105
6, 352080, Note_on_c, 4, 47, 105
6, 352080, Note_on_c, 4, 59, 105
6, 352200, Note_on_c, 4, 71, 0
6, 352200, Note_on_c, 4, 83, 105
6, 352320, Note_on_c, 4, 83, 0
6, 352320, Note_on_c, 4, 59, 0
6, 352320, Note_on_c, 4, 47, 0
6, 352320, Note_on_c, 4, 69, 105
6, 352320, Note_on_c, 4, 45, 105
6, 352320, Note_on_c, 4, 57, 105
6, 352440, Note_on_c, 4, 69, 0
6, 352440, Note_on_c, 4, 72, 105
6, 352560, Note_on_c, 4, 72, 0
6, 352560, Note_on_c, 4, 76, 105
6, 352680, Note_on_c, 4, 76, 0
6, 352680, Note_on_c, 4, 81, 105
6, 352800, Note_on_c, 4, 81, 0
6, 352800, Note_on_c, 4, 57, 0
6, 352800, Note_on_c, 4, 45, 0
6, 352800, Note_on_c, 4, 69, 105
6, 352800, Note_on_c, 4, 45, 105
6, 352800, Note_on_c, 4, 57, 105
6, 352920, Note_on_c, 4, 69, 0
6, 352920, Note_on_c, 4, 81, 105
6, 353040, Note_on_c, 4, 81, 0
6, 353040, Note_on_c, 4, 57, 0
6, 353040, Note_on_c, 4, 45, 0
6, 353040, Note_on_c, 4, 67, 105
6, 353040, Note_on_c, 4, 43, 105
6, 353040, Note_on_c, 4, 55, 105
6, 353160, Note_on_c, 4, 67, 0
6, 353160, Note_on_c, 4, 79, 105
6, 353280, Note_on_c, 4, 79, 0
6, 353280, Note_on_c, 4, 55, 0
6, 353280, Note_on_c, 4, 43, 0
6, 353280, Note_on_c, 4, 65, 105
6, 353280, Note_on_c, 4, 41, 105
6, 353280, Note_on_c, 4, 53, 105
6, 353400, Note_on_c, 4, 65, 0
6, 353400, Note_on_c, 4, 69, 105
6, 353520, Note_on_c, 4, 69, 0
6, 353520, Note_on_c, 4, 72, 105
6, 353640, Note_on_c, 4, 72, 0
6, 353640, Note_on_c, 4, 77, 105
6, 353760, Note_on_c, 4, 77, 0
6, 353760, Note_on_c, 4, 53, 0
6, 353760, Note_on_c, 4, 41, 0
6, 353760, Note_on_c, 4, 65, 105
6, 353760, Note_on_c, 4, 41, 105
6, 353760, Note_on_c, 4, 53, 105
6, 353880, Note_on_c, 4, 65, 0
6, 353880, Note_on_c, 4, 77, 105
6, 354000, Note_on_c, 4, 77, 0
6, 354000, Note_on_c, 4, 53, 0
6, 354000, Note_on_c, 4, 41, 0
6, 354000, Note_on_c, 4, 64, 105
6, 354000, Note_on_c, 4, 40, 105
6, 354000, Note_on_c, 4, 52, 105
6, 354120, Note_on_c, 4, 64, 0
6, 354120, Note_on_c, 4, 76, 105
6, 354240, Note_on_c, 4, 76, 0
6, 354240, Note_on_c, 4, 52, 0
6, 354240, Note_on_c, 4, 40, 0
6, 354240, Note_on_c, 4, 62, 105
6, 354240, Note_on_c, 4, 38, 105
6, 354240, Note_on_c, 4, 50, 105
6, 354360, Note_on_c, 4, 62, 0
6, 354360, Note_on_c, 4, 74, 105
6, 354480, Note_on_c, 4, 74, 0
6, 354480, Note_on_c, 4, 50, 0
6, 354480, Note_on_c, 4, 38, 0
6, 354480, Note_on_c, 4, 60, 105
6, 354480, Note_on_c, 4, 48, 105
6, 354600, Note_on_c, 4, 60, 0
6, 354600, Note_on_c, 4, 72, 105
6, 354720, Note_on_c, 4, 72, 0
6, 354720, Note_on_c, 4, 48, 0
6, 354720, Note_on_c, 4, 59, 105
6, 354720, Note_on_c, 4, 47, 105
6, 354840, Note_on_c, 4, 59, 0
6, 354840, Note_on_c, 4, 71, 105
6, 354960, Note_on_c, 4, 71, 0
6, 354960, Note_on_c, 4, 47, 0
6, 354960, Note_on_c, 4, 57, 105
6, 354960, Note_on_c, 4, 45, 105
6, 355080, Note_on_c, 4, 57, 0
6, 355080, Note_on_c, 4, 69, 105
6, 355200, Note_on_c, 4, 69, 0
6, 355200, Note_on_c, 4, 45, 0
6, 355200, Note_on_c, 4, 55, 105
6, 355200, Note_on_c, 4, 43, 105
6, 355440, Note_on_c, 4, 43, 0
6, 355440, Note_on_c, 4, 55, 0
6, 355440, Note_on_c, 4, 55, 105
6, 355440, Note_on_c, 4, 43, 105
6, 355560, Note_on_c, 4, 55, 0
6, 355560, Note_on_c, 4, 59, 105
6, 355680, Note_on_c, 4, 59, 0
6, 355680, Note_on_c, 4, 43, 0
6, 355680, Note_on_c, 4, 57, 105
6, 355680, Note_on_c, 4, 45, 105
6, 355800, Note_on_c, 4, 57, 0
6, 355800, Note_on_c, 4, 60, 105
6, 355920, Note_on_c, 4, 60, 0
6, 355920, Note_on_c, 4, 45, 0
6, 355920, Note_on_c, 4, 59, 105
6, 355920, Note_on_c, 4, 47, 105
6, 356040, Note_on_c, 4, 59, 0
6, 356040, Note_on_c, 4, 62, 105
6, 356160, Note_on_c, 4, 62, 0
6, 356160, Note_on_c, 4, 47, 0
6, 356160, Note_on_c, 4, 60, 105
6, 356160, Note_on_c, 4, 48, 105
6, 356280, Note_on_c, 4, 60, 0
6, 356280, Note_on_c, 4, 64, 105
6, 356400, Note_on_c, 4, 64, 0
6, 356400, Note_on_c, 4, 48, 0
6, 356400, Note_on_c, 4, 62, 105
6, 356400, Note_on_c, 4, 50, 105
6, 356520, Note_on_c, 4, 62, 0
6, 356520, Note_on_c, 4, 65, 105
6, 356640, Note_on_c, 4, 65, 0
6, 356640, Note_on_c, 4, 50, 0
6, 356640, Note_on_c, 4, 64, 105
6, 356640, Note_on_c, 4, 52, 105
6, 356760, Note_on_c, 4, 64, 0
6, 356760, Note_on_c, 4, 67, 105
6, 356880, Note_on_c, 4, 67, 0
6, 356880, Note_on_c, 4, 52, 0
6, 356880, Note_on_c, 4, 66, 105
6, 356880, Note_on_c, 4, 54, 105
6, 357000, Note_on_c, 4, 66, 0
6, 357000, Note_on_c, 4, 69, 105
6, 357120, Note_on_c, 4, 69, 0
6, 357120, Note_on_c, 4, 54, 0
6, 357120, Note_on_c, 4, 67, 105
6, 357120, Note_on_c, 4, 55, 105
6, 357360, Note_on_c, 4, 55, 0
6, 357360, Note_on_c, 4, 67, 0
6, 357360, Note_on_c, 4, 67, 105
6, 357360, Note_on_c, 4, 43, 105
6, 357480, Note_on_c, 4, 43, 0
6, 357480, Note_on_c, 4, 67, 0
6, 357480, Note_on_c, 4, 71, 105
6, 357480, Note_on_c, 4, 55, 105
6, 357600, Note_on_c, 4, 55, 0
6, 357600, Note_on_c, 4, 71, 0
6, 357600, Note_on_c, 4, 69, 105
6, 357600, Note_on_c, 4, 45, 105
6, 357720, Note_on_c, 4, 45, 0
6, 357720, Note_on_c, 4, 69, 0
6, 357720, Note_on_c, 4, 72, 105
6, 357720, Note_on_c, 4, 57, 105
6, 357840, Note_on_c, 4, 57, 0
6, 357840, Note_on_c, 4, 72, 0
6, 357840, Note_on_c, 4, 71, 105
6, 357840, Note_on_c, 4, 47, 105
6, 357960, Note_on_c, 4, 47, 0
6, 357960, Note_on_c, 4, 71, 0
6, 357960, Note_on_c, 4, 74, 105
6, 357960, Note_on_c, 4, 59, 105
6, 358080, Note_on_c, 4, 59, 0
6, 358080, Note_on_c, 4, 74, 0
6, 358080, Note_on_c, 4, 72, 105
6, 358080, Note_on_c, 4, 48, 105
6, 358200, Note_on_c, 4, 48, 0
6, 358200, Note_on_c, 4, 72, 0
6, 358200, Note_on_c, 4, 76, 105
6, 358200, Note_on_c, 4, 60, 105
6, 358320, Note_on_c, 4, 60, 0
6, 358320, Note_on_c, 4, 76, 0
6, 358320, Note_on_c, 4, 74, 105
6, 358320, Note_on_c, 4, 50, 105
6, 358440, Note_on_c, 4, 50, 0
6, 358440, Note_on_c, 4, 74, 0
6, 358440, Note_on_c, 4, 77, 105
6, 358440, Note_on_c, 4, 62, 105
6, 358560, Note_on_c, 4, 62, 0
6, 358560, Note_on_c, 4, 77, 0
6, 358560, Note_on_c, 4, 76, 105
6, 358560, Note_on_c, 4, 52, 105
6, 358680, Note_on_c, 4, 52, 0
6, 358680, Note_on_c, 4, 76, 0
6, 358680, Note_on_c, 4, 79, 105
6, 358680, Note_on_c, 4, 64, 105
6, 358800, Note_on_c, 4, 64, 0
6, 358800, Note_on_c, 4, 79, 0
6, 358800, Note_on_c, 4, 78, 105
6, 358800, Note_on_c, 4, 54, 105
6, 358920, Note_on_c, 4, 54, 0
6, 358920, Note_on_c, 4, 78, 0
6, 358920, Note_on_c, 4, 81, 105
6, 358920, Note_on_c, 4, 66, 105
6, 359040, Note_on_c, 4, 66, 0
6, 359040, Note_on_c, 4, 81, 0
6, 359040, Note_on_c, 4, 79, 105
6, 359040, Note_on_c, 4, 55, 105
6, 359040, Note_on_c, 4, 67, 105
6, 359520, Note_on_c, 4, 67, 0
6, 359520, Note_on_c, 4, 55, 0
6, 359520, Note_on_c, 4, 79, 0
6, 364800, Note_on_c, 4, 48, 105
6, 364920, Note_on_c, 4, 48, 0
6, 364920, Note_on_c, 4, 52, 105
6, 365040, Note_on_c, 4, 52, 0
6, 365040, Note_on_c, 4, 55, 105
6, 365160, Note_on_c, 4, 55, 0
6, 365160, Note_on_c, 4, 60, 105
6, 365280, Note_on_c, 4, 60, 0
6, 365280, Note_on_c, 4, 64, 105
6, 365400, Note_on_c, 4, 64, 0
6, 365400, Note_on_c, 4, 67, 105
6, 365520, Note_on_c, 4, 67, 0
6, 365520, Note_on_c, 4, 64, 105
6, 365640, Note_on_c, 4, 64, 0
6, 365640, Note_on_c, 4, 60, 105
6, 365760, Note_on_c, 4, 60, 0
6, 365760, Note_on_c, 4, 48, 105
6, 365880, Note_on_c, 4, 48, 0
6, 365880, Note_on_c, 4, 52, 105
6, 366000, Note_on_c, 4, 52, 0
6, 366000, Note_on_c, 4, 55, 105
6, 366120, Note_on_c, 4, 55, 0
6, 366120, Note_on_c, 4, 60, 105
6, 366240, Note_on_c, 4, 60, 0
6, 366240, Note_on_c, 4, 64, 105
6, 366360, Note_on_c, 4, 64, 0
6, 366360, Note_on_c, 4, 67, 105
6, 366480, Note_on_c, 4, 67, 0
6, 366480, Note_on_c, 4, 64, 105
6, 366600, Note_on_c, 4, 64, 0
6, 366600, Note_on_c, 4, 60, 105
6, 366720, Note_on_c, 4, 60, 0
6, 366720, Note_on_c, 4, 48, 105
6, 366840, Note_on_c, 4, 48, 0
6, 366840, Note_on_c, 4, 53, 105
6, 366960, Note_on_c, 4, 53, 0
6, 366960, Note_on_c, 4, 57, 105
6, 367080, Note_on_c, 4, 57, 0
6, 367080, Note_on_c, 4, 60, 105
6, 367200, Note_on_c, 4, 60, 0
6, 367200, Note_on_c, 4, 65, 105
6, 367320, Note_on_c, 4, 65, 0
6, 367320, Note_on_c, 4, 69, 105
6, 367440, Note_on_c, 4, 69, 0
6, 367440, Note_on_c, 4, 65, 105
6, 367560, Note_on_c, 4, 65, 0
6, 367560, Note_on_c, 4, 60, 105
6, 367680, Note_on_c, 4, 60, 0
6, 367680, Note_on_c, 4, 48, 105
6, 367800, Note_on_c, 4, 48, 0
6, 367800, Note_on_c, 4, 53, 105
6, 367920, Note_on_c, 4, 53, 0
6, 367920, Note_on_c, 4, 57, 105
6, 368040, Note_on_c, 4, 57, 0
6, 368040, Note_on_c, 4, 60, 105
6, 368160, Note_on_c, 4, 60, 0
6, 368160, Note_on_c, 4, 65, 105
6, 368280, Note_on_c, 4, 65, 0
6, 368280, Note_on_c, 4, 69, 105
6, 368400, Note_on_c, 4, 69, 0
6, 368400, Note_on_c, 4, 65, 105
6, 368520, Note_on_c, 4, 65, 0
6, 368520, Note_on_c, 4, 60, 105
6, 368640, Note_on_c, 4, 60, 0
6, 368640, Note_on_c, 4, 48, 105
6, 368760, Note_on_c, 4, 64, 105
6, 368880, Note_on_c, 4, 64, 0
6, 368880, Note_on_c, 4, 48, 0
6, 368880, Note_on_c, 4, 60, 105
6, 369000, Note_on_c, 4, 60, 0
6, 369000, Note_on_c, 4, 55, 105
6, 369120, Note_on_c, 4, 55, 0
6, 369120, Note_on_c, 4, 45, 105
6, 369240, Note_on_c, 4, 64, 105
6, 369360, Note_on_c, 4, 64, 0
6, 369360, Note_on_c, 4, 45, 0
6, 369360, Note_on_c, 4, 60, 105
6, 369480, Note_on_c, 4, 60, 0
6, 369480, Note_on_c, 4, 57, 105
6, 369600, Note_on_c, 4, 57, 0
6, 369600, Note_on_c, 4, 41, 105
6, 369720, Note_on_c, 4, 62, 105
6, 369840, Note_on_c, 4, 62, 0
6, 369840, Note_on_c, 4, 41, 0
6, 369840, Note_on_c, 4, 60, 105
6, 369960, Note_on_c, 4, 60, 0
6, 369960, Note_on_c, 4, 57, 105
6, 370080, Note_on_c, 4, 57, 0
6, 370080, Note_on_c, 4, 43, 105
6, 370200, Note_on_c, 4, 62, 105
6, 370320, Note_on_c, 4, 62, 0
6, 370320, Note_on_c, 4, 43, 0
6, 370320, Note_on_c, 4, 59, 105
6, 370440, Note_on_c, 4, 59, 0
6, 370440, Note_on_c, 4, 55, 105
6, 370560, Note_on_c, 4, 55, 0
6, 370560, Note_on_c, 4, 36, 105
6, 370680, Note_on_c, 4, 84, 105
6, 370800, Note_on_c, 4, 84, 0
6, 370800, Note_on_c, 4, 79, 105
6, 370920, Note_on_c, 4, 79, 0
6, 370920, Note_on_c, 4, 76, 105
6, 371040, Note_on_c, 4, 76, 0
6, 371040, Note_on_c, 4, 36, 0
6, 371040, Note_on_c, 4, 72, 105
6, 371160, Note_on_c, 4, 72, 0
6, 371160, Note_on_c, 4, 79, 105
6, 371280, Note_on_c, 4, 79, 0
6, 371280, Note_on_c, 4, 76, 105
6, 371400, Note_on_c, 4, 76, 0
6, 371400, Note_on_c, 4, 72, 105
6, 371520, Note_on_c, 4, 72, 0
6, 371520, Note_on_c, 4, 67, 105
6, 371640, Note_on_c, 4, 67, 0
6, 371640, Note_on_c, 4, 76, 105
6, 371760, Note_on_c, 4, 76, 0
6, 371760, Note_on_c, 4, 72, 105
6, 371880, Note_on_c, 4, 72, 0
6, 371880, Note_on_c, 4, 67, 105
6, 372000, Note_on_c, 4, 67, 0
6, 372000, Note_on_c, 4, 64, 105
6, 372120, Note_on_c, 4, 64, 0
6, 372120, Note_on_c, 4, 72, 105
6, 372240, Note_on_c, 4, 72, 0
6, 372240, Note_on_c, 4, 67, 105
6, 372360, Note_on_c, 4, 67, 0
6, 372360, Note_on_c, 4, 64, 105
6, 372480, Note_on_c, 4, 64, 0
6, 372480, Note_on_c, 4, 36, 105
6, 372600, Note_on_c, 4, 36, 0
6, 372600, Note_on_c, 4, 40, 105
6, 372720, Note_on_c, 4, 40, 0
6, 372720, Note_on_c, 4, 43, 105
6, 372840, Note_on_c, 4, 43, 0
6, 372840, Note_on_c, 4, 48, 105
6, 372960, Note_on_c, 4, 48, 0
6, 372960, Note_on_c, 4, 60, 105
6, 373080, Note_on_c, 4, 60, 0
6, 373080, Note_on_c, 4, 64, 105
6, 373200, Note_on_c, 4, 64, 0
6, 373200, Note_on_c, 4, 60, 105
6, 373320, Note_on_c, 4, 60, 0
6, 373320, Note_on_c, 4, 55, 105
6, 373440, Note_on_c, 4, 55, 0
6, 373440, Note_on_c, 4, 36, 105
6, 373560, Note_on_c, 4, 36, 0
6, 373560, Note_on_c, 4, 40, 105
6, 373680, Note_on_c, 4, 40, 0
6, 373680, Note_on_c, 4, 43, 105
6, 373800, Note_on_c, 4, 43, 0
6, 373800, Note_on_c, 4, 48, 105
6, 373920, Note_on_c, 4, 48, 0
6, 373920, Note_on_c, 4, 60, 105
6, 374040, Note_on_c, 4, 60, 0
6, 374040, Note_on_c, 4, 64, 105
6, 374160, Note_on_c, 4, 64, 0
6, 374160, Note_on_c, 4, 60, 105
6, 374280, Note_on_c, 4, 60, 0
6, 374280, Note_on_c, 4, 55, 105
6, 374400, Note_on_c, 4, 55, 0
6, 374400, Note_on_c, 4, 36, 105
6, 374520, Note_on_c, 4, 36, 0
6, 374520, Note_on_c, 4, 41, 105
6, 374640, Note_on_c, 4, 41, 0
6, 374640, Note_on_c, 4, 45, 105
6, 374760, Note_on_c, 4, 45, 0
6, 374760, Note_on_c, 4, 48, 105
6, 374880, Note_on_c, 4, 48, 0
6, 374880, Note_on_c, 4, 60, 105
6, 375000, Note_on_c, 4, 60, 0
6, 375000, Note_on_c, 4, 65, 105
6, 375120, Note_on_c, 4, 65, 0
6, 375120, Note_on_c, 4, 60, 105
6, 375240, Note_on_c, 4, 60, 0
6, 375240, Note_on_c, 4, 57, 105
6, 375360, Note_on_c, 4, 57, 0
6, 375360, Note_on_c, 4, 36, 105
6, 375480, Note_on_c, 4, 36, 0
6, 375480, Note_on_c, 4, 41, 105
6, 375600, Note_on_c, 4, 41, 0
6, 375600, Note_on_c, 4, 45, 105
6, 375720, Note_on_c, 4, 45, 0
6, 375720, Note_on_c, 4, 48, 105
6, 375840, Note_on_c, 4, 48, 0
6, 375840, Note_on_c, 4, 60, 105
6, 375960, Note_on_c, 4, 60, 0
6, 375960, Note_on_c, 4, 65, 105
6, 376080, Note_on_c, 4, 65, 0
6, 376080, Note_on_c, 4, 60, 105
6, 376200, Note_on_c, 4, 60, 0
6, 376200, Note_on_c, 4, 57, 105
6, 376260, Note_on_c, 4, 36, 105
6, 376320, Note_on_c, 4, 36, 0
6, 376320, Note_on_c, 4, 57, 0
6, 376320, Note_on_c, 4, 48, 105
6, 376440, Note_on_c, 4, 64, 105
6, 376560, Note_on_c, 4, 64, 0
6, 376560, Note_on_c, 4, 48, 0
6, 376560, Note_on_c, 4, 60, 105
6, 376680, Note_on_c, 4, 60, 0
6, 376680, Note_on_c, 4, 55, 105
6, 376740, Note_on_c, 4, 45, 105
6, 376800, Note_on_c, 4, 45, 0
6, 376800, Note_on_c, 4, 55, 0
6, 376800, Note_on_c, 4, 57, 105
6, 376920, Note_on_c, 4, 72, 105
6, 377040, Note_on_c, 4, 72, 0
6, 377040, Note_on_c, 4, 57, 0
6, 377040, Note_on_c, 4, 69, 105
6, 377160, Note_on_c, 4, 69, 0
6, 377160, Note_on_c, 4, 64, 105
6, 377220, Note_on_c, 4, 41, 105
6, 377280, Note_on_c, 4, 41, 0
6, 377280, Note_on_c, 4, 64, 0
6, 377280, Note_on_c, 4, 53, 105
6, 377400, Note_on_c, 4, 72, 105
6, 377520, Note_on_c, 4, 72, 0
6, 377520, Note_on_c, 4, 53, 0
6, 377520, Note_on_c, 4, 69, 105
6, 377640, Note_on_c, 4, 69, 0
6, 377640, Note_on_c, 4, 62, 105
6, 377700, Note_on_c, 4, 43, 105
6, 377760, Note_on_c, 4, 43, 0
6, 377760, Note_on_c, 4, 62, 0
6, 377760, Note_on_c, 4, 55, 105
6, 377880, Note_on_c, 4, 71, 105
6, 378000, Note_on_c, 4, 71, 0
6, 378000, Note_on_c, 4, 55, 0
6, 378000, Note_on_c, 4, 67, 105
6, 378120, Note_on_c, 4, 67, 0
6, 378120, Note_on_c, 4, 62, 105
6, 378240, Note_on_c, 4, 62, 0
6, 378240, Note_on_c, 4, 64, 105
6, 378240, Note_on_c, 4, 67, 105
6, 378240, Note_on_c, 4, 72, 105
6, 378240, Note_on_c, 4, 48, 105
6, 378720, Note_on_c, 4, 48, 0
6, 378720, Note_on_c, 4, 64, 0
6, 378720, Note_on_c, 4, 67, 0
6, 378720, Note_on_c, 4, 72, 0
6, 385920, Note_on_c, 4, 43, 105
6, 385920, Note_on_c, 4, 55, 105
6, 386040, Note_on_c, 4, 89, 105
6, 386160, Note_on_c, 4, 89, 0
6, 386160, Note_on_c, 4, 55, 0
6, 386160, Note_on_c, 4, 43, 0
6, 386160, Note_on_c, 4, 86, 105
6, 386280, Note_on_c, 4, 86, 0
6, 386280, Note_on_c, 4, 83, 105
6, 386400, Note_on_c, 4, 83, 0
6, 386400, Note_on_c, 4, 77, 105
6, 386520, Note_on_c, 4, 86, 105
6, 386640, Note_on_c, 4, 86, 0
6, 386640, Note_on_c, 4, 77, 0
6, 386640, Note_on_c, 4, 83, 105
6, 386760, Note_on_c, 4, 83, 0
6, 386760, Note_on_c, 4, 79, 105
6, 386880, Note_on_c, 4, 79, 0
6, 386880, Note_on_c, 4, 74, 105
6, 387000, Note_on_c, 4, 83, 105
6, 387120, Note_on_c, 4, 83, 0
6, 387120, Note_on_c, 4, 74, 0
6, 387120, Note_on_c, 4, 79, 105
6, 387240, Note_on_c, 4, 79, 0
6, 387240, Note_on_c, 4, 77, 105
6, 387360, Note_on_c, 4, 77, 0
6, 387360, Note_on_c, 4, 71, 105
6, 387480, Note_on_c, 4, 79, 105
6, 387600, Note_on_c, 4, 79, 0
6, 387600, Note_on_c, 4, 71, 0
6, 387600, Note_on_c, 4, 77, 105
6, 387720, Note_on_c, 4, 77, 0
6, 387720, Note_on_c, 4, 74, 105
6, 387840, Note_on_c, 4, 74, 0
6, 387840, Note_on_c, 4, 67, 105
6, 387960, Note_on_c, 4, 77, 105
6, 388080, Note_on_c, 4, 77, 0
6, 388080, Note_on_c, 4, 67, 0
6, 388080, Note_on_c, 4, 74, 105
6, 388200, Note_on_c, 4, 74, 0
6, 388200, Note_on_c, 4, 71, 105
6, 388320, Note_on_c, 4, 71, 0
6, 388320, Note_on_c, 4, 65, 105
6, 388440, Note_on_c, 4, 74, 105
6, 388560, Note_on_c, 4, 74, 0
6, 388560, Note_on_c, 4, 65, 0
6, 388560, Note_on_c, 4, 71, 105
6, 388680, Note_on_c, 4, 71, 0
6, 388680, Note_on_c, 4, 67, 105
6, 388800, Note_on_c, 4, 67, 0
6, 388800, Note_on_c, 4, 62, 105
6, 388920, Note_on_c, 4, 71, 105
6, 389040, Note_on_c, 4, 71, 0
6, 389040, Note_on_c, 4, 62, 0
6, 389040, Note_on_c, 4, 67, 105
6, 389160, Note_on_c, 4, 67, 0
6, 389160, Note_on_c, 4, 65, 105
6, 389280, Note_on_c, 4, 65, 0
6, 389280, Note_on_c, 4, 59, 105
6, 389400, Note_on_c, 4, 67, 105
6, 389520, Note_on_c, 4, 67, 0
6, 389520, Note_on_c, 4, 59, 0
6, 389520, Note_on_c, 4, 65, 105
6, 389640, Note_on_c, 4, 65, 0
6, 389640, Note_on_c, 4, 62, 105
6, 389760, Note_on_c, 4, 62, 0
6, 389760, Note_on_c, 4, 36, 105
6, 389760, Note_on_c, 4, 48, 105
6, 389880, Note_on_c, 4, 55, 105
6, 390000, Note_on_c, 4, 55, 0
6, 390000, Note_on_c, 4, 48, 0
6, 390000, Note_on_c, 4, 36, 0
6, 390000, Note_on_c, 4, 60, 105
6, 390120, Note_on_c, 4, 60, 0
6, 390120, Note_on_c, 4, 55, 105
6, 390240, Note_on_c, 4, 55, 0
6, 390240, Note_on_c, 4, 64, 105
6, 390360, Note_on_c, 4, 64, 0
6, 390360, Note_on_c, 4, 60, 105
6, 390480, Note_on_c, 4, 60, 0
6, 390480, Note_on_c, 4, 67, 105
6, 390600, Note_on_c, 4, 67, 0
6, 390600, Note_on_c, 4, 64, 105
6, 390720, Note_on_c, 4, 64, 0
6, 390720, Note_on_c, 4, 72, 105
6, 390840, Note_on_c, 4, 60, 105
6, 390960, Note_on_c, 4, 60, 0
6, 390960, Note_on_c, 4, 72, 0
6, 390960, Note_on_c, 4, 64, 105
6, 391080, Note_on_c, 4, 64, 0
6, 391080, Note_on_c, 4, 60, 105
6, 391200, Note_on_c, 4, 60, 0
6, 391200, Note_on_c, 4, 67, 105
6, 391320, Note_on_c, 4, 67, 0
6, 391320, Note_on_c, 4, 64, 105
6, 391440, Note_on_c, 4, 64, 0
6, 391440, Note_on_c, 4, 72, 105
6, 391560, Note_on_c, 4, 72, 0
6, 391560, Note_on_c, 4, 67, 105
6, 391680, Note_on_c, 4, 67, 0
6, 391680, Note_on_c, 4, 76, 105
6, 391800, Note_on_c, 4, 64, 105
6, 391920, Note_on_c, 4, 64, 0
6, 391920, Note_on_c, 4, 76, 0
6, 391920, Note_on_c, 4, 67, 105
6, 392040, Note_on_c, 4, 67, 0
6, 392040, Note_on_c, 4, 64, 105
6, 392160, Note_on_c, 4, 64, 0
6, 392160, Note_on_c, 4, 72, 105
6, 392280, Note_on_c, 4, 72, 0
6, 392280, Note_on_c, 4, 67, 105
6, 392400, Note_on_c, 4, 67, 0
6, 392400, Note_on_c, 4, 76, 105
6, 392520, Note_on_c, 4, 76, 0
6, 392520, Note_on_c, 4, 72, 105
6, 392640, Note_on_c, 4, 72, 0
6, 392640, Note_on_c, 4, 79, 105
6, 392760, Note_on_c, 4, 67, 105
6, 392880, Note_on_c, 4, 67, 0
6, 392880, Note_on_c, 4, 79, 0
6, 392880, Note_on_c, 4, 72, 105
6, 393000, Note_on_c, 4, 72, 0
6, 393000, Note_on_c, 4, 67, 105
6, 393120, Note_on_c, 4, 67, 0
6, 393120, Note_on_c, 4, 76, 105
6, 393240, Note_on_c, 4, 76, 0
6, 393240, Note_on_c, 4, 72, 105
6, 393360, Note_on_c, 4, 72, 0
6, 393360, Note_on_c, 4, 79, 105
6, 393480, Note_on_c, 4, 79, 0
6, 393480, Note_on_c, 4, 76, 105
6, 393600, Note_on_c, 4, 76, 0
6, 393600, Note_on_c, 4, 43, 105
6, 393600, Note_on_c, 4, 55, 105
6, 393720, Note_on_c, 4, 77, 105
6, 393840, Note_on_c, 4, 77, 0
6, 393840, Note_on_c, 4, 55, 0
6, 393840, Note_on_c, 4, 43, 0
6, 393840, Note_on_c, 4, 74, 105
6, 393960, Note_on_c, 4, 74, 0
6, 393960, Note_on_c, 4, 71, 105
6, 394080, Note_on_c, 4, 71, 0
6, 394080, Note_on_c, 4, 65, 105
6, 394200, Note_on_c, 4, 74, 105
6, 394320, Note_on_c, 4, 74, 0
6, 394320, Note_on_c, 4, 65, 0
6, 394320, Note_on_c, 4, 71, 105
6, 394440, Note_on_c, 4, 71, 0
6, 394440, Note_on_c, 4, 67, 105
6, 394560, Note_on_c, 4, 67, 0
6, 394560, Note_on_c, 4, 62, 105
6, 394680, Note_on_c, 4, 71, 105
6, 394800, Note_on_c, 4, 71, 0
6, 394800, Note_on_c, 4, 62, 0
6, 394800, Note_on_c, 4, 67, 105
6, 394920, Note_on_c, 4, 67, 0
6, 394920, Note_on_c, 4, 65, 105
6, 395040, Note_on_c, 4, 65, 0
6, 395040, Note_on_c, 4, 59, 105
6, 395160, Note_on_c, 4, 67, 105
6, 395280, Note_on_c, 4, 67, 0
6, 395280, Note_on_c, 4, 59, 0
6, 395280, Note_on_c, 4, 65, 105
6, 395400, Note_on_c, 4, 65, 0
6, 395400, Note_on_c, 4, 62, 105
6, 395520, Note_on_c, 4, 62, 0
6, 395520, Note_on_c, 4, 55, 105
6, 395640, Note_on_c, 4, 65, 105
6, 395760, Note_on_c, 4, 65, 0
6, 395760, Note_on_c, 4, 55, 0
6, 395760, Note_on_c, 4, 62, 105
6, 395880, Note_on_c, 4, 62, 0
6, 395880, Note_on_c, 4, 59, 105
6, 396000, Note_on_c, 4, 59, 0
6, 396000, Note_on_c, 4, 53, 105
6, 396120, Note_on_c, 4, 62, 105
6, 396240, Note_on_c, 4, 62, 0
6, 396240, Note_on_c, 4, 53, 0
6, 396240, Note_on_c, 4, 59, 105
6, 396360, Note_on_c, 4, 59, 0
6, 396360, Note_on_c, 4, 55, 105
6, 396480, Note_on_c, 4, 55, 0
6, 396480, Note_on_c, 4, 50, 105
6, 396600, Note_on_c, 4, 59, 105
6, 396720, Note_on_c, 4, 59, 0
6, 396720, Note_on_c, 4, 50, 0
6, 396720, Note_on_c, 4, 55, 105
6, 396840, Note_on_c, 4, 55, 0
6, 396840, Note_on_c, 4, 53, 105
6, 396960, Note_on_c, 4, 53, 0
6, 396960, Note_on_c, 4, 47, 105
6, 397080, Note_on_c, 4, 55, 105
6, 397200, Note_on_c, 4, 55, 0
6, 397200, Note_on_c, 4, 47, 0
6, 397200, Note_on_c, 4, 53, 105
6, 397320, Note_on_c, 4, 53, 0
6, 397320, Note_on_c, 4, 50, 105
6, 397440, Note_on_c, 4, 50, 0
6, 397440, Note_on_c, 4, 36, 105
6, 397440, Note_on_c, 4, 48, 105
6, 397560, Note_on_c, 4, 52, 105
6, 397680, Note_on_c, 4, 52, 0
6, 397680, Note_on_c, 4, 48, 0
6, 397680, Note_on_c, 4, 36, 0
6, 397680, Note_on_c, 4, 55, 105
6, 397800, Note_on_c, 4, 55, 0
6, 397800, Note_on_c, 4, 52, 105
6, 397920, Note_on_c, 4, 52, 0
6, 397920, Note_on_c, 4, 60, 105
6, 398040, Note_on_c, 4, 60, 0
6, 398040, Note_on_c, 4, 55, 105
6, 398160, Note_on_c, 4, 55, 0
6, 398160, Note_on_c, 4, 64, 105
6, 398280, Note_on_c, 4, 64, 0
6, 398280, Note_on_c, 4, 60, 105
6, 398400, Note_on_c, 4, 60, 0
6, 398400, Note_on_c, 4, 72, 105
6, 398520, Note_on_c, 4, 60, 105
6, 398640, Note_on_c, 4, 60, 0
6, 398640, Note_on_c, 4, 72, 0
6, 398640, Note_on_c, 4, 64, 105
6, 398760, Note_on_c, 4, 64, 0
6, 398760, Note_on_c, 4, 60, 105
6, 398880, Note_on_c, 4, 60, 0
6, 398880, Note_on_c, 4, 67, 105
6, 399000, Note_on_c, 4, 67, 0
6, 399000, Note_on_c, 4, 64, 105
6, 399120, Note_on_c, 4, 64, 0
6, 399120, Note_on_c, 4, 72, 105
6, 399240, Note_on_c, 4, 72, 0
6, 399240, Note_on_c, 4, 67, 105
6, 399360, Note_on_c, 4, 67, 0
6, 399360, Note_on_c, 4, 76, 105
6, 399480, Note_on_c, 4, 64, 105
6, 399600, Note_on_c, 4, 64, 0
6, 399600, Note_on_c, 4, 76, 0
6, 399600, Note_on_c, 4, 67, 105
6, 399720, Note_on_c, 4, 67, 0
6, 399720, Note_on_c, 4, 64, 105
6, 399840, Note_on_c, 4, 64, 0
6, 399840, Note_on_c, 4, 72, 105
6, 399960, Note_on_c, 4, 72, 0
6, 399960, Note_on_c, 4, 67, 105
6, 400080, Note_on_c, 4, 67, 0
6, 400080, Note_on_c, 4, 76, 105
6, 400200, Note_on_c, 4, 76, 0
6, 400200, Note_on_c, 4, 72, 105
6, 400320, Note_on_c, 4, 72, 0
6, 400320, Note_on_c, 4, 79, 105
6, 400440, Note_on_c, 4, 67, 105
6, 400560, Note_on_c, 4, 67, 0
6, 400560, Note_on_c, 4, 79, 0
6, 400560, Note_on_c, 4, 72, 105
6, 400680, Note_on_c, 4, 72, 0
6, 400680, Note_on_c, 4, 67, 105
6, 400800, Note_on_c, 4, 67, 0
6, 400800, Note_on_c, 4, 76, 105
6, 400920, Note_on_c, 4, 76, 0
6, 400920, Note_on_c, 4, 72, 105
6, 401040, Note_on_c, 4, 72, 0
6, 401040, Note_on_c, 4, 79, 105
6, 401160, Note_on_c, 4, 79, 0
6, 401160, Note_on_c, 4, 76, 105
6, 401280, Note_on_c, 4, 76, 0
6, 401280, Note_on_c, 4, 71, 105
6, 401280, Note_on_c, 4, 74, 105
6, 401280, Note_on_c, 4, 43, 105
6, 401280, Note_on_c, 4, 55, 105
6, 401760, Note_on_c, 4, 55, 0
6, 401760, Note_on_c, 4, 71, 0
6, 401760, Note_on_c, 4, 74, 0
6, 401760, Note_on_c, 4, 43, 0
6, 410880, Note_on_c, 4, 79, 105
6, 410880, Note_on_c, 4, 64, 105
6, 411000, Note_on_c, 4, 64, 0
6, 411000, Note_on_c, 4, 79, 0
6, 411000, Note_on_c, 4, 81, 105
6, 411000, Note_on_c, 4, 65, 105
6, 411120, Note_on_c, 4, 65, 0
6, 411120, Note_on_c, 4, 81, 0
6, 411120, Note_on_c, 4, 79, 105
6, 411120, Note_on_c, 4, 64, 105
6, 411240, Note_on_c, 4, 64, 0
6, 411240, Note_on_c, 4, 79, 0
6, 411240, Note_on_c, 4, 77, 105
6, 411240, Note_on_c, 4, 62, 105
6, 411360, Note_on_c, 4, 62, 0
6, 411360, Note_on_c, 4, 77, 0
6, 411360, Note_on_c, 4, 76, 105
6, 411360, Note_on_c, 4, 60, 105
6, 411840, Note_on_c, 4, 60, 0
6, 411840, Note_on_c, 4, 76, 0
6, 414720, Note_on_c, 4, 79, 105
6, 414720, Note_on_c, 4, 64, 105
6, 414840, Note_on_c, 4, 64, 0
6, 414840, Note_on_c, 4, 79, 0
6, 414840, Note_on_c, 4, 81, 105
6, 414840, Note_on_c, 4, 65, 105
6, 414960, Note_on_c, 4, 65, 0
6, 414960, Note_on_c, 4, 81, 0
6, 414960, Note_on_c, 4, 79, 105
6, 414960, Note_on_c, 4, 64, 105
6, 415080, Note_on_c, 4, 64, 0
6, 415080, Note_on_c, 4, 79, 0
6, 415080, Note_on_c, 4, 77, 105
6, 415080, Note_on_c, 4, 62, 105
6, 415200, Note_on_c, 4, 62, 0
6, 415200, Note_on_c, 4, 77, 0
6, 415200, Note_on_c, 4, 76, 105
6, 415200, Note_on_c, 4, 60, 105
6, 415680, Note_on_c, 4, 60, 0
6, 415680, Note_on_c, 4, 76, 0
6, 418560, Note_on_c, 4, 79, 105
6, 418560, Note_on_c, 4, 64, 105
6, 418680, Note_on_c, 4, 64, 0
6, 418680, Note_on_c, 4, 79, 0
6, 418680, Note_on_c, 4, 81, 105
6, 418680, Note_on_c, 4, 65, 105
6, 418800, Note_on_c, 4, 65, 0
6, 418800, Note_on_c, 4, 81, 0
6, 418800, Note_on_c, 4, 79, 105
6, 418800, Note_on_c, 4, 64, 105
6, 418920, Note_on_c, 4, 64, 0
6, 418920, Note_on_c, 4, 79, 0
6, 418920, Note_on_c, 4, 77, 105
6, 418920, Note_on_c, 4, 62, 105
6, 419040, Note_on_c, 4, 62, 0
6, 419040, Note_on_c, 4, 77, 0
6, 419040, Note_on_c, 4, 76, 105
6, 419040, Note_on_c, 4, 60, 105
6, 419520, Note_on_c, 4, 60, 0
6, 419520, Note_on_c, 4, 76, 0
6, 420480, Note_on_c, 4, 84, 105
6, 420480, Note_on_c, 4, 69, 105
6, 420600, Note_on_c, 4, 69, 0
6, 420600, Note_on_c, 4, 84, 0
6, 420600, Note_on_c, 4, 86, 105
6, 420600, Note_on_c, 4, 70, 105
6, 420720, Note_on_c, 4, 70, 0
6, 420720, Note_on_c, 4, 86, 0
6, 420720, Note_on_c, 4, 84, 105
6, 420720, Note_on_c, 4, 69, 105
6, 420840, Note_on_c, 4, 69, 0
6, 420840, Note_on_c, 4, 84, 0
6, 420840, Note_on_c, 4, 82, 105
6, 420840, Note_on_c, 4, 67, 105
6, 420960, Note_on_c, 4, 67, 0
6, 420960, Note_on_c, 4, 82, 0
6, 420960, Note_on_c, 4, 81, 105
6, 420960, Note_on_c, 4, 65, 105
6, 421440, Note_on_c, 4, 65, 0
6, 421440, Note_on_c, 4, 81, 0
6, 422400, Note_on_c, 4, 82, 105
6, 422400, Note_on_c, 4, 67, 105
6, 422520, Note_on_c, 4, 67, 0
6, 422520, Note_on_c, 4, 82, 0
6, 422520, Note_on_c, 4, 84, 105
6, 422520, Note_on_c, 4, 69, 105
6, 422640, Note_on_c, 4, 69, 0
6, 422640, Note_on_c, 4, 84, 0
6, 422640, Note_on_c, 4, 82, 105
6, 422640, Note_on_c, 4, 67, 105
6, 422760, Note_on_c, 4, 67, 0
6, 422760, Note_on_c, 4, 82, 0
6, 422760, Note_on_c, 4, 81, 105
6, 422760, Note_on_c, 4, 65, 105
6, 422880, Note_on_c, 4, 65, 0
6, 422880, Note_on_c, 4, 81, 0
6, 422880, Note_on_c, 4, 79, 105
6, 422880, Note_on_c, 4, 64, 105
6, 423360, Note_on_c, 4, 64, 0
6, 423360, Note_on_c, 4, 79, 0
6, 424320, Note_on_c, 4, 69, 105
6, 424320, Note_on_c, 4, 53, 105
6, 424440, Note_on_c, 4, 69, 0
6, 424440, Note_on_c, 4, 72, 105
6, 424560, Note_on_c, 4, 72, 0
6, 424560, Note_on_c, 4, 53, 0
6, 424560, Note_on_c, 4, 77, 105
6, 424560, Note_on_c, 4, 57, 105
6, 424680, Note_on_c, 4, 77, 0
6, 424680, Note_on_c, 4, 72, 105
6, 424800, Note_on_c, 4, 72, 0
6, 424800, Note_on_c, 4, 57, 0
6, 424800, Note_on_c, 4, 81, 105
6, 424800, Note_on_c, 4, 60, 105
6, 424920, Note_on_c, 4, 81, 0
6, 424920, Note_on_c, 4, 77, 105
6, 425040, Note_on_c, 4, 77, 0
6, 425040, Note_on_c, 4, 60, 0
6, 425040, Note_on_c, 4, 72, 105
6, 425040, Note_on_c, 4, 53, 105
6, 425160, Note_on_c, 4, 72, 0
6, 425160, Note_on_c, 4, 69, 105
6, 425280, Note_on_c, 4, 69, 0
6, 425280, Note_on_c, 4, 53, 0
6, 425280, Note_on_c, 4, 67, 105
6, 425280, Note_on_c, 4, 52, 105
6, 425400, Note_on_c, 4, 67, 0
6, 425400, Note_on_c, 4, 72, 105
6, 425520, Note_on_c, 4, 72, 0
6, 425520, Note_on_c, 4, 52, 0
6, 425520, Note_on_c, 4, 76, 105
6, 425520, Note_on_c, 4, 55, 105
6, 425640, Note_on_c, 4, 76, 0
6, 425640, Note_on_c, 4, 72, 105
6, 425760, Note_on_c, 4, 72, 0
6, 425760, Note_on_c, 4, 55, 0
6, 425760, Note_on_c, 4, 79, 105
6, 425760, Note_on_c, 4, 60, 105
6, 425880, Note_on_c, 4, 79, 0
6, 425880, Note_on_c, 4, 76, 105
6, 426000, Note_on_c, 4, 76, 0
6, 426000, Note_on_c, 4, 60, 0
6, 426000, Note_on_c, 4, 72, 105
6, 426000, Note_on_c, 4, 52, 105
6, 426120, Note_on_c, 4, 72, 0
6, 426120, Note_on_c, 4, 67, 105
6, 426240, Note_on_c, 4, 67, 0
6, 426240, Note_on_c, 4, 52, 0
6, 426240, Note_on_c, 4, 69, 105
6, 426240, Note_on_c, 4, 53, 105
6, 426360, Note_on_c, 4, 69, 0
6, 426360, Note_on_c, 4, 72, 105
6, 426480, Note_on_c, 4, 72, 0
6, 426480, Note_on_c, 4, 53, 0
6, 426480, Note_on_c, 4, 77, 105
6, 426480, Note_on_c, 4, 57, 105
6, 426600, Note_on_c, 4, 77, 0
6, 426600, Note_on_c, 4, 72, 105
6, 426720, Note_on_c, 4, 72, 0
6, 426720, Note_on_c, 4, 57, 0
6, 426720, Note_on_c, 4, 81, 105
6, 426720, Note_on_c, 4, 60, 105
6, 426840, Note_on_c, 4, 81, 0
6, 426840, Note_on_c, 4, 77, 105
6, 426960, Note_on_c, 4, 77, 0
6, 426960, Note_on_c, 4, 60, 0
6, 426960, Note_on_c, 4, 72, 105
6, 426960, Note_on_c, 4, 53, 105
6, 427080, Note_on_c, 4, 72, 0
6, 427080, Note_on_c, 4, 69, 105
6, 427200, Note_on_c, 4, 69, 0
6, 427200, Note_on_c, 4, 53, 0
6, 427200, Note_on_c, 4, 67, 105
6, 427200, Note_on_c, 4, 52, 105
6, 427320, Note_on_c, 4, 67, 0
6, 427320, Note_on_c, 4, 72, 105
6, 427440, Note_on_c, 4, 72, 0
6, 427440, Note_on_c, 4, 52, 0
6, 427440, Note_on_c, 4, 76, 105
6, 427440, Note_on_c, 4, 55, 105
6, 427560, Note_on_c, 4, 76, 0
6, 427560, Note_on_c, 4, 72, 105
6, 427680, Note_on_c, 4, 72, 0
6, 427680, Note_on_c, 4, 55, 0
6, 427680, Note_on_c, 4, 79, 105
6, 427680, Note_on_c, 4, 60, 105
6, 427800, Note_on_c, 4, 79, 0
6, 427800, Note_on_c, 4, 76, 105
6, 427920, Note_on_c, 4, 76, 0
6, 427920, Note_on_c, 4, 60, 0
6, 427920, Note_on_c, 4, 72, 105
6, 427920, Note_on_c, 4, 52, 105
6, 428040, Note_on_c, 4, 72, 0
6, 428040, Note_on_c, 4, 67, 105
6, 428160, Note_on_c, 4, 67, 0
6, 428160, Note_on_c, 4, 52, 0
6, 428160, Note_on_c, 4, 65, 105
6, 428160, Note_on_c, 4, 50, 105
6, 428400, Note_on_c, 4, 50, 0
6, 428400, Note_on_c, 4, 65, 0
6, 428400, Note_on_c, 4, 77, 105
6, 428400, Note_on_c, 4, 62, 105
6, 428520, Note_on_c, 4, 62, 0
6, 428520, Note_on_c, 4, 77, 0
6, 428520, Note_on_c, 4, 79, 105
6, 428520, Note_on_c, 4, 64, 105
6, 428640, Note_on_c, 4, 64, 0
6, 428640, Note_on_c, 4, 79, 0
6, 428640, Note_on_c, 4, 81, 105
6, 428640, Note_on_c, 4, 65, 105
6, 428760, Note_on_c, 4, 65, 0
6, 428760, Note_on_c, 4, 81, 0
6, 428760, Note_on_c, 4, 79, 105
6, 428760, Note_on_c, 4, 64, 105
6, 428880, Note_on_c, 4, 64, 0
6, 428880, Note_on_c, 4, 79, 0
6, 428880, Note_on_c, 4, 77, 105
6, 428880, Note_on_c, 4, 62, 105
6, 429000, Note_on_c, 4, 62, 0
6, 429000, Note_on_c, 4, 77, 0
6, 429000, Note_on_c, 4, 76, 105
6, 429000, Note_on_c, 4, 60, 105
6, 429120, Note_on_c, 4, 60, 0
6, 429120, Note_on_c, 4, 76, 0
6, 429120, Note_on_c, 4, 74, 105
6, 429120, Note_on_c, 4, 59, 105
6, 429240, Note_on_c, 4, 59, 0
6, 429240, Note_on_c, 4, 74, 0
6, 429240, Note_on_c, 4, 76, 105
6, 429240, Note_on_c, 4, 60, 105
6, 429360, Note_on_c, 4, 60, 0
6, 429360, Note_on_c, 4, 76, 0
6, 429360, Note_on_c, 4, 74, 105
6, 429360, Note_on_c, 4, 59, 105
6, 429480, Note_on_c, 4, 59, 0
6, 429480, Note_on_c, 4, 74, 0
6, 429480, Note_on_c, 4, 72, 105
6, 429480, Note_on_c, 4, 57, 105
6, 429600, Note_on_c, 4, 57, 0
6, 429600, Note_on_c, 4, 72, 0
6, 429600, Note_on_c, 4, 71, 105
6, 429600, Note_on_c, 4, 55, 105
6, 429720, Note_on_c, 4, 55, 0
6, 429720, Note_on_c, 4, 71, 0
6, 429720, Note_on_c, 4, 69, 105
6, 429720, Note_on_c, 4, 53, 105
6, 429840, Note_on_c, 4, 53, 0
6, 429840, Note_on_c, 4, 69, 0
6, 429840, Note_on_c, 4, 67, 105
6, 429840, Note_on_c, 4, 52, 105
6, 429960, Note_on_c, 4, 52, 0
6, 429960, Note_on_c, 4, 67, 0
6, 429960, Note_on_c, 4, 65, 105
6, 429960, Note_on_c, 4, 50, 105
6, 430080, Note_on_c, 4, 50, 0
6, 430080, Note_on_c, 4, 65, 0
6, 430080, Note_on_c, 4, 64, 105
6, 430080, Note_on_c, 4, 48, 105
6, 430320, Note_on_c, 4, 48, 0
6, 430320, Note_on_c, 4, 64, 0
6, 430320, Note_on_c, 4, 76, 105
6, 430320, Note_on_c, 4, 60, 105
6, 430440, Note_on_c, 4, 60, 0
6, 430440, Note_on_c, 4, 76, 0
6, 430440, Note_on_c, 4, 77, 105
6, 430440, Note_on_c, 4, 62, 105
6, 430560, Note_on_c, 4, 62, 0
6, 430560, Note_on_c, 4, 77, 0
6, 430560, Note_on_c, 4, 79, 105
6, 430560, Note_on_c, 4, 64, 105
6, 430680, Note_on_c, 4, 64, 0
6, 430680, Note_on_c, 4, 79, 0
6, 430680, Note_on_c, 4, 77, 105
6, 430680, Note_on_c, 4, 62, 105
6, 430800, Note_on_c, 4, 62, 0
6, 430800, Note_on_c, 4, 77, 0
6, 430800, Note_on_c, 4, 76, 105
6, 430800, Note_on_c, 4, 60, 105
6, 430920, Note_on_c, 4, 60, 0
6, 430920, Note_on_c, 4, 76, 0
6, 430920, Note_on_c, 4, 74, 105
6, 430920, Note_on_c, 4, 59, 105
6, 431040, Note_on_c, 4, 59, 0
6, 431040, Note_on_c, 4, 74, 0
6, 431040, Note_on_c, 4, 72, 105
6, 431040, Note_on_c, 4, 57, 105
6, 431160, Note_on_c, 4, 57, 0
6, 431160, Note_on_c, 4, 72, 0
6, 431160, Note_on_c, 4, 74, 105
6, 431160, Note_on_c, 4, 59, 105
6, 431280, Note_on_c, 4, 59, 0
6, 431280, Note_on_c, 4, 74, 0
6, 431280, Note_on_c, 4, 72, 105
6, 431280, Note_on_c, 4, 57, 105
6, 431400, Note_on_c, 4, 57, 0
6, 431400, Note_on_c, 4, 72, 0
6, 431400, Note_on_c, 4, 71, 105
6, 431400, Note_on_c, 4, 55, 105
6, 431520, Note_on_c, 4, 55, 0
6, 431520, Note_on_c, 4, 71, 0
6, 431520, Note_on_c, 4, 69, 105
6, 431520, Note_on_c, 4, 53, 105
6, 431640, Note_on_c, 4, 53, 0
6, 431640, Note_on_c, 4, 69, 0
6, 431640, Note_on_c, 4, 67, 105
6, 431640, Note_on_c, 4, 52, 105
6, 431760, Note_on_c, 4, 52, 0
6, 431760, Note_on_c, 4, 67, 0
6, 431760, Note_on_c, 4, 65, 105
6, 431760, Note_on_c, 4, 50, 105
6, 431880, Note_on_c, 4, 50, 0
6, 431880, Note_on_c, 4, 65, 0
6, 431880, Note_on_c, 4, 64, 105
6, 431880, Note_on_c, 4, 48, 105
6, 432000, Note_on_c, 4, 48, 0
6, 432000, Note_on_c, 4, 64, 0
6, 432000, Note_on_c, 4, 69, 105
6, 432000, Note_on_c, 4, 53, 105
6, 432240, Note_on_c, 4, 53, 0
6, 432240, Note_on_c, 4, 69, 0
6, 432240, Note_on_c, 4, 76, 105
6, 432240, Note_on_c, 4, 65, 105
6, 432300, Note_on_c, 4, 76, 0
6, 432300, Note_on_c, 4, 74, 105
6, 432360, Note_on_c, 4, 74, 0
6, 432360, Note_on_c, 4, 73, 105
6, 432480, Note_on_c, 4, 73, 0
6, 432480, Note_on_c, 4, 65, 0
6, 432480, Note_on_c, 4, 74, 105
6, 432480, Note_on_c, 4, 53, 105
6, 432720, Note_on_c, 4, 53, 0
6, 432720, Note_on_c, 4, 74, 0
6, 432720, Note_on_c, 4, 77, 105
6, 432720, Note_on_c, 4, 65, 105
6, 432960, Note_on_c, 4, 65, 0
6, 432960, Note_on_c, 4, 77, 0
6, 432960, Note_on_c, 4, 76, 105
6, 432960, Note_on_c, 4, 55, 105
6, 433200, Note_on_c, 4, 55, 0
6, 433200, Note_on_c, 4, 76, 0
6, 433200, Note_on_c, 4, 74, 105
6, 433200, Note_on_c, 4, 67, 105
6, 433440, Note_on_c, 4, 67, 0
6, 433440, Note_on_c, 4, 74, 0
6, 433440, Note_on_c, 4, 72, 105
6, 433440, Note_on_c, 4, 55, 105
6, 433680, Note_on_c, 4, 55, 0
6, 433680, Note_on_c, 4, 72, 0
6, 433680, Note_on_c, 4, 71, 105
6, 433680, Note_on_c, 4, 67, 105
6, 433920, Note_on_c, 4, 67, 0
6, 433920, Note_on_c, 4, 71, 0
6, 433920, Note_on_c, 4, 72, 105
6, 433920, Note_on_c, 4, 48, 105
6, 433920, Note_on_c, 4, 60, 105
6, 434040, Note_on_c, 4, 72, 0
6, 434040, Note_on_c, 4, 76, 105
6, 434160, Note_on_c, 4, 76, 0
6, 434160, Note_on_c, 4, 60, 0
6, 434160, Note_on_c, 4, 48, 0
6, 434160, Note_on_c, 4, 74, 105
6, 434160, Note_on_c, 4, 50, 105
6, 434160, Note_on_c, 4, 62, 105
6, 434280, Note_on_c, 4, 74, 0
6, 434280, Note_on_c, 4, 77, 105
6, 434400, Note_on_c, 4, 77, 0
6, 434400, Note_on_c, 4, 62, 0
6, 434400, Note_on_c, 4, 50, 0
6, 434400, Note_on_c, 4, 76, 105
6, 434400, Note_on_c, 4, 52, 105
6, 434400, Note_on_c, 4, 64, 105
6, 434520, Note_on_c, 4, 76, 0
6, 434520, Note_on_c, 4, 79, 105
6, 434640, Note_on_c, 4, 79, 0
6, 434640, Note_on_c, 4, 64, 0
6, 434640, Note_on_c, 4, 52, 0
6, 434640, Note_on_c, 4, 77, 105
6, 434640, Note_on_c, 4, 53, 105
6, 434640, Note_on_c, 4, 65, 105
6, 434760, Note_on_c, 4, 77, 0
6, 434760, Note_on_c, 4, 81, 105
6, 434880, Note_on_c, 4, 81, 0
6, 434880, Note_on_c, 4, 65, 0
6, 434880, Note_on_c, 4, 53, 0
6, 434880, Note_on_c, 4, 79, 105
6, 434880, Note_on_c, 4, 55, 105
6, 434880, Note_on_c, 4, 67, 105
6, 435120, Note_on_c, 4, 79, 0
6, 435120, Note_on_c, 4, 81, 105
6, 435360, Note_on_c, 4, 81, 0
6, 435360, Note_on_c, 4, 67, 0
6, 435360, Note_on_c, 4, 55, 0
6, 435360, Note_on_c, 4, 83, 105
6, 435600, Note_on_c, 4, 83, 0
6, 435600, Note_on_c, 4, 84, 105
6, 435840, Note_on_c, 4, 84, 0
6, 435840, Note_on_c, 4, 77, 105
6, 435960, Note_on_c, 4, 77, 0
6, 435960, Note_on_c, 4, 79, 105
6, 436080, Note_on_c, 4, 79, 0
6, 436080, Note_on_c, 4, 77, 105
6, 436200, Note_on_c, 4, 77, 0
6, 436200, Note_on_c, 4, 79, 105
6, 436320, Note_on_c, 4, 79, 0
6, 436320, Note_on_c, 4, 77, 105
6, 436320, Note_on_c, 4, 62, 105
6, 436440, Note_on_c, 4, 62, 0
6, 436440, Note_on_c, 4, 60, 105
6, 436560, Note_on_c, 4, 60, 0
6, 436560, Note_on_c, 4, 59, 105
6, 436680, Note_on_c, 4, 59, 0
6, 436680, Note_on_c, 4, 57, 105
6, 436800, Note_on_c, 4, 57, 0
6, 436800, Note_on_c, 4, 77, 0
6, 436800, Note_on_c, 4, 89, 105
6, 436800, Note_on_c, 4, 55, 105
6, 436920, Note_on_c, 4, 89, 0
6, 436920, Note_on_c, 4, 88, 105
6, 437040, Note_on_c, 4, 88, 0
6, 437040, Note_on_c, 4, 89, 105
6, 437160, Note_on_c, 4, 89, 0
6, 437160, Note_on_c, 4, 88, 105
6, 437280, Note_on_c, 4, 88, 0
6, 437280, Note_on_c, 4, 55, 0
6, 437280, Note_on_c, 4, 89, 105
6, 437280, Note_on_c, 4, 67, 105
6, 437400, Note_on_c, 4, 67, 0
6, 437400, Note_on_c, 4, 65, 105
6, 437520, Note_on_c, 4, 65, 0
6, 437520, Note_on_c, 4, 64, 105
6, 437640, Note_on_c, 4, 64, 0
6, 437640, Note_on_c, 4, 62, 105
6, 437760, Note_on_c, 4, 62, 0
6, 437760, Note_on_c, 4, 89, 0
6, 437760, Note_on_c, 4, 79, 105
6, 437760, Note_on_c, 4, 60, 105
6, 437880, Note_on_c, 4, 79, 0
6, 437880, Note_on_c, 4, 78, 105
6, 438000, Note_on_c, 4, 78, 0
6, 438000, Note_on_c, 4, 79, 105
6, 438120, Note_on_c, 4, 79, 0
6, 438120, Note_on_c, 4, 78, 105
6, 438240, Note_on_c, 4, 78, 0
6, 438240, Note_on_c, 4, 60, 0
6, 438240, Note_on_c, 4, 79, 105
6, 438240, Note_on_c, 4, 55, 105
6, 438360, Note_on_c, 4, 55, 0
6, 438360, Note_on_c, 4, 53, 105
6, 438480, Note_on_c, 4, 53, 0
6, 438480, Note_on_c, 4, 52, 105
6, 438600, Note_on_c, 4, 52, 0
6, 438600, Note_on_c, 4, 50, 105
6, 438720, Note_on_c, 4, 50, 0
6, 438720, Note_on_c, 4, 79, 0
6, 438720, Note_on_c, 4, 88, 105
6, 438720, Note_on_c, 4, 48, 105
6, 438840, Note_on_c, 4, 88, 0
6, 438840, Note_on_c, 4, 87, 105
6, 438960, Note_on_c, 4, 87, 0
6, 438960, Note_on_c, 4, 88, 105
6, 439080, Note_on_c, 4, 88, 0
6, 439080, Note_on_c, 4, 87, 105
6, 439200, Note_on_c, 4, 87, 0
6, 439200, Note_on_c, 4, 48, 0
6, 439200, Note_on_c, 4, 88, 105
6, 439200, Note_on_c, 4, 60, 105
6, 439320, Note_on_c, 4, 60, 0
6, 439320, Note_on_c, 4, 59, 105
6, 439440, Note_on_c, 4, 59, 0
6, 439440, Note_on_c, 4, 57, 105
6, 439560, Note_on_c, 4, 57, 0
6, 439560, Note_on_c, 4, 55, 105
6, 439680, Note_on_c, 4, 55, 0
6, 439680, Note_on_c, 4, 88, 0
6, 439680, Note_on_c, 4, 53, 105
6, 439800, Note_on_c, 4, 53, 0
6, 439800, Note_on_c, 4, 57, 105
6, 439920, Note_on_c, 4, 57, 0
6, 439920, Note_on_c, 4, 62, 105
6, 440040, Note_on_c, 4, 62, 0
6, 440040, Note_on_c, 4, 65, 105
6, 440160, Note_on_c, 4, 65, 0
6, 440160, Note_on_c, 4, 69, 105
6, 440280, Note_on_c, 4, 69, 0
6, 440280, Note_on_c, 4, 74, 105
6, 440400, Note_on_c, 4, 74, 0
6, 440400, Note_on_c, 4, 77, 105
6, 440520, Note_on_c, 4, 77, 0
6, 440520, Note_on_c, 4, 81, 105
6, 440640, Note_on_c, 4, 81, 0
6, 440640, Note_on_c, 4, 79, 105
6, 440640, Note_on_c, 4, 67, 105
6, 440760, Note_on_c, 4, 79, 0
6, 440760, Note_on_c, 4, 76, 105
6, 440880, Note_on_c, 4, 76, 0
6, 440880, Note_on_c, 4, 67, 0
6, 440880, Note_on_c, 4, 77, 105
6, 441000, Note_on_c, 4, 77, 0
6, 441000, Note_on_c, 4, 74, 105
6, 441120, Note_on_c, 4, 74, 0
6, 441120, Note_on_c, 4, 76, 105
6, 441120, Note_on_c, 4, 55, 105
6, 441240, Note_on_c, 4, 76, 0
6, 441240, Note_on_c, 4, 72, 105
6, 441360, Note_on_c, 4, 72, 0
6, 441360, Note_on_c, 4, 55, 0
6, 441360, Note_on_c, 4, 74, 105
6, 441480, Note_on_c, 4, 74, 0
6, 441480, Note_on_c, 4, 71, 105
6, 441600, Note_on_c, 4, 71, 0
6, 441600, Note_on_c, 4, 72, 105
6, 441600, Note_on_c, 4, 60, 105
6, 441720, Note_on_c, 4, 72, 0
6, 441720, Note_on_c, 4, 67, 105
6, 441840, Note_on_c, 4, 67, 0
6, 441840, Note_on_c, 4, 69, 105
6, 441960, Note_on_c, 4, 69, 0
6, 441960, Note_on_c, 4, 65, 105
6, 442080, Note_on_c, 4, 65, 0
6, 442080, Note_on_c, 4, 60, 0
6, 442080, Note_on_c, 4, 67, 105
6, 442200, Note_on_c, 4, 67, 0
6, 442200, Note_on_c, 4, 64, 105
6, 442320, Note_on_c, 4, 64, 0
6, 442320, Note_on_c, 4, 65, 105
6, 442440, Note_on_c, 4, 65, 0
6, 442440, Note_on_c, 4, 62, 105
6, 442560, Note_on_c, 4, 62, 0
6, 442560, Note_on_c, 4, 60, 105
6, 442800, Note_on_c, 4, 60, 0
6, 442800, Note_on_c, 4, 55, 105
6, 443040, Note_on_c, 4, 55, 0
6, 443040, Note_on_c, 4, 62, 105
6, 443280, Note_on_c, 4, 62, 0
6, 443280, Note_on_c, 4, 55, 105
6, 443520, Note_on_c, 4, 55, 0
6, 443520, Note_on_c, 4, 64, 105
6, 443760, Note_on_c, 4, 64, 0
6, 443760, Note_on_c, 4, 55, 105
6, 444000, Note_on_c, 4, 55, 0
6, 444000, Note_on_c, 4, 64, 105
6, 444240, Note_on_c, 4, 64, 0
6, 444240, Note_on_c, 4, 55, 105
6, 444480, Note_on_c, 4, 55, 0
6, 444480, Note_on_c, 4, 60, 105
6, 444720, Note_on_c, 4, 60, 0
6, 444720, Note_on_c, 4, 55, 105
6, 444960, Note_on_c, 4, 55, 0
6, 444960, Note_on_c, 4, 62, 105
6, 445200, Note_on_c, 4, 62, 0
6, 445200, Note_on_c, 4, 55, 105
6, 445440, Note_on_c, 4, 55, 0
6, 445440, Note_on_c, 4, 64, 105
6, 445680, Note_on_c, 4, 64, 0
6, 445680, Note_on_c, 4, 55, 105
6, 445920, Note_on_c, 4, 55, 0
6, 445920, Note_on_c, 4, 64, 105
6, 446160, Note_on_c, 4, 64, 0
6, 446160, Note_on_c, 4, 55, 105
6, 446400, Note_on_c, 4, 55, 0
6, 446400, Note_on_c, 4, 60, 105
6, 446640, Note_on_c, 4, 60, 0
6, 446640, Note_on_c, 4, 55, 105
6, 446880, Note_on_c, 4, 55, 0
6, 446880, Note_on_c, 4, 62, 105
6, 447120, Note_on_c, 4, 62, 0
6, 447120, Note_on_c, 4, 55, 105
6, 447360, Note_on_c, 4, 55, 0
6, 447360, Note_on_c, 4, 64, 105
6, 447600, Note_on_c, 4, 64, 0
6, 447600, Note_on_c, 4, 55, 105
6, 447840, Note_on_c, 4, 55, 0
6, 447840, Note_on_c, 4, 62, 105
6, 448080, Note_on_c, 4, 62, 0
6, 448080, Note_on_c, 4, 55, 105
6, 448320, Note_on_c, 4, 55, 0
6, 448320, Note_on_c, 4, 60, 105
6, 448560, Note_on_c, 4, 60, 0
6, 448560, Note_on_c, 4, 55, 105
6, 448800, Note_on_c, 4, 55, 0
6, 448800, Note_on_c, 4, 59, 105
6, 449040, Note_on_c, 4, 59, 0
6, 449040, Note_on_c, 4, 55, 105
6, 449280, Note_on_c, 4, 55, 0
6, 449280, Note_on_c, 4, 60, 105
6, 449400, Note_on_c, 4, 60, 0
6, 449400, Note_on_c, 4, 55, 105
6, 449520, Note_on_c, 4, 55, 0
6, 449520, Note_on_c, 4, 57, 105
6, 449640, Note_on_c, 4, 57, 0
6, 449640, Note_on_c, 4, 59, 105
6, 449760, Note_on_c, 4, 59, 0
6, 449760, Note_on_c, 4, 60, 105
6, 449880, Note_on_c, 4, 60, 0
6, 449880, Note_on_c, 4, 62, 105
6, 450000, Note_on_c, 4, 62, 0
6, 450000, Note_on_c, 4, 64, 105
6, 450120, Note_on_c, 4, 64, 0
6, 450120, Note_on_c, 4, 62, 105
6, 450240, Note_on_c, 4, 62, 0
6, 450240, Note_on_c, 4, 77, 105
6, 450240, Note_on_c, 4, 60, 105
6, 450360, Note_on_c, 4, 77, 0
6, 450360, Note_on_c, 4, 76, 105
6, 450480, Note_on_c, 4, 76, 0
6, 450480, Note_on_c, 4, 60, 0
6, 450480, Note_on_c, 4, 74, 105
6, 450480, Note_on_c, 4, 55, 105
6, 450600, Note_on_c, 4, 74, 0
6, 450600, Note_on_c, 4, 76, 105
6, 450720, Note_on_c, 4, 76, 0
6, 450720, Note_on_c, 4, 55, 0
6, 450720, Note_on_c, 4, 79, 105
6, 450720, Note_on_c, 4, 62, 105
6, 450840, Note_on_c, 4, 79, 0
6, 450840, Note_on_c, 4, 77, 105
6, 450960, Note_on_c, 4, 77, 0
6, 450960, Note_on_c, 4, 62, 0
6, 450960, Note_on_c, 4, 76, 105
6, 450960, Note_on_c, 4, 55, 105
6, 451080, Note_on_c, 4, 76, 0
6, 451080, Note_on_c, 4, 77, 105
6, 451200, Note_on_c, 4, 77, 0
6, 451200, Note_on_c, 4, 55, 0
6, 451200, Note_on_c, 4, 79, 105
6, 451200, Note_on_c, 4, 64, 105
6, 451440, Note_on_c, 4, 64, 0
6, 451440, Note_on_c, 4, 79, 0
6, 451440, Note_on_c, 4, 84, 105
6, 451440, Note_on_c, 4, 55, 105
6, 451680, Note_on_c, 4, 55, 0
6, 451680, Note_on_c, 4, 84, 0
6, 451680, Note_on_c, 4, 79, 105
6, 451680, Note_on_c, 4, 64, 105
6, 451920, Note_on_c, 4, 64, 0
6, 451920, Note_on_c, 4, 79, 0
6, 451920, Note_on_c, 4, 79, 105
6, 451920, Note_on_c, 4, 55, 105
6, 452160, Note_on_c, 4, 55, 0
6, 452160, Note_on_c, 4, 79, 0
6, 452160, Note_on_c, 4, 77, 105
6, 452160, Note_on_c, 4, 60, 105
6, 452280, Note_on_c, 4, 77, 0
6, 452280, Note_on_c, 4, 76, 105
6, 452400, Note_on_c, 4, 76, 0
6, 452400, Note_on_c, 4, 60, 0
6, 452400, Note_on_c, 4, 74, 105
6, 452400, Note_on_c, 4, 55, 105
6, 452520, Note_on_c, 4, 74, 0
6, 452520, Note_on_c, 4, 76, 105
6, 452640, Note_on_c, 4, 76, 0
6, 452640, Note_on_c, 4, 55, 0
6, 452640, Note_on_c, 4, 79, 105
6, 452640, Note_on_c, 4, 62, 105
6, 452760, Note_on_c, 4, 79, 0
6, 452760, Note_on_c, 4, 77, 105
6, 452880, Note_on_c, 4, 77, 0
6, 452880, Note_on_c, 4, 62, 0
6, 452880, Note_on_c, 4, 76, 105
6, 452880, Note_on_c, 4, 55, 105
6, 453000, Note_on_c, 4, 76, 0
6, 453000, Note_on_c, 4, 77, 105
6, 453120, Note_on_c, 4, 77, 0
6, 453120, Note_on_c, 4, 55, 0
6, 453120, Note_on_c, 4, 79, 105
6, 453120, Note_on_c, 4, 64, 105
6, 453240, Note_on_c, 4, 79, 0
6, 453240, Note_on_c, 4, 84, 105
6, 453360, Note_on_c, 4, 84, 0
6, 453360, Note_on_c, 4, 64, 0
6, 453360, Note_on_c, 4, 88, 105
6, 453360, Note_on_c, 4, 55, 105
6, 453480, Note_on_c, 4, 88, 0
6, 453480, Note_on_c, 4, 84, 105
6, 453600, Note_on_c, 4, 84, 0
6, 453600, Note_on_c, 4, 55, 0
6, 453600, Note_on_c, 4, 79, 105
6, 453600, Note_on_c, 4, 64, 105
6, 453840, Note_on_c, 4, 64, 0
6, 453840, Note_on_c, 4, 79, 0
6, 453840, Note_on_c, 4, 79, 105
6, 453840, Note_on_c, 4, 55, 105
6, 454080, Note_on_c, 4, 55, 0
6, 454080, Note_on_c, 4, 79, 0
6, 454080, Note_on_c, 4, 77, 105
6, 454080, Note_on_c, 4, 60, 105
6, 454200, Note_on_c, 4, 77, 0
6, 454200, Note_on_c, 4, 76, 105
6, 454320, Note_on_c, 4, 76, 0
6, 454320, Note_on_c, 4, 60, 0
6, 454320, Note_on_c, 4, 74, 105
6, 454320, Note_on_c, 4, 55, 105
6, 454440, Note_on_c, 4, 74, 0
6, 454440, Note_on_c, 4, 76, 105
6, 454560, Note_on_c, 4, 76, 0
6, 454560, Note_on_c, 4, 55, 0
6, 454560, Note_on_c, 4, 79, 105
6, 454560, Note_on_c, 4, 62, 105
6, 454680, Note_on_c, 4, 79, 0
6, 454680, Note_on_c, 4, 77, 105
6, 454800, Note_on_c, 4, 77, 0
6, 454800, Note_on_c, 4, 62, 0
6, 454800, Note_on_c, 4, 76, 105
6, 454800, Note_on_c, 4, 55, 105
6, 454920, Note_on_c, 4, 76, 0
6, 454920, Note_on_c, 4, 77, 105
6, 455040, Note_on_c, 4, 77, 0
6, 455040, Note_on_c, 4, 55, 0
6, 455040, Note_on_c, 4, 79, 105
6, 455040, Note_on_c, 4, 64, 105
6, 455160, Note_on_c, 4, 79, 0
6, 455160, Note_on_c, 4, 76, 105
6, 455280, Note_on_c, 4, 76, 0
6, 455280, Note_on_c, 4, 64, 0
6, 455280, Note_on_c, 4, 79, 105
6, 455280, Note_on_c, 4, 55, 105
6, 455400, Note_on_c, 4, 79, 0
6, 455400, Note_on_c, 4, 76, 105
6, 455520, Note_on_c, 4, 76, 0
6, 455520, Note_on_c, 4, 55, 0
6, 455520, Note_on_c, 4, 77, 105
6, 455520, Note_on_c, 4, 62, 105
6, 455640, Note_on_c, 4, 77, 0
6, 455640, Note_on_c, 4, 74, 105
6, 455760, Note_on_c, 4, 74, 0
6, 455760, Note_on_c, 4, 62, 0
6, 455760, Note_on_c, 4, 77, 105
6, 455760, Note_on_c, 4, 55, 105
6, 455880, Note_on_c, 4, 77, 0
6, 455880, Note_on_c, 4, 74, 105
6, 456000, Note_on_c, 4, 74, 0
6, 456000, Note_on_c, 4, 55, 0
6, 456000, Note_on_c, 4, 76, 105
6, 456000, Note_on_c, 4, 60, 105
6, 456120, Note_on_c, 4, 76, 0
6, 456120, Note_on_c, 4, 72, 105
6, 456240, Note_on_c, 4, 72, 0
6, 456240, Note_on_c, 4, 60, 0
6, 456240, Note_on_c, 4, 76, 105
6, 456240, Note_on_c, 4, 55, 105
6, 456360, Note_on_c, 4, 76, 0
6, 456360, Note_on_c, 4, 72, 105
6, 456480, Note_on_c, 4, 72, 0
6, 456480, Note_on_c, 4, 55, 0
6, 456480, Note_on_c, 4, 74, 105
6, 456480, Note_on_c, 4, 59, 105
6, 456600, Note_on_c, 4, 74, 0
6, 456600, Note_on_c, 4, 71, 105
6, 456720, Note_on_c, 4, 71, 0
6, 456720, Note_on_c, 4, 59, 0
6, 456720, Note_on_c, 4, 74, 105
6, 456720, Note_on_c, 4, 55, 105
6, 456840, Note_on_c, 4, 74, 0
6, 456840, Note_on_c, 4, 71, 105
6, 456960, Note_on_c, 4, 71, 0
6, 456960, Note_on_c, 4, 55, 0
6, 456960, Note_on_c, 4, 67, 105
6, 456960, Note_on_c, 4, 52, 105
6, 457080, Note_on_c, 4, 52, 0
6, 457080, Note_on_c, 4, 67, 0
6, 457080, Note_on_c, 4, 72, 105
6, 457080, Note_on_c, 4, 55, 105
6, 457200, Note_on_c, 4, 55, 0
6, 457200, Note_on_c, 4, 72, 0
6, 457200, Note_on_c, 4, 76, 105
6, 457200, Note_on_c, 4, 60, 105
6, 457320, Note_on_c, 4, 60, 0
6, 457320, Note_on_c, 4, 76, 0
6, 457320, Note_on_c, 4, 79, 105
6, 457320, Note_on_c, 4, 64, 105
6, 457440, Note_on_c, 4, 64, 0
6, 457440, Note_on_c, 4, 79, 0
6, 457440, Note_on_c, 4, 77, 105
6, 457560, Note_on_c, 4, 77, 0
6, 457560, Note_on_c, 4, 76, 105
6, 457680, Note_on_c, 4, 76, 0
6, 457680, Note_on_c, 4, 74, 105
6, 457800, Note_on_c, 4, 74, 0
6, 457800, Note_on_c, 4, 72, 105
6, 457920, Note_on_c, 4, 72, 0
6, 457920, Note_on_c, 4, 69, 105
6, 457920, Note_on_c, 4, 53, 105
6, 458040, Note_on_c, 4, 53, 0
6, 458040, Note_on_c, 4, 69, 0
6, 458040, Note_on_c, 4, 74, 105
6, 458040, Note_on_c, 4, 57, 105
6, 458160, Note_on_c, 4, 57, 0
6, 458160, Note_on_c, 4, 74, 0
6, 458160, Note_on_c, 4, 77, 105
6, 458160, Note_on_c, 4, 62, 105
6, 458280, Note_on_c, 4, 62, 0
6, 458280, Note_on_c, 4, 77, 0
6, 458280, Note_on_c, 4, 81, 105
6, 458280, Note_on_c, 4, 65, 105
6, 458400, Note_on_c, 4, 65, 0
6, 458400, Note_on_c, 4, 81, 0
6, 458400, Note_on_c, 4, 79, 105
6, 458520, Note_on_c, 4, 79, 0
6, 458520, Note_on_c, 4, 77, 105
6, 458640, Note_on_c, 4, 77, 0
6, 458640, Note_on_c, 4, 76, 105
6, 458760, Note_on_c, 4, 76, 0
6, 458760, Note_on_c, 4, 74, 105
6, 458880, Note_on_c, 4, 74, 0
6, 458880, Note_on_c, 4, 43, 105
6, 459000, Note_on_c, 4, 76, 105
6, 459120, Note_on_c, 4, 76, 0
6, 459120, Note_on_c, 4, 43, 0
6, 459120, Note_on_c, 4, 79, 105
6, 459240, Note_on_c, 4, 79, 0
6, 459240, Note_on_c, 4, 76, 105
6, 459360, Note_on_c, 4, 76, 0
6, 459360, Note_on_c, 4, 55, 105
6, 459360, Note_on_c, 4, 64, 105
6, 459480, Note_on_c, 4, 72, 105
6, 459600, Note_on_c, 4, 72, 0
6, 459600, Note_on_c, 4, 64, 0
6, 459600, Note_on_c, 4, 55, 0
6, 459600, Note_on_c, 4, 76, 105
6, 459720, Note_on_c, 4, 76, 0
6, 459720, Note_on_c, 4, 72, 105
6, 459840, Note_on_c, 4, 72, 0
6, 459840, Note_on_c, 4, 55, 105
6, 459840, Note_on_c, 4, 65, 105
6, 459960, Note_on_c, 4, 74, 105
6, 460080, Note_on_c, 4, 74, 0
6, 460080, Note_on_c, 4, 65, 0
6, 460080, Note_on_c, 4, 55, 0
6, 460080, Note_on_c, 4, 77, 105
6, 460200, Note_on_c, 4, 77, 0
6, 460200, Note_on_c, 4, 74, 105
6, 460320, Note_on_c, 4, 74, 0
6, 460320, Note_on_c, 4, 55, 105
6, 460320, Note_on_c, 4, 62, 105
6, 460440, Note_on_c, 4, 71, 105
6, 460560, Note_on_c, 4, 71, 0
6, 460560, Note_on_c, 4, 62, 0
6, 460560, Note_on_c, 4, 55, 0
6, 460560, Note_on_c, 4, 74, 105
6, 460680, Note_on_c, 4, 74, 0
6, 460680, Note_on_c, 4, 71, 113
6, 460720, Note_on_c, 4, 52, 115
6, 460739, Note_on_c, 4, 71, 0
6, 460740, Note_on_c, 4, 55, 117
6, 460760, Note_on_c, 4, 60, 120
6, 460780, Note_on_c, 4, 64, 120
6, 460800, Note_on_c, 4, 67, 122
6, 460820, Note_on_c, 4, 72, 123
6, 460840, Note_on_c, 4, 76, 125
6, 460860, Note_on_c, 4, 79, 125
6, 461260, Note_on_c, 4, 64, 0
6, 461279, Note_on_c, 4, 76, 0
6, 461280, Note_on_c, 4, 67, 0
6, 461284, Note_on_c, 4, 79, 0
6, 461289, Note_on_c, 4, 60, 0
6, 461289, Note_on_c, 4, 72, 0
6, 461289, Note_on_c, 4, 52, 0
6, 461289, Note_on_c, 4, 55, 0
6, 461680, Note_on_c, 4, 53, 115
6, 461700, Note_on_c, 4, 57, 116
6, 461720, Note_on_c, 4, 60, 118
6, 461740, Note_on_c, 4, 65, 124
6, 461760, Note_on_c, 4, 69, 125
6, 461780, Note_on_c, 4, 72, 125
6, 461800, Note_on_c, 4, 77, 127
6, 461820, Note_on_c, 4, 81, 127
6, 462239, Note_on_c, 4, 77, 0
6, 462239, Note_on_c, 4, 57, 0
6, 462240, Note_on_c, 4, 69, 0
6, 462249, Note_on_c, 4, 53, 0
6, 462249, Note_on_c, 4, 65, 0
6, 462249, Note_on_c, 4, 60, 0
6, 462254, Note_on_c, 4, 72, 0
6, 462264, Note_on_c, 4, 81, 0
6, 462720, Note_on_c, 4, 43, 105
6, 462840, Note_on_c, 4, 43, 0
6, 462840, Note_on_c, 4, 48, 105
6, 462960, Note_on_c, 4, 48, 0
6, 462960, Note_on_c, 4, 52, 105
6, 463080, Note_on_c, 4, 52, 0
6, 463080, Note_on_c, 4, 55, 105
6, 463200, Note_on_c, 4, 55, 0
6, 463200, Note_on_c, 4, 64, 105
6, 463320, Note_on_c, 4, 64, 0
6, 463320, Note_on_c, 4, 67, 105
6, 463440, Note_on_c, 4, 67, 0
6, 463440, Note_on_c, 4, 72, 105
6, 463560, Note_on_c, 4, 72, 0
6, 463560, Note_on_c, 4, 76, 105
6, 463680, Note_on_c, 4, 76, 0
6, 463680, Note_on_c, 4, 55, 105
6, 463800, Note_on_c, 4, 55, 0
6, 463800, Note_on_c, 4, 60, 105
6, 463920, Note_on_c, 4, 60, 0
6, 463920, Note_on_c, 4, 64, 105
6, 464040, Note_on_c, 4, 64, 0
6, 464040, Note_on_c, 4, 67, 105
6, 464160, Note_on_c, 4, 67, 0
6, 464160, Note_on_c, 4, 72, 105
6, 464280, Note_on_c, 4, 72, 0
6, 464280, Note_on_c, 4, 76, 105
6, 464400, Note_on_c, 4, 76, 0
6, 464400, Note_on_c, 4, 79, 105
6, 464520, Note_on_c, 4, 79, 0
6, 464520, Note_on_c, 4, 84, 105
6, 464640, Note_on_c, 4, 84, 0
6, 464640, Note_on_c, 4, 83, 105
6, 464760, Note_on_c, 4, 83, 0
6, 464760, Note_on_c, 4, 79, 105
6, 464880, Note_on_c, 4, 79, 0
6, 464880, Note_on_c, 4, 77, 105
6, 465000, Note_on_c, 4, 77, 0
6, 465000, Note_on_c, 4, 74, 105
6, 465120, Note_on_c, 4, 74, 0
6, 465120, Note_on_c, 4, 65, 105
6, 465240, Note_on_c, 4, 65, 0
6, 465240, Note_on_c, 4, 62, 105
6, 465360, Note_on_c, 4, 62, 0
6, 465360, Note_on_c, 4, 59, 105
6, 465480, Note_on_c, 4, 59, 0
6, 465480, Note_on_c, 4, 55, 105
6, 465600, Note_on_c, 4, 55, 0
6, 465600, Note_on_c, 4, 77, 105
6, 465720, Note_on_c, 4, 77, 0
6, 465720, Note_on_c, 4, 74, 105
6, 465840, Note_on_c, 4, 74, 0
6, 465840, Note_on_c, 4, 71, 105
6, 465960, Note_on_c, 4, 71, 0
6, 465960, Note_on_c, 4, 67, 105
6, 466080, Note_on_c, 4, 67, 0
6, 466080, Note_on_c, 4, 53, 105
6, 466200, Note_on_c, 4, 53, 0
6, 466200, Note_on_c, 4, 50, 105
6, 466320, Note_on_c, 4, 50, 0
6, 466320, Note_on_c, 4, 47, 105
6, 466440, Note_on_c, 4, 47, 0
6, 466440, Note_on_c, 4, 43, 105
6, 466560, Note_on_c, 4, 43, 0
6, 466560, Note_on_c, 4, 64, 105
6, 466560, Note_on_c, 4, 67, 105
6, 466560, Note_on_c, 4, 72, 105
6, 466560, Note_on_c, 4, 36, 105
6, 466560, Note_on_c, 4, 48, 105
6, 467040, Note_on_c, 4, 48, 0
6, 467040, Note_on_c, 4, 72, 0
6, 467040, Note_on_c, 4, 64, 0
6, 467040, Note_on_c, 4, 67, 0
6, 467040, Note_on_c, 4, 36, 0
6, 480000, Note_on_c, 4, 76, 105
6, 480000, Note_on_c, 4, 43, 105
6, 480000, Note_on_c, 4, 55, 105
6, 480480, Note_on_c, 4, 55, 0
6, 480480, Note_on_c, 4, 43, 0
6, 480480, Note_on_c, 4, 76, 0
6, 480720, Note_on_c, 4, 72, 105
6, 480960, Note_on_c, 4, 72, 0
6, 480960, Note_on_c, 4, 76, 105
6, 481080, Note_on_c, 4, 76, 0
6, 481080, Note_on_c, 4, 74, 105
6, 481200, Note_on_c, 4, 74, 0
6, 481200, Note_on_c, 4, 76, 105
6, 481260, Note_on_c, 4, 76, 0
6, 481260, Note_on_c, 4, 74, 105
6, 481320, Note_on_c, 4, 74, 0
6, 481320, Note_on_c, 4, 76, 105
6, 481348, Note_on_c, 4, 76, 0
6, 481348, Note_on_c, 4, 74, 105
6, 481380, Note_on_c, 4, 74, 0
6, 481380, Note_on_c, 4, 76, 105
6, 481408, Note_on_c, 4, 76, 0
6, 481408, Note_on_c, 4, 74, 105
6, 481440, Note_on_c, 4, 74, 0
6, 481440, Note_on_c, 4, 76, 105
6, 481468, Note_on_c, 4, 76, 0
6, 481468, Note_on_c, 4, 74, 105
6, 481500, Note_on_c, 4, 74, 0
6, 481500, Note_on_c, 4, 76, 105
6, 481528, Note_on_c, 4, 76, 0
6, 481528, Note_on_c, 4, 74, 105
6, 481560, Note_on_c, 4, 74, 0
6, 481560, Note_on_c, 4, 76, 105
6, 481588, Note_on_c, 4, 76, 0
6, 481588, Note_on_c, 4, 74, 105
6, 481620, Note_on_c, 4, 74, 0
6, 481620, Note_on_c, 4, 76, 105
6, 481648, Note_on_c, 4, 76, 0
6, 481648, Note_on_c, 4, 74, 105
6, 481680, Note_on_c, 4, 74, 0
6, 481680, Note_on_c, 4, 72, 105
6, 481800, Note_on_c, 4, 72, 0
6, 481800, Note_on_c, 4, 74, 105
6, 481828, Note_on_c, 4, 48, 105
6, 481860, Note_on_c, 4, 52, 105
6, 481888, Note_on_c, 4, 55, 105
6, 481920, Note_on_c, 4, 74, 0
6, 481920, Note_on_c, 4, 72, 105
6, 481920, Note_on_c, 4, 60, 105
6, 482400, Note_on_c, 4, 60, 0
6, 482400, Note_on_c, 4, 48, 0
6, 482400, Note_on_c, 4, 55, 0
6, 482400, Note_on_c, 4, 52, 0
6, 482400, Note_on_c, 4, 72, 0
6, 503040, Note_on_c, 4, 79, 89
6, 503040, Note_on_c, 4, 72, 89
6, 503040, Note_on_c, 4, 76, 89
6, 503040, Note_on_c, 4, 64, 89
6, 503040, Note_on_c, 4, 60, 89
6, 503160, Note_on_c, 4, 64, 0
6, 503160, Note_on_c, 4, 79, 0
6, 503160, Note_on_c, 4, 84, 89
6, 503160, Note_on_c, 4, 67, 89
6, 503280, Note_on_c, 4, 67, 0
6, 503280, Note_on_c, 4, 72, 0
6, 503280, Note_on_c, 4, 60, 0
6, 503280, Note_on_c, 4, 76, 0
6, 503280, Note_on_c, 4, 84, 0
6, 503280, Note_on_c, 4, 79, 89
6, 503280, Note_on_c, 4, 72, 89
6, 503280, Note_on_c, 4, 76, 89
6, 503280, Note_on_c, 4, 64, 89
6, 503280, Note_on_c, 4, 60, 89
6, 503400, Note_on_c, 4, 64, 0
6, 503400, Note_on_c, 4, 79, 0
6, 503400, Note_on_c, 4, 84, 89
6, 503400, Note_on_c, 4, 67, 89
6, 503520, Note_on_c, 4, 67, 0
6, 503520, Note_on_c, 4, 72, 0
6, 503520, Note_on_c, 4, 60, 0
6, 503520, Note_on_c, 4, 76, 0
6, 503520, Note_on_c, 4, 84, 0
6, 503520, Note_on_c, 4, 79, 89
6, 503520, Note_on_c, 4, 72, 89
6, 503520, Note_on_c, 4, 76, 89
6, 503520, Note_on_c, 4, 64, 89
6, 503520, Note_on_c, 4, 60, 89
6, 503640, Note_on_c, 4, 64, 0
6, 503640, Note_on_c, 4, 79, 0
6, 503640, Note_on_c, 4, 84, 89
6, 503640, Note_on_c, 4, 67, 89
6, 503760, Note_on_c, 4, 67, 0
6, 503760, Note_on_c, 4, 72, 0
6, 503760, Note_on_c, 4, 60, 0
6, 503760, Note_on_c, 4, 76, 0
6, 503760, Note_on_c, 4, 84, 0
6, 503760, Note_on_c, 4, 79, 89
6, 503760, Note_on_c, 4, 72, 89
6, 503760, Note_on_c, 4, 76, 89
6, 503760, Note_on_c, 4, 64, 89
6, 503760, Note_on_c, 4, 60, 89
6, 503880, Note_on_c, 4, 64, 0
6, 503880, Note_on_c, 4, 79, 0
6, 503880, Note_on_c, 4, 84, 89
6, 503880, Note_on_c, 4, 67, 89
6, 504000, Note_on_c, 4, 67, 0
6, 504000, Note_on_c, 4, 72, 0
6, 504000, Note_on_c, 4, 60, 0
6, 504000, Note_on_c, 4, 76, 0
6, 504000, Note_on_c, 4, 84, 0
6, 504000, Note_on_c, 4, 79, 89
6, 504000, Note_on_c, 4, 72, 89
6, 504000, Note_on_c, 4, 76, 89
6, 504000, Note_on_c, 4, 64, 89
6, 504000, Note_on_c, 4, 60, 89
6, 504120, Note_on_c, 4, 64, 0
6, 504120, Note_on_c, 4, 79, 0
6, 504120, Note_on_c, 4, 84, 89
6, 504120, Note_on_c, 4, 67, 89
6, 504240, Note_on_c, 4, 67, 0
6, 504240, Note_on_c, 4, 72, 0
6, 504240, Note_on_c, 4, 60, 0
6, 504240, Note_on_c, 4, 76, 0
6, 504240, Note_on_c, 4, 84, 0
6, 504240, Note_on_c, 4, 79, 89
6, 504240, Note_on_c, 4, 72, 89
6, 504240, Note_on_c, 4, 76, 89
6, 504240, Note_on_c, 4, 64, 89
6, 504240, Note_on_c, 4, 60, 89
6, 504360, Note_on_c, 4, 64, 0
6, 504360, Note_on_c, 4, 79, 0
6, 504360, Note_on_c, 4, 84, 90
6, 504360, Note_on_c, 4, 67, 90
6, 504480, Note_on_c, 4, 67, 0
6, 504480, Note_on_c, 4, 72, 0
6, 504480, Note_on_c, 4, 60, 0
6, 504480, Note_on_c, 4, 76, 0
6, 504480, Note_on_c, 4, 84, 0
6, 504480, Note_on_c, 4, 79, 90
6, 504480, Note_on_c, 4, 72, 90
6, 504480, Note_on_c, 4, 76, 90
6, 504480, Note_on_c, 4, 64, 90
6, 504480, Note_on_c, 4, 60, 90
6, 504600, Note_on_c, 4, 64, 0
6, 504600, Note_on_c, 4, 79, 0
6, 504600, Note_on_c, 4, 84, 90
6, 504600, Note_on_c, 4, 67, 90
6, 504720, Note_on_c, 4, 67, 0
6, 504720, Note_on_c, 4, 72, 0
6, 504720, Note_on_c, 4, 60, 0
6, 504720, Note_on_c, 4, 76, 0
6, 504720, Note_on_c, 4, 84, 0
6, 504720, Note_on_c, 4, 79, 90
6, 504720, Note_on_c, 4, 72, 90
6, 504720, Note_on_c, 4, 76, 90
6, 504720, Note_on_c, 4, 64, 90
6, 504720, Note_on_c, 4, 60, 90
6, 504840, Note_on_c, 4, 64, 0
6, 504840, Note_on_c, 4, 79, 0
6, 504840, Note_on_c, 4, 84, 90
6, 504840, Note_on_c, 4, 67, 90
6, 504960, Note_on_c, 4, 67, 0
6, 504960, Note_on_c, 4, 72, 0
6, 504960, Note_on_c, 4, 60, 0
6, 504960, Note_on_c, 4, 76, 0
6, 504960, Note_on_c, 4, 84, 0
6, 504960, Note_on_c, 4, 79, 90
6, 504960, Note_on_c, 4, 72, 90
6, 504960, Note_on_c, 4, 76, 90
6, 504960, Note_on_c, 4, 64, 90
6, 504960, Note_on_c, 4, 60, 90
6, 505080, Note_on_c, 4, 64, 0
6, 505080, Note_on_c, 4, 79, 0
6, 505080, Note_on_c, 4, 84, 90
6, 505080, Note_on_c, 4, 67, 90
6, 505200, Note_on_c, 4, 67, 0
6, 505200, Note_on_c, 4, 72, 0
6, 505200, Note_on_c, 4, 60, 0
6, 505200, Note_on_c, 4, 76, 0
6, 505200, Note_on_c, 4, 84, 0
6, 505200, Note_on_c, 4, 79, 90
6, 505200, Note_on_c, 4, 72, 90
6, 505200, Note_on_c, 4, 76, 90
6, 505200, Note_on_c, 4, 64, 90
6, 505200, Note_on_c, 4, 60, 90
6, 505320, Note_on_c, 4, 64, 0
6, 505320, Note_on_c, 4, 79, 0
6, 505320, Note_on_c, 4, 84, 90
6, 505320, Note_on_c, 4, 67, 90
6, 505440, Note_on_c, 4, 67, 0
6, 505440, Note_on_c, 4, 72, 0
6, 505440, Note_on_c, 4, 60, 0
6, 505440, Note_on_c, 4, 76, 0
6, 505440, Note_on_c, 4, 84, 0
6, 505440, Note_on_c, 4, 79, 90
6, 505440, Note_on_c, 4, 72, 90
6, 505440, Note_on_c, 4, 76, 90
6, 505440, Note_on_c, 4, 64, 90
6, 505440, Note_on_c, 4, 60, 90
6, 505560, Note_on_c, 4, 64, 0
6, 505560, Note_on_c, 4, 79, 0
6, 505560, Note_on_c, 4, 84, 90
6, 505560, Note_on_c, 4, 67, 90
6, 505680, Note_on_c, 4, 67, 0
6, 505680, Note_on_c, 4, 72, 0
6, 505680, Note_on_c, 4, 60, 0
6, 505680, Note_on_c, 4, 76, 0
6, 505680, Note_on_c, 4, 84, 0
6, 505680, Note_on_c, 4, 79, 91
6, 505680, Note_on_c, 4, 72, 91
6, 505680, Note_on_c, 4, 76, 91
6, 505680, Note_on_c, 4, 64, 91
6, 505680, Note_on_c, 4, 60, 91
6, 505800, Note_on_c, 4, 64, 0
6, 505800, Note_on_c, 4, 79, 0
6, 505800, Note_on_c, 4, 84, 91
6, 505800, Note_on_c, 4, 67, 91
6, 505920, Note_on_c, 4, 67, 0
6, 505920, Note_on_c, 4, 72, 0
6, 505920, Note_on_c, 4, 60, 0
6, 505920, Note_on_c, 4, 76, 0
6, 505920, Note_on_c, 4, 84, 0
6, 505920, Note_on_c, 4, 79, 91
6, 505920, Note_on_c, 4, 72, 91
6, 505920, Note_on_c, 4, 76, 91
6, 505920, Note_on_c, 4, 64, 91
6, 505920, Note_on_c, 4, 60, 91
6, 506040, Note_on_c, 4, 64, 0
6, 506040, Note_on_c, 4, 79, 0
6, 506040, Note_on_c, 4, 84, 91
6, 506040, Note_on_c, 4, 67, 91
6, 506160, Note_on_c, 4, 67, 0
6, 506160, Note_on_c, 4, 72, 0
6, 506160, Note_on_c, 4, 60, 0
6, 506160, Note_on_c, 4, 76, 0
6, 506160, Note_on_c, 4, 84, 0
6, 506160, Note_on_c, 4, 79, 91
6, 506160, Note_on_c, 4, 72, 91
6, 506160, Note_on_c, 4, 76, 91
6, 506160, Note_on_c, 4, 64, 91
6, 506160, Note_on_c, 4, 60, 91
6, 506280, Note_on_c, 4, 64, 0
6, 506280, Note_on_c, 4, 79, 0
6, 506280, Note_on_c, 4, 84, 91
6, 506280, Note_on_c, 4, 67, 91
6, 506400, Note_on_c, 4, 67, 0
6, 506400, Note_on_c, 4, 72, 0
6, 506400, Note_on_c, 4, 60, 0
6, 506400, Note_on_c, 4, 76, 0
6, 506400, Note_on_c, 4, 84, 0
6, 506400, Note_on_c, 4, 79, 91
6, 506400, Note_on_c, 4, 72, 91
6, 506400, Note_on_c, 4, 76, 91
6, 506400, Note_on_c, 4, 64, 91
6, 506400, Note_on_c, 4, 60, 91
6, 506520, Note_on_c, 4, 64, 0
6, 506520, Note_on_c, 4, 79, 0
6, 506520, Note_on_c, 4, 84, 91
6, 506520, Note_on_c, 4, 67, 91
6, 506640, Note_on_c, 4, 67, 0
6, 506640, Note_on_c, 4, 72, 0
6, 506640, Note_on_c, 4, 60, 0
6, 506640, Note_on_c, 4, 76, 0
6, 506640, Note_on_c, 4, 84, 0
6, 506640, Note_on_c, 4, 79, 91
6, 506640, Note_on_c, 4, 72, 91
6, 506640, Note_on_c, 4, 76, 91
6, 506640, Note_on_c, 4, 64, 91
6, 506640, Note_on_c, 4, 60, 91
6, 506760, Note_on_c, 4, 64, 0
6, 506760, Note_on_c, 4, 79, 0
6, 506760, Note_on_c, 4, 84, 91
6, 506760, Note_on_c, 4, 67, 91
6, 506880, Note_on_c, 4, 67, 0
6, 506880, Note_on_c, 4, 72, 0
6, 506880, Note_on_c, 4, 60, 0
6, 506880, Note_on_c, 4, 76, 0
6, 506880, Note_on_c, 4, 84, 0
6, 506880, Note_on_c, 4, 72, 91
6, 506880, Note_on_c, 4, 76, 91
6, 506880, Note_on_c, 4, 79, 91
6, 506880, Note_on_c, 4, 60, 91
6, 506880, Note_on_c, 4, 64, 91
6, 507360, Note_on_c, 4, 64, 0
6, 507360, Note_on_c, 4, 79, 0
6, 507360, Note_on_c, 4, 72, 0
6, 507360, Note_on_c, 4, 76, 0
6, 507360, Note_on_c, 4, 60, 0
6, 507360, Note_on_c, 4, 72, 105
6, 507360, Note_on_c, 4, 76, 105
6, 507360, Note_on_c, 4, 79, 105
6, 507360, Note_on_c, 4, 84, 105
6, 507360, Note_on_c, 4, 48, 105
6, 507360, Note_on_c, 4, 60, 105
6, 507840, Note_on_c, 4, 60, 0
6, 507840, Note_on_c, 4, 76, 0
6, 507840, Note_on_c, 4, 79, 0
6, 507840, Note_on_c, 4, 72, 0
6, 507840, Note_on_c, 4, 48, 0
6, 507840, Note_on_c, 4, 84, 0
6, 507840, Note_on_c, 4, 72, 105
6, 507840, Note_on_c, 4, 76, 105
6, 507840, Note_on_c, 4, 79, 105
6, 507840, Note_on_c, 4, 84, 105
6, 507840, Note_on_c, 4, 43, 105
6, 507840, Note_on_c, 4, 55, 105
6, 508320, Note_on_c, 4, 55, 0
6, 508320, Note_on_c, 4, 76, 0
6, 508320, Note_on_c, 4, 79, 0
6, 508320, Note_on_c, 4, 72, 0
6, 508320, Note_on_c, 4, 43, 0
6, 508320, Note_on_c, 4, 84, 0
6, 508320, Note_on_c, 4, 72, 105
6, 508320, Note_on_c, 4, 76, 105
6, 508320, Note_on_c, 4, 79, 105
6, 508320, Note_on_c, 4, 84, 105
6, 508320, Note_on_c, 4, 40, 105
6, 508320, Note_on_c, 4, 52, 105
6, 508800, Note_on_c, 4, 52, 0
6, 508800, Note_on_c, 4, 76, 0
6, 508800, Note_on_c, 4, 79, 0
6, 508800, Note_on_c, 4, 72, 0
6, 508800, Note_on_c, 4, 40, 0
6, 508800, Note_on_c, 4, 84, 0
6, 508800, Note_on_c, 4, 72, 105
6, 508800, Note_on_c, 4, 76, 105
6, 508800, Note_on_c, 4, 79, 105
6, 508800, Note_on_c, 4, 84, 105
6, 508800, Note_on_c, 4, 36, 105
6, 508800, Note_on_c, 4, 48, 105
6, 509280, Note_on_c, 4, 48, 0
6, 509280, Note_on_c, 4, 76, 0
6, 509280, Note_on_c, 4, 79, 0
6, 509280, Note_on_c, 4, 72, 0
6, 509280, Note_on_c, 4, 36, 0
6, 509280, Note_on_c, 4, 84, 0
6, 527895, Note_on_c, 4, 41, 89
6, 527920, Note_on_c, 4, 53, 89
6, 527955, Note_on_c, 4, 57, 90
6, 527970, Note_on_c, 4, 60, 92
6, 527980, Note_on_c, 4, 65, 92
6, 528000, Note_on_c, 4, 69, 92
6, 528059, Note_on_c, 4, 41, 0
6, 528160, Note_on_c, 4, 53, 0
6, 528195, Note_on_c, 4, 57, 0
6, 528210, Note_on_c, 4, 60, 0
6, 528220, Note_on_c, 4, 65, 0
6, 528240, Note_on_c, 4, 69, 0
6, 528390, Note_on_c, 4, 41, 87
6, 528415, Note_on_c, 4, 53, 87
6, 528430, Note_on_c, 4, 57, 89
6, 528450, Note_on_c, 4, 60, 91
6, 528463, Note_on_c, 4, 65, 91
6, 528480, Note_on_c, 4, 69, 92
6, 528614, Note_on_c, 4, 41, 0
6, 528655, Note_on_c, 4, 53, 0
6, 528670, Note_on_c, 4, 57, 0
6, 528690, Note_on_c, 4, 60, 0
6, 528703, Note_on_c, 4, 65, 0
6, 528720, Note_on_c, 4, 69, 0
6, 528850, Note_on_c, 4, 41, 82
6, 528880, Note_on_c, 4, 53, 83
6, 528905, Note_on_c, 4, 57, 83
6, 528920, Note_on_c, 4, 60, 86
6, 528940, Note_on_c, 4, 65, 86
6, 528960, Note_on_c, 4, 69, 86
6, 529120, Note_on_c, 4, 53, 0
6, 529139, Note_on_c, 4, 41, 0
6, 529145, Note_on_c, 4, 57, 0
6, 529160, Note_on_c, 4, 60, 0
6, 529180, Note_on_c, 4, 65, 0
6, 529200, Note_on_c, 4, 69, 0
6, 529344, Note_on_c, 4, 36, 93
6, 529348, Note_on_c, 4, 58, 93
6, 529368, Note_on_c, 4, 40, 95
6, 529380, Note_on_c, 4, 60, 97
6, 529392, Note_on_c, 4, 43, 98
6, 529408, Note_on_c, 4, 64, 102
6, 529416, Note_on_c, 4, 46, 102
6, 529440, Note_on_c, 4, 67, 103
6, 529440, Note_on_c, 4, 48, 103
6, 529680, Note_on_c, 4, 46, 0
6, 529680, Note_on_c, 4, 60, 0
6, 529680, Note_on_c, 4, 36, 0
6, 529680, Note_on_c, 4, 43, 0
6, 529680, Note_on_c, 4, 58, 0
6, 529680, Note_on_c, 4, 40, 0
6, 529680, Note_on_c, 4, 64, 0
6, 530280, Note_on_c, 4, 67, 0
6, 530280, Note_on_c, 4, 64, 105
6, 530400, Note_on_c, 4, 64, 0
6, 530400, Note_on_c, 4, 48, 0
6, 530400, Note_on_c, 4, 57, 105
6, 530400, Note_on_c, 4, 65, 105
6, 530400, Note_on_c, 4, 41, 105
6, 530640, Note_on_c, 4, 41, 0
6, 530640, Note_on_c, 4, 65, 0
6, 530640, Note_on_c, 4, 57, 0
6, 530880, Note_on_c, 4, 65, 77
6, 530880, Note_on_c, 4, 69, 77
6, 531000, Note_on_c, 4, 69, 0
6, 531000, Note_on_c, 4, 65, 0
6, 531000, Note_on_c, 4, 67, 79
6, 531000, Note_on_c, 4, 70, 79
6, 531120, Note_on_c, 4, 70, 0
6, 531120, Note_on_c, 4, 67, 0
6, 531120, Note_on_c, 4, 69, 84
6, 531120, Note_on_c, 4, 72, 84
6, 531240, Note_on_c, 4, 72, 0
6, 531240, Note_on_c, 4, 69, 0
6, 531240, Note_on_c, 4, 70, 86
6, 531240, Note_on_c, 4, 74, 86
6, 531360, Note_on_c, 4, 74, 0
6, 531360, Note_on_c, 4, 70, 0
6, 531360, Note_on_c, 4, 69, 87
6, 531360, Note_on_c, 4, 72, 87
6, 531480, Note_on_c, 4, 72, 0
6, 531480, Note_on_c, 4, 69, 0
6, 531480, Note_on_c, 4, 70, 87
6, 531480, Note_on_c, 4, 74, 87
6, 531600, Note_on_c, 4, 74, 0
6, 531600, Note_on_c, 4, 70, 0
6, 531600, Note_on_c, 4, 67, 87
6, 531600, Note_on_c, 4, 76, 87
6, 531720, Note_on_c, 4, 76, 0
6, 531720, Note_on_c, 4, 67, 0
6, 531720, Note_on_c, 4, 69, 85
6, 531720, Note_on_c, 4, 77, 85
6, 531840, Note_on_c, 4, 77, 0
6, 531840, Note_on_c, 4, 69, 0
6, 531840, Note_on_c, 4, 67, 80
6, 531840, Note_on_c, 4, 76, 80
6, 531960, Note_on_c, 4, 76, 0
6, 531960, Note_on_c, 4, 67, 0
6, 531960, Note_on_c, 4, 69, 80
6, 531960, Note_on_c, 4, 77, 80
6, 532080, Note_on_c, 4, 77, 0
6, 532080, Note_on_c, 4, 69, 0
6, 532080, Note_on_c, 4, 67, 80
6, 532080, Note_on_c, 4, 76, 80
6, 532200, Note_on_c, 4, 76, 0
6, 532200, Note_on_c, 4, 67, 0
6, 532200, Note_on_c, 4, 69, 77
6, 532200, Note_on_c, 4, 77, 77
6, 532320, Note_on_c, 4, 77, 0
6, 532320, Note_on_c, 4, 69, 0
6, 532320, Note_on_c, 4, 65, 77
6, 532320, Note_on_c, 4, 70, 77
6, 532320, Note_on_c, 4, 53, 77
6, 532320, Note_on_c, 4, 62, 77
6, 532560, Note_on_c, 4, 62, 0
6, 532560, Note_on_c, 4, 53, 0
6, 532800, Note_on_c, 4, 65, 0
6, 532800, Note_on_c, 4, 53, 77
6, 532800, Note_on_c, 4, 58, 77
6, 533040, Note_on_c, 4, 58, 0
6, 533040, Note_on_c, 4, 53, 0
6, 533160, Note_on_c, 4, 70, 0
6, 533160, Note_on_c, 4, 72, 83
6, 533220, Note_on_c, 4, 72, 0
6, 533220, Note_on_c, 4, 74, 85
6, 533280, Note_on_c, 4, 74, 0
6, 533280, Note_on_c, 4, 72, 85
6, 533280, Note_on_c, 4, 53, 85
6, 533280, Note_on_c, 4, 57, 85
6, 533520, Note_on_c, 4, 57, 0
6, 533520, Note_on_c, 4, 53, 0
6, 533520, Note_on_c, 4, 72, 0
6, 533760, Note_on_c, 4, 41, 105
6, 533820, Note_on_c, 4, 41, 0
6, 533820, Note_on_c, 4, 53, 105
6, 533880, Note_on_c, 4, 53, 0
6, 533880, Note_on_c, 4, 57, 105
6, 533940, Note_on_c, 4, 57, 0
6, 533940, Note_on_c, 4, 60, 105
6, 534000, Note_on_c, 4, 60, 0
6, 534000, Note_on_c, 4, 65, 105
6, 534060, Note_on_c, 4, 65, 0
6, 534060, Note_on_c, 4, 69, 105
6, 534120, Note_on_c, 4, 69, 0
6, 534120, Note_on_c, 4, 65, 105
6, 534180, Note_on_c, 4, 65, 0
6, 534180, Note_on_c, 4, 60, 105
6, 534240, Note_on_c, 4, 60, 0
6, 534240, Note_on_c, 4, 38, 105
6, 534300, Note_on_c, 4, 38, 0
6, 534300, Note_on_c, 4, 50, 105
6, 534360, Note_on_c, 4, 50, 0
6, 534360, Note_on_c, 4, 57, 105
6, 534420, Note_on_c, 4, 57, 0
6, 534420, Note_on_c, 4, 62, 105
6, 534480, Note_on_c, 4, 62, 0
6, 534480, Note_on_c, 4, 65, 105
6, 534540, Note_on_c, 4, 65, 0
6, 534540, Note_on_c, 4, 69, 105
6, 534600, Note_on_c, 4, 69, 0
6, 534600, Note_on_c, 4, 65, 105
6, 534660, Note_on_c, 4, 65, 0
6, 534660, Note_on_c, 4, 60, 105
6, 534720, Note_on_c, 4, 60, 0
6, 534720, Note_on_c, 4, 46, 105
6, 534780, Note_on_c, 4, 46, 0
6, 534780, Note_on_c, 4, 58, 105
6, 534840, Note_on_c, 4, 58, 0
6, 534840, Note_on_c, 4, 64, 105
6, 534900, Note_on_c, 4, 64, 0
6, 534900, Note_on_c, 4, 65, 105
6, 534960, Note_on_c, 4, 65, 0
6, 534960, Note_on_c, 4, 67, 105
6, 535020, Note_on_c, 4, 67, 0
6, 535020, Note_on_c, 4, 74, 105
6, 535080, Note_on_c, 4, 74, 0
6, 535080, Note_on_c, 4, 67, 105
6, 535140, Note_on_c, 4, 67, 0
6, 535140, Note_on_c, 4, 65, 105
6, 535200, Note_on_c, 4, 65, 0
6, 535200, Note_on_c, 4, 36, 105
6, 535260, Note_on_c, 4, 36, 0
6, 535260, Note_on_c, 4, 48, 105
6, 535320, Note_on_c, 4, 48, 0
6, 535320, Note_on_c, 4, 60, 105
6, 535380, Note_on_c, 4, 60, 0
6, 535380, Note_on_c, 4, 65, 105
6, 535440, Note_on_c, 4, 65, 0
6, 535440, Note_on_c, 4, 67, 105
6, 535500, Note_on_c, 4, 67, 0
6, 535500, Note_on_c, 4, 72, 105
6, 535560, Note_on_c, 4, 72, 0
6, 535560, Note_on_c, 4, 67, 105
6, 535620, Note_on_c, 4, 67, 0
6, 535620, Note_on_c, 4, 65, 105
6, 535680, Note_on_c, 4, 65, 0
6, 535680, Note_on_c, 4, 48, 105
6, 535740, Note_on_c, 4, 48, 0
6, 535740, Note_on_c, 4, 60, 105
6, 535800, Note_on_c, 4, 60, 0
6, 535800, Note_on_c, 4, 60, 105
6, 535860, Note_on_c, 4, 60, 0
6, 535860, Note_on_c, 4, 64, 105
6, 535920, Note_on_c, 4, 64, 0
6, 535920, Note_on_c, 4, 67, 105
6, 535980, Note_on_c, 4, 67, 0
6, 535980, Note_on_c, 4, 72, 105
6, 536040, Note_on_c, 4, 72, 0
6, 536040, Note_on_c, 4, 67, 105
6, 536100, Note_on_c, 4, 67, 0
6, 536100, Note_on_c, 4, 65, 105
6, 536160, Note_on_c, 4, 65, 0
6, 536160, Note_on_c, 4, 45, 105
6, 536220, Note_on_c, 4, 45, 0
6, 536220, Note_on_c, 4, 57, 105
6, 536280, Note_on_c, 4, 57, 0
6, 536280, Note_on_c, 4, 60, 105
6, 536340, Note_on_c, 4, 60, 0
6, 536340, Note_on_c, 4, 64, 105
6, 536400, Note_on_c, 4, 64, 0
6, 536400, Note_on_c, 4, 67, 105
6, 536460, Note_on_c, 4, 67, 0
6, 536460, Note_on_c, 4, 72, 105
6, 536520, Note_on_c, 4, 72, 0
6, 536520, Note_on_c, 4, 67, 105
6, 536580, Note_on_c, 4, 67, 0
6, 536580, Note_on_c, 4, 65, 105
6, 536640, Note_on_c, 4, 65, 0
6, 536640, Note_on_c, 4, 46, 105
6, 536700, Note_on_c, 4, 46, 0
6, 536700, Note_on_c, 4, 58, 105
6, 536760, Note_on_c, 4, 58, 0
6, 536760, Note_on_c, 4, 58, 105
6, 536820, Note_on_c, 4, 58, 0
6, 536820, Note_on_c, 4, 62, 105
6, 536880, Note_on_c, 4, 62, 0
6, 536880, Note_on_c, 4, 65, 105
6, 536940, Note_on_c, 4, 65, 0
6, 536940, Note_on_c, 4, 70, 105
6, 537000, Note_on_c, 4, 70, 0
6, 537000, Note_on_c, 4, 65, 105
6, 537060, Note_on_c, 4, 65, 0
6, 537060, Note_on_c, 4, 62, 105
6, 537120, Note_on_c, 4, 62, 0
6, 537120, Note_on_c, 4, 46, 105
6, 537180, Note_on_c, 4, 46, 0
6, 537180, Note_on_c, 4, 58, 105
6, 537240, Note_on_c, 4, 58, 0
6, 537240, Note_on_c, 4, 58, 105
6, 537300, Note_on_c, 4, 58, 0
6, 537300, Note_on_c, 4, 62, 105
6, 537360, Note_on_c, 4, 62, 0
6, 537360, Note_on_c, 4, 67, 105
6, 537420, Note_on_c, 4, 67, 0
6, 537420, Note_on_c, 4, 70, 105
6, 537480, Note_on_c, 4, 70, 0
6, 537480, Note_on_c, 4, 67, 105
6, 537540, Note_on_c, 4, 67, 0
6, 537540, Note_on_c, 4, 62, 105
6, 537600, Note_on_c, 4, 62, 0
6, 537600, Note_on_c, 4, 43, 105
6, 537660, Note_on_c, 4, 43, 0
6, 537660, Note_on_c, 4, 55, 105
6, 537720, Note_on_c, 4, 55, 0
6, 537720, Note_on_c, 4, 58, 105
6, 537780, Note_on_c, 4, 58, 0
6, 537780, Note_on_c, 4, 62, 105
6, 537840, Note_on_c, 4, 62, 0
6, 537840, Note_on_c, 4, 67, 105
6, 537900, Note_on_c, 4, 67, 0
6, 537900, Note_on_c, 4, 70, 105
6, 537960, Note_on_c, 4, 70, 0
6, 537960, Note_on_c, 4, 67, 105
6, 538020, Note_on_c, 4, 67, 0
6, 538020, Note_on_c, 4, 62, 105
6, 538080, Note_on_c, 4, 62, 0
6, 538080, Note_on_c, 4, 36, 105
6, 538140, Note_on_c, 4, 36, 0
6, 538140, Note_on_c, 4, 48, 105
6, 538200, Note_on_c, 4, 48, 0
6, 538200, Note_on_c, 4, 57, 105
6, 538260, Note_on_c, 4, 57, 0
6, 538260, Note_on_c, 4, 60, 105
6, 538320, Note_on_c, 4, 60, 0
6, 538320, Note_on_c, 4, 65, 105
6, 538380, Note_on_c, 4, 65, 0
6, 538380, Note_on_c, 4, 69, 105
6, 538440, Note_on_c, 4, 69, 0
6, 538440, Note_on_c, 4, 65, 105
6, 538500, Note_on_c, 4, 65, 0
6, 538500, Note_on_c, 4, 60, 105
6, 538560, Note_on_c, 4, 60, 0
6, 538560, Note_on_c, 4, 64, 105
6, 538560, Note_on_c, 4, 67, 105
6, 539040, Note_on_c, 4, 67, 0
6, 539040, Note_on_c, 4, 64, 0
6, 545280, Note_on_c, 4, 79, 105
6, 545280, Note_on_c, 4, 60, 105
6, 545400, Note_on_c, 4, 60, 0
6, 545400, Note_on_c, 4, 67, 105
6, 545520, Note_on_c, 4, 67, 0
6, 545520, Note_on_c, 4, 64, 105
6, 545640, Note_on_c, 4, 64, 0
6, 545640, Note_on_c, 4, 67, 105
6, 545760, Note_on_c, 4, 67, 0
6, 545760, Note_on_c, 4, 60, 105
6, 545880, Note_on_c, 4, 60, 0
6, 545880, Note_on_c, 4, 67, 105
6, 546000, Note_on_c, 4, 67, 0
6, 546000, Note_on_c, 4, 79, 0
6, 546000, Note_on_c, 4, 81, 105
6, 546000, Note_on_c, 4, 64, 105
6, 546120, Note_on_c, 4, 64, 0
6, 546120, Note_on_c, 4, 81, 0
6, 546120, Note_on_c, 4, 79, 105
6, 546120, Note_on_c, 4, 67, 105
6, 546240, Note_on_c, 4, 67, 0
6, 546240, Note_on_c, 4, 79, 0
6, 546240, Note_on_c, 4, 84, 105
6, 546240, Note_on_c, 4, 60, 105
6, 546360, Note_on_c, 4, 60, 0
6, 546360, Note_on_c, 4, 84, 0
6, 546360, Note_on_c, 4, 83, 105
6, 546360, Note_on_c, 4, 67, 105
6, 546480, Note_on_c, 4, 67, 0
6, 546480, Note_on_c, 4, 83, 0
6, 546480, Note_on_c, 4, 81, 105
6, 546480, Note_on_c, 4, 64, 105
6, 546600, Note_on_c, 4, 64, 0
6, 546600, Note_on_c, 4, 81, 0
6, 546600, Note_on_c, 4, 79, 105
6, 546600, Note_on_c, 4, 67, 105
6, 546720, Note_on_c, 4, 67, 0
6, 546720, Note_on_c, 4, 79, 0
6, 546720, Note_on_c, 4, 79, 105
6, 546720, Note_on_c, 4, 59, 105
6, 546840, Note_on_c, 4, 59, 0
6, 546840, Note_on_c, 4, 65, 105
6, 546960, Note_on_c, 4, 65, 0
6, 546960, Note_on_c, 4, 62, 105
6, 547080, Note_on_c, 4, 62, 0
6, 547080, Note_on_c, 4, 79, 0
6, 547080, Note_on_c, 4, 81, 105
6, 547080, Note_on_c, 4, 65, 105
6, 547200, Note_on_c, 4, 65, 0
6, 547200, Note_on_c, 4, 81, 0
6, 547200, Note_on_c, 4, 79, 105
6, 547200, Note_on_c, 4, 59, 105
6, 547320, Note_on_c, 4, 59, 0
6, 547320, Note_on_c, 4, 65, 105
6, 547440, Note_on_c, 4, 65, 0
6, 547440, Note_on_c, 4, 62, 105
6, 547560, Note_on_c, 4, 62, 0
6, 547560, Note_on_c, 4, 65, 105
6, 547680, Note_on_c, 4, 65, 0
6, 547680, Note_on_c, 4, 79, 0
6, 547680, Note_on_c, 4, 59, 105
6, 547800, Note_on_c, 4, 59, 0
6, 547800, Note_on_c, 4, 65, 105
6, 547920, Note_on_c, 4, 65, 0
6, 547920, Note_on_c, 4, 62, 105
6, 548040, Note_on_c, 4, 62, 0
6, 548040, Note_on_c, 4, 65, 105
6, 548100, Note_on_c, 4, 74, 105
6, 548160, Note_on_c, 4, 74, 0
6, 548160, Note_on_c, 4, 65, 0
6, 548160, Note_on_c, 4, 86, 105
6, 548160, Note_on_c, 4, 55, 105
6, 548280, Note_on_c, 4, 55, 0
6, 548280, Note_on_c, 4, 65, 105
6, 548400, Note_on_c, 4, 65, 0
6, 548400, Note_on_c, 4, 59, 105
6, 548520, Note_on_c, 4, 59, 0
6, 548520, Note_on_c, 4, 65, 105
6, 548640, Note_on_c, 4, 65, 0
6, 548640, Note_on_c, 4, 55, 105
6, 548760, Note_on_c, 4, 55, 0
6, 548760, Note_on_c, 4, 65, 105
6, 548880, Note_on_c, 4, 65, 0
6, 548880, Note_on_c, 4, 86, 0
6, 548880, Note_on_c, 4, 84, 105
6, 548880, Note_on_c, 4, 59, 105
6, 548940, Note_on_c, 4, 84, 0
6, 548940, Note_on_c, 4, 83, 105
6, 549000, Note_on_c, 4, 83, 0
6, 549000, Note_on_c, 4, 59, 0
6, 549000, Note_on_c, 4, 81, 105
6, 549000, Note_on_c, 4, 65, 105
6, 549060, Note_on_c, 4, 81, 0
6, 549060, Note_on_c, 4, 79, 105
6, 549120, Note_on_c, 4, 79, 0
6, 549120, Note_on_c, 4, 65, 0
6, 549120, Note_on_c, 4, 79, 105
6, 549120, Note_on_c, 4, 55, 105
6, 549164, Note_on_c, 4, 79, 0
6, 549240, Note_on_c, 4, 55, 0
6, 549240, Note_on_c, 4, 79, 105
6, 549240, Note_on_c, 4, 65, 105
6, 549284, Note_on_c, 4, 79, 0
6, 549360, Note_on_c, 4, 65, 0
6, 549360, Note_on_c, 4, 79, 105
6, 549360, Note_on_c, 4, 59, 105
6, 549404, Note_on_c, 4, 79, 0
6, 549480, Note_on_c, 4, 59, 0
6, 549480, Note_on_c, 4, 79, 105
6, 549480, Note_on_c, 4, 65, 105
6, 549524, Note_on_c, 4, 79, 0
6, 549600, Note_on_c, 4, 65, 0
6, 549600, Note_on_c, 4, 79, 105
6, 549600, Note_on_c, 4, 60, 105
6, 549720, Note_on_c, 4, 60, 0
6, 549720, Note_on_c, 4, 67, 105
6, 549840, Note_on_c, 4, 67, 0
6, 549840, Note_on_c, 4, 64, 105
6, 549960, Note_on_c, 4, 64, 0
6, 549960, Note_on_c, 4, 79, 0
6, 549960, Note_on_c, 4, 76, 105
6, 549960, Note_on_c, 4, 67, 105
6, 550080, Note_on_c, 4, 67, 0
6, 550080, Note_on_c, 4, 76, 0
6, 550080, Note_on_c, 4, 79, 105
6, 550080, Note_on_c, 4, 60, 105
6, 550200, Note_on_c, 4, 60, 0
6, 550200, Note_on_c, 4, 67, 105
6, 550320, Note_on_c, 4, 67, 0
6, 550320, Note_on_c, 4, 64, 105
6, 550440, Note_on_c, 4, 64, 0
6, 550440, Note_on_c, 4, 67, 105
6, 550560, Note_on_c, 4, 67, 0
6, 550560, Note_on_c, 4, 79, 0
6, 550560, Note_on_c, 4, 60, 105
6, 550680, Note_on_c, 4, 60, 0
6, 550680, Note_on_c, 4, 67, 105
6, 550800, Note_on_c, 4, 67, 0
6, 550800, Note_on_c, 4, 64, 105
6, 550920, Note_on_c, 4, 64, 0
6, 550920, Note_on_c, 4, 67, 105
6, 551040, Note_on_c, 4, 67, 0
6, 551040, Note_on_c, 4, 78, 105
6, 551040, Note_on_c, 4, 57, 105
6, 551160, Note_on_c, 4, 57, 0
6, 551160, Note_on_c, 4, 78, 0
6, 551160, Note_on_c, 4, 72, 105
6, 551160, Note_on_c, 4, 62, 105
6, 551280, Note_on_c, 4, 62, 0
6, 551280, Note_on_c, 4, 72, 0
6, 551280, Note_on_c, 4, 74, 105
6, 551280, Note_on_c, 4, 60, 105
6, 551400, Note_on_c, 4, 60, 0
6, 551400, Note_on_c, 4, 74, 0
6, 551400, Note_on_c, 4, 72, 105
6, 551400, Note_on_c, 4, 62, 105
6, 551520, Note_on_c, 4, 62, 0
6, 551520, Note_on_c, 4, 72, 0
6, 551520, Note_on_c, 4, 78, 105
6, 551520, Note_on_c, 4, 57, 105
6, 551640, Note_on_c, 4, 57, 0
6, 551640, Note_on_c, 4, 78, 0
6, 551640, Note_on_c, 4, 72, 105
6, 551640, Note_on_c, 4, 62, 105
6, 551760, Note_on_c, 4, 62, 0
6, 551760, Note_on_c, 4, 72, 0
6, 551760, Note_on_c, 4, 74, 105
6, 551760, Note_on_c, 4, 60, 105
6, 551880, Note_on_c, 4, 60, 0
6, 551880, Note_on_c, 4, 74, 0
6, 551880, Note_on_c, 4, 72, 105
6, 551880, Note_on_c, 4, 62, 105
6, 552000, Note_on_c, 4, 62, 0
6, 552000, Note_on_c, 4, 72, 0
6, 552000, Note_on_c, 4, 78, 105
6, 552000, Note_on_c, 4, 57, 105
6, 552120, Note_on_c, 4, 57, 0
6, 552120, Note_on_c, 4, 78, 0
6, 552120, Note_on_c, 4, 72, 105
6, 552120, Note_on_c, 4, 62, 105
6, 552240, Note_on_c, 4, 62, 0
6, 552240, Note_on_c, 4, 72, 0
6, 552240, Note_on_c, 4, 74, 105
6, 552240, Note_on_c, 4, 60, 105
6, 552360, Note_on_c, 4, 60, 0
6, 552360, Note_on_c, 4, 74, 0
6, 552360, Note_on_c, 4, 72, 105
6, 552360, Note_on_c, 4, 62, 105
6, 552480, Note_on_c, 4, 62, 0
6, 552480, Note_on_c, 4, 72, 0
6, 552480, Note_on_c, 4, 79, 105
6, 552480, Note_on_c, 4, 55, 105
6, 552600, Note_on_c, 4, 55, 0
6, 552600, Note_on_c, 4, 79, 0
6, 552600, Note_on_c, 4, 71, 105
6, 552600, Note_on_c, 4, 62, 105
6, 552720, Note_on_c, 4, 62, 0
6, 552720, Note_on_c, 4, 71, 0
6, 552720, Note_on_c, 4, 74, 105
6, 552720, Note_on_c, 4, 59, 105
6, 552840, Note_on_c, 4, 59, 0
6, 552840, Note_on_c, 4, 74, 0
6, 552840, Note_on_c, 4, 71, 105
6, 552840, Note_on_c, 4, 62, 105
6, 552960, Note_on_c, 4, 62, 0
6, 552960, Note_on_c, 4, 71, 0
6, 552960, Note_on_c, 4, 79, 105
6, 552960, Note_on_c, 4, 55, 105
6, 553080, Note_on_c, 4, 55, 0
6, 553080, Note_on_c, 4, 79, 0
6, 553080, Note_on_c, 4, 71, 105
6, 553080, Note_on_c, 4, 62, 105
6, 553200, Note_on_c, 4, 62, 0
6, 553200, Note_on_c, 4, 71, 0
6, 553200, Note_on_c, 4, 74, 105
6, 553200, Note_on_c, 4, 59, 105
6, 553320, Note_on_c, 4, 59, 0
6, 553320, Note_on_c, 4, 74, 0
6, 553320, Note_on_c, 4, 71, 105
6, 553320, Note_on_c, 4, 62, 105
6, 553440, Note_on_c, 4, 62, 0
6, 553440, Note_on_c, 4, 71, 0
6, 553440, Note_on_c, 4, 78, 105
6, 553440, Note_on_c, 4, 57, 105
6, 553560, Note_on_c, 4, 57, 0
6, 553560, Note_on_c, 4, 78, 0
6, 553560, Note_on_c, 4, 72, 105
6, 553560, Note_on_c, 4, 62, 105
6, 553680, Note_on_c, 4, 62, 0
6, 553680, Note_on_c, 4, 72, 0
6, 553680, Note_on_c, 4, 74, 105
6, 553680, Note_on_c, 4, 60, 105
6, 553800, Note_on_c, 4, 60, 0
6, 553800, Note_on_c, 4, 74, 0
6, 553800, Note_on_c, 4, 72, 105
6, 553800, Note_on_c, 4, 62, 105
6, 553920, Note_on_c, 4, 62, 0
6, 553920, Note_on_c, 4, 72, 0
6, 553920, Note_on_c, 4, 79, 105
6, 553920, Note_on_c, 4, 55, 105
6, 554040, Note_on_c, 4, 55, 0
6, 554040, Note_on_c, 4, 79, 0
6, 554040, Note_on_c, 4, 71, 105
6, 554040, Note_on_c, 4, 62, 105
6, 554160, Note_on_c, 4, 62, 0
6, 554160, Note_on_c, 4, 71, 0
6, 554160, Note_on_c, 4, 74, 105
6, 554160, Note_on_c, 4, 59, 105
6, 554280, Note_on_c, 4, 59, 0
6, 554280, Note_on_c, 4, 74, 0
6, 554280, Note_on_c, 4, 71, 105
6, 554280, Note_on_c, 4, 62, 105
6, 554400, Note_on_c, 4, 62, 0
6, 554400, Note_on_c, 4, 71, 0
6, 554400, Note_on_c, 4, 79, 105
6, 554400, Note_on_c, 4, 55, 105
6, 554880, Note_on_c, 4, 55, 0
6, 554880, Note_on_c, 4, 79, 0
6, 561060, Note_on_c, 4, 36, 105
6, 561120, Note_on_c, 4, 36, 0
6, 561120, Note_on_c, 4, 60, 105
6, 561120, Note_on_c, 4, 48, 105
6, 561240, Note_on_c, 4, 60, 0
6, 561240, Note_on_c, 4, 67, 105
6, 561360, Note_on_c, 4, 67, 0
6, 561360, Note_on_c, 4, 64, 105
6, 561480, Note_on_c, 4, 64, 0
6, 561480, Note_on_c, 4, 67, 105
6, 561600, Note_on_c, 4, 67, 0
6, 561600, Note_on_c, 4, 48, 0
6, 561600, Note_on_c, 4, 60, 105
6, 561720, Note_on_c, 4, 60, 0
6, 561720, Note_on_c, 4, 67, 105
6, 561840, Note_on_c, 4, 67, 0
6, 561840, Note_on_c, 4, 64, 105
6, 561960, Note_on_c, 4, 64, 0
6, 561960, Note_on_c, 4, 67, 105
6, 562080, Note_on_c, 4, 67, 0
6, 562080, Note_on_c, 4, 62, 105
6, 562200, Note_on_c, 4, 62, 0
6, 562200, Note_on_c, 4, 67, 105
6, 562320, Note_on_c, 4, 67, 0
6, 562320, Note_on_c, 4, 65, 105
6, 562440, Note_on_c, 4, 65, 0
6, 562440, Note_on_c, 4, 67, 105
6, 562500, Note_on_c, 4, 36, 105
6, 562560, Note_on_c, 4, 36, 0
6, 562560, Note_on_c, 4, 67, 0
6, 562560, Note_on_c, 4, 60, 105
6, 562560, Note_on_c, 4, 48, 105
6, 562680, Note_on_c, 4, 60, 0
6, 562680, Note_on_c, 4, 67, 105
6, 562800, Note_on_c, 4, 67, 0
6, 562800, Note_on_c, 4, 64, 105
6, 562920, Note_on_c, 4, 64, 0
6, 562920, Note_on_c, 4, 67, 105
6, 563040, Note_on_c, 4, 67, 0
6, 563040, Note_on_c, 4, 48, 0
6, 563040, Note_on_c, 4, 60, 105
6, 563160, Note_on_c, 4, 60, 0
6, 563160, Note_on_c, 4, 67, 105
6, 563280, Note_on_c, 4, 67, 0
6, 563280, Note_on_c, 4, 64, 105
6, 563400, Note_on_c, 4, 64, 0
6, 563400, Note_on_c, 4, 67, 105
6, 563520, Note_on_c, 4, 67, 0
6, 563520, Note_on_c, 4, 60, 105
6, 563640, Note_on_c, 4, 60, 0
6, 563640, Note_on_c, 4, 67, 105
6, 563760, Note_on_c, 4, 67, 0
6, 563760, Note_on_c, 4, 64, 105
6, 563880, Note_on_c, 4, 64, 0
6, 563880, Note_on_c, 4, 67, 105
6, 564000, Note_on_c, 4, 67, 0
6, 564000, Note_on_c, 4, 53, 105
6, 564120, Note_on_c, 4, 69, 105
6, 564240, Note_on_c, 4, 69, 0
6, 564240, Note_on_c, 4, 53, 0
6, 564240, Note_on_c, 4, 77, 105
6, 564360, Note_on_c, 4, 77, 0
6, 564360, Note_on_c, 4, 74, 105
6, 564480, Note_on_c, 4, 74, 0
6, 564480, Note_on_c, 4, 55, 105
6, 564600, Note_on_c, 4, 67, 105
6, 564720, Note_on_c, 4, 67, 0
6, 564720, Note_on_c, 4, 55, 0
6, 564720, Note_on_c, 4, 76, 105
6, 564840, Note_on_c, 4, 76, 0
6, 564840, Note_on_c, 4, 72, 105
6, 564960, Note_on_c, 4, 72, 0
6, 564960, Note_on_c, 4, 55, 105
6, 565080, Note_on_c, 4, 65, 105
6, 565200, Note_on_c, 4, 65, 0
6, 565200, Note_on_c, 4, 55, 0
6, 565200, Note_on_c, 4, 74, 105
6, 565320, Note_on_c, 4, 74, 0
6, 565320, Note_on_c, 4, 71, 105
6, 565440, Note_on_c, 4, 71, 0
6, 565440, Note_on_c, 4, 64, 105
6, 565440, Note_on_c, 4, 67, 105
6, 565440, Note_on_c, 4, 72, 105
6, 565440, Note_on_c, 4, 48, 105
6, 565920, Note_on_c, 4, 48, 0
6, 565920, Note_on_c, 4, 64, 0
6, 565920, Note_on_c, 4, 67, 0
6, 565920, Note_on_c, 4, 72, 0
6, 571200, Note_on_c, 4, 60, 105
6, 571320, Note_on_c, 4, 60, 0
6, 571320, Note_on_c, 4, 67, 105
6, 571440, Note_on_c, 4, 67, 0
6, 571440, Note_on_c, 4, 64, 105
6, 571560, Note_on_c, 4, 64, 0
6, 571560, Note_on_c, 4, 67, 105
6, 571680, Note_on_c, 4, 67, 0
6, 571680, Note_on_c, 4, 60, 105
6, 571800, Note_on_c, 4, 60, 0
6, 571800, Note_on_c, 4, 67, 105
6, 571920, Note_on_c, 4, 67, 0
6, 571920, Note_on_c, 4, 64, 105
6, 572040, Note_on_c, 4, 64, 0
6, 572040, Note_on_c, 4, 67, 105
6, 572160, Note_on_c, 4, 67, 0
6, 572160, Note_on_c, 4, 62, 105
6, 572280, Note_on_c, 4, 62, 0
6, 572280, Note_on_c, 4, 67, 105
6, 572400, Note_on_c, 4, 67, 0
6, 572400, Note_on_c, 4, 65, 105
6, 572520, Note_on_c, 4, 65, 0
6, 572520, Note_on_c, 4, 67, 105
6, 572640, Note_on_c, 4, 67, 0
6, 572640, Note_on_c, 4, 79, 105
6, 572640, Note_on_c, 4, 60, 105
6, 572760, Note_on_c, 4, 60, 0
6, 572760, Note_on_c, 4, 67, 105
6, 572880, Note_on_c, 4, 67, 0
6, 572880, Note_on_c, 4, 64, 105
6, 573000, Note_on_c, 4, 64, 0
6, 573000, Note_on_c, 4, 67, 105
6, 573120, Note_on_c, 4, 67, 0
6, 573120, Note_on_c, 4, 79, 0
6, 573120, Note_on_c, 4, 81, 105
6, 573120, Note_on_c, 4, 60, 105
6, 573180, Note_on_c, 4, 81, 0
6, 573180, Note_on_c, 4, 79, 105
6, 573240, Note_on_c, 4, 79, 0
6, 573240, Note_on_c, 4, 60, 0
6, 573240, Note_on_c, 4, 81, 105
6, 573240, Note_on_c, 4, 67, 105
6, 573268, Note_on_c, 4, 81, 0
6, 573268, Note_on_c, 4, 79, 105
6, 573300, Note_on_c, 4, 79, 0
6, 573300, Note_on_c, 4, 81, 105
6, 573328, Note_on_c, 4, 81, 0
6, 573328, Note_on_c, 4, 79, 105
6, 573360, Note_on_c, 4, 79, 0
6, 573360, Note_on_c, 4, 67, 0
6, 573360, Note_on_c, 4, 81, 105
6, 573360, Note_on_c, 4, 64, 105
6, 573388, Note_on_c, 4, 81, 0
6, 573388, Note_on_c, 4, 79, 105
6, 573420, Note_on_c, 4, 79, 0
6, 573420, Note_on_c, 4, 81, 105
6, 573448, Note_on_c, 4, 81, 0
6, 573448, Note_on_c, 4, 79, 105
6, 573480, Note_on_c, 4, 79, 0
6, 573480, Note_on_c, 4, 64, 0
6, 573480, Note_on_c, 4, 77, 105
6, 573480, Note_on_c, 4, 67, 105
6, 573540, Note_on_c, 4, 77, 0
6, 573540, Note_on_c, 4, 79, 105
6, 573600, Note_on_c, 4, 79, 0
6, 573600, Note_on_c, 4, 67, 0
6, 573600, Note_on_c, 4, 84, 105
6, 573600, Note_on_c, 4, 62, 105
6, 573660, Note_on_c, 4, 84, 0
6, 573660, Note_on_c, 4, 83, 105
6, 573720, Note_on_c, 4, 83, 0
6, 573720, Note_on_c, 4, 62, 0
6, 573720, Note_on_c, 4, 84, 105
6, 573720, Note_on_c, 4, 67, 105
6, 573748, Note_on_c, 4, 84, 0
6, 573748, Note_on_c, 4, 83, 105
6, 573780, Note_on_c, 4, 83, 0
6, 573780, Note_on_c, 4, 84, 105
6, 573808, Note_on_c, 4, 84, 0
6, 573808, Note_on_c, 4, 83, 105
6, 573840, Note_on_c, 4, 83, 0
6, 573840, Note_on_c, 4, 67, 0
6, 573840, Note_on_c, 4, 84, 105
6, 573840, Note_on_c, 4, 65, 105
6, 573868, Note_on_c, 4, 84, 0
6, 573868, Note_on_c, 4, 83, 105
6, 573900, Note_on_c, 4, 83, 0
6, 573900, Note_on_c, 4, 84, 105
6, 573928, Note_on_c, 4, 84, 0
6, 573928, Note_on_c, 4, 83, 105
6, 573960, Note_on_c, 4, 83, 0
6, 573960, Note_on_c, 4, 65, 0
6, 573960, Note_on_c, 4, 81, 105
6, 573960, Note_on_c, 4, 67, 105
6, 574020, Note_on_c, 4, 81, 0
6, 574020, Note_on_c, 4, 83, 105
6, 574080, Note_on_c, 4, 83, 0
6, 574080, Note_on_c, 4, 67, 0
6, 574080, Note_on_c, 4, 84, 105
6, 574080, Note_on_c, 4, 60, 105
6, 574200, Note_on_c, 4, 60, 0
6, 574200, Note_on_c, 4, 67, 105
6, 574320, Note_on_c, 4, 67, 0
6, 574320, Note_on_c, 4, 64, 105
6, 574440, Note_on_c, 4, 64, 0
6, 574440, Note_on_c, 4, 84, 0
6, 574440, Note_on_c, 4, 79, 105
6, 574440, Note_on_c, 4, 67, 105
6, 574560, Note_on_c, 4, 67, 0
6, 574560, Note_on_c, 4, 79, 0
6, 574560, Note_on_c, 4, 84, 105
6, 574560, Note_on_c, 4, 60, 105
6, 574680, Note_on_c, 4, 60, 0
6, 574680, Note_on_c, 4, 67, 105
6, 574800, Note_on_c, 4, 67, 0
6, 574800, Note_on_c, 4, 64, 105
6, 574920, Note_on_c, 4, 64, 0
6, 574920, Note_on_c, 4, 67, 105
6, 575040, Note_on_c, 4, 67, 0
6, 575040, Note_on_c, 4, 84, 0
6, 575040, Note_on_c, 4, 62, 105
6, 575160, Note_on_c, 4, 62, 0
6, 575160, Note_on_c, 4, 67, 105
6, 575280, Note_on_c, 4, 67, 0
6, 575280, Note_on_c, 4, 65, 105
6, 575400, Note_on_c, 4, 65, 0
6, 575400, Note_on_c, 4, 67, 105
6, 575520, Note_on_c, 4, 67, 0
6, 575520, Note_on_c, 4, 79, 105
6, 575520, Note_on_c, 4, 60, 105
6, 575640, Note_on_c, 4, 60, 0
6, 575640, Note_on_c, 4, 67, 105
6, 575760, Note_on_c, 4, 67, 0
6, 575760, Note_on_c, 4, 64, 105
6, 575880, Note_on_c, 4, 64, 0
6, 575880, Note_on_c, 4, 67, 105
6, 576000, Note_on_c, 4, 67, 0
6, 576000, Note_on_c, 4, 79, 0
6, 576000, Note_on_c, 4, 81, 105
6, 576000, Note_on_c, 4, 60, 105
6, 576060, Note_on_c, 4, 81, 0
6, 576060, Note_on_c, 4, 79, 105
6, 576120, Note_on_c, 4, 79, 0
6, 576120, Note_on_c, 4, 60, 0
6, 576120, Note_on_c, 4, 81, 105
6, 576120, Note_on_c, 4, 67, 105
6, 576148, Note_on_c, 4, 81, 0
6, 576148, Note_on_c, 4, 79, 105
6, 576180, Note_on_c, 4, 79, 0
6, 576180, Note_on_c, 4, 81, 105
6, 576208, Note_on_c, 4, 81, 0
6, 576208, Note_on_c, 4, 79, 105
6, 576240, Note_on_c, 4, 79, 0
6, 576240, Note_on_c, 4, 67, 0
6, 576240, Note_on_c, 4, 81, 105
6, 576240, Note_on_c, 4, 64, 105
6, 576268, Note_on_c, 4, 81, 0
6, 576268, Note_on_c, 4, 79, 105
6, 576300, Note_on_c, 4, 79, 0
6, 576300, Note_on_c, 4, 81, 105
6, 576328, Note_on_c, 4, 81, 0
6, 576328, Note_on_c, 4, 79, 105
6, 576360, Note_on_c, 4, 79, 0
6, 576360, Note_on_c, 4, 64, 0
6, 576360, Note_on_c, 4, 77, 105
6, 576360, Note_on_c, 4, 67, 105
6, 576420, Note_on_c, 4, 77, 0
6, 576420, Note_on_c, 4, 79, 105
6, 576480, Note_on_c, 4, 79, 0
6, 576480, Note_on_c, 4, 67, 0
6, 576480, Note_on_c, 4, 84, 105
6, 576480, Note_on_c, 4, 62, 105
6, 576540, Note_on_c, 4, 84, 0
6, 576540, Note_on_c, 4, 83, 105
6, 576600, Note_on_c, 4, 83, 0
6, 576600, Note_on_c, 4, 62, 0
6, 576600, Note_on_c, 4, 84, 105
6, 576600, Note_on_c, 4, 67, 105
6, 576628, Note_on_c, 4, 84, 0
6, 576628, Note_on_c, 4, 83, 105
6, 576660, Note_on_c, 4, 83, 0
6, 576660, Note_on_c, 4, 84, 105
6, 576688, Note_on_c, 4, 84, 0
6, 576688, Note_on_c, 4, 83, 105
6, 576720, Note_on_c, 4, 83, 0
6, 576720, Note_on_c, 4, 67, 0
6, 576720, Note_on_c, 4, 84, 105
6, 576720, Note_on_c, 4, 65, 105
6, 576748, Note_on_c, 4, 84, 0
6, 576748, Note_on_c, 4, 83, 105
6, 576780, Note_on_c, 4, 83, 0
6, 576780, Note_on_c, 4, 84, 105
6, 576808, Note_on_c, 4, 84, 0
6, 576808, Note_on_c, 4, 83, 105
6, 576840, Note_on_c, 4, 83, 0
6, 576840, Note_on_c, 4, 65, 0
6, 576840, Note_on_c, 4, 81, 105
6, 576840, Note_on_c, 4, 67, 105
6, 576900, Note_on_c, 4, 81, 0
6, 576900, Note_on_c, 4, 83, 105
6, 576960, Note_on_c, 4, 83, 0
6, 576960, Note_on_c, 4, 67, 0
6, 576960, Note_on_c, 4, 84, 105
6, 576960, Note_on_c, 4, 60, 105
6, 576960, Note_on_c, 4, 64, 105
6, 576960, Note_on_c, 4, 67, 105
6, 577440, Note_on_c, 4, 67, 0
6, 577440, Note_on_c, 4, 84, 0
6, 577440, Note_on_c, 4, 60, 0
6, 577440, Note_on_c, 4, 64, 0
6, 581280, Note_on_c, 4, 84, 105
6, 581280, Note_on_c, 4, 76, 105
6, 581280, Note_on_c, 4, 79, 105
6, 581360, Note_on_c, 4, 84, 0
6, 581360, Note_on_c, 4, 86, 105
6, 581436, Note_on_c, 4, 86, 0
6, 581436, Note_on_c, 4, 84, 105
6, 581520, Note_on_c, 4, 84, 0
6, 581520, Note_on_c, 4, 79, 0
6, 581520, Note_on_c, 4, 76, 0
6, 581520, Note_on_c, 4, 83, 105
6, 581520, Note_on_c, 4, 74, 105
6, 581520, Note_on_c, 4, 77, 105
6, 581600, Note_on_c, 4, 83, 0
6, 581600, Note_on_c, 4, 84, 105
6, 581676, Note_on_c, 4, 84, 0
6, 581676, Note_on_c, 4, 83, 105
6, 581760, Note_on_c, 4, 83, 0
6, 581760, Note_on_c, 4, 77, 0
6, 581760, Note_on_c, 4, 74, 0
6, 581760, Note_on_c, 4, 81, 105
6, 581760, Note_on_c, 4, 72, 105
6, 581760, Note_on_c, 4, 76, 105
6, 581840, Note_on_c, 4, 81, 0
6, 581840, Note_on_c, 4, 83, 105
6, 581916, Note_on_c, 4, 83, 0
6, 581916, Note_on_c, 4, 81, 105
6, 582000, Note_on_c, 4, 81, 0
6, 582000, Note_on_c, 4, 76, 0
6, 582000, Note_on_c, 4, 72, 0
6, 582000, Note_on_c, 4, 79, 105
6, 582000, Note_on_c, 4, 71, 105
6, 582000, Note_on_c, 4, 74, 105
6, 582080, Note_on_c, 4, 79, 0
6, 582080, Note_on_c, 4, 81, 105
6, 582156, Note_on_c, 4, 81, 0
6, 582156, Note_on_c, 4, 79, 105
6, 582240, Note_on_c, 4, 79, 0
6, 582240, Note_on_c, 4, 74, 0
6, 582240, Note_on_c, 4, 71, 0
6, 582240, Note_on_c, 4, 77, 105
6, 582240, Note_on_c, 4, 69, 105
6, 582240, Note_on_c, 4, 72, 105
6, 582320, Note_on_c, 4, 77, 0
6, 582320, Note_on_c, 4, 79, 105
6, 582396, Note_on_c, 4, 79, 0
6, 582396, Note_on_c, 4, 77, 105
6, 582480, Note_on_c, 4, 77, 0
6, 582480, Note_on_c, 4, 72, 0
6, 582480, Note_on_c, 4, 69, 0
6, 582480, Note_on_c, 4, 76, 105
6, 582480, Note_on_c, 4, 67, 105
6, 582480, Note_on_c, 4, 71, 105
6, 582560, Note_on_c, 4, 76, 0
6, 582560, Note_on_c, 4, 77, 105
6, 582636, Note_on_c, 4, 77, 0
6, 582636, Note_on_c, 4, 76, 105
6, 582720, Note_on_c, 4, 76, 0
6, 582720, Note_on_c, 4, 71, 0
6, 582720, Note_on_c, 4, 67, 0
6, 582720, Note_on_c, 4, 74, 105
6, 582720, Note_on_c, 4, 65, 105
6, 582720, Note_on_c, 4, 69, 105
6, 582780, Note_on_c, 4, 74, 0
6, 582780, Note_on_c, 4, 76, 105
6, 582840, Note_on_c, 4, 76, 0
6, 582840, Note_on_c, 4, 74, 105
6, 582900, Note_on_c, 4, 74, 0
6, 582900, Note_on_c, 4, 73, 105
6, 582960, Note_on_c, 4, 73, 0
6, 582960, Note_on_c, 4, 74, 105
6, 583020, Note_on_c, 4, 74, 0
6, 583020, Note_on_c, 4, 76, 105
6, 583080, Note_on_c, 4, 76, 0
6, 583080, Note_on_c, 4, 74, 105
6, 583140, Note_on_c, 4, 74, 0
6, 583140, Note_on_c, 4, 76, 105
6, 583200, Note_on_c, 4, 76, 0
6, 583200, Note_on_c, 4, 69, 0
6, 583200, Note_on_c, 4, 65, 0
6, 583200, Note_on_c, 4, 77, 105
6, 583200, Note_on_c, 4, 65, 105
6, 583200, Note_on_c, 4, 69, 105
6, 583260, Note_on_c, 4, 77, 0
6, 583260, Note_on_c, 4, 79, 105
6, 583320, Note_on_c, 4, 79, 0
6, 583320, Note_on_c, 4, 77, 105
6, 583380, Note_on_c, 4, 77, 0
6, 583380, Note_on_c, 4, 76, 105
6, 583440, Note_on_c, 4, 76, 0
6, 583440, Note_on_c, 4, 77, 105
6, 583500, Note_on_c, 4, 77, 0
6, 583500, Note_on_c, 4, 79, 105
6, 583560, Note_on_c, 4, 79, 0
6, 583560, Note_on_c, 4, 77, 105
6, 583620, Note_on_c, 4, 77, 0
6, 583620, Note_on_c, 4, 79, 105
6, 583680, Note_on_c, 4, 79, 0
6, 583680, Note_on_c, 4, 69, 0
6, 583680, Note_on_c, 4, 65, 0
6, 583680, Note_on_c, 4, 81, 105
6, 583680, Note_on_c, 4, 65, 105
6, 583680, Note_on_c, 4, 69, 105
6, 583740, Note_on_c, 4, 81, 0
6, 583740, Note_on_c, 4, 83, 105
6, 583800, Note_on_c, 4, 83, 0
6, 583800, Note_on_c, 4, 81, 105
6, 583860, Note_on_c, 4, 81, 0
6, 583860, Note_on_c, 4, 79, 105
6, 583920, Note_on_c, 4, 79, 0
6, 583920, Note_on_c, 4, 69, 0
6, 583920, Note_on_c, 4, 65, 0
6, 583920, Note_on_c, 4, 81, 105
6, 583920, Note_on_c, 4, 65, 105
6, 583920, Note_on_c, 4, 67, 105
6, 583980, Note_on_c, 4, 81, 0
6, 583980, Note_on_c, 4, 83, 105
6, 584040, Note_on_c, 4, 83, 0
6, 584040, Note_on_c, 4, 81, 105
6, 584100, Note_on_c, 4, 81, 0
6, 584100, Note_on_c, 4, 83, 105
6, 584160, Note_on_c, 4, 83, 0
6, 584160, Note_on_c, 4, 67, 0
6, 584160, Note_on_c, 4, 65, 0
6, 584160, Note_on_c, 4, 84, 105
6, 584160, Note_on_c, 4, 64, 105
6, 584160, Note_on_c, 4, 67, 105
6, 584220, Note_on_c, 4, 84, 0
6, 584220, Note_on_c, 4, 83, 105
6, 584280, Note_on_c, 4, 83, 0
6, 584280, Note_on_c, 4, 84, 105
6, 584340, Note_on_c, 4, 84, 0
6, 584340, Note_on_c, 4, 79, 105
6, 584400, Note_on_c, 4, 79, 0
6, 584400, Note_on_c, 4, 67, 0
6, 584400, Note_on_c, 4, 64, 0
6, 584400, Note_on_c, 4, 83, 105
6, 584400, Note_on_c, 4, 65, 105
6, 584400, Note_on_c, 4, 72, 105
6, 584460, Note_on_c, 4, 83, 0
6, 584460, Note_on_c, 4, 81, 105
6, 584520, Note_on_c, 4, 81, 0
6, 584520, Note_on_c, 4, 79, 105
6, 584580, Note_on_c, 4, 79, 0
6, 584580, Note_on_c, 4, 77, 105
6, 584640, Note_on_c, 4, 77, 0
6, 584640, Note_on_c, 4, 72, 0
6, 584640, Note_on_c, 4, 65, 0
6, 584640, Note_on_c, 4, 76, 105
6, 584640, Note_on_c, 4, 67, 105
6, 584640, Note_on_c, 4, 72, 105
6, 584880, Note_on_c, 4, 72, 0
6, 584880, Note_on_c, 4, 67, 0
6, 584880, Note_on_c, 4, 67, 105
6, 584880, Note_on_c, 4, 72, 105
6, 585120, Note_on_c, 4, 72, 0
6, 585120, Note_on_c, 4, 67, 0
6, 585120, Note_on_c, 4, 76, 0
6, 585120, Note_on_c, 4, 76, 105
6, 585120, Note_on_c, 4, 67, 105
6, 585120, Note_on_c, 4, 71, 105
6, 585180, Note_on_c, 4, 76, 0
6, 585180, Note_on_c, 4, 74, 105
6, 585240, Note_on_c, 4, 74, 0
6, 585240, Note_on_c, 4, 76, 105
6, 585268, Note_on_c, 4, 76, 0
6, 585268, Note_on_c, 4, 74, 105
6, 585300, Note_on_c, 4, 74, 0
6, 585300, Note_on_c, 4, 76, 105
6, 585328, Note_on_c, 4, 76, 0
6, 585328, Note_on_c, 4, 74, 105
6, 585360, Note_on_c, 4, 74, 0
6, 585360, Note_on_c, 4, 71, 0
6, 585360, Note_on_c, 4, 67, 0
6, 585360, Note_on_c, 4, 76, 105
6, 585360, Note_on_c, 4, 67, 105
6, 585360, Note_on_c, 4, 71, 105
6, 585388, Note_on_c, 4, 76, 0
6, 585388, Note_on_c, 4, 74, 105
6, 585420, Note_on_c, 4, 74, 0
6, 585420, Note_on_c, 4, 76, 105
6, 585448, Note_on_c, 4, 76, 0
6, 585448, Note_on_c, 4, 74, 105
6, 585480, Note_on_c, 4, 74, 0
6, 585480, Note_on_c, 4, 72, 105
6, 585540, Note_on_c, 4, 72, 0
6, 585540, Note_on_c, 4, 74, 105
6, 585600, Note_on_c, 4, 74, 0
6, 585600, Note_on_c, 4, 71, 0
6, 585600, Note_on_c, 4, 67, 0
6, 585600, Note_on_c, 4, 72, 96
6, 585600, Note_on_c, 4, 48, 96
6, 585680, Note_on_c, 4, 48, 0
6, 585680, Note_on_c, 4, 52, 80
6, 585756, Note_on_c, 4, 52, 0
6, 585756, Note_on_c, 4, 55, 80
6, 585840, Note_on_c, 4, 55, 0
6, 585840, Note_on_c, 4, 72, 0
6, 585840, Note_on_c, 4, 72, 78
6, 585840, Note_on_c, 4, 60, 78
6, 585920, Note_on_c, 4, 60, 0
6, 585920, Note_on_c, 4, 52, 79
6, 585996, Note_on_c, 4, 52, 0
6, 585996, Note_on_c, 4, 55, 79
6, 586080, Note_on_c, 4, 55, 0
6, 586080, Note_on_c, 4, 72, 0
6, 586080, Note_on_c, 4, 48, 104
6, 586160, Note_on_c, 4, 48, 0
6, 586160, Note_on_c, 4, 52, 106
6, 586200, Note_on_c, 4, 72, 106
6, 586236, Note_on_c, 4, 52, 0
6, 586236, Note_on_c, 4, 55, 104
6, 586320, Note_on_c, 4, 55, 0
6, 586320, Note_on_c, 4, 72, 0
6, 586320, Note_on_c, 4, 71, 104
6, 586320, Note_on_c, 4, 60, 104
6, 586400, Note_on_c, 4, 60, 0
6, 586400, Note_on_c, 4, 52, 104
6, 586440, Note_on_c, 4, 71, 0
6, 586440, Note_on_c, 4, 72, 104
6, 586476, Note_on_c, 4, 52, 0
6, 586476, Note_on_c, 4, 55, 104
6, 586560, Note_on_c, 4, 55, 0
6, 586560, Note_on_c, 4, 72, 0
6, 586560, Note_on_c, 4, 76, 104
6, 586560, Note_on_c, 4, 48, 104
6, 586640, Note_on_c, 4, 48, 0
6, 586640, Note_on_c, 4, 52, 104
6, 586680, Note_on_c, 4, 76, 0
6, 586680, Note_on_c, 4, 72, 104
6, 586716, Note_on_c, 4, 52, 0
6, 586716, Note_on_c, 4, 55, 104
6, 586800, Note_on_c, 4, 55, 0
6, 586800, Note_on_c, 4, 72, 0
6, 586800, Note_on_c, 4, 79, 104
6, 586800, Note_on_c, 4, 60, 104
6, 586880, Note_on_c, 4, 60, 0
6, 586880, Note_on_c, 4, 52, 104
6, 586920, Note_on_c, 4, 79, 0
6, 586920, Note_on_c, 4, 76, 104
6, 586956, Note_on_c, 4, 52, 0
6, 586956, Note_on_c, 4, 55, 104
6, 587040, Note_on_c, 4, 55, 0
6, 587040, Note_on_c, 4, 76, 0
6, 587040, Note_on_c, 4, 74, 104
6, 587040, Note_on_c, 4, 48, 104
6, 587120, Note_on_c, 4, 48, 0
6, 587120, Note_on_c, 4, 53, 80
6, 587196, Note_on_c, 4, 53, 0
6, 587196, Note_on_c, 4, 55, 80
6, 587280, Note_on_c, 4, 55, 0
6, 587280, Note_on_c, 4, 74, 0
6, 587280, Note_on_c, 4, 74, 91
6, 587280, Note_on_c, 4, 59, 80
6, 587360, Note_on_c, 4, 59, 0
6, 587360, Note_on_c, 4, 53, 80
6, 587436, Note_on_c, 4, 53, 0
6, 587436, Note_on_c, 4, 55, 80
6, 587520, Note_on_c, 4, 55, 0
6, 587520, Note_on_c, 4, 74, 0
6, 587520, Note_on_c, 4, 48, 80
6, 587600, Note_on_c, 4, 48, 0
6, 587600, Note_on_c, 4, 53, 101
6, 587640, Note_on_c, 4, 74, 101
6, 587676, Note_on_c, 4, 53, 0
6, 587676, Note_on_c, 4, 55, 101
6, 587760, Note_on_c, 4, 55, 0
6, 587760, Note_on_c, 4, 74, 0
6, 587760, Note_on_c, 4, 73, 101
6, 587760, Note_on_c, 4, 59, 101
6, 587840, Note_on_c, 4, 59, 0
6, 587840, Note_on_c, 4, 53, 101
6, 587880, Note_on_c, 4, 73, 0
6, 587880, Note_on_c, 4, 74, 101
6, 587916, Note_on_c, 4, 53, 0
6, 587916, Note_on_c, 4, 55, 101
6, 588000, Note_on_c, 4, 55, 0
6, 588000, Note_on_c, 4, 74, 0
6, 588000, Note_on_c, 4, 77, 101
6, 588000, Note_on_c, 4, 48, 101
6, 588080, Note_on_c, 4, 48, 0
6, 588080, Note_on_c, 4, 53, 101
6, 588120, Note_on_c, 4, 77, 0
6, 588120, Note_on_c, 4, 74, 101
6, 588156, Note_on_c, 4, 53, 0
6, 588156, Note_on_c, 4, 55, 101
6, 588240, Note_on_c, 4, 55, 0
6, 588240, Note_on_c, 4, 74, 0
6, 588240, Note_on_c, 4, 81, 101
6, 588240, Note_on_c, 4, 59, 101
6, 588320, Note_on_c, 4, 59, 0
6, 588320, Note_on_c, 4, 53, 101
6, 588360, Note_on_c, 4, 81, 0
6, 588360, Note_on_c, 4, 77, 101
6, 588396, Note_on_c, 4, 53, 0
6, 588396, Note_on_c, 4, 55, 101
6, 588480, Note_on_c, 4, 55, 0
6, 588480, Note_on_c, 4, 77, 0
6, 588480, Note_on_c, 4, 77, 96
6, 588480, Note_on_c, 4, 48, 90
6, 588560, Note_on_c, 4, 48, 0
6, 588560, Note_on_c, 4, 52, 90
6, 588600, Note_on_c, 4, 77, 0
6, 588600, Note_on_c, 4, 76, 97
6, 588636, Note_on_c, 4, 52, 0
6, 588636, Note_on_c, 4, 55, 90
6, 588644, Note_on_c, 4, 76, 0
6, 588720, Note_on_c, 4, 55, 0
6, 588720, Note_on_c, 4, 76, 97
6, 588720, Note_on_c, 4, 58, 90
6, 588800, Note_on_c, 4, 58, 0
6, 588800, Note_on_c, 4, 52, 90
6, 588816, Note_on_c, 4, 76, 0
6, 588876, Note_on_c, 4, 52, 0
6, 588876, Note_on_c, 4, 55, 90
6, 588960, Note_on_c, 4, 55, 0
6, 588960, Note_on_c, 4, 48, 90
6, 589040, Note_on_c, 4, 48, 0
6, 589040, Note_on_c, 4, 52, 107
6, 589080, Note_on_c, 4, 76, 107
6, 589116, Note_on_c, 4, 52, 0
6, 589116, Note_on_c, 4, 55, 107
6, 589200, Note_on_c, 4, 55, 0
6, 589200, Note_on_c, 4, 76, 0
6, 589200, Note_on_c, 4, 77, 107
6, 589200, Note_on_c, 4, 58, 107
6, 589280, Note_on_c, 4, 58, 0
6, 589280, Note_on_c, 4, 52, 108
6, 589320, Note_on_c, 4, 77, 0
6, 589320, Note_on_c, 4, 76, 108
6, 589356, Note_on_c, 4, 52, 0
6, 589356, Note_on_c, 4, 55, 108
6, 589440, Note_on_c, 4, 55, 0
6, 589440, Note_on_c, 4, 76, 0
6, 589440, Note_on_c, 4, 79, 108
6, 589440, Note_on_c, 4, 48, 108
6, 589520, Note_on_c, 4, 48, 0
6, 589520, Note_on_c, 4, 52, 108
6, 589560, Note_on_c, 4, 79, 0
6, 589560, Note_on_c, 4, 76, 109
6, 589596, Note_on_c, 4, 52, 0
6, 589596, Note_on_c, 4, 55, 109
6, 589680, Note_on_c, 4, 55, 0
6, 589680, Note_on_c, 4, 76, 0
6, 589680, Note_on_c, 4, 82, 109
6, 589680, Note_on_c, 4, 58, 109
6, 589760, Note_on_c, 4, 58, 0
6, 589760, Note_on_c, 4, 52, 109
6, 589800, Note_on_c, 4, 82, 0
6, 589800, Note_on_c, 4, 79, 109
6, 589836, Note_on_c, 4, 52, 0
6, 589836, Note_on_c, 4, 55, 110
6, 589920, Note_on_c, 4, 55, 0
6, 589920, Note_on_c, 4, 79, 0
6, 589920, Note_on_c, 4, 79, 110
6, 589920, Note_on_c, 4, 48, 110
6, 590000, Note_on_c, 4, 48, 0
6, 590000, Note_on_c, 4, 53, 110
6, 590040, Note_on_c, 4, 79, 0
6, 590040, Note_on_c, 4, 77, 110
6, 590076, Note_on_c, 4, 53, 0
6, 590076, Note_on_c, 4, 57, 111
6, 590084, Note_on_c, 4, 77, 0
6, 590160, Note_on_c, 4, 57, 0
6, 590160, Note_on_c, 4, 77, 111
6, 590160, Note_on_c, 4, 60, 111
6, 590240, Note_on_c, 4, 60, 0
6, 590240, Note_on_c, 4, 53, 111
6, 590256, Note_on_c, 4, 77, 0
6, 590316, Note_on_c, 4, 53, 0
6, 590316, Note_on_c, 4, 57, 111
6, 590400, Note_on_c, 4, 57, 0
6, 590400, Note_on_c, 4, 48, 112
6, 590480, Note_on_c, 4, 48, 0
6, 590480, Note_on_c, 4, 53, 112
6, 590520, Note_on_c, 4, 77, 112
6, 590556, Note_on_c, 4, 53, 0
6, 590556, Note_on_c, 4, 57, 112
6, 590640, Note_on_c, 4, 57, 0
6, 590640, Note_on_c, 4, 77, 0
6, 590640, Note_on_c, 4, 76, 113
6, 590640, Note_on_c, 4, 60, 113
6, 590720, Note_on_c, 4, 60, 0
6, 590720, Note_on_c, 4, 53, 113
6, 590760, Note_on_c, 4, 76, 0
6, 590760, Note_on_c, 4, 77, 113
6, 590796, Note_on_c, 4, 53, 0
6, 590796, Note_on_c, 4, 57, 113
6, 590880, Note_on_c, 4, 57, 0
6, 590880, Note_on_c, 4, 77, 0
6, 590880, Note_on_c, 4, 81, 114
6, 590880, Note_on_c, 4, 48, 114
6, 590960, Note_on_c, 4, 48, 0
6, 590960, Note_on_c, 4, 53, 114
6, 591000, Note_on_c, 4, 81, 0
6, 591000, Note_on_c, 4, 77, 114
6, 591036, Note_on_c, 4, 53, 0
6, 591036, Note_on_c, 4, 57, 114
6, 591120, Note_on_c, 4, 57, 0
6, 591120, Note_on_c, 4, 77, 0
6, 591120, Note_on_c, 4, 84, 114
6, 591120, Note_on_c, 4, 60, 114
6, 591200, Note_on_c, 4, 60, 0
6, 591200, Note_on_c, 4, 53, 115
6, 591240, Note_on_c, 4, 84, 0
6, 591240, Note_on_c, 4, 81, 115
6, 591276, Note_on_c, 4, 53, 0
6, 591276, Note_on_c, 4, 57, 115
6, 591360, Note_on_c, 4, 57, 0
6, 591360, Note_on_c, 4, 81, 0
6, 591360, Note_on_c, 4, 79, 115
6, 591360, Note_on_c, 4, 82, 115
6, 591360, Note_on_c, 4, 48, 115
6, 591440, Note_on_c, 4, 48, 0
6, 591440, Note_on_c, 4, 52, 116
6, 591516, Note_on_c, 4, 52, 0
6, 591516, Note_on_c, 4, 55, 116
6, 591600, Note_on_c, 4, 55, 0
6, 591600, Note_on_c, 4, 82, 0
6, 591600, Note_on_c, 4, 79, 0
6, 591600, Note_on_c, 4, 79, 116
6, 591600, Note_on_c, 4, 82, 116
6, 591600, Note_on_c, 4, 60, 116
6, 591680, Note_on_c, 4, 60, 0
6, 591680, Note_on_c, 4, 52, 117
6, 591756, Note_on_c, 4, 52, 0
6, 591756, Note_on_c, 4, 55, 117
6, 591840, Note_on_c, 4, 55, 0
6, 591840, Note_on_c, 4, 48, 117
6, 591960, Note_on_c, 4, 82, 0
6, 591960, Note_on_c, 4, 79, 0
6, 591960, Note_on_c, 4, 77, 117
6, 591960, Note_on_c, 4, 81, 117
6, 592080, Note_on_c, 4, 81, 0
6, 592080, Note_on_c, 4, 77, 0
6, 592080, Note_on_c, 4, 76, 112
6, 592080, Note_on_c, 4, 79, 112
6, 592200, Note_on_c, 4, 79, 0
6, 592200, Note_on_c, 4, 76, 0
6, 592200, Note_on_c, 4, 74, 107
6, 592200, Note_on_c, 4, 77, 107
6, 592320, Note_on_c, 4, 77, 0
6, 592320, Note_on_c, 4, 74, 0
6, 592320, Note_on_c, 4, 48, 0
6, 592320, Note_on_c, 4, 72, 102
6, 592320, Note_on_c, 4, 76, 102
6, 592440, Note_on_c, 4, 76, 0
6, 592440, Note_on_c, 4, 72, 0
6, 592440, Note_on_c, 4, 70, 97
6, 592440, Note_on_c, 4, 74, 97
6, 592560, Note_on_c, 4, 74, 0
6, 592560, Note_on_c, 4, 70, 0
6, 592560, Note_on_c, 4, 69, 92
6, 592560, Note_on_c, 4, 72, 92
6, 592680, Note_on_c, 4, 72, 0
6, 592680, Note_on_c, 4, 69, 0
6, 592680, Note_on_c, 4, 67, 104
6, 592680, Note_on_c, 4, 70, 104
6, 592708, Note_on_c, 4, 57, 109
6, 592740, Note_on_c, 4, 60, 110
6, 592740, Note_on_c, 4, 41, 105
6, 592749, Note_on_c, 4, 67, 0
6, 592754, Note_on_c, 4, 70, 0
6, 592768, Note_on_c, 4, 65, 114
6, 592800, Note_on_c, 4, 41, 0
6, 592800, Note_on_c, 4, 69, 117
6, 592800, Note_on_c, 4, 53, 70
6, 593040, Note_on_c, 4, 53, 0
6, 593040, Note_on_c, 4, 60, 0
6, 593040, Note_on_c, 4, 65, 0
6, 593040, Note_on_c, 4, 57, 0
6, 593040, Note_on_c, 4, 69, 0
6, 593188, Note_on_c, 4, 57, 89
6, 593220, Note_on_c, 4, 60, 94
6, 593220, Note_on_c, 4, 41, 94
6, 593248, Note_on_c, 4, 65, 94
6, 593280, Note_on_c, 4, 41, 0
6, 593280, Note_on_c, 4, 69, 96
6, 593280, Note_on_c, 4, 53, 96
6, 593520, Note_on_c, 4, 53, 0
6, 593520, Note_on_c, 4, 57, 0
6, 593520, Note_on_c, 4, 65, 0
6, 593520, Note_on_c, 4, 60, 0
6, 593520, Note_on_c, 4, 69, 0
6, 593668, Note_on_c, 4, 57, 83
6, 593700, Note_on_c, 4, 60, 84
6, 593700, Note_on_c, 4, 41, 84
6, 593728, Note_on_c, 4, 65, 84
6, 593760, Note_on_c, 4, 41, 0
6, 593760, Note_on_c, 4, 69, 89
6, 593760, Note_on_c, 4, 53, 89
6, 594000, Note_on_c, 4, 53, 0
6, 594000, Note_on_c, 4, 57, 0
6, 594000, Note_on_c, 4, 65, 0
6, 594000, Note_on_c, 4, 60, 0
6, 594000, Note_on_c, 4, 69, 0
6, 594144, Note_on_c, 4, 36, 70
6, 594148, Note_on_c, 4, 58, 101
6, 594168, Note_on_c, 4, 40, 70
6, 594180, Note_on_c, 4, 60, 108
6, 594192, Note_on_c, 4, 43, 70
6, 594208, Note_on_c, 4, 64, 110
6, 594216, Note_on_c, 4, 46, 70
6, 594240, Note_on_c, 4, 67, 114
6, 594240, Note_on_c, 4, 48, 105
6, 594720, Note_on_c, 4, 64, 0
6, 594720, Note_on_c, 4, 58, 0
6, 594720, Note_on_c, 4, 60, 0
6, 595080, Note_on_c, 4, 67, 0
6, 595080, Note_on_c, 4, 64, 105
6, 595200, Note_on_c, 4, 64, 0
6, 595200, Note_on_c, 4, 36, 0
6, 595200, Note_on_c, 4, 43, 0
6, 595200, Note_on_c, 4, 48, 0
6, 595200, Note_on_c, 4, 40, 0
6, 595200, Note_on_c, 4, 46, 0
6, 595200, Note_on_c, 4, 57, 105
6, 595200, Note_on_c, 4, 65, 105
6, 595200, Note_on_c, 4, 41, 105
6, 595440, Note_on_c, 4, 41, 0
6, 595440, Note_on_c, 4, 65, 0
6, 595440, Note_on_c, 4, 57, 0
6, 595680, Note_on_c, 4, 65, 82
6, 595680, Note_on_c, 4, 69, 82
6, 595800, Note_on_c, 4, 69, 0
6, 595800, Note_on_c, 4, 65, 0
6, 595800, Note_on_c, 4, 67, 86
6, 595800, Note_on_c, 4, 70, 86
6, 595920, Note_on_c, 4, 70, 0
6, 595920, Note_on_c, 4, 67, 0
6, 595920, Note_on_c, 4, 69, 89
6, 595920, Note_on_c, 4, 72, 89
6, 596040, Note_on_c, 4, 72, 0
6, 596040, Note_on_c, 4, 69, 0
6, 596040, Note_on_c, 4, 70, 89
6, 596040, Note_on_c, 4, 74, 89
6, 596160, Note_on_c, 4, 74, 0
6, 596160, Note_on_c, 4, 70, 0
6, 596160, Note_on_c, 4, 69, 88
6, 596160, Note_on_c, 4, 72, 88
6, 596280, Note_on_c, 4, 72, 0
6, 596280, Note_on_c, 4, 69, 0
6, 596280, Note_on_c, 4, 70, 84
6, 596280, Note_on_c, 4, 74, 84
6, 596400, Note_on_c, 4, 74, 0
6, 596400, Note_on_c, 4, 70, 0
6, 596400, Note_on_c, 4, 67, 83
6, 596400, Note_on_c, 4, 76, 83
6, 596520, Note_on_c, 4, 76, 0
6, 596520, Note_on_c, 4, 67, 0
6, 596520, Note_on_c, 4, 69, 83
6, 596520, Note_on_c, 4, 77, 83
6, 596640, Note_on_c, 4, 77, 0
6, 596640, Note_on_c, 4, 69, 0
6, 596640, Note_on_c, 4, 67, 81
6, 596640, Note_on_c, 4, 76, 81
6, 596760, Note_on_c, 4, 76, 0
6, 596760, Note_on_c, 4, 67, 0
6, 596760, Note_on_c, 4, 69, 82
6, 596760, Note_on_c, 4, 77, 82
6, 596880, Note_on_c, 4, 77, 0
6, 596880, Note_on_c, 4, 69, 0
6, 596880, Note_on_c, 4, 67, 82
6, 596880, Note_on_c, 4, 76, 82
6, 597000, Note_on_c, 4, 76, 0
6, 597000, Note_on_c, 4, 67, 0
6, 597000, Note_on_c, 4, 69, 83
6, 597000, Note_on_c, 4, 77, 83
6, 597120, Note_on_c, 4, 77, 0
6, 597120, Note_on_c, 4, 69, 0
6, 597120, Note_on_c, 4, 65, 85
6, 597120, Note_on_c, 4, 70, 85
6, 597120, Note_on_c, 4, 53, 85
6, 597120, Note_on_c, 4, 62, 85
6, 597360, Note_on_c, 4, 62, 0
6, 597360, Note_on_c, 4, 53, 0
6, 597600, Note_on_c, 4, 65, 0
6, 597600, Note_on_c, 4, 53, 88
6, 597600, Note_on_c, 4, 58, 88
6, 597840, Note_on_c, 4, 58, 0
6, 597840, Note_on_c, 4, 53, 0
6, 597960, Note_on_c, 4, 70, 0
6, 597960, Note_on_c, 4, 72, 96
6, 598020, Note_on_c, 4, 72, 0
6, 598020, Note_on_c, 4, 74, 96
6, 598080, Note_on_c, 4, 74, 0
6, 598080, Note_on_c, 4, 72, 98
6, 598080, Note_on_c, 4, 53, 98
6, 598080, Note_on_c, 4, 57, 98
6, 598320, Note_on_c, 4, 57, 0
6, 598320, Note_on_c, 4, 53, 0
6, 598320, Note_on_c, 4, 72, 0
6, 598560, Note_on_c, 4, 41, 105
6, 598620, Note_on_c, 4, 41, 0
6, 598620, Note_on_c, 4, 53, 105
6, 598680, Note_on_c, 4, 53, 0
6, 598680, Note_on_c, 4, 57, 105
6, 598740, Note_on_c, 4, 57, 0
6, 598740, Note_on_c, 4, 60, 105
6, 598800, Note_on_c, 4, 60, 0
6, 598800, Note_on_c, 4, 65, 105
6, 598860, Note_on_c, 4, 65, 0
6, 598860, Note_on_c, 4, 69, 105
6, 598920, Note_on_c, 4, 69, 0
6, 598920, Note_on_c, 4, 65, 105
6, 598980, Note_on_c, 4, 65, 0
6, 598980, Note_on_c, 4, 60, 105
6, 599040, Note_on_c, 4, 60, 0
6, 599040, Note_on_c, 4, 38, 105
6, 599100, Note_on_c, 4, 38, 0
6, 599100, Note_on_c, 4, 50, 105
6, 599160, Note_on_c, 4, 50, 0
6, 599160, Note_on_c, 4, 57, 105
6, 599220, Note_on_c, 4, 57, 0
6, 599220, Note_on_c, 4, 62, 105
6, 599280, Note_on_c, 4, 62, 0
6, 599280, Note_on_c, 4, 65, 105
6, 599340, Note_on_c, 4, 65, 0
6, 599340, Note_on_c, 4, 69, 105
6, 599400, Note_on_c, 4, 69, 0
6, 599400, Note_on_c, 4, 65, 105
6, 599460, Note_on_c, 4, 65, 0
6, 599460, Note_on_c, 4, 62, 105
6, 599520, Note_on_c, 4, 62, 0
6, 599520, Note_on_c, 4, 46, 105
6, 599580, Note_on_c, 4, 46, 0
6, 599580, Note_on_c, 4, 58, 105
6, 599640, Note_on_c, 4, 58, 0
6, 599640, Note_on_c, 4, 62, 105
6, 599700, Note_on_c, 4, 62, 0
6, 599700, Note_on_c, 4, 65, 105
6, 599760, Note_on_c, 4, 65, 0
6, 599760, Note_on_c, 4, 67, 105
6, 599820, Note_on_c, 4, 67, 0
6, 599820, Note_on_c, 4, 74, 105
6, 599880, Note_on_c, 4, 74, 0
6, 599880, Note_on_c, 4, 67, 105
6, 599940, Note_on_c, 4, 67, 0
6, 599940, Note_on_c, 4, 65, 105
6, 600000, Note_on_c, 4, 65, 0
6, 600000, Note_on_c, 4, 36, 105
6, 600060, Note_on_c, 4, 36, 0
6, 600060, Note_on_c, 4, 48, 105
6, 600120, Note_on_c, 4, 48, 0
6, 600120, Note_on_c, 4, 60, 105
6, 600180, Note_on_c, 4, 60, 0
6, 600180, Note_on_c, 4, 65, 105
6, 600240, Note_on_c, 4, 65, 0
6, 600240, Note_on_c, 4, 67, 105
6, 600300, Note_on_c, 4, 67, 0
6, 600300, Note_on_c, 4, 72, 105
6, 600360, Note_on_c, 4, 72, 0
6, 600360, Note_on_c, 4, 67, 105
6, 600420, Note_on_c, 4, 67, 0
6, 600420, Note_on_c, 4, 65, 105
6, 600480, Note_on_c, 4, 65, 0
6, 600480, Note_on_c, 4, 48, 105
6, 600540, Note_on_c, 4, 48, 0
6, 600540, Note_on_c, 4, 60, 105
6, 600600, Note_on_c, 4, 60, 0
6, 600600, Note_on_c, 4, 60, 105
6, 600660, Note_on_c, 4, 60, 0
6, 600660, Note_on_c, 4, 64, 105
6, 600720, Note_on_c, 4, 64, 0
6, 600720, Note_on_c, 4, 67, 105
6, 600780, Note_on_c, 4, 67, 0
6, 600780, Note_on_c, 4, 72, 105
6, 600840, Note_on_c, 4, 72, 0
6, 600840, Note_on_c, 4, 67, 105
6, 600900, Note_on_c, 4, 67, 0
6, 600900, Note_on_c, 4, 64, 105
6, 600960, Note_on_c, 4, 64, 0
6, 600960, Note_on_c, 4, 45, 105
6, 601020, Note_on_c, 4, 45, 0
6, 601020, Note_on_c, 4, 57, 105
6, 601080, Note_on_c, 4, 57, 0
6, 601080, Note_on_c, 4, 60, 105
6, 601140, Note_on_c, 4, 60, 0
6, 601140, Note_on_c, 4, 64, 105
6, 601200, Note_on_c, 4, 64, 0
6, 601200, Note_on_c, 4, 65, 105
6, 601260, Note_on_c, 4, 65, 0
6, 601260, Note_on_c, 4, 72, 105
6, 601320, Note_on_c, 4, 72, 0
6, 601320, Note_on_c, 4, 65, 105
6, 601380, Note_on_c, 4, 65, 0
6, 601380, Note_on_c, 4, 64, 105
6, 601440, Note_on_c, 4, 64, 0
6, 601440, Note_on_c, 4, 46, 105
6, 601500, Note_on_c, 4, 46, 0
6, 601500, Note_on_c, 4, 58, 105
6, 601560, Note_on_c, 4, 58, 0
6, 601560, Note_on_c, 4, 58, 105
6, 601620, Note_on_c, 4, 58, 0
6, 601620, Note_on_c, 4, 62, 105
6, 601680, Note_on_c, 4, 62, 0
6, 601680, Note_on_c, 4, 65, 105
6, 601740, Note_on_c, 4, 65, 0
6, 601740, Note_on_c, 4, 70, 105
6, 601800, Note_on_c, 4, 70, 0
6, 601800, Note_on_c, 4, 65, 105
6, 601860, Note_on_c, 4, 65, 0
6, 601860, Note_on_c, 4, 62, 105
6, 601920, Note_on_c, 4, 62, 0
6, 601920, Note_on_c, 4, 46, 105
6, 601980, Note_on_c, 4, 46, 0
6, 601980, Note_on_c, 4, 58, 105
6, 602040, Note_on_c, 4, 58, 0
6, 602040, Note_on_c, 4, 58, 105
6, 602100, Note_on_c, 4, 58, 0
6, 602100, Note_on_c, 4, 62, 105
6, 602160, Note_on_c, 4, 62, 0
6, 602160, Note_on_c, 4, 67, 105
6, 602220, Note_on_c, 4, 67, 0
6, 602220, Note_on_c, 4, 70, 105
6, 602280, Note_on_c, 4, 70, 0
6, 602280, Note_on_c, 4, 67, 105
6, 602340, Note_on_c, 4, 67, 0
6, 602340, Note_on_c, 4, 62, 105
6, 602400, Note_on_c, 4, 62, 0
6, 602400, Note_on_c, 4, 46, 105
6, 602460, Note_on_c, 4, 46, 0
6, 602460, Note_on_c, 4, 55, 105
6, 602520, Note_on_c, 4, 55, 0
6, 602520, Note_on_c, 4, 58, 105
6, 602580, Note_on_c, 4, 58, 0
6, 602580, Note_on_c, 4, 62, 105
6, 602640, Note_on_c, 4, 62, 0
6, 602640, Note_on_c, 4, 67, 105
6, 602700, Note_on_c, 4, 67, 0
6, 602700, Note_on_c, 4, 70, 105
6, 602760, Note_on_c, 4, 70, 0
6, 602760, Note_on_c, 4, 67, 105
6, 602820, Note_on_c, 4, 67, 0
6, 602820, Note_on_c, 4, 62, 105
6, 602880, Note_on_c, 4, 62, 0
6, 602880, Note_on_c, 4, 36, 105
6, 602940, Note_on_c, 4, 36, 0
6, 602940, Note_on_c, 4, 48, 105
6, 603000, Note_on_c, 4, 48, 0
6, 603000, Note_on_c, 4, 57, 105
6, 603060, Note_on_c, 4, 57, 0
6, 603060, Note_on_c, 4, 60, 105
6, 603120, Note_on_c, 4, 60, 0
6, 603120, Note_on_c, 4, 65, 105
6, 603180, Note_on_c, 4, 65, 0
6, 603180, Note_on_c, 4, 69, 105
6, 603240, Note_on_c, 4, 69, 0
6, 603240, Note_on_c, 4, 65, 105
6, 603300, Note_on_c, 4, 65, 0
6, 603300, Note_on_c, 4, 60, 105
6, 603360, Note_on_c, 4, 60, 0
6, 603360, Note_on_c, 4, 64, 105
6, 603360, Note_on_c, 4, 67, 105
6, 603840, Note_on_c, 4, 67, 0
6, 603840, Note_on_c, 4, 64, 0
6, 610080, Note_on_c, 4, 72, 105
6, 610080, Note_on_c, 4, 53, 105
6, 610200, Note_on_c, 4, 53, 0
6, 610200, Note_on_c, 4, 60, 105
6, 610320, Note_on_c, 4, 60, 0
6, 610320, Note_on_c, 4, 57, 105
6, 610440, Note_on_c, 4, 57, 0
6, 610440, Note_on_c, 4, 60, 105
6, 610560, Note_on_c, 4, 60, 0
6, 610560, Note_on_c, 4, 53, 105
6, 610680, Note_on_c, 4, 53, 0
6, 610680, Note_on_c, 4, 60, 105
6, 610800, Note_on_c, 4, 60, 0
6, 610800, Note_on_c, 4, 72, 0
6, 610800, Note_on_c, 4, 74, 105
6, 610800, Note_on_c, 4, 57, 105
6, 610920, Note_on_c, 4, 57, 0
6, 610920, Note_on_c, 4, 74, 0
6, 610920, Note_on_c, 4, 72, 105
6, 610920, Note_on_c, 4, 60, 105
6, 611040, Note_on_c, 4, 60, 0
6, 611040, Note_on_c, 4, 72, 0
6, 611040, Note_on_c, 4, 77, 105
6, 611040, Note_on_c, 4, 53, 105
6, 611160, Note_on_c, 4, 53, 0
6, 611160, Note_on_c, 4, 77, 0
6, 611160, Note_on_c, 4, 76, 105
6, 611160, Note_on_c, 4, 60, 105
6, 611280, Note_on_c, 4, 60, 0
6, 611280, Note_on_c, 4, 76, 0
6, 611280, Note_on_c, 4, 74, 105
6, 611280, Note_on_c, 4, 57, 105
6, 611400, Note_on_c, 4, 57, 0
6, 611400, Note_on_c, 4, 74, 0
6, 611400, Note_on_c, 4, 72, 105
6, 611400, Note_on_c, 4, 60, 105
6, 611520, Note_on_c, 4, 60, 0
6, 611520, Note_on_c, 4, 72, 0
6, 611520, Note_on_c, 4, 72, 105
6, 611520, Note_on_c, 4, 52, 105
6, 611640, Note_on_c, 4, 52, 0
6, 611640, Note_on_c, 4, 58, 105
6, 611760, Note_on_c, 4, 58, 0
6, 611760, Note_on_c, 4, 55, 105
6, 611880, Note_on_c, 4, 55, 0
6, 611880, Note_on_c, 4, 72, 0
6, 611880, Note_on_c, 4, 74, 105
6, 611880, Note_on_c, 4, 58, 105
6, 612000, Note_on_c, 4, 58, 0
6, 612000, Note_on_c, 4, 74, 0
6, 612000, Note_on_c, 4, 72, 105
6, 612000, Note_on_c, 4, 52, 105
6, 612120, Note_on_c, 4, 52, 0
6, 612120, Note_on_c, 4, 58, 105
6, 612240, Note_on_c, 4, 58, 0
6, 612240, Note_on_c, 4, 55, 105
6, 612360, Note_on_c, 4, 55, 0
6, 612360, Note_on_c, 4, 58, 105
6, 612480, Note_on_c, 4, 58, 0
6, 612480, Note_on_c, 4, 72, 0
6, 612480, Note_on_c, 4, 55, 105
6, 612600, Note_on_c, 4, 55, 0
6, 612600, Note_on_c, 4, 58, 105
6, 612720, Note_on_c, 4, 58, 0
6, 612720, Note_on_c, 4, 55, 105
6, 612840, Note_on_c, 4, 55, 0
6, 612840, Note_on_c, 4, 58, 105
6, 612900, Note_on_c, 4, 67, 105
6, 612960, Note_on_c, 4, 67, 0
6, 612960, Note_on_c, 4, 58, 0
6, 612960, Note_on_c, 4, 79, 105
6, 612960, Note_on_c, 4, 48, 105
6, 613080, Note_on_c, 4, 48, 0
6, 613080, Note_on_c, 4, 58, 105
6, 613200, Note_on_c, 4, 58, 0
6, 613200, Note_on_c, 4, 52, 105
6, 613320, Note_on_c, 4, 52, 0
6, 613320, Note_on_c, 4, 58, 105
6, 613440, Note_on_c, 4, 58, 0
6, 613440, Note_on_c, 4, 48, 105
6, 613560, Note_on_c, 4, 48, 0
6, 613560, Note_on_c, 4, 58, 105
6, 613680, Note_on_c, 4, 58, 0
6, 613680, Note_on_c, 4, 79, 0
6, 613680, Note_on_c, 4, 77, 105
6, 613680, Note_on_c, 4, 52, 105
6, 613740, Note_on_c, 4, 77, 0
6, 613740, Note_on_c, 4, 76, 105
6, 613800, Note_on_c, 4, 76, 0
6, 613800, Note_on_c, 4, 52, 0
6, 613800, Note_on_c, 4, 74, 105
6, 613800, Note_on_c, 4, 58, 105
6, 613860, Note_on_c, 4, 74, 0
6, 613860, Note_on_c, 4, 72, 105
6, 613920, Note_on_c, 4, 72, 0
6, 613920, Note_on_c, 4, 58, 0
6, 613920, Note_on_c, 4, 72, 105
6, 613920, Note_on_c, 4, 48, 105
6, 613989, Note_on_c, 4, 72, 0
6, 614040, Note_on_c, 4, 48, 0
6, 614040, Note_on_c, 4, 72, 105
6, 614040, Note_on_c, 4, 58, 105
6, 614104, Note_on_c, 4, 72, 0
6, 614160, Note_on_c, 4, 58, 0
6, 614160, Note_on_c, 4, 72, 105
6, 614160, Note_on_c, 4, 52, 105
6, 614234, Note_on_c, 4, 72, 0
6, 614280, Note_on_c, 4, 52, 0
6, 614280, Note_on_c, 4, 72, 105
6, 614280, Note_on_c, 4, 58, 105
6, 614400, Note_on_c, 4, 58, 0
6, 614400, Note_on_c, 4, 72, 0
6, 614400, Note_on_c, 4, 72, 105
6, 614400, Note_on_c, 4, 53, 105
6, 614520, Note_on_c, 4, 53, 0
6, 614520, Note_on_c, 4, 60, 105
6, 614640, Note_on_c, 4, 60, 0
6, 614640, Note_on_c, 4, 57, 105
6, 614760, Note_on_c, 4, 57, 0
6, 614760, Note_on_c, 4, 72, 0
6, 614760, Note_on_c, 4, 69, 105
6, 614760, Note_on_c, 4, 60, 105
6, 614880, Note_on_c, 4, 60, 0
6, 614880, Note_on_c, 4, 69, 0
6, 614880, Note_on_c, 4, 72, 105
6, 614880, Note_on_c, 4, 53, 105
6, 615000, Note_on_c, 4, 53, 0
6, 615000, Note_on_c, 4, 60, 105
6, 615120, Note_on_c, 4, 60, 0
6, 615120, Note_on_c, 4, 57, 105
6, 615240, Note_on_c, 4, 57, 0
6, 615240, Note_on_c, 4, 60, 105
6, 615360, Note_on_c, 4, 60, 0
6, 615360, Note_on_c, 4, 72, 0
6, 615360, Note_on_c, 4, 53, 105
6, 615480, Note_on_c, 4, 53, 0
6, 615480, Note_on_c, 4, 60, 105
6, 615600, Note_on_c, 4, 60, 0
6, 615600, Note_on_c, 4, 57, 105
6, 615720, Note_on_c, 4, 57, 0
6, 615720, Note_on_c, 4, 60, 105
6, 615840, Note_on_c, 4, 60, 0
6, 615840, Note_on_c, 4, 77, 105
6, 615840, Note_on_c, 4, 50, 105
6, 615960, Note_on_c, 4, 50, 0
6, 615960, Note_on_c, 4, 77, 0
6, 615960, Note_on_c, 4, 67, 105
6, 615960, Note_on_c, 4, 55, 105
6, 616080, Note_on_c, 4, 55, 0
6, 616080, Note_on_c, 4, 67, 0
6, 616080, Note_on_c, 4, 71, 105
6, 616080, Note_on_c, 4, 53, 105
6, 616200, Note_on_c, 4, 53, 0
6, 616200, Note_on_c, 4, 71, 0
6, 616200, Note_on_c, 4, 67, 105
6, 616200, Note_on_c, 4, 55, 105
6, 616320, Note_on_c, 4, 55, 0
6, 616320, Note_on_c, 4, 67, 0
6, 616320, Note_on_c, 4, 77, 105
6, 616320, Note_on_c, 4, 50, 105
6, 616440, Note_on_c, 4, 50, 0
6, 616440, Note_on_c, 4, 77, 0
6, 616440, Note_on_c, 4, 67, 105
6, 616440, Note_on_c, 4, 55, 105
6, 616560, Note_on_c, 4, 55, 0
6, 616560, Note_on_c, 4, 67, 0
6, 616560, Note_on_c, 4, 71, 105
6, 616560, Note_on_c, 4, 53, 105
6, 616680, Note_on_c, 4, 53, 0
6, 616680, Note_on_c, 4, 71, 0
6, 616680, Note_on_c, 4, 67, 105
6, 616680, Note_on_c, 4, 55, 105
6, 616800, Note_on_c, 4, 55, 0
6, 616800, Note_on_c, 4, 67, 0
6, 616800, Note_on_c, 4, 77, 105
6, 616800, Note_on_c, 4, 50, 105
6, 616920, Note_on_c, 4, 50, 0
6, 616920, Note_on_c, 4, 77, 0
6, 616920, Note_on_c, 4, 67, 105
6, 616920, Note_on_c, 4, 55, 105
6, 617040, Note_on_c, 4, 55, 0
6, 617040, Note_on_c, 4, 67, 0
6, 617040, Note_on_c, 4, 71, 105
6, 617040, Note_on_c, 4, 53, 105
6, 617160, Note_on_c, 4, 53, 0
6, 617160, Note_on_c, 4, 71, 0
6, 617160, Note_on_c, 4, 67, 105
6, 617160, Note_on_c, 4, 55, 105
6, 617280, Note_on_c, 4, 55, 0
6, 617280, Note_on_c, 4, 67, 0
6, 617280, Note_on_c, 4, 79, 105
6, 617280, Note_on_c, 4, 48, 105
6, 617400, Note_on_c, 4, 48, 0
6, 617400, Note_on_c, 4, 79, 0
6, 617400, Note_on_c, 4, 67, 105
6, 617400, Note_on_c, 4, 55, 105
6, 617520, Note_on_c, 4, 55, 0
6, 617520, Note_on_c, 4, 67, 0
6, 617520, Note_on_c, 4, 72, 105
6, 617520, Note_on_c, 4, 52, 105
6, 617640, Note_on_c, 4, 52, 0
6, 617640, Note_on_c, 4, 72, 0
6, 617640, Note_on_c, 4, 67, 105
6, 617640, Note_on_c, 4, 55, 105
6, 617760, Note_on_c, 4, 55, 0
6, 617760, Note_on_c, 4, 67, 0
6, 617760, Note_on_c, 4, 76, 105
6, 617760, Note_on_c, 4, 48, 105
6, 617880, Note_on_c, 4, 48, 0
6, 617880, Note_on_c, 4, 76, 0
6, 617880, Note_on_c, 4, 67, 105
6, 617880, Note_on_c, 4, 55, 105
6, 618000, Note_on_c, 4, 55, 0
6, 618000, Note_on_c, 4, 67, 0
6, 618000, Note_on_c, 4, 72, 105
6, 618000, Note_on_c, 4, 52, 105
6, 618120, Note_on_c, 4, 52, 0
6, 618120, Note_on_c, 4, 72, 0
6, 618120, Note_on_c, 4, 67, 105
6, 618120, Note_on_c, 4, 55, 105
6, 618240, Note_on_c, 4, 55, 0
6, 618240, Note_on_c, 4, 67, 0
6, 618240, Note_on_c, 4, 83, 105
6, 618240, Note_on_c, 4, 62, 105
6, 618360, Note_on_c, 4, 62, 0
6, 618360, Note_on_c, 4, 83, 0
6, 618360, Note_on_c, 4, 77, 105
6, 618360, Note_on_c, 4, 67, 105
6, 618480, Note_on_c, 4, 67, 0
6, 618480, Note_on_c, 4, 77, 0
6, 618480, Note_on_c, 4, 79, 105
6, 618480, Note_on_c, 4, 65, 105
6, 618600, Note_on_c, 4, 65, 0
6, 618600, Note_on_c, 4, 79, 0
6, 618600, Note_on_c, 4, 77, 105
6, 618600, Note_on_c, 4, 67, 105
6, 618720, Note_on_c, 4, 67, 0
6, 618720, Note_on_c, 4, 77, 0
6, 618720, Note_on_c, 4, 84, 105
6, 618720, Note_on_c, 4, 60, 105
6, 618840, Note_on_c, 4, 60, 0
6, 618840, Note_on_c, 4, 84, 0
6, 618840, Note_on_c, 4, 76, 105
6, 618840, Note_on_c, 4, 67, 105
6, 618960, Note_on_c, 4, 67, 0
6, 618960, Note_on_c, 4, 76, 0
6, 618960, Note_on_c, 4, 79, 105
6, 618960, Note_on_c, 4, 64, 105
6, 619080, Note_on_c, 4, 64, 0
6, 619080, Note_on_c, 4, 79, 0
6, 619080, Note_on_c, 4, 76, 105
6, 619080, Note_on_c, 4, 67, 105
6, 619200, Note_on_c, 4, 67, 0
6, 619200, Note_on_c, 4, 76, 0
6, 619200, Note_on_c, 4, 84, 105
6, 619200, Note_on_c, 4, 60, 105
6, 619680, Note_on_c, 4, 60, 0
6, 619680, Note_on_c, 4, 84, 0
6, 625860, Note_on_c, 4, 41, 105
6, 625920, Note_on_c, 4, 41, 0
6, 625920, Note_on_c, 4, 65, 105
6, 625920, Note_on_c, 4, 53, 105
6, 626040, Note_on_c, 4, 65, 0
6, 626040, Note_on_c, 4, 72, 105
6, 626160, Note_on_c, 4, 72, 0
6, 626160, Note_on_c, 4, 69, 105
6, 626280, Note_on_c, 4, 69, 0
6, 626280, Note_on_c, 4, 72, 105
6, 626400, Note_on_c, 4, 72, 0
6, 626400, Note_on_c, 4, 53, 0
6, 626400, Note_on_c, 4, 65, 105
6, 626520, Note_on_c, 4, 65, 0
6, 626520, Note_on_c, 4, 72, 105
6, 626640, Note_on_c, 4, 72, 0
6, 626640, Note_on_c, 4, 69, 105
6, 626760, Note_on_c, 4, 69, 0
6, 626760, Note_on_c, 4, 72, 105
6, 626880, Note_on_c, 4, 72, 0
6, 626880, Note_on_c, 4, 67, 105
6, 627000, Note_on_c, 4, 67, 0
6, 627000, Note_on_c, 4, 72, 105
6, 627120, Note_on_c, 4, 72, 0
6, 627120, Note_on_c, 4, 70, 105
6, 627240, Note_on_c, 4, 70, 0
6, 627240, Note_on_c, 4, 72, 105
6, 627300, Note_on_c, 4, 41, 105
6, 627360, Note_on_c, 4, 41, 0
6, 627360, Note_on_c, 4, 72, 0
6, 627360, Note_on_c, 4, 65, 105
6, 627360, Note_on_c, 4, 53, 105
6, 627480, Note_on_c, 4, 65, 0
6, 627480, Note_on_c, 4, 72, 105
6, 627600, Note_on_c, 4, 72, 0
6, 627600, Note_on_c, 4, 69, 105
6, 627720, Note_on_c, 4, 69, 0
6, 627720, Note_on_c, 4, 72, 105
6, 627840, Note_on_c, 4, 72, 0
6, 627840, Note_on_c, 4, 53, 0
6, 627840, Note_on_c, 4, 65, 105
6, 627960, Note_on_c, 4, 65, 0
6, 627960, Note_on_c, 4, 72, 105
6, 628080, Note_on_c, 4, 72, 0
6, 628080, Note_on_c, 4, 69, 105
6, 628200, Note_on_c, 4, 69, 0
6, 628200, Note_on_c, 4, 72, 105
6, 628320, Note_on_c, 4, 72, 0
6, 628320, Note_on_c, 4, 65, 105
6, 628440, Note_on_c, 4, 65, 0
6, 628440, Note_on_c, 4, 72, 105
6, 628560, Note_on_c, 4, 72, 0
6, 628560, Note_on_c, 4, 69, 105
6, 628680, Note_on_c, 4, 69, 0
6, 628680, Note_on_c, 4, 72, 105
6, 628800, Note_on_c, 4, 72, 0
6, 628800, Note_on_c, 4, 58, 105
6, 628920, Note_on_c, 4, 74, 105
6, 629040, Note_on_c, 4, 74, 0
6, 629040, Note_on_c, 4, 58, 0
6, 629040, Note_on_c, 4, 82, 105
6, 629160, Note_on_c, 4, 82, 0
6, 629160, Note_on_c, 4, 79, 105
6, 629280, Note_on_c, 4, 79, 0
6, 629280, Note_on_c, 4, 60, 105
6, 629400, Note_on_c, 4, 72, 105
6, 629520, Note_on_c, 4, 72, 0
6, 629520, Note_on_c, 4, 60, 0
6, 629520, Note_on_c, 4, 81, 105
6, 629640, Note_on_c, 4, 81, 0
6, 629640, Note_on_c, 4, 77, 105
6, 629760, Note_on_c, 4, 77, 0
6, 629760, Note_on_c, 4, 48, 105
6, 629880, Note_on_c, 4, 70, 105
6, 630000, Note_on_c, 4, 70, 0
6, 630000, Note_on_c, 4, 48, 0
6, 630000, Note_on_c, 4, 79, 105
6, 630120, Note_on_c, 4, 79, 0
6, 630120, Note_on_c, 4, 76, 105
6, 630240, Note_on_c, 4, 76, 0
6, 630240, Note_on_c, 4, 69, 105
6, 630240, Note_on_c, 4, 72, 105
6, 630240, Note_on_c, 4, 77, 105
6, 630240, Note_on_c, 4, 53, 105
6, 630720, Note_on_c, 4, 53, 0
6, 630720, Note_on_c, 4, 69, 0
6, 630720, Note_on_c, 4, 72, 0
6, 630720, Note_on_c, 4, 77, 0
6, 636000, Note_on_c, 4, 53, 105
6, 636120, Note_on_c, 4, 53, 0
6, 636120, Note_on_c, 4, 60, 105
6, 636240, Note_on_c, 4, 60, 0
6, 636240, Note_on_c, 4, 57, 105
6, 636360, Note_on_c, 4, 57, 0
6, 636360, Note_on_c, 4, 60, 105
6, 636480, Note_on_c, 4, 60, 0
6, 636480, Note_on_c, 4, 53, 105
6, 636600, Note_on_c, 4, 53, 0
6, 636600, Note_on_c, 4, 60, 105
6, 636720, Note_on_c, 4, 60, 0
6, 636720, Note_on_c, 4, 57, 105
6, 636840, Note_on_c, 4, 57, 0
6, 636840, Note_on_c, 4, 60, 105
6, 636960, Note_on_c, 4, 60, 0
6, 636960, Note_on_c, 4, 55, 105
6, 637080, Note_on_c, 4, 55, 0
6, 637080, Note_on_c, 4, 60, 105
6, 637200, Note_on_c, 4, 60, 0
6, 637200, Note_on_c, 4, 58, 105
6, 637320, Note_on_c, 4, 58, 0
6, 637320, Note_on_c, 4, 60, 105
6, 637440, Note_on_c, 4, 60, 0
6, 637440, Note_on_c, 4, 72, 105
6, 637440, Note_on_c, 4, 53, 105
6, 637560, Note_on_c, 4, 53, 0
6, 637560, Note_on_c, 4, 60, 105
6, 637680, Note_on_c, 4, 60, 0
6, 637680, Note_on_c, 4, 57, 105
6, 637800, Note_on_c, 4, 57, 0
6, 637800, Note_on_c, 4, 60, 105
6, 637920, Note_on_c, 4, 60, 0
6, 637920, Note_on_c, 4, 53, 105
6, 638000, Note_on_c, 4, 72, 0
6, 638000, Note_on_c, 4, 74, 105
6, 638040, Note_on_c, 4, 53, 0
6, 638040, Note_on_c, 4, 60, 105
6, 638076, Note_on_c, 4, 74, 0
6, 638076, Note_on_c, 4, 76, 105
6, 638160, Note_on_c, 4, 76, 0
6, 638160, Note_on_c, 4, 60, 0
6, 638160, Note_on_c, 4, 77, 105
6, 638160, Note_on_c, 4, 57, 105
6, 638240, Note_on_c, 4, 77, 0
6, 638240, Note_on_c, 4, 79, 105
6, 638280, Note_on_c, 4, 57, 0
6, 638280, Note_on_c, 4, 60, 105
6, 638316, Note_on_c, 4, 79, 0
6, 638316, Note_on_c, 4, 81, 105
6, 638400, Note_on_c, 4, 81, 0
6, 638400, Note_on_c, 4, 60, 0
6, 638400, Note_on_c, 4, 82, 105
6, 638400, Note_on_c, 4, 55, 105
6, 638480, Note_on_c, 4, 82, 0
6, 638480, Note_on_c, 4, 81, 105
6, 638520, Note_on_c, 4, 55, 0
6, 638520, Note_on_c, 4, 60, 105
6, 638556, Note_on_c, 4, 81, 0
6, 638556, Note_on_c, 4, 79, 105
6, 638640, Note_on_c, 4, 79, 0
6, 638640, Note_on_c, 4, 60, 0
6, 638640, Note_on_c, 4, 77, 105
6, 638640, Note_on_c, 4, 58, 105
6, 638720, Note_on_c, 4, 77, 0
6, 638720, Note_on_c, 4, 81, 105
6, 638760, Note_on_c, 4, 58, 0
6, 638760, Note_on_c, 4, 60, 105
6, 638796, Note_on_c, 4, 81, 0
6, 638796, Note_on_c, 4, 76, 105
6, 638880, Note_on_c, 4, 76, 0
6, 638880, Note_on_c, 4, 60, 0
6, 638880, Note_on_c, 4, 77, 105
6, 638880, Note_on_c, 4, 53, 105
6, 639000, Note_on_c, 4, 53, 0
6, 639000, Note_on_c, 4, 60, 105
6, 639120, Note_on_c, 4, 60, 0
6, 639120, Note_on_c, 4, 57, 105
6, 639240, Note_on_c, 4, 57, 0
6, 639240, Note_on_c, 4, 60, 105
6, 639360, Note_on_c, 4, 60, 0
6, 639360, Note_on_c, 4, 77, 0
6, 639360, Note_on_c, 4, 65, 105
6, 639480, Note_on_c, 4, 65, 0
6, 639480, Note_on_c, 4, 72, 105
6, 639600, Note_on_c, 4, 72, 0
6, 639600, Note_on_c, 4, 69, 105
6, 639720, Note_on_c, 4, 69, 0
6, 639720, Note_on_c, 4, 72, 105
6, 639840, Note_on_c, 4, 72, 0
6, 639840, Note_on_c, 4, 67, 105
6, 639960, Note_on_c, 4, 67, 0
6, 639960, Note_on_c, 4, 72, 105
6, 640080, Note_on_c, 4, 72, 0
6, 640080, Note_on_c, 4, 70, 105
6, 640200, Note_on_c, 4, 70, 0
6, 640200, Note_on_c, 4, 72, 105
6, 640260, Note_on_c, 4, 72, 105
6, 640320, Note_on_c, 4, 72, 0
6, 640320, Note_on_c, 4, 72, 0
6, 640320, Note_on_c, 4, 84, 105
6, 640320, Note_on_c, 4, 65, 105
6, 640440, Note_on_c, 4, 65, 0
6, 640440, Note_on_c, 4, 72, 105
6, 640560, Note_on_c, 4, 72, 0
6, 640560, Note_on_c, 4, 69, 105
6, 640680, Note_on_c, 4, 69, 0
6, 640680, Note_on_c, 4, 72, 105
6, 640800, Note_on_c, 4, 72, 0
6, 640800, Note_on_c, 4, 84, 0
6, 640800, Note_on_c, 4, 84, 105
6, 640800, Note_on_c, 4, 65, 105
6, 640920, Note_on_c, 4, 65, 0
6, 640920, Note_on_c, 4, 84, 0
6, 640920, Note_on_c, 4, 84, 105
6, 640920, Note_on_c, 4, 72, 105
6, 641040, Note_on_c, 4, 72, 0
6, 641040, Note_on_c, 4, 84, 0
6, 641040, Note_on_c, 4, 86, 105
6, 641040, Note_on_c, 4, 69, 105
6, 641100, Note_on_c, 4, 86, 0
6, 641100, Note_on_c, 4, 84, 105
6, 641160, Note_on_c, 4, 84, 0
6, 641160, Note_on_c, 4, 69, 0
6, 641160, Note_on_c, 4, 82, 105
6, 641160, Note_on_c, 4, 72, 105
6, 641220, Note_on_c, 4, 82, 0
6, 641220, Note_on_c, 4, 84, 105
6, 641280, Note_on_c, 4, 84, 0
6, 641280, Note_on_c, 4, 72, 0
6, 641280, Note_on_c, 4, 88, 105
6, 641280, Note_on_c, 4, 67, 105
6, 641400, Note_on_c, 4, 67, 0
6, 641400, Note_on_c, 4, 88, 0
6, 641400, Note_on_c, 4, 88, 105
6, 641400, Note_on_c, 4, 72, 105
6, 641520, Note_on_c, 4, 72, 0
6, 641520, Note_on_c, 4, 88, 0
6, 641520, Note_on_c, 4, 89, 105
6, 641520, Note_on_c, 4, 70, 105
6, 641580, Note_on_c, 4, 89, 0
6, 641580, Note_on_c, 4, 88, 105
6, 641640, Note_on_c, 4, 88, 0
6, 641640, Note_on_c, 4, 70, 0
6, 641640, Note_on_c, 4, 86, 105
6, 641640, Note_on_c, 4, 72, 105
6, 641700, Note_on_c, 4, 86, 0
6, 641700, Note_on_c, 4, 88, 105
6, 641760, Note_on_c, 4, 88, 0
6, 641760, Note_on_c, 4, 72, 0
6, 641760, Note_on_c, 4, 89, 105
6, 641760, Note_on_c, 4, 65, 105
6, 641760, Note_on_c, 4, 69, 105
6, 641760, Note_on_c, 4, 72, 105
6, 642240, Note_on_c, 4, 72, 0
6, 642240, Note_on_c, 4, 89, 0
6, 642240, Note_on_c, 4, 65, 0
6, 642240, Note_on_c, 4, 69, 0
6, 646080, Note_on_c, 4, 69, 105
6, 646080, Note_on_c, 4, 72, 105
6, 646160, Note_on_c, 4, 77, 105
6, 646236, Note_on_c, 4, 77, 0
6, 646236, Note_on_c, 4, 89, 105
6, 646320, Note_on_c, 4, 89, 0
6, 646320, Note_on_c, 4, 72, 0
6, 646320, Note_on_c, 4, 69, 0
6, 646320, Note_on_c, 4, 67, 105
6, 646320, Note_on_c, 4, 70, 105
6, 646400, Note_on_c, 4, 76, 105
6, 646476, Note_on_c, 4, 76, 0
6, 646476, Note_on_c, 4, 88, 105
6, 646560, Note_on_c, 4, 88, 0
6, 646560, Note_on_c, 4, 70, 0
6, 646560, Note_on_c, 4, 67, 0
6, 646560, Note_on_c, 4, 65, 105
6, 646560, Note_on_c, 4, 69, 105
6, 646640, Note_on_c, 4, 74, 105
6, 646716, Note_on_c, 4, 74, 0
6, 646716, Note_on_c, 4, 86, 105
6, 646800, Note_on_c, 4, 86, 0
6, 646800, Note_on_c, 4, 69, 0
6, 646800, Note_on_c, 4, 65, 0
6, 646800, Note_on_c, 4, 64, 105
6, 646800, Note_on_c, 4, 67, 105
6, 646880, Note_on_c, 4, 72, 105
6, 646956, Note_on_c, 4, 72, 0
6, 646956, Note_on_c, 4, 84, 105
6, 647040, Note_on_c, 4, 84, 0
6, 647040, Note_on_c, 4, 67, 0
6, 647040, Note_on_c, 4, 64, 0
6, 647040, Note_on_c, 4, 62, 105
6, 647040, Note_on_c, 4, 65, 105
6, 647120, Note_on_c, 4, 70, 105
6, 647196, Note_on_c, 4, 70, 0
6, 647196, Note_on_c, 4, 82, 105
6, 647280, Note_on_c, 4, 82, 0
6, 647280, Note_on_c, 4, 65, 0
6, 647280, Note_on_c, 4, 62, 0
6, 647280, Note_on_c, 4, 60, 105
6, 647280, Note_on_c, 4, 64, 105
6, 647360, Note_on_c, 4, 69, 105
6, 647436, Note_on_c, 4, 69, 0
6, 647436, Note_on_c, 4, 81, 105
6, 647520, Note_on_c, 4, 81, 0
6, 647520, Note_on_c, 4, 64, 0
6, 647520, Note_on_c, 4, 60, 0
6, 647520, Note_on_c, 4, 67, 105
6, 647520, Note_on_c, 4, 58, 105
6, 647520, Note_on_c, 4, 62, 105
6, 647640, Note_on_c, 4, 67, 0
6, 647640, Note_on_c, 4, 69, 105
6, 647700, Note_on_c, 4, 69, 0
6, 647700, Note_on_c, 4, 70, 105
6, 647760, Note_on_c, 4, 70, 0
6, 647760, Note_on_c, 4, 72, 105
6, 647820, Note_on_c, 4, 72, 0
6, 647820, Note_on_c, 4, 74, 105
6, 647880, Note_on_c, 4, 74, 0
6, 647880, Note_on_c, 4, 76, 105
6, 647940, Note_on_c, 4, 76, 0
6, 647940, Note_on_c, 4, 78, 105
6, 648000, Note_on_c, 4, 78, 0
6, 648000, Note_on_c, 4, 62, 0
6, 648000, Note_on_c, 4, 58, 0
6, 648000, Note_on_c, 4, 79, 105
6, 648000, Note_on_c, 4, 58, 105
6, 648000, Note_on_c, 4, 62, 105
6, 648060, Note_on_c, 4, 79, 0
6, 648060, Note_on_c, 4, 74, 105
6, 648120, Note_on_c, 4, 74, 0
6, 648120, Note_on_c, 4, 76, 105
6, 648180, Note_on_c, 4, 76, 0
6, 648180, Note_on_c, 4, 78, 105
6, 648240, Note_on_c, 4, 78, 0
6, 648240, Note_on_c, 4, 79, 105
6, 648300, Note_on_c, 4, 79, 0
6, 648300, Note_on_c, 4, 81, 105
6, 648360, Note_on_c, 4, 81, 0
6, 648360, Note_on_c, 4, 82, 105
6, 648420, Note_on_c, 4, 82, 0
6, 648420, Note_on_c, 4, 84, 105
6, 648480, Note_on_c, 4, 84, 0
6, 648480, Note_on_c, 4, 62, 0
6, 648480, Note_on_c, 4, 58, 0
6, 648480, Note_on_c, 4, 86, 105
6, 648480, Note_on_c, 4, 58, 105
6, 648480, Note_on_c, 4, 62, 105
6, 648560, Note_on_c, 4, 86, 0
6, 648560, Note_on_c, 4, 82, 105
6, 648636, Note_on_c, 4, 82, 0
6, 648636, Note_on_c, 4, 79, 105
6, 648720, Note_on_c, 4, 79, 0
6, 648720, Note_on_c, 4, 62, 0
6, 648720, Note_on_c, 4, 58, 0
6, 648720, Note_on_c, 4, 86, 105
6, 648720, Note_on_c, 4, 58, 105
6, 648720, Note_on_c, 4, 64, 105
6, 648800, Note_on_c, 4, 86, 0
6, 648800, Note_on_c, 4, 82, 105
6, 648876, Note_on_c, 4, 82, 0
6, 648876, Note_on_c, 4, 79, 105
6, 648960, Note_on_c, 4, 79, 0
6, 648960, Note_on_c, 4, 64, 0
6, 648960, Note_on_c, 4, 58, 0
6, 648960, Note_on_c, 4, 86, 105
6, 648960, Note_on_c, 4, 57, 105
6, 648960, Note_on_c, 4, 65, 105
6, 649020, Note_on_c, 4, 86, 0
6, 649020, Note_on_c, 4, 84, 105
6, 649080, Note_on_c, 4, 84, 0
6, 649080, Note_on_c, 4, 86, 105
6, 649108, Note_on_c, 4, 86, 0
6, 649108, Note_on_c, 4, 84, 105
6, 649140, Note_on_c, 4, 84, 0
6, 649140, Note_on_c, 4, 86, 105
6, 649168, Note_on_c, 4, 86, 0
6, 649168, Note_on_c, 4, 84, 105
6, 649200, Note_on_c, 4, 84, 0
6, 649200, Note_on_c, 4, 65, 0
6, 649200, Note_on_c, 4, 57, 0
6, 649200, Note_on_c, 4, 86, 105
6, 649200, Note_on_c, 4, 57, 105
6, 649200, Note_on_c, 4, 65, 105
6, 649228, Note_on_c, 4, 86, 0
6, 649228, Note_on_c, 4, 84, 105
6, 649260, Note_on_c, 4, 84, 0
6, 649260, Note_on_c, 4, 86, 105
6, 649288, Note_on_c, 4, 86, 0
6, 649288, Note_on_c, 4, 84, 105
6, 649320, Note_on_c, 4, 84, 0
6, 649320, Note_on_c, 4, 82, 105
6, 649380, Note_on_c, 4, 82, 0
6, 649380, Note_on_c, 4, 84, 105
6, 649440, Note_on_c, 4, 84, 0
6, 649440, Note_on_c, 4, 65, 0
6, 649440, Note_on_c, 4, 57, 0
6, 649440, Note_on_c, 4, 86, 105
6, 649440, Note_on_c, 4, 58, 105
6, 649440, Note_on_c, 4, 65, 105
6, 649484, Note_on_c, 4, 86, 0
6, 649560, Note_on_c, 4, 84, 105
6, 649680, Note_on_c, 4, 84, 0
6, 649680, Note_on_c, 4, 65, 0
6, 649680, Note_on_c, 4, 58, 0
6, 649680, Note_on_c, 4, 84, 105
6, 649680, Note_on_c, 4, 58, 105
6, 649680, Note_on_c, 4, 65, 105
6, 649708, Note_on_c, 4, 84, 0
6, 649708, Note_on_c, 4, 82, 105
6, 649740, Note_on_c, 4, 82, 0
6, 649740, Note_on_c, 4, 84, 105
6, 649768, Note_on_c, 4, 84, 0
6, 649768, Note_on_c, 4, 82, 105
6, 649800, Note_on_c, 4, 82, 0
6, 649800, Note_on_c, 4, 81, 105
6, 649920, Note_on_c, 4, 81, 0
6, 649920, Note_on_c, 4, 65, 0
6, 649920, Note_on_c, 4, 58, 0
6, 649920, Note_on_c, 4, 81, 105
6, 649920, Note_on_c, 4, 58, 105
6, 649920, Note_on_c, 4, 62, 105
6, 649948, Note_on_c, 4, 81, 0
6, 649948, Note_on_c, 4, 79, 105
6, 649980, Note_on_c, 4, 79, 0
6, 649980, Note_on_c, 4, 81, 105
6, 650008, Note_on_c, 4, 81, 0
6, 650008, Note_on_c, 4, 79, 105
6, 650040, Note_on_c, 4, 79, 0
6, 650040, Note_on_c, 4, 77, 105
6, 650160, Note_on_c, 4, 77, 0
6, 650160, Note_on_c, 4, 62, 0
6, 650160, Note_on_c, 4, 58, 0
6, 650160, Note_on_c, 4, 77, 105
6, 650160, Note_on_c, 4, 58, 105
6, 650160, Note_on_c, 4, 62, 105
6, 650188, Note_on_c, 4, 77, 0
6, 650188, Note_on_c, 4, 76, 105
6, 650220, Note_on_c, 4, 76, 0
6, 650220, Note_on_c, 4, 77, 105
6, 650248, Note_on_c, 4, 77, 0
6, 650248, Note_on_c, 4, 76, 105
6, 650280, Note_on_c, 4, 76, 0
6, 650280, Note_on_c, 4, 74, 105
6, 650400, Note_on_c, 4, 74, 0
6, 650400, Note_on_c, 4, 62, 0
6, 650400, Note_on_c, 4, 58, 0
6, 650400, Note_on_c, 4, 72, 105
6, 650400, Note_on_c, 4, 48, 105
6, 650480, Note_on_c, 4, 48, 0
6, 650480, Note_on_c, 4, 53, 105
6, 650556, Note_on_c, 4, 53, 0
6, 650556, Note_on_c, 4, 57, 105
6, 650640, Note_on_c, 4, 57, 0
6, 650640, Note_on_c, 4, 72, 0
6, 650640, Note_on_c, 4, 89, 105
6, 650640, Note_on_c, 4, 60, 105
6, 650720, Note_on_c, 4, 60, 0
6, 650720, Note_on_c, 4, 53, 105
6, 650796, Note_on_c, 4, 53, 0
6, 650796, Note_on_c, 4, 57, 105
6, 650880, Note_on_c, 4, 57, 0
6, 650880, Note_on_c, 4, 89, 0
6, 650880, Note_on_c, 4, 84, 105
6, 650880, Note_on_c, 4, 48, 105
6, 650960, Note_on_c, 4, 48, 0
6, 650960, Note_on_c, 4, 53, 105
6, 651036, Note_on_c, 4, 53, 0
6, 651036, Note_on_c, 4, 57, 105
6, 651120, Note_on_c, 4, 57, 0
6, 651120, Note_on_c, 4, 84, 0
6, 651120, Note_on_c, 4, 81, 105
6, 651120, Note_on_c, 4, 60, 105
6, 651200, Note_on_c, 4, 60, 0
6, 651200, Note_on_c, 4, 53, 105
6, 651276, Note_on_c, 4, 53, 0
6, 651276, Note_on_c, 4, 57, 105
6, 651360, Note_on_c, 4, 57, 0
6, 651360, Note_on_c, 4, 81, 0
6, 651360, Note_on_c, 4, 77, 105
6, 651360, Note_on_c, 4, 48, 105
6, 651440, Note_on_c, 4, 48, 0
6, 651440, Note_on_c, 4, 53, 105
6, 651516, Note_on_c, 4, 53, 0
6, 651516, Note_on_c, 4, 57, 105
6, 651600, Note_on_c, 4, 57, 0
6, 651600, Note_on_c, 4, 77, 0
6, 651600, Note_on_c, 4, 72, 105
6, 651600, Note_on_c, 4, 60, 105
6, 651680, Note_on_c, 4, 60, 0
6, 651680, Note_on_c, 4, 53, 105
6, 651756, Note_on_c, 4, 53, 0
6, 651756, Note_on_c, 4, 57, 105
6, 651840, Note_on_c, 4, 57, 0
6, 651840, Note_on_c, 4, 72, 0
6, 651840, Note_on_c, 4, 77, 105
6, 651840, Note_on_c, 4, 48, 105
6, 651920, Note_on_c, 4, 48, 0
6, 651920, Note_on_c, 4, 52, 105
6, 651960, Note_on_c, 4, 77, 0
6, 651960, Note_on_c, 4, 76, 105
6, 651996, Note_on_c, 4, 52, 0
6, 651996, Note_on_c, 4, 55, 105
6, 652080, Note_on_c, 4, 55, 0
6, 652080, Note_on_c, 4, 76, 0
6, 652080, Note_on_c, 4, 77, 105
6, 652080, Note_on_c, 4, 58, 105
6, 652140, Note_on_c, 4, 77, 0
6, 652140, Note_on_c, 4, 76, 105
6, 652160, Note_on_c, 4, 58, 0
6, 652160, Note_on_c, 4, 52, 105
6, 652200, Note_on_c, 4, 76, 0
6, 652200, Note_on_c, 4, 77, 105
6, 652236, Note_on_c, 4, 52, 0
6, 652236, Note_on_c, 4, 55, 105
6, 652260, Note_on_c, 4, 77, 0
6, 652260, Note_on_c, 4, 76, 105
6, 652320, Note_on_c, 4, 76, 0
6, 652320, Note_on_c, 4, 55, 0
6, 652320, Note_on_c, 4, 77, 105
6, 652320, Note_on_c, 4, 48, 105
6, 652348, Note_on_c, 4, 77, 0
6, 652348, Note_on_c, 4, 76, 105
6, 652380, Note_on_c, 4, 76, 0
6, 652380, Note_on_c, 4, 77, 105
6, 652400, Note_on_c, 4, 48, 0
6, 652400, Note_on_c, 4, 52, 105
6, 652408, Note_on_c, 4, 77, 0
6, 652408, Note_on_c, 4, 76, 105
6, 652440, Note_on_c, 4, 76, 0
6, 652440, Note_on_c, 4, 77, 105
6, 652468, Note_on_c, 4, 77, 0
6, 652468, Note_on_c, 4, 76, 105
6, 652476, Note_on_c, 4, 52, 0
6, 652476, Note_on_c, 4, 55, 105
6, 652500, Note_on_c, 4, 76, 0
6, 652500, Note_on_c, 4, 77, 105
6, 652528, Note_on_c, 4, 77, 0
6, 652528, Note_on_c, 4, 76, 105
6, 652560, Note_on_c, 4, 76, 0
6, 652560, Note_on_c, 4, 55, 0
6, 652560, Note_on_c, 4, 77, 105
6, 652560, Note_on_c, 4, 58, 105
6, 652588, Note_on_c, 4, 77, 0
6, 652588, Note_on_c, 4, 76, 105
6, 652620, Note_on_c, 4, 76, 0
6, 652620, Note_on_c, 4, 77, 105
6, 652640, Note_on_c, 4, 58, 0
6, 652640, Note_on_c, 4, 52, 105
6, 652648, Note_on_c, 4, 77, 0
6, 652648, Note_on_c, 4, 76, 105
6, 652680, Note_on_c, 4, 76, 0
6, 652680, Note_on_c, 4, 77, 105
6, 652708, Note_on_c, 4, 77, 0
6, 652708, Note_on_c, 4, 76, 105
6, 652716, Note_on_c, 4, 52, 0
6, 652716, Note_on_c, 4, 55, 105
6, 652740, Note_on_c, 4, 76, 0
6, 652740, Note_on_c, 4, 77, 105
6, 652768, Note_on_c, 4, 77, 0
6, 652768, Note_on_c, 4, 76, 105
6, 652800, Note_on_c, 4, 76, 0
6, 652800, Note_on_c, 4, 55, 0
6, 652800, Note_on_c, 4, 77, 105
6, 652800, Note_on_c, 4, 48, 105
6, 652828, Note_on_c, 4, 77, 0
6, 652828, Note_on_c, 4, 76, 105
6, 652860, Note_on_c, 4, 76, 0
6, 652860, Note_on_c, 4, 77, 105
6, 652880, Note_on_c, 4, 48, 0
6, 652880, Note_on_c, 4, 52, 105
6, 652888, Note_on_c, 4, 77, 0
6, 652888, Note_on_c, 4, 76, 105
6, 652920, Note_on_c, 4, 76, 0
6, 652920, Note_on_c, 4, 77, 105
6, 652948, Note_on_c, 4, 77, 0
6, 652948, Note_on_c, 4, 76, 105
6, 652956, Note_on_c, 4, 52, 0
6, 652956, Note_on_c, 4, 55, 105
6, 652980, Note_on_c, 4, 76, 0
6, 652980, Note_on_c, 4, 77, 105
6, 653008, Note_on_c, 4, 77, 0
6, 653008, Note_on_c, 4, 76, 105
6, 653040, Note_on_c, 4, 76, 0
6, 653040, Note_on_c, 4, 55, 0
6, 653040, Note_on_c, 4, 77, 105
6, 653040, Note_on_c, 4, 58, 105
6, 653068, Note_on_c, 4, 77, 0
6, 653068, Note_on_c, 4, 76, 105
6, 653100, Note_on_c, 4, 76, 0
6, 653100, Note_on_c, 4, 77, 105
6, 653120, Note_on_c, 4, 58, 0
6, 653120, Note_on_c, 4, 52, 105
6, 653128, Note_on_c, 4, 77, 0
6, 653128, Note_on_c, 4, 76, 105
6, 653160, Note_on_c, 4, 76, 0
6, 653160, Note_on_c, 4, 74, 105
6, 653196, Note_on_c, 4, 52, 0
6, 653196, Note_on_c, 4, 55, 105
6, 653220, Note_on_c, 4, 74, 0
6, 653220, Note_on_c, 4, 76, 105
6, 653280, Note_on_c, 4, 76, 0
6, 653280, Note_on_c, 4, 55, 0
6, 653280, Note_on_c, 4, 77, 105
6, 653280, Note_on_c, 4, 53, 105
6, 653280, Note_on_c, 4, 57, 105
6, 653760, Note_on_c, 4, 57, 0
6, 653760, Note_on_c, 4, 53, 0
6, 653760, Note_on_c, 4, 77, 0
6, 656400, Note_on_c, 4, 45, 105
6, 656400, Note_on_c, 4, 57, 105
6, 656640, Note_on_c, 4, 57, 0
6, 656640, Note_on_c, 4, 45, 0
6, 656640, Note_on_c, 4, 77, 105
6, 656640, Note_on_c, 4, 81, 105
6, 656640, Note_on_c, 4, 46, 105
6, 656640, Note_on_c, 4, 58, 105
6, 656880, Note_on_c, 4, 58, 0
6, 656880, Note_on_c, 4, 77, 0
6, 656880, Note_on_c, 4, 81, 0
6, 656880, Note_on_c, 4, 46, 0
6, 656880, Note_on_c, 4, 77, 105
6, 656880, Note_on_c, 4, 81, 105
6, 656880, Note_on_c, 4, 48, 105
6, 656880, Note_on_c, 4, 60, 105
6, 657120, Note_on_c, 4, 60, 0
6, 657120, Note_on_c, 4, 77, 0
6, 657120, Note_on_c, 4, 81, 0
6, 657120, Note_on_c, 4, 48, 0
6, 657120, Note_on_c, 4, 77, 105
6, 657120, Note_on_c, 4, 81, 105
6, 657120, Note_on_c, 4, 50, 105
6, 657120, Note_on_c, 4, 62, 105
6, 657360, Note_on_c, 4, 62, 0
6, 657360, Note_on_c, 4, 77, 0
6, 657360, Note_on_c, 4, 81, 0
6, 657360, Note_on_c, 4, 50, 0
6, 657360, Note_on_c, 4, 77, 105
6, 657360, Note_on_c, 4, 81, 105
6, 657360, Note_on_c, 4, 47, 105
6, 657360, Note_on_c, 4, 59, 105
6, 657600, Note_on_c, 4, 59, 0
6, 657600, Note_on_c, 4, 77, 0
6, 657600, Note_on_c, 4, 81, 0
6, 657600, Note_on_c, 4, 47, 0
6, 657600, Note_on_c, 4, 77, 105
6, 657600, Note_on_c, 4, 81, 105
6, 657600, Note_on_c, 4, 48, 105
6, 657600, Note_on_c, 4, 60, 105
6, 658304, Note_on_c, 4, 81, 0
6, 658304, Note_on_c, 4, 77, 0
6, 658320, Note_on_c, 4, 48, 0
6, 658320, Note_on_c, 4, 60, 0
6, 658440, Note_on_c, 4, 77, 105
6, 658500, Note_on_c, 4, 77, 0
6, 658500, Note_on_c, 4, 77, 105
6, 658560, Note_on_c, 4, 77, 0
6, 658560, Note_on_c, 4, 76, 105
6, 658560, Note_on_c, 4, 48, 105
6, 658560, Note_on_c, 4, 52, 105
6, 658560, Note_on_c, 4, 55, 105
6, 658560, Note_on_c, 4, 58, 105
6, 658620, Note_on_c, 4, 76, 0
6, 658620, Note_on_c, 4, 77, 105
6, 658648, Note_on_c, 4, 77, 0
6, 658648, Note_on_c, 4, 76, 105
6, 658680, Note_on_c, 4, 76, 0
6, 658680, Note_on_c, 4, 77, 105
6, 658708, Note_on_c, 4, 77, 0
6, 658708, Note_on_c, 4, 76, 105
6, 658740, Note_on_c, 4, 76, 0
6, 658740, Note_on_c, 4, 77, 105
6, 658768, Note_on_c, 4, 77, 0
6, 658768, Note_on_c, 4, 76, 105
6, 658800, Note_on_c, 4, 76, 0
6, 658800, Note_on_c, 4, 77, 105
6, 658828, Note_on_c, 4, 77, 0
6, 658828, Note_on_c, 4, 76, 105
6, 658860, Note_on_c, 4, 76, 0
6, 658860, Note_on_c, 4, 77, 105
6, 658888, Note_on_c, 4, 77, 0
6, 658888, Note_on_c, 4, 76, 105
6, 658920, Note_on_c, 4, 76, 0
6, 658920, Note_on_c, 4, 74, 105
6, 658980, Note_on_c, 4, 74, 0
6, 658980, Note_on_c, 4, 76, 105
6, 659040, Note_on_c, 4, 76, 0
6, 659040, Note_on_c, 4, 55, 0
6, 659040, Note_on_c, 4, 48, 0
6, 659040, Note_on_c, 4, 52, 0
6, 659040, Note_on_c, 4, 58, 0
6, 659040, Note_on_c, 4, 77, 105
6, 659040, Note_on_c, 4, 53, 105
6, 659040, Note_on_c, 4, 57, 105
6, 659520, Note_on_c, 4, 57, 0
6, 659520, Note_on_c, 4, 53, 0
6, 659520, Note_on_c, 4, 77, 0
6, 660480, Note_on_c, 4, 36, 105
6, 660540, Note_on_c, 4, 36, 0
6, 660540, Note_on_c, 4, 40, 105
6, 660600, Note_on_c, 4, 40, 0
6, 660600, Note_on_c, 4, 43, 105
6, 660660, Note_on_c, 4, 43, 0
6, 660660, Note_on_c, 4, 46, 105
6, 660720, Note_on_c, 4, 46, 0
6, 660720, Note_on_c, 4, 60, 105
6, 660780, Note_on_c, 4, 60, 0
6, 660780, Note_on_c, 4, 64, 105
6, 660840, Note_on_c, 4, 64, 0
6, 660840, Note_on_c, 4, 67, 105
6, 660900, Note_on_c, 4, 67, 0
6, 660900, Note_on_c, 4, 70, 105
6, 660960, Note_on_c, 4, 70, 0
6, 660960, Note_on_c, 4, 48, 105
6, 661020, Note_on_c, 4, 48, 0
6, 661020, Note_on_c, 4, 52, 105
6, 661080, Note_on_c, 4, 52, 0
6, 661080, Note_on_c, 4, 55, 105
6, 661140, Note_on_c, 4, 55, 0
6, 661140, Note_on_c, 4, 58, 105
6, 661200, Note_on_c, 4, 58, 0
6, 661200, Note_on_c, 4, 67, 105
6, 661260, Note_on_c, 4, 67, 0
6, 661260, Note_on_c, 4, 70, 105
6, 661320, Note_on_c, 4, 70, 0
6, 661320, Note_on_c, 4, 72, 105
6, 661380, Note_on_c, 4, 72, 0
6, 661380, Note_on_c, 4, 76, 105
6, 661440, Note_on_c, 4, 76, 0
6, 661440, Note_on_c, 4, 65, 105
6, 661440, Note_on_c, 4, 77, 105
6, 661440, Note_on_c, 4, 53, 105
6, 661680, Note_on_c, 4, 53, 0
6, 661680, Note_on_c, 4, 77, 0
6, 661680, Note_on_c, 4, 65, 0
6, 665188, Note_on_c, 4, 65, 105
6, 665188, Note_on_c, 4, 50, 105
6, 665220, Note_on_c, 4, 69, 105
6, 665220, Note_on_c, 4, 53, 105
6, 665248, Note_on_c, 4, 74, 105
6, 665248, Note_on_c, 4, 57, 105
6, 665280, Note_on_c, 4, 77, 105
6, 665280, Note_on_c, 4, 62, 105
6, 665668, Note_on_c, 4, 67, 105
6, 665668, Note_on_c, 4, 46, 105
6, 665700, Note_on_c, 4, 70, 105
6, 665700, Note_on_c, 4, 50, 105
6, 665728, Note_on_c, 4, 74, 105
6, 665728, Note_on_c, 4, 55, 105
6, 665760, Note_on_c, 4, 74, 0
6, 665760, Note_on_c, 4, 77, 0
6, 665760, Note_on_c, 4, 57, 0
6, 665760, Note_on_c, 4, 65, 0
6, 665760, Note_on_c, 4, 69, 0
6, 665760, Note_on_c, 4, 50, 0
6, 665760, Note_on_c, 4, 62, 0
6, 665760, Note_on_c, 4, 53, 0
6, 665760, Note_on_c, 4, 77, 105
6, 665760, Note_on_c, 4, 58, 105
6, 666240, Note_on_c, 4, 58, 0
6, 666240, Note_on_c, 4, 55, 0
6, 666240, Note_on_c, 4, 50, 0
6, 666240, Note_on_c, 4, 74, 0
6, 666240, Note_on_c, 4, 70, 0
6, 666240, Note_on_c, 4, 46, 0
6, 666240, Note_on_c, 4, 67, 0
6, 666240, Note_on_c, 4, 77, 0
6, 666628, Note_on_c, 4, 64, 105
6, 666628, Note_on_c, 4, 48, 105
6, 666660, Note_on_c, 4, 67, 105
6, 666660, Note_on_c, 4, 52, 105
6, 666688, Note_on_c, 4, 72, 105
6, 666688, Note_on_c, 4, 55, 105
6, 666720, Note_on_c, 4, 76, 105
6, 666720, Note_on_c, 4, 60, 105
6, 667108, Note_on_c, 4, 65, 105
6, 667108, Note_on_c, 4, 45, 105
6, 667140, Note_on_c, 4, 69, 105
6, 667140, Note_on_c, 4, 48, 105
6, 667168, Note_on_c, 4, 72, 105
6, 667168, Note_on_c, 4, 53, 105
6, 667200, Note_on_c, 4, 72, 0
6, 667200, Note_on_c, 4, 76, 0
6, 667200, Note_on_c, 4, 55, 0
6, 667200, Note_on_c, 4, 64, 0
6, 667200, Note_on_c, 4, 67, 0
6, 667200, Note_on_c, 4, 48, 0
6, 667200, Note_on_c, 4, 60, 0
6, 667200, Note_on_c, 4, 52, 0
6, 667200, Note_on_c, 4, 76, 105
6, 667200, Note_on_c, 4, 57, 105
6, 667680, Note_on_c, 4, 57, 0
6, 667680, Note_on_c, 4, 53, 0
6, 667680, Note_on_c, 4, 48, 0
6, 667680, Note_on_c, 4, 72, 0
6, 667680, Note_on_c, 4, 69, 0
6, 667680, Note_on_c, 4, 45, 0
6, 667680, Note_on_c, 4, 65, 0
6, 667680, Note_on_c, 4, 76, 0
6, 668068, Note_on_c, 4, 62, 105
6, 668068, Note_on_c, 4, 46, 105
6, 668100, Note_on_c, 4, 65, 105
6, 668100, Note_on_c, 4, 50, 105
6, 668128, Note_on_c, 4, 70, 105
6, 668128, Note_on_c, 4, 53, 105
6, 668160, Note_on_c, 4, 74, 105
6, 668160, Note_on_c, 4, 58, 105
6, 668548, Note_on_c, 4, 62, 105
6, 668548, Note_on_c, 4, 43, 105
6, 668580, Note_on_c, 4, 67, 105
6, 668580, Note_on_c, 4, 46, 105
6, 668608, Note_on_c, 4, 70, 105
6, 668608, Note_on_c, 4, 50, 105
6, 668640, Note_on_c, 4, 50, 0
6, 668640, Note_on_c, 4, 65, 0
6, 668640, Note_on_c, 4, 53, 0
6, 668640, Note_on_c, 4, 58, 0
6, 668640, Note_on_c, 4, 74, 0
6, 668640, Note_on_c, 4, 70, 0
6, 668640, Note_on_c, 4, 62, 0
6, 668640, Note_on_c, 4, 46, 0
6, 668640, Note_on_c, 4, 74, 105
6, 668640, Note_on_c, 4, 55, 105
6, 669120, Note_on_c, 4, 55, 0
6, 669120, Note_on_c, 4, 46, 0
6, 669120, Note_on_c, 4, 62, 0
6, 669120, Note_on_c, 4, 50, 0
6, 669120, Note_on_c, 4, 67, 0
6, 669120, Note_on_c, 4, 43, 0
6, 669120, Note_on_c, 4, 70, 0
6, 669120, Note_on_c, 4, 74, 0
6, 670505, Note_on_c, 4, 46, 95
6, 670530, Note_on_c, 4, 58, 96
6, 670540, Note_on_c, 4, 62, 100
6, 670550, Note_on_c, 4, 65, 100
6, 670560, Note_on_c, 4, 67, 102
6, 670580, Note_on_c, 4, 70, 105
6, 670985, Note_on_c, 4, 46, 0
6, 670990, Note_on_c, 4, 48, 93
6, 671010, Note_on_c, 4, 58, 0
6, 671010, Note_on_c, 4, 57, 98
6, 671020, Note_on_c, 4, 62, 0
6, 671024, Note_on_c, 4, 70, 0
6, 671030, Note_on_c, 4, 65, 0
6, 671030, Note_on_c, 4, 60, 101
6, 671040, Note_on_c, 4, 67, 0
6, 671040, Note_on_c, 4, 65, 105
6, 671065, Note_on_c, 4, 69, 112
6, 671459, Note_on_c, 4, 60, 0
6, 671470, Note_on_c, 4, 48, 0
6, 671475, Note_on_c, 4, 48, 89
6, 671490, Note_on_c, 4, 57, 0
6, 671490, Note_on_c, 4, 58, 91
6, 671499, Note_on_c, 4, 65, 0
6, 671504, Note_on_c, 4, 69, 0
6, 671510, Note_on_c, 4, 60, 96
6, 671520, Note_on_c, 4, 64, 96
6, 671550, Note_on_c, 4, 67, 101
6, 671955, Note_on_c, 4, 48, 0
6, 671970, Note_on_c, 4, 58, 0
6, 671974, Note_on_c, 4, 64, 0
6, 671975, Note_on_c, 4, 57, 89
6, 671984, Note_on_c, 4, 67, 0
6, 671990, Note_on_c, 4, 60, 0
6, 672000, Note_on_c, 4, 60, 96
6, 672000, Note_on_c, 4, 41, 96
6, 672025, Note_on_c, 4, 65, 102
6, 672455, Note_on_c, 4, 57, 0
6, 672480, Note_on_c, 4, 60, 0
6, 672480, Note_on_c, 4, 41, 0
6, 672505, Note_on_c, 4, 65, 0
6, 673440, Note_on_c, 4, 50, 89
6, 673500, Note_on_c, 4, 50, 0
6, 673500, Note_on_c, 4, 53, 89
6, 673560, Note_on_c, 4, 53, 0
6, 673560, Note_on_c, 4, 58, 89
6, 673620, Note_on_c, 4, 58, 0
6, 673620, Note_on_c, 4, 62, 93
6, 673680, Note_on_c, 4, 62, 0
6, 673680, Note_on_c, 4, 65, 98
6, 673740, Note_on_c, 4, 65, 0
6, 673740, Note_on_c, 4, 70, 100
6, 673800, Note_on_c, 4, 70, 0
6, 673800, Note_on_c, 4, 65, 99
6, 673860, Note_on_c, 4, 65, 0
6, 673860, Note_on_c, 4, 62, 90
6, 673920, Note_on_c, 4, 62, 0
6, 673920, Note_on_c, 4, 48, 88
6, 673980, Note_on_c, 4, 48, 0
6, 673980, Note_on_c, 4, 53, 93
6, 674040, Note_on_c, 4, 53, 0
6, 674040, Note_on_c, 4, 57, 96
6, 674100, Note_on_c, 4, 57, 0
6, 674100, Note_on_c, 4, 60, 100
6, 674160, Note_on_c, 4, 60, 0
6, 674160, Note_on_c, 4, 65, 99
6, 674220, Note_on_c, 4, 65, 0
6, 674220, Note_on_c, 4, 69, 99
6, 674280, Note_on_c, 4, 69, 0
6, 674280, Note_on_c, 4, 65, 97
6, 674340, Note_on_c, 4, 65, 0
6, 674340, Note_on_c, 4, 60, 90
6, 674400, Note_on_c, 4, 60, 0
6, 674400, Note_on_c, 4, 48, 87
6, 674460, Note_on_c, 4, 48, 0
6, 674460, Note_on_c, 4, 55, 89
6, 674520, Note_on_c, 4, 55, 0
6, 674520, Note_on_c, 4, 58, 93
6, 674580, Note_on_c, 4, 58, 0
6, 674580, Note_on_c, 4, 60, 95
6, 674640, Note_on_c, 4, 60, 0
6, 674640, Note_on_c, 4, 64, 96
6, 674700, Note_on_c, 4, 64, 0
6, 674700, Note_on_c, 4, 67, 96
6, 674760, Note_on_c, 4, 67, 0
6, 674760, Note_on_c, 4, 64, 97
6, 674820, Note_on_c, 4, 64, 0
6, 674820, Note_on_c, 4, 60, 97
6, 674880, Note_on_c, 4, 60, 0
6, 674880, Note_on_c, 4, 65, 97
6, 674880, Note_on_c, 4, 53, 97
6, 675000, Note_on_c, 4, 65, 0
6, 675000, Note_on_c, 4, 72, 97
6, 675120, Note_on_c, 4, 72, 0
6, 675120, Note_on_c, 4, 69, 79
6, 675240, Note_on_c, 4, 69, 0
6, 675240, Note_on_c, 4, 72, 79
6, 675360, Note_on_c, 4, 72, 0
6, 675360, Note_on_c, 4, 53, 0
6, 675360, Note_on_c, 4, 65, 79
6, 675480, Note_on_c, 4, 65, 0
6, 675480, Note_on_c, 4, 72, 79
6, 675600, Note_on_c, 4, 72, 0
6, 675600, Note_on_c, 4, 69, 79
6, 675720, Note_on_c, 4, 69, 0
6, 675720, Note_on_c, 4, 72, 79
6, 675840, Note_on_c, 4, 72, 0
6, 675840, Note_on_c, 4, 67, 79
6, 675960, Note_on_c, 4, 67, 0
6, 675960, Note_on_c, 4, 72, 79
6, 676080, Note_on_c, 4, 72, 0
6, 676080, Note_on_c, 4, 70, 79
6, 676200, Note_on_c, 4, 70, 0
6, 676200, Note_on_c, 4, 72, 79
6, 676320, Note_on_c, 4, 72, 0
6, 676320, Note_on_c, 4, 65, 70
6, 676440, Note_on_c, 4, 65, 0
6, 676440, Note_on_c, 4, 72, 70
6, 676560, Note_on_c, 4, 72, 0
6, 676560, Note_on_c, 4, 84, 70
6, 676560, Note_on_c, 4, 69, 70
6, 676680, Note_on_c, 4, 69, 0
6, 676680, Note_on_c, 4, 72, 70
6, 676800, Note_on_c, 4, 72, 0
6, 676800, Note_on_c, 4, 84, 0
6, 676800, Note_on_c, 4, 86, 86
6, 676800, Note_on_c, 4, 65, 70
6, 676860, Note_on_c, 4, 86, 0
6, 676860, Note_on_c, 4, 84, 93
6, 676920, Note_on_c, 4, 84, 0
6, 676920, Note_on_c, 4, 65, 0
6, 676920, Note_on_c, 4, 86, 94
6, 676920, Note_on_c, 4, 72, 70
6, 676948, Note_on_c, 4, 86, 0
6, 676948, Note_on_c, 4, 84, 94
6, 676980, Note_on_c, 4, 84, 0
6, 676980, Note_on_c, 4, 86, 93
6, 677008, Note_on_c, 4, 86, 0
6, 677008, Note_on_c, 4, 84, 93
6, 677040, Note_on_c, 4, 84, 0
6, 677040, Note_on_c, 4, 72, 0
6, 677040, Note_on_c, 4, 86, 92
6, 677040, Note_on_c, 4, 69, 70
6, 677068, Note_on_c, 4, 86, 0
6, 677068, Note_on_c, 4, 84, 90
6, 677100, Note_on_c, 4, 84, 0
6, 677100, Note_on_c, 4, 86, 88
6, 677128, Note_on_c, 4, 86, 0
6, 677128, Note_on_c, 4, 84, 89
6, 677160, Note_on_c, 4, 84, 0
6, 677160, Note_on_c, 4, 69, 0
6, 677160, Note_on_c, 4, 82, 89
6, 677160, Note_on_c, 4, 72, 70
6, 677220, Note_on_c, 4, 82, 0
6, 677220, Note_on_c, 4, 84, 89
6, 677280, Note_on_c, 4, 84, 0
6, 677280, Note_on_c, 4, 72, 0
6, 677280, Note_on_c, 4, 89, 91
6, 677280, Note_on_c, 4, 67, 70
6, 677340, Note_on_c, 4, 89, 0
6, 677340, Note_on_c, 4, 88, 91
6, 677400, Note_on_c, 4, 88, 0
6, 677400, Note_on_c, 4, 67, 0
6, 677400, Note_on_c, 4, 89, 91
6, 677400, Note_on_c, 4, 72, 70
6, 677428, Note_on_c, 4, 89, 0
6, 677428, Note_on_c, 4, 88, 91
6, 677460, Note_on_c, 4, 88, 0
6, 677460, Note_on_c, 4, 89, 93
6, 677488, Note_on_c, 4, 89, 0
6, 677488, Note_on_c, 4, 88, 93
6, 677520, Note_on_c, 4, 88, 0
6, 677520, Note_on_c, 4, 72, 0
6, 677520, Note_on_c, 4, 89, 95
6, 677520, Note_on_c, 4, 70, 70
6, 677548, Note_on_c, 4, 89, 0
6, 677548, Note_on_c, 4, 88, 95
6, 677580, Note_on_c, 4, 88, 0
6, 677580, Note_on_c, 4, 89, 94
6, 677608, Note_on_c, 4, 89, 0
6, 677608, Note_on_c, 4, 88, 91
6, 677640, Note_on_c, 4, 88, 0
6, 677640, Note_on_c, 4, 70, 0
6, 677640, Note_on_c, 4, 86, 89
6, 677640, Note_on_c, 4, 72, 70
6, 677700, Note_on_c, 4, 86, 0
6, 677700, Note_on_c, 4, 88, 85
6, 677719, Note_on_c, 4, 72, 0
6, 677730, Note_on_c, 4, 65, 80
6, 677750, Note_on_c, 4, 69, 82
6, 677760, Note_on_c, 4, 88, 0
6, 677760, Note_on_c, 4, 89, 83
6, 677760, Note_on_c, 4, 72, 83
6, 677970, Note_on_c, 4, 65, 0
6, 677990, Note_on_c, 4, 69, 0
6, 678000, Note_on_c, 4, 89, 0
6, 678000, Note_on_c, 4, 72, 0
6, 678148, Note_on_c, 4, 60, 76
6, 678148, Note_on_c, 4, 41, 76
6, 678175, Note_on_c, 4, 45, 80
6, 678180, Note_on_c, 4, 65, 80
6, 678205, Note_on_c, 4, 48, 82
6, 678215, Note_on_c, 4, 69, 82
6, 678240, Note_on_c, 4, 72, 83
6, 678240, Note_on_c, 4, 53, 83
6, 678388, Note_on_c, 4, 41, 0
6, 678388, Note_on_c, 4, 60, 0
6, 678415, Note_on_c, 4, 45, 0
6, 678420, Note_on_c, 4, 65, 0
6, 678445, Note_on_c, 4, 48, 0
6, 678455, Note_on_c, 4, 69, 0
6, 678480, Note_on_c, 4, 53, 0
6, 678480, Note_on_c, 4, 72, 0
6, 678628, Note_on_c, 4, 60, 75
6, 678628, Note_on_c, 4, 41, 75
6, 678655, Note_on_c, 4, 45, 77
6, 678665, Note_on_c, 4, 65, 77
6, 678680, Note_on_c, 4, 48, 78
6, 678690, Note_on_c, 4, 69, 80
6, 678720, Note_on_c, 4, 72, 83
6, 678720, Note_on_c, 4, 53, 83
6, 678868, Note_on_c, 4, 41, 0
6, 678868, Note_on_c, 4, 60, 0
6, 678895, Note_on_c, 4, 45, 0
6, 678905, Note_on_c, 4, 65, 0
6, 678920, Note_on_c, 4, 48, 0
6, 678930, Note_on_c, 4, 69, 0
6, 678960, Note_on_c, 4, 53, 0
6, 678960, Note_on_c, 4, 72, 0
6, 679108, Note_on_c, 4, 60, 73
6, 679108, Note_on_c, 4, 41, 73
6, 679130, Note_on_c, 4, 65, 73
6, 679135, Note_on_c, 4, 45, 75
6, 679160, Note_on_c, 4, 48, 76
6, 679165, Note_on_c, 4, 69, 76
6, 679200, Note_on_c, 4, 72, 77
6, 679200, Note_on_c, 4, 53, 60
6, 679588, Note_on_c, 4, 41, 0
6, 679588, Note_on_c, 4, 60, 0
6, 679610, Note_on_c, 4, 65, 0
6, 679615, Note_on_c, 4, 45, 0
6, 679640, Note_on_c, 4, 48, 0
6, 679645, Note_on_c, 4, 69, 0
6, 679680, Note_on_c, 4, 53, 0
6, 679680, Note_on_c, 4, 72, 0
6, 792000, Note_on_c, 4, 72, 90
6, 792000, Note_on_c, 4, 60, 90
6, 792240, Note_on_c, 4, 60, 0
6, 792240, Note_on_c, 4, 72, 0
6, 792240, Note_on_c, 4, 71, 90
6, 792240, Note_on_c, 4, 67, 90
6, 792480, Note_on_c, 4, 67, 0
6, 792480, Note_on_c, 4, 71, 0
6, 792480, Note_on_c, 4, 72, 90
6, 792480, Note_on_c, 4, 64, 90
6, 792720, Note_on_c, 4, 64, 0
6, 792720, Note_on_c, 4, 72, 0
6, 792720, Note_on_c, 4, 71, 90
6, 792720, Note_on_c, 4, 67, 90
6, 792960, Note_on_c, 4, 67, 0
6, 792960, Note_on_c, 4, 71, 0
6, 792960, Note_on_c, 4, 72, 90
6, 792960, Note_on_c, 4, 60, 90
6, 793200, Note_on_c, 4, 60, 0
6, 793200, Note_on_c, 4, 67, 90
6, 793440, Note_on_c, 4, 67, 0
6, 793440, Note_on_c, 4, 72, 0
6, 793440, Note_on_c, 4, 76, 90
6, 793440, Note_on_c, 4, 64, 90
6, 793680, Note_on_c, 4, 64, 0
6, 793680, Note_on_c, 4, 67, 90
6, 793920, Note_on_c, 4, 67, 0
6, 793920, Note_on_c, 4, 76, 0
6, 793920, Note_on_c, 4, 74, 90
6, 793920, Note_on_c, 4, 60, 90
6, 794160, Note_on_c, 4, 60, 0
6, 794160, Note_on_c, 4, 74, 0
6, 794160, Note_on_c, 4, 72, 90
6, 794160, Note_on_c, 4, 67, 90
6, 794400, Note_on_c, 4, 67, 0
6, 794400, Note_on_c, 4, 72, 0
6, 794400, Note_on_c, 4, 72, 90
6, 794400, Note_on_c, 4, 64, 90
6, 794640, Note_on_c, 4, 64, 0
6, 794640, Note_on_c, 4, 72, 0
6, 794640, Note_on_c, 4, 71, 90
6, 794640, Note_on_c, 4, 67, 90
6, 794880, Note_on_c, 4, 67, 0
6, 794880, Note_on_c, 4, 71, 0
6, 794880, Note_on_c, 4, 72, 90
6, 794880, Note_on_c, 4, 60, 90
6, 795120, Note_on_c, 4, 60, 0
6, 795120, Note_on_c, 4, 67, 90
6, 795360, Note_on_c, 4, 67, 0
6, 795360, Note_on_c, 4, 72, 0
6, 795360, Note_on_c, 4, 64, 90
6, 795600, Note_on_c, 4, 64, 0
6, 795600, Note_on_c, 4, 67, 90
6, 795840, Note_on_c, 4, 67, 0
6, 795840, Note_on_c, 4, 77, 90
6, 795840, Note_on_c, 4, 60, 90
6, 796080, Note_on_c, 4, 60, 0
6, 796080, Note_on_c, 4, 77, 0
6, 796080, Note_on_c, 4, 76, 90
6, 796080, Note_on_c, 4, 69, 90
6, 796320, Note_on_c, 4, 69, 0
6, 796320, Note_on_c, 4, 76, 0
6, 796320, Note_on_c, 4, 77, 90
6, 796320, Note_on_c, 4, 65, 90
6, 796560, Note_on_c, 4, 65, 0
6, 796560, Note_on_c, 4, 77, 0
6, 796560, Note_on_c, 4, 76, 90
6, 796560, Note_on_c, 4, 69, 90
6, 796800, Note_on_c, 4, 69, 0
6, 796800, Note_on_c, 4, 76, 0
6, 796800, Note_on_c, 4, 77, 90
6, 796800, Note_on_c, 4, 60, 90
6, 797040, Note_on_c, 4, 60, 0
6, 797040, Note_on_c, 4, 69, 90
6, 797280, Note_on_c, 4, 69, 0
6, 797280, Note_on_c, 4, 77, 0
6, 797280, Note_on_c, 4, 81, 90
6, 797280, Note_on_c, 4, 65, 90
6, 797520, Note_on_c, 4, 65, 0
6, 797520, Note_on_c, 4, 69, 90
6, 797760, Note_on_c, 4, 69, 0
6, 797760, Note_on_c, 4, 81, 0
6, 797760, Note_on_c, 4, 78, 90
6, 797760, Note_on_c, 4, 60, 90
6, 798000, Note_on_c, 4, 60, 0
6, 798000, Note_on_c, 4, 78, 0
6, 798000, Note_on_c, 4, 79, 90
6, 798000, Note_on_c, 4, 67, 90
6, 798240, Note_on_c, 4, 67, 0
6, 798240, Note_on_c, 4, 79, 0
6, 798240, Note_on_c, 4, 79, 90
6, 798240, Note_on_c, 4, 64, 90
6, 798480, Note_on_c, 4, 64, 0
6, 798480, Note_on_c, 4, 79, 0
6, 798480, Note_on_c, 4, 78, 90
6, 798480, Note_on_c, 4, 67, 90
6, 798720, Note_on_c, 4, 67, 0
6, 798720, Note_on_c, 4, 78, 0
6, 798720, Note_on_c, 4, 79, 90
6, 798720, Note_on_c, 4, 60, 90
6, 798960, Note_on_c, 4, 60, 0
6, 798960, Note_on_c, 4, 67, 90
6, 799200, Note_on_c, 4, 67, 0
6, 799200, Note_on_c, 4, 79, 0
6, 799200, Note_on_c, 4, 64, 90
6, 799440, Note_on_c, 4, 64, 0
6, 799440, Note_on_c, 4, 67, 90
6, 799680, Note_on_c, 4, 67, 0
6, 799680, Note_on_c, 4, 84, 90
6, 799680, Note_on_c, 4, 60, 90
6, 799920, Note_on_c, 4, 60, 0
6, 799920, Note_on_c, 4, 84, 0
6, 799920, Note_on_c, 4, 83, 90
6, 799920, Note_on_c, 4, 67, 90
6, 800160, Note_on_c, 4, 67, 0
6, 800160, Note_on_c, 4, 83, 0
6, 800160, Note_on_c, 4, 84, 90
6, 800160, Note_on_c, 4, 64, 90
6, 800400, Note_on_c, 4, 64, 0
6, 800400, Note_on_c, 4, 84, 0
6, 800400, Note_on_c, 4, 83, 90
6, 800400, Note_on_c, 4, 67, 90
6, 800640, Note_on_c, 4, 67, 0
6, 800640, Note_on_c, 4, 83, 0
6, 800640, Note_on_c, 4, 84, 90
6, 800640, Note_on_c, 4, 60, 90
6, 800880, Note_on_c, 4, 60, 0
6, 800880, Note_on_c, 4, 67, 90
6, 801120, Note_on_c, 4, 67, 0
6, 801120, Note_on_c, 4, 84, 0
6, 801120, Note_on_c, 4, 76, 90
6, 801120, Note_on_c, 4, 64, 90
6, 801360, Note_on_c, 4, 64, 0
6, 801360, Note_on_c, 4, 67, 90
6, 801600, Note_on_c, 4, 67, 0
6, 801600, Note_on_c, 4, 76, 0
6, 801600, Note_on_c, 4, 79, 90
6, 801600, Note_on_c, 4, 60, 90
6, 801840, Note_on_c, 4, 60, 0
6, 801840, Note_on_c, 4, 79, 0
6, 801840, Note_on_c, 4, 77, 90
6, 801840, Note_on_c, 4, 69, 90
6, 802080, Note_on_c, 4, 69, 0
6, 802080, Note_on_c, 4, 77, 0
6, 802080, Note_on_c, 4, 77, 90
6, 802080, Note_on_c, 4, 62, 90
6, 802320, Note_on_c, 4, 62, 0
6, 802320, Note_on_c, 4, 77, 0
6, 802320, Note_on_c, 4, 74, 90
6, 802320, Note_on_c, 4, 69, 90
6, 802560, Note_on_c, 4, 69, 0
6, 802560, Note_on_c, 4, 74, 0
6, 802560, Note_on_c, 4, 86, 90
6, 802560, Note_on_c, 4, 59, 90
6, 802800, Note_on_c, 4, 59, 0
6, 802800, Note_on_c, 4, 67, 90
6, 803040, Note_on_c, 4, 67, 0
6, 803040, Note_on_c, 4, 86, 0
6, 803040, Note_on_c, 4, 62, 90
6, 803280, Note_on_c, 4, 62, 0
6, 803280, Note_on_c, 4, 77, 90
6, 803280, Note_on_c, 4, 67, 90
6, 803520, Note_on_c, 4, 67, 0
6, 803520, Note_on_c, 4, 77, 0
6, 803520, Note_on_c, 4, 76, 90
6, 803520, Note_on_c, 4, 60, 90
6, 803760, Note_on_c, 4, 76, 0
6, 803760, Note_on_c, 4, 79, 90
6, 804000, Note_on_c, 4, 79, 0
6, 804000, Note_on_c, 4, 60, 0
6, 804000, Note_on_c, 4, 72, 90
6, 804000, Note_on_c, 4, 57, 90
6, 804240, Note_on_c, 4, 72, 0
6, 804240, Note_on_c, 4, 76, 90
6, 804480, Note_on_c, 4, 76, 0
6, 804480, Note_on_c, 4, 57, 0
6, 804480, Note_on_c, 4, 74, 90
6, 804480, Note_on_c, 4, 53, 90
6, 804720, Note_on_c, 4, 74, 0
6, 804720, Note_on_c, 4, 77, 90
6, 804960, Note_on_c, 4, 77, 0
6, 804960, Note_on_c, 4, 53, 0
6, 804960, Note_on_c, 4, 71, 90
6, 804960, Note_on_c, 4, 55, 90
6, 805200, Note_on_c, 4, 71, 0
6, 805200, Note_on_c, 4, 74, 90
6, 805440, Note_on_c, 4, 74, 0
6, 805440, Note_on_c, 4, 55, 0
6, 805440, Note_on_c, 4, 72, 90
6, 805440, Note_on_c, 4, 48, 90
6, 805680, Note_on_c, 4, 72, 0
6, 805680, Note_on_c, 4, 76, 90
6, 805920, Note_on_c, 4, 76, 0
6, 805920, Note_on_c, 4, 48, 0
6, 805920, Note_on_c, 4, 67, 90
6, 806160, Note_on_c, 4, 67, 0
6, 806160, Note_on_c, 4, 72, 90
6, 806400, Note_on_c, 4, 72, 0
6, 806400, Note_on_c, 4, 64, 90
6, 806640, Note_on_c, 4, 64, 0
6, 806640, Note_on_c, 4, 67, 90
6, 806880, Note_on_c, 4, 67, 0
6, 806880, Note_on_c, 4, 65, 90
6, 807120, Note_on_c, 4, 65, 0
6, 807120, Note_on_c, 4, 62, 90
6, 807360, Note_on_c, 4, 62, 0
6, 807360, Note_on_c, 4, 60, 90
6, 807360, Note_on_c, 4, 48, 90
6, 807600, Note_on_c, 4, 60, 0
6, 807600, Note_on_c, 4, 67, 90
6, 807840, Note_on_c, 4, 67, 0
6, 807840, Note_on_c, 4, 48, 0
6, 807840, Note_on_c, 4, 64, 90
6, 807840, Note_on_c, 4, 52, 90
6, 808080, Note_on_c, 4, 64, 0
6, 808080, Note_on_c, 4, 67, 90
6, 808320, Note_on_c, 4, 67, 0
6, 808320, Note_on_c, 4, 52, 0
6, 808320, Note_on_c, 4, 60, 90
6, 808320, Note_on_c, 4, 55, 90
6, 808560, Note_on_c, 4, 60, 0
6, 808560, Note_on_c, 4, 67, 90
6, 808800, Note_on_c, 4, 67, 0
6, 808800, Note_on_c, 4, 55, 0
6, 808800, Note_on_c, 4, 64, 90
6, 808800, Note_on_c, 4, 52, 90
6, 809040, Note_on_c, 4, 64, 0
6, 809040, Note_on_c, 4, 67, 90
6, 809280, Note_on_c, 4, 67, 0
6, 809280, Note_on_c, 4, 52, 0
6, 809280, Note_on_c, 4, 60, 90
6, 809280, Note_on_c, 4, 48, 90
6, 809520, Note_on_c, 4, 60, 0
6, 809520, Note_on_c, 4, 67, 90
6, 809760, Note_on_c, 4, 67, 0
6, 809760, Note_on_c, 4, 48, 0
6, 809760, Note_on_c, 4, 64, 90
6, 809760, Note_on_c, 4, 52, 90
6, 810000, Note_on_c, 4, 64, 0
6, 810000, Note_on_c, 4, 67, 90
6, 810240, Note_on_c, 4, 67, 0
6, 810240, Note_on_c, 4, 52, 0
6, 810240, Note_on_c, 4, 60, 90
6, 810240, Note_on_c, 4, 55, 90
6, 810480, Note_on_c, 4, 60, 0
6, 810480, Note_on_c, 4, 67, 90
6, 810720, Note_on_c, 4, 67, 0
6, 810720, Note_on_c, 4, 55, 0
6, 810720, Note_on_c, 4, 64, 90
6, 810720, Note_on_c, 4, 52, 90
6, 810960, Note_on_c, 4, 64, 0
6, 810960, Note_on_c, 4, 67, 90
6, 811200, Note_on_c, 4, 67, 0
6, 811200, Note_on_c, 4, 52, 0
6, 811200, Note_on_c, 4, 60, 90
6, 811200, Note_on_c, 4, 48, 90
6, 811440, Note_on_c, 4, 60, 0
6, 811440, Note_on_c, 4, 69, 90
6, 811680, Note_on_c, 4, 69, 0
6, 811680, Note_on_c, 4, 48, 0
6, 811680, Note_on_c, 4, 65, 90
6, 811680, Note_on_c, 4, 53, 90
6, 811920, Note_on_c, 4, 65, 0
6, 811920, Note_on_c, 4, 69, 90
6, 812160, Note_on_c, 4, 69, 0
6, 812160, Note_on_c, 4, 53, 0
6, 812160, Note_on_c, 4, 60, 90
6, 812160, Note_on_c, 4, 57, 90
6, 812400, Note_on_c, 4, 60, 0
6, 812400, Note_on_c, 4, 69, 90
6, 812640, Note_on_c, 4, 69, 0
6, 812640, Note_on_c, 4, 57, 0
6, 812640, Note_on_c, 4, 65, 90
6, 812640, Note_on_c, 4, 53, 90
6, 812880, Note_on_c, 4, 65, 0
6, 812880, Note_on_c, 4, 69, 90
6, 813120, Note_on_c, 4, 69, 0
6, 813120, Note_on_c, 4, 53, 0
6, 813120, Note_on_c, 4, 60, 90
6, 813120, Note_on_c, 4, 48, 90
6, 813360, Note_on_c, 4, 60, 0
6, 813360, Note_on_c, 4, 67, 90
6, 813600, Note_on_c, 4, 67, 0
6, 813600, Note_on_c, 4, 48, 0
6, 813600, Note_on_c, 4, 64, 90
6, 813600, Note_on_c, 4, 52, 90
6, 813840, Note_on_c, 4, 64, 0
6, 813840, Note_on_c, 4, 67, 90
6, 814080, Note_on_c, 4, 67, 0
6, 814080, Note_on_c, 4, 52, 0
6, 814080, Note_on_c, 4, 60, 90
6, 814080, Note_on_c, 4, 55, 90
6, 814320, Note_on_c, 4, 60, 0
6, 814320, Note_on_c, 4, 67, 90
6, 814560, Note_on_c, 4, 67, 0
6, 814560, Note_on_c, 4, 55, 0
6, 814560, Note_on_c, 4, 64, 90
6, 814560, Note_on_c, 4, 52, 90
6, 814800, Note_on_c, 4, 64, 0
6, 814800, Note_on_c, 4, 67, 90
6, 815040, Note_on_c, 4, 67, 0
6, 815040, Note_on_c, 4, 52, 0
6, 815040, Note_on_c, 4, 60, 90
6, 815040, Note_on_c, 4, 48, 90
6, 815280, Note_on_c, 4, 60, 0
6, 815280, Note_on_c, 4, 67, 90
6, 815520, Note_on_c, 4, 67, 0
6, 815520, Note_on_c, 4, 48, 0
6, 815520, Note_on_c, 4, 64, 90
6, 815520, Note_on_c, 4, 52, 90
6, 815760, Note_on_c, 4, 64, 0
6, 815760, Note_on_c, 4, 67, 90
6, 816000, Note_on_c, 4, 67, 0
6, 816000, Note_on_c, 4, 52, 0
6, 816000, Note_on_c, 4, 60, 90
6, 816000, Note_on_c, 4, 55, 90
6, 816240, Note_on_c, 4, 60, 0
6, 816240, Note_on_c, 4, 67, 90
6, 816480, Note_on_c, 4, 67, 0
6, 816480, Note_on_c, 4, 55, 0
6, 816480, Note_on_c, 4, 64, 90
6, 816480, Note_on_c, 4, 52, 90
6, 816720, Note_on_c, 4, 64, 0
6, 816720, Note_on_c, 4, 67, 90
6, 816960, Note_on_c, 4, 67, 0
6, 816960, Note_on_c, 4, 52, 0
6, 816960, Note_on_c, 4, 62, 90
6, 816960, Note_on_c, 4, 47, 90
6, 817200, Note_on_c, 4, 62, 0
6, 817200, Note_on_c, 4, 67, 90
6, 817440, Note_on_c, 4, 67, 0
6, 817440, Note_on_c, 4, 47, 0
6, 817440, Note_on_c, 4, 65, 90
6, 817440, Note_on_c, 4, 50, 90
6, 817680, Note_on_c, 4, 65, 0
6, 817680, Note_on_c, 4, 67, 90
6, 817920, Note_on_c, 4, 67, 0
6, 817920, Note_on_c, 4, 50, 0
6, 817920, Note_on_c, 4, 62, 90
6, 817920, Note_on_c, 4, 55, 90
6, 818160, Note_on_c, 4, 62, 0
6, 818160, Note_on_c, 4, 67, 90
6, 818400, Note_on_c, 4, 67, 0
6, 818400, Note_on_c, 4, 55, 0
6, 818400, Note_on_c, 4, 65, 90
6, 818400, Note_on_c, 4, 47, 90
6, 818640, Note_on_c, 4, 65, 0
6, 818640, Note_on_c, 4, 67, 90
6, 818880, Note_on_c, 4, 67, 0
6, 818880, Note_on_c, 4, 47, 0
6, 818880, Note_on_c, 4, 60, 90
6, 818880, Note_on_c, 4, 48, 90
6, 819360, Note_on_c, 4, 48, 0
6, 819360, Note_on_c, 4, 60, 0
6, 819360, Note_on_c, 4, 52, 90
6, 819840, Note_on_c, 4, 52, 0
6, 819840, Note_on_c, 4, 53, 90
6, 820320, Note_on_c, 4, 53, 0
6, 820320, Note_on_c, 4, 55, 90
6, 820800, Note_on_c, 4, 55, 0
6, 820800, Note_on_c, 4, 76, 90
6, 820800, Note_on_c, 4, 60, 90
6, 820896, Note_on_c, 4, 76, 0
6, 821040, Note_on_c, 4, 77, 90
6, 821136, Note_on_c, 4, 77, 0
6, 821280, Note_on_c, 4, 60, 0
6, 821280, Note_on_c, 4, 79, 90
6, 821376, Note_on_c, 4, 79, 0
6, 821520, Note_on_c, 4, 81, 90
6, 821616, Note_on_c, 4, 81, 0
6, 821760, Note_on_c, 4, 83, 90
6, 821856, Note_on_c, 4, 83, 0
6, 822000, Note_on_c, 4, 84, 90
6, 822096, Note_on_c, 4, 84, 0
6, 822240, Note_on_c, 4, 86, 90
6, 822336, Note_on_c, 4, 86, 0
6, 822480, Note_on_c, 4, 88, 90
6, 822576, Note_on_c, 4, 88, 0
6, 822720, Note_on_c, 4, 89, 90
6, 822720, Note_on_c, 4, 59, 90
6, 822816, Note_on_c, 4, 89, 0
6, 822960, Note_on_c, 4, 88, 90
6, 823056, Note_on_c, 4, 88, 0
6, 823200, Note_on_c, 4, 59, 0
6, 823200, Note_on_c, 4, 86, 90
6, 823296, Note_on_c, 4, 86, 0
6, 823440, Note_on_c, 4, 84, 90
6, 823536, Note_on_c, 4, 84, 0
6, 823680, Note_on_c, 4, 83, 90
6, 823776, Note_on_c, 4, 83, 0
6, 823920, Note_on_c, 4, 81, 90
6, 824016, Note_on_c, 4, 81, 0
6, 824160, Note_on_c, 4, 79, 90
6, 824256, Note_on_c, 4, 79, 0
6, 824400, Note_on_c, 4, 77, 90
6, 824496, Note_on_c, 4, 77, 0
6, 824640, Note_on_c, 4, 76, 90
6, 824640, Note_on_c, 4, 60, 90
6, 824880, Note_on_c, 4, 76, 0
6, 824880, Note_on_c, 4, 79, 90
6, 825120, Note_on_c, 4, 79, 0
6, 825120, Note_on_c, 4, 60, 0
6, 825120, Note_on_c, 4, 84, 90
6, 825120, Note_on_c, 4, 64, 90
6, 825360, Note_on_c, 4, 84, 0
6, 825360, Note_on_c, 4, 79, 90
6, 825600, Note_on_c, 4, 79, 0
6, 825600, Note_on_c, 4, 64, 0
6, 825600, Note_on_c, 4, 79, 90
6, 825600, Note_on_c, 4, 67, 90
6, 825840, Note_on_c, 4, 79, 0
6, 825840, Note_on_c, 4, 77, 90
6, 826080, Note_on_c, 4, 77, 0
6, 826080, Note_on_c, 4, 67, 0
6, 826080, Note_on_c, 4, 76, 90
6, 826080, Note_on_c, 4, 55, 90
6, 826320, Note_on_c, 4, 76, 0
6, 826320, Note_on_c, 4, 74, 90
6, 826560, Note_on_c, 4, 74, 0
6, 826560, Note_on_c, 4, 55, 0
6, 826560, Note_on_c, 4, 72, 90
6, 826560, Note_on_c, 4, 60, 90
6, 827040, Note_on_c, 4, 60, 0
6, 827040, Note_on_c, 4, 72, 0
6, 853440, Note_on_c, 4, 71, 90
6, 853440, Note_on_c, 4, 55, 90
6, 853680, Note_on_c, 4, 71, 0
6, 853680, Note_on_c, 4, 67, 90
6, 853920, Note_on_c, 4, 67, 0
6, 853920, Note_on_c, 4, 55, 0
6, 853920, Note_on_c, 4, 62, 90
6, 854160, Note_on_c, 4, 62, 0
6, 854160, Note_on_c, 4, 60, 90
6, 854400, Note_on_c, 4, 60, 0
6, 854400, Note_on_c, 4, 59, 90
6, 854640, Note_on_c, 4, 59, 0
6, 854640, Note_on_c, 4, 62, 90
6, 854880, Note_on_c, 4, 62, 0
6, 854880, Note_on_c, 4, 67, 90
6, 855120, Note_on_c, 4, 67, 0
6, 855120, Note_on_c, 4, 69, 90
6, 855360, Note_on_c, 4, 69, 0
6, 855360, Note_on_c, 4, 71, 90
6, 855360, Note_on_c, 4, 43, 90
6, 855600, Note_on_c, 4, 71, 0
6, 855600, Note_on_c, 4, 67, 90
6, 855840, Note_on_c, 4, 67, 0
6, 855840, Note_on_c, 4, 43, 0
6, 855840, Note_on_c, 4, 62, 90
6, 856080, Note_on_c, 4, 62, 0
6, 856080, Note_on_c, 4, 60, 90
6, 856320, Note_on_c, 4, 60, 0
6, 856320, Note_on_c, 4, 59, 90
6, 856560, Note_on_c, 4, 59, 0
6, 856560, Note_on_c, 4, 62, 90
6, 856800, Note_on_c, 4, 62, 0
6, 856800, Note_on_c, 4, 67, 90
6, 857040, Note_on_c, 4, 67, 0
6, 857040, Note_on_c, 4, 71, 90
6, 857280, Note_on_c, 4, 71, 0
6, 857280, Note_on_c, 4, 71, 90
6, 857280, Note_on_c, 4, 40, 90
6, 857280, Note_on_c, 4, 52, 90
6, 857520, Note_on_c, 4, 71, 0
6, 857520, Note_on_c, 4, 62, 90
6, 857760, Note_on_c, 4, 62, 0
6, 857760, Note_on_c, 4, 52, 0
6, 857760, Note_on_c, 4, 40, 0
6, 857760, Note_on_c, 4, 68, 90
6, 858000, Note_on_c, 4, 68, 0
6, 858000, Note_on_c, 4, 71, 90
6, 858240, Note_on_c, 4, 71, 0
6, 858240, Note_on_c, 4, 74, 90
6, 858480, Note_on_c, 4, 74, 0
6, 858480, Note_on_c, 4, 68, 90
6, 858720, Note_on_c, 4, 68, 0
6, 858720, Note_on_c, 4, 71, 90
6, 858960, Note_on_c, 4, 71, 0
6, 858960, Note_on_c, 4, 74, 90
6, 859200, Note_on_c, 4, 74, 0
6, 859200, Note_on_c, 4, 80, 90
6, 859440, Note_on_c, 4, 80, 0
6, 859440, Note_on_c, 4, 71, 90
6, 859680, Note_on_c, 4, 71, 0
6, 859680, Note_on_c, 4, 74, 90
6, 859920, Note_on_c, 4, 74, 0
6, 859920, Note_on_c, 4, 80, 90
6, 860160, Note_on_c, 4, 80, 0
6, 860160, Note_on_c, 4, 83, 90
6, 860400, Note_on_c, 4, 59, 90
6, 860640, Note_on_c, 4, 59, 0
6, 860640, Note_on_c, 4, 83, 0
6, 860640, Note_on_c, 4, 56, 90
6, 860880, Note_on_c, 4, 56, 0
6, 860880, Note_on_c, 4, 52, 90
6, 861120, Note_on_c, 4, 52, 0
6, 861120, Note_on_c, 4, 69, 90
6, 861120, Note_on_c, 4, 57, 90
6, 861360, Note_on_c, 4, 69, 0
6, 861360, Note_on_c, 4, 64, 90
6, 861600, Note_on_c, 4, 64, 0
6, 861600, Note_on_c, 4, 57, 0
6, 861600, Note_on_c, 4, 60, 90
6, 861840, Note_on_c, 4, 60, 0
6, 861840, Note_on_c, 4, 59, 90
6, 862080, Note_on_c, 4, 59, 0
6, 862080, Note_on_c, 4, 57, 90
6, 862320, Note_on_c, 4, 57, 0
6, 862320, Note_on_c, 4, 60, 90
6, 862560, Note_on_c, 4, 60, 0
6, 862560, Note_on_c, 4, 64, 90
6, 862800, Note_on_c, 4, 64, 0
6, 862800, Note_on_c, 4, 68, 90
6, 863040, Note_on_c, 4, 68, 0
6, 863040, Note_on_c, 4, 69, 90
6, 863040, Note_on_c, 4, 45, 90
6, 863280, Note_on_c, 4, 69, 0
6, 863280, Note_on_c, 4, 64, 90
6, 863520, Note_on_c, 4, 64, 0
6, 863520, Note_on_c, 4, 45, 0
6, 863520, Note_on_c, 4, 60, 90
6, 863760, Note_on_c, 4, 60, 0
6, 863760, Note_on_c, 4, 59, 90
6, 864000, Note_on_c, 4, 59, 0
6, 864000, Note_on_c, 4, 57, 90
6, 864240, Note_on_c, 4, 57, 0
6, 864240, Note_on_c, 4, 60, 90
6, 864480, Note_on_c, 4, 60, 0
6, 864480, Note_on_c, 4, 64, 90
6, 864720, Note_on_c, 4, 64, 0
6, 864720, Note_on_c, 4, 67, 90
6, 864960, Note_on_c, 4, 67, 0
6, 864960, Note_on_c, 4, 66, 90
6, 864960, Note_on_c, 4, 38, 90
6, 864960, Note_on_c, 4, 50, 90
6, 865200, Note_on_c, 4, 66, 0
6, 865200, Note_on_c, 4, 62, 90
6, 865440, Note_on_c, 4, 62, 0
6, 865440, Note_on_c, 4, 50, 0
6, 865440, Note_on_c, 4, 38, 0
6, 865440, Note_on_c, 4, 66, 90
6, 865680, Note_on_c, 4, 66, 0
6, 865680, Note_on_c, 4, 69, 90
6, 865920, Note_on_c, 4, 69, 0
6, 865920, Note_on_c, 4, 72, 90
6, 866160, Note_on_c, 4, 72, 0
6, 866160, Note_on_c, 4, 66, 90
6, 866400, Note_on_c, 4, 66, 0
6, 866400, Note_on_c, 4, 69, 90
6, 866640, Note_on_c, 4, 69, 0
6, 866640, Note_on_c, 4, 72, 90
6, 866880, Note_on_c, 4, 72, 0
6, 866880, Note_on_c, 4, 78, 90
6, 867120, Note_on_c, 4, 78, 0
6, 867120, Note_on_c, 4, 69, 90
6, 867360, Note_on_c, 4, 69, 0
6, 867360, Note_on_c, 4, 72, 90
6, 867600, Note_on_c, 4, 72, 0
6, 867600, Note_on_c, 4, 78, 90
6, 867840, Note_on_c, 4, 78, 0
6, 867840, Note_on_c, 4, 81, 90
6, 868080, Note_on_c, 4, 57, 90
6, 868320, Note_on_c, 4, 57, 0
6, 868320, Note_on_c, 4, 81, 0
6, 868320, Note_on_c, 4, 54, 90
6, 868560, Note_on_c, 4, 54, 0
6, 868560, Note_on_c, 4, 50, 90
6, 868800, Note_on_c, 4, 50, 0
6, 868800, Note_on_c, 4, 55, 90
6, 869040, Note_on_c, 4, 71, 90
6, 869280, Note_on_c, 4, 71, 0
6, 869280, Note_on_c, 4, 55, 0
6, 869280, Note_on_c, 4, 74, 90
6, 869520, Note_on_c, 4, 74, 0
6, 869520, Note_on_c, 4, 79, 90
6, 869760, Note_on_c, 4, 79, 0
6, 869760, Note_on_c, 4, 78, 90
6, 869760, Note_on_c, 4, 48, 90
6, 869760, Note_on_c, 4, 60, 90
6, 870000, Note_on_c, 4, 78, 0
6, 870000, Note_on_c, 4, 74, 90
6, 870240, Note_on_c, 4, 74, 0
6, 870240, Note_on_c, 4, 60, 0
6, 870240, Note_on_c, 4, 48, 0
6, 870240, Note_on_c, 4, 81, 90
6, 870480, Note_on_c, 4, 81, 0
6, 870480, Note_on_c, 4, 78, 90
6, 870720, Note_on_c, 4, 78, 0
6, 870720, Note_on_c, 4, 79, 90
6, 870720, Note_on_c, 4, 47, 90
6, 870720, Note_on_c, 4, 59, 90
6, 870960, Note_on_c, 4, 79, 0
6, 870960, Note_on_c, 4, 74, 90
6, 871200, Note_on_c, 4, 74, 0
6, 871200, Note_on_c, 4, 59, 0
6, 871200, Note_on_c, 4, 47, 0
6, 871200, Note_on_c, 4, 83, 90
6, 871440, Note_on_c, 4, 83, 0
6, 871440, Note_on_c, 4, 79, 90
6, 871680, Note_on_c, 4, 79, 0
6, 871680, Note_on_c, 4, 81, 90
6, 871680, Note_on_c, 4, 42, 90
6, 871680, Note_on_c, 4, 54, 90
6, 871920, Note_on_c, 4, 81, 0
6, 871920, Note_on_c, 4, 74, 90
6, 872160, Note_on_c, 4, 74, 0
6, 872160, Note_on_c, 4, 54, 0
6, 872160, Note_on_c, 4, 42, 0
6, 872160, Note_on_c, 4, 84, 90
6, 872400, Note_on_c, 4, 84, 0
6, 872400, Note_on_c, 4, 81, 90
6, 872640, Note_on_c, 4, 81, 0
6, 872640, Note_on_c, 4, 83, 90
6, 872640, Note_on_c, 4, 43, 90
6, 872640, Note_on_c, 4, 55, 90
6, 872880, Note_on_c, 4, 83, 0
6, 872880, Note_on_c, 4, 74, 90
6, 873120, Note_on_c, 4, 74, 0
6, 873120, Note_on_c, 4, 55, 0
6, 873120, Note_on_c, 4, 43, 0
6, 873120, Note_on_c, 4, 86, 90
6, 873360, Note_on_c, 4, 86, 0
6, 873360, Note_on_c, 4, 83, 90
6, 873600, Note_on_c, 4, 83, 0
6, 873600, Note_on_c, 4, 78, 90
6, 873600, Note_on_c, 4, 48, 90
6, 873600, Note_on_c, 4, 60, 90
6, 873840, Note_on_c, 4, 78, 0
6, 873840, Note_on_c, 4, 74, 90
6, 874080, Note_on_c, 4, 74, 0
6, 874080, Note_on_c, 4, 60, 0
6, 874080, Note_on_c, 4, 48, 0
6, 874080, Note_on_c, 4, 81, 90
6, 874320, Note_on_c, 4, 81, 0
6, 874320, Note_on_c, 4, 78, 90
6, 874560, Note_on_c, 4, 78, 0
6, 874560, Note_on_c, 4, 79, 90
6, 874560, Note_on_c, 4, 47, 90
6, 874560, Note_on_c, 4, 59, 90
6, 874800, Note_on_c, 4, 79, 0
6, 874800, Note_on_c, 4, 74, 90
6, 875040, Note_on_c, 4, 74, 0
6, 875040, Note_on_c, 4, 59, 0
6, 875040, Note_on_c, 4, 47, 0
6, 875040, Note_on_c, 4, 83, 90
6, 875280, Note_on_c, 4, 83, 0
6, 875280, Note_on_c, 4, 79, 90
6, 875520, Note_on_c, 4, 79, 0
6, 875520, Note_on_c, 4, 81, 90
6, 875520, Note_on_c, 4, 42, 90
6, 875520, Note_on_c, 4, 54, 90
6, 875760, Note_on_c, 4, 81, 0
6, 875760, Note_on_c, 4, 74, 90
6, 876000, Note_on_c, 4, 74, 0
6, 876000, Note_on_c, 4, 54, 0
6, 876000, Note_on_c, 4, 42, 0
6, 876000, Note_on_c, 4, 84, 90
6, 876240, Note_on_c, 4, 84, 0
6, 876240, Note_on_c, 4, 81, 90
6, 876480, Note_on_c, 4, 81, 0
6, 876480, Note_on_c, 4, 83, 90
6, 876480, Note_on_c, 4, 43, 90
6, 876480, Note_on_c, 4, 55, 90
6, 876720, Note_on_c, 4, 83, 0
6, 876720, Note_on_c, 4, 74, 90
6, 876960, Note_on_c, 4, 74, 0
6, 876960, Note_on_c, 4, 55, 0
6, 876960, Note_on_c, 4, 43, 0
6, 876960, Note_on_c, 4, 86, 90
6, 877200, Note_on_c, 4, 86, 0
6, 877200, Note_on_c, 4, 83, 90
6, 877440, Note_on_c, 4, 83, 0
6, 877440, Note_on_c, 4, 76, 90
6, 877440, Note_on_c, 4, 60, 90
6, 877680, Note_on_c, 4, 60, 0
6, 877680, Note_on_c, 4, 76, 0
6, 877680, Note_on_c, 4, 80, 90
6, 877680, Note_on_c, 4, 64, 90
6, 877920, Note_on_c, 4, 64, 0
6, 877920, Note_on_c, 4, 80, 0
6, 877920, Note_on_c, 4, 81, 90
6, 877920, Note_on_c, 4, 66, 90
6, 878160, Note_on_c, 4, 66, 0
6, 878160, Note_on_c, 4, 81, 0
6, 878160, Note_on_c, 4, 84, 90
6, 878160, Note_on_c, 4, 69, 90
6, 878400, Note_on_c, 4, 69, 0
6, 878400, Note_on_c, 4, 84, 0
6, 878400, Note_on_c, 4, 74, 90
6, 878400, Note_on_c, 4, 59, 90
6, 878640, Note_on_c, 4, 59, 0
6, 878640, Note_on_c, 4, 74, 0
6, 878640, Note_on_c, 4, 78, 90
6, 878640, Note_on_c, 4, 62, 90
6, 878880, Note_on_c, 4, 62, 0
6, 878880, Note_on_c, 4, 78, 0
6, 878880, Note_on_c, 4, 79, 90
6, 878880, Note_on_c, 4, 64, 90
6, 879120, Note_on_c, 4, 64, 0
6, 879120, Note_on_c, 4, 79, 0
6, 879120, Note_on_c, 4, 83, 90
6, 879120, Note_on_c, 4, 67, 90
6, 879360, Note_on_c, 4, 67, 0
6, 879360, Note_on_c, 4, 83, 0
6, 879360, Note_on_c, 4, 72, 90
6, 879360, Note_on_c, 4, 57, 90
6, 879600, Note_on_c, 4, 57, 0
6, 879600, Note_on_c, 4, 72, 0
6, 879600, Note_on_c, 4, 76, 90
6, 879600, Note_on_c, 4, 60, 90
6, 879840, Note_on_c, 4, 60, 0
6, 879840, Note_on_c, 4, 76, 0
6, 879840, Note_on_c, 4, 78, 90
6, 879840, Note_on_c, 4, 62, 90
6, 880080, Note_on_c, 4, 62, 0
6, 880080, Note_on_c, 4, 78, 0
6, 880080, Note_on_c, 4, 81, 90
6, 880080, Note_on_c, 4, 66, 90
6, 880320, Note_on_c, 4, 66, 0
6, 880320, Note_on_c, 4, 81, 0
6, 880320, Note_on_c, 4, 71, 90
6, 880320, Note_on_c, 4, 55, 90
6, 880560, Note_on_c, 4, 55, 0
6, 880560, Note_on_c, 4, 71, 0
6, 880560, Note_on_c, 4, 75, 90
6, 880560, Note_on_c, 4, 59, 90
6, 880800, Note_on_c, 4, 59, 0
6, 880800, Note_on_c, 4, 75, 0
6, 880800, Note_on_c, 4, 76, 90
6, 880800, Note_on_c, 4, 61, 90
6, 881040, Note_on_c, 4, 61, 0
6, 881040, Note_on_c, 4, 76, 0
6, 881040, Note_on_c, 4, 79, 90
6, 881040, Note_on_c, 4, 64, 90
6, 881280, Note_on_c, 4, 64, 0
6, 881280, Note_on_c, 4, 79, 0
6, 881280, Note_on_c, 4, 69, 90
6, 881280, Note_on_c, 4, 54, 90
6, 881520, Note_on_c, 4, 54, 0
6, 881520, Note_on_c, 4, 69, 0
6, 881520, Note_on_c, 4, 73, 90
6, 881520, Note_on_c, 4, 57, 90
6, 881760, Note_on_c, 4, 57, 0
6, 881760, Note_on_c, 4, 73, 0
6, 881760, Note_on_c, 4, 74, 90
6, 881760, Note_on_c, 4, 59, 90
6, 882000, Note_on_c, 4, 59, 0
6, 882000, Note_on_c, 4, 74, 0
6, 882000, Note_on_c, 4, 78, 90
6, 882000, Note_on_c, 4, 62, 90
6, 882240, Note_on_c, 4, 62, 0
6, 882240, Note_on_c, 4, 78, 0
6, 882240, Note_on_c, 4, 67, 90
6, 882240, Note_on_c, 4, 52, 90
6, 882240, Note_on_c, 4, 55, 90
6, 882240, Note_on_c, 4, 57, 90
6, 882240, Note_on_c, 4, 61, 90
6, 882480, Note_on_c, 4, 67, 0
6, 882480, Note_on_c, 4, 69, 90
6, 882720, Note_on_c, 4, 69, 0
6, 882720, Note_on_c, 4, 73, 90
6, 882960, Note_on_c, 4, 73, 0
6, 882960, Note_on_c, 4, 76, 90
6, 883200, Note_on_c, 4, 76, 0
6, 883200, Note_on_c, 4, 61, 0
6, 883200, Note_on_c, 4, 52, 0
6, 883200, Note_on_c, 4, 55, 0
6, 883200, Note_on_c, 4, 57, 0
6, 883200, Note_on_c, 4, 79, 90
6, 883440, Note_on_c, 4, 79, 0
6, 883440, Note_on_c, 4, 76, 90
6, 883680, Note_on_c, 4, 76, 0
6, 883680, Note_on_c, 4, 73, 90
6, 883920, Note_on_c, 4, 73, 0
6, 883920, Note_on_c, 4, 67, 90
6, 884160, Note_on_c, 4, 67, 0
6, 884160, Note_on_c, 4, 66, 90
6, 884160, Note_on_c, 4, 50, 90
6, 884160, Note_on_c, 4, 54, 90
6, 884160, Note_on_c, 4, 57, 90
6, 884160, Note_on_c, 4, 62, 90
6, 884400, Note_on_c, 4, 66, 0
6, 884400, Note_on_c, 4, 69, 90
6, 884640, Note_on_c, 4, 69, 0
6, 884640, Note_on_c, 4, 74, 90
6, 884880, Note_on_c, 4, 74, 0
6, 884880, Note_on_c, 4, 78, 90
6, 885120, Note_on_c, 4, 78, 0
6, 885120, Note_on_c, 4, 62, 0
6, 885120, Note_on_c, 4, 50, 0
6, 885120, Note_on_c, 4, 54, 0
6, 885120, Note_on_c, 4, 57, 0
6, 885120, Note_on_c, 4, 81, 90
6, 885360, Note_on_c, 4, 81, 0
6, 885360, Note_on_c, 4, 78, 90
6, 885600, Note_on_c, 4, 78, 0
6, 885600, Note_on_c, 4, 74, 90
6, 885840, Note_on_c, 4, 74, 0
6, 885840, Note_on_c, 4, 69, 90
6, 886080, Note_on_c, 4, 69, 0
6, 886080, Note_on_c, 4, 67, 90
6, 886080, Note_on_c, 4, 52, 90
6, 886080, Note_on_c, 4, 55, 90
6, 886080, Note_on_c, 4, 57, 90
6, 886080, Note_on_c, 4, 61, 90
6, 886320, Note_on_c, 4, 67, 0
6, 886320, Note_on_c, 4, 69, 90
6, 886560, Note_on_c, 4, 69, 0
6, 886560, Note_on_c, 4, 73, 90
6, 886800, Note_on_c, 4, 73, 0
6, 886800, Note_on_c, 4, 76, 90
6, 887040, Note_on_c, 4, 76, 0
6, 887040, Note_on_c, 4, 61, 0
6, 887040, Note_on_c, 4, 52, 0
6, 887040, Note_on_c, 4, 55, 0
6, 887040, Note_on_c, 4, 57, 0
6, 887040, Note_on_c, 4, 79, 90
6, 887280, Note_on_c, 4, 79, 0
6, 887280, Note_on_c, 4, 76, 90
6, 887520, Note_on_c, 4, 76, 0
6, 887520, Note_on_c, 4, 73, 90
6, 887760, Note_on_c, 4, 73, 0
6, 887760, Note_on_c, 4, 67, 90
6, 888000, Note_on_c, 4, 67, 0
6, 888000, Note_on_c, 4, 66, 90
6, 888000, Note_on_c, 4, 50, 90
6, 888240, Note_on_c, 4, 66, 0
6, 888240, Note_on_c, 4, 62, 90
6, 888480, Note_on_c, 4, 62, 0
6, 888480, Note_on_c, 4, 50, 0
6, 888480, Note_on_c, 4, 66, 90
6, 888480, Note_on_c, 4, 54, 90
6, 888720, Note_on_c, 4, 54, 0
6, 888720, Note_on_c, 4, 66, 0
6, 888720, Note_on_c, 4, 69, 90
6, 888720, Note_on_c, 4, 57, 90
6, 888960, Note_on_c, 4, 57, 0
6, 888960, Note_on_c, 4, 69, 0
6, 888960, Note_on_c, 4, 74, 90
6, 888960, Note_on_c, 4, 62, 90
6, 889200, Note_on_c, 4, 62, 0
6, 889200, Note_on_c, 4, 74, 0
6, 889200, Note_on_c, 4, 73, 90
6, 889200, Note_on_c, 4, 61, 90
6, 889440, Note_on_c, 4, 61, 0
6, 889440, Note_on_c, 4, 73, 0
6, 889440, Note_on_c, 4, 74, 90
6, 889440, Note_on_c, 4, 62, 90
6, 889680, Note_on_c, 4, 62, 0
6, 889680, Note_on_c, 4, 74, 0
6, 889680, Note_on_c, 4, 73, 90
6, 889680, Note_on_c, 4, 61, 90
6, 889920, Note_on_c, 4, 61, 0
6, 889920, Note_on_c, 4, 73, 0
6, 889920, Note_on_c, 4, 74, 90
6, 889920, Note_on_c, 4, 62, 90
6, 890160, Note_on_c, 4, 62, 0
6, 890160, Note_on_c, 4, 50, 90
6, 890400, Note_on_c, 4, 50, 0
6, 890400, Note_on_c, 4, 74, 0
6, 890400, Note_on_c, 4, 78, 90
6, 890400, Note_on_c, 4, 54, 90
6, 890640, Note_on_c, 4, 54, 0
6, 890640, Note_on_c, 4, 78, 0
6, 890640, Note_on_c, 4, 81, 90
6, 890640, Note_on_c, 4, 57, 90
6, 890880, Note_on_c, 4, 57, 0
6, 890880, Note_on_c, 4, 81, 0
6, 890880, Note_on_c, 4, 86, 90
6, 890880, Note_on_c, 4, 62, 90
6, 891120, Note_on_c, 4, 62, 0
6, 891120, Note_on_c, 4, 86, 0
6, 891120, Note_on_c, 4, 85, 90
6, 891120, Note_on_c, 4, 61, 90
6, 891360, Note_on_c, 4, 61, 0
6, 891360, Note_on_c, 4, 85, 0
6, 891360, Note_on_c, 4, 86, 90
6, 891360, Note_on_c, 4, 62, 90
6, 891600, Note_on_c, 4, 62, 0
6, 891600, Note_on_c, 4, 86, 0
6, 891600, Note_on_c, 4, 85, 90
6, 891600, Note_on_c, 4, 61, 90
6, 891840, Note_on_c, 4, 61, 0
6, 891840, Note_on_c, 4, 85, 0
6, 891840, Note_on_c, 4, 86, 105
6, 891840, Note_on_c, 4, 62, 105
6, 892320, Note_on_c, 4, 62, 0
6, 892320, Note_on_c, 4, 86, 0
6, 926400, Note_on_c, 4, 55, 105
6, 926640, Note_on_c, 4, 55, 0
6, 926640, Note_on_c, 4, 62, 105
6, 926880, Note_on_c, 4, 62, 0
6, 926880, Note_on_c, 4, 67, 105
6, 926880, Note_on_c, 4, 59, 105
6, 927120, Note_on_c, 4, 59, 0
6, 927120, Note_on_c, 4, 62, 105
6, 927360, Note_on_c, 4, 62, 0
6, 927360, Note_on_c, 4, 67, 0
6, 927360, Note_on_c, 4, 67, 105
6, 927360, Note_on_c, 4, 55, 105
6, 927600, Note_on_c, 4, 55, 0
6, 927600, Note_on_c, 4, 62, 105
6, 927840, Note_on_c, 4, 62, 0
6, 927840, Note_on_c, 4, 67, 0
6, 927840, Note_on_c, 4, 67, 105
6, 927840, Note_on_c, 4, 59, 105
6, 928080, Note_on_c, 4, 59, 0
6, 928080, Note_on_c, 4, 62, 105
6, 928320, Note_on_c, 4, 62, 0
6, 928320, Note_on_c, 4, 67, 0
6, 928320, Note_on_c, 4, 69, 105
6, 928320, Note_on_c, 4, 50, 105
6, 928560, Note_on_c, 4, 50, 0
6, 928560, Note_on_c, 4, 62, 105
6, 928800, Note_on_c, 4, 62, 0
6, 928800, Note_on_c, 4, 60, 105
6, 929040, Note_on_c, 4, 60, 0
6, 929040, Note_on_c, 4, 69, 0
6, 929040, Note_on_c, 4, 71, 105
6, 929040, Note_on_c, 4, 62, 105
6, 929280, Note_on_c, 4, 62, 0
6, 929280, Note_on_c, 4, 71, 0
6, 929280, Note_on_c, 4, 67, 105
6, 929280, Note_on_c, 4, 55, 105
6, 929520, Note_on_c, 4, 55, 0
6, 929520, Note_on_c, 4, 62, 105
6, 929760, Note_on_c, 4, 62, 0
6, 929760, Note_on_c, 4, 67, 0
6, 929760, Note_on_c, 4, 67, 105
6, 929760, Note_on_c, 4, 59, 105
6, 930000, Note_on_c, 4, 59, 0
6, 930000, Note_on_c, 4, 62, 105
6, 930240, Note_on_c, 4, 62, 0
6, 930240, Note_on_c, 4, 67, 0
6, 930240, Note_on_c, 4, 69, 105
6, 930240, Note_on_c, 4, 50, 105
6, 930480, Note_on_c, 4, 50, 0
6, 930480, Note_on_c, 4, 62, 105
6, 930720, Note_on_c, 4, 62, 0
6, 930720, Note_on_c, 4, 60, 105
6, 930960, Note_on_c, 4, 60, 0
6, 930960, Note_on_c, 4, 69, 0
6, 930960, Note_on_c, 4, 71, 105
6, 930960, Note_on_c, 4, 62, 105
6, 931200, Note_on_c, 4, 62, 0
6, 931200, Note_on_c, 4, 71, 0
6, 931200, Note_on_c, 4, 67, 105
6, 931200, Note_on_c, 4, 55, 105
6, 931440, Note_on_c, 4, 55, 0
6, 931440, Note_on_c, 4, 59, 105
6, 931680, Note_on_c, 4, 59, 0
6, 931680, Note_on_c, 4, 67, 0
6, 931680, Note_on_c, 4, 67, 105
6, 931680, Note_on_c, 4, 72, 105
6, 931680, Note_on_c, 4, 52, 105
6, 931920, Note_on_c, 4, 52, 0
6, 931920, Note_on_c, 4, 55, 105
6, 932160, Note_on_c, 4, 55, 0
6, 932160, Note_on_c, 4, 72, 0
6, 932160, Note_on_c, 4, 67, 0
6, 932160, Note_on_c, 4, 67, 105
6, 932160, Note_on_c, 4, 71, 105
6, 932160, Note_on_c, 4, 50, 105
6, 932400, Note_on_c, 4, 50, 0
6, 932400, Note_on_c, 4, 62, 105
6, 932640, Note_on_c, 4, 62, 0
6, 932640, Note_on_c, 4, 61, 105
6, 932880, Note_on_c, 4, 61, 0
6, 932880, Note_on_c, 4, 62, 105
6, 933120, Note_on_c, 4, 62, 0
6, 933120, Note_on_c, 4, 71, 0
6, 933120, Note_on_c, 4, 67, 0
6, 933120, Note_on_c, 4, 66, 105
6, 933120, Note_on_c, 4, 69, 105
6, 933120, Note_on_c, 4, 61, 105
6, 933360, Note_on_c, 4, 61, 0
6, 933360, Note_on_c, 4, 62, 105
6, 933600, Note_on_c, 4, 62, 0
6, 933600, Note_on_c, 4, 69, 0
6, 933600, Note_on_c, 4, 66, 0
6, 933600, Note_on_c, 4, 61, 105
6, 933840, Note_on_c, 4, 61, 0
6, 933840, Note_on_c, 4, 62, 105
6, 934080, Note_on_c, 4, 62, 0
6, 934080, Note_on_c, 4, 50, 105
6, 934320, Note_on_c, 4, 50, 0
6, 934320, Note_on_c, 4, 57, 105
6, 934560, Note_on_c, 4, 57, 0
6, 934560, Note_on_c, 4, 69, 105
6, 934560, Note_on_c, 4, 54, 105
6, 934800, Note_on_c, 4, 54, 0
6, 934800, Note_on_c, 4, 57, 105
6, 935040, Note_on_c, 4, 57, 0
6, 935040, Note_on_c, 4, 69, 0
6, 935040, Note_on_c, 4, 69, 105
6, 935040, Note_on_c, 4, 50, 105
6, 935280, Note_on_c, 4, 50, 0
6, 935280, Note_on_c, 4, 57, 105
6, 935520, Note_on_c, 4, 57, 0
6, 935520, Note_on_c, 4, 69, 0
6, 935520, Note_on_c, 4, 69, 105
6, 935520, Note_on_c, 4, 54, 105
6, 935760, Note_on_c, 4, 54, 0
6, 935760, Note_on_c, 4, 57, 105
6, 936000, Note_on_c, 4, 57, 0
6, 936000, Note_on_c, 4, 69, 0
6, 936000, Note_on_c, 4, 71, 105
6, 936000, Note_on_c, 4, 50, 105
6, 936240, Note_on_c, 4, 50, 0
6, 936240, Note_on_c, 4, 59, 105
6, 936480, Note_on_c, 4, 59, 0
6, 936480, Note_on_c, 4, 55, 105
6, 936720, Note_on_c, 4, 55, 0
6, 936720, Note_on_c, 4, 71, 0
6, 936720, Note_on_c, 4, 72, 105
6, 936720, Note_on_c, 4, 59, 105
6, 936960, Note_on_c, 4, 59, 0
6, 936960, Note_on_c, 4, 72, 0
6, 936960, Note_on_c, 4, 69, 105
6, 936960, Note_on_c, 4, 50, 105
6, 937200, Note_on_c, 4, 50, 0
6, 937200, Note_on_c, 4, 57, 105
6, 937440, Note_on_c, 4, 57, 0
6, 937440, Note_on_c, 4, 69, 0
6, 937440, Note_on_c, 4, 69, 105
6, 937440, Note_on_c, 4, 54, 105
6, 937680, Note_on_c, 4, 54, 0
6, 937680, Note_on_c, 4, 57, 105
6, 937920, Note_on_c, 4, 57, 0
6, 937920, Note_on_c, 4, 69, 0
6, 937920, Note_on_c, 4, 71, 105
6, 937920, Note_on_c, 4, 50, 105
6, 938160, Note_on_c, 4, 50, 0
6, 938160, Note_on_c, 4, 59, 105
6, 938400, Note_on_c, 4, 59, 0
6, 938400, Note_on_c, 4, 55, 105
6, 938640, Note_on_c, 4, 55, 0
6, 938640, Note_on_c, 4, 71, 0
6, 938640, Note_on_c, 4, 72, 105
6, 938640, Note_on_c, 4, 59, 105
6, 938880, Note_on_c, 4, 59, 0
6, 938880, Note_on_c, 4, 72, 0
6, 938880, Note_on_c, 4, 69, 105
6, 938880, Note_on_c, 4, 50, 105
6, 939120, Note_on_c, 4, 50, 0
6, 939120, Note_on_c, 4, 57, 105
6, 939360, Note_on_c, 4, 57, 0
6, 939360, Note_on_c, 4, 69, 0
6, 939360, Note_on_c, 4, 74, 105
6, 939360, Note_on_c, 4, 54, 105
6, 939600, Note_on_c, 4, 54, 0
6, 939600, Note_on_c, 4, 57, 105
6, 939840, Note_on_c, 4, 57, 0
6, 939840, Note_on_c, 4, 74, 0
6, 939840, Note_on_c, 4, 69, 105
6, 939840, Note_on_c, 4, 72, 105
6, 939840, Note_on_c, 4, 43, 105
6, 940080, Note_on_c, 4, 43, 0
6, 940080, Note_on_c, 4, 55, 105
6, 940320, Note_on_c, 4, 55, 0
6, 940320, Note_on_c, 4, 54, 105
6, 940560, Note_on_c, 4, 54, 0
6, 940560, Note_on_c, 4, 55, 105
6, 940800, Note_on_c, 4, 55, 0
6, 940800, Note_on_c, 4, 72, 0
6, 940800, Note_on_c, 4, 69, 0
6, 940800, Note_on_c, 4, 67, 105
6, 940800, Note_on_c, 4, 71, 105
6, 940800, Note_on_c, 4, 54, 105
6, 941040, Note_on_c, 4, 54, 0
6, 941040, Note_on_c, 4, 55, 105
6, 941280, Note_on_c, 4, 55, 0
6, 941280, Note_on_c, 4, 71, 0
6, 941280, Note_on_c, 4, 67, 0
6, 941280, Note_on_c, 4, 54, 105
6, 941520, Note_on_c, 4, 54, 0
6, 941520, Note_on_c, 4, 55, 105
6, 941760, Note_on_c, 4, 55, 0
6, 941760, Note_on_c, 4, 43, 105
6, 942000, Note_on_c, 4, 74, 105
6, 942240, Note_on_c, 4, 74, 0
6, 942240, Note_on_c, 4, 73, 105
6, 942480, Note_on_c, 4, 73, 0
6, 942480, Note_on_c, 4, 74, 105
6, 942720, Note_on_c, 4, 74, 0
6, 942720, Note_on_c, 4, 43, 0
6, 942720, Note_on_c, 4, 72, 105
6, 942960, Note_on_c, 4, 72, 0
6, 942960, Note_on_c, 4, 71, 105
6, 943200, Note_on_c, 4, 71, 0
6, 943200, Note_on_c, 4, 69, 105
6, 943200, Note_on_c, 4, 47, 105
6, 943440, Note_on_c, 4, 69, 0
6, 943440, Note_on_c, 4, 67, 105
6, 943680, Note_on_c, 4, 67, 0
6, 943680, Note_on_c, 4, 47, 0
6, 943680, Note_on_c, 4, 76, 105
6, 943680, Note_on_c, 4, 48, 105
6, 943920, Note_on_c, 4, 48, 0
6, 943920, Note_on_c, 4, 52, 105
6, 944160, Note_on_c, 4, 52, 0
6, 944160, Note_on_c, 4, 76, 0
6, 944160, Note_on_c, 4, 76, 105
6, 944160, Note_on_c, 4, 57, 105
6, 944400, Note_on_c, 4, 57, 0
6, 944400, Note_on_c, 4, 76, 0
6, 944400, Note_on_c, 4, 72, 105
6, 944400, Note_on_c, 4, 60, 105
6, 944640, Note_on_c, 4, 60, 0
6, 944640, Note_on_c, 4, 72, 0
6, 944640, Note_on_c, 4, 69, 105
6, 944640, Note_on_c, 4, 48, 105
6, 944880, Note_on_c, 4, 48, 0
6, 944880, Note_on_c, 4, 52, 105
6, 945120, Note_on_c, 4, 52, 0
6, 945120, Note_on_c, 4, 69, 0
6, 945120, Note_on_c, 4, 57, 105
6, 945360, Note_on_c, 4, 57, 0
6, 945360, Note_on_c, 4, 60, 105
6, 945600, Note_on_c, 4, 60, 0
6, 945600, Note_on_c, 4, 74, 105
6, 945600, Note_on_c, 4, 47, 105
6, 945840, Note_on_c, 4, 47, 0
6, 945840, Note_on_c, 4, 50, 105
6, 946080, Note_on_c, 4, 50, 0
6, 946080, Note_on_c, 4, 74, 0
6, 946080, Note_on_c, 4, 74, 105
6, 946080, Note_on_c, 4, 55, 105
6, 946320, Note_on_c, 4, 55, 0
6, 946320, Note_on_c, 4, 74, 0
6, 946320, Note_on_c, 4, 71, 105
6, 946320, Note_on_c, 4, 59, 105
6, 946560, Note_on_c, 4, 59, 0
6, 946560, Note_on_c, 4, 71, 0
6, 946560, Note_on_c, 4, 67, 105
6, 946560, Note_on_c, 4, 47, 105
6, 946800, Note_on_c, 4, 47, 0
6, 946800, Note_on_c, 4, 50, 105
6, 947040, Note_on_c, 4, 50, 0
6, 947040, Note_on_c, 4, 67, 0
6, 947040, Note_on_c, 4, 55, 105
6, 947280, Note_on_c, 4, 55, 0
6, 947280, Note_on_c, 4, 59, 105
6, 947520, Note_on_c, 4, 59, 0
6, 947520, Note_on_c, 4, 66, 105
6, 947520, Note_on_c, 4, 45, 105
6, 947760, Note_on_c, 4, 45, 0
6, 947760, Note_on_c, 4, 48, 105
6, 948000, Note_on_c, 4, 48, 0
6, 948000, Note_on_c, 4, 66, 0
6, 948000, Note_on_c, 4, 66, 105
6, 948000, Note_on_c, 4, 50, 105
6, 948240, Note_on_c, 4, 50, 0
6, 948240, Note_on_c, 4, 66, 0
6, 948240, Note_on_c, 4, 69, 105
6, 948240, Note_on_c, 4, 54, 105
6, 948480, Note_on_c, 4, 54, 0
6, 948480, Note_on_c, 4, 69, 0
6, 948480, Note_on_c, 4, 72, 105
6, 948480, Note_on_c, 4, 45, 105
6, 948720, Note_on_c, 4, 45, 0
6, 948720, Note_on_c, 4, 48, 105
6, 948960, Note_on_c, 4, 48, 0
6, 948960, Note_on_c, 4, 72, 0
6, 948960, Note_on_c, 4, 50, 105
6, 949200, Note_on_c, 4, 50, 0
6, 949200, Note_on_c, 4, 54, 105
6, 949440, Note_on_c, 4, 54, 0
6, 949440, Note_on_c, 4, 55, 105
6, 949680, Note_on_c, 4, 71, 105
6, 949920, Note_on_c, 4, 71, 0
6, 949920, Note_on_c, 4, 55, 0
6, 949920, Note_on_c, 4, 72, 105
6, 949920, Note_on_c, 4, 57, 105
6, 950160, Note_on_c, 4, 57, 0
6, 950160, Note_on_c, 4, 72, 0
6, 950160, Note_on_c, 4, 74, 105
6, 950160, Note_on_c, 4, 59, 105
6, 950400, Note_on_c, 4, 59, 0
6, 950400, Note_on_c, 4, 74, 0
6, 950400, Note_on_c, 4, 76, 105
6, 950400, Note_on_c, 4, 60, 105
6, 950640, Note_on_c, 4, 60, 0
6, 950640, Note_on_c, 4, 76, 0
6, 950640, Note_on_c, 4, 78, 105
6, 950640, Note_on_c, 4, 62, 105
6, 950880, Note_on_c, 4, 62, 0
6, 950880, Note_on_c, 4, 78, 0
6, 950880, Note_on_c, 4, 79, 105
6, 950880, Note_on_c, 4, 64, 105
6, 951120, Note_on_c, 4, 64, 0
6, 951120, Note_on_c, 4, 79, 0
6, 951120, Note_on_c, 4, 81, 105
6, 951120, Note_on_c, 4, 66, 105
6, 951360, Note_on_c, 4, 66, 0
6, 951360, Note_on_c, 4, 81, 0
6, 951360, Note_on_c, 4, 83, 105
6, 951360, Note_on_c, 4, 67, 105
6, 951840, Note_on_c, 4, 67, 0
6, 951840, Note_on_c, 4, 83, 0
6, 951840, Note_on_c, 4, 84, 105
6, 951840, Note_on_c, 4, 69, 105
6, 952320, Note_on_c, 4, 69, 0
6, 952320, Note_on_c, 4, 84, 0
6, 952320, Note_on_c, 4, 86, 105
6, 952320, Note_on_c, 4, 71, 105
6, 952800, Note_on_c, 4, 71, 0
6, 952800, Note_on_c, 4, 86, 0
6, 952800, Note_on_c, 4, 88, 105
6, 952800, Note_on_c, 4, 72, 105
6, 953280, Note_on_c, 4, 72, 0
6, 953280, Note_on_c, 4, 88, 0
6, 953280, Note_on_c, 4, 83, 105
6, 953280, Note_on_c, 4, 67, 105
6, 953400, Note_on_c, 4, 67, 0
6, 953400, Note_on_c, 4, 83, 0
6, 953400, Note_on_c, 4, 81, 105
6, 953400, Note_on_c, 4, 66, 105
6, 953520, Note_on_c, 4, 66, 0
6, 953520, Note_on_c, 4, 81, 0
6, 953520, Note_on_c, 4, 83, 105
6, 953520, Note_on_c, 4, 67, 105
6, 953640, Note_on_c, 4, 67, 0
6, 953640, Note_on_c, 4, 83, 0
6, 953640, Note_on_c, 4, 81, 105
6, 953640, Note_on_c, 4, 66, 105
6, 953760, Note_on_c, 4, 66, 0
6, 953760, Note_on_c, 4, 81, 0
6, 953760, Note_on_c, 4, 83, 105
6, 953760, Note_on_c, 4, 67, 105
6, 953820, Note_on_c, 4, 67, 0
6, 953820, Note_on_c, 4, 83, 0
6, 953820, Note_on_c, 4, 81, 105
6, 953820, Note_on_c, 4, 66, 105
6, 953880, Note_on_c, 4, 66, 0
6, 953880, Note_on_c, 4, 81, 0
6, 953880, Note_on_c, 4, 83, 105
6, 953880, Note_on_c, 4, 67, 105
6, 953940, Note_on_c, 4, 67, 0
6, 953940, Note_on_c, 4, 83, 0
6, 953940, Note_on_c, 4, 81, 105
6, 953940, Note_on_c, 4, 66, 105
6, 954000, Note_on_c, 4, 66, 0
6, 954000, Note_on_c, 4, 81, 0
6, 954000, Note_on_c, 4, 83, 105
6, 954000, Note_on_c, 4, 67, 105
6, 954060, Note_on_c, 4, 67, 0
6, 954060, Note_on_c, 4, 83, 0
6, 954060, Note_on_c, 4, 81, 105
6, 954060, Note_on_c, 4, 66, 105
6, 954120, Note_on_c, 4, 66, 0
6, 954120, Note_on_c, 4, 81, 0
6, 954120, Note_on_c, 4, 83, 105
6, 954120, Note_on_c, 4, 67, 105
6, 954180, Note_on_c, 4, 67, 0
6, 954180, Note_on_c, 4, 83, 0
6, 954180, Note_on_c, 4, 81, 105
6, 954180, Note_on_c, 4, 66, 105
6, 954240, Note_on_c, 4, 66, 0
6, 954240, Note_on_c, 4, 81, 0
6, 954240, Note_on_c, 4, 83, 105
6, 954240, Note_on_c, 4, 67, 105
6, 954300, Note_on_c, 4, 67, 0
6, 954300, Note_on_c, 4, 83, 0
6, 954300, Note_on_c, 4, 81, 105
6, 954300, Note_on_c, 4, 66, 105
6, 954360, Note_on_c, 4, 66, 0
6, 954360, Note_on_c, 4, 81, 0
6, 954360, Note_on_c, 4, 83, 105
6, 954360, Note_on_c, 4, 67, 105
6, 954420, Note_on_c, 4, 67, 0
6, 954420, Note_on_c, 4, 83, 0
6, 954420, Note_on_c, 4, 81, 105
6, 954420, Note_on_c, 4, 66, 105
6, 954480, Note_on_c, 4, 66, 0
6, 954480, Note_on_c, 4, 81, 0
6, 954480, Note_on_c, 4, 83, 105
6, 954480, Note_on_c, 4, 67, 105
6, 954540, Note_on_c, 4, 67, 0
6, 954540, Note_on_c, 4, 83, 0
6, 954540, Note_on_c, 4, 81, 105
6, 954540, Note_on_c, 4, 66, 105
6, 954600, Note_on_c, 4, 66, 0
6, 954600, Note_on_c, 4, 81, 0
6, 954600, Note_on_c, 4, 83, 105
6, 954600, Note_on_c, 4, 67, 105
6, 954660, Note_on_c, 4, 67, 0
6, 954660, Note_on_c, 4, 83, 0
6, 954660, Note_on_c, 4, 81, 105
6, 954660, Note_on_c, 4, 66, 105
6, 954720, Note_on_c, 4, 66, 0
6, 954720, Note_on_c, 4, 81, 0
6, 954720, Note_on_c, 4, 83, 105
6, 954720, Note_on_c, 4, 67, 105
6, 954780, Note_on_c, 4, 67, 0
6, 954780, Note_on_c, 4, 83, 0
6, 954780, Note_on_c, 4, 81, 105
6, 954780, Note_on_c, 4, 66, 105
6, 954840, Note_on_c, 4, 66, 0
6, 954840, Note_on_c, 4, 81, 0
6, 954840, Note_on_c, 4, 83, 105
6, 954840, Note_on_c, 4, 67, 105
6, 954900, Note_on_c, 4, 67, 0
6, 954900, Note_on_c, 4, 83, 0
6, 954900, Note_on_c, 4, 81, 105
6, 954900, Note_on_c, 4, 66, 105
6, 954960, Note_on_c, 4, 66, 0
6, 954960, Note_on_c, 4, 81, 0
6, 954960, Note_on_c, 4, 79, 105
6, 954960, Note_on_c, 4, 64, 105
6, 955080, Note_on_c, 4, 64, 0
6, 955080, Note_on_c, 4, 79, 0
6, 955080, Note_on_c, 4, 81, 105
6, 955080, Note_on_c, 4, 66, 105
6, 955200, Note_on_c, 4, 66, 0
6, 955200, Note_on_c, 4, 81, 0
6, 955200, Note_on_c, 4, 79, 105
6, 955200, Note_on_c, 4, 67, 105
6, 955680, Note_on_c, 4, 67, 0
6, 955680, Note_on_c, 4, 79, 0
6, 955680, Note_on_c, 4, 67, 105
6, 955680, Note_on_c, 4, 55, 105
6, 955920, Note_on_c, 4, 55, 0
6, 955920, Note_on_c, 4, 67, 0
6, 955920, Note_on_c, 4, 67, 105
6, 955920, Note_on_c, 4, 55, 105
6, 956160, Note_on_c, 4, 55, 0
6, 956160, Note_on_c, 4, 67, 0
6, 956160, Note_on_c, 4, 66, 105
6, 956160, Note_on_c, 4, 54, 105
6, 956400, Note_on_c, 4, 54, 0
6, 956400, Note_on_c, 4, 66, 0
6, 956400, Note_on_c, 4, 69, 105
6, 956400, Note_on_c, 4, 57, 105
6, 956640, Note_on_c, 4, 57, 0
6, 956640, Note_on_c, 4, 69, 0
6, 956640, Note_on_c, 4, 72, 105
6, 956640, Note_on_c, 4, 60, 105
6, 956880, Note_on_c, 4, 60, 0
6, 956880, Note_on_c, 4, 72, 0
6, 956880, Note_on_c, 4, 72, 105
6, 956880, Note_on_c, 4, 60, 105
6, 957120, Note_on_c, 4, 60, 0
6, 957120, Note_on_c, 4, 72, 0
6, 957120, Note_on_c, 4, 71, 105
6, 957120, Note_on_c, 4, 59, 105
6, 957360, Note_on_c, 4, 59, 0
6, 957360, Note_on_c, 4, 71, 0
6, 957360, Note_on_c, 4, 74, 105
6, 957360, Note_on_c, 4, 62, 105
6, 957600, Note_on_c, 4, 62, 0
6, 957600, Note_on_c, 4, 74, 0
6, 957600, Note_on_c, 4, 79, 105
6, 957600, Note_on_c, 4, 67, 105
6, 957840, Note_on_c, 4, 67, 0
6, 957840, Note_on_c, 4, 79, 0
6, 957840, Note_on_c, 4, 79, 105
6, 957840, Note_on_c, 4, 67, 105
6, 958080, Note_on_c, 4, 67, 0
6, 958080, Note_on_c, 4, 79, 0
6, 958080, Note_on_c, 4, 78, 105
6, 958080, Note_on_c, 4, 66, 105
6, 958320, Note_on_c, 4, 66, 0
6, 958320, Note_on_c, 4, 78, 0
6, 958320, Note_on_c, 4, 81, 105
6, 958320, Note_on_c, 4, 69, 105
6, 958560, Note_on_c, 4, 69, 0
6, 958560, Note_on_c, 4, 81, 0
6, 958560, Note_on_c, 4, 84, 105
6, 958560, Note_on_c, 4, 72, 105
6, 958800, Note_on_c, 4, 72, 0
6, 958800, Note_on_c, 4, 84, 0
6, 958800, Note_on_c, 4, 84, 105
6, 958800, Note_on_c, 4, 72, 105
6, 959040, Note_on_c, 4, 72, 0
6, 959040, Note_on_c, 4, 84, 0
6, 959040, Note_on_c, 4, 83, 105
6, 959040, Note_on_c, 4, 71, 105
6, 959428, Note_on_c, 4, 74, 105
6, 959460, Note_on_c, 4, 79, 105
6, 959488, Note_on_c, 4, 83, 105
6, 959520, Note_on_c, 4, 83, 0
6, 959520, Note_on_c, 4, 71, 0
6, 959520, Note_on_c, 4, 86, 105
6, 959520, Note_on_c, 4, 62, 105
6, 959760, Note_on_c, 4, 62, 0
6, 959760, Note_on_c, 4, 62, 105
6, 960000, Note_on_c, 4, 62, 0
6, 960000, Note_on_c, 4, 86, 0
6, 960000, Note_on_c, 4, 79, 0
6, 960000, Note_on_c, 4, 74, 0
6, 960000, Note_on_c, 4, 83, 0
6, 960000, Note_on_c, 4, 69, 105
6, 960388, Note_on_c, 4, 74, 105
6, 960420, Note_on_c, 4, 78, 105
6, 960448, Note_on_c, 4, 81, 105
6, 960480, Note_on_c, 4, 69, 0
6, 960480, Note_on_c, 4, 86, 105
6, 960480, Note_on_c, 4, 62, 105
6, 960720, Note_on_c, 4, 62, 0
6, 960720, Note_on_c, 4, 62, 105
6, 960960, Note_on_c, 4, 62, 0
6, 960960, Note_on_c, 4, 86, 0
6, 960960, Note_on_c, 4, 81, 0
6, 960960, Note_on_c, 4, 78, 0
6, 960960, Note_on_c, 4, 74, 0
6, 960960, Note_on_c, 4, 71, 105
6, 961348, Note_on_c, 4, 74, 105
6, 961380, Note_on_c, 4, 79, 105
6, 961408, Note_on_c, 4, 83, 105
6, 961440, Note_on_c, 4, 71, 0
6, 961440, Note_on_c, 4, 86, 105
6, 961440, Note_on_c, 4, 62, 105
6, 961680, Note_on_c, 4, 62, 0
6, 961680, Note_on_c, 4, 62, 105
6, 961920, Note_on_c, 4, 62, 0
6, 961920, Note_on_c, 4, 86, 0
6, 961920, Note_on_c, 4, 83, 0
6, 961920, Note_on_c, 4, 79, 0
6, 961920, Note_on_c, 4, 74, 0
6, 961920, Note_on_c, 4, 66, 105
6, 962308, Note_on_c, 4, 74, 105
6, 962340, Note_on_c, 4, 81, 105
6, 962368, Note_on_c, 4, 84, 105
6, 962400, Note_on_c, 4, 66, 0
6, 962400, Note_on_c, 4, 86, 105
6, 962400, Note_on_c, 4, 62, 105
6, 962640, Note_on_c, 4, 62, 0
6, 962640, Note_on_c, 4, 62, 105
6, 962880, Note_on_c, 4, 62, 0
6, 962880, Note_on_c, 4, 86, 0
6, 962880, Note_on_c, 4, 84, 0
6, 962880, Note_on_c, 4, 81, 0
6, 962880, Note_on_c, 4, 74, 0
6, 962880, Note_on_c, 4, 67, 105
6, 963268, Note_on_c, 4, 74, 105
6, 963300, Note_on_c, 4, 79, 105
6, 963328, Note_on_c, 4, 83, 105
6, 963360, Note_on_c, 4, 67, 0
6, 963360, Note_on_c, 4, 86, 105
6, 963360, Note_on_c, 4, 62, 105
6, 963600, Note_on_c, 4, 62, 0
6, 963600, Note_on_c, 4, 62, 105
6, 963840, Note_on_c, 4, 62, 0
6, 963840, Note_on_c, 4, 86, 0
6, 963840, Note_on_c, 4, 83, 0
6, 963840, Note_on_c, 4, 79, 0
6, 963840, Note_on_c, 4, 74, 0
6, 963840, Note_on_c, 4, 69, 105
6, 964228, Note_on_c, 4, 74, 105
6, 964260, Note_on_c, 4, 78, 105
6, 964288, Note_on_c, 4, 81, 105
6, 964320, Note_on_c, 4, 69, 0
6, 964320, Note_on_c, 4, 86, 105
6, 964320, Note_on_c, 4, 62, 105
6, 964560, Note_on_c, 4, 62, 0
6, 964560, Note_on_c, 4, 62, 105
6, 964800, Note_on_c, 4, 62, 0
6, 964800, Note_on_c, 4, 86, 0
6, 964800, Note_on_c, 4, 81, 0
6, 964800, Note_on_c, 4, 78, 0
6, 964800, Note_on_c, 4, 74, 0
6, 964800, Note_on_c, 4, 71, 105
6, 965188, Note_on_c, 4, 74, 105
6, 965220, Note_on_c, 4, 79, 105
6, 965248, Note_on_c, 4, 83, 105
6, 965280, Note_on_c, 4, 71, 0
6, 965280, Note_on_c, 4, 86, 105
6, 965280, Note_on_c, 4, 62, 105
6, 965520, Note_on_c, 4, 62, 0
6, 965520, Note_on_c, 4, 62, 105
6, 965760, Note_on_c, 4, 62, 0
6, 965760, Note_on_c, 4, 86, 0
6, 965760, Note_on_c, 4, 83, 0
6, 965760, Note_on_c, 4, 79, 0
6, 965760, Note_on_c, 4, 74, 0
6, 965760, Note_on_c, 4, 66, 105
6, 966148, Note_on_c, 4, 74, 105
6, 966180, Note_on_c, 4, 81, 105
6, 966208, Note_on_c, 4, 84, 105
6, 966240, Note_on_c, 4, 66, 0
6, 966240, Note_on_c, 4, 86, 105
6, 966240, Note_on_c, 4, 62, 105
6, 966480, Note_on_c, 4, 62, 0
6, 966480, Note_on_c, 4, 62, 105
6, 966720, Note_on_c, 4, 62, 0
6, 966720, Note_on_c, 4, 86, 0
6, 966720, Note_on_c, 4, 84, 0
6, 966720, Note_on_c, 4, 81, 0
6, 966720, Note_on_c, 4, 74, 0
6, 966720, Note_on_c, 4, 67, 105
6, 966876, Note_on_c, 4, 83, 105
6, 967040, Note_on_c, 4, 83, 0
6, 967040, Note_on_c, 4, 84, 105
6, 967200, Note_on_c, 4, 84, 0
6, 967200, Note_on_c, 4, 67, 0
6, 967200, Note_on_c, 4, 86, 105
6, 967356, Note_on_c, 4, 86, 0
6, 967356, Note_on_c, 4, 84, 105
6, 967520, Note_on_c, 4, 84, 0
6, 967520, Note_on_c, 4, 83, 105
6, 967680, Note_on_c, 4, 83, 0
6, 967680, Note_on_c, 4, 64, 105
6, 967836, Note_on_c, 4, 79, 105
6, 968000, Note_on_c, 4, 79, 0
6, 968000, Note_on_c, 4, 81, 105
6, 968160, Note_on_c, 4, 81, 0
6, 968160, Note_on_c, 4, 64, 0
6, 968160, Note_on_c, 4, 83, 105
6, 968316, Note_on_c, 4, 83, 0
6, 968316, Note_on_c, 4, 81, 105
6, 968480, Note_on_c, 4, 81, 0
6, 968480, Note_on_c, 4, 79, 105
6, 968640, Note_on_c, 4, 79, 0
6, 968640, Note_on_c, 4, 60, 105
6, 968796, Note_on_c, 4, 76, 105
6, 968960, Note_on_c, 4, 76, 0
6, 968960, Note_on_c, 4, 78, 105
6, 969120, Note_on_c, 4, 78, 0
6, 969120, Note_on_c, 4, 60, 0
6, 969120, Note_on_c, 4, 79, 105
6, 969276, Note_on_c, 4, 79, 0
6, 969276, Note_on_c, 4, 78, 105
6, 969440, Note_on_c, 4, 78, 0
6, 969440, Note_on_c, 4, 76, 105
6, 969600, Note_on_c, 4, 76, 0
6, 969600, Note_on_c, 4, 57, 105
6, 969756, Note_on_c, 4, 72, 105
6, 969920, Note_on_c, 4, 72, 0
6, 969920, Note_on_c, 4, 74, 105
6, 970080, Note_on_c, 4, 74, 0
6, 970080, Note_on_c, 4, 57, 0
6, 970080, Note_on_c, 4, 76, 105
6, 970236, Note_on_c, 4, 76, 0
6, 970236, Note_on_c, 4, 74, 105
6, 970400, Note_on_c, 4, 74, 0
6, 970400, Note_on_c, 4, 72, 105
6, 970560, Note_on_c, 4, 72, 0
6, 970560, Note_on_c, 4, 74, 105
6, 970560, Note_on_c, 4, 81, 105
6, 970560, Note_on_c, 4, 84, 105
6, 970800, Note_on_c, 4, 50, 105
6, 970896, Note_on_c, 4, 50, 0
6, 971040, Note_on_c, 4, 52, 105
6, 971136, Note_on_c, 4, 52, 0
6, 971280, Note_on_c, 4, 54, 105
6, 971376, Note_on_c, 4, 54, 0
6, 971520, Note_on_c, 4, 74, 0
6, 971520, Note_on_c, 4, 81, 0
6, 971520, Note_on_c, 4, 84, 0
6, 971520, Note_on_c, 4, 74, 105
6, 971520, Note_on_c, 4, 79, 105
6, 971520, Note_on_c, 4, 83, 105
6, 971520, Note_on_c, 4, 55, 105
6, 971616, Note_on_c, 4, 55, 0
6, 971760, Note_on_c, 4, 57, 105
6, 971856, Note_on_c, 4, 57, 0
6, 972000, Note_on_c, 4, 83, 0
6, 972000, Note_on_c, 4, 79, 0
6, 972000, Note_on_c, 4, 74, 0
6, 972000, Note_on_c, 4, 71, 105
6, 972000, Note_on_c, 4, 74, 105
6, 972000, Note_on_c, 4, 79, 105
6, 972000, Note_on_c, 4, 59, 105
6, 972096, Note_on_c, 4, 59, 0
6, 972240, Note_on_c, 4, 60, 105
6, 972336, Note_on_c, 4, 60, 0
6, 972480, Note_on_c, 4, 79, 0
6, 972480, Note_on_c, 4, 74, 0
6, 972480, Note_on_c, 4, 71, 0
6, 972480, Note_on_c, 4, 69, 105
6, 972480, Note_on_c, 4, 74, 105
6, 972480, Note_on_c, 4, 78, 105
6, 972480, Note_on_c, 4, 62, 105
6, 972960, Note_on_c, 4, 62, 0
6, 972960, Note_on_c, 4, 69, 0
6, 972960, Note_on_c, 4, 74, 0
6, 972960, Note_on_c, 4, 78, 0
6, 972960, Note_on_c, 4, 71, 105
6, 972960, Note_on_c, 4, 74, 105
6, 972960, Note_on_c, 4, 79, 105
6, 972960, Note_on_c, 4, 59, 105
6, 973440, Note_on_c, 4, 59, 0
6, 973440, Note_on_c, 4, 71, 0
6, 973440, Note_on_c, 4, 74, 0
6, 973440, Note_on_c, 4, 79, 0
6, 973440, Note_on_c, 4, 69, 105
6, 973440, Note_on_c, 4, 76, 105
6, 973440, Note_on_c, 4, 81, 105
6, 973440, Note_on_c, 4, 60, 105
6, 973920, Note_on_c, 4, 60, 0
6, 973920, Note_on_c, 4, 69, 0
6, 973920, Note_on_c, 4, 76, 0
6, 973920, Note_on_c, 4, 81, 0
6, 973920, Note_on_c, 4, 69, 105
6, 973920, Note_on_c, 4, 72, 105
6, 973920, Note_on_c, 4, 78, 105
6, 973920, Note_on_c, 4, 62, 105
6, 974400, Note_on_c, 4, 62, 0
6, 974400, Note_on_c, 4, 69, 0
6, 974400, Note_on_c, 4, 72, 0
6, 974400, Note_on_c, 4, 78, 0
6, 974400, Note_on_c, 4, 67, 105
6, 974556, Note_on_c, 4, 83, 105
6, 974720, Note_on_c, 4, 83, 0
6, 974720, Note_on_c, 4, 84, 105
6, 974880, Note_on_c, 4, 84, 0
6, 974880, Note_on_c, 4, 67, 0
6, 974880, Note_on_c, 4, 86, 105
6, 975036, Note_on_c, 4, 86, 0
6, 975036, Note_on_c, 4, 84, 105
6, 975200, Note_on_c, 4, 84, 0
6, 975200, Note_on_c, 4, 83, 105
6, 975360, Note_on_c, 4, 83, 0
6, 975360, Note_on_c, 4, 64, 105
6, 975516, Note_on_c, 4, 79, 105
6, 975680, Note_on_c, 4, 79, 0
6, 975680, Note_on_c, 4, 81, 105
6, 975840, Note_on_c, 4, 81, 0
6, 975840, Note_on_c, 4, 64, 0
6, 975840, Note_on_c, 4, 83, 105
6, 975996, Note_on_c, 4, 83, 0
6, 975996, Note_on_c, 4, 81, 105
6, 976160, Note_on_c, 4, 81, 0
6, 976160, Note_on_c, 4, 79, 105
6, 976320, Note_on_c, 4, 79, 0
6, 976320, Note_on_c, 4, 60, 105
6, 976476, Note_on_c, 4, 76, 105
6, 976640, Note_on_c, 4, 76, 0
6, 976640, Note_on_c, 4, 78, 105
6, 976800, Note_on_c, 4, 78, 0
6, 976800, Note_on_c, 4, 60, 0
6, 976800, Note_on_c, 4, 79, 105
6, 976956, Note_on_c, 4, 79, 0
6, 976956, Note_on_c, 4, 78, 105
6, 977120, Note_on_c, 4, 78, 0
6, 977120, Note_on_c, 4, 76, 105
6, 977280, Note_on_c, 4, 76, 0
6, 977280, Note_on_c, 4, 57, 105
6, 977436, Note_on_c, 4, 72, 105
6, 977600, Note_on_c, 4, 72, 0
6, 977600, Note_on_c, 4, 74, 105
6, 977760, Note_on_c, 4, 74, 0
6, 977760, Note_on_c, 4, 57, 0
6, 977760, Note_on_c, 4, 76, 105
6, 977916, Note_on_c, 4, 76, 0
6, 977916, Note_on_c, 4, 74, 105
6, 978080, Note_on_c, 4, 74, 0
6, 978080, Note_on_c, 4, 72, 105
6, 978240, Note_on_c, 4, 72, 0
6, 978240, Note_on_c, 4, 74, 105
6, 978240, Note_on_c, 4, 81, 105
6, 978240, Note_on_c, 4, 84, 105
6, 978480, Note_on_c, 4, 50, 105
6, 978576, Note_on_c, 4, 50, 0
6, 978720, Note_on_c, 4, 52, 105
6, 978816, Note_on_c, 4, 52, 0
6, 978960, Note_on_c, 4, 54, 105
6, 979056, Note_on_c, 4, 54, 0
6, 979200, Note_on_c, 4, 74, 0
6, 979200, Note_on_c, 4, 81, 0
6, 979200, Note_on_c, 4, 84, 0
6, 979200, Note_on_c, 4, 74, 105
6, 979200, Note_on_c, 4, 79, 105
6, 979200, Note_on_c, 4, 83, 105
6, 979200, Note_on_c, 4, 55, 105
6, 979296, Note_on_c, 4, 55, 0
6, 979440, Note_on_c, 4, 57, 105
6, 979536, Note_on_c, 4, 57, 0
6, 979680, Note_on_c, 4, 83, 0
6, 979680, Note_on_c, 4, 79, 0
6, 979680, Note_on_c, 4, 74, 0
6, 979680, Note_on_c, 4, 71, 105
6, 979680, Note_on_c, 4, 74, 105
6, 979680, Note_on_c, 4, 79, 105
6, 979680, Note_on_c, 4, 59, 105
6, 979776, Note_on_c, 4, 59, 0
6, 979920, Note_on_c, 4, 60, 105
6, 980016, Note_on_c, 4, 60, 0
6, 980160, Note_on_c, 4, 79, 0
6, 980160, Note_on_c, 4, 74, 0
6, 980160, Note_on_c, 4, 71, 0
6, 980160, Note_on_c, 4, 69, 105
6, 980160, Note_on_c, 4, 74, 105
6, 980160, Note_on_c, 4, 78, 105
6, 980160, Note_on_c, 4, 62, 105
6, 980640, Note_on_c, 4, 62, 0
6, 980640, Note_on_c, 4, 69, 0
6, 980640, Note_on_c, 4, 74, 0
6, 980640, Note_on_c, 4, 78, 0
6, 980640, Note_on_c, 4, 71, 105
6, 980640, Note_on_c, 4, 74, 105
6, 980640, Note_on_c, 4, 79, 105
6, 980640, Note_on_c, 4, 59, 105
6, 981120, Note_on_c, 4, 59, 0
6, 981120, Note_on_c, 4, 71, 0
6, 981120, Note_on_c, 4, 74, 0
6, 981120, Note_on_c, 4, 79, 0
6, 981120, Note_on_c, 4, 69, 105
6, 981120, Note_on_c, 4, 76, 105
6, 981120, Note_on_c, 4, 81, 105
6, 981120, Note_on_c, 4, 60, 105
6, 981600, Note_on_c, 4, 60, 0
6, 981600, Note_on_c, 4, 69, 0
6, 981600, Note_on_c, 4, 76, 0
6, 981600, Note_on_c, 4, 81, 0
6, 981600, Note_on_c, 4, 69, 105
6, 981600, Note_on_c, 4, 72, 105
6, 981600, Note_on_c, 4, 78, 105
6, 981600, Note_on_c, 4, 62, 105
6, 982080, Note_on_c, 4, 62, 0
6, 982080, Note_on_c, 4, 69, 0
6, 982080, Note_on_c, 4, 72, 0
6, 982080, Note_on_c, 4, 78, 0
6, 982080, Note_on_c, 4, 74, 105
6, 982080, Note_on_c, 4, 81, 105
6, 982080, Note_on_c, 4, 84, 105
6, 982320, Note_on_c, 4, 50, 105
6, 982416, Note_on_c, 4, 50, 0
6, 982560, Note_on_c, 4, 52, 105
6, 982656, Note_on_c, 4, 52, 0
6, 982800, Note_on_c, 4, 54, 105
6, 982896, Note_on_c, 4, 54, 0
6, 983040, Note_on_c, 4, 74, 0
6, 983040, Note_on_c, 4, 81, 0
6, 983040, Note_on_c, 4, 84, 0
6, 983040, Note_on_c, 4, 74, 105
6, 983040, Note_on_c, 4, 79, 105
6, 983040, Note_on_c, 4, 83, 105
6, 983040, Note_on_c, 4, 55, 105
6, 983136, Note_on_c, 4, 55, 0
6, 983280, Note_on_c, 4, 57, 105
6, 983376, Note_on_c, 4, 57, 0
6, 983520, Note_on_c, 4, 83, 0
6, 983520, Note_on_c, 4, 79, 0
6, 983520, Note_on_c, 4, 74, 0
6, 983520, Note_on_c, 4, 71, 105
6, 983520, Note_on_c, 4, 74, 105
6, 983520, Note_on_c, 4, 79, 105
6, 983520, Note_on_c, 4, 59, 105
6, 983616, Note_on_c, 4, 59, 0
6, 983760, Note_on_c, 4, 60, 105
6, 983856, Note_on_c, 4, 60, 0
6, 984000, Note_on_c, 4, 79, 0
6, 984000, Note_on_c, 4, 74, 0
6, 984000, Note_on_c, 4, 71, 0
6, 984000, Note_on_c, 4, 69, 105
6, 984000, Note_on_c, 4, 74, 105
6, 984000, Note_on_c, 4, 78, 105
6, 984000, Note_on_c, 4, 62, 105
6, 984480, Note_on_c, 4, 62, 0
6, 984480, Note_on_c, 4, 69, 0
6, 984480, Note_on_c, 4, 74, 0
6, 984480, Note_on_c, 4, 78, 0
6, 984480, Note_on_c, 4, 71, 105
6, 984480, Note_on_c, 4, 74, 105
6, 984480, Note_on_c, 4, 79, 105
6, 984480, Note_on_c, 4, 59, 105
6, 984960, Note_on_c, 4, 59, 0
6, 984960, Note_on_c, 4, 71, 0
6, 984960, Note_on_c, 4, 74, 0
6, 984960, Note_on_c, 4, 79, 0
6, 984960, Note_on_c, 4, 69, 105
6, 984960, Note_on_c, 4, 76, 105
6, 984960, Note_on_c, 4, 81, 105
6, 984960, Note_on_c, 4, 60, 105
6, 985440, Note_on_c, 4, 60, 0
6, 985440, Note_on_c, 4, 69, 0
6, 985440, Note_on_c, 4, 76, 0
6, 985440, Note_on_c, 4, 81, 0
6, 985440, Note_on_c, 4, 69, 105
6, 985440, Note_on_c, 4, 72, 105
6, 985440, Note_on_c, 4, 78, 105
6, 985440, Note_on_c, 4, 62, 105
6, 985920, Note_on_c, 4, 62, 0
6, 985920, Note_on_c, 4, 69, 0
6, 985920, Note_on_c, 4, 72, 0
6, 985920, Note_on_c, 4, 78, 0
6, 985920, Note_on_c, 4, 71, 105
6, 985920, Note_on_c, 4, 74, 105
6, 985920, Note_on_c, 4, 79, 105
6, 985920, Note_on_c, 4, 55, 105
6, 986400, Note_on_c, 4, 55, 0
6, 986400, Note_on_c, 4, 71, 0
6, 986400, Note_on_c, 4, 74, 0
6, 986400, Note_on_c, 4, 79, 0
6, 993600, Note_on_c, 4, 71, 105
6, 993600, Note_on_c, 4, 67, 105
6, 993840, Note_on_c, 4, 67, 0
6, 993840, Note_on_c, 4, 71, 0
6, 993840, Note_on_c, 4, 74, 105
6, 993840, Note_on_c, 4, 59, 105
6, 994080, Note_on_c, 4, 59, 0
6, 994080, Note_on_c, 4, 74, 0
6, 994080, Note_on_c, 4, 71, 105
6, 994080, Note_on_c, 4, 67, 105
6, 994320, Note_on_c, 4, 67, 0
6, 994320, Note_on_c, 4, 71, 0
6, 994320, Note_on_c, 4, 74, 105
6, 994320, Note_on_c, 4, 59, 105
6, 994560, Note_on_c, 4, 59, 0
6, 994560, Note_on_c, 4, 74, 0
6, 994560, Note_on_c, 4, 71, 105
6, 994560, Note_on_c, 4, 67, 105
6, 994800, Note_on_c, 4, 67, 0
6, 994800, Note_on_c, 4, 71, 0
6, 994800, Note_on_c, 4, 74, 105
6, 994800, Note_on_c, 4, 59, 105
6, 995040, Note_on_c, 4, 59, 0
6, 995040, Note_on_c, 4, 74, 0
6, 995040, Note_on_c, 4, 72, 105
6, 995040, Note_on_c, 4, 66, 105
6, 995280, Note_on_c, 4, 66, 0
6, 995280, Note_on_c, 4, 72, 0
6, 995280, Note_on_c, 4, 74, 105
6, 995280, Note_on_c, 4, 59, 105
6, 995520, Note_on_c, 4, 59, 0
6, 995520, Note_on_c, 4, 74, 0
6, 995520, Note_on_c, 4, 71, 105
6, 995520, Note_on_c, 4, 67, 105
6, 995760, Note_on_c, 4, 67, 0
6, 995760, Note_on_c, 4, 71, 0
6, 995760, Note_on_c, 4, 74, 105
6, 995760, Note_on_c, 4, 59, 105
6, 996000, Note_on_c, 4, 59, 0
6, 996000, Note_on_c, 4, 74, 0
6, 996000, Note_on_c, 4, 72, 105
6, 996000, Note_on_c, 4, 66, 105
6, 996240, Note_on_c, 4, 66, 0
6, 996240, Note_on_c, 4, 72, 0
6, 996240, Note_on_c, 4, 74, 105
6, 996240, Note_on_c, 4, 59, 105
6, 996480, Note_on_c, 4, 59, 0
6, 996480, Note_on_c, 4, 74, 0
6, 996480, Note_on_c, 4, 71, 105
6, 996480, Note_on_c, 4, 67, 105
6, 996720, Note_on_c, 4, 67, 0
6, 996720, Note_on_c, 4, 71, 0
6, 996720, Note_on_c, 4, 74, 105
6, 996720, Note_on_c, 4, 59, 105
6, 996960, Note_on_c, 4, 59, 0
6, 996960, Note_on_c, 4, 74, 0
6, 996960, Note_on_c, 4, 72, 105
6, 996960, Note_on_c, 4, 66, 105
6, 997200, Note_on_c, 4, 66, 0
6, 997200, Note_on_c, 4, 72, 0
6, 997200, Note_on_c, 4, 74, 105
6, 997200, Note_on_c, 4, 59, 105
6, 997440, Note_on_c, 4, 59, 0
6, 997440, Note_on_c, 4, 74, 0
6, 997440, Note_on_c, 4, 71, 105
6, 997440, Note_on_c, 4, 67, 105
6, 997680, Note_on_c, 4, 67, 0
6, 997680, Note_on_c, 4, 71, 0
6, 997680, Note_on_c, 4, 74, 105
6, 997680, Note_on_c, 4, 59, 105
6, 997920, Note_on_c, 4, 59, 0
6, 997920, Note_on_c, 4, 74, 0
6, 997920, Note_on_c, 4, 71, 105
6, 997920, Note_on_c, 4, 67, 105
6, 998160, Note_on_c, 4, 67, 0
6, 998160, Note_on_c, 4, 71, 0
6, 998160, Note_on_c, 4, 74, 105
6, 998160, Note_on_c, 4, 59, 105
6, 998400, Note_on_c, 4, 59, 0
6, 998400, Note_on_c, 4, 74, 0
6, 998400, Note_on_c, 4, 71, 105
6, 998400, Note_on_c, 4, 67, 105
6, 998640, Note_on_c, 4, 67, 0
6, 998640, Note_on_c, 4, 71, 0
6, 998640, Note_on_c, 4, 74, 105
6, 998640, Note_on_c, 4, 59, 105
6, 998880, Note_on_c, 4, 59, 0
6, 998880, Note_on_c, 4, 74, 0
6, 998880, Note_on_c, 4, 71, 105
6, 998880, Note_on_c, 4, 67, 105
6, 999120, Note_on_c, 4, 67, 0
6, 999120, Note_on_c, 4, 71, 0
6, 999120, Note_on_c, 4, 74, 105
6, 999120, Note_on_c, 4, 59, 105
6, 999360, Note_on_c, 4, 59, 0
6, 999360, Note_on_c, 4, 74, 0
6, 999360, Note_on_c, 4, 71, 105
6, 999360, Note_on_c, 4, 67, 105
6, 999840, Note_on_c, 4, 67, 0
6, 999840, Note_on_c, 4, 71, 0
6, 999840, Note_on_c, 4, 69, 105
6, 999840, Note_on_c, 4, 59, 105
6, 1000080, Note_on_c, 4, 69, 0
6, 1000080, Note_on_c, 4, 67, 105
6, 1000320, Note_on_c, 4, 67, 0
6, 1000320, Note_on_c, 4, 59, 0
6, 1000320, Note_on_c, 4, 67, 105
6, 1000320, Note_on_c, 4, 62, 105
6, 1000560, Note_on_c, 4, 67, 0
6, 1000560, Note_on_c, 4, 66, 105
6, 1000800, Note_on_c, 4, 66, 0
6, 1000800, Note_on_c, 4, 62, 0
6, 1000800, Note_on_c, 4, 64, 105
6, 1000800, Note_on_c, 4, 50, 105
6, 1001040, Note_on_c, 4, 64, 0
6, 1001040, Note_on_c, 4, 66, 105
6, 1001280, Note_on_c, 4, 66, 0
6, 1001280, Note_on_c, 4, 50, 0
6, 1001280, Note_on_c, 4, 67, 105
6, 1001280, Note_on_c, 4, 55, 105
6, 1001520, Note_on_c, 4, 55, 0
6, 1001520, Note_on_c, 4, 59, 105
6, 1001760, Note_on_c, 4, 59, 0
6, 1001760, Note_on_c, 4, 67, 0
6, 1001760, Note_on_c, 4, 62, 105
6, 1002000, Note_on_c, 4, 62, 0
6, 1002000, Note_on_c, 4, 62, 105
6, 1002180, Note_on_c, 4, 69, 105
6, 1002240, Note_on_c, 4, 69, 0
6, 1002240, Note_on_c, 4, 62, 0
6, 1002240, Note_on_c, 4, 81, 105
6, 1002240, Note_on_c, 4, 54, 105
6, 1002480, Note_on_c, 4, 54, 0
6, 1002480, Note_on_c, 4, 57, 105
6, 1002660, Note_on_c, 4, 74, 105
6, 1002720, Note_on_c, 4, 74, 0
6, 1002720, Note_on_c, 4, 57, 0
6, 1002720, Note_on_c, 4, 81, 0
6, 1002720, Note_on_c, 4, 86, 105
6, 1002720, Note_on_c, 4, 62, 105
6, 1002960, Note_on_c, 4, 62, 0
6, 1002960, Note_on_c, 4, 62, 105
6, 1003140, Note_on_c, 4, 71, 105
6, 1003200, Note_on_c, 4, 71, 0
6, 1003200, Note_on_c, 4, 62, 0
6, 1003200, Note_on_c, 4, 86, 0
6, 1003200, Note_on_c, 4, 83, 105
6, 1003200, Note_on_c, 4, 55, 105
6, 1003440, Note_on_c, 4, 55, 0
6, 1003440, Note_on_c, 4, 59, 105
6, 1003680, Note_on_c, 4, 59, 0
6, 1003680, Note_on_c, 4, 83, 0
6, 1003680, Note_on_c, 4, 62, 105
6, 1003920, Note_on_c, 4, 62, 0
6, 1003920, Note_on_c, 4, 62, 105
6, 1004100, Note_on_c, 4, 69, 105
6, 1004160, Note_on_c, 4, 69, 0
6, 1004160, Note_on_c, 4, 62, 0
6, 1004160, Note_on_c, 4, 81, 105
6, 1004160, Note_on_c, 4, 50, 105
6, 1004400, Note_on_c, 4, 50, 0
6, 1004400, Note_on_c, 4, 54, 105
6, 1004580, Note_on_c, 4, 74, 105
6, 1004640, Note_on_c, 4, 74, 0
6, 1004640, Note_on_c, 4, 54, 0
6, 1004640, Note_on_c, 4, 81, 0
6, 1004640, Note_on_c, 4, 86, 105
6, 1004640, Note_on_c, 4, 62, 105
6, 1004880, Note_on_c, 4, 62, 0
6, 1004880, Note_on_c, 4, 62, 105
6, 1005060, Note_on_c, 4, 67, 105
6, 1005120, Note_on_c, 4, 67, 0
6, 1005120, Note_on_c, 4, 62, 0
6, 1005120, Note_on_c, 4, 86, 0
6, 1005120, Note_on_c, 4, 79, 105
6, 1005120, Note_on_c, 4, 55, 105
6, 1005360, Note_on_c, 4, 55, 0
6, 1005360, Note_on_c, 4, 59, 105
6, 1005600, Note_on_c, 4, 59, 0
6, 1005600, Note_on_c, 4, 79, 0
6, 1005600, Note_on_c, 4, 62, 105
6, 1005840, Note_on_c, 4, 62, 0
6, 1005840, Note_on_c, 4, 62, 105
6, 1006020, Note_on_c, 4, 69, 105
6, 1006080, Note_on_c, 4, 69, 0
6, 1006080, Note_on_c, 4, 62, 0
6, 1006080, Note_on_c, 4, 81, 105
6, 1006080, Note_on_c, 4, 54, 105
6, 1006320, Note_on_c, 4, 54, 0
6, 1006320, Note_on_c, 4, 57, 105
6, 1006500, Note_on_c, 4, 74, 105
6, 1006560, Note_on_c, 4, 74, 0
6, 1006560, Note_on_c, 4, 57, 0
6, 1006560, Note_on_c, 4, 81, 0
6, 1006560, Note_on_c, 4, 86, 105
6, 1006560, Note_on_c, 4, 62, 105
6, 1006800, Note_on_c, 4, 62, 0
6, 1006800, Note_on_c, 4, 62, 105
6, 1006980, Note_on_c, 4, 71, 105
6, 1007040, Note_on_c, 4, 71, 0
6, 1007040, Note_on_c, 4, 62, 0
6, 1007040, Note_on_c, 4, 86, 0
6, 1007040, Note_on_c, 4, 83, 105
6, 1007040, Note_on_c, 4, 55, 105
6, 1007280, Note_on_c, 4, 55, 0
6, 1007280, Note_on_c, 4, 59, 105
6, 1007460, Note_on_c, 4, 74, 105
6, 1007520, Note_on_c, 4, 74, 0
6, 1007520, Note_on_c, 4, 59, 0
6, 1007520, Note_on_c, 4, 83, 0
6, 1007520, Note_on_c, 4, 86, 105
6, 1007520, Note_on_c, 4, 62, 105
6, 1007760, Note_on_c, 4, 62, 0
6, 1007760, Note_on_c, 4, 62, 105
6, 1007940, Note_on_c, 4, 69, 105
6, 1008000, Note_on_c, 4, 69, 0
6, 1008000, Note_on_c, 4, 62, 0
6, 1008000, Note_on_c, 4, 86, 0
6, 1008000, Note_on_c, 4, 81, 105
6, 1008000, Note_on_c, 4, 50, 105
6, 1008240, Note_on_c, 4, 50, 0
6, 1008240, Note_on_c, 4, 54, 105
6, 1008420, Note_on_c, 4, 74, 105
6, 1008480, Note_on_c, 4, 74, 0
6, 1008480, Note_on_c, 4, 54, 0
6, 1008480, Note_on_c, 4, 81, 0
6, 1008480, Note_on_c, 4, 86, 105
6, 1008480, Note_on_c, 4, 62, 105
6, 1008720, Note_on_c, 4, 62, 0
6, 1008720, Note_on_c, 4, 62, 105
6, 1008900, Note_on_c, 4, 67, 105
6, 1008960, Note_on_c, 4, 67, 0
6, 1008960, Note_on_c, 4, 62, 0
6, 1008960, Note_on_c, 4, 86, 0
6, 1008960, Note_on_c, 4, 79, 105
6, 1008960, Note_on_c, 4, 55, 105
6, 1009200, Note_on_c, 4, 55, 0
6, 1009200, Note_on_c, 4, 59, 105
6, 1009380, Note_on_c, 4, 74, 105
6, 1009440, Note_on_c, 4, 74, 0
6, 1009440, Note_on_c, 4, 59, 0
6, 1009440, Note_on_c, 4, 79, 0
6, 1009440, Note_on_c, 4, 86, 105
6, 1009440, Note_on_c, 4, 62, 105
6, 1009680, Note_on_c, 4, 62, 0
6, 1009680, Note_on_c, 4, 62, 105
6, 1009860, Note_on_c, 4, 69, 105
6, 1009920, Note_on_c, 4, 69, 0
6, 1009920, Note_on_c, 4, 62, 0
6, 1009920, Note_on_c, 4, 86, 0
6, 1009920, Note_on_c, 4, 81, 105
6, 1009920, Note_on_c, 4, 54, 105
6, 1010160, Note_on_c, 4, 54, 0
6, 1010160, Note_on_c, 4, 57, 105
6, 1010340, Note_on_c, 4, 74, 105
6, 1010400, Note_on_c, 4, 74, 0
6, 1010400, Note_on_c, 4, 57, 0
6, 1010400, Note_on_c, 4, 81, 0
6, 1010400, Note_on_c, 4, 86, 105
6, 1010400, Note_on_c, 4, 62, 105
6, 1010640, Note_on_c, 4, 62, 0
6, 1010640, Note_on_c, 4, 62, 105
6, 1010820, Note_on_c, 4, 71, 105
6, 1010880, Note_on_c, 4, 71, 0
6, 1010880, Note_on_c, 4, 62, 0
6, 1010880, Note_on_c, 4, 86, 0
6, 1010880, Note_on_c, 4, 83, 105
6, 1010880, Note_on_c, 4, 55, 105
6, 1011120, Note_on_c, 4, 55, 0
6, 1011120, Note_on_c, 4, 59, 105
6, 1011300, Note_on_c, 4, 74, 105
6, 1011360, Note_on_c, 4, 74, 0
6, 1011360, Note_on_c, 4, 59, 0
6, 1011360, Note_on_c, 4, 83, 0
6, 1011360, Note_on_c, 4, 86, 105
6, 1011360, Note_on_c, 4, 62, 105
6, 1011600, Note_on_c, 4, 62, 0
6, 1011600, Note_on_c, 4, 62, 105
6, 1011780, Note_on_c, 4, 69, 105
6, 1011840, Note_on_c, 4, 69, 0
6, 1011840, Note_on_c, 4, 62, 0
6, 1011840, Note_on_c, 4, 86, 0
6, 1011840, Note_on_c, 4, 81, 105
6, 1011840, Note_on_c, 4, 50, 105
6, 1012080, Note_on_c, 4, 50, 0
6, 1012080, Note_on_c, 4, 54, 105
6, 1012260, Note_on_c, 4, 74, 105
6, 1012320, Note_on_c, 4, 74, 0
6, 1012320, Note_on_c, 4, 54, 0
6, 1012320, Note_on_c, 4, 81, 0
6, 1012320, Note_on_c, 4, 86, 105
6, 1012320, Note_on_c, 4, 62, 105
6, 1012560, Note_on_c, 4, 62, 0
6, 1012560, Note_on_c, 4, 62, 105
6, 1012800, Note_on_c, 4, 62, 0
6, 1012800, Note_on_c, 4, 86, 0
6, 1012800, Note_on_c, 4, 81, 105
6, 1012800, Note_on_c, 4, 55, 105
6, 1012800, Note_on_c, 4, 59, 105
6, 1013040, Note_on_c, 4, 81, 0
6, 1013040, Note_on_c, 4, 79, 105
6, 1013280, Note_on_c, 4, 79, 0
6, 1013280, Note_on_c, 4, 59, 0
6, 1013280, Note_on_c, 4, 55, 0
6, 1013280, Note_on_c, 4, 78, 80
6, 1013520, Note_on_c, 4, 78, 0
6, 1013520, Note_on_c, 4, 79, 80
6, 1013760, Note_on_c, 4, 79, 0
6, 1013760, Note_on_c, 4, 78, 80
6, 1014000, Note_on_c, 4, 78, 0
6, 1014000, Note_on_c, 4, 79, 80
6, 1014240, Note_on_c, 4, 79, 0
6, 1014240, Note_on_c, 4, 81, 80
6, 1014480, Note_on_c, 4, 81, 0
6, 1014480, Note_on_c, 4, 79, 80
6, 1014720, Note_on_c, 4, 79, 0
6, 1014720, Note_on_c, 4, 79, 80
6, 1014960, Note_on_c, 4, 79, 0
6, 1014960, Note_on_c, 4, 77, 80
6, 1015200, Note_on_c, 4, 77, 0
6, 1015200, Note_on_c, 4, 76, 80
6, 1015440, Note_on_c, 4, 76, 0
6, 1015440, Note_on_c, 4, 77, 80
6, 1015680, Note_on_c, 4, 77, 0
6, 1015680, Note_on_c, 4, 76, 80
6, 1015920, Note_on_c, 4, 76, 0
6, 1015920, Note_on_c, 4, 77, 80
6, 1016160, Note_on_c, 4, 77, 0
6, 1016160, Note_on_c, 4, 79, 80
6, 1016400, Note_on_c, 4, 79, 0
6, 1016400, Note_on_c, 4, 77, 80
6, 1016640, Note_on_c, 4, 77, 0
6, 1016640, Note_on_c, 4, 77, 80
6, 1016880, Note_on_c, 4, 77, 0
6, 1016880, Note_on_c, 4, 76, 80
6, 1017120, Note_on_c, 4, 76, 0
6, 1017120, Note_on_c, 4, 75, 80
6, 1017360, Note_on_c, 4, 75, 0
6, 1017360, Note_on_c, 4, 76, 80
6, 1017600, Note_on_c, 4, 76, 0
6, 1017600, Note_on_c, 4, 75, 80
6, 1017840, Note_on_c, 4, 75, 0
6, 1017840, Note_on_c, 4, 76, 80
6, 1018080, Note_on_c, 4, 76, 0
6, 1018080, Note_on_c, 4, 77, 80
6, 1018320, Note_on_c, 4, 77, 0
6, 1018320, Note_on_c, 4, 76, 80
6, 1018560, Note_on_c, 4, 76, 0
6, 1018560, Note_on_c, 4, 76, 80
6, 1018800, Note_on_c, 4, 76, 0
6, 1018800, Note_on_c, 4, 74, 80
6, 1019040, Note_on_c, 4, 74, 0
6, 1019040, Note_on_c, 4, 73, 80
6, 1019280, Note_on_c, 4, 73, 0
6, 1019280, Note_on_c, 4, 74, 80
6, 1019520, Note_on_c, 4, 74, 0
6, 1019520, Note_on_c, 4, 73, 80
6, 1019760, Note_on_c, 4, 73, 0
6, 1019760, Note_on_c, 4, 74, 80
6, 1020000, Note_on_c, 4, 74, 0
6, 1020000, Note_on_c, 4, 76, 80
6, 1020240, Note_on_c, 4, 76, 0
6, 1020240, Note_on_c, 4, 74, 80
6, 1020480, Note_on_c, 4, 74, 0
6, 1020480, Note_on_c, 4, 71, 90
6, 1020720, Note_on_c, 4, 71, 0
6, 1020720, Note_on_c, 4, 74, 90
6, 1020960, Note_on_c, 4, 74, 0
6, 1020960, Note_on_c, 4, 72, 90
6, 1021200, Note_on_c, 4, 72, 0
6, 1021200, Note_on_c, 4, 76, 90
6, 1021440, Note_on_c, 4, 76, 0
6, 1021440, Note_on_c, 4, 74, 90
6, 1021920, Note_on_c, 4, 74, 0
6, 1021920, Note_on_c, 4, 55, 90
6, 1021920, Note_on_c, 4, 67, 90
6, 1022400, Note_on_c, 4, 67, 0
6, 1022400, Note_on_c, 4, 55, 0
6, 1022400, Note_on_c, 4, 71, 80
6, 1022640, Note_on_c, 4, 71, 0
6, 1022640, Note_on_c, 4, 74, 80
6, 1022880, Note_on_c, 4, 74, 0
6, 1022880, Note_on_c, 4, 73, 80
6, 1023120, Note_on_c, 4, 73, 0
6, 1023120, Note_on_c, 4, 76, 80
6, 1023360, Note_on_c, 4, 76, 0
6, 1023360, Note_on_c, 4, 74, 80
6, 1023840, Note_on_c, 4, 74, 0
6, 1023840, Note_on_c, 4, 55, 80
6, 1023840, Note_on_c, 4, 67, 80
6, 1024320, Note_on_c, 4, 67, 0
6, 1024320, Note_on_c, 4, 55, 0
6, 1024320, Note_on_c, 4, 71, 90
6, 1024560, Note_on_c, 4, 71, 0
6, 1024560, Note_on_c, 4, 74, 90
6, 1024800, Note_on_c, 4, 74, 0
6, 1024800, Note_on_c, 4, 72, 90
6, 1025040, Note_on_c, 4, 72, 0
6, 1025040, Note_on_c, 4, 76, 90
6, 1025280, Note_on_c, 4, 76, 0
6, 1025280, Note_on_c, 4, 74, 90
6, 1025520, Note_on_c, 4, 74, 0
6, 1025520, Note_on_c, 4, 76, 90
6, 1025760, Note_on_c, 4, 76, 0
6, 1025760, Note_on_c, 4, 72, 90
6, 1026000, Note_on_c, 4, 72, 0
6, 1026000, Note_on_c, 4, 74, 90
6, 1026240, Note_on_c, 4, 74, 0
6, 1026240, Note_on_c, 4, 71, 80
6, 1026480, Note_on_c, 4, 71, 0
6, 1026480, Note_on_c, 4, 74, 80
6, 1026720, Note_on_c, 4, 74, 0
6, 1026720, Note_on_c, 4, 73, 80
6, 1026960, Note_on_c, 4, 73, 0
6, 1026960, Note_on_c, 4, 76, 80
6, 1027200, Note_on_c, 4, 76, 0
6, 1027200, Note_on_c, 4, 74, 80
6, 1027680, Note_on_c, 4, 74, 0
6, 1029120, Note_on_c, 4, 60, 80
6, 1029360, Note_on_c, 4, 60, 0
6, 1029360, Note_on_c, 4, 55, 80
6, 1029600, Note_on_c, 4, 55, 0
6, 1029600, Note_on_c, 4, 60, 80
6, 1029840, Note_on_c, 4, 60, 0
6, 1029840, Note_on_c, 4, 55, 80
6, 1030080, Note_on_c, 4, 55, 0
6, 1030080, Note_on_c, 4, 60, 80
6, 1030080, Note_on_c, 4, 48, 80
6, 1030320, Note_on_c, 4, 60, 0
6, 1030320, Note_on_c, 4, 64, 80
6, 1030560, Note_on_c, 4, 64, 0
6, 1030560, Note_on_c, 4, 48, 0
6, 1030560, Note_on_c, 4, 67, 80
6, 1030800, Note_on_c, 4, 67, 0
6, 1030800, Note_on_c, 4, 60, 80
6, 1031040, Note_on_c, 4, 60, 0
6, 1031040, Note_on_c, 4, 59, 80
6, 1031040, Note_on_c, 4, 43, 80
6, 1031280, Note_on_c, 4, 59, 0
6, 1031280, Note_on_c, 4, 62, 80
6, 1031520, Note_on_c, 4, 62, 0
6, 1031520, Note_on_c, 4, 43, 0
6, 1031520, Note_on_c, 4, 67, 80
6, 1031760, Note_on_c, 4, 67, 0
6, 1031760, Note_on_c, 4, 62, 80
6, 1032000, Note_on_c, 4, 62, 0
6, 1032000, Note_on_c, 4, 64, 80
6, 1032000, Note_on_c, 4, 36, 80
6, 1032240, Note_on_c, 4, 64, 0
6, 1032240, Note_on_c, 4, 67, 80
6, 1032480, Note_on_c, 4, 67, 0
6, 1032480, Note_on_c, 4, 36, 0
6, 1032480, Note_on_c, 4, 72, 80
6, 1032720, Note_on_c, 4, 72, 0
6, 1032720, Note_on_c, 4, 67, 80
6, 1032960, Note_on_c, 4, 67, 0
6, 1032960, Note_on_c, 4, 64, 80
6, 1033200, Note_on_c, 4, 64, 0
6, 1033200, Note_on_c, 4, 60, 80
6, 1033440, Note_on_c, 4, 60, 0
6, 1033440, Note_on_c, 4, 64, 80
6, 1033680, Note_on_c, 4, 64, 0
6, 1033680, Note_on_c, 4, 60, 80
6, 1033920, Note_on_c, 4, 60, 0
6, 1033920, Note_on_c, 4, 65, 80
6, 1033920, Note_on_c, 4, 48, 80
6, 1034160, Note_on_c, 4, 65, 0
6, 1034160, Note_on_c, 4, 60, 80
6, 1034400, Note_on_c, 4, 60, 0
6, 1034400, Note_on_c, 4, 48, 0
6, 1034400, Note_on_c, 4, 64, 80
6, 1034640, Note_on_c, 4, 64, 0
6, 1034640, Note_on_c, 4, 60, 80
6, 1034880, Note_on_c, 4, 60, 0
6, 1034880, Note_on_c, 4, 64, 80
6, 1035120, Note_on_c, 4, 64, 0
6, 1035120, Note_on_c, 4, 60, 80
6, 1035360, Note_on_c, 4, 60, 0
6, 1035360, Note_on_c, 4, 64, 80
6, 1035600, Note_on_c, 4, 64, 0
6, 1035600, Note_on_c, 4, 60, 80
6, 1035840, Note_on_c, 4, 60, 0
6, 1035840, Note_on_c, 4, 65, 80
6, 1035840, Note_on_c, 4, 48, 80
6, 1036080, Note_on_c, 4, 65, 0
6, 1036080, Note_on_c, 4, 60, 80
6, 1036320, Note_on_c, 4, 60, 0
6, 1036320, Note_on_c, 4, 48, 0
6, 1036320, Note_on_c, 4, 64, 80
6, 1036560, Note_on_c, 4, 64, 0
6, 1036560, Note_on_c, 4, 60, 80
6, 1036800, Note_on_c, 4, 60, 0
6, 1036800, Note_on_c, 4, 64, 90
6, 1037040, Note_on_c, 4, 64, 0
6, 1037040, Note_on_c, 4, 65, 90
6, 1037280, Note_on_c, 4, 65, 0
6, 1037280, Note_on_c, 4, 67, 90
6, 1037520, Note_on_c, 4, 67, 0
6, 1037520, Note_on_c, 4, 64, 90
6, 1037760, Note_on_c, 4, 64, 0
6, 1037760, Note_on_c, 4, 60, 90
6, 1037760, Note_on_c, 4, 52, 80
6, 1038000, Note_on_c, 4, 60, 0
6, 1038000, Note_on_c, 4, 64, 90
6, 1038240, Note_on_c, 4, 64, 0
6, 1038240, Note_on_c, 4, 52, 0
6, 1038240, Note_on_c, 4, 67, 90
6, 1038480, Note_on_c, 4, 67, 0
6, 1038480, Note_on_c, 4, 72, 90
6, 1038720, Note_on_c, 4, 72, 0
6, 1038720, Note_on_c, 4, 59, 90
6, 1038720, Note_on_c, 4, 55, 80
6, 1038960, Note_on_c, 4, 59, 0
6, 1038960, Note_on_c, 4, 62, 90
6, 1039200, Note_on_c, 4, 62, 0
6, 1039200, Note_on_c, 4, 55, 0
6, 1039200, Note_on_c, 4, 67, 90
6, 1039440, Note_on_c, 4, 67, 0
6, 1039440, Note_on_c, 4, 71, 90
6, 1039680, Note_on_c, 4, 71, 0
6, 1039680, Note_on_c, 4, 60, 90
6, 1039680, Note_on_c, 4, 48, 80
6, 1039920, Note_on_c, 4, 60, 0
6, 1039920, Note_on_c, 4, 64, 90
6, 1040160, Note_on_c, 4, 64, 0
6, 1040160, Note_on_c, 4, 48, 0
6, 1040160, Note_on_c, 4, 67, 90
6, 1040400, Note_on_c, 4, 67, 0
6, 1040400, Note_on_c, 4, 72, 90
6, 1040640, Note_on_c, 4, 72, 0
6, 1040640, Note_on_c, 4, 62, 90
6, 1040640, Note_on_c, 4, 43, 80
6, 1040880, Note_on_c, 4, 62, 0
6, 1040880, Note_on_c, 4, 67, 90
6, 1041120, Note_on_c, 4, 67, 0
6, 1041120, Note_on_c, 4, 43, 0
6, 1041120, Note_on_c, 4, 71, 90
6, 1041360, Note_on_c, 4, 71, 0
6, 1041360, Note_on_c, 4, 74, 90
6, 1041600, Note_on_c, 4, 74, 0
6, 1041600, Note_on_c, 4, 64, 90
6, 1041600, Note_on_c, 4, 48, 80
6, 1041840, Note_on_c, 4, 64, 0
6, 1041840, Note_on_c, 4, 67, 90
6, 1042080, Note_on_c, 4, 67, 0
6, 1042080, Note_on_c, 4, 48, 0
6, 1042080, Note_on_c, 4, 72, 90
6, 1042320, Note_on_c, 4, 72, 0
6, 1042320, Note_on_c, 4, 76, 90
6, 1042560, Note_on_c, 4, 76, 0
6, 1042560, Note_on_c, 4, 77, 90
6, 1042560, Note_on_c, 4, 60, 80
6, 1042800, Note_on_c, 4, 77, 0
6, 1042800, Note_on_c, 4, 76, 90
6, 1043040, Note_on_c, 4, 76, 0
6, 1043040, Note_on_c, 4, 60, 0
6, 1043040, Note_on_c, 4, 74, 90
6, 1043280, Note_on_c, 4, 74, 0
6, 1043280, Note_on_c, 4, 72, 90
6, 1043520, Note_on_c, 4, 72, 0
6, 1043520, Note_on_c, 4, 67, 90
6, 1043520, Note_on_c, 4, 55, 80
6, 1043760, Note_on_c, 4, 67, 0
6, 1043760, Note_on_c, 4, 72, 90
6, 1044000, Note_on_c, 4, 72, 0
6, 1044000, Note_on_c, 4, 71, 90
6, 1044240, Note_on_c, 4, 71, 0
6, 1044240, Note_on_c, 4, 69, 90
6, 1044480, Note_on_c, 4, 69, 0
6, 1044480, Note_on_c, 4, 55, 0
6, 1044480, Note_on_c, 4, 67, 90
6, 1044720, Note_on_c, 4, 67, 0
6, 1044720, Note_on_c, 4, 65, 90
6, 1044960, Note_on_c, 4, 65, 0
6, 1044960, Note_on_c, 4, 64, 90
6, 1045200, Note_on_c, 4, 64, 0
6, 1045200, Note_on_c, 4, 62, 90
6, 1045440, Note_on_c, 4, 62, 0
6, 1045440, Note_on_c, 4, 60, 90
6, 1045920, Note_on_c, 4, 60, 0
6, 1110720, Note_on_c, 4, 69, 90
6, 1110720, Note_on_c, 4, 65, 80
6, 1110960, Note_on_c, 4, 65, 0
6, 1110960, Note_on_c, 4, 69, 0
6, 1110960, Note_on_c, 4, 65, 90
6, 1110960, Note_on_c, 4, 60, 80
6, 1111200, Note_on_c, 4, 60, 0
6, 1111200, Note_on_c, 4, 65, 0
6, 1111200, Note_on_c, 4, 69, 90
6, 1111200, Note_on_c, 4, 65, 80
6, 1111440, Note_on_c, 4, 65, 0
6, 1111440, Note_on_c, 4, 69, 0
6, 1111440, Note_on_c, 4, 70, 90
6, 1111440, Note_on_c, 4, 67, 80
6, 1111680, Note_on_c, 4, 67, 0
6, 1111680, Note_on_c, 4, 70, 0
6, 1111680, Note_on_c, 4, 72, 90
6, 1111680, Note_on_c, 4, 69, 80
6, 1111920, Note_on_c, 4, 69, 0
6, 1111920, Note_on_c, 4, 72, 0
6, 1111920, Note_on_c, 4, 69, 90
6, 1111920, Note_on_c, 4, 65, 80
6, 1112160, Note_on_c, 4, 65, 0
6, 1112160, Note_on_c, 4, 69, 0
6, 1112160, Note_on_c, 4, 70, 90
6, 1112160, Note_on_c, 4, 67, 80
6, 1112400, Note_on_c, 4, 67, 0
6, 1112400, Note_on_c, 4, 70, 0
6, 1112400, Note_on_c, 4, 67, 90
6, 1112400, Note_on_c, 4, 64, 80
6, 1112640, Note_on_c, 4, 64, 0
6, 1112640, Note_on_c, 4, 67, 0
6, 1112640, Note_on_c, 4, 69, 90
6, 1112640, Note_on_c, 4, 65, 80
6, 1112880, Note_on_c, 4, 65, 0
6, 1112880, Note_on_c, 4, 69, 0
6, 1112880, Note_on_c, 4, 65, 90
6, 1112880, Note_on_c, 4, 60, 80
6, 1113120, Note_on_c, 4, 60, 0
6, 1113120, Note_on_c, 4, 65, 0
6, 1113120, Note_on_c, 4, 69, 90
6, 1113120, Note_on_c, 4, 65, 80
6, 1113360, Note_on_c, 4, 65, 0
6, 1113360, Note_on_c, 4, 69, 0
6, 1113360, Note_on_c, 4, 70, 90
6, 1113360, Note_on_c, 4, 67, 80
6, 1113600, Note_on_c, 4, 67, 0
6, 1113600, Note_on_c, 4, 70, 0
6, 1113600, Note_on_c, 4, 72, 90
6, 1113600, Note_on_c, 4, 69, 80
6, 1113840, Note_on_c, 4, 69, 0
6, 1113840, Note_on_c, 4, 72, 0
6, 1113840, Note_on_c, 4, 69, 90
6, 1113840, Note_on_c, 4, 65, 80
6, 1114080, Note_on_c, 4, 65, 0
6, 1114080, Note_on_c, 4, 69, 0
6, 1114080, Note_on_c, 4, 70, 90
6, 1114080, Note_on_c, 4, 67, 80
6, 1114320, Note_on_c, 4, 67, 0
6, 1114320, Note_on_c, 4, 70, 0
6, 1114320, Note_on_c, 4, 67, 90
6, 1114320, Note_on_c, 4, 64, 80
6, 1114560, Note_on_c, 4, 64, 0
6, 1114560, Note_on_c, 4, 67, 0
6, 1114560, Note_on_c, 4, 69, 90
6, 1114560, Note_on_c, 4, 65, 80
6, 1114800, Note_on_c, 4, 65, 0
6, 1114800, Note_on_c, 4, 69, 0
6, 1114800, Note_on_c, 4, 65, 90
6, 1114800, Note_on_c, 4, 60, 80
6, 1115040, Note_on_c, 4, 60, 0
6, 1115040, Note_on_c, 4, 65, 0
6, 1115040, Note_on_c, 4, 69, 90
6, 1115040, Note_on_c, 4, 65, 80
6, 1115280, Note_on_c, 4, 65, 0
6, 1115280, Note_on_c, 4, 69, 0
6, 1115280, Note_on_c, 4, 70, 90
6, 1115280, Note_on_c, 4, 67, 80
6, 1115520, Note_on_c, 4, 67, 0
6, 1115520, Note_on_c, 4, 70, 0
6, 1115520, Note_on_c, 4, 72, 90
6, 1115520, Note_on_c, 4, 69, 80
6, 1115760, Note_on_c, 4, 69, 0
6, 1115760, Note_on_c, 4, 72, 0
6, 1115760, Note_on_c, 4, 69, 90
6, 1115760, Note_on_c, 4, 65, 80
6, 1116000, Note_on_c, 4, 65, 0
6, 1116000, Note_on_c, 4, 69, 0
6, 1116000, Note_on_c, 4, 70, 90
6, 1116000, Note_on_c, 4, 67, 80
6, 1116240, Note_on_c, 4, 67, 0
6, 1116240, Note_on_c, 4, 70, 0
6, 1116240, Note_on_c, 4, 67, 90
6, 1116240, Note_on_c, 4, 64, 80
6, 1116480, Note_on_c, 4, 64, 0
6, 1116480, Note_on_c, 4, 67, 0
6, 1116480, Note_on_c, 4, 65, 80
6, 1116720, Note_on_c, 4, 65, 0
6, 1116720, Note_on_c, 4, 65, 90
6, 1116960, Note_on_c, 4, 65, 0
6, 1116960, Note_on_c, 4, 69, 90
6, 1117200, Note_on_c, 4, 69, 0
6, 1117200, Note_on_c, 4, 65, 90
6, 1117440, Note_on_c, 4, 65, 0
6, 1117440, Note_on_c, 4, 72, 90
6, 1117680, Note_on_c, 4, 72, 0
6, 1117680, Note_on_c, 4, 69, 90
6, 1117920, Note_on_c, 4, 69, 0
6, 1117920, Note_on_c, 4, 72, 90
6, 1118160, Note_on_c, 4, 72, 0
6, 1118160, Note_on_c, 4, 69, 90
6, 1118400, Note_on_c, 4, 69, 0
6, 1118400, Note_on_c, 4, 77, 90
6, 1118400, Note_on_c, 4, 65, 80
6, 1118640, Note_on_c, 4, 65, 0
6, 1118640, Note_on_c, 4, 77, 0
6, 1118640, Note_on_c, 4, 76, 90
6, 1118640, Note_on_c, 4, 72, 80
6, 1118880, Note_on_c, 4, 72, 0
6, 1118880, Note_on_c, 4, 76, 0
6, 1118880, Note_on_c, 4, 77, 90
6, 1118880, Note_on_c, 4, 69, 80
6, 1119120, Note_on_c, 4, 69, 0
6, 1119120, Note_on_c, 4, 77, 0
6, 1119120, Note_on_c, 4, 76, 90
6, 1119120, Note_on_c, 4, 72, 80
6, 1119360, Note_on_c, 4, 72, 0
6, 1119360, Note_on_c, 4, 76, 0
6, 1119360, Note_on_c, 4, 77, 90
6, 1119360, Note_on_c, 4, 65, 80
6, 1119600, Note_on_c, 4, 65, 0
6, 1119600, Note_on_c, 4, 72, 80
6, 1119840, Note_on_c, 4, 72, 0
6, 1119840, Note_on_c, 4, 77, 0
6, 1119840, Note_on_c, 4, 81, 90
6, 1119840, Note_on_c, 4, 69, 80
6, 1120080, Note_on_c, 4, 69, 0
6, 1120080, Note_on_c, 4, 72, 80
6, 1120320, Note_on_c, 4, 72, 0
6, 1120320, Note_on_c, 4, 81, 0
6, 1120320, Note_on_c, 4, 81, 90
6, 1120320, Note_on_c, 4, 64, 80
6, 1120560, Note_on_c, 4, 64, 0
6, 1120560, Note_on_c, 4, 81, 0
6, 1120560, Note_on_c, 4, 79, 90
6, 1120560, Note_on_c, 4, 73, 80
6, 1120800, Note_on_c, 4, 73, 0
6, 1120800, Note_on_c, 4, 79, 0
6, 1120800, Note_on_c, 4, 79, 90
6, 1120800, Note_on_c, 4, 69, 80
6, 1121040, Note_on_c, 4, 69, 0
6, 1121040, Note_on_c, 4, 79, 0
6, 1121040, Note_on_c, 4, 78, 90
6, 1121040, Note_on_c, 4, 73, 80
6, 1121280, Note_on_c, 4, 73, 0
6, 1121280, Note_on_c, 4, 78, 0
6, 1121280, Note_on_c, 4, 79, 90
6, 1121280, Note_on_c, 4, 64, 80
6, 1121520, Note_on_c, 4, 64, 0
6, 1121520, Note_on_c, 4, 73, 80
6, 1121760, Note_on_c, 4, 73, 0
6, 1121760, Note_on_c, 4, 79, 0
6, 1121760, Note_on_c, 4, 69, 80
6, 1122000, Note_on_c, 4, 69, 0
6, 1122000, Note_on_c, 4, 73, 80
6, 1122240, Note_on_c, 4, 73, 0
6, 1122240, Note_on_c, 4, 88, 90
6, 1122240, Note_on_c, 4, 61, 80
6, 1122480, Note_on_c, 4, 61, 0
6, 1122480, Note_on_c, 4, 88, 0
6, 1122480, Note_on_c, 4, 87, 90
6, 1122480, Note_on_c, 4, 69, 80
6, 1122720, Note_on_c, 4, 69, 0
6, 1122720, Note_on_c, 4, 87, 0
6, 1122720, Note_on_c, 4, 88, 90
6, 1122720, Note_on_c, 4, 64, 80
6, 1122960, Note_on_c, 4, 64, 0
6, 1122960, Note_on_c, 4, 88, 0
6, 1122960, Note_on_c, 4, 87, 90
6, 1122960, Note_on_c, 4, 69, 80
6, 1123200, Note_on_c, 4, 69, 0
6, 1123200, Note_on_c, 4, 87, 0
6, 1123200, Note_on_c, 4, 88, 90
6, 1123200, Note_on_c, 4, 61, 80
6, 1123440, Note_on_c, 4, 61, 0
6, 1123440, Note_on_c, 4, 69, 80
6, 1123680, Note_on_c, 4, 69, 0
6, 1123680, Note_on_c, 4, 88, 0
6, 1123680, Note_on_c, 4, 76, 90
6, 1123680, Note_on_c, 4, 64, 80
6, 1123920, Note_on_c, 4, 64, 0
6, 1123920, Note_on_c, 4, 69, 80
6, 1124160, Note_on_c, 4, 69, 0
6, 1124160, Note_on_c, 4, 76, 0
6, 1124160, Note_on_c, 4, 79, 90
6, 1124160, Note_on_c, 4, 62, 80
6, 1124400, Note_on_c, 4, 62, 0
6, 1124400, Note_on_c, 4, 79, 0
6, 1124400, Note_on_c, 4, 77, 90
6, 1124400, Note_on_c, 4, 69, 80
6, 1124640, Note_on_c, 4, 69, 0
6, 1124640, Note_on_c, 4, 77, 0
6, 1124640, Note_on_c, 4, 77, 90
6, 1124640, Note_on_c, 4, 65, 80
6, 1124880, Note_on_c, 4, 65, 0
6, 1124880, Note_on_c, 4, 77, 0
6, 1124880, Note_on_c, 4, 76, 90
6, 1124880, Note_on_c, 4, 69, 80
6, 1125120, Note_on_c, 4, 69, 0
6, 1125120, Note_on_c, 4, 76, 0
6, 1125120, Note_on_c, 4, 77, 90
6, 1125120, Note_on_c, 4, 62, 80
6, 1125360, Note_on_c, 4, 62, 0
6, 1125360, Note_on_c, 4, 69, 80
6, 1125600, Note_on_c, 4, 69, 0
6, 1125600, Note_on_c, 4, 77, 0
6, 1125600, Note_on_c, 4, 65, 80
6, 1125840, Note_on_c, 4, 65, 0
6, 1125840, Note_on_c, 4, 69, 80
6, 1126080, Note_on_c, 4, 69, 0
6, 1126080, Note_on_c, 4, 77, 90
6, 1126080, Note_on_c, 4, 62, 80
6, 1126320, Note_on_c, 4, 62, 0
6, 1126320, Note_on_c, 4, 77, 0
6, 1126320, Note_on_c, 4, 76, 90
6, 1126320, Note_on_c, 4, 69, 80
6, 1126560, Note_on_c, 4, 69, 0
6, 1126560, Note_on_c, 4, 76, 0
6, 1126560, Note_on_c, 4, 77, 90
6, 1126560, Note_on_c, 4, 65, 80
6, 1126800, Note_on_c, 4, 65, 0
6, 1126800, Note_on_c, 4, 77, 0
6, 1126800, Note_on_c, 4, 76, 90
6, 1126800, Note_on_c, 4, 69, 80
6, 1127040, Note_on_c, 4, 69, 0
6, 1127040, Note_on_c, 4, 76, 0
6, 1127040, Note_on_c, 4, 77, 90
6, 1127040, Note_on_c, 4, 60, 80
6, 1127280, Note_on_c, 4, 60, 0
6, 1127280, Note_on_c, 4, 68, 80
6, 1127520, Note_on_c, 4, 68, 0
6, 1127520, Note_on_c, 4, 77, 0
6, 1127520, Note_on_c, 4, 77, 90
6, 1127520, Note_on_c, 4, 62, 80
6, 1127760, Note_on_c, 4, 62, 0
6, 1127760, Note_on_c, 4, 68, 80
6, 1127940, Note_on_c, 4, 77, 90
6, 1128000, Note_on_c, 4, 77, 0
6, 1128000, Note_on_c, 4, 68, 0
6, 1128000, Note_on_c, 4, 77, 0
6, 1128000, Note_on_c, 4, 89, 90
6, 1128000, Note_on_c, 4, 59, 80
6, 1128240, Note_on_c, 4, 59, 0
6, 1128240, Note_on_c, 4, 67, 80
6, 1128480, Note_on_c, 4, 67, 0
6, 1128480, Note_on_c, 4, 89, 0
6, 1128480, Note_on_c, 4, 89, 90
6, 1128480, Note_on_c, 4, 62, 80
6, 1128720, Note_on_c, 4, 62, 0
6, 1128720, Note_on_c, 4, 89, 0
6, 1128720, Note_on_c, 4, 88, 90
6, 1128720, Note_on_c, 4, 67, 80
6, 1128960, Note_on_c, 4, 67, 0
6, 1128960, Note_on_c, 4, 88, 0
6, 1128960, Note_on_c, 4, 89, 90
6, 1128960, Note_on_c, 4, 59, 80
6, 1129200, Note_on_c, 4, 59, 0
6, 1129200, Note_on_c, 4, 67, 80
6, 1129440, Note_on_c, 4, 67, 0
6, 1129440, Note_on_c, 4, 89, 0
6, 1129440, Note_on_c, 4, 62, 80
6, 1129680, Note_on_c, 4, 62, 0
6, 1129680, Note_on_c, 4, 67, 80
6, 1129920, Note_on_c, 4, 67, 0
6, 1129920, Note_on_c, 4, 89, 90
6, 1129920, Note_on_c, 4, 59, 80
6, 1129920, Note_on_c, 4, 67, 80
6, 1130160, Note_on_c, 4, 89, 0
6, 1130160, Note_on_c, 4, 88, 90
6, 1130400, Note_on_c, 4, 88, 0
6, 1130400, Note_on_c, 4, 86, 90
6, 1130640, Note_on_c, 4, 86, 0
6, 1130640, Note_on_c, 4, 84, 90
6, 1130880, Note_on_c, 4, 84, 0
6, 1130880, Note_on_c, 4, 67, 0
6, 1130880, Note_on_c, 4, 59, 0
6, 1130880, Note_on_c, 4, 83, 90
6, 1131120, Note_on_c, 4, 83, 0
6, 1131120, Note_on_c, 4, 81, 90
6, 1131360, Note_on_c, 4, 81, 0
6, 1131360, Note_on_c, 4, 79, 90
6, 1131360, Note_on_c, 4, 59, 80
6, 1131360, Note_on_c, 4, 67, 80
6, 1131600, Note_on_c, 4, 79, 0
6, 1131600, Note_on_c, 4, 77, 90
6, 1131840, Note_on_c, 4, 77, 0
6, 1131840, Note_on_c, 4, 67, 0
6, 1131840, Note_on_c, 4, 59, 0
6, 1131840, Note_on_c, 4, 76, 90
6, 1131840, Note_on_c, 4, 60, 80
6, 1131840, Note_on_c, 4, 67, 80
6, 1132080, Note_on_c, 4, 76, 0
6, 1132080, Note_on_c, 4, 77, 90
6, 1132320, Note_on_c, 4, 77, 0
6, 1132320, Note_on_c, 4, 79, 90
6, 1132560, Note_on_c, 4, 79, 0
6, 1132560, Note_on_c, 4, 81, 90
6, 1132800, Note_on_c, 4, 81, 0
6, 1132800, Note_on_c, 4, 67, 0
6, 1132800, Note_on_c, 4, 60, 0
6, 1132800, Note_on_c, 4, 83, 90
6, 1133040, Note_on_c, 4, 83, 0
6, 1133040, Note_on_c, 4, 84, 90
6, 1133280, Note_on_c, 4, 84, 0
6, 1133280, Note_on_c, 4, 86, 90
6, 1133280, Note_on_c, 4, 60, 80
6, 1133280, Note_on_c, 4, 67, 80
6, 1133520, Note_on_c, 4, 86, 0
6, 1133520, Note_on_c, 4, 88, 90
6, 1133760, Note_on_c, 4, 88, 0
6, 1133760, Note_on_c, 4, 67, 0
6, 1133760, Note_on_c, 4, 60, 0
6, 1133760, Note_on_c, 4, 89, 90
6, 1133760, Note_on_c, 4, 59, 80
6, 1133760, Note_on_c, 4, 67, 80
6, 1134000, Note_on_c, 4, 89, 0
6, 1134000, Note_on_c, 4, 88, 90
6, 1134240, Note_on_c, 4, 88, 0
6, 1134240, Note_on_c, 4, 86, 90
6, 1134480, Note_on_c, 4, 86, 0
6, 1134480, Note_on_c, 4, 84, 90
6, 1134720, Note_on_c, 4, 84, 0
6, 1134720, Note_on_c, 4, 67, 0
6, 1134720, Note_on_c, 4, 59, 0
6, 1134720, Note_on_c, 4, 83, 90
6, 1134960, Note_on_c, 4, 83, 0
6, 1134960, Note_on_c, 4, 81, 90
6, 1135200, Note_on_c, 4, 81, 0
6, 1135200, Note_on_c, 4, 79, 90
6, 1135200, Note_on_c, 4, 59, 80
6, 1135200, Note_on_c, 4, 67, 80
6, 1135440, Note_on_c, 4, 79, 0
6, 1135440, Note_on_c, 4, 77, 90
6, 1135680, Note_on_c, 4, 77, 0
6, 1135680, Note_on_c, 4, 67, 0
6, 1135680, Note_on_c, 4, 59, 0
6, 1135680, Note_on_c, 4, 76, 90
6, 1135680, Note_on_c, 4, 60, 80
6, 1135680, Note_on_c, 4, 67, 80
6, 1135920, Note_on_c, 4, 76, 0
6, 1135920, Note_on_c, 4, 77, 90
6, 1136160, Note_on_c, 4, 77, 0
6, 1136160, Note_on_c, 4, 79, 90
6, 1136400, Note_on_c, 4, 79, 0
6, 1136400, Note_on_c, 4, 81, 90
6, 1136640, Note_on_c, 4, 81, 0
6, 1136640, Note_on_c, 4, 67, 0
6, 1136640, Note_on_c, 4, 60, 0
6, 1136640, Note_on_c, 4, 83, 90
6, 1136880, Note_on_c, 4, 83, 0
6, 1136880, Note_on_c, 4, 84, 90
6, 1137120, Note_on_c, 4, 84, 0
6, 1137120, Note_on_c, 4, 86, 90
6, 1137120, Note_on_c, 4, 60, 80
6, 1137120, Note_on_c, 4, 67, 80
6, 1137360, Note_on_c, 4, 86, 0
6, 1137360, Note_on_c, 4, 88, 90
6, 1137600, Note_on_c, 4, 88, 0
6, 1137600, Note_on_c, 4, 67, 0
6, 1137600, Note_on_c, 4, 60, 0
6, 1137600, Note_on_c, 4, 86, 90
6, 1137600, Note_on_c, 4, 56, 80
6, 1137600, Note_on_c, 4, 64, 80
6, 1137840, Note_on_c, 4, 86, 0
6, 1137840, Note_on_c, 4, 84, 90
6, 1138080, Note_on_c, 4, 84, 0
6, 1138080, Note_on_c, 4, 83, 90
6, 1138320, Note_on_c, 4, 83, 0
6, 1138320, Note_on_c, 4, 81, 90
6, 1138560, Note_on_c, 4, 81, 0
6, 1138560, Note_on_c, 4, 64, 0
6, 1138560, Note_on_c, 4, 56, 0
6, 1138560, Note_on_c, 4, 80, 90
6, 1138800, Note_on_c, 4, 80, 0
6, 1138800, Note_on_c, 4, 77, 90
6, 1139040, Note_on_c, 4, 77, 0
6, 1139040, Note_on_c, 4, 76, 90
6, 1139040, Note_on_c, 4, 56, 80
6, 1139040, Note_on_c, 4, 64, 80
6, 1139280, Note_on_c, 4, 76, 0
6, 1139280, Note_on_c, 4, 74, 90
6, 1139520, Note_on_c, 4, 74, 0
6, 1139520, Note_on_c, 4, 64, 0
6, 1139520, Note_on_c, 4, 56, 0
6, 1139520, Note_on_c, 4, 72, 90
6, 1139520, Note_on_c, 4, 57, 80
6, 1139520, Note_on_c, 4, 64, 80
6, 1139760, Note_on_c, 4, 72, 0
6, 1139760, Note_on_c, 4, 74, 90
6, 1140000, Note_on_c, 4, 74, 0
6, 1140000, Note_on_c, 4, 76, 90
6, 1140240, Note_on_c, 4, 76, 0
6, 1140240, Note_on_c, 4, 77, 90
6, 1140480, Note_on_c, 4, 77, 0
6, 1140480, Note_on_c, 4, 64, 0
6, 1140480, Note_on_c, 4, 57, 0
6, 1140480, Note_on_c, 4, 80, 90
6, 1140720, Note_on_c, 4, 80, 0
6, 1140720, Note_on_c, 4, 81, 90
6, 1140960, Note_on_c, 4, 81, 0
6, 1140960, Note_on_c, 4, 83, 90
6, 1140960, Note_on_c, 4, 57, 80
6, 1140960, Note_on_c, 4, 64, 80
6, 1141200, Note_on_c, 4, 83, 0
6, 1141200, Note_on_c, 4, 84, 90
6, 1141440, Note_on_c, 4, 84, 0
6, 1141440, Note_on_c, 4, 64, 0
6, 1141440, Note_on_c, 4, 57, 0
6, 1141440, Note_on_c, 4, 82, 90
6, 1141440, Note_on_c, 4, 52, 80
6, 1141440, Note_on_c, 4, 60, 80
6, 1141680, Note_on_c, 4, 82, 0
6, 1141680, Note_on_c, 4, 81, 90
6, 1141920, Note_on_c, 4, 81, 0
6, 1141920, Note_on_c, 4, 79, 90
6, 1142160, Note_on_c, 4, 79, 0
6, 1142160, Note_on_c, 4, 77, 90
6, 1142400, Note_on_c, 4, 77, 0
6, 1142400, Note_on_c, 4, 60, 0
6, 1142400, Note_on_c, 4, 52, 0
6, 1142400, Note_on_c, 4, 76, 90
6, 1142640, Note_on_c, 4, 76, 0
6, 1142640, Note_on_c, 4, 74, 90
6, 1142880, Note_on_c, 4, 74, 0
6, 1142880, Note_on_c, 4, 72, 90
6, 1142880, Note_on_c, 4, 52, 80
6, 1142880, Note_on_c, 4, 60, 80
6, 1143120, Note_on_c, 4, 72, 0
6, 1143120, Note_on_c, 4, 70, 90
6, 1143360, Note_on_c, 4, 70, 0
6, 1143360, Note_on_c, 4, 60, 0
6, 1143360, Note_on_c, 4, 52, 0
6, 1143360, Note_on_c, 4, 69, 90
6, 1143360, Note_on_c, 4, 53, 80
6, 1143360, Note_on_c, 4, 60, 80
6, 1143600, Note_on_c, 4, 69, 0
6, 1143600, Note_on_c, 4, 74, 90
6, 1143840, Note_on_c, 4, 74, 0
6, 1143840, Note_on_c, 4, 60, 0
6, 1143840, Note_on_c, 4, 53, 0
6, 1143840, Note_on_c, 4, 73, 90
6, 1144080, Note_on_c, 4, 73, 0
6, 1144080, Note_on_c, 4, 76, 90
6, 1144320, Note_on_c, 4, 76, 0
6, 1144320, Note_on_c, 4, 74, 90
6, 1144560, Note_on_c, 4, 74, 0
6, 1144560, Note_on_c, 4, 77, 90
6, 1144800, Note_on_c, 4, 77, 0
6, 1144800, Note_on_c, 4, 76, 90
6, 1145040, Note_on_c, 4, 76, 0
6, 1145040, Note_on_c, 4, 79, 90
6, 1145280, Note_on_c, 4, 79, 0
6, 1145280, Note_on_c, 4, 77, 90
6, 1145520, Note_on_c, 4, 77, 0
6, 1145520, Note_on_c, 4, 81, 90
6, 1145760, Note_on_c, 4, 81, 0
6, 1145760, Note_on_c, 4, 79, 90
6, 1146000, Note_on_c, 4, 79, 0
6, 1146000, Note_on_c, 4, 82, 90
6, 1146240, Note_on_c, 4, 82, 0
6, 1146240, Note_on_c, 4, 81, 90
6, 1146240, Note_on_c, 4, 53, 80
6, 1146480, Note_on_c, 4, 81, 0
6, 1146480, Note_on_c, 4, 77, 90
6, 1146720, Note_on_c, 4, 77, 0
6, 1146720, Note_on_c, 4, 53, 0
6, 1146720, Note_on_c, 4, 74, 90
6, 1146720, Note_on_c, 4, 54, 80
6, 1146960, Note_on_c, 4, 74, 0
6, 1146960, Note_on_c, 4, 72, 90
6, 1147200, Note_on_c, 4, 72, 0
6, 1147200, Note_on_c, 4, 54, 0
6, 1147200, Note_on_c, 4, 71, 90
6, 1147200, Note_on_c, 4, 74, 90
6, 1147200, Note_on_c, 4, 79, 90
6, 1147200, Note_on_c, 4, 55, 80
6, 1147680, Note_on_c, 4, 55, 0
6, 1147680, Note_on_c, 4, 71, 0
6, 1147680, Note_on_c, 4, 74, 0
6, 1147680, Note_on_c, 4, 79, 0
6, 1152000, Note_on_c, 4, 72, 90
6, 1152000, Note_on_c, 4, 75, 90
6, 1152000, Note_on_c, 4, 60, 80
6, 1152000, Note_on_c, 4, 63, 80
6, 1152480, Note_on_c, 4, 63, 0
6, 1152480, Note_on_c, 4, 72, 0
6, 1152480, Note_on_c, 4, 75, 0
6, 1152480, Note_on_c, 4, 60, 0
6, 1152480, Note_on_c, 4, 72, 90
6, 1152480, Note_on_c, 4, 75, 90
6, 1152480, Note_on_c, 4, 60, 80
6, 1152480, Note_on_c, 4, 63, 80
6, 1152960, Note_on_c, 4, 63, 0
6, 1152960, Note_on_c, 4, 72, 0
6, 1152960, Note_on_c, 4, 75, 0
6, 1152960, Note_on_c, 4, 60, 0
6, 1152960, Note_on_c, 4, 72, 90
6, 1152960, Note_on_c, 4, 75, 90
6, 1152960, Note_on_c, 4, 60, 80
6, 1152960, Note_on_c, 4, 63, 80
6, 1153920, Note_on_c, 4, 63, 0
6, 1153920, Note_on_c, 4, 72, 0
6, 1153920, Note_on_c, 4, 75, 0
6, 1153920, Note_on_c, 4, 60, 0
6, 1153920, Note_on_c, 4, 79, 90
6, 1153920, Note_on_c, 4, 67, 80
6, 1154160, Note_on_c, 4, 67, 0
6, 1154160, Note_on_c, 4, 79, 0
6, 1154160, Note_on_c, 4, 74, 90
6, 1154160, Note_on_c, 4, 77, 90
6, 1154160, Note_on_c, 4, 62, 80
6, 1154160, Note_on_c, 4, 65, 80
6, 1154400, Note_on_c, 4, 65, 0
6, 1154400, Note_on_c, 4, 74, 0
6, 1154400, Note_on_c, 4, 77, 0
6, 1154400, Note_on_c, 4, 62, 0
6, 1154400, Note_on_c, 4, 72, 90
6, 1154400, Note_on_c, 4, 75, 90
6, 1154400, Note_on_c, 4, 60, 80
6, 1154400, Note_on_c, 4, 63, 80
6, 1154640, Note_on_c, 4, 63, 0
6, 1154640, Note_on_c, 4, 72, 0
6, 1154640, Note_on_c, 4, 75, 0
6, 1154640, Note_on_c, 4, 60, 0
6, 1154640, Note_on_c, 4, 74, 90
6, 1154640, Note_on_c, 4, 77, 90
6, 1154640, Note_on_c, 4, 62, 80
6, 1154640, Note_on_c, 4, 65, 80
6, 1154880, Note_on_c, 4, 65, 0
6, 1154880, Note_on_c, 4, 74, 0
6, 1154880, Note_on_c, 4, 77, 0
6, 1154880, Note_on_c, 4, 62, 0
6, 1154880, Note_on_c, 4, 75, 90
6, 1154880, Note_on_c, 4, 79, 90
6, 1154880, Note_on_c, 4, 63, 80
6, 1154880, Note_on_c, 4, 67, 80
6, 1155120, Note_on_c, 4, 67, 0
6, 1155120, Note_on_c, 4, 75, 0
6, 1155120, Note_on_c, 4, 79, 0
6, 1155120, Note_on_c, 4, 63, 0
6, 1155120, Note_on_c, 4, 75, 90
6, 1155120, Note_on_c, 4, 63, 80
6, 1155360, Note_on_c, 4, 63, 0
6, 1155360, Note_on_c, 4, 75, 0
6, 1155360, Note_on_c, 4, 72, 90
6, 1155360, Note_on_c, 4, 60, 80
6, 1155840, Note_on_c, 4, 60, 0
6, 1155840, Note_on_c, 4, 72, 0
6, 1155840, Note_on_c, 4, 71, 90
6, 1155840, Note_on_c, 4, 74, 90
6, 1155840, Note_on_c, 4, 59, 80
6, 1155840, Note_on_c, 4, 62, 80
6, 1156320, Note_on_c, 4, 62, 0
6, 1156320, Note_on_c, 4, 71, 0
6, 1156320, Note_on_c, 4, 74, 0
6, 1156320, Note_on_c, 4, 59, 0
6, 1156320, Note_on_c, 4, 71, 90
6, 1156320, Note_on_c, 4, 74, 90
6, 1156320, Note_on_c, 4, 59, 80
6, 1156320, Note_on_c, 4, 62, 80
6, 1156800, Note_on_c, 4, 62, 0
6, 1156800, Note_on_c, 4, 71, 0
6, 1156800, Note_on_c, 4, 74, 0
6, 1156800, Note_on_c, 4, 59, 0
6, 1156800, Note_on_c, 4, 71, 90
6, 1156800, Note_on_c, 4, 74, 90
6, 1156800, Note_on_c, 4, 59, 80
6, 1156800, Note_on_c, 4, 62, 80
6, 1157760, Note_on_c, 4, 62, 0
6, 1157760, Note_on_c, 4, 71, 0
6, 1157760, Note_on_c, 4, 74, 0
6, 1157760, Note_on_c, 4, 59, 0
6, 1157760, Note_on_c, 4, 77, 90
6, 1157760, Note_on_c, 4, 65, 80
6, 1158000, Note_on_c, 4, 65, 0
6, 1158000, Note_on_c, 4, 77, 0
6, 1158000, Note_on_c, 4, 72, 90
6, 1158000, Note_on_c, 4, 75, 90
6, 1158000, Note_on_c, 4, 60, 80
6, 1158000, Note_on_c, 4, 63, 80
6, 1158240, Note_on_c, 4, 63, 0
6, 1158240, Note_on_c, 4, 72, 0
6, 1158240, Note_on_c, 4, 75, 0
6, 1158240, Note_on_c, 4, 60, 0
6, 1158240, Note_on_c, 4, 71, 90
6, 1158240, Note_on_c, 4, 74, 90
6, 1158240, Note_on_c, 4, 59, 80
6, 1158240, Note_on_c, 4, 62, 80
6, 1158480, Note_on_c, 4, 62, 0
6, 1158480, Note_on_c, 4, 71, 0
6, 1158480, Note_on_c, 4, 74, 0
6, 1158480, Note_on_c, 4, 59, 0
6, 1158480, Note_on_c, 4, 72, 90
6, 1158480, Note_on_c, 4, 75, 90
6, 1158480, Note_on_c, 4, 60, 80
6, 1158480, Note_on_c, 4, 63, 80
6, 1158720, Note_on_c, 4, 63, 0
6, 1158720, Note_on_c, 4, 72, 0
6, 1158720, Note_on_c, 4, 75, 0
6, 1158720, Note_on_c, 4, 60, 0
6, 1158720, Note_on_c, 4, 74, 90
6, 1158720, Note_on_c, 4, 77, 90
6, 1158720, Note_on_c, 4, 62, 80
6, 1158720, Note_on_c, 4, 65, 80
6, 1158960, Note_on_c, 4, 65, 0
6, 1158960, Note_on_c, 4, 74, 0
6, 1158960, Note_on_c, 4, 77, 0
6, 1158960, Note_on_c, 4, 62, 0
6, 1158960, Note_on_c, 4, 74, 90
6, 1158960, Note_on_c, 4, 62, 80
6, 1159200, Note_on_c, 4, 62, 0
6, 1159200, Note_on_c, 4, 74, 0
6, 1159200, Note_on_c, 4, 71, 90
6, 1159200, Note_on_c, 4, 59, 80
6, 1159680, Note_on_c, 4, 59, 0
6, 1159680, Note_on_c, 4, 71, 0
6, 1160640, Note_on_c, 4, 67, 90
6, 1160640, Note_on_c, 4, 72, 90
6, 1160640, Note_on_c, 4, 63, 80
6, 1161120, Note_on_c, 4, 63, 0
6, 1161120, Note_on_c, 4, 72, 0
6, 1161120, Note_on_c, 4, 67, 0
6, 1161120, Note_on_c, 4, 65, 90
6, 1161120, Note_on_c, 4, 70, 90
6, 1161120, Note_on_c, 4, 62, 80
6, 1161600, Note_on_c, 4, 62, 0
6, 1161600, Note_on_c, 4, 70, 0
6, 1161600, Note_on_c, 4, 65, 0
6, 1161600, Note_on_c, 4, 63, 90
6, 1161600, Note_on_c, 4, 68, 90
6, 1161600, Note_on_c, 4, 60, 80
6, 1162080, Note_on_c, 4, 60, 0
6, 1162080, Note_on_c, 4, 68, 0
6, 1162080, Note_on_c, 4, 63, 0
6, 1162080, Note_on_c, 4, 62, 90
6, 1162080, Note_on_c, 4, 67, 90
6, 1162080, Note_on_c, 4, 58, 80
6, 1162560, Note_on_c, 4, 58, 0
6, 1162560, Note_on_c, 4, 67, 0
6, 1162560, Note_on_c, 4, 62, 0
6, 1162560, Note_on_c, 4, 44, 80
6, 1162560, Note_on_c, 4, 56, 80
6, 1162800, Note_on_c, 4, 60, 90
6, 1163040, Note_on_c, 4, 60, 0
6, 1163040, Note_on_c, 4, 56, 0
6, 1163040, Note_on_c, 4, 44, 0
6, 1163040, Note_on_c, 4, 63, 90
6, 1163280, Note_on_c, 4, 63, 0
6, 1163280, Note_on_c, 4, 66, 90
6, 1163520, Note_on_c, 4, 66, 0
6, 1163520, Note_on_c, 4, 72, 90
6, 1163760, Note_on_c, 4, 72, 0
6, 1163760, Note_on_c, 4, 66, 90
6, 1164000, Note_on_c, 4, 66, 0
6, 1164000, Note_on_c, 4, 63, 90
6, 1164240, Note_on_c, 4, 63, 0
6, 1164240, Note_on_c, 4, 60, 90
6, 1164480, Note_on_c, 4, 60, 0
6, 1164480, Note_on_c, 4, 44, 80
6, 1164480, Note_on_c, 4, 56, 80
6, 1164720, Note_on_c, 4, 60, 90
6, 1164960, Note_on_c, 4, 60, 0
6, 1164960, Note_on_c, 4, 56, 0
6, 1164960, Note_on_c, 4, 44, 0
6, 1164960, Note_on_c, 4, 63, 90
6, 1165200, Note_on_c, 4, 63, 0
6, 1165200, Note_on_c, 4, 66, 90
6, 1165440, Note_on_c, 4, 66, 0
6, 1165440, Note_on_c, 4, 72, 90
6, 1165680, Note_on_c, 4, 72, 0
6, 1165680, Note_on_c, 4, 66, 90
6, 1165920, Note_on_c, 4, 66, 0
6, 1165920, Note_on_c, 4, 63, 90
6, 1166160, Note_on_c, 4, 63, 0
6, 1166160, Note_on_c, 4, 60, 90
6, 1166400, Note_on_c, 4, 60, 0
6, 1166400, Note_on_c, 4, 43, 80
6, 1166400, Note_on_c, 4, 55, 80
6, 1166640, Note_on_c, 4, 62, 90
6, 1166880, Note_on_c, 4, 62, 0
6, 1166880, Note_on_c, 4, 55, 0
6, 1166880, Note_on_c, 4, 43, 0
6, 1166880, Note_on_c, 4, 67, 90
6, 1167120, Note_on_c, 4, 67, 0
6, 1167120, Note_on_c, 4, 71, 90
6, 1167360, Note_on_c, 4, 71, 0
6, 1167360, Note_on_c, 4, 74, 90
6, 1167600, Note_on_c, 4, 74, 0
6, 1167600, Note_on_c, 4, 71, 90
6, 1167840, Note_on_c, 4, 71, 0
6, 1167840, Note_on_c, 4, 67, 90
6, 1168080, Note_on_c, 4, 67, 0
6, 1168080, Note_on_c, 4, 62, 90
6, 1168320, Note_on_c, 4, 62, 0
6, 1168320, Note_on_c, 4, 59, 90
6, 1168320, Note_on_c, 4, 43, 80
6, 1168320, Note_on_c, 4, 55, 80
6, 1168560, Note_on_c, 4, 59, 0
6, 1168560, Note_on_c, 4, 62, 90
6, 1168800, Note_on_c, 4, 62, 0
6, 1168800, Note_on_c, 4, 55, 0
6, 1168800, Note_on_c, 4, 43, 0
6, 1168800, Note_on_c, 4, 67, 90
6, 1169040, Note_on_c, 4, 67, 0
6, 1169040, Note_on_c, 4, 71, 90
6, 1169280, Note_on_c, 4, 71, 0
6, 1169280, Note_on_c, 4, 75, 90
6, 1169520, Note_on_c, 4, 75, 0
6, 1169520, Note_on_c, 4, 74, 90
6, 1169760, Note_on_c, 4, 74, 0
6, 1169760, Note_on_c, 4, 72, 90
6, 1170000, Note_on_c, 4, 72, 0
6, 1170000, Note_on_c, 4, 71, 90
6, 1170240, Note_on_c, 4, 71, 0
6, 1170240, Note_on_c, 4, 72, 90
6, 1170240, Note_on_c, 4, 44, 80
6, 1170240, Note_on_c, 4, 56, 80
6, 1170480, Note_on_c, 4, 72, 0
6, 1170480, Note_on_c, 4, 60, 90
6, 1170720, Note_on_c, 4, 60, 0
6, 1170720, Note_on_c, 4, 56, 0
6, 1170720, Note_on_c, 4, 44, 0
6, 1170720, Note_on_c, 4, 63, 90
6, 1170960, Note_on_c, 4, 63, 0
6, 1170960, Note_on_c, 4, 66, 90
6, 1171200, Note_on_c, 4, 66, 0
6, 1171200, Note_on_c, 4, 72, 90
6, 1171440, Note_on_c, 4, 72, 0
6, 1171440, Note_on_c, 4, 66, 90
6, 1171680, Note_on_c, 4, 66, 0
6, 1171680, Note_on_c, 4, 63, 90
6, 1171920, Note_on_c, 4, 63, 0
6, 1171920, Note_on_c, 4, 60, 90
6, 1172160, Note_on_c, 4, 60, 0
6, 1172160, Note_on_c, 4, 44, 80
6, 1172160, Note_on_c, 4, 56, 80
6, 1172400, Note_on_c, 4, 60, 90
6, 1172640, Note_on_c, 4, 60, 0
6, 1172640, Note_on_c, 4, 56, 0
6, 1172640, Note_on_c, 4, 44, 0
6, 1172640, Note_on_c, 4, 63, 90
6, 1172880, Note_on_c, 4, 63, 0
6, 1172880, Note_on_c, 4, 66, 90
6, 1173120, Note_on_c, 4, 66, 0
6, 1173120, Note_on_c, 4, 72, 90
6, 1173360, Note_on_c, 4, 72, 0
6, 1173360, Note_on_c, 4, 66, 90
6, 1173600, Note_on_c, 4, 66, 0
6, 1173600, Note_on_c, 4, 63, 90
6, 1173840, Note_on_c, 4, 63, 0
6, 1173840, Note_on_c, 4, 60, 90
6, 1174080, Note_on_c, 4, 60, 0
6, 1174080, Note_on_c, 4, 43, 80
6, 1174080, Note_on_c, 4, 55, 80
6, 1174320, Note_on_c, 4, 59, 90
6, 1174560, Note_on_c, 4, 59, 0
6, 1174560, Note_on_c, 4, 55, 0
6, 1174560, Note_on_c, 4, 43, 0
6, 1174560, Note_on_c, 4, 62, 90
6, 1174800, Note_on_c, 4, 62, 0
6, 1174800, Note_on_c, 4, 67, 90
6, 1175040, Note_on_c, 4, 67, 0
6, 1175040, Note_on_c, 4, 55, 80
6, 1175280, Note_on_c, 4, 60, 90
6, 1175520, Note_on_c, 4, 60, 0
6, 1175520, Note_on_c, 4, 55, 0
6, 1175520, Note_on_c, 4, 63, 90
6, 1175760, Note_on_c, 4, 63, 0
6, 1175760, Note_on_c, 4, 66, 90
6, 1176000, Note_on_c, 4, 66, 0
6, 1176000, Note_on_c, 4, 43, 80
6, 1176000, Note_on_c, 4, 55, 80
6, 1176240, Note_on_c, 4, 59, 90
6, 1176480, Note_on_c, 4, 59, 0
6, 1176480, Note_on_c, 4, 55, 0
6, 1176480, Note_on_c, 4, 43, 0
6, 1176480, Note_on_c, 4, 62, 90
6, 1176720, Note_on_c, 4, 62, 0
6, 1176720, Note_on_c, 4, 67, 90
6, 1176960, Note_on_c, 4, 67, 0
6, 1176960, Note_on_c, 4, 55, 80
6, 1177200, Note_on_c, 4, 60, 90
6, 1177440, Note_on_c, 4, 60, 0
6, 1177440, Note_on_c, 4, 55, 0
6, 1177440, Note_on_c, 4, 63, 90
6, 1177680, Note_on_c, 4, 63, 0
6, 1177680, Note_on_c, 4, 66, 90
6, 1177920, Note_on_c, 4, 66, 0
6, 1177920, Note_on_c, 4, 55, 80
6, 1178160, Note_on_c, 4, 59, 90
6, 1178400, Note_on_c, 4, 59, 0
6, 1178400, Note_on_c, 4, 55, 0
6, 1178400, Note_on_c, 4, 62, 90
6, 1178640, Note_on_c, 4, 62, 0
6, 1178640, Note_on_c, 4, 59, 90
6, 1178880, Note_on_c, 4, 59, 0
6, 1178880, Note_on_c, 4, 55, 80
6, 1179120, Note_on_c, 4, 61, 90
6, 1179360, Note_on_c, 4, 61, 0
6, 1179360, Note_on_c, 4, 55, 0
6, 1179360, Note_on_c, 4, 64, 90
6, 1179600, Note_on_c, 4, 64, 0
6, 1179600, Note_on_c, 4, 61, 90
6, 1179840, Note_on_c, 4, 61, 0
6, 1179840, Note_on_c, 4, 55, 80
6, 1180080, Note_on_c, 4, 62, 90
6, 1180320, Note_on_c, 4, 62, 0
6, 1180320, Note_on_c, 4, 55, 0
6, 1180320, Note_on_c, 4, 65, 90
6, 1180560, Note_on_c, 4, 65, 0
6, 1180560, Note_on_c, 4, 62, 90
6, 1180800, Note_on_c, 4, 62, 0
6, 1180800, Note_on_c, 4, 55, 80
6, 1181040, Note_on_c, 4, 59, 90
6, 1181280, Note_on_c, 4, 59, 0
6, 1181280, Note_on_c, 4, 55, 0
6, 1181280, Note_on_c, 4, 62, 90
6, 1181520, Note_on_c, 4, 62, 0
6, 1181520, Note_on_c, 4, 59, 90
6, 1181760, Note_on_c, 4, 59, 0
6, 1181760, Note_on_c, 4, 60, 90
6, 1181760, Note_on_c, 4, 48, 80
6, 1182000, Note_on_c, 4, 60, 0
6, 1182000, Note_on_c, 4, 64, 90
6, 1182240, Note_on_c, 4, 64, 0
6, 1182240, Note_on_c, 4, 48, 0
6, 1182240, Note_on_c, 4, 67, 90
6, 1182480, Note_on_c, 4, 67, 0
6, 1182480, Note_on_c, 4, 65, 90
6, 1182720, Note_on_c, 4, 65, 0
6, 1182720, Note_on_c, 4, 64, 90
6, 1182960, Note_on_c, 4, 64, 0
6, 1182960, Note_on_c, 4, 67, 90
6, 1183200, Note_on_c, 4, 67, 0
6, 1183200, Note_on_c, 4, 72, 90
6, 1183440, Note_on_c, 4, 72, 0
6, 1183440, Note_on_c, 4, 74, 90
6, 1183680, Note_on_c, 4, 74, 0
6, 1183680, Note_on_c, 4, 76, 90
6, 1183680, Note_on_c, 4, 36, 80
6, 1183920, Note_on_c, 4, 76, 0
6, 1183920, Note_on_c, 4, 72, 90
6, 1184160, Note_on_c, 4, 72, 0
6, 1184160, Note_on_c, 4, 36, 0
6, 1184160, Note_on_c, 4, 67, 90
6, 1184400, Note_on_c, 4, 67, 0
6, 1184400, Note_on_c, 4, 65, 90
6, 1184640, Note_on_c, 4, 65, 0
6, 1184640, Note_on_c, 4, 64, 90
6, 1184880, Note_on_c, 4, 64, 0
6, 1184880, Note_on_c, 4, 67, 90
6, 1185120, Note_on_c, 4, 67, 0
6, 1185120, Note_on_c, 4, 72, 90
6, 1185360, Note_on_c, 4, 72, 0
6, 1185360, Note_on_c, 4, 74, 90
6, 1185600, Note_on_c, 4, 74, 0
6, 1185600, Note_on_c, 4, 76, 90
6, 1185600, Note_on_c, 4, 45, 80
6, 1185600, Note_on_c, 4, 57, 80
6, 1185840, Note_on_c, 4, 76, 0
6, 1185840, Note_on_c, 4, 69, 90
6, 1186080, Note_on_c, 4, 69, 0
6, 1186080, Note_on_c, 4, 57, 0
6, 1186080, Note_on_c, 4, 45, 0
6, 1186080, Note_on_c, 4, 73, 90
6, 1186320, Note_on_c, 4, 73, 0
6, 1186320, Note_on_c, 4, 76, 90
6, 1186560, Note_on_c, 4, 76, 0
6, 1186560, Note_on_c, 4, 79, 90
6, 1186800, Note_on_c, 4, 79, 0
6, 1186800, Note_on_c, 4, 73, 90
6, 1187040, Note_on_c, 4, 73, 0
6, 1187040, Note_on_c, 4, 76, 90
6, 1187280, Note_on_c, 4, 76, 0
6, 1187280, Note_on_c, 4, 79, 90
6, 1187520, Note_on_c, 4, 79, 0
6, 1187520, Note_on_c, 4, 85, 90
6, 1187760, Note_on_c, 4, 85, 0
6, 1187760, Note_on_c, 4, 76, 90
6, 1188000, Note_on_c, 4, 76, 0
6, 1188000, Note_on_c, 4, 79, 90
6, 1188240, Note_on_c, 4, 79, 0
6, 1188240, Note_on_c, 4, 85, 90
6, 1188480, Note_on_c, 4, 85, 0
6, 1188480, Note_on_c, 4, 88, 90
6, 1188720, Note_on_c, 4, 64, 80
6, 1188960, Note_on_c, 4, 64, 0
6, 1188960, Note_on_c, 4, 88, 0
6, 1188960, Note_on_c, 4, 61, 80
6, 1189200, Note_on_c, 4, 61, 0
6, 1189200, Note_on_c, 4, 57, 80
6, 1189440, Note_on_c, 4, 57, 0
6, 1189440, Note_on_c, 4, 74, 90
6, 1189440, Note_on_c, 4, 62, 80
6, 1189680, Note_on_c, 4, 74, 0
6, 1189680, Note_on_c, 4, 69, 90
6, 1189920, Note_on_c, 4, 69, 0
6, 1189920, Note_on_c, 4, 62, 0
6, 1189920, Note_on_c, 4, 65, 90
6, 1190160, Note_on_c, 4, 65, 0
6, 1190160, Note_on_c, 4, 64, 90
6, 1190400, Note_on_c, 4, 64, 0
6, 1190400, Note_on_c, 4, 62, 90
6, 1190640, Note_on_c, 4, 62, 0
6, 1190640, Note_on_c, 4, 65, 90
6, 1190880, Note_on_c, 4, 65, 0
6, 1190880, Note_on_c, 4, 69, 90
6, 1191120, Note_on_c, 4, 69, 0
6, 1191120, Note_on_c, 4, 73, 90
6, 1191360, Note_on_c, 4, 73, 0
6, 1191360, Note_on_c, 4, 74, 90
6, 1191360, Note_on_c, 4, 50, 80
6, 1191600, Note_on_c, 4, 74, 0
6, 1191600, Note_on_c, 4, 69, 90
6, 1191840, Note_on_c, 4, 69, 0
6, 1191840, Note_on_c, 4, 50, 0
6, 1191840, Note_on_c, 4, 65, 90
6, 1192080, Note_on_c, 4, 65, 0
6, 1192080, Note_on_c, 4, 64, 90
6, 1192320, Note_on_c, 4, 64, 0
6, 1192320, Note_on_c, 4, 62, 90
6, 1192560, Note_on_c, 4, 62, 0
6, 1192560, Note_on_c, 4, 65, 90
6, 1192800, Note_on_c, 4, 65, 0
6, 1192800, Note_on_c, 4, 69, 90
6, 1193040, Note_on_c, 4, 69, 0
6, 1193040, Note_on_c, 4, 72, 90
6, 1193280, Note_on_c, 4, 72, 0
6, 1193280, Note_on_c, 4, 71, 90
6, 1193280, Note_on_c, 4, 43, 80
6, 1193280, Note_on_c, 4, 55, 80
6, 1193520, Note_on_c, 4, 71, 0
6, 1193520, Note_on_c, 4, 67, 90
6, 1193760, Note_on_c, 4, 67, 0
6, 1193760, Note_on_c, 4, 55, 0
6, 1193760, Note_on_c, 4, 43, 0
6, 1193760, Note_on_c, 4, 71, 90
6, 1194000, Note_on_c, 4, 71, 0
6, 1194000, Note_on_c, 4, 74, 90
6, 1194240, Note_on_c, 4, 74, 0
6, 1194240, Note_on_c, 4, 77, 90
6, 1194480, Note_on_c, 4, 77, 0
6, 1194480, Note_on_c, 4, 71, 90
6, 1194720, Note_on_c, 4, 71, 0
6, 1194720, Note_on_c, 4, 74, 90
6, 1194960, Note_on_c, 4, 74, 0
6, 1194960, Note_on_c, 4, 77, 90
6, 1195200, Note_on_c, 4, 77, 0
6, 1195200, Note_on_c, 4, 83, 90
6, 1195440, Note_on_c, 4, 83, 0
6, 1195440, Note_on_c, 4, 74, 90
6, 1195680, Note_on_c, 4, 74, 0
6, 1195680, Note_on_c, 4, 77, 90
6, 1195920, Note_on_c, 4, 77, 0
6, 1195920, Note_on_c, 4, 83, 90
6, 1196160, Note_on_c, 4, 83, 0
6, 1196160, Note_on_c, 4, 86, 90
6, 1196400, Note_on_c, 4, 62, 80
6, 1196640, Note_on_c, 4, 62, 0
6, 1196640, Note_on_c, 4, 86, 0
6, 1196640, Note_on_c, 4, 59, 80
6, 1196880, Note_on_c, 4, 59, 0
6, 1196880, Note_on_c, 4, 55, 80
6, 1197120, Note_on_c, 4, 55, 0
6, 1197120, Note_on_c, 4, 60, 80
6, 1197360, Note_on_c, 4, 79, 90
6, 1197600, Note_on_c, 4, 79, 0
6, 1197600, Note_on_c, 4, 60, 0
6, 1197600, Note_on_c, 4, 76, 90
6, 1197840, Note_on_c, 4, 76, 0
6, 1197840, Note_on_c, 4, 72, 90
6, 1198080, Note_on_c, 4, 72, 0
6, 1198080, Note_on_c, 4, 71, 90
6, 1198080, Note_on_c, 4, 41, 80
6, 1198080, Note_on_c, 4, 53, 80
6, 1198320, Note_on_c, 4, 71, 0
6, 1198320, Note_on_c, 4, 67, 90
6, 1198560, Note_on_c, 4, 67, 0
6, 1198560, Note_on_c, 4, 53, 0
6, 1198560, Note_on_c, 4, 41, 0
6, 1198560, Note_on_c, 4, 74, 90
6, 1198800, Note_on_c, 4, 74, 0
6, 1198800, Note_on_c, 4, 71, 90
6, 1199040, Note_on_c, 4, 71, 0
6, 1199040, Note_on_c, 4, 72, 90
6, 1199040, Note_on_c, 4, 40, 80
6, 1199040, Note_on_c, 4, 52, 80
6, 1199280, Note_on_c, 4, 72, 0
6, 1199280, Note_on_c, 4, 67, 90
6, 1199520, Note_on_c, 4, 67, 0
6, 1199520, Note_on_c, 4, 52, 0
6, 1199520, Note_on_c, 4, 40, 0
6, 1199520, Note_on_c, 4, 76, 90
6, 1199760, Note_on_c, 4, 76, 0
6, 1199760, Note_on_c, 4, 72, 90
6, 1200000, Note_on_c, 4, 72, 0
6, 1200000, Note_on_c, 4, 74, 90
6, 1200000, Note_on_c, 4, 47, 80
6, 1200000, Note_on_c, 4, 59, 80
6, 1200240, Note_on_c, 4, 74, 0
6, 1200240, Note_on_c, 4, 67, 90
6, 1200480, Note_on_c, 4, 67, 0
6, 1200480, Note_on_c, 4, 59, 0
6, 1200480, Note_on_c, 4, 47, 0
6, 1200480, Note_on_c, 4, 77, 90
6, 1200720, Note_on_c, 4, 77, 0
6, 1200720, Note_on_c, 4, 74, 90
6, 1200960, Note_on_c, 4, 74, 0
6, 1200960, Note_on_c, 4, 76, 90
6, 1200960, Note_on_c, 4, 48, 80
6, 1200960, Note_on_c, 4, 60, 80
6, 1201200, Note_on_c, 4, 76, 0
6, 1201200, Note_on_c, 4, 72, 90
6, 1201440, Note_on_c, 4, 72, 0
6, 1201440, Note_on_c, 4, 60, 0
6, 1201440, Note_on_c, 4, 48, 0
6, 1201440, Note_on_c, 4, 84, 90
6, 1201680, Note_on_c, 4, 84, 0
6, 1201680, Note_on_c, 4, 79, 90
6, 1201920, Note_on_c, 4, 79, 0
6, 1201920, Note_on_c, 4, 83, 90
6, 1201920, Note_on_c, 4, 53, 80
6, 1201920, Note_on_c, 4, 65, 80
6, 1202160, Note_on_c, 4, 83, 0
6, 1202160, Note_on_c, 4, 79, 90
6, 1202400, Note_on_c, 4, 79, 0
6, 1202400, Note_on_c, 4, 65, 0
6, 1202400, Note_on_c, 4, 53, 0
6, 1202400, Note_on_c, 4, 86, 90
6, 1202640, Note_on_c, 4, 86, 0
6, 1202640, Note_on_c, 4, 83, 90
6, 1202880, Note_on_c, 4, 83, 0
6, 1202880, Note_on_c, 4, 84, 90
6, 1202880, Note_on_c, 4, 52, 80
6, 1202880, Note_on_c, 4, 64, 80
6, 1203120, Note_on_c, 4, 84, 0
6, 1203120, Note_on_c, 4, 79, 90
6, 1203360, Note_on_c, 4, 79, 0
6, 1203360, Note_on_c, 4, 64, 0
6, 1203360, Note_on_c, 4, 52, 0
6, 1203360, Note_on_c, 4, 88, 90
6, 1203600, Note_on_c, 4, 88, 0
6, 1203600, Note_on_c, 4, 84, 90
6, 1203840, Note_on_c, 4, 84, 0
6, 1203840, Note_on_c, 4, 86, 90
6, 1203840, Note_on_c, 4, 59, 80
6, 1203840, Note_on_c, 4, 71, 80
6, 1204080, Note_on_c, 4, 86, 0
6, 1204080, Note_on_c, 4, 79, 90
6, 1204320, Note_on_c, 4, 79, 0
6, 1204320, Note_on_c, 4, 71, 0
6, 1204320, Note_on_c, 4, 59, 0
6, 1204320, Note_on_c, 4, 89, 90
6, 1204560, Note_on_c, 4, 89, 0
6, 1204560, Note_on_c, 4, 86, 90
6, 1204800, Note_on_c, 4, 86, 0
6, 1204800, Note_on_c, 4, 88, 90
6, 1204800, Note_on_c, 4, 60, 80
6, 1204800, Note_on_c, 4, 72, 80
6, 1205040, Note_on_c, 4, 88, 0
6, 1205040, Note_on_c, 4, 84, 90
6, 1205280, Note_on_c, 4, 84, 0
6, 1205280, Note_on_c, 4, 72, 0
6, 1205280, Note_on_c, 4, 60, 0
6, 1205280, Note_on_c, 4, 76, 90
6, 1205520, Note_on_c, 4, 76, 0
6, 1205520, Note_on_c, 4, 78, 90
6, 1205760, Note_on_c, 4, 78, 0
6, 1205760, Note_on_c, 4, 81, 90
6, 1205760, Note_on_c, 4, 65, 80
6, 1206000, Note_on_c, 4, 65, 0
6, 1206000, Note_on_c, 4, 81, 0
6, 1206000, Note_on_c, 4, 85, 90
6, 1206000, Note_on_c, 4, 69, 80
6, 1206240, Note_on_c, 4, 69, 0
6, 1206240, Note_on_c, 4, 85, 0
6, 1206240, Note_on_c, 4, 86, 90
6, 1206240, Note_on_c, 4, 71, 80
6, 1206480, Note_on_c, 4, 71, 0
6, 1206480, Note_on_c, 4, 86, 0
6, 1206480, Note_on_c, 4, 89, 90
6, 1206480, Note_on_c, 4, 74, 80
6, 1206720, Note_on_c, 4, 74, 0
6, 1206720, Note_on_c, 4, 89, 0
6, 1206720, Note_on_c, 4, 79, 90
6, 1206720, Note_on_c, 4, 64, 80
6, 1206960, Note_on_c, 4, 64, 0
6, 1206960, Note_on_c, 4, 79, 0
6, 1206960, Note_on_c, 4, 83, 90
6, 1206960, Note_on_c, 4, 67, 80
6, 1207200, Note_on_c, 4, 67, 0
6, 1207200, Note_on_c, 4, 83, 0
6, 1207200, Note_on_c, 4, 84, 90
6, 1207200, Note_on_c, 4, 69, 80
6, 1207440, Note_on_c, 4, 69, 0
6, 1207440, Note_on_c, 4, 84, 0
6, 1207440, Note_on_c, 4, 88, 90
6, 1207440, Note_on_c, 4, 72, 80
6, 1207680, Note_on_c, 4, 72, 0
6, 1207680, Note_on_c, 4, 88, 0
6, 1207680, Note_on_c, 4, 77, 90
6, 1207680, Note_on_c, 4, 62, 80
6, 1207920, Note_on_c, 4, 62, 0
6, 1207920, Note_on_c, 4, 77, 0
6, 1207920, Note_on_c, 4, 81, 90
6, 1207920, Note_on_c, 4, 65, 80
6, 1208160, Note_on_c, 4, 65, 0
6, 1208160, Note_on_c, 4, 81, 0
6, 1208160, Note_on_c, 4, 83, 90
6, 1208160, Note_on_c, 4, 67, 80
6, 1208400, Note_on_c, 4, 67, 0
6, 1208400, Note_on_c, 4, 83, 0
6, 1208400, Note_on_c, 4, 86, 90
6, 1208400, Note_on_c, 4, 71, 80
6, 1208640, Note_on_c, 4, 71, 0
6, 1208640, Note_on_c, 4, 86, 0
6, 1208640, Note_on_c, 4, 76, 90
6, 1208640, Note_on_c, 4, 60, 80
6, 1208880, Note_on_c, 4, 60, 0
6, 1208880, Note_on_c, 4, 76, 0
6, 1208880, Note_on_c, 4, 80, 90
6, 1208880, Note_on_c, 4, 64, 80
6, 1209120, Note_on_c, 4, 64, 0
6, 1209120, Note_on_c, 4, 80, 0
6, 1209120, Note_on_c, 4, 81, 90
6, 1209120, Note_on_c, 4, 66, 80
6, 1209360, Note_on_c, 4, 66, 0
6, 1209360, Note_on_c, 4, 81, 0
6, 1209360, Note_on_c, 4, 84, 90
6, 1209360, Note_on_c, 4, 69, 80
6, 1209600, Note_on_c, 4, 69, 0
6, 1209600, Note_on_c, 4, 84, 0
6, 1209600, Note_on_c, 4, 74, 90
6, 1209600, Note_on_c, 4, 59, 80
6, 1209840, Note_on_c, 4, 59, 0
6, 1209840, Note_on_c, 4, 74, 0
6, 1209840, Note_on_c, 4, 78, 90
6, 1209840, Note_on_c, 4, 62, 80
6, 1210080, Note_on_c, 4, 62, 0
6, 1210080, Note_on_c, 4, 78, 0
6, 1210080, Note_on_c, 4, 79, 90
6, 1210080, Note_on_c, 4, 64, 80
6, 1210320, Note_on_c, 4, 64, 0
6, 1210320, Note_on_c, 4, 79, 0
6, 1210320, Note_on_c, 4, 83, 90
6, 1210320, Note_on_c, 4, 67, 80
6, 1210560, Note_on_c, 4, 67, 0
6, 1210560, Note_on_c, 4, 83, 0
6, 1210560, Note_on_c, 4, 72, 90
6, 1210560, Note_on_c, 4, 57, 80
6, 1210560, Note_on_c, 4, 60, 80
6, 1210560, Note_on_c, 4, 62, 80
6, 1210560, Note_on_c, 4, 66, 80
6, 1210800, Note_on_c, 4, 72, 0
6, 1210800, Note_on_c, 4, 74, 90
6, 1211040, Note_on_c, 4, 74, 0
6, 1211040, Note_on_c, 4, 78, 90
6, 1211280, Note_on_c, 4, 78, 0
6, 1211280, Note_on_c, 4, 81, 90
6, 1211520, Note_on_c, 4, 81, 0
6, 1211520, Note_on_c, 4, 66, 0
6, 1211520, Note_on_c, 4, 57, 0
6, 1211520, Note_on_c, 4, 60, 0
6, 1211520, Note_on_c, 4, 62, 0
6, 1211520, Note_on_c, 4, 84, 90
6, 1211760, Note_on_c, 4, 84, 0
6, 1211760, Note_on_c, 4, 81, 90
6, 1212000, Note_on_c, 4, 81, 0
6, 1212000, Note_on_c, 4, 78, 90
6, 1212240, Note_on_c, 4, 78, 0
6, 1212240, Note_on_c, 4, 72, 90
6, 1212480, Note_on_c, 4, 72, 0
6, 1212480, Note_on_c, 4, 71, 90
6, 1212480, Note_on_c, 4, 55, 80
6, 1212480, Note_on_c, 4, 59, 80
6, 1212480, Note_on_c, 4, 62, 80
6, 1212480, Note_on_c, 4, 67, 80
6, 1212720, Note_on_c, 4, 71, 0
6, 1212720, Note_on_c, 4, 74, 90
6, 1212960, Note_on_c, 4, 74, 0
6, 1212960, Note_on_c, 4, 79, 90
6, 1213200, Note_on_c, 4, 79, 0
6, 1213200, Note_on_c, 4, 83, 90
6, 1213440, Note_on_c, 4, 83, 0
6, 1213440, Note_on_c, 4, 67, 0
6, 1213440, Note_on_c, 4, 55, 0
6, 1213440, Note_on_c, 4, 59, 0
6, 1213440, Note_on_c, 4, 62, 0
6, 1213440, Note_on_c, 4, 86, 90
6, 1213680, Note_on_c, 4, 86, 0
6, 1213680, Note_on_c, 4, 83, 90
6, 1213920, Note_on_c, 4, 83, 0
6, 1213920, Note_on_c, 4, 79, 90
6, 1214160, Note_on_c, 4, 79, 0
6, 1214160, Note_on_c, 4, 74, 90
6, 1214400, Note_on_c, 4, 74, 0
6, 1214400, Note_on_c, 4, 72, 90
6, 1214400, Note_on_c, 4, 45, 80
6, 1214400, Note_on_c, 4, 48, 80
6, 1214400, Note_on_c, 4, 50, 80
6, 1214400, Note_on_c, 4, 54, 80
6, 1214640, Note_on_c, 4, 72, 0
6, 1214640, Note_on_c, 4, 74, 90
6, 1214880, Note_on_c, 4, 74, 0
6, 1214880, Note_on_c, 4, 78, 90
6, 1215120, Note_on_c, 4, 78, 0
6, 1215120, Note_on_c, 4, 81, 90
6, 1215360, Note_on_c, 4, 81, 0
6, 1215360, Note_on_c, 4, 54, 0
6, 1215360, Note_on_c, 4, 45, 0
6, 1215360, Note_on_c, 4, 48, 0
6, 1215360, Note_on_c, 4, 50, 0
6, 1215360, Note_on_c, 4, 84, 90
6, 1215600, Note_on_c, 4, 84, 0
6, 1215600, Note_on_c, 4, 81, 90
6, 1215840, Note_on_c, 4, 81, 0
6, 1215840, Note_on_c, 4, 78, 90
6, 1216080, Note_on_c, 4, 78, 0
6, 1216080, Note_on_c, 4, 72, 90
6, 1216320, Note_on_c, 4, 72, 0
6, 1216320, Note_on_c, 4, 71, 90
6, 1216320, Note_on_c, 4, 43, 80
6, 1216560, Note_on_c, 4, 71, 0
6, 1216560, Note_on_c, 4, 67, 90
6, 1216800, Note_on_c, 4, 67, 0
6, 1216800, Note_on_c, 4, 43, 0
6, 1216800, Note_on_c, 4, 71, 90
6, 1216800, Note_on_c, 4, 47, 80
6, 1217040, Note_on_c, 4, 47, 0
6, 1217040, Note_on_c, 4, 71, 0
6, 1217040, Note_on_c, 4, 74, 90
6, 1217040, Note_on_c, 4, 50, 80
6, 1217280, Note_on_c, 4, 50, 0
6, 1217280, Note_on_c, 4, 74, 0
6, 1217280, Note_on_c, 4, 79, 90
6, 1217280, Note_on_c, 4, 55, 80
6, 1217520, Note_on_c, 4, 55, 0
6, 1217520, Note_on_c, 4, 79, 0
6, 1217520, Note_on_c, 4, 78, 90
6, 1217520, Note_on_c, 4, 54, 80
6, 1217760, Note_on_c, 4, 54, 0
6, 1217760, Note_on_c, 4, 78, 0
6, 1217760, Note_on_c, 4, 79, 90
6, 1217760, Note_on_c, 4, 55, 80
6, 1218000, Note_on_c, 4, 55, 0
6, 1218000, Note_on_c, 4, 79, 0
6, 1218000, Note_on_c, 4, 78, 90
6, 1218000, Note_on_c, 4, 54, 80
6, 1218240, Note_on_c, 4, 54, 0
6, 1218240, Note_on_c, 4, 78, 0
6, 1218240, Note_on_c, 4, 79, 90
6, 1218240, Note_on_c, 4, 55, 80
6, 1218480, Note_on_c, 4, 55, 0
6, 1218480, Note_on_c, 4, 79, 0
6, 1218480, Note_on_c, 4, 67, 90
6, 1218480, Note_on_c, 4, 55, 80
6, 1218720, Note_on_c, 4, 55, 0
6, 1218720, Note_on_c, 4, 67, 0
6, 1218720, Note_on_c, 4, 71, 90
6, 1218720, Note_on_c, 4, 59, 80
6, 1218960, Note_on_c, 4, 59, 0
6, 1218960, Note_on_c, 4, 71, 0
6, 1218960, Note_on_c, 4, 74, 90
6, 1218960, Note_on_c, 4, 62, 80
6, 1219200, Note_on_c, 4, 62, 0
6, 1219200, Note_on_c, 4, 74, 0
6, 1219200, Note_on_c, 4, 79, 90
6, 1219200, Note_on_c, 4, 67, 80
6, 1219440, Note_on_c, 4, 67, 0
6, 1219440, Note_on_c, 4, 79, 0
6, 1219440, Note_on_c, 4, 78, 90
6, 1219440, Note_on_c, 4, 66, 80
6, 1219680, Note_on_c, 4, 66, 0
6, 1219680, Note_on_c, 4, 78, 0
6, 1219680, Note_on_c, 4, 79, 90
6, 1219680, Note_on_c, 4, 67, 80
6, 1219920, Note_on_c, 4, 67, 0
6, 1219920, Note_on_c, 4, 79, 0
6, 1219920, Note_on_c, 4, 78, 90
6, 1219920, Note_on_c, 4, 66, 80
6, 1220160, Note_on_c, 4, 66, 0
6, 1220160, Note_on_c, 4, 78, 0
6, 1220160, Note_on_c, 4, 79, 90
6, 1220160, Note_on_c, 4, 67, 80
6, 1220640, Note_on_c, 4, 67, 0
6, 1220640, Note_on_c, 4, 79, 0
6, 1254720, Note_on_c, 4, 60, 80
6, 1254960, Note_on_c, 4, 60, 0
6, 1254960, Note_on_c, 4, 67, 80
6, 1255200, Note_on_c, 4, 67, 0
6, 1255200, Note_on_c, 4, 72, 90
6, 1255200, Note_on_c, 4, 64, 80
6, 1255440, Note_on_c, 4, 64, 0
6, 1255440, Note_on_c, 4, 67, 80
6, 1255680, Note_on_c, 4, 67, 0
6, 1255680, Note_on_c, 4, 72, 0
6, 1255680, Note_on_c, 4, 72, 90
6, 1255680, Note_on_c, 4, 60, 80
6, 1255920, Note_on_c, 4, 60, 0
6, 1255920, Note_on_c, 4, 67, 80
6, 1256160, Note_on_c, 4, 67, 0
6, 1256160, Note_on_c, 4, 72, 0
6, 1256160, Note_on_c, 4, 72, 90
6, 1256160, Note_on_c, 4, 64, 80
6, 1256400, Note_on_c, 4, 64, 0
6, 1256400, Note_on_c, 4, 67, 80
6, 1256640, Note_on_c, 4, 67, 0
6, 1256640, Note_on_c, 4, 72, 0
6, 1256640, Note_on_c, 4, 74, 90
6, 1256640, Note_on_c, 4, 55, 80
6, 1256880, Note_on_c, 4, 55, 0
6, 1256880, Note_on_c, 4, 67, 80
6, 1257120, Note_on_c, 4, 67, 0
6, 1257120, Note_on_c, 4, 74, 0
6, 1257120, Note_on_c, 4, 74, 90
6, 1257120, Note_on_c, 4, 65, 80
6, 1257360, Note_on_c, 4, 65, 0
6, 1257360, Note_on_c, 4, 74, 0
6, 1257360, Note_on_c, 4, 76, 90
6, 1257360, Note_on_c, 4, 67, 80
6, 1257600, Note_on_c, 4, 67, 0
6, 1257600, Note_on_c, 4, 76, 0
6, 1257600, Note_on_c, 4, 72, 90
6, 1257600, Note_on_c, 4, 64, 80
6, 1257840, Note_on_c, 4, 64, 0
6, 1257840, Note_on_c, 4, 67, 80
6, 1258080, Note_on_c, 4, 67, 0
6, 1258080, Note_on_c, 4, 72, 0
6, 1258080, Note_on_c, 4, 72, 90
6, 1258080, Note_on_c, 4, 60, 80
6, 1258320, Note_on_c, 4, 60, 0
6, 1258320, Note_on_c, 4, 67, 80
6, 1258560, Note_on_c, 4, 67, 0
6, 1258560, Note_on_c, 4, 72, 0
6, 1258560, Note_on_c, 4, 74, 90
6, 1258560, Note_on_c, 4, 55, 80
6, 1258800, Note_on_c, 4, 55, 0
6, 1258800, Note_on_c, 4, 67, 80
6, 1259040, Note_on_c, 4, 67, 0
6, 1259040, Note_on_c, 4, 74, 0
6, 1259040, Note_on_c, 4, 74, 90
6, 1259040, Note_on_c, 4, 65, 80
6, 1259280, Note_on_c, 4, 65, 0
6, 1259280, Note_on_c, 4, 74, 0
6, 1259280, Note_on_c, 4, 76, 90
6, 1259280, Note_on_c, 4, 67, 80
6, 1259520, Note_on_c, 4, 67, 0
6, 1259520, Note_on_c, 4, 76, 0
6, 1259520, Note_on_c, 4, 72, 90
6, 1259520, Note_on_c, 4, 64, 80
6, 1259760, Note_on_c, 4, 64, 0
6, 1259760, Note_on_c, 4, 67, 80
6, 1260000, Note_on_c, 4, 67, 0
6, 1260000, Note_on_c, 4, 72, 0
6, 1260000, Note_on_c, 4, 74, 90
6, 1260000, Note_on_c, 4, 77, 90
6, 1260000, Note_on_c, 4, 55, 80
6, 1260240, Note_on_c, 4, 55, 0
6, 1260240, Note_on_c, 4, 67, 80
6, 1260480, Note_on_c, 4, 67, 0
6, 1260480, Note_on_c, 4, 77, 0
6, 1260480, Note_on_c, 4, 74, 0
6, 1260480, Note_on_c, 4, 72, 90
6, 1260480, Note_on_c, 4, 76, 90
6, 1260480, Note_on_c, 4, 55, 80
6, 1260720, Note_on_c, 4, 55, 0
6, 1260720, Note_on_c, 4, 67, 80
6, 1260960, Note_on_c, 4, 67, 0
6, 1260960, Note_on_c, 4, 66, 80
6, 1261200, Note_on_c, 4, 66, 0
6, 1261200, Note_on_c, 4, 67, 80
6, 1261440, Note_on_c, 4, 67, 0
6, 1261440, Note_on_c, 4, 76, 0
6, 1261440, Note_on_c, 4, 72, 0
6, 1261440, Note_on_c, 4, 71, 90
6, 1261440, Note_on_c, 4, 74, 90
6, 1261440, Note_on_c, 4, 66, 80
6, 1261680, Note_on_c, 4, 66, 0
6, 1261680, Note_on_c, 4, 67, 80
6, 1261920, Note_on_c, 4, 67, 0
6, 1261920, Note_on_c, 4, 74, 0
6, 1261920, Note_on_c, 4, 71, 0
6, 1261920, Note_on_c, 4, 66, 80
6, 1262160, Note_on_c, 4, 66, 0
6, 1262160, Note_on_c, 4, 67, 80
6, 1262400, Note_on_c, 4, 67, 0
6, 1262400, Note_on_c, 4, 55, 80
6, 1262640, Note_on_c, 4, 55, 0
6, 1262640, Note_on_c, 4, 62, 80
6, 1262880, Note_on_c, 4, 62, 0
6, 1262880, Note_on_c, 4, 71, 90
6, 1262880, Note_on_c, 4, 74, 90
6, 1262880, Note_on_c, 4, 59, 80
6, 1263120, Note_on_c, 4, 59, 0
6, 1263120, Note_on_c, 4, 62, 80
6, 1263360, Note_on_c, 4, 62, 0
6, 1263360, Note_on_c, 4, 74, 0
6, 1263360, Note_on_c, 4, 71, 0
6, 1263360, Note_on_c, 4, 71, 90
6, 1263360, Note_on_c, 4, 74, 90
6, 1263360, Note_on_c, 4, 55, 80
6, 1263600, Note_on_c, 4, 55, 0
6, 1263600, Note_on_c, 4, 62, 80
6, 1263840, Note_on_c, 4, 62, 0
6, 1263840, Note_on_c, 4, 74, 0
6, 1263840, Note_on_c, 4, 71, 0
6, 1263840, Note_on_c, 4, 71, 90
6, 1263840, Note_on_c, 4, 74, 90
6, 1263840, Note_on_c, 4, 59, 80
6, 1264080, Note_on_c, 4, 59, 0
6, 1264080, Note_on_c, 4, 62, 80
6, 1264320, Note_on_c, 4, 62, 0
6, 1264320, Note_on_c, 4, 74, 0
6, 1264320, Note_on_c, 4, 71, 0
6, 1264320, Note_on_c, 4, 72, 90
6, 1264320, Note_on_c, 4, 76, 90
6, 1264320, Note_on_c, 4, 55, 80
6, 1264560, Note_on_c, 4, 55, 0
6, 1264560, Note_on_c, 4, 64, 80
6, 1264800, Note_on_c, 4, 64, 0
6, 1264800, Note_on_c, 4, 76, 0
6, 1264800, Note_on_c, 4, 72, 0
6, 1264800, Note_on_c, 4, 76, 90
6, 1264800, Note_on_c, 4, 60, 80
6, 1265040, Note_on_c, 4, 60, 0
6, 1265040, Note_on_c, 4, 76, 0
6, 1265040, Note_on_c, 4, 77, 90
6, 1265040, Note_on_c, 4, 64, 80
6, 1265280, Note_on_c, 4, 64, 0
6, 1265280, Note_on_c, 4, 77, 0
6, 1265280, Note_on_c, 4, 74, 90
6, 1265280, Note_on_c, 4, 55, 80
6, 1265520, Note_on_c, 4, 55, 0
6, 1265520, Note_on_c, 4, 62, 80
6, 1265760, Note_on_c, 4, 62, 0
6, 1265760, Note_on_c, 4, 74, 0
6, 1265760, Note_on_c, 4, 71, 90
6, 1265760, Note_on_c, 4, 74, 90
6, 1265760, Note_on_c, 4, 59, 80
6, 1266000, Note_on_c, 4, 59, 0
6, 1266000, Note_on_c, 4, 62, 80
6, 1266240, Note_on_c, 4, 62, 0
6, 1266240, Note_on_c, 4, 74, 0
6, 1266240, Note_on_c, 4, 71, 0
6, 1266240, Note_on_c, 4, 72, 90
6, 1266240, Note_on_c, 4, 76, 90
6, 1266240, Note_on_c, 4, 55, 80
6, 1266480, Note_on_c, 4, 55, 0
6, 1266480, Note_on_c, 4, 64, 80
6, 1266720, Note_on_c, 4, 64, 0
6, 1266720, Note_on_c, 4, 76, 0
6, 1266720, Note_on_c, 4, 72, 0
6, 1266720, Note_on_c, 4, 76, 90
6, 1266720, Note_on_c, 4, 60, 80
6, 1266960, Note_on_c, 4, 60, 0
6, 1266960, Note_on_c, 4, 76, 0
6, 1266960, Note_on_c, 4, 77, 90
6, 1266960, Note_on_c, 4, 64, 80
6, 1267200, Note_on_c, 4, 64, 0
6, 1267200, Note_on_c, 4, 77, 0
6, 1267200, Note_on_c, 4, 74, 90
6, 1267200, Note_on_c, 4, 55, 80
6, 1267440, Note_on_c, 4, 55, 0
6, 1267440, Note_on_c, 4, 62, 80
6, 1267680, Note_on_c, 4, 62, 0
6, 1267680, Note_on_c, 4, 74, 0
6, 1267680, Note_on_c, 4, 71, 90
6, 1267680, Note_on_c, 4, 79, 90
6, 1267680, Note_on_c, 4, 59, 80
6, 1267920, Note_on_c, 4, 59, 0
6, 1267920, Note_on_c, 4, 62, 80
6, 1268160, Note_on_c, 4, 62, 0
6, 1268160, Note_on_c, 4, 79, 0
6, 1268160, Note_on_c, 4, 71, 0
6, 1268160, Note_on_c, 4, 74, 90
6, 1268160, Note_on_c, 4, 77, 90
6, 1268160, Note_on_c, 4, 48, 80
6, 1268400, Note_on_c, 4, 48, 0
6, 1268400, Note_on_c, 4, 60, 80
6, 1268640, Note_on_c, 4, 60, 0
6, 1268640, Note_on_c, 4, 59, 80
6, 1268880, Note_on_c, 4, 59, 0
6, 1268880, Note_on_c, 4, 60, 80
6, 1269120, Note_on_c, 4, 60, 0
6, 1269120, Note_on_c, 4, 77, 0
6, 1269120, Note_on_c, 4, 74, 0
6, 1269120, Note_on_c, 4, 72, 90
6, 1269120, Note_on_c, 4, 76, 90
6, 1269120, Note_on_c, 4, 59, 80
6, 1269360, Note_on_c, 4, 59, 0
6, 1269360, Note_on_c, 4, 60, 80
6, 1269600, Note_on_c, 4, 60, 0
6, 1269600, Note_on_c, 4, 76, 0
6, 1269600, Note_on_c, 4, 72, 0
6, 1269600, Note_on_c, 4, 59, 80
6, 1269840, Note_on_c, 4, 59, 0
6, 1269840, Note_on_c, 4, 60, 80
6, 1270080, Note_on_c, 4, 60, 0
6, 1270080, Note_on_c, 4, 48, 80
6, 1270320, Note_on_c, 4, 79, 90
6, 1270560, Note_on_c, 4, 79, 0
6, 1270560, Note_on_c, 4, 78, 90
6, 1270800, Note_on_c, 4, 78, 0
6, 1270800, Note_on_c, 4, 79, 90
6, 1271040, Note_on_c, 4, 79, 0
6, 1271040, Note_on_c, 4, 48, 0
6, 1271040, Note_on_c, 4, 77, 90
6, 1271280, Note_on_c, 4, 77, 0
6, 1271280, Note_on_c, 4, 76, 90
6, 1271520, Note_on_c, 4, 76, 0
6, 1271520, Note_on_c, 4, 74, 90
6, 1271520, Note_on_c, 4, 52, 80
6, 1271760, Note_on_c, 4, 74, 0
6, 1271760, Note_on_c, 4, 72, 90
6, 1272000, Note_on_c, 4, 72, 0
6, 1272000, Note_on_c, 4, 52, 0
6, 1272000, Note_on_c, 4, 81, 90
6, 1272000, Note_on_c, 4, 53, 80
6, 1272240, Note_on_c, 4, 81, 0
6, 1272240, Note_on_c, 4, 80, 90
6, 1272480, Note_on_c, 4, 80, 0
6, 1272480, Note_on_c, 4, 53, 0
6, 1272480, Note_on_c, 4, 81, 90
6, 1272480, Note_on_c, 4, 65, 80
6, 1272720, Note_on_c, 4, 65, 0
6, 1272720, Note_on_c, 4, 81, 0
6, 1272720, Note_on_c, 4, 77, 90
6, 1272720, Note_on_c, 4, 62, 80
6, 1272960, Note_on_c, 4, 62, 0
6, 1272960, Note_on_c, 4, 77, 0
6, 1272960, Note_on_c, 4, 74, 90
6, 1272960, Note_on_c, 4, 59, 80
6, 1273440, Note_on_c, 4, 59, 0
6, 1273440, Note_on_c, 4, 74, 0
6, 1273440, Note_on_c, 4, 59, 80
6, 1273680, Note_on_c, 4, 59, 0
6, 1273680, Note_on_c, 4, 55, 80
6, 1273920, Note_on_c, 4, 55, 0
6, 1273920, Note_on_c, 4, 79, 90
6, 1273920, Note_on_c, 4, 52, 80
6, 1274160, Note_on_c, 4, 79, 0
6, 1274160, Note_on_c, 4, 78, 90
6, 1274400, Note_on_c, 4, 78, 0
6, 1274400, Note_on_c, 4, 52, 0
6, 1274400, Note_on_c, 4, 79, 90
6, 1274400, Note_on_c, 4, 64, 80
6, 1274640, Note_on_c, 4, 64, 0
6, 1274640, Note_on_c, 4, 79, 0
6, 1274640, Note_on_c, 4, 76, 90
6, 1274640, Note_on_c, 4, 60, 80
6, 1274880, Note_on_c, 4, 60, 0
6, 1274880, Note_on_c, 4, 76, 0
6, 1274880, Note_on_c, 4, 72, 90
6, 1274880, Note_on_c, 4, 57, 80
6, 1275360, Note_on_c, 4, 57, 0
6, 1275360, Note_on_c, 4, 72, 0
6, 1275360, Note_on_c, 4, 57, 80
6, 1275600, Note_on_c, 4, 57, 0
6, 1275600, Note_on_c, 4, 53, 80
6, 1275840, Note_on_c, 4, 53, 0
6, 1275840, Note_on_c, 4, 71, 90
6, 1275840, Note_on_c, 4, 50, 80
6, 1276080, Note_on_c, 4, 71, 0
6, 1276080, Note_on_c, 4, 72, 90
6, 1276320, Note_on_c, 4, 72, 0
6, 1276320, Note_on_c, 4, 50, 0
6, 1276320, Note_on_c, 4, 74, 90
6, 1276320, Note_on_c, 4, 62, 80
6, 1276560, Note_on_c, 4, 62, 0
6, 1276560, Note_on_c, 4, 74, 0
6, 1276560, Note_on_c, 4, 76, 90
6, 1276560, Note_on_c, 4, 60, 80
6, 1276800, Note_on_c, 4, 60, 0
6, 1276800, Note_on_c, 4, 76, 0
6, 1276800, Note_on_c, 4, 77, 90
6, 1276800, Note_on_c, 4, 59, 80
6, 1277040, Note_on_c, 4, 59, 0
6, 1277040, Note_on_c, 4, 57, 80
6, 1277280, Note_on_c, 4, 57, 0
6, 1277280, Note_on_c, 4, 77, 0
6, 1277280, Note_on_c, 4, 59, 80
6, 1277520, Note_on_c, 4, 59, 0
6, 1277520, Note_on_c, 4, 55, 80
6, 1277760, Note_on_c, 4, 55, 0
6, 1277760, Note_on_c, 4, 60, 80
6, 1278000, Note_on_c, 4, 76, 90
6, 1278240, Note_on_c, 4, 76, 0
6, 1278240, Note_on_c, 4, 60, 0
6, 1278240, Note_on_c, 4, 77, 90
6, 1278240, Note_on_c, 4, 62, 80
6, 1278480, Note_on_c, 4, 62, 0
6, 1278480, Note_on_c, 4, 77, 0
6, 1278480, Note_on_c, 4, 79, 90
6, 1278480, Note_on_c, 4, 64, 80
6, 1278720, Note_on_c, 4, 64, 0
6, 1278720, Note_on_c, 4, 79, 0
6, 1278720, Note_on_c, 4, 81, 90
6, 1278720, Note_on_c, 4, 65, 80
6, 1278960, Note_on_c, 4, 65, 0
6, 1278960, Note_on_c, 4, 81, 0
6, 1278960, Note_on_c, 4, 83, 90
6, 1278960, Note_on_c, 4, 67, 80
6, 1279200, Note_on_c, 4, 67, 0
6, 1279200, Note_on_c, 4, 83, 0
6, 1279200, Note_on_c, 4, 84, 90
6, 1279200, Note_on_c, 4, 69, 80
6, 1279440, Note_on_c, 4, 69, 0
6, 1279440, Note_on_c, 4, 84, 0
6, 1279440, Note_on_c, 4, 86, 90
6, 1279440, Note_on_c, 4, 71, 80
6, 1279680, Note_on_c, 4, 71, 0
6, 1279680, Note_on_c, 4, 86, 0
6, 1279680, Note_on_c, 4, 88, 90
6, 1279680, Note_on_c, 4, 72, 80
6, 1279920, Note_on_c, 4, 72, 0
6, 1279920, Note_on_c, 4, 88, 0
6, 1279920, Note_on_c, 4, 86, 90
6, 1279920, Note_on_c, 4, 71, 80
6, 1280160, Note_on_c, 4, 71, 0
6, 1280160, Note_on_c, 4, 86, 0
6, 1280160, Note_on_c, 4, 84, 90
6, 1280160, Note_on_c, 4, 69, 80
6, 1280400, Note_on_c, 4, 69, 0
6, 1280400, Note_on_c, 4, 84, 0
6, 1280400, Note_on_c, 4, 83, 90
6, 1280400, Note_on_c, 4, 67, 80
6, 1280640, Note_on_c, 4, 67, 0
6, 1280640, Note_on_c, 4, 83, 0
6, 1280640, Note_on_c, 4, 81, 90
6, 1280640, Note_on_c, 4, 65, 80
6, 1280880, Note_on_c, 4, 65, 0
6, 1280880, Note_on_c, 4, 81, 0
6, 1280880, Note_on_c, 4, 79, 90
6, 1280880, Note_on_c, 4, 64, 80
6, 1281120, Note_on_c, 4, 64, 0
6, 1281120, Note_on_c, 4, 79, 0
6, 1281120, Note_on_c, 4, 77, 90
6, 1281120, Note_on_c, 4, 62, 80
6, 1281360, Note_on_c, 4, 62, 0
6, 1281360, Note_on_c, 4, 77, 0
6, 1281360, Note_on_c, 4, 76, 90
6, 1281360, Note_on_c, 4, 60, 80
6, 1281600, Note_on_c, 4, 60, 0
6, 1281600, Note_on_c, 4, 76, 0
6, 1281600, Note_on_c, 4, 76, 90
6, 1281600, Note_on_c, 4, 60, 80
6, 1281720, Note_on_c, 4, 60, 0
6, 1281720, Note_on_c, 4, 76, 0
6, 1281720, Note_on_c, 4, 74, 90
6, 1281720, Note_on_c, 4, 59, 80
6, 1281840, Note_on_c, 4, 59, 0
6, 1281840, Note_on_c, 4, 74, 0
6, 1281840, Note_on_c, 4, 76, 90
6, 1281840, Note_on_c, 4, 60, 80
6, 1281960, Note_on_c, 4, 60, 0
6, 1281960, Note_on_c, 4, 76, 0
6, 1281960, Note_on_c, 4, 74, 90
6, 1281960, Note_on_c, 4, 59, 80
6, 1282080, Note_on_c, 4, 59, 0
6, 1282080, Note_on_c, 4, 74, 0
6, 1282080, Note_on_c, 4, 76, 90
6, 1282080, Note_on_c, 4, 60, 80
6, 1282140, Note_on_c, 4, 60, 0
6, 1282140, Note_on_c, 4, 76, 0
6, 1282140, Note_on_c, 4, 74, 90
6, 1282140, Note_on_c, 4, 59, 80
6, 1282200, Note_on_c, 4, 59, 0
6, 1282200, Note_on_c, 4, 74, 0
6, 1282200, Note_on_c, 4, 76, 90
6, 1282200, Note_on_c, 4, 60, 80
6, 1282260, Note_on_c, 4, 60, 0
6, 1282260, Note_on_c, 4, 76, 0
6, 1282260, Note_on_c, 4, 74, 90
6, 1282260, Note_on_c, 4, 59, 80
6, 1282320, Note_on_c, 4, 59, 0
6, 1282320, Note_on_c, 4, 74, 0
6, 1282320, Note_on_c, 4, 76, 90
6, 1282320, Note_on_c, 4, 60, 80
6, 1282380, Note_on_c, 4, 60, 0
6, 1282380, Note_on_c, 4, 76, 0
6, 1282380, Note_on_c, 4, 74, 90
6, 1282380, Note_on_c, 4, 59, 80
6, 1282440, Note_on_c, 4, 59, 0
6, 1282440, Note_on_c, 4, 74, 0
6, 1282440, Note_on_c, 4, 76, 90
6, 1282440, Note_on_c, 4, 60, 80
6, 1282500, Note_on_c, 4, 60, 0
6, 1282500, Note_on_c, 4, 76, 0
6, 1282500, Note_on_c, 4, 74, 90
6, 1282500, Note_on_c, 4, 59, 80
6, 1282560, Note_on_c, 4, 59, 0
6, 1282560, Note_on_c, 4, 74, 0
6, 1282560, Note_on_c, 4, 76, 90
6, 1282560, Note_on_c, 4, 60, 80
6, 1282620, Note_on_c, 4, 60, 0
6, 1282620, Note_on_c, 4, 76, 0
6, 1282620, Note_on_c, 4, 74, 90
6, 1282620, Note_on_c, 4, 59, 80
6, 1282680, Note_on_c, 4, 59, 0
6, 1282680, Note_on_c, 4, 74, 0
6, 1282680, Note_on_c, 4, 76, 90
6, 1282680, Note_on_c, 4, 60, 80
6, 1282740, Note_on_c, 4, 60, 0
6, 1282740, Note_on_c, 4, 76, 0
6, 1282740, Note_on_c, 4, 74, 90
6, 1282740, Note_on_c, 4, 59, 80
6, 1282800, Note_on_c, 4, 59, 0
6, 1282800, Note_on_c, 4, 74, 0
6, 1282800, Note_on_c, 4, 76, 90
6, 1282800, Note_on_c, 4, 60, 80
6, 1282860, Note_on_c, 4, 60, 0
6, 1282860, Note_on_c, 4, 76, 0
6, 1282860, Note_on_c, 4, 74, 90
6, 1282860, Note_on_c, 4, 59, 80
6, 1282920, Note_on_c, 4, 59, 0
6, 1282920, Note_on_c, 4, 74, 0
6, 1282920, Note_on_c, 4, 76, 90
6, 1282920, Note_on_c, 4, 60, 80
6, 1282980, Note_on_c, 4, 60, 0
6, 1282980, Note_on_c, 4, 76, 0
6, 1282980, Note_on_c, 4, 74, 90
6, 1282980, Note_on_c, 4, 59, 80
6, 1283040, Note_on_c, 4, 59, 0
6, 1283040, Note_on_c, 4, 74, 0
6, 1283040, Note_on_c, 4, 76, 90
6, 1283040, Note_on_c, 4, 60, 80
6, 1283100, Note_on_c, 4, 60, 0
6, 1283100, Note_on_c, 4, 76, 0
6, 1283100, Note_on_c, 4, 74, 90
6, 1283100, Note_on_c, 4, 59, 80
6, 1283160, Note_on_c, 4, 59, 0
6, 1283160, Note_on_c, 4, 74, 0
6, 1283160, Note_on_c, 4, 76, 90
6, 1283160, Note_on_c, 4, 60, 80
6, 1283220, Note_on_c, 4, 60, 0
6, 1283220, Note_on_c, 4, 76, 0
6, 1283220, Note_on_c, 4, 74, 90
6, 1283220, Note_on_c, 4, 59, 80
6, 1283280, Note_on_c, 4, 59, 0
6, 1283280, Note_on_c, 4, 74, 0
6, 1283280, Note_on_c, 4, 72, 90
6, 1283280, Note_on_c, 4, 57, 80
6, 1283400, Note_on_c, 4, 57, 0
6, 1283400, Note_on_c, 4, 72, 0
6, 1283400, Note_on_c, 4, 74, 90
6, 1283400, Note_on_c, 4, 59, 80
6, 1283520, Note_on_c, 4, 59, 0
6, 1283520, Note_on_c, 4, 74, 0
6, 1283520, Note_on_c, 4, 72, 90
6, 1283520, Note_on_c, 4, 60, 80
6, 1284000, Note_on_c, 4, 60, 0
6, 1284000, Note_on_c, 4, 72, 0
6, 1295040, Note_on_c, 4, 62, 90
6, 1295040, Note_on_c, 4, 47, 80
6, 1295196, Note_on_c, 4, 62, 0
6, 1295196, Note_on_c, 4, 65, 90
6, 1295280, Note_on_c, 4, 47, 0
6, 1295280, Note_on_c, 4, 43, 80
6, 1295360, Note_on_c, 4, 65, 0
6, 1295360, Note_on_c, 4, 67, 90
6, 1295520, Note_on_c, 4, 67, 0
6, 1295520, Note_on_c, 4, 43, 0
6, 1295520, Note_on_c, 4, 71, 90
6, 1295520, Note_on_c, 4, 50, 80
6, 1295676, Note_on_c, 4, 71, 0
6, 1295676, Note_on_c, 4, 67, 90
6, 1295760, Note_on_c, 4, 50, 0
6, 1295760, Note_on_c, 4, 43, 80
6, 1295840, Note_on_c, 4, 67, 0
6, 1295840, Note_on_c, 4, 65, 90
6, 1296000, Note_on_c, 4, 65, 0
6, 1296000, Note_on_c, 4, 43, 0
6, 1296000, Note_on_c, 4, 62, 90
6, 1296000, Note_on_c, 4, 47, 80
6, 1296156, Note_on_c, 4, 62, 0
6, 1296156, Note_on_c, 4, 65, 90
6, 1296240, Note_on_c, 4, 47, 0
6, 1296240, Note_on_c, 4, 43, 80
6, 1296320, Note_on_c, 4, 65, 0
6, 1296320, Note_on_c, 4, 67, 90
6, 1296480, Note_on_c, 4, 67, 0
6, 1296480, Note_on_c, 4, 43, 0
6, 1296480, Note_on_c, 4, 71, 90
6, 1296480, Note_on_c, 4, 50, 80
6, 1296636, Note_on_c, 4, 71, 0
6, 1296636, Note_on_c, 4, 67, 90
6, 1296720, Note_on_c, 4, 50, 0
6, 1296720, Note_on_c, 4, 43, 80
6, 1296800, Note_on_c, 4, 67, 0
6, 1296800, Note_on_c, 4, 65, 90
6, 1296960, Note_on_c, 4, 65, 0
6, 1296960, Note_on_c, 4, 43, 0
6, 1296960, Note_on_c, 4, 62, 90
6, 1296960, Note_on_c, 4, 47, 80
6, 1297116, Note_on_c, 4, 62, 0
6, 1297116, Note_on_c, 4, 65, 90
6, 1297200, Note_on_c, 4, 47, 0
6, 1297200, Note_on_c, 4, 43, 80
6, 1297280, Note_on_c, 4, 65, 0
6, 1297280, Note_on_c, 4, 67, 90
6, 1297440, Note_on_c, 4, 67, 0
6, 1297440, Note_on_c, 4, 43, 0
6, 1297440, Note_on_c, 4, 71, 90
6, 1297440, Note_on_c, 4, 50, 80
6, 1297596, Note_on_c, 4, 71, 0
6, 1297596, Note_on_c, 4, 67, 90
6, 1297680, Note_on_c, 4, 50, 0
6, 1297680, Note_on_c, 4, 43, 80
6, 1297760, Note_on_c, 4, 67, 0
6, 1297760, Note_on_c, 4, 65, 90
6, 1297920, Note_on_c, 4, 65, 0
6, 1297920, Note_on_c, 4, 43, 0
6, 1297920, Note_on_c, 4, 62, 90
6, 1297920, Note_on_c, 4, 47, 80
6, 1298076, Note_on_c, 4, 62, 0
6, 1298076, Note_on_c, 4, 65, 90
6, 1298160, Note_on_c, 4, 47, 0
6, 1298160, Note_on_c, 4, 43, 80
6, 1298240, Note_on_c, 4, 65, 0
6, 1298240, Note_on_c, 4, 67, 90
6, 1298400, Note_on_c, 4, 67, 0
6, 1298400, Note_on_c, 4, 43, 0
6, 1298400, Note_on_c, 4, 71, 90
6, 1298400, Note_on_c, 4, 50, 80
6, 1298556, Note_on_c, 4, 71, 0
6, 1298556, Note_on_c, 4, 67, 90
6, 1298640, Note_on_c, 4, 50, 0
6, 1298640, Note_on_c, 4, 43, 80
6, 1298720, Note_on_c, 4, 67, 0
6, 1298720, Note_on_c, 4, 65, 90
6, 1298880, Note_on_c, 4, 65, 0
6, 1298880, Note_on_c, 4, 43, 0
6, 1298880, Note_on_c, 4, 64, 90
6, 1298880, Note_on_c, 4, 67, 90
6, 1298880, Note_on_c, 4, 72, 90
6, 1298880, Note_on_c, 4, 48, 80
6, 1299360, Note_on_c, 4, 48, 0
6, 1299360, Note_on_c, 4, 64, 0
6, 1299360, Note_on_c, 4, 67, 0
6, 1299360, Note_on_c, 4, 72, 0
6, 1301668, Note_on_c, 4, 62, 90
6, 1301668, Note_on_c, 4, 43, 80
6, 1301700, Note_on_c, 4, 65, 90
6, 1301700, Note_on_c, 4, 47, 80
6, 1301728, Note_on_c, 4, 67, 90
6, 1301728, Note_on_c, 4, 50, 80
6, 1301760, Note_on_c, 4, 71, 90
6, 1301760, Note_on_c, 4, 55, 80
6, 1302240, Note_on_c, 4, 55, 0
6, 1302240, Note_on_c, 4, 62, 0
6, 1302240, Note_on_c, 4, 67, 0
6, 1302240, Note_on_c, 4, 43, 0
6, 1302240, Note_on_c, 4, 65, 0
6, 1302240, Note_on_c, 4, 47, 0
6, 1302240, Note_on_c, 4, 50, 0
6, 1302240, Note_on_c, 4, 71, 0
6, 1305508, Note_on_c, 4, 55, 90
6, 1305520, Note_on_c, 4, 43, 80
6, 1305540, Note_on_c, 4, 62, 90
6, 1305560, Note_on_c, 4, 50, 80
6, 1305568, Note_on_c, 4, 65, 90
6, 1305600, Note_on_c, 4, 67, 90
6, 1305600, Note_on_c, 4, 53, 80
6, 1306080, Note_on_c, 4, 53, 0
6, 1306080, Note_on_c, 4, 65, 0
6, 1306080, Note_on_c, 4, 43, 0
6, 1306080, Note_on_c, 4, 62, 0
6, 1306080, Note_on_c, 4, 55, 0
6, 1306080, Note_on_c, 4, 67, 0
6, 1306080, Note_on_c, 4, 50, 0
6, 1312800, Note_on_c, 4, 76, 90
6, 1312800, Note_on_c, 4, 79, 90
6, 1313280, Note_on_c, 4, 60, 80
6, 1313280, Note_on_c, 4, 64, 80
6, 1313520, Note_on_c, 4, 79, 0
6, 1313520, Note_on_c, 4, 76, 0
6, 1313520, Note_on_c, 4, 72, 90
6, 1313520, Note_on_c, 4, 76, 90
6, 1313760, Note_on_c, 4, 76, 0
6, 1313760, Note_on_c, 4, 64, 0
6, 1313760, Note_on_c, 4, 60, 0
6, 1313760, Note_on_c, 4, 72, 0
6, 1313760, Note_on_c, 4, 74, 90
6, 1313760, Note_on_c, 4, 77, 90
6, 1313760, Note_on_c, 4, 55, 80
6, 1313760, Note_on_c, 4, 62, 80
6, 1314000, Note_on_c, 4, 77, 0
6, 1314000, Note_on_c, 4, 74, 0
6, 1314000, Note_on_c, 4, 71, 90
6, 1314000, Note_on_c, 4, 74, 90
6, 1314240, Note_on_c, 4, 74, 0
6, 1314240, Note_on_c, 4, 62, 0
6, 1314240, Note_on_c, 4, 55, 0
6, 1314240, Note_on_c, 4, 71, 0
6, 1314240, Note_on_c, 4, 72, 90
6, 1314240, Note_on_c, 4, 52, 80
6, 1314240, Note_on_c, 4, 60, 80
6, 1314720, Note_on_c, 4, 60, 0
6, 1314720, Note_on_c, 4, 52, 0
6, 1314720, Note_on_c, 4, 72, 0
6, 1325668, Note_on_c, 4, 72, 90
6, 1325700, Note_on_c, 4, 76, 90
6, 1325728, Note_on_c, 4, 79, 90
6, 1325760, Note_on_c, 4, 84, 90
6, 1325760, Note_on_c, 4, 60, 80
6, 1326240, Note_on_c, 4, 60, 0
6, 1326240, Note_on_c, 4, 79, 0
6, 1326240, Note_on_c, 4, 72, 0
6, 1326240, Note_on_c, 4, 76, 0
6, 1326240, Note_on_c, 4, 84, 0
6, 1326240, Note_on_c, 4, 60, 90
6, 1326240, Note_on_c, 4, 48, 80
6, 1326480, Note_on_c, 4, 48, 0
6, 1326480, Note_on_c, 4, 60, 0
6, 1326480, Note_on_c, 4, 60, 90
6, 1326480, Note_on_c, 4, 48, 80
6, 1326720, Note_on_c, 4, 48, 0
6, 1326720, Note_on_c, 4, 60, 0
6, 1326720, Note_on_c, 4, 59, 90
6, 1326720, Note_on_c, 4, 47, 80
6, 1326960, Note_on_c, 4, 47, 0
6, 1326960, Note_on_c, 4, 59, 0
6, 1326960, Note_on_c, 4, 62, 90
6, 1326960, Note_on_c, 4, 50, 80
6, 1327200, Note_on_c, 4, 50, 0
6, 1327200, Note_on_c, 4, 62, 0
6, 1327200, Note_on_c, 4, 65, 90
6, 1327200, Note_on_c, 4, 53, 80
6, 1327440, Note_on_c, 4, 53, 0
6, 1327440, Note_on_c, 4, 65, 0
6, 1327440, Note_on_c, 4, 65, 90
6, 1327440, Note_on_c, 4, 53, 80
6, 1327680, Note_on_c, 4, 53, 0
6, 1327680, Note_on_c, 4, 65, 0
6, 1327680, Note_on_c, 4, 64, 90
6, 1327680, Note_on_c, 4, 52, 80
6, 1327920, Note_on_c, 4, 52, 0
6, 1327920, Note_on_c, 4, 64, 0
6, 1327920, Note_on_c, 4, 67, 90
6, 1327920, Note_on_c, 4, 55, 80
6, 1328160, Note_on_c, 4, 55, 0
6, 1328160, Note_on_c, 4, 67, 0
6, 1328160, Note_on_c, 4, 72, 90
6, 1328160, Note_on_c, 4, 60, 80
6, 1328400, Note_on_c, 4, 60, 0
6, 1328400, Note_on_c, 4, 72, 0
6, 1328400, Note_on_c, 4, 72, 90
6, 1328400, Note_on_c, 4, 60, 80
6, 1328640, Note_on_c, 4, 60, 0
6, 1328640, Note_on_c, 4, 72, 0
6, 1328640, Note_on_c, 4, 71, 90
6, 1328640, Note_on_c, 4, 59, 80
6, 1328880, Note_on_c, 4, 59, 0
6, 1328880, Note_on_c, 4, 71, 0
6, 1328880, Note_on_c, 4, 74, 90
6, 1328880, Note_on_c, 4, 62, 80
6, 1329120, Note_on_c, 4, 62, 0
6, 1329120, Note_on_c, 4, 74, 0
6, 1329120, Note_on_c, 4, 77, 90
6, 1329120, Note_on_c, 4, 65, 80
6, 1329360, Note_on_c, 4, 65, 0
6, 1329360, Note_on_c, 4, 77, 0
6, 1329360, Note_on_c, 4, 77, 90
6, 1329360, Note_on_c, 4, 65, 80
6, 1329600, Note_on_c, 4, 65, 0
6, 1329600, Note_on_c, 4, 77, 0
6, 1329600, Note_on_c, 4, 76, 90
6, 1329600, Note_on_c, 4, 60, 80
6, 1329988, Note_on_c, 4, 67, 90
6, 1330020, Note_on_c, 4, 72, 90
6, 1330048, Note_on_c, 4, 76, 90
6, 1330080, Note_on_c, 4, 76, 0
6, 1330080, Note_on_c, 4, 60, 0
6, 1330080, Note_on_c, 4, 79, 90
6, 1330080, Note_on_c, 4, 55, 80
6, 1330320, Note_on_c, 4, 55, 0
6, 1330320, Note_on_c, 4, 55, 80
6, 1330560, Note_on_c, 4, 55, 0
6, 1330560, Note_on_c, 4, 79, 0
6, 1330560, Note_on_c, 4, 72, 0
6, 1330560, Note_on_c, 4, 67, 0
6, 1330560, Note_on_c, 4, 76, 0
6, 1330560, Note_on_c, 4, 62, 80
6, 1330948, Note_on_c, 4, 67, 90
6, 1330980, Note_on_c, 4, 71, 90
6, 1331008, Note_on_c, 4, 74, 90
6, 1331040, Note_on_c, 4, 62, 0
6, 1331040, Note_on_c, 4, 79, 90
6, 1331040, Note_on_c, 4, 55, 80
6, 1331280, Note_on_c, 4, 55, 0
6, 1331280, Note_on_c, 4, 55, 80
6, 1331520, Note_on_c, 4, 55, 0
6, 1331520, Note_on_c, 4, 79, 0
6, 1331520, Note_on_c, 4, 74, 0
6, 1331520, Note_on_c, 4, 71, 0
6, 1331520, Note_on_c, 4, 67, 0
6, 1331520, Note_on_c, 4, 64, 80
6, 1331908, Note_on_c, 4, 67, 90
6, 1331940, Note_on_c, 4, 72, 90
6, 1331968, Note_on_c, 4, 76, 90
6, 1332000, Note_on_c, 4, 64, 0
6, 1332000, Note_on_c, 4, 79, 90
6, 1332000, Note_on_c, 4, 55, 80
6, 1332240, Note_on_c, 4, 55, 0
6, 1332240, Note_on_c, 4, 55, 80
6, 1332480, Note_on_c, 4, 55, 0
6, 1332480, Note_on_c, 4, 79, 0
6, 1332480, Note_on_c, 4, 76, 0
6, 1332480, Note_on_c, 4, 72, 0
6, 1332480, Note_on_c, 4, 67, 0
6, 1332480, Note_on_c, 4, 59, 80
6, 1332868, Note_on_c, 4, 67, 90
6, 1332900, Note_on_c, 4, 74, 90
6, 1332928, Note_on_c, 4, 77, 90
6, 1332960, Note_on_c, 4, 59, 0
6, 1332960, Note_on_c, 4, 79, 90
6, 1332960, Note_on_c, 4, 55, 80
6, 1333200, Note_on_c, 4, 55, 0
6, 1333200, Note_on_c, 4, 55, 80
6, 1333440, Note_on_c, 4, 55, 0
6, 1333440, Note_on_c, 4, 79, 0
6, 1333440, Note_on_c, 4, 77, 0
6, 1333440, Note_on_c, 4, 74, 0
6, 1333440, Note_on_c, 4, 67, 0
6, 1333440, Note_on_c, 4, 60, 80
6, 1333828, Note_on_c, 4, 67, 90
6, 1333860, Note_on_c, 4, 72, 90
6, 1333888, Note_on_c, 4, 76, 90
6, 1333920, Note_on_c, 4, 60, 0
6, 1333920, Note_on_c, 4, 79, 90
6, 1333920, Note_on_c, 4, 55, 80
6, 1334160, Note_on_c, 4, 55, 0
6, 1334160, Note_on_c, 4, 55, 80
6, 1334400, Note_on_c, 4, 55, 0
6, 1334400, Note_on_c, 4, 79, 0
6, 1334400, Note_on_c, 4, 76, 0
6, 1334400, Note_on_c, 4, 72, 0
6, 1334400, Note_on_c, 4, 67, 0
6, 1334400, Note_on_c, 4, 62, 80
6, 1334788, Note_on_c, 4, 67, 90
6, 1334820, Note_on_c, 4, 71, 90
6, 1334848, Note_on_c, 4, 74, 90
6, 1334880, Note_on_c, 4, 62, 0
6, 1334880, Note_on_c, 4, 79, 90
6, 1334880, Note_on_c, 4, 55, 80
6, 1335120, Note_on_c, 4, 55, 0
6, 1335120, Note_on_c, 4, 55, 80
6, 1335360, Note_on_c, 4, 55, 0
6, 1335360, Note_on_c, 4, 79, 0
6, 1335360, Note_on_c, 4, 74, 0
6, 1335360, Note_on_c, 4, 71, 0
6, 1335360, Note_on_c, 4, 67, 0
6, 1335360, Note_on_c, 4, 64, 80
6, 1335748, Note_on_c, 4, 67, 90
6, 1335780, Note_on_c, 4, 72, 90
6, 1335808, Note_on_c, 4, 76, 90
6, 1335840, Note_on_c, 4, 64, 0
6, 1335840, Note_on_c, 4, 79, 90
6, 1335840, Note_on_c, 4, 55, 80
6, 1336080, Note_on_c, 4, 55, 0
6, 1336080, Note_on_c, 4, 55, 80
6, 1336320, Note_on_c, 4, 55, 0
6, 1336320, Note_on_c, 4, 79, 0
6, 1336320, Note_on_c, 4, 76, 0
6, 1336320, Note_on_c, 4, 72, 0
6, 1336320, Note_on_c, 4, 67, 0
6, 1336320, Note_on_c, 4, 59, 80
6, 1336708, Note_on_c, 4, 67, 90
6, 1336740, Note_on_c, 4, 74, 90
6, 1336768, Note_on_c, 4, 77, 90
6, 1336800, Note_on_c, 4, 59, 0
6, 1336800, Note_on_c, 4, 79, 90
6, 1336800, Note_on_c, 4, 55, 80
6, 1337040, Note_on_c, 4, 55, 0
6, 1337040, Note_on_c, 4, 55, 80
6, 1337280, Note_on_c, 4, 55, 0
6, 1337280, Note_on_c, 4, 79, 0
6, 1337280, Note_on_c, 4, 77, 0
6, 1337280, Note_on_c, 4, 74, 0
6, 1337280, Note_on_c, 4, 67, 0
6, 1337280, Note_on_c, 4, 60, 80
6, 1337436, Note_on_c, 4, 76, 90
6, 1337600, Note_on_c, 4, 76, 0
6, 1337600, Note_on_c, 4, 77, 90
6, 1337760, Note_on_c, 4, 77, 0
6, 1337760, Note_on_c, 4, 60, 0
6, 1337760, Note_on_c, 4, 79, 90
6, 1337916, Note_on_c, 4, 79, 0
6, 1337916, Note_on_c, 4, 77, 90
6, 1338080, Note_on_c, 4, 77, 0
6, 1338080, Note_on_c, 4, 76, 90
6, 1338240, Note_on_c, 4, 76, 0
6, 1338240, Note_on_c, 4, 57, 80
6, 1338396, Note_on_c, 4, 72, 90
6, 1338560, Note_on_c, 4, 72, 0
6, 1338560, Note_on_c, 4, 74, 90
6, 1338720, Note_on_c, 4, 74, 0
6, 1338720, Note_on_c, 4, 57, 0
6, 1338720, Note_on_c, 4, 76, 90
6, 1338876, Note_on_c, 4, 76, 0
6, 1338876, Note_on_c, 4, 74, 90
6, 1339040, Note_on_c, 4, 74, 0
6, 1339040, Note_on_c, 4, 72, 90
6, 1339200, Note_on_c, 4, 72, 0
6, 1339200, Note_on_c, 4, 53, 80
6, 1339356, Note_on_c, 4, 69, 90
6, 1339520, Note_on_c, 4, 69, 0
6, 1339520, Note_on_c, 4, 71, 90
6, 1339680, Note_on_c, 4, 71, 0
6, 1339680, Note_on_c, 4, 53, 0
6, 1339680, Note_on_c, 4, 72, 90
6, 1339836, Note_on_c, 4, 72, 0
6, 1339836, Note_on_c, 4, 71, 90
6, 1340000, Note_on_c, 4, 71, 0
6, 1340000, Note_on_c, 4, 69, 90
6, 1340160, Note_on_c, 4, 69, 0
6, 1340160, Note_on_c, 4, 50, 80
6, 1340316, Note_on_c, 4, 65, 90
6, 1340480, Note_on_c, 4, 65, 0
6, 1340480, Note_on_c, 4, 67, 90
6, 1340640, Note_on_c, 4, 67, 0
6, 1340640, Note_on_c, 4, 50, 0
6, 1340640, Note_on_c, 4, 69, 90
6, 1340796, Note_on_c, 4, 69, 0
6, 1340796, Note_on_c, 4, 67, 90
6, 1340960, Note_on_c, 4, 67, 0
6, 1340960, Note_on_c, 4, 65, 90
6, 1341120, Note_on_c, 4, 65, 0
6, 1341120, Note_on_c, 4, 74, 90
6, 1341120, Note_on_c, 4, 79, 90
6, 1341120, Note_on_c, 4, 83, 90
6, 1341360, Note_on_c, 4, 55, 80
6, 1341600, Note_on_c, 4, 55, 0
6, 1341600, Note_on_c, 4, 54, 80
6, 1341840, Note_on_c, 4, 54, 0
6, 1341840, Note_on_c, 4, 53, 80
6, 1342080, Note_on_c, 4, 53, 0
6, 1342080, Note_on_c, 4, 74, 0
6, 1342080, Note_on_c, 4, 79, 0
6, 1342080, Note_on_c, 4, 83, 0
6, 1342080, Note_on_c, 4, 72, 90
6, 1342080, Note_on_c, 4, 76, 90
6, 1342080, Note_on_c, 4, 79, 90
6, 1342080, Note_on_c, 4, 84, 90
6, 1342080, Note_on_c, 4, 52, 80
6, 1342320, Note_on_c, 4, 52, 0
6, 1342320, Note_on_c, 4, 60, 80
6, 1342560, Note_on_c, 4, 60, 0
6, 1342560, Note_on_c, 4, 84, 0
6, 1342560, Note_on_c, 4, 72, 0
6, 1342560, Note_on_c, 4, 76, 0
6, 1342560, Note_on_c, 4, 79, 0
6, 1342560, Note_on_c, 4, 67, 90
6, 1342560, Note_on_c, 4, 72, 90
6, 1342560, Note_on_c, 4, 76, 90
6, 1342560, Note_on_c, 4, 59, 80
6, 1342800, Note_on_c, 4, 59, 0
6, 1342800, Note_on_c, 4, 58, 80
6, 1343040, Note_on_c, 4, 58, 0
6, 1343040, Note_on_c, 4, 76, 0
6, 1343040, Note_on_c, 4, 72, 0
6, 1343040, Note_on_c, 4, 67, 0
6, 1343040, Note_on_c, 4, 69, 90
6, 1343040, Note_on_c, 4, 72, 90
6, 1343040, Note_on_c, 4, 77, 90
6, 1343040, Note_on_c, 4, 57, 80
6, 1343520, Note_on_c, 4, 57, 0
6, 1343520, Note_on_c, 4, 69, 0
6, 1343520, Note_on_c, 4, 72, 0
6, 1343520, Note_on_c, 4, 77, 0
6, 1343520, Note_on_c, 4, 72, 90
6, 1343520, Note_on_c, 4, 77, 90
6, 1343520, Note_on_c, 4, 81, 90
6, 1343520, Note_on_c, 4, 53, 80
6, 1344000, Note_on_c, 4, 53, 0
6, 1344000, Note_on_c, 4, 72, 0
6, 1344000, Note_on_c, 4, 77, 0
6, 1344000, Note_on_c, 4, 81, 0
6, 1344000, Note_on_c, 4, 72, 90
6, 1344000, Note_on_c, 4, 76, 90
6, 1344000, Note_on_c, 4, 79, 90
6, 1344000, Note_on_c, 4, 55, 80
6, 1344480, Note_on_c, 4, 55, 0
6, 1344480, Note_on_c, 4, 72, 0
6, 1344480, Note_on_c, 4, 76, 0
6, 1344480, Note_on_c, 4, 79, 0
6, 1344480, Note_on_c, 4, 62, 90
6, 1344480, Note_on_c, 4, 67, 90
6, 1344480, Note_on_c, 4, 71, 90
6, 1344480, Note_on_c, 4, 43, 80
6, 1344960, Note_on_c, 4, 43, 0
6, 1344960, Note_on_c, 4, 62, 0
6, 1344960, Note_on_c, 4, 67, 0
6, 1344960, Note_on_c, 4, 71, 0
6, 1344960, Note_on_c, 4, 72, 80
6, 1345116, Note_on_c, 4, 88, 90
6, 1345280, Note_on_c, 4, 88, 0
6, 1345280, Note_on_c, 4, 86, 90
6, 1345440, Note_on_c, 4, 86, 0
6, 1345440, Note_on_c, 4, 72, 0
6, 1345440, Note_on_c, 4, 84, 90
6, 1345596, Note_on_c, 4, 84, 0
6, 1345596, Note_on_c, 4, 86, 90
6, 1345760, Note_on_c, 4, 86, 0
6, 1345760, Note_on_c, 4, 88, 90
6, 1345920, Note_on_c, 4, 88, 0
6, 1345920, Note_on_c, 4, 69, 80
6, 1346076, Note_on_c, 4, 84, 90
6, 1346240, Note_on_c, 4, 84, 0
6, 1346240, Note_on_c, 4, 83, 90
6, 1346400, Note_on_c, 4, 83, 0
6, 1346400, Note_on_c, 4, 69, 0
6, 1346400, Note_on_c, 4, 81, 90
6, 1346556, Note_on_c, 4, 81, 0
6, 1346556, Note_on_c, 4, 83, 90
6, 1346720, Note_on_c, 4, 83, 0
6, 1346720, Note_on_c, 4, 84, 90
6, 1346880, Note_on_c, 4, 84, 0
6, 1346880, Note_on_c, 4, 65, 80
6, 1347036, Note_on_c, 4, 81, 90
6, 1347200, Note_on_c, 4, 81, 0
6, 1347200, Note_on_c, 4, 79, 90
6, 1347360, Note_on_c, 4, 79, 0
6, 1347360, Note_on_c, 4, 65, 0
6, 1347360, Note_on_c, 4, 77, 90
6, 1347516, Note_on_c, 4, 77, 0
6, 1347516, Note_on_c, 4, 79, 90
6, 1347680, Note_on_c, 4, 79, 0
6, 1347680, Note_on_c, 4, 81, 90
6, 1347840, Note_on_c, 4, 81, 0
6, 1347840, Note_on_c, 4, 62, 80
6, 1347996, Note_on_c, 4, 77, 90
6, 1348160, Note_on_c, 4, 77, 0
6, 1348160, Note_on_c, 4, 76, 90
6, 1348320, Note_on_c, 4, 76, 0
6, 1348320, Note_on_c, 4, 62, 0
6, 1348320, Note_on_c, 4, 74, 90
6, 1348476, Note_on_c, 4, 74, 0
6, 1348476, Note_on_c, 4, 76, 90
6, 1348640, Note_on_c, 4, 76, 0
6, 1348640, Note_on_c, 4, 77, 90
6, 1348800, Note_on_c, 4, 77, 0
6, 1348800, Note_on_c, 4, 74, 90
6, 1348800, Note_on_c, 4, 79, 90
6, 1348800, Note_on_c, 4, 83, 90
6, 1349040, Note_on_c, 4, 55, 80
6, 1349280, Note_on_c, 4, 55, 0
6, 1349280, Note_on_c, 4, 54, 80
6, 1349520, Note_on_c, 4, 54, 0
6, 1349520, Note_on_c, 4, 53, 80
6, 1349760, Note_on_c, 4, 53, 0
6, 1349760, Note_on_c, 4, 74, 0
6, 1349760, Note_on_c, 4, 79, 0
6, 1349760, Note_on_c, 4, 83, 0
6, 1349760, Note_on_c, 4, 72, 90
6, 1349760, Note_on_c, 4, 76, 90
6, 1349760, Note_on_c, 4, 79, 90
6, 1349760, Note_on_c, 4, 84, 90
6, 1349760, Note_on_c, 4, 52, 80
6, 1350000, Note_on_c, 4, 52, 0
6, 1350000, Note_on_c, 4, 60, 80
6, 1350240, Note_on_c, 4, 60, 0
6, 1350240, Note_on_c, 4, 84, 0
6, 1350240, Note_on_c, 4, 72, 0
6, 1350240, Note_on_c, 4, 76, 0
6, 1350240, Note_on_c, 4, 79, 0
6, 1350240, Note_on_c, 4, 67, 90
6, 1350240, Note_on_c, 4, 72, 90
6, 1350240, Note_on_c, 4, 76, 90
6, 1350240, Note_on_c, 4, 59, 80
6, 1350480, Note_on_c, 4, 59, 0
6, 1350480, Note_on_c, 4, 58, 80
6, 1350720, Note_on_c, 4, 58, 0
6, 1350720, Note_on_c, 4, 76, 0
6, 1350720, Note_on_c, 4, 72, 0
6, 1350720, Note_on_c, 4, 67, 0
6, 1350720, Note_on_c, 4, 69, 90
6, 1350720, Note_on_c, 4, 72, 90
6, 1350720, Note_on_c, 4, 77, 90
6, 1350720, Note_on_c, 4, 57, 80
6, 1351200, Note_on_c, 4, 57, 0
6, 1351200, Note_on_c, 4, 69, 0
6, 1351200, Note_on_c, 4, 72, 0
6, 1351200, Note_on_c, 4, 77, 0
6, 1351200, Note_on_c, 4, 72, 90
6, 1351200, Note_on_c, 4, 77, 90
6, 1351200, Note_on_c, 4, 81, 90
6, 1351200, Note_on_c, 4, 53, 80
6, 1351680, Note_on_c, 4, 53, 0
6, 1351680, Note_on_c, 4, 72, 0
6, 1351680, Note_on_c, 4, 77, 0
6, 1351680, Note_on_c, 4, 81, 0
6, 1351680, Note_on_c, 4, 72, 90
6, 1351680, Note_on_c, 4, 76, 90
6, 1351680, Note_on_c, 4, 79, 90
6, 1351680, Note_on_c, 4, 55, 80
6, 1352160, Note_on_c, 4, 55, 0
6, 1352160, Note_on_c, 4, 72, 0
6, 1352160, Note_on_c, 4, 76, 0
6, 1352160, Note_on_c, 4, 79, 0
6, 1352160, Note_on_c, 4, 62, 90
6, 1352160, Note_on_c, 4, 67, 90
6, 1352160, Note_on_c, 4, 71, 90
6, 1352160, Note_on_c, 4, 43, 80
6, 1352640, Note_on_c, 4, 43, 0
6, 1352640, Note_on_c, 4, 62, 0
6, 1352640, Note_on_c, 4, 67, 0
6, 1352640, Note_on_c, 4, 71, 0
6, 1352640, Note_on_c, 4, 74, 90
6, 1352640, Note_on_c, 4, 79, 90
6, 1352640, Note_on_c, 4, 83, 90
6, 1352880, Note_on_c, 4, 55, 80
6, 1353120, Note_on_c, 4, 55, 0
6, 1353120, Note_on_c, 4, 54, 80
6, 1353360, Note_on_c, 4, 54, 0
6, 1353360, Note_on_c, 4, 53, 80
6, 1353600, Note_on_c, 4, 53, 0
6, 1353600, Note_on_c, 4, 74, 0
6, 1353600, Note_on_c, 4, 79, 0
6, 1353600, Note_on_c, 4, 83, 0
6, 1353600, Note_on_c, 4, 72, 90
6, 1353600, Note_on_c, 4, 76, 90
6, 1353600, Note_on_c, 4, 79, 90
6, 1353600, Note_on_c, 4, 84, 90
6, 1353600, Note_on_c, 4, 52, 80
6, 1353840, Note_on_c, 4, 52, 0
6, 1353840, Note_on_c, 4, 60, 80
6, 1354080, Note_on_c, 4, 60, 0
6, 1354080, Note_on_c, 4, 84, 0
6, 1354080, Note_on_c, 4, 72, 0
6, 1354080, Note_on_c, 4, 76, 0
6, 1354080, Note_on_c, 4, 79, 0
6, 1354080, Note_on_c, 4, 67, 90
6, 1354080, Note_on_c, 4, 72, 90
6, 1354080, Note_on_c, 4, 76, 90
6, 1354080, Note_on_c, 4, 59, 80
6, 1354320, Note_on_c, 4, 59, 0
6, 1354320, Note_on_c, 4, 58, 80
6, 1354560, Note_on_c, 4, 58, 0
6, 1354560, Note_on_c, 4, 76, 0
6, 1354560, Note_on_c, 4, 72, 0
6, 1354560, Note_on_c, 4, 67, 0
6, 1354560, Note_on_c, 4, 69, 90
6, 1354560, Note_on_c, 4, 72, 90
6, 1354560, Note_on_c, 4, 77, 90
6, 1354560, Note_on_c, 4, 57, 80
6, 1355040, Note_on_c, 4, 57, 0
6, 1355040, Note_on_c, 4, 69, 0
6, 1355040, Note_on_c, 4, 72, 0
6, 1355040, Note_on_c, 4, 77, 0
6, 1355040, Note_on_c, 4, 72, 90
6, 1355040, Note_on_c, 4, 77, 90
6, 1355040, Note_on_c, 4, 81, 90
6, 1355040, Note_on_c, 4, 53, 80
6, 1355520, Note_on_c, 4, 53, 0
6, 1355520, Note_on_c, 4, 72, 0
6, 1355520, Note_on_c, 4, 77, 0
6, 1355520, Note_on_c, 4, 81, 0
6, 1355520, Note_on_c, 4, 72, 90
6, 1355520, Note_on_c, 4, 76, 90
6, 1355520, Note_on_c, 4, 79, 90
6, 1355520, Note_on_c, 4, 55, 80
6, 1356000, Note_on_c, 4, 55, 0
6, 1356000, Note_on_c, 4, 72, 0
6, 1356000, Note_on_c, 4, 76, 0
6, 1356000, Note_on_c, 4, 79, 0
6, 1356000, Note_on_c, 4, 62, 90
6, 1356000, Note_on_c, 4, 67, 90
6, 1356000, Note_on_c, 4, 71, 90
6, 1356000, Note_on_c, 4, 43, 80
6, 1356480, Note_on_c, 4, 43, 0
6, 1356480, Note_on_c, 4, 62, 0
6, 1356480, Note_on_c, 4, 67, 0
6, 1356480, Note_on_c, 4, 71, 0
6, 1356480, Note_on_c, 4, 64, 90
6, 1356480, Note_on_c, 4, 72, 90
6, 1356480, Note_on_c, 4, 45, 80
6, 1356720, Note_on_c, 4, 45, 0
6, 1356720, Note_on_c, 4, 48, 80
6, 1356960, Note_on_c, 4, 48, 0
6, 1356960, Note_on_c, 4, 72, 0
6, 1356960, Note_on_c, 4, 64, 0
6, 1356960, Note_on_c, 4, 52, 80
6, 1357200, Note_on_c, 4, 52, 0
6, 1357200, Note_on_c, 4, 57, 80
6, 1357440, Note_on_c, 4, 57, 0
6, 1357440, Note_on_c, 4, 62, 90
6, 1357440, Note_on_c, 4, 65, 90
6, 1357440, Note_on_c, 4, 69, 90
6, 1357440, Note_on_c, 4, 72, 90
6, 1357440, Note_on_c, 4, 41, 80
6, 1357680, Note_on_c, 4, 41, 0
6, 1357680, Note_on_c, 4, 45, 80
6, 1357920, Note_on_c, 4, 45, 0
6, 1357920, Note_on_c, 4, 72, 0
6, 1357920, Note_on_c, 4, 62, 0
6, 1357920, Note_on_c, 4, 65, 0
6, 1357920, Note_on_c, 4, 69, 0
6, 1357920, Note_on_c, 4, 50, 80
6, 1358160, Note_on_c, 4, 50, 0
6, 1358160, Note_on_c, 4, 53, 80
6, 1358400, Note_on_c, 4, 53, 0
6, 1358400, Note_on_c, 4, 64, 90
6, 1358400, Note_on_c, 4, 67, 90
6, 1358400, Note_on_c, 4, 72, 90
6, 1358400, Note_on_c, 4, 43, 80
6, 1358640, Note_on_c, 4, 43, 0
6, 1358640, Note_on_c, 4, 48, 80
6, 1358880, Note_on_c, 4, 48, 0
6, 1358880, Note_on_c, 4, 72, 0
6, 1358880, Note_on_c, 4, 67, 0
6, 1358880, Note_on_c, 4, 64, 0
6, 1358880, Note_on_c, 4, 52, 80
6, 1359120, Note_on_c, 4, 52, 0
6, 1359120, Note_on_c, 4, 55, 80
6, 1359360, Note_on_c, 4, 55, 0
6, 1359360, Note_on_c, 4, 62, 90
6, 1359360, Note_on_c, 4, 65, 90
6, 1359360, Note_on_c, 4, 71, 90
6, 1359360, Note_on_c, 4, 43, 80
6, 1359600, Note_on_c, 4, 43, 0
6, 1359600, Note_on_c, 4, 50, 80
6, 1359840, Note_on_c, 4, 50, 0
6, 1359840, Note_on_c, 4, 71, 0
6, 1359840, Note_on_c, 4, 65, 0
6, 1359840, Note_on_c, 4, 62, 0
6, 1359840, Note_on_c, 4, 53, 80
6, 1360080, Note_on_c, 4, 53, 0
6, 1360080, Note_on_c, 4, 55, 80
6, 1360320, Note_on_c, 4, 55, 0
6, 1360320, Note_on_c, 4, 60, 90
6, 1360320, Note_on_c, 4, 64, 90
6, 1360320, Note_on_c, 4, 69, 90
6, 1360320, Note_on_c, 4, 72, 90
6, 1360320, Note_on_c, 4, 45, 80
6, 1360560, Note_on_c, 4, 45, 0
6, 1360560, Note_on_c, 4, 48, 80
6, 1360800, Note_on_c, 4, 48, 0
6, 1360800, Note_on_c, 4, 72, 0
6, 1360800, Note_on_c, 4, 60, 0
6, 1360800, Note_on_c, 4, 64, 0
6, 1360800, Note_on_c, 4, 69, 0
6, 1360800, Note_on_c, 4, 52, 80
6, 1361040, Note_on_c, 4, 52, 0
6, 1361040, Note_on_c, 4, 57, 80
6, 1361280, Note_on_c, 4, 57, 0
6, 1361280, Note_on_c, 4, 62, 90
6, 1361280, Note_on_c, 4, 65, 90
6, 1361280, Note_on_c, 4, 69, 90
6, 1361280, Note_on_c, 4, 72, 90
6, 1361280, Note_on_c, 4, 41, 80
6, 1361520, Note_on_c, 4, 41, 0
6, 1361520, Note_on_c, 4, 45, 80
6, 1361760, Note_on_c, 4, 45, 0
6, 1361760, Note_on_c, 4, 72, 0
6, 1361760, Note_on_c, 4, 62, 0
6, 1361760, Note_on_c, 4, 65, 0
6, 1361760, Note_on_c, 4, 69, 0
6, 1361760, Note_on_c, 4, 50, 80
6, 1362000, Note_on_c, 4, 50, 0
6, 1362000, Note_on_c, 4, 53, 80
6, 1362240, Note_on_c, 4, 53, 0
6, 1362240, Note_on_c, 4, 64, 90
6, 1362240, Note_on_c, 4, 67, 90
6, 1362240, Note_on_c, 4, 72, 90
6, 1362240, Note_on_c, 4, 43, 80
6, 1362480, Note_on_c, 4, 43, 0
6, 1362480, Note_on_c, 4, 48, 80
6, 1362720, Note_on_c, 4, 48, 0
6, 1362720, Note_on_c, 4, 72, 0
6, 1362720, Note_on_c, 4, 67, 0
6, 1362720, Note_on_c, 4, 64, 0
6, 1362720, Note_on_c, 4, 52, 80
6, 1362960, Note_on_c, 4, 52, 0
6, 1362960, Note_on_c, 4, 55, 80
6, 1363200, Note_on_c, 4, 55, 0
6, 1363200, Note_on_c, 4, 62, 90
6, 1363200, Note_on_c, 4, 65, 90
6, 1363200, Note_on_c, 4, 67, 90
6, 1363200, Note_on_c, 4, 71, 90
6, 1363200, Note_on_c, 4, 43, 80
6, 1363440, Note_on_c, 4, 43, 0
6, 1363440, Note_on_c, 4, 47, 80
6, 1363680, Note_on_c, 4, 47, 0
6, 1363680, Note_on_c, 4, 71, 0
6, 1363680, Note_on_c, 4, 62, 0
6, 1363680, Note_on_c, 4, 65, 0
6, 1363680, Note_on_c, 4, 67, 0
6, 1363680, Note_on_c, 4, 50, 80
6, 1363920, Note_on_c, 4, 50, 0
6, 1363920, Note_on_c, 4, 55, 80
6, 1364160, Note_on_c, 4, 55, 0
6, 1364160, Note_on_c, 4, 60, 90
6, 1364160, Note_on_c, 4, 64, 90
6, 1364160, Note_on_c, 4, 67, 90
6, 1364160, Note_on_c, 4, 72, 90
6, 1364160, Note_on_c, 4, 48, 80
6, 1364640, Note_on_c, 4, 48, 0
6, 1364640, Note_on_c, 4, 67, 0
6, 1364640, Note_on_c, 4, 60, 0
6, 1364640, Note_on_c, 4, 64, 0
6, 1364640, Note_on_c, 4, 72, 0
6, 1371840, Note_on_c, 4, 76, 90
6, 1371840, Note_on_c, 4, 43, 80
6, 1371840, Note_on_c, 4, 55, 80
6, 1373748, Note_on_c, 4, 76, 0
6, 1373760, Note_on_c, 4, 55, 0
6, 1373772, Note_on_c, 4, 43, 0
6, 1374504, Note_on_c, 4, 76, 90
6, 1374624, Note_on_c, 4, 76, 0
6, 1374720, Note_on_c, 4, 76, 90
6, 1374840, Note_on_c, 4, 76, 0
6, 1374840, Note_on_c, 4, 74, 90
6, 1374960, Note_on_c, 4, 74, 0
6, 1374960, Note_on_c, 4, 76, 90
6, 1375020, Note_on_c, 4, 74, 90
6, 1375060, Note_on_c, 4, 76, 0
6, 1375080, Note_on_c, 4, 76, 90
6, 1375120, Note_on_c, 4, 74, 0
6, 1375140, Note_on_c, 4, 74, 90
6, 1375180, Note_on_c, 4, 76, 0
6, 1375200, Note_on_c, 4, 76, 90
6, 1375240, Note_on_c, 4, 74, 0
6, 1375260, Note_on_c, 4, 74, 90
6, 1375300, Note_on_c, 4, 76, 0
6, 1375320, Note_on_c, 4, 76, 90
6, 1375360, Note_on_c, 4, 74, 0
6, 1375380, Note_on_c, 4, 74, 90
6, 1375420, Note_on_c, 4, 76, 0
6, 1375440, Note_on_c, 4, 72, 90
6, 1375480, Note_on_c, 4, 74, 0
6, 1375560, Note_on_c, 4, 72, 0
6, 1375560, Note_on_c, 4, 74, 90
6, 1375680, Note_on_c, 4, 74, 0
6, 1375680, Note_on_c, 4, 72, 90
6, 1375680, Note_on_c, 4, 48, 80
6, 1375680, Note_on_c, 4, 52, 80
6, 1375680, Note_on_c, 4, 55, 80
6, 1375680, Note_on_c, 4, 60, 80
6, 1376160, Note_on_c, 4, 60, 0
6, 1376160, Note_on_c, 4, 52, 0
6, 1376160, Note_on_c, 4, 72, 0
6, 1376160, Note_on_c, 4, 48, 0
6, 1376160, Note_on_c, 4, 55, 0
6, 1388160, Note_on_c, 4, 76, 90
6, 1388160, Note_on_c, 4, 60, 80
6, 1388400, Note_on_c, 4, 60, 0
6, 1388400, Note_on_c, 4, 64, 80
6, 1388640, Note_on_c, 4, 64, 0
6, 1388640, Note_on_c, 4, 76, 0
6, 1388640, Note_on_c, 4, 76, 90
6, 1388640, Note_on_c, 4, 67, 80
6, 1388880, Note_on_c, 4, 67, 0
6, 1388880, Note_on_c, 4, 64, 80
6, 1389120, Note_on_c, 4, 64, 0
6, 1389120, Note_on_c, 4, 76, 0
6, 1389120, Note_on_c, 4, 76, 90
6, 1389120, Note_on_c, 4, 60, 80
6, 1389360, Note_on_c, 4, 60, 0
6, 1389360, Note_on_c, 4, 55, 80
6, 1389600, Note_on_c, 4, 55, 0
6, 1389600, Note_on_c, 4, 60, 80
6, 1389840, Note_on_c, 4, 60, 0
6, 1389840, Note_on_c, 4, 55, 80
6, 1390080, Note_on_c, 4, 55, 0
6, 1390080, Note_on_c, 4, 76, 0
6, 1390080, Note_on_c, 4, 79, 90
6, 1390080, Note_on_c, 4, 62, 80
6, 1390320, Note_on_c, 4, 62, 0
6, 1390320, Note_on_c, 4, 79, 0
6, 1390320, Note_on_c, 4, 77, 90
6, 1390320, Note_on_c, 4, 55, 80
6, 1390560, Note_on_c, 4, 55, 0
6, 1390560, Note_on_c, 4, 77, 0
6, 1390560, Note_on_c, 4, 76, 90
6, 1390560, Note_on_c, 4, 62, 80
6, 1390800, Note_on_c, 4, 62, 0
6, 1390800, Note_on_c, 4, 76, 0
6, 1390800, Note_on_c, 4, 77, 90
6, 1390800, Note_on_c, 4, 55, 80
6, 1391040, Note_on_c, 4, 55, 0
6, 1391040, Note_on_c, 4, 77, 0
6, 1391040, Note_on_c, 4, 79, 90
6, 1391040, Note_on_c, 4, 64, 80
6, 1391280, Note_on_c, 4, 64, 0
6, 1391280, Note_on_c, 4, 79, 0
6, 1391280, Note_on_c, 4, 76, 90
6, 1391280, Note_on_c, 4, 60, 80
6, 1391520, Note_on_c, 4, 60, 0
6, 1391520, Note_on_c, 4, 76, 0
6, 1391520, Note_on_c, 4, 72, 90
6, 1391520, Note_on_c, 4, 64, 80
6, 1391760, Note_on_c, 4, 64, 0
6, 1391760, Note_on_c, 4, 67, 80
6, 1392000, Note_on_c, 4, 67, 0
6, 1392000, Note_on_c, 4, 72, 0
6, 1392000, Note_on_c, 4, 84, 90
6, 1392000, Note_on_c, 4, 64, 80
6, 1392240, Note_on_c, 4, 64, 0
6, 1392240, Note_on_c, 4, 60, 80
6, 1392480, Note_on_c, 4, 60, 0
6, 1392480, Note_on_c, 4, 64, 80
6, 1392720, Note_on_c, 4, 64, 0
6, 1392720, Note_on_c, 4, 84, 0
6, 1392720, Note_on_c, 4, 83, 90
6, 1392720, Note_on_c, 4, 60, 80
6, 1392960, Note_on_c, 4, 60, 0
6, 1392960, Note_on_c, 4, 83, 0
6, 1392960, Note_on_c, 4, 83, 90
6, 1392960, Note_on_c, 4, 65, 80
6, 1393200, Note_on_c, 4, 65, 0
6, 1393200, Note_on_c, 4, 83, 0
6, 1393200, Note_on_c, 4, 81, 90
6, 1393200, Note_on_c, 4, 60, 80
6, 1393440, Note_on_c, 4, 60, 0
6, 1393440, Note_on_c, 4, 81, 0
6, 1393440, Note_on_c, 4, 79, 90
6, 1393440, Note_on_c, 4, 64, 80
6, 1393680, Note_on_c, 4, 64, 0
6, 1393680, Note_on_c, 4, 60, 80
6, 1393920, Note_on_c, 4, 60, 0
6, 1393920, Note_on_c, 4, 79, 0
6, 1393920, Note_on_c, 4, 84, 90
6, 1393920, Note_on_c, 4, 64, 80
6, 1394160, Note_on_c, 4, 64, 0
6, 1394160, Note_on_c, 4, 60, 80
6, 1394400, Note_on_c, 4, 60, 0
6, 1394400, Note_on_c, 4, 64, 80
6, 1394640, Note_on_c, 4, 64, 0
6, 1394640, Note_on_c, 4, 84, 0
6, 1394640, Note_on_c, 4, 83, 90
6, 1394640, Note_on_c, 4, 60, 80
6, 1394880, Note_on_c, 4, 60, 0
6, 1394880, Note_on_c, 4, 83, 0
6, 1394880, Note_on_c, 4, 83, 90
6, 1394880, Note_on_c, 4, 65, 80
6, 1395120, Note_on_c, 4, 65, 0
6, 1395120, Note_on_c, 4, 83, 0
6, 1395120, Note_on_c, 4, 81, 90
6, 1395120, Note_on_c, 4, 60, 80
6, 1395360, Note_on_c, 4, 60, 0
6, 1395360, Note_on_c, 4, 81, 0
6, 1395360, Note_on_c, 4, 79, 90
6, 1395360, Note_on_c, 4, 64, 80
6, 1395600, Note_on_c, 4, 64, 0
6, 1395600, Note_on_c, 4, 60, 80
6, 1395840, Note_on_c, 4, 60, 0
6, 1395840, Note_on_c, 4, 79, 0
6, 1395840, Note_on_c, 4, 72, 90
6, 1395840, Note_on_c, 4, 64, 80
6, 1396080, Note_on_c, 4, 64, 0
6, 1396080, Note_on_c, 4, 65, 80
6, 1396320, Note_on_c, 4, 65, 0
6, 1396320, Note_on_c, 4, 72, 0
6, 1396320, Note_on_c, 4, 72, 90
6, 1396320, Note_on_c, 4, 67, 80
6, 1396560, Note_on_c, 4, 67, 0
6, 1396560, Note_on_c, 4, 64, 80
6, 1396800, Note_on_c, 4, 64, 0
6, 1396800, Note_on_c, 4, 72, 0
6, 1396800, Note_on_c, 4, 72, 90
6, 1396800, Note_on_c, 4, 60, 80
6, 1397040, Note_on_c, 4, 60, 0
6, 1397040, Note_on_c, 4, 55, 80
6, 1397280, Note_on_c, 4, 55, 0
6, 1397280, Note_on_c, 4, 60, 80
6, 1397520, Note_on_c, 4, 60, 0
6, 1397520, Note_on_c, 4, 55, 80
6, 1397760, Note_on_c, 4, 55, 0
6, 1397760, Note_on_c, 4, 72, 0
6, 1397760, Note_on_c, 4, 76, 90
6, 1397760, Note_on_c, 4, 59, 80
6, 1398000, Note_on_c, 4, 59, 0
6, 1398000, Note_on_c, 4, 76, 0
6, 1398000, Note_on_c, 4, 74, 90
6, 1398000, Note_on_c, 4, 55, 80
6, 1398240, Note_on_c, 4, 55, 0
6, 1398240, Note_on_c, 4, 74, 0
6, 1398240, Note_on_c, 4, 72, 90
6, 1398240, Note_on_c, 4, 59, 80
6, 1398480, Note_on_c, 4, 59, 0
6, 1398480, Note_on_c, 4, 72, 0
6, 1398480, Note_on_c, 4, 74, 90
6, 1398480, Note_on_c, 4, 55, 80
6, 1398720, Note_on_c, 4, 55, 0
6, 1398720, Note_on_c, 4, 74, 0
6, 1398720, Note_on_c, 4, 76, 90
6, 1398720, Note_on_c, 4, 60, 80
6, 1398960, Note_on_c, 4, 60, 0
6, 1398960, Note_on_c, 4, 55, 80
6, 1399200, Note_on_c, 4, 55, 0
6, 1399200, Note_on_c, 4, 76, 0
6, 1399200, Note_on_c, 4, 76, 90
6, 1399200, Note_on_c, 4, 60, 80
6, 1399440, Note_on_c, 4, 60, 0
6, 1399440, Note_on_c, 4, 55, 80
6, 1399680, Note_on_c, 4, 55, 0
6, 1399680, Note_on_c, 4, 76, 0
6, 1399680, Note_on_c, 4, 79, 90
6, 1399680, Note_on_c, 4, 62, 80
6, 1399920, Note_on_c, 4, 62, 0
6, 1399920, Note_on_c, 4, 79, 0
6, 1399920, Note_on_c, 4, 77, 90
6, 1399920, Note_on_c, 4, 55, 80
6, 1400160, Note_on_c, 4, 55, 0
6, 1400160, Note_on_c, 4, 77, 0
6, 1400160, Note_on_c, 4, 76, 90
6, 1400160, Note_on_c, 4, 62, 80
6, 1400400, Note_on_c, 4, 62, 0
6, 1400400, Note_on_c, 4, 76, 0
6, 1400400, Note_on_c, 4, 77, 90
6, 1400400, Note_on_c, 4, 55, 80
6, 1400640, Note_on_c, 4, 55, 0
6, 1400640, Note_on_c, 4, 77, 0
6, 1400640, Note_on_c, 4, 79, 90
6, 1400640, Note_on_c, 4, 64, 80
6, 1400880, Note_on_c, 4, 64, 0
6, 1400880, Note_on_c, 4, 60, 80
6, 1401120, Note_on_c, 4, 60, 0
6, 1401120, Note_on_c, 4, 79, 0
6, 1401120, Note_on_c, 4, 79, 90
6, 1401120, Note_on_c, 4, 55, 80
6, 1401360, Note_on_c, 4, 55, 0
6, 1401360, Note_on_c, 4, 52, 80
6, 1401600, Note_on_c, 4, 52, 0
6, 1401600, Note_on_c, 4, 79, 0
6, 1401600, Note_on_c, 4, 81, 90
6, 1401600, Note_on_c, 4, 48, 80
6, 1401840, Note_on_c, 4, 81, 0
6, 1401840, Note_on_c, 4, 79, 90
6, 1402080, Note_on_c, 4, 79, 0
6, 1402080, Note_on_c, 4, 48, 0
6, 1402080, Note_on_c, 4, 77, 90
6, 1402080, Note_on_c, 4, 60, 80
6, 1402320, Note_on_c, 4, 77, 0
6, 1402320, Note_on_c, 4, 76, 90
6, 1402560, Note_on_c, 4, 76, 0
6, 1402560, Note_on_c, 4, 60, 0
6, 1402560, Note_on_c, 4, 76, 90
6, 1402560, Note_on_c, 4, 55, 80
6, 1403040, Note_on_c, 4, 55, 0
6, 1403040, Note_on_c, 4, 76, 0
6, 1403040, Note_on_c, 4, 74, 90
6, 1403040, Note_on_c, 4, 67, 80
6, 1403280, Note_on_c, 4, 67, 0
6, 1403280, Note_on_c, 4, 66, 80
6, 1403520, Note_on_c, 4, 66, 0
6, 1403520, Note_on_c, 4, 74, 0
6, 1403520, Note_on_c, 4, 67, 80
6, 1403760, Note_on_c, 4, 67, 0
6, 1403760, Note_on_c, 4, 65, 80
6, 1404000, Note_on_c, 4, 65, 0
6, 1404000, Note_on_c, 4, 64, 80
6, 1404240, Note_on_c, 4, 64, 0
6, 1404240, Note_on_c, 4, 62, 80
6, 1404480, Note_on_c, 4, 62, 0
6, 1404480, Note_on_c, 4, 72, 90
6, 1404480, Note_on_c, 4, 60, 80
6, 1404720, Note_on_c, 4, 72, 0
6, 1404720, Note_on_c, 4, 67, 90
6, 1404960, Note_on_c, 4, 67, 0
6, 1404960, Note_on_c, 4, 60, 0
6, 1404960, Note_on_c, 4, 64, 90
6, 1405200, Note_on_c, 4, 64, 0
6, 1405200, Note_on_c, 4, 72, 90
6, 1405440, Note_on_c, 4, 72, 0
6, 1405440, Note_on_c, 4, 71, 90
6, 1405440, Note_on_c, 4, 55, 80
6, 1405680, Note_on_c, 4, 71, 0
6, 1405680, Note_on_c, 4, 67, 90
6, 1405920, Note_on_c, 4, 67, 0
6, 1405920, Note_on_c, 4, 55, 0
6, 1405920, Note_on_c, 4, 62, 90
6, 1406160, Note_on_c, 4, 62, 0
6, 1406160, Note_on_c, 4, 71, 90
6, 1406400, Note_on_c, 4, 71, 0
6, 1406400, Note_on_c, 4, 72, 90
6, 1406400, Note_on_c, 4, 48, 80
6, 1406640, Note_on_c, 4, 72, 0
6, 1406640, Note_on_c, 4, 67, 90
6, 1406880, Note_on_c, 4, 67, 0
6, 1406880, Note_on_c, 4, 48, 0
6, 1406880, Note_on_c, 4, 64, 90
6, 1407120, Note_on_c, 4, 64, 0
6, 1407120, Note_on_c, 4, 67, 90
6, 1407360, Note_on_c, 4, 67, 0
6, 1407360, Note_on_c, 4, 72, 90
6, 1407360, Note_on_c, 4, 64, 80
6, 1407600, Note_on_c, 4, 64, 0
6, 1407600, Note_on_c, 4, 60, 80
6, 1407840, Note_on_c, 4, 60, 0
6, 1407840, Note_on_c, 4, 72, 0
6, 1407840, Note_on_c, 4, 64, 80
6, 1408080, Note_on_c, 4, 64, 0
6, 1408080, Note_on_c, 4, 60, 80
6, 1408320, Note_on_c, 4, 60, 0
6, 1408320, Note_on_c, 4, 72, 90
6, 1408320, Note_on_c, 4, 65, 80
6, 1408560, Note_on_c, 4, 65, 0
6, 1408560, Note_on_c, 4, 72, 0
6, 1408560, Note_on_c, 4, 71, 90
6, 1408560, Note_on_c, 4, 60, 80
6, 1408800, Note_on_c, 4, 60, 0
6, 1408800, Note_on_c, 4, 71, 0
6, 1408800, Note_on_c, 4, 72, 90
6, 1408800, Note_on_c, 4, 64, 80
6, 1409040, Note_on_c, 4, 64, 0
6, 1409040, Note_on_c, 4, 72, 0
6, 1409040, Note_on_c, 4, 71, 90
6, 1409040, Note_on_c, 4, 60, 80
6, 1409280, Note_on_c, 4, 60, 0
6, 1409280, Note_on_c, 4, 71, 0
6, 1409280, Note_on_c, 4, 72, 90
6, 1409280, Note_on_c, 4, 64, 80
6, 1409520, Note_on_c, 4, 64, 0
6, 1409520, Note_on_c, 4, 60, 80
6, 1409760, Note_on_c, 4, 60, 0
6, 1409760, Note_on_c, 4, 72, 0
6, 1409760, Note_on_c, 4, 64, 80
6, 1410000, Note_on_c, 4, 64, 0
6, 1410000, Note_on_c, 4, 60, 80
6, 1410240, Note_on_c, 4, 60, 0
6, 1410240, Note_on_c, 4, 84, 90
6, 1410240, Note_on_c, 4, 65, 80
6, 1410480, Note_on_c, 4, 65, 0
6, 1410480, Note_on_c, 4, 84, 0
6, 1410480, Note_on_c, 4, 83, 90
6, 1410480, Note_on_c, 4, 60, 80
6, 1410720, Note_on_c, 4, 60, 0
6, 1410720, Note_on_c, 4, 83, 0
6, 1410720, Note_on_c, 4, 84, 90
6, 1410720, Note_on_c, 4, 64, 80
6, 1410960, Note_on_c, 4, 64, 0
6, 1410960, Note_on_c, 4, 84, 0
6, 1410960, Note_on_c, 4, 83, 90
6, 1410960, Note_on_c, 4, 60, 80
6, 1411200, Note_on_c, 4, 60, 0
6, 1411200, Note_on_c, 4, 83, 0
6, 1411200, Note_on_c, 4, 84, 90
6, 1411200, Note_on_c, 4, 64, 80
6, 1411440, Note_on_c, 4, 64, 0
6, 1411440, Note_on_c, 4, 60, 80
6, 1411680, Note_on_c, 4, 60, 0
6, 1411680, Note_on_c, 4, 84, 0
6, 1411680, Note_on_c, 4, 64, 80
6, 1411920, Note_on_c, 4, 64, 0
6, 1411920, Note_on_c, 4, 60, 80
6, 1412160, Note_on_c, 4, 60, 0
6, 1412160, Note_on_c, 4, 60, 90
6, 1412160, Note_on_c, 4, 48, 80
6, 1412400, Note_on_c, 4, 60, 0
6, 1412400, Note_on_c, 4, 64, 90
6, 1412640, Note_on_c, 4, 64, 0
6, 1412640, Note_on_c, 4, 48, 0
6, 1412640, Note_on_c, 4, 67, 90
6, 1412880, Note_on_c, 4, 67, 0
6, 1412880, Note_on_c, 4, 72, 90
6, 1413120, Note_on_c, 4, 72, 0
6, 1413120, Note_on_c, 4, 59, 90
6, 1413120, Note_on_c, 4, 43, 80
6, 1413360, Note_on_c, 4, 59, 0
6, 1413360, Note_on_c, 4, 62, 90
6, 1413600, Note_on_c, 4, 62, 0
6, 1413600, Note_on_c, 4, 43, 0
6, 1413600, Note_on_c, 4, 67, 90
6, 1413840, Note_on_c, 4, 67, 0
6, 1413840, Note_on_c, 4, 71, 90
6, 1414080, Note_on_c, 4, 71, 0
6, 1414080, Note_on_c, 4, 60, 90
6, 1414080, Note_on_c, 4, 48, 80
6, 1414320, Note_on_c, 4, 60, 0
6, 1414320, Note_on_c, 4, 64, 90
6, 1414560, Note_on_c, 4, 64, 0
6, 1414560, Note_on_c, 4, 48, 0
6, 1414560, Note_on_c, 4, 67, 90
6, 1414800, Note_on_c, 4, 67, 0
6, 1414800, Note_on_c, 4, 72, 90
6, 1415040, Note_on_c, 4, 72, 0
6, 1415040, Note_on_c, 4, 62, 90
6, 1415040, Note_on_c, 4, 55, 80
6, 1415280, Note_on_c, 4, 62, 0
6, 1415280, Note_on_c, 4, 67, 90
6, 1415520, Note_on_c, 4, 67, 0
6, 1415520, Note_on_c, 4, 55, 0
6, 1415520, Note_on_c, 4, 71, 90
6, 1415760, Note_on_c, 4, 71, 0
6, 1415760, Note_on_c, 4, 74, 90
6, 1416000, Note_on_c, 4, 74, 0
6, 1416000, Note_on_c, 4, 76, 90
6, 1416000, Note_on_c, 4, 52, 80
6, 1416240, Note_on_c, 4, 76, 0
6, 1416240, Note_on_c, 4, 72, 90
6, 1416480, Note_on_c, 4, 72, 0
6, 1416480, Note_on_c, 4, 52, 0
6, 1416480, Note_on_c, 4, 76, 90
6, 1416480, Note_on_c, 4, 48, 80
6, 1416720, Note_on_c, 4, 76, 0
6, 1416720, Note_on_c, 4, 72, 90
6, 1416960, Note_on_c, 4, 72, 0
6, 1416960, Note_on_c, 4, 48, 0
6, 1416960, Note_on_c, 4, 76, 90
6, 1416960, Note_on_c, 4, 55, 80
6, 1417200, Note_on_c, 4, 76, 0
6, 1417200, Note_on_c, 4, 74, 90
6, 1417440, Note_on_c, 4, 74, 0
6, 1417440, Note_on_c, 4, 55, 0
6, 1417440, Note_on_c, 4, 72, 90
6, 1417440, Note_on_c, 4, 43, 80
6, 1417680, Note_on_c, 4, 72, 0
6, 1417680, Note_on_c, 4, 71, 90
6, 1417920, Note_on_c, 4, 71, 0
6, 1417920, Note_on_c, 4, 43, 0
6, 1417920, Note_on_c, 4, 72, 90
6, 1417920, Note_on_c, 4, 48, 80
6, 1418400, Note_on_c, 4, 48, 0
6, 1418400, Note_on_c, 4, 72, 0
6, 1421760, Note_on_c, 4, 64, 90
6, 1421760, Note_on_c, 4, 60, 80
6, 1422000, Note_on_c, 4, 60, 0
6, 1422000, Note_on_c, 4, 64, 0
6, 1422000, Note_on_c, 4, 60, 90
6, 1422000, Note_on_c, 4, 55, 80
6, 1422240, Note_on_c, 4, 55, 0
6, 1422240, Note_on_c, 4, 60, 0
6, 1422240, Note_on_c, 4, 64, 90
6, 1422240, Note_on_c, 4, 60, 80
6, 1422480, Note_on_c, 4, 60, 0
6, 1422480, Note_on_c, 4, 64, 0
6, 1422480, Note_on_c, 4, 65, 90
6, 1422480, Note_on_c, 4, 62, 80
6, 1422720, Note_on_c, 4, 62, 0
6, 1422720, Note_on_c, 4, 65, 0
6, 1422720, Note_on_c, 4, 67, 90
6, 1422720, Note_on_c, 4, 64, 80
6, 1422960, Note_on_c, 4, 64, 0
6, 1422960, Note_on_c, 4, 67, 0
6, 1422960, Note_on_c, 4, 64, 90
6, 1422960, Note_on_c, 4, 60, 80
6, 1423200, Note_on_c, 4, 60, 0
6, 1423200, Note_on_c, 4, 64, 0
6, 1423200, Note_on_c, 4, 65, 90
6, 1423200, Note_on_c, 4, 62, 80
6, 1423440, Note_on_c, 4, 62, 0
6, 1423440, Note_on_c, 4, 65, 0
6, 1423440, Note_on_c, 4, 62, 90
6, 1423440, Note_on_c, 4, 59, 80
6, 1423680, Note_on_c, 4, 59, 0
6, 1423680, Note_on_c, 4, 62, 0
6, 1423680, Note_on_c, 4, 64, 90
6, 1423680, Note_on_c, 4, 60, 80
6, 1423920, Note_on_c, 4, 60, 0
6, 1423920, Note_on_c, 4, 64, 0
6, 1423920, Note_on_c, 4, 60, 90
6, 1423920, Note_on_c, 4, 55, 80
6, 1424160, Note_on_c, 4, 55, 0
6, 1424160, Note_on_c, 4, 60, 0
6, 1424160, Note_on_c, 4, 64, 90
6, 1424160, Note_on_c, 4, 60, 80
6, 1424400, Note_on_c, 4, 60, 0
6, 1424400, Note_on_c, 4, 64, 0
6, 1424400, Note_on_c, 4, 65, 90
6, 1424400, Note_on_c, 4, 62, 80
6, 1424640, Note_on_c, 4, 62, 0
6, 1424640, Note_on_c, 4, 65, 0
6, 1424640, Note_on_c, 4, 67, 90
6, 1424640, Note_on_c, 4, 64, 80
6, 1424880, Note_on_c, 4, 64, 0
6, 1424880, Note_on_c, 4, 67, 0
6, 1424880, Note_on_c, 4, 64, 90
6, 1424880, Note_on_c, 4, 60, 80
6, 1425120, Note_on_c, 4, 60, 0
6, 1425120, Note_on_c, 4, 64, 0
6, 1425120, Note_on_c, 4, 65, 90
6, 1425120, Note_on_c, 4, 62, 80
6, 1425360, Note_on_c, 4, 62, 0
6, 1425360, Note_on_c, 4, 65, 0
6, 1425360, Note_on_c, 4, 62, 90
6, 1425360, Note_on_c, 4, 59, 80
6, 1425600, Note_on_c, 4, 59, 0
6, 1425600, Note_on_c, 4, 62, 0
6, 1425600, Note_on_c, 4, 64, 90
6, 1425600, Note_on_c, 4, 60, 80
6, 1425840, Note_on_c, 4, 60, 0
6, 1425840, Note_on_c, 4, 64, 0
6, 1425840, Note_on_c, 4, 60, 90
6, 1425840, Note_on_c, 4, 55, 80
6, 1426080, Note_on_c, 4, 55, 0
6, 1426080, Note_on_c, 4, 60, 0
6, 1426080, Note_on_c, 4, 64, 90
6, 1426080, Note_on_c, 4, 60, 80
6, 1426320, Note_on_c, 4, 60, 0
6, 1426320, Note_on_c, 4, 64, 0
6, 1426320, Note_on_c, 4, 65, 90
6, 1426320, Note_on_c, 4, 62, 80
6, 1426560, Note_on_c, 4, 62, 0
6, 1426560, Note_on_c, 4, 65, 0
6, 1426560, Note_on_c, 4, 67, 90
6, 1426560, Note_on_c, 4, 64, 80
6, 1426800, Note_on_c, 4, 64, 0
6, 1426800, Note_on_c, 4, 67, 0
6, 1426800, Note_on_c, 4, 64, 90
6, 1426800, Note_on_c, 4, 60, 80
6, 1427040, Note_on_c, 4, 60, 0
6, 1427040, Note_on_c, 4, 64, 0
6, 1427040, Note_on_c, 4, 65, 90
6, 1427040, Note_on_c, 4, 62, 80
6, 1427280, Note_on_c, 4, 62, 0
6, 1427280, Note_on_c, 4, 65, 0
6, 1427280, Note_on_c, 4, 62, 90
6, 1427280, Note_on_c, 4, 59, 80
6, 1427520, Note_on_c, 4, 59, 0
6, 1427520, Note_on_c, 4, 62, 0
6, 1427520, Note_on_c, 4, 64, 90
6, 1427520, Note_on_c, 4, 60, 80
6, 1427760, Note_on_c, 4, 60, 0
6, 1427760, Note_on_c, 4, 64, 0
6, 1427760, Note_on_c, 4, 60, 90
6, 1427760, Note_on_c, 4, 55, 80
6, 1428000, Note_on_c, 4, 55, 0
6, 1428000, Note_on_c, 4, 60, 0
6, 1428000, Note_on_c, 4, 64, 90
6, 1428000, Note_on_c, 4, 60, 80
6, 1428240, Note_on_c, 4, 60, 0
6, 1428240, Note_on_c, 4, 64, 0
6, 1428240, Note_on_c, 4, 67, 90
6, 1428240, Note_on_c, 4, 64, 80
6, 1428480, Note_on_c, 4, 64, 0
6, 1428480, Note_on_c, 4, 67, 0
6, 1428480, Note_on_c, 4, 64, 90
6, 1428480, Note_on_c, 4, 60, 80
6, 1428960, Note_on_c, 4, 60, 0
6, 1428960, Note_on_c, 4, 64, 0
6, 1428960, End_track
7, 0, Start_track
7, 0, MIDI_port, 0
7, 0, Title_t, "Violin I"
7, 0, Control_c, 5, 0, 0
7, 0, Control_c, 5, 32, 1
7, 0, Program_c, 5, 48
7, 0, Control_c, 5, 7, 100
7, 0, Control_c, 5, 10, 30
7, 1900, Note_on_c, 5, 84, 105
7, 2584, Note_on_c, 5, 84, 0
7, 2620, Note_on_c, 5, 79, 105
7, 2848, Note_on_c, 5, 79, 0
7, 2860, Note_on_c, 5, 76, 105
7, 3088, Note_on_c, 5, 76, 0
7, 3100, Note_on_c, 5, 72, 105
7, 3328, Note_on_c, 5, 72, 0
7, 3340, Note_on_c, 5, 76, 105
7, 3568, Note_on_c, 5, 76, 0
7, 3580, Note_on_c, 5, 79, 105
7, 3808, Note_on_c, 5, 79, 0
7, 3820, Note_on_c, 5, 84, 105
7, 4504, Note_on_c, 5, 84, 0
7, 4540, Note_on_c, 5, 79, 105
7, 4768, Note_on_c, 5, 79, 0
7, 4780, Note_on_c, 5, 76, 105
7, 5008, Note_on_c, 5, 76, 0
7, 5020, Note_on_c, 5, 72, 105
7, 5248, Note_on_c, 5, 72, 0
7, 5260, Note_on_c, 5, 76, 105
7, 5488, Note_on_c, 5, 76, 0
7, 5500, Note_on_c, 5, 79, 105
7, 5728, Note_on_c, 5, 79, 0
7, 5740, Note_on_c, 5, 84, 105
7, 6196, Note_on_c, 5, 84, 0
7, 6460, Note_on_c, 5, 60, 70
7, 6700, Note_on_c, 5, 60, 0
7, 6940, Note_on_c, 5, 59, 70
7, 7180, Note_on_c, 5, 59, 0
7, 7420, Note_on_c, 5, 60, 70
7, 7660, Note_on_c, 5, 60, 0
7, 7660, Note_on_c, 5, 62, 105
7, 7756, Note_on_c, 5, 62, 0
7, 7900, Note_on_c, 5, 62, 105
7, 7996, Note_on_c, 5, 62, 0
7, 8380, Note_on_c, 5, 62, 70
7, 8620, Note_on_c, 5, 62, 0
7, 8860, Note_on_c, 5, 61, 70
7, 9100, Note_on_c, 5, 61, 0
7, 9340, Note_on_c, 5, 62, 70
7, 9580, Note_on_c, 5, 62, 0
7, 9580, Note_on_c, 5, 64, 105
7, 9676, Note_on_c, 5, 64, 0
7, 9820, Note_on_c, 5, 64, 105
7, 9916, Note_on_c, 5, 64, 0
7, 10300, Note_on_c, 5, 64, 70
7, 10540, Note_on_c, 5, 64, 0
7, 10780, Note_on_c, 5, 63, 70
7, 11020, Note_on_c, 5, 63, 0
7, 11260, Note_on_c, 5, 64, 70
7, 11500, Note_on_c, 5, 64, 0
7, 11740, Note_on_c, 5, 65, 71
7, 11980, Note_on_c, 5, 65, 0
7, 12220, Note_on_c, 5, 67, 79
7, 12460, Note_on_c, 5, 67, 0
7, 12700, Note_on_c, 5, 69, 87
7, 12940, Note_on_c, 5, 69, 0
7, 13180, Note_on_c, 5, 71, 95
7, 13420, Note_on_c, 5, 71, 0
7, 13420, Note_on_c, 5, 72, 100
7, 13900, Note_on_c, 5, 72, 0
7, 13900, Note_on_c, 5, 84, 105
7, 13996, Note_on_c, 5, 84, 0
7, 14380, Note_on_c, 5, 83, 105
7, 14476, Note_on_c, 5, 83, 0
7, 14860, Note_on_c, 5, 81, 105
7, 14956, Note_on_c, 5, 81, 0
7, 15340, Note_on_c, 5, 79, 105
7, 16060, Note_on_c, 5, 79, 0
7, 16060, Note_on_c, 5, 77, 105
7, 16300, Note_on_c, 5, 77, 0
7, 16300, Note_on_c, 5, 76, 105
7, 16780, Note_on_c, 5, 76, 0
7, 17740, Note_on_c, 5, 81, 70
7, 17836, Note_on_c, 5, 81, 0
7, 18220, Note_on_c, 5, 79, 70
7, 18316, Note_on_c, 5, 79, 0
7, 18700, Note_on_c, 5, 77, 70
7, 18796, Note_on_c, 5, 77, 0
7, 19180, Note_on_c, 5, 76, 70
7, 19900, Note_on_c, 5, 76, 0
7, 19900, Note_on_c, 5, 74, 70
7, 20140, Note_on_c, 5, 74, 0
7, 20140, Note_on_c, 5, 72, 70
7, 20620, Note_on_c, 5, 72, 0
7, 21100, Note_on_c, 5, 74, 105
7, 21100, Note_on_c, 5, 77, 105
7, 21580, Note_on_c, 5, 77, 0
7, 21580, Note_on_c, 5, 74, 0
7, 21580, Note_on_c, 5, 77, 105
7, 21580, Note_on_c, 5, 86, 105
7, 22540, Note_on_c, 5, 86, 0
7, 22540, Note_on_c, 5, 77, 0
7, 22540, Note_on_c, 5, 74, 105
7, 22540, Note_on_c, 5, 77, 105
7, 23020, Note_on_c, 5, 77, 0
7, 23020, Note_on_c, 5, 74, 0
7, 23020, Note_on_c, 5, 72, 105
7, 23020, Note_on_c, 5, 76, 105
7, 23500, Note_on_c, 5, 76, 0
7, 23500, Note_on_c, 5, 72, 0
7, 23500, Note_on_c, 5, 76, 105
7, 23500, Note_on_c, 5, 84, 105
7, 24460, Note_on_c, 5, 84, 0
7, 24460, Note_on_c, 5, 76, 0
7, 24460, Note_on_c, 5, 72, 105
7, 24460, Note_on_c, 5, 76, 105
7, 24940, Note_on_c, 5, 76, 0
7, 24940, Note_on_c, 5, 72, 0
7, 24940, Note_on_c, 5, 74, 105
7, 25420, Note_on_c, 5, 74, 0
7, 25420, Note_on_c, 5, 79, 105
7, 25540, Note_on_c, 5, 79, 0
7, 25540, Note_on_c, 5, 77, 105
7, 25660, Note_on_c, 5, 77, 0
7, 25660, Note_on_c, 5, 76, 105
7, 25780, Note_on_c, 5, 76, 0
7, 25780, Note_on_c, 5, 74, 105
7, 25900, Note_on_c, 5, 74, 0
7, 25900, Note_on_c, 5, 72, 105
7, 26380, Note_on_c, 5, 72, 0
7, 26380, Note_on_c, 5, 71, 105
7, 26860, Note_on_c, 5, 71, 0
7, 26860, Note_on_c, 5, 72, 79
7, 26948, Note_on_c, 5, 72, 0
7, 26980, Note_on_c, 5, 76, 72
7, 27068, Note_on_c, 5, 76, 0
7, 27100, Note_on_c, 5, 74, 79
7, 27188, Note_on_c, 5, 74, 0
7, 27220, Note_on_c, 5, 77, 71
7, 27308, Note_on_c, 5, 77, 0
7, 27340, Note_on_c, 5, 76, 79
7, 27428, Note_on_c, 5, 76, 0
7, 27460, Note_on_c, 5, 79, 72
7, 27548, Note_on_c, 5, 79, 0
7, 27580, Note_on_c, 5, 77, 80
7, 27668, Note_on_c, 5, 77, 0
7, 27700, Note_on_c, 5, 81, 75
7, 27788, Note_on_c, 5, 81, 0
7, 27820, Note_on_c, 5, 79, 78
7, 27916, Note_on_c, 5, 79, 0
7, 28060, Note_on_c, 5, 81, 80
7, 28156, Note_on_c, 5, 81, 0
7, 28300, Note_on_c, 5, 83, 83
7, 28396, Note_on_c, 5, 83, 0
7, 28540, Note_on_c, 5, 84, 88
7, 28636, Note_on_c, 5, 84, 0
7, 28780, Note_on_c, 5, 74, 105
7, 28780, Note_on_c, 5, 77, 105
7, 29260, Note_on_c, 5, 77, 0
7, 29260, Note_on_c, 5, 74, 0
7, 29260, Note_on_c, 5, 77, 105
7, 29260, Note_on_c, 5, 86, 105
7, 30220, Note_on_c, 5, 86, 0
7, 30220, Note_on_c, 5, 77, 0
7, 30220, Note_on_c, 5, 74, 105
7, 30220, Note_on_c, 5, 77, 105
7, 30700, Note_on_c, 5, 77, 0
7, 30700, Note_on_c, 5, 74, 0
7, 30700, Note_on_c, 5, 72, 105
7, 30700, Note_on_c, 5, 76, 105
7, 31180, Note_on_c, 5, 76, 0
7, 31180, Note_on_c, 5, 72, 0
7, 31180, Note_on_c, 5, 76, 105
7, 31180, Note_on_c, 5, 84, 105
7, 32140, Note_on_c, 5, 84, 0
7, 32140, Note_on_c, 5, 76, 0
7, 32140, Note_on_c, 5, 72, 105
7, 32140, Note_on_c, 5, 76, 105
7, 32620, Note_on_c, 5, 76, 0
7, 32620, Note_on_c, 5, 72, 0
7, 32620, Note_on_c, 5, 74, 105
7, 32740, Note_on_c, 5, 74, 0
7, 32740, Note_on_c, 5, 77, 105
7, 32860, Note_on_c, 5, 77, 0
7, 32860, Note_on_c, 5, 76, 105
7, 32980, Note_on_c, 5, 76, 0
7, 32980, Note_on_c, 5, 79, 105
7, 33100, Note_on_c, 5, 79, 0
7, 33100, Note_on_c, 5, 77, 105
7, 33220, Note_on_c, 5, 77, 0
7, 33220, Note_on_c, 5, 81, 105
7, 33340, Note_on_c, 5, 81, 0
7, 33340, Note_on_c, 5, 79, 105
7, 33460, Note_on_c, 5, 79, 0
7, 33460, Note_on_c, 5, 82, 105
7, 33580, Note_on_c, 5, 82, 0
7, 33580, Note_on_c, 5, 81, 105
7, 33700, Note_on_c, 5, 81, 0
7, 33700, Note_on_c, 5, 79, 105
7, 33820, Note_on_c, 5, 79, 0
7, 33820, Note_on_c, 5, 77, 105
7, 33940, Note_on_c, 5, 77, 0
7, 33940, Note_on_c, 5, 76, 105
7, 34060, Note_on_c, 5, 76, 0
7, 34060, Note_on_c, 5, 74, 105
7, 34180, Note_on_c, 5, 74, 0
7, 34180, Note_on_c, 5, 72, 105
7, 34300, Note_on_c, 5, 72, 0
7, 34300, Note_on_c, 5, 71, 105
7, 34420, Note_on_c, 5, 71, 0
7, 34420, Note_on_c, 5, 72, 105
7, 34540, Note_on_c, 5, 72, 0
7, 34540, Note_on_c, 5, 62, 105
7, 34540, Note_on_c, 5, 71, 105
7, 34540, Note_on_c, 5, 79, 105
7, 35020, Note_on_c, 5, 79, 0
7, 35020, Note_on_c, 5, 71, 0
7, 35020, Note_on_c, 5, 62, 0
7, 35260, Note_on_c, 5, 74, 105
7, 35260, Note_on_c, 5, 83, 105
7, 35428, Note_on_c, 5, 83, 0
7, 35428, Note_on_c, 5, 74, 0
7, 35500, Note_on_c, 5, 76, 113
7, 35500, Note_on_c, 5, 84, 113
7, 35668, Note_on_c, 5, 84, 0
7, 35668, Note_on_c, 5, 76, 0
7, 35740, Note_on_c, 5, 76, 103
7, 35740, Note_on_c, 5, 84, 103
7, 35908, Note_on_c, 5, 84, 0
7, 35908, Note_on_c, 5, 76, 0
7, 35980, Note_on_c, 5, 76, 105
7, 35980, Note_on_c, 5, 84, 105
7, 36148, Note_on_c, 5, 84, 0
7, 36148, Note_on_c, 5, 76, 0
7, 36220, Note_on_c, 5, 76, 105
7, 36220, Note_on_c, 5, 84, 105
7, 36388, Note_on_c, 5, 84, 0
7, 36388, Note_on_c, 5, 76, 0
7, 36460, Note_on_c, 5, 74, 97
7, 36460, Note_on_c, 5, 83, 97
7, 36940, Note_on_c, 5, 83, 0
7, 36940, Note_on_c, 5, 74, 0
7, 37180, Note_on_c, 5, 74, 105
7, 37180, Note_on_c, 5, 83, 105
7, 37348, Note_on_c, 5, 83, 0
7, 37348, Note_on_c, 5, 74, 0
7, 37420, Note_on_c, 5, 76, 111
7, 37420, Note_on_c, 5, 84, 111
7, 37588, Note_on_c, 5, 84, 0
7, 37588, Note_on_c, 5, 76, 0
7, 37660, Note_on_c, 5, 76, 105
7, 37660, Note_on_c, 5, 84, 105
7, 37828, Note_on_c, 5, 84, 0
7, 37828, Note_on_c, 5, 76, 0
7, 37900, Note_on_c, 5, 76, 105
7, 37900, Note_on_c, 5, 84, 105
7, 38068, Note_on_c, 5, 84, 0
7, 38068, Note_on_c, 5, 76, 0
7, 38140, Note_on_c, 5, 76, 105
7, 38140, Note_on_c, 5, 84, 105
7, 38308, Note_on_c, 5, 84, 0
7, 38308, Note_on_c, 5, 76, 0
7, 38380, Note_on_c, 5, 74, 94
7, 38380, Note_on_c, 5, 83, 94
7, 38739, Note_on_c, 5, 83, 0
7, 38769, Note_on_c, 5, 74, 0
7, 38780, Note_on_c, 5, 62, 105
7, 38860, Note_on_c, 5, 79, 105
7, 38949, Note_on_c, 5, 62, 0
7, 39289, Note_on_c, 5, 79, 0
7, 39340, Note_on_c, 5, 55, 105
7, 39820, Note_on_c, 5, 55, 0
7, 40300, Note_on_c, 5, 64, 70
7, 40540, Note_on_c, 5, 60, 70
7, 40619, Note_on_c, 5, 64, 0
7, 40780, Note_on_c, 5, 64, 70
7, 40859, Note_on_c, 5, 60, 0
7, 41020, Note_on_c, 5, 60, 70
7, 41099, Note_on_c, 5, 64, 0
7, 41260, Note_on_c, 5, 64, 70
7, 41339, Note_on_c, 5, 60, 0
7, 41500, Note_on_c, 5, 60, 70
7, 41579, Note_on_c, 5, 64, 0
7, 41740, Note_on_c, 5, 64, 70
7, 41819, Note_on_c, 5, 60, 0
7, 41980, Note_on_c, 5, 60, 70
7, 42059, Note_on_c, 5, 64, 0
7, 42184, Note_on_c, 5, 60, 0
7, 42220, Note_on_c, 5, 65, 70
7, 42460, Note_on_c, 5, 62, 70
7, 42539, Note_on_c, 5, 65, 0
7, 42700, Note_on_c, 5, 65, 70
7, 42779, Note_on_c, 5, 62, 0
7, 42940, Note_on_c, 5, 62, 70
7, 43019, Note_on_c, 5, 65, 0
7, 43180, Note_on_c, 5, 65, 70
7, 43259, Note_on_c, 5, 62, 0
7, 43420, Note_on_c, 5, 62, 70
7, 43499, Note_on_c, 5, 65, 0
7, 43660, Note_on_c, 5, 65, 70
7, 43739, Note_on_c, 5, 62, 0
7, 43900, Note_on_c, 5, 62, 70
7, 43979, Note_on_c, 5, 65, 0
7, 44104, Note_on_c, 5, 62, 0
7, 44140, Note_on_c, 5, 67, 70
7, 44620, Note_on_c, 5, 67, 0
7, 45100, Note_on_c, 5, 79, 70
7, 45196, Note_on_c, 5, 79, 0
7, 45340, Note_on_c, 5, 81, 70
7, 45436, Note_on_c, 5, 81, 0
7, 45580, Note_on_c, 5, 83, 70
7, 45676, Note_on_c, 5, 83, 0
7, 45820, Note_on_c, 5, 84, 70
7, 45916, Note_on_c, 5, 84, 0
7, 46060, Note_on_c, 5, 84, 70
7, 46300, Note_on_c, 5, 83, 70
7, 46355, Note_on_c, 5, 84, 0
7, 46540, Note_on_c, 5, 81, 70
7, 46595, Note_on_c, 5, 83, 0
7, 46780, Note_on_c, 5, 79, 70
7, 46835, Note_on_c, 5, 81, 0
7, 46984, Note_on_c, 5, 79, 0
7, 47020, Note_on_c, 5, 79, 70
7, 47140, Note_on_c, 5, 79, 0
7, 47140, Note_on_c, 5, 77, 70
7, 47260, Note_on_c, 5, 77, 0
7, 47260, Note_on_c, 5, 76, 70
7, 47380, Note_on_c, 5, 76, 0
7, 47380, Note_on_c, 5, 77, 70
7, 47500, Note_on_c, 5, 77, 0
7, 47500, Note_on_c, 5, 81, 70
7, 47740, Note_on_c, 5, 81, 0
7, 47740, Note_on_c, 5, 77, 70
7, 47980, Note_on_c, 5, 77, 0
7, 47980, Note_on_c, 5, 75, 70
7, 48220, Note_on_c, 5, 75, 0
7, 48220, Note_on_c, 5, 76, 70
7, 48460, Note_on_c, 5, 76, 0
7, 48700, Note_on_c, 5, 76, 70
7, 48744, Note_on_c, 5, 76, 0
7, 48820, Note_on_c, 5, 77, 70
7, 48864, Note_on_c, 5, 77, 0
7, 48940, Note_on_c, 5, 79, 70
7, 49036, Note_on_c, 5, 79, 0
7, 49180, Note_on_c, 5, 81, 70
7, 49276, Note_on_c, 5, 81, 0
7, 49420, Note_on_c, 5, 83, 70
7, 49516, Note_on_c, 5, 83, 0
7, 49660, Note_on_c, 5, 84, 70
7, 49756, Note_on_c, 5, 84, 0
7, 49900, Note_on_c, 5, 84, 70
7, 50140, Note_on_c, 5, 83, 70
7, 50195, Note_on_c, 5, 84, 0
7, 50380, Note_on_c, 5, 81, 70
7, 50435, Note_on_c, 5, 83, 0
7, 50620, Note_on_c, 5, 79, 70
7, 50675, Note_on_c, 5, 81, 0
7, 50809, Note_on_c, 5, 79, 0
7, 50860, Note_on_c, 5, 79, 74
7, 50980, Note_on_c, 5, 79, 0
7, 50980, Note_on_c, 5, 77, 78
7, 51100, Note_on_c, 5, 77, 0
7, 51100, Note_on_c, 5, 76, 78
7, 51220, Note_on_c, 5, 76, 0
7, 51220, Note_on_c, 5, 77, 75
7, 51340, Note_on_c, 5, 77, 0
7, 51340, Note_on_c, 5, 81, 80
7, 51580, Note_on_c, 5, 81, 0
7, 51580, Note_on_c, 5, 77, 70
7, 51820, Note_on_c, 5, 77, 0
7, 51820, Note_on_c, 5, 76, 70
7, 52009, Note_on_c, 5, 76, 0
7, 52060, Note_on_c, 5, 84, 70
7, 52540, Note_on_c, 5, 82, 70
7, 52612, Note_on_c, 5, 84, 0
7, 53020, Note_on_c, 5, 81, 70
7, 53092, Note_on_c, 5, 82, 0
7, 53500, Note_on_c, 5, 79, 70
7, 53572, Note_on_c, 5, 81, 0
7, 53909, Note_on_c, 5, 79, 0
7, 53980, Note_on_c, 5, 77, 70
7, 54460, Note_on_c, 5, 84, 70
7, 54532, Note_on_c, 5, 77, 0
7, 54940, Note_on_c, 5, 82, 70
7, 55012, Note_on_c, 5, 84, 0
7, 55420, Note_on_c, 5, 81, 70
7, 55492, Note_on_c, 5, 82, 0
7, 55814, Note_on_c, 5, 81, 0
7, 55900, Note_on_c, 5, 79, 70
7, 56380, Note_on_c, 5, 84, 70
7, 56452, Note_on_c, 5, 79, 0
7, 56860, Note_on_c, 5, 82, 70
7, 56932, Note_on_c, 5, 84, 0
7, 57340, Note_on_c, 5, 80, 70
7, 57412, Note_on_c, 5, 82, 0
7, 57734, Note_on_c, 5, 80, 0
7, 57820, Note_on_c, 5, 81, 70
7, 57916, Note_on_c, 5, 81, 0
7, 58060, Note_on_c, 5, 83, 70
7, 58156, Note_on_c, 5, 83, 0
7, 58300, Note_on_c, 5, 84, 70
7, 58396, Note_on_c, 5, 84, 0
7, 58540, Note_on_c, 5, 76, 70
7, 58636, Note_on_c, 5, 76, 0
7, 58780, Note_on_c, 5, 77, 70
7, 58876, Note_on_c, 5, 77, 0
7, 59020, Note_on_c, 5, 80, 70
7, 59116, Note_on_c, 5, 80, 0
7, 59260, Note_on_c, 5, 81, 70
7, 59356, Note_on_c, 5, 81, 0
7, 59500, Note_on_c, 5, 73, 70
7, 59596, Note_on_c, 5, 73, 0
7, 59740, Note_on_c, 5, 74, 70
7, 59836, Note_on_c, 5, 74, 0
7, 59980, Note_on_c, 5, 76, 70
7, 60076, Note_on_c, 5, 76, 0
7, 60220, Note_on_c, 5, 77, 70
7, 60316, Note_on_c, 5, 77, 0
7, 60460, Note_on_c, 5, 76, 70
7, 60556, Note_on_c, 5, 76, 0
7, 60700, Note_on_c, 5, 77, 70
7, 60796, Note_on_c, 5, 77, 0
7, 60940, Note_on_c, 5, 79, 70
7, 61036, Note_on_c, 5, 79, 0
7, 61180, Note_on_c, 5, 81, 70
7, 61276, Note_on_c, 5, 81, 0
7, 61340, Note_on_c, 5, 64, 105
7, 61400, Note_on_c, 5, 72, 105
7, 61420, Note_on_c, 5, 79, 105
7, 61444, Note_on_c, 5, 64, 0
7, 61814, Note_on_c, 5, 72, 0
7, 61829, Note_on_c, 5, 79, 0
7, 61900, Note_on_c, 5, 79, 105
7, 62620, Note_on_c, 5, 79, 0
7, 62620, Note_on_c, 5, 81, 105
7, 62740, Note_on_c, 5, 81, 0
7, 62740, Note_on_c, 5, 79, 105
7, 62860, Note_on_c, 5, 79, 0
7, 62860, Note_on_c, 5, 77, 105
7, 63100, Note_on_c, 5, 77, 0
7, 63100, Note_on_c, 5, 76, 105
7, 63289, Note_on_c, 5, 76, 0
7, 63345, Note_on_c, 5, 76, 105
7, 63700, Note_on_c, 5, 74, 105
7, 63705, Note_on_c, 5, 76, 0
7, 63820, Note_on_c, 5, 74, 0
7, 63820, Note_on_c, 5, 72, 105
7, 64780, Note_on_c, 5, 72, 0
7, 64780, Note_on_c, 5, 71, 105
7, 65260, Note_on_c, 5, 71, 0
7, 65260, Note_on_c, 5, 72, 105
7, 65740, Note_on_c, 5, 72, 0
7, 66220, Note_on_c, 5, 77, 70
7, 66340, Note_on_c, 5, 77, 0
7, 66340, Note_on_c, 5, 76, 70
7, 66460, Note_on_c, 5, 76, 0
7, 66460, Note_on_c, 5, 74, 70
7, 66580, Note_on_c, 5, 74, 0
7, 66580, Note_on_c, 5, 76, 70
7, 66700, Note_on_c, 5, 76, 0
7, 66700, Note_on_c, 5, 79, 70
7, 66820, Note_on_c, 5, 79, 0
7, 66820, Note_on_c, 5, 77, 70
7, 66940, Note_on_c, 5, 77, 0
7, 66940, Note_on_c, 5, 76, 70
7, 67060, Note_on_c, 5, 76, 0
7, 67060, Note_on_c, 5, 77, 70
7, 67180, Note_on_c, 5, 77, 0
7, 67180, Note_on_c, 5, 79, 70
7, 67420, Note_on_c, 5, 84, 70
7, 67474, Note_on_c, 5, 79, 0
7, 67599, Note_on_c, 5, 84, 0
7, 67660, Note_on_c, 5, 79, 70
7, 67774, Note_on_c, 5, 79, 0
7, 67900, Note_on_c, 5, 79, 70
7, 68004, Note_on_c, 5, 79, 0
7, 68140, Note_on_c, 5, 77, 70
7, 68260, Note_on_c, 5, 77, 0
7, 68260, Note_on_c, 5, 76, 70
7, 68380, Note_on_c, 5, 76, 0
7, 68380, Note_on_c, 5, 74, 70
7, 68500, Note_on_c, 5, 74, 0
7, 68500, Note_on_c, 5, 76, 70
7, 68620, Note_on_c, 5, 76, 0
7, 68620, Note_on_c, 5, 79, 70
7, 68740, Note_on_c, 5, 79, 0
7, 68740, Note_on_c, 5, 77, 70
7, 68860, Note_on_c, 5, 77, 0
7, 68860, Note_on_c, 5, 76, 70
7, 68980, Note_on_c, 5, 76, 0
7, 68980, Note_on_c, 5, 77, 70
7, 69100, Note_on_c, 5, 77, 0
7, 69100, Note_on_c, 5, 79, 70
7, 69340, Note_on_c, 5, 84, 70
7, 69389, Note_on_c, 5, 79, 0
7, 69504, Note_on_c, 5, 84, 0
7, 69580, Note_on_c, 5, 79, 70
7, 69709, Note_on_c, 5, 79, 0
7, 69820, Note_on_c, 5, 79, 70
7, 69929, Note_on_c, 5, 79, 0
7, 70060, Note_on_c, 5, 77, 70
7, 70180, Note_on_c, 5, 77, 0
7, 70180, Note_on_c, 5, 76, 70
7, 70300, Note_on_c, 5, 76, 0
7, 70300, Note_on_c, 5, 74, 70
7, 70420, Note_on_c, 5, 74, 0
7, 70420, Note_on_c, 5, 76, 70
7, 70540, Note_on_c, 5, 76, 0
7, 70540, Note_on_c, 5, 79, 70
7, 70660, Note_on_c, 5, 79, 0
7, 70660, Note_on_c, 5, 77, 70
7, 70780, Note_on_c, 5, 77, 0
7, 70780, Note_on_c, 5, 76, 70
7, 70900, Note_on_c, 5, 76, 0
7, 70900, Note_on_c, 5, 77, 70
7, 71020, Note_on_c, 5, 77, 0
7, 71020, Note_on_c, 5, 79, 70
7, 71140, Note_on_c, 5, 81, 70
7, 71180, Note_on_c, 5, 79, 0
7, 71260, Note_on_c, 5, 79, 70
7, 71300, Note_on_c, 5, 81, 0
7, 71380, Note_on_c, 5, 81, 70
7, 71420, Note_on_c, 5, 79, 0
7, 71500, Note_on_c, 5, 77, 70
7, 71540, Note_on_c, 5, 81, 0
7, 71620, Note_on_c, 5, 79, 70
7, 71660, Note_on_c, 5, 77, 0
7, 71740, Note_on_c, 5, 77, 70
7, 71780, Note_on_c, 5, 79, 0
7, 71860, Note_on_c, 5, 79, 70
7, 71900, Note_on_c, 5, 77, 0
7, 71980, Note_on_c, 5, 76, 70
7, 72020, Note_on_c, 5, 79, 0
7, 72100, Note_on_c, 5, 77, 70
7, 72140, Note_on_c, 5, 76, 0
7, 72220, Note_on_c, 5, 76, 70
7, 72260, Note_on_c, 5, 77, 0
7, 72340, Note_on_c, 5, 77, 70
7, 72380, Note_on_c, 5, 76, 0
7, 72460, Note_on_c, 5, 74, 70
7, 72500, Note_on_c, 5, 77, 0
7, 72580, Note_on_c, 5, 76, 70
7, 72620, Note_on_c, 5, 74, 0
7, 72700, Note_on_c, 5, 74, 70
7, 72740, Note_on_c, 5, 76, 0
7, 72820, Note_on_c, 5, 76, 70
7, 72860, Note_on_c, 5, 74, 0
7, 72940, Note_on_c, 5, 76, 0
7, 72940, Note_on_c, 5, 72, 105
7, 73060, Note_on_c, 5, 72, 0
7, 73060, Note_on_c, 5, 74, 105
7, 73180, Note_on_c, 5, 74, 0
7, 73180, Note_on_c, 5, 76, 105
7, 73300, Note_on_c, 5, 76, 0
7, 73300, Note_on_c, 5, 77, 105
7, 73420, Note_on_c, 5, 77, 0
7, 73420, Note_on_c, 5, 79, 105
7, 73540, Note_on_c, 5, 79, 0
7, 73540, Note_on_c, 5, 81, 105
7, 73660, Note_on_c, 5, 81, 0
7, 73660, Note_on_c, 5, 83, 105
7, 73780, Note_on_c, 5, 83, 0
7, 73780, Note_on_c, 5, 84, 105
7, 73900, Note_on_c, 5, 84, 0
7, 73900, Note_on_c, 5, 69, 105
7, 74020, Note_on_c, 5, 69, 0
7, 74020, Note_on_c, 5, 71, 105
7, 74140, Note_on_c, 5, 71, 0
7, 74140, Note_on_c, 5, 72, 105
7, 74260, Note_on_c, 5, 72, 0
7, 74260, Note_on_c, 5, 74, 105
7, 74380, Note_on_c, 5, 74, 0
7, 74380, Note_on_c, 5, 76, 105
7, 74500, Note_on_c, 5, 76, 0
7, 74500, Note_on_c, 5, 77, 105
7, 74620, Note_on_c, 5, 77, 0
7, 74620, Note_on_c, 5, 79, 105
7, 74740, Note_on_c, 5, 79, 0
7, 74740, Note_on_c, 5, 81, 105
7, 74860, Note_on_c, 5, 81, 0
7, 74860, Note_on_c, 5, 67, 105
7, 74980, Note_on_c, 5, 67, 0
7, 74980, Note_on_c, 5, 69, 105
7, 75100, Note_on_c, 5, 69, 0
7, 75100, Note_on_c, 5, 71, 105
7, 75220, Note_on_c, 5, 71, 0
7, 75220, Note_on_c, 5, 72, 105
7, 75340, Note_on_c, 5, 72, 0
7, 75340, Note_on_c, 5, 74, 105
7, 75460, Note_on_c, 5, 74, 0
7, 75460, Note_on_c, 5, 76, 105
7, 75580, Note_on_c, 5, 76, 0
7, 75580, Note_on_c, 5, 77, 105
7, 75700, Note_on_c, 5, 77, 0
7, 75700, Note_on_c, 5, 79, 105
7, 75820, Note_on_c, 5, 79, 0
7, 75820, Note_on_c, 5, 79, 105
7, 76060, Note_on_c, 5, 77, 105
7, 76109, Note_on_c, 5, 79, 0
7, 76229, Note_on_c, 5, 77, 0
7, 76300, Note_on_c, 5, 76, 105
7, 76396, Note_on_c, 5, 76, 0
7, 76540, Note_on_c, 5, 74, 105
7, 76636, Note_on_c, 5, 74, 0
7, 76780, Note_on_c, 5, 55, 105
7, 76780, Note_on_c, 5, 64, 105
7, 76780, Note_on_c, 5, 72, 105
7, 77260, Note_on_c, 5, 72, 0
7, 77260, Note_on_c, 5, 64, 0
7, 77260, Note_on_c, 5, 55, 0
7, 77500, Note_on_c, 5, 79, 98
7, 77580, Note_on_c, 5, 81, 100
7, 77606, Note_on_c, 5, 79, 0
7, 77656, Note_on_c, 5, 83, 101
7, 77681, Note_on_c, 5, 81, 0
7, 77740, Note_on_c, 5, 84, 105
7, 77768, Note_on_c, 5, 83, 0
7, 78220, Note_on_c, 5, 84, 0
7, 78460, Note_on_c, 5, 79, 100
7, 78540, Note_on_c, 5, 81, 103
7, 78566, Note_on_c, 5, 79, 0
7, 78616, Note_on_c, 5, 83, 105
7, 78641, Note_on_c, 5, 81, 0
7, 78700, Note_on_c, 5, 84, 108
7, 78728, Note_on_c, 5, 83, 0
7, 79180, Note_on_c, 5, 84, 0
7, 79420, Note_on_c, 5, 79, 97
7, 79500, Note_on_c, 5, 81, 101
7, 79526, Note_on_c, 5, 79, 0
7, 79576, Note_on_c, 5, 83, 103
7, 79601, Note_on_c, 5, 81, 0
7, 79660, Note_on_c, 5, 84, 106
7, 79688, Note_on_c, 5, 83, 0
7, 79900, Note_on_c, 5, 84, 0
7, 79900, Note_on_c, 5, 79, 102
7, 79980, Note_on_c, 5, 81, 104
7, 80006, Note_on_c, 5, 79, 0
7, 80056, Note_on_c, 5, 83, 106
7, 80081, Note_on_c, 5, 81, 0
7, 80140, Note_on_c, 5, 84, 109
7, 80168, Note_on_c, 5, 83, 0
7, 80380, Note_on_c, 5, 84, 0
7, 80380, Note_on_c, 5, 79, 103
7, 80460, Note_on_c, 5, 81, 108
7, 80486, Note_on_c, 5, 79, 0
7, 80536, Note_on_c, 5, 83, 108
7, 80561, Note_on_c, 5, 81, 0
7, 80620, Note_on_c, 5, 84, 114
7, 80648, Note_on_c, 5, 83, 0
7, 81100, Note_on_c, 5, 84, 0
7, 81340, Note_on_c, 5, 72, 79
7, 81580, Note_on_c, 5, 72, 0
7, 81820, Note_on_c, 5, 71, 70
7, 82060, Note_on_c, 5, 71, 0
7, 82300, Note_on_c, 5, 69, 70
7, 82540, Note_on_c, 5, 69, 0
7, 82540, Note_on_c, 5, 67, 105
7, 82780, Note_on_c, 5, 67, 0
7, 82780, Note_on_c, 5, 67, 105
7, 83020, Note_on_c, 5, 67, 0
7, 83260, Note_on_c, 5, 65, 70
7, 83500, Note_on_c, 5, 65, 0
7, 83740, Note_on_c, 5, 64, 70
7, 83980, Note_on_c, 5, 64, 0
7, 84220, Note_on_c, 5, 62, 70
7, 84460, Note_on_c, 5, 62, 0
7, 84460, Note_on_c, 5, 60, 105
7, 85144, Note_on_c, 5, 60, 0
7, 85180, Note_on_c, 5, 67, 105
7, 85408, Note_on_c, 5, 67, 0
7, 85420, Note_on_c, 5, 64, 105
7, 85648, Note_on_c, 5, 64, 0
7, 85660, Note_on_c, 5, 60, 105
7, 85888, Note_on_c, 5, 60, 0
7, 85900, Note_on_c, 5, 64, 105
7, 86128, Note_on_c, 5, 64, 0
7, 86140, Note_on_c, 5, 67, 105
7, 86368, Note_on_c, 5, 67, 0
7, 86380, Note_on_c, 5, 72, 105
7, 87064, Note_on_c, 5, 72, 0
7, 87100, Note_on_c, 5, 67, 105
7, 87328, Note_on_c, 5, 67, 0
7, 87340, Note_on_c, 5, 64, 105
7, 87568, Note_on_c, 5, 64, 0
7, 87580, Note_on_c, 5, 60, 105
7, 87808, Note_on_c, 5, 60, 0
7, 87820, Note_on_c, 5, 64, 105
7, 88048, Note_on_c, 5, 64, 0
7, 88060, Note_on_c, 5, 67, 105
7, 88288, Note_on_c, 5, 67, 0
7, 88300, Note_on_c, 5, 72, 105
7, 88780, Note_on_c, 5, 72, 0
7, 89020, Note_on_c, 5, 60, 70
7, 89260, Note_on_c, 5, 60, 0
7, 89500, Note_on_c, 5, 59, 70
7, 89740, Note_on_c, 5, 59, 0
7, 89980, Note_on_c, 5, 60, 70
7, 90220, Note_on_c, 5, 60, 0
7, 90220, Note_on_c, 5, 62, 70
7, 90316, Note_on_c, 5, 62, 0
7, 90460, Note_on_c, 5, 62, 70
7, 90556, Note_on_c, 5, 62, 0
7, 90940, Note_on_c, 5, 62, 70
7, 91180, Note_on_c, 5, 62, 0
7, 91420, Note_on_c, 5, 61, 70
7, 91660, Note_on_c, 5, 61, 0
7, 91900, Note_on_c, 5, 62, 70
7, 92140, Note_on_c, 5, 62, 0
7, 92140, Note_on_c, 5, 64, 70
7, 92236, Note_on_c, 5, 64, 0
7, 92380, Note_on_c, 5, 64, 70
7, 92476, Note_on_c, 5, 64, 0
7, 92860, Note_on_c, 5, 64, 70
7, 93100, Note_on_c, 5, 64, 0
7, 93340, Note_on_c, 5, 63, 70
7, 93580, Note_on_c, 5, 63, 0
7, 93820, Note_on_c, 5, 64, 70
7, 94060, Note_on_c, 5, 64, 0
7, 94300, Note_on_c, 5, 65, 70
7, 94540, Note_on_c, 5, 65, 0
7, 94780, Note_on_c, 5, 67, 70
7, 95020, Note_on_c, 5, 67, 0
7, 95260, Note_on_c, 5, 69, 70
7, 95500, Note_on_c, 5, 69, 0
7, 95740, Note_on_c, 5, 71, 70
7, 95980, Note_on_c, 5, 71, 0
7, 95980, Note_on_c, 5, 72, 70
7, 96460, Note_on_c, 5, 72, 0
7, 103900, Note_on_c, 5, 67, 70
7, 104068, Note_on_c, 5, 67, 0
7, 104140, Note_on_c, 5, 67, 70
7, 104308, Note_on_c, 5, 67, 0
7, 104380, Note_on_c, 5, 67, 70
7, 104548, Note_on_c, 5, 67, 0
7, 104620, Note_on_c, 5, 67, 70
7, 104788, Note_on_c, 5, 67, 0
7, 104860, Note_on_c, 5, 67, 70
7, 105028, Note_on_c, 5, 67, 0
7, 105100, Note_on_c, 5, 67, 70
7, 105268, Note_on_c, 5, 67, 0
7, 105340, Note_on_c, 5, 67, 70
7, 105508, Note_on_c, 5, 67, 0
7, 105820, Note_on_c, 5, 69, 70
7, 105988, Note_on_c, 5, 69, 0
7, 106060, Note_on_c, 5, 69, 70
7, 106228, Note_on_c, 5, 69, 0
7, 106300, Note_on_c, 5, 69, 70
7, 106468, Note_on_c, 5, 69, 0
7, 106540, Note_on_c, 5, 69, 70
7, 106708, Note_on_c, 5, 69, 0
7, 106780, Note_on_c, 5, 69, 70
7, 106948, Note_on_c, 5, 69, 0
7, 107020, Note_on_c, 5, 69, 70
7, 107188, Note_on_c, 5, 69, 0
7, 107260, Note_on_c, 5, 69, 70
7, 107428, Note_on_c, 5, 69, 0
7, 107740, Note_on_c, 5, 67, 70
7, 107908, Note_on_c, 5, 67, 0
7, 107980, Note_on_c, 5, 67, 70
7, 108148, Note_on_c, 5, 67, 0
7, 108220, Note_on_c, 5, 67, 70
7, 108388, Note_on_c, 5, 67, 0
7, 108460, Note_on_c, 5, 67, 70
7, 108628, Note_on_c, 5, 67, 0
7, 108700, Note_on_c, 5, 67, 70
7, 108868, Note_on_c, 5, 67, 0
7, 108940, Note_on_c, 5, 67, 70
7, 109108, Note_on_c, 5, 67, 0
7, 109180, Note_on_c, 5, 67, 70
7, 109348, Note_on_c, 5, 67, 0
7, 109420, Note_on_c, 5, 67, 70
7, 109660, Note_on_c, 5, 65, 70
7, 109704, Note_on_c, 5, 67, 0
7, 109849, Note_on_c, 5, 65, 0
7, 109900, Note_on_c, 5, 64, 70
7, 109996, Note_on_c, 5, 64, 0
7, 110140, Note_on_c, 5, 64, 70
7, 110236, Note_on_c, 5, 64, 0
7, 110380, Note_on_c, 5, 64, 70
7, 110620, Note_on_c, 5, 67, 70
7, 110678, Note_on_c, 5, 64, 0
7, 110860, Note_on_c, 5, 65, 70
7, 110918, Note_on_c, 5, 67, 0
7, 111100, Note_on_c, 5, 62, 70
7, 111158, Note_on_c, 5, 65, 0
7, 111289, Note_on_c, 5, 62, 0
7, 111340, Note_on_c, 5, 60, 70
7, 111580, Note_on_c, 5, 60, 0
7, 111820, Note_on_c, 5, 72, 68
7, 112060, Note_on_c, 5, 72, 0
7, 112300, Note_on_c, 5, 76, 71
7, 112540, Note_on_c, 5, 76, 0
7, 112780, Note_on_c, 5, 79, 74
7, 113020, Note_on_c, 5, 79, 0
7, 113260, Note_on_c, 5, 81, 77
7, 113500, Note_on_c, 5, 81, 0
7, 113740, Note_on_c, 5, 72, 64
7, 113980, Note_on_c, 5, 72, 0
7, 114220, Note_on_c, 5, 77, 68
7, 114460, Note_on_c, 5, 77, 0
7, 114700, Note_on_c, 5, 81, 73
7, 114940, Note_on_c, 5, 81, 0
7, 115180, Note_on_c, 5, 79, 77
7, 115420, Note_on_c, 5, 79, 0
7, 115660, Note_on_c, 5, 72, 68
7, 115900, Note_on_c, 5, 72, 0
7, 116140, Note_on_c, 5, 76, 74
7, 116380, Note_on_c, 5, 76, 0
7, 116620, Note_on_c, 5, 79, 80
7, 116860, Note_on_c, 5, 79, 0
7, 117340, Note_on_c, 5, 67, 72
7, 117436, Note_on_c, 5, 67, 0
7, 117580, Note_on_c, 5, 72, 75
7, 117676, Note_on_c, 5, 72, 0
7, 117820, Note_on_c, 5, 76, 79
7, 117916, Note_on_c, 5, 76, 0
7, 118060, Note_on_c, 5, 79, 82
7, 118156, Note_on_c, 5, 79, 0
7, 118300, Note_on_c, 5, 76, 81
7, 118396, Note_on_c, 5, 76, 0
7, 118540, Note_on_c, 5, 77, 78
7, 118636, Note_on_c, 5, 77, 0
7, 118780, Note_on_c, 5, 74, 75
7, 118876, Note_on_c, 5, 74, 0
7, 119020, Note_on_c, 5, 72, 72
7, 119500, Note_on_c, 5, 72, 0
7, 125020, Note_on_c, 5, 67, 70
7, 125116, Note_on_c, 5, 67, 0
7, 125260, Note_on_c, 5, 69, 70
7, 125356, Note_on_c, 5, 69, 0
7, 125500, Note_on_c, 5, 71, 70
7, 125596, Note_on_c, 5, 71, 0
7, 125740, Note_on_c, 5, 72, 70
7, 125836, Note_on_c, 5, 72, 0
7, 125980, Note_on_c, 5, 74, 68
7, 126076, Note_on_c, 5, 74, 0
7, 126220, Note_on_c, 5, 76, 69
7, 126316, Note_on_c, 5, 76, 0
7, 126460, Note_on_c, 5, 78, 71
7, 126556, Note_on_c, 5, 78, 0
7, 126700, Note_on_c, 5, 79, 85
7, 126940, Note_on_c, 5, 79, 0
7, 126940, Note_on_c, 5, 81, 97
7, 126968, Note_on_c, 5, 81, 0
7, 126968, Note_on_c, 5, 79, 97
7, 127000, Note_on_c, 5, 79, 0
7, 127000, Note_on_c, 5, 81, 99
7, 127028, Note_on_c, 5, 81, 0
7, 127028, Note_on_c, 5, 79, 99
7, 127060, Note_on_c, 5, 79, 0
7, 127060, Note_on_c, 5, 78, 99
7, 127120, Note_on_c, 5, 78, 0
7, 127120, Note_on_c, 5, 79, 101
7, 127180, Note_on_c, 5, 79, 0
7, 127180, Note_on_c, 5, 83, 103
7, 127420, Note_on_c, 5, 83, 0
7, 127420, Note_on_c, 5, 79, 105
7, 127516, Note_on_c, 5, 79, 0
7, 127660, Note_on_c, 5, 74, 105
7, 127756, Note_on_c, 5, 74, 0
7, 127900, Note_on_c, 5, 79, 105
7, 127996, Note_on_c, 5, 79, 0
7, 128140, Note_on_c, 5, 71, 105
7, 128236, Note_on_c, 5, 71, 0
7, 128380, Note_on_c, 5, 74, 105
7, 128476, Note_on_c, 5, 74, 0
7, 128620, Note_on_c, 5, 67, 105
7, 128860, Note_on_c, 5, 69, 105
7, 128879, Note_on_c, 5, 67, 0
7, 128920, Note_on_c, 5, 67, 106
7, 128942, Note_on_c, 5, 69, 0
7, 128980, Note_on_c, 5, 66, 102
7, 129002, Note_on_c, 5, 67, 0
7, 129040, Note_on_c, 5, 67, 102
7, 129062, Note_on_c, 5, 66, 0
7, 129100, Note_on_c, 5, 71, 108
7, 129122, Note_on_c, 5, 67, 0
7, 129289, Note_on_c, 5, 71, 0
7, 129340, Note_on_c, 5, 67, 105
7, 129436, Note_on_c, 5, 67, 0
7, 129580, Note_on_c, 5, 62, 105
7, 129676, Note_on_c, 5, 62, 0
7, 129820, Note_on_c, 5, 67, 105
7, 129916, Note_on_c, 5, 67, 0
7, 130060, Note_on_c, 5, 59, 105
7, 130156, Note_on_c, 5, 59, 0
7, 130300, Note_on_c, 5, 62, 105
7, 130396, Note_on_c, 5, 62, 0
7, 130540, Note_on_c, 5, 55, 105
7, 131020, Note_on_c, 5, 55, 0
7, 145900, Note_on_c, 5, 67, 70
7, 146068, Note_on_c, 5, 67, 0
7, 146140, Note_on_c, 5, 67, 70
7, 146308, Note_on_c, 5, 67, 0
7, 146380, Note_on_c, 5, 67, 70
7, 146548, Note_on_c, 5, 67, 0
7, 146620, Note_on_c, 5, 67, 70
7, 146788, Note_on_c, 5, 67, 0
7, 146860, Note_on_c, 5, 67, 70
7, 147028, Note_on_c, 5, 67, 0
7, 147100, Note_on_c, 5, 67, 70
7, 147268, Note_on_c, 5, 67, 0
7, 147340, Note_on_c, 5, 67, 70
7, 147508, Note_on_c, 5, 67, 0
7, 147580, Note_on_c, 5, 67, 70
7, 147748, Note_on_c, 5, 67, 0
7, 147820, Note_on_c, 5, 64, 70
7, 147988, Note_on_c, 5, 64, 0
7, 148060, Note_on_c, 5, 64, 70
7, 148228, Note_on_c, 5, 64, 0
7, 148300, Note_on_c, 5, 64, 70
7, 148468, Note_on_c, 5, 64, 0
7, 148540, Note_on_c, 5, 64, 70
7, 148708, Note_on_c, 5, 64, 0
7, 148780, Note_on_c, 5, 76, 70
7, 148948, Note_on_c, 5, 76, 0
7, 149020, Note_on_c, 5, 76, 70
7, 149188, Note_on_c, 5, 76, 0
7, 149260, Note_on_c, 5, 76, 70
7, 149428, Note_on_c, 5, 76, 0
7, 149500, Note_on_c, 5, 76, 70
7, 149668, Note_on_c, 5, 76, 0
7, 149740, Note_on_c, 5, 84, 70
7, 150220, Note_on_c, 5, 81, 70
7, 150279, Note_on_c, 5, 84, 0
7, 150404, Note_on_c, 5, 81, 0
7, 150700, Note_on_c, 5, 81, 70
7, 151180, Note_on_c, 5, 78, 70
7, 151249, Note_on_c, 5, 81, 0
7, 151389, Note_on_c, 5, 78, 0
7, 151660, Note_on_c, 5, 78, 70
7, 152140, Note_on_c, 5, 74, 70
7, 152199, Note_on_c, 5, 78, 0
7, 152339, Note_on_c, 5, 74, 0
7, 152620, Note_on_c, 5, 72, 70
7, 153100, Note_on_c, 5, 69, 70
7, 153149, Note_on_c, 5, 72, 0
7, 153299, Note_on_c, 5, 69, 0
7, 153580, Note_on_c, 5, 71, 70
7, 154060, Note_on_c, 5, 71, 0
7, 154060, Note_on_c, 5, 72, 78
7, 154088, Note_on_c, 5, 72, 0
7, 154088, Note_on_c, 5, 71, 78
7, 154120, Note_on_c, 5, 71, 0
7, 154120, Note_on_c, 5, 72, 78
7, 154148, Note_on_c, 5, 72, 0
7, 154148, Note_on_c, 5, 71, 75
7, 154180, Note_on_c, 5, 71, 0
7, 154180, Note_on_c, 5, 69, 74
7, 154300, Note_on_c, 5, 71, 75
7, 154334, Note_on_c, 5, 69, 0
7, 154420, Note_on_c, 5, 72, 78
7, 154469, Note_on_c, 5, 71, 0
7, 154540, Note_on_c, 5, 74, 83
7, 154594, Note_on_c, 5, 72, 0
7, 155020, Note_on_c, 5, 74, 0
7, 155500, Note_on_c, 5, 83, 70
7, 155980, Note_on_c, 5, 83, 0
7, 155980, Note_on_c, 5, 84, 85
7, 156008, Note_on_c, 5, 84, 0
7, 156008, Note_on_c, 5, 83, 86
7, 156040, Note_on_c, 5, 83, 0
7, 156040, Note_on_c, 5, 84, 89
7, 156068, Note_on_c, 5, 84, 0
7, 156068, Note_on_c, 5, 83, 89
7, 156100, Note_on_c, 5, 83, 0
7, 156100, Note_on_c, 5, 81, 87
7, 156220, Note_on_c, 5, 83, 83
7, 156264, Note_on_c, 5, 81, 0
7, 156340, Note_on_c, 5, 84, 84
7, 156389, Note_on_c, 5, 83, 0
7, 156460, Note_on_c, 5, 84, 0
7, 156460, Note_on_c, 5, 86, 92
7, 156940, Note_on_c, 5, 86, 0
7, 157420, Note_on_c, 5, 84, 70
7, 157900, Note_on_c, 5, 81, 70
7, 157959, Note_on_c, 5, 84, 0
7, 158069, Note_on_c, 5, 81, 0
7, 158380, Note_on_c, 5, 81, 70
7, 158860, Note_on_c, 5, 78, 70
7, 158929, Note_on_c, 5, 81, 0
7, 159029, Note_on_c, 5, 78, 0
7, 159340, Note_on_c, 5, 78, 70
7, 159820, Note_on_c, 5, 74, 70
7, 159879, Note_on_c, 5, 78, 0
7, 160014, Note_on_c, 5, 74, 0
7, 160300, Note_on_c, 5, 72, 70
7, 160780, Note_on_c, 5, 69, 70
7, 160834, Note_on_c, 5, 72, 0
7, 160959, Note_on_c, 5, 69, 0
7, 161260, Note_on_c, 5, 71, 70
7, 161740, Note_on_c, 5, 71, 0
7, 161740, Note_on_c, 5, 72, 83
7, 161768, Note_on_c, 5, 72, 0
7, 161768, Note_on_c, 5, 71, 83
7, 161800, Note_on_c, 5, 71, 0
7, 161800, Note_on_c, 5, 72, 85
7, 161828, Note_on_c, 5, 72, 0
7, 161828, Note_on_c, 5, 71, 85
7, 161860, Note_on_c, 5, 71, 0
7, 161860, Note_on_c, 5, 69, 80
7, 161980, Note_on_c, 5, 71, 80
7, 162004, Note_on_c, 5, 69, 0
7, 162100, Note_on_c, 5, 72, 82
7, 162134, Note_on_c, 5, 71, 0
7, 162220, Note_on_c, 5, 74, 90
7, 162269, Note_on_c, 5, 72, 0
7, 162700, Note_on_c, 5, 74, 0
7, 163180, Note_on_c, 5, 83, 70
7, 163660, Note_on_c, 5, 83, 0
7, 163660, Note_on_c, 5, 84, 84
7, 163688, Note_on_c, 5, 84, 0
7, 163688, Note_on_c, 5, 83, 83
7, 163720, Note_on_c, 5, 83, 0
7, 163720, Note_on_c, 5, 84, 82
7, 163748, Note_on_c, 5, 84, 0
7, 163748, Note_on_c, 5, 83, 80
7, 163780, Note_on_c, 5, 83, 0
7, 163780, Note_on_c, 5, 81, 79
7, 163900, Note_on_c, 5, 83, 78
7, 163949, Note_on_c, 5, 81, 0
7, 164020, Note_on_c, 5, 84, 80
7, 164059, Note_on_c, 5, 83, 0
7, 164140, Note_on_c, 5, 84, 0
7, 164140, Note_on_c, 5, 86, 86
7, 164620, Note_on_c, 5, 86, 0
7, 165100, Note_on_c, 5, 62, 105
7, 165580, Note_on_c, 5, 62, 0
7, 165820, Note_on_c, 5, 74, 105
7, 165820, Note_on_c, 5, 81, 105
7, 165988, Note_on_c, 5, 81, 0
7, 165988, Note_on_c, 5, 74, 0
7, 166060, Note_on_c, 5, 74, 105
7, 166060, Note_on_c, 5, 83, 105
7, 166228, Note_on_c, 5, 83, 0
7, 166228, Note_on_c, 5, 74, 0
7, 166300, Note_on_c, 5, 74, 105
7, 166300, Note_on_c, 5, 83, 105
7, 166468, Note_on_c, 5, 83, 0
7, 166468, Note_on_c, 5, 74, 0
7, 166540, Note_on_c, 5, 74, 105
7, 166540, Note_on_c, 5, 83, 105
7, 166708, Note_on_c, 5, 83, 0
7, 166708, Note_on_c, 5, 74, 0
7, 166780, Note_on_c, 5, 74, 105
7, 166780, Note_on_c, 5, 83, 105
7, 166948, Note_on_c, 5, 83, 0
7, 166948, Note_on_c, 5, 74, 0
7, 167020, Note_on_c, 5, 74, 105
7, 167020, Note_on_c, 5, 81, 105
7, 167500, Note_on_c, 5, 81, 0
7, 167500, Note_on_c, 5, 74, 0
7, 167740, Note_on_c, 5, 74, 105
7, 167740, Note_on_c, 5, 81, 105
7, 167908, Note_on_c, 5, 81, 0
7, 167908, Note_on_c, 5, 74, 0
7, 167980, Note_on_c, 5, 74, 105
7, 167980, Note_on_c, 5, 83, 105
7, 168148, Note_on_c, 5, 83, 0
7, 168148, Note_on_c, 5, 74, 0
7, 168220, Note_on_c, 5, 74, 105
7, 168220, Note_on_c, 5, 83, 105
7, 168388, Note_on_c, 5, 83, 0
7, 168388, Note_on_c, 5, 74, 0
7, 168460, Note_on_c, 5, 74, 105
7, 168460, Note_on_c, 5, 83, 105
7, 168628, Note_on_c, 5, 83, 0
7, 168628, Note_on_c, 5, 74, 0
7, 168700, Note_on_c, 5, 74, 105
7, 168700, Note_on_c, 5, 83, 105
7, 168868, Note_on_c, 5, 83, 0
7, 168868, Note_on_c, 5, 74, 0
7, 168940, Note_on_c, 5, 74, 105
7, 168940, Note_on_c, 5, 81, 105
7, 169329, Note_on_c, 5, 74, 0
7, 169340, Note_on_c, 5, 62, 105
7, 169400, Note_on_c, 5, 74, 105
7, 169420, Note_on_c, 5, 81, 0
7, 169420, Note_on_c, 5, 86, 105
7, 169460, Note_on_c, 5, 62, 0
7, 169844, Note_on_c, 5, 86, 0
7, 169869, Note_on_c, 5, 74, 0
7, 169900, Note_on_c, 5, 62, 105
7, 170380, Note_on_c, 5, 62, 0
7, 170860, Note_on_c, 5, 71, 70
7, 171100, Note_on_c, 5, 67, 70
7, 171155, Note_on_c, 5, 71, 0
7, 171340, Note_on_c, 5, 71, 70
7, 171395, Note_on_c, 5, 67, 0
7, 171580, Note_on_c, 5, 67, 70
7, 171635, Note_on_c, 5, 71, 0
7, 171820, Note_on_c, 5, 71, 70
7, 171875, Note_on_c, 5, 67, 0
7, 172060, Note_on_c, 5, 67, 70
7, 172115, Note_on_c, 5, 71, 0
7, 172300, Note_on_c, 5, 71, 70
7, 172355, Note_on_c, 5, 67, 0
7, 172540, Note_on_c, 5, 67, 70
7, 172595, Note_on_c, 5, 71, 0
7, 172744, Note_on_c, 5, 67, 0
7, 172780, Note_on_c, 5, 72, 70
7, 173020, Note_on_c, 5, 69, 70
7, 173075, Note_on_c, 5, 72, 0
7, 173260, Note_on_c, 5, 72, 70
7, 173315, Note_on_c, 5, 69, 0
7, 173500, Note_on_c, 5, 69, 70
7, 173555, Note_on_c, 5, 72, 0
7, 173740, Note_on_c, 5, 72, 70
7, 173795, Note_on_c, 5, 69, 0
7, 173980, Note_on_c, 5, 69, 70
7, 174035, Note_on_c, 5, 72, 0
7, 174220, Note_on_c, 5, 72, 70
7, 174275, Note_on_c, 5, 69, 0
7, 174460, Note_on_c, 5, 69, 70
7, 174515, Note_on_c, 5, 72, 0
7, 174664, Note_on_c, 5, 69, 0
7, 174700, Note_on_c, 5, 74, 70
7, 175180, Note_on_c, 5, 74, 0
7, 175660, Note_on_c, 5, 62, 70
7, 175756, Note_on_c, 5, 62, 0
7, 175900, Note_on_c, 5, 64, 70
7, 175996, Note_on_c, 5, 64, 0
7, 176140, Note_on_c, 5, 66, 70
7, 176236, Note_on_c, 5, 66, 0
7, 176380, Note_on_c, 5, 67, 70
7, 176476, Note_on_c, 5, 67, 0
7, 176620, Note_on_c, 5, 67, 70
7, 176860, Note_on_c, 5, 66, 70
7, 176915, Note_on_c, 5, 67, 0
7, 177100, Note_on_c, 5, 64, 70
7, 177155, Note_on_c, 5, 66, 0
7, 177340, Note_on_c, 5, 62, 70
7, 177395, Note_on_c, 5, 64, 0
7, 177509, Note_on_c, 5, 62, 0
7, 177580, Note_on_c, 5, 62, 72
7, 177700, Note_on_c, 5, 62, 0
7, 177700, Note_on_c, 5, 60, 76
7, 177820, Note_on_c, 5, 60, 0
7, 177820, Note_on_c, 5, 59, 76
7, 177940, Note_on_c, 5, 59, 0
7, 177940, Note_on_c, 5, 60, 74
7, 178060, Note_on_c, 5, 60, 0
7, 178060, Note_on_c, 5, 64, 74
7, 178300, Note_on_c, 5, 64, 0
7, 178300, Note_on_c, 5, 60, 70
7, 178540, Note_on_c, 5, 60, 0
7, 178540, Note_on_c, 5, 58, 70
7, 178780, Note_on_c, 5, 58, 0
7, 178780, Note_on_c, 5, 59, 70
7, 179020, Note_on_c, 5, 59, 0
7, 179260, Note_on_c, 5, 59, 70
7, 179304, Note_on_c, 5, 59, 0
7, 179380, Note_on_c, 5, 60, 70
7, 179424, Note_on_c, 5, 60, 0
7, 179500, Note_on_c, 5, 62, 70
7, 179596, Note_on_c, 5, 62, 0
7, 179740, Note_on_c, 5, 64, 70
7, 179836, Note_on_c, 5, 64, 0
7, 179980, Note_on_c, 5, 66, 70
7, 180076, Note_on_c, 5, 66, 0
7, 180220, Note_on_c, 5, 67, 70
7, 180316, Note_on_c, 5, 67, 0
7, 180460, Note_on_c, 5, 67, 70
7, 180700, Note_on_c, 5, 66, 70
7, 180755, Note_on_c, 5, 67, 0
7, 180940, Note_on_c, 5, 64, 70
7, 180995, Note_on_c, 5, 66, 0
7, 181180, Note_on_c, 5, 62, 70
7, 181235, Note_on_c, 5, 64, 0
7, 181359, Note_on_c, 5, 62, 0
7, 181420, Note_on_c, 5, 62, 75
7, 181540, Note_on_c, 5, 62, 0
7, 181540, Note_on_c, 5, 60, 80
7, 181660, Note_on_c, 5, 60, 0
7, 181660, Note_on_c, 5, 59, 80
7, 181780, Note_on_c, 5, 59, 0
7, 181780, Note_on_c, 5, 60, 76
7, 181900, Note_on_c, 5, 60, 0
7, 181900, Note_on_c, 5, 64, 75
7, 182140, Note_on_c, 5, 64, 0
7, 182140, Note_on_c, 5, 60, 70
7, 182380, Note_on_c, 5, 60, 0
7, 182380, Note_on_c, 5, 59, 70
7, 182579, Note_on_c, 5, 59, 0
7, 182620, Note_on_c, 5, 67, 70
7, 183100, Note_on_c, 5, 65, 70
7, 183177, Note_on_c, 5, 67, 0
7, 183580, Note_on_c, 5, 64, 70
7, 183657, Note_on_c, 5, 65, 0
7, 184060, Note_on_c, 5, 62, 70
7, 184137, Note_on_c, 5, 64, 0
7, 184454, Note_on_c, 5, 62, 0
7, 184540, Note_on_c, 5, 60, 70
7, 185020, Note_on_c, 5, 67, 70
7, 185097, Note_on_c, 5, 60, 0
7, 185500, Note_on_c, 5, 65, 70
7, 185577, Note_on_c, 5, 67, 0
7, 185980, Note_on_c, 5, 64, 70
7, 186057, Note_on_c, 5, 65, 0
7, 186369, Note_on_c, 5, 64, 0
7, 186460, Note_on_c, 5, 62, 70
7, 186940, Note_on_c, 5, 67, 70
7, 187017, Note_on_c, 5, 62, 0
7, 187420, Note_on_c, 5, 65, 70
7, 187497, Note_on_c, 5, 67, 0
7, 187900, Note_on_c, 5, 63, 70
7, 187977, Note_on_c, 5, 65, 0
7, 188084, Note_on_c, 5, 63, 0
7, 188140, Note_on_c, 5, 64, 73
7, 188236, Note_on_c, 5, 64, 0
7, 188380, Note_on_c, 5, 67, 74
7, 188476, Note_on_c, 5, 67, 0
7, 188620, Note_on_c, 5, 72, 76
7, 188716, Note_on_c, 5, 72, 0
7, 188860, Note_on_c, 5, 76, 79
7, 188956, Note_on_c, 5, 76, 0
7, 189100, Note_on_c, 5, 74, 81
7, 189580, Note_on_c, 5, 74, 0
7, 190060, Note_on_c, 5, 64, 68
7, 190156, Note_on_c, 5, 64, 0
7, 190300, Note_on_c, 5, 67, 70
7, 190396, Note_on_c, 5, 67, 0
7, 190540, Note_on_c, 5, 72, 72
7, 190636, Note_on_c, 5, 72, 0
7, 190780, Note_on_c, 5, 76, 74
7, 190876, Note_on_c, 5, 76, 0
7, 191020, Note_on_c, 5, 74, 76
7, 191500, Note_on_c, 5, 74, 0
7, 192460, Note_on_c, 5, 64, 70
7, 192460, Note_on_c, 5, 72, 70
7, 192940, Note_on_c, 5, 72, 0
7, 192940, Note_on_c, 5, 64, 0
7, 193420, Note_on_c, 5, 62, 70
7, 193420, Note_on_c, 5, 72, 70
7, 193900, Note_on_c, 5, 72, 0
7, 193900, Note_on_c, 5, 62, 0
7, 194380, Note_on_c, 5, 62, 70
7, 194380, Note_on_c, 5, 71, 70
7, 194860, Note_on_c, 5, 71, 0
7, 194860, Note_on_c, 5, 62, 0
7, 195340, Note_on_c, 5, 64, 70
7, 195340, Note_on_c, 5, 71, 70
7, 195820, Note_on_c, 5, 71, 0
7, 195820, Note_on_c, 5, 64, 0
7, 195820, Note_on_c, 5, 69, 70
7, 196540, Note_on_c, 5, 69, 0
7, 196540, Note_on_c, 5, 76, 76
7, 196780, Note_on_c, 5, 76, 0
7, 196780, Note_on_c, 5, 74, 75
7, 196876, Note_on_c, 5, 74, 0
7, 197020, Note_on_c, 5, 72, 74
7, 197116, Note_on_c, 5, 72, 0
7, 197260, Note_on_c, 5, 71, 70
7, 197356, Note_on_c, 5, 71, 0
7, 197500, Note_on_c, 5, 69, 69
7, 197596, Note_on_c, 5, 69, 0
7, 197740, Note_on_c, 5, 67, 69
7, 197836, Note_on_c, 5, 67, 0
7, 197980, Note_on_c, 5, 69, 69
7, 198076, Note_on_c, 5, 69, 0
7, 198220, Note_on_c, 5, 71, 71
7, 198316, Note_on_c, 5, 71, 0
7, 198460, Note_on_c, 5, 72, 73
7, 198556, Note_on_c, 5, 72, 0
7, 198700, Note_on_c, 5, 74, 78
7, 199180, Note_on_c, 5, 74, 0
7, 203500, Note_on_c, 5, 76, 76
7, 204460, Note_on_c, 5, 74, 77
7, 204504, Note_on_c, 5, 76, 0
7, 204556, Note_on_c, 5, 74, 0
7, 204700, Note_on_c, 5, 72, 75
7, 204796, Note_on_c, 5, 72, 0
7, 204940, Note_on_c, 5, 71, 72
7, 205036, Note_on_c, 5, 71, 0
7, 205180, Note_on_c, 5, 69, 69
7, 205276, Note_on_c, 5, 69, 0
7, 205420, Note_on_c, 5, 67, 67
7, 205900, Note_on_c, 5, 67, 0
7, 213100, Control_c, 5, 0, 0
7, 213100, Control_c, 5, 32, 0
7, 213100, Program_c, 5, 45
7, 214060, Note_on_c, 5, 79, 70
7, 214300, Note_on_c, 5, 79, 0
7, 214540, Note_on_c, 5, 78, 70
7, 214780, Note_on_c, 5, 78, 0
7, 215020, Note_on_c, 5, 79, 70
7, 215500, Note_on_c, 5, 79, 0
7, 215980, Note_on_c, 5, 79, 70
7, 216148, Note_on_c, 5, 79, 0
7, 216220, Note_on_c, 5, 79, 70
7, 216388, Note_on_c, 5, 79, 0
7, 216460, Note_on_c, 5, 78, 70
7, 216628, Note_on_c, 5, 78, 0
7, 216700, Note_on_c, 5, 78, 70
7, 216868, Note_on_c, 5, 78, 0
7, 216940, Note_on_c, 5, 79, 70
7, 217420, Note_on_c, 5, 79, 0
7, 217900, Note_on_c, 5, 79, 70
7, 218140, Note_on_c, 5, 79, 0
7, 218380, Note_on_c, 5, 78, 70
7, 218620, Note_on_c, 5, 78, 0
7, 218860, Note_on_c, 5, 79, 70
7, 219100, Note_on_c, 5, 79, 0
7, 219340, Note_on_c, 5, 81, 70
7, 219580, Note_on_c, 5, 81, 0
7, 219820, Note_on_c, 5, 83, 70
7, 220060, Note_on_c, 5, 83, 0
7, 220300, Note_on_c, 5, 81, 70
7, 220540, Note_on_c, 5, 81, 0
7, 220780, Note_on_c, 5, 79, 70
7, 221260, Note_on_c, 5, 79, 0
7, 221740, Note_on_c, 5, 76, 70
7, 222220, Note_on_c, 5, 76, 0
7, 222700, Note_on_c, 5, 74, 70
7, 222940, Note_on_c, 5, 74, 0
7, 223180, Note_on_c, 5, 71, 70
7, 223420, Note_on_c, 5, 71, 0
7, 223660, Note_on_c, 5, 69, 70
7, 223900, Note_on_c, 5, 69, 0
7, 224140, Note_on_c, 5, 72, 70
7, 224380, Note_on_c, 5, 72, 0
7, 226540, Control_c, 5, 0, 0
7, 226540, Control_c, 5, 32, 0
7, 226540, Program_c, 5, 48
7, 226780, Note_on_c, 5, 71, 70
7, 226948, Note_on_c, 5, 71, 0
7, 227020, Note_on_c, 5, 71, 70
7, 227188, Note_on_c, 5, 71, 0
7, 227260, Note_on_c, 5, 71, 70
7, 227428, Note_on_c, 5, 71, 0
7, 227500, Note_on_c, 5, 71, 70
7, 227668, Note_on_c, 5, 71, 0
7, 227740, Note_on_c, 5, 71, 70
7, 227908, Note_on_c, 5, 71, 0
7, 227980, Note_on_c, 5, 71, 70
7, 228148, Note_on_c, 5, 71, 0
7, 228220, Note_on_c, 5, 71, 70
7, 228388, Note_on_c, 5, 71, 0
7, 228460, Note_on_c, 5, 69, 73
7, 228580, Note_on_c, 5, 69, 0
7, 228580, Note_on_c, 5, 69, 74
7, 228700, Note_on_c, 5, 69, 0
7, 228700, Note_on_c, 5, 69, 76
7, 228820, Note_on_c, 5, 69, 0
7, 228820, Note_on_c, 5, 69, 76
7, 228940, Note_on_c, 5, 69, 0
7, 228940, Note_on_c, 5, 69, 78
7, 229060, Note_on_c, 5, 69, 0
7, 229060, Note_on_c, 5, 69, 81
7, 229180, Note_on_c, 5, 69, 0
7, 229180, Note_on_c, 5, 69, 83
7, 229300, Note_on_c, 5, 69, 0
7, 229300, Note_on_c, 5, 69, 84
7, 229420, Note_on_c, 5, 69, 0
7, 229420, Note_on_c, 5, 72, 88
7, 229540, Note_on_c, 5, 72, 0
7, 229540, Note_on_c, 5, 72, 90
7, 229660, Note_on_c, 5, 72, 0
7, 229660, Note_on_c, 5, 72, 91
7, 229780, Note_on_c, 5, 72, 0
7, 229780, Note_on_c, 5, 72, 93
7, 229900, Note_on_c, 5, 72, 0
7, 229900, Note_on_c, 5, 78, 96
7, 230020, Note_on_c, 5, 78, 0
7, 230020, Note_on_c, 5, 78, 96
7, 230140, Note_on_c, 5, 78, 0
7, 230140, Note_on_c, 5, 78, 98
7, 230260, Note_on_c, 5, 78, 0
7, 230260, Note_on_c, 5, 78, 98
7, 230380, Note_on_c, 5, 78, 0
7, 230380, Note_on_c, 5, 79, 105
7, 230860, Note_on_c, 5, 79, 0
7, 230860, Note_on_c, 5, 79, 105
7, 230956, Note_on_c, 5, 79, 0
7, 231340, Note_on_c, 5, 78, 105
7, 231436, Note_on_c, 5, 78, 0
7, 231820, Note_on_c, 5, 76, 105
7, 231916, Note_on_c, 5, 76, 0
7, 232300, Note_on_c, 5, 74, 105
7, 233020, Note_on_c, 5, 74, 0
7, 233020, Note_on_c, 5, 72, 105
7, 233260, Note_on_c, 5, 72, 0
7, 233260, Note_on_c, 5, 71, 105
7, 233740, Note_on_c, 5, 71, 0
7, 234700, Note_on_c, 5, 76, 70
7, 234796, Note_on_c, 5, 76, 0
7, 235180, Note_on_c, 5, 74, 70
7, 235276, Note_on_c, 5, 74, 0
7, 235660, Note_on_c, 5, 72, 70
7, 235756, Note_on_c, 5, 72, 0
7, 236140, Note_on_c, 5, 71, 70
7, 236860, Note_on_c, 5, 71, 0
7, 236860, Note_on_c, 5, 69, 70
7, 237100, Note_on_c, 5, 69, 0
7, 237100, Note_on_c, 5, 67, 70
7, 237580, Note_on_c, 5, 67, 0
7, 238060, Note_on_c, 5, 62, 105
7, 238060, Note_on_c, 5, 72, 105
7, 238540, Note_on_c, 5, 72, 0
7, 238540, Note_on_c, 5, 62, 0
7, 238540, Note_on_c, 5, 74, 105
7, 238540, Note_on_c, 5, 84, 105
7, 239500, Note_on_c, 5, 84, 0
7, 239500, Note_on_c, 5, 74, 0
7, 239500, Note_on_c, 5, 62, 105
7, 239500, Note_on_c, 5, 72, 105
7, 239980, Note_on_c, 5, 72, 0
7, 239980, Note_on_c, 5, 62, 0
7, 239980, Note_on_c, 5, 62, 105
7, 239980, Note_on_c, 5, 71, 105
7, 240460, Note_on_c, 5, 71, 0
7, 240460, Note_on_c, 5, 62, 0
7, 240460, Note_on_c, 5, 74, 105
7, 240460, Note_on_c, 5, 83, 105
7, 241420, Note_on_c, 5, 83, 0
7, 241420, Note_on_c, 5, 74, 0
7, 241420, Note_on_c, 5, 62, 105
7, 241420, Note_on_c, 5, 71, 105
7, 241900, Note_on_c, 5, 71, 0
7, 241900, Note_on_c, 5, 62, 0
7, 241900, Note_on_c, 5, 69, 105
7, 242380, Note_on_c, 5, 69, 0
7, 242380, Note_on_c, 5, 78, 105
7, 242500, Note_on_c, 5, 78, 0
7, 242500, Note_on_c, 5, 76, 105
7, 242620, Note_on_c, 5, 76, 0
7, 242620, Note_on_c, 5, 74, 105
7, 242740, Note_on_c, 5, 74, 0
7, 242740, Note_on_c, 5, 72, 105
7, 242860, Note_on_c, 5, 72, 0
7, 242860, Note_on_c, 5, 71, 105
7, 243340, Note_on_c, 5, 71, 0
7, 243340, Note_on_c, 5, 69, 105
7, 243820, Note_on_c, 5, 69, 0
7, 243820, Note_on_c, 5, 86, 121
7, 243940, Note_on_c, 5, 86, 0
7, 243940, Note_on_c, 5, 84, 120
7, 244060, Note_on_c, 5, 84, 0
7, 244060, Note_on_c, 5, 83, 119
7, 244180, Note_on_c, 5, 83, 0
7, 244180, Note_on_c, 5, 81, 117
7, 244300, Note_on_c, 5, 81, 0
7, 244300, Note_on_c, 5, 79, 115
7, 244420, Note_on_c, 5, 79, 0
7, 244420, Note_on_c, 5, 78, 111
7, 244540, Note_on_c, 5, 78, 0
7, 244540, Note_on_c, 5, 76, 109
7, 244660, Note_on_c, 5, 76, 0
7, 244660, Note_on_c, 5, 74, 109
7, 244780, Note_on_c, 5, 74, 0
7, 244780, Note_on_c, 5, 76, 113
7, 244876, Note_on_c, 5, 76, 0
7, 245020, Note_on_c, 5, 79, 105
7, 245116, Note_on_c, 5, 79, 0
7, 245260, Note_on_c, 5, 84, 105
7, 245356, Note_on_c, 5, 84, 0
7, 245500, Note_on_c, 5, 88, 105
7, 245596, Note_on_c, 5, 88, 0
7, 245740, Note_on_c, 5, 62, 105
7, 246220, Note_on_c, 5, 62, 0
7, 246220, Note_on_c, 5, 86, 105
7, 246940, Note_on_c, 5, 86, 0
7, 246940, Note_on_c, 5, 88, 105
7, 247060, Note_on_c, 5, 88, 0
7, 247060, Note_on_c, 5, 86, 105
7, 247180, Note_on_c, 5, 86, 0
7, 247180, Note_on_c, 5, 84, 105
7, 247420, Note_on_c, 5, 84, 0
7, 247420, Note_on_c, 5, 83, 105
7, 247660, Note_on_c, 5, 83, 0
7, 247660, Note_on_c, 5, 83, 105
7, 248020, Note_on_c, 5, 81, 105
7, 248059, Note_on_c, 5, 83, 0
7, 248114, Note_on_c, 5, 81, 0
7, 248140, Note_on_c, 5, 79, 105
7, 249100, Note_on_c, 5, 79, 0
7, 249100, Note_on_c, 5, 78, 105
7, 249580, Note_on_c, 5, 78, 0
7, 249580, Note_on_c, 5, 79, 105
7, 250060, Note_on_c, 5, 79, 0
7, 250300, Note_on_c, 5, 67, 70
7, 250540, Note_on_c, 5, 67, 0
7, 250780, Note_on_c, 5, 66, 70
7, 251020, Note_on_c, 5, 66, 0
7, 251260, Note_on_c, 5, 64, 70
7, 251500, Note_on_c, 5, 64, 0
7, 251500, Note_on_c, 5, 63, 105
7, 251596, Note_on_c, 5, 63, 0
7, 251740, Note_on_c, 5, 63, 105
7, 251836, Note_on_c, 5, 63, 0
7, 252220, Note_on_c, 5, 64, 70
7, 252460, Note_on_c, 5, 64, 0
7, 252700, Note_on_c, 5, 62, 70
7, 252940, Note_on_c, 5, 62, 0
7, 253180, Note_on_c, 5, 60, 70
7, 253420, Note_on_c, 5, 60, 0
7, 253420, Note_on_c, 5, 59, 105
7, 253516, Note_on_c, 5, 59, 0
7, 253660, Note_on_c, 5, 59, 105
7, 253756, Note_on_c, 5, 59, 0
7, 254140, Note_on_c, 5, 60, 70
7, 254380, Note_on_c, 5, 60, 0
7, 254620, Note_on_c, 5, 59, 70
7, 254860, Note_on_c, 5, 59, 0
7, 255100, Note_on_c, 5, 57, 70
7, 255340, Note_on_c, 5, 57, 0
7, 255580, Note_on_c, 5, 56, 70
7, 255820, Note_on_c, 5, 59, 70
7, 255874, Note_on_c, 5, 56, 0
7, 256060, Note_on_c, 5, 64, 70
7, 256114, Note_on_c, 5, 59, 0
7, 256300, Note_on_c, 5, 64, 0
7, 256540, Note_on_c, 5, 56, 70
7, 256780, Note_on_c, 5, 59, 70
7, 256824, Note_on_c, 5, 56, 0
7, 257020, Note_on_c, 5, 64, 70
7, 257064, Note_on_c, 5, 59, 0
7, 257260, Note_on_c, 5, 64, 0
7, 257500, Note_on_c, 5, 57, 70
7, 257740, Note_on_c, 5, 60, 70
7, 257824, Note_on_c, 5, 57, 0
7, 257980, Note_on_c, 5, 64, 70
7, 258034, Note_on_c, 5, 60, 0
7, 258220, Note_on_c, 5, 64, 0
7, 258460, Note_on_c, 5, 57, 70
7, 258700, Note_on_c, 5, 60, 70
7, 258739, Note_on_c, 5, 57, 0
7, 258940, Note_on_c, 5, 64, 70
7, 258999, Note_on_c, 5, 60, 0
7, 259180, Note_on_c, 5, 64, 0
7, 259420, Note_on_c, 5, 59, 70
7, 259660, Note_on_c, 5, 62, 70
7, 259709, Note_on_c, 5, 59, 0
7, 259900, Note_on_c, 5, 64, 70
7, 259949, Note_on_c, 5, 62, 0
7, 260140, Note_on_c, 5, 64, 0
7, 260380, Note_on_c, 5, 59, 70
7, 260620, Note_on_c, 5, 64, 70
7, 260679, Note_on_c, 5, 59, 0
7, 260860, Note_on_c, 5, 68, 70
7, 260899, Note_on_c, 5, 64, 0
7, 261100, Note_on_c, 5, 68, 0
7, 261340, Note_on_c, 5, 60, 70
7, 261580, Note_on_c, 5, 64, 70
7, 261634, Note_on_c, 5, 60, 0
7, 261820, Note_on_c, 5, 69, 70
7, 261864, Note_on_c, 5, 64, 0
7, 262060, Note_on_c, 5, 69, 0
7, 262300, Note_on_c, 5, 60, 70
7, 262540, Note_on_c, 5, 64, 70
7, 262589, Note_on_c, 5, 60, 0
7, 262780, Note_on_c, 5, 69, 70
7, 262829, Note_on_c, 5, 64, 0
7, 263020, Note_on_c, 5, 69, 0
7, 263500, Note_on_c, 5, 74, 70
7, 263980, Note_on_c, 5, 72, 70
7, 264029, Note_on_c, 5, 74, 0
7, 264460, Note_on_c, 5, 71, 70
7, 264509, Note_on_c, 5, 72, 0
7, 264899, Note_on_c, 5, 71, 0
7, 264940, Note_on_c, 5, 72, 70
7, 265132, Note_on_c, 5, 72, 0
7, 265420, Note_on_c, 5, 68, 70
7, 265612, Note_on_c, 5, 68, 0
7, 265900, Note_on_c, 5, 69, 70
7, 266092, Note_on_c, 5, 69, 0
7, 266860, Note_on_c, 5, 65, 70
7, 267580, Note_on_c, 5, 74, 70
7, 267629, Note_on_c, 5, 65, 0
7, 267764, Note_on_c, 5, 74, 0
7, 267820, Note_on_c, 5, 72, 70
7, 268300, Note_on_c, 5, 71, 70
7, 268379, Note_on_c, 5, 72, 0
7, 268734, Note_on_c, 5, 71, 0
7, 268780, Note_on_c, 5, 69, 105
7, 268876, Note_on_c, 5, 69, 0
7, 269020, Note_on_c, 5, 69, 105
7, 269116, Note_on_c, 5, 69, 0
7, 269500, Note_on_c, 5, 72, 70
7, 269740, Note_on_c, 5, 72, 0
7, 269980, Note_on_c, 5, 71, 70
7, 270220, Note_on_c, 5, 71, 0
7, 270460, Note_on_c, 5, 69, 70
7, 270700, Note_on_c, 5, 69, 0
7, 270700, Note_on_c, 5, 68, 105
7, 270796, Note_on_c, 5, 68, 0
7, 270940, Note_on_c, 5, 68, 105
7, 271036, Note_on_c, 5, 68, 0
7, 271420, Note_on_c, 5, 69, 70
7, 271660, Note_on_c, 5, 69, 0
7, 271900, Note_on_c, 5, 67, 70
7, 272140, Note_on_c, 5, 67, 0
7, 272380, Note_on_c, 5, 65, 70
7, 272620, Note_on_c, 5, 65, 0
7, 272620, Note_on_c, 5, 64, 105
7, 272716, Note_on_c, 5, 64, 0
7, 272860, Note_on_c, 5, 64, 105
7, 272956, Note_on_c, 5, 64, 0
7, 273340, Note_on_c, 5, 65, 70
7, 273580, Note_on_c, 5, 65, 0
7, 273820, Note_on_c, 5, 64, 70
7, 274060, Note_on_c, 5, 64, 0
7, 274300, Note_on_c, 5, 62, 70
7, 274540, Note_on_c, 5, 62, 0
7, 274780, Note_on_c, 5, 61, 70
7, 275020, Note_on_c, 5, 64, 70
7, 275069, Note_on_c, 5, 61, 0
7, 275260, Note_on_c, 5, 69, 70
7, 275304, Note_on_c, 5, 64, 0
7, 275500, Note_on_c, 5, 69, 0
7, 275740, Note_on_c, 5, 61, 70
7, 275980, Note_on_c, 5, 64, 70
7, 276044, Note_on_c, 5, 61, 0
7, 276220, Note_on_c, 5, 69, 70
7, 276279, Note_on_c, 5, 64, 0
7, 276460, Note_on_c, 5, 69, 0
7, 276700, Note_on_c, 5, 62, 70
7, 276940, Note_on_c, 5, 65, 70
7, 276989, Note_on_c, 5, 62, 0
7, 277180, Note_on_c, 5, 69, 70
7, 277229, Note_on_c, 5, 65, 0
7, 277420, Note_on_c, 5, 69, 0
7, 277660, Note_on_c, 5, 62, 70
7, 277900, Note_on_c, 5, 65, 70
7, 277949, Note_on_c, 5, 62, 0
7, 278140, Note_on_c, 5, 69, 70
7, 278204, Note_on_c, 5, 65, 0
7, 278380, Note_on_c, 5, 69, 0
7, 278620, Note_on_c, 5, 64, 70
7, 278860, Note_on_c, 5, 67, 70
7, 278909, Note_on_c, 5, 64, 0
7, 279100, Note_on_c, 5, 70, 70
7, 279149, Note_on_c, 5, 67, 0
7, 279340, Note_on_c, 5, 70, 0
7, 279580, Note_on_c, 5, 64, 70
7, 279820, Note_on_c, 5, 73, 70
7, 279884, Note_on_c, 5, 64, 0
7, 280060, Note_on_c, 5, 76, 70
7, 280109, Note_on_c, 5, 73, 0
7, 280300, Note_on_c, 5, 76, 0
7, 280540, Note_on_c, 5, 73, 70
7, 280664, Note_on_c, 5, 73, 0
7, 280780, Note_on_c, 5, 81, 70
7, 280894, Note_on_c, 5, 81, 0
7, 281020, Note_on_c, 5, 77, 70
7, 281124, Note_on_c, 5, 77, 0
7, 281260, Note_on_c, 5, 74, 70
7, 281389, Note_on_c, 5, 74, 0
7, 281500, Note_on_c, 5, 69, 70
7, 281629, Note_on_c, 5, 69, 0
7, 281740, Note_on_c, 5, 65, 70
7, 281889, Note_on_c, 5, 65, 0
7, 281980, Note_on_c, 5, 62, 70
7, 282104, Note_on_c, 5, 62, 0
7, 282700, Note_on_c, 5, 70, 70
7, 283180, Note_on_c, 5, 69, 70
7, 283244, Note_on_c, 5, 70, 0
7, 283660, Note_on_c, 5, 67, 70
7, 283719, Note_on_c, 5, 69, 0
7, 284079, Note_on_c, 5, 67, 0
7, 284140, Note_on_c, 5, 65, 70
7, 284332, Note_on_c, 5, 65, 0
7, 284620, Note_on_c, 5, 61, 70
7, 284812, Note_on_c, 5, 61, 0
7, 285100, Note_on_c, 5, 62, 70
7, 285292, Note_on_c, 5, 62, 0
7, 286060, Note_on_c, 5, 67, 70
7, 286780, Note_on_c, 5, 69, 74
7, 286819, Note_on_c, 5, 67, 0
7, 286900, Note_on_c, 5, 70, 72
7, 286939, Note_on_c, 5, 69, 0
7, 287020, Note_on_c, 5, 65, 69
7, 287069, Note_on_c, 5, 70, 0
7, 287434, Note_on_c, 5, 65, 0
7, 287500, Note_on_c, 5, 65, 80
7, 287528, Note_on_c, 5, 65, 0
7, 287528, Note_on_c, 5, 64, 82
7, 287560, Note_on_c, 5, 64, 0
7, 287560, Note_on_c, 5, 65, 82
7, 287588, Note_on_c, 5, 65, 0
7, 287588, Note_on_c, 5, 64, 84
7, 287620, Note_on_c, 5, 64, 0
7, 287620, Note_on_c, 5, 65, 84
7, 287648, Note_on_c, 5, 65, 0
7, 287648, Note_on_c, 5, 64, 83
7, 287680, Note_on_c, 5, 64, 0
7, 287680, Note_on_c, 5, 65, 77
7, 287708, Note_on_c, 5, 65, 0
7, 287708, Note_on_c, 5, 64, 77
7, 287740, Note_on_c, 5, 64, 0
7, 287740, Note_on_c, 5, 62, 75
7, 287860, Note_on_c, 5, 62, 0
7, 287860, Note_on_c, 5, 64, 75
7, 287980, Note_on_c, 5, 64, 0
7, 287980, Note_on_c, 5, 62, 76
7, 288460, Note_on_c, 5, 62, 0
7, 293740, Note_on_c, 5, 65, 70
7, 297580, Note_on_c, 5, 65, 0
7, 297580, Note_on_c, 5, 64, 105
7, 299500, Note_on_c, 5, 64, 0
7, 299500, Note_on_c, 5, 69, 105
7, 299980, Note_on_c, 5, 69, 0
7, 305260, Note_on_c, 5, 79, 70
7, 305980, Note_on_c, 5, 75, 70
7, 306054, Note_on_c, 5, 79, 0
7, 306220, Note_on_c, 5, 79, 70
7, 306279, Note_on_c, 5, 75, 0
7, 306389, Note_on_c, 5, 79, 0
7, 306700, Note_on_c, 5, 75, 70
7, 306814, Note_on_c, 5, 75, 0
7, 307180, Note_on_c, 5, 74, 70
7, 307660, Note_on_c, 5, 74, 0
7, 309100, Note_on_c, 5, 79, 70
7, 309820, Note_on_c, 5, 75, 70
7, 309904, Note_on_c, 5, 79, 0
7, 310060, Note_on_c, 5, 79, 70
7, 310139, Note_on_c, 5, 75, 0
7, 310249, Note_on_c, 5, 79, 0
7, 310540, Note_on_c, 5, 75, 70
7, 310636, Note_on_c, 5, 75, 0
7, 311020, Note_on_c, 5, 74, 70
7, 311500, Note_on_c, 5, 74, 0
7, 315100, Note_on_c, 5, 79, 70
7, 315340, Note_on_c, 5, 78, 70
7, 315409, Note_on_c, 5, 79, 0
7, 315580, Note_on_c, 5, 79, 70
7, 315639, Note_on_c, 5, 78, 0
7, 315764, Note_on_c, 5, 79, 0
7, 317020, Note_on_c, 5, 79, 70
7, 317260, Note_on_c, 5, 78, 70
7, 317304, Note_on_c, 5, 79, 0
7, 317500, Note_on_c, 5, 79, 70
7, 317564, Note_on_c, 5, 78, 0
7, 317689, Note_on_c, 5, 79, 0
7, 318940, Note_on_c, 5, 62, 70
7, 319180, Note_on_c, 5, 62, 0
7, 319180, Note_on_c, 5, 62, 70
7, 319420, Note_on_c, 5, 62, 0
7, 319420, Note_on_c, 5, 62, 70
7, 319660, Note_on_c, 5, 62, 0
7, 319900, Note_on_c, 5, 64, 70
7, 320140, Note_on_c, 5, 64, 0
7, 320140, Note_on_c, 5, 64, 70
7, 320380, Note_on_c, 5, 64, 0
7, 320380, Note_on_c, 5, 64, 70
7, 320620, Note_on_c, 5, 64, 0
7, 320860, Note_on_c, 5, 65, 80
7, 321100, Note_on_c, 5, 65, 0
7, 321100, Note_on_c, 5, 65, 80
7, 321340, Note_on_c, 5, 65, 0
7, 321340, Note_on_c, 5, 65, 80
7, 321580, Note_on_c, 5, 65, 0
7, 321820, Note_on_c, 5, 67, 90
7, 322060, Note_on_c, 5, 67, 0
7, 322060, Note_on_c, 5, 67, 90
7, 322300, Note_on_c, 5, 67, 0
7, 322300, Note_on_c, 5, 67, 90
7, 322540, Note_on_c, 5, 67, 0
7, 322780, Note_on_c, 5, 69, 105
7, 323020, Note_on_c, 5, 69, 0
7, 323020, Note_on_c, 5, 69, 105
7, 323260, Note_on_c, 5, 69, 0
7, 323260, Note_on_c, 5, 69, 105
7, 323500, Note_on_c, 5, 69, 0
7, 323740, Note_on_c, 5, 62, 105
7, 323740, Note_on_c, 5, 71, 105
7, 323980, Note_on_c, 5, 71, 0
7, 323980, Note_on_c, 5, 62, 0
7, 323980, Note_on_c, 5, 62, 105
7, 323980, Note_on_c, 5, 71, 105
7, 324220, Note_on_c, 5, 71, 0
7, 324220, Note_on_c, 5, 62, 0
7, 324220, Note_on_c, 5, 62, 105
7, 324220, Note_on_c, 5, 71, 105
7, 324389, Note_on_c, 5, 62, 0
7, 324399, Note_on_c, 5, 71, 0
7, 324400, Note_on_c, 5, 55, 105
7, 324430, Note_on_c, 5, 64, 105
7, 324460, Note_on_c, 5, 72, 105
7, 324539, Note_on_c, 5, 55, 0
7, 325142, Note_on_c, 5, 64, 0
7, 325144, Note_on_c, 5, 72, 0
7, 325180, Note_on_c, 5, 79, 105
7, 325408, Note_on_c, 5, 79, 0
7, 325420, Note_on_c, 5, 76, 105
7, 325648, Note_on_c, 5, 76, 0
7, 325660, Note_on_c, 5, 72, 105
7, 325888, Note_on_c, 5, 72, 0
7, 325900, Note_on_c, 5, 76, 105
7, 326128, Note_on_c, 5, 76, 0
7, 326140, Note_on_c, 5, 79, 105
7, 326368, Note_on_c, 5, 79, 0
7, 326380, Note_on_c, 5, 84, 105
7, 327064, Note_on_c, 5, 84, 0
7, 327100, Note_on_c, 5, 79, 105
7, 327328, Note_on_c, 5, 79, 0
7, 327340, Note_on_c, 5, 76, 105
7, 327568, Note_on_c, 5, 76, 0
7, 327580, Note_on_c, 5, 72, 105
7, 327808, Note_on_c, 5, 72, 0
7, 327820, Note_on_c, 5, 76, 105
7, 328048, Note_on_c, 5, 76, 0
7, 328060, Note_on_c, 5, 79, 105
7, 328288, Note_on_c, 5, 79, 0
7, 328300, Note_on_c, 5, 84, 105
7, 328780, Note_on_c, 5, 84, 0
7, 329020, Note_on_c, 5, 60, 70
7, 329260, Note_on_c, 5, 60, 0
7, 329500, Note_on_c, 5, 59, 70
7, 329740, Note_on_c, 5, 59, 0
7, 329980, Note_on_c, 5, 60, 70
7, 330220, Note_on_c, 5, 60, 0
7, 330220, Note_on_c, 5, 62, 105
7, 330316, Note_on_c, 5, 62, 0
7, 330460, Note_on_c, 5, 62, 105
7, 330556, Note_on_c, 5, 62, 0
7, 330940, Note_on_c, 5, 62, 70
7, 331180, Note_on_c, 5, 62, 0
7, 331420, Note_on_c, 5, 61, 70
7, 331660, Note_on_c, 5, 61, 0
7, 331900, Note_on_c, 5, 62, 70
7, 332140, Note_on_c, 5, 62, 0
7, 332140, Note_on_c, 5, 64, 105
7, 332236, Note_on_c, 5, 64, 0
7, 332380, Note_on_c, 5, 64, 105
7, 332476, Note_on_c, 5, 64, 0
7, 332860, Note_on_c, 5, 64, 70
7, 333100, Note_on_c, 5, 64, 0
7, 333340, Note_on_c, 5, 63, 70
7, 333580, Note_on_c, 5, 63, 0
7, 333820, Note_on_c, 5, 64, 70
7, 334060, Note_on_c, 5, 64, 0
7, 334300, Note_on_c, 5, 65, 80
7, 334540, Note_on_c, 5, 65, 0
7, 334780, Note_on_c, 5, 67, 80
7, 335020, Note_on_c, 5, 67, 0
7, 335260, Note_on_c, 5, 69, 90
7, 335500, Note_on_c, 5, 69, 0
7, 335740, Note_on_c, 5, 71, 90
7, 335980, Note_on_c, 5, 71, 0
7, 335980, Note_on_c, 5, 72, 105
7, 336460, Note_on_c, 5, 72, 0
7, 357340, Note_on_c, 5, 67, 70
7, 357436, Note_on_c, 5, 67, 0
7, 357580, Note_on_c, 5, 69, 72
7, 357676, Note_on_c, 5, 69, 0
7, 357820, Note_on_c, 5, 71, 74
7, 357916, Note_on_c, 5, 71, 0
7, 358060, Note_on_c, 5, 72, 76
7, 358156, Note_on_c, 5, 72, 0
7, 358300, Note_on_c, 5, 74, 78
7, 358396, Note_on_c, 5, 74, 0
7, 358540, Note_on_c, 5, 76, 80
7, 358636, Note_on_c, 5, 76, 0
7, 358780, Note_on_c, 5, 78, 82
7, 358876, Note_on_c, 5, 78, 0
7, 359020, Note_on_c, 5, 79, 85
7, 359214, Note_on_c, 5, 79, 0
7, 359260, Note_on_c, 5, 81, 111
7, 359288, Note_on_c, 5, 81, 0
7, 359288, Note_on_c, 5, 79, 111
7, 359320, Note_on_c, 5, 79, 0
7, 359320, Note_on_c, 5, 81, 113
7, 359348, Note_on_c, 5, 81, 0
7, 359348, Note_on_c, 5, 79, 113
7, 359380, Note_on_c, 5, 79, 0
7, 359380, Note_on_c, 5, 78, 111
7, 359440, Note_on_c, 5, 79, 111
7, 359464, Note_on_c, 5, 78, 0
7, 359500, Note_on_c, 5, 83, 116
7, 359539, Note_on_c, 5, 79, 0
7, 359740, Note_on_c, 5, 83, 0
7, 359740, Note_on_c, 5, 79, 105
7, 359836, Note_on_c, 5, 79, 0
7, 359980, Note_on_c, 5, 74, 105
7, 360076, Note_on_c, 5, 74, 0
7, 360220, Note_on_c, 5, 79, 105
7, 360316, Note_on_c, 5, 79, 0
7, 360460, Note_on_c, 5, 71, 105
7, 360556, Note_on_c, 5, 71, 0
7, 360700, Note_on_c, 5, 74, 105
7, 360796, Note_on_c, 5, 74, 0
7, 360940, Note_on_c, 5, 67, 105
7, 361180, Note_on_c, 5, 67, 0
7, 361180, Note_on_c, 5, 69, 113
7, 361240, Note_on_c, 5, 67, 116
7, 361262, Note_on_c, 5, 69, 0
7, 361300, Note_on_c, 5, 66, 113
7, 361322, Note_on_c, 5, 67, 0
7, 361360, Note_on_c, 5, 67, 111
7, 361382, Note_on_c, 5, 66, 0
7, 361420, Note_on_c, 5, 71, 112
7, 361442, Note_on_c, 5, 67, 0
7, 361660, Note_on_c, 5, 71, 0
7, 361660, Note_on_c, 5, 67, 105
7, 361756, Note_on_c, 5, 67, 0
7, 361900, Note_on_c, 5, 62, 105
7, 361996, Note_on_c, 5, 62, 0
7, 362140, Note_on_c, 5, 67, 105
7, 362236, Note_on_c, 5, 67, 0
7, 362380, Note_on_c, 5, 59, 105
7, 362476, Note_on_c, 5, 59, 0
7, 362620, Note_on_c, 5, 62, 105
7, 362716, Note_on_c, 5, 62, 0
7, 362860, Note_on_c, 5, 55, 105
7, 363340, Note_on_c, 5, 55, 0
7, 378460, Note_on_c, 5, 76, 70
7, 378700, Note_on_c, 5, 76, 0
7, 378700, Note_on_c, 5, 76, 70
7, 378940, Note_on_c, 5, 76, 0
7, 378940, Note_on_c, 5, 76, 70
7, 379180, Note_on_c, 5, 76, 0
7, 379180, Note_on_c, 5, 76, 70
7, 379420, Note_on_c, 5, 76, 0
7, 379420, Note_on_c, 5, 76, 70
7, 379624, Note_on_c, 5, 76, 0
7, 379660, Note_on_c, 5, 74, 70
7, 379900, Note_on_c, 5, 71, 70
7, 379959, Note_on_c, 5, 74, 0
7, 380064, Note_on_c, 5, 71, 0
7, 380140, Note_on_c, 5, 69, 70
7, 380380, Note_on_c, 5, 69, 0
7, 380380, Note_on_c, 5, 72, 70
7, 380620, Note_on_c, 5, 72, 0
7, 380620, Note_on_c, 5, 72, 70
7, 380860, Note_on_c, 5, 72, 0
7, 380860, Note_on_c, 5, 72, 70
7, 381100, Note_on_c, 5, 72, 0
7, 381100, Note_on_c, 5, 72, 70
7, 381340, Note_on_c, 5, 72, 0
7, 381340, Note_on_c, 5, 72, 70
7, 381549, Note_on_c, 5, 72, 0
7, 381580, Note_on_c, 5, 70, 70
7, 381820, Note_on_c, 5, 67, 70
7, 381884, Note_on_c, 5, 70, 0
7, 382009, Note_on_c, 5, 67, 0
7, 382060, Note_on_c, 5, 65, 70
7, 382300, Note_on_c, 5, 65, 0
7, 382300, Note_on_c, 5, 69, 70
7, 382540, Note_on_c, 5, 69, 0
7, 382540, Note_on_c, 5, 69, 70
7, 382780, Note_on_c, 5, 69, 0
7, 382780, Note_on_c, 5, 69, 70
7, 383020, Note_on_c, 5, 69, 0
7, 383020, Note_on_c, 5, 69, 70
7, 383260, Note_on_c, 5, 69, 0
7, 383260, Note_on_c, 5, 69, 70
7, 383459, Note_on_c, 5, 69, 0
7, 383500, Note_on_c, 5, 67, 70
7, 383740, Note_on_c, 5, 64, 70
7, 383799, Note_on_c, 5, 67, 0
7, 383939, Note_on_c, 5, 64, 0
7, 383980, Note_on_c, 5, 62, 70
7, 384460, Note_on_c, 5, 61, 70
7, 384539, Note_on_c, 5, 62, 0
7, 384874, Note_on_c, 5, 61, 0
7, 384940, Note_on_c, 5, 69, 70
7, 385420, Note_on_c, 5, 62, 70
7, 385494, Note_on_c, 5, 69, 0
7, 385834, Note_on_c, 5, 62, 0
7, 385900, Note_on_c, 5, 77, 70
7, 386380, Note_on_c, 5, 74, 70
7, 386449, Note_on_c, 5, 77, 0
7, 386554, Note_on_c, 5, 74, 0
7, 386860, Note_on_c, 5, 74, 70
7, 387340, Note_on_c, 5, 71, 70
7, 387404, Note_on_c, 5, 74, 0
7, 387514, Note_on_c, 5, 71, 0
7, 387820, Note_on_c, 5, 71, 70
7, 388300, Note_on_c, 5, 67, 70
7, 388379, Note_on_c, 5, 71, 0
7, 388474, Note_on_c, 5, 67, 0
7, 388780, Note_on_c, 5, 65, 70
7, 389260, Note_on_c, 5, 62, 70
7, 389334, Note_on_c, 5, 65, 0
7, 389419, Note_on_c, 5, 62, 0
7, 389740, Note_on_c, 5, 64, 77
7, 390154, Note_on_c, 5, 64, 0
7, 390220, Note_on_c, 5, 65, 81
7, 390248, Note_on_c, 5, 65, 0
7, 390248, Note_on_c, 5, 64, 81
7, 390280, Note_on_c, 5, 64, 0
7, 390280, Note_on_c, 5, 65, 83
7, 390308, Note_on_c, 5, 65, 0
7, 390308, Note_on_c, 5, 64, 85
7, 390340, Note_on_c, 5, 62, 81
7, 390382, Note_on_c, 5, 64, 0
7, 390460, Note_on_c, 5, 64, 78
7, 390499, Note_on_c, 5, 62, 0
7, 390580, Note_on_c, 5, 65, 78
7, 390629, Note_on_c, 5, 64, 0
7, 390700, Note_on_c, 5, 67, 79
7, 390744, Note_on_c, 5, 65, 0
7, 391180, Note_on_c, 5, 67, 0
7, 391660, Note_on_c, 5, 76, 78
7, 392064, Note_on_c, 5, 76, 0
7, 392140, Note_on_c, 5, 77, 89
7, 392168, Note_on_c, 5, 77, 0
7, 392168, Note_on_c, 5, 76, 89
7, 392200, Note_on_c, 5, 76, 0
7, 392200, Note_on_c, 5, 77, 91
7, 392228, Note_on_c, 5, 77, 0
7, 392228, Note_on_c, 5, 76, 93
7, 392260, Note_on_c, 5, 74, 89
7, 392312, Note_on_c, 5, 76, 0
7, 392380, Note_on_c, 5, 76, 82
7, 392419, Note_on_c, 5, 74, 0
7, 392500, Note_on_c, 5, 77, 82
7, 392544, Note_on_c, 5, 76, 0
7, 392620, Note_on_c, 5, 79, 88
7, 392659, Note_on_c, 5, 77, 0
7, 393100, Note_on_c, 5, 79, 0
7, 393580, Note_on_c, 5, 77, 70
7, 394060, Note_on_c, 5, 74, 70
7, 394124, Note_on_c, 5, 77, 0
7, 394229, Note_on_c, 5, 74, 0
7, 394540, Note_on_c, 5, 74, 70
7, 395020, Note_on_c, 5, 71, 70
7, 395099, Note_on_c, 5, 74, 0
7, 395199, Note_on_c, 5, 71, 0
7, 395500, Note_on_c, 5, 71, 70
7, 395980, Note_on_c, 5, 67, 70
7, 396064, Note_on_c, 5, 71, 0
7, 396149, Note_on_c, 5, 67, 0
7, 396460, Note_on_c, 5, 65, 70
7, 396940, Note_on_c, 5, 62, 70
7, 397009, Note_on_c, 5, 65, 0
7, 397114, Note_on_c, 5, 62, 0
7, 397420, Note_on_c, 5, 64, 82
7, 397829, Note_on_c, 5, 64, 0
7, 397900, Note_on_c, 5, 65, 85
7, 397928, Note_on_c, 5, 65, 0
7, 397928, Note_on_c, 5, 64, 85
7, 397960, Note_on_c, 5, 64, 0
7, 397960, Note_on_c, 5, 65, 86
7, 397988, Note_on_c, 5, 65, 0
7, 397988, Note_on_c, 5, 64, 84
7, 398020, Note_on_c, 5, 62, 84
7, 398072, Note_on_c, 5, 64, 0
7, 398140, Note_on_c, 5, 64, 83
7, 398184, Note_on_c, 5, 62, 0
7, 398260, Note_on_c, 5, 65, 86
7, 398309, Note_on_c, 5, 64, 0
7, 398380, Note_on_c, 5, 67, 93
7, 398439, Note_on_c, 5, 65, 0
7, 398860, Note_on_c, 5, 67, 0
7, 399340, Note_on_c, 5, 76, 79
7, 399764, Note_on_c, 5, 76, 0
7, 399820, Note_on_c, 5, 77, 86
7, 399848, Note_on_c, 5, 77, 0
7, 399848, Note_on_c, 5, 76, 87
7, 399880, Note_on_c, 5, 76, 0
7, 399880, Note_on_c, 5, 77, 87
7, 399908, Note_on_c, 5, 77, 0
7, 399908, Note_on_c, 5, 76, 86
7, 399940, Note_on_c, 5, 74, 83
7, 400007, Note_on_c, 5, 76, 0
7, 400060, Note_on_c, 5, 76, 83
7, 400089, Note_on_c, 5, 74, 0
7, 400180, Note_on_c, 5, 77, 85
7, 400219, Note_on_c, 5, 76, 0
7, 400300, Note_on_c, 5, 79, 90
7, 400339, Note_on_c, 5, 77, 0
7, 400780, Note_on_c, 5, 79, 0
7, 401260, Note_on_c, 5, 55, 103
7, 401260, Note_on_c, 5, 67, 103
7, 401740, Note_on_c, 5, 67, 0
7, 401740, Note_on_c, 5, 55, 0
7, 401980, Note_on_c, 5, 74, 103
7, 401980, Note_on_c, 5, 83, 103
7, 402220, Note_on_c, 5, 83, 0
7, 402220, Note_on_c, 5, 74, 0
7, 402220, Note_on_c, 5, 76, 103
7, 402220, Note_on_c, 5, 84, 103
7, 402460, Note_on_c, 5, 84, 0
7, 402460, Note_on_c, 5, 76, 0
7, 402460, Note_on_c, 5, 76, 103
7, 402460, Note_on_c, 5, 84, 103
7, 402700, Note_on_c, 5, 84, 0
7, 402700, Note_on_c, 5, 76, 0
7, 402700, Note_on_c, 5, 76, 103
7, 402700, Note_on_c, 5, 84, 103
7, 402940, Note_on_c, 5, 84, 0
7, 402940, Note_on_c, 5, 76, 0
7, 402940, Note_on_c, 5, 76, 103
7, 402940, Note_on_c, 5, 84, 103
7, 403180, Note_on_c, 5, 84, 0
7, 403180, Note_on_c, 5, 76, 0
7, 403180, Note_on_c, 5, 74, 103
7, 403180, Note_on_c, 5, 83, 103
7, 403660, Note_on_c, 5, 83, 0
7, 403660, Note_on_c, 5, 74, 0
7, 403900, Note_on_c, 5, 74, 104
7, 403900, Note_on_c, 5, 83, 104
7, 404140, Note_on_c, 5, 83, 0
7, 404140, Note_on_c, 5, 74, 0
7, 404140, Note_on_c, 5, 76, 104
7, 404140, Note_on_c, 5, 84, 104
7, 404380, Note_on_c, 5, 84, 0
7, 404380, Note_on_c, 5, 76, 0
7, 404380, Note_on_c, 5, 76, 104
7, 404380, Note_on_c, 5, 84, 104
7, 404620, Note_on_c, 5, 84, 0
7, 404620, Note_on_c, 5, 76, 0
7, 404620, Note_on_c, 5, 76, 104
7, 404620, Note_on_c, 5, 84, 104
7, 404860, Note_on_c, 5, 84, 0
7, 404860, Note_on_c, 5, 76, 0
7, 404860, Note_on_c, 5, 76, 104
7, 404860, Note_on_c, 5, 84, 104
7, 405100, Note_on_c, 5, 84, 0
7, 405100, Note_on_c, 5, 76, 0
7, 405100, Note_on_c, 5, 74, 104
7, 405100, Note_on_c, 5, 83, 104
7, 405429, Note_on_c, 5, 74, 0
7, 405520, Note_on_c, 5, 62, 104
7, 405580, Note_on_c, 5, 83, 0
7, 405580, Note_on_c, 5, 79, 104
7, 405674, Note_on_c, 5, 62, 0
7, 406060, Note_on_c, 5, 79, 0
7, 406060, Note_on_c, 5, 55, 104
7, 406540, Note_on_c, 5, 55, 0
7, 407020, Note_on_c, 5, 64, 70
7, 407260, Note_on_c, 5, 60, 70
7, 407320, Note_on_c, 5, 64, 0
7, 407500, Note_on_c, 5, 64, 70
7, 407560, Note_on_c, 5, 60, 0
7, 407740, Note_on_c, 5, 60, 70
7, 407800, Note_on_c, 5, 64, 0
7, 407980, Note_on_c, 5, 64, 70
7, 408040, Note_on_c, 5, 60, 0
7, 408220, Note_on_c, 5, 60, 70
7, 408280, Note_on_c, 5, 64, 0
7, 408460, Note_on_c, 5, 64, 70
7, 408520, Note_on_c, 5, 60, 0
7, 408700, Note_on_c, 5, 60, 70
7, 408760, Note_on_c, 5, 64, 0
7, 408869, Note_on_c, 5, 60, 0
7, 408940, Note_on_c, 5, 65, 70
7, 409180, Note_on_c, 5, 62, 70
7, 409240, Note_on_c, 5, 65, 0
7, 409420, Note_on_c, 5, 65, 70
7, 409480, Note_on_c, 5, 62, 0
7, 409660, Note_on_c, 5, 62, 70
7, 409720, Note_on_c, 5, 65, 0
7, 409900, Note_on_c, 5, 65, 70
7, 409960, Note_on_c, 5, 62, 0
7, 410140, Note_on_c, 5, 62, 70
7, 410200, Note_on_c, 5, 65, 0
7, 410380, Note_on_c, 5, 65, 70
7, 410440, Note_on_c, 5, 62, 0
7, 410620, Note_on_c, 5, 62, 70
7, 410680, Note_on_c, 5, 65, 0
7, 410789, Note_on_c, 5, 62, 0
7, 410860, Note_on_c, 5, 64, 70
7, 411340, Note_on_c, 5, 64, 0
7, 411820, Note_on_c, 5, 67, 68
7, 411916, Note_on_c, 5, 67, 0
7, 412060, Note_on_c, 5, 69, 71
7, 412156, Note_on_c, 5, 69, 0
7, 412300, Note_on_c, 5, 71, 74
7, 412396, Note_on_c, 5, 71, 0
7, 412540, Note_on_c, 5, 72, 76
7, 412636, Note_on_c, 5, 72, 0
7, 412780, Note_on_c, 5, 72, 79
7, 413020, Note_on_c, 5, 71, 75
7, 413089, Note_on_c, 5, 72, 0
7, 413260, Note_on_c, 5, 69, 75
7, 413314, Note_on_c, 5, 71, 0
7, 413500, Note_on_c, 5, 67, 75
7, 413564, Note_on_c, 5, 69, 0
7, 413679, Note_on_c, 5, 67, 0
7, 413740, Note_on_c, 5, 67, 78
7, 413860, Note_on_c, 5, 67, 0
7, 413860, Note_on_c, 5, 65, 81
7, 413980, Note_on_c, 5, 65, 0
7, 413980, Note_on_c, 5, 64, 80
7, 414100, Note_on_c, 5, 64, 0
7, 414100, Note_on_c, 5, 65, 73
7, 414220, Note_on_c, 5, 65, 0
7, 414220, Note_on_c, 5, 69, 76
7, 414460, Note_on_c, 5, 69, 0
7, 414460, Note_on_c, 5, 65, 76
7, 414700, Note_on_c, 5, 65, 0
7, 414700, Note_on_c, 5, 63, 72
7, 414940, Note_on_c, 5, 64, 68
7, 414994, Note_on_c, 5, 63, 0
7, 415129, Note_on_c, 5, 64, 0
7, 415420, Note_on_c, 5, 64, 68
7, 415464, Note_on_c, 5, 64, 0
7, 415540, Note_on_c, 5, 65, 69
7, 415584, Note_on_c, 5, 65, 0
7, 415660, Note_on_c, 5, 67, 70
7, 415756, Note_on_c, 5, 67, 0
7, 415900, Note_on_c, 5, 69, 72
7, 415996, Note_on_c, 5, 69, 0
7, 416140, Note_on_c, 5, 71, 74
7, 416236, Note_on_c, 5, 71, 0
7, 416380, Note_on_c, 5, 72, 76
7, 416476, Note_on_c, 5, 72, 0
7, 416620, Note_on_c, 5, 72, 78
7, 416860, Note_on_c, 5, 71, 79
7, 416914, Note_on_c, 5, 72, 0
7, 417100, Note_on_c, 5, 69, 79
7, 417139, Note_on_c, 5, 71, 0
7, 417340, Note_on_c, 5, 67, 79
7, 417394, Note_on_c, 5, 69, 0
7, 417524, Note_on_c, 5, 67, 0
7, 417580, Note_on_c, 5, 67, 87
7, 417700, Note_on_c, 5, 67, 0
7, 417700, Note_on_c, 5, 65, 89
7, 417820, Note_on_c, 5, 65, 0
7, 417820, Note_on_c, 5, 64, 88
7, 417940, Note_on_c, 5, 64, 0
7, 417940, Note_on_c, 5, 65, 83
7, 418029, Note_on_c, 5, 65, 0
7, 418060, Note_on_c, 5, 69, 83
7, 418299, Note_on_c, 5, 69, 0
7, 418300, Note_on_c, 5, 65, 77
7, 418540, Note_on_c, 5, 64, 73
7, 418554, Note_on_c, 5, 65, 0
7, 418744, Note_on_c, 5, 64, 0
7, 418780, Note_on_c, 5, 72, 68
7, 419260, Note_on_c, 5, 70, 70
7, 419349, Note_on_c, 5, 72, 0
7, 419740, Note_on_c, 5, 69, 70
7, 419804, Note_on_c, 5, 70, 0
7, 420220, Note_on_c, 5, 67, 70
7, 420289, Note_on_c, 5, 69, 0
7, 420609, Note_on_c, 5, 67, 0
7, 420700, Note_on_c, 5, 65, 70
7, 421180, Note_on_c, 5, 72, 70
7, 421229, Note_on_c, 5, 65, 0
7, 421660, Note_on_c, 5, 70, 70
7, 421729, Note_on_c, 5, 72, 0
7, 422140, Note_on_c, 5, 69, 70
7, 422224, Note_on_c, 5, 70, 0
7, 422569, Note_on_c, 5, 69, 0
7, 422620, Note_on_c, 5, 67, 70
7, 423100, Note_on_c, 5, 72, 70
7, 423169, Note_on_c, 5, 67, 0
7, 423580, Note_on_c, 5, 70, 70
7, 423634, Note_on_c, 5, 72, 0
7, 424060, Note_on_c, 5, 68, 67
7, 424149, Note_on_c, 5, 70, 0
7, 424254, Note_on_c, 5, 68, 0
7, 424300, Note_on_c, 5, 69, 68
7, 424396, Note_on_c, 5, 69, 0
7, 424540, Note_on_c, 5, 72, 70
7, 424636, Note_on_c, 5, 72, 0
7, 424780, Note_on_c, 5, 77, 71
7, 424876, Note_on_c, 5, 77, 0
7, 425020, Note_on_c, 5, 81, 73
7, 425116, Note_on_c, 5, 81, 0
7, 425260, Note_on_c, 5, 79, 74
7, 425740, Note_on_c, 5, 79, 0
7, 426220, Note_on_c, 5, 69, 66
7, 426316, Note_on_c, 5, 69, 0
7, 426460, Note_on_c, 5, 72, 69
7, 426556, Note_on_c, 5, 72, 0
7, 426700, Note_on_c, 5, 77, 72
7, 426796, Note_on_c, 5, 77, 0
7, 426940, Note_on_c, 5, 81, 74
7, 427036, Note_on_c, 5, 81, 0
7, 427180, Note_on_c, 5, 79, 77
7, 427660, Note_on_c, 5, 79, 0
7, 428620, Note_on_c, 5, 69, 70
7, 428620, Note_on_c, 5, 77, 70
7, 429100, Note_on_c, 5, 77, 0
7, 429100, Note_on_c, 5, 69, 0
7, 429580, Note_on_c, 5, 67, 70
7, 429580, Note_on_c, 5, 77, 70
7, 430060, Note_on_c, 5, 77, 0
7, 430060, Note_on_c, 5, 67, 0
7, 430540, Note_on_c, 5, 67, 70
7, 430540, Note_on_c, 5, 76, 70
7, 431020, Note_on_c, 5, 76, 0
7, 431020, Note_on_c, 5, 67, 0
7, 431500, Note_on_c, 5, 69, 70
7, 431500, Note_on_c, 5, 76, 70
7, 431980, Note_on_c, 5, 76, 0
7, 431980, Note_on_c, 5, 69, 0
7, 431980, Note_on_c, 5, 74, 70
7, 432700, Note_on_c, 5, 77, 78
7, 432749, Note_on_c, 5, 74, 0
7, 432889, Note_on_c, 5, 77, 0
7, 432940, Note_on_c, 5, 76, 76
7, 433036, Note_on_c, 5, 76, 0
7, 433180, Note_on_c, 5, 74, 73
7, 433276, Note_on_c, 5, 74, 0
7, 433420, Note_on_c, 5, 72, 70
7, 433516, Note_on_c, 5, 72, 0
7, 433660, Note_on_c, 5, 71, 68
7, 433756, Note_on_c, 5, 71, 0
7, 433900, Note_on_c, 5, 72, 68
7, 433996, Note_on_c, 5, 72, 0
7, 434140, Note_on_c, 5, 74, 71
7, 434236, Note_on_c, 5, 74, 0
7, 434380, Note_on_c, 5, 76, 73
7, 434476, Note_on_c, 5, 76, 0
7, 434620, Note_on_c, 5, 77, 76
7, 434716, Note_on_c, 5, 77, 0
7, 434860, Note_on_c, 5, 79, 78
7, 435340, Note_on_c, 5, 79, 0
7, 439660, Note_on_c, 5, 69, 79
7, 440620, Note_on_c, 5, 67, 79
7, 440669, Note_on_c, 5, 69, 0
7, 440716, Note_on_c, 5, 67, 0
7, 440860, Note_on_c, 5, 65, 77
7, 440956, Note_on_c, 5, 65, 0
7, 441100, Note_on_c, 5, 64, 75
7, 441196, Note_on_c, 5, 64, 0
7, 441340, Note_on_c, 5, 62, 73
7, 441436, Note_on_c, 5, 62, 0
7, 441580, Note_on_c, 5, 60, 71
7, 442060, Note_on_c, 5, 60, 0
7, 449260, Control_c, 5, 0, 0
7, 449260, Control_c, 5, 32, 0
7, 449260, Program_c, 5, 45
7, 450220, Note_on_c, 5, 84, 70
7, 450460, Note_on_c, 5, 84, 0
7, 450700, Note_on_c, 5, 83, 70
7, 450940, Note_on_c, 5, 83, 0
7, 451180, Note_on_c, 5, 84, 70
7, 451660, Note_on_c, 5, 84, 0
7, 452140, Note_on_c, 5, 84, 70
7, 452380, Note_on_c, 5, 84, 0
7, 452380, Note_on_c, 5, 84, 70
7, 452620, Note_on_c, 5, 84, 0
7, 452620, Note_on_c, 5, 83, 70
7, 452860, Note_on_c, 5, 83, 0
7, 452860, Note_on_c, 5, 83, 70
7, 453100, Note_on_c, 5, 83, 0
7, 453100, Note_on_c, 5, 84, 70
7, 453580, Note_on_c, 5, 84, 0
7, 454060, Note_on_c, 5, 84, 70
7, 454300, Note_on_c, 5, 84, 0
7, 454540, Note_on_c, 5, 83, 70
7, 454780, Note_on_c, 5, 83, 0
7, 455020, Note_on_c, 5, 84, 70
7, 455260, Note_on_c, 5, 84, 0
7, 455500, Note_on_c, 5, 79, 70
7, 455740, Note_on_c, 5, 79, 0
7, 455980, Note_on_c, 5, 84, 70
7, 456220, Note_on_c, 5, 84, 0
7, 456460, Note_on_c, 5, 79, 70
7, 456700, Note_on_c, 5, 79, 0
7, 456940, Note_on_c, 5, 64, 70
7, 456940, Note_on_c, 5, 72, 70
7, 456940, Note_on_c, 5, 79, 70
7, 457420, Note_on_c, 5, 79, 0
7, 457420, Note_on_c, 5, 72, 0
7, 457420, Note_on_c, 5, 64, 0
7, 457900, Note_on_c, 5, 65, 70
7, 457900, Note_on_c, 5, 72, 70
7, 457900, Note_on_c, 5, 81, 70
7, 458380, Note_on_c, 5, 81, 0
7, 458380, Note_on_c, 5, 72, 0
7, 458380, Note_on_c, 5, 65, 0
7, 458860, Note_on_c, 5, 79, 70
7, 459100, Note_on_c, 5, 79, 0
7, 459340, Note_on_c, 5, 76, 70
7, 459580, Note_on_c, 5, 76, 0
7, 459820, Note_on_c, 5, 74, 70
7, 460060, Note_on_c, 5, 74, 0
7, 460300, Note_on_c, 5, 77, 70
7, 460540, Note_on_c, 5, 77, 0
7, 460780, Control_c, 5, 0, 0
7, 460780, Control_c, 5, 0, 0
7, 460780, Control_c, 5, 0, 0
7, 460780, Control_c, 5, 0, 0
7, 460780, Control_c, 5, 0, 0
7, 460780, Control_c, 5, 0, 0
7, 460780, Control_c, 5, 0, 0
7, 460780, Control_c, 5, 0, 0
7, 460780, Control_c, 5, 0, 0
7, 460780, Control_c, 5, 0, 0
7, 460780, Control_c, 5, 0, 0
7, 460780, Control_c, 5, 0, 0
7, 460780, Control_c, 5, 0, 0
7, 460780, Control_c, 5, 32, 0
7, 460780, Program_c, 5, 48
7, 462940, Note_on_c, 5, 76, 70
7, 463108, Note_on_c, 5, 76, 0
7, 463180, Note_on_c, 5, 76, 70
7, 463348, Note_on_c, 5, 76, 0
7, 463420, Note_on_c, 5, 76, 70
7, 463588, Note_on_c, 5, 76, 0
7, 463660, Note_on_c, 5, 76, 70
7, 463828, Note_on_c, 5, 76, 0
7, 463900, Note_on_c, 5, 76, 70
7, 464068, Note_on_c, 5, 76, 0
7, 464140, Note_on_c, 5, 76, 70
7, 464308, Note_on_c, 5, 76, 0
7, 464380, Note_on_c, 5, 76, 70
7, 464548, Note_on_c, 5, 76, 0
7, 464620, Note_on_c, 5, 74, 71
7, 464740, Note_on_c, 5, 74, 0
7, 464740, Note_on_c, 5, 74, 73
7, 464860, Note_on_c, 5, 74, 0
7, 464860, Note_on_c, 5, 74, 75
7, 464980, Note_on_c, 5, 74, 0
7, 464980, Note_on_c, 5, 74, 77
7, 465100, Note_on_c, 5, 74, 0
7, 465100, Note_on_c, 5, 74, 79
7, 465220, Note_on_c, 5, 74, 0
7, 465220, Note_on_c, 5, 74, 81
7, 465340, Note_on_c, 5, 74, 0
7, 465340, Note_on_c, 5, 74, 82
7, 465460, Note_on_c, 5, 74, 0
7, 465460, Note_on_c, 5, 74, 84
7, 465580, Note_on_c, 5, 74, 0
7, 465580, Note_on_c, 5, 77, 86
7, 465700, Note_on_c, 5, 77, 0
7, 465700, Note_on_c, 5, 77, 88
7, 465820, Note_on_c, 5, 77, 0
7, 465820, Note_on_c, 5, 77, 90
7, 465940, Note_on_c, 5, 77, 0
7, 465940, Note_on_c, 5, 77, 92
7, 466060, Note_on_c, 5, 77, 0
7, 466060, Note_on_c, 5, 83, 94
7, 466180, Note_on_c, 5, 83, 0
7, 466180, Note_on_c, 5, 83, 96
7, 466300, Note_on_c, 5, 83, 0
7, 466300, Note_on_c, 5, 83, 98
7, 466420, Note_on_c, 5, 83, 0
7, 466420, Note_on_c, 5, 83, 100
7, 466540, Note_on_c, 5, 83, 0
7, 466540, Note_on_c, 5, 76, 102
7, 466540, Note_on_c, 5, 84, 102
7, 467224, Note_on_c, 5, 84, 0
7, 467224, Note_on_c, 5, 76, 0
7, 467260, Note_on_c, 5, 79, 105
7, 467488, Note_on_c, 5, 79, 0
7, 467500, Note_on_c, 5, 76, 105
7, 467728, Note_on_c, 5, 76, 0
7, 467740, Note_on_c, 5, 72, 105
7, 467968, Note_on_c, 5, 72, 0
7, 467980, Note_on_c, 5, 76, 105
7, 468208, Note_on_c, 5, 76, 0
7, 468220, Note_on_c, 5, 79, 105
7, 468448, Note_on_c, 5, 79, 0
7, 468460, Note_on_c, 5, 84, 105
7, 469144, Note_on_c, 5, 84, 0
7, 469180, Note_on_c, 5, 79, 105
7, 469408, Note_on_c, 5, 79, 0
7, 469420, Note_on_c, 5, 76, 105
7, 469648, Note_on_c, 5, 76, 0
7, 469660, Note_on_c, 5, 72, 105
7, 469888, Note_on_c, 5, 72, 0
7, 469900, Note_on_c, 5, 76, 105
7, 470128, Note_on_c, 5, 76, 0
7, 470140, Note_on_c, 5, 79, 105
7, 470368, Note_on_c, 5, 79, 0
7, 470380, Note_on_c, 5, 84, 105
7, 471100, Note_on_c, 5, 84, 0
7, 471100, Note_on_c, 5, 83, 105
7, 471340, Note_on_c, 5, 83, 0
7, 471340, Note_on_c, 5, 81, 105
7, 472060, Note_on_c, 5, 81, 0
7, 472060, Note_on_c, 5, 79, 105
7, 472300, Note_on_c, 5, 79, 0
7, 472300, Note_on_c, 5, 77, 105
7, 473020, Note_on_c, 5, 77, 0
7, 473020, Note_on_c, 5, 76, 105
7, 473260, Note_on_c, 5, 76, 0
7, 473260, Note_on_c, 5, 74, 105
7, 473980, Note_on_c, 5, 74, 0
7, 473980, Note_on_c, 5, 73, 105
7, 474220, Note_on_c, 5, 73, 0
7, 474220, Note_on_c, 5, 74, 106
7, 474340, Note_on_c, 5, 74, 0
7, 474340, Note_on_c, 5, 77, 107
7, 474460, Note_on_c, 5, 77, 0
7, 474460, Note_on_c, 5, 76, 107
7, 474580, Note_on_c, 5, 76, 0
7, 474580, Note_on_c, 5, 79, 109
7, 474700, Note_on_c, 5, 79, 0
7, 474700, Note_on_c, 5, 77, 111
7, 474820, Note_on_c, 5, 77, 0
7, 474820, Note_on_c, 5, 81, 111
7, 474940, Note_on_c, 5, 81, 0
7, 474940, Note_on_c, 5, 79, 110
7, 475060, Note_on_c, 5, 79, 0
7, 475060, Note_on_c, 5, 82, 108
7, 475180, Note_on_c, 5, 82, 0
7, 475180, Note_on_c, 5, 81, 107
7, 475300, Note_on_c, 5, 81, 0
7, 475300, Note_on_c, 5, 79, 105
7, 475420, Note_on_c, 5, 79, 0
7, 475420, Note_on_c, 5, 77, 105
7, 475540, Note_on_c, 5, 77, 0
7, 475540, Note_on_c, 5, 76, 103
7, 475660, Note_on_c, 5, 76, 0
7, 475660, Note_on_c, 5, 74, 103
7, 475780, Note_on_c, 5, 74, 0
7, 475780, Note_on_c, 5, 72, 103
7, 475900, Note_on_c, 5, 72, 0
7, 475900, Note_on_c, 5, 71, 104
7, 476020, Note_on_c, 5, 71, 0
7, 476020, Note_on_c, 5, 72, 106
7, 476140, Note_on_c, 5, 72, 0
7, 476140, Note_on_c, 5, 71, 109
7, 476140, Note_on_c, 5, 79, 109
7, 476620, Note_on_c, 5, 79, 0
7, 476620, Note_on_c, 5, 71, 0
7, 476860, Note_on_c, 5, 74, 105
7, 476860, Note_on_c, 5, 83, 105
7, 477028, Note_on_c, 5, 83, 0
7, 477028, Note_on_c, 5, 74, 0
7, 477100, Note_on_c, 5, 76, 105
7, 477100, Note_on_c, 5, 84, 105
7, 477268, Note_on_c, 5, 84, 0
7, 477268, Note_on_c, 5, 76, 0
7, 477340, Note_on_c, 5, 76, 105
7, 477340, Note_on_c, 5, 84, 105
7, 477508, Note_on_c, 5, 84, 0
7, 477508, Note_on_c, 5, 76, 0
7, 477580, Note_on_c, 5, 76, 105
7, 477580, Note_on_c, 5, 84, 105
7, 477748, Note_on_c, 5, 84, 0
7, 477748, Note_on_c, 5, 76, 0
7, 477820, Note_on_c, 5, 76, 105
7, 477820, Note_on_c, 5, 84, 105
7, 477988, Note_on_c, 5, 84, 0
7, 477988, Note_on_c, 5, 76, 0
7, 478060, Note_on_c, 5, 74, 105
7, 478060, Note_on_c, 5, 83, 105
7, 478540, Note_on_c, 5, 83, 0
7, 478540, Note_on_c, 5, 74, 0
7, 478780, Note_on_c, 5, 74, 105
7, 478780, Note_on_c, 5, 83, 105
7, 478948, Note_on_c, 5, 83, 0
7, 478948, Note_on_c, 5, 74, 0
7, 479020, Note_on_c, 5, 76, 105
7, 479020, Note_on_c, 5, 84, 105
7, 479188, Note_on_c, 5, 84, 0
7, 479188, Note_on_c, 5, 76, 0
7, 479260, Note_on_c, 5, 76, 105
7, 479260, Note_on_c, 5, 84, 105
7, 479428, Note_on_c, 5, 84, 0
7, 479428, Note_on_c, 5, 76, 0
7, 479500, Note_on_c, 5, 76, 105
7, 479500, Note_on_c, 5, 84, 105
7, 479668, Note_on_c, 5, 84, 0
7, 479668, Note_on_c, 5, 76, 0
7, 479740, Note_on_c, 5, 76, 105
7, 479740, Note_on_c, 5, 84, 105
7, 479908, Note_on_c, 5, 84, 0
7, 479908, Note_on_c, 5, 76, 0
7, 479980, Note_on_c, 5, 55, 120
7, 480460, Note_on_c, 5, 55, 0
7, 481875, Note_on_c, 5, 55, 105
7, 481900, Note_on_c, 5, 72, 105
7, 481969, Note_on_c, 5, 55, 0
7, 482380, Note_on_c, 5, 72, 0
7, 482380, Note_on_c, 5, 84, 105
7, 482476, Note_on_c, 5, 84, 0
7, 482860, Note_on_c, 5, 83, 105
7, 482956, Note_on_c, 5, 83, 0
7, 483340, Note_on_c, 5, 81, 105
7, 483436, Note_on_c, 5, 81, 0
7, 483820, Note_on_c, 5, 79, 105
7, 484540, Note_on_c, 5, 79, 0
7, 484540, Note_on_c, 5, 77, 105
7, 484780, Note_on_c, 5, 77, 0
7, 484780, Note_on_c, 5, 76, 105
7, 485260, Note_on_c, 5, 76, 0
7, 486220, Note_on_c, 5, 81, 70
7, 486316, Note_on_c, 5, 81, 0
7, 486700, Note_on_c, 5, 79, 70
7, 486796, Note_on_c, 5, 79, 0
7, 487180, Note_on_c, 5, 77, 70
7, 487276, Note_on_c, 5, 77, 0
7, 487660, Note_on_c, 5, 76, 70
7, 488380, Note_on_c, 5, 76, 0
7, 488380, Note_on_c, 5, 74, 70
7, 488620, Note_on_c, 5, 74, 0
7, 488620, Note_on_c, 5, 72, 70
7, 489100, Note_on_c, 5, 72, 0
7, 489580, Note_on_c, 5, 74, 105
7, 489580, Note_on_c, 5, 77, 105
7, 490060, Note_on_c, 5, 77, 0
7, 490060, Note_on_c, 5, 74, 0
7, 490060, Note_on_c, 5, 77, 105
7, 490060, Note_on_c, 5, 86, 105
7, 491020, Note_on_c, 5, 86, 0
7, 491020, Note_on_c, 5, 77, 0
7, 491020, Note_on_c, 5, 74, 105
7, 491020, Note_on_c, 5, 77, 105
7, 491500, Note_on_c, 5, 77, 0
7, 491500, Note_on_c, 5, 74, 0
7, 491500, Note_on_c, 5, 72, 105
7, 491500, Note_on_c, 5, 76, 105
7, 491980, Note_on_c, 5, 76, 0
7, 491980, Note_on_c, 5, 72, 0
7, 491980, Note_on_c, 5, 76, 105
7, 491980, Note_on_c, 5, 84, 105
7, 492940, Note_on_c, 5, 84, 0
7, 492940, Note_on_c, 5, 76, 0
7, 492940, Note_on_c, 5, 72, 105
7, 492940, Note_on_c, 5, 76, 105
7, 493420, Note_on_c, 5, 76, 0
7, 493420, Note_on_c, 5, 72, 0
7, 493420, Note_on_c, 5, 74, 105
7, 493900, Note_on_c, 5, 74, 0
7, 493900, Note_on_c, 5, 79, 105
7, 494020, Note_on_c, 5, 79, 0
7, 494020, Note_on_c, 5, 77, 105
7, 494140, Note_on_c, 5, 77, 0
7, 494140, Note_on_c, 5, 76, 105
7, 494260, Note_on_c, 5, 76, 0
7, 494260, Note_on_c, 5, 74, 105
7, 494380, Note_on_c, 5, 74, 0
7, 494380, Note_on_c, 5, 72, 105
7, 494860, Note_on_c, 5, 72, 0
7, 494860, Note_on_c, 5, 71, 105
7, 495340, Note_on_c, 5, 71, 0
7, 495340, Note_on_c, 5, 72, 105
7, 495460, Note_on_c, 5, 72, 0
7, 495460, Note_on_c, 5, 74, 105
7, 495580, Note_on_c, 5, 74, 0
7, 495580, Note_on_c, 5, 76, 105
7, 495700, Note_on_c, 5, 76, 0
7, 495700, Note_on_c, 5, 77, 105
7, 495820, Note_on_c, 5, 77, 0
7, 495820, Note_on_c, 5, 79, 105
7, 495940, Note_on_c, 5, 79, 0
7, 495940, Note_on_c, 5, 81, 105
7, 496060, Note_on_c, 5, 81, 0
7, 496060, Note_on_c, 5, 83, 105
7, 496180, Note_on_c, 5, 83, 0
7, 496180, Note_on_c, 5, 84, 105
7, 496300, Note_on_c, 5, 84, 0
7, 496300, Note_on_c, 5, 69, 105
7, 496420, Note_on_c, 5, 69, 0
7, 496420, Note_on_c, 5, 71, 105
7, 496540, Note_on_c, 5, 71, 0
7, 496540, Note_on_c, 5, 72, 105
7, 496660, Note_on_c, 5, 72, 0
7, 496660, Note_on_c, 5, 74, 105
7, 496780, Note_on_c, 5, 74, 0
7, 496780, Note_on_c, 5, 76, 105
7, 496900, Note_on_c, 5, 76, 0
7, 496900, Note_on_c, 5, 77, 105
7, 497020, Note_on_c, 5, 77, 0
7, 497020, Note_on_c, 5, 79, 105
7, 497140, Note_on_c, 5, 79, 0
7, 497140, Note_on_c, 5, 81, 105
7, 497260, Note_on_c, 5, 81, 0
7, 497260, Note_on_c, 5, 67, 105
7, 497380, Note_on_c, 5, 67, 0
7, 497380, Note_on_c, 5, 69, 105
7, 497500, Note_on_c, 5, 69, 0
7, 497500, Note_on_c, 5, 71, 105
7, 497620, Note_on_c, 5, 71, 0
7, 497620, Note_on_c, 5, 72, 105
7, 497740, Note_on_c, 5, 72, 0
7, 497740, Note_on_c, 5, 74, 105
7, 497860, Note_on_c, 5, 74, 0
7, 497860, Note_on_c, 5, 76, 105
7, 497980, Note_on_c, 5, 76, 0
7, 497980, Note_on_c, 5, 77, 105
7, 498100, Note_on_c, 5, 77, 0
7, 498100, Note_on_c, 5, 79, 105
7, 498220, Note_on_c, 5, 79, 0
7, 498220, Note_on_c, 5, 79, 105
7, 498460, Note_on_c, 5, 77, 105
7, 498514, Note_on_c, 5, 79, 0
7, 498639, Note_on_c, 5, 77, 0
7, 498700, Note_on_c, 5, 76, 105
7, 498796, Note_on_c, 5, 76, 0
7, 498940, Note_on_c, 5, 74, 105
7, 499036, Note_on_c, 5, 74, 0
7, 499180, Note_on_c, 5, 55, 105
7, 499180, Note_on_c, 5, 64, 105
7, 499180, Note_on_c, 5, 72, 105
7, 499660, Note_on_c, 5, 72, 0
7, 499660, Note_on_c, 5, 64, 0
7, 499660, Note_on_c, 5, 55, 0
7, 499900, Note_on_c, 5, 79, 105
7, 499980, Note_on_c, 5, 81, 103
7, 500006, Note_on_c, 5, 79, 0
7, 500056, Note_on_c, 5, 83, 105
7, 500081, Note_on_c, 5, 81, 0
7, 500140, Note_on_c, 5, 84, 107
7, 500168, Note_on_c, 5, 83, 0
7, 500620, Note_on_c, 5, 84, 0
7, 500860, Note_on_c, 5, 79, 104
7, 500940, Note_on_c, 5, 81, 106
7, 500966, Note_on_c, 5, 79, 0
7, 501016, Note_on_c, 5, 83, 108
7, 501041, Note_on_c, 5, 81, 0
7, 501100, Note_on_c, 5, 84, 111
7, 501128, Note_on_c, 5, 83, 0
7, 501580, Note_on_c, 5, 84, 0
7, 501820, Note_on_c, 5, 79, 103
7, 501900, Note_on_c, 5, 81, 105
7, 501926, Note_on_c, 5, 79, 0
7, 501976, Note_on_c, 5, 83, 106
7, 502001, Note_on_c, 5, 81, 0
7, 502060, Note_on_c, 5, 84, 110
7, 502088, Note_on_c, 5, 83, 0
7, 502300, Note_on_c, 5, 84, 0
7, 502300, Note_on_c, 5, 79, 102
7, 502380, Note_on_c, 5, 81, 102
7, 502406, Note_on_c, 5, 79, 0
7, 502456, Note_on_c, 5, 83, 107
7, 502481, Note_on_c, 5, 81, 0
7, 502540, Note_on_c, 5, 84, 112
7, 502568, Note_on_c, 5, 83, 0
7, 502780, Note_on_c, 5, 84, 0
7, 502780, Note_on_c, 5, 79, 109
7, 502860, Note_on_c, 5, 81, 112
7, 502886, Note_on_c, 5, 79, 0
7, 502936, Note_on_c, 5, 83, 112
7, 502961, Note_on_c, 5, 81, 0
7, 503020, Note_on_c, 5, 84, 114
7, 503048, Note_on_c, 5, 83, 0
7, 503704, Note_on_c, 5, 84, 0
7, 503740, Note_on_c, 5, 79, 105
7, 503968, Note_on_c, 5, 79, 0
7, 503980, Note_on_c, 5, 76, 105
7, 504208, Note_on_c, 5, 76, 0
7, 504220, Note_on_c, 5, 72, 105
7, 504448, Note_on_c, 5, 72, 0
7, 504460, Note_on_c, 5, 76, 105
7, 504688, Note_on_c, 5, 76, 0
7, 504700, Note_on_c, 5, 79, 105
7, 504928, Note_on_c, 5, 79, 0
7, 504940, Note_on_c, 5, 84, 105
7, 505624, Note_on_c, 5, 84, 0
7, 505660, Note_on_c, 5, 79, 105
7, 505888, Note_on_c, 5, 79, 0
7, 505900, Note_on_c, 5, 76, 105
7, 506128, Note_on_c, 5, 76, 0
7, 506140, Note_on_c, 5, 72, 105
7, 506368, Note_on_c, 5, 72, 0
7, 506380, Note_on_c, 5, 76, 105
7, 506608, Note_on_c, 5, 76, 0
7, 506620, Note_on_c, 5, 79, 105
7, 506848, Note_on_c, 5, 79, 0
7, 506860, Note_on_c, 5, 84, 105
7, 507340, Note_on_c, 5, 84, 0
7, 507340, Note_on_c, 5, 76, 105
7, 507340, Note_on_c, 5, 84, 105
7, 507820, Note_on_c, 5, 84, 0
7, 507820, Note_on_c, 5, 76, 0
7, 507820, Note_on_c, 5, 76, 105
7, 507820, Note_on_c, 5, 84, 105
7, 508300, Note_on_c, 5, 84, 0
7, 508300, Note_on_c, 5, 76, 0
7, 508300, Note_on_c, 5, 76, 105
7, 508300, Note_on_c, 5, 84, 105
7, 508780, Note_on_c, 5, 84, 0
7, 508780, Note_on_c, 5, 76, 0
7, 508780, Note_on_c, 5, 76, 105
7, 508780, Note_on_c, 5, 84, 105
7, 509260, Note_on_c, 5, 84, 0
7, 509260, Note_on_c, 5, 76, 0
7, 510720, Note_on_c, 5, 69, 70
7, 510960, Note_on_c, 5, 69, 0
7, 511200, Note_on_c, 5, 69, 70
7, 511440, Note_on_c, 5, 69, 0
7, 511680, Note_on_c, 5, 69, 70
7, 511920, Note_on_c, 5, 69, 0
7, 512160, Note_on_c, 5, 67, 92
7, 513000, Note_on_c, 5, 64, 92
7, 513029, Note_on_c, 5, 67, 0
7, 513120, Note_on_c, 5, 65, 92
7, 513164, Note_on_c, 5, 64, 0
7, 513360, Note_on_c, 5, 65, 0
7, 513600, Note_on_c, 5, 69, 70
7, 513644, Note_on_c, 5, 69, 0
7, 513720, Note_on_c, 5, 70, 70
7, 513764, Note_on_c, 5, 70, 0
7, 513840, Note_on_c, 5, 72, 70
7, 513884, Note_on_c, 5, 72, 0
7, 513960, Note_on_c, 5, 74, 70
7, 514004, Note_on_c, 5, 74, 0
7, 514080, Note_on_c, 5, 72, 70
7, 514124, Note_on_c, 5, 72, 0
7, 514200, Note_on_c, 5, 74, 70
7, 514244, Note_on_c, 5, 74, 0
7, 514320, Note_on_c, 5, 76, 70
7, 514364, Note_on_c, 5, 76, 0
7, 514440, Note_on_c, 5, 77, 70
7, 514484, Note_on_c, 5, 77, 0
7, 514560, Note_on_c, 5, 76, 70
7, 514604, Note_on_c, 5, 76, 0
7, 514680, Note_on_c, 5, 77, 70
7, 514724, Note_on_c, 5, 77, 0
7, 514800, Note_on_c, 5, 76, 70
7, 514844, Note_on_c, 5, 76, 0
7, 514920, Note_on_c, 5, 77, 70
7, 514964, Note_on_c, 5, 77, 0
7, 515040, Note_on_c, 5, 70, 70
7, 515880, Note_on_c, 5, 72, 70
7, 515909, Note_on_c, 5, 70, 0
7, 515940, Note_on_c, 5, 74, 70
7, 515959, Note_on_c, 5, 72, 0
7, 516000, Note_on_c, 5, 74, 0
7, 516000, Note_on_c, 5, 72, 70
7, 516240, Note_on_c, 5, 72, 0
7, 516480, Note_on_c, 5, 69, 93
7, 517200, Note_on_c, 5, 70, 93
7, 517234, Note_on_c, 5, 69, 0
7, 517320, Note_on_c, 5, 72, 93
7, 517359, Note_on_c, 5, 70, 0
7, 517419, Note_on_c, 5, 72, 0
7, 517440, Note_on_c, 5, 76, 93
7, 517560, Note_on_c, 5, 74, 93
7, 517597, Note_on_c, 5, 76, 0
7, 517680, Note_on_c, 5, 72, 93
7, 517717, Note_on_c, 5, 74, 0
7, 517800, Note_on_c, 5, 70, 93
7, 517837, Note_on_c, 5, 72, 0
7, 517899, Note_on_c, 5, 70, 0
7, 517920, Note_on_c, 5, 69, 93
7, 518160, Note_on_c, 5, 67, 93
7, 518209, Note_on_c, 5, 69, 0
7, 518619, Note_on_c, 5, 67, 0
7, 518640, Note_on_c, 5, 69, 93
7, 518760, Note_on_c, 5, 70, 93
7, 518789, Note_on_c, 5, 69, 0
7, 518859, Note_on_c, 5, 70, 0
7, 518880, Note_on_c, 5, 74, 93
7, 519000, Note_on_c, 5, 72, 93
7, 519037, Note_on_c, 5, 74, 0
7, 519120, Note_on_c, 5, 70, 93
7, 519157, Note_on_c, 5, 72, 0
7, 519240, Note_on_c, 5, 69, 93
7, 519277, Note_on_c, 5, 70, 0
7, 519329, Note_on_c, 5, 69, 0
7, 519360, Note_on_c, 5, 67, 93
7, 519600, Note_on_c, 5, 65, 93
7, 519644, Note_on_c, 5, 67, 0
7, 520024, Note_on_c, 5, 65, 0
7, 520080, Note_on_c, 5, 67, 93
7, 520200, Note_on_c, 5, 69, 93
7, 520239, Note_on_c, 5, 67, 0
7, 520284, Note_on_c, 5, 69, 0
7, 520320, Note_on_c, 5, 70, 93
7, 520440, Note_on_c, 5, 72, 93
7, 520477, Note_on_c, 5, 70, 0
7, 520560, Note_on_c, 5, 74, 93
7, 520597, Note_on_c, 5, 72, 0
7, 520680, Note_on_c, 5, 70, 93
7, 520717, Note_on_c, 5, 74, 0
7, 520779, Note_on_c, 5, 70, 0
7, 520800, Note_on_c, 5, 69, 93
7, 521160, Note_on_c, 5, 67, 93
7, 521194, Note_on_c, 5, 69, 0
7, 521249, Note_on_c, 5, 67, 0
7, 521280, Note_on_c, 5, 67, 93
7, 522000, Note_on_c, 5, 69, 80
7, 522054, Note_on_c, 5, 67, 0
7, 522194, Note_on_c, 5, 69, 0
7, 522240, Note_on_c, 5, 70, 70
7, 522600, Note_on_c, 5, 72, 70
7, 522629, Note_on_c, 5, 70, 0
7, 522660, Note_on_c, 5, 74, 70
7, 522689, Note_on_c, 5, 72, 0
7, 522710, Note_on_c, 5, 74, 0
7, 522720, Note_on_c, 5, 65, 70
7, 523200, Note_on_c, 5, 69, 70
7, 523249, Note_on_c, 5, 65, 0
7, 523440, Note_on_c, 5, 67, 70
7, 523489, Note_on_c, 5, 69, 0
7, 523664, Note_on_c, 5, 67, 0
7, 523680, Note_on_c, 5, 65, 70
7, 523884, Note_on_c, 5, 65, 0
7, 523920, Note_on_c, 5, 77, 70
7, 524040, Note_on_c, 5, 76, 70
7, 524079, Note_on_c, 5, 77, 0
7, 524129, Note_on_c, 5, 76, 0
7, 524160, Note_on_c, 5, 76, 70
7, 524280, Note_on_c, 5, 74, 70
7, 524319, Note_on_c, 5, 76, 0
7, 524369, Note_on_c, 5, 74, 0
7, 524400, Note_on_c, 5, 74, 70
7, 524520, Note_on_c, 5, 72, 70
7, 524564, Note_on_c, 5, 74, 0
7, 524609, Note_on_c, 5, 72, 0
7, 524640, Note_on_c, 5, 72, 70
7, 524760, Note_on_c, 5, 71, 70
7, 524809, Note_on_c, 5, 72, 0
7, 524880, Note_on_c, 5, 74, 70
7, 524909, Note_on_c, 5, 71, 0
7, 525000, Note_on_c, 5, 72, 70
7, 525044, Note_on_c, 5, 74, 0
7, 525104, Note_on_c, 5, 72, 0
7, 525120, Note_on_c, 5, 70, 70
7, 525480, Note_on_c, 5, 72, 70
7, 525509, Note_on_c, 5, 70, 0
7, 525540, Note_on_c, 5, 74, 70
7, 525579, Note_on_c, 5, 72, 0
7, 525590, Note_on_c, 5, 74, 0
7, 525600, Note_on_c, 5, 65, 70
7, 526080, Note_on_c, 5, 69, 70
7, 526129, Note_on_c, 5, 65, 0
7, 526320, Note_on_c, 5, 67, 70
7, 526364, Note_on_c, 5, 69, 0
7, 526524, Note_on_c, 5, 67, 0
7, 526560, Note_on_c, 5, 65, 70
7, 526769, Note_on_c, 5, 65, 0
7, 526800, Note_on_c, 5, 60, 92
7, 527040, Note_on_c, 5, 62, 92
7, 527089, Note_on_c, 5, 60, 0
7, 527280, Note_on_c, 5, 64, 92
7, 527314, Note_on_c, 5, 62, 0
7, 527520, Note_on_c, 5, 65, 92
7, 527584, Note_on_c, 5, 64, 0
7, 527760, Note_on_c, 5, 67, 80
7, 527814, Note_on_c, 5, 65, 0
7, 527954, Note_on_c, 5, 67, 0
7, 528000, Note_on_c, 5, 69, 70
7, 528480, Note_on_c, 5, 69, 0
7, 533760, Note_on_c, 5, 69, 70
7, 534480, Note_on_c, 5, 70, 70
7, 534514, Note_on_c, 5, 69, 0
7, 534600, Note_on_c, 5, 72, 70
7, 534642, Note_on_c, 5, 70, 0
7, 534720, Note_on_c, 5, 76, 70
7, 534757, Note_on_c, 5, 72, 0
7, 534840, Note_on_c, 5, 74, 70
7, 534877, Note_on_c, 5, 76, 0
7, 534960, Note_on_c, 5, 72, 70
7, 534997, Note_on_c, 5, 74, 0
7, 535080, Note_on_c, 5, 70, 70
7, 535117, Note_on_c, 5, 72, 0
7, 535174, Note_on_c, 5, 70, 0
7, 535200, Note_on_c, 5, 69, 70
7, 535440, Note_on_c, 5, 67, 70
7, 535484, Note_on_c, 5, 69, 0
7, 535879, Note_on_c, 5, 67, 0
7, 535920, Note_on_c, 5, 69, 70
7, 536040, Note_on_c, 5, 70, 70
7, 536077, Note_on_c, 5, 69, 0
7, 536160, Note_on_c, 5, 74, 70
7, 536197, Note_on_c, 5, 70, 0
7, 536280, Note_on_c, 5, 72, 70
7, 536317, Note_on_c, 5, 74, 0
7, 536400, Note_on_c, 5, 70, 70
7, 536437, Note_on_c, 5, 72, 0
7, 536520, Note_on_c, 5, 69, 70
7, 536557, Note_on_c, 5, 70, 0
7, 536624, Note_on_c, 5, 69, 0
7, 536640, Note_on_c, 5, 67, 70
7, 536880, Note_on_c, 5, 65, 70
7, 536929, Note_on_c, 5, 67, 0
7, 537314, Note_on_c, 5, 65, 0
7, 537360, Note_on_c, 5, 67, 70
7, 537480, Note_on_c, 5, 69, 70
7, 537517, Note_on_c, 5, 67, 0
7, 537600, Note_on_c, 5, 70, 70
7, 537637, Note_on_c, 5, 69, 0
7, 537720, Note_on_c, 5, 72, 70
7, 537757, Note_on_c, 5, 70, 0
7, 537840, Note_on_c, 5, 74, 70
7, 537877, Note_on_c, 5, 72, 0
7, 537960, Note_on_c, 5, 70, 70
7, 537997, Note_on_c, 5, 74, 0
7, 538059, Note_on_c, 5, 70, 0
7, 538080, Note_on_c, 5, 69, 70
7, 538560, Note_on_c, 5, 67, 70
7, 538609, Note_on_c, 5, 69, 0
7, 539040, Note_on_c, 5, 67, 0
7, 539520, Note_on_c, 5, 67, 47
7, 539688, Note_on_c, 5, 67, 0
7, 539760, Note_on_c, 5, 67, 47
7, 539928, Note_on_c, 5, 67, 0
7, 540000, Note_on_c, 5, 67, 47
7, 540168, Note_on_c, 5, 67, 0
7, 540240, Note_on_c, 5, 67, 47
7, 540408, Note_on_c, 5, 67, 0
7, 540480, Note_on_c, 5, 67, 47
7, 540648, Note_on_c, 5, 67, 0
7, 540720, Note_on_c, 5, 67, 47
7, 540888, Note_on_c, 5, 67, 0
7, 540960, Note_on_c, 5, 67, 47
7, 541128, Note_on_c, 5, 67, 0
7, 541200, Note_on_c, 5, 67, 47
7, 541368, Note_on_c, 5, 67, 0
7, 541440, Note_on_c, 5, 67, 47
7, 541608, Note_on_c, 5, 67, 0
7, 541680, Note_on_c, 5, 67, 48
7, 541848, Note_on_c, 5, 67, 0
7, 541920, Note_on_c, 5, 67, 48
7, 542088, Note_on_c, 5, 67, 0
7, 542160, Note_on_c, 5, 67, 48
7, 542328, Note_on_c, 5, 67, 0
7, 542400, Note_on_c, 5, 67, 48
7, 542568, Note_on_c, 5, 67, 0
7, 542640, Note_on_c, 5, 67, 48
7, 542808, Note_on_c, 5, 67, 0
7, 542880, Note_on_c, 5, 67, 48
7, 543048, Note_on_c, 5, 67, 0
7, 543120, Note_on_c, 5, 67, 48
7, 543288, Note_on_c, 5, 67, 0
7, 543360, Note_on_c, 5, 67, 48
7, 543528, Note_on_c, 5, 67, 0
7, 543600, Note_on_c, 5, 67, 48
7, 543768, Note_on_c, 5, 67, 0
7, 543840, Note_on_c, 5, 67, 53
7, 544800, Note_on_c, 5, 67, 0
7, 545760, Note_on_c, 5, 76, 52
7, 545856, Note_on_c, 5, 76, 0
7, 546240, Note_on_c, 5, 79, 52
7, 546336, Note_on_c, 5, 79, 0
7, 547200, Note_on_c, 5, 74, 51
7, 547296, Note_on_c, 5, 74, 0
7, 547680, Note_on_c, 5, 77, 50
7, 547776, Note_on_c, 5, 77, 0
7, 548640, Note_on_c, 5, 74, 49
7, 548736, Note_on_c, 5, 74, 0
7, 549120, Note_on_c, 5, 77, 48
7, 549216, Note_on_c, 5, 77, 0
7, 550080, Note_on_c, 5, 76, 47
7, 550199, Note_on_c, 5, 76, 0
7, 550560, Note_on_c, 5, 79, 47
7, 550664, Note_on_c, 5, 79, 0
7, 551520, Note_on_c, 5, 72, 47
7, 551616, Note_on_c, 5, 72, 0
7, 552000, Note_on_c, 5, 78, 47
7, 552096, Note_on_c, 5, 78, 0
7, 552960, Note_on_c, 5, 79, 48
7, 553056, Note_on_c, 5, 79, 0
7, 553440, Note_on_c, 5, 78, 48
7, 553536, Note_on_c, 5, 78, 0
7, 553920, Note_on_c, 5, 79, 48
7, 554400, Note_on_c, 5, 79, 0
7, 555360, Note_on_c, 5, 79, 95
7, 555840, Note_on_c, 5, 76, 70
7, 555924, Note_on_c, 5, 79, 0
7, 556080, Note_on_c, 5, 76, 0
7, 556200, Note_on_c, 5, 76, 70
7, 556244, Note_on_c, 5, 76, 0
7, 556320, Note_on_c, 5, 77, 70
7, 556440, Note_on_c, 5, 79, 70
7, 556470, Note_on_c, 5, 77, 0
7, 556560, Note_on_c, 5, 81, 70
7, 556590, Note_on_c, 5, 79, 0
7, 556680, Note_on_c, 5, 83, 70
7, 556710, Note_on_c, 5, 81, 0
7, 556779, Note_on_c, 5, 83, 0
7, 556800, Note_on_c, 5, 84, 70
7, 557040, Note_on_c, 5, 83, 70
7, 557100, Note_on_c, 5, 84, 0
7, 557280, Note_on_c, 5, 81, 70
7, 557340, Note_on_c, 5, 83, 0
7, 557520, Note_on_c, 5, 79, 70
7, 557580, Note_on_c, 5, 81, 0
7, 557760, Note_on_c, 5, 77, 70
7, 557820, Note_on_c, 5, 79, 0
7, 558000, Note_on_c, 5, 76, 70
7, 558060, Note_on_c, 5, 77, 0
7, 558209, Note_on_c, 5, 76, 0
7, 558240, Note_on_c, 5, 74, 80
7, 559200, Note_on_c, 5, 76, 81
7, 559264, Note_on_c, 5, 74, 0
7, 559674, Note_on_c, 5, 76, 0
7, 559680, Note_on_c, 5, 76, 91
7, 560040, Note_on_c, 5, 77, 91
7, 560089, Note_on_c, 5, 76, 0
7, 560129, Note_on_c, 5, 77, 0
7, 560160, Note_on_c, 5, 77, 75
7, 560880, Note_on_c, 5, 77, 0
7, 560880, Note_on_c, 5, 65, 70
7, 561120, Note_on_c, 5, 65, 0
7, 561120, Note_on_c, 5, 64, 70
7, 562080, Note_on_c, 5, 65, 70
7, 562169, Note_on_c, 5, 64, 0
7, 562529, Note_on_c, 5, 65, 0
7, 562560, Note_on_c, 5, 67, 70
7, 564000, Note_on_c, 5, 67, 0
7, 564000, Note_on_c, 5, 65, 70
7, 564240, Note_on_c, 5, 65, 0
7, 564480, Note_on_c, 5, 64, 70
7, 564720, Note_on_c, 5, 64, 0
7, 564960, Note_on_c, 5, 62, 70
7, 565200, Note_on_c, 5, 62, 0
7, 565440, Note_on_c, 5, 67, 91
7, 565920, Note_on_c, 5, 64, 70
7, 565999, Note_on_c, 5, 67, 0
7, 566160, Note_on_c, 5, 64, 0
7, 566280, Note_on_c, 5, 64, 70
7, 566324, Note_on_c, 5, 64, 0
7, 566400, Note_on_c, 5, 65, 70
7, 566520, Note_on_c, 5, 67, 70
7, 566550, Note_on_c, 5, 65, 0
7, 566640, Note_on_c, 5, 69, 70
7, 566670, Note_on_c, 5, 67, 0
7, 566760, Note_on_c, 5, 71, 70
7, 566790, Note_on_c, 5, 69, 0
7, 566864, Note_on_c, 5, 71, 0
7, 566880, Note_on_c, 5, 72, 70
7, 567120, Note_on_c, 5, 71, 70
7, 567180, Note_on_c, 5, 72, 0
7, 567360, Note_on_c, 5, 69, 70
7, 567420, Note_on_c, 5, 71, 0
7, 567600, Note_on_c, 5, 67, 70
7, 567660, Note_on_c, 5, 69, 0
7, 567840, Note_on_c, 5, 65, 70
7, 567900, Note_on_c, 5, 67, 0
7, 568080, Note_on_c, 5, 64, 70
7, 568140, Note_on_c, 5, 65, 0
7, 568289, Note_on_c, 5, 64, 0
7, 568320, Note_on_c, 5, 62, 72
7, 569280, Note_on_c, 5, 64, 81
7, 569324, Note_on_c, 5, 62, 0
7, 569699, Note_on_c, 5, 64, 0
7, 569760, Note_on_c, 5, 67, 86
7, 570120, Note_on_c, 5, 65, 89
7, 570169, Note_on_c, 5, 67, 0
7, 570224, Note_on_c, 5, 65, 0
7, 570240, Note_on_c, 5, 65, 70
7, 571200, Note_on_c, 5, 65, 0
7, 571200, Note_on_c, 5, 64, 70
7, 571680, Note_on_c, 5, 64, 0
7, 574080, Note_on_c, 5, 60, 70
7, 575040, Note_on_c, 5, 62, 70
7, 575129, Note_on_c, 5, 60, 0
7, 575469, Note_on_c, 5, 62, 0
7, 575520, Note_on_c, 5, 64, 70
7, 575760, Note_on_c, 5, 64, 0
7, 576000, Note_on_c, 5, 67, 70
7, 576240, Note_on_c, 5, 67, 0
7, 576480, Note_on_c, 5, 71, 70
7, 576720, Note_on_c, 5, 71, 0
7, 576960, Note_on_c, 5, 72, 70
7, 577200, Note_on_c, 5, 74, 70
7, 577279, Note_on_c, 5, 72, 0
7, 577440, Note_on_c, 5, 72, 70
7, 577519, Note_on_c, 5, 74, 0
7, 577680, Note_on_c, 5, 71, 70
7, 577759, Note_on_c, 5, 72, 0
7, 577920, Note_on_c, 5, 69, 70
7, 577999, Note_on_c, 5, 71, 0
7, 578160, Note_on_c, 5, 67, 70
7, 578239, Note_on_c, 5, 69, 0
7, 578400, Note_on_c, 5, 67, 0
7, 578400, Note_on_c, 5, 69, 70
7, 578640, Note_on_c, 5, 69, 0
7, 578880, Note_on_c, 5, 69, 70
7, 579120, Note_on_c, 5, 69, 0
7, 579360, Note_on_c, 5, 74, 70
7, 579840, Note_on_c, 5, 72, 70
7, 579949, Note_on_c, 5, 74, 0
7, 580029, Note_on_c, 5, 72, 0
7, 580080, Note_on_c, 5, 72, 70
7, 580176, Note_on_c, 5, 72, 0
7, 580320, Note_on_c, 5, 72, 70
7, 580560, Note_on_c, 5, 72, 0
7, 580560, Note_on_c, 5, 72, 70
7, 580800, Note_on_c, 5, 72, 0
7, 580800, Note_on_c, 5, 71, 70
7, 581040, Note_on_c, 5, 71, 0
7, 581040, Note_on_c, 5, 71, 70
7, 581280, Note_on_c, 5, 71, 0
7, 581280, Note_on_c, 5, 72, 70
7, 581760, Note_on_c, 5, 72, 0
7, 585600, Note_on_c, 5, 72, 70
7, 587040, Note_on_c, 5, 71, 69
7, 587169, Note_on_c, 5, 72, 0
7, 588399, Note_on_c, 5, 71, 0
7, 588480, Note_on_c, 5, 70, 79
7, 589920, Note_on_c, 5, 69, 90
7, 590039, Note_on_c, 5, 70, 0
7, 591289, Note_on_c, 5, 69, 0
7, 591360, Note_on_c, 5, 64, 89
7, 592800, Note_on_c, 5, 65, 70
7, 592889, Note_on_c, 5, 64, 0
7, 593040, Note_on_c, 5, 65, 0
7, 598560, Note_on_c, 5, 69, 70
7, 599280, Note_on_c, 5, 70, 70
7, 599339, Note_on_c, 5, 69, 0
7, 599400, Note_on_c, 5, 72, 70
7, 599449, Note_on_c, 5, 70, 0
7, 599509, Note_on_c, 5, 72, 0
7, 599520, Note_on_c, 5, 76, 70
7, 599640, Note_on_c, 5, 74, 70
7, 599680, Note_on_c, 5, 76, 0
7, 599760, Note_on_c, 5, 72, 70
7, 599800, Note_on_c, 5, 74, 0
7, 599880, Note_on_c, 5, 70, 70
7, 599920, Note_on_c, 5, 72, 0
7, 599969, Note_on_c, 5, 70, 0
7, 600000, Note_on_c, 5, 69, 70
7, 600240, Note_on_c, 5, 67, 70
7, 600324, Note_on_c, 5, 69, 0
7, 600694, Note_on_c, 5, 67, 0
7, 600720, Note_on_c, 5, 69, 70
7, 600840, Note_on_c, 5, 70, 70
7, 600884, Note_on_c, 5, 69, 0
7, 600949, Note_on_c, 5, 70, 0
7, 600960, Note_on_c, 5, 74, 70
7, 601080, Note_on_c, 5, 72, 70
7, 601120, Note_on_c, 5, 74, 0
7, 601200, Note_on_c, 5, 70, 70
7, 601240, Note_on_c, 5, 72, 0
7, 601320, Note_on_c, 5, 69, 70
7, 601360, Note_on_c, 5, 70, 0
7, 601429, Note_on_c, 5, 69, 0
7, 601440, Note_on_c, 5, 67, 70
7, 601680, Note_on_c, 5, 65, 70
7, 601734, Note_on_c, 5, 67, 0
7, 602119, Note_on_c, 5, 65, 0
7, 602160, Note_on_c, 5, 67, 70
7, 602280, Note_on_c, 5, 69, 70
7, 602319, Note_on_c, 5, 67, 0
7, 602379, Note_on_c, 5, 69, 0
7, 602400, Note_on_c, 5, 70, 70
7, 602520, Note_on_c, 5, 72, 70
7, 602560, Note_on_c, 5, 70, 0
7, 602640, Note_on_c, 5, 74, 70
7, 602680, Note_on_c, 5, 72, 0
7, 602760, Note_on_c, 5, 70, 70
7, 602800, Note_on_c, 5, 74, 0
7, 602849, Note_on_c, 5, 70, 0
7, 602880, Note_on_c, 5, 69, 70
7, 603360, Note_on_c, 5, 67, 70
7, 603419, Note_on_c, 5, 69, 0
7, 603840, Note_on_c, 5, 67, 0
7, 604320, Note_on_c, 5, 67, 61
7, 604488, Note_on_c, 5, 67, 0
7, 604560, Note_on_c, 5, 67, 61
7, 604728, Note_on_c, 5, 67, 0
7, 604800, Note_on_c, 5, 67, 61
7, 604968, Note_on_c, 5, 67, 0
7, 605040, Note_on_c, 5, 67, 61
7, 605208, Note_on_c, 5, 67, 0
7, 605280, Note_on_c, 5, 67, 61
7, 605448, Note_on_c, 5, 67, 0
7, 605520, Note_on_c, 5, 67, 61
7, 605688, Note_on_c, 5, 67, 0
7, 605760, Note_on_c, 5, 67, 61
7, 605928, Note_on_c, 5, 67, 0
7, 606000, Note_on_c, 5, 67, 61
7, 606168, Note_on_c, 5, 67, 0
7, 606240, Note_on_c, 5, 67, 61
7, 606408, Note_on_c, 5, 67, 0
7, 606480, Note_on_c, 5, 67, 61
7, 606648, Note_on_c, 5, 67, 0
7, 606720, Note_on_c, 5, 67, 60
7, 606888, Note_on_c, 5, 67, 0
7, 606960, Note_on_c, 5, 67, 60
7, 607128, Note_on_c, 5, 67, 0
7, 607200, Note_on_c, 5, 67, 60
7, 607368, Note_on_c, 5, 67, 0
7, 607440, Note_on_c, 5, 67, 60
7, 607608, Note_on_c, 5, 67, 0
7, 607680, Note_on_c, 5, 67, 60
7, 607848, Note_on_c, 5, 67, 0
7, 607920, Note_on_c, 5, 67, 60
7, 608088, Note_on_c, 5, 67, 0
7, 608160, Note_on_c, 5, 67, 60
7, 608328, Note_on_c, 5, 67, 0
7, 608400, Note_on_c, 5, 67, 60
7, 608568, Note_on_c, 5, 67, 0
7, 608640, Note_on_c, 5, 67, 60
7, 609319, Note_on_c, 5, 67, 0
7, 609360, Note_on_c, 5, 67, 81
7, 609600, Note_on_c, 5, 69, 79
7, 609649, Note_on_c, 5, 67, 0
7, 609840, Note_on_c, 5, 70, 78
7, 609879, Note_on_c, 5, 69, 0
7, 610049, Note_on_c, 5, 70, 0
7, 610080, Note_on_c, 5, 72, 69
7, 610560, Note_on_c, 5, 72, 0
7, 610560, Note_on_c, 5, 77, 54
7, 610656, Note_on_c, 5, 77, 0
7, 611040, Note_on_c, 5, 81, 54
7, 611136, Note_on_c, 5, 81, 0
7, 612000, Note_on_c, 5, 79, 54
7, 612096, Note_on_c, 5, 79, 0
7, 612480, Note_on_c, 5, 82, 54
7, 612576, Note_on_c, 5, 82, 0
7, 613440, Note_on_c, 5, 79, 54
7, 613536, Note_on_c, 5, 79, 0
7, 613920, Note_on_c, 5, 82, 54
7, 614016, Note_on_c, 5, 82, 0
7, 614880, Note_on_c, 5, 81, 54
7, 614976, Note_on_c, 5, 81, 0
7, 615360, Note_on_c, 5, 84, 54
7, 615456, Note_on_c, 5, 84, 0
7, 616320, Note_on_c, 5, 71, 54
7, 616416, Note_on_c, 5, 71, 0
7, 616800, Note_on_c, 5, 77, 54
7, 616896, Note_on_c, 5, 77, 0
7, 617760, Note_on_c, 5, 76, 54
7, 617856, Note_on_c, 5, 76, 0
7, 618240, Note_on_c, 5, 83, 54
7, 618336, Note_on_c, 5, 83, 0
7, 618720, Note_on_c, 5, 84, 54
7, 619200, Note_on_c, 5, 84, 0
7, 620160, Note_on_c, 5, 72, 79
7, 620640, Note_on_c, 5, 72, 0
7, 620640, Note_on_c, 5, 69, 70
7, 620880, Note_on_c, 5, 69, 0
7, 621000, Note_on_c, 5, 69, 70
7, 621044, Note_on_c, 5, 69, 0
7, 621120, Note_on_c, 5, 70, 70
7, 621240, Note_on_c, 5, 72, 70
7, 621280, Note_on_c, 5, 70, 0
7, 621360, Note_on_c, 5, 74, 70
7, 621400, Note_on_c, 5, 72, 0
7, 621480, Note_on_c, 5, 76, 70
7, 621520, Note_on_c, 5, 74, 0
7, 621600, Note_on_c, 5, 76, 0
7, 621600, Note_on_c, 5, 77, 70
7, 621840, Note_on_c, 5, 76, 70
7, 621887, Note_on_c, 5, 77, 0
7, 622080, Note_on_c, 5, 74, 70
7, 622127, Note_on_c, 5, 76, 0
7, 622320, Note_on_c, 5, 72, 70
7, 622367, Note_on_c, 5, 74, 0
7, 622560, Note_on_c, 5, 70, 70
7, 622607, Note_on_c, 5, 72, 0
7, 622800, Note_on_c, 5, 69, 70
7, 622847, Note_on_c, 5, 70, 0
7, 623040, Note_on_c, 5, 69, 0
7, 623040, Note_on_c, 5, 67, 72
7, 623520, Note_on_c, 5, 67, 0
7, 623520, Note_on_c, 5, 79, 78
7, 624240, Note_on_c, 5, 81, 87
7, 624289, Note_on_c, 5, 79, 0
7, 624444, Note_on_c, 5, 81, 0
7, 624480, Note_on_c, 5, 81, 87
7, 624840, Note_on_c, 5, 82, 88
7, 624884, Note_on_c, 5, 81, 0
7, 624939, Note_on_c, 5, 82, 0
7, 624960, Note_on_c, 5, 82, 68
7, 625680, Note_on_c, 5, 70, 70
7, 625709, Note_on_c, 5, 82, 0
7, 625889, Note_on_c, 5, 70, 0
7, 625920, Note_on_c, 5, 69, 70
7, 626880, Note_on_c, 5, 70, 70
7, 626929, Note_on_c, 5, 69, 0
7, 627360, Note_on_c, 5, 70, 0
7, 627360, Note_on_c, 5, 72, 70
7, 628800, Note_on_c, 5, 70, 70
7, 628849, Note_on_c, 5, 72, 0
7, 629040, Note_on_c, 5, 70, 0
7, 629280, Note_on_c, 5, 69, 70
7, 629520, Note_on_c, 5, 69, 0
7, 629760, Note_on_c, 5, 67, 70
7, 630000, Note_on_c, 5, 67, 0
7, 630240, Note_on_c, 5, 72, 89
7, 630720, Note_on_c, 5, 69, 89
7, 630769, Note_on_c, 5, 72, 0
7, 630960, Note_on_c, 5, 69, 0
7, 631080, Note_on_c, 5, 69, 89
7, 631124, Note_on_c, 5, 69, 0
7, 631200, Note_on_c, 5, 70, 89
7, 631320, Note_on_c, 5, 72, 89
7, 631360, Note_on_c, 5, 70, 0
7, 631440, Note_on_c, 5, 74, 89
7, 631480, Note_on_c, 5, 72, 0
7, 631560, Note_on_c, 5, 76, 89
7, 631600, Note_on_c, 5, 74, 0
7, 631680, Note_on_c, 5, 76, 0
7, 631680, Note_on_c, 5, 77, 89
7, 631920, Note_on_c, 5, 76, 89
7, 631980, Note_on_c, 5, 77, 0
7, 632160, Note_on_c, 5, 74, 89
7, 632220, Note_on_c, 5, 76, 0
7, 632400, Note_on_c, 5, 72, 89
7, 632460, Note_on_c, 5, 74, 0
7, 632640, Note_on_c, 5, 70, 89
7, 632700, Note_on_c, 5, 72, 0
7, 632880, Note_on_c, 5, 69, 89
7, 632940, Note_on_c, 5, 70, 0
7, 633120, Note_on_c, 5, 69, 0
7, 633120, Note_on_c, 5, 67, 80
7, 634080, Note_on_c, 5, 69, 90
7, 634124, Note_on_c, 5, 67, 0
7, 634560, Note_on_c, 5, 69, 0
7, 634560, Note_on_c, 5, 69, 90
7, 634920, Note_on_c, 5, 70, 82
7, 634969, Note_on_c, 5, 69, 0
7, 635019, Note_on_c, 5, 70, 0
7, 635040, Note_on_c, 5, 70, 70
7, 636000, Note_on_c, 5, 70, 0
7, 636000, Note_on_c, 5, 69, 70
7, 636480, Note_on_c, 5, 69, 0
7, 638880, Note_on_c, 5, 69, 70
7, 639840, Note_on_c, 5, 70, 70
7, 639904, Note_on_c, 5, 69, 0
7, 640320, Note_on_c, 5, 70, 0
7, 640320, Note_on_c, 5, 72, 70
7, 640560, Note_on_c, 5, 72, 0
7, 640800, Note_on_c, 5, 77, 70
7, 641040, Note_on_c, 5, 77, 0
7, 641280, Note_on_c, 5, 82, 70
7, 641520, Note_on_c, 5, 82, 0
7, 641760, Note_on_c, 5, 81, 70
7, 642000, Note_on_c, 5, 82, 70
7, 642060, Note_on_c, 5, 81, 0
7, 642240, Note_on_c, 5, 81, 70
7, 642300, Note_on_c, 5, 82, 0
7, 642480, Note_on_c, 5, 79, 70
7, 642540, Note_on_c, 5, 81, 0
7, 642720, Note_on_c, 5, 77, 70
7, 642780, Note_on_c, 5, 79, 0
7, 642960, Note_on_c, 5, 76, 70
7, 643020, Note_on_c, 5, 77, 0
7, 643200, Note_on_c, 5, 76, 0
7, 643200, Note_on_c, 5, 74, 70
7, 643380, Note_on_c, 5, 74, 0
7, 643440, Note_on_c, 5, 74, 70
7, 643620, Note_on_c, 5, 74, 0
7, 643680, Note_on_c, 5, 74, 70
7, 643860, Note_on_c, 5, 74, 0
7, 643920, Note_on_c, 5, 74, 70
7, 644100, Note_on_c, 5, 74, 0
7, 644160, Note_on_c, 5, 76, 70
7, 644340, Note_on_c, 5, 76, 0
7, 644400, Note_on_c, 5, 76, 70
7, 644580, Note_on_c, 5, 76, 0
7, 644640, Note_on_c, 5, 77, 70
7, 644820, Note_on_c, 5, 77, 0
7, 644880, Note_on_c, 5, 77, 70
7, 645060, Note_on_c, 5, 77, 0
7, 645120, Note_on_c, 5, 77, 70
7, 645300, Note_on_c, 5, 77, 0
7, 645360, Note_on_c, 5, 77, 70
7, 645540, Note_on_c, 5, 77, 0
7, 645600, Note_on_c, 5, 76, 70
7, 645780, Note_on_c, 5, 76, 0
7, 645840, Note_on_c, 5, 76, 70
7, 646020, Note_on_c, 5, 76, 0
7, 646080, Note_on_c, 5, 77, 70
7, 646560, Note_on_c, 5, 77, 0
7, 650640, Note_on_c, 5, 69, 70
7, 650880, Note_on_c, 5, 69, 0
7, 651120, Note_on_c, 5, 69, 70
7, 651360, Note_on_c, 5, 69, 0
7, 651600, Note_on_c, 5, 69, 70
7, 651840, Note_on_c, 5, 69, 0
7, 652080, Note_on_c, 5, 70, 70
7, 652320, Note_on_c, 5, 70, 0
7, 652560, Note_on_c, 5, 67, 77
7, 652800, Note_on_c, 5, 67, 0
7, 653040, Note_on_c, 5, 64, 84
7, 653280, Note_on_c, 5, 64, 0
7, 653280, Note_on_c, 5, 65, 87
7, 653520, Note_on_c, 5, 65, 0
7, 653520, Note_on_c, 5, 77, 91
7, 653760, Note_on_c, 5, 76, 91
7, 653820, Note_on_c, 5, 77, 0
7, 654000, Note_on_c, 5, 74, 91
7, 654060, Note_on_c, 5, 76, 0
7, 654240, Note_on_c, 5, 72, 91
7, 654300, Note_on_c, 5, 74, 0
7, 654480, Note_on_c, 5, 70, 91
7, 654540, Note_on_c, 5, 72, 0
7, 654720, Note_on_c, 5, 69, 91
7, 654780, Note_on_c, 5, 70, 0
7, 654960, Note_on_c, 5, 69, 0
7, 654960, Note_on_c, 5, 74, 91
7, 655200, Note_on_c, 5, 72, 91
7, 655260, Note_on_c, 5, 74, 0
7, 655440, Note_on_c, 5, 70, 91
7, 655500, Note_on_c, 5, 72, 0
7, 655680, Note_on_c, 5, 69, 91
7, 655740, Note_on_c, 5, 70, 0
7, 655920, Note_on_c, 5, 67, 91
7, 655980, Note_on_c, 5, 69, 0
7, 656160, Note_on_c, 5, 65, 91
7, 656220, Note_on_c, 5, 67, 0
7, 656400, Note_on_c, 5, 65, 0
7, 656400, Note_on_c, 5, 57, 91
7, 656640, Note_on_c, 5, 58, 80
7, 656700, Note_on_c, 5, 57, 0
7, 656880, Note_on_c, 5, 60, 80
7, 656940, Note_on_c, 5, 58, 0
7, 657120, Note_on_c, 5, 62, 80
7, 657180, Note_on_c, 5, 60, 0
7, 657360, Note_on_c, 5, 59, 80
7, 657420, Note_on_c, 5, 62, 0
7, 657600, Note_on_c, 5, 59, 0
7, 657600, Note_on_c, 5, 60, 80
7, 658084, Note_on_c, 5, 60, 0
7, 659040, Note_on_c, 5, 69, 70
7, 659280, Note_on_c, 5, 69, 0
7, 659520, Note_on_c, 5, 69, 70
7, 659760, Note_on_c, 5, 69, 0
7, 660000, Note_on_c, 5, 69, 70
7, 660240, Note_on_c, 5, 69, 0
7, 660480, Note_on_c, 5, 67, 90
7, 661320, Note_on_c, 5, 64, 90
7, 661359, Note_on_c, 5, 67, 0
7, 661440, Note_on_c, 5, 65, 90
7, 661484, Note_on_c, 5, 64, 0
7, 661680, Note_on_c, 5, 65, 0
7, 661920, Note_on_c, 5, 69, 60
7, 661964, Note_on_c, 5, 69, 0
7, 662040, Note_on_c, 5, 70, 60
7, 662084, Note_on_c, 5, 70, 0
7, 662160, Note_on_c, 5, 72, 60
7, 662204, Note_on_c, 5, 72, 0
7, 662280, Note_on_c, 5, 74, 60
7, 662324, Note_on_c, 5, 74, 0
7, 662400, Note_on_c, 5, 72, 60
7, 662444, Note_on_c, 5, 72, 0
7, 662520, Note_on_c, 5, 74, 60
7, 662564, Note_on_c, 5, 74, 0
7, 662640, Note_on_c, 5, 76, 60
7, 662684, Note_on_c, 5, 76, 0
7, 662760, Note_on_c, 5, 77, 60
7, 662804, Note_on_c, 5, 77, 0
7, 662880, Note_on_c, 5, 76, 60
7, 662924, Note_on_c, 5, 76, 0
7, 663000, Note_on_c, 5, 77, 60
7, 663044, Note_on_c, 5, 77, 0
7, 663120, Note_on_c, 5, 76, 60
7, 663164, Note_on_c, 5, 76, 0
7, 663240, Note_on_c, 5, 77, 60
7, 663284, Note_on_c, 5, 77, 0
7, 663360, Note_on_c, 5, 70, 60
7, 664200, Note_on_c, 5, 72, 70
7, 664224, Note_on_c, 5, 70, 0
7, 664260, Note_on_c, 5, 74, 70
7, 664289, Note_on_c, 5, 72, 0
7, 664320, Note_on_c, 5, 72, 70
7, 664354, Note_on_c, 5, 74, 0
7, 664560, Note_on_c, 5, 72, 0
7, 664800, Note_on_c, 5, 69, 89
7, 665520, Note_on_c, 5, 70, 89
7, 665549, Note_on_c, 5, 69, 0
7, 665640, Note_on_c, 5, 72, 89
7, 665664, Note_on_c, 5, 70, 0
7, 665760, Note_on_c, 5, 72, 0
7, 665760, Note_on_c, 5, 76, 89
7, 665880, Note_on_c, 5, 74, 89
7, 665910, Note_on_c, 5, 76, 0
7, 666000, Note_on_c, 5, 72, 89
7, 666030, Note_on_c, 5, 74, 0
7, 666120, Note_on_c, 5, 70, 89
7, 666150, Note_on_c, 5, 72, 0
7, 666240, Note_on_c, 5, 70, 0
7, 666240, Note_on_c, 5, 69, 89
7, 666480, Note_on_c, 5, 69, 0
7, 666480, Note_on_c, 5, 67, 89
7, 666960, Note_on_c, 5, 69, 89
7, 666994, Note_on_c, 5, 67, 0
7, 667080, Note_on_c, 5, 70, 89
7, 667109, Note_on_c, 5, 69, 0
7, 667200, Note_on_c, 5, 70, 0
7, 667200, Note_on_c, 5, 74, 89
7, 667320, Note_on_c, 5, 72, 89
7, 667350, Note_on_c, 5, 74, 0
7, 667440, Note_on_c, 5, 70, 89
7, 667470, Note_on_c, 5, 72, 0
7, 667560, Note_on_c, 5, 69, 89
7, 667590, Note_on_c, 5, 70, 0
7, 667680, Note_on_c, 5, 69, 0
7, 667680, Note_on_c, 5, 67, 89
7, 667920, Note_on_c, 5, 67, 0
7, 667920, Note_on_c, 5, 65, 89
7, 668400, Note_on_c, 5, 67, 89
7, 668434, Note_on_c, 5, 65, 0
7, 668520, Note_on_c, 5, 69, 89
7, 668544, Note_on_c, 5, 67, 0
7, 668640, Note_on_c, 5, 69, 0
7, 668640, Note_on_c, 5, 70, 89
7, 668760, Note_on_c, 5, 72, 89
7, 668790, Note_on_c, 5, 70, 0
7, 668880, Note_on_c, 5, 74, 89
7, 668910, Note_on_c, 5, 72, 0
7, 669000, Note_on_c, 5, 70, 89
7, 669030, Note_on_c, 5, 74, 0
7, 669120, Note_on_c, 5, 70, 0
7, 669120, Note_on_c, 5, 69, 89
7, 669480, Note_on_c, 5, 67, 89
7, 669524, Note_on_c, 5, 69, 0
7, 669600, Note_on_c, 5, 67, 0
7, 669600, Note_on_c, 5, 67, 89
7, 670320, Note_on_c, 5, 69, 70
7, 670364, Note_on_c, 5, 67, 0
7, 670560, Note_on_c, 5, 69, 0
7, 670560, Note_on_c, 5, 70, 70
7, 670920, Note_on_c, 5, 72, 70
7, 670954, Note_on_c, 5, 70, 0
7, 670980, Note_on_c, 5, 74, 70
7, 671004, Note_on_c, 5, 72, 0
7, 671040, Note_on_c, 5, 74, 0
7, 671040, Note_on_c, 5, 65, 70
7, 671520, Note_on_c, 5, 69, 70
7, 671559, Note_on_c, 5, 65, 0
7, 671760, Note_on_c, 5, 67, 70
7, 671794, Note_on_c, 5, 69, 0
7, 672000, Note_on_c, 5, 67, 0
7, 672000, Note_on_c, 5, 65, 70
7, 672240, Note_on_c, 5, 65, 0
7, 672240, Note_on_c, 5, 77, 70
7, 672360, Note_on_c, 5, 76, 70
7, 672399, Note_on_c, 5, 77, 0
7, 672454, Note_on_c, 5, 76, 0
7, 672480, Note_on_c, 5, 76, 70
7, 672600, Note_on_c, 5, 74, 70
7, 672639, Note_on_c, 5, 76, 0
7, 672684, Note_on_c, 5, 74, 0
7, 672720, Note_on_c, 5, 74, 70
7, 672840, Note_on_c, 5, 72, 70
7, 672879, Note_on_c, 5, 74, 0
7, 672929, Note_on_c, 5, 72, 0
7, 672960, Note_on_c, 5, 72, 67
7, 673080, Note_on_c, 5, 71, 66
7, 673114, Note_on_c, 5, 72, 0
7, 673200, Note_on_c, 5, 74, 64
7, 673224, Note_on_c, 5, 71, 0
7, 673320, Note_on_c, 5, 72, 62
7, 673359, Note_on_c, 5, 74, 0
7, 673440, Note_on_c, 5, 72, 0
7, 673440, Note_on_c, 5, 70, 60
7, 673800, Note_on_c, 5, 72, 59
7, 673824, Note_on_c, 5, 70, 0
7, 673860, Note_on_c, 5, 74, 59
7, 673879, Note_on_c, 5, 72, 0
7, 673920, Note_on_c, 5, 74, 0
7, 673920, Note_on_c, 5, 65, 59
7, 674400, Note_on_c, 5, 69, 59
7, 674439, Note_on_c, 5, 65, 0
7, 674640, Note_on_c, 5, 67, 59
7, 674684, Note_on_c, 5, 69, 0
7, 674880, Note_on_c, 5, 67, 0
7, 674880, Note_on_c, 5, 65, 59
7, 675360, Note_on_c, 5, 65, 0
7, 677760, Note_on_c, 5, 60, 60
7, 678109, Note_on_c, 5, 60, 0
7, 678240, Note_on_c, 5, 60, 60
7, 678559, Note_on_c, 5, 60, 0
7, 678720, Note_on_c, 5, 60, 60
7, 679049, Note_on_c, 5, 60, 0
7, 679200, Note_on_c, 5, 60, 60
7, 680160, Note_on_c, 5, 60, 0
7, 681600, Note_on_c, 5, 76, 76
7, 681732, Note_on_c, 5, 76, 0
7, 682080, Note_on_c, 5, 76, 75
7, 682220, Note_on_c, 5, 76, 0
7, 682560, Note_on_c, 5, 76, 74
7, 683484, Note_on_c, 5, 76, 0
7, 683520, Note_on_c, 5, 79, 70
7, 683760, Note_on_c, 5, 77, 70
7, 683820, Note_on_c, 5, 79, 0
7, 683876, Note_on_c, 5, 77, 0
7, 684000, Note_on_c, 5, 76, 70
7, 684240, Note_on_c, 5, 77, 70
7, 684308, Note_on_c, 5, 76, 0
7, 684380, Note_on_c, 5, 77, 0
7, 684480, Note_on_c, 5, 79, 70
7, 684720, Note_on_c, 5, 76, 70
7, 684780, Note_on_c, 5, 79, 0
7, 684868, Note_on_c, 5, 76, 0
7, 684960, Note_on_c, 5, 72, 70
7, 685188, Note_on_c, 5, 72, 0
7, 685440, Note_on_c, 5, 84, 70
7, 686160, Note_on_c, 5, 83, 70
7, 686236, Note_on_c, 5, 84, 0
7, 686308, Note_on_c, 5, 83, 0
7, 686400, Note_on_c, 5, 83, 70
7, 686640, Note_on_c, 5, 81, 70
7, 686716, Note_on_c, 5, 83, 0
7, 686880, Note_on_c, 5, 79, 70
7, 686916, Note_on_c, 5, 81, 0
7, 687044, Note_on_c, 5, 79, 0
7, 687360, Note_on_c, 5, 84, 70
7, 688080, Note_on_c, 5, 83, 70
7, 688156, Note_on_c, 5, 84, 0
7, 688228, Note_on_c, 5, 83, 0
7, 688320, Note_on_c, 5, 83, 70
7, 688560, Note_on_c, 5, 81, 70
7, 688628, Note_on_c, 5, 83, 0
7, 688800, Note_on_c, 5, 79, 70
7, 688852, Note_on_c, 5, 81, 0
7, 689004, Note_on_c, 5, 79, 0
7, 689280, Note_on_c, 5, 72, 70
7, 689444, Note_on_c, 5, 72, 0
7, 689760, Note_on_c, 5, 72, 70
7, 689892, Note_on_c, 5, 72, 0
7, 690240, Note_on_c, 5, 72, 70
7, 691132, Note_on_c, 5, 72, 0
7, 691200, Note_on_c, 5, 76, 70
7, 691440, Note_on_c, 5, 74, 70
7, 691492, Note_on_c, 5, 76, 0
7, 691580, Note_on_c, 5, 74, 0
7, 691680, Note_on_c, 5, 72, 70
7, 691920, Note_on_c, 5, 74, 70
7, 691980, Note_on_c, 5, 72, 0
7, 692068, Note_on_c, 5, 74, 0
7, 692160, Note_on_c, 5, 76, 70
7, 692324, Note_on_c, 5, 76, 0
7, 692640, Note_on_c, 5, 76, 70
7, 692796, Note_on_c, 5, 76, 0
7, 693120, Note_on_c, 5, 79, 70
7, 693360, Note_on_c, 5, 77, 70
7, 693404, Note_on_c, 5, 79, 0
7, 693484, Note_on_c, 5, 77, 0
7, 693600, Note_on_c, 5, 76, 70
7, 693840, Note_on_c, 5, 77, 70
7, 693916, Note_on_c, 5, 76, 0
7, 693996, Note_on_c, 5, 77, 0
7, 694080, Note_on_c, 5, 79, 70
7, 694228, Note_on_c, 5, 79, 0
7, 694560, Note_on_c, 5, 79, 70
7, 694700, Note_on_c, 5, 79, 0
7, 695040, Note_on_c, 5, 81, 70
7, 695280, Note_on_c, 5, 79, 70
7, 695348, Note_on_c, 5, 81, 0
7, 695404, Note_on_c, 5, 79, 0
7, 695520, Note_on_c, 5, 77, 70
7, 695616, Note_on_c, 5, 77, 0
7, 695760, Note_on_c, 5, 76, 70
7, 695856, Note_on_c, 5, 76, 0
7, 696000, Note_on_c, 5, 76, 70
7, 696480, Note_on_c, 5, 74, 70
7, 696572, Note_on_c, 5, 76, 0
7, 696820, Note_on_c, 5, 74, 0
7, 697920, Note_on_c, 5, 72, 70
7, 698016, Note_on_c, 5, 72, 0
7, 698160, Note_on_c, 5, 67, 70
7, 698256, Note_on_c, 5, 67, 0
7, 698400, Note_on_c, 5, 72, 70
7, 698496, Note_on_c, 5, 72, 0
7, 698640, Note_on_c, 5, 67, 70
7, 698736, Note_on_c, 5, 67, 0
7, 698880, Note_on_c, 5, 71, 70
7, 698976, Note_on_c, 5, 71, 0
7, 699120, Note_on_c, 5, 67, 70
7, 699216, Note_on_c, 5, 67, 0
7, 699360, Note_on_c, 5, 71, 70
7, 699456, Note_on_c, 5, 71, 0
7, 699600, Note_on_c, 5, 67, 70
7, 699696, Note_on_c, 5, 67, 0
7, 699840, Note_on_c, 5, 72, 70
7, 699936, Note_on_c, 5, 72, 0
7, 700080, Note_on_c, 5, 76, 70
7, 700176, Note_on_c, 5, 76, 0
7, 700320, Note_on_c, 5, 79, 70
7, 700416, Note_on_c, 5, 79, 0
7, 700560, Note_on_c, 5, 76, 70
7, 700656, Note_on_c, 5, 76, 0
7, 700800, Note_on_c, 5, 72, 70
7, 701280, Note_on_c, 5, 72, 0
7, 701760, Note_on_c, 5, 72, 70
7, 702000, Note_on_c, 5, 71, 70
7, 702068, Note_on_c, 5, 72, 0
7, 702240, Note_on_c, 5, 72, 70
7, 702308, Note_on_c, 5, 71, 0
7, 702480, Note_on_c, 5, 71, 70
7, 702548, Note_on_c, 5, 72, 0
7, 702628, Note_on_c, 5, 71, 0
7, 702720, Note_on_c, 5, 72, 70
7, 703200, Note_on_c, 5, 72, 0
7, 703680, Note_on_c, 5, 84, 70
7, 703920, Note_on_c, 5, 83, 70
7, 703988, Note_on_c, 5, 84, 0
7, 704160, Note_on_c, 5, 84, 70
7, 704228, Note_on_c, 5, 83, 0
7, 704400, Note_on_c, 5, 83, 70
7, 704468, Note_on_c, 5, 84, 0
7, 704540, Note_on_c, 5, 83, 0
7, 704640, Note_on_c, 5, 84, 70
7, 705120, Note_on_c, 5, 84, 0
7, 706080, Note_on_c, 5, 79, 87
7, 706320, Note_on_c, 5, 76, 70
7, 706372, Note_on_c, 5, 79, 0
7, 706468, Note_on_c, 5, 76, 0
7, 707040, Note_on_c, 5, 77, 87
7, 707280, Note_on_c, 5, 74, 70
7, 707340, Note_on_c, 5, 77, 0
7, 707420, Note_on_c, 5, 74, 0
7, 708000, Note_on_c, 5, 76, 80
7, 708240, Note_on_c, 5, 72, 70
7, 708300, Note_on_c, 5, 76, 0
7, 708380, Note_on_c, 5, 72, 0
7, 708960, Note_on_c, 5, 74, 85
7, 709200, Note_on_c, 5, 71, 70
7, 709292, Note_on_c, 5, 74, 0
7, 709356, Note_on_c, 5, 71, 0
7, 709440, Note_on_c, 5, 72, 70
7, 709680, Note_on_c, 5, 67, 70
7, 709740, Note_on_c, 5, 72, 0
7, 709920, Note_on_c, 5, 64, 70
7, 710036, Note_on_c, 5, 67, 0
7, 710160, Note_on_c, 5, 67, 70
7, 710252, Note_on_c, 5, 64, 0
7, 710316, Note_on_c, 5, 67, 0
7, 710400, Note_on_c, 5, 67, 70
7, 710640, Note_on_c, 5, 65, 70
7, 710716, Note_on_c, 5, 67, 0
7, 710880, Note_on_c, 5, 64, 70
7, 710964, Note_on_c, 5, 65, 0
7, 711120, Note_on_c, 5, 62, 70
7, 711196, Note_on_c, 5, 64, 0
7, 711300, Note_on_c, 5, 62, 0
7, 711360, Note_on_c, 5, 60, 105
7, 711840, Note_on_c, 5, 60, 0
7, 712080, Note_on_c, 5, 84, 105
7, 712252, Note_on_c, 5, 84, 0
7, 712320, Note_on_c, 5, 84, 105
7, 712484, Note_on_c, 5, 84, 0
7, 712560, Note_on_c, 5, 84, 105
7, 712700, Note_on_c, 5, 84, 0
7, 712800, Note_on_c, 5, 84, 105
7, 712948, Note_on_c, 5, 84, 0
7, 713040, Note_on_c, 5, 84, 105
7, 713204, Note_on_c, 5, 84, 0
7, 713280, Note_on_c, 5, 83, 105
7, 713340, Note_on_c, 5, 84, 109
7, 713400, Note_on_c, 5, 86, 115
7, 713412, Note_on_c, 5, 83, 0
7, 713496, Note_on_c, 5, 84, 0
7, 713760, Note_on_c, 5, 86, 0
7, 714000, Note_on_c, 5, 77, 105
7, 714172, Note_on_c, 5, 77, 0
7, 714240, Note_on_c, 5, 77, 105
7, 714380, Note_on_c, 5, 77, 0
7, 714480, Note_on_c, 5, 77, 105
7, 714628, Note_on_c, 5, 77, 0
7, 714720, Note_on_c, 5, 77, 105
7, 714868, Note_on_c, 5, 77, 0
7, 714960, Note_on_c, 5, 77, 105
7, 715084, Note_on_c, 5, 77, 0
7, 715200, Note_on_c, 5, 76, 105
7, 715260, Note_on_c, 5, 77, 110
7, 715308, Note_on_c, 5, 76, 0
7, 715320, Note_on_c, 5, 79, 115
7, 715384, Note_on_c, 5, 77, 0
7, 715680, Note_on_c, 5, 79, 0
7, 715920, Note_on_c, 5, 84, 105
7, 716076, Note_on_c, 5, 84, 0
7, 716160, Note_on_c, 5, 84, 105
7, 716292, Note_on_c, 5, 84, 0
7, 716400, Note_on_c, 5, 84, 105
7, 716532, Note_on_c, 5, 84, 0
7, 716640, Note_on_c, 5, 84, 105
7, 716772, Note_on_c, 5, 84, 0
7, 716880, Note_on_c, 5, 84, 105
7, 717012, Note_on_c, 5, 84, 0
7, 717120, Note_on_c, 5, 83, 104
7, 717180, Note_on_c, 5, 84, 107
7, 717240, Note_on_c, 5, 86, 111
7, 717260, Note_on_c, 5, 83, 0
7, 717352, Note_on_c, 5, 84, 0
7, 717600, Note_on_c, 5, 86, 0
7, 717840, Note_on_c, 5, 77, 105
7, 717980, Note_on_c, 5, 77, 0
7, 718080, Note_on_c, 5, 77, 105
7, 718236, Note_on_c, 5, 77, 0
7, 718320, Note_on_c, 5, 77, 105
7, 718460, Note_on_c, 5, 77, 0
7, 718560, Note_on_c, 5, 77, 105
7, 718716, Note_on_c, 5, 77, 0
7, 718800, Note_on_c, 5, 77, 105
7, 718948, Note_on_c, 5, 77, 0
7, 719040, Note_on_c, 5, 76, 95
7, 719252, Note_on_c, 5, 76, 0
7, 719520, Note_on_c, 5, 77, 105
7, 720332, Note_on_c, 5, 77, 0
7, 720480, Note_on_c, 5, 76, 80
7, 720672, Note_on_c, 5, 76, 0
7, 720960, Note_on_c, 5, 81, 70
7, 721152, Note_on_c, 5, 81, 0
7, 721440, Note_on_c, 5, 79, 70
7, 721632, Note_on_c, 5, 79, 0
7, 721920, Note_on_c, 5, 77, 70
7, 722112, Note_on_c, 5, 77, 0
7, 722400, Note_on_c, 5, 76, 70
7, 722592, Note_on_c, 5, 76, 0
7, 722880, Note_on_c, 5, 74, 81
7, 723092, Note_on_c, 5, 74, 0
7, 723360, Note_on_c, 5, 77, 105
7, 724180, Note_on_c, 5, 77, 0
7, 724320, Note_on_c, 5, 76, 80
7, 724512, Note_on_c, 5, 76, 0
7, 724800, Note_on_c, 5, 81, 70
7, 724992, Note_on_c, 5, 81, 0
7, 725280, Note_on_c, 5, 79, 70
7, 725472, Note_on_c, 5, 79, 0
7, 725760, Note_on_c, 5, 77, 70
7, 725952, Note_on_c, 5, 77, 0
7, 726240, Note_on_c, 5, 76, 70
7, 726432, Note_on_c, 5, 76, 0
7, 726720, Note_on_c, 5, 74, 70
7, 727200, Note_on_c, 5, 74, 0
7, 727560, Note_on_c, 5, 76, 82
7, 727680, Note_on_c, 5, 74, 70
7, 727756, Note_on_c, 5, 76, 0
7, 728160, Note_on_c, 5, 74, 0
7, 728520, Note_on_c, 5, 76, 80
7, 728640, Note_on_c, 5, 74, 70
7, 728700, Note_on_c, 5, 76, 0
7, 729120, Note_on_c, 5, 74, 0
7, 729480, Note_on_c, 5, 76, 80
7, 729600, Note_on_c, 5, 74, 70
7, 729684, Note_on_c, 5, 76, 0
7, 730080, Note_on_c, 5, 74, 0
7, 730440, Note_on_c, 5, 76, 84
7, 730560, Note_on_c, 5, 74, 70
7, 730644, Note_on_c, 5, 76, 0
7, 731040, Note_on_c, 5, 74, 0
7, 734400, Note_on_c, 5, 79, 70
7, 735540, Note_on_c, 5, 79, 0
7, 735840, Note_on_c, 5, 84, 70
7, 735960, Note_on_c, 5, 76, 70
7, 736036, Note_on_c, 5, 84, 0
7, 736164, Note_on_c, 5, 76, 0
7, 736320, Note_on_c, 5, 79, 70
7, 736800, Note_on_c, 5, 77, 70
7, 736900, Note_on_c, 5, 79, 0
7, 737116, Note_on_c, 5, 77, 0
7, 738240, Note_on_c, 5, 76, 70
7, 739412, Note_on_c, 5, 76, 0
7, 739680, Note_on_c, 5, 77, 70
7, 739800, Note_on_c, 5, 81, 70
7, 739884, Note_on_c, 5, 77, 0
7, 740004, Note_on_c, 5, 81, 0
7, 740160, Note_on_c, 5, 72, 70
7, 740640, Note_on_c, 5, 71, 70
7, 740748, Note_on_c, 5, 72, 0
7, 740948, Note_on_c, 5, 71, 0
7, 742080, Note_on_c, 5, 72, 70
7, 743520, Note_on_c, 5, 74, 70
7, 743596, Note_on_c, 5, 72, 0
7, 743760, Note_on_c, 5, 76, 70
7, 743844, Note_on_c, 5, 74, 0
7, 743900, Note_on_c, 5, 76, 0
7, 744000, Note_on_c, 5, 77, 70
7, 745440, Note_on_c, 5, 79, 70
7, 745516, Note_on_c, 5, 77, 0
7, 745680, Note_on_c, 5, 81, 70
7, 745780, Note_on_c, 5, 79, 0
7, 745852, Note_on_c, 5, 81, 0
7, 745920, Note_on_c, 5, 79, 70
7, 746400, Note_on_c, 5, 72, 70
7, 746524, Note_on_c, 5, 79, 0
7, 746700, Note_on_c, 5, 72, 0
7, 746880, Note_on_c, 5, 74, 70
7, 747360, Note_on_c, 5, 77, 70
7, 747500, Note_on_c, 5, 74, 0
7, 747684, Note_on_c, 5, 77, 0
7, 747840, Note_on_c, 5, 75, 70
7, 748320, Note_on_c, 5, 76, 70
7, 748436, Note_on_c, 5, 75, 0
7, 748644, Note_on_c, 5, 76, 0
7, 749760, Note_on_c, 5, 72, 70
7, 751200, Note_on_c, 5, 74, 70
7, 751260, Note_on_c, 5, 72, 0
7, 751440, Note_on_c, 5, 76, 70
7, 751532, Note_on_c, 5, 74, 0
7, 751604, Note_on_c, 5, 76, 0
7, 751680, Note_on_c, 5, 77, 70
7, 752068, Note_on_c, 5, 77, 0
7, 752160, Note_on_c, 5, 77, 70
7, 752540, Note_on_c, 5, 77, 0
7, 752640, Note_on_c, 5, 77, 70
7, 753120, Note_on_c, 5, 79, 70
7, 753220, Note_on_c, 5, 77, 0
7, 753360, Note_on_c, 5, 81, 70
7, 753428, Note_on_c, 5, 79, 0
7, 753540, Note_on_c, 5, 81, 0
7, 753600, Note_on_c, 5, 79, 70
7, 753840, Note_on_c, 5, 81, 70
7, 753908, Note_on_c, 5, 79, 0
7, 754080, Note_on_c, 5, 83, 70
7, 754148, Note_on_c, 5, 81, 0
7, 754320, Note_on_c, 5, 84, 70
7, 754388, Note_on_c, 5, 83, 0
7, 754560, Note_on_c, 5, 83, 70
7, 754628, Note_on_c, 5, 84, 0
7, 754800, Note_on_c, 5, 84, 70
7, 754868, Note_on_c, 5, 83, 0
7, 755040, Note_on_c, 5, 83, 70
7, 755108, Note_on_c, 5, 84, 0
7, 755280, Note_on_c, 5, 84, 70
7, 755348, Note_on_c, 5, 83, 0
7, 755452, Note_on_c, 5, 84, 0
7, 755520, Note_on_c, 5, 80, 70
7, 755760, Note_on_c, 5, 81, 70
7, 755828, Note_on_c, 5, 80, 0
7, 756000, Note_on_c, 5, 80, 70
7, 756068, Note_on_c, 5, 81, 0
7, 756240, Note_on_c, 5, 81, 70
7, 756308, Note_on_c, 5, 80, 0
7, 756428, Note_on_c, 5, 81, 0
7, 756480, Note_on_c, 5, 76, 70
7, 756720, Note_on_c, 5, 77, 70
7, 756788, Note_on_c, 5, 76, 0
7, 756960, Note_on_c, 5, 76, 70
7, 757028, Note_on_c, 5, 77, 0
7, 757200, Note_on_c, 5, 77, 70
7, 757268, Note_on_c, 5, 76, 0
7, 757380, Note_on_c, 5, 77, 0
7, 757440, Note_on_c, 5, 76, 70
7, 757920, Note_on_c, 5, 79, 70
7, 758004, Note_on_c, 5, 76, 0
7, 758796, Note_on_c, 5, 79, 0
7, 758880, Note_on_c, 5, 77, 70
7, 759084, Note_on_c, 5, 77, 0
7, 759120, Note_on_c, 5, 76, 70
7, 759308, Note_on_c, 5, 76, 0
7, 759360, Note_on_c, 5, 76, 70
7, 759600, Note_on_c, 5, 74, 70
7, 759644, Note_on_c, 5, 76, 0
7, 759840, Note_on_c, 5, 72, 70
7, 759892, Note_on_c, 5, 74, 0
7, 760800, Note_on_c, 5, 71, 70
7, 760900, Note_on_c, 5, 72, 0
7, 761140, Note_on_c, 5, 71, 0
7, 761280, Note_on_c, 5, 72, 70
7, 761612, Note_on_c, 5, 72, 0
7, 761760, Note_on_c, 5, 60, 105
7, 761856, Note_on_c, 5, 60, 0
7, 762000, Note_on_c, 5, 60, 105
7, 762096, Note_on_c, 5, 60, 0
7, 762240, Note_on_c, 5, 59, 105
7, 762480, Note_on_c, 5, 62, 105
7, 762556, Note_on_c, 5, 59, 0
7, 762620, Note_on_c, 5, 62, 0
7, 762720, Note_on_c, 5, 65, 105
7, 762816, Note_on_c, 5, 65, 0
7, 762960, Note_on_c, 5, 65, 105
7, 763056, Note_on_c, 5, 65, 0
7, 763200, Note_on_c, 5, 64, 105
7, 763440, Note_on_c, 5, 67, 105
7, 763508, Note_on_c, 5, 64, 0
7, 763596, Note_on_c, 5, 67, 0
7, 763680, Note_on_c, 5, 72, 105
7, 763776, Note_on_c, 5, 72, 0
7, 763920, Note_on_c, 5, 72, 105
7, 764016, Note_on_c, 5, 72, 0
7, 764160, Note_on_c, 5, 71, 105
7, 764400, Note_on_c, 5, 74, 105
7, 764484, Note_on_c, 5, 71, 0
7, 764532, Note_on_c, 5, 74, 0
7, 764640, Note_on_c, 5, 77, 105
7, 764736, Note_on_c, 5, 77, 0
7, 764880, Note_on_c, 5, 77, 105
7, 764976, Note_on_c, 5, 77, 0
7, 765120, Note_on_c, 5, 76, 105
7, 765452, Note_on_c, 5, 76, 0
7, 765520, Note_on_c, 5, 64, 104
7, 765560, Note_on_c, 5, 72, 105
7, 765600, Note_on_c, 5, 79, 109
7, 765708, Note_on_c, 5, 64, 0
7, 766080, Note_on_c, 5, 79, 0
7, 766084, Note_on_c, 5, 72, 0
7, 766560, Note_on_c, 5, 83, 105
7, 767040, Note_on_c, 5, 83, 0
7, 767520, Note_on_c, 5, 84, 105
7, 768000, Note_on_c, 5, 84, 0
7, 768480, Note_on_c, 5, 77, 105
7, 768892, Note_on_c, 5, 77, 0
7, 768960, Note_on_c, 5, 76, 105
7, 769332, Note_on_c, 5, 76, 0
7, 769336, Note_on_c, 5, 64, 105
7, 769392, Note_on_c, 5, 72, 112
7, 769440, Note_on_c, 5, 79, 113
7, 769548, Note_on_c, 5, 64, 0
7, 769872, Note_on_c, 5, 72, 0
7, 769920, Note_on_c, 5, 79, 0
7, 770400, Note_on_c, 5, 83, 105
7, 770880, Note_on_c, 5, 83, 0
7, 771360, Note_on_c, 5, 84, 105
7, 771840, Note_on_c, 5, 84, 0
7, 772320, Note_on_c, 5, 77, 105
7, 772748, Note_on_c, 5, 77, 0
7, 772800, Note_on_c, 5, 76, 105
7, 773228, Note_on_c, 5, 76, 0
7, 773640, Note_on_c, 5, 76, 105
7, 773640, Note_on_c, 5, 84, 105
7, 773724, Note_on_c, 5, 84, 0
7, 773724, Note_on_c, 5, 76, 0
7, 773760, Note_on_c, 5, 76, 113
7, 773760, Note_on_c, 5, 84, 113
7, 774240, Note_on_c, 5, 84, 0
7, 774240, Note_on_c, 5, 76, 0
7, 774600, Note_on_c, 5, 76, 105
7, 774600, Note_on_c, 5, 84, 105
7, 774684, Note_on_c, 5, 84, 0
7, 774700, Note_on_c, 5, 76, 0
7, 774720, Note_on_c, 5, 74, 117
7, 774720, Note_on_c, 5, 84, 117
7, 775200, Note_on_c, 5, 84, 0
7, 775200, Note_on_c, 5, 74, 0
7, 775560, Note_on_c, 5, 74, 105
7, 775560, Note_on_c, 5, 84, 105
7, 775652, Note_on_c, 5, 84, 0
7, 775652, Note_on_c, 5, 74, 0
7, 775680, Note_on_c, 5, 74, 115
7, 775680, Note_on_c, 5, 83, 115
7, 776160, Note_on_c, 5, 83, 0
7, 776160, Note_on_c, 5, 74, 0
7, 776520, Note_on_c, 5, 74, 105
7, 776520, Note_on_c, 5, 83, 105
7, 776604, Note_on_c, 5, 83, 0
7, 776604, Note_on_c, 5, 74, 0
7, 776640, Note_on_c, 5, 76, 114
7, 776640, Note_on_c, 5, 84, 114
7, 777524, Note_on_c, 5, 84, 0
7, 777524, Note_on_c, 5, 76, 0
7, 777600, Note_on_c, 5, 60, 118
7, 777840, Note_on_c, 5, 55, 105
7, 777892, Note_on_c, 5, 60, 0
7, 777988, Note_on_c, 5, 55, 0
7, 778080, Note_on_c, 5, 64, 105
7, 778176, Note_on_c, 5, 64, 0
7, 778320, Note_on_c, 5, 64, 105
7, 778416, Note_on_c, 5, 64, 0
7, 778560, Note_on_c, 5, 64, 120
7, 778800, Note_on_c, 5, 60, 105
7, 778876, Note_on_c, 5, 64, 0
7, 778956, Note_on_c, 5, 60, 0
7, 779040, Note_on_c, 5, 67, 105
7, 779136, Note_on_c, 5, 67, 0
7, 779280, Note_on_c, 5, 67, 105
7, 779376, Note_on_c, 5, 67, 0
7, 779520, Note_on_c, 5, 67, 118
7, 779760, Note_on_c, 5, 64, 105
7, 779820, Note_on_c, 5, 67, 0
7, 779900, Note_on_c, 5, 64, 0
7, 780000, Note_on_c, 5, 72, 105
7, 780096, Note_on_c, 5, 72, 0
7, 780240, Note_on_c, 5, 72, 105
7, 780336, Note_on_c, 5, 72, 0
7, 780480, Note_on_c, 5, 72, 117
7, 781188, Note_on_c, 5, 72, 0
7, 784800, Note_on_c, 5, 79, 72
7, 784896, Note_on_c, 5, 79, 0
7, 785280, Note_on_c, 5, 79, 85
7, 785376, Note_on_c, 5, 79, 0
7, 785760, Note_on_c, 5, 79, 75
7, 785856, Note_on_c, 5, 79, 0
7, 786240, Note_on_c, 5, 79, 90
7, 786336, Note_on_c, 5, 79, 0
7, 786720, Note_on_c, 5, 79, 79
7, 786816, Note_on_c, 5, 79, 0
7, 787200, Note_on_c, 5, 79, 95
7, 787296, Note_on_c, 5, 79, 0
7, 787680, Note_on_c, 5, 79, 82
7, 787776, Note_on_c, 5, 79, 0
7, 788160, Note_on_c, 5, 79, 99
7, 788256, Note_on_c, 5, 79, 0
7, 788640, Note_on_c, 5, 79, 85
7, 788736, Note_on_c, 5, 79, 0
7, 789120, Note_on_c, 5, 79, 97
7, 789216, Note_on_c, 5, 79, 0
7, 789600, Note_on_c, 5, 79, 89
7, 789696, Note_on_c, 5, 79, 0
7, 790080, Note_on_c, 5, 79, 91
7, 790800, Note_on_c, 5, 76, 94
7, 790868, Note_on_c, 5, 79, 0
7, 790964, Note_on_c, 5, 76, 0
7, 791040, Note_on_c, 5, 84, 94
7, 791520, Note_on_c, 5, 84, 0
7, 827520, Note_on_c, 5, 64, 105
7, 827520, Note_on_c, 5, 72, 105
7, 827900, Note_on_c, 5, 72, 0
7, 827900, Note_on_c, 5, 64, 0
7, 828000, Note_on_c, 5, 72, 105
7, 828000, Note_on_c, 5, 76, 105
7, 828016, Note_on_c, 5, 67, 105
7, 828428, Note_on_c, 5, 67, 0
7, 828428, Note_on_c, 5, 76, 0
7, 828428, Note_on_c, 5, 72, 0
7, 828480, Note_on_c, 5, 72, 105
7, 828480, Note_on_c, 5, 79, 105
7, 828960, Note_on_c, 5, 79, 0
7, 828960, Note_on_c, 5, 72, 0
7, 829440, Note_on_c, 5, 72, 105
7, 829440, Note_on_c, 5, 76, 105
7, 829448, Note_on_c, 5, 67, 105
7, 829820, Note_on_c, 5, 72, 0
7, 829828, Note_on_c, 5, 67, 0
7, 829828, Note_on_c, 5, 76, 0
7, 829920, Note_on_c, 5, 79, 105
7, 830340, Note_on_c, 5, 79, 0
7, 830400, Note_on_c, 5, 76, 105
7, 830400, Note_on_c, 5, 84, 105
7, 830880, Note_on_c, 5, 84, 0
7, 830880, Note_on_c, 5, 76, 0
7, 832320, Note_on_c, 5, 65, 70
7, 832752, Note_on_c, 5, 65, 0
7, 832800, Note_on_c, 5, 65, 70
7, 833232, Note_on_c, 5, 65, 0
7, 833280, Note_on_c, 5, 65, 70
7, 833712, Note_on_c, 5, 65, 0
7, 833760, Note_on_c, 5, 65, 70
7, 834192, Note_on_c, 5, 65, 0
7, 834240, Note_on_c, 5, 64, 70
7, 836052, Note_on_c, 5, 64, 0
7, 836160, Note_on_c, 5, 64, 70
7, 836592, Note_on_c, 5, 64, 0
7, 836640, Note_on_c, 5, 64, 70
7, 837072, Note_on_c, 5, 64, 0
7, 837120, Note_on_c, 5, 62, 70
7, 837552, Note_on_c, 5, 62, 0
7, 837600, Note_on_c, 5, 62, 70
7, 838032, Note_on_c, 5, 62, 0
7, 838080, Note_on_c, 5, 60, 70
7, 839040, Note_on_c, 5, 67, 70
7, 839132, Note_on_c, 5, 60, 0
7, 839892, Note_on_c, 5, 67, 0
7, 840000, Note_on_c, 5, 65, 84
7, 840240, Note_on_c, 5, 60, 70
7, 840308, Note_on_c, 5, 65, 0
7, 840480, Note_on_c, 5, 65, 87
7, 840548, Note_on_c, 5, 60, 0
7, 840720, Note_on_c, 5, 60, 70
7, 840788, Note_on_c, 5, 65, 0
7, 840960, Note_on_c, 5, 65, 82
7, 841028, Note_on_c, 5, 60, 0
7, 841200, Note_on_c, 5, 60, 70
7, 841268, Note_on_c, 5, 65, 0
7, 841440, Note_on_c, 5, 65, 82
7, 841508, Note_on_c, 5, 60, 0
7, 841680, Note_on_c, 5, 60, 70
7, 841748, Note_on_c, 5, 65, 0
7, 841860, Note_on_c, 5, 60, 0
7, 841920, Note_on_c, 5, 64, 76
7, 843732, Note_on_c, 5, 64, 0
7, 843840, Note_on_c, 5, 64, 92
7, 844080, Note_on_c, 5, 55, 70
7, 844148, Note_on_c, 5, 64, 0
7, 844320, Note_on_c, 5, 64, 91
7, 844388, Note_on_c, 5, 55, 0
7, 844560, Note_on_c, 5, 55, 70
7, 844628, Note_on_c, 5, 64, 0
7, 844800, Note_on_c, 5, 62, 82
7, 844868, Note_on_c, 5, 55, 0
7, 845040, Note_on_c, 5, 55, 70
7, 845108, Note_on_c, 5, 62, 0
7, 845280, Note_on_c, 5, 62, 80
7, 845348, Note_on_c, 5, 55, 0
7, 845520, Note_on_c, 5, 55, 70
7, 845588, Note_on_c, 5, 62, 0
7, 845700, Note_on_c, 5, 55, 0
7, 846240, Note_on_c, 5, 72, 70
7, 847108, Note_on_c, 5, 72, 0
7, 847200, Note_on_c, 5, 72, 70
7, 848076, Note_on_c, 5, 72, 0
7, 848160, Note_on_c, 5, 72, 70
7, 849052, Note_on_c, 5, 72, 0
7, 849120, Note_on_c, 5, 72, 70
7, 849600, Note_on_c, 5, 72, 0
7, 849600, Note_on_c, 5, 77, 70
7, 850036, Note_on_c, 5, 77, 0
7, 850080, Note_on_c, 5, 76, 70
7, 850500, Note_on_c, 5, 76, 0
7, 850560, Note_on_c, 5, 74, 70
7, 851040, Note_on_c, 5, 72, 70
7, 851116, Note_on_c, 5, 74, 0
7, 851364, Note_on_c, 5, 72, 0
7, 851520, Note_on_c, 5, 76, 70
7, 852240, Note_on_c, 5, 72, 70
7, 852316, Note_on_c, 5, 76, 0
7, 852412, Note_on_c, 5, 72, 0
7, 852480, Note_on_c, 5, 71, 70
7, 852960, Note_on_c, 5, 71, 0
7, 870240, Note_on_c, 5, 67, 70
7, 870300, Note_on_c, 5, 67, 0
7, 870300, Note_on_c, 5, 66, 70
7, 870360, Note_on_c, 5, 66, 0
7, 870360, Note_on_c, 5, 67, 70
7, 870420, Note_on_c, 5, 67, 0
7, 870420, Note_on_c, 5, 66, 70
7, 870480, Note_on_c, 5, 66, 0
7, 870480, Note_on_c, 5, 67, 70
7, 870540, Note_on_c, 5, 67, 0
7, 870540, Note_on_c, 5, 66, 70
7, 870600, Note_on_c, 5, 66, 0
7, 870600, Note_on_c, 5, 67, 70
7, 870660, Note_on_c, 5, 67, 0
7, 870660, Note_on_c, 5, 66, 70
7, 870720, Note_on_c, 5, 66, 0
7, 870720, Note_on_c, 5, 67, 70
7, 871200, Note_on_c, 5, 67, 0
7, 871200, Note_on_c, 5, 71, 70
7, 871392, Note_on_c, 5, 71, 0
7, 871680, Note_on_c, 5, 69, 70
7, 871872, Note_on_c, 5, 69, 0
7, 872160, Note_on_c, 5, 72, 70
7, 872352, Note_on_c, 5, 72, 0
7, 872640, Note_on_c, 5, 71, 70
7, 873120, Note_on_c, 5, 71, 0
7, 873120, Note_on_c, 5, 74, 70
7, 873600, Note_on_c, 5, 74, 0
7, 874080, Note_on_c, 5, 67, 70
7, 874140, Note_on_c, 5, 67, 0
7, 874140, Note_on_c, 5, 66, 70
7, 874200, Note_on_c, 5, 66, 0
7, 874200, Note_on_c, 5, 67, 70
7, 874260, Note_on_c, 5, 67, 0
7, 874260, Note_on_c, 5, 66, 70
7, 874320, Note_on_c, 5, 66, 0
7, 874320, Note_on_c, 5, 67, 70
7, 874380, Note_on_c, 5, 67, 0
7, 874380, Note_on_c, 5, 66, 70
7, 874440, Note_on_c, 5, 66, 0
7, 874440, Note_on_c, 5, 67, 70
7, 874500, Note_on_c, 5, 67, 0
7, 874500, Note_on_c, 5, 66, 70
7, 874560, Note_on_c, 5, 66, 0
7, 874560, Note_on_c, 5, 67, 70
7, 875040, Note_on_c, 5, 67, 0
7, 875040, Note_on_c, 5, 71, 70
7, 875232, Note_on_c, 5, 71, 0
7, 875520, Note_on_c, 5, 69, 70
7, 875712, Note_on_c, 5, 69, 0
7, 876000, Note_on_c, 5, 72, 70
7, 876192, Note_on_c, 5, 72, 0
7, 876480, Note_on_c, 5, 71, 70
7, 876960, Note_on_c, 5, 71, 0
7, 876960, Note_on_c, 5, 74, 70
7, 877920, Note_on_c, 5, 74, 0
7, 877920, Note_on_c, 5, 72, 70
7, 878880, Note_on_c, 5, 72, 0
7, 878880, Note_on_c, 5, 71, 70
7, 879840, Note_on_c, 5, 71, 0
7, 879840, Note_on_c, 5, 69, 70
7, 880800, Note_on_c, 5, 69, 0
7, 880800, Note_on_c, 5, 67, 70
7, 881760, Note_on_c, 5, 67, 0
7, 881760, Note_on_c, 5, 66, 70
7, 882240, Note_on_c, 5, 66, 0
7, 882240, Note_on_c, 5, 64, 90
7, 882240, Note_on_c, 5, 73, 90
7, 883200, Note_on_c, 5, 73, 0
7, 883200, Note_on_c, 5, 64, 0
7, 884160, Note_on_c, 5, 62, 90
7, 884160, Note_on_c, 5, 74, 90
7, 885120, Note_on_c, 5, 74, 0
7, 885120, Note_on_c, 5, 62, 0
7, 886080, Note_on_c, 5, 64, 90
7, 886080, Note_on_c, 5, 73, 90
7, 887040, Note_on_c, 5, 73, 0
7, 887040, Note_on_c, 5, 64, 0
7, 888000, Note_on_c, 5, 62, 70
7, 888000, Note_on_c, 5, 74, 70
7, 888480, Note_on_c, 5, 74, 0
7, 888480, Note_on_c, 5, 62, 0
7, 890160, Note_on_c, 5, 62, 70
7, 890400, Note_on_c, 5, 62, 0
7, 890400, Note_on_c, 5, 66, 70
7, 890640, Note_on_c, 5, 66, 0
7, 890640, Note_on_c, 5, 69, 70
7, 890880, Note_on_c, 5, 69, 0
7, 890880, Note_on_c, 5, 74, 70
7, 891120, Note_on_c, 5, 74, 0
7, 891120, Note_on_c, 5, 73, 70
7, 891360, Note_on_c, 5, 73, 0
7, 891360, Note_on_c, 5, 74, 70
7, 891600, Note_on_c, 5, 74, 0
7, 891600, Note_on_c, 5, 73, 70
7, 891840, Note_on_c, 5, 73, 0
7, 891840, Note_on_c, 5, 74, 105
7, 892080, Note_on_c, 5, 74, 0
7, 892080, Note_on_c, 5, 73, 105
7, 892320, Note_on_c, 5, 73, 0
7, 892320, Note_on_c, 5, 74, 105
7, 892560, Note_on_c, 5, 74, 0
7, 892560, Note_on_c, 5, 76, 105
7, 892800, Note_on_c, 5, 76, 0
7, 892800, Note_on_c, 5, 72, 105
7, 893040, Note_on_c, 5, 72, 0
7, 893040, Note_on_c, 5, 71, 105
7, 893280, Note_on_c, 5, 71, 0
7, 893280, Note_on_c, 5, 72, 105
7, 893520, Note_on_c, 5, 72, 0
7, 893520, Note_on_c, 5, 74, 105
7, 893760, Note_on_c, 5, 74, 0
7, 893760, Note_on_c, 5, 71, 105
7, 894000, Note_on_c, 5, 71, 0
7, 894000, Note_on_c, 5, 70, 105
7, 894240, Note_on_c, 5, 70, 0
7, 894240, Note_on_c, 5, 71, 105
7, 894480, Note_on_c, 5, 71, 0
7, 894480, Note_on_c, 5, 72, 105
7, 894720, Note_on_c, 5, 72, 0
7, 894720, Note_on_c, 5, 69, 105
7, 894960, Note_on_c, 5, 69, 0
7, 894960, Note_on_c, 5, 68, 105
7, 895200, Note_on_c, 5, 68, 0
7, 895200, Note_on_c, 5, 69, 105
7, 895440, Note_on_c, 5, 69, 0
7, 895440, Note_on_c, 5, 71, 105
7, 895680, Note_on_c, 5, 71, 0
7, 895680, Note_on_c, 5, 67, 105
7, 896160, Note_on_c, 5, 67, 0
7, 897600, Note_on_c, 5, 66, 70
7, 898560, Note_on_c, 5, 66, 0
7, 898560, Note_on_c, 5, 67, 70
7, 899040, Note_on_c, 5, 67, 0
7, 899520, Note_on_c, 5, 66, 70
7, 900480, Note_on_c, 5, 66, 0
7, 900480, Note_on_c, 5, 67, 70
7, 900960, Note_on_c, 5, 67, 0
7, 900960, Note_on_c, 5, 72, 70
7, 901440, Note_on_c, 5, 72, 0
7, 901440, Note_on_c, 5, 71, 70
7, 902400, Note_on_c, 5, 71, 0
7, 902400, Note_on_c, 5, 69, 70
7, 902880, Note_on_c, 5, 69, 0
7, 903360, Note_on_c, 5, 57, 70
7, 903840, Note_on_c, 5, 57, 0
7, 905280, Note_on_c, 5, 59, 70
7, 906240, Note_on_c, 5, 59, 0
7, 906240, Note_on_c, 5, 60, 70
7, 906720, Note_on_c, 5, 60, 0
7, 907200, Note_on_c, 5, 71, 70
7, 908160, Note_on_c, 5, 71, 0
7, 908160, Note_on_c, 5, 72, 70
7, 908640, Note_on_c, 5, 72, 0
7, 908640, Note_on_c, 5, 74, 70
7, 909120, Note_on_c, 5, 74, 0
7, 909120, Note_on_c, 5, 72, 70
7, 910080, Note_on_c, 5, 72, 0
7, 910080, Note_on_c, 5, 71, 70
7, 910560, Note_on_c, 5, 71, 0
7, 911520, Note_on_c, 5, 62, 70
7, 912000, Note_on_c, 5, 62, 0
7, 912000, Note_on_c, 5, 74, 70
7, 912480, Note_on_c, 5, 74, 0
7, 912480, Note_on_c, 5, 71, 70
7, 912960, Note_on_c, 5, 71, 0
7, 912960, Note_on_c, 5, 69, 70
7, 913440, Note_on_c, 5, 69, 0
7, 914160, Note_on_c, 5, 76, 70
7, 914400, Note_on_c, 5, 76, 0
7, 914400, Note_on_c, 5, 72, 70
7, 914640, Note_on_c, 5, 72, 0
7, 914640, Note_on_c, 5, 69, 70
7, 914880, Note_on_c, 5, 69, 0
7, 914880, Note_on_c, 5, 67, 70
7, 915360, Note_on_c, 5, 67, 0
7, 916080, Note_on_c, 5, 74, 70
7, 916320, Note_on_c, 5, 74, 0
7, 916320, Note_on_c, 5, 71, 70
7, 916560, Note_on_c, 5, 71, 0
7, 916560, Note_on_c, 5, 67, 70
7, 916800, Note_on_c, 5, 67, 0
7, 916800, Note_on_c, 5, 66, 70
7, 917280, Note_on_c, 5, 66, 0
7, 918000, Note_on_c, 5, 62, 70
7, 918240, Note_on_c, 5, 62, 0
7, 918240, Note_on_c, 5, 64, 70
7, 918480, Note_on_c, 5, 64, 0
7, 918480, Note_on_c, 5, 66, 70
7, 918720, Note_on_c, 5, 66, 0
7, 918720, Note_on_c, 5, 67, 70
7, 919200, Note_on_c, 5, 67, 0
7, 919200, Note_on_c, 5, 66, 70
7, 919200, Note_on_c, 5, 69, 70
7, 919680, Note_on_c, 5, 69, 0
7, 919680, Note_on_c, 5, 66, 0
7, 919680, Note_on_c, 5, 67, 70
7, 920160, Note_on_c, 5, 67, 0
7, 920160, Note_on_c, 5, 66, 70
7, 920160, Note_on_c, 5, 69, 70
7, 920640, Note_on_c, 5, 69, 0
7, 920640, Note_on_c, 5, 66, 0
7, 920640, Note_on_c, 5, 67, 70
7, 921120, Note_on_c, 5, 67, 0
7, 921600, Note_on_c, 5, 69, 70
7, 922080, Note_on_c, 5, 69, 0
7, 922560, Note_on_c, 5, 69, 70
7, 922800, Note_on_c, 5, 69, 0
7, 922800, Note_on_c, 5, 72, 70
7, 923040, Note_on_c, 5, 72, 0
7, 923040, Note_on_c, 5, 71, 70
7, 923280, Note_on_c, 5, 71, 0
7, 923280, Note_on_c, 5, 72, 70
7, 923520, Note_on_c, 5, 72, 0
7, 923520, Note_on_c, 5, 74, 70
7, 923760, Note_on_c, 5, 74, 0
7, 923760, Note_on_c, 5, 72, 70
7, 924000, Note_on_c, 5, 72, 0
7, 924000, Note_on_c, 5, 71, 70
7, 924240, Note_on_c, 5, 71, 0
7, 924240, Note_on_c, 5, 72, 70
7, 924480, Note_on_c, 5, 72, 0
7, 924480, Note_on_c, 5, 71, 70
7, 924960, Note_on_c, 5, 71, 0
7, 941760, Note_on_c, 5, 67, 70
7, 942240, Note_on_c, 5, 67, 0
7, 942240, Note_on_c, 5, 71, 70
7, 942720, Note_on_c, 5, 71, 0
7, 942720, Note_on_c, 5, 74, 70
7, 943200, Note_on_c, 5, 74, 0
7, 943200, Note_on_c, 5, 79, 70
7, 943680, Note_on_c, 5, 79, 0
7, 943680, Note_on_c, 5, 76, 70
7, 944160, Note_on_c, 5, 76, 0
7, 944160, Note_on_c, 5, 72, 70
7, 944640, Note_on_c, 5, 72, 0
7, 944640, Note_on_c, 5, 69, 70
7, 945120, Note_on_c, 5, 69, 0
7, 945120, Note_on_c, 5, 64, 70
7, 945600, Note_on_c, 5, 64, 0
7, 945600, Note_on_c, 5, 74, 70
7, 946080, Note_on_c, 5, 74, 0
7, 946080, Note_on_c, 5, 71, 70
7, 946560, Note_on_c, 5, 71, 0
7, 946560, Note_on_c, 5, 67, 70
7, 947040, Note_on_c, 5, 67, 0
7, 947040, Note_on_c, 5, 62, 70
7, 947520, Note_on_c, 5, 62, 0
7, 947520, Note_on_c, 5, 72, 70
7, 948000, Note_on_c, 5, 72, 0
7, 948000, Note_on_c, 5, 69, 70
7, 948480, Note_on_c, 5, 69, 0
7, 948480, Note_on_c, 5, 66, 70
7, 948960, Note_on_c, 5, 66, 0
7, 948960, Note_on_c, 5, 60, 70
7, 949440, Note_on_c, 5, 60, 0
7, 949440, Note_on_c, 5, 59, 70
7, 949920, Note_on_c, 5, 59, 0
7, 951360, Note_on_c, 5, 71, 70
7, 951360, Note_on_c, 5, 79, 70
7, 951840, Note_on_c, 5, 79, 0
7, 951840, Note_on_c, 5, 71, 0
7, 953280, Note_on_c, 5, 62, 70
7, 953760, Note_on_c, 5, 62, 0
7, 953760, Note_on_c, 5, 84, 70
7, 954240, Note_on_c, 5, 84, 0
7, 954240, Note_on_c, 5, 62, 70
7, 954720, Note_on_c, 5, 62, 0
7, 954720, Note_on_c, 5, 72, 70
7, 954720, Note_on_c, 5, 81, 70
7, 955200, Note_on_c, 5, 81, 0
7, 955200, Note_on_c, 5, 72, 0
7, 955200, Note_on_c, 5, 71, 70
7, 955200, Note_on_c, 5, 79, 70
7, 955680, Note_on_c, 5, 79, 0
7, 955680, Note_on_c, 5, 71, 0
7, 960000, Note_on_c, 5, 69, 70
7, 960000, Note_on_c, 5, 78, 70
7, 960480, Note_on_c, 5, 78, 0
7, 960480, Note_on_c, 5, 69, 0
7, 960960, Note_on_c, 5, 71, 70
7, 960960, Note_on_c, 5, 79, 70
7, 961440, Note_on_c, 5, 79, 0
7, 961440, Note_on_c, 5, 71, 0
7, 961920, Note_on_c, 5, 74, 70
7, 961920, Note_on_c, 5, 81, 70
7, 962400, Note_on_c, 5, 81, 0
7, 962400, Note_on_c, 5, 74, 0
7, 962880, Note_on_c, 5, 74, 70
7, 962880, Note_on_c, 5, 83, 70
7, 963360, Note_on_c, 5, 83, 0
7, 963360, Note_on_c, 5, 74, 0
7, 963840, Note_on_c, 5, 69, 70
7, 963840, Note_on_c, 5, 78, 70
7, 964320, Note_on_c, 5, 78, 0
7, 964320, Note_on_c, 5, 69, 0
7, 964800, Note_on_c, 5, 71, 70
7, 964800, Note_on_c, 5, 79, 70
7, 965280, Note_on_c, 5, 79, 0
7, 965280, Note_on_c, 5, 71, 0
7, 965760, Note_on_c, 5, 74, 70
7, 965760, Note_on_c, 5, 81, 70
7, 966240, Note_on_c, 5, 81, 0
7, 966240, Note_on_c, 5, 74, 0
7, 966720, Note_on_c, 5, 74, 70
7, 966720, Note_on_c, 5, 83, 70
7, 967200, Note_on_c, 5, 83, 0
7, 967200, Note_on_c, 5, 74, 0
7, 974880, Note_on_c, 5, 86, 70
7, 975360, Note_on_c, 5, 86, 0
7, 975840, Note_on_c, 5, 79, 70
7, 976320, Note_on_c, 5, 79, 0
7, 976800, Note_on_c, 5, 76, 70
7, 977280, Note_on_c, 5, 76, 0
7, 977760, Note_on_c, 5, 72, 70
7, 978240, Note_on_c, 5, 72, 0
7, 978240, Note_on_c, 5, 72, 90
7, 979200, Note_on_c, 5, 72, 0
7, 979200, Note_on_c, 5, 71, 70
7, 979680, Note_on_c, 5, 71, 0
7, 982080, Note_on_c, 5, 72, 90
7, 983040, Note_on_c, 5, 72, 0
7, 983040, Note_on_c, 5, 71, 70
7, 983520, Note_on_c, 5, 71, 0
7, 985920, Note_on_c, 5, 71, 70
7, 986160, Note_on_c, 5, 71, 0
7, 986160, Note_on_c, 5, 74, 70
7, 986400, Note_on_c, 5, 74, 0
7, 986400, Note_on_c, 5, 71, 70
7, 986640, Note_on_c, 5, 71, 0
7, 986640, Note_on_c, 5, 74, 70
7, 986880, Note_on_c, 5, 74, 0
7, 986880, Note_on_c, 5, 71, 70
7, 987120, Note_on_c, 5, 71, 0
7, 987120, Note_on_c, 5, 74, 70
7, 987360, Note_on_c, 5, 74, 0
7, 987360, Note_on_c, 5, 72, 70
7, 987600, Note_on_c, 5, 72, 0
7, 987600, Note_on_c, 5, 74, 70
7, 987840, Note_on_c, 5, 74, 0
7, 987840, Note_on_c, 5, 71, 70
7, 988080, Note_on_c, 5, 71, 0
7, 988080, Note_on_c, 5, 74, 70
7, 988320, Note_on_c, 5, 74, 0
7, 988320, Note_on_c, 5, 72, 70
7, 988560, Note_on_c, 5, 72, 0
7, 988560, Note_on_c, 5, 74, 70
7, 988800, Note_on_c, 5, 74, 0
7, 988800, Note_on_c, 5, 71, 70
7, 989040, Note_on_c, 5, 71, 0
7, 989040, Note_on_c, 5, 74, 70
7, 989280, Note_on_c, 5, 74, 0
7, 989280, Note_on_c, 5, 72, 70
7, 989520, Note_on_c, 5, 72, 0
7, 989520, Note_on_c, 5, 74, 70
7, 989760, Note_on_c, 5, 74, 0
7, 989760, Note_on_c, 5, 71, 70
7, 990000, Note_on_c, 5, 71, 0
7, 990000, Note_on_c, 5, 74, 70
7, 990240, Note_on_c, 5, 74, 0
7, 990240, Note_on_c, 5, 71, 70
7, 990480, Note_on_c, 5, 71, 0
7, 990480, Note_on_c, 5, 74, 70
7, 990720, Note_on_c, 5, 74, 0
7, 990720, Note_on_c, 5, 71, 70
7, 990960, Note_on_c, 5, 71, 0
7, 990960, Note_on_c, 5, 74, 70
7, 991200, Note_on_c, 5, 74, 0
7, 991200, Note_on_c, 5, 71, 70
7, 991440, Note_on_c, 5, 71, 0
7, 991440, Note_on_c, 5, 74, 70
7, 991680, Note_on_c, 5, 74, 0
7, 991680, Note_on_c, 5, 71, 70
7, 991920, Note_on_c, 5, 71, 0
7, 991920, Note_on_c, 5, 74, 70
7, 992160, Note_on_c, 5, 74, 0
7, 992160, Note_on_c, 5, 71, 70
7, 992400, Note_on_c, 5, 71, 0
7, 992400, Note_on_c, 5, 74, 70
7, 992640, Note_on_c, 5, 74, 0
7, 992640, Note_on_c, 5, 72, 70
7, 992880, Note_on_c, 5, 72, 0
7, 992880, Note_on_c, 5, 74, 70
7, 993120, Note_on_c, 5, 74, 0
7, 993120, Note_on_c, 5, 72, 70
7, 993360, Note_on_c, 5, 72, 0
7, 993360, Note_on_c, 5, 74, 70
7, 993600, Note_on_c, 5, 74, 0
7, 993600, Note_on_c, 5, 71, 70
7, 994560, Note_on_c, 5, 71, 0
7, 995040, Note_on_c, 5, 78, 70
7, 995520, Note_on_c, 5, 78, 0
7, 995520, Note_on_c, 5, 79, 70
7, 996000, Note_on_c, 5, 79, 0
7, 996000, Note_on_c, 5, 78, 70
7, 996480, Note_on_c, 5, 78, 0
7, 996480, Note_on_c, 5, 79, 70
7, 996960, Note_on_c, 5, 79, 0
7, 996960, Note_on_c, 5, 78, 70
7, 997440, Note_on_c, 5, 78, 0
7, 997440, Note_on_c, 5, 79, 70
7, 997920, Note_on_c, 5, 79, 0
7, 998400, Note_on_c, 5, 67, 70
7, 998880, Note_on_c, 5, 67, 0
7, 998880, Note_on_c, 5, 71, 70
7, 999360, Note_on_c, 5, 71, 0
7, 999360, Note_on_c, 5, 74, 70
7, 999840, Note_on_c, 5, 74, 0
7, 1000320, Note_on_c, 5, 62, 70
7, 1000800, Note_on_c, 5, 62, 0
7, 1001280, Note_on_c, 5, 67, 70
7, 1001760, Note_on_c, 5, 67, 0
7, 1006080, Note_on_c, 5, 72, 70
7, 1007040, Note_on_c, 5, 72, 0
7, 1007040, Note_on_c, 5, 71, 70
7, 1008000, Note_on_c, 5, 71, 0
7, 1008000, Note_on_c, 5, 69, 70
7, 1008960, Note_on_c, 5, 69, 0
7, 1008960, Note_on_c, 5, 67, 70
7, 1009920, Note_on_c, 5, 67, 0
7, 1009920, Note_on_c, 5, 72, 70
7, 1010880, Note_on_c, 5, 72, 0
7, 1010880, Note_on_c, 5, 71, 70
7, 1011840, Note_on_c, 5, 71, 0
7, 1011840, Note_on_c, 5, 69, 70
7, 1012800, Note_on_c, 5, 69, 0
7, 1012800, Note_on_c, 5, 67, 70
7, 1013280, Note_on_c, 5, 67, 0
7, 1021440, Note_on_c, 5, 62, 70
7, 1021680, Note_on_c, 5, 62, 0
7, 1021680, Note_on_c, 5, 65, 70
7, 1021920, Note_on_c, 5, 65, 0
7, 1021920, Note_on_c, 5, 64, 70
7, 1022160, Note_on_c, 5, 64, 0
7, 1022160, Note_on_c, 5, 67, 70
7, 1022400, Note_on_c, 5, 67, 0
7, 1022400, Note_on_c, 5, 65, 70
7, 1022880, Note_on_c, 5, 65, 0
7, 1027200, Note_on_c, 5, 62, 70
7, 1027440, Note_on_c, 5, 62, 0
7, 1027440, Note_on_c, 5, 65, 70
7, 1027680, Note_on_c, 5, 65, 0
7, 1027680, Note_on_c, 5, 64, 70
7, 1027920, Note_on_c, 5, 64, 0
7, 1027920, Note_on_c, 5, 67, 70
7, 1028160, Note_on_c, 5, 67, 0
7, 1028160, Note_on_c, 5, 65, 70
7, 1028640, Note_on_c, 5, 65, 0
7, 1044480, Note_on_c, 5, 76, 105
7, 1044672, Note_on_c, 5, 76, 0
7, 1044960, Note_on_c, 5, 76, 105
7, 1045152, Note_on_c, 5, 76, 0
7, 1045440, Note_on_c, 5, 76, 105
7, 1046400, Note_on_c, 5, 76, 0
7, 1046400, Note_on_c, 5, 79, 105
7, 1046640, Note_on_c, 5, 79, 0
7, 1046640, Note_on_c, 5, 77, 105
7, 1046880, Note_on_c, 5, 77, 0
7, 1046880, Note_on_c, 5, 76, 105
7, 1047120, Note_on_c, 5, 76, 0
7, 1047120, Note_on_c, 5, 77, 105
7, 1047360, Note_on_c, 5, 77, 0
7, 1047360, Note_on_c, 5, 79, 105
7, 1047600, Note_on_c, 5, 79, 0
7, 1047600, Note_on_c, 5, 76, 105
7, 1047840, Note_on_c, 5, 76, 0
7, 1047840, Note_on_c, 5, 72, 105
7, 1048320, Note_on_c, 5, 72, 0
7, 1048320, Note_on_c, 5, 84, 105
7, 1049040, Note_on_c, 5, 84, 0
7, 1049040, Note_on_c, 5, 83, 105
7, 1049280, Note_on_c, 5, 83, 0
7, 1049280, Note_on_c, 5, 83, 105
7, 1049520, Note_on_c, 5, 83, 0
7, 1049520, Note_on_c, 5, 81, 105
7, 1049760, Note_on_c, 5, 81, 0
7, 1049760, Note_on_c, 5, 79, 105
7, 1050240, Note_on_c, 5, 79, 0
7, 1050240, Note_on_c, 5, 84, 105
7, 1050960, Note_on_c, 5, 84, 0
7, 1050960, Note_on_c, 5, 83, 105
7, 1051200, Note_on_c, 5, 83, 0
7, 1051200, Note_on_c, 5, 83, 105
7, 1051440, Note_on_c, 5, 83, 0
7, 1051440, Note_on_c, 5, 81, 105
7, 1051680, Note_on_c, 5, 81, 0
7, 1051680, Note_on_c, 5, 79, 105
7, 1052160, Note_on_c, 5, 79, 0
7, 1052160, Note_on_c, 5, 72, 105
7, 1052640, Note_on_c, 5, 72, 0
7, 1052640, Note_on_c, 5, 72, 105
7, 1053120, Note_on_c, 5, 72, 0
7, 1053120, Note_on_c, 5, 72, 105
7, 1054080, Note_on_c, 5, 72, 0
7, 1054080, Note_on_c, 5, 76, 105
7, 1054320, Note_on_c, 5, 76, 0
7, 1054320, Note_on_c, 5, 74, 105
7, 1054560, Note_on_c, 5, 74, 0
7, 1054560, Note_on_c, 5, 72, 105
7, 1054800, Note_on_c, 5, 72, 0
7, 1054800, Note_on_c, 5, 74, 105
7, 1055040, Note_on_c, 5, 74, 0
7, 1055040, Note_on_c, 5, 76, 105
7, 1055520, Note_on_c, 5, 76, 0
7, 1055520, Note_on_c, 5, 76, 105
7, 1056000, Note_on_c, 5, 76, 0
7, 1056000, Note_on_c, 5, 79, 105
7, 1056240, Note_on_c, 5, 79, 0
7, 1056240, Note_on_c, 5, 77, 105
7, 1056480, Note_on_c, 5, 77, 0
7, 1056480, Note_on_c, 5, 76, 105
7, 1056720, Note_on_c, 5, 76, 0
7, 1056720, Note_on_c, 5, 77, 105
7, 1056960, Note_on_c, 5, 77, 0
7, 1056960, Note_on_c, 5, 79, 105
7, 1057440, Note_on_c, 5, 79, 0
7, 1057440, Note_on_c, 5, 76, 105
7, 1057920, Note_on_c, 5, 76, 0
7, 1057920, Note_on_c, 5, 79, 105
7, 1058160, Note_on_c, 5, 79, 0
7, 1058160, Note_on_c, 5, 77, 105
7, 1058400, Note_on_c, 5, 77, 0
7, 1058400, Note_on_c, 5, 76, 105
7, 1058640, Note_on_c, 5, 76, 0
7, 1058640, Note_on_c, 5, 74, 105
7, 1058880, Note_on_c, 5, 74, 0
7, 1059360, Note_on_c, 5, 60, 105
7, 1059456, Note_on_c, 5, 60, 0
7, 1059600, Note_on_c, 5, 60, 105
7, 1059696, Note_on_c, 5, 60, 0
7, 1059840, Note_on_c, 5, 59, 105
7, 1060080, Note_on_c, 5, 59, 0
7, 1060080, Note_on_c, 5, 62, 105
7, 1060320, Note_on_c, 5, 62, 0
7, 1060320, Note_on_c, 5, 65, 105
7, 1060416, Note_on_c, 5, 65, 0
7, 1060560, Note_on_c, 5, 65, 105
7, 1060656, Note_on_c, 5, 65, 0
7, 1060800, Note_on_c, 5, 64, 105
7, 1061040, Note_on_c, 5, 64, 0
7, 1061040, Note_on_c, 5, 67, 105
7, 1061280, Note_on_c, 5, 67, 0
7, 1061280, Note_on_c, 5, 72, 105
7, 1061376, Note_on_c, 5, 72, 0
7, 1061520, Note_on_c, 5, 72, 105
7, 1061616, Note_on_c, 5, 72, 0
7, 1061760, Note_on_c, 5, 71, 105
7, 1062000, Note_on_c, 5, 71, 0
7, 1062000, Note_on_c, 5, 74, 105
7, 1062240, Note_on_c, 5, 74, 0
7, 1062240, Note_on_c, 5, 77, 105
7, 1062336, Note_on_c, 5, 77, 0
7, 1062480, Note_on_c, 5, 77, 105
7, 1062576, Note_on_c, 5, 77, 0
7, 1062720, Note_on_c, 5, 76, 105
7, 1063200, Note_on_c, 5, 76, 0
7, 1063200, Note_on_c, 5, 72, 105
7, 1063200, Note_on_c, 5, 79, 105
7, 1063680, Note_on_c, 5, 79, 0
7, 1063680, Note_on_c, 5, 72, 0
7, 1064160, Note_on_c, 5, 83, 105
7, 1064640, Note_on_c, 5, 83, 0
7, 1065120, Note_on_c, 5, 84, 105
7, 1065600, Note_on_c, 5, 84, 0
7, 1066080, Note_on_c, 5, 79, 105
7, 1066560, Note_on_c, 5, 79, 0
7, 1066560, Note_on_c, 5, 76, 105
7, 1067040, Note_on_c, 5, 76, 0
7, 1067040, Note_on_c, 5, 64, 105
7, 1067040, Note_on_c, 5, 72, 105
7, 1067040, Note_on_c, 5, 79, 105
7, 1067520, Note_on_c, 5, 79, 0
7, 1067520, Note_on_c, 5, 72, 0
7, 1067520, Note_on_c, 5, 64, 0
7, 1068000, Note_on_c, 5, 83, 105
7, 1068480, Note_on_c, 5, 83, 0
7, 1068960, Note_on_c, 5, 84, 105
7, 1069440, Note_on_c, 5, 84, 0
7, 1069920, Note_on_c, 5, 64, 105
7, 1069920, Note_on_c, 5, 74, 105
7, 1070400, Note_on_c, 5, 74, 0
7, 1070400, Note_on_c, 5, 64, 0
7, 1070400, Note_on_c, 5, 64, 105
7, 1070400, Note_on_c, 5, 72, 105
7, 1070880, Note_on_c, 5, 72, 0
7, 1070880, Note_on_c, 5, 64, 0
7, 1070880, Note_on_c, 5, 76, 105
7, 1071360, Note_on_c, 5, 76, 0
7, 1071840, Note_on_c, 5, 64, 105
7, 1071840, Note_on_c, 5, 71, 105
7, 1071840, Note_on_c, 5, 80, 105
7, 1072320, Note_on_c, 5, 80, 0
7, 1072320, Note_on_c, 5, 71, 0
7, 1072320, Note_on_c, 5, 64, 0
7, 1072800, Note_on_c, 5, 64, 105
7, 1072800, Note_on_c, 5, 72, 105
7, 1072800, Note_on_c, 5, 81, 105
7, 1073280, Note_on_c, 5, 81, 0
7, 1073280, Note_on_c, 5, 72, 0
7, 1073280, Note_on_c, 5, 64, 0
7, 1073760, Note_on_c, 5, 67, 105
7, 1073760, Note_on_c, 5, 70, 105
7, 1074240, Note_on_c, 5, 70, 0
7, 1074240, Note_on_c, 5, 67, 0
7, 1074240, Note_on_c, 5, 65, 105
7, 1074240, Note_on_c, 5, 69, 105
7, 1074720, Note_on_c, 5, 69, 0
7, 1074720, Note_on_c, 5, 65, 0
7, 1074720, Note_on_c, 5, 72, 105
7, 1075200, Note_on_c, 5, 72, 0
7, 1075680, Note_on_c, 5, 76, 105
7, 1076160, Note_on_c, 5, 76, 0
7, 1076640, Note_on_c, 5, 77, 105
7, 1077120, Note_on_c, 5, 77, 0
7, 1077600, Note_on_c, 5, 64, 105
7, 1077600, Note_on_c, 5, 72, 105
7, 1077600, Note_on_c, 5, 82, 105
7, 1078080, Note_on_c, 5, 82, 0
7, 1078080, Note_on_c, 5, 72, 0
7, 1078080, Note_on_c, 5, 64, 0
7, 1078080, Note_on_c, 5, 65, 105
7, 1078080, Note_on_c, 5, 72, 105
7, 1078080, Note_on_c, 5, 81, 105
7, 1078560, Note_on_c, 5, 81, 0
7, 1078560, Note_on_c, 5, 72, 0
7, 1078560, Note_on_c, 5, 65, 0
7, 1078560, Note_on_c, 5, 65, 70
7, 1078800, Note_on_c, 5, 65, 0
7, 1078800, Note_on_c, 5, 57, 70
7, 1079040, Note_on_c, 5, 57, 0
7, 1079040, Note_on_c, 5, 65, 70
7, 1079280, Note_on_c, 5, 65, 0
7, 1079280, Note_on_c, 5, 57, 70
7, 1079520, Note_on_c, 5, 57, 0
7, 1079520, Note_on_c, 5, 65, 70
7, 1079760, Note_on_c, 5, 65, 0
7, 1079760, Note_on_c, 5, 57, 70
7, 1080000, Note_on_c, 5, 57, 0
7, 1080000, Note_on_c, 5, 65, 70
7, 1080240, Note_on_c, 5, 65, 0
7, 1080240, Note_on_c, 5, 57, 70
7, 1080480, Note_on_c, 5, 57, 0
7, 1080480, Note_on_c, 5, 65, 70
7, 1080720, Note_on_c, 5, 65, 0
7, 1080720, Note_on_c, 5, 57, 70
7, 1080960, Note_on_c, 5, 57, 0
7, 1080960, Note_on_c, 5, 65, 70
7, 1081200, Note_on_c, 5, 65, 0
7, 1081200, Note_on_c, 5, 57, 70
7, 1081440, Note_on_c, 5, 57, 0
7, 1081440, Note_on_c, 5, 65, 70
7, 1081680, Note_on_c, 5, 65, 0
7, 1081680, Note_on_c, 5, 57, 70
7, 1081920, Note_on_c, 5, 57, 0
7, 1081920, Note_on_c, 5, 65, 70
7, 1082160, Note_on_c, 5, 65, 0
7, 1082160, Note_on_c, 5, 57, 70
7, 1082400, Note_on_c, 5, 57, 0
7, 1082400, Note_on_c, 5, 65, 70
7, 1082640, Note_on_c, 5, 65, 0
7, 1082640, Note_on_c, 5, 57, 70
7, 1082880, Note_on_c, 5, 57, 0
7, 1082880, Note_on_c, 5, 65, 70
7, 1083120, Note_on_c, 5, 65, 0
7, 1083120, Note_on_c, 5, 57, 70
7, 1083360, Note_on_c, 5, 57, 0
7, 1083360, Note_on_c, 5, 65, 70
7, 1083600, Note_on_c, 5, 65, 0
7, 1083600, Note_on_c, 5, 57, 70
7, 1083840, Note_on_c, 5, 57, 0
7, 1083840, Note_on_c, 5, 65, 70
7, 1084080, Note_on_c, 5, 65, 0
7, 1084080, Note_on_c, 5, 58, 70
7, 1084320, Note_on_c, 5, 58, 0
7, 1084320, Note_on_c, 5, 65, 70
7, 1084560, Note_on_c, 5, 65, 0
7, 1084560, Note_on_c, 5, 58, 70
7, 1084800, Note_on_c, 5, 58, 0
7, 1084800, Note_on_c, 5, 65, 70
7, 1085040, Note_on_c, 5, 65, 0
7, 1085040, Note_on_c, 5, 57, 70
7, 1085280, Note_on_c, 5, 57, 0
7, 1085280, Note_on_c, 5, 65, 70
7, 1085520, Note_on_c, 5, 65, 0
7, 1085520, Note_on_c, 5, 57, 70
7, 1085760, Note_on_c, 5, 57, 0
7, 1085760, Note_on_c, 5, 60, 70
7, 1087680, Note_on_c, 5, 60, 0
7, 1087920, Note_on_c, 5, 74, 70
7, 1088160, Note_on_c, 5, 74, 0
7, 1088160, Note_on_c, 5, 72, 70
7, 1088400, Note_on_c, 5, 72, 0
7, 1088400, Note_on_c, 5, 74, 70
7, 1088640, Note_on_c, 5, 74, 0
7, 1088640, Note_on_c, 5, 70, 70
7, 1088880, Note_on_c, 5, 70, 0
7, 1088880, Note_on_c, 5, 69, 70
7, 1089120, Note_on_c, 5, 69, 0
7, 1089120, Note_on_c, 5, 67, 70
7, 1089360, Note_on_c, 5, 67, 0
7, 1089360, Note_on_c, 5, 65, 70
7, 1089600, Note_on_c, 5, 65, 0
7, 1089600, Note_on_c, 5, 64, 70
7, 1089840, Note_on_c, 5, 64, 0
7, 1089840, Note_on_c, 5, 65, 70
7, 1090080, Note_on_c, 5, 65, 0
7, 1090080, Note_on_c, 5, 67, 70
7, 1090320, Note_on_c, 5, 67, 0
7, 1090320, Note_on_c, 5, 65, 70
7, 1090560, Note_on_c, 5, 65, 0
7, 1090560, Note_on_c, 5, 69, 70
7, 1090800, Note_on_c, 5, 69, 0
7, 1090800, Note_on_c, 5, 67, 70
7, 1091040, Note_on_c, 5, 67, 0
7, 1091040, Note_on_c, 5, 65, 70
7, 1091280, Note_on_c, 5, 65, 0
7, 1091280, Note_on_c, 5, 64, 70
7, 1091520, Note_on_c, 5, 64, 0
7, 1091520, Note_on_c, 5, 65, 70
7, 1092000, Note_on_c, 5, 65, 0
7, 1093440, Note_on_c, 5, 65, 70
7, 1093680, Note_on_c, 5, 65, 0
7, 1093680, Note_on_c, 5, 57, 70
7, 1093920, Note_on_c, 5, 57, 0
7, 1093920, Note_on_c, 5, 65, 70
7, 1094160, Note_on_c, 5, 65, 0
7, 1094160, Note_on_c, 5, 57, 70
7, 1094400, Note_on_c, 5, 57, 0
7, 1094400, Note_on_c, 5, 65, 70
7, 1094640, Note_on_c, 5, 65, 0
7, 1094640, Note_on_c, 5, 57, 70
7, 1094880, Note_on_c, 5, 57, 0
7, 1094880, Note_on_c, 5, 65, 70
7, 1095120, Note_on_c, 5, 65, 0
7, 1095120, Note_on_c, 5, 57, 70
7, 1095360, Note_on_c, 5, 57, 0
7, 1095360, Note_on_c, 5, 65, 70
7, 1095600, Note_on_c, 5, 65, 0
7, 1095600, Note_on_c, 5, 57, 70
7, 1095840, Note_on_c, 5, 57, 0
7, 1095840, Note_on_c, 5, 65, 70
7, 1096080, Note_on_c, 5, 65, 0
7, 1096080, Note_on_c, 5, 57, 70
7, 1096320, Note_on_c, 5, 57, 0
7, 1096320, Note_on_c, 5, 65, 70
7, 1096560, Note_on_c, 5, 65, 0
7, 1096560, Note_on_c, 5, 57, 70
7, 1096800, Note_on_c, 5, 57, 0
7, 1096800, Note_on_c, 5, 65, 70
7, 1097040, Note_on_c, 5, 65, 0
7, 1097040, Note_on_c, 5, 57, 70
7, 1097280, Note_on_c, 5, 57, 0
7, 1097280, Note_on_c, 5, 65, 70
7, 1097520, Note_on_c, 5, 65, 0
7, 1097520, Note_on_c, 5, 57, 70
7, 1097760, Note_on_c, 5, 57, 0
7, 1097760, Note_on_c, 5, 65, 70
7, 1098000, Note_on_c, 5, 65, 0
7, 1098000, Note_on_c, 5, 57, 70
7, 1098240, Note_on_c, 5, 57, 0
7, 1098240, Note_on_c, 5, 65, 70
7, 1098480, Note_on_c, 5, 65, 0
7, 1098480, Note_on_c, 5, 57, 70
7, 1098720, Note_on_c, 5, 57, 0
7, 1098720, Note_on_c, 5, 65, 70
7, 1098960, Note_on_c, 5, 65, 0
7, 1098960, Note_on_c, 5, 57, 70
7, 1099200, Note_on_c, 5, 57, 0
7, 1099200, Note_on_c, 5, 65, 70
7, 1099440, Note_on_c, 5, 65, 0
7, 1099440, Note_on_c, 5, 58, 70
7, 1099680, Note_on_c, 5, 58, 0
7, 1099680, Note_on_c, 5, 65, 70
7, 1099920, Note_on_c, 5, 65, 0
7, 1099920, Note_on_c, 5, 58, 70
7, 1100160, Note_on_c, 5, 58, 0
7, 1100160, Note_on_c, 5, 65, 70
7, 1100400, Note_on_c, 5, 65, 0
7, 1100400, Note_on_c, 5, 57, 70
7, 1100640, Note_on_c, 5, 57, 0
7, 1100640, Note_on_c, 5, 65, 70
7, 1100880, Note_on_c, 5, 65, 0
7, 1100880, Note_on_c, 5, 57, 70
7, 1101120, Note_on_c, 5, 57, 0
7, 1101120, Note_on_c, 5, 60, 70
7, 1103040, Note_on_c, 5, 60, 0
7, 1103040, Note_on_c, 5, 67, 70
7, 1104960, Note_on_c, 5, 67, 0
7, 1104960, Note_on_c, 5, 69, 70
7, 1105920, Note_on_c, 5, 69, 0
7, 1105920, Note_on_c, 5, 69, 70
7, 1105980, Note_on_c, 5, 69, 0
7, 1105980, Note_on_c, 5, 67, 70
7, 1106040, Note_on_c, 5, 67, 0
7, 1106040, Note_on_c, 5, 69, 70
7, 1106100, Note_on_c, 5, 69, 0
7, 1106100, Note_on_c, 5, 67, 70
7, 1106160, Note_on_c, 5, 67, 0
7, 1106160, Note_on_c, 5, 69, 70
7, 1106220, Note_on_c, 5, 69, 0
7, 1106220, Note_on_c, 5, 67, 70
7, 1106280, Note_on_c, 5, 67, 0
7, 1106280, Note_on_c, 5, 69, 70
7, 1106340, Note_on_c, 5, 69, 0
7, 1106340, Note_on_c, 5, 67, 70
7, 1106400, Note_on_c, 5, 67, 0
7, 1106400, Note_on_c, 5, 69, 70
7, 1106460, Note_on_c, 5, 69, 0
7, 1106460, Note_on_c, 5, 67, 70
7, 1106520, Note_on_c, 5, 67, 0
7, 1106520, Note_on_c, 5, 69, 70
7, 1106580, Note_on_c, 5, 69, 0
7, 1106580, Note_on_c, 5, 67, 70
7, 1106640, Note_on_c, 5, 67, 0
7, 1106640, Note_on_c, 5, 65, 70
7, 1106760, Note_on_c, 5, 65, 0
7, 1106760, Note_on_c, 5, 67, 70
7, 1106880, Note_on_c, 5, 67, 0
7, 1106880, Note_on_c, 5, 65, 70
7, 1107360, Note_on_c, 5, 65, 0
7, 1152960, Note_on_c, 5, 63, 70
7, 1153200, Note_on_c, 5, 63, 0
7, 1153200, Note_on_c, 5, 60, 70
7, 1153440, Note_on_c, 5, 60, 0
7, 1153440, Note_on_c, 5, 63, 70
7, 1153680, Note_on_c, 5, 63, 0
7, 1153680, Note_on_c, 5, 60, 70
7, 1153920, Note_on_c, 5, 60, 0
7, 1153920, Note_on_c, 5, 62, 70
7, 1154160, Note_on_c, 5, 62, 0
7, 1154160, Note_on_c, 5, 59, 70
7, 1154400, Note_on_c, 5, 59, 0
7, 1154400, Note_on_c, 5, 62, 70
7, 1154640, Note_on_c, 5, 62, 0
7, 1154640, Note_on_c, 5, 59, 70
7, 1154880, Note_on_c, 5, 59, 0
7, 1154880, Note_on_c, 5, 60, 70
7, 1155360, Note_on_c, 5, 60, 0
7, 1156800, Note_on_c, 5, 62, 70
7, 1157040, Note_on_c, 5, 62, 0
7, 1157040, Note_on_c, 5, 59, 70
7, 1157280, Note_on_c, 5, 59, 0
7, 1157280, Note_on_c, 5, 62, 70
7, 1157520, Note_on_c, 5, 62, 0
7, 1157520, Note_on_c, 5, 59, 70
7, 1157760, Note_on_c, 5, 59, 0
7, 1157760, Note_on_c, 5, 63, 70
7, 1158000, Note_on_c, 5, 63, 0
7, 1158000, Note_on_c, 5, 60, 70
7, 1158240, Note_on_c, 5, 60, 0
7, 1158240, Note_on_c, 5, 63, 70
7, 1158480, Note_on_c, 5, 63, 0
7, 1158480, Note_on_c, 5, 60, 70
7, 1158720, Note_on_c, 5, 60, 0
7, 1158720, Note_on_c, 5, 62, 70
7, 1159200, Note_on_c, 5, 62, 0
7, 1163040, Note_on_c, 5, 72, 70
7, 1163520, Note_on_c, 5, 72, 0
7, 1163520, Note_on_c, 5, 75, 70
7, 1164000, Note_on_c, 5, 75, 0
7, 1164000, Note_on_c, 5, 66, 70
7, 1164480, Note_on_c, 5, 66, 0
7, 1164960, Note_on_c, 5, 66, 70
7, 1165920, Note_on_c, 5, 66, 0
7, 1165920, Note_on_c, 5, 66, 70
7, 1166400, Note_on_c, 5, 66, 0
7, 1166880, Note_on_c, 5, 71, 70
7, 1167360, Note_on_c, 5, 71, 0
7, 1167360, Note_on_c, 5, 74, 70
7, 1167840, Note_on_c, 5, 74, 0
7, 1167840, Note_on_c, 5, 71, 70
7, 1168320, Note_on_c, 5, 71, 0
7, 1168800, Note_on_c, 5, 79, 70
7, 1169280, Note_on_c, 5, 79, 0
7, 1169280, Note_on_c, 5, 78, 70
7, 1169760, Note_on_c, 5, 78, 0
7, 1169760, Note_on_c, 5, 79, 70
7, 1170240, Note_on_c, 5, 79, 0
7, 1170720, Note_on_c, 5, 72, 70
7, 1171200, Note_on_c, 5, 72, 0
7, 1171200, Note_on_c, 5, 75, 70
7, 1171680, Note_on_c, 5, 75, 0
7, 1171680, Note_on_c, 5, 66, 70
7, 1172160, Note_on_c, 5, 66, 0
7, 1172640, Note_on_c, 5, 63, 70
7, 1173120, Note_on_c, 5, 63, 0
7, 1173120, Note_on_c, 5, 60, 70
7, 1173600, Note_on_c, 5, 60, 0
7, 1173600, Note_on_c, 5, 72, 70
7, 1174080, Note_on_c, 5, 72, 0
7, 1174080, Note_on_c, 5, 71, 70
7, 1174560, Note_on_c, 5, 71, 0
7, 1174560, Note_on_c, 5, 79, 70
7, 1174752, Note_on_c, 5, 79, 0
7, 1176480, Note_on_c, 5, 79, 70
7, 1176672, Note_on_c, 5, 79, 0
7, 1178400, Note_on_c, 5, 79, 70
7, 1178880, Note_on_c, 5, 79, 0
7, 1179360, Note_on_c, 5, 79, 70
7, 1179840, Note_on_c, 5, 79, 0
7, 1179840, Note_on_c, 5, 79, 70
7, 1180080, Note_on_c, 5, 79, 0
7, 1180320, Note_on_c, 5, 79, 70
7, 1180560, Note_on_c, 5, 79, 0
7, 1180800, Note_on_c, 5, 79, 70
7, 1181040, Note_on_c, 5, 79, 0
7, 1181280, Note_on_c, 5, 79, 70
7, 1181520, Note_on_c, 5, 79, 0
7, 1181760, Note_on_c, 5, 79, 70
7, 1182240, Note_on_c, 5, 79, 0
7, 1197120, Note_on_c, 5, 67, 70
7, 1201920, Note_on_c, 5, 67, 0
7, 1202400, Note_on_c, 5, 72, 70
7, 1202460, Note_on_c, 5, 72, 0
7, 1202460, Note_on_c, 5, 71, 70
7, 1202520, Note_on_c, 5, 71, 0
7, 1202520, Note_on_c, 5, 72, 70
7, 1202580, Note_on_c, 5, 72, 0
7, 1202580, Note_on_c, 5, 71, 70
7, 1202640, Note_on_c, 5, 71, 0
7, 1202640, Note_on_c, 5, 69, 70
7, 1202760, Note_on_c, 5, 69, 0
7, 1202760, Note_on_c, 5, 71, 70
7, 1202880, Note_on_c, 5, 71, 0
7, 1202880, Note_on_c, 5, 72, 70
7, 1203360, Note_on_c, 5, 72, 0
7, 1203360, Note_on_c, 5, 76, 70
7, 1203552, Note_on_c, 5, 76, 0
7, 1203840, Note_on_c, 5, 74, 70
7, 1204032, Note_on_c, 5, 74, 0
7, 1204320, Note_on_c, 5, 77, 70
7, 1204512, Note_on_c, 5, 77, 0
7, 1204800, Note_on_c, 5, 76, 70
7, 1205280, Note_on_c, 5, 76, 0
7, 1205280, Note_on_c, 5, 79, 70
7, 1206240, Note_on_c, 5, 79, 0
7, 1206240, Note_on_c, 5, 77, 70
7, 1207200, Note_on_c, 5, 77, 0
7, 1207200, Note_on_c, 5, 76, 70
7, 1208160, Note_on_c, 5, 76, 0
7, 1208160, Note_on_c, 5, 74, 70
7, 1209120, Note_on_c, 5, 74, 0
7, 1209120, Note_on_c, 5, 72, 70
7, 1210080, Note_on_c, 5, 72, 0
7, 1210080, Note_on_c, 5, 71, 70
7, 1210560, Note_on_c, 5, 71, 0
7, 1210560, Note_on_c, 5, 69, 90
7, 1210560, Note_on_c, 5, 78, 90
7, 1211520, Note_on_c, 5, 78, 0
7, 1211520, Note_on_c, 5, 69, 0
7, 1212480, Note_on_c, 5, 62, 90
7, 1212480, Note_on_c, 5, 71, 90
7, 1212480, Note_on_c, 5, 79, 90
7, 1212960, Note_on_c, 5, 71, 0
7, 1212960, Note_on_c, 5, 62, 0
7, 1213440, Note_on_c, 5, 79, 0
7, 1214400, Note_on_c, 5, 69, 90
7, 1214400, Note_on_c, 5, 78, 90
7, 1215360, Note_on_c, 5, 78, 0
7, 1215360, Note_on_c, 5, 69, 0
7, 1216320, Note_on_c, 5, 62, 70
7, 1216320, Note_on_c, 5, 71, 70
7, 1216320, Note_on_c, 5, 79, 70
7, 1216800, Note_on_c, 5, 79, 0
7, 1216800, Note_on_c, 5, 71, 0
7, 1216800, Note_on_c, 5, 62, 0
7, 1218480, Note_on_c, 5, 67, 70
7, 1218720, Note_on_c, 5, 67, 0
7, 1218720, Note_on_c, 5, 71, 70
7, 1218960, Note_on_c, 5, 71, 0
7, 1218960, Note_on_c, 5, 74, 70
7, 1219200, Note_on_c, 5, 74, 0
7, 1219200, Note_on_c, 5, 79, 70
7, 1219440, Note_on_c, 5, 79, 0
7, 1219440, Note_on_c, 5, 78, 70
7, 1219680, Note_on_c, 5, 78, 0
7, 1219680, Note_on_c, 5, 79, 70
7, 1219920, Note_on_c, 5, 79, 0
7, 1219920, Note_on_c, 5, 78, 70
7, 1220160, Note_on_c, 5, 78, 0
7, 1220160, Note_on_c, 5, 79, 70
7, 1220640, Note_on_c, 5, 79, 0
7, 1220640, Note_on_c, 5, 67, 90
7, 1220880, Note_on_c, 5, 67, 0
7, 1220880, Note_on_c, 5, 69, 90
7, 1221120, Note_on_c, 5, 69, 0
7, 1221120, Note_on_c, 5, 65, 90
7, 1221360, Note_on_c, 5, 65, 0
7, 1221360, Note_on_c, 5, 64, 90
7, 1221600, Note_on_c, 5, 64, 0
7, 1221600, Note_on_c, 5, 65, 90
7, 1221840, Note_on_c, 5, 65, 0
7, 1221840, Note_on_c, 5, 67, 90
7, 1222080, Note_on_c, 5, 67, 0
7, 1222080, Note_on_c, 5, 64, 90
7, 1222320, Note_on_c, 5, 64, 0
7, 1222320, Note_on_c, 5, 63, 90
7, 1222560, Note_on_c, 5, 63, 0
7, 1222560, Note_on_c, 5, 64, 90
7, 1222800, Note_on_c, 5, 64, 0
7, 1222800, Note_on_c, 5, 65, 90
7, 1223040, Note_on_c, 5, 65, 0
7, 1223040, Note_on_c, 5, 62, 90
7, 1223280, Note_on_c, 5, 62, 0
7, 1223280, Note_on_c, 5, 61, 90
7, 1223520, Note_on_c, 5, 61, 0
7, 1223520, Note_on_c, 5, 62, 90
7, 1223760, Note_on_c, 5, 62, 0
7, 1223760, Note_on_c, 5, 64, 90
7, 1224000, Note_on_c, 5, 64, 0
7, 1224000, Note_on_c, 5, 60, 90
7, 1224480, Note_on_c, 5, 60, 0
7, 1225920, Note_on_c, 5, 59, 70
7, 1226880, Note_on_c, 5, 59, 0
7, 1226880, Note_on_c, 5, 60, 70
7, 1227360, Note_on_c, 5, 60, 0
7, 1227840, Note_on_c, 5, 59, 70
7, 1228800, Note_on_c, 5, 59, 0
7, 1228800, Note_on_c, 5, 60, 70
7, 1229280, Note_on_c, 5, 60, 0
7, 1229280, Note_on_c, 5, 65, 70
7, 1229760, Note_on_c, 5, 65, 0
7, 1229760, Note_on_c, 5, 64, 70
7, 1230720, Note_on_c, 5, 64, 0
7, 1230720, Note_on_c, 5, 62, 70
7, 1231200, Note_on_c, 5, 62, 0
7, 1231680, Note_on_c, 5, 62, 70
7, 1232160, Note_on_c, 5, 62, 0
7, 1233600, Note_on_c, 5, 64, 70
7, 1234560, Note_on_c, 5, 64, 0
7, 1234560, Note_on_c, 5, 65, 70
7, 1235040, Note_on_c, 5, 65, 0
7, 1235520, Note_on_c, 5, 64, 70
7, 1236480, Note_on_c, 5, 64, 0
7, 1236480, Note_on_c, 5, 65, 70
7, 1236960, Note_on_c, 5, 65, 0
7, 1236960, Note_on_c, 5, 67, 70
7, 1237440, Note_on_c, 5, 67, 0
7, 1237440, Note_on_c, 5, 65, 70
7, 1238400, Note_on_c, 5, 65, 0
7, 1238400, Note_on_c, 5, 64, 70
7, 1238880, Note_on_c, 5, 64, 0
7, 1239840, Note_on_c, 5, 55, 70
7, 1240320, Note_on_c, 5, 55, 0
7, 1240320, Note_on_c, 5, 67, 70
7, 1240800, Note_on_c, 5, 67, 0
7, 1240800, Note_on_c, 5, 64, 70
7, 1241280, Note_on_c, 5, 64, 0
7, 1241280, Note_on_c, 5, 62, 70
7, 1241760, Note_on_c, 5, 62, 0
7, 1242480, Note_on_c, 5, 69, 70
7, 1242576, Note_on_c, 5, 69, 0
7, 1242720, Note_on_c, 5, 65, 70
7, 1242816, Note_on_c, 5, 65, 0
7, 1242960, Note_on_c, 5, 62, 70
7, 1243056, Note_on_c, 5, 62, 0
7, 1243200, Note_on_c, 5, 60, 70
7, 1243680, Note_on_c, 5, 60, 0
7, 1244400, Note_on_c, 5, 67, 70
7, 1244496, Note_on_c, 5, 67, 0
7, 1244640, Note_on_c, 5, 64, 70
7, 1244736, Note_on_c, 5, 64, 0
7, 1244880, Note_on_c, 5, 60, 70
7, 1244976, Note_on_c, 5, 60, 0
7, 1245120, Note_on_c, 5, 59, 70
7, 1245600, Note_on_c, 5, 59, 0
7, 1246320, Note_on_c, 5, 55, 70
7, 1246416, Note_on_c, 5, 55, 0
7, 1246560, Note_on_c, 5, 57, 70
7, 1246656, Note_on_c, 5, 57, 0
7, 1246800, Note_on_c, 5, 59, 70
7, 1246896, Note_on_c, 5, 59, 0
7, 1247040, Note_on_c, 5, 60, 70
7, 1247520, Note_on_c, 5, 60, 0
7, 1247520, Note_on_c, 5, 74, 70
7, 1248000, Note_on_c, 5, 74, 0
7, 1248000, Note_on_c, 5, 72, 70
7, 1248480, Note_on_c, 5, 72, 0
7, 1248480, Note_on_c, 5, 74, 70
7, 1248960, Note_on_c, 5, 74, 0
7, 1248960, Note_on_c, 5, 72, 70
7, 1249440, Note_on_c, 5, 72, 0
7, 1249920, Note_on_c, 5, 74, 70
7, 1250400, Note_on_c, 5, 74, 0
7, 1250880, Note_on_c, 5, 62, 70
7, 1251120, Note_on_c, 5, 62, 0
7, 1251120, Note_on_c, 5, 65, 70
7, 1251360, Note_on_c, 5, 65, 0
7, 1251360, Note_on_c, 5, 64, 70
7, 1251600, Note_on_c, 5, 64, 0
7, 1251600, Note_on_c, 5, 65, 70
7, 1251840, Note_on_c, 5, 65, 0
7, 1251840, Note_on_c, 5, 67, 70
7, 1252080, Note_on_c, 5, 67, 0
7, 1252080, Note_on_c, 5, 65, 70
7, 1252320, Note_on_c, 5, 65, 0
7, 1252320, Note_on_c, 5, 64, 70
7, 1252560, Note_on_c, 5, 64, 0
7, 1252560, Note_on_c, 5, 65, 70
7, 1252800, Note_on_c, 5, 65, 0
7, 1252800, Note_on_c, 5, 64, 70
7, 1253280, Note_on_c, 5, 64, 0
7, 1270080, Note_on_c, 5, 72, 70
7, 1270560, Note_on_c, 5, 72, 0
7, 1270560, Note_on_c, 5, 76, 70
7, 1271040, Note_on_c, 5, 76, 0
7, 1271040, Note_on_c, 5, 79, 70
7, 1271520, Note_on_c, 5, 79, 0
7, 1271520, Note_on_c, 5, 84, 70
7, 1272000, Note_on_c, 5, 84, 0
7, 1272000, Note_on_c, 5, 81, 70
7, 1272480, Note_on_c, 5, 81, 0
7, 1272480, Note_on_c, 5, 77, 70
7, 1272960, Note_on_c, 5, 77, 0
7, 1272960, Note_on_c, 5, 74, 70
7, 1273440, Note_on_c, 5, 74, 0
7, 1273440, Note_on_c, 5, 71, 70
7, 1273920, Note_on_c, 5, 71, 0
7, 1273920, Note_on_c, 5, 79, 70
7, 1274400, Note_on_c, 5, 79, 0
7, 1274400, Note_on_c, 5, 76, 70
7, 1274880, Note_on_c, 5, 76, 0
7, 1274880, Note_on_c, 5, 72, 70
7, 1275360, Note_on_c, 5, 72, 0
7, 1275360, Note_on_c, 5, 69, 70
7, 1275840, Note_on_c, 5, 69, 0
7, 1275840, Note_on_c, 5, 77, 70
7, 1276320, Note_on_c, 5, 77, 0
7, 1276320, Note_on_c, 5, 74, 70
7, 1276800, Note_on_c, 5, 74, 0
7, 1276800, Note_on_c, 5, 71, 70
7, 1277280, Note_on_c, 5, 71, 0
7, 1277280, Note_on_c, 5, 65, 70
7, 1277760, Note_on_c, 5, 65, 0
7, 1277760, Note_on_c, 5, 64, 70
7, 1278240, Note_on_c, 5, 64, 0
7, 1279680, Note_on_c, 5, 76, 70
7, 1279680, Note_on_c, 5, 84, 70
7, 1280160, Note_on_c, 5, 84, 0
7, 1280160, Note_on_c, 5, 76, 0
7, 1284000, Note_on_c, 5, 77, 90
7, 1284960, Note_on_c, 5, 77, 0
7, 1284960, Note_on_c, 5, 76, 70
7, 1285152, Note_on_c, 5, 76, 0
7, 1285440, Note_on_c, 5, 81, 70
7, 1285632, Note_on_c, 5, 81, 0
7, 1285920, Note_on_c, 5, 79, 70
7, 1286112, Note_on_c, 5, 79, 0
7, 1286400, Note_on_c, 5, 77, 70
7, 1286592, Note_on_c, 5, 77, 0
7, 1286880, Note_on_c, 5, 76, 70
7, 1287072, Note_on_c, 5, 76, 0
7, 1287360, Note_on_c, 5, 74, 70
7, 1287840, Note_on_c, 5, 74, 0
7, 1287840, Note_on_c, 5, 77, 90
7, 1288800, Note_on_c, 5, 77, 0
7, 1288800, Note_on_c, 5, 76, 70
7, 1288992, Note_on_c, 5, 76, 0
7, 1289280, Note_on_c, 5, 81, 70
7, 1289472, Note_on_c, 5, 81, 0
7, 1289760, Note_on_c, 5, 79, 70
7, 1289952, Note_on_c, 5, 79, 0
7, 1290240, Note_on_c, 5, 77, 70
7, 1290432, Note_on_c, 5, 77, 0
7, 1290720, Note_on_c, 5, 76, 70
7, 1290912, Note_on_c, 5, 76, 0
7, 1291200, Note_on_c, 5, 74, 70
7, 1291680, Note_on_c, 5, 74, 0
7, 1292040, Note_on_c, 5, 76, 70
7, 1292160, Note_on_c, 5, 76, 0
7, 1292160, Note_on_c, 5, 74, 70
7, 1292640, Note_on_c, 5, 74, 0
7, 1293000, Note_on_c, 5, 76, 70
7, 1293120, Note_on_c, 5, 76, 0
7, 1293120, Note_on_c, 5, 74, 70
7, 1293600, Note_on_c, 5, 74, 0
7, 1293960, Note_on_c, 5, 76, 70
7, 1294080, Note_on_c, 5, 76, 0
7, 1294080, Note_on_c, 5, 74, 70
7, 1294560, Note_on_c, 5, 74, 0
7, 1294920, Note_on_c, 5, 76, 70
7, 1295040, Note_on_c, 5, 76, 0
7, 1295040, Note_on_c, 5, 74, 70
7, 1295520, Note_on_c, 5, 74, 0
7, 1298880, Note_on_c, 5, 79, 70
7, 1300320, Note_on_c, 5, 79, 0
7, 1300320, Note_on_c, 5, 84, 70
7, 1300440, Note_on_c, 5, 84, 0
7, 1300440, Note_on_c, 5, 76, 70
7, 1300800, Note_on_c, 5, 76, 0
7, 1300800, Note_on_c, 5, 79, 70
7, 1301280, Note_on_c, 5, 79, 0
7, 1301280, Note_on_c, 5, 77, 70
7, 1301760, Note_on_c, 5, 77, 0
7, 1302720, Note_on_c, 5, 76, 70
7, 1304160, Note_on_c, 5, 76, 0
7, 1304160, Note_on_c, 5, 77, 70
7, 1304280, Note_on_c, 5, 77, 0
7, 1304280, Note_on_c, 5, 81, 70
7, 1304640, Note_on_c, 5, 81, 0
7, 1304640, Note_on_c, 5, 72, 70
7, 1305120, Note_on_c, 5, 72, 0
7, 1305120, Note_on_c, 5, 71, 70
7, 1305600, Note_on_c, 5, 71, 0
7, 1306560, Note_on_c, 5, 72, 70
7, 1308000, Note_on_c, 5, 72, 0
7, 1308000, Note_on_c, 5, 74, 70
7, 1308240, Note_on_c, 5, 74, 0
7, 1308240, Note_on_c, 5, 76, 70
7, 1308480, Note_on_c, 5, 76, 0
7, 1308480, Note_on_c, 5, 77, 70
7, 1309920, Note_on_c, 5, 77, 0
7, 1309920, Note_on_c, 5, 79, 70
7, 1310160, Note_on_c, 5, 79, 0
7, 1310160, Note_on_c, 5, 81, 70
7, 1310400, Note_on_c, 5, 81, 0
7, 1310400, Note_on_c, 5, 79, 70
7, 1310880, Note_on_c, 5, 79, 0
7, 1310880, Note_on_c, 5, 72, 70
7, 1311360, Note_on_c, 5, 72, 0
7, 1311360, Note_on_c, 5, 74, 70
7, 1311840, Note_on_c, 5, 74, 0
7, 1311840, Note_on_c, 5, 77, 70
7, 1312320, Note_on_c, 5, 77, 0
7, 1312320, Note_on_c, 5, 75, 70
7, 1312800, Note_on_c, 5, 75, 0
7, 1312800, Note_on_c, 5, 76, 70
7, 1313280, Note_on_c, 5, 76, 0
7, 1314240, Note_on_c, 5, 72, 70
7, 1315680, Note_on_c, 5, 72, 0
7, 1315680, Note_on_c, 5, 74, 70
7, 1315920, Note_on_c, 5, 74, 0
7, 1315920, Note_on_c, 5, 76, 70
7, 1316160, Note_on_c, 5, 76, 0
7, 1316160, Note_on_c, 5, 77, 70
7, 1316640, Note_on_c, 5, 77, 0
7, 1316640, Note_on_c, 5, 77, 70
7, 1317120, Note_on_c, 5, 77, 0
7, 1317120, Note_on_c, 5, 77, 70
7, 1317600, Note_on_c, 5, 77, 0
7, 1317600, Note_on_c, 5, 79, 70
7, 1317840, Note_on_c, 5, 79, 0
7, 1317840, Note_on_c, 5, 81, 70
7, 1318080, Note_on_c, 5, 81, 0
7, 1318080, Note_on_c, 5, 79, 70
7, 1318320, Note_on_c, 5, 79, 0
7, 1318320, Note_on_c, 5, 81, 70
7, 1318560, Note_on_c, 5, 81, 0
7, 1318560, Note_on_c, 5, 83, 70
7, 1318800, Note_on_c, 5, 83, 0
7, 1318800, Note_on_c, 5, 84, 70
7, 1319040, Note_on_c, 5, 84, 0
7, 1319040, Note_on_c, 5, 83, 70
7, 1319280, Note_on_c, 5, 83, 0
7, 1319280, Note_on_c, 5, 84, 70
7, 1319520, Note_on_c, 5, 84, 0
7, 1319520, Note_on_c, 5, 83, 70
7, 1319760, Note_on_c, 5, 83, 0
7, 1319760, Note_on_c, 5, 84, 70
7, 1320000, Note_on_c, 5, 84, 0
7, 1320000, Note_on_c, 5, 80, 70
7, 1320240, Note_on_c, 5, 80, 0
7, 1320240, Note_on_c, 5, 81, 70
7, 1320480, Note_on_c, 5, 81, 0
7, 1320480, Note_on_c, 5, 80, 70
7, 1320720, Note_on_c, 5, 80, 0
7, 1320720, Note_on_c, 5, 81, 70
7, 1320960, Note_on_c, 5, 81, 0
7, 1320960, Note_on_c, 5, 76, 70
7, 1321200, Note_on_c, 5, 76, 0
7, 1321200, Note_on_c, 5, 77, 70
7, 1321440, Note_on_c, 5, 77, 0
7, 1321440, Note_on_c, 5, 76, 70
7, 1321680, Note_on_c, 5, 76, 0
7, 1321680, Note_on_c, 5, 77, 70
7, 1321920, Note_on_c, 5, 77, 0
7, 1321920, Note_on_c, 5, 76, 70
7, 1322160, Note_on_c, 5, 76, 0
7, 1322160, Note_on_c, 5, 67, 70
7, 1322400, Note_on_c, 5, 67, 0
7, 1322400, Note_on_c, 5, 64, 70
7, 1322640, Note_on_c, 5, 64, 0
7, 1322640, Note_on_c, 5, 67, 70
7, 1322880, Note_on_c, 5, 67, 0
7, 1322880, Note_on_c, 5, 64, 70
7, 1323120, Note_on_c, 5, 64, 0
7, 1323120, Note_on_c, 5, 67, 70
7, 1323360, Note_on_c, 5, 67, 0
7, 1323360, Note_on_c, 5, 65, 70
7, 1323600, Note_on_c, 5, 65, 0
7, 1323600, Note_on_c, 5, 64, 70
7, 1323840, Note_on_c, 5, 64, 0
7, 1323840, Note_on_c, 5, 67, 70
7, 1324080, Note_on_c, 5, 67, 0
7, 1324080, Note_on_c, 5, 65, 70
7, 1324320, Note_on_c, 5, 65, 0
7, 1324320, Note_on_c, 5, 64, 70
7, 1324416, Note_on_c, 5, 64, 0
7, 1324560, Note_on_c, 5, 64, 70
7, 1324656, Note_on_c, 5, 64, 0
7, 1324800, Note_on_c, 5, 64, 70
7, 1325040, Note_on_c, 5, 64, 0
7, 1325040, Note_on_c, 5, 67, 70
7, 1325280, Note_on_c, 5, 67, 0
7, 1325280, Note_on_c, 5, 65, 70
7, 1325520, Note_on_c, 5, 65, 0
7, 1325520, Note_on_c, 5, 62, 70
7, 1325760, Note_on_c, 5, 62, 0
7, 1325760, Note_on_c, 5, 60, 70
7, 1326240, Note_on_c, 5, 60, 0
7, 1330560, Note_on_c, 5, 62, 70
7, 1330560, Note_on_c, 5, 71, 70
7, 1331040, Note_on_c, 5, 71, 0
7, 1331040, Note_on_c, 5, 62, 0
7, 1331520, Note_on_c, 5, 64, 70
7, 1331520, Note_on_c, 5, 72, 70
7, 1332000, Note_on_c, 5, 72, 0
7, 1332000, Note_on_c, 5, 64, 0
7, 1332480, Note_on_c, 5, 67, 70
7, 1332480, Note_on_c, 5, 74, 70
7, 1332960, Note_on_c, 5, 74, 0
7, 1332960, Note_on_c, 5, 67, 0
7, 1333440, Note_on_c, 5, 67, 70
7, 1333440, Note_on_c, 5, 72, 70
7, 1333440, Note_on_c, 5, 76, 70
7, 1333920, Note_on_c, 5, 76, 0
7, 1333920, Note_on_c, 5, 72, 0
7, 1333920, Note_on_c, 5, 67, 0
7, 1334400, Note_on_c, 5, 74, 70
7, 1334400, Note_on_c, 5, 83, 70
7, 1334880, Note_on_c, 5, 83, 0
7, 1334880, Note_on_c, 5, 74, 0
7, 1335360, Note_on_c, 5, 76, 70
7, 1335360, Note_on_c, 5, 84, 70
7, 1335840, Note_on_c, 5, 84, 0
7, 1335840, Note_on_c, 5, 76, 0
7, 1336320, Note_on_c, 5, 74, 70
7, 1336320, Note_on_c, 5, 77, 70
7, 1336800, Note_on_c, 5, 77, 0
7, 1336800, Note_on_c, 5, 74, 0
7, 1337280, Note_on_c, 5, 67, 70
7, 1337280, Note_on_c, 5, 72, 70
7, 1337280, Note_on_c, 5, 76, 70
7, 1337760, Note_on_c, 5, 76, 0
7, 1337760, Note_on_c, 5, 72, 0
7, 1337760, Note_on_c, 5, 67, 0
7, 1345440, Note_on_c, 5, 76, 70
7, 1345920, Note_on_c, 5, 76, 0
7, 1346400, Note_on_c, 5, 84, 70
7, 1346880, Note_on_c, 5, 84, 0
7, 1347360, Note_on_c, 5, 81, 70
7, 1347840, Note_on_c, 5, 81, 0
7, 1348320, Note_on_c, 5, 77, 70
7, 1348800, Note_on_c, 5, 77, 0
7, 1348800, Note_on_c, 5, 71, 80
7, 1349760, Note_on_c, 5, 71, 0
7, 1349760, Note_on_c, 5, 72, 70
7, 1350240, Note_on_c, 5, 72, 0
7, 1352640, Note_on_c, 5, 71, 80
7, 1353600, Note_on_c, 5, 71, 0
7, 1353600, Note_on_c, 5, 72, 70
7, 1354080, Note_on_c, 5, 72, 0
7, 1360140, Note_on_c, 5, 74, 70
7, 1360200, Note_on_c, 5, 74, 0
7, 1360200, Note_on_c, 5, 72, 70
7, 1360260, Note_on_c, 5, 72, 0
7, 1360260, Note_on_c, 5, 71, 70
7, 1360320, Note_on_c, 5, 71, 0
7, 1360320, Note_on_c, 5, 72, 70
7, 1360800, Note_on_c, 5, 72, 0
7, 1361100, Note_on_c, 5, 83, 70
7, 1361160, Note_on_c, 5, 83, 0
7, 1361160, Note_on_c, 5, 81, 70
7, 1361220, Note_on_c, 5, 81, 0
7, 1361220, Note_on_c, 5, 79, 70
7, 1361280, Note_on_c, 5, 79, 0
7, 1361280, Note_on_c, 5, 81, 70
7, 1361760, Note_on_c, 5, 81, 0
7, 1362060, Note_on_c, 5, 81, 70
7, 1362120, Note_on_c, 5, 81, 0
7, 1362120, Note_on_c, 5, 79, 70
7, 1362180, Note_on_c, 5, 79, 0
7, 1362180, Note_on_c, 5, 78, 70
7, 1362240, Note_on_c, 5, 78, 0
7, 1362240, Note_on_c, 5, 79, 80
7, 1362720, Note_on_c, 5, 79, 0
7, 1363020, Note_on_c, 5, 72, 80
7, 1363080, Note_on_c, 5, 72, 0
7, 1363080, Note_on_c, 5, 71, 80
7, 1363140, Note_on_c, 5, 71, 0
7, 1363140, Note_on_c, 5, 69, 80
7, 1363200, Note_on_c, 5, 69, 0
7, 1363200, Note_on_c, 5, 71, 80
7, 1363680, Note_on_c, 5, 71, 0
7, 1364160, Note_on_c, 5, 72, 90
7, 1364400, Note_on_c, 5, 72, 0
7, 1364400, Note_on_c, 5, 71, 105
7, 1364640, Note_on_c, 5, 71, 0
7, 1364640, Note_on_c, 5, 72, 105
7, 1364880, Note_on_c, 5, 72, 0
7, 1364880, Note_on_c, 5, 74, 105
7, 1365120, Note_on_c, 5, 74, 0
7, 1365120, Note_on_c, 5, 76, 105
7, 1365360, Note_on_c, 5, 76, 0
7, 1365360, Note_on_c, 5, 74, 105
7, 1365600, Note_on_c, 5, 74, 0
7, 1365600, Note_on_c, 5, 72, 105
7, 1365840, Note_on_c, 5, 72, 0
7, 1365840, Note_on_c, 5, 71, 105
7, 1366080, Note_on_c, 5, 71, 0
7, 1366080, Note_on_c, 5, 69, 105
7, 1366320, Note_on_c, 5, 69, 0
7, 1366320, Note_on_c, 5, 68, 105
7, 1366560, Note_on_c, 5, 68, 0
7, 1366560, Note_on_c, 5, 69, 105
7, 1366800, Note_on_c, 5, 69, 0
7, 1366800, Note_on_c, 5, 71, 105
7, 1367040, Note_on_c, 5, 71, 0
7, 1367040, Note_on_c, 5, 72, 105
7, 1367280, Note_on_c, 5, 72, 0
7, 1367280, Note_on_c, 5, 71, 105
7, 1367520, Note_on_c, 5, 71, 0
7, 1367520, Note_on_c, 5, 69, 105
7, 1367760, Note_on_c, 5, 69, 0
7, 1367760, Note_on_c, 5, 67, 105
7, 1368000, Note_on_c, 5, 67, 0
7, 1368000, Note_on_c, 5, 65, 105
7, 1368480, Note_on_c, 5, 65, 0
7, 1368480, Note_on_c, 5, 72, 105
7, 1368480, Note_on_c, 5, 81, 105
7, 1368960, Note_on_c, 5, 81, 0
7, 1368960, Note_on_c, 5, 72, 0
7, 1369440, Note_on_c, 5, 74, 105
7, 1369440, Note_on_c, 5, 83, 105
7, 1369920, Note_on_c, 5, 83, 0
7, 1369920, Note_on_c, 5, 74, 0
7, 1370400, Note_on_c, 5, 76, 105
7, 1370400, Note_on_c, 5, 84, 105
7, 1370880, Note_on_c, 5, 84, 0
7, 1370880, Note_on_c, 5, 76, 0
7, 1371360, Note_on_c, 5, 78, 105
7, 1371840, Note_on_c, 5, 78, 0
7, 1371840, Note_on_c, 5, 72, 105
7, 1371840, Note_on_c, 5, 79, 105
7, 1372320, Note_on_c, 5, 72, 0
7, 1372800, Note_on_c, 5, 79, 0
7, 1375680, Note_on_c, 5, 55, 90
7, 1375680, Note_on_c, 5, 64, 90
7, 1375680, Note_on_c, 5, 72, 90
7, 1376160, Note_on_c, 5, 72, 0
7, 1376160, Note_on_c, 5, 64, 0
7, 1376160, Note_on_c, 5, 55, 0
7, 1376400, Note_on_c, 5, 84, 105
7, 1376640, Note_on_c, 5, 84, 0
7, 1376640, Note_on_c, 5, 84, 105
7, 1376880, Note_on_c, 5, 84, 0
7, 1376880, Note_on_c, 5, 84, 105
7, 1377120, Note_on_c, 5, 84, 0
7, 1377120, Note_on_c, 5, 84, 105
7, 1377360, Note_on_c, 5, 84, 0
7, 1377360, Note_on_c, 5, 84, 105
7, 1377600, Note_on_c, 5, 84, 0
7, 1377600, Note_on_c, 5, 83, 105
7, 1377660, Note_on_c, 5, 83, 0
7, 1377660, Note_on_c, 5, 84, 105
7, 1377720, Note_on_c, 5, 84, 0
7, 1377720, Note_on_c, 5, 86, 105
7, 1378080, Note_on_c, 5, 86, 0
7, 1378320, Note_on_c, 5, 77, 105
7, 1378560, Note_on_c, 5, 77, 0
7, 1378560, Note_on_c, 5, 77, 105
7, 1378800, Note_on_c, 5, 77, 0
7, 1378800, Note_on_c, 5, 77, 105
7, 1379040, Note_on_c, 5, 77, 0
7, 1379040, Note_on_c, 5, 77, 105
7, 1379280, Note_on_c, 5, 77, 0
7, 1379280, Note_on_c, 5, 77, 105
7, 1379520, Note_on_c, 5, 77, 0
7, 1379520, Note_on_c, 5, 76, 105
7, 1379580, Note_on_c, 5, 76, 0
7, 1379580, Note_on_c, 5, 77, 105
7, 1379640, Note_on_c, 5, 77, 0
7, 1379640, Note_on_c, 5, 79, 105
7, 1380000, Note_on_c, 5, 79, 0
7, 1380240, Note_on_c, 5, 84, 105
7, 1380480, Note_on_c, 5, 84, 0
7, 1380480, Note_on_c, 5, 84, 105
7, 1380720, Note_on_c, 5, 84, 0
7, 1380720, Note_on_c, 5, 84, 105
7, 1380960, Note_on_c, 5, 84, 0
7, 1380960, Note_on_c, 5, 84, 105
7, 1381200, Note_on_c, 5, 84, 0
7, 1381200, Note_on_c, 5, 84, 105
7, 1381440, Note_on_c, 5, 84, 0
7, 1381440, Note_on_c, 5, 83, 105
7, 1381500, Note_on_c, 5, 83, 0
7, 1381500, Note_on_c, 5, 84, 105
7, 1381560, Note_on_c, 5, 84, 0
7, 1381560, Note_on_c, 5, 86, 105
7, 1381920, Note_on_c, 5, 86, 0
7, 1382160, Note_on_c, 5, 77, 105
7, 1382400, Note_on_c, 5, 77, 0
7, 1382400, Note_on_c, 5, 77, 105
7, 1382640, Note_on_c, 5, 77, 0
7, 1382640, Note_on_c, 5, 77, 105
7, 1382880, Note_on_c, 5, 77, 0
7, 1382880, Note_on_c, 5, 77, 105
7, 1383120, Note_on_c, 5, 77, 0
7, 1383120, Note_on_c, 5, 77, 105
7, 1383360, Note_on_c, 5, 77, 0
7, 1383360, Note_on_c, 5, 76, 105
7, 1383840, Note_on_c, 5, 76, 0
7, 1384200, Note_on_c, 5, 76, 105
7, 1384200, Note_on_c, 5, 84, 105
7, 1384320, Note_on_c, 5, 84, 0
7, 1384320, Note_on_c, 5, 76, 0
7, 1384320, Note_on_c, 5, 76, 105
7, 1384320, Note_on_c, 5, 84, 105
7, 1384800, Note_on_c, 5, 84, 0
7, 1384800, Note_on_c, 5, 76, 0
7, 1385160, Note_on_c, 5, 76, 105
7, 1385160, Note_on_c, 5, 84, 105
7, 1385280, Note_on_c, 5, 84, 0
7, 1385280, Note_on_c, 5, 76, 0
7, 1385280, Note_on_c, 5, 74, 105
7, 1385280, Note_on_c, 5, 84, 105
7, 1385760, Note_on_c, 5, 84, 0
7, 1385760, Note_on_c, 5, 74, 0
7, 1386120, Note_on_c, 5, 74, 105
7, 1386120, Note_on_c, 5, 84, 105
7, 1386240, Note_on_c, 5, 84, 0
7, 1386240, Note_on_c, 5, 74, 0
7, 1386240, Note_on_c, 5, 74, 105
7, 1386240, Note_on_c, 5, 83, 105
7, 1386720, Note_on_c, 5, 83, 0
7, 1386720, Note_on_c, 5, 74, 0
7, 1387080, Note_on_c, 5, 74, 105
7, 1387080, Note_on_c, 5, 83, 105
7, 1387200, Note_on_c, 5, 83, 0
7, 1387200, Note_on_c, 5, 74, 0
7, 1387200, Note_on_c, 5, 76, 105
7, 1387200, Note_on_c, 5, 84, 105
7, 1388160, Note_on_c, 5, 84, 0
7, 1388160, Note_on_c, 5, 76, 0
7, 1406400, Note_on_c, 5, 60, 70
7, 1406640, Note_on_c, 5, 60, 0
7, 1406640, Note_on_c, 5, 59, 70
7, 1406880, Note_on_c, 5, 59, 0
7, 1406880, Note_on_c, 5, 60, 70
7, 1407120, Note_on_c, 5, 60, 0
7, 1407120, Note_on_c, 5, 59, 70
7, 1407360, Note_on_c, 5, 59, 0
7, 1407360, Note_on_c, 5, 60, 70
7, 1407600, Note_on_c, 5, 60, 0
7, 1407600, Note_on_c, 5, 59, 70
7, 1407840, Note_on_c, 5, 59, 0
7, 1407840, Note_on_c, 5, 60, 70
7, 1408080, Note_on_c, 5, 60, 0
7, 1408080, Note_on_c, 5, 59, 70
7, 1408320, Note_on_c, 5, 59, 0
7, 1408320, Note_on_c, 5, 60, 70
7, 1408560, Note_on_c, 5, 60, 0
7, 1408560, Note_on_c, 5, 59, 70
7, 1408800, Note_on_c, 5, 59, 0
7, 1408800, Note_on_c, 5, 60, 70
7, 1409040, Note_on_c, 5, 60, 0
7, 1409040, Note_on_c, 5, 59, 70
7, 1409280, Note_on_c, 5, 59, 0
7, 1409280, Note_on_c, 5, 60, 70
7, 1409520, Note_on_c, 5, 60, 0
7, 1409520, Note_on_c, 5, 59, 70
7, 1409760, Note_on_c, 5, 59, 0
7, 1409760, Note_on_c, 5, 60, 70
7, 1410000, Note_on_c, 5, 60, 0
7, 1410000, Note_on_c, 5, 59, 70
7, 1410240, Note_on_c, 5, 59, 0
7, 1410240, Note_on_c, 5, 60, 70
7, 1410480, Note_on_c, 5, 60, 0
7, 1410480, Note_on_c, 5, 59, 70
7, 1410720, Note_on_c, 5, 59, 0
7, 1410720, Note_on_c, 5, 60, 70
7, 1410960, Note_on_c, 5, 60, 0
7, 1410960, Note_on_c, 5, 59, 70
7, 1411200, Note_on_c, 5, 59, 0
7, 1411200, Note_on_c, 5, 60, 70
7, 1411680, Note_on_c, 5, 60, 0
7, 1412160, Note_on_c, 5, 67, 70
7, 1412400, Note_on_c, 5, 67, 0
7, 1412400, Note_on_c, 5, 66, 70
7, 1412640, Note_on_c, 5, 66, 0
7, 1412640, Note_on_c, 5, 67, 70
7, 1412880, Note_on_c, 5, 67, 0
7, 1412880, Note_on_c, 5, 66, 70
7, 1413120, Note_on_c, 5, 66, 0
7, 1413120, Note_on_c, 5, 67, 70
7, 1413360, Note_on_c, 5, 67, 0
7, 1413360, Note_on_c, 5, 66, 70
7, 1413600, Note_on_c, 5, 66, 0
7, 1413600, Note_on_c, 5, 67, 70
7, 1413840, Note_on_c, 5, 67, 0
7, 1413840, Note_on_c, 5, 66, 70
7, 1414080, Note_on_c, 5, 66, 0
7, 1414080, Note_on_c, 5, 67, 70
7, 1414320, Note_on_c, 5, 67, 0
7, 1414320, Note_on_c, 5, 66, 70
7, 1414560, Note_on_c, 5, 66, 0
7, 1414560, Note_on_c, 5, 67, 70
7, 1414800, Note_on_c, 5, 67, 0
7, 1414800, Note_on_c, 5, 66, 70
7, 1415040, Note_on_c, 5, 66, 0
7, 1415040, Note_on_c, 5, 67, 70
7, 1415280, Note_on_c, 5, 67, 0
7, 1415280, Note_on_c, 5, 66, 70
7, 1415520, Note_on_c, 5, 66, 0
7, 1415520, Note_on_c, 5, 67, 70
7, 1415760, Note_on_c, 5, 67, 0
7, 1415760, Note_on_c, 5, 65, 70
7, 1416000, Note_on_c, 5, 65, 0
7, 1416000, Note_on_c, 5, 64, 70
7, 1416240, Note_on_c, 5, 64, 0
7, 1416240, Note_on_c, 5, 60, 70
7, 1416480, Note_on_c, 5, 60, 0
7, 1416480, Note_on_c, 5, 64, 70
7, 1416720, Note_on_c, 5, 64, 0
7, 1416720, Note_on_c, 5, 67, 70
7, 1416960, Note_on_c, 5, 67, 0
7, 1416960, Note_on_c, 5, 67, 70
7, 1417200, Note_on_c, 5, 67, 0
7, 1417200, Note_on_c, 5, 65, 70
7, 1417440, Note_on_c, 5, 65, 0
7, 1417440, Note_on_c, 5, 64, 70
7, 1417536, Note_on_c, 5, 64, 0
7, 1417680, Note_on_c, 5, 62, 70
7, 1417776, Note_on_c, 5, 62, 0
7, 1417920, Note_on_c, 5, 60, 70
7, 1418400, Note_on_c, 5, 60, 0
7, 1428960, Note_on_c, 5, 74, 105
7, 1428960, Note_on_c, 5, 83, 105
7, 1429440, Note_on_c, 5, 83, 0
7, 1429440, Note_on_c, 5, 74, 0
7, 1429440, Note_on_c, 5, 76, 105
7, 1429440, Note_on_c, 5, 84, 105
7, 1430400, Note_on_c, 5, 84, 0
7, 1430400, Note_on_c, 5, 76, 0
7, 1430880, Note_on_c, 5, 74, 105
7, 1430880, Note_on_c, 5, 83, 105
7, 1431360, Note_on_c, 5, 83, 0
7, 1431360, Note_on_c, 5, 74, 0
7, 1431360, Note_on_c, 5, 76, 105
7, 1431360, Note_on_c, 5, 84, 105
7, 1432320, Note_on_c, 5, 84, 0
7, 1432320, Note_on_c, 5, 76, 0
7, 1432800, Note_on_c, 5, 74, 105
7, 1432800, Note_on_c, 5, 83, 105
7, 1433280, Note_on_c, 5, 83, 0
7, 1433280, Note_on_c, 5, 74, 0
7, 1433280, Note_on_c, 5, 76, 105
7, 1433280, Note_on_c, 5, 84, 105
7, 1434240, Note_on_c, 5, 84, 0
7, 1434240, Note_on_c, 5, 76, 0
7, 1434240, Note_on_c, 5, 76, 105
7, 1434240, Note_on_c, 5, 84, 105
7, 1435200, Note_on_c, 5, 84, 0
7, 1435200, Note_on_c, 5, 76, 0
7, 1435200, Note_on_c, 5, 76, 105
7, 1435200, Note_on_c, 5, 84, 105
7, 1436160, Note_on_c, 5, 84, 0
7, 1436160, Note_on_c, 5, 76, 0
7, 1436160, End_track
8, 0, Start_track
8, 0, MIDI_port, 0
8, 0, Title_t, "Violin II"
8, 0, Control_c, 6, 0, 0
8, 0, Control_c, 6, 32, 1
8, 0, Program_c, 6, 48
8, 0, Control_c, 6, 7, 100
8, 0, Control_c, 6, 10, 100
8, 1904, Note_on_c, 6, 72, 105
8, 2588, Note_on_c, 6, 72, 0
8, 2624, Note_on_c, 6, 67, 105
8, 2852, Note_on_c, 6, 67, 0
8, 2864, Note_on_c, 6, 64, 105
8, 3092, Note_on_c, 6, 64, 0
8, 3104, Note_on_c, 6, 60, 105
8, 3332, Note_on_c, 6, 60, 0
8, 3344, Note_on_c, 6, 64, 105
8, 3572, Note_on_c, 6, 64, 0
8, 3584, Note_on_c, 6, 67, 105
8, 3812, Note_on_c, 6, 67, 0
8, 3824, Note_on_c, 6, 72, 105
8, 4508, Note_on_c, 6, 72, 0
8, 4544, Note_on_c, 6, 67, 105
8, 4772, Note_on_c, 6, 67, 0
8, 4784, Note_on_c, 6, 64, 105
8, 5012, Note_on_c, 6, 64, 0
8, 5024, Note_on_c, 6, 60, 105
8, 5252, Note_on_c, 6, 60, 0
8, 5264, Note_on_c, 6, 64, 105
8, 5492, Note_on_c, 6, 64, 0
8, 5504, Note_on_c, 6, 67, 105
8, 5732, Note_on_c, 6, 67, 0
8, 5744, Note_on_c, 6, 72, 105
8, 6200, Note_on_c, 6, 72, 0
8, 13904, Note_on_c, 6, 81, 105
8, 14000, Note_on_c, 6, 81, 0
8, 14384, Note_on_c, 6, 79, 105
8, 14480, Note_on_c, 6, 79, 0
8, 14864, Note_on_c, 6, 77, 105
8, 14960, Note_on_c, 6, 77, 0
8, 15344, Note_on_c, 6, 76, 105
8, 16064, Note_on_c, 6, 76, 0
8, 16064, Note_on_c, 6, 74, 105
8, 16304, Note_on_c, 6, 74, 0
8, 16304, Note_on_c, 6, 72, 105
8, 16784, Note_on_c, 6, 72, 0
8, 17744, Note_on_c, 6, 72, 70
8, 17840, Note_on_c, 6, 72, 0
8, 18224, Note_on_c, 6, 71, 70
8, 18320, Note_on_c, 6, 71, 0
8, 18704, Note_on_c, 6, 69, 70
8, 18800, Note_on_c, 6, 69, 0
8, 19184, Note_on_c, 6, 67, 70
8, 19904, Note_on_c, 6, 67, 0
8, 19904, Note_on_c, 6, 65, 70
8, 20144, Note_on_c, 6, 65, 0
8, 20144, Note_on_c, 6, 64, 70
8, 20624, Note_on_c, 6, 64, 0
8, 21104, Note_on_c, 6, 67, 105
8, 21224, Note_on_c, 6, 67, 0
8, 21224, Note_on_c, 6, 62, 105
8, 21344, Note_on_c, 6, 62, 0
8, 21344, Note_on_c, 6, 59, 105
8, 21464, Note_on_c, 6, 59, 0
8, 21464, Note_on_c, 6, 55, 105
8, 21584, Note_on_c, 6, 55, 0
8, 21584, Note_on_c, 6, 67, 105
8, 21704, Note_on_c, 6, 67, 0
8, 21704, Note_on_c, 6, 67, 105
8, 21824, Note_on_c, 6, 67, 0
8, 21824, Note_on_c, 6, 67, 105
8, 21944, Note_on_c, 6, 67, 0
8, 21944, Note_on_c, 6, 67, 105
8, 22064, Note_on_c, 6, 67, 0
8, 22064, Note_on_c, 6, 67, 105
8, 22184, Note_on_c, 6, 67, 0
8, 22184, Note_on_c, 6, 62, 105
8, 22304, Note_on_c, 6, 62, 0
8, 22304, Note_on_c, 6, 59, 105
8, 22424, Note_on_c, 6, 59, 0
8, 22424, Note_on_c, 6, 55, 105
8, 22544, Note_on_c, 6, 55, 0
8, 22544, Note_on_c, 6, 67, 105
8, 22664, Note_on_c, 6, 67, 0
8, 22664, Note_on_c, 6, 67, 105
8, 22784, Note_on_c, 6, 67, 0
8, 22784, Note_on_c, 6, 67, 105
8, 22904, Note_on_c, 6, 67, 0
8, 22904, Note_on_c, 6, 67, 105
8, 23024, Note_on_c, 6, 67, 0
8, 23024, Note_on_c, 6, 67, 105
8, 23144, Note_on_c, 6, 67, 0
8, 23144, Note_on_c, 6, 64, 105
8, 23264, Note_on_c, 6, 64, 0
8, 23264, Note_on_c, 6, 60, 105
8, 23384, Note_on_c, 6, 60, 0
8, 23384, Note_on_c, 6, 55, 105
8, 23504, Note_on_c, 6, 55, 0
8, 23504, Note_on_c, 6, 67, 105
8, 23624, Note_on_c, 6, 67, 0
8, 23624, Note_on_c, 6, 67, 105
8, 23744, Note_on_c, 6, 67, 0
8, 23744, Note_on_c, 6, 67, 105
8, 23864, Note_on_c, 6, 67, 0
8, 23864, Note_on_c, 6, 67, 105
8, 23984, Note_on_c, 6, 67, 0
8, 23984, Note_on_c, 6, 67, 105
8, 24104, Note_on_c, 6, 67, 0
8, 24104, Note_on_c, 6, 64, 105
8, 24224, Note_on_c, 6, 64, 0
8, 24224, Note_on_c, 6, 60, 105
8, 24344, Note_on_c, 6, 60, 0
8, 24344, Note_on_c, 6, 55, 105
8, 24464, Note_on_c, 6, 55, 0
8, 24464, Note_on_c, 6, 67, 105
8, 24584, Note_on_c, 6, 67, 0
8, 24584, Note_on_c, 6, 67, 105
8, 24704, Note_on_c, 6, 67, 0
8, 24704, Note_on_c, 6, 67, 105
8, 24824, Note_on_c, 6, 67, 0
8, 24824, Note_on_c, 6, 67, 105
8, 24944, Note_on_c, 6, 67, 0
8, 24944, Note_on_c, 6, 69, 105
8, 25424, Note_on_c, 6, 69, 0
8, 25424, Note_on_c, 6, 71, 105
8, 25544, Note_on_c, 6, 71, 0
8, 25544, Note_on_c, 6, 69, 105
8, 25664, Note_on_c, 6, 69, 0
8, 25664, Note_on_c, 6, 67, 105
8, 25784, Note_on_c, 6, 67, 0
8, 25784, Note_on_c, 6, 65, 105
8, 25904, Note_on_c, 6, 65, 0
8, 25904, Note_on_c, 6, 64, 105
8, 26384, Note_on_c, 6, 64, 0
8, 26384, Note_on_c, 6, 62, 105
8, 26864, Note_on_c, 6, 62, 0
8, 26864, Note_on_c, 6, 60, 75
8, 26952, Note_on_c, 6, 60, 0
8, 26984, Note_on_c, 6, 64, 59
8, 27072, Note_on_c, 6, 64, 0
8, 27104, Note_on_c, 6, 62, 75
8, 27192, Note_on_c, 6, 62, 0
8, 27224, Note_on_c, 6, 65, 59
8, 27312, Note_on_c, 6, 65, 0
8, 27344, Note_on_c, 6, 64, 74
8, 27432, Note_on_c, 6, 64, 0
8, 27464, Note_on_c, 6, 67, 67
8, 27552, Note_on_c, 6, 67, 0
8, 27584, Note_on_c, 6, 65, 81
8, 27672, Note_on_c, 6, 65, 0
8, 27704, Note_on_c, 6, 69, 67
8, 27792, Note_on_c, 6, 69, 0
8, 27824, Note_on_c, 6, 67, 85
8, 27920, Note_on_c, 6, 67, 0
8, 28064, Note_on_c, 6, 69, 71
8, 28160, Note_on_c, 6, 69, 0
8, 28304, Note_on_c, 6, 71, 72
8, 28400, Note_on_c, 6, 71, 0
8, 28544, Note_on_c, 6, 72, 78
8, 28640, Note_on_c, 6, 72, 0
8, 28784, Note_on_c, 6, 67, 105
8, 28904, Note_on_c, 6, 67, 0
8, 28904, Note_on_c, 6, 62, 105
8, 29024, Note_on_c, 6, 62, 0
8, 29024, Note_on_c, 6, 59, 105
8, 29144, Note_on_c, 6, 59, 0
8, 29144, Note_on_c, 6, 55, 105
8, 29264, Note_on_c, 6, 55, 0
8, 29264, Note_on_c, 6, 67, 105
8, 29384, Note_on_c, 6, 67, 0
8, 29384, Note_on_c, 6, 67, 105
8, 29504, Note_on_c, 6, 67, 0
8, 29504, Note_on_c, 6, 67, 105
8, 29624, Note_on_c, 6, 67, 0
8, 29624, Note_on_c, 6, 67, 105
8, 29744, Note_on_c, 6, 67, 0
8, 29744, Note_on_c, 6, 67, 105
8, 29864, Note_on_c, 6, 67, 0
8, 29864, Note_on_c, 6, 62, 105
8, 29984, Note_on_c, 6, 62, 0
8, 29984, Note_on_c, 6, 59, 105
8, 30104, Note_on_c, 6, 59, 0
8, 30104, Note_on_c, 6, 55, 105
8, 30224, Note_on_c, 6, 55, 0
8, 30224, Note_on_c, 6, 67, 105
8, 30344, Note_on_c, 6, 67, 0
8, 30344, Note_on_c, 6, 67, 105
8, 30464, Note_on_c, 6, 67, 0
8, 30464, Note_on_c, 6, 67, 105
8, 30584, Note_on_c, 6, 67, 0
8, 30584, Note_on_c, 6, 67, 105
8, 30704, Note_on_c, 6, 67, 0
8, 30704, Note_on_c, 6, 67, 105
8, 30824, Note_on_c, 6, 67, 0
8, 30824, Note_on_c, 6, 64, 105
8, 30944, Note_on_c, 6, 64, 0
8, 30944, Note_on_c, 6, 60, 105
8, 31064, Note_on_c, 6, 60, 0
8, 31064, Note_on_c, 6, 55, 105
8, 31184, Note_on_c, 6, 55, 0
8, 31184, Note_on_c, 6, 72, 105
8, 31304, Note_on_c, 6, 72, 0
8, 31304, Note_on_c, 6, 72, 105
8, 31424, Note_on_c, 6, 72, 0
8, 31424, Note_on_c, 6, 72, 105
8, 31544, Note_on_c, 6, 72, 0
8, 31544, Note_on_c, 6, 72, 105
8, 31664, Note_on_c, 6, 72, 0
8, 31664, Note_on_c, 6, 72, 105
8, 31784, Note_on_c, 6, 72, 0
8, 31784, Note_on_c, 6, 69, 105
8, 31904, Note_on_c, 6, 69, 0
8, 31904, Note_on_c, 6, 64, 105
8, 32024, Note_on_c, 6, 64, 0
8, 32024, Note_on_c, 6, 60, 105
8, 32144, Note_on_c, 6, 60, 0
8, 32144, Note_on_c, 6, 72, 105
8, 32264, Note_on_c, 6, 72, 0
8, 32264, Note_on_c, 6, 72, 105
8, 32384, Note_on_c, 6, 72, 0
8, 32384, Note_on_c, 6, 72, 105
8, 32504, Note_on_c, 6, 72, 0
8, 32504, Note_on_c, 6, 72, 105
8, 32624, Note_on_c, 6, 72, 0
8, 34544, Note_on_c, 6, 71, 105
8, 34664, Note_on_c, 6, 71, 0
8, 34664, Note_on_c, 6, 74, 105
8, 34784, Note_on_c, 6, 74, 0
8, 34784, Note_on_c, 6, 79, 105
8, 34828, Note_on_c, 6, 79, 0
8, 34904, Note_on_c, 6, 79, 105
8, 34948, Note_on_c, 6, 79, 0
8, 35024, Note_on_c, 6, 79, 105
8, 35144, Note_on_c, 6, 79, 0
8, 35144, Note_on_c, 6, 79, 105
8, 35264, Note_on_c, 6, 79, 0
8, 35264, Note_on_c, 6, 79, 105
8, 35384, Note_on_c, 6, 79, 0
8, 35384, Note_on_c, 6, 79, 105
8, 35504, Note_on_c, 6, 79, 0
8, 35504, Note_on_c, 6, 72, 105
8, 35624, Note_on_c, 6, 72, 0
8, 35624, Note_on_c, 6, 76, 105
8, 35744, Note_on_c, 6, 76, 0
8, 35744, Note_on_c, 6, 79, 105
8, 35788, Note_on_c, 6, 79, 0
8, 35864, Note_on_c, 6, 79, 105
8, 35908, Note_on_c, 6, 79, 0
8, 35984, Note_on_c, 6, 79, 105
8, 36104, Note_on_c, 6, 79, 0
8, 36104, Note_on_c, 6, 79, 105
8, 36224, Note_on_c, 6, 79, 0
8, 36224, Note_on_c, 6, 79, 105
8, 36344, Note_on_c, 6, 79, 0
8, 36344, Note_on_c, 6, 79, 105
8, 36464, Note_on_c, 6, 79, 0
8, 36464, Note_on_c, 6, 71, 105
8, 36584, Note_on_c, 6, 71, 0
8, 36584, Note_on_c, 6, 74, 105
8, 36704, Note_on_c, 6, 74, 0
8, 36704, Note_on_c, 6, 79, 105
8, 36748, Note_on_c, 6, 79, 0
8, 36824, Note_on_c, 6, 79, 105
8, 36868, Note_on_c, 6, 79, 0
8, 36944, Note_on_c, 6, 79, 105
8, 37064, Note_on_c, 6, 79, 0
8, 37064, Note_on_c, 6, 79, 105
8, 37184, Note_on_c, 6, 79, 0
8, 37184, Note_on_c, 6, 79, 105
8, 37304, Note_on_c, 6, 79, 0
8, 37304, Note_on_c, 6, 79, 105
8, 37424, Note_on_c, 6, 79, 0
8, 37424, Note_on_c, 6, 72, 105
8, 37544, Note_on_c, 6, 72, 0
8, 37544, Note_on_c, 6, 76, 105
8, 37664, Note_on_c, 6, 76, 0
8, 37664, Note_on_c, 6, 79, 105
8, 37708, Note_on_c, 6, 79, 0
8, 37784, Note_on_c, 6, 79, 105
8, 37828, Note_on_c, 6, 79, 0
8, 37904, Note_on_c, 6, 79, 105
8, 38024, Note_on_c, 6, 79, 0
8, 38024, Note_on_c, 6, 79, 105
8, 38144, Note_on_c, 6, 79, 0
8, 38144, Note_on_c, 6, 79, 105
8, 38264, Note_on_c, 6, 79, 0
8, 38264, Note_on_c, 6, 79, 105
8, 38384, Note_on_c, 6, 79, 0
8, 38384, Note_on_c, 6, 79, 105
8, 38803, Note_on_c, 6, 79, 0
8, 38864, Note_on_c, 6, 71, 105
8, 39323, Note_on_c, 6, 71, 0
8, 39344, Note_on_c, 6, 55, 105
8, 39824, Note_on_c, 6, 55, 0
8, 40304, Note_on_c, 6, 60, 70
8, 40544, Note_on_c, 6, 55, 70
8, 40623, Note_on_c, 6, 60, 0
8, 40784, Note_on_c, 6, 60, 70
8, 40863, Note_on_c, 6, 55, 0
8, 41024, Note_on_c, 6, 55, 70
8, 41103, Note_on_c, 6, 60, 0
8, 41264, Note_on_c, 6, 60, 70
8, 41343, Note_on_c, 6, 55, 0
8, 41504, Note_on_c, 6, 55, 70
8, 41583, Note_on_c, 6, 60, 0
8, 41744, Note_on_c, 6, 60, 70
8, 41823, Note_on_c, 6, 55, 0
8, 41984, Note_on_c, 6, 55, 70
8, 42063, Note_on_c, 6, 60, 0
8, 42188, Note_on_c, 6, 55, 0
8, 42224, Note_on_c, 6, 62, 70
8, 42464, Note_on_c, 6, 55, 70
8, 42543, Note_on_c, 6, 62, 0
8, 42704, Note_on_c, 6, 62, 70
8, 42783, Note_on_c, 6, 55, 0
8, 42944, Note_on_c, 6, 55, 70
8, 43023, Note_on_c, 6, 62, 0
8, 43184, Note_on_c, 6, 62, 70
8, 43263, Note_on_c, 6, 55, 0
8, 43424, Note_on_c, 6, 55, 70
8, 43503, Note_on_c, 6, 62, 0
8, 43664, Note_on_c, 6, 62, 70
8, 43743, Note_on_c, 6, 55, 0
8, 43904, Note_on_c, 6, 55, 70
8, 43983, Note_on_c, 6, 62, 0
8, 44098, Note_on_c, 6, 55, 0
8, 44144, Note_on_c, 6, 64, 70
8, 44624, Note_on_c, 6, 64, 0
8, 45104, Note_on_c, 6, 67, 70
8, 45200, Note_on_c, 6, 67, 0
8, 45344, Note_on_c, 6, 69, 70
8, 45440, Note_on_c, 6, 69, 0
8, 45584, Note_on_c, 6, 71, 70
8, 45680, Note_on_c, 6, 71, 0
8, 45824, Note_on_c, 6, 72, 70
8, 45920, Note_on_c, 6, 72, 0
8, 46064, Note_on_c, 6, 72, 70
8, 46304, Note_on_c, 6, 71, 70
8, 46359, Note_on_c, 6, 72, 0
8, 46544, Note_on_c, 6, 69, 70
8, 46599, Note_on_c, 6, 71, 0
8, 46784, Note_on_c, 6, 67, 70
8, 46839, Note_on_c, 6, 69, 0
8, 47024, Note_on_c, 6, 67, 0
8, 47024, Note_on_c, 6, 67, 70
8, 47144, Note_on_c, 6, 67, 0
8, 47144, Note_on_c, 6, 65, 70
8, 47264, Note_on_c, 6, 65, 0
8, 47264, Note_on_c, 6, 64, 70
8, 47384, Note_on_c, 6, 64, 0
8, 47384, Note_on_c, 6, 65, 70
8, 47504, Note_on_c, 6, 65, 0
8, 47504, Note_on_c, 6, 69, 70
8, 47744, Note_on_c, 6, 69, 0
8, 47744, Note_on_c, 6, 65, 70
8, 47984, Note_on_c, 6, 65, 0
8, 47984, Note_on_c, 6, 63, 70
8, 48224, Note_on_c, 6, 63, 0
8, 48224, Note_on_c, 6, 64, 70
8, 48464, Note_on_c, 6, 64, 0
8, 48704, Note_on_c, 6, 64, 70
8, 48748, Note_on_c, 6, 64, 0
8, 48824, Note_on_c, 6, 65, 70
8, 48868, Note_on_c, 6, 65, 0
8, 48944, Note_on_c, 6, 67, 70
8, 49040, Note_on_c, 6, 67, 0
8, 49184, Note_on_c, 6, 69, 70
8, 49280, Note_on_c, 6, 69, 0
8, 49424, Note_on_c, 6, 71, 70
8, 49520, Note_on_c, 6, 71, 0
8, 49664, Note_on_c, 6, 72, 70
8, 49760, Note_on_c, 6, 72, 0
8, 49904, Note_on_c, 6, 72, 70
8, 50144, Note_on_c, 6, 71, 70
8, 50199, Note_on_c, 6, 72, 0
8, 50384, Note_on_c, 6, 69, 70
8, 50439, Note_on_c, 6, 71, 0
8, 50624, Note_on_c, 6, 67, 70
8, 50679, Note_on_c, 6, 69, 0
8, 50828, Note_on_c, 6, 67, 0
8, 50864, Note_on_c, 6, 67, 75
8, 50984, Note_on_c, 6, 67, 0
8, 50984, Note_on_c, 6, 65, 79
8, 51104, Note_on_c, 6, 65, 0
8, 51104, Note_on_c, 6, 64, 79
8, 51224, Note_on_c, 6, 64, 0
8, 51224, Note_on_c, 6, 65, 76
8, 51344, Note_on_c, 6, 65, 0
8, 51344, Note_on_c, 6, 69, 76
8, 51584, Note_on_c, 6, 69, 0
8, 51584, Note_on_c, 6, 65, 70
8, 51824, Note_on_c, 6, 65, 0
8, 51824, Note_on_c, 6, 64, 70
8, 52013, Note_on_c, 6, 64, 0
8, 52064, Note_on_c, 6, 72, 70
8, 52544, Note_on_c, 6, 70, 70
8, 52616, Note_on_c, 6, 72, 0
8, 53024, Note_on_c, 6, 69, 70
8, 53096, Note_on_c, 6, 70, 0
8, 53504, Note_on_c, 6, 67, 70
8, 53576, Note_on_c, 6, 69, 0
8, 53903, Note_on_c, 6, 67, 0
8, 53984, Note_on_c, 6, 65, 70
8, 54464, Note_on_c, 6, 72, 70
8, 54536, Note_on_c, 6, 65, 0
8, 54944, Note_on_c, 6, 70, 70
8, 55016, Note_on_c, 6, 72, 0
8, 55424, Note_on_c, 6, 69, 70
8, 55496, Note_on_c, 6, 70, 0
8, 55833, Note_on_c, 6, 69, 0
8, 55904, Note_on_c, 6, 67, 70
8, 56384, Note_on_c, 6, 72, 70
8, 56456, Note_on_c, 6, 67, 0
8, 56864, Note_on_c, 6, 70, 70
8, 56936, Note_on_c, 6, 72, 0
8, 57344, Note_on_c, 6, 68, 70
8, 57432, Note_on_c, 6, 70, 0
8, 57743, Note_on_c, 6, 68, 0
8, 57824, Note_on_c, 6, 69, 70
8, 57920, Note_on_c, 6, 69, 0
8, 58064, Note_on_c, 6, 71, 70
8, 58160, Note_on_c, 6, 71, 0
8, 58304, Note_on_c, 6, 72, 70
8, 58400, Note_on_c, 6, 72, 0
8, 58544, Note_on_c, 6, 64, 70
8, 58640, Note_on_c, 6, 64, 0
8, 58784, Note_on_c, 6, 65, 70
8, 58880, Note_on_c, 6, 65, 0
8, 59024, Note_on_c, 6, 68, 70
8, 59120, Note_on_c, 6, 68, 0
8, 59264, Note_on_c, 6, 69, 70
8, 59360, Note_on_c, 6, 69, 0
8, 59504, Note_on_c, 6, 61, 70
8, 59600, Note_on_c, 6, 61, 0
8, 59744, Note_on_c, 6, 62, 70
8, 59840, Note_on_c, 6, 62, 0
8, 59984, Note_on_c, 6, 61, 70
8, 60080, Note_on_c, 6, 61, 0
8, 60224, Note_on_c, 6, 62, 70
8, 60320, Note_on_c, 6, 62, 0
8, 60464, Note_on_c, 6, 61, 70
8, 60560, Note_on_c, 6, 61, 0
8, 60704, Note_on_c, 6, 62, 70
8, 60800, Note_on_c, 6, 62, 0
8, 60944, Note_on_c, 6, 64, 70
8, 61040, Note_on_c, 6, 64, 0
8, 61184, Note_on_c, 6, 65, 70
8, 61280, Note_on_c, 6, 65, 0
8, 61344, Note_on_c, 6, 64, 105
8, 61404, Note_on_c, 6, 72, 105
8, 61424, Note_on_c, 6, 76, 105
8, 61448, Note_on_c, 6, 64, 0
8, 61903, Note_on_c, 6, 72, 0
8, 61904, Note_on_c, 6, 76, 0
8, 61904, Note_on_c, 6, 76, 105
8, 62624, Note_on_c, 6, 76, 0
8, 62624, Note_on_c, 6, 77, 105
8, 62744, Note_on_c, 6, 77, 0
8, 62744, Note_on_c, 6, 76, 105
8, 62864, Note_on_c, 6, 76, 0
8, 62864, Note_on_c, 6, 74, 105
8, 63104, Note_on_c, 6, 74, 0
8, 63104, Note_on_c, 6, 72, 105
8, 63344, Note_on_c, 6, 72, 0
8, 63344, Note_on_c, 6, 67, 105
8, 63704, Note_on_c, 6, 67, 0
8, 63704, Note_on_c, 6, 65, 105
8, 63824, Note_on_c, 6, 65, 0
8, 63824, Note_on_c, 6, 64, 105
8, 64784, Note_on_c, 6, 64, 0
8, 64784, Note_on_c, 6, 62, 105
8, 65264, Note_on_c, 6, 62, 0
8, 65264, Note_on_c, 6, 60, 105
8, 65308, Note_on_c, 6, 60, 0
8, 65384, Note_on_c, 6, 55, 105
8, 65428, Note_on_c, 6, 55, 0
8, 65504, Note_on_c, 6, 57, 105
8, 65548, Note_on_c, 6, 57, 0
8, 65624, Note_on_c, 6, 59, 105
8, 65668, Note_on_c, 6, 59, 0
8, 65744, Note_on_c, 6, 60, 105
8, 65788, Note_on_c, 6, 60, 0
8, 65864, Note_on_c, 6, 62, 105
8, 65908, Note_on_c, 6, 62, 0
8, 65984, Note_on_c, 6, 64, 105
8, 66028, Note_on_c, 6, 64, 0
8, 66104, Note_on_c, 6, 62, 105
8, 66148, Note_on_c, 6, 62, 0
8, 66224, Note_on_c, 6, 60, 70
8, 66320, Note_on_c, 6, 60, 0
8, 66464, Note_on_c, 6, 55, 70
8, 66560, Note_on_c, 6, 55, 0
8, 66704, Note_on_c, 6, 62, 70
8, 66800, Note_on_c, 6, 62, 0
8, 66944, Note_on_c, 6, 55, 70
8, 67040, Note_on_c, 6, 55, 0
8, 67184, Note_on_c, 6, 64, 70
8, 67280, Note_on_c, 6, 64, 0
8, 67424, Note_on_c, 6, 55, 70
8, 67520, Note_on_c, 6, 55, 0
8, 67664, Note_on_c, 6, 64, 70
8, 67760, Note_on_c, 6, 64, 0
8, 67904, Note_on_c, 6, 55, 70
8, 68000, Note_on_c, 6, 55, 0
8, 68144, Note_on_c, 6, 60, 70
8, 68240, Note_on_c, 6, 60, 0
8, 68384, Note_on_c, 6, 55, 70
8, 68480, Note_on_c, 6, 55, 0
8, 68624, Note_on_c, 6, 62, 70
8, 68720, Note_on_c, 6, 62, 0
8, 68864, Note_on_c, 6, 55, 70
8, 68960, Note_on_c, 6, 55, 0
8, 69104, Note_on_c, 6, 64, 70
8, 69200, Note_on_c, 6, 64, 0
8, 69344, Note_on_c, 6, 55, 70
8, 69440, Note_on_c, 6, 55, 0
8, 69584, Note_on_c, 6, 64, 70
8, 69680, Note_on_c, 6, 64, 0
8, 69824, Note_on_c, 6, 55, 70
8, 69920, Note_on_c, 6, 55, 0
8, 70064, Note_on_c, 6, 60, 70
8, 70160, Note_on_c, 6, 60, 0
8, 70304, Note_on_c, 6, 55, 70
8, 70400, Note_on_c, 6, 55, 0
8, 70544, Note_on_c, 6, 62, 70
8, 70640, Note_on_c, 6, 62, 0
8, 70784, Note_on_c, 6, 55, 70
8, 70880, Note_on_c, 6, 55, 0
8, 71024, Note_on_c, 6, 64, 70
8, 71120, Note_on_c, 6, 64, 0
8, 71264, Note_on_c, 6, 55, 70
8, 71360, Note_on_c, 6, 55, 0
8, 71504, Note_on_c, 6, 62, 70
8, 71600, Note_on_c, 6, 62, 0
8, 71744, Note_on_c, 6, 55, 70
8, 71840, Note_on_c, 6, 55, 0
8, 71984, Note_on_c, 6, 60, 70
8, 72080, Note_on_c, 6, 60, 0
8, 72224, Note_on_c, 6, 55, 70
8, 72320, Note_on_c, 6, 55, 0
8, 72464, Note_on_c, 6, 59, 70
8, 72560, Note_on_c, 6, 59, 0
8, 72704, Note_on_c, 6, 55, 70
8, 72800, Note_on_c, 6, 55, 0
8, 72944, Note_on_c, 6, 60, 105
8, 73064, Note_on_c, 6, 60, 0
8, 73064, Note_on_c, 6, 62, 105
8, 73184, Note_on_c, 6, 62, 0
8, 73184, Note_on_c, 6, 64, 105
8, 73304, Note_on_c, 6, 64, 0
8, 73304, Note_on_c, 6, 65, 105
8, 73424, Note_on_c, 6, 65, 0
8, 73424, Note_on_c, 6, 67, 105
8, 73544, Note_on_c, 6, 67, 0
8, 73544, Note_on_c, 6, 69, 105
8, 73664, Note_on_c, 6, 69, 0
8, 73664, Note_on_c, 6, 71, 105
8, 73784, Note_on_c, 6, 71, 0
8, 73784, Note_on_c, 6, 72, 105
8, 73904, Note_on_c, 6, 72, 0
8, 73904, Note_on_c, 6, 57, 105
8, 74024, Note_on_c, 6, 57, 0
8, 74024, Note_on_c, 6, 59, 105
8, 74144, Note_on_c, 6, 59, 0
8, 74144, Note_on_c, 6, 60, 105
8, 74264, Note_on_c, 6, 60, 0
8, 74264, Note_on_c, 6, 62, 105
8, 74384, Note_on_c, 6, 62, 0
8, 74384, Note_on_c, 6, 64, 105
8, 74504, Note_on_c, 6, 64, 0
8, 74504, Note_on_c, 6, 65, 105
8, 74624, Note_on_c, 6, 65, 0
8, 74624, Note_on_c, 6, 67, 105
8, 74744, Note_on_c, 6, 67, 0
8, 74744, Note_on_c, 6, 69, 105
8, 74864, Note_on_c, 6, 69, 0
8, 74864, Note_on_c, 6, 55, 105
8, 74984, Note_on_c, 6, 55, 0
8, 74984, Note_on_c, 6, 57, 105
8, 75104, Note_on_c, 6, 57, 0
8, 75104, Note_on_c, 6, 59, 105
8, 75224, Note_on_c, 6, 59, 0
8, 75224, Note_on_c, 6, 60, 105
8, 75344, Note_on_c, 6, 60, 0
8, 75344, Note_on_c, 6, 62, 105
8, 75464, Note_on_c, 6, 62, 0
8, 75464, Note_on_c, 6, 64, 105
8, 75584, Note_on_c, 6, 64, 0
8, 75584, Note_on_c, 6, 65, 105
8, 75704, Note_on_c, 6, 65, 0
8, 75704, Note_on_c, 6, 67, 105
8, 75824, Note_on_c, 6, 67, 0
8, 75824, Note_on_c, 6, 67, 105
8, 76064, Note_on_c, 6, 65, 105
8, 76133, Note_on_c, 6, 67, 0
8, 76253, Note_on_c, 6, 65, 0
8, 76304, Note_on_c, 6, 64, 105
8, 76400, Note_on_c, 6, 64, 0
8, 76544, Note_on_c, 6, 62, 105
8, 76640, Note_on_c, 6, 62, 0
8, 76784, Note_on_c, 6, 60, 105
8, 77264, Note_on_c, 6, 60, 0
8, 77504, Note_on_c, 6, 67, 103
8, 77584, Note_on_c, 6, 69, 107
8, 77610, Note_on_c, 6, 67, 0
8, 77660, Note_on_c, 6, 71, 108
8, 77685, Note_on_c, 6, 69, 0
8, 77744, Note_on_c, 6, 72, 110
8, 77772, Note_on_c, 6, 71, 0
8, 78224, Note_on_c, 6, 72, 0
8, 78464, Note_on_c, 6, 67, 100
8, 78544, Note_on_c, 6, 69, 102
8, 78570, Note_on_c, 6, 67, 0
8, 78620, Note_on_c, 6, 71, 105
8, 78645, Note_on_c, 6, 69, 0
8, 78704, Note_on_c, 6, 72, 109
8, 78732, Note_on_c, 6, 71, 0
8, 79184, Note_on_c, 6, 72, 0
8, 79424, Note_on_c, 6, 67, 102
8, 79504, Note_on_c, 6, 69, 105
8, 79530, Note_on_c, 6, 67, 0
8, 79580, Note_on_c, 6, 71, 107
8, 79605, Note_on_c, 6, 69, 0
8, 79664, Note_on_c, 6, 72, 109
8, 79692, Note_on_c, 6, 71, 0
8, 79904, Note_on_c, 6, 72, 0
8, 79904, Note_on_c, 6, 67, 102
8, 79984, Note_on_c, 6, 69, 103
8, 80010, Note_on_c, 6, 67, 0
8, 80060, Note_on_c, 6, 71, 106
8, 80085, Note_on_c, 6, 69, 0
8, 80144, Note_on_c, 6, 72, 109
8, 80172, Note_on_c, 6, 71, 0
8, 80384, Note_on_c, 6, 72, 0
8, 80384, Note_on_c, 6, 67, 100
8, 80464, Note_on_c, 6, 69, 102
8, 80490, Note_on_c, 6, 67, 0
8, 80540, Note_on_c, 6, 71, 103
8, 80565, Note_on_c, 6, 69, 0
8, 80624, Note_on_c, 6, 72, 107
8, 80652, Note_on_c, 6, 71, 0
8, 81104, Note_on_c, 6, 72, 0
8, 103904, Note_on_c, 6, 64, 70
8, 104072, Note_on_c, 6, 64, 0
8, 104144, Note_on_c, 6, 64, 70
8, 104312, Note_on_c, 6, 64, 0
8, 104384, Note_on_c, 6, 64, 70
8, 104552, Note_on_c, 6, 64, 0
8, 104624, Note_on_c, 6, 64, 70
8, 104792, Note_on_c, 6, 64, 0
8, 104864, Note_on_c, 6, 64, 70
8, 105032, Note_on_c, 6, 64, 0
8, 105104, Note_on_c, 6, 64, 70
8, 105272, Note_on_c, 6, 64, 0
8, 105344, Note_on_c, 6, 64, 70
8, 105512, Note_on_c, 6, 64, 0
8, 105824, Note_on_c, 6, 65, 70
8, 105992, Note_on_c, 6, 65, 0
8, 106064, Note_on_c, 6, 65, 70
8, 106232, Note_on_c, 6, 65, 0
8, 106304, Note_on_c, 6, 65, 70
8, 106472, Note_on_c, 6, 65, 0
8, 106544, Note_on_c, 6, 65, 70
8, 106712, Note_on_c, 6, 65, 0
8, 106784, Note_on_c, 6, 65, 70
8, 106952, Note_on_c, 6, 65, 0
8, 107024, Note_on_c, 6, 65, 70
8, 107192, Note_on_c, 6, 65, 0
8, 107264, Note_on_c, 6, 65, 70
8, 107432, Note_on_c, 6, 65, 0
8, 107744, Note_on_c, 6, 64, 70
8, 107912, Note_on_c, 6, 64, 0
8, 107984, Note_on_c, 6, 64, 70
8, 108152, Note_on_c, 6, 64, 0
8, 108224, Note_on_c, 6, 64, 70
8, 108392, Note_on_c, 6, 64, 0
8, 108464, Note_on_c, 6, 64, 70
8, 108632, Note_on_c, 6, 64, 0
8, 108704, Note_on_c, 6, 64, 70
8, 108872, Note_on_c, 6, 64, 0
8, 108944, Note_on_c, 6, 64, 70
8, 109112, Note_on_c, 6, 64, 0
8, 109184, Note_on_c, 6, 64, 70
8, 109352, Note_on_c, 6, 64, 0
8, 109424, Note_on_c, 6, 64, 70
8, 109664, Note_on_c, 6, 62, 70
8, 109733, Note_on_c, 6, 64, 0
8, 109853, Note_on_c, 6, 62, 0
8, 109904, Note_on_c, 6, 60, 70
8, 110000, Note_on_c, 6, 60, 0
8, 110144, Note_on_c, 6, 60, 70
8, 110240, Note_on_c, 6, 60, 0
8, 110384, Note_on_c, 6, 60, 70
8, 110624, Note_on_c, 6, 64, 70
8, 110682, Note_on_c, 6, 60, 0
8, 110864, Note_on_c, 6, 62, 70
8, 110922, Note_on_c, 6, 64, 0
8, 111104, Note_on_c, 6, 59, 70
8, 111162, Note_on_c, 6, 62, 0
8, 111303, Note_on_c, 6, 59, 0
8, 111344, Note_on_c, 6, 60, 70
8, 111584, Note_on_c, 6, 60, 0
8, 111824, Note_on_c, 6, 67, 70
8, 112064, Note_on_c, 6, 67, 0
8, 112304, Note_on_c, 6, 72, 70
8, 112544, Note_on_c, 6, 72, 0
8, 112784, Note_on_c, 6, 76, 70
8, 113024, Note_on_c, 6, 76, 0
8, 113264, Note_on_c, 6, 77, 70
8, 113504, Note_on_c, 6, 77, 0
8, 113744, Note_on_c, 6, 69, 70
8, 113984, Note_on_c, 6, 69, 0
8, 114224, Note_on_c, 6, 72, 70
8, 114464, Note_on_c, 6, 72, 0
8, 114704, Note_on_c, 6, 77, 70
8, 114944, Note_on_c, 6, 77, 0
8, 115184, Note_on_c, 6, 79, 70
8, 115424, Note_on_c, 6, 79, 0
8, 115664, Note_on_c, 6, 72, 70
8, 115904, Note_on_c, 6, 72, 0
8, 116144, Note_on_c, 6, 76, 70
8, 116384, Note_on_c, 6, 76, 0
8, 116624, Note_on_c, 6, 79, 70
8, 116864, Note_on_c, 6, 79, 0
8, 117344, Note_on_c, 6, 64, 70
8, 117440, Note_on_c, 6, 64, 0
8, 117584, Note_on_c, 6, 67, 70
8, 117680, Note_on_c, 6, 67, 0
8, 117824, Note_on_c, 6, 72, 70
8, 117920, Note_on_c, 6, 72, 0
8, 118064, Note_on_c, 6, 76, 70
8, 118160, Note_on_c, 6, 76, 0
8, 118304, Note_on_c, 6, 72, 70
8, 118400, Note_on_c, 6, 72, 0
8, 118544, Note_on_c, 6, 74, 70
8, 118640, Note_on_c, 6, 74, 0
8, 118784, Note_on_c, 6, 71, 70
8, 118880, Note_on_c, 6, 71, 0
8, 119024, Note_on_c, 6, 72, 70
8, 119504, Note_on_c, 6, 72, 0
8, 125024, Note_on_c, 6, 55, 70
8, 125120, Note_on_c, 6, 55, 0
8, 125264, Note_on_c, 6, 57, 70
8, 125360, Note_on_c, 6, 57, 0
8, 125504, Note_on_c, 6, 59, 70
8, 125600, Note_on_c, 6, 59, 0
8, 125744, Note_on_c, 6, 60, 70
8, 125840, Note_on_c, 6, 60, 0
8, 125984, Note_on_c, 6, 62, 70
8, 126080, Note_on_c, 6, 62, 0
8, 126224, Note_on_c, 6, 64, 70
8, 126320, Note_on_c, 6, 64, 0
8, 126464, Note_on_c, 6, 66, 73
8, 126560, Note_on_c, 6, 66, 0
8, 126704, Note_on_c, 6, 67, 80
8, 126944, Note_on_c, 6, 67, 0
8, 145904, Note_on_c, 6, 55, 70
8, 146072, Note_on_c, 6, 55, 0
8, 146144, Note_on_c, 6, 55, 70
8, 146312, Note_on_c, 6, 55, 0
8, 146384, Note_on_c, 6, 55, 70
8, 146552, Note_on_c, 6, 55, 0
8, 146624, Note_on_c, 6, 55, 70
8, 146792, Note_on_c, 6, 55, 0
8, 146864, Note_on_c, 6, 59, 70
8, 147032, Note_on_c, 6, 59, 0
8, 147104, Note_on_c, 6, 59, 70
8, 147272, Note_on_c, 6, 59, 0
8, 147344, Note_on_c, 6, 59, 70
8, 147512, Note_on_c, 6, 59, 0
8, 147584, Note_on_c, 6, 59, 70
8, 147752, Note_on_c, 6, 59, 0
8, 147824, Note_on_c, 6, 60, 70
8, 147992, Note_on_c, 6, 60, 0
8, 148064, Note_on_c, 6, 60, 70
8, 148232, Note_on_c, 6, 60, 0
8, 148304, Note_on_c, 6, 60, 70
8, 148472, Note_on_c, 6, 60, 0
8, 148544, Note_on_c, 6, 60, 70
8, 148712, Note_on_c, 6, 60, 0
8, 148784, Note_on_c, 6, 60, 70
8, 148952, Note_on_c, 6, 60, 0
8, 149024, Note_on_c, 6, 60, 70
8, 149192, Note_on_c, 6, 60, 0
8, 149264, Note_on_c, 6, 61, 70
8, 149432, Note_on_c, 6, 61, 0
8, 149504, Note_on_c, 6, 61, 70
8, 149672, Note_on_c, 6, 61, 0
8, 149744, Note_on_c, 6, 62, 70
8, 149984, Note_on_c, 6, 66, 70
8, 150039, Note_on_c, 6, 62, 0
8, 150224, Note_on_c, 6, 69, 70
8, 150279, Note_on_c, 6, 66, 0
8, 150464, Note_on_c, 6, 66, 70
8, 150519, Note_on_c, 6, 69, 0
8, 150704, Note_on_c, 6, 62, 70
8, 150759, Note_on_c, 6, 66, 0
8, 150944, Note_on_c, 6, 66, 70
8, 150999, Note_on_c, 6, 62, 0
8, 151184, Note_on_c, 6, 69, 70
8, 151239, Note_on_c, 6, 66, 0
8, 151424, Note_on_c, 6, 66, 70
8, 151479, Note_on_c, 6, 69, 0
8, 151593, Note_on_c, 6, 66, 0
8, 151664, Note_on_c, 6, 62, 70
8, 151904, Note_on_c, 6, 66, 70
8, 151959, Note_on_c, 6, 62, 0
8, 152144, Note_on_c, 6, 69, 70
8, 152199, Note_on_c, 6, 66, 0
8, 152384, Note_on_c, 6, 66, 70
8, 152439, Note_on_c, 6, 69, 0
8, 152624, Note_on_c, 6, 62, 70
8, 152679, Note_on_c, 6, 66, 0
8, 152864, Note_on_c, 6, 66, 70
8, 152919, Note_on_c, 6, 62, 0
8, 153104, Note_on_c, 6, 69, 70
8, 153159, Note_on_c, 6, 66, 0
8, 153344, Note_on_c, 6, 66, 70
8, 153399, Note_on_c, 6, 69, 0
8, 153533, Note_on_c, 6, 66, 0
8, 153584, Note_on_c, 6, 67, 70
8, 154064, Note_on_c, 6, 67, 0
8, 154064, Note_on_c, 6, 69, 80
8, 154092, Note_on_c, 6, 69, 0
8, 154092, Note_on_c, 6, 67, 81
8, 154124, Note_on_c, 6, 67, 0
8, 154124, Note_on_c, 6, 69, 81
8, 154152, Note_on_c, 6, 69, 0
8, 154152, Note_on_c, 6, 67, 81
8, 154184, Note_on_c, 6, 67, 0
8, 154184, Note_on_c, 6, 66, 78
8, 154304, Note_on_c, 6, 67, 74
8, 154353, Note_on_c, 6, 66, 0
8, 154424, Note_on_c, 6, 69, 75
8, 154458, Note_on_c, 6, 67, 0
8, 154544, Note_on_c, 6, 71, 83
8, 154593, Note_on_c, 6, 69, 0
8, 155024, Note_on_c, 6, 71, 0
8, 155504, Note_on_c, 6, 79, 70
8, 155984, Note_on_c, 6, 79, 0
8, 155984, Note_on_c, 6, 81, 86
8, 156012, Note_on_c, 6, 81, 0
8, 156012, Note_on_c, 6, 79, 86
8, 156044, Note_on_c, 6, 79, 0
8, 156044, Note_on_c, 6, 81, 86
8, 156072, Note_on_c, 6, 81, 0
8, 156072, Note_on_c, 6, 79, 87
8, 156104, Note_on_c, 6, 79, 0
8, 156104, Note_on_c, 6, 78, 84
8, 156224, Note_on_c, 6, 79, 80
8, 156273, Note_on_c, 6, 78, 0
8, 156344, Note_on_c, 6, 81, 81
8, 156373, Note_on_c, 6, 79, 0
8, 156464, Note_on_c, 6, 81, 0
8, 156464, Note_on_c, 6, 83, 88
8, 156944, Note_on_c, 6, 83, 0
8, 157424, Note_on_c, 6, 62, 70
8, 157664, Note_on_c, 6, 66, 70
8, 157719, Note_on_c, 6, 62, 0
8, 157904, Note_on_c, 6, 69, 70
8, 157959, Note_on_c, 6, 66, 0
8, 158144, Note_on_c, 6, 66, 70
8, 158199, Note_on_c, 6, 69, 0
8, 158384, Note_on_c, 6, 62, 70
8, 158439, Note_on_c, 6, 66, 0
8, 158624, Note_on_c, 6, 66, 70
8, 158679, Note_on_c, 6, 62, 0
8, 158864, Note_on_c, 6, 69, 70
8, 158919, Note_on_c, 6, 66, 0
8, 159104, Note_on_c, 6, 66, 70
8, 159159, Note_on_c, 6, 69, 0
8, 159298, Note_on_c, 6, 66, 0
8, 159344, Note_on_c, 6, 62, 70
8, 159584, Note_on_c, 6, 66, 70
8, 159639, Note_on_c, 6, 62, 0
8, 159824, Note_on_c, 6, 69, 70
8, 159879, Note_on_c, 6, 66, 0
8, 160064, Note_on_c, 6, 66, 70
8, 160119, Note_on_c, 6, 69, 0
8, 160304, Note_on_c, 6, 62, 70
8, 160359, Note_on_c, 6, 66, 0
8, 160544, Note_on_c, 6, 66, 70
8, 160599, Note_on_c, 6, 62, 0
8, 160784, Note_on_c, 6, 69, 70
8, 160839, Note_on_c, 6, 66, 0
8, 161024, Note_on_c, 6, 66, 70
8, 161079, Note_on_c, 6, 69, 0
8, 161213, Note_on_c, 6, 66, 0
8, 161264, Note_on_c, 6, 67, 70
8, 161744, Note_on_c, 6, 67, 0
8, 161744, Note_on_c, 6, 69, 83
8, 161772, Note_on_c, 6, 69, 0
8, 161772, Note_on_c, 6, 67, 84
8, 161804, Note_on_c, 6, 67, 0
8, 161804, Note_on_c, 6, 69, 82
8, 161832, Note_on_c, 6, 69, 0
8, 161832, Note_on_c, 6, 67, 81
8, 161864, Note_on_c, 6, 67, 0
8, 161864, Note_on_c, 6, 66, 80
8, 161984, Note_on_c, 6, 67, 79
8, 162038, Note_on_c, 6, 66, 0
8, 162104, Note_on_c, 6, 69, 79
8, 162138, Note_on_c, 6, 67, 0
8, 162224, Note_on_c, 6, 71, 79
8, 162263, Note_on_c, 6, 69, 0
8, 162704, Note_on_c, 6, 71, 0
8, 163184, Note_on_c, 6, 79, 70
8, 163664, Note_on_c, 6, 79, 0
8, 163664, Note_on_c, 6, 81, 81
8, 163692, Note_on_c, 6, 81, 0
8, 163692, Note_on_c, 6, 79, 81
8, 163724, Note_on_c, 6, 79, 0
8, 163724, Note_on_c, 6, 81, 85
8, 163752, Note_on_c, 6, 81, 0
8, 163752, Note_on_c, 6, 79, 85
8, 163784, Note_on_c, 6, 79, 0
8, 163784, Note_on_c, 6, 78, 84
8, 163904, Note_on_c, 6, 79, 75
8, 163933, Note_on_c, 6, 78, 0
8, 164024, Note_on_c, 6, 81, 75
8, 164063, Note_on_c, 6, 79, 0
8, 164144, Note_on_c, 6, 81, 0
8, 164144, Note_on_c, 6, 83, 82
8, 164624, Note_on_c, 6, 83, 0
8, 165104, Note_on_c, 6, 62, 105
8, 165584, Note_on_c, 6, 62, 0
8, 165824, Note_on_c, 6, 69, 105
8, 165824, Note_on_c, 6, 78, 105
8, 165992, Note_on_c, 6, 78, 0
8, 165992, Note_on_c, 6, 69, 0
8, 166064, Note_on_c, 6, 71, 105
8, 166064, Note_on_c, 6, 79, 105
8, 166232, Note_on_c, 6, 79, 0
8, 166232, Note_on_c, 6, 71, 0
8, 166304, Note_on_c, 6, 71, 105
8, 166304, Note_on_c, 6, 79, 105
8, 166472, Note_on_c, 6, 79, 0
8, 166472, Note_on_c, 6, 71, 0
8, 166544, Note_on_c, 6, 71, 105
8, 166544, Note_on_c, 6, 79, 105
8, 166712, Note_on_c, 6, 79, 0
8, 166712, Note_on_c, 6, 71, 0
8, 166784, Note_on_c, 6, 71, 105
8, 166784, Note_on_c, 6, 79, 105
8, 166952, Note_on_c, 6, 79, 0
8, 166952, Note_on_c, 6, 71, 0
8, 167024, Note_on_c, 6, 69, 105
8, 167024, Note_on_c, 6, 78, 105
8, 167504, Note_on_c, 6, 78, 0
8, 167504, Note_on_c, 6, 69, 0
8, 167744, Note_on_c, 6, 69, 105
8, 167744, Note_on_c, 6, 78, 105
8, 167912, Note_on_c, 6, 78, 0
8, 167912, Note_on_c, 6, 69, 0
8, 167984, Note_on_c, 6, 71, 105
8, 167984, Note_on_c, 6, 79, 105
8, 168152, Note_on_c, 6, 79, 0
8, 168152, Note_on_c, 6, 71, 0
8, 168224, Note_on_c, 6, 71, 105
8, 168224, Note_on_c, 6, 79, 105
8, 168392, Note_on_c, 6, 79, 0
8, 168392, Note_on_c, 6, 71, 0
8, 168464, Note_on_c, 6, 71, 105
8, 168464, Note_on_c, 6, 79, 105
8, 168632, Note_on_c, 6, 79, 0
8, 168632, Note_on_c, 6, 71, 0
8, 168704, Note_on_c, 6, 71, 105
8, 168704, Note_on_c, 6, 79, 105
8, 168872, Note_on_c, 6, 79, 0
8, 168872, Note_on_c, 6, 71, 0
8, 168944, Note_on_c, 6, 69, 105
8, 168944, Note_on_c, 6, 78, 105
8, 169327, Note_on_c, 6, 69, 0
8, 169393, Note_on_c, 6, 78, 0
8, 170864, Note_on_c, 6, 67, 70
8, 171104, Note_on_c, 6, 62, 70
8, 171159, Note_on_c, 6, 67, 0
8, 171344, Note_on_c, 6, 67, 70
8, 171399, Note_on_c, 6, 62, 0
8, 171584, Note_on_c, 6, 62, 70
8, 171639, Note_on_c, 6, 67, 0
8, 171824, Note_on_c, 6, 67, 70
8, 171879, Note_on_c, 6, 62, 0
8, 172064, Note_on_c, 6, 62, 70
8, 172119, Note_on_c, 6, 67, 0
8, 172304, Note_on_c, 6, 67, 70
8, 172359, Note_on_c, 6, 62, 0
8, 172544, Note_on_c, 6, 62, 70
8, 172599, Note_on_c, 6, 67, 0
8, 172733, Note_on_c, 6, 62, 0
8, 172784, Note_on_c, 6, 69, 70
8, 173024, Note_on_c, 6, 62, 70
8, 173079, Note_on_c, 6, 69, 0
8, 173264, Note_on_c, 6, 69, 70
8, 173319, Note_on_c, 6, 62, 0
8, 173504, Note_on_c, 6, 62, 70
8, 173559, Note_on_c, 6, 69, 0
8, 173744, Note_on_c, 6, 69, 70
8, 173799, Note_on_c, 6, 62, 0
8, 173984, Note_on_c, 6, 62, 70
8, 174039, Note_on_c, 6, 69, 0
8, 174224, Note_on_c, 6, 69, 70
8, 174279, Note_on_c, 6, 62, 0
8, 174464, Note_on_c, 6, 62, 70
8, 174519, Note_on_c, 6, 69, 0
8, 174653, Note_on_c, 6, 62, 0
8, 174704, Note_on_c, 6, 71, 70
8, 175184, Note_on_c, 6, 71, 0
8, 177584, Note_on_c, 6, 57, 70
8, 177584, Note_on_c, 6, 66, 70
8, 178544, Note_on_c, 6, 66, 0
8, 178544, Note_on_c, 6, 55, 70
8, 178544, Note_on_c, 6, 67, 70
8, 178613, Note_on_c, 6, 57, 0
8, 179024, Note_on_c, 6, 67, 0
8, 179024, Note_on_c, 6, 55, 0
8, 181424, Note_on_c, 6, 57, 70
8, 181424, Note_on_c, 6, 66, 70
8, 182384, Note_on_c, 6, 66, 0
8, 182384, Note_on_c, 6, 55, 70
8, 182384, Note_on_c, 6, 67, 70
8, 182453, Note_on_c, 6, 57, 0
8, 182864, Note_on_c, 6, 67, 0
8, 182864, Note_on_c, 6, 55, 0
8, 188864, Note_on_c, 6, 67, 69
8, 188960, Note_on_c, 6, 67, 0
8, 189104, Note_on_c, 6, 67, 71
8, 189200, Note_on_c, 6, 67, 0
8, 189344, Note_on_c, 6, 71, 73
8, 189440, Note_on_c, 6, 71, 0
8, 189584, Note_on_c, 6, 67, 75
8, 189680, Note_on_c, 6, 67, 0
8, 189824, Note_on_c, 6, 62, 76
8, 189920, Note_on_c, 6, 62, 0
8, 190064, Note_on_c, 6, 67, 78
8, 190544, Note_on_c, 6, 67, 0
8, 190784, Note_on_c, 6, 67, 69
8, 190880, Note_on_c, 6, 67, 0
8, 191024, Note_on_c, 6, 67, 70
8, 191120, Note_on_c, 6, 67, 0
8, 191264, Note_on_c, 6, 71, 71
8, 191360, Note_on_c, 6, 71, 0
8, 191504, Note_on_c, 6, 67, 73
8, 191600, Note_on_c, 6, 67, 0
8, 191744, Note_on_c, 6, 62, 74
8, 191840, Note_on_c, 6, 62, 0
8, 191984, Note_on_c, 6, 64, 75
8, 192464, Note_on_c, 6, 64, 0
8, 192464, Note_on_c, 6, 67, 70
8, 192464, Note_on_c, 6, 69, 70
8, 192944, Note_on_c, 6, 69, 0
8, 192944, Note_on_c, 6, 67, 0
8, 193424, Note_on_c, 6, 66, 70
8, 193424, Note_on_c, 6, 69, 70
8, 193904, Note_on_c, 6, 69, 0
8, 193904, Note_on_c, 6, 66, 0
8, 194384, Note_on_c, 6, 59, 70
8, 194384, Note_on_c, 6, 67, 70
8, 194864, Note_on_c, 6, 67, 0
8, 194864, Note_on_c, 6, 59, 0
8, 195344, Note_on_c, 6, 59, 70
8, 195344, Note_on_c, 6, 67, 70
8, 195824, Note_on_c, 6, 67, 0
8, 195824, Note_on_c, 6, 59, 0
8, 195824, Note_on_c, 6, 64, 70
8, 196544, Note_on_c, 6, 64, 0
8, 196544, Note_on_c, 6, 72, 78
8, 196784, Note_on_c, 6, 72, 0
8, 196784, Note_on_c, 6, 71, 76
8, 196880, Note_on_c, 6, 71, 0
8, 197024, Note_on_c, 6, 69, 72
8, 197120, Note_on_c, 6, 69, 0
8, 197264, Note_on_c, 6, 67, 72
8, 197360, Note_on_c, 6, 67, 0
8, 197504, Note_on_c, 6, 66, 71
8, 197600, Note_on_c, 6, 66, 0
8, 203504, Note_on_c, 6, 72, 77
8, 204464, Note_on_c, 6, 71, 78
8, 204498, Note_on_c, 6, 72, 0
8, 204560, Note_on_c, 6, 71, 0
8, 204704, Note_on_c, 6, 69, 76
8, 204800, Note_on_c, 6, 69, 0
8, 204944, Note_on_c, 6, 67, 73
8, 205040, Note_on_c, 6, 67, 0
8, 205184, Note_on_c, 6, 66, 71
8, 205280, Note_on_c, 6, 66, 0
8, 205424, Note_on_c, 6, 67, 69
8, 205904, Note_on_c, 6, 67, 0
8, 213104, Control_c, 6, 0, 0
8, 213104, Control_c, 6, 32, 0
8, 213104, Program_c, 6, 45
8, 214064, Note_on_c, 6, 71, 70
8, 214304, Note_on_c, 6, 71, 0
8, 214544, Note_on_c, 6, 69, 70
8, 214784, Note_on_c, 6, 69, 0
8, 215024, Note_on_c, 6, 67, 70
8, 215504, Note_on_c, 6, 67, 0
8, 215984, Note_on_c, 6, 71, 70
8, 216152, Note_on_c, 6, 71, 0
8, 216224, Note_on_c, 6, 71, 70
8, 216392, Note_on_c, 6, 71, 0
8, 216464, Note_on_c, 6, 69, 70
8, 216632, Note_on_c, 6, 69, 0
8, 216704, Note_on_c, 6, 69, 70
8, 216872, Note_on_c, 6, 69, 0
8, 216944, Note_on_c, 6, 67, 70
8, 217424, Note_on_c, 6, 67, 0
8, 217904, Note_on_c, 6, 71, 70
8, 218144, Note_on_c, 6, 71, 0
8, 218384, Note_on_c, 6, 69, 70
8, 218624, Note_on_c, 6, 69, 0
8, 218864, Note_on_c, 6, 67, 70
8, 219104, Note_on_c, 6, 67, 0
8, 219344, Note_on_c, 6, 66, 70
8, 219584, Note_on_c, 6, 66, 0
8, 219824, Note_on_c, 6, 74, 70
8, 220064, Note_on_c, 6, 74, 0
8, 220304, Note_on_c, 6, 72, 70
8, 220544, Note_on_c, 6, 72, 0
8, 220784, Note_on_c, 6, 71, 70
8, 221264, Note_on_c, 6, 71, 0
8, 221744, Note_on_c, 6, 69, 70
8, 221744, Note_on_c, 6, 67, 70
8, 222224, Note_on_c, 6, 67, 0
8, 222224, Note_on_c, 6, 69, 0
8, 222704, Note_on_c, 6, 71, 70
8, 222944, Note_on_c, 6, 71, 0
8, 223184, Note_on_c, 6, 67, 70
8, 223424, Note_on_c, 6, 67, 0
8, 223664, Note_on_c, 6, 66, 70
8, 223904, Note_on_c, 6, 66, 0
8, 224144, Note_on_c, 6, 66, 70
8, 224384, Note_on_c, 6, 66, 0
8, 226544, Control_c, 6, 0, 0
8, 226544, Control_c, 6, 32, 0
8, 226544, Program_c, 6, 48
8, 226784, Note_on_c, 6, 67, 70
8, 226952, Note_on_c, 6, 67, 0
8, 227024, Note_on_c, 6, 67, 70
8, 227192, Note_on_c, 6, 67, 0
8, 227264, Note_on_c, 6, 67, 70
8, 227432, Note_on_c, 6, 67, 0
8, 227504, Note_on_c, 6, 67, 70
8, 227672, Note_on_c, 6, 67, 0
8, 227744, Note_on_c, 6, 67, 70
8, 227912, Note_on_c, 6, 67, 0
8, 227984, Note_on_c, 6, 67, 70
8, 228152, Note_on_c, 6, 67, 0
8, 228224, Note_on_c, 6, 67, 70
8, 228392, Note_on_c, 6, 67, 0
8, 228464, Note_on_c, 6, 66, 71
8, 228584, Note_on_c, 6, 66, 0
8, 228584, Note_on_c, 6, 66, 73
8, 228704, Note_on_c, 6, 66, 0
8, 228704, Note_on_c, 6, 66, 75
8, 228824, Note_on_c, 6, 66, 0
8, 228824, Note_on_c, 6, 66, 77
8, 228944, Note_on_c, 6, 66, 0
8, 228944, Note_on_c, 6, 66, 79
8, 229064, Note_on_c, 6, 66, 0
8, 229064, Note_on_c, 6, 66, 81
8, 229184, Note_on_c, 6, 66, 0
8, 229184, Note_on_c, 6, 66, 83
8, 229304, Note_on_c, 6, 66, 0
8, 229304, Note_on_c, 6, 66, 85
8, 229424, Note_on_c, 6, 66, 0
8, 229424, Note_on_c, 6, 69, 87
8, 229544, Note_on_c, 6, 69, 0
8, 229544, Note_on_c, 6, 69, 88
8, 229664, Note_on_c, 6, 69, 0
8, 229664, Note_on_c, 6, 69, 90
8, 229784, Note_on_c, 6, 69, 0
8, 229784, Note_on_c, 6, 69, 92
8, 229904, Note_on_c, 6, 69, 0
8, 229904, Note_on_c, 6, 72, 94
8, 230024, Note_on_c, 6, 72, 0
8, 230024, Note_on_c, 6, 72, 96
8, 230144, Note_on_c, 6, 72, 0
8, 230144, Note_on_c, 6, 72, 98
8, 230264, Note_on_c, 6, 72, 0
8, 230264, Note_on_c, 6, 72, 100
8, 230384, Note_on_c, 6, 72, 0
8, 230384, Note_on_c, 6, 71, 102
8, 230864, Note_on_c, 6, 71, 0
8, 230864, Note_on_c, 6, 76, 105
8, 230960, Note_on_c, 6, 76, 0
8, 231344, Note_on_c, 6, 74, 105
8, 231440, Note_on_c, 6, 74, 0
8, 231824, Note_on_c, 6, 72, 105
8, 231920, Note_on_c, 6, 72, 0
8, 232304, Note_on_c, 6, 71, 105
8, 233024, Note_on_c, 6, 71, 0
8, 233024, Note_on_c, 6, 69, 105
8, 233264, Note_on_c, 6, 69, 0
8, 233264, Note_on_c, 6, 67, 105
8, 233744, Note_on_c, 6, 67, 0
8, 234704, Note_on_c, 6, 67, 70
8, 234800, Note_on_c, 6, 67, 0
8, 235184, Note_on_c, 6, 66, 70
8, 235280, Note_on_c, 6, 66, 0
8, 235664, Note_on_c, 6, 64, 70
8, 235760, Note_on_c, 6, 64, 0
8, 236144, Note_on_c, 6, 62, 70
8, 236864, Note_on_c, 6, 62, 0
8, 236864, Note_on_c, 6, 60, 70
8, 237104, Note_on_c, 6, 60, 0
8, 237104, Note_on_c, 6, 59, 70
8, 237584, Note_on_c, 6, 59, 0
8, 238064, Note_on_c, 6, 74, 105
8, 238184, Note_on_c, 6, 74, 0
8, 238184, Note_on_c, 6, 69, 105
8, 238304, Note_on_c, 6, 69, 0
8, 238304, Note_on_c, 6, 66, 105
8, 238424, Note_on_c, 6, 66, 0
8, 238424, Note_on_c, 6, 62, 105
8, 238544, Note_on_c, 6, 62, 0
8, 238544, Note_on_c, 6, 74, 105
8, 238664, Note_on_c, 6, 74, 0
8, 238664, Note_on_c, 6, 74, 105
8, 238784, Note_on_c, 6, 74, 0
8, 238784, Note_on_c, 6, 74, 105
8, 238904, Note_on_c, 6, 74, 0
8, 238904, Note_on_c, 6, 74, 105
8, 239024, Note_on_c, 6, 74, 0
8, 239024, Note_on_c, 6, 74, 105
8, 239144, Note_on_c, 6, 74, 0
8, 239144, Note_on_c, 6, 69, 105
8, 239264, Note_on_c, 6, 69, 0
8, 239264, Note_on_c, 6, 66, 105
8, 239384, Note_on_c, 6, 66, 0
8, 239384, Note_on_c, 6, 62, 105
8, 239504, Note_on_c, 6, 62, 0
8, 239504, Note_on_c, 6, 74, 105
8, 239624, Note_on_c, 6, 74, 0
8, 239624, Note_on_c, 6, 74, 105
8, 239744, Note_on_c, 6, 74, 0
8, 239744, Note_on_c, 6, 74, 105
8, 239864, Note_on_c, 6, 74, 0
8, 239864, Note_on_c, 6, 74, 105
8, 239984, Note_on_c, 6, 74, 0
8, 239984, Note_on_c, 6, 74, 105
8, 240104, Note_on_c, 6, 74, 0
8, 240104, Note_on_c, 6, 71, 105
8, 240224, Note_on_c, 6, 71, 0
8, 240224, Note_on_c, 6, 67, 105
8, 240344, Note_on_c, 6, 67, 0
8, 240344, Note_on_c, 6, 62, 105
8, 240464, Note_on_c, 6, 62, 0
8, 240464, Note_on_c, 6, 74, 105
8, 240584, Note_on_c, 6, 74, 0
8, 240584, Note_on_c, 6, 74, 105
8, 240704, Note_on_c, 6, 74, 0
8, 240704, Note_on_c, 6, 74, 105
8, 240824, Note_on_c, 6, 74, 0
8, 240824, Note_on_c, 6, 74, 105
8, 240944, Note_on_c, 6, 74, 0
8, 240944, Note_on_c, 6, 74, 105
8, 241064, Note_on_c, 6, 74, 0
8, 241064, Note_on_c, 6, 71, 105
8, 241184, Note_on_c, 6, 71, 0
8, 241184, Note_on_c, 6, 67, 105
8, 241304, Note_on_c, 6, 67, 0
8, 241304, Note_on_c, 6, 62, 105
8, 241424, Note_on_c, 6, 62, 0
8, 241424, Note_on_c, 6, 74, 105
8, 241544, Note_on_c, 6, 74, 0
8, 241544, Note_on_c, 6, 74, 105
8, 241664, Note_on_c, 6, 74, 0
8, 241664, Note_on_c, 6, 74, 105
8, 241784, Note_on_c, 6, 74, 0
8, 241784, Note_on_c, 6, 74, 105
8, 241904, Note_on_c, 6, 74, 0
8, 241904, Note_on_c, 6, 62, 105
8, 242384, Note_on_c, 6, 62, 0
8, 242384, Note_on_c, 6, 74, 105
8, 242504, Note_on_c, 6, 74, 0
8, 242504, Note_on_c, 6, 72, 105
8, 242624, Note_on_c, 6, 72, 0
8, 242624, Note_on_c, 6, 71, 105
8, 242744, Note_on_c, 6, 71, 0
8, 242744, Note_on_c, 6, 69, 105
8, 242864, Note_on_c, 6, 69, 0
8, 242864, Note_on_c, 6, 67, 105
8, 243344, Note_on_c, 6, 67, 0
8, 243344, Note_on_c, 6, 66, 105
8, 243824, Note_on_c, 6, 66, 0
8, 243824, Note_on_c, 6, 74, 115
8, 243944, Note_on_c, 6, 74, 0
8, 243944, Note_on_c, 6, 72, 112
8, 244064, Note_on_c, 6, 72, 0
8, 244064, Note_on_c, 6, 71, 110
8, 244184, Note_on_c, 6, 71, 0
8, 244184, Note_on_c, 6, 69, 108
8, 244304, Note_on_c, 6, 69, 0
8, 244304, Note_on_c, 6, 67, 108
8, 244424, Note_on_c, 6, 67, 0
8, 244424, Note_on_c, 6, 66, 107
8, 244544, Note_on_c, 6, 66, 0
8, 244544, Note_on_c, 6, 64, 107
8, 244664, Note_on_c, 6, 64, 0
8, 244664, Note_on_c, 6, 62, 107
8, 244784, Note_on_c, 6, 62, 0
8, 244784, Note_on_c, 6, 64, 109
8, 244880, Note_on_c, 6, 64, 0
8, 245024, Note_on_c, 6, 67, 105
8, 245120, Note_on_c, 6, 67, 0
8, 245264, Note_on_c, 6, 72, 105
8, 245360, Note_on_c, 6, 72, 0
8, 245504, Note_on_c, 6, 76, 105
8, 245600, Note_on_c, 6, 76, 0
8, 245744, Note_on_c, 6, 62, 105
8, 246224, Note_on_c, 6, 62, 0
8, 246224, Note_on_c, 6, 83, 105
8, 246944, Note_on_c, 6, 83, 0
8, 246944, Note_on_c, 6, 84, 105
8, 247064, Note_on_c, 6, 84, 0
8, 247064, Note_on_c, 6, 83, 105
8, 247184, Note_on_c, 6, 83, 0
8, 247184, Note_on_c, 6, 81, 105
8, 247424, Note_on_c, 6, 81, 0
8, 247424, Note_on_c, 6, 79, 105
8, 247664, Note_on_c, 6, 79, 0
8, 247664, Note_on_c, 6, 74, 105
8, 248024, Note_on_c, 6, 72, 105
8, 248068, Note_on_c, 6, 74, 0
8, 248108, Note_on_c, 6, 72, 0
8, 248144, Note_on_c, 6, 71, 105
8, 249104, Note_on_c, 6, 71, 0
8, 249104, Note_on_c, 6, 69, 105
8, 249533, Note_on_c, 6, 69, 0
8, 249549, Note_on_c, 6, 55, 105
8, 249574, Note_on_c, 6, 62, 105
8, 249584, Note_on_c, 6, 71, 105
8, 249653, Note_on_c, 6, 55, 0
8, 250064, Note_on_c, 6, 71, 0
8, 250068, Note_on_c, 6, 62, 0
8, 253904, Note_on_c, 6, 60, 70
8, 254144, Note_on_c, 6, 60, 0
8, 254384, Note_on_c, 6, 59, 70
8, 254624, Note_on_c, 6, 59, 0
8, 254864, Note_on_c, 6, 57, 70
8, 255104, Note_on_c, 6, 57, 0
8, 255344, Note_on_c, 6, 56, 105
8, 255824, Note_on_c, 6, 56, 0
8, 259184, Note_on_c, 6, 59, 70
8, 259184, Note_on_c, 6, 68, 70
8, 261104, Note_on_c, 6, 68, 0
8, 261104, Note_on_c, 6, 59, 0
8, 261104, Note_on_c, 6, 57, 70
8, 261104, Note_on_c, 6, 69, 70
8, 263024, Note_on_c, 6, 69, 0
8, 263024, Note_on_c, 6, 57, 0
8, 263024, Note_on_c, 6, 69, 70
8, 264464, Note_on_c, 6, 68, 70
8, 264523, Note_on_c, 6, 69, 0
8, 264908, Note_on_c, 6, 68, 0
8, 264944, Note_on_c, 6, 69, 70
8, 265136, Note_on_c, 6, 69, 0
8, 265424, Note_on_c, 6, 62, 70
8, 265616, Note_on_c, 6, 62, 0
8, 265904, Note_on_c, 6, 60, 70
8, 266096, Note_on_c, 6, 60, 0
8, 266864, Note_on_c, 6, 59, 70
8, 267584, Note_on_c, 6, 71, 70
8, 267618, Note_on_c, 6, 59, 0
8, 267783, Note_on_c, 6, 71, 0
8, 267824, Note_on_c, 6, 69, 70
8, 268304, Note_on_c, 6, 68, 70
8, 268373, Note_on_c, 6, 69, 0
8, 268743, Note_on_c, 6, 68, 0
8, 274544, Note_on_c, 6, 61, 105
8, 275024, Note_on_c, 6, 61, 0
8, 278384, Note_on_c, 6, 58, 70
8, 278384, Note_on_c, 6, 67, 70
8, 279824, Note_on_c, 6, 67, 0
8, 279824, Note_on_c, 6, 58, 0
8, 279824, Note_on_c, 6, 57, 70
8, 279824, Note_on_c, 6, 67, 70
8, 280304, Note_on_c, 6, 67, 0
8, 280304, Note_on_c, 6, 57, 0
8, 280304, Note_on_c, 6, 57, 70
8, 280304, Note_on_c, 6, 65, 70
8, 282224, Note_on_c, 6, 65, 0
8, 282224, Note_on_c, 6, 57, 0
8, 282224, Note_on_c, 6, 62, 70
8, 282944, Note_on_c, 6, 64, 70
8, 283003, Note_on_c, 6, 62, 0
8, 283123, Note_on_c, 6, 64, 0
8, 283184, Note_on_c, 6, 65, 70
8, 283664, Note_on_c, 6, 64, 70
8, 283733, Note_on_c, 6, 65, 0
8, 284078, Note_on_c, 6, 64, 0
8, 284144, Note_on_c, 6, 62, 70
8, 284336, Note_on_c, 6, 62, 0
8, 284624, Note_on_c, 6, 55, 70
8, 284816, Note_on_c, 6, 55, 0
8, 285104, Note_on_c, 6, 57, 70
8, 285296, Note_on_c, 6, 57, 0
8, 286064, Note_on_c, 6, 62, 70
8, 287504, Note_on_c, 6, 62, 0
8, 287504, Note_on_c, 6, 61, 70
8, 287984, Note_on_c, 6, 61, 0
8, 287984, Note_on_c, 6, 62, 70
8, 288464, Note_on_c, 6, 62, 0
8, 299504, Note_on_c, 6, 57, 105
8, 299984, Note_on_c, 6, 57, 0
8, 305264, Note_on_c, 6, 75, 70
8, 305984, Note_on_c, 6, 72, 70
8, 306043, Note_on_c, 6, 75, 0
8, 306224, Note_on_c, 6, 75, 70
8, 306303, Note_on_c, 6, 72, 0
8, 306393, Note_on_c, 6, 75, 0
8, 306704, Note_on_c, 6, 72, 70
8, 306833, Note_on_c, 6, 72, 0
8, 307184, Note_on_c, 6, 71, 70
8, 307664, Note_on_c, 6, 71, 0
8, 309104, Note_on_c, 6, 75, 70
8, 309824, Note_on_c, 6, 72, 70
8, 309913, Note_on_c, 6, 75, 0
8, 310064, Note_on_c, 6, 75, 70
8, 310133, Note_on_c, 6, 72, 0
8, 310253, Note_on_c, 6, 75, 0
8, 310544, Note_on_c, 6, 72, 70
8, 310640, Note_on_c, 6, 72, 0
8, 311024, Note_on_c, 6, 71, 70
8, 311504, Note_on_c, 6, 71, 0
8, 315104, Note_on_c, 6, 67, 70
8, 315344, Note_on_c, 6, 66, 70
8, 315403, Note_on_c, 6, 67, 0
8, 315584, Note_on_c, 6, 67, 70
8, 315638, Note_on_c, 6, 66, 0
8, 315768, Note_on_c, 6, 67, 0
8, 317024, Note_on_c, 6, 67, 70
8, 317264, Note_on_c, 6, 66, 70
8, 317323, Note_on_c, 6, 67, 0
8, 317504, Note_on_c, 6, 67, 70
8, 317573, Note_on_c, 6, 66, 0
8, 317713, Note_on_c, 6, 67, 0
8, 318944, Note_on_c, 6, 59, 70
8, 319184, Note_on_c, 6, 59, 0
8, 319184, Note_on_c, 6, 59, 70
8, 319424, Note_on_c, 6, 59, 0
8, 319424, Note_on_c, 6, 59, 70
8, 319664, Note_on_c, 6, 59, 0
8, 319904, Note_on_c, 6, 60, 70
8, 320144, Note_on_c, 6, 60, 0
8, 320144, Note_on_c, 6, 60, 70
8, 320384, Note_on_c, 6, 60, 0
8, 320384, Note_on_c, 6, 60, 70
8, 320624, Note_on_c, 6, 60, 0
8, 320864, Note_on_c, 6, 62, 80
8, 321104, Note_on_c, 6, 62, 0
8, 321104, Note_on_c, 6, 62, 80
8, 321344, Note_on_c, 6, 62, 0
8, 321344, Note_on_c, 6, 62, 80
8, 321584, Note_on_c, 6, 62, 0
8, 321824, Note_on_c, 6, 64, 90
8, 322064, Note_on_c, 6, 64, 0
8, 322064, Note_on_c, 6, 64, 90
8, 322304, Note_on_c, 6, 64, 0
8, 322304, Note_on_c, 6, 64, 90
8, 322544, Note_on_c, 6, 64, 0
8, 322784, Note_on_c, 6, 65, 105
8, 323024, Note_on_c, 6, 65, 0
8, 323024, Note_on_c, 6, 65, 105
8, 323264, Note_on_c, 6, 65, 0
8, 323264, Note_on_c, 6, 65, 105
8, 323504, Note_on_c, 6, 65, 0
8, 323744, Note_on_c, 6, 65, 105
8, 323984, Note_on_c, 6, 65, 0
8, 323984, Note_on_c, 6, 65, 105
8, 324224, Note_on_c, 6, 65, 0
8, 324224, Note_on_c, 6, 65, 105
8, 324464, Note_on_c, 6, 65, 0
8, 324464, Note_on_c, 6, 55, 105
8, 324464, Note_on_c, 6, 64, 105
8, 325148, Note_on_c, 6, 64, 0
8, 325148, Note_on_c, 6, 55, 0
8, 325184, Note_on_c, 6, 67, 105
8, 325412, Note_on_c, 6, 67, 0
8, 325424, Note_on_c, 6, 64, 105
8, 325652, Note_on_c, 6, 64, 0
8, 325664, Note_on_c, 6, 60, 105
8, 325892, Note_on_c, 6, 60, 0
8, 325904, Note_on_c, 6, 64, 105
8, 326132, Note_on_c, 6, 64, 0
8, 326144, Note_on_c, 6, 67, 105
8, 326372, Note_on_c, 6, 67, 0
8, 326384, Note_on_c, 6, 72, 105
8, 327068, Note_on_c, 6, 72, 0
8, 327104, Note_on_c, 6, 67, 105
8, 327332, Note_on_c, 6, 67, 0
8, 327344, Note_on_c, 6, 64, 105
8, 327572, Note_on_c, 6, 64, 0
8, 327584, Note_on_c, 6, 60, 105
8, 327812, Note_on_c, 6, 60, 0
8, 327824, Note_on_c, 6, 64, 105
8, 328052, Note_on_c, 6, 64, 0
8, 328064, Note_on_c, 6, 67, 105
8, 328292, Note_on_c, 6, 67, 0
8, 328304, Note_on_c, 6, 72, 105
8, 328784, Note_on_c, 6, 72, 0
8, 357344, Note_on_c, 6, 55, 69
8, 357440, Note_on_c, 6, 55, 0
8, 357584, Note_on_c, 6, 57, 71
8, 357680, Note_on_c, 6, 57, 0
8, 357824, Note_on_c, 6, 59, 73
8, 357920, Note_on_c, 6, 59, 0
8, 358064, Note_on_c, 6, 60, 74
8, 358160, Note_on_c, 6, 60, 0
8, 358304, Note_on_c, 6, 62, 76
8, 358400, Note_on_c, 6, 62, 0
8, 358544, Note_on_c, 6, 64, 78
8, 358640, Note_on_c, 6, 64, 0
8, 358784, Note_on_c, 6, 66, 80
8, 358880, Note_on_c, 6, 66, 0
8, 359024, Note_on_c, 6, 67, 82
8, 359213, Note_on_c, 6, 67, 0
8, 378464, Note_on_c, 6, 67, 70
8, 378704, Note_on_c, 6, 67, 0
8, 378704, Note_on_c, 6, 67, 70
8, 378944, Note_on_c, 6, 67, 0
8, 378944, Note_on_c, 6, 67, 70
8, 379184, Note_on_c, 6, 67, 0
8, 379184, Note_on_c, 6, 67, 70
8, 379424, Note_on_c, 6, 67, 0
8, 379424, Note_on_c, 6, 67, 70
8, 379664, Note_on_c, 6, 67, 0
8, 379664, Note_on_c, 6, 64, 70
8, 380384, Note_on_c, 6, 64, 0
8, 380384, Note_on_c, 6, 64, 70
8, 380624, Note_on_c, 6, 64, 0
8, 380624, Note_on_c, 6, 64, 70
8, 380864, Note_on_c, 6, 64, 0
8, 380864, Note_on_c, 6, 64, 70
8, 381104, Note_on_c, 6, 64, 0
8, 381104, Note_on_c, 6, 64, 70
8, 381344, Note_on_c, 6, 64, 0
8, 381344, Note_on_c, 6, 64, 70
8, 381584, Note_on_c, 6, 64, 0
8, 381584, Note_on_c, 6, 60, 70
8, 382304, Note_on_c, 6, 60, 0
8, 382304, Note_on_c, 6, 60, 70
8, 382544, Note_on_c, 6, 60, 0
8, 382544, Note_on_c, 6, 60, 70
8, 382784, Note_on_c, 6, 60, 0
8, 382784, Note_on_c, 6, 60, 70
8, 383024, Note_on_c, 6, 60, 0
8, 383024, Note_on_c, 6, 60, 70
8, 383264, Note_on_c, 6, 60, 0
8, 383264, Note_on_c, 6, 60, 70
8, 383504, Note_on_c, 6, 60, 0
8, 383504, Note_on_c, 6, 57, 70
8, 384464, Note_on_c, 6, 57, 0
8, 384464, Note_on_c, 6, 55, 70
8, 384944, Note_on_c, 6, 55, 0
8, 384944, Note_on_c, 6, 57, 70
8, 385904, Note_on_c, 6, 57, 0
8, 385904, Note_on_c, 6, 55, 70
8, 386144, Note_on_c, 6, 59, 70
8, 386204, Note_on_c, 6, 55, 0
8, 386384, Note_on_c, 6, 62, 70
8, 386444, Note_on_c, 6, 59, 0
8, 386624, Note_on_c, 6, 59, 70
8, 386684, Note_on_c, 6, 62, 0
8, 386864, Note_on_c, 6, 55, 70
8, 386924, Note_on_c, 6, 59, 0
8, 387104, Note_on_c, 6, 59, 70
8, 387164, Note_on_c, 6, 55, 0
8, 387344, Note_on_c, 6, 62, 70
8, 387404, Note_on_c, 6, 59, 0
8, 387584, Note_on_c, 6, 59, 70
8, 387644, Note_on_c, 6, 62, 0
8, 387763, Note_on_c, 6, 59, 0
8, 387824, Note_on_c, 6, 55, 70
8, 388064, Note_on_c, 6, 59, 70
8, 388124, Note_on_c, 6, 55, 0
8, 388304, Note_on_c, 6, 62, 70
8, 388364, Note_on_c, 6, 59, 0
8, 388544, Note_on_c, 6, 59, 70
8, 388604, Note_on_c, 6, 62, 0
8, 388784, Note_on_c, 6, 55, 70
8, 388844, Note_on_c, 6, 59, 0
8, 389024, Note_on_c, 6, 59, 70
8, 389084, Note_on_c, 6, 55, 0
8, 389264, Note_on_c, 6, 62, 70
8, 389324, Note_on_c, 6, 59, 0
8, 389504, Note_on_c, 6, 59, 70
8, 389564, Note_on_c, 6, 62, 0
8, 389688, Note_on_c, 6, 59, 0
8, 389744, Note_on_c, 6, 60, 75
8, 390158, Note_on_c, 6, 60, 0
8, 390224, Note_on_c, 6, 62, 82
8, 390252, Note_on_c, 6, 62, 0
8, 390252, Note_on_c, 6, 60, 82
8, 390284, Note_on_c, 6, 60, 0
8, 390284, Note_on_c, 6, 62, 85
8, 390312, Note_on_c, 6, 62, 0
8, 390312, Note_on_c, 6, 60, 85
8, 390344, Note_on_c, 6, 59, 84
8, 390401, Note_on_c, 6, 60, 0
8, 390464, Note_on_c, 6, 60, 78
8, 390503, Note_on_c, 6, 59, 0
8, 390584, Note_on_c, 6, 62, 77
8, 390633, Note_on_c, 6, 60, 0
8, 390704, Note_on_c, 6, 64, 84
8, 390773, Note_on_c, 6, 62, 0
8, 391184, Note_on_c, 6, 64, 0
8, 391664, Note_on_c, 6, 72, 77
8, 392053, Note_on_c, 6, 72, 0
8, 392144, Note_on_c, 6, 74, 85
8, 392172, Note_on_c, 6, 74, 0
8, 392172, Note_on_c, 6, 72, 85
8, 392204, Note_on_c, 6, 72, 0
8, 392204, Note_on_c, 6, 74, 86
8, 392232, Note_on_c, 6, 74, 0
8, 392232, Note_on_c, 6, 72, 86
8, 392264, Note_on_c, 6, 71, 90
8, 392321, Note_on_c, 6, 72, 0
8, 392384, Note_on_c, 6, 72, 85
8, 392423, Note_on_c, 6, 71, 0
8, 392504, Note_on_c, 6, 74, 87
8, 392548, Note_on_c, 6, 72, 0
8, 392624, Note_on_c, 6, 76, 94
8, 392683, Note_on_c, 6, 74, 0
8, 393104, Note_on_c, 6, 76, 0
8, 393584, Note_on_c, 6, 55, 70
8, 393824, Note_on_c, 6, 59, 70
8, 393884, Note_on_c, 6, 55, 0
8, 394064, Note_on_c, 6, 62, 70
8, 394124, Note_on_c, 6, 59, 0
8, 394304, Note_on_c, 6, 59, 70
8, 394364, Note_on_c, 6, 62, 0
8, 394544, Note_on_c, 6, 55, 70
8, 394604, Note_on_c, 6, 59, 0
8, 394784, Note_on_c, 6, 59, 70
8, 394844, Note_on_c, 6, 55, 0
8, 395024, Note_on_c, 6, 62, 70
8, 395084, Note_on_c, 6, 59, 0
8, 395264, Note_on_c, 6, 59, 70
8, 395324, Note_on_c, 6, 62, 0
8, 395433, Note_on_c, 6, 59, 0
8, 395504, Note_on_c, 6, 55, 70
8, 395744, Note_on_c, 6, 59, 70
8, 395804, Note_on_c, 6, 55, 0
8, 395984, Note_on_c, 6, 62, 70
8, 396044, Note_on_c, 6, 59, 0
8, 396224, Note_on_c, 6, 59, 70
8, 396284, Note_on_c, 6, 62, 0
8, 396464, Note_on_c, 6, 55, 70
8, 396524, Note_on_c, 6, 59, 0
8, 396704, Note_on_c, 6, 59, 70
8, 396764, Note_on_c, 6, 55, 0
8, 396944, Note_on_c, 6, 62, 70
8, 397004, Note_on_c, 6, 59, 0
8, 397184, Note_on_c, 6, 59, 70
8, 397244, Note_on_c, 6, 62, 0
8, 397373, Note_on_c, 6, 59, 0
8, 397424, Note_on_c, 6, 60, 76
8, 397823, Note_on_c, 6, 60, 0
8, 397904, Note_on_c, 6, 62, 87
8, 397932, Note_on_c, 6, 62, 0
8, 397932, Note_on_c, 6, 60, 87
8, 397964, Note_on_c, 6, 60, 0
8, 397964, Note_on_c, 6, 62, 87
8, 397992, Note_on_c, 6, 62, 0
8, 397992, Note_on_c, 6, 60, 87
8, 398024, Note_on_c, 6, 59, 83
8, 398071, Note_on_c, 6, 60, 0
8, 398144, Note_on_c, 6, 60, 83
8, 398183, Note_on_c, 6, 59, 0
8, 398264, Note_on_c, 6, 62, 85
8, 398303, Note_on_c, 6, 60, 0
8, 398384, Note_on_c, 6, 64, 90
8, 398438, Note_on_c, 6, 62, 0
8, 398864, Note_on_c, 6, 64, 0
8, 399344, Note_on_c, 6, 72, 80
8, 399763, Note_on_c, 6, 72, 0
8, 399824, Note_on_c, 6, 74, 84
8, 399852, Note_on_c, 6, 74, 0
8, 399852, Note_on_c, 6, 72, 85
8, 399884, Note_on_c, 6, 72, 0
8, 399884, Note_on_c, 6, 74, 85
8, 399912, Note_on_c, 6, 74, 0
8, 399912, Note_on_c, 6, 72, 85
8, 399944, Note_on_c, 6, 71, 82
8, 399996, Note_on_c, 6, 72, 0
8, 400064, Note_on_c, 6, 72, 82
8, 400103, Note_on_c, 6, 71, 0
8, 400184, Note_on_c, 6, 74, 87
8, 400223, Note_on_c, 6, 72, 0
8, 400304, Note_on_c, 6, 74, 0
8, 400304, Note_on_c, 6, 76, 91
8, 400784, Note_on_c, 6, 76, 0
8, 401264, Note_on_c, 6, 71, 105
8, 401384, Note_on_c, 6, 74, 105
8, 401418, Note_on_c, 6, 71, 0
8, 401458, Note_on_c, 6, 74, 0
8, 401504, Note_on_c, 6, 79, 105
8, 401548, Note_on_c, 6, 79, 0
8, 401624, Note_on_c, 6, 79, 105
8, 401668, Note_on_c, 6, 79, 0
8, 401744, Note_on_c, 6, 79, 105
8, 401864, Note_on_c, 6, 79, 0
8, 401864, Note_on_c, 6, 79, 105
8, 401984, Note_on_c, 6, 79, 0
8, 401984, Note_on_c, 6, 79, 105
8, 402104, Note_on_c, 6, 79, 0
8, 402104, Note_on_c, 6, 79, 105
8, 402224, Note_on_c, 6, 79, 0
8, 402224, Note_on_c, 6, 72, 105
8, 402344, Note_on_c, 6, 76, 105
8, 402378, Note_on_c, 6, 72, 0
8, 402428, Note_on_c, 6, 76, 0
8, 402464, Note_on_c, 6, 79, 105
8, 402508, Note_on_c, 6, 79, 0
8, 402584, Note_on_c, 6, 79, 105
8, 402628, Note_on_c, 6, 79, 0
8, 402704, Note_on_c, 6, 79, 105
8, 402824, Note_on_c, 6, 79, 0
8, 402824, Note_on_c, 6, 79, 105
8, 402944, Note_on_c, 6, 79, 0
8, 402944, Note_on_c, 6, 79, 105
8, 403064, Note_on_c, 6, 79, 0
8, 403064, Note_on_c, 6, 79, 105
8, 403184, Note_on_c, 6, 79, 0
8, 403184, Note_on_c, 6, 71, 105
8, 403304, Note_on_c, 6, 74, 105
8, 403343, Note_on_c, 6, 71, 0
8, 403383, Note_on_c, 6, 74, 0
8, 403424, Note_on_c, 6, 79, 105
8, 403468, Note_on_c, 6, 79, 0
8, 403544, Note_on_c, 6, 79, 105
8, 403588, Note_on_c, 6, 79, 0
8, 403664, Note_on_c, 6, 79, 105
8, 403784, Note_on_c, 6, 79, 0
8, 403784, Note_on_c, 6, 79, 105
8, 403904, Note_on_c, 6, 79, 0
8, 403904, Note_on_c, 6, 79, 105
8, 404024, Note_on_c, 6, 79, 0
8, 404024, Note_on_c, 6, 79, 105
8, 404144, Note_on_c, 6, 79, 0
8, 404144, Note_on_c, 6, 72, 105
8, 404264, Note_on_c, 6, 76, 105
8, 404313, Note_on_c, 6, 72, 0
8, 404363, Note_on_c, 6, 76, 0
8, 404384, Note_on_c, 6, 79, 105
8, 404428, Note_on_c, 6, 79, 0
8, 404504, Note_on_c, 6, 79, 105
8, 404548, Note_on_c, 6, 79, 0
8, 404624, Note_on_c, 6, 79, 105
8, 404744, Note_on_c, 6, 79, 0
8, 404744, Note_on_c, 6, 79, 105
8, 404864, Note_on_c, 6, 79, 0
8, 404864, Note_on_c, 6, 79, 105
8, 404984, Note_on_c, 6, 79, 0
8, 404984, Note_on_c, 6, 79, 105
8, 405104, Note_on_c, 6, 79, 0
8, 405104, Note_on_c, 6, 79, 105
8, 405398, Note_on_c, 6, 79, 0
8, 405559, Note_on_c, 6, 71, 105
8, 406073, Note_on_c, 6, 71, 0
8, 407024, Note_on_c, 6, 60, 70
8, 407264, Note_on_c, 6, 55, 70
8, 407324, Note_on_c, 6, 60, 0
8, 407504, Note_on_c, 6, 60, 70
8, 407564, Note_on_c, 6, 55, 0
8, 407744, Note_on_c, 6, 55, 70
8, 407804, Note_on_c, 6, 60, 0
8, 407984, Note_on_c, 6, 60, 70
8, 408044, Note_on_c, 6, 55, 0
8, 408224, Note_on_c, 6, 55, 70
8, 408284, Note_on_c, 6, 60, 0
8, 408464, Note_on_c, 6, 60, 70
8, 408524, Note_on_c, 6, 55, 0
8, 408704, Note_on_c, 6, 55, 70
8, 408764, Note_on_c, 6, 60, 0
8, 408893, Note_on_c, 6, 55, 0
8, 408944, Note_on_c, 6, 62, 70
8, 409184, Note_on_c, 6, 55, 70
8, 409244, Note_on_c, 6, 62, 0
8, 409424, Note_on_c, 6, 62, 70
8, 409484, Note_on_c, 6, 55, 0
8, 409664, Note_on_c, 6, 55, 70
8, 409724, Note_on_c, 6, 62, 0
8, 409904, Note_on_c, 6, 62, 70
8, 409964, Note_on_c, 6, 55, 0
8, 410144, Note_on_c, 6, 55, 70
8, 410204, Note_on_c, 6, 62, 0
8, 410384, Note_on_c, 6, 62, 70
8, 410444, Note_on_c, 6, 55, 0
8, 410624, Note_on_c, 6, 55, 70
8, 410684, Note_on_c, 6, 62, 0
8, 410798, Note_on_c, 6, 55, 0
8, 410864, Note_on_c, 6, 60, 70
8, 411344, Note_on_c, 6, 60, 0
8, 413744, Note_on_c, 6, 59, 70
8, 413744, Note_on_c, 6, 62, 70
8, 414704, Note_on_c, 6, 62, 0
8, 414704, Note_on_c, 6, 59, 0
8, 414704, Note_on_c, 6, 60, 70
8, 415184, Note_on_c, 6, 60, 0
8, 417584, Note_on_c, 6, 59, 70
8, 417584, Note_on_c, 6, 62, 70
8, 418544, Note_on_c, 6, 62, 0
8, 418544, Note_on_c, 6, 60, 70
8, 418608, Note_on_c, 6, 59, 0
8, 419024, Note_on_c, 6, 60, 0
8, 425024, Note_on_c, 6, 72, 67
8, 425120, Note_on_c, 6, 72, 0
8, 425264, Note_on_c, 6, 72, 69
8, 425360, Note_on_c, 6, 72, 0
8, 425504, Note_on_c, 6, 76, 72
8, 425600, Note_on_c, 6, 76, 0
8, 425744, Note_on_c, 6, 72, 74
8, 425840, Note_on_c, 6, 72, 0
8, 425984, Note_on_c, 6, 67, 77
8, 426080, Note_on_c, 6, 67, 0
8, 426224, Note_on_c, 6, 72, 78
8, 426704, Note_on_c, 6, 72, 0
8, 426944, Note_on_c, 6, 60, 68
8, 427040, Note_on_c, 6, 60, 0
8, 427184, Note_on_c, 6, 60, 70
8, 427280, Note_on_c, 6, 60, 0
8, 427424, Note_on_c, 6, 64, 72
8, 427520, Note_on_c, 6, 64, 0
8, 427664, Note_on_c, 6, 60, 74
8, 427760, Note_on_c, 6, 60, 0
8, 427904, Note_on_c, 6, 55, 76
8, 428000, Note_on_c, 6, 55, 0
8, 428144, Note_on_c, 6, 60, 78
8, 428624, Note_on_c, 6, 60, 0
8, 428624, Note_on_c, 6, 62, 70
8, 428624, Note_on_c, 6, 72, 70
8, 429104, Note_on_c, 6, 72, 0
8, 429104, Note_on_c, 6, 62, 0
8, 429584, Note_on_c, 6, 62, 70
8, 429584, Note_on_c, 6, 71, 70
8, 430064, Note_on_c, 6, 71, 0
8, 430064, Note_on_c, 6, 62, 0
8, 430544, Note_on_c, 6, 64, 70
8, 430544, Note_on_c, 6, 72, 70
8, 431024, Note_on_c, 6, 72, 0
8, 431024, Note_on_c, 6, 64, 0
8, 431504, Note_on_c, 6, 64, 70
8, 431504, Note_on_c, 6, 72, 70
8, 431984, Note_on_c, 6, 72, 0
8, 431984, Note_on_c, 6, 64, 0
8, 431984, Note_on_c, 6, 69, 70
8, 432944, Note_on_c, 6, 69, 0
8, 432944, Note_on_c, 6, 67, 74
8, 433040, Note_on_c, 6, 67, 0
8, 433184, Note_on_c, 6, 65, 72
8, 433280, Note_on_c, 6, 65, 0
8, 433424, Note_on_c, 6, 64, 71
8, 433520, Note_on_c, 6, 64, 0
8, 433664, Note_on_c, 6, 62, 69
8, 433760, Note_on_c, 6, 62, 0
8, 433904, Note_on_c, 6, 60, 67
8, 434000, Note_on_c, 6, 60, 0
8, 434144, Note_on_c, 6, 62, 68
8, 434240, Note_on_c, 6, 62, 0
8, 434384, Note_on_c, 6, 64, 71
8, 434480, Note_on_c, 6, 64, 0
8, 434624, Note_on_c, 6, 65, 75
8, 434720, Note_on_c, 6, 65, 0
8, 434864, Note_on_c, 6, 67, 78
8, 435344, Note_on_c, 6, 67, 0
8, 439664, Note_on_c, 6, 65, 78
8, 440624, Note_on_c, 6, 65, 0
8, 440624, Note_on_c, 6, 64, 79
8, 440720, Note_on_c, 6, 64, 0
8, 440864, Note_on_c, 6, 62, 77
8, 440960, Note_on_c, 6, 62, 0
8, 441104, Note_on_c, 6, 60, 75
8, 441200, Note_on_c, 6, 60, 0
8, 441344, Note_on_c, 6, 59, 73
8, 441440, Note_on_c, 6, 59, 0
8, 449264, Control_c, 6, 0, 0
8, 449264, Control_c, 6, 32, 0
8, 449264, Program_c, 6, 45
8, 450224, Note_on_c, 6, 72, 70
8, 450464, Note_on_c, 6, 72, 0
8, 450704, Note_on_c, 6, 71, 70
8, 450944, Note_on_c, 6, 71, 0
8, 451184, Note_on_c, 6, 72, 70
8, 451664, Note_on_c, 6, 72, 0
8, 452144, Note_on_c, 6, 72, 70
8, 452384, Note_on_c, 6, 72, 0
8, 452384, Note_on_c, 6, 72, 70
8, 452624, Note_on_c, 6, 72, 0
8, 452624, Note_on_c, 6, 71, 70
8, 452864, Note_on_c, 6, 71, 0
8, 452864, Note_on_c, 6, 71, 70
8, 453104, Note_on_c, 6, 71, 0
8, 453104, Note_on_c, 6, 72, 70
8, 453584, Note_on_c, 6, 72, 0
8, 454064, Note_on_c, 6, 72, 70
8, 454304, Note_on_c, 6, 72, 0
8, 454544, Note_on_c, 6, 71, 70
8, 454784, Note_on_c, 6, 71, 0
8, 455024, Note_on_c, 6, 72, 70
8, 455264, Note_on_c, 6, 72, 0
8, 455504, Note_on_c, 6, 67, 70
8, 455744, Note_on_c, 6, 67, 0
8, 455984, Note_on_c, 6, 72, 70
8, 456224, Note_on_c, 6, 72, 0
8, 456464, Note_on_c, 6, 67, 70
8, 456704, Note_on_c, 6, 67, 0
8, 456944, Note_on_c, 6, 67, 70
8, 457424, Note_on_c, 6, 67, 0
8, 457904, Note_on_c, 6, 62, 70
8, 458384, Note_on_c, 6, 62, 0
8, 458864, Note_on_c, 6, 64, 70
8, 458864, Note_on_c, 6, 72, 70
8, 459104, Note_on_c, 6, 72, 0
8, 459104, Note_on_c, 6, 64, 0
8, 459344, Note_on_c, 6, 72, 70
8, 459584, Note_on_c, 6, 72, 0
8, 459824, Note_on_c, 6, 71, 70
8, 460064, Note_on_c, 6, 71, 0
8, 460304, Note_on_c, 6, 71, 70
8, 460544, Note_on_c, 6, 71, 0
8, 460784, Control_c, 6, 0, 0
8, 460784, Control_c, 6, 0, 0
8, 460784, Control_c, 6, 0, 0
8, 460784, Control_c, 6, 0, 0
8, 460784, Control_c, 6, 0, 0
8, 460784, Control_c, 6, 0, 0
8, 460784, Control_c, 6, 0, 0
8, 460784, Control_c, 6, 0, 0
8, 460784, Control_c, 6, 0, 0
8, 460784, Control_c, 6, 0, 0
8, 460784, Control_c, 6, 0, 0
8, 460784, Control_c, 6, 0, 0
8, 460784, Control_c, 6, 0, 0
8, 460784, Control_c, 6, 32, 0
8, 460784, Program_c, 6, 48
8, 462944, Note_on_c, 6, 72, 70
8, 463112, Note_on_c, 6, 72, 0
8, 463184, Note_on_c, 6, 72, 70
8, 463352, Note_on_c, 6, 72, 0
8, 463424, Note_on_c, 6, 72, 70
8, 463592, Note_on_c, 6, 72, 0
8, 463664, Note_on_c, 6, 72, 70
8, 463832, Note_on_c, 6, 72, 0
8, 463904, Note_on_c, 6, 72, 70
8, 464072, Note_on_c, 6, 72, 0
8, 464144, Note_on_c, 6, 72, 70
8, 464312, Note_on_c, 6, 72, 0
8, 464384, Note_on_c, 6, 72, 70
8, 464552, Note_on_c, 6, 72, 0
8, 464624, Note_on_c, 6, 71, 69
8, 464744, Note_on_c, 6, 71, 0
8, 464744, Note_on_c, 6, 71, 71
8, 464864, Note_on_c, 6, 71, 0
8, 464864, Note_on_c, 6, 71, 73
8, 464984, Note_on_c, 6, 71, 0
8, 464984, Note_on_c, 6, 71, 75
8, 465104, Note_on_c, 6, 71, 0
8, 465104, Note_on_c, 6, 71, 77
8, 465224, Note_on_c, 6, 71, 0
8, 465224, Note_on_c, 6, 71, 80
8, 465344, Note_on_c, 6, 71, 0
8, 465344, Note_on_c, 6, 71, 82
8, 465464, Note_on_c, 6, 71, 0
8, 465464, Note_on_c, 6, 71, 84
8, 465584, Note_on_c, 6, 71, 0
8, 465584, Note_on_c, 6, 74, 86
8, 465704, Note_on_c, 6, 74, 0
8, 465704, Note_on_c, 6, 74, 88
8, 465824, Note_on_c, 6, 74, 0
8, 465824, Note_on_c, 6, 74, 90
8, 465944, Note_on_c, 6, 74, 0
8, 465944, Note_on_c, 6, 74, 92
8, 466064, Note_on_c, 6, 74, 0
8, 466064, Note_on_c, 6, 77, 94
8, 466184, Note_on_c, 6, 77, 0
8, 466184, Note_on_c, 6, 77, 96
8, 466304, Note_on_c, 6, 77, 0
8, 466304, Note_on_c, 6, 77, 98
8, 466424, Note_on_c, 6, 77, 0
8, 466424, Note_on_c, 6, 77, 100
8, 466544, Note_on_c, 6, 77, 0
8, 466544, Note_on_c, 6, 72, 102
8, 467228, Note_on_c, 6, 72, 0
8, 467264, Note_on_c, 6, 67, 105
8, 467492, Note_on_c, 6, 67, 0
8, 467504, Note_on_c, 6, 64, 105
8, 467732, Note_on_c, 6, 64, 0
8, 467744, Note_on_c, 6, 60, 105
8, 467972, Note_on_c, 6, 60, 0
8, 467984, Note_on_c, 6, 64, 105
8, 468212, Note_on_c, 6, 64, 0
8, 468224, Note_on_c, 6, 67, 105
8, 468452, Note_on_c, 6, 67, 0
8, 468464, Note_on_c, 6, 72, 105
8, 469148, Note_on_c, 6, 72, 0
8, 469184, Note_on_c, 6, 67, 105
8, 469412, Note_on_c, 6, 67, 0
8, 469424, Note_on_c, 6, 64, 105
8, 469652, Note_on_c, 6, 64, 0
8, 469664, Note_on_c, 6, 60, 105
8, 469892, Note_on_c, 6, 60, 0
8, 469904, Note_on_c, 6, 64, 105
8, 470132, Note_on_c, 6, 64, 0
8, 470144, Note_on_c, 6, 67, 105
8, 470372, Note_on_c, 6, 67, 0
8, 470384, Note_on_c, 6, 72, 105
8, 470384, Note_on_c, 6, 76, 105
8, 471104, Note_on_c, 6, 76, 0
8, 471104, Note_on_c, 6, 72, 0
8, 471104, Note_on_c, 6, 74, 105
8, 471344, Note_on_c, 6, 74, 0
8, 471344, Note_on_c, 6, 64, 105
8, 471344, Note_on_c, 6, 72, 105
8, 472064, Note_on_c, 6, 72, 0
8, 472064, Note_on_c, 6, 64, 0
8, 472064, Note_on_c, 6, 71, 105
8, 472304, Note_on_c, 6, 71, 0
8, 472304, Note_on_c, 6, 65, 105
8, 472304, Note_on_c, 6, 69, 105
8, 473024, Note_on_c, 6, 69, 0
8, 473024, Note_on_c, 6, 65, 0
8, 473024, Note_on_c, 6, 67, 105
8, 473264, Note_on_c, 6, 67, 0
8, 473264, Note_on_c, 6, 57, 105
8, 473264, Note_on_c, 6, 65, 105
8, 473984, Note_on_c, 6, 65, 0
8, 473984, Note_on_c, 6, 57, 0
8, 473984, Note_on_c, 6, 64, 105
8, 474224, Note_on_c, 6, 64, 0
8, 474224, Note_on_c, 6, 69, 105
8, 474464, Note_on_c, 6, 69, 0
8, 476144, Note_on_c, 6, 71, 109
8, 476264, Note_on_c, 6, 74, 105
8, 476288, Note_on_c, 6, 71, 0
8, 476353, Note_on_c, 6, 74, 0
8, 476384, Note_on_c, 6, 79, 105
8, 476428, Note_on_c, 6, 79, 0
8, 476504, Note_on_c, 6, 79, 105
8, 476548, Note_on_c, 6, 79, 0
8, 476624, Note_on_c, 6, 79, 105
8, 476744, Note_on_c, 6, 79, 0
8, 476744, Note_on_c, 6, 79, 105
8, 476864, Note_on_c, 6, 79, 0
8, 476864, Note_on_c, 6, 79, 105
8, 476984, Note_on_c, 6, 79, 0
8, 476984, Note_on_c, 6, 79, 105
8, 477104, Note_on_c, 6, 79, 0
8, 477104, Note_on_c, 6, 72, 105
8, 477224, Note_on_c, 6, 76, 105
8, 477263, Note_on_c, 6, 72, 0
8, 477323, Note_on_c, 6, 76, 0
8, 477344, Note_on_c, 6, 79, 105
8, 477388, Note_on_c, 6, 79, 0
8, 477464, Note_on_c, 6, 79, 105
8, 477508, Note_on_c, 6, 79, 0
8, 477584, Note_on_c, 6, 79, 105
8, 477704, Note_on_c, 6, 79, 0
8, 477704, Note_on_c, 6, 79, 105
8, 477824, Note_on_c, 6, 79, 0
8, 477824, Note_on_c, 6, 79, 105
8, 477944, Note_on_c, 6, 79, 0
8, 477944, Note_on_c, 6, 79, 105
8, 478064, Note_on_c, 6, 79, 0
8, 478064, Note_on_c, 6, 71, 105
8, 478184, Note_on_c, 6, 74, 105
8, 478228, Note_on_c, 6, 71, 0
8, 478283, Note_on_c, 6, 74, 0
8, 478304, Note_on_c, 6, 79, 105
8, 478348, Note_on_c, 6, 79, 0
8, 478424, Note_on_c, 6, 79, 105
8, 478468, Note_on_c, 6, 79, 0
8, 478544, Note_on_c, 6, 79, 105
8, 478664, Note_on_c, 6, 79, 0
8, 478664, Note_on_c, 6, 79, 105
8, 478784, Note_on_c, 6, 79, 0
8, 478784, Note_on_c, 6, 79, 105
8, 478904, Note_on_c, 6, 79, 0
8, 478904, Note_on_c, 6, 79, 105
8, 479024, Note_on_c, 6, 79, 0
8, 479024, Note_on_c, 6, 72, 105
8, 479144, Note_on_c, 6, 76, 105
8, 479193, Note_on_c, 6, 72, 0
8, 479233, Note_on_c, 6, 76, 0
8, 479264, Note_on_c, 6, 79, 105
8, 479308, Note_on_c, 6, 79, 0
8, 479384, Note_on_c, 6, 79, 105
8, 479428, Note_on_c, 6, 79, 0
8, 479504, Note_on_c, 6, 79, 105
8, 479624, Note_on_c, 6, 79, 0
8, 479624, Note_on_c, 6, 79, 105
8, 479744, Note_on_c, 6, 79, 0
8, 479744, Note_on_c, 6, 79, 105
8, 479864, Note_on_c, 6, 79, 0
8, 479864, Note_on_c, 6, 79, 105
8, 479984, Note_on_c, 6, 79, 0
8, 481904, Note_on_c, 6, 64, 105
8, 482384, Note_on_c, 6, 64, 0
8, 482384, Note_on_c, 6, 81, 105
8, 482480, Note_on_c, 6, 81, 0
8, 482864, Note_on_c, 6, 79, 105
8, 482960, Note_on_c, 6, 79, 0
8, 483344, Note_on_c, 6, 77, 105
8, 483440, Note_on_c, 6, 77, 0
8, 483824, Note_on_c, 6, 76, 105
8, 484544, Note_on_c, 6, 76, 0
8, 484544, Note_on_c, 6, 74, 105
8, 484784, Note_on_c, 6, 74, 0
8, 484784, Note_on_c, 6, 72, 105
8, 485264, Note_on_c, 6, 72, 0
8, 486224, Note_on_c, 6, 72, 70
8, 486320, Note_on_c, 6, 72, 0
8, 486704, Note_on_c, 6, 71, 70
8, 486800, Note_on_c, 6, 71, 0
8, 487184, Note_on_c, 6, 69, 70
8, 487280, Note_on_c, 6, 69, 0
8, 487664, Note_on_c, 6, 67, 70
8, 488384, Note_on_c, 6, 67, 0
8, 488384, Note_on_c, 6, 65, 70
8, 488624, Note_on_c, 6, 65, 0
8, 488624, Note_on_c, 6, 64, 70
8, 489104, Note_on_c, 6, 64, 0
8, 489584, Note_on_c, 6, 67, 105
8, 489704, Note_on_c, 6, 67, 0
8, 489704, Note_on_c, 6, 62, 105
8, 489824, Note_on_c, 6, 62, 0
8, 489824, Note_on_c, 6, 59, 105
8, 489944, Note_on_c, 6, 59, 0
8, 489944, Note_on_c, 6, 55, 105
8, 490064, Note_on_c, 6, 55, 0
8, 490064, Note_on_c, 6, 67, 105
8, 490184, Note_on_c, 6, 67, 0
8, 490184, Note_on_c, 6, 67, 105
8, 490304, Note_on_c, 6, 67, 0
8, 490304, Note_on_c, 6, 67, 105
8, 490424, Note_on_c, 6, 67, 0
8, 490424, Note_on_c, 6, 67, 105
8, 490544, Note_on_c, 6, 67, 0
8, 490544, Note_on_c, 6, 67, 105
8, 490664, Note_on_c, 6, 67, 0
8, 490664, Note_on_c, 6, 62, 105
8, 490784, Note_on_c, 6, 62, 0
8, 490784, Note_on_c, 6, 59, 105
8, 490904, Note_on_c, 6, 59, 0
8, 490904, Note_on_c, 6, 55, 105
8, 491024, Note_on_c, 6, 55, 0
8, 491024, Note_on_c, 6, 67, 105
8, 491144, Note_on_c, 6, 67, 0
8, 491144, Note_on_c, 6, 67, 105
8, 491264, Note_on_c, 6, 67, 0
8, 491264, Note_on_c, 6, 67, 105
8, 491384, Note_on_c, 6, 67, 0
8, 491384, Note_on_c, 6, 67, 105
8, 491504, Note_on_c, 6, 67, 0
8, 491504, Note_on_c, 6, 67, 105
8, 491624, Note_on_c, 6, 67, 0
8, 491624, Note_on_c, 6, 64, 105
8, 491744, Note_on_c, 6, 64, 0
8, 491744, Note_on_c, 6, 60, 105
8, 491864, Note_on_c, 6, 60, 0
8, 491864, Note_on_c, 6, 55, 105
8, 491984, Note_on_c, 6, 55, 0
8, 491984, Note_on_c, 6, 72, 105
8, 492104, Note_on_c, 6, 72, 0
8, 492104, Note_on_c, 6, 72, 105
8, 492224, Note_on_c, 6, 72, 0
8, 492224, Note_on_c, 6, 72, 105
8, 492344, Note_on_c, 6, 72, 0
8, 492344, Note_on_c, 6, 72, 105
8, 492464, Note_on_c, 6, 72, 0
8, 492464, Note_on_c, 6, 72, 105
8, 492584, Note_on_c, 6, 72, 0
8, 492584, Note_on_c, 6, 69, 105
8, 492704, Note_on_c, 6, 69, 0
8, 492704, Note_on_c, 6, 64, 105
8, 492824, Note_on_c, 6, 64, 0
8, 492824, Note_on_c, 6, 60, 105
8, 492944, Note_on_c, 6, 60, 0
8, 492944, Note_on_c, 6, 72, 105
8, 493064, Note_on_c, 6, 72, 0
8, 493064, Note_on_c, 6, 72, 105
8, 493184, Note_on_c, 6, 72, 0
8, 493184, Note_on_c, 6, 72, 105
8, 493304, Note_on_c, 6, 72, 0
8, 493304, Note_on_c, 6, 72, 105
8, 493424, Note_on_c, 6, 72, 0
8, 493424, Note_on_c, 6, 69, 105
8, 493904, Note_on_c, 6, 69, 0
8, 493904, Note_on_c, 6, 71, 105
8, 494024, Note_on_c, 6, 71, 0
8, 494024, Note_on_c, 6, 69, 105
8, 494144, Note_on_c, 6, 69, 0
8, 494144, Note_on_c, 6, 67, 105
8, 494264, Note_on_c, 6, 67, 0
8, 494264, Note_on_c, 6, 65, 105
8, 494384, Note_on_c, 6, 65, 0
8, 494384, Note_on_c, 6, 64, 105
8, 494864, Note_on_c, 6, 64, 0
8, 494864, Note_on_c, 6, 62, 105
8, 495344, Note_on_c, 6, 62, 0
8, 495344, Note_on_c, 6, 60, 105
8, 495464, Note_on_c, 6, 60, 0
8, 495464, Note_on_c, 6, 62, 105
8, 495584, Note_on_c, 6, 62, 0
8, 495584, Note_on_c, 6, 64, 105
8, 495704, Note_on_c, 6, 64, 0
8, 495704, Note_on_c, 6, 65, 105
8, 495824, Note_on_c, 6, 65, 0
8, 495824, Note_on_c, 6, 67, 105
8, 495944, Note_on_c, 6, 67, 0
8, 495944, Note_on_c, 6, 69, 105
8, 496064, Note_on_c, 6, 69, 0
8, 496064, Note_on_c, 6, 71, 105
8, 496184, Note_on_c, 6, 71, 0
8, 496184, Note_on_c, 6, 72, 105
8, 496304, Note_on_c, 6, 72, 0
8, 496304, Note_on_c, 6, 57, 105
8, 496424, Note_on_c, 6, 57, 0
8, 496424, Note_on_c, 6, 59, 105
8, 496544, Note_on_c, 6, 59, 0
8, 496544, Note_on_c, 6, 60, 105
8, 496664, Note_on_c, 6, 60, 0
8, 496664, Note_on_c, 6, 62, 105
8, 496784, Note_on_c, 6, 62, 0
8, 496784, Note_on_c, 6, 64, 105
8, 496904, Note_on_c, 6, 64, 0
8, 496904, Note_on_c, 6, 65, 105
8, 497024, Note_on_c, 6, 65, 0
8, 497024, Note_on_c, 6, 67, 105
8, 497144, Note_on_c, 6, 67, 0
8, 497144, Note_on_c, 6, 69, 105
8, 497264, Note_on_c, 6, 69, 0
8, 497264, Note_on_c, 6, 55, 105
8, 497384, Note_on_c, 6, 55, 0
8, 497384, Note_on_c, 6, 57, 105
8, 497504, Note_on_c, 6, 57, 0
8, 497504, Note_on_c, 6, 59, 105
8, 497624, Note_on_c, 6, 59, 0
8, 497624, Note_on_c, 6, 60, 105
8, 497744, Note_on_c, 6, 60, 0
8, 497744, Note_on_c, 6, 62, 105
8, 497864, Note_on_c, 6, 62, 0
8, 497864, Note_on_c, 6, 64, 105
8, 497984, Note_on_c, 6, 64, 0
8, 497984, Note_on_c, 6, 65, 105
8, 498104, Note_on_c, 6, 65, 0
8, 498104, Note_on_c, 6, 67, 105
8, 498224, Note_on_c, 6, 67, 0
8, 498224, Note_on_c, 6, 67, 105
8, 498464, Note_on_c, 6, 65, 105
8, 498523, Note_on_c, 6, 67, 0
8, 498633, Note_on_c, 6, 65, 0
8, 498704, Note_on_c, 6, 64, 105
8, 498800, Note_on_c, 6, 64, 0
8, 498944, Note_on_c, 6, 62, 105
8, 499040, Note_on_c, 6, 62, 0
8, 499184, Note_on_c, 6, 60, 105
8, 499664, Note_on_c, 6, 60, 0
8, 499904, Note_on_c, 6, 67, 106
8, 499984, Note_on_c, 6, 69, 107
8, 500010, Note_on_c, 6, 67, 0
8, 500060, Note_on_c, 6, 71, 107
8, 500085, Note_on_c, 6, 69, 0
8, 500144, Note_on_c, 6, 72, 109
8, 500172, Note_on_c, 6, 71, 0
8, 500624, Note_on_c, 6, 72, 0
8, 500864, Note_on_c, 6, 67, 105
8, 500944, Note_on_c, 6, 69, 109
8, 500970, Note_on_c, 6, 67, 0
8, 501020, Note_on_c, 6, 71, 110
8, 501045, Note_on_c, 6, 69, 0
8, 501104, Note_on_c, 6, 72, 114
8, 501132, Note_on_c, 6, 71, 0
8, 501584, Note_on_c, 6, 72, 0
8, 501824, Note_on_c, 6, 67, 107
8, 501904, Note_on_c, 6, 69, 111
8, 501930, Note_on_c, 6, 67, 0
8, 501980, Note_on_c, 6, 71, 113
8, 502005, Note_on_c, 6, 69, 0
8, 502064, Note_on_c, 6, 72, 114
8, 502092, Note_on_c, 6, 71, 0
8, 502304, Note_on_c, 6, 72, 0
8, 502304, Note_on_c, 6, 67, 105
8, 502384, Note_on_c, 6, 69, 108
8, 502410, Note_on_c, 6, 67, 0
8, 502460, Note_on_c, 6, 71, 111
8, 502485, Note_on_c, 6, 69, 0
8, 502544, Note_on_c, 6, 72, 113
8, 502572, Note_on_c, 6, 71, 0
8, 502784, Note_on_c, 6, 72, 0
8, 502784, Note_on_c, 6, 67, 107
8, 502864, Note_on_c, 6, 69, 109
8, 502890, Note_on_c, 6, 67, 0
8, 502940, Note_on_c, 6, 71, 111
8, 502965, Note_on_c, 6, 69, 0
8, 503024, Note_on_c, 6, 72, 114
8, 503052, Note_on_c, 6, 71, 0
8, 503708, Note_on_c, 6, 72, 0
8, 503744, Note_on_c, 6, 67, 105
8, 503972, Note_on_c, 6, 67, 0
8, 503984, Note_on_c, 6, 64, 105
8, 504212, Note_on_c, 6, 64, 0
8, 504224, Note_on_c, 6, 60, 105
8, 504452, Note_on_c, 6, 60, 0
8, 504464, Note_on_c, 6, 64, 105
8, 504692, Note_on_c, 6, 64, 0
8, 504704, Note_on_c, 6, 67, 105
8, 504932, Note_on_c, 6, 67, 0
8, 504944, Note_on_c, 6, 72, 105
8, 505628, Note_on_c, 6, 72, 0
8, 505664, Note_on_c, 6, 67, 105
8, 505892, Note_on_c, 6, 67, 0
8, 505904, Note_on_c, 6, 64, 105
8, 506132, Note_on_c, 6, 64, 0
8, 506144, Note_on_c, 6, 60, 105
8, 506372, Note_on_c, 6, 60, 0
8, 506384, Note_on_c, 6, 64, 105
8, 506612, Note_on_c, 6, 64, 0
8, 506624, Note_on_c, 6, 67, 105
8, 506852, Note_on_c, 6, 67, 0
8, 506864, Note_on_c, 6, 72, 105
8, 507344, Note_on_c, 6, 72, 0
8, 507344, Note_on_c, 6, 67, 105
8, 507344, Note_on_c, 6, 72, 105
8, 507344, Note_on_c, 6, 76, 105
8, 507824, Note_on_c, 6, 76, 0
8, 507824, Note_on_c, 6, 72, 0
8, 507824, Note_on_c, 6, 67, 0
8, 507824, Note_on_c, 6, 67, 105
8, 507824, Note_on_c, 6, 72, 105
8, 507824, Note_on_c, 6, 76, 105
8, 508304, Note_on_c, 6, 76, 0
8, 508304, Note_on_c, 6, 72, 0
8, 508304, Note_on_c, 6, 67, 0
8, 508304, Note_on_c, 6, 67, 105
8, 508304, Note_on_c, 6, 72, 105
8, 508304, Note_on_c, 6, 76, 105
8, 508784, Note_on_c, 6, 76, 0
8, 508784, Note_on_c, 6, 72, 0
8, 508784, Note_on_c, 6, 67, 0
8, 508784, Note_on_c, 6, 67, 105
8, 508784, Note_on_c, 6, 72, 105
8, 508784, Note_on_c, 6, 76, 105
8, 509264, Note_on_c, 6, 76, 0
8, 509264, Note_on_c, 6, 72, 0
8, 509264, Note_on_c, 6, 67, 0
8, 510720, Note_on_c, 6, 60, 70
8, 510960, Note_on_c, 6, 60, 0
8, 511200, Note_on_c, 6, 60, 70
8, 511440, Note_on_c, 6, 60, 0
8, 511680, Note_on_c, 6, 60, 70
8, 511920, Note_on_c, 6, 60, 0
8, 512160, Note_on_c, 6, 58, 94
8, 513120, Note_on_c, 6, 57, 94
8, 513179, Note_on_c, 6, 58, 0
8, 513360, Note_on_c, 6, 57, 0
8, 513600, Note_on_c, 6, 65, 70
8, 513644, Note_on_c, 6, 65, 0
8, 513720, Note_on_c, 6, 67, 70
8, 513764, Note_on_c, 6, 67, 0
8, 513840, Note_on_c, 6, 69, 70
8, 513884, Note_on_c, 6, 69, 0
8, 513960, Note_on_c, 6, 70, 70
8, 514004, Note_on_c, 6, 70, 0
8, 514080, Note_on_c, 6, 69, 70
8, 514124, Note_on_c, 6, 69, 0
8, 514200, Note_on_c, 6, 70, 70
8, 514244, Note_on_c, 6, 70, 0
8, 514320, Note_on_c, 6, 67, 70
8, 514364, Note_on_c, 6, 67, 0
8, 514440, Note_on_c, 6, 69, 70
8, 514484, Note_on_c, 6, 69, 0
8, 514560, Note_on_c, 6, 67, 70
8, 514604, Note_on_c, 6, 67, 0
8, 514680, Note_on_c, 6, 69, 70
8, 514724, Note_on_c, 6, 69, 0
8, 514800, Note_on_c, 6, 67, 70
8, 514844, Note_on_c, 6, 67, 0
8, 514920, Note_on_c, 6, 69, 70
8, 514964, Note_on_c, 6, 69, 0
8, 515040, Note_on_c, 6, 62, 70
8, 515880, Note_on_c, 6, 60, 70
8, 515899, Note_on_c, 6, 62, 0
8, 515940, Note_on_c, 6, 58, 70
8, 515979, Note_on_c, 6, 60, 0
8, 516000, Note_on_c, 6, 57, 70
8, 516039, Note_on_c, 6, 58, 0
8, 516240, Note_on_c, 6, 57, 0
8, 516480, Note_on_c, 6, 65, 94
8, 518400, Note_on_c, 6, 65, 0
8, 518400, Note_on_c, 6, 64, 93
8, 519840, Note_on_c, 6, 64, 0
8, 519840, Note_on_c, 6, 62, 92
8, 520080, Note_on_c, 6, 64, 92
8, 520119, Note_on_c, 6, 62, 0
8, 520200, Note_on_c, 6, 65, 92
8, 520239, Note_on_c, 6, 64, 0
8, 520299, Note_on_c, 6, 65, 0
8, 520320, Note_on_c, 6, 67, 92
8, 520440, Note_on_c, 6, 69, 92
8, 520477, Note_on_c, 6, 67, 0
8, 520560, Note_on_c, 6, 70, 92
8, 520597, Note_on_c, 6, 69, 0
8, 520680, Note_on_c, 6, 67, 92
8, 520717, Note_on_c, 6, 70, 0
8, 520769, Note_on_c, 6, 67, 0
8, 520800, Note_on_c, 6, 65, 92
8, 521280, Note_on_c, 6, 64, 92
8, 521344, Note_on_c, 6, 65, 0
8, 521760, Note_on_c, 6, 63, 80
8, 521834, Note_on_c, 6, 64, 0
8, 522209, Note_on_c, 6, 63, 0
8, 522240, Note_on_c, 6, 62, 70
8, 522600, Note_on_c, 6, 60, 70
8, 522634, Note_on_c, 6, 62, 0
8, 522660, Note_on_c, 6, 58, 70
8, 522699, Note_on_c, 6, 60, 0
8, 522710, Note_on_c, 6, 58, 0
8, 522720, Note_on_c, 6, 57, 70
8, 523200, Note_on_c, 6, 60, 70
8, 523244, Note_on_c, 6, 57, 0
8, 523440, Note_on_c, 6, 58, 70
8, 523484, Note_on_c, 6, 60, 0
8, 523664, Note_on_c, 6, 58, 0
8, 523680, Note_on_c, 6, 57, 70
8, 524160, Note_on_c, 6, 57, 0
8, 525120, Note_on_c, 6, 65, 70
8, 526080, Note_on_c, 6, 64, 70
8, 526149, Note_on_c, 6, 65, 0
8, 526529, Note_on_c, 6, 64, 0
8, 526800, Note_on_c, 6, 57, 92
8, 527040, Note_on_c, 6, 58, 92
8, 527089, Note_on_c, 6, 57, 0
8, 527280, Note_on_c, 6, 60, 92
8, 527329, Note_on_c, 6, 58, 0
8, 527520, Note_on_c, 6, 62, 92
8, 527574, Note_on_c, 6, 60, 0
8, 527760, Note_on_c, 6, 64, 80
8, 527804, Note_on_c, 6, 62, 0
8, 527969, Note_on_c, 6, 64, 0
8, 528000, Note_on_c, 6, 65, 70
8, 528480, Note_on_c, 6, 65, 0
8, 533760, Note_on_c, 6, 65, 70
8, 535680, Note_on_c, 6, 65, 0
8, 535680, Note_on_c, 6, 64, 70
8, 536640, Note_on_c, 6, 64, 0
8, 536640, Note_on_c, 6, 62, 70
8, 537360, Note_on_c, 6, 62, 0
8, 537360, Note_on_c, 6, 64, 70
8, 537480, Note_on_c, 6, 65, 70
8, 537517, Note_on_c, 6, 64, 0
8, 537600, Note_on_c, 6, 67, 70
8, 537637, Note_on_c, 6, 65, 0
8, 537720, Note_on_c, 6, 69, 70
8, 537757, Note_on_c, 6, 67, 0
8, 537840, Note_on_c, 6, 70, 70
8, 537877, Note_on_c, 6, 69, 0
8, 537960, Note_on_c, 6, 67, 70
8, 537997, Note_on_c, 6, 70, 0
8, 538054, Note_on_c, 6, 67, 0
8, 538080, Note_on_c, 6, 65, 70
8, 538560, Note_on_c, 6, 64, 70
8, 538624, Note_on_c, 6, 65, 0
8, 539040, Note_on_c, 6, 64, 0
8, 539520, Note_on_c, 6, 64, 50
8, 539688, Note_on_c, 6, 64, 0
8, 539760, Note_on_c, 6, 64, 50
8, 539928, Note_on_c, 6, 64, 0
8, 540000, Note_on_c, 6, 64, 50
8, 540168, Note_on_c, 6, 64, 0
8, 540240, Note_on_c, 6, 64, 50
8, 540408, Note_on_c, 6, 64, 0
8, 540480, Note_on_c, 6, 64, 50
8, 540648, Note_on_c, 6, 64, 0
8, 540720, Note_on_c, 6, 64, 49
8, 540888, Note_on_c, 6, 64, 0
8, 540960, Note_on_c, 6, 62, 49
8, 541128, Note_on_c, 6, 62, 0
8, 541200, Note_on_c, 6, 62, 49
8, 541368, Note_on_c, 6, 62, 0
8, 541440, Note_on_c, 6, 62, 49
8, 541608, Note_on_c, 6, 62, 0
8, 541680, Note_on_c, 6, 62, 48
8, 541848, Note_on_c, 6, 62, 0
8, 541920, Note_on_c, 6, 62, 48
8, 542088, Note_on_c, 6, 62, 0
8, 542160, Note_on_c, 6, 62, 48
8, 542328, Note_on_c, 6, 62, 0
8, 542400, Note_on_c, 6, 59, 48
8, 542568, Note_on_c, 6, 59, 0
8, 542640, Note_on_c, 6, 59, 48
8, 542808, Note_on_c, 6, 59, 0
8, 542880, Note_on_c, 6, 59, 47
8, 543048, Note_on_c, 6, 59, 0
8, 543120, Note_on_c, 6, 59, 47
8, 543288, Note_on_c, 6, 59, 0
8, 543360, Note_on_c, 6, 59, 47
8, 543528, Note_on_c, 6, 59, 0
8, 543600, Note_on_c, 6, 59, 47
8, 543768, Note_on_c, 6, 59, 0
8, 543840, Note_on_c, 6, 60, 54
8, 544800, Note_on_c, 6, 60, 0
8, 545760, Note_on_c, 6, 72, 47
8, 545856, Note_on_c, 6, 72, 0
8, 546240, Note_on_c, 6, 76, 47
8, 546336, Note_on_c, 6, 76, 0
8, 547200, Note_on_c, 6, 67, 48
8, 547296, Note_on_c, 6, 67, 0
8, 547680, Note_on_c, 6, 74, 48
8, 547776, Note_on_c, 6, 74, 0
8, 548640, Note_on_c, 6, 71, 49
8, 548736, Note_on_c, 6, 71, 0
8, 549120, Note_on_c, 6, 74, 49
8, 549216, Note_on_c, 6, 74, 0
8, 550080, Note_on_c, 6, 72, 70
8, 550176, Note_on_c, 6, 72, 0
8, 550560, Note_on_c, 6, 76, 70
8, 550656, Note_on_c, 6, 76, 0
8, 551520, Note_on_c, 6, 66, 70
8, 551616, Note_on_c, 6, 66, 0
8, 552000, Note_on_c, 6, 72, 70
8, 552096, Note_on_c, 6, 72, 0
8, 552960, Note_on_c, 6, 71, 70
8, 553056, Note_on_c, 6, 71, 0
8, 553440, Note_on_c, 6, 72, 70
8, 553536, Note_on_c, 6, 72, 0
8, 553920, Note_on_c, 6, 71, 70
8, 554400, Note_on_c, 6, 71, 0
8, 555360, Note_on_c, 6, 76, 94
8, 555840, Note_on_c, 6, 72, 70
8, 555924, Note_on_c, 6, 76, 0
8, 556080, Note_on_c, 6, 72, 0
8, 556200, Note_on_c, 6, 72, 70
8, 556244, Note_on_c, 6, 72, 0
8, 556320, Note_on_c, 6, 74, 70
8, 556440, Note_on_c, 6, 76, 70
8, 556470, Note_on_c, 6, 74, 0
8, 556560, Note_on_c, 6, 77, 70
8, 556590, Note_on_c, 6, 76, 0
8, 556680, Note_on_c, 6, 79, 70
8, 556710, Note_on_c, 6, 77, 0
8, 556769, Note_on_c, 6, 79, 0
8, 556800, Note_on_c, 6, 81, 70
8, 557040, Note_on_c, 6, 79, 70
8, 557100, Note_on_c, 6, 81, 0
8, 557280, Note_on_c, 6, 77, 70
8, 557340, Note_on_c, 6, 79, 0
8, 557520, Note_on_c, 6, 76, 70
8, 557580, Note_on_c, 6, 77, 0
8, 557760, Note_on_c, 6, 74, 70
8, 557820, Note_on_c, 6, 76, 0
8, 558000, Note_on_c, 6, 72, 70
8, 558060, Note_on_c, 6, 74, 0
8, 558209, Note_on_c, 6, 72, 0
8, 558240, Note_on_c, 6, 71, 80
8, 559200, Note_on_c, 6, 73, 82
8, 559264, Note_on_c, 6, 71, 0
8, 559680, Note_on_c, 6, 73, 91
8, 559684, Note_on_c, 6, 73, 0
8, 560040, Note_on_c, 6, 74, 93
8, 560084, Note_on_c, 6, 73, 0
8, 560129, Note_on_c, 6, 74, 0
8, 560160, Note_on_c, 6, 74, 70
8, 560880, Note_on_c, 6, 74, 0
8, 560880, Note_on_c, 6, 62, 70
8, 561120, Note_on_c, 6, 62, 0
8, 561120, Note_on_c, 6, 60, 70
8, 562080, Note_on_c, 6, 62, 70
8, 562139, Note_on_c, 6, 60, 0
8, 562524, Note_on_c, 6, 62, 0
8, 562560, Note_on_c, 6, 64, 70
8, 564000, Note_on_c, 6, 64, 0
8, 564000, Note_on_c, 6, 62, 70
8, 564240, Note_on_c, 6, 62, 0
8, 564480, Note_on_c, 6, 60, 70
8, 564720, Note_on_c, 6, 60, 0
8, 564960, Note_on_c, 6, 59, 70
8, 565200, Note_on_c, 6, 59, 0
8, 565440, Note_on_c, 6, 64, 91
8, 565920, Note_on_c, 6, 60, 70
8, 565999, Note_on_c, 6, 64, 0
8, 566160, Note_on_c, 6, 60, 0
8, 566280, Note_on_c, 6, 60, 70
8, 566324, Note_on_c, 6, 60, 0
8, 566400, Note_on_c, 6, 62, 70
8, 566520, Note_on_c, 6, 64, 70
8, 566550, Note_on_c, 6, 62, 0
8, 566640, Note_on_c, 6, 65, 70
8, 566670, Note_on_c, 6, 64, 0
8, 566760, Note_on_c, 6, 67, 70
8, 566790, Note_on_c, 6, 65, 0
8, 566859, Note_on_c, 6, 67, 0
8, 566880, Note_on_c, 6, 69, 70
8, 567120, Note_on_c, 6, 67, 70
8, 567180, Note_on_c, 6, 69, 0
8, 567360, Note_on_c, 6, 65, 70
8, 567420, Note_on_c, 6, 67, 0
8, 567600, Note_on_c, 6, 64, 70
8, 567660, Note_on_c, 6, 65, 0
8, 567840, Note_on_c, 6, 62, 70
8, 567900, Note_on_c, 6, 64, 0
8, 568080, Note_on_c, 6, 60, 70
8, 568139, Note_on_c, 6, 62, 0
8, 568289, Note_on_c, 6, 60, 0
8, 568320, Note_on_c, 6, 60, 80
8, 570720, Note_on_c, 6, 62, 70
8, 570784, Note_on_c, 6, 60, 0
8, 571169, Note_on_c, 6, 62, 0
8, 571200, Note_on_c, 6, 60, 70
8, 571680, Note_on_c, 6, 60, 0
8, 574080, Note_on_c, 6, 60, 70
8, 575040, Note_on_c, 6, 62, 70
8, 575119, Note_on_c, 6, 60, 0
8, 575439, Note_on_c, 6, 62, 0
8, 575520, Note_on_c, 6, 64, 70
8, 575760, Note_on_c, 6, 64, 0
8, 576000, Note_on_c, 6, 67, 70
8, 576240, Note_on_c, 6, 67, 0
8, 576480, Note_on_c, 6, 71, 70
8, 576720, Note_on_c, 6, 71, 0
8, 578400, Note_on_c, 6, 65, 70
8, 578640, Note_on_c, 6, 65, 0
8, 578880, Note_on_c, 6, 65, 70
8, 579120, Note_on_c, 6, 65, 0
8, 579360, Note_on_c, 6, 65, 70
8, 579840, Note_on_c, 6, 64, 70
8, 579939, Note_on_c, 6, 65, 0
8, 580049, Note_on_c, 6, 64, 0
8, 580080, Note_on_c, 6, 65, 70
8, 580176, Note_on_c, 6, 65, 0
8, 580320, Note_on_c, 6, 67, 70
8, 580560, Note_on_c, 6, 67, 0
8, 580560, Note_on_c, 6, 67, 70
8, 580800, Note_on_c, 6, 67, 0
8, 580800, Note_on_c, 6, 55, 70
8, 581040, Note_on_c, 6, 55, 0
8, 581040, Note_on_c, 6, 55, 70
8, 581280, Note_on_c, 6, 55, 0
8, 581280, Note_on_c, 6, 60, 70
8, 581760, Note_on_c, 6, 60, 0
8, 585600, Note_on_c, 6, 60, 70
8, 587040, Note_on_c, 6, 62, 74
8, 587149, Note_on_c, 6, 60, 0
8, 588419, Note_on_c, 6, 62, 0
8, 588480, Note_on_c, 6, 64, 82
8, 589920, Note_on_c, 6, 65, 91
8, 590049, Note_on_c, 6, 64, 0
8, 591309, Note_on_c, 6, 65, 0
8, 591360, Note_on_c, 6, 58, 90
8, 592800, Note_on_c, 6, 57, 70
8, 592889, Note_on_c, 6, 58, 0
8, 593040, Note_on_c, 6, 57, 0
8, 598560, Note_on_c, 6, 65, 70
8, 600480, Note_on_c, 6, 65, 0
8, 600480, Note_on_c, 6, 64, 70
8, 601440, Note_on_c, 6, 64, 0
8, 601440, Note_on_c, 6, 62, 70
8, 602160, Note_on_c, 6, 62, 0
8, 602160, Note_on_c, 6, 64, 70
8, 602280, Note_on_c, 6, 65, 70
8, 602329, Note_on_c, 6, 64, 0
8, 602374, Note_on_c, 6, 65, 0
8, 602400, Note_on_c, 6, 67, 70
8, 602520, Note_on_c, 6, 69, 70
8, 602560, Note_on_c, 6, 67, 0
8, 602640, Note_on_c, 6, 70, 70
8, 602680, Note_on_c, 6, 69, 0
8, 602760, Note_on_c, 6, 67, 70
8, 602800, Note_on_c, 6, 70, 0
8, 602849, Note_on_c, 6, 67, 0
8, 602880, Note_on_c, 6, 65, 70
8, 603360, Note_on_c, 6, 64, 70
8, 603429, Note_on_c, 6, 65, 0
8, 603840, Note_on_c, 6, 64, 0
8, 604320, Note_on_c, 6, 64, 60
8, 604488, Note_on_c, 6, 64, 0
8, 604560, Note_on_c, 6, 64, 60
8, 604728, Note_on_c, 6, 64, 0
8, 604800, Note_on_c, 6, 64, 60
8, 604968, Note_on_c, 6, 64, 0
8, 605040, Note_on_c, 6, 64, 60
8, 605208, Note_on_c, 6, 64, 0
8, 605280, Note_on_c, 6, 64, 60
8, 605448, Note_on_c, 6, 64, 0
8, 605520, Note_on_c, 6, 64, 60
8, 605688, Note_on_c, 6, 64, 0
8, 605760, Note_on_c, 6, 62, 60
8, 605928, Note_on_c, 6, 62, 0
8, 606000, Note_on_c, 6, 62, 60
8, 606168, Note_on_c, 6, 62, 0
8, 606240, Note_on_c, 6, 62, 60
8, 606408, Note_on_c, 6, 62, 0
8, 606480, Note_on_c, 6, 62, 59
8, 606648, Note_on_c, 6, 62, 0
8, 606720, Note_on_c, 6, 62, 59
8, 606888, Note_on_c, 6, 62, 0
8, 606960, Note_on_c, 6, 62, 59
8, 607128, Note_on_c, 6, 62, 0
8, 607200, Note_on_c, 6, 59, 59
8, 607368, Note_on_c, 6, 59, 0
8, 607440, Note_on_c, 6, 59, 59
8, 607608, Note_on_c, 6, 59, 0
8, 607680, Note_on_c, 6, 59, 59
8, 607848, Note_on_c, 6, 59, 0
8, 607920, Note_on_c, 6, 59, 59
8, 608088, Note_on_c, 6, 59, 0
8, 608160, Note_on_c, 6, 59, 59
8, 608328, Note_on_c, 6, 59, 0
8, 608400, Note_on_c, 6, 59, 59
8, 608568, Note_on_c, 6, 59, 0
8, 608640, Note_on_c, 6, 60, 59
8, 609360, Note_on_c, 6, 60, 0
8, 609360, Note_on_c, 6, 64, 90
8, 609600, Note_on_c, 6, 64, 0
8, 609600, Note_on_c, 6, 65, 90
8, 609840, Note_on_c, 6, 65, 0
8, 609840, Note_on_c, 6, 67, 90
8, 610080, Note_on_c, 6, 67, 0
8, 610080, Note_on_c, 6, 69, 85
8, 610560, Note_on_c, 6, 69, 0
8, 610560, Note_on_c, 6, 69, 56
8, 610656, Note_on_c, 6, 69, 0
8, 611040, Note_on_c, 6, 72, 56
8, 611136, Note_on_c, 6, 72, 0
8, 612000, Note_on_c, 6, 72, 56
8, 612096, Note_on_c, 6, 72, 0
8, 612480, Note_on_c, 6, 79, 56
8, 612576, Note_on_c, 6, 79, 0
8, 613440, Note_on_c, 6, 76, 55
8, 613536, Note_on_c, 6, 76, 0
8, 613920, Note_on_c, 6, 79, 55
8, 614016, Note_on_c, 6, 79, 0
8, 614880, Note_on_c, 6, 77, 55
8, 614976, Note_on_c, 6, 77, 0
8, 615360, Note_on_c, 6, 81, 55
8, 615456, Note_on_c, 6, 81, 0
8, 616320, Note_on_c, 6, 65, 54
8, 616416, Note_on_c, 6, 65, 0
8, 616800, Note_on_c, 6, 71, 54
8, 616896, Note_on_c, 6, 71, 0
8, 617760, Note_on_c, 6, 72, 54
8, 617856, Note_on_c, 6, 72, 0
8, 618240, Note_on_c, 6, 77, 54
8, 618336, Note_on_c, 6, 77, 0
8, 618720, Note_on_c, 6, 76, 54
8, 619200, Note_on_c, 6, 76, 0
8, 620160, Note_on_c, 6, 69, 83
8, 620640, Note_on_c, 6, 69, 0
8, 620640, Note_on_c, 6, 65, 70
8, 620880, Note_on_c, 6, 65, 0
8, 621000, Note_on_c, 6, 65, 70
8, 621044, Note_on_c, 6, 65, 0
8, 621120, Note_on_c, 6, 67, 70
8, 621240, Note_on_c, 6, 69, 70
8, 621280, Note_on_c, 6, 67, 0
8, 621360, Note_on_c, 6, 70, 70
8, 621400, Note_on_c, 6, 69, 0
8, 621480, Note_on_c, 6, 72, 70
8, 621520, Note_on_c, 6, 70, 0
8, 621600, Note_on_c, 6, 72, 0
8, 621600, Note_on_c, 6, 74, 70
8, 621840, Note_on_c, 6, 72, 70
8, 621887, Note_on_c, 6, 74, 0
8, 622080, Note_on_c, 6, 70, 70
8, 622127, Note_on_c, 6, 72, 0
8, 622320, Note_on_c, 6, 69, 70
8, 622367, Note_on_c, 6, 70, 0
8, 622560, Note_on_c, 6, 67, 70
8, 622607, Note_on_c, 6, 69, 0
8, 622800, Note_on_c, 6, 65, 70
8, 622847, Note_on_c, 6, 67, 0
8, 623040, Note_on_c, 6, 65, 0
8, 623040, Note_on_c, 6, 64, 71
8, 623520, Note_on_c, 6, 64, 0
8, 623520, Note_on_c, 6, 76, 77
8, 624240, Note_on_c, 6, 78, 87
8, 624279, Note_on_c, 6, 76, 0
8, 624480, Note_on_c, 6, 78, 0
8, 624480, Note_on_c, 6, 78, 89
8, 624840, Note_on_c, 6, 79, 89
8, 624879, Note_on_c, 6, 78, 0
8, 624944, Note_on_c, 6, 79, 0
8, 624960, Note_on_c, 6, 79, 70
8, 625680, Note_on_c, 6, 67, 70
8, 625729, Note_on_c, 6, 79, 0
8, 625889, Note_on_c, 6, 67, 0
8, 625920, Note_on_c, 6, 65, 70
8, 626880, Note_on_c, 6, 67, 70
8, 626944, Note_on_c, 6, 65, 0
8, 627360, Note_on_c, 6, 67, 0
8, 627360, Note_on_c, 6, 69, 70
8, 628800, Note_on_c, 6, 67, 70
8, 628849, Note_on_c, 6, 69, 0
8, 629040, Note_on_c, 6, 67, 0
8, 629280, Note_on_c, 6, 65, 70
8, 629520, Note_on_c, 6, 65, 0
8, 629760, Note_on_c, 6, 64, 70
8, 630000, Note_on_c, 6, 64, 0
8, 630240, Note_on_c, 6, 69, 91
8, 630720, Note_on_c, 6, 65, 91
8, 630764, Note_on_c, 6, 69, 0
8, 630960, Note_on_c, 6, 65, 0
8, 631080, Note_on_c, 6, 65, 90
8, 631124, Note_on_c, 6, 65, 0
8, 631200, Note_on_c, 6, 67, 90
8, 631320, Note_on_c, 6, 69, 90
8, 631360, Note_on_c, 6, 67, 0
8, 631440, Note_on_c, 6, 70, 90
8, 631480, Note_on_c, 6, 69, 0
8, 631560, Note_on_c, 6, 72, 90
8, 631600, Note_on_c, 6, 70, 0
8, 631680, Note_on_c, 6, 72, 0
8, 631680, Note_on_c, 6, 74, 90
8, 631920, Note_on_c, 6, 72, 90
8, 631980, Note_on_c, 6, 74, 0
8, 632160, Note_on_c, 6, 70, 89
8, 632220, Note_on_c, 6, 72, 0
8, 632400, Note_on_c, 6, 69, 89
8, 632460, Note_on_c, 6, 70, 0
8, 632640, Note_on_c, 6, 67, 89
8, 632700, Note_on_c, 6, 69, 0
8, 632880, Note_on_c, 6, 65, 89
8, 632940, Note_on_c, 6, 67, 0
8, 633120, Note_on_c, 6, 65, 0
8, 633120, Note_on_c, 6, 65, 80
8, 633600, Note_on_c, 6, 64, 90
8, 633659, Note_on_c, 6, 65, 0
8, 634080, Note_on_c, 6, 63, 92
8, 634144, Note_on_c, 6, 64, 0
8, 634560, Note_on_c, 6, 63, 0
8, 634560, Note_on_c, 6, 63, 92
8, 634920, Note_on_c, 6, 62, 81
8, 634964, Note_on_c, 6, 63, 0
8, 635019, Note_on_c, 6, 62, 0
8, 635040, Note_on_c, 6, 62, 70
8, 635520, Note_on_c, 6, 64, 70
8, 635579, Note_on_c, 6, 62, 0
8, 636000, Note_on_c, 6, 64, 0
8, 636000, Note_on_c, 6, 65, 70
8, 636480, Note_on_c, 6, 65, 0
8, 638880, Note_on_c, 6, 65, 70
8, 639840, Note_on_c, 6, 67, 70
8, 639889, Note_on_c, 6, 65, 0
8, 640320, Note_on_c, 6, 67, 0
8, 640320, Note_on_c, 6, 69, 70
8, 640560, Note_on_c, 6, 69, 0
8, 640800, Note_on_c, 6, 72, 70
8, 641040, Note_on_c, 6, 72, 0
8, 641280, Note_on_c, 6, 76, 70
8, 641520, Note_on_c, 6, 76, 0
8, 641760, Note_on_c, 6, 77, 70
8, 642000, Note_on_c, 6, 79, 70
8, 642060, Note_on_c, 6, 77, 0
8, 642240, Note_on_c, 6, 77, 70
8, 642300, Note_on_c, 6, 79, 0
8, 642480, Note_on_c, 6, 76, 70
8, 642540, Note_on_c, 6, 77, 0
8, 642720, Note_on_c, 6, 74, 70
8, 642780, Note_on_c, 6, 76, 0
8, 642960, Note_on_c, 6, 72, 70
8, 643020, Note_on_c, 6, 74, 0
8, 643200, Note_on_c, 6, 72, 0
8, 643200, Note_on_c, 6, 70, 70
8, 643380, Note_on_c, 6, 70, 0
8, 643440, Note_on_c, 6, 70, 70
8, 643620, Note_on_c, 6, 70, 0
8, 643680, Note_on_c, 6, 70, 70
8, 643860, Note_on_c, 6, 70, 0
8, 643920, Note_on_c, 6, 70, 70
8, 644100, Note_on_c, 6, 70, 0
8, 644160, Note_on_c, 6, 70, 70
8, 644340, Note_on_c, 6, 70, 0
8, 644400, Note_on_c, 6, 70, 70
8, 644580, Note_on_c, 6, 70, 0
8, 644640, Note_on_c, 6, 69, 70
8, 644820, Note_on_c, 6, 69, 0
8, 644880, Note_on_c, 6, 70, 70
8, 645060, Note_on_c, 6, 70, 0
8, 645120, Note_on_c, 6, 72, 70
8, 645300, Note_on_c, 6, 72, 0
8, 645360, Note_on_c, 6, 72, 70
8, 645540, Note_on_c, 6, 72, 0
8, 645600, Note_on_c, 6, 60, 70
8, 645780, Note_on_c, 6, 60, 0
8, 645840, Note_on_c, 6, 60, 70
8, 646020, Note_on_c, 6, 60, 0
8, 646080, Note_on_c, 6, 65, 70
8, 646560, Note_on_c, 6, 65, 0
8, 650640, Note_on_c, 6, 65, 70
8, 650880, Note_on_c, 6, 65, 0
8, 651120, Note_on_c, 6, 65, 70
8, 651360, Note_on_c, 6, 65, 0
8, 651600, Note_on_c, 6, 65, 70
8, 651840, Note_on_c, 6, 65, 0
8, 652080, Note_on_c, 6, 67, 72
8, 652320, Note_on_c, 6, 67, 0
8, 652560, Note_on_c, 6, 64, 77
8, 652800, Note_on_c, 6, 64, 0
8, 653040, Note_on_c, 6, 58, 81
8, 653280, Note_on_c, 6, 58, 0
8, 653280, Note_on_c, 6, 57, 83
8, 653760, Note_on_c, 6, 57, 0
8, 654000, Note_on_c, 6, 65, 90
8, 654240, Note_on_c, 6, 64, 91
8, 654300, Note_on_c, 6, 65, 0
8, 654480, Note_on_c, 6, 62, 91
8, 654540, Note_on_c, 6, 64, 0
8, 654720, Note_on_c, 6, 60, 91
8, 654780, Note_on_c, 6, 62, 0
8, 654960, Note_on_c, 6, 60, 0
8, 654960, Note_on_c, 6, 69, 91
8, 655200, Note_on_c, 6, 67, 91
8, 655260, Note_on_c, 6, 69, 0
8, 655440, Note_on_c, 6, 65, 91
8, 655500, Note_on_c, 6, 67, 0
8, 655680, Note_on_c, 6, 64, 91
8, 655740, Note_on_c, 6, 65, 0
8, 655920, Note_on_c, 6, 62, 90
8, 655980, Note_on_c, 6, 64, 0
8, 656160, Note_on_c, 6, 60, 90
8, 656220, Note_on_c, 6, 62, 0
8, 656400, Note_on_c, 6, 60, 0
8, 659040, Note_on_c, 6, 60, 70
8, 659280, Note_on_c, 6, 60, 0
8, 659520, Note_on_c, 6, 60, 70
8, 659760, Note_on_c, 6, 60, 0
8, 660000, Note_on_c, 6, 60, 70
8, 660240, Note_on_c, 6, 60, 0
8, 660480, Note_on_c, 6, 58, 91
8, 661440, Note_on_c, 6, 57, 90
8, 661484, Note_on_c, 6, 58, 0
8, 661680, Note_on_c, 6, 57, 0
8, 661920, Note_on_c, 6, 65, 58
8, 661964, Note_on_c, 6, 65, 0
8, 662040, Note_on_c, 6, 67, 58
8, 662084, Note_on_c, 6, 67, 0
8, 662160, Note_on_c, 6, 69, 58
8, 662204, Note_on_c, 6, 69, 0
8, 662280, Note_on_c, 6, 70, 58
8, 662324, Note_on_c, 6, 70, 0
8, 662400, Note_on_c, 6, 69, 58
8, 662444, Note_on_c, 6, 69, 0
8, 662520, Note_on_c, 6, 70, 59
8, 662564, Note_on_c, 6, 70, 0
8, 662640, Note_on_c, 6, 67, 59
8, 662684, Note_on_c, 6, 67, 0
8, 662760, Note_on_c, 6, 69, 59
8, 662804, Note_on_c, 6, 69, 0
8, 662880, Note_on_c, 6, 67, 59
8, 662924, Note_on_c, 6, 67, 0
8, 663000, Note_on_c, 6, 69, 60
8, 663044, Note_on_c, 6, 69, 0
8, 663120, Note_on_c, 6, 67, 60
8, 663164, Note_on_c, 6, 67, 0
8, 663240, Note_on_c, 6, 69, 60
8, 663284, Note_on_c, 6, 69, 0
8, 663360, Note_on_c, 6, 62, 60
8, 664200, Note_on_c, 6, 60, 70
8, 664224, Note_on_c, 6, 62, 0
8, 664260, Note_on_c, 6, 58, 70
8, 664289, Note_on_c, 6, 60, 0
8, 664320, Note_on_c, 6, 57, 70
8, 664354, Note_on_c, 6, 58, 0
8, 664560, Note_on_c, 6, 57, 0
8, 664800, Note_on_c, 6, 65, 91
8, 666720, Note_on_c, 6, 65, 0
8, 666720, Note_on_c, 6, 64, 91
8, 668160, Note_on_c, 6, 64, 0
8, 668160, Note_on_c, 6, 62, 91
8, 668400, Note_on_c, 6, 64, 91
8, 668424, Note_on_c, 6, 62, 0
8, 668520, Note_on_c, 6, 65, 91
8, 668549, Note_on_c, 6, 64, 0
8, 668640, Note_on_c, 6, 65, 0
8, 668640, Note_on_c, 6, 67, 91
8, 668760, Note_on_c, 6, 69, 91
8, 668790, Note_on_c, 6, 67, 0
8, 668880, Note_on_c, 6, 70, 91
8, 668910, Note_on_c, 6, 69, 0
8, 669000, Note_on_c, 6, 67, 91
8, 669030, Note_on_c, 6, 70, 0
8, 669120, Note_on_c, 6, 67, 0
8, 669120, Note_on_c, 6, 65, 91
8, 669600, Note_on_c, 6, 64, 91
8, 669644, Note_on_c, 6, 65, 0
8, 670080, Note_on_c, 6, 63, 70
8, 670129, Note_on_c, 6, 64, 0
8, 670560, Note_on_c, 6, 63, 0
8, 670560, Note_on_c, 6, 62, 70
8, 670920, Note_on_c, 6, 60, 70
8, 670949, Note_on_c, 6, 62, 0
8, 670980, Note_on_c, 6, 58, 70
8, 671009, Note_on_c, 6, 60, 0
8, 671040, Note_on_c, 6, 58, 0
8, 671040, Note_on_c, 6, 57, 70
8, 671520, Note_on_c, 6, 60, 70
8, 671569, Note_on_c, 6, 57, 0
8, 671760, Note_on_c, 6, 58, 70
8, 671789, Note_on_c, 6, 60, 0
8, 672000, Note_on_c, 6, 58, 0
8, 672000, Note_on_c, 6, 57, 70
8, 672480, Note_on_c, 6, 57, 0
8, 673440, Note_on_c, 6, 65, 60
8, 674400, Note_on_c, 6, 64, 59
8, 674444, Note_on_c, 6, 65, 0
8, 674880, Note_on_c, 6, 64, 0
8, 674880, Note_on_c, 6, 65, 59
8, 675360, Note_on_c, 6, 65, 0
8, 677760, Note_on_c, 6, 57, 60
8, 678104, Note_on_c, 6, 57, 0
8, 678240, Note_on_c, 6, 57, 60
8, 678609, Note_on_c, 6, 57, 0
8, 678720, Note_on_c, 6, 57, 60
8, 679084, Note_on_c, 6, 57, 0
8, 679200, Note_on_c, 6, 57, 60
8, 680160, Note_on_c, 6, 57, 0
8, 681600, Note_on_c, 6, 60, 70
8, 681696, Note_on_c, 6, 60, 0
8, 681840, Note_on_c, 6, 64, 70
8, 681936, Note_on_c, 6, 64, 0
8, 682080, Note_on_c, 6, 67, 70
8, 682176, Note_on_c, 6, 67, 0
8, 682320, Note_on_c, 6, 64, 70
8, 682416, Note_on_c, 6, 64, 0
8, 682560, Note_on_c, 6, 60, 70
8, 682656, Note_on_c, 6, 60, 0
8, 682800, Note_on_c, 6, 55, 70
8, 682896, Note_on_c, 6, 55, 0
8, 683040, Note_on_c, 6, 60, 70
8, 683136, Note_on_c, 6, 60, 0
8, 683280, Note_on_c, 6, 55, 70
8, 683376, Note_on_c, 6, 55, 0
8, 683520, Note_on_c, 6, 62, 70
8, 683616, Note_on_c, 6, 62, 0
8, 683760, Note_on_c, 6, 55, 70
8, 683856, Note_on_c, 6, 55, 0
8, 684000, Note_on_c, 6, 62, 70
8, 684096, Note_on_c, 6, 62, 0
8, 684240, Note_on_c, 6, 55, 70
8, 684336, Note_on_c, 6, 55, 0
8, 684480, Note_on_c, 6, 64, 70
8, 684576, Note_on_c, 6, 64, 0
8, 684720, Note_on_c, 6, 60, 70
8, 684816, Note_on_c, 6, 60, 0
8, 684960, Note_on_c, 6, 64, 70
8, 685056, Note_on_c, 6, 64, 0
8, 685200, Note_on_c, 6, 67, 70
8, 685296, Note_on_c, 6, 67, 0
8, 685440, Note_on_c, 6, 64, 70
8, 685536, Note_on_c, 6, 64, 0
8, 685680, Note_on_c, 6, 60, 70
8, 685776, Note_on_c, 6, 60, 0
8, 685920, Note_on_c, 6, 64, 70
8, 686016, Note_on_c, 6, 64, 0
8, 686160, Note_on_c, 6, 60, 70
8, 686256, Note_on_c, 6, 60, 0
8, 686400, Note_on_c, 6, 65, 70
8, 686496, Note_on_c, 6, 65, 0
8, 686640, Note_on_c, 6, 60, 70
8, 686736, Note_on_c, 6, 60, 0
8, 686880, Note_on_c, 6, 64, 70
8, 686976, Note_on_c, 6, 64, 0
8, 687120, Note_on_c, 6, 60, 70
8, 687216, Note_on_c, 6, 60, 0
8, 687360, Note_on_c, 6, 64, 70
8, 687456, Note_on_c, 6, 64, 0
8, 687600, Note_on_c, 6, 60, 70
8, 687696, Note_on_c, 6, 60, 0
8, 687840, Note_on_c, 6, 64, 70
8, 687936, Note_on_c, 6, 64, 0
8, 688080, Note_on_c, 6, 60, 70
8, 688176, Note_on_c, 6, 60, 0
8, 688320, Note_on_c, 6, 65, 70
8, 688416, Note_on_c, 6, 65, 0
8, 688560, Note_on_c, 6, 60, 70
8, 688656, Note_on_c, 6, 60, 0
8, 688800, Note_on_c, 6, 64, 70
8, 688896, Note_on_c, 6, 64, 0
8, 689040, Note_on_c, 6, 65, 70
8, 689136, Note_on_c, 6, 65, 0
8, 689280, Note_on_c, 6, 67, 70
8, 689520, Note_on_c, 6, 67, 0
8, 689520, Note_on_c, 6, 65, 70
8, 689760, Note_on_c, 6, 65, 0
8, 689760, Note_on_c, 6, 64, 70
8, 690000, Note_on_c, 6, 64, 0
8, 690000, Note_on_c, 6, 62, 70
8, 690240, Note_on_c, 6, 62, 0
8, 690240, Note_on_c, 6, 60, 70
8, 690480, Note_on_c, 6, 60, 0
8, 690480, Note_on_c, 6, 64, 70
8, 690720, Note_on_c, 6, 64, 0
8, 690720, Note_on_c, 6, 67, 70
8, 690960, Note_on_c, 6, 67, 0
8, 690960, Note_on_c, 6, 72, 70
8, 691200, Note_on_c, 6, 72, 0
8, 691200, Note_on_c, 6, 59, 70
8, 691440, Note_on_c, 6, 59, 0
8, 691440, Note_on_c, 6, 62, 70
8, 691680, Note_on_c, 6, 62, 0
8, 691680, Note_on_c, 6, 67, 70
8, 691920, Note_on_c, 6, 67, 0
8, 691920, Note_on_c, 6, 71, 70
8, 692160, Note_on_c, 6, 71, 0
8, 692160, Note_on_c, 6, 60, 70
8, 692400, Note_on_c, 6, 60, 0
8, 692400, Note_on_c, 6, 64, 70
8, 692640, Note_on_c, 6, 64, 0
8, 692640, Note_on_c, 6, 67, 70
8, 692880, Note_on_c, 6, 67, 0
8, 692880, Note_on_c, 6, 72, 70
8, 693120, Note_on_c, 6, 72, 0
8, 693120, Note_on_c, 6, 62, 70
8, 693360, Note_on_c, 6, 62, 0
8, 693360, Note_on_c, 6, 67, 70
8, 693600, Note_on_c, 6, 67, 0
8, 693600, Note_on_c, 6, 71, 70
8, 693840, Note_on_c, 6, 71, 0
8, 693840, Note_on_c, 6, 74, 70
8, 694080, Note_on_c, 6, 74, 0
8, 694080, Note_on_c, 6, 64, 70
8, 694320, Note_on_c, 6, 64, 0
8, 694320, Note_on_c, 6, 67, 70
8, 694560, Note_on_c, 6, 67, 0
8, 694560, Note_on_c, 6, 72, 70
8, 694800, Note_on_c, 6, 72, 0
8, 694800, Note_on_c, 6, 76, 70
8, 695040, Note_on_c, 6, 76, 0
8, 695040, Note_on_c, 6, 77, 70
8, 695280, Note_on_c, 6, 77, 0
8, 695280, Note_on_c, 6, 76, 70
8, 695520, Note_on_c, 6, 76, 0
8, 695520, Note_on_c, 6, 74, 70
8, 695616, Note_on_c, 6, 74, 0
8, 695760, Note_on_c, 6, 72, 70
8, 695856, Note_on_c, 6, 72, 0
8, 696000, Note_on_c, 6, 67, 70
8, 696240, Note_on_c, 6, 67, 0
8, 696240, Note_on_c, 6, 72, 70
8, 696480, Note_on_c, 6, 72, 0
8, 696480, Note_on_c, 6, 71, 70
8, 696720, Note_on_c, 6, 71, 0
8, 696720, Note_on_c, 6, 69, 70
8, 696960, Note_on_c, 6, 69, 0
8, 696960, Note_on_c, 6, 67, 70
8, 697200, Note_on_c, 6, 67, 0
8, 697200, Note_on_c, 6, 65, 70
8, 697440, Note_on_c, 6, 65, 0
8, 697440, Note_on_c, 6, 64, 70
8, 697680, Note_on_c, 6, 64, 0
8, 697680, Note_on_c, 6, 62, 70
8, 697920, Note_on_c, 6, 62, 0
8, 697920, Note_on_c, 6, 60, 70
8, 698016, Note_on_c, 6, 60, 0
8, 698160, Note_on_c, 6, 55, 70
8, 698256, Note_on_c, 6, 55, 0
8, 698400, Note_on_c, 6, 60, 70
8, 698496, Note_on_c, 6, 60, 0
8, 698640, Note_on_c, 6, 55, 70
8, 698736, Note_on_c, 6, 55, 0
8, 698880, Note_on_c, 6, 59, 70
8, 698976, Note_on_c, 6, 59, 0
8, 699120, Note_on_c, 6, 55, 70
8, 699216, Note_on_c, 6, 55, 0
8, 699360, Note_on_c, 6, 59, 70
8, 699456, Note_on_c, 6, 59, 0
8, 699600, Note_on_c, 6, 55, 70
8, 699696, Note_on_c, 6, 55, 0
8, 699840, Note_on_c, 6, 60, 70
8, 699936, Note_on_c, 6, 60, 0
8, 700080, Note_on_c, 6, 64, 70
8, 700176, Note_on_c, 6, 64, 0
8, 700320, Note_on_c, 6, 67, 70
8, 700416, Note_on_c, 6, 67, 0
8, 700560, Note_on_c, 6, 64, 70
8, 700656, Note_on_c, 6, 64, 0
8, 700800, Note_on_c, 6, 60, 81
8, 701040, Note_on_c, 6, 59, 70
8, 701108, Note_on_c, 6, 60, 0
8, 701280, Note_on_c, 6, 60, 70
8, 701348, Note_on_c, 6, 59, 0
8, 701520, Note_on_c, 6, 59, 70
8, 701588, Note_on_c, 6, 60, 0
8, 701700, Note_on_c, 6, 59, 0
8, 701760, Note_on_c, 6, 60, 70
8, 702068, Note_on_c, 6, 60, 0
8, 702720, Note_on_c, 6, 60, 81
8, 702960, Note_on_c, 6, 59, 70
8, 703028, Note_on_c, 6, 60, 0
8, 703200, Note_on_c, 6, 60, 70
8, 703268, Note_on_c, 6, 59, 0
8, 703440, Note_on_c, 6, 59, 70
8, 703508, Note_on_c, 6, 60, 0
8, 703612, Note_on_c, 6, 59, 0
8, 703680, Note_on_c, 6, 60, 70
8, 704052, Note_on_c, 6, 60, 0
8, 705600, Note_on_c, 6, 64, 86
8, 705840, Note_on_c, 6, 67, 70
8, 705908, Note_on_c, 6, 64, 0
8, 706028, Note_on_c, 6, 67, 0
8, 706560, Note_on_c, 6, 62, 84
8, 706800, Note_on_c, 6, 65, 70
8, 706900, Note_on_c, 6, 62, 0
8, 706980, Note_on_c, 6, 65, 0
8, 707520, Note_on_c, 6, 60, 84
8, 707760, Note_on_c, 6, 64, 70
8, 707828, Note_on_c, 6, 60, 0
8, 707940, Note_on_c, 6, 64, 0
8, 708480, Note_on_c, 6, 59, 82
8, 708720, Note_on_c, 6, 62, 70
8, 708796, Note_on_c, 6, 59, 0
8, 708892, Note_on_c, 6, 62, 0
8, 709440, Note_on_c, 6, 55, 70
8, 709680, Note_on_c, 6, 64, 70
8, 709756, Note_on_c, 6, 55, 0
8, 709920, Note_on_c, 6, 60, 70
8, 709996, Note_on_c, 6, 64, 0
8, 710160, Note_on_c, 6, 64, 70
8, 710260, Note_on_c, 6, 60, 0
8, 710316, Note_on_c, 6, 64, 0
8, 710400, Note_on_c, 6, 64, 70
8, 710640, Note_on_c, 6, 62, 70
8, 710716, Note_on_c, 6, 64, 0
8, 710880, Note_on_c, 6, 60, 70
8, 710980, Note_on_c, 6, 62, 0
8, 711120, Note_on_c, 6, 59, 70
8, 711212, Note_on_c, 6, 60, 0
8, 711284, Note_on_c, 6, 59, 0
8, 711360, Note_on_c, 6, 60, 105
8, 711840, Note_on_c, 6, 60, 0
8, 712080, Note_on_c, 6, 72, 105
8, 712244, Note_on_c, 6, 72, 0
8, 712320, Note_on_c, 6, 72, 105
8, 712484, Note_on_c, 6, 72, 0
8, 712560, Note_on_c, 6, 72, 105
8, 712732, Note_on_c, 6, 72, 0
8, 712800, Note_on_c, 6, 72, 105
8, 712948, Note_on_c, 6, 72, 0
8, 713040, Note_on_c, 6, 72, 105
8, 713196, Note_on_c, 6, 72, 0
8, 713280, Note_on_c, 6, 71, 103
8, 713340, Note_on_c, 6, 72, 108
8, 713400, Note_on_c, 6, 74, 109
8, 713412, Note_on_c, 6, 71, 0
8, 713480, Note_on_c, 6, 72, 0
8, 713652, Note_on_c, 6, 74, 0
8, 714000, Note_on_c, 6, 65, 105
8, 714188, Note_on_c, 6, 65, 0
8, 714240, Note_on_c, 6, 65, 105
8, 714388, Note_on_c, 6, 65, 0
8, 714480, Note_on_c, 6, 65, 105
8, 714628, Note_on_c, 6, 65, 0
8, 714720, Note_on_c, 6, 65, 105
8, 714876, Note_on_c, 6, 65, 0
8, 714960, Note_on_c, 6, 65, 105
8, 715100, Note_on_c, 6, 65, 0
8, 715200, Note_on_c, 6, 64, 106
8, 715260, Note_on_c, 6, 65, 107
8, 715320, Note_on_c, 6, 67, 111
8, 715324, Note_on_c, 6, 64, 0
8, 715408, Note_on_c, 6, 65, 0
8, 715580, Note_on_c, 6, 67, 0
8, 715920, Note_on_c, 6, 72, 105
8, 716084, Note_on_c, 6, 72, 0
8, 716160, Note_on_c, 6, 72, 105
8, 716316, Note_on_c, 6, 72, 0
8, 716400, Note_on_c, 6, 72, 105
8, 716588, Note_on_c, 6, 72, 0
8, 716640, Note_on_c, 6, 72, 105
8, 716820, Note_on_c, 6, 72, 0
8, 716880, Note_on_c, 6, 72, 105
8, 717052, Note_on_c, 6, 72, 0
8, 717120, Note_on_c, 6, 71, 108
8, 717180, Note_on_c, 6, 72, 112
8, 717240, Note_on_c, 6, 74, 117
8, 717252, Note_on_c, 6, 71, 0
8, 717328, Note_on_c, 6, 72, 0
8, 717484, Note_on_c, 6, 74, 0
8, 717840, Note_on_c, 6, 65, 105
8, 718012, Note_on_c, 6, 65, 0
8, 718080, Note_on_c, 6, 65, 105
8, 718260, Note_on_c, 6, 65, 0
8, 718320, Note_on_c, 6, 65, 105
8, 718484, Note_on_c, 6, 65, 0
8, 718560, Note_on_c, 6, 65, 105
8, 718724, Note_on_c, 6, 65, 0
8, 718800, Note_on_c, 6, 65, 105
8, 718980, Note_on_c, 6, 65, 0
8, 719040, Note_on_c, 6, 64, 105
8, 719116, Note_on_c, 6, 64, 0
8, 719160, Note_on_c, 6, 60, 105
8, 719236, Note_on_c, 6, 60, 0
8, 719280, Note_on_c, 6, 60, 105
8, 719356, Note_on_c, 6, 60, 0
8, 719400, Note_on_c, 6, 60, 105
8, 719476, Note_on_c, 6, 60, 0
8, 719520, Note_on_c, 6, 60, 105
8, 719596, Note_on_c, 6, 60, 0
8, 719640, Note_on_c, 6, 60, 105
8, 719716, Note_on_c, 6, 60, 0
8, 719760, Note_on_c, 6, 60, 105
8, 719836, Note_on_c, 6, 60, 0
8, 719880, Note_on_c, 6, 60, 105
8, 719956, Note_on_c, 6, 60, 0
8, 720000, Note_on_c, 6, 60, 105
8, 720076, Note_on_c, 6, 60, 0
8, 720120, Note_on_c, 6, 60, 105
8, 720196, Note_on_c, 6, 60, 0
8, 720240, Note_on_c, 6, 60, 105
8, 720316, Note_on_c, 6, 60, 0
8, 720360, Note_on_c, 6, 60, 105
8, 720436, Note_on_c, 6, 60, 0
8, 720480, Note_on_c, 6, 60, 80
8, 720556, Note_on_c, 6, 60, 0
8, 720600, Note_on_c, 6, 60, 80
8, 720676, Note_on_c, 6, 60, 0
8, 720720, Note_on_c, 6, 60, 80
8, 720796, Note_on_c, 6, 60, 0
8, 720840, Note_on_c, 6, 60, 80
8, 720916, Note_on_c, 6, 60, 0
8, 720960, Note_on_c, 6, 60, 70
8, 721036, Note_on_c, 6, 60, 0
8, 721080, Note_on_c, 6, 60, 70
8, 721156, Note_on_c, 6, 60, 0
8, 721200, Note_on_c, 6, 60, 70
8, 721276, Note_on_c, 6, 60, 0
8, 721320, Note_on_c, 6, 60, 70
8, 721396, Note_on_c, 6, 60, 0
8, 721440, Note_on_c, 6, 60, 70
8, 721516, Note_on_c, 6, 60, 0
8, 721560, Note_on_c, 6, 60, 70
8, 721636, Note_on_c, 6, 60, 0
8, 721680, Note_on_c, 6, 60, 70
8, 721756, Note_on_c, 6, 60, 0
8, 721800, Note_on_c, 6, 60, 70
8, 721876, Note_on_c, 6, 60, 0
8, 721920, Note_on_c, 6, 60, 70
8, 721996, Note_on_c, 6, 60, 0
8, 722040, Note_on_c, 6, 60, 70
8, 722116, Note_on_c, 6, 60, 0
8, 722160, Note_on_c, 6, 60, 70
8, 722236, Note_on_c, 6, 60, 0
8, 722280, Note_on_c, 6, 60, 70
8, 722356, Note_on_c, 6, 60, 0
8, 722400, Note_on_c, 6, 60, 70
8, 722476, Note_on_c, 6, 60, 0
8, 722520, Note_on_c, 6, 60, 70
8, 722596, Note_on_c, 6, 60, 0
8, 722640, Note_on_c, 6, 60, 70
8, 722716, Note_on_c, 6, 60, 0
8, 722760, Note_on_c, 6, 60, 70
8, 722836, Note_on_c, 6, 60, 0
8, 722880, Note_on_c, 6, 60, 90
8, 722956, Note_on_c, 6, 60, 0
8, 723000, Note_on_c, 6, 60, 90
8, 723076, Note_on_c, 6, 60, 0
8, 723120, Note_on_c, 6, 60, 90
8, 723196, Note_on_c, 6, 60, 0
8, 723240, Note_on_c, 6, 60, 90
8, 723316, Note_on_c, 6, 60, 0
8, 723360, Note_on_c, 6, 60, 90
8, 723436, Note_on_c, 6, 60, 0
8, 723480, Note_on_c, 6, 60, 90
8, 723556, Note_on_c, 6, 60, 0
8, 723600, Note_on_c, 6, 60, 90
8, 723676, Note_on_c, 6, 60, 0
8, 723720, Note_on_c, 6, 60, 90
8, 723796, Note_on_c, 6, 60, 0
8, 723840, Note_on_c, 6, 60, 90
8, 723916, Note_on_c, 6, 60, 0
8, 723960, Note_on_c, 6, 60, 90
8, 724036, Note_on_c, 6, 60, 0
8, 724080, Note_on_c, 6, 60, 90
8, 724156, Note_on_c, 6, 60, 0
8, 724200, Note_on_c, 6, 60, 90
8, 724276, Note_on_c, 6, 60, 0
8, 724320, Note_on_c, 6, 60, 80
8, 724396, Note_on_c, 6, 60, 0
8, 724440, Note_on_c, 6, 60, 80
8, 724516, Note_on_c, 6, 60, 0
8, 724560, Note_on_c, 6, 60, 80
8, 724636, Note_on_c, 6, 60, 0
8, 724680, Note_on_c, 6, 60, 80
8, 724756, Note_on_c, 6, 60, 0
8, 724800, Note_on_c, 6, 60, 70
8, 724876, Note_on_c, 6, 60, 0
8, 724920, Note_on_c, 6, 60, 70
8, 724996, Note_on_c, 6, 60, 0
8, 725040, Note_on_c, 6, 60, 70
8, 725116, Note_on_c, 6, 60, 0
8, 725160, Note_on_c, 6, 60, 70
8, 725236, Note_on_c, 6, 60, 0
8, 725280, Note_on_c, 6, 60, 70
8, 725356, Note_on_c, 6, 60, 0
8, 725400, Note_on_c, 6, 60, 70
8, 725476, Note_on_c, 6, 60, 0
8, 725520, Note_on_c, 6, 60, 70
8, 725596, Note_on_c, 6, 60, 0
8, 725640, Note_on_c, 6, 60, 70
8, 725716, Note_on_c, 6, 60, 0
8, 725760, Note_on_c, 6, 60, 70
8, 725836, Note_on_c, 6, 60, 0
8, 725880, Note_on_c, 6, 60, 70
8, 725956, Note_on_c, 6, 60, 0
8, 726000, Note_on_c, 6, 60, 70
8, 726076, Note_on_c, 6, 60, 0
8, 726120, Note_on_c, 6, 60, 70
8, 726196, Note_on_c, 6, 60, 0
8, 726240, Note_on_c, 6, 60, 70
8, 726316, Note_on_c, 6, 60, 0
8, 726360, Note_on_c, 6, 60, 70
8, 726436, Note_on_c, 6, 60, 0
8, 726480, Note_on_c, 6, 60, 70
8, 726556, Note_on_c, 6, 60, 0
8, 726600, Note_on_c, 6, 60, 70
8, 726676, Note_on_c, 6, 60, 0
8, 726720, Note_on_c, 6, 60, 70
8, 726960, Note_on_c, 6, 57, 70
8, 727068, Note_on_c, 6, 60, 0
8, 727200, Note_on_c, 6, 60, 70
8, 727284, Note_on_c, 6, 57, 0
8, 727440, Note_on_c, 6, 57, 70
8, 727508, Note_on_c, 6, 60, 0
8, 727604, Note_on_c, 6, 57, 0
8, 727680, Note_on_c, 6, 60, 70
8, 727920, Note_on_c, 6, 57, 70
8, 728012, Note_on_c, 6, 60, 0
8, 728160, Note_on_c, 6, 60, 70
8, 728244, Note_on_c, 6, 57, 0
8, 728400, Note_on_c, 6, 57, 70
8, 728492, Note_on_c, 6, 60, 0
8, 728556, Note_on_c, 6, 57, 0
8, 728640, Note_on_c, 6, 60, 70
8, 728880, Note_on_c, 6, 57, 70
8, 728964, Note_on_c, 6, 60, 0
8, 729120, Note_on_c, 6, 60, 70
8, 729220, Note_on_c, 6, 57, 0
8, 729360, Note_on_c, 6, 57, 70
8, 729444, Note_on_c, 6, 60, 0
8, 729540, Note_on_c, 6, 57, 0
8, 729600, Note_on_c, 6, 60, 70
8, 729840, Note_on_c, 6, 57, 70
8, 729932, Note_on_c, 6, 60, 0
8, 730080, Note_on_c, 6, 60, 70
8, 730164, Note_on_c, 6, 57, 0
8, 730320, Note_on_c, 6, 57, 70
8, 730412, Note_on_c, 6, 60, 0
8, 730476, Note_on_c, 6, 57, 0
8, 730560, Note_on_c, 6, 55, 70
8, 730656, Note_on_c, 6, 55, 0
8, 730800, Note_on_c, 6, 62, 70
8, 730896, Note_on_c, 6, 62, 0
8, 731040, Note_on_c, 6, 59, 70
8, 731136, Note_on_c, 6, 59, 0
8, 731280, Note_on_c, 6, 62, 70
8, 731376, Note_on_c, 6, 62, 0
8, 731520, Note_on_c, 6, 55, 70
8, 731616, Note_on_c, 6, 55, 0
8, 731760, Note_on_c, 6, 62, 70
8, 731856, Note_on_c, 6, 62, 0
8, 732000, Note_on_c, 6, 59, 70
8, 732096, Note_on_c, 6, 59, 0
8, 732240, Note_on_c, 6, 62, 70
8, 732336, Note_on_c, 6, 62, 0
8, 732480, Note_on_c, 6, 55, 70
8, 732576, Note_on_c, 6, 55, 0
8, 732720, Note_on_c, 6, 62, 70
8, 732816, Note_on_c, 6, 62, 0
8, 732960, Note_on_c, 6, 59, 70
8, 733056, Note_on_c, 6, 59, 0
8, 733200, Note_on_c, 6, 62, 70
8, 733296, Note_on_c, 6, 62, 0
8, 733440, Note_on_c, 6, 55, 70
8, 733536, Note_on_c, 6, 55, 0
8, 733680, Note_on_c, 6, 62, 70
8, 733776, Note_on_c, 6, 62, 0
8, 733920, Note_on_c, 6, 59, 70
8, 734016, Note_on_c, 6, 59, 0
8, 734160, Note_on_c, 6, 62, 70
8, 734256, Note_on_c, 6, 62, 0
8, 734400, Note_on_c, 6, 67, 70
8, 735580, Note_on_c, 6, 67, 0
8, 735840, Note_on_c, 6, 72, 79
8, 735960, Note_on_c, 6, 64, 70
8, 736068, Note_on_c, 6, 72, 0
8, 736140, Note_on_c, 6, 64, 0
8, 736320, Note_on_c, 6, 67, 82
8, 736800, Note_on_c, 6, 65, 70
8, 736900, Note_on_c, 6, 67, 0
8, 737092, Note_on_c, 6, 65, 0
8, 738240, Note_on_c, 6, 64, 70
8, 739460, Note_on_c, 6, 64, 0
8, 739680, Note_on_c, 6, 65, 80
8, 739800, Note_on_c, 6, 69, 70
8, 739852, Note_on_c, 6, 65, 0
8, 740004, Note_on_c, 6, 69, 0
8, 740160, Note_on_c, 6, 60, 80
8, 740640, Note_on_c, 6, 59, 70
8, 740724, Note_on_c, 6, 60, 0
8, 740948, Note_on_c, 6, 59, 0
8, 742080, Note_on_c, 6, 60, 70
8, 743520, Note_on_c, 6, 62, 70
8, 743604, Note_on_c, 6, 60, 0
8, 743760, Note_on_c, 6, 64, 70
8, 743852, Note_on_c, 6, 62, 0
8, 743900, Note_on_c, 6, 64, 0
8, 744000, Note_on_c, 6, 65, 70
8, 745440, Note_on_c, 6, 67, 70
8, 745564, Note_on_c, 6, 65, 0
8, 745680, Note_on_c, 6, 69, 70
8, 745772, Note_on_c, 6, 67, 0
8, 745812, Note_on_c, 6, 69, 0
8, 745920, Note_on_c, 6, 67, 70
8, 746400, Note_on_c, 6, 60, 70
8, 746508, Note_on_c, 6, 67, 0
8, 746708, Note_on_c, 6, 60, 0
8, 746880, Note_on_c, 6, 62, 70
8, 747360, Note_on_c, 6, 65, 70
8, 747484, Note_on_c, 6, 62, 0
8, 747652, Note_on_c, 6, 65, 0
8, 747840, Note_on_c, 6, 63, 70
8, 748320, Note_on_c, 6, 64, 70
8, 748460, Note_on_c, 6, 63, 0
8, 748628, Note_on_c, 6, 64, 0
8, 749760, Note_on_c, 6, 60, 70
8, 751200, Note_on_c, 6, 62, 70
8, 751332, Note_on_c, 6, 60, 0
8, 751440, Note_on_c, 6, 64, 70
8, 751516, Note_on_c, 6, 62, 0
8, 751596, Note_on_c, 6, 64, 0
8, 751680, Note_on_c, 6, 65, 70
8, 752044, Note_on_c, 6, 65, 0
8, 752160, Note_on_c, 6, 65, 70
8, 752516, Note_on_c, 6, 65, 0
8, 752640, Note_on_c, 6, 65, 70
8, 753120, Note_on_c, 6, 67, 70
8, 753244, Note_on_c, 6, 65, 0
8, 753360, Note_on_c, 6, 69, 70
8, 753436, Note_on_c, 6, 67, 0
8, 753532, Note_on_c, 6, 69, 0
8, 753600, Note_on_c, 6, 67, 70
8, 753840, Note_on_c, 6, 69, 70
8, 753908, Note_on_c, 6, 67, 0
8, 754080, Note_on_c, 6, 71, 70
8, 754148, Note_on_c, 6, 69, 0
8, 754320, Note_on_c, 6, 72, 70
8, 754388, Note_on_c, 6, 71, 0
8, 754560, Note_on_c, 6, 71, 70
8, 754628, Note_on_c, 6, 72, 0
8, 754800, Note_on_c, 6, 72, 70
8, 754868, Note_on_c, 6, 71, 0
8, 755040, Note_on_c, 6, 71, 70
8, 755108, Note_on_c, 6, 72, 0
8, 755280, Note_on_c, 6, 72, 70
8, 755348, Note_on_c, 6, 71, 0
8, 755436, Note_on_c, 6, 72, 0
8, 755520, Note_on_c, 6, 68, 70
8, 755760, Note_on_c, 6, 69, 70
8, 755828, Note_on_c, 6, 68, 0
8, 756000, Note_on_c, 6, 68, 70
8, 756068, Note_on_c, 6, 69, 0
8, 756240, Note_on_c, 6, 69, 70
8, 756308, Note_on_c, 6, 68, 0
8, 756404, Note_on_c, 6, 69, 0
8, 756480, Note_on_c, 6, 64, 70
8, 756720, Note_on_c, 6, 65, 70
8, 756788, Note_on_c, 6, 64, 0
8, 756960, Note_on_c, 6, 64, 70
8, 757028, Note_on_c, 6, 65, 0
8, 757200, Note_on_c, 6, 65, 70
8, 757268, Note_on_c, 6, 64, 0
8, 757372, Note_on_c, 6, 65, 0
8, 757440, Note_on_c, 6, 64, 70
8, 757680, Note_on_c, 6, 60, 70
8, 757748, Note_on_c, 6, 64, 0
8, 757920, Note_on_c, 6, 64, 70
8, 757988, Note_on_c, 6, 60, 0
8, 758160, Note_on_c, 6, 60, 70
8, 758228, Note_on_c, 6, 64, 0
8, 758400, Note_on_c, 6, 64, 70
8, 758468, Note_on_c, 6, 60, 0
8, 758524, Note_on_c, 6, 64, 0
8, 758640, Note_on_c, 6, 64, 70
8, 758880, Note_on_c, 6, 65, 70
8, 758940, Note_on_c, 6, 64, 0
8, 759120, Note_on_c, 6, 67, 70
8, 759172, Note_on_c, 6, 65, 0
8, 759276, Note_on_c, 6, 67, 0
8, 759360, Note_on_c, 6, 67, 70
8, 759600, Note_on_c, 6, 65, 70
8, 759668, Note_on_c, 6, 67, 0
8, 759840, Note_on_c, 6, 64, 70
8, 759908, Note_on_c, 6, 65, 0
8, 760080, Note_on_c, 6, 67, 70
8, 760148, Note_on_c, 6, 64, 0
8, 760320, Note_on_c, 6, 64, 70
8, 760388, Note_on_c, 6, 67, 0
8, 760560, Note_on_c, 6, 67, 70
8, 760628, Note_on_c, 6, 64, 0
8, 760800, Note_on_c, 6, 65, 70
8, 760868, Note_on_c, 6, 67, 0
8, 761040, Note_on_c, 6, 62, 70
8, 761108, Note_on_c, 6, 65, 0
8, 761212, Note_on_c, 6, 62, 0
8, 761280, Note_on_c, 6, 60, 70
8, 761628, Note_on_c, 6, 60, 0
8, 766560, Note_on_c, 6, 74, 105
8, 766560, Note_on_c, 6, 77, 105
8, 767040, Note_on_c, 6, 77, 0
8, 767040, Note_on_c, 6, 74, 0
8, 767520, Note_on_c, 6, 72, 105
8, 767520, Note_on_c, 6, 76, 105
8, 768000, Note_on_c, 6, 76, 0
8, 768000, Note_on_c, 6, 72, 0
8, 768480, Note_on_c, 6, 67, 105
8, 768480, Note_on_c, 6, 74, 105
8, 768916, Note_on_c, 6, 74, 0
8, 768924, Note_on_c, 6, 67, 0
8, 768960, Note_on_c, 6, 64, 105
8, 768960, Note_on_c, 6, 72, 105
8, 769324, Note_on_c, 6, 72, 0
8, 769324, Note_on_c, 6, 64, 0
8, 769352, Note_on_c, 6, 67, 105
8, 769392, Note_on_c, 6, 72, 112
8, 769440, Note_on_c, 6, 76, 115
8, 769540, Note_on_c, 6, 67, 0
8, 769920, Note_on_c, 6, 76, 0
8, 769932, Note_on_c, 6, 72, 0
8, 770400, Note_on_c, 6, 74, 105
8, 770400, Note_on_c, 6, 77, 105
8, 770880, Note_on_c, 6, 77, 0
8, 770880, Note_on_c, 6, 74, 0
8, 771360, Note_on_c, 6, 72, 105
8, 771360, Note_on_c, 6, 76, 105
8, 771840, Note_on_c, 6, 76, 0
8, 771840, Note_on_c, 6, 72, 0
8, 772320, Note_on_c, 6, 67, 105
8, 772320, Note_on_c, 6, 74, 105
8, 772732, Note_on_c, 6, 74, 0
8, 772748, Note_on_c, 6, 67, 0
8, 772800, Note_on_c, 6, 64, 105
8, 772800, Note_on_c, 6, 72, 105
8, 773156, Note_on_c, 6, 72, 0
8, 773156, Note_on_c, 6, 64, 0
8, 773192, Note_on_c, 6, 64, 107
8, 773232, Note_on_c, 6, 72, 111
8, 773280, Note_on_c, 6, 79, 116
8, 773380, Note_on_c, 6, 64, 0
8, 773760, Note_on_c, 6, 79, 0
8, 773772, Note_on_c, 6, 72, 0
8, 774152, Note_on_c, 6, 64, 106
8, 774200, Note_on_c, 6, 72, 111
8, 774240, Note_on_c, 6, 81, 116
8, 774340, Note_on_c, 6, 64, 0
8, 774720, Note_on_c, 6, 81, 0
8, 774724, Note_on_c, 6, 72, 0
8, 775120, Note_on_c, 6, 62, 103
8, 775160, Note_on_c, 6, 72, 107
8, 775200, Note_on_c, 6, 81, 112
8, 775324, Note_on_c, 6, 62, 0
8, 775680, Note_on_c, 6, 81, 0
8, 775692, Note_on_c, 6, 72, 0
8, 776064, Note_on_c, 6, 62, 105
8, 776112, Note_on_c, 6, 71, 112
8, 776160, Note_on_c, 6, 79, 119
8, 776244, Note_on_c, 6, 62, 0
8, 776484, Note_on_c, 6, 71, 0
8, 776492, Note_on_c, 6, 79, 0
8, 776536, Note_on_c, 6, 64, 107
8, 776592, Note_on_c, 6, 72, 116
8, 776640, Note_on_c, 6, 79, 122
8, 776724, Note_on_c, 6, 64, 0
8, 777500, Note_on_c, 6, 72, 0
8, 777556, Note_on_c, 6, 79, 0
8, 784320, Note_on_c, 6, 64, 92
8, 784416, Note_on_c, 6, 64, 0
8, 784560, Note_on_c, 6, 60, 72
8, 784656, Note_on_c, 6, 60, 0
8, 784800, Note_on_c, 6, 64, 73
8, 784896, Note_on_c, 6, 64, 0
8, 785040, Note_on_c, 6, 65, 74
8, 785136, Note_on_c, 6, 65, 0
8, 785280, Note_on_c, 6, 67, 95
8, 785376, Note_on_c, 6, 67, 0
8, 785520, Note_on_c, 6, 64, 76
8, 785616, Note_on_c, 6, 64, 0
8, 785760, Note_on_c, 6, 65, 77
8, 785856, Note_on_c, 6, 65, 0
8, 786000, Note_on_c, 6, 62, 78
8, 786096, Note_on_c, 6, 62, 0
8, 786240, Note_on_c, 6, 64, 98
8, 786336, Note_on_c, 6, 64, 0
8, 786480, Note_on_c, 6, 60, 79
8, 786576, Note_on_c, 6, 60, 0
8, 786720, Note_on_c, 6, 64, 80
8, 786816, Note_on_c, 6, 64, 0
8, 786960, Note_on_c, 6, 65, 81
8, 787056, Note_on_c, 6, 65, 0
8, 787200, Note_on_c, 6, 67, 98
8, 787296, Note_on_c, 6, 67, 0
8, 787440, Note_on_c, 6, 64, 83
8, 787536, Note_on_c, 6, 64, 0
8, 787680, Note_on_c, 6, 65, 84
8, 787776, Note_on_c, 6, 65, 0
8, 787920, Note_on_c, 6, 62, 84
8, 788016, Note_on_c, 6, 62, 0
8, 788160, Note_on_c, 6, 64, 100
8, 788256, Note_on_c, 6, 64, 0
8, 788400, Note_on_c, 6, 60, 86
8, 788496, Note_on_c, 6, 60, 0
8, 788640, Note_on_c, 6, 64, 87
8, 788736, Note_on_c, 6, 64, 0
8, 788880, Note_on_c, 6, 65, 88
8, 788976, Note_on_c, 6, 65, 0
8, 789120, Note_on_c, 6, 67, 96
8, 789216, Note_on_c, 6, 67, 0
8, 789360, Note_on_c, 6, 64, 90
8, 789456, Note_on_c, 6, 64, 0
8, 789600, Note_on_c, 6, 65, 91
8, 789696, Note_on_c, 6, 65, 0
8, 789840, Note_on_c, 6, 62, 91
8, 789936, Note_on_c, 6, 62, 0
8, 790080, Note_on_c, 6, 60, 92
8, 790176, Note_on_c, 6, 60, 0
8, 790320, Note_on_c, 6, 67, 93
8, 790416, Note_on_c, 6, 67, 0
8, 790560, Note_on_c, 6, 64, 92
8, 790656, Note_on_c, 6, 64, 0
8, 790800, Note_on_c, 6, 67, 91
8, 790896, Note_on_c, 6, 67, 0
8, 791040, Note_on_c, 6, 64, 90
8, 791520, Note_on_c, 6, 64, 0
8, 827528, Note_on_c, 6, 55, 105
8, 827932, Note_on_c, 6, 55, 0
8, 832320, Note_on_c, 6, 60, 70
8, 832752, Note_on_c, 6, 60, 0
8, 832800, Note_on_c, 6, 60, 70
8, 833232, Note_on_c, 6, 60, 0
8, 833280, Note_on_c, 6, 60, 70
8, 833712, Note_on_c, 6, 60, 0
8, 833760, Note_on_c, 6, 60, 70
8, 834192, Note_on_c, 6, 60, 0
8, 834240, Note_on_c, 6, 60, 70
8, 836092, Note_on_c, 6, 60, 0
8, 836160, Note_on_c, 6, 55, 70
8, 836592, Note_on_c, 6, 55, 0
8, 836640, Note_on_c, 6, 55, 70
8, 837072, Note_on_c, 6, 55, 0
8, 837120, Note_on_c, 6, 55, 70
8, 837552, Note_on_c, 6, 55, 0
8, 837600, Note_on_c, 6, 55, 70
8, 838032, Note_on_c, 6, 55, 0
8, 838080, Note_on_c, 6, 60, 70
8, 840356, Note_on_c, 6, 60, 0
8, 840480, Note_on_c, 6, 60, 70
8, 840876, Note_on_c, 6, 60, 0
8, 840960, Note_on_c, 6, 60, 70
8, 841356, Note_on_c, 6, 60, 0
8, 841440, Note_on_c, 6, 60, 70
8, 841852, Note_on_c, 6, 60, 0
8, 841920, Note_on_c, 6, 60, 70
8, 843840, Note_on_c, 6, 60, 0
8, 843840, Note_on_c, 6, 55, 70
8, 844244, Note_on_c, 6, 55, 0
8, 844320, Note_on_c, 6, 55, 70
8, 844700, Note_on_c, 6, 55, 0
8, 844800, Note_on_c, 6, 55, 70
8, 845196, Note_on_c, 6, 55, 0
8, 845280, Note_on_c, 6, 55, 70
8, 845684, Note_on_c, 6, 55, 0
8, 845760, Note_on_c, 6, 60, 70
8, 846372, Note_on_c, 6, 60, 0
8, 846480, Note_on_c, 6, 60, 70
8, 846652, Note_on_c, 6, 60, 0
8, 846720, Note_on_c, 6, 62, 70
8, 847356, Note_on_c, 6, 62, 0
8, 847440, Note_on_c, 6, 62, 70
8, 847628, Note_on_c, 6, 62, 0
8, 847680, Note_on_c, 6, 64, 70
8, 848308, Note_on_c, 6, 64, 0
8, 848400, Note_on_c, 6, 64, 70
8, 848596, Note_on_c, 6, 64, 0
8, 848640, Note_on_c, 6, 65, 70
8, 849284, Note_on_c, 6, 65, 0
8, 849360, Note_on_c, 6, 65, 70
8, 849540, Note_on_c, 6, 65, 0
8, 849600, Note_on_c, 6, 62, 70
8, 850028, Note_on_c, 6, 62, 0
8, 850080, Note_on_c, 6, 60, 70
8, 850492, Note_on_c, 6, 60, 0
8, 850560, Note_on_c, 6, 59, 70
8, 851040, Note_on_c, 6, 60, 70
8, 851124, Note_on_c, 6, 59, 0
8, 851460, Note_on_c, 6, 60, 0
8, 851760, Note_on_c, 6, 67, 70
8, 852000, Note_on_c, 6, 66, 70
8, 852052, Note_on_c, 6, 67, 0
8, 852240, Note_on_c, 6, 67, 70
8, 852292, Note_on_c, 6, 66, 0
8, 852412, Note_on_c, 6, 67, 0
8, 852480, Note_on_c, 6, 66, 70
8, 852720, Note_on_c, 6, 67, 70
8, 852788, Note_on_c, 6, 66, 0
8, 852876, Note_on_c, 6, 67, 0
8, 852960, Note_on_c, 6, 62, 70
8, 853056, Note_on_c, 6, 62, 0
8, 853200, Note_on_c, 6, 59, 70
8, 853296, Note_on_c, 6, 59, 0
8, 853440, Note_on_c, 6, 55, 70
8, 853920, Note_on_c, 6, 55, 0
8, 868800, Note_on_c, 6, 62, 70
8, 876960, Note_on_c, 6, 62, 0
8, 877440, Note_on_c, 6, 76, 70
8, 878400, Note_on_c, 6, 76, 0
8, 878400, Note_on_c, 6, 74, 70
8, 879360, Note_on_c, 6, 74, 0
8, 879360, Note_on_c, 6, 72, 70
8, 880320, Note_on_c, 6, 72, 0
8, 880320, Note_on_c, 6, 71, 70
8, 881280, Note_on_c, 6, 71, 0
8, 881280, Note_on_c, 6, 69, 70
8, 882240, Note_on_c, 6, 69, 0
8, 882240, Note_on_c, 6, 67, 90
8, 882240, Note_on_c, 6, 69, 90
8, 883200, Note_on_c, 6, 69, 0
8, 883200, Note_on_c, 6, 67, 0
8, 884160, Note_on_c, 6, 66, 90
8, 884160, Note_on_c, 6, 69, 90
8, 885120, Note_on_c, 6, 69, 0
8, 885120, Note_on_c, 6, 66, 0
8, 886080, Note_on_c, 6, 67, 90
8, 886080, Note_on_c, 6, 69, 90
8, 887040, Note_on_c, 6, 69, 0
8, 887040, Note_on_c, 6, 67, 0
8, 888000, Note_on_c, 6, 66, 70
8, 888000, Note_on_c, 6, 69, 70
8, 888480, Note_on_c, 6, 69, 0
8, 888480, Note_on_c, 6, 66, 0
8, 901680, Note_on_c, 6, 74, 70
8, 901920, Note_on_c, 6, 74, 0
8, 901920, Note_on_c, 6, 73, 70
8, 902160, Note_on_c, 6, 73, 0
8, 902160, Note_on_c, 6, 74, 70
8, 902400, Note_on_c, 6, 74, 0
8, 902400, Note_on_c, 6, 73, 70
8, 902640, Note_on_c, 6, 73, 0
8, 902640, Note_on_c, 6, 74, 70
8, 902880, Note_on_c, 6, 74, 0
8, 902880, Note_on_c, 6, 73, 70
8, 903120, Note_on_c, 6, 73, 0
8, 903120, Note_on_c, 6, 74, 70
8, 903360, Note_on_c, 6, 74, 0
8, 903360, Note_on_c, 6, 62, 70
8, 909120, Note_on_c, 6, 62, 0
8, 909360, Note_on_c, 6, 79, 70
8, 909600, Note_on_c, 6, 79, 0
8, 909600, Note_on_c, 6, 78, 70
8, 909840, Note_on_c, 6, 78, 0
8, 909840, Note_on_c, 6, 79, 70
8, 910080, Note_on_c, 6, 79, 0
8, 910080, Note_on_c, 6, 78, 70
8, 910320, Note_on_c, 6, 78, 0
8, 910320, Note_on_c, 6, 79, 70
8, 910560, Note_on_c, 6, 79, 0
8, 910560, Note_on_c, 6, 78, 70
8, 910800, Note_on_c, 6, 78, 0
8, 910800, Note_on_c, 6, 79, 70
8, 911040, Note_on_c, 6, 79, 0
8, 911040, Note_on_c, 6, 67, 70
8, 912960, Note_on_c, 6, 67, 0
8, 912960, Note_on_c, 6, 64, 70
8, 913200, Note_on_c, 6, 64, 0
8, 913200, Note_on_c, 6, 68, 70
8, 913440, Note_on_c, 6, 68, 0
8, 913440, Note_on_c, 6, 69, 70
8, 913680, Note_on_c, 6, 69, 0
8, 913680, Note_on_c, 6, 72, 70
8, 913920, Note_on_c, 6, 72, 0
8, 913920, Note_on_c, 6, 76, 70
8, 914400, Note_on_c, 6, 76, 0
8, 914880, Note_on_c, 6, 62, 70
8, 915120, Note_on_c, 6, 62, 0
8, 915120, Note_on_c, 6, 66, 70
8, 915360, Note_on_c, 6, 66, 0
8, 915360, Note_on_c, 6, 67, 70
8, 915600, Note_on_c, 6, 67, 0
8, 915600, Note_on_c, 6, 71, 70
8, 915840, Note_on_c, 6, 71, 0
8, 915840, Note_on_c, 6, 74, 70
8, 916320, Note_on_c, 6, 74, 0
8, 916800, Note_on_c, 6, 72, 70
8, 917040, Note_on_c, 6, 72, 0
8, 917040, Note_on_c, 6, 69, 70
8, 917280, Note_on_c, 6, 69, 0
8, 917280, Note_on_c, 6, 72, 70
8, 917520, Note_on_c, 6, 72, 0
8, 917520, Note_on_c, 6, 69, 70
8, 917760, Note_on_c, 6, 69, 0
8, 917760, Note_on_c, 6, 66, 70
8, 918240, Note_on_c, 6, 66, 0
8, 918240, Note_on_c, 6, 67, 70
8, 918480, Note_on_c, 6, 67, 0
8, 918480, Note_on_c, 6, 69, 70
8, 918720, Note_on_c, 6, 69, 0
8, 918720, Note_on_c, 6, 71, 70
8, 919200, Note_on_c, 6, 71, 0
8, 919200, Note_on_c, 6, 71, 70
8, 920160, Note_on_c, 6, 71, 0
8, 920160, Note_on_c, 6, 71, 70
8, 921120, Note_on_c, 6, 71, 0
8, 921600, Note_on_c, 6, 67, 70
8, 922080, Note_on_c, 6, 67, 0
8, 922560, Note_on_c, 6, 67, 70
8, 923040, Note_on_c, 6, 67, 0
8, 923040, Note_on_c, 6, 67, 70
8, 923520, Note_on_c, 6, 67, 0
8, 923520, Note_on_c, 6, 66, 70
8, 924000, Note_on_c, 6, 66, 0
8, 924000, Note_on_c, 6, 66, 70
8, 924480, Note_on_c, 6, 66, 0
8, 924480, Note_on_c, 6, 67, 70
8, 924720, Note_on_c, 6, 67, 0
8, 924720, Note_on_c, 6, 71, 70
8, 924960, Note_on_c, 6, 71, 0
8, 924960, Note_on_c, 6, 69, 70
8, 925200, Note_on_c, 6, 69, 0
8, 925200, Note_on_c, 6, 67, 70
8, 925440, Note_on_c, 6, 67, 0
8, 925440, Note_on_c, 6, 66, 70
8, 925680, Note_on_c, 6, 66, 0
8, 925680, Note_on_c, 6, 64, 70
8, 925920, Note_on_c, 6, 64, 0
8, 925920, Note_on_c, 6, 62, 70
8, 926160, Note_on_c, 6, 62, 0
8, 926160, Note_on_c, 6, 60, 70
8, 926400, Note_on_c, 6, 60, 0
8, 926400, Note_on_c, 6, 59, 70
8, 926880, Note_on_c, 6, 59, 0
8, 941760, Note_on_c, 6, 62, 70
8, 942720, Note_on_c, 6, 62, 0
8, 943200, Note_on_c, 6, 74, 70
8, 943680, Note_on_c, 6, 74, 0
8, 943680, Note_on_c, 6, 72, 70
8, 944160, Note_on_c, 6, 72, 0
8, 944160, Note_on_c, 6, 69, 70
8, 944640, Note_on_c, 6, 69, 0
8, 944640, Note_on_c, 6, 64, 70
8, 945120, Note_on_c, 6, 64, 0
8, 945120, Note_on_c, 6, 60, 70
8, 945600, Note_on_c, 6, 60, 0
8, 945600, Note_on_c, 6, 71, 70
8, 946080, Note_on_c, 6, 71, 0
8, 946080, Note_on_c, 6, 67, 70
8, 946560, Note_on_c, 6, 67, 0
8, 946560, Note_on_c, 6, 62, 70
8, 947040, Note_on_c, 6, 62, 0
8, 947040, Note_on_c, 6, 59, 70
8, 947520, Note_on_c, 6, 59, 0
8, 947520, Note_on_c, 6, 69, 70
8, 948000, Note_on_c, 6, 69, 0
8, 948000, Note_on_c, 6, 66, 70
8, 948480, Note_on_c, 6, 66, 0
8, 948480, Note_on_c, 6, 60, 70
8, 948960, Note_on_c, 6, 60, 0
8, 948960, Note_on_c, 6, 57, 70
8, 949440, Note_on_c, 6, 57, 0
8, 949440, Note_on_c, 6, 62, 70
8, 949920, Note_on_c, 6, 62, 0
8, 951360, Note_on_c, 6, 55, 70
8, 951360, Note_on_c, 6, 62, 70
8, 951840, Note_on_c, 6, 62, 0
8, 951840, Note_on_c, 6, 55, 0
8, 953760, Note_on_c, 6, 81, 70
8, 954240, Note_on_c, 6, 81, 0
8, 954720, Note_on_c, 6, 69, 70
8, 954720, Note_on_c, 6, 78, 70
8, 955200, Note_on_c, 6, 78, 0
8, 955200, Note_on_c, 6, 69, 0
8, 955200, Note_on_c, 6, 55, 70
8, 955200, Note_on_c, 6, 62, 70
8, 955680, Note_on_c, 6, 62, 0
8, 955680, Note_on_c, 6, 55, 0
8, 960000, Note_on_c, 6, 62, 70
8, 960000, Note_on_c, 6, 72, 70
8, 960480, Note_on_c, 6, 72, 0
8, 960480, Note_on_c, 6, 62, 0
8, 960960, Note_on_c, 6, 62, 70
8, 960960, Note_on_c, 6, 74, 70
8, 961440, Note_on_c, 6, 74, 0
8, 961440, Note_on_c, 6, 62, 0
8, 961920, Note_on_c, 6, 62, 70
8, 961920, Note_on_c, 6, 72, 70
8, 962400, Note_on_c, 6, 72, 0
8, 962400, Note_on_c, 6, 62, 0
8, 962880, Note_on_c, 6, 62, 70
8, 962880, Note_on_c, 6, 71, 70
8, 963360, Note_on_c, 6, 71, 0
8, 963360, Note_on_c, 6, 62, 0
8, 963840, Note_on_c, 6, 62, 70
8, 963840, Note_on_c, 6, 72, 70
8, 964320, Note_on_c, 6, 72, 0
8, 964320, Note_on_c, 6, 62, 0
8, 964800, Note_on_c, 6, 62, 70
8, 964800, Note_on_c, 6, 74, 70
8, 965280, Note_on_c, 6, 74, 0
8, 965280, Note_on_c, 6, 62, 0
8, 965760, Note_on_c, 6, 62, 70
8, 965760, Note_on_c, 6, 72, 70
8, 966240, Note_on_c, 6, 72, 0
8, 966240, Note_on_c, 6, 62, 0
8, 966720, Note_on_c, 6, 62, 70
8, 966720, Note_on_c, 6, 71, 70
8, 967200, Note_on_c, 6, 71, 0
8, 967200, Note_on_c, 6, 62, 0
8, 974880, Note_on_c, 6, 67, 70
8, 975360, Note_on_c, 6, 67, 0
8, 975840, Note_on_c, 6, 64, 70
8, 976320, Note_on_c, 6, 64, 0
8, 976800, Note_on_c, 6, 60, 70
8, 977280, Note_on_c, 6, 60, 0
8, 977760, Note_on_c, 6, 57, 70
8, 978240, Note_on_c, 6, 57, 0
8, 978240, Note_on_c, 6, 69, 90
8, 979200, Note_on_c, 6, 69, 0
8, 979200, Note_on_c, 6, 67, 70
8, 979680, Note_on_c, 6, 67, 0
8, 982080, Note_on_c, 6, 69, 90
8, 983040, Note_on_c, 6, 69, 0
8, 983040, Note_on_c, 6, 67, 70
8, 983520, Note_on_c, 6, 67, 0
8, 985920, Note_on_c, 6, 59, 70
8, 986160, Note_on_c, 6, 59, 0
8, 986160, Note_on_c, 6, 62, 70
8, 986400, Note_on_c, 6, 62, 0
8, 986400, Note_on_c, 6, 59, 70
8, 986640, Note_on_c, 6, 59, 0
8, 986640, Note_on_c, 6, 62, 70
8, 986880, Note_on_c, 6, 62, 0
8, 986880, Note_on_c, 6, 59, 70
8, 987120, Note_on_c, 6, 59, 0
8, 987120, Note_on_c, 6, 62, 70
8, 987360, Note_on_c, 6, 62, 0
8, 987360, Note_on_c, 6, 60, 70
8, 987600, Note_on_c, 6, 60, 0
8, 987600, Note_on_c, 6, 62, 70
8, 987840, Note_on_c, 6, 62, 0
8, 987840, Note_on_c, 6, 59, 70
8, 988080, Note_on_c, 6, 59, 0
8, 988080, Note_on_c, 6, 62, 70
8, 988320, Note_on_c, 6, 62, 0
8, 988320, Note_on_c, 6, 60, 70
8, 988560, Note_on_c, 6, 60, 0
8, 988560, Note_on_c, 6, 62, 70
8, 988800, Note_on_c, 6, 62, 0
8, 988800, Note_on_c, 6, 59, 70
8, 989040, Note_on_c, 6, 59, 0
8, 989040, Note_on_c, 6, 62, 70
8, 989280, Note_on_c, 6, 62, 0
8, 989280, Note_on_c, 6, 60, 70
8, 989520, Note_on_c, 6, 60, 0
8, 989520, Note_on_c, 6, 62, 70
8, 989760, Note_on_c, 6, 62, 0
8, 989760, Note_on_c, 6, 59, 70
8, 990000, Note_on_c, 6, 59, 0
8, 990000, Note_on_c, 6, 62, 70
8, 990240, Note_on_c, 6, 62, 0
8, 990240, Note_on_c, 6, 59, 70
8, 990480, Note_on_c, 6, 59, 0
8, 990480, Note_on_c, 6, 62, 70
8, 990720, Note_on_c, 6, 62, 0
8, 990720, Note_on_c, 6, 59, 70
8, 990960, Note_on_c, 6, 59, 0
8, 990960, Note_on_c, 6, 62, 70
8, 991200, Note_on_c, 6, 62, 0
8, 991200, Note_on_c, 6, 59, 70
8, 991440, Note_on_c, 6, 59, 0
8, 991440, Note_on_c, 6, 62, 70
8, 991680, Note_on_c, 6, 62, 0
8, 991680, Note_on_c, 6, 59, 70
8, 991920, Note_on_c, 6, 59, 0
8, 991920, Note_on_c, 6, 62, 70
8, 992160, Note_on_c, 6, 62, 0
8, 992160, Note_on_c, 6, 59, 70
8, 992400, Note_on_c, 6, 59, 0
8, 992400, Note_on_c, 6, 62, 70
8, 992640, Note_on_c, 6, 62, 0
8, 992640, Note_on_c, 6, 60, 70
8, 992880, Note_on_c, 6, 60, 0
8, 992880, Note_on_c, 6, 62, 70
8, 993120, Note_on_c, 6, 62, 0
8, 993120, Note_on_c, 6, 60, 70
8, 993360, Note_on_c, 6, 60, 0
8, 993360, Note_on_c, 6, 62, 70
8, 993600, Note_on_c, 6, 62, 0
8, 993600, Note_on_c, 6, 59, 70
8, 994560, Note_on_c, 6, 59, 0
8, 995040, Note_on_c, 6, 62, 70
8, 995040, Note_on_c, 6, 72, 70
8, 995520, Note_on_c, 6, 72, 0
8, 995520, Note_on_c, 6, 62, 0
8, 995520, Note_on_c, 6, 62, 70
8, 995520, Note_on_c, 6, 71, 70
8, 996000, Note_on_c, 6, 71, 0
8, 996000, Note_on_c, 6, 62, 0
8, 996000, Note_on_c, 6, 62, 70
8, 996000, Note_on_c, 6, 72, 70
8, 996480, Note_on_c, 6, 72, 0
8, 996480, Note_on_c, 6, 62, 0
8, 996480, Note_on_c, 6, 62, 70
8, 996480, Note_on_c, 6, 71, 70
8, 996960, Note_on_c, 6, 71, 0
8, 996960, Note_on_c, 6, 62, 0
8, 996960, Note_on_c, 6, 62, 70
8, 996960, Note_on_c, 6, 72, 70
8, 997440, Note_on_c, 6, 72, 0
8, 997440, Note_on_c, 6, 62, 0
8, 997440, Note_on_c, 6, 62, 70
8, 997440, Note_on_c, 6, 71, 70
8, 997920, Note_on_c, 6, 71, 0
8, 997920, Note_on_c, 6, 62, 0
8, 1006080, Note_on_c, 6, 69, 70
8, 1007040, Note_on_c, 6, 69, 0
8, 1007040, Note_on_c, 6, 67, 70
8, 1008000, Note_on_c, 6, 67, 0
8, 1008000, Note_on_c, 6, 60, 70
8, 1008960, Note_on_c, 6, 60, 0
8, 1008960, Note_on_c, 6, 59, 70
8, 1009920, Note_on_c, 6, 59, 0
8, 1009920, Note_on_c, 6, 69, 70
8, 1010880, Note_on_c, 6, 69, 0
8, 1010880, Note_on_c, 6, 67, 70
8, 1011840, Note_on_c, 6, 67, 0
8, 1011840, Note_on_c, 6, 60, 70
8, 1012800, Note_on_c, 6, 60, 0
8, 1012800, Note_on_c, 6, 59, 70
8, 1013280, Note_on_c, 6, 59, 0
8, 1021440, Note_on_c, 6, 59, 70
8, 1021680, Note_on_c, 6, 59, 0
8, 1021680, Note_on_c, 6, 62, 70
8, 1021920, Note_on_c, 6, 62, 0
8, 1021920, Note_on_c, 6, 60, 70
8, 1022160, Note_on_c, 6, 60, 0
8, 1022160, Note_on_c, 6, 64, 70
8, 1022400, Note_on_c, 6, 64, 0
8, 1022400, Note_on_c, 6, 62, 70
8, 1022880, Note_on_c, 6, 62, 0
8, 1027200, Note_on_c, 6, 59, 70
8, 1027440, Note_on_c, 6, 59, 0
8, 1027440, Note_on_c, 6, 62, 70
8, 1027680, Note_on_c, 6, 62, 0
8, 1027680, Note_on_c, 6, 61, 70
8, 1027920, Note_on_c, 6, 61, 0
8, 1027920, Note_on_c, 6, 64, 70
8, 1028160, Note_on_c, 6, 64, 0
8, 1028160, Note_on_c, 6, 62, 70
8, 1028640, Note_on_c, 6, 62, 0
8, 1044480, Note_on_c, 6, 67, 105
8, 1044576, Note_on_c, 6, 67, 0
8, 1044720, Note_on_c, 6, 65, 105
8, 1044816, Note_on_c, 6, 65, 0
8, 1044960, Note_on_c, 6, 64, 105
8, 1045056, Note_on_c, 6, 64, 0
8, 1045200, Note_on_c, 6, 62, 105
8, 1045296, Note_on_c, 6, 62, 0
8, 1045440, Note_on_c, 6, 60, 105
8, 1045536, Note_on_c, 6, 60, 0
8, 1045680, Note_on_c, 6, 55, 105
8, 1045776, Note_on_c, 6, 55, 0
8, 1045920, Note_on_c, 6, 60, 105
8, 1046016, Note_on_c, 6, 60, 0
8, 1046160, Note_on_c, 6, 55, 105
8, 1046256, Note_on_c, 6, 55, 0
8, 1046400, Note_on_c, 6, 62, 105
8, 1046496, Note_on_c, 6, 62, 0
8, 1046640, Note_on_c, 6, 55, 105
8, 1046736, Note_on_c, 6, 55, 0
8, 1046880, Note_on_c, 6, 62, 105
8, 1046976, Note_on_c, 6, 62, 0
8, 1047120, Note_on_c, 6, 55, 105
8, 1047216, Note_on_c, 6, 55, 0
8, 1047360, Note_on_c, 6, 64, 105
8, 1047456, Note_on_c, 6, 64, 0
8, 1047600, Note_on_c, 6, 60, 105
8, 1047696, Note_on_c, 6, 60, 0
8, 1047840, Note_on_c, 6, 64, 105
8, 1047936, Note_on_c, 6, 64, 0
8, 1048080, Note_on_c, 6, 67, 105
8, 1048176, Note_on_c, 6, 67, 0
8, 1048320, Note_on_c, 6, 64, 105
8, 1048416, Note_on_c, 6, 64, 0
8, 1048560, Note_on_c, 6, 60, 105
8, 1048656, Note_on_c, 6, 60, 0
8, 1048800, Note_on_c, 6, 64, 105
8, 1048896, Note_on_c, 6, 64, 0
8, 1049040, Note_on_c, 6, 60, 105
8, 1049136, Note_on_c, 6, 60, 0
8, 1049280, Note_on_c, 6, 65, 105
8, 1049376, Note_on_c, 6, 65, 0
8, 1049520, Note_on_c, 6, 60, 105
8, 1049616, Note_on_c, 6, 60, 0
8, 1049760, Note_on_c, 6, 64, 105
8, 1049856, Note_on_c, 6, 64, 0
8, 1050000, Note_on_c, 6, 60, 105
8, 1050096, Note_on_c, 6, 60, 0
8, 1050240, Note_on_c, 6, 64, 105
8, 1050336, Note_on_c, 6, 64, 0
8, 1050480, Note_on_c, 6, 60, 105
8, 1050576, Note_on_c, 6, 60, 0
8, 1050720, Note_on_c, 6, 64, 105
8, 1050816, Note_on_c, 6, 64, 0
8, 1050960, Note_on_c, 6, 60, 105
8, 1051056, Note_on_c, 6, 60, 0
8, 1051200, Note_on_c, 6, 65, 105
8, 1051296, Note_on_c, 6, 65, 0
8, 1051440, Note_on_c, 6, 60, 105
8, 1051536, Note_on_c, 6, 60, 0
8, 1051680, Note_on_c, 6, 64, 105
8, 1051776, Note_on_c, 6, 64, 0
8, 1051920, Note_on_c, 6, 60, 105
8, 1052016, Note_on_c, 6, 60, 0
8, 1052160, Note_on_c, 6, 64, 105
8, 1052256, Note_on_c, 6, 64, 0
8, 1052400, Note_on_c, 6, 65, 105
8, 1052496, Note_on_c, 6, 65, 0
8, 1052640, Note_on_c, 6, 67, 105
8, 1052736, Note_on_c, 6, 67, 0
8, 1052880, Note_on_c, 6, 64, 105
8, 1052976, Note_on_c, 6, 64, 0
8, 1053120, Note_on_c, 6, 60, 105
8, 1053360, Note_on_c, 6, 60, 0
8, 1053360, Note_on_c, 6, 64, 105
8, 1053600, Note_on_c, 6, 64, 0
8, 1053600, Note_on_c, 6, 67, 105
8, 1053840, Note_on_c, 6, 67, 0
8, 1053840, Note_on_c, 6, 72, 105
8, 1054080, Note_on_c, 6, 72, 0
8, 1054080, Note_on_c, 6, 59, 105
8, 1054320, Note_on_c, 6, 59, 0
8, 1054320, Note_on_c, 6, 62, 105
8, 1054560, Note_on_c, 6, 62, 0
8, 1054560, Note_on_c, 6, 67, 105
8, 1054800, Note_on_c, 6, 67, 0
8, 1054800, Note_on_c, 6, 71, 105
8, 1055040, Note_on_c, 6, 71, 0
8, 1055040, Note_on_c, 6, 60, 105
8, 1055280, Note_on_c, 6, 60, 0
8, 1055280, Note_on_c, 6, 64, 105
8, 1055520, Note_on_c, 6, 64, 0
8, 1055520, Note_on_c, 6, 67, 105
8, 1055760, Note_on_c, 6, 67, 0
8, 1055760, Note_on_c, 6, 72, 105
8, 1056000, Note_on_c, 6, 72, 0
8, 1056000, Note_on_c, 6, 62, 105
8, 1056240, Note_on_c, 6, 62, 0
8, 1056240, Note_on_c, 6, 67, 105
8, 1056480, Note_on_c, 6, 67, 0
8, 1056480, Note_on_c, 6, 71, 105
8, 1056720, Note_on_c, 6, 71, 0
8, 1056720, Note_on_c, 6, 74, 105
8, 1056960, Note_on_c, 6, 74, 0
8, 1056960, Note_on_c, 6, 72, 105
8, 1057440, Note_on_c, 6, 72, 0
8, 1057440, Note_on_c, 6, 72, 105
8, 1057920, Note_on_c, 6, 72, 0
8, 1057920, Note_on_c, 6, 76, 105
8, 1058160, Note_on_c, 6, 76, 0
8, 1058160, Note_on_c, 6, 74, 105
8, 1058400, Note_on_c, 6, 74, 0
8, 1058400, Note_on_c, 6, 72, 105
8, 1058640, Note_on_c, 6, 72, 0
8, 1058640, Note_on_c, 6, 71, 105
8, 1058880, Note_on_c, 6, 71, 0
8, 1058880, Note_on_c, 6, 72, 105
8, 1059360, Note_on_c, 6, 72, 0
8, 1063200, Note_on_c, 6, 64, 105
8, 1063680, Note_on_c, 6, 64, 0
8, 1064160, Note_on_c, 6, 74, 105
8, 1064160, Note_on_c, 6, 77, 105
8, 1064640, Note_on_c, 6, 77, 0
8, 1064640, Note_on_c, 6, 74, 0
8, 1065120, Note_on_c, 6, 72, 105
8, 1065120, Note_on_c, 6, 76, 105
8, 1065600, Note_on_c, 6, 76, 0
8, 1065600, Note_on_c, 6, 72, 0
8, 1066080, Note_on_c, 6, 67, 105
8, 1066080, Note_on_c, 6, 74, 105
8, 1066560, Note_on_c, 6, 74, 0
8, 1066560, Note_on_c, 6, 67, 0
8, 1066560, Note_on_c, 6, 64, 105
8, 1066560, Note_on_c, 6, 72, 105
8, 1067040, Note_on_c, 6, 72, 0
8, 1067040, Note_on_c, 6, 64, 0
8, 1067040, Note_on_c, 6, 67, 105
8, 1067040, Note_on_c, 6, 72, 105
8, 1067040, Note_on_c, 6, 76, 105
8, 1067520, Note_on_c, 6, 76, 0
8, 1067520, Note_on_c, 6, 72, 0
8, 1067520, Note_on_c, 6, 67, 0
8, 1068000, Note_on_c, 6, 74, 105
8, 1068000, Note_on_c, 6, 77, 105
8, 1068480, Note_on_c, 6, 77, 0
8, 1068480, Note_on_c, 6, 74, 0
8, 1068960, Note_on_c, 6, 72, 105
8, 1068960, Note_on_c, 6, 76, 105
8, 1069440, Note_on_c, 6, 76, 0
8, 1069440, Note_on_c, 6, 72, 0
8, 1069920, Note_on_c, 6, 68, 105
8, 1069920, Note_on_c, 6, 71, 105
8, 1070400, Note_on_c, 6, 71, 0
8, 1070400, Note_on_c, 6, 68, 0
8, 1070400, Note_on_c, 6, 69, 105
8, 1070880, Note_on_c, 6, 69, 0
8, 1070880, Note_on_c, 6, 57, 105
8, 1070880, Note_on_c, 6, 64, 105
8, 1070880, Note_on_c, 6, 72, 105
8, 1071360, Note_on_c, 6, 72, 0
8, 1071360, Note_on_c, 6, 64, 0
8, 1071360, Note_on_c, 6, 57, 0
8, 1071840, Note_on_c, 6, 64, 105
8, 1071840, Note_on_c, 6, 74, 105
8, 1072320, Note_on_c, 6, 74, 0
8, 1072320, Note_on_c, 6, 64, 0
8, 1072800, Note_on_c, 6, 69, 105
8, 1072800, Note_on_c, 6, 76, 105
8, 1073280, Note_on_c, 6, 76, 0
8, 1073280, Note_on_c, 6, 69, 0
8, 1073760, Note_on_c, 6, 55, 105
8, 1073760, Note_on_c, 6, 64, 105
8, 1074240, Note_on_c, 6, 64, 0
8, 1074240, Note_on_c, 6, 55, 0
8, 1074240, Note_on_c, 6, 57, 105
8, 1074240, Note_on_c, 6, 65, 105
8, 1074720, Note_on_c, 6, 65, 0
8, 1074720, Note_on_c, 6, 57, 0
8, 1074720, Note_on_c, 6, 65, 105
8, 1074720, Note_on_c, 6, 69, 105
8, 1075200, Note_on_c, 6, 69, 0
8, 1075200, Note_on_c, 6, 65, 0
8, 1075680, Note_on_c, 6, 67, 105
8, 1075680, Note_on_c, 6, 70, 105
8, 1076160, Note_on_c, 6, 70, 0
8, 1076160, Note_on_c, 6, 67, 0
8, 1076640, Note_on_c, 6, 69, 105
8, 1076640, Note_on_c, 6, 72, 105
8, 1077120, Note_on_c, 6, 72, 0
8, 1077120, Note_on_c, 6, 69, 0
8, 1077600, Note_on_c, 6, 79, 105
8, 1078080, Note_on_c, 6, 79, 0
8, 1078080, Note_on_c, 6, 77, 105
8, 1078560, Note_on_c, 6, 77, 0
8, 1078560, Note_on_c, 6, 57, 70
8, 1078800, Note_on_c, 6, 57, 0
8, 1078800, Note_on_c, 6, 60, 70
8, 1079040, Note_on_c, 6, 60, 0
8, 1079040, Note_on_c, 6, 57, 70
8, 1079280, Note_on_c, 6, 57, 0
8, 1079280, Note_on_c, 6, 60, 70
8, 1079520, Note_on_c, 6, 60, 0
8, 1079520, Note_on_c, 6, 57, 70
8, 1079760, Note_on_c, 6, 57, 0
8, 1079760, Note_on_c, 6, 60, 70
8, 1080000, Note_on_c, 6, 60, 0
8, 1080000, Note_on_c, 6, 57, 70
8, 1080240, Note_on_c, 6, 57, 0
8, 1080240, Note_on_c, 6, 60, 70
8, 1080480, Note_on_c, 6, 60, 0
8, 1080480, Note_on_c, 6, 57, 70
8, 1080720, Note_on_c, 6, 57, 0
8, 1080720, Note_on_c, 6, 60, 70
8, 1080960, Note_on_c, 6, 60, 0
8, 1080960, Note_on_c, 6, 57, 70
8, 1081200, Note_on_c, 6, 57, 0
8, 1081200, Note_on_c, 6, 60, 70
8, 1081440, Note_on_c, 6, 60, 0
8, 1081440, Note_on_c, 6, 57, 70
8, 1081680, Note_on_c, 6, 57, 0
8, 1081680, Note_on_c, 6, 60, 70
8, 1081920, Note_on_c, 6, 60, 0
8, 1081920, Note_on_c, 6, 57, 70
8, 1082160, Note_on_c, 6, 57, 0
8, 1082160, Note_on_c, 6, 60, 70
8, 1082400, Note_on_c, 6, 60, 0
8, 1082400, Note_on_c, 6, 57, 70
8, 1082640, Note_on_c, 6, 57, 0
8, 1082640, Note_on_c, 6, 60, 70
8, 1082880, Note_on_c, 6, 60, 0
8, 1082880, Note_on_c, 6, 57, 70
8, 1083120, Note_on_c, 6, 57, 0
8, 1083120, Note_on_c, 6, 60, 70
8, 1083360, Note_on_c, 6, 60, 0
8, 1083360, Note_on_c, 6, 57, 70
8, 1083600, Note_on_c, 6, 57, 0
8, 1083600, Note_on_c, 6, 60, 70
8, 1083840, Note_on_c, 6, 60, 0
8, 1083840, Note_on_c, 6, 58, 70
8, 1084080, Note_on_c, 6, 58, 0
8, 1084080, Note_on_c, 6, 65, 70
8, 1084320, Note_on_c, 6, 65, 0
8, 1084320, Note_on_c, 6, 58, 70
8, 1084560, Note_on_c, 6, 58, 0
8, 1084560, Note_on_c, 6, 65, 70
8, 1084800, Note_on_c, 6, 65, 0
8, 1084800, Note_on_c, 6, 57, 70
8, 1085040, Note_on_c, 6, 57, 0
8, 1085040, Note_on_c, 6, 60, 70
8, 1085280, Note_on_c, 6, 60, 0
8, 1085280, Note_on_c, 6, 57, 70
8, 1085520, Note_on_c, 6, 57, 0
8, 1085520, Note_on_c, 6, 60, 70
8, 1085760, Note_on_c, 6, 60, 0
8, 1085760, Note_on_c, 6, 65, 70
8, 1087680, Note_on_c, 6, 65, 0
8, 1087680, Note_on_c, 6, 62, 70
8, 1089600, Note_on_c, 6, 62, 0
8, 1089600, Note_on_c, 6, 60, 70
8, 1090080, Note_on_c, 6, 60, 0
8, 1090080, Note_on_c, 6, 60, 70
8, 1091040, Note_on_c, 6, 60, 0
8, 1091040, Note_on_c, 6, 60, 70
8, 1091280, Note_on_c, 6, 60, 0
8, 1091280, Note_on_c, 6, 58, 70
8, 1091520, Note_on_c, 6, 58, 0
8, 1091520, Note_on_c, 6, 57, 70
8, 1092000, Note_on_c, 6, 57, 0
8, 1093440, Note_on_c, 6, 57, 70
8, 1093680, Note_on_c, 6, 57, 0
8, 1093680, Note_on_c, 6, 60, 70
8, 1093920, Note_on_c, 6, 60, 0
8, 1093920, Note_on_c, 6, 57, 70
8, 1094160, Note_on_c, 6, 57, 0
8, 1094160, Note_on_c, 6, 60, 70
8, 1094400, Note_on_c, 6, 60, 0
8, 1094400, Note_on_c, 6, 57, 70
8, 1094640, Note_on_c, 6, 57, 0
8, 1094640, Note_on_c, 6, 60, 70
8, 1094880, Note_on_c, 6, 60, 0
8, 1094880, Note_on_c, 6, 57, 70
8, 1095120, Note_on_c, 6, 57, 0
8, 1095120, Note_on_c, 6, 60, 70
8, 1095360, Note_on_c, 6, 60, 0
8, 1095360, Note_on_c, 6, 57, 70
8, 1095600, Note_on_c, 6, 57, 0
8, 1095600, Note_on_c, 6, 60, 70
8, 1095840, Note_on_c, 6, 60, 0
8, 1095840, Note_on_c, 6, 57, 70
8, 1096080, Note_on_c, 6, 57, 0
8, 1096080, Note_on_c, 6, 60, 70
8, 1096320, Note_on_c, 6, 60, 0
8, 1096320, Note_on_c, 6, 57, 70
8, 1096560, Note_on_c, 6, 57, 0
8, 1096560, Note_on_c, 6, 60, 70
8, 1096800, Note_on_c, 6, 60, 0
8, 1096800, Note_on_c, 6, 57, 70
8, 1097040, Note_on_c, 6, 57, 0
8, 1097040, Note_on_c, 6, 60, 70
8, 1097280, Note_on_c, 6, 60, 0
8, 1097280, Note_on_c, 6, 57, 70
8, 1097520, Note_on_c, 6, 57, 0
8, 1097520, Note_on_c, 6, 60, 70
8, 1097760, Note_on_c, 6, 60, 0
8, 1097760, Note_on_c, 6, 57, 70
8, 1098000, Note_on_c, 6, 57, 0
8, 1098000, Note_on_c, 6, 60, 70
8, 1098240, Note_on_c, 6, 60, 0
8, 1098240, Note_on_c, 6, 57, 70
8, 1098480, Note_on_c, 6, 57, 0
8, 1098480, Note_on_c, 6, 60, 70
8, 1098720, Note_on_c, 6, 60, 0
8, 1098720, Note_on_c, 6, 57, 70
8, 1098960, Note_on_c, 6, 57, 0
8, 1098960, Note_on_c, 6, 60, 70
8, 1099200, Note_on_c, 6, 60, 0
8, 1099200, Note_on_c, 6, 58, 70
8, 1099440, Note_on_c, 6, 58, 0
8, 1099440, Note_on_c, 6, 65, 70
8, 1099680, Note_on_c, 6, 65, 0
8, 1099680, Note_on_c, 6, 58, 70
8, 1099920, Note_on_c, 6, 58, 0
8, 1099920, Note_on_c, 6, 65, 70
8, 1100160, Note_on_c, 6, 65, 0
8, 1100160, Note_on_c, 6, 57, 70
8, 1100400, Note_on_c, 6, 57, 0
8, 1100400, Note_on_c, 6, 60, 70
8, 1100640, Note_on_c, 6, 60, 0
8, 1100640, Note_on_c, 6, 57, 70
8, 1100880, Note_on_c, 6, 57, 0
8, 1100880, Note_on_c, 6, 60, 70
8, 1101120, Note_on_c, 6, 60, 0
8, 1101120, Note_on_c, 6, 65, 70
8, 1104960, Note_on_c, 6, 65, 0
8, 1104960, Note_on_c, 6, 65, 70
8, 1106400, Note_on_c, 6, 65, 0
8, 1106400, Note_on_c, 6, 64, 70
8, 1106880, Note_on_c, 6, 64, 0
8, 1106880, Note_on_c, 6, 65, 70
8, 1107360, Note_on_c, 6, 65, 0
8, 1152960, Note_on_c, 6, 60, 70
8, 1153200, Note_on_c, 6, 60, 0
8, 1153200, Note_on_c, 6, 55, 70
8, 1153440, Note_on_c, 6, 55, 0
8, 1153440, Note_on_c, 6, 60, 70
8, 1153680, Note_on_c, 6, 60, 0
8, 1153680, Note_on_c, 6, 55, 70
8, 1153920, Note_on_c, 6, 55, 0
8, 1153920, Note_on_c, 6, 59, 70
8, 1154160, Note_on_c, 6, 59, 0
8, 1154160, Note_on_c, 6, 55, 70
8, 1154400, Note_on_c, 6, 55, 0
8, 1154400, Note_on_c, 6, 59, 70
8, 1154640, Note_on_c, 6, 59, 0
8, 1154640, Note_on_c, 6, 55, 70
8, 1154880, Note_on_c, 6, 55, 0
8, 1156800, Note_on_c, 6, 59, 70
8, 1157040, Note_on_c, 6, 59, 0
8, 1157040, Note_on_c, 6, 55, 70
8, 1157280, Note_on_c, 6, 55, 0
8, 1157280, Note_on_c, 6, 59, 70
8, 1157520, Note_on_c, 6, 59, 0
8, 1157520, Note_on_c, 6, 55, 70
8, 1157760, Note_on_c, 6, 55, 0
8, 1157760, Note_on_c, 6, 60, 70
8, 1158000, Note_on_c, 6, 60, 0
8, 1158000, Note_on_c, 6, 55, 70
8, 1158240, Note_on_c, 6, 55, 0
8, 1158240, Note_on_c, 6, 60, 70
8, 1158480, Note_on_c, 6, 60, 0
8, 1158480, Note_on_c, 6, 55, 70
8, 1158720, Note_on_c, 6, 55, 0
8, 1158720, Note_on_c, 6, 59, 70
8, 1159200, Note_on_c, 6, 59, 0
8, 1163040, Note_on_c, 6, 63, 70
8, 1163520, Note_on_c, 6, 63, 0
8, 1163520, Note_on_c, 6, 60, 70
8, 1164000, Note_on_c, 6, 60, 0
8, 1164000, Note_on_c, 6, 63, 70
8, 1164480, Note_on_c, 6, 63, 0
8, 1164960, Note_on_c, 6, 60, 70
8, 1165440, Note_on_c, 6, 60, 0
8, 1165440, Note_on_c, 6, 62, 70
8, 1165920, Note_on_c, 6, 62, 0
8, 1165920, Note_on_c, 6, 63, 70
8, 1166400, Note_on_c, 6, 63, 0
8, 1166880, Note_on_c, 6, 62, 70
8, 1167360, Note_on_c, 6, 62, 0
8, 1167360, Note_on_c, 6, 59, 70
8, 1167840, Note_on_c, 6, 59, 0
8, 1167840, Note_on_c, 6, 62, 70
8, 1168320, Note_on_c, 6, 62, 0
8, 1168800, Note_on_c, 6, 67, 70
8, 1169280, Note_on_c, 6, 67, 0
8, 1169280, Note_on_c, 6, 66, 70
8, 1169760, Note_on_c, 6, 66, 0
8, 1169760, Note_on_c, 6, 67, 70
8, 1170240, Note_on_c, 6, 67, 0
8, 1170720, Note_on_c, 6, 63, 70
8, 1171200, Note_on_c, 6, 63, 0
8, 1171200, Note_on_c, 6, 60, 70
8, 1171680, Note_on_c, 6, 60, 0
8, 1171680, Note_on_c, 6, 63, 70
8, 1172160, Note_on_c, 6, 63, 0
8, 1172640, Note_on_c, 6, 66, 70
8, 1173600, Note_on_c, 6, 66, 0
8, 1173600, Note_on_c, 6, 66, 70
8, 1174080, Note_on_c, 6, 66, 0
8, 1174080, Note_on_c, 6, 67, 70
8, 1174560, Note_on_c, 6, 67, 0
8, 1174560, Note_on_c, 6, 67, 70
8, 1174752, Note_on_c, 6, 67, 0
8, 1176480, Note_on_c, 6, 67, 70
8, 1176672, Note_on_c, 6, 67, 0
8, 1178400, Note_on_c, 6, 67, 70
8, 1178880, Note_on_c, 6, 67, 0
8, 1179360, Note_on_c, 6, 67, 70
8, 1179840, Note_on_c, 6, 67, 0
8, 1179840, Note_on_c, 6, 67, 70
8, 1180080, Note_on_c, 6, 67, 0
8, 1180320, Note_on_c, 6, 67, 70
8, 1180560, Note_on_c, 6, 67, 0
8, 1180800, Note_on_c, 6, 67, 70
8, 1181040, Note_on_c, 6, 67, 0
8, 1181280, Note_on_c, 6, 67, 70
8, 1181520, Note_on_c, 6, 67, 0
8, 1181760, Note_on_c, 6, 67, 70
8, 1182240, Note_on_c, 6, 67, 0
8, 1198560, Note_on_c, 6, 60, 70
8, 1198620, Note_on_c, 6, 60, 0
8, 1198620, Note_on_c, 6, 59, 70
8, 1198680, Note_on_c, 6, 59, 0
8, 1198680, Note_on_c, 6, 60, 70
8, 1198740, Note_on_c, 6, 60, 0
8, 1198740, Note_on_c, 6, 59, 70
8, 1198800, Note_on_c, 6, 59, 0
8, 1198800, Note_on_c, 6, 57, 70
8, 1198920, Note_on_c, 6, 57, 0
8, 1198920, Note_on_c, 6, 59, 70
8, 1199040, Note_on_c, 6, 59, 0
8, 1199040, Note_on_c, 6, 60, 70
8, 1199520, Note_on_c, 6, 60, 0
8, 1199520, Note_on_c, 6, 64, 70
8, 1199712, Note_on_c, 6, 64, 0
8, 1200000, Note_on_c, 6, 62, 70
8, 1200192, Note_on_c, 6, 62, 0
8, 1200480, Note_on_c, 6, 65, 70
8, 1200672, Note_on_c, 6, 65, 0
8, 1200960, Note_on_c, 6, 64, 70
8, 1201440, Note_on_c, 6, 64, 0
8, 1201440, Note_on_c, 6, 67, 70
8, 1205280, Note_on_c, 6, 67, 0
8, 1205760, Note_on_c, 6, 81, 70
8, 1206720, Note_on_c, 6, 81, 0
8, 1206720, Note_on_c, 6, 79, 70
8, 1207680, Note_on_c, 6, 79, 0
8, 1207680, Note_on_c, 6, 77, 70
8, 1208640, Note_on_c, 6, 77, 0
8, 1208640, Note_on_c, 6, 76, 70
8, 1209600, Note_on_c, 6, 76, 0
8, 1209600, Note_on_c, 6, 74, 70
8, 1210560, Note_on_c, 6, 74, 0
8, 1210560, Note_on_c, 6, 62, 90
8, 1210560, Note_on_c, 6, 72, 90
8, 1211520, Note_on_c, 6, 72, 0
8, 1211520, Note_on_c, 6, 62, 0
8, 1212480, Note_on_c, 6, 55, 90
8, 1212960, Note_on_c, 6, 55, 0
8, 1214400, Note_on_c, 6, 62, 90
8, 1214400, Note_on_c, 6, 72, 90
8, 1215360, Note_on_c, 6, 72, 0
8, 1215360, Note_on_c, 6, 62, 0
8, 1216320, Note_on_c, 6, 55, 70
8, 1216320, Note_on_c, 6, 62, 70
8, 1216800, Note_on_c, 6, 62, 0
8, 1216800, Note_on_c, 6, 55, 0
8, 1230000, Note_on_c, 6, 79, 70
8, 1230240, Note_on_c, 6, 79, 0
8, 1230240, Note_on_c, 6, 78, 70
8, 1230480, Note_on_c, 6, 78, 0
8, 1230480, Note_on_c, 6, 79, 70
8, 1230720, Note_on_c, 6, 79, 0
8, 1230720, Note_on_c, 6, 78, 70
8, 1230960, Note_on_c, 6, 78, 0
8, 1230960, Note_on_c, 6, 79, 70
8, 1231200, Note_on_c, 6, 79, 0
8, 1231200, Note_on_c, 6, 78, 70
8, 1231440, Note_on_c, 6, 78, 0
8, 1231440, Note_on_c, 6, 79, 70
8, 1231680, Note_on_c, 6, 79, 0
8, 1231680, Note_on_c, 6, 67, 70
8, 1235520, Note_on_c, 6, 67, 0
8, 1235520, Note_on_c, 6, 55, 70
8, 1237440, Note_on_c, 6, 55, 0
8, 1237680, Note_on_c, 6, 72, 70
8, 1237920, Note_on_c, 6, 72, 0
8, 1237920, Note_on_c, 6, 71, 70
8, 1238160, Note_on_c, 6, 71, 0
8, 1238160, Note_on_c, 6, 72, 70
8, 1238400, Note_on_c, 6, 72, 0
8, 1238400, Note_on_c, 6, 71, 70
8, 1238640, Note_on_c, 6, 71, 0
8, 1238640, Note_on_c, 6, 72, 70
8, 1238880, Note_on_c, 6, 72, 0
8, 1238880, Note_on_c, 6, 71, 70
8, 1239120, Note_on_c, 6, 71, 0
8, 1239120, Note_on_c, 6, 72, 70
8, 1239360, Note_on_c, 6, 72, 0
8, 1239360, Note_on_c, 6, 60, 70
8, 1241280, Note_on_c, 6, 60, 0
8, 1241280, Note_on_c, 6, 57, 70
8, 1241520, Note_on_c, 6, 57, 0
8, 1241520, Note_on_c, 6, 61, 70
8, 1241760, Note_on_c, 6, 61, 0
8, 1241760, Note_on_c, 6, 62, 70
8, 1242000, Note_on_c, 6, 62, 0
8, 1242000, Note_on_c, 6, 65, 70
8, 1242240, Note_on_c, 6, 65, 0
8, 1242240, Note_on_c, 6, 69, 70
8, 1242720, Note_on_c, 6, 69, 0
8, 1243200, Note_on_c, 6, 55, 70
8, 1243440, Note_on_c, 6, 55, 0
8, 1243440, Note_on_c, 6, 59, 70
8, 1243680, Note_on_c, 6, 59, 0
8, 1243680, Note_on_c, 6, 60, 70
8, 1243920, Note_on_c, 6, 60, 0
8, 1243920, Note_on_c, 6, 64, 70
8, 1244160, Note_on_c, 6, 64, 0
8, 1244160, Note_on_c, 6, 67, 70
8, 1244640, Note_on_c, 6, 67, 0
8, 1245120, Note_on_c, 6, 65, 70
8, 1245360, Note_on_c, 6, 65, 0
8, 1245360, Note_on_c, 6, 62, 70
8, 1245600, Note_on_c, 6, 62, 0
8, 1245600, Note_on_c, 6, 65, 70
8, 1245840, Note_on_c, 6, 65, 0
8, 1245840, Note_on_c, 6, 62, 70
8, 1246080, Note_on_c, 6, 62, 0
8, 1246080, Note_on_c, 6, 59, 70
8, 1246560, Note_on_c, 6, 59, 0
8, 1246560, Note_on_c, 6, 60, 70
8, 1246800, Note_on_c, 6, 60, 0
8, 1246800, Note_on_c, 6, 62, 70
8, 1247040, Note_on_c, 6, 62, 0
8, 1247040, Note_on_c, 6, 64, 70
8, 1247520, Note_on_c, 6, 64, 0
8, 1247520, Note_on_c, 6, 71, 70
8, 1248000, Note_on_c, 6, 71, 0
8, 1248000, Note_on_c, 6, 69, 70
8, 1248480, Note_on_c, 6, 69, 0
8, 1248480, Note_on_c, 6, 71, 70
8, 1248960, Note_on_c, 6, 71, 0
8, 1248960, Note_on_c, 6, 69, 70
8, 1249440, Note_on_c, 6, 69, 0
8, 1249920, Note_on_c, 6, 72, 70
8, 1250400, Note_on_c, 6, 72, 0
8, 1250880, Note_on_c, 6, 72, 70
8, 1251360, Note_on_c, 6, 72, 0
8, 1251360, Note_on_c, 6, 72, 70
8, 1251840, Note_on_c, 6, 72, 0
8, 1251840, Note_on_c, 6, 71, 70
8, 1252320, Note_on_c, 6, 71, 0
8, 1252320, Note_on_c, 6, 71, 70
8, 1252800, Note_on_c, 6, 71, 0
8, 1252800, Note_on_c, 6, 72, 70
8, 1253040, Note_on_c, 6, 72, 0
8, 1253040, Note_on_c, 6, 76, 70
8, 1253280, Note_on_c, 6, 76, 0
8, 1253280, Note_on_c, 6, 74, 70
8, 1253520, Note_on_c, 6, 74, 0
8, 1253520, Note_on_c, 6, 72, 70
8, 1253760, Note_on_c, 6, 72, 0
8, 1253760, Note_on_c, 6, 71, 70
8, 1254000, Note_on_c, 6, 71, 0
8, 1254000, Note_on_c, 6, 69, 70
8, 1254240, Note_on_c, 6, 69, 0
8, 1254240, Note_on_c, 6, 67, 70
8, 1254480, Note_on_c, 6, 67, 0
8, 1254480, Note_on_c, 6, 65, 70
8, 1254720, Note_on_c, 6, 65, 0
8, 1254720, Note_on_c, 6, 64, 70
8, 1255200, Note_on_c, 6, 64, 0
8, 1270080, Note_on_c, 6, 64, 70
8, 1271040, Note_on_c, 6, 64, 0
8, 1271520, Note_on_c, 6, 67, 70
8, 1272000, Note_on_c, 6, 67, 0
8, 1272000, Note_on_c, 6, 69, 70
8, 1272480, Note_on_c, 6, 69, 0
8, 1272480, Note_on_c, 6, 74, 70
8, 1272960, Note_on_c, 6, 74, 0
8, 1272960, Note_on_c, 6, 77, 70
8, 1273440, Note_on_c, 6, 77, 0
8, 1273440, Note_on_c, 6, 81, 70
8, 1273920, Note_on_c, 6, 81, 0
8, 1273920, Note_on_c, 6, 67, 70
8, 1274400, Note_on_c, 6, 67, 0
8, 1274400, Note_on_c, 6, 72, 70
8, 1274880, Note_on_c, 6, 72, 0
8, 1274880, Note_on_c, 6, 76, 70
8, 1275360, Note_on_c, 6, 76, 0
8, 1275360, Note_on_c, 6, 79, 70
8, 1275840, Note_on_c, 6, 79, 0
8, 1275840, Note_on_c, 6, 65, 70
8, 1276320, Note_on_c, 6, 65, 0
8, 1276320, Note_on_c, 6, 71, 70
8, 1276800, Note_on_c, 6, 71, 0
8, 1276800, Note_on_c, 6, 74, 70
8, 1277280, Note_on_c, 6, 74, 0
8, 1277280, Note_on_c, 6, 77, 70
8, 1277760, Note_on_c, 6, 77, 0
8, 1277760, Note_on_c, 6, 72, 70
8, 1278240, Note_on_c, 6, 72, 0
8, 1279680, Note_on_c, 6, 64, 70
8, 1279680, Note_on_c, 6, 79, 70
8, 1280160, Note_on_c, 6, 79, 0
8, 1280160, Note_on_c, 6, 64, 0
8, 1283520, Note_on_c, 6, 60, 90
8, 1283640, Note_on_c, 6, 60, 0
8, 1283640, Note_on_c, 6, 60, 90
8, 1283760, Note_on_c, 6, 60, 0
8, 1283760, Note_on_c, 6, 60, 90
8, 1283880, Note_on_c, 6, 60, 0
8, 1283880, Note_on_c, 6, 60, 90
8, 1284000, Note_on_c, 6, 60, 0
8, 1284000, Note_on_c, 6, 60, 90
8, 1284120, Note_on_c, 6, 60, 0
8, 1284120, Note_on_c, 6, 60, 90
8, 1284240, Note_on_c, 6, 60, 0
8, 1284240, Note_on_c, 6, 60, 90
8, 1284360, Note_on_c, 6, 60, 0
8, 1284360, Note_on_c, 6, 60, 90
8, 1284480, Note_on_c, 6, 60, 0
8, 1284480, Note_on_c, 6, 60, 90
8, 1284600, Note_on_c, 6, 60, 0
8, 1284600, Note_on_c, 6, 60, 90
8, 1284720, Note_on_c, 6, 60, 0
8, 1284720, Note_on_c, 6, 60, 90
8, 1284840, Note_on_c, 6, 60, 0
8, 1284840, Note_on_c, 6, 60, 90
8, 1284960, Note_on_c, 6, 60, 0
8, 1284960, Note_on_c, 6, 60, 70
8, 1285080, Note_on_c, 6, 60, 0
8, 1285080, Note_on_c, 6, 60, 70
8, 1285200, Note_on_c, 6, 60, 0
8, 1285200, Note_on_c, 6, 60, 70
8, 1285320, Note_on_c, 6, 60, 0
8, 1285320, Note_on_c, 6, 60, 70
8, 1285440, Note_on_c, 6, 60, 0
8, 1285440, Note_on_c, 6, 60, 70
8, 1285560, Note_on_c, 6, 60, 0
8, 1285560, Note_on_c, 6, 60, 70
8, 1285680, Note_on_c, 6, 60, 0
8, 1285680, Note_on_c, 6, 60, 70
8, 1285800, Note_on_c, 6, 60, 0
8, 1285800, Note_on_c, 6, 60, 70
8, 1285920, Note_on_c, 6, 60, 0
8, 1285920, Note_on_c, 6, 60, 70
8, 1286040, Note_on_c, 6, 60, 0
8, 1286040, Note_on_c, 6, 60, 70
8, 1286160, Note_on_c, 6, 60, 0
8, 1286160, Note_on_c, 6, 60, 70
8, 1286280, Note_on_c, 6, 60, 0
8, 1286280, Note_on_c, 6, 60, 70
8, 1286400, Note_on_c, 6, 60, 0
8, 1286400, Note_on_c, 6, 60, 70
8, 1286520, Note_on_c, 6, 60, 0
8, 1286520, Note_on_c, 6, 60, 70
8, 1286640, Note_on_c, 6, 60, 0
8, 1286640, Note_on_c, 6, 60, 70
8, 1286760, Note_on_c, 6, 60, 0
8, 1286760, Note_on_c, 6, 60, 70
8, 1286880, Note_on_c, 6, 60, 0
8, 1286880, Note_on_c, 6, 60, 70
8, 1287000, Note_on_c, 6, 60, 0
8, 1287000, Note_on_c, 6, 60, 70
8, 1287120, Note_on_c, 6, 60, 0
8, 1287120, Note_on_c, 6, 60, 70
8, 1287240, Note_on_c, 6, 60, 0
8, 1287240, Note_on_c, 6, 60, 70
8, 1287360, Note_on_c, 6, 60, 0
8, 1287360, Note_on_c, 6, 60, 90
8, 1287480, Note_on_c, 6, 60, 0
8, 1287480, Note_on_c, 6, 60, 90
8, 1287600, Note_on_c, 6, 60, 0
8, 1287600, Note_on_c, 6, 60, 90
8, 1287720, Note_on_c, 6, 60, 0
8, 1287720, Note_on_c, 6, 60, 90
8, 1287840, Note_on_c, 6, 60, 0
8, 1287840, Note_on_c, 6, 60, 90
8, 1287960, Note_on_c, 6, 60, 0
8, 1287960, Note_on_c, 6, 60, 90
8, 1288080, Note_on_c, 6, 60, 0
8, 1288080, Note_on_c, 6, 60, 90
8, 1288200, Note_on_c, 6, 60, 0
8, 1288200, Note_on_c, 6, 60, 90
8, 1288320, Note_on_c, 6, 60, 0
8, 1288320, Note_on_c, 6, 60, 90
8, 1288440, Note_on_c, 6, 60, 0
8, 1288440, Note_on_c, 6, 60, 90
8, 1288560, Note_on_c, 6, 60, 0
8, 1288560, Note_on_c, 6, 60, 90
8, 1288680, Note_on_c, 6, 60, 0
8, 1288680, Note_on_c, 6, 60, 90
8, 1288800, Note_on_c, 6, 60, 0
8, 1288800, Note_on_c, 6, 60, 70
8, 1288920, Note_on_c, 6, 60, 0
8, 1288920, Note_on_c, 6, 60, 70
8, 1289040, Note_on_c, 6, 60, 0
8, 1289040, Note_on_c, 6, 60, 70
8, 1289160, Note_on_c, 6, 60, 0
8, 1289160, Note_on_c, 6, 60, 70
8, 1289280, Note_on_c, 6, 60, 0
8, 1289280, Note_on_c, 6, 60, 70
8, 1289400, Note_on_c, 6, 60, 0
8, 1289400, Note_on_c, 6, 60, 70
8, 1289520, Note_on_c, 6, 60, 0
8, 1289520, Note_on_c, 6, 60, 70
8, 1289640, Note_on_c, 6, 60, 0
8, 1289640, Note_on_c, 6, 60, 70
8, 1289760, Note_on_c, 6, 60, 0
8, 1289760, Note_on_c, 6, 60, 70
8, 1289880, Note_on_c, 6, 60, 0
8, 1289880, Note_on_c, 6, 60, 70
8, 1290000, Note_on_c, 6, 60, 0
8, 1290000, Note_on_c, 6, 60, 70
8, 1290120, Note_on_c, 6, 60, 0
8, 1290120, Note_on_c, 6, 60, 70
8, 1290240, Note_on_c, 6, 60, 0
8, 1290240, Note_on_c, 6, 60, 70
8, 1290360, Note_on_c, 6, 60, 0
8, 1290360, Note_on_c, 6, 60, 70
8, 1290480, Note_on_c, 6, 60, 0
8, 1290480, Note_on_c, 6, 60, 70
8, 1290600, Note_on_c, 6, 60, 0
8, 1290600, Note_on_c, 6, 60, 70
8, 1290720, Note_on_c, 6, 60, 0
8, 1290720, Note_on_c, 6, 60, 70
8, 1290840, Note_on_c, 6, 60, 0
8, 1290840, Note_on_c, 6, 60, 70
8, 1290960, Note_on_c, 6, 60, 0
8, 1290960, Note_on_c, 6, 60, 70
8, 1291080, Note_on_c, 6, 60, 0
8, 1291080, Note_on_c, 6, 60, 70
8, 1291200, Note_on_c, 6, 60, 0
8, 1291200, Note_on_c, 6, 60, 70
8, 1291440, Note_on_c, 6, 60, 0
8, 1291440, Note_on_c, 6, 57, 70
8, 1291680, Note_on_c, 6, 57, 0
8, 1291680, Note_on_c, 6, 60, 70
8, 1291920, Note_on_c, 6, 60, 0
8, 1291920, Note_on_c, 6, 57, 70
8, 1292160, Note_on_c, 6, 57, 0
8, 1292160, Note_on_c, 6, 60, 70
8, 1292400, Note_on_c, 6, 60, 0
8, 1292400, Note_on_c, 6, 57, 70
8, 1292640, Note_on_c, 6, 57, 0
8, 1292640, Note_on_c, 6, 60, 70
8, 1292880, Note_on_c, 6, 60, 0
8, 1292880, Note_on_c, 6, 57, 70
8, 1293120, Note_on_c, 6, 57, 0
8, 1293120, Note_on_c, 6, 60, 70
8, 1293360, Note_on_c, 6, 60, 0
8, 1293360, Note_on_c, 6, 57, 70
8, 1293600, Note_on_c, 6, 57, 0
8, 1293600, Note_on_c, 6, 60, 70
8, 1293840, Note_on_c, 6, 60, 0
8, 1293840, Note_on_c, 6, 57, 70
8, 1294080, Note_on_c, 6, 57, 0
8, 1294080, Note_on_c, 6, 60, 70
8, 1294320, Note_on_c, 6, 60, 0
8, 1294320, Note_on_c, 6, 57, 70
8, 1294560, Note_on_c, 6, 57, 0
8, 1294560, Note_on_c, 6, 60, 70
8, 1294800, Note_on_c, 6, 60, 0
8, 1294800, Note_on_c, 6, 57, 70
8, 1295040, Note_on_c, 6, 57, 0
8, 1295040, Note_on_c, 6, 59, 70
8, 1295136, Note_on_c, 6, 59, 0
8, 1295280, Note_on_c, 6, 62, 70
8, 1295376, Note_on_c, 6, 62, 0
8, 1295520, Note_on_c, 6, 59, 70
8, 1295616, Note_on_c, 6, 59, 0
8, 1295760, Note_on_c, 6, 62, 70
8, 1295856, Note_on_c, 6, 62, 0
8, 1296000, Note_on_c, 6, 55, 70
8, 1296096, Note_on_c, 6, 55, 0
8, 1296240, Note_on_c, 6, 62, 70
8, 1296336, Note_on_c, 6, 62, 0
8, 1296480, Note_on_c, 6, 59, 70
8, 1296576, Note_on_c, 6, 59, 0
8, 1296720, Note_on_c, 6, 62, 70
8, 1296816, Note_on_c, 6, 62, 0
8, 1296960, Note_on_c, 6, 55, 70
8, 1297056, Note_on_c, 6, 55, 0
8, 1297200, Note_on_c, 6, 62, 70
8, 1297296, Note_on_c, 6, 62, 0
8, 1297440, Note_on_c, 6, 59, 70
8, 1297536, Note_on_c, 6, 59, 0
8, 1297680, Note_on_c, 6, 62, 70
8, 1297776, Note_on_c, 6, 62, 0
8, 1297920, Note_on_c, 6, 55, 70
8, 1298016, Note_on_c, 6, 55, 0
8, 1298160, Note_on_c, 6, 62, 70
8, 1298256, Note_on_c, 6, 62, 0
8, 1298400, Note_on_c, 6, 59, 70
8, 1298496, Note_on_c, 6, 59, 0
8, 1298640, Note_on_c, 6, 62, 70
8, 1298736, Note_on_c, 6, 62, 0
8, 1298880, Note_on_c, 6, 67, 70
8, 1300320, Note_on_c, 6, 67, 0
8, 1300320, Note_on_c, 6, 72, 70
8, 1300440, Note_on_c, 6, 72, 0
8, 1300440, Note_on_c, 6, 64, 70
8, 1300800, Note_on_c, 6, 64, 0
8, 1300800, Note_on_c, 6, 67, 70
8, 1301280, Note_on_c, 6, 67, 0
8, 1301280, Note_on_c, 6, 65, 70
8, 1301760, Note_on_c, 6, 65, 0
8, 1302720, Note_on_c, 6, 64, 70
8, 1304160, Note_on_c, 6, 64, 0
8, 1304160, Note_on_c, 6, 65, 70
8, 1304280, Note_on_c, 6, 65, 0
8, 1304280, Note_on_c, 6, 69, 70
8, 1304640, Note_on_c, 6, 69, 0
8, 1304640, Note_on_c, 6, 60, 70
8, 1305120, Note_on_c, 6, 60, 0
8, 1305120, Note_on_c, 6, 59, 70
8, 1305600, Note_on_c, 6, 59, 0
8, 1306560, Note_on_c, 6, 60, 70
8, 1308000, Note_on_c, 6, 60, 0
8, 1308000, Note_on_c, 6, 62, 70
8, 1308240, Note_on_c, 6, 62, 0
8, 1308240, Note_on_c, 6, 64, 70
8, 1308480, Note_on_c, 6, 64, 0
8, 1308480, Note_on_c, 6, 65, 70
8, 1309920, Note_on_c, 6, 65, 0
8, 1309920, Note_on_c, 6, 67, 70
8, 1310160, Note_on_c, 6, 67, 0
8, 1310160, Note_on_c, 6, 69, 70
8, 1310400, Note_on_c, 6, 69, 0
8, 1310400, Note_on_c, 6, 67, 70
8, 1310880, Note_on_c, 6, 67, 0
8, 1310880, Note_on_c, 6, 60, 70
8, 1311360, Note_on_c, 6, 60, 0
8, 1311360, Note_on_c, 6, 62, 70
8, 1311840, Note_on_c, 6, 62, 0
8, 1311840, Note_on_c, 6, 65, 70
8, 1312320, Note_on_c, 6, 65, 0
8, 1312320, Note_on_c, 6, 63, 70
8, 1312800, Note_on_c, 6, 63, 0
8, 1312800, Note_on_c, 6, 64, 70
8, 1313280, Note_on_c, 6, 64, 0
8, 1314240, Note_on_c, 6, 60, 70
8, 1315680, Note_on_c, 6, 60, 0
8, 1315680, Note_on_c, 6, 62, 70
8, 1315920, Note_on_c, 6, 62, 0
8, 1315920, Note_on_c, 6, 64, 70
8, 1316160, Note_on_c, 6, 64, 0
8, 1316160, Note_on_c, 6, 65, 70
8, 1316640, Note_on_c, 6, 65, 0
8, 1316640, Note_on_c, 6, 65, 70
8, 1317120, Note_on_c, 6, 65, 0
8, 1317120, Note_on_c, 6, 65, 70
8, 1317600, Note_on_c, 6, 65, 0
8, 1317600, Note_on_c, 6, 67, 70
8, 1317840, Note_on_c, 6, 67, 0
8, 1317840, Note_on_c, 6, 69, 70
8, 1318080, Note_on_c, 6, 69, 0
8, 1318080, Note_on_c, 6, 67, 70
8, 1318320, Note_on_c, 6, 67, 0
8, 1318320, Note_on_c, 6, 69, 70
8, 1318560, Note_on_c, 6, 69, 0
8, 1318560, Note_on_c, 6, 71, 70
8, 1318800, Note_on_c, 6, 71, 0
8, 1318800, Note_on_c, 6, 72, 70
8, 1319040, Note_on_c, 6, 72, 0
8, 1319040, Note_on_c, 6, 71, 70
8, 1319280, Note_on_c, 6, 71, 0
8, 1319280, Note_on_c, 6, 72, 70
8, 1319520, Note_on_c, 6, 72, 0
8, 1319520, Note_on_c, 6, 71, 70
8, 1319760, Note_on_c, 6, 71, 0
8, 1319760, Note_on_c, 6, 72, 70
8, 1320000, Note_on_c, 6, 72, 0
8, 1320000, Note_on_c, 6, 68, 70
8, 1320240, Note_on_c, 6, 68, 0
8, 1320240, Note_on_c, 6, 69, 70
8, 1320480, Note_on_c, 6, 69, 0
8, 1320480, Note_on_c, 6, 68, 70
8, 1320720, Note_on_c, 6, 68, 0
8, 1320720, Note_on_c, 6, 69, 70
8, 1320960, Note_on_c, 6, 69, 0
8, 1320960, Note_on_c, 6, 64, 70
8, 1321200, Note_on_c, 6, 64, 0
8, 1321200, Note_on_c, 6, 65, 70
8, 1321440, Note_on_c, 6, 65, 0
8, 1321440, Note_on_c, 6, 64, 70
8, 1321680, Note_on_c, 6, 64, 0
8, 1321680, Note_on_c, 6, 65, 70
8, 1321920, Note_on_c, 6, 65, 0
8, 1321920, Note_on_c, 6, 64, 70
8, 1322160, Note_on_c, 6, 64, 0
8, 1322160, Note_on_c, 6, 64, 70
8, 1322400, Note_on_c, 6, 64, 0
8, 1322400, Note_on_c, 6, 60, 70
8, 1322640, Note_on_c, 6, 60, 0
8, 1322640, Note_on_c, 6, 64, 70
8, 1322880, Note_on_c, 6, 64, 0
8, 1322880, Note_on_c, 6, 60, 70
8, 1323120, Note_on_c, 6, 60, 0
8, 1323120, Note_on_c, 6, 64, 70
8, 1323360, Note_on_c, 6, 64, 0
8, 1323360, Note_on_c, 6, 62, 70
8, 1323600, Note_on_c, 6, 62, 0
8, 1323600, Note_on_c, 6, 60, 70
8, 1323840, Note_on_c, 6, 60, 0
8, 1323840, Note_on_c, 6, 64, 70
8, 1324080, Note_on_c, 6, 64, 0
8, 1324080, Note_on_c, 6, 62, 70
8, 1324320, Note_on_c, 6, 62, 0
8, 1324320, Note_on_c, 6, 60, 70
8, 1324416, Note_on_c, 6, 60, 0
8, 1324560, Note_on_c, 6, 60, 70
8, 1324656, Note_on_c, 6, 60, 0
8, 1324800, Note_on_c, 6, 60, 70
8, 1325040, Note_on_c, 6, 60, 0
8, 1325040, Note_on_c, 6, 64, 70
8, 1325280, Note_on_c, 6, 64, 0
8, 1325280, Note_on_c, 6, 62, 70
8, 1325520, Note_on_c, 6, 62, 0
8, 1325520, Note_on_c, 6, 59, 70
8, 1325760, Note_on_c, 6, 59, 0
8, 1325760, Note_on_c, 6, 60, 70
8, 1326240, Note_on_c, 6, 60, 0
8, 1330560, Note_on_c, 6, 55, 70
8, 1330560, Note_on_c, 6, 65, 70
8, 1331040, Note_on_c, 6, 65, 0
8, 1331040, Note_on_c, 6, 55, 0
8, 1331520, Note_on_c, 6, 55, 70
8, 1331520, Note_on_c, 6, 67, 70
8, 1332000, Note_on_c, 6, 67, 0
8, 1332000, Note_on_c, 6, 55, 0
8, 1332480, Note_on_c, 6, 55, 70
8, 1332480, Note_on_c, 6, 65, 70
8, 1332960, Note_on_c, 6, 65, 0
8, 1332960, Note_on_c, 6, 55, 0
8, 1333440, Note_on_c, 6, 55, 70
8, 1333440, Note_on_c, 6, 64, 70
8, 1333920, Note_on_c, 6, 64, 0
8, 1333920, Note_on_c, 6, 55, 0
8, 1334400, Note_on_c, 6, 67, 70
8, 1334400, Note_on_c, 6, 77, 70
8, 1334880, Note_on_c, 6, 77, 0
8, 1334880, Note_on_c, 6, 67, 0
8, 1335360, Note_on_c, 6, 67, 70
8, 1335360, Note_on_c, 6, 79, 70
8, 1335840, Note_on_c, 6, 79, 0
8, 1335840, Note_on_c, 6, 67, 0
8, 1336320, Note_on_c, 6, 67, 70
8, 1336320, Note_on_c, 6, 74, 70
8, 1336800, Note_on_c, 6, 74, 0
8, 1336800, Note_on_c, 6, 67, 0
8, 1337280, Note_on_c, 6, 64, 70
8, 1337280, Note_on_c, 6, 72, 70
8, 1337760, Note_on_c, 6, 72, 0
8, 1337760, Note_on_c, 6, 64, 0
8, 1345440, Note_on_c, 6, 60, 70
8, 1345920, Note_on_c, 6, 60, 0
8, 1346400, Note_on_c, 6, 69, 70
8, 1346880, Note_on_c, 6, 69, 0
8, 1347360, Note_on_c, 6, 65, 70
8, 1347840, Note_on_c, 6, 65, 0
8, 1348320, Note_on_c, 6, 62, 70
8, 1348800, Note_on_c, 6, 62, 0
8, 1348800, Note_on_c, 6, 62, 80
8, 1349760, Note_on_c, 6, 62, 0
8, 1349760, Note_on_c, 6, 64, 70
8, 1350240, Note_on_c, 6, 64, 0
8, 1352640, Note_on_c, 6, 62, 80
8, 1353600, Note_on_c, 6, 62, 0
8, 1353600, Note_on_c, 6, 64, 70
8, 1354080, Note_on_c, 6, 64, 0
8, 1360320, Note_on_c, 6, 72, 70
8, 1363200, Note_on_c, 6, 72, 0
8, 1363200, Note_on_c, 6, 65, 80
8, 1364160, Note_on_c, 6, 65, 0
8, 1364160, Note_on_c, 6, 64, 90
8, 1364640, Note_on_c, 6, 64, 0
8, 1368480, Note_on_c, 6, 77, 105
8, 1368960, Note_on_c, 6, 77, 0
8, 1369440, Note_on_c, 6, 77, 105
8, 1369920, Note_on_c, 6, 77, 0
8, 1370400, Note_on_c, 6, 67, 105
8, 1370400, Note_on_c, 6, 72, 105
8, 1370880, Note_on_c, 6, 72, 0
8, 1370880, Note_on_c, 6, 67, 0
8, 1371360, Note_on_c, 6, 72, 105
8, 1371840, Note_on_c, 6, 72, 0
8, 1371840, Note_on_c, 6, 55, 105
8, 1371840, Note_on_c, 6, 64, 105
8, 1372320, Note_on_c, 6, 64, 0
8, 1372320, Note_on_c, 6, 55, 0
8, 1375680, Note_on_c, 6, 55, 90
8, 1375680, Note_on_c, 6, 64, 90
8, 1375680, Note_on_c, 6, 72, 90
8, 1376160, Note_on_c, 6, 72, 0
8, 1376160, Note_on_c, 6, 64, 0
8, 1376160, Note_on_c, 6, 55, 0
8, 1376400, Note_on_c, 6, 72, 105
8, 1376640, Note_on_c, 6, 72, 0
8, 1376640, Note_on_c, 6, 72, 105
8, 1376880, Note_on_c, 6, 72, 0
8, 1376880, Note_on_c, 6, 72, 105
8, 1377120, Note_on_c, 6, 72, 0
8, 1377120, Note_on_c, 6, 72, 105
8, 1377360, Note_on_c, 6, 72, 0
8, 1377360, Note_on_c, 6, 72, 105
8, 1377600, Note_on_c, 6, 72, 0
8, 1377600, Note_on_c, 6, 71, 105
8, 1377660, Note_on_c, 6, 71, 0
8, 1377660, Note_on_c, 6, 72, 105
8, 1377720, Note_on_c, 6, 72, 0
8, 1377720, Note_on_c, 6, 74, 105
8, 1378080, Note_on_c, 6, 74, 0
8, 1378320, Note_on_c, 6, 65, 105
8, 1378560, Note_on_c, 6, 65, 0
8, 1378560, Note_on_c, 6, 65, 105
8, 1378800, Note_on_c, 6, 65, 0
8, 1378800, Note_on_c, 6, 65, 105
8, 1379040, Note_on_c, 6, 65, 0
8, 1379040, Note_on_c, 6, 65, 105
8, 1379280, Note_on_c, 6, 65, 0
8, 1379280, Note_on_c, 6, 65, 105
8, 1379520, Note_on_c, 6, 65, 0
8, 1379520, Note_on_c, 6, 64, 105
8, 1379580, Note_on_c, 6, 64, 0
8, 1379580, Note_on_c, 6, 65, 105
8, 1379640, Note_on_c, 6, 65, 0
8, 1379640, Note_on_c, 6, 67, 105
8, 1380000, Note_on_c, 6, 67, 0
8, 1380240, Note_on_c, 6, 72, 105
8, 1380480, Note_on_c, 6, 72, 0
8, 1380480, Note_on_c, 6, 72, 105
8, 1380720, Note_on_c, 6, 72, 0
8, 1380720, Note_on_c, 6, 72, 105
8, 1380960, Note_on_c, 6, 72, 0
8, 1380960, Note_on_c, 6, 72, 105
8, 1381200, Note_on_c, 6, 72, 0
8, 1381200, Note_on_c, 6, 72, 105
8, 1381440, Note_on_c, 6, 72, 0
8, 1381440, Note_on_c, 6, 71, 105
8, 1381500, Note_on_c, 6, 71, 0
8, 1381500, Note_on_c, 6, 72, 105
8, 1381560, Note_on_c, 6, 72, 0
8, 1381560, Note_on_c, 6, 74, 105
8, 1381920, Note_on_c, 6, 74, 0
8, 1382160, Note_on_c, 6, 65, 105
8, 1382400, Note_on_c, 6, 65, 0
8, 1382400, Note_on_c, 6, 65, 105
8, 1382640, Note_on_c, 6, 65, 0
8, 1382640, Note_on_c, 6, 65, 105
8, 1382880, Note_on_c, 6, 65, 0
8, 1382880, Note_on_c, 6, 65, 105
8, 1383120, Note_on_c, 6, 65, 0
8, 1383120, Note_on_c, 6, 65, 105
8, 1383360, Note_on_c, 6, 65, 0
8, 1383360, Note_on_c, 6, 64, 105
8, 1383840, Note_on_c, 6, 64, 0
8, 1383840, Note_on_c, 6, 64, 105
8, 1383840, Note_on_c, 6, 72, 105
8, 1383840, Note_on_c, 6, 79, 105
8, 1384320, Note_on_c, 6, 79, 0
8, 1384320, Note_on_c, 6, 72, 0
8, 1384320, Note_on_c, 6, 64, 0
8, 1384800, Note_on_c, 6, 64, 105
8, 1384800, Note_on_c, 6, 72, 105
8, 1384800, Note_on_c, 6, 81, 105
8, 1385280, Note_on_c, 6, 81, 0
8, 1385280, Note_on_c, 6, 72, 0
8, 1385280, Note_on_c, 6, 64, 0
8, 1385760, Note_on_c, 6, 62, 105
8, 1385760, Note_on_c, 6, 72, 105
8, 1385760, Note_on_c, 6, 81, 105
8, 1386240, Note_on_c, 6, 81, 0
8, 1386240, Note_on_c, 6, 72, 0
8, 1386240, Note_on_c, 6, 62, 0
8, 1386720, Note_on_c, 6, 62, 105
8, 1386720, Note_on_c, 6, 71, 105
8, 1386720, Note_on_c, 6, 79, 105
8, 1387200, Note_on_c, 6, 79, 0
8, 1387200, Note_on_c, 6, 71, 0
8, 1387200, Note_on_c, 6, 62, 0
8, 1387200, Note_on_c, 6, 64, 105
8, 1387200, Note_on_c, 6, 72, 105
8, 1387200, Note_on_c, 6, 79, 105
8, 1387680, Note_on_c, 6, 72, 0
8, 1387680, Note_on_c, 6, 64, 0
8, 1388160, Note_on_c, 6, 79, 0
8, 1416480, Note_on_c, 6, 60, 70
8, 1416720, Note_on_c, 6, 60, 0
8, 1416720, Note_on_c, 6, 64, 70
8, 1416960, Note_on_c, 6, 64, 0
8, 1416960, Note_on_c, 6, 64, 70
8, 1417200, Note_on_c, 6, 64, 0
8, 1417200, Note_on_c, 6, 62, 70
8, 1417440, Note_on_c, 6, 62, 0
8, 1417440, Note_on_c, 6, 60, 70
8, 1417536, Note_on_c, 6, 60, 0
8, 1417680, Note_on_c, 6, 59, 70
8, 1417776, Note_on_c, 6, 59, 0
8, 1429920, Note_on_c, 6, 55, 105
8, 1429920, Note_on_c, 6, 64, 105
8, 1429920, Note_on_c, 6, 72, 105
8, 1430400, Note_on_c, 6, 72, 0
8, 1430400, Note_on_c, 6, 64, 0
8, 1430400, Note_on_c, 6, 55, 0
8, 1430400, Note_on_c, 6, 67, 105
8, 1430400, Note_on_c, 6, 72, 105
8, 1430400, Note_on_c, 6, 76, 105
8, 1430880, Note_on_c, 6, 76, 0
8, 1430880, Note_on_c, 6, 72, 0
8, 1430880, Note_on_c, 6, 67, 0
8, 1430880, Note_on_c, 6, 62, 105
8, 1430880, Note_on_c, 6, 71, 105
8, 1430880, Note_on_c, 6, 79, 105
8, 1431360, Note_on_c, 6, 79, 0
8, 1431360, Note_on_c, 6, 71, 0
8, 1431360, Note_on_c, 6, 62, 0
8, 1431840, Note_on_c, 6, 55, 105
8, 1431840, Note_on_c, 6, 64, 105
8, 1431840, Note_on_c, 6, 72, 105
8, 1432320, Note_on_c, 6, 72, 0
8, 1432320, Note_on_c, 6, 64, 0
8, 1432320, Note_on_c, 6, 55, 0
8, 1432320, Note_on_c, 6, 67, 105
8, 1432320, Note_on_c, 6, 72, 105
8, 1432320, Note_on_c, 6, 76, 105
8, 1432800, Note_on_c, 6, 76, 0
8, 1432800, Note_on_c, 6, 72, 0
8, 1432800, Note_on_c, 6, 67, 0
8, 1432800, Note_on_c, 6, 62, 105
8, 1432800, Note_on_c, 6, 71, 105
8, 1432800, Note_on_c, 6, 79, 105
8, 1433280, Note_on_c, 6, 79, 0
8, 1433280, Note_on_c, 6, 71, 0
8, 1433280, Note_on_c, 6, 62, 0
8, 1433280, Note_on_c, 6, 67, 105
8, 1433280, Note_on_c, 6, 72, 105
8, 1434240, Note_on_c, 6, 72, 0
8, 1434240, Note_on_c, 6, 67, 0
8, 1434240, Note_on_c, 6, 67, 105
8, 1434240, Note_on_c, 6, 72, 105
8, 1435200, Note_on_c, 6, 72, 0
8, 1435200, Note_on_c, 6, 67, 0
8, 1435200, Note_on_c, 6, 67, 105
8, 1435200, Note_on_c, 6, 72, 105
8, 1436160, Note_on_c, 6, 72, 0
8, 1436160, Note_on_c, 6, 67, 0
8, 1436160, End_track
9, 0, Start_track
9, 0, MIDI_port, 0
9, 0, Title_t, "Viola"
9, 0, Control_c, 7, 0, 0
9, 0, Control_c, 7, 32, 1
9, 0, Program_c, 7, 48
9, 0, Control_c, 7, 7, 100
9, 0, Control_c, 7, 10, 45
9, 1908, Note_on_c, 7, 60, 105
9, 2592, Note_on_c, 7, 60, 0
9, 2628, Note_on_c, 7, 55, 105
9, 2856, Note_on_c, 7, 55, 0
9, 2868, Note_on_c, 7, 52, 105
9, 3096, Note_on_c, 7, 52, 0
9, 3108, Note_on_c, 7, 48, 105
9, 3336, Note_on_c, 7, 48, 0
9, 3348, Note_on_c, 7, 52, 105
9, 3576, Note_on_c, 7, 52, 0
9, 3588, Note_on_c, 7, 55, 105
9, 3816, Note_on_c, 7, 55, 0
9, 3828, Note_on_c, 7, 60, 105
9, 4512, Note_on_c, 7, 60, 0
9, 4548, Note_on_c, 7, 55, 105
9, 4776, Note_on_c, 7, 55, 0
9, 4788, Note_on_c, 7, 52, 105
9, 5016, Note_on_c, 7, 52, 0
9, 5028, Note_on_c, 7, 48, 105
9, 5256, Note_on_c, 7, 48, 0
9, 5268, Note_on_c, 7, 52, 105
9, 5496, Note_on_c, 7, 52, 0
9, 5508, Note_on_c, 7, 55, 105
9, 5736, Note_on_c, 7, 55, 0
9, 5748, Note_on_c, 7, 60, 105
9, 6204, Note_on_c, 7, 60, 0
9, 13908, Note_on_c, 7, 69, 105
9, 13908, Note_on_c, 7, 72, 105
9, 14004, Note_on_c, 7, 72, 0
9, 14004, Note_on_c, 7, 69, 0
9, 14388, Note_on_c, 7, 67, 105
9, 14388, Note_on_c, 7, 71, 105
9, 14484, Note_on_c, 7, 71, 0
9, 14484, Note_on_c, 7, 67, 0
9, 14868, Note_on_c, 7, 65, 105
9, 14868, Note_on_c, 7, 69, 105
9, 14964, Note_on_c, 7, 69, 0
9, 14964, Note_on_c, 7, 65, 0
9, 15348, Note_on_c, 7, 64, 105
9, 15348, Note_on_c, 7, 67, 105
9, 16068, Note_on_c, 7, 67, 0
9, 16068, Note_on_c, 7, 64, 0
9, 16068, Note_on_c, 7, 62, 105
9, 16068, Note_on_c, 7, 65, 105
9, 16308, Note_on_c, 7, 65, 0
9, 16308, Note_on_c, 7, 62, 0
9, 16308, Note_on_c, 7, 60, 105
9, 16308, Note_on_c, 7, 64, 105
9, 16737, Note_on_c, 7, 60, 0
9, 16757, Note_on_c, 7, 64, 0
9, 16788, Note_on_c, 7, 60, 111
9, 16788, Note_on_c, 7, 64, 111
9, 16908, Note_on_c, 7, 62, 112
9, 16908, Note_on_c, 7, 65, 112
9, 16948, Note_on_c, 7, 64, 0
9, 16948, Note_on_c, 7, 60, 0
9, 17028, Note_on_c, 7, 64, 110
9, 17028, Note_on_c, 7, 67, 110
9, 17068, Note_on_c, 7, 62, 0
9, 17068, Note_on_c, 7, 65, 0
9, 17133, Note_on_c, 7, 64, 0
9, 17148, Note_on_c, 7, 60, 107
9, 17148, Note_on_c, 7, 64, 107
9, 17188, Note_on_c, 7, 67, 0
9, 17268, Note_on_c, 7, 64, 0
9, 17268, Note_on_c, 7, 60, 0
9, 17268, Note_on_c, 7, 65, 103
9, 17268, Note_on_c, 7, 69, 103
9, 17748, Note_on_c, 7, 69, 0
9, 17748, Note_on_c, 7, 65, 0
9, 17748, Note_on_c, 7, 60, 78
9, 17748, Note_on_c, 7, 69, 78
9, 17844, Note_on_c, 7, 69, 0
9, 17844, Note_on_c, 7, 60, 0
9, 18228, Note_on_c, 7, 59, 70
9, 18228, Note_on_c, 7, 67, 70
9, 18324, Note_on_c, 7, 67, 0
9, 18324, Note_on_c, 7, 59, 0
9, 18708, Note_on_c, 7, 57, 70
9, 18708, Note_on_c, 7, 65, 70
9, 18804, Note_on_c, 7, 65, 0
9, 18804, Note_on_c, 7, 57, 0
9, 19188, Note_on_c, 7, 55, 70
9, 19188, Note_on_c, 7, 64, 70
9, 19908, Note_on_c, 7, 64, 0
9, 19908, Note_on_c, 7, 55, 0
9, 19908, Note_on_c, 7, 53, 70
9, 19908, Note_on_c, 7, 62, 70
9, 20148, Note_on_c, 7, 62, 0
9, 20148, Note_on_c, 7, 53, 0
9, 20148, Note_on_c, 7, 52, 70
9, 20148, Note_on_c, 7, 60, 70
9, 20628, Note_on_c, 7, 60, 0
9, 20628, Note_on_c, 7, 52, 0
9, 20628, Note_on_c, 7, 60, 105
9, 20748, Note_on_c, 7, 60, 0
9, 20748, Note_on_c, 7, 59, 105
9, 20748, Note_on_c, 7, 62, 105
9, 20868, Note_on_c, 7, 62, 0
9, 20868, Note_on_c, 7, 59, 0
9, 20868, Note_on_c, 7, 60, 105
9, 20868, Note_on_c, 7, 64, 105
9, 20988, Note_on_c, 7, 64, 0
9, 20988, Note_on_c, 7, 60, 0
9, 20988, Note_on_c, 7, 55, 105
9, 20988, Note_on_c, 7, 60, 105
9, 21108, Note_on_c, 7, 60, 0
9, 21108, Note_on_c, 7, 55, 0
9, 21108, Note_on_c, 7, 59, 105
9, 21348, Note_on_c, 7, 59, 0
9, 21348, Note_on_c, 7, 74, 105
9, 21588, Note_on_c, 7, 74, 0
9, 21588, Note_on_c, 7, 71, 105
9, 21828, Note_on_c, 7, 71, 0
9, 21828, Note_on_c, 7, 67, 105
9, 22068, Note_on_c, 7, 67, 0
9, 22068, Note_on_c, 7, 65, 105
9, 22308, Note_on_c, 7, 65, 0
9, 22308, Note_on_c, 7, 62, 105
9, 22548, Note_on_c, 7, 62, 0
9, 22548, Note_on_c, 7, 59, 105
9, 22788, Note_on_c, 7, 59, 0
9, 22788, Note_on_c, 7, 55, 105
9, 23028, Note_on_c, 7, 55, 0
9, 23028, Note_on_c, 7, 60, 105
9, 23268, Note_on_c, 7, 60, 0
9, 23268, Note_on_c, 7, 76, 105
9, 23508, Note_on_c, 7, 76, 0
9, 23508, Note_on_c, 7, 72, 105
9, 23748, Note_on_c, 7, 72, 0
9, 23748, Note_on_c, 7, 67, 105
9, 23988, Note_on_c, 7, 67, 0
9, 23988, Note_on_c, 7, 64, 105
9, 24228, Note_on_c, 7, 64, 0
9, 24228, Note_on_c, 7, 67, 105
9, 24468, Note_on_c, 7, 67, 0
9, 24468, Note_on_c, 7, 64, 105
9, 24708, Note_on_c, 7, 64, 0
9, 24708, Note_on_c, 7, 60, 105
9, 24948, Note_on_c, 7, 60, 0
9, 24948, Note_on_c, 7, 65, 105
9, 25188, Note_on_c, 7, 65, 0
9, 25188, Note_on_c, 7, 65, 105
9, 25428, Note_on_c, 7, 65, 0
9, 25428, Note_on_c, 7, 65, 105
9, 25668, Note_on_c, 7, 65, 0
9, 25668, Note_on_c, 7, 65, 105
9, 25908, Note_on_c, 7, 65, 0
9, 25908, Note_on_c, 7, 67, 105
9, 26148, Note_on_c, 7, 67, 0
9, 26148, Note_on_c, 7, 67, 105
9, 26388, Note_on_c, 7, 67, 0
9, 26388, Note_on_c, 7, 67, 105
9, 26628, Note_on_c, 7, 67, 0
9, 26628, Note_on_c, 7, 67, 105
9, 26868, Note_on_c, 7, 67, 0
9, 26868, Note_on_c, 7, 60, 79
9, 26964, Note_on_c, 7, 60, 0
9, 27108, Note_on_c, 7, 62, 75
9, 27204, Note_on_c, 7, 62, 0
9, 27348, Note_on_c, 7, 64, 74
9, 27444, Note_on_c, 7, 64, 0
9, 27588, Note_on_c, 7, 65, 74
9, 27684, Note_on_c, 7, 65, 0
9, 27828, Note_on_c, 7, 67, 80
9, 28308, Note_on_c, 7, 67, 0
9, 28788, Note_on_c, 7, 71, 105
9, 29028, Note_on_c, 7, 71, 0
9, 29028, Note_on_c, 7, 74, 105
9, 29268, Note_on_c, 7, 74, 0
9, 29268, Note_on_c, 7, 71, 105
9, 29508, Note_on_c, 7, 71, 0
9, 29508, Note_on_c, 7, 67, 105
9, 29748, Note_on_c, 7, 67, 0
9, 29748, Note_on_c, 7, 65, 105
9, 29988, Note_on_c, 7, 65, 0
9, 29988, Note_on_c, 7, 62, 105
9, 30228, Note_on_c, 7, 62, 0
9, 30228, Note_on_c, 7, 59, 105
9, 30468, Note_on_c, 7, 59, 0
9, 30468, Note_on_c, 7, 55, 105
9, 30708, Note_on_c, 7, 55, 0
9, 30708, Note_on_c, 7, 60, 105
9, 30948, Note_on_c, 7, 60, 0
9, 30948, Note_on_c, 7, 76, 105
9, 31188, Note_on_c, 7, 76, 0
9, 31188, Note_on_c, 7, 72, 105
9, 31428, Note_on_c, 7, 72, 0
9, 31428, Note_on_c, 7, 68, 105
9, 31668, Note_on_c, 7, 68, 0
9, 31668, Note_on_c, 7, 69, 105
9, 31908, Note_on_c, 7, 69, 0
9, 31908, Note_on_c, 7, 72, 105
9, 32148, Note_on_c, 7, 72, 0
9, 32148, Note_on_c, 7, 69, 105
9, 32388, Note_on_c, 7, 69, 0
9, 32388, Note_on_c, 7, 64, 105
9, 32628, Note_on_c, 7, 64, 0
9, 32628, Note_on_c, 7, 69, 105
9, 32868, Note_on_c, 7, 69, 0
9, 32868, Note_on_c, 7, 67, 105
9, 33108, Note_on_c, 7, 67, 0
9, 33108, Note_on_c, 7, 72, 105
9, 33348, Note_on_c, 7, 72, 0
9, 33348, Note_on_c, 7, 60, 105
9, 33588, Note_on_c, 7, 60, 0
9, 33588, Note_on_c, 7, 60, 105
9, 33828, Note_on_c, 7, 60, 0
9, 33828, Note_on_c, 7, 69, 105
9, 34308, Note_on_c, 7, 69, 0
9, 34308, Note_on_c, 7, 69, 105
9, 34548, Note_on_c, 7, 69, 0
9, 34548, Note_on_c, 7, 67, 105
9, 34788, Note_on_c, 7, 67, 0
9, 34788, Note_on_c, 7, 71, 105
9, 35028, Note_on_c, 7, 71, 0
9, 35028, Note_on_c, 7, 74, 105
9, 35268, Note_on_c, 7, 74, 0
9, 35268, Note_on_c, 7, 67, 105
9, 35508, Note_on_c, 7, 67, 0
9, 35508, Note_on_c, 7, 72, 111
9, 35748, Note_on_c, 7, 72, 0
9, 35748, Note_on_c, 7, 67, 105
9, 35988, Note_on_c, 7, 67, 0
9, 35988, Note_on_c, 7, 64, 105
9, 36228, Note_on_c, 7, 64, 0
9, 36228, Note_on_c, 7, 60, 105
9, 36468, Note_on_c, 7, 60, 0
9, 36468, Note_on_c, 7, 67, 97
9, 36708, Note_on_c, 7, 67, 0
9, 36708, Note_on_c, 7, 71, 105
9, 36948, Note_on_c, 7, 71, 0
9, 36948, Note_on_c, 7, 74, 105
9, 37188, Note_on_c, 7, 74, 0
9, 37188, Note_on_c, 7, 67, 105
9, 37428, Note_on_c, 7, 67, 0
9, 37428, Note_on_c, 7, 72, 112
9, 37668, Note_on_c, 7, 72, 0
9, 37668, Note_on_c, 7, 67, 105
9, 37908, Note_on_c, 7, 67, 0
9, 37908, Note_on_c, 7, 64, 105
9, 38148, Note_on_c, 7, 64, 0
9, 38148, Note_on_c, 7, 60, 105
9, 38388, Note_on_c, 7, 60, 0
9, 38388, Note_on_c, 7, 55, 94
9, 38868, Note_on_c, 7, 55, 0
9, 38868, Note_on_c, 7, 67, 105
9, 39348, Note_on_c, 7, 67, 0
9, 39348, Note_on_c, 7, 55, 105
9, 39828, Note_on_c, 7, 55, 0
9, 44148, Note_on_c, 7, 64, 80
9, 44148, Note_on_c, 7, 67, 80
9, 44268, Note_on_c, 7, 65, 83
9, 44268, Note_on_c, 7, 69, 83
9, 44308, Note_on_c, 7, 67, 0
9, 44308, Note_on_c, 7, 64, 0
9, 44388, Note_on_c, 7, 64, 83
9, 44388, Note_on_c, 7, 67, 83
9, 44428, Note_on_c, 7, 65, 0
9, 44428, Note_on_c, 7, 69, 0
9, 44508, Note_on_c, 7, 62, 78
9, 44508, Note_on_c, 7, 65, 78
9, 44548, Note_on_c, 7, 64, 0
9, 44548, Note_on_c, 7, 67, 0
9, 44628, Note_on_c, 7, 62, 0
9, 44628, Note_on_c, 7, 65, 0
9, 44628, Note_on_c, 7, 60, 90
9, 44628, Note_on_c, 7, 64, 90
9, 45108, Note_on_c, 7, 64, 0
9, 45108, Note_on_c, 7, 60, 0
9, 47988, Note_on_c, 7, 64, 81
9, 47988, Note_on_c, 7, 67, 81
9, 48108, Note_on_c, 7, 65, 85
9, 48108, Note_on_c, 7, 69, 85
9, 48148, Note_on_c, 7, 67, 0
9, 48148, Note_on_c, 7, 64, 0
9, 48228, Note_on_c, 7, 64, 85
9, 48228, Note_on_c, 7, 67, 85
9, 48268, Note_on_c, 7, 65, 0
9, 48268, Note_on_c, 7, 69, 0
9, 48348, Note_on_c, 7, 62, 78
9, 48348, Note_on_c, 7, 65, 78
9, 48388, Note_on_c, 7, 64, 0
9, 48388, Note_on_c, 7, 67, 0
9, 48468, Note_on_c, 7, 62, 0
9, 48468, Note_on_c, 7, 65, 0
9, 48468, Note_on_c, 7, 60, 80
9, 48468, Note_on_c, 7, 64, 80
9, 48948, Note_on_c, 7, 64, 0
9, 48948, Note_on_c, 7, 60, 0
9, 51828, Note_on_c, 7, 64, 82
9, 51828, Note_on_c, 7, 67, 82
9, 51948, Note_on_c, 7, 65, 88
9, 51948, Note_on_c, 7, 69, 88
9, 51988, Note_on_c, 7, 67, 0
9, 51988, Note_on_c, 7, 64, 0
9, 52068, Note_on_c, 7, 64, 90
9, 52068, Note_on_c, 7, 67, 90
9, 52108, Note_on_c, 7, 65, 0
9, 52108, Note_on_c, 7, 69, 0
9, 52188, Note_on_c, 7, 62, 84
9, 52188, Note_on_c, 7, 65, 84
9, 52228, Note_on_c, 7, 64, 0
9, 52228, Note_on_c, 7, 67, 0
9, 52308, Note_on_c, 7, 62, 0
9, 52308, Note_on_c, 7, 65, 0
9, 52308, Note_on_c, 7, 60, 87
9, 52308, Note_on_c, 7, 64, 87
9, 52788, Note_on_c, 7, 64, 0
9, 52788, Note_on_c, 7, 60, 0
9, 53748, Note_on_c, 7, 57, 91
9, 53748, Note_on_c, 7, 60, 91
9, 53868, Note_on_c, 7, 58, 96
9, 53868, Note_on_c, 7, 62, 96
9, 53908, Note_on_c, 7, 60, 0
9, 53908, Note_on_c, 7, 57, 0
9, 53988, Note_on_c, 7, 57, 96
9, 53988, Note_on_c, 7, 60, 96
9, 54028, Note_on_c, 7, 58, 0
9, 54028, Note_on_c, 7, 62, 0
9, 54108, Note_on_c, 7, 55, 88
9, 54108, Note_on_c, 7, 58, 88
9, 54148, Note_on_c, 7, 57, 0
9, 54148, Note_on_c, 7, 60, 0
9, 54228, Note_on_c, 7, 55, 0
9, 54228, Note_on_c, 7, 58, 0
9, 54228, Note_on_c, 7, 53, 89
9, 54228, Note_on_c, 7, 57, 89
9, 54708, Note_on_c, 7, 57, 0
9, 54708, Note_on_c, 7, 53, 0
9, 55668, Note_on_c, 7, 55, 100
9, 55668, Note_on_c, 7, 58, 100
9, 55788, Note_on_c, 7, 57, 109
9, 55788, Note_on_c, 7, 60, 109
9, 55828, Note_on_c, 7, 58, 0
9, 55828, Note_on_c, 7, 55, 0
9, 55908, Note_on_c, 7, 55, 109
9, 55908, Note_on_c, 7, 58, 109
9, 55948, Note_on_c, 7, 57, 0
9, 55948, Note_on_c, 7, 60, 0
9, 56028, Note_on_c, 7, 53, 99
9, 56028, Note_on_c, 7, 57, 99
9, 56068, Note_on_c, 7, 55, 0
9, 56068, Note_on_c, 7, 58, 0
9, 56148, Note_on_c, 7, 53, 0
9, 56148, Note_on_c, 7, 57, 0
9, 56148, Note_on_c, 7, 52, 103
9, 56148, Note_on_c, 7, 55, 103
9, 56628, Note_on_c, 7, 55, 0
9, 56628, Note_on_c, 7, 52, 0
9, 61428, Note_on_c, 7, 55, 105
9, 61428, Note_on_c, 7, 67, 105
9, 61596, Note_on_c, 7, 67, 0
9, 61596, Note_on_c, 7, 55, 0
9, 61668, Note_on_c, 7, 55, 105
9, 61668, Note_on_c, 7, 67, 105
9, 61836, Note_on_c, 7, 67, 0
9, 61836, Note_on_c, 7, 55, 0
9, 61908, Note_on_c, 7, 55, 105
9, 61908, Note_on_c, 7, 67, 105
9, 62076, Note_on_c, 7, 67, 0
9, 62076, Note_on_c, 7, 55, 0
9, 62148, Note_on_c, 7, 55, 105
9, 62148, Note_on_c, 7, 67, 105
9, 62316, Note_on_c, 7, 67, 0
9, 62316, Note_on_c, 7, 55, 0
9, 62388, Note_on_c, 7, 55, 105
9, 62388, Note_on_c, 7, 67, 105
9, 62556, Note_on_c, 7, 67, 0
9, 62556, Note_on_c, 7, 55, 0
9, 62628, Note_on_c, 7, 55, 105
9, 62628, Note_on_c, 7, 67, 105
9, 62796, Note_on_c, 7, 67, 0
9, 62796, Note_on_c, 7, 55, 0
9, 62868, Note_on_c, 7, 55, 105
9, 62868, Note_on_c, 7, 67, 105
9, 63036, Note_on_c, 7, 67, 0
9, 63036, Note_on_c, 7, 55, 0
9, 63108, Note_on_c, 7, 55, 105
9, 63108, Note_on_c, 7, 67, 105
9, 63276, Note_on_c, 7, 67, 0
9, 63276, Note_on_c, 7, 55, 0
9, 63348, Note_on_c, 7, 55, 105
9, 63348, Note_on_c, 7, 67, 105
9, 63516, Note_on_c, 7, 67, 0
9, 63516, Note_on_c, 7, 55, 0
9, 63588, Note_on_c, 7, 55, 105
9, 63588, Note_on_c, 7, 67, 105
9, 63756, Note_on_c, 7, 67, 0
9, 63756, Note_on_c, 7, 55, 0
9, 63828, Note_on_c, 7, 55, 105
9, 63828, Note_on_c, 7, 67, 105
9, 63996, Note_on_c, 7, 67, 0
9, 63996, Note_on_c, 7, 55, 0
9, 64068, Note_on_c, 7, 55, 105
9, 64068, Note_on_c, 7, 67, 105
9, 64236, Note_on_c, 7, 67, 0
9, 64236, Note_on_c, 7, 55, 0
9, 64308, Note_on_c, 7, 55, 105
9, 64308, Note_on_c, 7, 67, 105
9, 64476, Note_on_c, 7, 67, 0
9, 64476, Note_on_c, 7, 55, 0
9, 64548, Note_on_c, 7, 55, 105
9, 64548, Note_on_c, 7, 67, 105
9, 64716, Note_on_c, 7, 67, 0
9, 64716, Note_on_c, 7, 55, 0
9, 64788, Note_on_c, 7, 55, 105
9, 64788, Note_on_c, 7, 67, 105
9, 64956, Note_on_c, 7, 67, 0
9, 64956, Note_on_c, 7, 55, 0
9, 65028, Note_on_c, 7, 55, 105
9, 65028, Note_on_c, 7, 67, 105
9, 65196, Note_on_c, 7, 67, 0
9, 65196, Note_on_c, 7, 55, 0
9, 65268, Note_on_c, 7, 55, 105
9, 65268, Note_on_c, 7, 67, 105
9, 65748, Note_on_c, 7, 67, 0
9, 65748, Note_on_c, 7, 55, 0
9, 72948, Note_on_c, 7, 64, 105
9, 73116, Note_on_c, 7, 64, 0
9, 73188, Note_on_c, 7, 64, 105
9, 73356, Note_on_c, 7, 64, 0
9, 73428, Note_on_c, 7, 64, 105
9, 73596, Note_on_c, 7, 64, 0
9, 73668, Note_on_c, 7, 64, 105
9, 73836, Note_on_c, 7, 64, 0
9, 73908, Note_on_c, 7, 65, 105
9, 74076, Note_on_c, 7, 65, 0
9, 74148, Note_on_c, 7, 65, 105
9, 74316, Note_on_c, 7, 65, 0
9, 74388, Note_on_c, 7, 65, 105
9, 74556, Note_on_c, 7, 65, 0
9, 74628, Note_on_c, 7, 65, 105
9, 74796, Note_on_c, 7, 65, 0
9, 74868, Note_on_c, 7, 67, 105
9, 75036, Note_on_c, 7, 67, 0
9, 75108, Note_on_c, 7, 67, 105
9, 75276, Note_on_c, 7, 67, 0
9, 75348, Note_on_c, 7, 67, 105
9, 75516, Note_on_c, 7, 67, 0
9, 75588, Note_on_c, 7, 67, 105
9, 75756, Note_on_c, 7, 67, 0
9, 75828, Note_on_c, 7, 67, 105
9, 75996, Note_on_c, 7, 67, 0
9, 76068, Note_on_c, 7, 67, 105
9, 76236, Note_on_c, 7, 67, 0
9, 76308, Note_on_c, 7, 55, 105
9, 76476, Note_on_c, 7, 55, 0
9, 76548, Note_on_c, 7, 55, 105
9, 76716, Note_on_c, 7, 55, 0
9, 76788, Note_on_c, 7, 60, 105
9, 77028, Note_on_c, 7, 60, 0
9, 77028, Note_on_c, 7, 64, 105
9, 77268, Note_on_c, 7, 64, 0
9, 77268, Note_on_c, 7, 67, 105
9, 77508, Note_on_c, 7, 67, 0
9, 77508, Note_on_c, 7, 64, 105
9, 77748, Note_on_c, 7, 64, 0
9, 77748, Note_on_c, 7, 60, 105
9, 77988, Note_on_c, 7, 60, 0
9, 77988, Note_on_c, 7, 64, 105
9, 78228, Note_on_c, 7, 64, 0
9, 78228, Note_on_c, 7, 67, 105
9, 78468, Note_on_c, 7, 67, 0
9, 78468, Note_on_c, 7, 64, 105
9, 78708, Note_on_c, 7, 64, 0
9, 78708, Note_on_c, 7, 60, 105
9, 78948, Note_on_c, 7, 60, 0
9, 78948, Note_on_c, 7, 64, 105
9, 79188, Note_on_c, 7, 64, 0
9, 79188, Note_on_c, 7, 67, 105
9, 79428, Note_on_c, 7, 67, 0
9, 79428, Note_on_c, 7, 64, 105
9, 79668, Note_on_c, 7, 64, 0
9, 79668, Note_on_c, 7, 60, 105
9, 79908, Note_on_c, 7, 60, 0
9, 79908, Note_on_c, 7, 64, 105
9, 80148, Note_on_c, 7, 64, 0
9, 80148, Note_on_c, 7, 67, 105
9, 80388, Note_on_c, 7, 67, 0
9, 80388, Note_on_c, 7, 64, 105
9, 80628, Note_on_c, 7, 64, 0
9, 80628, Note_on_c, 7, 60, 105
9, 81062, Note_on_c, 7, 60, 0
9, 103908, Note_on_c, 7, 60, 70
9, 104076, Note_on_c, 7, 60, 0
9, 104148, Note_on_c, 7, 60, 70
9, 104316, Note_on_c, 7, 60, 0
9, 104388, Note_on_c, 7, 60, 70
9, 104556, Note_on_c, 7, 60, 0
9, 104628, Note_on_c, 7, 60, 70
9, 104796, Note_on_c, 7, 60, 0
9, 104868, Note_on_c, 7, 60, 70
9, 105036, Note_on_c, 7, 60, 0
9, 105108, Note_on_c, 7, 60, 70
9, 105276, Note_on_c, 7, 60, 0
9, 105348, Note_on_c, 7, 60, 70
9, 105516, Note_on_c, 7, 60, 0
9, 105828, Note_on_c, 7, 60, 70
9, 105996, Note_on_c, 7, 60, 0
9, 106068, Note_on_c, 7, 60, 70
9, 106236, Note_on_c, 7, 60, 0
9, 106308, Note_on_c, 7, 60, 70
9, 106476, Note_on_c, 7, 60, 0
9, 106548, Note_on_c, 7, 60, 70
9, 106716, Note_on_c, 7, 60, 0
9, 106788, Note_on_c, 7, 60, 70
9, 106956, Note_on_c, 7, 60, 0
9, 107028, Note_on_c, 7, 60, 70
9, 107196, Note_on_c, 7, 60, 0
9, 107268, Note_on_c, 7, 60, 70
9, 107436, Note_on_c, 7, 60, 0
9, 107748, Note_on_c, 7, 60, 70
9, 107916, Note_on_c, 7, 60, 0
9, 107988, Note_on_c, 7, 60, 70
9, 108156, Note_on_c, 7, 60, 0
9, 108228, Note_on_c, 7, 60, 70
9, 108396, Note_on_c, 7, 60, 0
9, 108468, Note_on_c, 7, 60, 70
9, 108636, Note_on_c, 7, 60, 0
9, 108708, Note_on_c, 7, 60, 70
9, 108876, Note_on_c, 7, 60, 0
9, 108948, Note_on_c, 7, 60, 70
9, 109116, Note_on_c, 7, 60, 0
9, 109188, Note_on_c, 7, 60, 70
9, 109356, Note_on_c, 7, 60, 0
9, 109428, Note_on_c, 7, 57, 70
9, 110388, Note_on_c, 7, 55, 70
9, 110507, Note_on_c, 7, 57, 0
9, 111292, Note_on_c, 7, 55, 0
9, 111348, Note_on_c, 7, 55, 70
9, 111767, Note_on_c, 7, 55, 0
9, 113268, Note_on_c, 7, 72, 70
9, 117588, Note_on_c, 7, 72, 0
9, 117588, Note_on_c, 7, 67, 70
9, 118548, Note_on_c, 7, 67, 0
9, 118548, Note_on_c, 7, 67, 70
9, 119028, Note_on_c, 7, 67, 0
9, 119028, Note_on_c, 7, 67, 70
9, 119508, Note_on_c, 7, 67, 0
9, 125028, Note_on_c, 7, 55, 70
9, 125124, Note_on_c, 7, 55, 0
9, 125268, Note_on_c, 7, 57, 70
9, 125364, Note_on_c, 7, 57, 0
9, 125508, Note_on_c, 7, 59, 70
9, 125604, Note_on_c, 7, 59, 0
9, 125748, Note_on_c, 7, 60, 70
9, 125844, Note_on_c, 7, 60, 0
9, 125988, Note_on_c, 7, 62, 70
9, 126084, Note_on_c, 7, 62, 0
9, 126228, Note_on_c, 7, 64, 70
9, 126324, Note_on_c, 7, 64, 0
9, 126468, Note_on_c, 7, 66, 74
9, 126564, Note_on_c, 7, 66, 0
9, 126708, Note_on_c, 7, 67, 82
9, 127188, Note_on_c, 7, 67, 0
9, 128868, Note_on_c, 7, 67, 105
9, 128964, Note_on_c, 7, 67, 0
9, 129108, Note_on_c, 7, 71, 105
9, 129204, Note_on_c, 7, 71, 0
9, 129348, Note_on_c, 7, 67, 105
9, 129444, Note_on_c, 7, 67, 0
9, 129588, Note_on_c, 7, 62, 105
9, 129684, Note_on_c, 7, 62, 0
9, 129828, Note_on_c, 7, 67, 105
9, 129924, Note_on_c, 7, 67, 0
9, 130068, Note_on_c, 7, 59, 105
9, 130164, Note_on_c, 7, 59, 0
9, 130308, Note_on_c, 7, 62, 105
9, 130404, Note_on_c, 7, 62, 0
9, 130548, Note_on_c, 7, 55, 105
9, 131028, Note_on_c, 7, 55, 0
9, 147828, Control_c, 7, 0, 0
9, 147828, Control_c, 7, 32, 0
9, 147828, Program_c, 7, 45
9, 149748, Note_on_c, 7, 50, 70
9, 149988, Note_on_c, 7, 50, 0
9, 150228, Note_on_c, 7, 62, 70
9, 150468, Note_on_c, 7, 62, 0
9, 150708, Note_on_c, 7, 66, 70
9, 150948, Note_on_c, 7, 66, 0
9, 151188, Note_on_c, 7, 62, 70
9, 151428, Note_on_c, 7, 62, 0
9, 151668, Note_on_c, 7, 60, 70
9, 151908, Note_on_c, 7, 60, 0
9, 152148, Note_on_c, 7, 57, 70
9, 152388, Note_on_c, 7, 57, 0
9, 152628, Note_on_c, 7, 54, 70
9, 152868, Note_on_c, 7, 54, 0
9, 153108, Note_on_c, 7, 62, 70
9, 153348, Note_on_c, 7, 62, 0
9, 153588, Note_on_c, 7, 55, 70
9, 153588, Note_on_c, 7, 62, 70
9, 154068, Note_on_c, 7, 62, 0
9, 154068, Note_on_c, 7, 55, 0
9, 157428, Note_on_c, 7, 50, 70
9, 157668, Note_on_c, 7, 50, 0
9, 157908, Note_on_c, 7, 62, 70
9, 158148, Note_on_c, 7, 62, 0
9, 158388, Note_on_c, 7, 66, 70
9, 158628, Note_on_c, 7, 66, 0
9, 158868, Note_on_c, 7, 62, 70
9, 159108, Note_on_c, 7, 62, 0
9, 159348, Note_on_c, 7, 60, 70
9, 159588, Note_on_c, 7, 60, 0
9, 159828, Note_on_c, 7, 57, 70
9, 160068, Note_on_c, 7, 57, 0
9, 160308, Note_on_c, 7, 54, 70
9, 160548, Note_on_c, 7, 54, 0
9, 160788, Note_on_c, 7, 62, 70
9, 161028, Note_on_c, 7, 62, 0
9, 161268, Note_on_c, 7, 55, 70
9, 161748, Note_on_c, 7, 55, 0
9, 162708, Control_c, 7, 0, 0
9, 162708, Control_c, 7, 32, 0
9, 162708, Program_c, 7, 48
9, 165108, Note_on_c, 7, 62, 105
9, 165348, Note_on_c, 7, 62, 0
9, 165348, Note_on_c, 7, 66, 105
9, 165588, Note_on_c, 7, 66, 0
9, 165588, Note_on_c, 7, 69, 105
9, 165828, Note_on_c, 7, 69, 0
9, 165828, Note_on_c, 7, 62, 105
9, 166068, Note_on_c, 7, 62, 0
9, 166068, Note_on_c, 7, 67, 105
9, 166308, Note_on_c, 7, 67, 0
9, 166308, Note_on_c, 7, 62, 105
9, 166548, Note_on_c, 7, 62, 0
9, 166548, Note_on_c, 7, 59, 105
9, 166788, Note_on_c, 7, 59, 0
9, 166788, Note_on_c, 7, 55, 105
9, 167028, Note_on_c, 7, 55, 0
9, 167028, Note_on_c, 7, 62, 105
9, 167268, Note_on_c, 7, 62, 0
9, 167268, Note_on_c, 7, 66, 105
9, 167508, Note_on_c, 7, 66, 0
9, 167508, Note_on_c, 7, 69, 105
9, 167748, Note_on_c, 7, 69, 0
9, 167748, Note_on_c, 7, 62, 105
9, 167988, Note_on_c, 7, 62, 0
9, 167988, Note_on_c, 7, 67, 105
9, 168228, Note_on_c, 7, 67, 0
9, 168228, Note_on_c, 7, 74, 105
9, 168468, Note_on_c, 7, 74, 0
9, 168468, Note_on_c, 7, 71, 105
9, 168708, Note_on_c, 7, 71, 0
9, 168708, Note_on_c, 7, 67, 105
9, 168948, Note_on_c, 7, 67, 0
9, 168948, Note_on_c, 7, 62, 105
9, 169428, Note_on_c, 7, 62, 0
9, 174708, Note_on_c, 7, 67, 70
9, 175668, Note_on_c, 7, 71, 70
9, 175782, Note_on_c, 7, 67, 0
9, 176547, Note_on_c, 7, 71, 0
9, 176628, Note_on_c, 7, 69, 70
9, 177588, Note_on_c, 7, 62, 70
9, 177657, Note_on_c, 7, 69, 0
9, 178457, Note_on_c, 7, 62, 0
9, 178548, Note_on_c, 7, 67, 70
9, 179508, Note_on_c, 7, 71, 70
9, 179572, Note_on_c, 7, 67, 0
9, 180392, Note_on_c, 7, 71, 0
9, 180468, Note_on_c, 7, 69, 70
9, 181428, Note_on_c, 7, 62, 70
9, 181492, Note_on_c, 7, 69, 0
9, 182327, Note_on_c, 7, 62, 0
9, 182388, Note_on_c, 7, 55, 70
9, 183348, Note_on_c, 7, 53, 70
9, 183432, Note_on_c, 7, 55, 0
9, 184232, Note_on_c, 7, 53, 0
9, 184308, Note_on_c, 7, 52, 70
9, 185268, Note_on_c, 7, 60, 70
9, 185337, Note_on_c, 7, 52, 0
9, 186167, Note_on_c, 7, 60, 0
9, 186228, Note_on_c, 7, 59, 70
9, 187188, Note_on_c, 7, 59, 0
9, 187188, Note_on_c, 7, 71, 70
9, 188148, Note_on_c, 7, 72, 70
9, 188227, Note_on_c, 7, 71, 0
9, 188628, Note_on_c, 7, 72, 0
9, 189348, Note_on_c, 7, 67, 75
9, 189444, Note_on_c, 7, 67, 0
9, 189588, Note_on_c, 7, 62, 72
9, 189684, Note_on_c, 7, 62, 0
9, 189828, Note_on_c, 7, 59, 70
9, 189924, Note_on_c, 7, 59, 0
9, 190068, Note_on_c, 7, 60, 67
9, 190548, Note_on_c, 7, 60, 0
9, 191268, Note_on_c, 7, 67, 80
9, 191364, Note_on_c, 7, 67, 0
9, 191508, Note_on_c, 7, 62, 77
9, 191604, Note_on_c, 7, 62, 0
9, 191748, Note_on_c, 7, 59, 74
9, 191844, Note_on_c, 7, 59, 0
9, 191988, Note_on_c, 7, 57, 71
9, 192468, Note_on_c, 7, 57, 0
9, 192468, Note_on_c, 7, 57, 70
9, 192948, Note_on_c, 7, 57, 0
9, 193428, Note_on_c, 7, 50, 70
9, 193908, Note_on_c, 7, 50, 0
9, 194388, Note_on_c, 7, 55, 70
9, 194868, Note_on_c, 7, 55, 0
9, 195348, Note_on_c, 7, 52, 70
9, 195828, Note_on_c, 7, 52, 0
9, 195828, Note_on_c, 7, 60, 70
9, 196788, Note_on_c, 7, 60, 0
9, 196788, Note_on_c, 7, 62, 70
9, 197508, Note_on_c, 7, 62, 0
9, 197508, Note_on_c, 7, 60, 77
9, 197748, Note_on_c, 7, 60, 0
9, 197748, Note_on_c, 7, 59, 70
9, 197844, Note_on_c, 7, 59, 0
9, 197988, Note_on_c, 7, 57, 72
9, 198084, Note_on_c, 7, 57, 0
9, 198228, Note_on_c, 7, 59, 75
9, 198324, Note_on_c, 7, 59, 0
9, 198468, Note_on_c, 7, 60, 77
9, 198564, Note_on_c, 7, 60, 0
9, 198708, Note_on_c, 7, 62, 80
9, 199188, Note_on_c, 7, 62, 0
9, 203508, Note_on_c, 7, 60, 70
9, 204468, Note_on_c, 7, 62, 70
9, 204547, Note_on_c, 7, 60, 0
9, 205367, Note_on_c, 7, 62, 0
9, 205428, Note_on_c, 7, 55, 70
9, 205908, Note_on_c, 7, 55, 0
9, 213108, Control_c, 7, 0, 0
9, 213108, Control_c, 7, 32, 0
9, 213108, Program_c, 7, 45
9, 214068, Note_on_c, 7, 67, 70
9, 214308, Note_on_c, 7, 67, 0
9, 214548, Note_on_c, 7, 62, 70
9, 214788, Note_on_c, 7, 62, 0
9, 215028, Note_on_c, 7, 59, 70
9, 215508, Note_on_c, 7, 59, 0
9, 215988, Note_on_c, 7, 67, 70
9, 216156, Note_on_c, 7, 67, 0
9, 216228, Note_on_c, 7, 67, 70
9, 216396, Note_on_c, 7, 67, 0
9, 216468, Note_on_c, 7, 62, 70
9, 216636, Note_on_c, 7, 62, 0
9, 216708, Note_on_c, 7, 62, 70
9, 216876, Note_on_c, 7, 62, 0
9, 216948, Note_on_c, 7, 59, 70
9, 217428, Note_on_c, 7, 59, 0
9, 217908, Note_on_c, 7, 67, 70
9, 218148, Note_on_c, 7, 67, 0
9, 218388, Note_on_c, 7, 62, 70
9, 218628, Note_on_c, 7, 62, 0
9, 218868, Note_on_c, 7, 59, 70
9, 219108, Note_on_c, 7, 59, 0
9, 219348, Note_on_c, 7, 62, 70
9, 219588, Note_on_c, 7, 62, 0
9, 219828, Note_on_c, 7, 67, 70
9, 220068, Note_on_c, 7, 67, 0
9, 220308, Note_on_c, 7, 62, 70
9, 220548, Note_on_c, 7, 62, 0
9, 220788, Note_on_c, 7, 55, 70
9, 221268, Note_on_c, 7, 55, 0
9, 221748, Note_on_c, 7, 60, 70
9, 221748, Note_on_c, 7, 64, 70
9, 222228, Note_on_c, 7, 64, 0
9, 222228, Note_on_c, 7, 60, 0
9, 222708, Note_on_c, 7, 62, 70
9, 223188, Note_on_c, 7, 62, 0
9, 223668, Note_on_c, 7, 62, 70
9, 224148, Note_on_c, 7, 62, 0
9, 224268, Control_c, 7, 0, 0
9, 224268, Control_c, 7, 32, 0
9, 224268, Program_c, 7, 48
9, 224628, Note_on_c, 7, 59, 70
9, 225588, Note_on_c, 7, 60, 70
9, 225667, Note_on_c, 7, 59, 0
9, 226482, Note_on_c, 7, 60, 0
9, 226548, Note_on_c, 7, 62, 70
9, 226716, Note_on_c, 7, 62, 0
9, 226788, Note_on_c, 7, 62, 70
9, 226956, Note_on_c, 7, 62, 0
9, 227028, Note_on_c, 7, 62, 70
9, 227196, Note_on_c, 7, 62, 0
9, 227268, Note_on_c, 7, 62, 70
9, 227436, Note_on_c, 7, 62, 0
9, 227508, Note_on_c, 7, 62, 70
9, 227676, Note_on_c, 7, 62, 0
9, 227748, Note_on_c, 7, 62, 70
9, 227916, Note_on_c, 7, 62, 0
9, 227988, Note_on_c, 7, 62, 70
9, 228156, Note_on_c, 7, 62, 0
9, 228228, Note_on_c, 7, 62, 70
9, 228396, Note_on_c, 7, 62, 0
9, 228468, Note_on_c, 7, 62, 70
9, 228636, Note_on_c, 7, 62, 0
9, 228708, Note_on_c, 7, 62, 73
9, 228876, Note_on_c, 7, 62, 0
9, 228948, Note_on_c, 7, 62, 77
9, 229116, Note_on_c, 7, 62, 0
9, 229188, Note_on_c, 7, 62, 81
9, 229356, Note_on_c, 7, 62, 0
9, 229428, Note_on_c, 7, 62, 85
9, 229596, Note_on_c, 7, 62, 0
9, 229668, Note_on_c, 7, 62, 89
9, 229836, Note_on_c, 7, 62, 0
9, 229908, Note_on_c, 7, 62, 93
9, 230076, Note_on_c, 7, 62, 0
9, 230148, Note_on_c, 7, 62, 97
9, 230316, Note_on_c, 7, 62, 0
9, 230388, Note_on_c, 7, 62, 102
9, 230868, Note_on_c, 7, 62, 0
9, 230868, Note_on_c, 7, 64, 105
9, 230868, Note_on_c, 7, 67, 105
9, 230964, Note_on_c, 7, 67, 0
9, 230964, Note_on_c, 7, 64, 0
9, 231348, Note_on_c, 7, 62, 105
9, 231348, Note_on_c, 7, 66, 105
9, 231444, Note_on_c, 7, 66, 0
9, 231444, Note_on_c, 7, 62, 0
9, 231828, Note_on_c, 7, 60, 105
9, 231828, Note_on_c, 7, 64, 105
9, 231924, Note_on_c, 7, 64, 0
9, 231924, Note_on_c, 7, 60, 0
9, 232308, Note_on_c, 7, 59, 105
9, 232308, Note_on_c, 7, 62, 105
9, 233028, Note_on_c, 7, 62, 0
9, 233028, Note_on_c, 7, 59, 0
9, 233028, Note_on_c, 7, 57, 105
9, 233028, Note_on_c, 7, 60, 105
9, 233268, Note_on_c, 7, 60, 0
9, 233268, Note_on_c, 7, 57, 0
9, 233268, Note_on_c, 7, 55, 105
9, 233268, Note_on_c, 7, 59, 105
9, 233748, Note_on_c, 7, 59, 0
9, 233748, Note_on_c, 7, 55, 0
9, 233748, Note_on_c, 7, 55, 108
9, 233748, Note_on_c, 7, 59, 108
9, 233868, Note_on_c, 7, 57, 114
9, 233868, Note_on_c, 7, 60, 114
9, 233908, Note_on_c, 7, 59, 0
9, 233908, Note_on_c, 7, 55, 0
9, 233988, Note_on_c, 7, 59, 117
9, 233988, Note_on_c, 7, 62, 117
9, 234028, Note_on_c, 7, 57, 0
9, 234028, Note_on_c, 7, 60, 0
9, 234080, Note_on_c, 7, 59, 0
9, 234108, Note_on_c, 7, 55, 109
9, 234108, Note_on_c, 7, 59, 109
9, 234148, Note_on_c, 7, 62, 0
9, 234228, Note_on_c, 7, 59, 0
9, 234228, Note_on_c, 7, 55, 0
9, 234228, Note_on_c, 7, 60, 114
9, 234228, Note_on_c, 7, 64, 114
9, 234708, Note_on_c, 7, 64, 0
9, 234708, Note_on_c, 7, 60, 0
9, 234708, Note_on_c, 7, 64, 70
9, 234708, Note_on_c, 7, 67, 70
9, 234804, Note_on_c, 7, 67, 0
9, 234804, Note_on_c, 7, 64, 0
9, 235188, Note_on_c, 7, 62, 70
9, 235188, Note_on_c, 7, 66, 70
9, 235284, Note_on_c, 7, 66, 0
9, 235284, Note_on_c, 7, 62, 0
9, 235668, Note_on_c, 7, 60, 70
9, 235668, Note_on_c, 7, 64, 70
9, 235764, Note_on_c, 7, 64, 0
9, 235764, Note_on_c, 7, 60, 0
9, 236148, Note_on_c, 7, 59, 70
9, 236148, Note_on_c, 7, 62, 70
9, 236868, Note_on_c, 7, 62, 0
9, 236868, Note_on_c, 7, 59, 0
9, 236868, Note_on_c, 7, 57, 70
9, 236868, Note_on_c, 7, 60, 70
9, 237108, Note_on_c, 7, 60, 0
9, 237108, Note_on_c, 7, 57, 0
9, 237108, Note_on_c, 7, 55, 70
9, 237108, Note_on_c, 7, 59, 70
9, 237588, Note_on_c, 7, 59, 0
9, 237588, Note_on_c, 7, 55, 0
9, 237588, Note_on_c, 7, 67, 110
9, 237708, Note_on_c, 7, 66, 103
9, 237708, Note_on_c, 7, 69, 103
9, 237748, Note_on_c, 7, 67, 0
9, 237828, Note_on_c, 7, 67, 106
9, 237828, Note_on_c, 7, 71, 106
9, 237868, Note_on_c, 7, 69, 0
9, 237868, Note_on_c, 7, 66, 0
9, 237920, Note_on_c, 7, 67, 0
9, 237948, Note_on_c, 7, 62, 110
9, 237948, Note_on_c, 7, 67, 110
9, 237988, Note_on_c, 7, 71, 0
9, 238068, Note_on_c, 7, 67, 0
9, 238068, Note_on_c, 7, 62, 0
9, 238068, Note_on_c, 7, 66, 104
9, 238308, Note_on_c, 7, 66, 0
9, 238308, Note_on_c, 7, 69, 105
9, 238548, Note_on_c, 7, 69, 0
9, 238548, Note_on_c, 7, 66, 105
9, 238788, Note_on_c, 7, 66, 0
9, 238788, Note_on_c, 7, 62, 105
9, 239028, Note_on_c, 7, 62, 0
9, 239028, Note_on_c, 7, 66, 105
9, 239268, Note_on_c, 7, 66, 0
9, 239268, Note_on_c, 7, 69, 105
9, 239508, Note_on_c, 7, 69, 0
9, 239508, Note_on_c, 7, 66, 105
9, 239748, Note_on_c, 7, 66, 0
9, 239748, Note_on_c, 7, 62, 105
9, 239988, Note_on_c, 7, 62, 0
9, 239988, Note_on_c, 7, 67, 105
9, 240228, Note_on_c, 7, 67, 0
9, 240228, Note_on_c, 7, 71, 105
9, 240468, Note_on_c, 7, 71, 0
9, 240468, Note_on_c, 7, 67, 105
9, 240708, Note_on_c, 7, 67, 0
9, 240708, Note_on_c, 7, 62, 105
9, 240948, Note_on_c, 7, 62, 0
9, 240948, Note_on_c, 7, 59, 105
9, 241188, Note_on_c, 7, 59, 0
9, 241188, Note_on_c, 7, 62, 105
9, 241428, Note_on_c, 7, 62, 0
9, 241428, Note_on_c, 7, 59, 105
9, 241668, Note_on_c, 7, 59, 0
9, 241668, Note_on_c, 7, 55, 105
9, 241908, Note_on_c, 7, 55, 0
9, 241908, Note_on_c, 7, 60, 105
9, 242076, Note_on_c, 7, 60, 0
9, 242148, Note_on_c, 7, 60, 105
9, 242316, Note_on_c, 7, 60, 0
9, 242388, Note_on_c, 7, 60, 105
9, 242556, Note_on_c, 7, 60, 0
9, 242628, Note_on_c, 7, 60, 105
9, 242796, Note_on_c, 7, 60, 0
9, 242868, Note_on_c, 7, 62, 105
9, 243036, Note_on_c, 7, 62, 0
9, 243108, Note_on_c, 7, 62, 105
9, 243276, Note_on_c, 7, 62, 0
9, 243348, Note_on_c, 7, 62, 105
9, 243516, Note_on_c, 7, 62, 0
9, 243588, Note_on_c, 7, 62, 105
9, 243756, Note_on_c, 7, 62, 0
9, 243828, Note_on_c, 7, 59, 105
9, 243996, Note_on_c, 7, 59, 0
9, 244068, Note_on_c, 7, 59, 105
9, 244236, Note_on_c, 7, 59, 0
9, 244308, Note_on_c, 7, 59, 105
9, 244476, Note_on_c, 7, 59, 0
9, 244548, Note_on_c, 7, 59, 105
9, 244716, Note_on_c, 7, 59, 0
9, 244788, Note_on_c, 7, 60, 105
9, 244956, Note_on_c, 7, 60, 0
9, 245028, Note_on_c, 7, 60, 105
9, 245196, Note_on_c, 7, 60, 0
9, 245268, Note_on_c, 7, 60, 105
9, 245436, Note_on_c, 7, 60, 0
9, 245508, Note_on_c, 7, 60, 105
9, 245676, Note_on_c, 7, 60, 0
9, 245748, Note_on_c, 7, 62, 105
9, 245916, Note_on_c, 7, 62, 0
9, 245988, Note_on_c, 7, 62, 105
9, 246156, Note_on_c, 7, 62, 0
9, 246228, Note_on_c, 7, 62, 105
9, 246396, Note_on_c, 7, 62, 0
9, 246468, Note_on_c, 7, 62, 105
9, 246636, Note_on_c, 7, 62, 0
9, 246708, Note_on_c, 7, 62, 105
9, 246876, Note_on_c, 7, 62, 0
9, 246948, Note_on_c, 7, 62, 105
9, 247116, Note_on_c, 7, 62, 0
9, 247188, Note_on_c, 7, 62, 105
9, 247356, Note_on_c, 7, 62, 0
9, 247428, Note_on_c, 7, 62, 105
9, 247596, Note_on_c, 7, 62, 0
9, 247668, Note_on_c, 7, 62, 105
9, 247836, Note_on_c, 7, 62, 0
9, 247908, Note_on_c, 7, 62, 105
9, 248076, Note_on_c, 7, 62, 0
9, 248148, Note_on_c, 7, 62, 105
9, 248316, Note_on_c, 7, 62, 0
9, 248388, Note_on_c, 7, 62, 105
9, 248556, Note_on_c, 7, 62, 0
9, 248628, Note_on_c, 7, 62, 105
9, 248796, Note_on_c, 7, 62, 0
9, 248868, Note_on_c, 7, 62, 105
9, 249036, Note_on_c, 7, 62, 0
9, 249108, Note_on_c, 7, 62, 105
9, 249276, Note_on_c, 7, 62, 0
9, 249348, Note_on_c, 7, 62, 105
9, 249516, Note_on_c, 7, 62, 0
9, 249588, Note_on_c, 7, 55, 105
9, 250068, Note_on_c, 7, 55, 0
9, 250068, Note_on_c, 7, 67, 70
9, 250548, Note_on_c, 7, 66, 70
9, 250617, Note_on_c, 7, 67, 0
9, 251028, Note_on_c, 7, 64, 70
9, 251092, Note_on_c, 7, 66, 0
9, 251452, Note_on_c, 7, 64, 0
9, 251508, Note_on_c, 7, 63, 105
9, 251732, Note_on_c, 7, 63, 0
9, 251988, Note_on_c, 7, 64, 70
9, 252468, Note_on_c, 7, 62, 70
9, 252522, Note_on_c, 7, 64, 0
9, 252948, Note_on_c, 7, 60, 70
9, 253002, Note_on_c, 7, 62, 0
9, 253392, Note_on_c, 7, 60, 0
9, 253428, Note_on_c, 7, 59, 105
9, 253682, Note_on_c, 7, 59, 0
9, 253908, Note_on_c, 7, 60, 70
9, 254388, Note_on_c, 7, 59, 70
9, 254452, Note_on_c, 7, 60, 0
9, 254868, Note_on_c, 7, 57, 70
9, 254947, Note_on_c, 7, 59, 0
9, 255287, Note_on_c, 7, 57, 0
9, 255348, Note_on_c, 7, 56, 105
9, 255828, Note_on_c, 7, 56, 0
9, 259188, Note_on_c, 7, 62, 70
9, 259188, Note_on_c, 7, 64, 70
9, 261108, Note_on_c, 7, 62, 0
9, 261108, Note_on_c, 7, 60, 70
9, 263028, Note_on_c, 7, 60, 0
9, 263028, Note_on_c, 7, 64, 0
9, 263028, Note_on_c, 7, 59, 70
9, 263988, Note_on_c, 7, 59, 0
9, 263988, Note_on_c, 7, 64, 70
9, 264948, Note_on_c, 7, 64, 0
9, 264948, Note_on_c, 7, 64, 70
9, 265140, Note_on_c, 7, 64, 0
9, 265428, Note_on_c, 7, 64, 70
9, 265620, Note_on_c, 7, 64, 0
9, 265908, Note_on_c, 7, 64, 70
9, 266100, Note_on_c, 7, 64, 0
9, 266868, Note_on_c, 7, 62, 70
9, 267588, Note_on_c, 7, 65, 70
9, 267647, Note_on_c, 7, 62, 0
9, 267772, Note_on_c, 7, 65, 0
9, 267828, Note_on_c, 7, 64, 70
9, 268308, Note_on_c, 7, 62, 70
9, 268372, Note_on_c, 7, 64, 0
9, 268717, Note_on_c, 7, 62, 0
9, 268788, Note_on_c, 7, 60, 105
9, 268980, Note_on_c, 7, 60, 0
9, 278388, Note_on_c, 7, 52, 70
9, 278388, Note_on_c, 7, 61, 70
9, 280308, Note_on_c, 7, 61, 0
9, 280308, Note_on_c, 7, 52, 0
9, 280308, Note_on_c, 7, 53, 70
9, 280308, Note_on_c, 7, 62, 70
9, 282228, Note_on_c, 7, 62, 0
9, 282228, Note_on_c, 7, 53, 0
9, 282228, Note_on_c, 7, 58, 70
9, 282708, Note_on_c, 7, 55, 70
9, 282777, Note_on_c, 7, 58, 0
9, 283117, Note_on_c, 7, 55, 0
9, 283188, Note_on_c, 7, 57, 70
9, 284148, Note_on_c, 7, 57, 0
9, 284148, Note_on_c, 7, 57, 70
9, 284340, Note_on_c, 7, 57, 0
9, 284628, Note_on_c, 7, 57, 70
9, 284820, Note_on_c, 7, 57, 0
9, 285108, Note_on_c, 7, 57, 70
9, 285300, Note_on_c, 7, 57, 0
9, 286068, Note_on_c, 7, 58, 70
9, 287028, Note_on_c, 7, 57, 70
9, 287112, Note_on_c, 7, 58, 0
9, 287922, Note_on_c, 7, 57, 0
9, 287988, Note_on_c, 7, 57, 70
9, 288468, Note_on_c, 7, 57, 0
9, 293748, Note_on_c, 7, 53, 70
9, 297588, Note_on_c, 7, 53, 0
9, 297588, Note_on_c, 7, 52, 105
9, 299508, Note_on_c, 7, 52, 0
9, 299508, Note_on_c, 7, 57, 105
9, 299988, Note_on_c, 7, 57, 0
9, 305268, Note_on_c, 7, 67, 70
9, 307668, Note_on_c, 7, 67, 0
9, 309108, Note_on_c, 7, 67, 70
9, 311508, Note_on_c, 7, 67, 0
9, 315828, Note_on_c, 7, 66, 70
9, 316788, Note_on_c, 7, 66, 0
9, 316788, Note_on_c, 7, 67, 70
9, 317268, Note_on_c, 7, 67, 0
9, 317748, Note_on_c, 7, 66, 70
9, 318708, Note_on_c, 7, 66, 0
9, 318708, Note_on_c, 7, 67, 70
9, 319188, Note_on_c, 7, 67, 0
9, 319428, Note_on_c, 7, 67, 70
9, 319668, Note_on_c, 7, 67, 0
9, 319668, Note_on_c, 7, 55, 70
9, 320148, Note_on_c, 7, 55, 0
9, 320388, Note_on_c, 7, 67, 70
9, 320628, Note_on_c, 7, 67, 0
9, 320628, Note_on_c, 7, 55, 80
9, 321108, Note_on_c, 7, 55, 0
9, 321348, Note_on_c, 7, 67, 80
9, 321588, Note_on_c, 7, 67, 0
9, 321588, Note_on_c, 7, 55, 90
9, 322068, Note_on_c, 7, 55, 0
9, 322308, Note_on_c, 7, 67, 90
9, 322548, Note_on_c, 7, 67, 0
9, 322548, Note_on_c, 7, 55, 105
9, 323028, Note_on_c, 7, 55, 0
9, 323268, Note_on_c, 7, 67, 105
9, 323508, Note_on_c, 7, 67, 0
9, 323508, Note_on_c, 7, 55, 105
9, 323988, Note_on_c, 7, 55, 0
9, 324228, Note_on_c, 7, 67, 105
9, 324468, Note_on_c, 7, 67, 0
9, 357348, Note_on_c, 7, 55, 71
9, 357444, Note_on_c, 7, 55, 0
9, 357588, Note_on_c, 7, 57, 73
9, 357684, Note_on_c, 7, 57, 0
9, 357828, Note_on_c, 7, 59, 76
9, 357924, Note_on_c, 7, 59, 0
9, 358068, Note_on_c, 7, 60, 78
9, 358164, Note_on_c, 7, 60, 0
9, 358308, Note_on_c, 7, 62, 80
9, 358404, Note_on_c, 7, 62, 0
9, 358548, Note_on_c, 7, 64, 83
9, 358644, Note_on_c, 7, 64, 0
9, 358788, Note_on_c, 7, 66, 85
9, 358884, Note_on_c, 7, 66, 0
9, 359028, Note_on_c, 7, 67, 88
9, 359508, Note_on_c, 7, 67, 0
9, 378228, Note_on_c, 7, 60, 70
9, 379668, Note_on_c, 7, 60, 0
9, 379668, Note_on_c, 7, 56, 70
9, 380148, Note_on_c, 7, 56, 0
9, 380148, Note_on_c, 7, 57, 70
9, 381588, Note_on_c, 7, 57, 0
9, 381588, Note_on_c, 7, 52, 70
9, 382068, Note_on_c, 7, 52, 0
9, 382068, Note_on_c, 7, 53, 70
9, 383508, Note_on_c, 7, 52, 70
9, 383577, Note_on_c, 7, 53, 0
9, 383927, Note_on_c, 7, 52, 0
9, 383988, Note_on_c, 7, 50, 70
9, 384468, Note_on_c, 7, 58, 70
9, 384562, Note_on_c, 7, 50, 0
9, 384857, Note_on_c, 7, 58, 0
9, 384948, Note_on_c, 7, 57, 70
9, 385428, Note_on_c, 7, 60, 70
9, 385507, Note_on_c, 7, 57, 0
9, 385812, Note_on_c, 7, 60, 0
9, 385908, Note_on_c, 7, 59, 70
9, 386148, Note_on_c, 7, 59, 0
9, 386388, Note_on_c, 7, 67, 70
9, 386628, Note_on_c, 7, 67, 0
9, 386868, Note_on_c, 7, 71, 70
9, 387108, Note_on_c, 7, 71, 0
9, 387348, Note_on_c, 7, 67, 70
9, 387588, Note_on_c, 7, 67, 0
9, 387828, Note_on_c, 7, 65, 70
9, 388068, Note_on_c, 7, 65, 0
9, 388308, Note_on_c, 7, 62, 70
9, 388548, Note_on_c, 7, 62, 0
9, 388788, Note_on_c, 7, 59, 70
9, 389028, Note_on_c, 7, 59, 0
9, 389268, Note_on_c, 7, 67, 70
9, 389508, Note_on_c, 7, 67, 0
9, 389748, Note_on_c, 7, 60, 70
9, 389748, Note_on_c, 7, 67, 70
9, 390228, Note_on_c, 7, 67, 0
9, 390228, Note_on_c, 7, 60, 0
9, 393588, Note_on_c, 7, 55, 70
9, 393828, Note_on_c, 7, 55, 0
9, 394068, Note_on_c, 7, 67, 70
9, 394308, Note_on_c, 7, 67, 0
9, 394548, Note_on_c, 7, 71, 70
9, 394788, Note_on_c, 7, 71, 0
9, 395028, Note_on_c, 7, 67, 70
9, 395268, Note_on_c, 7, 67, 0
9, 395508, Note_on_c, 7, 65, 70
9, 395748, Note_on_c, 7, 65, 0
9, 395988, Note_on_c, 7, 62, 70
9, 396228, Note_on_c, 7, 62, 0
9, 396468, Note_on_c, 7, 59, 70
9, 396708, Note_on_c, 7, 59, 0
9, 396948, Note_on_c, 7, 67, 70
9, 397188, Note_on_c, 7, 67, 0
9, 397428, Note_on_c, 7, 60, 70
9, 397428, Note_on_c, 7, 67, 70
9, 397908, Note_on_c, 7, 67, 0
9, 397908, Note_on_c, 7, 60, 0
9, 401268, Note_on_c, 7, 67, 105
9, 401508, Note_on_c, 7, 67, 0
9, 401508, Note_on_c, 7, 71, 105
9, 401748, Note_on_c, 7, 71, 0
9, 401748, Note_on_c, 7, 74, 105
9, 401988, Note_on_c, 7, 74, 0
9, 401988, Note_on_c, 7, 67, 105
9, 402228, Note_on_c, 7, 67, 0
9, 402228, Note_on_c, 7, 72, 105
9, 402468, Note_on_c, 7, 72, 0
9, 402468, Note_on_c, 7, 67, 105
9, 402708, Note_on_c, 7, 67, 0
9, 402708, Note_on_c, 7, 64, 105
9, 402948, Note_on_c, 7, 64, 0
9, 402948, Note_on_c, 7, 60, 105
9, 403188, Note_on_c, 7, 60, 0
9, 403188, Note_on_c, 7, 67, 105
9, 403428, Note_on_c, 7, 67, 0
9, 403428, Note_on_c, 7, 71, 105
9, 403668, Note_on_c, 7, 71, 0
9, 403668, Note_on_c, 7, 74, 105
9, 403908, Note_on_c, 7, 74, 0
9, 403908, Note_on_c, 7, 67, 105
9, 404148, Note_on_c, 7, 67, 0
9, 404148, Note_on_c, 7, 72, 105
9, 404388, Note_on_c, 7, 72, 0
9, 404388, Note_on_c, 7, 67, 105
9, 404628, Note_on_c, 7, 67, 0
9, 404628, Note_on_c, 7, 64, 105
9, 404868, Note_on_c, 7, 64, 0
9, 404868, Note_on_c, 7, 60, 105
9, 405108, Note_on_c, 7, 60, 0
9, 405108, Note_on_c, 7, 55, 105
9, 405588, Note_on_c, 7, 55, 0
9, 405588, Note_on_c, 7, 67, 105
9, 406068, Note_on_c, 7, 67, 0
9, 406068, Note_on_c, 7, 55, 105
9, 406548, Note_on_c, 7, 55, 0
9, 410868, Note_on_c, 7, 60, 70
9, 411828, Note_on_c, 7, 64, 70
9, 411917, Note_on_c, 7, 60, 0
9, 412687, Note_on_c, 7, 64, 0
9, 412788, Note_on_c, 7, 62, 70
9, 413748, Note_on_c, 7, 55, 70
9, 413842, Note_on_c, 7, 62, 0
9, 414647, Note_on_c, 7, 55, 0
9, 414708, Note_on_c, 7, 60, 70
9, 415668, Note_on_c, 7, 64, 70
9, 415782, Note_on_c, 7, 60, 0
9, 416547, Note_on_c, 7, 64, 0
9, 416628, Note_on_c, 7, 62, 70
9, 417588, Note_on_c, 7, 55, 70
9, 417707, Note_on_c, 7, 62, 0
9, 418487, Note_on_c, 7, 55, 0
9, 418548, Note_on_c, 7, 60, 70
9, 419508, Note_on_c, 7, 58, 70
9, 419612, Note_on_c, 7, 60, 0
9, 420392, Note_on_c, 7, 58, 0
9, 420468, Note_on_c, 7, 57, 70
9, 421428, Note_on_c, 7, 53, 70
9, 421527, Note_on_c, 7, 57, 0
9, 422277, Note_on_c, 7, 53, 0
9, 422388, Note_on_c, 7, 52, 70
9, 423348, Note_on_c, 7, 64, 70
9, 423457, Note_on_c, 7, 52, 0
9, 424192, Note_on_c, 7, 64, 0
9, 424308, Note_on_c, 7, 65, 70
9, 424788, Note_on_c, 7, 65, 0
9, 425508, Note_on_c, 7, 72, 70
9, 425604, Note_on_c, 7, 72, 0
9, 425748, Note_on_c, 7, 67, 70
9, 425844, Note_on_c, 7, 67, 0
9, 425988, Note_on_c, 7, 64, 70
9, 426084, Note_on_c, 7, 64, 0
9, 426228, Note_on_c, 7, 65, 70
9, 426708, Note_on_c, 7, 65, 0
9, 427428, Note_on_c, 7, 60, 70
9, 427524, Note_on_c, 7, 60, 0
9, 427668, Note_on_c, 7, 55, 70
9, 427764, Note_on_c, 7, 55, 0
9, 427908, Note_on_c, 7, 52, 70
9, 428004, Note_on_c, 7, 52, 0
9, 428148, Note_on_c, 7, 50, 70
9, 428628, Note_on_c, 7, 50, 0
9, 428628, Note_on_c, 7, 62, 70
9, 429108, Note_on_c, 7, 62, 0
9, 429588, Note_on_c, 7, 67, 70
9, 430068, Note_on_c, 7, 67, 0
9, 430548, Note_on_c, 7, 60, 70
9, 431028, Note_on_c, 7, 60, 0
9, 431508, Note_on_c, 7, 57, 70
9, 431988, Note_on_c, 7, 57, 0
9, 431988, Note_on_c, 7, 53, 70
9, 432948, Note_on_c, 7, 53, 0
9, 432948, Note_on_c, 7, 55, 70
9, 433668, Note_on_c, 7, 55, 0
9, 433668, Note_on_c, 7, 53, 73
9, 433908, Note_on_c, 7, 53, 0
9, 433908, Note_on_c, 7, 52, 68
9, 434004, Note_on_c, 7, 52, 0
9, 439668, Note_on_c, 7, 53, 70
9, 440628, Note_on_c, 7, 55, 70
9, 440707, Note_on_c, 7, 53, 0
9, 441512, Note_on_c, 7, 55, 0
9, 449268, Control_c, 7, 0, 0
9, 449268, Control_c, 7, 32, 0
9, 449268, Program_c, 7, 45
9, 450228, Note_on_c, 7, 60, 70
9, 450228, Note_on_c, 7, 64, 70
9, 450468, Note_on_c, 7, 64, 0
9, 450468, Note_on_c, 7, 60, 0
9, 450708, Note_on_c, 7, 62, 70
9, 450708, Note_on_c, 7, 65, 70
9, 450948, Note_on_c, 7, 65, 0
9, 450948, Note_on_c, 7, 62, 0
9, 451188, Note_on_c, 7, 64, 70
9, 451188, Note_on_c, 7, 67, 70
9, 451668, Note_on_c, 7, 67, 0
9, 451668, Note_on_c, 7, 64, 0
9, 452148, Note_on_c, 7, 60, 70
9, 452148, Note_on_c, 7, 64, 70
9, 452388, Note_on_c, 7, 64, 0
9, 452388, Note_on_c, 7, 60, 0
9, 452388, Note_on_c, 7, 60, 70
9, 452388, Note_on_c, 7, 64, 70
9, 452628, Note_on_c, 7, 64, 0
9, 452628, Note_on_c, 7, 60, 0
9, 452628, Note_on_c, 7, 62, 70
9, 452628, Note_on_c, 7, 65, 70
9, 452868, Note_on_c, 7, 65, 0
9, 452868, Note_on_c, 7, 62, 0
9, 452868, Note_on_c, 7, 62, 70
9, 452868, Note_on_c, 7, 65, 70
9, 453108, Note_on_c, 7, 65, 0
9, 453108, Note_on_c, 7, 62, 0
9, 453108, Note_on_c, 7, 64, 70
9, 453108, Note_on_c, 7, 67, 70
9, 453588, Note_on_c, 7, 67, 0
9, 453588, Note_on_c, 7, 64, 0
9, 454068, Note_on_c, 7, 60, 70
9, 454068, Note_on_c, 7, 64, 70
9, 454308, Note_on_c, 7, 64, 0
9, 454308, Note_on_c, 7, 60, 0
9, 454548, Note_on_c, 7, 62, 70
9, 454548, Note_on_c, 7, 65, 70
9, 454788, Note_on_c, 7, 65, 0
9, 454788, Note_on_c, 7, 62, 0
9, 455028, Note_on_c, 7, 64, 70
9, 455028, Note_on_c, 7, 67, 70
9, 455268, Note_on_c, 7, 67, 0
9, 455268, Note_on_c, 7, 64, 0
9, 455508, Note_on_c, 7, 62, 70
9, 455508, Note_on_c, 7, 65, 70
9, 455748, Note_on_c, 7, 65, 0
9, 455748, Note_on_c, 7, 62, 0
9, 455988, Note_on_c, 7, 60, 70
9, 455988, Note_on_c, 7, 64, 70
9, 456228, Note_on_c, 7, 64, 0
9, 456228, Note_on_c, 7, 60, 0
9, 456468, Note_on_c, 7, 59, 70
9, 456468, Note_on_c, 7, 62, 70
9, 456708, Note_on_c, 7, 62, 0
9, 456708, Note_on_c, 7, 59, 0
9, 456948, Note_on_c, 7, 60, 70
9, 456948, Note_on_c, 7, 64, 70
9, 457428, Note_on_c, 7, 64, 0
9, 457428, Note_on_c, 7, 60, 0
9, 457908, Note_on_c, 7, 65, 70
9, 458388, Note_on_c, 7, 65, 0
9, 458868, Note_on_c, 7, 67, 70
9, 459348, Note_on_c, 7, 67, 0
9, 459828, Note_on_c, 7, 55, 70
9, 460308, Note_on_c, 7, 55, 0
9, 460428, Control_c, 7, 0, 0
9, 460428, Control_c, 7, 32, 0
9, 460428, Program_c, 7, 48
9, 460788, Note_on_c, 7, 52, 70
9, 461748, Note_on_c, 7, 53, 70
9, 461832, Note_on_c, 7, 52, 0
9, 462657, Note_on_c, 7, 53, 0
9, 462708, Note_on_c, 7, 55, 70
9, 462876, Note_on_c, 7, 55, 0
9, 462948, Note_on_c, 7, 67, 70
9, 463116, Note_on_c, 7, 67, 0
9, 463188, Note_on_c, 7, 67, 70
9, 463356, Note_on_c, 7, 67, 0
9, 463428, Note_on_c, 7, 67, 70
9, 463596, Note_on_c, 7, 67, 0
9, 463668, Note_on_c, 7, 67, 70
9, 463836, Note_on_c, 7, 67, 0
9, 463908, Note_on_c, 7, 67, 70
9, 464076, Note_on_c, 7, 67, 0
9, 464148, Note_on_c, 7, 67, 70
9, 464316, Note_on_c, 7, 67, 0
9, 464388, Note_on_c, 7, 67, 70
9, 464556, Note_on_c, 7, 67, 0
9, 464628, Note_on_c, 7, 67, 70
9, 464796, Note_on_c, 7, 67, 0
9, 464868, Note_on_c, 7, 67, 74
9, 465036, Note_on_c, 7, 67, 0
9, 465108, Note_on_c, 7, 67, 78
9, 465276, Note_on_c, 7, 67, 0
9, 465348, Note_on_c, 7, 67, 83
9, 465516, Note_on_c, 7, 67, 0
9, 465588, Note_on_c, 7, 67, 87
9, 465756, Note_on_c, 7, 67, 0
9, 465828, Note_on_c, 7, 67, 91
9, 465996, Note_on_c, 7, 67, 0
9, 466068, Note_on_c, 7, 67, 96
9, 466236, Note_on_c, 7, 67, 0
9, 466308, Note_on_c, 7, 67, 100
9, 466476, Note_on_c, 7, 67, 0
9, 466548, Note_on_c, 7, 67, 105
9, 467004, Note_on_c, 7, 67, 0
9, 467508, Note_on_c, 7, 72, 105
9, 468192, Note_on_c, 7, 72, 0
9, 468228, Note_on_c, 7, 67, 105
9, 468456, Note_on_c, 7, 67, 0
9, 468468, Note_on_c, 7, 64, 105
9, 468696, Note_on_c, 7, 64, 0
9, 468708, Note_on_c, 7, 60, 105
9, 468936, Note_on_c, 7, 60, 0
9, 468948, Note_on_c, 7, 64, 105
9, 469176, Note_on_c, 7, 64, 0
9, 469188, Note_on_c, 7, 67, 105
9, 469416, Note_on_c, 7, 67, 0
9, 469428, Note_on_c, 7, 72, 105
9, 470112, Note_on_c, 7, 72, 0
9, 470148, Note_on_c, 7, 67, 105
9, 470376, Note_on_c, 7, 67, 0
9, 470388, Note_on_c, 7, 67, 105
9, 471108, Note_on_c, 7, 67, 0
9, 471108, Note_on_c, 7, 67, 105
9, 471348, Note_on_c, 7, 67, 0
9, 471348, Note_on_c, 7, 64, 105
9, 472068, Note_on_c, 7, 64, 0
9, 472068, Note_on_c, 7, 64, 105
9, 472308, Note_on_c, 7, 64, 0
9, 472308, Note_on_c, 7, 60, 105
9, 473028, Note_on_c, 7, 60, 0
9, 473028, Note_on_c, 7, 60, 105
9, 473268, Note_on_c, 7, 60, 0
9, 473268, Note_on_c, 7, 57, 105
9, 473988, Note_on_c, 7, 57, 0
9, 473988, Note_on_c, 7, 57, 105
9, 474228, Note_on_c, 7, 57, 0
9, 474228, Note_on_c, 7, 57, 105
9, 474468, Note_on_c, 7, 57, 0
9, 474468, Note_on_c, 7, 61, 105
9, 474708, Note_on_c, 7, 61, 0
9, 474708, Note_on_c, 7, 62, 105
9, 474948, Note_on_c, 7, 62, 0
9, 474948, Note_on_c, 7, 64, 105
9, 475188, Note_on_c, 7, 64, 0
9, 475188, Note_on_c, 7, 65, 105
9, 475428, Note_on_c, 7, 65, 0
9, 475428, Note_on_c, 7, 65, 105
9, 475668, Note_on_c, 7, 65, 0
9, 475668, Note_on_c, 7, 66, 105
9, 475908, Note_on_c, 7, 66, 0
9, 475908, Note_on_c, 7, 66, 105
9, 476148, Note_on_c, 7, 66, 0
9, 476148, Note_on_c, 7, 67, 105
9, 476388, Note_on_c, 7, 67, 0
9, 476388, Note_on_c, 7, 71, 105
9, 476628, Note_on_c, 7, 71, 0
9, 476628, Note_on_c, 7, 74, 105
9, 476868, Note_on_c, 7, 74, 0
9, 476868, Note_on_c, 7, 67, 105
9, 477108, Note_on_c, 7, 67, 0
9, 477108, Note_on_c, 7, 72, 105
9, 477348, Note_on_c, 7, 72, 0
9, 477348, Note_on_c, 7, 67, 105
9, 477588, Note_on_c, 7, 67, 0
9, 477588, Note_on_c, 7, 64, 105
9, 477828, Note_on_c, 7, 64, 0
9, 477828, Note_on_c, 7, 60, 105
9, 478068, Note_on_c, 7, 60, 0
9, 478068, Note_on_c, 7, 67, 105
9, 478308, Note_on_c, 7, 67, 0
9, 478308, Note_on_c, 7, 71, 105
9, 478548, Note_on_c, 7, 71, 0
9, 478548, Note_on_c, 7, 74, 105
9, 478788, Note_on_c, 7, 74, 0
9, 478788, Note_on_c, 7, 67, 105
9, 479028, Note_on_c, 7, 67, 0
9, 479028, Note_on_c, 7, 72, 105
9, 479268, Note_on_c, 7, 72, 0
9, 479268, Note_on_c, 7, 67, 105
9, 479508, Note_on_c, 7, 67, 0
9, 479508, Note_on_c, 7, 64, 105
9, 479748, Note_on_c, 7, 64, 0
9, 479748, Note_on_c, 7, 60, 105
9, 479988, Note_on_c, 7, 60, 0
9, 479988, Note_on_c, 7, 55, 119
9, 480468, Note_on_c, 7, 55, 0
9, 481908, Note_on_c, 7, 48, 105
9, 481908, Note_on_c, 7, 60, 105
9, 482388, Note_on_c, 7, 60, 0
9, 482388, Note_on_c, 7, 48, 0
9, 482388, Note_on_c, 7, 69, 105
9, 482388, Note_on_c, 7, 72, 105
9, 482484, Note_on_c, 7, 72, 0
9, 482484, Note_on_c, 7, 69, 0
9, 482868, Note_on_c, 7, 67, 105
9, 482868, Note_on_c, 7, 71, 105
9, 482964, Note_on_c, 7, 71, 0
9, 482964, Note_on_c, 7, 67, 0
9, 483348, Note_on_c, 7, 65, 105
9, 483348, Note_on_c, 7, 69, 105
9, 483444, Note_on_c, 7, 69, 0
9, 483444, Note_on_c, 7, 65, 0
9, 483828, Note_on_c, 7, 64, 105
9, 483828, Note_on_c, 7, 67, 105
9, 484548, Note_on_c, 7, 67, 0
9, 484548, Note_on_c, 7, 64, 0
9, 484548, Note_on_c, 7, 62, 105
9, 484548, Note_on_c, 7, 65, 105
9, 484788, Note_on_c, 7, 65, 0
9, 484788, Note_on_c, 7, 62, 0
9, 484788, Note_on_c, 7, 60, 105
9, 484788, Note_on_c, 7, 64, 105
9, 485268, Note_on_c, 7, 64, 0
9, 485268, Note_on_c, 7, 60, 0
9, 485268, Note_on_c, 7, 60, 111
9, 485268, Note_on_c, 7, 64, 111
9, 485388, Note_on_c, 7, 62, 114
9, 485388, Note_on_c, 7, 65, 114
9, 485428, Note_on_c, 7, 64, 0
9, 485428, Note_on_c, 7, 60, 0
9, 485508, Note_on_c, 7, 64, 114
9, 485508, Note_on_c, 7, 67, 114
9, 485548, Note_on_c, 7, 62, 0
9, 485548, Note_on_c, 7, 65, 0
9, 485600, Note_on_c, 7, 64, 0
9, 485628, Note_on_c, 7, 60, 113
9, 485628, Note_on_c, 7, 64, 113
9, 485668, Note_on_c, 7, 67, 0
9, 485748, Note_on_c, 7, 64, 0
9, 485748, Note_on_c, 7, 60, 0
9, 485748, Note_on_c, 7, 65, 114
9, 485748, Note_on_c, 7, 69, 114
9, 486228, Note_on_c, 7, 69, 0
9, 486228, Note_on_c, 7, 65, 0
9, 486228, Note_on_c, 7, 60, 70
9, 486228, Note_on_c, 7, 69, 70
9, 486324, Note_on_c, 7, 69, 0
9, 486324, Note_on_c, 7, 60, 0
9, 486708, Note_on_c, 7, 59, 70
9, 486708, Note_on_c, 7, 67, 70
9, 486804, Note_on_c, 7, 67, 0
9, 486804, Note_on_c, 7, 59, 0
9, 487188, Note_on_c, 7, 57, 70
9, 487188, Note_on_c, 7, 65, 70
9, 487284, Note_on_c, 7, 65, 0
9, 487284, Note_on_c, 7, 57, 0
9, 487668, Note_on_c, 7, 55, 70
9, 487668, Note_on_c, 7, 64, 70
9, 488388, Note_on_c, 7, 64, 0
9, 488388, Note_on_c, 7, 55, 0
9, 488388, Note_on_c, 7, 53, 70
9, 488388, Note_on_c, 7, 62, 70
9, 488628, Note_on_c, 7, 62, 0
9, 488628, Note_on_c, 7, 53, 0
9, 488628, Note_on_c, 7, 52, 70
9, 488628, Note_on_c, 7, 60, 70
9, 489108, Note_on_c, 7, 60, 0
9, 489108, Note_on_c, 7, 52, 0
9, 489108, Note_on_c, 7, 60, 114
9, 489228, Note_on_c, 7, 59, 119
9, 489228, Note_on_c, 7, 62, 119
9, 489268, Note_on_c, 7, 60, 0
9, 489348, Note_on_c, 7, 60, 116
9, 489348, Note_on_c, 7, 64, 116
9, 489388, Note_on_c, 7, 62, 0
9, 489388, Note_on_c, 7, 59, 0
9, 489453, Note_on_c, 7, 60, 0
9, 489468, Note_on_c, 7, 55, 113
9, 489468, Note_on_c, 7, 60, 113
9, 489508, Note_on_c, 7, 64, 0
9, 489588, Note_on_c, 7, 60, 0
9, 489588, Note_on_c, 7, 55, 0
9, 489588, Note_on_c, 7, 59, 113
9, 489828, Note_on_c, 7, 59, 0
9, 489828, Note_on_c, 7, 74, 105
9, 490068, Note_on_c, 7, 74, 0
9, 490068, Note_on_c, 7, 71, 105
9, 490308, Note_on_c, 7, 71, 0
9, 490308, Note_on_c, 7, 67, 105
9, 490548, Note_on_c, 7, 67, 0
9, 490548, Note_on_c, 7, 65, 105
9, 490788, Note_on_c, 7, 65, 0
9, 490788, Note_on_c, 7, 62, 105
9, 491028, Note_on_c, 7, 62, 0
9, 491028, Note_on_c, 7, 59, 105
9, 491268, Note_on_c, 7, 59, 0
9, 491268, Note_on_c, 7, 55, 105
9, 491508, Note_on_c, 7, 55, 0
9, 491508, Note_on_c, 7, 60, 105
9, 491748, Note_on_c, 7, 60, 0
9, 491748, Note_on_c, 7, 76, 105
9, 491988, Note_on_c, 7, 76, 0
9, 491988, Note_on_c, 7, 72, 105
9, 492228, Note_on_c, 7, 72, 0
9, 492228, Note_on_c, 7, 68, 105
9, 492468, Note_on_c, 7, 68, 0
9, 492468, Note_on_c, 7, 69, 105
9, 492708, Note_on_c, 7, 69, 0
9, 492708, Note_on_c, 7, 72, 105
9, 492948, Note_on_c, 7, 72, 0
9, 492948, Note_on_c, 7, 69, 105
9, 493188, Note_on_c, 7, 69, 0
9, 493188, Note_on_c, 7, 64, 105
9, 493428, Note_on_c, 7, 64, 0
9, 493428, Note_on_c, 7, 65, 105
9, 493596, Note_on_c, 7, 65, 0
9, 493668, Note_on_c, 7, 65, 105
9, 493836, Note_on_c, 7, 65, 0
9, 493908, Note_on_c, 7, 65, 105
9, 494076, Note_on_c, 7, 65, 0
9, 494148, Note_on_c, 7, 65, 105
9, 494316, Note_on_c, 7, 65, 0
9, 494388, Note_on_c, 7, 67, 105
9, 494556, Note_on_c, 7, 67, 0
9, 494628, Note_on_c, 7, 67, 105
9, 494796, Note_on_c, 7, 67, 0
9, 494868, Note_on_c, 7, 67, 105
9, 495036, Note_on_c, 7, 67, 0
9, 495108, Note_on_c, 7, 67, 105
9, 495276, Note_on_c, 7, 67, 0
9, 495348, Note_on_c, 7, 64, 105
9, 495516, Note_on_c, 7, 64, 0
9, 495588, Note_on_c, 7, 64, 105
9, 495756, Note_on_c, 7, 64, 0
9, 495828, Note_on_c, 7, 64, 105
9, 495996, Note_on_c, 7, 64, 0
9, 496068, Note_on_c, 7, 64, 105
9, 496236, Note_on_c, 7, 64, 0
9, 496308, Note_on_c, 7, 65, 105
9, 496476, Note_on_c, 7, 65, 0
9, 496548, Note_on_c, 7, 65, 105
9, 496716, Note_on_c, 7, 65, 0
9, 496788, Note_on_c, 7, 65, 105
9, 496956, Note_on_c, 7, 65, 0
9, 497028, Note_on_c, 7, 65, 105
9, 497196, Note_on_c, 7, 65, 0
9, 497268, Note_on_c, 7, 67, 105
9, 497436, Note_on_c, 7, 67, 0
9, 497508, Note_on_c, 7, 67, 105
9, 497676, Note_on_c, 7, 67, 0
9, 497748, Note_on_c, 7, 67, 105
9, 497916, Note_on_c, 7, 67, 0
9, 497988, Note_on_c, 7, 67, 105
9, 498156, Note_on_c, 7, 67, 0
9, 498228, Note_on_c, 7, 67, 105
9, 498396, Note_on_c, 7, 67, 0
9, 498468, Note_on_c, 7, 67, 105
9, 498636, Note_on_c, 7, 67, 0
9, 498708, Note_on_c, 7, 55, 105
9, 498876, Note_on_c, 7, 55, 0
9, 498948, Note_on_c, 7, 55, 105
9, 499116, Note_on_c, 7, 55, 0
9, 499188, Note_on_c, 7, 60, 105
9, 499428, Note_on_c, 7, 60, 0
9, 499428, Note_on_c, 7, 64, 105
9, 499668, Note_on_c, 7, 64, 0
9, 499668, Note_on_c, 7, 67, 105
9, 499908, Note_on_c, 7, 67, 0
9, 499908, Note_on_c, 7, 64, 105
9, 500148, Note_on_c, 7, 64, 0
9, 500148, Note_on_c, 7, 60, 105
9, 500388, Note_on_c, 7, 60, 0
9, 500388, Note_on_c, 7, 64, 105
9, 500628, Note_on_c, 7, 64, 0
9, 500628, Note_on_c, 7, 67, 105
9, 500868, Note_on_c, 7, 67, 0
9, 500868, Note_on_c, 7, 64, 105
9, 501108, Note_on_c, 7, 64, 0
9, 501108, Note_on_c, 7, 60, 105
9, 501348, Note_on_c, 7, 60, 0
9, 501348, Note_on_c, 7, 64, 105
9, 501588, Note_on_c, 7, 64, 0
9, 501588, Note_on_c, 7, 67, 105
9, 501828, Note_on_c, 7, 67, 0
9, 501828, Note_on_c, 7, 64, 105
9, 502068, Note_on_c, 7, 64, 0
9, 502068, Note_on_c, 7, 60, 105
9, 502308, Note_on_c, 7, 60, 0
9, 502308, Note_on_c, 7, 64, 105
9, 502548, Note_on_c, 7, 64, 0
9, 502548, Note_on_c, 7, 67, 105
9, 502788, Note_on_c, 7, 67, 0
9, 502788, Note_on_c, 7, 64, 105
9, 503028, Note_on_c, 7, 64, 0
9, 503028, Note_on_c, 7, 60, 105
9, 503484, Note_on_c, 7, 60, 0
9, 503988, Note_on_c, 7, 72, 105
9, 504672, Note_on_c, 7, 72, 0
9, 504708, Note_on_c, 7, 67, 105
9, 504936, Note_on_c, 7, 67, 0
9, 504948, Note_on_c, 7, 64, 105
9, 505176, Note_on_c, 7, 64, 0
9, 505188, Note_on_c, 7, 60, 105
9, 505416, Note_on_c, 7, 60, 0
9, 505428, Note_on_c, 7, 64, 105
9, 505656, Note_on_c, 7, 64, 0
9, 505668, Note_on_c, 7, 67, 105
9, 505896, Note_on_c, 7, 67, 0
9, 505908, Note_on_c, 7, 72, 105
9, 506592, Note_on_c, 7, 72, 0
9, 506628, Note_on_c, 7, 67, 105
9, 506856, Note_on_c, 7, 67, 0
9, 506868, Note_on_c, 7, 64, 105
9, 507108, Note_on_c, 7, 64, 0
9, 507108, Note_on_c, 7, 60, 105
9, 507348, Note_on_c, 7, 60, 0
9, 507348, Note_on_c, 7, 64, 105
9, 507588, Note_on_c, 7, 64, 0
9, 507588, Note_on_c, 7, 67, 105
9, 507828, Note_on_c, 7, 67, 0
9, 507828, Note_on_c, 7, 64, 105
9, 508068, Note_on_c, 7, 64, 0
9, 508068, Note_on_c, 7, 60, 105
9, 508308, Note_on_c, 7, 60, 0
9, 508308, Note_on_c, 7, 64, 105
9, 508548, Note_on_c, 7, 64, 0
9, 508548, Note_on_c, 7, 67, 105
9, 508788, Note_on_c, 7, 67, 0
9, 508788, Note_on_c, 7, 48, 105
9, 508788, Note_on_c, 7, 55, 105
9, 508788, Note_on_c, 7, 64, 105
9, 509268, Note_on_c, 7, 64, 0
9, 509268, Note_on_c, 7, 55, 0
9, 509268, Note_on_c, 7, 48, 0
9, 510720, Note_on_c, 7, 57, 70
9, 510960, Note_on_c, 7, 57, 0
9, 511200, Note_on_c, 7, 57, 70
9, 511440, Note_on_c, 7, 57, 0
9, 511680, Note_on_c, 7, 57, 70
9, 511920, Note_on_c, 7, 57, 0
9, 512160, Note_on_c, 7, 52, 94
9, 512160, Note_on_c, 7, 60, 94
9, 513000, Note_on_c, 7, 55, 94
9, 513044, Note_on_c, 7, 52, 0
9, 513120, Note_on_c, 7, 53, 94
9, 513120, Note_on_c, 7, 48, 94
9, 513169, Note_on_c, 7, 55, 0
9, 513360, Note_on_c, 7, 60, 0
9, 513360, Note_on_c, 7, 53, 0
9, 513360, Note_on_c, 7, 48, 0
9, 515040, Note_on_c, 7, 65, 70
9, 515040, Note_on_c, 7, 53, 70
9, 516240, Note_on_c, 7, 53, 0
9, 516240, Note_on_c, 7, 65, 0
9, 516480, Note_on_c, 7, 60, 92
9, 516480, Note_on_c, 7, 53, 92
9, 516960, Note_on_c, 7, 60, 0
9, 516960, Note_on_c, 7, 62, 92
9, 517440, Note_on_c, 7, 53, 0
9, 517440, Note_on_c, 7, 55, 92
9, 517920, Note_on_c, 7, 55, 0
9, 517920, Note_on_c, 7, 62, 0
9, 517920, Note_on_c, 7, 60, 92
9, 517920, Note_on_c, 7, 48, 92
9, 518400, Note_on_c, 7, 55, 92
9, 518474, Note_on_c, 7, 48, 0
9, 518880, Note_on_c, 7, 53, 92
9, 518959, Note_on_c, 7, 55, 0
9, 519360, Note_on_c, 7, 53, 0
9, 519360, Note_on_c, 7, 60, 0
9, 519360, Note_on_c, 7, 58, 92
9, 519840, Note_on_c, 7, 55, 92
9, 520320, Note_on_c, 7, 62, 92
9, 520334, Note_on_c, 7, 55, 0
9, 520800, Note_on_c, 7, 62, 0
9, 520800, Note_on_c, 7, 58, 0
9, 520800, Note_on_c, 7, 48, 92
9, 521760, Note_on_c, 7, 53, 80
9, 522240, Note_on_c, 7, 53, 0
9, 522240, Note_on_c, 7, 48, 0
9, 522240, Note_on_c, 7, 53, 70
9, 522240, Note_on_c, 7, 50, 70
9, 522720, Note_on_c, 7, 48, 70
9, 522779, Note_on_c, 7, 50, 0
9, 523200, Note_on_c, 7, 52, 70
9, 523289, Note_on_c, 7, 53, 0
9, 523639, Note_on_c, 7, 52, 0
9, 523644, Note_on_c, 7, 48, 0
9, 523680, Note_on_c, 7, 53, 70
9, 523680, Note_on_c, 7, 48, 70
9, 524160, Note_on_c, 7, 48, 0
9, 524160, Note_on_c, 7, 53, 0
9, 525120, Note_on_c, 7, 50, 70
9, 525120, Note_on_c, 7, 58, 70
9, 525120, Note_on_c, 7, 53, 70
9, 525600, Note_on_c, 7, 58, 0
9, 525600, Note_on_c, 7, 50, 0
9, 525600, Note_on_c, 7, 48, 70
9, 525600, Note_on_c, 7, 60, 70
9, 525600, Note_on_c, 7, 57, 70
9, 525659, Note_on_c, 7, 53, 0
9, 526080, Note_on_c, 7, 58, 70
9, 526139, Note_on_c, 7, 57, 0
9, 526519, Note_on_c, 7, 58, 0
9, 526560, Note_on_c, 7, 57, 70
9, 527040, Note_on_c, 7, 57, 0
9, 527040, Note_on_c, 7, 60, 0
9, 527040, Note_on_c, 7, 48, 0
9, 527280, Note_on_c, 7, 52, 92
9, 527280, Note_on_c, 7, 48, 92
9, 527520, Note_on_c, 7, 53, 92
9, 527520, Note_on_c, 7, 50, 92
9, 527569, Note_on_c, 7, 48, 0
9, 527574, Note_on_c, 7, 52, 0
9, 527760, Note_on_c, 7, 55, 84
9, 527760, Note_on_c, 7, 52, 84
9, 527809, Note_on_c, 7, 50, 0
9, 527829, Note_on_c, 7, 53, 0
9, 527974, Note_on_c, 7, 52, 0
9, 527984, Note_on_c, 7, 55, 0
9, 528000, Note_on_c, 7, 57, 70
9, 528000, Note_on_c, 7, 53, 70
9, 528480, Note_on_c, 7, 53, 0
9, 528480, Note_on_c, 7, 57, 0
9, 533760, Note_on_c, 7, 53, 70
9, 533760, Note_on_c, 7, 60, 70
9, 534240, Note_on_c, 7, 60, 0
9, 534240, Note_on_c, 7, 53, 0
9, 534240, Note_on_c, 7, 50, 70
9, 534240, Note_on_c, 7, 62, 70
9, 534720, Note_on_c, 7, 50, 0
9, 534720, Note_on_c, 7, 58, 70
9, 535200, Note_on_c, 7, 58, 0
9, 535200, Note_on_c, 7, 62, 0
9, 535200, Note_on_c, 7, 60, 70
9, 535200, Note_on_c, 7, 60, 70
9, 535680, Note_on_c, 7, 60, 0
9, 535680, Note_on_c, 7, 48, 70
9, 536160, Note_on_c, 7, 48, 0
9, 536160, Note_on_c, 7, 53, 70
9, 536640, Note_on_c, 7, 53, 0
9, 536640, Note_on_c, 7, 60, 0
9, 536640, Note_on_c, 7, 58, 70
9, 536640, Note_on_c, 7, 58, 70
9, 537600, Note_on_c, 7, 58, 0
9, 537600, Note_on_c, 7, 58, 0
9, 537600, Note_on_c, 7, 55, 70
9, 537600, Note_on_c, 7, 62, 70
9, 538080, Note_on_c, 7, 62, 0
9, 538080, Note_on_c, 7, 55, 0
9, 538080, Note_on_c, 7, 48, 70
9, 538080, Note_on_c, 7, 60, 70
9, 538800, Note_on_c, 7, 60, 0
9, 539040, Note_on_c, 7, 48, 0
9, 539520, Note_on_c, 7, 60, 70
9, 539688, Note_on_c, 7, 60, 0
9, 539760, Note_on_c, 7, 60, 48
9, 539928, Note_on_c, 7, 60, 0
9, 540000, Note_on_c, 7, 60, 48
9, 540168, Note_on_c, 7, 60, 0
9, 540240, Note_on_c, 7, 60, 48
9, 540408, Note_on_c, 7, 60, 0
9, 540480, Note_on_c, 7, 60, 48
9, 540648, Note_on_c, 7, 60, 0
9, 540720, Note_on_c, 7, 60, 48
9, 540888, Note_on_c, 7, 60, 0
9, 540960, Note_on_c, 7, 59, 48
9, 540960, Note_on_c, 7, 65, 48
9, 541128, Note_on_c, 7, 65, 0
9, 541128, Note_on_c, 7, 59, 0
9, 541200, Note_on_c, 7, 59, 48
9, 541200, Note_on_c, 7, 65, 48
9, 541368, Note_on_c, 7, 65, 0
9, 541368, Note_on_c, 7, 59, 0
9, 541440, Note_on_c, 7, 59, 48
9, 541440, Note_on_c, 7, 65, 48
9, 541608, Note_on_c, 7, 65, 0
9, 541608, Note_on_c, 7, 59, 0
9, 541680, Note_on_c, 7, 59, 48
9, 541680, Note_on_c, 7, 65, 48
9, 541848, Note_on_c, 7, 65, 0
9, 541848, Note_on_c, 7, 59, 0
9, 541920, Note_on_c, 7, 59, 48
9, 541920, Note_on_c, 7, 65, 48
9, 542088, Note_on_c, 7, 65, 0
9, 542088, Note_on_c, 7, 59, 0
9, 542160, Note_on_c, 7, 59, 48
9, 542160, Note_on_c, 7, 65, 48
9, 542328, Note_on_c, 7, 65, 0
9, 542328, Note_on_c, 7, 59, 0
9, 542400, Note_on_c, 7, 55, 48
9, 542400, Note_on_c, 7, 65, 48
9, 542568, Note_on_c, 7, 65, 0
9, 542568, Note_on_c, 7, 55, 0
9, 542640, Note_on_c, 7, 55, 48
9, 542640, Note_on_c, 7, 65, 48
9, 542808, Note_on_c, 7, 65, 0
9, 542808, Note_on_c, 7, 55, 0
9, 542880, Note_on_c, 7, 55, 48
9, 542880, Note_on_c, 7, 65, 48
9, 543048, Note_on_c, 7, 65, 0
9, 543048, Note_on_c, 7, 55, 0
9, 543120, Note_on_c, 7, 55, 48
9, 543120, Note_on_c, 7, 65, 48
9, 543288, Note_on_c, 7, 65, 0
9, 543288, Note_on_c, 7, 55, 0
9, 543360, Note_on_c, 7, 55, 48
9, 543360, Note_on_c, 7, 65, 48
9, 543528, Note_on_c, 7, 65, 0
9, 543528, Note_on_c, 7, 55, 0
9, 543600, Note_on_c, 7, 55, 48
9, 543600, Note_on_c, 7, 65, 48
9, 543768, Note_on_c, 7, 65, 0
9, 543768, Note_on_c, 7, 55, 0
9, 543840, Note_on_c, 7, 48, 50
9, 543840, Note_on_c, 7, 64, 50
9, 544560, Note_on_c, 7, 64, 0
9, 544800, Note_on_c, 7, 48, 0
9, 545280, Note_on_c, 7, 60, 63
9, 545760, Note_on_c, 7, 60, 0
9, 546720, Note_on_c, 7, 59, 54
9, 547200, Note_on_c, 7, 59, 0
9, 548160, Note_on_c, 7, 55, 53
9, 548640, Note_on_c, 7, 55, 0
9, 549600, Note_on_c, 7, 60, 56
9, 550080, Note_on_c, 7, 60, 0
9, 551040, Note_on_c, 7, 57, 70
9, 551520, Note_on_c, 7, 57, 0
9, 552480, Note_on_c, 7, 55, 70
9, 552960, Note_on_c, 7, 55, 0
9, 553440, Note_on_c, 7, 57, 70
9, 553920, Note_on_c, 7, 57, 0
9, 553920, Note_on_c, 7, 55, 70
9, 554400, Note_on_c, 7, 55, 0
9, 554640, Note_on_c, 7, 59, 70
9, 554640, Note_on_c, 7, 62, 70
9, 554880, Note_on_c, 7, 60, 70
9, 554880, Note_on_c, 7, 64, 70
9, 554940, Note_on_c, 7, 62, 0
9, 554940, Note_on_c, 7, 59, 0
9, 555120, Note_on_c, 7, 62, 70
9, 555120, Note_on_c, 7, 65, 70
9, 555180, Note_on_c, 7, 60, 0
9, 555180, Note_on_c, 7, 64, 0
9, 555319, Note_on_c, 7, 62, 0
9, 555339, Note_on_c, 7, 65, 0
9, 555360, Note_on_c, 7, 64, 90
9, 555360, Note_on_c, 7, 67, 90
9, 555789, Note_on_c, 7, 64, 0
9, 555840, Note_on_c, 7, 60, 70
9, 555840, Note_on_c, 7, 64, 70
9, 555884, Note_on_c, 7, 67, 0
9, 556080, Note_on_c, 7, 64, 0
9, 556080, Note_on_c, 7, 60, 0
9, 556200, Note_on_c, 7, 60, 70
9, 556200, Note_on_c, 7, 64, 70
9, 556244, Note_on_c, 7, 64, 0
9, 556244, Note_on_c, 7, 60, 0
9, 556320, Note_on_c, 7, 62, 70
9, 556320, Note_on_c, 7, 65, 70
9, 556440, Note_on_c, 7, 64, 70
9, 556440, Note_on_c, 7, 67, 70
9, 556470, Note_on_c, 7, 65, 0
9, 556470, Note_on_c, 7, 62, 0
9, 556560, Note_on_c, 7, 65, 70
9, 556560, Note_on_c, 7, 69, 70
9, 556590, Note_on_c, 7, 64, 0
9, 556590, Note_on_c, 7, 67, 0
9, 556680, Note_on_c, 7, 67, 70
9, 556680, Note_on_c, 7, 71, 70
9, 556710, Note_on_c, 7, 65, 0
9, 556710, Note_on_c, 7, 69, 0
9, 556779, Note_on_c, 7, 67, 0
9, 556784, Note_on_c, 7, 71, 0
9, 556800, Note_on_c, 7, 69, 70
9, 556800, Note_on_c, 7, 72, 70
9, 557040, Note_on_c, 7, 67, 70
9, 557040, Note_on_c, 7, 71, 70
9, 557100, Note_on_c, 7, 72, 0
9, 557100, Note_on_c, 7, 69, 0
9, 557280, Note_on_c, 7, 65, 70
9, 557280, Note_on_c, 7, 69, 70
9, 557340, Note_on_c, 7, 67, 0
9, 557340, Note_on_c, 7, 71, 0
9, 557520, Note_on_c, 7, 64, 70
9, 557520, Note_on_c, 7, 67, 70
9, 557580, Note_on_c, 7, 65, 0
9, 557580, Note_on_c, 7, 69, 0
9, 557760, Note_on_c, 7, 62, 70
9, 557760, Note_on_c, 7, 65, 70
9, 557820, Note_on_c, 7, 64, 0
9, 557820, Note_on_c, 7, 67, 0
9, 558000, Note_on_c, 7, 60, 70
9, 558000, Note_on_c, 7, 64, 70
9, 558060, Note_on_c, 7, 62, 0
9, 558060, Note_on_c, 7, 65, 0
9, 558199, Note_on_c, 7, 60, 0
9, 558204, Note_on_c, 7, 64, 0
9, 558240, Note_on_c, 7, 59, 80
9, 558240, Note_on_c, 7, 62, 80
9, 559200, Note_on_c, 7, 61, 78
9, 559200, Note_on_c, 7, 64, 78
9, 559269, Note_on_c, 7, 59, 0
9, 559279, Note_on_c, 7, 62, 0
9, 559674, Note_on_c, 7, 61, 0
9, 559674, Note_on_c, 7, 64, 0
9, 559680, Note_on_c, 7, 61, 89
9, 559680, Note_on_c, 7, 64, 89
9, 560040, Note_on_c, 7, 62, 89
9, 560040, Note_on_c, 7, 65, 89
9, 560084, Note_on_c, 7, 64, 0
9, 560084, Note_on_c, 7, 61, 0
9, 560129, Note_on_c, 7, 62, 0
9, 560129, Note_on_c, 7, 65, 0
9, 560160, Note_on_c, 7, 62, 70
9, 560160, Note_on_c, 7, 65, 70
9, 560640, Note_on_c, 7, 65, 0
9, 560640, Note_on_c, 7, 62, 0
9, 561120, Note_on_c, 7, 55, 70
9, 561120, Note_on_c, 7, 52, 70
9, 562080, Note_on_c, 7, 53, 70
9, 562080, Note_on_c, 7, 50, 70
9, 562159, Note_on_c, 7, 52, 0
9, 562164, Note_on_c, 7, 55, 0
9, 562529, Note_on_c, 7, 50, 0
9, 562539, Note_on_c, 7, 53, 0
9, 562560, Note_on_c, 7, 52, 70
9, 562560, Note_on_c, 7, 48, 70
9, 564000, Note_on_c, 7, 48, 0
9, 564000, Note_on_c, 7, 52, 0
9, 564000, Note_on_c, 7, 57, 70
9, 564000, Note_on_c, 7, 53, 70
9, 564240, Note_on_c, 7, 53, 0
9, 564240, Note_on_c, 7, 57, 0
9, 564480, Note_on_c, 7, 55, 70
9, 564720, Note_on_c, 7, 55, 0
9, 564960, Note_on_c, 7, 55, 70
9, 565200, Note_on_c, 7, 55, 0
9, 565440, Note_on_c, 7, 55, 91
9, 565440, Note_on_c, 7, 52, 91
9, 565909, Note_on_c, 7, 52, 0
9, 565920, Note_on_c, 7, 52, 70
9, 565920, Note_on_c, 7, 48, 70
9, 565969, Note_on_c, 7, 55, 0
9, 566160, Note_on_c, 7, 48, 0
9, 566160, Note_on_c, 7, 52, 0
9, 566280, Note_on_c, 7, 52, 70
9, 566280, Note_on_c, 7, 48, 70
9, 566324, Note_on_c, 7, 48, 0
9, 566324, Note_on_c, 7, 52, 0
9, 566400, Note_on_c, 7, 53, 70
9, 566400, Note_on_c, 7, 50, 70
9, 566520, Note_on_c, 7, 55, 70
9, 566520, Note_on_c, 7, 52, 70
9, 566550, Note_on_c, 7, 50, 0
9, 566550, Note_on_c, 7, 53, 0
9, 566640, Note_on_c, 7, 57, 70
9, 566640, Note_on_c, 7, 53, 70
9, 566670, Note_on_c, 7, 55, 0
9, 566670, Note_on_c, 7, 52, 0
9, 566760, Note_on_c, 7, 59, 70
9, 566760, Note_on_c, 7, 55, 70
9, 566790, Note_on_c, 7, 57, 0
9, 566790, Note_on_c, 7, 53, 0
9, 566849, Note_on_c, 7, 55, 0
9, 566859, Note_on_c, 7, 59, 0
9, 566880, Note_on_c, 7, 60, 70
9, 566880, Note_on_c, 7, 57, 70
9, 567120, Note_on_c, 7, 59, 70
9, 567120, Note_on_c, 7, 55, 70
9, 567180, Note_on_c, 7, 57, 0
9, 567180, Note_on_c, 7, 60, 0
9, 567360, Note_on_c, 7, 57, 70
9, 567360, Note_on_c, 7, 53, 70
9, 567420, Note_on_c, 7, 59, 0
9, 567420, Note_on_c, 7, 55, 0
9, 567600, Note_on_c, 7, 55, 70
9, 567600, Note_on_c, 7, 52, 70
9, 567660, Note_on_c, 7, 57, 0
9, 567660, Note_on_c, 7, 53, 0
9, 567840, Note_on_c, 7, 53, 70
9, 567840, Note_on_c, 7, 50, 70
9, 567900, Note_on_c, 7, 55, 0
9, 567900, Note_on_c, 7, 52, 0
9, 568080, Note_on_c, 7, 52, 70
9, 568080, Note_on_c, 7, 48, 70
9, 568140, Note_on_c, 7, 53, 0
9, 568140, Note_on_c, 7, 50, 0
9, 568279, Note_on_c, 7, 52, 0
9, 568284, Note_on_c, 7, 48, 0
9, 568320, Note_on_c, 7, 50, 80
9, 568320, Note_on_c, 7, 48, 80
9, 569280, Note_on_c, 7, 52, 90
9, 569349, Note_on_c, 7, 50, 0
9, 570120, Note_on_c, 7, 53, 70
9, 570179, Note_on_c, 7, 52, 0
9, 570209, Note_on_c, 7, 53, 0
9, 570240, Note_on_c, 7, 57, 70
9, 570720, Note_on_c, 7, 48, 0
9, 570720, Note_on_c, 7, 59, 70
9, 570720, Note_on_c, 7, 55, 70
9, 570784, Note_on_c, 7, 57, 0
9, 571184, Note_on_c, 7, 59, 0
9, 571200, Note_on_c, 7, 55, 0
9, 571200, Note_on_c, 7, 60, 70
9, 571200, Note_on_c, 7, 55, 70
9, 571680, Note_on_c, 7, 55, 0
9, 571680, Note_on_c, 7, 60, 0
9, 574080, Note_on_c, 7, 55, 70
9, 574080, Note_on_c, 7, 52, 70
9, 575040, Note_on_c, 7, 53, 70
9, 575040, Note_on_c, 7, 50, 70
9, 575139, Note_on_c, 7, 55, 0
9, 575149, Note_on_c, 7, 52, 0
9, 575479, Note_on_c, 7, 53, 0
9, 575479, Note_on_c, 7, 50, 0
9, 575520, Note_on_c, 7, 52, 70
9, 575520, Note_on_c, 7, 48, 70
9, 575760, Note_on_c, 7, 48, 0
9, 575760, Note_on_c, 7, 52, 0
9, 576000, Note_on_c, 7, 64, 70
9, 576000, Note_on_c, 7, 60, 70
9, 576240, Note_on_c, 7, 60, 0
9, 576240, Note_on_c, 7, 64, 0
9, 576480, Note_on_c, 7, 67, 70
9, 576480, Note_on_c, 7, 62, 70
9, 576720, Note_on_c, 7, 62, 0
9, 576720, Note_on_c, 7, 67, 0
9, 576960, Note_on_c, 7, 67, 70
9, 576960, Note_on_c, 7, 60, 70
9, 577440, Note_on_c, 7, 60, 0
9, 577440, Note_on_c, 7, 67, 0
9, 585600, Note_on_c, 7, 55, 70
9, 585600, Note_on_c, 7, 52, 70
9, 587040, Note_on_c, 7, 53, 70
9, 587169, Note_on_c, 7, 52, 0
9, 588459, Note_on_c, 7, 55, 0
9, 588469, Note_on_c, 7, 53, 0
9, 588480, Note_on_c, 7, 55, 78
9, 588480, Note_on_c, 7, 60, 78
9, 589920, Note_on_c, 7, 57, 78
9, 590059, Note_on_c, 7, 55, 0
9, 591349, Note_on_c, 7, 60, 0
9, 591359, Note_on_c, 7, 57, 0
9, 591360, Note_on_c, 7, 55, 92
9, 591360, Note_on_c, 7, 48, 92
9, 592800, Note_on_c, 7, 53, 70
9, 592879, Note_on_c, 7, 55, 0
9, 593040, Note_on_c, 7, 53, 0
9, 593040, Note_on_c, 7, 48, 0
9, 598560, Note_on_c, 7, 60, 70
9, 598560, Note_on_c, 7, 53, 70
9, 599040, Note_on_c, 7, 53, 0
9, 599040, Note_on_c, 7, 60, 0
9, 599040, Note_on_c, 7, 62, 70
9, 599040, Note_on_c, 7, 50, 70
9, 599520, Note_on_c, 7, 50, 0
9, 599520, Note_on_c, 7, 58, 70
9, 600000, Note_on_c, 7, 58, 0
9, 600000, Note_on_c, 7, 62, 0
9, 600000, Note_on_c, 7, 60, 70
9, 600000, Note_on_c, 7, 60, 70
9, 600480, Note_on_c, 7, 60, 0
9, 600480, Note_on_c, 7, 48, 70
9, 600960, Note_on_c, 7, 48, 0
9, 600960, Note_on_c, 7, 57, 70
9, 601440, Note_on_c, 7, 57, 0
9, 601440, Note_on_c, 7, 60, 0
9, 601440, Note_on_c, 7, 58, 70
9, 602400, Note_on_c, 7, 58, 0
9, 602400, Note_on_c, 7, 62, 70
9, 602400, Note_on_c, 7, 55, 70
9, 602880, Note_on_c, 7, 55, 0
9, 602880, Note_on_c, 7, 62, 0
9, 602880, Note_on_c, 7, 60, 70
9, 602880, Note_on_c, 7, 48, 70
9, 603600, Note_on_c, 7, 60, 0
9, 603840, Note_on_c, 7, 48, 0
9, 604320, Note_on_c, 7, 60, 57
9, 604488, Note_on_c, 7, 60, 0
9, 604560, Note_on_c, 7, 60, 57
9, 604728, Note_on_c, 7, 60, 0
9, 604800, Note_on_c, 7, 60, 57
9, 604968, Note_on_c, 7, 60, 0
9, 605040, Note_on_c, 7, 60, 57
9, 605208, Note_on_c, 7, 60, 0
9, 605280, Note_on_c, 7, 60, 57
9, 605448, Note_on_c, 7, 60, 0
9, 605520, Note_on_c, 7, 60, 57
9, 605688, Note_on_c, 7, 60, 0
9, 605760, Note_on_c, 7, 65, 57
9, 605760, Note_on_c, 7, 59, 57
9, 605928, Note_on_c, 7, 59, 0
9, 605928, Note_on_c, 7, 65, 0
9, 606000, Note_on_c, 7, 65, 57
9, 606000, Note_on_c, 7, 59, 57
9, 606168, Note_on_c, 7, 59, 0
9, 606168, Note_on_c, 7, 65, 0
9, 606240, Note_on_c, 7, 65, 57
9, 606240, Note_on_c, 7, 59, 57
9, 606408, Note_on_c, 7, 59, 0
9, 606408, Note_on_c, 7, 65, 0
9, 606480, Note_on_c, 7, 65, 57
9, 606480, Note_on_c, 7, 59, 57
9, 606648, Note_on_c, 7, 59, 0
9, 606648, Note_on_c, 7, 65, 0
9, 606720, Note_on_c, 7, 65, 57
9, 606720, Note_on_c, 7, 59, 57
9, 606888, Note_on_c, 7, 59, 0
9, 606888, Note_on_c, 7, 65, 0
9, 606960, Note_on_c, 7, 65, 57
9, 606960, Note_on_c, 7, 59, 57
9, 607128, Note_on_c, 7, 59, 0
9, 607128, Note_on_c, 7, 65, 0
9, 607200, Note_on_c, 7, 65, 57
9, 607200, Note_on_c, 7, 55, 57
9, 607368, Note_on_c, 7, 55, 0
9, 607368, Note_on_c, 7, 65, 0
9, 607440, Note_on_c, 7, 65, 57
9, 607440, Note_on_c, 7, 55, 57
9, 607608, Note_on_c, 7, 55, 0
9, 607608, Note_on_c, 7, 65, 0
9, 607680, Note_on_c, 7, 65, 57
9, 607680, Note_on_c, 7, 55, 57
9, 607848, Note_on_c, 7, 55, 0
9, 607848, Note_on_c, 7, 65, 0
9, 607920, Note_on_c, 7, 65, 57
9, 607920, Note_on_c, 7, 55, 57
9, 608088, Note_on_c, 7, 55, 0
9, 608088, Note_on_c, 7, 65, 0
9, 608160, Note_on_c, 7, 65, 57
9, 608160, Note_on_c, 7, 55, 57
9, 608328, Note_on_c, 7, 55, 0
9, 608328, Note_on_c, 7, 65, 0
9, 608400, Note_on_c, 7, 65, 57
9, 608400, Note_on_c, 7, 55, 57
9, 608568, Note_on_c, 7, 55, 0
9, 608568, Note_on_c, 7, 65, 0
9, 608640, Note_on_c, 7, 64, 57
9, 608640, Note_on_c, 7, 48, 57
9, 609360, Note_on_c, 7, 64, 0
9, 609360, Note_on_c, 7, 60, 89
9, 609600, Note_on_c, 7, 48, 0
9, 609600, Note_on_c, 7, 60, 89
9, 609840, Note_on_c, 7, 60, 0
9, 609840, Note_on_c, 7, 58, 89
9, 610080, Note_on_c, 7, 58, 0
9, 610080, Note_on_c, 7, 60, 0
9, 610080, Note_on_c, 7, 57, 89
9, 610080, Note_on_c, 7, 60, 89
9, 610560, Note_on_c, 7, 60, 0
9, 610560, Note_on_c, 7, 57, 0
9, 618240, Note_on_c, 7, 62, 78
9, 618720, Note_on_c, 7, 62, 0
9, 618720, Note_on_c, 7, 60, 78
9, 619200, Note_on_c, 7, 60, 0
9, 619440, Note_on_c, 7, 55, 78
9, 619440, Note_on_c, 7, 52, 78
9, 619680, Note_on_c, 7, 53, 76
9, 619719, Note_on_c, 7, 52, 0
9, 619729, Note_on_c, 7, 55, 0
9, 619920, Note_on_c, 7, 58, 74
9, 619959, Note_on_c, 7, 53, 0
9, 620160, Note_on_c, 7, 58, 0
9, 620160, Note_on_c, 7, 60, 79
9, 620160, Note_on_c, 7, 57, 79
9, 620640, Note_on_c, 7, 57, 0
9, 620640, Note_on_c, 7, 57, 70
9, 620640, Note_on_c, 7, 53, 70
9, 620689, Note_on_c, 7, 60, 0
9, 620880, Note_on_c, 7, 53, 0
9, 620880, Note_on_c, 7, 57, 0
9, 621000, Note_on_c, 7, 57, 70
9, 621000, Note_on_c, 7, 53, 70
9, 621044, Note_on_c, 7, 53, 0
9, 621044, Note_on_c, 7, 57, 0
9, 621120, Note_on_c, 7, 58, 70
9, 621120, Note_on_c, 7, 55, 70
9, 621240, Note_on_c, 7, 60, 70
9, 621240, Note_on_c, 7, 57, 70
9, 621280, Note_on_c, 7, 55, 0
9, 621280, Note_on_c, 7, 58, 0
9, 621360, Note_on_c, 7, 62, 70
9, 621360, Note_on_c, 7, 58, 70
9, 621400, Note_on_c, 7, 60, 0
9, 621400, Note_on_c, 7, 57, 0
9, 621480, Note_on_c, 7, 64, 70
9, 621480, Note_on_c, 7, 60, 70
9, 621520, Note_on_c, 7, 62, 0
9, 621520, Note_on_c, 7, 58, 0
9, 621600, Note_on_c, 7, 64, 0
9, 621600, Note_on_c, 7, 60, 0
9, 621600, Note_on_c, 7, 65, 70
9, 621600, Note_on_c, 7, 62, 70
9, 621840, Note_on_c, 7, 64, 70
9, 621840, Note_on_c, 7, 60, 70
9, 621887, Note_on_c, 7, 62, 0
9, 621887, Note_on_c, 7, 65, 0
9, 622080, Note_on_c, 7, 62, 70
9, 622080, Note_on_c, 7, 58, 70
9, 622127, Note_on_c, 7, 64, 0
9, 622127, Note_on_c, 7, 60, 0
9, 622320, Note_on_c, 7, 60, 70
9, 622320, Note_on_c, 7, 57, 70
9, 622367, Note_on_c, 7, 62, 0
9, 622367, Note_on_c, 7, 58, 0
9, 622560, Note_on_c, 7, 58, 70
9, 622560, Note_on_c, 7, 55, 70
9, 622607, Note_on_c, 7, 60, 0
9, 622607, Note_on_c, 7, 57, 0
9, 622800, Note_on_c, 7, 57, 70
9, 622800, Note_on_c, 7, 53, 70
9, 622847, Note_on_c, 7, 58, 0
9, 622847, Note_on_c, 7, 55, 0
9, 623040, Note_on_c, 7, 57, 0
9, 623040, Note_on_c, 7, 53, 0
9, 623040, Note_on_c, 7, 55, 76
9, 623040, Note_on_c, 7, 58, 76
9, 623520, Note_on_c, 7, 58, 0
9, 623520, Note_on_c, 7, 55, 0
9, 623520, Note_on_c, 7, 67, 82
9, 623520, Note_on_c, 7, 64, 82
9, 624240, Note_on_c, 7, 69, 91
9, 624240, Note_on_c, 7, 66, 91
9, 624289, Note_on_c, 7, 64, 0
9, 624299, Note_on_c, 7, 67, 0
9, 624480, Note_on_c, 7, 69, 0
9, 624480, Note_on_c, 7, 66, 0
9, 624480, Note_on_c, 7, 69, 91
9, 624480, Note_on_c, 7, 66, 91
9, 624840, Note_on_c, 7, 70, 91
9, 624840, Note_on_c, 7, 67, 91
9, 624869, Note_on_c, 7, 69, 0
9, 624879, Note_on_c, 7, 66, 0
9, 624939, Note_on_c, 7, 70, 0
9, 624939, Note_on_c, 7, 67, 0
9, 624960, Note_on_c, 7, 70, 70
9, 624960, Note_on_c, 7, 67, 70
9, 625440, Note_on_c, 7, 67, 0
9, 625440, Note_on_c, 7, 70, 0
9, 625920, Note_on_c, 7, 60, 70
9, 625920, Note_on_c, 7, 57, 70
9, 626880, Note_on_c, 7, 58, 70
9, 626880, Note_on_c, 7, 55, 70
9, 626929, Note_on_c, 7, 57, 0
9, 626929, Note_on_c, 7, 60, 0
9, 627360, Note_on_c, 7, 58, 0
9, 627360, Note_on_c, 7, 55, 0
9, 627360, Note_on_c, 7, 57, 70
9, 627360, Note_on_c, 7, 53, 70
9, 628800, Note_on_c, 7, 62, 70
9, 628800, Note_on_c, 7, 58, 70
9, 628844, Note_on_c, 7, 57, 0
9, 628849, Note_on_c, 7, 53, 0
9, 629040, Note_on_c, 7, 62, 0
9, 629040, Note_on_c, 7, 58, 0
9, 629280, Note_on_c, 7, 60, 70
9, 629520, Note_on_c, 7, 60, 0
9, 629760, Note_on_c, 7, 60, 70
9, 629760, Note_on_c, 7, 58, 70
9, 630000, Note_on_c, 7, 58, 0
9, 630000, Note_on_c, 7, 60, 0
9, 630240, Note_on_c, 7, 60, 93
9, 630240, Note_on_c, 7, 57, 93
9, 630720, Note_on_c, 7, 57, 0
9, 630720, Note_on_c, 7, 57, 70
9, 630720, Note_on_c, 7, 53, 70
9, 630764, Note_on_c, 7, 60, 0
9, 630960, Note_on_c, 7, 53, 0
9, 630960, Note_on_c, 7, 57, 0
9, 631080, Note_on_c, 7, 57, 70
9, 631080, Note_on_c, 7, 53, 70
9, 631092, Note_on_c, 7, 53, 0
9, 631124, Note_on_c, 7, 57, 0
9, 631200, Note_on_c, 7, 58, 70
9, 631200, Note_on_c, 7, 55, 70
9, 631320, Note_on_c, 7, 60, 70
9, 631320, Note_on_c, 7, 57, 70
9, 631360, Note_on_c, 7, 55, 0
9, 631360, Note_on_c, 7, 58, 0
9, 631440, Note_on_c, 7, 62, 70
9, 631440, Note_on_c, 7, 58, 70
9, 631480, Note_on_c, 7, 60, 0
9, 631480, Note_on_c, 7, 57, 0
9, 631560, Note_on_c, 7, 64, 70
9, 631560, Note_on_c, 7, 60, 70
9, 631600, Note_on_c, 7, 62, 0
9, 631600, Note_on_c, 7, 58, 0
9, 631680, Note_on_c, 7, 64, 0
9, 631680, Note_on_c, 7, 60, 0
9, 631680, Note_on_c, 7, 65, 70
9, 631680, Note_on_c, 7, 62, 70
9, 631920, Note_on_c, 7, 64, 70
9, 631920, Note_on_c, 7, 60, 70
9, 631980, Note_on_c, 7, 62, 0
9, 631980, Note_on_c, 7, 65, 0
9, 632160, Note_on_c, 7, 62, 70
9, 632160, Note_on_c, 7, 58, 70
9, 632220, Note_on_c, 7, 64, 0
9, 632220, Note_on_c, 7, 60, 0
9, 632400, Note_on_c, 7, 60, 70
9, 632400, Note_on_c, 7, 57, 70
9, 632460, Note_on_c, 7, 62, 0
9, 632460, Note_on_c, 7, 58, 0
9, 632640, Note_on_c, 7, 58, 70
9, 632640, Note_on_c, 7, 55, 70
9, 632700, Note_on_c, 7, 60, 0
9, 632700, Note_on_c, 7, 57, 0
9, 632880, Note_on_c, 7, 57, 70
9, 632880, Note_on_c, 7, 53, 70
9, 632940, Note_on_c, 7, 58, 0
9, 632940, Note_on_c, 7, 55, 0
9, 633120, Note_on_c, 7, 57, 0
9, 633120, Note_on_c, 7, 53, 0
9, 633120, Note_on_c, 7, 55, 73
9, 633120, Note_on_c, 7, 53, 73
9, 633600, Note_on_c, 7, 52, 79
9, 633664, Note_on_c, 7, 53, 0
9, 634080, Note_on_c, 7, 57, 85
9, 634080, Note_on_c, 7, 51, 85
9, 634144, Note_on_c, 7, 52, 0
9, 634144, Note_on_c, 7, 55, 0
9, 634560, Note_on_c, 7, 57, 0
9, 634560, Note_on_c, 7, 51, 0
9, 634560, Note_on_c, 7, 57, 87
9, 634560, Note_on_c, 7, 51, 87
9, 634920, Note_on_c, 7, 58, 79
9, 634920, Note_on_c, 7, 50, 79
9, 634959, Note_on_c, 7, 57, 0
9, 634964, Note_on_c, 7, 51, 0
9, 635019, Note_on_c, 7, 50, 0
9, 635024, Note_on_c, 7, 58, 0
9, 635040, Note_on_c, 7, 58, 70
9, 635040, Note_on_c, 7, 50, 70
9, 635520, Note_on_c, 7, 55, 70
9, 635579, Note_on_c, 7, 58, 0
9, 635584, Note_on_c, 7, 50, 0
9, 636000, Note_on_c, 7, 55, 0
9, 636000, Note_on_c, 7, 57, 70
9, 636000, Note_on_c, 7, 48, 70
9, 636480, Note_on_c, 7, 48, 0
9, 636480, Note_on_c, 7, 57, 0
9, 638880, Note_on_c, 7, 60, 70
9, 638880, Note_on_c, 7, 57, 70
9, 639840, Note_on_c, 7, 58, 70
9, 639840, Note_on_c, 7, 55, 70
9, 639904, Note_on_c, 7, 57, 0
9, 639904, Note_on_c, 7, 60, 0
9, 640320, Note_on_c, 7, 57, 70
9, 640320, Note_on_c, 7, 53, 70
9, 640369, Note_on_c, 7, 58, 0
9, 640369, Note_on_c, 7, 55, 0
9, 640560, Note_on_c, 7, 57, 0
9, 640560, Note_on_c, 7, 53, 0
9, 640800, Note_on_c, 7, 69, 70
9, 640800, Note_on_c, 7, 65, 70
9, 641040, Note_on_c, 7, 65, 0
9, 641040, Note_on_c, 7, 69, 0
9, 641280, Note_on_c, 7, 72, 70
9, 641280, Note_on_c, 7, 67, 70
9, 641520, Note_on_c, 7, 67, 0
9, 641520, Note_on_c, 7, 72, 0
9, 641760, Note_on_c, 7, 72, 70
9, 641760, Note_on_c, 7, 65, 70
9, 642240, Note_on_c, 7, 65, 0
9, 642240, Note_on_c, 7, 72, 0
9, 650640, Note_on_c, 7, 60, 70
9, 650640, Note_on_c, 7, 48, 70
9, 650880, Note_on_c, 7, 48, 0
9, 650880, Note_on_c, 7, 60, 0
9, 651120, Note_on_c, 7, 60, 70
9, 651120, Note_on_c, 7, 48, 70
9, 651360, Note_on_c, 7, 48, 0
9, 651360, Note_on_c, 7, 60, 0
9, 651600, Note_on_c, 7, 60, 70
9, 651600, Note_on_c, 7, 48, 70
9, 651840, Note_on_c, 7, 48, 0
9, 651840, Note_on_c, 7, 60, 0
9, 652080, Note_on_c, 7, 52, 70
9, 652080, Note_on_c, 7, 48, 70
9, 652080, Note_on_c, 7, 60, 70
9, 652320, Note_on_c, 7, 60, 0
9, 652320, Note_on_c, 7, 48, 0
9, 652320, Note_on_c, 7, 52, 0
9, 652560, Note_on_c, 7, 58, 75
9, 652560, Note_on_c, 7, 48, 75
9, 652560, Note_on_c, 7, 60, 75
9, 652800, Note_on_c, 7, 60, 0
9, 652800, Note_on_c, 7, 48, 0
9, 652800, Note_on_c, 7, 58, 0
9, 653040, Note_on_c, 7, 55, 79
9, 653040, Note_on_c, 7, 48, 79
9, 653040, Note_on_c, 7, 60, 79
9, 653280, Note_on_c, 7, 60, 0
9, 653280, Note_on_c, 7, 48, 0
9, 653280, Note_on_c, 7, 55, 0
9, 653280, Note_on_c, 7, 53, 82
9, 653280, Note_on_c, 7, 48, 82
9, 653280, Note_on_c, 7, 60, 82
9, 653760, Note_on_c, 7, 60, 0
9, 653760, Note_on_c, 7, 48, 0
9, 653760, Note_on_c, 7, 53, 0
9, 654000, Note_on_c, 7, 65, 89
9, 654240, Note_on_c, 7, 65, 0
9, 654240, Note_on_c, 7, 64, 89
9, 654480, Note_on_c, 7, 64, 0
9, 654480, Note_on_c, 7, 62, 89
9, 654720, Note_on_c, 7, 62, 0
9, 654720, Note_on_c, 7, 60, 89
9, 654960, Note_on_c, 7, 60, 0
9, 654960, Note_on_c, 7, 65, 89
9, 655200, Note_on_c, 7, 64, 89
9, 655260, Note_on_c, 7, 65, 0
9, 655440, Note_on_c, 7, 62, 89
9, 655500, Note_on_c, 7, 64, 0
9, 655680, Note_on_c, 7, 60, 89
9, 655740, Note_on_c, 7, 62, 0
9, 655920, Note_on_c, 7, 58, 89
9, 655980, Note_on_c, 7, 60, 0
9, 656160, Note_on_c, 7, 57, 89
9, 656220, Note_on_c, 7, 58, 0
9, 656364, Note_on_c, 7, 57, 0
9, 659040, Note_on_c, 7, 57, 70
9, 659040, Note_on_c, 7, 53, 70
9, 659280, Note_on_c, 7, 53, 0
9, 659280, Note_on_c, 7, 57, 0
9, 659520, Note_on_c, 7, 57, 70
9, 659520, Note_on_c, 7, 53, 70
9, 659760, Note_on_c, 7, 53, 0
9, 659760, Note_on_c, 7, 57, 0
9, 660000, Note_on_c, 7, 57, 70
9, 660000, Note_on_c, 7, 53, 70
9, 660240, Note_on_c, 7, 53, 0
9, 660240, Note_on_c, 7, 57, 0
9, 660480, Note_on_c, 7, 52, 88
9, 660480, Note_on_c, 7, 60, 88
9, 661320, Note_on_c, 7, 55, 88
9, 661349, Note_on_c, 7, 52, 0
9, 661440, Note_on_c, 7, 53, 88
9, 661479, Note_on_c, 7, 55, 0
9, 661680, Note_on_c, 7, 53, 0
9, 661680, Note_on_c, 7, 60, 0
9, 663360, Note_on_c, 7, 65, 70
9, 663360, Note_on_c, 7, 53, 70
9, 664560, Note_on_c, 7, 53, 0
9, 664560, Note_on_c, 7, 65, 0
9, 664800, Note_on_c, 7, 60, 89
9, 664800, Note_on_c, 7, 53, 89
9, 665280, Note_on_c, 7, 60, 0
9, 665280, Note_on_c, 7, 62, 89
9, 665760, Note_on_c, 7, 53, 0
9, 665760, Note_on_c, 7, 55, 89
9, 666240, Note_on_c, 7, 55, 0
9, 666240, Note_on_c, 7, 62, 0
9, 666240, Note_on_c, 7, 60, 89
9, 666240, Note_on_c, 7, 48, 89
9, 666720, Note_on_c, 7, 55, 89
9, 666769, Note_on_c, 7, 48, 0
9, 667200, Note_on_c, 7, 53, 89
9, 667244, Note_on_c, 7, 55, 0
9, 667680, Note_on_c, 7, 53, 0
9, 667680, Note_on_c, 7, 60, 0
9, 667680, Note_on_c, 7, 58, 89
9, 668160, Note_on_c, 7, 53, 89
9, 668640, Note_on_c, 7, 53, 0
9, 668640, Note_on_c, 7, 62, 89
9, 669120, Note_on_c, 7, 62, 0
9, 669120, Note_on_c, 7, 58, 0
9, 669120, Note_on_c, 7, 48, 89
9, 670560, Note_on_c, 7, 48, 0
9, 670560, Note_on_c, 7, 53, 70
9, 670560, Note_on_c, 7, 50, 70
9, 671040, Note_on_c, 7, 48, 70
9, 671079, Note_on_c, 7, 50, 0
9, 671520, Note_on_c, 7, 52, 70
9, 671569, Note_on_c, 7, 53, 0
9, 672000, Note_on_c, 7, 52, 0
9, 672000, Note_on_c, 7, 48, 0
9, 672000, Note_on_c, 7, 53, 70
9, 672000, Note_on_c, 7, 48, 70
9, 672480, Note_on_c, 7, 48, 0
9, 672480, Note_on_c, 7, 53, 0
9, 673440, Note_on_c, 7, 58, 61
9, 673440, Note_on_c, 7, 53, 61
9, 673920, Note_on_c, 7, 53, 0
9, 673920, Note_on_c, 7, 58, 0
9, 673920, Note_on_c, 7, 60, 61
9, 673920, Note_on_c, 7, 57, 61
9, 674400, Note_on_c, 7, 57, 0
9, 674400, Note_on_c, 7, 58, 61
9, 674880, Note_on_c, 7, 58, 0
9, 674880, Note_on_c, 7, 57, 61
9, 675360, Note_on_c, 7, 57, 0
9, 675360, Note_on_c, 7, 60, 0
9, 677760, Note_on_c, 7, 65, 60
9, 680160, Note_on_c, 7, 65, 0
9, 682560, Note_on_c, 7, 60, 70
9, 682956, Note_on_c, 7, 60, 0
9, 683520, Note_on_c, 7, 55, 70
9, 683900, Note_on_c, 7, 55, 0
9, 684480, Note_on_c, 7, 48, 70
9, 685332, Note_on_c, 7, 48, 0
9, 686400, Note_on_c, 7, 60, 70
9, 687244, Note_on_c, 7, 60, 0
9, 688320, Note_on_c, 7, 48, 70
9, 689148, Note_on_c, 7, 48, 0
9, 690240, Note_on_c, 7, 52, 70
9, 691200, Note_on_c, 7, 55, 70
9, 691268, Note_on_c, 7, 52, 0
9, 691988, Note_on_c, 7, 55, 0
9, 692160, Note_on_c, 7, 60, 70
9, 693120, Note_on_c, 7, 55, 70
9, 693212, Note_on_c, 7, 60, 0
9, 693940, Note_on_c, 7, 55, 0
9, 694080, Note_on_c, 7, 48, 70
9, 694560, Note_on_c, 7, 48, 0
9, 695040, Note_on_c, 7, 60, 70
9, 695520, Note_on_c, 7, 60, 0
9, 695520, Note_on_c, 7, 48, 70
9, 696000, Note_on_c, 7, 48, 0
9, 696000, Note_on_c, 7, 55, 70
9, 696960, Note_on_c, 7, 55, 0
9, 711360, Note_on_c, 7, 64, 105
9, 711564, Note_on_c, 7, 64, 0
9, 711600, Note_on_c, 7, 65, 105
9, 711796, Note_on_c, 7, 65, 0
9, 711840, Note_on_c, 7, 67, 105
9, 712028, Note_on_c, 7, 67, 0
9, 712080, Note_on_c, 7, 65, 105
9, 712244, Note_on_c, 7, 65, 0
9, 712320, Note_on_c, 7, 64, 105
9, 712516, Note_on_c, 7, 64, 0
9, 712560, Note_on_c, 7, 65, 105
9, 712756, Note_on_c, 7, 65, 0
9, 712800, Note_on_c, 7, 67, 105
9, 712996, Note_on_c, 7, 67, 0
9, 713040, Note_on_c, 7, 69, 105
9, 713196, Note_on_c, 7, 69, 0
9, 713280, Note_on_c, 7, 62, 105
9, 713468, Note_on_c, 7, 62, 0
9, 713520, Note_on_c, 7, 60, 105
9, 713692, Note_on_c, 7, 60, 0
9, 713760, Note_on_c, 7, 62, 105
9, 713956, Note_on_c, 7, 62, 0
9, 714000, Note_on_c, 7, 60, 105
9, 714188, Note_on_c, 7, 60, 0
9, 714240, Note_on_c, 7, 59, 105
9, 714420, Note_on_c, 7, 59, 0
9, 714480, Note_on_c, 7, 60, 105
9, 714660, Note_on_c, 7, 60, 0
9, 714720, Note_on_c, 7, 62, 105
9, 714892, Note_on_c, 7, 62, 0
9, 714960, Note_on_c, 7, 59, 105
9, 715148, Note_on_c, 7, 59, 0
9, 715200, Note_on_c, 7, 55, 105
9, 715200, Note_on_c, 7, 67, 105
9, 715612, Note_on_c, 7, 67, 0
9, 715612, Note_on_c, 7, 55, 0
9, 715680, Note_on_c, 7, 55, 105
9, 715680, Note_on_c, 7, 67, 105
9, 716508, Note_on_c, 7, 67, 0
9, 716548, Note_on_c, 7, 55, 0
9, 716640, Note_on_c, 7, 55, 105
9, 716640, Note_on_c, 7, 67, 105
9, 717508, Note_on_c, 7, 67, 0
9, 717532, Note_on_c, 7, 55, 0
9, 717600, Note_on_c, 7, 55, 105
9, 717600, Note_on_c, 7, 67, 105
9, 718492, Note_on_c, 7, 67, 0
9, 718492, Note_on_c, 7, 55, 0
9, 718560, Note_on_c, 7, 55, 105
9, 718560, Note_on_c, 7, 67, 105
9, 718948, Note_on_c, 7, 67, 0
9, 718964, Note_on_c, 7, 55, 0
9, 719040, Note_on_c, 7, 55, 105
9, 719040, Note_on_c, 7, 67, 105
9, 719452, Note_on_c, 7, 55, 0
9, 719460, Note_on_c, 7, 67, 0
9, 719520, Note_on_c, 7, 69, 105
9, 720396, Note_on_c, 7, 69, 0
9, 720480, Note_on_c, 7, 67, 80
9, 720672, Note_on_c, 7, 67, 0
9, 720960, Note_on_c, 7, 65, 70
9, 721152, Note_on_c, 7, 65, 0
9, 721440, Note_on_c, 7, 64, 70
9, 721632, Note_on_c, 7, 64, 0
9, 721920, Note_on_c, 7, 69, 70
9, 722112, Note_on_c, 7, 69, 0
9, 722400, Note_on_c, 7, 67, 70
9, 722592, Note_on_c, 7, 67, 0
9, 722880, Note_on_c, 7, 65, 70
9, 723204, Note_on_c, 7, 65, 0
9, 723360, Note_on_c, 7, 69, 105
9, 724220, Note_on_c, 7, 69, 0
9, 724320, Note_on_c, 7, 67, 80
9, 724512, Note_on_c, 7, 67, 0
9, 724800, Note_on_c, 7, 65, 70
9, 724992, Note_on_c, 7, 65, 0
9, 725280, Note_on_c, 7, 64, 70
9, 725472, Note_on_c, 7, 64, 0
9, 725760, Note_on_c, 7, 69, 70
9, 725952, Note_on_c, 7, 69, 0
9, 726240, Note_on_c, 7, 67, 70
9, 726432, Note_on_c, 7, 67, 0
9, 726720, Note_on_c, 7, 69, 70
9, 730476, Note_on_c, 7, 69, 0
9, 730560, Note_on_c, 7, 71, 70
9, 731040, Note_on_c, 7, 71, 0
9, 734880, Note_on_c, 7, 60, 70
9, 735072, Note_on_c, 7, 60, 0
9, 735360, Note_on_c, 7, 64, 70
9, 735552, Note_on_c, 7, 64, 0
9, 735840, Note_on_c, 7, 60, 70
9, 736032, Note_on_c, 7, 60, 0
9, 736800, Note_on_c, 7, 62, 70
9, 736992, Note_on_c, 7, 62, 0
9, 737280, Note_on_c, 7, 59, 70
9, 737472, Note_on_c, 7, 59, 0
9, 737760, Note_on_c, 7, 55, 70
9, 737952, Note_on_c, 7, 55, 0
9, 738720, Note_on_c, 7, 60, 70
9, 738912, Note_on_c, 7, 60, 0
9, 739200, Note_on_c, 7, 69, 70
9, 739392, Note_on_c, 7, 69, 0
9, 739680, Note_on_c, 7, 65, 70
9, 739872, Note_on_c, 7, 65, 0
9, 740640, Note_on_c, 7, 67, 70
9, 740832, Note_on_c, 7, 67, 0
9, 741120, Note_on_c, 7, 55, 70
9, 741312, Note_on_c, 7, 55, 0
9, 741600, Note_on_c, 7, 65, 70
9, 741792, Note_on_c, 7, 65, 0
9, 742560, Note_on_c, 7, 64, 70
9, 742752, Note_on_c, 7, 64, 0
9, 743040, Note_on_c, 7, 62, 70
9, 743232, Note_on_c, 7, 62, 0
9, 743520, Note_on_c, 7, 60, 70
9, 743712, Note_on_c, 7, 60, 0
9, 744480, Note_on_c, 7, 69, 70
9, 744672, Note_on_c, 7, 69, 0
9, 744960, Note_on_c, 7, 67, 70
9, 745152, Note_on_c, 7, 67, 0
9, 745440, Note_on_c, 7, 65, 70
9, 745632, Note_on_c, 7, 65, 0
9, 745920, Note_on_c, 7, 64, 70
9, 746308, Note_on_c, 7, 64, 0
9, 746400, Note_on_c, 7, 60, 70
9, 747360, Note_on_c, 7, 59, 70
9, 747500, Note_on_c, 7, 60, 0
9, 747724, Note_on_c, 7, 59, 0
9, 747840, Note_on_c, 7, 59, 70
9, 748320, Note_on_c, 7, 60, 70
9, 748404, Note_on_c, 7, 59, 0
9, 748612, Note_on_c, 7, 60, 0
9, 749760, Note_on_c, 7, 52, 70
9, 750720, Note_on_c, 7, 55, 70
9, 750804, Note_on_c, 7, 52, 0
9, 751588, Note_on_c, 7, 55, 0
9, 751680, Note_on_c, 7, 48, 70
9, 752160, Note_on_c, 7, 60, 70
9, 752236, Note_on_c, 7, 48, 0
9, 753004, Note_on_c, 7, 60, 0
9, 753120, Note_on_c, 7, 65, 70
9, 753532, Note_on_c, 7, 65, 0
9, 753600, Note_on_c, 7, 64, 70
9, 755444, Note_on_c, 7, 64, 0
9, 755520, Note_on_c, 7, 65, 70
9, 756480, Note_on_c, 7, 60, 70
9, 756564, Note_on_c, 7, 65, 0
9, 757324, Note_on_c, 7, 60, 0
9, 757440, Note_on_c, 7, 60, 70
9, 757680, Note_on_c, 7, 55, 70
9, 757748, Note_on_c, 7, 60, 0
9, 757920, Note_on_c, 7, 60, 70
9, 757988, Note_on_c, 7, 55, 0
9, 758160, Note_on_c, 7, 55, 70
9, 758228, Note_on_c, 7, 60, 0
9, 758400, Note_on_c, 7, 60, 70
9, 758472, Note_on_c, 7, 55, 0
9, 758548, Note_on_c, 7, 60, 0
9, 758640, Note_on_c, 7, 60, 70
9, 758880, Note_on_c, 7, 62, 70
9, 758948, Note_on_c, 7, 60, 0
9, 759120, Note_on_c, 7, 64, 70
9, 759188, Note_on_c, 7, 62, 0
9, 759308, Note_on_c, 7, 64, 0
9, 759360, Note_on_c, 7, 64, 70
9, 759600, Note_on_c, 7, 62, 70
9, 759668, Note_on_c, 7, 64, 0
9, 759840, Note_on_c, 7, 60, 70
9, 759908, Note_on_c, 7, 62, 0
9, 760080, Note_on_c, 7, 64, 70
9, 760148, Note_on_c, 7, 60, 0
9, 760320, Note_on_c, 7, 60, 70
9, 760388, Note_on_c, 7, 64, 0
9, 760560, Note_on_c, 7, 64, 70
9, 760628, Note_on_c, 7, 60, 0
9, 760800, Note_on_c, 7, 62, 70
9, 760868, Note_on_c, 7, 64, 0
9, 761040, Note_on_c, 7, 59, 70
9, 761108, Note_on_c, 7, 62, 0
9, 761204, Note_on_c, 7, 59, 0
9, 761280, Note_on_c, 7, 60, 70
9, 761596, Note_on_c, 7, 60, 0
9, 764640, Note_on_c, 7, 67, 105
9, 764804, Note_on_c, 7, 67, 0
9, 764880, Note_on_c, 7, 67, 105
9, 765036, Note_on_c, 7, 67, 0
9, 765120, Note_on_c, 7, 67, 105
9, 765492, Note_on_c, 7, 67, 0
9, 765600, Note_on_c, 7, 67, 105
9, 766492, Note_on_c, 7, 67, 0
9, 766560, Note_on_c, 7, 67, 105
9, 767436, Note_on_c, 7, 67, 0
9, 767520, Note_on_c, 7, 67, 105
9, 768396, Note_on_c, 7, 67, 0
9, 768480, Note_on_c, 7, 67, 105
9, 769340, Note_on_c, 7, 67, 0
9, 769440, Note_on_c, 7, 55, 105
9, 769440, Note_on_c, 7, 67, 105
9, 770292, Note_on_c, 7, 67, 0
9, 770316, Note_on_c, 7, 55, 0
9, 770400, Note_on_c, 7, 55, 105
9, 770400, Note_on_c, 7, 67, 105
9, 771260, Note_on_c, 7, 55, 0
9, 771276, Note_on_c, 7, 67, 0
9, 771360, Note_on_c, 7, 55, 105
9, 771360, Note_on_c, 7, 67, 105
9, 772204, Note_on_c, 7, 55, 0
9, 772220, Note_on_c, 7, 67, 0
9, 772320, Note_on_c, 7, 55, 105
9, 772320, Note_on_c, 7, 67, 105
9, 772708, Note_on_c, 7, 67, 0
9, 772800, Note_on_c, 7, 55, 0
9, 772800, Note_on_c, 7, 67, 105
9, 772988, Note_on_c, 7, 67, 0
9, 773040, Note_on_c, 7, 67, 105
9, 773204, Note_on_c, 7, 67, 0
9, 773280, Note_on_c, 7, 67, 105
9, 773452, Note_on_c, 7, 67, 0
9, 773520, Note_on_c, 7, 67, 105
9, 773700, Note_on_c, 7, 67, 0
9, 773760, Note_on_c, 7, 69, 105
9, 773956, Note_on_c, 7, 69, 0
9, 774000, Note_on_c, 7, 69, 105
9, 774164, Note_on_c, 7, 69, 0
9, 774240, Note_on_c, 7, 64, 105
9, 774404, Note_on_c, 7, 64, 0
9, 774480, Note_on_c, 7, 64, 105
9, 774660, Note_on_c, 7, 64, 0
9, 774720, Note_on_c, 7, 65, 105
9, 774900, Note_on_c, 7, 65, 0
9, 774960, Note_on_c, 7, 65, 105
9, 775148, Note_on_c, 7, 65, 0
9, 775200, Note_on_c, 7, 65, 105
9, 775356, Note_on_c, 7, 65, 0
9, 775440, Note_on_c, 7, 65, 105
9, 775612, Note_on_c, 7, 65, 0
9, 775680, Note_on_c, 7, 67, 105
9, 775860, Note_on_c, 7, 67, 0
9, 775920, Note_on_c, 7, 67, 105
9, 776092, Note_on_c, 7, 67, 0
9, 776160, Note_on_c, 7, 67, 105
9, 776324, Note_on_c, 7, 67, 0
9, 776400, Note_on_c, 7, 67, 105
9, 776572, Note_on_c, 7, 67, 0
9, 776640, Note_on_c, 7, 67, 105
9, 777600, Note_on_c, 7, 67, 0
9, 784320, Note_on_c, 7, 60, 90
9, 784416, Note_on_c, 7, 60, 0
9, 784560, Note_on_c, 7, 55, 74
9, 784656, Note_on_c, 7, 55, 0
9, 784800, Note_on_c, 7, 60, 75
9, 784896, Note_on_c, 7, 60, 0
9, 785040, Note_on_c, 7, 62, 76
9, 785136, Note_on_c, 7, 62, 0
9, 785280, Note_on_c, 7, 64, 92
9, 785376, Note_on_c, 7, 64, 0
9, 785520, Note_on_c, 7, 60, 78
9, 785616, Note_on_c, 7, 60, 0
9, 785760, Note_on_c, 7, 62, 79
9, 785856, Note_on_c, 7, 62, 0
9, 786000, Note_on_c, 7, 59, 79
9, 786096, Note_on_c, 7, 59, 0
9, 786240, Note_on_c, 7, 60, 93
9, 786336, Note_on_c, 7, 60, 0
9, 786480, Note_on_c, 7, 55, 81
9, 786576, Note_on_c, 7, 55, 0
9, 786720, Note_on_c, 7, 60, 82
9, 786816, Note_on_c, 7, 60, 0
9, 786960, Note_on_c, 7, 62, 83
9, 787056, Note_on_c, 7, 62, 0
9, 787200, Note_on_c, 7, 64, 99
9, 787296, Note_on_c, 7, 64, 0
9, 787440, Note_on_c, 7, 60, 85
9, 787536, Note_on_c, 7, 60, 0
9, 787680, Note_on_c, 7, 62, 85
9, 787776, Note_on_c, 7, 62, 0
9, 787920, Note_on_c, 7, 59, 86
9, 788016, Note_on_c, 7, 59, 0
9, 788160, Note_on_c, 7, 60, 99
9, 788256, Note_on_c, 7, 60, 0
9, 788400, Note_on_c, 7, 55, 88
9, 788496, Note_on_c, 7, 55, 0
9, 788640, Note_on_c, 7, 60, 89
9, 788736, Note_on_c, 7, 60, 0
9, 788880, Note_on_c, 7, 62, 90
9, 788976, Note_on_c, 7, 62, 0
9, 789120, Note_on_c, 7, 64, 98
9, 789216, Note_on_c, 7, 64, 0
9, 789360, Note_on_c, 7, 60, 91
9, 789456, Note_on_c, 7, 60, 0
9, 789600, Note_on_c, 7, 62, 92
9, 789696, Note_on_c, 7, 62, 0
9, 789840, Note_on_c, 7, 59, 93
9, 789936, Note_on_c, 7, 59, 0
9, 790080, Note_on_c, 7, 60, 94
9, 790176, Note_on_c, 7, 60, 0
9, 790320, Note_on_c, 7, 64, 92
9, 790416, Note_on_c, 7, 64, 0
9, 790560, Note_on_c, 7, 60, 89
9, 790656, Note_on_c, 7, 60, 0
9, 790800, Note_on_c, 7, 64, 87
9, 790896, Note_on_c, 7, 64, 0
9, 791040, Note_on_c, 7, 60, 84
9, 791520, Note_on_c, 7, 60, 0
9, 826560, Note_on_c, 7, 72, 105
9, 826776, Note_on_c, 7, 72, 0
9, 826800, Note_on_c, 7, 76, 105
9, 827016, Note_on_c, 7, 76, 0
9, 827040, Note_on_c, 7, 74, 105
9, 827256, Note_on_c, 7, 74, 0
9, 827280, Note_on_c, 7, 72, 105
9, 827496, Note_on_c, 7, 72, 0
9, 827520, Note_on_c, 7, 71, 105
9, 827736, Note_on_c, 7, 71, 0
9, 827760, Note_on_c, 7, 69, 105
9, 827976, Note_on_c, 7, 69, 0
9, 828000, Note_on_c, 7, 67, 105
9, 828216, Note_on_c, 7, 67, 0
9, 828240, Note_on_c, 7, 65, 105
9, 828456, Note_on_c, 7, 65, 0
9, 828480, Note_on_c, 7, 64, 105
9, 828696, Note_on_c, 7, 64, 0
9, 828720, Note_on_c, 7, 72, 105
9, 828936, Note_on_c, 7, 72, 0
9, 828960, Note_on_c, 7, 71, 105
9, 829176, Note_on_c, 7, 71, 0
9, 829200, Note_on_c, 7, 69, 105
9, 829416, Note_on_c, 7, 69, 0
9, 829440, Note_on_c, 7, 67, 105
9, 829656, Note_on_c, 7, 67, 0
9, 829680, Note_on_c, 7, 65, 105
9, 829896, Note_on_c, 7, 65, 0
9, 829920, Note_on_c, 7, 64, 105
9, 830136, Note_on_c, 7, 64, 0
9, 830160, Note_on_c, 7, 62, 105
9, 830376, Note_on_c, 7, 62, 0
9, 830400, Note_on_c, 7, 60, 105
9, 830880, Note_on_c, 7, 60, 0
9, 868800, Note_on_c, 7, 55, 70
9, 869760, Note_on_c, 7, 55, 0
9, 869760, Note_on_c, 7, 60, 70
9, 870720, Note_on_c, 7, 60, 0
9, 870720, Note_on_c, 7, 59, 70
9, 871680, Note_on_c, 7, 59, 0
9, 871680, Note_on_c, 7, 54, 70
9, 872640, Note_on_c, 7, 54, 0
9, 872640, Note_on_c, 7, 55, 70
9, 873600, Note_on_c, 7, 55, 0
9, 873600, Note_on_c, 7, 60, 70
9, 874560, Note_on_c, 7, 60, 0
9, 874560, Note_on_c, 7, 59, 70
9, 875520, Note_on_c, 7, 59, 0
9, 875520, Note_on_c, 7, 54, 70
9, 876480, Note_on_c, 7, 54, 0
9, 876480, Note_on_c, 7, 55, 70
9, 876960, Note_on_c, 7, 55, 0
9, 877440, Note_on_c, 7, 60, 70
9, 878400, Note_on_c, 7, 60, 0
9, 878400, Note_on_c, 7, 59, 70
9, 879360, Note_on_c, 7, 59, 0
9, 879360, Note_on_c, 7, 57, 70
9, 880320, Note_on_c, 7, 57, 0
9, 880320, Note_on_c, 7, 55, 70
9, 881280, Note_on_c, 7, 55, 0
9, 881280, Note_on_c, 7, 54, 70
9, 882240, Note_on_c, 7, 54, 0
9, 882240, Note_on_c, 7, 52, 90
9, 883200, Note_on_c, 7, 52, 0
9, 884160, Note_on_c, 7, 50, 90
9, 885120, Note_on_c, 7, 50, 0
9, 886080, Note_on_c, 7, 52, 90
9, 887040, Note_on_c, 7, 52, 0
9, 888000, Note_on_c, 7, 50, 70
9, 888480, Note_on_c, 7, 50, 0
9, 890160, Note_on_c, 7, 50, 70
9, 890400, Note_on_c, 7, 50, 0
9, 890400, Note_on_c, 7, 54, 70
9, 890640, Note_on_c, 7, 54, 0
9, 890640, Note_on_c, 7, 57, 70
9, 890880, Note_on_c, 7, 57, 0
9, 890880, Note_on_c, 7, 62, 70
9, 891120, Note_on_c, 7, 62, 0
9, 891120, Note_on_c, 7, 61, 70
9, 891360, Note_on_c, 7, 61, 0
9, 891360, Note_on_c, 7, 62, 70
9, 891600, Note_on_c, 7, 62, 0
9, 891600, Note_on_c, 7, 61, 70
9, 891840, Note_on_c, 7, 61, 0
9, 897600, Note_on_c, 7, 60, 70
9, 897600, Note_on_c, 7, 62, 70
9, 898560, Note_on_c, 7, 60, 0
9, 898560, Note_on_c, 7, 59, 70
9, 899040, Note_on_c, 7, 59, 0
9, 899040, Note_on_c, 7, 62, 0
9, 899520, Note_on_c, 7, 60, 70
9, 899520, Note_on_c, 7, 62, 70
9, 900480, Note_on_c, 7, 60, 0
9, 900480, Note_on_c, 7, 59, 70
9, 900960, Note_on_c, 7, 59, 0
9, 900960, Note_on_c, 7, 62, 0
9, 900960, Note_on_c, 7, 67, 70
9, 901440, Note_on_c, 7, 67, 0
9, 901440, Note_on_c, 7, 67, 70
9, 902400, Note_on_c, 7, 67, 0
9, 902400, Note_on_c, 7, 66, 70
9, 902880, Note_on_c, 7, 66, 0
9, 903360, Note_on_c, 7, 54, 70
9, 903840, Note_on_c, 7, 54, 0
9, 905280, Note_on_c, 7, 55, 70
9, 906240, Note_on_c, 7, 55, 0
9, 906240, Note_on_c, 7, 57, 70
9, 906720, Note_on_c, 7, 57, 0
9, 907200, Note_on_c, 7, 67, 70
9, 908160, Note_on_c, 7, 67, 0
9, 908160, Note_on_c, 7, 69, 70
9, 908640, Note_on_c, 7, 69, 0
9, 908640, Note_on_c, 7, 66, 70
9, 909120, Note_on_c, 7, 66, 0
9, 909120, Note_on_c, 7, 69, 70
9, 910080, Note_on_c, 7, 69, 0
9, 910080, Note_on_c, 7, 67, 70
9, 910560, Note_on_c, 7, 67, 0
9, 911040, Note_on_c, 7, 59, 70
9, 912960, Note_on_c, 7, 59, 0
9, 912960, Note_on_c, 7, 60, 70
9, 913440, Note_on_c, 7, 60, 0
9, 913920, Note_on_c, 7, 60, 70
9, 914400, Note_on_c, 7, 60, 0
9, 914880, Note_on_c, 7, 59, 70
9, 915360, Note_on_c, 7, 59, 0
9, 915840, Note_on_c, 7, 59, 70
9, 916320, Note_on_c, 7, 59, 0
9, 916800, Note_on_c, 7, 57, 70
9, 917040, Note_on_c, 7, 57, 0
9, 917040, Note_on_c, 7, 54, 70
9, 917280, Note_on_c, 7, 54, 0
9, 917280, Note_on_c, 7, 57, 70
9, 917520, Note_on_c, 7, 57, 0
9, 917520, Note_on_c, 7, 54, 70
9, 917760, Note_on_c, 7, 54, 0
9, 917760, Note_on_c, 7, 50, 70
9, 918240, Note_on_c, 7, 50, 0
9, 919200, Note_on_c, 7, 63, 70
9, 919680, Note_on_c, 7, 63, 0
9, 919680, Note_on_c, 7, 64, 70
9, 920160, Note_on_c, 7, 64, 0
9, 920160, Note_on_c, 7, 63, 70
9, 920640, Note_on_c, 7, 63, 0
9, 920640, Note_on_c, 7, 64, 70
9, 921120, Note_on_c, 7, 64, 0
9, 921600, Note_on_c, 7, 60, 70
9, 921600, Note_on_c, 7, 64, 70
9, 922080, Note_on_c, 7, 64, 0
9, 922080, Note_on_c, 7, 60, 0
9, 922560, Note_on_c, 7, 62, 70
9, 923040, Note_on_c, 7, 62, 0
9, 923040, Note_on_c, 7, 62, 70
9, 923520, Note_on_c, 7, 62, 0
9, 923520, Note_on_c, 7, 62, 70
9, 924000, Note_on_c, 7, 62, 0
9, 924000, Note_on_c, 7, 62, 70
9, 924480, Note_on_c, 7, 62, 0
9, 924480, Note_on_c, 7, 55, 70
9, 924720, Note_on_c, 7, 55, 0
9, 924720, Note_on_c, 7, 67, 70
9, 924960, Note_on_c, 7, 67, 0
9, 924960, Note_on_c, 7, 66, 70
9, 925200, Note_on_c, 7, 66, 0
9, 925200, Note_on_c, 7, 64, 70
9, 925440, Note_on_c, 7, 64, 0
9, 925440, Note_on_c, 7, 62, 70
9, 925680, Note_on_c, 7, 62, 0
9, 925680, Note_on_c, 7, 60, 70
9, 925920, Note_on_c, 7, 60, 0
9, 925920, Note_on_c, 7, 59, 70
9, 926160, Note_on_c, 7, 59, 0
9, 926160, Note_on_c, 7, 57, 70
9, 926400, Note_on_c, 7, 57, 0
9, 926400, Note_on_c, 7, 55, 70
9, 926880, Note_on_c, 7, 55, 0
9, 941760, Note_on_c, 7, 59, 70
9, 942720, Note_on_c, 7, 59, 0
9, 943200, Note_on_c, 7, 50, 70
9, 943680, Note_on_c, 7, 50, 0
9, 943680, Note_on_c, 7, 52, 70
9, 944160, Note_on_c, 7, 52, 0
9, 944160, Note_on_c, 7, 57, 70
9, 944640, Note_on_c, 7, 57, 0
9, 944640, Note_on_c, 7, 60, 70
9, 945120, Note_on_c, 7, 60, 0
9, 945120, Note_on_c, 7, 64, 70
9, 945600, Note_on_c, 7, 64, 0
9, 945600, Note_on_c, 7, 50, 70
9, 946080, Note_on_c, 7, 50, 0
9, 946080, Note_on_c, 7, 55, 70
9, 946560, Note_on_c, 7, 55, 0
9, 946560, Note_on_c, 7, 59, 70
9, 947040, Note_on_c, 7, 59, 0
9, 947040, Note_on_c, 7, 62, 70
9, 947520, Note_on_c, 7, 62, 0
9, 947520, Note_on_c, 7, 48, 70
9, 948000, Note_on_c, 7, 48, 0
9, 948000, Note_on_c, 7, 54, 70
9, 948480, Note_on_c, 7, 54, 0
9, 948480, Note_on_c, 7, 57, 70
9, 948960, Note_on_c, 7, 57, 0
9, 948960, Note_on_c, 7, 60, 70
9, 949440, Note_on_c, 7, 60, 0
9, 949440, Note_on_c, 7, 55, 70
9, 949920, Note_on_c, 7, 55, 0
9, 953280, Note_on_c, 7, 62, 70
9, 953760, Note_on_c, 7, 62, 0
9, 953760, Note_on_c, 7, 74, 70
9, 954240, Note_on_c, 7, 74, 0
9, 954240, Note_on_c, 7, 62, 70
9, 954720, Note_on_c, 7, 62, 0
9, 954720, Note_on_c, 7, 74, 70
9, 955200, Note_on_c, 7, 74, 0
9, 955200, Note_on_c, 7, 55, 70
9, 955200, Note_on_c, 7, 67, 70
9, 955680, Note_on_c, 7, 67, 0
9, 955680, Note_on_c, 7, 55, 0
9, 960000, Note_on_c, 7, 69, 70
9, 960480, Note_on_c, 7, 69, 0
9, 960960, Note_on_c, 7, 71, 70
9, 961440, Note_on_c, 7, 71, 0
9, 961920, Note_on_c, 7, 66, 70
9, 962400, Note_on_c, 7, 66, 0
9, 962880, Note_on_c, 7, 67, 70
9, 963360, Note_on_c, 7, 67, 0
9, 963840, Note_on_c, 7, 69, 70
9, 964320, Note_on_c, 7, 69, 0
9, 964800, Note_on_c, 7, 71, 70
9, 965280, Note_on_c, 7, 71, 0
9, 965760, Note_on_c, 7, 66, 70
9, 966240, Note_on_c, 7, 66, 0
9, 966720, Note_on_c, 7, 67, 70
9, 967200, Note_on_c, 7, 67, 0
9, 974400, Note_on_c, 7, 67, 70
9, 974880, Note_on_c, 7, 67, 0
9, 975360, Note_on_c, 7, 64, 70
9, 975840, Note_on_c, 7, 64, 0
9, 976320, Note_on_c, 7, 60, 70
9, 976800, Note_on_c, 7, 60, 0
9, 977280, Note_on_c, 7, 57, 70
9, 977760, Note_on_c, 7, 57, 0
9, 978240, Note_on_c, 7, 62, 90
9, 979680, Note_on_c, 7, 62, 0
9, 982080, Note_on_c, 7, 62, 90
9, 983520, Note_on_c, 7, 62, 0
9, 985920, Note_on_c, 7, 67, 70
9, 987360, Note_on_c, 7, 67, 0
9, 987360, Note_on_c, 7, 66, 70
9, 987840, Note_on_c, 7, 66, 0
9, 987840, Note_on_c, 7, 67, 70
9, 988320, Note_on_c, 7, 67, 0
9, 988320, Note_on_c, 7, 66, 70
9, 988800, Note_on_c, 7, 66, 0
9, 988800, Note_on_c, 7, 67, 70
9, 989280, Note_on_c, 7, 67, 0
9, 989280, Note_on_c, 7, 66, 70
9, 989760, Note_on_c, 7, 66, 0
9, 989760, Note_on_c, 7, 67, 70
9, 991680, Note_on_c, 7, 67, 0
9, 991680, Note_on_c, 7, 55, 70
9, 991680, Note_on_c, 7, 67, 70
9, 992640, Note_on_c, 7, 67, 0
9, 992640, Note_on_c, 7, 55, 0
9, 992640, Note_on_c, 7, 57, 70
9, 992640, Note_on_c, 7, 66, 70
9, 993600, Note_on_c, 7, 66, 0
9, 993600, Note_on_c, 7, 57, 0
9, 993600, Note_on_c, 7, 55, 70
9, 993600, Note_on_c, 7, 67, 70
9, 994560, Note_on_c, 7, 67, 0
9, 994560, Note_on_c, 7, 55, 0
9, 995040, Note_on_c, 7, 62, 70
9, 995040, Note_on_c, 7, 69, 70
9, 995520, Note_on_c, 7, 69, 0
9, 995520, Note_on_c, 7, 62, 0
9, 995520, Note_on_c, 7, 67, 70
9, 996000, Note_on_c, 7, 67, 0
9, 996000, Note_on_c, 7, 62, 70
9, 996000, Note_on_c, 7, 69, 70
9, 996480, Note_on_c, 7, 69, 0
9, 996480, Note_on_c, 7, 62, 0
9, 996480, Note_on_c, 7, 67, 70
9, 996960, Note_on_c, 7, 67, 0
9, 996960, Note_on_c, 7, 62, 70
9, 996960, Note_on_c, 7, 69, 70
9, 997440, Note_on_c, 7, 69, 0
9, 997440, Note_on_c, 7, 62, 0
9, 997440, Note_on_c, 7, 67, 70
9, 997920, Note_on_c, 7, 67, 0
9, 1008960, Note_on_c, 7, 62, 70
9, 1013280, Note_on_c, 7, 62, 0
9, 1044480, Note_on_c, 7, 67, 105
9, 1044576, Note_on_c, 7, 67, 0
9, 1044720, Note_on_c, 7, 65, 105
9, 1044816, Note_on_c, 7, 65, 0
9, 1044960, Note_on_c, 7, 64, 105
9, 1045056, Note_on_c, 7, 64, 0
9, 1045200, Note_on_c, 7, 62, 105
9, 1045296, Note_on_c, 7, 62, 0
9, 1045440, Note_on_c, 7, 60, 105
9, 1045536, Note_on_c, 7, 60, 0
9, 1045680, Note_on_c, 7, 55, 105
9, 1045776, Note_on_c, 7, 55, 0
9, 1045920, Note_on_c, 7, 60, 105
9, 1046016, Note_on_c, 7, 60, 0
9, 1046160, Note_on_c, 7, 55, 105
9, 1046256, Note_on_c, 7, 55, 0
9, 1046400, Note_on_c, 7, 62, 105
9, 1046496, Note_on_c, 7, 62, 0
9, 1046640, Note_on_c, 7, 55, 105
9, 1046736, Note_on_c, 7, 55, 0
9, 1046880, Note_on_c, 7, 62, 105
9, 1046976, Note_on_c, 7, 62, 0
9, 1047120, Note_on_c, 7, 55, 105
9, 1047216, Note_on_c, 7, 55, 0
9, 1047360, Note_on_c, 7, 64, 105
9, 1047456, Note_on_c, 7, 64, 0
9, 1047600, Note_on_c, 7, 60, 105
9, 1047696, Note_on_c, 7, 60, 0
9, 1047840, Note_on_c, 7, 64, 105
9, 1047936, Note_on_c, 7, 64, 0
9, 1048080, Note_on_c, 7, 67, 105
9, 1048176, Note_on_c, 7, 67, 0
9, 1048320, Note_on_c, 7, 64, 105
9, 1048416, Note_on_c, 7, 64, 0
9, 1048560, Note_on_c, 7, 60, 105
9, 1048656, Note_on_c, 7, 60, 0
9, 1048800, Note_on_c, 7, 64, 105
9, 1048896, Note_on_c, 7, 64, 0
9, 1049040, Note_on_c, 7, 60, 105
9, 1049136, Note_on_c, 7, 60, 0
9, 1049280, Note_on_c, 7, 65, 105
9, 1049376, Note_on_c, 7, 65, 0
9, 1049520, Note_on_c, 7, 60, 105
9, 1049616, Note_on_c, 7, 60, 0
9, 1049760, Note_on_c, 7, 64, 105
9, 1049856, Note_on_c, 7, 64, 0
9, 1050000, Note_on_c, 7, 60, 105
9, 1050096, Note_on_c, 7, 60, 0
9, 1050240, Note_on_c, 7, 64, 105
9, 1050336, Note_on_c, 7, 64, 0
9, 1050480, Note_on_c, 7, 60, 105
9, 1050576, Note_on_c, 7, 60, 0
9, 1050720, Note_on_c, 7, 64, 105
9, 1050816, Note_on_c, 7, 64, 0
9, 1050960, Note_on_c, 7, 60, 105
9, 1051056, Note_on_c, 7, 60, 0
9, 1051200, Note_on_c, 7, 65, 105
9, 1051296, Note_on_c, 7, 65, 0
9, 1051440, Note_on_c, 7, 60, 105
9, 1051536, Note_on_c, 7, 60, 0
9, 1051680, Note_on_c, 7, 64, 105
9, 1051776, Note_on_c, 7, 64, 0
9, 1051920, Note_on_c, 7, 60, 105
9, 1052016, Note_on_c, 7, 60, 0
9, 1052160, Note_on_c, 7, 64, 105
9, 1052256, Note_on_c, 7, 64, 0
9, 1052400, Note_on_c, 7, 65, 105
9, 1052496, Note_on_c, 7, 65, 0
9, 1052640, Note_on_c, 7, 67, 105
9, 1052736, Note_on_c, 7, 67, 0
9, 1052880, Note_on_c, 7, 64, 105
9, 1052976, Note_on_c, 7, 64, 0
9, 1053120, Note_on_c, 7, 60, 105
9, 1053360, Note_on_c, 7, 60, 0
9, 1053360, Note_on_c, 7, 64, 105
9, 1053600, Note_on_c, 7, 64, 0
9, 1053600, Note_on_c, 7, 67, 105
9, 1053840, Note_on_c, 7, 67, 0
9, 1053840, Note_on_c, 7, 72, 105
9, 1054080, Note_on_c, 7, 72, 0
9, 1054080, Note_on_c, 7, 59, 105
9, 1054320, Note_on_c, 7, 59, 0
9, 1054320, Note_on_c, 7, 62, 105
9, 1054560, Note_on_c, 7, 62, 0
9, 1054560, Note_on_c, 7, 67, 105
9, 1054800, Note_on_c, 7, 67, 0
9, 1054800, Note_on_c, 7, 71, 105
9, 1055040, Note_on_c, 7, 71, 0
9, 1055040, Note_on_c, 7, 60, 105
9, 1055280, Note_on_c, 7, 60, 0
9, 1055280, Note_on_c, 7, 64, 105
9, 1055520, Note_on_c, 7, 64, 0
9, 1055520, Note_on_c, 7, 67, 105
9, 1055760, Note_on_c, 7, 67, 0
9, 1055760, Note_on_c, 7, 72, 105
9, 1056000, Note_on_c, 7, 72, 0
9, 1056000, Note_on_c, 7, 62, 105
9, 1056240, Note_on_c, 7, 62, 0
9, 1056240, Note_on_c, 7, 67, 105
9, 1056480, Note_on_c, 7, 67, 0
9, 1056480, Note_on_c, 7, 71, 105
9, 1056720, Note_on_c, 7, 71, 0
9, 1056720, Note_on_c, 7, 74, 105
9, 1056960, Note_on_c, 7, 74, 0
9, 1056960, Note_on_c, 7, 67, 105
9, 1057440, Note_on_c, 7, 67, 0
9, 1057440, Note_on_c, 7, 67, 105
9, 1058400, Note_on_c, 7, 67, 0
9, 1058400, Note_on_c, 7, 67, 105
9, 1058640, Note_on_c, 7, 67, 0
9, 1058640, Note_on_c, 7, 65, 105
9, 1058880, Note_on_c, 7, 65, 0
9, 1058880, Note_on_c, 7, 64, 105
9, 1059360, Note_on_c, 7, 64, 0
9, 1063200, Note_on_c, 7, 67, 105
9, 1064160, Note_on_c, 7, 67, 0
9, 1064160, Note_on_c, 7, 67, 105
9, 1065120, Note_on_c, 7, 67, 0
9, 1065120, Note_on_c, 7, 67, 105
9, 1066080, Note_on_c, 7, 67, 0
9, 1066080, Note_on_c, 7, 67, 105
9, 1067040, Note_on_c, 7, 67, 0
9, 1067040, Note_on_c, 7, 55, 105
9, 1067040, Note_on_c, 7, 67, 105
9, 1068000, Note_on_c, 7, 67, 0
9, 1068000, Note_on_c, 7, 55, 0
9, 1068000, Note_on_c, 7, 55, 105
9, 1068000, Note_on_c, 7, 67, 105
9, 1068960, Note_on_c, 7, 67, 0
9, 1068960, Note_on_c, 7, 55, 0
9, 1068960, Note_on_c, 7, 67, 105
9, 1069440, Note_on_c, 7, 67, 0
9, 1069440, Note_on_c, 7, 64, 105
9, 1070880, Note_on_c, 7, 64, 0
9, 1070880, Note_on_c, 7, 64, 105
9, 1071840, Note_on_c, 7, 64, 0
9, 1071840, Note_on_c, 7, 64, 105
9, 1072800, Note_on_c, 7, 64, 0
9, 1072800, Note_on_c, 7, 64, 105
9, 1073280, Note_on_c, 7, 64, 0
9, 1073280, Note_on_c, 7, 60, 105
9, 1074720, Note_on_c, 7, 60, 0
9, 1074720, Note_on_c, 7, 60, 105
9, 1075680, Note_on_c, 7, 60, 0
9, 1075680, Note_on_c, 7, 60, 105
9, 1076640, Note_on_c, 7, 60, 0
9, 1076640, Note_on_c, 7, 48, 105
9, 1076640, Note_on_c, 7, 60, 105
9, 1077600, Note_on_c, 7, 60, 0
9, 1077600, Note_on_c, 7, 48, 0
9, 1077600, Note_on_c, 7, 60, 105
9, 1078080, Note_on_c, 7, 60, 0
9, 1078080, Note_on_c, 7, 48, 105
9, 1078080, Note_on_c, 7, 60, 105
9, 1078560, Note_on_c, 7, 60, 0
9, 1078560, Note_on_c, 7, 48, 0
9, 1078560, Note_on_c, 7, 53, 70
9, 1078752, Note_on_c, 7, 53, 0
9, 1079040, Note_on_c, 7, 53, 70
9, 1079232, Note_on_c, 7, 53, 0
9, 1079520, Note_on_c, 7, 53, 70
9, 1079712, Note_on_c, 7, 53, 0
9, 1080000, Note_on_c, 7, 53, 70
9, 1080192, Note_on_c, 7, 53, 0
9, 1080480, Note_on_c, 7, 53, 70
9, 1080672, Note_on_c, 7, 53, 0
9, 1080960, Note_on_c, 7, 53, 70
9, 1081152, Note_on_c, 7, 53, 0
9, 1081440, Note_on_c, 7, 53, 70
9, 1081632, Note_on_c, 7, 53, 0
9, 1081920, Note_on_c, 7, 53, 70
9, 1082112, Note_on_c, 7, 53, 0
9, 1082400, Note_on_c, 7, 53, 70
9, 1082592, Note_on_c, 7, 53, 0
9, 1082880, Note_on_c, 7, 53, 70
9, 1083072, Note_on_c, 7, 53, 0
9, 1083360, Note_on_c, 7, 53, 70
9, 1083552, Note_on_c, 7, 53, 0
9, 1083840, Note_on_c, 7, 53, 70
9, 1084032, Note_on_c, 7, 53, 0
9, 1084320, Note_on_c, 7, 53, 70
9, 1084512, Note_on_c, 7, 53, 0
9, 1084800, Note_on_c, 7, 53, 70
9, 1084992, Note_on_c, 7, 53, 0
9, 1085280, Note_on_c, 7, 53, 70
9, 1085472, Note_on_c, 7, 53, 0
9, 1085760, Note_on_c, 7, 57, 70
9, 1087680, Note_on_c, 7, 57, 0
9, 1087680, Note_on_c, 7, 58, 70
9, 1089600, Note_on_c, 7, 58, 0
9, 1089600, Note_on_c, 7, 60, 70
9, 1090080, Note_on_c, 7, 60, 0
9, 1090080, Note_on_c, 7, 48, 70
9, 1090560, Note_on_c, 7, 48, 0
9, 1090560, Note_on_c, 7, 48, 70
9, 1091040, Note_on_c, 7, 48, 0
9, 1091040, Note_on_c, 7, 48, 70
9, 1091520, Note_on_c, 7, 48, 0
9, 1091520, Note_on_c, 7, 53, 70
9, 1092000, Note_on_c, 7, 53, 0
9, 1093440, Note_on_c, 7, 60, 70
9, 1093680, Note_on_c, 7, 60, 0
9, 1093680, Note_on_c, 7, 53, 70
9, 1093920, Note_on_c, 7, 53, 0
9, 1093920, Note_on_c, 7, 60, 70
9, 1094160, Note_on_c, 7, 60, 0
9, 1094160, Note_on_c, 7, 53, 70
9, 1094400, Note_on_c, 7, 53, 0
9, 1094400, Note_on_c, 7, 60, 70
9, 1094640, Note_on_c, 7, 60, 0
9, 1094640, Note_on_c, 7, 53, 70
9, 1094880, Note_on_c, 7, 53, 0
9, 1094880, Note_on_c, 7, 60, 70
9, 1095120, Note_on_c, 7, 60, 0
9, 1095120, Note_on_c, 7, 53, 70
9, 1095360, Note_on_c, 7, 53, 0
9, 1095360, Note_on_c, 7, 60, 70
9, 1095600, Note_on_c, 7, 60, 0
9, 1095600, Note_on_c, 7, 53, 70
9, 1095840, Note_on_c, 7, 53, 0
9, 1095840, Note_on_c, 7, 60, 70
9, 1096080, Note_on_c, 7, 60, 0
9, 1096080, Note_on_c, 7, 53, 70
9, 1096320, Note_on_c, 7, 53, 0
9, 1096320, Note_on_c, 7, 60, 70
9, 1096560, Note_on_c, 7, 60, 0
9, 1096560, Note_on_c, 7, 53, 70
9, 1096800, Note_on_c, 7, 53, 0
9, 1096800, Note_on_c, 7, 60, 70
9, 1097040, Note_on_c, 7, 60, 0
9, 1097040, Note_on_c, 7, 53, 70
9, 1097280, Note_on_c, 7, 53, 0
9, 1097280, Note_on_c, 7, 60, 70
9, 1097520, Note_on_c, 7, 60, 0
9, 1097520, Note_on_c, 7, 53, 70
9, 1097760, Note_on_c, 7, 53, 0
9, 1097760, Note_on_c, 7, 60, 70
9, 1098000, Note_on_c, 7, 60, 0
9, 1098000, Note_on_c, 7, 53, 70
9, 1098240, Note_on_c, 7, 53, 0
9, 1098240, Note_on_c, 7, 60, 70
9, 1098480, Note_on_c, 7, 60, 0
9, 1098480, Note_on_c, 7, 53, 70
9, 1098720, Note_on_c, 7, 53, 0
9, 1098720, Note_on_c, 7, 60, 70
9, 1098960, Note_on_c, 7, 60, 0
9, 1098960, Note_on_c, 7, 53, 70
9, 1099200, Note_on_c, 7, 53, 0
9, 1099200, Note_on_c, 7, 58, 70
9, 1100160, Note_on_c, 7, 58, 0
9, 1100160, Note_on_c, 7, 60, 70
9, 1100400, Note_on_c, 7, 60, 0
9, 1100400, Note_on_c, 7, 53, 70
9, 1100640, Note_on_c, 7, 53, 0
9, 1100640, Note_on_c, 7, 60, 70
9, 1100880, Note_on_c, 7, 60, 0
9, 1100880, Note_on_c, 7, 53, 70
9, 1101120, Note_on_c, 7, 53, 0
9, 1101120, Note_on_c, 7, 57, 70
9, 1103040, Note_on_c, 7, 57, 0
9, 1103040, Note_on_c, 7, 58, 70
9, 1103040, Note_on_c, 7, 62, 70
9, 1104960, Note_on_c, 7, 62, 0
9, 1104960, Note_on_c, 7, 58, 0
9, 1104960, Note_on_c, 7, 60, 70
9, 1105440, Note_on_c, 7, 60, 0
9, 1105440, Note_on_c, 7, 62, 70
9, 1105920, Note_on_c, 7, 62, 0
9, 1105920, Note_on_c, 7, 58, 70
9, 1106400, Note_on_c, 7, 58, 0
9, 1106400, Note_on_c, 7, 60, 70
9, 1106880, Note_on_c, 7, 60, 0
9, 1106880, Note_on_c, 7, 57, 70
9, 1106880, Note_on_c, 7, 65, 70
9, 1108800, Note_on_c, 7, 65, 0
9, 1108800, Note_on_c, 7, 57, 0
9, 1108800, Note_on_c, 7, 60, 70
9, 1108800, Note_on_c, 7, 67, 70
9, 1110720, Note_on_c, 7, 67, 0
9, 1110720, Note_on_c, 7, 60, 0
9, 1110720, Note_on_c, 7, 65, 70
9, 1110720, Note_on_c, 7, 69, 70
9, 1111440, Note_on_c, 7, 69, 0
9, 1111440, Note_on_c, 7, 65, 0
9, 1111440, Note_on_c, 7, 67, 70
9, 1111680, Note_on_c, 7, 67, 0
9, 1111680, Note_on_c, 7, 57, 70
9, 1111680, Note_on_c, 7, 65, 70
9, 1112160, Note_on_c, 7, 65, 0
9, 1112160, Note_on_c, 7, 57, 0
9, 1112160, Note_on_c, 7, 60, 70
9, 1112160, Note_on_c, 7, 67, 70
9, 1112640, Note_on_c, 7, 67, 0
9, 1112640, Note_on_c, 7, 60, 0
9, 1112640, Note_on_c, 7, 65, 70
9, 1112640, Note_on_c, 7, 69, 70
9, 1113360, Note_on_c, 7, 69, 0
9, 1113360, Note_on_c, 7, 65, 0
9, 1113360, Note_on_c, 7, 67, 70
9, 1113600, Note_on_c, 7, 67, 0
9, 1113600, Note_on_c, 7, 57, 70
9, 1113600, Note_on_c, 7, 65, 70
9, 1114080, Note_on_c, 7, 65, 0
9, 1114080, Note_on_c, 7, 57, 0
9, 1114080, Note_on_c, 7, 60, 70
9, 1114080, Note_on_c, 7, 67, 70
9, 1114560, Note_on_c, 7, 67, 0
9, 1114560, Note_on_c, 7, 60, 0
9, 1114560, Note_on_c, 7, 57, 70
9, 1114560, Note_on_c, 7, 65, 70
9, 1115040, Note_on_c, 7, 65, 0
9, 1115040, Note_on_c, 7, 57, 0
9, 1152960, Note_on_c, 7, 67, 70
9, 1155360, Note_on_c, 7, 67, 0
9, 1156800, Note_on_c, 7, 67, 70
9, 1159200, Note_on_c, 7, 67, 0
9, 1162560, Note_on_c, 7, 56, 70
9, 1163040, Note_on_c, 7, 56, 0
9, 1164480, Note_on_c, 7, 56, 70
9, 1164960, Note_on_c, 7, 56, 0
9, 1166400, Note_on_c, 7, 55, 70
9, 1166880, Note_on_c, 7, 55, 0
9, 1168320, Note_on_c, 7, 55, 70
9, 1168800, Note_on_c, 7, 55, 0
9, 1170240, Note_on_c, 7, 56, 70
9, 1170720, Note_on_c, 7, 56, 0
9, 1172160, Note_on_c, 7, 56, 70
9, 1172640, Note_on_c, 7, 56, 0
9, 1174080, Note_on_c, 7, 55, 70
9, 1174560, Note_on_c, 7, 55, 0
9, 1176000, Note_on_c, 7, 55, 70
9, 1176480, Note_on_c, 7, 55, 0
9, 1177920, Note_on_c, 7, 59, 70
9, 1177920, Note_on_c, 7, 62, 70
9, 1178880, Note_on_c, 7, 62, 0
9, 1178880, Note_on_c, 7, 59, 0
9, 1178880, Note_on_c, 7, 61, 70
9, 1178880, Note_on_c, 7, 64, 70
9, 1179840, Note_on_c, 7, 64, 0
9, 1179840, Note_on_c, 7, 61, 0
9, 1179840, Note_on_c, 7, 62, 70
9, 1179840, Note_on_c, 7, 65, 70
9, 1180800, Note_on_c, 7, 65, 0
9, 1180800, Note_on_c, 7, 62, 0
9, 1180800, Note_on_c, 7, 59, 70
9, 1180800, Note_on_c, 7, 62, 70
9, 1181760, Note_on_c, 7, 62, 0
9, 1181760, Note_on_c, 7, 59, 0
9, 1181760, Note_on_c, 7, 60, 70
9, 1181760, Note_on_c, 7, 64, 70
9, 1182240, Note_on_c, 7, 64, 0
9, 1182240, Note_on_c, 7, 60, 0
9, 1197120, Note_on_c, 7, 48, 70
9, 1198080, Note_on_c, 7, 48, 0
9, 1198080, Note_on_c, 7, 53, 70
9, 1199040, Note_on_c, 7, 53, 0
9, 1199040, Note_on_c, 7, 52, 70
9, 1200000, Note_on_c, 7, 52, 0
9, 1200000, Note_on_c, 7, 59, 70
9, 1200960, Note_on_c, 7, 59, 0
9, 1200960, Note_on_c, 7, 60, 70
9, 1201920, Note_on_c, 7, 60, 0
9, 1201920, Note_on_c, 7, 65, 70
9, 1202880, Note_on_c, 7, 65, 0
9, 1202880, Note_on_c, 7, 64, 70
9, 1203840, Note_on_c, 7, 64, 0
9, 1203840, Note_on_c, 7, 59, 70
9, 1204800, Note_on_c, 7, 59, 0
9, 1204800, Note_on_c, 7, 60, 70
9, 1205280, Note_on_c, 7, 60, 0
9, 1205760, Note_on_c, 7, 65, 70
9, 1206720, Note_on_c, 7, 65, 0
9, 1206720, Note_on_c, 7, 64, 70
9, 1207680, Note_on_c, 7, 64, 0
9, 1207680, Note_on_c, 7, 62, 70
9, 1208640, Note_on_c, 7, 62, 0
9, 1208640, Note_on_c, 7, 60, 70
9, 1209600, Note_on_c, 7, 60, 0
9, 1209600, Note_on_c, 7, 59, 70
9, 1210560, Note_on_c, 7, 59, 0
9, 1218480, Note_on_c, 7, 55, 70
9, 1218720, Note_on_c, 7, 55, 0
9, 1218720, Note_on_c, 7, 59, 70
9, 1218960, Note_on_c, 7, 59, 0
9, 1218960, Note_on_c, 7, 62, 70
9, 1219200, Note_on_c, 7, 62, 0
9, 1219200, Note_on_c, 7, 67, 70
9, 1219440, Note_on_c, 7, 67, 0
9, 1219440, Note_on_c, 7, 66, 70
9, 1219680, Note_on_c, 7, 66, 0
9, 1219680, Note_on_c, 7, 67, 70
9, 1219920, Note_on_c, 7, 67, 0
9, 1219920, Note_on_c, 7, 66, 70
9, 1220160, Note_on_c, 7, 66, 0
9, 1220160, Note_on_c, 7, 67, 70
9, 1220640, Note_on_c, 7, 67, 0
9, 1225920, Note_on_c, 7, 53, 70
9, 1225920, Note_on_c, 7, 55, 70
9, 1226880, Note_on_c, 7, 55, 0
9, 1226880, Note_on_c, 7, 53, 0
9, 1226880, Note_on_c, 7, 52, 70
9, 1226880, Note_on_c, 7, 55, 70
9, 1227360, Note_on_c, 7, 55, 0
9, 1227360, Note_on_c, 7, 52, 0
9, 1227840, Note_on_c, 7, 53, 70
9, 1227840, Note_on_c, 7, 55, 70
9, 1228800, Note_on_c, 7, 55, 0
9, 1228800, Note_on_c, 7, 53, 0
9, 1228800, Note_on_c, 7, 52, 70
9, 1228800, Note_on_c, 7, 55, 70
9, 1229280, Note_on_c, 7, 55, 0
9, 1229280, Note_on_c, 7, 52, 0
9, 1229280, Note_on_c, 7, 60, 70
9, 1229760, Note_on_c, 7, 60, 0
9, 1229760, Note_on_c, 7, 60, 70
9, 1230720, Note_on_c, 7, 60, 0
9, 1230720, Note_on_c, 7, 59, 70
9, 1231200, Note_on_c, 7, 59, 0
9, 1231680, Note_on_c, 7, 59, 70
9, 1232160, Note_on_c, 7, 59, 0
9, 1233600, Note_on_c, 7, 60, 70
9, 1234560, Note_on_c, 7, 60, 0
9, 1234560, Note_on_c, 7, 62, 70
9, 1235040, Note_on_c, 7, 62, 0
9, 1235520, Note_on_c, 7, 60, 70
9, 1236480, Note_on_c, 7, 60, 0
9, 1236480, Note_on_c, 7, 62, 70
9, 1236960, Note_on_c, 7, 62, 0
9, 1236960, Note_on_c, 7, 59, 70
9, 1237440, Note_on_c, 7, 59, 0
9, 1237440, Note_on_c, 7, 62, 70
9, 1238400, Note_on_c, 7, 62, 0
9, 1238400, Note_on_c, 7, 60, 70
9, 1238880, Note_on_c, 7, 60, 0
9, 1239360, Note_on_c, 7, 52, 70
9, 1241280, Note_on_c, 7, 52, 0
9, 1241280, Note_on_c, 7, 53, 70
9, 1241760, Note_on_c, 7, 53, 0
9, 1242240, Note_on_c, 7, 53, 70
9, 1242720, Note_on_c, 7, 53, 0
9, 1243200, Note_on_c, 7, 52, 70
9, 1243680, Note_on_c, 7, 52, 0
9, 1244160, Note_on_c, 7, 64, 70
9, 1244640, Note_on_c, 7, 64, 0
9, 1245120, Note_on_c, 7, 62, 70
9, 1245360, Note_on_c, 7, 62, 0
9, 1245360, Note_on_c, 7, 59, 70
9, 1245600, Note_on_c, 7, 59, 0
9, 1245600, Note_on_c, 7, 62, 70
9, 1245840, Note_on_c, 7, 62, 0
9, 1245840, Note_on_c, 7, 59, 70
9, 1246080, Note_on_c, 7, 59, 0
9, 1246080, Note_on_c, 7, 55, 70
9, 1246560, Note_on_c, 7, 55, 0
9, 1247520, Note_on_c, 7, 56, 70
9, 1248000, Note_on_c, 7, 56, 0
9, 1248000, Note_on_c, 7, 57, 70
9, 1248480, Note_on_c, 7, 57, 0
9, 1248480, Note_on_c, 7, 56, 70
9, 1248960, Note_on_c, 7, 56, 0
9, 1248960, Note_on_c, 7, 57, 70
9, 1249440, Note_on_c, 7, 57, 0
9, 1249920, Note_on_c, 7, 65, 70
9, 1249920, Note_on_c, 7, 69, 70
9, 1250400, Note_on_c, 7, 69, 0
9, 1250400, Note_on_c, 7, 65, 0
9, 1250880, Note_on_c, 7, 67, 70
9, 1251360, Note_on_c, 7, 67, 0
9, 1251360, Note_on_c, 7, 55, 70
9, 1251840, Note_on_c, 7, 55, 0
9, 1251840, Note_on_c, 7, 55, 70
9, 1252320, Note_on_c, 7, 55, 0
9, 1252320, Note_on_c, 7, 55, 70
9, 1252800, Note_on_c, 7, 55, 0
9, 1252800, Note_on_c, 7, 60, 70
9, 1253040, Note_on_c, 7, 60, 0
9, 1253040, Note_on_c, 7, 60, 70
9, 1253280, Note_on_c, 7, 60, 0
9, 1253280, Note_on_c, 7, 59, 70
9, 1253520, Note_on_c, 7, 59, 0
9, 1253520, Note_on_c, 7, 57, 70
9, 1253760, Note_on_c, 7, 57, 0
9, 1253760, Note_on_c, 7, 55, 70
9, 1254000, Note_on_c, 7, 55, 0
9, 1254000, Note_on_c, 7, 53, 70
9, 1254240, Note_on_c, 7, 53, 0
9, 1254240, Note_on_c, 7, 52, 70
9, 1254480, Note_on_c, 7, 52, 0
9, 1254480, Note_on_c, 7, 50, 70
9, 1254720, Note_on_c, 7, 50, 0
9, 1254720, Note_on_c, 7, 48, 70
9, 1255200, Note_on_c, 7, 48, 0
9, 1270080, Note_on_c, 7, 55, 70
9, 1270560, Note_on_c, 7, 55, 0
9, 1270560, Note_on_c, 7, 60, 70
9, 1271040, Note_on_c, 7, 60, 0
9, 1271040, Note_on_c, 7, 64, 70
9, 1271520, Note_on_c, 7, 64, 0
9, 1271520, Note_on_c, 7, 67, 70
9, 1272000, Note_on_c, 7, 67, 0
9, 1272000, Note_on_c, 7, 65, 70
9, 1272480, Note_on_c, 7, 65, 0
9, 1272480, Note_on_c, 7, 62, 70
9, 1272960, Note_on_c, 7, 62, 0
9, 1272960, Note_on_c, 7, 59, 70
9, 1273440, Note_on_c, 7, 59, 0
9, 1273440, Note_on_c, 7, 53, 70
9, 1273920, Note_on_c, 7, 53, 0
9, 1273920, Note_on_c, 7, 64, 70
9, 1274400, Note_on_c, 7, 64, 0
9, 1274400, Note_on_c, 7, 60, 70
9, 1274880, Note_on_c, 7, 60, 0
9, 1274880, Note_on_c, 7, 57, 70
9, 1275360, Note_on_c, 7, 57, 0
9, 1275360, Note_on_c, 7, 52, 70
9, 1275840, Note_on_c, 7, 52, 0
9, 1275840, Note_on_c, 7, 62, 70
9, 1276320, Note_on_c, 7, 62, 0
9, 1276320, Note_on_c, 7, 59, 70
9, 1276800, Note_on_c, 7, 59, 0
9, 1276800, Note_on_c, 7, 55, 70
9, 1277280, Note_on_c, 7, 55, 0
9, 1277280, Note_on_c, 7, 50, 70
9, 1277760, Note_on_c, 7, 50, 0
9, 1277760, Note_on_c, 7, 55, 70
9, 1278240, Note_on_c, 7, 55, 0
9, 1279680, Note_on_c, 7, 48, 70
9, 1279680, Note_on_c, 7, 60, 70
9, 1280160, Note_on_c, 7, 60, 0
9, 1280160, Note_on_c, 7, 48, 0
9, 1284000, Note_on_c, 7, 69, 90
9, 1284960, Note_on_c, 7, 69, 0
9, 1284960, Note_on_c, 7, 67, 70
9, 1285440, Note_on_c, 7, 67, 0
9, 1285440, Note_on_c, 7, 65, 70
9, 1285632, Note_on_c, 7, 65, 0
9, 1285920, Note_on_c, 7, 64, 70
9, 1286112, Note_on_c, 7, 64, 0
9, 1286400, Note_on_c, 7, 69, 70
9, 1286592, Note_on_c, 7, 69, 0
9, 1286880, Note_on_c, 7, 67, 70
9, 1287072, Note_on_c, 7, 67, 0
9, 1287360, Note_on_c, 7, 65, 70
9, 1287840, Note_on_c, 7, 65, 0
9, 1287840, Note_on_c, 7, 69, 90
9, 1288800, Note_on_c, 7, 69, 0
9, 1288800, Note_on_c, 7, 67, 70
9, 1288992, Note_on_c, 7, 67, 0
9, 1289280, Note_on_c, 7, 65, 70
9, 1289472, Note_on_c, 7, 65, 0
9, 1289760, Note_on_c, 7, 64, 70
9, 1289952, Note_on_c, 7, 64, 0
9, 1290240, Note_on_c, 7, 69, 70
9, 1290432, Note_on_c, 7, 69, 0
9, 1290720, Note_on_c, 7, 67, 70
9, 1290912, Note_on_c, 7, 67, 0
9, 1291200, Note_on_c, 7, 69, 70
9, 1295040, Note_on_c, 7, 69, 0
9, 1295040, Note_on_c, 7, 71, 70
9, 1295520, Note_on_c, 7, 71, 0
9, 1299360, Note_on_c, 7, 60, 70
9, 1299552, Note_on_c, 7, 60, 0
9, 1299840, Note_on_c, 7, 64, 70
9, 1300032, Note_on_c, 7, 64, 0
9, 1300320, Note_on_c, 7, 60, 70
9, 1300512, Note_on_c, 7, 60, 0
9, 1301280, Note_on_c, 7, 62, 70
9, 1301472, Note_on_c, 7, 62, 0
9, 1301760, Note_on_c, 7, 59, 70
9, 1301952, Note_on_c, 7, 59, 0
9, 1302240, Note_on_c, 7, 55, 70
9, 1302432, Note_on_c, 7, 55, 0
9, 1303200, Note_on_c, 7, 60, 70
9, 1303392, Note_on_c, 7, 60, 0
9, 1303680, Note_on_c, 7, 69, 70
9, 1303872, Note_on_c, 7, 69, 0
9, 1304160, Note_on_c, 7, 65, 70
9, 1304352, Note_on_c, 7, 65, 0
9, 1305120, Note_on_c, 7, 67, 70
9, 1305312, Note_on_c, 7, 67, 0
9, 1305600, Note_on_c, 7, 55, 70
9, 1305792, Note_on_c, 7, 55, 0
9, 1306080, Note_on_c, 7, 65, 70
9, 1306272, Note_on_c, 7, 65, 0
9, 1307040, Note_on_c, 7, 64, 70
9, 1307232, Note_on_c, 7, 64, 0
9, 1307520, Note_on_c, 7, 62, 70
9, 1307712, Note_on_c, 7, 62, 0
9, 1308000, Note_on_c, 7, 60, 70
9, 1308192, Note_on_c, 7, 60, 0
9, 1308960, Note_on_c, 7, 69, 70
9, 1309152, Note_on_c, 7, 69, 0
9, 1309440, Note_on_c, 7, 67, 70
9, 1309632, Note_on_c, 7, 67, 0
9, 1309920, Note_on_c, 7, 65, 70
9, 1310112, Note_on_c, 7, 65, 0
9, 1310400, Note_on_c, 7, 64, 70
9, 1310592, Note_on_c, 7, 64, 0
9, 1310880, Note_on_c, 7, 60, 70
9, 1311840, Note_on_c, 7, 60, 0
9, 1311840, Note_on_c, 7, 59, 70
9, 1312320, Note_on_c, 7, 59, 0
9, 1312320, Note_on_c, 7, 59, 70
9, 1312800, Note_on_c, 7, 59, 0
9, 1312800, Note_on_c, 7, 60, 70
9, 1313280, Note_on_c, 7, 60, 0
9, 1314240, Note_on_c, 7, 52, 70
9, 1315200, Note_on_c, 7, 52, 0
9, 1315200, Note_on_c, 7, 55, 70
9, 1316160, Note_on_c, 7, 55, 0
9, 1316160, Note_on_c, 7, 48, 70
9, 1316640, Note_on_c, 7, 48, 0
9, 1316640, Note_on_c, 7, 60, 70
9, 1317600, Note_on_c, 7, 60, 0
9, 1317600, Note_on_c, 7, 65, 70
9, 1318080, Note_on_c, 7, 65, 0
9, 1318080, Note_on_c, 7, 64, 70
9, 1320000, Note_on_c, 7, 64, 0
9, 1320000, Note_on_c, 7, 65, 70
9, 1320960, Note_on_c, 7, 65, 0
9, 1320960, Note_on_c, 7, 60, 70
9, 1321920, Note_on_c, 7, 60, 0
9, 1321920, Note_on_c, 7, 60, 70
9, 1322880, Note_on_c, 7, 60, 0
9, 1322880, Note_on_c, 7, 67, 70
9, 1326240, Note_on_c, 7, 67, 0
9, 1330560, Note_on_c, 7, 62, 70
9, 1331040, Note_on_c, 7, 62, 0
9, 1331520, Note_on_c, 7, 64, 70
9, 1332000, Note_on_c, 7, 64, 0
9, 1332480, Note_on_c, 7, 59, 70
9, 1332960, Note_on_c, 7, 59, 0
9, 1333440, Note_on_c, 7, 60, 70
9, 1333920, Note_on_c, 7, 60, 0
9, 1334400, Note_on_c, 7, 62, 70
9, 1334880, Note_on_c, 7, 62, 0
9, 1335360, Note_on_c, 7, 64, 70
9, 1335840, Note_on_c, 7, 64, 0
9, 1336320, Note_on_c, 7, 59, 70
9, 1336800, Note_on_c, 7, 59, 0
9, 1337280, Note_on_c, 7, 60, 70
9, 1337760, Note_on_c, 7, 60, 0
9, 1344960, Note_on_c, 7, 60, 70
9, 1345440, Note_on_c, 7, 60, 0
9, 1345920, Note_on_c, 7, 69, 70
9, 1346400, Note_on_c, 7, 69, 0
9, 1346880, Note_on_c, 7, 65, 70
9, 1347360, Note_on_c, 7, 65, 0
9, 1347840, Note_on_c, 7, 62, 70
9, 1348320, Note_on_c, 7, 62, 0
9, 1348800, Note_on_c, 7, 67, 70
9, 1350240, Note_on_c, 7, 67, 0
9, 1352640, Note_on_c, 7, 67, 70
9, 1354080, Note_on_c, 7, 67, 0
9, 1360320, Note_on_c, 7, 64, 70
9, 1361280, Note_on_c, 7, 64, 0
9, 1361280, Note_on_c, 7, 62, 70
9, 1362240, Note_on_c, 7, 62, 0
9, 1362240, Note_on_c, 7, 64, 80
9, 1363200, Note_on_c, 7, 64, 0
9, 1363200, Note_on_c, 7, 67, 80
9, 1364160, Note_on_c, 7, 67, 0
9, 1364160, Note_on_c, 7, 67, 90
9, 1364640, Note_on_c, 7, 67, 0
9, 1368960, Note_on_c, 7, 62, 105
9, 1369440, Note_on_c, 7, 62, 0
9, 1369920, Note_on_c, 7, 60, 105
9, 1370400, Note_on_c, 7, 60, 0
9, 1370880, Note_on_c, 7, 69, 105
9, 1371360, Note_on_c, 7, 69, 0
9, 1371840, Note_on_c, 7, 67, 105
9, 1372800, Note_on_c, 7, 67, 0
9, 1375680, Note_on_c, 7, 64, 90
9, 1375920, Note_on_c, 7, 64, 0
9, 1375920, Note_on_c, 7, 65, 90
9, 1376160, Note_on_c, 7, 65, 0
9, 1376160, Note_on_c, 7, 67, 90
9, 1376400, Note_on_c, 7, 67, 0
9, 1376400, Note_on_c, 7, 65, 105
9, 1376640, Note_on_c, 7, 65, 0
9, 1376640, Note_on_c, 7, 64, 105
9, 1376880, Note_on_c, 7, 64, 0
9, 1376880, Note_on_c, 7, 65, 105
9, 1377120, Note_on_c, 7, 65, 0
9, 1377120, Note_on_c, 7, 67, 105
9, 1377360, Note_on_c, 7, 67, 0
9, 1377360, Note_on_c, 7, 69, 105
9, 1377600, Note_on_c, 7, 69, 0
9, 1377600, Note_on_c, 7, 62, 105
9, 1377840, Note_on_c, 7, 62, 0
9, 1377840, Note_on_c, 7, 60, 105
9, 1378080, Note_on_c, 7, 60, 0
9, 1378080, Note_on_c, 7, 62, 105
9, 1378320, Note_on_c, 7, 62, 0
9, 1378320, Note_on_c, 7, 60, 105
9, 1378560, Note_on_c, 7, 60, 0
9, 1378560, Note_on_c, 7, 59, 105
9, 1378800, Note_on_c, 7, 59, 0
9, 1378800, Note_on_c, 7, 60, 105
9, 1379040, Note_on_c, 7, 60, 0
9, 1379040, Note_on_c, 7, 62, 105
9, 1379280, Note_on_c, 7, 62, 0
9, 1379280, Note_on_c, 7, 59, 105
9, 1379520, Note_on_c, 7, 59, 0
9, 1379520, Note_on_c, 7, 55, 105
9, 1379520, Note_on_c, 7, 67, 105
9, 1380000, Note_on_c, 7, 67, 0
9, 1380000, Note_on_c, 7, 55, 0
9, 1380000, Note_on_c, 7, 55, 105
9, 1380000, Note_on_c, 7, 67, 105
9, 1380960, Note_on_c, 7, 67, 0
9, 1380960, Note_on_c, 7, 55, 0
9, 1380960, Note_on_c, 7, 55, 105
9, 1380960, Note_on_c, 7, 67, 105
9, 1381920, Note_on_c, 7, 67, 0
9, 1381920, Note_on_c, 7, 55, 0
9, 1381920, Note_on_c, 7, 55, 105
9, 1381920, Note_on_c, 7, 67, 105
9, 1382880, Note_on_c, 7, 67, 0
9, 1382880, Note_on_c, 7, 55, 0
9, 1382880, Note_on_c, 7, 55, 105
9, 1382880, Note_on_c, 7, 67, 105
9, 1383360, Note_on_c, 7, 67, 0
9, 1383360, Note_on_c, 7, 55, 0
9, 1383360, Note_on_c, 7, 55, 105
9, 1383360, Note_on_c, 7, 67, 105
9, 1383840, Note_on_c, 7, 67, 0
9, 1383840, Note_on_c, 7, 55, 0
9, 1383840, Note_on_c, 7, 67, 105
9, 1384080, Note_on_c, 7, 67, 0
9, 1384080, Note_on_c, 7, 67, 105
9, 1384320, Note_on_c, 7, 67, 0
9, 1384320, Note_on_c, 7, 69, 105
9, 1384560, Note_on_c, 7, 69, 0
9, 1384560, Note_on_c, 7, 69, 105
9, 1384800, Note_on_c, 7, 69, 0
9, 1384800, Note_on_c, 7, 64, 105
9, 1385040, Note_on_c, 7, 64, 0
9, 1385040, Note_on_c, 7, 64, 105
9, 1385280, Note_on_c, 7, 64, 0
9, 1385280, Note_on_c, 7, 65, 105
9, 1385520, Note_on_c, 7, 65, 0
9, 1385520, Note_on_c, 7, 65, 105
9, 1385760, Note_on_c, 7, 65, 0
9, 1385760, Note_on_c, 7, 65, 105
9, 1386000, Note_on_c, 7, 65, 0
9, 1386000, Note_on_c, 7, 65, 105
9, 1386240, Note_on_c, 7, 65, 0
9, 1386240, Note_on_c, 7, 67, 105
9, 1386480, Note_on_c, 7, 67, 0
9, 1386480, Note_on_c, 7, 67, 105
9, 1386720, Note_on_c, 7, 67, 0
9, 1386720, Note_on_c, 7, 67, 105
9, 1386960, Note_on_c, 7, 67, 0
9, 1386960, Note_on_c, 7, 67, 105
9, 1387200, Note_on_c, 7, 67, 0
9, 1387200, Note_on_c, 7, 67, 105
9, 1388160, Note_on_c, 7, 67, 0
9, 1428960, Note_on_c, 7, 67, 105
9, 1429440, Note_on_c, 7, 67, 0
9, 1429440, Note_on_c, 7, 55, 105
9, 1429440, Note_on_c, 7, 67, 105
9, 1430400, Note_on_c, 7, 67, 0
9, 1430400, Note_on_c, 7, 55, 0
9, 1430880, Note_on_c, 7, 67, 105
9, 1431360, Note_on_c, 7, 67, 0
9, 1431360, Note_on_c, 7, 55, 105
9, 1431360, Note_on_c, 7, 67, 105
9, 1432320, Note_on_c, 7, 67, 0
9, 1432320, Note_on_c, 7, 55, 0
9, 1432800, Note_on_c, 7, 67, 105
9, 1433280, Note_on_c, 7, 67, 0
9, 1433280, Note_on_c, 7, 55, 105
9, 1433280, Note_on_c, 7, 67, 105
9, 1434240, Note_on_c, 7, 67, 0
9, 1434240, Note_on_c, 7, 55, 0
9, 1434240, Note_on_c, 7, 55, 105
9, 1434240, Note_on_c, 7, 64, 105
9, 1435200, Note_on_c, 7, 64, 0
9, 1435200, Note_on_c, 7, 55, 0
9, 1435200, Note_on_c, 7, 55, 105
9, 1435200, Note_on_c, 7, 64, 105
9, 1436160, Note_on_c, 7, 64, 0
9, 1436160, Note_on_c, 7, 55, 0
9, 1436160, End_track
10, 0, Start_track
10, 0, MIDI_port, 0
10, 0, Title_t, "Celli e K. Bass"
10, 0, Control_c, 8, 0, 0
10, 0, Control_c, 8, 32, 1
10, 0, Program_c, 8, 48
10, 0, Control_c, 8, 7, 90
10, 0, Control_c, 8, 10, 85
10, 1912, Note_on_c, 8, 60, 105
10, 2596, Note_on_c, 8, 60, 0
10, 2632, Note_on_c, 8, 55, 105
10, 2860, Note_on_c, 8, 55, 0
10, 2872, Note_on_c, 8, 52, 105
10, 3100, Note_on_c, 8, 52, 0
10, 3112, Note_on_c, 8, 48, 105
10, 3340, Note_on_c, 8, 48, 0
10, 3352, Note_on_c, 8, 52, 105
10, 3580, Note_on_c, 8, 52, 0
10, 3592, Note_on_c, 8, 55, 105
10, 3820, Note_on_c, 8, 55, 0
10, 3832, Note_on_c, 8, 60, 105
10, 4516, Note_on_c, 8, 60, 0
10, 4552, Note_on_c, 8, 55, 105
10, 4780, Note_on_c, 8, 55, 0
10, 4792, Note_on_c, 8, 52, 105
10, 5020, Note_on_c, 8, 52, 0
10, 5032, Note_on_c, 8, 48, 105
10, 5260, Note_on_c, 8, 48, 0
10, 5272, Note_on_c, 8, 52, 105
10, 5500, Note_on_c, 8, 52, 0
10, 5512, Note_on_c, 8, 55, 105
10, 5740, Note_on_c, 8, 55, 0
10, 5752, Note_on_c, 8, 60, 105
10, 6208, Note_on_c, 8, 60, 0
10, 6232, Note_on_c, 8, 48, 70
10, 6712, Note_on_c, 8, 47, 70
10, 6776, Note_on_c, 8, 48, 0
10, 7192, Note_on_c, 8, 48, 70
10, 7251, Note_on_c, 8, 47, 0
10, 7611, Note_on_c, 8, 48, 0
10, 7672, Note_on_c, 8, 50, 105
10, 7864, Note_on_c, 8, 50, 0
10, 8152, Note_on_c, 8, 50, 70
10, 8632, Note_on_c, 8, 49, 70
10, 8716, Note_on_c, 8, 50, 0
10, 9112, Note_on_c, 8, 50, 70
10, 9196, Note_on_c, 8, 49, 0
10, 9521, Note_on_c, 8, 50, 0
10, 9592, Note_on_c, 8, 52, 105
10, 9784, Note_on_c, 8, 52, 0
10, 10072, Note_on_c, 8, 52, 70
10, 10552, Note_on_c, 8, 51, 70
10, 10646, Note_on_c, 8, 52, 0
10, 11032, Note_on_c, 8, 52, 70
10, 11121, Note_on_c, 8, 51, 0
10, 11441, Note_on_c, 8, 52, 0
10, 11512, Note_on_c, 8, 53, 71
10, 11992, Note_on_c, 8, 55, 79
10, 12086, Note_on_c, 8, 53, 0
10, 12472, Note_on_c, 8, 57, 88
10, 12556, Note_on_c, 8, 55, 0
10, 12952, Note_on_c, 8, 59, 97
10, 13001, Note_on_c, 8, 57, 0
10, 13351, Note_on_c, 8, 59, 0
10, 13432, Note_on_c, 8, 60, 105
10, 13672, Note_on_c, 8, 60, 0
10, 13672, Note_on_c, 8, 60, 105
10, 13912, Note_on_c, 8, 60, 0
10, 13912, Note_on_c, 8, 60, 105
10, 14152, Note_on_c, 8, 60, 0
10, 14152, Note_on_c, 8, 60, 105
10, 14392, Note_on_c, 8, 60, 0
10, 14392, Note_on_c, 8, 60, 105
10, 14632, Note_on_c, 8, 60, 0
10, 14632, Note_on_c, 8, 60, 105
10, 14872, Note_on_c, 8, 60, 0
10, 14872, Note_on_c, 8, 60, 105
10, 15112, Note_on_c, 8, 60, 0
10, 15112, Note_on_c, 8, 60, 105
10, 15352, Note_on_c, 8, 60, 0
10, 15352, Note_on_c, 8, 60, 105
10, 15592, Note_on_c, 8, 60, 0
10, 15592, Note_on_c, 8, 60, 105
10, 15832, Note_on_c, 8, 60, 0
10, 15832, Note_on_c, 8, 60, 105
10, 16072, Note_on_c, 8, 60, 0
10, 16072, Note_on_c, 8, 60, 105
10, 16312, Note_on_c, 8, 60, 0
10, 16312, Note_on_c, 8, 60, 105
10, 16552, Note_on_c, 8, 60, 0
10, 16552, Note_on_c, 8, 60, 105
10, 16792, Note_on_c, 8, 60, 0
10, 16792, Note_on_c, 8, 60, 105
10, 17032, Note_on_c, 8, 60, 0
10, 17032, Note_on_c, 8, 60, 105
10, 17272, Note_on_c, 8, 60, 0
10, 17272, Note_on_c, 8, 60, 105
10, 17368, Note_on_c, 8, 60, 0
10, 17512, Note_on_c, 8, 48, 77
10, 17752, Note_on_c, 8, 48, 0
10, 17752, Note_on_c, 8, 48, 74
10, 17992, Note_on_c, 8, 48, 0
10, 17992, Note_on_c, 8, 48, 70
10, 18232, Note_on_c, 8, 48, 0
10, 18232, Note_on_c, 8, 48, 70
10, 18472, Note_on_c, 8, 48, 0
10, 18472, Note_on_c, 8, 48, 70
10, 18712, Note_on_c, 8, 48, 0
10, 18712, Note_on_c, 8, 48, 70
10, 18952, Note_on_c, 8, 48, 0
10, 18952, Note_on_c, 8, 48, 70
10, 19192, Note_on_c, 8, 48, 0
10, 19192, Note_on_c, 8, 48, 70
10, 19432, Note_on_c, 8, 48, 0
10, 19432, Note_on_c, 8, 48, 70
10, 19672, Note_on_c, 8, 48, 0
10, 19672, Note_on_c, 8, 48, 70
10, 19912, Note_on_c, 8, 48, 0
10, 19912, Note_on_c, 8, 48, 70
10, 20152, Note_on_c, 8, 48, 0
10, 20152, Note_on_c, 8, 48, 70
10, 20392, Note_on_c, 8, 48, 0
10, 20392, Note_on_c, 8, 60, 70
10, 20632, Note_on_c, 8, 60, 0
10, 20632, Note_on_c, 8, 60, 105
10, 20872, Note_on_c, 8, 60, 0
10, 20872, Note_on_c, 8, 60, 105
10, 21112, Note_on_c, 8, 60, 0
10, 21112, Note_on_c, 8, 59, 105
10, 21352, Note_on_c, 8, 59, 0
10, 21352, Note_on_c, 8, 62, 105
10, 21592, Note_on_c, 8, 62, 0
10, 21592, Note_on_c, 8, 59, 105
10, 21832, Note_on_c, 8, 59, 0
10, 21832, Note_on_c, 8, 55, 105
10, 22072, Note_on_c, 8, 55, 0
10, 22072, Note_on_c, 8, 53, 105
10, 22312, Note_on_c, 8, 53, 0
10, 22312, Note_on_c, 8, 50, 105
10, 22552, Note_on_c, 8, 50, 0
10, 22552, Note_on_c, 8, 47, 105
10, 22792, Note_on_c, 8, 47, 0
10, 22792, Note_on_c, 8, 43, 105
10, 23032, Note_on_c, 8, 43, 0
10, 23032, Note_on_c, 8, 48, 105
10, 23272, Note_on_c, 8, 48, 0
10, 23272, Note_on_c, 8, 64, 105
10, 23512, Note_on_c, 8, 64, 0
10, 23512, Note_on_c, 8, 60, 105
10, 23752, Note_on_c, 8, 60, 0
10, 23752, Note_on_c, 8, 55, 105
10, 23992, Note_on_c, 8, 55, 0
10, 23992, Note_on_c, 8, 52, 105
10, 24232, Note_on_c, 8, 52, 0
10, 24232, Note_on_c, 8, 55, 105
10, 24472, Note_on_c, 8, 55, 0
10, 24472, Note_on_c, 8, 52, 105
10, 24712, Note_on_c, 8, 52, 0
10, 24712, Note_on_c, 8, 48, 105
10, 24952, Note_on_c, 8, 48, 0
10, 24952, Note_on_c, 8, 53, 105
10, 25192, Note_on_c, 8, 53, 0
10, 25192, Note_on_c, 8, 53, 105
10, 25432, Note_on_c, 8, 53, 0
10, 25432, Note_on_c, 8, 53, 105
10, 25672, Note_on_c, 8, 53, 0
10, 25672, Note_on_c, 8, 53, 105
10, 25912, Note_on_c, 8, 53, 0
10, 25912, Note_on_c, 8, 55, 105
10, 26152, Note_on_c, 8, 55, 0
10, 26152, Note_on_c, 8, 55, 105
10, 26392, Note_on_c, 8, 55, 0
10, 26392, Note_on_c, 8, 55, 105
10, 26632, Note_on_c, 8, 55, 0
10, 26632, Note_on_c, 8, 55, 105
10, 26872, Note_on_c, 8, 55, 0
10, 26872, Note_on_c, 8, 48, 80
10, 26968, Note_on_c, 8, 48, 0
10, 27112, Note_on_c, 8, 50, 76
10, 27208, Note_on_c, 8, 50, 0
10, 27352, Note_on_c, 8, 52, 76
10, 27448, Note_on_c, 8, 52, 0
10, 27592, Note_on_c, 8, 53, 77
10, 27688, Note_on_c, 8, 53, 0
10, 27832, Note_on_c, 8, 55, 80
10, 28312, Note_on_c, 8, 55, 0
10, 28792, Note_on_c, 8, 59, 105
10, 29032, Note_on_c, 8, 59, 0
10, 29032, Note_on_c, 8, 62, 105
10, 29272, Note_on_c, 8, 62, 0
10, 29272, Note_on_c, 8, 59, 105
10, 29512, Note_on_c, 8, 59, 0
10, 29512, Note_on_c, 8, 55, 105
10, 29752, Note_on_c, 8, 55, 0
10, 29752, Note_on_c, 8, 53, 105
10, 29992, Note_on_c, 8, 53, 0
10, 29992, Note_on_c, 8, 50, 105
10, 30232, Note_on_c, 8, 50, 0
10, 30232, Note_on_c, 8, 47, 105
10, 30472, Note_on_c, 8, 47, 0
10, 30472, Note_on_c, 8, 43, 105
10, 30712, Note_on_c, 8, 43, 0
10, 30712, Note_on_c, 8, 48, 105
10, 30952, Note_on_c, 8, 48, 0
10, 30952, Note_on_c, 8, 64, 105
10, 31192, Note_on_c, 8, 64, 0
10, 31192, Note_on_c, 8, 60, 105
10, 31432, Note_on_c, 8, 60, 0
10, 31432, Note_on_c, 8, 56, 105
10, 31672, Note_on_c, 8, 56, 0
10, 31672, Note_on_c, 8, 57, 105
10, 31912, Note_on_c, 8, 57, 0
10, 31912, Note_on_c, 8, 60, 105
10, 32152, Note_on_c, 8, 60, 0
10, 32152, Note_on_c, 8, 57, 105
10, 32392, Note_on_c, 8, 57, 0
10, 32392, Note_on_c, 8, 52, 105
10, 32632, Note_on_c, 8, 52, 0
10, 32632, Note_on_c, 8, 53, 105
10, 32872, Note_on_c, 8, 53, 0
10, 32872, Note_on_c, 8, 55, 105
10, 33112, Note_on_c, 8, 55, 0
10, 33112, Note_on_c, 8, 57, 105
10, 33352, Note_on_c, 8, 57, 0
10, 33352, Note_on_c, 8, 52, 105
10, 33592, Note_on_c, 8, 52, 0
10, 33592, Note_on_c, 8, 53, 105
10, 33832, Note_on_c, 8, 53, 0
10, 33832, Note_on_c, 8, 53, 105
10, 34072, Note_on_c, 8, 53, 0
10, 34072, Note_on_c, 8, 54, 105
10, 34312, Note_on_c, 8, 54, 0
10, 34312, Note_on_c, 8, 54, 105
10, 34552, Note_on_c, 8, 54, 0
10, 34552, Note_on_c, 8, 55, 105
10, 34792, Note_on_c, 8, 55, 0
10, 34792, Note_on_c, 8, 59, 105
10, 35032, Note_on_c, 8, 59, 0
10, 35032, Note_on_c, 8, 62, 105
10, 35272, Note_on_c, 8, 62, 0
10, 35272, Note_on_c, 8, 55, 105
10, 35512, Note_on_c, 8, 55, 0
10, 35512, Note_on_c, 8, 60, 109
10, 35752, Note_on_c, 8, 60, 0
10, 35752, Note_on_c, 8, 55, 105
10, 35992, Note_on_c, 8, 55, 0
10, 35992, Note_on_c, 8, 52, 105
10, 36232, Note_on_c, 8, 52, 0
10, 36232, Note_on_c, 8, 48, 105
10, 36472, Note_on_c, 8, 48, 0
10, 36472, Note_on_c, 8, 55, 97
10, 36712, Note_on_c, 8, 55, 0
10, 36712, Note_on_c, 8, 59, 105
10, 36952, Note_on_c, 8, 59, 0
10, 36952, Note_on_c, 8, 62, 105
10, 37192, Note_on_c, 8, 62, 0
10, 37192, Note_on_c, 8, 55, 105
10, 37432, Note_on_c, 8, 55, 0
10, 37432, Note_on_c, 8, 60, 109
10, 37672, Note_on_c, 8, 60, 0
10, 37672, Note_on_c, 8, 55, 105
10, 37912, Note_on_c, 8, 55, 0
10, 37912, Note_on_c, 8, 52, 105
10, 38152, Note_on_c, 8, 52, 0
10, 38152, Note_on_c, 8, 48, 105
10, 38392, Note_on_c, 8, 48, 0
10, 38392, Note_on_c, 8, 43, 96
10, 38872, Note_on_c, 8, 43, 0
10, 38872, Note_on_c, 8, 55, 105
10, 39352, Note_on_c, 8, 55, 0
10, 39352, Note_on_c, 8, 43, 105
10, 39832, Note_on_c, 8, 43, 0
10, 44152, Note_on_c, 8, 60, 70
10, 45112, Note_on_c, 8, 64, 70
10, 45221, Note_on_c, 8, 60, 0
10, 45976, Note_on_c, 8, 64, 0
10, 46072, Note_on_c, 8, 62, 70
10, 47032, Note_on_c, 8, 55, 70
10, 47121, Note_on_c, 8, 62, 0
10, 47901, Note_on_c, 8, 55, 0
10, 47992, Note_on_c, 8, 60, 70
10, 48952, Note_on_c, 8, 64, 70
10, 49036, Note_on_c, 8, 60, 0
10, 49831, Note_on_c, 8, 64, 0
10, 49912, Note_on_c, 8, 62, 70
10, 50872, Note_on_c, 8, 55, 70
10, 50956, Note_on_c, 8, 62, 0
10, 51736, Note_on_c, 8, 55, 0
10, 51832, Note_on_c, 8, 60, 70
10, 52792, Note_on_c, 8, 58, 70
10, 52896, Note_on_c, 8, 60, 0
10, 53676, Note_on_c, 8, 58, 0
10, 53752, Note_on_c, 8, 57, 70
10, 54712, Note_on_c, 8, 53, 70
10, 54801, Note_on_c, 8, 57, 0
10, 55591, Note_on_c, 8, 53, 0
10, 55672, Note_on_c, 8, 52, 70
10, 56632, Note_on_c, 8, 64, 70
10, 56726, Note_on_c, 8, 52, 0
10, 57521, Note_on_c, 8, 64, 0
10, 57592, Note_on_c, 8, 65, 70
10, 58072, Note_on_c, 8, 65, 0
10, 61432, Note_on_c, 8, 55, 105
10, 61600, Note_on_c, 8, 55, 0
10, 61672, Note_on_c, 8, 55, 105
10, 61840, Note_on_c, 8, 55, 0
10, 61912, Note_on_c, 8, 55, 105
10, 62080, Note_on_c, 8, 55, 0
10, 62152, Note_on_c, 8, 55, 105
10, 62320, Note_on_c, 8, 55, 0
10, 62392, Note_on_c, 8, 55, 105
10, 62560, Note_on_c, 8, 55, 0
10, 62632, Note_on_c, 8, 55, 105
10, 62800, Note_on_c, 8, 55, 0
10, 62872, Note_on_c, 8, 55, 105
10, 63040, Note_on_c, 8, 55, 0
10, 63112, Note_on_c, 8, 55, 105
10, 63280, Note_on_c, 8, 55, 0
10, 63352, Note_on_c, 8, 55, 105
10, 63520, Note_on_c, 8, 55, 0
10, 63592, Note_on_c, 8, 55, 105
10, 63760, Note_on_c, 8, 55, 0
10, 63832, Note_on_c, 8, 55, 105
10, 64000, Note_on_c, 8, 55, 0
10, 64072, Note_on_c, 8, 55, 105
10, 64240, Note_on_c, 8, 55, 0
10, 64312, Note_on_c, 8, 55, 105
10, 64480, Note_on_c, 8, 55, 0
10, 64552, Note_on_c, 8, 55, 105
10, 64720, Note_on_c, 8, 55, 0
10, 64792, Note_on_c, 8, 55, 105
10, 64960, Note_on_c, 8, 55, 0
10, 65032, Note_on_c, 8, 55, 105
10, 65200, Note_on_c, 8, 55, 0
10, 65272, Note_on_c, 8, 48, 105
10, 65752, Note_on_c, 8, 48, 0
10, 72952, Note_on_c, 8, 52, 105
10, 73120, Note_on_c, 8, 52, 0
10, 73192, Note_on_c, 8, 52, 105
10, 73360, Note_on_c, 8, 52, 0
10, 73432, Note_on_c, 8, 52, 105
10, 73600, Note_on_c, 8, 52, 0
10, 73672, Note_on_c, 8, 52, 105
10, 73840, Note_on_c, 8, 52, 0
10, 73912, Note_on_c, 8, 53, 105
10, 74080, Note_on_c, 8, 53, 0
10, 74152, Note_on_c, 8, 53, 105
10, 74320, Note_on_c, 8, 53, 0
10, 74392, Note_on_c, 8, 53, 105
10, 74560, Note_on_c, 8, 53, 0
10, 74632, Note_on_c, 8, 53, 105
10, 74800, Note_on_c, 8, 53, 0
10, 74872, Note_on_c, 8, 55, 105
10, 75040, Note_on_c, 8, 55, 0
10, 75112, Note_on_c, 8, 55, 105
10, 75280, Note_on_c, 8, 55, 0
10, 75352, Note_on_c, 8, 55, 105
10, 75520, Note_on_c, 8, 55, 0
10, 75592, Note_on_c, 8, 55, 105
10, 75760, Note_on_c, 8, 55, 0
10, 75832, Note_on_c, 8, 55, 105
10, 76000, Note_on_c, 8, 55, 0
10, 76072, Note_on_c, 8, 55, 105
10, 76240, Note_on_c, 8, 55, 0
10, 76312, Note_on_c, 8, 43, 105
10, 76480, Note_on_c, 8, 43, 0
10, 76552, Note_on_c, 8, 43, 105
10, 76720, Note_on_c, 8, 43, 0
10, 76792, Note_on_c, 8, 48, 105
10, 77032, Note_on_c, 8, 48, 0
10, 77032, Note_on_c, 8, 52, 105
10, 77272, Note_on_c, 8, 52, 0
10, 77272, Note_on_c, 8, 55, 105
10, 77512, Note_on_c, 8, 55, 0
10, 77512, Note_on_c, 8, 52, 105
10, 77752, Note_on_c, 8, 52, 0
10, 77752, Note_on_c, 8, 48, 105
10, 77992, Note_on_c, 8, 48, 0
10, 77992, Note_on_c, 8, 52, 105
10, 78232, Note_on_c, 8, 52, 0
10, 78232, Note_on_c, 8, 55, 105
10, 78472, Note_on_c, 8, 55, 0
10, 78472, Note_on_c, 8, 52, 105
10, 78712, Note_on_c, 8, 52, 0
10, 78712, Note_on_c, 8, 48, 105
10, 78952, Note_on_c, 8, 48, 0
10, 78952, Note_on_c, 8, 52, 105
10, 79192, Note_on_c, 8, 52, 0
10, 79192, Note_on_c, 8, 55, 105
10, 79432, Note_on_c, 8, 55, 0
10, 79432, Note_on_c, 8, 52, 105
10, 79672, Note_on_c, 8, 52, 0
10, 79672, Note_on_c, 8, 48, 105
10, 79912, Note_on_c, 8, 48, 0
10, 79912, Note_on_c, 8, 52, 105
10, 80152, Note_on_c, 8, 52, 0
10, 80152, Note_on_c, 8, 55, 105
10, 80392, Note_on_c, 8, 55, 0
10, 80392, Note_on_c, 8, 52, 105
10, 80632, Note_on_c, 8, 52, 0
10, 80632, Note_on_c, 8, 48, 105
10, 81071, Note_on_c, 8, 48, 0
10, 81112, Note_on_c, 8, 60, 81
10, 81592, Note_on_c, 8, 59, 70
10, 81666, Note_on_c, 8, 60, 0
10, 82072, Note_on_c, 8, 57, 70
10, 82141, Note_on_c, 8, 59, 0
10, 82481, Note_on_c, 8, 57, 0
10, 82552, Note_on_c, 8, 55, 105
10, 82786, Note_on_c, 8, 55, 0
10, 83032, Note_on_c, 8, 53, 70
10, 83512, Note_on_c, 8, 52, 70
10, 83561, Note_on_c, 8, 53, 0
10, 83992, Note_on_c, 8, 50, 70
10, 84066, Note_on_c, 8, 52, 0
10, 84421, Note_on_c, 8, 50, 0
10, 84472, Note_on_c, 8, 48, 105
10, 85156, Note_on_c, 8, 48, 0
10, 85192, Note_on_c, 8, 55, 105
10, 85420, Note_on_c, 8, 55, 0
10, 85432, Note_on_c, 8, 52, 105
10, 85660, Note_on_c, 8, 52, 0
10, 85672, Note_on_c, 8, 48, 105
10, 85900, Note_on_c, 8, 48, 0
10, 85912, Note_on_c, 8, 52, 105
10, 86140, Note_on_c, 8, 52, 0
10, 86152, Note_on_c, 8, 55, 105
10, 86380, Note_on_c, 8, 55, 0
10, 86392, Note_on_c, 8, 60, 105
10, 87076, Note_on_c, 8, 60, 0
10, 87112, Note_on_c, 8, 55, 105
10, 87340, Note_on_c, 8, 55, 0
10, 87352, Note_on_c, 8, 52, 105
10, 87580, Note_on_c, 8, 52, 0
10, 87592, Note_on_c, 8, 48, 105
10, 87820, Note_on_c, 8, 48, 0
10, 87832, Note_on_c, 8, 52, 105
10, 88060, Note_on_c, 8, 52, 0
10, 88072, Note_on_c, 8, 55, 105
10, 88300, Note_on_c, 8, 55, 0
10, 88312, Note_on_c, 8, 60, 105
10, 88792, Note_on_c, 8, 60, 0
10, 88792, Note_on_c, 8, 48, 70
10, 89272, Note_on_c, 8, 47, 70
10, 89341, Note_on_c, 8, 48, 0
10, 89752, Note_on_c, 8, 48, 70
10, 89831, Note_on_c, 8, 47, 0
10, 90161, Note_on_c, 8, 48, 0
10, 90232, Note_on_c, 8, 50, 70
10, 90424, Note_on_c, 8, 50, 0
10, 90712, Note_on_c, 8, 50, 70
10, 91192, Note_on_c, 8, 49, 70
10, 91271, Note_on_c, 8, 50, 0
10, 91672, Note_on_c, 8, 50, 70
10, 91756, Note_on_c, 8, 49, 0
10, 92081, Note_on_c, 8, 50, 0
10, 92152, Note_on_c, 8, 52, 70
10, 92344, Note_on_c, 8, 52, 0
10, 92632, Note_on_c, 8, 52, 70
10, 93112, Note_on_c, 8, 51, 70
10, 93191, Note_on_c, 8, 52, 0
10, 93592, Note_on_c, 8, 52, 70
10, 93681, Note_on_c, 8, 51, 0
10, 94011, Note_on_c, 8, 52, 0
10, 94072, Note_on_c, 8, 53, 70
10, 94552, Note_on_c, 8, 55, 70
10, 94606, Note_on_c, 8, 53, 0
10, 95032, Note_on_c, 8, 57, 70
10, 95111, Note_on_c, 8, 55, 0
10, 95512, Note_on_c, 8, 59, 70
10, 95586, Note_on_c, 8, 57, 0
10, 95931, Note_on_c, 8, 59, 0
10, 95992, Note_on_c, 8, 60, 70
10, 96472, Note_on_c, 8, 60, 0
10, 103672, Note_on_c, 8, 48, 70
10, 104152, Note_on_c, 8, 48, 0
10, 105592, Note_on_c, 8, 48, 70
10, 106072, Note_on_c, 8, 48, 0
10, 107512, Note_on_c, 8, 48, 70
10, 107992, Note_on_c, 8, 48, 0
10, 109432, Note_on_c, 8, 53, 70
10, 110392, Note_on_c, 8, 55, 70
10, 110491, Note_on_c, 8, 53, 0
10, 111286, Note_on_c, 8, 55, 0
10, 111352, Note_on_c, 8, 48, 70
10, 111832, Note_on_c, 8, 48, 0
10, 113272, Note_on_c, 8, 48, 70
10, 113752, Note_on_c, 8, 48, 0
10, 115192, Note_on_c, 8, 48, 70
10, 115672, Note_on_c, 8, 48, 0
10, 117112, Note_on_c, 8, 55, 70
10, 118072, Note_on_c, 8, 55, 0
10, 118072, Note_on_c, 8, 43, 70
10, 119032, Note_on_c, 8, 43, 0
10, 119032, Note_on_c, 8, 48, 70
10, 119512, Note_on_c, 8, 48, 0
10, 128872, Note_on_c, 8, 55, 105
10, 128968, Note_on_c, 8, 55, 0
10, 129112, Note_on_c, 8, 59, 105
10, 129208, Note_on_c, 8, 59, 0
10, 129352, Note_on_c, 8, 55, 105
10, 129448, Note_on_c, 8, 55, 0
10, 129592, Note_on_c, 8, 50, 105
10, 129688, Note_on_c, 8, 50, 0
10, 129832, Note_on_c, 8, 55, 105
10, 129928, Note_on_c, 8, 55, 0
10, 130072, Note_on_c, 8, 47, 105
10, 130168, Note_on_c, 8, 47, 0
10, 130312, Note_on_c, 8, 50, 105
10, 130408, Note_on_c, 8, 50, 0
10, 130552, Note_on_c, 8, 43, 105
10, 131032, Note_on_c, 8, 43, 0
10, 147832, Control_c, 8, 0, 0
10, 147832, Control_c, 8, 32, 0
10, 147832, Program_c, 8, 45
10, 153592, Note_on_c, 8, 43, 70
10, 153832, Note_on_c, 8, 43, 0
10, 154072, Note_on_c, 8, 55, 70
10, 154312, Note_on_c, 8, 55, 0
10, 154552, Note_on_c, 8, 62, 70
10, 154792, Note_on_c, 8, 62, 0
10, 155032, Note_on_c, 8, 59, 70
10, 155272, Note_on_c, 8, 59, 0
10, 155512, Note_on_c, 8, 55, 70
10, 155752, Note_on_c, 8, 55, 0
10, 155992, Note_on_c, 8, 59, 70
10, 156232, Note_on_c, 8, 59, 0
10, 156472, Note_on_c, 8, 55, 70
10, 156712, Note_on_c, 8, 55, 0
10, 156952, Note_on_c, 8, 43, 70
10, 157192, Note_on_c, 8, 43, 0
10, 157432, Note_on_c, 8, 50, 70
10, 157912, Note_on_c, 8, 50, 0
10, 161272, Note_on_c, 8, 43, 70
10, 161512, Note_on_c, 8, 43, 0
10, 161752, Note_on_c, 8, 55, 70
10, 161992, Note_on_c, 8, 55, 0
10, 162232, Note_on_c, 8, 62, 70
10, 162472, Note_on_c, 8, 62, 0
10, 162712, Note_on_c, 8, 59, 70
10, 162952, Note_on_c, 8, 59, 0
10, 163192, Note_on_c, 8, 55, 70
10, 163432, Note_on_c, 8, 55, 0
10, 163672, Note_on_c, 8, 59, 70
10, 163912, Note_on_c, 8, 59, 0
10, 164152, Note_on_c, 8, 55, 70
10, 164392, Note_on_c, 8, 55, 0
10, 164632, Note_on_c, 8, 43, 70
10, 164872, Note_on_c, 8, 43, 0
10, 164872, Control_c, 8, 0, 0
10, 164872, Control_c, 8, 0, 0
10, 164872, Control_c, 8, 0, 0
10, 164872, Control_c, 8, 0, 0
10, 164872, Control_c, 8, 0, 0
10, 164872, Control_c, 8, 0, 0
10, 164872, Control_c, 8, 0, 0
10, 164872, Control_c, 8, 0, 0
10, 164872, Control_c, 8, 0, 0
10, 164872, Control_c, 8, 0, 0
10, 164872, Control_c, 8, 0, 0
10, 164872, Control_c, 8, 0, 0
10, 164872, Control_c, 8, 0, 0
10, 164872, Control_c, 8, 32, 0
10, 164872, Program_c, 8, 48
10, 165112, Note_on_c, 8, 50, 105
10, 165352, Note_on_c, 8, 50, 0
10, 165352, Note_on_c, 8, 54, 105
10, 165592, Note_on_c, 8, 54, 0
10, 165592, Note_on_c, 8, 57, 105
10, 165832, Note_on_c, 8, 57, 0
10, 165832, Note_on_c, 8, 50, 105
10, 166072, Note_on_c, 8, 50, 0
10, 166072, Note_on_c, 8, 55, 105
10, 166312, Note_on_c, 8, 55, 0
10, 166312, Note_on_c, 8, 50, 105
10, 166552, Note_on_c, 8, 50, 0
10, 166552, Note_on_c, 8, 47, 105
10, 166792, Note_on_c, 8, 47, 0
10, 166792, Note_on_c, 8, 43, 105
10, 167032, Note_on_c, 8, 43, 0
10, 167032, Note_on_c, 8, 50, 105
10, 167272, Note_on_c, 8, 50, 0
10, 167272, Note_on_c, 8, 54, 105
10, 167512, Note_on_c, 8, 54, 0
10, 167512, Note_on_c, 8, 57, 105
10, 167752, Note_on_c, 8, 57, 0
10, 167752, Note_on_c, 8, 50, 105
10, 167992, Note_on_c, 8, 50, 0
10, 167992, Note_on_c, 8, 55, 105
10, 168232, Note_on_c, 8, 55, 0
10, 168232, Note_on_c, 8, 62, 105
10, 168472, Note_on_c, 8, 62, 0
10, 168472, Note_on_c, 8, 59, 105
10, 168712, Note_on_c, 8, 59, 0
10, 168712, Note_on_c, 8, 55, 105
10, 168952, Note_on_c, 8, 55, 0
10, 168952, Note_on_c, 8, 50, 105
10, 169432, Note_on_c, 8, 50, 0
10, 169432, Note_on_c, 8, 62, 105
10, 169912, Note_on_c, 8, 62, 0
10, 169912, Note_on_c, 8, 50, 105
10, 170392, Note_on_c, 8, 50, 0
10, 172792, Control_c, 8, 0, 0
10, 172792, Control_c, 8, 32, 0
10, 172792, Program_c, 8, 45
10, 174712, Note_on_c, 8, 55, 70
10, 175192, Note_on_c, 8, 55, 0
10, 175672, Note_on_c, 8, 59, 70
10, 176152, Note_on_c, 8, 59, 0
10, 176632, Note_on_c, 8, 57, 70
10, 177112, Note_on_c, 8, 57, 0
10, 177592, Note_on_c, 8, 50, 70
10, 178072, Note_on_c, 8, 50, 0
10, 178552, Note_on_c, 8, 55, 70
10, 179032, Note_on_c, 8, 55, 0
10, 179512, Note_on_c, 8, 59, 70
10, 179992, Note_on_c, 8, 59, 0
10, 180472, Note_on_c, 8, 57, 70
10, 180952, Note_on_c, 8, 57, 0
10, 181432, Note_on_c, 8, 50, 70
10, 181912, Note_on_c, 8, 50, 0
10, 182392, Note_on_c, 8, 55, 70
10, 182872, Note_on_c, 8, 55, 0
10, 183352, Note_on_c, 8, 55, 70
10, 183832, Note_on_c, 8, 55, 0
10, 184312, Note_on_c, 8, 55, 70
10, 184792, Note_on_c, 8, 55, 0
10, 185272, Note_on_c, 8, 55, 70
10, 185752, Note_on_c, 8, 55, 0
10, 186232, Note_on_c, 8, 55, 70
10, 186712, Note_on_c, 8, 55, 0
10, 187192, Note_on_c, 8, 55, 70
10, 187672, Note_on_c, 8, 55, 0
10, 190072, Control_c, 8, 0, 0
10, 190072, Control_c, 8, 32, 0
10, 190072, Program_c, 8, 48
10, 191992, Note_on_c, 8, 57, 70
10, 192472, Note_on_c, 8, 57, 0
10, 192952, Note_on_c, 8, 50, 70
10, 193432, Note_on_c, 8, 50, 0
10, 193912, Note_on_c, 8, 55, 70
10, 194392, Note_on_c, 8, 55, 0
10, 194872, Note_on_c, 8, 52, 70
10, 195352, Note_on_c, 8, 52, 0
10, 195832, Note_on_c, 8, 48, 70
10, 196792, Note_on_c, 8, 50, 70
10, 196881, Note_on_c, 8, 48, 0
10, 197681, Note_on_c, 8, 50, 0
10, 197752, Note_on_c, 8, 55, 70
10, 197848, Note_on_c, 8, 55, 0
10, 197992, Note_on_c, 8, 57, 72
10, 198088, Note_on_c, 8, 57, 0
10, 198232, Note_on_c, 8, 59, 74
10, 198328, Note_on_c, 8, 59, 0
10, 198472, Note_on_c, 8, 60, 76
10, 198568, Note_on_c, 8, 60, 0
10, 198712, Note_on_c, 8, 62, 78
10, 199192, Note_on_c, 8, 62, 0
10, 224632, Note_on_c, 8, 47, 70
10, 225592, Note_on_c, 8, 48, 70
10, 225686, Note_on_c, 8, 47, 0
10, 226486, Note_on_c, 8, 48, 0
10, 226552, Note_on_c, 8, 50, 70
10, 227032, Note_on_c, 8, 50, 0
10, 227512, Note_on_c, 8, 50, 70
10, 227992, Note_on_c, 8, 50, 0
10, 228472, Note_on_c, 8, 50, 70
10, 228640, Note_on_c, 8, 50, 0
10, 228712, Note_on_c, 8, 50, 73
10, 228880, Note_on_c, 8, 50, 0
10, 228952, Note_on_c, 8, 50, 77
10, 229120, Note_on_c, 8, 50, 0
10, 229192, Note_on_c, 8, 50, 81
10, 229360, Note_on_c, 8, 50, 0
10, 229432, Note_on_c, 8, 50, 85
10, 229600, Note_on_c, 8, 50, 0
10, 229672, Note_on_c, 8, 50, 89
10, 229840, Note_on_c, 8, 50, 0
10, 229912, Note_on_c, 8, 50, 93
10, 230080, Note_on_c, 8, 50, 0
10, 230152, Note_on_c, 8, 50, 97
10, 230320, Note_on_c, 8, 50, 0
10, 230392, Note_on_c, 8, 55, 101
10, 230560, Note_on_c, 8, 55, 0
10, 230632, Note_on_c, 8, 55, 105
10, 230800, Note_on_c, 8, 55, 0
10, 230872, Note_on_c, 8, 55, 105
10, 231040, Note_on_c, 8, 55, 0
10, 231112, Note_on_c, 8, 55, 105
10, 231280, Note_on_c, 8, 55, 0
10, 231352, Note_on_c, 8, 55, 105
10, 231520, Note_on_c, 8, 55, 0
10, 231592, Note_on_c, 8, 55, 105
10, 231760, Note_on_c, 8, 55, 0
10, 231832, Note_on_c, 8, 55, 105
10, 232000, Note_on_c, 8, 55, 0
10, 232072, Note_on_c, 8, 55, 105
10, 232240, Note_on_c, 8, 55, 0
10, 232312, Note_on_c, 8, 55, 105
10, 232480, Note_on_c, 8, 55, 0
10, 232552, Note_on_c, 8, 55, 105
10, 232720, Note_on_c, 8, 55, 0
10, 232792, Note_on_c, 8, 55, 105
10, 232960, Note_on_c, 8, 55, 0
10, 233032, Note_on_c, 8, 55, 105
10, 233200, Note_on_c, 8, 55, 0
10, 233272, Note_on_c, 8, 55, 105
10, 233440, Note_on_c, 8, 55, 0
10, 233512, Note_on_c, 8, 55, 105
10, 233680, Note_on_c, 8, 55, 0
10, 233752, Note_on_c, 8, 55, 105
10, 233920, Note_on_c, 8, 55, 0
10, 233992, Note_on_c, 8, 55, 105
10, 234160, Note_on_c, 8, 55, 0
10, 234232, Note_on_c, 8, 55, 105
10, 234400, Note_on_c, 8, 55, 0
10, 234472, Note_on_c, 8, 55, 105
10, 234640, Note_on_c, 8, 55, 0
10, 234712, Note_on_c, 8, 55, 70
10, 234880, Note_on_c, 8, 55, 0
10, 234952, Note_on_c, 8, 55, 70
10, 235120, Note_on_c, 8, 55, 0
10, 235192, Note_on_c, 8, 55, 70
10, 235360, Note_on_c, 8, 55, 0
10, 235432, Note_on_c, 8, 55, 70
10, 235600, Note_on_c, 8, 55, 0
10, 235672, Note_on_c, 8, 55, 70
10, 235840, Note_on_c, 8, 55, 0
10, 235912, Note_on_c, 8, 55, 70
10, 236080, Note_on_c, 8, 55, 0
10, 236152, Note_on_c, 8, 55, 70
10, 236320, Note_on_c, 8, 55, 0
10, 236392, Note_on_c, 8, 55, 70
10, 236560, Note_on_c, 8, 55, 0
10, 236632, Note_on_c, 8, 55, 70
10, 236800, Note_on_c, 8, 55, 0
10, 236872, Note_on_c, 8, 55, 70
10, 237040, Note_on_c, 8, 55, 0
10, 237112, Note_on_c, 8, 55, 70
10, 237280, Note_on_c, 8, 55, 0
10, 237352, Note_on_c, 8, 55, 70
10, 237520, Note_on_c, 8, 55, 0
10, 237592, Note_on_c, 8, 55, 105
10, 237760, Note_on_c, 8, 55, 0
10, 237832, Note_on_c, 8, 55, 105
10, 238000, Note_on_c, 8, 55, 0
10, 238072, Note_on_c, 8, 54, 105
10, 238312, Note_on_c, 8, 54, 0
10, 238312, Note_on_c, 8, 57, 105
10, 238552, Note_on_c, 8, 57, 0
10, 238552, Note_on_c, 8, 54, 105
10, 238792, Note_on_c, 8, 54, 0
10, 238792, Note_on_c, 8, 50, 105
10, 239032, Note_on_c, 8, 50, 0
10, 239032, Note_on_c, 8, 54, 105
10, 239272, Note_on_c, 8, 54, 0
10, 239272, Note_on_c, 8, 57, 105
10, 239512, Note_on_c, 8, 57, 0
10, 239512, Note_on_c, 8, 54, 105
10, 239752, Note_on_c, 8, 54, 0
10, 239752, Note_on_c, 8, 50, 105
10, 239992, Note_on_c, 8, 50, 0
10, 239992, Note_on_c, 8, 55, 105
10, 240232, Note_on_c, 8, 55, 0
10, 240232, Note_on_c, 8, 59, 105
10, 240472, Note_on_c, 8, 59, 0
10, 240472, Note_on_c, 8, 55, 105
10, 240712, Note_on_c, 8, 55, 0
10, 240712, Note_on_c, 8, 50, 105
10, 240952, Note_on_c, 8, 50, 0
10, 240952, Note_on_c, 8, 47, 105
10, 241192, Note_on_c, 8, 47, 0
10, 241192, Note_on_c, 8, 50, 105
10, 241432, Note_on_c, 8, 50, 0
10, 241432, Note_on_c, 8, 47, 105
10, 241672, Note_on_c, 8, 47, 0
10, 241672, Note_on_c, 8, 43, 105
10, 241912, Note_on_c, 8, 43, 0
10, 241912, Note_on_c, 8, 48, 105
10, 242080, Note_on_c, 8, 48, 0
10, 242152, Note_on_c, 8, 48, 105
10, 242320, Note_on_c, 8, 48, 0
10, 242392, Note_on_c, 8, 48, 105
10, 242560, Note_on_c, 8, 48, 0
10, 242632, Note_on_c, 8, 48, 105
10, 242800, Note_on_c, 8, 48, 0
10, 242872, Note_on_c, 8, 50, 105
10, 243040, Note_on_c, 8, 50, 0
10, 243112, Note_on_c, 8, 50, 105
10, 243280, Note_on_c, 8, 50, 0
10, 243352, Note_on_c, 8, 50, 105
10, 243520, Note_on_c, 8, 50, 0
10, 243592, Note_on_c, 8, 50, 105
10, 243760, Note_on_c, 8, 50, 0
10, 243832, Note_on_c, 8, 47, 105
10, 244000, Note_on_c, 8, 47, 0
10, 244072, Note_on_c, 8, 47, 105
10, 244240, Note_on_c, 8, 47, 0
10, 244312, Note_on_c, 8, 47, 105
10, 244480, Note_on_c, 8, 47, 0
10, 244552, Note_on_c, 8, 47, 105
10, 244720, Note_on_c, 8, 47, 0
10, 244792, Note_on_c, 8, 48, 105
10, 244960, Note_on_c, 8, 48, 0
10, 245032, Note_on_c, 8, 48, 105
10, 245200, Note_on_c, 8, 48, 0
10, 245272, Note_on_c, 8, 48, 105
10, 245440, Note_on_c, 8, 48, 0
10, 245512, Note_on_c, 8, 48, 105
10, 245680, Note_on_c, 8, 48, 0
10, 245752, Note_on_c, 8, 50, 105
10, 245920, Note_on_c, 8, 50, 0
10, 245992, Note_on_c, 8, 50, 105
10, 246160, Note_on_c, 8, 50, 0
10, 246232, Note_on_c, 8, 50, 105
10, 246400, Note_on_c, 8, 50, 0
10, 246472, Note_on_c, 8, 50, 105
10, 246640, Note_on_c, 8, 50, 0
10, 246712, Note_on_c, 8, 50, 105
10, 246880, Note_on_c, 8, 50, 0
10, 246952, Note_on_c, 8, 50, 105
10, 247120, Note_on_c, 8, 50, 0
10, 247192, Note_on_c, 8, 50, 105
10, 247360, Note_on_c, 8, 50, 0
10, 247432, Note_on_c, 8, 50, 105
10, 247600, Note_on_c, 8, 50, 0
10, 247672, Note_on_c, 8, 50, 105
10, 247840, Note_on_c, 8, 50, 0
10, 247912, Note_on_c, 8, 50, 105
10, 248080, Note_on_c, 8, 50, 0
10, 248152, Note_on_c, 8, 50, 105
10, 248320, Note_on_c, 8, 50, 0
10, 248392, Note_on_c, 8, 50, 105
10, 248560, Note_on_c, 8, 50, 0
10, 248632, Note_on_c, 8, 50, 105
10, 248800, Note_on_c, 8, 50, 0
10, 248872, Note_on_c, 8, 50, 105
10, 249040, Note_on_c, 8, 50, 0
10, 249112, Note_on_c, 8, 50, 105
10, 249280, Note_on_c, 8, 50, 0
10, 249352, Note_on_c, 8, 50, 105
10, 249520, Note_on_c, 8, 50, 0
10, 249592, Note_on_c, 8, 43, 105
10, 250072, Note_on_c, 8, 43, 0
10, 250072, Note_on_c, 8, 55, 70
10, 250552, Note_on_c, 8, 54, 70
10, 250626, Note_on_c, 8, 55, 0
10, 251032, Note_on_c, 8, 52, 70
10, 251101, Note_on_c, 8, 54, 0
10, 251471, Note_on_c, 8, 52, 0
10, 251512, Note_on_c, 8, 51, 105
10, 251756, Note_on_c, 8, 51, 0
10, 251992, Note_on_c, 8, 52, 70
10, 252472, Note_on_c, 8, 50, 70
10, 252541, Note_on_c, 8, 52, 0
10, 252952, Note_on_c, 8, 48, 70
10, 253021, Note_on_c, 8, 50, 0
10, 253381, Note_on_c, 8, 48, 0
10, 253432, Note_on_c, 8, 47, 105
10, 253681, Note_on_c, 8, 47, 0
10, 253912, Note_on_c, 8, 48, 70
10, 254392, Note_on_c, 8, 47, 70
10, 254456, Note_on_c, 8, 48, 0
10, 254872, Note_on_c, 8, 45, 70
10, 254951, Note_on_c, 8, 47, 0
10, 255296, Note_on_c, 8, 45, 0
10, 255352, Note_on_c, 8, 44, 105
10, 255832, Note_on_c, 8, 44, 0
10, 256312, Note_on_c, 8, 44, 70
10, 256792, Note_on_c, 8, 44, 0
10, 257272, Note_on_c, 8, 45, 70
10, 257752, Note_on_c, 8, 45, 0
10, 258232, Note_on_c, 8, 45, 70
10, 258712, Note_on_c, 8, 45, 0
10, 259192, Note_on_c, 8, 47, 70
10, 259672, Note_on_c, 8, 47, 0
10, 260152, Note_on_c, 8, 47, 70
10, 260632, Note_on_c, 8, 47, 0
10, 261112, Note_on_c, 8, 48, 70
10, 261592, Note_on_c, 8, 48, 0
10, 262072, Note_on_c, 8, 48, 70
10, 262552, Note_on_c, 8, 48, 0
10, 263032, Note_on_c, 8, 50, 70
10, 263992, Note_on_c, 8, 50, 0
10, 263992, Note_on_c, 8, 52, 70
10, 264472, Note_on_c, 8, 52, 0
10, 264472, Note_on_c, 8, 52, 70
10, 264952, Note_on_c, 8, 52, 0
10, 264952, Note_on_c, 8, 57, 70
10, 265144, Note_on_c, 8, 57, 0
10, 265432, Note_on_c, 8, 59, 70
10, 265624, Note_on_c, 8, 59, 0
10, 265912, Note_on_c, 8, 60, 70
10, 266104, Note_on_c, 8, 60, 0
10, 266872, Note_on_c, 8, 62, 70
10, 267832, Note_on_c, 8, 62, 0
10, 267832, Note_on_c, 8, 64, 70
10, 268312, Note_on_c, 8, 64, 0
10, 268312, Note_on_c, 8, 52, 70
10, 268792, Note_on_c, 8, 52, 0
10, 268792, Note_on_c, 8, 57, 105
10, 268984, Note_on_c, 8, 57, 0
10, 269272, Note_on_c, 8, 60, 70
10, 269752, Note_on_c, 8, 59, 70
10, 269846, Note_on_c, 8, 60, 0
10, 270232, Note_on_c, 8, 57, 70
10, 270301, Note_on_c, 8, 59, 0
10, 270676, Note_on_c, 8, 57, 0
10, 270712, Note_on_c, 8, 56, 105
10, 270904, Note_on_c, 8, 56, 0
10, 271192, Note_on_c, 8, 57, 70
10, 271672, Note_on_c, 8, 55, 70
10, 271741, Note_on_c, 8, 57, 0
10, 272152, Note_on_c, 8, 53, 70
10, 272221, Note_on_c, 8, 55, 0
10, 272591, Note_on_c, 8, 53, 0
10, 272632, Note_on_c, 8, 52, 105
10, 272824, Note_on_c, 8, 52, 0
10, 273112, Note_on_c, 8, 53, 70
10, 273592, Note_on_c, 8, 52, 70
10, 273676, Note_on_c, 8, 53, 0
10, 274072, Note_on_c, 8, 50, 70
10, 274141, Note_on_c, 8, 52, 0
10, 274516, Note_on_c, 8, 50, 0
10, 274552, Note_on_c, 8, 49, 105
10, 275032, Note_on_c, 8, 49, 0
10, 275512, Note_on_c, 8, 49, 70
10, 275992, Note_on_c, 8, 49, 0
10, 276472, Note_on_c, 8, 50, 70
10, 276952, Note_on_c, 8, 50, 0
10, 277432, Note_on_c, 8, 50, 70
10, 277912, Note_on_c, 8, 50, 0
10, 278392, Note_on_c, 8, 52, 70
10, 278872, Note_on_c, 8, 52, 0
10, 279352, Note_on_c, 8, 52, 70
10, 279832, Note_on_c, 8, 52, 0
10, 280312, Note_on_c, 8, 53, 70
10, 280792, Note_on_c, 8, 53, 0
10, 281272, Note_on_c, 8, 53, 70
10, 281752, Note_on_c, 8, 53, 0
10, 282232, Note_on_c, 8, 55, 70
10, 283192, Note_on_c, 8, 55, 0
10, 283192, Note_on_c, 8, 57, 70
10, 283672, Note_on_c, 8, 57, 0
10, 283672, Note_on_c, 8, 57, 70
10, 284152, Note_on_c, 8, 57, 0
10, 284152, Note_on_c, 8, 50, 70
10, 284344, Note_on_c, 8, 50, 0
10, 284632, Note_on_c, 8, 52, 70
10, 284824, Note_on_c, 8, 52, 0
10, 285112, Note_on_c, 8, 53, 70
10, 285304, Note_on_c, 8, 53, 0
10, 286072, Note_on_c, 8, 58, 70
10, 287032, Note_on_c, 8, 58, 0
10, 287032, Note_on_c, 8, 57, 70
10, 287512, Note_on_c, 8, 57, 0
10, 287512, Note_on_c, 8, 45, 70
10, 287992, Note_on_c, 8, 45, 0
10, 287992, Note_on_c, 8, 50, 70
10, 288472, Note_on_c, 8, 50, 0
10, 318712, Note_on_c, 8, 55, 70
10, 319192, Note_on_c, 8, 55, 0
10, 319672, Note_on_c, 8, 55, 70
10, 320152, Note_on_c, 8, 55, 0
10, 320632, Note_on_c, 8, 55, 80
10, 321112, Note_on_c, 8, 55, 0
10, 321592, Note_on_c, 8, 55, 90
10, 322072, Note_on_c, 8, 55, 0
10, 322552, Note_on_c, 8, 55, 105
10, 323032, Note_on_c, 8, 55, 0
10, 323512, Note_on_c, 8, 55, 105
10, 323992, Note_on_c, 8, 55, 0
10, 324472, Note_on_c, 8, 60, 105
10, 325156, Note_on_c, 8, 60, 0
10, 325192, Note_on_c, 8, 55, 105
10, 325420, Note_on_c, 8, 55, 0
10, 325432, Note_on_c, 8, 52, 105
10, 325660, Note_on_c, 8, 52, 0
10, 325672, Note_on_c, 8, 48, 105
10, 325900, Note_on_c, 8, 48, 0
10, 325912, Note_on_c, 8, 52, 105
10, 326140, Note_on_c, 8, 52, 0
10, 326152, Note_on_c, 8, 55, 105
10, 326380, Note_on_c, 8, 55, 0
10, 326392, Note_on_c, 8, 60, 105
10, 327076, Note_on_c, 8, 60, 0
10, 327112, Note_on_c, 8, 55, 105
10, 327340, Note_on_c, 8, 55, 0
10, 327352, Note_on_c, 8, 52, 105
10, 327580, Note_on_c, 8, 52, 0
10, 327592, Note_on_c, 8, 48, 105
10, 327820, Note_on_c, 8, 48, 0
10, 327832, Note_on_c, 8, 52, 105
10, 328060, Note_on_c, 8, 52, 0
10, 328072, Note_on_c, 8, 55, 105
10, 328300, Note_on_c, 8, 55, 0
10, 328312, Note_on_c, 8, 60, 105
10, 328792, Note_on_c, 8, 60, 0
10, 328792, Note_on_c, 8, 48, 70
10, 329272, Note_on_c, 8, 47, 70
10, 329341, Note_on_c, 8, 48, 0
10, 329752, Note_on_c, 8, 48, 70
10, 329821, Note_on_c, 8, 47, 0
10, 330196, Note_on_c, 8, 48, 0
10, 330232, Note_on_c, 8, 50, 105
10, 330424, Note_on_c, 8, 50, 0
10, 330712, Note_on_c, 8, 50, 70
10, 331192, Note_on_c, 8, 49, 70
10, 331261, Note_on_c, 8, 50, 0
10, 331672, Note_on_c, 8, 50, 70
10, 331741, Note_on_c, 8, 49, 0
10, 332106, Note_on_c, 8, 50, 0
10, 332152, Note_on_c, 8, 52, 105
10, 332344, Note_on_c, 8, 52, 0
10, 332632, Note_on_c, 8, 52, 70
10, 333112, Note_on_c, 8, 51, 70
10, 333171, Note_on_c, 8, 52, 0
10, 333592, Note_on_c, 8, 52, 70
10, 333671, Note_on_c, 8, 51, 0
10, 334026, Note_on_c, 8, 52, 0
10, 334072, Note_on_c, 8, 53, 70
10, 334552, Note_on_c, 8, 55, 80
10, 334611, Note_on_c, 8, 53, 0
10, 335032, Note_on_c, 8, 57, 90
10, 335091, Note_on_c, 8, 55, 0
10, 335512, Note_on_c, 8, 59, 90
10, 335591, Note_on_c, 8, 57, 0
10, 335951, Note_on_c, 8, 59, 0
10, 335992, Note_on_c, 8, 60, 105
10, 336472, Note_on_c, 8, 60, 0
10, 361192, Note_on_c, 8, 55, 105
10, 361288, Note_on_c, 8, 55, 0
10, 361432, Note_on_c, 8, 59, 105
10, 361528, Note_on_c, 8, 59, 0
10, 361672, Note_on_c, 8, 55, 105
10, 361768, Note_on_c, 8, 55, 0
10, 361912, Note_on_c, 8, 50, 105
10, 362008, Note_on_c, 8, 50, 0
10, 362152, Note_on_c, 8, 55, 105
10, 362248, Note_on_c, 8, 55, 0
10, 362392, Note_on_c, 8, 47, 105
10, 362488, Note_on_c, 8, 47, 0
10, 362632, Note_on_c, 8, 50, 105
10, 362728, Note_on_c, 8, 50, 0
10, 362872, Note_on_c, 8, 43, 105
10, 363352, Note_on_c, 8, 43, 0
10, 382072, Note_on_c, 8, 53, 70
10, 383471, Note_on_c, 8, 53, 0
10, 383512, Note_on_c, 8, 49, 70
10, 383971, Note_on_c, 8, 49, 0
10, 383992, Note_on_c, 8, 50, 70
10, 384472, Note_on_c, 8, 52, 70
10, 384531, Note_on_c, 8, 50, 0
10, 384952, Note_on_c, 8, 53, 70
10, 385041, Note_on_c, 8, 52, 0
10, 385432, Note_on_c, 8, 54, 70
10, 385511, Note_on_c, 8, 53, 0
10, 385846, Note_on_c, 8, 54, 0
10, 385912, Note_on_c, 8, 55, 70
10, 386392, Note_on_c, 8, 55, 0
10, 387832, Control_c, 8, 0, 0
10, 387832, Control_c, 8, 32, 0
10, 387832, Program_c, 8, 45
10, 389752, Note_on_c, 8, 48, 70
10, 389992, Note_on_c, 8, 48, 0
10, 390232, Note_on_c, 8, 60, 70
10, 390472, Note_on_c, 8, 60, 0
10, 390712, Note_on_c, 8, 55, 70
10, 390952, Note_on_c, 8, 55, 0
10, 391192, Note_on_c, 8, 52, 70
10, 391432, Note_on_c, 8, 52, 0
10, 391672, Note_on_c, 8, 48, 70
10, 391912, Note_on_c, 8, 48, 0
10, 392152, Note_on_c, 8, 52, 70
10, 392392, Note_on_c, 8, 52, 0
10, 392632, Note_on_c, 8, 55, 70
10, 392872, Note_on_c, 8, 55, 0
10, 393112, Note_on_c, 8, 60, 70
10, 393352, Note_on_c, 8, 60, 0
10, 393592, Note_on_c, 8, 55, 70
10, 394072, Note_on_c, 8, 55, 0
10, 397432, Note_on_c, 8, 48, 70
10, 397672, Note_on_c, 8, 48, 0
10, 397912, Note_on_c, 8, 60, 70
10, 398152, Note_on_c, 8, 60, 0
10, 398392, Note_on_c, 8, 55, 70
10, 398632, Note_on_c, 8, 55, 0
10, 398872, Note_on_c, 8, 52, 70
10, 399112, Note_on_c, 8, 52, 0
10, 399352, Note_on_c, 8, 48, 70
10, 399592, Note_on_c, 8, 48, 0
10, 399832, Note_on_c, 8, 52, 70
10, 400072, Note_on_c, 8, 52, 0
10, 400312, Note_on_c, 8, 55, 70
10, 400552, Note_on_c, 8, 55, 0
10, 400792, Note_on_c, 8, 60, 70
10, 401032, Note_on_c, 8, 60, 0
10, 401037, Control_c, 8, 0, 0
10, 401037, Control_c, 8, 0, 0
10, 401037, Control_c, 8, 0, 0
10, 401037, Control_c, 8, 0, 0
10, 401037, Control_c, 8, 0, 0
10, 401037, Control_c, 8, 0, 0
10, 401037, Control_c, 8, 0, 0
10, 401037, Control_c, 8, 0, 0
10, 401037, Control_c, 8, 0, 0
10, 401037, Control_c, 8, 0, 0
10, 401037, Control_c, 8, 0, 0
10, 401037, Control_c, 8, 0, 0
10, 401037, Control_c, 8, 0, 0
10, 401037, Control_c, 8, 32, 0
10, 401037, Program_c, 8, 48
10, 401272, Note_on_c, 8, 55, 105
10, 401512, Note_on_c, 8, 55, 0
10, 401512, Note_on_c, 8, 59, 105
10, 401752, Note_on_c, 8, 59, 0
10, 401752, Note_on_c, 8, 62, 105
10, 401992, Note_on_c, 8, 62, 0
10, 401992, Note_on_c, 8, 55, 105
10, 402232, Note_on_c, 8, 55, 0
10, 402232, Note_on_c, 8, 60, 105
10, 402472, Note_on_c, 8, 60, 0
10, 402472, Note_on_c, 8, 55, 105
10, 402712, Note_on_c, 8, 55, 0
10, 402712, Note_on_c, 8, 52, 105
10, 402952, Note_on_c, 8, 52, 0
10, 402952, Note_on_c, 8, 48, 105
10, 403192, Note_on_c, 8, 48, 0
10, 403192, Note_on_c, 8, 55, 105
10, 403432, Note_on_c, 8, 55, 0
10, 403432, Note_on_c, 8, 59, 105
10, 403672, Note_on_c, 8, 59, 0
10, 403672, Note_on_c, 8, 62, 105
10, 403912, Note_on_c, 8, 62, 0
10, 403912, Note_on_c, 8, 55, 105
10, 404152, Note_on_c, 8, 55, 0
10, 404152, Note_on_c, 8, 60, 105
10, 404392, Note_on_c, 8, 60, 0
10, 404392, Note_on_c, 8, 55, 105
10, 404632, Note_on_c, 8, 55, 0
10, 404632, Note_on_c, 8, 52, 105
10, 404872, Note_on_c, 8, 52, 0
10, 404872, Note_on_c, 8, 48, 105
10, 405112, Note_on_c, 8, 48, 0
10, 405112, Note_on_c, 8, 43, 105
10, 405592, Note_on_c, 8, 43, 0
10, 405592, Note_on_c, 8, 55, 105
10, 406072, Note_on_c, 8, 55, 0
10, 406072, Note_on_c, 8, 43, 105
10, 406552, Note_on_c, 8, 43, 0
10, 408952, Control_c, 8, 0, 0
10, 408952, Control_c, 8, 32, 0
10, 408952, Program_c, 8, 45
10, 410872, Note_on_c, 8, 48, 70
10, 411352, Note_on_c, 8, 48, 0
10, 411832, Note_on_c, 8, 52, 70
10, 412312, Note_on_c, 8, 52, 0
10, 412792, Note_on_c, 8, 50, 70
10, 413272, Note_on_c, 8, 50, 0
10, 413752, Note_on_c, 8, 43, 70
10, 414232, Note_on_c, 8, 43, 0
10, 414712, Note_on_c, 8, 48, 70
10, 415192, Note_on_c, 8, 48, 0
10, 415672, Note_on_c, 8, 52, 70
10, 416152, Note_on_c, 8, 52, 0
10, 416632, Note_on_c, 8, 50, 70
10, 417112, Note_on_c, 8, 50, 0
10, 417592, Note_on_c, 8, 43, 70
10, 418072, Note_on_c, 8, 43, 0
10, 418552, Note_on_c, 8, 48, 70
10, 419032, Note_on_c, 8, 48, 0
10, 419512, Note_on_c, 8, 48, 70
10, 419992, Note_on_c, 8, 48, 0
10, 420472, Note_on_c, 8, 48, 70
10, 420952, Note_on_c, 8, 48, 0
10, 421432, Note_on_c, 8, 48, 70
10, 421912, Note_on_c, 8, 48, 0
10, 422392, Note_on_c, 8, 48, 70
10, 422872, Note_on_c, 8, 48, 0
10, 423352, Note_on_c, 8, 48, 70
10, 423832, Note_on_c, 8, 48, 0
10, 424312, Control_c, 8, 0, 0
10, 424312, Control_c, 8, 32, 0
10, 424312, Program_c, 8, 48
10, 428152, Note_on_c, 8, 50, 70
10, 429112, Note_on_c, 8, 55, 70
10, 429186, Note_on_c, 8, 50, 0
10, 429991, Note_on_c, 8, 55, 0
10, 430072, Note_on_c, 8, 48, 70
10, 431032, Note_on_c, 8, 57, 70
10, 431116, Note_on_c, 8, 48, 0
10, 431921, Note_on_c, 8, 57, 0
10, 431992, Note_on_c, 8, 53, 70
10, 432952, Note_on_c, 8, 55, 70
10, 433036, Note_on_c, 8, 53, 0
10, 433846, Note_on_c, 8, 55, 0
10, 433912, Note_on_c, 8, 48, 69
10, 434008, Note_on_c, 8, 48, 0
10, 434152, Note_on_c, 8, 50, 72
10, 434248, Note_on_c, 8, 50, 0
10, 434392, Note_on_c, 8, 52, 75
10, 434488, Note_on_c, 8, 52, 0
10, 434632, Note_on_c, 8, 53, 79
10, 434728, Note_on_c, 8, 53, 0
10, 434872, Note_on_c, 8, 55, 82
10, 435352, Note_on_c, 8, 55, 0
10, 441592, Note_on_c, 8, 48, 70
10, 442072, Note_on_c, 8, 48, 0
10, 462712, Note_on_c, 8, 55, 70
10, 463192, Note_on_c, 8, 55, 0
10, 463672, Note_on_c, 8, 55, 70
10, 464152, Note_on_c, 8, 55, 0
10, 464632, Note_on_c, 8, 55, 71
10, 464800, Note_on_c, 8, 55, 0
10, 464872, Note_on_c, 8, 55, 75
10, 465040, Note_on_c, 8, 55, 0
10, 465112, Note_on_c, 8, 55, 79
10, 465280, Note_on_c, 8, 55, 0
10, 465352, Note_on_c, 8, 55, 84
10, 465520, Note_on_c, 8, 55, 0
10, 465592, Note_on_c, 8, 55, 88
10, 465760, Note_on_c, 8, 55, 0
10, 465832, Note_on_c, 8, 55, 92
10, 466000, Note_on_c, 8, 55, 0
10, 466072, Note_on_c, 8, 55, 97
10, 466240, Note_on_c, 8, 55, 0
10, 466312, Note_on_c, 8, 55, 101
10, 466480, Note_on_c, 8, 55, 0
10, 466552, Note_on_c, 8, 48, 105
10, 467008, Note_on_c, 8, 48, 0
10, 467512, Note_on_c, 8, 60, 105
10, 468196, Note_on_c, 8, 60, 0
10, 468232, Note_on_c, 8, 55, 105
10, 468460, Note_on_c, 8, 55, 0
10, 468472, Note_on_c, 8, 52, 105
10, 468700, Note_on_c, 8, 52, 0
10, 468712, Note_on_c, 8, 48, 105
10, 468940, Note_on_c, 8, 48, 0
10, 468952, Note_on_c, 8, 52, 105
10, 469180, Note_on_c, 8, 52, 0
10, 469192, Note_on_c, 8, 55, 105
10, 469420, Note_on_c, 8, 55, 0
10, 469432, Note_on_c, 8, 60, 105
10, 470116, Note_on_c, 8, 60, 0
10, 470152, Note_on_c, 8, 55, 105
10, 470380, Note_on_c, 8, 55, 0
10, 470392, Note_on_c, 8, 52, 105
10, 470632, Note_on_c, 8, 52, 0
10, 470632, Note_on_c, 8, 48, 105
10, 470872, Note_on_c, 8, 48, 0
10, 470872, Note_on_c, 8, 52, 105
10, 471112, Note_on_c, 8, 52, 0
10, 471112, Note_on_c, 8, 55, 105
10, 471352, Note_on_c, 8, 55, 0
10, 471352, Note_on_c, 8, 60, 105
10, 471592, Note_on_c, 8, 60, 0
10, 471592, Note_on_c, 8, 57, 105
10, 471832, Note_on_c, 8, 57, 0
10, 471832, Note_on_c, 8, 60, 105
10, 472072, Note_on_c, 8, 60, 0
10, 472072, Note_on_c, 8, 64, 105
10, 472312, Note_on_c, 8, 64, 0
10, 472312, Note_on_c, 8, 57, 105
10, 472552, Note_on_c, 8, 57, 0
10, 472552, Note_on_c, 8, 53, 105
10, 472792, Note_on_c, 8, 53, 0
10, 472792, Note_on_c, 8, 57, 105
10, 473032, Note_on_c, 8, 57, 0
10, 473032, Note_on_c, 8, 60, 105
10, 473272, Note_on_c, 8, 60, 0
10, 473272, Note_on_c, 8, 53, 105
10, 473512, Note_on_c, 8, 53, 0
10, 473512, Note_on_c, 8, 50, 105
10, 473752, Note_on_c, 8, 50, 0
10, 473752, Note_on_c, 8, 53, 105
10, 473992, Note_on_c, 8, 53, 0
10, 473992, Note_on_c, 8, 57, 105
10, 474232, Note_on_c, 8, 57, 0
10, 474232, Note_on_c, 8, 53, 105
10, 474472, Note_on_c, 8, 53, 0
10, 474472, Note_on_c, 8, 49, 105
10, 474712, Note_on_c, 8, 49, 0
10, 474712, Note_on_c, 8, 50, 105
10, 474952, Note_on_c, 8, 50, 0
10, 474952, Note_on_c, 8, 52, 105
10, 475192, Note_on_c, 8, 52, 0
10, 475192, Note_on_c, 8, 53, 105
10, 475432, Note_on_c, 8, 53, 0
10, 475432, Note_on_c, 8, 53, 105
10, 475672, Note_on_c, 8, 53, 0
10, 475672, Note_on_c, 8, 54, 105
10, 475912, Note_on_c, 8, 54, 0
10, 475912, Note_on_c, 8, 54, 105
10, 476152, Note_on_c, 8, 54, 0
10, 476152, Note_on_c, 8, 55, 105
10, 476392, Note_on_c, 8, 55, 0
10, 476392, Note_on_c, 8, 59, 105
10, 476632, Note_on_c, 8, 59, 0
10, 476632, Note_on_c, 8, 62, 105
10, 476872, Note_on_c, 8, 62, 0
10, 476872, Note_on_c, 8, 55, 105
10, 477112, Note_on_c, 8, 55, 0
10, 477112, Note_on_c, 8, 60, 105
10, 477352, Note_on_c, 8, 60, 0
10, 477352, Note_on_c, 8, 55, 105
10, 477592, Note_on_c, 8, 55, 0
10, 477592, Note_on_c, 8, 52, 105
10, 477832, Note_on_c, 8, 52, 0
10, 477832, Note_on_c, 8, 48, 105
10, 478072, Note_on_c, 8, 48, 0
10, 478072, Note_on_c, 8, 55, 105
10, 478312, Note_on_c, 8, 55, 0
10, 478312, Note_on_c, 8, 59, 105
10, 478552, Note_on_c, 8, 59, 0
10, 478552, Note_on_c, 8, 62, 105
10, 478792, Note_on_c, 8, 62, 0
10, 478792, Note_on_c, 8, 55, 105
10, 479032, Note_on_c, 8, 55, 0
10, 479032, Note_on_c, 8, 60, 105
10, 479272, Note_on_c, 8, 60, 0
10, 479272, Note_on_c, 8, 55, 105
10, 479512, Note_on_c, 8, 55, 0
10, 479512, Note_on_c, 8, 52, 105
10, 479752, Note_on_c, 8, 52, 0
10, 479752, Note_on_c, 8, 48, 105
10, 479992, Note_on_c, 8, 48, 0
10, 479992, Note_on_c, 8, 43, 119
10, 480472, Note_on_c, 8, 43, 0
10, 481912, Note_on_c, 8, 48, 105
10, 482080, Note_on_c, 8, 48, 0
10, 482152, Note_on_c, 8, 60, 105
10, 482320, Note_on_c, 8, 60, 0
10, 482392, Note_on_c, 8, 60, 105
10, 482560, Note_on_c, 8, 60, 0
10, 482632, Note_on_c, 8, 60, 105
10, 482800, Note_on_c, 8, 60, 0
10, 482872, Note_on_c, 8, 60, 105
10, 483040, Note_on_c, 8, 60, 0
10, 483112, Note_on_c, 8, 60, 105
10, 483280, Note_on_c, 8, 60, 0
10, 483352, Note_on_c, 8, 60, 105
10, 483520, Note_on_c, 8, 60, 0
10, 483592, Note_on_c, 8, 60, 105
10, 483760, Note_on_c, 8, 60, 0
10, 483832, Note_on_c, 8, 60, 105
10, 484000, Note_on_c, 8, 60, 0
10, 484072, Note_on_c, 8, 60, 105
10, 484240, Note_on_c, 8, 60, 0
10, 484312, Note_on_c, 8, 60, 105
10, 484480, Note_on_c, 8, 60, 0
10, 484552, Note_on_c, 8, 60, 105
10, 484720, Note_on_c, 8, 60, 0
10, 484792, Note_on_c, 8, 60, 105
10, 484960, Note_on_c, 8, 60, 0
10, 485032, Note_on_c, 8, 60, 105
10, 485200, Note_on_c, 8, 60, 0
10, 485272, Note_on_c, 8, 60, 105
10, 485440, Note_on_c, 8, 60, 0
10, 485512, Note_on_c, 8, 60, 105
10, 485680, Note_on_c, 8, 60, 0
10, 485752, Note_on_c, 8, 60, 105
10, 485920, Note_on_c, 8, 60, 0
10, 485992, Note_on_c, 8, 48, 70
10, 486160, Note_on_c, 8, 48, 0
10, 486232, Note_on_c, 8, 48, 70
10, 486400, Note_on_c, 8, 48, 0
10, 486472, Note_on_c, 8, 48, 70
10, 486640, Note_on_c, 8, 48, 0
10, 486712, Note_on_c, 8, 48, 70
10, 486880, Note_on_c, 8, 48, 0
10, 486952, Note_on_c, 8, 48, 70
10, 487120, Note_on_c, 8, 48, 0
10, 487192, Note_on_c, 8, 48, 70
10, 487360, Note_on_c, 8, 48, 0
10, 487432, Note_on_c, 8, 48, 70
10, 487600, Note_on_c, 8, 48, 0
10, 487672, Note_on_c, 8, 48, 70
10, 487840, Note_on_c, 8, 48, 0
10, 487912, Note_on_c, 8, 48, 70
10, 488080, Note_on_c, 8, 48, 0
10, 488152, Note_on_c, 8, 48, 70
10, 488320, Note_on_c, 8, 48, 0
10, 488392, Note_on_c, 8, 48, 70
10, 488560, Note_on_c, 8, 48, 0
10, 488632, Note_on_c, 8, 48, 70
10, 488800, Note_on_c, 8, 48, 0
10, 488872, Note_on_c, 8, 60, 105
10, 489040, Note_on_c, 8, 60, 0
10, 489112, Note_on_c, 8, 60, 105
10, 489280, Note_on_c, 8, 60, 0
10, 489352, Note_on_c, 8, 60, 105
10, 489520, Note_on_c, 8, 60, 0
10, 489592, Note_on_c, 8, 59, 105
10, 489832, Note_on_c, 8, 59, 0
10, 489832, Note_on_c, 8, 62, 105
10, 490072, Note_on_c, 8, 62, 0
10, 490072, Note_on_c, 8, 59, 105
10, 490312, Note_on_c, 8, 59, 0
10, 490312, Note_on_c, 8, 55, 105
10, 490552, Note_on_c, 8, 55, 0
10, 490552, Note_on_c, 8, 53, 105
10, 490792, Note_on_c, 8, 53, 0
10, 490792, Note_on_c, 8, 50, 105
10, 491032, Note_on_c, 8, 50, 0
10, 491032, Note_on_c, 8, 47, 105
10, 491272, Note_on_c, 8, 47, 0
10, 491272, Note_on_c, 8, 43, 105
10, 491512, Note_on_c, 8, 43, 0
10, 491512, Note_on_c, 8, 48, 105
10, 491752, Note_on_c, 8, 48, 0
10, 491752, Note_on_c, 8, 64, 105
10, 491992, Note_on_c, 8, 64, 0
10, 491992, Note_on_c, 8, 60, 105
10, 492232, Note_on_c, 8, 60, 0
10, 492232, Note_on_c, 8, 56, 105
10, 492472, Note_on_c, 8, 56, 0
10, 492472, Note_on_c, 8, 57, 105
10, 492712, Note_on_c, 8, 57, 0
10, 492712, Note_on_c, 8, 60, 105
10, 492952, Note_on_c, 8, 60, 0
10, 492952, Note_on_c, 8, 57, 105
10, 493192, Note_on_c, 8, 57, 0
10, 493192, Note_on_c, 8, 52, 105
10, 493432, Note_on_c, 8, 52, 0
10, 493432, Note_on_c, 8, 53, 105
10, 493600, Note_on_c, 8, 53, 0
10, 493672, Note_on_c, 8, 53, 105
10, 493840, Note_on_c, 8, 53, 0
10, 493912, Note_on_c, 8, 53, 105
10, 494080, Note_on_c, 8, 53, 0
10, 494152, Note_on_c, 8, 53, 105
10, 494320, Note_on_c, 8, 53, 0
10, 494392, Note_on_c, 8, 55, 105
10, 494560, Note_on_c, 8, 55, 0
10, 494632, Note_on_c, 8, 55, 105
10, 494800, Note_on_c, 8, 55, 0
10, 494872, Note_on_c, 8, 55, 105
10, 495040, Note_on_c, 8, 55, 0
10, 495112, Note_on_c, 8, 55, 105
10, 495280, Note_on_c, 8, 55, 0
10, 495352, Note_on_c, 8, 52, 105
10, 495520, Note_on_c, 8, 52, 0
10, 495592, Note_on_c, 8, 52, 105
10, 495760, Note_on_c, 8, 52, 0
10, 495832, Note_on_c, 8, 52, 105
10, 496000, Note_on_c, 8, 52, 0
10, 496072, Note_on_c, 8, 52, 105
10, 496240, Note_on_c, 8, 52, 0
10, 496312, Note_on_c, 8, 53, 105
10, 496480, Note_on_c, 8, 53, 0
10, 496552, Note_on_c, 8, 53, 105
10, 496720, Note_on_c, 8, 53, 0
10, 496792, Note_on_c, 8, 53, 105
10, 496960, Note_on_c, 8, 53, 0
10, 497032, Note_on_c, 8, 53, 105
10, 497200, Note_on_c, 8, 53, 0
10, 497272, Note_on_c, 8, 55, 105
10, 497440, Note_on_c, 8, 55, 0
10, 497512, Note_on_c, 8, 55, 105
10, 497680, Note_on_c, 8, 55, 0
10, 497752, Note_on_c, 8, 55, 105
10, 497920, Note_on_c, 8, 55, 0
10, 497992, Note_on_c, 8, 55, 105
10, 498160, Note_on_c, 8, 55, 0
10, 498232, Note_on_c, 8, 55, 105
10, 498400, Note_on_c, 8, 55, 0
10, 498472, Note_on_c, 8, 55, 105
10, 498640, Note_on_c, 8, 55, 0
10, 498712, Note_on_c, 8, 43, 105
10, 498880, Note_on_c, 8, 43, 0
10, 498952, Note_on_c, 8, 43, 105
10, 499120, Note_on_c, 8, 43, 0
10, 499192, Note_on_c, 8, 48, 105
10, 499432, Note_on_c, 8, 48, 0
10, 499432, Note_on_c, 8, 52, 105
10, 499672, Note_on_c, 8, 52, 0
10, 499672, Note_on_c, 8, 55, 105
10, 499912, Note_on_c, 8, 55, 0
10, 499912, Note_on_c, 8, 52, 105
10, 500152, Note_on_c, 8, 52, 0
10, 500152, Note_on_c, 8, 48, 105
10, 500392, Note_on_c, 8, 48, 0
10, 500392, Note_on_c, 8, 52, 105
10, 500632, Note_on_c, 8, 52, 0
10, 500632, Note_on_c, 8, 55, 105
10, 500872, Note_on_c, 8, 55, 0
10, 500872, Note_on_c, 8, 52, 105
10, 501112, Note_on_c, 8, 52, 0
10, 501112, Note_on_c, 8, 48, 105
10, 501352, Note_on_c, 8, 48, 0
10, 501352, Note_on_c, 8, 52, 105
10, 501592, Note_on_c, 8, 52, 0
10, 501592, Note_on_c, 8, 55, 105
10, 501832, Note_on_c, 8, 55, 0
10, 501832, Note_on_c, 8, 52, 105
10, 502072, Note_on_c, 8, 52, 0
10, 502072, Note_on_c, 8, 48, 105
10, 502312, Note_on_c, 8, 48, 0
10, 502312, Note_on_c, 8, 52, 105
10, 502552, Note_on_c, 8, 52, 0
10, 502552, Note_on_c, 8, 55, 105
10, 502792, Note_on_c, 8, 55, 0
10, 502792, Note_on_c, 8, 52, 105
10, 503032, Note_on_c, 8, 52, 0
10, 503032, Note_on_c, 8, 60, 105
10, 503716, Note_on_c, 8, 60, 0
10, 503752, Note_on_c, 8, 55, 105
10, 503980, Note_on_c, 8, 55, 0
10, 503992, Note_on_c, 8, 52, 105
10, 504220, Note_on_c, 8, 52, 0
10, 504232, Note_on_c, 8, 48, 105
10, 504460, Note_on_c, 8, 48, 0
10, 504472, Note_on_c, 8, 52, 105
10, 504700, Note_on_c, 8, 52, 0
10, 504712, Note_on_c, 8, 55, 105
10, 504940, Note_on_c, 8, 55, 0
10, 504952, Note_on_c, 8, 60, 105
10, 505636, Note_on_c, 8, 60, 0
10, 505672, Note_on_c, 8, 55, 105
10, 505900, Note_on_c, 8, 55, 0
10, 505912, Note_on_c, 8, 52, 105
10, 506140, Note_on_c, 8, 52, 0
10, 506152, Note_on_c, 8, 48, 105
10, 506380, Note_on_c, 8, 48, 0
10, 506392, Note_on_c, 8, 52, 105
10, 506620, Note_on_c, 8, 52, 0
10, 506632, Note_on_c, 8, 55, 105
10, 506860, Note_on_c, 8, 55, 0
10, 506872, Note_on_c, 8, 60, 105
10, 507352, Note_on_c, 8, 60, 0
10, 507352, Note_on_c, 8, 60, 105
10, 507832, Note_on_c, 8, 60, 0
10, 507832, Note_on_c, 8, 55, 105
10, 508312, Note_on_c, 8, 55, 0
10, 508312, Note_on_c, 8, 52, 105
10, 508792, Note_on_c, 8, 52, 0
10, 508792, Note_on_c, 8, 48, 105
10, 509272, Note_on_c, 8, 48, 0
10, 510720, Note_on_c, 8, 53, 70
10, 510960, Note_on_c, 8, 53, 0
10, 511200, Note_on_c, 8, 53, 70
10, 511440, Note_on_c, 8, 53, 0
10, 511680, Note_on_c, 8, 53, 70
10, 511920, Note_on_c, 8, 53, 0
10, 512160, Note_on_c, 8, 48, 95
10, 513120, Note_on_c, 8, 41, 94
10, 513184, Note_on_c, 8, 48, 0
10, 513360, Note_on_c, 8, 41, 0
10, 515520, Note_on_c, 8, 53, 70
10, 516000, Note_on_c, 8, 41, 70
10, 516054, Note_on_c, 8, 53, 0
10, 516240, Note_on_c, 8, 41, 0
10, 516960, Note_on_c, 8, 62, 93
10, 517440, Note_on_c, 8, 58, 93
10, 517489, Note_on_c, 8, 62, 0
10, 517920, Note_on_c, 8, 58, 0
10, 518400, Note_on_c, 8, 60, 93
10, 518880, Note_on_c, 8, 57, 93
10, 518949, Note_on_c, 8, 60, 0
10, 519360, Note_on_c, 8, 57, 0
10, 519840, Note_on_c, 8, 58, 93
10, 520320, Note_on_c, 8, 55, 93
10, 520389, Note_on_c, 8, 58, 0
10, 520749, Note_on_c, 8, 55, 0
10, 520800, Note_on_c, 8, 60, 93
10, 521760, Note_on_c, 8, 60, 0
10, 521760, Note_on_c, 8, 53, 80
10, 522240, Note_on_c, 8, 53, 0
10, 522240, Note_on_c, 8, 58, 70
10, 522720, Note_on_c, 8, 60, 70
10, 522769, Note_on_c, 8, 58, 0
10, 523159, Note_on_c, 8, 60, 0
10, 523200, Note_on_c, 8, 48, 70
10, 523680, Note_on_c, 8, 48, 0
10, 523680, Note_on_c, 8, 53, 70
10, 524160, Note_on_c, 8, 53, 0
10, 525120, Note_on_c, 8, 50, 70
10, 525669, Note_on_c, 8, 50, 0
10, 526560, Note_on_c, 8, 41, 70
10, 527040, Note_on_c, 8, 41, 0
10, 538800, Note_on_c, 8, 60, 85
10, 538896, Note_on_c, 8, 60, 0
10, 539040, Note_on_c, 8, 55, 70
10, 539136, Note_on_c, 8, 55, 0
10, 539280, Note_on_c, 8, 52, 70
10, 539376, Note_on_c, 8, 52, 0
10, 539520, Note_on_c, 8, 48, 60
10, 539712, Note_on_c, 8, 48, 0
10, 544560, Note_on_c, 8, 60, 83
10, 544656, Note_on_c, 8, 60, 0
10, 544800, Note_on_c, 8, 55, 67
10, 544896, Note_on_c, 8, 55, 0
10, 545040, Note_on_c, 8, 52, 65
10, 545136, Note_on_c, 8, 52, 0
10, 545280, Note_on_c, 8, 48, 63
10, 545472, Note_on_c, 8, 48, 0
10, 554640, Note_on_c, 8, 53, 70
10, 554880, Note_on_c, 8, 52, 70
10, 554940, Note_on_c, 8, 53, 0
10, 555120, Note_on_c, 8, 50, 70
10, 555180, Note_on_c, 8, 52, 0
10, 555319, Note_on_c, 8, 50, 0
10, 555360, Note_on_c, 8, 48, 95
10, 556320, Note_on_c, 8, 48, 0
10, 558240, Note_on_c, 8, 55, 73
10, 558720, Note_on_c, 8, 53, 81
10, 558809, Note_on_c, 8, 55, 0
10, 559200, Note_on_c, 8, 52, 94
10, 559299, Note_on_c, 8, 53, 0
10, 559680, Note_on_c, 8, 50, 94
10, 559689, Note_on_c, 8, 52, 0
10, 560379, Note_on_c, 8, 50, 0
10, 560400, Note_on_c, 8, 50, 70
10, 560640, Note_on_c, 8, 50, 0
10, 560640, Note_on_c, 8, 47, 70
10, 560880, Note_on_c, 8, 47, 0
10, 560880, Note_on_c, 8, 43, 70
10, 561120, Note_on_c, 8, 43, 0
10, 561120, Note_on_c, 8, 48, 70
10, 561600, Note_on_c, 8, 48, 0
10, 565440, Note_on_c, 8, 48, 90
10, 566400, Note_on_c, 8, 48, 0
10, 568320, Note_on_c, 8, 41, 73
10, 568800, Note_on_c, 8, 42, 80
10, 568884, Note_on_c, 8, 41, 0
10, 569280, Note_on_c, 8, 43, 90
10, 569389, Note_on_c, 8, 42, 0
10, 569724, Note_on_c, 8, 43, 0
10, 569760, Note_on_c, 8, 45, 90
10, 570720, Note_on_c, 8, 47, 70
10, 570809, Note_on_c, 8, 45, 0
10, 571149, Note_on_c, 8, 47, 0
10, 571200, Note_on_c, 8, 48, 70
10, 571680, Note_on_c, 8, 48, 0
10, 572640, Note_on_c, 8, 48, 70
10, 572880, Note_on_c, 8, 48, 0
10, 573120, Note_on_c, 8, 52, 70
10, 573360, Note_on_c, 8, 52, 0
10, 573600, Note_on_c, 8, 55, 70
10, 573840, Note_on_c, 8, 55, 0
10, 574080, Note_on_c, 8, 60, 70
10, 574560, Note_on_c, 8, 60, 0
10, 575520, Note_on_c, 8, 48, 70
10, 575760, Note_on_c, 8, 48, 0
10, 576000, Note_on_c, 8, 52, 70
10, 576240, Note_on_c, 8, 52, 0
10, 576480, Note_on_c, 8, 55, 70
10, 576720, Note_on_c, 8, 55, 0
10, 576960, Note_on_c, 8, 60, 70
10, 577440, Note_on_c, 8, 60, 0
10, 585600, Note_on_c, 8, 48, 70
10, 592800, Note_on_c, 8, 41, 70
10, 592899, Note_on_c, 8, 48, 0
10, 593040, Note_on_c, 8, 41, 0
10, 603600, Note_on_c, 8, 60, 85
10, 603696, Note_on_c, 8, 60, 0
10, 603840, Note_on_c, 8, 55, 70
10, 603936, Note_on_c, 8, 55, 0
10, 604080, Note_on_c, 8, 52, 70
10, 604176, Note_on_c, 8, 52, 0
10, 604320, Note_on_c, 8, 48, 70
10, 604800, Note_on_c, 8, 48, 0
10, 609360, Note_on_c, 8, 58, 89
10, 609600, Note_on_c, 8, 57, 89
10, 609659, Note_on_c, 8, 58, 0
10, 609840, Note_on_c, 8, 55, 89
10, 609869, Note_on_c, 8, 57, 0
10, 610064, Note_on_c, 8, 55, 0
10, 610080, Note_on_c, 8, 53, 89
10, 610560, Note_on_c, 8, 53, 0
10, 611520, Note_on_c, 8, 52, 53
10, 612000, Note_on_c, 8, 52, 0
10, 612960, Note_on_c, 8, 48, 53
10, 613440, Note_on_c, 8, 48, 0
10, 614400, Note_on_c, 8, 53, 71
10, 614880, Note_on_c, 8, 53, 0
10, 615840, Note_on_c, 8, 50, 71
10, 616320, Note_on_c, 8, 50, 0
10, 617280, Note_on_c, 8, 48, 70
10, 617760, Note_on_c, 8, 48, 0
10, 619440, Note_on_c, 8, 58, 89
10, 619680, Note_on_c, 8, 57, 89
10, 619739, Note_on_c, 8, 58, 0
10, 619920, Note_on_c, 8, 55, 89
10, 619959, Note_on_c, 8, 57, 0
10, 620159, Note_on_c, 8, 55, 0
10, 620160, Note_on_c, 8, 53, 89
10, 621120, Note_on_c, 8, 53, 0
10, 623040, Note_on_c, 8, 60, 73
10, 623520, Note_on_c, 8, 58, 80
10, 623559, Note_on_c, 8, 60, 0
10, 624000, Note_on_c, 8, 57, 86
10, 624059, Note_on_c, 8, 58, 0
10, 624480, Note_on_c, 8, 57, 0
10, 624480, Note_on_c, 8, 55, 89
10, 625200, Note_on_c, 8, 55, 0
10, 625200, Note_on_c, 8, 55, 70
10, 625440, Note_on_c, 8, 55, 0
10, 625440, Note_on_c, 8, 52, 70
10, 625680, Note_on_c, 8, 52, 0
10, 625680, Note_on_c, 8, 48, 70
10, 625920, Note_on_c, 8, 48, 0
10, 625920, Note_on_c, 8, 53, 70
10, 626400, Note_on_c, 8, 53, 0
10, 630240, Note_on_c, 8, 53, 91
10, 631200, Note_on_c, 8, 53, 0
10, 633120, Note_on_c, 8, 47, 75
10, 633600, Note_on_c, 8, 48, 82
10, 633649, Note_on_c, 8, 47, 0
10, 634080, Note_on_c, 8, 41, 89
10, 634129, Note_on_c, 8, 48, 0
10, 634560, Note_on_c, 8, 41, 0
10, 634560, Note_on_c, 8, 46, 92
10, 635040, Note_on_c, 8, 43, 71
10, 635099, Note_on_c, 8, 46, 0
10, 635520, Note_on_c, 8, 48, 70
10, 635579, Note_on_c, 8, 43, 0
10, 636000, Note_on_c, 8, 48, 0
10, 636000, Note_on_c, 8, 41, 70
10, 636480, Note_on_c, 8, 41, 0
10, 637440, Note_on_c, 8, 41, 70
10, 637680, Note_on_c, 8, 41, 0
10, 637920, Note_on_c, 8, 45, 70
10, 638160, Note_on_c, 8, 45, 0
10, 638400, Note_on_c, 8, 48, 70
10, 638640, Note_on_c, 8, 48, 0
10, 638880, Note_on_c, 8, 53, 70
10, 639360, Note_on_c, 8, 53, 0
10, 640320, Note_on_c, 8, 53, 70
10, 640560, Note_on_c, 8, 53, 0
10, 640800, Note_on_c, 8, 57, 70
10, 641040, Note_on_c, 8, 57, 0
10, 641280, Note_on_c, 8, 60, 70
10, 641520, Note_on_c, 8, 60, 0
10, 641760, Note_on_c, 8, 53, 70
10, 642240, Note_on_c, 8, 53, 0
10, 650400, Note_on_c, 8, 48, 70
10, 650640, Note_on_c, 8, 48, 0
10, 650880, Note_on_c, 8, 48, 70
10, 651120, Note_on_c, 8, 48, 0
10, 651360, Note_on_c, 8, 48, 70
10, 651600, Note_on_c, 8, 48, 0
10, 651840, Note_on_c, 8, 48, 74
10, 652080, Note_on_c, 8, 48, 0
10, 652320, Note_on_c, 8, 48, 79
10, 652560, Note_on_c, 8, 48, 0
10, 652800, Note_on_c, 8, 48, 85
10, 653040, Note_on_c, 8, 48, 0
10, 653280, Note_on_c, 8, 41, 90
10, 653760, Note_on_c, 8, 41, 0
10, 656400, Note_on_c, 8, 45, 89
10, 656640, Note_on_c, 8, 46, 80
10, 656700, Note_on_c, 8, 45, 0
10, 656880, Note_on_c, 8, 48, 80
10, 656940, Note_on_c, 8, 46, 0
10, 657120, Note_on_c, 8, 50, 80
10, 657180, Note_on_c, 8, 48, 0
10, 657360, Note_on_c, 8, 47, 80
10, 657420, Note_on_c, 8, 50, 0
10, 657600, Note_on_c, 8, 47, 0
10, 657600, Note_on_c, 8, 48, 80
10, 658084, Note_on_c, 8, 48, 0
10, 659040, Note_on_c, 8, 53, 70
10, 659280, Note_on_c, 8, 53, 0
10, 659520, Note_on_c, 8, 53, 70
10, 659760, Note_on_c, 8, 53, 0
10, 660000, Note_on_c, 8, 53, 70
10, 660240, Note_on_c, 8, 53, 0
10, 660480, Note_on_c, 8, 48, 99
10, 661440, Note_on_c, 8, 41, 88
10, 661489, Note_on_c, 8, 48, 0
10, 661680, Note_on_c, 8, 41, 0
10, 663840, Note_on_c, 8, 53, 70
10, 664320, Note_on_c, 8, 41, 70
10, 664354, Note_on_c, 8, 53, 0
10, 664560, Note_on_c, 8, 41, 0
10, 665280, Note_on_c, 8, 62, 87
10, 665760, Note_on_c, 8, 58, 87
10, 665809, Note_on_c, 8, 62, 0
10, 666240, Note_on_c, 8, 58, 0
10, 666720, Note_on_c, 8, 60, 87
10, 667200, Note_on_c, 8, 57, 87
10, 667249, Note_on_c, 8, 60, 0
10, 667680, Note_on_c, 8, 57, 0
10, 668160, Note_on_c, 8, 58, 87
10, 668640, Note_on_c, 8, 55, 87
10, 668684, Note_on_c, 8, 58, 0
10, 669120, Note_on_c, 8, 55, 0
10, 669120, Note_on_c, 8, 60, 87
10, 670080, Note_on_c, 8, 53, 70
10, 670129, Note_on_c, 8, 60, 0
10, 670560, Note_on_c, 8, 53, 0
10, 670560, Note_on_c, 8, 58, 70
10, 671040, Note_on_c, 8, 60, 70
10, 671084, Note_on_c, 8, 58, 0
10, 671520, Note_on_c, 8, 60, 0
10, 671520, Note_on_c, 8, 48, 70
10, 672000, Note_on_c, 8, 48, 0
10, 672000, Note_on_c, 8, 53, 70
10, 672480, Note_on_c, 8, 53, 0
10, 673440, Note_on_c, 8, 50, 59
10, 673800, Note_on_c, 8, 50, 0
10, 673800, Note_on_c, 8, 48, 59
10, 673860, Note_on_c, 8, 48, 0
10, 673860, Note_on_c, 8, 46, 59
10, 673920, Note_on_c, 8, 46, 0
10, 673920, Note_on_c, 8, 48, 59
10, 674400, Note_on_c, 8, 48, 0
10, 674400, Note_on_c, 8, 48, 59
10, 674880, Note_on_c, 8, 48, 0
10, 674880, Note_on_c, 8, 41, 59
10, 675360, Note_on_c, 8, 41, 0
10, 676320, Note_on_c, 8, 53, 70
10, 676560, Note_on_c, 8, 53, 0
10, 676800, Note_on_c, 8, 57, 70
10, 677040, Note_on_c, 8, 57, 0
10, 677280, Note_on_c, 8, 60, 70
10, 677520, Note_on_c, 8, 60, 0
10, 677760, Note_on_c, 8, 53, 60
10, 678084, Note_on_c, 8, 53, 0
10, 678240, Note_on_c, 8, 53, 60
10, 678604, Note_on_c, 8, 53, 0
10, 678720, Note_on_c, 8, 53, 60
10, 679079, Note_on_c, 8, 53, 0
10, 679200, Note_on_c, 8, 53, 60
10, 680160, Note_on_c, 8, 53, 0
10, 697920, Note_on_c, 8, 60, 70
10, 698292, Note_on_c, 8, 60, 0
10, 698880, Note_on_c, 8, 55, 70
10, 699284, Note_on_c, 8, 55, 0
10, 699840, Note_on_c, 8, 48, 70
10, 700676, Note_on_c, 8, 48, 0
10, 701760, Note_on_c, 8, 48, 70
10, 702604, Note_on_c, 8, 48, 0
10, 703680, Note_on_c, 8, 48, 70
10, 704564, Note_on_c, 8, 48, 0
10, 705600, Note_on_c, 8, 48, 70
10, 706560, Note_on_c, 8, 55, 70
10, 706668, Note_on_c, 8, 48, 0
10, 707412, Note_on_c, 8, 55, 0
10, 707520, Note_on_c, 8, 60, 70
10, 708480, Note_on_c, 8, 55, 70
10, 708564, Note_on_c, 8, 60, 0
10, 709340, Note_on_c, 8, 55, 0
10, 709440, Note_on_c, 8, 52, 70
10, 710400, Note_on_c, 8, 55, 70
10, 710484, Note_on_c, 8, 52, 0
10, 711284, Note_on_c, 8, 55, 0
10, 711360, Note_on_c, 8, 48, 105
10, 711548, Note_on_c, 8, 48, 0
10, 711600, Note_on_c, 8, 50, 105
10, 711788, Note_on_c, 8, 50, 0
10, 711840, Note_on_c, 8, 52, 105
10, 712028, Note_on_c, 8, 52, 0
10, 712080, Note_on_c, 8, 50, 105
10, 712268, Note_on_c, 8, 50, 0
10, 712320, Note_on_c, 8, 48, 105
10, 712508, Note_on_c, 8, 48, 0
10, 712560, Note_on_c, 8, 50, 105
10, 712748, Note_on_c, 8, 50, 0
10, 712800, Note_on_c, 8, 52, 105
10, 712988, Note_on_c, 8, 52, 0
10, 713040, Note_on_c, 8, 53, 105
10, 713228, Note_on_c, 8, 53, 0
10, 713280, Note_on_c, 8, 55, 105
10, 713468, Note_on_c, 8, 55, 0
10, 713520, Note_on_c, 8, 57, 105
10, 713708, Note_on_c, 8, 57, 0
10, 713760, Note_on_c, 8, 59, 105
10, 713948, Note_on_c, 8, 59, 0
10, 714000, Note_on_c, 8, 57, 105
10, 714188, Note_on_c, 8, 57, 0
10, 714240, Note_on_c, 8, 55, 105
10, 714428, Note_on_c, 8, 55, 0
10, 714480, Note_on_c, 8, 57, 105
10, 714668, Note_on_c, 8, 57, 0
10, 714720, Note_on_c, 8, 59, 105
10, 714908, Note_on_c, 8, 59, 0
10, 714960, Note_on_c, 8, 55, 105
10, 715148, Note_on_c, 8, 55, 0
10, 715200, Note_on_c, 8, 60, 105
10, 715388, Note_on_c, 8, 60, 0
10, 715440, Note_on_c, 8, 64, 105
10, 715628, Note_on_c, 8, 64, 0
10, 715680, Note_on_c, 8, 60, 105
10, 715868, Note_on_c, 8, 60, 0
10, 715920, Note_on_c, 8, 55, 105
10, 716108, Note_on_c, 8, 55, 0
10, 716160, Note_on_c, 8, 52, 105
10, 716348, Note_on_c, 8, 52, 0
10, 716400, Note_on_c, 8, 55, 105
10, 716588, Note_on_c, 8, 55, 0
10, 716640, Note_on_c, 8, 52, 105
10, 716828, Note_on_c, 8, 52, 0
10, 716880, Note_on_c, 8, 48, 105
10, 717068, Note_on_c, 8, 48, 0
10, 717120, Note_on_c, 8, 43, 105
10, 717308, Note_on_c, 8, 43, 0
10, 717360, Note_on_c, 8, 47, 105
10, 717548, Note_on_c, 8, 47, 0
10, 717600, Note_on_c, 8, 50, 105
10, 717788, Note_on_c, 8, 50, 0
10, 717840, Note_on_c, 8, 55, 105
10, 718028, Note_on_c, 8, 55, 0
10, 718080, Note_on_c, 8, 59, 105
10, 718268, Note_on_c, 8, 59, 0
10, 718320, Note_on_c, 8, 62, 105
10, 718508, Note_on_c, 8, 62, 0
10, 718560, Note_on_c, 8, 59, 105
10, 718748, Note_on_c, 8, 59, 0
10, 718800, Note_on_c, 8, 55, 105
10, 718988, Note_on_c, 8, 55, 0
10, 719040, Note_on_c, 8, 60, 105
10, 719428, Note_on_c, 8, 60, 0
10, 719520, Note_on_c, 8, 57, 105
10, 720340, Note_on_c, 8, 57, 0
10, 720480, Note_on_c, 8, 55, 80
10, 720672, Note_on_c, 8, 55, 0
10, 720960, Note_on_c, 8, 53, 70
10, 721152, Note_on_c, 8, 53, 0
10, 721440, Note_on_c, 8, 52, 70
10, 721632, Note_on_c, 8, 52, 0
10, 721920, Note_on_c, 8, 57, 70
10, 722112, Note_on_c, 8, 57, 0
10, 722400, Note_on_c, 8, 55, 70
10, 722592, Note_on_c, 8, 55, 0
10, 722880, Note_on_c, 8, 53, 70
10, 723260, Note_on_c, 8, 53, 0
10, 723360, Note_on_c, 8, 57, 105
10, 724236, Note_on_c, 8, 57, 0
10, 724320, Note_on_c, 8, 55, 80
10, 724512, Note_on_c, 8, 55, 0
10, 724800, Note_on_c, 8, 53, 70
10, 724992, Note_on_c, 8, 53, 0
10, 725280, Note_on_c, 8, 52, 70
10, 725472, Note_on_c, 8, 52, 0
10, 725760, Note_on_c, 8, 57, 70
10, 725952, Note_on_c, 8, 57, 0
10, 726240, Note_on_c, 8, 55, 70
10, 726432, Note_on_c, 8, 55, 0
10, 726720, Note_on_c, 8, 53, 70
10, 728640, Note_on_c, 8, 54, 70
10, 728708, Note_on_c, 8, 53, 0
10, 730452, Note_on_c, 8, 54, 0
10, 730560, Note_on_c, 8, 55, 70
10, 730988, Note_on_c, 8, 55, 0
10, 734880, Note_on_c, 8, 48, 70
10, 735072, Note_on_c, 8, 48, 0
10, 735360, Note_on_c, 8, 52, 70
10, 735552, Note_on_c, 8, 52, 0
10, 735840, Note_on_c, 8, 48, 70
10, 736032, Note_on_c, 8, 48, 0
10, 736800, Note_on_c, 8, 50, 70
10, 736992, Note_on_c, 8, 50, 0
10, 737280, Note_on_c, 8, 47, 70
10, 737472, Note_on_c, 8, 47, 0
10, 737760, Note_on_c, 8, 43, 70
10, 737952, Note_on_c, 8, 43, 0
10, 738720, Note_on_c, 8, 48, 70
10, 738912, Note_on_c, 8, 48, 0
10, 739200, Note_on_c, 8, 57, 70
10, 739392, Note_on_c, 8, 57, 0
10, 739680, Note_on_c, 8, 53, 70
10, 739872, Note_on_c, 8, 53, 0
10, 740640, Note_on_c, 8, 55, 70
10, 740832, Note_on_c, 8, 55, 0
10, 741120, Note_on_c, 8, 43, 70
10, 741312, Note_on_c, 8, 43, 0
10, 741600, Note_on_c, 8, 53, 70
10, 741792, Note_on_c, 8, 53, 0
10, 742560, Note_on_c, 8, 52, 70
10, 742752, Note_on_c, 8, 52, 0
10, 743040, Note_on_c, 8, 50, 70
10, 743232, Note_on_c, 8, 50, 0
10, 743520, Note_on_c, 8, 48, 70
10, 743712, Note_on_c, 8, 48, 0
10, 744480, Note_on_c, 8, 57, 70
10, 744672, Note_on_c, 8, 57, 0
10, 744960, Note_on_c, 8, 55, 70
10, 745152, Note_on_c, 8, 55, 0
10, 745440, Note_on_c, 8, 53, 70
10, 745632, Note_on_c, 8, 53, 0
10, 745920, Note_on_c, 8, 52, 70
10, 746148, Note_on_c, 8, 52, 0
10, 746400, Note_on_c, 8, 57, 70
10, 746572, Note_on_c, 8, 57, 0
10, 746880, Note_on_c, 8, 53, 70
10, 747116, Note_on_c, 8, 53, 0
10, 747360, Note_on_c, 8, 55, 70
10, 747548, Note_on_c, 8, 55, 0
10, 748320, Note_on_c, 8, 48, 70
10, 748540, Note_on_c, 8, 48, 0
10, 748800, Note_on_c, 8, 52, 70
10, 749028, Note_on_c, 8, 52, 0
10, 749280, Note_on_c, 8, 55, 70
10, 749476, Note_on_c, 8, 55, 0
10, 750240, Note_on_c, 8, 60, 70
10, 750720, Note_on_c, 8, 59, 70
10, 750836, Note_on_c, 8, 60, 0
10, 751200, Note_on_c, 8, 58, 70
10, 751300, Note_on_c, 8, 59, 0
10, 751680, Note_on_c, 8, 57, 70
10, 751788, Note_on_c, 8, 58, 0
10, 752012, Note_on_c, 8, 57, 0
10, 752160, Note_on_c, 8, 60, 70
10, 752604, Note_on_c, 8, 60, 0
10, 752640, Note_on_c, 8, 57, 70
10, 753068, Note_on_c, 8, 57, 0
10, 753120, Note_on_c, 8, 53, 70
10, 753532, Note_on_c, 8, 53, 0
10, 753600, Note_on_c, 8, 52, 70
10, 755436, Note_on_c, 8, 52, 0
10, 755520, Note_on_c, 8, 53, 70
10, 756480, Note_on_c, 8, 57, 70
10, 756548, Note_on_c, 8, 53, 0
10, 757348, Note_on_c, 8, 57, 0
10, 757440, Note_on_c, 8, 55, 70
10, 759284, Note_on_c, 8, 55, 0
10, 759360, Note_on_c, 8, 43, 70
10, 761196, Note_on_c, 8, 43, 0
10, 761280, Note_on_c, 8, 48, 70
10, 761628, Note_on_c, 8, 48, 0
10, 761760, Note_on_c, 8, 48, 105
10, 761856, Note_on_c, 8, 48, 0
10, 762000, Note_on_c, 8, 48, 105
10, 762096, Note_on_c, 8, 48, 0
10, 762240, Note_on_c, 8, 47, 105
10, 762480, Note_on_c, 8, 50, 105
10, 762548, Note_on_c, 8, 47, 0
10, 762604, Note_on_c, 8, 50, 0
10, 762720, Note_on_c, 8, 53, 105
10, 762816, Note_on_c, 8, 53, 0
10, 762960, Note_on_c, 8, 53, 105
10, 763056, Note_on_c, 8, 53, 0
10, 763200, Note_on_c, 8, 52, 105
10, 763440, Note_on_c, 8, 55, 105
10, 763476, Note_on_c, 8, 52, 0
10, 763604, Note_on_c, 8, 55, 0
10, 763680, Note_on_c, 8, 60, 105
10, 763776, Note_on_c, 8, 60, 0
10, 763920, Note_on_c, 8, 60, 105
10, 764016, Note_on_c, 8, 60, 0
10, 764160, Note_on_c, 8, 59, 105
10, 764540, Note_on_c, 8, 59, 0
10, 764640, Note_on_c, 8, 55, 105
10, 764820, Note_on_c, 8, 55, 0
10, 764880, Note_on_c, 8, 55, 105
10, 765068, Note_on_c, 8, 55, 0
10, 765120, Note_on_c, 8, 60, 105
10, 765492, Note_on_c, 8, 60, 0
10, 765600, Note_on_c, 8, 55, 105
10, 765756, Note_on_c, 8, 55, 0
10, 765840, Note_on_c, 8, 55, 105
10, 766004, Note_on_c, 8, 55, 0
10, 766080, Note_on_c, 8, 62, 105
10, 766428, Note_on_c, 8, 62, 0
10, 766560, Note_on_c, 8, 55, 105
10, 766740, Note_on_c, 8, 55, 0
10, 766800, Note_on_c, 8, 55, 105
10, 766972, Note_on_c, 8, 55, 0
10, 767040, Note_on_c, 8, 64, 105
10, 767396, Note_on_c, 8, 64, 0
10, 767520, Note_on_c, 8, 55, 105
10, 767684, Note_on_c, 8, 55, 0
10, 767760, Note_on_c, 8, 55, 105
10, 767916, Note_on_c, 8, 55, 0
10, 768000, Note_on_c, 8, 59, 105
10, 768372, Note_on_c, 8, 59, 0
10, 768480, Note_on_c, 8, 55, 105
10, 768636, Note_on_c, 8, 55, 0
10, 768720, Note_on_c, 8, 55, 105
10, 768868, Note_on_c, 8, 55, 0
10, 768960, Note_on_c, 8, 60, 105
10, 769324, Note_on_c, 8, 60, 0
10, 769440, Note_on_c, 8, 55, 105
10, 769540, Note_on_c, 8, 55, 0
10, 769680, Note_on_c, 8, 55, 105
10, 769788, Note_on_c, 8, 55, 0
10, 769920, Note_on_c, 8, 62, 105
10, 770268, Note_on_c, 8, 62, 0
10, 770400, Note_on_c, 8, 55, 105
10, 770540, Note_on_c, 8, 55, 0
10, 770640, Note_on_c, 8, 55, 105
10, 770796, Note_on_c, 8, 55, 0
10, 770880, Note_on_c, 8, 64, 105
10, 771236, Note_on_c, 8, 64, 0
10, 771360, Note_on_c, 8, 55, 105
10, 771532, Note_on_c, 8, 55, 0
10, 771600, Note_on_c, 8, 55, 105
10, 771780, Note_on_c, 8, 55, 0
10, 771840, Note_on_c, 8, 59, 105
10, 772188, Note_on_c, 8, 59, 0
10, 772320, Note_on_c, 8, 55, 105
10, 772484, Note_on_c, 8, 55, 0
10, 772560, Note_on_c, 8, 55, 105
10, 772716, Note_on_c, 8, 55, 0
10, 772800, Note_on_c, 8, 60, 105
10, 773280, Note_on_c, 8, 60, 0
10, 773640, Note_on_c, 8, 60, 105
10, 773760, Note_on_c, 8, 57, 118
10, 773844, Note_on_c, 8, 60, 0
10, 774240, Note_on_c, 8, 57, 0
10, 774600, Note_on_c, 8, 57, 105
10, 774720, Note_on_c, 8, 53, 119
10, 774804, Note_on_c, 8, 57, 0
10, 775200, Note_on_c, 8, 53, 0
10, 775560, Note_on_c, 8, 53, 105
10, 775680, Note_on_c, 8, 55, 119
10, 775732, Note_on_c, 8, 53, 0
10, 776160, Note_on_c, 8, 55, 0
10, 776520, Note_on_c, 8, 55, 105
10, 776640, Note_on_c, 8, 48, 117
10, 776724, Note_on_c, 8, 55, 0
10, 777468, Note_on_c, 8, 48, 0
10, 777600, Note_on_c, 8, 48, 120
10, 777840, Note_on_c, 8, 43, 105
10, 777908, Note_on_c, 8, 48, 0
10, 777980, Note_on_c, 8, 43, 0
10, 778080, Note_on_c, 8, 52, 105
10, 778176, Note_on_c, 8, 52, 0
10, 778320, Note_on_c, 8, 52, 105
10, 778416, Note_on_c, 8, 52, 0
10, 778560, Note_on_c, 8, 52, 117
10, 778800, Note_on_c, 8, 48, 105
10, 778844, Note_on_c, 8, 52, 0
10, 778932, Note_on_c, 8, 48, 0
10, 779040, Note_on_c, 8, 55, 105
10, 779136, Note_on_c, 8, 55, 0
10, 779280, Note_on_c, 8, 55, 105
10, 779376, Note_on_c, 8, 55, 0
10, 779520, Note_on_c, 8, 55, 121
10, 779760, Note_on_c, 8, 52, 105
10, 779828, Note_on_c, 8, 55, 0
10, 779916, Note_on_c, 8, 52, 0
10, 780000, Note_on_c, 8, 60, 105
10, 780096, Note_on_c, 8, 60, 0
10, 780240, Note_on_c, 8, 60, 105
10, 780336, Note_on_c, 8, 60, 0
10, 780480, Note_on_c, 8, 60, 119
10, 781196, Note_on_c, 8, 60, 0
10, 784320, Program_c, 8, 45
10, 785760, Note_on_c, 8, 55, 117
10, 786020, Note_on_c, 8, 55, 0
10, 786240, Note_on_c, 8, 60, 117
10, 786484, Note_on_c, 8, 60, 0
10, 787680, Note_on_c, 8, 55, 117
10, 787924, Note_on_c, 8, 55, 0
10, 788160, Note_on_c, 8, 60, 117
10, 788460, Note_on_c, 8, 60, 0
10, 789600, Note_on_c, 8, 55, 117
10, 789852, Note_on_c, 8, 55, 0
10, 790080, Note_on_c, 8, 60, 117
10, 790380, Note_on_c, 8, 60, 0
10, 790560, Note_on_c, 8, 55, 117
10, 790812, Note_on_c, 8, 55, 0
10, 791040, Note_on_c, 8, 48, 117
10, 791268, Note_on_c, 8, 48, 0
10, 793920, Program_c, 8, 42
10, 826560, Note_on_c, 8, 60, 105
10, 826776, Note_on_c, 8, 60, 0
10, 826800, Note_on_c, 8, 64, 105
10, 827016, Note_on_c, 8, 64, 0
10, 827040, Note_on_c, 8, 62, 105
10, 827256, Note_on_c, 8, 62, 0
10, 827280, Note_on_c, 8, 60, 105
10, 827496, Note_on_c, 8, 60, 0
10, 827520, Note_on_c, 8, 59, 105
10, 827736, Note_on_c, 8, 59, 0
10, 827760, Note_on_c, 8, 57, 105
10, 827976, Note_on_c, 8, 57, 0
10, 828000, Note_on_c, 8, 55, 105
10, 828216, Note_on_c, 8, 55, 0
10, 828240, Note_on_c, 8, 53, 105
10, 828456, Note_on_c, 8, 53, 0
10, 828480, Note_on_c, 8, 48, 105
10, 828696, Note_on_c, 8, 48, 0
10, 828720, Note_on_c, 8, 60, 105
10, 828936, Note_on_c, 8, 60, 0
10, 828960, Note_on_c, 8, 59, 105
10, 829176, Note_on_c, 8, 59, 0
10, 829200, Note_on_c, 8, 57, 105
10, 829416, Note_on_c, 8, 57, 0
10, 829440, Note_on_c, 8, 55, 105
10, 829656, Note_on_c, 8, 55, 0
10, 829680, Note_on_c, 8, 53, 105
10, 829896, Note_on_c, 8, 53, 0
10, 829920, Note_on_c, 8, 52, 105
10, 830136, Note_on_c, 8, 52, 0
10, 830160, Note_on_c, 8, 50, 105
10, 830376, Note_on_c, 8, 50, 0
10, 830400, Note_on_c, 8, 48, 105
10, 830880, Note_on_c, 8, 48, 0
10, 882240, Note_on_c, 8, 52, 90
10, 883200, Note_on_c, 8, 52, 0
10, 884160, Note_on_c, 8, 50, 90
10, 885120, Note_on_c, 8, 50, 0
10, 886080, Note_on_c, 8, 52, 90
10, 887040, Note_on_c, 8, 52, 0
10, 888000, Note_on_c, 8, 50, 70
10, 888480, Note_on_c, 8, 50, 0
10, 891840, Note_on_c, 8, 62, 105
10, 892080, Note_on_c, 8, 62, 0
10, 892080, Note_on_c, 8, 61, 105
10, 892320, Note_on_c, 8, 61, 0
10, 892320, Note_on_c, 8, 62, 105
10, 892560, Note_on_c, 8, 62, 0
10, 892560, Note_on_c, 8, 64, 105
10, 892800, Note_on_c, 8, 64, 0
10, 892800, Note_on_c, 8, 60, 105
10, 893040, Note_on_c, 8, 60, 0
10, 893040, Note_on_c, 8, 59, 105
10, 893280, Note_on_c, 8, 59, 0
10, 893280, Note_on_c, 8, 60, 105
10, 893520, Note_on_c, 8, 60, 0
10, 893520, Note_on_c, 8, 62, 105
10, 893760, Note_on_c, 8, 62, 0
10, 893760, Note_on_c, 8, 59, 105
10, 894000, Note_on_c, 8, 59, 0
10, 894000, Note_on_c, 8, 58, 105
10, 894240, Note_on_c, 8, 58, 0
10, 894240, Note_on_c, 8, 59, 105
10, 894480, Note_on_c, 8, 59, 0
10, 894480, Note_on_c, 8, 60, 105
10, 894720, Note_on_c, 8, 60, 0
10, 894720, Note_on_c, 8, 57, 105
10, 894960, Note_on_c, 8, 57, 0
10, 894960, Note_on_c, 8, 56, 105
10, 895200, Note_on_c, 8, 56, 0
10, 895200, Note_on_c, 8, 57, 105
10, 895440, Note_on_c, 8, 57, 0
10, 895440, Note_on_c, 8, 59, 105
10, 895680, Note_on_c, 8, 59, 0
10, 895680, Note_on_c, 8, 55, 105
10, 896160, Note_on_c, 8, 55, 0
10, 897600, Note_on_c, 8, 50, 70
10, 898560, Note_on_c, 8, 50, 0
10, 898560, Note_on_c, 8, 55, 70
10, 899040, Note_on_c, 8, 55, 0
10, 899520, Note_on_c, 8, 50, 70
10, 900480, Note_on_c, 8, 50, 0
10, 900480, Note_on_c, 8, 55, 70
10, 900960, Note_on_c, 8, 55, 0
10, 900960, Note_on_c, 8, 64, 70
10, 901440, Note_on_c, 8, 64, 0
10, 901440, Note_on_c, 8, 62, 70
10, 902400, Note_on_c, 8, 62, 0
10, 903360, Note_on_c, 8, 50, 70
10, 903840, Note_on_c, 8, 50, 0
10, 905280, Note_on_c, 8, 55, 70
10, 906240, Note_on_c, 8, 55, 0
10, 906240, Note_on_c, 8, 54, 70
10, 906720, Note_on_c, 8, 54, 0
10, 907200, Note_on_c, 8, 55, 70
10, 908160, Note_on_c, 8, 55, 0
10, 908160, Note_on_c, 8, 54, 70
10, 908640, Note_on_c, 8, 54, 0
10, 908640, Note_on_c, 8, 50, 70
10, 909120, Note_on_c, 8, 50, 0
10, 909120, Note_on_c, 8, 55, 70
10, 910080, Note_on_c, 8, 55, 0
10, 941760, Note_on_c, 8, 43, 70
10, 942720, Note_on_c, 8, 43, 0
10, 943200, Note_on_c, 8, 47, 70
10, 943680, Note_on_c, 8, 47, 0
10, 943680, Note_on_c, 8, 48, 70
10, 944160, Note_on_c, 8, 48, 0
10, 944160, Note_on_c, 8, 52, 70
10, 944640, Note_on_c, 8, 52, 0
10, 944640, Note_on_c, 8, 57, 70
10, 945120, Note_on_c, 8, 57, 0
10, 945120, Note_on_c, 8, 60, 70
10, 945600, Note_on_c, 8, 60, 0
10, 945600, Note_on_c, 8, 47, 70
10, 946080, Note_on_c, 8, 47, 0
10, 946080, Note_on_c, 8, 50, 70
10, 946560, Note_on_c, 8, 50, 0
10, 946560, Note_on_c, 8, 55, 70
10, 947040, Note_on_c, 8, 55, 0
10, 947040, Note_on_c, 8, 59, 70
10, 947520, Note_on_c, 8, 59, 0
10, 947520, Note_on_c, 8, 45, 70
10, 948000, Note_on_c, 8, 45, 0
10, 948000, Note_on_c, 8, 48, 70
10, 948480, Note_on_c, 8, 48, 0
10, 948480, Note_on_c, 8, 54, 70
10, 948960, Note_on_c, 8, 54, 0
10, 948960, Note_on_c, 8, 57, 70
10, 949440, Note_on_c, 8, 57, 0
10, 949440, Note_on_c, 8, 55, 70
10, 949920, Note_on_c, 8, 55, 0
10, 985920, Note_on_c, 8, 55, 84
10, 991200, Note_on_c, 8, 55, 0
10, 991200, Note_on_c, 8, 59, 70
10, 991680, Note_on_c, 8, 59, 0
10, 991680, Note_on_c, 8, 62, 70
10, 992640, Note_on_c, 8, 62, 0
10, 992640, Note_on_c, 8, 50, 70
10, 993600, Note_on_c, 8, 50, 0
10, 993600, Note_on_c, 8, 55, 70
10, 994560, Note_on_c, 8, 55, 0
10, 995040, Note_on_c, 8, 50, 70
10, 995520, Note_on_c, 8, 50, 0
10, 995520, Note_on_c, 8, 55, 70
10, 996000, Note_on_c, 8, 55, 0
10, 996000, Note_on_c, 8, 50, 70
10, 996480, Note_on_c, 8, 50, 0
10, 996480, Note_on_c, 8, 55, 70
10, 996960, Note_on_c, 8, 55, 0
10, 996960, Note_on_c, 8, 50, 70
10, 997440, Note_on_c, 8, 50, 0
10, 997440, Note_on_c, 8, 55, 70
10, 997920, Note_on_c, 8, 55, 0
10, 998400, Note_on_c, 8, 55, 70
10, 998880, Note_on_c, 8, 55, 0
10, 998880, Note_on_c, 8, 59, 70
10, 999360, Note_on_c, 8, 59, 0
10, 999360, Note_on_c, 8, 62, 70
10, 999840, Note_on_c, 8, 62, 0
10, 1000320, Note_on_c, 8, 50, 70
10, 1000800, Note_on_c, 8, 50, 0
10, 1001280, Note_on_c, 8, 55, 70
10, 1001760, Note_on_c, 8, 55, 0
10, 1006080, Note_on_c, 8, 54, 70
10, 1007040, Note_on_c, 8, 54, 0
10, 1007040, Note_on_c, 8, 55, 70
10, 1008000, Note_on_c, 8, 55, 0
10, 1008000, Note_on_c, 8, 50, 70
10, 1008960, Note_on_c, 8, 50, 0
10, 1008960, Note_on_c, 8, 43, 70
10, 1009920, Note_on_c, 8, 43, 0
10, 1009920, Note_on_c, 8, 54, 70
10, 1010880, Note_on_c, 8, 54, 0
10, 1010880, Note_on_c, 8, 55, 70
10, 1011840, Note_on_c, 8, 55, 0
10, 1011840, Note_on_c, 8, 50, 70
10, 1012800, Note_on_c, 8, 50, 0
10, 1012800, Note_on_c, 8, 43, 70
10, 1013280, Note_on_c, 8, 43, 0
10, 1020480, Note_on_c, 8, 43, 70
10, 1027200, Note_on_c, 8, 43, 0
10, 1045440, Note_on_c, 8, 60, 105
10, 1045920, Note_on_c, 8, 60, 0
10, 1046400, Note_on_c, 8, 55, 105
10, 1046880, Note_on_c, 8, 55, 0
10, 1047360, Note_on_c, 8, 48, 105
10, 1048320, Note_on_c, 8, 48, 0
10, 1049280, Note_on_c, 8, 48, 105
10, 1050240, Note_on_c, 8, 48, 0
10, 1051200, Note_on_c, 8, 48, 105
10, 1052160, Note_on_c, 8, 48, 0
10, 1053120, Note_on_c, 8, 52, 105
10, 1054080, Note_on_c, 8, 52, 0
10, 1054080, Note_on_c, 8, 55, 105
10, 1055040, Note_on_c, 8, 55, 0
10, 1055040, Note_on_c, 8, 60, 105
10, 1056000, Note_on_c, 8, 60, 0
10, 1056000, Note_on_c, 8, 55, 105
10, 1056960, Note_on_c, 8, 55, 0
10, 1056960, Note_on_c, 8, 52, 105
10, 1057440, Note_on_c, 8, 52, 0
10, 1057440, Note_on_c, 8, 48, 105
10, 1057920, Note_on_c, 8, 48, 0
10, 1057920, Note_on_c, 8, 55, 105
10, 1058400, Note_on_c, 8, 55, 0
10, 1058400, Note_on_c, 8, 43, 105
10, 1058880, Note_on_c, 8, 43, 0
10, 1058880, Note_on_c, 8, 48, 105
10, 1059360, Note_on_c, 8, 48, 0
10, 1059360, Note_on_c, 8, 48, 105
10, 1059456, Note_on_c, 8, 48, 0
10, 1059600, Note_on_c, 8, 48, 105
10, 1059696, Note_on_c, 8, 48, 0
10, 1059840, Note_on_c, 8, 47, 105
10, 1060080, Note_on_c, 8, 47, 0
10, 1060080, Note_on_c, 8, 50, 105
10, 1060320, Note_on_c, 8, 50, 0
10, 1060320, Note_on_c, 8, 53, 105
10, 1060416, Note_on_c, 8, 53, 0
10, 1060560, Note_on_c, 8, 53, 105
10, 1060656, Note_on_c, 8, 53, 0
10, 1060800, Note_on_c, 8, 52, 105
10, 1061040, Note_on_c, 8, 52, 0
10, 1061040, Note_on_c, 8, 55, 105
10, 1061280, Note_on_c, 8, 55, 0
10, 1061280, Note_on_c, 8, 60, 105
10, 1061376, Note_on_c, 8, 60, 0
10, 1061520, Note_on_c, 8, 60, 105
10, 1061616, Note_on_c, 8, 60, 0
10, 1061760, Note_on_c, 8, 59, 105
10, 1062240, Note_on_c, 8, 59, 0
10, 1062240, Note_on_c, 8, 55, 105
10, 1062480, Note_on_c, 8, 55, 0
10, 1062480, Note_on_c, 8, 55, 105
10, 1062720, Note_on_c, 8, 55, 0
10, 1062720, Note_on_c, 8, 60, 105
10, 1063200, Note_on_c, 8, 60, 0
10, 1063200, Note_on_c, 8, 55, 105
10, 1063440, Note_on_c, 8, 55, 0
10, 1063440, Note_on_c, 8, 55, 105
10, 1063680, Note_on_c, 8, 55, 0
10, 1063680, Note_on_c, 8, 62, 105
10, 1064160, Note_on_c, 8, 62, 0
10, 1064160, Note_on_c, 8, 55, 105
10, 1064400, Note_on_c, 8, 55, 0
10, 1064400, Note_on_c, 8, 55, 105
10, 1064640, Note_on_c, 8, 55, 0
10, 1064640, Note_on_c, 8, 64, 105
10, 1065120, Note_on_c, 8, 64, 0
10, 1065120, Note_on_c, 8, 55, 105
10, 1065360, Note_on_c, 8, 55, 0
10, 1065360, Note_on_c, 8, 55, 105
10, 1065600, Note_on_c, 8, 55, 0
10, 1065600, Note_on_c, 8, 59, 105
10, 1066080, Note_on_c, 8, 59, 0
10, 1066080, Note_on_c, 8, 55, 105
10, 1066320, Note_on_c, 8, 55, 0
10, 1066320, Note_on_c, 8, 55, 105
10, 1066560, Note_on_c, 8, 55, 0
10, 1066560, Note_on_c, 8, 60, 105
10, 1067040, Note_on_c, 8, 60, 0
10, 1067040, Note_on_c, 8, 55, 105
10, 1067280, Note_on_c, 8, 55, 0
10, 1067280, Note_on_c, 8, 55, 105
10, 1067520, Note_on_c, 8, 55, 0
10, 1067520, Note_on_c, 8, 62, 105
10, 1068000, Note_on_c, 8, 62, 0
10, 1068000, Note_on_c, 8, 55, 105
10, 1068240, Note_on_c, 8, 55, 0
10, 1068240, Note_on_c, 8, 55, 105
10, 1068480, Note_on_c, 8, 55, 0
10, 1068480, Note_on_c, 8, 64, 105
10, 1068960, Note_on_c, 8, 64, 0
10, 1068960, Note_on_c, 8, 55, 105
10, 1069200, Note_on_c, 8, 55, 0
10, 1069200, Note_on_c, 8, 55, 105
10, 1069440, Note_on_c, 8, 55, 0
10, 1069440, Note_on_c, 8, 56, 105
10, 1069920, Note_on_c, 8, 56, 0
10, 1069920, Note_on_c, 8, 52, 105
10, 1070160, Note_on_c, 8, 52, 0
10, 1070160, Note_on_c, 8, 52, 105
10, 1070400, Note_on_c, 8, 52, 0
10, 1070400, Note_on_c, 8, 57, 105
10, 1070880, Note_on_c, 8, 57, 0
10, 1070880, Note_on_c, 8, 52, 105
10, 1071120, Note_on_c, 8, 52, 0
10, 1071120, Note_on_c, 8, 52, 105
10, 1071360, Note_on_c, 8, 52, 0
10, 1071360, Note_on_c, 8, 59, 105
10, 1071840, Note_on_c, 8, 59, 0
10, 1071840, Note_on_c, 8, 52, 105
10, 1072080, Note_on_c, 8, 52, 0
10, 1072080, Note_on_c, 8, 52, 105
10, 1072320, Note_on_c, 8, 52, 0
10, 1072320, Note_on_c, 8, 60, 105
10, 1072800, Note_on_c, 8, 60, 0
10, 1072800, Note_on_c, 8, 48, 105
10, 1073040, Note_on_c, 8, 48, 0
10, 1073040, Note_on_c, 8, 48, 105
10, 1073280, Note_on_c, 8, 48, 0
10, 1073280, Note_on_c, 8, 52, 105
10, 1073760, Note_on_c, 8, 52, 0
10, 1073760, Note_on_c, 8, 48, 105
10, 1074000, Note_on_c, 8, 48, 0
10, 1074000, Note_on_c, 8, 48, 105
10, 1074240, Note_on_c, 8, 48, 0
10, 1074240, Note_on_c, 8, 53, 105
10, 1074720, Note_on_c, 8, 53, 0
10, 1074720, Note_on_c, 8, 48, 105
10, 1074960, Note_on_c, 8, 48, 0
10, 1074960, Note_on_c, 8, 48, 105
10, 1075200, Note_on_c, 8, 48, 0
10, 1075200, Note_on_c, 8, 55, 105
10, 1075680, Note_on_c, 8, 55, 0
10, 1075680, Note_on_c, 8, 48, 105
10, 1075920, Note_on_c, 8, 48, 0
10, 1075920, Note_on_c, 8, 48, 105
10, 1076160, Note_on_c, 8, 48, 0
10, 1076160, Note_on_c, 8, 57, 105
10, 1076640, Note_on_c, 8, 57, 0
10, 1076640, Note_on_c, 8, 48, 105
10, 1076880, Note_on_c, 8, 48, 0
10, 1076880, Note_on_c, 8, 48, 105
10, 1077120, Note_on_c, 8, 48, 0
10, 1077120, Note_on_c, 8, 52, 105
10, 1077600, Note_on_c, 8, 52, 0
10, 1077600, Note_on_c, 8, 48, 105
10, 1077840, Note_on_c, 8, 48, 0
10, 1077840, Note_on_c, 8, 48, 105
10, 1078080, Note_on_c, 8, 48, 0
10, 1078080, Note_on_c, 8, 53, 105
10, 1078560, Note_on_c, 8, 53, 0
10, 1093440, Note_on_c, 8, 53, 70
10, 1093632, Note_on_c, 8, 53, 0
10, 1093920, Note_on_c, 8, 53, 70
10, 1094112, Note_on_c, 8, 53, 0
10, 1094400, Note_on_c, 8, 53, 70
10, 1094592, Note_on_c, 8, 53, 0
10, 1094880, Note_on_c, 8, 53, 70
10, 1095072, Note_on_c, 8, 53, 0
10, 1095360, Note_on_c, 8, 53, 70
10, 1095552, Note_on_c, 8, 53, 0
10, 1095840, Note_on_c, 8, 53, 70
10, 1096032, Note_on_c, 8, 53, 0
10, 1096320, Note_on_c, 8, 53, 70
10, 1096512, Note_on_c, 8, 53, 0
10, 1096800, Note_on_c, 8, 53, 70
10, 1096992, Note_on_c, 8, 53, 0
10, 1097280, Note_on_c, 8, 53, 70
10, 1097472, Note_on_c, 8, 53, 0
10, 1097760, Note_on_c, 8, 53, 70
10, 1097952, Note_on_c, 8, 53, 0
10, 1098240, Note_on_c, 8, 53, 70
10, 1098432, Note_on_c, 8, 53, 0
10, 1098720, Note_on_c, 8, 53, 70
10, 1098912, Note_on_c, 8, 53, 0
10, 1099200, Note_on_c, 8, 53, 70
10, 1099392, Note_on_c, 8, 53, 0
10, 1099680, Note_on_c, 8, 53, 70
10, 1099872, Note_on_c, 8, 53, 0
10, 1100160, Note_on_c, 8, 53, 70
10, 1101120, Note_on_c, 8, 53, 0
10, 1152960, Note_on_c, 8, 60, 70
10, 1153440, Note_on_c, 8, 60, 0
10, 1153920, Note_on_c, 8, 55, 70
10, 1154400, Note_on_c, 8, 55, 0
10, 1154880, Note_on_c, 8, 48, 70
10, 1155360, Note_on_c, 8, 48, 0
10, 1156800, Note_on_c, 8, 55, 70
10, 1157280, Note_on_c, 8, 55, 0
10, 1157760, Note_on_c, 8, 48, 70
10, 1158240, Note_on_c, 8, 48, 0
10, 1158720, Note_on_c, 8, 43, 70
10, 1159200, Note_on_c, 8, 43, 0
10, 1174080, Note_on_c, 8, 55, 70
10, 1174560, Note_on_c, 8, 55, 0
10, 1176000, Note_on_c, 8, 55, 70
10, 1176480, Note_on_c, 8, 55, 0
10, 1177920, Note_on_c, 8, 55, 70
10, 1181760, Note_on_c, 8, 55, 0
10, 1181760, Note_on_c, 8, 48, 70
10, 1182240, Note_on_c, 8, 48, 0
10, 1210560, Note_on_c, 8, 57, 90
10, 1211520, Note_on_c, 8, 57, 0
10, 1212480, Note_on_c, 8, 55, 90
10, 1213440, Note_on_c, 8, 55, 0
10, 1214400, Note_on_c, 8, 57, 90
10, 1215360, Note_on_c, 8, 57, 0
10, 1216320, Note_on_c, 8, 55, 70
10, 1216800, Note_on_c, 8, 55, 0
10, 1220160, Note_on_c, 8, 55, 90
10, 1220400, Note_on_c, 8, 55, 0
10, 1220400, Note_on_c, 8, 54, 90
10, 1220640, Note_on_c, 8, 54, 0
10, 1220640, Note_on_c, 8, 55, 90
10, 1220880, Note_on_c, 8, 55, 0
10, 1220880, Note_on_c, 8, 57, 90
10, 1221120, Note_on_c, 8, 57, 0
10, 1221120, Note_on_c, 8, 53, 90
10, 1221360, Note_on_c, 8, 53, 0
10, 1221360, Note_on_c, 8, 52, 90
10, 1221600, Note_on_c, 8, 52, 0
10, 1221600, Note_on_c, 8, 53, 90
10, 1221840, Note_on_c, 8, 53, 0
10, 1221840, Note_on_c, 8, 55, 90
10, 1222080, Note_on_c, 8, 55, 0
10, 1222080, Note_on_c, 8, 52, 90
10, 1222320, Note_on_c, 8, 52, 0
10, 1222320, Note_on_c, 8, 51, 90
10, 1222560, Note_on_c, 8, 51, 0
10, 1222560, Note_on_c, 8, 52, 90
10, 1222800, Note_on_c, 8, 52, 0
10, 1222800, Note_on_c, 8, 53, 90
10, 1223040, Note_on_c, 8, 53, 0
10, 1223040, Note_on_c, 8, 50, 90
10, 1223280, Note_on_c, 8, 50, 0
10, 1223280, Note_on_c, 8, 49, 90
10, 1223520, Note_on_c, 8, 49, 0
10, 1223520, Note_on_c, 8, 50, 90
10, 1223760, Note_on_c, 8, 50, 0
10, 1223760, Note_on_c, 8, 52, 90
10, 1224000, Note_on_c, 8, 52, 0
10, 1224000, Note_on_c, 8, 48, 90
10, 1224480, Note_on_c, 8, 48, 0
10, 1225920, Note_on_c, 8, 43, 70
10, 1226880, Note_on_c, 8, 43, 0
10, 1226880, Note_on_c, 8, 48, 70
10, 1227360, Note_on_c, 8, 48, 0
10, 1227840, Note_on_c, 8, 43, 70
10, 1228800, Note_on_c, 8, 43, 0
10, 1228800, Note_on_c, 8, 48, 70
10, 1229280, Note_on_c, 8, 48, 0
10, 1229280, Note_on_c, 8, 57, 70
10, 1229760, Note_on_c, 8, 57, 0
10, 1229760, Note_on_c, 8, 55, 70
10, 1230720, Note_on_c, 8, 55, 0
10, 1231680, Note_on_c, 8, 43, 70
10, 1232160, Note_on_c, 8, 43, 0
10, 1233600, Note_on_c, 8, 48, 70
10, 1234560, Note_on_c, 8, 48, 0
10, 1234560, Note_on_c, 8, 47, 70
10, 1235040, Note_on_c, 8, 47, 0
10, 1235520, Note_on_c, 8, 48, 70
10, 1236480, Note_on_c, 8, 48, 0
10, 1236480, Note_on_c, 8, 47, 70
10, 1236960, Note_on_c, 8, 47, 0
10, 1236960, Note_on_c, 8, 43, 70
10, 1237440, Note_on_c, 8, 43, 0
10, 1237440, Note_on_c, 8, 48, 70
10, 1238400, Note_on_c, 8, 48, 0
10, 1256640, Note_on_c, 8, 43, 70
10, 1257600, Note_on_c, 8, 43, 0
10, 1257600, Note_on_c, 8, 48, 70
10, 1258080, Note_on_c, 8, 48, 0
10, 1258560, Note_on_c, 8, 43, 70
10, 1259520, Note_on_c, 8, 43, 0
10, 1259520, Note_on_c, 8, 48, 70
10, 1260000, Note_on_c, 8, 48, 0
10, 1260000, Note_on_c, 8, 47, 70
10, 1260480, Note_on_c, 8, 47, 0
10, 1260480, Note_on_c, 8, 48, 70
10, 1260960, Note_on_c, 8, 48, 0
10, 1260960, Note_on_c, 8, 52, 70
10, 1261440, Note_on_c, 8, 52, 0
10, 1261440, Note_on_c, 8, 55, 70
10, 1261920, Note_on_c, 8, 55, 0
10, 1262400, Note_on_c, 8, 55, 70
10, 1263360, Note_on_c, 8, 55, 0
10, 1264320, Note_on_c, 8, 43, 70
10, 1265280, Note_on_c, 8, 43, 0
10, 1266240, Note_on_c, 8, 43, 70
10, 1267200, Note_on_c, 8, 43, 0
10, 1267680, Note_on_c, 8, 43, 70
10, 1268160, Note_on_c, 8, 43, 0
10, 1268160, Note_on_c, 8, 48, 70
10, 1268640, Note_on_c, 8, 48, 0
10, 1268640, Note_on_c, 8, 55, 70
10, 1269120, Note_on_c, 8, 55, 0
10, 1269120, Note_on_c, 8, 60, 70
10, 1269600, Note_on_c, 8, 60, 0
10, 1270080, Note_on_c, 8, 48, 70
10, 1271040, Note_on_c, 8, 48, 0
10, 1271520, Note_on_c, 8, 52, 70
10, 1272000, Note_on_c, 8, 52, 0
10, 1272000, Note_on_c, 8, 53, 70
10, 1272480, Note_on_c, 8, 53, 0
10, 1272480, Note_on_c, 8, 57, 70
10, 1272960, Note_on_c, 8, 57, 0
10, 1272960, Note_on_c, 8, 62, 70
10, 1273440, Note_on_c, 8, 62, 0
10, 1273440, Note_on_c, 8, 65, 70
10, 1273920, Note_on_c, 8, 65, 0
10, 1273920, Note_on_c, 8, 52, 70
10, 1274400, Note_on_c, 8, 52, 0
10, 1274400, Note_on_c, 8, 55, 70
10, 1274880, Note_on_c, 8, 55, 0
10, 1274880, Note_on_c, 8, 60, 70
10, 1275360, Note_on_c, 8, 60, 0
10, 1275360, Note_on_c, 8, 64, 70
10, 1275840, Note_on_c, 8, 64, 0
10, 1275840, Note_on_c, 8, 50, 70
10, 1276320, Note_on_c, 8, 50, 0
10, 1276320, Note_on_c, 8, 53, 70
10, 1276800, Note_on_c, 8, 53, 0
10, 1276800, Note_on_c, 8, 59, 70
10, 1277280, Note_on_c, 8, 59, 0
10, 1277280, Note_on_c, 8, 62, 70
10, 1277760, Note_on_c, 8, 62, 0
10, 1277760, Note_on_c, 8, 60, 70
10, 1278240, Note_on_c, 8, 60, 0
10, 1284000, Note_on_c, 8, 57, 90
10, 1284960, Note_on_c, 8, 57, 0
10, 1284960, Note_on_c, 8, 55, 70
10, 1285152, Note_on_c, 8, 55, 0
10, 1285440, Note_on_c, 8, 53, 70
10, 1285632, Note_on_c, 8, 53, 0
10, 1285920, Note_on_c, 8, 52, 70
10, 1286112, Note_on_c, 8, 52, 0
10, 1286400, Note_on_c, 8, 57, 70
10, 1286592, Note_on_c, 8, 57, 0
10, 1286880, Note_on_c, 8, 55, 70
10, 1287072, Note_on_c, 8, 55, 0
10, 1287360, Note_on_c, 8, 53, 70
10, 1287840, Note_on_c, 8, 53, 0
10, 1287840, Note_on_c, 8, 57, 90
10, 1288800, Note_on_c, 8, 57, 0
10, 1288800, Note_on_c, 8, 55, 70
10, 1288992, Note_on_c, 8, 55, 0
10, 1289280, Note_on_c, 8, 53, 70
10, 1289472, Note_on_c, 8, 53, 0
10, 1289760, Note_on_c, 8, 52, 70
10, 1289952, Note_on_c, 8, 52, 0
10, 1290240, Note_on_c, 8, 57, 70
10, 1290432, Note_on_c, 8, 57, 0
10, 1290720, Note_on_c, 8, 55, 70
10, 1290912, Note_on_c, 8, 55, 0
10, 1291200, Note_on_c, 8, 53, 70
10, 1293120, Note_on_c, 8, 53, 0
10, 1293120, Note_on_c, 8, 54, 70
10, 1295040, Note_on_c, 8, 54, 0
10, 1295040, Note_on_c, 8, 55, 70
10, 1295520, Note_on_c, 8, 55, 0
10, 1299360, Note_on_c, 8, 48, 70
10, 1299552, Note_on_c, 8, 48, 0
10, 1299840, Note_on_c, 8, 52, 70
10, 1300032, Note_on_c, 8, 52, 0
10, 1300320, Note_on_c, 8, 48, 70
10, 1300512, Note_on_c, 8, 48, 0
10, 1301280, Note_on_c, 8, 50, 70
10, 1301472, Note_on_c, 8, 50, 0
10, 1301760, Note_on_c, 8, 47, 70
10, 1301952, Note_on_c, 8, 47, 0
10, 1302240, Note_on_c, 8, 43, 70
10, 1302432, Note_on_c, 8, 43, 0
10, 1303200, Note_on_c, 8, 48, 70
10, 1303392, Note_on_c, 8, 48, 0
10, 1303680, Note_on_c, 8, 57, 70
10, 1303872, Note_on_c, 8, 57, 0
10, 1304160, Note_on_c, 8, 53, 70
10, 1304352, Note_on_c, 8, 53, 0
10, 1305120, Note_on_c, 8, 55, 70
10, 1305312, Note_on_c, 8, 55, 0
10, 1305600, Note_on_c, 8, 43, 70
10, 1305792, Note_on_c, 8, 43, 0
10, 1306080, Note_on_c, 8, 53, 70
10, 1306272, Note_on_c, 8, 53, 0
10, 1307040, Note_on_c, 8, 52, 70
10, 1307232, Note_on_c, 8, 52, 0
10, 1307520, Note_on_c, 8, 50, 70
10, 1307712, Note_on_c, 8, 50, 0
10, 1308000, Note_on_c, 8, 48, 70
10, 1308192, Note_on_c, 8, 48, 0
10, 1308960, Note_on_c, 8, 57, 70
10, 1309152, Note_on_c, 8, 57, 0
10, 1309440, Note_on_c, 8, 55, 70
10, 1309632, Note_on_c, 8, 55, 0
10, 1309920, Note_on_c, 8, 53, 70
10, 1310112, Note_on_c, 8, 53, 0
10, 1310400, Note_on_c, 8, 52, 70
10, 1310592, Note_on_c, 8, 52, 0
10, 1310880, Note_on_c, 8, 57, 70
10, 1311072, Note_on_c, 8, 57, 0
10, 1311360, Note_on_c, 8, 53, 70
10, 1311552, Note_on_c, 8, 53, 0
10, 1311840, Note_on_c, 8, 55, 70
10, 1312032, Note_on_c, 8, 55, 0
10, 1312800, Note_on_c, 8, 48, 70
10, 1312992, Note_on_c, 8, 48, 0
10, 1313280, Note_on_c, 8, 52, 70
10, 1313472, Note_on_c, 8, 52, 0
10, 1313760, Note_on_c, 8, 55, 70
10, 1313952, Note_on_c, 8, 55, 0
10, 1314720, Note_on_c, 8, 60, 70
10, 1315200, Note_on_c, 8, 60, 0
10, 1315200, Note_on_c, 8, 59, 70
10, 1315680, Note_on_c, 8, 59, 0
10, 1315680, Note_on_c, 8, 58, 70
10, 1316160, Note_on_c, 8, 58, 0
10, 1316160, Note_on_c, 8, 57, 70
10, 1316640, Note_on_c, 8, 57, 0
10, 1316640, Note_on_c, 8, 60, 70
10, 1317120, Note_on_c, 8, 60, 0
10, 1317120, Note_on_c, 8, 57, 70
10, 1317600, Note_on_c, 8, 57, 0
10, 1317600, Note_on_c, 8, 53, 70
10, 1318080, Note_on_c, 8, 53, 0
10, 1318080, Note_on_c, 8, 52, 70
10, 1320000, Note_on_c, 8, 52, 0
10, 1320000, Note_on_c, 8, 53, 70
10, 1320960, Note_on_c, 8, 53, 0
10, 1320960, Note_on_c, 8, 57, 70
10, 1321920, Note_on_c, 8, 57, 0
10, 1321920, Note_on_c, 8, 55, 70
10, 1323840, Note_on_c, 8, 55, 0
10, 1323840, Note_on_c, 8, 43, 70
10, 1325760, Note_on_c, 8, 43, 0
10, 1325760, Note_on_c, 8, 48, 70
10, 1326240, Note_on_c, 8, 48, 0
10, 1360320, Note_on_c, 8, 57, 70
10, 1360800, Note_on_c, 8, 57, 0
10, 1361280, Note_on_c, 8, 53, 70
10, 1361760, Note_on_c, 8, 53, 0
10, 1362240, Note_on_c, 8, 55, 80
10, 1362720, Note_on_c, 8, 55, 0
10, 1363200, Note_on_c, 8, 43, 80
10, 1363680, Note_on_c, 8, 43, 0
10, 1364160, Note_on_c, 8, 60, 90
10, 1364400, Note_on_c, 8, 60, 0
10, 1364400, Note_on_c, 8, 59, 105
10, 1364640, Note_on_c, 8, 59, 0
10, 1364640, Note_on_c, 8, 60, 105
10, 1364880, Note_on_c, 8, 60, 0
10, 1364880, Note_on_c, 8, 62, 105
10, 1365120, Note_on_c, 8, 62, 0
10, 1365120, Note_on_c, 8, 64, 105
10, 1365360, Note_on_c, 8, 64, 0
10, 1365360, Note_on_c, 8, 62, 105
10, 1365600, Note_on_c, 8, 62, 0
10, 1365600, Note_on_c, 8, 60, 105
10, 1365840, Note_on_c, 8, 60, 0
10, 1365840, Note_on_c, 8, 59, 105
10, 1366080, Note_on_c, 8, 59, 0
10, 1366080, Note_on_c, 8, 57, 105
10, 1366320, Note_on_c, 8, 57, 0
10, 1366320, Note_on_c, 8, 56, 105
10, 1366560, Note_on_c, 8, 56, 0
10, 1366560, Note_on_c, 8, 57, 105
10, 1366800, Note_on_c, 8, 57, 0
10, 1366800, Note_on_c, 8, 59, 105
10, 1367040, Note_on_c, 8, 59, 0
10, 1367040, Note_on_c, 8, 60, 105
10, 1367280, Note_on_c, 8, 60, 0
10, 1367280, Note_on_c, 8, 59, 105
10, 1367520, Note_on_c, 8, 59, 0
10, 1367520, Note_on_c, 8, 57, 105
10, 1367760, Note_on_c, 8, 57, 0
10, 1367760, Note_on_c, 8, 55, 105
10, 1368000, Note_on_c, 8, 55, 0
10, 1368000, Note_on_c, 8, 53, 105
10, 1368480, Note_on_c, 8, 53, 0
10, 1368960, Note_on_c, 8, 50, 105
10, 1369440, Note_on_c, 8, 50, 0
10, 1369920, Note_on_c, 8, 48, 105
10, 1370400, Note_on_c, 8, 48, 0
10, 1370880, Note_on_c, 8, 57, 105
10, 1371360, Note_on_c, 8, 57, 0
10, 1371840, Note_on_c, 8, 55, 105
10, 1372800, Note_on_c, 8, 55, 0
10, 1375680, Note_on_c, 8, 48, 90
10, 1375920, Note_on_c, 8, 48, 0
10, 1375920, Note_on_c, 8, 50, 90
10, 1376160, Note_on_c, 8, 50, 0
10, 1376160, Note_on_c, 8, 52, 90
10, 1376400, Note_on_c, 8, 52, 0
10, 1376400, Note_on_c, 8, 50, 105
10, 1376640, Note_on_c, 8, 50, 0
10, 1376640, Note_on_c, 8, 48, 105
10, 1376880, Note_on_c, 8, 48, 0
10, 1376880, Note_on_c, 8, 50, 105
10, 1377120, Note_on_c, 8, 50, 0
10, 1377120, Note_on_c, 8, 52, 105
10, 1377360, Note_on_c, 8, 52, 0
10, 1377360, Note_on_c, 8, 53, 105
10, 1377600, Note_on_c, 8, 53, 0
10, 1377600, Note_on_c, 8, 55, 105
10, 1377840, Note_on_c, 8, 55, 0
10, 1377840, Note_on_c, 8, 57, 105
10, 1378080, Note_on_c, 8, 57, 0
10, 1378080, Note_on_c, 8, 59, 105
10, 1378320, Note_on_c, 8, 59, 0
10, 1378320, Note_on_c, 8, 57, 105
10, 1378560, Note_on_c, 8, 57, 0
10, 1378560, Note_on_c, 8, 55, 105
10, 1378800, Note_on_c, 8, 55, 0
10, 1378800, Note_on_c, 8, 57, 105
10, 1379040, Note_on_c, 8, 57, 0
10, 1379040, Note_on_c, 8, 59, 105
10, 1379280, Note_on_c, 8, 59, 0
10, 1379280, Note_on_c, 8, 55, 105
10, 1379520, Note_on_c, 8, 55, 0
10, 1379520, Note_on_c, 8, 60, 105
10, 1379760, Note_on_c, 8, 60, 0
10, 1379760, Note_on_c, 8, 64, 105
10, 1380000, Note_on_c, 8, 64, 0
10, 1380000, Note_on_c, 8, 60, 105
10, 1380240, Note_on_c, 8, 60, 0
10, 1380240, Note_on_c, 8, 55, 105
10, 1380480, Note_on_c, 8, 55, 0
10, 1380480, Note_on_c, 8, 52, 105
10, 1380720, Note_on_c, 8, 52, 0
10, 1380720, Note_on_c, 8, 55, 105
10, 1380960, Note_on_c, 8, 55, 0
10, 1380960, Note_on_c, 8, 52, 105
10, 1381200, Note_on_c, 8, 52, 0
10, 1381200, Note_on_c, 8, 48, 105
10, 1381440, Note_on_c, 8, 48, 0
10, 1381440, Note_on_c, 8, 43, 105
10, 1381680, Note_on_c, 8, 43, 0
10, 1381680, Note_on_c, 8, 47, 105
10, 1381920, Note_on_c, 8, 47, 0
10, 1381920, Note_on_c, 8, 50, 105
10, 1382160, Note_on_c, 8, 50, 0
10, 1382160, Note_on_c, 8, 55, 105
10, 1382400, Note_on_c, 8, 55, 0
10, 1382400, Note_on_c, 8, 59, 105
10, 1382640, Note_on_c, 8, 59, 0
10, 1382640, Note_on_c, 8, 62, 105
10, 1382880, Note_on_c, 8, 62, 0
10, 1382880, Note_on_c, 8, 59, 105
10, 1383120, Note_on_c, 8, 59, 0
10, 1383120, Note_on_c, 8, 55, 105
10, 1383360, Note_on_c, 8, 55, 0
10, 1383360, Note_on_c, 8, 60, 105
10, 1383840, Note_on_c, 8, 60, 0
10, 1384200, Note_on_c, 8, 60, 105
10, 1384320, Note_on_c, 8, 60, 0
10, 1384320, Note_on_c, 8, 57, 105
10, 1384800, Note_on_c, 8, 57, 0
10, 1385160, Note_on_c, 8, 57, 105
10, 1385280, Note_on_c, 8, 57, 0
10, 1385280, Note_on_c, 8, 53, 105
10, 1385760, Note_on_c, 8, 53, 0
10, 1386120, Note_on_c, 8, 53, 105
10, 1386240, Note_on_c, 8, 53, 0
10, 1386240, Note_on_c, 8, 55, 105
10, 1386720, Note_on_c, 8, 55, 0
10, 1387080, Note_on_c, 8, 55, 105
10, 1387200, Note_on_c, 8, 55, 0
10, 1387200, Note_on_c, 8, 48, 105
10, 1388160, Note_on_c, 8, 48, 0
10, 1428960, Note_on_c, 8, 55, 105
10, 1429440, Note_on_c, 8, 55, 0
10, 1429440, Note_on_c, 8, 60, 105
10, 1430400, Note_on_c, 8, 60, 0
10, 1430880, Note_on_c, 8, 55, 105
10, 1431360, Note_on_c, 8, 55, 0
10, 1431360, Note_on_c, 8, 60, 105
10, 1432320, Note_on_c, 8, 60, 0
10, 1432800, Note_on_c, 8, 55, 105
10, 1433280, Note_on_c, 8, 55, 0
10, 1433280, Note_on_c, 8, 60, 105
10, 1434240, Note_on_c, 8, 60, 0
10, 1434240, Note_on_c, 8, 60, 105
10, 1435200, Note_on_c, 8, 60, 0
10, 1435200, Note_on_c, 8, 48, 105
10, 1436160, Note_on_c, 8, 48, 0
10, 1436160, End_track
11, 0, Start_track
11, 0, MIDI_port, 0
11, 0, Title_t, "K. Bass"
11, 0, Control_c, 10, 0, 0
11, 0, Control_c, 10, 32, 1
11, 0, Program_c, 10, 48
11, 0, Control_c, 10, 7, 70
11, 0, Control_c, 10, 10, 100
11, 1920, Note_on_c, 10, 48, 105
11, 2604, Note_on_c, 10, 48, 0
11, 2640, Note_on_c, 10, 43, 105
11, 2868, Note_on_c, 10, 43, 0
11, 2880, Note_on_c, 10, 40, 105
11, 3108, Note_on_c, 10, 40, 0
11, 3120, Note_on_c, 10, 36, 105
11, 3348, Note_on_c, 10, 36, 0
11, 3360, Note_on_c, 10, 40, 105
11, 3588, Note_on_c, 10, 40, 0
11, 3600, Note_on_c, 10, 43, 105
11, 3828, Note_on_c, 10, 43, 0
11, 3840, Note_on_c, 10, 48, 105
11, 4524, Note_on_c, 10, 48, 0
11, 4560, Note_on_c, 10, 43, 105
11, 4788, Note_on_c, 10, 43, 0
11, 4800, Note_on_c, 10, 40, 105
11, 5028, Note_on_c, 10, 40, 0
11, 5040, Note_on_c, 10, 36, 105
11, 5268, Note_on_c, 10, 36, 0
11, 5280, Note_on_c, 10, 40, 105
11, 5508, Note_on_c, 10, 40, 0
11, 5520, Note_on_c, 10, 43, 105
11, 5748, Note_on_c, 10, 43, 0
11, 5760, Note_on_c, 10, 48, 105
11, 6216, Note_on_c, 10, 48, 0
11, 6240, Note_on_c, 10, 36, 70
11, 6720, Note_on_c, 10, 35, 70
11, 6784, Note_on_c, 10, 36, 0
11, 7200, Note_on_c, 10, 36, 70
11, 7259, Note_on_c, 10, 35, 0
11, 7619, Note_on_c, 10, 36, 0
11, 7680, Note_on_c, 10, 38, 105
11, 7872, Note_on_c, 10, 38, 0
11, 8160, Note_on_c, 10, 38, 70
11, 8640, Note_on_c, 10, 37, 70
11, 8724, Note_on_c, 10, 38, 0
11, 9120, Note_on_c, 10, 38, 70
11, 9204, Note_on_c, 10, 37, 0
11, 9529, Note_on_c, 10, 38, 0
11, 9600, Note_on_c, 10, 40, 105
11, 9792, Note_on_c, 10, 40, 0
11, 10080, Note_on_c, 10, 40, 70
11, 10560, Note_on_c, 10, 39, 70
11, 10654, Note_on_c, 10, 40, 0
11, 11040, Note_on_c, 10, 40, 70
11, 11129, Note_on_c, 10, 39, 0
11, 11449, Note_on_c, 10, 40, 0
11, 11520, Note_on_c, 10, 41, 71
11, 12000, Note_on_c, 10, 43, 79
11, 12094, Note_on_c, 10, 41, 0
11, 12480, Note_on_c, 10, 45, 88
11, 12564, Note_on_c, 10, 43, 0
11, 12960, Note_on_c, 10, 47, 97
11, 13009, Note_on_c, 10, 45, 0
11, 13359, Note_on_c, 10, 47, 0
11, 13440, Note_on_c, 10, 48, 105
11, 13680, Note_on_c, 10, 48, 0
11, 13680, Note_on_c, 10, 48, 105
11, 13920, Note_on_c, 10, 48, 0
11, 13920, Note_on_c, 10, 48, 105
11, 14160, Note_on_c, 10, 48, 0
11, 14160, Note_on_c, 10, 48, 105
11, 14400, Note_on_c, 10, 48, 0
11, 14400, Note_on_c, 10, 48, 105
11, 14640, Note_on_c, 10, 48, 0
11, 14640, Note_on_c, 10, 48, 105
11, 14880, Note_on_c, 10, 48, 0
11, 14880, Note_on_c, 10, 48, 105
11, 15120, Note_on_c, 10, 48, 0
11, 15120, Note_on_c, 10, 48, 105
11, 15360, Note_on_c, 10, 48, 0
11, 15360, Note_on_c, 10, 48, 105
11, 15600, Note_on_c, 10, 48, 0
11, 15600, Note_on_c, 10, 48, 105
11, 15840, Note_on_c, 10, 48, 0
11, 15840, Note_on_c, 10, 48, 105
11, 16080, Note_on_c, 10, 48, 0
11, 16080, Note_on_c, 10, 48, 105
11, 16320, Note_on_c, 10, 48, 0
11, 16320, Note_on_c, 10, 48, 105
11, 16560, Note_on_c, 10, 48, 0
11, 16560, Note_on_c, 10, 48, 105
11, 16800, Note_on_c, 10, 48, 0
11, 16800, Note_on_c, 10, 48, 105
11, 17040, Note_on_c, 10, 48, 0
11, 17040, Note_on_c, 10, 48, 105
11, 17280, Note_on_c, 10, 48, 0
11, 17280, Note_on_c, 10, 48, 105
11, 17376, Note_on_c, 10, 48, 0
11, 17520, Note_on_c, 10, 36, 77
11, 17760, Note_on_c, 10, 36, 0
11, 17760, Note_on_c, 10, 36, 74
11, 18000, Note_on_c, 10, 36, 0
11, 18000, Note_on_c, 10, 36, 70
11, 18240, Note_on_c, 10, 36, 0
11, 18240, Note_on_c, 10, 36, 70
11, 18480, Note_on_c, 10, 36, 0
11, 18480, Note_on_c, 10, 36, 70
11, 18720, Note_on_c, 10, 36, 0
11, 18720, Note_on_c, 10, 36, 70
11, 18960, Note_on_c, 10, 36, 0
11, 18960, Note_on_c, 10, 36, 70
11, 19200, Note_on_c, 10, 36, 0
11, 19200, Note_on_c, 10, 36, 70
11, 19440, Note_on_c, 10, 36, 0
11, 19440, Note_on_c, 10, 36, 70
11, 19680, Note_on_c, 10, 36, 0
11, 19680, Note_on_c, 10, 36, 70
11, 19920, Note_on_c, 10, 36, 0
11, 19920, Note_on_c, 10, 36, 70
11, 20160, Note_on_c, 10, 36, 0
11, 20160, Note_on_c, 10, 36, 70
11, 20400, Note_on_c, 10, 36, 0
11, 20400, Note_on_c, 10, 48, 70
11, 20640, Note_on_c, 10, 48, 0
11, 20640, Note_on_c, 10, 48, 105
11, 20880, Note_on_c, 10, 48, 0
11, 20880, Note_on_c, 10, 48, 105
11, 21120, Note_on_c, 10, 48, 0
11, 21120, Note_on_c, 10, 47, 105
11, 21360, Note_on_c, 10, 47, 0
11, 21360, Note_on_c, 10, 50, 105
11, 21600, Note_on_c, 10, 50, 0
11, 21600, Note_on_c, 10, 47, 105
11, 21840, Note_on_c, 10, 47, 0
11, 21840, Note_on_c, 10, 43, 105
11, 22080, Note_on_c, 10, 43, 0
11, 22080, Note_on_c, 10, 41, 105
11, 22320, Note_on_c, 10, 41, 0
11, 22320, Note_on_c, 10, 38, 105
11, 22560, Note_on_c, 10, 38, 0
11, 22560, Note_on_c, 10, 35, 105
11, 22800, Note_on_c, 10, 35, 0
11, 22800, Note_on_c, 10, 31, 105
11, 23040, Note_on_c, 10, 31, 0
11, 23040, Note_on_c, 10, 36, 105
11, 23280, Note_on_c, 10, 36, 0
11, 23280, Note_on_c, 10, 52, 105
11, 23520, Note_on_c, 10, 52, 0
11, 23520, Note_on_c, 10, 48, 105
11, 23760, Note_on_c, 10, 48, 0
11, 23760, Note_on_c, 10, 43, 105
11, 24000, Note_on_c, 10, 43, 0
11, 24000, Note_on_c, 10, 40, 105
11, 24240, Note_on_c, 10, 40, 0
11, 24240, Note_on_c, 10, 43, 105
11, 24480, Note_on_c, 10, 43, 0
11, 24480, Note_on_c, 10, 40, 105
11, 24720, Note_on_c, 10, 40, 0
11, 24720, Note_on_c, 10, 36, 105
11, 24960, Note_on_c, 10, 36, 0
11, 24960, Note_on_c, 10, 41, 105
11, 25200, Note_on_c, 10, 41, 0
11, 25200, Note_on_c, 10, 41, 105
11, 25440, Note_on_c, 10, 41, 0
11, 25440, Note_on_c, 10, 41, 105
11, 25680, Note_on_c, 10, 41, 0
11, 25680, Note_on_c, 10, 41, 105
11, 25920, Note_on_c, 10, 41, 0
11, 25920, Note_on_c, 10, 43, 105
11, 26160, Note_on_c, 10, 43, 0
11, 26160, Note_on_c, 10, 43, 105
11, 26400, Note_on_c, 10, 43, 0
11, 26400, Note_on_c, 10, 43, 105
11, 26640, Note_on_c, 10, 43, 0
11, 26640, Note_on_c, 10, 43, 105
11, 26880, Note_on_c, 10, 43, 0
11, 26880, Note_on_c, 10, 36, 80
11, 26976, Note_on_c, 10, 36, 0
11, 27120, Note_on_c, 10, 38, 76
11, 27216, Note_on_c, 10, 38, 0
11, 27360, Note_on_c, 10, 40, 76
11, 27456, Note_on_c, 10, 40, 0
11, 27600, Note_on_c, 10, 41, 77
11, 27696, Note_on_c, 10, 41, 0
11, 27840, Note_on_c, 10, 43, 80
11, 28320, Note_on_c, 10, 43, 0
11, 28800, Note_on_c, 10, 47, 105
11, 29040, Note_on_c, 10, 47, 0
11, 29040, Note_on_c, 10, 50, 105
11, 29280, Note_on_c, 10, 50, 0
11, 29280, Note_on_c, 10, 47, 105
11, 29520, Note_on_c, 10, 47, 0
11, 29520, Note_on_c, 10, 43, 105
11, 29760, Note_on_c, 10, 43, 0
11, 29760, Note_on_c, 10, 41, 105
11, 30000, Note_on_c, 10, 41, 0
11, 30000, Note_on_c, 10, 38, 105
11, 30240, Note_on_c, 10, 38, 0
11, 30240, Note_on_c, 10, 35, 105
11, 30480, Note_on_c, 10, 35, 0
11, 30480, Note_on_c, 10, 31, 105
11, 30720, Note_on_c, 10, 31, 0
11, 30720, Note_on_c, 10, 36, 105
11, 30960, Note_on_c, 10, 36, 0
11, 30960, Note_on_c, 10, 52, 105
11, 31200, Note_on_c, 10, 52, 0
11, 31200, Note_on_c, 10, 48, 105
11, 31440, Note_on_c, 10, 48, 0
11, 31440, Note_on_c, 10, 44, 105
11, 31680, Note_on_c, 10, 44, 0
11, 31680, Note_on_c, 10, 45, 105
11, 31920, Note_on_c, 10, 45, 0
11, 31920, Note_on_c, 10, 48, 105
11, 32160, Note_on_c, 10, 48, 0
11, 32160, Note_on_c, 10, 45, 105
11, 32400, Note_on_c, 10, 45, 0
11, 32400, Note_on_c, 10, 40, 105
11, 32640, Note_on_c, 10, 40, 0
11, 32640, Note_on_c, 10, 41, 105
11, 32880, Note_on_c, 10, 41, 0
11, 32880, Note_on_c, 10, 43, 105
11, 33120, Note_on_c, 10, 43, 0
11, 33120, Note_on_c, 10, 45, 105
11, 33360, Note_on_c, 10, 45, 0
11, 33360, Note_on_c, 10, 40, 105
11, 33600, Note_on_c, 10, 40, 0
11, 33600, Note_on_c, 10, 41, 105
11, 33840, Note_on_c, 10, 41, 0
11, 33840, Note_on_c, 10, 41, 105
11, 34080, Note_on_c, 10, 41, 0
11, 34080, Note_on_c, 10, 42, 105
11, 34320, Note_on_c, 10, 42, 0
11, 34320, Note_on_c, 10, 42, 105
11, 34560, Note_on_c, 10, 42, 0
11, 34560, Note_on_c, 10, 43, 105
11, 34800, Note_on_c, 10, 43, 0
11, 34800, Note_on_c, 10, 47, 105
11, 35040, Note_on_c, 10, 47, 0
11, 35040, Note_on_c, 10, 50, 105
11, 35280, Note_on_c, 10, 50, 0
11, 35280, Note_on_c, 10, 43, 105
11, 35520, Note_on_c, 10, 43, 0
11, 35520, Note_on_c, 10, 48, 109
11, 35760, Note_on_c, 10, 48, 0
11, 35760, Note_on_c, 10, 43, 105
11, 36000, Note_on_c, 10, 43, 0
11, 36000, Note_on_c, 10, 40, 105
11, 36240, Note_on_c, 10, 40, 0
11, 36240, Note_on_c, 10, 36, 105
11, 36480, Note_on_c, 10, 36, 0
11, 36480, Note_on_c, 10, 43, 97
11, 36720, Note_on_c, 10, 43, 0
11, 36720, Note_on_c, 10, 47, 105
11, 36960, Note_on_c, 10, 47, 0
11, 36960, Note_on_c, 10, 50, 105
11, 37200, Note_on_c, 10, 50, 0
11, 37200, Note_on_c, 10, 43, 105
11, 37440, Note_on_c, 10, 43, 0
11, 37440, Note_on_c, 10, 48, 109
11, 37680, Note_on_c, 10, 48, 0
11, 37680, Note_on_c, 10, 43, 105
11, 37920, Note_on_c, 10, 43, 0
11, 37920, Note_on_c, 10, 40, 105
11, 38160, Note_on_c, 10, 40, 0
11, 38160, Note_on_c, 10, 36, 105
11, 38400, Note_on_c, 10, 36, 0
11, 38400, Note_on_c, 10, 31, 96
11, 38880, Note_on_c, 10, 31, 0
11, 38880, Note_on_c, 10, 43, 105
11, 39360, Note_on_c, 10, 43, 0
11, 39360, Note_on_c, 10, 31, 105
11, 39840, Note_on_c, 10, 31, 0
11, 42240, Control_c, 10, 0, 0
11, 42240, Control_c, 10, 32, 0
11, 42240, Program_c, 10, 45
11, 44160, Note_on_c, 10, 36, 105
11, 44640, Note_on_c, 10, 36, 0
11, 45120, Note_on_c, 10, 40, 105
11, 45600, Note_on_c, 10, 40, 0
11, 46080, Note_on_c, 10, 38, 105
11, 46560, Note_on_c, 10, 38, 0
11, 47040, Note_on_c, 10, 31, 105
11, 47520, Note_on_c, 10, 31, 0
11, 48000, Note_on_c, 10, 36, 105
11, 48480, Note_on_c, 10, 36, 0
11, 48960, Note_on_c, 10, 40, 105
11, 49440, Note_on_c, 10, 40, 0
11, 49920, Note_on_c, 10, 38, 105
11, 50400, Note_on_c, 10, 38, 0
11, 50880, Note_on_c, 10, 31, 105
11, 51360, Note_on_c, 10, 31, 0
11, 51840, Note_on_c, 10, 36, 105
11, 52320, Note_on_c, 10, 36, 0
11, 52800, Note_on_c, 10, 36, 105
11, 53280, Note_on_c, 10, 36, 0
11, 53760, Note_on_c, 10, 36, 105
11, 54240, Note_on_c, 10, 36, 0
11, 54720, Note_on_c, 10, 36, 105
11, 55200, Note_on_c, 10, 36, 0
11, 55680, Note_on_c, 10, 36, 105
11, 56160, Note_on_c, 10, 36, 0
11, 56640, Note_on_c, 10, 36, 105
11, 57120, Note_on_c, 10, 36, 0
11, 57600, Note_on_c, 10, 41, 105
11, 58080, Note_on_c, 10, 41, 0
11, 59520, Control_c, 10, 0, 0
11, 59520, Control_c, 10, 32, 0
11, 59520, Program_c, 10, 48
11, 61440, Note_on_c, 10, 43, 105
11, 61608, Note_on_c, 10, 43, 0
11, 61680, Note_on_c, 10, 43, 105
11, 61848, Note_on_c, 10, 43, 0
11, 61920, Note_on_c, 10, 43, 105
11, 62088, Note_on_c, 10, 43, 0
11, 62160, Note_on_c, 10, 43, 105
11, 62328, Note_on_c, 10, 43, 0
11, 62400, Note_on_c, 10, 43, 105
11, 62568, Note_on_c, 10, 43, 0
11, 62640, Note_on_c, 10, 43, 105
11, 62808, Note_on_c, 10, 43, 0
11, 62880, Note_on_c, 10, 43, 105
11, 63048, Note_on_c, 10, 43, 0
11, 63120, Note_on_c, 10, 43, 105
11, 63288, Note_on_c, 10, 43, 0
11, 63360, Note_on_c, 10, 43, 105
11, 63528, Note_on_c, 10, 43, 0
11, 63600, Note_on_c, 10, 43, 105
11, 63768, Note_on_c, 10, 43, 0
11, 63840, Note_on_c, 10, 43, 105
11, 64008, Note_on_c, 10, 43, 0
11, 64080, Note_on_c, 10, 43, 105
11, 64248, Note_on_c, 10, 43, 0
11, 64320, Note_on_c, 10, 43, 105
11, 64488, Note_on_c, 10, 43, 0
11, 64560, Note_on_c, 10, 43, 105
11, 64728, Note_on_c, 10, 43, 0
11, 64800, Note_on_c, 10, 43, 105
11, 64968, Note_on_c, 10, 43, 0
11, 65040, Note_on_c, 10, 43, 105
11, 65208, Note_on_c, 10, 43, 0
11, 65280, Note_on_c, 10, 36, 105
11, 65760, Note_on_c, 10, 36, 0
11, 72960, Note_on_c, 10, 40, 105
11, 73128, Note_on_c, 10, 40, 0
11, 73200, Note_on_c, 10, 40, 105
11, 73368, Note_on_c, 10, 40, 0
11, 73440, Note_on_c, 10, 40, 105
11, 73608, Note_on_c, 10, 40, 0
11, 73680, Note_on_c, 10, 40, 105
11, 73848, Note_on_c, 10, 40, 0
11, 73920, Note_on_c, 10, 41, 105
11, 74088, Note_on_c, 10, 41, 0
11, 74160, Note_on_c, 10, 41, 105
11, 74328, Note_on_c, 10, 41, 0
11, 74400, Note_on_c, 10, 41, 105
11, 74568, Note_on_c, 10, 41, 0
11, 74640, Note_on_c, 10, 41, 105
11, 74808, Note_on_c, 10, 41, 0
11, 74880, Note_on_c, 10, 43, 105
11, 75048, Note_on_c, 10, 43, 0
11, 75120, Note_on_c, 10, 43, 105
11, 75288, Note_on_c, 10, 43, 0
11, 75360, Note_on_c, 10, 43, 105
11, 75528, Note_on_c, 10, 43, 0
11, 75600, Note_on_c, 10, 43, 105
11, 75768, Note_on_c, 10, 43, 0
11, 75840, Note_on_c, 10, 43, 105
11, 76008, Note_on_c, 10, 43, 0
11, 76080, Note_on_c, 10, 43, 105
11, 76248, Note_on_c, 10, 43, 0
11, 76320, Note_on_c, 10, 31, 105
11, 76488, Note_on_c, 10, 31, 0
11, 76560, Note_on_c, 10, 31, 105
11, 76728, Note_on_c, 10, 31, 0
11, 76800, Note_on_c, 10, 36, 105
11, 77040, Note_on_c, 10, 36, 0
11, 77040, Note_on_c, 10, 40, 105
11, 77280, Note_on_c, 10, 40, 0
11, 77280, Note_on_c, 10, 43, 105
11, 77520, Note_on_c, 10, 43, 0
11, 77520, Note_on_c, 10, 40, 105
11, 77760, Note_on_c, 10, 40, 0
11, 77760, Note_on_c, 10, 36, 105
11, 78000, Note_on_c, 10, 36, 0
11, 78000, Note_on_c, 10, 40, 105
11, 78240, Note_on_c, 10, 40, 0
11, 78240, Note_on_c, 10, 43, 105
11, 78480, Note_on_c, 10, 43, 0
11, 78480, Note_on_c, 10, 40, 105
11, 78720, Note_on_c, 10, 40, 0
11, 78720, Note_on_c, 10, 36, 105
11, 78960, Note_on_c, 10, 36, 0
11, 78960, Note_on_c, 10, 40, 105
11, 79200, Note_on_c, 10, 40, 0
11, 79200, Note_on_c, 10, 43, 105
11, 79440, Note_on_c, 10, 43, 0
11, 79440, Note_on_c, 10, 40, 105
11, 79680, Note_on_c, 10, 40, 0
11, 79680, Note_on_c, 10, 36, 105
11, 79920, Note_on_c, 10, 36, 0
11, 79920, Note_on_c, 10, 40, 105
11, 80160, Note_on_c, 10, 40, 0
11, 80160, Note_on_c, 10, 43, 105
11, 80400, Note_on_c, 10, 43, 0
11, 80400, Note_on_c, 10, 40, 105
11, 80640, Note_on_c, 10, 40, 0
11, 80640, Note_on_c, 10, 36, 105
11, 81079, Note_on_c, 10, 36, 0
11, 81120, Note_on_c, 10, 48, 81
11, 81600, Note_on_c, 10, 47, 70
11, 81674, Note_on_c, 10, 48, 0
11, 82080, Note_on_c, 10, 45, 70
11, 82149, Note_on_c, 10, 47, 0
11, 82489, Note_on_c, 10, 45, 0
11, 82560, Note_on_c, 10, 43, 105
11, 82794, Note_on_c, 10, 43, 0
11, 83040, Note_on_c, 10, 41, 70
11, 83520, Note_on_c, 10, 40, 70
11, 83569, Note_on_c, 10, 41, 0
11, 84000, Note_on_c, 10, 38, 70
11, 84074, Note_on_c, 10, 40, 0
11, 84429, Note_on_c, 10, 38, 0
11, 84480, Note_on_c, 10, 36, 105
11, 85164, Note_on_c, 10, 36, 0
11, 85200, Note_on_c, 10, 43, 105
11, 85428, Note_on_c, 10, 43, 0
11, 85440, Note_on_c, 10, 40, 105
11, 85668, Note_on_c, 10, 40, 0
11, 85680, Note_on_c, 10, 36, 105
11, 85908, Note_on_c, 10, 36, 0
11, 85920, Note_on_c, 10, 40, 105
11, 86148, Note_on_c, 10, 40, 0
11, 86160, Note_on_c, 10, 43, 105
11, 86388, Note_on_c, 10, 43, 0
11, 86400, Note_on_c, 10, 48, 105
11, 87084, Note_on_c, 10, 48, 0
11, 87120, Note_on_c, 10, 43, 105
11, 87348, Note_on_c, 10, 43, 0
11, 87360, Note_on_c, 10, 40, 105
11, 87588, Note_on_c, 10, 40, 0
11, 87600, Note_on_c, 10, 36, 105
11, 87828, Note_on_c, 10, 36, 0
11, 87840, Note_on_c, 10, 40, 105
11, 88068, Note_on_c, 10, 40, 0
11, 88080, Note_on_c, 10, 43, 105
11, 88308, Note_on_c, 10, 43, 0
11, 88320, Note_on_c, 10, 48, 105
11, 88800, Note_on_c, 10, 48, 0
11, 88800, Note_on_c, 10, 36, 70
11, 89280, Note_on_c, 10, 35, 70
11, 89349, Note_on_c, 10, 36, 0
11, 89760, Note_on_c, 10, 36, 70
11, 89839, Note_on_c, 10, 35, 0
11, 90169, Note_on_c, 10, 36, 0
11, 90240, Note_on_c, 10, 38, 70
11, 90432, Note_on_c, 10, 38, 0
11, 90720, Note_on_c, 10, 38, 70
11, 91200, Note_on_c, 10, 37, 70
11, 91279, Note_on_c, 10, 38, 0
11, 91680, Note_on_c, 10, 38, 70
11, 91764, Note_on_c, 10, 37, 0
11, 92089, Note_on_c, 10, 38, 0
11, 92160, Note_on_c, 10, 40, 70
11, 92352, Note_on_c, 10, 40, 0
11, 92640, Note_on_c, 10, 40, 70
11, 93120, Note_on_c, 10, 39, 70
11, 93199, Note_on_c, 10, 40, 0
11, 93600, Note_on_c, 10, 40, 70
11, 93689, Note_on_c, 10, 39, 0
11, 94019, Note_on_c, 10, 40, 0
11, 94080, Note_on_c, 10, 41, 70
11, 94560, Note_on_c, 10, 43, 70
11, 94614, Note_on_c, 10, 41, 0
11, 95040, Note_on_c, 10, 45, 70
11, 95119, Note_on_c, 10, 43, 0
11, 95520, Note_on_c, 10, 47, 70
11, 95594, Note_on_c, 10, 45, 0
11, 95939, Note_on_c, 10, 47, 0
11, 96000, Note_on_c, 10, 48, 70
11, 96480, Note_on_c, 10, 48, 0
11, 103680, Note_on_c, 10, 36, 70
11, 104160, Note_on_c, 10, 36, 0
11, 105600, Note_on_c, 10, 36, 70
11, 106080, Note_on_c, 10, 36, 0
11, 107520, Note_on_c, 10, 36, 70
11, 108000, Note_on_c, 10, 36, 0
11, 109440, Note_on_c, 10, 41, 70
11, 110400, Note_on_c, 10, 43, 70
11, 110499, Note_on_c, 10, 41, 0
11, 111294, Note_on_c, 10, 43, 0
11, 111360, Note_on_c, 10, 36, 70
11, 111840, Note_on_c, 10, 36, 0
11, 113280, Note_on_c, 10, 36, 70
11, 113760, Note_on_c, 10, 36, 0
11, 115200, Note_on_c, 10, 36, 70
11, 115680, Note_on_c, 10, 36, 0
11, 117120, Note_on_c, 10, 43, 70
11, 118080, Note_on_c, 10, 43, 0
11, 118080, Note_on_c, 10, 31, 70
11, 119040, Note_on_c, 10, 31, 0
11, 119040, Note_on_c, 10, 36, 70
11, 119520, Note_on_c, 10, 36, 0
11, 128880, Note_on_c, 10, 43, 105
11, 128976, Note_on_c, 10, 43, 0
11, 129120, Note_on_c, 10, 47, 105
11, 129216, Note_on_c, 10, 47, 0
11, 129360, Note_on_c, 10, 43, 105
11, 129456, Note_on_c, 10, 43, 0
11, 129600, Note_on_c, 10, 38, 105
11, 129696, Note_on_c, 10, 38, 0
11, 129840, Note_on_c, 10, 43, 105
11, 129936, Note_on_c, 10, 43, 0
11, 130080, Note_on_c, 10, 35, 105
11, 130176, Note_on_c, 10, 35, 0
11, 130320, Note_on_c, 10, 38, 105
11, 130416, Note_on_c, 10, 38, 0
11, 130560, Note_on_c, 10, 31, 105
11, 131040, Note_on_c, 10, 31, 0
11, 147840, Control_c, 10, 0, 0
11, 147840, Control_c, 10, 32, 0
11, 147840, Program_c, 10, 45
11, 153600, Note_on_c, 10, 31, 70
11, 153840, Note_on_c, 10, 31, 0
11, 154080, Note_on_c, 10, 43, 70
11, 154320, Note_on_c, 10, 43, 0
11, 154560, Note_on_c, 10, 50, 70
11, 154800, Note_on_c, 10, 50, 0
11, 155040, Note_on_c, 10, 47, 70
11, 155280, Note_on_c, 10, 47, 0
11, 155520, Note_on_c, 10, 43, 70
11, 155760, Note_on_c, 10, 43, 0
11, 156000, Note_on_c, 10, 47, 70
11, 156240, Note_on_c, 10, 47, 0
11, 156480, Note_on_c, 10, 43, 70
11, 156720, Note_on_c, 10, 43, 0
11, 156960, Note_on_c, 10, 31, 70
11, 157200, Note_on_c, 10, 31, 0
11, 157440, Note_on_c, 10, 38, 70
11, 157920, Note_on_c, 10, 38, 0
11, 161280, Note_on_c, 10, 31, 70
11, 161520, Note_on_c, 10, 31, 0
11, 161760, Note_on_c, 10, 43, 70
11, 162000, Note_on_c, 10, 43, 0
11, 162240, Note_on_c, 10, 50, 70
11, 162480, Note_on_c, 10, 50, 0
11, 162720, Note_on_c, 10, 47, 70
11, 162960, Note_on_c, 10, 47, 0
11, 163200, Note_on_c, 10, 43, 70
11, 163440, Note_on_c, 10, 43, 0
11, 163680, Note_on_c, 10, 47, 70
11, 163920, Note_on_c, 10, 47, 0
11, 164160, Note_on_c, 10, 43, 70
11, 164400, Note_on_c, 10, 43, 0
11, 164640, Note_on_c, 10, 31, 70
11, 164880, Note_on_c, 10, 31, 0
11, 164880, Control_c, 10, 0, 0
11, 164880, Control_c, 10, 0, 0
11, 164880, Control_c, 10, 0, 0
11, 164880, Control_c, 10, 0, 0
11, 164880, Control_c, 10, 0, 0
11, 164880, Control_c, 10, 0, 0
11, 164880, Control_c, 10, 0, 0
11, 164880, Control_c, 10, 0, 0
11, 164880, Control_c, 10, 0, 0
11, 164880, Control_c, 10, 0, 0
11, 164880, Control_c, 10, 0, 0
11, 164880, Control_c, 10, 0, 0
11, 164880, Control_c, 10, 0, 0
11, 164880, Control_c, 10, 32, 0
11, 164880, Program_c, 10, 48
11, 165120, Note_on_c, 10, 38, 105
11, 165360, Note_on_c, 10, 38, 0
11, 165360, Note_on_c, 10, 42, 105
11, 165600, Note_on_c, 10, 42, 0
11, 165600, Note_on_c, 10, 45, 105
11, 165840, Note_on_c, 10, 45, 0
11, 165840, Note_on_c, 10, 38, 105
11, 166080, Note_on_c, 10, 38, 0
11, 166080, Note_on_c, 10, 43, 105
11, 166320, Note_on_c, 10, 43, 0
11, 166320, Note_on_c, 10, 38, 105
11, 166560, Note_on_c, 10, 38, 0
11, 166560, Note_on_c, 10, 35, 105
11, 166800, Note_on_c, 10, 35, 0
11, 166800, Note_on_c, 10, 31, 105
11, 167040, Note_on_c, 10, 31, 0
11, 167040, Note_on_c, 10, 38, 105
11, 167280, Note_on_c, 10, 38, 0
11, 167280, Note_on_c, 10, 42, 105
11, 167520, Note_on_c, 10, 42, 0
11, 167520, Note_on_c, 10, 45, 105
11, 167760, Note_on_c, 10, 45, 0
11, 167760, Note_on_c, 10, 38, 105
11, 168000, Note_on_c, 10, 38, 0
11, 168000, Note_on_c, 10, 43, 105
11, 168240, Note_on_c, 10, 43, 0
11, 168240, Note_on_c, 10, 50, 105
11, 168480, Note_on_c, 10, 50, 0
11, 168480, Note_on_c, 10, 47, 105
11, 168720, Note_on_c, 10, 47, 0
11, 168720, Note_on_c, 10, 43, 105
11, 168960, Note_on_c, 10, 43, 0
11, 168960, Note_on_c, 10, 38, 105
11, 169440, Note_on_c, 10, 38, 0
11, 169440, Note_on_c, 10, 50, 105
11, 169920, Note_on_c, 10, 50, 0
11, 169920, Note_on_c, 10, 38, 105
11, 170400, Note_on_c, 10, 38, 0
11, 172800, Control_c, 10, 0, 0
11, 172800, Control_c, 10, 32, 0
11, 172800, Program_c, 10, 45
11, 174720, Note_on_c, 10, 43, 70
11, 175200, Note_on_c, 10, 43, 0
11, 175680, Note_on_c, 10, 47, 70
11, 176160, Note_on_c, 10, 47, 0
11, 176640, Note_on_c, 10, 45, 70
11, 177120, Note_on_c, 10, 45, 0
11, 177600, Note_on_c, 10, 38, 70
11, 178080, Note_on_c, 10, 38, 0
11, 178560, Note_on_c, 10, 43, 70
11, 179040, Note_on_c, 10, 43, 0
11, 179520, Note_on_c, 10, 47, 70
11, 180000, Note_on_c, 10, 47, 0
11, 180480, Note_on_c, 10, 45, 70
11, 180960, Note_on_c, 10, 45, 0
11, 181440, Note_on_c, 10, 38, 70
11, 181920, Note_on_c, 10, 38, 0
11, 182400, Note_on_c, 10, 43, 70
11, 182880, Note_on_c, 10, 43, 0
11, 183360, Note_on_c, 10, 43, 70
11, 183840, Note_on_c, 10, 43, 0
11, 184320, Note_on_c, 10, 43, 70
11, 184800, Note_on_c, 10, 43, 0
11, 185280, Note_on_c, 10, 43, 70
11, 185760, Note_on_c, 10, 43, 0
11, 186240, Note_on_c, 10, 43, 70
11, 186720, Note_on_c, 10, 43, 0
11, 187200, Note_on_c, 10, 43, 70
11, 187680, Note_on_c, 10, 43, 0
11, 190080, Control_c, 10, 0, 0
11, 190080, Control_c, 10, 32, 0
11, 190080, Program_c, 10, 48
11, 192000, Note_on_c, 10, 45, 70
11, 192480, Note_on_c, 10, 45, 0
11, 192960, Note_on_c, 10, 38, 70
11, 193440, Note_on_c, 10, 38, 0
11, 193920, Note_on_c, 10, 43, 70
11, 194400, Note_on_c, 10, 43, 0
11, 194880, Note_on_c, 10, 40, 70
11, 195360, Note_on_c, 10, 40, 0
11, 195840, Note_on_c, 10, 36, 70
11, 196800, Note_on_c, 10, 38, 70
11, 196889, Note_on_c, 10, 36, 0
11, 197689, Note_on_c, 10, 38, 0
11, 197760, Note_on_c, 10, 43, 70
11, 197856, Note_on_c, 10, 43, 0
11, 198000, Note_on_c, 10, 45, 72
11, 198096, Note_on_c, 10, 45, 0
11, 198240, Note_on_c, 10, 47, 74
11, 198336, Note_on_c, 10, 47, 0
11, 198480, Note_on_c, 10, 48, 76
11, 198576, Note_on_c, 10, 48, 0
11, 198720, Note_on_c, 10, 50, 78
11, 199200, Note_on_c, 10, 50, 0
11, 224640, Note_on_c, 10, 35, 70
11, 225600, Note_on_c, 10, 36, 70
11, 225694, Note_on_c, 10, 35, 0
11, 226494, Note_on_c, 10, 36, 0
11, 226560, Note_on_c, 10, 38, 70
11, 227040, Note_on_c, 10, 38, 0
11, 227520, Note_on_c, 10, 38, 70
11, 228000, Note_on_c, 10, 38, 0
11, 228480, Note_on_c, 10, 38, 70
11, 228648, Note_on_c, 10, 38, 0
11, 228720, Note_on_c, 10, 38, 73
11, 228888, Note_on_c, 10, 38, 0
11, 228960, Note_on_c, 10, 38, 77
11, 229128, Note_on_c, 10, 38, 0
11, 229200, Note_on_c, 10, 38, 81
11, 229368, Note_on_c, 10, 38, 0
11, 229440, Note_on_c, 10, 38, 85
11, 229608, Note_on_c, 10, 38, 0
11, 229680, Note_on_c, 10, 38, 89
11, 229848, Note_on_c, 10, 38, 0
11, 229920, Note_on_c, 10, 38, 93
11, 230088, Note_on_c, 10, 38, 0
11, 230160, Note_on_c, 10, 38, 97
11, 230328, Note_on_c, 10, 38, 0
11, 230400, Note_on_c, 10, 43, 101
11, 230568, Note_on_c, 10, 43, 0
11, 230640, Note_on_c, 10, 43, 105
11, 230808, Note_on_c, 10, 43, 0
11, 230880, Note_on_c, 10, 43, 105
11, 231048, Note_on_c, 10, 43, 0
11, 231120, Note_on_c, 10, 43, 105
11, 231288, Note_on_c, 10, 43, 0
11, 231360, Note_on_c, 10, 43, 105
11, 231528, Note_on_c, 10, 43, 0
11, 231600, Note_on_c, 10, 43, 105
11, 231768, Note_on_c, 10, 43, 0
11, 231840, Note_on_c, 10, 43, 105
11, 232008, Note_on_c, 10, 43, 0
11, 232080, Note_on_c, 10, 43, 105
11, 232248, Note_on_c, 10, 43, 0
11, 232320, Note_on_c, 10, 43, 105
11, 232488, Note_on_c, 10, 43, 0
11, 232560, Note_on_c, 10, 43, 105
11, 232728, Note_on_c, 10, 43, 0
11, 232800, Note_on_c, 10, 43, 105
11, 232968, Note_on_c, 10, 43, 0
11, 233040, Note_on_c, 10, 43, 105
11, 233208, Note_on_c, 10, 43, 0
11, 233280, Note_on_c, 10, 43, 105
11, 233448, Note_on_c, 10, 43, 0
11, 233520, Note_on_c, 10, 43, 105
11, 233688, Note_on_c, 10, 43, 0
11, 233760, Note_on_c, 10, 43, 105
11, 233928, Note_on_c, 10, 43, 0
11, 234000, Note_on_c, 10, 43, 105
11, 234168, Note_on_c, 10, 43, 0
11, 234240, Note_on_c, 10, 43, 105
11, 234408, Note_on_c, 10, 43, 0
11, 234480, Note_on_c, 10, 43, 105
11, 234648, Note_on_c, 10, 43, 0
11, 234720, Note_on_c, 10, 43, 70
11, 234888, Note_on_c, 10, 43, 0
11, 234960, Note_on_c, 10, 43, 70
11, 235128, Note_on_c, 10, 43, 0
11, 235200, Note_on_c, 10, 43, 70
11, 235368, Note_on_c, 10, 43, 0
11, 235440, Note_on_c, 10, 43, 70
11, 235608, Note_on_c, 10, 43, 0
11, 235680, Note_on_c, 10, 43, 70
11, 235848, Note_on_c, 10, 43, 0
11, 235920, Note_on_c, 10, 43, 70
11, 236088, Note_on_c, 10, 43, 0
11, 236160, Note_on_c, 10, 43, 70
11, 236328, Note_on_c, 10, 43, 0
11, 236400, Note_on_c, 10, 43, 70
11, 236568, Note_on_c, 10, 43, 0
11, 236640, Note_on_c, 10, 43, 70
11, 236808, Note_on_c, 10, 43, 0
11, 236880, Note_on_c, 10, 43, 70
11, 237048, Note_on_c, 10, 43, 0
11, 237120, Note_on_c, 10, 43, 70
11, 237288, Note_on_c, 10, 43, 0
11, 237360, Note_on_c, 10, 43, 70
11, 237528, Note_on_c, 10, 43, 0
11, 237600, Note_on_c, 10, 43, 105
11, 237768, Note_on_c, 10, 43, 0
11, 237840, Note_on_c, 10, 43, 105
11, 238008, Note_on_c, 10, 43, 0
11, 238080, Note_on_c, 10, 42, 105
11, 238320, Note_on_c, 10, 42, 0
11, 238320, Note_on_c, 10, 45, 105
11, 238560, Note_on_c, 10, 45, 0
11, 238560, Note_on_c, 10, 42, 105
11, 238800, Note_on_c, 10, 42, 0
11, 238800, Note_on_c, 10, 38, 105
11, 239040, Note_on_c, 10, 38, 0
11, 239040, Note_on_c, 10, 42, 105
11, 239280, Note_on_c, 10, 42, 0
11, 239280, Note_on_c, 10, 45, 105
11, 239520, Note_on_c, 10, 45, 0
11, 239520, Note_on_c, 10, 42, 105
11, 239760, Note_on_c, 10, 42, 0
11, 239760, Note_on_c, 10, 38, 105
11, 240000, Note_on_c, 10, 38, 0
11, 240000, Note_on_c, 10, 43, 105
11, 240240, Note_on_c, 10, 43, 0
11, 240240, Note_on_c, 10, 47, 105
11, 240480, Note_on_c, 10, 47, 0
11, 240480, Note_on_c, 10, 43, 105
11, 240720, Note_on_c, 10, 43, 0
11, 240720, Note_on_c, 10, 38, 105
11, 240960, Note_on_c, 10, 38, 0
11, 240960, Note_on_c, 10, 35, 105
11, 241200, Note_on_c, 10, 35, 0
11, 241200, Note_on_c, 10, 38, 105
11, 241440, Note_on_c, 10, 38, 0
11, 241440, Note_on_c, 10, 35, 105
11, 241680, Note_on_c, 10, 35, 0
11, 241680, Note_on_c, 10, 31, 105
11, 241920, Note_on_c, 10, 31, 0
11, 241920, Note_on_c, 10, 36, 105
11, 242088, Note_on_c, 10, 36, 0
11, 242160, Note_on_c, 10, 36, 105
11, 242328, Note_on_c, 10, 36, 0
11, 242400, Note_on_c, 10, 36, 105
11, 242568, Note_on_c, 10, 36, 0
11, 242640, Note_on_c, 10, 36, 105
11, 242808, Note_on_c, 10, 36, 0
11, 242880, Note_on_c, 10, 38, 105
11, 243048, Note_on_c, 10, 38, 0
11, 243120, Note_on_c, 10, 38, 105
11, 243288, Note_on_c, 10, 38, 0
11, 243360, Note_on_c, 10, 38, 105
11, 243528, Note_on_c, 10, 38, 0
11, 243600, Note_on_c, 10, 38, 105
11, 243768, Note_on_c, 10, 38, 0
11, 243840, Note_on_c, 10, 35, 105
11, 244008, Note_on_c, 10, 35, 0
11, 244080, Note_on_c, 10, 35, 105
11, 244248, Note_on_c, 10, 35, 0
11, 244320, Note_on_c, 10, 35, 105
11, 244488, Note_on_c, 10, 35, 0
11, 244560, Note_on_c, 10, 35, 105
11, 244728, Note_on_c, 10, 35, 0
11, 244800, Note_on_c, 10, 36, 105
11, 244968, Note_on_c, 10, 36, 0
11, 245040, Note_on_c, 10, 36, 105
11, 245208, Note_on_c, 10, 36, 0
11, 245280, Note_on_c, 10, 36, 105
11, 245448, Note_on_c, 10, 36, 0
11, 245520, Note_on_c, 10, 36, 105
11, 245688, Note_on_c, 10, 36, 0
11, 245760, Note_on_c, 10, 38, 105
11, 245928, Note_on_c, 10, 38, 0
11, 246000, Note_on_c, 10, 38, 105
11, 246168, Note_on_c, 10, 38, 0
11, 246240, Note_on_c, 10, 38, 105
11, 246408, Note_on_c, 10, 38, 0
11, 246480, Note_on_c, 10, 38, 105
11, 246648, Note_on_c, 10, 38, 0
11, 246720, Note_on_c, 10, 38, 105
11, 246888, Note_on_c, 10, 38, 0
11, 246960, Note_on_c, 10, 38, 105
11, 247128, Note_on_c, 10, 38, 0
11, 247200, Note_on_c, 10, 38, 105
11, 247368, Note_on_c, 10, 38, 0
11, 247440, Note_on_c, 10, 38, 105
11, 247608, Note_on_c, 10, 38, 0
11, 247680, Note_on_c, 10, 38, 105
11, 247848, Note_on_c, 10, 38, 0
11, 247920, Note_on_c, 10, 38, 105
11, 248088, Note_on_c, 10, 38, 0
11, 248160, Note_on_c, 10, 38, 105
11, 248328, Note_on_c, 10, 38, 0
11, 248400, Note_on_c, 10, 38, 105
11, 248568, Note_on_c, 10, 38, 0
11, 248640, Note_on_c, 10, 38, 105
11, 248808, Note_on_c, 10, 38, 0
11, 248880, Note_on_c, 10, 38, 105
11, 249048, Note_on_c, 10, 38, 0
11, 249120, Note_on_c, 10, 38, 105
11, 249288, Note_on_c, 10, 38, 0
11, 249360, Note_on_c, 10, 38, 105
11, 249528, Note_on_c, 10, 38, 0
11, 249600, Note_on_c, 10, 31, 105
11, 250080, Note_on_c, 10, 31, 0
11, 250080, Note_on_c, 10, 43, 70
11, 250560, Note_on_c, 10, 42, 70
11, 250634, Note_on_c, 10, 43, 0
11, 251040, Note_on_c, 10, 40, 70
11, 251109, Note_on_c, 10, 42, 0
11, 251479, Note_on_c, 10, 40, 0
11, 251520, Note_on_c, 10, 39, 105
11, 251764, Note_on_c, 10, 39, 0
11, 252000, Note_on_c, 10, 40, 70
11, 252480, Note_on_c, 10, 38, 70
11, 252549, Note_on_c, 10, 40, 0
11, 252960, Note_on_c, 10, 36, 70
11, 253029, Note_on_c, 10, 38, 0
11, 253389, Note_on_c, 10, 36, 0
11, 253440, Note_on_c, 10, 35, 105
11, 253689, Note_on_c, 10, 35, 0
11, 253920, Note_on_c, 10, 36, 70
11, 254400, Note_on_c, 10, 35, 70
11, 254464, Note_on_c, 10, 36, 0
11, 254880, Note_on_c, 10, 33, 70
11, 254959, Note_on_c, 10, 35, 0
11, 255304, Note_on_c, 10, 33, 0
11, 255360, Note_on_c, 10, 32, 105
11, 255840, Note_on_c, 10, 32, 0
11, 256320, Note_on_c, 10, 32, 70
11, 256800, Note_on_c, 10, 32, 0
11, 257280, Note_on_c, 10, 33, 70
11, 257760, Note_on_c, 10, 33, 0
11, 258240, Note_on_c, 10, 33, 70
11, 258720, Note_on_c, 10, 33, 0
11, 259200, Note_on_c, 10, 35, 70
11, 259680, Note_on_c, 10, 35, 0
11, 260160, Note_on_c, 10, 35, 70
11, 260640, Note_on_c, 10, 35, 0
11, 261120, Note_on_c, 10, 36, 70
11, 261600, Note_on_c, 10, 36, 0
11, 262080, Note_on_c, 10, 36, 70
11, 262560, Note_on_c, 10, 36, 0
11, 263040, Note_on_c, 10, 38, 70
11, 264000, Note_on_c, 10, 38, 0
11, 264000, Note_on_c, 10, 40, 70
11, 264480, Note_on_c, 10, 40, 0
11, 264480, Note_on_c, 10, 40, 70
11, 264960, Note_on_c, 10, 40, 0
11, 264960, Note_on_c, 10, 45, 70
11, 265152, Note_on_c, 10, 45, 0
11, 265440, Note_on_c, 10, 47, 70
11, 265632, Note_on_c, 10, 47, 0
11, 265920, Note_on_c, 10, 48, 70
11, 266112, Note_on_c, 10, 48, 0
11, 266880, Note_on_c, 10, 50, 70
11, 267840, Note_on_c, 10, 50, 0
11, 267840, Note_on_c, 10, 52, 70
11, 268320, Note_on_c, 10, 52, 0
11, 268320, Note_on_c, 10, 40, 70
11, 268800, Note_on_c, 10, 40, 0
11, 268800, Note_on_c, 10, 45, 105
11, 268992, Note_on_c, 10, 45, 0
11, 269280, Note_on_c, 10, 48, 70
11, 269760, Note_on_c, 10, 47, 70
11, 269854, Note_on_c, 10, 48, 0
11, 270240, Note_on_c, 10, 45, 70
11, 270309, Note_on_c, 10, 47, 0
11, 270684, Note_on_c, 10, 45, 0
11, 270720, Note_on_c, 10, 44, 105
11, 270912, Note_on_c, 10, 44, 0
11, 271200, Note_on_c, 10, 45, 70
11, 271680, Note_on_c, 10, 43, 70
11, 271749, Note_on_c, 10, 45, 0
11, 272160, Note_on_c, 10, 41, 70
11, 272229, Note_on_c, 10, 43, 0
11, 272599, Note_on_c, 10, 41, 0
11, 272640, Note_on_c, 10, 40, 105
11, 272832, Note_on_c, 10, 40, 0
11, 273120, Note_on_c, 10, 41, 70
11, 273600, Note_on_c, 10, 40, 70
11, 273684, Note_on_c, 10, 41, 0
11, 274080, Note_on_c, 10, 38, 70
11, 274149, Note_on_c, 10, 40, 0
11, 274524, Note_on_c, 10, 38, 0
11, 274560, Note_on_c, 10, 37, 105
11, 275040, Note_on_c, 10, 37, 0
11, 275520, Note_on_c, 10, 37, 70
11, 276000, Note_on_c, 10, 37, 0
11, 276480, Note_on_c, 10, 38, 70
11, 276960, Note_on_c, 10, 38, 0
11, 277440, Note_on_c, 10, 38, 70
11, 277920, Note_on_c, 10, 38, 0
11, 278400, Note_on_c, 10, 40, 70
11, 278880, Note_on_c, 10, 40, 0
11, 279360, Note_on_c, 10, 40, 70
11, 279840, Note_on_c, 10, 40, 0
11, 280320, Note_on_c, 10, 41, 70
11, 280800, Note_on_c, 10, 41, 0
11, 281280, Note_on_c, 10, 41, 70
11, 281760, Note_on_c, 10, 41, 0
11, 282240, Note_on_c, 10, 43, 70
11, 283200, Note_on_c, 10, 43, 0
11, 283200, Note_on_c, 10, 45, 70
11, 283680, Note_on_c, 10, 45, 0
11, 283680, Note_on_c, 10, 45, 70
11, 284160, Note_on_c, 10, 45, 0
11, 284160, Note_on_c, 10, 38, 70
11, 284352, Note_on_c, 10, 38, 0
11, 284640, Note_on_c, 10, 40, 70
11, 284832, Note_on_c, 10, 40, 0
11, 285120, Note_on_c, 10, 41, 70
11, 285312, Note_on_c, 10, 41, 0
11, 286080, Note_on_c, 10, 46, 70
11, 287040, Note_on_c, 10, 46, 0
11, 287040, Note_on_c, 10, 45, 70
11, 287520, Note_on_c, 10, 45, 0
11, 287520, Note_on_c, 10, 33, 70
11, 288000, Note_on_c, 10, 33, 0
11, 288000, Note_on_c, 10, 38, 70
11, 288480, Note_on_c, 10, 38, 0
11, 318720, Note_on_c, 10, 43, 70
11, 319200, Note_on_c, 10, 43, 0
11, 319680, Note_on_c, 10, 43, 70
11, 320160, Note_on_c, 10, 43, 0
11, 320640, Note_on_c, 10, 43, 80
11, 321120, Note_on_c, 10, 43, 0
11, 321600, Note_on_c, 10, 43, 90
11, 322080, Note_on_c, 10, 43, 0
11, 322560, Note_on_c, 10, 43, 105
11, 323040, Note_on_c, 10, 43, 0
11, 323520, Note_on_c, 10, 43, 105
11, 324000, Note_on_c, 10, 43, 0
11, 324480, Note_on_c, 10, 48, 105
11, 325164, Note_on_c, 10, 48, 0
11, 325200, Note_on_c, 10, 43, 105
11, 325428, Note_on_c, 10, 43, 0
11, 325440, Note_on_c, 10, 40, 105
11, 325668, Note_on_c, 10, 40, 0
11, 325680, Note_on_c, 10, 36, 105
11, 325908, Note_on_c, 10, 36, 0
11, 325920, Note_on_c, 10, 40, 105
11, 326148, Note_on_c, 10, 40, 0
11, 326160, Note_on_c, 10, 43, 105
11, 326388, Note_on_c, 10, 43, 0
11, 326400, Note_on_c, 10, 48, 105
11, 327084, Note_on_c, 10, 48, 0
11, 327120, Note_on_c, 10, 43, 105
11, 327348, Note_on_c, 10, 43, 0
11, 327360, Note_on_c, 10, 40, 105
11, 327588, Note_on_c, 10, 40, 0
11, 327600, Note_on_c, 10, 36, 105
11, 327828, Note_on_c, 10, 36, 0
11, 327840, Note_on_c, 10, 40, 105
11, 328068, Note_on_c, 10, 40, 0
11, 328080, Note_on_c, 10, 43, 105
11, 328308, Note_on_c, 10, 43, 0
11, 328320, Note_on_c, 10, 48, 105
11, 328800, Note_on_c, 10, 48, 0
11, 328800, Note_on_c, 10, 36, 70
11, 329280, Note_on_c, 10, 35, 70
11, 329349, Note_on_c, 10, 36, 0
11, 329760, Note_on_c, 10, 36, 70
11, 329829, Note_on_c, 10, 35, 0
11, 330204, Note_on_c, 10, 36, 0
11, 330240, Note_on_c, 10, 38, 105
11, 330432, Note_on_c, 10, 38, 0
11, 330720, Note_on_c, 10, 38, 70
11, 331200, Note_on_c, 10, 37, 70
11, 331269, Note_on_c, 10, 38, 0
11, 331680, Note_on_c, 10, 38, 70
11, 331749, Note_on_c, 10, 37, 0
11, 332114, Note_on_c, 10, 38, 0
11, 332160, Note_on_c, 10, 40, 105
11, 332352, Note_on_c, 10, 40, 0
11, 332640, Note_on_c, 10, 40, 70
11, 333120, Note_on_c, 10, 39, 70
11, 333179, Note_on_c, 10, 40, 0
11, 333600, Note_on_c, 10, 40, 70
11, 333679, Note_on_c, 10, 39, 0
11, 334034, Note_on_c, 10, 40, 0
11, 334080, Note_on_c, 10, 41, 70
11, 334560, Note_on_c, 10, 43, 80
11, 334619, Note_on_c, 10, 41, 0
11, 335040, Note_on_c, 10, 45, 90
11, 335099, Note_on_c, 10, 43, 0
11, 335520, Note_on_c, 10, 47, 90
11, 335599, Note_on_c, 10, 45, 0
11, 335959, Note_on_c, 10, 47, 0
11, 336000, Note_on_c, 10, 48, 105
11, 336480, Note_on_c, 10, 48, 0
11, 361200, Note_on_c, 10, 43, 105
11, 361296, Note_on_c, 10, 43, 0
11, 361440, Note_on_c, 10, 47, 105
11, 361536, Note_on_c, 10, 47, 0
11, 361680, Note_on_c, 10, 43, 105
11, 361776, Note_on_c, 10, 43, 0
11, 361920, Note_on_c, 10, 38, 105
11, 362016, Note_on_c, 10, 38, 0
11, 362160, Note_on_c, 10, 43, 105
11, 362256, Note_on_c, 10, 43, 0
11, 362400, Note_on_c, 10, 35, 105
11, 362496, Note_on_c, 10, 35, 0
11, 362640, Note_on_c, 10, 38, 105
11, 362736, Note_on_c, 10, 38, 0
11, 362880, Note_on_c, 10, 31, 105
11, 363360, Note_on_c, 10, 31, 0
11, 382080, Note_on_c, 10, 41, 70
11, 383479, Note_on_c, 10, 41, 0
11, 383520, Note_on_c, 10, 37, 70
11, 383979, Note_on_c, 10, 37, 0
11, 384000, Note_on_c, 10, 38, 70
11, 384480, Note_on_c, 10, 40, 70
11, 384539, Note_on_c, 10, 38, 0
11, 384960, Note_on_c, 10, 41, 70
11, 385049, Note_on_c, 10, 40, 0
11, 385440, Note_on_c, 10, 42, 70
11, 385519, Note_on_c, 10, 41, 0
11, 385854, Note_on_c, 10, 42, 0
11, 385920, Note_on_c, 10, 43, 70
11, 386400, Note_on_c, 10, 43, 0
11, 387840, Control_c, 10, 0, 0
11, 387840, Control_c, 10, 32, 0
11, 387840, Program_c, 10, 45
11, 389760, Note_on_c, 10, 36, 70
11, 390000, Note_on_c, 10, 36, 0
11, 390240, Note_on_c, 10, 48, 70
11, 390480, Note_on_c, 10, 48, 0
11, 390720, Note_on_c, 10, 43, 70
11, 390960, Note_on_c, 10, 43, 0
11, 391200, Note_on_c, 10, 40, 70
11, 391440, Note_on_c, 10, 40, 0
11, 391680, Note_on_c, 10, 36, 70
11, 391920, Note_on_c, 10, 36, 0
11, 392160, Note_on_c, 10, 40, 70
11, 392400, Note_on_c, 10, 40, 0
11, 392640, Note_on_c, 10, 43, 70
11, 392880, Note_on_c, 10, 43, 0
11, 393120, Note_on_c, 10, 48, 70
11, 393360, Note_on_c, 10, 48, 0
11, 393600, Note_on_c, 10, 43, 70
11, 394080, Note_on_c, 10, 43, 0
11, 397440, Note_on_c, 10, 36, 70
11, 397680, Note_on_c, 10, 36, 0
11, 397920, Note_on_c, 10, 48, 70
11, 398160, Note_on_c, 10, 48, 0
11, 398400, Note_on_c, 10, 43, 70
11, 398640, Note_on_c, 10, 43, 0
11, 398880, Note_on_c, 10, 40, 70
11, 399120, Note_on_c, 10, 40, 0
11, 399360, Note_on_c, 10, 36, 70
11, 399600, Note_on_c, 10, 36, 0
11, 399840, Note_on_c, 10, 40, 70
11, 400080, Note_on_c, 10, 40, 0
11, 400320, Note_on_c, 10, 43, 70
11, 400560, Note_on_c, 10, 43, 0
11, 400800, Note_on_c, 10, 48, 70
11, 401040, Note_on_c, 10, 48, 0
11, 401045, Control_c, 10, 0, 0
11, 401045, Control_c, 10, 0, 0
11, 401045, Control_c, 10, 0, 0
11, 401045, Control_c, 10, 0, 0
11, 401045, Control_c, 10, 0, 0
11, 401045, Control_c, 10, 0, 0
11, 401045, Control_c, 10, 0, 0
11, 401045, Control_c, 10, 0, 0
11, 401045, Control_c, 10, 0, 0
11, 401045, Control_c, 10, 0, 0
11, 401045, Control_c, 10, 0, 0
11, 401045, Control_c, 10, 0, 0
11, 401045, Control_c, 10, 0, 0
11, 401045, Control_c, 10, 32, 0
11, 401045, Program_c, 10, 48
11, 401280, Note_on_c, 10, 43, 105
11, 401520, Note_on_c, 10, 43, 0
11, 401520, Note_on_c, 10, 47, 105
11, 401760, Note_on_c, 10, 47, 0
11, 401760, Note_on_c, 10, 50, 105
11, 402000, Note_on_c, 10, 50, 0
11, 402000, Note_on_c, 10, 43, 105
11, 402240, Note_on_c, 10, 43, 0
11, 402240, Note_on_c, 10, 48, 105
11, 402480, Note_on_c, 10, 48, 0
11, 402480, Note_on_c, 10, 43, 105
11, 402720, Note_on_c, 10, 43, 0
11, 402720, Note_on_c, 10, 40, 105
11, 402960, Note_on_c, 10, 40, 0
11, 402960, Note_on_c, 10, 36, 105
11, 403200, Note_on_c, 10, 36, 0
11, 403200, Note_on_c, 10, 43, 105
11, 403440, Note_on_c, 10, 43, 0
11, 403440, Note_on_c, 10, 47, 105
11, 403680, Note_on_c, 10, 47, 0
11, 403680, Note_on_c, 10, 50, 105
11, 403920, Note_on_c, 10, 50, 0
11, 403920, Note_on_c, 10, 43, 105
11, 404160, Note_on_c, 10, 43, 0
11, 404160, Note_on_c, 10, 48, 105
11, 404400, Note_on_c, 10, 48, 0
11, 404400, Note_on_c, 10, 43, 105
11, 404640, Note_on_c, 10, 43, 0
11, 404640, Note_on_c, 10, 40, 105
11, 404880, Note_on_c, 10, 40, 0
11, 404880, Note_on_c, 10, 36, 105
11, 405120, Note_on_c, 10, 36, 0
11, 405120, Note_on_c, 10, 31, 105
11, 405600, Note_on_c, 10, 31, 0
11, 405600, Note_on_c, 10, 43, 105
11, 406080, Note_on_c, 10, 43, 0
11, 406080, Note_on_c, 10, 31, 105
11, 406560, Note_on_c, 10, 31, 0
11, 408960, Control_c, 10, 0, 0
11, 408960, Control_c, 10, 32, 0
11, 408960, Program_c, 10, 45
11, 410880, Note_on_c, 10, 36, 70
11, 411360, Note_on_c, 10, 36, 0
11, 411840, Note_on_c, 10, 40, 70
11, 412320, Note_on_c, 10, 40, 0
11, 412800, Note_on_c, 10, 38, 70
11, 413280, Note_on_c, 10, 38, 0
11, 413760, Note_on_c, 10, 31, 70
11, 414240, Note_on_c, 10, 31, 0
11, 414720, Note_on_c, 10, 36, 70
11, 415200, Note_on_c, 10, 36, 0
11, 415680, Note_on_c, 10, 40, 70
11, 416160, Note_on_c, 10, 40, 0
11, 416640, Note_on_c, 10, 38, 70
11, 417120, Note_on_c, 10, 38, 0
11, 417600, Note_on_c, 10, 31, 70
11, 418080, Note_on_c, 10, 31, 0
11, 418560, Note_on_c, 10, 36, 70
11, 419040, Note_on_c, 10, 36, 0
11, 419520, Note_on_c, 10, 36, 70
11, 420000, Note_on_c, 10, 36, 0
11, 420480, Note_on_c, 10, 36, 70
11, 420960, Note_on_c, 10, 36, 0
11, 421440, Note_on_c, 10, 36, 70
11, 421920, Note_on_c, 10, 36, 0
11, 422400, Note_on_c, 10, 36, 70
11, 422880, Note_on_c, 10, 36, 0
11, 423360, Note_on_c, 10, 36, 70
11, 423840, Note_on_c, 10, 36, 0
11, 424320, Control_c, 10, 0, 0
11, 424320, Control_c, 10, 32, 0
11, 424320, Program_c, 10, 48
11, 428160, Note_on_c, 10, 38, 70
11, 429120, Note_on_c, 10, 43, 70
11, 429194, Note_on_c, 10, 38, 0
11, 429999, Note_on_c, 10, 43, 0
11, 430080, Note_on_c, 10, 36, 70
11, 431040, Note_on_c, 10, 45, 70
11, 431124, Note_on_c, 10, 36, 0
11, 431929, Note_on_c, 10, 45, 0
11, 432000, Note_on_c, 10, 41, 70
11, 432960, Note_on_c, 10, 43, 70
11, 433044, Note_on_c, 10, 41, 0
11, 433854, Note_on_c, 10, 43, 0
11, 433920, Note_on_c, 10, 36, 69
11, 434016, Note_on_c, 10, 36, 0
11, 434160, Note_on_c, 10, 38, 72
11, 434256, Note_on_c, 10, 38, 0
11, 434400, Note_on_c, 10, 40, 75
11, 434496, Note_on_c, 10, 40, 0
11, 434640, Note_on_c, 10, 41, 79
11, 434736, Note_on_c, 10, 41, 0
11, 434880, Note_on_c, 10, 43, 82
11, 435360, Note_on_c, 10, 43, 0
11, 441600, Note_on_c, 10, 36, 70
11, 442080, Note_on_c, 10, 36, 0
11, 462720, Note_on_c, 10, 43, 70
11, 463200, Note_on_c, 10, 43, 0
11, 463680, Note_on_c, 10, 43, 70
11, 464160, Note_on_c, 10, 43, 0
11, 464640, Note_on_c, 10, 43, 71
11, 464808, Note_on_c, 10, 43, 0
11, 464880, Note_on_c, 10, 43, 75
11, 465048, Note_on_c, 10, 43, 0
11, 465120, Note_on_c, 10, 43, 79
11, 465288, Note_on_c, 10, 43, 0
11, 465360, Note_on_c, 10, 43, 84
11, 465528, Note_on_c, 10, 43, 0
11, 465600, Note_on_c, 10, 43, 88
11, 465768, Note_on_c, 10, 43, 0
11, 465840, Note_on_c, 10, 43, 92
11, 466008, Note_on_c, 10, 43, 0
11, 466080, Note_on_c, 10, 43, 97
11, 466248, Note_on_c, 10, 43, 0
11, 466320, Note_on_c, 10, 43, 101
11, 466488, Note_on_c, 10, 43, 0
11, 466560, Note_on_c, 10, 36, 105
11, 467016, Note_on_c, 10, 36, 0
11, 467520, Note_on_c, 10, 48, 105
11, 468204, Note_on_c, 10, 48, 0
11, 468240, Note_on_c, 10, 43, 105
11, 468468, Note_on_c, 10, 43, 0
11, 468480, Note_on_c, 10, 40, 105
11, 468708, Note_on_c, 10, 40, 0
11, 468720, Note_on_c, 10, 36, 105
11, 468948, Note_on_c, 10, 36, 0
11, 468960, Note_on_c, 10, 40, 105
11, 469188, Note_on_c, 10, 40, 0
11, 469200, Note_on_c, 10, 43, 105
11, 469428, Note_on_c, 10, 43, 0
11, 469440, Note_on_c, 10, 48, 105
11, 470124, Note_on_c, 10, 48, 0
11, 470160, Note_on_c, 10, 43, 105
11, 470388, Note_on_c, 10, 43, 0
11, 470400, Note_on_c, 10, 40, 105
11, 470640, Note_on_c, 10, 40, 0
11, 470640, Note_on_c, 10, 36, 105
11, 470880, Note_on_c, 10, 36, 0
11, 470880, Note_on_c, 10, 40, 105
11, 471120, Note_on_c, 10, 40, 0
11, 471120, Note_on_c, 10, 43, 105
11, 471360, Note_on_c, 10, 43, 0
11, 471360, Note_on_c, 10, 48, 105
11, 471600, Note_on_c, 10, 48, 0
11, 471600, Note_on_c, 10, 45, 105
11, 471840, Note_on_c, 10, 45, 0
11, 471840, Note_on_c, 10, 48, 105
11, 472080, Note_on_c, 10, 48, 0
11, 472080, Note_on_c, 10, 52, 105
11, 472320, Note_on_c, 10, 52, 0
11, 472320, Note_on_c, 10, 45, 105
11, 472560, Note_on_c, 10, 45, 0
11, 472560, Note_on_c, 10, 41, 105
11, 472800, Note_on_c, 10, 41, 0
11, 472800, Note_on_c, 10, 45, 105
11, 473040, Note_on_c, 10, 45, 0
11, 473040, Note_on_c, 10, 48, 105
11, 473280, Note_on_c, 10, 48, 0
11, 473280, Note_on_c, 10, 41, 105
11, 473520, Note_on_c, 10, 41, 0
11, 473520, Note_on_c, 10, 38, 105
11, 473760, Note_on_c, 10, 38, 0
11, 473760, Note_on_c, 10, 41, 105
11, 474000, Note_on_c, 10, 41, 0
11, 474000, Note_on_c, 10, 45, 105
11, 474240, Note_on_c, 10, 45, 0
11, 474240, Note_on_c, 10, 41, 105
11, 474480, Note_on_c, 10, 41, 0
11, 474480, Note_on_c, 10, 37, 105
11, 474720, Note_on_c, 10, 37, 0
11, 474720, Note_on_c, 10, 38, 105
11, 474960, Note_on_c, 10, 38, 0
11, 474960, Note_on_c, 10, 40, 105
11, 475200, Note_on_c, 10, 40, 0
11, 475200, Note_on_c, 10, 41, 105
11, 475440, Note_on_c, 10, 41, 0
11, 475440, Note_on_c, 10, 41, 105
11, 475680, Note_on_c, 10, 41, 0
11, 475680, Note_on_c, 10, 42, 105
11, 475920, Note_on_c, 10, 42, 0
11, 475920, Note_on_c, 10, 42, 105
11, 476160, Note_on_c, 10, 42, 0
11, 476160, Note_on_c, 10, 43, 105
11, 476400, Note_on_c, 10, 43, 0
11, 476400, Note_on_c, 10, 47, 105
11, 476640, Note_on_c, 10, 47, 0
11, 476640, Note_on_c, 10, 50, 105
11, 476880, Note_on_c, 10, 50, 0
11, 476880, Note_on_c, 10, 43, 105
11, 477120, Note_on_c, 10, 43, 0
11, 477120, Note_on_c, 10, 48, 105
11, 477360, Note_on_c, 10, 48, 0
11, 477360, Note_on_c, 10, 43, 105
11, 477600, Note_on_c, 10, 43, 0
11, 477600, Note_on_c, 10, 40, 105
11, 477840, Note_on_c, 10, 40, 0
11, 477840, Note_on_c, 10, 36, 105
11, 478080, Note_on_c, 10, 36, 0
11, 478080, Note_on_c, 10, 43, 105
11, 478320, Note_on_c, 10, 43, 0
11, 478320, Note_on_c, 10, 47, 105
11, 478560, Note_on_c, 10, 47, 0
11, 478560, Note_on_c, 10, 50, 105
11, 478800, Note_on_c, 10, 50, 0
11, 478800, Note_on_c, 10, 43, 105
11, 479040, Note_on_c, 10, 43, 0
11, 479040, Note_on_c, 10, 48, 105
11, 479280, Note_on_c, 10, 48, 0
11, 479280, Note_on_c, 10, 43, 105
11, 479520, Note_on_c, 10, 43, 0
11, 479520, Note_on_c, 10, 40, 105
11, 479760, Note_on_c, 10, 40, 0
11, 479760, Note_on_c, 10, 36, 105
11, 480000, Note_on_c, 10, 36, 0
11, 480000, Note_on_c, 10, 31, 119
11, 480480, Note_on_c, 10, 31, 0
11, 481920, Note_on_c, 10, 36, 105
11, 482088, Note_on_c, 10, 36, 0
11, 482160, Note_on_c, 10, 48, 105
11, 482328, Note_on_c, 10, 48, 0
11, 482400, Note_on_c, 10, 48, 105
11, 482568, Note_on_c, 10, 48, 0
11, 482640, Note_on_c, 10, 48, 105
11, 482808, Note_on_c, 10, 48, 0
11, 482880, Note_on_c, 10, 48, 105
11, 483048, Note_on_c, 10, 48, 0
11, 483120, Note_on_c, 10, 48, 105
11, 483288, Note_on_c, 10, 48, 0
11, 483360, Note_on_c, 10, 48, 105
11, 483528, Note_on_c, 10, 48, 0
11, 483600, Note_on_c, 10, 48, 105
11, 483768, Note_on_c, 10, 48, 0
11, 483840, Note_on_c, 10, 48, 105
11, 484008, Note_on_c, 10, 48, 0
11, 484080, Note_on_c, 10, 48, 105
11, 484248, Note_on_c, 10, 48, 0
11, 484320, Note_on_c, 10, 48, 105
11, 484488, Note_on_c, 10, 48, 0
11, 484560, Note_on_c, 10, 48, 105
11, 484728, Note_on_c, 10, 48, 0
11, 484800, Note_on_c, 10, 48, 105
11, 484968, Note_on_c, 10, 48, 0
11, 485040, Note_on_c, 10, 48, 105
11, 485208, Note_on_c, 10, 48, 0
11, 485280, Note_on_c, 10, 48, 105
11, 485448, Note_on_c, 10, 48, 0
11, 485520, Note_on_c, 10, 48, 105
11, 485688, Note_on_c, 10, 48, 0
11, 485760, Note_on_c, 10, 48, 105
11, 485928, Note_on_c, 10, 48, 0
11, 486000, Note_on_c, 10, 36, 70
11, 486168, Note_on_c, 10, 36, 0
11, 486240, Note_on_c, 10, 36, 70
11, 486408, Note_on_c, 10, 36, 0
11, 486480, Note_on_c, 10, 36, 70
11, 486648, Note_on_c, 10, 36, 0
11, 486720, Note_on_c, 10, 36, 70
11, 486888, Note_on_c, 10, 36, 0
11, 486960, Note_on_c, 10, 36, 70
11, 487128, Note_on_c, 10, 36, 0
11, 487200, Note_on_c, 10, 36, 70
11, 487368, Note_on_c, 10, 36, 0
11, 487440, Note_on_c, 10, 36, 70
11, 487608, Note_on_c, 10, 36, 0
11, 487680, Note_on_c, 10, 36, 70
11, 487848, Note_on_c, 10, 36, 0
11, 487920, Note_on_c, 10, 36, 70
11, 488088, Note_on_c, 10, 36, 0
11, 488160, Note_on_c, 10, 36, 70
11, 488328, Note_on_c, 10, 36, 0
11, 488400, Note_on_c, 10, 36, 70
11, 488568, Note_on_c, 10, 36, 0
11, 488640, Note_on_c, 10, 36, 70
11, 488808, Note_on_c, 10, 36, 0
11, 488880, Note_on_c, 10, 48, 105
11, 489048, Note_on_c, 10, 48, 0
11, 489120, Note_on_c, 10, 48, 105
11, 489288, Note_on_c, 10, 48, 0
11, 489360, Note_on_c, 10, 48, 105
11, 489528, Note_on_c, 10, 48, 0
11, 489600, Note_on_c, 10, 47, 105
11, 489840, Note_on_c, 10, 47, 0
11, 489840, Note_on_c, 10, 50, 105
11, 490080, Note_on_c, 10, 50, 0
11, 490080, Note_on_c, 10, 47, 105
11, 490320, Note_on_c, 10, 47, 0
11, 490320, Note_on_c, 10, 43, 105
11, 490560, Note_on_c, 10, 43, 0
11, 490560, Note_on_c, 10, 41, 105
11, 490800, Note_on_c, 10, 41, 0
11, 490800, Note_on_c, 10, 38, 105
11, 491040, Note_on_c, 10, 38, 0
11, 491040, Note_on_c, 10, 35, 105
11, 491280, Note_on_c, 10, 35, 0
11, 491280, Note_on_c, 10, 31, 105
11, 491520, Note_on_c, 10, 31, 0
11, 491520, Note_on_c, 10, 36, 105
11, 491760, Note_on_c, 10, 36, 0
11, 491760, Note_on_c, 10, 52, 105
11, 492000, Note_on_c, 10, 52, 0
11, 492000, Note_on_c, 10, 48, 105
11, 492240, Note_on_c, 10, 48, 0
11, 492240, Note_on_c, 10, 44, 105
11, 492480, Note_on_c, 10, 44, 0
11, 492480, Note_on_c, 10, 45, 105
11, 492720, Note_on_c, 10, 45, 0
11, 492720, Note_on_c, 10, 48, 105
11, 492960, Note_on_c, 10, 48, 0
11, 492960, Note_on_c, 10, 45, 105
11, 493200, Note_on_c, 10, 45, 0
11, 493200, Note_on_c, 10, 40, 105
11, 493440, Note_on_c, 10, 40, 0
11, 493440, Note_on_c, 10, 41, 105
11, 493608, Note_on_c, 10, 41, 0
11, 493680, Note_on_c, 10, 41, 105
11, 493848, Note_on_c, 10, 41, 0
11, 493920, Note_on_c, 10, 41, 105
11, 494088, Note_on_c, 10, 41, 0
11, 494160, Note_on_c, 10, 41, 105
11, 494328, Note_on_c, 10, 41, 0
11, 494400, Note_on_c, 10, 43, 105
11, 494568, Note_on_c, 10, 43, 0
11, 494640, Note_on_c, 10, 43, 105
11, 494808, Note_on_c, 10, 43, 0
11, 494880, Note_on_c, 10, 43, 105
11, 495048, Note_on_c, 10, 43, 0
11, 495120, Note_on_c, 10, 43, 105
11, 495288, Note_on_c, 10, 43, 0
11, 495360, Note_on_c, 10, 40, 105
11, 495528, Note_on_c, 10, 40, 0
11, 495600, Note_on_c, 10, 40, 105
11, 495768, Note_on_c, 10, 40, 0
11, 495840, Note_on_c, 10, 40, 105
11, 496008, Note_on_c, 10, 40, 0
11, 496080, Note_on_c, 10, 40, 105
11, 496248, Note_on_c, 10, 40, 0
11, 496320, Note_on_c, 10, 41, 105
11, 496488, Note_on_c, 10, 41, 0
11, 496560, Note_on_c, 10, 41, 105
11, 496728, Note_on_c, 10, 41, 0
11, 496800, Note_on_c, 10, 41, 105
11, 496968, Note_on_c, 10, 41, 0
11, 497040, Note_on_c, 10, 41, 105
11, 497208, Note_on_c, 10, 41, 0
11, 497280, Note_on_c, 10, 43, 105
11, 497448, Note_on_c, 10, 43, 0
11, 497520, Note_on_c, 10, 43, 105
11, 497688, Note_on_c, 10, 43, 0
11, 497760, Note_on_c, 10, 43, 105
11, 497928, Note_on_c, 10, 43, 0
11, 498000, Note_on_c, 10, 43, 105
11, 498168, Note_on_c, 10, 43, 0
11, 498240, Note_on_c, 10, 43, 105
11, 498408, Note_on_c, 10, 43, 0
11, 498480, Note_on_c, 10, 43, 105
11, 498648, Note_on_c, 10, 43, 0
11, 498720, Note_on_c, 10, 31, 105
11, 498888, Note_on_c, 10, 31, 0
11, 498960, Note_on_c, 10, 31, 105
11, 499128, Note_on_c, 10, 31, 0
11, 499200, Note_on_c, 10, 36, 105
11, 499440, Note_on_c, 10, 36, 0
11, 499440, Note_on_c, 10, 40, 105
11, 499680, Note_on_c, 10, 40, 0
11, 499680, Note_on_c, 10, 43, 105
11, 499920, Note_on_c, 10, 43, 0
11, 499920, Note_on_c, 10, 40, 105
11, 500160, Note_on_c, 10, 40, 0
11, 500160, Note_on_c, 10, 36, 105
11, 500400, Note_on_c, 10, 36, 0
11, 500400, Note_on_c, 10, 40, 105
11, 500640, Note_on_c, 10, 40, 0
11, 500640, Note_on_c, 10, 43, 105
11, 500880, Note_on_c, 10, 43, 0
11, 500880, Note_on_c, 10, 40, 105
11, 501120, Note_on_c, 10, 40, 0
11, 501120, Note_on_c, 10, 36, 105
11, 501360, Note_on_c, 10, 36, 0
11, 501360, Note_on_c, 10, 40, 105
11, 501600, Note_on_c, 10, 40, 0
11, 501600, Note_on_c, 10, 43, 105
11, 501840, Note_on_c, 10, 43, 0
11, 501840, Note_on_c, 10, 40, 105
11, 502080, Note_on_c, 10, 40, 0
11, 502080, Note_on_c, 10, 36, 105
11, 502320, Note_on_c, 10, 36, 0
11, 502320, Note_on_c, 10, 40, 105
11, 502560, Note_on_c, 10, 40, 0
11, 502560, Note_on_c, 10, 43, 105
11, 502800, Note_on_c, 10, 43, 0
11, 502800, Note_on_c, 10, 40, 105
11, 503040, Note_on_c, 10, 40, 0
11, 503040, Note_on_c, 10, 48, 105
11, 503724, Note_on_c, 10, 48, 0
11, 503760, Note_on_c, 10, 43, 105
11, 503988, Note_on_c, 10, 43, 0
11, 504000, Note_on_c, 10, 40, 105
11, 504228, Note_on_c, 10, 40, 0
11, 504240, Note_on_c, 10, 36, 105
11, 504468, Note_on_c, 10, 36, 0
11, 504480, Note_on_c, 10, 40, 105
11, 504708, Note_on_c, 10, 40, 0
11, 504720, Note_on_c, 10, 43, 105
11, 504948, Note_on_c, 10, 43, 0
11, 504960, Note_on_c, 10, 48, 105
11, 505644, Note_on_c, 10, 48, 0
11, 505680, Note_on_c, 10, 43, 105
11, 505908, Note_on_c, 10, 43, 0
11, 505920, Note_on_c, 10, 40, 105
11, 506148, Note_on_c, 10, 40, 0
11, 506160, Note_on_c, 10, 36, 105
11, 506388, Note_on_c, 10, 36, 0
11, 506400, Note_on_c, 10, 40, 105
11, 506628, Note_on_c, 10, 40, 0
11, 506640, Note_on_c, 10, 43, 105
11, 506868, Note_on_c, 10, 43, 0
11, 506880, Note_on_c, 10, 48, 105
11, 507360, Note_on_c, 10, 48, 0
11, 507360, Note_on_c, 10, 48, 105
11, 507840, Note_on_c, 10, 48, 0
11, 507840, Note_on_c, 10, 43, 105
11, 508320, Note_on_c, 10, 43, 0
11, 508320, Note_on_c, 10, 40, 105
11, 508800, Note_on_c, 10, 40, 0
11, 508800, Note_on_c, 10, 36, 105
11, 509280, Note_on_c, 10, 36, 0
11, 510720, Note_on_c, 10, 41, 70
11, 510960, Note_on_c, 10, 41, 0
11, 511200, Note_on_c, 10, 41, 70
11, 511440, Note_on_c, 10, 41, 0
11, 511680, Note_on_c, 10, 41, 70
11, 511920, Note_on_c, 10, 41, 0
11, 512160, Note_on_c, 10, 36, 95
11, 513120, Note_on_c, 10, 29, 94
11, 513184, Note_on_c, 10, 36, 0
11, 513360, Note_on_c, 10, 29, 0
11, 515520, Note_on_c, 10, 41, 70
11, 516000, Note_on_c, 10, 29, 70
11, 516054, Note_on_c, 10, 41, 0
11, 516240, Note_on_c, 10, 29, 0
11, 516960, Note_on_c, 10, 50, 93
11, 517440, Note_on_c, 10, 46, 93
11, 517489, Note_on_c, 10, 50, 0
11, 517920, Note_on_c, 10, 46, 0
11, 518400, Note_on_c, 10, 48, 93
11, 518880, Note_on_c, 10, 45, 93
11, 518949, Note_on_c, 10, 48, 0
11, 519360, Note_on_c, 10, 45, 0
11, 519840, Note_on_c, 10, 46, 93
11, 520320, Note_on_c, 10, 43, 93
11, 520389, Note_on_c, 10, 46, 0
11, 520749, Note_on_c, 10, 43, 0
11, 520800, Note_on_c, 10, 48, 93
11, 521760, Note_on_c, 10, 48, 0
11, 521760, Note_on_c, 10, 41, 80
11, 522240, Note_on_c, 10, 41, 0
11, 522240, Note_on_c, 10, 46, 70
11, 522720, Note_on_c, 10, 48, 70
11, 522769, Note_on_c, 10, 46, 0
11, 523159, Note_on_c, 10, 48, 0
11, 523200, Note_on_c, 10, 36, 70
11, 523680, Note_on_c, 10, 36, 0
11, 523680, Note_on_c, 10, 41, 70
11, 524160, Note_on_c, 10, 41, 0
11, 525120, Note_on_c, 10, 38, 70
11, 525600, Note_on_c, 10, 36, 70
11, 525669, Note_on_c, 10, 38, 0
11, 526029, Note_on_c, 10, 36, 0
11, 526080, Note_on_c, 10, 36, 70
11, 526560, Note_on_c, 10, 36, 0
11, 526560, Note_on_c, 10, 29, 70
11, 527040, Note_on_c, 10, 29, 0
11, 538800, Note_on_c, 10, 48, 70
11, 538896, Note_on_c, 10, 48, 0
11, 539040, Note_on_c, 10, 43, 70
11, 539136, Note_on_c, 10, 43, 0
11, 539280, Note_on_c, 10, 40, 70
11, 539376, Note_on_c, 10, 40, 0
11, 539520, Note_on_c, 10, 36, 60
11, 539712, Note_on_c, 10, 36, 0
11, 544560, Note_on_c, 10, 48, 66
11, 544656, Note_on_c, 10, 48, 0
11, 544800, Note_on_c, 10, 43, 67
11, 544896, Note_on_c, 10, 43, 0
11, 545040, Note_on_c, 10, 40, 65
11, 545136, Note_on_c, 10, 40, 0
11, 545280, Note_on_c, 10, 36, 63
11, 545472, Note_on_c, 10, 36, 0
11, 554640, Note_on_c, 10, 41, 70
11, 554880, Note_on_c, 10, 40, 70
11, 554940, Note_on_c, 10, 41, 0
11, 555120, Note_on_c, 10, 38, 70
11, 555180, Note_on_c, 10, 40, 0
11, 555319, Note_on_c, 10, 38, 0
11, 555360, Note_on_c, 10, 36, 95
11, 556320, Note_on_c, 10, 36, 0
11, 558240, Note_on_c, 10, 43, 73
11, 558720, Note_on_c, 10, 41, 81
11, 558809, Note_on_c, 10, 43, 0
11, 559200, Note_on_c, 10, 40, 94
11, 559299, Note_on_c, 10, 41, 0
11, 559680, Note_on_c, 10, 38, 94
11, 559689, Note_on_c, 10, 40, 0
11, 560379, Note_on_c, 10, 38, 0
11, 560400, Note_on_c, 10, 38, 70
11, 560640, Note_on_c, 10, 38, 0
11, 560640, Note_on_c, 10, 35, 70
11, 560880, Note_on_c, 10, 35, 0
11, 560880, Note_on_c, 10, 31, 70
11, 561120, Note_on_c, 10, 31, 0
11, 561120, Note_on_c, 10, 36, 70
11, 561600, Note_on_c, 10, 36, 0
11, 565440, Note_on_c, 10, 36, 90
11, 566400, Note_on_c, 10, 36, 0
11, 568320, Note_on_c, 10, 29, 73
11, 568800, Note_on_c, 10, 30, 80
11, 568884, Note_on_c, 10, 29, 0
11, 569280, Note_on_c, 10, 31, 90
11, 569389, Note_on_c, 10, 30, 0
11, 569724, Note_on_c, 10, 31, 0
11, 569760, Note_on_c, 10, 33, 90
11, 570720, Note_on_c, 10, 35, 70
11, 570809, Note_on_c, 10, 33, 0
11, 571149, Note_on_c, 10, 35, 0
11, 571200, Note_on_c, 10, 36, 70
11, 571680, Note_on_c, 10, 36, 0
11, 572640, Note_on_c, 10, 36, 70
11, 572880, Note_on_c, 10, 36, 0
11, 573120, Note_on_c, 10, 40, 70
11, 573360, Note_on_c, 10, 40, 0
11, 573600, Note_on_c, 10, 43, 70
11, 573840, Note_on_c, 10, 43, 0
11, 574080, Note_on_c, 10, 48, 70
11, 574560, Note_on_c, 10, 48, 0
11, 575520, Note_on_c, 10, 36, 70
11, 575760, Note_on_c, 10, 36, 0
11, 576000, Note_on_c, 10, 40, 70
11, 576240, Note_on_c, 10, 40, 0
11, 576480, Note_on_c, 10, 43, 70
11, 576720, Note_on_c, 10, 43, 0
11, 576960, Note_on_c, 10, 48, 70
11, 577440, Note_on_c, 10, 48, 0
11, 585600, Note_on_c, 10, 36, 70
11, 592800, Note_on_c, 10, 29, 70
11, 592899, Note_on_c, 10, 36, 0
11, 593040, Note_on_c, 10, 29, 0
11, 603600, Note_on_c, 10, 48, 70
11, 603696, Note_on_c, 10, 48, 0
11, 603840, Note_on_c, 10, 43, 70
11, 603936, Note_on_c, 10, 43, 0
11, 604080, Note_on_c, 10, 40, 70
11, 604176, Note_on_c, 10, 40, 0
11, 604320, Note_on_c, 10, 36, 70
11, 604800, Note_on_c, 10, 36, 0
11, 609360, Note_on_c, 10, 46, 89
11, 609600, Note_on_c, 10, 45, 89
11, 609659, Note_on_c, 10, 46, 0
11, 609840, Note_on_c, 10, 43, 89
11, 609869, Note_on_c, 10, 45, 0
11, 610064, Note_on_c, 10, 43, 0
11, 610080, Note_on_c, 10, 41, 89
11, 610560, Note_on_c, 10, 41, 0
11, 611520, Note_on_c, 10, 40, 53
11, 612000, Note_on_c, 10, 40, 0
11, 612960, Note_on_c, 10, 36, 53
11, 613440, Note_on_c, 10, 36, 0
11, 614400, Note_on_c, 10, 41, 71
11, 614880, Note_on_c, 10, 41, 0
11, 615840, Note_on_c, 10, 38, 71
11, 616320, Note_on_c, 10, 38, 0
11, 617280, Note_on_c, 10, 36, 70
11, 617760, Note_on_c, 10, 36, 0
11, 619440, Note_on_c, 10, 46, 89
11, 619680, Note_on_c, 10, 45, 89
11, 619739, Note_on_c, 10, 46, 0
11, 619920, Note_on_c, 10, 43, 89
11, 619959, Note_on_c, 10, 45, 0
11, 620159, Note_on_c, 10, 43, 0
11, 620160, Note_on_c, 10, 41, 89
11, 621120, Note_on_c, 10, 41, 0
11, 623040, Note_on_c, 10, 48, 73
11, 623520, Note_on_c, 10, 46, 80
11, 623559, Note_on_c, 10, 48, 0
11, 624000, Note_on_c, 10, 45, 86
11, 624059, Note_on_c, 10, 46, 0
11, 624480, Note_on_c, 10, 45, 0
11, 624480, Note_on_c, 10, 43, 89
11, 625200, Note_on_c, 10, 43, 0
11, 625200, Note_on_c, 10, 43, 70
11, 625440, Note_on_c, 10, 43, 0
11, 625440, Note_on_c, 10, 40, 70
11, 625680, Note_on_c, 10, 40, 0
11, 625680, Note_on_c, 10, 36, 70
11, 625920, Note_on_c, 10, 36, 0
11, 625920, Note_on_c, 10, 41, 70
11, 626400, Note_on_c, 10, 41, 0
11, 630240, Note_on_c, 10, 41, 91
11, 631200, Note_on_c, 10, 41, 0
11, 633120, Note_on_c, 10, 35, 75
11, 633600, Note_on_c, 10, 36, 82
11, 633649, Note_on_c, 10, 35, 0
11, 634080, Note_on_c, 10, 29, 89
11, 634129, Note_on_c, 10, 36, 0
11, 634560, Note_on_c, 10, 29, 0
11, 634560, Note_on_c, 10, 34, 92
11, 635040, Note_on_c, 10, 31, 71
11, 635099, Note_on_c, 10, 34, 0
11, 635520, Note_on_c, 10, 36, 70
11, 635579, Note_on_c, 10, 31, 0
11, 636000, Note_on_c, 10, 36, 0
11, 636000, Note_on_c, 10, 29, 70
11, 636480, Note_on_c, 10, 29, 0
11, 637440, Note_on_c, 10, 29, 70
11, 637680, Note_on_c, 10, 29, 0
11, 637920, Note_on_c, 10, 33, 70
11, 638160, Note_on_c, 10, 33, 0
11, 638400, Note_on_c, 10, 36, 70
11, 638640, Note_on_c, 10, 36, 0
11, 638880, Note_on_c, 10, 41, 70
11, 639360, Note_on_c, 10, 41, 0
11, 640320, Note_on_c, 10, 41, 70
11, 640560, Note_on_c, 10, 41, 0
11, 640800, Note_on_c, 10, 45, 70
11, 641040, Note_on_c, 10, 45, 0
11, 641280, Note_on_c, 10, 48, 70
11, 641520, Note_on_c, 10, 48, 0
11, 641760, Note_on_c, 10, 41, 70
11, 642240, Note_on_c, 10, 41, 0
11, 650400, Note_on_c, 10, 36, 70
11, 650640, Note_on_c, 10, 36, 0
11, 650880, Note_on_c, 10, 36, 70
11, 651120, Note_on_c, 10, 36, 0
11, 651360, Note_on_c, 10, 36, 70
11, 651600, Note_on_c, 10, 36, 0
11, 651840, Note_on_c, 10, 36, 74
11, 652080, Note_on_c, 10, 36, 0
11, 652320, Note_on_c, 10, 36, 79
11, 652560, Note_on_c, 10, 36, 0
11, 652800, Note_on_c, 10, 36, 85
11, 653040, Note_on_c, 10, 36, 0
11, 653280, Note_on_c, 10, 29, 90
11, 653760, Note_on_c, 10, 29, 0
11, 656400, Note_on_c, 10, 33, 89
11, 656640, Note_on_c, 10, 34, 80
11, 656700, Note_on_c, 10, 33, 0
11, 656880, Note_on_c, 10, 36, 80
11, 656940, Note_on_c, 10, 34, 0
11, 657120, Note_on_c, 10, 38, 80
11, 657180, Note_on_c, 10, 36, 0
11, 657360, Note_on_c, 10, 35, 80
11, 657420, Note_on_c, 10, 38, 0
11, 657600, Note_on_c, 10, 35, 0
11, 657600, Note_on_c, 10, 36, 80
11, 658084, Note_on_c, 10, 36, 0
11, 659040, Note_on_c, 10, 41, 70
11, 659280, Note_on_c, 10, 41, 0
11, 659520, Note_on_c, 10, 41, 70
11, 659760, Note_on_c, 10, 41, 0
11, 660000, Note_on_c, 10, 41, 70
11, 660240, Note_on_c, 10, 41, 0
11, 660480, Note_on_c, 10, 36, 88
11, 661440, Note_on_c, 10, 29, 88
11, 661489, Note_on_c, 10, 36, 0
11, 661680, Note_on_c, 10, 29, 0
11, 663840, Note_on_c, 10, 41, 70
11, 664320, Note_on_c, 10, 29, 70
11, 664354, Note_on_c, 10, 41, 0
11, 664560, Note_on_c, 10, 29, 0
11, 665280, Note_on_c, 10, 50, 87
11, 665760, Note_on_c, 10, 46, 87
11, 665809, Note_on_c, 10, 50, 0
11, 666240, Note_on_c, 10, 46, 0
11, 666720, Note_on_c, 10, 48, 87
11, 667200, Note_on_c, 10, 45, 87
11, 667249, Note_on_c, 10, 48, 0
11, 667680, Note_on_c, 10, 45, 0
11, 668160, Note_on_c, 10, 46, 87
11, 668640, Note_on_c, 10, 43, 87
11, 668684, Note_on_c, 10, 46, 0
11, 669120, Note_on_c, 10, 43, 0
11, 669120, Note_on_c, 10, 48, 87
11, 670080, Note_on_c, 10, 41, 70
11, 670129, Note_on_c, 10, 48, 0
11, 670560, Note_on_c, 10, 41, 0
11, 670560, Note_on_c, 10, 46, 70
11, 671040, Note_on_c, 10, 48, 70
11, 671084, Note_on_c, 10, 46, 0
11, 671520, Note_on_c, 10, 48, 0
11, 671520, Note_on_c, 10, 36, 70
11, 672000, Note_on_c, 10, 36, 0
11, 672000, Note_on_c, 10, 41, 70
11, 672480, Note_on_c, 10, 41, 0
11, 673440, Note_on_c, 10, 38, 59
11, 673800, Note_on_c, 10, 38, 0
11, 673800, Note_on_c, 10, 36, 59
11, 673860, Note_on_c, 10, 36, 0
11, 673860, Note_on_c, 10, 34, 59
11, 673920, Note_on_c, 10, 34, 0
11, 673920, Note_on_c, 10, 36, 59
11, 674400, Note_on_c, 10, 36, 0
11, 674400, Note_on_c, 10, 36, 59
11, 674880, Note_on_c, 10, 36, 0
11, 674880, Note_on_c, 10, 29, 59
11, 675360, Note_on_c, 10, 29, 0
11, 676320, Note_on_c, 10, 41, 70
11, 676560, Note_on_c, 10, 41, 0
11, 676800, Note_on_c, 10, 45, 70
11, 677040, Note_on_c, 10, 45, 0
11, 677280, Note_on_c, 10, 48, 70
11, 677520, Note_on_c, 10, 48, 0
11, 677760, Note_on_c, 10, 41, 60
11, 678084, Note_on_c, 10, 41, 0
11, 678240, Note_on_c, 10, 41, 60
11, 678604, Note_on_c, 10, 41, 0
11, 678720, Note_on_c, 10, 41, 60
11, 679079, Note_on_c, 10, 41, 0
11, 679200, Note_on_c, 10, 41, 60
11, 680160, Note_on_c, 10, 41, 0
11, 697920, Note_on_c, 10, 48, 70
11, 698292, Note_on_c, 10, 48, 0
11, 698880, Note_on_c, 10, 43, 70
11, 699284, Note_on_c, 10, 43, 0
11, 699840, Note_on_c, 10, 36, 70
11, 700676, Note_on_c, 10, 36, 0
11, 701760, Note_on_c, 10, 36, 70
11, 702604, Note_on_c, 10, 36, 0
11, 703680, Note_on_c, 10, 36, 70
11, 704564, Note_on_c, 10, 36, 0
11, 705600, Note_on_c, 10, 36, 70
11, 706560, Note_on_c, 10, 43, 70
11, 706668, Note_on_c, 10, 36, 0
11, 707412, Note_on_c, 10, 43, 0
11, 707520, Note_on_c, 10, 48, 70
11, 708480, Note_on_c, 10, 43, 70
11, 708564, Note_on_c, 10, 48, 0
11, 709340, Note_on_c, 10, 43, 0
11, 709440, Note_on_c, 10, 40, 70
11, 710400, Note_on_c, 10, 43, 70
11, 710484, Note_on_c, 10, 40, 0
11, 711284, Note_on_c, 10, 43, 0
11, 711360, Note_on_c, 10, 36, 105
11, 711548, Note_on_c, 10, 36, 0
11, 711600, Note_on_c, 10, 38, 105
11, 711788, Note_on_c, 10, 38, 0
11, 711840, Note_on_c, 10, 40, 105
11, 712028, Note_on_c, 10, 40, 0
11, 712080, Note_on_c, 10, 38, 105
11, 712268, Note_on_c, 10, 38, 0
11, 712320, Note_on_c, 10, 36, 105
11, 712508, Note_on_c, 10, 36, 0
11, 712560, Note_on_c, 10, 38, 105
11, 712748, Note_on_c, 10, 38, 0
11, 712800, Note_on_c, 10, 40, 105
11, 712988, Note_on_c, 10, 40, 0
11, 713040, Note_on_c, 10, 41, 105
11, 713228, Note_on_c, 10, 41, 0
11, 713280, Note_on_c, 10, 43, 105
11, 713468, Note_on_c, 10, 43, 0
11, 713520, Note_on_c, 10, 45, 105
11, 713708, Note_on_c, 10, 45, 0
11, 713760, Note_on_c, 10, 47, 105
11, 713948, Note_on_c, 10, 47, 0
11, 714000, Note_on_c, 10, 45, 105
11, 714188, Note_on_c, 10, 45, 0
11, 714240, Note_on_c, 10, 43, 105
11, 714428, Note_on_c, 10, 43, 0
11, 714480, Note_on_c, 10, 45, 105
11, 714668, Note_on_c, 10, 45, 0
11, 714720, Note_on_c, 10, 47, 105
11, 714908, Note_on_c, 10, 47, 0
11, 714960, Note_on_c, 10, 43, 105
11, 715148, Note_on_c, 10, 43, 0
11, 715200, Note_on_c, 10, 48, 105
11, 715388, Note_on_c, 10, 48, 0
11, 715440, Note_on_c, 10, 52, 105
11, 715628, Note_on_c, 10, 52, 0
11, 715680, Note_on_c, 10, 48, 105
11, 715868, Note_on_c, 10, 48, 0
11, 715920, Note_on_c, 10, 43, 105
11, 716108, Note_on_c, 10, 43, 0
11, 716160, Note_on_c, 10, 40, 105
11, 716348, Note_on_c, 10, 40, 0
11, 716400, Note_on_c, 10, 43, 105
11, 716588, Note_on_c, 10, 43, 0
11, 716640, Note_on_c, 10, 40, 105
11, 716828, Note_on_c, 10, 40, 0
11, 716880, Note_on_c, 10, 36, 105
11, 717068, Note_on_c, 10, 36, 0
11, 717120, Note_on_c, 10, 31, 105
11, 717308, Note_on_c, 10, 31, 0
11, 717360, Note_on_c, 10, 35, 105
11, 717548, Note_on_c, 10, 35, 0
11, 717600, Note_on_c, 10, 38, 105
11, 717788, Note_on_c, 10, 38, 0
11, 717840, Note_on_c, 10, 43, 105
11, 718028, Note_on_c, 10, 43, 0
11, 718080, Note_on_c, 10, 47, 105
11, 718268, Note_on_c, 10, 47, 0
11, 718320, Note_on_c, 10, 50, 105
11, 718508, Note_on_c, 10, 50, 0
11, 718560, Note_on_c, 10, 47, 105
11, 718748, Note_on_c, 10, 47, 0
11, 718800, Note_on_c, 10, 43, 105
11, 718988, Note_on_c, 10, 43, 0
11, 719040, Note_on_c, 10, 48, 105
11, 719428, Note_on_c, 10, 48, 0
11, 719520, Note_on_c, 10, 45, 105
11, 720340, Note_on_c, 10, 45, 0
11, 720480, Note_on_c, 10, 43, 80
11, 720672, Note_on_c, 10, 43, 0
11, 720960, Note_on_c, 10, 41, 70
11, 721152, Note_on_c, 10, 41, 0
11, 721440, Note_on_c, 10, 40, 70
11, 721632, Note_on_c, 10, 40, 0
11, 721920, Note_on_c, 10, 45, 70
11, 722112, Note_on_c, 10, 45, 0
11, 722400, Note_on_c, 10, 43, 70
11, 722592, Note_on_c, 10, 43, 0
11, 722880, Note_on_c, 10, 41, 70
11, 723260, Note_on_c, 10, 41, 0
11, 723360, Note_on_c, 10, 45, 105
11, 724236, Note_on_c, 10, 45, 0
11, 724320, Note_on_c, 10, 43, 80
11, 724512, Note_on_c, 10, 43, 0
11, 724800, Note_on_c, 10, 41, 70
11, 724992, Note_on_c, 10, 41, 0
11, 725280, Note_on_c, 10, 40, 70
11, 725472, Note_on_c, 10, 40, 0
11, 725760, Note_on_c, 10, 45, 70
11, 725952, Note_on_c, 10, 45, 0
11, 726240, Note_on_c, 10, 43, 70
11, 726432, Note_on_c, 10, 43, 0
11, 726720, Note_on_c, 10, 41, 70
11, 728640, Note_on_c, 10, 42, 70
11, 728708, Note_on_c, 10, 41, 0
11, 730452, Note_on_c, 10, 42, 0
11, 730560, Note_on_c, 10, 43, 70
11, 730988, Note_on_c, 10, 43, 0
11, 734880, Note_on_c, 10, 36, 70
11, 735072, Note_on_c, 10, 36, 0
11, 735360, Note_on_c, 10, 40, 70
11, 735552, Note_on_c, 10, 40, 0
11, 735840, Note_on_c, 10, 36, 70
11, 736032, Note_on_c, 10, 36, 0
11, 736800, Note_on_c, 10, 38, 70
11, 736992, Note_on_c, 10, 38, 0
11, 737280, Note_on_c, 10, 35, 70
11, 737472, Note_on_c, 10, 35, 0
11, 737760, Note_on_c, 10, 31, 70
11, 737952, Note_on_c, 10, 31, 0
11, 738720, Note_on_c, 10, 36, 70
11, 738912, Note_on_c, 10, 36, 0
11, 739200, Note_on_c, 10, 45, 70
11, 739392, Note_on_c, 10, 45, 0
11, 739680, Note_on_c, 10, 41, 70
11, 739872, Note_on_c, 10, 41, 0
11, 740640, Note_on_c, 10, 43, 70
11, 740832, Note_on_c, 10, 43, 0
11, 741120, Note_on_c, 10, 31, 70
11, 741312, Note_on_c, 10, 31, 0
11, 741600, Note_on_c, 10, 41, 70
11, 741792, Note_on_c, 10, 41, 0
11, 742560, Note_on_c, 10, 40, 70
11, 742752, Note_on_c, 10, 40, 0
11, 743040, Note_on_c, 10, 38, 70
11, 743232, Note_on_c, 10, 38, 0
11, 743520, Note_on_c, 10, 36, 70
11, 743712, Note_on_c, 10, 36, 0
11, 744480, Note_on_c, 10, 45, 70
11, 744672, Note_on_c, 10, 45, 0
11, 744960, Note_on_c, 10, 43, 70
11, 745152, Note_on_c, 10, 43, 0
11, 745440, Note_on_c, 10, 41, 70
11, 745632, Note_on_c, 10, 41, 0
11, 745920, Note_on_c, 10, 40, 70
11, 746148, Note_on_c, 10, 40, 0
11, 746400, Note_on_c, 10, 45, 70
11, 746572, Note_on_c, 10, 45, 0
11, 746880, Note_on_c, 10, 41, 70
11, 747116, Note_on_c, 10, 41, 0
11, 747360, Note_on_c, 10, 43, 70
11, 747548, Note_on_c, 10, 43, 0
11, 748320, Note_on_c, 10, 36, 70
11, 748540, Note_on_c, 10, 36, 0
11, 748800, Note_on_c, 10, 40, 70
11, 749028, Note_on_c, 10, 40, 0
11, 749280, Note_on_c, 10, 43, 70
11, 749476, Note_on_c, 10, 43, 0
11, 750240, Note_on_c, 10, 48, 70
11, 750720, Note_on_c, 10, 47, 70
11, 750836, Note_on_c, 10, 48, 0
11, 751200, Note_on_c, 10, 46, 70
11, 751300, Note_on_c, 10, 47, 0
11, 751680, Note_on_c, 10, 45, 70
11, 751788, Note_on_c, 10, 46, 0
11, 752012, Note_on_c, 10, 45, 0
11, 752160, Note_on_c, 10, 48, 70
11, 752604, Note_on_c, 10, 48, 0
11, 752640, Note_on_c, 10, 45, 70
11, 753068, Note_on_c, 10, 45, 0
11, 753120, Note_on_c, 10, 41, 70
11, 753532, Note_on_c, 10, 41, 0
11, 753600, Note_on_c, 10, 40, 70
11, 755436, Note_on_c, 10, 40, 0
11, 755520, Note_on_c, 10, 41, 70
11, 756480, Note_on_c, 10, 45, 70
11, 756548, Note_on_c, 10, 41, 0
11, 757348, Note_on_c, 10, 45, 0
11, 757440, Note_on_c, 10, 43, 70
11, 759284, Note_on_c, 10, 43, 0
11, 759360, Note_on_c, 10, 31, 70
11, 761196, Note_on_c, 10, 31, 0
11, 761280, Note_on_c, 10, 36, 70
11, 761628, Note_on_c, 10, 36, 0
11, 761760, Note_on_c, 10, 36, 105
11, 761856, Note_on_c, 10, 36, 0
11, 762000, Note_on_c, 10, 36, 105
11, 762096, Note_on_c, 10, 36, 0
11, 762240, Note_on_c, 10, 35, 105
11, 762480, Note_on_c, 10, 38, 105
11, 762548, Note_on_c, 10, 35, 0
11, 762604, Note_on_c, 10, 38, 0
11, 762720, Note_on_c, 10, 41, 105
11, 762816, Note_on_c, 10, 41, 0
11, 762960, Note_on_c, 10, 41, 105
11, 763056, Note_on_c, 10, 41, 0
11, 763200, Note_on_c, 10, 40, 105
11, 763440, Note_on_c, 10, 43, 105
11, 763476, Note_on_c, 10, 40, 0
11, 763604, Note_on_c, 10, 43, 0
11, 763680, Note_on_c, 10, 48, 105
11, 763776, Note_on_c, 10, 48, 0
11, 763920, Note_on_c, 10, 48, 105
11, 764016, Note_on_c, 10, 48, 0
11, 764160, Note_on_c, 10, 47, 105
11, 764540, Note_on_c, 10, 47, 0
11, 764640, Note_on_c, 10, 43, 105
11, 764820, Note_on_c, 10, 43, 0
11, 764880, Note_on_c, 10, 43, 105
11, 765068, Note_on_c, 10, 43, 0
11, 765120, Note_on_c, 10, 48, 105
11, 765492, Note_on_c, 10, 48, 0
11, 765600, Note_on_c, 10, 43, 105
11, 765756, Note_on_c, 10, 43, 0
11, 765840, Note_on_c, 10, 43, 105
11, 766004, Note_on_c, 10, 43, 0
11, 766080, Note_on_c, 10, 50, 105
11, 766428, Note_on_c, 10, 50, 0
11, 766560, Note_on_c, 10, 43, 105
11, 766740, Note_on_c, 10, 43, 0
11, 766800, Note_on_c, 10, 43, 105
11, 766972, Note_on_c, 10, 43, 0
11, 767040, Note_on_c, 10, 52, 105
11, 767396, Note_on_c, 10, 52, 0
11, 767520, Note_on_c, 10, 43, 105
11, 767684, Note_on_c, 10, 43, 0
11, 767760, Note_on_c, 10, 43, 105
11, 767916, Note_on_c, 10, 43, 0
11, 768000, Note_on_c, 10, 47, 105
11, 768372, Note_on_c, 10, 47, 0
11, 768480, Note_on_c, 10, 43, 105
11, 768636, Note_on_c, 10, 43, 0
11, 768720, Note_on_c, 10, 43, 105
11, 768868, Note_on_c, 10, 43, 0
11, 768960, Note_on_c, 10, 48, 105
11, 769324, Note_on_c, 10, 48, 0
11, 769440, Note_on_c, 10, 43, 105
11, 769540, Note_on_c, 10, 43, 0
11, 769680, Note_on_c, 10, 43, 105
11, 769788, Note_on_c, 10, 43, 0
11, 769920, Note_on_c, 10, 50, 105
11, 770268, Note_on_c, 10, 50, 0
11, 770400, Note_on_c, 10, 43, 105
11, 770540, Note_on_c, 10, 43, 0
11, 770640, Note_on_c, 10, 43, 105
11, 770796, Note_on_c, 10, 43, 0
11, 770880, Note_on_c, 10, 52, 105
11, 771236, Note_on_c, 10, 52, 0
11, 771360, Note_on_c, 10, 43, 105
11, 771532, Note_on_c, 10, 43, 0
11, 771600, Note_on_c, 10, 43, 105
11, 771780, Note_on_c, 10, 43, 0
11, 771840, Note_on_c, 10, 47, 105
11, 772188, Note_on_c, 10, 47, 0
11, 772320, Note_on_c, 10, 43, 105
11, 772484, Note_on_c, 10, 43, 0
11, 772560, Note_on_c, 10, 43, 105
11, 772716, Note_on_c, 10, 43, 0
11, 772800, Note_on_c, 10, 48, 105
11, 773280, Note_on_c, 10, 48, 0
11, 773640, Note_on_c, 10, 48, 105
11, 773760, Note_on_c, 10, 45, 118
11, 773844, Note_on_c, 10, 48, 0
11, 774240, Note_on_c, 10, 45, 0
11, 774600, Note_on_c, 10, 45, 105
11, 774720, Note_on_c, 10, 41, 119
11, 774804, Note_on_c, 10, 45, 0
11, 775200, Note_on_c, 10, 41, 0
11, 775560, Note_on_c, 10, 41, 105
11, 775680, Note_on_c, 10, 43, 119
11, 775732, Note_on_c, 10, 41, 0
11, 776160, Note_on_c, 10, 43, 0
11, 776520, Note_on_c, 10, 43, 105
11, 776640, Note_on_c, 10, 36, 117
11, 776724, Note_on_c, 10, 43, 0
11, 777468, Note_on_c, 10, 36, 0
11, 777600, Note_on_c, 10, 36, 120
11, 777840, Note_on_c, 10, 31, 105
11, 777908, Note_on_c, 10, 36, 0
11, 777980, Note_on_c, 10, 31, 0
11, 778080, Note_on_c, 10, 40, 105
11, 778176, Note_on_c, 10, 40, 0
11, 778320, Note_on_c, 10, 40, 105
11, 778416, Note_on_c, 10, 40, 0
11, 778560, Note_on_c, 10, 40, 117
11, 778800, Note_on_c, 10, 36, 105
11, 778844, Note_on_c, 10, 40, 0
11, 778932, Note_on_c, 10, 36, 0
11, 779040, Note_on_c, 10, 43, 105
11, 779136, Note_on_c, 10, 43, 0
11, 779280, Note_on_c, 10, 43, 105
11, 779376, Note_on_c, 10, 43, 0
11, 779520, Note_on_c, 10, 43, 121
11, 779760, Note_on_c, 10, 40, 105
11, 779828, Note_on_c, 10, 43, 0
11, 779916, Note_on_c, 10, 40, 0
11, 780000, Note_on_c, 10, 48, 105
11, 780096, Note_on_c, 10, 48, 0
11, 780240, Note_on_c, 10, 48, 105
11, 780336, Note_on_c, 10, 48, 0
11, 780480, Note_on_c, 10, 48, 119
11, 781196, Note_on_c, 10, 48, 0
11, 784320, Program_c, 10, 45
11, 785760, Note_on_c, 10, 43, 117
11, 786020, Note_on_c, 10, 43, 0
11, 786240, Note_on_c, 10, 48, 117
11, 786484, Note_on_c, 10, 48, 0
11, 787680, Note_on_c, 10, 43, 117
11, 787924, Note_on_c, 10, 43, 0
11, 788160, Note_on_c, 10, 48, 117
11, 788460, Note_on_c, 10, 48, 0
11, 789600, Note_on_c, 10, 43, 117
11, 789852, Note_on_c, 10, 43, 0
11, 790080, Note_on_c, 10, 48, 117
11, 790380, Note_on_c, 10, 48, 0
11, 790560, Note_on_c, 10, 43, 117
11, 790812, Note_on_c, 10, 43, 0
11, 791040, Note_on_c, 10, 36, 117
11, 791268, Note_on_c, 10, 36, 0
11, 793920, Program_c, 10, 42
11, 826560, Note_on_c, 10, 48, 105
11, 826776, Note_on_c, 10, 48, 0
11, 826800, Note_on_c, 10, 52, 105
11, 827016, Note_on_c, 10, 52, 0
11, 827040, Note_on_c, 10, 50, 105
11, 827256, Note_on_c, 10, 50, 0
11, 827280, Note_on_c, 10, 48, 105
11, 827496, Note_on_c, 10, 48, 0
11, 827520, Note_on_c, 10, 47, 105
11, 827736, Note_on_c, 10, 47, 0
11, 827760, Note_on_c, 10, 45, 105
11, 827976, Note_on_c, 10, 45, 0
11, 828000, Note_on_c, 10, 43, 105
11, 828216, Note_on_c, 10, 43, 0
11, 828240, Note_on_c, 10, 41, 105
11, 828456, Note_on_c, 10, 41, 0
11, 828480, Note_on_c, 10, 36, 105
11, 828696, Note_on_c, 10, 36, 0
11, 828720, Note_on_c, 10, 48, 105
11, 828936, Note_on_c, 10, 48, 0
11, 828960, Note_on_c, 10, 47, 105
11, 829176, Note_on_c, 10, 47, 0
11, 829200, Note_on_c, 10, 45, 105
11, 829416, Note_on_c, 10, 45, 0
11, 829440, Note_on_c, 10, 43, 105
11, 829656, Note_on_c, 10, 43, 0
11, 829680, Note_on_c, 10, 41, 105
11, 829896, Note_on_c, 10, 41, 0
11, 829920, Note_on_c, 10, 40, 105
11, 830136, Note_on_c, 10, 40, 0
11, 830160, Note_on_c, 10, 38, 105
11, 830376, Note_on_c, 10, 38, 0
11, 830400, Note_on_c, 10, 36, 105
11, 830880, Note_on_c, 10, 36, 0
11, 882240, Note_on_c, 10, 40, 90
11, 883200, Note_on_c, 10, 40, 0
11, 884160, Note_on_c, 10, 38, 90
11, 885120, Note_on_c, 10, 38, 0
11, 886080, Note_on_c, 10, 40, 90
11, 887040, Note_on_c, 10, 40, 0
11, 888000, Note_on_c, 10, 38, 70
11, 888480, Note_on_c, 10, 38, 0
11, 891840, Note_on_c, 10, 50, 105
11, 892080, Note_on_c, 10, 50, 0
11, 892080, Note_on_c, 10, 49, 105
11, 892320, Note_on_c, 10, 49, 0
11, 892320, Note_on_c, 10, 50, 105
11, 892560, Note_on_c, 10, 50, 0
11, 892560, Note_on_c, 10, 52, 105
11, 892800, Note_on_c, 10, 52, 0
11, 892800, Note_on_c, 10, 48, 105
11, 893040, Note_on_c, 10, 48, 0
11, 893040, Note_on_c, 10, 47, 105
11, 893280, Note_on_c, 10, 47, 0
11, 893280, Note_on_c, 10, 48, 105
11, 893520, Note_on_c, 10, 48, 0
11, 893520, Note_on_c, 10, 50, 105
11, 893760, Note_on_c, 10, 50, 0
11, 893760, Note_on_c, 10, 47, 105
11, 894000, Note_on_c, 10, 47, 0
11, 894000, Note_on_c, 10, 46, 105
11, 894240, Note_on_c, 10, 46, 0
11, 894240, Note_on_c, 10, 47, 105
11, 894480, Note_on_c, 10, 47, 0
11, 894480, Note_on_c, 10, 48, 105
11, 894720, Note_on_c, 10, 48, 0
11, 894720, Note_on_c, 10, 45, 105
11, 894960, Note_on_c, 10, 45, 0
11, 894960, Note_on_c, 10, 44, 105
11, 895200, Note_on_c, 10, 44, 0
11, 895200, Note_on_c, 10, 45, 105
11, 895440, Note_on_c, 10, 45, 0
11, 895440, Note_on_c, 10, 47, 105
11, 895680, Note_on_c, 10, 47, 0
11, 895680, Note_on_c, 10, 43, 105
11, 896160, Note_on_c, 10, 43, 0
11, 897600, Note_on_c, 10, 38, 70
11, 898560, Note_on_c, 10, 38, 0
11, 898560, Note_on_c, 10, 43, 70
11, 899040, Note_on_c, 10, 43, 0
11, 899520, Note_on_c, 10, 38, 70
11, 900480, Note_on_c, 10, 38, 0
11, 900480, Note_on_c, 10, 43, 70
11, 900960, Note_on_c, 10, 43, 0
11, 900960, Note_on_c, 10, 52, 70
11, 901440, Note_on_c, 10, 52, 0
11, 901440, Note_on_c, 10, 50, 70
11, 902400, Note_on_c, 10, 50, 0
11, 903360, Note_on_c, 10, 38, 70
11, 903840, Note_on_c, 10, 38, 0
11, 905280, Note_on_c, 10, 43, 70
11, 906240, Note_on_c, 10, 43, 0
11, 906240, Note_on_c, 10, 42, 70
11, 906720, Note_on_c, 10, 42, 0
11, 907200, Note_on_c, 10, 43, 70
11, 908160, Note_on_c, 10, 43, 0
11, 908160, Note_on_c, 10, 42, 70
11, 908640, Note_on_c, 10, 42, 0
11, 908640, Note_on_c, 10, 38, 70
11, 909120, Note_on_c, 10, 38, 0
11, 909120, Note_on_c, 10, 43, 70
11, 910080, Note_on_c, 10, 43, 0
11, 941760, Note_on_c, 10, 31, 70
11, 942720, Note_on_c, 10, 31, 0
11, 943200, Note_on_c, 10, 35, 70
11, 943680, Note_on_c, 10, 35, 0
11, 943680, Note_on_c, 10, 36, 70
11, 944160, Note_on_c, 10, 36, 0
11, 944160, Note_on_c, 10, 40, 70
11, 944640, Note_on_c, 10, 40, 0
11, 944640, Note_on_c, 10, 45, 70
11, 945120, Note_on_c, 10, 45, 0
11, 945120, Note_on_c, 10, 48, 70
11, 945600, Note_on_c, 10, 48, 0
11, 945600, Note_on_c, 10, 35, 70
11, 946080, Note_on_c, 10, 35, 0
11, 946080, Note_on_c, 10, 38, 70
11, 946560, Note_on_c, 10, 38, 0
11, 946560, Note_on_c, 10, 43, 70
11, 947040, Note_on_c, 10, 43, 0
11, 947040, Note_on_c, 10, 47, 70
11, 947520, Note_on_c, 10, 47, 0
11, 947520, Note_on_c, 10, 33, 70
11, 948000, Note_on_c, 10, 33, 0
11, 948000, Note_on_c, 10, 36, 70
11, 948480, Note_on_c, 10, 36, 0
11, 948480, Note_on_c, 10, 42, 70
11, 948960, Note_on_c, 10, 42, 0
11, 948960, Note_on_c, 10, 45, 70
11, 949440, Note_on_c, 10, 45, 0
11, 949440, Note_on_c, 10, 43, 70
11, 949920, Note_on_c, 10, 43, 0
11, 985920, Note_on_c, 10, 43, 70
11, 991200, Note_on_c, 10, 43, 0
11, 991200, Note_on_c, 10, 47, 70
11, 991680, Note_on_c, 10, 47, 0
11, 991680, Note_on_c, 10, 50, 70
11, 992640, Note_on_c, 10, 50, 0
11, 992640, Note_on_c, 10, 38, 70
11, 993600, Note_on_c, 10, 38, 0
11, 993600, Note_on_c, 10, 43, 70
11, 994560, Note_on_c, 10, 43, 0
11, 995040, Note_on_c, 10, 38, 70
11, 995520, Note_on_c, 10, 38, 0
11, 995520, Note_on_c, 10, 43, 70
11, 996000, Note_on_c, 10, 43, 0
11, 996000, Note_on_c, 10, 38, 70
11, 996480, Note_on_c, 10, 38, 0
11, 996480, Note_on_c, 10, 43, 70
11, 996960, Note_on_c, 10, 43, 0
11, 996960, Note_on_c, 10, 38, 70
11, 997440, Note_on_c, 10, 38, 0
11, 997440, Note_on_c, 10, 43, 70
11, 997920, Note_on_c, 10, 43, 0
11, 998400, Note_on_c, 10, 43, 70
11, 998880, Note_on_c, 10, 43, 0
11, 998880, Note_on_c, 10, 47, 70
11, 999360, Note_on_c, 10, 47, 0
11, 999360, Note_on_c, 10, 50, 70
11, 999840, Note_on_c, 10, 50, 0
11, 1000320, Note_on_c, 10, 38, 70
11, 1000800, Note_on_c, 10, 38, 0
11, 1001280, Note_on_c, 10, 43, 70
11, 1001760, Note_on_c, 10, 43, 0
11, 1006080, Note_on_c, 10, 42, 70
11, 1007040, Note_on_c, 10, 42, 0
11, 1007040, Note_on_c, 10, 43, 70
11, 1008000, Note_on_c, 10, 43, 0
11, 1008000, Note_on_c, 10, 38, 70
11, 1008960, Note_on_c, 10, 38, 0
11, 1008960, Note_on_c, 10, 31, 70
11, 1009920, Note_on_c, 10, 31, 0
11, 1009920, Note_on_c, 10, 42, 70
11, 1010880, Note_on_c, 10, 42, 0
11, 1010880, Note_on_c, 10, 43, 70
11, 1011840, Note_on_c, 10, 43, 0
11, 1011840, Note_on_c, 10, 38, 70
11, 1012800, Note_on_c, 10, 38, 0
11, 1012800, Note_on_c, 10, 31, 70
11, 1013280, Note_on_c, 10, 31, 0
11, 1020480, Note_on_c, 10, 31, 70
11, 1027200, Note_on_c, 10, 31, 0
11, 1045440, Note_on_c, 10, 48, 105
11, 1045920, Note_on_c, 10, 48, 0
11, 1046400, Note_on_c, 10, 43, 105
11, 1046880, Note_on_c, 10, 43, 0
11, 1047360, Note_on_c, 10, 36, 105
11, 1048320, Note_on_c, 10, 36, 0
11, 1049280, Note_on_c, 10, 36, 105
11, 1050240, Note_on_c, 10, 36, 0
11, 1051200, Note_on_c, 10, 36, 105
11, 1052160, Note_on_c, 10, 36, 0
11, 1053120, Note_on_c, 10, 40, 105
11, 1054080, Note_on_c, 10, 40, 0
11, 1054080, Note_on_c, 10, 43, 105
11, 1055040, Note_on_c, 10, 43, 0
11, 1055040, Note_on_c, 10, 48, 105
11, 1056000, Note_on_c, 10, 48, 0
11, 1056000, Note_on_c, 10, 43, 105
11, 1056960, Note_on_c, 10, 43, 0
11, 1056960, Note_on_c, 10, 40, 105
11, 1057440, Note_on_c, 10, 40, 0
11, 1057440, Note_on_c, 10, 36, 105
11, 1057920, Note_on_c, 10, 36, 0
11, 1057920, Note_on_c, 10, 43, 105
11, 1058400, Note_on_c, 10, 43, 0
11, 1058400, Note_on_c, 10, 31, 105
11, 1058880, Note_on_c, 10, 31, 0
11, 1058880, Note_on_c, 10, 36, 105
11, 1059360, Note_on_c, 10, 36, 0
11, 1059360, Note_on_c, 10, 36, 105
11, 1059456, Note_on_c, 10, 36, 0
11, 1059600, Note_on_c, 10, 36, 105
11, 1059696, Note_on_c, 10, 36, 0
11, 1059840, Note_on_c, 10, 35, 105
11, 1060080, Note_on_c, 10, 35, 0
11, 1060080, Note_on_c, 10, 38, 105
11, 1060320, Note_on_c, 10, 38, 0
11, 1060320, Note_on_c, 10, 41, 105
11, 1060416, Note_on_c, 10, 41, 0
11, 1060560, Note_on_c, 10, 41, 105
11, 1060656, Note_on_c, 10, 41, 0
11, 1060800, Note_on_c, 10, 40, 105
11, 1061040, Note_on_c, 10, 40, 0
11, 1061040, Note_on_c, 10, 43, 105
11, 1061280, Note_on_c, 10, 43, 0
11, 1061280, Note_on_c, 10, 48, 105
11, 1061376, Note_on_c, 10, 48, 0
11, 1061520, Note_on_c, 10, 48, 105
11, 1061616, Note_on_c, 10, 48, 0
11, 1061760, Note_on_c, 10, 47, 105
11, 1062240, Note_on_c, 10, 47, 0
11, 1062240, Note_on_c, 10, 43, 105
11, 1062480, Note_on_c, 10, 43, 0
11, 1062480, Note_on_c, 10, 43, 105
11, 1062720, Note_on_c, 10, 43, 0
11, 1062720, Note_on_c, 10, 48, 105
11, 1063200, Note_on_c, 10, 48, 0
11, 1063200, Note_on_c, 10, 43, 105
11, 1063440, Note_on_c, 10, 43, 0
11, 1063440, Note_on_c, 10, 43, 105
11, 1063680, Note_on_c, 10, 43, 0
11, 1063680, Note_on_c, 10, 50, 105
11, 1064160, Note_on_c, 10, 50, 0
11, 1064160, Note_on_c, 10, 43, 105
11, 1064400, Note_on_c, 10, 43, 0
11, 1064400, Note_on_c, 10, 43, 105
11, 1064640, Note_on_c, 10, 43, 0
11, 1064640, Note_on_c, 10, 52, 105
11, 1065120, Note_on_c, 10, 52, 0
11, 1065120, Note_on_c, 10, 43, 105
11, 1065360, Note_on_c, 10, 43, 0
11, 1065360, Note_on_c, 10, 43, 105
11, 1065600, Note_on_c, 10, 43, 0
11, 1065600, Note_on_c, 10, 47, 105
11, 1066080, Note_on_c, 10, 47, 0
11, 1066080, Note_on_c, 10, 43, 105
11, 1066320, Note_on_c, 10, 43, 0
11, 1066320, Note_on_c, 10, 43, 105
11, 1066560, Note_on_c, 10, 43, 0
11, 1066560, Note_on_c, 10, 48, 105
11, 1067040, Note_on_c, 10, 48, 0
11, 1067040, Note_on_c, 10, 43, 105
11, 1067280, Note_on_c, 10, 43, 0
11, 1067280, Note_on_c, 10, 43, 105
11, 1067520, Note_on_c, 10, 43, 0
11, 1067520, Note_on_c, 10, 50, 105
11, 1068000, Note_on_c, 10, 50, 0
11, 1068000, Note_on_c, 10, 43, 105
11, 1068240, Note_on_c, 10, 43, 0
11, 1068240, Note_on_c, 10, 43, 105
11, 1068480, Note_on_c, 10, 43, 0
11, 1068480, Note_on_c, 10, 52, 105
11, 1068960, Note_on_c, 10, 52, 0
11, 1068960, Note_on_c, 10, 43, 105
11, 1069200, Note_on_c, 10, 43, 0
11, 1069200, Note_on_c, 10, 43, 105
11, 1069440, Note_on_c, 10, 43, 0
11, 1069440, Note_on_c, 10, 44, 105
11, 1069920, Note_on_c, 10, 44, 0
11, 1069920, Note_on_c, 10, 40, 105
11, 1070160, Note_on_c, 10, 40, 0
11, 1070160, Note_on_c, 10, 40, 105
11, 1070400, Note_on_c, 10, 40, 0
11, 1070400, Note_on_c, 10, 45, 105
11, 1070880, Note_on_c, 10, 45, 0
11, 1070880, Note_on_c, 10, 40, 105
11, 1071120, Note_on_c, 10, 40, 0
11, 1071120, Note_on_c, 10, 40, 105
11, 1071360, Note_on_c, 10, 40, 0
11, 1071360, Note_on_c, 10, 47, 105
11, 1071840, Note_on_c, 10, 47, 0
11, 1071840, Note_on_c, 10, 40, 105
11, 1072080, Note_on_c, 10, 40, 0
11, 1072080, Note_on_c, 10, 40, 105
11, 1072320, Note_on_c, 10, 40, 0
11, 1072320, Note_on_c, 10, 48, 105
11, 1072800, Note_on_c, 10, 48, 0
11, 1072800, Note_on_c, 10, 36, 105
11, 1073040, Note_on_c, 10, 36, 0
11, 1073040, Note_on_c, 10, 36, 105
11, 1073280, Note_on_c, 10, 36, 0
11, 1073280, Note_on_c, 10, 40, 105
11, 1073760, Note_on_c, 10, 40, 0
11, 1073760, Note_on_c, 10, 36, 105
11, 1074000, Note_on_c, 10, 36, 0
11, 1074000, Note_on_c, 10, 36, 105
11, 1074240, Note_on_c, 10, 36, 0
11, 1074240, Note_on_c, 10, 41, 105
11, 1074720, Note_on_c, 10, 41, 0
11, 1074720, Note_on_c, 10, 36, 105
11, 1074960, Note_on_c, 10, 36, 0
11, 1074960, Note_on_c, 10, 36, 105
11, 1075200, Note_on_c, 10, 36, 0
11, 1075200, Note_on_c, 10, 43, 105
11, 1075680, Note_on_c, 10, 43, 0
11, 1075680, Note_on_c, 10, 36, 105
11, 1075920, Note_on_c, 10, 36, 0
11, 1075920, Note_on_c, 10, 36, 105
11, 1076160, Note_on_c, 10, 36, 0
11, 1076160, Note_on_c, 10, 45, 105
11, 1076640, Note_on_c, 10, 45, 0
11, 1076640, Note_on_c, 10, 36, 105
11, 1076880, Note_on_c, 10, 36, 0
11, 1076880, Note_on_c, 10, 36, 105
11, 1077120, Note_on_c, 10, 36, 0
11, 1077120, Note_on_c, 10, 40, 105
11, 1077600, Note_on_c, 10, 40, 0
11, 1077600, Note_on_c, 10, 36, 105
11, 1077840, Note_on_c, 10, 36, 0
11, 1077840, Note_on_c, 10, 36, 105
11, 1078080, Note_on_c, 10, 36, 0
11, 1078080, Note_on_c, 10, 41, 105
11, 1078560, Note_on_c, 10, 41, 0
11, 1093440, Note_on_c, 10, 41, 70
11, 1093632, Note_on_c, 10, 41, 0
11, 1093920, Note_on_c, 10, 41, 70
11, 1094112, Note_on_c, 10, 41, 0
11, 1094400, Note_on_c, 10, 41, 70
11, 1094592, Note_on_c, 10, 41, 0
11, 1094880, Note_on_c, 10, 41, 70
11, 1095072, Note_on_c, 10, 41, 0
11, 1095360, Note_on_c, 10, 41, 70
11, 1095552, Note_on_c, 10, 41, 0
11, 1095840, Note_on_c, 10, 41, 70
11, 1096032, Note_on_c, 10, 41, 0
11, 1096320, Note_on_c, 10, 41, 70
11, 1096512, Note_on_c, 10, 41, 0
11, 1096800, Note_on_c, 10, 41, 70
11, 1096992, Note_on_c, 10, 41, 0
11, 1097280, Note_on_c, 10, 41, 70
11, 1097472, Note_on_c, 10, 41, 0
11, 1097760, Note_on_c, 10, 41, 70
11, 1097952, Note_on_c, 10, 41, 0
11, 1098240, Note_on_c, 10, 41, 70
11, 1098432, Note_on_c, 10, 41, 0
11, 1098720, Note_on_c, 10, 41, 70
11, 1098912, Note_on_c, 10, 41, 0
11, 1099200, Note_on_c, 10, 41, 70
11, 1099392, Note_on_c, 10, 41, 0
11, 1099680, Note_on_c, 10, 41, 70
11, 1099872, Note_on_c, 10, 41, 0
11, 1100160, Note_on_c, 10, 41, 70
11, 1101120, Note_on_c, 10, 41, 0
11, 1152960, Note_on_c, 10, 48, 70
11, 1153440, Note_on_c, 10, 48, 0
11, 1153920, Note_on_c, 10, 43, 70
11, 1154400, Note_on_c, 10, 43, 0
11, 1154880, Note_on_c, 10, 36, 70
11, 1155360, Note_on_c, 10, 36, 0
11, 1156800, Note_on_c, 10, 43, 70
11, 1157280, Note_on_c, 10, 43, 0
11, 1157760, Note_on_c, 10, 36, 70
11, 1158240, Note_on_c, 10, 36, 0
11, 1158720, Note_on_c, 10, 31, 70
11, 1159200, Note_on_c, 10, 31, 0
11, 1174080, Note_on_c, 10, 43, 70
11, 1174560, Note_on_c, 10, 43, 0
11, 1176000, Note_on_c, 10, 43, 70
11, 1176480, Note_on_c, 10, 43, 0
11, 1177920, Note_on_c, 10, 43, 70
11, 1181760, Note_on_c, 10, 43, 0
11, 1181760, Note_on_c, 10, 36, 70
11, 1182240, Note_on_c, 10, 36, 0
11, 1210560, Note_on_c, 10, 45, 90
11, 1211520, Note_on_c, 10, 45, 0
11, 1212480, Note_on_c, 10, 43, 90
11, 1213440, Note_on_c, 10, 43, 0
11, 1214400, Note_on_c, 10, 45, 90
11, 1215360, Note_on_c, 10, 45, 0
11, 1216320, Note_on_c, 10, 43, 70
11, 1216800, Note_on_c, 10, 43, 0
11, 1220160, Note_on_c, 10, 43, 90
11, 1220400, Note_on_c, 10, 43, 0
11, 1220400, Note_on_c, 10, 42, 90
11, 1220640, Note_on_c, 10, 42, 0
11, 1220640, Note_on_c, 10, 43, 90
11, 1220880, Note_on_c, 10, 43, 0
11, 1220880, Note_on_c, 10, 45, 90
11, 1221120, Note_on_c, 10, 45, 0
11, 1221120, Note_on_c, 10, 41, 90
11, 1221360, Note_on_c, 10, 41, 0
11, 1221360, Note_on_c, 10, 40, 90
11, 1221600, Note_on_c, 10, 40, 0
11, 1221600, Note_on_c, 10, 41, 90
11, 1221840, Note_on_c, 10, 41, 0
11, 1221840, Note_on_c, 10, 43, 90
11, 1222080, Note_on_c, 10, 43, 0
11, 1222080, Note_on_c, 10, 40, 90
11, 1222320, Note_on_c, 10, 40, 0
11, 1222320, Note_on_c, 10, 39, 90
11, 1222560, Note_on_c, 10, 39, 0
11, 1222560, Note_on_c, 10, 40, 90
11, 1222800, Note_on_c, 10, 40, 0
11, 1222800, Note_on_c, 10, 41, 90
11, 1223040, Note_on_c, 10, 41, 0
11, 1223040, Note_on_c, 10, 38, 90
11, 1223280, Note_on_c, 10, 38, 0
11, 1223280, Note_on_c, 10, 37, 90
11, 1223520, Note_on_c, 10, 37, 0
11, 1223520, Note_on_c, 10, 38, 90
11, 1223760, Note_on_c, 10, 38, 0
11, 1223760, Note_on_c, 10, 40, 90
11, 1224000, Note_on_c, 10, 40, 0
11, 1224000, Note_on_c, 10, 36, 90
11, 1224480, Note_on_c, 10, 36, 0
11, 1225920, Note_on_c, 10, 31, 70
11, 1226880, Note_on_c, 10, 31, 0
11, 1226880, Note_on_c, 10, 36, 70
11, 1227360, Note_on_c, 10, 36, 0
11, 1227840, Note_on_c, 10, 31, 70
11, 1228800, Note_on_c, 10, 31, 0
11, 1228800, Note_on_c, 10, 36, 70
11, 1229280, Note_on_c, 10, 36, 0
11, 1229280, Note_on_c, 10, 45, 70
11, 1229760, Note_on_c, 10, 45, 0
11, 1229760, Note_on_c, 10, 43, 70
11, 1230720, Note_on_c, 10, 43, 0
11, 1231680, Note_on_c, 10, 31, 70
11, 1232160, Note_on_c, 10, 31, 0
11, 1233600, Note_on_c, 10, 36, 70
11, 1234560, Note_on_c, 10, 36, 0
11, 1234560, Note_on_c, 10, 35, 70
11, 1235040, Note_on_c, 10, 35, 0
11, 1235520, Note_on_c, 10, 36, 70
11, 1236480, Note_on_c, 10, 36, 0
11, 1236480, Note_on_c, 10, 35, 70
11, 1236960, Note_on_c, 10, 35, 0
11, 1236960, Note_on_c, 10, 31, 70
11, 1237440, Note_on_c, 10, 31, 0
11, 1237440, Note_on_c, 10, 36, 70
11, 1238400, Note_on_c, 10, 36, 0
11, 1256640, Note_on_c, 10, 31, 70
11, 1257600, Note_on_c, 10, 31, 0
11, 1257600, Note_on_c, 10, 36, 70
11, 1258080, Note_on_c, 10, 36, 0
11, 1258560, Note_on_c, 10, 31, 70
11, 1259520, Note_on_c, 10, 31, 0
11, 1259520, Note_on_c, 10, 36, 70
11, 1260000, Note_on_c, 10, 36, 0
11, 1260000, Note_on_c, 10, 35, 70
11, 1260480, Note_on_c, 10, 35, 0
11, 1260480, Note_on_c, 10, 36, 70
11, 1260960, Note_on_c, 10, 36, 0
11, 1260960, Note_on_c, 10, 40, 70
11, 1261440, Note_on_c, 10, 40, 0
11, 1261440, Note_on_c, 10, 43, 70
11, 1261920, Note_on_c, 10, 43, 0
11, 1262400, Note_on_c, 10, 43, 70
11, 1263360, Note_on_c, 10, 43, 0
11, 1264320, Note_on_c, 10, 31, 70
11, 1265280, Note_on_c, 10, 31, 0
11, 1266240, Note_on_c, 10, 31, 70
11, 1267200, Note_on_c, 10, 31, 0
11, 1267680, Note_on_c, 10, 31, 70
11, 1268160, Note_on_c, 10, 31, 0
11, 1268160, Note_on_c, 10, 36, 70
11, 1268640, Note_on_c, 10, 36, 0
11, 1268640, Note_on_c, 10, 43, 70
11, 1269120, Note_on_c, 10, 43, 0
11, 1269120, Note_on_c, 10, 48, 70
11, 1269600, Note_on_c, 10, 48, 0
11, 1270080, Note_on_c, 10, 36, 70
11, 1271040, Note_on_c, 10, 36, 0
11, 1271520, Note_on_c, 10, 40, 70
11, 1272000, Note_on_c, 10, 40, 0
11, 1272000, Note_on_c, 10, 41, 70
11, 1272480, Note_on_c, 10, 41, 0
11, 1272480, Note_on_c, 10, 45, 70
11, 1272960, Note_on_c, 10, 45, 0
11, 1272960, Note_on_c, 10, 50, 70
11, 1273440, Note_on_c, 10, 50, 0
11, 1273440, Note_on_c, 10, 53, 70
11, 1273920, Note_on_c, 10, 53, 0
11, 1273920, Note_on_c, 10, 40, 70
11, 1274400, Note_on_c, 10, 40, 0
11, 1274400, Note_on_c, 10, 43, 70
11, 1274880, Note_on_c, 10, 43, 0
11, 1274880, Note_on_c, 10, 48, 70
11, 1275360, Note_on_c, 10, 48, 0
11, 1275360, Note_on_c, 10, 52, 70
11, 1275840, Note_on_c, 10, 52, 0
11, 1275840, Note_on_c, 10, 38, 70
11, 1276320, Note_on_c, 10, 38, 0
11, 1276320, Note_on_c, 10, 41, 70
11, 1276800, Note_on_c, 10, 41, 0
11, 1276800, Note_on_c, 10, 47, 70
11, 1277280, Note_on_c, 10, 47, 0
11, 1277280, Note_on_c, 10, 50, 70
11, 1277760, Note_on_c, 10, 50, 0
11, 1277760, Note_on_c, 10, 48, 70
11, 1278240, Note_on_c, 10, 48, 0
11, 1284000, Note_on_c, 10, 45, 90
11, 1284960, Note_on_c, 10, 45, 0
11, 1284960, Note_on_c, 10, 43, 70
11, 1285152, Note_on_c, 10, 43, 0
11, 1285440, Note_on_c, 10, 41, 70
11, 1285632, Note_on_c, 10, 41, 0
11, 1285920, Note_on_c, 10, 40, 70
11, 1286112, Note_on_c, 10, 40, 0
11, 1286400, Note_on_c, 10, 45, 70
11, 1286592, Note_on_c, 10, 45, 0
11, 1286880, Note_on_c, 10, 43, 70
11, 1287072, Note_on_c, 10, 43, 0
11, 1287360, Note_on_c, 10, 41, 70
11, 1287840, Note_on_c, 10, 41, 0
11, 1287840, Note_on_c, 10, 45, 90
11, 1288800, Note_on_c, 10, 45, 0
11, 1288800, Note_on_c, 10, 43, 70
11, 1288992, Note_on_c, 10, 43, 0
11, 1289280, Note_on_c, 10, 41, 70
11, 1289472, Note_on_c, 10, 41, 0
11, 1289760, Note_on_c, 10, 40, 70
11, 1289952, Note_on_c, 10, 40, 0
11, 1290240, Note_on_c, 10, 45, 70
11, 1290432, Note_on_c, 10, 45, 0
11, 1290720, Note_on_c, 10, 43, 70
11, 1290912, Note_on_c, 10, 43, 0
11, 1291200, Note_on_c, 10, 41, 70
11, 1293120, Note_on_c, 10, 41, 0
11, 1293120, Note_on_c, 10, 42, 70
11, 1295040, Note_on_c, 10, 42, 0
11, 1295040, Note_on_c, 10, 43, 70
11, 1295520, Note_on_c, 10, 43, 0
11, 1299360, Note_on_c, 10, 36, 70
11, 1299552, Note_on_c, 10, 36, 0
11, 1299840, Note_on_c, 10, 40, 70
11, 1300032, Note_on_c, 10, 40, 0
11, 1300320, Note_on_c, 10, 36, 70
11, 1300512, Note_on_c, 10, 36, 0
11, 1301280, Note_on_c, 10, 38, 70
11, 1301472, Note_on_c, 10, 38, 0
11, 1301760, Note_on_c, 10, 35, 70
11, 1301952, Note_on_c, 10, 35, 0
11, 1302240, Note_on_c, 10, 31, 70
11, 1302432, Note_on_c, 10, 31, 0
11, 1303200, Note_on_c, 10, 36, 70
11, 1303392, Note_on_c, 10, 36, 0
11, 1303680, Note_on_c, 10, 45, 70
11, 1303872, Note_on_c, 10, 45, 0
11, 1304160, Note_on_c, 10, 41, 70
11, 1304352, Note_on_c, 10, 41, 0
11, 1305120, Note_on_c, 10, 43, 70
11, 1305312, Note_on_c, 10, 43, 0
11, 1305600, Note_on_c, 10, 31, 70
11, 1305792, Note_on_c, 10, 31, 0
11, 1306080, Note_on_c, 10, 41, 70
11, 1306272, Note_on_c, 10, 41, 0
11, 1307040, Note_on_c, 10, 40, 70
11, 1307232, Note_on_c, 10, 40, 0
11, 1307520, Note_on_c, 10, 38, 70
11, 1307712, Note_on_c, 10, 38, 0
11, 1308000, Note_on_c, 10, 36, 70
11, 1308192, Note_on_c, 10, 36, 0
11, 1308960, Note_on_c, 10, 45, 70
11, 1309152, Note_on_c, 10, 45, 0
11, 1309440, Note_on_c, 10, 43, 70
11, 1309632, Note_on_c, 10, 43, 0
11, 1309920, Note_on_c, 10, 41, 70
11, 1310112, Note_on_c, 10, 41, 0
11, 1310400, Note_on_c, 10, 40, 70
11, 1310592, Note_on_c, 10, 40, 0
11, 1310880, Note_on_c, 10, 45, 70
11, 1311072, Note_on_c, 10, 45, 0
11, 1311360, Note_on_c, 10, 41, 70
11, 1311552, Note_on_c, 10, 41, 0
11, 1311840, Note_on_c, 10, 43, 70
11, 1312032, Note_on_c, 10, 43, 0
11, 1312800, Note_on_c, 10, 36, 70
11, 1312992, Note_on_c, 10, 36, 0
11, 1313280, Note_on_c, 10, 40, 70
11, 1313472, Note_on_c, 10, 40, 0
11, 1313760, Note_on_c, 10, 43, 70
11, 1313952, Note_on_c, 10, 43, 0
11, 1314720, Note_on_c, 10, 48, 70
11, 1315200, Note_on_c, 10, 48, 0
11, 1315200, Note_on_c, 10, 47, 70
11, 1315680, Note_on_c, 10, 47, 0
11, 1315680, Note_on_c, 10, 46, 70
11, 1316160, Note_on_c, 10, 46, 0
11, 1316160, Note_on_c, 10, 45, 70
11, 1316640, Note_on_c, 10, 45, 0
11, 1316640, Note_on_c, 10, 48, 70
11, 1317120, Note_on_c, 10, 48, 0
11, 1317120, Note_on_c, 10, 45, 70
11, 1317600, Note_on_c, 10, 45, 0
11, 1317600, Note_on_c, 10, 41, 70
11, 1318080, Note_on_c, 10, 41, 0
11, 1318080, Note_on_c, 10, 40, 70
11, 1320000, Note_on_c, 10, 40, 0
11, 1320000, Note_on_c, 10, 41, 70
11, 1320960, Note_on_c, 10, 41, 0
11, 1320960, Note_on_c, 10, 45, 70
11, 1321920, Note_on_c, 10, 45, 0
11, 1321920, Note_on_c, 10, 43, 70
11, 1323840, Note_on_c, 10, 43, 0
11, 1323840, Note_on_c, 10, 31, 70
11, 1325760, Note_on_c, 10, 31, 0
11, 1325760, Note_on_c, 10, 36, 70
11, 1326240, Note_on_c, 10, 36, 0
11, 1360320, Note_on_c, 10, 45, 70
11, 1360800, Note_on_c, 10, 45, 0
11, 1361280, Note_on_c, 10, 41, 70
11, 1361760, Note_on_c, 10, 41, 0
11, 1362240, Note_on_c, 10, 43, 80
11, 1362720, Note_on_c, 10, 43, 0
11, 1363200, Note_on_c, 10, 31, 80
11, 1363680, Note_on_c, 10, 31, 0
11, 1364160, Note_on_c, 10, 48, 90
11, 1364400, Note_on_c, 10, 48, 0
11, 1364400, Note_on_c, 10, 47, 105
11, 1364640, Note_on_c, 10, 47, 0
11, 1364640, Note_on_c, 10, 48, 105
11, 1364880, Note_on_c, 10, 48, 0
11, 1364880, Note_on_c, 10, 50, 105
11, 1365120, Note_on_c, 10, 50, 0
11, 1365120, Note_on_c, 10, 52, 105
11, 1365360, Note_on_c, 10, 52, 0
11, 1365360, Note_on_c, 10, 50, 105
11, 1365600, Note_on_c, 10, 50, 0
11, 1365600, Note_on_c, 10, 48, 105
11, 1365840, Note_on_c, 10, 48, 0
11, 1365840, Note_on_c, 10, 47, 105
11, 1366080, Note_on_c, 10, 47, 0
11, 1366080, Note_on_c, 10, 45, 105
11, 1366320, Note_on_c, 10, 45, 0
11, 1366320, Note_on_c, 10, 44, 105
11, 1366560, Note_on_c, 10, 44, 0
11, 1366560, Note_on_c, 10, 45, 105
11, 1366800, Note_on_c, 10, 45, 0
11, 1366800, Note_on_c, 10, 47, 105
11, 1367040, Note_on_c, 10, 47, 0
11, 1367040, Note_on_c, 10, 48, 105
11, 1367280, Note_on_c, 10, 48, 0
11, 1367280, Note_on_c, 10, 47, 105
11, 1367520, Note_on_c, 10, 47, 0
11, 1367520, Note_on_c, 10, 45, 105
11, 1367760, Note_on_c, 10, 45, 0
11, 1367760, Note_on_c, 10, 43, 105
11, 1368000, Note_on_c, 10, 43, 0
11, 1368000, Note_on_c, 10, 41, 105
11, 1368480, Note_on_c, 10, 41, 0
11, 1368960, Note_on_c, 10, 38, 105
11, 1369440, Note_on_c, 10, 38, 0
11, 1369920, Note_on_c, 10, 36, 105
11, 1370400, Note_on_c, 10, 36, 0
11, 1370880, Note_on_c, 10, 45, 105
11, 1371360, Note_on_c, 10, 45, 0
11, 1371840, Note_on_c, 10, 43, 105
11, 1372800, Note_on_c, 10, 43, 0
11, 1375680, Note_on_c, 10, 36, 90
11, 1375920, Note_on_c, 10, 36, 0
11, 1375920, Note_on_c, 10, 38, 90
11, 1376160, Note_on_c, 10, 38, 0
11, 1376160, Note_on_c, 10, 40, 90
11, 1376400, Note_on_c, 10, 40, 0
11, 1376400, Note_on_c, 10, 38, 105
11, 1376640, Note_on_c, 10, 38, 0
11, 1376640, Note_on_c, 10, 36, 105
11, 1376880, Note_on_c, 10, 36, 0
11, 1376880, Note_on_c, 10, 38, 105
11, 1377120, Note_on_c, 10, 38, 0
11, 1377120, Note_on_c, 10, 40, 105
11, 1377360, Note_on_c, 10, 40, 0
11, 1377360, Note_on_c, 10, 41, 105
11, 1377600, Note_on_c, 10, 41, 0
11, 1377600, Note_on_c, 10, 43, 105
11, 1377840, Note_on_c, 10, 43, 0
11, 1377840, Note_on_c, 10, 45, 105
11, 1378080, Note_on_c, 10, 45, 0
11, 1378080, Note_on_c, 10, 47, 105
11, 1378320, Note_on_c, 10, 47, 0
11, 1378320, Note_on_c, 10, 45, 105
11, 1378560, Note_on_c, 10, 45, 0
11, 1378560, Note_on_c, 10, 43, 105
11, 1378800, Note_on_c, 10, 43, 0
11, 1378800, Note_on_c, 10, 45, 105
11, 1379040, Note_on_c, 10, 45, 0
11, 1379040, Note_on_c, 10, 47, 105
11, 1379280, Note_on_c, 10, 47, 0
11, 1379280, Note_on_c, 10, 43, 105
11, 1379520, Note_on_c, 10, 43, 0
11, 1379520, Note_on_c, 10, 48, 105
11, 1379760, Note_on_c, 10, 48, 0
11, 1379760, Note_on_c, 10, 52, 105
11, 1380000, Note_on_c, 10, 52, 0
11, 1380000, Note_on_c, 10, 48, 105
11, 1380240, Note_on_c, 10, 48, 0
11, 1380240, Note_on_c, 10, 43, 105
11, 1380480, Note_on_c, 10, 43, 0
11, 1380480, Note_on_c, 10, 40, 105
11, 1380720, Note_on_c, 10, 40, 0
11, 1380720, Note_on_c, 10, 43, 105
11, 1380960, Note_on_c, 10, 43, 0
11, 1380960, Note_on_c, 10, 40, 105
11, 1381200, Note_on_c, 10, 40, 0
11, 1381200, Note_on_c, 10, 36, 105
11, 1381440, Note_on_c, 10, 36, 0
11, 1381440, Note_on_c, 10, 31, 105
11, 1381680, Note_on_c, 10, 31, 0
11, 1381680, Note_on_c, 10, 35, 105
11, 1381920, Note_on_c, 10, 35, 0
11, 1381920, Note_on_c, 10, 38, 105
11, 1382160, Note_on_c, 10, 38, 0
11, 1382160, Note_on_c, 10, 43, 105
11, 1382400, Note_on_c, 10, 43, 0
11, 1382400, Note_on_c, 10, 47, 105
11, 1382640, Note_on_c, 10, 47, 0
11, 1382640, Note_on_c, 10, 50, 105
11, 1382880, Note_on_c, 10, 50, 0
11, 1382880, Note_on_c, 10, 47, 105
11, 1383120, Note_on_c, 10, 47, 0
11, 1383120, Note_on_c, 10, 43, 105
11, 1383360, Note_on_c, 10, 43, 0
11, 1383360, Note_on_c, 10, 48, 105
11, 1383840, Note_on_c, 10, 48, 0
11, 1384200, Note_on_c, 10, 48, 105
11, 1384320, Note_on_c, 10, 48, 0
11, 1384320, Note_on_c, 10, 45, 105
11, 1384800, Note_on_c, 10, 45, 0
11, 1385160, Note_on_c, 10, 45, 105
11, 1385280, Note_on_c, 10, 45, 0
11, 1385280, Note_on_c, 10, 41, 105
11, 1385760, Note_on_c, 10, 41, 0
11, 1386120, Note_on_c, 10, 41, 105
11, 1386240, Note_on_c, 10, 41, 0
11, 1386240, Note_on_c, 10, 43, 105
11, 1386720, Note_on_c, 10, 43, 0
11, 1387080, Note_on_c, 10, 43, 105
11, 1387200, Note_on_c, 10, 43, 0
11, 1387200, Note_on_c, 10, 36, 105
11, 1388160, Note_on_c, 10, 36, 0
11, 1428960, Note_on_c, 10, 43, 105
11, 1429440, Note_on_c, 10, 43, 0
11, 1429440, Note_on_c, 10, 48, 105
11, 1430400, Note_on_c, 10, 48, 0
11, 1430880, Note_on_c, 10, 43, 105
11, 1431360, Note_on_c, 10, 43, 0
11, 1431360, Note_on_c, 10, 48, 105
11, 1432320, Note_on_c, 10, 48, 0
11, 1432800, Note_on_c, 10, 43, 105
11, 1433280, Note_on_c, 10, 43, 0
11, 1433280, Note_on_c, 10, 48, 105
11, 1434240, Note_on_c, 10, 48, 0
11, 1434240, Note_on_c, 10, 48, 105
11, 1435200, Note_on_c, 10, 48, 0
11, 1435200, Note_on_c, 10, 36, 105
11, 1436160, Note_on_c, 10, 36, 0
11, 1436160, End_track
12, 0, Start_track
12, 0, MIDI_port, 0
12, 0, Title_t, "Mozart Concerto for Flute and Harp in C,"
12, 0, End_track
13, 0, Start_track
13, 0, MIDI_port, 0
13, 0, Title_t, "K.299 (1778)"
13, 0, End_track
14, 0, Start_track
14, 0, MIDI_port, 0
14, 0, Title_t, "Sequenced by Randy Reid, 1996"
14, 0, End_track
15, 0, Start_track
15, 0, MIDI_port, 0
15, 0, Title_t, "Troppo@msn.com"
15, 0, End_track
0, 0, End_of_file
