0, 0, Header, 1, 24, 120
1, 0, Start_track
1, 0, Time_signature, 6, 3, 12, 8
1, 0, Key_signature, 1, "major"
1, 0, Tempo, 444444
1, 0, Marker_t, "I. Allegro (Theme A in G major)"
1, 12960, Marker_t, "(Theme B in D major)"
1, 26400, Marker_t, "(Repeat of Exposition - Theme A in G major)"
1, 39360, Marker_t, "(Repeat of Theme B in D major)"
1, 52800, Marker_t, "(Development)"
1, 62400, Marker_t, "(Recapitulation - Theme A in G major)"
1, 74400, Marker_t, "(Recapitulation - Theme B in G major)"
1, 83520, Marker_t, "(Coda)"
1, 83520, End_track
2, 0, Start_track
2, 0, MIDI_port, 0
2, 0, Title_t, """Eine Kleine"
2, 0, Program_c, 0, 44
2, 0, Control_c, 0, 7, 92
2, 0, Control_c, 0, 10, 24
2, 0, Note_on_c, 0, 62, 85
2, 0, Note_on_c, 0, 79, 85
2, 0, Note_on_c, 0, 71, 85
2, 120, Note_on_c, 0, 71, 0
2, 120, Note_on_c, 0, 79, 0
2, 120, Note_on_c, 0, 62, 0
2, 180, Note_on_c, 0, 74, 85
2, 210, Note_on_c, 0, 74, 0
2, 240, Note_on_c, 0, 79, 85
2, 360, Note_on_c, 0, 79, 0
2, 420, Note_on_c, 0, 74, 85
2, 450, Note_on_c, 0, 74, 0
2, 480, Note_on_c, 0, 79, 85
2, 510, Note_on_c, 0, 79, 0
2, 540, Note_on_c, 0, 74, 85
2, 570, Note_on_c, 0, 74, 0
2, 600, Note_on_c, 0, 79, 85
2, 630, Note_on_c, 0, 79, 0
2, 660, Note_on_c, 0, 83, 85
2, 690, Note_on_c, 0, 83, 0
2, 720, Note_on_c, 0, 86, 85
2, 840, Note_on_c, 0, 86, 0
2, 960, Note_on_c, 0, 84, 85
2, 1080, Note_on_c, 0, 84, 0
2, 1140, Note_on_c, 0, 81, 82
2, 1170, Note_on_c, 0, 81, 0
2, 1200, Note_on_c, 0, 84, 85
2, 1320, Note_on_c, 0, 84, 0
2, 1380, Note_on_c, 0, 81, 79
2, 1410, Note_on_c, 0, 81, 0
2, 1440, Note_on_c, 0, 84, 85
2, 1470, Note_on_c, 0, 84, 0
2, 1500, Note_on_c, 0, 81, 80
2, 1530, Note_on_c, 0, 81, 0
2, 1560, Note_on_c, 0, 78, 85
2, 1590, Note_on_c, 0, 78, 0
2, 1620, Note_on_c, 0, 81, 77
2, 1650, Note_on_c, 0, 81, 0
2, 1680, Note_on_c, 0, 74, 85
2, 1800, Note_on_c, 0, 74, 0
2, 1920, Note_on_c, 0, 62, 85
2, 1920, Note_on_c, 0, 79, 85
2, 1920, Note_on_c, 0, 71, 85
2, 1980, Note_on_c, 0, 71, 0
2, 1980, Note_on_c, 0, 79, 0
2, 1980, Note_on_c, 0, 62, 0
2, 2040, Note_on_c, 0, 79, 85
2, 2220, Note_on_c, 0, 79, 0
2, 2220, Note_on_c, 0, 83, 89
2, 2280, Note_on_c, 0, 83, 0
2, 2280, Note_on_c, 0, 81, 94
2, 2310, Note_on_c, 0, 81, 0
2, 2340, Note_on_c, 0, 79, 97
2, 2370, Note_on_c, 0, 79, 0
2, 2400, Note_on_c, 0, 79, 95
2, 2415, Note_on_c, 0, 79, 0
2, 2415, Note_on_c, 0, 81, 95
2, 2430, Note_on_c, 0, 81, 0
2, 2430, Note_on_c, 0, 79, 95
2, 2445, Note_on_c, 0, 79, 0
2, 2445, Note_on_c, 0, 81, 94
2, 2460, Note_on_c, 0, 81, 0
2, 2460, Note_on_c, 0, 78, 94
2, 2510, Note_on_c, 0, 78, 0
2, 2520, Note_on_c, 0, 78, 88
2, 2700, Note_on_c, 0, 78, 0
2, 2700, Note_on_c, 0, 81, 85
2, 2760, Note_on_c, 0, 81, 0
2, 2760, Note_on_c, 0, 84, 85
2, 2790, Note_on_c, 0, 84, 0
2, 2820, Note_on_c, 0, 78, 85
2, 2850, Note_on_c, 0, 78, 0
2, 2880, Note_on_c, 0, 81, 85
2, 2940, Note_on_c, 0, 81, 0
2, 2940, Note_on_c, 0, 79, 85
2, 2970, Note_on_c, 0, 79, 0
2, 3000, Note_on_c, 0, 79, 85
2, 3180, Note_on_c, 0, 79, 0
2, 3180, Note_on_c, 0, 83, 86
2, 3240, Note_on_c, 0, 83, 0
2, 3240, Note_on_c, 0, 81, 86
2, 3270, Note_on_c, 0, 81, 0
2, 3300, Note_on_c, 0, 79, 89
2, 3330, Note_on_c, 0, 79, 0
2, 3360, Note_on_c, 0, 79, 91
2, 3375, Note_on_c, 0, 79, 0
2, 3375, Note_on_c, 0, 81, 91
2, 3390, Note_on_c, 0, 81, 0
2, 3390, Note_on_c, 0, 79, 92
2, 3405, Note_on_c, 0, 79, 0
2, 3405, Note_on_c, 0, 81, 94
2, 3420, Note_on_c, 0, 81, 0
2, 3420, Note_on_c, 0, 78, 94
2, 3470, Note_on_c, 0, 78, 0
2, 3480, Note_on_c, 0, 78, 94
2, 3660, Note_on_c, 0, 78, 0
2, 3660, Note_on_c, 0, 81, 85
2, 3720, Note_on_c, 0, 81, 0
2, 3720, Note_on_c, 0, 84, 85
2, 3750, Note_on_c, 0, 84, 0
2, 3780, Note_on_c, 0, 78, 85
2, 3810, Note_on_c, 0, 78, 0
2, 3840, Note_on_c, 0, 79, 85
2, 3870, Note_on_c, 0, 79, 0
2, 3900, Note_on_c, 0, 79, 85
2, 3930, Note_on_c, 0, 79, 0
2, 3960, Note_on_c, 0, 79, 85
2, 3990, Note_on_c, 0, 79, 0
2, 3990, Note_on_c, 0, 78, 85
2, 4020, Note_on_c, 0, 78, 0
2, 4020, Note_on_c, 0, 76, 85
2, 4050, Note_on_c, 0, 76, 0
2, 4050, Note_on_c, 0, 78, 85
2, 4080, Note_on_c, 0, 78, 0
2, 4080, Note_on_c, 0, 79, 85
2, 4110, Note_on_c, 0, 79, 0
2, 4140, Note_on_c, 0, 79, 85
2, 4170, Note_on_c, 0, 79, 0
2, 4200, Note_on_c, 0, 83, 85
2, 4230, Note_on_c, 0, 83, 0
2, 4230, Note_on_c, 0, 81, 85
2, 4260, Note_on_c, 0, 81, 0
2, 4260, Note_on_c, 0, 79, 85
2, 4290, Note_on_c, 0, 79, 0
2, 4290, Note_on_c, 0, 81, 85
2, 4320, Note_on_c, 0, 81, 0
2, 4320, Note_on_c, 0, 83, 86
2, 4350, Note_on_c, 0, 83, 0
2, 4380, Note_on_c, 0, 83, 86
2, 4410, Note_on_c, 0, 83, 0
2, 4440, Note_on_c, 0, 86, 83
2, 4470, Note_on_c, 0, 86, 0
2, 4470, Note_on_c, 0, 84, 80
2, 4500, Note_on_c, 0, 84, 0
2, 4500, Note_on_c, 0, 83, 80
2, 4530, Note_on_c, 0, 83, 0
2, 4530, Note_on_c, 0, 84, 79
2, 4560, Note_on_c, 0, 84, 0
2, 4560, Note_on_c, 0, 86, 76
2, 4680, Note_on_c, 0, 86, 0
2, 4800, Note_on_c, 0, 74, 41
2, 5040, Note_on_c, 0, 74, 0
2, 5040, Note_on_c, 0, 76, 47
2, 5280, Note_on_c, 0, 76, 0
2, 5280, Note_on_c, 0, 74, 47
2, 5310, Note_on_c, 0, 74, 0
2, 5310, Note_on_c, 0, 72, 47
2, 5390, Note_on_c, 0, 72, 0
2, 5400, Note_on_c, 0, 72, 47
2, 5520, Note_on_c, 0, 72, 0
2, 5520, Note_on_c, 0, 72, 47
2, 5550, Note_on_c, 0, 72, 0
2, 5550, Note_on_c, 0, 71, 47
2, 5630, Note_on_c, 0, 71, 0
2, 5640, Note_on_c, 0, 71, 47
2, 5760, Note_on_c, 0, 71, 0
2, 5760, Note_on_c, 0, 71, 47
2, 5790, Note_on_c, 0, 71, 0
2, 5790, Note_on_c, 0, 69, 47
2, 5870, Note_on_c, 0, 69, 0
2, 5880, Note_on_c, 0, 69, 47
2, 6000, Note_on_c, 0, 69, 0
2, 6000, Note_on_c, 0, 67, 47
2, 6060, Note_on_c, 0, 67, 0
2, 6060, Note_on_c, 0, 66, 47
2, 6090, Note_on_c, 0, 66, 0
2, 6120, Note_on_c, 0, 64, 47
2, 6150, Note_on_c, 0, 64, 0
2, 6180, Note_on_c, 0, 66, 47
2, 6210, Note_on_c, 0, 66, 0
2, 6240, Note_on_c, 0, 67, 47
2, 6300, Note_on_c, 0, 67, 0
2, 6360, Note_on_c, 0, 69, 47
2, 6420, Note_on_c, 0, 69, 0
2, 6480, Note_on_c, 0, 71, 47
2, 6540, Note_on_c, 0, 71, 0
2, 6720, Note_on_c, 0, 74, 47
2, 6960, Note_on_c, 0, 74, 0
2, 6960, Note_on_c, 0, 76, 47
2, 7200, Note_on_c, 0, 76, 0
2, 7200, Note_on_c, 0, 74, 47
2, 7260, Note_on_c, 0, 74, 0
2, 7260, Note_on_c, 0, 72, 47
2, 7290, Note_on_c, 0, 72, 0
2, 7320, Note_on_c, 0, 72, 47
2, 7350, Note_on_c, 0, 72, 0
2, 7380, Note_on_c, 0, 72, 47
2, 7410, Note_on_c, 0, 72, 0
2, 7440, Note_on_c, 0, 72, 47
2, 7500, Note_on_c, 0, 72, 0
2, 7500, Note_on_c, 0, 71, 47
2, 7530, Note_on_c, 0, 71, 0
2, 7560, Note_on_c, 0, 71, 47
2, 7590, Note_on_c, 0, 71, 0
2, 7620, Note_on_c, 0, 71, 47
2, 7650, Note_on_c, 0, 71, 0
2, 7680, Note_on_c, 0, 71, 47
2, 7740, Note_on_c, 0, 71, 0
2, 7740, Note_on_c, 0, 69, 47
2, 7770, Note_on_c, 0, 69, 0
2, 7800, Note_on_c, 0, 69, 47
2, 7845, Note_on_c, 0, 69, 0
2, 7860, Note_on_c, 0, 69, 47
2, 7905, Note_on_c, 0, 69, 0
2, 7920, Note_on_c, 0, 67, 47
2, 7980, Note_on_c, 0, 67, 0
2, 7980, Note_on_c, 0, 66, 47
2, 8040, Note_on_c, 0, 66, 0
2, 8040, Note_on_c, 0, 64, 47
2, 8100, Note_on_c, 0, 64, 0
2, 8100, Note_on_c, 0, 66, 47
2, 8160, Note_on_c, 0, 66, 0
2, 8160, Note_on_c, 0, 55, 85
2, 8160, Note_on_c, 0, 67, 85
2, 8460, Note_on_c, 0, 67, 0
2, 8460, Note_on_c, 0, 55, 0
2, 8460, Note_on_c, 0, 67, 61
2, 8475, Note_on_c, 0, 67, 0
2, 8475, Note_on_c, 0, 69, 61
2, 8490, Note_on_c, 0, 69, 0
2, 8490, Note_on_c, 0, 66, 61
2, 8505, Note_on_c, 0, 66, 0
2, 8505, Note_on_c, 0, 67, 61
2, 8520, Note_on_c, 0, 67, 0
2, 8520, Note_on_c, 0, 69, 61
2, 8580, Note_on_c, 0, 69, 0
2, 8580, Note_on_c, 0, 66, 61
2, 8640, Note_on_c, 0, 66, 0
2, 8640, Note_on_c, 0, 71, 85
2, 8940, Note_on_c, 0, 71, 0
2, 8940, Note_on_c, 0, 71, 61
2, 8955, Note_on_c, 0, 71, 0
2, 8955, Note_on_c, 0, 72, 61
2, 8970, Note_on_c, 0, 72, 0
2, 8970, Note_on_c, 0, 69, 61
2, 8985, Note_on_c, 0, 69, 0
2, 8985, Note_on_c, 0, 71, 61
2, 9000, Note_on_c, 0, 71, 0
2, 9000, Note_on_c, 0, 72, 61
2, 9060, Note_on_c, 0, 72, 0
2, 9060, Note_on_c, 0, 69, 61
2, 9120, Note_on_c, 0, 69, 0
2, 9120, Note_on_c, 0, 74, 46
2, 9140, Note_on_c, 0, 74, 0
2, 9150, Note_on_c, 0, 74, 46
2, 9170, Note_on_c, 0, 74, 0
2, 9180, Note_on_c, 0, 74, 47
2, 9200, Note_on_c, 0, 74, 0
2, 9210, Note_on_c, 0, 74, 47
2, 9230, Note_on_c, 0, 74, 0
2, 9240, Note_on_c, 0, 74, 49
2, 9260, Note_on_c, 0, 74, 0
2, 9270, Note_on_c, 0, 74, 50
2, 9290, Note_on_c, 0, 74, 0
2, 9300, Note_on_c, 0, 74, 50
2, 9320, Note_on_c, 0, 74, 0
2, 9330, Note_on_c, 0, 74, 52
2, 9350, Note_on_c, 0, 74, 0
2, 9360, Note_on_c, 0, 76, 53
2, 9380, Note_on_c, 0, 76, 0
2, 9390, Note_on_c, 0, 76, 53
2, 9410, Note_on_c, 0, 76, 0
2, 9420, Note_on_c, 0, 76, 55
2, 9440, Note_on_c, 0, 76, 0
2, 9450, Note_on_c, 0, 76, 56
2, 9470, Note_on_c, 0, 76, 0
2, 9480, Note_on_c, 0, 78, 56
2, 9500, Note_on_c, 0, 78, 0
2, 9510, Note_on_c, 0, 78, 58
2, 9530, Note_on_c, 0, 78, 0
2, 9540, Note_on_c, 0, 78, 58
2, 9560, Note_on_c, 0, 78, 0
2, 9570, Note_on_c, 0, 78, 59
2, 9590, Note_on_c, 0, 78, 0
2, 9600, Note_on_c, 0, 79, 61
2, 9620, Note_on_c, 0, 79, 0
2, 9630, Note_on_c, 0, 79, 61
2, 9650, Note_on_c, 0, 79, 0
2, 9660, Note_on_c, 0, 79, 62
2, 9680, Note_on_c, 0, 79, 0
2, 9690, Note_on_c, 0, 79, 64
2, 9710, Note_on_c, 0, 79, 0
2, 9720, Note_on_c, 0, 81, 64
2, 9740, Note_on_c, 0, 81, 0
2, 9750, Note_on_c, 0, 81, 65
2, 9770, Note_on_c, 0, 81, 0
2, 9780, Note_on_c, 0, 81, 67
2, 9800, Note_on_c, 0, 81, 0
2, 9810, Note_on_c, 0, 81, 67
2, 9830, Note_on_c, 0, 81, 0
2, 9840, Note_on_c, 0, 83, 68
2, 9860, Note_on_c, 0, 83, 0
2, 9870, Note_on_c, 0, 83, 68
2, 9890, Note_on_c, 0, 83, 0
2, 9900, Note_on_c, 0, 83, 70
2, 9920, Note_on_c, 0, 83, 0
2, 9930, Note_on_c, 0, 83, 71
2, 9950, Note_on_c, 0, 83, 0
2, 9960, Note_on_c, 0, 85, 71
2, 9980, Note_on_c, 0, 85, 0
2, 9990, Note_on_c, 0, 85, 73
2, 10010, Note_on_c, 0, 85, 0
2, 10020, Note_on_c, 0, 85, 74
2, 10040, Note_on_c, 0, 85, 0
2, 10050, Note_on_c, 0, 85, 74
2, 10070, Note_on_c, 0, 85, 0
2, 10080, Note_on_c, 0, 86, 85
2, 10260, Note_on_c, 0, 86, 0
2, 10260, Note_on_c, 0, 81, 85
2, 10320, Note_on_c, 0, 81, 0
2, 10320, Note_on_c, 0, 85, 94
2, 10410, Note_on_c, 0, 85, 0
2, 10410, Note_on_c, 0, 81, 85
2, 10440, Note_on_c, 0, 81, 0
2, 10440, Note_on_c, 0, 85, 85
2, 10530, Note_on_c, 0, 85, 0
2, 10530, Note_on_c, 0, 81, 85
2, 10560, Note_on_c, 0, 81, 0
2, 10560, Note_on_c, 0, 86, 85
2, 10740, Note_on_c, 0, 86, 0
2, 10740, Note_on_c, 0, 81, 85
2, 10800, Note_on_c, 0, 81, 0
2, 10800, Note_on_c, 0, 85, 85
2, 10890, Note_on_c, 0, 85, 0
2, 10890, Note_on_c, 0, 81, 85
2, 10920, Note_on_c, 0, 81, 0
2, 10920, Note_on_c, 0, 85, 85
2, 11010, Note_on_c, 0, 85, 0
2, 11010, Note_on_c, 0, 81, 85
2, 11040, Note_on_c, 0, 81, 0
2, 11040, Note_on_c, 0, 86, 85
2, 11070, Note_on_c, 0, 86, 0
2, 11100, Note_on_c, 0, 78, 85
2, 11100, Note_on_c, 0, 86, 85
2, 11190, Note_on_c, 0, 86, 0
2, 11190, Note_on_c, 0, 78, 0
2, 11220, Note_on_c, 0, 78, 85
2, 11220, Note_on_c, 0, 86, 85
2, 11310, Note_on_c, 0, 86, 0
2, 11310, Note_on_c, 0, 78, 0
2, 11340, Note_on_c, 0, 78, 85
2, 11340, Note_on_c, 0, 86, 85
2, 11430, Note_on_c, 0, 86, 0
2, 11430, Note_on_c, 0, 78, 0
2, 11460, Note_on_c, 0, 78, 85
2, 11460, Note_on_c, 0, 86, 85
2, 11520, Note_on_c, 0, 78, 0
2, 11520, Note_on_c, 0, 76, 85
2, 11550, Note_on_c, 0, 76, 0
2, 11550, Note_on_c, 0, 86, 0
2, 11580, Note_on_c, 0, 76, 85
2, 11580, Note_on_c, 0, 86, 85
2, 11670, Note_on_c, 0, 86, 0
2, 11670, Note_on_c, 0, 76, 0
2, 11700, Note_on_c, 0, 76, 85
2, 11700, Note_on_c, 0, 86, 85
2, 11790, Note_on_c, 0, 86, 0
2, 11790, Note_on_c, 0, 76, 0
2, 11820, Note_on_c, 0, 76, 85
2, 11820, Note_on_c, 0, 86, 85
2, 11910, Note_on_c, 0, 86, 0
2, 11910, Note_on_c, 0, 76, 0
2, 11940, Note_on_c, 0, 76, 85
2, 11940, Note_on_c, 0, 86, 85
2, 12000, Note_on_c, 0, 86, 0
2, 12000, Note_on_c, 0, 76, 0
2, 12000, Note_on_c, 0, 76, 92
2, 12000, Note_on_c, 0, 85, 92
2, 12045, Note_on_c, 0, 85, 0
2, 12045, Note_on_c, 0, 76, 0
2, 12060, Note_on_c, 0, 81, 85
2, 12105, Note_on_c, 0, 81, 0
2, 12120, Note_on_c, 0, 86, 85
2, 12165, Note_on_c, 0, 86, 0
2, 12180, Note_on_c, 0, 81, 85
2, 12225, Note_on_c, 0, 81, 0
2, 12240, Note_on_c, 0, 85, 85
2, 12285, Note_on_c, 0, 85, 0
2, 12300, Note_on_c, 0, 81, 85
2, 12345, Note_on_c, 0, 81, 0
2, 12360, Note_on_c, 0, 86, 85
2, 12405, Note_on_c, 0, 86, 0
2, 12420, Note_on_c, 0, 81, 85
2, 12465, Note_on_c, 0, 81, 0
2, 12480, Note_on_c, 0, 85, 94
2, 12525, Note_on_c, 0, 85, 0
2, 12540, Note_on_c, 0, 69, 85
2, 12585, Note_on_c, 0, 69, 0
2, 12600, Note_on_c, 0, 69, 85
2, 12645, Note_on_c, 0, 69, 0
2, 12660, Note_on_c, 0, 69, 85
2, 12705, Note_on_c, 0, 69, 0
2, 12720, Note_on_c, 0, 69, 85
2, 12840, Note_on_c, 0, 69, 0
2, 12950, Control_c, 0, 11, 77
2, 12960, Note_on_c, 0, 81, 55
2, 12964, Control_c, 0, 11, 80
2, 12966, Control_c, 0, 11, 82
2, 12970, Control_c, 0, 11, 83
2, 12974, Control_c, 0, 11, 85
2, 12978, Control_c, 0, 11, 87
2, 12994, Control_c, 0, 11, 93
2, 12998, Control_c, 0, 11, 101
2, 13010, Control_c, 0, 11, 107
2, 13022, Control_c, 0, 11, 113
2, 13034, Control_c, 0, 11, 115
2, 13038, Control_c, 0, 11, 117
2, 13042, Control_c, 0, 11, 118
2, 13044, Control_c, 0, 11, 119
2, 13048, Control_c, 0, 11, 120
2, 13052, Control_c, 0, 11, 121
2, 13056, Control_c, 0, 11, 122
2, 13058, Control_c, 0, 11, 123
2, 13060, Control_c, 0, 11, 124
2, 13064, Control_c, 0, 11, 127
2, 13140, Note_on_c, 0, 81, 0
2, 13140, Note_on_c, 0, 79, 55
2, 13160, Note_on_c, 0, 79, 0
2, 13160, Note_on_c, 0, 78, 55
2, 13180, Note_on_c, 0, 78, 0
2, 13180, Note_on_c, 0, 76, 55
2, 13200, Note_on_c, 0, 76, 0
2, 13200, Note_on_c, 0, 74, 55
2, 13260, Note_on_c, 0, 74, 0
2, 13320, Note_on_c, 0, 83, 55
2, 13380, Note_on_c, 0, 83, 0
2, 13440, Note_on_c, 0, 79, 55
2, 13500, Note_on_c, 0, 79, 0
2, 13560, Note_on_c, 0, 76, 55
2, 13620, Note_on_c, 0, 76, 0
2, 13680, Note_on_c, 0, 81, 55
2, 13740, Note_on_c, 0, 81, 0
2, 13920, Note_on_c, 0, 78, 55
2, 14100, Note_on_c, 0, 78, 0
2, 14100, Note_on_c, 0, 76, 55
2, 14120, Note_on_c, 0, 76, 0
2, 14120, Note_on_c, 0, 74, 55
2, 14140, Note_on_c, 0, 74, 0
2, 14140, Note_on_c, 0, 73, 55
2, 14160, Note_on_c, 0, 73, 0
2, 14160, Note_on_c, 0, 71, 55
2, 14220, Note_on_c, 0, 71, 0
2, 14280, Note_on_c, 0, 79, 55
2, 14340, Note_on_c, 0, 79, 0
2, 14400, Note_on_c, 0, 78, 55
2, 14640, Note_on_c, 0, 78, 0
2, 14640, Note_on_c, 0, 76, 49
2, 14760, Note_on_c, 0, 76, 0
2, 14940, Note_on_c, 0, 81, 55
2, 14970, Note_on_c, 0, 81, 0
2, 15000, Note_on_c, 0, 81, 55
2, 15030, Note_on_c, 0, 81, 0
2, 15060, Note_on_c, 0, 81, 55
2, 15090, Note_on_c, 0, 81, 0
2, 15120, Note_on_c, 0, 81, 55
2, 15150, Note_on_c, 0, 81, 0
2, 15180, Note_on_c, 0, 81, 55
2, 15210, Note_on_c, 0, 81, 0
2, 15240, Note_on_c, 0, 81, 55
2, 15270, Note_on_c, 0, 81, 0
2, 15300, Note_on_c, 0, 81, 55
2, 15330, Note_on_c, 0, 81, 0
2, 15360, Note_on_c, 0, 81, 55
2, 15390, Note_on_c, 0, 81, 0
2, 15420, Note_on_c, 0, 81, 55
2, 15450, Note_on_c, 0, 81, 0
2, 15480, Note_on_c, 0, 81, 55
2, 15510, Note_on_c, 0, 81, 0
2, 15540, Note_on_c, 0, 81, 55
2, 15570, Note_on_c, 0, 81, 0
2, 15600, Note_on_c, 0, 81, 55
2, 15630, Note_on_c, 0, 81, 0
2, 15660, Note_on_c, 0, 81, 55
2, 15690, Note_on_c, 0, 81, 0
2, 15720, Note_on_c, 0, 83, 55
2, 15750, Note_on_c, 0, 83, 0
2, 15780, Note_on_c, 0, 85, 55
2, 15810, Note_on_c, 0, 85, 0
2, 15840, Note_on_c, 0, 85, 55
2, 15900, Note_on_c, 0, 85, 0
2, 15900, Note_on_c, 0, 86, 55
2, 15960, Note_on_c, 0, 86, 0
2, 16020, Note_on_c, 0, 83, 55
2, 16050, Note_on_c, 0, 83, 0
2, 16080, Note_on_c, 0, 83, 55
2, 16140, Note_on_c, 0, 83, 0
2, 16140, Note_on_c, 0, 81, 55
2, 16200, Note_on_c, 0, 81, 0
2, 16260, Note_on_c, 0, 73, 55
2, 16305, Note_on_c, 0, 73, 0
2, 16320, Note_on_c, 0, 74, 55
2, 16440, Note_on_c, 0, 74, 0
2, 16500, Note_on_c, 0, 81, 55
2, 16530, Note_on_c, 0, 81, 0
2, 16560, Note_on_c, 0, 86, 55
2, 16620, Note_on_c, 0, 86, 0
2, 16620, Note_on_c, 0, 85, 55
2, 16680, Note_on_c, 0, 85, 0
2, 16680, Note_on_c, 0, 83, 55
2, 16740, Note_on_c, 0, 83, 0
2, 16740, Note_on_c, 0, 81, 55
2, 16800, Note_on_c, 0, 81, 0
2, 16800, Note_on_c, 0, 83, 55
2, 16815, Note_on_c, 0, 83, 0
2, 16815, Note_on_c, 0, 85, 55
2, 16830, Note_on_c, 0, 85, 0
2, 16830, Note_on_c, 0, 83, 55
2, 16845, Note_on_c, 0, 83, 0
2, 16845, Note_on_c, 0, 85, 55
2, 16860, Note_on_c, 0, 85, 0
2, 16860, Note_on_c, 0, 81, 55
2, 16920, Note_on_c, 0, 81, 0
2, 16980, Note_on_c, 0, 81, 55
2, 17010, Note_on_c, 0, 81, 0
2, 17040, Note_on_c, 0, 81, 55
2, 17070, Note_on_c, 0, 81, 0
2, 17100, Note_on_c, 0, 81, 55
2, 17130, Note_on_c, 0, 81, 0
2, 17160, Note_on_c, 0, 81, 55
2, 17190, Note_on_c, 0, 81, 0
2, 17220, Note_on_c, 0, 81, 55
2, 17250, Note_on_c, 0, 81, 0
2, 17280, Note_on_c, 0, 83, 55
2, 17295, Note_on_c, 0, 83, 0
2, 17295, Note_on_c, 0, 85, 55
2, 17310, Note_on_c, 0, 85, 0
2, 17310, Note_on_c, 0, 83, 55
2, 17325, Note_on_c, 0, 83, 0
2, 17325, Note_on_c, 0, 85, 55
2, 17340, Note_on_c, 0, 85, 0
2, 17340, Note_on_c, 0, 81, 55
2, 17400, Note_on_c, 0, 81, 0
2, 17460, Note_on_c, 0, 81, 55
2, 17505, Note_on_c, 0, 81, 0
2, 17520, Note_on_c, 0, 86, 55
2, 17580, Note_on_c, 0, 86, 0
2, 17580, Note_on_c, 0, 85, 55
2, 17640, Note_on_c, 0, 85, 0
2, 17640, Note_on_c, 0, 83, 55
2, 17700, Note_on_c, 0, 83, 0
2, 17700, Note_on_c, 0, 81, 55
2, 17760, Note_on_c, 0, 81, 0
2, 17760, Note_on_c, 0, 83, 55
2, 17775, Note_on_c, 0, 83, 0
2, 17775, Note_on_c, 0, 85, 55
2, 17790, Note_on_c, 0, 85, 0
2, 17790, Note_on_c, 0, 83, 55
2, 17805, Note_on_c, 0, 83, 0
2, 17805, Note_on_c, 0, 85, 55
2, 17820, Note_on_c, 0, 85, 0
2, 17820, Note_on_c, 0, 81, 55
2, 17880, Note_on_c, 0, 81, 0
2, 17940, Note_on_c, 0, 81, 55
2, 17970, Note_on_c, 0, 81, 0
2, 18000, Note_on_c, 0, 81, 55
2, 18030, Note_on_c, 0, 81, 0
2, 18060, Note_on_c, 0, 81, 55
2, 18090, Note_on_c, 0, 81, 0
2, 18120, Note_on_c, 0, 81, 55
2, 18150, Note_on_c, 0, 81, 0
2, 18180, Note_on_c, 0, 81, 53
2, 18210, Note_on_c, 0, 81, 0
2, 18240, Note_on_c, 0, 83, 49
2, 18255, Note_on_c, 0, 83, 0
2, 18255, Note_on_c, 0, 85, 49
2, 18270, Note_on_c, 0, 85, 0
2, 18270, Note_on_c, 0, 83, 47
2, 18285, Note_on_c, 0, 83, 0
2, 18285, Note_on_c, 0, 85, 47
2, 18300, Note_on_c, 0, 85, 0
2, 18300, Note_on_c, 0, 81, 46
2, 18360, Note_on_c, 0, 81, 0
2, 18480, Note_on_c, 0, 71, 91
2, 18480, Note_on_c, 0, 83, 91
2, 18650, Note_on_c, 0, 83, 0
2, 18650, Note_on_c, 0, 71, 0
2, 18660, Note_on_c, 0, 81, 89
2, 18680, Note_on_c, 0, 81, 0
2, 18680, Note_on_c, 0, 79, 92
2, 18700, Note_on_c, 0, 79, 0
2, 18700, Note_on_c, 0, 78, 94
2, 18720, Note_on_c, 0, 78, 0
2, 18720, Note_on_c, 0, 79, 97
2, 18840, Note_on_c, 0, 79, 0
2, 18960, Note_on_c, 0, 81, 85
2, 18960, Note_on_c, 0, 69, 85
2, 19130, Note_on_c, 0, 69, 0
2, 19130, Note_on_c, 0, 81, 0
2, 19140, Note_on_c, 0, 79, 86
2, 19160, Note_on_c, 0, 79, 0
2, 19160, Note_on_c, 0, 78, 86
2, 19180, Note_on_c, 0, 78, 0
2, 19180, Note_on_c, 0, 76, 89
2, 19200, Note_on_c, 0, 76, 0
2, 19200, Note_on_c, 0, 78, 92
2, 19320, Note_on_c, 0, 78, 0
2, 19440, Note_on_c, 0, 83, 85
2, 19500, Note_on_c, 0, 83, 0
2, 19500, Note_on_c, 0, 85, 85
2, 19530, Note_on_c, 0, 85, 0
2, 19530, Note_on_c, 0, 86, 89
2, 19560, Note_on_c, 0, 86, 0
2, 19560, Note_on_c, 0, 85, 94
2, 19605, Note_on_c, 0, 85, 0
2, 19620, Note_on_c, 0, 83, 95
2, 19650, Note_on_c, 0, 83, 0
2, 19680, Note_on_c, 0, 83, 97
2, 19740, Note_on_c, 0, 83, 0
2, 19740, Note_on_c, 0, 81, 101
2, 19785, Note_on_c, 0, 81, 0
2, 19800, Note_on_c, 0, 78, 104
2, 19830, Note_on_c, 0, 78, 0
2, 19860, Note_on_c, 0, 81, 104
2, 19890, Note_on_c, 0, 81, 0
2, 19920, Note_on_c, 0, 81, 104
2, 19980, Note_on_c, 0, 81, 0
2, 19980, Note_on_c, 0, 79, 103
2, 20025, Note_on_c, 0, 79, 0
2, 20040, Note_on_c, 0, 78, 98
2, 20070, Note_on_c, 0, 78, 0
2, 20100, Note_on_c, 0, 76, 89
2, 20130, Note_on_c, 0, 76, 0
2, 20160, Note_on_c, 0, 74, 85
2, 20280, Note_on_c, 0, 74, 0
2, 20340, Note_on_c, 0, 81, 53
2, 20370, Note_on_c, 0, 81, 0
2, 20400, Note_on_c, 0, 86, 53
2, 20460, Note_on_c, 0, 86, 0
2, 20460, Note_on_c, 0, 85, 53
2, 20520, Note_on_c, 0, 85, 0
2, 20520, Note_on_c, 0, 83, 53
2, 20580, Note_on_c, 0, 83, 0
2, 20580, Note_on_c, 0, 81, 53
2, 20640, Note_on_c, 0, 81, 0
2, 20640, Note_on_c, 0, 83, 55
2, 20655, Note_on_c, 0, 83, 0
2, 20655, Note_on_c, 0, 85, 55
2, 20670, Note_on_c, 0, 85, 0
2, 20670, Note_on_c, 0, 83, 55
2, 20685, Note_on_c, 0, 83, 0
2, 20685, Note_on_c, 0, 85, 55
2, 20700, Note_on_c, 0, 85, 0
2, 20700, Note_on_c, 0, 81, 55
2, 20760, Note_on_c, 0, 81, 0
2, 20820, Note_on_c, 0, 81, 55
2, 20850, Note_on_c, 0, 81, 0
2, 20880, Note_on_c, 0, 81, 55
2, 20910, Note_on_c, 0, 81, 0
2, 20940, Note_on_c, 0, 81, 55
2, 20970, Note_on_c, 0, 81, 0
2, 21000, Note_on_c, 0, 81, 55
2, 21030, Note_on_c, 0, 81, 0
2, 21060, Note_on_c, 0, 81, 55
2, 21090, Note_on_c, 0, 81, 0
2, 21120, Note_on_c, 0, 83, 55
2, 21135, Note_on_c, 0, 83, 0
2, 21135, Note_on_c, 0, 85, 55
2, 21150, Note_on_c, 0, 85, 0
2, 21150, Note_on_c, 0, 83, 55
2, 21165, Note_on_c, 0, 83, 0
2, 21165, Note_on_c, 0, 85, 55
2, 21180, Note_on_c, 0, 85, 0
2, 21180, Note_on_c, 0, 81, 55
2, 21240, Note_on_c, 0, 81, 0
2, 21300, Note_on_c, 0, 81, 55
2, 21345, Note_on_c, 0, 81, 0
2, 21360, Note_on_c, 0, 86, 55
2, 21420, Note_on_c, 0, 86, 0
2, 21420, Note_on_c, 0, 85, 55
2, 21480, Note_on_c, 0, 85, 0
2, 21480, Note_on_c, 0, 83, 55
2, 21540, Note_on_c, 0, 83, 0
2, 21540, Note_on_c, 0, 81, 55
2, 21600, Note_on_c, 0, 81, 0
2, 21600, Note_on_c, 0, 83, 55
2, 21615, Note_on_c, 0, 83, 0
2, 21615, Note_on_c, 0, 85, 55
2, 21630, Note_on_c, 0, 85, 0
2, 21630, Note_on_c, 0, 83, 55
2, 21645, Note_on_c, 0, 83, 0
2, 21645, Note_on_c, 0, 85, 55
2, 21660, Note_on_c, 0, 85, 0
2, 21660, Note_on_c, 0, 81, 55
2, 21720, Note_on_c, 0, 81, 0
2, 21780, Note_on_c, 0, 81, 55
2, 21810, Note_on_c, 0, 81, 0
2, 21840, Note_on_c, 0, 81, 55
2, 21870, Note_on_c, 0, 81, 0
2, 21900, Note_on_c, 0, 81, 55
2, 21930, Note_on_c, 0, 81, 0
2, 21960, Note_on_c, 0, 81, 55
2, 21990, Note_on_c, 0, 81, 0
2, 22020, Note_on_c, 0, 81, 55
2, 22050, Note_on_c, 0, 81, 0
2, 22080, Note_on_c, 0, 83, 59
2, 22095, Note_on_c, 0, 83, 0
2, 22095, Note_on_c, 0, 85, 59
2, 22110, Note_on_c, 0, 85, 0
2, 22110, Note_on_c, 0, 83, 59
2, 22125, Note_on_c, 0, 83, 0
2, 22125, Note_on_c, 0, 85, 59
2, 22140, Note_on_c, 0, 85, 0
2, 22140, Note_on_c, 0, 81, 59
2, 22200, Note_on_c, 0, 81, 0
2, 22320, Note_on_c, 0, 71, 85
2, 22320, Note_on_c, 0, 83, 85
2, 22490, Note_on_c, 0, 83, 0
2, 22490, Note_on_c, 0, 71, 0
2, 22500, Note_on_c, 0, 81, 85
2, 22520, Note_on_c, 0, 81, 0
2, 22520, Note_on_c, 0, 79, 85
2, 22540, Note_on_c, 0, 79, 0
2, 22540, Note_on_c, 0, 78, 85
2, 22560, Note_on_c, 0, 78, 0
2, 22560, Note_on_c, 0, 79, 85
2, 22680, Note_on_c, 0, 79, 0
2, 22800, Note_on_c, 0, 81, 85
2, 22800, Note_on_c, 0, 69, 85
2, 22970, Note_on_c, 0, 69, 0
2, 22970, Note_on_c, 0, 81, 0
2, 22980, Note_on_c, 0, 79, 85
2, 23000, Note_on_c, 0, 79, 0
2, 23000, Note_on_c, 0, 78, 85
2, 23020, Note_on_c, 0, 78, 0
2, 23020, Note_on_c, 0, 76, 85
2, 23040, Note_on_c, 0, 76, 0
2, 23040, Note_on_c, 0, 78, 85
2, 23160, Note_on_c, 0, 78, 0
2, 23280, Note_on_c, 0, 83, 80
2, 23340, Note_on_c, 0, 83, 0
2, 23340, Note_on_c, 0, 85, 82
2, 23370, Note_on_c, 0, 85, 0
2, 23370, Note_on_c, 0, 86, 83
2, 23400, Note_on_c, 0, 86, 0
2, 23400, Note_on_c, 0, 85, 83
2, 23445, Note_on_c, 0, 85, 0
2, 23460, Note_on_c, 0, 83, 85
2, 23490, Note_on_c, 0, 83, 0
2, 23520, Note_on_c, 0, 83, 86
2, 23580, Note_on_c, 0, 83, 0
2, 23580, Note_on_c, 0, 81, 88
2, 23625, Note_on_c, 0, 81, 0
2, 23640, Note_on_c, 0, 78, 88
2, 23670, Note_on_c, 0, 78, 0
2, 23700, Note_on_c, 0, 81, 88
2, 23730, Note_on_c, 0, 81, 0
2, 23760, Note_on_c, 0, 81, 88
2, 23820, Note_on_c, 0, 81, 0
2, 23820, Note_on_c, 0, 79, 88
2, 23865, Note_on_c, 0, 79, 0
2, 23880, Note_on_c, 0, 78, 88
2, 23910, Note_on_c, 0, 78, 0
2, 23940, Note_on_c, 0, 76, 88
2, 23970, Note_on_c, 0, 76, 0
2, 24000, Note_on_c, 0, 74, 88
2, 24045, Note_on_c, 0, 74, 0
2, 24060, Note_on_c, 0, 69, 88
2, 24105, Note_on_c, 0, 69, 0
2, 24120, Note_on_c, 0, 71, 88
2, 24165, Note_on_c, 0, 71, 0
2, 24180, Note_on_c, 0, 73, 85
2, 24225, Note_on_c, 0, 73, 0
2, 24240, Note_on_c, 0, 74, 82
2, 24270, Note_on_c, 0, 74, 0
2, 24300, Note_on_c, 0, 74, 85
2, 24330, Note_on_c, 0, 74, 0
2, 24360, Note_on_c, 0, 76, 85
2, 24375, Note_on_c, 0, 76, 0
2, 24375, Note_on_c, 0, 78, 85
2, 24390, Note_on_c, 0, 78, 0
2, 24390, Note_on_c, 0, 76, 85
2, 24405, Note_on_c, 0, 76, 0
2, 24405, Note_on_c, 0, 78, 85
2, 24420, Note_on_c, 0, 78, 0
2, 24420, Note_on_c, 0, 74, 85
2, 24450, Note_on_c, 0, 74, 0
2, 24450, Note_on_c, 0, 76, 85
2, 24480, Note_on_c, 0, 76, 0
2, 24480, Note_on_c, 0, 78, 85
2, 24540, Note_on_c, 0, 78, 0
2, 24540, Note_on_c, 0, 73, 85
2, 24585, Note_on_c, 0, 73, 0
2, 24600, Note_on_c, 0, 74, 85
2, 24645, Note_on_c, 0, 74, 0
2, 24660, Note_on_c, 0, 76, 85
2, 24705, Note_on_c, 0, 76, 0
2, 24720, Note_on_c, 0, 78, 85
2, 24765, Note_on_c, 0, 78, 0
2, 24780, Note_on_c, 0, 78, 85
2, 24825, Note_on_c, 0, 78, 0
2, 24840, Note_on_c, 0, 79, 85
2, 24855, Note_on_c, 0, 79, 0
2, 24855, Note_on_c, 0, 81, 86
2, 24870, Note_on_c, 0, 81, 0
2, 24870, Note_on_c, 0, 79, 88
2, 24885, Note_on_c, 0, 79, 0
2, 24885, Note_on_c, 0, 81, 88
2, 24900, Note_on_c, 0, 81, 0
2, 24900, Note_on_c, 0, 78, 88
2, 24930, Note_on_c, 0, 78, 0
2, 24930, Note_on_c, 0, 79, 88
2, 24960, Note_on_c, 0, 79, 0
2, 24960, Note_on_c, 0, 81, 88
2, 25005, Note_on_c, 0, 81, 0
2, 25020, Note_on_c, 0, 81, 91
2, 25065, Note_on_c, 0, 81, 0
2, 25080, Note_on_c, 0, 82, 92
2, 25095, Note_on_c, 0, 82, 0
2, 25095, Note_on_c, 0, 83, 92
2, 25110, Note_on_c, 0, 83, 0
2, 25110, Note_on_c, 0, 82, 94
2, 25125, Note_on_c, 0, 82, 0
2, 25125, Note_on_c, 0, 83, 94
2, 25140, Note_on_c, 0, 83, 0
2, 25140, Note_on_c, 0, 80, 95
2, 25170, Note_on_c, 0, 80, 0
2, 25170, Note_on_c, 0, 82, 97
2, 25200, Note_on_c, 0, 82, 0
2, 25200, Note_on_c, 0, 83, 100
2, 25320, Note_on_c, 0, 83, 0
2, 25440, Note_on_c, 0, 71, 47
2, 25620, Note_on_c, 0, 71, 0
2, 25620, Note_on_c, 0, 76, 47
2, 25665, Note_on_c, 0, 76, 0
2, 25680, Note_on_c, 0, 74, 47
2, 25740, Note_on_c, 0, 74, 0
2, 25740, Note_on_c, 0, 73, 47
2, 25800, Note_on_c, 0, 73, 0
2, 25800, Note_on_c, 0, 71, 49
2, 25860, Note_on_c, 0, 71, 0
2, 25860, Note_on_c, 0, 69, 50
2, 25920, Note_on_c, 0, 69, 0
2, 25920, Note_on_c, 0, 74, 50
2, 25980, Note_on_c, 0, 74, 0
2, 26040, Note_on_c, 0, 78, 50
2, 26100, Note_on_c, 0, 78, 0
2, 26160, Note_on_c, 0, 74, 41
2, 26220, Note_on_c, 0, 74, 0
2, 26400, Note_on_c, 0, 62, 85
2, 26400, Note_on_c, 0, 79, 85
2, 26400, Note_on_c, 0, 71, 85
2, 26520, Note_on_c, 0, 71, 0
2, 26520, Note_on_c, 0, 79, 0
2, 26520, Note_on_c, 0, 62, 0
2, 26580, Note_on_c, 0, 74, 85
2, 26610, Note_on_c, 0, 74, 0
2, 26640, Note_on_c, 0, 79, 85
2, 26760, Note_on_c, 0, 79, 0
2, 26820, Note_on_c, 0, 74, 85
2, 26850, Note_on_c, 0, 74, 0
2, 26880, Note_on_c, 0, 79, 85
2, 26910, Note_on_c, 0, 79, 0
2, 26940, Note_on_c, 0, 74, 85
2, 26970, Note_on_c, 0, 74, 0
2, 27000, Note_on_c, 0, 79, 85
2, 27030, Note_on_c, 0, 79, 0
2, 27060, Note_on_c, 0, 83, 85
2, 27090, Note_on_c, 0, 83, 0
2, 27120, Note_on_c, 0, 86, 85
2, 27240, Note_on_c, 0, 86, 0
2, 27360, Note_on_c, 0, 84, 85
2, 27480, Note_on_c, 0, 84, 0
2, 27540, Note_on_c, 0, 81, 76
2, 27570, Note_on_c, 0, 81, 0
2, 27600, Note_on_c, 0, 84, 85
2, 27720, Note_on_c, 0, 84, 0
2, 27780, Note_on_c, 0, 81, 76
2, 27810, Note_on_c, 0, 81, 0
2, 27840, Note_on_c, 0, 84, 85
2, 27870, Note_on_c, 0, 84, 0
2, 27900, Note_on_c, 0, 81, 74
2, 27930, Note_on_c, 0, 81, 0
2, 27960, Note_on_c, 0, 78, 85
2, 27990, Note_on_c, 0, 78, 0
2, 28020, Note_on_c, 0, 81, 71
2, 28050, Note_on_c, 0, 81, 0
2, 28080, Note_on_c, 0, 74, 85
2, 28200, Note_on_c, 0, 74, 0
2, 28320, Note_on_c, 0, 62, 85
2, 28320, Note_on_c, 0, 79, 85
2, 28320, Note_on_c, 0, 71, 85
2, 28380, Note_on_c, 0, 71, 0
2, 28380, Note_on_c, 0, 79, 0
2, 28380, Note_on_c, 0, 62, 0
2, 28440, Note_on_c, 0, 79, 85
2, 28620, Note_on_c, 0, 79, 0
2, 28620, Note_on_c, 0, 83, 85
2, 28680, Note_on_c, 0, 83, 0
2, 28680, Note_on_c, 0, 81, 85
2, 28710, Note_on_c, 0, 81, 0
2, 28740, Note_on_c, 0, 79, 85
2, 28770, Note_on_c, 0, 79, 0
2, 28800, Note_on_c, 0, 79, 85
2, 28815, Note_on_c, 0, 79, 0
2, 28815, Note_on_c, 0, 81, 85
2, 28830, Note_on_c, 0, 81, 0
2, 28830, Note_on_c, 0, 79, 85
2, 28845, Note_on_c, 0, 79, 0
2, 28845, Note_on_c, 0, 81, 85
2, 28860, Note_on_c, 0, 81, 0
2, 28860, Note_on_c, 0, 78, 85
2, 28910, Note_on_c, 0, 78, 0
2, 28920, Note_on_c, 0, 78, 85
2, 29100, Note_on_c, 0, 78, 0
2, 29100, Note_on_c, 0, 81, 85
2, 29160, Note_on_c, 0, 81, 0
2, 29160, Note_on_c, 0, 84, 85
2, 29190, Note_on_c, 0, 84, 0
2, 29220, Note_on_c, 0, 78, 85
2, 29250, Note_on_c, 0, 78, 0
2, 29280, Note_on_c, 0, 81, 85
2, 29340, Note_on_c, 0, 81, 0
2, 29340, Note_on_c, 0, 79, 85
2, 29370, Note_on_c, 0, 79, 0
2, 29400, Note_on_c, 0, 79, 85
2, 29580, Note_on_c, 0, 79, 0
2, 29580, Note_on_c, 0, 83, 85
2, 29640, Note_on_c, 0, 83, 0
2, 29640, Note_on_c, 0, 81, 85
2, 29670, Note_on_c, 0, 81, 0
2, 29700, Note_on_c, 0, 79, 85
2, 29730, Note_on_c, 0, 79, 0
2, 29760, Note_on_c, 0, 79, 85
2, 29775, Note_on_c, 0, 79, 0
2, 29775, Note_on_c, 0, 81, 85
2, 29790, Note_on_c, 0, 81, 0
2, 29790, Note_on_c, 0, 79, 85
2, 29805, Note_on_c, 0, 79, 0
2, 29805, Note_on_c, 0, 81, 85
2, 29820, Note_on_c, 0, 81, 0
2, 29820, Note_on_c, 0, 78, 85
2, 29870, Note_on_c, 0, 78, 0
2, 29880, Note_on_c, 0, 78, 85
2, 30060, Note_on_c, 0, 78, 0
2, 30060, Note_on_c, 0, 81, 85
2, 30120, Note_on_c, 0, 81, 0
2, 30120, Note_on_c, 0, 84, 85
2, 30150, Note_on_c, 0, 84, 0
2, 30180, Note_on_c, 0, 78, 85
2, 30210, Note_on_c, 0, 78, 0
2, 30240, Note_on_c, 0, 79, 85
2, 30270, Note_on_c, 0, 79, 0
2, 30300, Note_on_c, 0, 79, 85
2, 30330, Note_on_c, 0, 79, 0
2, 30360, Note_on_c, 0, 79, 85
2, 30390, Note_on_c, 0, 79, 0
2, 30390, Note_on_c, 0, 78, 85
2, 30420, Note_on_c, 0, 78, 0
2, 30420, Note_on_c, 0, 76, 85
2, 30450, Note_on_c, 0, 76, 0
2, 30450, Note_on_c, 0, 78, 85
2, 30480, Note_on_c, 0, 78, 0
2, 30480, Note_on_c, 0, 79, 85
2, 30510, Note_on_c, 0, 79, 0
2, 30540, Note_on_c, 0, 79, 85
2, 30570, Note_on_c, 0, 79, 0
2, 30600, Note_on_c, 0, 83, 85
2, 30630, Note_on_c, 0, 83, 0
2, 30630, Note_on_c, 0, 81, 85
2, 30660, Note_on_c, 0, 81, 0
2, 30660, Note_on_c, 0, 79, 85
2, 30690, Note_on_c, 0, 79, 0
2, 30690, Note_on_c, 0, 81, 85
2, 30720, Note_on_c, 0, 81, 0
2, 30720, Note_on_c, 0, 83, 85
2, 30750, Note_on_c, 0, 83, 0
2, 30780, Note_on_c, 0, 83, 85
2, 30810, Note_on_c, 0, 83, 0
2, 30840, Note_on_c, 0, 86, 85
2, 30870, Note_on_c, 0, 86, 0
2, 30870, Note_on_c, 0, 84, 85
2, 30900, Note_on_c, 0, 84, 0
2, 30900, Note_on_c, 0, 83, 85
2, 30930, Note_on_c, 0, 83, 0
2, 30930, Note_on_c, 0, 84, 85
2, 30960, Note_on_c, 0, 84, 0
2, 30960, Note_on_c, 0, 86, 85
2, 31080, Note_on_c, 0, 86, 0
2, 31200, Note_on_c, 0, 74, 52
2, 31440, Note_on_c, 0, 74, 0
2, 31440, Note_on_c, 0, 76, 40
2, 31680, Note_on_c, 0, 76, 0
2, 31680, Note_on_c, 0, 74, 44
2, 31710, Note_on_c, 0, 74, 0
2, 31710, Note_on_c, 0, 72, 46
2, 31790, Note_on_c, 0, 72, 0
2, 31800, Note_on_c, 0, 72, 46
2, 31920, Note_on_c, 0, 72, 0
2, 31920, Note_on_c, 0, 72, 47
2, 31950, Note_on_c, 0, 72, 0
2, 31950, Note_on_c, 0, 71, 47
2, 32030, Note_on_c, 0, 71, 0
2, 32040, Note_on_c, 0, 71, 47
2, 32160, Note_on_c, 0, 71, 0
2, 32160, Note_on_c, 0, 71, 47
2, 32190, Note_on_c, 0, 71, 0
2, 32190, Note_on_c, 0, 69, 47
2, 32270, Note_on_c, 0, 69, 0
2, 32280, Note_on_c, 0, 69, 47
2, 32400, Note_on_c, 0, 69, 0
2, 32400, Note_on_c, 0, 67, 47
2, 32460, Note_on_c, 0, 67, 0
2, 32460, Note_on_c, 0, 66, 47
2, 32490, Note_on_c, 0, 66, 0
2, 32520, Note_on_c, 0, 64, 47
2, 32550, Note_on_c, 0, 64, 0
2, 32580, Note_on_c, 0, 66, 47
2, 32610, Note_on_c, 0, 66, 0
2, 32640, Note_on_c, 0, 67, 47
2, 32700, Note_on_c, 0, 67, 0
2, 32760, Note_on_c, 0, 69, 47
2, 32820, Note_on_c, 0, 69, 0
2, 32880, Note_on_c, 0, 71, 47
2, 32940, Note_on_c, 0, 71, 0
2, 33120, Note_on_c, 0, 74, 54
2, 33360, Note_on_c, 0, 74, 0
2, 33360, Note_on_c, 0, 76, 59
2, 33600, Note_on_c, 0, 76, 0
2, 33600, Note_on_c, 0, 74, 47
2, 33660, Note_on_c, 0, 74, 0
2, 33660, Note_on_c, 0, 72, 47
2, 33690, Note_on_c, 0, 72, 0
2, 33720, Note_on_c, 0, 72, 47
2, 33750, Note_on_c, 0, 72, 0
2, 33780, Note_on_c, 0, 72, 47
2, 33810, Note_on_c, 0, 72, 0
2, 33840, Note_on_c, 0, 72, 47
2, 33900, Note_on_c, 0, 72, 0
2, 33900, Note_on_c, 0, 71, 47
2, 33930, Note_on_c, 0, 71, 0
2, 33960, Note_on_c, 0, 71, 47
2, 33990, Note_on_c, 0, 71, 0
2, 34020, Note_on_c, 0, 71, 47
2, 34050, Note_on_c, 0, 71, 0
2, 34080, Note_on_c, 0, 71, 47
2, 34140, Note_on_c, 0, 71, 0
2, 34140, Note_on_c, 0, 69, 47
2, 34170, Note_on_c, 0, 69, 0
2, 34200, Note_on_c, 0, 69, 47
2, 34245, Note_on_c, 0, 69, 0
2, 34260, Note_on_c, 0, 69, 47
2, 34305, Note_on_c, 0, 69, 0
2, 34320, Note_on_c, 0, 67, 47
2, 34380, Note_on_c, 0, 67, 0
2, 34380, Note_on_c, 0, 66, 47
2, 34440, Note_on_c, 0, 66, 0
2, 34440, Note_on_c, 0, 64, 47
2, 34500, Note_on_c, 0, 64, 0
2, 34500, Note_on_c, 0, 66, 47
2, 34560, Note_on_c, 0, 66, 0
2, 34560, Note_on_c, 0, 55, 95
2, 34560, Note_on_c, 0, 67, 95
2, 34860, Note_on_c, 0, 67, 0
2, 34860, Note_on_c, 0, 55, 0
2, 34860, Note_on_c, 0, 67, 61
2, 34875, Note_on_c, 0, 67, 0
2, 34875, Note_on_c, 0, 69, 61
2, 34890, Note_on_c, 0, 69, 0
2, 34890, Note_on_c, 0, 66, 61
2, 34905, Note_on_c, 0, 66, 0
2, 34905, Note_on_c, 0, 67, 61
2, 34920, Note_on_c, 0, 67, 0
2, 34920, Note_on_c, 0, 69, 61
2, 34980, Note_on_c, 0, 69, 0
2, 34980, Note_on_c, 0, 66, 61
2, 35040, Note_on_c, 0, 66, 0
2, 35040, Note_on_c, 0, 71, 85
2, 35340, Note_on_c, 0, 71, 0
2, 35340, Note_on_c, 0, 71, 61
2, 35355, Note_on_c, 0, 71, 0
2, 35355, Note_on_c, 0, 72, 61
2, 35370, Note_on_c, 0, 72, 0
2, 35370, Note_on_c, 0, 69, 61
2, 35385, Note_on_c, 0, 69, 0
2, 35385, Note_on_c, 0, 71, 61
2, 35400, Note_on_c, 0, 71, 0
2, 35400, Note_on_c, 0, 72, 61
2, 35460, Note_on_c, 0, 72, 0
2, 35460, Note_on_c, 0, 69, 61
2, 35520, Note_on_c, 0, 69, 0
2, 35520, Note_on_c, 0, 74, 46
2, 35540, Note_on_c, 0, 74, 0
2, 35550, Note_on_c, 0, 74, 46
2, 35570, Note_on_c, 0, 74, 0
2, 35580, Note_on_c, 0, 74, 47
2, 35600, Note_on_c, 0, 74, 0
2, 35610, Note_on_c, 0, 74, 47
2, 35630, Note_on_c, 0, 74, 0
2, 35640, Note_on_c, 0, 74, 49
2, 35660, Note_on_c, 0, 74, 0
2, 35670, Note_on_c, 0, 74, 50
2, 35690, Note_on_c, 0, 74, 0
2, 35700, Note_on_c, 0, 74, 50
2, 35720, Note_on_c, 0, 74, 0
2, 35730, Note_on_c, 0, 74, 52
2, 35750, Note_on_c, 0, 74, 0
2, 35760, Note_on_c, 0, 76, 53
2, 35780, Note_on_c, 0, 76, 0
2, 35790, Note_on_c, 0, 76, 53
2, 35810, Note_on_c, 0, 76, 0
2, 35820, Note_on_c, 0, 76, 55
2, 35840, Note_on_c, 0, 76, 0
2, 35850, Note_on_c, 0, 76, 56
2, 35870, Note_on_c, 0, 76, 0
2, 35880, Note_on_c, 0, 78, 56
2, 35900, Note_on_c, 0, 78, 0
2, 35910, Note_on_c, 0, 78, 58
2, 35930, Note_on_c, 0, 78, 0
2, 35940, Note_on_c, 0, 78, 58
2, 35960, Note_on_c, 0, 78, 0
2, 35970, Note_on_c, 0, 78, 59
2, 35990, Note_on_c, 0, 78, 0
2, 36000, Note_on_c, 0, 79, 61
2, 36020, Note_on_c, 0, 79, 0
2, 36030, Note_on_c, 0, 79, 61
2, 36050, Note_on_c, 0, 79, 0
2, 36060, Note_on_c, 0, 79, 62
2, 36080, Note_on_c, 0, 79, 0
2, 36090, Note_on_c, 0, 79, 64
2, 36110, Note_on_c, 0, 79, 0
2, 36120, Note_on_c, 0, 81, 64
2, 36140, Note_on_c, 0, 81, 0
2, 36150, Note_on_c, 0, 81, 65
2, 36170, Note_on_c, 0, 81, 0
2, 36180, Note_on_c, 0, 81, 67
2, 36200, Note_on_c, 0, 81, 0
2, 36210, Note_on_c, 0, 81, 67
2, 36230, Note_on_c, 0, 81, 0
2, 36240, Note_on_c, 0, 83, 68
2, 36260, Note_on_c, 0, 83, 0
2, 36270, Note_on_c, 0, 83, 68
2, 36290, Note_on_c, 0, 83, 0
2, 36300, Note_on_c, 0, 83, 70
2, 36320, Note_on_c, 0, 83, 0
2, 36330, Note_on_c, 0, 83, 71
2, 36350, Note_on_c, 0, 83, 0
2, 36360, Note_on_c, 0, 85, 71
2, 36380, Note_on_c, 0, 85, 0
2, 36390, Note_on_c, 0, 85, 73
2, 36410, Note_on_c, 0, 85, 0
2, 36420, Note_on_c, 0, 85, 74
2, 36440, Note_on_c, 0, 85, 0
2, 36450, Note_on_c, 0, 85, 74
2, 36470, Note_on_c, 0, 85, 0
2, 36480, Note_on_c, 0, 86, 92
2, 36660, Note_on_c, 0, 86, 0
2, 36660, Note_on_c, 0, 81, 85
2, 36720, Note_on_c, 0, 81, 0
2, 36720, Note_on_c, 0, 85, 85
2, 36810, Note_on_c, 0, 85, 0
2, 36810, Note_on_c, 0, 81, 85
2, 36840, Note_on_c, 0, 81, 0
2, 36840, Note_on_c, 0, 85, 85
2, 36930, Note_on_c, 0, 85, 0
2, 36930, Note_on_c, 0, 81, 85
2, 36960, Note_on_c, 0, 81, 0
2, 36960, Note_on_c, 0, 86, 98
2, 37140, Note_on_c, 0, 86, 0
2, 37140, Note_on_c, 0, 81, 85
2, 37200, Note_on_c, 0, 81, 0
2, 37200, Note_on_c, 0, 85, 85
2, 37290, Note_on_c, 0, 85, 0
2, 37290, Note_on_c, 0, 81, 85
2, 37320, Note_on_c, 0, 81, 0
2, 37320, Note_on_c, 0, 85, 85
2, 37410, Note_on_c, 0, 85, 0
2, 37410, Note_on_c, 0, 81, 85
2, 37440, Note_on_c, 0, 81, 0
2, 37440, Note_on_c, 0, 86, 85
2, 37470, Note_on_c, 0, 86, 0
2, 37500, Note_on_c, 0, 78, 98
2, 37500, Note_on_c, 0, 86, 98
2, 37590, Note_on_c, 0, 86, 0
2, 37590, Note_on_c, 0, 78, 0
2, 37620, Note_on_c, 0, 78, 85
2, 37620, Note_on_c, 0, 86, 85
2, 37710, Note_on_c, 0, 86, 0
2, 37710, Note_on_c, 0, 78, 0
2, 37740, Note_on_c, 0, 78, 85
2, 37740, Note_on_c, 0, 86, 85
2, 37830, Note_on_c, 0, 86, 0
2, 37830, Note_on_c, 0, 78, 0
2, 37860, Note_on_c, 0, 78, 85
2, 37860, Note_on_c, 0, 86, 85
2, 37920, Note_on_c, 0, 78, 0
2, 37920, Note_on_c, 0, 76, 85
2, 37950, Note_on_c, 0, 76, 0
2, 37950, Note_on_c, 0, 86, 0
2, 37980, Note_on_c, 0, 76, 85
2, 37980, Note_on_c, 0, 86, 85
2, 38070, Note_on_c, 0, 86, 0
2, 38070, Note_on_c, 0, 76, 0
2, 38100, Note_on_c, 0, 76, 85
2, 38100, Note_on_c, 0, 86, 85
2, 38190, Note_on_c, 0, 86, 0
2, 38190, Note_on_c, 0, 76, 0
2, 38220, Note_on_c, 0, 76, 85
2, 38220, Note_on_c, 0, 86, 85
2, 38310, Note_on_c, 0, 86, 0
2, 38310, Note_on_c, 0, 76, 0
2, 38340, Note_on_c, 0, 76, 85
2, 38340, Note_on_c, 0, 86, 85
2, 38400, Note_on_c, 0, 86, 0
2, 38400, Note_on_c, 0, 76, 0
2, 38400, Note_on_c, 0, 76, 97
2, 38400, Note_on_c, 0, 85, 97
2, 38445, Note_on_c, 0, 85, 0
2, 38445, Note_on_c, 0, 76, 0
2, 38460, Note_on_c, 0, 81, 85
2, 38505, Note_on_c, 0, 81, 0
2, 38520, Note_on_c, 0, 86, 85
2, 38565, Note_on_c, 0, 86, 0
2, 38580, Note_on_c, 0, 81, 85
2, 38625, Note_on_c, 0, 81, 0
2, 38640, Note_on_c, 0, 85, 85
2, 38685, Note_on_c, 0, 85, 0
2, 38700, Note_on_c, 0, 81, 85
2, 38745, Note_on_c, 0, 81, 0
2, 38760, Note_on_c, 0, 86, 85
2, 38805, Note_on_c, 0, 86, 0
2, 38820, Note_on_c, 0, 81, 85
2, 38865, Note_on_c, 0, 81, 0
2, 38880, Note_on_c, 0, 85, 97
2, 38925, Note_on_c, 0, 85, 0
2, 38940, Note_on_c, 0, 69, 85
2, 38985, Note_on_c, 0, 69, 0
2, 39000, Note_on_c, 0, 69, 85
2, 39045, Note_on_c, 0, 69, 0
2, 39060, Note_on_c, 0, 69, 85
2, 39105, Note_on_c, 0, 69, 0
2, 39120, Note_on_c, 0, 69, 85
2, 39240, Note_on_c, 0, 69, 0
2, 39360, Note_on_c, 0, 81, 55
2, 39540, Note_on_c, 0, 81, 0
2, 39540, Note_on_c, 0, 79, 55
2, 39560, Note_on_c, 0, 79, 0
2, 39560, Note_on_c, 0, 78, 55
2, 39580, Note_on_c, 0, 78, 0
2, 39580, Note_on_c, 0, 76, 55
2, 39600, Note_on_c, 0, 76, 0
2, 39600, Note_on_c, 0, 74, 55
2, 39660, Note_on_c, 0, 74, 0
2, 39720, Note_on_c, 0, 83, 55
2, 39780, Note_on_c, 0, 83, 0
2, 39840, Note_on_c, 0, 79, 55
2, 39900, Note_on_c, 0, 79, 0
2, 39960, Note_on_c, 0, 76, 55
2, 40020, Note_on_c, 0, 76, 0
2, 40080, Note_on_c, 0, 81, 55
2, 40140, Note_on_c, 0, 81, 0
2, 40320, Note_on_c, 0, 78, 55
2, 40500, Note_on_c, 0, 78, 0
2, 40500, Note_on_c, 0, 76, 55
2, 40520, Note_on_c, 0, 76, 0
2, 40520, Note_on_c, 0, 74, 55
2, 40540, Note_on_c, 0, 74, 0
2, 40540, Note_on_c, 0, 73, 55
2, 40560, Note_on_c, 0, 73, 0
2, 40560, Note_on_c, 0, 71, 55
2, 40620, Note_on_c, 0, 71, 0
2, 40680, Note_on_c, 0, 79, 55
2, 40740, Note_on_c, 0, 79, 0
2, 40800, Note_on_c, 0, 78, 55
2, 41040, Note_on_c, 0, 78, 0
2, 41040, Note_on_c, 0, 76, 43
2, 41160, Note_on_c, 0, 76, 0
2, 41340, Note_on_c, 0, 81, 55
2, 41370, Note_on_c, 0, 81, 0
2, 41400, Note_on_c, 0, 81, 55
2, 41430, Note_on_c, 0, 81, 0
2, 41460, Note_on_c, 0, 81, 55
2, 41490, Note_on_c, 0, 81, 0
2, 41520, Note_on_c, 0, 81, 55
2, 41550, Note_on_c, 0, 81, 0
2, 41580, Note_on_c, 0, 81, 55
2, 41610, Note_on_c, 0, 81, 0
2, 41640, Note_on_c, 0, 81, 55
2, 41670, Note_on_c, 0, 81, 0
2, 41700, Note_on_c, 0, 81, 55
2, 41730, Note_on_c, 0, 81, 0
2, 41760, Note_on_c, 0, 81, 55
2, 41790, Note_on_c, 0, 81, 0
2, 41820, Note_on_c, 0, 81, 55
2, 41850, Note_on_c, 0, 81, 0
2, 41880, Note_on_c, 0, 81, 55
2, 41910, Note_on_c, 0, 81, 0
2, 41940, Note_on_c, 0, 81, 55
2, 41970, Note_on_c, 0, 81, 0
2, 42000, Note_on_c, 0, 81, 55
2, 42030, Note_on_c, 0, 81, 0
2, 42060, Note_on_c, 0, 81, 55
2, 42090, Note_on_c, 0, 81, 0
2, 42120, Note_on_c, 0, 83, 55
2, 42150, Note_on_c, 0, 83, 0
2, 42180, Note_on_c, 0, 85, 55
2, 42210, Note_on_c, 0, 85, 0
2, 42240, Note_on_c, 0, 85, 55
2, 42300, Note_on_c, 0, 85, 0
2, 42300, Note_on_c, 0, 86, 55
2, 42360, Note_on_c, 0, 86, 0
2, 42420, Note_on_c, 0, 83, 55
2, 42450, Note_on_c, 0, 83, 0
2, 42480, Note_on_c, 0, 83, 55
2, 42540, Note_on_c, 0, 83, 0
2, 42540, Note_on_c, 0, 81, 55
2, 42600, Note_on_c, 0, 81, 0
2, 42660, Note_on_c, 0, 73, 55
2, 42705, Note_on_c, 0, 73, 0
2, 42720, Note_on_c, 0, 74, 55
2, 42840, Note_on_c, 0, 74, 0
2, 42900, Note_on_c, 0, 81, 55
2, 42930, Note_on_c, 0, 81, 0
2, 42960, Note_on_c, 0, 86, 55
2, 43020, Note_on_c, 0, 86, 0
2, 43020, Note_on_c, 0, 85, 55
2, 43080, Note_on_c, 0, 85, 0
2, 43080, Note_on_c, 0, 83, 55
2, 43140, Note_on_c, 0, 83, 0
2, 43140, Note_on_c, 0, 81, 55
2, 43200, Note_on_c, 0, 81, 0
2, 43200, Note_on_c, 0, 83, 55
2, 43215, Note_on_c, 0, 83, 0
2, 43215, Note_on_c, 0, 85, 55
2, 43230, Note_on_c, 0, 85, 0
2, 43230, Note_on_c, 0, 83, 55
2, 43245, Note_on_c, 0, 83, 0
2, 43245, Note_on_c, 0, 85, 55
2, 43260, Note_on_c, 0, 85, 0
2, 43260, Note_on_c, 0, 81, 55
2, 43320, Note_on_c, 0, 81, 0
2, 43380, Note_on_c, 0, 81, 55
2, 43410, Note_on_c, 0, 81, 0
2, 43440, Note_on_c, 0, 81, 55
2, 43470, Note_on_c, 0, 81, 0
2, 43500, Note_on_c, 0, 81, 55
2, 43530, Note_on_c, 0, 81, 0
2, 43560, Note_on_c, 0, 81, 55
2, 43590, Note_on_c, 0, 81, 0
2, 43620, Note_on_c, 0, 81, 55
2, 43650, Note_on_c, 0, 81, 0
2, 43680, Note_on_c, 0, 83, 55
2, 43695, Note_on_c, 0, 83, 0
2, 43695, Note_on_c, 0, 85, 55
2, 43710, Note_on_c, 0, 85, 0
2, 43710, Note_on_c, 0, 83, 55
2, 43725, Note_on_c, 0, 83, 0
2, 43725, Note_on_c, 0, 85, 55
2, 43740, Note_on_c, 0, 85, 0
2, 43740, Note_on_c, 0, 81, 55
2, 43800, Note_on_c, 0, 81, 0
2, 43860, Note_on_c, 0, 81, 55
2, 43905, Note_on_c, 0, 81, 0
2, 43920, Note_on_c, 0, 86, 55
2, 43980, Note_on_c, 0, 86, 0
2, 43980, Note_on_c, 0, 85, 55
2, 44040, Note_on_c, 0, 85, 0
2, 44040, Note_on_c, 0, 83, 55
2, 44100, Note_on_c, 0, 83, 0
2, 44100, Note_on_c, 0, 81, 55
2, 44160, Note_on_c, 0, 81, 0
2, 44160, Note_on_c, 0, 83, 55
2, 44175, Note_on_c, 0, 83, 0
2, 44175, Note_on_c, 0, 85, 55
2, 44190, Note_on_c, 0, 85, 0
2, 44190, Note_on_c, 0, 83, 55
2, 44205, Note_on_c, 0, 83, 0
2, 44205, Note_on_c, 0, 85, 55
2, 44220, Note_on_c, 0, 85, 0
2, 44220, Note_on_c, 0, 81, 55
2, 44280, Note_on_c, 0, 81, 0
2, 44340, Note_on_c, 0, 81, 55
2, 44370, Note_on_c, 0, 81, 0
2, 44400, Note_on_c, 0, 81, 55
2, 44430, Note_on_c, 0, 81, 0
2, 44460, Note_on_c, 0, 81, 55
2, 44490, Note_on_c, 0, 81, 0
2, 44520, Note_on_c, 0, 81, 55
2, 44550, Note_on_c, 0, 81, 0
2, 44580, Note_on_c, 0, 81, 55
2, 44610, Note_on_c, 0, 81, 0
2, 44640, Note_on_c, 0, 83, 55
2, 44655, Note_on_c, 0, 83, 0
2, 44655, Note_on_c, 0, 85, 55
2, 44670, Note_on_c, 0, 85, 0
2, 44670, Note_on_c, 0, 83, 55
2, 44685, Note_on_c, 0, 83, 0
2, 44685, Note_on_c, 0, 85, 55
2, 44700, Note_on_c, 0, 85, 0
2, 44700, Note_on_c, 0, 81, 55
2, 44760, Note_on_c, 0, 81, 0
2, 44880, Note_on_c, 0, 71, 94
2, 44880, Note_on_c, 0, 83, 94
2, 45050, Note_on_c, 0, 83, 0
2, 45050, Note_on_c, 0, 71, 0
2, 45060, Note_on_c, 0, 81, 83
2, 45080, Note_on_c, 0, 81, 0
2, 45080, Note_on_c, 0, 79, 83
2, 45100, Note_on_c, 0, 79, 0
2, 45100, Note_on_c, 0, 78, 83
2, 45120, Note_on_c, 0, 78, 0
2, 45120, Note_on_c, 0, 79, 83
2, 45240, Note_on_c, 0, 79, 0
2, 45360, Note_on_c, 0, 81, 85
2, 45360, Note_on_c, 0, 69, 85
2, 45530, Note_on_c, 0, 69, 0
2, 45530, Note_on_c, 0, 81, 0
2, 45540, Note_on_c, 0, 79, 85
2, 45560, Note_on_c, 0, 79, 0
2, 45560, Note_on_c, 0, 78, 85
2, 45580, Note_on_c, 0, 78, 0
2, 45580, Note_on_c, 0, 76, 85
2, 45600, Note_on_c, 0, 76, 0
2, 45600, Note_on_c, 0, 78, 85
2, 45720, Note_on_c, 0, 78, 0
2, 45840, Note_on_c, 0, 83, 79
2, 45900, Note_on_c, 0, 83, 0
2, 45900, Note_on_c, 0, 85, 80
2, 45930, Note_on_c, 0, 85, 0
2, 45930, Note_on_c, 0, 86, 82
2, 45960, Note_on_c, 0, 86, 0
2, 45960, Note_on_c, 0, 85, 82
2, 46005, Note_on_c, 0, 85, 0
2, 46020, Note_on_c, 0, 83, 82
2, 46050, Note_on_c, 0, 83, 0
2, 46080, Note_on_c, 0, 83, 83
2, 46140, Note_on_c, 0, 83, 0
2, 46140, Note_on_c, 0, 81, 86
2, 46185, Note_on_c, 0, 81, 0
2, 46200, Note_on_c, 0, 78, 86
2, 46230, Note_on_c, 0, 78, 0
2, 46260, Note_on_c, 0, 81, 88
2, 46290, Note_on_c, 0, 81, 0
2, 46320, Note_on_c, 0, 81, 88
2, 46380, Note_on_c, 0, 81, 0
2, 46380, Note_on_c, 0, 79, 83
2, 46425, Note_on_c, 0, 79, 0
2, 46440, Note_on_c, 0, 78, 79
2, 46470, Note_on_c, 0, 78, 0
2, 46500, Note_on_c, 0, 76, 76
2, 46530, Note_on_c, 0, 76, 0
2, 46560, Note_on_c, 0, 74, 85
2, 46680, Note_on_c, 0, 74, 0
2, 46740, Note_on_c, 0, 81, 53
2, 46770, Note_on_c, 0, 81, 0
2, 46800, Note_on_c, 0, 86, 53
2, 46860, Note_on_c, 0, 86, 0
2, 46860, Note_on_c, 0, 85, 53
2, 46920, Note_on_c, 0, 85, 0
2, 46920, Note_on_c, 0, 83, 53
2, 46980, Note_on_c, 0, 83, 0
2, 46980, Note_on_c, 0, 81, 53
2, 47040, Note_on_c, 0, 81, 0
2, 47040, Note_on_c, 0, 83, 55
2, 47055, Note_on_c, 0, 83, 0
2, 47055, Note_on_c, 0, 85, 55
2, 47070, Note_on_c, 0, 85, 0
2, 47070, Note_on_c, 0, 83, 55
2, 47085, Note_on_c, 0, 83, 0
2, 47085, Note_on_c, 0, 85, 55
2, 47100, Note_on_c, 0, 85, 0
2, 47100, Note_on_c, 0, 81, 55
2, 47160, Note_on_c, 0, 81, 0
2, 47220, Note_on_c, 0, 81, 55
2, 47250, Note_on_c, 0, 81, 0
2, 47280, Note_on_c, 0, 81, 55
2, 47310, Note_on_c, 0, 81, 0
2, 47340, Note_on_c, 0, 81, 55
2, 47370, Note_on_c, 0, 81, 0
2, 47400, Note_on_c, 0, 81, 55
2, 47430, Note_on_c, 0, 81, 0
2, 47460, Note_on_c, 0, 81, 55
2, 47490, Note_on_c, 0, 81, 0
2, 47520, Note_on_c, 0, 83, 55
2, 47535, Note_on_c, 0, 83, 0
2, 47535, Note_on_c, 0, 85, 55
2, 47550, Note_on_c, 0, 85, 0
2, 47550, Note_on_c, 0, 83, 55
2, 47565, Note_on_c, 0, 83, 0
2, 47565, Note_on_c, 0, 85, 55
2, 47580, Note_on_c, 0, 85, 0
2, 47580, Note_on_c, 0, 81, 55
2, 47640, Note_on_c, 0, 81, 0
2, 47700, Note_on_c, 0, 81, 55
2, 47745, Note_on_c, 0, 81, 0
2, 47760, Note_on_c, 0, 86, 55
2, 47820, Note_on_c, 0, 86, 0
2, 47820, Note_on_c, 0, 85, 55
2, 47880, Note_on_c, 0, 85, 0
2, 47880, Note_on_c, 0, 83, 55
2, 47940, Note_on_c, 0, 83, 0
2, 47940, Note_on_c, 0, 81, 55
2, 48000, Note_on_c, 0, 81, 0
2, 48000, Note_on_c, 0, 83, 55
2, 48015, Note_on_c, 0, 83, 0
2, 48015, Note_on_c, 0, 85, 55
2, 48030, Note_on_c, 0, 85, 0
2, 48030, Note_on_c, 0, 83, 55
2, 48045, Note_on_c, 0, 83, 0
2, 48045, Note_on_c, 0, 85, 55
2, 48060, Note_on_c, 0, 85, 0
2, 48060, Note_on_c, 0, 81, 55
2, 48120, Note_on_c, 0, 81, 0
2, 48180, Note_on_c, 0, 81, 55
2, 48210, Note_on_c, 0, 81, 0
2, 48240, Note_on_c, 0, 81, 55
2, 48270, Note_on_c, 0, 81, 0
2, 48300, Note_on_c, 0, 81, 55
2, 48330, Note_on_c, 0, 81, 0
2, 48360, Note_on_c, 0, 81, 55
2, 48390, Note_on_c, 0, 81, 0
2, 48420, Note_on_c, 0, 81, 55
2, 48450, Note_on_c, 0, 81, 0
2, 48480, Note_on_c, 0, 83, 59
2, 48495, Note_on_c, 0, 83, 0
2, 48495, Note_on_c, 0, 85, 59
2, 48510, Note_on_c, 0, 85, 0
2, 48510, Note_on_c, 0, 83, 59
2, 48525, Note_on_c, 0, 83, 0
2, 48525, Note_on_c, 0, 85, 59
2, 48540, Note_on_c, 0, 85, 0
2, 48540, Note_on_c, 0, 81, 59
2, 48600, Note_on_c, 0, 81, 0
2, 48720, Note_on_c, 0, 71, 85
2, 48720, Note_on_c, 0, 83, 85
2, 48890, Note_on_c, 0, 83, 0
2, 48890, Note_on_c, 0, 71, 0
2, 48900, Note_on_c, 0, 81, 85
2, 48920, Note_on_c, 0, 81, 0
2, 48920, Note_on_c, 0, 79, 85
2, 48940, Note_on_c, 0, 79, 0
2, 48940, Note_on_c, 0, 78, 85
2, 48960, Note_on_c, 0, 78, 0
2, 48960, Note_on_c, 0, 79, 85
2, 49080, Note_on_c, 0, 79, 0
2, 49200, Note_on_c, 0, 81, 85
2, 49200, Note_on_c, 0, 69, 85
2, 49370, Note_on_c, 0, 69, 0
2, 49370, Note_on_c, 0, 81, 0
2, 49380, Note_on_c, 0, 79, 85
2, 49400, Note_on_c, 0, 79, 0
2, 49400, Note_on_c, 0, 78, 85
2, 49420, Note_on_c, 0, 78, 0
2, 49420, Note_on_c, 0, 76, 85
2, 49440, Note_on_c, 0, 76, 0
2, 49440, Note_on_c, 0, 78, 85
2, 49560, Note_on_c, 0, 78, 0
2, 49680, Note_on_c, 0, 83, 85
2, 49740, Note_on_c, 0, 83, 0
2, 49740, Note_on_c, 0, 85, 85
2, 49770, Note_on_c, 0, 85, 0
2, 49770, Note_on_c, 0, 86, 85
2, 49800, Note_on_c, 0, 86, 0
2, 49800, Note_on_c, 0, 85, 85
2, 49845, Note_on_c, 0, 85, 0
2, 49860, Note_on_c, 0, 83, 85
2, 49890, Note_on_c, 0, 83, 0
2, 49920, Note_on_c, 0, 83, 95
2, 49980, Note_on_c, 0, 83, 0
2, 49980, Note_on_c, 0, 81, 85
2, 50025, Note_on_c, 0, 81, 0
2, 50040, Note_on_c, 0, 78, 85
2, 50070, Note_on_c, 0, 78, 0
2, 50100, Note_on_c, 0, 81, 85
2, 50130, Note_on_c, 0, 81, 0
2, 50160, Note_on_c, 0, 81, 85
2, 50220, Note_on_c, 0, 81, 0
2, 50220, Note_on_c, 0, 79, 85
2, 50265, Note_on_c, 0, 79, 0
2, 50280, Note_on_c, 0, 78, 85
2, 50310, Note_on_c, 0, 78, 0
2, 50340, Note_on_c, 0, 76, 85
2, 50370, Note_on_c, 0, 76, 0
2, 50400, Note_on_c, 0, 74, 85
2, 50445, Note_on_c, 0, 74, 0
2, 50460, Note_on_c, 0, 69, 85
2, 50505, Note_on_c, 0, 69, 0
2, 50520, Note_on_c, 0, 71, 85
2, 50565, Note_on_c, 0, 71, 0
2, 50580, Note_on_c, 0, 73, 85
2, 50625, Note_on_c, 0, 73, 0
2, 50640, Note_on_c, 0, 74, 85
2, 50670, Note_on_c, 0, 74, 0
2, 50700, Note_on_c, 0, 74, 85
2, 50730, Note_on_c, 0, 74, 0
2, 50760, Note_on_c, 0, 76, 85
2, 50775, Note_on_c, 0, 76, 0
2, 50775, Note_on_c, 0, 78, 85
2, 50790, Note_on_c, 0, 78, 0
2, 50790, Note_on_c, 0, 76, 85
2, 50805, Note_on_c, 0, 76, 0
2, 50805, Note_on_c, 0, 78, 85
2, 50820, Note_on_c, 0, 78, 0
2, 50820, Note_on_c, 0, 74, 85
2, 50850, Note_on_c, 0, 74, 0
2, 50850, Note_on_c, 0, 76, 85
2, 50880, Note_on_c, 0, 76, 0
2, 50880, Note_on_c, 0, 78, 85
2, 50940, Note_on_c, 0, 78, 0
2, 50940, Note_on_c, 0, 73, 85
2, 50985, Note_on_c, 0, 73, 0
2, 51000, Note_on_c, 0, 74, 85
2, 51045, Note_on_c, 0, 74, 0
2, 51060, Note_on_c, 0, 76, 85
2, 51105, Note_on_c, 0, 76, 0
2, 51120, Note_on_c, 0, 78, 85
2, 51165, Note_on_c, 0, 78, 0
2, 51180, Note_on_c, 0, 78, 85
2, 51225, Note_on_c, 0, 78, 0
2, 51240, Note_on_c, 0, 79, 85
2, 51255, Note_on_c, 0, 79, 0
2, 51255, Note_on_c, 0, 81, 86
2, 51270, Note_on_c, 0, 81, 0
2, 51270, Note_on_c, 0, 79, 86
2, 51285, Note_on_c, 0, 79, 0
2, 51285, Note_on_c, 0, 81, 86
2, 51300, Note_on_c, 0, 81, 0
2, 51300, Note_on_c, 0, 78, 86
2, 51330, Note_on_c, 0, 78, 0
2, 51330, Note_on_c, 0, 79, 88
2, 51360, Note_on_c, 0, 79, 0
2, 51360, Note_on_c, 0, 81, 88
2, 51405, Note_on_c, 0, 81, 0
2, 51420, Note_on_c, 0, 81, 88
2, 51465, Note_on_c, 0, 81, 0
2, 51480, Note_on_c, 0, 82, 89
2, 51495, Note_on_c, 0, 82, 0
2, 51495, Note_on_c, 0, 83, 91
2, 51510, Note_on_c, 0, 83, 0
2, 51510, Note_on_c, 0, 82, 91
2, 51525, Note_on_c, 0, 82, 0
2, 51525, Note_on_c, 0, 83, 91
2, 51540, Note_on_c, 0, 83, 0
2, 51540, Note_on_c, 0, 80, 92
2, 51570, Note_on_c, 0, 80, 0
2, 51570, Note_on_c, 0, 82, 94
2, 51600, Note_on_c, 0, 82, 0
2, 51600, Note_on_c, 0, 83, 98
2, 51720, Note_on_c, 0, 83, 0
2, 51840, Note_on_c, 0, 71, 40
2, 52020, Note_on_c, 0, 71, 0
2, 52020, Note_on_c, 0, 76, 47
2, 52065, Note_on_c, 0, 76, 0
2, 52080, Note_on_c, 0, 74, 49
2, 52140, Note_on_c, 0, 74, 0
2, 52140, Note_on_c, 0, 73, 49
2, 52200, Note_on_c, 0, 73, 0
2, 52200, Note_on_c, 0, 71, 43
2, 52260, Note_on_c, 0, 71, 0
2, 52260, Note_on_c, 0, 69, 41
2, 52320, Note_on_c, 0, 69, 0
2, 52320, Note_on_c, 0, 74, 40
2, 52380, Note_on_c, 0, 74, 0
2, 52440, Note_on_c, 0, 78, 59
2, 52500, Note_on_c, 0, 78, 0
2, 52560, Note_on_c, 0, 74, 57
2, 52620, Note_on_c, 0, 74, 0
2, 52800, Note_on_c, 0, 62, 100
2, 52800, Note_on_c, 0, 74, 100
2, 52920, Note_on_c, 0, 74, 0
2, 52920, Note_on_c, 0, 62, 0
2, 52980, Note_on_c, 0, 69, 91
2, 53025, Note_on_c, 0, 69, 0
2, 53040, Note_on_c, 0, 74, 91
2, 53160, Note_on_c, 0, 74, 0
2, 53220, Note_on_c, 0, 69, 91
2, 53265, Note_on_c, 0, 69, 0
2, 53280, Note_on_c, 0, 74, 91
2, 53325, Note_on_c, 0, 74, 0
2, 53340, Note_on_c, 0, 69, 91
2, 53385, Note_on_c, 0, 69, 0
2, 53400, Note_on_c, 0, 74, 91
2, 53445, Note_on_c, 0, 74, 0
2, 53460, Note_on_c, 0, 78, 91
2, 53505, Note_on_c, 0, 78, 0
2, 53520, Note_on_c, 0, 81, 91
2, 53640, Note_on_c, 0, 81, 0
2, 53760, Note_on_c, 0, 81, 91
2, 53880, Note_on_c, 0, 81, 0
2, 53940, Note_on_c, 0, 78, 91
2, 53985, Note_on_c, 0, 78, 0
2, 54000, Note_on_c, 0, 81, 91
2, 54120, Note_on_c, 0, 81, 0
2, 54180, Note_on_c, 0, 78, 91
2, 54225, Note_on_c, 0, 78, 0
2, 54240, Note_on_c, 0, 81, 91
2, 54285, Note_on_c, 0, 81, 0
2, 54300, Note_on_c, 0, 78, 91
2, 54345, Note_on_c, 0, 78, 0
2, 54360, Note_on_c, 0, 75, 91
2, 54405, Note_on_c, 0, 75, 0
2, 54420, Note_on_c, 0, 78, 91
2, 54465, Note_on_c, 0, 78, 0
2, 54480, Note_on_c, 0, 71, 91
2, 54600, Note_on_c, 0, 71, 0
2, 54900, Note_on_c, 0, 79, 55
2, 54945, Note_on_c, 0, 79, 0
2, 54960, Note_on_c, 0, 84, 55
2, 55020, Note_on_c, 0, 84, 0
2, 55020, Note_on_c, 0, 83, 55
2, 55080, Note_on_c, 0, 83, 0
2, 55080, Note_on_c, 0, 81, 55
2, 55140, Note_on_c, 0, 81, 0
2, 55140, Note_on_c, 0, 79, 55
2, 55200, Note_on_c, 0, 79, 0
2, 55200, Note_on_c, 0, 81, 55
2, 55215, Note_on_c, 0, 81, 0
2, 55215, Note_on_c, 0, 83, 55
2, 55230, Note_on_c, 0, 83, 0
2, 55230, Note_on_c, 0, 81, 55
2, 55245, Note_on_c, 0, 81, 0
2, 55245, Note_on_c, 0, 83, 55
2, 55260, Note_on_c, 0, 83, 0
2, 55260, Note_on_c, 0, 79, 55
2, 55320, Note_on_c, 0, 79, 0
2, 55380, Note_on_c, 0, 79, 55
2, 55410, Note_on_c, 0, 79, 0
2, 55440, Note_on_c, 0, 79, 55
2, 55470, Note_on_c, 0, 79, 0
2, 55500, Note_on_c, 0, 79, 55
2, 55530, Note_on_c, 0, 79, 0
2, 55560, Note_on_c, 0, 79, 55
2, 55590, Note_on_c, 0, 79, 0
2, 55620, Note_on_c, 0, 79, 55
2, 55650, Note_on_c, 0, 79, 0
2, 55680, Note_on_c, 0, 81, 55
2, 55695, Note_on_c, 0, 81, 0
2, 55695, Note_on_c, 0, 83, 55
2, 55710, Note_on_c, 0, 83, 0
2, 55710, Note_on_c, 0, 81, 55
2, 55725, Note_on_c, 0, 81, 0
2, 55725, Note_on_c, 0, 83, 55
2, 55740, Note_on_c, 0, 83, 0
2, 55740, Note_on_c, 0, 79, 55
2, 55800, Note_on_c, 0, 79, 0
2, 55860, Note_on_c, 0, 79, 55
2, 55905, Note_on_c, 0, 79, 0
2, 55920, Note_on_c, 0, 84, 55
2, 55980, Note_on_c, 0, 84, 0
2, 55980, Note_on_c, 0, 83, 55
2, 56040, Note_on_c, 0, 83, 0
2, 56040, Note_on_c, 0, 81, 55
2, 56100, Note_on_c, 0, 81, 0
2, 56100, Note_on_c, 0, 79, 55
2, 56160, Note_on_c, 0, 79, 0
2, 56160, Note_on_c, 0, 81, 55
2, 56175, Note_on_c, 0, 81, 0
2, 56175, Note_on_c, 0, 83, 55
2, 56190, Note_on_c, 0, 83, 0
2, 56190, Note_on_c, 0, 81, 55
2, 56205, Note_on_c, 0, 81, 0
2, 56205, Note_on_c, 0, 83, 55
2, 56220, Note_on_c, 0, 83, 0
2, 56220, Note_on_c, 0, 79, 55
2, 56280, Note_on_c, 0, 79, 0
2, 56340, Note_on_c, 0, 79, 55
2, 56370, Note_on_c, 0, 79, 0
2, 56400, Note_on_c, 0, 79, 55
2, 56430, Note_on_c, 0, 79, 0
2, 56460, Note_on_c, 0, 79, 55
2, 56490, Note_on_c, 0, 79, 0
2, 56520, Note_on_c, 0, 79, 55
2, 56550, Note_on_c, 0, 79, 0
2, 56580, Note_on_c, 0, 79, 55
2, 56610, Note_on_c, 0, 79, 0
2, 56640, Note_on_c, 0, 81, 55
2, 56655, Note_on_c, 0, 81, 0
2, 56655, Note_on_c, 0, 83, 55
2, 56670, Note_on_c, 0, 83, 0
2, 56670, Note_on_c, 0, 81, 55
2, 56685, Note_on_c, 0, 81, 0
2, 56685, Note_on_c, 0, 83, 55
2, 56700, Note_on_c, 0, 83, 0
2, 56700, Note_on_c, 0, 79, 55
2, 56760, Note_on_c, 0, 79, 0
2, 56820, Note_on_c, 0, 79, 55
2, 56865, Note_on_c, 0, 79, 0
2, 56880, Note_on_c, 0, 84, 55
2, 56940, Note_on_c, 0, 84, 0
2, 56940, Note_on_c, 0, 83, 55
2, 57000, Note_on_c, 0, 83, 0
2, 57000, Note_on_c, 0, 81, 55
2, 57060, Note_on_c, 0, 81, 0
2, 57060, Note_on_c, 0, 79, 55
2, 57120, Note_on_c, 0, 79, 0
2, 57120, Note_on_c, 0, 81, 55
2, 57135, Note_on_c, 0, 81, 0
2, 57135, Note_on_c, 0, 83, 55
2, 57150, Note_on_c, 0, 83, 0
2, 57150, Note_on_c, 0, 81, 55
2, 57165, Note_on_c, 0, 81, 0
2, 57165, Note_on_c, 0, 83, 55
2, 57180, Note_on_c, 0, 83, 0
2, 57180, Note_on_c, 0, 80, 55
2, 57240, Note_on_c, 0, 80, 0
2, 57300, Note_on_c, 0, 80, 55
2, 57330, Note_on_c, 0, 80, 0
2, 57360, Note_on_c, 0, 80, 55
2, 57390, Note_on_c, 0, 80, 0
2, 57420, Note_on_c, 0, 80, 55
2, 57450, Note_on_c, 0, 80, 0
2, 57480, Note_on_c, 0, 80, 55
2, 57510, Note_on_c, 0, 80, 0
2, 57540, Note_on_c, 0, 80, 55
2, 57570, Note_on_c, 0, 80, 0
2, 57600, Note_on_c, 0, 83, 55
2, 57615, Note_on_c, 0, 83, 0
2, 57615, Note_on_c, 0, 84, 55
2, 57630, Note_on_c, 0, 84, 0
2, 57630, Note_on_c, 0, 83, 55
2, 57645, Note_on_c, 0, 83, 0
2, 57645, Note_on_c, 0, 84, 55
2, 57660, Note_on_c, 0, 84, 0
2, 57660, Note_on_c, 0, 81, 55
2, 57720, Note_on_c, 0, 81, 0
2, 57780, Note_on_c, 0, 81, 55
2, 57825, Note_on_c, 0, 81, 0
2, 57840, Note_on_c, 0, 84, 55
2, 57900, Note_on_c, 0, 84, 0
2, 57900, Note_on_c, 0, 82, 55
2, 57960, Note_on_c, 0, 82, 0
2, 57960, Note_on_c, 0, 81, 55
2, 58020, Note_on_c, 0, 81, 0
2, 58020, Note_on_c, 0, 79, 55
2, 58080, Note_on_c, 0, 79, 0
2, 58080, Note_on_c, 0, 79, 55
2, 58095, Note_on_c, 0, 79, 0
2, 58095, Note_on_c, 0, 81, 55
2, 58110, Note_on_c, 0, 81, 0
2, 58110, Note_on_c, 0, 79, 55
2, 58125, Note_on_c, 0, 79, 0
2, 58125, Note_on_c, 0, 81, 55
2, 58140, Note_on_c, 0, 81, 0
2, 58140, Note_on_c, 0, 78, 55
2, 58200, Note_on_c, 0, 78, 0
2, 58260, Note_on_c, 0, 78, 55
2, 58290, Note_on_c, 0, 78, 0
2, 58320, Note_on_c, 0, 78, 55
2, 58350, Note_on_c, 0, 78, 0
2, 58380, Note_on_c, 0, 78, 55
2, 58410, Note_on_c, 0, 78, 0
2, 58440, Note_on_c, 0, 78, 55
2, 58470, Note_on_c, 0, 78, 0
2, 58500, Note_on_c, 0, 78, 55
2, 58530, Note_on_c, 0, 78, 0
2, 58560, Note_on_c, 0, 81, 55
2, 58575, Note_on_c, 0, 81, 0
2, 58575, Note_on_c, 0, 82, 55
2, 58590, Note_on_c, 0, 82, 0
2, 58590, Note_on_c, 0, 81, 55
2, 58605, Note_on_c, 0, 81, 0
2, 58605, Note_on_c, 0, 82, 55
2, 58620, Note_on_c, 0, 82, 0
2, 58620, Note_on_c, 0, 79, 55
2, 58680, Note_on_c, 0, 79, 0
2, 58740, Note_on_c, 0, 75, 55
2, 58785, Note_on_c, 0, 75, 0
2, 58800, Note_on_c, 0, 79, 55
2, 58860, Note_on_c, 0, 79, 0
2, 58860, Note_on_c, 0, 77, 55
2, 58920, Note_on_c, 0, 77, 0
2, 58920, Note_on_c, 0, 76, 55
2, 58980, Note_on_c, 0, 76, 0
2, 58980, Note_on_c, 0, 74, 55
2, 59040, Note_on_c, 0, 74, 0
2, 59040, Note_on_c, 0, 74, 55
2, 59055, Note_on_c, 0, 74, 0
2, 59055, Note_on_c, 0, 75, 55
2, 59070, Note_on_c, 0, 75, 0
2, 59070, Note_on_c, 0, 74, 55
2, 59085, Note_on_c, 0, 74, 0
2, 59085, Note_on_c, 0, 75, 55
2, 59100, Note_on_c, 0, 75, 0
2, 59100, Note_on_c, 0, 73, 55
2, 59160, Note_on_c, 0, 73, 0
2, 59220, Note_on_c, 0, 73, 55
2, 59250, Note_on_c, 0, 73, 0
2, 59280, Note_on_c, 0, 73, 55
2, 59310, Note_on_c, 0, 73, 0
2, 59340, Note_on_c, 0, 73, 55
2, 59370, Note_on_c, 0, 73, 0
2, 59400, Note_on_c, 0, 73, 55
2, 59430, Note_on_c, 0, 73, 0
2, 59460, Note_on_c, 0, 73, 55
2, 59490, Note_on_c, 0, 73, 0
2, 59520, Note_on_c, 0, 76, 53
2, 59535, Note_on_c, 0, 76, 0
2, 59535, Note_on_c, 0, 78, 53
2, 59550, Note_on_c, 0, 78, 0
2, 59550, Note_on_c, 0, 76, 53
2, 59565, Note_on_c, 0, 76, 0
2, 59565, Note_on_c, 0, 78, 53
2, 59580, Note_on_c, 0, 78, 0
2, 59580, Note_on_c, 0, 74, 53
2, 59640, Note_on_c, 0, 74, 0
2, 59700, Note_on_c, 0, 62, 91
2, 59760, Note_on_c, 0, 62, 0
2, 59760, Note_on_c, 0, 64, 91
2, 59820, Note_on_c, 0, 64, 0
2, 59820, Note_on_c, 0, 66, 91
2, 59880, Note_on_c, 0, 66, 0
2, 59880, Note_on_c, 0, 67, 91
2, 59940, Note_on_c, 0, 67, 0
2, 59940, Note_on_c, 0, 69, 91
2, 60000, Note_on_c, 0, 69, 0
2, 60000, Note_on_c, 0, 72, 91
2, 60060, Note_on_c, 0, 72, 0
2, 60060, Note_on_c, 0, 70, 91
2, 60120, Note_on_c, 0, 70, 0
2, 60180, Note_on_c, 0, 66, 91
2, 60240, Note_on_c, 0, 66, 0
2, 60240, Note_on_c, 0, 67, 91
2, 60300, Note_on_c, 0, 67, 0
2, 60300, Note_on_c, 0, 69, 91
2, 60360, Note_on_c, 0, 69, 0
2, 60360, Note_on_c, 0, 70, 91
2, 60420, Note_on_c, 0, 70, 0
2, 60420, Note_on_c, 0, 73, 91
2, 60480, Note_on_c, 0, 73, 0
2, 60480, Note_on_c, 0, 76, 91
2, 60540, Note_on_c, 0, 76, 0
2, 60540, Note_on_c, 0, 74, 91
2, 60600, Note_on_c, 0, 74, 0
2, 60660, Note_on_c, 0, 74, 53
2, 60720, Note_on_c, 0, 74, 0
2, 60720, Note_on_c, 0, 76, 53
2, 60780, Note_on_c, 0, 76, 0
2, 60780, Note_on_c, 0, 78, 53
2, 60840, Note_on_c, 0, 78, 0
2, 60840, Note_on_c, 0, 79, 53
2, 60900, Note_on_c, 0, 79, 0
2, 60900, Note_on_c, 0, 81, 52
2, 60960, Note_on_c, 0, 81, 0
2, 60960, Note_on_c, 0, 82, 50
2, 61080, Note_on_c, 0, 82, 0
2, 61080, Note_on_c, 0, 83, 46
2, 61200, Note_on_c, 0, 83, 0
2, 61200, Note_on_c, 0, 84, 43
2, 61320, Note_on_c, 0, 84, 0
2, 61320, Note_on_c, 0, 85, 40
2, 61440, Note_on_c, 0, 85, 0
2, 61440, Note_on_c, 0, 86, 59
2, 62145, Note_on_c, 0, 86, 0
2, 62160, Note_on_c, 0, 78, 52
2, 62175, Note_on_c, 0, 78, 0
2, 62175, Note_on_c, 0, 79, 53
2, 62190, Note_on_c, 0, 79, 0
2, 62190, Note_on_c, 0, 78, 55
2, 62205, Note_on_c, 0, 78, 0
2, 62205, Note_on_c, 0, 79, 58
2, 62220, Note_on_c, 0, 79, 0
2, 62220, Note_on_c, 0, 78, 59
2, 62235, Note_on_c, 0, 78, 0
2, 62235, Note_on_c, 0, 79, 61
2, 62250, Note_on_c, 0, 79, 0
2, 62250, Note_on_c, 0, 78, 62
2, 62265, Note_on_c, 0, 78, 0
2, 62265, Note_on_c, 0, 79, 65
2, 62280, Note_on_c, 0, 79, 0
2, 62280, Note_on_c, 0, 78, 67
2, 62295, Note_on_c, 0, 78, 0
2, 62295, Note_on_c, 0, 79, 68
2, 62310, Note_on_c, 0, 79, 0
2, 62310, Note_on_c, 0, 78, 70
2, 62325, Note_on_c, 0, 78, 0
2, 62325, Note_on_c, 0, 79, 71
2, 62340, Note_on_c, 0, 79, 0
2, 62340, Note_on_c, 0, 76, 74
2, 62370, Note_on_c, 0, 76, 0
2, 62370, Note_on_c, 0, 78, 77
2, 62400, Note_on_c, 0, 78, 0
2, 62400, Note_on_c, 0, 79, 93
2, 62520, Note_on_c, 0, 79, 0
2, 62580, Note_on_c, 0, 74, 92
2, 62610, Note_on_c, 0, 74, 0
2, 62640, Note_on_c, 0, 79, 92
2, 62760, Note_on_c, 0, 79, 0
2, 62820, Note_on_c, 0, 74, 91
2, 62850, Note_on_c, 0, 74, 0
2, 62880, Note_on_c, 0, 79, 90
2, 62910, Note_on_c, 0, 79, 0
2, 62940, Note_on_c, 0, 74, 90
2, 62970, Note_on_c, 0, 74, 0
2, 63000, Note_on_c, 0, 79, 90
2, 63030, Note_on_c, 0, 79, 0
2, 63060, Note_on_c, 0, 83, 90
2, 63090, Note_on_c, 0, 83, 0
2, 63120, Note_on_c, 0, 86, 89
2, 63240, Note_on_c, 0, 86, 0
2, 63360, Note_on_c, 0, 84, 104
2, 63480, Note_on_c, 0, 84, 0
2, 63540, Note_on_c, 0, 81, 87
2, 63570, Note_on_c, 0, 81, 0
2, 63600, Note_on_c, 0, 84, 86
2, 63720, Note_on_c, 0, 84, 0
2, 63780, Note_on_c, 0, 81, 85
2, 63810, Note_on_c, 0, 81, 0
2, 63840, Note_on_c, 0, 84, 92
2, 63870, Note_on_c, 0, 84, 0
2, 63900, Note_on_c, 0, 81, 85
2, 63930, Note_on_c, 0, 81, 0
2, 63960, Note_on_c, 0, 78, 92
2, 63990, Note_on_c, 0, 78, 0
2, 64020, Note_on_c, 0, 81, 85
2, 64050, Note_on_c, 0, 81, 0
2, 64080, Note_on_c, 0, 74, 94
2, 64200, Note_on_c, 0, 74, 0
2, 64320, Note_on_c, 0, 62, 92
2, 64320, Note_on_c, 0, 79, 92
2, 64320, Note_on_c, 0, 71, 92
2, 64380, Note_on_c, 0, 71, 0
2, 64380, Note_on_c, 0, 79, 0
2, 64380, Note_on_c, 0, 62, 0
2, 64440, Note_on_c, 0, 79, 85
2, 64620, Note_on_c, 0, 79, 0
2, 64620, Note_on_c, 0, 83, 74
2, 64680, Note_on_c, 0, 83, 0
2, 64680, Note_on_c, 0, 81, 74
2, 64710, Note_on_c, 0, 81, 0
2, 64740, Note_on_c, 0, 79, 80
2, 64770, Note_on_c, 0, 79, 0
2, 64800, Note_on_c, 0, 79, 86
2, 64815, Note_on_c, 0, 79, 0
2, 64815, Note_on_c, 0, 81, 86
2, 64830, Note_on_c, 0, 81, 0
2, 64830, Note_on_c, 0, 79, 86
2, 64845, Note_on_c, 0, 79, 0
2, 64845, Note_on_c, 0, 81, 86
2, 64860, Note_on_c, 0, 81, 0
2, 64860, Note_on_c, 0, 78, 83
2, 64910, Note_on_c, 0, 78, 0
2, 64920, Note_on_c, 0, 78, 77
2, 65100, Note_on_c, 0, 78, 0
2, 65100, Note_on_c, 0, 81, 85
2, 65160, Note_on_c, 0, 81, 0
2, 65160, Note_on_c, 0, 84, 85
2, 65190, Note_on_c, 0, 84, 0
2, 65220, Note_on_c, 0, 78, 85
2, 65250, Note_on_c, 0, 78, 0
2, 65280, Note_on_c, 0, 81, 85
2, 65340, Note_on_c, 0, 81, 0
2, 65340, Note_on_c, 0, 79, 85
2, 65370, Note_on_c, 0, 79, 0
2, 65400, Note_on_c, 0, 79, 85
2, 65580, Note_on_c, 0, 79, 0
2, 65580, Note_on_c, 0, 83, 85
2, 65640, Note_on_c, 0, 83, 0
2, 65640, Note_on_c, 0, 81, 85
2, 65670, Note_on_c, 0, 81, 0
2, 65700, Note_on_c, 0, 79, 85
2, 65730, Note_on_c, 0, 79, 0
2, 65760, Note_on_c, 0, 79, 85
2, 65775, Note_on_c, 0, 79, 0
2, 65775, Note_on_c, 0, 81, 85
2, 65790, Note_on_c, 0, 81, 0
2, 65790, Note_on_c, 0, 79, 85
2, 65805, Note_on_c, 0, 79, 0
2, 65805, Note_on_c, 0, 81, 85
2, 65820, Note_on_c, 0, 81, 0
2, 65820, Note_on_c, 0, 78, 85
2, 65870, Note_on_c, 0, 78, 0
2, 65880, Note_on_c, 0, 78, 85
2, 66060, Note_on_c, 0, 78, 0
2, 66060, Note_on_c, 0, 81, 85
2, 66120, Note_on_c, 0, 81, 0
2, 66120, Note_on_c, 0, 84, 85
2, 66150, Note_on_c, 0, 84, 0
2, 66180, Note_on_c, 0, 78, 85
2, 66210, Note_on_c, 0, 78, 0
2, 66240, Note_on_c, 0, 79, 85
2, 66270, Note_on_c, 0, 79, 0
2, 66300, Note_on_c, 0, 79, 85
2, 66330, Note_on_c, 0, 79, 0
2, 66360, Note_on_c, 0, 79, 85
2, 66390, Note_on_c, 0, 79, 0
2, 66390, Note_on_c, 0, 78, 85
2, 66420, Note_on_c, 0, 78, 0
2, 66420, Note_on_c, 0, 76, 85
2, 66450, Note_on_c, 0, 76, 0
2, 66450, Note_on_c, 0, 78, 85
2, 66480, Note_on_c, 0, 78, 0
2, 66480, Note_on_c, 0, 79, 85
2, 66510, Note_on_c, 0, 79, 0
2, 66540, Note_on_c, 0, 79, 85
2, 66570, Note_on_c, 0, 79, 0
2, 66600, Note_on_c, 0, 83, 85
2, 66630, Note_on_c, 0, 83, 0
2, 66630, Note_on_c, 0, 81, 85
2, 66660, Note_on_c, 0, 81, 0
2, 66660, Note_on_c, 0, 79, 85
2, 66690, Note_on_c, 0, 79, 0
2, 66690, Note_on_c, 0, 81, 83
2, 66720, Note_on_c, 0, 81, 0
2, 66720, Note_on_c, 0, 83, 83
2, 66750, Note_on_c, 0, 83, 0
2, 66780, Note_on_c, 0, 83, 83
2, 66810, Note_on_c, 0, 83, 0
2, 66840, Note_on_c, 0, 86, 83
2, 66870, Note_on_c, 0, 86, 0
2, 66870, Note_on_c, 0, 84, 80
2, 66900, Note_on_c, 0, 84, 0
2, 66900, Note_on_c, 0, 83, 79
2, 66930, Note_on_c, 0, 83, 0
2, 66930, Note_on_c, 0, 84, 76
2, 66960, Note_on_c, 0, 84, 0
2, 66960, Note_on_c, 0, 86, 71
2, 67080, Note_on_c, 0, 86, 0
2, 67200, Note_on_c, 0, 74, 56
2, 67440, Note_on_c, 0, 74, 0
2, 67440, Note_on_c, 0, 76, 55
2, 67680, Note_on_c, 0, 76, 0
2, 67680, Note_on_c, 0, 74, 57
2, 67710, Note_on_c, 0, 74, 0
2, 67710, Note_on_c, 0, 72, 59
2, 67790, Note_on_c, 0, 72, 0
2, 67800, Note_on_c, 0, 72, 58
2, 67920, Note_on_c, 0, 72, 0
2, 67920, Note_on_c, 0, 72, 57
2, 67950, Note_on_c, 0, 72, 0
2, 67950, Note_on_c, 0, 71, 55
2, 68030, Note_on_c, 0, 71, 0
2, 68040, Note_on_c, 0, 71, 53
2, 68160, Note_on_c, 0, 71, 0
2, 68160, Note_on_c, 0, 71, 57
2, 68190, Note_on_c, 0, 71, 0
2, 68190, Note_on_c, 0, 69, 56
2, 68270, Note_on_c, 0, 69, 0
2, 68280, Note_on_c, 0, 69, 55
2, 68400, Note_on_c, 0, 69, 0
2, 68400, Note_on_c, 0, 67, 54
2, 68460, Note_on_c, 0, 67, 0
2, 68460, Note_on_c, 0, 66, 55
2, 68490, Note_on_c, 0, 66, 0
2, 68520, Note_on_c, 0, 64, 55
2, 68550, Note_on_c, 0, 64, 0
2, 68580, Note_on_c, 0, 66, 55
2, 68610, Note_on_c, 0, 66, 0
2, 68640, Note_on_c, 0, 67, 56
2, 68700, Note_on_c, 0, 67, 0
2, 68760, Note_on_c, 0, 69, 57
2, 68820, Note_on_c, 0, 69, 0
2, 68880, Note_on_c, 0, 71, 57
2, 68940, Note_on_c, 0, 71, 0
2, 69120, Note_on_c, 0, 74, 56
2, 69360, Note_on_c, 0, 74, 0
2, 69360, Note_on_c, 0, 76, 59
2, 69600, Note_on_c, 0, 76, 0
2, 69600, Note_on_c, 0, 74, 46
2, 69660, Note_on_c, 0, 74, 0
2, 69660, Note_on_c, 0, 72, 51
2, 69690, Note_on_c, 0, 72, 0
2, 69720, Note_on_c, 0, 72, 51
2, 69750, Note_on_c, 0, 72, 0
2, 69780, Note_on_c, 0, 72, 51
2, 69810, Note_on_c, 0, 72, 0
2, 69840, Note_on_c, 0, 72, 51
2, 69900, Note_on_c, 0, 72, 0
2, 69900, Note_on_c, 0, 71, 50
2, 69930, Note_on_c, 0, 71, 0
2, 69960, Note_on_c, 0, 71, 49
2, 69990, Note_on_c, 0, 71, 0
2, 70020, Note_on_c, 0, 71, 49
2, 70050, Note_on_c, 0, 71, 0
2, 70080, Note_on_c, 0, 71, 49
2, 70140, Note_on_c, 0, 71, 0
2, 70140, Note_on_c, 0, 69, 50
2, 70170, Note_on_c, 0, 69, 0
2, 70200, Note_on_c, 0, 69, 52
2, 70245, Note_on_c, 0, 69, 0
2, 70260, Note_on_c, 0, 69, 52
2, 70305, Note_on_c, 0, 69, 0
2, 70320, Note_on_c, 0, 67, 52
2, 70380, Note_on_c, 0, 67, 0
2, 70380, Note_on_c, 0, 66, 54
2, 70440, Note_on_c, 0, 66, 0
2, 70440, Note_on_c, 0, 64, 55
2, 70500, Note_on_c, 0, 64, 0
2, 70500, Note_on_c, 0, 66, 55
2, 70560, Note_on_c, 0, 66, 0
2, 70560, Note_on_c, 0, 55, 85
2, 70560, Note_on_c, 0, 67, 85
2, 70860, Note_on_c, 0, 67, 0
2, 70860, Note_on_c, 0, 55, 0
2, 70860, Note_on_c, 0, 67, 61
2, 70875, Note_on_c, 0, 67, 0
2, 70875, Note_on_c, 0, 69, 61
2, 70890, Note_on_c, 0, 69, 0
2, 70890, Note_on_c, 0, 66, 61
2, 70905, Note_on_c, 0, 66, 0
2, 70905, Note_on_c, 0, 67, 61
2, 70920, Note_on_c, 0, 67, 0
2, 70920, Note_on_c, 0, 69, 61
2, 70980, Note_on_c, 0, 69, 0
2, 70980, Note_on_c, 0, 66, 61
2, 71040, Note_on_c, 0, 66, 0
2, 71040, Note_on_c, 0, 71, 91
2, 71340, Note_on_c, 0, 71, 0
2, 71340, Note_on_c, 0, 71, 61
2, 71355, Note_on_c, 0, 71, 0
2, 71355, Note_on_c, 0, 72, 61
2, 71370, Note_on_c, 0, 72, 0
2, 71370, Note_on_c, 0, 69, 61
2, 71385, Note_on_c, 0, 69, 0
2, 71385, Note_on_c, 0, 71, 61
2, 71400, Note_on_c, 0, 71, 0
2, 71400, Note_on_c, 0, 72, 61
2, 71460, Note_on_c, 0, 72, 0
2, 71460, Note_on_c, 0, 69, 61
2, 71520, Note_on_c, 0, 69, 0
2, 71520, Note_on_c, 0, 74, 51
2, 71540, Note_on_c, 0, 74, 0
2, 71550, Note_on_c, 0, 74, 56
2, 71570, Note_on_c, 0, 74, 0
2, 71580, Note_on_c, 0, 74, 59
2, 71600, Note_on_c, 0, 74, 0
2, 71610, Note_on_c, 0, 74, 56
2, 71630, Note_on_c, 0, 74, 0
2, 71640, Note_on_c, 0, 74, 56
2, 71660, Note_on_c, 0, 74, 0
2, 71670, Note_on_c, 0, 74, 56
2, 71690, Note_on_c, 0, 74, 0
2, 71700, Note_on_c, 0, 74, 56
2, 71720, Note_on_c, 0, 74, 0
2, 71730, Note_on_c, 0, 74, 56
2, 71750, Note_on_c, 0, 74, 0
2, 71760, Note_on_c, 0, 76, 56
2, 71780, Note_on_c, 0, 76, 0
2, 71790, Note_on_c, 0, 76, 56
2, 71810, Note_on_c, 0, 76, 0
2, 71820, Note_on_c, 0, 76, 56
2, 71840, Note_on_c, 0, 76, 0
2, 71850, Note_on_c, 0, 76, 56
2, 71870, Note_on_c, 0, 76, 0
2, 71880, Note_on_c, 0, 78, 56
2, 71900, Note_on_c, 0, 78, 0
2, 71910, Note_on_c, 0, 78, 56
2, 71930, Note_on_c, 0, 78, 0
2, 71940, Note_on_c, 0, 78, 57
2, 71960, Note_on_c, 0, 78, 0
2, 71970, Note_on_c, 0, 78, 59
2, 71990, Note_on_c, 0, 78, 0
2, 72000, Note_on_c, 0, 79, 62
2, 72020, Note_on_c, 0, 79, 0
2, 72030, Note_on_c, 0, 79, 65
2, 72050, Note_on_c, 0, 79, 0
2, 72060, Note_on_c, 0, 79, 66
2, 72080, Note_on_c, 0, 79, 0
2, 72090, Note_on_c, 0, 79, 66
2, 72110, Note_on_c, 0, 79, 0
2, 72120, Note_on_c, 0, 81, 66
2, 72140, Note_on_c, 0, 81, 0
2, 72150, Note_on_c, 0, 81, 66
2, 72170, Note_on_c, 0, 81, 0
2, 72180, Note_on_c, 0, 81, 66
2, 72200, Note_on_c, 0, 81, 0
2, 72210, Note_on_c, 0, 81, 68
2, 72230, Note_on_c, 0, 81, 0
2, 72240, Note_on_c, 0, 83, 68
2, 72260, Note_on_c, 0, 83, 0
2, 72270, Note_on_c, 0, 83, 70
2, 72290, Note_on_c, 0, 83, 0
2, 72300, Note_on_c, 0, 83, 70
2, 72320, Note_on_c, 0, 83, 0
2, 72330, Note_on_c, 0, 83, 71
2, 72350, Note_on_c, 0, 83, 0
2, 72360, Note_on_c, 0, 85, 71
2, 72380, Note_on_c, 0, 85, 0
2, 72390, Note_on_c, 0, 85, 73
2, 72410, Note_on_c, 0, 85, 0
2, 72420, Note_on_c, 0, 85, 74
2, 72440, Note_on_c, 0, 85, 0
2, 72450, Note_on_c, 0, 85, 74
2, 72470, Note_on_c, 0, 85, 0
2, 72480, Note_on_c, 0, 86, 85
2, 72660, Note_on_c, 0, 86, 0
2, 72660, Note_on_c, 0, 81, 85
2, 72720, Note_on_c, 0, 81, 0
2, 72720, Note_on_c, 0, 85, 85
2, 72810, Note_on_c, 0, 85, 0
2, 72810, Note_on_c, 0, 81, 85
2, 72840, Note_on_c, 0, 81, 0
2, 72840, Note_on_c, 0, 85, 85
2, 72930, Note_on_c, 0, 85, 0
2, 72930, Note_on_c, 0, 81, 85
2, 72960, Note_on_c, 0, 81, 0
2, 72960, Note_on_c, 0, 86, 85
2, 73140, Note_on_c, 0, 86, 0
2, 73140, Note_on_c, 0, 81, 85
2, 73200, Note_on_c, 0, 81, 0
2, 73200, Note_on_c, 0, 85, 85
2, 73290, Note_on_c, 0, 85, 0
2, 73290, Note_on_c, 0, 81, 85
2, 73320, Note_on_c, 0, 81, 0
2, 73320, Note_on_c, 0, 85, 85
2, 73410, Note_on_c, 0, 85, 0
2, 73410, Note_on_c, 0, 81, 85
2, 73440, Note_on_c, 0, 81, 0
2, 73440, Note_on_c, 0, 86, 100
2, 73470, Note_on_c, 0, 86, 0
2, 73500, Note_on_c, 0, 81, 100
2, 73530, Note_on_c, 0, 81, 0
2, 73560, Note_on_c, 0, 85, 100
2, 73590, Note_on_c, 0, 85, 0
2, 73620, Note_on_c, 0, 81, 100
2, 73650, Note_on_c, 0, 81, 0
2, 73680, Note_on_c, 0, 86, 100
2, 73710, Note_on_c, 0, 86, 0
2, 73740, Note_on_c, 0, 81, 100
2, 73770, Note_on_c, 0, 81, 0
2, 73800, Note_on_c, 0, 85, 100
2, 73830, Note_on_c, 0, 85, 0
2, 73860, Note_on_c, 0, 81, 100
2, 73890, Note_on_c, 0, 81, 0
2, 73920, Note_on_c, 0, 86, 85
2, 73965, Note_on_c, 0, 86, 0
2, 73980, Note_on_c, 0, 62, 85
2, 74025, Note_on_c, 0, 62, 0
2, 74040, Note_on_c, 0, 62, 85
2, 74085, Note_on_c, 0, 62, 0
2, 74100, Note_on_c, 0, 62, 85
2, 74145, Note_on_c, 0, 62, 0
2, 74160, Note_on_c, 0, 62, 85
2, 74280, Note_on_c, 0, 62, 0
2, 74400, Note_on_c, 0, 74, 46
2, 74580, Note_on_c, 0, 74, 0
2, 74580, Note_on_c, 0, 72, 47
2, 74600, Note_on_c, 0, 72, 0
2, 74600, Note_on_c, 0, 71, 47
2, 74620, Note_on_c, 0, 71, 0
2, 74620, Note_on_c, 0, 69, 47
2, 74640, Note_on_c, 0, 69, 0
2, 74640, Note_on_c, 0, 67, 47
2, 74700, Note_on_c, 0, 67, 0
2, 74760, Note_on_c, 0, 76, 47
2, 74820, Note_on_c, 0, 76, 0
2, 74880, Note_on_c, 0, 72, 46
2, 74940, Note_on_c, 0, 72, 0
2, 75000, Note_on_c, 0, 69, 43
2, 75060, Note_on_c, 0, 69, 0
2, 75120, Note_on_c, 0, 74, 59
2, 75180, Note_on_c, 0, 74, 0
2, 75360, Note_on_c, 0, 83, 55
2, 75540, Note_on_c, 0, 83, 0
2, 75540, Note_on_c, 0, 81, 55
2, 75560, Note_on_c, 0, 81, 0
2, 75560, Note_on_c, 0, 79, 55
2, 75580, Note_on_c, 0, 79, 0
2, 75580, Note_on_c, 0, 78, 55
2, 75600, Note_on_c, 0, 78, 0
2, 75600, Note_on_c, 0, 76, 55
2, 75660, Note_on_c, 0, 76, 0
2, 75720, Note_on_c, 0, 84, 55
2, 75780, Note_on_c, 0, 84, 0
2, 75840, Note_on_c, 0, 83, 55
2, 76080, Note_on_c, 0, 83, 0
2, 76080, Note_on_c, 0, 81, 47
2, 76200, Note_on_c, 0, 81, 0
2, 76380, Note_on_c, 0, 86, 55
2, 76410, Note_on_c, 0, 86, 0
2, 76440, Note_on_c, 0, 86, 55
2, 76470, Note_on_c, 0, 86, 0
2, 76500, Note_on_c, 0, 86, 55
2, 76530, Note_on_c, 0, 86, 0
2, 76560, Note_on_c, 0, 86, 55
2, 76590, Note_on_c, 0, 86, 0
2, 76620, Note_on_c, 0, 86, 55
2, 76650, Note_on_c, 0, 86, 0
2, 76680, Note_on_c, 0, 86, 55
2, 76710, Note_on_c, 0, 86, 0
2, 76740, Note_on_c, 0, 86, 55
2, 76770, Note_on_c, 0, 86, 0
2, 76800, Note_on_c, 0, 86, 55
2, 76830, Note_on_c, 0, 86, 0
2, 76860, Note_on_c, 0, 86, 55
2, 76890, Note_on_c, 0, 86, 0
2, 76920, Note_on_c, 0, 86, 55
2, 76950, Note_on_c, 0, 86, 0
2, 76980, Note_on_c, 0, 86, 55
2, 77010, Note_on_c, 0, 86, 0
2, 77040, Note_on_c, 0, 86, 55
2, 77100, Note_on_c, 0, 86, 0
2, 77100, Note_on_c, 0, 84, 55
2, 77160, Note_on_c, 0, 84, 0
2, 77160, Note_on_c, 0, 79, 55
2, 77220, Note_on_c, 0, 79, 0
2, 77220, Note_on_c, 0, 78, 55
2, 77280, Note_on_c, 0, 78, 0
2, 77280, Note_on_c, 0, 78, 55
2, 77340, Note_on_c, 0, 78, 0
2, 77340, Note_on_c, 0, 79, 65
2, 77400, Note_on_c, 0, 79, 0
2, 77460, Note_on_c, 0, 76, 55
2, 77490, Note_on_c, 0, 76, 0
2, 77520, Note_on_c, 0, 76, 55
2, 77580, Note_on_c, 0, 76, 0
2, 77580, Note_on_c, 0, 74, 55
2, 77640, Note_on_c, 0, 74, 0
2, 77700, Note_on_c, 0, 66, 55
2, 77745, Note_on_c, 0, 66, 0
2, 77760, Note_on_c, 0, 67, 67
2, 77880, Note_on_c, 0, 67, 0
2, 77940, Note_on_c, 0, 74, 55
2, 77970, Note_on_c, 0, 74, 0
2, 78000, Note_on_c, 0, 79, 55
2, 78060, Note_on_c, 0, 79, 0
2, 78060, Note_on_c, 0, 78, 55
2, 78120, Note_on_c, 0, 78, 0
2, 78120, Note_on_c, 0, 76, 55
2, 78180, Note_on_c, 0, 76, 0
2, 78180, Note_on_c, 0, 74, 55
2, 78240, Note_on_c, 0, 74, 0
2, 78240, Note_on_c, 0, 76, 55
2, 78255, Note_on_c, 0, 76, 0
2, 78255, Note_on_c, 0, 78, 55
2, 78270, Note_on_c, 0, 78, 0
2, 78270, Note_on_c, 0, 76, 55
2, 78285, Note_on_c, 0, 76, 0
2, 78285, Note_on_c, 0, 78, 55
2, 78300, Note_on_c, 0, 78, 0
2, 78300, Note_on_c, 0, 74, 55
2, 78360, Note_on_c, 0, 74, 0
2, 78420, Note_on_c, 0, 74, 55
2, 78450, Note_on_c, 0, 74, 0
2, 78480, Note_on_c, 0, 74, 55
2, 78510, Note_on_c, 0, 74, 0
2, 78540, Note_on_c, 0, 74, 55
2, 78570, Note_on_c, 0, 74, 0
2, 78600, Note_on_c, 0, 74, 55
2, 78630, Note_on_c, 0, 74, 0
2, 78660, Note_on_c, 0, 74, 55
2, 78690, Note_on_c, 0, 74, 0
2, 78720, Note_on_c, 0, 76, 55
2, 78735, Note_on_c, 0, 76, 0
2, 78735, Note_on_c, 0, 78, 55
2, 78750, Note_on_c, 0, 78, 0
2, 78750, Note_on_c, 0, 76, 55
2, 78765, Note_on_c, 0, 76, 0
2, 78765, Note_on_c, 0, 78, 55
2, 78780, Note_on_c, 0, 78, 0
2, 78780, Note_on_c, 0, 74, 55
2, 78840, Note_on_c, 0, 74, 0
2, 78900, Note_on_c, 0, 74, 55
2, 78945, Note_on_c, 0, 74, 0
2, 78960, Note_on_c, 0, 79, 55
2, 79020, Note_on_c, 0, 79, 0
2, 79020, Note_on_c, 0, 78, 55
2, 79080, Note_on_c, 0, 78, 0
2, 79080, Note_on_c, 0, 76, 55
2, 79140, Note_on_c, 0, 76, 0
2, 79140, Note_on_c, 0, 74, 55
2, 79200, Note_on_c, 0, 74, 0
2, 79200, Note_on_c, 0, 76, 55
2, 79215, Note_on_c, 0, 76, 0
2, 79215, Note_on_c, 0, 78, 55
2, 79230, Note_on_c, 0, 78, 0
2, 79230, Note_on_c, 0, 76, 55
2, 79245, Note_on_c, 0, 76, 0
2, 79245, Note_on_c, 0, 78, 55
2, 79260, Note_on_c, 0, 78, 0
2, 79260, Note_on_c, 0, 74, 55
2, 79320, Note_on_c, 0, 74, 0
2, 79380, Note_on_c, 0, 74, 55
2, 79410, Note_on_c, 0, 74, 0
2, 79440, Note_on_c, 0, 74, 55
2, 79470, Note_on_c, 0, 74, 0
2, 79500, Note_on_c, 0, 74, 55
2, 79530, Note_on_c, 0, 74, 0
2, 79560, Note_on_c, 0, 74, 55
2, 79590, Note_on_c, 0, 74, 0
2, 79620, Note_on_c, 0, 74, 55
2, 79650, Note_on_c, 0, 74, 0
2, 79680, Note_on_c, 0, 76, 55
2, 79695, Note_on_c, 0, 76, 0
2, 79695, Note_on_c, 0, 78, 55
2, 79710, Note_on_c, 0, 78, 0
2, 79710, Note_on_c, 0, 76, 55
2, 79725, Note_on_c, 0, 76, 0
2, 79725, Note_on_c, 0, 78, 55
2, 79740, Note_on_c, 0, 78, 0
2, 79740, Note_on_c, 0, 74, 55
2, 79800, Note_on_c, 0, 74, 0
2, 79920, Note_on_c, 0, 64, 83
2, 79920, Note_on_c, 0, 76, 83
2, 80090, Note_on_c, 0, 76, 0
2, 80090, Note_on_c, 0, 64, 0
2, 80100, Note_on_c, 0, 74, 82
2, 80120, Note_on_c, 0, 74, 0
2, 80120, Note_on_c, 0, 72, 82
2, 80140, Note_on_c, 0, 72, 0
2, 80140, Note_on_c, 0, 71, 82
2, 80160, Note_on_c, 0, 71, 0
2, 80160, Note_on_c, 0, 72, 83
2, 80280, Note_on_c, 0, 72, 0
2, 80400, Note_on_c, 0, 74, 85
2, 80400, Note_on_c, 0, 62, 85
2, 80570, Note_on_c, 0, 62, 0
2, 80570, Note_on_c, 0, 74, 0
2, 80580, Note_on_c, 0, 72, 77
2, 80600, Note_on_c, 0, 72, 0
2, 80600, Note_on_c, 0, 71, 79
2, 80620, Note_on_c, 0, 71, 0
2, 80620, Note_on_c, 0, 69, 83
2, 80640, Note_on_c, 0, 69, 0
2, 80640, Note_on_c, 0, 71, 88
2, 80760, Note_on_c, 0, 71, 0
2, 80880, Note_on_c, 0, 76, 85
2, 80940, Note_on_c, 0, 76, 0
2, 80940, Note_on_c, 0, 78, 85
2, 80970, Note_on_c, 0, 78, 0
2, 80970, Note_on_c, 0, 79, 85
2, 81000, Note_on_c, 0, 79, 0
2, 81000, Note_on_c, 0, 78, 85
2, 81045, Note_on_c, 0, 78, 0
2, 81060, Note_on_c, 0, 76, 85
2, 81090, Note_on_c, 0, 76, 0
2, 81120, Note_on_c, 0, 76, 85
2, 81180, Note_on_c, 0, 76, 0
2, 81180, Note_on_c, 0, 74, 85
2, 81225, Note_on_c, 0, 74, 0
2, 81240, Note_on_c, 0, 71, 85
2, 81270, Note_on_c, 0, 71, 0
2, 81300, Note_on_c, 0, 74, 85
2, 81330, Note_on_c, 0, 74, 0
2, 81360, Note_on_c, 0, 74, 85
2, 81420, Note_on_c, 0, 74, 0
2, 81420, Note_on_c, 0, 72, 85
2, 81465, Note_on_c, 0, 72, 0
2, 81480, Note_on_c, 0, 71, 85
2, 81510, Note_on_c, 0, 71, 0
2, 81540, Note_on_c, 0, 69, 85
2, 81570, Note_on_c, 0, 69, 0
2, 81600, Note_on_c, 0, 67, 85
2, 81720, Note_on_c, 0, 67, 0
2, 81780, Note_on_c, 0, 74, 50
2, 81810, Note_on_c, 0, 74, 0
2, 81840, Note_on_c, 0, 79, 50
2, 81900, Note_on_c, 0, 79, 0
2, 81900, Note_on_c, 0, 78, 50
2, 81960, Note_on_c, 0, 78, 0
2, 81960, Note_on_c, 0, 76, 53
2, 82020, Note_on_c, 0, 76, 0
2, 82020, Note_on_c, 0, 74, 56
2, 82080, Note_on_c, 0, 74, 0
2, 82080, Note_on_c, 0, 76, 58
2, 82095, Note_on_c, 0, 76, 0
2, 82095, Note_on_c, 0, 78, 58
2, 82110, Note_on_c, 0, 78, 0
2, 82110, Note_on_c, 0, 76, 59
2, 82125, Note_on_c, 0, 76, 0
2, 82125, Note_on_c, 0, 78, 59
2, 82140, Note_on_c, 0, 78, 0
2, 82140, Note_on_c, 0, 74, 61
2, 82200, Note_on_c, 0, 74, 0
2, 82260, Note_on_c, 0, 74, 56
2, 82290, Note_on_c, 0, 74, 0
2, 82320, Note_on_c, 0, 74, 55
2, 82350, Note_on_c, 0, 74, 0
2, 82380, Note_on_c, 0, 74, 55
2, 82410, Note_on_c, 0, 74, 0
2, 82440, Note_on_c, 0, 74, 53
2, 82470, Note_on_c, 0, 74, 0
2, 82500, Note_on_c, 0, 74, 52
2, 82530, Note_on_c, 0, 74, 0
2, 82560, Note_on_c, 0, 76, 55
2, 82575, Note_on_c, 0, 76, 0
2, 82575, Note_on_c, 0, 78, 55
2, 82590, Note_on_c, 0, 78, 0
2, 82590, Note_on_c, 0, 76, 55
2, 82605, Note_on_c, 0, 76, 0
2, 82605, Note_on_c, 0, 78, 55
2, 82620, Note_on_c, 0, 78, 0
2, 82620, Note_on_c, 0, 74, 55
2, 82680, Note_on_c, 0, 74, 0
2, 82740, Note_on_c, 0, 74, 55
2, 82785, Note_on_c, 0, 74, 0
2, 82800, Note_on_c, 0, 79, 55
2, 82860, Note_on_c, 0, 79, 0
2, 82860, Note_on_c, 0, 78, 55
2, 82920, Note_on_c, 0, 78, 0
2, 82920, Note_on_c, 0, 76, 55
2, 82980, Note_on_c, 0, 76, 0
2, 82980, Note_on_c, 0, 74, 56
2, 83040, Note_on_c, 0, 74, 0
2, 83040, Note_on_c, 0, 76, 65
2, 83055, Note_on_c, 0, 76, 0
2, 83055, Note_on_c, 0, 78, 65
2, 83070, Note_on_c, 0, 78, 0
2, 83070, Note_on_c, 0, 76, 65
2, 83085, Note_on_c, 0, 76, 0
2, 83085, Note_on_c, 0, 78, 65
2, 83100, Note_on_c, 0, 78, 0
2, 83100, Note_on_c, 0, 74, 64
2, 83160, Note_on_c, 0, 74, 0
2, 83220, Note_on_c, 0, 74, 55
2, 83250, Note_on_c, 0, 74, 0
2, 83280, Note_on_c, 0, 74, 55
2, 83310, Note_on_c, 0, 74, 0
2, 83340, Note_on_c, 0, 74, 55
2, 83370, Note_on_c, 0, 74, 0
2, 83400, Note_on_c, 0, 74, 55
2, 83430, Note_on_c, 0, 74, 0
2, 83460, Note_on_c, 0, 74, 55
2, 83490, Note_on_c, 0, 74, 0
2, 83520, Note_on_c, 0, 76, 59
2, 83535, Note_on_c, 0, 76, 0
2, 83535, Note_on_c, 0, 78, 59
2, 83550, Note_on_c, 0, 78, 0
2, 83550, Note_on_c, 0, 76, 59
2, 83565, Note_on_c, 0, 76, 0
2, 83565, Note_on_c, 0, 78, 59
2, 83580, Note_on_c, 0, 78, 0
2, 83580, Note_on_c, 0, 74, 59
2, 83640, Note_on_c, 0, 74, 0
2, 83760, Note_on_c, 0, 88, 85
2, 83930, Note_on_c, 0, 88, 0
2, 83940, Note_on_c, 0, 86, 85
2, 83960, Note_on_c, 0, 86, 0
2, 83960, Note_on_c, 0, 84, 85
2, 83980, Note_on_c, 0, 84, 0
2, 83980, Note_on_c, 0, 83, 85
2, 84000, Note_on_c, 0, 83, 0
2, 84000, Note_on_c, 0, 84, 85
2, 84120, Note_on_c, 0, 84, 0
2, 84240, Note_on_c, 0, 86, 85
2, 84240, Note_on_c, 0, 74, 85
2, 84410, Note_on_c, 0, 74, 0
2, 84410, Note_on_c, 0, 86, 0
2, 84420, Note_on_c, 0, 84, 82
2, 84440, Note_on_c, 0, 84, 0
2, 84440, Note_on_c, 0, 83, 83
2, 84460, Note_on_c, 0, 83, 0
2, 84460, Note_on_c, 0, 81, 83
2, 84480, Note_on_c, 0, 81, 0
2, 84480, Note_on_c, 0, 83, 86
2, 84600, Note_on_c, 0, 83, 0
2, 84720, Note_on_c, 0, 76, 85
2, 84780, Note_on_c, 0, 76, 0
2, 84780, Note_on_c, 0, 78, 85
2, 84810, Note_on_c, 0, 78, 0
2, 84810, Note_on_c, 0, 79, 85
2, 84840, Note_on_c, 0, 79, 0
2, 84840, Note_on_c, 0, 78, 85
2, 84885, Note_on_c, 0, 78, 0
2, 84900, Note_on_c, 0, 76, 85
2, 84930, Note_on_c, 0, 76, 0
2, 84960, Note_on_c, 0, 74, 85
2, 84990, Note_on_c, 0, 74, 0
2, 85020, Note_on_c, 0, 79, 85
2, 85050, Note_on_c, 0, 79, 0
2, 85080, Note_on_c, 0, 83, 85
2, 85110, Note_on_c, 0, 83, 0
2, 85140, Note_on_c, 0, 86, 85
2, 85170, Note_on_c, 0, 86, 0
2, 85200, Note_on_c, 0, 86, 85
2, 85260, Note_on_c, 0, 86, 0
2, 85260, Note_on_c, 0, 84, 85
2, 85305, Note_on_c, 0, 84, 0
2, 85320, Note_on_c, 0, 83, 85
2, 85350, Note_on_c, 0, 83, 0
2, 85380, Note_on_c, 0, 81, 85
2, 85410, Note_on_c, 0, 81, 0
2, 85440, Note_on_c, 0, 79, 94
2, 85485, Note_on_c, 0, 79, 0
2, 85500, Note_on_c, 0, 62, 85
2, 85545, Note_on_c, 0, 62, 0
2, 85560, Note_on_c, 0, 64, 85
2, 85605, Note_on_c, 0, 64, 0
2, 85620, Note_on_c, 0, 66, 85
2, 85665, Note_on_c, 0, 66, 0
2, 85680, Note_on_c, 0, 67, 85
2, 85725, Note_on_c, 0, 67, 0
2, 85740, Note_on_c, 0, 67, 85
2, 85785, Note_on_c, 0, 67, 0
2, 85800, Note_on_c, 0, 69, 85
2, 85815, Note_on_c, 0, 69, 0
2, 85815, Note_on_c, 0, 71, 85
2, 85830, Note_on_c, 0, 71, 0
2, 85830, Note_on_c, 0, 69, 85
2, 85845, Note_on_c, 0, 69, 0
2, 85845, Note_on_c, 0, 71, 85
2, 85860, Note_on_c, 0, 71, 0
2, 85860, Note_on_c, 0, 67, 85
2, 85890, Note_on_c, 0, 67, 0
2, 85890, Note_on_c, 0, 69, 85
2, 85920, Note_on_c, 0, 69, 0
2, 85920, Note_on_c, 0, 71, 85
2, 85965, Note_on_c, 0, 71, 0
2, 85980, Note_on_c, 0, 66, 85
2, 86025, Note_on_c, 0, 66, 0
2, 86040, Note_on_c, 0, 67, 85
2, 86085, Note_on_c, 0, 67, 0
2, 86100, Note_on_c, 0, 69, 85
2, 86145, Note_on_c, 0, 69, 0
2, 86160, Note_on_c, 0, 71, 85
2, 86205, Note_on_c, 0, 71, 0
2, 86220, Note_on_c, 0, 71, 85
2, 86265, Note_on_c, 0, 71, 0
2, 86280, Note_on_c, 0, 72, 86
2, 86295, Note_on_c, 0, 72, 0
2, 86295, Note_on_c, 0, 74, 86
2, 86310, Note_on_c, 0, 74, 0
2, 86310, Note_on_c, 0, 72, 86
2, 86325, Note_on_c, 0, 72, 0
2, 86325, Note_on_c, 0, 74, 86
2, 86340, Note_on_c, 0, 74, 0
2, 86340, Note_on_c, 0, 71, 86
2, 86370, Note_on_c, 0, 71, 0
2, 86370, Note_on_c, 0, 72, 89
2, 86400, Note_on_c, 0, 72, 0
2, 86400, Note_on_c, 0, 74, 89
2, 86445, Note_on_c, 0, 74, 0
2, 86460, Note_on_c, 0, 74, 91
2, 86505, Note_on_c, 0, 74, 0
2, 86520, Note_on_c, 0, 75, 91
2, 86535, Note_on_c, 0, 75, 0
2, 86535, Note_on_c, 0, 76, 91
2, 86550, Note_on_c, 0, 76, 0
2, 86550, Note_on_c, 0, 75, 91
2, 86565, Note_on_c, 0, 75, 0
2, 86565, Note_on_c, 0, 76, 92
2, 86580, Note_on_c, 0, 76, 0
2, 86580, Note_on_c, 0, 73, 94
2, 86610, Note_on_c, 0, 73, 0
2, 86610, Note_on_c, 0, 75, 97
2, 86640, Note_on_c, 0, 75, 0
2, 86640, Note_on_c, 0, 76, 98
2, 86760, Note_on_c, 0, 76, 0
2, 86880, Note_on_c, 0, 64, 61
2, 87060, Note_on_c, 0, 64, 0
2, 87060, Note_on_c, 0, 69, 61
2, 87105, Note_on_c, 0, 69, 0
2, 87120, Note_on_c, 0, 67, 61
2, 87180, Note_on_c, 0, 67, 0
2, 87180, Note_on_c, 0, 66, 62
2, 87240, Note_on_c, 0, 66, 0
2, 87240, Note_on_c, 0, 64, 62
2, 87300, Note_on_c, 0, 64, 0
2, 87300, Note_on_c, 0, 62, 62
2, 87345, Note_on_c, 0, 62, 0
2, 87360, Note_on_c, 0, 74, 62
2, 87420, Note_on_c, 0, 74, 0
2, 87420, Note_on_c, 0, 73, 62
2, 87480, Note_on_c, 0, 73, 0
2, 87480, Note_on_c, 0, 72, 62
2, 87540, Note_on_c, 0, 72, 0
2, 87540, Note_on_c, 0, 71, 62
2, 87600, Note_on_c, 0, 71, 0
2, 87600, Note_on_c, 0, 74, 61
2, 87660, Note_on_c, 0, 74, 0
2, 87660, Note_on_c, 0, 73, 61
2, 87720, Note_on_c, 0, 73, 0
2, 87720, Note_on_c, 0, 72, 61
2, 87780, Note_on_c, 0, 72, 0
2, 87780, Note_on_c, 0, 71, 59
2, 87825, Note_on_c, 0, 71, 0
2, 87840, Note_on_c, 0, 64, 61
2, 88020, Note_on_c, 0, 64, 0
2, 88020, Note_on_c, 0, 69, 67
2, 88065, Note_on_c, 0, 69, 0
2, 88080, Note_on_c, 0, 67, 70
2, 88140, Note_on_c, 0, 67, 0
2, 88140, Note_on_c, 0, 66, 70
2, 88200, Note_on_c, 0, 66, 0
2, 88200, Note_on_c, 0, 64, 70
2, 88260, Note_on_c, 0, 64, 0
2, 88260, Note_on_c, 0, 62, 70
2, 88305, Note_on_c, 0, 62, 0
2, 88320, Note_on_c, 0, 74, 70
2, 88380, Note_on_c, 0, 74, 0
2, 88380, Note_on_c, 0, 76, 70
2, 88440, Note_on_c, 0, 76, 0
2, 88440, Note_on_c, 0, 78, 70
2, 88500, Note_on_c, 0, 78, 0
2, 88500, Note_on_c, 0, 79, 70
2, 88560, Note_on_c, 0, 79, 0
2, 88560, Note_on_c, 0, 74, 70
2, 88620, Note_on_c, 0, 74, 0
2, 88620, Note_on_c, 0, 76, 70
2, 88680, Note_on_c, 0, 76, 0
2, 88680, Note_on_c, 0, 78, 70
2, 88740, Note_on_c, 0, 78, 0
2, 88740, Note_on_c, 0, 79, 76
2, 88785, Note_on_c, 0, 79, 0
2, 88800, Note_on_c, 0, 81, 75
2, 88920, Note_on_c, 0, 81, 0
2, 89040, Note_on_c, 0, 74, 91
2, 89040, Note_on_c, 0, 86, 91
2, 89160, Note_on_c, 0, 86, 0
2, 89160, Note_on_c, 0, 74, 0
2, 89280, Note_on_c, 0, 62, 96
2, 89280, Note_on_c, 0, 71, 96
2, 89280, Note_on_c, 0, 79, 96
2, 89400, Note_on_c, 0, 79, 0
2, 89400, Note_on_c, 0, 71, 0
2, 89400, Note_on_c, 0, 62, 0
2, 89460, Note_on_c, 0, 74, 95
2, 89505, Note_on_c, 0, 74, 0
2, 89520, Note_on_c, 0, 71, 94
2, 89565, Note_on_c, 0, 71, 0
2, 89580, Note_on_c, 0, 67, 90
2, 89625, Note_on_c, 0, 67, 0
2, 89640, Note_on_c, 0, 71, 90
2, 89685, Note_on_c, 0, 71, 0
2, 89700, Note_on_c, 0, 74, 89
2, 89745, Note_on_c, 0, 74, 0
2, 89760, Note_on_c, 0, 79, 88
2, 89805, Note_on_c, 0, 79, 0
2, 89820, Note_on_c, 0, 74, 88
2, 89865, Note_on_c, 0, 74, 0
2, 89880, Note_on_c, 0, 79, 88
2, 89925, Note_on_c, 0, 79, 0
2, 89940, Note_on_c, 0, 83, 90
2, 89985, Note_on_c, 0, 83, 0
2, 90000, Note_on_c, 0, 86, 92
2, 90100, Note_on_c, 0, 86, 0
2, 90120, Note_on_c, 0, 62, 95
2, 90120, Note_on_c, 0, 69, 95
2, 90120, Note_on_c, 0, 78, 95
2, 90220, Note_on_c, 0, 78, 0
2, 90220, Note_on_c, 0, 69, 0
2, 90220, Note_on_c, 0, 62, 0
2, 90240, Note_on_c, 0, 62, 100
2, 90240, Note_on_c, 0, 71, 100
2, 90240, Note_on_c, 0, 79, 100
2, 90360, Note_on_c, 0, 79, 0
2, 90360, Note_on_c, 0, 71, 0
2, 90360, Note_on_c, 0, 62, 0
2, 90420, Note_on_c, 0, 74, 98
2, 90465, Note_on_c, 0, 74, 0
2, 90480, Note_on_c, 0, 71, 98
2, 90525, Note_on_c, 0, 71, 0
2, 90540, Note_on_c, 0, 67, 95
2, 90585, Note_on_c, 0, 67, 0
2, 90600, Note_on_c, 0, 71, 94
2, 90645, Note_on_c, 0, 71, 0
2, 90660, Note_on_c, 0, 74, 92
2, 90705, Note_on_c, 0, 74, 0
2, 90720, Note_on_c, 0, 79, 91
2, 90765, Note_on_c, 0, 79, 0
2, 90780, Note_on_c, 0, 74, 91
2, 90825, Note_on_c, 0, 74, 0
2, 90840, Note_on_c, 0, 79, 92
2, 90885, Note_on_c, 0, 79, 0
2, 90900, Note_on_c, 0, 83, 92
2, 90945, Note_on_c, 0, 83, 0
2, 90960, Note_on_c, 0, 86, 96
2, 91060, Note_on_c, 0, 86, 0
2, 91080, Note_on_c, 0, 62, 99
2, 91080, Note_on_c, 0, 69, 99
2, 91080, Note_on_c, 0, 78, 99
2, 91180, Note_on_c, 0, 78, 0
2, 91180, Note_on_c, 0, 69, 0
2, 91180, Note_on_c, 0, 62, 0
2, 91200, Note_on_c, 0, 62, 109
2, 91200, Note_on_c, 0, 71, 109
2, 91200, Note_on_c, 0, 79, 109
2, 91320, Note_on_c, 0, 79, 0
2, 91320, Note_on_c, 0, 71, 0
2, 91320, Note_on_c, 0, 62, 0
2, 91440, Note_on_c, 0, 62, 106
2, 91440, Note_on_c, 0, 71, 106
2, 91440, Note_on_c, 0, 79, 106
2, 91560, Note_on_c, 0, 79, 0
2, 91560, Note_on_c, 0, 71, 0
2, 91560, Note_on_c, 0, 62, 0
2, 91680, Note_on_c, 0, 62, 106
2, 91680, Note_on_c, 0, 71, 106
2, 91680, Note_on_c, 0, 79, 106
2, 91780, Note_on_c, 0, 79, 0
2, 91780, Note_on_c, 0, 71, 0
2, 91780, Note_on_c, 0, 62, 0
2, 91800, Note_on_c, 0, 55, 110
2, 91800, Note_on_c, 0, 67, 110
2, 91860, Note_on_c, 0, 67, 0
2, 91860, Note_on_c, 0, 55, 0
2, 91890, Note_on_c, 0, 55, 109
2, 91890, Note_on_c, 0, 67, 109
2, 91905, Note_on_c, 0, 67, 0
2, 91905, Note_on_c, 0, 55, 0
2, 91920, Note_on_c, 0, 55, 108
2, 91920, Note_on_c, 0, 67, 108
2, 92040, Note_on_c, 0, 67, 0
2, 92040, Note_on_c, 0, 55, 0
2, 92040, End_track
3, 0, Start_track
3, 0, MIDI_port, 0
3, 0, Title_t, "Nacht Musik"""
3, 0, Program_c, 1, 41
3, 0, Control_c, 1, 7, 122
3, 0, Control_c, 1, 10, 62
3, 0, Note_on_c, 1, 62, 85
3, 0, Note_on_c, 1, 79, 85
3, 0, Note_on_c, 1, 71, 85
3, 120, Note_on_c, 1, 71, 0
3, 120, Note_on_c, 1, 79, 0
3, 120, Note_on_c, 1, 62, 0
3, 180, Note_on_c, 1, 74, 85
3, 210, Note_on_c, 1, 74, 0
3, 240, Note_on_c, 1, 79, 85
3, 360, Note_on_c, 1, 79, 0
3, 420, Note_on_c, 1, 74, 85
3, 450, Note_on_c, 1, 74, 0
3, 480, Note_on_c, 1, 79, 85
3, 510, Note_on_c, 1, 79, 0
3, 540, Note_on_c, 1, 74, 85
3, 570, Note_on_c, 1, 74, 0
3, 600, Note_on_c, 1, 79, 85
3, 630, Note_on_c, 1, 79, 0
3, 660, Note_on_c, 1, 83, 85
3, 690, Note_on_c, 1, 83, 0
3, 720, Note_on_c, 1, 86, 85
3, 840, Note_on_c, 1, 86, 0
3, 960, Note_on_c, 1, 84, 85
3, 1080, Note_on_c, 1, 84, 0
3, 1140, Note_on_c, 1, 81, 82
3, 1170, Note_on_c, 1, 81, 0
3, 1200, Note_on_c, 1, 84, 85
3, 1320, Note_on_c, 1, 84, 0
3, 1380, Note_on_c, 1, 81, 79
3, 1410, Note_on_c, 1, 81, 0
3, 1440, Note_on_c, 1, 84, 85
3, 1470, Note_on_c, 1, 84, 0
3, 1500, Note_on_c, 1, 81, 80
3, 1530, Note_on_c, 1, 81, 0
3, 1560, Note_on_c, 1, 78, 85
3, 1590, Note_on_c, 1, 78, 0
3, 1620, Note_on_c, 1, 81, 77
3, 1650, Note_on_c, 1, 81, 0
3, 1680, Note_on_c, 1, 74, 85
3, 1800, Note_on_c, 1, 74, 0
3, 1920, Note_on_c, 1, 62, 85
3, 1920, Note_on_c, 1, 79, 85
3, 1920, Note_on_c, 1, 71, 85
3, 1980, Note_on_c, 1, 71, 0
3, 1980, Note_on_c, 1, 79, 0
3, 1980, Note_on_c, 1, 62, 0
3, 2040, Note_on_c, 1, 79, 85
3, 2220, Note_on_c, 1, 79, 0
3, 2220, Note_on_c, 1, 83, 89
3, 2280, Note_on_c, 1, 83, 0
3, 2280, Note_on_c, 1, 81, 94
3, 2310, Note_on_c, 1, 81, 0
3, 2340, Note_on_c, 1, 79, 97
3, 2370, Note_on_c, 1, 79, 0
3, 2400, Note_on_c, 1, 79, 95
3, 2415, Note_on_c, 1, 79, 0
3, 2415, Note_on_c, 1, 81, 95
3, 2430, Note_on_c, 1, 81, 0
3, 2430, Note_on_c, 1, 79, 95
3, 2445, Note_on_c, 1, 79, 0
3, 2445, Note_on_c, 1, 81, 94
3, 2460, Note_on_c, 1, 81, 0
3, 2460, Note_on_c, 1, 78, 94
3, 2510, Note_on_c, 1, 78, 0
3, 2520, Note_on_c, 1, 78, 88
3, 2700, Note_on_c, 1, 78, 0
3, 2700, Note_on_c, 1, 81, 85
3, 2760, Note_on_c, 1, 81, 0
3, 2760, Note_on_c, 1, 84, 85
3, 2790, Note_on_c, 1, 84, 0
3, 2820, Note_on_c, 1, 78, 85
3, 2850, Note_on_c, 1, 78, 0
3, 2880, Note_on_c, 1, 81, 85
3, 2940, Note_on_c, 1, 81, 0
3, 2940, Note_on_c, 1, 79, 85
3, 2970, Note_on_c, 1, 79, 0
3, 3000, Note_on_c, 1, 79, 85
3, 3180, Note_on_c, 1, 79, 0
3, 3180, Note_on_c, 1, 83, 86
3, 3240, Note_on_c, 1, 83, 0
3, 3240, Note_on_c, 1, 81, 86
3, 3270, Note_on_c, 1, 81, 0
3, 3300, Note_on_c, 1, 79, 89
3, 3330, Note_on_c, 1, 79, 0
3, 3360, Note_on_c, 1, 79, 91
3, 3375, Note_on_c, 1, 79, 0
3, 3375, Note_on_c, 1, 81, 91
3, 3390, Note_on_c, 1, 81, 0
3, 3390, Note_on_c, 1, 79, 92
3, 3405, Note_on_c, 1, 79, 0
3, 3405, Note_on_c, 1, 81, 94
3, 3420, Note_on_c, 1, 81, 0
3, 3420, Note_on_c, 1, 78, 94
3, 3470, Note_on_c, 1, 78, 0
3, 3480, Note_on_c, 1, 78, 94
3, 3660, Note_on_c, 1, 78, 0
3, 3660, Note_on_c, 1, 81, 85
3, 3720, Note_on_c, 1, 81, 0
3, 3720, Note_on_c, 1, 84, 85
3, 3750, Note_on_c, 1, 84, 0
3, 3780, Note_on_c, 1, 78, 85
3, 3810, Note_on_c, 1, 78, 0
3, 3840, Note_on_c, 1, 79, 85
3, 3870, Note_on_c, 1, 79, 0
3, 3900, Note_on_c, 1, 79, 85
3, 3930, Note_on_c, 1, 79, 0
3, 3960, Note_on_c, 1, 79, 85
3, 3990, Note_on_c, 1, 79, 0
3, 3990, Note_on_c, 1, 78, 85
3, 4020, Note_on_c, 1, 78, 0
3, 4020, Note_on_c, 1, 76, 85
3, 4050, Note_on_c, 1, 76, 0
3, 4050, Note_on_c, 1, 78, 85
3, 4080, Note_on_c, 1, 78, 0
3, 4080, Note_on_c, 1, 79, 85
3, 4110, Note_on_c, 1, 79, 0
3, 4140, Note_on_c, 1, 79, 85
3, 4170, Note_on_c, 1, 79, 0
3, 4200, Note_on_c, 1, 83, 85
3, 4230, Note_on_c, 1, 83, 0
3, 4230, Note_on_c, 1, 81, 85
3, 4260, Note_on_c, 1, 81, 0
3, 4260, Note_on_c, 1, 79, 85
3, 4290, Note_on_c, 1, 79, 0
3, 4290, Note_on_c, 1, 81, 85
3, 4320, Note_on_c, 1, 81, 0
3, 4320, Note_on_c, 1, 83, 86
3, 4350, Note_on_c, 1, 83, 0
3, 4380, Note_on_c, 1, 83, 86
3, 4410, Note_on_c, 1, 83, 0
3, 4440, Note_on_c, 1, 86, 83
3, 4470, Note_on_c, 1, 86, 0
3, 4470, Note_on_c, 1, 84, 80
3, 4500, Note_on_c, 1, 84, 0
3, 4500, Note_on_c, 1, 83, 80
3, 4530, Note_on_c, 1, 83, 0
3, 4530, Note_on_c, 1, 84, 79
3, 4560, Note_on_c, 1, 84, 0
3, 4560, Note_on_c, 1, 86, 76
3, 4680, Note_on_c, 1, 86, 0
3, 4800, Note_on_c, 1, 74, 41
3, 5040, Note_on_c, 1, 74, 0
3, 5040, Note_on_c, 1, 76, 47
3, 5280, Note_on_c, 1, 76, 0
3, 5280, Note_on_c, 1, 74, 47
3, 5310, Note_on_c, 1, 74, 0
3, 5310, Note_on_c, 1, 72, 47
3, 5390, Note_on_c, 1, 72, 0
3, 5400, Note_on_c, 1, 72, 47
3, 5520, Note_on_c, 1, 72, 0
3, 5520, Note_on_c, 1, 72, 47
3, 5550, Note_on_c, 1, 72, 0
3, 5550, Note_on_c, 1, 71, 47
3, 5630, Note_on_c, 1, 71, 0
3, 5640, Note_on_c, 1, 71, 47
3, 5760, Note_on_c, 1, 71, 0
3, 5760, Note_on_c, 1, 71, 47
3, 5790, Note_on_c, 1, 71, 0
3, 5790, Note_on_c, 1, 69, 47
3, 5870, Note_on_c, 1, 69, 0
3, 5880, Note_on_c, 1, 69, 47
3, 6000, Note_on_c, 1, 69, 0
3, 6000, Note_on_c, 1, 67, 47
3, 6060, Note_on_c, 1, 67, 0
3, 6060, Note_on_c, 1, 66, 47
3, 6090, Note_on_c, 1, 66, 0
3, 6120, Note_on_c, 1, 64, 47
3, 6150, Note_on_c, 1, 64, 0
3, 6180, Note_on_c, 1, 66, 47
3, 6210, Note_on_c, 1, 66, 0
3, 6240, Note_on_c, 1, 67, 47
3, 6300, Note_on_c, 1, 67, 0
3, 6360, Note_on_c, 1, 69, 47
3, 6420, Note_on_c, 1, 69, 0
3, 6480, Note_on_c, 1, 71, 47
3, 6540, Note_on_c, 1, 71, 0
3, 6720, Note_on_c, 1, 74, 47
3, 6960, Note_on_c, 1, 74, 0
3, 6960, Note_on_c, 1, 76, 47
3, 7200, Note_on_c, 1, 76, 0
3, 7200, Note_on_c, 1, 74, 47
3, 7260, Note_on_c, 1, 74, 0
3, 7260, Note_on_c, 1, 72, 47
3, 7290, Note_on_c, 1, 72, 0
3, 7320, Note_on_c, 1, 72, 47
3, 7350, Note_on_c, 1, 72, 0
3, 7380, Note_on_c, 1, 72, 47
3, 7410, Note_on_c, 1, 72, 0
3, 7440, Note_on_c, 1, 72, 47
3, 7500, Note_on_c, 1, 72, 0
3, 7500, Note_on_c, 1, 71, 47
3, 7530, Note_on_c, 1, 71, 0
3, 7560, Note_on_c, 1, 71, 47
3, 7590, Note_on_c, 1, 71, 0
3, 7620, Note_on_c, 1, 71, 47
3, 7650, Note_on_c, 1, 71, 0
3, 7680, Note_on_c, 1, 71, 47
3, 7740, Note_on_c, 1, 71, 0
3, 7740, Note_on_c, 1, 69, 47
3, 7770, Note_on_c, 1, 69, 0
3, 7800, Note_on_c, 1, 69, 47
3, 7845, Note_on_c, 1, 69, 0
3, 7860, Note_on_c, 1, 69, 47
3, 7905, Note_on_c, 1, 69, 0
3, 7920, Note_on_c, 1, 67, 47
3, 7980, Note_on_c, 1, 67, 0
3, 7980, Note_on_c, 1, 66, 47
3, 8040, Note_on_c, 1, 66, 0
3, 8040, Note_on_c, 1, 64, 47
3, 8100, Note_on_c, 1, 64, 0
3, 8100, Note_on_c, 1, 66, 47
3, 8160, Note_on_c, 1, 66, 0
3, 8160, Note_on_c, 1, 55, 85
3, 8160, Note_on_c, 1, 67, 85
3, 8460, Note_on_c, 1, 67, 0
3, 8460, Note_on_c, 1, 55, 0
3, 8460, Note_on_c, 1, 67, 61
3, 8475, Note_on_c, 1, 67, 0
3, 8475, Note_on_c, 1, 69, 61
3, 8490, Note_on_c, 1, 69, 0
3, 8490, Note_on_c, 1, 66, 61
3, 8505, Note_on_c, 1, 66, 0
3, 8505, Note_on_c, 1, 67, 61
3, 8520, Note_on_c, 1, 67, 0
3, 8520, Note_on_c, 1, 69, 61
3, 8580, Note_on_c, 1, 69, 0
3, 8580, Note_on_c, 1, 66, 61
3, 8640, Note_on_c, 1, 66, 0
3, 8640, Note_on_c, 1, 71, 85
3, 8940, Note_on_c, 1, 71, 0
3, 8940, Note_on_c, 1, 71, 61
3, 8955, Note_on_c, 1, 71, 0
3, 8955, Note_on_c, 1, 72, 61
3, 8970, Note_on_c, 1, 72, 0
3, 8970, Note_on_c, 1, 69, 61
3, 8985, Note_on_c, 1, 69, 0
3, 8985, Note_on_c, 1, 71, 61
3, 9000, Note_on_c, 1, 71, 0
3, 9000, Note_on_c, 1, 72, 61
3, 9060, Note_on_c, 1, 72, 0
3, 9060, Note_on_c, 1, 69, 61
3, 9120, Note_on_c, 1, 69, 0
3, 9120, Note_on_c, 1, 74, 46
3, 9140, Note_on_c, 1, 74, 0
3, 9150, Note_on_c, 1, 74, 46
3, 9170, Note_on_c, 1, 74, 0
3, 9180, Note_on_c, 1, 74, 47
3, 9200, Note_on_c, 1, 74, 0
3, 9210, Note_on_c, 1, 74, 47
3, 9230, Note_on_c, 1, 74, 0
3, 9240, Note_on_c, 1, 74, 49
3, 9260, Note_on_c, 1, 74, 0
3, 9270, Note_on_c, 1, 74, 50
3, 9290, Note_on_c, 1, 74, 0
3, 9300, Note_on_c, 1, 74, 50
3, 9320, Note_on_c, 1, 74, 0
3, 9330, Note_on_c, 1, 74, 52
3, 9350, Note_on_c, 1, 74, 0
3, 9360, Note_on_c, 1, 76, 53
3, 9380, Note_on_c, 1, 76, 0
3, 9390, Note_on_c, 1, 76, 53
3, 9410, Note_on_c, 1, 76, 0
3, 9420, Note_on_c, 1, 76, 55
3, 9440, Note_on_c, 1, 76, 0
3, 9450, Note_on_c, 1, 76, 56
3, 9470, Note_on_c, 1, 76, 0
3, 9480, Note_on_c, 1, 78, 56
3, 9500, Note_on_c, 1, 78, 0
3, 9510, Note_on_c, 1, 78, 58
3, 9530, Note_on_c, 1, 78, 0
3, 9540, Note_on_c, 1, 78, 58
3, 9560, Note_on_c, 1, 78, 0
3, 9570, Note_on_c, 1, 78, 59
3, 9590, Note_on_c, 1, 78, 0
3, 9600, Note_on_c, 1, 79, 61
3, 9620, Note_on_c, 1, 79, 0
3, 9630, Note_on_c, 1, 79, 61
3, 9650, Note_on_c, 1, 79, 0
3, 9660, Note_on_c, 1, 79, 62
3, 9680, Note_on_c, 1, 79, 0
3, 9690, Note_on_c, 1, 79, 64
3, 9710, Note_on_c, 1, 79, 0
3, 9720, Note_on_c, 1, 81, 64
3, 9740, Note_on_c, 1, 81, 0
3, 9750, Note_on_c, 1, 81, 65
3, 9770, Note_on_c, 1, 81, 0
3, 9780, Note_on_c, 1, 81, 67
3, 9800, Note_on_c, 1, 81, 0
3, 9810, Note_on_c, 1, 81, 67
3, 9830, Note_on_c, 1, 81, 0
3, 9840, Note_on_c, 1, 83, 68
3, 9860, Note_on_c, 1, 83, 0
3, 9870, Note_on_c, 1, 83, 68
3, 9890, Note_on_c, 1, 83, 0
3, 9900, Note_on_c, 1, 83, 70
3, 9920, Note_on_c, 1, 83, 0
3, 9930, Note_on_c, 1, 83, 71
3, 9950, Note_on_c, 1, 83, 0
3, 9960, Note_on_c, 1, 85, 71
3, 9980, Note_on_c, 1, 85, 0
3, 9990, Note_on_c, 1, 85, 73
3, 10010, Note_on_c, 1, 85, 0
3, 10020, Note_on_c, 1, 85, 74
3, 10040, Note_on_c, 1, 85, 0
3, 10050, Note_on_c, 1, 85, 74
3, 10070, Note_on_c, 1, 85, 0
3, 10080, Note_on_c, 1, 86, 85
3, 10260, Note_on_c, 1, 86, 0
3, 10260, Note_on_c, 1, 81, 85
3, 10320, Note_on_c, 1, 81, 0
3, 10320, Note_on_c, 1, 85, 94
3, 10410, Note_on_c, 1, 85, 0
3, 10410, Note_on_c, 1, 81, 85
3, 10440, Note_on_c, 1, 81, 0
3, 10440, Note_on_c, 1, 85, 85
3, 10530, Note_on_c, 1, 85, 0
3, 10530, Note_on_c, 1, 81, 85
3, 10560, Note_on_c, 1, 81, 0
3, 10560, Note_on_c, 1, 86, 85
3, 10740, Note_on_c, 1, 86, 0
3, 10740, Note_on_c, 1, 81, 85
3, 10800, Note_on_c, 1, 81, 0
3, 10800, Note_on_c, 1, 85, 85
3, 10890, Note_on_c, 1, 85, 0
3, 10890, Note_on_c, 1, 81, 85
3, 10920, Note_on_c, 1, 81, 0
3, 10920, Note_on_c, 1, 85, 85
3, 11010, Note_on_c, 1, 85, 0
3, 11010, Note_on_c, 1, 81, 85
3, 11040, Note_on_c, 1, 81, 0
3, 11040, Note_on_c, 1, 86, 85
3, 11070, Note_on_c, 1, 86, 0
3, 11100, Note_on_c, 1, 78, 85
3, 11100, Note_on_c, 1, 86, 85
3, 11190, Note_on_c, 1, 86, 0
3, 11190, Note_on_c, 1, 78, 0
3, 11220, Note_on_c, 1, 78, 85
3, 11220, Note_on_c, 1, 86, 85
3, 11310, Note_on_c, 1, 86, 0
3, 11310, Note_on_c, 1, 78, 0
3, 11340, Note_on_c, 1, 78, 85
3, 11340, Note_on_c, 1, 86, 85
3, 11430, Note_on_c, 1, 86, 0
3, 11430, Note_on_c, 1, 78, 0
3, 11460, Note_on_c, 1, 78, 85
3, 11460, Note_on_c, 1, 86, 85
3, 11520, Note_on_c, 1, 78, 0
3, 11520, Note_on_c, 1, 76, 85
3, 11550, Note_on_c, 1, 76, 0
3, 11550, Note_on_c, 1, 86, 0
3, 11580, Note_on_c, 1, 76, 85
3, 11580, Note_on_c, 1, 86, 85
3, 11670, Note_on_c, 1, 86, 0
3, 11670, Note_on_c, 1, 76, 0
3, 11700, Note_on_c, 1, 76, 85
3, 11700, Note_on_c, 1, 86, 85
3, 11790, Note_on_c, 1, 86, 0
3, 11790, Note_on_c, 1, 76, 0
3, 11820, Note_on_c, 1, 76, 85
3, 11820, Note_on_c, 1, 86, 85
3, 11910, Note_on_c, 1, 86, 0
3, 11910, Note_on_c, 1, 76, 0
3, 11940, Note_on_c, 1, 76, 85
3, 11940, Note_on_c, 1, 86, 85
3, 12000, Note_on_c, 1, 86, 0
3, 12000, Note_on_c, 1, 76, 0
3, 12000, Note_on_c, 1, 76, 92
3, 12000, Note_on_c, 1, 85, 92
3, 12045, Note_on_c, 1, 85, 0
3, 12045, Note_on_c, 1, 76, 0
3, 12060, Note_on_c, 1, 81, 85
3, 12105, Note_on_c, 1, 81, 0
3, 12120, Note_on_c, 1, 86, 85
3, 12165, Note_on_c, 1, 86, 0
3, 12180, Note_on_c, 1, 81, 85
3, 12225, Note_on_c, 1, 81, 0
3, 12240, Note_on_c, 1, 85, 85
3, 12285, Note_on_c, 1, 85, 0
3, 12300, Note_on_c, 1, 81, 85
3, 12345, Note_on_c, 1, 81, 0
3, 12360, Note_on_c, 1, 86, 85
3, 12405, Note_on_c, 1, 86, 0
3, 12420, Note_on_c, 1, 81, 85
3, 12465, Note_on_c, 1, 81, 0
3, 12480, Note_on_c, 1, 85, 94
3, 12525, Note_on_c, 1, 85, 0
3, 12540, Note_on_c, 1, 69, 85
3, 12585, Note_on_c, 1, 69, 0
3, 12600, Note_on_c, 1, 69, 85
3, 12645, Note_on_c, 1, 69, 0
3, 12660, Note_on_c, 1, 69, 85
3, 12705, Note_on_c, 1, 69, 0
3, 12720, Note_on_c, 1, 69, 85
3, 12840, Note_on_c, 1, 69, 0
3, 12950, Control_c, 1, 11, 77
3, 12960, Note_on_c, 1, 81, 55
3, 12964, Control_c, 1, 11, 80
3, 12966, Control_c, 1, 11, 82
3, 12970, Control_c, 1, 11, 83
3, 12974, Control_c, 1, 11, 85
3, 12978, Control_c, 1, 11, 87
3, 12994, Control_c, 1, 11, 93
3, 12998, Control_c, 1, 11, 101
3, 13010, Control_c, 1, 11, 107
3, 13022, Control_c, 1, 11, 113
3, 13034, Control_c, 1, 11, 115
3, 13038, Control_c, 1, 11, 117
3, 13042, Control_c, 1, 11, 118
3, 13044, Control_c, 1, 11, 119
3, 13048, Control_c, 1, 11, 120
3, 13052, Control_c, 1, 11, 121
3, 13056, Control_c, 1, 11, 122
3, 13058, Control_c, 1, 11, 123
3, 13060, Control_c, 1, 11, 124
3, 13064, Control_c, 1, 11, 127
3, 13140, Note_on_c, 1, 81, 0
3, 13140, Note_on_c, 1, 79, 55
3, 13160, Note_on_c, 1, 79, 0
3, 13160, Note_on_c, 1, 78, 55
3, 13180, Note_on_c, 1, 78, 0
3, 13180, Note_on_c, 1, 76, 55
3, 13200, Note_on_c, 1, 76, 0
3, 13200, Note_on_c, 1, 74, 55
3, 13260, Note_on_c, 1, 74, 0
3, 13320, Note_on_c, 1, 83, 55
3, 13380, Note_on_c, 1, 83, 0
3, 13440, Note_on_c, 1, 79, 55
3, 13500, Note_on_c, 1, 79, 0
3, 13560, Note_on_c, 1, 76, 55
3, 13620, Note_on_c, 1, 76, 0
3, 13680, Note_on_c, 1, 81, 55
3, 13740, Note_on_c, 1, 81, 0
3, 13920, Note_on_c, 1, 78, 55
3, 14100, Note_on_c, 1, 78, 0
3, 14100, Note_on_c, 1, 76, 55
3, 14120, Note_on_c, 1, 76, 0
3, 14120, Note_on_c, 1, 74, 55
3, 14140, Note_on_c, 1, 74, 0
3, 14140, Note_on_c, 1, 73, 55
3, 14160, Note_on_c, 1, 73, 0
3, 14160, Note_on_c, 1, 71, 55
3, 14220, Note_on_c, 1, 71, 0
3, 14280, Note_on_c, 1, 79, 55
3, 14340, Note_on_c, 1, 79, 0
3, 14400, Note_on_c, 1, 78, 55
3, 14640, Note_on_c, 1, 78, 0
3, 14640, Note_on_c, 1, 76, 49
3, 14760, Note_on_c, 1, 76, 0
3, 14940, Note_on_c, 1, 81, 55
3, 14970, Note_on_c, 1, 81, 0
3, 15000, Note_on_c, 1, 81, 55
3, 15030, Note_on_c, 1, 81, 0
3, 15060, Note_on_c, 1, 81, 55
3, 15090, Note_on_c, 1, 81, 0
3, 15120, Note_on_c, 1, 81, 55
3, 15150, Note_on_c, 1, 81, 0
3, 15180, Note_on_c, 1, 81, 55
3, 15210, Note_on_c, 1, 81, 0
3, 15240, Note_on_c, 1, 81, 55
3, 15270, Note_on_c, 1, 81, 0
3, 15300, Note_on_c, 1, 81, 55
3, 15330, Note_on_c, 1, 81, 0
3, 15360, Note_on_c, 1, 81, 55
3, 15390, Note_on_c, 1, 81, 0
3, 15420, Note_on_c, 1, 81, 55
3, 15450, Note_on_c, 1, 81, 0
3, 15480, Note_on_c, 1, 81, 55
3, 15510, Note_on_c, 1, 81, 0
3, 15540, Note_on_c, 1, 81, 55
3, 15570, Note_on_c, 1, 81, 0
3, 15600, Note_on_c, 1, 81, 55
3, 15630, Note_on_c, 1, 81, 0
3, 15660, Note_on_c, 1, 81, 55
3, 15690, Note_on_c, 1, 81, 0
3, 15720, Note_on_c, 1, 83, 55
3, 15750, Note_on_c, 1, 83, 0
3, 15780, Note_on_c, 1, 85, 55
3, 15810, Note_on_c, 1, 85, 0
3, 15840, Note_on_c, 1, 85, 55
3, 15900, Note_on_c, 1, 85, 0
3, 15900, Note_on_c, 1, 86, 55
3, 15960, Note_on_c, 1, 86, 0
3, 16020, Note_on_c, 1, 83, 55
3, 16050, Note_on_c, 1, 83, 0
3, 16080, Note_on_c, 1, 83, 55
3, 16140, Note_on_c, 1, 83, 0
3, 16140, Note_on_c, 1, 81, 55
3, 16200, Note_on_c, 1, 81, 0
3, 16260, Note_on_c, 1, 73, 55
3, 16305, Note_on_c, 1, 73, 0
3, 16320, Note_on_c, 1, 74, 55
3, 16440, Note_on_c, 1, 74, 0
3, 16500, Note_on_c, 1, 81, 55
3, 16530, Note_on_c, 1, 81, 0
3, 16560, Note_on_c, 1, 86, 55
3, 16620, Note_on_c, 1, 86, 0
3, 16620, Note_on_c, 1, 85, 55
3, 16680, Note_on_c, 1, 85, 0
3, 16680, Note_on_c, 1, 83, 55
3, 16740, Note_on_c, 1, 83, 0
3, 16740, Note_on_c, 1, 81, 55
3, 16800, Note_on_c, 1, 81, 0
3, 16800, Note_on_c, 1, 83, 55
3, 16815, Note_on_c, 1, 83, 0
3, 16815, Note_on_c, 1, 85, 55
3, 16830, Note_on_c, 1, 85, 0
3, 16830, Note_on_c, 1, 83, 55
3, 16845, Note_on_c, 1, 83, 0
3, 16845, Note_on_c, 1, 85, 55
3, 16860, Note_on_c, 1, 85, 0
3, 16860, Note_on_c, 1, 81, 55
3, 16920, Note_on_c, 1, 81, 0
3, 16980, Note_on_c, 1, 81, 55
3, 17010, Note_on_c, 1, 81, 0
3, 17040, Note_on_c, 1, 81, 55
3, 17070, Note_on_c, 1, 81, 0
3, 17100, Note_on_c, 1, 81, 55
3, 17130, Note_on_c, 1, 81, 0
3, 17160, Note_on_c, 1, 81, 55
3, 17190, Note_on_c, 1, 81, 0
3, 17220, Note_on_c, 1, 81, 55
3, 17250, Note_on_c, 1, 81, 0
3, 17280, Note_on_c, 1, 83, 55
3, 17295, Note_on_c, 1, 83, 0
3, 17295, Note_on_c, 1, 85, 55
3, 17310, Note_on_c, 1, 85, 0
3, 17310, Note_on_c, 1, 83, 55
3, 17325, Note_on_c, 1, 83, 0
3, 17325, Note_on_c, 1, 85, 55
3, 17340, Note_on_c, 1, 85, 0
3, 17340, Note_on_c, 1, 81, 55
3, 17400, Note_on_c, 1, 81, 0
3, 17460, Note_on_c, 1, 81, 55
3, 17505, Note_on_c, 1, 81, 0
3, 17520, Note_on_c, 1, 86, 55
3, 17580, Note_on_c, 1, 86, 0
3, 17580, Note_on_c, 1, 85, 55
3, 17640, Note_on_c, 1, 85, 0
3, 17640, Note_on_c, 1, 83, 55
3, 17700, Note_on_c, 1, 83, 0
3, 17700, Note_on_c, 1, 81, 55
3, 17760, Note_on_c, 1, 81, 0
3, 17760, Note_on_c, 1, 83, 55
3, 17775, Note_on_c, 1, 83, 0
3, 17775, Note_on_c, 1, 85, 55
3, 17790, Note_on_c, 1, 85, 0
3, 17790, Note_on_c, 1, 83, 55
3, 17805, Note_on_c, 1, 83, 0
3, 17805, Note_on_c, 1, 85, 55
3, 17820, Note_on_c, 1, 85, 0
3, 17820, Note_on_c, 1, 81, 55
3, 17880, Note_on_c, 1, 81, 0
3, 17940, Note_on_c, 1, 81, 55
3, 17970, Note_on_c, 1, 81, 0
3, 18000, Note_on_c, 1, 81, 55
3, 18030, Note_on_c, 1, 81, 0
3, 18060, Note_on_c, 1, 81, 55
3, 18090, Note_on_c, 1, 81, 0
3, 18120, Note_on_c, 1, 81, 55
3, 18150, Note_on_c, 1, 81, 0
3, 18180, Note_on_c, 1, 81, 53
3, 18210, Note_on_c, 1, 81, 0
3, 18240, Note_on_c, 1, 83, 49
3, 18255, Note_on_c, 1, 83, 0
3, 18255, Note_on_c, 1, 85, 49
3, 18270, Note_on_c, 1, 85, 0
3, 18270, Note_on_c, 1, 83, 47
3, 18285, Note_on_c, 1, 83, 0
3, 18285, Note_on_c, 1, 85, 47
3, 18300, Note_on_c, 1, 85, 0
3, 18300, Note_on_c, 1, 81, 46
3, 18360, Note_on_c, 1, 81, 0
3, 18480, Note_on_c, 1, 71, 91
3, 18480, Note_on_c, 1, 83, 91
3, 18650, Note_on_c, 1, 83, 0
3, 18650, Note_on_c, 1, 71, 0
3, 18660, Note_on_c, 1, 81, 89
3, 18680, Note_on_c, 1, 81, 0
3, 18680, Note_on_c, 1, 79, 92
3, 18700, Note_on_c, 1, 79, 0
3, 18700, Note_on_c, 1, 78, 94
3, 18720, Note_on_c, 1, 78, 0
3, 18720, Note_on_c, 1, 79, 97
3, 18840, Note_on_c, 1, 79, 0
3, 18960, Note_on_c, 1, 81, 85
3, 18960, Note_on_c, 1, 69, 85
3, 19130, Note_on_c, 1, 69, 0
3, 19130, Note_on_c, 1, 81, 0
3, 19140, Note_on_c, 1, 79, 86
3, 19160, Note_on_c, 1, 79, 0
3, 19160, Note_on_c, 1, 78, 86
3, 19180, Note_on_c, 1, 78, 0
3, 19180, Note_on_c, 1, 76, 89
3, 19200, Note_on_c, 1, 76, 0
3, 19200, Note_on_c, 1, 78, 92
3, 19320, Note_on_c, 1, 78, 0
3, 19440, Note_on_c, 1, 83, 85
3, 19500, Note_on_c, 1, 83, 0
3, 19500, Note_on_c, 1, 85, 85
3, 19530, Note_on_c, 1, 85, 0
3, 19530, Note_on_c, 1, 86, 89
3, 19560, Note_on_c, 1, 86, 0
3, 19560, Note_on_c, 1, 85, 94
3, 19605, Note_on_c, 1, 85, 0
3, 19620, Note_on_c, 1, 83, 95
3, 19650, Note_on_c, 1, 83, 0
3, 19680, Note_on_c, 1, 83, 97
3, 19740, Note_on_c, 1, 83, 0
3, 19740, Note_on_c, 1, 81, 101
3, 19785, Note_on_c, 1, 81, 0
3, 19800, Note_on_c, 1, 78, 104
3, 19830, Note_on_c, 1, 78, 0
3, 19860, Note_on_c, 1, 81, 104
3, 19890, Note_on_c, 1, 81, 0
3, 19920, Note_on_c, 1, 81, 104
3, 19980, Note_on_c, 1, 81, 0
3, 19980, Note_on_c, 1, 79, 103
3, 20025, Note_on_c, 1, 79, 0
3, 20040, Note_on_c, 1, 78, 98
3, 20070, Note_on_c, 1, 78, 0
3, 20100, Note_on_c, 1, 76, 89
3, 20130, Note_on_c, 1, 76, 0
3, 20160, Note_on_c, 1, 74, 85
3, 20280, Note_on_c, 1, 74, 0
3, 20340, Note_on_c, 1, 81, 53
3, 20370, Note_on_c, 1, 81, 0
3, 20400, Note_on_c, 1, 86, 53
3, 20460, Note_on_c, 1, 86, 0
3, 20460, Note_on_c, 1, 85, 53
3, 20520, Note_on_c, 1, 85, 0
3, 20520, Note_on_c, 1, 83, 53
3, 20580, Note_on_c, 1, 83, 0
3, 20580, Note_on_c, 1, 81, 53
3, 20640, Note_on_c, 1, 81, 0
3, 20640, Note_on_c, 1, 83, 55
3, 20655, Note_on_c, 1, 83, 0
3, 20655, Note_on_c, 1, 85, 55
3, 20670, Note_on_c, 1, 85, 0
3, 20670, Note_on_c, 1, 83, 55
3, 20685, Note_on_c, 1, 83, 0
3, 20685, Note_on_c, 1, 85, 55
3, 20700, Note_on_c, 1, 85, 0
3, 20700, Note_on_c, 1, 81, 55
3, 20760, Note_on_c, 1, 81, 0
3, 20820, Note_on_c, 1, 81, 55
3, 20850, Note_on_c, 1, 81, 0
3, 20880, Note_on_c, 1, 81, 55
3, 20910, Note_on_c, 1, 81, 0
3, 20940, Note_on_c, 1, 81, 55
3, 20970, Note_on_c, 1, 81, 0
3, 21000, Note_on_c, 1, 81, 55
3, 21030, Note_on_c, 1, 81, 0
3, 21060, Note_on_c, 1, 81, 55
3, 21090, Note_on_c, 1, 81, 0
3, 21120, Note_on_c, 1, 83, 55
3, 21135, Note_on_c, 1, 83, 0
3, 21135, Note_on_c, 1, 85, 55
3, 21150, Note_on_c, 1, 85, 0
3, 21150, Note_on_c, 1, 83, 55
3, 21165, Note_on_c, 1, 83, 0
3, 21165, Note_on_c, 1, 85, 55
3, 21180, Note_on_c, 1, 85, 0
3, 21180, Note_on_c, 1, 81, 55
3, 21240, Note_on_c, 1, 81, 0
3, 21300, Note_on_c, 1, 81, 55
3, 21345, Note_on_c, 1, 81, 0
3, 21360, Note_on_c, 1, 86, 55
3, 21420, Note_on_c, 1, 86, 0
3, 21420, Note_on_c, 1, 85, 55
3, 21480, Note_on_c, 1, 85, 0
3, 21480, Note_on_c, 1, 83, 55
3, 21540, Note_on_c, 1, 83, 0
3, 21540, Note_on_c, 1, 81, 55
3, 21600, Note_on_c, 1, 81, 0
3, 21600, Note_on_c, 1, 83, 55
3, 21615, Note_on_c, 1, 83, 0
3, 21615, Note_on_c, 1, 85, 55
3, 21630, Note_on_c, 1, 85, 0
3, 21630, Note_on_c, 1, 83, 55
3, 21645, Note_on_c, 1, 83, 0
3, 21645, Note_on_c, 1, 85, 55
3, 21660, Note_on_c, 1, 85, 0
3, 21660, Note_on_c, 1, 81, 55
3, 21720, Note_on_c, 1, 81, 0
3, 21780, Note_on_c, 1, 81, 55
3, 21810, Note_on_c, 1, 81, 0
3, 21840, Note_on_c, 1, 81, 55
3, 21870, Note_on_c, 1, 81, 0
3, 21900, Note_on_c, 1, 81, 55
3, 21930, Note_on_c, 1, 81, 0
3, 21960, Note_on_c, 1, 81, 55
3, 21990, Note_on_c, 1, 81, 0
3, 22020, Note_on_c, 1, 81, 55
3, 22050, Note_on_c, 1, 81, 0
3, 22080, Note_on_c, 1, 83, 59
3, 22095, Note_on_c, 1, 83, 0
3, 22095, Note_on_c, 1, 85, 59
3, 22110, Note_on_c, 1, 85, 0
3, 22110, Note_on_c, 1, 83, 59
3, 22125, Note_on_c, 1, 83, 0
3, 22125, Note_on_c, 1, 85, 59
3, 22140, Note_on_c, 1, 85, 0
3, 22140, Note_on_c, 1, 81, 59
3, 22200, Note_on_c, 1, 81, 0
3, 22320, Note_on_c, 1, 71, 85
3, 22320, Note_on_c, 1, 83, 85
3, 22490, Note_on_c, 1, 83, 0
3, 22490, Note_on_c, 1, 71, 0
3, 22500, Note_on_c, 1, 81, 85
3, 22520, Note_on_c, 1, 81, 0
3, 22520, Note_on_c, 1, 79, 85
3, 22540, Note_on_c, 1, 79, 0
3, 22540, Note_on_c, 1, 78, 85
3, 22560, Note_on_c, 1, 78, 0
3, 22560, Note_on_c, 1, 79, 85
3, 22680, Note_on_c, 1, 79, 0
3, 22800, Note_on_c, 1, 81, 85
3, 22800, Note_on_c, 1, 69, 85
3, 22970, Note_on_c, 1, 69, 0
3, 22970, Note_on_c, 1, 81, 0
3, 22980, Note_on_c, 1, 79, 85
3, 23000, Note_on_c, 1, 79, 0
3, 23000, Note_on_c, 1, 78, 85
3, 23020, Note_on_c, 1, 78, 0
3, 23020, Note_on_c, 1, 76, 85
3, 23040, Note_on_c, 1, 76, 0
3, 23040, Note_on_c, 1, 78, 85
3, 23160, Note_on_c, 1, 78, 0
3, 23280, Note_on_c, 1, 83, 80
3, 23340, Note_on_c, 1, 83, 0
3, 23340, Note_on_c, 1, 85, 82
3, 23370, Note_on_c, 1, 85, 0
3, 23370, Note_on_c, 1, 86, 83
3, 23400, Note_on_c, 1, 86, 0
3, 23400, Note_on_c, 1, 85, 83
3, 23445, Note_on_c, 1, 85, 0
3, 23460, Note_on_c, 1, 83, 85
3, 23490, Note_on_c, 1, 83, 0
3, 23520, Note_on_c, 1, 83, 86
3, 23580, Note_on_c, 1, 83, 0
3, 23580, Note_on_c, 1, 81, 88
3, 23625, Note_on_c, 1, 81, 0
3, 23640, Note_on_c, 1, 78, 88
3, 23670, Note_on_c, 1, 78, 0
3, 23700, Note_on_c, 1, 81, 88
3, 23730, Note_on_c, 1, 81, 0
3, 23760, Note_on_c, 1, 81, 88
3, 23820, Note_on_c, 1, 81, 0
3, 23820, Note_on_c, 1, 79, 88
3, 23865, Note_on_c, 1, 79, 0
3, 23880, Note_on_c, 1, 78, 88
3, 23910, Note_on_c, 1, 78, 0
3, 23940, Note_on_c, 1, 76, 88
3, 23970, Note_on_c, 1, 76, 0
3, 24000, Note_on_c, 1, 74, 88
3, 24045, Note_on_c, 1, 74, 0
3, 24060, Note_on_c, 1, 69, 88
3, 24105, Note_on_c, 1, 69, 0
3, 24120, Note_on_c, 1, 71, 88
3, 24165, Note_on_c, 1, 71, 0
3, 24180, Note_on_c, 1, 73, 85
3, 24225, Note_on_c, 1, 73, 0
3, 24240, Note_on_c, 1, 74, 82
3, 24270, Note_on_c, 1, 74, 0
3, 24300, Note_on_c, 1, 74, 85
3, 24330, Note_on_c, 1, 74, 0
3, 24360, Note_on_c, 1, 76, 85
3, 24375, Note_on_c, 1, 76, 0
3, 24375, Note_on_c, 1, 78, 85
3, 24390, Note_on_c, 1, 78, 0
3, 24390, Note_on_c, 1, 76, 85
3, 24405, Note_on_c, 1, 76, 0
3, 24405, Note_on_c, 1, 78, 85
3, 24420, Note_on_c, 1, 78, 0
3, 24420, Note_on_c, 1, 74, 85
3, 24450, Note_on_c, 1, 74, 0
3, 24450, Note_on_c, 1, 76, 85
3, 24480, Note_on_c, 1, 76, 0
3, 24480, Note_on_c, 1, 78, 85
3, 24540, Note_on_c, 1, 78, 0
3, 24540, Note_on_c, 1, 73, 85
3, 24585, Note_on_c, 1, 73, 0
3, 24600, Note_on_c, 1, 74, 85
3, 24645, Note_on_c, 1, 74, 0
3, 24660, Note_on_c, 1, 76, 85
3, 24705, Note_on_c, 1, 76, 0
3, 24720, Note_on_c, 1, 78, 85
3, 24765, Note_on_c, 1, 78, 0
3, 24780, Note_on_c, 1, 78, 85
3, 24825, Note_on_c, 1, 78, 0
3, 24840, Note_on_c, 1, 79, 85
3, 24855, Note_on_c, 1, 79, 0
3, 24855, Note_on_c, 1, 81, 86
3, 24870, Note_on_c, 1, 81, 0
3, 24870, Note_on_c, 1, 79, 88
3, 24885, Note_on_c, 1, 79, 0
3, 24885, Note_on_c, 1, 81, 88
3, 24900, Note_on_c, 1, 81, 0
3, 24900, Note_on_c, 1, 78, 88
3, 24930, Note_on_c, 1, 78, 0
3, 24930, Note_on_c, 1, 79, 88
3, 24960, Note_on_c, 1, 79, 0
3, 24960, Note_on_c, 1, 81, 88
3, 25005, Note_on_c, 1, 81, 0
3, 25020, Note_on_c, 1, 81, 91
3, 25065, Note_on_c, 1, 81, 0
3, 25080, Note_on_c, 1, 82, 92
3, 25095, Note_on_c, 1, 82, 0
3, 25095, Note_on_c, 1, 83, 92
3, 25110, Note_on_c, 1, 83, 0
3, 25110, Note_on_c, 1, 82, 94
3, 25125, Note_on_c, 1, 82, 0
3, 25125, Note_on_c, 1, 83, 94
3, 25140, Note_on_c, 1, 83, 0
3, 25140, Note_on_c, 1, 80, 95
3, 25170, Note_on_c, 1, 80, 0
3, 25170, Note_on_c, 1, 82, 97
3, 25200, Note_on_c, 1, 82, 0
3, 25200, Note_on_c, 1, 83, 100
3, 25320, Note_on_c, 1, 83, 0
3, 25440, Note_on_c, 1, 71, 47
3, 25620, Note_on_c, 1, 71, 0
3, 25620, Note_on_c, 1, 76, 47
3, 25665, Note_on_c, 1, 76, 0
3, 25680, Note_on_c, 1, 74, 47
3, 25740, Note_on_c, 1, 74, 0
3, 25740, Note_on_c, 1, 73, 47
3, 25800, Note_on_c, 1, 73, 0
3, 25800, Note_on_c, 1, 71, 49
3, 25860, Note_on_c, 1, 71, 0
3, 25860, Note_on_c, 1, 69, 50
3, 25920, Note_on_c, 1, 69, 0
3, 25920, Note_on_c, 1, 74, 50
3, 25980, Note_on_c, 1, 74, 0
3, 26040, Note_on_c, 1, 78, 50
3, 26100, Note_on_c, 1, 78, 0
3, 26160, Note_on_c, 1, 74, 41
3, 26220, Note_on_c, 1, 74, 0
3, 26400, Note_on_c, 1, 62, 85
3, 26400, Note_on_c, 1, 79, 85
3, 26400, Note_on_c, 1, 71, 85
3, 26520, Note_on_c, 1, 71, 0
3, 26520, Note_on_c, 1, 79, 0
3, 26520, Note_on_c, 1, 62, 0
3, 26580, Note_on_c, 1, 74, 85
3, 26610, Note_on_c, 1, 74, 0
3, 26640, Note_on_c, 1, 79, 85
3, 26760, Note_on_c, 1, 79, 0
3, 26820, Note_on_c, 1, 74, 85
3, 26850, Note_on_c, 1, 74, 0
3, 26880, Note_on_c, 1, 79, 85
3, 26910, Note_on_c, 1, 79, 0
3, 26940, Note_on_c, 1, 74, 85
3, 26970, Note_on_c, 1, 74, 0
3, 27000, Note_on_c, 1, 79, 85
3, 27030, Note_on_c, 1, 79, 0
3, 27060, Note_on_c, 1, 83, 85
3, 27090, Note_on_c, 1, 83, 0
3, 27120, Note_on_c, 1, 86, 85
3, 27240, Note_on_c, 1, 86, 0
3, 27360, Note_on_c, 1, 84, 85
3, 27480, Note_on_c, 1, 84, 0
3, 27540, Note_on_c, 1, 81, 76
3, 27570, Note_on_c, 1, 81, 0
3, 27600, Note_on_c, 1, 84, 85
3, 27720, Note_on_c, 1, 84, 0
3, 27780, Note_on_c, 1, 81, 76
3, 27810, Note_on_c, 1, 81, 0
3, 27840, Note_on_c, 1, 84, 85
3, 27870, Note_on_c, 1, 84, 0
3, 27900, Note_on_c, 1, 81, 74
3, 27930, Note_on_c, 1, 81, 0
3, 27960, Note_on_c, 1, 78, 85
3, 27990, Note_on_c, 1, 78, 0
3, 28020, Note_on_c, 1, 81, 71
3, 28050, Note_on_c, 1, 81, 0
3, 28080, Note_on_c, 1, 74, 85
3, 28200, Note_on_c, 1, 74, 0
3, 28320, Note_on_c, 1, 62, 85
3, 28320, Note_on_c, 1, 79, 85
3, 28320, Note_on_c, 1, 71, 85
3, 28380, Note_on_c, 1, 71, 0
3, 28380, Note_on_c, 1, 79, 0
3, 28380, Note_on_c, 1, 62, 0
3, 28440, Note_on_c, 1, 79, 85
3, 28620, Note_on_c, 1, 79, 0
3, 28620, Note_on_c, 1, 83, 85
3, 28680, Note_on_c, 1, 83, 0
3, 28680, Note_on_c, 1, 81, 85
3, 28710, Note_on_c, 1, 81, 0
3, 28740, Note_on_c, 1, 79, 85
3, 28770, Note_on_c, 1, 79, 0
3, 28800, Note_on_c, 1, 79, 85
3, 28815, Note_on_c, 1, 79, 0
3, 28815, Note_on_c, 1, 81, 85
3, 28830, Note_on_c, 1, 81, 0
3, 28830, Note_on_c, 1, 79, 85
3, 28845, Note_on_c, 1, 79, 0
3, 28845, Note_on_c, 1, 81, 85
3, 28860, Note_on_c, 1, 81, 0
3, 28860, Note_on_c, 1, 78, 85
3, 28910, Note_on_c, 1, 78, 0
3, 28920, Note_on_c, 1, 78, 85
3, 29100, Note_on_c, 1, 78, 0
3, 29100, Note_on_c, 1, 81, 85
3, 29160, Note_on_c, 1, 81, 0
3, 29160, Note_on_c, 1, 84, 85
3, 29190, Note_on_c, 1, 84, 0
3, 29220, Note_on_c, 1, 78, 85
3, 29250, Note_on_c, 1, 78, 0
3, 29280, Note_on_c, 1, 81, 85
3, 29340, Note_on_c, 1, 81, 0
3, 29340, Note_on_c, 1, 79, 85
3, 29370, Note_on_c, 1, 79, 0
3, 29400, Note_on_c, 1, 79, 85
3, 29580, Note_on_c, 1, 79, 0
3, 29580, Note_on_c, 1, 83, 85
3, 29640, Note_on_c, 1, 83, 0
3, 29640, Note_on_c, 1, 81, 85
3, 29670, Note_on_c, 1, 81, 0
3, 29700, Note_on_c, 1, 79, 85
3, 29730, Note_on_c, 1, 79, 0
3, 29760, Note_on_c, 1, 79, 85
3, 29775, Note_on_c, 1, 79, 0
3, 29775, Note_on_c, 1, 81, 85
3, 29790, Note_on_c, 1, 81, 0
3, 29790, Note_on_c, 1, 79, 85
3, 29805, Note_on_c, 1, 79, 0
3, 29805, Note_on_c, 1, 81, 85
3, 29820, Note_on_c, 1, 81, 0
3, 29820, Note_on_c, 1, 78, 85
3, 29870, Note_on_c, 1, 78, 0
3, 29880, Note_on_c, 1, 78, 85
3, 30060, Note_on_c, 1, 78, 0
3, 30060, Note_on_c, 1, 81, 85
3, 30120, Note_on_c, 1, 81, 0
3, 30120, Note_on_c, 1, 84, 85
3, 30150, Note_on_c, 1, 84, 0
3, 30180, Note_on_c, 1, 78, 85
3, 30210, Note_on_c, 1, 78, 0
3, 30240, Note_on_c, 1, 79, 85
3, 30270, Note_on_c, 1, 79, 0
3, 30300, Note_on_c, 1, 79, 85
3, 30330, Note_on_c, 1, 79, 0
3, 30360, Note_on_c, 1, 79, 85
3, 30390, Note_on_c, 1, 79, 0
3, 30390, Note_on_c, 1, 78, 85
3, 30420, Note_on_c, 1, 78, 0
3, 30420, Note_on_c, 1, 76, 85
3, 30450, Note_on_c, 1, 76, 0
3, 30450, Note_on_c, 1, 78, 85
3, 30480, Note_on_c, 1, 78, 0
3, 30480, Note_on_c, 1, 79, 85
3, 30510, Note_on_c, 1, 79, 0
3, 30540, Note_on_c, 1, 79, 85
3, 30570, Note_on_c, 1, 79, 0
3, 30600, Note_on_c, 1, 83, 85
3, 30630, Note_on_c, 1, 83, 0
3, 30630, Note_on_c, 1, 81, 85
3, 30660, Note_on_c, 1, 81, 0
3, 30660, Note_on_c, 1, 79, 85
3, 30690, Note_on_c, 1, 79, 0
3, 30690, Note_on_c, 1, 81, 85
3, 30720, Note_on_c, 1, 81, 0
3, 30720, Note_on_c, 1, 83, 85
3, 30750, Note_on_c, 1, 83, 0
3, 30780, Note_on_c, 1, 83, 85
3, 30810, Note_on_c, 1, 83, 0
3, 30840, Note_on_c, 1, 86, 85
3, 30870, Note_on_c, 1, 86, 0
3, 30870, Note_on_c, 1, 84, 85
3, 30900, Note_on_c, 1, 84, 0
3, 30900, Note_on_c, 1, 83, 85
3, 30930, Note_on_c, 1, 83, 0
3, 30930, Note_on_c, 1, 84, 85
3, 30960, Note_on_c, 1, 84, 0
3, 30960, Note_on_c, 1, 86, 85
3, 31080, Note_on_c, 1, 86, 0
3, 31200, Note_on_c, 1, 74, 52
3, 31440, Note_on_c, 1, 74, 0
3, 31440, Note_on_c, 1, 76, 40
3, 31680, Note_on_c, 1, 76, 0
3, 31680, Note_on_c, 1, 74, 44
3, 31710, Note_on_c, 1, 74, 0
3, 31710, Note_on_c, 1, 72, 46
3, 31790, Note_on_c, 1, 72, 0
3, 31800, Note_on_c, 1, 72, 46
3, 31920, Note_on_c, 1, 72, 0
3, 31920, Note_on_c, 1, 72, 47
3, 31950, Note_on_c, 1, 72, 0
3, 31950, Note_on_c, 1, 71, 47
3, 32030, Note_on_c, 1, 71, 0
3, 32040, Note_on_c, 1, 71, 47
3, 32160, Note_on_c, 1, 71, 0
3, 32160, Note_on_c, 1, 71, 47
3, 32190, Note_on_c, 1, 71, 0
3, 32190, Note_on_c, 1, 69, 47
3, 32270, Note_on_c, 1, 69, 0
3, 32280, Note_on_c, 1, 69, 47
3, 32400, Note_on_c, 1, 69, 0
3, 32400, Note_on_c, 1, 67, 47
3, 32460, Note_on_c, 1, 67, 0
3, 32460, Note_on_c, 1, 66, 47
3, 32490, Note_on_c, 1, 66, 0
3, 32520, Note_on_c, 1, 64, 47
3, 32550, Note_on_c, 1, 64, 0
3, 32580, Note_on_c, 1, 66, 47
3, 32610, Note_on_c, 1, 66, 0
3, 32640, Note_on_c, 1, 67, 47
3, 32700, Note_on_c, 1, 67, 0
3, 32760, Note_on_c, 1, 69, 47
3, 32820, Note_on_c, 1, 69, 0
3, 32880, Note_on_c, 1, 71, 47
3, 32940, Note_on_c, 1, 71, 0
3, 33120, Note_on_c, 1, 74, 54
3, 33360, Note_on_c, 1, 74, 0
3, 33360, Note_on_c, 1, 76, 59
3, 33600, Note_on_c, 1, 76, 0
3, 33600, Note_on_c, 1, 74, 47
3, 33660, Note_on_c, 1, 74, 0
3, 33660, Note_on_c, 1, 72, 47
3, 33690, Note_on_c, 1, 72, 0
3, 33720, Note_on_c, 1, 72, 47
3, 33750, Note_on_c, 1, 72, 0
3, 33780, Note_on_c, 1, 72, 47
3, 33810, Note_on_c, 1, 72, 0
3, 33840, Note_on_c, 1, 72, 47
3, 33900, Note_on_c, 1, 72, 0
3, 33900, Note_on_c, 1, 71, 47
3, 33930, Note_on_c, 1, 71, 0
3, 33960, Note_on_c, 1, 71, 47
3, 33990, Note_on_c, 1, 71, 0
3, 34020, Note_on_c, 1, 71, 47
3, 34050, Note_on_c, 1, 71, 0
3, 34080, Note_on_c, 1, 71, 47
3, 34140, Note_on_c, 1, 71, 0
3, 34140, Note_on_c, 1, 69, 47
3, 34170, Note_on_c, 1, 69, 0
3, 34200, Note_on_c, 1, 69, 47
3, 34245, Note_on_c, 1, 69, 0
3, 34260, Note_on_c, 1, 69, 47
3, 34305, Note_on_c, 1, 69, 0
3, 34320, Note_on_c, 1, 67, 47
3, 34380, Note_on_c, 1, 67, 0
3, 34380, Note_on_c, 1, 66, 47
3, 34440, Note_on_c, 1, 66, 0
3, 34440, Note_on_c, 1, 64, 47
3, 34500, Note_on_c, 1, 64, 0
3, 34500, Note_on_c, 1, 66, 47
3, 34560, Note_on_c, 1, 66, 0
3, 34560, Note_on_c, 1, 55, 95
3, 34560, Note_on_c, 1, 67, 95
3, 34860, Note_on_c, 1, 67, 0
3, 34860, Note_on_c, 1, 55, 0
3, 34860, Note_on_c, 1, 67, 61
3, 34875, Note_on_c, 1, 67, 0
3, 34875, Note_on_c, 1, 69, 61
3, 34890, Note_on_c, 1, 69, 0
3, 34890, Note_on_c, 1, 66, 61
3, 34905, Note_on_c, 1, 66, 0
3, 34905, Note_on_c, 1, 67, 61
3, 34920, Note_on_c, 1, 67, 0
3, 34920, Note_on_c, 1, 69, 61
3, 34980, Note_on_c, 1, 69, 0
3, 34980, Note_on_c, 1, 66, 61
3, 35040, Note_on_c, 1, 66, 0
3, 35040, Note_on_c, 1, 71, 85
3, 35340, Note_on_c, 1, 71, 0
3, 35340, Note_on_c, 1, 71, 61
3, 35355, Note_on_c, 1, 71, 0
3, 35355, Note_on_c, 1, 72, 61
3, 35370, Note_on_c, 1, 72, 0
3, 35370, Note_on_c, 1, 69, 61
3, 35385, Note_on_c, 1, 69, 0
3, 35385, Note_on_c, 1, 71, 61
3, 35400, Note_on_c, 1, 71, 0
3, 35400, Note_on_c, 1, 72, 61
3, 35460, Note_on_c, 1, 72, 0
3, 35460, Note_on_c, 1, 69, 61
3, 35520, Note_on_c, 1, 69, 0
3, 35520, Note_on_c, 1, 74, 46
3, 35540, Note_on_c, 1, 74, 0
3, 35550, Note_on_c, 1, 74, 46
3, 35570, Note_on_c, 1, 74, 0
3, 35580, Note_on_c, 1, 74, 47
3, 35600, Note_on_c, 1, 74, 0
3, 35610, Note_on_c, 1, 74, 47
3, 35630, Note_on_c, 1, 74, 0
3, 35640, Note_on_c, 1, 74, 49
3, 35660, Note_on_c, 1, 74, 0
3, 35670, Note_on_c, 1, 74, 50
3, 35690, Note_on_c, 1, 74, 0
3, 35700, Note_on_c, 1, 74, 50
3, 35720, Note_on_c, 1, 74, 0
3, 35730, Note_on_c, 1, 74, 52
3, 35750, Note_on_c, 1, 74, 0
3, 35760, Note_on_c, 1, 76, 53
3, 35780, Note_on_c, 1, 76, 0
3, 35790, Note_on_c, 1, 76, 53
3, 35810, Note_on_c, 1, 76, 0
3, 35820, Note_on_c, 1, 76, 55
3, 35840, Note_on_c, 1, 76, 0
3, 35850, Note_on_c, 1, 76, 56
3, 35870, Note_on_c, 1, 76, 0
3, 35880, Note_on_c, 1, 78, 56
3, 35900, Note_on_c, 1, 78, 0
3, 35910, Note_on_c, 1, 78, 58
3, 35930, Note_on_c, 1, 78, 0
3, 35940, Note_on_c, 1, 78, 58
3, 35960, Note_on_c, 1, 78, 0
3, 35970, Note_on_c, 1, 78, 59
3, 35990, Note_on_c, 1, 78, 0
3, 36000, Note_on_c, 1, 79, 61
3, 36020, Note_on_c, 1, 79, 0
3, 36030, Note_on_c, 1, 79, 61
3, 36050, Note_on_c, 1, 79, 0
3, 36060, Note_on_c, 1, 79, 62
3, 36080, Note_on_c, 1, 79, 0
3, 36090, Note_on_c, 1, 79, 64
3, 36110, Note_on_c, 1, 79, 0
3, 36120, Note_on_c, 1, 81, 64
3, 36140, Note_on_c, 1, 81, 0
3, 36150, Note_on_c, 1, 81, 65
3, 36170, Note_on_c, 1, 81, 0
3, 36180, Note_on_c, 1, 81, 67
3, 36200, Note_on_c, 1, 81, 0
3, 36210, Note_on_c, 1, 81, 67
3, 36230, Note_on_c, 1, 81, 0
3, 36240, Note_on_c, 1, 83, 68
3, 36260, Note_on_c, 1, 83, 0
3, 36270, Note_on_c, 1, 83, 68
3, 36290, Note_on_c, 1, 83, 0
3, 36300, Note_on_c, 1, 83, 70
3, 36320, Note_on_c, 1, 83, 0
3, 36330, Note_on_c, 1, 83, 71
3, 36350, Note_on_c, 1, 83, 0
3, 36360, Note_on_c, 1, 85, 71
3, 36380, Note_on_c, 1, 85, 0
3, 36390, Note_on_c, 1, 85, 73
3, 36410, Note_on_c, 1, 85, 0
3, 36420, Note_on_c, 1, 85, 74
3, 36440, Note_on_c, 1, 85, 0
3, 36450, Note_on_c, 1, 85, 74
3, 36470, Note_on_c, 1, 85, 0
3, 36480, Note_on_c, 1, 86, 92
3, 36660, Note_on_c, 1, 86, 0
3, 36660, Note_on_c, 1, 81, 85
3, 36720, Note_on_c, 1, 81, 0
3, 36720, Note_on_c, 1, 85, 85
3, 36810, Note_on_c, 1, 85, 0
3, 36810, Note_on_c, 1, 81, 85
3, 36840, Note_on_c, 1, 81, 0
3, 36840, Note_on_c, 1, 85, 85
3, 36930, Note_on_c, 1, 85, 0
3, 36930, Note_on_c, 1, 81, 85
3, 36960, Note_on_c, 1, 81, 0
3, 36960, Note_on_c, 1, 86, 98
3, 37140, Note_on_c, 1, 86, 0
3, 37140, Note_on_c, 1, 81, 85
3, 37200, Note_on_c, 1, 81, 0
3, 37200, Note_on_c, 1, 85, 85
3, 37290, Note_on_c, 1, 85, 0
3, 37290, Note_on_c, 1, 81, 85
3, 37320, Note_on_c, 1, 81, 0
3, 37320, Note_on_c, 1, 85, 85
3, 37410, Note_on_c, 1, 85, 0
3, 37410, Note_on_c, 1, 81, 85
3, 37440, Note_on_c, 1, 81, 0
3, 37440, Note_on_c, 1, 86, 85
3, 37470, Note_on_c, 1, 86, 0
3, 37500, Note_on_c, 1, 78, 98
3, 37500, Note_on_c, 1, 86, 98
3, 37590, Note_on_c, 1, 86, 0
3, 37590, Note_on_c, 1, 78, 0
3, 37620, Note_on_c, 1, 78, 85
3, 37620, Note_on_c, 1, 86, 85
3, 37710, Note_on_c, 1, 86, 0
3, 37710, Note_on_c, 1, 78, 0
3, 37740, Note_on_c, 1, 78, 85
3, 37740, Note_on_c, 1, 86, 85
3, 37830, Note_on_c, 1, 86, 0
3, 37830, Note_on_c, 1, 78, 0
3, 37860, Note_on_c, 1, 78, 85
3, 37860, Note_on_c, 1, 86, 85
3, 37920, Note_on_c, 1, 78, 0
3, 37920, Note_on_c, 1, 76, 85
3, 37950, Note_on_c, 1, 76, 0
3, 37950, Note_on_c, 1, 86, 0
3, 37980, Note_on_c, 1, 76, 85
3, 37980, Note_on_c, 1, 86, 85
3, 38070, Note_on_c, 1, 86, 0
3, 38070, Note_on_c, 1, 76, 0
3, 38100, Note_on_c, 1, 76, 85
3, 38100, Note_on_c, 1, 86, 85
3, 38190, Note_on_c, 1, 86, 0
3, 38190, Note_on_c, 1, 76, 0
3, 38220, Note_on_c, 1, 76, 85
3, 38220, Note_on_c, 1, 86, 85
3, 38310, Note_on_c, 1, 86, 0
3, 38310, Note_on_c, 1, 76, 0
3, 38340, Note_on_c, 1, 76, 85
3, 38340, Note_on_c, 1, 86, 85
3, 38400, Note_on_c, 1, 86, 0
3, 38400, Note_on_c, 1, 76, 0
3, 38400, Note_on_c, 1, 76, 97
3, 38400, Note_on_c, 1, 85, 97
3, 38445, Note_on_c, 1, 85, 0
3, 38445, Note_on_c, 1, 76, 0
3, 38460, Note_on_c, 1, 81, 85
3, 38505, Note_on_c, 1, 81, 0
3, 38520, Note_on_c, 1, 86, 85
3, 38565, Note_on_c, 1, 86, 0
3, 38580, Note_on_c, 1, 81, 85
3, 38625, Note_on_c, 1, 81, 0
3, 38640, Note_on_c, 1, 85, 85
3, 38685, Note_on_c, 1, 85, 0
3, 38700, Note_on_c, 1, 81, 85
3, 38745, Note_on_c, 1, 81, 0
3, 38760, Note_on_c, 1, 86, 85
3, 38805, Note_on_c, 1, 86, 0
3, 38820, Note_on_c, 1, 81, 85
3, 38865, Note_on_c, 1, 81, 0
3, 38880, Note_on_c, 1, 85, 97
3, 38925, Note_on_c, 1, 85, 0
3, 38940, Note_on_c, 1, 69, 85
3, 38985, Note_on_c, 1, 69, 0
3, 39000, Note_on_c, 1, 69, 85
3, 39045, Note_on_c, 1, 69, 0
3, 39060, Note_on_c, 1, 69, 85
3, 39105, Note_on_c, 1, 69, 0
3, 39120, Note_on_c, 1, 69, 85
3, 39240, Note_on_c, 1, 69, 0
3, 39360, Note_on_c, 1, 81, 55
3, 39540, Note_on_c, 1, 81, 0
3, 39540, Note_on_c, 1, 79, 55
3, 39560, Note_on_c, 1, 79, 0
3, 39560, Note_on_c, 1, 78, 55
3, 39580, Note_on_c, 1, 78, 0
3, 39580, Note_on_c, 1, 76, 55
3, 39600, Note_on_c, 1, 76, 0
3, 39600, Note_on_c, 1, 74, 55
3, 39660, Note_on_c, 1, 74, 0
3, 39720, Note_on_c, 1, 83, 55
3, 39780, Note_on_c, 1, 83, 0
3, 39840, Note_on_c, 1, 79, 55
3, 39900, Note_on_c, 1, 79, 0
3, 39960, Note_on_c, 1, 76, 55
3, 40020, Note_on_c, 1, 76, 0
3, 40080, Note_on_c, 1, 81, 55
3, 40140, Note_on_c, 1, 81, 0
3, 40320, Note_on_c, 1, 78, 55
3, 40500, Note_on_c, 1, 78, 0
3, 40500, Note_on_c, 1, 76, 55
3, 40520, Note_on_c, 1, 76, 0
3, 40520, Note_on_c, 1, 74, 55
3, 40540, Note_on_c, 1, 74, 0
3, 40540, Note_on_c, 1, 73, 55
3, 40560, Note_on_c, 1, 73, 0
3, 40560, Note_on_c, 1, 71, 55
3, 40620, Note_on_c, 1, 71, 0
3, 40680, Note_on_c, 1, 79, 55
3, 40740, Note_on_c, 1, 79, 0
3, 40800, Note_on_c, 1, 78, 55
3, 41040, Note_on_c, 1, 78, 0
3, 41040, Note_on_c, 1, 76, 43
3, 41160, Note_on_c, 1, 76, 0
3, 41340, Note_on_c, 1, 81, 55
3, 41370, Note_on_c, 1, 81, 0
3, 41400, Note_on_c, 1, 81, 55
3, 41430, Note_on_c, 1, 81, 0
3, 41460, Note_on_c, 1, 81, 55
3, 41490, Note_on_c, 1, 81, 0
3, 41520, Note_on_c, 1, 81, 55
3, 41550, Note_on_c, 1, 81, 0
3, 41580, Note_on_c, 1, 81, 55
3, 41610, Note_on_c, 1, 81, 0
3, 41640, Note_on_c, 1, 81, 55
3, 41670, Note_on_c, 1, 81, 0
3, 41700, Note_on_c, 1, 81, 55
3, 41730, Note_on_c, 1, 81, 0
3, 41760, Note_on_c, 1, 81, 55
3, 41790, Note_on_c, 1, 81, 0
3, 41820, Note_on_c, 1, 81, 55
3, 41850, Note_on_c, 1, 81, 0
3, 41880, Note_on_c, 1, 81, 55
3, 41910, Note_on_c, 1, 81, 0
3, 41940, Note_on_c, 1, 81, 55
3, 41970, Note_on_c, 1, 81, 0
3, 42000, Note_on_c, 1, 81, 55
3, 42030, Note_on_c, 1, 81, 0
3, 42060, Note_on_c, 1, 81, 55
3, 42090, Note_on_c, 1, 81, 0
3, 42120, Note_on_c, 1, 83, 55
3, 42150, Note_on_c, 1, 83, 0
3, 42180, Note_on_c, 1, 85, 55
3, 42210, Note_on_c, 1, 85, 0
3, 42240, Note_on_c, 1, 85, 55
3, 42300, Note_on_c, 1, 85, 0
3, 42300, Note_on_c, 1, 86, 55
3, 42360, Note_on_c, 1, 86, 0
3, 42420, Note_on_c, 1, 83, 55
3, 42450, Note_on_c, 1, 83, 0
3, 42480, Note_on_c, 1, 83, 55
3, 42540, Note_on_c, 1, 83, 0
3, 42540, Note_on_c, 1, 81, 55
3, 42600, Note_on_c, 1, 81, 0
3, 42660, Note_on_c, 1, 73, 55
3, 42705, Note_on_c, 1, 73, 0
3, 42720, Note_on_c, 1, 74, 55
3, 42840, Note_on_c, 1, 74, 0
3, 42900, Note_on_c, 1, 81, 55
3, 42930, Note_on_c, 1, 81, 0
3, 42960, Note_on_c, 1, 86, 55
3, 43020, Note_on_c, 1, 86, 0
3, 43020, Note_on_c, 1, 85, 55
3, 43080, Note_on_c, 1, 85, 0
3, 43080, Note_on_c, 1, 83, 55
3, 43140, Note_on_c, 1, 83, 0
3, 43140, Note_on_c, 1, 81, 55
3, 43200, Note_on_c, 1, 81, 0
3, 43200, Note_on_c, 1, 83, 55
3, 43215, Note_on_c, 1, 83, 0
3, 43215, Note_on_c, 1, 85, 55
3, 43230, Note_on_c, 1, 85, 0
3, 43230, Note_on_c, 1, 83, 55
3, 43245, Note_on_c, 1, 83, 0
3, 43245, Note_on_c, 1, 85, 55
3, 43260, Note_on_c, 1, 85, 0
3, 43260, Note_on_c, 1, 81, 55
3, 43320, Note_on_c, 1, 81, 0
3, 43380, Note_on_c, 1, 81, 55
3, 43410, Note_on_c, 1, 81, 0
3, 43440, Note_on_c, 1, 81, 55
3, 43470, Note_on_c, 1, 81, 0
3, 43500, Note_on_c, 1, 81, 55
3, 43530, Note_on_c, 1, 81, 0
3, 43560, Note_on_c, 1, 81, 55
3, 43590, Note_on_c, 1, 81, 0
3, 43620, Note_on_c, 1, 81, 55
3, 43650, Note_on_c, 1, 81, 0
3, 43680, Note_on_c, 1, 83, 55
3, 43695, Note_on_c, 1, 83, 0
3, 43695, Note_on_c, 1, 85, 55
3, 43710, Note_on_c, 1, 85, 0
3, 43710, Note_on_c, 1, 83, 55
3, 43725, Note_on_c, 1, 83, 0
3, 43725, Note_on_c, 1, 85, 55
3, 43740, Note_on_c, 1, 85, 0
3, 43740, Note_on_c, 1, 81, 55
3, 43800, Note_on_c, 1, 81, 0
3, 43860, Note_on_c, 1, 81, 55
3, 43905, Note_on_c, 1, 81, 0
3, 43920, Note_on_c, 1, 86, 55
3, 43980, Note_on_c, 1, 86, 0
3, 43980, Note_on_c, 1, 85, 55
3, 44040, Note_on_c, 1, 85, 0
3, 44040, Note_on_c, 1, 83, 55
3, 44100, Note_on_c, 1, 83, 0
3, 44100, Note_on_c, 1, 81, 55
3, 44160, Note_on_c, 1, 81, 0
3, 44160, Note_on_c, 1, 83, 55
3, 44175, Note_on_c, 1, 83, 0
3, 44175, Note_on_c, 1, 85, 55
3, 44190, Note_on_c, 1, 85, 0
3, 44190, Note_on_c, 1, 83, 55
3, 44205, Note_on_c, 1, 83, 0
3, 44205, Note_on_c, 1, 85, 55
3, 44220, Note_on_c, 1, 85, 0
3, 44220, Note_on_c, 1, 81, 55
3, 44280, Note_on_c, 1, 81, 0
3, 44340, Note_on_c, 1, 81, 55
3, 44370, Note_on_c, 1, 81, 0
3, 44400, Note_on_c, 1, 81, 55
3, 44430, Note_on_c, 1, 81, 0
3, 44460, Note_on_c, 1, 81, 55
3, 44490, Note_on_c, 1, 81, 0
3, 44520, Note_on_c, 1, 81, 55
3, 44550, Note_on_c, 1, 81, 0
3, 44580, Note_on_c, 1, 81, 55
3, 44610, Note_on_c, 1, 81, 0
3, 44640, Note_on_c, 1, 83, 55
3, 44655, Note_on_c, 1, 83, 0
3, 44655, Note_on_c, 1, 85, 55
3, 44670, Note_on_c, 1, 85, 0
3, 44670, Note_on_c, 1, 83, 55
3, 44685, Note_on_c, 1, 83, 0
3, 44685, Note_on_c, 1, 85, 55
3, 44700, Note_on_c, 1, 85, 0
3, 44700, Note_on_c, 1, 81, 55
3, 44760, Note_on_c, 1, 81, 0
3, 44880, Note_on_c, 1, 71, 94
3, 44880, Note_on_c, 1, 83, 94
3, 45050, Note_on_c, 1, 83, 0
3, 45050, Note_on_c, 1, 71, 0
3, 45060, Note_on_c, 1, 81, 83
3, 45080, Note_on_c, 1, 81, 0
3, 45080, Note_on_c, 1, 79, 83
3, 45100, Note_on_c, 1, 79, 0
3, 45100, Note_on_c, 1, 78, 83
3, 45120, Note_on_c, 1, 78, 0
3, 45120, Note_on_c, 1, 79, 83
3, 45240, Note_on_c, 1, 79, 0
3, 45360, Note_on_c, 1, 81, 85
3, 45360, Note_on_c, 1, 69, 85
3, 45530, Note_on_c, 1, 69, 0
3, 45530, Note_on_c, 1, 81, 0
3, 45540, Note_on_c, 1, 79, 85
3, 45560, Note_on_c, 1, 79, 0
3, 45560, Note_on_c, 1, 78, 85
3, 45580, Note_on_c, 1, 78, 0
3, 45580, Note_on_c, 1, 76, 85
3, 45600, Note_on_c, 1, 76, 0
3, 45600, Note_on_c, 1, 78, 85
3, 45720, Note_on_c, 1, 78, 0
3, 45840, Note_on_c, 1, 83, 79
3, 45900, Note_on_c, 1, 83, 0
3, 45900, Note_on_c, 1, 85, 80
3, 45930, Note_on_c, 1, 85, 0
3, 45930, Note_on_c, 1, 86, 82
3, 45960, Note_on_c, 1, 86, 0
3, 45960, Note_on_c, 1, 85, 82
3, 46005, Note_on_c, 1, 85, 0
3, 46020, Note_on_c, 1, 83, 82
3, 46050, Note_on_c, 1, 83, 0
3, 46080, Note_on_c, 1, 83, 83
3, 46140, Note_on_c, 1, 83, 0
3, 46140, Note_on_c, 1, 81, 86
3, 46185, Note_on_c, 1, 81, 0
3, 46200, Note_on_c, 1, 78, 86
3, 46230, Note_on_c, 1, 78, 0
3, 46260, Note_on_c, 1, 81, 88
3, 46290, Note_on_c, 1, 81, 0
3, 46320, Note_on_c, 1, 81, 88
3, 46380, Note_on_c, 1, 81, 0
3, 46380, Note_on_c, 1, 79, 83
3, 46425, Note_on_c, 1, 79, 0
3, 46440, Note_on_c, 1, 78, 79
3, 46470, Note_on_c, 1, 78, 0
3, 46500, Note_on_c, 1, 76, 76
3, 46530, Note_on_c, 1, 76, 0
3, 46560, Note_on_c, 1, 74, 85
3, 46680, Note_on_c, 1, 74, 0
3, 46740, Note_on_c, 1, 81, 53
3, 46770, Note_on_c, 1, 81, 0
3, 46800, Note_on_c, 1, 86, 53
3, 46860, Note_on_c, 1, 86, 0
3, 46860, Note_on_c, 1, 85, 53
3, 46920, Note_on_c, 1, 85, 0
3, 46920, Note_on_c, 1, 83, 53
3, 46980, Note_on_c, 1, 83, 0
3, 46980, Note_on_c, 1, 81, 53
3, 47040, Note_on_c, 1, 81, 0
3, 47040, Note_on_c, 1, 83, 55
3, 47055, Note_on_c, 1, 83, 0
3, 47055, Note_on_c, 1, 85, 55
3, 47070, Note_on_c, 1, 85, 0
3, 47070, Note_on_c, 1, 83, 55
3, 47085, Note_on_c, 1, 83, 0
3, 47085, Note_on_c, 1, 85, 55
3, 47100, Note_on_c, 1, 85, 0
3, 47100, Note_on_c, 1, 81, 55
3, 47160, Note_on_c, 1, 81, 0
3, 47220, Note_on_c, 1, 81, 55
3, 47250, Note_on_c, 1, 81, 0
3, 47280, Note_on_c, 1, 81, 55
3, 47310, Note_on_c, 1, 81, 0
3, 47340, Note_on_c, 1, 81, 55
3, 47370, Note_on_c, 1, 81, 0
3, 47400, Note_on_c, 1, 81, 55
3, 47430, Note_on_c, 1, 81, 0
3, 47460, Note_on_c, 1, 81, 55
3, 47490, Note_on_c, 1, 81, 0
3, 47520, Note_on_c, 1, 83, 55
3, 47535, Note_on_c, 1, 83, 0
3, 47535, Note_on_c, 1, 85, 55
3, 47550, Note_on_c, 1, 85, 0
3, 47550, Note_on_c, 1, 83, 55
3, 47565, Note_on_c, 1, 83, 0
3, 47565, Note_on_c, 1, 85, 55
3, 47580, Note_on_c, 1, 85, 0
3, 47580, Note_on_c, 1, 81, 55
3, 47640, Note_on_c, 1, 81, 0
3, 47700, Note_on_c, 1, 81, 55
3, 47745, Note_on_c, 1, 81, 0
3, 47760, Note_on_c, 1, 86, 55
3, 47820, Note_on_c, 1, 86, 0
3, 47820, Note_on_c, 1, 85, 55
3, 47880, Note_on_c, 1, 85, 0
3, 47880, Note_on_c, 1, 83, 55
3, 47940, Note_on_c, 1, 83, 0
3, 47940, Note_on_c, 1, 81, 55
3, 48000, Note_on_c, 1, 81, 0
3, 48000, Note_on_c, 1, 83, 55
3, 48015, Note_on_c, 1, 83, 0
3, 48015, Note_on_c, 1, 85, 55
3, 48030, Note_on_c, 1, 85, 0
3, 48030, Note_on_c, 1, 83, 55
3, 48045, Note_on_c, 1, 83, 0
3, 48045, Note_on_c, 1, 85, 55
3, 48060, Note_on_c, 1, 85, 0
3, 48060, Note_on_c, 1, 81, 55
3, 48120, Note_on_c, 1, 81, 0
3, 48180, Note_on_c, 1, 81, 55
3, 48210, Note_on_c, 1, 81, 0
3, 48240, Note_on_c, 1, 81, 55
3, 48270, Note_on_c, 1, 81, 0
3, 48300, Note_on_c, 1, 81, 55
3, 48330, Note_on_c, 1, 81, 0
3, 48360, Note_on_c, 1, 81, 55
3, 48390, Note_on_c, 1, 81, 0
3, 48420, Note_on_c, 1, 81, 55
3, 48450, Note_on_c, 1, 81, 0
3, 48480, Note_on_c, 1, 83, 59
3, 48495, Note_on_c, 1, 83, 0
3, 48495, Note_on_c, 1, 85, 59
3, 48510, Note_on_c, 1, 85, 0
3, 48510, Note_on_c, 1, 83, 59
3, 48525, Note_on_c, 1, 83, 0
3, 48525, Note_on_c, 1, 85, 59
3, 48540, Note_on_c, 1, 85, 0
3, 48540, Note_on_c, 1, 81, 59
3, 48600, Note_on_c, 1, 81, 0
3, 48720, Note_on_c, 1, 71, 85
3, 48720, Note_on_c, 1, 83, 85
3, 48890, Note_on_c, 1, 83, 0
3, 48890, Note_on_c, 1, 71, 0
3, 48900, Note_on_c, 1, 81, 85
3, 48920, Note_on_c, 1, 81, 0
3, 48920, Note_on_c, 1, 79, 85
3, 48940, Note_on_c, 1, 79, 0
3, 48940, Note_on_c, 1, 78, 85
3, 48960, Note_on_c, 1, 78, 0
3, 48960, Note_on_c, 1, 79, 85
3, 49080, Note_on_c, 1, 79, 0
3, 49200, Note_on_c, 1, 81, 85
3, 49200, Note_on_c, 1, 69, 85
3, 49370, Note_on_c, 1, 69, 0
3, 49370, Note_on_c, 1, 81, 0
3, 49380, Note_on_c, 1, 79, 85
3, 49400, Note_on_c, 1, 79, 0
3, 49400, Note_on_c, 1, 78, 85
3, 49420, Note_on_c, 1, 78, 0
3, 49420, Note_on_c, 1, 76, 85
3, 49440, Note_on_c, 1, 76, 0
3, 49440, Note_on_c, 1, 78, 85
3, 49560, Note_on_c, 1, 78, 0
3, 49680, Note_on_c, 1, 83, 85
3, 49740, Note_on_c, 1, 83, 0
3, 49740, Note_on_c, 1, 85, 85
3, 49770, Note_on_c, 1, 85, 0
3, 49770, Note_on_c, 1, 86, 85
3, 49800, Note_on_c, 1, 86, 0
3, 49800, Note_on_c, 1, 85, 85
3, 49845, Note_on_c, 1, 85, 0
3, 49860, Note_on_c, 1, 83, 85
3, 49890, Note_on_c, 1, 83, 0
3, 49920, Note_on_c, 1, 83, 95
3, 49980, Note_on_c, 1, 83, 0
3, 49980, Note_on_c, 1, 81, 85
3, 50025, Note_on_c, 1, 81, 0
3, 50040, Note_on_c, 1, 78, 85
3, 50070, Note_on_c, 1, 78, 0
3, 50100, Note_on_c, 1, 81, 85
3, 50130, Note_on_c, 1, 81, 0
3, 50160, Note_on_c, 1, 81, 85
3, 50220, Note_on_c, 1, 81, 0
3, 50220, Note_on_c, 1, 79, 85
3, 50265, Note_on_c, 1, 79, 0
3, 50280, Note_on_c, 1, 78, 85
3, 50310, Note_on_c, 1, 78, 0
3, 50340, Note_on_c, 1, 76, 85
3, 50370, Note_on_c, 1, 76, 0
3, 50400, Note_on_c, 1, 74, 85
3, 50445, Note_on_c, 1, 74, 0
3, 50460, Note_on_c, 1, 69, 85
3, 50505, Note_on_c, 1, 69, 0
3, 50520, Note_on_c, 1, 71, 85
3, 50565, Note_on_c, 1, 71, 0
3, 50580, Note_on_c, 1, 73, 85
3, 50625, Note_on_c, 1, 73, 0
3, 50640, Note_on_c, 1, 74, 85
3, 50670, Note_on_c, 1, 74, 0
3, 50700, Note_on_c, 1, 74, 85
3, 50730, Note_on_c, 1, 74, 0
3, 50760, Note_on_c, 1, 76, 85
3, 50775, Note_on_c, 1, 76, 0
3, 50775, Note_on_c, 1, 78, 85
3, 50790, Note_on_c, 1, 78, 0
3, 50790, Note_on_c, 1, 76, 85
3, 50805, Note_on_c, 1, 76, 0
3, 50805, Note_on_c, 1, 78, 85
3, 50820, Note_on_c, 1, 78, 0
3, 50820, Note_on_c, 1, 74, 85
3, 50850, Note_on_c, 1, 74, 0
3, 50850, Note_on_c, 1, 76, 85
3, 50880, Note_on_c, 1, 76, 0
3, 50880, Note_on_c, 1, 78, 85
3, 50940, Note_on_c, 1, 78, 0
3, 50940, Note_on_c, 1, 73, 85
3, 50985, Note_on_c, 1, 73, 0
3, 51000, Note_on_c, 1, 74, 85
3, 51045, Note_on_c, 1, 74, 0
3, 51060, Note_on_c, 1, 76, 85
3, 51105, Note_on_c, 1, 76, 0
3, 51120, Note_on_c, 1, 78, 85
3, 51165, Note_on_c, 1, 78, 0
3, 51180, Note_on_c, 1, 78, 85
3, 51225, Note_on_c, 1, 78, 0
3, 51240, Note_on_c, 1, 79, 85
3, 51255, Note_on_c, 1, 79, 0
3, 51255, Note_on_c, 1, 81, 86
3, 51270, Note_on_c, 1, 81, 0
3, 51270, Note_on_c, 1, 79, 86
3, 51285, Note_on_c, 1, 79, 0
3, 51285, Note_on_c, 1, 81, 86
3, 51300, Note_on_c, 1, 81, 0
3, 51300, Note_on_c, 1, 78, 86
3, 51330, Note_on_c, 1, 78, 0
3, 51330, Note_on_c, 1, 79, 88
3, 51360, Note_on_c, 1, 79, 0
3, 51360, Note_on_c, 1, 81, 88
3, 51405, Note_on_c, 1, 81, 0
3, 51420, Note_on_c, 1, 81, 88
3, 51465, Note_on_c, 1, 81, 0
3, 51480, Note_on_c, 1, 82, 89
3, 51495, Note_on_c, 1, 82, 0
3, 51495, Note_on_c, 1, 83, 91
3, 51510, Note_on_c, 1, 83, 0
3, 51510, Note_on_c, 1, 82, 91
3, 51525, Note_on_c, 1, 82, 0
3, 51525, Note_on_c, 1, 83, 91
3, 51540, Note_on_c, 1, 83, 0
3, 51540, Note_on_c, 1, 80, 92
3, 51570, Note_on_c, 1, 80, 0
3, 51570, Note_on_c, 1, 82, 94
3, 51600, Note_on_c, 1, 82, 0
3, 51600, Note_on_c, 1, 83, 98
3, 51720, Note_on_c, 1, 83, 0
3, 51840, Note_on_c, 1, 71, 40
3, 52020, Note_on_c, 1, 71, 0
3, 52020, Note_on_c, 1, 76, 47
3, 52065, Note_on_c, 1, 76, 0
3, 52080, Note_on_c, 1, 74, 49
3, 52140, Note_on_c, 1, 74, 0
3, 52140, Note_on_c, 1, 73, 49
3, 52200, Note_on_c, 1, 73, 0
3, 52200, Note_on_c, 1, 71, 43
3, 52260, Note_on_c, 1, 71, 0
3, 52260, Note_on_c, 1, 69, 41
3, 52320, Note_on_c, 1, 69, 0
3, 52320, Note_on_c, 1, 74, 40
3, 52380, Note_on_c, 1, 74, 0
3, 52440, Note_on_c, 1, 78, 59
3, 52500, Note_on_c, 1, 78, 0
3, 52560, Note_on_c, 1, 74, 57
3, 52620, Note_on_c, 1, 74, 0
3, 52800, Note_on_c, 1, 62, 100
3, 52800, Note_on_c, 1, 74, 100
3, 52920, Note_on_c, 1, 74, 0
3, 52920, Note_on_c, 1, 62, 0
3, 52980, Note_on_c, 1, 69, 91
3, 53025, Note_on_c, 1, 69, 0
3, 53040, Note_on_c, 1, 74, 91
3, 53160, Note_on_c, 1, 74, 0
3, 53220, Note_on_c, 1, 69, 91
3, 53265, Note_on_c, 1, 69, 0
3, 53280, Note_on_c, 1, 74, 91
3, 53325, Note_on_c, 1, 74, 0
3, 53340, Note_on_c, 1, 69, 91
3, 53385, Note_on_c, 1, 69, 0
3, 53400, Note_on_c, 1, 74, 91
3, 53445, Note_on_c, 1, 74, 0
3, 53460, Note_on_c, 1, 78, 91
3, 53505, Note_on_c, 1, 78, 0
3, 53520, Note_on_c, 1, 81, 91
3, 53640, Note_on_c, 1, 81, 0
3, 53760, Note_on_c, 1, 81, 91
3, 53880, Note_on_c, 1, 81, 0
3, 53940, Note_on_c, 1, 78, 91
3, 53985, Note_on_c, 1, 78, 0
3, 54000, Note_on_c, 1, 81, 91
3, 54120, Note_on_c, 1, 81, 0
3, 54180, Note_on_c, 1, 78, 91
3, 54225, Note_on_c, 1, 78, 0
3, 54240, Note_on_c, 1, 81, 91
3, 54285, Note_on_c, 1, 81, 0
3, 54300, Note_on_c, 1, 78, 91
3, 54345, Note_on_c, 1, 78, 0
3, 54360, Note_on_c, 1, 75, 91
3, 54405, Note_on_c, 1, 75, 0
3, 54420, Note_on_c, 1, 78, 91
3, 54465, Note_on_c, 1, 78, 0
3, 54480, Note_on_c, 1, 71, 91
3, 54600, Note_on_c, 1, 71, 0
3, 54900, Note_on_c, 1, 79, 55
3, 54945, Note_on_c, 1, 79, 0
3, 54960, Note_on_c, 1, 84, 55
3, 55020, Note_on_c, 1, 84, 0
3, 55020, Note_on_c, 1, 83, 55
3, 55080, Note_on_c, 1, 83, 0
3, 55080, Note_on_c, 1, 81, 55
3, 55140, Note_on_c, 1, 81, 0
3, 55140, Note_on_c, 1, 79, 55
3, 55200, Note_on_c, 1, 79, 0
3, 55200, Note_on_c, 1, 81, 55
3, 55215, Note_on_c, 1, 81, 0
3, 55215, Note_on_c, 1, 83, 55
3, 55230, Note_on_c, 1, 83, 0
3, 55230, Note_on_c, 1, 81, 55
3, 55245, Note_on_c, 1, 81, 0
3, 55245, Note_on_c, 1, 83, 55
3, 55260, Note_on_c, 1, 83, 0
3, 55260, Note_on_c, 1, 79, 55
3, 55320, Note_on_c, 1, 79, 0
3, 55380, Note_on_c, 1, 79, 55
3, 55410, Note_on_c, 1, 79, 0
3, 55440, Note_on_c, 1, 79, 55
3, 55470, Note_on_c, 1, 79, 0
3, 55500, Note_on_c, 1, 79, 55
3, 55530, Note_on_c, 1, 79, 0
3, 55560, Note_on_c, 1, 79, 55
3, 55590, Note_on_c, 1, 79, 0
3, 55620, Note_on_c, 1, 79, 55
3, 55650, Note_on_c, 1, 79, 0
3, 55680, Note_on_c, 1, 81, 55
3, 55695, Note_on_c, 1, 81, 0
3, 55695, Note_on_c, 1, 83, 55
3, 55710, Note_on_c, 1, 83, 0
3, 55710, Note_on_c, 1, 81, 55
3, 55725, Note_on_c, 1, 81, 0
3, 55725, Note_on_c, 1, 83, 55
3, 55740, Note_on_c, 1, 83, 0
3, 55740, Note_on_c, 1, 79, 55
3, 55800, Note_on_c, 1, 79, 0
3, 55860, Note_on_c, 1, 79, 55
3, 55905, Note_on_c, 1, 79, 0
3, 55920, Note_on_c, 1, 84, 55
3, 55980, Note_on_c, 1, 84, 0
3, 55980, Note_on_c, 1, 83, 55
3, 56040, Note_on_c, 1, 83, 0
3, 56040, Note_on_c, 1, 81, 55
3, 56100, Note_on_c, 1, 81, 0
3, 56100, Note_on_c, 1, 79, 55
3, 56160, Note_on_c, 1, 79, 0
3, 56160, Note_on_c, 1, 81, 55
3, 56175, Note_on_c, 1, 81, 0
3, 56175, Note_on_c, 1, 83, 55
3, 56190, Note_on_c, 1, 83, 0
3, 56190, Note_on_c, 1, 81, 55
3, 56205, Note_on_c, 1, 81, 0
3, 56205, Note_on_c, 1, 83, 55
3, 56220, Note_on_c, 1, 83, 0
3, 56220, Note_on_c, 1, 79, 55
3, 56280, Note_on_c, 1, 79, 0
3, 56340, Note_on_c, 1, 79, 55
3, 56370, Note_on_c, 1, 79, 0
3, 56400, Note_on_c, 1, 79, 55
3, 56430, Note_on_c, 1, 79, 0
3, 56460, Note_on_c, 1, 79, 55
3, 56490, Note_on_c, 1, 79, 0
3, 56520, Note_on_c, 1, 79, 55
3, 56550, Note_on_c, 1, 79, 0
3, 56580, Note_on_c, 1, 79, 55
3, 56610, Note_on_c, 1, 79, 0
3, 56640, Note_on_c, 1, 81, 55
3, 56655, Note_on_c, 1, 81, 0
3, 56655, Note_on_c, 1, 83, 55
3, 56670, Note_on_c, 1, 83, 0
3, 56670, Note_on_c, 1, 81, 55
3, 56685, Note_on_c, 1, 81, 0
3, 56685, Note_on_c, 1, 83, 55
3, 56700, Note_on_c, 1, 83, 0
3, 56700, Note_on_c, 1, 79, 55
3, 56760, Note_on_c, 1, 79, 0
3, 56820, Note_on_c, 1, 79, 55
3, 56865, Note_on_c, 1, 79, 0
3, 56880, Note_on_c, 1, 84, 55
3, 56940, Note_on_c, 1, 84, 0
3, 56940, Note_on_c, 1, 83, 55
3, 57000, Note_on_c, 1, 83, 0
3, 57000, Note_on_c, 1, 81, 55
3, 57060, Note_on_c, 1, 81, 0
3, 57060, Note_on_c, 1, 79, 55
3, 57120, Note_on_c, 1, 79, 0
3, 57120, Note_on_c, 1, 81, 55
3, 57135, Note_on_c, 1, 81, 0
3, 57135, Note_on_c, 1, 83, 55
3, 57150, Note_on_c, 1, 83, 0
3, 57150, Note_on_c, 1, 81, 55
3, 57165, Note_on_c, 1, 81, 0
3, 57165, Note_on_c, 1, 83, 55
3, 57180, Note_on_c, 1, 83, 0
3, 57180, Note_on_c, 1, 80, 55
3, 57240, Note_on_c, 1, 80, 0
3, 57300, Note_on_c, 1, 80, 55
3, 57330, Note_on_c, 1, 80, 0
3, 57360, Note_on_c, 1, 80, 55
3, 57390, Note_on_c, 1, 80, 0
3, 57420, Note_on_c, 1, 80, 55
3, 57450, Note_on_c, 1, 80, 0
3, 57480, Note_on_c, 1, 80, 55
3, 57510, Note_on_c, 1, 80, 0
3, 57540, Note_on_c, 1, 80, 55
3, 57570, Note_on_c, 1, 80, 0
3, 57600, Note_on_c, 1, 83, 55
3, 57615, Note_on_c, 1, 83, 0
3, 57615, Note_on_c, 1, 84, 55
3, 57630, Note_on_c, 1, 84, 0
3, 57630, Note_on_c, 1, 83, 55
3, 57645, Note_on_c, 1, 83, 0
3, 57645, Note_on_c, 1, 84, 55
3, 57660, Note_on_c, 1, 84, 0
3, 57660, Note_on_c, 1, 81, 55
3, 57720, Note_on_c, 1, 81, 0
3, 57780, Note_on_c, 1, 81, 55
3, 57825, Note_on_c, 1, 81, 0
3, 57840, Note_on_c, 1, 84, 55
3, 57900, Note_on_c, 1, 84, 0
3, 57900, Note_on_c, 1, 82, 55
3, 57960, Note_on_c, 1, 82, 0
3, 57960, Note_on_c, 1, 81, 55
3, 58020, Note_on_c, 1, 81, 0
3, 58020, Note_on_c, 1, 79, 55
3, 58080, Note_on_c, 1, 79, 0
3, 58080, Note_on_c, 1, 79, 55
3, 58095, Note_on_c, 1, 79, 0
3, 58095, Note_on_c, 1, 81, 55
3, 58110, Note_on_c, 1, 81, 0
3, 58110, Note_on_c, 1, 79, 55
3, 58125, Note_on_c, 1, 79, 0
3, 58125, Note_on_c, 1, 81, 55
3, 58140, Note_on_c, 1, 81, 0
3, 58140, Note_on_c, 1, 78, 55
3, 58200, Note_on_c, 1, 78, 0
3, 58260, Note_on_c, 1, 78, 55
3, 58290, Note_on_c, 1, 78, 0
3, 58320, Note_on_c, 1, 78, 55
3, 58350, Note_on_c, 1, 78, 0
3, 58380, Note_on_c, 1, 78, 55
3, 58410, Note_on_c, 1, 78, 0
3, 58440, Note_on_c, 1, 78, 55
3, 58470, Note_on_c, 1, 78, 0
3, 58500, Note_on_c, 1, 78, 55
3, 58530, Note_on_c, 1, 78, 0
3, 58560, Note_on_c, 1, 81, 55
3, 58575, Note_on_c, 1, 81, 0
3, 58575, Note_on_c, 1, 82, 55
3, 58590, Note_on_c, 1, 82, 0
3, 58590, Note_on_c, 1, 81, 55
3, 58605, Note_on_c, 1, 81, 0
3, 58605, Note_on_c, 1, 82, 55
3, 58620, Note_on_c, 1, 82, 0
3, 58620, Note_on_c, 1, 79, 55
3, 58680, Note_on_c, 1, 79, 0
3, 58740, Note_on_c, 1, 75, 55
3, 58785, Note_on_c, 1, 75, 0
3, 58800, Note_on_c, 1, 79, 55
3, 58860, Note_on_c, 1, 79, 0
3, 58860, Note_on_c, 1, 77, 55
3, 58920, Note_on_c, 1, 77, 0
3, 58920, Note_on_c, 1, 76, 55
3, 58980, Note_on_c, 1, 76, 0
3, 58980, Note_on_c, 1, 74, 55
3, 59040, Note_on_c, 1, 74, 0
3, 59040, Note_on_c, 1, 74, 55
3, 59055, Note_on_c, 1, 74, 0
3, 59055, Note_on_c, 1, 75, 55
3, 59070, Note_on_c, 1, 75, 0
3, 59070, Note_on_c, 1, 74, 55
3, 59085, Note_on_c, 1, 74, 0
3, 59085, Note_on_c, 1, 75, 55
3, 59100, Note_on_c, 1, 75, 0
3, 59100, Note_on_c, 1, 73, 55
3, 59160, Note_on_c, 1, 73, 0
3, 59220, Note_on_c, 1, 73, 55
3, 59250, Note_on_c, 1, 73, 0
3, 59280, Note_on_c, 1, 73, 55
3, 59310, Note_on_c, 1, 73, 0
3, 59340, Note_on_c, 1, 73, 55
3, 59370, Note_on_c, 1, 73, 0
3, 59400, Note_on_c, 1, 73, 55
3, 59430, Note_on_c, 1, 73, 0
3, 59460, Note_on_c, 1, 73, 55
3, 59490, Note_on_c, 1, 73, 0
3, 59520, Note_on_c, 1, 76, 53
3, 59535, Note_on_c, 1, 76, 0
3, 59535, Note_on_c, 1, 78, 53
3, 59550, Note_on_c, 1, 78, 0
3, 59550, Note_on_c, 1, 76, 53
3, 59565, Note_on_c, 1, 76, 0
3, 59565, Note_on_c, 1, 78, 53
3, 59580, Note_on_c, 1, 78, 0
3, 59580, Note_on_c, 1, 74, 53
3, 59640, Note_on_c, 1, 74, 0
3, 59700, Note_on_c, 1, 62, 91
3, 59760, Note_on_c, 1, 62, 0
3, 59760, Note_on_c, 1, 64, 91
3, 59820, Note_on_c, 1, 64, 0
3, 59820, Note_on_c, 1, 66, 91
3, 59880, Note_on_c, 1, 66, 0
3, 59880, Note_on_c, 1, 67, 91
3, 59940, Note_on_c, 1, 67, 0
3, 59940, Note_on_c, 1, 69, 91
3, 60000, Note_on_c, 1, 69, 0
3, 60000, Note_on_c, 1, 72, 91
3, 60060, Note_on_c, 1, 72, 0
3, 60060, Note_on_c, 1, 70, 91
3, 60120, Note_on_c, 1, 70, 0
3, 60180, Note_on_c, 1, 66, 91
3, 60240, Note_on_c, 1, 66, 0
3, 60240, Note_on_c, 1, 67, 91
3, 60300, Note_on_c, 1, 67, 0
3, 60300, Note_on_c, 1, 69, 91
3, 60360, Note_on_c, 1, 69, 0
3, 60360, Note_on_c, 1, 70, 91
3, 60420, Note_on_c, 1, 70, 0
3, 60420, Note_on_c, 1, 73, 91
3, 60480, Note_on_c, 1, 73, 0
3, 60480, Note_on_c, 1, 76, 91
3, 60540, Note_on_c, 1, 76, 0
3, 60540, Note_on_c, 1, 74, 91
3, 60600, Note_on_c, 1, 74, 0
3, 60660, Note_on_c, 1, 74, 53
3, 60720, Note_on_c, 1, 74, 0
3, 60720, Note_on_c, 1, 76, 53
3, 60780, Note_on_c, 1, 76, 0
3, 60780, Note_on_c, 1, 78, 53
3, 60840, Note_on_c, 1, 78, 0
3, 60840, Note_on_c, 1, 79, 53
3, 60900, Note_on_c, 1, 79, 0
3, 60900, Note_on_c, 1, 81, 52
3, 60960, Note_on_c, 1, 81, 0
3, 60960, Note_on_c, 1, 82, 50
3, 61080, Note_on_c, 1, 82, 0
3, 61080, Note_on_c, 1, 83, 46
3, 61200, Note_on_c, 1, 83, 0
3, 61200, Note_on_c, 1, 84, 43
3, 61320, Note_on_c, 1, 84, 0
3, 61320, Note_on_c, 1, 85, 40
3, 61440, Note_on_c, 1, 85, 0
3, 61440, Note_on_c, 1, 86, 59
3, 62145, Note_on_c, 1, 86, 0
3, 62160, Note_on_c, 1, 78, 52
3, 62175, Note_on_c, 1, 78, 0
3, 62175, Note_on_c, 1, 79, 53
3, 62190, Note_on_c, 1, 79, 0
3, 62190, Note_on_c, 1, 78, 55
3, 62205, Note_on_c, 1, 78, 0
3, 62205, Note_on_c, 1, 79, 58
3, 62220, Note_on_c, 1, 79, 0
3, 62220, Note_on_c, 1, 78, 59
3, 62235, Note_on_c, 1, 78, 0
3, 62235, Note_on_c, 1, 79, 61
3, 62250, Note_on_c, 1, 79, 0
3, 62250, Note_on_c, 1, 78, 62
3, 62265, Note_on_c, 1, 78, 0
3, 62265, Note_on_c, 1, 79, 65
3, 62280, Note_on_c, 1, 79, 0
3, 62280, Note_on_c, 1, 78, 67
3, 62295, Note_on_c, 1, 78, 0
3, 62295, Note_on_c, 1, 79, 68
3, 62310, Note_on_c, 1, 79, 0
3, 62310, Note_on_c, 1, 78, 70
3, 62325, Note_on_c, 1, 78, 0
3, 62325, Note_on_c, 1, 79, 71
3, 62340, Note_on_c, 1, 79, 0
3, 62340, Note_on_c, 1, 76, 74
3, 62370, Note_on_c, 1, 76, 0
3, 62370, Note_on_c, 1, 78, 77
3, 62400, Note_on_c, 1, 78, 0
3, 62400, Note_on_c, 1, 79, 93
3, 62520, Note_on_c, 1, 79, 0
3, 62580, Note_on_c, 1, 74, 92
3, 62610, Note_on_c, 1, 74, 0
3, 62640, Note_on_c, 1, 79, 92
3, 62760, Note_on_c, 1, 79, 0
3, 62820, Note_on_c, 1, 74, 91
3, 62850, Note_on_c, 1, 74, 0
3, 62880, Note_on_c, 1, 79, 90
3, 62910, Note_on_c, 1, 79, 0
3, 62940, Note_on_c, 1, 74, 90
3, 62970, Note_on_c, 1, 74, 0
3, 63000, Note_on_c, 1, 79, 90
3, 63030, Note_on_c, 1, 79, 0
3, 63060, Note_on_c, 1, 83, 90
3, 63090, Note_on_c, 1, 83, 0
3, 63120, Note_on_c, 1, 86, 89
3, 63240, Note_on_c, 1, 86, 0
3, 63360, Note_on_c, 1, 84, 104
3, 63480, Note_on_c, 1, 84, 0
3, 63540, Note_on_c, 1, 81, 87
3, 63570, Note_on_c, 1, 81, 0
3, 63600, Note_on_c, 1, 84, 86
3, 63720, Note_on_c, 1, 84, 0
3, 63780, Note_on_c, 1, 81, 85
3, 63810, Note_on_c, 1, 81, 0
3, 63840, Note_on_c, 1, 84, 92
3, 63870, Note_on_c, 1, 84, 0
3, 63900, Note_on_c, 1, 81, 85
3, 63930, Note_on_c, 1, 81, 0
3, 63960, Note_on_c, 1, 78, 92
3, 63990, Note_on_c, 1, 78, 0
3, 64020, Note_on_c, 1, 81, 85
3, 64050, Note_on_c, 1, 81, 0
3, 64080, Note_on_c, 1, 74, 94
3, 64200, Note_on_c, 1, 74, 0
3, 64320, Note_on_c, 1, 62, 92
3, 64320, Note_on_c, 1, 79, 92
3, 64320, Note_on_c, 1, 71, 92
3, 64380, Note_on_c, 1, 71, 0
3, 64380, Note_on_c, 1, 79, 0
3, 64380, Note_on_c, 1, 62, 0
3, 64440, Note_on_c, 1, 79, 85
3, 64620, Note_on_c, 1, 79, 0
3, 64620, Note_on_c, 1, 83, 74
3, 64680, Note_on_c, 1, 83, 0
3, 64680, Note_on_c, 1, 81, 74
3, 64710, Note_on_c, 1, 81, 0
3, 64740, Note_on_c, 1, 79, 80
3, 64770, Note_on_c, 1, 79, 0
3, 64800, Note_on_c, 1, 79, 86
3, 64815, Note_on_c, 1, 79, 0
3, 64815, Note_on_c, 1, 81, 86
3, 64830, Note_on_c, 1, 81, 0
3, 64830, Note_on_c, 1, 79, 86
3, 64845, Note_on_c, 1, 79, 0
3, 64845, Note_on_c, 1, 81, 86
3, 64860, Note_on_c, 1, 81, 0
3, 64860, Note_on_c, 1, 78, 83
3, 64910, Note_on_c, 1, 78, 0
3, 64920, Note_on_c, 1, 78, 77
3, 65100, Note_on_c, 1, 78, 0
3, 65100, Note_on_c, 1, 81, 85
3, 65160, Note_on_c, 1, 81, 0
3, 65160, Note_on_c, 1, 84, 85
3, 65190, Note_on_c, 1, 84, 0
3, 65220, Note_on_c, 1, 78, 85
3, 65250, Note_on_c, 1, 78, 0
3, 65280, Note_on_c, 1, 81, 85
3, 65340, Note_on_c, 1, 81, 0
3, 65340, Note_on_c, 1, 79, 85
3, 65370, Note_on_c, 1, 79, 0
3, 65400, Note_on_c, 1, 79, 85
3, 65580, Note_on_c, 1, 79, 0
3, 65580, Note_on_c, 1, 83, 85
3, 65640, Note_on_c, 1, 83, 0
3, 65640, Note_on_c, 1, 81, 85
3, 65670, Note_on_c, 1, 81, 0
3, 65700, Note_on_c, 1, 79, 85
3, 65730, Note_on_c, 1, 79, 0
3, 65760, Note_on_c, 1, 79, 85
3, 65775, Note_on_c, 1, 79, 0
3, 65775, Note_on_c, 1, 81, 85
3, 65790, Note_on_c, 1, 81, 0
3, 65790, Note_on_c, 1, 79, 85
3, 65805, Note_on_c, 1, 79, 0
3, 65805, Note_on_c, 1, 81, 85
3, 65820, Note_on_c, 1, 81, 0
3, 65820, Note_on_c, 1, 78, 85
3, 65870, Note_on_c, 1, 78, 0
3, 65880, Note_on_c, 1, 78, 85
3, 66060, Note_on_c, 1, 78, 0
3, 66060, Note_on_c, 1, 81, 85
3, 66120, Note_on_c, 1, 81, 0
3, 66120, Note_on_c, 1, 84, 85
3, 66150, Note_on_c, 1, 84, 0
3, 66180, Note_on_c, 1, 78, 85
3, 66210, Note_on_c, 1, 78, 0
3, 66240, Note_on_c, 1, 79, 85
3, 66270, Note_on_c, 1, 79, 0
3, 66300, Note_on_c, 1, 79, 85
3, 66330, Note_on_c, 1, 79, 0
3, 66360, Note_on_c, 1, 79, 85
3, 66390, Note_on_c, 1, 79, 0
3, 66390, Note_on_c, 1, 78, 85
3, 66420, Note_on_c, 1, 78, 0
3, 66420, Note_on_c, 1, 76, 85
3, 66450, Note_on_c, 1, 76, 0
3, 66450, Note_on_c, 1, 78, 85
3, 66480, Note_on_c, 1, 78, 0
3, 66480, Note_on_c, 1, 79, 85
3, 66510, Note_on_c, 1, 79, 0
3, 66540, Note_on_c, 1, 79, 85
3, 66570, Note_on_c, 1, 79, 0
3, 66600, Note_on_c, 1, 83, 85
3, 66630, Note_on_c, 1, 83, 0
3, 66630, Note_on_c, 1, 81, 85
3, 66660, Note_on_c, 1, 81, 0
3, 66660, Note_on_c, 1, 79, 85
3, 66690, Note_on_c, 1, 79, 0
3, 66690, Note_on_c, 1, 81, 83
3, 66720, Note_on_c, 1, 81, 0
3, 66720, Note_on_c, 1, 83, 83
3, 66750, Note_on_c, 1, 83, 0
3, 66780, Note_on_c, 1, 83, 83
3, 66810, Note_on_c, 1, 83, 0
3, 66840, Note_on_c, 1, 86, 83
3, 66870, Note_on_c, 1, 86, 0
3, 66870, Note_on_c, 1, 84, 80
3, 66900, Note_on_c, 1, 84, 0
3, 66900, Note_on_c, 1, 83, 79
3, 66930, Note_on_c, 1, 83, 0
3, 66930, Note_on_c, 1, 84, 76
3, 66960, Note_on_c, 1, 84, 0
3, 66960, Note_on_c, 1, 86, 71
3, 67080, Note_on_c, 1, 86, 0
3, 67200, Note_on_c, 1, 74, 56
3, 67440, Note_on_c, 1, 74, 0
3, 67440, Note_on_c, 1, 76, 55
3, 67680, Note_on_c, 1, 76, 0
3, 67680, Note_on_c, 1, 74, 57
3, 67710, Note_on_c, 1, 74, 0
3, 67710, Note_on_c, 1, 72, 59
3, 67790, Note_on_c, 1, 72, 0
3, 67800, Note_on_c, 1, 72, 58
3, 67920, Note_on_c, 1, 72, 0
3, 67920, Note_on_c, 1, 72, 57
3, 67950, Note_on_c, 1, 72, 0
3, 67950, Note_on_c, 1, 71, 55
3, 68030, Note_on_c, 1, 71, 0
3, 68040, Note_on_c, 1, 71, 53
3, 68160, Note_on_c, 1, 71, 0
3, 68160, Note_on_c, 1, 71, 57
3, 68190, Note_on_c, 1, 71, 0
3, 68190, Note_on_c, 1, 69, 56
3, 68270, Note_on_c, 1, 69, 0
3, 68280, Note_on_c, 1, 69, 55
3, 68400, Note_on_c, 1, 69, 0
3, 68400, Note_on_c, 1, 67, 54
3, 68460, Note_on_c, 1, 67, 0
3, 68460, Note_on_c, 1, 66, 55
3, 68490, Note_on_c, 1, 66, 0
3, 68520, Note_on_c, 1, 64, 55
3, 68550, Note_on_c, 1, 64, 0
3, 68580, Note_on_c, 1, 66, 55
3, 68610, Note_on_c, 1, 66, 0
3, 68640, Note_on_c, 1, 67, 56
3, 68700, Note_on_c, 1, 67, 0
3, 68760, Note_on_c, 1, 69, 57
3, 68820, Note_on_c, 1, 69, 0
3, 68880, Note_on_c, 1, 71, 57
3, 68940, Note_on_c, 1, 71, 0
3, 69120, Note_on_c, 1, 74, 56
3, 69360, Note_on_c, 1, 74, 0
3, 69360, Note_on_c, 1, 76, 59
3, 69600, Note_on_c, 1, 76, 0
3, 69600, Note_on_c, 1, 74, 46
3, 69660, Note_on_c, 1, 74, 0
3, 69660, Note_on_c, 1, 72, 51
3, 69690, Note_on_c, 1, 72, 0
3, 69720, Note_on_c, 1, 72, 51
3, 69750, Note_on_c, 1, 72, 0
3, 69780, Note_on_c, 1, 72, 51
3, 69810, Note_on_c, 1, 72, 0
3, 69840, Note_on_c, 1, 72, 51
3, 69900, Note_on_c, 1, 72, 0
3, 69900, Note_on_c, 1, 71, 50
3, 69930, Note_on_c, 1, 71, 0
3, 69960, Note_on_c, 1, 71, 49
3, 69990, Note_on_c, 1, 71, 0
3, 70020, Note_on_c, 1, 71, 49
3, 70050, Note_on_c, 1, 71, 0
3, 70080, Note_on_c, 1, 71, 49
3, 70140, Note_on_c, 1, 71, 0
3, 70140, Note_on_c, 1, 69, 50
3, 70170, Note_on_c, 1, 69, 0
3, 70200, Note_on_c, 1, 69, 52
3, 70245, Note_on_c, 1, 69, 0
3, 70260, Note_on_c, 1, 69, 52
3, 70305, Note_on_c, 1, 69, 0
3, 70320, Note_on_c, 1, 67, 52
3, 70380, Note_on_c, 1, 67, 0
3, 70380, Note_on_c, 1, 66, 54
3, 70440, Note_on_c, 1, 66, 0
3, 70440, Note_on_c, 1, 64, 55
3, 70500, Note_on_c, 1, 64, 0
3, 70500, Note_on_c, 1, 66, 55
3, 70560, Note_on_c, 1, 66, 0
3, 70560, Note_on_c, 1, 55, 85
3, 70560, Note_on_c, 1, 67, 85
3, 70860, Note_on_c, 1, 67, 0
3, 70860, Note_on_c, 1, 55, 0
3, 70860, Note_on_c, 1, 67, 61
3, 70875, Note_on_c, 1, 67, 0
3, 70875, Note_on_c, 1, 69, 61
3, 70890, Note_on_c, 1, 69, 0
3, 70890, Note_on_c, 1, 66, 61
3, 70905, Note_on_c, 1, 66, 0
3, 70905, Note_on_c, 1, 67, 61
3, 70920, Note_on_c, 1, 67, 0
3, 70920, Note_on_c, 1, 69, 61
3, 70980, Note_on_c, 1, 69, 0
3, 70980, Note_on_c, 1, 66, 61
3, 71040, Note_on_c, 1, 66, 0
3, 71040, Note_on_c, 1, 71, 91
3, 71340, Note_on_c, 1, 71, 0
3, 71340, Note_on_c, 1, 71, 61
3, 71355, Note_on_c, 1, 71, 0
3, 71355, Note_on_c, 1, 72, 61
3, 71370, Note_on_c, 1, 72, 0
3, 71370, Note_on_c, 1, 69, 61
3, 71385, Note_on_c, 1, 69, 0
3, 71385, Note_on_c, 1, 71, 61
3, 71400, Note_on_c, 1, 71, 0
3, 71400, Note_on_c, 1, 72, 61
3, 71460, Note_on_c, 1, 72, 0
3, 71460, Note_on_c, 1, 69, 61
3, 71520, Note_on_c, 1, 69, 0
3, 71520, Note_on_c, 1, 74, 51
3, 71540, Note_on_c, 1, 74, 0
3, 71550, Note_on_c, 1, 74, 56
3, 71570, Note_on_c, 1, 74, 0
3, 71580, Note_on_c, 1, 74, 59
3, 71600, Note_on_c, 1, 74, 0
3, 71610, Note_on_c, 1, 74, 56
3, 71630, Note_on_c, 1, 74, 0
3, 71640, Note_on_c, 1, 74, 56
3, 71660, Note_on_c, 1, 74, 0
3, 71670, Note_on_c, 1, 74, 56
3, 71690, Note_on_c, 1, 74, 0
3, 71700, Note_on_c, 1, 74, 56
3, 71720, Note_on_c, 1, 74, 0
3, 71730, Note_on_c, 1, 74, 56
3, 71750, Note_on_c, 1, 74, 0
3, 71760, Note_on_c, 1, 76, 56
3, 71780, Note_on_c, 1, 76, 0
3, 71790, Note_on_c, 1, 76, 56
3, 71810, Note_on_c, 1, 76, 0
3, 71820, Note_on_c, 1, 76, 56
3, 71840, Note_on_c, 1, 76, 0
3, 71850, Note_on_c, 1, 76, 56
3, 71870, Note_on_c, 1, 76, 0
3, 71880, Note_on_c, 1, 78, 56
3, 71900, Note_on_c, 1, 78, 0
3, 71910, Note_on_c, 1, 78, 56
3, 71930, Note_on_c, 1, 78, 0
3, 71940, Note_on_c, 1, 78, 57
3, 71960, Note_on_c, 1, 78, 0
3, 71970, Note_on_c, 1, 78, 59
3, 71990, Note_on_c, 1, 78, 0
3, 72000, Note_on_c, 1, 79, 62
3, 72020, Note_on_c, 1, 79, 0
3, 72030, Note_on_c, 1, 79, 65
3, 72050, Note_on_c, 1, 79, 0
3, 72060, Note_on_c, 1, 79, 66
3, 72080, Note_on_c, 1, 79, 0
3, 72090, Note_on_c, 1, 79, 66
3, 72110, Note_on_c, 1, 79, 0
3, 72120, Note_on_c, 1, 81, 66
3, 72140, Note_on_c, 1, 81, 0
3, 72150, Note_on_c, 1, 81, 66
3, 72170, Note_on_c, 1, 81, 0
3, 72180, Note_on_c, 1, 81, 66
3, 72200, Note_on_c, 1, 81, 0
3, 72210, Note_on_c, 1, 81, 68
3, 72230, Note_on_c, 1, 81, 0
3, 72240, Note_on_c, 1, 83, 68
3, 72260, Note_on_c, 1, 83, 0
3, 72270, Note_on_c, 1, 83, 70
3, 72290, Note_on_c, 1, 83, 0
3, 72300, Note_on_c, 1, 83, 70
3, 72320, Note_on_c, 1, 83, 0
3, 72330, Note_on_c, 1, 83, 71
3, 72350, Note_on_c, 1, 83, 0
3, 72360, Note_on_c, 1, 85, 71
3, 72380, Note_on_c, 1, 85, 0
3, 72390, Note_on_c, 1, 85, 73
3, 72410, Note_on_c, 1, 85, 0
3, 72420, Note_on_c, 1, 85, 74
3, 72440, Note_on_c, 1, 85, 0
3, 72450, Note_on_c, 1, 85, 74
3, 72470, Note_on_c, 1, 85, 0
3, 72480, Note_on_c, 1, 86, 85
3, 72660, Note_on_c, 1, 86, 0
3, 72660, Note_on_c, 1, 81, 85
3, 72720, Note_on_c, 1, 81, 0
3, 72720, Note_on_c, 1, 85, 85
3, 72810, Note_on_c, 1, 85, 0
3, 72810, Note_on_c, 1, 81, 85
3, 72840, Note_on_c, 1, 81, 0
3, 72840, Note_on_c, 1, 85, 85
3, 72930, Note_on_c, 1, 85, 0
3, 72930, Note_on_c, 1, 81, 85
3, 72960, Note_on_c, 1, 81, 0
3, 72960, Note_on_c, 1, 86, 85
3, 73140, Note_on_c, 1, 86, 0
3, 73140, Note_on_c, 1, 81, 85
3, 73200, Note_on_c, 1, 81, 0
3, 73200, Note_on_c, 1, 85, 85
3, 73290, Note_on_c, 1, 85, 0
3, 73290, Note_on_c, 1, 81, 85
3, 73320, Note_on_c, 1, 81, 0
3, 73320, Note_on_c, 1, 85, 85
3, 73410, Note_on_c, 1, 85, 0
3, 73410, Note_on_c, 1, 81, 85
3, 73440, Note_on_c, 1, 81, 0
3, 73440, Note_on_c, 1, 86, 100
3, 73470, Note_on_c, 1, 86, 0
3, 73500, Note_on_c, 1, 81, 100
3, 73530, Note_on_c, 1, 81, 0
3, 73560, Note_on_c, 1, 85, 100
3, 73590, Note_on_c, 1, 85, 0
3, 73620, Note_on_c, 1, 81, 100
3, 73650, Note_on_c, 1, 81, 0
3, 73680, Note_on_c, 1, 86, 100
3, 73710, Note_on_c, 1, 86, 0
3, 73740, Note_on_c, 1, 81, 100
3, 73770, Note_on_c, 1, 81, 0
3, 73800, Note_on_c, 1, 85, 100
3, 73830, Note_on_c, 1, 85, 0
3, 73860, Note_on_c, 1, 81, 100
3, 73890, Note_on_c, 1, 81, 0
3, 73920, Note_on_c, 1, 86, 85
3, 73965, Note_on_c, 1, 86, 0
3, 73980, Note_on_c, 1, 62, 85
3, 74025, Note_on_c, 1, 62, 0
3, 74040, Note_on_c, 1, 62, 85
3, 74085, Note_on_c, 1, 62, 0
3, 74100, Note_on_c, 1, 62, 85
3, 74145, Note_on_c, 1, 62, 0
3, 74160, Note_on_c, 1, 62, 85
3, 74280, Note_on_c, 1, 62, 0
3, 74400, Note_on_c, 1, 74, 46
3, 74580, Note_on_c, 1, 74, 0
3, 74580, Note_on_c, 1, 72, 47
3, 74600, Note_on_c, 1, 72, 0
3, 74600, Note_on_c, 1, 71, 47
3, 74620, Note_on_c, 1, 71, 0
3, 74620, Note_on_c, 1, 69, 47
3, 74640, Note_on_c, 1, 69, 0
3, 74640, Note_on_c, 1, 67, 47
3, 74700, Note_on_c, 1, 67, 0
3, 74760, Note_on_c, 1, 76, 47
3, 74820, Note_on_c, 1, 76, 0
3, 74880, Note_on_c, 1, 72, 46
3, 74940, Note_on_c, 1, 72, 0
3, 75000, Note_on_c, 1, 69, 43
3, 75060, Note_on_c, 1, 69, 0
3, 75120, Note_on_c, 1, 74, 59
3, 75180, Note_on_c, 1, 74, 0
3, 75360, Note_on_c, 1, 83, 55
3, 75540, Note_on_c, 1, 83, 0
3, 75540, Note_on_c, 1, 81, 55
3, 75560, Note_on_c, 1, 81, 0
3, 75560, Note_on_c, 1, 79, 55
3, 75580, Note_on_c, 1, 79, 0
3, 75580, Note_on_c, 1, 78, 55
3, 75600, Note_on_c, 1, 78, 0
3, 75600, Note_on_c, 1, 76, 55
3, 75660, Note_on_c, 1, 76, 0
3, 75720, Note_on_c, 1, 84, 55
3, 75780, Note_on_c, 1, 84, 0
3, 75840, Note_on_c, 1, 83, 55
3, 76080, Note_on_c, 1, 83, 0
3, 76080, Note_on_c, 1, 81, 47
3, 76200, Note_on_c, 1, 81, 0
3, 76380, Note_on_c, 1, 86, 55
3, 76410, Note_on_c, 1, 86, 0
3, 76440, Note_on_c, 1, 86, 55
3, 76470, Note_on_c, 1, 86, 0
3, 76500, Note_on_c, 1, 86, 55
3, 76530, Note_on_c, 1, 86, 0
3, 76560, Note_on_c, 1, 86, 55
3, 76590, Note_on_c, 1, 86, 0
3, 76620, Note_on_c, 1, 86, 55
3, 76650, Note_on_c, 1, 86, 0
3, 76680, Note_on_c, 1, 86, 55
3, 76710, Note_on_c, 1, 86, 0
3, 76740, Note_on_c, 1, 86, 55
3, 76770, Note_on_c, 1, 86, 0
3, 76800, Note_on_c, 1, 86, 55
3, 76830, Note_on_c, 1, 86, 0
3, 76860, Note_on_c, 1, 86, 55
3, 76890, Note_on_c, 1, 86, 0
3, 76920, Note_on_c, 1, 86, 55
3, 76950, Note_on_c, 1, 86, 0
3, 76980, Note_on_c, 1, 86, 55
3, 77010, Note_on_c, 1, 86, 0
3, 77040, Note_on_c, 1, 86, 55
3, 77100, Note_on_c, 1, 86, 0
3, 77100, Note_on_c, 1, 84, 55
3, 77160, Note_on_c, 1, 84, 0
3, 77160, Note_on_c, 1, 79, 55
3, 77220, Note_on_c, 1, 79, 0
3, 77220, Note_on_c, 1, 78, 55
3, 77280, Note_on_c, 1, 78, 0
3, 77280, Note_on_c, 1, 78, 55
3, 77340, Note_on_c, 1, 78, 0
3, 77340, Note_on_c, 1, 79, 65
3, 77400, Note_on_c, 1, 79, 0
3, 77460, Note_on_c, 1, 76, 55
3, 77490, Note_on_c, 1, 76, 0
3, 77520, Note_on_c, 1, 76, 55
3, 77580, Note_on_c, 1, 76, 0
3, 77580, Note_on_c, 1, 74, 55
3, 77640, Note_on_c, 1, 74, 0
3, 77700, Note_on_c, 1, 66, 55
3, 77745, Note_on_c, 1, 66, 0
3, 77760, Note_on_c, 1, 67, 67
3, 77880, Note_on_c, 1, 67, 0
3, 77940, Note_on_c, 1, 74, 55
3, 77970, Note_on_c, 1, 74, 0
3, 78000, Note_on_c, 1, 79, 55
3, 78060, Note_on_c, 1, 79, 0
3, 78060, Note_on_c, 1, 78, 55
3, 78120, Note_on_c, 1, 78, 0
3, 78120, Note_on_c, 1, 76, 55
3, 78180, Note_on_c, 1, 76, 0
3, 78180, Note_on_c, 1, 74, 55
3, 78240, Note_on_c, 1, 74, 0
3, 78240, Note_on_c, 1, 76, 55
3, 78255, Note_on_c, 1, 76, 0
3, 78255, Note_on_c, 1, 78, 55
3, 78270, Note_on_c, 1, 78, 0
3, 78270, Note_on_c, 1, 76, 55
3, 78285, Note_on_c, 1, 76, 0
3, 78285, Note_on_c, 1, 78, 55
3, 78300, Note_on_c, 1, 78, 0
3, 78300, Note_on_c, 1, 74, 55
3, 78360, Note_on_c, 1, 74, 0
3, 78420, Note_on_c, 1, 74, 55
3, 78450, Note_on_c, 1, 74, 0
3, 78480, Note_on_c, 1, 74, 55
3, 78510, Note_on_c, 1, 74, 0
3, 78540, Note_on_c, 1, 74, 55
3, 78570, Note_on_c, 1, 74, 0
3, 78600, Note_on_c, 1, 74, 55
3, 78630, Note_on_c, 1, 74, 0
3, 78660, Note_on_c, 1, 74, 55
3, 78690, Note_on_c, 1, 74, 0
3, 78720, Note_on_c, 1, 76, 55
3, 78735, Note_on_c, 1, 76, 0
3, 78735, Note_on_c, 1, 78, 55
3, 78750, Note_on_c, 1, 78, 0
3, 78750, Note_on_c, 1, 76, 55
3, 78765, Note_on_c, 1, 76, 0
3, 78765, Note_on_c, 1, 78, 55
3, 78780, Note_on_c, 1, 78, 0
3, 78780, Note_on_c, 1, 74, 55
3, 78840, Note_on_c, 1, 74, 0
3, 78900, Note_on_c, 1, 74, 55
3, 78945, Note_on_c, 1, 74, 0
3, 78960, Note_on_c, 1, 79, 55
3, 79020, Note_on_c, 1, 79, 0
3, 79020, Note_on_c, 1, 78, 55
3, 79080, Note_on_c, 1, 78, 0
3, 79080, Note_on_c, 1, 76, 55
3, 79140, Note_on_c, 1, 76, 0
3, 79140, Note_on_c, 1, 74, 55
3, 79200, Note_on_c, 1, 74, 0
3, 79200, Note_on_c, 1, 76, 55
3, 79215, Note_on_c, 1, 76, 0
3, 79215, Note_on_c, 1, 78, 55
3, 79230, Note_on_c, 1, 78, 0
3, 79230, Note_on_c, 1, 76, 55
3, 79245, Note_on_c, 1, 76, 0
3, 79245, Note_on_c, 1, 78, 55
3, 79260, Note_on_c, 1, 78, 0
3, 79260, Note_on_c, 1, 74, 55
3, 79320, Note_on_c, 1, 74, 0
3, 79380, Note_on_c, 1, 74, 55
3, 79410, Note_on_c, 1, 74, 0
3, 79440, Note_on_c, 1, 74, 55
3, 79470, Note_on_c, 1, 74, 0
3, 79500, Note_on_c, 1, 74, 55
3, 79530, Note_on_c, 1, 74, 0
3, 79560, Note_on_c, 1, 74, 55
3, 79590, Note_on_c, 1, 74, 0
3, 79620, Note_on_c, 1, 74, 55
3, 79650, Note_on_c, 1, 74, 0
3, 79680, Note_on_c, 1, 76, 55
3, 79695, Note_on_c, 1, 76, 0
3, 79695, Note_on_c, 1, 78, 55
3, 79710, Note_on_c, 1, 78, 0
3, 79710, Note_on_c, 1, 76, 55
3, 79725, Note_on_c, 1, 76, 0
3, 79725, Note_on_c, 1, 78, 55
3, 79740, Note_on_c, 1, 78, 0
3, 79740, Note_on_c, 1, 74, 55
3, 79800, Note_on_c, 1, 74, 0
3, 79920, Note_on_c, 1, 64, 83
3, 79920, Note_on_c, 1, 76, 83
3, 80090, Note_on_c, 1, 76, 0
3, 80090, Note_on_c, 1, 64, 0
3, 80100, Note_on_c, 1, 74, 82
3, 80120, Note_on_c, 1, 74, 0
3, 80120, Note_on_c, 1, 72, 82
3, 80140, Note_on_c, 1, 72, 0
3, 80140, Note_on_c, 1, 71, 82
3, 80160, Note_on_c, 1, 71, 0
3, 80160, Note_on_c, 1, 72, 83
3, 80280, Note_on_c, 1, 72, 0
3, 80400, Note_on_c, 1, 74, 85
3, 80400, Note_on_c, 1, 62, 85
3, 80570, Note_on_c, 1, 62, 0
3, 80570, Note_on_c, 1, 74, 0
3, 80580, Note_on_c, 1, 72, 77
3, 80600, Note_on_c, 1, 72, 0
3, 80600, Note_on_c, 1, 71, 79
3, 80620, Note_on_c, 1, 71, 0
3, 80620, Note_on_c, 1, 69, 83
3, 80640, Note_on_c, 1, 69, 0
3, 80640, Note_on_c, 1, 71, 88
3, 80760, Note_on_c, 1, 71, 0
3, 80880, Note_on_c, 1, 76, 85
3, 80940, Note_on_c, 1, 76, 0
3, 80940, Note_on_c, 1, 78, 85
3, 80970, Note_on_c, 1, 78, 0
3, 80970, Note_on_c, 1, 79, 85
3, 81000, Note_on_c, 1, 79, 0
3, 81000, Note_on_c, 1, 78, 85
3, 81045, Note_on_c, 1, 78, 0
3, 81060, Note_on_c, 1, 76, 85
3, 81090, Note_on_c, 1, 76, 0
3, 81120, Note_on_c, 1, 76, 85
3, 81180, Note_on_c, 1, 76, 0
3, 81180, Note_on_c, 1, 74, 85
3, 81225, Note_on_c, 1, 74, 0
3, 81240, Note_on_c, 1, 71, 85
3, 81270, Note_on_c, 1, 71, 0
3, 81300, Note_on_c, 1, 74, 85
3, 81330, Note_on_c, 1, 74, 0
3, 81360, Note_on_c, 1, 74, 85
3, 81420, Note_on_c, 1, 74, 0
3, 81420, Note_on_c, 1, 72, 85
3, 81465, Note_on_c, 1, 72, 0
3, 81480, Note_on_c, 1, 71, 85
3, 81510, Note_on_c, 1, 71, 0
3, 81540, Note_on_c, 1, 69, 85
3, 81570, Note_on_c, 1, 69, 0
3, 81600, Note_on_c, 1, 67, 85
3, 81720, Note_on_c, 1, 67, 0
3, 81780, Note_on_c, 1, 74, 50
3, 81810, Note_on_c, 1, 74, 0
3, 81840, Note_on_c, 1, 79, 50
3, 81900, Note_on_c, 1, 79, 0
3, 81900, Note_on_c, 1, 78, 50
3, 81960, Note_on_c, 1, 78, 0
3, 81960, Note_on_c, 1, 76, 53
3, 82020, Note_on_c, 1, 76, 0
3, 82020, Note_on_c, 1, 74, 56
3, 82080, Note_on_c, 1, 74, 0
3, 82080, Note_on_c, 1, 76, 58
3, 82095, Note_on_c, 1, 76, 0
3, 82095, Note_on_c, 1, 78, 58
3, 82110, Note_on_c, 1, 78, 0
3, 82110, Note_on_c, 1, 76, 59
3, 82125, Note_on_c, 1, 76, 0
3, 82125, Note_on_c, 1, 78, 59
3, 82140, Note_on_c, 1, 78, 0
3, 82140, Note_on_c, 1, 74, 61
3, 82200, Note_on_c, 1, 74, 0
3, 82260, Note_on_c, 1, 74, 56
3, 82290, Note_on_c, 1, 74, 0
3, 82320, Note_on_c, 1, 74, 55
3, 82350, Note_on_c, 1, 74, 0
3, 82380, Note_on_c, 1, 74, 55
3, 82410, Note_on_c, 1, 74, 0
3, 82440, Note_on_c, 1, 74, 53
3, 82470, Note_on_c, 1, 74, 0
3, 82500, Note_on_c, 1, 74, 52
3, 82530, Note_on_c, 1, 74, 0
3, 82560, Note_on_c, 1, 76, 55
3, 82575, Note_on_c, 1, 76, 0
3, 82575, Note_on_c, 1, 78, 55
3, 82590, Note_on_c, 1, 78, 0
3, 82590, Note_on_c, 1, 76, 55
3, 82605, Note_on_c, 1, 76, 0
3, 82605, Note_on_c, 1, 78, 55
3, 82620, Note_on_c, 1, 78, 0
3, 82620, Note_on_c, 1, 74, 55
3, 82680, Note_on_c, 1, 74, 0
3, 82740, Note_on_c, 1, 74, 55
3, 82785, Note_on_c, 1, 74, 0
3, 82800, Note_on_c, 1, 79, 55
3, 82860, Note_on_c, 1, 79, 0
3, 82860, Note_on_c, 1, 78, 55
3, 82920, Note_on_c, 1, 78, 0
3, 82920, Note_on_c, 1, 76, 55
3, 82980, Note_on_c, 1, 76, 0
3, 82980, Note_on_c, 1, 74, 56
3, 83040, Note_on_c, 1, 74, 0
3, 83040, Note_on_c, 1, 76, 65
3, 83055, Note_on_c, 1, 76, 0
3, 83055, Note_on_c, 1, 78, 65
3, 83070, Note_on_c, 1, 78, 0
3, 83070, Note_on_c, 1, 76, 65
3, 83085, Note_on_c, 1, 76, 0
3, 83085, Note_on_c, 1, 78, 65
3, 83100, Note_on_c, 1, 78, 0
3, 83100, Note_on_c, 1, 74, 64
3, 83160, Note_on_c, 1, 74, 0
3, 83220, Note_on_c, 1, 74, 55
3, 83250, Note_on_c, 1, 74, 0
3, 83280, Note_on_c, 1, 74, 55
3, 83310, Note_on_c, 1, 74, 0
3, 83340, Note_on_c, 1, 74, 55
3, 83370, Note_on_c, 1, 74, 0
3, 83400, Note_on_c, 1, 74, 55
3, 83430, Note_on_c, 1, 74, 0
3, 83460, Note_on_c, 1, 74, 55
3, 83490, Note_on_c, 1, 74, 0
3, 83520, Note_on_c, 1, 76, 59
3, 83535, Note_on_c, 1, 76, 0
3, 83535, Note_on_c, 1, 78, 59
3, 83550, Note_on_c, 1, 78, 0
3, 83550, Note_on_c, 1, 76, 59
3, 83565, Note_on_c, 1, 76, 0
3, 83565, Note_on_c, 1, 78, 59
3, 83580, Note_on_c, 1, 78, 0
3, 83580, Note_on_c, 1, 74, 59
3, 83640, Note_on_c, 1, 74, 0
3, 83760, Note_on_c, 1, 88, 85
3, 83930, Note_on_c, 1, 88, 0
3, 83940, Note_on_c, 1, 86, 85
3, 83960, Note_on_c, 1, 86, 0
3, 83960, Note_on_c, 1, 84, 85
3, 83980, Note_on_c, 1, 84, 0
3, 83980, Note_on_c, 1, 83, 85
3, 84000, Note_on_c, 1, 83, 0
3, 84000, Note_on_c, 1, 84, 85
3, 84120, Note_on_c, 1, 84, 0
3, 84240, Note_on_c, 1, 86, 85
3, 84240, Note_on_c, 1, 74, 85
3, 84410, Note_on_c, 1, 74, 0
3, 84410, Note_on_c, 1, 86, 0
3, 84420, Note_on_c, 1, 84, 82
3, 84440, Note_on_c, 1, 84, 0
3, 84440, Note_on_c, 1, 83, 83
3, 84460, Note_on_c, 1, 83, 0
3, 84460, Note_on_c, 1, 81, 83
3, 84480, Note_on_c, 1, 81, 0
3, 84480, Note_on_c, 1, 83, 86
3, 84600, Note_on_c, 1, 83, 0
3, 84720, Note_on_c, 1, 76, 85
3, 84780, Note_on_c, 1, 76, 0
3, 84780, Note_on_c, 1, 78, 85
3, 84810, Note_on_c, 1, 78, 0
3, 84810, Note_on_c, 1, 79, 85
3, 84840, Note_on_c, 1, 79, 0
3, 84840, Note_on_c, 1, 78, 85
3, 84885, Note_on_c, 1, 78, 0
3, 84900, Note_on_c, 1, 76, 85
3, 84930, Note_on_c, 1, 76, 0
3, 84960, Note_on_c, 1, 74, 85
3, 84990, Note_on_c, 1, 74, 0
3, 85020, Note_on_c, 1, 79, 85
3, 85050, Note_on_c, 1, 79, 0
3, 85080, Note_on_c, 1, 83, 85
3, 85110, Note_on_c, 1, 83, 0
3, 85140, Note_on_c, 1, 86, 85
3, 85170, Note_on_c, 1, 86, 0
3, 85200, Note_on_c, 1, 86, 85
3, 85260, Note_on_c, 1, 86, 0
3, 85260, Note_on_c, 1, 84, 85
3, 85305, Note_on_c, 1, 84, 0
3, 85320, Note_on_c, 1, 83, 85
3, 85350, Note_on_c, 1, 83, 0
3, 85380, Note_on_c, 1, 81, 85
3, 85410, Note_on_c, 1, 81, 0
3, 85440, Note_on_c, 1, 79, 94
3, 85485, Note_on_c, 1, 79, 0
3, 85500, Note_on_c, 1, 62, 85
3, 85545, Note_on_c, 1, 62, 0
3, 85560, Note_on_c, 1, 64, 85
3, 85605, Note_on_c, 1, 64, 0
3, 85620, Note_on_c, 1, 66, 85
3, 85665, Note_on_c, 1, 66, 0
3, 85680, Note_on_c, 1, 67, 85
3, 85725, Note_on_c, 1, 67, 0
3, 85740, Note_on_c, 1, 67, 85
3, 85785, Note_on_c, 1, 67, 0
3, 85800, Note_on_c, 1, 69, 85
3, 85815, Note_on_c, 1, 69, 0
3, 85815, Note_on_c, 1, 71, 85
3, 85830, Note_on_c, 1, 71, 0
3, 85830, Note_on_c, 1, 69, 85
3, 85845, Note_on_c, 1, 69, 0
3, 85845, Note_on_c, 1, 71, 85
3, 85860, Note_on_c, 1, 71, 0
3, 85860, Note_on_c, 1, 67, 85
3, 85890, Note_on_c, 1, 67, 0
3, 85890, Note_on_c, 1, 69, 85
3, 85920, Note_on_c, 1, 69, 0
3, 85920, Note_on_c, 1, 71, 85
3, 85965, Note_on_c, 1, 71, 0
3, 85980, Note_on_c, 1, 66, 85
3, 86025, Note_on_c, 1, 66, 0
3, 86040, Note_on_c, 1, 67, 85
3, 86085, Note_on_c, 1, 67, 0
3, 86100, Note_on_c, 1, 69, 85
3, 86145, Note_on_c, 1, 69, 0
3, 86160, Note_on_c, 1, 71, 85
3, 86205, Note_on_c, 1, 71, 0
3, 86220, Note_on_c, 1, 71, 85
3, 86265, Note_on_c, 1, 71, 0
3, 86280, Note_on_c, 1, 72, 86
3, 86295, Note_on_c, 1, 72, 0
3, 86295, Note_on_c, 1, 74, 86
3, 86310, Note_on_c, 1, 74, 0
3, 86310, Note_on_c, 1, 72, 86
3, 86325, Note_on_c, 1, 72, 0
3, 86325, Note_on_c, 1, 74, 86
3, 86340, Note_on_c, 1, 74, 0
3, 86340, Note_on_c, 1, 71, 86
3, 86370, Note_on_c, 1, 71, 0
3, 86370, Note_on_c, 1, 72, 89
3, 86400, Note_on_c, 1, 72, 0
3, 86400, Note_on_c, 1, 74, 89
3, 86445, Note_on_c, 1, 74, 0
3, 86460, Note_on_c, 1, 74, 91
3, 86505, Note_on_c, 1, 74, 0
3, 86520, Note_on_c, 1, 75, 91
3, 86535, Note_on_c, 1, 75, 0
3, 86535, Note_on_c, 1, 76, 91
3, 86550, Note_on_c, 1, 76, 0
3, 86550, Note_on_c, 1, 75, 91
3, 86565, Note_on_c, 1, 75, 0
3, 86565, Note_on_c, 1, 76, 92
3, 86580, Note_on_c, 1, 76, 0
3, 86580, Note_on_c, 1, 73, 94
3, 86610, Note_on_c, 1, 73, 0
3, 86610, Note_on_c, 1, 75, 97
3, 86640, Note_on_c, 1, 75, 0
3, 86640, Note_on_c, 1, 76, 98
3, 86760, Note_on_c, 1, 76, 0
3, 86880, Note_on_c, 1, 64, 61
3, 87060, Note_on_c, 1, 64, 0
3, 87060, Note_on_c, 1, 69, 61
3, 87105, Note_on_c, 1, 69, 0
3, 87120, Note_on_c, 1, 67, 61
3, 87180, Note_on_c, 1, 67, 0
3, 87180, Note_on_c, 1, 66, 62
3, 87240, Note_on_c, 1, 66, 0
3, 87240, Note_on_c, 1, 64, 62
3, 87300, Note_on_c, 1, 64, 0
3, 87300, Note_on_c, 1, 62, 62
3, 87345, Note_on_c, 1, 62, 0
3, 87360, Note_on_c, 1, 74, 62
3, 87420, Note_on_c, 1, 74, 0
3, 87420, Note_on_c, 1, 73, 62
3, 87480, Note_on_c, 1, 73, 0
3, 87480, Note_on_c, 1, 72, 62
3, 87540, Note_on_c, 1, 72, 0
3, 87540, Note_on_c, 1, 71, 62
3, 87600, Note_on_c, 1, 71, 0
3, 87600, Note_on_c, 1, 74, 61
3, 87660, Note_on_c, 1, 74, 0
3, 87660, Note_on_c, 1, 73, 61
3, 87720, Note_on_c, 1, 73, 0
3, 87720, Note_on_c, 1, 72, 61
3, 87780, Note_on_c, 1, 72, 0
3, 87780, Note_on_c, 1, 71, 59
3, 87825, Note_on_c, 1, 71, 0
3, 87840, Note_on_c, 1, 64, 61
3, 88020, Note_on_c, 1, 64, 0
3, 88020, Note_on_c, 1, 69, 67
3, 88065, Note_on_c, 1, 69, 0
3, 88080, Note_on_c, 1, 67, 70
3, 88140, Note_on_c, 1, 67, 0
3, 88140, Note_on_c, 1, 66, 70
3, 88200, Note_on_c, 1, 66, 0
3, 88200, Note_on_c, 1, 64, 70
3, 88260, Note_on_c, 1, 64, 0
3, 88260, Note_on_c, 1, 62, 70
3, 88305, Note_on_c, 1, 62, 0
3, 88320, Note_on_c, 1, 74, 70
3, 88380, Note_on_c, 1, 74, 0
3, 88380, Note_on_c, 1, 76, 70
3, 88440, Note_on_c, 1, 76, 0
3, 88440, Note_on_c, 1, 78, 70
3, 88500, Note_on_c, 1, 78, 0
3, 88500, Note_on_c, 1, 79, 70
3, 88560, Note_on_c, 1, 79, 0
3, 88560, Note_on_c, 1, 74, 70
3, 88620, Note_on_c, 1, 74, 0
3, 88620, Note_on_c, 1, 76, 70
3, 88680, Note_on_c, 1, 76, 0
3, 88680, Note_on_c, 1, 78, 70
3, 88740, Note_on_c, 1, 78, 0
3, 88740, Note_on_c, 1, 79, 76
3, 88785, Note_on_c, 1, 79, 0
3, 88800, Note_on_c, 1, 81, 75
3, 88920, Note_on_c, 1, 81, 0
3, 89040, Note_on_c, 1, 74, 91
3, 89040, Note_on_c, 1, 86, 91
3, 89160, Note_on_c, 1, 86, 0
3, 89160, Note_on_c, 1, 74, 0
3, 89280, Note_on_c, 1, 62, 96
3, 89280, Note_on_c, 1, 71, 96
3, 89280, Note_on_c, 1, 79, 96
3, 89400, Note_on_c, 1, 79, 0
3, 89400, Note_on_c, 1, 71, 0
3, 89400, Note_on_c, 1, 62, 0
3, 89460, Note_on_c, 1, 74, 95
3, 89505, Note_on_c, 1, 74, 0
3, 89520, Note_on_c, 1, 71, 94
3, 89565, Note_on_c, 1, 71, 0
3, 89580, Note_on_c, 1, 67, 90
3, 89625, Note_on_c, 1, 67, 0
3, 89640, Note_on_c, 1, 71, 90
3, 89685, Note_on_c, 1, 71, 0
3, 89700, Note_on_c, 1, 74, 89
3, 89745, Note_on_c, 1, 74, 0
3, 89760, Note_on_c, 1, 79, 88
3, 89805, Note_on_c, 1, 79, 0
3, 89820, Note_on_c, 1, 74, 88
3, 89865, Note_on_c, 1, 74, 0
3, 89880, Note_on_c, 1, 79, 88
3, 89925, Note_on_c, 1, 79, 0
3, 89940, Note_on_c, 1, 83, 90
3, 89985, Note_on_c, 1, 83, 0
3, 90000, Note_on_c, 1, 86, 92
3, 90100, Note_on_c, 1, 86, 0
3, 90120, Note_on_c, 1, 62, 95
3, 90120, Note_on_c, 1, 69, 95
3, 90120, Note_on_c, 1, 78, 95
3, 90220, Note_on_c, 1, 78, 0
3, 90220, Note_on_c, 1, 69, 0
3, 90220, Note_on_c, 1, 62, 0
3, 90240, Note_on_c, 1, 62, 100
3, 90240, Note_on_c, 1, 71, 100
3, 90240, Note_on_c, 1, 79, 100
3, 90360, Note_on_c, 1, 79, 0
3, 90360, Note_on_c, 1, 71, 0
3, 90360, Note_on_c, 1, 62, 0
3, 90420, Note_on_c, 1, 74, 98
3, 90465, Note_on_c, 1, 74, 0
3, 90480, Note_on_c, 1, 71, 98
3, 90525, Note_on_c, 1, 71, 0
3, 90540, Note_on_c, 1, 67, 95
3, 90585, Note_on_c, 1, 67, 0
3, 90600, Note_on_c, 1, 71, 94
3, 90645, Note_on_c, 1, 71, 0
3, 90660, Note_on_c, 1, 74, 92
3, 90705, Note_on_c, 1, 74, 0
3, 90720, Note_on_c, 1, 79, 91
3, 90765, Note_on_c, 1, 79, 0
3, 90780, Note_on_c, 1, 74, 91
3, 90825, Note_on_c, 1, 74, 0
3, 90840, Note_on_c, 1, 79, 92
3, 90885, Note_on_c, 1, 79, 0
3, 90900, Note_on_c, 1, 83, 92
3, 90945, Note_on_c, 1, 83, 0
3, 90960, Note_on_c, 1, 86, 96
3, 91060, Note_on_c, 1, 86, 0
3, 91080, Note_on_c, 1, 62, 99
3, 91080, Note_on_c, 1, 69, 99
3, 91080, Note_on_c, 1, 78, 99
3, 91180, Note_on_c, 1, 78, 0
3, 91180, Note_on_c, 1, 69, 0
3, 91180, Note_on_c, 1, 62, 0
3, 91200, Note_on_c, 1, 62, 109
3, 91200, Note_on_c, 1, 71, 109
3, 91200, Note_on_c, 1, 79, 109
3, 91320, Note_on_c, 1, 79, 0
3, 91320, Note_on_c, 1, 71, 0
3, 91320, Note_on_c, 1, 62, 0
3, 91440, Note_on_c, 1, 62, 106
3, 91440, Note_on_c, 1, 71, 106
3, 91440, Note_on_c, 1, 79, 106
3, 91560, Note_on_c, 1, 79, 0
3, 91560, Note_on_c, 1, 71, 0
3, 91560, Note_on_c, 1, 62, 0
3, 91680, Note_on_c, 1, 62, 106
3, 91680, Note_on_c, 1, 71, 106
3, 91680, Note_on_c, 1, 79, 106
3, 91780, Note_on_c, 1, 79, 0
3, 91780, Note_on_c, 1, 71, 0
3, 91780, Note_on_c, 1, 62, 0
3, 91800, Note_on_c, 1, 55, 110
3, 91800, Note_on_c, 1, 67, 110
3, 91860, Note_on_c, 1, 67, 0
3, 91860, Note_on_c, 1, 55, 0
3, 91890, Note_on_c, 1, 55, 109
3, 91890, Note_on_c, 1, 67, 109
3, 91905, Note_on_c, 1, 67, 0
3, 91905, Note_on_c, 1, 55, 0
3, 91920, Note_on_c, 1, 55, 108
3, 91920, Note_on_c, 1, 67, 108
3, 92040, Note_on_c, 1, 67, 0
3, 92040, Note_on_c, 1, 55, 0
3, 92040, End_track
4, 0, Start_track
4, 0, MIDI_port, 0
4, 0, Title_t, "++++++++++++"
4, 0, Program_c, 2, 40
4, 0, Control_c, 2, 7, 122
4, 0, Control_c, 2, 10, 55
4, 0, Note_on_c, 2, 62, 85
4, 0, Note_on_c, 2, 79, 85
4, 0, Note_on_c, 2, 71, 85
4, 120, Note_on_c, 2, 71, 0
4, 120, Note_on_c, 2, 79, 0
4, 120, Note_on_c, 2, 62, 0
4, 180, Note_on_c, 2, 74, 85
4, 210, Note_on_c, 2, 74, 0
4, 240, Note_on_c, 2, 79, 85
4, 360, Note_on_c, 2, 79, 0
4, 420, Note_on_c, 2, 74, 85
4, 450, Note_on_c, 2, 74, 0
4, 480, Note_on_c, 2, 79, 85
4, 510, Note_on_c, 2, 79, 0
4, 540, Note_on_c, 2, 74, 85
4, 570, Note_on_c, 2, 74, 0
4, 600, Note_on_c, 2, 79, 85
4, 630, Note_on_c, 2, 79, 0
4, 660, Note_on_c, 2, 83, 85
4, 690, Note_on_c, 2, 83, 0
4, 720, Note_on_c, 2, 86, 85
4, 840, Note_on_c, 2, 86, 0
4, 960, Note_on_c, 2, 84, 85
4, 1080, Note_on_c, 2, 84, 0
4, 1140, Note_on_c, 2, 81, 82
4, 1170, Note_on_c, 2, 81, 0
4, 1200, Note_on_c, 2, 84, 85
4, 1320, Note_on_c, 2, 84, 0
4, 1380, Note_on_c, 2, 81, 79
4, 1410, Note_on_c, 2, 81, 0
4, 1440, Note_on_c, 2, 84, 85
4, 1470, Note_on_c, 2, 84, 0
4, 1500, Note_on_c, 2, 81, 80
4, 1530, Note_on_c, 2, 81, 0
4, 1560, Note_on_c, 2, 78, 85
4, 1590, Note_on_c, 2, 78, 0
4, 1620, Note_on_c, 2, 81, 77
4, 1650, Note_on_c, 2, 81, 0
4, 1680, Note_on_c, 2, 74, 85
4, 1800, Note_on_c, 2, 74, 0
4, 1920, Note_on_c, 2, 62, 85
4, 1920, Note_on_c, 2, 79, 85
4, 1920, Note_on_c, 2, 71, 85
4, 1980, Note_on_c, 2, 71, 0
4, 1980, Note_on_c, 2, 79, 0
4, 1980, Note_on_c, 2, 62, 0
4, 2040, Note_on_c, 2, 79, 85
4, 2220, Note_on_c, 2, 79, 0
4, 2220, Note_on_c, 2, 83, 89
4, 2280, Note_on_c, 2, 83, 0
4, 2280, Note_on_c, 2, 81, 94
4, 2310, Note_on_c, 2, 81, 0
4, 2340, Note_on_c, 2, 79, 97
4, 2370, Note_on_c, 2, 79, 0
4, 2400, Note_on_c, 2, 79, 95
4, 2415, Note_on_c, 2, 79, 0
4, 2415, Note_on_c, 2, 81, 95
4, 2430, Note_on_c, 2, 81, 0
4, 2430, Note_on_c, 2, 79, 95
4, 2445, Note_on_c, 2, 79, 0
4, 2445, Note_on_c, 2, 81, 94
4, 2460, Note_on_c, 2, 81, 0
4, 2460, Note_on_c, 2, 78, 94
4, 2510, Note_on_c, 2, 78, 0
4, 2520, Note_on_c, 2, 78, 88
4, 2700, Note_on_c, 2, 78, 0
4, 2700, Note_on_c, 2, 81, 85
4, 2760, Note_on_c, 2, 81, 0
4, 2760, Note_on_c, 2, 84, 85
4, 2790, Note_on_c, 2, 84, 0
4, 2820, Note_on_c, 2, 78, 85
4, 2850, Note_on_c, 2, 78, 0
4, 2880, Note_on_c, 2, 81, 85
4, 2940, Note_on_c, 2, 81, 0
4, 2940, Note_on_c, 2, 79, 85
4, 2970, Note_on_c, 2, 79, 0
4, 3000, Note_on_c, 2, 79, 85
4, 3180, Note_on_c, 2, 79, 0
4, 3180, Note_on_c, 2, 83, 86
4, 3240, Note_on_c, 2, 83, 0
4, 3240, Note_on_c, 2, 81, 86
4, 3270, Note_on_c, 2, 81, 0
4, 3300, Note_on_c, 2, 79, 89
4, 3330, Note_on_c, 2, 79, 0
4, 3360, Note_on_c, 2, 79, 91
4, 3375, Note_on_c, 2, 79, 0
4, 3375, Note_on_c, 2, 81, 91
4, 3390, Note_on_c, 2, 81, 0
4, 3390, Note_on_c, 2, 79, 92
4, 3405, Note_on_c, 2, 79, 0
4, 3405, Note_on_c, 2, 81, 94
4, 3420, Note_on_c, 2, 81, 0
4, 3420, Note_on_c, 2, 78, 94
4, 3470, Note_on_c, 2, 78, 0
4, 3480, Note_on_c, 2, 78, 94
4, 3660, Note_on_c, 2, 78, 0
4, 3660, Note_on_c, 2, 81, 85
4, 3720, Note_on_c, 2, 81, 0
4, 3720, Note_on_c, 2, 84, 85
4, 3750, Note_on_c, 2, 84, 0
4, 3780, Note_on_c, 2, 78, 85
4, 3810, Note_on_c, 2, 78, 0
4, 3840, Note_on_c, 2, 79, 85
4, 3870, Note_on_c, 2, 79, 0
4, 3900, Note_on_c, 2, 79, 85
4, 3930, Note_on_c, 2, 79, 0
4, 3960, Note_on_c, 2, 79, 85
4, 3990, Note_on_c, 2, 79, 0
4, 3990, Note_on_c, 2, 78, 85
4, 4020, Note_on_c, 2, 78, 0
4, 4020, Note_on_c, 2, 76, 85
4, 4050, Note_on_c, 2, 76, 0
4, 4050, Note_on_c, 2, 78, 85
4, 4080, Note_on_c, 2, 78, 0
4, 4080, Note_on_c, 2, 79, 85
4, 4110, Note_on_c, 2, 79, 0
4, 4140, Note_on_c, 2, 79, 85
4, 4170, Note_on_c, 2, 79, 0
4, 4200, Note_on_c, 2, 83, 85
4, 4230, Note_on_c, 2, 83, 0
4, 4230, Note_on_c, 2, 81, 85
4, 4260, Note_on_c, 2, 81, 0
4, 4260, Note_on_c, 2, 79, 85
4, 4290, Note_on_c, 2, 79, 0
4, 4290, Note_on_c, 2, 81, 85
4, 4320, Note_on_c, 2, 81, 0
4, 4320, Note_on_c, 2, 83, 86
4, 4350, Note_on_c, 2, 83, 0
4, 4380, Note_on_c, 2, 83, 86
4, 4410, Note_on_c, 2, 83, 0
4, 4440, Note_on_c, 2, 86, 83
4, 4470, Note_on_c, 2, 86, 0
4, 4470, Note_on_c, 2, 84, 80
4, 4500, Note_on_c, 2, 84, 0
4, 4500, Note_on_c, 2, 83, 80
4, 4530, Note_on_c, 2, 83, 0
4, 4530, Note_on_c, 2, 84, 79
4, 4560, Note_on_c, 2, 84, 0
4, 4560, Note_on_c, 2, 86, 76
4, 4680, Note_on_c, 2, 86, 0
4, 4800, Note_on_c, 2, 74, 41
4, 5040, Note_on_c, 2, 74, 0
4, 5040, Note_on_c, 2, 76, 47
4, 5280, Note_on_c, 2, 76, 0
4, 5280, Note_on_c, 2, 74, 47
4, 5310, Note_on_c, 2, 74, 0
4, 5310, Note_on_c, 2, 72, 47
4, 5390, Note_on_c, 2, 72, 0
4, 5400, Note_on_c, 2, 72, 47
4, 5520, Note_on_c, 2, 72, 0
4, 5520, Note_on_c, 2, 72, 47
4, 5550, Note_on_c, 2, 72, 0
4, 5550, Note_on_c, 2, 71, 47
4, 5630, Note_on_c, 2, 71, 0
4, 5640, Note_on_c, 2, 71, 47
4, 5760, Note_on_c, 2, 71, 0
4, 5760, Note_on_c, 2, 71, 47
4, 5790, Note_on_c, 2, 71, 0
4, 5790, Note_on_c, 2, 69, 47
4, 5870, Note_on_c, 2, 69, 0
4, 5880, Note_on_c, 2, 69, 47
4, 6000, Note_on_c, 2, 69, 0
4, 6000, Note_on_c, 2, 67, 47
4, 6060, Note_on_c, 2, 67, 0
4, 6060, Note_on_c, 2, 66, 47
4, 6090, Note_on_c, 2, 66, 0
4, 6120, Note_on_c, 2, 64, 47
4, 6150, Note_on_c, 2, 64, 0
4, 6180, Note_on_c, 2, 66, 47
4, 6210, Note_on_c, 2, 66, 0
4, 6240, Note_on_c, 2, 67, 47
4, 6300, Note_on_c, 2, 67, 0
4, 6360, Note_on_c, 2, 69, 47
4, 6420, Note_on_c, 2, 69, 0
4, 6480, Note_on_c, 2, 71, 47
4, 6540, Note_on_c, 2, 71, 0
4, 6720, Note_on_c, 2, 74, 47
4, 6960, Note_on_c, 2, 74, 0
4, 6960, Note_on_c, 2, 76, 47
4, 7200, Note_on_c, 2, 76, 0
4, 7200, Note_on_c, 2, 74, 47
4, 7260, Note_on_c, 2, 74, 0
4, 7260, Note_on_c, 2, 72, 47
4, 7290, Note_on_c, 2, 72, 0
4, 7320, Note_on_c, 2, 72, 47
4, 7350, Note_on_c, 2, 72, 0
4, 7380, Note_on_c, 2, 72, 47
4, 7410, Note_on_c, 2, 72, 0
4, 7440, Note_on_c, 2, 72, 47
4, 7500, Note_on_c, 2, 72, 0
4, 7500, Note_on_c, 2, 71, 47
4, 7530, Note_on_c, 2, 71, 0
4, 7560, Note_on_c, 2, 71, 47
4, 7590, Note_on_c, 2, 71, 0
4, 7620, Note_on_c, 2, 71, 47
4, 7650, Note_on_c, 2, 71, 0
4, 7680, Note_on_c, 2, 71, 47
4, 7740, Note_on_c, 2, 71, 0
4, 7740, Note_on_c, 2, 69, 47
4, 7770, Note_on_c, 2, 69, 0
4, 7800, Note_on_c, 2, 69, 47
4, 7845, Note_on_c, 2, 69, 0
4, 7860, Note_on_c, 2, 69, 47
4, 7905, Note_on_c, 2, 69, 0
4, 7920, Note_on_c, 2, 67, 47
4, 7980, Note_on_c, 2, 67, 0
4, 7980, Note_on_c, 2, 66, 47
4, 8040, Note_on_c, 2, 66, 0
4, 8040, Note_on_c, 2, 64, 47
4, 8100, Note_on_c, 2, 64, 0
4, 8100, Note_on_c, 2, 66, 47
4, 8160, Note_on_c, 2, 66, 0
4, 8160, Note_on_c, 2, 55, 85
4, 8160, Note_on_c, 2, 67, 85
4, 8460, Note_on_c, 2, 67, 0
4, 8460, Note_on_c, 2, 55, 0
4, 8460, Note_on_c, 2, 67, 61
4, 8475, Note_on_c, 2, 67, 0
4, 8475, Note_on_c, 2, 69, 61
4, 8490, Note_on_c, 2, 69, 0
4, 8490, Note_on_c, 2, 66, 61
4, 8505, Note_on_c, 2, 66, 0
4, 8505, Note_on_c, 2, 67, 61
4, 8520, Note_on_c, 2, 67, 0
4, 8520, Note_on_c, 2, 69, 61
4, 8580, Note_on_c, 2, 69, 0
4, 8580, Note_on_c, 2, 66, 61
4, 8640, Note_on_c, 2, 66, 0
4, 8640, Note_on_c, 2, 71, 85
4, 8940, Note_on_c, 2, 71, 0
4, 8940, Note_on_c, 2, 71, 61
4, 8955, Note_on_c, 2, 71, 0
4, 8955, Note_on_c, 2, 72, 61
4, 8970, Note_on_c, 2, 72, 0
4, 8970, Note_on_c, 2, 69, 61
4, 8985, Note_on_c, 2, 69, 0
4, 8985, Note_on_c, 2, 71, 61
4, 9000, Note_on_c, 2, 71, 0
4, 9000, Note_on_c, 2, 72, 61
4, 9060, Note_on_c, 2, 72, 0
4, 9060, Note_on_c, 2, 69, 61
4, 9120, Note_on_c, 2, 69, 0
4, 9120, Note_on_c, 2, 74, 46
4, 9140, Note_on_c, 2, 74, 0
4, 9150, Note_on_c, 2, 74, 46
4, 9170, Note_on_c, 2, 74, 0
4, 9180, Note_on_c, 2, 74, 47
4, 9200, Note_on_c, 2, 74, 0
4, 9210, Note_on_c, 2, 74, 47
4, 9230, Note_on_c, 2, 74, 0
4, 9240, Note_on_c, 2, 74, 49
4, 9260, Note_on_c, 2, 74, 0
4, 9270, Note_on_c, 2, 74, 50
4, 9290, Note_on_c, 2, 74, 0
4, 9300, Note_on_c, 2, 74, 50
4, 9320, Note_on_c, 2, 74, 0
4, 9330, Note_on_c, 2, 74, 52
4, 9350, Note_on_c, 2, 74, 0
4, 9360, Note_on_c, 2, 76, 53
4, 9380, Note_on_c, 2, 76, 0
4, 9390, Note_on_c, 2, 76, 53
4, 9410, Note_on_c, 2, 76, 0
4, 9420, Note_on_c, 2, 76, 55
4, 9440, Note_on_c, 2, 76, 0
4, 9450, Note_on_c, 2, 76, 56
4, 9470, Note_on_c, 2, 76, 0
4, 9480, Note_on_c, 2, 78, 56
4, 9500, Note_on_c, 2, 78, 0
4, 9510, Note_on_c, 2, 78, 58
4, 9530, Note_on_c, 2, 78, 0
4, 9540, Note_on_c, 2, 78, 58
4, 9560, Note_on_c, 2, 78, 0
4, 9570, Note_on_c, 2, 78, 59
4, 9590, Note_on_c, 2, 78, 0
4, 9600, Note_on_c, 2, 79, 61
4, 9620, Note_on_c, 2, 79, 0
4, 9630, Note_on_c, 2, 79, 61
4, 9650, Note_on_c, 2, 79, 0
4, 9660, Note_on_c, 2, 79, 62
4, 9680, Note_on_c, 2, 79, 0
4, 9690, Note_on_c, 2, 79, 64
4, 9710, Note_on_c, 2, 79, 0
4, 9720, Note_on_c, 2, 81, 64
4, 9740, Note_on_c, 2, 81, 0
4, 9750, Note_on_c, 2, 81, 65
4, 9770, Note_on_c, 2, 81, 0
4, 9780, Note_on_c, 2, 81, 67
4, 9800, Note_on_c, 2, 81, 0
4, 9810, Note_on_c, 2, 81, 67
4, 9830, Note_on_c, 2, 81, 0
4, 9840, Note_on_c, 2, 83, 68
4, 9860, Note_on_c, 2, 83, 0
4, 9870, Note_on_c, 2, 83, 68
4, 9890, Note_on_c, 2, 83, 0
4, 9900, Note_on_c, 2, 83, 70
4, 9920, Note_on_c, 2, 83, 0
4, 9930, Note_on_c, 2, 83, 71
4, 9950, Note_on_c, 2, 83, 0
4, 9960, Note_on_c, 2, 85, 71
4, 9980, Note_on_c, 2, 85, 0
4, 9990, Note_on_c, 2, 85, 73
4, 10010, Note_on_c, 2, 85, 0
4, 10020, Note_on_c, 2, 85, 74
4, 10040, Note_on_c, 2, 85, 0
4, 10050, Note_on_c, 2, 85, 74
4, 10070, Note_on_c, 2, 85, 0
4, 10080, Note_on_c, 2, 86, 85
4, 10260, Note_on_c, 2, 86, 0
4, 10260, Note_on_c, 2, 81, 85
4, 10320, Note_on_c, 2, 81, 0
4, 10320, Note_on_c, 2, 85, 94
4, 10410, Note_on_c, 2, 85, 0
4, 10410, Note_on_c, 2, 81, 85
4, 10440, Note_on_c, 2, 81, 0
4, 10440, Note_on_c, 2, 85, 85
4, 10530, Note_on_c, 2, 85, 0
4, 10530, Note_on_c, 2, 81, 85
4, 10560, Note_on_c, 2, 81, 0
4, 10560, Note_on_c, 2, 86, 85
4, 10740, Note_on_c, 2, 86, 0
4, 10740, Note_on_c, 2, 81, 85
4, 10800, Note_on_c, 2, 81, 0
4, 10800, Note_on_c, 2, 85, 85
4, 10890, Note_on_c, 2, 85, 0
4, 10890, Note_on_c, 2, 81, 85
4, 10920, Note_on_c, 2, 81, 0
4, 10920, Note_on_c, 2, 85, 85
4, 11010, Note_on_c, 2, 85, 0
4, 11010, Note_on_c, 2, 81, 85
4, 11040, Note_on_c, 2, 81, 0
4, 11040, Note_on_c, 2, 86, 85
4, 11070, Note_on_c, 2, 86, 0
4, 11100, Note_on_c, 2, 78, 85
4, 11100, Note_on_c, 2, 86, 85
4, 11190, Note_on_c, 2, 86, 0
4, 11190, Note_on_c, 2, 78, 0
4, 11220, Note_on_c, 2, 78, 85
4, 11220, Note_on_c, 2, 86, 85
4, 11310, Note_on_c, 2, 86, 0
4, 11310, Note_on_c, 2, 78, 0
4, 11340, Note_on_c, 2, 78, 85
4, 11340, Note_on_c, 2, 86, 85
4, 11430, Note_on_c, 2, 86, 0
4, 11430, Note_on_c, 2, 78, 0
4, 11460, Note_on_c, 2, 78, 85
4, 11460, Note_on_c, 2, 86, 85
4, 11520, Note_on_c, 2, 78, 0
4, 11520, Note_on_c, 2, 76, 85
4, 11550, Note_on_c, 2, 76, 0
4, 11550, Note_on_c, 2, 86, 0
4, 11580, Note_on_c, 2, 76, 85
4, 11580, Note_on_c, 2, 86, 85
4, 11670, Note_on_c, 2, 86, 0
4, 11670, Note_on_c, 2, 76, 0
4, 11700, Note_on_c, 2, 76, 85
4, 11700, Note_on_c, 2, 86, 85
4, 11790, Note_on_c, 2, 86, 0
4, 11790, Note_on_c, 2, 76, 0
4, 11820, Note_on_c, 2, 76, 85
4, 11820, Note_on_c, 2, 86, 85
4, 11910, Note_on_c, 2, 86, 0
4, 11910, Note_on_c, 2, 76, 0
4, 11940, Note_on_c, 2, 76, 85
4, 11940, Note_on_c, 2, 86, 85
4, 12000, Note_on_c, 2, 86, 0
4, 12000, Note_on_c, 2, 76, 0
4, 12000, Note_on_c, 2, 76, 92
4, 12000, Note_on_c, 2, 85, 92
4, 12045, Note_on_c, 2, 85, 0
4, 12045, Note_on_c, 2, 76, 0
4, 12060, Note_on_c, 2, 81, 85
4, 12105, Note_on_c, 2, 81, 0
4, 12120, Note_on_c, 2, 86, 85
4, 12165, Note_on_c, 2, 86, 0
4, 12180, Note_on_c, 2, 81, 85
4, 12225, Note_on_c, 2, 81, 0
4, 12240, Note_on_c, 2, 85, 85
4, 12285, Note_on_c, 2, 85, 0
4, 12300, Note_on_c, 2, 81, 85
4, 12345, Note_on_c, 2, 81, 0
4, 12360, Note_on_c, 2, 86, 85
4, 12405, Note_on_c, 2, 86, 0
4, 12420, Note_on_c, 2, 81, 85
4, 12465, Note_on_c, 2, 81, 0
4, 12480, Note_on_c, 2, 85, 94
4, 12525, Note_on_c, 2, 85, 0
4, 12540, Note_on_c, 2, 69, 85
4, 12585, Note_on_c, 2, 69, 0
4, 12600, Note_on_c, 2, 69, 85
4, 12645, Note_on_c, 2, 69, 0
4, 12660, Note_on_c, 2, 69, 85
4, 12705, Note_on_c, 2, 69, 0
4, 12720, Note_on_c, 2, 69, 85
4, 12840, Note_on_c, 2, 69, 0
4, 12950, Control_c, 2, 11, 77
4, 12960, Note_on_c, 2, 81, 55
4, 12964, Control_c, 2, 11, 80
4, 12966, Control_c, 2, 11, 82
4, 12970, Control_c, 2, 11, 83
4, 12974, Control_c, 2, 11, 85
4, 12978, Control_c, 2, 11, 87
4, 12994, Control_c, 2, 11, 93
4, 12998, Control_c, 2, 11, 101
4, 13010, Control_c, 2, 11, 107
4, 13022, Control_c, 2, 11, 113
4, 13034, Control_c, 2, 11, 115
4, 13038, Control_c, 2, 11, 117
4, 13042, Control_c, 2, 11, 118
4, 13044, Control_c, 2, 11, 119
4, 13048, Control_c, 2, 11, 120
4, 13052, Control_c, 2, 11, 121
4, 13056, Control_c, 2, 11, 122
4, 13058, Control_c, 2, 11, 123
4, 13060, Control_c, 2, 11, 124
4, 13064, Control_c, 2, 11, 127
4, 13140, Note_on_c, 2, 81, 0
4, 13140, Note_on_c, 2, 79, 55
4, 13160, Note_on_c, 2, 79, 0
4, 13160, Note_on_c, 2, 78, 55
4, 13180, Note_on_c, 2, 78, 0
4, 13180, Note_on_c, 2, 76, 55
4, 13200, Note_on_c, 2, 76, 0
4, 13200, Note_on_c, 2, 74, 55
4, 13260, Note_on_c, 2, 74, 0
4, 13320, Note_on_c, 2, 83, 55
4, 13380, Note_on_c, 2, 83, 0
4, 13440, Note_on_c, 2, 79, 55
4, 13500, Note_on_c, 2, 79, 0
4, 13560, Note_on_c, 2, 76, 55
4, 13620, Note_on_c, 2, 76, 0
4, 13680, Note_on_c, 2, 81, 55
4, 13740, Note_on_c, 2, 81, 0
4, 13920, Note_on_c, 2, 78, 55
4, 14100, Note_on_c, 2, 78, 0
4, 14100, Note_on_c, 2, 76, 55
4, 14120, Note_on_c, 2, 76, 0
4, 14120, Note_on_c, 2, 74, 55
4, 14140, Note_on_c, 2, 74, 0
4, 14140, Note_on_c, 2, 73, 55
4, 14160, Note_on_c, 2, 73, 0
4, 14160, Note_on_c, 2, 71, 55
4, 14220, Note_on_c, 2, 71, 0
4, 14280, Note_on_c, 2, 79, 55
4, 14340, Note_on_c, 2, 79, 0
4, 14400, Note_on_c, 2, 78, 55
4, 14640, Note_on_c, 2, 78, 0
4, 14640, Note_on_c, 2, 76, 49
4, 14760, Note_on_c, 2, 76, 0
4, 14940, Note_on_c, 2, 81, 55
4, 14970, Note_on_c, 2, 81, 0
4, 15000, Note_on_c, 2, 81, 55
4, 15030, Note_on_c, 2, 81, 0
4, 15060, Note_on_c, 2, 81, 55
4, 15090, Note_on_c, 2, 81, 0
4, 15120, Note_on_c, 2, 81, 55
4, 15150, Note_on_c, 2, 81, 0
4, 15180, Note_on_c, 2, 81, 55
4, 15210, Note_on_c, 2, 81, 0
4, 15240, Note_on_c, 2, 81, 55
4, 15270, Note_on_c, 2, 81, 0
4, 15300, Note_on_c, 2, 81, 55
4, 15330, Note_on_c, 2, 81, 0
4, 15360, Note_on_c, 2, 81, 55
4, 15390, Note_on_c, 2, 81, 0
4, 15420, Note_on_c, 2, 81, 55
4, 15450, Note_on_c, 2, 81, 0
4, 15480, Note_on_c, 2, 81, 55
4, 15510, Note_on_c, 2, 81, 0
4, 15540, Note_on_c, 2, 81, 55
4, 15570, Note_on_c, 2, 81, 0
4, 15600, Note_on_c, 2, 81, 55
4, 15630, Note_on_c, 2, 81, 0
4, 15660, Note_on_c, 2, 81, 55
4, 15690, Note_on_c, 2, 81, 0
4, 15720, Note_on_c, 2, 83, 55
4, 15750, Note_on_c, 2, 83, 0
4, 15780, Note_on_c, 2, 85, 55
4, 15810, Note_on_c, 2, 85, 0
4, 15840, Note_on_c, 2, 85, 55
4, 15900, Note_on_c, 2, 85, 0
4, 15900, Note_on_c, 2, 86, 55
4, 15960, Note_on_c, 2, 86, 0
4, 16020, Note_on_c, 2, 83, 55
4, 16050, Note_on_c, 2, 83, 0
4, 16080, Note_on_c, 2, 83, 55
4, 16140, Note_on_c, 2, 83, 0
4, 16140, Note_on_c, 2, 81, 55
4, 16200, Note_on_c, 2, 81, 0
4, 16260, Note_on_c, 2, 73, 55
4, 16305, Note_on_c, 2, 73, 0
4, 16320, Note_on_c, 2, 74, 55
4, 16440, Note_on_c, 2, 74, 0
4, 16500, Note_on_c, 2, 81, 55
4, 16530, Note_on_c, 2, 81, 0
4, 16560, Note_on_c, 2, 86, 55
4, 16620, Note_on_c, 2, 86, 0
4, 16620, Note_on_c, 2, 85, 55
4, 16680, Note_on_c, 2, 85, 0
4, 16680, Note_on_c, 2, 83, 55
4, 16740, Note_on_c, 2, 83, 0
4, 16740, Note_on_c, 2, 81, 55
4, 16800, Note_on_c, 2, 81, 0
4, 16800, Note_on_c, 2, 83, 55
4, 16815, Note_on_c, 2, 83, 0
4, 16815, Note_on_c, 2, 85, 55
4, 16830, Note_on_c, 2, 85, 0
4, 16830, Note_on_c, 2, 83, 55
4, 16845, Note_on_c, 2, 83, 0
4, 16845, Note_on_c, 2, 85, 55
4, 16860, Note_on_c, 2, 85, 0
4, 16860, Note_on_c, 2, 81, 55
4, 16920, Note_on_c, 2, 81, 0
4, 16980, Note_on_c, 2, 81, 55
4, 17010, Note_on_c, 2, 81, 0
4, 17040, Note_on_c, 2, 81, 55
4, 17070, Note_on_c, 2, 81, 0
4, 17100, Note_on_c, 2, 81, 55
4, 17130, Note_on_c, 2, 81, 0
4, 17160, Note_on_c, 2, 81, 55
4, 17190, Note_on_c, 2, 81, 0
4, 17220, Note_on_c, 2, 81, 55
4, 17250, Note_on_c, 2, 81, 0
4, 17280, Note_on_c, 2, 83, 55
4, 17295, Note_on_c, 2, 83, 0
4, 17295, Note_on_c, 2, 85, 55
4, 17310, Note_on_c, 2, 85, 0
4, 17310, Note_on_c, 2, 83, 55
4, 17325, Note_on_c, 2, 83, 0
4, 17325, Note_on_c, 2, 85, 55
4, 17340, Note_on_c, 2, 85, 0
4, 17340, Note_on_c, 2, 81, 55
4, 17400, Note_on_c, 2, 81, 0
4, 17460, Note_on_c, 2, 81, 55
4, 17505, Note_on_c, 2, 81, 0
4, 17520, Note_on_c, 2, 86, 55
4, 17580, Note_on_c, 2, 86, 0
4, 17580, Note_on_c, 2, 85, 55
4, 17640, Note_on_c, 2, 85, 0
4, 17640, Note_on_c, 2, 83, 55
4, 17700, Note_on_c, 2, 83, 0
4, 17700, Note_on_c, 2, 81, 55
4, 17760, Note_on_c, 2, 81, 0
4, 17760, Note_on_c, 2, 83, 55
4, 17775, Note_on_c, 2, 83, 0
4, 17775, Note_on_c, 2, 85, 55
4, 17790, Note_on_c, 2, 85, 0
4, 17790, Note_on_c, 2, 83, 55
4, 17805, Note_on_c, 2, 83, 0
4, 17805, Note_on_c, 2, 85, 55
4, 17820, Note_on_c, 2, 85, 0
4, 17820, Note_on_c, 2, 81, 55
4, 17880, Note_on_c, 2, 81, 0
4, 17940, Note_on_c, 2, 81, 55
4, 17970, Note_on_c, 2, 81, 0
4, 18000, Note_on_c, 2, 81, 55
4, 18030, Note_on_c, 2, 81, 0
4, 18060, Note_on_c, 2, 81, 55
4, 18090, Note_on_c, 2, 81, 0
4, 18120, Note_on_c, 2, 81, 55
4, 18150, Note_on_c, 2, 81, 0
4, 18180, Note_on_c, 2, 81, 53
4, 18210, Note_on_c, 2, 81, 0
4, 18240, Note_on_c, 2, 83, 49
4, 18255, Note_on_c, 2, 83, 0
4, 18255, Note_on_c, 2, 85, 49
4, 18270, Note_on_c, 2, 85, 0
4, 18270, Note_on_c, 2, 83, 47
4, 18285, Note_on_c, 2, 83, 0
4, 18285, Note_on_c, 2, 85, 47
4, 18300, Note_on_c, 2, 85, 0
4, 18300, Note_on_c, 2, 81, 46
4, 18360, Note_on_c, 2, 81, 0
4, 18480, Note_on_c, 2, 71, 91
4, 18480, Note_on_c, 2, 83, 91
4, 18650, Note_on_c, 2, 83, 0
4, 18650, Note_on_c, 2, 71, 0
4, 18660, Note_on_c, 2, 81, 89
4, 18680, Note_on_c, 2, 81, 0
4, 18680, Note_on_c, 2, 79, 92
4, 18700, Note_on_c, 2, 79, 0
4, 18700, Note_on_c, 2, 78, 94
4, 18720, Note_on_c, 2, 78, 0
4, 18720, Note_on_c, 2, 79, 97
4, 18840, Note_on_c, 2, 79, 0
4, 18960, Note_on_c, 2, 81, 85
4, 18960, Note_on_c, 2, 69, 85
4, 19130, Note_on_c, 2, 69, 0
4, 19130, Note_on_c, 2, 81, 0
4, 19140, Note_on_c, 2, 79, 86
4, 19160, Note_on_c, 2, 79, 0
4, 19160, Note_on_c, 2, 78, 86
4, 19180, Note_on_c, 2, 78, 0
4, 19180, Note_on_c, 2, 76, 89
4, 19200, Note_on_c, 2, 76, 0
4, 19200, Note_on_c, 2, 78, 92
4, 19320, Note_on_c, 2, 78, 0
4, 19440, Note_on_c, 2, 83, 85
4, 19500, Note_on_c, 2, 83, 0
4, 19500, Note_on_c, 2, 85, 85
4, 19530, Note_on_c, 2, 85, 0
4, 19530, Note_on_c, 2, 86, 89
4, 19560, Note_on_c, 2, 86, 0
4, 19560, Note_on_c, 2, 85, 94
4, 19605, Note_on_c, 2, 85, 0
4, 19620, Note_on_c, 2, 83, 95
4, 19650, Note_on_c, 2, 83, 0
4, 19680, Note_on_c, 2, 83, 97
4, 19740, Note_on_c, 2, 83, 0
4, 19740, Note_on_c, 2, 81, 101
4, 19785, Note_on_c, 2, 81, 0
4, 19800, Note_on_c, 2, 78, 104
4, 19830, Note_on_c, 2, 78, 0
4, 19860, Note_on_c, 2, 81, 104
4, 19890, Note_on_c, 2, 81, 0
4, 19920, Note_on_c, 2, 81, 104
4, 19980, Note_on_c, 2, 81, 0
4, 19980, Note_on_c, 2, 79, 103
4, 20025, Note_on_c, 2, 79, 0
4, 20040, Note_on_c, 2, 78, 98
4, 20070, Note_on_c, 2, 78, 0
4, 20100, Note_on_c, 2, 76, 89
4, 20130, Note_on_c, 2, 76, 0
4, 20160, Note_on_c, 2, 74, 85
4, 20280, Note_on_c, 2, 74, 0
4, 20340, Note_on_c, 2, 81, 53
4, 20370, Note_on_c, 2, 81, 0
4, 20400, Note_on_c, 2, 86, 53
4, 20460, Note_on_c, 2, 86, 0
4, 20460, Note_on_c, 2, 85, 53
4, 20520, Note_on_c, 2, 85, 0
4, 20520, Note_on_c, 2, 83, 53
4, 20580, Note_on_c, 2, 83, 0
4, 20580, Note_on_c, 2, 81, 53
4, 20640, Note_on_c, 2, 81, 0
4, 20640, Note_on_c, 2, 83, 55
4, 20655, Note_on_c, 2, 83, 0
4, 20655, Note_on_c, 2, 85, 55
4, 20670, Note_on_c, 2, 85, 0
4, 20670, Note_on_c, 2, 83, 55
4, 20685, Note_on_c, 2, 83, 0
4, 20685, Note_on_c, 2, 85, 55
4, 20700, Note_on_c, 2, 85, 0
4, 20700, Note_on_c, 2, 81, 55
4, 20760, Note_on_c, 2, 81, 0
4, 20820, Note_on_c, 2, 81, 55
4, 20850, Note_on_c, 2, 81, 0
4, 20880, Note_on_c, 2, 81, 55
4, 20910, Note_on_c, 2, 81, 0
4, 20940, Note_on_c, 2, 81, 55
4, 20970, Note_on_c, 2, 81, 0
4, 21000, Note_on_c, 2, 81, 55
4, 21030, Note_on_c, 2, 81, 0
4, 21060, Note_on_c, 2, 81, 55
4, 21090, Note_on_c, 2, 81, 0
4, 21120, Note_on_c, 2, 83, 55
4, 21135, Note_on_c, 2, 83, 0
4, 21135, Note_on_c, 2, 85, 55
4, 21150, Note_on_c, 2, 85, 0
4, 21150, Note_on_c, 2, 83, 55
4, 21165, Note_on_c, 2, 83, 0
4, 21165, Note_on_c, 2, 85, 55
4, 21180, Note_on_c, 2, 85, 0
4, 21180, Note_on_c, 2, 81, 55
4, 21240, Note_on_c, 2, 81, 0
4, 21300, Note_on_c, 2, 81, 55
4, 21345, Note_on_c, 2, 81, 0
4, 21360, Note_on_c, 2, 86, 55
4, 21420, Note_on_c, 2, 86, 0
4, 21420, Note_on_c, 2, 85, 55
4, 21480, Note_on_c, 2, 85, 0
4, 21480, Note_on_c, 2, 83, 55
4, 21540, Note_on_c, 2, 83, 0
4, 21540, Note_on_c, 2, 81, 55
4, 21600, Note_on_c, 2, 81, 0
4, 21600, Note_on_c, 2, 83, 55
4, 21615, Note_on_c, 2, 83, 0
4, 21615, Note_on_c, 2, 85, 55
4, 21630, Note_on_c, 2, 85, 0
4, 21630, Note_on_c, 2, 83, 55
4, 21645, Note_on_c, 2, 83, 0
4, 21645, Note_on_c, 2, 85, 55
4, 21660, Note_on_c, 2, 85, 0
4, 21660, Note_on_c, 2, 81, 55
4, 21720, Note_on_c, 2, 81, 0
4, 21780, Note_on_c, 2, 81, 55
4, 21810, Note_on_c, 2, 81, 0
4, 21840, Note_on_c, 2, 81, 55
4, 21870, Note_on_c, 2, 81, 0
4, 21900, Note_on_c, 2, 81, 55
4, 21930, Note_on_c, 2, 81, 0
4, 21960, Note_on_c, 2, 81, 55
4, 21990, Note_on_c, 2, 81, 0
4, 22020, Note_on_c, 2, 81, 55
4, 22050, Note_on_c, 2, 81, 0
4, 22080, Note_on_c, 2, 83, 59
4, 22095, Note_on_c, 2, 83, 0
4, 22095, Note_on_c, 2, 85, 59
4, 22110, Note_on_c, 2, 85, 0
4, 22110, Note_on_c, 2, 83, 59
4, 22125, Note_on_c, 2, 83, 0
4, 22125, Note_on_c, 2, 85, 59
4, 22140, Note_on_c, 2, 85, 0
4, 22140, Note_on_c, 2, 81, 59
4, 22200, Note_on_c, 2, 81, 0
4, 22320, Note_on_c, 2, 71, 85
4, 22320, Note_on_c, 2, 83, 85
4, 22490, Note_on_c, 2, 83, 0
4, 22490, Note_on_c, 2, 71, 0
4, 22500, Note_on_c, 2, 81, 85
4, 22520, Note_on_c, 2, 81, 0
4, 22520, Note_on_c, 2, 79, 85
4, 22540, Note_on_c, 2, 79, 0
4, 22540, Note_on_c, 2, 78, 85
4, 22560, Note_on_c, 2, 78, 0
4, 22560, Note_on_c, 2, 79, 85
4, 22680, Note_on_c, 2, 79, 0
4, 22800, Note_on_c, 2, 81, 85
4, 22800, Note_on_c, 2, 69, 85
4, 22970, Note_on_c, 2, 69, 0
4, 22970, Note_on_c, 2, 81, 0
4, 22980, Note_on_c, 2, 79, 85
4, 23000, Note_on_c, 2, 79, 0
4, 23000, Note_on_c, 2, 78, 85
4, 23020, Note_on_c, 2, 78, 0
4, 23020, Note_on_c, 2, 76, 85
4, 23040, Note_on_c, 2, 76, 0
4, 23040, Note_on_c, 2, 78, 85
4, 23160, Note_on_c, 2, 78, 0
4, 23280, Note_on_c, 2, 83, 80
4, 23340, Note_on_c, 2, 83, 0
4, 23340, Note_on_c, 2, 85, 82
4, 23370, Note_on_c, 2, 85, 0
4, 23370, Note_on_c, 2, 86, 83
4, 23400, Note_on_c, 2, 86, 0
4, 23400, Note_on_c, 2, 85, 83
4, 23445, Note_on_c, 2, 85, 0
4, 23460, Note_on_c, 2, 83, 85
4, 23490, Note_on_c, 2, 83, 0
4, 23520, Note_on_c, 2, 83, 86
4, 23580, Note_on_c, 2, 83, 0
4, 23580, Note_on_c, 2, 81, 88
4, 23625, Note_on_c, 2, 81, 0
4, 23640, Note_on_c, 2, 78, 88
4, 23670, Note_on_c, 2, 78, 0
4, 23700, Note_on_c, 2, 81, 88
4, 23730, Note_on_c, 2, 81, 0
4, 23760, Note_on_c, 2, 81, 88
4, 23820, Note_on_c, 2, 81, 0
4, 23820, Note_on_c, 2, 79, 88
4, 23865, Note_on_c, 2, 79, 0
4, 23880, Note_on_c, 2, 78, 88
4, 23910, Note_on_c, 2, 78, 0
4, 23940, Note_on_c, 2, 76, 88
4, 23970, Note_on_c, 2, 76, 0
4, 24000, Note_on_c, 2, 74, 88
4, 24045, Note_on_c, 2, 74, 0
4, 24060, Note_on_c, 2, 69, 88
4, 24105, Note_on_c, 2, 69, 0
4, 24120, Note_on_c, 2, 71, 88
4, 24165, Note_on_c, 2, 71, 0
4, 24180, Note_on_c, 2, 73, 85
4, 24225, Note_on_c, 2, 73, 0
4, 24240, Note_on_c, 2, 74, 82
4, 24270, Note_on_c, 2, 74, 0
4, 24300, Note_on_c, 2, 74, 85
4, 24330, Note_on_c, 2, 74, 0
4, 24360, Note_on_c, 2, 76, 85
4, 24375, Note_on_c, 2, 76, 0
4, 24375, Note_on_c, 2, 78, 85
4, 24390, Note_on_c, 2, 78, 0
4, 24390, Note_on_c, 2, 76, 85
4, 24405, Note_on_c, 2, 76, 0
4, 24405, Note_on_c, 2, 78, 85
4, 24420, Note_on_c, 2, 78, 0
4, 24420, Note_on_c, 2, 74, 85
4, 24450, Note_on_c, 2, 74, 0
4, 24450, Note_on_c, 2, 76, 85
4, 24480, Note_on_c, 2, 76, 0
4, 24480, Note_on_c, 2, 78, 85
4, 24540, Note_on_c, 2, 78, 0
4, 24540, Note_on_c, 2, 73, 85
4, 24585, Note_on_c, 2, 73, 0
4, 24600, Note_on_c, 2, 74, 85
4, 24645, Note_on_c, 2, 74, 0
4, 24660, Note_on_c, 2, 76, 85
4, 24705, Note_on_c, 2, 76, 0
4, 24720, Note_on_c, 2, 78, 85
4, 24765, Note_on_c, 2, 78, 0
4, 24780, Note_on_c, 2, 78, 85
4, 24825, Note_on_c, 2, 78, 0
4, 24840, Note_on_c, 2, 79, 85
4, 24855, Note_on_c, 2, 79, 0
4, 24855, Note_on_c, 2, 81, 86
4, 24870, Note_on_c, 2, 81, 0
4, 24870, Note_on_c, 2, 79, 88
4, 24885, Note_on_c, 2, 79, 0
4, 24885, Note_on_c, 2, 81, 88
4, 24900, Note_on_c, 2, 81, 0
4, 24900, Note_on_c, 2, 78, 88
4, 24930, Note_on_c, 2, 78, 0
4, 24930, Note_on_c, 2, 79, 88
4, 24960, Note_on_c, 2, 79, 0
4, 24960, Note_on_c, 2, 81, 88
4, 25005, Note_on_c, 2, 81, 0
4, 25020, Note_on_c, 2, 81, 91
4, 25065, Note_on_c, 2, 81, 0
4, 25080, Note_on_c, 2, 82, 92
4, 25095, Note_on_c, 2, 82, 0
4, 25095, Note_on_c, 2, 83, 92
4, 25110, Note_on_c, 2, 83, 0
4, 25110, Note_on_c, 2, 82, 94
4, 25125, Note_on_c, 2, 82, 0
4, 25125, Note_on_c, 2, 83, 94
4, 25140, Note_on_c, 2, 83, 0
4, 25140, Note_on_c, 2, 80, 95
4, 25170, Note_on_c, 2, 80, 0
4, 25170, Note_on_c, 2, 82, 97
4, 25200, Note_on_c, 2, 82, 0
4, 25200, Note_on_c, 2, 83, 100
4, 25320, Note_on_c, 2, 83, 0
4, 25440, Note_on_c, 2, 71, 47
4, 25620, Note_on_c, 2, 71, 0
4, 25620, Note_on_c, 2, 76, 47
4, 25665, Note_on_c, 2, 76, 0
4, 25680, Note_on_c, 2, 74, 47
4, 25740, Note_on_c, 2, 74, 0
4, 25740, Note_on_c, 2, 73, 47
4, 25800, Note_on_c, 2, 73, 0
4, 25800, Note_on_c, 2, 71, 49
4, 25860, Note_on_c, 2, 71, 0
4, 25860, Note_on_c, 2, 69, 50
4, 25920, Note_on_c, 2, 69, 0
4, 25920, Note_on_c, 2, 74, 50
4, 25980, Note_on_c, 2, 74, 0
4, 26040, Note_on_c, 2, 78, 50
4, 26100, Note_on_c, 2, 78, 0
4, 26160, Note_on_c, 2, 74, 41
4, 26220, Note_on_c, 2, 74, 0
4, 26400, Note_on_c, 2, 62, 85
4, 26400, Note_on_c, 2, 79, 85
4, 26400, Note_on_c, 2, 71, 85
4, 26520, Note_on_c, 2, 71, 0
4, 26520, Note_on_c, 2, 79, 0
4, 26520, Note_on_c, 2, 62, 0
4, 26580, Note_on_c, 2, 74, 85
4, 26610, Note_on_c, 2, 74, 0
4, 26640, Note_on_c, 2, 79, 85
4, 26760, Note_on_c, 2, 79, 0
4, 26820, Note_on_c, 2, 74, 85
4, 26850, Note_on_c, 2, 74, 0
4, 26880, Note_on_c, 2, 79, 85
4, 26910, Note_on_c, 2, 79, 0
4, 26940, Note_on_c, 2, 74, 85
4, 26970, Note_on_c, 2, 74, 0
4, 27000, Note_on_c, 2, 79, 85
4, 27030, Note_on_c, 2, 79, 0
4, 27060, Note_on_c, 2, 83, 85
4, 27090, Note_on_c, 2, 83, 0
4, 27120, Note_on_c, 2, 86, 85
4, 27240, Note_on_c, 2, 86, 0
4, 27360, Note_on_c, 2, 84, 85
4, 27480, Note_on_c, 2, 84, 0
4, 27540, Note_on_c, 2, 81, 76
4, 27570, Note_on_c, 2, 81, 0
4, 27600, Note_on_c, 2, 84, 85
4, 27720, Note_on_c, 2, 84, 0
4, 27780, Note_on_c, 2, 81, 76
4, 27810, Note_on_c, 2, 81, 0
4, 27840, Note_on_c, 2, 84, 85
4, 27870, Note_on_c, 2, 84, 0
4, 27900, Note_on_c, 2, 81, 74
4, 27930, Note_on_c, 2, 81, 0
4, 27960, Note_on_c, 2, 78, 85
4, 27990, Note_on_c, 2, 78, 0
4, 28020, Note_on_c, 2, 81, 71
4, 28050, Note_on_c, 2, 81, 0
4, 28080, Note_on_c, 2, 74, 85
4, 28200, Note_on_c, 2, 74, 0
4, 28320, Note_on_c, 2, 62, 85
4, 28320, Note_on_c, 2, 79, 85
4, 28320, Note_on_c, 2, 71, 85
4, 28380, Note_on_c, 2, 71, 0
4, 28380, Note_on_c, 2, 79, 0
4, 28380, Note_on_c, 2, 62, 0
4, 28440, Note_on_c, 2, 79, 85
4, 28620, Note_on_c, 2, 79, 0
4, 28620, Note_on_c, 2, 83, 85
4, 28680, Note_on_c, 2, 83, 0
4, 28680, Note_on_c, 2, 81, 85
4, 28710, Note_on_c, 2, 81, 0
4, 28740, Note_on_c, 2, 79, 85
4, 28770, Note_on_c, 2, 79, 0
4, 28800, Note_on_c, 2, 79, 85
4, 28815, Note_on_c, 2, 79, 0
4, 28815, Note_on_c, 2, 81, 85
4, 28830, Note_on_c, 2, 81, 0
4, 28830, Note_on_c, 2, 79, 85
4, 28845, Note_on_c, 2, 79, 0
4, 28845, Note_on_c, 2, 81, 85
4, 28860, Note_on_c, 2, 81, 0
4, 28860, Note_on_c, 2, 78, 85
4, 28910, Note_on_c, 2, 78, 0
4, 28920, Note_on_c, 2, 78, 85
4, 29100, Note_on_c, 2, 78, 0
4, 29100, Note_on_c, 2, 81, 85
4, 29160, Note_on_c, 2, 81, 0
4, 29160, Note_on_c, 2, 84, 85
4, 29190, Note_on_c, 2, 84, 0
4, 29220, Note_on_c, 2, 78, 85
4, 29250, Note_on_c, 2, 78, 0
4, 29280, Note_on_c, 2, 81, 85
4, 29340, Note_on_c, 2, 81, 0
4, 29340, Note_on_c, 2, 79, 85
4, 29370, Note_on_c, 2, 79, 0
4, 29400, Note_on_c, 2, 79, 85
4, 29580, Note_on_c, 2, 79, 0
4, 29580, Note_on_c, 2, 83, 85
4, 29640, Note_on_c, 2, 83, 0
4, 29640, Note_on_c, 2, 81, 85
4, 29670, Note_on_c, 2, 81, 0
4, 29700, Note_on_c, 2, 79, 85
4, 29730, Note_on_c, 2, 79, 0
4, 29760, Note_on_c, 2, 79, 85
4, 29775, Note_on_c, 2, 79, 0
4, 29775, Note_on_c, 2, 81, 85
4, 29790, Note_on_c, 2, 81, 0
4, 29790, Note_on_c, 2, 79, 85
4, 29805, Note_on_c, 2, 79, 0
4, 29805, Note_on_c, 2, 81, 85
4, 29820, Note_on_c, 2, 81, 0
4, 29820, Note_on_c, 2, 78, 85
4, 29870, Note_on_c, 2, 78, 0
4, 29880, Note_on_c, 2, 78, 85
4, 30060, Note_on_c, 2, 78, 0
4, 30060, Note_on_c, 2, 81, 85
4, 30120, Note_on_c, 2, 81, 0
4, 30120, Note_on_c, 2, 84, 85
4, 30150, Note_on_c, 2, 84, 0
4, 30180, Note_on_c, 2, 78, 85
4, 30210, Note_on_c, 2, 78, 0
4, 30240, Note_on_c, 2, 79, 85
4, 30270, Note_on_c, 2, 79, 0
4, 30300, Note_on_c, 2, 79, 85
4, 30330, Note_on_c, 2, 79, 0
4, 30360, Note_on_c, 2, 79, 85
4, 30390, Note_on_c, 2, 79, 0
4, 30390, Note_on_c, 2, 78, 85
4, 30420, Note_on_c, 2, 78, 0
4, 30420, Note_on_c, 2, 76, 85
4, 30450, Note_on_c, 2, 76, 0
4, 30450, Note_on_c, 2, 78, 85
4, 30480, Note_on_c, 2, 78, 0
4, 30480, Note_on_c, 2, 79, 85
4, 30510, Note_on_c, 2, 79, 0
4, 30540, Note_on_c, 2, 79, 85
4, 30570, Note_on_c, 2, 79, 0
4, 30600, Note_on_c, 2, 83, 85
4, 30630, Note_on_c, 2, 83, 0
4, 30630, Note_on_c, 2, 81, 85
4, 30660, Note_on_c, 2, 81, 0
4, 30660, Note_on_c, 2, 79, 85
4, 30690, Note_on_c, 2, 79, 0
4, 30690, Note_on_c, 2, 81, 85
4, 30720, Note_on_c, 2, 81, 0
4, 30720, Note_on_c, 2, 83, 85
4, 30750, Note_on_c, 2, 83, 0
4, 30780, Note_on_c, 2, 83, 85
4, 30810, Note_on_c, 2, 83, 0
4, 30840, Note_on_c, 2, 86, 85
4, 30870, Note_on_c, 2, 86, 0
4, 30870, Note_on_c, 2, 84, 85
4, 30900, Note_on_c, 2, 84, 0
4, 30900, Note_on_c, 2, 83, 85
4, 30930, Note_on_c, 2, 83, 0
4, 30930, Note_on_c, 2, 84, 85
4, 30960, Note_on_c, 2, 84, 0
4, 30960, Note_on_c, 2, 86, 85
4, 31080, Note_on_c, 2, 86, 0
4, 31200, Note_on_c, 2, 74, 52
4, 31440, Note_on_c, 2, 74, 0
4, 31440, Note_on_c, 2, 76, 40
4, 31680, Note_on_c, 2, 76, 0
4, 31680, Note_on_c, 2, 74, 44
4, 31710, Note_on_c, 2, 74, 0
4, 31710, Note_on_c, 2, 72, 46
4, 31790, Note_on_c, 2, 72, 0
4, 31800, Note_on_c, 2, 72, 46
4, 31920, Note_on_c, 2, 72, 0
4, 31920, Note_on_c, 2, 72, 47
4, 31950, Note_on_c, 2, 72, 0
4, 31950, Note_on_c, 2, 71, 47
4, 32030, Note_on_c, 2, 71, 0
4, 32040, Note_on_c, 2, 71, 47
4, 32160, Note_on_c, 2, 71, 0
4, 32160, Note_on_c, 2, 71, 47
4, 32190, Note_on_c, 2, 71, 0
4, 32190, Note_on_c, 2, 69, 47
4, 32270, Note_on_c, 2, 69, 0
4, 32280, Note_on_c, 2, 69, 47
4, 32400, Note_on_c, 2, 69, 0
4, 32400, Note_on_c, 2, 67, 47
4, 32460, Note_on_c, 2, 67, 0
4, 32460, Note_on_c, 2, 66, 47
4, 32490, Note_on_c, 2, 66, 0
4, 32520, Note_on_c, 2, 64, 47
4, 32550, Note_on_c, 2, 64, 0
4, 32580, Note_on_c, 2, 66, 47
4, 32610, Note_on_c, 2, 66, 0
4, 32640, Note_on_c, 2, 67, 47
4, 32700, Note_on_c, 2, 67, 0
4, 32760, Note_on_c, 2, 69, 47
4, 32820, Note_on_c, 2, 69, 0
4, 32880, Note_on_c, 2, 71, 47
4, 32940, Note_on_c, 2, 71, 0
4, 33120, Note_on_c, 2, 74, 54
4, 33360, Note_on_c, 2, 74, 0
4, 33360, Note_on_c, 2, 76, 59
4, 33600, Note_on_c, 2, 76, 0
4, 33600, Note_on_c, 2, 74, 47
4, 33660, Note_on_c, 2, 74, 0
4, 33660, Note_on_c, 2, 72, 47
4, 33690, Note_on_c, 2, 72, 0
4, 33720, Note_on_c, 2, 72, 47
4, 33750, Note_on_c, 2, 72, 0
4, 33780, Note_on_c, 2, 72, 47
4, 33810, Note_on_c, 2, 72, 0
4, 33840, Note_on_c, 2, 72, 47
4, 33900, Note_on_c, 2, 72, 0
4, 33900, Note_on_c, 2, 71, 47
4, 33930, Note_on_c, 2, 71, 0
4, 33960, Note_on_c, 2, 71, 47
4, 33990, Note_on_c, 2, 71, 0
4, 34020, Note_on_c, 2, 71, 47
4, 34050, Note_on_c, 2, 71, 0
4, 34080, Note_on_c, 2, 71, 47
4, 34140, Note_on_c, 2, 71, 0
4, 34140, Note_on_c, 2, 69, 47
4, 34170, Note_on_c, 2, 69, 0
4, 34200, Note_on_c, 2, 69, 47
4, 34245, Note_on_c, 2, 69, 0
4, 34260, Note_on_c, 2, 69, 47
4, 34305, Note_on_c, 2, 69, 0
4, 34320, Note_on_c, 2, 67, 47
4, 34380, Note_on_c, 2, 67, 0
4, 34380, Note_on_c, 2, 66, 47
4, 34440, Note_on_c, 2, 66, 0
4, 34440, Note_on_c, 2, 64, 47
4, 34500, Note_on_c, 2, 64, 0
4, 34500, Note_on_c, 2, 66, 47
4, 34560, Note_on_c, 2, 66, 0
4, 34560, Note_on_c, 2, 55, 95
4, 34560, Note_on_c, 2, 67, 95
4, 34860, Note_on_c, 2, 67, 0
4, 34860, Note_on_c, 2, 55, 0
4, 34860, Note_on_c, 2, 67, 61
4, 34875, Note_on_c, 2, 67, 0
4, 34875, Note_on_c, 2, 69, 61
4, 34890, Note_on_c, 2, 69, 0
4, 34890, Note_on_c, 2, 66, 61
4, 34905, Note_on_c, 2, 66, 0
4, 34905, Note_on_c, 2, 67, 61
4, 34920, Note_on_c, 2, 67, 0
4, 34920, Note_on_c, 2, 69, 61
4, 34980, Note_on_c, 2, 69, 0
4, 34980, Note_on_c, 2, 66, 61
4, 35040, Note_on_c, 2, 66, 0
4, 35040, Note_on_c, 2, 71, 85
4, 35340, Note_on_c, 2, 71, 0
4, 35340, Note_on_c, 2, 71, 61
4, 35355, Note_on_c, 2, 71, 0
4, 35355, Note_on_c, 2, 72, 61
4, 35370, Note_on_c, 2, 72, 0
4, 35370, Note_on_c, 2, 69, 61
4, 35385, Note_on_c, 2, 69, 0
4, 35385, Note_on_c, 2, 71, 61
4, 35400, Note_on_c, 2, 71, 0
4, 35400, Note_on_c, 2, 72, 61
4, 35460, Note_on_c, 2, 72, 0
4, 35460, Note_on_c, 2, 69, 61
4, 35520, Note_on_c, 2, 69, 0
4, 35520, Note_on_c, 2, 74, 46
4, 35540, Note_on_c, 2, 74, 0
4, 35550, Note_on_c, 2, 74, 46
4, 35570, Note_on_c, 2, 74, 0
4, 35580, Note_on_c, 2, 74, 47
4, 35600, Note_on_c, 2, 74, 0
4, 35610, Note_on_c, 2, 74, 47
4, 35630, Note_on_c, 2, 74, 0
4, 35640, Note_on_c, 2, 74, 49
4, 35660, Note_on_c, 2, 74, 0
4, 35670, Note_on_c, 2, 74, 50
4, 35690, Note_on_c, 2, 74, 0
4, 35700, Note_on_c, 2, 74, 50
4, 35720, Note_on_c, 2, 74, 0
4, 35730, Note_on_c, 2, 74, 52
4, 35750, Note_on_c, 2, 74, 0
4, 35760, Note_on_c, 2, 76, 53
4, 35780, Note_on_c, 2, 76, 0
4, 35790, Note_on_c, 2, 76, 53
4, 35810, Note_on_c, 2, 76, 0
4, 35820, Note_on_c, 2, 76, 55
4, 35840, Note_on_c, 2, 76, 0
4, 35850, Note_on_c, 2, 76, 56
4, 35870, Note_on_c, 2, 76, 0
4, 35880, Note_on_c, 2, 78, 56
4, 35900, Note_on_c, 2, 78, 0
4, 35910, Note_on_c, 2, 78, 58
4, 35930, Note_on_c, 2, 78, 0
4, 35940, Note_on_c, 2, 78, 58
4, 35960, Note_on_c, 2, 78, 0
4, 35970, Note_on_c, 2, 78, 59
4, 35990, Note_on_c, 2, 78, 0
4, 36000, Note_on_c, 2, 79, 61
4, 36020, Note_on_c, 2, 79, 0
4, 36030, Note_on_c, 2, 79, 61
4, 36050, Note_on_c, 2, 79, 0
4, 36060, Note_on_c, 2, 79, 62
4, 36080, Note_on_c, 2, 79, 0
4, 36090, Note_on_c, 2, 79, 64
4, 36110, Note_on_c, 2, 79, 0
4, 36120, Note_on_c, 2, 81, 64
4, 36140, Note_on_c, 2, 81, 0
4, 36150, Note_on_c, 2, 81, 65
4, 36170, Note_on_c, 2, 81, 0
4, 36180, Note_on_c, 2, 81, 67
4, 36200, Note_on_c, 2, 81, 0
4, 36210, Note_on_c, 2, 81, 67
4, 36230, Note_on_c, 2, 81, 0
4, 36240, Note_on_c, 2, 83, 68
4, 36260, Note_on_c, 2, 83, 0
4, 36270, Note_on_c, 2, 83, 68
4, 36290, Note_on_c, 2, 83, 0
4, 36300, Note_on_c, 2, 83, 70
4, 36320, Note_on_c, 2, 83, 0
4, 36330, Note_on_c, 2, 83, 71
4, 36350, Note_on_c, 2, 83, 0
4, 36360, Note_on_c, 2, 85, 71
4, 36380, Note_on_c, 2, 85, 0
4, 36390, Note_on_c, 2, 85, 73
4, 36410, Note_on_c, 2, 85, 0
4, 36420, Note_on_c, 2, 85, 74
4, 36440, Note_on_c, 2, 85, 0
4, 36450, Note_on_c, 2, 85, 74
4, 36470, Note_on_c, 2, 85, 0
4, 36480, Note_on_c, 2, 86, 92
4, 36660, Note_on_c, 2, 86, 0
4, 36660, Note_on_c, 2, 81, 85
4, 36720, Note_on_c, 2, 81, 0
4, 36720, Note_on_c, 2, 85, 85
4, 36810, Note_on_c, 2, 85, 0
4, 36810, Note_on_c, 2, 81, 85
4, 36840, Note_on_c, 2, 81, 0
4, 36840, Note_on_c, 2, 85, 85
4, 36930, Note_on_c, 2, 85, 0
4, 36930, Note_on_c, 2, 81, 85
4, 36960, Note_on_c, 2, 81, 0
4, 36960, Note_on_c, 2, 86, 98
4, 37140, Note_on_c, 2, 86, 0
4, 37140, Note_on_c, 2, 81, 85
4, 37200, Note_on_c, 2, 81, 0
4, 37200, Note_on_c, 2, 85, 85
4, 37290, Note_on_c, 2, 85, 0
4, 37290, Note_on_c, 2, 81, 85
4, 37320, Note_on_c, 2, 81, 0
4, 37320, Note_on_c, 2, 85, 85
4, 37410, Note_on_c, 2, 85, 0
4, 37410, Note_on_c, 2, 81, 85
4, 37440, Note_on_c, 2, 81, 0
4, 37440, Note_on_c, 2, 86, 85
4, 37470, Note_on_c, 2, 86, 0
4, 37500, Note_on_c, 2, 78, 98
4, 37500, Note_on_c, 2, 86, 98
4, 37590, Note_on_c, 2, 86, 0
4, 37590, Note_on_c, 2, 78, 0
4, 37620, Note_on_c, 2, 78, 85
4, 37620, Note_on_c, 2, 86, 85
4, 37710, Note_on_c, 2, 86, 0
4, 37710, Note_on_c, 2, 78, 0
4, 37740, Note_on_c, 2, 78, 85
4, 37740, Note_on_c, 2, 86, 85
4, 37830, Note_on_c, 2, 86, 0
4, 37830, Note_on_c, 2, 78, 0
4, 37860, Note_on_c, 2, 78, 85
4, 37860, Note_on_c, 2, 86, 85
4, 37920, Note_on_c, 2, 78, 0
4, 37920, Note_on_c, 2, 76, 85
4, 37950, Note_on_c, 2, 76, 0
4, 37950, Note_on_c, 2, 86, 0
4, 37980, Note_on_c, 2, 76, 85
4, 37980, Note_on_c, 2, 86, 85
4, 38070, Note_on_c, 2, 86, 0
4, 38070, Note_on_c, 2, 76, 0
4, 38100, Note_on_c, 2, 76, 85
4, 38100, Note_on_c, 2, 86, 85
4, 38190, Note_on_c, 2, 86, 0
4, 38190, Note_on_c, 2, 76, 0
4, 38220, Note_on_c, 2, 76, 85
4, 38220, Note_on_c, 2, 86, 85
4, 38310, Note_on_c, 2, 86, 0
4, 38310, Note_on_c, 2, 76, 0
4, 38340, Note_on_c, 2, 76, 85
4, 38340, Note_on_c, 2, 86, 85
4, 38400, Note_on_c, 2, 86, 0
4, 38400, Note_on_c, 2, 76, 0
4, 38400, Note_on_c, 2, 76, 97
4, 38400, Note_on_c, 2, 85, 97
4, 38445, Note_on_c, 2, 85, 0
4, 38445, Note_on_c, 2, 76, 0
4, 38460, Note_on_c, 2, 81, 85
4, 38505, Note_on_c, 2, 81, 0
4, 38520, Note_on_c, 2, 86, 85
4, 38565, Note_on_c, 2, 86, 0
4, 38580, Note_on_c, 2, 81, 85
4, 38625, Note_on_c, 2, 81, 0
4, 38640, Note_on_c, 2, 85, 85
4, 38685, Note_on_c, 2, 85, 0
4, 38700, Note_on_c, 2, 81, 85
4, 38745, Note_on_c, 2, 81, 0
4, 38760, Note_on_c, 2, 86, 85
4, 38805, Note_on_c, 2, 86, 0
4, 38820, Note_on_c, 2, 81, 85
4, 38865, Note_on_c, 2, 81, 0
4, 38880, Note_on_c, 2, 85, 97
4, 38925, Note_on_c, 2, 85, 0
4, 38940, Note_on_c, 2, 69, 85
4, 38985, Note_on_c, 2, 69, 0
4, 39000, Note_on_c, 2, 69, 85
4, 39045, Note_on_c, 2, 69, 0
4, 39060, Note_on_c, 2, 69, 85
4, 39105, Note_on_c, 2, 69, 0
4, 39120, Note_on_c, 2, 69, 85
4, 39240, Note_on_c, 2, 69, 0
4, 39360, Note_on_c, 2, 81, 55
4, 39540, Note_on_c, 2, 81, 0
4, 39540, Note_on_c, 2, 79, 55
4, 39560, Note_on_c, 2, 79, 0
4, 39560, Note_on_c, 2, 78, 55
4, 39580, Note_on_c, 2, 78, 0
4, 39580, Note_on_c, 2, 76, 55
4, 39600, Note_on_c, 2, 76, 0
4, 39600, Note_on_c, 2, 74, 55
4, 39660, Note_on_c, 2, 74, 0
4, 39720, Note_on_c, 2, 83, 55
4, 39780, Note_on_c, 2, 83, 0
4, 39840, Note_on_c, 2, 79, 55
4, 39900, Note_on_c, 2, 79, 0
4, 39960, Note_on_c, 2, 76, 55
4, 40020, Note_on_c, 2, 76, 0
4, 40080, Note_on_c, 2, 81, 55
4, 40140, Note_on_c, 2, 81, 0
4, 40320, Note_on_c, 2, 78, 55
4, 40500, Note_on_c, 2, 78, 0
4, 40500, Note_on_c, 2, 76, 55
4, 40520, Note_on_c, 2, 76, 0
4, 40520, Note_on_c, 2, 74, 55
4, 40540, Note_on_c, 2, 74, 0
4, 40540, Note_on_c, 2, 73, 55
4, 40560, Note_on_c, 2, 73, 0
4, 40560, Note_on_c, 2, 71, 55
4, 40620, Note_on_c, 2, 71, 0
4, 40680, Note_on_c, 2, 79, 55
4, 40740, Note_on_c, 2, 79, 0
4, 40800, Note_on_c, 2, 78, 55
4, 41040, Note_on_c, 2, 78, 0
4, 41040, Note_on_c, 2, 76, 43
4, 41160, Note_on_c, 2, 76, 0
4, 41340, Note_on_c, 2, 81, 55
4, 41370, Note_on_c, 2, 81, 0
4, 41400, Note_on_c, 2, 81, 55
4, 41430, Note_on_c, 2, 81, 0
4, 41460, Note_on_c, 2, 81, 55
4, 41490, Note_on_c, 2, 81, 0
4, 41520, Note_on_c, 2, 81, 55
4, 41550, Note_on_c, 2, 81, 0
4, 41580, Note_on_c, 2, 81, 55
4, 41610, Note_on_c, 2, 81, 0
4, 41640, Note_on_c, 2, 81, 55
4, 41670, Note_on_c, 2, 81, 0
4, 41700, Note_on_c, 2, 81, 55
4, 41730, Note_on_c, 2, 81, 0
4, 41760, Note_on_c, 2, 81, 55
4, 41790, Note_on_c, 2, 81, 0
4, 41820, Note_on_c, 2, 81, 55
4, 41850, Note_on_c, 2, 81, 0
4, 41880, Note_on_c, 2, 81, 55
4, 41910, Note_on_c, 2, 81, 0
4, 41940, Note_on_c, 2, 81, 55
4, 41970, Note_on_c, 2, 81, 0
4, 42000, Note_on_c, 2, 81, 55
4, 42030, Note_on_c, 2, 81, 0
4, 42060, Note_on_c, 2, 81, 55
4, 42090, Note_on_c, 2, 81, 0
4, 42120, Note_on_c, 2, 83, 55
4, 42150, Note_on_c, 2, 83, 0
4, 42180, Note_on_c, 2, 85, 55
4, 42210, Note_on_c, 2, 85, 0
4, 42240, Note_on_c, 2, 85, 55
4, 42300, Note_on_c, 2, 85, 0
4, 42300, Note_on_c, 2, 86, 55
4, 42360, Note_on_c, 2, 86, 0
4, 42420, Note_on_c, 2, 83, 55
4, 42450, Note_on_c, 2, 83, 0
4, 42480, Note_on_c, 2, 83, 55
4, 42540, Note_on_c, 2, 83, 0
4, 42540, Note_on_c, 2, 81, 55
4, 42600, Note_on_c, 2, 81, 0
4, 42660, Note_on_c, 2, 73, 55
4, 42705, Note_on_c, 2, 73, 0
4, 42720, Note_on_c, 2, 74, 55
4, 42840, Note_on_c, 2, 74, 0
4, 42900, Note_on_c, 2, 81, 55
4, 42930, Note_on_c, 2, 81, 0
4, 42960, Note_on_c, 2, 86, 55
4, 43020, Note_on_c, 2, 86, 0
4, 43020, Note_on_c, 2, 85, 55
4, 43080, Note_on_c, 2, 85, 0
4, 43080, Note_on_c, 2, 83, 55
4, 43140, Note_on_c, 2, 83, 0
4, 43140, Note_on_c, 2, 81, 55
4, 43200, Note_on_c, 2, 81, 0
4, 43200, Note_on_c, 2, 83, 55
4, 43215, Note_on_c, 2, 83, 0
4, 43215, Note_on_c, 2, 85, 55
4, 43230, Note_on_c, 2, 85, 0
4, 43230, Note_on_c, 2, 83, 55
4, 43245, Note_on_c, 2, 83, 0
4, 43245, Note_on_c, 2, 85, 55
4, 43260, Note_on_c, 2, 85, 0
4, 43260, Note_on_c, 2, 81, 55
4, 43320, Note_on_c, 2, 81, 0
4, 43380, Note_on_c, 2, 81, 55
4, 43410, Note_on_c, 2, 81, 0
4, 43440, Note_on_c, 2, 81, 55
4, 43470, Note_on_c, 2, 81, 0
4, 43500, Note_on_c, 2, 81, 55
4, 43530, Note_on_c, 2, 81, 0
4, 43560, Note_on_c, 2, 81, 55
4, 43590, Note_on_c, 2, 81, 0
4, 43620, Note_on_c, 2, 81, 55
4, 43650, Note_on_c, 2, 81, 0
4, 43680, Note_on_c, 2, 83, 55
4, 43695, Note_on_c, 2, 83, 0
4, 43695, Note_on_c, 2, 85, 55
4, 43710, Note_on_c, 2, 85, 0
4, 43710, Note_on_c, 2, 83, 55
4, 43725, Note_on_c, 2, 83, 0
4, 43725, Note_on_c, 2, 85, 55
4, 43740, Note_on_c, 2, 85, 0
4, 43740, Note_on_c, 2, 81, 55
4, 43800, Note_on_c, 2, 81, 0
4, 43860, Note_on_c, 2, 81, 55
4, 43905, Note_on_c, 2, 81, 0
4, 43920, Note_on_c, 2, 86, 55
4, 43980, Note_on_c, 2, 86, 0
4, 43980, Note_on_c, 2, 85, 55
4, 44040, Note_on_c, 2, 85, 0
4, 44040, Note_on_c, 2, 83, 55
4, 44100, Note_on_c, 2, 83, 0
4, 44100, Note_on_c, 2, 81, 55
4, 44160, Note_on_c, 2, 81, 0
4, 44160, Note_on_c, 2, 83, 55
4, 44175, Note_on_c, 2, 83, 0
4, 44175, Note_on_c, 2, 85, 55
4, 44190, Note_on_c, 2, 85, 0
4, 44190, Note_on_c, 2, 83, 55
4, 44205, Note_on_c, 2, 83, 0
4, 44205, Note_on_c, 2, 85, 55
4, 44220, Note_on_c, 2, 85, 0
4, 44220, Note_on_c, 2, 81, 55
4, 44280, Note_on_c, 2, 81, 0
4, 44340, Note_on_c, 2, 81, 55
4, 44370, Note_on_c, 2, 81, 0
4, 44400, Note_on_c, 2, 81, 55
4, 44430, Note_on_c, 2, 81, 0
4, 44460, Note_on_c, 2, 81, 55
4, 44490, Note_on_c, 2, 81, 0
4, 44520, Note_on_c, 2, 81, 55
4, 44550, Note_on_c, 2, 81, 0
4, 44580, Note_on_c, 2, 81, 55
4, 44610, Note_on_c, 2, 81, 0
4, 44640, Note_on_c, 2, 83, 55
4, 44655, Note_on_c, 2, 83, 0
4, 44655, Note_on_c, 2, 85, 55
4, 44670, Note_on_c, 2, 85, 0
4, 44670, Note_on_c, 2, 83, 55
4, 44685, Note_on_c, 2, 83, 0
4, 44685, Note_on_c, 2, 85, 55
4, 44700, Note_on_c, 2, 85, 0
4, 44700, Note_on_c, 2, 81, 55
4, 44760, Note_on_c, 2, 81, 0
4, 44880, Note_on_c, 2, 71, 94
4, 44880, Note_on_c, 2, 83, 94
4, 45050, Note_on_c, 2, 83, 0
4, 45050, Note_on_c, 2, 71, 0
4, 45060, Note_on_c, 2, 81, 83
4, 45080, Note_on_c, 2, 81, 0
4, 45080, Note_on_c, 2, 79, 83
4, 45100, Note_on_c, 2, 79, 0
4, 45100, Note_on_c, 2, 78, 83
4, 45120, Note_on_c, 2, 78, 0
4, 45120, Note_on_c, 2, 79, 83
4, 45240, Note_on_c, 2, 79, 0
4, 45360, Note_on_c, 2, 81, 85
4, 45360, Note_on_c, 2, 69, 85
4, 45530, Note_on_c, 2, 69, 0
4, 45530, Note_on_c, 2, 81, 0
4, 45540, Note_on_c, 2, 79, 85
4, 45560, Note_on_c, 2, 79, 0
4, 45560, Note_on_c, 2, 78, 85
4, 45580, Note_on_c, 2, 78, 0
4, 45580, Note_on_c, 2, 76, 85
4, 45600, Note_on_c, 2, 76, 0
4, 45600, Note_on_c, 2, 78, 85
4, 45720, Note_on_c, 2, 78, 0
4, 45840, Note_on_c, 2, 83, 79
4, 45900, Note_on_c, 2, 83, 0
4, 45900, Note_on_c, 2, 85, 80
4, 45930, Note_on_c, 2, 85, 0
4, 45930, Note_on_c, 2, 86, 82
4, 45960, Note_on_c, 2, 86, 0
4, 45960, Note_on_c, 2, 85, 82
4, 46005, Note_on_c, 2, 85, 0
4, 46020, Note_on_c, 2, 83, 82
4, 46050, Note_on_c, 2, 83, 0
4, 46080, Note_on_c, 2, 83, 83
4, 46140, Note_on_c, 2, 83, 0
4, 46140, Note_on_c, 2, 81, 86
4, 46185, Note_on_c, 2, 81, 0
4, 46200, Note_on_c, 2, 78, 86
4, 46230, Note_on_c, 2, 78, 0
4, 46260, Note_on_c, 2, 81, 88
4, 46290, Note_on_c, 2, 81, 0
4, 46320, Note_on_c, 2, 81, 88
4, 46380, Note_on_c, 2, 81, 0
4, 46380, Note_on_c, 2, 79, 83
4, 46425, Note_on_c, 2, 79, 0
4, 46440, Note_on_c, 2, 78, 79
4, 46470, Note_on_c, 2, 78, 0
4, 46500, Note_on_c, 2, 76, 76
4, 46530, Note_on_c, 2, 76, 0
4, 46560, Note_on_c, 2, 74, 85
4, 46680, Note_on_c, 2, 74, 0
4, 46740, Note_on_c, 2, 81, 53
4, 46770, Note_on_c, 2, 81, 0
4, 46800, Note_on_c, 2, 86, 53
4, 46860, Note_on_c, 2, 86, 0
4, 46860, Note_on_c, 2, 85, 53
4, 46920, Note_on_c, 2, 85, 0
4, 46920, Note_on_c, 2, 83, 53
4, 46980, Note_on_c, 2, 83, 0
4, 46980, Note_on_c, 2, 81, 53
4, 47040, Note_on_c, 2, 81, 0
4, 47040, Note_on_c, 2, 83, 55
4, 47055, Note_on_c, 2, 83, 0
4, 47055, Note_on_c, 2, 85, 55
4, 47070, Note_on_c, 2, 85, 0
4, 47070, Note_on_c, 2, 83, 55
4, 47085, Note_on_c, 2, 83, 0
4, 47085, Note_on_c, 2, 85, 55
4, 47100, Note_on_c, 2, 85, 0
4, 47100, Note_on_c, 2, 81, 55
4, 47160, Note_on_c, 2, 81, 0
4, 47220, Note_on_c, 2, 81, 55
4, 47250, Note_on_c, 2, 81, 0
4, 47280, Note_on_c, 2, 81, 55
4, 47310, Note_on_c, 2, 81, 0
4, 47340, Note_on_c, 2, 81, 55
4, 47370, Note_on_c, 2, 81, 0
4, 47400, Note_on_c, 2, 81, 55
4, 47430, Note_on_c, 2, 81, 0
4, 47460, Note_on_c, 2, 81, 55
4, 47490, Note_on_c, 2, 81, 0
4, 47520, Note_on_c, 2, 83, 55
4, 47535, Note_on_c, 2, 83, 0
4, 47535, Note_on_c, 2, 85, 55
4, 47550, Note_on_c, 2, 85, 0
4, 47550, Note_on_c, 2, 83, 55
4, 47565, Note_on_c, 2, 83, 0
4, 47565, Note_on_c, 2, 85, 55
4, 47580, Note_on_c, 2, 85, 0
4, 47580, Note_on_c, 2, 81, 55
4, 47640, Note_on_c, 2, 81, 0
4, 47700, Note_on_c, 2, 81, 55
4, 47745, Note_on_c, 2, 81, 0
4, 47760, Note_on_c, 2, 86, 55
4, 47820, Note_on_c, 2, 86, 0
4, 47820, Note_on_c, 2, 85, 55
4, 47880, Note_on_c, 2, 85, 0
4, 47880, Note_on_c, 2, 83, 55
4, 47940, Note_on_c, 2, 83, 0
4, 47940, Note_on_c, 2, 81, 55
4, 48000, Note_on_c, 2, 81, 0
4, 48000, Note_on_c, 2, 83, 55
4, 48015, Note_on_c, 2, 83, 0
4, 48015, Note_on_c, 2, 85, 55
4, 48030, Note_on_c, 2, 85, 0
4, 48030, Note_on_c, 2, 83, 55
4, 48045, Note_on_c, 2, 83, 0
4, 48045, Note_on_c, 2, 85, 55
4, 48060, Note_on_c, 2, 85, 0
4, 48060, Note_on_c, 2, 81, 55
4, 48120, Note_on_c, 2, 81, 0
4, 48180, Note_on_c, 2, 81, 55
4, 48210, Note_on_c, 2, 81, 0
4, 48240, Note_on_c, 2, 81, 55
4, 48270, Note_on_c, 2, 81, 0
4, 48300, Note_on_c, 2, 81, 55
4, 48330, Note_on_c, 2, 81, 0
4, 48360, Note_on_c, 2, 81, 55
4, 48390, Note_on_c, 2, 81, 0
4, 48420, Note_on_c, 2, 81, 55
4, 48450, Note_on_c, 2, 81, 0
4, 48480, Note_on_c, 2, 83, 59
4, 48495, Note_on_c, 2, 83, 0
4, 48495, Note_on_c, 2, 85, 59
4, 48510, Note_on_c, 2, 85, 0
4, 48510, Note_on_c, 2, 83, 59
4, 48525, Note_on_c, 2, 83, 0
4, 48525, Note_on_c, 2, 85, 59
4, 48540, Note_on_c, 2, 85, 0
4, 48540, Note_on_c, 2, 81, 59
4, 48600, Note_on_c, 2, 81, 0
4, 48720, Note_on_c, 2, 71, 85
4, 48720, Note_on_c, 2, 83, 85
4, 48890, Note_on_c, 2, 83, 0
4, 48890, Note_on_c, 2, 71, 0
4, 48900, Note_on_c, 2, 81, 85
4, 48920, Note_on_c, 2, 81, 0
4, 48920, Note_on_c, 2, 79, 85
4, 48940, Note_on_c, 2, 79, 0
4, 48940, Note_on_c, 2, 78, 85
4, 48960, Note_on_c, 2, 78, 0
4, 48960, Note_on_c, 2, 79, 85
4, 49080, Note_on_c, 2, 79, 0
4, 49200, Note_on_c, 2, 81, 85
4, 49200, Note_on_c, 2, 69, 85
4, 49370, Note_on_c, 2, 69, 0
4, 49370, Note_on_c, 2, 81, 0
4, 49380, Note_on_c, 2, 79, 85
4, 49400, Note_on_c, 2, 79, 0
4, 49400, Note_on_c, 2, 78, 85
4, 49420, Note_on_c, 2, 78, 0
4, 49420, Note_on_c, 2, 76, 85
4, 49440, Note_on_c, 2, 76, 0
4, 49440, Note_on_c, 2, 78, 85
4, 49560, Note_on_c, 2, 78, 0
4, 49680, Note_on_c, 2, 83, 85
4, 49740, Note_on_c, 2, 83, 0
4, 49740, Note_on_c, 2, 85, 85
4, 49770, Note_on_c, 2, 85, 0
4, 49770, Note_on_c, 2, 86, 85
4, 49800, Note_on_c, 2, 86, 0
4, 49800, Note_on_c, 2, 85, 85
4, 49845, Note_on_c, 2, 85, 0
4, 49860, Note_on_c, 2, 83, 85
4, 49890, Note_on_c, 2, 83, 0
4, 49920, Note_on_c, 2, 83, 95
4, 49980, Note_on_c, 2, 83, 0
4, 49980, Note_on_c, 2, 81, 85
4, 50025, Note_on_c, 2, 81, 0
4, 50040, Note_on_c, 2, 78, 85
4, 50070, Note_on_c, 2, 78, 0
4, 50100, Note_on_c, 2, 81, 85
4, 50130, Note_on_c, 2, 81, 0
4, 50160, Note_on_c, 2, 81, 85
4, 50220, Note_on_c, 2, 81, 0
4, 50220, Note_on_c, 2, 79, 85
4, 50265, Note_on_c, 2, 79, 0
4, 50280, Note_on_c, 2, 78, 85
4, 50310, Note_on_c, 2, 78, 0
4, 50340, Note_on_c, 2, 76, 85
4, 50370, Note_on_c, 2, 76, 0
4, 50400, Note_on_c, 2, 74, 85
4, 50445, Note_on_c, 2, 74, 0
4, 50460, Note_on_c, 2, 69, 85
4, 50505, Note_on_c, 2, 69, 0
4, 50520, Note_on_c, 2, 71, 85
4, 50565, Note_on_c, 2, 71, 0
4, 50580, Note_on_c, 2, 73, 85
4, 50625, Note_on_c, 2, 73, 0
4, 50640, Note_on_c, 2, 74, 85
4, 50670, Note_on_c, 2, 74, 0
4, 50700, Note_on_c, 2, 74, 85
4, 50730, Note_on_c, 2, 74, 0
4, 50760, Note_on_c, 2, 76, 85
4, 50775, Note_on_c, 2, 76, 0
4, 50775, Note_on_c, 2, 78, 85
4, 50790, Note_on_c, 2, 78, 0
4, 50790, Note_on_c, 2, 76, 85
4, 50805, Note_on_c, 2, 76, 0
4, 50805, Note_on_c, 2, 78, 85
4, 50820, Note_on_c, 2, 78, 0
4, 50820, Note_on_c, 2, 74, 85
4, 50850, Note_on_c, 2, 74, 0
4, 50850, Note_on_c, 2, 76, 85
4, 50880, Note_on_c, 2, 76, 0
4, 50880, Note_on_c, 2, 78, 85
4, 50940, Note_on_c, 2, 78, 0
4, 50940, Note_on_c, 2, 73, 85
4, 50985, Note_on_c, 2, 73, 0
4, 51000, Note_on_c, 2, 74, 85
4, 51045, Note_on_c, 2, 74, 0
4, 51060, Note_on_c, 2, 76, 85
4, 51105, Note_on_c, 2, 76, 0
4, 51120, Note_on_c, 2, 78, 85
4, 51165, Note_on_c, 2, 78, 0
4, 51180, Note_on_c, 2, 78, 85
4, 51225, Note_on_c, 2, 78, 0
4, 51240, Note_on_c, 2, 79, 85
4, 51255, Note_on_c, 2, 79, 0
4, 51255, Note_on_c, 2, 81, 86
4, 51270, Note_on_c, 2, 81, 0
4, 51270, Note_on_c, 2, 79, 86
4, 51285, Note_on_c, 2, 79, 0
4, 51285, Note_on_c, 2, 81, 86
4, 51300, Note_on_c, 2, 81, 0
4, 51300, Note_on_c, 2, 78, 86
4, 51330, Note_on_c, 2, 78, 0
4, 51330, Note_on_c, 2, 79, 88
4, 51360, Note_on_c, 2, 79, 0
4, 51360, Note_on_c, 2, 81, 88
4, 51405, Note_on_c, 2, 81, 0
4, 51420, Note_on_c, 2, 81, 88
4, 51465, Note_on_c, 2, 81, 0
4, 51480, Note_on_c, 2, 82, 89
4, 51495, Note_on_c, 2, 82, 0
4, 51495, Note_on_c, 2, 83, 91
4, 51510, Note_on_c, 2, 83, 0
4, 51510, Note_on_c, 2, 82, 91
4, 51525, Note_on_c, 2, 82, 0
4, 51525, Note_on_c, 2, 83, 91
4, 51540, Note_on_c, 2, 83, 0
4, 51540, Note_on_c, 2, 80, 92
4, 51570, Note_on_c, 2, 80, 0
4, 51570, Note_on_c, 2, 82, 94
4, 51600, Note_on_c, 2, 82, 0
4, 51600, Note_on_c, 2, 83, 98
4, 51720, Note_on_c, 2, 83, 0
4, 51840, Note_on_c, 2, 71, 40
4, 52020, Note_on_c, 2, 71, 0
4, 52020, Note_on_c, 2, 76, 47
4, 52065, Note_on_c, 2, 76, 0
4, 52080, Note_on_c, 2, 74, 49
4, 52140, Note_on_c, 2, 74, 0
4, 52140, Note_on_c, 2, 73, 49
4, 52200, Note_on_c, 2, 73, 0
4, 52200, Note_on_c, 2, 71, 43
4, 52260, Note_on_c, 2, 71, 0
4, 52260, Note_on_c, 2, 69, 41
4, 52320, Note_on_c, 2, 69, 0
4, 52320, Note_on_c, 2, 74, 40
4, 52380, Note_on_c, 2, 74, 0
4, 52440, Note_on_c, 2, 78, 59
4, 52500, Note_on_c, 2, 78, 0
4, 52560, Note_on_c, 2, 74, 57
4, 52620, Note_on_c, 2, 74, 0
4, 52800, Note_on_c, 2, 62, 100
4, 52800, Note_on_c, 2, 74, 100
4, 52920, Note_on_c, 2, 74, 0
4, 52920, Note_on_c, 2, 62, 0
4, 52980, Note_on_c, 2, 69, 91
4, 53025, Note_on_c, 2, 69, 0
4, 53040, Note_on_c, 2, 74, 91
4, 53160, Note_on_c, 2, 74, 0
4, 53220, Note_on_c, 2, 69, 91
4, 53265, Note_on_c, 2, 69, 0
4, 53280, Note_on_c, 2, 74, 91
4, 53325, Note_on_c, 2, 74, 0
4, 53340, Note_on_c, 2, 69, 91
4, 53385, Note_on_c, 2, 69, 0
4, 53400, Note_on_c, 2, 74, 91
4, 53445, Note_on_c, 2, 74, 0
4, 53460, Note_on_c, 2, 78, 91
4, 53505, Note_on_c, 2, 78, 0
4, 53520, Note_on_c, 2, 81, 91
4, 53640, Note_on_c, 2, 81, 0
4, 53760, Note_on_c, 2, 81, 91
4, 53880, Note_on_c, 2, 81, 0
4, 53940, Note_on_c, 2, 78, 91
4, 53985, Note_on_c, 2, 78, 0
4, 54000, Note_on_c, 2, 81, 91
4, 54120, Note_on_c, 2, 81, 0
4, 54180, Note_on_c, 2, 78, 91
4, 54225, Note_on_c, 2, 78, 0
4, 54240, Note_on_c, 2, 81, 91
4, 54285, Note_on_c, 2, 81, 0
4, 54300, Note_on_c, 2, 78, 91
4, 54345, Note_on_c, 2, 78, 0
4, 54360, Note_on_c, 2, 75, 91
4, 54405, Note_on_c, 2, 75, 0
4, 54420, Note_on_c, 2, 78, 91
4, 54465, Note_on_c, 2, 78, 0
4, 54480, Note_on_c, 2, 71, 91
4, 54600, Note_on_c, 2, 71, 0
4, 54900, Note_on_c, 2, 79, 55
4, 54945, Note_on_c, 2, 79, 0
4, 54960, Note_on_c, 2, 84, 55
4, 55020, Note_on_c, 2, 84, 0
4, 55020, Note_on_c, 2, 83, 55
4, 55080, Note_on_c, 2, 83, 0
4, 55080, Note_on_c, 2, 81, 55
4, 55140, Note_on_c, 2, 81, 0
4, 55140, Note_on_c, 2, 79, 55
4, 55200, Note_on_c, 2, 79, 0
4, 55200, Note_on_c, 2, 81, 55
4, 55215, Note_on_c, 2, 81, 0
4, 55215, Note_on_c, 2, 83, 55
4, 55230, Note_on_c, 2, 83, 0
4, 55230, Note_on_c, 2, 81, 55
4, 55245, Note_on_c, 2, 81, 0
4, 55245, Note_on_c, 2, 83, 55
4, 55260, Note_on_c, 2, 83, 0
4, 55260, Note_on_c, 2, 79, 55
4, 55320, Note_on_c, 2, 79, 0
4, 55380, Note_on_c, 2, 79, 55
4, 55410, Note_on_c, 2, 79, 0
4, 55440, Note_on_c, 2, 79, 55
4, 55470, Note_on_c, 2, 79, 0
4, 55500, Note_on_c, 2, 79, 55
4, 55530, Note_on_c, 2, 79, 0
4, 55560, Note_on_c, 2, 79, 55
4, 55590, Note_on_c, 2, 79, 0
4, 55620, Note_on_c, 2, 79, 55
4, 55650, Note_on_c, 2, 79, 0
4, 55680, Note_on_c, 2, 81, 55
4, 55695, Note_on_c, 2, 81, 0
4, 55695, Note_on_c, 2, 83, 55
4, 55710, Note_on_c, 2, 83, 0
4, 55710, Note_on_c, 2, 81, 55
4, 55725, Note_on_c, 2, 81, 0
4, 55725, Note_on_c, 2, 83, 55
4, 55740, Note_on_c, 2, 83, 0
4, 55740, Note_on_c, 2, 79, 55
4, 55800, Note_on_c, 2, 79, 0
4, 55860, Note_on_c, 2, 79, 55
4, 55905, Note_on_c, 2, 79, 0
4, 55920, Note_on_c, 2, 84, 55
4, 55980, Note_on_c, 2, 84, 0
4, 55980, Note_on_c, 2, 83, 55
4, 56040, Note_on_c, 2, 83, 0
4, 56040, Note_on_c, 2, 81, 55
4, 56100, Note_on_c, 2, 81, 0
4, 56100, Note_on_c, 2, 79, 55
4, 56160, Note_on_c, 2, 79, 0
4, 56160, Note_on_c, 2, 81, 55
4, 56175, Note_on_c, 2, 81, 0
4, 56175, Note_on_c, 2, 83, 55
4, 56190, Note_on_c, 2, 83, 0
4, 56190, Note_on_c, 2, 81, 55
4, 56205, Note_on_c, 2, 81, 0
4, 56205, Note_on_c, 2, 83, 55
4, 56220, Note_on_c, 2, 83, 0
4, 56220, Note_on_c, 2, 79, 55
4, 56280, Note_on_c, 2, 79, 0
4, 56340, Note_on_c, 2, 79, 55
4, 56370, Note_on_c, 2, 79, 0
4, 56400, Note_on_c, 2, 79, 55
4, 56430, Note_on_c, 2, 79, 0
4, 56460, Note_on_c, 2, 79, 55
4, 56490, Note_on_c, 2, 79, 0
4, 56520, Note_on_c, 2, 79, 55
4, 56550, Note_on_c, 2, 79, 0
4, 56580, Note_on_c, 2, 79, 55
4, 56610, Note_on_c, 2, 79, 0
4, 56640, Note_on_c, 2, 81, 55
4, 56655, Note_on_c, 2, 81, 0
4, 56655, Note_on_c, 2, 83, 55
4, 56670, Note_on_c, 2, 83, 0
4, 56670, Note_on_c, 2, 81, 55
4, 56685, Note_on_c, 2, 81, 0
4, 56685, Note_on_c, 2, 83, 55
4, 56700, Note_on_c, 2, 83, 0
4, 56700, Note_on_c, 2, 79, 55
4, 56760, Note_on_c, 2, 79, 0
4, 56820, Note_on_c, 2, 79, 55
4, 56865, Note_on_c, 2, 79, 0
4, 56880, Note_on_c, 2, 84, 55
4, 56940, Note_on_c, 2, 84, 0
4, 56940, Note_on_c, 2, 83, 55
4, 57000, Note_on_c, 2, 83, 0
4, 57000, Note_on_c, 2, 81, 55
4, 57060, Note_on_c, 2, 81, 0
4, 57060, Note_on_c, 2, 79, 55
4, 57120, Note_on_c, 2, 79, 0
4, 57120, Note_on_c, 2, 81, 55
4, 57135, Note_on_c, 2, 81, 0
4, 57135, Note_on_c, 2, 83, 55
4, 57150, Note_on_c, 2, 83, 0
4, 57150, Note_on_c, 2, 81, 55
4, 57165, Note_on_c, 2, 81, 0
4, 57165, Note_on_c, 2, 83, 55
4, 57180, Note_on_c, 2, 83, 0
4, 57180, Note_on_c, 2, 80, 55
4, 57240, Note_on_c, 2, 80, 0
4, 57300, Note_on_c, 2, 80, 55
4, 57330, Note_on_c, 2, 80, 0
4, 57360, Note_on_c, 2, 80, 55
4, 57390, Note_on_c, 2, 80, 0
4, 57420, Note_on_c, 2, 80, 55
4, 57450, Note_on_c, 2, 80, 0
4, 57480, Note_on_c, 2, 80, 55
4, 57510, Note_on_c, 2, 80, 0
4, 57540, Note_on_c, 2, 80, 55
4, 57570, Note_on_c, 2, 80, 0
4, 57600, Note_on_c, 2, 83, 55
4, 57615, Note_on_c, 2, 83, 0
4, 57615, Note_on_c, 2, 84, 55
4, 57630, Note_on_c, 2, 84, 0
4, 57630, Note_on_c, 2, 83, 55
4, 57645, Note_on_c, 2, 83, 0
4, 57645, Note_on_c, 2, 84, 55
4, 57660, Note_on_c, 2, 84, 0
4, 57660, Note_on_c, 2, 81, 55
4, 57720, Note_on_c, 2, 81, 0
4, 57780, Note_on_c, 2, 81, 55
4, 57825, Note_on_c, 2, 81, 0
4, 57840, Note_on_c, 2, 84, 55
4, 57900, Note_on_c, 2, 84, 0
4, 57900, Note_on_c, 2, 82, 55
4, 57960, Note_on_c, 2, 82, 0
4, 57960, Note_on_c, 2, 81, 55
4, 58020, Note_on_c, 2, 81, 0
4, 58020, Note_on_c, 2, 79, 55
4, 58080, Note_on_c, 2, 79, 0
4, 58080, Note_on_c, 2, 79, 55
4, 58095, Note_on_c, 2, 79, 0
4, 58095, Note_on_c, 2, 81, 55
4, 58110, Note_on_c, 2, 81, 0
4, 58110, Note_on_c, 2, 79, 55
4, 58125, Note_on_c, 2, 79, 0
4, 58125, Note_on_c, 2, 81, 55
4, 58140, Note_on_c, 2, 81, 0
4, 58140, Note_on_c, 2, 78, 55
4, 58200, Note_on_c, 2, 78, 0
4, 58260, Note_on_c, 2, 78, 55
4, 58290, Note_on_c, 2, 78, 0
4, 58320, Note_on_c, 2, 78, 55
4, 58350, Note_on_c, 2, 78, 0
4, 58380, Note_on_c, 2, 78, 55
4, 58410, Note_on_c, 2, 78, 0
4, 58440, Note_on_c, 2, 78, 55
4, 58470, Note_on_c, 2, 78, 0
4, 58500, Note_on_c, 2, 78, 55
4, 58530, Note_on_c, 2, 78, 0
4, 58560, Note_on_c, 2, 81, 55
4, 58575, Note_on_c, 2, 81, 0
4, 58575, Note_on_c, 2, 82, 55
4, 58590, Note_on_c, 2, 82, 0
4, 58590, Note_on_c, 2, 81, 55
4, 58605, Note_on_c, 2, 81, 0
4, 58605, Note_on_c, 2, 82, 55
4, 58620, Note_on_c, 2, 82, 0
4, 58620, Note_on_c, 2, 79, 55
4, 58680, Note_on_c, 2, 79, 0
4, 58740, Note_on_c, 2, 75, 55
4, 58785, Note_on_c, 2, 75, 0
4, 58800, Note_on_c, 2, 79, 55
4, 58860, Note_on_c, 2, 79, 0
4, 58860, Note_on_c, 2, 77, 55
4, 58920, Note_on_c, 2, 77, 0
4, 58920, Note_on_c, 2, 76, 55
4, 58980, Note_on_c, 2, 76, 0
4, 58980, Note_on_c, 2, 74, 55
4, 59040, Note_on_c, 2, 74, 0
4, 59040, Note_on_c, 2, 74, 55
4, 59055, Note_on_c, 2, 74, 0
4, 59055, Note_on_c, 2, 75, 55
4, 59070, Note_on_c, 2, 75, 0
4, 59070, Note_on_c, 2, 74, 55
4, 59085, Note_on_c, 2, 74, 0
4, 59085, Note_on_c, 2, 75, 55
4, 59100, Note_on_c, 2, 75, 0
4, 59100, Note_on_c, 2, 73, 55
4, 59160, Note_on_c, 2, 73, 0
4, 59220, Note_on_c, 2, 73, 55
4, 59250, Note_on_c, 2, 73, 0
4, 59280, Note_on_c, 2, 73, 55
4, 59310, Note_on_c, 2, 73, 0
4, 59340, Note_on_c, 2, 73, 55
4, 59370, Note_on_c, 2, 73, 0
4, 59400, Note_on_c, 2, 73, 55
4, 59430, Note_on_c, 2, 73, 0
4, 59460, Note_on_c, 2, 73, 55
4, 59490, Note_on_c, 2, 73, 0
4, 59520, Note_on_c, 2, 76, 53
4, 59535, Note_on_c, 2, 76, 0
4, 59535, Note_on_c, 2, 78, 53
4, 59550, Note_on_c, 2, 78, 0
4, 59550, Note_on_c, 2, 76, 53
4, 59565, Note_on_c, 2, 76, 0
4, 59565, Note_on_c, 2, 78, 53
4, 59580, Note_on_c, 2, 78, 0
4, 59580, Note_on_c, 2, 74, 53
4, 59640, Note_on_c, 2, 74, 0
4, 59700, Note_on_c, 2, 62, 91
4, 59760, Note_on_c, 2, 62, 0
4, 59760, Note_on_c, 2, 64, 91
4, 59820, Note_on_c, 2, 64, 0
4, 59820, Note_on_c, 2, 66, 91
4, 59880, Note_on_c, 2, 66, 0
4, 59880, Note_on_c, 2, 67, 91
4, 59940, Note_on_c, 2, 67, 0
4, 59940, Note_on_c, 2, 69, 91
4, 60000, Note_on_c, 2, 69, 0
4, 60000, Note_on_c, 2, 72, 91
4, 60060, Note_on_c, 2, 72, 0
4, 60060, Note_on_c, 2, 70, 91
4, 60120, Note_on_c, 2, 70, 0
4, 60180, Note_on_c, 2, 66, 91
4, 60240, Note_on_c, 2, 66, 0
4, 60240, Note_on_c, 2, 67, 91
4, 60300, Note_on_c, 2, 67, 0
4, 60300, Note_on_c, 2, 69, 91
4, 60360, Note_on_c, 2, 69, 0
4, 60360, Note_on_c, 2, 70, 91
4, 60420, Note_on_c, 2, 70, 0
4, 60420, Note_on_c, 2, 73, 91
4, 60480, Note_on_c, 2, 73, 0
4, 60480, Note_on_c, 2, 76, 91
4, 60540, Note_on_c, 2, 76, 0
4, 60540, Note_on_c, 2, 74, 91
4, 60600, Note_on_c, 2, 74, 0
4, 60660, Note_on_c, 2, 74, 53
4, 60720, Note_on_c, 2, 74, 0
4, 60720, Note_on_c, 2, 76, 53
4, 60780, Note_on_c, 2, 76, 0
4, 60780, Note_on_c, 2, 78, 53
4, 60840, Note_on_c, 2, 78, 0
4, 60840, Note_on_c, 2, 79, 53
4, 60900, Note_on_c, 2, 79, 0
4, 60900, Note_on_c, 2, 81, 52
4, 60960, Note_on_c, 2, 81, 0
4, 60960, Note_on_c, 2, 82, 50
4, 61080, Note_on_c, 2, 82, 0
4, 61080, Note_on_c, 2, 83, 46
4, 61200, Note_on_c, 2, 83, 0
4, 61200, Note_on_c, 2, 84, 43
4, 61320, Note_on_c, 2, 84, 0
4, 61320, Note_on_c, 2, 85, 40
4, 61440, Note_on_c, 2, 85, 0
4, 61440, Note_on_c, 2, 86, 59
4, 62145, Note_on_c, 2, 86, 0
4, 62160, Note_on_c, 2, 78, 52
4, 62175, Note_on_c, 2, 78, 0
4, 62175, Note_on_c, 2, 79, 53
4, 62190, Note_on_c, 2, 79, 0
4, 62190, Note_on_c, 2, 78, 55
4, 62205, Note_on_c, 2, 78, 0
4, 62205, Note_on_c, 2, 79, 58
4, 62220, Note_on_c, 2, 79, 0
4, 62220, Note_on_c, 2, 78, 59
4, 62235, Note_on_c, 2, 78, 0
4, 62235, Note_on_c, 2, 79, 61
4, 62250, Note_on_c, 2, 79, 0
4, 62250, Note_on_c, 2, 78, 62
4, 62265, Note_on_c, 2, 78, 0
4, 62265, Note_on_c, 2, 79, 65
4, 62280, Note_on_c, 2, 79, 0
4, 62280, Note_on_c, 2, 78, 67
4, 62295, Note_on_c, 2, 78, 0
4, 62295, Note_on_c, 2, 79, 68
4, 62310, Note_on_c, 2, 79, 0
4, 62310, Note_on_c, 2, 78, 70
4, 62325, Note_on_c, 2, 78, 0
4, 62325, Note_on_c, 2, 79, 71
4, 62340, Note_on_c, 2, 79, 0
4, 62340, Note_on_c, 2, 76, 74
4, 62370, Note_on_c, 2, 76, 0
4, 62370, Note_on_c, 2, 78, 77
4, 62400, Note_on_c, 2, 78, 0
4, 62400, Note_on_c, 2, 79, 93
4, 62520, Note_on_c, 2, 79, 0
4, 62580, Note_on_c, 2, 74, 92
4, 62610, Note_on_c, 2, 74, 0
4, 62640, Note_on_c, 2, 79, 92
4, 62760, Note_on_c, 2, 79, 0
4, 62820, Note_on_c, 2, 74, 91
4, 62850, Note_on_c, 2, 74, 0
4, 62880, Note_on_c, 2, 79, 90
4, 62910, Note_on_c, 2, 79, 0
4, 62940, Note_on_c, 2, 74, 90
4, 62970, Note_on_c, 2, 74, 0
4, 63000, Note_on_c, 2, 79, 90
4, 63030, Note_on_c, 2, 79, 0
4, 63060, Note_on_c, 2, 83, 90
4, 63090, Note_on_c, 2, 83, 0
4, 63120, Note_on_c, 2, 86, 89
4, 63240, Note_on_c, 2, 86, 0
4, 63360, Note_on_c, 2, 84, 104
4, 63480, Note_on_c, 2, 84, 0
4, 63540, Note_on_c, 2, 81, 87
4, 63570, Note_on_c, 2, 81, 0
4, 63600, Note_on_c, 2, 84, 86
4, 63720, Note_on_c, 2, 84, 0
4, 63780, Note_on_c, 2, 81, 85
4, 63810, Note_on_c, 2, 81, 0
4, 63840, Note_on_c, 2, 84, 92
4, 63870, Note_on_c, 2, 84, 0
4, 63900, Note_on_c, 2, 81, 85
4, 63930, Note_on_c, 2, 81, 0
4, 63960, Note_on_c, 2, 78, 92
4, 63990, Note_on_c, 2, 78, 0
4, 64020, Note_on_c, 2, 81, 85
4, 64050, Note_on_c, 2, 81, 0
4, 64080, Note_on_c, 2, 74, 94
4, 64200, Note_on_c, 2, 74, 0
4, 64320, Note_on_c, 2, 62, 92
4, 64320, Note_on_c, 2, 79, 92
4, 64320, Note_on_c, 2, 71, 92
4, 64380, Note_on_c, 2, 71, 0
4, 64380, Note_on_c, 2, 79, 0
4, 64380, Note_on_c, 2, 62, 0
4, 64440, Note_on_c, 2, 79, 85
4, 64620, Note_on_c, 2, 79, 0
4, 64620, Note_on_c, 2, 83, 74
4, 64680, Note_on_c, 2, 83, 0
4, 64680, Note_on_c, 2, 81, 74
4, 64710, Note_on_c, 2, 81, 0
4, 64740, Note_on_c, 2, 79, 80
4, 64770, Note_on_c, 2, 79, 0
4, 64800, Note_on_c, 2, 79, 86
4, 64815, Note_on_c, 2, 79, 0
4, 64815, Note_on_c, 2, 81, 86
4, 64830, Note_on_c, 2, 81, 0
4, 64830, Note_on_c, 2, 79, 86
4, 64845, Note_on_c, 2, 79, 0
4, 64845, Note_on_c, 2, 81, 86
4, 64860, Note_on_c, 2, 81, 0
4, 64860, Note_on_c, 2, 78, 83
4, 64910, Note_on_c, 2, 78, 0
4, 64920, Note_on_c, 2, 78, 77
4, 65100, Note_on_c, 2, 78, 0
4, 65100, Note_on_c, 2, 81, 85
4, 65160, Note_on_c, 2, 81, 0
4, 65160, Note_on_c, 2, 84, 85
4, 65190, Note_on_c, 2, 84, 0
4, 65220, Note_on_c, 2, 78, 85
4, 65250, Note_on_c, 2, 78, 0
4, 65280, Note_on_c, 2, 81, 85
4, 65340, Note_on_c, 2, 81, 0
4, 65340, Note_on_c, 2, 79, 85
4, 65370, Note_on_c, 2, 79, 0
4, 65400, Note_on_c, 2, 79, 85
4, 65580, Note_on_c, 2, 79, 0
4, 65580, Note_on_c, 2, 83, 85
4, 65640, Note_on_c, 2, 83, 0
4, 65640, Note_on_c, 2, 81, 85
4, 65670, Note_on_c, 2, 81, 0
4, 65700, Note_on_c, 2, 79, 85
4, 65730, Note_on_c, 2, 79, 0
4, 65760, Note_on_c, 2, 79, 85
4, 65775, Note_on_c, 2, 79, 0
4, 65775, Note_on_c, 2, 81, 85
4, 65790, Note_on_c, 2, 81, 0
4, 65790, Note_on_c, 2, 79, 85
4, 65805, Note_on_c, 2, 79, 0
4, 65805, Note_on_c, 2, 81, 85
4, 65820, Note_on_c, 2, 81, 0
4, 65820, Note_on_c, 2, 78, 85
4, 65870, Note_on_c, 2, 78, 0
4, 65880, Note_on_c, 2, 78, 85
4, 66060, Note_on_c, 2, 78, 0
4, 66060, Note_on_c, 2, 81, 85
4, 66120, Note_on_c, 2, 81, 0
4, 66120, Note_on_c, 2, 84, 85
4, 66150, Note_on_c, 2, 84, 0
4, 66180, Note_on_c, 2, 78, 85
4, 66210, Note_on_c, 2, 78, 0
4, 66240, Note_on_c, 2, 79, 85
4, 66270, Note_on_c, 2, 79, 0
4, 66300, Note_on_c, 2, 79, 85
4, 66330, Note_on_c, 2, 79, 0
4, 66360, Note_on_c, 2, 79, 85
4, 66390, Note_on_c, 2, 79, 0
4, 66390, Note_on_c, 2, 78, 85
4, 66420, Note_on_c, 2, 78, 0
4, 66420, Note_on_c, 2, 76, 85
4, 66450, Note_on_c, 2, 76, 0
4, 66450, Note_on_c, 2, 78, 85
4, 66480, Note_on_c, 2, 78, 0
4, 66480, Note_on_c, 2, 79, 85
4, 66510, Note_on_c, 2, 79, 0
4, 66540, Note_on_c, 2, 79, 85
4, 66570, Note_on_c, 2, 79, 0
4, 66600, Note_on_c, 2, 83, 85
4, 66630, Note_on_c, 2, 83, 0
4, 66630, Note_on_c, 2, 81, 85
4, 66660, Note_on_c, 2, 81, 0
4, 66660, Note_on_c, 2, 79, 85
4, 66690, Note_on_c, 2, 79, 0
4, 66690, Note_on_c, 2, 81, 83
4, 66720, Note_on_c, 2, 81, 0
4, 66720, Note_on_c, 2, 83, 83
4, 66750, Note_on_c, 2, 83, 0
4, 66780, Note_on_c, 2, 83, 83
4, 66810, Note_on_c, 2, 83, 0
4, 66840, Note_on_c, 2, 86, 83
4, 66870, Note_on_c, 2, 86, 0
4, 66870, Note_on_c, 2, 84, 80
4, 66900, Note_on_c, 2, 84, 0
4, 66900, Note_on_c, 2, 83, 79
4, 66930, Note_on_c, 2, 83, 0
4, 66930, Note_on_c, 2, 84, 76
4, 66960, Note_on_c, 2, 84, 0
4, 66960, Note_on_c, 2, 86, 71
4, 67080, Note_on_c, 2, 86, 0
4, 67200, Note_on_c, 2, 74, 56
4, 67440, Note_on_c, 2, 74, 0
4, 67440, Note_on_c, 2, 76, 55
4, 67680, Note_on_c, 2, 76, 0
4, 67680, Note_on_c, 2, 74, 57
4, 67710, Note_on_c, 2, 74, 0
4, 67710, Note_on_c, 2, 72, 59
4, 67790, Note_on_c, 2, 72, 0
4, 67800, Note_on_c, 2, 72, 58
4, 67920, Note_on_c, 2, 72, 0
4, 67920, Note_on_c, 2, 72, 57
4, 67950, Note_on_c, 2, 72, 0
4, 67950, Note_on_c, 2, 71, 55
4, 68030, Note_on_c, 2, 71, 0
4, 68040, Note_on_c, 2, 71, 53
4, 68160, Note_on_c, 2, 71, 0
4, 68160, Note_on_c, 2, 71, 57
4, 68190, Note_on_c, 2, 71, 0
4, 68190, Note_on_c, 2, 69, 56
4, 68270, Note_on_c, 2, 69, 0
4, 68280, Note_on_c, 2, 69, 55
4, 68400, Note_on_c, 2, 69, 0
4, 68400, Note_on_c, 2, 67, 54
4, 68460, Note_on_c, 2, 67, 0
4, 68460, Note_on_c, 2, 66, 55
4, 68490, Note_on_c, 2, 66, 0
4, 68520, Note_on_c, 2, 64, 55
4, 68550, Note_on_c, 2, 64, 0
4, 68580, Note_on_c, 2, 66, 55
4, 68610, Note_on_c, 2, 66, 0
4, 68640, Note_on_c, 2, 67, 56
4, 68700, Note_on_c, 2, 67, 0
4, 68760, Note_on_c, 2, 69, 57
4, 68820, Note_on_c, 2, 69, 0
4, 68880, Note_on_c, 2, 71, 57
4, 68940, Note_on_c, 2, 71, 0
4, 69120, Note_on_c, 2, 74, 56
4, 69360, Note_on_c, 2, 74, 0
4, 69360, Note_on_c, 2, 76, 59
4, 69600, Note_on_c, 2, 76, 0
4, 69600, Note_on_c, 2, 74, 46
4, 69660, Note_on_c, 2, 74, 0
4, 69660, Note_on_c, 2, 72, 51
4, 69690, Note_on_c, 2, 72, 0
4, 69720, Note_on_c, 2, 72, 51
4, 69750, Note_on_c, 2, 72, 0
4, 69780, Note_on_c, 2, 72, 51
4, 69810, Note_on_c, 2, 72, 0
4, 69840, Note_on_c, 2, 72, 51
4, 69900, Note_on_c, 2, 72, 0
4, 69900, Note_on_c, 2, 71, 50
4, 69930, Note_on_c, 2, 71, 0
4, 69960, Note_on_c, 2, 71, 49
4, 69990, Note_on_c, 2, 71, 0
4, 70020, Note_on_c, 2, 71, 49
4, 70050, Note_on_c, 2, 71, 0
4, 70080, Note_on_c, 2, 71, 49
4, 70140, Note_on_c, 2, 71, 0
4, 70140, Note_on_c, 2, 69, 50
4, 70170, Note_on_c, 2, 69, 0
4, 70200, Note_on_c, 2, 69, 52
4, 70245, Note_on_c, 2, 69, 0
4, 70260, Note_on_c, 2, 69, 52
4, 70305, Note_on_c, 2, 69, 0
4, 70320, Note_on_c, 2, 67, 52
4, 70380, Note_on_c, 2, 67, 0
4, 70380, Note_on_c, 2, 66, 54
4, 70440, Note_on_c, 2, 66, 0
4, 70440, Note_on_c, 2, 64, 55
4, 70500, Note_on_c, 2, 64, 0
4, 70500, Note_on_c, 2, 66, 55
4, 70560, Note_on_c, 2, 66, 0
4, 70560, Note_on_c, 2, 55, 85
4, 70560, Note_on_c, 2, 67, 85
4, 70860, Note_on_c, 2, 67, 0
4, 70860, Note_on_c, 2, 55, 0
4, 70860, Note_on_c, 2, 67, 61
4, 70875, Note_on_c, 2, 67, 0
4, 70875, Note_on_c, 2, 69, 61
4, 70890, Note_on_c, 2, 69, 0
4, 70890, Note_on_c, 2, 66, 61
4, 70905, Note_on_c, 2, 66, 0
4, 70905, Note_on_c, 2, 67, 61
4, 70920, Note_on_c, 2, 67, 0
4, 70920, Note_on_c, 2, 69, 61
4, 70980, Note_on_c, 2, 69, 0
4, 70980, Note_on_c, 2, 66, 61
4, 71040, Note_on_c, 2, 66, 0
4, 71040, Note_on_c, 2, 71, 91
4, 71340, Note_on_c, 2, 71, 0
4, 71340, Note_on_c, 2, 71, 61
4, 71355, Note_on_c, 2, 71, 0
4, 71355, Note_on_c, 2, 72, 61
4, 71370, Note_on_c, 2, 72, 0
4, 71370, Note_on_c, 2, 69, 61
4, 71385, Note_on_c, 2, 69, 0
4, 71385, Note_on_c, 2, 71, 61
4, 71400, Note_on_c, 2, 71, 0
4, 71400, Note_on_c, 2, 72, 61
4, 71460, Note_on_c, 2, 72, 0
4, 71460, Note_on_c, 2, 69, 61
4, 71520, Note_on_c, 2, 69, 0
4, 71520, Note_on_c, 2, 74, 51
4, 71540, Note_on_c, 2, 74, 0
4, 71550, Note_on_c, 2, 74, 56
4, 71570, Note_on_c, 2, 74, 0
4, 71580, Note_on_c, 2, 74, 59
4, 71600, Note_on_c, 2, 74, 0
4, 71610, Note_on_c, 2, 74, 56
4, 71630, Note_on_c, 2, 74, 0
4, 71640, Note_on_c, 2, 74, 56
4, 71660, Note_on_c, 2, 74, 0
4, 71670, Note_on_c, 2, 74, 56
4, 71690, Note_on_c, 2, 74, 0
4, 71700, Note_on_c, 2, 74, 56
4, 71720, Note_on_c, 2, 74, 0
4, 71730, Note_on_c, 2, 74, 56
4, 71750, Note_on_c, 2, 74, 0
4, 71760, Note_on_c, 2, 76, 56
4, 71780, Note_on_c, 2, 76, 0
4, 71790, Note_on_c, 2, 76, 56
4, 71810, Note_on_c, 2, 76, 0
4, 71820, Note_on_c, 2, 76, 56
4, 71840, Note_on_c, 2, 76, 0
4, 71850, Note_on_c, 2, 76, 56
4, 71870, Note_on_c, 2, 76, 0
4, 71880, Note_on_c, 2, 78, 56
4, 71900, Note_on_c, 2, 78, 0
4, 71910, Note_on_c, 2, 78, 56
4, 71930, Note_on_c, 2, 78, 0
4, 71940, Note_on_c, 2, 78, 57
4, 71960, Note_on_c, 2, 78, 0
4, 71970, Note_on_c, 2, 78, 59
4, 71990, Note_on_c, 2, 78, 0
4, 72000, Note_on_c, 2, 79, 62
4, 72020, Note_on_c, 2, 79, 0
4, 72030, Note_on_c, 2, 79, 65
4, 72050, Note_on_c, 2, 79, 0
4, 72060, Note_on_c, 2, 79, 66
4, 72080, Note_on_c, 2, 79, 0
4, 72090, Note_on_c, 2, 79, 66
4, 72110, Note_on_c, 2, 79, 0
4, 72120, Note_on_c, 2, 81, 66
4, 72140, Note_on_c, 2, 81, 0
4, 72150, Note_on_c, 2, 81, 66
4, 72170, Note_on_c, 2, 81, 0
4, 72180, Note_on_c, 2, 81, 66
4, 72200, Note_on_c, 2, 81, 0
4, 72210, Note_on_c, 2, 81, 68
4, 72230, Note_on_c, 2, 81, 0
4, 72240, Note_on_c, 2, 83, 68
4, 72260, Note_on_c, 2, 83, 0
4, 72270, Note_on_c, 2, 83, 70
4, 72290, Note_on_c, 2, 83, 0
4, 72300, Note_on_c, 2, 83, 70
4, 72320, Note_on_c, 2, 83, 0
4, 72330, Note_on_c, 2, 83, 71
4, 72350, Note_on_c, 2, 83, 0
4, 72360, Note_on_c, 2, 85, 71
4, 72380, Note_on_c, 2, 85, 0
4, 72390, Note_on_c, 2, 85, 73
4, 72410, Note_on_c, 2, 85, 0
4, 72420, Note_on_c, 2, 85, 74
4, 72440, Note_on_c, 2, 85, 0
4, 72450, Note_on_c, 2, 85, 74
4, 72470, Note_on_c, 2, 85, 0
4, 72480, Note_on_c, 2, 86, 85
4, 72660, Note_on_c, 2, 86, 0
4, 72660, Note_on_c, 2, 81, 85
4, 72720, Note_on_c, 2, 81, 0
4, 72720, Note_on_c, 2, 85, 85
4, 72810, Note_on_c, 2, 85, 0
4, 72810, Note_on_c, 2, 81, 85
4, 72840, Note_on_c, 2, 81, 0
4, 72840, Note_on_c, 2, 85, 85
4, 72930, Note_on_c, 2, 85, 0
4, 72930, Note_on_c, 2, 81, 85
4, 72960, Note_on_c, 2, 81, 0
4, 72960, Note_on_c, 2, 86, 85
4, 73140, Note_on_c, 2, 86, 0
4, 73140, Note_on_c, 2, 81, 85
4, 73200, Note_on_c, 2, 81, 0
4, 73200, Note_on_c, 2, 85, 85
4, 73290, Note_on_c, 2, 85, 0
4, 73290, Note_on_c, 2, 81, 85
4, 73320, Note_on_c, 2, 81, 0
4, 73320, Note_on_c, 2, 85, 85
4, 73410, Note_on_c, 2, 85, 0
4, 73410, Note_on_c, 2, 81, 85
4, 73440, Note_on_c, 2, 81, 0
4, 73440, Note_on_c, 2, 86, 100
4, 73470, Note_on_c, 2, 86, 0
4, 73500, Note_on_c, 2, 81, 100
4, 73530, Note_on_c, 2, 81, 0
4, 73560, Note_on_c, 2, 85, 100
4, 73590, Note_on_c, 2, 85, 0
4, 73620, Note_on_c, 2, 81, 100
4, 73650, Note_on_c, 2, 81, 0
4, 73680, Note_on_c, 2, 86, 100
4, 73710, Note_on_c, 2, 86, 0
4, 73740, Note_on_c, 2, 81, 100
4, 73770, Note_on_c, 2, 81, 0
4, 73800, Note_on_c, 2, 85, 100
4, 73830, Note_on_c, 2, 85, 0
4, 73860, Note_on_c, 2, 81, 100
4, 73890, Note_on_c, 2, 81, 0
4, 73920, Note_on_c, 2, 86, 85
4, 73965, Note_on_c, 2, 86, 0
4, 73980, Note_on_c, 2, 62, 85
4, 74025, Note_on_c, 2, 62, 0
4, 74040, Note_on_c, 2, 62, 85
4, 74085, Note_on_c, 2, 62, 0
4, 74100, Note_on_c, 2, 62, 85
4, 74145, Note_on_c, 2, 62, 0
4, 74160, Note_on_c, 2, 62, 85
4, 74280, Note_on_c, 2, 62, 0
4, 74400, Note_on_c, 2, 74, 46
4, 74580, Note_on_c, 2, 74, 0
4, 74580, Note_on_c, 2, 72, 47
4, 74600, Note_on_c, 2, 72, 0
4, 74600, Note_on_c, 2, 71, 47
4, 74620, Note_on_c, 2, 71, 0
4, 74620, Note_on_c, 2, 69, 47
4, 74640, Note_on_c, 2, 69, 0
4, 74640, Note_on_c, 2, 67, 47
4, 74700, Note_on_c, 2, 67, 0
4, 74760, Note_on_c, 2, 76, 47
4, 74820, Note_on_c, 2, 76, 0
4, 74880, Note_on_c, 2, 72, 46
4, 74940, Note_on_c, 2, 72, 0
4, 75000, Note_on_c, 2, 69, 43
4, 75060, Note_on_c, 2, 69, 0
4, 75120, Note_on_c, 2, 74, 59
4, 75180, Note_on_c, 2, 74, 0
4, 75360, Note_on_c, 2, 83, 55
4, 75540, Note_on_c, 2, 83, 0
4, 75540, Note_on_c, 2, 81, 55
4, 75560, Note_on_c, 2, 81, 0
4, 75560, Note_on_c, 2, 79, 55
4, 75580, Note_on_c, 2, 79, 0
4, 75580, Note_on_c, 2, 78, 55
4, 75600, Note_on_c, 2, 78, 0
4, 75600, Note_on_c, 2, 76, 55
4, 75660, Note_on_c, 2, 76, 0
4, 75720, Note_on_c, 2, 84, 55
4, 75780, Note_on_c, 2, 84, 0
4, 75840, Note_on_c, 2, 83, 55
4, 76080, Note_on_c, 2, 83, 0
4, 76080, Note_on_c, 2, 81, 47
4, 76200, Note_on_c, 2, 81, 0
4, 76380, Note_on_c, 2, 86, 55
4, 76410, Note_on_c, 2, 86, 0
4, 76440, Note_on_c, 2, 86, 55
4, 76470, Note_on_c, 2, 86, 0
4, 76500, Note_on_c, 2, 86, 55
4, 76530, Note_on_c, 2, 86, 0
4, 76560, Note_on_c, 2, 86, 55
4, 76590, Note_on_c, 2, 86, 0
4, 76620, Note_on_c, 2, 86, 55
4, 76650, Note_on_c, 2, 86, 0
4, 76680, Note_on_c, 2, 86, 55
4, 76710, Note_on_c, 2, 86, 0
4, 76740, Note_on_c, 2, 86, 55
4, 76770, Note_on_c, 2, 86, 0
4, 76800, Note_on_c, 2, 86, 55
4, 76830, Note_on_c, 2, 86, 0
4, 76860, Note_on_c, 2, 86, 55
4, 76890, Note_on_c, 2, 86, 0
4, 76920, Note_on_c, 2, 86, 55
4, 76950, Note_on_c, 2, 86, 0
4, 76980, Note_on_c, 2, 86, 55
4, 77010, Note_on_c, 2, 86, 0
4, 77040, Note_on_c, 2, 86, 55
4, 77100, Note_on_c, 2, 86, 0
4, 77100, Note_on_c, 2, 84, 55
4, 77160, Note_on_c, 2, 84, 0
4, 77160, Note_on_c, 2, 79, 55
4, 77220, Note_on_c, 2, 79, 0
4, 77220, Note_on_c, 2, 78, 55
4, 77280, Note_on_c, 2, 78, 0
4, 77280, Note_on_c, 2, 78, 55
4, 77340, Note_on_c, 2, 78, 0
4, 77340, Note_on_c, 2, 79, 65
4, 77400, Note_on_c, 2, 79, 0
4, 77460, Note_on_c, 2, 76, 55
4, 77490, Note_on_c, 2, 76, 0
4, 77520, Note_on_c, 2, 76, 55
4, 77580, Note_on_c, 2, 76, 0
4, 77580, Note_on_c, 2, 74, 55
4, 77640, Note_on_c, 2, 74, 0
4, 77700, Note_on_c, 2, 66, 55
4, 77745, Note_on_c, 2, 66, 0
4, 77760, Note_on_c, 2, 67, 67
4, 77880, Note_on_c, 2, 67, 0
4, 77940, Note_on_c, 2, 74, 55
4, 77970, Note_on_c, 2, 74, 0
4, 78000, Note_on_c, 2, 79, 55
4, 78060, Note_on_c, 2, 79, 0
4, 78060, Note_on_c, 2, 78, 55
4, 78120, Note_on_c, 2, 78, 0
4, 78120, Note_on_c, 2, 76, 55
4, 78180, Note_on_c, 2, 76, 0
4, 78180, Note_on_c, 2, 74, 55
4, 78240, Note_on_c, 2, 74, 0
4, 78240, Note_on_c, 2, 76, 55
4, 78255, Note_on_c, 2, 76, 0
4, 78255, Note_on_c, 2, 78, 55
4, 78270, Note_on_c, 2, 78, 0
4, 78270, Note_on_c, 2, 76, 55
4, 78285, Note_on_c, 2, 76, 0
4, 78285, Note_on_c, 2, 78, 55
4, 78300, Note_on_c, 2, 78, 0
4, 78300, Note_on_c, 2, 74, 55
4, 78360, Note_on_c, 2, 74, 0
4, 78420, Note_on_c, 2, 74, 55
4, 78450, Note_on_c, 2, 74, 0
4, 78480, Note_on_c, 2, 74, 55
4, 78510, Note_on_c, 2, 74, 0
4, 78540, Note_on_c, 2, 74, 55
4, 78570, Note_on_c, 2, 74, 0
4, 78600, Note_on_c, 2, 74, 55
4, 78630, Note_on_c, 2, 74, 0
4, 78660, Note_on_c, 2, 74, 55
4, 78690, Note_on_c, 2, 74, 0
4, 78720, Note_on_c, 2, 76, 55
4, 78735, Note_on_c, 2, 76, 0
4, 78735, Note_on_c, 2, 78, 55
4, 78750, Note_on_c, 2, 78, 0
4, 78750, Note_on_c, 2, 76, 55
4, 78765, Note_on_c, 2, 76, 0
4, 78765, Note_on_c, 2, 78, 55
4, 78780, Note_on_c, 2, 78, 0
4, 78780, Note_on_c, 2, 74, 55
4, 78840, Note_on_c, 2, 74, 0
4, 78900, Note_on_c, 2, 74, 55
4, 78945, Note_on_c, 2, 74, 0
4, 78960, Note_on_c, 2, 79, 55
4, 79020, Note_on_c, 2, 79, 0
4, 79020, Note_on_c, 2, 78, 55
4, 79080, Note_on_c, 2, 78, 0
4, 79080, Note_on_c, 2, 76, 55
4, 79140, Note_on_c, 2, 76, 0
4, 79140, Note_on_c, 2, 74, 55
4, 79200, Note_on_c, 2, 74, 0
4, 79200, Note_on_c, 2, 76, 55
4, 79215, Note_on_c, 2, 76, 0
4, 79215, Note_on_c, 2, 78, 55
4, 79230, Note_on_c, 2, 78, 0
4, 79230, Note_on_c, 2, 76, 55
4, 79245, Note_on_c, 2, 76, 0
4, 79245, Note_on_c, 2, 78, 55
4, 79260, Note_on_c, 2, 78, 0
4, 79260, Note_on_c, 2, 74, 55
4, 79320, Note_on_c, 2, 74, 0
4, 79380, Note_on_c, 2, 74, 55
4, 79410, Note_on_c, 2, 74, 0
4, 79440, Note_on_c, 2, 74, 55
4, 79470, Note_on_c, 2, 74, 0
4, 79500, Note_on_c, 2, 74, 55
4, 79530, Note_on_c, 2, 74, 0
4, 79560, Note_on_c, 2, 74, 55
4, 79590, Note_on_c, 2, 74, 0
4, 79620, Note_on_c, 2, 74, 55
4, 79650, Note_on_c, 2, 74, 0
4, 79680, Note_on_c, 2, 76, 55
4, 79695, Note_on_c, 2, 76, 0
4, 79695, Note_on_c, 2, 78, 55
4, 79710, Note_on_c, 2, 78, 0
4, 79710, Note_on_c, 2, 76, 55
4, 79725, Note_on_c, 2, 76, 0
4, 79725, Note_on_c, 2, 78, 55
4, 79740, Note_on_c, 2, 78, 0
4, 79740, Note_on_c, 2, 74, 55
4, 79800, Note_on_c, 2, 74, 0
4, 79920, Note_on_c, 2, 64, 83
4, 79920, Note_on_c, 2, 76, 83
4, 80090, Note_on_c, 2, 76, 0
4, 80090, Note_on_c, 2, 64, 0
4, 80100, Note_on_c, 2, 74, 82
4, 80120, Note_on_c, 2, 74, 0
4, 80120, Note_on_c, 2, 72, 82
4, 80140, Note_on_c, 2, 72, 0
4, 80140, Note_on_c, 2, 71, 82
4, 80160, Note_on_c, 2, 71, 0
4, 80160, Note_on_c, 2, 72, 83
4, 80280, Note_on_c, 2, 72, 0
4, 80400, Note_on_c, 2, 74, 85
4, 80400, Note_on_c, 2, 62, 85
4, 80570, Note_on_c, 2, 62, 0
4, 80570, Note_on_c, 2, 74, 0
4, 80580, Note_on_c, 2, 72, 77
4, 80600, Note_on_c, 2, 72, 0
4, 80600, Note_on_c, 2, 71, 79
4, 80620, Note_on_c, 2, 71, 0
4, 80620, Note_on_c, 2, 69, 83
4, 80640, Note_on_c, 2, 69, 0
4, 80640, Note_on_c, 2, 71, 88
4, 80760, Note_on_c, 2, 71, 0
4, 80880, Note_on_c, 2, 76, 85
4, 80940, Note_on_c, 2, 76, 0
4, 80940, Note_on_c, 2, 78, 85
4, 80970, Note_on_c, 2, 78, 0
4, 80970, Note_on_c, 2, 79, 85
4, 81000, Note_on_c, 2, 79, 0
4, 81000, Note_on_c, 2, 78, 85
4, 81045, Note_on_c, 2, 78, 0
4, 81060, Note_on_c, 2, 76, 85
4, 81090, Note_on_c, 2, 76, 0
4, 81120, Note_on_c, 2, 76, 85
4, 81180, Note_on_c, 2, 76, 0
4, 81180, Note_on_c, 2, 74, 85
4, 81225, Note_on_c, 2, 74, 0
4, 81240, Note_on_c, 2, 71, 85
4, 81270, Note_on_c, 2, 71, 0
4, 81300, Note_on_c, 2, 74, 85
4, 81330, Note_on_c, 2, 74, 0
4, 81360, Note_on_c, 2, 74, 85
4, 81420, Note_on_c, 2, 74, 0
4, 81420, Note_on_c, 2, 72, 85
4, 81465, Note_on_c, 2, 72, 0
4, 81480, Note_on_c, 2, 71, 85
4, 81510, Note_on_c, 2, 71, 0
4, 81540, Note_on_c, 2, 69, 85
4, 81570, Note_on_c, 2, 69, 0
4, 81600, Note_on_c, 2, 67, 85
4, 81720, Note_on_c, 2, 67, 0
4, 81780, Note_on_c, 2, 74, 50
4, 81810, Note_on_c, 2, 74, 0
4, 81840, Note_on_c, 2, 79, 50
4, 81900, Note_on_c, 2, 79, 0
4, 81900, Note_on_c, 2, 78, 50
4, 81960, Note_on_c, 2, 78, 0
4, 81960, Note_on_c, 2, 76, 53
4, 82020, Note_on_c, 2, 76, 0
4, 82020, Note_on_c, 2, 74, 56
4, 82080, Note_on_c, 2, 74, 0
4, 82080, Note_on_c, 2, 76, 58
4, 82095, Note_on_c, 2, 76, 0
4, 82095, Note_on_c, 2, 78, 58
4, 82110, Note_on_c, 2, 78, 0
4, 82110, Note_on_c, 2, 76, 59
4, 82125, Note_on_c, 2, 76, 0
4, 82125, Note_on_c, 2, 78, 59
4, 82140, Note_on_c, 2, 78, 0
4, 82140, Note_on_c, 2, 74, 61
4, 82200, Note_on_c, 2, 74, 0
4, 82260, Note_on_c, 2, 74, 56
4, 82290, Note_on_c, 2, 74, 0
4, 82320, Note_on_c, 2, 74, 55
4, 82350, Note_on_c, 2, 74, 0
4, 82380, Note_on_c, 2, 74, 55
4, 82410, Note_on_c, 2, 74, 0
4, 82440, Note_on_c, 2, 74, 53
4, 82470, Note_on_c, 2, 74, 0
4, 82500, Note_on_c, 2, 74, 52
4, 82530, Note_on_c, 2, 74, 0
4, 82560, Note_on_c, 2, 76, 55
4, 82575, Note_on_c, 2, 76, 0
4, 82575, Note_on_c, 2, 78, 55
4, 82590, Note_on_c, 2, 78, 0
4, 82590, Note_on_c, 2, 76, 55
4, 82605, Note_on_c, 2, 76, 0
4, 82605, Note_on_c, 2, 78, 55
4, 82620, Note_on_c, 2, 78, 0
4, 82620, Note_on_c, 2, 74, 55
4, 82680, Note_on_c, 2, 74, 0
4, 82740, Note_on_c, 2, 74, 55
4, 82785, Note_on_c, 2, 74, 0
4, 82800, Note_on_c, 2, 79, 55
4, 82860, Note_on_c, 2, 79, 0
4, 82860, Note_on_c, 2, 78, 55
4, 82920, Note_on_c, 2, 78, 0
4, 82920, Note_on_c, 2, 76, 55
4, 82980, Note_on_c, 2, 76, 0
4, 82980, Note_on_c, 2, 74, 56
4, 83040, Note_on_c, 2, 74, 0
4, 83040, Note_on_c, 2, 76, 65
4, 83055, Note_on_c, 2, 76, 0
4, 83055, Note_on_c, 2, 78, 65
4, 83070, Note_on_c, 2, 78, 0
4, 83070, Note_on_c, 2, 76, 65
4, 83085, Note_on_c, 2, 76, 0
4, 83085, Note_on_c, 2, 78, 65
4, 83100, Note_on_c, 2, 78, 0
4, 83100, Note_on_c, 2, 74, 64
4, 83160, Note_on_c, 2, 74, 0
4, 83220, Note_on_c, 2, 74, 55
4, 83250, Note_on_c, 2, 74, 0
4, 83280, Note_on_c, 2, 74, 55
4, 83310, Note_on_c, 2, 74, 0
4, 83340, Note_on_c, 2, 74, 55
4, 83370, Note_on_c, 2, 74, 0
4, 83400, Note_on_c, 2, 74, 55
4, 83430, Note_on_c, 2, 74, 0
4, 83460, Note_on_c, 2, 74, 55
4, 83490, Note_on_c, 2, 74, 0
4, 83520, Note_on_c, 2, 76, 59
4, 83535, Note_on_c, 2, 76, 0
4, 83535, Note_on_c, 2, 78, 59
4, 83550, Note_on_c, 2, 78, 0
4, 83550, Note_on_c, 2, 76, 59
4, 83565, Note_on_c, 2, 76, 0
4, 83565, Note_on_c, 2, 78, 59
4, 83580, Note_on_c, 2, 78, 0
4, 83580, Note_on_c, 2, 74, 59
4, 83640, Note_on_c, 2, 74, 0
4, 83760, Note_on_c, 2, 88, 85
4, 83930, Note_on_c, 2, 88, 0
4, 83940, Note_on_c, 2, 86, 85
4, 83960, Note_on_c, 2, 86, 0
4, 83960, Note_on_c, 2, 84, 85
4, 83980, Note_on_c, 2, 84, 0
4, 83980, Note_on_c, 2, 83, 85
4, 84000, Note_on_c, 2, 83, 0
4, 84000, Note_on_c, 2, 84, 85
4, 84120, Note_on_c, 2, 84, 0
4, 84240, Note_on_c, 2, 86, 85
4, 84240, Note_on_c, 2, 74, 85
4, 84410, Note_on_c, 2, 74, 0
4, 84410, Note_on_c, 2, 86, 0
4, 84420, Note_on_c, 2, 84, 82
4, 84440, Note_on_c, 2, 84, 0
4, 84440, Note_on_c, 2, 83, 83
4, 84460, Note_on_c, 2, 83, 0
4, 84460, Note_on_c, 2, 81, 83
4, 84480, Note_on_c, 2, 81, 0
4, 84480, Note_on_c, 2, 83, 86
4, 84600, Note_on_c, 2, 83, 0
4, 84720, Note_on_c, 2, 76, 85
4, 84780, Note_on_c, 2, 76, 0
4, 84780, Note_on_c, 2, 78, 85
4, 84810, Note_on_c, 2, 78, 0
4, 84810, Note_on_c, 2, 79, 85
4, 84840, Note_on_c, 2, 79, 0
4, 84840, Note_on_c, 2, 78, 85
4, 84885, Note_on_c, 2, 78, 0
4, 84900, Note_on_c, 2, 76, 85
4, 84930, Note_on_c, 2, 76, 0
4, 84960, Note_on_c, 2, 74, 85
4, 84990, Note_on_c, 2, 74, 0
4, 85020, Note_on_c, 2, 79, 85
4, 85050, Note_on_c, 2, 79, 0
4, 85080, Note_on_c, 2, 83, 85
4, 85110, Note_on_c, 2, 83, 0
4, 85140, Note_on_c, 2, 86, 85
4, 85170, Note_on_c, 2, 86, 0
4, 85200, Note_on_c, 2, 86, 85
4, 85260, Note_on_c, 2, 86, 0
4, 85260, Note_on_c, 2, 84, 85
4, 85305, Note_on_c, 2, 84, 0
4, 85320, Note_on_c, 2, 83, 85
4, 85350, Note_on_c, 2, 83, 0
4, 85380, Note_on_c, 2, 81, 85
4, 85410, Note_on_c, 2, 81, 0
4, 85440, Note_on_c, 2, 79, 94
4, 85485, Note_on_c, 2, 79, 0
4, 85500, Note_on_c, 2, 62, 85
4, 85545, Note_on_c, 2, 62, 0
4, 85560, Note_on_c, 2, 64, 85
4, 85605, Note_on_c, 2, 64, 0
4, 85620, Note_on_c, 2, 66, 85
4, 85665, Note_on_c, 2, 66, 0
4, 85680, Note_on_c, 2, 67, 85
4, 85725, Note_on_c, 2, 67, 0
4, 85740, Note_on_c, 2, 67, 85
4, 85785, Note_on_c, 2, 67, 0
4, 85800, Note_on_c, 2, 69, 85
4, 85815, Note_on_c, 2, 69, 0
4, 85815, Note_on_c, 2, 71, 85
4, 85830, Note_on_c, 2, 71, 0
4, 85830, Note_on_c, 2, 69, 85
4, 85845, Note_on_c, 2, 69, 0
4, 85845, Note_on_c, 2, 71, 85
4, 85860, Note_on_c, 2, 71, 0
4, 85860, Note_on_c, 2, 67, 85
4, 85890, Note_on_c, 2, 67, 0
4, 85890, Note_on_c, 2, 69, 85
4, 85920, Note_on_c, 2, 69, 0
4, 85920, Note_on_c, 2, 71, 85
4, 85965, Note_on_c, 2, 71, 0
4, 85980, Note_on_c, 2, 66, 85
4, 86025, Note_on_c, 2, 66, 0
4, 86040, Note_on_c, 2, 67, 85
4, 86085, Note_on_c, 2, 67, 0
4, 86100, Note_on_c, 2, 69, 85
4, 86145, Note_on_c, 2, 69, 0
4, 86160, Note_on_c, 2, 71, 85
4, 86205, Note_on_c, 2, 71, 0
4, 86220, Note_on_c, 2, 71, 85
4, 86265, Note_on_c, 2, 71, 0
4, 86280, Note_on_c, 2, 72, 86
4, 86295, Note_on_c, 2, 72, 0
4, 86295, Note_on_c, 2, 74, 86
4, 86310, Note_on_c, 2, 74, 0
4, 86310, Note_on_c, 2, 72, 86
4, 86325, Note_on_c, 2, 72, 0
4, 86325, Note_on_c, 2, 74, 86
4, 86340, Note_on_c, 2, 74, 0
4, 86340, Note_on_c, 2, 71, 86
4, 86370, Note_on_c, 2, 71, 0
4, 86370, Note_on_c, 2, 72, 89
4, 86400, Note_on_c, 2, 72, 0
4, 86400, Note_on_c, 2, 74, 89
4, 86445, Note_on_c, 2, 74, 0
4, 86460, Note_on_c, 2, 74, 91
4, 86505, Note_on_c, 2, 74, 0
4, 86520, Note_on_c, 2, 75, 91
4, 86535, Note_on_c, 2, 75, 0
4, 86535, Note_on_c, 2, 76, 91
4, 86550, Note_on_c, 2, 76, 0
4, 86550, Note_on_c, 2, 75, 91
4, 86565, Note_on_c, 2, 75, 0
4, 86565, Note_on_c, 2, 76, 92
4, 86580, Note_on_c, 2, 76, 0
4, 86580, Note_on_c, 2, 73, 94
4, 86610, Note_on_c, 2, 73, 0
4, 86610, Note_on_c, 2, 75, 97
4, 86640, Note_on_c, 2, 75, 0
4, 86640, Note_on_c, 2, 76, 98
4, 86760, Note_on_c, 2, 76, 0
4, 86880, Note_on_c, 2, 64, 61
4, 87060, Note_on_c, 2, 64, 0
4, 87060, Note_on_c, 2, 69, 61
4, 87105, Note_on_c, 2, 69, 0
4, 87120, Note_on_c, 2, 67, 61
4, 87180, Note_on_c, 2, 67, 0
4, 87180, Note_on_c, 2, 66, 62
4, 87240, Note_on_c, 2, 66, 0
4, 87240, Note_on_c, 2, 64, 62
4, 87300, Note_on_c, 2, 64, 0
4, 87300, Note_on_c, 2, 62, 62
4, 87345, Note_on_c, 2, 62, 0
4, 87360, Note_on_c, 2, 74, 62
4, 87420, Note_on_c, 2, 74, 0
4, 87420, Note_on_c, 2, 73, 62
4, 87480, Note_on_c, 2, 73, 0
4, 87480, Note_on_c, 2, 72, 62
4, 87540, Note_on_c, 2, 72, 0
4, 87540, Note_on_c, 2, 71, 62
4, 87600, Note_on_c, 2, 71, 0
4, 87600, Note_on_c, 2, 74, 61
4, 87660, Note_on_c, 2, 74, 0
4, 87660, Note_on_c, 2, 73, 61
4, 87720, Note_on_c, 2, 73, 0
4, 87720, Note_on_c, 2, 72, 61
4, 87780, Note_on_c, 2, 72, 0
4, 87780, Note_on_c, 2, 71, 59
4, 87825, Note_on_c, 2, 71, 0
4, 87840, Note_on_c, 2, 64, 61
4, 88020, Note_on_c, 2, 64, 0
4, 88020, Note_on_c, 2, 69, 67
4, 88065, Note_on_c, 2, 69, 0
4, 88080, Note_on_c, 2, 67, 70
4, 88140, Note_on_c, 2, 67, 0
4, 88140, Note_on_c, 2, 66, 70
4, 88200, Note_on_c, 2, 66, 0
4, 88200, Note_on_c, 2, 64, 70
4, 88260, Note_on_c, 2, 64, 0
4, 88260, Note_on_c, 2, 62, 70
4, 88305, Note_on_c, 2, 62, 0
4, 88320, Note_on_c, 2, 74, 70
4, 88380, Note_on_c, 2, 74, 0
4, 88380, Note_on_c, 2, 76, 70
4, 88440, Note_on_c, 2, 76, 0
4, 88440, Note_on_c, 2, 78, 70
4, 88500, Note_on_c, 2, 78, 0
4, 88500, Note_on_c, 2, 79, 70
4, 88560, Note_on_c, 2, 79, 0
4, 88560, Note_on_c, 2, 74, 70
4, 88620, Note_on_c, 2, 74, 0
4, 88620, Note_on_c, 2, 76, 70
4, 88680, Note_on_c, 2, 76, 0
4, 88680, Note_on_c, 2, 78, 70
4, 88740, Note_on_c, 2, 78, 0
4, 88740, Note_on_c, 2, 79, 76
4, 88785, Note_on_c, 2, 79, 0
4, 88800, Note_on_c, 2, 81, 75
4, 88920, Note_on_c, 2, 81, 0
4, 89040, Note_on_c, 2, 74, 91
4, 89040, Note_on_c, 2, 86, 91
4, 89160, Note_on_c, 2, 86, 0
4, 89160, Note_on_c, 2, 74, 0
4, 89280, Note_on_c, 2, 62, 96
4, 89280, Note_on_c, 2, 71, 96
4, 89280, Note_on_c, 2, 79, 96
4, 89400, Note_on_c, 2, 79, 0
4, 89400, Note_on_c, 2, 71, 0
4, 89400, Note_on_c, 2, 62, 0
4, 89460, Note_on_c, 2, 74, 95
4, 89505, Note_on_c, 2, 74, 0
4, 89520, Note_on_c, 2, 71, 94
4, 89565, Note_on_c, 2, 71, 0
4, 89580, Note_on_c, 2, 67, 90
4, 89625, Note_on_c, 2, 67, 0
4, 89640, Note_on_c, 2, 71, 90
4, 89685, Note_on_c, 2, 71, 0
4, 89700, Note_on_c, 2, 74, 89
4, 89745, Note_on_c, 2, 74, 0
4, 89760, Note_on_c, 2, 79, 88
4, 89805, Note_on_c, 2, 79, 0
4, 89820, Note_on_c, 2, 74, 88
4, 89865, Note_on_c, 2, 74, 0
4, 89880, Note_on_c, 2, 79, 88
4, 89925, Note_on_c, 2, 79, 0
4, 89940, Note_on_c, 2, 83, 90
4, 89985, Note_on_c, 2, 83, 0
4, 90000, Note_on_c, 2, 86, 92
4, 90100, Note_on_c, 2, 86, 0
4, 90120, Note_on_c, 2, 62, 95
4, 90120, Note_on_c, 2, 69, 95
4, 90120, Note_on_c, 2, 78, 95
4, 90220, Note_on_c, 2, 78, 0
4, 90220, Note_on_c, 2, 69, 0
4, 90220, Note_on_c, 2, 62, 0
4, 90240, Note_on_c, 2, 62, 100
4, 90240, Note_on_c, 2, 71, 100
4, 90240, Note_on_c, 2, 79, 100
4, 90360, Note_on_c, 2, 79, 0
4, 90360, Note_on_c, 2, 71, 0
4, 90360, Note_on_c, 2, 62, 0
4, 90420, Note_on_c, 2, 74, 98
4, 90465, Note_on_c, 2, 74, 0
4, 90480, Note_on_c, 2, 71, 98
4, 90525, Note_on_c, 2, 71, 0
4, 90540, Note_on_c, 2, 67, 95
4, 90585, Note_on_c, 2, 67, 0
4, 90600, Note_on_c, 2, 71, 94
4, 90645, Note_on_c, 2, 71, 0
4, 90660, Note_on_c, 2, 74, 92
4, 90705, Note_on_c, 2, 74, 0
4, 90720, Note_on_c, 2, 79, 91
4, 90765, Note_on_c, 2, 79, 0
4, 90780, Note_on_c, 2, 74, 91
4, 90825, Note_on_c, 2, 74, 0
4, 90840, Note_on_c, 2, 79, 92
4, 90885, Note_on_c, 2, 79, 0
4, 90900, Note_on_c, 2, 83, 92
4, 90945, Note_on_c, 2, 83, 0
4, 90960, Note_on_c, 2, 86, 96
4, 91060, Note_on_c, 2, 86, 0
4, 91080, Note_on_c, 2, 62, 99
4, 91080, Note_on_c, 2, 69, 99
4, 91080, Note_on_c, 2, 78, 99
4, 91180, Note_on_c, 2, 78, 0
4, 91180, Note_on_c, 2, 69, 0
4, 91180, Note_on_c, 2, 62, 0
4, 91200, Note_on_c, 2, 62, 109
4, 91200, Note_on_c, 2, 71, 109
4, 91200, Note_on_c, 2, 79, 109
4, 91320, Note_on_c, 2, 79, 0
4, 91320, Note_on_c, 2, 71, 0
4, 91320, Note_on_c, 2, 62, 0
4, 91440, Note_on_c, 2, 62, 106
4, 91440, Note_on_c, 2, 71, 106
4, 91440, Note_on_c, 2, 79, 106
4, 91560, Note_on_c, 2, 79, 0
4, 91560, Note_on_c, 2, 71, 0
4, 91560, Note_on_c, 2, 62, 0
4, 91680, Note_on_c, 2, 62, 106
4, 91680, Note_on_c, 2, 71, 106
4, 91680, Note_on_c, 2, 79, 106
4, 91780, Note_on_c, 2, 79, 0
4, 91780, Note_on_c, 2, 71, 0
4, 91780, Note_on_c, 2, 62, 0
4, 91800, Note_on_c, 2, 55, 110
4, 91800, Note_on_c, 2, 67, 110
4, 91860, Note_on_c, 2, 67, 0
4, 91860, Note_on_c, 2, 55, 0
4, 91890, Note_on_c, 2, 55, 109
4, 91890, Note_on_c, 2, 67, 109
4, 91905, Note_on_c, 2, 67, 0
4, 91905, Note_on_c, 2, 55, 0
4, 91920, Note_on_c, 2, 55, 108
4, 91920, Note_on_c, 2, 67, 108
4, 92040, Note_on_c, 2, 67, 0
4, 92040, Note_on_c, 2, 55, 0
4, 92040, End_track
5, 0, Start_track
5, 0, MIDI_port, 0
5, 0, Title_t, """Wolfgang"
5, 0, Program_c, 3, 44
5, 0, Control_c, 3, 7, 100
5, 0, Control_c, 3, 10, 64
5, 0, Note_on_c, 3, 62, 85
5, 0, Note_on_c, 3, 79, 85
5, 0, Note_on_c, 3, 71, 85
5, 120, Note_on_c, 3, 71, 0
5, 120, Note_on_c, 3, 79, 0
5, 120, Note_on_c, 3, 62, 0
5, 180, Note_on_c, 3, 74, 85
5, 210, Note_on_c, 3, 74, 0
5, 240, Note_on_c, 3, 79, 85
5, 360, Note_on_c, 3, 79, 0
5, 420, Note_on_c, 3, 74, 85
5, 450, Note_on_c, 3, 74, 0
5, 480, Note_on_c, 3, 79, 85
5, 510, Note_on_c, 3, 79, 0
5, 540, Note_on_c, 3, 74, 85
5, 570, Note_on_c, 3, 74, 0
5, 600, Note_on_c, 3, 79, 85
5, 630, Note_on_c, 3, 79, 0
5, 660, Note_on_c, 3, 83, 85
5, 690, Note_on_c, 3, 83, 0
5, 720, Note_on_c, 3, 86, 85
5, 840, Note_on_c, 3, 86, 0
5, 960, Note_on_c, 3, 84, 85
5, 1080, Note_on_c, 3, 84, 0
5, 1140, Note_on_c, 3, 81, 82
5, 1170, Note_on_c, 3, 81, 0
5, 1200, Note_on_c, 3, 84, 85
5, 1320, Note_on_c, 3, 84, 0
5, 1380, Note_on_c, 3, 81, 79
5, 1410, Note_on_c, 3, 81, 0
5, 1440, Note_on_c, 3, 84, 85
5, 1470, Note_on_c, 3, 84, 0
5, 1500, Note_on_c, 3, 81, 80
5, 1530, Note_on_c, 3, 81, 0
5, 1560, Note_on_c, 3, 78, 85
5, 1590, Note_on_c, 3, 78, 0
5, 1620, Note_on_c, 3, 81, 77
5, 1650, Note_on_c, 3, 81, 0
5, 1680, Note_on_c, 3, 74, 85
5, 1800, Note_on_c, 3, 74, 0
5, 1920, Note_on_c, 3, 62, 85
5, 1920, Note_on_c, 3, 79, 85
5, 1920, Note_on_c, 3, 71, 85
5, 1980, Note_on_c, 3, 71, 0
5, 1980, Note_on_c, 3, 79, 0
5, 1980, Note_on_c, 3, 62, 0
5, 2040, Note_on_c, 3, 79, 85
5, 2220, Note_on_c, 3, 79, 0
5, 2220, Note_on_c, 3, 83, 89
5, 2280, Note_on_c, 3, 83, 0
5, 2280, Note_on_c, 3, 81, 94
5, 2310, Note_on_c, 3, 81, 0
5, 2340, Note_on_c, 3, 79, 97
5, 2370, Note_on_c, 3, 79, 0
5, 2400, Note_on_c, 3, 79, 95
5, 2415, Note_on_c, 3, 79, 0
5, 2415, Note_on_c, 3, 81, 95
5, 2430, Note_on_c, 3, 81, 0
5, 2430, Note_on_c, 3, 79, 95
5, 2445, Note_on_c, 3, 79, 0
5, 2445, Note_on_c, 3, 81, 94
5, 2460, Note_on_c, 3, 81, 0
5, 2460, Note_on_c, 3, 78, 94
5, 2510, Note_on_c, 3, 78, 0
5, 2520, Note_on_c, 3, 78, 88
5, 2700, Note_on_c, 3, 78, 0
5, 2700, Note_on_c, 3, 81, 85
5, 2760, Note_on_c, 3, 81, 0
5, 2760, Note_on_c, 3, 84, 85
5, 2790, Note_on_c, 3, 84, 0
5, 2820, Note_on_c, 3, 78, 85
5, 2850, Note_on_c, 3, 78, 0
5, 2880, Note_on_c, 3, 81, 85
5, 2940, Note_on_c, 3, 81, 0
5, 2940, Note_on_c, 3, 79, 85
5, 2970, Note_on_c, 3, 79, 0
5, 3000, Note_on_c, 3, 79, 85
5, 3180, Note_on_c, 3, 79, 0
5, 3180, Note_on_c, 3, 83, 86
5, 3240, Note_on_c, 3, 83, 0
5, 3240, Note_on_c, 3, 81, 86
5, 3270, Note_on_c, 3, 81, 0
5, 3300, Note_on_c, 3, 79, 89
5, 3330, Note_on_c, 3, 79, 0
5, 3360, Note_on_c, 3, 79, 91
5, 3375, Note_on_c, 3, 79, 0
5, 3375, Note_on_c, 3, 81, 91
5, 3390, Note_on_c, 3, 81, 0
5, 3390, Note_on_c, 3, 79, 92
5, 3405, Note_on_c, 3, 79, 0
5, 3405, Note_on_c, 3, 81, 94
5, 3420, Note_on_c, 3, 81, 0
5, 3420, Note_on_c, 3, 78, 94
5, 3470, Note_on_c, 3, 78, 0
5, 3480, Note_on_c, 3, 78, 94
5, 3660, Note_on_c, 3, 78, 0
5, 3660, Note_on_c, 3, 81, 85
5, 3720, Note_on_c, 3, 81, 0
5, 3720, Note_on_c, 3, 84, 85
5, 3750, Note_on_c, 3, 84, 0
5, 3780, Note_on_c, 3, 78, 85
5, 3810, Note_on_c, 3, 78, 0
5, 3840, Note_on_c, 3, 79, 85
5, 3870, Note_on_c, 3, 79, 0
5, 3900, Note_on_c, 3, 79, 85
5, 3930, Note_on_c, 3, 79, 0
5, 3960, Note_on_c, 3, 79, 85
5, 3990, Note_on_c, 3, 79, 0
5, 3990, Note_on_c, 3, 78, 85
5, 4020, Note_on_c, 3, 78, 0
5, 4020, Note_on_c, 3, 76, 85
5, 4050, Note_on_c, 3, 76, 0
5, 4050, Note_on_c, 3, 78, 85
5, 4080, Note_on_c, 3, 78, 0
5, 4080, Note_on_c, 3, 79, 85
5, 4110, Note_on_c, 3, 79, 0
5, 4140, Note_on_c, 3, 79, 85
5, 4170, Note_on_c, 3, 79, 0
5, 4200, Note_on_c, 3, 83, 85
5, 4230, Note_on_c, 3, 83, 0
5, 4230, Note_on_c, 3, 81, 85
5, 4260, Note_on_c, 3, 81, 0
5, 4260, Note_on_c, 3, 79, 85
5, 4290, Note_on_c, 3, 79, 0
5, 4290, Note_on_c, 3, 81, 85
5, 4320, Note_on_c, 3, 81, 0
5, 4320, Note_on_c, 3, 83, 86
5, 4350, Note_on_c, 3, 83, 0
5, 4380, Note_on_c, 3, 83, 86
5, 4410, Note_on_c, 3, 83, 0
5, 4440, Note_on_c, 3, 86, 83
5, 4470, Note_on_c, 3, 86, 0
5, 4470, Note_on_c, 3, 84, 80
5, 4500, Note_on_c, 3, 84, 0
5, 4500, Note_on_c, 3, 83, 80
5, 4530, Note_on_c, 3, 83, 0
5, 4530, Note_on_c, 3, 84, 79
5, 4560, Note_on_c, 3, 84, 0
5, 4560, Note_on_c, 3, 86, 76
5, 4680, Note_on_c, 3, 86, 0
5, 4800, Note_on_c, 3, 74, 41
5, 5040, Note_on_c, 3, 74, 0
5, 5040, Note_on_c, 3, 76, 47
5, 5280, Note_on_c, 3, 76, 0
5, 5280, Note_on_c, 3, 74, 47
5, 5310, Note_on_c, 3, 74, 0
5, 5310, Note_on_c, 3, 72, 47
5, 5390, Note_on_c, 3, 72, 0
5, 5400, Note_on_c, 3, 72, 47
5, 5520, Note_on_c, 3, 72, 0
5, 5520, Note_on_c, 3, 72, 47
5, 5550, Note_on_c, 3, 72, 0
5, 5550, Note_on_c, 3, 71, 47
5, 5630, Note_on_c, 3, 71, 0
5, 5640, Note_on_c, 3, 71, 47
5, 5760, Note_on_c, 3, 71, 0
5, 5760, Note_on_c, 3, 71, 47
5, 5790, Note_on_c, 3, 71, 0
5, 5790, Note_on_c, 3, 69, 47
5, 5870, Note_on_c, 3, 69, 0
5, 5880, Note_on_c, 3, 69, 47
5, 6000, Note_on_c, 3, 69, 0
5, 6000, Note_on_c, 3, 67, 47
5, 6060, Note_on_c, 3, 67, 0
5, 6060, Note_on_c, 3, 66, 47
5, 6090, Note_on_c, 3, 66, 0
5, 6120, Note_on_c, 3, 64, 47
5, 6150, Note_on_c, 3, 64, 0
5, 6180, Note_on_c, 3, 66, 47
5, 6210, Note_on_c, 3, 66, 0
5, 6240, Note_on_c, 3, 67, 47
5, 6300, Note_on_c, 3, 67, 0
5, 6360, Note_on_c, 3, 69, 47
5, 6420, Note_on_c, 3, 69, 0
5, 6480, Note_on_c, 3, 71, 47
5, 6540, Note_on_c, 3, 71, 0
5, 6720, Note_on_c, 3, 74, 47
5, 6960, Note_on_c, 3, 74, 0
5, 6960, Note_on_c, 3, 76, 47
5, 7200, Note_on_c, 3, 76, 0
5, 7200, Note_on_c, 3, 74, 47
5, 7260, Note_on_c, 3, 74, 0
5, 7260, Note_on_c, 3, 72, 47
5, 7290, Note_on_c, 3, 72, 0
5, 7320, Note_on_c, 3, 72, 47
5, 7350, Note_on_c, 3, 72, 0
5, 7380, Note_on_c, 3, 72, 47
5, 7410, Note_on_c, 3, 72, 0
5, 7440, Note_on_c, 3, 72, 47
5, 7500, Note_on_c, 3, 72, 0
5, 7500, Note_on_c, 3, 71, 47
5, 7530, Note_on_c, 3, 71, 0
5, 7560, Note_on_c, 3, 71, 47
5, 7590, Note_on_c, 3, 71, 0
5, 7620, Note_on_c, 3, 71, 47
5, 7650, Note_on_c, 3, 71, 0
5, 7680, Note_on_c, 3, 71, 47
5, 7740, Note_on_c, 3, 71, 0
5, 7740, Note_on_c, 3, 69, 47
5, 7770, Note_on_c, 3, 69, 0
5, 7800, Note_on_c, 3, 69, 47
5, 7845, Note_on_c, 3, 69, 0
5, 7860, Note_on_c, 3, 69, 47
5, 7905, Note_on_c, 3, 69, 0
5, 7920, Note_on_c, 3, 67, 47
5, 7980, Note_on_c, 3, 67, 0
5, 7980, Note_on_c, 3, 66, 47
5, 8040, Note_on_c, 3, 66, 0
5, 8040, Note_on_c, 3, 64, 47
5, 8100, Note_on_c, 3, 64, 0
5, 8100, Note_on_c, 3, 66, 47
5, 8160, Note_on_c, 3, 66, 0
5, 8160, Note_on_c, 3, 55, 85
5, 8160, Note_on_c, 3, 67, 85
5, 8460, Note_on_c, 3, 67, 0
5, 8460, Note_on_c, 3, 55, 0
5, 8460, Note_on_c, 3, 67, 61
5, 8475, Note_on_c, 3, 67, 0
5, 8475, Note_on_c, 3, 69, 61
5, 8490, Note_on_c, 3, 69, 0
5, 8490, Note_on_c, 3, 66, 61
5, 8505, Note_on_c, 3, 66, 0
5, 8505, Note_on_c, 3, 67, 61
5, 8520, Note_on_c, 3, 67, 0
5, 8520, Note_on_c, 3, 69, 61
5, 8580, Note_on_c, 3, 69, 0
5, 8580, Note_on_c, 3, 66, 61
5, 8640, Note_on_c, 3, 66, 0
5, 8640, Note_on_c, 3, 71, 85
5, 8940, Note_on_c, 3, 71, 0
5, 8940, Note_on_c, 3, 71, 61
5, 8955, Note_on_c, 3, 71, 0
5, 8955, Note_on_c, 3, 72, 61
5, 8970, Note_on_c, 3, 72, 0
5, 8970, Note_on_c, 3, 69, 61
5, 8985, Note_on_c, 3, 69, 0
5, 8985, Note_on_c, 3, 71, 61
5, 9000, Note_on_c, 3, 71, 0
5, 9000, Note_on_c, 3, 72, 61
5, 9060, Note_on_c, 3, 72, 0
5, 9060, Note_on_c, 3, 69, 61
5, 9120, Note_on_c, 3, 69, 0
5, 9120, Note_on_c, 3, 74, 46
5, 9140, Note_on_c, 3, 74, 0
5, 9150, Note_on_c, 3, 74, 46
5, 9170, Note_on_c, 3, 74, 0
5, 9180, Note_on_c, 3, 74, 47
5, 9200, Note_on_c, 3, 74, 0
5, 9210, Note_on_c, 3, 74, 47
5, 9230, Note_on_c, 3, 74, 0
5, 9240, Note_on_c, 3, 74, 49
5, 9260, Note_on_c, 3, 74, 0
5, 9270, Note_on_c, 3, 74, 50
5, 9290, Note_on_c, 3, 74, 0
5, 9300, Note_on_c, 3, 74, 50
5, 9320, Note_on_c, 3, 74, 0
5, 9330, Note_on_c, 3, 74, 52
5, 9350, Note_on_c, 3, 74, 0
5, 9360, Note_on_c, 3, 76, 53
5, 9380, Note_on_c, 3, 76, 0
5, 9390, Note_on_c, 3, 76, 53
5, 9410, Note_on_c, 3, 76, 0
5, 9420, Note_on_c, 3, 76, 55
5, 9440, Note_on_c, 3, 76, 0
5, 9450, Note_on_c, 3, 76, 56
5, 9470, Note_on_c, 3, 76, 0
5, 9480, Note_on_c, 3, 78, 56
5, 9500, Note_on_c, 3, 78, 0
5, 9510, Note_on_c, 3, 78, 58
5, 9530, Note_on_c, 3, 78, 0
5, 9540, Note_on_c, 3, 78, 58
5, 9560, Note_on_c, 3, 78, 0
5, 9570, Note_on_c, 3, 78, 59
5, 9590, Note_on_c, 3, 78, 0
5, 9600, Note_on_c, 3, 79, 61
5, 9620, Note_on_c, 3, 79, 0
5, 9630, Note_on_c, 3, 79, 61
5, 9650, Note_on_c, 3, 79, 0
5, 9660, Note_on_c, 3, 79, 62
5, 9680, Note_on_c, 3, 79, 0
5, 9690, Note_on_c, 3, 79, 64
5, 9710, Note_on_c, 3, 79, 0
5, 9720, Note_on_c, 3, 81, 64
5, 9740, Note_on_c, 3, 81, 0
5, 9750, Note_on_c, 3, 81, 65
5, 9770, Note_on_c, 3, 81, 0
5, 9780, Note_on_c, 3, 81, 67
5, 9800, Note_on_c, 3, 81, 0
5, 9810, Note_on_c, 3, 81, 67
5, 9830, Note_on_c, 3, 81, 0
5, 9840, Note_on_c, 3, 83, 68
5, 9860, Note_on_c, 3, 83, 0
5, 9870, Note_on_c, 3, 83, 68
5, 9890, Note_on_c, 3, 83, 0
5, 9900, Note_on_c, 3, 83, 70
5, 9920, Note_on_c, 3, 83, 0
5, 9930, Note_on_c, 3, 83, 71
5, 9950, Note_on_c, 3, 83, 0
5, 9960, Note_on_c, 3, 85, 71
5, 9980, Note_on_c, 3, 85, 0
5, 9990, Note_on_c, 3, 85, 73
5, 10010, Note_on_c, 3, 85, 0
5, 10020, Note_on_c, 3, 85, 74
5, 10040, Note_on_c, 3, 85, 0
5, 10050, Note_on_c, 3, 85, 74
5, 10070, Note_on_c, 3, 85, 0
5, 10080, Note_on_c, 3, 86, 85
5, 10260, Note_on_c, 3, 86, 0
5, 10260, Note_on_c, 3, 81, 85
5, 10320, Note_on_c, 3, 81, 0
5, 10320, Note_on_c, 3, 85, 94
5, 10410, Note_on_c, 3, 85, 0
5, 10410, Note_on_c, 3, 81, 85
5, 10440, Note_on_c, 3, 81, 0
5, 10440, Note_on_c, 3, 85, 85
5, 10530, Note_on_c, 3, 85, 0
5, 10530, Note_on_c, 3, 81, 85
5, 10560, Note_on_c, 3, 81, 0
5, 10560, Note_on_c, 3, 86, 85
5, 10740, Note_on_c, 3, 86, 0
5, 10740, Note_on_c, 3, 81, 85
5, 10800, Note_on_c, 3, 81, 0
5, 10800, Note_on_c, 3, 85, 85
5, 10890, Note_on_c, 3, 85, 0
5, 10890, Note_on_c, 3, 81, 85
5, 10920, Note_on_c, 3, 81, 0
5, 10920, Note_on_c, 3, 85, 85
5, 11010, Note_on_c, 3, 85, 0
5, 11010, Note_on_c, 3, 81, 85
5, 11040, Note_on_c, 3, 81, 0
5, 11040, Note_on_c, 3, 86, 85
5, 11070, Note_on_c, 3, 86, 0
5, 11100, Note_on_c, 3, 78, 85
5, 11100, Note_on_c, 3, 86, 85
5, 11190, Note_on_c, 3, 86, 0
5, 11190, Note_on_c, 3, 78, 0
5, 11220, Note_on_c, 3, 78, 85
5, 11220, Note_on_c, 3, 86, 85
5, 11310, Note_on_c, 3, 86, 0
5, 11310, Note_on_c, 3, 78, 0
5, 11340, Note_on_c, 3, 78, 85
5, 11340, Note_on_c, 3, 86, 85
5, 11430, Note_on_c, 3, 86, 0
5, 11430, Note_on_c, 3, 78, 0
5, 11460, Note_on_c, 3, 78, 85
5, 11460, Note_on_c, 3, 86, 85
5, 11520, Note_on_c, 3, 78, 0
5, 11520, Note_on_c, 3, 76, 85
5, 11550, Note_on_c, 3, 76, 0
5, 11550, Note_on_c, 3, 86, 0
5, 11580, Note_on_c, 3, 76, 85
5, 11580, Note_on_c, 3, 86, 85
5, 11670, Note_on_c, 3, 86, 0
5, 11670, Note_on_c, 3, 76, 0
5, 11700, Note_on_c, 3, 76, 85
5, 11700, Note_on_c, 3, 86, 85
5, 11790, Note_on_c, 3, 86, 0
5, 11790, Note_on_c, 3, 76, 0
5, 11820, Note_on_c, 3, 76, 85
5, 11820, Note_on_c, 3, 86, 85
5, 11910, Note_on_c, 3, 86, 0
5, 11910, Note_on_c, 3, 76, 0
5, 11940, Note_on_c, 3, 76, 85
5, 11940, Note_on_c, 3, 86, 85
5, 12000, Note_on_c, 3, 86, 0
5, 12000, Note_on_c, 3, 76, 0
5, 12000, Note_on_c, 3, 76, 92
5, 12000, Note_on_c, 3, 85, 92
5, 12045, Note_on_c, 3, 85, 0
5, 12045, Note_on_c, 3, 76, 0
5, 12060, Note_on_c, 3, 81, 85
5, 12105, Note_on_c, 3, 81, 0
5, 12120, Note_on_c, 3, 86, 85
5, 12165, Note_on_c, 3, 86, 0
5, 12180, Note_on_c, 3, 81, 85
5, 12225, Note_on_c, 3, 81, 0
5, 12240, Note_on_c, 3, 85, 85
5, 12285, Note_on_c, 3, 85, 0
5, 12300, Note_on_c, 3, 81, 85
5, 12345, Note_on_c, 3, 81, 0
5, 12360, Note_on_c, 3, 86, 85
5, 12405, Note_on_c, 3, 86, 0
5, 12420, Note_on_c, 3, 81, 85
5, 12465, Note_on_c, 3, 81, 0
5, 12480, Note_on_c, 3, 85, 94
5, 12525, Note_on_c, 3, 85, 0
5, 12540, Note_on_c, 3, 69, 85
5, 12585, Note_on_c, 3, 69, 0
5, 12600, Note_on_c, 3, 69, 85
5, 12645, Note_on_c, 3, 69, 0
5, 12660, Note_on_c, 3, 69, 85
5, 12705, Note_on_c, 3, 69, 0
5, 12720, Note_on_c, 3, 69, 85
5, 12840, Note_on_c, 3, 69, 0
5, 12950, Control_c, 3, 11, 77
5, 12960, Note_on_c, 3, 81, 55
5, 12964, Control_c, 3, 11, 80
5, 12966, Control_c, 3, 11, 82
5, 12970, Control_c, 3, 11, 83
5, 12974, Control_c, 3, 11, 85
5, 12978, Control_c, 3, 11, 87
5, 12994, Control_c, 3, 11, 93
5, 12998, Control_c, 3, 11, 101
5, 13010, Control_c, 3, 11, 107
5, 13022, Control_c, 3, 11, 113
5, 13034, Control_c, 3, 11, 115
5, 13038, Control_c, 3, 11, 117
5, 13042, Control_c, 3, 11, 118
5, 13044, Control_c, 3, 11, 119
5, 13048, Control_c, 3, 11, 120
5, 13052, Control_c, 3, 11, 121
5, 13056, Control_c, 3, 11, 122
5, 13058, Control_c, 3, 11, 123
5, 13060, Control_c, 3, 11, 124
5, 13064, Control_c, 3, 11, 127
5, 13140, Note_on_c, 3, 81, 0
5, 13140, Note_on_c, 3, 79, 55
5, 13160, Note_on_c, 3, 79, 0
5, 13160, Note_on_c, 3, 78, 55
5, 13180, Note_on_c, 3, 78, 0
5, 13180, Note_on_c, 3, 76, 55
5, 13200, Note_on_c, 3, 76, 0
5, 13200, Note_on_c, 3, 74, 55
5, 13260, Note_on_c, 3, 74, 0
5, 13320, Note_on_c, 3, 83, 55
5, 13380, Note_on_c, 3, 83, 0
5, 13440, Note_on_c, 3, 79, 55
5, 13500, Note_on_c, 3, 79, 0
5, 13560, Note_on_c, 3, 76, 55
5, 13620, Note_on_c, 3, 76, 0
5, 13680, Note_on_c, 3, 81, 55
5, 13740, Note_on_c, 3, 81, 0
5, 13920, Note_on_c, 3, 78, 55
5, 14100, Note_on_c, 3, 78, 0
5, 14100, Note_on_c, 3, 76, 55
5, 14120, Note_on_c, 3, 76, 0
5, 14120, Note_on_c, 3, 74, 55
5, 14140, Note_on_c, 3, 74, 0
5, 14140, Note_on_c, 3, 73, 55
5, 14160, Note_on_c, 3, 73, 0
5, 14160, Note_on_c, 3, 71, 55
5, 14220, Note_on_c, 3, 71, 0
5, 14280, Note_on_c, 3, 79, 55
5, 14340, Note_on_c, 3, 79, 0
5, 14400, Note_on_c, 3, 78, 55
5, 14640, Note_on_c, 3, 78, 0
5, 14640, Note_on_c, 3, 76, 49
5, 14760, Note_on_c, 3, 76, 0
5, 14940, Note_on_c, 3, 81, 55
5, 14970, Note_on_c, 3, 81, 0
5, 15000, Note_on_c, 3, 81, 55
5, 15030, Note_on_c, 3, 81, 0
5, 15060, Note_on_c, 3, 81, 55
5, 15090, Note_on_c, 3, 81, 0
5, 15120, Note_on_c, 3, 81, 55
5, 15150, Note_on_c, 3, 81, 0
5, 15180, Note_on_c, 3, 81, 55
5, 15210, Note_on_c, 3, 81, 0
5, 15240, Note_on_c, 3, 81, 55
5, 15270, Note_on_c, 3, 81, 0
5, 15300, Note_on_c, 3, 81, 55
5, 15330, Note_on_c, 3, 81, 0
5, 15360, Note_on_c, 3, 81, 55
5, 15390, Note_on_c, 3, 81, 0
5, 15420, Note_on_c, 3, 81, 55
5, 15450, Note_on_c, 3, 81, 0
5, 15480, Note_on_c, 3, 81, 55
5, 15510, Note_on_c, 3, 81, 0
5, 15540, Note_on_c, 3, 81, 55
5, 15570, Note_on_c, 3, 81, 0
5, 15600, Note_on_c, 3, 81, 55
5, 15630, Note_on_c, 3, 81, 0
5, 15660, Note_on_c, 3, 81, 55
5, 15690, Note_on_c, 3, 81, 0
5, 15720, Note_on_c, 3, 83, 55
5, 15750, Note_on_c, 3, 83, 0
5, 15780, Note_on_c, 3, 85, 55
5, 15810, Note_on_c, 3, 85, 0
5, 15840, Note_on_c, 3, 85, 55
5, 15900, Note_on_c, 3, 85, 0
5, 15900, Note_on_c, 3, 86, 55
5, 15960, Note_on_c, 3, 86, 0
5, 16020, Note_on_c, 3, 83, 55
5, 16050, Note_on_c, 3, 83, 0
5, 16080, Note_on_c, 3, 83, 55
5, 16140, Note_on_c, 3, 83, 0
5, 16140, Note_on_c, 3, 81, 55
5, 16200, Note_on_c, 3, 81, 0
5, 16260, Note_on_c, 3, 73, 55
5, 16305, Note_on_c, 3, 73, 0
5, 16320, Note_on_c, 3, 74, 55
5, 16440, Note_on_c, 3, 74, 0
5, 16500, Note_on_c, 3, 81, 55
5, 16530, Note_on_c, 3, 81, 0
5, 16560, Note_on_c, 3, 86, 55
5, 16620, Note_on_c, 3, 86, 0
5, 16620, Note_on_c, 3, 85, 55
5, 16680, Note_on_c, 3, 85, 0
5, 16680, Note_on_c, 3, 83, 55
5, 16740, Note_on_c, 3, 83, 0
5, 16740, Note_on_c, 3, 81, 55
5, 16800, Note_on_c, 3, 81, 0
5, 16800, Note_on_c, 3, 83, 55
5, 16815, Note_on_c, 3, 83, 0
5, 16815, Note_on_c, 3, 85, 55
5, 16830, Note_on_c, 3, 85, 0
5, 16830, Note_on_c, 3, 83, 55
5, 16845, Note_on_c, 3, 83, 0
5, 16845, Note_on_c, 3, 85, 55
5, 16860, Note_on_c, 3, 85, 0
5, 16860, Note_on_c, 3, 81, 55
5, 16920, Note_on_c, 3, 81, 0
5, 16980, Note_on_c, 3, 81, 55
5, 17010, Note_on_c, 3, 81, 0
5, 17040, Note_on_c, 3, 81, 55
5, 17070, Note_on_c, 3, 81, 0
5, 17100, Note_on_c, 3, 81, 55
5, 17130, Note_on_c, 3, 81, 0
5, 17160, Note_on_c, 3, 81, 55
5, 17190, Note_on_c, 3, 81, 0
5, 17220, Note_on_c, 3, 81, 55
5, 17250, Note_on_c, 3, 81, 0
5, 17280, Note_on_c, 3, 83, 55
5, 17295, Note_on_c, 3, 83, 0
5, 17295, Note_on_c, 3, 85, 55
5, 17310, Note_on_c, 3, 85, 0
5, 17310, Note_on_c, 3, 83, 55
5, 17325, Note_on_c, 3, 83, 0
5, 17325, Note_on_c, 3, 85, 55
5, 17340, Note_on_c, 3, 85, 0
5, 17340, Note_on_c, 3, 81, 55
5, 17400, Note_on_c, 3, 81, 0
5, 17460, Note_on_c, 3, 81, 55
5, 17505, Note_on_c, 3, 81, 0
5, 17520, Note_on_c, 3, 86, 55
5, 17580, Note_on_c, 3, 86, 0
5, 17580, Note_on_c, 3, 85, 55
5, 17640, Note_on_c, 3, 85, 0
5, 17640, Note_on_c, 3, 83, 55
5, 17700, Note_on_c, 3, 83, 0
5, 17700, Note_on_c, 3, 81, 55
5, 17760, Note_on_c, 3, 81, 0
5, 17760, Note_on_c, 3, 83, 55
5, 17775, Note_on_c, 3, 83, 0
5, 17775, Note_on_c, 3, 85, 55
5, 17790, Note_on_c, 3, 85, 0
5, 17790, Note_on_c, 3, 83, 55
5, 17805, Note_on_c, 3, 83, 0
5, 17805, Note_on_c, 3, 85, 55
5, 17820, Note_on_c, 3, 85, 0
5, 17820, Note_on_c, 3, 81, 55
5, 17880, Note_on_c, 3, 81, 0
5, 17940, Note_on_c, 3, 81, 55
5, 17970, Note_on_c, 3, 81, 0
5, 18000, Note_on_c, 3, 81, 55
5, 18030, Note_on_c, 3, 81, 0
5, 18060, Note_on_c, 3, 81, 55
5, 18090, Note_on_c, 3, 81, 0
5, 18120, Note_on_c, 3, 81, 55
5, 18150, Note_on_c, 3, 81, 0
5, 18180, Note_on_c, 3, 81, 53
5, 18210, Note_on_c, 3, 81, 0
5, 18240, Note_on_c, 3, 83, 49
5, 18255, Note_on_c, 3, 83, 0
5, 18255, Note_on_c, 3, 85, 49
5, 18270, Note_on_c, 3, 85, 0
5, 18270, Note_on_c, 3, 83, 47
5, 18285, Note_on_c, 3, 83, 0
5, 18285, Note_on_c, 3, 85, 47
5, 18300, Note_on_c, 3, 85, 0
5, 18300, Note_on_c, 3, 81, 46
5, 18360, Note_on_c, 3, 81, 0
5, 18480, Note_on_c, 3, 71, 91
5, 18480, Note_on_c, 3, 83, 91
5, 18650, Note_on_c, 3, 83, 0
5, 18650, Note_on_c, 3, 71, 0
5, 18660, Note_on_c, 3, 81, 89
5, 18680, Note_on_c, 3, 81, 0
5, 18680, Note_on_c, 3, 79, 92
5, 18700, Note_on_c, 3, 79, 0
5, 18700, Note_on_c, 3, 78, 94
5, 18720, Note_on_c, 3, 78, 0
5, 18720, Note_on_c, 3, 79, 97
5, 18840, Note_on_c, 3, 79, 0
5, 18960, Note_on_c, 3, 81, 85
5, 18960, Note_on_c, 3, 69, 85
5, 19130, Note_on_c, 3, 69, 0
5, 19130, Note_on_c, 3, 81, 0
5, 19140, Note_on_c, 3, 79, 86
5, 19160, Note_on_c, 3, 79, 0
5, 19160, Note_on_c, 3, 78, 86
5, 19180, Note_on_c, 3, 78, 0
5, 19180, Note_on_c, 3, 76, 89
5, 19200, Note_on_c, 3, 76, 0
5, 19200, Note_on_c, 3, 78, 92
5, 19320, Note_on_c, 3, 78, 0
5, 19440, Note_on_c, 3, 83, 85
5, 19500, Note_on_c, 3, 83, 0
5, 19500, Note_on_c, 3, 85, 85
5, 19530, Note_on_c, 3, 85, 0
5, 19530, Note_on_c, 3, 86, 89
5, 19560, Note_on_c, 3, 86, 0
5, 19560, Note_on_c, 3, 85, 94
5, 19605, Note_on_c, 3, 85, 0
5, 19620, Note_on_c, 3, 83, 95
5, 19650, Note_on_c, 3, 83, 0
5, 19680, Note_on_c, 3, 83, 97
5, 19740, Note_on_c, 3, 83, 0
5, 19740, Note_on_c, 3, 81, 101
5, 19785, Note_on_c, 3, 81, 0
5, 19800, Note_on_c, 3, 78, 104
5, 19830, Note_on_c, 3, 78, 0
5, 19860, Note_on_c, 3, 81, 104
5, 19890, Note_on_c, 3, 81, 0
5, 19920, Note_on_c, 3, 81, 104
5, 19980, Note_on_c, 3, 81, 0
5, 19980, Note_on_c, 3, 79, 103
5, 20025, Note_on_c, 3, 79, 0
5, 20040, Note_on_c, 3, 78, 98
5, 20070, Note_on_c, 3, 78, 0
5, 20100, Note_on_c, 3, 76, 89
5, 20130, Note_on_c, 3, 76, 0
5, 20160, Note_on_c, 3, 74, 85
5, 20280, Note_on_c, 3, 74, 0
5, 20340, Note_on_c, 3, 81, 53
5, 20370, Note_on_c, 3, 81, 0
5, 20400, Note_on_c, 3, 86, 53
5, 20460, Note_on_c, 3, 86, 0
5, 20460, Note_on_c, 3, 85, 53
5, 20520, Note_on_c, 3, 85, 0
5, 20520, Note_on_c, 3, 83, 53
5, 20580, Note_on_c, 3, 83, 0
5, 20580, Note_on_c, 3, 81, 53
5, 20640, Note_on_c, 3, 81, 0
5, 20640, Note_on_c, 3, 83, 55
5, 20655, Note_on_c, 3, 83, 0
5, 20655, Note_on_c, 3, 85, 55
5, 20670, Note_on_c, 3, 85, 0
5, 20670, Note_on_c, 3, 83, 55
5, 20685, Note_on_c, 3, 83, 0
5, 20685, Note_on_c, 3, 85, 55
5, 20700, Note_on_c, 3, 85, 0
5, 20700, Note_on_c, 3, 81, 55
5, 20760, Note_on_c, 3, 81, 0
5, 20820, Note_on_c, 3, 81, 55
5, 20850, Note_on_c, 3, 81, 0
5, 20880, Note_on_c, 3, 81, 55
5, 20910, Note_on_c, 3, 81, 0
5, 20940, Note_on_c, 3, 81, 55
5, 20970, Note_on_c, 3, 81, 0
5, 21000, Note_on_c, 3, 81, 55
5, 21030, Note_on_c, 3, 81, 0
5, 21060, Note_on_c, 3, 81, 55
5, 21090, Note_on_c, 3, 81, 0
5, 21120, Note_on_c, 3, 83, 55
5, 21135, Note_on_c, 3, 83, 0
5, 21135, Note_on_c, 3, 85, 55
5, 21150, Note_on_c, 3, 85, 0
5, 21150, Note_on_c, 3, 83, 55
5, 21165, Note_on_c, 3, 83, 0
5, 21165, Note_on_c, 3, 85, 55
5, 21180, Note_on_c, 3, 85, 0
5, 21180, Note_on_c, 3, 81, 55
5, 21240, Note_on_c, 3, 81, 0
5, 21300, Note_on_c, 3, 81, 55
5, 21345, Note_on_c, 3, 81, 0
5, 21360, Note_on_c, 3, 86, 55
5, 21420, Note_on_c, 3, 86, 0
5, 21420, Note_on_c, 3, 85, 55
5, 21480, Note_on_c, 3, 85, 0
5, 21480, Note_on_c, 3, 83, 55
5, 21540, Note_on_c, 3, 83, 0
5, 21540, Note_on_c, 3, 81, 55
5, 21600, Note_on_c, 3, 81, 0
5, 21600, Note_on_c, 3, 83, 55
5, 21615, Note_on_c, 3, 83, 0
5, 21615, Note_on_c, 3, 85, 55
5, 21630, Note_on_c, 3, 85, 0
5, 21630, Note_on_c, 3, 83, 55
5, 21645, Note_on_c, 3, 83, 0
5, 21645, Note_on_c, 3, 85, 55
5, 21660, Note_on_c, 3, 85, 0
5, 21660, Note_on_c, 3, 81, 55
5, 21720, Note_on_c, 3, 81, 0
5, 21780, Note_on_c, 3, 81, 55
5, 21810, Note_on_c, 3, 81, 0
5, 21840, Note_on_c, 3, 81, 55
5, 21870, Note_on_c, 3, 81, 0
5, 21900, Note_on_c, 3, 81, 55
5, 21930, Note_on_c, 3, 81, 0
5, 21960, Note_on_c, 3, 81, 55
5, 21990, Note_on_c, 3, 81, 0
5, 22020, Note_on_c, 3, 81, 55
5, 22050, Note_on_c, 3, 81, 0
5, 22080, Note_on_c, 3, 83, 59
5, 22095, Note_on_c, 3, 83, 0
5, 22095, Note_on_c, 3, 85, 59
5, 22110, Note_on_c, 3, 85, 0
5, 22110, Note_on_c, 3, 83, 59
5, 22125, Note_on_c, 3, 83, 0
5, 22125, Note_on_c, 3, 85, 59
5, 22140, Note_on_c, 3, 85, 0
5, 22140, Note_on_c, 3, 81, 59
5, 22200, Note_on_c, 3, 81, 0
5, 22320, Note_on_c, 3, 71, 85
5, 22320, Note_on_c, 3, 83, 85
5, 22490, Note_on_c, 3, 83, 0
5, 22490, Note_on_c, 3, 71, 0
5, 22500, Note_on_c, 3, 81, 85
5, 22520, Note_on_c, 3, 81, 0
5, 22520, Note_on_c, 3, 79, 85
5, 22540, Note_on_c, 3, 79, 0
5, 22540, Note_on_c, 3, 78, 85
5, 22560, Note_on_c, 3, 78, 0
5, 22560, Note_on_c, 3, 79, 85
5, 22680, Note_on_c, 3, 79, 0
5, 22800, Note_on_c, 3, 81, 85
5, 22800, Note_on_c, 3, 69, 85
5, 22970, Note_on_c, 3, 69, 0
5, 22970, Note_on_c, 3, 81, 0
5, 22980, Note_on_c, 3, 79, 85
5, 23000, Note_on_c, 3, 79, 0
5, 23000, Note_on_c, 3, 78, 85
5, 23020, Note_on_c, 3, 78, 0
5, 23020, Note_on_c, 3, 76, 85
5, 23040, Note_on_c, 3, 76, 0
5, 23040, Note_on_c, 3, 78, 85
5, 23160, Note_on_c, 3, 78, 0
5, 23280, Note_on_c, 3, 83, 80
5, 23340, Note_on_c, 3, 83, 0
5, 23340, Note_on_c, 3, 85, 82
5, 23370, Note_on_c, 3, 85, 0
5, 23370, Note_on_c, 3, 86, 83
5, 23400, Note_on_c, 3, 86, 0
5, 23400, Note_on_c, 3, 85, 83
5, 23445, Note_on_c, 3, 85, 0
5, 23460, Note_on_c, 3, 83, 85
5, 23490, Note_on_c, 3, 83, 0
5, 23520, Note_on_c, 3, 83, 86
5, 23580, Note_on_c, 3, 83, 0
5, 23580, Note_on_c, 3, 81, 88
5, 23625, Note_on_c, 3, 81, 0
5, 23640, Note_on_c, 3, 78, 88
5, 23670, Note_on_c, 3, 78, 0
5, 23700, Note_on_c, 3, 81, 88
5, 23730, Note_on_c, 3, 81, 0
5, 23760, Note_on_c, 3, 81, 88
5, 23820, Note_on_c, 3, 81, 0
5, 23820, Note_on_c, 3, 79, 88
5, 23865, Note_on_c, 3, 79, 0
5, 23880, Note_on_c, 3, 78, 88
5, 23910, Note_on_c, 3, 78, 0
5, 23940, Note_on_c, 3, 76, 88
5, 23970, Note_on_c, 3, 76, 0
5, 24000, Note_on_c, 3, 74, 88
5, 24045, Note_on_c, 3, 74, 0
5, 24060, Note_on_c, 3, 69, 88
5, 24105, Note_on_c, 3, 69, 0
5, 24120, Note_on_c, 3, 71, 88
5, 24165, Note_on_c, 3, 71, 0
5, 24180, Note_on_c, 3, 73, 85
5, 24225, Note_on_c, 3, 73, 0
5, 24240, Note_on_c, 3, 74, 82
5, 24270, Note_on_c, 3, 74, 0
5, 24300, Note_on_c, 3, 74, 85
5, 24330, Note_on_c, 3, 74, 0
5, 24360, Note_on_c, 3, 76, 85
5, 24375, Note_on_c, 3, 76, 0
5, 24375, Note_on_c, 3, 78, 85
5, 24390, Note_on_c, 3, 78, 0
5, 24390, Note_on_c, 3, 76, 85
5, 24405, Note_on_c, 3, 76, 0
5, 24405, Note_on_c, 3, 78, 85
5, 24420, Note_on_c, 3, 78, 0
5, 24420, Note_on_c, 3, 74, 85
5, 24450, Note_on_c, 3, 74, 0
5, 24450, Note_on_c, 3, 76, 85
5, 24480, Note_on_c, 3, 76, 0
5, 24480, Note_on_c, 3, 78, 85
5, 24540, Note_on_c, 3, 78, 0
5, 24540, Note_on_c, 3, 73, 85
5, 24585, Note_on_c, 3, 73, 0
5, 24600, Note_on_c, 3, 74, 85
5, 24645, Note_on_c, 3, 74, 0
5, 24660, Note_on_c, 3, 76, 85
5, 24705, Note_on_c, 3, 76, 0
5, 24720, Note_on_c, 3, 78, 85
5, 24765, Note_on_c, 3, 78, 0
5, 24780, Note_on_c, 3, 78, 85
5, 24825, Note_on_c, 3, 78, 0
5, 24840, Note_on_c, 3, 79, 85
5, 24855, Note_on_c, 3, 79, 0
5, 24855, Note_on_c, 3, 81, 86
5, 24870, Note_on_c, 3, 81, 0
5, 24870, Note_on_c, 3, 79, 88
5, 24885, Note_on_c, 3, 79, 0
5, 24885, Note_on_c, 3, 81, 88
5, 24900, Note_on_c, 3, 81, 0
5, 24900, Note_on_c, 3, 78, 88
5, 24930, Note_on_c, 3, 78, 0
5, 24930, Note_on_c, 3, 79, 88
5, 24960, Note_on_c, 3, 79, 0
5, 24960, Note_on_c, 3, 81, 88
5, 25005, Note_on_c, 3, 81, 0
5, 25020, Note_on_c, 3, 81, 91
5, 25065, Note_on_c, 3, 81, 0
5, 25080, Note_on_c, 3, 82, 92
5, 25095, Note_on_c, 3, 82, 0
5, 25095, Note_on_c, 3, 83, 92
5, 25110, Note_on_c, 3, 83, 0
5, 25110, Note_on_c, 3, 82, 94
5, 25125, Note_on_c, 3, 82, 0
5, 25125, Note_on_c, 3, 83, 94
5, 25140, Note_on_c, 3, 83, 0
5, 25140, Note_on_c, 3, 80, 95
5, 25170, Note_on_c, 3, 80, 0
5, 25170, Note_on_c, 3, 82, 97
5, 25200, Note_on_c, 3, 82, 0
5, 25200, Note_on_c, 3, 83, 100
5, 25320, Note_on_c, 3, 83, 0
5, 25440, Note_on_c, 3, 71, 47
5, 25620, Note_on_c, 3, 71, 0
5, 25620, Note_on_c, 3, 76, 47
5, 25665, Note_on_c, 3, 76, 0
5, 25680, Note_on_c, 3, 74, 47
5, 25740, Note_on_c, 3, 74, 0
5, 25740, Note_on_c, 3, 73, 47
5, 25800, Note_on_c, 3, 73, 0
5, 25800, Note_on_c, 3, 71, 49
5, 25860, Note_on_c, 3, 71, 0
5, 25860, Note_on_c, 3, 69, 50
5, 25920, Note_on_c, 3, 69, 0
5, 25920, Note_on_c, 3, 74, 50
5, 25980, Note_on_c, 3, 74, 0
5, 26040, Note_on_c, 3, 78, 50
5, 26100, Note_on_c, 3, 78, 0
5, 26160, Note_on_c, 3, 74, 41
5, 26220, Note_on_c, 3, 74, 0
5, 26400, Note_on_c, 3, 62, 85
5, 26400, Note_on_c, 3, 79, 85
5, 26400, Note_on_c, 3, 71, 85
5, 26520, Note_on_c, 3, 71, 0
5, 26520, Note_on_c, 3, 79, 0
5, 26520, Note_on_c, 3, 62, 0
5, 26580, Note_on_c, 3, 74, 85
5, 26610, Note_on_c, 3, 74, 0
5, 26640, Note_on_c, 3, 79, 85
5, 26760, Note_on_c, 3, 79, 0
5, 26820, Note_on_c, 3, 74, 85
5, 26850, Note_on_c, 3, 74, 0
5, 26880, Note_on_c, 3, 79, 85
5, 26910, Note_on_c, 3, 79, 0
5, 26940, Note_on_c, 3, 74, 85
5, 26970, Note_on_c, 3, 74, 0
5, 27000, Note_on_c, 3, 79, 85
5, 27030, Note_on_c, 3, 79, 0
5, 27060, Note_on_c, 3, 83, 85
5, 27090, Note_on_c, 3, 83, 0
5, 27120, Note_on_c, 3, 86, 85
5, 27240, Note_on_c, 3, 86, 0
5, 27360, Note_on_c, 3, 84, 85
5, 27480, Note_on_c, 3, 84, 0
5, 27540, Note_on_c, 3, 81, 76
5, 27570, Note_on_c, 3, 81, 0
5, 27600, Note_on_c, 3, 84, 85
5, 27720, Note_on_c, 3, 84, 0
5, 27780, Note_on_c, 3, 81, 76
5, 27810, Note_on_c, 3, 81, 0
5, 27840, Note_on_c, 3, 84, 85
5, 27870, Note_on_c, 3, 84, 0
5, 27900, Note_on_c, 3, 81, 74
5, 27930, Note_on_c, 3, 81, 0
5, 27960, Note_on_c, 3, 78, 85
5, 27990, Note_on_c, 3, 78, 0
5, 28020, Note_on_c, 3, 81, 71
5, 28050, Note_on_c, 3, 81, 0
5, 28080, Note_on_c, 3, 74, 85
5, 28200, Note_on_c, 3, 74, 0
5, 28320, Note_on_c, 3, 62, 85
5, 28320, Note_on_c, 3, 79, 85
5, 28320, Note_on_c, 3, 71, 85
5, 28380, Note_on_c, 3, 71, 0
5, 28380, Note_on_c, 3, 79, 0
5, 28380, Note_on_c, 3, 62, 0
5, 28440, Note_on_c, 3, 79, 85
5, 28620, Note_on_c, 3, 79, 0
5, 28620, Note_on_c, 3, 83, 85
5, 28680, Note_on_c, 3, 83, 0
5, 28680, Note_on_c, 3, 81, 85
5, 28710, Note_on_c, 3, 81, 0
5, 28740, Note_on_c, 3, 79, 85
5, 28770, Note_on_c, 3, 79, 0
5, 28800, Note_on_c, 3, 79, 85
5, 28815, Note_on_c, 3, 79, 0
5, 28815, Note_on_c, 3, 81, 85
5, 28830, Note_on_c, 3, 81, 0
5, 28830, Note_on_c, 3, 79, 85
5, 28845, Note_on_c, 3, 79, 0
5, 28845, Note_on_c, 3, 81, 85
5, 28860, Note_on_c, 3, 81, 0
5, 28860, Note_on_c, 3, 78, 85
5, 28910, Note_on_c, 3, 78, 0
5, 28920, Note_on_c, 3, 78, 85
5, 29100, Note_on_c, 3, 78, 0
5, 29100, Note_on_c, 3, 81, 85
5, 29160, Note_on_c, 3, 81, 0
5, 29160, Note_on_c, 3, 84, 85
5, 29190, Note_on_c, 3, 84, 0
5, 29220, Note_on_c, 3, 78, 85
5, 29250, Note_on_c, 3, 78, 0
5, 29280, Note_on_c, 3, 81, 85
5, 29340, Note_on_c, 3, 81, 0
5, 29340, Note_on_c, 3, 79, 85
5, 29370, Note_on_c, 3, 79, 0
5, 29400, Note_on_c, 3, 79, 85
5, 29580, Note_on_c, 3, 79, 0
5, 29580, Note_on_c, 3, 83, 85
5, 29640, Note_on_c, 3, 83, 0
5, 29640, Note_on_c, 3, 81, 85
5, 29670, Note_on_c, 3, 81, 0
5, 29700, Note_on_c, 3, 79, 85
5, 29730, Note_on_c, 3, 79, 0
5, 29760, Note_on_c, 3, 79, 85
5, 29775, Note_on_c, 3, 79, 0
5, 29775, Note_on_c, 3, 81, 85
5, 29790, Note_on_c, 3, 81, 0
5, 29790, Note_on_c, 3, 79, 85
5, 29805, Note_on_c, 3, 79, 0
5, 29805, Note_on_c, 3, 81, 85
5, 29820, Note_on_c, 3, 81, 0
5, 29820, Note_on_c, 3, 78, 85
5, 29870, Note_on_c, 3, 78, 0
5, 29880, Note_on_c, 3, 78, 85
5, 30060, Note_on_c, 3, 78, 0
5, 30060, Note_on_c, 3, 81, 85
5, 30120, Note_on_c, 3, 81, 0
5, 30120, Note_on_c, 3, 84, 85
5, 30150, Note_on_c, 3, 84, 0
5, 30180, Note_on_c, 3, 78, 85
5, 30210, Note_on_c, 3, 78, 0
5, 30240, Note_on_c, 3, 79, 85
5, 30270, Note_on_c, 3, 79, 0
5, 30300, Note_on_c, 3, 79, 85
5, 30330, Note_on_c, 3, 79, 0
5, 30360, Note_on_c, 3, 79, 85
5, 30390, Note_on_c, 3, 79, 0
5, 30390, Note_on_c, 3, 78, 85
5, 30420, Note_on_c, 3, 78, 0
5, 30420, Note_on_c, 3, 76, 85
5, 30450, Note_on_c, 3, 76, 0
5, 30450, Note_on_c, 3, 78, 85
5, 30480, Note_on_c, 3, 78, 0
5, 30480, Note_on_c, 3, 79, 85
5, 30510, Note_on_c, 3, 79, 0
5, 30540, Note_on_c, 3, 79, 85
5, 30570, Note_on_c, 3, 79, 0
5, 30600, Note_on_c, 3, 83, 85
5, 30630, Note_on_c, 3, 83, 0
5, 30630, Note_on_c, 3, 81, 85
5, 30660, Note_on_c, 3, 81, 0
5, 30660, Note_on_c, 3, 79, 85
5, 30690, Note_on_c, 3, 79, 0
5, 30690, Note_on_c, 3, 81, 85
5, 30720, Note_on_c, 3, 81, 0
5, 30720, Note_on_c, 3, 83, 85
5, 30750, Note_on_c, 3, 83, 0
5, 30780, Note_on_c, 3, 83, 85
5, 30810, Note_on_c, 3, 83, 0
5, 30840, Note_on_c, 3, 86, 85
5, 30870, Note_on_c, 3, 86, 0
5, 30870, Note_on_c, 3, 84, 85
5, 30900, Note_on_c, 3, 84, 0
5, 30900, Note_on_c, 3, 83, 85
5, 30930, Note_on_c, 3, 83, 0
5, 30930, Note_on_c, 3, 84, 85
5, 30960, Note_on_c, 3, 84, 0
5, 30960, Note_on_c, 3, 86, 85
5, 31080, Note_on_c, 3, 86, 0
5, 31200, Note_on_c, 3, 74, 52
5, 31440, Note_on_c, 3, 74, 0
5, 31440, Note_on_c, 3, 76, 40
5, 31680, Note_on_c, 3, 76, 0
5, 31680, Note_on_c, 3, 74, 44
5, 31710, Note_on_c, 3, 74, 0
5, 31710, Note_on_c, 3, 72, 46
5, 31790, Note_on_c, 3, 72, 0
5, 31800, Note_on_c, 3, 72, 46
5, 31920, Note_on_c, 3, 72, 0
5, 31920, Note_on_c, 3, 72, 47
5, 31950, Note_on_c, 3, 72, 0
5, 31950, Note_on_c, 3, 71, 47
5, 32030, Note_on_c, 3, 71, 0
5, 32040, Note_on_c, 3, 71, 47
5, 32160, Note_on_c, 3, 71, 0
5, 32160, Note_on_c, 3, 71, 47
5, 32190, Note_on_c, 3, 71, 0
5, 32190, Note_on_c, 3, 69, 47
5, 32270, Note_on_c, 3, 69, 0
5, 32280, Note_on_c, 3, 69, 47
5, 32400, Note_on_c, 3, 69, 0
5, 32400, Note_on_c, 3, 67, 47
5, 32460, Note_on_c, 3, 67, 0
5, 32460, Note_on_c, 3, 66, 47
5, 32490, Note_on_c, 3, 66, 0
5, 32520, Note_on_c, 3, 64, 47
5, 32550, Note_on_c, 3, 64, 0
5, 32580, Note_on_c, 3, 66, 47
5, 32610, Note_on_c, 3, 66, 0
5, 32640, Note_on_c, 3, 67, 47
5, 32700, Note_on_c, 3, 67, 0
5, 32760, Note_on_c, 3, 69, 47
5, 32820, Note_on_c, 3, 69, 0
5, 32880, Note_on_c, 3, 71, 47
5, 32940, Note_on_c, 3, 71, 0
5, 33120, Note_on_c, 3, 74, 54
5, 33360, Note_on_c, 3, 74, 0
5, 33360, Note_on_c, 3, 76, 59
5, 33600, Note_on_c, 3, 76, 0
5, 33600, Note_on_c, 3, 74, 47
5, 33660, Note_on_c, 3, 74, 0
5, 33660, Note_on_c, 3, 72, 47
5, 33690, Note_on_c, 3, 72, 0
5, 33720, Note_on_c, 3, 72, 47
5, 33750, Note_on_c, 3, 72, 0
5, 33780, Note_on_c, 3, 72, 47
5, 33810, Note_on_c, 3, 72, 0
5, 33840, Note_on_c, 3, 72, 47
5, 33900, Note_on_c, 3, 72, 0
5, 33900, Note_on_c, 3, 71, 47
5, 33930, Note_on_c, 3, 71, 0
5, 33960, Note_on_c, 3, 71, 47
5, 33990, Note_on_c, 3, 71, 0
5, 34020, Note_on_c, 3, 71, 47
5, 34050, Note_on_c, 3, 71, 0
5, 34080, Note_on_c, 3, 71, 47
5, 34140, Note_on_c, 3, 71, 0
5, 34140, Note_on_c, 3, 69, 47
5, 34170, Note_on_c, 3, 69, 0
5, 34200, Note_on_c, 3, 69, 47
5, 34245, Note_on_c, 3, 69, 0
5, 34260, Note_on_c, 3, 69, 47
5, 34305, Note_on_c, 3, 69, 0
5, 34320, Note_on_c, 3, 67, 47
5, 34380, Note_on_c, 3, 67, 0
5, 34380, Note_on_c, 3, 66, 47
5, 34440, Note_on_c, 3, 66, 0
5, 34440, Note_on_c, 3, 64, 47
5, 34500, Note_on_c, 3, 64, 0
5, 34500, Note_on_c, 3, 66, 47
5, 34560, Note_on_c, 3, 66, 0
5, 34560, Note_on_c, 3, 55, 95
5, 34560, Note_on_c, 3, 67, 95
5, 34860, Note_on_c, 3, 67, 0
5, 34860, Note_on_c, 3, 55, 0
5, 34860, Note_on_c, 3, 67, 61
5, 34875, Note_on_c, 3, 67, 0
5, 34875, Note_on_c, 3, 69, 61
5, 34890, Note_on_c, 3, 69, 0
5, 34890, Note_on_c, 3, 66, 61
5, 34905, Note_on_c, 3, 66, 0
5, 34905, Note_on_c, 3, 67, 61
5, 34920, Note_on_c, 3, 67, 0
5, 34920, Note_on_c, 3, 69, 61
5, 34980, Note_on_c, 3, 69, 0
5, 34980, Note_on_c, 3, 66, 61
5, 35040, Note_on_c, 3, 66, 0
5, 35040, Note_on_c, 3, 71, 85
5, 35340, Note_on_c, 3, 71, 0
5, 35340, Note_on_c, 3, 71, 61
5, 35355, Note_on_c, 3, 71, 0
5, 35355, Note_on_c, 3, 72, 61
5, 35370, Note_on_c, 3, 72, 0
5, 35370, Note_on_c, 3, 69, 61
5, 35385, Note_on_c, 3, 69, 0
5, 35385, Note_on_c, 3, 71, 61
5, 35400, Note_on_c, 3, 71, 0
5, 35400, Note_on_c, 3, 72, 61
5, 35460, Note_on_c, 3, 72, 0
5, 35460, Note_on_c, 3, 69, 61
5, 35520, Note_on_c, 3, 69, 0
5, 35520, Note_on_c, 3, 74, 46
5, 35540, Note_on_c, 3, 74, 0
5, 35550, Note_on_c, 3, 74, 46
5, 35570, Note_on_c, 3, 74, 0
5, 35580, Note_on_c, 3, 74, 47
5, 35600, Note_on_c, 3, 74, 0
5, 35610, Note_on_c, 3, 74, 47
5, 35630, Note_on_c, 3, 74, 0
5, 35640, Note_on_c, 3, 74, 49
5, 35660, Note_on_c, 3, 74, 0
5, 35670, Note_on_c, 3, 74, 50
5, 35690, Note_on_c, 3, 74, 0
5, 35700, Note_on_c, 3, 74, 50
5, 35720, Note_on_c, 3, 74, 0
5, 35730, Note_on_c, 3, 74, 52
5, 35750, Note_on_c, 3, 74, 0
5, 35760, Note_on_c, 3, 76, 53
5, 35780, Note_on_c, 3, 76, 0
5, 35790, Note_on_c, 3, 76, 53
5, 35810, Note_on_c, 3, 76, 0
5, 35820, Note_on_c, 3, 76, 55
5, 35840, Note_on_c, 3, 76, 0
5, 35850, Note_on_c, 3, 76, 56
5, 35870, Note_on_c, 3, 76, 0
5, 35880, Note_on_c, 3, 78, 56
5, 35900, Note_on_c, 3, 78, 0
5, 35910, Note_on_c, 3, 78, 58
5, 35930, Note_on_c, 3, 78, 0
5, 35940, Note_on_c, 3, 78, 58
5, 35960, Note_on_c, 3, 78, 0
5, 35970, Note_on_c, 3, 78, 59
5, 35990, Note_on_c, 3, 78, 0
5, 36000, Note_on_c, 3, 79, 61
5, 36020, Note_on_c, 3, 79, 0
5, 36030, Note_on_c, 3, 79, 61
5, 36050, Note_on_c, 3, 79, 0
5, 36060, Note_on_c, 3, 79, 62
5, 36080, Note_on_c, 3, 79, 0
5, 36090, Note_on_c, 3, 79, 64
5, 36110, Note_on_c, 3, 79, 0
5, 36120, Note_on_c, 3, 81, 64
5, 36140, Note_on_c, 3, 81, 0
5, 36150, Note_on_c, 3, 81, 65
5, 36170, Note_on_c, 3, 81, 0
5, 36180, Note_on_c, 3, 81, 67
5, 36200, Note_on_c, 3, 81, 0
5, 36210, Note_on_c, 3, 81, 67
5, 36230, Note_on_c, 3, 81, 0
5, 36240, Note_on_c, 3, 83, 68
5, 36260, Note_on_c, 3, 83, 0
5, 36270, Note_on_c, 3, 83, 68
5, 36290, Note_on_c, 3, 83, 0
5, 36300, Note_on_c, 3, 83, 70
5, 36320, Note_on_c, 3, 83, 0
5, 36330, Note_on_c, 3, 83, 71
5, 36350, Note_on_c, 3, 83, 0
5, 36360, Note_on_c, 3, 85, 71
5, 36380, Note_on_c, 3, 85, 0
5, 36390, Note_on_c, 3, 85, 73
5, 36410, Note_on_c, 3, 85, 0
5, 36420, Note_on_c, 3, 85, 74
5, 36440, Note_on_c, 3, 85, 0
5, 36450, Note_on_c, 3, 85, 74
5, 36470, Note_on_c, 3, 85, 0
5, 36480, Note_on_c, 3, 86, 92
5, 36660, Note_on_c, 3, 86, 0
5, 36660, Note_on_c, 3, 81, 85
5, 36720, Note_on_c, 3, 81, 0
5, 36720, Note_on_c, 3, 85, 85
5, 36810, Note_on_c, 3, 85, 0
5, 36810, Note_on_c, 3, 81, 85
5, 36840, Note_on_c, 3, 81, 0
5, 36840, Note_on_c, 3, 85, 85
5, 36930, Note_on_c, 3, 85, 0
5, 36930, Note_on_c, 3, 81, 85
5, 36960, Note_on_c, 3, 81, 0
5, 36960, Note_on_c, 3, 86, 98
5, 37140, Note_on_c, 3, 86, 0
5, 37140, Note_on_c, 3, 81, 85
5, 37200, Note_on_c, 3, 81, 0
5, 37200, Note_on_c, 3, 85, 85
5, 37290, Note_on_c, 3, 85, 0
5, 37290, Note_on_c, 3, 81, 85
5, 37320, Note_on_c, 3, 81, 0
5, 37320, Note_on_c, 3, 85, 85
5, 37410, Note_on_c, 3, 85, 0
5, 37410, Note_on_c, 3, 81, 85
5, 37440, Note_on_c, 3, 81, 0
5, 37440, Note_on_c, 3, 86, 85
5, 37470, Note_on_c, 3, 86, 0
5, 37500, Note_on_c, 3, 78, 98
5, 37500, Note_on_c, 3, 86, 98
5, 37590, Note_on_c, 3, 86, 0
5, 37590, Note_on_c, 3, 78, 0
5, 37620, Note_on_c, 3, 78, 85
5, 37620, Note_on_c, 3, 86, 85
5, 37710, Note_on_c, 3, 86, 0
5, 37710, Note_on_c, 3, 78, 0
5, 37740, Note_on_c, 3, 78, 85
5, 37740, Note_on_c, 3, 86, 85
5, 37830, Note_on_c, 3, 86, 0
5, 37830, Note_on_c, 3, 78, 0
5, 37860, Note_on_c, 3, 78, 85
5, 37860, Note_on_c, 3, 86, 85
5, 37920, Note_on_c, 3, 78, 0
5, 37920, Note_on_c, 3, 76, 85
5, 37950, Note_on_c, 3, 76, 0
5, 37950, Note_on_c, 3, 86, 0
5, 37980, Note_on_c, 3, 76, 85
5, 37980, Note_on_c, 3, 86, 85
5, 38070, Note_on_c, 3, 86, 0
5, 38070, Note_on_c, 3, 76, 0
5, 38100, Note_on_c, 3, 76, 85
5, 38100, Note_on_c, 3, 86, 85
5, 38190, Note_on_c, 3, 86, 0
5, 38190, Note_on_c, 3, 76, 0
5, 38220, Note_on_c, 3, 76, 85
5, 38220, Note_on_c, 3, 86, 85
5, 38310, Note_on_c, 3, 86, 0
5, 38310, Note_on_c, 3, 76, 0
5, 38340, Note_on_c, 3, 76, 85
5, 38340, Note_on_c, 3, 86, 85
5, 38400, Note_on_c, 3, 86, 0
5, 38400, Note_on_c, 3, 76, 0
5, 38400, Note_on_c, 3, 76, 97
5, 38400, Note_on_c, 3, 85, 97
5, 38445, Note_on_c, 3, 85, 0
5, 38445, Note_on_c, 3, 76, 0
5, 38460, Note_on_c, 3, 81, 85
5, 38505, Note_on_c, 3, 81, 0
5, 38520, Note_on_c, 3, 86, 85
5, 38565, Note_on_c, 3, 86, 0
5, 38580, Note_on_c, 3, 81, 85
5, 38625, Note_on_c, 3, 81, 0
5, 38640, Note_on_c, 3, 85, 85
5, 38685, Note_on_c, 3, 85, 0
5, 38700, Note_on_c, 3, 81, 85
5, 38745, Note_on_c, 3, 81, 0
5, 38760, Note_on_c, 3, 86, 85
5, 38805, Note_on_c, 3, 86, 0
5, 38820, Note_on_c, 3, 81, 85
5, 38865, Note_on_c, 3, 81, 0
5, 38880, Note_on_c, 3, 85, 97
5, 38925, Note_on_c, 3, 85, 0
5, 38940, Note_on_c, 3, 69, 85
5, 38985, Note_on_c, 3, 69, 0
5, 39000, Note_on_c, 3, 69, 85
5, 39045, Note_on_c, 3, 69, 0
5, 39060, Note_on_c, 3, 69, 85
5, 39105, Note_on_c, 3, 69, 0
5, 39120, Note_on_c, 3, 69, 85
5, 39240, Note_on_c, 3, 69, 0
5, 39360, Note_on_c, 3, 81, 55
5, 39540, Note_on_c, 3, 81, 0
5, 39540, Note_on_c, 3, 79, 55
5, 39560, Note_on_c, 3, 79, 0
5, 39560, Note_on_c, 3, 78, 55
5, 39580, Note_on_c, 3, 78, 0
5, 39580, Note_on_c, 3, 76, 55
5, 39600, Note_on_c, 3, 76, 0
5, 39600, Note_on_c, 3, 74, 55
5, 39660, Note_on_c, 3, 74, 0
5, 39720, Note_on_c, 3, 83, 55
5, 39780, Note_on_c, 3, 83, 0
5, 39840, Note_on_c, 3, 79, 55
5, 39900, Note_on_c, 3, 79, 0
5, 39960, Note_on_c, 3, 76, 55
5, 40020, Note_on_c, 3, 76, 0
5, 40080, Note_on_c, 3, 81, 55
5, 40140, Note_on_c, 3, 81, 0
5, 40320, Note_on_c, 3, 78, 55
5, 40500, Note_on_c, 3, 78, 0
5, 40500, Note_on_c, 3, 76, 55
5, 40520, Note_on_c, 3, 76, 0
5, 40520, Note_on_c, 3, 74, 55
5, 40540, Note_on_c, 3, 74, 0
5, 40540, Note_on_c, 3, 73, 55
5, 40560, Note_on_c, 3, 73, 0
5, 40560, Note_on_c, 3, 71, 55
5, 40620, Note_on_c, 3, 71, 0
5, 40680, Note_on_c, 3, 79, 55
5, 40740, Note_on_c, 3, 79, 0
5, 40800, Note_on_c, 3, 78, 55
5, 41040, Note_on_c, 3, 78, 0
5, 41040, Note_on_c, 3, 76, 43
5, 41160, Note_on_c, 3, 76, 0
5, 41340, Note_on_c, 3, 81, 55
5, 41370, Note_on_c, 3, 81, 0
5, 41400, Note_on_c, 3, 81, 55
5, 41430, Note_on_c, 3, 81, 0
5, 41460, Note_on_c, 3, 81, 55
5, 41490, Note_on_c, 3, 81, 0
5, 41520, Note_on_c, 3, 81, 55
5, 41550, Note_on_c, 3, 81, 0
5, 41580, Note_on_c, 3, 81, 55
5, 41610, Note_on_c, 3, 81, 0
5, 41640, Note_on_c, 3, 81, 55
5, 41670, Note_on_c, 3, 81, 0
5, 41700, Note_on_c, 3, 81, 55
5, 41730, Note_on_c, 3, 81, 0
5, 41760, Note_on_c, 3, 81, 55
5, 41790, Note_on_c, 3, 81, 0
5, 41820, Note_on_c, 3, 81, 55
5, 41850, Note_on_c, 3, 81, 0
5, 41880, Note_on_c, 3, 81, 55
5, 41910, Note_on_c, 3, 81, 0
5, 41940, Note_on_c, 3, 81, 55
5, 41970, Note_on_c, 3, 81, 0
5, 42000, Note_on_c, 3, 81, 55
5, 42030, Note_on_c, 3, 81, 0
5, 42060, Note_on_c, 3, 81, 55
5, 42090, Note_on_c, 3, 81, 0
5, 42120, Note_on_c, 3, 83, 55
5, 42150, Note_on_c, 3, 83, 0
5, 42180, Note_on_c, 3, 85, 55
5, 42210, Note_on_c, 3, 85, 0
5, 42240, Note_on_c, 3, 85, 55
5, 42300, Note_on_c, 3, 85, 0
5, 42300, Note_on_c, 3, 86, 55
5, 42360, Note_on_c, 3, 86, 0
5, 42420, Note_on_c, 3, 83, 55
5, 42450, Note_on_c, 3, 83, 0
5, 42480, Note_on_c, 3, 83, 55
5, 42540, Note_on_c, 3, 83, 0
5, 42540, Note_on_c, 3, 81, 55
5, 42600, Note_on_c, 3, 81, 0
5, 42660, Note_on_c, 3, 73, 55
5, 42705, Note_on_c, 3, 73, 0
5, 42720, Note_on_c, 3, 74, 55
5, 42840, Note_on_c, 3, 74, 0
5, 42900, Note_on_c, 3, 81, 55
5, 42930, Note_on_c, 3, 81, 0
5, 42960, Note_on_c, 3, 86, 55
5, 43020, Note_on_c, 3, 86, 0
5, 43020, Note_on_c, 3, 85, 55
5, 43080, Note_on_c, 3, 85, 0
5, 43080, Note_on_c, 3, 83, 55
5, 43140, Note_on_c, 3, 83, 0
5, 43140, Note_on_c, 3, 81, 55
5, 43200, Note_on_c, 3, 81, 0
5, 43200, Note_on_c, 3, 83, 55
5, 43215, Note_on_c, 3, 83, 0
5, 43215, Note_on_c, 3, 85, 55
5, 43230, Note_on_c, 3, 85, 0
5, 43230, Note_on_c, 3, 83, 55
5, 43245, Note_on_c, 3, 83, 0
5, 43245, Note_on_c, 3, 85, 55
5, 43260, Note_on_c, 3, 85, 0
5, 43260, Note_on_c, 3, 81, 55
5, 43320, Note_on_c, 3, 81, 0
5, 43380, Note_on_c, 3, 81, 55
5, 43410, Note_on_c, 3, 81, 0
5, 43440, Note_on_c, 3, 81, 55
5, 43470, Note_on_c, 3, 81, 0
5, 43500, Note_on_c, 3, 81, 55
5, 43530, Note_on_c, 3, 81, 0
5, 43560, Note_on_c, 3, 81, 55
5, 43590, Note_on_c, 3, 81, 0
5, 43620, Note_on_c, 3, 81, 55
5, 43650, Note_on_c, 3, 81, 0
5, 43680, Note_on_c, 3, 83, 55
5, 43695, Note_on_c, 3, 83, 0
5, 43695, Note_on_c, 3, 85, 55
5, 43710, Note_on_c, 3, 85, 0
5, 43710, Note_on_c, 3, 83, 55
5, 43725, Note_on_c, 3, 83, 0
5, 43725, Note_on_c, 3, 85, 55
5, 43740, Note_on_c, 3, 85, 0
5, 43740, Note_on_c, 3, 81, 55
5, 43800, Note_on_c, 3, 81, 0
5, 43860, Note_on_c, 3, 81, 55
5, 43905, Note_on_c, 3, 81, 0
5, 43920, Note_on_c, 3, 86, 55
5, 43980, Note_on_c, 3, 86, 0
5, 43980, Note_on_c, 3, 85, 55
5, 44040, Note_on_c, 3, 85, 0
5, 44040, Note_on_c, 3, 83, 55
5, 44100, Note_on_c, 3, 83, 0
5, 44100, Note_on_c, 3, 81, 55
5, 44160, Note_on_c, 3, 81, 0
5, 44160, Note_on_c, 3, 83, 55
5, 44175, Note_on_c, 3, 83, 0
5, 44175, Note_on_c, 3, 85, 55
5, 44190, Note_on_c, 3, 85, 0
5, 44190, Note_on_c, 3, 83, 55
5, 44205, Note_on_c, 3, 83, 0
5, 44205, Note_on_c, 3, 85, 55
5, 44220, Note_on_c, 3, 85, 0
5, 44220, Note_on_c, 3, 81, 55
5, 44280, Note_on_c, 3, 81, 0
5, 44340, Note_on_c, 3, 81, 55
5, 44370, Note_on_c, 3, 81, 0
5, 44400, Note_on_c, 3, 81, 55
5, 44430, Note_on_c, 3, 81, 0
5, 44460, Note_on_c, 3, 81, 55
5, 44490, Note_on_c, 3, 81, 0
5, 44520, Note_on_c, 3, 81, 55
5, 44550, Note_on_c, 3, 81, 0
5, 44580, Note_on_c, 3, 81, 55
5, 44610, Note_on_c, 3, 81, 0
5, 44640, Note_on_c, 3, 83, 55
5, 44655, Note_on_c, 3, 83, 0
5, 44655, Note_on_c, 3, 85, 55
5, 44670, Note_on_c, 3, 85, 0
5, 44670, Note_on_c, 3, 83, 55
5, 44685, Note_on_c, 3, 83, 0
5, 44685, Note_on_c, 3, 85, 55
5, 44700, Note_on_c, 3, 85, 0
5, 44700, Note_on_c, 3, 81, 55
5, 44760, Note_on_c, 3, 81, 0
5, 44880, Note_on_c, 3, 71, 94
5, 44880, Note_on_c, 3, 83, 94
5, 45050, Note_on_c, 3, 83, 0
5, 45050, Note_on_c, 3, 71, 0
5, 45060, Note_on_c, 3, 81, 83
5, 45080, Note_on_c, 3, 81, 0
5, 45080, Note_on_c, 3, 79, 83
5, 45100, Note_on_c, 3, 79, 0
5, 45100, Note_on_c, 3, 78, 83
5, 45120, Note_on_c, 3, 78, 0
5, 45120, Note_on_c, 3, 79, 83
5, 45240, Note_on_c, 3, 79, 0
5, 45360, Note_on_c, 3, 81, 85
5, 45360, Note_on_c, 3, 69, 85
5, 45530, Note_on_c, 3, 69, 0
5, 45530, Note_on_c, 3, 81, 0
5, 45540, Note_on_c, 3, 79, 85
5, 45560, Note_on_c, 3, 79, 0
5, 45560, Note_on_c, 3, 78, 85
5, 45580, Note_on_c, 3, 78, 0
5, 45580, Note_on_c, 3, 76, 85
5, 45600, Note_on_c, 3, 76, 0
5, 45600, Note_on_c, 3, 78, 85
5, 45720, Note_on_c, 3, 78, 0
5, 45840, Note_on_c, 3, 83, 79
5, 45900, Note_on_c, 3, 83, 0
5, 45900, Note_on_c, 3, 85, 80
5, 45930, Note_on_c, 3, 85, 0
5, 45930, Note_on_c, 3, 86, 82
5, 45960, Note_on_c, 3, 86, 0
5, 45960, Note_on_c, 3, 85, 82
5, 46005, Note_on_c, 3, 85, 0
5, 46020, Note_on_c, 3, 83, 82
5, 46050, Note_on_c, 3, 83, 0
5, 46080, Note_on_c, 3, 83, 83
5, 46140, Note_on_c, 3, 83, 0
5, 46140, Note_on_c, 3, 81, 86
5, 46185, Note_on_c, 3, 81, 0
5, 46200, Note_on_c, 3, 78, 86
5, 46230, Note_on_c, 3, 78, 0
5, 46260, Note_on_c, 3, 81, 88
5, 46290, Note_on_c, 3, 81, 0
5, 46320, Note_on_c, 3, 81, 88
5, 46380, Note_on_c, 3, 81, 0
5, 46380, Note_on_c, 3, 79, 83
5, 46425, Note_on_c, 3, 79, 0
5, 46440, Note_on_c, 3, 78, 79
5, 46470, Note_on_c, 3, 78, 0
5, 46500, Note_on_c, 3, 76, 76
5, 46530, Note_on_c, 3, 76, 0
5, 46560, Note_on_c, 3, 74, 85
5, 46680, Note_on_c, 3, 74, 0
5, 46740, Note_on_c, 3, 81, 53
5, 46770, Note_on_c, 3, 81, 0
5, 46800, Note_on_c, 3, 86, 53
5, 46860, Note_on_c, 3, 86, 0
5, 46860, Note_on_c, 3, 85, 53
5, 46920, Note_on_c, 3, 85, 0
5, 46920, Note_on_c, 3, 83, 53
5, 46980, Note_on_c, 3, 83, 0
5, 46980, Note_on_c, 3, 81, 53
5, 47040, Note_on_c, 3, 81, 0
5, 47040, Note_on_c, 3, 83, 55
5, 47055, Note_on_c, 3, 83, 0
5, 47055, Note_on_c, 3, 85, 55
5, 47070, Note_on_c, 3, 85, 0
5, 47070, Note_on_c, 3, 83, 55
5, 47085, Note_on_c, 3, 83, 0
5, 47085, Note_on_c, 3, 85, 55
5, 47100, Note_on_c, 3, 85, 0
5, 47100, Note_on_c, 3, 81, 55
5, 47160, Note_on_c, 3, 81, 0
5, 47220, Note_on_c, 3, 81, 55
5, 47250, Note_on_c, 3, 81, 0
5, 47280, Note_on_c, 3, 81, 55
5, 47310, Note_on_c, 3, 81, 0
5, 47340, Note_on_c, 3, 81, 55
5, 47370, Note_on_c, 3, 81, 0
5, 47400, Note_on_c, 3, 81, 55
5, 47430, Note_on_c, 3, 81, 0
5, 47460, Note_on_c, 3, 81, 55
5, 47490, Note_on_c, 3, 81, 0
5, 47520, Note_on_c, 3, 83, 55
5, 47535, Note_on_c, 3, 83, 0
5, 47535, Note_on_c, 3, 85, 55
5, 47550, Note_on_c, 3, 85, 0
5, 47550, Note_on_c, 3, 83, 55
5, 47565, Note_on_c, 3, 83, 0
5, 47565, Note_on_c, 3, 85, 55
5, 47580, Note_on_c, 3, 85, 0
5, 47580, Note_on_c, 3, 81, 55
5, 47640, Note_on_c, 3, 81, 0
5, 47700, Note_on_c, 3, 81, 55
5, 47745, Note_on_c, 3, 81, 0
5, 47760, Note_on_c, 3, 86, 55
5, 47820, Note_on_c, 3, 86, 0
5, 47820, Note_on_c, 3, 85, 55
5, 47880, Note_on_c, 3, 85, 0
5, 47880, Note_on_c, 3, 83, 55
5, 47940, Note_on_c, 3, 83, 0
5, 47940, Note_on_c, 3, 81, 55
5, 48000, Note_on_c, 3, 81, 0
5, 48000, Note_on_c, 3, 83, 55
5, 48015, Note_on_c, 3, 83, 0
5, 48015, Note_on_c, 3, 85, 55
5, 48030, Note_on_c, 3, 85, 0
5, 48030, Note_on_c, 3, 83, 55
5, 48045, Note_on_c, 3, 83, 0
5, 48045, Note_on_c, 3, 85, 55
5, 48060, Note_on_c, 3, 85, 0
5, 48060, Note_on_c, 3, 81, 55
5, 48120, Note_on_c, 3, 81, 0
5, 48180, Note_on_c, 3, 81, 55
5, 48210, Note_on_c, 3, 81, 0
5, 48240, Note_on_c, 3, 81, 55
5, 48270, Note_on_c, 3, 81, 0
5, 48300, Note_on_c, 3, 81, 55
5, 48330, Note_on_c, 3, 81, 0
5, 48360, Note_on_c, 3, 81, 55
5, 48390, Note_on_c, 3, 81, 0
5, 48420, Note_on_c, 3, 81, 55
5, 48450, Note_on_c, 3, 81, 0
5, 48480, Note_on_c, 3, 83, 59
5, 48495, Note_on_c, 3, 83, 0
5, 48495, Note_on_c, 3, 85, 59
5, 48510, Note_on_c, 3, 85, 0
5, 48510, Note_on_c, 3, 83, 59
5, 48525, Note_on_c, 3, 83, 0
5, 48525, Note_on_c, 3, 85, 59
5, 48540, Note_on_c, 3, 85, 0
5, 48540, Note_on_c, 3, 81, 59
5, 48600, Note_on_c, 3, 81, 0
5, 48720, Note_on_c, 3, 71, 85
5, 48720, Note_on_c, 3, 83, 85
5, 48890, Note_on_c, 3, 83, 0
5, 48890, Note_on_c, 3, 71, 0
5, 48900, Note_on_c, 3, 81, 85
5, 48920, Note_on_c, 3, 81, 0
5, 48920, Note_on_c, 3, 79, 85
5, 48940, Note_on_c, 3, 79, 0
5, 48940, Note_on_c, 3, 78, 85
5, 48960, Note_on_c, 3, 78, 0
5, 48960, Note_on_c, 3, 79, 85
5, 49080, Note_on_c, 3, 79, 0
5, 49200, Note_on_c, 3, 81, 85
5, 49200, Note_on_c, 3, 69, 85
5, 49370, Note_on_c, 3, 69, 0
5, 49370, Note_on_c, 3, 81, 0
5, 49380, Note_on_c, 3, 79, 85
5, 49400, Note_on_c, 3, 79, 0
5, 49400, Note_on_c, 3, 78, 85
5, 49420, Note_on_c, 3, 78, 0
5, 49420, Note_on_c, 3, 76, 85
5, 49440, Note_on_c, 3, 76, 0
5, 49440, Note_on_c, 3, 78, 85
5, 49560, Note_on_c, 3, 78, 0
5, 49680, Note_on_c, 3, 83, 85
5, 49740, Note_on_c, 3, 83, 0
5, 49740, Note_on_c, 3, 85, 85
5, 49770, Note_on_c, 3, 85, 0
5, 49770, Note_on_c, 3, 86, 85
5, 49800, Note_on_c, 3, 86, 0
5, 49800, Note_on_c, 3, 85, 85
5, 49845, Note_on_c, 3, 85, 0
5, 49860, Note_on_c, 3, 83, 85
5, 49890, Note_on_c, 3, 83, 0
5, 49920, Note_on_c, 3, 83, 95
5, 49980, Note_on_c, 3, 83, 0
5, 49980, Note_on_c, 3, 81, 85
5, 50025, Note_on_c, 3, 81, 0
5, 50040, Note_on_c, 3, 78, 85
5, 50070, Note_on_c, 3, 78, 0
5, 50100, Note_on_c, 3, 81, 85
5, 50130, Note_on_c, 3, 81, 0
5, 50160, Note_on_c, 3, 81, 85
5, 50220, Note_on_c, 3, 81, 0
5, 50220, Note_on_c, 3, 79, 85
5, 50265, Note_on_c, 3, 79, 0
5, 50280, Note_on_c, 3, 78, 85
5, 50310, Note_on_c, 3, 78, 0
5, 50340, Note_on_c, 3, 76, 85
5, 50370, Note_on_c, 3, 76, 0
5, 50400, Note_on_c, 3, 74, 85
5, 50445, Note_on_c, 3, 74, 0
5, 50460, Note_on_c, 3, 69, 85
5, 50505, Note_on_c, 3, 69, 0
5, 50520, Note_on_c, 3, 71, 85
5, 50565, Note_on_c, 3, 71, 0
5, 50580, Note_on_c, 3, 73, 85
5, 50625, Note_on_c, 3, 73, 0
5, 50640, Note_on_c, 3, 74, 85
5, 50670, Note_on_c, 3, 74, 0
5, 50700, Note_on_c, 3, 74, 85
5, 50730, Note_on_c, 3, 74, 0
5, 50760, Note_on_c, 3, 76, 85
5, 50775, Note_on_c, 3, 76, 0
5, 50775, Note_on_c, 3, 78, 85
5, 50790, Note_on_c, 3, 78, 0
5, 50790, Note_on_c, 3, 76, 85
5, 50805, Note_on_c, 3, 76, 0
5, 50805, Note_on_c, 3, 78, 85
5, 50820, Note_on_c, 3, 78, 0
5, 50820, Note_on_c, 3, 74, 85
5, 50850, Note_on_c, 3, 74, 0
5, 50850, Note_on_c, 3, 76, 85
5, 50880, Note_on_c, 3, 76, 0
5, 50880, Note_on_c, 3, 78, 85
5, 50940, Note_on_c, 3, 78, 0
5, 50940, Note_on_c, 3, 73, 85
5, 50985, Note_on_c, 3, 73, 0
5, 51000, Note_on_c, 3, 74, 85
5, 51045, Note_on_c, 3, 74, 0
5, 51060, Note_on_c, 3, 76, 85
5, 51105, Note_on_c, 3, 76, 0
5, 51120, Note_on_c, 3, 78, 85
5, 51165, Note_on_c, 3, 78, 0
5, 51180, Note_on_c, 3, 78, 85
5, 51225, Note_on_c, 3, 78, 0
5, 51240, Note_on_c, 3, 79, 85
5, 51255, Note_on_c, 3, 79, 0
5, 51255, Note_on_c, 3, 81, 86
5, 51270, Note_on_c, 3, 81, 0
5, 51270, Note_on_c, 3, 79, 86
5, 51285, Note_on_c, 3, 79, 0
5, 51285, Note_on_c, 3, 81, 86
5, 51300, Note_on_c, 3, 81, 0
5, 51300, Note_on_c, 3, 78, 86
5, 51330, Note_on_c, 3, 78, 0
5, 51330, Note_on_c, 3, 79, 88
5, 51360, Note_on_c, 3, 79, 0
5, 51360, Note_on_c, 3, 81, 88
5, 51405, Note_on_c, 3, 81, 0
5, 51420, Note_on_c, 3, 81, 88
5, 51465, Note_on_c, 3, 81, 0
5, 51480, Note_on_c, 3, 82, 89
5, 51495, Note_on_c, 3, 82, 0
5, 51495, Note_on_c, 3, 83, 91
5, 51510, Note_on_c, 3, 83, 0
5, 51510, Note_on_c, 3, 82, 91
5, 51525, Note_on_c, 3, 82, 0
5, 51525, Note_on_c, 3, 83, 91
5, 51540, Note_on_c, 3, 83, 0
5, 51540, Note_on_c, 3, 80, 92
5, 51570, Note_on_c, 3, 80, 0
5, 51570, Note_on_c, 3, 82, 94
5, 51600, Note_on_c, 3, 82, 0
5, 51600, Note_on_c, 3, 83, 98
5, 51720, Note_on_c, 3, 83, 0
5, 51840, Note_on_c, 3, 71, 40
5, 52020, Note_on_c, 3, 71, 0
5, 52020, Note_on_c, 3, 76, 47
5, 52065, Note_on_c, 3, 76, 0
5, 52080, Note_on_c, 3, 74, 49
5, 52140, Note_on_c, 3, 74, 0
5, 52140, Note_on_c, 3, 73, 49
5, 52200, Note_on_c, 3, 73, 0
5, 52200, Note_on_c, 3, 71, 43
5, 52260, Note_on_c, 3, 71, 0
5, 52260, Note_on_c, 3, 69, 41
5, 52320, Note_on_c, 3, 69, 0
5, 52320, Note_on_c, 3, 74, 40
5, 52380, Note_on_c, 3, 74, 0
5, 52440, Note_on_c, 3, 78, 59
5, 52500, Note_on_c, 3, 78, 0
5, 52560, Note_on_c, 3, 74, 57
5, 52620, Note_on_c, 3, 74, 0
5, 52800, Note_on_c, 3, 62, 100
5, 52800, Note_on_c, 3, 74, 100
5, 52920, Note_on_c, 3, 74, 0
5, 52920, Note_on_c, 3, 62, 0
5, 52980, Note_on_c, 3, 69, 91
5, 53025, Note_on_c, 3, 69, 0
5, 53040, Note_on_c, 3, 74, 91
5, 53160, Note_on_c, 3, 74, 0
5, 53220, Note_on_c, 3, 69, 91
5, 53265, Note_on_c, 3, 69, 0
5, 53280, Note_on_c, 3, 74, 91
5, 53325, Note_on_c, 3, 74, 0
5, 53340, Note_on_c, 3, 69, 91
5, 53385, Note_on_c, 3, 69, 0
5, 53400, Note_on_c, 3, 74, 91
5, 53445, Note_on_c, 3, 74, 0
5, 53460, Note_on_c, 3, 78, 91
5, 53505, Note_on_c, 3, 78, 0
5, 53520, Note_on_c, 3, 81, 91
5, 53640, Note_on_c, 3, 81, 0
5, 53760, Note_on_c, 3, 81, 91
5, 53880, Note_on_c, 3, 81, 0
5, 53940, Note_on_c, 3, 78, 91
5, 53985, Note_on_c, 3, 78, 0
5, 54000, Note_on_c, 3, 81, 91
5, 54120, Note_on_c, 3, 81, 0
5, 54180, Note_on_c, 3, 78, 91
5, 54225, Note_on_c, 3, 78, 0
5, 54240, Note_on_c, 3, 81, 91
5, 54285, Note_on_c, 3, 81, 0
5, 54300, Note_on_c, 3, 78, 91
5, 54345, Note_on_c, 3, 78, 0
5, 54360, Note_on_c, 3, 75, 91
5, 54405, Note_on_c, 3, 75, 0
5, 54420, Note_on_c, 3, 78, 91
5, 54465, Note_on_c, 3, 78, 0
5, 54480, Note_on_c, 3, 71, 91
5, 54600, Note_on_c, 3, 71, 0
5, 54900, Note_on_c, 3, 79, 55
5, 54945, Note_on_c, 3, 79, 0
5, 54960, Note_on_c, 3, 84, 55
5, 55020, Note_on_c, 3, 84, 0
5, 55020, Note_on_c, 3, 83, 55
5, 55080, Note_on_c, 3, 83, 0
5, 55080, Note_on_c, 3, 81, 55
5, 55140, Note_on_c, 3, 81, 0
5, 55140, Note_on_c, 3, 79, 55
5, 55200, Note_on_c, 3, 79, 0
5, 55200, Note_on_c, 3, 81, 55
5, 55215, Note_on_c, 3, 81, 0
5, 55215, Note_on_c, 3, 83, 55
5, 55230, Note_on_c, 3, 83, 0
5, 55230, Note_on_c, 3, 81, 55
5, 55245, Note_on_c, 3, 81, 0
5, 55245, Note_on_c, 3, 83, 55
5, 55260, Note_on_c, 3, 83, 0
5, 55260, Note_on_c, 3, 79, 55
5, 55320, Note_on_c, 3, 79, 0
5, 55380, Note_on_c, 3, 79, 55
5, 55410, Note_on_c, 3, 79, 0
5, 55440, Note_on_c, 3, 79, 55
5, 55470, Note_on_c, 3, 79, 0
5, 55500, Note_on_c, 3, 79, 55
5, 55530, Note_on_c, 3, 79, 0
5, 55560, Note_on_c, 3, 79, 55
5, 55590, Note_on_c, 3, 79, 0
5, 55620, Note_on_c, 3, 79, 55
5, 55650, Note_on_c, 3, 79, 0
5, 55680, Note_on_c, 3, 81, 55
5, 55695, Note_on_c, 3, 81, 0
5, 55695, Note_on_c, 3, 83, 55
5, 55710, Note_on_c, 3, 83, 0
5, 55710, Note_on_c, 3, 81, 55
5, 55725, Note_on_c, 3, 81, 0
5, 55725, Note_on_c, 3, 83, 55
5, 55740, Note_on_c, 3, 83, 0
5, 55740, Note_on_c, 3, 79, 55
5, 55800, Note_on_c, 3, 79, 0
5, 55860, Note_on_c, 3, 79, 55
5, 55905, Note_on_c, 3, 79, 0
5, 55920, Note_on_c, 3, 84, 55
5, 55980, Note_on_c, 3, 84, 0
5, 55980, Note_on_c, 3, 83, 55
5, 56040, Note_on_c, 3, 83, 0
5, 56040, Note_on_c, 3, 81, 55
5, 56100, Note_on_c, 3, 81, 0
5, 56100, Note_on_c, 3, 79, 55
5, 56160, Note_on_c, 3, 79, 0
5, 56160, Note_on_c, 3, 81, 55
5, 56175, Note_on_c, 3, 81, 0
5, 56175, Note_on_c, 3, 83, 55
5, 56190, Note_on_c, 3, 83, 0
5, 56190, Note_on_c, 3, 81, 55
5, 56205, Note_on_c, 3, 81, 0
5, 56205, Note_on_c, 3, 83, 55
5, 56220, Note_on_c, 3, 83, 0
5, 56220, Note_on_c, 3, 79, 55
5, 56280, Note_on_c, 3, 79, 0
5, 56340, Note_on_c, 3, 79, 55
5, 56370, Note_on_c, 3, 79, 0
5, 56400, Note_on_c, 3, 79, 55
5, 56430, Note_on_c, 3, 79, 0
5, 56460, Note_on_c, 3, 79, 55
5, 56490, Note_on_c, 3, 79, 0
5, 56520, Note_on_c, 3, 79, 55
5, 56550, Note_on_c, 3, 79, 0
5, 56580, Note_on_c, 3, 79, 55
5, 56610, Note_on_c, 3, 79, 0
5, 56640, Note_on_c, 3, 81, 55
5, 56655, Note_on_c, 3, 81, 0
5, 56655, Note_on_c, 3, 83, 55
5, 56670, Note_on_c, 3, 83, 0
5, 56670, Note_on_c, 3, 81, 55
5, 56685, Note_on_c, 3, 81, 0
5, 56685, Note_on_c, 3, 83, 55
5, 56700, Note_on_c, 3, 83, 0
5, 56700, Note_on_c, 3, 79, 55
5, 56760, Note_on_c, 3, 79, 0
5, 56820, Note_on_c, 3, 79, 55
5, 56865, Note_on_c, 3, 79, 0
5, 56880, Note_on_c, 3, 84, 55
5, 56940, Note_on_c, 3, 84, 0
5, 56940, Note_on_c, 3, 83, 55
5, 57000, Note_on_c, 3, 83, 0
5, 57000, Note_on_c, 3, 81, 55
5, 57060, Note_on_c, 3, 81, 0
5, 57060, Note_on_c, 3, 79, 55
5, 57120, Note_on_c, 3, 79, 0
5, 57120, Note_on_c, 3, 81, 55
5, 57135, Note_on_c, 3, 81, 0
5, 57135, Note_on_c, 3, 83, 55
5, 57150, Note_on_c, 3, 83, 0
5, 57150, Note_on_c, 3, 81, 55
5, 57165, Note_on_c, 3, 81, 0
5, 57165, Note_on_c, 3, 83, 55
5, 57180, Note_on_c, 3, 83, 0
5, 57180, Note_on_c, 3, 80, 55
5, 57240, Note_on_c, 3, 80, 0
5, 57300, Note_on_c, 3, 80, 55
5, 57330, Note_on_c, 3, 80, 0
5, 57360, Note_on_c, 3, 80, 55
5, 57390, Note_on_c, 3, 80, 0
5, 57420, Note_on_c, 3, 80, 55
5, 57450, Note_on_c, 3, 80, 0
5, 57480, Note_on_c, 3, 80, 55
5, 57510, Note_on_c, 3, 80, 0
5, 57540, Note_on_c, 3, 80, 55
5, 57570, Note_on_c, 3, 80, 0
5, 57600, Note_on_c, 3, 83, 55
5, 57615, Note_on_c, 3, 83, 0
5, 57615, Note_on_c, 3, 84, 55
5, 57630, Note_on_c, 3, 84, 0
5, 57630, Note_on_c, 3, 83, 55
5, 57645, Note_on_c, 3, 83, 0
5, 57645, Note_on_c, 3, 84, 55
5, 57660, Note_on_c, 3, 84, 0
5, 57660, Note_on_c, 3, 81, 55
5, 57720, Note_on_c, 3, 81, 0
5, 57780, Note_on_c, 3, 81, 55
5, 57825, Note_on_c, 3, 81, 0
5, 57840, Note_on_c, 3, 84, 55
5, 57900, Note_on_c, 3, 84, 0
5, 57900, Note_on_c, 3, 82, 55
5, 57960, Note_on_c, 3, 82, 0
5, 57960, Note_on_c, 3, 81, 55
5, 58020, Note_on_c, 3, 81, 0
5, 58020, Note_on_c, 3, 79, 55
5, 58080, Note_on_c, 3, 79, 0
5, 58080, Note_on_c, 3, 79, 55
5, 58095, Note_on_c, 3, 79, 0
5, 58095, Note_on_c, 3, 81, 55
5, 58110, Note_on_c, 3, 81, 0
5, 58110, Note_on_c, 3, 79, 55
5, 58125, Note_on_c, 3, 79, 0
5, 58125, Note_on_c, 3, 81, 55
5, 58140, Note_on_c, 3, 81, 0
5, 58140, Note_on_c, 3, 78, 55
5, 58200, Note_on_c, 3, 78, 0
5, 58260, Note_on_c, 3, 78, 55
5, 58290, Note_on_c, 3, 78, 0
5, 58320, Note_on_c, 3, 78, 55
5, 58350, Note_on_c, 3, 78, 0
5, 58380, Note_on_c, 3, 78, 55
5, 58410, Note_on_c, 3, 78, 0
5, 58440, Note_on_c, 3, 78, 55
5, 58470, Note_on_c, 3, 78, 0
5, 58500, Note_on_c, 3, 78, 55
5, 58530, Note_on_c, 3, 78, 0
5, 58560, Note_on_c, 3, 81, 55
5, 58575, Note_on_c, 3, 81, 0
5, 58575, Note_on_c, 3, 82, 55
5, 58590, Note_on_c, 3, 82, 0
5, 58590, Note_on_c, 3, 81, 55
5, 58605, Note_on_c, 3, 81, 0
5, 58605, Note_on_c, 3, 82, 55
5, 58620, Note_on_c, 3, 82, 0
5, 58620, Note_on_c, 3, 79, 55
5, 58680, Note_on_c, 3, 79, 0
5, 58740, Note_on_c, 3, 75, 55
5, 58785, Note_on_c, 3, 75, 0
5, 58800, Note_on_c, 3, 79, 55
5, 58860, Note_on_c, 3, 79, 0
5, 58860, Note_on_c, 3, 77, 55
5, 58920, Note_on_c, 3, 77, 0
5, 58920, Note_on_c, 3, 76, 55
5, 58980, Note_on_c, 3, 76, 0
5, 58980, Note_on_c, 3, 74, 55
5, 59040, Note_on_c, 3, 74, 0
5, 59040, Note_on_c, 3, 74, 55
5, 59055, Note_on_c, 3, 74, 0
5, 59055, Note_on_c, 3, 75, 55
5, 59070, Note_on_c, 3, 75, 0
5, 59070, Note_on_c, 3, 74, 55
5, 59085, Note_on_c, 3, 74, 0
5, 59085, Note_on_c, 3, 75, 55
5, 59100, Note_on_c, 3, 75, 0
5, 59100, Note_on_c, 3, 73, 55
5, 59160, Note_on_c, 3, 73, 0
5, 59220, Note_on_c, 3, 73, 55
5, 59250, Note_on_c, 3, 73, 0
5, 59280, Note_on_c, 3, 73, 55
5, 59310, Note_on_c, 3, 73, 0
5, 59340, Note_on_c, 3, 73, 55
5, 59370, Note_on_c, 3, 73, 0
5, 59400, Note_on_c, 3, 73, 55
5, 59430, Note_on_c, 3, 73, 0
5, 59460, Note_on_c, 3, 73, 55
5, 59490, Note_on_c, 3, 73, 0
5, 59520, Note_on_c, 3, 76, 53
5, 59535, Note_on_c, 3, 76, 0
5, 59535, Note_on_c, 3, 78, 53
5, 59550, Note_on_c, 3, 78, 0
5, 59550, Note_on_c, 3, 76, 53
5, 59565, Note_on_c, 3, 76, 0
5, 59565, Note_on_c, 3, 78, 53
5, 59580, Note_on_c, 3, 78, 0
5, 59580, Note_on_c, 3, 74, 53
5, 59640, Note_on_c, 3, 74, 0
5, 59700, Note_on_c, 3, 62, 91
5, 59760, Note_on_c, 3, 62, 0
5, 59760, Note_on_c, 3, 64, 91
5, 59820, Note_on_c, 3, 64, 0
5, 59820, Note_on_c, 3, 66, 91
5, 59880, Note_on_c, 3, 66, 0
5, 59880, Note_on_c, 3, 67, 91
5, 59940, Note_on_c, 3, 67, 0
5, 59940, Note_on_c, 3, 69, 91
5, 60000, Note_on_c, 3, 69, 0
5, 60000, Note_on_c, 3, 72, 91
5, 60060, Note_on_c, 3, 72, 0
5, 60060, Note_on_c, 3, 70, 91
5, 60120, Note_on_c, 3, 70, 0
5, 60180, Note_on_c, 3, 66, 91
5, 60240, Note_on_c, 3, 66, 0
5, 60240, Note_on_c, 3, 67, 91
5, 60300, Note_on_c, 3, 67, 0
5, 60300, Note_on_c, 3, 69, 91
5, 60360, Note_on_c, 3, 69, 0
5, 60360, Note_on_c, 3, 70, 91
5, 60420, Note_on_c, 3, 70, 0
5, 60420, Note_on_c, 3, 73, 91
5, 60480, Note_on_c, 3, 73, 0
5, 60480, Note_on_c, 3, 76, 91
5, 60540, Note_on_c, 3, 76, 0
5, 60540, Note_on_c, 3, 74, 91
5, 60600, Note_on_c, 3, 74, 0
5, 60660, Note_on_c, 3, 74, 53
5, 60720, Note_on_c, 3, 74, 0
5, 60720, Note_on_c, 3, 76, 53
5, 60780, Note_on_c, 3, 76, 0
5, 60780, Note_on_c, 3, 78, 53
5, 60840, Note_on_c, 3, 78, 0
5, 60840, Note_on_c, 3, 79, 53
5, 60900, Note_on_c, 3, 79, 0
5, 60900, Note_on_c, 3, 81, 52
5, 60960, Note_on_c, 3, 81, 0
5, 60960, Note_on_c, 3, 82, 50
5, 61080, Note_on_c, 3, 82, 0
5, 61080, Note_on_c, 3, 83, 46
5, 61200, Note_on_c, 3, 83, 0
5, 61200, Note_on_c, 3, 84, 43
5, 61320, Note_on_c, 3, 84, 0
5, 61320, Note_on_c, 3, 85, 40
5, 61440, Note_on_c, 3, 85, 0
5, 61440, Note_on_c, 3, 86, 59
5, 62145, Note_on_c, 3, 86, 0
5, 62160, Note_on_c, 3, 78, 52
5, 62175, Note_on_c, 3, 78, 0
5, 62175, Note_on_c, 3, 79, 53
5, 62190, Note_on_c, 3, 79, 0
5, 62190, Note_on_c, 3, 78, 55
5, 62205, Note_on_c, 3, 78, 0
5, 62205, Note_on_c, 3, 79, 58
5, 62220, Note_on_c, 3, 79, 0
5, 62220, Note_on_c, 3, 78, 59
5, 62235, Note_on_c, 3, 78, 0
5, 62235, Note_on_c, 3, 79, 61
5, 62250, Note_on_c, 3, 79, 0
5, 62250, Note_on_c, 3, 78, 62
5, 62265, Note_on_c, 3, 78, 0
5, 62265, Note_on_c, 3, 79, 65
5, 62280, Note_on_c, 3, 79, 0
5, 62280, Note_on_c, 3, 78, 67
5, 62295, Note_on_c, 3, 78, 0
5, 62295, Note_on_c, 3, 79, 68
5, 62310, Note_on_c, 3, 79, 0
5, 62310, Note_on_c, 3, 78, 70
5, 62325, Note_on_c, 3, 78, 0
5, 62325, Note_on_c, 3, 79, 71
5, 62340, Note_on_c, 3, 79, 0
5, 62340, Note_on_c, 3, 76, 74
5, 62370, Note_on_c, 3, 76, 0
5, 62370, Note_on_c, 3, 78, 77
5, 62400, Note_on_c, 3, 78, 0
5, 62400, Note_on_c, 3, 79, 93
5, 62520, Note_on_c, 3, 79, 0
5, 62580, Note_on_c, 3, 74, 92
5, 62610, Note_on_c, 3, 74, 0
5, 62640, Note_on_c, 3, 79, 92
5, 62760, Note_on_c, 3, 79, 0
5, 62820, Note_on_c, 3, 74, 91
5, 62850, Note_on_c, 3, 74, 0
5, 62880, Note_on_c, 3, 79, 90
5, 62910, Note_on_c, 3, 79, 0
5, 62940, Note_on_c, 3, 74, 90
5, 62970, Note_on_c, 3, 74, 0
5, 63000, Note_on_c, 3, 79, 90
5, 63030, Note_on_c, 3, 79, 0
5, 63060, Note_on_c, 3, 83, 90
5, 63090, Note_on_c, 3, 83, 0
5, 63120, Note_on_c, 3, 86, 89
5, 63240, Note_on_c, 3, 86, 0
5, 63360, Note_on_c, 3, 84, 104
5, 63480, Note_on_c, 3, 84, 0
5, 63540, Note_on_c, 3, 81, 87
5, 63570, Note_on_c, 3, 81, 0
5, 63600, Note_on_c, 3, 84, 86
5, 63720, Note_on_c, 3, 84, 0
5, 63780, Note_on_c, 3, 81, 85
5, 63810, Note_on_c, 3, 81, 0
5, 63840, Note_on_c, 3, 84, 92
5, 63870, Note_on_c, 3, 84, 0
5, 63900, Note_on_c, 3, 81, 85
5, 63930, Note_on_c, 3, 81, 0
5, 63960, Note_on_c, 3, 78, 92
5, 63990, Note_on_c, 3, 78, 0
5, 64020, Note_on_c, 3, 81, 85
5, 64050, Note_on_c, 3, 81, 0
5, 64080, Note_on_c, 3, 74, 94
5, 64200, Note_on_c, 3, 74, 0
5, 64320, Note_on_c, 3, 62, 92
5, 64320, Note_on_c, 3, 79, 92
5, 64320, Note_on_c, 3, 71, 92
5, 64380, Note_on_c, 3, 71, 0
5, 64380, Note_on_c, 3, 79, 0
5, 64380, Note_on_c, 3, 62, 0
5, 64440, Note_on_c, 3, 79, 85
5, 64620, Note_on_c, 3, 79, 0
5, 64620, Note_on_c, 3, 83, 74
5, 64680, Note_on_c, 3, 83, 0
5, 64680, Note_on_c, 3, 81, 74
5, 64710, Note_on_c, 3, 81, 0
5, 64740, Note_on_c, 3, 79, 80
5, 64770, Note_on_c, 3, 79, 0
5, 64800, Note_on_c, 3, 79, 86
5, 64815, Note_on_c, 3, 79, 0
5, 64815, Note_on_c, 3, 81, 86
5, 64830, Note_on_c, 3, 81, 0
5, 64830, Note_on_c, 3, 79, 86
5, 64845, Note_on_c, 3, 79, 0
5, 64845, Note_on_c, 3, 81, 86
5, 64860, Note_on_c, 3, 81, 0
5, 64860, Note_on_c, 3, 78, 83
5, 64910, Note_on_c, 3, 78, 0
5, 64920, Note_on_c, 3, 78, 77
5, 65100, Note_on_c, 3, 78, 0
5, 65100, Note_on_c, 3, 81, 85
5, 65160, Note_on_c, 3, 81, 0
5, 65160, Note_on_c, 3, 84, 85
5, 65190, Note_on_c, 3, 84, 0
5, 65220, Note_on_c, 3, 78, 85
5, 65250, Note_on_c, 3, 78, 0
5, 65280, Note_on_c, 3, 81, 85
5, 65340, Note_on_c, 3, 81, 0
5, 65340, Note_on_c, 3, 79, 85
5, 65370, Note_on_c, 3, 79, 0
5, 65400, Note_on_c, 3, 79, 85
5, 65580, Note_on_c, 3, 79, 0
5, 65580, Note_on_c, 3, 83, 85
5, 65640, Note_on_c, 3, 83, 0
5, 65640, Note_on_c, 3, 81, 85
5, 65670, Note_on_c, 3, 81, 0
5, 65700, Note_on_c, 3, 79, 85
5, 65730, Note_on_c, 3, 79, 0
5, 65760, Note_on_c, 3, 79, 85
5, 65775, Note_on_c, 3, 79, 0
5, 65775, Note_on_c, 3, 81, 85
5, 65790, Note_on_c, 3, 81, 0
5, 65790, Note_on_c, 3, 79, 85
5, 65805, Note_on_c, 3, 79, 0
5, 65805, Note_on_c, 3, 81, 85
5, 65820, Note_on_c, 3, 81, 0
5, 65820, Note_on_c, 3, 78, 85
5, 65870, Note_on_c, 3, 78, 0
5, 65880, Note_on_c, 3, 78, 85
5, 66060, Note_on_c, 3, 78, 0
5, 66060, Note_on_c, 3, 81, 85
5, 66120, Note_on_c, 3, 81, 0
5, 66120, Note_on_c, 3, 84, 85
5, 66150, Note_on_c, 3, 84, 0
5, 66180, Note_on_c, 3, 78, 85
5, 66210, Note_on_c, 3, 78, 0
5, 66240, Note_on_c, 3, 79, 85
5, 66270, Note_on_c, 3, 79, 0
5, 66300, Note_on_c, 3, 79, 85
5, 66330, Note_on_c, 3, 79, 0
5, 66360, Note_on_c, 3, 79, 85
5, 66390, Note_on_c, 3, 79, 0
5, 66390, Note_on_c, 3, 78, 85
5, 66420, Note_on_c, 3, 78, 0
5, 66420, Note_on_c, 3, 76, 85
5, 66450, Note_on_c, 3, 76, 0
5, 66450, Note_on_c, 3, 78, 85
5, 66480, Note_on_c, 3, 78, 0
5, 66480, Note_on_c, 3, 79, 85
5, 66510, Note_on_c, 3, 79, 0
5, 66540, Note_on_c, 3, 79, 85
5, 66570, Note_on_c, 3, 79, 0
5, 66600, Note_on_c, 3, 83, 85
5, 66630, Note_on_c, 3, 83, 0
5, 66630, Note_on_c, 3, 81, 85
5, 66660, Note_on_c, 3, 81, 0
5, 66660, Note_on_c, 3, 79, 85
5, 66690, Note_on_c, 3, 79, 0
5, 66690, Note_on_c, 3, 81, 83
5, 66720, Note_on_c, 3, 81, 0
5, 66720, Note_on_c, 3, 83, 83
5, 66750, Note_on_c, 3, 83, 0
5, 66780, Note_on_c, 3, 83, 83
5, 66810, Note_on_c, 3, 83, 0
5, 66840, Note_on_c, 3, 86, 83
5, 66870, Note_on_c, 3, 86, 0
5, 66870, Note_on_c, 3, 84, 80
5, 66900, Note_on_c, 3, 84, 0
5, 66900, Note_on_c, 3, 83, 79
5, 66930, Note_on_c, 3, 83, 0
5, 66930, Note_on_c, 3, 84, 76
5, 66960, Note_on_c, 3, 84, 0
5, 66960, Note_on_c, 3, 86, 71
5, 67080, Note_on_c, 3, 86, 0
5, 67200, Note_on_c, 3, 74, 56
5, 67440, Note_on_c, 3, 74, 0
5, 67440, Note_on_c, 3, 76, 55
5, 67680, Note_on_c, 3, 76, 0
5, 67680, Note_on_c, 3, 74, 57
5, 67710, Note_on_c, 3, 74, 0
5, 67710, Note_on_c, 3, 72, 59
5, 67790, Note_on_c, 3, 72, 0
5, 67800, Note_on_c, 3, 72, 58
5, 67920, Note_on_c, 3, 72, 0
5, 67920, Note_on_c, 3, 72, 57
5, 67950, Note_on_c, 3, 72, 0
5, 67950, Note_on_c, 3, 71, 55
5, 68030, Note_on_c, 3, 71, 0
5, 68040, Note_on_c, 3, 71, 53
5, 68160, Note_on_c, 3, 71, 0
5, 68160, Note_on_c, 3, 71, 57
5, 68190, Note_on_c, 3, 71, 0
5, 68190, Note_on_c, 3, 69, 56
5, 68270, Note_on_c, 3, 69, 0
5, 68280, Note_on_c, 3, 69, 55
5, 68400, Note_on_c, 3, 69, 0
5, 68400, Note_on_c, 3, 67, 54
5, 68460, Note_on_c, 3, 67, 0
5, 68460, Note_on_c, 3, 66, 55
5, 68490, Note_on_c, 3, 66, 0
5, 68520, Note_on_c, 3, 64, 55
5, 68550, Note_on_c, 3, 64, 0
5, 68580, Note_on_c, 3, 66, 55
5, 68610, Note_on_c, 3, 66, 0
5, 68640, Note_on_c, 3, 67, 56
5, 68700, Note_on_c, 3, 67, 0
5, 68760, Note_on_c, 3, 69, 57
5, 68820, Note_on_c, 3, 69, 0
5, 68880, Note_on_c, 3, 71, 57
5, 68940, Note_on_c, 3, 71, 0
5, 69120, Note_on_c, 3, 74, 56
5, 69360, Note_on_c, 3, 74, 0
5, 69360, Note_on_c, 3, 76, 59
5, 69600, Note_on_c, 3, 76, 0
5, 69600, Note_on_c, 3, 74, 46
5, 69660, Note_on_c, 3, 74, 0
5, 69660, Note_on_c, 3, 72, 51
5, 69690, Note_on_c, 3, 72, 0
5, 69720, Note_on_c, 3, 72, 51
5, 69750, Note_on_c, 3, 72, 0
5, 69780, Note_on_c, 3, 72, 51
5, 69810, Note_on_c, 3, 72, 0
5, 69840, Note_on_c, 3, 72, 51
5, 69900, Note_on_c, 3, 72, 0
5, 69900, Note_on_c, 3, 71, 50
5, 69930, Note_on_c, 3, 71, 0
5, 69960, Note_on_c, 3, 71, 49
5, 69990, Note_on_c, 3, 71, 0
5, 70020, Note_on_c, 3, 71, 49
5, 70050, Note_on_c, 3, 71, 0
5, 70080, Note_on_c, 3, 71, 49
5, 70140, Note_on_c, 3, 71, 0
5, 70140, Note_on_c, 3, 69, 50
5, 70170, Note_on_c, 3, 69, 0
5, 70200, Note_on_c, 3, 69, 52
5, 70245, Note_on_c, 3, 69, 0
5, 70260, Note_on_c, 3, 69, 52
5, 70305, Note_on_c, 3, 69, 0
5, 70320, Note_on_c, 3, 67, 52
5, 70380, Note_on_c, 3, 67, 0
5, 70380, Note_on_c, 3, 66, 54
5, 70440, Note_on_c, 3, 66, 0
5, 70440, Note_on_c, 3, 64, 55
5, 70500, Note_on_c, 3, 64, 0
5, 70500, Note_on_c, 3, 66, 55
5, 70560, Note_on_c, 3, 66, 0
5, 70560, Note_on_c, 3, 55, 85
5, 70560, Note_on_c, 3, 67, 85
5, 70860, Note_on_c, 3, 67, 0
5, 70860, Note_on_c, 3, 55, 0
5, 70860, Note_on_c, 3, 67, 61
5, 70875, Note_on_c, 3, 67, 0
5, 70875, Note_on_c, 3, 69, 61
5, 70890, Note_on_c, 3, 69, 0
5, 70890, Note_on_c, 3, 66, 61
5, 70905, Note_on_c, 3, 66, 0
5, 70905, Note_on_c, 3, 67, 61
5, 70920, Note_on_c, 3, 67, 0
5, 70920, Note_on_c, 3, 69, 61
5, 70980, Note_on_c, 3, 69, 0
5, 70980, Note_on_c, 3, 66, 61
5, 71040, Note_on_c, 3, 66, 0
5, 71040, Note_on_c, 3, 71, 91
5, 71340, Note_on_c, 3, 71, 0
5, 71340, Note_on_c, 3, 71, 61
5, 71355, Note_on_c, 3, 71, 0
5, 71355, Note_on_c, 3, 72, 61
5, 71370, Note_on_c, 3, 72, 0
5, 71370, Note_on_c, 3, 69, 61
5, 71385, Note_on_c, 3, 69, 0
5, 71385, Note_on_c, 3, 71, 61
5, 71400, Note_on_c, 3, 71, 0
5, 71400, Note_on_c, 3, 72, 61
5, 71460, Note_on_c, 3, 72, 0
5, 71460, Note_on_c, 3, 69, 61
5, 71520, Note_on_c, 3, 69, 0
5, 71520, Note_on_c, 3, 74, 51
5, 71540, Note_on_c, 3, 74, 0
5, 71550, Note_on_c, 3, 74, 56
5, 71570, Note_on_c, 3, 74, 0
5, 71580, Note_on_c, 3, 74, 59
5, 71600, Note_on_c, 3, 74, 0
5, 71610, Note_on_c, 3, 74, 56
5, 71630, Note_on_c, 3, 74, 0
5, 71640, Note_on_c, 3, 74, 56
5, 71660, Note_on_c, 3, 74, 0
5, 71670, Note_on_c, 3, 74, 56
5, 71690, Note_on_c, 3, 74, 0
5, 71700, Note_on_c, 3, 74, 56
5, 71720, Note_on_c, 3, 74, 0
5, 71730, Note_on_c, 3, 74, 56
5, 71750, Note_on_c, 3, 74, 0
5, 71760, Note_on_c, 3, 76, 56
5, 71780, Note_on_c, 3, 76, 0
5, 71790, Note_on_c, 3, 76, 56
5, 71810, Note_on_c, 3, 76, 0
5, 71820, Note_on_c, 3, 76, 56
5, 71840, Note_on_c, 3, 76, 0
5, 71850, Note_on_c, 3, 76, 56
5, 71870, Note_on_c, 3, 76, 0
5, 71880, Note_on_c, 3, 78, 56
5, 71900, Note_on_c, 3, 78, 0
5, 71910, Note_on_c, 3, 78, 56
5, 71930, Note_on_c, 3, 78, 0
5, 71940, Note_on_c, 3, 78, 57
5, 71960, Note_on_c, 3, 78, 0
5, 71970, Note_on_c, 3, 78, 59
5, 71990, Note_on_c, 3, 78, 0
5, 72000, Note_on_c, 3, 79, 62
5, 72020, Note_on_c, 3, 79, 0
5, 72030, Note_on_c, 3, 79, 65
5, 72050, Note_on_c, 3, 79, 0
5, 72060, Note_on_c, 3, 79, 66
5, 72080, Note_on_c, 3, 79, 0
5, 72090, Note_on_c, 3, 79, 66
5, 72110, Note_on_c, 3, 79, 0
5, 72120, Note_on_c, 3, 81, 66
5, 72140, Note_on_c, 3, 81, 0
5, 72150, Note_on_c, 3, 81, 66
5, 72170, Note_on_c, 3, 81, 0
5, 72180, Note_on_c, 3, 81, 66
5, 72200, Note_on_c, 3, 81, 0
5, 72210, Note_on_c, 3, 81, 68
5, 72230, Note_on_c, 3, 81, 0
5, 72240, Note_on_c, 3, 83, 68
5, 72260, Note_on_c, 3, 83, 0
5, 72270, Note_on_c, 3, 83, 70
5, 72290, Note_on_c, 3, 83, 0
5, 72300, Note_on_c, 3, 83, 70
5, 72320, Note_on_c, 3, 83, 0
5, 72330, Note_on_c, 3, 83, 71
5, 72350, Note_on_c, 3, 83, 0
5, 72360, Note_on_c, 3, 85, 71
5, 72380, Note_on_c, 3, 85, 0
5, 72390, Note_on_c, 3, 85, 73
5, 72410, Note_on_c, 3, 85, 0
5, 72420, Note_on_c, 3, 85, 74
5, 72440, Note_on_c, 3, 85, 0
5, 72450, Note_on_c, 3, 85, 74
5, 72470, Note_on_c, 3, 85, 0
5, 72480, Note_on_c, 3, 86, 85
5, 72660, Note_on_c, 3, 86, 0
5, 72660, Note_on_c, 3, 81, 85
5, 72720, Note_on_c, 3, 81, 0
5, 72720, Note_on_c, 3, 85, 85
5, 72810, Note_on_c, 3, 85, 0
5, 72810, Note_on_c, 3, 81, 85
5, 72840, Note_on_c, 3, 81, 0
5, 72840, Note_on_c, 3, 85, 85
5, 72930, Note_on_c, 3, 85, 0
5, 72930, Note_on_c, 3, 81, 85
5, 72960, Note_on_c, 3, 81, 0
5, 72960, Note_on_c, 3, 86, 85
5, 73140, Note_on_c, 3, 86, 0
5, 73140, Note_on_c, 3, 81, 85
5, 73200, Note_on_c, 3, 81, 0
5, 73200, Note_on_c, 3, 85, 85
5, 73290, Note_on_c, 3, 85, 0
5, 73290, Note_on_c, 3, 81, 85
5, 73320, Note_on_c, 3, 81, 0
5, 73320, Note_on_c, 3, 85, 85
5, 73410, Note_on_c, 3, 85, 0
5, 73410, Note_on_c, 3, 81, 85
5, 73440, Note_on_c, 3, 81, 0
5, 73440, Note_on_c, 3, 86, 100
5, 73470, Note_on_c, 3, 86, 0
5, 73500, Note_on_c, 3, 81, 100
5, 73530, Note_on_c, 3, 81, 0
5, 73560, Note_on_c, 3, 85, 100
5, 73590, Note_on_c, 3, 85, 0
5, 73620, Note_on_c, 3, 81, 100
5, 73650, Note_on_c, 3, 81, 0
5, 73680, Note_on_c, 3, 86, 100
5, 73710, Note_on_c, 3, 86, 0
5, 73740, Note_on_c, 3, 81, 100
5, 73770, Note_on_c, 3, 81, 0
5, 73800, Note_on_c, 3, 85, 100
5, 73830, Note_on_c, 3, 85, 0
5, 73860, Note_on_c, 3, 81, 100
5, 73890, Note_on_c, 3, 81, 0
5, 73920, Note_on_c, 3, 86, 85
5, 73965, Note_on_c, 3, 86, 0
5, 73980, Note_on_c, 3, 62, 85
5, 74025, Note_on_c, 3, 62, 0
5, 74040, Note_on_c, 3, 62, 85
5, 74085, Note_on_c, 3, 62, 0
5, 74100, Note_on_c, 3, 62, 85
5, 74145, Note_on_c, 3, 62, 0
5, 74160, Note_on_c, 3, 62, 85
5, 74280, Note_on_c, 3, 62, 0
5, 74400, Note_on_c, 3, 74, 46
5, 74580, Note_on_c, 3, 74, 0
5, 74580, Note_on_c, 3, 72, 47
5, 74600, Note_on_c, 3, 72, 0
5, 74600, Note_on_c, 3, 71, 47
5, 74620, Note_on_c, 3, 71, 0
5, 74620, Note_on_c, 3, 69, 47
5, 74640, Note_on_c, 3, 69, 0
5, 74640, Note_on_c, 3, 67, 47
5, 74700, Note_on_c, 3, 67, 0
5, 74760, Note_on_c, 3, 76, 47
5, 74820, Note_on_c, 3, 76, 0
5, 74880, Note_on_c, 3, 72, 46
5, 74940, Note_on_c, 3, 72, 0
5, 75000, Note_on_c, 3, 69, 43
5, 75060, Note_on_c, 3, 69, 0
5, 75120, Note_on_c, 3, 74, 59
5, 75180, Note_on_c, 3, 74, 0
5, 75360, Note_on_c, 3, 83, 55
5, 75540, Note_on_c, 3, 83, 0
5, 75540, Note_on_c, 3, 81, 55
5, 75560, Note_on_c, 3, 81, 0
5, 75560, Note_on_c, 3, 79, 55
5, 75580, Note_on_c, 3, 79, 0
5, 75580, Note_on_c, 3, 78, 55
5, 75600, Note_on_c, 3, 78, 0
5, 75600, Note_on_c, 3, 76, 55
5, 75660, Note_on_c, 3, 76, 0
5, 75720, Note_on_c, 3, 84, 55
5, 75780, Note_on_c, 3, 84, 0
5, 75840, Note_on_c, 3, 83, 55
5, 76080, Note_on_c, 3, 83, 0
5, 76080, Note_on_c, 3, 81, 47
5, 76200, Note_on_c, 3, 81, 0
5, 76380, Note_on_c, 3, 86, 55
5, 76410, Note_on_c, 3, 86, 0
5, 76440, Note_on_c, 3, 86, 55
5, 76470, Note_on_c, 3, 86, 0
5, 76500, Note_on_c, 3, 86, 55
5, 76530, Note_on_c, 3, 86, 0
5, 76560, Note_on_c, 3, 86, 55
5, 76590, Note_on_c, 3, 86, 0
5, 76620, Note_on_c, 3, 86, 55
5, 76650, Note_on_c, 3, 86, 0
5, 76680, Note_on_c, 3, 86, 55
5, 76710, Note_on_c, 3, 86, 0
5, 76740, Note_on_c, 3, 86, 55
5, 76770, Note_on_c, 3, 86, 0
5, 76800, Note_on_c, 3, 86, 55
5, 76830, Note_on_c, 3, 86, 0
5, 76860, Note_on_c, 3, 86, 55
5, 76890, Note_on_c, 3, 86, 0
5, 76920, Note_on_c, 3, 86, 55
5, 76950, Note_on_c, 3, 86, 0
5, 76980, Note_on_c, 3, 86, 55
5, 77010, Note_on_c, 3, 86, 0
5, 77040, Note_on_c, 3, 86, 55
5, 77100, Note_on_c, 3, 86, 0
5, 77100, Note_on_c, 3, 84, 55
5, 77160, Note_on_c, 3, 84, 0
5, 77160, Note_on_c, 3, 79, 55
5, 77220, Note_on_c, 3, 79, 0
5, 77220, Note_on_c, 3, 78, 55
5, 77280, Note_on_c, 3, 78, 0
5, 77280, Note_on_c, 3, 78, 55
5, 77340, Note_on_c, 3, 78, 0
5, 77340, Note_on_c, 3, 79, 65
5, 77400, Note_on_c, 3, 79, 0
5, 77460, Note_on_c, 3, 76, 55
5, 77490, Note_on_c, 3, 76, 0
5, 77520, Note_on_c, 3, 76, 55
5, 77580, Note_on_c, 3, 76, 0
5, 77580, Note_on_c, 3, 74, 55
5, 77640, Note_on_c, 3, 74, 0
5, 77700, Note_on_c, 3, 66, 55
5, 77745, Note_on_c, 3, 66, 0
5, 77760, Note_on_c, 3, 67, 67
5, 77880, Note_on_c, 3, 67, 0
5, 77940, Note_on_c, 3, 74, 55
5, 77970, Note_on_c, 3, 74, 0
5, 78000, Note_on_c, 3, 79, 55
5, 78060, Note_on_c, 3, 79, 0
5, 78060, Note_on_c, 3, 78, 55
5, 78120, Note_on_c, 3, 78, 0
5, 78120, Note_on_c, 3, 76, 55
5, 78180, Note_on_c, 3, 76, 0
5, 78180, Note_on_c, 3, 74, 55
5, 78240, Note_on_c, 3, 74, 0
5, 78240, Note_on_c, 3, 76, 55
5, 78255, Note_on_c, 3, 76, 0
5, 78255, Note_on_c, 3, 78, 55
5, 78270, Note_on_c, 3, 78, 0
5, 78270, Note_on_c, 3, 76, 55
5, 78285, Note_on_c, 3, 76, 0
5, 78285, Note_on_c, 3, 78, 55
5, 78300, Note_on_c, 3, 78, 0
5, 78300, Note_on_c, 3, 74, 55
5, 78360, Note_on_c, 3, 74, 0
5, 78420, Note_on_c, 3, 74, 55
5, 78450, Note_on_c, 3, 74, 0
5, 78480, Note_on_c, 3, 74, 55
5, 78510, Note_on_c, 3, 74, 0
5, 78540, Note_on_c, 3, 74, 55
5, 78570, Note_on_c, 3, 74, 0
5, 78600, Note_on_c, 3, 74, 55
5, 78630, Note_on_c, 3, 74, 0
5, 78660, Note_on_c, 3, 74, 55
5, 78690, Note_on_c, 3, 74, 0
5, 78720, Note_on_c, 3, 76, 55
5, 78735, Note_on_c, 3, 76, 0
5, 78735, Note_on_c, 3, 78, 55
5, 78750, Note_on_c, 3, 78, 0
5, 78750, Note_on_c, 3, 76, 55
5, 78765, Note_on_c, 3, 76, 0
5, 78765, Note_on_c, 3, 78, 55
5, 78780, Note_on_c, 3, 78, 0
5, 78780, Note_on_c, 3, 74, 55
5, 78840, Note_on_c, 3, 74, 0
5, 78900, Note_on_c, 3, 74, 55
5, 78945, Note_on_c, 3, 74, 0
5, 78960, Note_on_c, 3, 79, 55
5, 79020, Note_on_c, 3, 79, 0
5, 79020, Note_on_c, 3, 78, 55
5, 79080, Note_on_c, 3, 78, 0
5, 79080, Note_on_c, 3, 76, 55
5, 79140, Note_on_c, 3, 76, 0
5, 79140, Note_on_c, 3, 74, 55
5, 79200, Note_on_c, 3, 74, 0
5, 79200, Note_on_c, 3, 76, 55
5, 79215, Note_on_c, 3, 76, 0
5, 79215, Note_on_c, 3, 78, 55
5, 79230, Note_on_c, 3, 78, 0
5, 79230, Note_on_c, 3, 76, 55
5, 79245, Note_on_c, 3, 76, 0
5, 79245, Note_on_c, 3, 78, 55
5, 79260, Note_on_c, 3, 78, 0
5, 79260, Note_on_c, 3, 74, 55
5, 79320, Note_on_c, 3, 74, 0
5, 79380, Note_on_c, 3, 74, 55
5, 79410, Note_on_c, 3, 74, 0
5, 79440, Note_on_c, 3, 74, 55
5, 79470, Note_on_c, 3, 74, 0
5, 79500, Note_on_c, 3, 74, 55
5, 79530, Note_on_c, 3, 74, 0
5, 79560, Note_on_c, 3, 74, 55
5, 79590, Note_on_c, 3, 74, 0
5, 79620, Note_on_c, 3, 74, 55
5, 79650, Note_on_c, 3, 74, 0
5, 79680, Note_on_c, 3, 76, 55
5, 79695, Note_on_c, 3, 76, 0
5, 79695, Note_on_c, 3, 78, 55
5, 79710, Note_on_c, 3, 78, 0
5, 79710, Note_on_c, 3, 76, 55
5, 79725, Note_on_c, 3, 76, 0
5, 79725, Note_on_c, 3, 78, 55
5, 79740, Note_on_c, 3, 78, 0
5, 79740, Note_on_c, 3, 74, 55
5, 79800, Note_on_c, 3, 74, 0
5, 79920, Note_on_c, 3, 64, 83
5, 79920, Note_on_c, 3, 76, 83
5, 80090, Note_on_c, 3, 76, 0
5, 80090, Note_on_c, 3, 64, 0
5, 80100, Note_on_c, 3, 74, 82
5, 80120, Note_on_c, 3, 74, 0
5, 80120, Note_on_c, 3, 72, 82
5, 80140, Note_on_c, 3, 72, 0
5, 80140, Note_on_c, 3, 71, 82
5, 80160, Note_on_c, 3, 71, 0
5, 80160, Note_on_c, 3, 72, 83
5, 80280, Note_on_c, 3, 72, 0
5, 80400, Note_on_c, 3, 74, 85
5, 80400, Note_on_c, 3, 62, 85
5, 80570, Note_on_c, 3, 62, 0
5, 80570, Note_on_c, 3, 74, 0
5, 80580, Note_on_c, 3, 72, 77
5, 80600, Note_on_c, 3, 72, 0
5, 80600, Note_on_c, 3, 71, 79
5, 80620, Note_on_c, 3, 71, 0
5, 80620, Note_on_c, 3, 69, 83
5, 80640, Note_on_c, 3, 69, 0
5, 80640, Note_on_c, 3, 71, 88
5, 80760, Note_on_c, 3, 71, 0
5, 80880, Note_on_c, 3, 76, 85
5, 80940, Note_on_c, 3, 76, 0
5, 80940, Note_on_c, 3, 78, 85
5, 80970, Note_on_c, 3, 78, 0
5, 80970, Note_on_c, 3, 79, 85
5, 81000, Note_on_c, 3, 79, 0
5, 81000, Note_on_c, 3, 78, 85
5, 81045, Note_on_c, 3, 78, 0
5, 81060, Note_on_c, 3, 76, 85
5, 81090, Note_on_c, 3, 76, 0
5, 81120, Note_on_c, 3, 76, 85
5, 81180, Note_on_c, 3, 76, 0
5, 81180, Note_on_c, 3, 74, 85
5, 81225, Note_on_c, 3, 74, 0
5, 81240, Note_on_c, 3, 71, 85
5, 81270, Note_on_c, 3, 71, 0
5, 81300, Note_on_c, 3, 74, 85
5, 81330, Note_on_c, 3, 74, 0
5, 81360, Note_on_c, 3, 74, 85
5, 81420, Note_on_c, 3, 74, 0
5, 81420, Note_on_c, 3, 72, 85
5, 81465, Note_on_c, 3, 72, 0
5, 81480, Note_on_c, 3, 71, 85
5, 81510, Note_on_c, 3, 71, 0
5, 81540, Note_on_c, 3, 69, 85
5, 81570, Note_on_c, 3, 69, 0
5, 81600, Note_on_c, 3, 67, 85
5, 81720, Note_on_c, 3, 67, 0
5, 81780, Note_on_c, 3, 74, 50
5, 81810, Note_on_c, 3, 74, 0
5, 81840, Note_on_c, 3, 79, 50
5, 81900, Note_on_c, 3, 79, 0
5, 81900, Note_on_c, 3, 78, 50
5, 81960, Note_on_c, 3, 78, 0
5, 81960, Note_on_c, 3, 76, 53
5, 82020, Note_on_c, 3, 76, 0
5, 82020, Note_on_c, 3, 74, 56
5, 82080, Note_on_c, 3, 74, 0
5, 82080, Note_on_c, 3, 76, 58
5, 82095, Note_on_c, 3, 76, 0
5, 82095, Note_on_c, 3, 78, 58
5, 82110, Note_on_c, 3, 78, 0
5, 82110, Note_on_c, 3, 76, 59
5, 82125, Note_on_c, 3, 76, 0
5, 82125, Note_on_c, 3, 78, 59
5, 82140, Note_on_c, 3, 78, 0
5, 82140, Note_on_c, 3, 74, 61
5, 82200, Note_on_c, 3, 74, 0
5, 82260, Note_on_c, 3, 74, 56
5, 82290, Note_on_c, 3, 74, 0
5, 82320, Note_on_c, 3, 74, 55
5, 82350, Note_on_c, 3, 74, 0
5, 82380, Note_on_c, 3, 74, 55
5, 82410, Note_on_c, 3, 74, 0
5, 82440, Note_on_c, 3, 74, 53
5, 82470, Note_on_c, 3, 74, 0
5, 82500, Note_on_c, 3, 74, 52
5, 82530, Note_on_c, 3, 74, 0
5, 82560, Note_on_c, 3, 76, 55
5, 82575, Note_on_c, 3, 76, 0
5, 82575, Note_on_c, 3, 78, 55
5, 82590, Note_on_c, 3, 78, 0
5, 82590, Note_on_c, 3, 76, 55
5, 82605, Note_on_c, 3, 76, 0
5, 82605, Note_on_c, 3, 78, 55
5, 82620, Note_on_c, 3, 78, 0
5, 82620, Note_on_c, 3, 74, 55
5, 82680, Note_on_c, 3, 74, 0
5, 82740, Note_on_c, 3, 74, 55
5, 82785, Note_on_c, 3, 74, 0
5, 82800, Note_on_c, 3, 79, 55
5, 82860, Note_on_c, 3, 79, 0
5, 82860, Note_on_c, 3, 78, 55
5, 82920, Note_on_c, 3, 78, 0
5, 82920, Note_on_c, 3, 76, 55
5, 82980, Note_on_c, 3, 76, 0
5, 82980, Note_on_c, 3, 74, 56
5, 83040, Note_on_c, 3, 74, 0
5, 83040, Note_on_c, 3, 76, 65
5, 83055, Note_on_c, 3, 76, 0
5, 83055, Note_on_c, 3, 78, 65
5, 83070, Note_on_c, 3, 78, 0
5, 83070, Note_on_c, 3, 76, 65
5, 83085, Note_on_c, 3, 76, 0
5, 83085, Note_on_c, 3, 78, 65
5, 83100, Note_on_c, 3, 78, 0
5, 83100, Note_on_c, 3, 74, 64
5, 83160, Note_on_c, 3, 74, 0
5, 83220, Note_on_c, 3, 74, 55
5, 83250, Note_on_c, 3, 74, 0
5, 83280, Note_on_c, 3, 74, 55
5, 83310, Note_on_c, 3, 74, 0
5, 83340, Note_on_c, 3, 74, 55
5, 83370, Note_on_c, 3, 74, 0
5, 83400, Note_on_c, 3, 74, 55
5, 83430, Note_on_c, 3, 74, 0
5, 83460, Note_on_c, 3, 74, 55
5, 83490, Note_on_c, 3, 74, 0
5, 83520, Note_on_c, 3, 76, 59
5, 83535, Note_on_c, 3, 76, 0
5, 83535, Note_on_c, 3, 78, 59
5, 83550, Note_on_c, 3, 78, 0
5, 83550, Note_on_c, 3, 76, 59
5, 83565, Note_on_c, 3, 76, 0
5, 83565, Note_on_c, 3, 78, 59
5, 83580, Note_on_c, 3, 78, 0
5, 83580, Note_on_c, 3, 74, 59
5, 83640, Note_on_c, 3, 74, 0
5, 83760, Note_on_c, 3, 88, 85
5, 83930, Note_on_c, 3, 88, 0
5, 83940, Note_on_c, 3, 86, 85
5, 83960, Note_on_c, 3, 86, 0
5, 83960, Note_on_c, 3, 84, 85
5, 83980, Note_on_c, 3, 84, 0
5, 83980, Note_on_c, 3, 83, 85
5, 84000, Note_on_c, 3, 83, 0
5, 84000, Note_on_c, 3, 84, 85
5, 84120, Note_on_c, 3, 84, 0
5, 84240, Note_on_c, 3, 86, 85
5, 84240, Note_on_c, 3, 74, 85
5, 84410, Note_on_c, 3, 74, 0
5, 84410, Note_on_c, 3, 86, 0
5, 84420, Note_on_c, 3, 84, 82
5, 84440, Note_on_c, 3, 84, 0
5, 84440, Note_on_c, 3, 83, 83
5, 84460, Note_on_c, 3, 83, 0
5, 84460, Note_on_c, 3, 81, 83
5, 84480, Note_on_c, 3, 81, 0
5, 84480, Note_on_c, 3, 83, 86
5, 84600, Note_on_c, 3, 83, 0
5, 84720, Note_on_c, 3, 76, 85
5, 84780, Note_on_c, 3, 76, 0
5, 84780, Note_on_c, 3, 78, 85
5, 84810, Note_on_c, 3, 78, 0
5, 84810, Note_on_c, 3, 79, 85
5, 84840, Note_on_c, 3, 79, 0
5, 84840, Note_on_c, 3, 78, 85
5, 84885, Note_on_c, 3, 78, 0
5, 84900, Note_on_c, 3, 76, 85
5, 84930, Note_on_c, 3, 76, 0
5, 84960, Note_on_c, 3, 74, 85
5, 84990, Note_on_c, 3, 74, 0
5, 85020, Note_on_c, 3, 79, 85
5, 85050, Note_on_c, 3, 79, 0
5, 85080, Note_on_c, 3, 83, 85
5, 85110, Note_on_c, 3, 83, 0
5, 85140, Note_on_c, 3, 86, 85
5, 85170, Note_on_c, 3, 86, 0
5, 85200, Note_on_c, 3, 86, 85
5, 85260, Note_on_c, 3, 86, 0
5, 85260, Note_on_c, 3, 84, 85
5, 85305, Note_on_c, 3, 84, 0
5, 85320, Note_on_c, 3, 83, 85
5, 85350, Note_on_c, 3, 83, 0
5, 85380, Note_on_c, 3, 81, 85
5, 85410, Note_on_c, 3, 81, 0
5, 85440, Note_on_c, 3, 79, 94
5, 85485, Note_on_c, 3, 79, 0
5, 85500, Note_on_c, 3, 62, 85
5, 85545, Note_on_c, 3, 62, 0
5, 85560, Note_on_c, 3, 64, 85
5, 85605, Note_on_c, 3, 64, 0
5, 85620, Note_on_c, 3, 66, 85
5, 85665, Note_on_c, 3, 66, 0
5, 85680, Note_on_c, 3, 67, 85
5, 85725, Note_on_c, 3, 67, 0
5, 85740, Note_on_c, 3, 67, 85
5, 85785, Note_on_c, 3, 67, 0
5, 85800, Note_on_c, 3, 69, 85
5, 85815, Note_on_c, 3, 69, 0
5, 85815, Note_on_c, 3, 71, 85
5, 85830, Note_on_c, 3, 71, 0
5, 85830, Note_on_c, 3, 69, 85
5, 85845, Note_on_c, 3, 69, 0
5, 85845, Note_on_c, 3, 71, 85
5, 85860, Note_on_c, 3, 71, 0
5, 85860, Note_on_c, 3, 67, 85
5, 85890, Note_on_c, 3, 67, 0
5, 85890, Note_on_c, 3, 69, 85
5, 85920, Note_on_c, 3, 69, 0
5, 85920, Note_on_c, 3, 71, 85
5, 85965, Note_on_c, 3, 71, 0
5, 85980, Note_on_c, 3, 66, 85
5, 86025, Note_on_c, 3, 66, 0
5, 86040, Note_on_c, 3, 67, 85
5, 86085, Note_on_c, 3, 67, 0
5, 86100, Note_on_c, 3, 69, 85
5, 86145, Note_on_c, 3, 69, 0
5, 86160, Note_on_c, 3, 71, 85
5, 86205, Note_on_c, 3, 71, 0
5, 86220, Note_on_c, 3, 71, 85
5, 86265, Note_on_c, 3, 71, 0
5, 86280, Note_on_c, 3, 72, 86
5, 86295, Note_on_c, 3, 72, 0
5, 86295, Note_on_c, 3, 74, 86
5, 86310, Note_on_c, 3, 74, 0
5, 86310, Note_on_c, 3, 72, 86
5, 86325, Note_on_c, 3, 72, 0
5, 86325, Note_on_c, 3, 74, 86
5, 86340, Note_on_c, 3, 74, 0
5, 86340, Note_on_c, 3, 71, 86
5, 86370, Note_on_c, 3, 71, 0
5, 86370, Note_on_c, 3, 72, 89
5, 86400, Note_on_c, 3, 72, 0
5, 86400, Note_on_c, 3, 74, 89
5, 86445, Note_on_c, 3, 74, 0
5, 86460, Note_on_c, 3, 74, 91
5, 86505, Note_on_c, 3, 74, 0
5, 86520, Note_on_c, 3, 75, 91
5, 86535, Note_on_c, 3, 75, 0
5, 86535, Note_on_c, 3, 76, 91
5, 86550, Note_on_c, 3, 76, 0
5, 86550, Note_on_c, 3, 75, 91
5, 86565, Note_on_c, 3, 75, 0
5, 86565, Note_on_c, 3, 76, 92
5, 86580, Note_on_c, 3, 76, 0
5, 86580, Note_on_c, 3, 73, 94
5, 86610, Note_on_c, 3, 73, 0
5, 86610, Note_on_c, 3, 75, 97
5, 86640, Note_on_c, 3, 75, 0
5, 86640, Note_on_c, 3, 76, 98
5, 86760, Note_on_c, 3, 76, 0
5, 86880, Note_on_c, 3, 64, 61
5, 87060, Note_on_c, 3, 64, 0
5, 87060, Note_on_c, 3, 69, 61
5, 87105, Note_on_c, 3, 69, 0
5, 87120, Note_on_c, 3, 67, 61
5, 87180, Note_on_c, 3, 67, 0
5, 87180, Note_on_c, 3, 66, 62
5, 87240, Note_on_c, 3, 66, 0
5, 87240, Note_on_c, 3, 64, 62
5, 87300, Note_on_c, 3, 64, 0
5, 87300, Note_on_c, 3, 62, 62
5, 87345, Note_on_c, 3, 62, 0
5, 87360, Note_on_c, 3, 74, 62
5, 87420, Note_on_c, 3, 74, 0
5, 87420, Note_on_c, 3, 73, 62
5, 87480, Note_on_c, 3, 73, 0
5, 87480, Note_on_c, 3, 72, 62
5, 87540, Note_on_c, 3, 72, 0
5, 87540, Note_on_c, 3, 71, 62
5, 87600, Note_on_c, 3, 71, 0
5, 87600, Note_on_c, 3, 74, 61
5, 87660, Note_on_c, 3, 74, 0
5, 87660, Note_on_c, 3, 73, 61
5, 87720, Note_on_c, 3, 73, 0
5, 87720, Note_on_c, 3, 72, 61
5, 87780, Note_on_c, 3, 72, 0
5, 87780, Note_on_c, 3, 71, 59
5, 87825, Note_on_c, 3, 71, 0
5, 87840, Note_on_c, 3, 64, 61
5, 88020, Note_on_c, 3, 64, 0
5, 88020, Note_on_c, 3, 69, 67
5, 88065, Note_on_c, 3, 69, 0
5, 88080, Note_on_c, 3, 67, 70
5, 88140, Note_on_c, 3, 67, 0
5, 88140, Note_on_c, 3, 66, 70
5, 88200, Note_on_c, 3, 66, 0
5, 88200, Note_on_c, 3, 64, 70
5, 88260, Note_on_c, 3, 64, 0
5, 88260, Note_on_c, 3, 62, 70
5, 88305, Note_on_c, 3, 62, 0
5, 88320, Note_on_c, 3, 74, 70
5, 88380, Note_on_c, 3, 74, 0
5, 88380, Note_on_c, 3, 76, 70
5, 88440, Note_on_c, 3, 76, 0
5, 88440, Note_on_c, 3, 78, 70
5, 88500, Note_on_c, 3, 78, 0
5, 88500, Note_on_c, 3, 79, 70
5, 88560, Note_on_c, 3, 79, 0
5, 88560, Note_on_c, 3, 74, 70
5, 88620, Note_on_c, 3, 74, 0
5, 88620, Note_on_c, 3, 76, 70
5, 88680, Note_on_c, 3, 76, 0
5, 88680, Note_on_c, 3, 78, 70
5, 88740, Note_on_c, 3, 78, 0
5, 88740, Note_on_c, 3, 79, 76
5, 88785, Note_on_c, 3, 79, 0
5, 88800, Note_on_c, 3, 81, 75
5, 88920, Note_on_c, 3, 81, 0
5, 89040, Note_on_c, 3, 74, 91
5, 89040, Note_on_c, 3, 86, 91
5, 89160, Note_on_c, 3, 86, 0
5, 89160, Note_on_c, 3, 74, 0
5, 89280, Note_on_c, 3, 62, 96
5, 89280, Note_on_c, 3, 71, 96
5, 89280, Note_on_c, 3, 79, 96
5, 89400, Note_on_c, 3, 79, 0
5, 89400, Note_on_c, 3, 71, 0
5, 89400, Note_on_c, 3, 62, 0
5, 89460, Note_on_c, 3, 74, 95
5, 89505, Note_on_c, 3, 74, 0
5, 89520, Note_on_c, 3, 71, 94
5, 89565, Note_on_c, 3, 71, 0
5, 89580, Note_on_c, 3, 67, 90
5, 89625, Note_on_c, 3, 67, 0
5, 89640, Note_on_c, 3, 71, 90
5, 89685, Note_on_c, 3, 71, 0
5, 89700, Note_on_c, 3, 74, 89
5, 89745, Note_on_c, 3, 74, 0
5, 89760, Note_on_c, 3, 79, 88
5, 89805, Note_on_c, 3, 79, 0
5, 89820, Note_on_c, 3, 74, 88
5, 89865, Note_on_c, 3, 74, 0
5, 89880, Note_on_c, 3, 79, 88
5, 89925, Note_on_c, 3, 79, 0
5, 89940, Note_on_c, 3, 83, 90
5, 89985, Note_on_c, 3, 83, 0
5, 90000, Note_on_c, 3, 86, 92
5, 90100, Note_on_c, 3, 86, 0
5, 90120, Note_on_c, 3, 62, 95
5, 90120, Note_on_c, 3, 69, 95
5, 90120, Note_on_c, 3, 78, 95
5, 90220, Note_on_c, 3, 78, 0
5, 90220, Note_on_c, 3, 69, 0
5, 90220, Note_on_c, 3, 62, 0
5, 90240, Note_on_c, 3, 62, 100
5, 90240, Note_on_c, 3, 71, 100
5, 90240, Note_on_c, 3, 79, 100
5, 90360, Note_on_c, 3, 79, 0
5, 90360, Note_on_c, 3, 71, 0
5, 90360, Note_on_c, 3, 62, 0
5, 90420, Note_on_c, 3, 74, 98
5, 90465, Note_on_c, 3, 74, 0
5, 90480, Note_on_c, 3, 71, 98
5, 90525, Note_on_c, 3, 71, 0
5, 90540, Note_on_c, 3, 67, 95
5, 90585, Note_on_c, 3, 67, 0
5, 90600, Note_on_c, 3, 71, 94
5, 90645, Note_on_c, 3, 71, 0
5, 90660, Note_on_c, 3, 74, 92
5, 90705, Note_on_c, 3, 74, 0
5, 90720, Note_on_c, 3, 79, 91
5, 90765, Note_on_c, 3, 79, 0
5, 90780, Note_on_c, 3, 74, 91
5, 90825, Note_on_c, 3, 74, 0
5, 90840, Note_on_c, 3, 79, 92
5, 90885, Note_on_c, 3, 79, 0
5, 90900, Note_on_c, 3, 83, 92
5, 90945, Note_on_c, 3, 83, 0
5, 90960, Note_on_c, 3, 86, 96
5, 91060, Note_on_c, 3, 86, 0
5, 91080, Note_on_c, 3, 62, 99
5, 91080, Note_on_c, 3, 69, 99
5, 91080, Note_on_c, 3, 78, 99
5, 91180, Note_on_c, 3, 78, 0
5, 91180, Note_on_c, 3, 69, 0
5, 91180, Note_on_c, 3, 62, 0
5, 91200, Note_on_c, 3, 62, 109
5, 91200, Note_on_c, 3, 71, 109
5, 91200, Note_on_c, 3, 79, 109
5, 91320, Note_on_c, 3, 79, 0
5, 91320, Note_on_c, 3, 71, 0
5, 91320, Note_on_c, 3, 62, 0
5, 91440, Note_on_c, 3, 62, 106
5, 91440, Note_on_c, 3, 71, 106
5, 91440, Note_on_c, 3, 79, 106
5, 91560, Note_on_c, 3, 79, 0
5, 91560, Note_on_c, 3, 71, 0
5, 91560, Note_on_c, 3, 62, 0
5, 91680, Note_on_c, 3, 62, 106
5, 91680, Note_on_c, 3, 71, 106
5, 91680, Note_on_c, 3, 79, 106
5, 91780, Note_on_c, 3, 79, 0
5, 91780, Note_on_c, 3, 71, 0
5, 91780, Note_on_c, 3, 62, 0
5, 91800, Note_on_c, 3, 55, 110
5, 91800, Note_on_c, 3, 67, 110
5, 91860, Note_on_c, 3, 67, 0
5, 91860, Note_on_c, 3, 55, 0
5, 91890, Note_on_c, 3, 55, 109
5, 91890, Note_on_c, 3, 67, 109
5, 91905, Note_on_c, 3, 67, 0
5, 91905, Note_on_c, 3, 55, 0
5, 91920, Note_on_c, 3, 55, 108
5, 91920, Note_on_c, 3, 67, 108
5, 92040, Note_on_c, 3, 67, 0
5, 92040, Note_on_c, 3, 55, 0
5, 92040, End_track
6, 0, Start_track
6, 0, MIDI_port, 0
6, 0, Title_t, "Amadeus"
6, 0, Program_c, 4, 41
6, 0, Control_c, 4, 7, 122
6, 0, Control_c, 4, 10, 50
6, 0, Note_on_c, 4, 62, 85
6, 0, Note_on_c, 4, 79, 85
6, 0, Note_on_c, 4, 71, 85
6, 119, Note_on_c, 4, 71, 0
6, 119, Note_on_c, 4, 79, 0
6, 119, Note_on_c, 4, 62, 0
6, 180, Note_on_c, 4, 74, 85
6, 210, Note_on_c, 4, 74, 0
6, 240, Note_on_c, 4, 79, 85
6, 360, Note_on_c, 4, 79, 0
6, 420, Note_on_c, 4, 74, 85
6, 450, Note_on_c, 4, 74, 0
6, 480, Note_on_c, 4, 79, 85
6, 510, Note_on_c, 4, 79, 0
6, 540, Note_on_c, 4, 74, 85
6, 570, Note_on_c, 4, 74, 0
6, 600, Note_on_c, 4, 79, 85
6, 630, Note_on_c, 4, 79, 0
6, 660, Note_on_c, 4, 83, 85
6, 690, Note_on_c, 4, 83, 0
6, 720, Note_on_c, 4, 86, 85
6, 840, Note_on_c, 4, 86, 0
6, 960, Note_on_c, 4, 84, 85
6, 1080, Note_on_c, 4, 84, 0
6, 1140, Note_on_c, 4, 81, 82
6, 1170, Note_on_c, 4, 81, 0
6, 1200, Note_on_c, 4, 84, 85
6, 1320, Note_on_c, 4, 84, 0
6, 1380, Note_on_c, 4, 81, 79
6, 1410, Note_on_c, 4, 81, 0
6, 1440, Note_on_c, 4, 84, 85
6, 1470, Note_on_c, 4, 84, 0
6, 1500, Note_on_c, 4, 81, 80
6, 1530, Note_on_c, 4, 81, 0
6, 1560, Note_on_c, 4, 78, 85
6, 1590, Note_on_c, 4, 78, 0
6, 1620, Note_on_c, 4, 81, 77
6, 1650, Note_on_c, 4, 81, 0
6, 1680, Note_on_c, 4, 74, 85
6, 1800, Note_on_c, 4, 74, 0
6, 1920, Note_on_c, 4, 62, 85
6, 1920, Note_on_c, 4, 79, 85
6, 1920, Note_on_c, 4, 71, 85
6, 1980, Note_on_c, 4, 71, 0
6, 1980, Note_on_c, 4, 79, 0
6, 1980, Note_on_c, 4, 62, 0
6, 2040, Note_on_c, 4, 79, 85
6, 2220, Note_on_c, 4, 79, 0
6, 2220, Note_on_c, 4, 83, 89
6, 2280, Note_on_c, 4, 83, 0
6, 2280, Note_on_c, 4, 81, 94
6, 2310, Note_on_c, 4, 81, 0
6, 2340, Note_on_c, 4, 79, 97
6, 2370, Note_on_c, 4, 79, 0
6, 2400, Note_on_c, 4, 79, 95
6, 2415, Note_on_c, 4, 79, 0
6, 2415, Note_on_c, 4, 81, 95
6, 2430, Note_on_c, 4, 81, 0
6, 2430, Note_on_c, 4, 79, 95
6, 2445, Note_on_c, 4, 79, 0
6, 2445, Note_on_c, 4, 81, 94
6, 2460, Note_on_c, 4, 81, 0
6, 2460, Note_on_c, 4, 78, 94
6, 2510, Note_on_c, 4, 78, 0
6, 2520, Note_on_c, 4, 78, 88
6, 2700, Note_on_c, 4, 78, 0
6, 2700, Note_on_c, 4, 81, 85
6, 2760, Note_on_c, 4, 81, 0
6, 2760, Note_on_c, 4, 84, 85
6, 2790, Note_on_c, 4, 84, 0
6, 2820, Note_on_c, 4, 78, 85
6, 2850, Note_on_c, 4, 78, 0
6, 2880, Note_on_c, 4, 81, 85
6, 2940, Note_on_c, 4, 81, 0
6, 2940, Note_on_c, 4, 79, 85
6, 2970, Note_on_c, 4, 79, 0
6, 3000, Note_on_c, 4, 79, 85
6, 3180, Note_on_c, 4, 79, 0
6, 3180, Note_on_c, 4, 83, 86
6, 3240, Note_on_c, 4, 83, 0
6, 3240, Note_on_c, 4, 81, 86
6, 3270, Note_on_c, 4, 81, 0
6, 3300, Note_on_c, 4, 79, 89
6, 3330, Note_on_c, 4, 79, 0
6, 3360, Note_on_c, 4, 79, 91
6, 3375, Note_on_c, 4, 79, 0
6, 3375, Note_on_c, 4, 81, 91
6, 3390, Note_on_c, 4, 81, 0
6, 3390, Note_on_c, 4, 79, 92
6, 3405, Note_on_c, 4, 79, 0
6, 3405, Note_on_c, 4, 81, 94
6, 3420, Note_on_c, 4, 81, 0
6, 3420, Note_on_c, 4, 78, 94
6, 3470, Note_on_c, 4, 78, 0
6, 3480, Note_on_c, 4, 78, 94
6, 3660, Note_on_c, 4, 78, 0
6, 3660, Note_on_c, 4, 81, 85
6, 3720, Note_on_c, 4, 81, 0
6, 3720, Note_on_c, 4, 84, 85
6, 3750, Note_on_c, 4, 84, 0
6, 3780, Note_on_c, 4, 78, 85
6, 3810, Note_on_c, 4, 78, 0
6, 3840, Note_on_c, 4, 79, 85
6, 3870, Note_on_c, 4, 79, 0
6, 3900, Note_on_c, 4, 79, 85
6, 3930, Note_on_c, 4, 79, 0
6, 3960, Note_on_c, 4, 79, 85
6, 3990, Note_on_c, 4, 79, 0
6, 3990, Note_on_c, 4, 78, 85
6, 4020, Note_on_c, 4, 78, 0
6, 4020, Note_on_c, 4, 76, 85
6, 4050, Note_on_c, 4, 76, 0
6, 4050, Note_on_c, 4, 78, 85
6, 4080, Note_on_c, 4, 78, 0
6, 4080, Note_on_c, 4, 79, 85
6, 4110, Note_on_c, 4, 79, 0
6, 4140, Note_on_c, 4, 79, 85
6, 4170, Note_on_c, 4, 79, 0
6, 4200, Note_on_c, 4, 83, 85
6, 4230, Note_on_c, 4, 83, 0
6, 4230, Note_on_c, 4, 81, 85
6, 4260, Note_on_c, 4, 81, 0
6, 4260, Note_on_c, 4, 79, 85
6, 4290, Note_on_c, 4, 79, 0
6, 4290, Note_on_c, 4, 81, 85
6, 4320, Note_on_c, 4, 81, 0
6, 4320, Note_on_c, 4, 83, 86
6, 4350, Note_on_c, 4, 83, 0
6, 4380, Note_on_c, 4, 83, 86
6, 4410, Note_on_c, 4, 83, 0
6, 4440, Note_on_c, 4, 86, 83
6, 4470, Note_on_c, 4, 86, 0
6, 4470, Note_on_c, 4, 84, 80
6, 4500, Note_on_c, 4, 84, 0
6, 4500, Note_on_c, 4, 83, 80
6, 4530, Note_on_c, 4, 83, 0
6, 4530, Note_on_c, 4, 84, 79
6, 4560, Note_on_c, 4, 84, 0
6, 4560, Note_on_c, 4, 86, 76
6, 4680, Note_on_c, 4, 86, 0
6, 4800, Note_on_c, 4, 74, 41
6, 5040, Note_on_c, 4, 74, 0
6, 5040, Note_on_c, 4, 76, 47
6, 5280, Note_on_c, 4, 76, 0
6, 5280, Note_on_c, 4, 74, 47
6, 5310, Note_on_c, 4, 74, 0
6, 5310, Note_on_c, 4, 72, 47
6, 5390, Note_on_c, 4, 72, 0
6, 5400, Note_on_c, 4, 72, 47
6, 5520, Note_on_c, 4, 72, 0
6, 5520, Note_on_c, 4, 72, 47
6, 5550, Note_on_c, 4, 72, 0
6, 5550, Note_on_c, 4, 71, 47
6, 5630, Note_on_c, 4, 71, 0
6, 5640, Note_on_c, 4, 71, 47
6, 5760, Note_on_c, 4, 71, 0
6, 5760, Note_on_c, 4, 71, 47
6, 5790, Note_on_c, 4, 71, 0
6, 5790, Note_on_c, 4, 69, 47
6, 5870, Note_on_c, 4, 69, 0
6, 5880, Note_on_c, 4, 69, 47
6, 6000, Note_on_c, 4, 69, 0
6, 6000, Note_on_c, 4, 67, 47
6, 6060, Note_on_c, 4, 67, 0
6, 6060, Note_on_c, 4, 66, 47
6, 6090, Note_on_c, 4, 66, 0
6, 6120, Note_on_c, 4, 64, 47
6, 6150, Note_on_c, 4, 64, 0
6, 6180, Note_on_c, 4, 66, 47
6, 6210, Note_on_c, 4, 66, 0
6, 6240, Note_on_c, 4, 67, 47
6, 6300, Note_on_c, 4, 67, 0
6, 6360, Note_on_c, 4, 69, 47
6, 6420, Note_on_c, 4, 69, 0
6, 6480, Note_on_c, 4, 71, 47
6, 6540, Note_on_c, 4, 71, 0
6, 6720, Note_on_c, 4, 74, 47
6, 6960, Note_on_c, 4, 74, 0
6, 6960, Note_on_c, 4, 76, 47
6, 7200, Note_on_c, 4, 76, 0
6, 7200, Note_on_c, 4, 74, 47
6, 7260, Note_on_c, 4, 74, 0
6, 7260, Note_on_c, 4, 72, 47
6, 7290, Note_on_c, 4, 72, 0
6, 7320, Note_on_c, 4, 72, 47
6, 7350, Note_on_c, 4, 72, 0
6, 7380, Note_on_c, 4, 72, 47
6, 7410, Note_on_c, 4, 72, 0
6, 7440, Note_on_c, 4, 72, 47
6, 7500, Note_on_c, 4, 72, 0
6, 7500, Note_on_c, 4, 71, 47
6, 7530, Note_on_c, 4, 71, 0
6, 7560, Note_on_c, 4, 71, 47
6, 7590, Note_on_c, 4, 71, 0
6, 7620, Note_on_c, 4, 71, 47
6, 7650, Note_on_c, 4, 71, 0
6, 7680, Note_on_c, 4, 71, 47
6, 7740, Note_on_c, 4, 71, 0
6, 7740, Note_on_c, 4, 69, 47
6, 7770, Note_on_c, 4, 69, 0
6, 7800, Note_on_c, 4, 69, 47
6, 7845, Note_on_c, 4, 69, 0
6, 7860, Note_on_c, 4, 69, 47
6, 7905, Note_on_c, 4, 69, 0
6, 7920, Note_on_c, 4, 67, 47
6, 7980, Note_on_c, 4, 67, 0
6, 7980, Note_on_c, 4, 66, 47
6, 8040, Note_on_c, 4, 66, 0
6, 8040, Note_on_c, 4, 64, 47
6, 8100, Note_on_c, 4, 64, 0
6, 8100, Note_on_c, 4, 66, 47
6, 8160, Note_on_c, 4, 66, 0
6, 8160, Note_on_c, 4, 55, 85
6, 8160, Note_on_c, 4, 67, 85
6, 8460, Note_on_c, 4, 67, 0
6, 8460, Note_on_c, 4, 55, 0
6, 8460, Note_on_c, 4, 67, 61
6, 8475, Note_on_c, 4, 67, 0
6, 8475, Note_on_c, 4, 69, 61
6, 8490, Note_on_c, 4, 69, 0
6, 8490, Note_on_c, 4, 66, 61
6, 8505, Note_on_c, 4, 66, 0
6, 8505, Note_on_c, 4, 67, 61
6, 8520, Note_on_c, 4, 67, 0
6, 8520, Note_on_c, 4, 69, 61
6, 8580, Note_on_c, 4, 69, 0
6, 8580, Note_on_c, 4, 66, 61
6, 8640, Note_on_c, 4, 66, 0
6, 8640, Note_on_c, 4, 71, 85
6, 8940, Note_on_c, 4, 71, 0
6, 8940, Note_on_c, 4, 71, 61
6, 8955, Note_on_c, 4, 71, 0
6, 8955, Note_on_c, 4, 72, 61
6, 8970, Note_on_c, 4, 72, 0
6, 8970, Note_on_c, 4, 69, 61
6, 8985, Note_on_c, 4, 69, 0
6, 8985, Note_on_c, 4, 71, 61
6, 9000, Note_on_c, 4, 71, 0
6, 9000, Note_on_c, 4, 72, 61
6, 9060, Note_on_c, 4, 72, 0
6, 9060, Note_on_c, 4, 69, 61
6, 9120, Note_on_c, 4, 69, 0
6, 9120, Note_on_c, 4, 74, 46
6, 9140, Note_on_c, 4, 74, 0
6, 9150, Note_on_c, 4, 74, 46
6, 9170, Note_on_c, 4, 74, 0
6, 9180, Note_on_c, 4, 74, 47
6, 9200, Note_on_c, 4, 74, 0
6, 9210, Note_on_c, 4, 74, 47
6, 9230, Note_on_c, 4, 74, 0
6, 9240, Note_on_c, 4, 74, 49
6, 9260, Note_on_c, 4, 74, 0
6, 9270, Note_on_c, 4, 74, 50
6, 9290, Note_on_c, 4, 74, 0
6, 9300, Note_on_c, 4, 74, 50
6, 9320, Note_on_c, 4, 74, 0
6, 9330, Note_on_c, 4, 74, 52
6, 9350, Note_on_c, 4, 74, 0
6, 9360, Note_on_c, 4, 76, 53
6, 9380, Note_on_c, 4, 76, 0
6, 9390, Note_on_c, 4, 76, 53
6, 9410, Note_on_c, 4, 76, 0
6, 9420, Note_on_c, 4, 76, 55
6, 9440, Note_on_c, 4, 76, 0
6, 9450, Note_on_c, 4, 76, 56
6, 9470, Note_on_c, 4, 76, 0
6, 9480, Note_on_c, 4, 78, 56
6, 9500, Note_on_c, 4, 78, 0
6, 9510, Note_on_c, 4, 78, 58
6, 9530, Note_on_c, 4, 78, 0
6, 9540, Note_on_c, 4, 78, 58
6, 9560, Note_on_c, 4, 78, 0
6, 9570, Note_on_c, 4, 78, 59
6, 9590, Note_on_c, 4, 78, 0
6, 9600, Note_on_c, 4, 79, 61
6, 9620, Note_on_c, 4, 79, 0
6, 9630, Note_on_c, 4, 79, 61
6, 9650, Note_on_c, 4, 79, 0
6, 9660, Note_on_c, 4, 79, 62
6, 9680, Note_on_c, 4, 79, 0
6, 9690, Note_on_c, 4, 79, 64
6, 9710, Note_on_c, 4, 79, 0
6, 9720, Note_on_c, 4, 81, 64
6, 9740, Note_on_c, 4, 81, 0
6, 9750, Note_on_c, 4, 81, 65
6, 9770, Note_on_c, 4, 81, 0
6, 9780, Note_on_c, 4, 81, 67
6, 9800, Note_on_c, 4, 81, 0
6, 9810, Note_on_c, 4, 81, 67
6, 9830, Note_on_c, 4, 81, 0
6, 9840, Note_on_c, 4, 83, 68
6, 9860, Note_on_c, 4, 83, 0
6, 9870, Note_on_c, 4, 83, 68
6, 9890, Note_on_c, 4, 83, 0
6, 9900, Note_on_c, 4, 83, 70
6, 9920, Note_on_c, 4, 83, 0
6, 9930, Note_on_c, 4, 83, 71
6, 9950, Note_on_c, 4, 83, 0
6, 9960, Note_on_c, 4, 85, 71
6, 9980, Note_on_c, 4, 85, 0
6, 9990, Note_on_c, 4, 85, 73
6, 10010, Note_on_c, 4, 85, 0
6, 10020, Note_on_c, 4, 85, 74
6, 10040, Note_on_c, 4, 85, 0
6, 10050, Note_on_c, 4, 85, 74
6, 10070, Note_on_c, 4, 85, 0
6, 10080, Note_on_c, 4, 86, 85
6, 10260, Note_on_c, 4, 86, 0
6, 10260, Note_on_c, 4, 81, 85
6, 10320, Note_on_c, 4, 81, 0
6, 10320, Note_on_c, 4, 85, 94
6, 10410, Note_on_c, 4, 85, 0
6, 10410, Note_on_c, 4, 81, 85
6, 10440, Note_on_c, 4, 81, 0
6, 10440, Note_on_c, 4, 85, 85
6, 10530, Note_on_c, 4, 85, 0
6, 10530, Note_on_c, 4, 81, 85
6, 10560, Note_on_c, 4, 81, 0
6, 10560, Note_on_c, 4, 86, 85
6, 10740, Note_on_c, 4, 86, 0
6, 10740, Note_on_c, 4, 81, 85
6, 10800, Note_on_c, 4, 81, 0
6, 10800, Note_on_c, 4, 85, 85
6, 10890, Note_on_c, 4, 85, 0
6, 10890, Note_on_c, 4, 81, 85
6, 10920, Note_on_c, 4, 81, 0
6, 10920, Note_on_c, 4, 85, 85
6, 11010, Note_on_c, 4, 85, 0
6, 11010, Note_on_c, 4, 81, 85
6, 11040, Note_on_c, 4, 81, 0
6, 11040, Note_on_c, 4, 86, 85
6, 11070, Note_on_c, 4, 86, 0
6, 11100, Note_on_c, 4, 78, 85
6, 11100, Note_on_c, 4, 86, 85
6, 11190, Note_on_c, 4, 86, 0
6, 11190, Note_on_c, 4, 78, 0
6, 11220, Note_on_c, 4, 78, 85
6, 11220, Note_on_c, 4, 86, 85
6, 11310, Note_on_c, 4, 86, 0
6, 11310, Note_on_c, 4, 78, 0
6, 11340, Note_on_c, 4, 78, 85
6, 11340, Note_on_c, 4, 86, 85
6, 11430, Note_on_c, 4, 86, 0
6, 11430, Note_on_c, 4, 78, 0
6, 11460, Note_on_c, 4, 78, 85
6, 11460, Note_on_c, 4, 86, 85
6, 11520, Note_on_c, 4, 78, 0
6, 11520, Note_on_c, 4, 76, 85
6, 11550, Note_on_c, 4, 76, 0
6, 11550, Note_on_c, 4, 86, 0
6, 11580, Note_on_c, 4, 76, 85
6, 11580, Note_on_c, 4, 86, 85
6, 11670, Note_on_c, 4, 86, 0
6, 11670, Note_on_c, 4, 76, 0
6, 11700, Note_on_c, 4, 76, 85
6, 11700, Note_on_c, 4, 86, 85
6, 11790, Note_on_c, 4, 86, 0
6, 11790, Note_on_c, 4, 76, 0
6, 11820, Note_on_c, 4, 76, 85
6, 11820, Note_on_c, 4, 86, 85
6, 11910, Note_on_c, 4, 86, 0
6, 11910, Note_on_c, 4, 76, 0
6, 11940, Note_on_c, 4, 76, 85
6, 11940, Note_on_c, 4, 86, 85
6, 12000, Note_on_c, 4, 86, 0
6, 12000, Note_on_c, 4, 76, 0
6, 12000, Note_on_c, 4, 76, 92
6, 12000, Note_on_c, 4, 85, 92
6, 12045, Note_on_c, 4, 85, 0
6, 12045, Note_on_c, 4, 76, 0
6, 12060, Note_on_c, 4, 81, 85
6, 12105, Note_on_c, 4, 81, 0
6, 12120, Note_on_c, 4, 86, 85
6, 12165, Note_on_c, 4, 86, 0
6, 12180, Note_on_c, 4, 81, 85
6, 12225, Note_on_c, 4, 81, 0
6, 12240, Note_on_c, 4, 85, 85
6, 12285, Note_on_c, 4, 85, 0
6, 12300, Note_on_c, 4, 81, 85
6, 12345, Note_on_c, 4, 81, 0
6, 12360, Note_on_c, 4, 86, 85
6, 12405, Note_on_c, 4, 86, 0
6, 12420, Note_on_c, 4, 81, 85
6, 12465, Note_on_c, 4, 81, 0
6, 12480, Note_on_c, 4, 85, 94
6, 12525, Note_on_c, 4, 85, 0
6, 12540, Note_on_c, 4, 69, 85
6, 12585, Note_on_c, 4, 69, 0
6, 12600, Note_on_c, 4, 69, 85
6, 12645, Note_on_c, 4, 69, 0
6, 12660, Note_on_c, 4, 69, 85
6, 12705, Note_on_c, 4, 69, 0
6, 12720, Note_on_c, 4, 69, 85
6, 12840, Note_on_c, 4, 69, 0
6, 12950, Control_c, 4, 11, 77
6, 12960, Note_on_c, 4, 81, 55
6, 12964, Control_c, 4, 11, 80
6, 12966, Control_c, 4, 11, 82
6, 12970, Control_c, 4, 11, 83
6, 12974, Control_c, 4, 11, 85
6, 12978, Control_c, 4, 11, 87
6, 12994, Control_c, 4, 11, 93
6, 12998, Control_c, 4, 11, 101
6, 13010, Control_c, 4, 11, 107
6, 13022, Control_c, 4, 11, 113
6, 13034, Control_c, 4, 11, 115
6, 13038, Control_c, 4, 11, 117
6, 13042, Control_c, 4, 11, 118
6, 13044, Control_c, 4, 11, 119
6, 13048, Control_c, 4, 11, 120
6, 13052, Control_c, 4, 11, 121
6, 13056, Control_c, 4, 11, 122
6, 13058, Control_c, 4, 11, 123
6, 13060, Control_c, 4, 11, 124
6, 13064, Control_c, 4, 11, 127
6, 13140, Note_on_c, 4, 81, 0
6, 13140, Note_on_c, 4, 79, 55
6, 13160, Note_on_c, 4, 79, 0
6, 13160, Note_on_c, 4, 78, 55
6, 13180, Note_on_c, 4, 78, 0
6, 13180, Note_on_c, 4, 76, 55
6, 13200, Note_on_c, 4, 76, 0
6, 13200, Note_on_c, 4, 74, 55
6, 13260, Note_on_c, 4, 74, 0
6, 13320, Note_on_c, 4, 83, 55
6, 13380, Note_on_c, 4, 83, 0
6, 13440, Note_on_c, 4, 79, 55
6, 13500, Note_on_c, 4, 79, 0
6, 13560, Note_on_c, 4, 76, 55
6, 13620, Note_on_c, 4, 76, 0
6, 13680, Note_on_c, 4, 81, 55
6, 13740, Note_on_c, 4, 81, 0
6, 13920, Note_on_c, 4, 78, 55
6, 14100, Note_on_c, 4, 78, 0
6, 14100, Note_on_c, 4, 76, 55
6, 14120, Note_on_c, 4, 76, 0
6, 14120, Note_on_c, 4, 74, 55
6, 14140, Note_on_c, 4, 74, 0
6, 14140, Note_on_c, 4, 73, 55
6, 14160, Note_on_c, 4, 73, 0
6, 14160, Note_on_c, 4, 71, 55
6, 14220, Note_on_c, 4, 71, 0
6, 14280, Note_on_c, 4, 79, 55
6, 14340, Note_on_c, 4, 79, 0
6, 14400, Note_on_c, 4, 78, 55
6, 14640, Note_on_c, 4, 78, 0
6, 14640, Note_on_c, 4, 76, 49
6, 14760, Note_on_c, 4, 76, 0
6, 14940, Note_on_c, 4, 81, 55
6, 14970, Note_on_c, 4, 81, 0
6, 15000, Note_on_c, 4, 81, 55
6, 15030, Note_on_c, 4, 81, 0
6, 15060, Note_on_c, 4, 81, 55
6, 15090, Note_on_c, 4, 81, 0
6, 15120, Note_on_c, 4, 81, 55
6, 15150, Note_on_c, 4, 81, 0
6, 15180, Note_on_c, 4, 81, 55
6, 15210, Note_on_c, 4, 81, 0
6, 15240, Note_on_c, 4, 81, 55
6, 15270, Note_on_c, 4, 81, 0
6, 15300, Note_on_c, 4, 81, 55
6, 15330, Note_on_c, 4, 81, 0
6, 15360, Note_on_c, 4, 81, 55
6, 15390, Note_on_c, 4, 81, 0
6, 15420, Note_on_c, 4, 81, 55
6, 15450, Note_on_c, 4, 81, 0
6, 15480, Note_on_c, 4, 81, 55
6, 15510, Note_on_c, 4, 81, 0
6, 15540, Note_on_c, 4, 81, 55
6, 15570, Note_on_c, 4, 81, 0
6, 15600, Note_on_c, 4, 81, 55
6, 15630, Note_on_c, 4, 81, 0
6, 15660, Note_on_c, 4, 81, 55
6, 15690, Note_on_c, 4, 81, 0
6, 15720, Note_on_c, 4, 83, 55
6, 15750, Note_on_c, 4, 83, 0
6, 15780, Note_on_c, 4, 85, 55
6, 15810, Note_on_c, 4, 85, 0
6, 15840, Note_on_c, 4, 85, 55
6, 15900, Note_on_c, 4, 85, 0
6, 15900, Note_on_c, 4, 86, 55
6, 15960, Note_on_c, 4, 86, 0
6, 16020, Note_on_c, 4, 83, 55
6, 16050, Note_on_c, 4, 83, 0
6, 16080, Note_on_c, 4, 83, 55
6, 16140, Note_on_c, 4, 83, 0
6, 16140, Note_on_c, 4, 81, 55
6, 16200, Note_on_c, 4, 81, 0
6, 16260, Note_on_c, 4, 73, 55
6, 16305, Note_on_c, 4, 73, 0
6, 16320, Note_on_c, 4, 74, 55
6, 16440, Note_on_c, 4, 74, 0
6, 16500, Note_on_c, 4, 81, 55
6, 16530, Note_on_c, 4, 81, 0
6, 16560, Note_on_c, 4, 86, 55
6, 16620, Note_on_c, 4, 86, 0
6, 16620, Note_on_c, 4, 85, 55
6, 16680, Note_on_c, 4, 85, 0
6, 16680, Note_on_c, 4, 83, 55
6, 16740, Note_on_c, 4, 83, 0
6, 16740, Note_on_c, 4, 81, 55
6, 16800, Note_on_c, 4, 81, 0
6, 16800, Note_on_c, 4, 83, 55
6, 16815, Note_on_c, 4, 83, 0
6, 16815, Note_on_c, 4, 85, 55
6, 16830, Note_on_c, 4, 85, 0
6, 16830, Note_on_c, 4, 83, 55
6, 16845, Note_on_c, 4, 83, 0
6, 16845, Note_on_c, 4, 85, 55
6, 16860, Note_on_c, 4, 85, 0
6, 16860, Note_on_c, 4, 81, 55
6, 16920, Note_on_c, 4, 81, 0
6, 16980, Note_on_c, 4, 81, 55
6, 17010, Note_on_c, 4, 81, 0
6, 17040, Note_on_c, 4, 81, 55
6, 17070, Note_on_c, 4, 81, 0
6, 17100, Note_on_c, 4, 81, 55
6, 17130, Note_on_c, 4, 81, 0
6, 17160, Note_on_c, 4, 81, 55
6, 17190, Note_on_c, 4, 81, 0
6, 17220, Note_on_c, 4, 81, 55
6, 17250, Note_on_c, 4, 81, 0
6, 17280, Note_on_c, 4, 83, 55
6, 17295, Note_on_c, 4, 83, 0
6, 17295, Note_on_c, 4, 85, 55
6, 17310, Note_on_c, 4, 85, 0
6, 17310, Note_on_c, 4, 83, 55
6, 17325, Note_on_c, 4, 83, 0
6, 17325, Note_on_c, 4, 85, 55
6, 17340, Note_on_c, 4, 85, 0
6, 17340, Note_on_c, 4, 81, 55
6, 17400, Note_on_c, 4, 81, 0
6, 17460, Note_on_c, 4, 81, 55
6, 17505, Note_on_c, 4, 81, 0
6, 17520, Note_on_c, 4, 86, 55
6, 17580, Note_on_c, 4, 86, 0
6, 17580, Note_on_c, 4, 85, 55
6, 17640, Note_on_c, 4, 85, 0
6, 17640, Note_on_c, 4, 83, 55
6, 17700, Note_on_c, 4, 83, 0
6, 17700, Note_on_c, 4, 81, 55
6, 17760, Note_on_c, 4, 81, 0
6, 17760, Note_on_c, 4, 83, 55
6, 17775, Note_on_c, 4, 83, 0
6, 17775, Note_on_c, 4, 85, 55
6, 17790, Note_on_c, 4, 85, 0
6, 17790, Note_on_c, 4, 83, 55
6, 17805, Note_on_c, 4, 83, 0
6, 17805, Note_on_c, 4, 85, 55
6, 17820, Note_on_c, 4, 85, 0
6, 17820, Note_on_c, 4, 81, 55
6, 17880, Note_on_c, 4, 81, 0
6, 17940, Note_on_c, 4, 81, 55
6, 17970, Note_on_c, 4, 81, 0
6, 18000, Note_on_c, 4, 81, 55
6, 18030, Note_on_c, 4, 81, 0
6, 18060, Note_on_c, 4, 81, 55
6, 18090, Note_on_c, 4, 81, 0
6, 18120, Note_on_c, 4, 81, 55
6, 18150, Note_on_c, 4, 81, 0
6, 18180, Note_on_c, 4, 81, 53
6, 18210, Note_on_c, 4, 81, 0
6, 18240, Note_on_c, 4, 83, 49
6, 18255, Note_on_c, 4, 83, 0
6, 18255, Note_on_c, 4, 85, 49
6, 18270, Note_on_c, 4, 85, 0
6, 18270, Note_on_c, 4, 83, 47
6, 18285, Note_on_c, 4, 83, 0
6, 18285, Note_on_c, 4, 85, 47
6, 18300, Note_on_c, 4, 85, 0
6, 18300, Note_on_c, 4, 81, 46
6, 18360, Note_on_c, 4, 81, 0
6, 18480, Note_on_c, 4, 71, 91
6, 18480, Note_on_c, 4, 83, 91
6, 18650, Note_on_c, 4, 83, 0
6, 18650, Note_on_c, 4, 71, 0
6, 18660, Note_on_c, 4, 81, 89
6, 18680, Note_on_c, 4, 81, 0
6, 18680, Note_on_c, 4, 79, 92
6, 18700, Note_on_c, 4, 79, 0
6, 18700, Note_on_c, 4, 78, 94
6, 18720, Note_on_c, 4, 78, 0
6, 18720, Note_on_c, 4, 79, 97
6, 18840, Note_on_c, 4, 79, 0
6, 18960, Note_on_c, 4, 81, 85
6, 18960, Note_on_c, 4, 69, 85
6, 19130, Note_on_c, 4, 69, 0
6, 19130, Note_on_c, 4, 81, 0
6, 19140, Note_on_c, 4, 79, 86
6, 19160, Note_on_c, 4, 79, 0
6, 19160, Note_on_c, 4, 78, 86
6, 19180, Note_on_c, 4, 78, 0
6, 19180, Note_on_c, 4, 76, 89
6, 19200, Note_on_c, 4, 76, 0
6, 19200, Note_on_c, 4, 78, 92
6, 19320, Note_on_c, 4, 78, 0
6, 19440, Note_on_c, 4, 83, 85
6, 19500, Note_on_c, 4, 83, 0
6, 19500, Note_on_c, 4, 85, 85
6, 19530, Note_on_c, 4, 85, 0
6, 19530, Note_on_c, 4, 86, 89
6, 19560, Note_on_c, 4, 86, 0
6, 19560, Note_on_c, 4, 85, 94
6, 19605, Note_on_c, 4, 85, 0
6, 19620, Note_on_c, 4, 83, 95
6, 19650, Note_on_c, 4, 83, 0
6, 19680, Note_on_c, 4, 83, 97
6, 19740, Note_on_c, 4, 83, 0
6, 19740, Note_on_c, 4, 81, 101
6, 19785, Note_on_c, 4, 81, 0
6, 19800, Note_on_c, 4, 78, 104
6, 19830, Note_on_c, 4, 78, 0
6, 19860, Note_on_c, 4, 81, 104
6, 19890, Note_on_c, 4, 81, 0
6, 19920, Note_on_c, 4, 81, 104
6, 19980, Note_on_c, 4, 81, 0
6, 19980, Note_on_c, 4, 79, 103
6, 20025, Note_on_c, 4, 79, 0
6, 20040, Note_on_c, 4, 78, 98
6, 20070, Note_on_c, 4, 78, 0
6, 20100, Note_on_c, 4, 76, 89
6, 20130, Note_on_c, 4, 76, 0
6, 20160, Note_on_c, 4, 74, 85
6, 20280, Note_on_c, 4, 74, 0
6, 20340, Note_on_c, 4, 81, 53
6, 20370, Note_on_c, 4, 81, 0
6, 20400, Note_on_c, 4, 86, 53
6, 20460, Note_on_c, 4, 86, 0
6, 20460, Note_on_c, 4, 85, 53
6, 20520, Note_on_c, 4, 85, 0
6, 20520, Note_on_c, 4, 83, 53
6, 20580, Note_on_c, 4, 83, 0
6, 20580, Note_on_c, 4, 81, 53
6, 20640, Note_on_c, 4, 81, 0
6, 20640, Note_on_c, 4, 83, 55
6, 20655, Note_on_c, 4, 83, 0
6, 20655, Note_on_c, 4, 85, 55
6, 20670, Note_on_c, 4, 85, 0
6, 20670, Note_on_c, 4, 83, 55
6, 20685, Note_on_c, 4, 83, 0
6, 20685, Note_on_c, 4, 85, 55
6, 20700, Note_on_c, 4, 85, 0
6, 20700, Note_on_c, 4, 81, 55
6, 20760, Note_on_c, 4, 81, 0
6, 20820, Note_on_c, 4, 81, 55
6, 20850, Note_on_c, 4, 81, 0
6, 20880, Note_on_c, 4, 81, 55
6, 20910, Note_on_c, 4, 81, 0
6, 20940, Note_on_c, 4, 81, 55
6, 20970, Note_on_c, 4, 81, 0
6, 21000, Note_on_c, 4, 81, 55
6, 21030, Note_on_c, 4, 81, 0
6, 21060, Note_on_c, 4, 81, 55
6, 21090, Note_on_c, 4, 81, 0
6, 21120, Note_on_c, 4, 83, 55
6, 21135, Note_on_c, 4, 83, 0
6, 21135, Note_on_c, 4, 85, 55
6, 21150, Note_on_c, 4, 85, 0
6, 21150, Note_on_c, 4, 83, 55
6, 21165, Note_on_c, 4, 83, 0
6, 21165, Note_on_c, 4, 85, 55
6, 21180, Note_on_c, 4, 85, 0
6, 21180, Note_on_c, 4, 81, 55
6, 21240, Note_on_c, 4, 81, 0
6, 21300, Note_on_c, 4, 81, 55
6, 21345, Note_on_c, 4, 81, 0
6, 21360, Note_on_c, 4, 86, 55
6, 21420, Note_on_c, 4, 86, 0
6, 21420, Note_on_c, 4, 85, 55
6, 21480, Note_on_c, 4, 85, 0
6, 21480, Note_on_c, 4, 83, 55
6, 21540, Note_on_c, 4, 83, 0
6, 21540, Note_on_c, 4, 81, 55
6, 21600, Note_on_c, 4, 81, 0
6, 21600, Note_on_c, 4, 83, 55
6, 21615, Note_on_c, 4, 83, 0
6, 21615, Note_on_c, 4, 85, 55
6, 21630, Note_on_c, 4, 85, 0
6, 21630, Note_on_c, 4, 83, 55
6, 21645, Note_on_c, 4, 83, 0
6, 21645, Note_on_c, 4, 85, 55
6, 21660, Note_on_c, 4, 85, 0
6, 21660, Note_on_c, 4, 81, 55
6, 21720, Note_on_c, 4, 81, 0
6, 21780, Note_on_c, 4, 81, 55
6, 21810, Note_on_c, 4, 81, 0
6, 21840, Note_on_c, 4, 81, 55
6, 21870, Note_on_c, 4, 81, 0
6, 21900, Note_on_c, 4, 81, 55
6, 21930, Note_on_c, 4, 81, 0
6, 21960, Note_on_c, 4, 81, 55
6, 21990, Note_on_c, 4, 81, 0
6, 22020, Note_on_c, 4, 81, 55
6, 22050, Note_on_c, 4, 81, 0
6, 22080, Note_on_c, 4, 83, 59
6, 22095, Note_on_c, 4, 83, 0
6, 22095, Note_on_c, 4, 85, 59
6, 22110, Note_on_c, 4, 85, 0
6, 22110, Note_on_c, 4, 83, 59
6, 22125, Note_on_c, 4, 83, 0
6, 22125, Note_on_c, 4, 85, 59
6, 22140, Note_on_c, 4, 85, 0
6, 22140, Note_on_c, 4, 81, 59
6, 22200, Note_on_c, 4, 81, 0
6, 22320, Note_on_c, 4, 71, 85
6, 22320, Note_on_c, 4, 83, 85
6, 22490, Note_on_c, 4, 83, 0
6, 22490, Note_on_c, 4, 71, 0
6, 22500, Note_on_c, 4, 81, 85
6, 22520, Note_on_c, 4, 81, 0
6, 22520, Note_on_c, 4, 79, 85
6, 22540, Note_on_c, 4, 79, 0
6, 22540, Note_on_c, 4, 78, 85
6, 22560, Note_on_c, 4, 78, 0
6, 22560, Note_on_c, 4, 79, 85
6, 22680, Note_on_c, 4, 79, 0
6, 22800, Note_on_c, 4, 81, 85
6, 22800, Note_on_c, 4, 69, 85
6, 22970, Note_on_c, 4, 69, 0
6, 22970, Note_on_c, 4, 81, 0
6, 22980, Note_on_c, 4, 79, 85
6, 23000, Note_on_c, 4, 79, 0
6, 23000, Note_on_c, 4, 78, 85
6, 23020, Note_on_c, 4, 78, 0
6, 23020, Note_on_c, 4, 76, 85
6, 23040, Note_on_c, 4, 76, 0
6, 23040, Note_on_c, 4, 78, 85
6, 23160, Note_on_c, 4, 78, 0
6, 23280, Note_on_c, 4, 83, 80
6, 23340, Note_on_c, 4, 83, 0
6, 23340, Note_on_c, 4, 85, 82
6, 23370, Note_on_c, 4, 85, 0
6, 23370, Note_on_c, 4, 86, 83
6, 23400, Note_on_c, 4, 86, 0
6, 23400, Note_on_c, 4, 85, 83
6, 23445, Note_on_c, 4, 85, 0
6, 23460, Note_on_c, 4, 83, 85
6, 23490, Note_on_c, 4, 83, 0
6, 23520, Note_on_c, 4, 83, 86
6, 23580, Note_on_c, 4, 83, 0
6, 23580, Note_on_c, 4, 81, 88
6, 23625, Note_on_c, 4, 81, 0
6, 23640, Note_on_c, 4, 78, 88
6, 23670, Note_on_c, 4, 78, 0
6, 23700, Note_on_c, 4, 81, 88
6, 23730, Note_on_c, 4, 81, 0
6, 23760, Note_on_c, 4, 81, 88
6, 23820, Note_on_c, 4, 81, 0
6, 23820, Note_on_c, 4, 79, 88
6, 23865, Note_on_c, 4, 79, 0
6, 23880, Note_on_c, 4, 78, 88
6, 23910, Note_on_c, 4, 78, 0
6, 23940, Note_on_c, 4, 76, 88
6, 23970, Note_on_c, 4, 76, 0
6, 24000, Note_on_c, 4, 74, 88
6, 24045, Note_on_c, 4, 74, 0
6, 24060, Note_on_c, 4, 69, 88
6, 24105, Note_on_c, 4, 69, 0
6, 24120, Note_on_c, 4, 71, 88
6, 24165, Note_on_c, 4, 71, 0
6, 24180, Note_on_c, 4, 73, 85
6, 24225, Note_on_c, 4, 73, 0
6, 24240, Note_on_c, 4, 74, 82
6, 24270, Note_on_c, 4, 74, 0
6, 24300, Note_on_c, 4, 74, 85
6, 24330, Note_on_c, 4, 74, 0
6, 24360, Note_on_c, 4, 76, 85
6, 24375, Note_on_c, 4, 76, 0
6, 24375, Note_on_c, 4, 78, 85
6, 24390, Note_on_c, 4, 78, 0
6, 24390, Note_on_c, 4, 76, 85
6, 24405, Note_on_c, 4, 76, 0
6, 24405, Note_on_c, 4, 78, 85
6, 24420, Note_on_c, 4, 78, 0
6, 24420, Note_on_c, 4, 74, 85
6, 24450, Note_on_c, 4, 74, 0
6, 24450, Note_on_c, 4, 76, 85
6, 24480, Note_on_c, 4, 76, 0
6, 24480, Note_on_c, 4, 78, 85
6, 24540, Note_on_c, 4, 78, 0
6, 24540, Note_on_c, 4, 73, 85
6, 24585, Note_on_c, 4, 73, 0
6, 24600, Note_on_c, 4, 74, 85
6, 24645, Note_on_c, 4, 74, 0
6, 24660, Note_on_c, 4, 76, 85
6, 24705, Note_on_c, 4, 76, 0
6, 24720, Note_on_c, 4, 78, 85
6, 24765, Note_on_c, 4, 78, 0
6, 24780, Note_on_c, 4, 78, 85
6, 24825, Note_on_c, 4, 78, 0
6, 24840, Note_on_c, 4, 79, 85
6, 24855, Note_on_c, 4, 79, 0
6, 24855, Note_on_c, 4, 81, 86
6, 24870, Note_on_c, 4, 81, 0
6, 24870, Note_on_c, 4, 79, 88
6, 24885, Note_on_c, 4, 79, 0
6, 24885, Note_on_c, 4, 81, 88
6, 24900, Note_on_c, 4, 81, 0
6, 24900, Note_on_c, 4, 78, 88
6, 24930, Note_on_c, 4, 78, 0
6, 24930, Note_on_c, 4, 79, 88
6, 24960, Note_on_c, 4, 79, 0
6, 24960, Note_on_c, 4, 81, 88
6, 25005, Note_on_c, 4, 81, 0
6, 25020, Note_on_c, 4, 81, 91
6, 25065, Note_on_c, 4, 81, 0
6, 25080, Note_on_c, 4, 82, 92
6, 25095, Note_on_c, 4, 82, 0
6, 25095, Note_on_c, 4, 83, 92
6, 25110, Note_on_c, 4, 83, 0
6, 25110, Note_on_c, 4, 82, 94
6, 25125, Note_on_c, 4, 82, 0
6, 25125, Note_on_c, 4, 83, 94
6, 25140, Note_on_c, 4, 83, 0
6, 25140, Note_on_c, 4, 80, 95
6, 25170, Note_on_c, 4, 80, 0
6, 25170, Note_on_c, 4, 82, 97
6, 25200, Note_on_c, 4, 82, 0
6, 25200, Note_on_c, 4, 83, 100
6, 25320, Note_on_c, 4, 83, 0
6, 25440, Note_on_c, 4, 71, 47
6, 25620, Note_on_c, 4, 71, 0
6, 25620, Note_on_c, 4, 76, 47
6, 25665, Note_on_c, 4, 76, 0
6, 25680, Note_on_c, 4, 74, 47
6, 25740, Note_on_c, 4, 74, 0
6, 25740, Note_on_c, 4, 73, 47
6, 25800, Note_on_c, 4, 73, 0
6, 25800, Note_on_c, 4, 71, 49
6, 25860, Note_on_c, 4, 71, 0
6, 25860, Note_on_c, 4, 69, 50
6, 25920, Note_on_c, 4, 69, 0
6, 25920, Note_on_c, 4, 74, 50
6, 25980, Note_on_c, 4, 74, 0
6, 26040, Note_on_c, 4, 78, 50
6, 26100, Note_on_c, 4, 78, 0
6, 26160, Note_on_c, 4, 74, 41
6, 26220, Note_on_c, 4, 74, 0
6, 26400, Note_on_c, 4, 62, 85
6, 26400, Note_on_c, 4, 79, 85
6, 26400, Note_on_c, 4, 71, 85
6, 26520, Note_on_c, 4, 71, 0
6, 26520, Note_on_c, 4, 79, 0
6, 26520, Note_on_c, 4, 62, 0
6, 26580, Note_on_c, 4, 74, 85
6, 26610, Note_on_c, 4, 74, 0
6, 26640, Note_on_c, 4, 79, 85
6, 26760, Note_on_c, 4, 79, 0
6, 26820, Note_on_c, 4, 74, 85
6, 26850, Note_on_c, 4, 74, 0
6, 26880, Note_on_c, 4, 79, 85
6, 26910, Note_on_c, 4, 79, 0
6, 26940, Note_on_c, 4, 74, 85
6, 26970, Note_on_c, 4, 74, 0
6, 27000, Note_on_c, 4, 79, 85
6, 27030, Note_on_c, 4, 79, 0
6, 27060, Note_on_c, 4, 83, 85
6, 27090, Note_on_c, 4, 83, 0
6, 27120, Note_on_c, 4, 86, 85
6, 27240, Note_on_c, 4, 86, 0
6, 27360, Note_on_c, 4, 84, 85
6, 27480, Note_on_c, 4, 84, 0
6, 27540, Note_on_c, 4, 81, 76
6, 27570, Note_on_c, 4, 81, 0
6, 27600, Note_on_c, 4, 84, 85
6, 27720, Note_on_c, 4, 84, 0
6, 27780, Note_on_c, 4, 81, 76
6, 27810, Note_on_c, 4, 81, 0
6, 27840, Note_on_c, 4, 84, 85
6, 27870, Note_on_c, 4, 84, 0
6, 27900, Note_on_c, 4, 81, 74
6, 27930, Note_on_c, 4, 81, 0
6, 27960, Note_on_c, 4, 78, 85
6, 27990, Note_on_c, 4, 78, 0
6, 28020, Note_on_c, 4, 81, 71
6, 28050, Note_on_c, 4, 81, 0
6, 28080, Note_on_c, 4, 74, 85
6, 28200, Note_on_c, 4, 74, 0
6, 28320, Note_on_c, 4, 62, 85
6, 28320, Note_on_c, 4, 79, 85
6, 28320, Note_on_c, 4, 71, 85
6, 28380, Note_on_c, 4, 71, 0
6, 28380, Note_on_c, 4, 79, 0
6, 28380, Note_on_c, 4, 62, 0
6, 28440, Note_on_c, 4, 79, 85
6, 28620, Note_on_c, 4, 79, 0
6, 28620, Note_on_c, 4, 83, 85
6, 28680, Note_on_c, 4, 83, 0
6, 28680, Note_on_c, 4, 81, 85
6, 28710, Note_on_c, 4, 81, 0
6, 28740, Note_on_c, 4, 79, 85
6, 28770, Note_on_c, 4, 79, 0
6, 28800, Note_on_c, 4, 79, 85
6, 28815, Note_on_c, 4, 79, 0
6, 28815, Note_on_c, 4, 81, 85
6, 28830, Note_on_c, 4, 81, 0
6, 28830, Note_on_c, 4, 79, 85
6, 28845, Note_on_c, 4, 79, 0
6, 28845, Note_on_c, 4, 81, 85
6, 28860, Note_on_c, 4, 81, 0
6, 28860, Note_on_c, 4, 78, 85
6, 28910, Note_on_c, 4, 78, 0
6, 28920, Note_on_c, 4, 78, 85
6, 29100, Note_on_c, 4, 78, 0
6, 29100, Note_on_c, 4, 81, 85
6, 29160, Note_on_c, 4, 81, 0
6, 29160, Note_on_c, 4, 84, 85
6, 29190, Note_on_c, 4, 84, 0
6, 29220, Note_on_c, 4, 78, 85
6, 29250, Note_on_c, 4, 78, 0
6, 29280, Note_on_c, 4, 81, 85
6, 29340, Note_on_c, 4, 81, 0
6, 29340, Note_on_c, 4, 79, 85
6, 29370, Note_on_c, 4, 79, 0
6, 29400, Note_on_c, 4, 79, 85
6, 29580, Note_on_c, 4, 79, 0
6, 29580, Note_on_c, 4, 83, 85
6, 29640, Note_on_c, 4, 83, 0
6, 29640, Note_on_c, 4, 81, 85
6, 29670, Note_on_c, 4, 81, 0
6, 29700, Note_on_c, 4, 79, 85
6, 29730, Note_on_c, 4, 79, 0
6, 29760, Note_on_c, 4, 79, 85
6, 29775, Note_on_c, 4, 79, 0
6, 29775, Note_on_c, 4, 81, 85
6, 29790, Note_on_c, 4, 81, 0
6, 29790, Note_on_c, 4, 79, 85
6, 29805, Note_on_c, 4, 79, 0
6, 29805, Note_on_c, 4, 81, 85
6, 29820, Note_on_c, 4, 81, 0
6, 29820, Note_on_c, 4, 78, 85
6, 29870, Note_on_c, 4, 78, 0
6, 29880, Note_on_c, 4, 78, 85
6, 30060, Note_on_c, 4, 78, 0
6, 30060, Note_on_c, 4, 81, 85
6, 30120, Note_on_c, 4, 81, 0
6, 30120, Note_on_c, 4, 84, 85
6, 30150, Note_on_c, 4, 84, 0
6, 30180, Note_on_c, 4, 78, 85
6, 30210, Note_on_c, 4, 78, 0
6, 30240, Note_on_c, 4, 79, 85
6, 30270, Note_on_c, 4, 79, 0
6, 30300, Note_on_c, 4, 79, 85
6, 30330, Note_on_c, 4, 79, 0
6, 30360, Note_on_c, 4, 79, 85
6, 30390, Note_on_c, 4, 79, 0
6, 30390, Note_on_c, 4, 78, 85
6, 30420, Note_on_c, 4, 78, 0
6, 30420, Note_on_c, 4, 76, 85
6, 30450, Note_on_c, 4, 76, 0
6, 30450, Note_on_c, 4, 78, 85
6, 30480, Note_on_c, 4, 78, 0
6, 30480, Note_on_c, 4, 79, 85
6, 30510, Note_on_c, 4, 79, 0
6, 30540, Note_on_c, 4, 79, 85
6, 30570, Note_on_c, 4, 79, 0
6, 30600, Note_on_c, 4, 83, 85
6, 30630, Note_on_c, 4, 83, 0
6, 30630, Note_on_c, 4, 81, 85
6, 30660, Note_on_c, 4, 81, 0
6, 30660, Note_on_c, 4, 79, 85
6, 30690, Note_on_c, 4, 79, 0
6, 30690, Note_on_c, 4, 81, 85
6, 30720, Note_on_c, 4, 81, 0
6, 30720, Note_on_c, 4, 83, 85
6, 30750, Note_on_c, 4, 83, 0
6, 30780, Note_on_c, 4, 83, 85
6, 30810, Note_on_c, 4, 83, 0
6, 30840, Note_on_c, 4, 86, 85
6, 30870, Note_on_c, 4, 86, 0
6, 30870, Note_on_c, 4, 84, 85
6, 30900, Note_on_c, 4, 84, 0
6, 30900, Note_on_c, 4, 83, 85
6, 30930, Note_on_c, 4, 83, 0
6, 30930, Note_on_c, 4, 84, 85
6, 30960, Note_on_c, 4, 84, 0
6, 30960, Note_on_c, 4, 86, 85
6, 31080, Note_on_c, 4, 86, 0
6, 31200, Note_on_c, 4, 74, 52
6, 31440, Note_on_c, 4, 74, 0
6, 31440, Note_on_c, 4, 76, 40
6, 31680, Note_on_c, 4, 76, 0
6, 31680, Note_on_c, 4, 74, 44
6, 31710, Note_on_c, 4, 74, 0
6, 31710, Note_on_c, 4, 72, 46
6, 31790, Note_on_c, 4, 72, 0
6, 31800, Note_on_c, 4, 72, 46
6, 31920, Note_on_c, 4, 72, 0
6, 31920, Note_on_c, 4, 72, 47
6, 31950, Note_on_c, 4, 72, 0
6, 31950, Note_on_c, 4, 71, 47
6, 32030, Note_on_c, 4, 71, 0
6, 32040, Note_on_c, 4, 71, 47
6, 32160, Note_on_c, 4, 71, 0
6, 32160, Note_on_c, 4, 71, 47
6, 32190, Note_on_c, 4, 71, 0
6, 32190, Note_on_c, 4, 69, 47
6, 32270, Note_on_c, 4, 69, 0
6, 32280, Note_on_c, 4, 69, 47
6, 32400, Note_on_c, 4, 69, 0
6, 32400, Note_on_c, 4, 67, 47
6, 32460, Note_on_c, 4, 67, 0
6, 32460, Note_on_c, 4, 66, 47
6, 32490, Note_on_c, 4, 66, 0
6, 32520, Note_on_c, 4, 64, 47
6, 32550, Note_on_c, 4, 64, 0
6, 32580, Note_on_c, 4, 66, 47
6, 32610, Note_on_c, 4, 66, 0
6, 32640, Note_on_c, 4, 67, 47
6, 32700, Note_on_c, 4, 67, 0
6, 32760, Note_on_c, 4, 69, 47
6, 32820, Note_on_c, 4, 69, 0
6, 32880, Note_on_c, 4, 71, 47
6, 32940, Note_on_c, 4, 71, 0
6, 33120, Note_on_c, 4, 74, 54
6, 33360, Note_on_c, 4, 74, 0
6, 33360, Note_on_c, 4, 76, 59
6, 33600, Note_on_c, 4, 76, 0
6, 33600, Note_on_c, 4, 74, 47
6, 33660, Note_on_c, 4, 74, 0
6, 33660, Note_on_c, 4, 72, 47
6, 33690, Note_on_c, 4, 72, 0
6, 33720, Note_on_c, 4, 72, 47
6, 33750, Note_on_c, 4, 72, 0
6, 33780, Note_on_c, 4, 72, 47
6, 33810, Note_on_c, 4, 72, 0
6, 33840, Note_on_c, 4, 72, 47
6, 33900, Note_on_c, 4, 72, 0
6, 33900, Note_on_c, 4, 71, 47
6, 33930, Note_on_c, 4, 71, 0
6, 33960, Note_on_c, 4, 71, 47
6, 33990, Note_on_c, 4, 71, 0
6, 34020, Note_on_c, 4, 71, 47
6, 34050, Note_on_c, 4, 71, 0
6, 34080, Note_on_c, 4, 71, 47
6, 34140, Note_on_c, 4, 71, 0
6, 34140, Note_on_c, 4, 69, 47
6, 34170, Note_on_c, 4, 69, 0
6, 34200, Note_on_c, 4, 69, 47
6, 34245, Note_on_c, 4, 69, 0
6, 34260, Note_on_c, 4, 69, 47
6, 34305, Note_on_c, 4, 69, 0
6, 34320, Note_on_c, 4, 67, 47
6, 34380, Note_on_c, 4, 67, 0
6, 34380, Note_on_c, 4, 66, 47
6, 34440, Note_on_c, 4, 66, 0
6, 34440, Note_on_c, 4, 64, 47
6, 34500, Note_on_c, 4, 64, 0
6, 34500, Note_on_c, 4, 66, 47
6, 34560, Note_on_c, 4, 66, 0
6, 34560, Note_on_c, 4, 55, 95
6, 34560, Note_on_c, 4, 67, 95
6, 34860, Note_on_c, 4, 67, 0
6, 34860, Note_on_c, 4, 55, 0
6, 34860, Note_on_c, 4, 67, 61
6, 34875, Note_on_c, 4, 67, 0
6, 34875, Note_on_c, 4, 69, 61
6, 34890, Note_on_c, 4, 69, 0
6, 34890, Note_on_c, 4, 66, 61
6, 34905, Note_on_c, 4, 66, 0
6, 34905, Note_on_c, 4, 67, 61
6, 34920, Note_on_c, 4, 67, 0
6, 34920, Note_on_c, 4, 69, 61
6, 34980, Note_on_c, 4, 69, 0
6, 34980, Note_on_c, 4, 66, 61
6, 35040, Note_on_c, 4, 66, 0
6, 35040, Note_on_c, 4, 71, 85
6, 35340, Note_on_c, 4, 71, 0
6, 35340, Note_on_c, 4, 71, 61
6, 35355, Note_on_c, 4, 71, 0
6, 35355, Note_on_c, 4, 72, 61
6, 35370, Note_on_c, 4, 72, 0
6, 35370, Note_on_c, 4, 69, 61
6, 35385, Note_on_c, 4, 69, 0
6, 35385, Note_on_c, 4, 71, 61
6, 35400, Note_on_c, 4, 71, 0
6, 35400, Note_on_c, 4, 72, 61
6, 35460, Note_on_c, 4, 72, 0
6, 35460, Note_on_c, 4, 69, 61
6, 35520, Note_on_c, 4, 69, 0
6, 35520, Note_on_c, 4, 74, 46
6, 35540, Note_on_c, 4, 74, 0
6, 35550, Note_on_c, 4, 74, 46
6, 35570, Note_on_c, 4, 74, 0
6, 35580, Note_on_c, 4, 74, 47
6, 35600, Note_on_c, 4, 74, 0
6, 35610, Note_on_c, 4, 74, 47
6, 35630, Note_on_c, 4, 74, 0
6, 35640, Note_on_c, 4, 74, 49
6, 35660, Note_on_c, 4, 74, 0
6, 35670, Note_on_c, 4, 74, 50
6, 35690, Note_on_c, 4, 74, 0
6, 35700, Note_on_c, 4, 74, 50
6, 35720, Note_on_c, 4, 74, 0
6, 35730, Note_on_c, 4, 74, 52
6, 35750, Note_on_c, 4, 74, 0
6, 35760, Note_on_c, 4, 76, 53
6, 35780, Note_on_c, 4, 76, 0
6, 35790, Note_on_c, 4, 76, 53
6, 35810, Note_on_c, 4, 76, 0
6, 35820, Note_on_c, 4, 76, 55
6, 35840, Note_on_c, 4, 76, 0
6, 35850, Note_on_c, 4, 76, 56
6, 35870, Note_on_c, 4, 76, 0
6, 35880, Note_on_c, 4, 78, 56
6, 35900, Note_on_c, 4, 78, 0
6, 35910, Note_on_c, 4, 78, 58
6, 35930, Note_on_c, 4, 78, 0
6, 35940, Note_on_c, 4, 78, 58
6, 35960, Note_on_c, 4, 78, 0
6, 35970, Note_on_c, 4, 78, 59
6, 35990, Note_on_c, 4, 78, 0
6, 36000, Note_on_c, 4, 79, 61
6, 36020, Note_on_c, 4, 79, 0
6, 36030, Note_on_c, 4, 79, 61
6, 36050, Note_on_c, 4, 79, 0
6, 36060, Note_on_c, 4, 79, 62
6, 36080, Note_on_c, 4, 79, 0
6, 36090, Note_on_c, 4, 79, 64
6, 36110, Note_on_c, 4, 79, 0
6, 36120, Note_on_c, 4, 81, 64
6, 36140, Note_on_c, 4, 81, 0
6, 36150, Note_on_c, 4, 81, 65
6, 36170, Note_on_c, 4, 81, 0
6, 36180, Note_on_c, 4, 81, 67
6, 36200, Note_on_c, 4, 81, 0
6, 36210, Note_on_c, 4, 81, 67
6, 36230, Note_on_c, 4, 81, 0
6, 36240, Note_on_c, 4, 83, 68
6, 36260, Note_on_c, 4, 83, 0
6, 36270, Note_on_c, 4, 83, 68
6, 36290, Note_on_c, 4, 83, 0
6, 36300, Note_on_c, 4, 83, 70
6, 36320, Note_on_c, 4, 83, 0
6, 36330, Note_on_c, 4, 83, 71
6, 36350, Note_on_c, 4, 83, 0
6, 36360, Note_on_c, 4, 85, 71
6, 36380, Note_on_c, 4, 85, 0
6, 36390, Note_on_c, 4, 85, 73
6, 36410, Note_on_c, 4, 85, 0
6, 36420, Note_on_c, 4, 85, 74
6, 36440, Note_on_c, 4, 85, 0
6, 36450, Note_on_c, 4, 85, 74
6, 36470, Note_on_c, 4, 85, 0
6, 36480, Note_on_c, 4, 86, 92
6, 36660, Note_on_c, 4, 86, 0
6, 36660, Note_on_c, 4, 81, 85
6, 36720, Note_on_c, 4, 81, 0
6, 36720, Note_on_c, 4, 85, 85
6, 36810, Note_on_c, 4, 85, 0
6, 36810, Note_on_c, 4, 81, 85
6, 36840, Note_on_c, 4, 81, 0
6, 36840, Note_on_c, 4, 85, 85
6, 36930, Note_on_c, 4, 85, 0
6, 36930, Note_on_c, 4, 81, 85
6, 36960, Note_on_c, 4, 81, 0
6, 36960, Note_on_c, 4, 86, 98
6, 37140, Note_on_c, 4, 86, 0
6, 37140, Note_on_c, 4, 81, 85
6, 37200, Note_on_c, 4, 81, 0
6, 37200, Note_on_c, 4, 85, 85
6, 37290, Note_on_c, 4, 85, 0
6, 37290, Note_on_c, 4, 81, 85
6, 37320, Note_on_c, 4, 81, 0
6, 37320, Note_on_c, 4, 85, 85
6, 37410, Note_on_c, 4, 85, 0
6, 37410, Note_on_c, 4, 81, 85
6, 37440, Note_on_c, 4, 81, 0
6, 37440, Note_on_c, 4, 86, 85
6, 37470, Note_on_c, 4, 86, 0
6, 37500, Note_on_c, 4, 78, 98
6, 37500, Note_on_c, 4, 86, 98
6, 37590, Note_on_c, 4, 86, 0
6, 37590, Note_on_c, 4, 78, 0
6, 37620, Note_on_c, 4, 78, 85
6, 37620, Note_on_c, 4, 86, 85
6, 37710, Note_on_c, 4, 86, 0
6, 37710, Note_on_c, 4, 78, 0
6, 37740, Note_on_c, 4, 78, 85
6, 37740, Note_on_c, 4, 86, 85
6, 37830, Note_on_c, 4, 86, 0
6, 37830, Note_on_c, 4, 78, 0
6, 37860, Note_on_c, 4, 78, 85
6, 37860, Note_on_c, 4, 86, 85
6, 37920, Note_on_c, 4, 78, 0
6, 37920, Note_on_c, 4, 76, 85
6, 37950, Note_on_c, 4, 76, 0
6, 37950, Note_on_c, 4, 86, 0
6, 37980, Note_on_c, 4, 76, 85
6, 37980, Note_on_c, 4, 86, 85
6, 38070, Note_on_c, 4, 86, 0
6, 38070, Note_on_c, 4, 76, 0
6, 38100, Note_on_c, 4, 76, 85
6, 38100, Note_on_c, 4, 86, 85
6, 38190, Note_on_c, 4, 86, 0
6, 38190, Note_on_c, 4, 76, 0
6, 38220, Note_on_c, 4, 76, 85
6, 38220, Note_on_c, 4, 86, 85
6, 38310, Note_on_c, 4, 86, 0
6, 38310, Note_on_c, 4, 76, 0
6, 38340, Note_on_c, 4, 76, 85
6, 38340, Note_on_c, 4, 86, 85
6, 38400, Note_on_c, 4, 86, 0
6, 38400, Note_on_c, 4, 76, 0
6, 38400, Note_on_c, 4, 76, 97
6, 38400, Note_on_c, 4, 85, 97
6, 38445, Note_on_c, 4, 85, 0
6, 38445, Note_on_c, 4, 76, 0
6, 38460, Note_on_c, 4, 81, 85
6, 38505, Note_on_c, 4, 81, 0
6, 38520, Note_on_c, 4, 86, 85
6, 38565, Note_on_c, 4, 86, 0
6, 38580, Note_on_c, 4, 81, 85
6, 38625, Note_on_c, 4, 81, 0
6, 38640, Note_on_c, 4, 85, 85
6, 38685, Note_on_c, 4, 85, 0
6, 38700, Note_on_c, 4, 81, 85
6, 38745, Note_on_c, 4, 81, 0
6, 38760, Note_on_c, 4, 86, 85
6, 38805, Note_on_c, 4, 86, 0
6, 38820, Note_on_c, 4, 81, 85
6, 38865, Note_on_c, 4, 81, 0
6, 38880, Note_on_c, 4, 85, 97
6, 38925, Note_on_c, 4, 85, 0
6, 38940, Note_on_c, 4, 69, 85
6, 38985, Note_on_c, 4, 69, 0
6, 39000, Note_on_c, 4, 69, 85
6, 39045, Note_on_c, 4, 69, 0
6, 39060, Note_on_c, 4, 69, 85
6, 39105, Note_on_c, 4, 69, 0
6, 39120, Note_on_c, 4, 69, 85
6, 39240, Note_on_c, 4, 69, 0
6, 39360, Note_on_c, 4, 81, 55
6, 39540, Note_on_c, 4, 81, 0
6, 39540, Note_on_c, 4, 79, 55
6, 39560, Note_on_c, 4, 79, 0
6, 39560, Note_on_c, 4, 78, 55
6, 39580, Note_on_c, 4, 78, 0
6, 39580, Note_on_c, 4, 76, 55
6, 39600, Note_on_c, 4, 76, 0
6, 39600, Note_on_c, 4, 74, 55
6, 39660, Note_on_c, 4, 74, 0
6, 39720, Note_on_c, 4, 83, 55
6, 39780, Note_on_c, 4, 83, 0
6, 39840, Note_on_c, 4, 79, 55
6, 39900, Note_on_c, 4, 79, 0
6, 39960, Note_on_c, 4, 76, 55
6, 40020, Note_on_c, 4, 76, 0
6, 40080, Note_on_c, 4, 81, 55
6, 40140, Note_on_c, 4, 81, 0
6, 40320, Note_on_c, 4, 78, 55
6, 40500, Note_on_c, 4, 78, 0
6, 40500, Note_on_c, 4, 76, 55
6, 40520, Note_on_c, 4, 76, 0
6, 40520, Note_on_c, 4, 74, 55
6, 40540, Note_on_c, 4, 74, 0
6, 40540, Note_on_c, 4, 73, 55
6, 40560, Note_on_c, 4, 73, 0
6, 40560, Note_on_c, 4, 71, 55
6, 40620, Note_on_c, 4, 71, 0
6, 40680, Note_on_c, 4, 79, 55
6, 40740, Note_on_c, 4, 79, 0
6, 40800, Note_on_c, 4, 78, 55
6, 41040, Note_on_c, 4, 78, 0
6, 41040, Note_on_c, 4, 76, 43
6, 41160, Note_on_c, 4, 76, 0
6, 41340, Note_on_c, 4, 81, 55
6, 41370, Note_on_c, 4, 81, 0
6, 41400, Note_on_c, 4, 81, 55
6, 41430, Note_on_c, 4, 81, 0
6, 41460, Note_on_c, 4, 81, 55
6, 41490, Note_on_c, 4, 81, 0
6, 41520, Note_on_c, 4, 81, 55
6, 41550, Note_on_c, 4, 81, 0
6, 41580, Note_on_c, 4, 81, 55
6, 41610, Note_on_c, 4, 81, 0
6, 41640, Note_on_c, 4, 81, 55
6, 41670, Note_on_c, 4, 81, 0
6, 41700, Note_on_c, 4, 81, 55
6, 41730, Note_on_c, 4, 81, 0
6, 41760, Note_on_c, 4, 81, 55
6, 41790, Note_on_c, 4, 81, 0
6, 41820, Note_on_c, 4, 81, 55
6, 41850, Note_on_c, 4, 81, 0
6, 41880, Note_on_c, 4, 81, 55
6, 41910, Note_on_c, 4, 81, 0
6, 41940, Note_on_c, 4, 81, 55
6, 41970, Note_on_c, 4, 81, 0
6, 42000, Note_on_c, 4, 81, 55
6, 42030, Note_on_c, 4, 81, 0
6, 42060, Note_on_c, 4, 81, 55
6, 42090, Note_on_c, 4, 81, 0
6, 42120, Note_on_c, 4, 83, 55
6, 42150, Note_on_c, 4, 83, 0
6, 42180, Note_on_c, 4, 85, 55
6, 42210, Note_on_c, 4, 85, 0
6, 42240, Note_on_c, 4, 85, 55
6, 42300, Note_on_c, 4, 85, 0
6, 42300, Note_on_c, 4, 86, 55
6, 42360, Note_on_c, 4, 86, 0
6, 42420, Note_on_c, 4, 83, 55
6, 42450, Note_on_c, 4, 83, 0
6, 42480, Note_on_c, 4, 83, 55
6, 42540, Note_on_c, 4, 83, 0
6, 42540, Note_on_c, 4, 81, 55
6, 42600, Note_on_c, 4, 81, 0
6, 42660, Note_on_c, 4, 73, 55
6, 42705, Note_on_c, 4, 73, 0
6, 42720, Note_on_c, 4, 74, 55
6, 42840, Note_on_c, 4, 74, 0
6, 42900, Note_on_c, 4, 81, 55
6, 42930, Note_on_c, 4, 81, 0
6, 42960, Note_on_c, 4, 86, 55
6, 43020, Note_on_c, 4, 86, 0
6, 43020, Note_on_c, 4, 85, 55
6, 43080, Note_on_c, 4, 85, 0
6, 43080, Note_on_c, 4, 83, 55
6, 43140, Note_on_c, 4, 83, 0
6, 43140, Note_on_c, 4, 81, 55
6, 43200, Note_on_c, 4, 81, 0
6, 43200, Note_on_c, 4, 83, 55
6, 43215, Note_on_c, 4, 83, 0
6, 43215, Note_on_c, 4, 85, 55
6, 43230, Note_on_c, 4, 85, 0
6, 43230, Note_on_c, 4, 83, 55
6, 43245, Note_on_c, 4, 83, 0
6, 43245, Note_on_c, 4, 85, 55
6, 43260, Note_on_c, 4, 85, 0
6, 43260, Note_on_c, 4, 81, 55
6, 43320, Note_on_c, 4, 81, 0
6, 43380, Note_on_c, 4, 81, 55
6, 43410, Note_on_c, 4, 81, 0
6, 43440, Note_on_c, 4, 81, 55
6, 43470, Note_on_c, 4, 81, 0
6, 43500, Note_on_c, 4, 81, 55
6, 43530, Note_on_c, 4, 81, 0
6, 43560, Note_on_c, 4, 81, 55
6, 43590, Note_on_c, 4, 81, 0
6, 43620, Note_on_c, 4, 81, 55
6, 43650, Note_on_c, 4, 81, 0
6, 43680, Note_on_c, 4, 83, 55
6, 43695, Note_on_c, 4, 83, 0
6, 43695, Note_on_c, 4, 85, 55
6, 43710, Note_on_c, 4, 85, 0
6, 43710, Note_on_c, 4, 83, 55
6, 43725, Note_on_c, 4, 83, 0
6, 43725, Note_on_c, 4, 85, 55
6, 43740, Note_on_c, 4, 85, 0
6, 43740, Note_on_c, 4, 81, 55
6, 43800, Note_on_c, 4, 81, 0
6, 43860, Note_on_c, 4, 81, 55
6, 43905, Note_on_c, 4, 81, 0
6, 43920, Note_on_c, 4, 86, 55
6, 43980, Note_on_c, 4, 86, 0
6, 43980, Note_on_c, 4, 85, 55
6, 44040, Note_on_c, 4, 85, 0
6, 44040, Note_on_c, 4, 83, 55
6, 44100, Note_on_c, 4, 83, 0
6, 44100, Note_on_c, 4, 81, 55
6, 44160, Note_on_c, 4, 81, 0
6, 44160, Note_on_c, 4, 83, 55
6, 44175, Note_on_c, 4, 83, 0
6, 44175, Note_on_c, 4, 85, 55
6, 44190, Note_on_c, 4, 85, 0
6, 44190, Note_on_c, 4, 83, 55
6, 44205, Note_on_c, 4, 83, 0
6, 44205, Note_on_c, 4, 85, 55
6, 44220, Note_on_c, 4, 85, 0
6, 44220, Note_on_c, 4, 81, 55
6, 44280, Note_on_c, 4, 81, 0
6, 44340, Note_on_c, 4, 81, 55
6, 44370, Note_on_c, 4, 81, 0
6, 44400, Note_on_c, 4, 81, 55
6, 44430, Note_on_c, 4, 81, 0
6, 44460, Note_on_c, 4, 81, 55
6, 44490, Note_on_c, 4, 81, 0
6, 44520, Note_on_c, 4, 81, 55
6, 44550, Note_on_c, 4, 81, 0
6, 44580, Note_on_c, 4, 81, 55
6, 44610, Note_on_c, 4, 81, 0
6, 44640, Note_on_c, 4, 83, 55
6, 44655, Note_on_c, 4, 83, 0
6, 44655, Note_on_c, 4, 85, 55
6, 44670, Note_on_c, 4, 85, 0
6, 44670, Note_on_c, 4, 83, 55
6, 44685, Note_on_c, 4, 83, 0
6, 44685, Note_on_c, 4, 85, 55
6, 44700, Note_on_c, 4, 85, 0
6, 44700, Note_on_c, 4, 81, 55
6, 44760, Note_on_c, 4, 81, 0
6, 44880, Note_on_c, 4, 71, 94
6, 44880, Note_on_c, 4, 83, 94
6, 45050, Note_on_c, 4, 83, 0
6, 45050, Note_on_c, 4, 71, 0
6, 45060, Note_on_c, 4, 81, 83
6, 45080, Note_on_c, 4, 81, 0
6, 45080, Note_on_c, 4, 79, 83
6, 45100, Note_on_c, 4, 79, 0
6, 45100, Note_on_c, 4, 78, 83
6, 45120, Note_on_c, 4, 78, 0
6, 45120, Note_on_c, 4, 79, 83
6, 45240, Note_on_c, 4, 79, 0
6, 45360, Note_on_c, 4, 81, 85
6, 45360, Note_on_c, 4, 69, 85
6, 45530, Note_on_c, 4, 69, 0
6, 45530, Note_on_c, 4, 81, 0
6, 45540, Note_on_c, 4, 79, 85
6, 45560, Note_on_c, 4, 79, 0
6, 45560, Note_on_c, 4, 78, 85
6, 45580, Note_on_c, 4, 78, 0
6, 45580, Note_on_c, 4, 76, 85
6, 45600, Note_on_c, 4, 76, 0
6, 45600, Note_on_c, 4, 78, 85
6, 45720, Note_on_c, 4, 78, 0
6, 45840, Note_on_c, 4, 83, 79
6, 45900, Note_on_c, 4, 83, 0
6, 45900, Note_on_c, 4, 85, 80
6, 45930, Note_on_c, 4, 85, 0
6, 45930, Note_on_c, 4, 86, 82
6, 45960, Note_on_c, 4, 86, 0
6, 45960, Note_on_c, 4, 85, 82
6, 46005, Note_on_c, 4, 85, 0
6, 46020, Note_on_c, 4, 83, 82
6, 46050, Note_on_c, 4, 83, 0
6, 46080, Note_on_c, 4, 83, 83
6, 46140, Note_on_c, 4, 83, 0
6, 46140, Note_on_c, 4, 81, 86
6, 46185, Note_on_c, 4, 81, 0
6, 46200, Note_on_c, 4, 78, 86
6, 46230, Note_on_c, 4, 78, 0
6, 46260, Note_on_c, 4, 81, 88
6, 46290, Note_on_c, 4, 81, 0
6, 46320, Note_on_c, 4, 81, 88
6, 46380, Note_on_c, 4, 81, 0
6, 46380, Note_on_c, 4, 79, 83
6, 46425, Note_on_c, 4, 79, 0
6, 46440, Note_on_c, 4, 78, 79
6, 46470, Note_on_c, 4, 78, 0
6, 46500, Note_on_c, 4, 76, 76
6, 46530, Note_on_c, 4, 76, 0
6, 46560, Note_on_c, 4, 74, 85
6, 46680, Note_on_c, 4, 74, 0
6, 46740, Note_on_c, 4, 81, 53
6, 46770, Note_on_c, 4, 81, 0
6, 46800, Note_on_c, 4, 86, 53
6, 46860, Note_on_c, 4, 86, 0
6, 46860, Note_on_c, 4, 85, 53
6, 46920, Note_on_c, 4, 85, 0
6, 46920, Note_on_c, 4, 83, 53
6, 46980, Note_on_c, 4, 83, 0
6, 46980, Note_on_c, 4, 81, 53
6, 47040, Note_on_c, 4, 81, 0
6, 47040, Note_on_c, 4, 83, 55
6, 47055, Note_on_c, 4, 83, 0
6, 47055, Note_on_c, 4, 85, 55
6, 47070, Note_on_c, 4, 85, 0
6, 47070, Note_on_c, 4, 83, 55
6, 47085, Note_on_c, 4, 83, 0
6, 47085, Note_on_c, 4, 85, 55
6, 47100, Note_on_c, 4, 85, 0
6, 47100, Note_on_c, 4, 81, 55
6, 47160, Note_on_c, 4, 81, 0
6, 47220, Note_on_c, 4, 81, 55
6, 47250, Note_on_c, 4, 81, 0
6, 47280, Note_on_c, 4, 81, 55
6, 47310, Note_on_c, 4, 81, 0
6, 47340, Note_on_c, 4, 81, 55
6, 47370, Note_on_c, 4, 81, 0
6, 47400, Note_on_c, 4, 81, 55
6, 47430, Note_on_c, 4, 81, 0
6, 47460, Note_on_c, 4, 81, 55
6, 47490, Note_on_c, 4, 81, 0
6, 47520, Note_on_c, 4, 83, 55
6, 47535, Note_on_c, 4, 83, 0
6, 47535, Note_on_c, 4, 85, 55
6, 47550, Note_on_c, 4, 85, 0
6, 47550, Note_on_c, 4, 83, 55
6, 47565, Note_on_c, 4, 83, 0
6, 47565, Note_on_c, 4, 85, 55
6, 47580, Note_on_c, 4, 85, 0
6, 47580, Note_on_c, 4, 81, 55
6, 47640, Note_on_c, 4, 81, 0
6, 47700, Note_on_c, 4, 81, 55
6, 47745, Note_on_c, 4, 81, 0
6, 47760, Note_on_c, 4, 86, 55
6, 47820, Note_on_c, 4, 86, 0
6, 47820, Note_on_c, 4, 85, 55
6, 47880, Note_on_c, 4, 85, 0
6, 47880, Note_on_c, 4, 83, 55
6, 47940, Note_on_c, 4, 83, 0
6, 47940, Note_on_c, 4, 81, 55
6, 48000, Note_on_c, 4, 81, 0
6, 48000, Note_on_c, 4, 83, 55
6, 48015, Note_on_c, 4, 83, 0
6, 48015, Note_on_c, 4, 85, 55
6, 48030, Note_on_c, 4, 85, 0
6, 48030, Note_on_c, 4, 83, 55
6, 48045, Note_on_c, 4, 83, 0
6, 48045, Note_on_c, 4, 85, 55
6, 48060, Note_on_c, 4, 85, 0
6, 48060, Note_on_c, 4, 81, 55
6, 48120, Note_on_c, 4, 81, 0
6, 48180, Note_on_c, 4, 81, 55
6, 48210, Note_on_c, 4, 81, 0
6, 48240, Note_on_c, 4, 81, 55
6, 48270, Note_on_c, 4, 81, 0
6, 48300, Note_on_c, 4, 81, 55
6, 48330, Note_on_c, 4, 81, 0
6, 48360, Note_on_c, 4, 81, 55
6, 48390, Note_on_c, 4, 81, 0
6, 48420, Note_on_c, 4, 81, 55
6, 48450, Note_on_c, 4, 81, 0
6, 48480, Note_on_c, 4, 83, 59
6, 48495, Note_on_c, 4, 83, 0
6, 48495, Note_on_c, 4, 85, 59
6, 48510, Note_on_c, 4, 85, 0
6, 48510, Note_on_c, 4, 83, 59
6, 48525, Note_on_c, 4, 83, 0
6, 48525, Note_on_c, 4, 85, 59
6, 48540, Note_on_c, 4, 85, 0
6, 48540, Note_on_c, 4, 81, 59
6, 48600, Note_on_c, 4, 81, 0
6, 48720, Note_on_c, 4, 71, 85
6, 48720, Note_on_c, 4, 83, 85
6, 48890, Note_on_c, 4, 83, 0
6, 48890, Note_on_c, 4, 71, 0
6, 48900, Note_on_c, 4, 81, 85
6, 48920, Note_on_c, 4, 81, 0
6, 48920, Note_on_c, 4, 79, 85
6, 48940, Note_on_c, 4, 79, 0
6, 48940, Note_on_c, 4, 78, 85
6, 48960, Note_on_c, 4, 78, 0
6, 48960, Note_on_c, 4, 79, 85
6, 49080, Note_on_c, 4, 79, 0
6, 49200, Note_on_c, 4, 81, 85
6, 49200, Note_on_c, 4, 69, 85
6, 49370, Note_on_c, 4, 69, 0
6, 49370, Note_on_c, 4, 81, 0
6, 49380, Note_on_c, 4, 79, 85
6, 49400, Note_on_c, 4, 79, 0
6, 49400, Note_on_c, 4, 78, 85
6, 49420, Note_on_c, 4, 78, 0
6, 49420, Note_on_c, 4, 76, 85
6, 49440, Note_on_c, 4, 76, 0
6, 49440, Note_on_c, 4, 78, 85
6, 49560, Note_on_c, 4, 78, 0
6, 49680, Note_on_c, 4, 83, 85
6, 49740, Note_on_c, 4, 83, 0
6, 49740, Note_on_c, 4, 85, 85
6, 49770, Note_on_c, 4, 85, 0
6, 49770, Note_on_c, 4, 86, 85
6, 49800, Note_on_c, 4, 86, 0
6, 49800, Note_on_c, 4, 85, 85
6, 49845, Note_on_c, 4, 85, 0
6, 49860, Note_on_c, 4, 83, 85
6, 49890, Note_on_c, 4, 83, 0
6, 49920, Note_on_c, 4, 83, 95
6, 49980, Note_on_c, 4, 83, 0
6, 49980, Note_on_c, 4, 81, 85
6, 50025, Note_on_c, 4, 81, 0
6, 50040, Note_on_c, 4, 78, 85
6, 50070, Note_on_c, 4, 78, 0
6, 50100, Note_on_c, 4, 81, 85
6, 50130, Note_on_c, 4, 81, 0
6, 50160, Note_on_c, 4, 81, 85
6, 50220, Note_on_c, 4, 81, 0
6, 50220, Note_on_c, 4, 79, 85
6, 50265, Note_on_c, 4, 79, 0
6, 50280, Note_on_c, 4, 78, 85
6, 50310, Note_on_c, 4, 78, 0
6, 50340, Note_on_c, 4, 76, 85
6, 50370, Note_on_c, 4, 76, 0
6, 50400, Note_on_c, 4, 74, 85
6, 50445, Note_on_c, 4, 74, 0
6, 50460, Note_on_c, 4, 69, 85
6, 50505, Note_on_c, 4, 69, 0
6, 50520, Note_on_c, 4, 71, 85
6, 50565, Note_on_c, 4, 71, 0
6, 50580, Note_on_c, 4, 73, 85
6, 50625, Note_on_c, 4, 73, 0
6, 50640, Note_on_c, 4, 74, 85
6, 50670, Note_on_c, 4, 74, 0
6, 50700, Note_on_c, 4, 74, 85
6, 50730, Note_on_c, 4, 74, 0
6, 50760, Note_on_c, 4, 76, 85
6, 50775, Note_on_c, 4, 76, 0
6, 50775, Note_on_c, 4, 78, 85
6, 50790, Note_on_c, 4, 78, 0
6, 50790, Note_on_c, 4, 76, 85
6, 50805, Note_on_c, 4, 76, 0
6, 50805, Note_on_c, 4, 78, 85
6, 50820, Note_on_c, 4, 78, 0
6, 50820, Note_on_c, 4, 74, 85
6, 50850, Note_on_c, 4, 74, 0
6, 50850, Note_on_c, 4, 76, 85
6, 50880, Note_on_c, 4, 76, 0
6, 50880, Note_on_c, 4, 78, 85
6, 50940, Note_on_c, 4, 78, 0
6, 50940, Note_on_c, 4, 73, 85
6, 50985, Note_on_c, 4, 73, 0
6, 51000, Note_on_c, 4, 74, 85
6, 51045, Note_on_c, 4, 74, 0
6, 51060, Note_on_c, 4, 76, 85
6, 51105, Note_on_c, 4, 76, 0
6, 51120, Note_on_c, 4, 78, 85
6, 51165, Note_on_c, 4, 78, 0
6, 51180, Note_on_c, 4, 78, 85
6, 51225, Note_on_c, 4, 78, 0
6, 51240, Note_on_c, 4, 79, 85
6, 51255, Note_on_c, 4, 79, 0
6, 51255, Note_on_c, 4, 81, 86
6, 51270, Note_on_c, 4, 81, 0
6, 51270, Note_on_c, 4, 79, 86
6, 51285, Note_on_c, 4, 79, 0
6, 51285, Note_on_c, 4, 81, 86
6, 51300, Note_on_c, 4, 81, 0
6, 51300, Note_on_c, 4, 78, 86
6, 51330, Note_on_c, 4, 78, 0
6, 51330, Note_on_c, 4, 79, 88
6, 51360, Note_on_c, 4, 79, 0
6, 51360, Note_on_c, 4, 81, 88
6, 51405, Note_on_c, 4, 81, 0
6, 51420, Note_on_c, 4, 81, 88
6, 51465, Note_on_c, 4, 81, 0
6, 51480, Note_on_c, 4, 82, 89
6, 51495, Note_on_c, 4, 82, 0
6, 51495, Note_on_c, 4, 83, 91
6, 51510, Note_on_c, 4, 83, 0
6, 51510, Note_on_c, 4, 82, 91
6, 51525, Note_on_c, 4, 82, 0
6, 51525, Note_on_c, 4, 83, 91
6, 51540, Note_on_c, 4, 83, 0
6, 51540, Note_on_c, 4, 80, 92
6, 51570, Note_on_c, 4, 80, 0
6, 51570, Note_on_c, 4, 82, 94
6, 51600, Note_on_c, 4, 82, 0
6, 51600, Note_on_c, 4, 83, 98
6, 51720, Note_on_c, 4, 83, 0
6, 51840, Note_on_c, 4, 71, 40
6, 52020, Note_on_c, 4, 71, 0
6, 52020, Note_on_c, 4, 76, 47
6, 52065, Note_on_c, 4, 76, 0
6, 52080, Note_on_c, 4, 74, 49
6, 52140, Note_on_c, 4, 74, 0
6, 52140, Note_on_c, 4, 73, 49
6, 52200, Note_on_c, 4, 73, 0
6, 52200, Note_on_c, 4, 71, 43
6, 52260, Note_on_c, 4, 71, 0
6, 52260, Note_on_c, 4, 69, 41
6, 52320, Note_on_c, 4, 69, 0
6, 52320, Note_on_c, 4, 74, 40
6, 52380, Note_on_c, 4, 74, 0
6, 52440, Note_on_c, 4, 78, 59
6, 52500, Note_on_c, 4, 78, 0
6, 52560, Note_on_c, 4, 74, 57
6, 52620, Note_on_c, 4, 74, 0
6, 52800, Note_on_c, 4, 62, 100
6, 52800, Note_on_c, 4, 74, 100
6, 52920, Note_on_c, 4, 74, 0
6, 52920, Note_on_c, 4, 62, 0
6, 52980, Note_on_c, 4, 69, 91
6, 53025, Note_on_c, 4, 69, 0
6, 53040, Note_on_c, 4, 74, 91
6, 53160, Note_on_c, 4, 74, 0
6, 53220, Note_on_c, 4, 69, 91
6, 53265, Note_on_c, 4, 69, 0
6, 53280, Note_on_c, 4, 74, 91
6, 53325, Note_on_c, 4, 74, 0
6, 53340, Note_on_c, 4, 69, 91
6, 53385, Note_on_c, 4, 69, 0
6, 53400, Note_on_c, 4, 74, 91
6, 53445, Note_on_c, 4, 74, 0
6, 53460, Note_on_c, 4, 78, 91
6, 53505, Note_on_c, 4, 78, 0
6, 53520, Note_on_c, 4, 81, 91
6, 53640, Note_on_c, 4, 81, 0
6, 53760, Note_on_c, 4, 81, 91
6, 53880, Note_on_c, 4, 81, 0
6, 53940, Note_on_c, 4, 78, 91
6, 53985, Note_on_c, 4, 78, 0
6, 54000, Note_on_c, 4, 81, 91
6, 54120, Note_on_c, 4, 81, 0
6, 54180, Note_on_c, 4, 78, 91
6, 54225, Note_on_c, 4, 78, 0
6, 54240, Note_on_c, 4, 81, 91
6, 54285, Note_on_c, 4, 81, 0
6, 54300, Note_on_c, 4, 78, 91
6, 54345, Note_on_c, 4, 78, 0
6, 54360, Note_on_c, 4, 75, 91
6, 54405, Note_on_c, 4, 75, 0
6, 54420, Note_on_c, 4, 78, 91
6, 54465, Note_on_c, 4, 78, 0
6, 54480, Note_on_c, 4, 71, 91
6, 54600, Note_on_c, 4, 71, 0
6, 54900, Note_on_c, 4, 79, 55
6, 54945, Note_on_c, 4, 79, 0
6, 54960, Note_on_c, 4, 84, 55
6, 55020, Note_on_c, 4, 84, 0
6, 55020, Note_on_c, 4, 83, 55
6, 55080, Note_on_c, 4, 83, 0
6, 55080, Note_on_c, 4, 81, 55
6, 55140, Note_on_c, 4, 81, 0
6, 55140, Note_on_c, 4, 79, 55
6, 55200, Note_on_c, 4, 79, 0
6, 55200, Note_on_c, 4, 81, 55
6, 55215, Note_on_c, 4, 81, 0
6, 55215, Note_on_c, 4, 83, 55
6, 55230, Note_on_c, 4, 83, 0
6, 55230, Note_on_c, 4, 81, 55
6, 55245, Note_on_c, 4, 81, 0
6, 55245, Note_on_c, 4, 83, 55
6, 55260, Note_on_c, 4, 83, 0
6, 55260, Note_on_c, 4, 79, 55
6, 55320, Note_on_c, 4, 79, 0
6, 55380, Note_on_c, 4, 79, 55
6, 55410, Note_on_c, 4, 79, 0
6, 55440, Note_on_c, 4, 79, 55
6, 55470, Note_on_c, 4, 79, 0
6, 55500, Note_on_c, 4, 79, 55
6, 55530, Note_on_c, 4, 79, 0
6, 55560, Note_on_c, 4, 79, 55
6, 55590, Note_on_c, 4, 79, 0
6, 55620, Note_on_c, 4, 79, 55
6, 55650, Note_on_c, 4, 79, 0
6, 55680, Note_on_c, 4, 81, 55
6, 55695, Note_on_c, 4, 81, 0
6, 55695, Note_on_c, 4, 83, 55
6, 55710, Note_on_c, 4, 83, 0
6, 55710, Note_on_c, 4, 81, 55
6, 55725, Note_on_c, 4, 81, 0
6, 55725, Note_on_c, 4, 83, 55
6, 55740, Note_on_c, 4, 83, 0
6, 55740, Note_on_c, 4, 79, 55
6, 55800, Note_on_c, 4, 79, 0
6, 55860, Note_on_c, 4, 79, 55
6, 55905, Note_on_c, 4, 79, 0
6, 55920, Note_on_c, 4, 84, 55
6, 55980, Note_on_c, 4, 84, 0
6, 55980, Note_on_c, 4, 83, 55
6, 56040, Note_on_c, 4, 83, 0
6, 56040, Note_on_c, 4, 81, 55
6, 56100, Note_on_c, 4, 81, 0
6, 56100, Note_on_c, 4, 79, 55
6, 56160, Note_on_c, 4, 79, 0
6, 56160, Note_on_c, 4, 81, 55
6, 56175, Note_on_c, 4, 81, 0
6, 56175, Note_on_c, 4, 83, 55
6, 56190, Note_on_c, 4, 83, 0
6, 56190, Note_on_c, 4, 81, 55
6, 56205, Note_on_c, 4, 81, 0
6, 56205, Note_on_c, 4, 83, 55
6, 56220, Note_on_c, 4, 83, 0
6, 56220, Note_on_c, 4, 79, 55
6, 56280, Note_on_c, 4, 79, 0
6, 56340, Note_on_c, 4, 79, 55
6, 56370, Note_on_c, 4, 79, 0
6, 56400, Note_on_c, 4, 79, 55
6, 56430, Note_on_c, 4, 79, 0
6, 56460, Note_on_c, 4, 79, 55
6, 56490, Note_on_c, 4, 79, 0
6, 56520, Note_on_c, 4, 79, 55
6, 56550, Note_on_c, 4, 79, 0
6, 56580, Note_on_c, 4, 79, 55
6, 56610, Note_on_c, 4, 79, 0
6, 56640, Note_on_c, 4, 81, 55
6, 56655, Note_on_c, 4, 81, 0
6, 56655, Note_on_c, 4, 83, 55
6, 56670, Note_on_c, 4, 83, 0
6, 56670, Note_on_c, 4, 81, 55
6, 56685, Note_on_c, 4, 81, 0
6, 56685, Note_on_c, 4, 83, 55
6, 56700, Note_on_c, 4, 83, 0
6, 56700, Note_on_c, 4, 79, 55
6, 56760, Note_on_c, 4, 79, 0
6, 56820, Note_on_c, 4, 79, 55
6, 56865, Note_on_c, 4, 79, 0
6, 56880, Note_on_c, 4, 84, 55
6, 56940, Note_on_c, 4, 84, 0
6, 56940, Note_on_c, 4, 83, 55
6, 57000, Note_on_c, 4, 83, 0
6, 57000, Note_on_c, 4, 81, 55
6, 57060, Note_on_c, 4, 81, 0
6, 57060, Note_on_c, 4, 79, 55
6, 57120, Note_on_c, 4, 79, 0
6, 57120, Note_on_c, 4, 81, 55
6, 57135, Note_on_c, 4, 81, 0
6, 57135, Note_on_c, 4, 83, 55
6, 57150, Note_on_c, 4, 83, 0
6, 57150, Note_on_c, 4, 81, 55
6, 57165, Note_on_c, 4, 81, 0
6, 57165, Note_on_c, 4, 83, 55
6, 57180, Note_on_c, 4, 83, 0
6, 57180, Note_on_c, 4, 80, 55
6, 57240, Note_on_c, 4, 80, 0
6, 57300, Note_on_c, 4, 80, 55
6, 57330, Note_on_c, 4, 80, 0
6, 57360, Note_on_c, 4, 80, 55
6, 57390, Note_on_c, 4, 80, 0
6, 57420, Note_on_c, 4, 80, 55
6, 57450, Note_on_c, 4, 80, 0
6, 57480, Note_on_c, 4, 80, 55
6, 57510, Note_on_c, 4, 80, 0
6, 57540, Note_on_c, 4, 80, 55
6, 57570, Note_on_c, 4, 80, 0
6, 57600, Note_on_c, 4, 83, 55
6, 57615, Note_on_c, 4, 83, 0
6, 57615, Note_on_c, 4, 84, 55
6, 57630, Note_on_c, 4, 84, 0
6, 57630, Note_on_c, 4, 83, 55
6, 57645, Note_on_c, 4, 83, 0
6, 57645, Note_on_c, 4, 84, 55
6, 57660, Note_on_c, 4, 84, 0
6, 57660, Note_on_c, 4, 81, 55
6, 57720, Note_on_c, 4, 81, 0
6, 57780, Note_on_c, 4, 81, 55
6, 57825, Note_on_c, 4, 81, 0
6, 57840, Note_on_c, 4, 84, 55
6, 57900, Note_on_c, 4, 84, 0
6, 57900, Note_on_c, 4, 82, 55
6, 57960, Note_on_c, 4, 82, 0
6, 57960, Note_on_c, 4, 81, 55
6, 58020, Note_on_c, 4, 81, 0
6, 58020, Note_on_c, 4, 79, 55
6, 58080, Note_on_c, 4, 79, 0
6, 58080, Note_on_c, 4, 79, 55
6, 58095, Note_on_c, 4, 79, 0
6, 58095, Note_on_c, 4, 81, 55
6, 58110, Note_on_c, 4, 81, 0
6, 58110, Note_on_c, 4, 79, 55
6, 58125, Note_on_c, 4, 79, 0
6, 58125, Note_on_c, 4, 81, 55
6, 58140, Note_on_c, 4, 81, 0
6, 58140, Note_on_c, 4, 78, 55
6, 58200, Note_on_c, 4, 78, 0
6, 58260, Note_on_c, 4, 78, 55
6, 58290, Note_on_c, 4, 78, 0
6, 58320, Note_on_c, 4, 78, 55
6, 58350, Note_on_c, 4, 78, 0
6, 58380, Note_on_c, 4, 78, 55
6, 58410, Note_on_c, 4, 78, 0
6, 58440, Note_on_c, 4, 78, 55
6, 58470, Note_on_c, 4, 78, 0
6, 58500, Note_on_c, 4, 78, 55
6, 58530, Note_on_c, 4, 78, 0
6, 58560, Note_on_c, 4, 81, 55
6, 58575, Note_on_c, 4, 81, 0
6, 58575, Note_on_c, 4, 82, 55
6, 58590, Note_on_c, 4, 82, 0
6, 58590, Note_on_c, 4, 81, 55
6, 58605, Note_on_c, 4, 81, 0
6, 58605, Note_on_c, 4, 82, 55
6, 58620, Note_on_c, 4, 82, 0
6, 58620, Note_on_c, 4, 79, 55
6, 58680, Note_on_c, 4, 79, 0
6, 58740, Note_on_c, 4, 75, 55
6, 58785, Note_on_c, 4, 75, 0
6, 58800, Note_on_c, 4, 79, 55
6, 58860, Note_on_c, 4, 79, 0
6, 58860, Note_on_c, 4, 77, 55
6, 58920, Note_on_c, 4, 77, 0
6, 58920, Note_on_c, 4, 76, 55
6, 58980, Note_on_c, 4, 76, 0
6, 58980, Note_on_c, 4, 74, 55
6, 59040, Note_on_c, 4, 74, 0
6, 59040, Note_on_c, 4, 74, 55
6, 59055, Note_on_c, 4, 74, 0
6, 59055, Note_on_c, 4, 75, 55
6, 59070, Note_on_c, 4, 75, 0
6, 59070, Note_on_c, 4, 74, 55
6, 59085, Note_on_c, 4, 74, 0
6, 59085, Note_on_c, 4, 75, 55
6, 59100, Note_on_c, 4, 75, 0
6, 59100, Note_on_c, 4, 73, 55
6, 59160, Note_on_c, 4, 73, 0
6, 59220, Note_on_c, 4, 73, 55
6, 59250, Note_on_c, 4, 73, 0
6, 59280, Note_on_c, 4, 73, 55
6, 59310, Note_on_c, 4, 73, 0
6, 59340, Note_on_c, 4, 73, 55
6, 59370, Note_on_c, 4, 73, 0
6, 59400, Note_on_c, 4, 73, 55
6, 59430, Note_on_c, 4, 73, 0
6, 59460, Note_on_c, 4, 73, 55
6, 59490, Note_on_c, 4, 73, 0
6, 59520, Note_on_c, 4, 76, 53
6, 59535, Note_on_c, 4, 76, 0
6, 59535, Note_on_c, 4, 78, 53
6, 59550, Note_on_c, 4, 78, 0
6, 59550, Note_on_c, 4, 76, 53
6, 59565, Note_on_c, 4, 76, 0
6, 59565, Note_on_c, 4, 78, 53
6, 59580, Note_on_c, 4, 78, 0
6, 59580, Note_on_c, 4, 74, 53
6, 59640, Note_on_c, 4, 74, 0
6, 59700, Note_on_c, 4, 62, 91
6, 59760, Note_on_c, 4, 62, 0
6, 59760, Note_on_c, 4, 64, 91
6, 59820, Note_on_c, 4, 64, 0
6, 59820, Note_on_c, 4, 66, 91
6, 59880, Note_on_c, 4, 66, 0
6, 59880, Note_on_c, 4, 67, 91
6, 59940, Note_on_c, 4, 67, 0
6, 59940, Note_on_c, 4, 69, 91
6, 60000, Note_on_c, 4, 69, 0
6, 60000, Note_on_c, 4, 72, 91
6, 60060, Note_on_c, 4, 72, 0
6, 60060, Note_on_c, 4, 70, 91
6, 60120, Note_on_c, 4, 70, 0
6, 60180, Note_on_c, 4, 66, 91
6, 60240, Note_on_c, 4, 66, 0
6, 60240, Note_on_c, 4, 67, 91
6, 60300, Note_on_c, 4, 67, 0
6, 60300, Note_on_c, 4, 69, 91
6, 60360, Note_on_c, 4, 69, 0
6, 60360, Note_on_c, 4, 70, 91
6, 60420, Note_on_c, 4, 70, 0
6, 60420, Note_on_c, 4, 73, 91
6, 60480, Note_on_c, 4, 73, 0
6, 60480, Note_on_c, 4, 76, 91
6, 60540, Note_on_c, 4, 76, 0
6, 60540, Note_on_c, 4, 74, 91
6, 60600, Note_on_c, 4, 74, 0
6, 60660, Note_on_c, 4, 74, 53
6, 60720, Note_on_c, 4, 74, 0
6, 60720, Note_on_c, 4, 76, 53
6, 60780, Note_on_c, 4, 76, 0
6, 60780, Note_on_c, 4, 78, 53
6, 60840, Note_on_c, 4, 78, 0
6, 60840, Note_on_c, 4, 79, 53
6, 60900, Note_on_c, 4, 79, 0
6, 60900, Note_on_c, 4, 81, 52
6, 60960, Note_on_c, 4, 81, 0
6, 60960, Note_on_c, 4, 82, 50
6, 61080, Note_on_c, 4, 82, 0
6, 61080, Note_on_c, 4, 83, 46
6, 61200, Note_on_c, 4, 83, 0
6, 61200, Note_on_c, 4, 84, 43
6, 61320, Note_on_c, 4, 84, 0
6, 61320, Note_on_c, 4, 85, 40
6, 61440, Note_on_c, 4, 85, 0
6, 61440, Note_on_c, 4, 86, 59
6, 62145, Note_on_c, 4, 86, 0
6, 62160, Note_on_c, 4, 78, 52
6, 62175, Note_on_c, 4, 78, 0
6, 62175, Note_on_c, 4, 79, 53
6, 62190, Note_on_c, 4, 79, 0
6, 62190, Note_on_c, 4, 78, 55
6, 62205, Note_on_c, 4, 78, 0
6, 62205, Note_on_c, 4, 79, 58
6, 62220, Note_on_c, 4, 79, 0
6, 62220, Note_on_c, 4, 78, 59
6, 62235, Note_on_c, 4, 78, 0
6, 62235, Note_on_c, 4, 79, 61
6, 62250, Note_on_c, 4, 79, 0
6, 62250, Note_on_c, 4, 78, 62
6, 62265, Note_on_c, 4, 78, 0
6, 62265, Note_on_c, 4, 79, 65
6, 62280, Note_on_c, 4, 79, 0
6, 62280, Note_on_c, 4, 78, 67
6, 62295, Note_on_c, 4, 78, 0
6, 62295, Note_on_c, 4, 79, 68
6, 62310, Note_on_c, 4, 79, 0
6, 62310, Note_on_c, 4, 78, 70
6, 62325, Note_on_c, 4, 78, 0
6, 62325, Note_on_c, 4, 79, 71
6, 62340, Note_on_c, 4, 79, 0
6, 62340, Note_on_c, 4, 76, 74
6, 62370, Note_on_c, 4, 76, 0
6, 62370, Note_on_c, 4, 78, 77
6, 62400, Note_on_c, 4, 78, 0
6, 62400, Note_on_c, 4, 79, 93
6, 62520, Note_on_c, 4, 79, 0
6, 62580, Note_on_c, 4, 74, 92
6, 62610, Note_on_c, 4, 74, 0
6, 62640, Note_on_c, 4, 79, 92
6, 62760, Note_on_c, 4, 79, 0
6, 62820, Note_on_c, 4, 74, 91
6, 62850, Note_on_c, 4, 74, 0
6, 62880, Note_on_c, 4, 79, 90
6, 62910, Note_on_c, 4, 79, 0
6, 62940, Note_on_c, 4, 74, 90
6, 62970, Note_on_c, 4, 74, 0
6, 63000, Note_on_c, 4, 79, 90
6, 63030, Note_on_c, 4, 79, 0
6, 63060, Note_on_c, 4, 83, 90
6, 63090, Note_on_c, 4, 83, 0
6, 63120, Note_on_c, 4, 86, 89
6, 63240, Note_on_c, 4, 86, 0
6, 63360, Note_on_c, 4, 84, 104
6, 63480, Note_on_c, 4, 84, 0
6, 63540, Note_on_c, 4, 81, 87
6, 63570, Note_on_c, 4, 81, 0
6, 63600, Note_on_c, 4, 84, 86
6, 63720, Note_on_c, 4, 84, 0
6, 63780, Note_on_c, 4, 81, 85
6, 63810, Note_on_c, 4, 81, 0
6, 63840, Note_on_c, 4, 84, 92
6, 63870, Note_on_c, 4, 84, 0
6, 63900, Note_on_c, 4, 81, 85
6, 63930, Note_on_c, 4, 81, 0
6, 63960, Note_on_c, 4, 78, 92
6, 63990, Note_on_c, 4, 78, 0
6, 64020, Note_on_c, 4, 81, 85
6, 64050, Note_on_c, 4, 81, 0
6, 64080, Note_on_c, 4, 74, 94
6, 64200, Note_on_c, 4, 74, 0
6, 64320, Note_on_c, 4, 62, 92
6, 64320, Note_on_c, 4, 79, 92
6, 64320, Note_on_c, 4, 71, 92
6, 64380, Note_on_c, 4, 71, 0
6, 64380, Note_on_c, 4, 79, 0
6, 64380, Note_on_c, 4, 62, 0
6, 64440, Note_on_c, 4, 79, 85
6, 64620, Note_on_c, 4, 79, 0
6, 64620, Note_on_c, 4, 83, 74
6, 64680, Note_on_c, 4, 83, 0
6, 64680, Note_on_c, 4, 81, 74
6, 64710, Note_on_c, 4, 81, 0
6, 64740, Note_on_c, 4, 79, 80
6, 64770, Note_on_c, 4, 79, 0
6, 64800, Note_on_c, 4, 79, 86
6, 64815, Note_on_c, 4, 79, 0
6, 64815, Note_on_c, 4, 81, 86
6, 64830, Note_on_c, 4, 81, 0
6, 64830, Note_on_c, 4, 79, 86
6, 64845, Note_on_c, 4, 79, 0
6, 64845, Note_on_c, 4, 81, 86
6, 64860, Note_on_c, 4, 81, 0
6, 64860, Note_on_c, 4, 78, 83
6, 64910, Note_on_c, 4, 78, 0
6, 64920, Note_on_c, 4, 78, 77
6, 65100, Note_on_c, 4, 78, 0
6, 65100, Note_on_c, 4, 81, 85
6, 65160, Note_on_c, 4, 81, 0
6, 65160, Note_on_c, 4, 84, 85
6, 65190, Note_on_c, 4, 84, 0
6, 65220, Note_on_c, 4, 78, 85
6, 65250, Note_on_c, 4, 78, 0
6, 65280, Note_on_c, 4, 81, 85
6, 65340, Note_on_c, 4, 81, 0
6, 65340, Note_on_c, 4, 79, 85
6, 65370, Note_on_c, 4, 79, 0
6, 65400, Note_on_c, 4, 79, 85
6, 65580, Note_on_c, 4, 79, 0
6, 65580, Note_on_c, 4, 83, 85
6, 65640, Note_on_c, 4, 83, 0
6, 65640, Note_on_c, 4, 81, 85
6, 65670, Note_on_c, 4, 81, 0
6, 65700, Note_on_c, 4, 79, 85
6, 65730, Note_on_c, 4, 79, 0
6, 65760, Note_on_c, 4, 79, 85
6, 65775, Note_on_c, 4, 79, 0
6, 65775, Note_on_c, 4, 81, 85
6, 65790, Note_on_c, 4, 81, 0
6, 65790, Note_on_c, 4, 79, 85
6, 65805, Note_on_c, 4, 79, 0
6, 65805, Note_on_c, 4, 81, 85
6, 65820, Note_on_c, 4, 81, 0
6, 65820, Note_on_c, 4, 78, 85
6, 65870, Note_on_c, 4, 78, 0
6, 65880, Note_on_c, 4, 78, 85
6, 66060, Note_on_c, 4, 78, 0
6, 66060, Note_on_c, 4, 81, 85
6, 66120, Note_on_c, 4, 81, 0
6, 66120, Note_on_c, 4, 84, 85
6, 66150, Note_on_c, 4, 84, 0
6, 66180, Note_on_c, 4, 78, 85
6, 66210, Note_on_c, 4, 78, 0
6, 66240, Note_on_c, 4, 79, 85
6, 66270, Note_on_c, 4, 79, 0
6, 66300, Note_on_c, 4, 79, 85
6, 66330, Note_on_c, 4, 79, 0
6, 66360, Note_on_c, 4, 79, 85
6, 66390, Note_on_c, 4, 79, 0
6, 66390, Note_on_c, 4, 78, 85
6, 66420, Note_on_c, 4, 78, 0
6, 66420, Note_on_c, 4, 76, 85
6, 66450, Note_on_c, 4, 76, 0
6, 66450, Note_on_c, 4, 78, 85
6, 66480, Note_on_c, 4, 78, 0
6, 66480, Note_on_c, 4, 79, 85
6, 66510, Note_on_c, 4, 79, 0
6, 66540, Note_on_c, 4, 79, 85
6, 66570, Note_on_c, 4, 79, 0
6, 66600, Note_on_c, 4, 83, 85
6, 66630, Note_on_c, 4, 83, 0
6, 66630, Note_on_c, 4, 81, 85
6, 66660, Note_on_c, 4, 81, 0
6, 66660, Note_on_c, 4, 79, 85
6, 66690, Note_on_c, 4, 79, 0
6, 66690, Note_on_c, 4, 81, 83
6, 66720, Note_on_c, 4, 81, 0
6, 66720, Note_on_c, 4, 83, 83
6, 66750, Note_on_c, 4, 83, 0
6, 66780, Note_on_c, 4, 83, 83
6, 66810, Note_on_c, 4, 83, 0
6, 66840, Note_on_c, 4, 86, 83
6, 66870, Note_on_c, 4, 86, 0
6, 66870, Note_on_c, 4, 84, 80
6, 66900, Note_on_c, 4, 84, 0
6, 66900, Note_on_c, 4, 83, 79
6, 66930, Note_on_c, 4, 83, 0
6, 66930, Note_on_c, 4, 84, 76
6, 66960, Note_on_c, 4, 84, 0
6, 66960, Note_on_c, 4, 86, 71
6, 67080, Note_on_c, 4, 86, 0
6, 67200, Note_on_c, 4, 74, 56
6, 67440, Note_on_c, 4, 74, 0
6, 67440, Note_on_c, 4, 76, 55
6, 67680, Note_on_c, 4, 76, 0
6, 67680, Note_on_c, 4, 74, 57
6, 67710, Note_on_c, 4, 74, 0
6, 67710, Note_on_c, 4, 72, 59
6, 67790, Note_on_c, 4, 72, 0
6, 67800, Note_on_c, 4, 72, 58
6, 67920, Note_on_c, 4, 72, 0
6, 67920, Note_on_c, 4, 72, 57
6, 67950, Note_on_c, 4, 72, 0
6, 67950, Note_on_c, 4, 71, 55
6, 68030, Note_on_c, 4, 71, 0
6, 68040, Note_on_c, 4, 71, 53
6, 68160, Note_on_c, 4, 71, 0
6, 68160, Note_on_c, 4, 71, 57
6, 68190, Note_on_c, 4, 71, 0
6, 68190, Note_on_c, 4, 69, 56
6, 68270, Note_on_c, 4, 69, 0
6, 68280, Note_on_c, 4, 69, 55
6, 68400, Note_on_c, 4, 69, 0
6, 68400, Note_on_c, 4, 67, 54
6, 68460, Note_on_c, 4, 67, 0
6, 68460, Note_on_c, 4, 66, 55
6, 68490, Note_on_c, 4, 66, 0
6, 68520, Note_on_c, 4, 64, 55
6, 68550, Note_on_c, 4, 64, 0
6, 68580, Note_on_c, 4, 66, 55
6, 68610, Note_on_c, 4, 66, 0
6, 68640, Note_on_c, 4, 67, 56
6, 68700, Note_on_c, 4, 67, 0
6, 68760, Note_on_c, 4, 69, 57
6, 68820, Note_on_c, 4, 69, 0
6, 68880, Note_on_c, 4, 71, 57
6, 68940, Note_on_c, 4, 71, 0
6, 69120, Note_on_c, 4, 74, 56
6, 69360, Note_on_c, 4, 74, 0
6, 69360, Note_on_c, 4, 76, 59
6, 69600, Note_on_c, 4, 76, 0
6, 69600, Note_on_c, 4, 74, 46
6, 69660, Note_on_c, 4, 74, 0
6, 69660, Note_on_c, 4, 72, 51
6, 69690, Note_on_c, 4, 72, 0
6, 69720, Note_on_c, 4, 72, 51
6, 69750, Note_on_c, 4, 72, 0
6, 69780, Note_on_c, 4, 72, 51
6, 69810, Note_on_c, 4, 72, 0
6, 69840, Note_on_c, 4, 72, 51
6, 69900, Note_on_c, 4, 72, 0
6, 69900, Note_on_c, 4, 71, 50
6, 69930, Note_on_c, 4, 71, 0
6, 69960, Note_on_c, 4, 71, 49
6, 69990, Note_on_c, 4, 71, 0
6, 70020, Note_on_c, 4, 71, 49
6, 70050, Note_on_c, 4, 71, 0
6, 70080, Note_on_c, 4, 71, 49
6, 70140, Note_on_c, 4, 71, 0
6, 70140, Note_on_c, 4, 69, 50
6, 70170, Note_on_c, 4, 69, 0
6, 70200, Note_on_c, 4, 69, 52
6, 70245, Note_on_c, 4, 69, 0
6, 70260, Note_on_c, 4, 69, 52
6, 70305, Note_on_c, 4, 69, 0
6, 70320, Note_on_c, 4, 67, 52
6, 70380, Note_on_c, 4, 67, 0
6, 70380, Note_on_c, 4, 66, 54
6, 70440, Note_on_c, 4, 66, 0
6, 70440, Note_on_c, 4, 64, 55
6, 70500, Note_on_c, 4, 64, 0
6, 70500, Note_on_c, 4, 66, 55
6, 70560, Note_on_c, 4, 66, 0
6, 70560, Note_on_c, 4, 55, 85
6, 70560, Note_on_c, 4, 67, 85
6, 70860, Note_on_c, 4, 67, 0
6, 70860, Note_on_c, 4, 55, 0
6, 70860, Note_on_c, 4, 67, 61
6, 70875, Note_on_c, 4, 67, 0
6, 70875, Note_on_c, 4, 69, 61
6, 70890, Note_on_c, 4, 69, 0
6, 70890, Note_on_c, 4, 66, 61
6, 70905, Note_on_c, 4, 66, 0
6, 70905, Note_on_c, 4, 67, 61
6, 70920, Note_on_c, 4, 67, 0
6, 70920, Note_on_c, 4, 69, 61
6, 70980, Note_on_c, 4, 69, 0
6, 70980, Note_on_c, 4, 66, 61
6, 71040, Note_on_c, 4, 66, 0
6, 71040, Note_on_c, 4, 71, 91
6, 71340, Note_on_c, 4, 71, 0
6, 71340, Note_on_c, 4, 71, 61
6, 71355, Note_on_c, 4, 71, 0
6, 71355, Note_on_c, 4, 72, 61
6, 71370, Note_on_c, 4, 72, 0
6, 71370, Note_on_c, 4, 69, 61
6, 71385, Note_on_c, 4, 69, 0
6, 71385, Note_on_c, 4, 71, 61
6, 71400, Note_on_c, 4, 71, 0
6, 71400, Note_on_c, 4, 72, 61
6, 71460, Note_on_c, 4, 72, 0
6, 71460, Note_on_c, 4, 69, 61
6, 71520, Note_on_c, 4, 69, 0
6, 71520, Note_on_c, 4, 74, 51
6, 71540, Note_on_c, 4, 74, 0
6, 71550, Note_on_c, 4, 74, 56
6, 71570, Note_on_c, 4, 74, 0
6, 71580, Note_on_c, 4, 74, 59
6, 71600, Note_on_c, 4, 74, 0
6, 71610, Note_on_c, 4, 74, 56
6, 71630, Note_on_c, 4, 74, 0
6, 71640, Note_on_c, 4, 74, 56
6, 71660, Note_on_c, 4, 74, 0
6, 71670, Note_on_c, 4, 74, 56
6, 71690, Note_on_c, 4, 74, 0
6, 71700, Note_on_c, 4, 74, 56
6, 71720, Note_on_c, 4, 74, 0
6, 71730, Note_on_c, 4, 74, 56
6, 71750, Note_on_c, 4, 74, 0
6, 71760, Note_on_c, 4, 76, 56
6, 71780, Note_on_c, 4, 76, 0
6, 71790, Note_on_c, 4, 76, 56
6, 71810, Note_on_c, 4, 76, 0
6, 71820, Note_on_c, 4, 76, 56
6, 71840, Note_on_c, 4, 76, 0
6, 71850, Note_on_c, 4, 76, 56
6, 71870, Note_on_c, 4, 76, 0
6, 71880, Note_on_c, 4, 78, 56
6, 71900, Note_on_c, 4, 78, 0
6, 71910, Note_on_c, 4, 78, 56
6, 71930, Note_on_c, 4, 78, 0
6, 71940, Note_on_c, 4, 78, 57
6, 71960, Note_on_c, 4, 78, 0
6, 71970, Note_on_c, 4, 78, 59
6, 71990, Note_on_c, 4, 78, 0
6, 72000, Note_on_c, 4, 79, 62
6, 72020, Note_on_c, 4, 79, 0
6, 72030, Note_on_c, 4, 79, 65
6, 72050, Note_on_c, 4, 79, 0
6, 72060, Note_on_c, 4, 79, 66
6, 72080, Note_on_c, 4, 79, 0
6, 72090, Note_on_c, 4, 79, 66
6, 72110, Note_on_c, 4, 79, 0
6, 72120, Note_on_c, 4, 81, 66
6, 72140, Note_on_c, 4, 81, 0
6, 72150, Note_on_c, 4, 81, 66
6, 72170, Note_on_c, 4, 81, 0
6, 72180, Note_on_c, 4, 81, 66
6, 72200, Note_on_c, 4, 81, 0
6, 72210, Note_on_c, 4, 81, 68
6, 72230, Note_on_c, 4, 81, 0
6, 72240, Note_on_c, 4, 83, 68
6, 72260, Note_on_c, 4, 83, 0
6, 72270, Note_on_c, 4, 83, 70
6, 72290, Note_on_c, 4, 83, 0
6, 72300, Note_on_c, 4, 83, 70
6, 72320, Note_on_c, 4, 83, 0
6, 72330, Note_on_c, 4, 83, 71
6, 72350, Note_on_c, 4, 83, 0
6, 72360, Note_on_c, 4, 85, 71
6, 72380, Note_on_c, 4, 85, 0
6, 72390, Note_on_c, 4, 85, 73
6, 72410, Note_on_c, 4, 85, 0
6, 72420, Note_on_c, 4, 85, 74
6, 72440, Note_on_c, 4, 85, 0
6, 72450, Note_on_c, 4, 85, 74
6, 72470, Note_on_c, 4, 85, 0
6, 72480, Note_on_c, 4, 86, 85
6, 72660, Note_on_c, 4, 86, 0
6, 72660, Note_on_c, 4, 81, 85
6, 72720, Note_on_c, 4, 81, 0
6, 72720, Note_on_c, 4, 85, 85
6, 72810, Note_on_c, 4, 85, 0
6, 72810, Note_on_c, 4, 81, 85
6, 72840, Note_on_c, 4, 81, 0
6, 72840, Note_on_c, 4, 85, 85
6, 72930, Note_on_c, 4, 85, 0
6, 72930, Note_on_c, 4, 81, 85
6, 72960, Note_on_c, 4, 81, 0
6, 72960, Note_on_c, 4, 86, 85
6, 73140, Note_on_c, 4, 86, 0
6, 73140, Note_on_c, 4, 81, 85
6, 73200, Note_on_c, 4, 81, 0
6, 73200, Note_on_c, 4, 85, 85
6, 73290, Note_on_c, 4, 85, 0
6, 73290, Note_on_c, 4, 81, 85
6, 73320, Note_on_c, 4, 81, 0
6, 73320, Note_on_c, 4, 85, 85
6, 73410, Note_on_c, 4, 85, 0
6, 73410, Note_on_c, 4, 81, 85
6, 73440, Note_on_c, 4, 81, 0
6, 73440, Note_on_c, 4, 86, 100
6, 73470, Note_on_c, 4, 86, 0
6, 73500, Note_on_c, 4, 81, 100
6, 73530, Note_on_c, 4, 81, 0
6, 73560, Note_on_c, 4, 85, 100
6, 73590, Note_on_c, 4, 85, 0
6, 73620, Note_on_c, 4, 81, 100
6, 73650, Note_on_c, 4, 81, 0
6, 73680, Note_on_c, 4, 86, 100
6, 73710, Note_on_c, 4, 86, 0
6, 73740, Note_on_c, 4, 81, 100
6, 73770, Note_on_c, 4, 81, 0
6, 73800, Note_on_c, 4, 85, 100
6, 73830, Note_on_c, 4, 85, 0
6, 73860, Note_on_c, 4, 81, 100
6, 73890, Note_on_c, 4, 81, 0
6, 73920, Note_on_c, 4, 86, 85
6, 73965, Note_on_c, 4, 86, 0
6, 73980, Note_on_c, 4, 62, 85
6, 74025, Note_on_c, 4, 62, 0
6, 74040, Note_on_c, 4, 62, 85
6, 74085, Note_on_c, 4, 62, 0
6, 74100, Note_on_c, 4, 62, 85
6, 74145, Note_on_c, 4, 62, 0
6, 74160, Note_on_c, 4, 62, 85
6, 74280, Note_on_c, 4, 62, 0
6, 74400, Note_on_c, 4, 74, 46
6, 74580, Note_on_c, 4, 74, 0
6, 74580, Note_on_c, 4, 72, 47
6, 74600, Note_on_c, 4, 72, 0
6, 74600, Note_on_c, 4, 71, 47
6, 74620, Note_on_c, 4, 71, 0
6, 74620, Note_on_c, 4, 69, 47
6, 74640, Note_on_c, 4, 69, 0
6, 74640, Note_on_c, 4, 67, 47
6, 74700, Note_on_c, 4, 67, 0
6, 74760, Note_on_c, 4, 76, 47
6, 74820, Note_on_c, 4, 76, 0
6, 74880, Note_on_c, 4, 72, 46
6, 74940, Note_on_c, 4, 72, 0
6, 75000, Note_on_c, 4, 69, 43
6, 75060, Note_on_c, 4, 69, 0
6, 75120, Note_on_c, 4, 74, 59
6, 75180, Note_on_c, 4, 74, 0
6, 75360, Note_on_c, 4, 83, 55
6, 75540, Note_on_c, 4, 83, 0
6, 75540, Note_on_c, 4, 81, 55
6, 75560, Note_on_c, 4, 81, 0
6, 75560, Note_on_c, 4, 79, 55
6, 75580, Note_on_c, 4, 79, 0
6, 75580, Note_on_c, 4, 78, 55
6, 75600, Note_on_c, 4, 78, 0
6, 75600, Note_on_c, 4, 76, 55
6, 75660, Note_on_c, 4, 76, 0
6, 75720, Note_on_c, 4, 84, 55
6, 75780, Note_on_c, 4, 84, 0
6, 75840, Note_on_c, 4, 83, 55
6, 76080, Note_on_c, 4, 83, 0
6, 76080, Note_on_c, 4, 81, 47
6, 76200, Note_on_c, 4, 81, 0
6, 76380, Note_on_c, 4, 86, 55
6, 76410, Note_on_c, 4, 86, 0
6, 76440, Note_on_c, 4, 86, 55
6, 76470, Note_on_c, 4, 86, 0
6, 76500, Note_on_c, 4, 86, 55
6, 76530, Note_on_c, 4, 86, 0
6, 76560, Note_on_c, 4, 86, 55
6, 76590, Note_on_c, 4, 86, 0
6, 76620, Note_on_c, 4, 86, 55
6, 76650, Note_on_c, 4, 86, 0
6, 76680, Note_on_c, 4, 86, 55
6, 76710, Note_on_c, 4, 86, 0
6, 76740, Note_on_c, 4, 86, 55
6, 76770, Note_on_c, 4, 86, 0
6, 76800, Note_on_c, 4, 86, 55
6, 76830, Note_on_c, 4, 86, 0
6, 76860, Note_on_c, 4, 86, 55
6, 76890, Note_on_c, 4, 86, 0
6, 76920, Note_on_c, 4, 86, 55
6, 76950, Note_on_c, 4, 86, 0
6, 76980, Note_on_c, 4, 86, 55
6, 77010, Note_on_c, 4, 86, 0
6, 77040, Note_on_c, 4, 86, 55
6, 77100, Note_on_c, 4, 86, 0
6, 77100, Note_on_c, 4, 84, 55
6, 77160, Note_on_c, 4, 84, 0
6, 77160, Note_on_c, 4, 79, 55
6, 77220, Note_on_c, 4, 79, 0
6, 77220, Note_on_c, 4, 78, 55
6, 77280, Note_on_c, 4, 78, 0
6, 77280, Note_on_c, 4, 78, 55
6, 77340, Note_on_c, 4, 78, 0
6, 77340, Note_on_c, 4, 79, 65
6, 77400, Note_on_c, 4, 79, 0
6, 77460, Note_on_c, 4, 76, 55
6, 77490, Note_on_c, 4, 76, 0
6, 77520, Note_on_c, 4, 76, 55
6, 77580, Note_on_c, 4, 76, 0
6, 77580, Note_on_c, 4, 74, 55
6, 77640, Note_on_c, 4, 74, 0
6, 77700, Note_on_c, 4, 66, 55
6, 77745, Note_on_c, 4, 66, 0
6, 77760, Note_on_c, 4, 67, 67
6, 77880, Note_on_c, 4, 67, 0
6, 77940, Note_on_c, 4, 74, 55
6, 77970, Note_on_c, 4, 74, 0
6, 78000, Note_on_c, 4, 79, 55
6, 78060, Note_on_c, 4, 79, 0
6, 78060, Note_on_c, 4, 78, 55
6, 78120, Note_on_c, 4, 78, 0
6, 78120, Note_on_c, 4, 76, 55
6, 78180, Note_on_c, 4, 76, 0
6, 78180, Note_on_c, 4, 74, 55
6, 78240, Note_on_c, 4, 74, 0
6, 78240, Note_on_c, 4, 76, 55
6, 78255, Note_on_c, 4, 76, 0
6, 78255, Note_on_c, 4, 78, 55
6, 78270, Note_on_c, 4, 78, 0
6, 78270, Note_on_c, 4, 76, 55
6, 78285, Note_on_c, 4, 76, 0
6, 78285, Note_on_c, 4, 78, 55
6, 78300, Note_on_c, 4, 78, 0
6, 78300, Note_on_c, 4, 74, 55
6, 78360, Note_on_c, 4, 74, 0
6, 78420, Note_on_c, 4, 74, 55
6, 78450, Note_on_c, 4, 74, 0
6, 78480, Note_on_c, 4, 74, 55
6, 78510, Note_on_c, 4, 74, 0
6, 78540, Note_on_c, 4, 74, 55
6, 78570, Note_on_c, 4, 74, 0
6, 78600, Note_on_c, 4, 74, 55
6, 78630, Note_on_c, 4, 74, 0
6, 78660, Note_on_c, 4, 74, 55
6, 78690, Note_on_c, 4, 74, 0
6, 78720, Note_on_c, 4, 76, 55
6, 78735, Note_on_c, 4, 76, 0
6, 78735, Note_on_c, 4, 78, 55
6, 78750, Note_on_c, 4, 78, 0
6, 78750, Note_on_c, 4, 76, 55
6, 78765, Note_on_c, 4, 76, 0
6, 78765, Note_on_c, 4, 78, 55
6, 78780, Note_on_c, 4, 78, 0
6, 78780, Note_on_c, 4, 74, 55
6, 78840, Note_on_c, 4, 74, 0
6, 78900, Note_on_c, 4, 74, 55
6, 78945, Note_on_c, 4, 74, 0
6, 78960, Note_on_c, 4, 79, 55
6, 79020, Note_on_c, 4, 79, 0
6, 79020, Note_on_c, 4, 78, 55
6, 79080, Note_on_c, 4, 78, 0
6, 79080, Note_on_c, 4, 76, 55
6, 79140, Note_on_c, 4, 76, 0
6, 79140, Note_on_c, 4, 74, 55
6, 79200, Note_on_c, 4, 74, 0
6, 79200, Note_on_c, 4, 76, 55
6, 79215, Note_on_c, 4, 76, 0
6, 79215, Note_on_c, 4, 78, 55
6, 79230, Note_on_c, 4, 78, 0
6, 79230, Note_on_c, 4, 76, 55
6, 79245, Note_on_c, 4, 76, 0
6, 79245, Note_on_c, 4, 78, 55
6, 79260, Note_on_c, 4, 78, 0
6, 79260, Note_on_c, 4, 74, 55
6, 79320, Note_on_c, 4, 74, 0
6, 79380, Note_on_c, 4, 74, 55
6, 79410, Note_on_c, 4, 74, 0
6, 79440, Note_on_c, 4, 74, 55
6, 79470, Note_on_c, 4, 74, 0
6, 79500, Note_on_c, 4, 74, 55
6, 79530, Note_on_c, 4, 74, 0
6, 79560, Note_on_c, 4, 74, 55
6, 79590, Note_on_c, 4, 74, 0
6, 79620, Note_on_c, 4, 74, 55
6, 79650, Note_on_c, 4, 74, 0
6, 79680, Note_on_c, 4, 76, 55
6, 79695, Note_on_c, 4, 76, 0
6, 79695, Note_on_c, 4, 78, 55
6, 79710, Note_on_c, 4, 78, 0
6, 79710, Note_on_c, 4, 76, 55
6, 79725, Note_on_c, 4, 76, 0
6, 79725, Note_on_c, 4, 78, 55
6, 79740, Note_on_c, 4, 78, 0
6, 79740, Note_on_c, 4, 74, 55
6, 79800, Note_on_c, 4, 74, 0
6, 79920, Note_on_c, 4, 64, 83
6, 79920, Note_on_c, 4, 76, 83
6, 80090, Note_on_c, 4, 76, 0
6, 80090, Note_on_c, 4, 64, 0
6, 80100, Note_on_c, 4, 74, 82
6, 80120, Note_on_c, 4, 74, 0
6, 80120, Note_on_c, 4, 72, 82
6, 80140, Note_on_c, 4, 72, 0
6, 80140, Note_on_c, 4, 71, 82
6, 80160, Note_on_c, 4, 71, 0
6, 80160, Note_on_c, 4, 72, 83
6, 80280, Note_on_c, 4, 72, 0
6, 80400, Note_on_c, 4, 74, 85
6, 80400, Note_on_c, 4, 62, 85
6, 80570, Note_on_c, 4, 62, 0
6, 80570, Note_on_c, 4, 74, 0
6, 80580, Note_on_c, 4, 72, 77
6, 80600, Note_on_c, 4, 72, 0
6, 80600, Note_on_c, 4, 71, 79
6, 80620, Note_on_c, 4, 71, 0
6, 80620, Note_on_c, 4, 69, 83
6, 80640, Note_on_c, 4, 69, 0
6, 80640, Note_on_c, 4, 71, 88
6, 80760, Note_on_c, 4, 71, 0
6, 80880, Note_on_c, 4, 76, 85
6, 80940, Note_on_c, 4, 76, 0
6, 80940, Note_on_c, 4, 78, 85
6, 80970, Note_on_c, 4, 78, 0
6, 80970, Note_on_c, 4, 79, 85
6, 81000, Note_on_c, 4, 79, 0
6, 81000, Note_on_c, 4, 78, 85
6, 81045, Note_on_c, 4, 78, 0
6, 81060, Note_on_c, 4, 76, 85
6, 81090, Note_on_c, 4, 76, 0
6, 81120, Note_on_c, 4, 76, 85
6, 81180, Note_on_c, 4, 76, 0
6, 81180, Note_on_c, 4, 74, 85
6, 81225, Note_on_c, 4, 74, 0
6, 81240, Note_on_c, 4, 71, 85
6, 81270, Note_on_c, 4, 71, 0
6, 81300, Note_on_c, 4, 74, 85
6, 81330, Note_on_c, 4, 74, 0
6, 81360, Note_on_c, 4, 74, 85
6, 81420, Note_on_c, 4, 74, 0
6, 81420, Note_on_c, 4, 72, 85
6, 81465, Note_on_c, 4, 72, 0
6, 81480, Note_on_c, 4, 71, 85
6, 81510, Note_on_c, 4, 71, 0
6, 81540, Note_on_c, 4, 69, 85
6, 81570, Note_on_c, 4, 69, 0
6, 81600, Note_on_c, 4, 67, 85
6, 81720, Note_on_c, 4, 67, 0
6, 81780, Note_on_c, 4, 74, 50
6, 81810, Note_on_c, 4, 74, 0
6, 81840, Note_on_c, 4, 79, 50
6, 81900, Note_on_c, 4, 79, 0
6, 81900, Note_on_c, 4, 78, 50
6, 81960, Note_on_c, 4, 78, 0
6, 81960, Note_on_c, 4, 76, 53
6, 82020, Note_on_c, 4, 76, 0
6, 82020, Note_on_c, 4, 74, 56
6, 82080, Note_on_c, 4, 74, 0
6, 82080, Note_on_c, 4, 76, 58
6, 82095, Note_on_c, 4, 76, 0
6, 82095, Note_on_c, 4, 78, 58
6, 82110, Note_on_c, 4, 78, 0
6, 82110, Note_on_c, 4, 76, 59
6, 82125, Note_on_c, 4, 76, 0
6, 82125, Note_on_c, 4, 78, 59
6, 82140, Note_on_c, 4, 78, 0
6, 82140, Note_on_c, 4, 74, 61
6, 82200, Note_on_c, 4, 74, 0
6, 82260, Note_on_c, 4, 74, 56
6, 82290, Note_on_c, 4, 74, 0
6, 82320, Note_on_c, 4, 74, 55
6, 82350, Note_on_c, 4, 74, 0
6, 82380, Note_on_c, 4, 74, 55
6, 82410, Note_on_c, 4, 74, 0
6, 82440, Note_on_c, 4, 74, 53
6, 82470, Note_on_c, 4, 74, 0
6, 82500, Note_on_c, 4, 74, 52
6, 82530, Note_on_c, 4, 74, 0
6, 82560, Note_on_c, 4, 76, 55
6, 82575, Note_on_c, 4, 76, 0
6, 82575, Note_on_c, 4, 78, 55
6, 82590, Note_on_c, 4, 78, 0
6, 82590, Note_on_c, 4, 76, 55
6, 82605, Note_on_c, 4, 76, 0
6, 82605, Note_on_c, 4, 78, 55
6, 82620, Note_on_c, 4, 78, 0
6, 82620, Note_on_c, 4, 74, 55
6, 82680, Note_on_c, 4, 74, 0
6, 82740, Note_on_c, 4, 74, 55
6, 82785, Note_on_c, 4, 74, 0
6, 82800, Note_on_c, 4, 79, 55
6, 82860, Note_on_c, 4, 79, 0
6, 82860, Note_on_c, 4, 78, 55
6, 82920, Note_on_c, 4, 78, 0
6, 82920, Note_on_c, 4, 76, 55
6, 82980, Note_on_c, 4, 76, 0
6, 82980, Note_on_c, 4, 74, 56
6, 83040, Note_on_c, 4, 74, 0
6, 83040, Note_on_c, 4, 76, 65
6, 83055, Note_on_c, 4, 76, 0
6, 83055, Note_on_c, 4, 78, 65
6, 83070, Note_on_c, 4, 78, 0
6, 83070, Note_on_c, 4, 76, 65
6, 83085, Note_on_c, 4, 76, 0
6, 83085, Note_on_c, 4, 78, 65
6, 83100, Note_on_c, 4, 78, 0
6, 83100, Note_on_c, 4, 74, 64
6, 83160, Note_on_c, 4, 74, 0
6, 83220, Note_on_c, 4, 74, 55
6, 83250, Note_on_c, 4, 74, 0
6, 83280, Note_on_c, 4, 74, 55
6, 83310, Note_on_c, 4, 74, 0
6, 83340, Note_on_c, 4, 74, 55
6, 83370, Note_on_c, 4, 74, 0
6, 83400, Note_on_c, 4, 74, 55
6, 83430, Note_on_c, 4, 74, 0
6, 83460, Note_on_c, 4, 74, 55
6, 83490, Note_on_c, 4, 74, 0
6, 83520, Note_on_c, 4, 76, 59
6, 83535, Note_on_c, 4, 76, 0
6, 83535, Note_on_c, 4, 78, 59
6, 83550, Note_on_c, 4, 78, 0
6, 83550, Note_on_c, 4, 76, 59
6, 83565, Note_on_c, 4, 76, 0
6, 83565, Note_on_c, 4, 78, 59
6, 83580, Note_on_c, 4, 78, 0
6, 83580, Note_on_c, 4, 74, 59
6, 83640, Note_on_c, 4, 74, 0
6, 83760, Note_on_c, 4, 88, 85
6, 83930, Note_on_c, 4, 88, 0
6, 83940, Note_on_c, 4, 86, 85
6, 83960, Note_on_c, 4, 86, 0
6, 83960, Note_on_c, 4, 84, 85
6, 83980, Note_on_c, 4, 84, 0
6, 83980, Note_on_c, 4, 83, 85
6, 84000, Note_on_c, 4, 83, 0
6, 84000, Note_on_c, 4, 84, 85
6, 84120, Note_on_c, 4, 84, 0
6, 84240, Note_on_c, 4, 86, 85
6, 84240, Note_on_c, 4, 74, 85
6, 84410, Note_on_c, 4, 74, 0
6, 84410, Note_on_c, 4, 86, 0
6, 84420, Note_on_c, 4, 84, 82
6, 84440, Note_on_c, 4, 84, 0
6, 84440, Note_on_c, 4, 83, 83
6, 84460, Note_on_c, 4, 83, 0
6, 84460, Note_on_c, 4, 81, 83
6, 84480, Note_on_c, 4, 81, 0
6, 84480, Note_on_c, 4, 83, 86
6, 84600, Note_on_c, 4, 83, 0
6, 84720, Note_on_c, 4, 76, 85
6, 84780, Note_on_c, 4, 76, 0
6, 84780, Note_on_c, 4, 78, 85
6, 84810, Note_on_c, 4, 78, 0
6, 84810, Note_on_c, 4, 79, 85
6, 84840, Note_on_c, 4, 79, 0
6, 84840, Note_on_c, 4, 78, 85
6, 84885, Note_on_c, 4, 78, 0
6, 84900, Note_on_c, 4, 76, 85
6, 84930, Note_on_c, 4, 76, 0
6, 84960, Note_on_c, 4, 74, 85
6, 84990, Note_on_c, 4, 74, 0
6, 85020, Note_on_c, 4, 79, 85
6, 85050, Note_on_c, 4, 79, 0
6, 85080, Note_on_c, 4, 83, 85
6, 85110, Note_on_c, 4, 83, 0
6, 85140, Note_on_c, 4, 86, 85
6, 85170, Note_on_c, 4, 86, 0
6, 85200, Note_on_c, 4, 86, 85
6, 85260, Note_on_c, 4, 86, 0
6, 85260, Note_on_c, 4, 84, 85
6, 85305, Note_on_c, 4, 84, 0
6, 85320, Note_on_c, 4, 83, 85
6, 85350, Note_on_c, 4, 83, 0
6, 85380, Note_on_c, 4, 81, 85
6, 85410, Note_on_c, 4, 81, 0
6, 85440, Note_on_c, 4, 79, 94
6, 85485, Note_on_c, 4, 79, 0
6, 85500, Note_on_c, 4, 62, 85
6, 85545, Note_on_c, 4, 62, 0
6, 85560, Note_on_c, 4, 64, 85
6, 85605, Note_on_c, 4, 64, 0
6, 85620, Note_on_c, 4, 66, 85
6, 85665, Note_on_c, 4, 66, 0
6, 85680, Note_on_c, 4, 67, 85
6, 85725, Note_on_c, 4, 67, 0
6, 85740, Note_on_c, 4, 67, 85
6, 85785, Note_on_c, 4, 67, 0
6, 85800, Note_on_c, 4, 69, 85
6, 85815, Note_on_c, 4, 69, 0
6, 85815, Note_on_c, 4, 71, 85
6, 85830, Note_on_c, 4, 71, 0
6, 85830, Note_on_c, 4, 69, 85
6, 85845, Note_on_c, 4, 69, 0
6, 85845, Note_on_c, 4, 71, 85
6, 85860, Note_on_c, 4, 71, 0
6, 85860, Note_on_c, 4, 67, 85
6, 85890, Note_on_c, 4, 67, 0
6, 85890, Note_on_c, 4, 69, 85
6, 85920, Note_on_c, 4, 69, 0
6, 85920, Note_on_c, 4, 71, 85
6, 85965, Note_on_c, 4, 71, 0
6, 85980, Note_on_c, 4, 66, 85
6, 86025, Note_on_c, 4, 66, 0
6, 86040, Note_on_c, 4, 67, 85
6, 86085, Note_on_c, 4, 67, 0
6, 86100, Note_on_c, 4, 69, 85
6, 86145, Note_on_c, 4, 69, 0
6, 86160, Note_on_c, 4, 71, 85
6, 86205, Note_on_c, 4, 71, 0
6, 86220, Note_on_c, 4, 71, 85
6, 86265, Note_on_c, 4, 71, 0
6, 86280, Note_on_c, 4, 72, 86
6, 86295, Note_on_c, 4, 72, 0
6, 86295, Note_on_c, 4, 74, 86
6, 86310, Note_on_c, 4, 74, 0
6, 86310, Note_on_c, 4, 72, 86
6, 86325, Note_on_c, 4, 72, 0
6, 86325, Note_on_c, 4, 74, 86
6, 86340, Note_on_c, 4, 74, 0
6, 86340, Note_on_c, 4, 71, 86
6, 86370, Note_on_c, 4, 71, 0
6, 86370, Note_on_c, 4, 72, 89
6, 86400, Note_on_c, 4, 72, 0
6, 86400, Note_on_c, 4, 74, 89
6, 86445, Note_on_c, 4, 74, 0
6, 86460, Note_on_c, 4, 74, 91
6, 86505, Note_on_c, 4, 74, 0
6, 86520, Note_on_c, 4, 75, 91
6, 86535, Note_on_c, 4, 75, 0
6, 86535, Note_on_c, 4, 76, 91
6, 86550, Note_on_c, 4, 76, 0
6, 86550, Note_on_c, 4, 75, 91
6, 86565, Note_on_c, 4, 75, 0
6, 86565, Note_on_c, 4, 76, 92
6, 86580, Note_on_c, 4, 76, 0
6, 86580, Note_on_c, 4, 73, 94
6, 86610, Note_on_c, 4, 73, 0
6, 86610, Note_on_c, 4, 75, 97
6, 86640, Note_on_c, 4, 75, 0
6, 86640, Note_on_c, 4, 76, 98
6, 86760, Note_on_c, 4, 76, 0
6, 86880, Note_on_c, 4, 64, 61
6, 87060, Note_on_c, 4, 64, 0
6, 87060, Note_on_c, 4, 69, 61
6, 87105, Note_on_c, 4, 69, 0
6, 87120, Note_on_c, 4, 67, 61
6, 87180, Note_on_c, 4, 67, 0
6, 87180, Note_on_c, 4, 66, 62
6, 87240, Note_on_c, 4, 66, 0
6, 87240, Note_on_c, 4, 64, 62
6, 87300, Note_on_c, 4, 64, 0
6, 87300, Note_on_c, 4, 62, 62
6, 87345, Note_on_c, 4, 62, 0
6, 87360, Note_on_c, 4, 74, 62
6, 87420, Note_on_c, 4, 74, 0
6, 87420, Note_on_c, 4, 73, 62
6, 87480, Note_on_c, 4, 73, 0
6, 87480, Note_on_c, 4, 72, 62
6, 87540, Note_on_c, 4, 72, 0
6, 87540, Note_on_c, 4, 71, 62
6, 87600, Note_on_c, 4, 71, 0
6, 87600, Note_on_c, 4, 74, 61
6, 87660, Note_on_c, 4, 74, 0
6, 87660, Note_on_c, 4, 73, 61
6, 87720, Note_on_c, 4, 73, 0
6, 87720, Note_on_c, 4, 72, 61
6, 87780, Note_on_c, 4, 72, 0
6, 87780, Note_on_c, 4, 71, 59
6, 87825, Note_on_c, 4, 71, 0
6, 87840, Note_on_c, 4, 64, 61
6, 88020, Note_on_c, 4, 64, 0
6, 88020, Note_on_c, 4, 69, 67
6, 88065, Note_on_c, 4, 69, 0
6, 88080, Note_on_c, 4, 67, 70
6, 88140, Note_on_c, 4, 67, 0
6, 88140, Note_on_c, 4, 66, 70
6, 88200, Note_on_c, 4, 66, 0
6, 88200, Note_on_c, 4, 64, 70
6, 88260, Note_on_c, 4, 64, 0
6, 88260, Note_on_c, 4, 62, 70
6, 88305, Note_on_c, 4, 62, 0
6, 88320, Note_on_c, 4, 74, 70
6, 88380, Note_on_c, 4, 74, 0
6, 88380, Note_on_c, 4, 76, 70
6, 88440, Note_on_c, 4, 76, 0
6, 88440, Note_on_c, 4, 78, 70
6, 88500, Note_on_c, 4, 78, 0
6, 88500, Note_on_c, 4, 79, 70
6, 88560, Note_on_c, 4, 79, 0
6, 88560, Note_on_c, 4, 74, 70
6, 88620, Note_on_c, 4, 74, 0
6, 88620, Note_on_c, 4, 76, 70
6, 88680, Note_on_c, 4, 76, 0
6, 88680, Note_on_c, 4, 78, 70
6, 88740, Note_on_c, 4, 78, 0
6, 88740, Note_on_c, 4, 79, 76
6, 88785, Note_on_c, 4, 79, 0
6, 88800, Note_on_c, 4, 81, 75
6, 88920, Note_on_c, 4, 81, 0
6, 89040, Note_on_c, 4, 74, 91
6, 89040, Note_on_c, 4, 86, 91
6, 89160, Note_on_c, 4, 86, 0
6, 89160, Note_on_c, 4, 74, 0
6, 89280, Note_on_c, 4, 62, 96
6, 89280, Note_on_c, 4, 71, 96
6, 89280, Note_on_c, 4, 79, 96
6, 89400, Note_on_c, 4, 79, 0
6, 89400, Note_on_c, 4, 71, 0
6, 89400, Note_on_c, 4, 62, 0
6, 89460, Note_on_c, 4, 74, 95
6, 89505, Note_on_c, 4, 74, 0
6, 89520, Note_on_c, 4, 71, 94
6, 89565, Note_on_c, 4, 71, 0
6, 89580, Note_on_c, 4, 67, 90
6, 89625, Note_on_c, 4, 67, 0
6, 89640, Note_on_c, 4, 71, 90
6, 89685, Note_on_c, 4, 71, 0
6, 89700, Note_on_c, 4, 74, 89
6, 89745, Note_on_c, 4, 74, 0
6, 89760, Note_on_c, 4, 79, 88
6, 89805, Note_on_c, 4, 79, 0
6, 89820, Note_on_c, 4, 74, 88
6, 89865, Note_on_c, 4, 74, 0
6, 89880, Note_on_c, 4, 79, 88
6, 89925, Note_on_c, 4, 79, 0
6, 89940, Note_on_c, 4, 83, 90
6, 89985, Note_on_c, 4, 83, 0
6, 90000, Note_on_c, 4, 86, 92
6, 90100, Note_on_c, 4, 86, 0
6, 90120, Note_on_c, 4, 62, 95
6, 90120, Note_on_c, 4, 69, 95
6, 90120, Note_on_c, 4, 78, 95
6, 90220, Note_on_c, 4, 78, 0
6, 90220, Note_on_c, 4, 69, 0
6, 90220, Note_on_c, 4, 62, 0
6, 90240, Note_on_c, 4, 62, 100
6, 90240, Note_on_c, 4, 71, 100
6, 90240, Note_on_c, 4, 79, 100
6, 90360, Note_on_c, 4, 79, 0
6, 90360, Note_on_c, 4, 71, 0
6, 90360, Note_on_c, 4, 62, 0
6, 90420, Note_on_c, 4, 74, 98
6, 90465, Note_on_c, 4, 74, 0
6, 90480, Note_on_c, 4, 71, 98
6, 90525, Note_on_c, 4, 71, 0
6, 90540, Note_on_c, 4, 67, 95
6, 90585, Note_on_c, 4, 67, 0
6, 90600, Note_on_c, 4, 71, 94
6, 90645, Note_on_c, 4, 71, 0
6, 90660, Note_on_c, 4, 74, 92
6, 90705, Note_on_c, 4, 74, 0
6, 90720, Note_on_c, 4, 79, 91
6, 90765, Note_on_c, 4, 79, 0
6, 90780, Note_on_c, 4, 74, 91
6, 90825, Note_on_c, 4, 74, 0
6, 90840, Note_on_c, 4, 79, 92
6, 90885, Note_on_c, 4, 79, 0
6, 90900, Note_on_c, 4, 83, 92
6, 90945, Note_on_c, 4, 83, 0
6, 90960, Note_on_c, 4, 86, 96
6, 91060, Note_on_c, 4, 86, 0
6, 91080, Note_on_c, 4, 62, 99
6, 91080, Note_on_c, 4, 69, 99
6, 91080, Note_on_c, 4, 78, 99
6, 91180, Note_on_c, 4, 78, 0
6, 91180, Note_on_c, 4, 69, 0
6, 91180, Note_on_c, 4, 62, 0
6, 91200, Note_on_c, 4, 62, 109
6, 91200, Note_on_c, 4, 71, 109
6, 91200, Note_on_c, 4, 79, 109
6, 91320, Note_on_c, 4, 79, 0
6, 91320, Note_on_c, 4, 71, 0
6, 91320, Note_on_c, 4, 62, 0
6, 91440, Note_on_c, 4, 62, 106
6, 91440, Note_on_c, 4, 71, 106
6, 91440, Note_on_c, 4, 79, 106
6, 91560, Note_on_c, 4, 79, 0
6, 91560, Note_on_c, 4, 71, 0
6, 91560, Note_on_c, 4, 62, 0
6, 91680, Note_on_c, 4, 62, 106
6, 91680, Note_on_c, 4, 71, 106
6, 91680, Note_on_c, 4, 79, 106
6, 91780, Note_on_c, 4, 79, 0
6, 91780, Note_on_c, 4, 71, 0
6, 91780, Note_on_c, 4, 62, 0
6, 91800, Note_on_c, 4, 55, 110
6, 91800, Note_on_c, 4, 67, 110
6, 91860, Note_on_c, 4, 67, 0
6, 91860, Note_on_c, 4, 55, 0
6, 91890, Note_on_c, 4, 55, 109
6, 91890, Note_on_c, 4, 67, 109
6, 91905, Note_on_c, 4, 67, 0
6, 91905, Note_on_c, 4, 55, 0
6, 91920, Note_on_c, 4, 55, 108
6, 91920, Note_on_c, 4, 67, 108
6, 92040, Note_on_c, 4, 67, 0
6, 92040, Note_on_c, 4, 55, 0
6, 92040, End_track
7, 0, Start_track
7, 0, MIDI_port, 0
7, 0, Title_t, "Mozart"""
7, 0, Program_c, 5, 42
7, 0, Control_c, 5, 7, 95
7, 0, Control_c, 5, 10, 70
7, 10, Note_on_c, 5, 79, 85
7, 10, Note_on_c, 5, 71, 85
7, 10, Note_on_c, 5, 62, 85
7, 130, Note_on_c, 5, 62, 0
7, 130, Note_on_c, 5, 71, 0
7, 130, Note_on_c, 5, 79, 0
7, 190, Note_on_c, 5, 74, 85
7, 220, Note_on_c, 5, 74, 0
7, 250, Note_on_c, 5, 79, 85
7, 370, Note_on_c, 5, 79, 0
7, 430, Note_on_c, 5, 74, 85
7, 460, Note_on_c, 5, 74, 0
7, 490, Note_on_c, 5, 79, 85
7, 520, Note_on_c, 5, 79, 0
7, 550, Note_on_c, 5, 74, 85
7, 580, Note_on_c, 5, 74, 0
7, 610, Note_on_c, 5, 79, 85
7, 640, Note_on_c, 5, 79, 0
7, 670, Note_on_c, 5, 83, 85
7, 700, Note_on_c, 5, 83, 0
7, 730, Note_on_c, 5, 86, 85
7, 850, Note_on_c, 5, 86, 0
7, 970, Note_on_c, 5, 84, 85
7, 1090, Note_on_c, 5, 84, 0
7, 1150, Note_on_c, 5, 81, 85
7, 1180, Note_on_c, 5, 81, 0
7, 1210, Note_on_c, 5, 84, 85
7, 1330, Note_on_c, 5, 84, 0
7, 1390, Note_on_c, 5, 81, 85
7, 1420, Note_on_c, 5, 81, 0
7, 1450, Note_on_c, 5, 84, 85
7, 1480, Note_on_c, 5, 84, 0
7, 1510, Note_on_c, 5, 81, 85
7, 1540, Note_on_c, 5, 81, 0
7, 1570, Note_on_c, 5, 78, 85
7, 1600, Note_on_c, 5, 78, 0
7, 1630, Note_on_c, 5, 81, 85
7, 1660, Note_on_c, 5, 81, 0
7, 1690, Note_on_c, 5, 74, 85
7, 1810, Note_on_c, 5, 74, 0
7, 1920, Note_on_c, 5, 59, 85
7, 1920, Note_on_c, 5, 62, 85
7, 1940, Note_on_c, 5, 62, 0
7, 1940, Note_on_c, 5, 59, 0
7, 1950, Note_on_c, 5, 59, 85
7, 1950, Note_on_c, 5, 62, 85
7, 1970, Note_on_c, 5, 62, 0
7, 1970, Note_on_c, 5, 59, 0
7, 1980, Note_on_c, 5, 59, 85
7, 1980, Note_on_c, 5, 62, 85
7, 2000, Note_on_c, 5, 62, 0
7, 2000, Note_on_c, 5, 59, 0
7, 2010, Note_on_c, 5, 59, 85
7, 2010, Note_on_c, 5, 62, 85
7, 2030, Note_on_c, 5, 62, 0
7, 2030, Note_on_c, 5, 59, 0
7, 2040, Note_on_c, 5, 59, 85
7, 2040, Note_on_c, 5, 62, 85
7, 2060, Note_on_c, 5, 62, 0
7, 2060, Note_on_c, 5, 59, 0
7, 2070, Note_on_c, 5, 59, 85
7, 2070, Note_on_c, 5, 62, 85
7, 2090, Note_on_c, 5, 62, 0
7, 2090, Note_on_c, 5, 59, 0
7, 2100, Note_on_c, 5, 59, 85
7, 2100, Note_on_c, 5, 62, 85
7, 2120, Note_on_c, 5, 62, 0
7, 2120, Note_on_c, 5, 59, 0
7, 2130, Note_on_c, 5, 59, 85
7, 2130, Note_on_c, 5, 62, 85
7, 2150, Note_on_c, 5, 62, 0
7, 2150, Note_on_c, 5, 59, 0
7, 2160, Note_on_c, 5, 59, 85
7, 2160, Note_on_c, 5, 62, 85
7, 2180, Note_on_c, 5, 62, 0
7, 2180, Note_on_c, 5, 59, 0
7, 2190, Note_on_c, 5, 59, 85
7, 2190, Note_on_c, 5, 62, 85
7, 2210, Note_on_c, 5, 62, 0
7, 2210, Note_on_c, 5, 59, 0
7, 2220, Note_on_c, 5, 59, 85
7, 2220, Note_on_c, 5, 62, 85
7, 2240, Note_on_c, 5, 62, 0
7, 2240, Note_on_c, 5, 59, 0
7, 2250, Note_on_c, 5, 59, 85
7, 2250, Note_on_c, 5, 62, 85
7, 2270, Note_on_c, 5, 62, 0
7, 2270, Note_on_c, 5, 59, 0
7, 2280, Note_on_c, 5, 59, 85
7, 2280, Note_on_c, 5, 62, 85
7, 2300, Note_on_c, 5, 62, 0
7, 2300, Note_on_c, 5, 59, 0
7, 2310, Note_on_c, 5, 59, 85
7, 2310, Note_on_c, 5, 62, 85
7, 2330, Note_on_c, 5, 62, 0
7, 2330, Note_on_c, 5, 59, 0
7, 2340, Note_on_c, 5, 59, 85
7, 2340, Note_on_c, 5, 62, 85
7, 2360, Note_on_c, 5, 62, 0
7, 2360, Note_on_c, 5, 59, 0
7, 2370, Note_on_c, 5, 59, 85
7, 2370, Note_on_c, 5, 62, 85
7, 2390, Note_on_c, 5, 62, 0
7, 2390, Note_on_c, 5, 59, 0
7, 2400, Note_on_c, 5, 60, 85
7, 2400, Note_on_c, 5, 62, 85
7, 2420, Note_on_c, 5, 62, 0
7, 2420, Note_on_c, 5, 60, 0
7, 2430, Note_on_c, 5, 60, 85
7, 2430, Note_on_c, 5, 62, 85
7, 2450, Note_on_c, 5, 62, 0
7, 2450, Note_on_c, 5, 60, 0
7, 2460, Note_on_c, 5, 60, 85
7, 2460, Note_on_c, 5, 62, 85
7, 2480, Note_on_c, 5, 62, 0
7, 2480, Note_on_c, 5, 60, 0
7, 2490, Note_on_c, 5, 60, 85
7, 2490, Note_on_c, 5, 62, 85
7, 2510, Note_on_c, 5, 62, 0
7, 2510, Note_on_c, 5, 60, 0
7, 2520, Note_on_c, 5, 60, 85
7, 2520, Note_on_c, 5, 62, 85
7, 2540, Note_on_c, 5, 62, 0
7, 2540, Note_on_c, 5, 60, 0
7, 2550, Note_on_c, 5, 60, 85
7, 2550, Note_on_c, 5, 62, 85
7, 2570, Note_on_c, 5, 62, 0
7, 2570, Note_on_c, 5, 60, 0
7, 2580, Note_on_c, 5, 60, 85
7, 2580, Note_on_c, 5, 62, 85
7, 2600, Note_on_c, 5, 62, 0
7, 2600, Note_on_c, 5, 60, 0
7, 2610, Note_on_c, 5, 60, 85
7, 2610, Note_on_c, 5, 62, 85
7, 2630, Note_on_c, 5, 62, 0
7, 2630, Note_on_c, 5, 60, 0
7, 2640, Note_on_c, 5, 60, 85
7, 2640, Note_on_c, 5, 62, 85
7, 2660, Note_on_c, 5, 62, 0
7, 2660, Note_on_c, 5, 60, 0
7, 2670, Note_on_c, 5, 60, 85
7, 2670, Note_on_c, 5, 62, 85
7, 2690, Note_on_c, 5, 62, 0
7, 2690, Note_on_c, 5, 60, 0
7, 2700, Note_on_c, 5, 60, 85
7, 2700, Note_on_c, 5, 62, 85
7, 2720, Note_on_c, 5, 62, 0
7, 2720, Note_on_c, 5, 60, 0
7, 2730, Note_on_c, 5, 60, 85
7, 2730, Note_on_c, 5, 62, 85
7, 2750, Note_on_c, 5, 62, 0
7, 2750, Note_on_c, 5, 60, 0
7, 2760, Note_on_c, 5, 60, 85
7, 2760, Note_on_c, 5, 62, 85
7, 2780, Note_on_c, 5, 62, 0
7, 2780, Note_on_c, 5, 60, 0
7, 2790, Note_on_c, 5, 60, 85
7, 2790, Note_on_c, 5, 62, 85
7, 2810, Note_on_c, 5, 62, 0
7, 2810, Note_on_c, 5, 60, 0
7, 2820, Note_on_c, 5, 60, 85
7, 2820, Note_on_c, 5, 62, 85
7, 2840, Note_on_c, 5, 62, 0
7, 2840, Note_on_c, 5, 60, 0
7, 2850, Note_on_c, 5, 60, 85
7, 2850, Note_on_c, 5, 62, 85
7, 2870, Note_on_c, 5, 62, 0
7, 2870, Note_on_c, 5, 60, 0
7, 2880, Note_on_c, 5, 59, 85
7, 2880, Note_on_c, 5, 62, 85
7, 2900, Note_on_c, 5, 62, 0
7, 2900, Note_on_c, 5, 59, 0
7, 2910, Note_on_c, 5, 59, 85
7, 2910, Note_on_c, 5, 62, 85
7, 2930, Note_on_c, 5, 62, 0
7, 2930, Note_on_c, 5, 59, 0
7, 2940, Note_on_c, 5, 59, 85
7, 2940, Note_on_c, 5, 62, 85
7, 2960, Note_on_c, 5, 62, 0
7, 2960, Note_on_c, 5, 59, 0
7, 2970, Note_on_c, 5, 59, 85
7, 2970, Note_on_c, 5, 62, 85
7, 2990, Note_on_c, 5, 62, 0
7, 2990, Note_on_c, 5, 59, 0
7, 3000, Note_on_c, 5, 59, 85
7, 3000, Note_on_c, 5, 62, 85
7, 3020, Note_on_c, 5, 62, 0
7, 3020, Note_on_c, 5, 59, 0
7, 3030, Note_on_c, 5, 59, 85
7, 3030, Note_on_c, 5, 62, 85
7, 3050, Note_on_c, 5, 62, 0
7, 3050, Note_on_c, 5, 59, 0
7, 3060, Note_on_c, 5, 59, 85
7, 3060, Note_on_c, 5, 62, 85
7, 3080, Note_on_c, 5, 62, 0
7, 3080, Note_on_c, 5, 59, 0
7, 3090, Note_on_c, 5, 59, 85
7, 3090, Note_on_c, 5, 62, 85
7, 3110, Note_on_c, 5, 62, 0
7, 3110, Note_on_c, 5, 59, 0
7, 3120, Note_on_c, 5, 59, 85
7, 3120, Note_on_c, 5, 62, 85
7, 3140, Note_on_c, 5, 62, 0
7, 3140, Note_on_c, 5, 59, 0
7, 3150, Note_on_c, 5, 59, 85
7, 3150, Note_on_c, 5, 62, 85
7, 3170, Note_on_c, 5, 62, 0
7, 3170, Note_on_c, 5, 59, 0
7, 3180, Note_on_c, 5, 59, 85
7, 3180, Note_on_c, 5, 62, 85
7, 3200, Note_on_c, 5, 62, 0
7, 3200, Note_on_c, 5, 59, 0
7, 3210, Note_on_c, 5, 59, 85
7, 3210, Note_on_c, 5, 62, 85
7, 3230, Note_on_c, 5, 62, 0
7, 3230, Note_on_c, 5, 59, 0
7, 3240, Note_on_c, 5, 59, 85
7, 3240, Note_on_c, 5, 62, 85
7, 3260, Note_on_c, 5, 62, 0
7, 3260, Note_on_c, 5, 59, 0
7, 3270, Note_on_c, 5, 59, 85
7, 3270, Note_on_c, 5, 62, 85
7, 3290, Note_on_c, 5, 62, 0
7, 3290, Note_on_c, 5, 59, 0
7, 3300, Note_on_c, 5, 59, 85
7, 3300, Note_on_c, 5, 62, 85
7, 3320, Note_on_c, 5, 62, 0
7, 3320, Note_on_c, 5, 59, 0
7, 3330, Note_on_c, 5, 59, 85
7, 3330, Note_on_c, 5, 62, 85
7, 3350, Note_on_c, 5, 62, 0
7, 3350, Note_on_c, 5, 59, 0
7, 3360, Note_on_c, 5, 60, 85
7, 3360, Note_on_c, 5, 62, 85
7, 3380, Note_on_c, 5, 62, 0
7, 3380, Note_on_c, 5, 60, 0
7, 3390, Note_on_c, 5, 60, 85
7, 3390, Note_on_c, 5, 62, 85
7, 3410, Note_on_c, 5, 62, 0
7, 3410, Note_on_c, 5, 60, 0
7, 3420, Note_on_c, 5, 60, 85
7, 3420, Note_on_c, 5, 62, 85
7, 3440, Note_on_c, 5, 62, 0
7, 3440, Note_on_c, 5, 60, 0
7, 3450, Note_on_c, 5, 60, 85
7, 3450, Note_on_c, 5, 62, 85
7, 3470, Note_on_c, 5, 62, 0
7, 3470, Note_on_c, 5, 60, 0
7, 3480, Note_on_c, 5, 60, 85
7, 3480, Note_on_c, 5, 62, 85
7, 3500, Note_on_c, 5, 62, 0
7, 3500, Note_on_c, 5, 60, 0
7, 3510, Note_on_c, 5, 60, 85
7, 3510, Note_on_c, 5, 62, 85
7, 3530, Note_on_c, 5, 62, 0
7, 3530, Note_on_c, 5, 60, 0
7, 3540, Note_on_c, 5, 60, 85
7, 3540, Note_on_c, 5, 62, 85
7, 3560, Note_on_c, 5, 62, 0
7, 3560, Note_on_c, 5, 60, 0
7, 3570, Note_on_c, 5, 60, 85
7, 3570, Note_on_c, 5, 62, 85
7, 3590, Note_on_c, 5, 62, 0
7, 3590, Note_on_c, 5, 60, 0
7, 3600, Note_on_c, 5, 60, 85
7, 3600, Note_on_c, 5, 62, 85
7, 3620, Note_on_c, 5, 62, 0
7, 3620, Note_on_c, 5, 60, 0
7, 3630, Note_on_c, 5, 60, 85
7, 3630, Note_on_c, 5, 62, 85
7, 3650, Note_on_c, 5, 62, 0
7, 3650, Note_on_c, 5, 60, 0
7, 3660, Note_on_c, 5, 60, 85
7, 3660, Note_on_c, 5, 62, 85
7, 3680, Note_on_c, 5, 62, 0
7, 3680, Note_on_c, 5, 60, 0
7, 3690, Note_on_c, 5, 60, 85
7, 3690, Note_on_c, 5, 62, 85
7, 3710, Note_on_c, 5, 62, 0
7, 3710, Note_on_c, 5, 60, 0
7, 3720, Note_on_c, 5, 60, 85
7, 3720, Note_on_c, 5, 62, 85
7, 3740, Note_on_c, 5, 62, 0
7, 3740, Note_on_c, 5, 60, 0
7, 3750, Note_on_c, 5, 60, 85
7, 3750, Note_on_c, 5, 62, 85
7, 3770, Note_on_c, 5, 62, 0
7, 3770, Note_on_c, 5, 60, 0
7, 3780, Note_on_c, 5, 60, 85
7, 3780, Note_on_c, 5, 62, 85
7, 3800, Note_on_c, 5, 62, 0
7, 3800, Note_on_c, 5, 60, 0
7, 3810, Note_on_c, 5, 60, 85
7, 3810, Note_on_c, 5, 62, 85
7, 3830, Note_on_c, 5, 62, 0
7, 3830, Note_on_c, 5, 60, 0
7, 3840, Note_on_c, 5, 59, 85
7, 3840, Note_on_c, 5, 62, 85
7, 3960, Note_on_c, 5, 62, 0
7, 3960, Note_on_c, 5, 59, 0
7, 3960, Note_on_c, 5, 72, 85
7, 4005, Note_on_c, 5, 72, 0
7, 4020, Note_on_c, 5, 72, 85
7, 4065, Note_on_c, 5, 72, 0
7, 4080, Note_on_c, 5, 74, 85
7, 4125, Note_on_c, 5, 74, 0
7, 4140, Note_on_c, 5, 74, 85
7, 4185, Note_on_c, 5, 74, 0
7, 4200, Note_on_c, 5, 72, 85
7, 4260, Note_on_c, 5, 72, 0
7, 4260, Note_on_c, 5, 71, 85
7, 4290, Note_on_c, 5, 71, 0
7, 4290, Note_on_c, 5, 69, 85
7, 4320, Note_on_c, 5, 69, 0
7, 4320, Note_on_c, 5, 67, 85
7, 4365, Note_on_c, 5, 67, 0
7, 4380, Note_on_c, 5, 67, 85
7, 4425, Note_on_c, 5, 67, 0
7, 4440, Note_on_c, 5, 66, 85
7, 4485, Note_on_c, 5, 66, 0
7, 4500, Note_on_c, 5, 66, 85
7, 4545, Note_on_c, 5, 66, 0
7, 4560, Note_on_c, 5, 67, 85
7, 4680, Note_on_c, 5, 67, 0
7, 4800, Note_on_c, 5, 71, 47
7, 5040, Note_on_c, 5, 71, 0
7, 5040, Note_on_c, 5, 72, 47
7, 5280, Note_on_c, 5, 72, 0
7, 5280, Note_on_c, 5, 71, 47
7, 5310, Note_on_c, 5, 71, 0
7, 5310, Note_on_c, 5, 69, 47
7, 5390, Note_on_c, 5, 69, 0
7, 5400, Note_on_c, 5, 69, 47
7, 5520, Note_on_c, 5, 69, 0
7, 5520, Note_on_c, 5, 69, 47
7, 5550, Note_on_c, 5, 69, 0
7, 5550, Note_on_c, 5, 67, 47
7, 5630, Note_on_c, 5, 67, 0
7, 5640, Note_on_c, 5, 67, 47
7, 5760, Note_on_c, 5, 67, 0
7, 5760, Note_on_c, 5, 64, 47
7, 5850, Note_on_c, 5, 64, 0
7, 5880, Note_on_c, 5, 64, 47
7, 5970, Note_on_c, 5, 64, 0
7, 6000, Note_on_c, 5, 60, 47
7, 6090, Note_on_c, 5, 60, 0
7, 6120, Note_on_c, 5, 57, 47
7, 6210, Note_on_c, 5, 57, 0
7, 6240, Note_on_c, 5, 62, 47
7, 6300, Note_on_c, 5, 62, 0
7, 6360, Note_on_c, 5, 66, 47
7, 6420, Note_on_c, 5, 66, 0
7, 6480, Note_on_c, 5, 67, 47
7, 6540, Note_on_c, 5, 67, 0
7, 6720, Note_on_c, 5, 71, 47
7, 6960, Note_on_c, 5, 71, 0
7, 6960, Note_on_c, 5, 72, 47
7, 7200, Note_on_c, 5, 72, 0
7, 7200, Note_on_c, 5, 71, 47
7, 7260, Note_on_c, 5, 71, 0
7, 7260, Note_on_c, 5, 69, 47
7, 7290, Note_on_c, 5, 69, 0
7, 7320, Note_on_c, 5, 69, 47
7, 7350, Note_on_c, 5, 69, 0
7, 7380, Note_on_c, 5, 69, 47
7, 7410, Note_on_c, 5, 69, 0
7, 7440, Note_on_c, 5, 69, 47
7, 7500, Note_on_c, 5, 69, 0
7, 7500, Note_on_c, 5, 67, 47
7, 7530, Note_on_c, 5, 67, 0
7, 7560, Note_on_c, 5, 67, 47
7, 7590, Note_on_c, 5, 67, 0
7, 7620, Note_on_c, 5, 67, 47
7, 7650, Note_on_c, 5, 67, 0
7, 7680, Note_on_c, 5, 64, 47
7, 7770, Note_on_c, 5, 64, 0
7, 7800, Note_on_c, 5, 64, 47
7, 7845, Note_on_c, 5, 64, 0
7, 7860, Note_on_c, 5, 64, 47
7, 7905, Note_on_c, 5, 64, 0
7, 7920, Note_on_c, 5, 60, 47
7, 8010, Note_on_c, 5, 60, 0
7, 8040, Note_on_c, 5, 60, 47
7, 8085, Note_on_c, 5, 60, 0
7, 8100, Note_on_c, 5, 60, 47
7, 8145, Note_on_c, 5, 60, 0
7, 8160, Note_on_c, 5, 59, 85
7, 8460, Note_on_c, 5, 59, 0
7, 8460, Note_on_c, 5, 59, 61
7, 8475, Note_on_c, 5, 59, 0
7, 8475, Note_on_c, 5, 60, 61
7, 8490, Note_on_c, 5, 60, 0
7, 8490, Note_on_c, 5, 57, 61
7, 8505, Note_on_c, 5, 57, 0
7, 8505, Note_on_c, 5, 59, 61
7, 8520, Note_on_c, 5, 59, 0
7, 8520, Note_on_c, 5, 60, 61
7, 8580, Note_on_c, 5, 60, 0
7, 8580, Note_on_c, 5, 57, 61
7, 8640, Note_on_c, 5, 57, 0
7, 8640, Note_on_c, 5, 67, 85
7, 8940, Note_on_c, 5, 67, 0
7, 8940, Note_on_c, 5, 67, 61
7, 8955, Note_on_c, 5, 67, 0
7, 8955, Note_on_c, 5, 69, 61
7, 8970, Note_on_c, 5, 69, 0
7, 8970, Note_on_c, 5, 66, 61
7, 8985, Note_on_c, 5, 66, 0
7, 8985, Note_on_c, 5, 67, 61
7, 9000, Note_on_c, 5, 67, 0
7, 9000, Note_on_c, 5, 69, 61
7, 9060, Note_on_c, 5, 69, 0
7, 9060, Note_on_c, 5, 66, 61
7, 9120, Note_on_c, 5, 66, 0
7, 9120, Note_on_c, 5, 71, 53
7, 9140, Note_on_c, 5, 71, 0
7, 9150, Note_on_c, 5, 71, 53
7, 9170, Note_on_c, 5, 71, 0
7, 9180, Note_on_c, 5, 71, 55
7, 9200, Note_on_c, 5, 71, 0
7, 9210, Note_on_c, 5, 71, 55
7, 9230, Note_on_c, 5, 71, 0
7, 9240, Note_on_c, 5, 71, 55
7, 9260, Note_on_c, 5, 71, 0
7, 9270, Note_on_c, 5, 71, 56
7, 9290, Note_on_c, 5, 71, 0
7, 9300, Note_on_c, 5, 71, 56
7, 9320, Note_on_c, 5, 71, 0
7, 9330, Note_on_c, 5, 71, 58
7, 9350, Note_on_c, 5, 71, 0
7, 9360, Note_on_c, 5, 72, 58
7, 9380, Note_on_c, 5, 72, 0
7, 9390, Note_on_c, 5, 72, 59
7, 9410, Note_on_c, 5, 72, 0
7, 9420, Note_on_c, 5, 72, 59
7, 9440, Note_on_c, 5, 72, 0
7, 9450, Note_on_c, 5, 72, 61
7, 9470, Note_on_c, 5, 72, 0
7, 9480, Note_on_c, 5, 74, 61
7, 9500, Note_on_c, 5, 74, 0
7, 9510, Note_on_c, 5, 74, 62
7, 9530, Note_on_c, 5, 74, 0
7, 9540, Note_on_c, 5, 74, 62
7, 9560, Note_on_c, 5, 74, 0
7, 9570, Note_on_c, 5, 74, 64
7, 9590, Note_on_c, 5, 74, 0
7, 9600, Note_on_c, 5, 71, 64
7, 9620, Note_on_c, 5, 71, 0
7, 9630, Note_on_c, 5, 71, 65
7, 9650, Note_on_c, 5, 71, 0
7, 9660, Note_on_c, 5, 71, 65
7, 9680, Note_on_c, 5, 71, 0
7, 9690, Note_on_c, 5, 71, 67
7, 9710, Note_on_c, 5, 71, 0
7, 9720, Note_on_c, 5, 74, 67
7, 9740, Note_on_c, 5, 74, 0
7, 9750, Note_on_c, 5, 74, 68
7, 9770, Note_on_c, 5, 74, 0
7, 9780, Note_on_c, 5, 74, 68
7, 9800, Note_on_c, 5, 74, 0
7, 9810, Note_on_c, 5, 74, 70
7, 9830, Note_on_c, 5, 74, 0
7, 9840, Note_on_c, 5, 74, 70
7, 9860, Note_on_c, 5, 74, 0
7, 9870, Note_on_c, 5, 74, 71
7, 9890, Note_on_c, 5, 74, 0
7, 9900, Note_on_c, 5, 74, 71
7, 9920, Note_on_c, 5, 74, 0
7, 9930, Note_on_c, 5, 74, 73
7, 9950, Note_on_c, 5, 74, 0
7, 9960, Note_on_c, 5, 79, 73
7, 9980, Note_on_c, 5, 79, 0
7, 9990, Note_on_c, 5, 79, 73
7, 10010, Note_on_c, 5, 79, 0
7, 10020, Note_on_c, 5, 79, 74
7, 10040, Note_on_c, 5, 79, 0
7, 10050, Note_on_c, 5, 79, 74
7, 10070, Note_on_c, 5, 79, 0
7, 10080, Note_on_c, 5, 78, 85
7, 10100, Note_on_c, 5, 78, 0
7, 10110, Note_on_c, 5, 78, 85
7, 10130, Note_on_c, 5, 78, 0
7, 10140, Note_on_c, 5, 78, 85
7, 10160, Note_on_c, 5, 78, 0
7, 10170, Note_on_c, 5, 78, 85
7, 10190, Note_on_c, 5, 78, 0
7, 10200, Note_on_c, 5, 78, 85
7, 10220, Note_on_c, 5, 78, 0
7, 10230, Note_on_c, 5, 78, 85
7, 10250, Note_on_c, 5, 78, 0
7, 10260, Note_on_c, 5, 78, 85
7, 10280, Note_on_c, 5, 78, 0
7, 10290, Note_on_c, 5, 78, 85
7, 10310, Note_on_c, 5, 78, 0
7, 10320, Note_on_c, 5, 79, 85
7, 10340, Note_on_c, 5, 79, 0
7, 10350, Note_on_c, 5, 79, 85
7, 10370, Note_on_c, 5, 79, 0
7, 10380, Note_on_c, 5, 79, 85
7, 10400, Note_on_c, 5, 79, 0
7, 10410, Note_on_c, 5, 79, 85
7, 10430, Note_on_c, 5, 79, 0
7, 10440, Note_on_c, 5, 79, 85
7, 10460, Note_on_c, 5, 79, 0
7, 10470, Note_on_c, 5, 79, 85
7, 10490, Note_on_c, 5, 79, 0
7, 10500, Note_on_c, 5, 79, 85
7, 10520, Note_on_c, 5, 79, 0
7, 10530, Note_on_c, 5, 79, 85
7, 10550, Note_on_c, 5, 79, 0
7, 10560, Note_on_c, 5, 78, 85
7, 10580, Note_on_c, 5, 78, 0
7, 10590, Note_on_c, 5, 78, 85
7, 10610, Note_on_c, 5, 78, 0
7, 10620, Note_on_c, 5, 78, 85
7, 10640, Note_on_c, 5, 78, 0
7, 10650, Note_on_c, 5, 78, 85
7, 10670, Note_on_c, 5, 78, 0
7, 10680, Note_on_c, 5, 78, 85
7, 10700, Note_on_c, 5, 78, 0
7, 10710, Note_on_c, 5, 78, 85
7, 10730, Note_on_c, 5, 78, 0
7, 10740, Note_on_c, 5, 78, 85
7, 10760, Note_on_c, 5, 78, 0
7, 10770, Note_on_c, 5, 78, 85
7, 10790, Note_on_c, 5, 78, 0
7, 10800, Note_on_c, 5, 79, 85
7, 10820, Note_on_c, 5, 79, 0
7, 10830, Note_on_c, 5, 79, 85
7, 10850, Note_on_c, 5, 79, 0
7, 10860, Note_on_c, 5, 79, 85
7, 10880, Note_on_c, 5, 79, 0
7, 10890, Note_on_c, 5, 79, 85
7, 10910, Note_on_c, 5, 79, 0
7, 10920, Note_on_c, 5, 79, 85
7, 10940, Note_on_c, 5, 79, 0
7, 10950, Note_on_c, 5, 79, 85
7, 10970, Note_on_c, 5, 79, 0
7, 10980, Note_on_c, 5, 79, 85
7, 11000, Note_on_c, 5, 79, 0
7, 11010, Note_on_c, 5, 79, 85
7, 11030, Note_on_c, 5, 79, 0
7, 11040, Note_on_c, 5, 74, 85
7, 11070, Note_on_c, 5, 74, 0
7, 11100, Note_on_c, 5, 74, 85
7, 11190, Note_on_c, 5, 74, 0
7, 11220, Note_on_c, 5, 74, 85
7, 11310, Note_on_c, 5, 74, 0
7, 11340, Note_on_c, 5, 74, 85
7, 11430, Note_on_c, 5, 74, 0
7, 11460, Note_on_c, 5, 74, 85
7, 11550, Note_on_c, 5, 74, 0
7, 11580, Note_on_c, 5, 74, 85
7, 11670, Note_on_c, 5, 74, 0
7, 11700, Note_on_c, 5, 74, 85
7, 11790, Note_on_c, 5, 74, 0
7, 11820, Note_on_c, 5, 74, 85
7, 11910, Note_on_c, 5, 74, 0
7, 11940, Note_on_c, 5, 74, 85
7, 12000, Note_on_c, 5, 74, 0
7, 12000, Note_on_c, 5, 73, 85
7, 12020, Note_on_c, 5, 73, 0
7, 12030, Note_on_c, 5, 76, 85
7, 12030, Note_on_c, 5, 73, 85
7, 12050, Note_on_c, 5, 73, 0
7, 12050, Note_on_c, 5, 76, 0
7, 12060, Note_on_c, 5, 76, 85
7, 12060, Note_on_c, 5, 73, 85
7, 12080, Note_on_c, 5, 73, 0
7, 12080, Note_on_c, 5, 76, 0
7, 12090, Note_on_c, 5, 76, 85
7, 12090, Note_on_c, 5, 73, 85
7, 12110, Note_on_c, 5, 73, 0
7, 12110, Note_on_c, 5, 76, 0
7, 12120, Note_on_c, 5, 78, 85
7, 12120, Note_on_c, 5, 74, 85
7, 12140, Note_on_c, 5, 74, 0
7, 12140, Note_on_c, 5, 78, 0
7, 12150, Note_on_c, 5, 78, 85
7, 12150, Note_on_c, 5, 74, 85
7, 12170, Note_on_c, 5, 74, 0
7, 12170, Note_on_c, 5, 78, 0
7, 12180, Note_on_c, 5, 78, 85
7, 12180, Note_on_c, 5, 74, 85
7, 12200, Note_on_c, 5, 74, 0
7, 12200, Note_on_c, 5, 78, 0
7, 12210, Note_on_c, 5, 78, 85
7, 12210, Note_on_c, 5, 74, 85
7, 12230, Note_on_c, 5, 74, 0
7, 12230, Note_on_c, 5, 78, 0
7, 12240, Note_on_c, 5, 73, 85
7, 12240, Note_on_c, 5, 76, 85
7, 12260, Note_on_c, 5, 76, 0
7, 12260, Note_on_c, 5, 73, 0
7, 12270, Note_on_c, 5, 73, 85
7, 12270, Note_on_c, 5, 76, 85
7, 12290, Note_on_c, 5, 76, 0
7, 12290, Note_on_c, 5, 73, 0
7, 12300, Note_on_c, 5, 73, 85
7, 12300, Note_on_c, 5, 76, 85
7, 12320, Note_on_c, 5, 76, 0
7, 12320, Note_on_c, 5, 73, 0
7, 12330, Note_on_c, 5, 73, 85
7, 12330, Note_on_c, 5, 76, 85
7, 12350, Note_on_c, 5, 76, 0
7, 12350, Note_on_c, 5, 73, 0
7, 12360, Note_on_c, 5, 78, 85
7, 12360, Note_on_c, 5, 74, 85
7, 12380, Note_on_c, 5, 74, 0
7, 12380, Note_on_c, 5, 78, 0
7, 12390, Note_on_c, 5, 78, 85
7, 12390, Note_on_c, 5, 74, 85
7, 12410, Note_on_c, 5, 74, 0
7, 12410, Note_on_c, 5, 78, 0
7, 12420, Note_on_c, 5, 78, 85
7, 12420, Note_on_c, 5, 74, 85
7, 12440, Note_on_c, 5, 74, 0
7, 12440, Note_on_c, 5, 78, 0
7, 12450, Note_on_c, 5, 78, 85
7, 12450, Note_on_c, 5, 74, 85
7, 12470, Note_on_c, 5, 74, 0
7, 12470, Note_on_c, 5, 78, 0
7, 12480, Note_on_c, 5, 76, 85
7, 12480, Note_on_c, 5, 73, 85
7, 12525, Note_on_c, 5, 73, 0
7, 12525, Note_on_c, 5, 76, 0
7, 12540, Note_on_c, 5, 69, 85
7, 12585, Note_on_c, 5, 69, 0
7, 12600, Note_on_c, 5, 69, 85
7, 12645, Note_on_c, 5, 69, 0
7, 12660, Note_on_c, 5, 69, 85
7, 12705, Note_on_c, 5, 69, 0
7, 12720, Note_on_c, 5, 69, 85
7, 12840, Note_on_c, 5, 69, 0
7, 12960, Note_on_c, 5, 69, 55
7, 13140, Note_on_c, 5, 69, 0
7, 13140, Note_on_c, 5, 67, 55
7, 13160, Note_on_c, 5, 67, 0
7, 13160, Note_on_c, 5, 66, 55
7, 13180, Note_on_c, 5, 66, 0
7, 13180, Note_on_c, 5, 64, 55
7, 13200, Note_on_c, 5, 64, 0
7, 13200, Note_on_c, 5, 62, 55
7, 13260, Note_on_c, 5, 62, 0
7, 13320, Note_on_c, 5, 71, 55
7, 13380, Note_on_c, 5, 71, 0
7, 13440, Note_on_c, 5, 67, 55
7, 13500, Note_on_c, 5, 67, 0
7, 13560, Note_on_c, 5, 64, 55
7, 13620, Note_on_c, 5, 64, 0
7, 13680, Note_on_c, 5, 69, 55
7, 13740, Note_on_c, 5, 69, 0
7, 13920, Note_on_c, 5, 66, 55
7, 14100, Note_on_c, 5, 66, 0
7, 14100, Note_on_c, 5, 64, 55
7, 14120, Note_on_c, 5, 64, 0
7, 14120, Note_on_c, 5, 62, 55
7, 14140, Note_on_c, 5, 62, 0
7, 14140, Note_on_c, 5, 61, 55
7, 14160, Note_on_c, 5, 61, 0
7, 14160, Note_on_c, 5, 59, 55
7, 14220, Note_on_c, 5, 59, 0
7, 14280, Note_on_c, 5, 67, 55
7, 14340, Note_on_c, 5, 67, 0
7, 14400, Note_on_c, 5, 66, 55
7, 14640, Note_on_c, 5, 66, 0
7, 14640, Note_on_c, 5, 64, 55
7, 14760, Note_on_c, 5, 64, 0
7, 14880, Note_on_c, 5, 69, 55
7, 15060, Note_on_c, 5, 69, 0
7, 15060, Note_on_c, 5, 67, 55
7, 15080, Note_on_c, 5, 67, 0
7, 15080, Note_on_c, 5, 66, 55
7, 15100, Note_on_c, 5, 66, 0
7, 15100, Note_on_c, 5, 64, 55
7, 15120, Note_on_c, 5, 64, 0
7, 15120, Note_on_c, 5, 62, 55
7, 15180, Note_on_c, 5, 62, 0
7, 15240, Note_on_c, 5, 71, 55
7, 15300, Note_on_c, 5, 71, 0
7, 15360, Note_on_c, 5, 67, 55
7, 15420, Note_on_c, 5, 67, 0
7, 15480, Note_on_c, 5, 64, 55
7, 15540, Note_on_c, 5, 64, 0
7, 15600, Note_on_c, 5, 69, 55
7, 15660, Note_on_c, 5, 69, 0
7, 15765, Note_on_c, 5, 67, 55
7, 15810, Note_on_c, 5, 67, 0
7, 15840, Note_on_c, 5, 67, 55
7, 15900, Note_on_c, 5, 67, 0
7, 15900, Note_on_c, 5, 66, 55
7, 15960, Note_on_c, 5, 66, 0
7, 16020, Note_on_c, 5, 79, 55
7, 16050, Note_on_c, 5, 79, 0
7, 16080, Note_on_c, 5, 79, 55
7, 16140, Note_on_c, 5, 79, 0
7, 16140, Note_on_c, 5, 78, 55
7, 16200, Note_on_c, 5, 78, 0
7, 16260, Note_on_c, 5, 67, 55
7, 16305, Note_on_c, 5, 67, 0
7, 16320, Note_on_c, 5, 66, 55
7, 16365, Note_on_c, 5, 66, 0
7, 16380, Note_on_c, 5, 66, 55
7, 16425, Note_on_c, 5, 66, 0
7, 16440, Note_on_c, 5, 67, 55
7, 16485, Note_on_c, 5, 67, 0
7, 16500, Note_on_c, 5, 67, 55
7, 16545, Note_on_c, 5, 67, 0
7, 16560, Note_on_c, 5, 69, 55
7, 16605, Note_on_c, 5, 69, 0
7, 16620, Note_on_c, 5, 69, 55
7, 16665, Note_on_c, 5, 69, 0
7, 16680, Note_on_c, 5, 66, 55
7, 16725, Note_on_c, 5, 66, 0
7, 16740, Note_on_c, 5, 66, 55
7, 16785, Note_on_c, 5, 66, 0
7, 16800, Note_on_c, 5, 64, 55
7, 16845, Note_on_c, 5, 64, 0
7, 16860, Note_on_c, 5, 64, 55
7, 16905, Note_on_c, 5, 64, 0
7, 16920, Note_on_c, 5, 66, 55
7, 16965, Note_on_c, 5, 66, 0
7, 16980, Note_on_c, 5, 66, 55
7, 17025, Note_on_c, 5, 66, 0
7, 17040, Note_on_c, 5, 67, 55
7, 17085, Note_on_c, 5, 67, 0
7, 17100, Note_on_c, 5, 67, 55
7, 17145, Note_on_c, 5, 67, 0
7, 17160, Note_on_c, 5, 64, 55
7, 17205, Note_on_c, 5, 64, 0
7, 17220, Note_on_c, 5, 64, 55
7, 17265, Note_on_c, 5, 64, 0
7, 17280, Note_on_c, 5, 66, 55
7, 17325, Note_on_c, 5, 66, 0
7, 17340, Note_on_c, 5, 66, 55
7, 17385, Note_on_c, 5, 66, 0
7, 17400, Note_on_c, 5, 67, 55
7, 17445, Note_on_c, 5, 67, 0
7, 17460, Note_on_c, 5, 67, 55
7, 17505, Note_on_c, 5, 67, 0
7, 17520, Note_on_c, 5, 69, 55
7, 17565, Note_on_c, 5, 69, 0
7, 17580, Note_on_c, 5, 69, 55
7, 17625, Note_on_c, 5, 69, 0
7, 17640, Note_on_c, 5, 66, 55
7, 17685, Note_on_c, 5, 66, 0
7, 17700, Note_on_c, 5, 66, 55
7, 17745, Note_on_c, 5, 66, 0
7, 17760, Note_on_c, 5, 64, 55
7, 17805, Note_on_c, 5, 64, 0
7, 17820, Note_on_c, 5, 64, 55
7, 17865, Note_on_c, 5, 64, 0
7, 17880, Note_on_c, 5, 66, 55
7, 17925, Note_on_c, 5, 66, 0
7, 17940, Note_on_c, 5, 66, 55
7, 17985, Note_on_c, 5, 66, 0
7, 18000, Note_on_c, 5, 67, 55
7, 18045, Note_on_c, 5, 67, 0
7, 18060, Note_on_c, 5, 67, 55
7, 18105, Note_on_c, 5, 67, 0
7, 18120, Note_on_c, 5, 64, 55
7, 18165, Note_on_c, 5, 64, 0
7, 18180, Note_on_c, 5, 64, 55
7, 18225, Note_on_c, 5, 64, 0
7, 18240, Note_on_c, 5, 66, 55
7, 18360, Note_on_c, 5, 66, 0
7, 18480, Note_on_c, 5, 78, 85
7, 18480, Note_on_c, 5, 71, 85
7, 18720, Note_on_c, 5, 71, 0
7, 18720, Note_on_c, 5, 78, 0
7, 18720, Note_on_c, 5, 76, 85
7, 18840, Note_on_c, 5, 76, 0
7, 18960, Note_on_c, 5, 69, 85
7, 18960, Note_on_c, 5, 76, 85
7, 19200, Note_on_c, 5, 76, 0
7, 19200, Note_on_c, 5, 69, 0
7, 19200, Note_on_c, 5, 74, 85
7, 19245, Note_on_c, 5, 74, 0
7, 19260, Note_on_c, 5, 78, 85
7, 19290, Note_on_c, 5, 78, 0
7, 19320, Note_on_c, 5, 79, 85
7, 19350, Note_on_c, 5, 79, 0
7, 19380, Note_on_c, 5, 81, 85
7, 19410, Note_on_c, 5, 81, 0
7, 19440, Note_on_c, 5, 79, 85
7, 19500, Note_on_c, 5, 79, 0
7, 19500, Note_on_c, 5, 81, 85
7, 19530, Note_on_c, 5, 81, 0
7, 19530, Note_on_c, 5, 83, 85
7, 19560, Note_on_c, 5, 83, 0
7, 19560, Note_on_c, 5, 81, 85
7, 19605, Note_on_c, 5, 81, 0
7, 19620, Note_on_c, 5, 79, 85
7, 19650, Note_on_c, 5, 79, 0
7, 19680, Note_on_c, 5, 79, 85
7, 19740, Note_on_c, 5, 79, 0
7, 19740, Note_on_c, 5, 78, 85
7, 19785, Note_on_c, 5, 78, 0
7, 19800, Note_on_c, 5, 74, 85
7, 19830, Note_on_c, 5, 74, 0
7, 19860, Note_on_c, 5, 78, 85
7, 19890, Note_on_c, 5, 78, 0
7, 19920, Note_on_c, 5, 78, 85
7, 19980, Note_on_c, 5, 78, 0
7, 19980, Note_on_c, 5, 76, 85
7, 20025, Note_on_c, 5, 76, 0
7, 20040, Note_on_c, 5, 74, 85
7, 20070, Note_on_c, 5, 74, 0
7, 20100, Note_on_c, 5, 73, 85
7, 20130, Note_on_c, 5, 73, 0
7, 20160, Note_on_c, 5, 74, 85
7, 20205, Note_on_c, 5, 74, 0
7, 20220, Note_on_c, 5, 66, 53
7, 20265, Note_on_c, 5, 66, 0
7, 20280, Note_on_c, 5, 67, 53
7, 20325, Note_on_c, 5, 67, 0
7, 20340, Note_on_c, 5, 67, 53
7, 20385, Note_on_c, 5, 67, 0
7, 20400, Note_on_c, 5, 69, 53
7, 20445, Note_on_c, 5, 69, 0
7, 20460, Note_on_c, 5, 69, 53
7, 20505, Note_on_c, 5, 69, 0
7, 20520, Note_on_c, 5, 66, 53
7, 20565, Note_on_c, 5, 66, 0
7, 20580, Note_on_c, 5, 66, 53
7, 20625, Note_on_c, 5, 66, 0
7, 20640, Note_on_c, 5, 64, 55
7, 20685, Note_on_c, 5, 64, 0
7, 20700, Note_on_c, 5, 64, 55
7, 20745, Note_on_c, 5, 64, 0
7, 20760, Note_on_c, 5, 66, 55
7, 20805, Note_on_c, 5, 66, 0
7, 20820, Note_on_c, 5, 66, 55
7, 20865, Note_on_c, 5, 66, 0
7, 20880, Note_on_c, 5, 67, 55
7, 20925, Note_on_c, 5, 67, 0
7, 20940, Note_on_c, 5, 67, 55
7, 20985, Note_on_c, 5, 67, 0
7, 21000, Note_on_c, 5, 64, 55
7, 21045, Note_on_c, 5, 64, 0
7, 21060, Note_on_c, 5, 64, 55
7, 21105, Note_on_c, 5, 64, 0
7, 21120, Note_on_c, 5, 66, 55
7, 21165, Note_on_c, 5, 66, 0
7, 21180, Note_on_c, 5, 66, 55
7, 21225, Note_on_c, 5, 66, 0
7, 21240, Note_on_c, 5, 67, 55
7, 21285, Note_on_c, 5, 67, 0
7, 21300, Note_on_c, 5, 67, 55
7, 21345, Note_on_c, 5, 67, 0
7, 21360, Note_on_c, 5, 69, 55
7, 21405, Note_on_c, 5, 69, 0
7, 21420, Note_on_c, 5, 69, 55
7, 21465, Note_on_c, 5, 69, 0
7, 21480, Note_on_c, 5, 66, 55
7, 21525, Note_on_c, 5, 66, 0
7, 21540, Note_on_c, 5, 66, 55
7, 21585, Note_on_c, 5, 66, 0
7, 21600, Note_on_c, 5, 64, 55
7, 21645, Note_on_c, 5, 64, 0
7, 21660, Note_on_c, 5, 64, 55
7, 21705, Note_on_c, 5, 64, 0
7, 21720, Note_on_c, 5, 66, 55
7, 21765, Note_on_c, 5, 66, 0
7, 21780, Note_on_c, 5, 66, 55
7, 21825, Note_on_c, 5, 66, 0
7, 21840, Note_on_c, 5, 67, 55
7, 21885, Note_on_c, 5, 67, 0
7, 21900, Note_on_c, 5, 67, 55
7, 21945, Note_on_c, 5, 67, 0
7, 21960, Note_on_c, 5, 64, 55
7, 22005, Note_on_c, 5, 64, 0
7, 22020, Note_on_c, 5, 64, 55
7, 22065, Note_on_c, 5, 64, 0
7, 22080, Note_on_c, 5, 66, 58
7, 22200, Note_on_c, 5, 66, 0
7, 22320, Note_on_c, 5, 78, 85
7, 22320, Note_on_c, 5, 71, 85
7, 22560, Note_on_c, 5, 71, 0
7, 22560, Note_on_c, 5, 78, 0
7, 22560, Note_on_c, 5, 76, 85
7, 22680, Note_on_c, 5, 76, 0
7, 22800, Note_on_c, 5, 69, 85
7, 22800, Note_on_c, 5, 76, 85
7, 23040, Note_on_c, 5, 76, 0
7, 23040, Note_on_c, 5, 69, 0
7, 23040, Note_on_c, 5, 74, 85
7, 23085, Note_on_c, 5, 74, 0
7, 23100, Note_on_c, 5, 78, 85
7, 23130, Note_on_c, 5, 78, 0
7, 23160, Note_on_c, 5, 79, 85
7, 23190, Note_on_c, 5, 79, 0
7, 23220, Note_on_c, 5, 81, 85
7, 23250, Note_on_c, 5, 81, 0
7, 23280, Note_on_c, 5, 79, 85
7, 23340, Note_on_c, 5, 79, 0
7, 23340, Note_on_c, 5, 81, 85
7, 23370, Note_on_c, 5, 81, 0
7, 23370, Note_on_c, 5, 83, 85
7, 23400, Note_on_c, 5, 83, 0
7, 23400, Note_on_c, 5, 81, 85
7, 23445, Note_on_c, 5, 81, 0
7, 23460, Note_on_c, 5, 79, 85
7, 23490, Note_on_c, 5, 79, 0
7, 23520, Note_on_c, 5, 79, 85
7, 23580, Note_on_c, 5, 79, 0
7, 23580, Note_on_c, 5, 78, 85
7, 23625, Note_on_c, 5, 78, 0
7, 23640, Note_on_c, 5, 74, 85
7, 23670, Note_on_c, 5, 74, 0
7, 23700, Note_on_c, 5, 78, 85
7, 23730, Note_on_c, 5, 78, 0
7, 23760, Note_on_c, 5, 78, 85
7, 23820, Note_on_c, 5, 78, 0
7, 23820, Note_on_c, 5, 76, 85
7, 23865, Note_on_c, 5, 76, 0
7, 23880, Note_on_c, 5, 74, 85
7, 23910, Note_on_c, 5, 74, 0
7, 23940, Note_on_c, 5, 73, 85
7, 23970, Note_on_c, 5, 73, 0
7, 24000, Note_on_c, 5, 74, 85
7, 24045, Note_on_c, 5, 74, 0
7, 24060, Note_on_c, 5, 69, 85
7, 24105, Note_on_c, 5, 69, 0
7, 24120, Note_on_c, 5, 71, 85
7, 24165, Note_on_c, 5, 71, 0
7, 24180, Note_on_c, 5, 73, 85
7, 24225, Note_on_c, 5, 73, 0
7, 24240, Note_on_c, 5, 74, 85
7, 24270, Note_on_c, 5, 74, 0
7, 24300, Note_on_c, 5, 74, 85
7, 24330, Note_on_c, 5, 74, 0
7, 24360, Note_on_c, 5, 76, 85
7, 24375, Note_on_c, 5, 76, 0
7, 24375, Note_on_c, 5, 78, 85
7, 24390, Note_on_c, 5, 78, 0
7, 24390, Note_on_c, 5, 76, 85
7, 24405, Note_on_c, 5, 76, 0
7, 24405, Note_on_c, 5, 78, 85
7, 24420, Note_on_c, 5, 78, 0
7, 24420, Note_on_c, 5, 74, 85
7, 24450, Note_on_c, 5, 74, 0
7, 24450, Note_on_c, 5, 76, 85
7, 24480, Note_on_c, 5, 76, 0
7, 24480, Note_on_c, 5, 78, 85
7, 24540, Note_on_c, 5, 78, 0
7, 24540, Note_on_c, 5, 73, 85
7, 24585, Note_on_c, 5, 73, 0
7, 24600, Note_on_c, 5, 74, 85
7, 24645, Note_on_c, 5, 74, 0
7, 24660, Note_on_c, 5, 76, 85
7, 24705, Note_on_c, 5, 76, 0
7, 24720, Note_on_c, 5, 78, 85
7, 24765, Note_on_c, 5, 78, 0
7, 24780, Note_on_c, 5, 78, 85
7, 24825, Note_on_c, 5, 78, 0
7, 24840, Note_on_c, 5, 79, 85
7, 24855, Note_on_c, 5, 79, 0
7, 24855, Note_on_c, 5, 81, 85
7, 24870, Note_on_c, 5, 81, 0
7, 24870, Note_on_c, 5, 79, 85
7, 24885, Note_on_c, 5, 79, 0
7, 24885, Note_on_c, 5, 81, 85
7, 24900, Note_on_c, 5, 81, 0
7, 24900, Note_on_c, 5, 78, 85
7, 24930, Note_on_c, 5, 78, 0
7, 24930, Note_on_c, 5, 79, 85
7, 24960, Note_on_c, 5, 79, 0
7, 24960, Note_on_c, 5, 81, 85
7, 25005, Note_on_c, 5, 81, 0
7, 25020, Note_on_c, 5, 81, 85
7, 25065, Note_on_c, 5, 81, 0
7, 25080, Note_on_c, 5, 82, 85
7, 25095, Note_on_c, 5, 82, 0
7, 25095, Note_on_c, 5, 83, 85
7, 25110, Note_on_c, 5, 83, 0
7, 25110, Note_on_c, 5, 82, 85
7, 25125, Note_on_c, 5, 82, 0
7, 25125, Note_on_c, 5, 83, 85
7, 25140, Note_on_c, 5, 83, 0
7, 25140, Note_on_c, 5, 80, 85
7, 25170, Note_on_c, 5, 80, 0
7, 25170, Note_on_c, 5, 82, 85
7, 25200, Note_on_c, 5, 82, 0
7, 25200, Note_on_c, 5, 83, 85
7, 25320, Note_on_c, 5, 83, 0
7, 25440, Note_on_c, 5, 67, 55
7, 25920, Note_on_c, 5, 67, 0
7, 25920, Note_on_c, 5, 66, 55
7, 25980, Note_on_c, 5, 66, 0
7, 26040, Note_on_c, 5, 69, 55
7, 26100, Note_on_c, 5, 69, 0
7, 26160, Note_on_c, 5, 66, 55
7, 26220, Note_on_c, 5, 66, 0
7, 26410, Note_on_c, 5, 79, 85
7, 26410, Note_on_c, 5, 71, 85
7, 26410, Note_on_c, 5, 62, 85
7, 26530, Note_on_c, 5, 62, 0
7, 26530, Note_on_c, 5, 71, 0
7, 26530, Note_on_c, 5, 79, 0
7, 26590, Note_on_c, 5, 74, 85
7, 26620, Note_on_c, 5, 74, 0
7, 26650, Note_on_c, 5, 79, 85
7, 26770, Note_on_c, 5, 79, 0
7, 26830, Note_on_c, 5, 74, 85
7, 26860, Note_on_c, 5, 74, 0
7, 26890, Note_on_c, 5, 79, 85
7, 26920, Note_on_c, 5, 79, 0
7, 26950, Note_on_c, 5, 74, 85
7, 26980, Note_on_c, 5, 74, 0
7, 27010, Note_on_c, 5, 79, 85
7, 27040, Note_on_c, 5, 79, 0
7, 27070, Note_on_c, 5, 83, 85
7, 27100, Note_on_c, 5, 83, 0
7, 27130, Note_on_c, 5, 86, 85
7, 27250, Note_on_c, 5, 86, 0
7, 27370, Note_on_c, 5, 84, 85
7, 27490, Note_on_c, 5, 84, 0
7, 27550, Note_on_c, 5, 81, 85
7, 27580, Note_on_c, 5, 81, 0
7, 27610, Note_on_c, 5, 84, 85
7, 27730, Note_on_c, 5, 84, 0
7, 27790, Note_on_c, 5, 81, 85
7, 27820, Note_on_c, 5, 81, 0
7, 27850, Note_on_c, 5, 84, 85
7, 27880, Note_on_c, 5, 84, 0
7, 27910, Note_on_c, 5, 81, 85
7, 27940, Note_on_c, 5, 81, 0
7, 27970, Note_on_c, 5, 78, 85
7, 28000, Note_on_c, 5, 78, 0
7, 28030, Note_on_c, 5, 81, 85
7, 28060, Note_on_c, 5, 81, 0
7, 28090, Note_on_c, 5, 74, 85
7, 28210, Note_on_c, 5, 74, 0
7, 28320, Note_on_c, 5, 59, 85
7, 28320, Note_on_c, 5, 62, 85
7, 28340, Note_on_c, 5, 62, 0
7, 28340, Note_on_c, 5, 59, 0
7, 28350, Note_on_c, 5, 59, 85
7, 28350, Note_on_c, 5, 62, 85
7, 28370, Note_on_c, 5, 62, 0
7, 28370, Note_on_c, 5, 59, 0
7, 28380, Note_on_c, 5, 59, 85
7, 28380, Note_on_c, 5, 62, 85
7, 28400, Note_on_c, 5, 62, 0
7, 28400, Note_on_c, 5, 59, 0
7, 28410, Note_on_c, 5, 59, 85
7, 28410, Note_on_c, 5, 62, 85
7, 28430, Note_on_c, 5, 62, 0
7, 28430, Note_on_c, 5, 59, 0
7, 28440, Note_on_c, 5, 59, 85
7, 28440, Note_on_c, 5, 62, 85
7, 28460, Note_on_c, 5, 62, 0
7, 28460, Note_on_c, 5, 59, 0
7, 28470, Note_on_c, 5, 59, 85
7, 28470, Note_on_c, 5, 62, 85
7, 28490, Note_on_c, 5, 62, 0
7, 28490, Note_on_c, 5, 59, 0
7, 28500, Note_on_c, 5, 59, 85
7, 28500, Note_on_c, 5, 62, 85
7, 28520, Note_on_c, 5, 62, 0
7, 28520, Note_on_c, 5, 59, 0
7, 28530, Note_on_c, 5, 59, 85
7, 28530, Note_on_c, 5, 62, 85
7, 28550, Note_on_c, 5, 62, 0
7, 28550, Note_on_c, 5, 59, 0
7, 28560, Note_on_c, 5, 59, 85
7, 28560, Note_on_c, 5, 62, 85
7, 28580, Note_on_c, 5, 62, 0
7, 28580, Note_on_c, 5, 59, 0
7, 28590, Note_on_c, 5, 59, 85
7, 28590, Note_on_c, 5, 62, 85
7, 28610, Note_on_c, 5, 62, 0
7, 28610, Note_on_c, 5, 59, 0
7, 28620, Note_on_c, 5, 59, 85
7, 28620, Note_on_c, 5, 62, 85
7, 28640, Note_on_c, 5, 62, 0
7, 28640, Note_on_c, 5, 59, 0
7, 28650, Note_on_c, 5, 59, 85
7, 28650, Note_on_c, 5, 62, 85
7, 28670, Note_on_c, 5, 62, 0
7, 28670, Note_on_c, 5, 59, 0
7, 28680, Note_on_c, 5, 59, 85
7, 28680, Note_on_c, 5, 62, 85
7, 28700, Note_on_c, 5, 62, 0
7, 28700, Note_on_c, 5, 59, 0
7, 28710, Note_on_c, 5, 59, 85
7, 28710, Note_on_c, 5, 62, 85
7, 28730, Note_on_c, 5, 62, 0
7, 28730, Note_on_c, 5, 59, 0
7, 28740, Note_on_c, 5, 59, 85
7, 28740, Note_on_c, 5, 62, 85
7, 28760, Note_on_c, 5, 62, 0
7, 28760, Note_on_c, 5, 59, 0
7, 28770, Note_on_c, 5, 59, 85
7, 28770, Note_on_c, 5, 62, 85
7, 28790, Note_on_c, 5, 62, 0
7, 28790, Note_on_c, 5, 59, 0
7, 28800, Note_on_c, 5, 60, 85
7, 28800, Note_on_c, 5, 62, 85
7, 28820, Note_on_c, 5, 62, 0
7, 28820, Note_on_c, 5, 60, 0
7, 28830, Note_on_c, 5, 60, 85
7, 28830, Note_on_c, 5, 62, 85
7, 28850, Note_on_c, 5, 62, 0
7, 28850, Note_on_c, 5, 60, 0
7, 28860, Note_on_c, 5, 60, 85
7, 28860, Note_on_c, 5, 62, 85
7, 28880, Note_on_c, 5, 62, 0
7, 28880, Note_on_c, 5, 60, 0
7, 28890, Note_on_c, 5, 60, 85
7, 28890, Note_on_c, 5, 62, 85
7, 28910, Note_on_c, 5, 62, 0
7, 28910, Note_on_c, 5, 60, 0
7, 28920, Note_on_c, 5, 60, 85
7, 28920, Note_on_c, 5, 62, 85
7, 28940, Note_on_c, 5, 62, 0
7, 28940, Note_on_c, 5, 60, 0
7, 28950, Note_on_c, 5, 60, 85
7, 28950, Note_on_c, 5, 62, 85
7, 28970, Note_on_c, 5, 62, 0
7, 28970, Note_on_c, 5, 60, 0
7, 28980, Note_on_c, 5, 60, 85
7, 28980, Note_on_c, 5, 62, 85
7, 29000, Note_on_c, 5, 62, 0
7, 29000, Note_on_c, 5, 60, 0
7, 29010, Note_on_c, 5, 60, 85
7, 29010, Note_on_c, 5, 62, 85
7, 29030, Note_on_c, 5, 62, 0
7, 29030, Note_on_c, 5, 60, 0
7, 29040, Note_on_c, 5, 60, 85
7, 29040, Note_on_c, 5, 62, 85
7, 29060, Note_on_c, 5, 62, 0
7, 29060, Note_on_c, 5, 60, 0
7, 29070, Note_on_c, 5, 60, 85
7, 29070, Note_on_c, 5, 62, 85
7, 29090, Note_on_c, 5, 62, 0
7, 29090, Note_on_c, 5, 60, 0
7, 29100, Note_on_c, 5, 60, 85
7, 29100, Note_on_c, 5, 62, 85
7, 29120, Note_on_c, 5, 62, 0
7, 29120, Note_on_c, 5, 60, 0
7, 29130, Note_on_c, 5, 60, 85
7, 29130, Note_on_c, 5, 62, 85
7, 29150, Note_on_c, 5, 62, 0
7, 29150, Note_on_c, 5, 60, 0
7, 29160, Note_on_c, 5, 60, 85
7, 29160, Note_on_c, 5, 62, 85
7, 29180, Note_on_c, 5, 62, 0
7, 29180, Note_on_c, 5, 60, 0
7, 29190, Note_on_c, 5, 60, 85
7, 29190, Note_on_c, 5, 62, 85
7, 29210, Note_on_c, 5, 62, 0
7, 29210, Note_on_c, 5, 60, 0
7, 29220, Note_on_c, 5, 60, 85
7, 29220, Note_on_c, 5, 62, 85
7, 29240, Note_on_c, 5, 62, 0
7, 29240, Note_on_c, 5, 60, 0
7, 29250, Note_on_c, 5, 60, 85
7, 29250, Note_on_c, 5, 62, 85
7, 29270, Note_on_c, 5, 62, 0
7, 29270, Note_on_c, 5, 60, 0
7, 29280, Note_on_c, 5, 59, 85
7, 29280, Note_on_c, 5, 62, 85
7, 29300, Note_on_c, 5, 62, 0
7, 29300, Note_on_c, 5, 59, 0
7, 29310, Note_on_c, 5, 59, 85
7, 29310, Note_on_c, 5, 62, 85
7, 29330, Note_on_c, 5, 62, 0
7, 29330, Note_on_c, 5, 59, 0
7, 29340, Note_on_c, 5, 59, 85
7, 29340, Note_on_c, 5, 62, 85
7, 29360, Note_on_c, 5, 62, 0
7, 29360, Note_on_c, 5, 59, 0
7, 29370, Note_on_c, 5, 59, 85
7, 29370, Note_on_c, 5, 62, 85
7, 29390, Note_on_c, 5, 62, 0
7, 29390, Note_on_c, 5, 59, 0
7, 29400, Note_on_c, 5, 59, 85
7, 29400, Note_on_c, 5, 62, 85
7, 29420, Note_on_c, 5, 62, 0
7, 29420, Note_on_c, 5, 59, 0
7, 29430, Note_on_c, 5, 59, 85
7, 29430, Note_on_c, 5, 62, 85
7, 29450, Note_on_c, 5, 62, 0
7, 29450, Note_on_c, 5, 59, 0
7, 29460, Note_on_c, 5, 59, 85
7, 29460, Note_on_c, 5, 62, 85
7, 29480, Note_on_c, 5, 62, 0
7, 29480, Note_on_c, 5, 59, 0
7, 29490, Note_on_c, 5, 59, 85
7, 29490, Note_on_c, 5, 62, 85
7, 29510, Note_on_c, 5, 62, 0
7, 29510, Note_on_c, 5, 59, 0
7, 29520, Note_on_c, 5, 59, 85
7, 29520, Note_on_c, 5, 62, 85
7, 29540, Note_on_c, 5, 62, 0
7, 29540, Note_on_c, 5, 59, 0
7, 29550, Note_on_c, 5, 59, 85
7, 29550, Note_on_c, 5, 62, 85
7, 29570, Note_on_c, 5, 62, 0
7, 29570, Note_on_c, 5, 59, 0
7, 29580, Note_on_c, 5, 59, 85
7, 29580, Note_on_c, 5, 62, 85
7, 29600, Note_on_c, 5, 62, 0
7, 29600, Note_on_c, 5, 59, 0
7, 29610, Note_on_c, 5, 59, 85
7, 29610, Note_on_c, 5, 62, 85
7, 29630, Note_on_c, 5, 62, 0
7, 29630, Note_on_c, 5, 59, 0
7, 29640, Note_on_c, 5, 59, 85
7, 29640, Note_on_c, 5, 62, 85
7, 29660, Note_on_c, 5, 62, 0
7, 29660, Note_on_c, 5, 59, 0
7, 29670, Note_on_c, 5, 59, 85
7, 29670, Note_on_c, 5, 62, 85
7, 29690, Note_on_c, 5, 62, 0
7, 29690, Note_on_c, 5, 59, 0
7, 29700, Note_on_c, 5, 59, 85
7, 29700, Note_on_c, 5, 62, 85
7, 29720, Note_on_c, 5, 62, 0
7, 29720, Note_on_c, 5, 59, 0
7, 29730, Note_on_c, 5, 59, 85
7, 29730, Note_on_c, 5, 62, 85
7, 29750, Note_on_c, 5, 62, 0
7, 29750, Note_on_c, 5, 59, 0
7, 29760, Note_on_c, 5, 60, 85
7, 29760, Note_on_c, 5, 62, 85
7, 29780, Note_on_c, 5, 62, 0
7, 29780, Note_on_c, 5, 60, 0
7, 29790, Note_on_c, 5, 60, 85
7, 29790, Note_on_c, 5, 62, 85
7, 29810, Note_on_c, 5, 62, 0
7, 29810, Note_on_c, 5, 60, 0
7, 29820, Note_on_c, 5, 60, 85
7, 29820, Note_on_c, 5, 62, 85
7, 29840, Note_on_c, 5, 62, 0
7, 29840, Note_on_c, 5, 60, 0
7, 29850, Note_on_c, 5, 60, 85
7, 29850, Note_on_c, 5, 62, 85
7, 29870, Note_on_c, 5, 62, 0
7, 29870, Note_on_c, 5, 60, 0
7, 29880, Note_on_c, 5, 60, 85
7, 29880, Note_on_c, 5, 62, 85
7, 29900, Note_on_c, 5, 62, 0
7, 29900, Note_on_c, 5, 60, 0
7, 29910, Note_on_c, 5, 60, 85
7, 29910, Note_on_c, 5, 62, 85
7, 29930, Note_on_c, 5, 62, 0
7, 29930, Note_on_c, 5, 60, 0
7, 29940, Note_on_c, 5, 60, 85
7, 29940, Note_on_c, 5, 62, 85
7, 29960, Note_on_c, 5, 62, 0
7, 29960, Note_on_c, 5, 60, 0
7, 29970, Note_on_c, 5, 60, 85
7, 29970, Note_on_c, 5, 62, 85
7, 29990, Note_on_c, 5, 62, 0
7, 29990, Note_on_c, 5, 60, 0
7, 30000, Note_on_c, 5, 60, 85
7, 30000, Note_on_c, 5, 62, 85
7, 30020, Note_on_c, 5, 62, 0
7, 30020, Note_on_c, 5, 60, 0
7, 30030, Note_on_c, 5, 60, 85
7, 30030, Note_on_c, 5, 62, 85
7, 30050, Note_on_c, 5, 62, 0
7, 30050, Note_on_c, 5, 60, 0
7, 30060, Note_on_c, 5, 60, 85
7, 30060, Note_on_c, 5, 62, 85
7, 30080, Note_on_c, 5, 62, 0
7, 30080, Note_on_c, 5, 60, 0
7, 30090, Note_on_c, 5, 60, 85
7, 30090, Note_on_c, 5, 62, 85
7, 30110, Note_on_c, 5, 62, 0
7, 30110, Note_on_c, 5, 60, 0
7, 30120, Note_on_c, 5, 60, 85
7, 30120, Note_on_c, 5, 62, 85
7, 30140, Note_on_c, 5, 62, 0
7, 30140, Note_on_c, 5, 60, 0
7, 30150, Note_on_c, 5, 60, 85
7, 30150, Note_on_c, 5, 62, 85
7, 30170, Note_on_c, 5, 62, 0
7, 30170, Note_on_c, 5, 60, 0
7, 30180, Note_on_c, 5, 60, 85
7, 30180, Note_on_c, 5, 62, 85
7, 30200, Note_on_c, 5, 62, 0
7, 30200, Note_on_c, 5, 60, 0
7, 30210, Note_on_c, 5, 60, 85
7, 30210, Note_on_c, 5, 62, 85
7, 30230, Note_on_c, 5, 62, 0
7, 30230, Note_on_c, 5, 60, 0
7, 30240, Note_on_c, 5, 59, 85
7, 30240, Note_on_c, 5, 62, 85
7, 30360, Note_on_c, 5, 62, 0
7, 30360, Note_on_c, 5, 59, 0
7, 30360, Note_on_c, 5, 72, 85
7, 30405, Note_on_c, 5, 72, 0
7, 30420, Note_on_c, 5, 72, 85
7, 30465, Note_on_c, 5, 72, 0
7, 30480, Note_on_c, 5, 74, 85
7, 30525, Note_on_c, 5, 74, 0
7, 30540, Note_on_c, 5, 74, 85
7, 30585, Note_on_c, 5, 74, 0
7, 30600, Note_on_c, 5, 72, 85
7, 30660, Note_on_c, 5, 72, 0
7, 30660, Note_on_c, 5, 71, 85
7, 30690, Note_on_c, 5, 71, 0
7, 30690, Note_on_c, 5, 69, 85
7, 30720, Note_on_c, 5, 69, 0
7, 30720, Note_on_c, 5, 67, 85
7, 30765, Note_on_c, 5, 67, 0
7, 30780, Note_on_c, 5, 67, 85
7, 30825, Note_on_c, 5, 67, 0
7, 30840, Note_on_c, 5, 66, 85
7, 30885, Note_on_c, 5, 66, 0
7, 30900, Note_on_c, 5, 66, 85
7, 30945, Note_on_c, 5, 66, 0
7, 30960, Note_on_c, 5, 67, 85
7, 31080, Note_on_c, 5, 67, 0
7, 31200, Note_on_c, 5, 71, 47
7, 31440, Note_on_c, 5, 71, 0
7, 31440, Note_on_c, 5, 72, 47
7, 31680, Note_on_c, 5, 72, 0
7, 31680, Note_on_c, 5, 71, 47
7, 31710, Note_on_c, 5, 71, 0
7, 31710, Note_on_c, 5, 69, 47
7, 31790, Note_on_c, 5, 69, 0
7, 31800, Note_on_c, 5, 69, 47
7, 31920, Note_on_c, 5, 69, 0
7, 31920, Note_on_c, 5, 69, 47
7, 31950, Note_on_c, 5, 69, 0
7, 31950, Note_on_c, 5, 67, 47
7, 32030, Note_on_c, 5, 67, 0
7, 32040, Note_on_c, 5, 67, 47
7, 32160, Note_on_c, 5, 67, 0
7, 32160, Note_on_c, 5, 64, 47
7, 32250, Note_on_c, 5, 64, 0
7, 32280, Note_on_c, 5, 64, 47
7, 32370, Note_on_c, 5, 64, 0
7, 32400, Note_on_c, 5, 60, 47
7, 32490, Note_on_c, 5, 60, 0
7, 32520, Note_on_c, 5, 57, 47
7, 32610, Note_on_c, 5, 57, 0
7, 32640, Note_on_c, 5, 62, 47
7, 32700, Note_on_c, 5, 62, 0
7, 32760, Note_on_c, 5, 66, 47
7, 32820, Note_on_c, 5, 66, 0
7, 32880, Note_on_c, 5, 67, 47
7, 32940, Note_on_c, 5, 67, 0
7, 33120, Note_on_c, 5, 71, 47
7, 33360, Note_on_c, 5, 71, 0
7, 33360, Note_on_c, 5, 72, 47
7, 33600, Note_on_c, 5, 72, 0
7, 33600, Note_on_c, 5, 71, 47
7, 33660, Note_on_c, 5, 71, 0
7, 33660, Note_on_c, 5, 69, 47
7, 33690, Note_on_c, 5, 69, 0
7, 33720, Note_on_c, 5, 69, 47
7, 33750, Note_on_c, 5, 69, 0
7, 33780, Note_on_c, 5, 69, 47
7, 33810, Note_on_c, 5, 69, 0
7, 33840, Note_on_c, 5, 69, 47
7, 33900, Note_on_c, 5, 69, 0
7, 33900, Note_on_c, 5, 67, 47
7, 33930, Note_on_c, 5, 67, 0
7, 33960, Note_on_c, 5, 67, 47
7, 33990, Note_on_c, 5, 67, 0
7, 34020, Note_on_c, 5, 67, 47
7, 34050, Note_on_c, 5, 67, 0
7, 34080, Note_on_c, 5, 64, 47
7, 34170, Note_on_c, 5, 64, 0
7, 34200, Note_on_c, 5, 64, 47
7, 34245, Note_on_c, 5, 64, 0
7, 34260, Note_on_c, 5, 64, 47
7, 34305, Note_on_c, 5, 64, 0
7, 34320, Note_on_c, 5, 60, 47
7, 34410, Note_on_c, 5, 60, 0
7, 34440, Note_on_c, 5, 60, 47
7, 34485, Note_on_c, 5, 60, 0
7, 34500, Note_on_c, 5, 60, 47
7, 34545, Note_on_c, 5, 60, 0
7, 34560, Note_on_c, 5, 59, 85
7, 34860, Note_on_c, 5, 59, 0
7, 34860, Note_on_c, 5, 59, 61
7, 34875, Note_on_c, 5, 59, 0
7, 34875, Note_on_c, 5, 60, 61
7, 34890, Note_on_c, 5, 60, 0
7, 34890, Note_on_c, 5, 57, 61
7, 34905, Note_on_c, 5, 57, 0
7, 34905, Note_on_c, 5, 59, 61
7, 34920, Note_on_c, 5, 59, 0
7, 34920, Note_on_c, 5, 60, 61
7, 34980, Note_on_c, 5, 60, 0
7, 34980, Note_on_c, 5, 57, 61
7, 35040, Note_on_c, 5, 57, 0
7, 35040, Note_on_c, 5, 67, 85
7, 35340, Note_on_c, 5, 67, 0
7, 35340, Note_on_c, 5, 67, 61
7, 35355, Note_on_c, 5, 67, 0
7, 35355, Note_on_c, 5, 69, 61
7, 35370, Note_on_c, 5, 69, 0
7, 35370, Note_on_c, 5, 66, 61
7, 35385, Note_on_c, 5, 66, 0
7, 35385, Note_on_c, 5, 67, 61
7, 35400, Note_on_c, 5, 67, 0
7, 35400, Note_on_c, 5, 69, 61
7, 35460, Note_on_c, 5, 69, 0
7, 35460, Note_on_c, 5, 66, 61
7, 35520, Note_on_c, 5, 66, 0
7, 35520, Note_on_c, 5, 71, 53
7, 35540, Note_on_c, 5, 71, 0
7, 35550, Note_on_c, 5, 71, 53
7, 35570, Note_on_c, 5, 71, 0
7, 35580, Note_on_c, 5, 71, 55
7, 35600, Note_on_c, 5, 71, 0
7, 35610, Note_on_c, 5, 71, 55
7, 35630, Note_on_c, 5, 71, 0
7, 35640, Note_on_c, 5, 71, 55
7, 35660, Note_on_c, 5, 71, 0
7, 35670, Note_on_c, 5, 71, 56
7, 35690, Note_on_c, 5, 71, 0
7, 35700, Note_on_c, 5, 71, 56
7, 35720, Note_on_c, 5, 71, 0
7, 35730, Note_on_c, 5, 71, 58
7, 35750, Note_on_c, 5, 71, 0
7, 35760, Note_on_c, 5, 72, 58
7, 35780, Note_on_c, 5, 72, 0
7, 35790, Note_on_c, 5, 72, 59
7, 35810, Note_on_c, 5, 72, 0
7, 35820, Note_on_c, 5, 72, 59
7, 35840, Note_on_c, 5, 72, 0
7, 35850, Note_on_c, 5, 72, 61
7, 35870, Note_on_c, 5, 72, 0
7, 35880, Note_on_c, 5, 74, 61
7, 35900, Note_on_c, 5, 74, 0
7, 35910, Note_on_c, 5, 74, 62
7, 35930, Note_on_c, 5, 74, 0
7, 35940, Note_on_c, 5, 74, 62
7, 35960, Note_on_c, 5, 74, 0
7, 35970, Note_on_c, 5, 74, 64
7, 35990, Note_on_c, 5, 74, 0
7, 36000, Note_on_c, 5, 71, 64
7, 36020, Note_on_c, 5, 71, 0
7, 36030, Note_on_c, 5, 71, 65
7, 36050, Note_on_c, 5, 71, 0
7, 36060, Note_on_c, 5, 71, 65
7, 36080, Note_on_c, 5, 71, 0
7, 36090, Note_on_c, 5, 71, 67
7, 36110, Note_on_c, 5, 71, 0
7, 36120, Note_on_c, 5, 74, 67
7, 36140, Note_on_c, 5, 74, 0
7, 36150, Note_on_c, 5, 74, 68
7, 36170, Note_on_c, 5, 74, 0
7, 36180, Note_on_c, 5, 74, 68
7, 36200, Note_on_c, 5, 74, 0
7, 36210, Note_on_c, 5, 74, 70
7, 36230, Note_on_c, 5, 74, 0
7, 36240, Note_on_c, 5, 74, 70
7, 36260, Note_on_c, 5, 74, 0
7, 36270, Note_on_c, 5, 74, 71
7, 36290, Note_on_c, 5, 74, 0
7, 36300, Note_on_c, 5, 74, 71
7, 36320, Note_on_c, 5, 74, 0
7, 36330, Note_on_c, 5, 74, 73
7, 36350, Note_on_c, 5, 74, 0
7, 36360, Note_on_c, 5, 79, 73
7, 36380, Note_on_c, 5, 79, 0
7, 36390, Note_on_c, 5, 79, 73
7, 36410, Note_on_c, 5, 79, 0
7, 36420, Note_on_c, 5, 79, 74
7, 36440, Note_on_c, 5, 79, 0
7, 36450, Note_on_c, 5, 79, 74
7, 36470, Note_on_c, 5, 79, 0
7, 36480, Note_on_c, 5, 78, 85
7, 36500, Note_on_c, 5, 78, 0
7, 36510, Note_on_c, 5, 78, 85
7, 36530, Note_on_c, 5, 78, 0
7, 36540, Note_on_c, 5, 78, 85
7, 36560, Note_on_c, 5, 78, 0
7, 36570, Note_on_c, 5, 78, 85
7, 36590, Note_on_c, 5, 78, 0
7, 36600, Note_on_c, 5, 78, 85
7, 36620, Note_on_c, 5, 78, 0
7, 36630, Note_on_c, 5, 78, 85
7, 36650, Note_on_c, 5, 78, 0
7, 36660, Note_on_c, 5, 78, 85
7, 36680, Note_on_c, 5, 78, 0
7, 36690, Note_on_c, 5, 78, 85
7, 36710, Note_on_c, 5, 78, 0
7, 36720, Note_on_c, 5, 79, 85
7, 36740, Note_on_c, 5, 79, 0
7, 36750, Note_on_c, 5, 79, 85
7, 36770, Note_on_c, 5, 79, 0
7, 36780, Note_on_c, 5, 79, 85
7, 36800, Note_on_c, 5, 79, 0
7, 36810, Note_on_c, 5, 79, 85
7, 36830, Note_on_c, 5, 79, 0
7, 36840, Note_on_c, 5, 79, 85
7, 36860, Note_on_c, 5, 79, 0
7, 36870, Note_on_c, 5, 79, 85
7, 36890, Note_on_c, 5, 79, 0
7, 36900, Note_on_c, 5, 79, 85
7, 36920, Note_on_c, 5, 79, 0
7, 36930, Note_on_c, 5, 79, 85
7, 36950, Note_on_c, 5, 79, 0
7, 36960, Note_on_c, 5, 78, 85
7, 36980, Note_on_c, 5, 78, 0
7, 36990, Note_on_c, 5, 78, 85
7, 37010, Note_on_c, 5, 78, 0
7, 37020, Note_on_c, 5, 78, 85
7, 37040, Note_on_c, 5, 78, 0
7, 37050, Note_on_c, 5, 78, 85
7, 37070, Note_on_c, 5, 78, 0
7, 37080, Note_on_c, 5, 78, 85
7, 37100, Note_on_c, 5, 78, 0
7, 37110, Note_on_c, 5, 78, 85
7, 37130, Note_on_c, 5, 78, 0
7, 37140, Note_on_c, 5, 78, 85
7, 37160, Note_on_c, 5, 78, 0
7, 37170, Note_on_c, 5, 78, 85
7, 37190, Note_on_c, 5, 78, 0
7, 37200, Note_on_c, 5, 79, 85
7, 37220, Note_on_c, 5, 79, 0
7, 37230, Note_on_c, 5, 79, 85
7, 37250, Note_on_c, 5, 79, 0
7, 37260, Note_on_c, 5, 79, 85
7, 37280, Note_on_c, 5, 79, 0
7, 37290, Note_on_c, 5, 79, 85
7, 37310, Note_on_c, 5, 79, 0
7, 37320, Note_on_c, 5, 79, 85
7, 37340, Note_on_c, 5, 79, 0
7, 37350, Note_on_c, 5, 79, 85
7, 37370, Note_on_c, 5, 79, 0
7, 37380, Note_on_c, 5, 79, 85
7, 37400, Note_on_c, 5, 79, 0
7, 37410, Note_on_c, 5, 79, 85
7, 37430, Note_on_c, 5, 79, 0
7, 37440, Note_on_c, 5, 74, 85
7, 37470, Note_on_c, 5, 74, 0
7, 37500, Note_on_c, 5, 74, 85
7, 37590, Note_on_c, 5, 74, 0
7, 37620, Note_on_c, 5, 74, 85
7, 37710, Note_on_c, 5, 74, 0
7, 37740, Note_on_c, 5, 74, 85
7, 37830, Note_on_c, 5, 74, 0
7, 37860, Note_on_c, 5, 74, 85
7, 37950, Note_on_c, 5, 74, 0
7, 37980, Note_on_c, 5, 74, 85
7, 38070, Note_on_c, 5, 74, 0
7, 38100, Note_on_c, 5, 74, 85
7, 38190, Note_on_c, 5, 74, 0
7, 38220, Note_on_c, 5, 74, 85
7, 38310, Note_on_c, 5, 74, 0
7, 38340, Note_on_c, 5, 74, 85
7, 38400, Note_on_c, 5, 74, 0
7, 38400, Note_on_c, 5, 73, 85
7, 38420, Note_on_c, 5, 73, 0
7, 38430, Note_on_c, 5, 76, 85
7, 38430, Note_on_c, 5, 73, 85
7, 38450, Note_on_c, 5, 73, 0
7, 38450, Note_on_c, 5, 76, 0
7, 38460, Note_on_c, 5, 76, 85
7, 38460, Note_on_c, 5, 73, 85
7, 38480, Note_on_c, 5, 73, 0
7, 38480, Note_on_c, 5, 76, 0
7, 38490, Note_on_c, 5, 76, 85
7, 38490, Note_on_c, 5, 73, 85
7, 38510, Note_on_c, 5, 73, 0
7, 38510, Note_on_c, 5, 76, 0
7, 38520, Note_on_c, 5, 78, 85
7, 38520, Note_on_c, 5, 74, 85
7, 38540, Note_on_c, 5, 74, 0
7, 38540, Note_on_c, 5, 78, 0
7, 38550, Note_on_c, 5, 78, 85
7, 38550, Note_on_c, 5, 74, 85
7, 38570, Note_on_c, 5, 74, 0
7, 38570, Note_on_c, 5, 78, 0
7, 38580, Note_on_c, 5, 78, 85
7, 38580, Note_on_c, 5, 74, 85
7, 38600, Note_on_c, 5, 74, 0
7, 38600, Note_on_c, 5, 78, 0
7, 38610, Note_on_c, 5, 78, 85
7, 38610, Note_on_c, 5, 74, 85
7, 38630, Note_on_c, 5, 74, 0
7, 38630, Note_on_c, 5, 78, 0
7, 38640, Note_on_c, 5, 73, 85
7, 38640, Note_on_c, 5, 76, 85
7, 38660, Note_on_c, 5, 76, 0
7, 38660, Note_on_c, 5, 73, 0
7, 38670, Note_on_c, 5, 73, 85
7, 38670, Note_on_c, 5, 76, 85
7, 38690, Note_on_c, 5, 76, 0
7, 38690, Note_on_c, 5, 73, 0
7, 38700, Note_on_c, 5, 73, 85
7, 38700, Note_on_c, 5, 76, 85
7, 38720, Note_on_c, 5, 76, 0
7, 38720, Note_on_c, 5, 73, 0
7, 38730, Note_on_c, 5, 73, 85
7, 38730, Note_on_c, 5, 76, 85
7, 38750, Note_on_c, 5, 76, 0
7, 38750, Note_on_c, 5, 73, 0
7, 38760, Note_on_c, 5, 78, 85
7, 38760, Note_on_c, 5, 74, 85
7, 38780, Note_on_c, 5, 74, 0
7, 38780, Note_on_c, 5, 78, 0
7, 38790, Note_on_c, 5, 78, 85
7, 38790, Note_on_c, 5, 74, 85
7, 38810, Note_on_c, 5, 74, 0
7, 38810, Note_on_c, 5, 78, 0
7, 38820, Note_on_c, 5, 78, 85
7, 38820, Note_on_c, 5, 74, 85
7, 38840, Note_on_c, 5, 74, 0
7, 38840, Note_on_c, 5, 78, 0
7, 38850, Note_on_c, 5, 78, 85
7, 38850, Note_on_c, 5, 74, 85
7, 38870, Note_on_c, 5, 74, 0
7, 38870, Note_on_c, 5, 78, 0
7, 38885, Note_on_c, 5, 76, 85
7, 38885, Note_on_c, 5, 73, 85
7, 38930, Note_on_c, 5, 73, 0
7, 38930, Note_on_c, 5, 76, 0
7, 38945, Note_on_c, 5, 69, 85
7, 38990, Note_on_c, 5, 69, 0
7, 39005, Note_on_c, 5, 69, 85
7, 39050, Note_on_c, 5, 69, 0
7, 39065, Note_on_c, 5, 69, 85
7, 39110, Note_on_c, 5, 69, 0
7, 39125, Note_on_c, 5, 69, 85
7, 39245, Note_on_c, 5, 69, 0
7, 39360, Note_on_c, 5, 69, 55
7, 39540, Note_on_c, 5, 69, 0
7, 39540, Note_on_c, 5, 67, 55
7, 39560, Note_on_c, 5, 67, 0
7, 39560, Note_on_c, 5, 66, 55
7, 39580, Note_on_c, 5, 66, 0
7, 39580, Note_on_c, 5, 64, 55
7, 39600, Note_on_c, 5, 64, 0
7, 39600, Note_on_c, 5, 62, 55
7, 39660, Note_on_c, 5, 62, 0
7, 39720, Note_on_c, 5, 71, 55
7, 39780, Note_on_c, 5, 71, 0
7, 39840, Note_on_c, 5, 67, 55
7, 39900, Note_on_c, 5, 67, 0
7, 39960, Note_on_c, 5, 64, 55
7, 40020, Note_on_c, 5, 64, 0
7, 40080, Note_on_c, 5, 69, 55
7, 40140, Note_on_c, 5, 69, 0
7, 40320, Note_on_c, 5, 66, 55
7, 40500, Note_on_c, 5, 66, 0
7, 40500, Note_on_c, 5, 64, 55
7, 40520, Note_on_c, 5, 64, 0
7, 40520, Note_on_c, 5, 62, 55
7, 40540, Note_on_c, 5, 62, 0
7, 40540, Note_on_c, 5, 61, 55
7, 40560, Note_on_c, 5, 61, 0
7, 40560, Note_on_c, 5, 59, 55
7, 40620, Note_on_c, 5, 59, 0
7, 40680, Note_on_c, 5, 67, 55
7, 40740, Note_on_c, 5, 67, 0
7, 40800, Note_on_c, 5, 66, 55
7, 41040, Note_on_c, 5, 66, 0
7, 41040, Note_on_c, 5, 64, 55
7, 41160, Note_on_c, 5, 64, 0
7, 41280, Note_on_c, 5, 69, 55
7, 41460, Note_on_c, 5, 69, 0
7, 41460, Note_on_c, 5, 67, 55
7, 41480, Note_on_c, 5, 67, 0
7, 41480, Note_on_c, 5, 66, 55
7, 41500, Note_on_c, 5, 66, 0
7, 41500, Note_on_c, 5, 64, 55
7, 41520, Note_on_c, 5, 64, 0
7, 41520, Note_on_c, 5, 62, 55
7, 41580, Note_on_c, 5, 62, 0
7, 41640, Note_on_c, 5, 71, 55
7, 41700, Note_on_c, 5, 71, 0
7, 41760, Note_on_c, 5, 67, 55
7, 41820, Note_on_c, 5, 67, 0
7, 41880, Note_on_c, 5, 64, 55
7, 41940, Note_on_c, 5, 64, 0
7, 42000, Note_on_c, 5, 69, 55
7, 42060, Note_on_c, 5, 69, 0
7, 42165, Note_on_c, 5, 67, 55
7, 42210, Note_on_c, 5, 67, 0
7, 42240, Note_on_c, 5, 67, 55
7, 42300, Note_on_c, 5, 67, 0
7, 42300, Note_on_c, 5, 66, 55
7, 42360, Note_on_c, 5, 66, 0
7, 42420, Note_on_c, 5, 79, 55
7, 42450, Note_on_c, 5, 79, 0
7, 42480, Note_on_c, 5, 79, 55
7, 42540, Note_on_c, 5, 79, 0
7, 42540, Note_on_c, 5, 78, 55
7, 42600, Note_on_c, 5, 78, 0
7, 42660, Note_on_c, 5, 67, 55
7, 42705, Note_on_c, 5, 67, 0
7, 42720, Note_on_c, 5, 66, 55
7, 42765, Note_on_c, 5, 66, 0
7, 42780, Note_on_c, 5, 66, 55
7, 42825, Note_on_c, 5, 66, 0
7, 42840, Note_on_c, 5, 67, 55
7, 42885, Note_on_c, 5, 67, 0
7, 42900, Note_on_c, 5, 67, 55
7, 42945, Note_on_c, 5, 67, 0
7, 42960, Note_on_c, 5, 69, 55
7, 43005, Note_on_c, 5, 69, 0
7, 43020, Note_on_c, 5, 69, 55
7, 43065, Note_on_c, 5, 69, 0
7, 43080, Note_on_c, 5, 66, 55
7, 43125, Note_on_c, 5, 66, 0
7, 43140, Note_on_c, 5, 66, 55
7, 43185, Note_on_c, 5, 66, 0
7, 43200, Note_on_c, 5, 64, 55
7, 43245, Note_on_c, 5, 64, 0
7, 43260, Note_on_c, 5, 64, 55
7, 43305, Note_on_c, 5, 64, 0
7, 43320, Note_on_c, 5, 66, 55
7, 43365, Note_on_c, 5, 66, 0
7, 43380, Note_on_c, 5, 66, 55
7, 43425, Note_on_c, 5, 66, 0
7, 43440, Note_on_c, 5, 67, 55
7, 43485, Note_on_c, 5, 67, 0
7, 43500, Note_on_c, 5, 67, 55
7, 43545, Note_on_c, 5, 67, 0
7, 43560, Note_on_c, 5, 64, 55
7, 43605, Note_on_c, 5, 64, 0
7, 43620, Note_on_c, 5, 64, 55
7, 43665, Note_on_c, 5, 64, 0
7, 43680, Note_on_c, 5, 66, 55
7, 43725, Note_on_c, 5, 66, 0
7, 43740, Note_on_c, 5, 66, 55
7, 43785, Note_on_c, 5, 66, 0
7, 43800, Note_on_c, 5, 67, 55
7, 43845, Note_on_c, 5, 67, 0
7, 43860, Note_on_c, 5, 67, 55
7, 43905, Note_on_c, 5, 67, 0
7, 43920, Note_on_c, 5, 69, 55
7, 43965, Note_on_c, 5, 69, 0
7, 43980, Note_on_c, 5, 69, 55
7, 44025, Note_on_c, 5, 69, 0
7, 44040, Note_on_c, 5, 66, 55
7, 44085, Note_on_c, 5, 66, 0
7, 44100, Note_on_c, 5, 66, 55
7, 44145, Note_on_c, 5, 66, 0
7, 44160, Note_on_c, 5, 64, 55
7, 44205, Note_on_c, 5, 64, 0
7, 44220, Note_on_c, 5, 64, 55
7, 44265, Note_on_c, 5, 64, 0
7, 44280, Note_on_c, 5, 66, 55
7, 44325, Note_on_c, 5, 66, 0
7, 44340, Note_on_c, 5, 66, 55
7, 44385, Note_on_c, 5, 66, 0
7, 44400, Note_on_c, 5, 67, 55
7, 44445, Note_on_c, 5, 67, 0
7, 44460, Note_on_c, 5, 67, 55
7, 44505, Note_on_c, 5, 67, 0
7, 44520, Note_on_c, 5, 64, 55
7, 44565, Note_on_c, 5, 64, 0
7, 44580, Note_on_c, 5, 64, 55
7, 44625, Note_on_c, 5, 64, 0
7, 44640, Note_on_c, 5, 66, 55
7, 44760, Note_on_c, 5, 66, 0
7, 44880, Note_on_c, 5, 78, 85
7, 44880, Note_on_c, 5, 71, 85
7, 45120, Note_on_c, 5, 71, 0
7, 45120, Note_on_c, 5, 78, 0
7, 45120, Note_on_c, 5, 76, 85
7, 45240, Note_on_c, 5, 76, 0
7, 45360, Note_on_c, 5, 69, 85
7, 45360, Note_on_c, 5, 76, 85
7, 45600, Note_on_c, 5, 76, 0
7, 45600, Note_on_c, 5, 69, 0
7, 45600, Note_on_c, 5, 74, 85
7, 45645, Note_on_c, 5, 74, 0
7, 45660, Note_on_c, 5, 78, 85
7, 45690, Note_on_c, 5, 78, 0
7, 45720, Note_on_c, 5, 79, 85
7, 45750, Note_on_c, 5, 79, 0
7, 45780, Note_on_c, 5, 81, 85
7, 45810, Note_on_c, 5, 81, 0
7, 45840, Note_on_c, 5, 79, 85
7, 45900, Note_on_c, 5, 79, 0
7, 45900, Note_on_c, 5, 81, 85
7, 45930, Note_on_c, 5, 81, 0
7, 45930, Note_on_c, 5, 83, 85
7, 45960, Note_on_c, 5, 83, 0
7, 45960, Note_on_c, 5, 81, 85
7, 46005, Note_on_c, 5, 81, 0
7, 46020, Note_on_c, 5, 79, 85
7, 46050, Note_on_c, 5, 79, 0
7, 46080, Note_on_c, 5, 79, 85
7, 46140, Note_on_c, 5, 79, 0
7, 46140, Note_on_c, 5, 78, 85
7, 46185, Note_on_c, 5, 78, 0
7, 46200, Note_on_c, 5, 74, 85
7, 46230, Note_on_c, 5, 74, 0
7, 46260, Note_on_c, 5, 78, 85
7, 46290, Note_on_c, 5, 78, 0
7, 46320, Note_on_c, 5, 78, 85
7, 46380, Note_on_c, 5, 78, 0
7, 46380, Note_on_c, 5, 76, 85
7, 46425, Note_on_c, 5, 76, 0
7, 46440, Note_on_c, 5, 74, 85
7, 46470, Note_on_c, 5, 74, 0
7, 46500, Note_on_c, 5, 73, 85
7, 46530, Note_on_c, 5, 73, 0
7, 46560, Note_on_c, 5, 74, 85
7, 46605, Note_on_c, 5, 74, 0
7, 46620, Note_on_c, 5, 66, 53
7, 46665, Note_on_c, 5, 66, 0
7, 46680, Note_on_c, 5, 67, 53
7, 46725, Note_on_c, 5, 67, 0
7, 46740, Note_on_c, 5, 67, 53
7, 46785, Note_on_c, 5, 67, 0
7, 46800, Note_on_c, 5, 69, 53
7, 46845, Note_on_c, 5, 69, 0
7, 46860, Note_on_c, 5, 69, 53
7, 46905, Note_on_c, 5, 69, 0
7, 46920, Note_on_c, 5, 66, 53
7, 46965, Note_on_c, 5, 66, 0
7, 46980, Note_on_c, 5, 66, 53
7, 47025, Note_on_c, 5, 66, 0
7, 47040, Note_on_c, 5, 64, 55
7, 47085, Note_on_c, 5, 64, 0
7, 47100, Note_on_c, 5, 64, 55
7, 47145, Note_on_c, 5, 64, 0
7, 47160, Note_on_c, 5, 66, 55
7, 47205, Note_on_c, 5, 66, 0
7, 47220, Note_on_c, 5, 66, 55
7, 47265, Note_on_c, 5, 66, 0
7, 47280, Note_on_c, 5, 67, 55
7, 47325, Note_on_c, 5, 67, 0
7, 47340, Note_on_c, 5, 67, 55
7, 47385, Note_on_c, 5, 67, 0
7, 47400, Note_on_c, 5, 64, 55
7, 47445, Note_on_c, 5, 64, 0
7, 47460, Note_on_c, 5, 64, 55
7, 47505, Note_on_c, 5, 64, 0
7, 47520, Note_on_c, 5, 66, 55
7, 47565, Note_on_c, 5, 66, 0
7, 47580, Note_on_c, 5, 66, 55
7, 47625, Note_on_c, 5, 66, 0
7, 47640, Note_on_c, 5, 67, 55
7, 47685, Note_on_c, 5, 67, 0
7, 47700, Note_on_c, 5, 67, 55
7, 47745, Note_on_c, 5, 67, 0
7, 47760, Note_on_c, 5, 69, 55
7, 47805, Note_on_c, 5, 69, 0
7, 47820, Note_on_c, 5, 69, 55
7, 47865, Note_on_c, 5, 69, 0
7, 47880, Note_on_c, 5, 66, 55
7, 47925, Note_on_c, 5, 66, 0
7, 47940, Note_on_c, 5, 66, 55
7, 47985, Note_on_c, 5, 66, 0
7, 48000, Note_on_c, 5, 64, 55
7, 48045, Note_on_c, 5, 64, 0
7, 48060, Note_on_c, 5, 64, 55
7, 48105, Note_on_c, 5, 64, 0
7, 48120, Note_on_c, 5, 66, 55
7, 48165, Note_on_c, 5, 66, 0
7, 48180, Note_on_c, 5, 66, 55
7, 48225, Note_on_c, 5, 66, 0
7, 48240, Note_on_c, 5, 67, 55
7, 48285, Note_on_c, 5, 67, 0
7, 48300, Note_on_c, 5, 67, 55
7, 48345, Note_on_c, 5, 67, 0
7, 48360, Note_on_c, 5, 64, 55
7, 48405, Note_on_c, 5, 64, 0
7, 48420, Note_on_c, 5, 64, 55
7, 48465, Note_on_c, 5, 64, 0
7, 48480, Note_on_c, 5, 66, 58
7, 48600, Note_on_c, 5, 66, 0
7, 48720, Note_on_c, 5, 78, 85
7, 48720, Note_on_c, 5, 71, 85
7, 48960, Note_on_c, 5, 71, 0
7, 48960, Note_on_c, 5, 78, 0
7, 48960, Note_on_c, 5, 76, 85
7, 49080, Note_on_c, 5, 76, 0
7, 49200, Note_on_c, 5, 69, 85
7, 49200, Note_on_c, 5, 76, 85
7, 49440, Note_on_c, 5, 76, 0
7, 49440, Note_on_c, 5, 69, 0
7, 49440, Note_on_c, 5, 74, 85
7, 49485, Note_on_c, 5, 74, 0
7, 49500, Note_on_c, 5, 78, 85
7, 49530, Note_on_c, 5, 78, 0
7, 49560, Note_on_c, 5, 79, 85
7, 49590, Note_on_c, 5, 79, 0
7, 49620, Note_on_c, 5, 81, 85
7, 49650, Note_on_c, 5, 81, 0
7, 49680, Note_on_c, 5, 79, 85
7, 49740, Note_on_c, 5, 79, 0
7, 49740, Note_on_c, 5, 81, 85
7, 49770, Note_on_c, 5, 81, 0
7, 49770, Note_on_c, 5, 83, 85
7, 49800, Note_on_c, 5, 83, 0
7, 49800, Note_on_c, 5, 81, 85
7, 49845, Note_on_c, 5, 81, 0
7, 49860, Note_on_c, 5, 79, 85
7, 49890, Note_on_c, 5, 79, 0
7, 49920, Note_on_c, 5, 79, 85
7, 49980, Note_on_c, 5, 79, 0
7, 49980, Note_on_c, 5, 78, 85
7, 50025, Note_on_c, 5, 78, 0
7, 50040, Note_on_c, 5, 74, 85
7, 50070, Note_on_c, 5, 74, 0
7, 50100, Note_on_c, 5, 78, 85
7, 50130, Note_on_c, 5, 78, 0
7, 50160, Note_on_c, 5, 78, 85
7, 50220, Note_on_c, 5, 78, 0
7, 50220, Note_on_c, 5, 76, 85
7, 50265, Note_on_c, 5, 76, 0
7, 50280, Note_on_c, 5, 74, 85
7, 50310, Note_on_c, 5, 74, 0
7, 50340, Note_on_c, 5, 73, 85
7, 50370, Note_on_c, 5, 73, 0
7, 50400, Note_on_c, 5, 74, 85
7, 50445, Note_on_c, 5, 74, 0
7, 50460, Note_on_c, 5, 69, 85
7, 50505, Note_on_c, 5, 69, 0
7, 50520, Note_on_c, 5, 71, 85
7, 50565, Note_on_c, 5, 71, 0
7, 50580, Note_on_c, 5, 73, 85
7, 50625, Note_on_c, 5, 73, 0
7, 50640, Note_on_c, 5, 74, 85
7, 50670, Note_on_c, 5, 74, 0
7, 50700, Note_on_c, 5, 74, 85
7, 50730, Note_on_c, 5, 74, 0
7, 50760, Note_on_c, 5, 76, 85
7, 50775, Note_on_c, 5, 76, 0
7, 50775, Note_on_c, 5, 78, 85
7, 50790, Note_on_c, 5, 78, 0
7, 50790, Note_on_c, 5, 76, 85
7, 50805, Note_on_c, 5, 76, 0
7, 50805, Note_on_c, 5, 78, 85
7, 50820, Note_on_c, 5, 78, 0
7, 50820, Note_on_c, 5, 74, 85
7, 50850, Note_on_c, 5, 74, 0
7, 50850, Note_on_c, 5, 76, 85
7, 50880, Note_on_c, 5, 76, 0
7, 50880, Note_on_c, 5, 78, 85
7, 50940, Note_on_c, 5, 78, 0
7, 50940, Note_on_c, 5, 73, 85
7, 50985, Note_on_c, 5, 73, 0
7, 51000, Note_on_c, 5, 74, 85
7, 51045, Note_on_c, 5, 74, 0
7, 51060, Note_on_c, 5, 76, 85
7, 51105, Note_on_c, 5, 76, 0
7, 51120, Note_on_c, 5, 78, 85
7, 51165, Note_on_c, 5, 78, 0
7, 51180, Note_on_c, 5, 78, 85
7, 51225, Note_on_c, 5, 78, 0
7, 51240, Note_on_c, 5, 79, 85
7, 51255, Note_on_c, 5, 79, 0
7, 51255, Note_on_c, 5, 81, 85
7, 51270, Note_on_c, 5, 81, 0
7, 51270, Note_on_c, 5, 79, 85
7, 51285, Note_on_c, 5, 79, 0
7, 51285, Note_on_c, 5, 81, 85
7, 51300, Note_on_c, 5, 81, 0
7, 51300, Note_on_c, 5, 78, 85
7, 51330, Note_on_c, 5, 78, 0
7, 51330, Note_on_c, 5, 79, 85
7, 51360, Note_on_c, 5, 79, 0
7, 51360, Note_on_c, 5, 81, 85
7, 51405, Note_on_c, 5, 81, 0
7, 51420, Note_on_c, 5, 81, 85
7, 51465, Note_on_c, 5, 81, 0
7, 51480, Note_on_c, 5, 82, 85
7, 51495, Note_on_c, 5, 82, 0
7, 51495, Note_on_c, 5, 83, 85
7, 51510, Note_on_c, 5, 83, 0
7, 51510, Note_on_c, 5, 82, 85
7, 51525, Note_on_c, 5, 82, 0
7, 51525, Note_on_c, 5, 83, 85
7, 51540, Note_on_c, 5, 83, 0
7, 51540, Note_on_c, 5, 80, 85
7, 51570, Note_on_c, 5, 80, 0
7, 51570, Note_on_c, 5, 82, 85
7, 51600, Note_on_c, 5, 82, 0
7, 51600, Note_on_c, 5, 83, 85
7, 51720, Note_on_c, 5, 83, 0
7, 51840, Note_on_c, 5, 67, 55
7, 52320, Note_on_c, 5, 67, 0
7, 52320, Note_on_c, 5, 66, 55
7, 52380, Note_on_c, 5, 66, 0
7, 52440, Note_on_c, 5, 69, 55
7, 52500, Note_on_c, 5, 69, 0
7, 52560, Note_on_c, 5, 66, 55
7, 52620, Note_on_c, 5, 66, 0
7, 52810, Note_on_c, 5, 62, 89
7, 52810, Note_on_c, 5, 74, 89
7, 52930, Note_on_c, 5, 74, 0
7, 52930, Note_on_c, 5, 62, 0
7, 52990, Note_on_c, 5, 69, 89
7, 53035, Note_on_c, 5, 69, 0
7, 53050, Note_on_c, 5, 74, 89
7, 53170, Note_on_c, 5, 74, 0
7, 53230, Note_on_c, 5, 69, 89
7, 53275, Note_on_c, 5, 69, 0
7, 53290, Note_on_c, 5, 74, 89
7, 53335, Note_on_c, 5, 74, 0
7, 53350, Note_on_c, 5, 69, 89
7, 53395, Note_on_c, 5, 69, 0
7, 53410, Note_on_c, 5, 74, 89
7, 53455, Note_on_c, 5, 74, 0
7, 53470, Note_on_c, 5, 78, 89
7, 53515, Note_on_c, 5, 78, 0
7, 53530, Note_on_c, 5, 81, 89
7, 53650, Note_on_c, 5, 81, 0
7, 53770, Note_on_c, 5, 81, 89
7, 53890, Note_on_c, 5, 81, 0
7, 53950, Note_on_c, 5, 78, 89
7, 53995, Note_on_c, 5, 78, 0
7, 54010, Note_on_c, 5, 81, 89
7, 54130, Note_on_c, 5, 81, 0
7, 54190, Note_on_c, 5, 78, 89
7, 54235, Note_on_c, 5, 78, 0
7, 54250, Note_on_c, 5, 81, 89
7, 54295, Note_on_c, 5, 81, 0
7, 54310, Note_on_c, 5, 78, 89
7, 54355, Note_on_c, 5, 78, 0
7, 54370, Note_on_c, 5, 75, 89
7, 54415, Note_on_c, 5, 75, 0
7, 54430, Note_on_c, 5, 78, 89
7, 54475, Note_on_c, 5, 78, 0
7, 54490, Note_on_c, 5, 71, 89
7, 54610, Note_on_c, 5, 71, 0
7, 54720, Note_on_c, 5, 64, 55
7, 54765, Note_on_c, 5, 64, 0
7, 54780, Note_on_c, 5, 64, 55
7, 54825, Note_on_c, 5, 64, 0
7, 54840, Note_on_c, 5, 65, 55
7, 54885, Note_on_c, 5, 65, 0
7, 54900, Note_on_c, 5, 65, 55
7, 54945, Note_on_c, 5, 65, 0
7, 54960, Note_on_c, 5, 67, 55
7, 55005, Note_on_c, 5, 67, 0
7, 55020, Note_on_c, 5, 67, 55
7, 55065, Note_on_c, 5, 67, 0
7, 55080, Note_on_c, 5, 64, 55
7, 55125, Note_on_c, 5, 64, 0
7, 55140, Note_on_c, 5, 64, 55
7, 55185, Note_on_c, 5, 64, 0
7, 55200, Note_on_c, 5, 62, 55
7, 55245, Note_on_c, 5, 62, 0
7, 55260, Note_on_c, 5, 62, 55
7, 55305, Note_on_c, 5, 62, 0
7, 55320, Note_on_c, 5, 64, 55
7, 55365, Note_on_c, 5, 64, 0
7, 55380, Note_on_c, 5, 64, 55
7, 55425, Note_on_c, 5, 64, 0
7, 55440, Note_on_c, 5, 65, 55
7, 55485, Note_on_c, 5, 65, 0
7, 55500, Note_on_c, 5, 65, 55
7, 55545, Note_on_c, 5, 65, 0
7, 55560, Note_on_c, 5, 62, 55
7, 55605, Note_on_c, 5, 62, 0
7, 55620, Note_on_c, 5, 62, 55
7, 55665, Note_on_c, 5, 62, 0
7, 55680, Note_on_c, 5, 64, 55
7, 55725, Note_on_c, 5, 64, 0
7, 55740, Note_on_c, 5, 64, 55
7, 55785, Note_on_c, 5, 64, 0
7, 55800, Note_on_c, 5, 65, 55
7, 55845, Note_on_c, 5, 65, 0
7, 55860, Note_on_c, 5, 65, 55
7, 55905, Note_on_c, 5, 65, 0
7, 55920, Note_on_c, 5, 67, 55
7, 55965, Note_on_c, 5, 67, 0
7, 55980, Note_on_c, 5, 67, 55
7, 56025, Note_on_c, 5, 67, 0
7, 56040, Note_on_c, 5, 64, 55
7, 56085, Note_on_c, 5, 64, 0
7, 56100, Note_on_c, 5, 64, 55
7, 56145, Note_on_c, 5, 64, 0
7, 56160, Note_on_c, 5, 62, 55
7, 56205, Note_on_c, 5, 62, 0
7, 56220, Note_on_c, 5, 62, 55
7, 56265, Note_on_c, 5, 62, 0
7, 56280, Note_on_c, 5, 64, 55
7, 56325, Note_on_c, 5, 64, 0
7, 56340, Note_on_c, 5, 64, 55
7, 56385, Note_on_c, 5, 64, 0
7, 56400, Note_on_c, 5, 65, 55
7, 56445, Note_on_c, 5, 65, 0
7, 56460, Note_on_c, 5, 65, 55
7, 56505, Note_on_c, 5, 65, 0
7, 56520, Note_on_c, 5, 62, 55
7, 56565, Note_on_c, 5, 62, 0
7, 56580, Note_on_c, 5, 62, 55
7, 56625, Note_on_c, 5, 62, 0
7, 56640, Note_on_c, 5, 64, 55
7, 56685, Note_on_c, 5, 64, 0
7, 56700, Note_on_c, 5, 64, 55
7, 56745, Note_on_c, 5, 64, 0
7, 56760, Note_on_c, 5, 65, 55
7, 56805, Note_on_c, 5, 65, 0
7, 56820, Note_on_c, 5, 65, 55
7, 56865, Note_on_c, 5, 65, 0
7, 56880, Note_on_c, 5, 67, 55
7, 56925, Note_on_c, 5, 67, 0
7, 56940, Note_on_c, 5, 67, 55
7, 56985, Note_on_c, 5, 67, 0
7, 57000, Note_on_c, 5, 64, 55
7, 57045, Note_on_c, 5, 64, 0
7, 57060, Note_on_c, 5, 64, 55
7, 57105, Note_on_c, 5, 64, 0
7, 57120, Note_on_c, 5, 62, 55
7, 57165, Note_on_c, 5, 62, 0
7, 57180, Note_on_c, 5, 62, 55
7, 57225, Note_on_c, 5, 62, 0
7, 57240, Note_on_c, 5, 64, 55
7, 57285, Note_on_c, 5, 64, 0
7, 57300, Note_on_c, 5, 64, 55
7, 57345, Note_on_c, 5, 64, 0
7, 57360, Note_on_c, 5, 65, 55
7, 57405, Note_on_c, 5, 65, 0
7, 57420, Note_on_c, 5, 65, 55
7, 57465, Note_on_c, 5, 65, 0
7, 57480, Note_on_c, 5, 62, 55
7, 57525, Note_on_c, 5, 62, 0
7, 57540, Note_on_c, 5, 62, 55
7, 57585, Note_on_c, 5, 62, 0
7, 57600, Note_on_c, 5, 60, 55
7, 57645, Note_on_c, 5, 60, 0
7, 57660, Note_on_c, 5, 60, 55
7, 57705, Note_on_c, 5, 60, 0
7, 57720, Note_on_c, 5, 62, 55
7, 57765, Note_on_c, 5, 62, 0
7, 57780, Note_on_c, 5, 62, 55
7, 57825, Note_on_c, 5, 62, 0
7, 57840, Note_on_c, 5, 64, 55
7, 57885, Note_on_c, 5, 64, 0
7, 57900, Note_on_c, 5, 64, 55
7, 57945, Note_on_c, 5, 64, 0
7, 57960, Note_on_c, 5, 60, 55
7, 58005, Note_on_c, 5, 60, 0
7, 58020, Note_on_c, 5, 60, 55
7, 58065, Note_on_c, 5, 60, 0
7, 58080, Note_on_c, 5, 60, 55
7, 58125, Note_on_c, 5, 60, 0
7, 58140, Note_on_c, 5, 60, 55
7, 58185, Note_on_c, 5, 60, 0
7, 58200, Note_on_c, 5, 62, 55
7, 58245, Note_on_c, 5, 62, 0
7, 58260, Note_on_c, 5, 62, 55
7, 58305, Note_on_c, 5, 62, 0
7, 58320, Note_on_c, 5, 63, 55
7, 58365, Note_on_c, 5, 63, 0
7, 58380, Note_on_c, 5, 63, 55
7, 58425, Note_on_c, 5, 63, 0
7, 58440, Note_on_c, 5, 60, 55
7, 58485, Note_on_c, 5, 60, 0
7, 58500, Note_on_c, 5, 60, 55
7, 58545, Note_on_c, 5, 60, 0
7, 58560, Note_on_c, 5, 58, 55
7, 58605, Note_on_c, 5, 58, 0
7, 58620, Note_on_c, 5, 58, 55
7, 58665, Note_on_c, 5, 58, 0
7, 58680, Note_on_c, 5, 57, 55
7, 58725, Note_on_c, 5, 57, 0
7, 58740, Note_on_c, 5, 57, 55
7, 58785, Note_on_c, 5, 57, 0
7, 58800, Note_on_c, 5, 58, 55
7, 58845, Note_on_c, 5, 58, 0
7, 58860, Note_on_c, 5, 58, 55
7, 58905, Note_on_c, 5, 58, 0
7, 58920, Note_on_c, 5, 69, 55
7, 58965, Note_on_c, 5, 69, 0
7, 58980, Note_on_c, 5, 69, 55
7, 59025, Note_on_c, 5, 69, 0
7, 59040, Note_on_c, 5, 70, 55
7, 59085, Note_on_c, 5, 70, 0
7, 59100, Note_on_c, 5, 70, 55
7, 59145, Note_on_c, 5, 70, 0
7, 59160, Note_on_c, 5, 69, 55
7, 59205, Note_on_c, 5, 69, 0
7, 59220, Note_on_c, 5, 69, 55
7, 59265, Note_on_c, 5, 69, 0
7, 59280, Note_on_c, 5, 70, 55
7, 59325, Note_on_c, 5, 70, 0
7, 59340, Note_on_c, 5, 70, 55
7, 59385, Note_on_c, 5, 70, 0
7, 59400, Note_on_c, 5, 69, 55
7, 59445, Note_on_c, 5, 69, 0
7, 59460, Note_on_c, 5, 67, 55
7, 59505, Note_on_c, 5, 67, 0
7, 59530, Note_on_c, 5, 66, 53
7, 59650, Note_on_c, 5, 66, 0
7, 59710, Note_on_c, 5, 62, 91
7, 59770, Note_on_c, 5, 62, 0
7, 59770, Note_on_c, 5, 64, 91
7, 59830, Note_on_c, 5, 64, 0
7, 59830, Note_on_c, 5, 66, 91
7, 59890, Note_on_c, 5, 66, 0
7, 59890, Note_on_c, 5, 67, 91
7, 59950, Note_on_c, 5, 67, 0
7, 59950, Note_on_c, 5, 69, 91
7, 60010, Note_on_c, 5, 69, 0
7, 60010, Note_on_c, 5, 72, 91
7, 60070, Note_on_c, 5, 72, 0
7, 60070, Note_on_c, 5, 70, 91
7, 60130, Note_on_c, 5, 70, 0
7, 60190, Note_on_c, 5, 66, 91
7, 60250, Note_on_c, 5, 66, 0
7, 60250, Note_on_c, 5, 67, 91
7, 60310, Note_on_c, 5, 67, 0
7, 60310, Note_on_c, 5, 69, 91
7, 60370, Note_on_c, 5, 69, 0
7, 60370, Note_on_c, 5, 70, 91
7, 60430, Note_on_c, 5, 70, 0
7, 60430, Note_on_c, 5, 73, 91
7, 60490, Note_on_c, 5, 73, 0
7, 60490, Note_on_c, 5, 76, 91
7, 60550, Note_on_c, 5, 76, 0
7, 60550, Note_on_c, 5, 74, 91
7, 60610, Note_on_c, 5, 74, 0
7, 60670, Note_on_c, 5, 62, 53
7, 60730, Note_on_c, 5, 62, 0
7, 60730, Note_on_c, 5, 64, 53
7, 60790, Note_on_c, 5, 64, 0
7, 60790, Note_on_c, 5, 66, 53
7, 60850, Note_on_c, 5, 66, 0
7, 60850, Note_on_c, 5, 67, 53
7, 60910, Note_on_c, 5, 67, 0
7, 60910, Note_on_c, 5, 69, 53
7, 60960, Note_on_c, 5, 70, 53
7, 60970, Note_on_c, 5, 69, 0
7, 61080, Note_on_c, 5, 70, 0
7, 61080, Note_on_c, 5, 71, 53
7, 61200, Note_on_c, 5, 71, 0
7, 61200, Note_on_c, 5, 72, 53
7, 61320, Note_on_c, 5, 72, 0
7, 61320, Note_on_c, 5, 73, 53
7, 61440, Note_on_c, 5, 73, 0
7, 61440, Note_on_c, 5, 74, 68
7, 61470, Note_on_c, 5, 74, 0
7, 61500, Note_on_c, 5, 74, 68
7, 61530, Note_on_c, 5, 74, 0
7, 61560, Note_on_c, 5, 74, 68
7, 61620, Note_on_c, 5, 74, 0
7, 61620, Note_on_c, 5, 76, 68
7, 61665, Note_on_c, 5, 76, 0
7, 61680, Note_on_c, 5, 72, 68
7, 61710, Note_on_c, 5, 72, 0
7, 61740, Note_on_c, 5, 72, 68
7, 61770, Note_on_c, 5, 72, 0
7, 61800, Note_on_c, 5, 72, 68
7, 61860, Note_on_c, 5, 72, 0
7, 61860, Note_on_c, 5, 74, 68
7, 61905, Note_on_c, 5, 74, 0
7, 61920, Note_on_c, 5, 71, 68
7, 61950, Note_on_c, 5, 71, 0
7, 61980, Note_on_c, 5, 71, 68
7, 62010, Note_on_c, 5, 71, 0
7, 62040, Note_on_c, 5, 71, 68
7, 62100, Note_on_c, 5, 71, 0
7, 62100, Note_on_c, 5, 74, 68
7, 62145, Note_on_c, 5, 74, 0
7, 62160, Note_on_c, 5, 74, 68
7, 62220, Note_on_c, 5, 74, 0
7, 62220, Note_on_c, 5, 72, 68
7, 62265, Note_on_c, 5, 72, 0
7, 62280, Note_on_c, 5, 71, 68
7, 62310, Note_on_c, 5, 71, 0
7, 62340, Note_on_c, 5, 69, 68
7, 62370, Note_on_c, 5, 69, 0
7, 62410, Note_on_c, 5, 79, 93
7, 62410, Note_on_c, 5, 71, 93
7, 62410, Note_on_c, 5, 62, 93
7, 62530, Note_on_c, 5, 62, 0
7, 62530, Note_on_c, 5, 71, 0
7, 62530, Note_on_c, 5, 79, 0
7, 62590, Note_on_c, 5, 74, 92
7, 62620, Note_on_c, 5, 74, 0
7, 62650, Note_on_c, 5, 79, 92
7, 62770, Note_on_c, 5, 79, 0
7, 62830, Note_on_c, 5, 74, 91
7, 62860, Note_on_c, 5, 74, 0
7, 62890, Note_on_c, 5, 79, 90
7, 62920, Note_on_c, 5, 79, 0
7, 62950, Note_on_c, 5, 74, 90
7, 62980, Note_on_c, 5, 74, 0
7, 63010, Note_on_c, 5, 79, 90
7, 63040, Note_on_c, 5, 79, 0
7, 63070, Note_on_c, 5, 83, 90
7, 63100, Note_on_c, 5, 83, 0
7, 63130, Note_on_c, 5, 86, 89
7, 63250, Note_on_c, 5, 86, 0
7, 63370, Note_on_c, 5, 84, 88
7, 63490, Note_on_c, 5, 84, 0
7, 63550, Note_on_c, 5, 81, 87
7, 63580, Note_on_c, 5, 81, 0
7, 63610, Note_on_c, 5, 84, 86
7, 63730, Note_on_c, 5, 84, 0
7, 63790, Note_on_c, 5, 81, 85
7, 63820, Note_on_c, 5, 81, 0
7, 63850, Note_on_c, 5, 84, 85
7, 63880, Note_on_c, 5, 84, 0
7, 63910, Note_on_c, 5, 81, 85
7, 63940, Note_on_c, 5, 81, 0
7, 63970, Note_on_c, 5, 78, 85
7, 64000, Note_on_c, 5, 78, 0
7, 64030, Note_on_c, 5, 81, 85
7, 64060, Note_on_c, 5, 81, 0
7, 64090, Note_on_c, 5, 74, 85
7, 64210, Note_on_c, 5, 74, 0
7, 64320, Note_on_c, 5, 59, 85
7, 64320, Note_on_c, 5, 62, 85
7, 64340, Note_on_c, 5, 62, 0
7, 64340, Note_on_c, 5, 59, 0
7, 64350, Note_on_c, 5, 59, 85
7, 64350, Note_on_c, 5, 62, 85
7, 64370, Note_on_c, 5, 62, 0
7, 64370, Note_on_c, 5, 59, 0
7, 64380, Note_on_c, 5, 59, 85
7, 64380, Note_on_c, 5, 62, 85
7, 64400, Note_on_c, 5, 62, 0
7, 64400, Note_on_c, 5, 59, 0
7, 64410, Note_on_c, 5, 59, 85
7, 64410, Note_on_c, 5, 62, 85
7, 64430, Note_on_c, 5, 62, 0
7, 64430, Note_on_c, 5, 59, 0
7, 64440, Note_on_c, 5, 59, 85
7, 64440, Note_on_c, 5, 62, 85
7, 64460, Note_on_c, 5, 62, 0
7, 64460, Note_on_c, 5, 59, 0
7, 64470, Note_on_c, 5, 59, 85
7, 64470, Note_on_c, 5, 62, 85
7, 64490, Note_on_c, 5, 62, 0
7, 64490, Note_on_c, 5, 59, 0
7, 64500, Note_on_c, 5, 59, 85
7, 64500, Note_on_c, 5, 62, 85
7, 64520, Note_on_c, 5, 62, 0
7, 64520, Note_on_c, 5, 59, 0
7, 64530, Note_on_c, 5, 59, 85
7, 64530, Note_on_c, 5, 62, 85
7, 64550, Note_on_c, 5, 62, 0
7, 64550, Note_on_c, 5, 59, 0
7, 64560, Note_on_c, 5, 59, 85
7, 64560, Note_on_c, 5, 62, 85
7, 64580, Note_on_c, 5, 62, 0
7, 64580, Note_on_c, 5, 59, 0
7, 64590, Note_on_c, 5, 59, 85
7, 64590, Note_on_c, 5, 62, 85
7, 64610, Note_on_c, 5, 62, 0
7, 64610, Note_on_c, 5, 59, 0
7, 64620, Note_on_c, 5, 59, 85
7, 64620, Note_on_c, 5, 62, 85
7, 64640, Note_on_c, 5, 62, 0
7, 64640, Note_on_c, 5, 59, 0
7, 64650, Note_on_c, 5, 59, 85
7, 64650, Note_on_c, 5, 62, 85
7, 64670, Note_on_c, 5, 62, 0
7, 64670, Note_on_c, 5, 59, 0
7, 64680, Note_on_c, 5, 59, 85
7, 64680, Note_on_c, 5, 62, 85
7, 64700, Note_on_c, 5, 62, 0
7, 64700, Note_on_c, 5, 59, 0
7, 64710, Note_on_c, 5, 59, 85
7, 64710, Note_on_c, 5, 62, 85
7, 64730, Note_on_c, 5, 62, 0
7, 64730, Note_on_c, 5, 59, 0
7, 64740, Note_on_c, 5, 59, 85
7, 64740, Note_on_c, 5, 62, 85
7, 64760, Note_on_c, 5, 62, 0
7, 64760, Note_on_c, 5, 59, 0
7, 64770, Note_on_c, 5, 59, 85
7, 64770, Note_on_c, 5, 62, 85
7, 64790, Note_on_c, 5, 62, 0
7, 64790, Note_on_c, 5, 59, 0
7, 64800, Note_on_c, 5, 60, 85
7, 64800, Note_on_c, 5, 62, 85
7, 64820, Note_on_c, 5, 62, 0
7, 64820, Note_on_c, 5, 60, 0
7, 64830, Note_on_c, 5, 60, 85
7, 64830, Note_on_c, 5, 62, 85
7, 64850, Note_on_c, 5, 62, 0
7, 64850, Note_on_c, 5, 60, 0
7, 64860, Note_on_c, 5, 60, 85
7, 64860, Note_on_c, 5, 62, 85
7, 64880, Note_on_c, 5, 62, 0
7, 64880, Note_on_c, 5, 60, 0
7, 64890, Note_on_c, 5, 60, 85
7, 64890, Note_on_c, 5, 62, 85
7, 64910, Note_on_c, 5, 62, 0
7, 64910, Note_on_c, 5, 60, 0
7, 64920, Note_on_c, 5, 60, 85
7, 64920, Note_on_c, 5, 62, 85
7, 64940, Note_on_c, 5, 62, 0
7, 64940, Note_on_c, 5, 60, 0
7, 64950, Note_on_c, 5, 60, 85
7, 64950, Note_on_c, 5, 62, 85
7, 64970, Note_on_c, 5, 62, 0
7, 64970, Note_on_c, 5, 60, 0
7, 64980, Note_on_c, 5, 60, 85
7, 64980, Note_on_c, 5, 62, 85
7, 65000, Note_on_c, 5, 62, 0
7, 65000, Note_on_c, 5, 60, 0
7, 65010, Note_on_c, 5, 60, 85
7, 65010, Note_on_c, 5, 62, 85
7, 65030, Note_on_c, 5, 62, 0
7, 65030, Note_on_c, 5, 60, 0
7, 65040, Note_on_c, 5, 60, 85
7, 65040, Note_on_c, 5, 62, 85
7, 65060, Note_on_c, 5, 62, 0
7, 65060, Note_on_c, 5, 60, 0
7, 65070, Note_on_c, 5, 60, 85
7, 65070, Note_on_c, 5, 62, 85
7, 65090, Note_on_c, 5, 62, 0
7, 65090, Note_on_c, 5, 60, 0
7, 65100, Note_on_c, 5, 60, 85
7, 65100, Note_on_c, 5, 62, 85
7, 65120, Note_on_c, 5, 62, 0
7, 65120, Note_on_c, 5, 60, 0
7, 65130, Note_on_c, 5, 60, 85
7, 65130, Note_on_c, 5, 62, 85
7, 65150, Note_on_c, 5, 62, 0
7, 65150, Note_on_c, 5, 60, 0
7, 65160, Note_on_c, 5, 60, 85
7, 65160, Note_on_c, 5, 62, 85
7, 65180, Note_on_c, 5, 62, 0
7, 65180, Note_on_c, 5, 60, 0
7, 65190, Note_on_c, 5, 60, 85
7, 65190, Note_on_c, 5, 62, 85
7, 65210, Note_on_c, 5, 62, 0
7, 65210, Note_on_c, 5, 60, 0
7, 65220, Note_on_c, 5, 60, 85
7, 65220, Note_on_c, 5, 62, 85
7, 65240, Note_on_c, 5, 62, 0
7, 65240, Note_on_c, 5, 60, 0
7, 65250, Note_on_c, 5, 60, 85
7, 65250, Note_on_c, 5, 62, 85
7, 65270, Note_on_c, 5, 62, 0
7, 65270, Note_on_c, 5, 60, 0
7, 65280, Note_on_c, 5, 59, 85
7, 65280, Note_on_c, 5, 62, 85
7, 65300, Note_on_c, 5, 62, 0
7, 65300, Note_on_c, 5, 59, 0
7, 65310, Note_on_c, 5, 59, 85
7, 65310, Note_on_c, 5, 62, 85
7, 65330, Note_on_c, 5, 62, 0
7, 65330, Note_on_c, 5, 59, 0
7, 65340, Note_on_c, 5, 59, 85
7, 65340, Note_on_c, 5, 62, 85
7, 65360, Note_on_c, 5, 62, 0
7, 65360, Note_on_c, 5, 59, 0
7, 65370, Note_on_c, 5, 59, 85
7, 65370, Note_on_c, 5, 62, 85
7, 65390, Note_on_c, 5, 62, 0
7, 65390, Note_on_c, 5, 59, 0
7, 65400, Note_on_c, 5, 59, 85
7, 65400, Note_on_c, 5, 62, 85
7, 65420, Note_on_c, 5, 62, 0
7, 65420, Note_on_c, 5, 59, 0
7, 65430, Note_on_c, 5, 59, 85
7, 65430, Note_on_c, 5, 62, 85
7, 65450, Note_on_c, 5, 62, 0
7, 65450, Note_on_c, 5, 59, 0
7, 65460, Note_on_c, 5, 59, 85
7, 65460, Note_on_c, 5, 62, 85
7, 65480, Note_on_c, 5, 62, 0
7, 65480, Note_on_c, 5, 59, 0
7, 65490, Note_on_c, 5, 59, 85
7, 65490, Note_on_c, 5, 62, 85
7, 65510, Note_on_c, 5, 62, 0
7, 65510, Note_on_c, 5, 59, 0
7, 65520, Note_on_c, 5, 59, 85
7, 65520, Note_on_c, 5, 62, 85
7, 65540, Note_on_c, 5, 62, 0
7, 65540, Note_on_c, 5, 59, 0
7, 65550, Note_on_c, 5, 59, 85
7, 65550, Note_on_c, 5, 62, 85
7, 65570, Note_on_c, 5, 62, 0
7, 65570, Note_on_c, 5, 59, 0
7, 65580, Note_on_c, 5, 59, 85
7, 65580, Note_on_c, 5, 62, 85
7, 65600, Note_on_c, 5, 62, 0
7, 65600, Note_on_c, 5, 59, 0
7, 65610, Note_on_c, 5, 59, 85
7, 65610, Note_on_c, 5, 62, 85
7, 65630, Note_on_c, 5, 62, 0
7, 65630, Note_on_c, 5, 59, 0
7, 65640, Note_on_c, 5, 59, 85
7, 65640, Note_on_c, 5, 62, 85
7, 65660, Note_on_c, 5, 62, 0
7, 65660, Note_on_c, 5, 59, 0
7, 65670, Note_on_c, 5, 59, 85
7, 65670, Note_on_c, 5, 62, 85
7, 65690, Note_on_c, 5, 62, 0
7, 65690, Note_on_c, 5, 59, 0
7, 65700, Note_on_c, 5, 59, 85
7, 65700, Note_on_c, 5, 62, 85
7, 65720, Note_on_c, 5, 62, 0
7, 65720, Note_on_c, 5, 59, 0
7, 65730, Note_on_c, 5, 59, 85
7, 65730, Note_on_c, 5, 62, 85
7, 65750, Note_on_c, 5, 62, 0
7, 65750, Note_on_c, 5, 59, 0
7, 65760, Note_on_c, 5, 60, 85
7, 65760, Note_on_c, 5, 62, 85
7, 65780, Note_on_c, 5, 62, 0
7, 65780, Note_on_c, 5, 60, 0
7, 65790, Note_on_c, 5, 60, 85
7, 65790, Note_on_c, 5, 62, 85
7, 65810, Note_on_c, 5, 62, 0
7, 65810, Note_on_c, 5, 60, 0
7, 65820, Note_on_c, 5, 60, 85
7, 65820, Note_on_c, 5, 62, 85
7, 65840, Note_on_c, 5, 62, 0
7, 65840, Note_on_c, 5, 60, 0
7, 65850, Note_on_c, 5, 60, 85
7, 65850, Note_on_c, 5, 62, 85
7, 65870, Note_on_c, 5, 62, 0
7, 65870, Note_on_c, 5, 60, 0
7, 65880, Note_on_c, 5, 60, 85
7, 65880, Note_on_c, 5, 62, 85
7, 65900, Note_on_c, 5, 62, 0
7, 65900, Note_on_c, 5, 60, 0
7, 65910, Note_on_c, 5, 60, 85
7, 65910, Note_on_c, 5, 62, 85
7, 65930, Note_on_c, 5, 62, 0
7, 65930, Note_on_c, 5, 60, 0
7, 65940, Note_on_c, 5, 60, 85
7, 65940, Note_on_c, 5, 62, 85
7, 65960, Note_on_c, 5, 62, 0
7, 65960, Note_on_c, 5, 60, 0
7, 65970, Note_on_c, 5, 60, 85
7, 65970, Note_on_c, 5, 62, 85
7, 65990, Note_on_c, 5, 62, 0
7, 65990, Note_on_c, 5, 60, 0
7, 66000, Note_on_c, 5, 60, 85
7, 66000, Note_on_c, 5, 62, 85
7, 66020, Note_on_c, 5, 62, 0
7, 66020, Note_on_c, 5, 60, 0
7, 66030, Note_on_c, 5, 60, 85
7, 66030, Note_on_c, 5, 62, 85
7, 66050, Note_on_c, 5, 62, 0
7, 66050, Note_on_c, 5, 60, 0
7, 66060, Note_on_c, 5, 60, 85
7, 66060, Note_on_c, 5, 62, 85
7, 66080, Note_on_c, 5, 62, 0
7, 66080, Note_on_c, 5, 60, 0
7, 66090, Note_on_c, 5, 60, 85
7, 66090, Note_on_c, 5, 62, 85
7, 66110, Note_on_c, 5, 62, 0
7, 66110, Note_on_c, 5, 60, 0
7, 66120, Note_on_c, 5, 60, 85
7, 66120, Note_on_c, 5, 62, 85
7, 66140, Note_on_c, 5, 62, 0
7, 66140, Note_on_c, 5, 60, 0
7, 66150, Note_on_c, 5, 60, 85
7, 66150, Note_on_c, 5, 62, 85
7, 66170, Note_on_c, 5, 62, 0
7, 66170, Note_on_c, 5, 60, 0
7, 66180, Note_on_c, 5, 60, 85
7, 66180, Note_on_c, 5, 62, 85
7, 66200, Note_on_c, 5, 62, 0
7, 66200, Note_on_c, 5, 60, 0
7, 66210, Note_on_c, 5, 60, 85
7, 66210, Note_on_c, 5, 62, 85
7, 66230, Note_on_c, 5, 62, 0
7, 66230, Note_on_c, 5, 60, 0
7, 66240, Note_on_c, 5, 59, 85
7, 66240, Note_on_c, 5, 62, 85
7, 66360, Note_on_c, 5, 62, 0
7, 66360, Note_on_c, 5, 59, 0
7, 66360, Note_on_c, 5, 72, 85
7, 66405, Note_on_c, 5, 72, 0
7, 66420, Note_on_c, 5, 72, 85
7, 66465, Note_on_c, 5, 72, 0
7, 66480, Note_on_c, 5, 74, 85
7, 66525, Note_on_c, 5, 74, 0
7, 66540, Note_on_c, 5, 74, 85
7, 66585, Note_on_c, 5, 74, 0
7, 66600, Note_on_c, 5, 72, 85
7, 66660, Note_on_c, 5, 72, 0
7, 66660, Note_on_c, 5, 71, 85
7, 66690, Note_on_c, 5, 71, 0
7, 66690, Note_on_c, 5, 69, 85
7, 66720, Note_on_c, 5, 69, 0
7, 66720, Note_on_c, 5, 67, 85
7, 66765, Note_on_c, 5, 67, 0
7, 66780, Note_on_c, 5, 67, 85
7, 66825, Note_on_c, 5, 67, 0
7, 66840, Note_on_c, 5, 66, 85
7, 66885, Note_on_c, 5, 66, 0
7, 66900, Note_on_c, 5, 66, 85
7, 66945, Note_on_c, 5, 66, 0
7, 66960, Note_on_c, 5, 67, 85
7, 67080, Note_on_c, 5, 67, 0
7, 67200, Note_on_c, 5, 71, 47
7, 67440, Note_on_c, 5, 71, 0
7, 67440, Note_on_c, 5, 72, 47
7, 67680, Note_on_c, 5, 72, 0
7, 67680, Note_on_c, 5, 71, 47
7, 67710, Note_on_c, 5, 71, 0
7, 67710, Note_on_c, 5, 69, 47
7, 67790, Note_on_c, 5, 69, 0
7, 67800, Note_on_c, 5, 69, 47
7, 67920, Note_on_c, 5, 69, 0
7, 67920, Note_on_c, 5, 69, 47
7, 67950, Note_on_c, 5, 69, 0
7, 67950, Note_on_c, 5, 67, 47
7, 68030, Note_on_c, 5, 67, 0
7, 68040, Note_on_c, 5, 67, 47
7, 68160, Note_on_c, 5, 67, 0
7, 68160, Note_on_c, 5, 64, 47
7, 68250, Note_on_c, 5, 64, 0
7, 68280, Note_on_c, 5, 64, 47
7, 68370, Note_on_c, 5, 64, 0
7, 68400, Note_on_c, 5, 60, 47
7, 68490, Note_on_c, 5, 60, 0
7, 68520, Note_on_c, 5, 57, 47
7, 68610, Note_on_c, 5, 57, 0
7, 68640, Note_on_c, 5, 62, 47
7, 68700, Note_on_c, 5, 62, 0
7, 68760, Note_on_c, 5, 66, 47
7, 68820, Note_on_c, 5, 66, 0
7, 68880, Note_on_c, 5, 67, 47
7, 68940, Note_on_c, 5, 67, 0
7, 69120, Note_on_c, 5, 71, 47
7, 69360, Note_on_c, 5, 71, 0
7, 69360, Note_on_c, 5, 72, 47
7, 69600, Note_on_c, 5, 72, 0
7, 69600, Note_on_c, 5, 71, 47
7, 69660, Note_on_c, 5, 71, 0
7, 69660, Note_on_c, 5, 69, 47
7, 69690, Note_on_c, 5, 69, 0
7, 69720, Note_on_c, 5, 69, 47
7, 69750, Note_on_c, 5, 69, 0
7, 69780, Note_on_c, 5, 69, 47
7, 69810, Note_on_c, 5, 69, 0
7, 69840, Note_on_c, 5, 69, 47
7, 69900, Note_on_c, 5, 69, 0
7, 69900, Note_on_c, 5, 67, 47
7, 69930, Note_on_c, 5, 67, 0
7, 69960, Note_on_c, 5, 67, 47
7, 69990, Note_on_c, 5, 67, 0
7, 70020, Note_on_c, 5, 67, 47
7, 70050, Note_on_c, 5, 67, 0
7, 70080, Note_on_c, 5, 64, 47
7, 70170, Note_on_c, 5, 64, 0
7, 70200, Note_on_c, 5, 64, 47
7, 70245, Note_on_c, 5, 64, 0
7, 70260, Note_on_c, 5, 64, 47
7, 70305, Note_on_c, 5, 64, 0
7, 70320, Note_on_c, 5, 60, 47
7, 70410, Note_on_c, 5, 60, 0
7, 70440, Note_on_c, 5, 60, 47
7, 70485, Note_on_c, 5, 60, 0
7, 70500, Note_on_c, 5, 60, 47
7, 70545, Note_on_c, 5, 60, 0
7, 70560, Note_on_c, 5, 59, 85
7, 70860, Note_on_c, 5, 59, 0
7, 70860, Note_on_c, 5, 59, 61
7, 70875, Note_on_c, 5, 59, 0
7, 70875, Note_on_c, 5, 60, 61
7, 70890, Note_on_c, 5, 60, 0
7, 70890, Note_on_c, 5, 57, 61
7, 70905, Note_on_c, 5, 57, 0
7, 70905, Note_on_c, 5, 59, 61
7, 70920, Note_on_c, 5, 59, 0
7, 70920, Note_on_c, 5, 60, 61
7, 70980, Note_on_c, 5, 60, 0
7, 70980, Note_on_c, 5, 57, 61
7, 71040, Note_on_c, 5, 57, 0
7, 71040, Note_on_c, 5, 67, 85
7, 71340, Note_on_c, 5, 67, 0
7, 71340, Note_on_c, 5, 67, 61
7, 71355, Note_on_c, 5, 67, 0
7, 71355, Note_on_c, 5, 69, 61
7, 71370, Note_on_c, 5, 69, 0
7, 71370, Note_on_c, 5, 66, 61
7, 71385, Note_on_c, 5, 66, 0
7, 71385, Note_on_c, 5, 67, 61
7, 71400, Note_on_c, 5, 67, 0
7, 71400, Note_on_c, 5, 69, 61
7, 71460, Note_on_c, 5, 69, 0
7, 71460, Note_on_c, 5, 66, 61
7, 71520, Note_on_c, 5, 66, 0
7, 71520, Note_on_c, 5, 71, 53
7, 71540, Note_on_c, 5, 71, 0
7, 71550, Note_on_c, 5, 71, 53
7, 71570, Note_on_c, 5, 71, 0
7, 71580, Note_on_c, 5, 71, 55
7, 71600, Note_on_c, 5, 71, 0
7, 71610, Note_on_c, 5, 71, 55
7, 71630, Note_on_c, 5, 71, 0
7, 71640, Note_on_c, 5, 71, 55
7, 71660, Note_on_c, 5, 71, 0
7, 71670, Note_on_c, 5, 71, 56
7, 71690, Note_on_c, 5, 71, 0
7, 71700, Note_on_c, 5, 71, 56
7, 71720, Note_on_c, 5, 71, 0
7, 71730, Note_on_c, 5, 71, 58
7, 71750, Note_on_c, 5, 71, 0
7, 71760, Note_on_c, 5, 72, 58
7, 71780, Note_on_c, 5, 72, 0
7, 71790, Note_on_c, 5, 72, 59
7, 71810, Note_on_c, 5, 72, 0
7, 71820, Note_on_c, 5, 72, 59
7, 71840, Note_on_c, 5, 72, 0
7, 71850, Note_on_c, 5, 72, 61
7, 71870, Note_on_c, 5, 72, 0
7, 71880, Note_on_c, 5, 74, 61
7, 71900, Note_on_c, 5, 74, 0
7, 71910, Note_on_c, 5, 74, 62
7, 71930, Note_on_c, 5, 74, 0
7, 71940, Note_on_c, 5, 74, 62
7, 71960, Note_on_c, 5, 74, 0
7, 71970, Note_on_c, 5, 74, 64
7, 71990, Note_on_c, 5, 74, 0
7, 72000, Note_on_c, 5, 71, 64
7, 72020, Note_on_c, 5, 71, 0
7, 72030, Note_on_c, 5, 71, 65
7, 72050, Note_on_c, 5, 71, 0
7, 72060, Note_on_c, 5, 71, 65
7, 72080, Note_on_c, 5, 71, 0
7, 72090, Note_on_c, 5, 71, 67
7, 72110, Note_on_c, 5, 71, 0
7, 72120, Note_on_c, 5, 74, 67
7, 72140, Note_on_c, 5, 74, 0
7, 72150, Note_on_c, 5, 74, 68
7, 72170, Note_on_c, 5, 74, 0
7, 72180, Note_on_c, 5, 74, 68
7, 72200, Note_on_c, 5, 74, 0
7, 72210, Note_on_c, 5, 74, 70
7, 72230, Note_on_c, 5, 74, 0
7, 72240, Note_on_c, 5, 74, 70
7, 72260, Note_on_c, 5, 74, 0
7, 72270, Note_on_c, 5, 74, 71
7, 72290, Note_on_c, 5, 74, 0
7, 72300, Note_on_c, 5, 74, 71
7, 72320, Note_on_c, 5, 74, 0
7, 72330, Note_on_c, 5, 74, 73
7, 72350, Note_on_c, 5, 74, 0
7, 72360, Note_on_c, 5, 79, 73
7, 72380, Note_on_c, 5, 79, 0
7, 72390, Note_on_c, 5, 79, 73
7, 72410, Note_on_c, 5, 79, 0
7, 72420, Note_on_c, 5, 79, 74
7, 72440, Note_on_c, 5, 79, 0
7, 72450, Note_on_c, 5, 79, 74
7, 72470, Note_on_c, 5, 79, 0
7, 72480, Note_on_c, 5, 78, 85
7, 72500, Note_on_c, 5, 78, 0
7, 72510, Note_on_c, 5, 78, 85
7, 72530, Note_on_c, 5, 78, 0
7, 72540, Note_on_c, 5, 78, 85
7, 72560, Note_on_c, 5, 78, 0
7, 72570, Note_on_c, 5, 78, 85
7, 72590, Note_on_c, 5, 78, 0
7, 72600, Note_on_c, 5, 78, 85
7, 72620, Note_on_c, 5, 78, 0
7, 72630, Note_on_c, 5, 78, 85
7, 72650, Note_on_c, 5, 78, 0
7, 72660, Note_on_c, 5, 78, 85
7, 72680, Note_on_c, 5, 78, 0
7, 72690, Note_on_c, 5, 78, 85
7, 72710, Note_on_c, 5, 78, 0
7, 72720, Note_on_c, 5, 79, 85
7, 72740, Note_on_c, 5, 79, 0
7, 72750, Note_on_c, 5, 79, 85
7, 72770, Note_on_c, 5, 79, 0
7, 72780, Note_on_c, 5, 79, 85
7, 72800, Note_on_c, 5, 79, 0
7, 72810, Note_on_c, 5, 79, 85
7, 72830, Note_on_c, 5, 79, 0
7, 72840, Note_on_c, 5, 79, 85
7, 72860, Note_on_c, 5, 79, 0
7, 72870, Note_on_c, 5, 79, 85
7, 72890, Note_on_c, 5, 79, 0
7, 72900, Note_on_c, 5, 79, 85
7, 72920, Note_on_c, 5, 79, 0
7, 72930, Note_on_c, 5, 79, 85
7, 72950, Note_on_c, 5, 79, 0
7, 72960, Note_on_c, 5, 78, 85
7, 72980, Note_on_c, 5, 78, 0
7, 72990, Note_on_c, 5, 78, 85
7, 73010, Note_on_c, 5, 78, 0
7, 73020, Note_on_c, 5, 78, 85
7, 73040, Note_on_c, 5, 78, 0
7, 73050, Note_on_c, 5, 78, 85
7, 73070, Note_on_c, 5, 78, 0
7, 73080, Note_on_c, 5, 78, 85
7, 73100, Note_on_c, 5, 78, 0
7, 73110, Note_on_c, 5, 78, 85
7, 73130, Note_on_c, 5, 78, 0
7, 73140, Note_on_c, 5, 78, 85
7, 73160, Note_on_c, 5, 78, 0
7, 73170, Note_on_c, 5, 78, 85
7, 73190, Note_on_c, 5, 78, 0
7, 73200, Note_on_c, 5, 79, 85
7, 73220, Note_on_c, 5, 79, 0
7, 73230, Note_on_c, 5, 79, 85
7, 73250, Note_on_c, 5, 79, 0
7, 73260, Note_on_c, 5, 79, 85
7, 73280, Note_on_c, 5, 79, 0
7, 73290, Note_on_c, 5, 79, 85
7, 73310, Note_on_c, 5, 79, 0
7, 73320, Note_on_c, 5, 79, 85
7, 73340, Note_on_c, 5, 79, 0
7, 73350, Note_on_c, 5, 79, 85
7, 73370, Note_on_c, 5, 79, 0
7, 73380, Note_on_c, 5, 79, 85
7, 73400, Note_on_c, 5, 79, 0
7, 73410, Note_on_c, 5, 79, 85
7, 73430, Note_on_c, 5, 79, 0
7, 73440, Note_on_c, 5, 78, 85
7, 73460, Note_on_c, 5, 78, 0
7, 73470, Note_on_c, 5, 78, 85
7, 73490, Note_on_c, 5, 78, 0
7, 73500, Note_on_c, 5, 78, 85
7, 73520, Note_on_c, 5, 78, 0
7, 73530, Note_on_c, 5, 78, 85
7, 73550, Note_on_c, 5, 78, 0
7, 73560, Note_on_c, 5, 79, 85
7, 73580, Note_on_c, 5, 79, 0
7, 73590, Note_on_c, 5, 79, 85
7, 73610, Note_on_c, 5, 79, 0
7, 73620, Note_on_c, 5, 79, 85
7, 73640, Note_on_c, 5, 79, 0
7, 73650, Note_on_c, 5, 79, 85
7, 73670, Note_on_c, 5, 79, 0
7, 73680, Note_on_c, 5, 78, 85
7, 73700, Note_on_c, 5, 78, 0
7, 73710, Note_on_c, 5, 78, 85
7, 73730, Note_on_c, 5, 78, 0
7, 73740, Note_on_c, 5, 78, 85
7, 73760, Note_on_c, 5, 78, 0
7, 73770, Note_on_c, 5, 78, 85
7, 73790, Note_on_c, 5, 78, 0
7, 73800, Note_on_c, 5, 79, 85
7, 73820, Note_on_c, 5, 79, 0
7, 73830, Note_on_c, 5, 79, 85
7, 73850, Note_on_c, 5, 79, 0
7, 73860, Note_on_c, 5, 79, 85
7, 73880, Note_on_c, 5, 79, 0
7, 73890, Note_on_c, 5, 79, 85
7, 73910, Note_on_c, 5, 79, 0
7, 73923, Note_on_c, 5, 78, 85
7, 73968, Note_on_c, 5, 78, 0
7, 73983, Note_on_c, 5, 62, 85
7, 74028, Note_on_c, 5, 62, 0
7, 74043, Note_on_c, 5, 62, 85
7, 74088, Note_on_c, 5, 62, 0
7, 74103, Note_on_c, 5, 62, 85
7, 74148, Note_on_c, 5, 62, 0
7, 74163, Note_on_c, 5, 62, 85
7, 74283, Note_on_c, 5, 62, 0
7, 74400, Note_on_c, 5, 62, 55
7, 74580, Note_on_c, 5, 62, 0
7, 74580, Note_on_c, 5, 60, 55
7, 74600, Note_on_c, 5, 60, 0
7, 74600, Note_on_c, 5, 59, 55
7, 74620, Note_on_c, 5, 59, 0
7, 74620, Note_on_c, 5, 57, 55
7, 74640, Note_on_c, 5, 57, 0
7, 74640, Note_on_c, 5, 55, 55
7, 74700, Note_on_c, 5, 55, 0
7, 74760, Note_on_c, 5, 64, 55
7, 74820, Note_on_c, 5, 64, 0
7, 74880, Note_on_c, 5, 60, 55
7, 74940, Note_on_c, 5, 60, 0
7, 75000, Note_on_c, 5, 57, 55
7, 75060, Note_on_c, 5, 57, 0
7, 75120, Note_on_c, 5, 62, 55
7, 75180, Note_on_c, 5, 62, 0
7, 75360, Note_on_c, 5, 71, 55
7, 75540, Note_on_c, 5, 71, 0
7, 75540, Note_on_c, 5, 69, 55
7, 75560, Note_on_c, 5, 69, 0
7, 75560, Note_on_c, 5, 67, 55
7, 75580, Note_on_c, 5, 67, 0
7, 75580, Note_on_c, 5, 66, 55
7, 75600, Note_on_c, 5, 66, 0
7, 75600, Note_on_c, 5, 64, 55
7, 75660, Note_on_c, 5, 64, 0
7, 75720, Note_on_c, 5, 72, 55
7, 75780, Note_on_c, 5, 72, 0
7, 75840, Note_on_c, 5, 71, 55
7, 76080, Note_on_c, 5, 71, 0
7, 76080, Note_on_c, 5, 69, 55
7, 76200, Note_on_c, 5, 69, 0
7, 76320, Note_on_c, 5, 74, 55
7, 76500, Note_on_c, 5, 74, 0
7, 76500, Note_on_c, 5, 72, 55
7, 76520, Note_on_c, 5, 72, 0
7, 76520, Note_on_c, 5, 71, 55
7, 76540, Note_on_c, 5, 71, 0
7, 76540, Note_on_c, 5, 69, 55
7, 76560, Note_on_c, 5, 69, 0
7, 76560, Note_on_c, 5, 67, 55
7, 76620, Note_on_c, 5, 67, 0
7, 76680, Note_on_c, 5, 76, 55
7, 76740, Note_on_c, 5, 76, 0
7, 76800, Note_on_c, 5, 72, 55
7, 76860, Note_on_c, 5, 72, 0
7, 76920, Note_on_c, 5, 69, 55
7, 76980, Note_on_c, 5, 69, 0
7, 77040, Note_on_c, 5, 74, 55
7, 77100, Note_on_c, 5, 74, 0
7, 77205, Note_on_c, 5, 72, 55
7, 77250, Note_on_c, 5, 72, 0
7, 77280, Note_on_c, 5, 72, 55
7, 77340, Note_on_c, 5, 72, 0
7, 77340, Note_on_c, 5, 71, 55
7, 77400, Note_on_c, 5, 71, 0
7, 77460, Note_on_c, 5, 72, 55
7, 77490, Note_on_c, 5, 72, 0
7, 77520, Note_on_c, 5, 72, 55
7, 77580, Note_on_c, 5, 72, 0
7, 77580, Note_on_c, 5, 71, 55
7, 77640, Note_on_c, 5, 71, 0
7, 77700, Note_on_c, 5, 60, 55
7, 77745, Note_on_c, 5, 60, 0
7, 77760, Note_on_c, 5, 59, 55
7, 77805, Note_on_c, 5, 59, 0
7, 77820, Note_on_c, 5, 59, 55
7, 77865, Note_on_c, 5, 59, 0
7, 77880, Note_on_c, 5, 60, 55
7, 77925, Note_on_c, 5, 60, 0
7, 77940, Note_on_c, 5, 60, 55
7, 77985, Note_on_c, 5, 60, 0
7, 78000, Note_on_c, 5, 62, 55
7, 78045, Note_on_c, 5, 62, 0
7, 78060, Note_on_c, 5, 62, 55
7, 78105, Note_on_c, 5, 62, 0
7, 78120, Note_on_c, 5, 59, 55
7, 78165, Note_on_c, 5, 59, 0
7, 78180, Note_on_c, 5, 59, 55
7, 78225, Note_on_c, 5, 59, 0
7, 78240, Note_on_c, 5, 57, 55
7, 78285, Note_on_c, 5, 57, 0
7, 78300, Note_on_c, 5, 57, 55
7, 78345, Note_on_c, 5, 57, 0
7, 78360, Note_on_c, 5, 59, 55
7, 78405, Note_on_c, 5, 59, 0
7, 78420, Note_on_c, 5, 59, 55
7, 78465, Note_on_c, 5, 59, 0
7, 78480, Note_on_c, 5, 60, 55
7, 78525, Note_on_c, 5, 60, 0
7, 78540, Note_on_c, 5, 60, 55
7, 78585, Note_on_c, 5, 60, 0
7, 78600, Note_on_c, 5, 57, 55
7, 78645, Note_on_c, 5, 57, 0
7, 78660, Note_on_c, 5, 57, 55
7, 78705, Note_on_c, 5, 57, 0
7, 78720, Note_on_c, 5, 59, 55
7, 78765, Note_on_c, 5, 59, 0
7, 78780, Note_on_c, 5, 59, 55
7, 78825, Note_on_c, 5, 59, 0
7, 78840, Note_on_c, 5, 60, 55
7, 78885, Note_on_c, 5, 60, 0
7, 78900, Note_on_c, 5, 60, 55
7, 78945, Note_on_c, 5, 60, 0
7, 78960, Note_on_c, 5, 62, 55
7, 79005, Note_on_c, 5, 62, 0
7, 79020, Note_on_c, 5, 62, 55
7, 79065, Note_on_c, 5, 62, 0
7, 79080, Note_on_c, 5, 59, 55
7, 79125, Note_on_c, 5, 59, 0
7, 79140, Note_on_c, 5, 59, 55
7, 79185, Note_on_c, 5, 59, 0
7, 79200, Note_on_c, 5, 57, 55
7, 79245, Note_on_c, 5, 57, 0
7, 79260, Note_on_c, 5, 57, 55
7, 79305, Note_on_c, 5, 57, 0
7, 79320, Note_on_c, 5, 59, 55
7, 79365, Note_on_c, 5, 59, 0
7, 79380, Note_on_c, 5, 59, 55
7, 79425, Note_on_c, 5, 59, 0
7, 79440, Note_on_c, 5, 60, 55
7, 79485, Note_on_c, 5, 60, 0
7, 79500, Note_on_c, 5, 60, 55
7, 79545, Note_on_c, 5, 60, 0
7, 79560, Note_on_c, 5, 57, 55
7, 79605, Note_on_c, 5, 57, 0
7, 79620, Note_on_c, 5, 57, 55
7, 79665, Note_on_c, 5, 57, 0
7, 79680, Note_on_c, 5, 59, 55
7, 79800, Note_on_c, 5, 59, 0
7, 79920, Note_on_c, 5, 71, 85
7, 79920, Note_on_c, 5, 64, 85
7, 80160, Note_on_c, 5, 64, 0
7, 80160, Note_on_c, 5, 71, 0
7, 80160, Note_on_c, 5, 69, 85
7, 80280, Note_on_c, 5, 69, 0
7, 80400, Note_on_c, 5, 62, 85
7, 80400, Note_on_c, 5, 69, 85
7, 80640, Note_on_c, 5, 69, 0
7, 80640, Note_on_c, 5, 62, 0
7, 80640, Note_on_c, 5, 67, 85
7, 80685, Note_on_c, 5, 67, 0
7, 80700, Note_on_c, 5, 71, 85
7, 80730, Note_on_c, 5, 71, 0
7, 80760, Note_on_c, 5, 72, 85
7, 80790, Note_on_c, 5, 72, 0
7, 80820, Note_on_c, 5, 74, 85
7, 80850, Note_on_c, 5, 74, 0
7, 80880, Note_on_c, 5, 72, 85
7, 80940, Note_on_c, 5, 72, 0
7, 80940, Note_on_c, 5, 74, 85
7, 80970, Note_on_c, 5, 74, 0
7, 80970, Note_on_c, 5, 76, 85
7, 81000, Note_on_c, 5, 76, 0
7, 81000, Note_on_c, 5, 74, 85
7, 81045, Note_on_c, 5, 74, 0
7, 81060, Note_on_c, 5, 72, 85
7, 81090, Note_on_c, 5, 72, 0
7, 81120, Note_on_c, 5, 72, 85
7, 81180, Note_on_c, 5, 72, 0
7, 81180, Note_on_c, 5, 71, 85
7, 81225, Note_on_c, 5, 71, 0
7, 81240, Note_on_c, 5, 67, 85
7, 81270, Note_on_c, 5, 67, 0
7, 81300, Note_on_c, 5, 71, 85
7, 81330, Note_on_c, 5, 71, 0
7, 81360, Note_on_c, 5, 71, 85
7, 81420, Note_on_c, 5, 71, 0
7, 81420, Note_on_c, 5, 69, 85
7, 81465, Note_on_c, 5, 69, 0
7, 81480, Note_on_c, 5, 67, 85
7, 81510, Note_on_c, 5, 67, 0
7, 81540, Note_on_c, 5, 66, 85
7, 81570, Note_on_c, 5, 66, 0
7, 81600, Note_on_c, 5, 67, 85
7, 81645, Note_on_c, 5, 67, 0
7, 81660, Note_on_c, 5, 59, 53
7, 81705, Note_on_c, 5, 59, 0
7, 81720, Note_on_c, 5, 60, 53
7, 81765, Note_on_c, 5, 60, 0
7, 81780, Note_on_c, 5, 60, 53
7, 81825, Note_on_c, 5, 60, 0
7, 81840, Note_on_c, 5, 62, 53
7, 81885, Note_on_c, 5, 62, 0
7, 81900, Note_on_c, 5, 62, 53
7, 81945, Note_on_c, 5, 62, 0
7, 81960, Note_on_c, 5, 59, 53
7, 82005, Note_on_c, 5, 59, 0
7, 82020, Note_on_c, 5, 59, 53
7, 82065, Note_on_c, 5, 59, 0
7, 82080, Note_on_c, 5, 57, 55
7, 82125, Note_on_c, 5, 57, 0
7, 82140, Note_on_c, 5, 57, 55
7, 82185, Note_on_c, 5, 57, 0
7, 82200, Note_on_c, 5, 59, 55
7, 82245, Note_on_c, 5, 59, 0
7, 82260, Note_on_c, 5, 59, 55
7, 82305, Note_on_c, 5, 59, 0
7, 82320, Note_on_c, 5, 60, 55
7, 82365, Note_on_c, 5, 60, 0
7, 82380, Note_on_c, 5, 60, 55
7, 82425, Note_on_c, 5, 60, 0
7, 82440, Note_on_c, 5, 57, 55
7, 82485, Note_on_c, 5, 57, 0
7, 82500, Note_on_c, 5, 57, 55
7, 82545, Note_on_c, 5, 57, 0
7, 82560, Note_on_c, 5, 59, 55
7, 82605, Note_on_c, 5, 59, 0
7, 82620, Note_on_c, 5, 71, 55
7, 82665, Note_on_c, 5, 71, 0
7, 82680, Note_on_c, 5, 72, 55
7, 82725, Note_on_c, 5, 72, 0
7, 82740, Note_on_c, 5, 72, 55
7, 82785, Note_on_c, 5, 72, 0
7, 82800, Note_on_c, 5, 74, 55
7, 82845, Note_on_c, 5, 74, 0
7, 82860, Note_on_c, 5, 74, 55
7, 82905, Note_on_c, 5, 74, 0
7, 82920, Note_on_c, 5, 71, 55
7, 82965, Note_on_c, 5, 71, 0
7, 82980, Note_on_c, 5, 71, 55
7, 83025, Note_on_c, 5, 71, 0
7, 83040, Note_on_c, 5, 69, 55
7, 83085, Note_on_c, 5, 69, 0
7, 83100, Note_on_c, 5, 69, 55
7, 83145, Note_on_c, 5, 69, 0
7, 83160, Note_on_c, 5, 71, 55
7, 83205, Note_on_c, 5, 71, 0
7, 83220, Note_on_c, 5, 71, 55
7, 83265, Note_on_c, 5, 71, 0
7, 83280, Note_on_c, 5, 72, 55
7, 83325, Note_on_c, 5, 72, 0
7, 83340, Note_on_c, 5, 72, 55
7, 83385, Note_on_c, 5, 72, 0
7, 83400, Note_on_c, 5, 69, 55
7, 83445, Note_on_c, 5, 69, 0
7, 83460, Note_on_c, 5, 69, 55
7, 83505, Note_on_c, 5, 69, 0
7, 83520, Note_on_c, 5, 71, 58
7, 83640, Note_on_c, 5, 71, 0
7, 83760, Note_on_c, 5, 83, 85
7, 84000, Note_on_c, 5, 83, 0
7, 84000, Note_on_c, 5, 81, 85
7, 84120, Note_on_c, 5, 81, 0
7, 84240, Note_on_c, 5, 81, 85
7, 84480, Note_on_c, 5, 81, 0
7, 84480, Note_on_c, 5, 79, 85
7, 84525, Note_on_c, 5, 79, 0
7, 84540, Note_on_c, 5, 71, 85
7, 84570, Note_on_c, 5, 71, 0
7, 84600, Note_on_c, 5, 72, 85
7, 84630, Note_on_c, 5, 72, 0
7, 84660, Note_on_c, 5, 74, 85
7, 84690, Note_on_c, 5, 74, 0
7, 84720, Note_on_c, 5, 72, 85
7, 84780, Note_on_c, 5, 72, 0
7, 84780, Note_on_c, 5, 74, 85
7, 84810, Note_on_c, 5, 74, 0
7, 84810, Note_on_c, 5, 76, 85
7, 84840, Note_on_c, 5, 76, 0
7, 84840, Note_on_c, 5, 74, 85
7, 84885, Note_on_c, 5, 74, 0
7, 84900, Note_on_c, 5, 72, 85
7, 84930, Note_on_c, 5, 72, 0
7, 84960, Note_on_c, 5, 71, 85
7, 84990, Note_on_c, 5, 71, 0
7, 85020, Note_on_c, 5, 74, 85
7, 85050, Note_on_c, 5, 74, 0
7, 85080, Note_on_c, 5, 79, 85
7, 85110, Note_on_c, 5, 79, 0
7, 85140, Note_on_c, 5, 83, 85
7, 85170, Note_on_c, 5, 83, 0
7, 85200, Note_on_c, 5, 83, 85
7, 85260, Note_on_c, 5, 83, 0
7, 85260, Note_on_c, 5, 81, 85
7, 85305, Note_on_c, 5, 81, 0
7, 85320, Note_on_c, 5, 79, 85
7, 85350, Note_on_c, 5, 79, 0
7, 85380, Note_on_c, 5, 78, 85
7, 85410, Note_on_c, 5, 78, 0
7, 85442, Note_on_c, 5, 79, 85
7, 85487, Note_on_c, 5, 79, 0
7, 85502, Note_on_c, 5, 62, 85
7, 85547, Note_on_c, 5, 62, 0
7, 85562, Note_on_c, 5, 64, 85
7, 85607, Note_on_c, 5, 64, 0
7, 85622, Note_on_c, 5, 66, 85
7, 85667, Note_on_c, 5, 66, 0
7, 85682, Note_on_c, 5, 67, 85
7, 85727, Note_on_c, 5, 67, 0
7, 85742, Note_on_c, 5, 67, 85
7, 85787, Note_on_c, 5, 67, 0
7, 85802, Note_on_c, 5, 69, 85
7, 85817, Note_on_c, 5, 69, 0
7, 85817, Note_on_c, 5, 71, 85
7, 85832, Note_on_c, 5, 71, 0
7, 85832, Note_on_c, 5, 69, 85
7, 85847, Note_on_c, 5, 69, 0
7, 85847, Note_on_c, 5, 71, 85
7, 85862, Note_on_c, 5, 71, 0
7, 85862, Note_on_c, 5, 67, 85
7, 85892, Note_on_c, 5, 67, 0
7, 85892, Note_on_c, 5, 69, 85
7, 85922, Note_on_c, 5, 69, 0
7, 85922, Note_on_c, 5, 71, 85
7, 85967, Note_on_c, 5, 71, 0
7, 85982, Note_on_c, 5, 66, 85
7, 86027, Note_on_c, 5, 66, 0
7, 86042, Note_on_c, 5, 67, 85
7, 86087, Note_on_c, 5, 67, 0
7, 86102, Note_on_c, 5, 69, 85
7, 86147, Note_on_c, 5, 69, 0
7, 86162, Note_on_c, 5, 71, 85
7, 86207, Note_on_c, 5, 71, 0
7, 86222, Note_on_c, 5, 71, 85
7, 86267, Note_on_c, 5, 71, 0
7, 86282, Note_on_c, 5, 72, 85
7, 86297, Note_on_c, 5, 72, 0
7, 86297, Note_on_c, 5, 74, 85
7, 86312, Note_on_c, 5, 74, 0
7, 86312, Note_on_c, 5, 72, 85
7, 86327, Note_on_c, 5, 72, 0
7, 86327, Note_on_c, 5, 74, 85
7, 86342, Note_on_c, 5, 74, 0
7, 86342, Note_on_c, 5, 71, 85
7, 86372, Note_on_c, 5, 71, 0
7, 86372, Note_on_c, 5, 72, 85
7, 86400, Note_on_c, 5, 74, 85
7, 86402, Note_on_c, 5, 72, 0
7, 86445, Note_on_c, 5, 74, 0
7, 86460, Note_on_c, 5, 74, 85
7, 86505, Note_on_c, 5, 74, 0
7, 86520, Note_on_c, 5, 75, 85
7, 86535, Note_on_c, 5, 75, 0
7, 86535, Note_on_c, 5, 76, 85
7, 86550, Note_on_c, 5, 76, 0
7, 86550, Note_on_c, 5, 75, 85
7, 86565, Note_on_c, 5, 75, 0
7, 86565, Note_on_c, 5, 76, 85
7, 86580, Note_on_c, 5, 76, 0
7, 86580, Note_on_c, 5, 73, 85
7, 86610, Note_on_c, 5, 73, 0
7, 86610, Note_on_c, 5, 75, 85
7, 86640, Note_on_c, 5, 75, 0
7, 86640, Note_on_c, 5, 76, 85
7, 86760, Note_on_c, 5, 76, 0
7, 86880, Note_on_c, 5, 60, 70
7, 87360, Note_on_c, 5, 60, 0
7, 87360, Note_on_c, 5, 59, 70
7, 87480, Note_on_c, 5, 59, 0
7, 87840, Note_on_c, 5, 60, 70
7, 88320, Note_on_c, 5, 60, 0
7, 88320, Note_on_c, 5, 59, 70
7, 88440, Note_on_c, 5, 59, 0
7, 88560, Note_on_c, 5, 71, 70
7, 88680, Note_on_c, 5, 71, 0
7, 88800, Note_on_c, 5, 76, 92
7, 88920, Note_on_c, 5, 76, 0
7, 89040, Note_on_c, 5, 72, 106
7, 89040, Note_on_c, 5, 78, 106
7, 89160, Note_on_c, 5, 78, 0
7, 89160, Note_on_c, 5, 72, 0
7, 89280, Note_on_c, 5, 59, 95
7, 89280, Note_on_c, 5, 62, 95
7, 89300, Note_on_c, 5, 62, 0
7, 89300, Note_on_c, 5, 59, 0
7, 89310, Note_on_c, 5, 59, 95
7, 89310, Note_on_c, 5, 62, 95
7, 89330, Note_on_c, 5, 62, 0
7, 89330, Note_on_c, 5, 59, 0
7, 89340, Note_on_c, 5, 59, 95
7, 89340, Note_on_c, 5, 62, 95
7, 89360, Note_on_c, 5, 62, 0
7, 89360, Note_on_c, 5, 59, 0
7, 89370, Note_on_c, 5, 59, 95
7, 89370, Note_on_c, 5, 62, 95
7, 89390, Note_on_c, 5, 62, 0
7, 89390, Note_on_c, 5, 59, 0
7, 89400, Note_on_c, 5, 59, 95
7, 89400, Note_on_c, 5, 62, 95
7, 89420, Note_on_c, 5, 62, 0
7, 89420, Note_on_c, 5, 59, 0
7, 89430, Note_on_c, 5, 59, 94
7, 89430, Note_on_c, 5, 62, 94
7, 89450, Note_on_c, 5, 62, 0
7, 89450, Note_on_c, 5, 59, 0
7, 89460, Note_on_c, 5, 59, 94
7, 89460, Note_on_c, 5, 62, 94
7, 89480, Note_on_c, 5, 62, 0
7, 89480, Note_on_c, 5, 59, 0
7, 89490, Note_on_c, 5, 59, 94
7, 89490, Note_on_c, 5, 62, 94
7, 89510, Note_on_c, 5, 62, 0
7, 89510, Note_on_c, 5, 59, 0
7, 89520, Note_on_c, 5, 59, 94
7, 89520, Note_on_c, 5, 62, 94
7, 89540, Note_on_c, 5, 62, 0
7, 89540, Note_on_c, 5, 59, 0
7, 89550, Note_on_c, 5, 59, 94
7, 89550, Note_on_c, 5, 62, 94
7, 89570, Note_on_c, 5, 62, 0
7, 89570, Note_on_c, 5, 59, 0
7, 89580, Note_on_c, 5, 59, 94
7, 89580, Note_on_c, 5, 62, 94
7, 89600, Note_on_c, 5, 62, 0
7, 89600, Note_on_c, 5, 59, 0
7, 89610, Note_on_c, 5, 59, 94
7, 89610, Note_on_c, 5, 62, 94
7, 89630, Note_on_c, 5, 62, 0
7, 89630, Note_on_c, 5, 59, 0
7, 89640, Note_on_c, 5, 59, 94
7, 89640, Note_on_c, 5, 62, 94
7, 89660, Note_on_c, 5, 62, 0
7, 89660, Note_on_c, 5, 59, 0
7, 89670, Note_on_c, 5, 59, 94
7, 89670, Note_on_c, 5, 62, 94
7, 89690, Note_on_c, 5, 62, 0
7, 89690, Note_on_c, 5, 59, 0
7, 89700, Note_on_c, 5, 59, 94
7, 89700, Note_on_c, 5, 62, 94
7, 89720, Note_on_c, 5, 62, 0
7, 89720, Note_on_c, 5, 59, 0
7, 89730, Note_on_c, 5, 59, 94
7, 89730, Note_on_c, 5, 62, 94
7, 89750, Note_on_c, 5, 62, 0
7, 89750, Note_on_c, 5, 59, 0
7, 89760, Note_on_c, 5, 59, 94
7, 89760, Note_on_c, 5, 62, 94
7, 89780, Note_on_c, 5, 62, 0
7, 89780, Note_on_c, 5, 59, 0
7, 89790, Note_on_c, 5, 59, 94
7, 89790, Note_on_c, 5, 62, 94
7, 89810, Note_on_c, 5, 62, 0
7, 89810, Note_on_c, 5, 59, 0
7, 89820, Note_on_c, 5, 59, 94
7, 89820, Note_on_c, 5, 62, 94
7, 89840, Note_on_c, 5, 62, 0
7, 89840, Note_on_c, 5, 59, 0
7, 89850, Note_on_c, 5, 59, 94
7, 89850, Note_on_c, 5, 62, 94
7, 89870, Note_on_c, 5, 62, 0
7, 89870, Note_on_c, 5, 59, 0
7, 89880, Note_on_c, 5, 59, 94
7, 89880, Note_on_c, 5, 62, 94
7, 89900, Note_on_c, 5, 62, 0
7, 89900, Note_on_c, 5, 59, 0
7, 89910, Note_on_c, 5, 59, 93
7, 89910, Note_on_c, 5, 62, 93
7, 89930, Note_on_c, 5, 62, 0
7, 89930, Note_on_c, 5, 59, 0
7, 89940, Note_on_c, 5, 59, 93
7, 89940, Note_on_c, 5, 62, 93
7, 89960, Note_on_c, 5, 62, 0
7, 89960, Note_on_c, 5, 59, 0
7, 89970, Note_on_c, 5, 59, 91
7, 89970, Note_on_c, 5, 62, 91
7, 89990, Note_on_c, 5, 62, 0
7, 89990, Note_on_c, 5, 59, 0
7, 90000, Note_on_c, 5, 59, 90
7, 90000, Note_on_c, 5, 62, 90
7, 90020, Note_on_c, 5, 62, 0
7, 90020, Note_on_c, 5, 59, 0
7, 90030, Note_on_c, 5, 59, 90
7, 90030, Note_on_c, 5, 62, 90
7, 90050, Note_on_c, 5, 62, 0
7, 90050, Note_on_c, 5, 59, 0
7, 90060, Note_on_c, 5, 59, 90
7, 90060, Note_on_c, 5, 62, 90
7, 90080, Note_on_c, 5, 62, 0
7, 90080, Note_on_c, 5, 59, 0
7, 90090, Note_on_c, 5, 59, 90
7, 90090, Note_on_c, 5, 62, 90
7, 90110, Note_on_c, 5, 62, 0
7, 90110, Note_on_c, 5, 59, 0
7, 90120, Note_on_c, 5, 60, 90
7, 90120, Note_on_c, 5, 62, 90
7, 90140, Note_on_c, 5, 62, 0
7, 90140, Note_on_c, 5, 60, 0
7, 90150, Note_on_c, 5, 60, 89
7, 90150, Note_on_c, 5, 62, 89
7, 90170, Note_on_c, 5, 62, 0
7, 90170, Note_on_c, 5, 60, 0
7, 90180, Note_on_c, 5, 60, 89
7, 90180, Note_on_c, 5, 62, 89
7, 90200, Note_on_c, 5, 62, 0
7, 90200, Note_on_c, 5, 60, 0
7, 90210, Note_on_c, 5, 60, 89
7, 90210, Note_on_c, 5, 62, 89
7, 90230, Note_on_c, 5, 62, 0
7, 90230, Note_on_c, 5, 60, 0
7, 90240, Note_on_c, 5, 59, 89
7, 90240, Note_on_c, 5, 62, 89
7, 90260, Note_on_c, 5, 62, 0
7, 90260, Note_on_c, 5, 59, 0
7, 90270, Note_on_c, 5, 59, 89
7, 90270, Note_on_c, 5, 62, 89
7, 90290, Note_on_c, 5, 62, 0
7, 90290, Note_on_c, 5, 59, 0
7, 90300, Note_on_c, 5, 59, 89
7, 90300, Note_on_c, 5, 62, 89
7, 90320, Note_on_c, 5, 62, 0
7, 90320, Note_on_c, 5, 59, 0
7, 90330, Note_on_c, 5, 59, 90
7, 90330, Note_on_c, 5, 62, 90
7, 90350, Note_on_c, 5, 62, 0
7, 90350, Note_on_c, 5, 59, 0
7, 90360, Note_on_c, 5, 59, 90
7, 90360, Note_on_c, 5, 62, 90
7, 90380, Note_on_c, 5, 62, 0
7, 90380, Note_on_c, 5, 59, 0
7, 90390, Note_on_c, 5, 59, 90
7, 90390, Note_on_c, 5, 62, 90
7, 90410, Note_on_c, 5, 62, 0
7, 90410, Note_on_c, 5, 59, 0
7, 90420, Note_on_c, 5, 59, 92
7, 90420, Note_on_c, 5, 62, 92
7, 90440, Note_on_c, 5, 62, 0
7, 90440, Note_on_c, 5, 59, 0
7, 90450, Note_on_c, 5, 59, 93
7, 90450, Note_on_c, 5, 62, 93
7, 90470, Note_on_c, 5, 62, 0
7, 90470, Note_on_c, 5, 59, 0
7, 90480, Note_on_c, 5, 59, 94
7, 90480, Note_on_c, 5, 62, 94
7, 90500, Note_on_c, 5, 62, 0
7, 90500, Note_on_c, 5, 59, 0
7, 90510, Note_on_c, 5, 59, 95
7, 90510, Note_on_c, 5, 62, 95
7, 90530, Note_on_c, 5, 62, 0
7, 90530, Note_on_c, 5, 59, 0
7, 90540, Note_on_c, 5, 59, 96
7, 90540, Note_on_c, 5, 62, 96
7, 90560, Note_on_c, 5, 62, 0
7, 90560, Note_on_c, 5, 59, 0
7, 90570, Note_on_c, 5, 59, 96
7, 90570, Note_on_c, 5, 62, 96
7, 90590, Note_on_c, 5, 62, 0
7, 90590, Note_on_c, 5, 59, 0
7, 90600, Note_on_c, 5, 59, 96
7, 90600, Note_on_c, 5, 62, 96
7, 90620, Note_on_c, 5, 62, 0
7, 90620, Note_on_c, 5, 59, 0
7, 90630, Note_on_c, 5, 59, 96
7, 90630, Note_on_c, 5, 62, 96
7, 90650, Note_on_c, 5, 62, 0
7, 90650, Note_on_c, 5, 59, 0
7, 90660, Note_on_c, 5, 59, 95
7, 90660, Note_on_c, 5, 62, 95
7, 90680, Note_on_c, 5, 62, 0
7, 90680, Note_on_c, 5, 59, 0
7, 90690, Note_on_c, 5, 59, 94
7, 90690, Note_on_c, 5, 62, 94
7, 90710, Note_on_c, 5, 62, 0
7, 90710, Note_on_c, 5, 59, 0
7, 90720, Note_on_c, 5, 59, 94
7, 90720, Note_on_c, 5, 62, 94
7, 90740, Note_on_c, 5, 62, 0
7, 90740, Note_on_c, 5, 59, 0
7, 90750, Note_on_c, 5, 59, 93
7, 90750, Note_on_c, 5, 62, 93
7, 90770, Note_on_c, 5, 62, 0
7, 90770, Note_on_c, 5, 59, 0
7, 90780, Note_on_c, 5, 59, 93
7, 90780, Note_on_c, 5, 62, 93
7, 90800, Note_on_c, 5, 62, 0
7, 90800, Note_on_c, 5, 59, 0
7, 90810, Note_on_c, 5, 59, 93
7, 90810, Note_on_c, 5, 62, 93
7, 90830, Note_on_c, 5, 62, 0
7, 90830, Note_on_c, 5, 59, 0
7, 90840, Note_on_c, 5, 59, 92
7, 90840, Note_on_c, 5, 62, 92
7, 90860, Note_on_c, 5, 62, 0
7, 90860, Note_on_c, 5, 59, 0
7, 90870, Note_on_c, 5, 59, 91
7, 90870, Note_on_c, 5, 62, 91
7, 90890, Note_on_c, 5, 62, 0
7, 90890, Note_on_c, 5, 59, 0
7, 90900, Note_on_c, 5, 59, 90
7, 90900, Note_on_c, 5, 62, 90
7, 90920, Note_on_c, 5, 62, 0
7, 90920, Note_on_c, 5, 59, 0
7, 90930, Note_on_c, 5, 59, 90
7, 90930, Note_on_c, 5, 62, 90
7, 90950, Note_on_c, 5, 62, 0
7, 90950, Note_on_c, 5, 59, 0
7, 90960, Note_on_c, 5, 59, 90
7, 90960, Note_on_c, 5, 62, 90
7, 90980, Note_on_c, 5, 62, 0
7, 90980, Note_on_c, 5, 59, 0
7, 90990, Note_on_c, 5, 59, 90
7, 90990, Note_on_c, 5, 62, 90
7, 91010, Note_on_c, 5, 62, 0
7, 91010, Note_on_c, 5, 59, 0
7, 91020, Note_on_c, 5, 59, 90
7, 91020, Note_on_c, 5, 62, 90
7, 91040, Note_on_c, 5, 62, 0
7, 91040, Note_on_c, 5, 59, 0
7, 91050, Note_on_c, 5, 59, 90
7, 91050, Note_on_c, 5, 62, 90
7, 91070, Note_on_c, 5, 62, 0
7, 91070, Note_on_c, 5, 59, 0
7, 91080, Note_on_c, 5, 60, 91
7, 91080, Note_on_c, 5, 62, 91
7, 91100, Note_on_c, 5, 62, 0
7, 91100, Note_on_c, 5, 60, 0
7, 91110, Note_on_c, 5, 60, 94
7, 91110, Note_on_c, 5, 62, 94
7, 91130, Note_on_c, 5, 62, 0
7, 91130, Note_on_c, 5, 60, 0
7, 91140, Note_on_c, 5, 60, 95
7, 91140, Note_on_c, 5, 62, 95
7, 91160, Note_on_c, 5, 62, 0
7, 91160, Note_on_c, 5, 60, 0
7, 91170, Note_on_c, 5, 60, 98
7, 91170, Note_on_c, 5, 62, 98
7, 91190, Note_on_c, 5, 62, 0
7, 91190, Note_on_c, 5, 60, 0
7, 91200, Note_on_c, 5, 62, 98
7, 91200, Note_on_c, 5, 59, 98
7, 91320, Note_on_c, 5, 59, 0
7, 91320, Note_on_c, 5, 62, 0
7, 91440, Note_on_c, 5, 79, 103
7, 91440, Note_on_c, 5, 71, 103
7, 91440, Note_on_c, 5, 62, 103
7, 91560, Note_on_c, 5, 62, 0
7, 91560, Note_on_c, 5, 71, 0
7, 91560, Note_on_c, 5, 79, 0
7, 91682, Note_on_c, 5, 62, 103
7, 91682, Note_on_c, 5, 71, 103
7, 91682, Note_on_c, 5, 79, 103
7, 91782, Note_on_c, 5, 79, 0
7, 91782, Note_on_c, 5, 71, 0
7, 91782, Note_on_c, 5, 62, 0
7, 91802, Note_on_c, 5, 55, 103
7, 91802, Note_on_c, 5, 67, 103
7, 91862, Note_on_c, 5, 67, 0
7, 91862, Note_on_c, 5, 55, 0
7, 91892, Note_on_c, 5, 55, 103
7, 91892, Note_on_c, 5, 67, 103
7, 91907, Note_on_c, 5, 67, 0
7, 91907, Note_on_c, 5, 55, 0
7, 91922, Note_on_c, 5, 55, 103
7, 91922, Note_on_c, 5, 67, 103
7, 92042, Note_on_c, 5, 67, 0
7, 92042, Note_on_c, 5, 55, 0
7, 92042, End_track
8, 0, Start_track
8, 0, MIDI_port, 0
8, 0, Title_t, "+++++++++++"
8, 0, Program_c, 6, 44
8, 0, Control_c, 6, 7, 105
8, 0, Control_c, 6, 10, 66
8, 0, Note_on_c, 6, 67, 85
8, 120, Note_on_c, 6, 67, 0
8, 180, Note_on_c, 6, 62, 85
8, 210, Note_on_c, 6, 62, 0
8, 240, Note_on_c, 6, 67, 85
8, 360, Note_on_c, 6, 67, 0
8, 420, Note_on_c, 6, 62, 85
8, 450, Note_on_c, 6, 62, 0
8, 480, Note_on_c, 6, 67, 85
8, 510, Note_on_c, 6, 67, 0
8, 540, Note_on_c, 6, 62, 85
8, 570, Note_on_c, 6, 62, 0
8, 600, Note_on_c, 6, 67, 85
8, 630, Note_on_c, 6, 67, 0
8, 660, Note_on_c, 6, 71, 85
8, 690, Note_on_c, 6, 71, 0
8, 720, Note_on_c, 6, 74, 85
8, 840, Note_on_c, 6, 74, 0
8, 960, Note_on_c, 6, 72, 85
8, 1080, Note_on_c, 6, 72, 0
8, 1140, Note_on_c, 6, 69, 85
8, 1170, Note_on_c, 6, 69, 0
8, 1200, Note_on_c, 6, 72, 85
8, 1320, Note_on_c, 6, 72, 0
8, 1380, Note_on_c, 6, 69, 85
8, 1410, Note_on_c, 6, 69, 0
8, 1440, Note_on_c, 6, 72, 85
8, 1470, Note_on_c, 6, 72, 0
8, 1500, Note_on_c, 6, 69, 85
8, 1530, Note_on_c, 6, 69, 0
8, 1560, Note_on_c, 6, 66, 85
8, 1590, Note_on_c, 6, 66, 0
8, 1620, Note_on_c, 6, 69, 85
8, 1650, Note_on_c, 6, 69, 0
8, 1680, Note_on_c, 6, 62, 85
8, 1800, Note_on_c, 6, 62, 0
8, 1920, Note_on_c, 6, 67, 85
8, 1965, Note_on_c, 6, 67, 0
8, 1980, Note_on_c, 6, 67, 85
8, 2025, Note_on_c, 6, 67, 0
8, 2040, Note_on_c, 6, 67, 85
8, 2085, Note_on_c, 6, 67, 0
8, 2100, Note_on_c, 6, 67, 85
8, 2145, Note_on_c, 6, 67, 0
8, 2160, Note_on_c, 6, 67, 85
8, 2205, Note_on_c, 6, 67, 0
8, 2220, Note_on_c, 6, 67, 85
8, 2265, Note_on_c, 6, 67, 0
8, 2280, Note_on_c, 6, 67, 85
8, 2325, Note_on_c, 6, 67, 0
8, 2340, Note_on_c, 6, 67, 85
8, 2385, Note_on_c, 6, 67, 0
8, 2400, Note_on_c, 6, 69, 85
8, 2445, Note_on_c, 6, 69, 0
8, 2460, Note_on_c, 6, 69, 85
8, 2505, Note_on_c, 6, 69, 0
8, 2520, Note_on_c, 6, 69, 85
8, 2565, Note_on_c, 6, 69, 0
8, 2580, Note_on_c, 6, 69, 85
8, 2625, Note_on_c, 6, 69, 0
8, 2640, Note_on_c, 6, 69, 85
8, 2700, Note_on_c, 6, 69, 0
8, 2700, Note_on_c, 6, 72, 85
8, 2745, Note_on_c, 6, 72, 0
8, 2760, Note_on_c, 6, 66, 85
8, 2820, Note_on_c, 6, 66, 0
8, 2820, Note_on_c, 6, 69, 85
8, 2865, Note_on_c, 6, 69, 0
8, 2880, Note_on_c, 6, 67, 85
8, 2925, Note_on_c, 6, 67, 0
8, 2940, Note_on_c, 6, 67, 85
8, 2985, Note_on_c, 6, 67, 0
8, 3000, Note_on_c, 6, 67, 85
8, 3045, Note_on_c, 6, 67, 0
8, 3060, Note_on_c, 6, 67, 85
8, 3105, Note_on_c, 6, 67, 0
8, 3120, Note_on_c, 6, 67, 85
8, 3165, Note_on_c, 6, 67, 0
8, 3180, Note_on_c, 6, 67, 85
8, 3225, Note_on_c, 6, 67, 0
8, 3240, Note_on_c, 6, 67, 85
8, 3285, Note_on_c, 6, 67, 0
8, 3300, Note_on_c, 6, 67, 85
8, 3345, Note_on_c, 6, 67, 0
8, 3360, Note_on_c, 6, 69, 85
8, 3405, Note_on_c, 6, 69, 0
8, 3420, Note_on_c, 6, 69, 85
8, 3465, Note_on_c, 6, 69, 0
8, 3480, Note_on_c, 6, 69, 85
8, 3525, Note_on_c, 6, 69, 0
8, 3540, Note_on_c, 6, 69, 85
8, 3585, Note_on_c, 6, 69, 0
8, 3600, Note_on_c, 6, 69, 85
8, 3660, Note_on_c, 6, 69, 0
8, 3660, Note_on_c, 6, 72, 85
8, 3705, Note_on_c, 6, 72, 0
8, 3720, Note_on_c, 6, 66, 85
8, 3780, Note_on_c, 6, 66, 0
8, 3780, Note_on_c, 6, 69, 85
8, 3825, Note_on_c, 6, 69, 0
8, 3840, Note_on_c, 6, 62, 85
8, 3860, Note_on_c, 6, 62, 0
8, 3870, Note_on_c, 6, 62, 85
8, 3890, Note_on_c, 6, 62, 0
8, 3900, Note_on_c, 6, 62, 85
8, 3920, Note_on_c, 6, 62, 0
8, 3930, Note_on_c, 6, 62, 85
8, 3950, Note_on_c, 6, 62, 0
8, 3960, Note_on_c, 6, 62, 85
8, 3980, Note_on_c, 6, 62, 0
8, 3990, Note_on_c, 6, 62, 85
8, 4010, Note_on_c, 6, 62, 0
8, 4020, Note_on_c, 6, 62, 85
8, 4040, Note_on_c, 6, 62, 0
8, 4050, Note_on_c, 6, 62, 85
8, 4070, Note_on_c, 6, 62, 0
8, 4080, Note_on_c, 6, 62, 85
8, 4100, Note_on_c, 6, 62, 0
8, 4110, Note_on_c, 6, 62, 85
8, 4130, Note_on_c, 6, 62, 0
8, 4140, Note_on_c, 6, 62, 85
8, 4160, Note_on_c, 6, 62, 0
8, 4170, Note_on_c, 6, 62, 85
8, 4190, Note_on_c, 6, 62, 0
8, 4200, Note_on_c, 6, 62, 85
8, 4220, Note_on_c, 6, 62, 0
8, 4230, Note_on_c, 6, 62, 85
8, 4250, Note_on_c, 6, 62, 0
8, 4260, Note_on_c, 6, 62, 85
8, 4280, Note_on_c, 6, 62, 0
8, 4290, Note_on_c, 6, 62, 85
8, 4310, Note_on_c, 6, 62, 0
8, 4320, Note_on_c, 6, 62, 85
8, 4340, Note_on_c, 6, 62, 0
8, 4350, Note_on_c, 6, 62, 85
8, 4370, Note_on_c, 6, 62, 0
8, 4380, Note_on_c, 6, 62, 85
8, 4400, Note_on_c, 6, 62, 0
8, 4410, Note_on_c, 6, 62, 85
8, 4430, Note_on_c, 6, 62, 0
8, 4440, Note_on_c, 6, 62, 85
8, 4460, Note_on_c, 6, 62, 0
8, 4470, Note_on_c, 6, 62, 85
8, 4490, Note_on_c, 6, 62, 0
8, 4500, Note_on_c, 6, 62, 85
8, 4520, Note_on_c, 6, 62, 0
8, 4530, Note_on_c, 6, 62, 85
8, 4550, Note_on_c, 6, 62, 0
8, 4560, Note_on_c, 6, 62, 85
8, 4680, Note_on_c, 6, 62, 0
8, 5280, Note_on_c, 6, 54, 47
8, 5520, Note_on_c, 6, 54, 0
8, 5520, Note_on_c, 6, 55, 47
8, 5760, Note_on_c, 6, 55, 0
8, 5760, Note_on_c, 6, 60, 47
8, 5850, Note_on_c, 6, 60, 0
8, 5880, Note_on_c, 6, 60, 47
8, 5970, Note_on_c, 6, 60, 0
8, 6000, Note_on_c, 6, 57, 47
8, 6090, Note_on_c, 6, 57, 0
8, 6120, Note_on_c, 6, 50, 47
8, 6210, Note_on_c, 6, 50, 0
8, 6240, Note_on_c, 6, 50, 47
8, 6300, Note_on_c, 6, 50, 0
8, 6360, Note_on_c, 6, 62, 47
8, 6420, Note_on_c, 6, 62, 0
8, 6480, Note_on_c, 6, 62, 47
8, 6600, Note_on_c, 6, 62, 0
8, 7200, Note_on_c, 6, 66, 47
8, 7440, Note_on_c, 6, 66, 0
8, 7440, Note_on_c, 6, 67, 47
8, 7680, Note_on_c, 6, 67, 0
8, 7680, Note_on_c, 6, 60, 47
8, 7770, Note_on_c, 6, 60, 0
8, 7800, Note_on_c, 6, 60, 47
8, 7845, Note_on_c, 6, 60, 0
8, 7860, Note_on_c, 6, 60, 47
8, 7905, Note_on_c, 6, 60, 0
8, 7920, Note_on_c, 6, 57, 47
8, 8010, Note_on_c, 6, 57, 0
8, 8040, Note_on_c, 6, 57, 47
8, 8085, Note_on_c, 6, 57, 0
8, 8100, Note_on_c, 6, 57, 47
8, 8145, Note_on_c, 6, 57, 0
8, 8160, Note_on_c, 6, 55, 92
8, 8205, Note_on_c, 6, 55, 0
8, 8220, Note_on_c, 6, 55, 71
8, 8265, Note_on_c, 6, 55, 0
8, 8280, Note_on_c, 6, 55, 71
8, 8325, Note_on_c, 6, 55, 0
8, 8340, Note_on_c, 6, 55, 71
8, 8385, Note_on_c, 6, 55, 0
8, 8400, Note_on_c, 6, 55, 55
8, 8445, Note_on_c, 6, 55, 0
8, 8460, Note_on_c, 6, 55, 50
8, 8505, Note_on_c, 6, 55, 0
8, 8520, Note_on_c, 6, 55, 50
8, 8565, Note_on_c, 6, 55, 0
8, 8580, Note_on_c, 6, 55, 50
8, 8625, Note_on_c, 6, 55, 0
8, 8640, Note_on_c, 6, 55, 91
8, 8685, Note_on_c, 6, 55, 0
8, 8700, Note_on_c, 6, 55, 65
8, 8745, Note_on_c, 6, 55, 0
8, 8760, Note_on_c, 6, 55, 65
8, 8805, Note_on_c, 6, 55, 0
8, 8820, Note_on_c, 6, 55, 65
8, 8865, Note_on_c, 6, 55, 0
8, 8880, Note_on_c, 6, 55, 46
8, 8925, Note_on_c, 6, 55, 0
8, 8940, Note_on_c, 6, 55, 46
8, 8985, Note_on_c, 6, 55, 0
8, 9000, Note_on_c, 6, 55, 46
8, 9045, Note_on_c, 6, 55, 0
8, 9060, Note_on_c, 6, 55, 46
8, 9105, Note_on_c, 6, 55, 0
8, 9120, Note_on_c, 6, 55, 59
8, 9165, Note_on_c, 6, 55, 0
8, 9180, Note_on_c, 6, 67, 41
8, 9225, Note_on_c, 6, 67, 0
8, 9240, Note_on_c, 6, 67, 46
8, 9285, Note_on_c, 6, 67, 0
8, 9300, Note_on_c, 6, 67, 49
8, 9345, Note_on_c, 6, 67, 0
8, 9360, Note_on_c, 6, 67, 53
8, 9405, Note_on_c, 6, 67, 0
8, 9420, Note_on_c, 6, 67, 56
8, 9465, Note_on_c, 6, 67, 0
8, 9480, Note_on_c, 6, 69, 61
8, 9525, Note_on_c, 6, 69, 0
8, 9540, Note_on_c, 6, 69, 64
8, 9585, Note_on_c, 6, 69, 0
8, 9600, Note_on_c, 6, 67, 68
8, 9645, Note_on_c, 6, 67, 0
8, 9660, Note_on_c, 6, 67, 71
8, 9705, Note_on_c, 6, 67, 0
8, 9720, Note_on_c, 6, 66, 76
8, 9765, Note_on_c, 6, 66, 0
8, 9780, Note_on_c, 6, 66, 79
8, 9825, Note_on_c, 6, 66, 0
8, 9840, Note_on_c, 6, 67, 82
8, 9885, Note_on_c, 6, 67, 0
8, 9900, Note_on_c, 6, 67, 82
8, 9945, Note_on_c, 6, 67, 0
8, 9960, Note_on_c, 6, 64, 82
8, 10005, Note_on_c, 6, 64, 0
8, 10020, Note_on_c, 6, 64, 82
8, 10065, Note_on_c, 6, 64, 0
8, 10080, Note_on_c, 6, 69, 85
8, 10080, Note_on_c, 6, 62, 85
8, 10100, Note_on_c, 6, 62, 0
8, 10100, Note_on_c, 6, 69, 0
8, 10110, Note_on_c, 6, 69, 85
8, 10110, Note_on_c, 6, 62, 85
8, 10130, Note_on_c, 6, 62, 0
8, 10130, Note_on_c, 6, 69, 0
8, 10140, Note_on_c, 6, 69, 85
8, 10140, Note_on_c, 6, 62, 85
8, 10160, Note_on_c, 6, 62, 0
8, 10160, Note_on_c, 6, 69, 0
8, 10170, Note_on_c, 6, 69, 85
8, 10170, Note_on_c, 6, 62, 85
8, 10190, Note_on_c, 6, 62, 0
8, 10190, Note_on_c, 6, 69, 0
8, 10200, Note_on_c, 6, 69, 85
8, 10200, Note_on_c, 6, 62, 85
8, 10220, Note_on_c, 6, 62, 0
8, 10220, Note_on_c, 6, 69, 0
8, 10230, Note_on_c, 6, 69, 85
8, 10230, Note_on_c, 6, 62, 85
8, 10250, Note_on_c, 6, 62, 0
8, 10250, Note_on_c, 6, 69, 0
8, 10260, Note_on_c, 6, 69, 85
8, 10260, Note_on_c, 6, 62, 85
8, 10280, Note_on_c, 6, 62, 0
8, 10280, Note_on_c, 6, 69, 0
8, 10290, Note_on_c, 6, 69, 85
8, 10290, Note_on_c, 6, 62, 85
8, 10310, Note_on_c, 6, 62, 0
8, 10310, Note_on_c, 6, 69, 0
8, 10320, Note_on_c, 6, 69, 85
8, 10320, Note_on_c, 6, 64, 85
8, 10340, Note_on_c, 6, 64, 0
8, 10340, Note_on_c, 6, 69, 0
8, 10350, Note_on_c, 6, 69, 85
8, 10350, Note_on_c, 6, 64, 85
8, 10370, Note_on_c, 6, 64, 0
8, 10370, Note_on_c, 6, 69, 0
8, 10380, Note_on_c, 6, 69, 85
8, 10380, Note_on_c, 6, 64, 85
8, 10400, Note_on_c, 6, 64, 0
8, 10400, Note_on_c, 6, 69, 0
8, 10410, Note_on_c, 6, 69, 85
8, 10410, Note_on_c, 6, 64, 85
8, 10430, Note_on_c, 6, 64, 0
8, 10430, Note_on_c, 6, 69, 0
8, 10440, Note_on_c, 6, 69, 85
8, 10440, Note_on_c, 6, 64, 85
8, 10460, Note_on_c, 6, 64, 0
8, 10460, Note_on_c, 6, 69, 0
8, 10470, Note_on_c, 6, 69, 85
8, 10470, Note_on_c, 6, 64, 85
8, 10490, Note_on_c, 6, 64, 0
8, 10490, Note_on_c, 6, 69, 0
8, 10500, Note_on_c, 6, 69, 85
8, 10500, Note_on_c, 6, 64, 85
8, 10520, Note_on_c, 6, 64, 0
8, 10520, Note_on_c, 6, 69, 0
8, 10530, Note_on_c, 6, 69, 85
8, 10530, Note_on_c, 6, 64, 85
8, 10550, Note_on_c, 6, 64, 0
8, 10550, Note_on_c, 6, 69, 0
8, 10560, Note_on_c, 6, 69, 85
8, 10560, Note_on_c, 6, 62, 85
8, 10580, Note_on_c, 6, 62, 0
8, 10580, Note_on_c, 6, 69, 0
8, 10590, Note_on_c, 6, 69, 85
8, 10590, Note_on_c, 6, 62, 85
8, 10610, Note_on_c, 6, 62, 0
8, 10610, Note_on_c, 6, 69, 0
8, 10620, Note_on_c, 6, 69, 85
8, 10620, Note_on_c, 6, 62, 85
8, 10640, Note_on_c, 6, 62, 0
8, 10640, Note_on_c, 6, 69, 0
8, 10650, Note_on_c, 6, 69, 85
8, 10650, Note_on_c, 6, 62, 85
8, 10670, Note_on_c, 6, 62, 0
8, 10670, Note_on_c, 6, 69, 0
8, 10680, Note_on_c, 6, 69, 85
8, 10680, Note_on_c, 6, 62, 85
8, 10700, Note_on_c, 6, 62, 0
8, 10700, Note_on_c, 6, 69, 0
8, 10710, Note_on_c, 6, 69, 85
8, 10710, Note_on_c, 6, 62, 85
8, 10730, Note_on_c, 6, 62, 0
8, 10730, Note_on_c, 6, 69, 0
8, 10740, Note_on_c, 6, 69, 85
8, 10740, Note_on_c, 6, 62, 85
8, 10760, Note_on_c, 6, 62, 0
8, 10760, Note_on_c, 6, 69, 0
8, 10770, Note_on_c, 6, 69, 85
8, 10770, Note_on_c, 6, 62, 85
8, 10790, Note_on_c, 6, 62, 0
8, 10790, Note_on_c, 6, 69, 0
8, 10800, Note_on_c, 6, 69, 85
8, 10800, Note_on_c, 6, 64, 85
8, 10820, Note_on_c, 6, 64, 0
8, 10820, Note_on_c, 6, 69, 0
8, 10830, Note_on_c, 6, 69, 85
8, 10830, Note_on_c, 6, 64, 85
8, 10850, Note_on_c, 6, 64, 0
8, 10850, Note_on_c, 6, 69, 0
8, 10860, Note_on_c, 6, 69, 85
8, 10860, Note_on_c, 6, 64, 85
8, 10880, Note_on_c, 6, 64, 0
8, 10880, Note_on_c, 6, 69, 0
8, 10890, Note_on_c, 6, 69, 85
8, 10890, Note_on_c, 6, 64, 85
8, 10910, Note_on_c, 6, 64, 0
8, 10910, Note_on_c, 6, 69, 0
8, 10920, Note_on_c, 6, 69, 85
8, 10920, Note_on_c, 6, 64, 85
8, 10940, Note_on_c, 6, 64, 0
8, 10940, Note_on_c, 6, 69, 0
8, 10950, Note_on_c, 6, 69, 85
8, 10950, Note_on_c, 6, 64, 85
8, 10970, Note_on_c, 6, 64, 0
8, 10970, Note_on_c, 6, 69, 0
8, 10980, Note_on_c, 6, 69, 85
8, 10980, Note_on_c, 6, 64, 85
8, 11000, Note_on_c, 6, 64, 0
8, 11000, Note_on_c, 6, 69, 0
8, 11010, Note_on_c, 6, 69, 85
8, 11010, Note_on_c, 6, 64, 85
8, 11030, Note_on_c, 6, 64, 0
8, 11030, Note_on_c, 6, 69, 0
8, 11040, Note_on_c, 6, 62, 85
8, 11085, Note_on_c, 6, 62, 0
8, 11100, Note_on_c, 6, 64, 85
8, 11145, Note_on_c, 6, 64, 0
8, 11160, Note_on_c, 6, 66, 85
8, 11205, Note_on_c, 6, 66, 0
8, 11220, Note_on_c, 6, 64, 85
8, 11265, Note_on_c, 6, 64, 0
8, 11280, Note_on_c, 6, 62, 85
8, 11325, Note_on_c, 6, 62, 0
8, 11340, Note_on_c, 6, 64, 85
8, 11385, Note_on_c, 6, 64, 0
8, 11400, Note_on_c, 6, 66, 85
8, 11445, Note_on_c, 6, 66, 0
8, 11460, Note_on_c, 6, 62, 85
8, 11505, Note_on_c, 6, 62, 0
8, 11520, Note_on_c, 6, 71, 85
8, 11565, Note_on_c, 6, 71, 0
8, 11580, Note_on_c, 6, 69, 85
8, 11625, Note_on_c, 6, 69, 0
8, 11640, Note_on_c, 6, 67, 85
8, 11685, Note_on_c, 6, 67, 0
8, 11700, Note_on_c, 6, 69, 85
8, 11745, Note_on_c, 6, 69, 0
8, 11760, Note_on_c, 6, 71, 85
8, 11805, Note_on_c, 6, 71, 0
8, 11820, Note_on_c, 6, 69, 85
8, 11865, Note_on_c, 6, 69, 0
8, 11880, Note_on_c, 6, 68, 85
8, 11925, Note_on_c, 6, 68, 0
8, 11940, Note_on_c, 6, 71, 85
8, 11985, Note_on_c, 6, 71, 0
8, 12000, Note_on_c, 6, 69, 85
8, 12045, Note_on_c, 6, 69, 0
8, 12060, Note_on_c, 6, 69, 85
8, 12105, Note_on_c, 6, 69, 0
8, 12120, Note_on_c, 6, 69, 85
8, 12165, Note_on_c, 6, 69, 0
8, 12180, Note_on_c, 6, 69, 85
8, 12225, Note_on_c, 6, 69, 0
8, 12240, Note_on_c, 6, 69, 85
8, 12285, Note_on_c, 6, 69, 0
8, 12300, Note_on_c, 6, 69, 85
8, 12345, Note_on_c, 6, 69, 0
8, 12360, Note_on_c, 6, 69, 85
8, 12405, Note_on_c, 6, 69, 0
8, 12420, Note_on_c, 6, 69, 85
8, 12465, Note_on_c, 6, 69, 0
8, 12480, Note_on_c, 6, 69, 85
8, 12525, Note_on_c, 6, 69, 0
8, 12540, Note_on_c, 6, 57, 85
8, 12585, Note_on_c, 6, 57, 0
8, 12600, Note_on_c, 6, 57, 85
8, 12645, Note_on_c, 6, 57, 0
8, 12660, Note_on_c, 6, 57, 85
8, 12705, Note_on_c, 6, 57, 0
8, 12720, Note_on_c, 6, 57, 85
8, 12840, Note_on_c, 6, 57, 0
8, 13320, Note_on_c, 6, 66, 55
8, 13380, Note_on_c, 6, 66, 0
8, 13440, Note_on_c, 6, 59, 55
8, 13500, Note_on_c, 6, 59, 0
8, 13560, Note_on_c, 6, 67, 55
8, 13620, Note_on_c, 6, 67, 0
8, 13680, Note_on_c, 6, 64, 55
8, 13740, Note_on_c, 6, 64, 0
8, 13800, Note_on_c, 6, 61, 55
8, 13860, Note_on_c, 6, 61, 0
8, 14040, Note_on_c, 6, 64, 55
8, 14160, Note_on_c, 6, 64, 0
8, 14160, Note_on_c, 6, 62, 55
8, 14220, Note_on_c, 6, 62, 0
8, 14280, Note_on_c, 6, 64, 55
8, 14340, Note_on_c, 6, 64, 0
8, 14400, Note_on_c, 6, 62, 55
8, 14640, Note_on_c, 6, 62, 0
8, 14640, Note_on_c, 6, 61, 55
8, 14760, Note_on_c, 6, 61, 0
8, 15000, Note_on_c, 6, 61, 55
8, 15120, Note_on_c, 6, 61, 0
8, 15120, Note_on_c, 6, 62, 55
8, 15180, Note_on_c, 6, 62, 0
8, 15240, Note_on_c, 6, 66, 55
8, 15300, Note_on_c, 6, 66, 0
8, 15360, Note_on_c, 6, 59, 55
8, 15420, Note_on_c, 6, 59, 0
8, 15480, Note_on_c, 6, 55, 55
8, 15540, Note_on_c, 6, 55, 0
8, 15600, Note_on_c, 6, 52, 55
8, 15720, Note_on_c, 6, 52, 0
8, 15780, Note_on_c, 6, 64, 55
8, 15825, Note_on_c, 6, 64, 0
8, 15840, Note_on_c, 6, 64, 55
8, 15900, Note_on_c, 6, 64, 0
8, 15900, Note_on_c, 6, 62, 55
8, 15960, Note_on_c, 6, 62, 0
8, 16320, Note_on_c, 6, 62, 55
8, 16365, Note_on_c, 6, 62, 0
8, 16380, Note_on_c, 6, 62, 55
8, 16425, Note_on_c, 6, 62, 0
8, 16440, Note_on_c, 6, 64, 55
8, 16485, Note_on_c, 6, 64, 0
8, 16500, Note_on_c, 6, 64, 55
8, 16545, Note_on_c, 6, 64, 0
8, 16560, Note_on_c, 6, 66, 55
8, 16605, Note_on_c, 6, 66, 0
8, 16620, Note_on_c, 6, 66, 55
8, 16665, Note_on_c, 6, 66, 0
8, 16680, Note_on_c, 6, 62, 55
8, 16725, Note_on_c, 6, 62, 0
8, 16740, Note_on_c, 6, 62, 55
8, 16785, Note_on_c, 6, 62, 0
8, 16800, Note_on_c, 6, 61, 55
8, 16845, Note_on_c, 6, 61, 0
8, 16860, Note_on_c, 6, 61, 55
8, 16905, Note_on_c, 6, 61, 0
8, 16920, Note_on_c, 6, 62, 55
8, 16965, Note_on_c, 6, 62, 0
8, 16980, Note_on_c, 6, 62, 55
8, 17025, Note_on_c, 6, 62, 0
8, 17040, Note_on_c, 6, 64, 55
8, 17085, Note_on_c, 6, 64, 0
8, 17100, Note_on_c, 6, 64, 55
8, 17145, Note_on_c, 6, 64, 0
8, 17160, Note_on_c, 6, 61, 55
8, 17205, Note_on_c, 6, 61, 0
8, 17220, Note_on_c, 6, 61, 55
8, 17265, Note_on_c, 6, 61, 0
8, 17280, Note_on_c, 6, 62, 55
8, 17325, Note_on_c, 6, 62, 0
8, 17340, Note_on_c, 6, 62, 55
8, 17385, Note_on_c, 6, 62, 0
8, 17400, Note_on_c, 6, 64, 55
8, 17445, Note_on_c, 6, 64, 0
8, 17460, Note_on_c, 6, 64, 55
8, 17505, Note_on_c, 6, 64, 0
8, 17520, Note_on_c, 6, 66, 55
8, 17565, Note_on_c, 6, 66, 0
8, 17580, Note_on_c, 6, 66, 55
8, 17625, Note_on_c, 6, 66, 0
8, 17640, Note_on_c, 6, 62, 55
8, 17685, Note_on_c, 6, 62, 0
8, 17700, Note_on_c, 6, 62, 55
8, 17745, Note_on_c, 6, 62, 0
8, 17760, Note_on_c, 6, 61, 55
8, 17805, Note_on_c, 6, 61, 0
8, 17820, Note_on_c, 6, 61, 55
8, 17865, Note_on_c, 6, 61, 0
8, 17880, Note_on_c, 6, 62, 55
8, 17925, Note_on_c, 6, 62, 0
8, 17940, Note_on_c, 6, 62, 55
8, 17985, Note_on_c, 6, 62, 0
8, 18000, Note_on_c, 6, 64, 55
8, 18045, Note_on_c, 6, 64, 0
8, 18060, Note_on_c, 6, 64, 55
8, 18105, Note_on_c, 6, 64, 0
8, 18120, Note_on_c, 6, 61, 55
8, 18165, Note_on_c, 6, 61, 0
8, 18180, Note_on_c, 6, 61, 55
8, 18225, Note_on_c, 6, 61, 0
8, 18240, Note_on_c, 6, 62, 55
8, 18285, Note_on_c, 6, 62, 0
8, 18300, Note_on_c, 6, 62, 55
8, 18345, Note_on_c, 6, 62, 0
8, 18360, Note_on_c, 6, 66, 55
8, 18405, Note_on_c, 6, 66, 0
8, 18420, Note_on_c, 6, 64, 55
8, 18465, Note_on_c, 6, 64, 0
8, 18480, Note_on_c, 6, 63, 55
8, 18525, Note_on_c, 6, 63, 0
8, 18540, Note_on_c, 6, 59, 55
8, 18585, Note_on_c, 6, 59, 0
8, 18600, Note_on_c, 6, 61, 55
8, 18645, Note_on_c, 6, 61, 0
8, 18660, Note_on_c, 6, 62, 55
8, 18705, Note_on_c, 6, 62, 0
8, 18720, Note_on_c, 6, 64, 85
8, 18765, Note_on_c, 6, 64, 0
8, 18780, Note_on_c, 6, 67, 85
8, 18825, Note_on_c, 6, 67, 0
8, 18840, Note_on_c, 6, 64, 85
8, 18885, Note_on_c, 6, 64, 0
8, 18900, Note_on_c, 6, 62, 85
8, 18945, Note_on_c, 6, 62, 0
8, 18960, Note_on_c, 6, 61, 85
8, 19005, Note_on_c, 6, 61, 0
8, 19020, Note_on_c, 6, 57, 55
8, 19065, Note_on_c, 6, 57, 0
8, 19080, Note_on_c, 6, 59, 85
8, 19125, Note_on_c, 6, 59, 0
8, 19140, Note_on_c, 6, 61, 85
8, 19185, Note_on_c, 6, 61, 0
8, 19200, Note_on_c, 6, 62, 85
8, 19245, Note_on_c, 6, 62, 0
8, 19260, Note_on_c, 6, 74, 85
8, 19305, Note_on_c, 6, 74, 0
8, 19320, Note_on_c, 6, 74, 85
8, 19365, Note_on_c, 6, 74, 0
8, 19380, Note_on_c, 6, 74, 85
8, 19425, Note_on_c, 6, 74, 0
8, 19440, Note_on_c, 6, 74, 85
8, 19485, Note_on_c, 6, 74, 0
8, 19500, Note_on_c, 6, 74, 85
8, 19545, Note_on_c, 6, 74, 0
8, 19560, Note_on_c, 6, 74, 85
8, 19605, Note_on_c, 6, 74, 0
8, 19620, Note_on_c, 6, 74, 85
8, 19665, Note_on_c, 6, 74, 0
8, 19680, Note_on_c, 6, 74, 85
8, 19740, Note_on_c, 6, 74, 0
8, 19740, Note_on_c, 6, 69, 85
8, 19785, Note_on_c, 6, 69, 0
8, 19800, Note_on_c, 6, 69, 85
8, 19830, Note_on_c, 6, 69, 0
8, 19860, Note_on_c, 6, 69, 85
8, 19890, Note_on_c, 6, 69, 0
8, 19920, Note_on_c, 6, 69, 85
8, 19965, Note_on_c, 6, 69, 0
8, 19980, Note_on_c, 6, 69, 85
8, 20025, Note_on_c, 6, 69, 0
8, 20040, Note_on_c, 6, 69, 85
8, 20085, Note_on_c, 6, 69, 0
8, 20100, Note_on_c, 6, 67, 85
8, 20145, Note_on_c, 6, 67, 0
8, 20160, Note_on_c, 6, 62, 85
8, 20205, Note_on_c, 6, 62, 0
8, 20220, Note_on_c, 6, 62, 53
8, 20265, Note_on_c, 6, 62, 0
8, 20280, Note_on_c, 6, 64, 53
8, 20325, Note_on_c, 6, 64, 0
8, 20340, Note_on_c, 6, 64, 53
8, 20385, Note_on_c, 6, 64, 0
8, 20400, Note_on_c, 6, 66, 53
8, 20445, Note_on_c, 6, 66, 0
8, 20460, Note_on_c, 6, 66, 53
8, 20505, Note_on_c, 6, 66, 0
8, 20520, Note_on_c, 6, 62, 53
8, 20565, Note_on_c, 6, 62, 0
8, 20580, Note_on_c, 6, 62, 53
8, 20625, Note_on_c, 6, 62, 0
8, 20640, Note_on_c, 6, 61, 55
8, 20685, Note_on_c, 6, 61, 0
8, 20700, Note_on_c, 6, 61, 55
8, 20745, Note_on_c, 6, 61, 0
8, 20760, Note_on_c, 6, 62, 55
8, 20805, Note_on_c, 6, 62, 0
8, 20820, Note_on_c, 6, 62, 55
8, 20865, Note_on_c, 6, 62, 0
8, 20880, Note_on_c, 6, 64, 55
8, 20925, Note_on_c, 6, 64, 0
8, 20940, Note_on_c, 6, 64, 55
8, 20985, Note_on_c, 6, 64, 0
8, 21000, Note_on_c, 6, 61, 55
8, 21045, Note_on_c, 6, 61, 0
8, 21060, Note_on_c, 6, 61, 55
8, 21105, Note_on_c, 6, 61, 0
8, 21120, Note_on_c, 6, 62, 55
8, 21165, Note_on_c, 6, 62, 0
8, 21180, Note_on_c, 6, 62, 55
8, 21225, Note_on_c, 6, 62, 0
8, 21240, Note_on_c, 6, 64, 55
8, 21285, Note_on_c, 6, 64, 0
8, 21300, Note_on_c, 6, 64, 55
8, 21345, Note_on_c, 6, 64, 0
8, 21360, Note_on_c, 6, 66, 55
8, 21405, Note_on_c, 6, 66, 0
8, 21420, Note_on_c, 6, 66, 55
8, 21465, Note_on_c, 6, 66, 0
8, 21480, Note_on_c, 6, 62, 55
8, 21525, Note_on_c, 6, 62, 0
8, 21540, Note_on_c, 6, 62, 55
8, 21585, Note_on_c, 6, 62, 0
8, 21600, Note_on_c, 6, 61, 55
8, 21645, Note_on_c, 6, 61, 0
8, 21660, Note_on_c, 6, 61, 55
8, 21705, Note_on_c, 6, 61, 0
8, 21720, Note_on_c, 6, 62, 55
8, 21765, Note_on_c, 6, 62, 0
8, 21780, Note_on_c, 6, 62, 55
8, 21825, Note_on_c, 6, 62, 0
8, 21840, Note_on_c, 6, 64, 55
8, 21885, Note_on_c, 6, 64, 0
8, 21900, Note_on_c, 6, 64, 55
8, 21945, Note_on_c, 6, 64, 0
8, 21960, Note_on_c, 6, 61, 55
8, 22005, Note_on_c, 6, 61, 0
8, 22020, Note_on_c, 6, 61, 55
8, 22065, Note_on_c, 6, 61, 0
8, 22080, Note_on_c, 6, 62, 55
8, 22125, Note_on_c, 6, 62, 0
8, 22140, Note_on_c, 6, 62, 85
8, 22185, Note_on_c, 6, 62, 0
8, 22200, Note_on_c, 6, 66, 85
8, 22245, Note_on_c, 6, 66, 0
8, 22260, Note_on_c, 6, 64, 85
8, 22305, Note_on_c, 6, 64, 0
8, 22320, Note_on_c, 6, 63, 85
8, 22365, Note_on_c, 6, 63, 0
8, 22380, Note_on_c, 6, 59, 85
8, 22425, Note_on_c, 6, 59, 0
8, 22440, Note_on_c, 6, 61, 85
8, 22485, Note_on_c, 6, 61, 0
8, 22500, Note_on_c, 6, 62, 85
8, 22545, Note_on_c, 6, 62, 0
8, 22560, Note_on_c, 6, 64, 85
8, 22605, Note_on_c, 6, 64, 0
8, 22620, Note_on_c, 6, 67, 85
8, 22665, Note_on_c, 6, 67, 0
8, 22680, Note_on_c, 6, 64, 85
8, 22725, Note_on_c, 6, 64, 0
8, 22740, Note_on_c, 6, 62, 85
8, 22785, Note_on_c, 6, 62, 0
8, 22800, Note_on_c, 6, 61, 85
8, 22845, Note_on_c, 6, 61, 0
8, 22860, Note_on_c, 6, 57, 85
8, 22905, Note_on_c, 6, 57, 0
8, 22920, Note_on_c, 6, 59, 85
8, 22965, Note_on_c, 6, 59, 0
8, 22980, Note_on_c, 6, 61, 85
8, 23025, Note_on_c, 6, 61, 0
8, 23040, Note_on_c, 6, 62, 85
8, 23085, Note_on_c, 6, 62, 0
8, 23100, Note_on_c, 6, 74, 85
8, 23145, Note_on_c, 6, 74, 0
8, 23160, Note_on_c, 6, 74, 85
8, 23205, Note_on_c, 6, 74, 0
8, 23220, Note_on_c, 6, 74, 85
8, 23265, Note_on_c, 6, 74, 0
8, 23280, Note_on_c, 6, 74, 85
8, 23325, Note_on_c, 6, 74, 0
8, 23340, Note_on_c, 6, 74, 85
8, 23385, Note_on_c, 6, 74, 0
8, 23400, Note_on_c, 6, 74, 85
8, 23445, Note_on_c, 6, 74, 0
8, 23460, Note_on_c, 6, 74, 85
8, 23505, Note_on_c, 6, 74, 0
8, 23520, Note_on_c, 6, 74, 85
8, 23580, Note_on_c, 6, 74, 0
8, 23580, Note_on_c, 6, 69, 85
8, 23625, Note_on_c, 6, 69, 0
8, 23640, Note_on_c, 6, 69, 85
8, 23670, Note_on_c, 6, 69, 0
8, 23700, Note_on_c, 6, 69, 85
8, 23730, Note_on_c, 6, 69, 0
8, 23760, Note_on_c, 6, 69, 85
8, 23805, Note_on_c, 6, 69, 0
8, 23820, Note_on_c, 6, 69, 85
8, 23865, Note_on_c, 6, 69, 0
8, 23880, Note_on_c, 6, 69, 85
8, 23925, Note_on_c, 6, 69, 0
8, 23940, Note_on_c, 6, 67, 85
8, 23985, Note_on_c, 6, 67, 0
8, 24000, Note_on_c, 6, 66, 85
8, 24045, Note_on_c, 6, 66, 0
8, 24060, Note_on_c, 6, 57, 85
8, 24105, Note_on_c, 6, 57, 0
8, 24120, Note_on_c, 6, 59, 85
8, 24165, Note_on_c, 6, 59, 0
8, 24180, Note_on_c, 6, 61, 85
8, 24225, Note_on_c, 6, 61, 0
8, 24240, Note_on_c, 6, 62, 85
8, 24285, Note_on_c, 6, 62, 0
8, 24300, Note_on_c, 6, 62, 85
8, 24345, Note_on_c, 6, 62, 0
8, 24360, Note_on_c, 6, 64, 85
8, 24405, Note_on_c, 6, 64, 0
8, 24420, Note_on_c, 6, 64, 85
8, 24465, Note_on_c, 6, 64, 0
8, 24480, Note_on_c, 6, 66, 85
8, 24525, Note_on_c, 6, 66, 0
8, 24540, Note_on_c, 6, 61, 85
8, 24585, Note_on_c, 6, 61, 0
8, 24600, Note_on_c, 6, 62, 85
8, 24645, Note_on_c, 6, 62, 0
8, 24660, Note_on_c, 6, 64, 85
8, 24705, Note_on_c, 6, 64, 0
8, 24720, Note_on_c, 6, 66, 85
8, 24765, Note_on_c, 6, 66, 0
8, 24780, Note_on_c, 6, 66, 85
8, 24825, Note_on_c, 6, 66, 0
8, 24840, Note_on_c, 6, 67, 85
8, 24885, Note_on_c, 6, 67, 0
8, 24900, Note_on_c, 6, 67, 85
8, 24945, Note_on_c, 6, 67, 0
8, 24960, Note_on_c, 6, 69, 85
8, 25005, Note_on_c, 6, 69, 0
8, 25020, Note_on_c, 6, 69, 85
8, 25065, Note_on_c, 6, 69, 0
8, 25080, Note_on_c, 6, 70, 85
8, 25125, Note_on_c, 6, 70, 0
8, 25140, Note_on_c, 6, 70, 85
8, 25185, Note_on_c, 6, 70, 0
8, 25200, Note_on_c, 6, 71, 85
8, 25320, Note_on_c, 6, 71, 0
8, 25440, Note_on_c, 6, 64, 55
8, 25800, Note_on_c, 6, 64, 0
8, 25800, Note_on_c, 6, 62, 55
8, 25860, Note_on_c, 6, 62, 0
8, 25860, Note_on_c, 6, 61, 55
8, 25920, Note_on_c, 6, 61, 0
8, 25920, Note_on_c, 6, 62, 55
8, 25980, Note_on_c, 6, 62, 0
8, 26040, Note_on_c, 6, 62, 55
8, 26100, Note_on_c, 6, 62, 0
8, 26160, Note_on_c, 6, 62, 55
8, 26220, Note_on_c, 6, 62, 0
8, 26400, Note_on_c, 6, 67, 85
8, 26520, Note_on_c, 6, 67, 0
8, 26580, Note_on_c, 6, 62, 85
8, 26610, Note_on_c, 6, 62, 0
8, 26640, Note_on_c, 6, 67, 85
8, 26760, Note_on_c, 6, 67, 0
8, 26820, Note_on_c, 6, 62, 85
8, 26850, Note_on_c, 6, 62, 0
8, 26880, Note_on_c, 6, 67, 85
8, 26910, Note_on_c, 6, 67, 0
8, 26940, Note_on_c, 6, 62, 85
8, 26970, Note_on_c, 6, 62, 0
8, 27000, Note_on_c, 6, 67, 85
8, 27030, Note_on_c, 6, 67, 0
8, 27060, Note_on_c, 6, 71, 85
8, 27090, Note_on_c, 6, 71, 0
8, 27120, Note_on_c, 6, 74, 85
8, 27240, Note_on_c, 6, 74, 0
8, 27360, Note_on_c, 6, 72, 85
8, 27480, Note_on_c, 6, 72, 0
8, 27540, Note_on_c, 6, 69, 85
8, 27570, Note_on_c, 6, 69, 0
8, 27600, Note_on_c, 6, 72, 85
8, 27720, Note_on_c, 6, 72, 0
8, 27780, Note_on_c, 6, 69, 85
8, 27810, Note_on_c, 6, 69, 0
8, 27840, Note_on_c, 6, 72, 85
8, 27870, Note_on_c, 6, 72, 0
8, 27900, Note_on_c, 6, 69, 85
8, 27930, Note_on_c, 6, 69, 0
8, 27960, Note_on_c, 6, 66, 85
8, 27990, Note_on_c, 6, 66, 0
8, 28020, Note_on_c, 6, 69, 85
8, 28050, Note_on_c, 6, 69, 0
8, 28080, Note_on_c, 6, 62, 85
8, 28200, Note_on_c, 6, 62, 0
8, 28320, Note_on_c, 6, 67, 85
8, 28365, Note_on_c, 6, 67, 0
8, 28380, Note_on_c, 6, 67, 85
8, 28425, Note_on_c, 6, 67, 0
8, 28440, Note_on_c, 6, 67, 85
8, 28485, Note_on_c, 6, 67, 0
8, 28500, Note_on_c, 6, 67, 85
8, 28545, Note_on_c, 6, 67, 0
8, 28560, Note_on_c, 6, 67, 85
8, 28605, Note_on_c, 6, 67, 0
8, 28620, Note_on_c, 6, 67, 85
8, 28665, Note_on_c, 6, 67, 0
8, 28680, Note_on_c, 6, 67, 85
8, 28725, Note_on_c, 6, 67, 0
8, 28740, Note_on_c, 6, 67, 85
8, 28785, Note_on_c, 6, 67, 0
8, 28800, Note_on_c, 6, 69, 85
8, 28845, Note_on_c, 6, 69, 0
8, 28860, Note_on_c, 6, 69, 85
8, 28905, Note_on_c, 6, 69, 0
8, 28920, Note_on_c, 6, 69, 85
8, 28965, Note_on_c, 6, 69, 0
8, 28980, Note_on_c, 6, 69, 85
8, 29025, Note_on_c, 6, 69, 0
8, 29040, Note_on_c, 6, 69, 85
8, 29100, Note_on_c, 6, 69, 0
8, 29100, Note_on_c, 6, 72, 85
8, 29145, Note_on_c, 6, 72, 0
8, 29160, Note_on_c, 6, 66, 85
8, 29220, Note_on_c, 6, 66, 0
8, 29220, Note_on_c, 6, 69, 85
8, 29265, Note_on_c, 6, 69, 0
8, 29280, Note_on_c, 6, 67, 85
8, 29325, Note_on_c, 6, 67, 0
8, 29340, Note_on_c, 6, 67, 85
8, 29385, Note_on_c, 6, 67, 0
8, 29400, Note_on_c, 6, 67, 85
8, 29445, Note_on_c, 6, 67, 0
8, 29460, Note_on_c, 6, 67, 85
8, 29505, Note_on_c, 6, 67, 0
8, 29520, Note_on_c, 6, 67, 85
8, 29565, Note_on_c, 6, 67, 0
8, 29580, Note_on_c, 6, 67, 85
8, 29625, Note_on_c, 6, 67, 0
8, 29640, Note_on_c, 6, 67, 85
8, 29685, Note_on_c, 6, 67, 0
8, 29700, Note_on_c, 6, 67, 85
8, 29745, Note_on_c, 6, 67, 0
8, 29760, Note_on_c, 6, 69, 85
8, 29805, Note_on_c, 6, 69, 0
8, 29820, Note_on_c, 6, 69, 85
8, 29865, Note_on_c, 6, 69, 0
8, 29880, Note_on_c, 6, 69, 85
8, 29925, Note_on_c, 6, 69, 0
8, 29940, Note_on_c, 6, 69, 85
8, 29985, Note_on_c, 6, 69, 0
8, 30000, Note_on_c, 6, 69, 85
8, 30060, Note_on_c, 6, 69, 0
8, 30060, Note_on_c, 6, 72, 85
8, 30105, Note_on_c, 6, 72, 0
8, 30120, Note_on_c, 6, 66, 85
8, 30180, Note_on_c, 6, 66, 0
8, 30180, Note_on_c, 6, 69, 85
8, 30225, Note_on_c, 6, 69, 0
8, 30240, Note_on_c, 6, 62, 85
8, 30260, Note_on_c, 6, 62, 0
8, 30270, Note_on_c, 6, 62, 85
8, 30290, Note_on_c, 6, 62, 0
8, 30300, Note_on_c, 6, 62, 85
8, 30320, Note_on_c, 6, 62, 0
8, 30330, Note_on_c, 6, 62, 85
8, 30350, Note_on_c, 6, 62, 0
8, 30360, Note_on_c, 6, 62, 85
8, 30380, Note_on_c, 6, 62, 0
8, 30390, Note_on_c, 6, 62, 85
8, 30410, Note_on_c, 6, 62, 0
8, 30420, Note_on_c, 6, 62, 85
8, 30440, Note_on_c, 6, 62, 0
8, 30450, Note_on_c, 6, 62, 85
8, 30470, Note_on_c, 6, 62, 0
8, 30480, Note_on_c, 6, 62, 85
8, 30500, Note_on_c, 6, 62, 0
8, 30510, Note_on_c, 6, 62, 85
8, 30530, Note_on_c, 6, 62, 0
8, 30540, Note_on_c, 6, 62, 85
8, 30560, Note_on_c, 6, 62, 0
8, 30570, Note_on_c, 6, 62, 85
8, 30590, Note_on_c, 6, 62, 0
8, 30600, Note_on_c, 6, 62, 85
8, 30620, Note_on_c, 6, 62, 0
8, 30630, Note_on_c, 6, 62, 85
8, 30650, Note_on_c, 6, 62, 0
8, 30660, Note_on_c, 6, 62, 85
8, 30680, Note_on_c, 6, 62, 0
8, 30690, Note_on_c, 6, 62, 85
8, 30710, Note_on_c, 6, 62, 0
8, 30720, Note_on_c, 6, 62, 85
8, 30740, Note_on_c, 6, 62, 0
8, 30750, Note_on_c, 6, 62, 85
8, 30770, Note_on_c, 6, 62, 0
8, 30780, Note_on_c, 6, 62, 85
8, 30800, Note_on_c, 6, 62, 0
8, 30810, Note_on_c, 6, 62, 85
8, 30830, Note_on_c, 6, 62, 0
8, 30840, Note_on_c, 6, 62, 85
8, 30860, Note_on_c, 6, 62, 0
8, 30870, Note_on_c, 6, 62, 85
8, 30890, Note_on_c, 6, 62, 0
8, 30900, Note_on_c, 6, 62, 85
8, 30920, Note_on_c, 6, 62, 0
8, 30930, Note_on_c, 6, 62, 85
8, 30950, Note_on_c, 6, 62, 0
8, 30960, Note_on_c, 6, 62, 85
8, 31080, Note_on_c, 6, 62, 0
8, 31680, Note_on_c, 6, 54, 47
8, 31920, Note_on_c, 6, 54, 0
8, 31920, Note_on_c, 6, 55, 47
8, 32160, Note_on_c, 6, 55, 0
8, 32160, Note_on_c, 6, 60, 47
8, 32250, Note_on_c, 6, 60, 0
8, 32280, Note_on_c, 6, 60, 47
8, 32370, Note_on_c, 6, 60, 0
8, 32400, Note_on_c, 6, 57, 47
8, 32490, Note_on_c, 6, 57, 0
8, 32520, Note_on_c, 6, 50, 47
8, 32610, Note_on_c, 6, 50, 0
8, 32640, Note_on_c, 6, 50, 47
8, 32700, Note_on_c, 6, 50, 0
8, 32760, Note_on_c, 6, 62, 47
8, 32820, Note_on_c, 6, 62, 0
8, 32880, Note_on_c, 6, 62, 47
8, 33000, Note_on_c, 6, 62, 0
8, 33600, Note_on_c, 6, 66, 47
8, 33840, Note_on_c, 6, 66, 0
8, 33840, Note_on_c, 6, 67, 47
8, 34080, Note_on_c, 6, 67, 0
8, 34080, Note_on_c, 6, 60, 47
8, 34170, Note_on_c, 6, 60, 0
8, 34200, Note_on_c, 6, 60, 47
8, 34245, Note_on_c, 6, 60, 0
8, 34260, Note_on_c, 6, 60, 47
8, 34305, Note_on_c, 6, 60, 0
8, 34320, Note_on_c, 6, 57, 47
8, 34410, Note_on_c, 6, 57, 0
8, 34440, Note_on_c, 6, 57, 47
8, 34485, Note_on_c, 6, 57, 0
8, 34500, Note_on_c, 6, 57, 47
8, 34545, Note_on_c, 6, 57, 0
8, 34560, Note_on_c, 6, 55, 92
8, 34605, Note_on_c, 6, 55, 0
8, 34620, Note_on_c, 6, 55, 71
8, 34665, Note_on_c, 6, 55, 0
8, 34680, Note_on_c, 6, 55, 71
8, 34725, Note_on_c, 6, 55, 0
8, 34740, Note_on_c, 6, 55, 71
8, 34785, Note_on_c, 6, 55, 0
8, 34800, Note_on_c, 6, 55, 55
8, 34845, Note_on_c, 6, 55, 0
8, 34860, Note_on_c, 6, 55, 50
8, 34905, Note_on_c, 6, 55, 0
8, 34920, Note_on_c, 6, 55, 50
8, 34965, Note_on_c, 6, 55, 0
8, 34980, Note_on_c, 6, 55, 50
8, 35025, Note_on_c, 6, 55, 0
8, 35040, Note_on_c, 6, 55, 91
8, 35085, Note_on_c, 6, 55, 0
8, 35100, Note_on_c, 6, 55, 65
8, 35145, Note_on_c, 6, 55, 0
8, 35160, Note_on_c, 6, 55, 65
8, 35205, Note_on_c, 6, 55, 0
8, 35220, Note_on_c, 6, 55, 65
8, 35265, Note_on_c, 6, 55, 0
8, 35280, Note_on_c, 6, 55, 46
8, 35325, Note_on_c, 6, 55, 0
8, 35340, Note_on_c, 6, 55, 46
8, 35385, Note_on_c, 6, 55, 0
8, 35400, Note_on_c, 6, 55, 46
8, 35445, Note_on_c, 6, 55, 0
8, 35460, Note_on_c, 6, 55, 46
8, 35505, Note_on_c, 6, 55, 0
8, 35520, Note_on_c, 6, 55, 59
8, 35565, Note_on_c, 6, 55, 0
8, 35580, Note_on_c, 6, 67, 41
8, 35625, Note_on_c, 6, 67, 0
8, 35640, Note_on_c, 6, 67, 46
8, 35685, Note_on_c, 6, 67, 0
8, 35700, Note_on_c, 6, 67, 49
8, 35745, Note_on_c, 6, 67, 0
8, 35760, Note_on_c, 6, 67, 53
8, 35805, Note_on_c, 6, 67, 0
8, 35820, Note_on_c, 6, 67, 56
8, 35865, Note_on_c, 6, 67, 0
8, 35880, Note_on_c, 6, 69, 61
8, 35925, Note_on_c, 6, 69, 0
8, 35940, Note_on_c, 6, 69, 64
8, 35985, Note_on_c, 6, 69, 0
8, 36000, Note_on_c, 6, 67, 68
8, 36045, Note_on_c, 6, 67, 0
8, 36060, Note_on_c, 6, 67, 71
8, 36105, Note_on_c, 6, 67, 0
8, 36120, Note_on_c, 6, 66, 76
8, 36165, Note_on_c, 6, 66, 0
8, 36180, Note_on_c, 6, 66, 79
8, 36225, Note_on_c, 6, 66, 0
8, 36240, Note_on_c, 6, 67, 82
8, 36285, Note_on_c, 6, 67, 0
8, 36300, Note_on_c, 6, 67, 82
8, 36345, Note_on_c, 6, 67, 0
8, 36360, Note_on_c, 6, 64, 82
8, 36405, Note_on_c, 6, 64, 0
8, 36420, Note_on_c, 6, 64, 82
8, 36465, Note_on_c, 6, 64, 0
8, 36480, Note_on_c, 6, 69, 85
8, 36480, Note_on_c, 6, 62, 85
8, 36500, Note_on_c, 6, 62, 0
8, 36500, Note_on_c, 6, 69, 0
8, 36510, Note_on_c, 6, 69, 85
8, 36510, Note_on_c, 6, 62, 85
8, 36530, Note_on_c, 6, 62, 0
8, 36530, Note_on_c, 6, 69, 0
8, 36540, Note_on_c, 6, 69, 85
8, 36540, Note_on_c, 6, 62, 85
8, 36560, Note_on_c, 6, 62, 0
8, 36560, Note_on_c, 6, 69, 0
8, 36570, Note_on_c, 6, 69, 85
8, 36570, Note_on_c, 6, 62, 85
8, 36590, Note_on_c, 6, 62, 0
8, 36590, Note_on_c, 6, 69, 0
8, 36600, Note_on_c, 6, 69, 85
8, 36600, Note_on_c, 6, 62, 85
8, 36620, Note_on_c, 6, 62, 0
8, 36620, Note_on_c, 6, 69, 0
8, 36630, Note_on_c, 6, 69, 85
8, 36630, Note_on_c, 6, 62, 85
8, 36650, Note_on_c, 6, 62, 0
8, 36650, Note_on_c, 6, 69, 0
8, 36660, Note_on_c, 6, 69, 85
8, 36660, Note_on_c, 6, 62, 85
8, 36680, Note_on_c, 6, 62, 0
8, 36680, Note_on_c, 6, 69, 0
8, 36690, Note_on_c, 6, 69, 85
8, 36690, Note_on_c, 6, 62, 85
8, 36710, Note_on_c, 6, 62, 0
8, 36710, Note_on_c, 6, 69, 0
8, 36720, Note_on_c, 6, 69, 85
8, 36720, Note_on_c, 6, 64, 85
8, 36740, Note_on_c, 6, 64, 0
8, 36740, Note_on_c, 6, 69, 0
8, 36750, Note_on_c, 6, 69, 85
8, 36750, Note_on_c, 6, 64, 85
8, 36770, Note_on_c, 6, 64, 0
8, 36770, Note_on_c, 6, 69, 0
8, 36780, Note_on_c, 6, 69, 85
8, 36780, Note_on_c, 6, 64, 85
8, 36800, Note_on_c, 6, 64, 0
8, 36800, Note_on_c, 6, 69, 0
8, 36810, Note_on_c, 6, 69, 85
8, 36810, Note_on_c, 6, 64, 85
8, 36830, Note_on_c, 6, 64, 0
8, 36830, Note_on_c, 6, 69, 0
8, 36840, Note_on_c, 6, 69, 85
8, 36840, Note_on_c, 6, 64, 85
8, 36860, Note_on_c, 6, 64, 0
8, 36860, Note_on_c, 6, 69, 0
8, 36870, Note_on_c, 6, 69, 85
8, 36870, Note_on_c, 6, 64, 85
8, 36890, Note_on_c, 6, 64, 0
8, 36890, Note_on_c, 6, 69, 0
8, 36900, Note_on_c, 6, 69, 85
8, 36900, Note_on_c, 6, 64, 85
8, 36920, Note_on_c, 6, 64, 0
8, 36920, Note_on_c, 6, 69, 0
8, 36930, Note_on_c, 6, 69, 85
8, 36930, Note_on_c, 6, 64, 85
8, 36950, Note_on_c, 6, 64, 0
8, 36950, Note_on_c, 6, 69, 0
8, 36960, Note_on_c, 6, 69, 85
8, 36960, Note_on_c, 6, 62, 85
8, 36980, Note_on_c, 6, 62, 0
8, 36980, Note_on_c, 6, 69, 0
8, 36990, Note_on_c, 6, 69, 85
8, 36990, Note_on_c, 6, 62, 85
8, 37010, Note_on_c, 6, 62, 0
8, 37010, Note_on_c, 6, 69, 0
8, 37020, Note_on_c, 6, 69, 85
8, 37020, Note_on_c, 6, 62, 85
8, 37040, Note_on_c, 6, 62, 0
8, 37040, Note_on_c, 6, 69, 0
8, 37050, Note_on_c, 6, 69, 85
8, 37050, Note_on_c, 6, 62, 85
8, 37070, Note_on_c, 6, 62, 0
8, 37070, Note_on_c, 6, 69, 0
8, 37080, Note_on_c, 6, 69, 85
8, 37080, Note_on_c, 6, 62, 85
8, 37100, Note_on_c, 6, 62, 0
8, 37100, Note_on_c, 6, 69, 0
8, 37110, Note_on_c, 6, 69, 85
8, 37110, Note_on_c, 6, 62, 85
8, 37130, Note_on_c, 6, 62, 0
8, 37130, Note_on_c, 6, 69, 0
8, 37140, Note_on_c, 6, 69, 85
8, 37140, Note_on_c, 6, 62, 85
8, 37160, Note_on_c, 6, 62, 0
8, 37160, Note_on_c, 6, 69, 0
8, 37170, Note_on_c, 6, 69, 85
8, 37170, Note_on_c, 6, 62, 85
8, 37190, Note_on_c, 6, 62, 0
8, 37190, Note_on_c, 6, 69, 0
8, 37200, Note_on_c, 6, 69, 85
8, 37200, Note_on_c, 6, 64, 85
8, 37220, Note_on_c, 6, 64, 0
8, 37220, Note_on_c, 6, 69, 0
8, 37230, Note_on_c, 6, 69, 85
8, 37230, Note_on_c, 6, 64, 85
8, 37250, Note_on_c, 6, 64, 0
8, 37250, Note_on_c, 6, 69, 0
8, 37260, Note_on_c, 6, 69, 85
8, 37260, Note_on_c, 6, 64, 85
8, 37280, Note_on_c, 6, 64, 0
8, 37280, Note_on_c, 6, 69, 0
8, 37290, Note_on_c, 6, 69, 85
8, 37290, Note_on_c, 6, 64, 85
8, 37310, Note_on_c, 6, 64, 0
8, 37310, Note_on_c, 6, 69, 0
8, 37320, Note_on_c, 6, 69, 85
8, 37320, Note_on_c, 6, 64, 85
8, 37340, Note_on_c, 6, 64, 0
8, 37340, Note_on_c, 6, 69, 0
8, 37350, Note_on_c, 6, 69, 85
8, 37350, Note_on_c, 6, 64, 85
8, 37370, Note_on_c, 6, 64, 0
8, 37370, Note_on_c, 6, 69, 0
8, 37380, Note_on_c, 6, 69, 85
8, 37380, Note_on_c, 6, 64, 85
8, 37400, Note_on_c, 6, 64, 0
8, 37400, Note_on_c, 6, 69, 0
8, 37410, Note_on_c, 6, 69, 85
8, 37410, Note_on_c, 6, 64, 85
8, 37430, Note_on_c, 6, 64, 0
8, 37430, Note_on_c, 6, 69, 0
8, 37440, Note_on_c, 6, 62, 85
8, 37485, Note_on_c, 6, 62, 0
8, 37500, Note_on_c, 6, 64, 85
8, 37545, Note_on_c, 6, 64, 0
8, 37560, Note_on_c, 6, 66, 85
8, 37605, Note_on_c, 6, 66, 0
8, 37620, Note_on_c, 6, 64, 85
8, 37665, Note_on_c, 6, 64, 0
8, 37680, Note_on_c, 6, 62, 85
8, 37725, Note_on_c, 6, 62, 0
8, 37740, Note_on_c, 6, 64, 85
8, 37785, Note_on_c, 6, 64, 0
8, 37800, Note_on_c, 6, 66, 85
8, 37845, Note_on_c, 6, 66, 0
8, 37860, Note_on_c, 6, 62, 85
8, 37905, Note_on_c, 6, 62, 0
8, 37920, Note_on_c, 6, 71, 85
8, 37965, Note_on_c, 6, 71, 0
8, 37980, Note_on_c, 6, 69, 85
8, 38025, Note_on_c, 6, 69, 0
8, 38040, Note_on_c, 6, 67, 85
8, 38085, Note_on_c, 6, 67, 0
8, 38100, Note_on_c, 6, 69, 85
8, 38145, Note_on_c, 6, 69, 0
8, 38160, Note_on_c, 6, 71, 85
8, 38205, Note_on_c, 6, 71, 0
8, 38220, Note_on_c, 6, 69, 85
8, 38265, Note_on_c, 6, 69, 0
8, 38280, Note_on_c, 6, 68, 85
8, 38325, Note_on_c, 6, 68, 0
8, 38340, Note_on_c, 6, 71, 85
8, 38385, Note_on_c, 6, 71, 0
8, 38400, Note_on_c, 6, 69, 85
8, 38445, Note_on_c, 6, 69, 0
8, 38460, Note_on_c, 6, 69, 85
8, 38505, Note_on_c, 6, 69, 0
8, 38520, Note_on_c, 6, 69, 85
8, 38565, Note_on_c, 6, 69, 0
8, 38580, Note_on_c, 6, 69, 85
8, 38625, Note_on_c, 6, 69, 0
8, 38640, Note_on_c, 6, 69, 85
8, 38685, Note_on_c, 6, 69, 0
8, 38700, Note_on_c, 6, 69, 85
8, 38745, Note_on_c, 6, 69, 0
8, 38760, Note_on_c, 6, 69, 85
8, 38805, Note_on_c, 6, 69, 0
8, 38820, Note_on_c, 6, 69, 85
8, 38865, Note_on_c, 6, 69, 0
8, 38880, Note_on_c, 6, 69, 85
8, 38925, Note_on_c, 6, 69, 0
8, 38940, Note_on_c, 6, 57, 85
8, 38985, Note_on_c, 6, 57, 0
8, 39000, Note_on_c, 6, 57, 85
8, 39045, Note_on_c, 6, 57, 0
8, 39060, Note_on_c, 6, 57, 85
8, 39105, Note_on_c, 6, 57, 0
8, 39120, Note_on_c, 6, 57, 85
8, 39240, Note_on_c, 6, 57, 0
8, 39720, Note_on_c, 6, 66, 55
8, 39780, Note_on_c, 6, 66, 0
8, 39840, Note_on_c, 6, 59, 55
8, 39900, Note_on_c, 6, 59, 0
8, 39960, Note_on_c, 6, 67, 55
8, 40020, Note_on_c, 6, 67, 0
8, 40080, Note_on_c, 6, 64, 55
8, 40140, Note_on_c, 6, 64, 0
8, 40200, Note_on_c, 6, 61, 55
8, 40260, Note_on_c, 6, 61, 0
8, 40440, Note_on_c, 6, 64, 55
8, 40560, Note_on_c, 6, 64, 0
8, 40560, Note_on_c, 6, 62, 55
8, 40620, Note_on_c, 6, 62, 0
8, 40680, Note_on_c, 6, 64, 55
8, 40740, Note_on_c, 6, 64, 0
8, 40800, Note_on_c, 6, 62, 55
8, 41040, Note_on_c, 6, 62, 0
8, 41040, Note_on_c, 6, 61, 55
8, 41160, Note_on_c, 6, 61, 0
8, 41400, Note_on_c, 6, 61, 55
8, 41520, Note_on_c, 6, 61, 0
8, 41520, Note_on_c, 6, 62, 55
8, 41580, Note_on_c, 6, 62, 0
8, 41640, Note_on_c, 6, 66, 55
8, 41700, Note_on_c, 6, 66, 0
8, 41760, Note_on_c, 6, 59, 55
8, 41820, Note_on_c, 6, 59, 0
8, 41880, Note_on_c, 6, 55, 55
8, 41940, Note_on_c, 6, 55, 0
8, 42000, Note_on_c, 6, 52, 55
8, 42120, Note_on_c, 6, 52, 0
8, 42180, Note_on_c, 6, 64, 55
8, 42225, Note_on_c, 6, 64, 0
8, 42240, Note_on_c, 6, 64, 55
8, 42300, Note_on_c, 6, 64, 0
8, 42300, Note_on_c, 6, 62, 55
8, 42360, Note_on_c, 6, 62, 0
8, 42720, Note_on_c, 6, 62, 55
8, 42765, Note_on_c, 6, 62, 0
8, 42780, Note_on_c, 6, 62, 55
8, 42825, Note_on_c, 6, 62, 0
8, 42840, Note_on_c, 6, 64, 55
8, 42885, Note_on_c, 6, 64, 0
8, 42900, Note_on_c, 6, 64, 55
8, 42945, Note_on_c, 6, 64, 0
8, 42960, Note_on_c, 6, 66, 55
8, 43005, Note_on_c, 6, 66, 0
8, 43020, Note_on_c, 6, 66, 55
8, 43065, Note_on_c, 6, 66, 0
8, 43080, Note_on_c, 6, 62, 55
8, 43125, Note_on_c, 6, 62, 0
8, 43140, Note_on_c, 6, 62, 55
8, 43185, Note_on_c, 6, 62, 0
8, 43200, Note_on_c, 6, 61, 55
8, 43245, Note_on_c, 6, 61, 0
8, 43260, Note_on_c, 6, 61, 55
8, 43305, Note_on_c, 6, 61, 0
8, 43320, Note_on_c, 6, 62, 55
8, 43365, Note_on_c, 6, 62, 0
8, 43380, Note_on_c, 6, 62, 55
8, 43425, Note_on_c, 6, 62, 0
8, 43440, Note_on_c, 6, 64, 55
8, 43485, Note_on_c, 6, 64, 0
8, 43500, Note_on_c, 6, 64, 55
8, 43545, Note_on_c, 6, 64, 0
8, 43560, Note_on_c, 6, 61, 55
8, 43605, Note_on_c, 6, 61, 0
8, 43620, Note_on_c, 6, 61, 55
8, 43665, Note_on_c, 6, 61, 0
8, 43680, Note_on_c, 6, 62, 55
8, 43725, Note_on_c, 6, 62, 0
8, 43740, Note_on_c, 6, 62, 55
8, 43785, Note_on_c, 6, 62, 0
8, 43800, Note_on_c, 6, 64, 55
8, 43845, Note_on_c, 6, 64, 0
8, 43860, Note_on_c, 6, 64, 55
8, 43905, Note_on_c, 6, 64, 0
8, 43920, Note_on_c, 6, 66, 55
8, 43965, Note_on_c, 6, 66, 0
8, 43980, Note_on_c, 6, 66, 55
8, 44025, Note_on_c, 6, 66, 0
8, 44040, Note_on_c, 6, 62, 55
8, 44085, Note_on_c, 6, 62, 0
8, 44100, Note_on_c, 6, 62, 55
8, 44145, Note_on_c, 6, 62, 0
8, 44160, Note_on_c, 6, 61, 55
8, 44205, Note_on_c, 6, 61, 0
8, 44220, Note_on_c, 6, 61, 55
8, 44265, Note_on_c, 6, 61, 0
8, 44280, Note_on_c, 6, 62, 55
8, 44325, Note_on_c, 6, 62, 0
8, 44340, Note_on_c, 6, 62, 55
8, 44385, Note_on_c, 6, 62, 0
8, 44400, Note_on_c, 6, 64, 55
8, 44445, Note_on_c, 6, 64, 0
8, 44460, Note_on_c, 6, 64, 55
8, 44505, Note_on_c, 6, 64, 0
8, 44520, Note_on_c, 6, 61, 55
8, 44565, Note_on_c, 6, 61, 0
8, 44580, Note_on_c, 6, 61, 55
8, 44625, Note_on_c, 6, 61, 0
8, 44640, Note_on_c, 6, 62, 55
8, 44685, Note_on_c, 6, 62, 0
8, 44700, Note_on_c, 6, 62, 55
8, 44745, Note_on_c, 6, 62, 0
8, 44760, Note_on_c, 6, 66, 55
8, 44805, Note_on_c, 6, 66, 0
8, 44820, Note_on_c, 6, 64, 55
8, 44865, Note_on_c, 6, 64, 0
8, 44880, Note_on_c, 6, 63, 55
8, 44925, Note_on_c, 6, 63, 0
8, 44940, Note_on_c, 6, 59, 55
8, 44985, Note_on_c, 6, 59, 0
8, 45000, Note_on_c, 6, 61, 55
8, 45045, Note_on_c, 6, 61, 0
8, 45060, Note_on_c, 6, 62, 55
8, 45105, Note_on_c, 6, 62, 0
8, 45120, Note_on_c, 6, 64, 85
8, 45165, Note_on_c, 6, 64, 0
8, 45180, Note_on_c, 6, 67, 85
8, 45225, Note_on_c, 6, 67, 0
8, 45240, Note_on_c, 6, 64, 85
8, 45285, Note_on_c, 6, 64, 0
8, 45300, Note_on_c, 6, 62, 85
8, 45345, Note_on_c, 6, 62, 0
8, 45360, Note_on_c, 6, 61, 85
8, 45405, Note_on_c, 6, 61, 0
8, 45420, Note_on_c, 6, 57, 55
8, 45465, Note_on_c, 6, 57, 0
8, 45480, Note_on_c, 6, 59, 85
8, 45525, Note_on_c, 6, 59, 0
8, 45540, Note_on_c, 6, 61, 85
8, 45585, Note_on_c, 6, 61, 0
8, 45600, Note_on_c, 6, 62, 85
8, 45645, Note_on_c, 6, 62, 0
8, 45660, Note_on_c, 6, 74, 85
8, 45705, Note_on_c, 6, 74, 0
8, 45720, Note_on_c, 6, 74, 85
8, 45765, Note_on_c, 6, 74, 0
8, 45780, Note_on_c, 6, 74, 85
8, 45825, Note_on_c, 6, 74, 0
8, 45840, Note_on_c, 6, 74, 85
8, 45885, Note_on_c, 6, 74, 0
8, 45900, Note_on_c, 6, 74, 85
8, 45945, Note_on_c, 6, 74, 0
8, 45960, Note_on_c, 6, 74, 85
8, 46005, Note_on_c, 6, 74, 0
8, 46020, Note_on_c, 6, 74, 85
8, 46065, Note_on_c, 6, 74, 0
8, 46080, Note_on_c, 6, 74, 85
8, 46140, Note_on_c, 6, 74, 0
8, 46140, Note_on_c, 6, 69, 85
8, 46185, Note_on_c, 6, 69, 0
8, 46200, Note_on_c, 6, 69, 85
8, 46230, Note_on_c, 6, 69, 0
8, 46260, Note_on_c, 6, 69, 85
8, 46290, Note_on_c, 6, 69, 0
8, 46320, Note_on_c, 6, 69, 85
8, 46365, Note_on_c, 6, 69, 0
8, 46380, Note_on_c, 6, 69, 85
8, 46425, Note_on_c, 6, 69, 0
8, 46440, Note_on_c, 6, 69, 85
8, 46485, Note_on_c, 6, 69, 0
8, 46500, Note_on_c, 6, 67, 85
8, 46545, Note_on_c, 6, 67, 0
8, 46560, Note_on_c, 6, 62, 85
8, 46605, Note_on_c, 6, 62, 0
8, 46620, Note_on_c, 6, 62, 53
8, 46665, Note_on_c, 6, 62, 0
8, 46680, Note_on_c, 6, 64, 53
8, 46725, Note_on_c, 6, 64, 0
8, 46740, Note_on_c, 6, 64, 53
8, 46785, Note_on_c, 6, 64, 0
8, 46800, Note_on_c, 6, 66, 53
8, 46845, Note_on_c, 6, 66, 0
8, 46860, Note_on_c, 6, 66, 53
8, 46905, Note_on_c, 6, 66, 0
8, 46920, Note_on_c, 6, 62, 53
8, 46965, Note_on_c, 6, 62, 0
8, 46980, Note_on_c, 6, 62, 53
8, 47025, Note_on_c, 6, 62, 0
8, 47040, Note_on_c, 6, 61, 55
8, 47085, Note_on_c, 6, 61, 0
8, 47100, Note_on_c, 6, 61, 55
8, 47145, Note_on_c, 6, 61, 0
8, 47160, Note_on_c, 6, 62, 55
8, 47205, Note_on_c, 6, 62, 0
8, 47220, Note_on_c, 6, 62, 55
8, 47265, Note_on_c, 6, 62, 0
8, 47280, Note_on_c, 6, 64, 55
8, 47325, Note_on_c, 6, 64, 0
8, 47340, Note_on_c, 6, 64, 55
8, 47385, Note_on_c, 6, 64, 0
8, 47400, Note_on_c, 6, 61, 55
8, 47445, Note_on_c, 6, 61, 0
8, 47460, Note_on_c, 6, 61, 55
8, 47505, Note_on_c, 6, 61, 0
8, 47520, Note_on_c, 6, 62, 55
8, 47565, Note_on_c, 6, 62, 0
8, 47580, Note_on_c, 6, 62, 55
8, 47625, Note_on_c, 6, 62, 0
8, 47640, Note_on_c, 6, 64, 55
8, 47685, Note_on_c, 6, 64, 0
8, 47700, Note_on_c, 6, 64, 55
8, 47745, Note_on_c, 6, 64, 0
8, 47760, Note_on_c, 6, 66, 55
8, 47805, Note_on_c, 6, 66, 0
8, 47820, Note_on_c, 6, 66, 55
8, 47865, Note_on_c, 6, 66, 0
8, 47880, Note_on_c, 6, 62, 55
8, 47925, Note_on_c, 6, 62, 0
8, 47940, Note_on_c, 6, 62, 55
8, 47985, Note_on_c, 6, 62, 0
8, 48000, Note_on_c, 6, 61, 55
8, 48045, Note_on_c, 6, 61, 0
8, 48060, Note_on_c, 6, 61, 55
8, 48105, Note_on_c, 6, 61, 0
8, 48120, Note_on_c, 6, 62, 55
8, 48165, Note_on_c, 6, 62, 0
8, 48180, Note_on_c, 6, 62, 55
8, 48225, Note_on_c, 6, 62, 0
8, 48240, Note_on_c, 6, 64, 55
8, 48285, Note_on_c, 6, 64, 0
8, 48300, Note_on_c, 6, 64, 55
8, 48345, Note_on_c, 6, 64, 0
8, 48360, Note_on_c, 6, 61, 55
8, 48405, Note_on_c, 6, 61, 0
8, 48420, Note_on_c, 6, 61, 55
8, 48465, Note_on_c, 6, 61, 0
8, 48480, Note_on_c, 6, 62, 55
8, 48525, Note_on_c, 6, 62, 0
8, 48540, Note_on_c, 6, 62, 85
8, 48585, Note_on_c, 6, 62, 0
8, 48600, Note_on_c, 6, 66, 85
8, 48645, Note_on_c, 6, 66, 0
8, 48660, Note_on_c, 6, 64, 85
8, 48705, Note_on_c, 6, 64, 0
8, 48720, Note_on_c, 6, 63, 85
8, 48765, Note_on_c, 6, 63, 0
8, 48780, Note_on_c, 6, 59, 85
8, 48825, Note_on_c, 6, 59, 0
8, 48840, Note_on_c, 6, 61, 85
8, 48885, Note_on_c, 6, 61, 0
8, 48900, Note_on_c, 6, 62, 85
8, 48945, Note_on_c, 6, 62, 0
8, 48960, Note_on_c, 6, 64, 85
8, 49005, Note_on_c, 6, 64, 0
8, 49020, Note_on_c, 6, 67, 85
8, 49065, Note_on_c, 6, 67, 0
8, 49080, Note_on_c, 6, 64, 85
8, 49125, Note_on_c, 6, 64, 0
8, 49140, Note_on_c, 6, 62, 85
8, 49185, Note_on_c, 6, 62, 0
8, 49200, Note_on_c, 6, 61, 85
8, 49245, Note_on_c, 6, 61, 0
8, 49260, Note_on_c, 6, 57, 85
8, 49305, Note_on_c, 6, 57, 0
8, 49320, Note_on_c, 6, 59, 85
8, 49365, Note_on_c, 6, 59, 0
8, 49380, Note_on_c, 6, 61, 85
8, 49425, Note_on_c, 6, 61, 0
8, 49440, Note_on_c, 6, 62, 85
8, 49485, Note_on_c, 6, 62, 0
8, 49500, Note_on_c, 6, 74, 85
8, 49545, Note_on_c, 6, 74, 0
8, 49560, Note_on_c, 6, 74, 85
8, 49605, Note_on_c, 6, 74, 0
8, 49620, Note_on_c, 6, 74, 85
8, 49665, Note_on_c, 6, 74, 0
8, 49680, Note_on_c, 6, 74, 85
8, 49725, Note_on_c, 6, 74, 0
8, 49740, Note_on_c, 6, 74, 85
8, 49785, Note_on_c, 6, 74, 0
8, 49800, Note_on_c, 6, 74, 85
8, 49845, Note_on_c, 6, 74, 0
8, 49860, Note_on_c, 6, 74, 85
8, 49905, Note_on_c, 6, 74, 0
8, 49920, Note_on_c, 6, 74, 85
8, 49980, Note_on_c, 6, 74, 0
8, 49980, Note_on_c, 6, 69, 85
8, 50025, Note_on_c, 6, 69, 0
8, 50040, Note_on_c, 6, 69, 85
8, 50070, Note_on_c, 6, 69, 0
8, 50100, Note_on_c, 6, 69, 85
8, 50130, Note_on_c, 6, 69, 0
8, 50160, Note_on_c, 6, 69, 85
8, 50205, Note_on_c, 6, 69, 0
8, 50220, Note_on_c, 6, 69, 85
8, 50265, Note_on_c, 6, 69, 0
8, 50280, Note_on_c, 6, 69, 85
8, 50325, Note_on_c, 6, 69, 0
8, 50340, Note_on_c, 6, 67, 85
8, 50385, Note_on_c, 6, 67, 0
8, 50400, Note_on_c, 6, 66, 85
8, 50445, Note_on_c, 6, 66, 0
8, 50460, Note_on_c, 6, 57, 85
8, 50505, Note_on_c, 6, 57, 0
8, 50520, Note_on_c, 6, 59, 85
8, 50565, Note_on_c, 6, 59, 0
8, 50580, Note_on_c, 6, 61, 85
8, 50625, Note_on_c, 6, 61, 0
8, 50640, Note_on_c, 6, 62, 85
8, 50685, Note_on_c, 6, 62, 0
8, 50700, Note_on_c, 6, 62, 85
8, 50745, Note_on_c, 6, 62, 0
8, 50760, Note_on_c, 6, 64, 85
8, 50805, Note_on_c, 6, 64, 0
8, 50820, Note_on_c, 6, 64, 85
8, 50865, Note_on_c, 6, 64, 0
8, 50880, Note_on_c, 6, 66, 85
8, 50925, Note_on_c, 6, 66, 0
8, 50940, Note_on_c, 6, 61, 85
8, 50985, Note_on_c, 6, 61, 0
8, 51000, Note_on_c, 6, 62, 85
8, 51045, Note_on_c, 6, 62, 0
8, 51060, Note_on_c, 6, 64, 85
8, 51105, Note_on_c, 6, 64, 0
8, 51120, Note_on_c, 6, 66, 85
8, 51165, Note_on_c, 6, 66, 0
8, 51180, Note_on_c, 6, 66, 85
8, 51225, Note_on_c, 6, 66, 0
8, 51240, Note_on_c, 6, 67, 85
8, 51285, Note_on_c, 6, 67, 0
8, 51300, Note_on_c, 6, 67, 85
8, 51345, Note_on_c, 6, 67, 0
8, 51360, Note_on_c, 6, 69, 85
8, 51405, Note_on_c, 6, 69, 0
8, 51420, Note_on_c, 6, 69, 85
8, 51465, Note_on_c, 6, 69, 0
8, 51480, Note_on_c, 6, 70, 85
8, 51525, Note_on_c, 6, 70, 0
8, 51540, Note_on_c, 6, 70, 85
8, 51585, Note_on_c, 6, 70, 0
8, 51600, Note_on_c, 6, 71, 85
8, 51720, Note_on_c, 6, 71, 0
8, 51840, Note_on_c, 6, 64, 55
8, 52200, Note_on_c, 6, 64, 0
8, 52200, Note_on_c, 6, 62, 55
8, 52260, Note_on_c, 6, 62, 0
8, 52260, Note_on_c, 6, 61, 55
8, 52320, Note_on_c, 6, 61, 0
8, 52320, Note_on_c, 6, 62, 55
8, 52380, Note_on_c, 6, 62, 0
8, 52440, Note_on_c, 6, 62, 55
8, 52500, Note_on_c, 6, 62, 0
8, 52560, Note_on_c, 6, 62, 55
8, 52620, Note_on_c, 6, 62, 0
8, 52800, Note_on_c, 6, 62, 89
8, 52920, Note_on_c, 6, 62, 0
8, 52980, Note_on_c, 6, 57, 89
8, 53025, Note_on_c, 6, 57, 0
8, 53040, Note_on_c, 6, 62, 89
8, 53160, Note_on_c, 6, 62, 0
8, 53220, Note_on_c, 6, 57, 89
8, 53265, Note_on_c, 6, 57, 0
8, 53280, Note_on_c, 6, 62, 89
8, 53325, Note_on_c, 6, 62, 0
8, 53340, Note_on_c, 6, 57, 89
8, 53385, Note_on_c, 6, 57, 0
8, 53400, Note_on_c, 6, 62, 89
8, 53445, Note_on_c, 6, 62, 0
8, 53460, Note_on_c, 6, 66, 89
8, 53505, Note_on_c, 6, 66, 0
8, 53520, Note_on_c, 6, 69, 89
8, 53640, Note_on_c, 6, 69, 0
8, 53760, Note_on_c, 6, 69, 89
8, 53880, Note_on_c, 6, 69, 0
8, 53940, Note_on_c, 6, 66, 89
8, 53985, Note_on_c, 6, 66, 0
8, 54000, Note_on_c, 6, 69, 89
8, 54120, Note_on_c, 6, 69, 0
8, 54180, Note_on_c, 6, 66, 89
8, 54225, Note_on_c, 6, 66, 0
8, 54240, Note_on_c, 6, 69, 89
8, 54285, Note_on_c, 6, 69, 0
8, 54300, Note_on_c, 6, 66, 89
8, 54345, Note_on_c, 6, 66, 0
8, 54360, Note_on_c, 6, 63, 89
8, 54405, Note_on_c, 6, 63, 0
8, 54420, Note_on_c, 6, 66, 89
8, 54465, Note_on_c, 6, 66, 0
8, 54480, Note_on_c, 6, 59, 89
8, 54600, Note_on_c, 6, 59, 0
8, 54720, Note_on_c, 6, 60, 55
8, 54765, Note_on_c, 6, 60, 0
8, 54780, Note_on_c, 6, 60, 55
8, 54825, Note_on_c, 6, 60, 0
8, 54840, Note_on_c, 6, 62, 55
8, 54885, Note_on_c, 6, 62, 0
8, 54900, Note_on_c, 6, 62, 55
8, 54945, Note_on_c, 6, 62, 0
8, 54960, Note_on_c, 6, 64, 55
8, 55005, Note_on_c, 6, 64, 0
8, 55020, Note_on_c, 6, 64, 55
8, 55065, Note_on_c, 6, 64, 0
8, 55080, Note_on_c, 6, 60, 55
8, 55125, Note_on_c, 6, 60, 0
8, 55140, Note_on_c, 6, 60, 55
8, 55185, Note_on_c, 6, 60, 0
8, 55200, Note_on_c, 6, 59, 55
8, 55245, Note_on_c, 6, 59, 0
8, 55260, Note_on_c, 6, 59, 55
8, 55305, Note_on_c, 6, 59, 0
8, 55320, Note_on_c, 6, 60, 55
8, 55365, Note_on_c, 6, 60, 0
8, 55380, Note_on_c, 6, 60, 55
8, 55425, Note_on_c, 6, 60, 0
8, 55440, Note_on_c, 6, 62, 55
8, 55485, Note_on_c, 6, 62, 0
8, 55500, Note_on_c, 6, 62, 55
8, 55545, Note_on_c, 6, 62, 0
8, 55560, Note_on_c, 6, 59, 55
8, 55605, Note_on_c, 6, 59, 0
8, 55620, Note_on_c, 6, 59, 55
8, 55665, Note_on_c, 6, 59, 0
8, 55680, Note_on_c, 6, 60, 55
8, 55725, Note_on_c, 6, 60, 0
8, 55740, Note_on_c, 6, 60, 55
8, 55785, Note_on_c, 6, 60, 0
8, 55800, Note_on_c, 6, 62, 55
8, 55845, Note_on_c, 6, 62, 0
8, 55860, Note_on_c, 6, 62, 55
8, 55905, Note_on_c, 6, 62, 0
8, 55920, Note_on_c, 6, 64, 55
8, 55965, Note_on_c, 6, 64, 0
8, 55980, Note_on_c, 6, 64, 55
8, 56025, Note_on_c, 6, 64, 0
8, 56040, Note_on_c, 6, 60, 55
8, 56085, Note_on_c, 6, 60, 0
8, 56100, Note_on_c, 6, 60, 55
8, 56145, Note_on_c, 6, 60, 0
8, 56160, Note_on_c, 6, 59, 55
8, 56205, Note_on_c, 6, 59, 0
8, 56220, Note_on_c, 6, 59, 55
8, 56265, Note_on_c, 6, 59, 0
8, 56280, Note_on_c, 6, 60, 55
8, 56325, Note_on_c, 6, 60, 0
8, 56340, Note_on_c, 6, 60, 55
8, 56385, Note_on_c, 6, 60, 0
8, 56400, Note_on_c, 6, 62, 55
8, 56445, Note_on_c, 6, 62, 0
8, 56460, Note_on_c, 6, 62, 55
8, 56505, Note_on_c, 6, 62, 0
8, 56520, Note_on_c, 6, 59, 55
8, 56565, Note_on_c, 6, 59, 0
8, 56580, Note_on_c, 6, 59, 55
8, 56625, Note_on_c, 6, 59, 0
8, 56640, Note_on_c, 6, 60, 55
8, 56685, Note_on_c, 6, 60, 0
8, 56700, Note_on_c, 6, 60, 55
8, 56745, Note_on_c, 6, 60, 0
8, 56760, Note_on_c, 6, 62, 55
8, 56805, Note_on_c, 6, 62, 0
8, 56820, Note_on_c, 6, 62, 55
8, 56865, Note_on_c, 6, 62, 0
8, 56880, Note_on_c, 6, 64, 55
8, 56925, Note_on_c, 6, 64, 0
8, 56940, Note_on_c, 6, 64, 55
8, 56985, Note_on_c, 6, 64, 0
8, 57000, Note_on_c, 6, 60, 55
8, 57045, Note_on_c, 6, 60, 0
8, 57060, Note_on_c, 6, 60, 55
8, 57105, Note_on_c, 6, 60, 0
8, 57120, Note_on_c, 6, 59, 55
8, 57165, Note_on_c, 6, 59, 0
8, 57180, Note_on_c, 6, 59, 55
8, 57225, Note_on_c, 6, 59, 0
8, 57240, Note_on_c, 6, 60, 55
8, 57285, Note_on_c, 6, 60, 0
8, 57300, Note_on_c, 6, 60, 55
8, 57345, Note_on_c, 6, 60, 0
8, 57360, Note_on_c, 6, 62, 55
8, 57405, Note_on_c, 6, 62, 0
8, 57420, Note_on_c, 6, 62, 55
8, 57465, Note_on_c, 6, 62, 0
8, 57480, Note_on_c, 6, 59, 55
8, 57525, Note_on_c, 6, 59, 0
8, 57540, Note_on_c, 6, 59, 55
8, 57585, Note_on_c, 6, 59, 0
8, 57600, Note_on_c, 6, 57, 55
8, 57645, Note_on_c, 6, 57, 0
8, 57660, Note_on_c, 6, 57, 55
8, 57705, Note_on_c, 6, 57, 0
8, 57720, Note_on_c, 6, 59, 55
8, 57765, Note_on_c, 6, 59, 0
8, 57780, Note_on_c, 6, 59, 55
8, 57825, Note_on_c, 6, 59, 0
8, 57840, Note_on_c, 6, 60, 55
8, 57885, Note_on_c, 6, 60, 0
8, 57900, Note_on_c, 6, 60, 55
8, 57945, Note_on_c, 6, 60, 0
8, 57960, Note_on_c, 6, 57, 55
8, 58005, Note_on_c, 6, 57, 0
8, 58020, Note_on_c, 6, 57, 55
8, 58065, Note_on_c, 6, 57, 0
8, 58080, Note_on_c, 6, 57, 55
8, 58125, Note_on_c, 6, 57, 0
8, 58140, Note_on_c, 6, 57, 55
8, 58185, Note_on_c, 6, 57, 0
8, 58200, Note_on_c, 6, 58, 55
8, 58245, Note_on_c, 6, 58, 0
8, 58260, Note_on_c, 6, 58, 55
8, 58305, Note_on_c, 6, 58, 0
8, 58320, Note_on_c, 6, 60, 55
8, 58365, Note_on_c, 6, 60, 0
8, 58380, Note_on_c, 6, 60, 55
8, 58425, Note_on_c, 6, 60, 0
8, 58440, Note_on_c, 6, 57, 55
8, 58485, Note_on_c, 6, 57, 0
8, 58500, Note_on_c, 6, 57, 55
8, 58545, Note_on_c, 6, 57, 0
8, 58560, Note_on_c, 6, 55, 55
8, 58605, Note_on_c, 6, 55, 0
8, 58620, Note_on_c, 6, 55, 55
8, 58665, Note_on_c, 6, 55, 0
8, 58680, Note_on_c, 6, 54, 55
8, 58725, Note_on_c, 6, 54, 0
8, 58740, Note_on_c, 6, 54, 55
8, 58785, Note_on_c, 6, 54, 0
8, 58800, Note_on_c, 6, 55, 55
8, 58845, Note_on_c, 6, 55, 0
8, 58860, Note_on_c, 6, 55, 55
8, 58905, Note_on_c, 6, 55, 0
8, 58920, Note_on_c, 6, 66, 55
8, 58965, Note_on_c, 6, 66, 0
8, 58980, Note_on_c, 6, 66, 55
8, 59025, Note_on_c, 6, 66, 0
8, 59040, Note_on_c, 6, 67, 55
8, 59085, Note_on_c, 6, 67, 0
8, 59100, Note_on_c, 6, 67, 55
8, 59145, Note_on_c, 6, 67, 0
8, 59160, Note_on_c, 6, 66, 55
8, 59205, Note_on_c, 6, 66, 0
8, 59220, Note_on_c, 6, 66, 55
8, 59265, Note_on_c, 6, 66, 0
8, 59280, Note_on_c, 6, 67, 55
8, 59325, Note_on_c, 6, 67, 0
8, 59340, Note_on_c, 6, 55, 55
8, 59385, Note_on_c, 6, 55, 0
8, 59400, Note_on_c, 6, 53, 55
8, 59445, Note_on_c, 6, 53, 0
8, 59460, Note_on_c, 6, 55, 55
8, 59505, Note_on_c, 6, 55, 0
8, 59530, Note_on_c, 6, 57, 53
8, 59650, Note_on_c, 6, 57, 0
8, 59710, Note_on_c, 6, 50, 91
8, 59770, Note_on_c, 6, 50, 0
8, 59770, Note_on_c, 6, 52, 91
8, 59830, Note_on_c, 6, 52, 0
8, 59830, Note_on_c, 6, 54, 91
8, 59890, Note_on_c, 6, 54, 0
8, 59890, Note_on_c, 6, 55, 91
8, 59950, Note_on_c, 6, 55, 0
8, 59950, Note_on_c, 6, 57, 91
8, 60010, Note_on_c, 6, 57, 0
8, 60010, Note_on_c, 6, 60, 91
8, 60070, Note_on_c, 6, 60, 0
8, 60070, Note_on_c, 6, 58, 91
8, 60130, Note_on_c, 6, 58, 0
8, 60190, Note_on_c, 6, 54, 91
8, 60250, Note_on_c, 6, 54, 0
8, 60250, Note_on_c, 6, 55, 91
8, 60310, Note_on_c, 6, 55, 0
8, 60310, Note_on_c, 6, 57, 91
8, 60370, Note_on_c, 6, 57, 0
8, 60370, Note_on_c, 6, 58, 91
8, 60430, Note_on_c, 6, 58, 0
8, 60430, Note_on_c, 6, 61, 91
8, 60490, Note_on_c, 6, 61, 0
8, 60490, Note_on_c, 6, 64, 53
8, 60550, Note_on_c, 6, 64, 0
8, 60550, Note_on_c, 6, 62, 53
8, 60610, Note_on_c, 6, 62, 0
8, 61440, Note_on_c, 6, 71, 68
8, 61470, Note_on_c, 6, 71, 0
8, 61500, Note_on_c, 6, 71, 68
8, 61530, Note_on_c, 6, 71, 0
8, 61560, Note_on_c, 6, 71, 68
8, 61620, Note_on_c, 6, 71, 0
8, 61620, Note_on_c, 6, 72, 68
8, 61665, Note_on_c, 6, 72, 0
8, 61680, Note_on_c, 6, 69, 68
8, 61710, Note_on_c, 6, 69, 0
8, 61740, Note_on_c, 6, 69, 68
8, 61770, Note_on_c, 6, 69, 0
8, 61800, Note_on_c, 6, 69, 68
8, 61860, Note_on_c, 6, 69, 0
8, 61860, Note_on_c, 6, 71, 68
8, 61905, Note_on_c, 6, 71, 0
8, 61920, Note_on_c, 6, 67, 68
8, 61950, Note_on_c, 6, 67, 0
8, 61980, Note_on_c, 6, 67, 68
8, 62010, Note_on_c, 6, 67, 0
8, 62040, Note_on_c, 6, 67, 68
8, 62100, Note_on_c, 6, 67, 0
8, 62100, Note_on_c, 6, 71, 68
8, 62145, Note_on_c, 6, 71, 0
8, 62160, Note_on_c, 6, 71, 68
8, 62220, Note_on_c, 6, 71, 0
8, 62220, Note_on_c, 6, 69, 68
8, 62265, Note_on_c, 6, 69, 0
8, 62280, Note_on_c, 6, 67, 68
8, 62310, Note_on_c, 6, 67, 0
8, 62340, Note_on_c, 6, 62, 68
8, 62370, Note_on_c, 6, 62, 0
8, 62405, Note_on_c, 6, 59, 93
8, 62525, Note_on_c, 6, 59, 0
8, 62585, Note_on_c, 6, 62, 92
8, 62615, Note_on_c, 6, 62, 0
8, 62645, Note_on_c, 6, 67, 92
8, 62765, Note_on_c, 6, 67, 0
8, 62825, Note_on_c, 6, 62, 91
8, 62855, Note_on_c, 6, 62, 0
8, 62885, Note_on_c, 6, 67, 90
8, 62915, Note_on_c, 6, 67, 0
8, 62945, Note_on_c, 6, 62, 90
8, 62975, Note_on_c, 6, 62, 0
8, 63005, Note_on_c, 6, 67, 90
8, 63035, Note_on_c, 6, 67, 0
8, 63065, Note_on_c, 6, 71, 90
8, 63095, Note_on_c, 6, 71, 0
8, 63125, Note_on_c, 6, 74, 89
8, 63245, Note_on_c, 6, 74, 0
8, 63365, Note_on_c, 6, 72, 88
8, 63485, Note_on_c, 6, 72, 0
8, 63545, Note_on_c, 6, 69, 87
8, 63575, Note_on_c, 6, 69, 0
8, 63605, Note_on_c, 6, 72, 86
8, 63725, Note_on_c, 6, 72, 0
8, 63785, Note_on_c, 6, 69, 85
8, 63815, Note_on_c, 6, 69, 0
8, 63845, Note_on_c, 6, 72, 85
8, 63875, Note_on_c, 6, 72, 0
8, 63905, Note_on_c, 6, 69, 85
8, 63935, Note_on_c, 6, 69, 0
8, 63965, Note_on_c, 6, 66, 85
8, 63995, Note_on_c, 6, 66, 0
8, 64025, Note_on_c, 6, 69, 85
8, 64055, Note_on_c, 6, 69, 0
8, 64085, Note_on_c, 6, 62, 85
8, 64205, Note_on_c, 6, 62, 0
8, 64320, Note_on_c, 6, 67, 85
8, 64365, Note_on_c, 6, 67, 0
8, 64380, Note_on_c, 6, 67, 85
8, 64425, Note_on_c, 6, 67, 0
8, 64440, Note_on_c, 6, 67, 85
8, 64485, Note_on_c, 6, 67, 0
8, 64500, Note_on_c, 6, 67, 85
8, 64545, Note_on_c, 6, 67, 0
8, 64560, Note_on_c, 6, 67, 85
8, 64605, Note_on_c, 6, 67, 0
8, 64620, Note_on_c, 6, 67, 85
8, 64665, Note_on_c, 6, 67, 0
8, 64680, Note_on_c, 6, 67, 85
8, 64725, Note_on_c, 6, 67, 0
8, 64740, Note_on_c, 6, 67, 85
8, 64785, Note_on_c, 6, 67, 0
8, 64800, Note_on_c, 6, 69, 85
8, 64845, Note_on_c, 6, 69, 0
8, 64860, Note_on_c, 6, 69, 85
8, 64905, Note_on_c, 6, 69, 0
8, 64920, Note_on_c, 6, 69, 85
8, 64965, Note_on_c, 6, 69, 0
8, 64980, Note_on_c, 6, 69, 85
8, 65025, Note_on_c, 6, 69, 0
8, 65040, Note_on_c, 6, 69, 85
8, 65100, Note_on_c, 6, 69, 0
8, 65100, Note_on_c, 6, 72, 85
8, 65145, Note_on_c, 6, 72, 0
8, 65160, Note_on_c, 6, 66, 85
8, 65220, Note_on_c, 6, 66, 0
8, 65220, Note_on_c, 6, 69, 85
8, 65265, Note_on_c, 6, 69, 0
8, 65280, Note_on_c, 6, 67, 85
8, 65325, Note_on_c, 6, 67, 0
8, 65340, Note_on_c, 6, 67, 85
8, 65385, Note_on_c, 6, 67, 0
8, 65400, Note_on_c, 6, 67, 85
8, 65445, Note_on_c, 6, 67, 0
8, 65460, Note_on_c, 6, 67, 85
8, 65505, Note_on_c, 6, 67, 0
8, 65520, Note_on_c, 6, 67, 85
8, 65565, Note_on_c, 6, 67, 0
8, 65580, Note_on_c, 6, 67, 85
8, 65625, Note_on_c, 6, 67, 0
8, 65640, Note_on_c, 6, 67, 85
8, 65685, Note_on_c, 6, 67, 0
8, 65700, Note_on_c, 6, 67, 85
8, 65745, Note_on_c, 6, 67, 0
8, 65760, Note_on_c, 6, 69, 85
8, 65805, Note_on_c, 6, 69, 0
8, 65820, Note_on_c, 6, 69, 85
8, 65865, Note_on_c, 6, 69, 0
8, 65880, Note_on_c, 6, 69, 85
8, 65925, Note_on_c, 6, 69, 0
8, 65940, Note_on_c, 6, 69, 85
8, 65985, Note_on_c, 6, 69, 0
8, 66000, Note_on_c, 6, 69, 85
8, 66060, Note_on_c, 6, 69, 0
8, 66060, Note_on_c, 6, 72, 85
8, 66105, Note_on_c, 6, 72, 0
8, 66120, Note_on_c, 6, 66, 85
8, 66180, Note_on_c, 6, 66, 0
8, 66180, Note_on_c, 6, 69, 85
8, 66225, Note_on_c, 6, 69, 0
8, 66240, Note_on_c, 6, 62, 85
8, 66260, Note_on_c, 6, 62, 0
8, 66270, Note_on_c, 6, 62, 85
8, 66290, Note_on_c, 6, 62, 0
8, 66300, Note_on_c, 6, 62, 85
8, 66320, Note_on_c, 6, 62, 0
8, 66330, Note_on_c, 6, 62, 85
8, 66350, Note_on_c, 6, 62, 0
8, 66360, Note_on_c, 6, 62, 85
8, 66380, Note_on_c, 6, 62, 0
8, 66390, Note_on_c, 6, 62, 85
8, 66410, Note_on_c, 6, 62, 0
8, 66420, Note_on_c, 6, 62, 85
8, 66440, Note_on_c, 6, 62, 0
8, 66450, Note_on_c, 6, 62, 85
8, 66470, Note_on_c, 6, 62, 0
8, 66480, Note_on_c, 6, 62, 85
8, 66500, Note_on_c, 6, 62, 0
8, 66510, Note_on_c, 6, 62, 85
8, 66530, Note_on_c, 6, 62, 0
8, 66540, Note_on_c, 6, 62, 85
8, 66560, Note_on_c, 6, 62, 0
8, 66570, Note_on_c, 6, 62, 85
8, 66590, Note_on_c, 6, 62, 0
8, 66600, Note_on_c, 6, 62, 85
8, 66620, Note_on_c, 6, 62, 0
8, 66630, Note_on_c, 6, 62, 85
8, 66650, Note_on_c, 6, 62, 0
8, 66660, Note_on_c, 6, 62, 85
8, 66680, Note_on_c, 6, 62, 0
8, 66690, Note_on_c, 6, 62, 85
8, 66710, Note_on_c, 6, 62, 0
8, 66720, Note_on_c, 6, 62, 85
8, 66740, Note_on_c, 6, 62, 0
8, 66750, Note_on_c, 6, 62, 85
8, 66770, Note_on_c, 6, 62, 0
8, 66780, Note_on_c, 6, 62, 85
8, 66800, Note_on_c, 6, 62, 0
8, 66810, Note_on_c, 6, 62, 85
8, 66830, Note_on_c, 6, 62, 0
8, 66840, Note_on_c, 6, 62, 85
8, 66860, Note_on_c, 6, 62, 0
8, 66870, Note_on_c, 6, 62, 85
8, 66890, Note_on_c, 6, 62, 0
8, 66900, Note_on_c, 6, 62, 85
8, 66920, Note_on_c, 6, 62, 0
8, 66930, Note_on_c, 6, 62, 85
8, 66950, Note_on_c, 6, 62, 0
8, 66960, Note_on_c, 6, 62, 85
8, 67080, Note_on_c, 6, 62, 0
8, 67680, Note_on_c, 6, 54, 47
8, 67920, Note_on_c, 6, 54, 0
8, 67920, Note_on_c, 6, 55, 47
8, 68160, Note_on_c, 6, 55, 0
8, 68160, Note_on_c, 6, 60, 47
8, 68250, Note_on_c, 6, 60, 0
8, 68280, Note_on_c, 6, 60, 47
8, 68370, Note_on_c, 6, 60, 0
8, 68400, Note_on_c, 6, 57, 47
8, 68490, Note_on_c, 6, 57, 0
8, 68520, Note_on_c, 6, 50, 47
8, 68610, Note_on_c, 6, 50, 0
8, 68640, Note_on_c, 6, 50, 47
8, 68700, Note_on_c, 6, 50, 0
8, 68760, Note_on_c, 6, 62, 47
8, 68820, Note_on_c, 6, 62, 0
8, 68880, Note_on_c, 6, 62, 47
8, 69000, Note_on_c, 6, 62, 0
8, 69600, Note_on_c, 6, 66, 47
8, 69840, Note_on_c, 6, 66, 0
8, 69840, Note_on_c, 6, 67, 47
8, 70080, Note_on_c, 6, 67, 0
8, 70080, Note_on_c, 6, 60, 47
8, 70170, Note_on_c, 6, 60, 0
8, 70200, Note_on_c, 6, 60, 47
8, 70245, Note_on_c, 6, 60, 0
8, 70260, Note_on_c, 6, 60, 47
8, 70305, Note_on_c, 6, 60, 0
8, 70320, Note_on_c, 6, 57, 47
8, 70410, Note_on_c, 6, 57, 0
8, 70440, Note_on_c, 6, 57, 47
8, 70485, Note_on_c, 6, 57, 0
8, 70500, Note_on_c, 6, 57, 47
8, 70545, Note_on_c, 6, 57, 0
8, 70560, Note_on_c, 6, 55, 92
8, 70605, Note_on_c, 6, 55, 0
8, 70620, Note_on_c, 6, 55, 71
8, 70665, Note_on_c, 6, 55, 0
8, 70680, Note_on_c, 6, 55, 71
8, 70725, Note_on_c, 6, 55, 0
8, 70740, Note_on_c, 6, 55, 71
8, 70785, Note_on_c, 6, 55, 0
8, 70800, Note_on_c, 6, 55, 55
8, 70845, Note_on_c, 6, 55, 0
8, 70860, Note_on_c, 6, 55, 50
8, 70905, Note_on_c, 6, 55, 0
8, 70920, Note_on_c, 6, 55, 50
8, 70965, Note_on_c, 6, 55, 0
8, 70980, Note_on_c, 6, 55, 50
8, 71025, Note_on_c, 6, 55, 0
8, 71040, Note_on_c, 6, 55, 91
8, 71085, Note_on_c, 6, 55, 0
8, 71100, Note_on_c, 6, 55, 65
8, 71145, Note_on_c, 6, 55, 0
8, 71160, Note_on_c, 6, 55, 65
8, 71205, Note_on_c, 6, 55, 0
8, 71220, Note_on_c, 6, 55, 65
8, 71265, Note_on_c, 6, 55, 0
8, 71280, Note_on_c, 6, 55, 46
8, 71325, Note_on_c, 6, 55, 0
8, 71340, Note_on_c, 6, 55, 46
8, 71385, Note_on_c, 6, 55, 0
8, 71400, Note_on_c, 6, 55, 46
8, 71445, Note_on_c, 6, 55, 0
8, 71460, Note_on_c, 6, 55, 46
8, 71505, Note_on_c, 6, 55, 0
8, 71520, Note_on_c, 6, 55, 59
8, 71565, Note_on_c, 6, 55, 0
8, 71580, Note_on_c, 6, 67, 41
8, 71625, Note_on_c, 6, 67, 0
8, 71640, Note_on_c, 6, 67, 46
8, 71685, Note_on_c, 6, 67, 0
8, 71700, Note_on_c, 6, 67, 49
8, 71745, Note_on_c, 6, 67, 0
8, 71760, Note_on_c, 6, 67, 53
8, 71805, Note_on_c, 6, 67, 0
8, 71820, Note_on_c, 6, 67, 56
8, 71865, Note_on_c, 6, 67, 0
8, 71880, Note_on_c, 6, 69, 61
8, 71925, Note_on_c, 6, 69, 0
8, 71940, Note_on_c, 6, 69, 64
8, 71985, Note_on_c, 6, 69, 0
8, 72000, Note_on_c, 6, 67, 68
8, 72045, Note_on_c, 6, 67, 0
8, 72060, Note_on_c, 6, 67, 71
8, 72105, Note_on_c, 6, 67, 0
8, 72120, Note_on_c, 6, 66, 76
8, 72165, Note_on_c, 6, 66, 0
8, 72180, Note_on_c, 6, 66, 79
8, 72225, Note_on_c, 6, 66, 0
8, 72240, Note_on_c, 6, 67, 82
8, 72285, Note_on_c, 6, 67, 0
8, 72300, Note_on_c, 6, 67, 82
8, 72345, Note_on_c, 6, 67, 0
8, 72360, Note_on_c, 6, 64, 82
8, 72405, Note_on_c, 6, 64, 0
8, 72420, Note_on_c, 6, 64, 82
8, 72465, Note_on_c, 6, 64, 0
8, 72480, Note_on_c, 6, 69, 85
8, 72480, Note_on_c, 6, 62, 85
8, 72500, Note_on_c, 6, 62, 0
8, 72500, Note_on_c, 6, 69, 0
8, 72510, Note_on_c, 6, 69, 85
8, 72510, Note_on_c, 6, 62, 85
8, 72530, Note_on_c, 6, 62, 0
8, 72530, Note_on_c, 6, 69, 0
8, 72540, Note_on_c, 6, 69, 85
8, 72540, Note_on_c, 6, 62, 85
8, 72560, Note_on_c, 6, 62, 0
8, 72560, Note_on_c, 6, 69, 0
8, 72570, Note_on_c, 6, 69, 85
8, 72570, Note_on_c, 6, 62, 85
8, 72590, Note_on_c, 6, 62, 0
8, 72590, Note_on_c, 6, 69, 0
8, 72600, Note_on_c, 6, 69, 85
8, 72600, Note_on_c, 6, 62, 85
8, 72620, Note_on_c, 6, 62, 0
8, 72620, Note_on_c, 6, 69, 0
8, 72630, Note_on_c, 6, 69, 85
8, 72630, Note_on_c, 6, 62, 85
8, 72650, Note_on_c, 6, 62, 0
8, 72650, Note_on_c, 6, 69, 0
8, 72660, Note_on_c, 6, 69, 85
8, 72660, Note_on_c, 6, 62, 85
8, 72680, Note_on_c, 6, 62, 0
8, 72680, Note_on_c, 6, 69, 0
8, 72690, Note_on_c, 6, 69, 85
8, 72690, Note_on_c, 6, 62, 85
8, 72710, Note_on_c, 6, 62, 0
8, 72710, Note_on_c, 6, 69, 0
8, 72720, Note_on_c, 6, 69, 85
8, 72720, Note_on_c, 6, 64, 85
8, 72740, Note_on_c, 6, 64, 0
8, 72740, Note_on_c, 6, 69, 0
8, 72750, Note_on_c, 6, 69, 85
8, 72750, Note_on_c, 6, 64, 85
8, 72770, Note_on_c, 6, 64, 0
8, 72770, Note_on_c, 6, 69, 0
8, 72780, Note_on_c, 6, 69, 85
8, 72780, Note_on_c, 6, 64, 85
8, 72800, Note_on_c, 6, 64, 0
8, 72800, Note_on_c, 6, 69, 0
8, 72810, Note_on_c, 6, 69, 85
8, 72810, Note_on_c, 6, 64, 85
8, 72830, Note_on_c, 6, 64, 0
8, 72830, Note_on_c, 6, 69, 0
8, 72840, Note_on_c, 6, 69, 85
8, 72840, Note_on_c, 6, 64, 85
8, 72860, Note_on_c, 6, 64, 0
8, 72860, Note_on_c, 6, 69, 0
8, 72870, Note_on_c, 6, 69, 85
8, 72870, Note_on_c, 6, 64, 85
8, 72890, Note_on_c, 6, 64, 0
8, 72890, Note_on_c, 6, 69, 0
8, 72900, Note_on_c, 6, 69, 85
8, 72900, Note_on_c, 6, 64, 85
8, 72920, Note_on_c, 6, 64, 0
8, 72920, Note_on_c, 6, 69, 0
8, 72930, Note_on_c, 6, 69, 85
8, 72930, Note_on_c, 6, 64, 85
8, 72950, Note_on_c, 6, 64, 0
8, 72950, Note_on_c, 6, 69, 0
8, 72960, Note_on_c, 6, 69, 85
8, 72960, Note_on_c, 6, 62, 85
8, 72980, Note_on_c, 6, 62, 0
8, 72980, Note_on_c, 6, 69, 0
8, 72990, Note_on_c, 6, 69, 85
8, 72990, Note_on_c, 6, 62, 85
8, 73010, Note_on_c, 6, 62, 0
8, 73010, Note_on_c, 6, 69, 0
8, 73020, Note_on_c, 6, 69, 85
8, 73020, Note_on_c, 6, 62, 85
8, 73040, Note_on_c, 6, 62, 0
8, 73040, Note_on_c, 6, 69, 0
8, 73050, Note_on_c, 6, 69, 85
8, 73050, Note_on_c, 6, 62, 85
8, 73070, Note_on_c, 6, 62, 0
8, 73070, Note_on_c, 6, 69, 0
8, 73080, Note_on_c, 6, 69, 85
8, 73080, Note_on_c, 6, 62, 85
8, 73100, Note_on_c, 6, 62, 0
8, 73100, Note_on_c, 6, 69, 0
8, 73110, Note_on_c, 6, 69, 85
8, 73110, Note_on_c, 6, 62, 85
8, 73130, Note_on_c, 6, 62, 0
8, 73130, Note_on_c, 6, 69, 0
8, 73140, Note_on_c, 6, 69, 85
8, 73140, Note_on_c, 6, 62, 85
8, 73160, Note_on_c, 6, 62, 0
8, 73160, Note_on_c, 6, 69, 0
8, 73170, Note_on_c, 6, 69, 85
8, 73170, Note_on_c, 6, 62, 85
8, 73190, Note_on_c, 6, 62, 0
8, 73190, Note_on_c, 6, 69, 0
8, 73200, Note_on_c, 6, 69, 85
8, 73200, Note_on_c, 6, 64, 85
8, 73220, Note_on_c, 6, 64, 0
8, 73220, Note_on_c, 6, 69, 0
8, 73230, Note_on_c, 6, 69, 85
8, 73230, Note_on_c, 6, 64, 85
8, 73250, Note_on_c, 6, 64, 0
8, 73250, Note_on_c, 6, 69, 0
8, 73260, Note_on_c, 6, 69, 85
8, 73260, Note_on_c, 6, 64, 85
8, 73280, Note_on_c, 6, 64, 0
8, 73280, Note_on_c, 6, 69, 0
8, 73290, Note_on_c, 6, 69, 85
8, 73290, Note_on_c, 6, 64, 85
8, 73310, Note_on_c, 6, 64, 0
8, 73310, Note_on_c, 6, 69, 0
8, 73320, Note_on_c, 6, 69, 85
8, 73320, Note_on_c, 6, 64, 85
8, 73340, Note_on_c, 6, 64, 0
8, 73340, Note_on_c, 6, 69, 0
8, 73350, Note_on_c, 6, 69, 85
8, 73350, Note_on_c, 6, 64, 85
8, 73370, Note_on_c, 6, 64, 0
8, 73370, Note_on_c, 6, 69, 0
8, 73380, Note_on_c, 6, 69, 85
8, 73380, Note_on_c, 6, 64, 85
8, 73400, Note_on_c, 6, 64, 0
8, 73400, Note_on_c, 6, 69, 0
8, 73410, Note_on_c, 6, 69, 85
8, 73410, Note_on_c, 6, 64, 85
8, 73430, Note_on_c, 6, 64, 0
8, 73430, Note_on_c, 6, 69, 0
8, 73440, Note_on_c, 6, 69, 85
8, 73440, Note_on_c, 6, 62, 85
8, 73460, Note_on_c, 6, 62, 0
8, 73460, Note_on_c, 6, 69, 0
8, 73470, Note_on_c, 6, 69, 85
8, 73470, Note_on_c, 6, 62, 85
8, 73490, Note_on_c, 6, 62, 0
8, 73490, Note_on_c, 6, 69, 0
8, 73500, Note_on_c, 6, 69, 85
8, 73500, Note_on_c, 6, 62, 85
8, 73520, Note_on_c, 6, 62, 0
8, 73520, Note_on_c, 6, 69, 0
8, 73530, Note_on_c, 6, 69, 85
8, 73530, Note_on_c, 6, 62, 85
8, 73550, Note_on_c, 6, 62, 0
8, 73550, Note_on_c, 6, 69, 0
8, 73560, Note_on_c, 6, 64, 85
8, 73560, Note_on_c, 6, 69, 85
8, 73580, Note_on_c, 6, 69, 0
8, 73580, Note_on_c, 6, 64, 0
8, 73590, Note_on_c, 6, 64, 85
8, 73590, Note_on_c, 6, 69, 85
8, 73610, Note_on_c, 6, 69, 0
8, 73610, Note_on_c, 6, 64, 0
8, 73620, Note_on_c, 6, 64, 85
8, 73620, Note_on_c, 6, 69, 85
8, 73640, Note_on_c, 6, 69, 0
8, 73640, Note_on_c, 6, 64, 0
8, 73650, Note_on_c, 6, 64, 85
8, 73650, Note_on_c, 6, 69, 85
8, 73670, Note_on_c, 6, 69, 0
8, 73670, Note_on_c, 6, 64, 0
8, 73680, Note_on_c, 6, 62, 85
8, 73680, Note_on_c, 6, 69, 85
8, 73700, Note_on_c, 6, 69, 0
8, 73700, Note_on_c, 6, 62, 0
8, 73710, Note_on_c, 6, 62, 85
8, 73710, Note_on_c, 6, 69, 85
8, 73730, Note_on_c, 6, 69, 0
8, 73730, Note_on_c, 6, 62, 0
8, 73740, Note_on_c, 6, 62, 85
8, 73740, Note_on_c, 6, 69, 85
8, 73760, Note_on_c, 6, 69, 0
8, 73760, Note_on_c, 6, 62, 0
8, 73770, Note_on_c, 6, 62, 85
8, 73770, Note_on_c, 6, 69, 85
8, 73790, Note_on_c, 6, 69, 0
8, 73790, Note_on_c, 6, 62, 0
8, 73800, Note_on_c, 6, 69, 85
8, 73800, Note_on_c, 6, 64, 85
8, 73820, Note_on_c, 6, 64, 0
8, 73820, Note_on_c, 6, 69, 0
8, 73830, Note_on_c, 6, 69, 85
8, 73830, Note_on_c, 6, 64, 85
8, 73850, Note_on_c, 6, 64, 0
8, 73850, Note_on_c, 6, 69, 0
8, 73860, Note_on_c, 6, 69, 85
8, 73860, Note_on_c, 6, 64, 85
8, 73880, Note_on_c, 6, 64, 0
8, 73880, Note_on_c, 6, 69, 0
8, 73890, Note_on_c, 6, 69, 85
8, 73890, Note_on_c, 6, 64, 85
8, 73910, Note_on_c, 6, 64, 0
8, 73910, Note_on_c, 6, 69, 0
8, 73923, Note_on_c, 6, 62, 85
8, 73923, Note_on_c, 6, 69, 85
8, 73968, Note_on_c, 6, 69, 0
8, 73968, Note_on_c, 6, 62, 0
8, 73983, Note_on_c, 6, 50, 85
8, 74028, Note_on_c, 6, 50, 0
8, 74043, Note_on_c, 6, 50, 85
8, 74088, Note_on_c, 6, 50, 0
8, 74103, Note_on_c, 6, 50, 85
8, 74148, Note_on_c, 6, 50, 0
8, 74163, Note_on_c, 6, 50, 85
8, 74283, Note_on_c, 6, 50, 0
8, 74760, Note_on_c, 6, 59, 55
8, 74820, Note_on_c, 6, 59, 0
8, 74880, Note_on_c, 6, 52, 55
8, 74940, Note_on_c, 6, 52, 0
8, 75000, Note_on_c, 6, 60, 55
8, 75060, Note_on_c, 6, 60, 0
8, 75120, Note_on_c, 6, 57, 55
8, 75180, Note_on_c, 6, 57, 0
8, 75240, Note_on_c, 6, 54, 55
8, 75300, Note_on_c, 6, 54, 0
8, 75480, Note_on_c, 6, 69, 55
8, 75600, Note_on_c, 6, 69, 0
8, 75600, Note_on_c, 6, 67, 55
8, 75660, Note_on_c, 6, 67, 0
8, 75720, Note_on_c, 6, 69, 55
8, 75780, Note_on_c, 6, 69, 0
8, 75840, Note_on_c, 6, 67, 55
8, 76080, Note_on_c, 6, 67, 0
8, 76080, Note_on_c, 6, 66, 55
8, 76200, Note_on_c, 6, 66, 0
8, 76440, Note_on_c, 6, 66, 55
8, 76560, Note_on_c, 6, 66, 0
8, 76560, Note_on_c, 6, 67, 55
8, 76620, Note_on_c, 6, 67, 0
8, 76680, Note_on_c, 6, 71, 55
8, 76740, Note_on_c, 6, 71, 0
8, 76800, Note_on_c, 6, 64, 55
8, 76860, Note_on_c, 6, 64, 0
8, 76920, Note_on_c, 6, 60, 55
8, 76980, Note_on_c, 6, 60, 0
8, 77040, Note_on_c, 6, 57, 55
8, 77160, Note_on_c, 6, 57, 0
8, 77220, Note_on_c, 6, 69, 55
8, 77265, Note_on_c, 6, 69, 0
8, 77280, Note_on_c, 6, 69, 55
8, 77340, Note_on_c, 6, 69, 0
8, 77340, Note_on_c, 6, 67, 55
8, 77400, Note_on_c, 6, 67, 0
8, 77760, Note_on_c, 6, 55, 55
8, 77805, Note_on_c, 6, 55, 0
8, 77820, Note_on_c, 6, 55, 55
8, 77865, Note_on_c, 6, 55, 0
8, 77880, Note_on_c, 6, 57, 55
8, 77925, Note_on_c, 6, 57, 0
8, 77940, Note_on_c, 6, 57, 55
8, 77985, Note_on_c, 6, 57, 0
8, 78000, Note_on_c, 6, 59, 55
8, 78045, Note_on_c, 6, 59, 0
8, 78060, Note_on_c, 6, 59, 55
8, 78105, Note_on_c, 6, 59, 0
8, 78120, Note_on_c, 6, 55, 55
8, 78165, Note_on_c, 6, 55, 0
8, 78180, Note_on_c, 6, 55, 55
8, 78225, Note_on_c, 6, 55, 0
8, 78240, Note_on_c, 6, 54, 55
8, 78285, Note_on_c, 6, 54, 0
8, 78300, Note_on_c, 6, 54, 55
8, 78345, Note_on_c, 6, 54, 0
8, 78360, Note_on_c, 6, 55, 55
8, 78405, Note_on_c, 6, 55, 0
8, 78420, Note_on_c, 6, 55, 55
8, 78465, Note_on_c, 6, 55, 0
8, 78480, Note_on_c, 6, 57, 55
8, 78525, Note_on_c, 6, 57, 0
8, 78540, Note_on_c, 6, 57, 55
8, 78585, Note_on_c, 6, 57, 0
8, 78600, Note_on_c, 6, 54, 55
8, 78645, Note_on_c, 6, 54, 0
8, 78660, Note_on_c, 6, 54, 55
8, 78705, Note_on_c, 6, 54, 0
8, 78720, Note_on_c, 6, 55, 55
8, 78765, Note_on_c, 6, 55, 0
8, 78780, Note_on_c, 6, 55, 55
8, 78825, Note_on_c, 6, 55, 0
8, 78840, Note_on_c, 6, 57, 55
8, 78885, Note_on_c, 6, 57, 0
8, 78900, Note_on_c, 6, 57, 55
8, 78945, Note_on_c, 6, 57, 0
8, 78960, Note_on_c, 6, 59, 55
8, 79005, Note_on_c, 6, 59, 0
8, 79020, Note_on_c, 6, 59, 55
8, 79065, Note_on_c, 6, 59, 0
8, 79080, Note_on_c, 6, 55, 55
8, 79125, Note_on_c, 6, 55, 0
8, 79140, Note_on_c, 6, 55, 55
8, 79185, Note_on_c, 6, 55, 0
8, 79200, Note_on_c, 6, 54, 55
8, 79245, Note_on_c, 6, 54, 0
8, 79260, Note_on_c, 6, 54, 55
8, 79305, Note_on_c, 6, 54, 0
8, 79320, Note_on_c, 6, 55, 55
8, 79365, Note_on_c, 6, 55, 0
8, 79380, Note_on_c, 6, 55, 55
8, 79425, Note_on_c, 6, 55, 0
8, 79440, Note_on_c, 6, 57, 55
8, 79485, Note_on_c, 6, 57, 0
8, 79500, Note_on_c, 6, 57, 55
8, 79545, Note_on_c, 6, 57, 0
8, 79560, Note_on_c, 6, 54, 55
8, 79605, Note_on_c, 6, 54, 0
8, 79620, Note_on_c, 6, 54, 55
8, 79665, Note_on_c, 6, 54, 0
8, 79680, Note_on_c, 6, 55, 55
8, 79725, Note_on_c, 6, 55, 0
8, 79740, Note_on_c, 6, 67, 83
8, 79785, Note_on_c, 6, 67, 0
8, 79800, Note_on_c, 6, 71, 83
8, 79845, Note_on_c, 6, 71, 0
8, 79860, Note_on_c, 6, 69, 83
8, 79905, Note_on_c, 6, 69, 0
8, 79920, Note_on_c, 6, 68, 83
8, 79965, Note_on_c, 6, 68, 0
8, 79980, Note_on_c, 6, 64, 83
8, 80025, Note_on_c, 6, 64, 0
8, 80040, Note_on_c, 6, 66, 83
8, 80085, Note_on_c, 6, 66, 0
8, 80100, Note_on_c, 6, 67, 83
8, 80145, Note_on_c, 6, 67, 0
8, 80160, Note_on_c, 6, 69, 83
8, 80205, Note_on_c, 6, 69, 0
8, 80220, Note_on_c, 6, 72, 83
8, 80265, Note_on_c, 6, 72, 0
8, 80280, Note_on_c, 6, 69, 85
8, 80325, Note_on_c, 6, 69, 0
8, 80340, Note_on_c, 6, 67, 85
8, 80385, Note_on_c, 6, 67, 0
8, 80400, Note_on_c, 6, 66, 85
8, 80445, Note_on_c, 6, 66, 0
8, 80460, Note_on_c, 6, 62, 86
8, 80505, Note_on_c, 6, 62, 0
8, 80520, Note_on_c, 6, 64, 85
8, 80565, Note_on_c, 6, 64, 0
8, 80580, Note_on_c, 6, 66, 85
8, 80625, Note_on_c, 6, 66, 0
8, 80640, Note_on_c, 6, 67, 85
8, 80685, Note_on_c, 6, 67, 0
8, 80700, Note_on_c, 6, 67, 85
8, 80745, Note_on_c, 6, 67, 0
8, 80760, Note_on_c, 6, 67, 85
8, 80805, Note_on_c, 6, 67, 0
8, 80820, Note_on_c, 6, 67, 85
8, 80865, Note_on_c, 6, 67, 0
8, 80880, Note_on_c, 6, 67, 85
8, 80925, Note_on_c, 6, 67, 0
8, 80940, Note_on_c, 6, 67, 85
8, 80985, Note_on_c, 6, 67, 0
8, 81000, Note_on_c, 6, 67, 85
8, 81045, Note_on_c, 6, 67, 0
8, 81060, Note_on_c, 6, 67, 85
8, 81105, Note_on_c, 6, 67, 0
8, 81120, Note_on_c, 6, 67, 85
8, 81180, Note_on_c, 6, 67, 0
8, 81180, Note_on_c, 6, 62, 85
8, 81225, Note_on_c, 6, 62, 0
8, 81240, Note_on_c, 6, 62, 85
8, 81270, Note_on_c, 6, 62, 0
8, 81300, Note_on_c, 6, 62, 85
8, 81330, Note_on_c, 6, 62, 0
8, 81360, Note_on_c, 6, 62, 85
8, 81405, Note_on_c, 6, 62, 0
8, 81420, Note_on_c, 6, 62, 85
8, 81465, Note_on_c, 6, 62, 0
8, 81480, Note_on_c, 6, 62, 85
8, 81525, Note_on_c, 6, 62, 0
8, 81540, Note_on_c, 6, 60, 85
8, 81585, Note_on_c, 6, 60, 0
8, 81600, Note_on_c, 6, 55, 85
8, 81645, Note_on_c, 6, 55, 0
8, 81660, Note_on_c, 6, 55, 53
8, 81705, Note_on_c, 6, 55, 0
8, 81720, Note_on_c, 6, 57, 53
8, 81765, Note_on_c, 6, 57, 0
8, 81780, Note_on_c, 6, 57, 53
8, 81825, Note_on_c, 6, 57, 0
8, 81840, Note_on_c, 6, 59, 53
8, 81885, Note_on_c, 6, 59, 0
8, 81900, Note_on_c, 6, 59, 53
8, 81945, Note_on_c, 6, 59, 0
8, 81960, Note_on_c, 6, 55, 53
8, 82005, Note_on_c, 6, 55, 0
8, 82020, Note_on_c, 6, 55, 53
8, 82065, Note_on_c, 6, 55, 0
8, 82080, Note_on_c, 6, 54, 55
8, 82125, Note_on_c, 6, 54, 0
8, 82140, Note_on_c, 6, 54, 55
8, 82185, Note_on_c, 6, 54, 0
8, 82200, Note_on_c, 6, 55, 55
8, 82245, Note_on_c, 6, 55, 0
8, 82260, Note_on_c, 6, 55, 55
8, 82305, Note_on_c, 6, 55, 0
8, 82320, Note_on_c, 6, 57, 55
8, 82365, Note_on_c, 6, 57, 0
8, 82380, Note_on_c, 6, 57, 55
8, 82425, Note_on_c, 6, 57, 0
8, 82440, Note_on_c, 6, 54, 55
8, 82485, Note_on_c, 6, 54, 0
8, 82500, Note_on_c, 6, 54, 55
8, 82545, Note_on_c, 6, 54, 0
8, 82560, Note_on_c, 6, 55, 55
8, 82605, Note_on_c, 6, 55, 0
8, 82620, Note_on_c, 6, 67, 55
8, 82665, Note_on_c, 6, 67, 0
8, 82680, Note_on_c, 6, 69, 55
8, 82725, Note_on_c, 6, 69, 0
8, 82740, Note_on_c, 6, 69, 55
8, 82785, Note_on_c, 6, 69, 0
8, 82800, Note_on_c, 6, 71, 55
8, 82845, Note_on_c, 6, 71, 0
8, 82860, Note_on_c, 6, 71, 55
8, 82905, Note_on_c, 6, 71, 0
8, 82920, Note_on_c, 6, 67, 55
8, 82965, Note_on_c, 6, 67, 0
8, 82980, Note_on_c, 6, 67, 55
8, 83025, Note_on_c, 6, 67, 0
8, 83040, Note_on_c, 6, 66, 55
8, 83085, Note_on_c, 6, 66, 0
8, 83100, Note_on_c, 6, 66, 55
8, 83145, Note_on_c, 6, 66, 0
8, 83160, Note_on_c, 6, 67, 55
8, 83205, Note_on_c, 6, 67, 0
8, 83220, Note_on_c, 6, 67, 55
8, 83265, Note_on_c, 6, 67, 0
8, 83280, Note_on_c, 6, 69, 55
8, 83325, Note_on_c, 6, 69, 0
8, 83340, Note_on_c, 6, 69, 55
8, 83385, Note_on_c, 6, 69, 0
8, 83400, Note_on_c, 6, 66, 55
8, 83445, Note_on_c, 6, 66, 0
8, 83460, Note_on_c, 6, 66, 55
8, 83505, Note_on_c, 6, 66, 0
8, 83520, Note_on_c, 6, 67, 55
8, 83565, Note_on_c, 6, 67, 0
8, 83580, Note_on_c, 6, 67, 85
8, 83625, Note_on_c, 6, 67, 0
8, 83640, Note_on_c, 6, 71, 85
8, 83685, Note_on_c, 6, 71, 0
8, 83700, Note_on_c, 6, 69, 85
8, 83745, Note_on_c, 6, 69, 0
8, 83760, Note_on_c, 6, 68, 85
8, 83805, Note_on_c, 6, 68, 0
8, 83820, Note_on_c, 6, 64, 85
8, 83865, Note_on_c, 6, 64, 0
8, 83880, Note_on_c, 6, 66, 85
8, 83925, Note_on_c, 6, 66, 0
8, 83940, Note_on_c, 6, 67, 85
8, 83985, Note_on_c, 6, 67, 0
8, 84000, Note_on_c, 6, 69, 85
8, 84045, Note_on_c, 6, 69, 0
8, 84060, Note_on_c, 6, 72, 85
8, 84105, Note_on_c, 6, 72, 0
8, 84120, Note_on_c, 6, 69, 85
8, 84165, Note_on_c, 6, 69, 0
8, 84180, Note_on_c, 6, 67, 85
8, 84225, Note_on_c, 6, 67, 0
8, 84240, Note_on_c, 6, 66, 85
8, 84285, Note_on_c, 6, 66, 0
8, 84300, Note_on_c, 6, 62, 85
8, 84345, Note_on_c, 6, 62, 0
8, 84360, Note_on_c, 6, 64, 85
8, 84405, Note_on_c, 6, 64, 0
8, 84420, Note_on_c, 6, 66, 85
8, 84465, Note_on_c, 6, 66, 0
8, 84480, Note_on_c, 6, 67, 85
8, 84525, Note_on_c, 6, 67, 0
8, 84540, Note_on_c, 6, 67, 85
8, 84585, Note_on_c, 6, 67, 0
8, 84600, Note_on_c, 6, 67, 85
8, 84645, Note_on_c, 6, 67, 0
8, 84660, Note_on_c, 6, 67, 85
8, 84705, Note_on_c, 6, 67, 0
8, 84720, Note_on_c, 6, 67, 85
8, 84765, Note_on_c, 6, 67, 0
8, 84780, Note_on_c, 6, 67, 85
8, 84825, Note_on_c, 6, 67, 0
8, 84840, Note_on_c, 6, 67, 85
8, 84885, Note_on_c, 6, 67, 0
8, 84900, Note_on_c, 6, 67, 85
8, 84945, Note_on_c, 6, 67, 0
8, 84960, Note_on_c, 6, 67, 85
8, 85005, Note_on_c, 6, 67, 0
8, 85020, Note_on_c, 6, 71, 85
8, 85065, Note_on_c, 6, 71, 0
8, 85080, Note_on_c, 6, 74, 85
8, 85125, Note_on_c, 6, 74, 0
8, 85140, Note_on_c, 6, 74, 85
8, 85185, Note_on_c, 6, 74, 0
8, 85200, Note_on_c, 6, 74, 85
8, 85245, Note_on_c, 6, 74, 0
8, 85260, Note_on_c, 6, 74, 85
8, 85305, Note_on_c, 6, 74, 0
8, 85320, Note_on_c, 6, 74, 85
8, 85365, Note_on_c, 6, 74, 0
8, 85380, Note_on_c, 6, 72, 85
8, 85425, Note_on_c, 6, 72, 0
8, 85442, Note_on_c, 6, 71, 85
8, 85487, Note_on_c, 6, 71, 0
8, 85502, Note_on_c, 6, 62, 85
8, 85547, Note_on_c, 6, 62, 0
8, 85562, Note_on_c, 6, 64, 85
8, 85607, Note_on_c, 6, 64, 0
8, 85622, Note_on_c, 6, 66, 85
8, 85667, Note_on_c, 6, 66, 0
8, 85682, Note_on_c, 6, 67, 85
8, 85727, Note_on_c, 6, 67, 0
8, 85742, Note_on_c, 6, 67, 85
8, 85787, Note_on_c, 6, 67, 0
8, 85802, Note_on_c, 6, 69, 85
8, 85847, Note_on_c, 6, 69, 0
8, 85862, Note_on_c, 6, 69, 85
8, 85907, Note_on_c, 6, 69, 0
8, 85922, Note_on_c, 6, 71, 85
8, 85967, Note_on_c, 6, 71, 0
8, 85982, Note_on_c, 6, 54, 85
8, 86027, Note_on_c, 6, 54, 0
8, 86042, Note_on_c, 6, 55, 85
8, 86087, Note_on_c, 6, 55, 0
8, 86102, Note_on_c, 6, 57, 85
8, 86147, Note_on_c, 6, 57, 0
8, 86162, Note_on_c, 6, 59, 85
8, 86207, Note_on_c, 6, 59, 0
8, 86222, Note_on_c, 6, 59, 85
8, 86267, Note_on_c, 6, 59, 0
8, 86282, Note_on_c, 6, 60, 85
8, 86327, Note_on_c, 6, 60, 0
8, 86342, Note_on_c, 6, 60, 85
8, 86387, Note_on_c, 6, 60, 0
8, 86400, Note_on_c, 6, 62, 85
8, 86445, Note_on_c, 6, 62, 0
8, 86460, Note_on_c, 6, 62, 85
8, 86505, Note_on_c, 6, 62, 0
8, 86520, Note_on_c, 6, 63, 85
8, 86565, Note_on_c, 6, 63, 0
8, 86580, Note_on_c, 6, 63, 85
8, 86625, Note_on_c, 6, 63, 0
8, 86640, Note_on_c, 6, 64, 85
8, 86760, Note_on_c, 6, 64, 0
8, 86880, Note_on_c, 6, 57, 70
8, 87240, Note_on_c, 6, 57, 0
8, 87240, Note_on_c, 6, 55, 70
8, 87300, Note_on_c, 6, 55, 0
8, 87300, Note_on_c, 6, 54, 70
8, 87360, Note_on_c, 6, 54, 0
8, 87360, Note_on_c, 6, 55, 70
8, 87480, Note_on_c, 6, 55, 0
8, 87840, Note_on_c, 6, 57, 70
8, 88200, Note_on_c, 6, 57, 0
8, 88200, Note_on_c, 6, 55, 70
8, 88260, Note_on_c, 6, 55, 0
8, 88260, Note_on_c, 6, 54, 70
8, 88320, Note_on_c, 6, 54, 0
8, 88320, Note_on_c, 6, 55, 70
8, 88440, Note_on_c, 6, 55, 0
8, 88560, Note_on_c, 6, 67, 70
8, 88680, Note_on_c, 6, 67, 0
8, 88800, Note_on_c, 6, 64, 92
8, 88920, Note_on_c, 6, 64, 0
8, 89040, Note_on_c, 6, 62, 111
8, 89040, Note_on_c, 6, 69, 111
8, 89160, Note_on_c, 6, 69, 0
8, 89160, Note_on_c, 6, 62, 0
8, 89280, Note_on_c, 6, 55, 97
8, 89300, Note_on_c, 6, 55, 0
8, 89310, Note_on_c, 6, 55, 94
8, 89330, Note_on_c, 6, 55, 0
8, 89340, Note_on_c, 6, 55, 93
8, 89360, Note_on_c, 6, 55, 0
8, 89370, Note_on_c, 6, 55, 92
8, 89390, Note_on_c, 6, 55, 0
8, 89400, Note_on_c, 6, 55, 90
8, 89420, Note_on_c, 6, 55, 0
8, 89430, Note_on_c, 6, 55, 90
8, 89450, Note_on_c, 6, 55, 0
8, 89460, Note_on_c, 6, 55, 90
8, 89480, Note_on_c, 6, 55, 0
8, 89490, Note_on_c, 6, 55, 90
8, 89510, Note_on_c, 6, 55, 0
8, 89520, Note_on_c, 6, 55, 88
8, 89540, Note_on_c, 6, 55, 0
8, 89550, Note_on_c, 6, 55, 88
8, 89570, Note_on_c, 6, 55, 0
8, 89580, Note_on_c, 6, 55, 90
8, 89600, Note_on_c, 6, 55, 0
8, 89610, Note_on_c, 6, 55, 90
8, 89630, Note_on_c, 6, 55, 0
8, 89640, Note_on_c, 6, 55, 88
8, 89660, Note_on_c, 6, 55, 0
8, 89670, Note_on_c, 6, 55, 87
8, 89690, Note_on_c, 6, 55, 0
8, 89700, Note_on_c, 6, 55, 87
8, 89720, Note_on_c, 6, 55, 0
8, 89730, Note_on_c, 6, 55, 86
8, 89750, Note_on_c, 6, 55, 0
8, 89760, Note_on_c, 6, 55, 86
8, 89780, Note_on_c, 6, 55, 0
8, 89790, Note_on_c, 6, 55, 86
8, 89810, Note_on_c, 6, 55, 0
8, 89820, Note_on_c, 6, 55, 87
8, 89840, Note_on_c, 6, 55, 0
8, 89850, Note_on_c, 6, 55, 89
8, 89870, Note_on_c, 6, 55, 0
8, 89880, Note_on_c, 6, 55, 90
8, 89900, Note_on_c, 6, 55, 0
8, 89910, Note_on_c, 6, 55, 90
8, 89930, Note_on_c, 6, 55, 0
8, 89940, Note_on_c, 6, 55, 90
8, 89960, Note_on_c, 6, 55, 0
8, 89970, Note_on_c, 6, 55, 89
8, 89990, Note_on_c, 6, 55, 0
8, 90000, Note_on_c, 6, 55, 85
8, 90020, Note_on_c, 6, 55, 0
8, 90030, Note_on_c, 6, 55, 87
8, 90050, Note_on_c, 6, 55, 0
8, 90060, Note_on_c, 6, 55, 87
8, 90080, Note_on_c, 6, 55, 0
8, 90090, Note_on_c, 6, 55, 88
8, 90110, Note_on_c, 6, 55, 0
8, 90120, Note_on_c, 6, 57, 89
8, 90140, Note_on_c, 6, 57, 0
8, 90150, Note_on_c, 6, 57, 90
8, 90170, Note_on_c, 6, 57, 0
8, 90180, Note_on_c, 6, 57, 90
8, 90200, Note_on_c, 6, 57, 0
8, 90210, Note_on_c, 6, 57, 90
8, 90230, Note_on_c, 6, 57, 0
8, 90240, Note_on_c, 6, 55, 90
8, 90260, Note_on_c, 6, 55, 0
8, 90270, Note_on_c, 6, 55, 90
8, 90290, Note_on_c, 6, 55, 0
8, 90300, Note_on_c, 6, 55, 90
8, 90320, Note_on_c, 6, 55, 0
8, 90330, Note_on_c, 6, 55, 90
8, 90350, Note_on_c, 6, 55, 0
8, 90360, Note_on_c, 6, 55, 90
8, 90380, Note_on_c, 6, 55, 0
8, 90390, Note_on_c, 6, 55, 90
8, 90410, Note_on_c, 6, 55, 0
8, 90420, Note_on_c, 6, 55, 90
8, 90440, Note_on_c, 6, 55, 0
8, 90450, Note_on_c, 6, 55, 90
8, 90470, Note_on_c, 6, 55, 0
8, 90480, Note_on_c, 6, 55, 89
8, 90500, Note_on_c, 6, 55, 0
8, 90510, Note_on_c, 6, 55, 89
8, 90530, Note_on_c, 6, 55, 0
8, 90540, Note_on_c, 6, 55, 89
8, 90560, Note_on_c, 6, 55, 0
8, 90570, Note_on_c, 6, 55, 89
8, 90590, Note_on_c, 6, 55, 0
8, 90600, Note_on_c, 6, 55, 89
8, 90620, Note_on_c, 6, 55, 0
8, 90630, Note_on_c, 6, 55, 90
8, 90650, Note_on_c, 6, 55, 0
8, 90660, Note_on_c, 6, 55, 95
8, 90680, Note_on_c, 6, 55, 0
8, 90690, Note_on_c, 6, 55, 96
8, 90710, Note_on_c, 6, 55, 0
8, 90720, Note_on_c, 6, 55, 97
8, 90740, Note_on_c, 6, 55, 0
8, 90750, Note_on_c, 6, 55, 98
8, 90770, Note_on_c, 6, 55, 0
8, 90780, Note_on_c, 6, 55, 99
8, 90800, Note_on_c, 6, 55, 0
8, 90810, Note_on_c, 6, 55, 99
8, 90830, Note_on_c, 6, 55, 0
8, 90840, Note_on_c, 6, 55, 99
8, 90860, Note_on_c, 6, 55, 0
8, 90870, Note_on_c, 6, 55, 99
8, 90890, Note_on_c, 6, 55, 0
8, 90900, Note_on_c, 6, 55, 99
8, 90920, Note_on_c, 6, 55, 0
8, 90930, Note_on_c, 6, 55, 99
8, 90950, Note_on_c, 6, 55, 0
8, 90960, Note_on_c, 6, 55, 97
8, 90980, Note_on_c, 6, 55, 0
8, 90990, Note_on_c, 6, 55, 97
8, 91010, Note_on_c, 6, 55, 0
8, 91020, Note_on_c, 6, 55, 96
8, 91040, Note_on_c, 6, 55, 0
8, 91050, Note_on_c, 6, 55, 94
8, 91070, Note_on_c, 6, 55, 0
8, 91080, Note_on_c, 6, 57, 94
8, 91100, Note_on_c, 6, 57, 0
8, 91110, Note_on_c, 6, 57, 94
8, 91130, Note_on_c, 6, 57, 0
8, 91140, Note_on_c, 6, 57, 95
8, 91160, Note_on_c, 6, 57, 0
8, 91170, Note_on_c, 6, 57, 95
8, 91190, Note_on_c, 6, 57, 0
8, 91200, Note_on_c, 6, 55, 96
8, 91245, Note_on_c, 6, 55, 0
8, 91260, Note_on_c, 6, 59, 103
8, 91305, Note_on_c, 6, 59, 0
8, 91320, Note_on_c, 6, 62, 103
8, 91365, Note_on_c, 6, 62, 0
8, 91380, Note_on_c, 6, 67, 103
8, 91425, Note_on_c, 6, 67, 0
8, 91440, Note_on_c, 6, 71, 103
8, 91485, Note_on_c, 6, 71, 0
8, 91500, Note_on_c, 6, 67, 103
8, 91545, Note_on_c, 6, 67, 0
8, 91560, Note_on_c, 6, 74, 103
8, 91605, Note_on_c, 6, 74, 0
8, 91620, Note_on_c, 6, 71, 103
8, 91665, Note_on_c, 6, 71, 0
8, 91683, Note_on_c, 6, 67, 103
8, 91783, Note_on_c, 6, 67, 0
8, 91803, Note_on_c, 6, 55, 103
8, 91863, Note_on_c, 6, 55, 0
8, 91893, Note_on_c, 6, 55, 103
8, 91908, Note_on_c, 6, 55, 0
8, 91923, Note_on_c, 6, 55, 103
8, 92043, Note_on_c, 6, 55, 0
8, 92043, End_track
9, 0, Start_track
9, 0, MIDI_port, 0
9, 0, Title_t, "Sequenced"
9, 0, Program_c, 7, 50
9, 0, Control_c, 7, 7, 111
9, 0, Control_c, 7, 10, 72
9, 0, Note_on_c, 7, 55, 85
9, 120, Note_on_c, 7, 55, 0
9, 180, Note_on_c, 7, 50, 85
9, 210, Note_on_c, 7, 50, 0
9, 240, Note_on_c, 7, 55, 85
9, 360, Note_on_c, 7, 55, 0
9, 420, Note_on_c, 7, 50, 85
9, 450, Note_on_c, 7, 50, 0
9, 480, Note_on_c, 7, 55, 85
9, 510, Note_on_c, 7, 55, 0
9, 540, Note_on_c, 7, 50, 85
9, 570, Note_on_c, 7, 50, 0
9, 600, Note_on_c, 7, 55, 85
9, 630, Note_on_c, 7, 55, 0
9, 660, Note_on_c, 7, 59, 85
9, 690, Note_on_c, 7, 59, 0
9, 720, Note_on_c, 7, 62, 85
9, 840, Note_on_c, 7, 62, 0
9, 960, Note_on_c, 7, 60, 85
9, 1080, Note_on_c, 7, 60, 0
9, 1140, Note_on_c, 7, 57, 85
9, 1170, Note_on_c, 7, 57, 0
9, 1200, Note_on_c, 7, 60, 85
9, 1320, Note_on_c, 7, 60, 0
9, 1380, Note_on_c, 7, 57, 85
9, 1410, Note_on_c, 7, 57, 0
9, 1440, Note_on_c, 7, 60, 85
9, 1470, Note_on_c, 7, 60, 0
9, 1500, Note_on_c, 7, 57, 85
9, 1530, Note_on_c, 7, 57, 0
9, 1560, Note_on_c, 7, 54, 85
9, 1590, Note_on_c, 7, 54, 0
9, 1620, Note_on_c, 7, 57, 85
9, 1650, Note_on_c, 7, 57, 0
9, 1680, Note_on_c, 7, 50, 85
9, 1800, Note_on_c, 7, 50, 0
9, 1920, Note_on_c, 7, 55, 85
9, 1965, Note_on_c, 7, 55, 0
9, 1980, Note_on_c, 7, 55, 85
9, 2025, Note_on_c, 7, 55, 0
9, 2040, Note_on_c, 7, 55, 85
9, 2085, Note_on_c, 7, 55, 0
9, 2100, Note_on_c, 7, 55, 85
9, 2145, Note_on_c, 7, 55, 0
9, 2160, Note_on_c, 7, 55, 85
9, 2205, Note_on_c, 7, 55, 0
9, 2220, Note_on_c, 7, 55, 85
9, 2265, Note_on_c, 7, 55, 0
9, 2280, Note_on_c, 7, 55, 85
9, 2325, Note_on_c, 7, 55, 0
9, 2340, Note_on_c, 7, 55, 85
9, 2385, Note_on_c, 7, 55, 0
9, 2400, Note_on_c, 7, 55, 85
9, 2445, Note_on_c, 7, 55, 0
9, 2460, Note_on_c, 7, 55, 85
9, 2505, Note_on_c, 7, 55, 0
9, 2520, Note_on_c, 7, 55, 85
9, 2565, Note_on_c, 7, 55, 0
9, 2580, Note_on_c, 7, 55, 85
9, 2625, Note_on_c, 7, 55, 0
9, 2640, Note_on_c, 7, 55, 85
9, 2685, Note_on_c, 7, 55, 0
9, 2700, Note_on_c, 7, 55, 85
9, 2745, Note_on_c, 7, 55, 0
9, 2760, Note_on_c, 7, 55, 85
9, 2805, Note_on_c, 7, 55, 0
9, 2820, Note_on_c, 7, 55, 85
9, 2865, Note_on_c, 7, 55, 0
9, 2880, Note_on_c, 7, 55, 85
9, 2925, Note_on_c, 7, 55, 0
9, 2940, Note_on_c, 7, 55, 85
9, 2985, Note_on_c, 7, 55, 0
9, 3000, Note_on_c, 7, 55, 85
9, 3045, Note_on_c, 7, 55, 0
9, 3060, Note_on_c, 7, 55, 85
9, 3105, Note_on_c, 7, 55, 0
9, 3120, Note_on_c, 7, 55, 85
9, 3165, Note_on_c, 7, 55, 0
9, 3180, Note_on_c, 7, 55, 85
9, 3225, Note_on_c, 7, 55, 0
9, 3240, Note_on_c, 7, 55, 85
9, 3285, Note_on_c, 7, 55, 0
9, 3300, Note_on_c, 7, 55, 85
9, 3345, Note_on_c, 7, 55, 0
9, 3360, Note_on_c, 7, 55, 85
9, 3405, Note_on_c, 7, 55, 0
9, 3420, Note_on_c, 7, 55, 85
9, 3465, Note_on_c, 7, 55, 0
9, 3480, Note_on_c, 7, 55, 85
9, 3525, Note_on_c, 7, 55, 0
9, 3540, Note_on_c, 7, 55, 85
9, 3585, Note_on_c, 7, 55, 0
9, 3600, Note_on_c, 7, 55, 85
9, 3645, Note_on_c, 7, 55, 0
9, 3660, Note_on_c, 7, 55, 85
9, 3705, Note_on_c, 7, 55, 0
9, 3720, Note_on_c, 7, 55, 85
9, 3765, Note_on_c, 7, 55, 0
9, 3780, Note_on_c, 7, 55, 85
9, 3825, Note_on_c, 7, 55, 0
9, 3840, Note_on_c, 7, 55, 85
9, 3885, Note_on_c, 7, 55, 0
9, 3900, Note_on_c, 7, 55, 85
9, 3945, Note_on_c, 7, 55, 0
9, 3960, Note_on_c, 7, 57, 85
9, 4005, Note_on_c, 7, 57, 0
9, 4020, Note_on_c, 7, 57, 85
9, 4065, Note_on_c, 7, 57, 0
9, 4080, Note_on_c, 7, 59, 85
9, 4125, Note_on_c, 7, 59, 0
9, 4140, Note_on_c, 7, 59, 85
9, 4185, Note_on_c, 7, 59, 0
9, 4200, Note_on_c, 7, 54, 85
9, 4245, Note_on_c, 7, 54, 0
9, 4260, Note_on_c, 7, 54, 85
9, 4305, Note_on_c, 7, 54, 0
9, 4320, Note_on_c, 7, 55, 85
9, 4365, Note_on_c, 7, 55, 0
9, 4380, Note_on_c, 7, 55, 85
9, 4425, Note_on_c, 7, 55, 0
9, 4440, Note_on_c, 7, 57, 85
9, 4485, Note_on_c, 7, 57, 0
9, 4500, Note_on_c, 7, 57, 85
9, 4545, Note_on_c, 7, 57, 0
9, 4560, Note_on_c, 7, 59, 85
9, 4680, Note_on_c, 7, 59, 0
9, 5280, Note_on_c, 7, 50, 47
9, 5520, Note_on_c, 7, 50, 0
9, 5520, Note_on_c, 7, 52, 47
9, 5760, Note_on_c, 7, 52, 0
9, 5760, Note_on_c, 7, 48, 47
9, 5850, Note_on_c, 7, 48, 0
9, 5880, Note_on_c, 7, 48, 47
9, 5970, Note_on_c, 7, 48, 0
9, 6000, Note_on_c, 7, 50, 47
9, 6090, Note_on_c, 7, 50, 0
9, 6120, Note_on_c, 7, 50, 47
9, 6210, Note_on_c, 7, 50, 0
9, 6240, Note_on_c, 7, 47, 47
9, 6300, Note_on_c, 7, 47, 0
9, 6360, Note_on_c, 7, 50, 47
9, 6420, Note_on_c, 7, 50, 0
9, 6480, Note_on_c, 7, 55, 47
9, 6600, Note_on_c, 7, 55, 0
9, 7200, Note_on_c, 7, 50, 47
9, 7440, Note_on_c, 7, 50, 0
9, 7440, Note_on_c, 7, 52, 47
9, 7680, Note_on_c, 7, 52, 0
9, 7680, Note_on_c, 7, 48, 47
9, 7770, Note_on_c, 7, 48, 0
9, 7800, Note_on_c, 7, 48, 47
9, 7890, Note_on_c, 7, 48, 0
9, 7920, Note_on_c, 7, 50, 47
9, 8010, Note_on_c, 7, 50, 0
9, 8040, Note_on_c, 7, 50, 47
9, 8130, Note_on_c, 7, 50, 0
9, 8160, Note_on_c, 7, 55, 91
9, 8205, Note_on_c, 7, 55, 0
9, 8220, Note_on_c, 7, 55, 83
9, 8265, Note_on_c, 7, 55, 0
9, 8280, Note_on_c, 7, 55, 83
9, 8325, Note_on_c, 7, 55, 0
9, 8340, Note_on_c, 7, 55, 83
9, 8385, Note_on_c, 7, 55, 0
9, 8400, Note_on_c, 7, 55, 59
9, 8445, Note_on_c, 7, 55, 0
9, 8460, Note_on_c, 7, 55, 59
9, 8505, Note_on_c, 7, 55, 0
9, 8520, Note_on_c, 7, 55, 59
9, 8565, Note_on_c, 7, 55, 0
9, 8580, Note_on_c, 7, 55, 59
9, 8625, Note_on_c, 7, 55, 0
9, 8640, Note_on_c, 7, 55, 92
9, 8685, Note_on_c, 7, 55, 0
9, 8700, Note_on_c, 7, 55, 79
9, 8745, Note_on_c, 7, 55, 0
9, 8760, Note_on_c, 7, 55, 79
9, 8805, Note_on_c, 7, 55, 0
9, 8820, Note_on_c, 7, 55, 79
9, 8865, Note_on_c, 7, 55, 0
9, 8880, Note_on_c, 7, 55, 59
9, 8925, Note_on_c, 7, 55, 0
9, 8940, Note_on_c, 7, 55, 59
9, 8985, Note_on_c, 7, 55, 0
9, 9000, Note_on_c, 7, 55, 59
9, 9045, Note_on_c, 7, 55, 0
9, 9060, Note_on_c, 7, 55, 59
9, 9105, Note_on_c, 7, 55, 0
9, 9120, Note_on_c, 7, 55, 59
9, 9165, Note_on_c, 7, 55, 0
9, 9180, Note_on_c, 7, 55, 40
9, 9225, Note_on_c, 7, 55, 0
9, 9240, Note_on_c, 7, 55, 43
9, 9285, Note_on_c, 7, 55, 0
9, 9300, Note_on_c, 7, 55, 46
9, 9345, Note_on_c, 7, 55, 0
9, 9360, Note_on_c, 7, 55, 49
9, 9405, Note_on_c, 7, 55, 0
9, 9420, Note_on_c, 7, 55, 52
9, 9465, Note_on_c, 7, 55, 0
9, 9480, Note_on_c, 7, 55, 55
9, 9525, Note_on_c, 7, 55, 0
9, 9540, Note_on_c, 7, 55, 58
9, 9585, Note_on_c, 7, 55, 0
9, 9600, Note_on_c, 7, 55, 61
9, 9645, Note_on_c, 7, 55, 0
9, 9660, Note_on_c, 7, 55, 64
9, 9705, Note_on_c, 7, 55, 0
9, 9720, Note_on_c, 7, 54, 67
9, 9765, Note_on_c, 7, 54, 0
9, 9780, Note_on_c, 7, 54, 70
9, 9825, Note_on_c, 7, 54, 0
9, 9840, Note_on_c, 7, 55, 73
9, 9885, Note_on_c, 7, 55, 0
9, 9900, Note_on_c, 7, 55, 76
9, 9945, Note_on_c, 7, 55, 0
9, 9960, Note_on_c, 7, 52, 79
9, 10005, Note_on_c, 7, 52, 0
9, 10020, Note_on_c, 7, 52, 82
9, 10065, Note_on_c, 7, 52, 0
9, 10080, Note_on_c, 7, 50, 85
9, 10125, Note_on_c, 7, 50, 0
9, 10140, Note_on_c, 7, 50, 85
9, 10185, Note_on_c, 7, 50, 0
9, 10200, Note_on_c, 7, 50, 85
9, 10245, Note_on_c, 7, 50, 0
9, 10260, Note_on_c, 7, 50, 85
9, 10305, Note_on_c, 7, 50, 0
9, 10320, Note_on_c, 7, 50, 85
9, 10365, Note_on_c, 7, 50, 0
9, 10380, Note_on_c, 7, 50, 85
9, 10425, Note_on_c, 7, 50, 0
9, 10440, Note_on_c, 7, 50, 85
9, 10485, Note_on_c, 7, 50, 0
9, 10500, Note_on_c, 7, 50, 85
9, 10545, Note_on_c, 7, 50, 0
9, 10560, Note_on_c, 7, 50, 85
9, 10605, Note_on_c, 7, 50, 0
9, 10620, Note_on_c, 7, 50, 85
9, 10665, Note_on_c, 7, 50, 0
9, 10680, Note_on_c, 7, 50, 85
9, 10725, Note_on_c, 7, 50, 0
9, 10740, Note_on_c, 7, 50, 85
9, 10785, Note_on_c, 7, 50, 0
9, 10800, Note_on_c, 7, 50, 85
9, 10845, Note_on_c, 7, 50, 0
9, 10860, Note_on_c, 7, 50, 85
9, 10905, Note_on_c, 7, 50, 0
9, 10920, Note_on_c, 7, 50, 85
9, 10965, Note_on_c, 7, 50, 0
9, 10980, Note_on_c, 7, 50, 85
9, 11025, Note_on_c, 7, 50, 0
9, 11040, Note_on_c, 7, 50, 85
9, 11085, Note_on_c, 7, 50, 0
9, 11100, Note_on_c, 7, 52, 85
9, 11145, Note_on_c, 7, 52, 0
9, 11160, Note_on_c, 7, 54, 85
9, 11205, Note_on_c, 7, 54, 0
9, 11220, Note_on_c, 7, 52, 85
9, 11265, Note_on_c, 7, 52, 0
9, 11280, Note_on_c, 7, 50, 85
9, 11325, Note_on_c, 7, 50, 0
9, 11340, Note_on_c, 7, 52, 85
9, 11385, Note_on_c, 7, 52, 0
9, 11400, Note_on_c, 7, 54, 85
9, 11445, Note_on_c, 7, 54, 0
9, 11460, Note_on_c, 7, 50, 85
9, 11505, Note_on_c, 7, 50, 0
9, 11520, Note_on_c, 7, 55, 85
9, 11565, Note_on_c, 7, 55, 0
9, 11580, Note_on_c, 7, 57, 85
9, 11625, Note_on_c, 7, 57, 0
9, 11640, Note_on_c, 7, 59, 85
9, 11685, Note_on_c, 7, 59, 0
9, 11700, Note_on_c, 7, 57, 85
9, 11745, Note_on_c, 7, 57, 0
9, 11760, Note_on_c, 7, 55, 85
9, 11805, Note_on_c, 7, 55, 0
9, 11820, Note_on_c, 7, 57, 85
9, 11865, Note_on_c, 7, 57, 0
9, 11880, Note_on_c, 7, 59, 85
9, 11925, Note_on_c, 7, 59, 0
9, 11940, Note_on_c, 7, 56, 85
9, 11985, Note_on_c, 7, 56, 0
9, 12000, Note_on_c, 7, 57, 85
9, 12045, Note_on_c, 7, 57, 0
9, 12060, Note_on_c, 7, 57, 85
9, 12105, Note_on_c, 7, 57, 0
9, 12120, Note_on_c, 7, 57, 85
9, 12165, Note_on_c, 7, 57, 0
9, 12180, Note_on_c, 7, 57, 85
9, 12225, Note_on_c, 7, 57, 0
9, 12240, Note_on_c, 7, 57, 85
9, 12285, Note_on_c, 7, 57, 0
9, 12300, Note_on_c, 7, 57, 85
9, 12345, Note_on_c, 7, 57, 0
9, 12360, Note_on_c, 7, 57, 85
9, 12405, Note_on_c, 7, 57, 0
9, 12420, Note_on_c, 7, 57, 85
9, 12465, Note_on_c, 7, 57, 0
9, 12480, Note_on_c, 7, 57, 85
9, 12525, Note_on_c, 7, 57, 0
9, 12540, Note_on_c, 7, 45, 85
9, 12585, Note_on_c, 7, 45, 0
9, 12600, Note_on_c, 7, 45, 85
9, 12645, Note_on_c, 7, 45, 0
9, 12660, Note_on_c, 7, 45, 85
9, 12705, Note_on_c, 7, 45, 0
9, 12720, Note_on_c, 7, 45, 85
9, 12840, Note_on_c, 7, 45, 0
9, 13320, Note_on_c, 7, 51, 55
9, 13380, Note_on_c, 7, 51, 0
9, 13440, Note_on_c, 7, 52, 55
9, 13500, Note_on_c, 7, 52, 0
9, 13560, Note_on_c, 7, 50, 55
9, 13620, Note_on_c, 7, 50, 0
9, 13680, Note_on_c, 7, 49, 55
9, 13740, Note_on_c, 7, 49, 0
9, 13800, Note_on_c, 7, 45, 55
9, 13860, Note_on_c, 7, 45, 0
9, 14040, Note_on_c, 7, 46, 55
9, 14160, Note_on_c, 7, 46, 0
9, 14160, Note_on_c, 7, 47, 55
9, 14220, Note_on_c, 7, 47, 0
9, 14280, Note_on_c, 7, 43, 55
9, 14340, Note_on_c, 7, 43, 0
9, 14400, Note_on_c, 7, 45, 55
9, 14490, Note_on_c, 7, 45, 0
9, 14520, Note_on_c, 7, 57, 55
9, 14700, Note_on_c, 7, 57, 0
9, 14700, Note_on_c, 7, 56, 55
9, 14760, Note_on_c, 7, 56, 0
9, 14760, Note_on_c, 7, 55, 55
9, 14820, Note_on_c, 7, 55, 0
9, 14820, Note_on_c, 7, 52, 55
9, 14880, Note_on_c, 7, 52, 0
9, 14880, Note_on_c, 7, 50, 55
9, 14940, Note_on_c, 7, 50, 0
9, 15000, Note_on_c, 7, 52, 55
9, 15060, Note_on_c, 7, 52, 0
9, 15120, Note_on_c, 7, 54, 55
9, 15180, Note_on_c, 7, 54, 0
9, 15240, Note_on_c, 7, 51, 55
9, 15300, Note_on_c, 7, 51, 0
9, 15360, Note_on_c, 7, 52, 55
9, 15420, Note_on_c, 7, 52, 0
9, 15480, Note_on_c, 7, 50, 55
9, 15540, Note_on_c, 7, 50, 0
9, 15600, Note_on_c, 7, 49, 55
9, 15660, Note_on_c, 7, 49, 0
9, 15720, Note_on_c, 7, 45, 55
9, 15780, Note_on_c, 7, 45, 0
9, 15840, Note_on_c, 7, 47, 55
9, 15900, Note_on_c, 7, 47, 0
9, 15960, Note_on_c, 7, 55, 55
9, 16020, Note_on_c, 7, 55, 0
9, 16080, Note_on_c, 7, 57, 55
9, 16140, Note_on_c, 7, 57, 0
9, 16200, Note_on_c, 7, 45, 55
9, 16260, Note_on_c, 7, 45, 0
9, 16320, Note_on_c, 7, 50, 55
9, 16440, Note_on_c, 7, 50, 0
9, 16800, Note_on_c, 7, 45, 55
9, 16920, Note_on_c, 7, 45, 0
9, 17280, Note_on_c, 7, 50, 55
9, 17400, Note_on_c, 7, 50, 0
9, 17760, Note_on_c, 7, 45, 55
9, 17880, Note_on_c, 7, 45, 0
9, 18300, Note_on_c, 7, 50, 55
9, 18345, Note_on_c, 7, 50, 0
9, 18360, Note_on_c, 7, 54, 55
9, 18405, Note_on_c, 7, 54, 0
9, 18420, Note_on_c, 7, 52, 55
9, 18465, Note_on_c, 7, 52, 0
9, 18480, Note_on_c, 7, 51, 55
9, 18525, Note_on_c, 7, 51, 0
9, 18540, Note_on_c, 7, 47, 55
9, 18585, Note_on_c, 7, 47, 0
9, 18600, Note_on_c, 7, 49, 55
9, 18645, Note_on_c, 7, 49, 0
9, 18660, Note_on_c, 7, 50, 55
9, 18705, Note_on_c, 7, 50, 0
9, 18720, Note_on_c, 7, 52, 85
9, 18765, Note_on_c, 7, 52, 0
9, 18780, Note_on_c, 7, 55, 85
9, 18825, Note_on_c, 7, 55, 0
9, 18840, Note_on_c, 7, 52, 85
9, 18885, Note_on_c, 7, 52, 0
9, 18900, Note_on_c, 7, 50, 85
9, 18945, Note_on_c, 7, 50, 0
9, 18960, Note_on_c, 7, 49, 85
9, 19005, Note_on_c, 7, 49, 0
9, 19020, Note_on_c, 7, 45, 85
9, 19065, Note_on_c, 7, 45, 0
9, 19080, Note_on_c, 7, 47, 85
9, 19125, Note_on_c, 7, 47, 0
9, 19140, Note_on_c, 7, 49, 85
9, 19185, Note_on_c, 7, 49, 0
9, 19200, Note_on_c, 7, 50, 85
9, 19245, Note_on_c, 7, 50, 0
9, 19260, Note_on_c, 7, 50, 85
9, 19305, Note_on_c, 7, 50, 0
9, 19320, Note_on_c, 7, 52, 85
9, 19365, Note_on_c, 7, 52, 0
9, 19380, Note_on_c, 7, 54, 85
9, 19425, Note_on_c, 7, 54, 0
9, 19440, Note_on_c, 7, 55, 85
9, 19485, Note_on_c, 7, 55, 0
9, 19500, Note_on_c, 7, 55, 85
9, 19545, Note_on_c, 7, 55, 0
9, 19560, Note_on_c, 7, 55, 85
9, 19605, Note_on_c, 7, 55, 0
9, 19620, Note_on_c, 7, 55, 85
9, 19665, Note_on_c, 7, 55, 0
9, 19680, Note_on_c, 7, 57, 85
9, 19725, Note_on_c, 7, 57, 0
9, 19740, Note_on_c, 7, 57, 85
9, 19785, Note_on_c, 7, 57, 0
9, 19800, Note_on_c, 7, 57, 85
9, 19845, Note_on_c, 7, 57, 0
9, 19860, Note_on_c, 7, 57, 85
9, 19905, Note_on_c, 7, 57, 0
9, 19920, Note_on_c, 7, 45, 85
9, 19965, Note_on_c, 7, 45, 0
9, 19980, Note_on_c, 7, 45, 85
9, 20025, Note_on_c, 7, 45, 0
9, 20040, Note_on_c, 7, 45, 85
9, 20085, Note_on_c, 7, 45, 0
9, 20100, Note_on_c, 7, 45, 85
9, 20145, Note_on_c, 7, 45, 0
9, 20160, Note_on_c, 7, 50, 85
9, 20280, Note_on_c, 7, 50, 0
9, 20640, Note_on_c, 7, 45, 55
9, 20760, Note_on_c, 7, 45, 0
9, 21120, Note_on_c, 7, 50, 55
9, 21240, Note_on_c, 7, 50, 0
9, 21600, Note_on_c, 7, 45, 55
9, 21720, Note_on_c, 7, 45, 0
9, 22140, Note_on_c, 7, 50, 85
9, 22185, Note_on_c, 7, 50, 0
9, 22200, Note_on_c, 7, 54, 85
9, 22245, Note_on_c, 7, 54, 0
9, 22260, Note_on_c, 7, 52, 85
9, 22305, Note_on_c, 7, 52, 0
9, 22320, Note_on_c, 7, 51, 85
9, 22365, Note_on_c, 7, 51, 0
9, 22380, Note_on_c, 7, 47, 85
9, 22425, Note_on_c, 7, 47, 0
9, 22440, Note_on_c, 7, 49, 85
9, 22485, Note_on_c, 7, 49, 0
9, 22500, Note_on_c, 7, 50, 85
9, 22545, Note_on_c, 7, 50, 0
9, 22560, Note_on_c, 7, 52, 85
9, 22605, Note_on_c, 7, 52, 0
9, 22620, Note_on_c, 7, 55, 85
9, 22665, Note_on_c, 7, 55, 0
9, 22680, Note_on_c, 7, 52, 85
9, 22725, Note_on_c, 7, 52, 0
9, 22740, Note_on_c, 7, 50, 85
9, 22785, Note_on_c, 7, 50, 0
9, 22800, Note_on_c, 7, 49, 85
9, 22845, Note_on_c, 7, 49, 0
9, 22860, Note_on_c, 7, 45, 85
9, 22905, Note_on_c, 7, 45, 0
9, 22920, Note_on_c, 7, 47, 85
9, 22965, Note_on_c, 7, 47, 0
9, 22980, Note_on_c, 7, 49, 85
9, 23025, Note_on_c, 7, 49, 0
9, 23040, Note_on_c, 7, 50, 85
9, 23085, Note_on_c, 7, 50, 0
9, 23100, Note_on_c, 7, 50, 85
9, 23145, Note_on_c, 7, 50, 0
9, 23160, Note_on_c, 7, 52, 85
9, 23205, Note_on_c, 7, 52, 0
9, 23220, Note_on_c, 7, 54, 85
9, 23265, Note_on_c, 7, 54, 0
9, 23280, Note_on_c, 7, 55, 85
9, 23325, Note_on_c, 7, 55, 0
9, 23340, Note_on_c, 7, 55, 85
9, 23385, Note_on_c, 7, 55, 0
9, 23400, Note_on_c, 7, 55, 85
9, 23445, Note_on_c, 7, 55, 0
9, 23460, Note_on_c, 7, 55, 85
9, 23505, Note_on_c, 7, 55, 0
9, 23520, Note_on_c, 7, 57, 85
9, 23565, Note_on_c, 7, 57, 0
9, 23580, Note_on_c, 7, 57, 85
9, 23625, Note_on_c, 7, 57, 0
9, 23640, Note_on_c, 7, 57, 85
9, 23685, Note_on_c, 7, 57, 0
9, 23700, Note_on_c, 7, 57, 85
9, 23745, Note_on_c, 7, 57, 0
9, 23760, Note_on_c, 7, 45, 85
9, 23805, Note_on_c, 7, 45, 0
9, 23820, Note_on_c, 7, 45, 85
9, 23865, Note_on_c, 7, 45, 0
9, 23880, Note_on_c, 7, 45, 85
9, 23925, Note_on_c, 7, 45, 0
9, 23940, Note_on_c, 7, 45, 85
9, 23985, Note_on_c, 7, 45, 0
9, 24000, Note_on_c, 7, 50, 85
9, 24045, Note_on_c, 7, 50, 0
9, 24060, Note_on_c, 7, 45, 85
9, 24105, Note_on_c, 7, 45, 0
9, 24120, Note_on_c, 7, 47, 85
9, 24165, Note_on_c, 7, 47, 0
9, 24180, Note_on_c, 7, 49, 85
9, 24225, Note_on_c, 7, 49, 0
9, 24240, Note_on_c, 7, 50, 85
9, 24285, Note_on_c, 7, 50, 0
9, 24300, Note_on_c, 7, 50, 85
9, 24345, Note_on_c, 7, 50, 0
9, 24360, Note_on_c, 7, 52, 85
9, 24405, Note_on_c, 7, 52, 0
9, 24420, Note_on_c, 7, 52, 85
9, 24465, Note_on_c, 7, 52, 0
9, 24480, Note_on_c, 7, 54, 85
9, 24525, Note_on_c, 7, 54, 0
9, 24540, Note_on_c, 7, 49, 85
9, 24585, Note_on_c, 7, 49, 0
9, 24600, Note_on_c, 7, 50, 85
9, 24645, Note_on_c, 7, 50, 0
9, 24660, Note_on_c, 7, 52, 85
9, 24705, Note_on_c, 7, 52, 0
9, 24720, Note_on_c, 7, 54, 85
9, 24765, Note_on_c, 7, 54, 0
9, 24780, Note_on_c, 7, 54, 85
9, 24825, Note_on_c, 7, 54, 0
9, 24840, Note_on_c, 7, 55, 85
9, 24885, Note_on_c, 7, 55, 0
9, 24900, Note_on_c, 7, 55, 85
9, 24945, Note_on_c, 7, 55, 0
9, 24960, Note_on_c, 7, 57, 85
9, 25005, Note_on_c, 7, 57, 0
9, 25020, Note_on_c, 7, 57, 85
9, 25065, Note_on_c, 7, 57, 0
9, 25080, Note_on_c, 7, 58, 85
9, 25125, Note_on_c, 7, 58, 0
9, 25140, Note_on_c, 7, 58, 85
9, 25185, Note_on_c, 7, 58, 0
9, 25200, Note_on_c, 7, 59, 85
9, 25320, Note_on_c, 7, 59, 0
9, 25440, Note_on_c, 7, 55, 55
9, 25680, Note_on_c, 7, 55, 0
9, 25680, Note_on_c, 7, 57, 55
9, 25920, Note_on_c, 7, 57, 0
9, 25920, Note_on_c, 7, 50, 55
9, 25980, Note_on_c, 7, 50, 0
9, 26040, Note_on_c, 7, 50, 55
9, 26100, Note_on_c, 7, 50, 0
9, 26160, Note_on_c, 7, 50, 55
9, 26220, Note_on_c, 7, 50, 0
9, 26400, Note_on_c, 7, 55, 85
9, 26520, Note_on_c, 7, 55, 0
9, 26580, Note_on_c, 7, 50, 85
9, 26610, Note_on_c, 7, 50, 0
9, 26640, Note_on_c, 7, 55, 85
9, 26760, Note_on_c, 7, 55, 0
9, 26820, Note_on_c, 7, 50, 85
9, 26850, Note_on_c, 7, 50, 0
9, 26880, Note_on_c, 7, 55, 85
9, 26910, Note_on_c, 7, 55, 0
9, 26940, Note_on_c, 7, 50, 85
9, 26970, Note_on_c, 7, 50, 0
9, 27000, Note_on_c, 7, 55, 85
9, 27030, Note_on_c, 7, 55, 0
9, 27060, Note_on_c, 7, 59, 85
9, 27090, Note_on_c, 7, 59, 0
9, 27120, Note_on_c, 7, 62, 85
9, 27240, Note_on_c, 7, 62, 0
9, 27360, Note_on_c, 7, 60, 85
9, 27480, Note_on_c, 7, 60, 0
9, 27540, Note_on_c, 7, 57, 85
9, 27570, Note_on_c, 7, 57, 0
9, 27600, Note_on_c, 7, 60, 85
9, 27720, Note_on_c, 7, 60, 0
9, 27780, Note_on_c, 7, 57, 85
9, 27810, Note_on_c, 7, 57, 0
9, 27840, Note_on_c, 7, 60, 85
9, 27870, Note_on_c, 7, 60, 0
9, 27900, Note_on_c, 7, 57, 85
9, 27930, Note_on_c, 7, 57, 0
9, 27960, Note_on_c, 7, 54, 85
9, 27990, Note_on_c, 7, 54, 0
9, 28020, Note_on_c, 7, 57, 85
9, 28050, Note_on_c, 7, 57, 0
9, 28080, Note_on_c, 7, 50, 85
9, 28200, Note_on_c, 7, 50, 0
9, 28320, Note_on_c, 7, 55, 85
9, 28365, Note_on_c, 7, 55, 0
9, 28380, Note_on_c, 7, 55, 85
9, 28425, Note_on_c, 7, 55, 0
9, 28440, Note_on_c, 7, 55, 85
9, 28485, Note_on_c, 7, 55, 0
9, 28500, Note_on_c, 7, 55, 85
9, 28545, Note_on_c, 7, 55, 0
9, 28560, Note_on_c, 7, 55, 85
9, 28605, Note_on_c, 7, 55, 0
9, 28620, Note_on_c, 7, 55, 85
9, 28665, Note_on_c, 7, 55, 0
9, 28680, Note_on_c, 7, 55, 85
9, 28725, Note_on_c, 7, 55, 0
9, 28740, Note_on_c, 7, 55, 85
9, 28785, Note_on_c, 7, 55, 0
9, 28800, Note_on_c, 7, 55, 85
9, 28845, Note_on_c, 7, 55, 0
9, 28860, Note_on_c, 7, 55, 85
9, 28905, Note_on_c, 7, 55, 0
9, 28920, Note_on_c, 7, 55, 85
9, 28965, Note_on_c, 7, 55, 0
9, 28980, Note_on_c, 7, 55, 85
9, 29025, Note_on_c, 7, 55, 0
9, 29040, Note_on_c, 7, 55, 85
9, 29085, Note_on_c, 7, 55, 0
9, 29100, Note_on_c, 7, 55, 85
9, 29145, Note_on_c, 7, 55, 0
9, 29160, Note_on_c, 7, 55, 85
9, 29205, Note_on_c, 7, 55, 0
9, 29220, Note_on_c, 7, 55, 85
9, 29265, Note_on_c, 7, 55, 0
9, 29280, Note_on_c, 7, 55, 85
9, 29325, Note_on_c, 7, 55, 0
9, 29340, Note_on_c, 7, 55, 85
9, 29385, Note_on_c, 7, 55, 0
9, 29400, Note_on_c, 7, 55, 85
9, 29445, Note_on_c, 7, 55, 0
9, 29460, Note_on_c, 7, 55, 85
9, 29505, Note_on_c, 7, 55, 0
9, 29520, Note_on_c, 7, 55, 85
9, 29565, Note_on_c, 7, 55, 0
9, 29580, Note_on_c, 7, 55, 85
9, 29625, Note_on_c, 7, 55, 0
9, 29640, Note_on_c, 7, 55, 85
9, 29685, Note_on_c, 7, 55, 0
9, 29700, Note_on_c, 7, 55, 85
9, 29745, Note_on_c, 7, 55, 0
9, 29760, Note_on_c, 7, 55, 85
9, 29805, Note_on_c, 7, 55, 0
9, 29820, Note_on_c, 7, 55, 85
9, 29865, Note_on_c, 7, 55, 0
9, 29880, Note_on_c, 7, 55, 85
9, 29925, Note_on_c, 7, 55, 0
9, 29940, Note_on_c, 7, 55, 85
9, 29985, Note_on_c, 7, 55, 0
9, 30000, Note_on_c, 7, 55, 85
9, 30045, Note_on_c, 7, 55, 0
9, 30060, Note_on_c, 7, 55, 85
9, 30105, Note_on_c, 7, 55, 0
9, 30120, Note_on_c, 7, 55, 85
9, 30165, Note_on_c, 7, 55, 0
9, 30180, Note_on_c, 7, 55, 85
9, 30225, Note_on_c, 7, 55, 0
9, 30240, Note_on_c, 7, 55, 85
9, 30285, Note_on_c, 7, 55, 0
9, 30300, Note_on_c, 7, 55, 85
9, 30345, Note_on_c, 7, 55, 0
9, 30360, Note_on_c, 7, 57, 85
9, 30405, Note_on_c, 7, 57, 0
9, 30420, Note_on_c, 7, 57, 85
9, 30465, Note_on_c, 7, 57, 0
9, 30480, Note_on_c, 7, 59, 85
9, 30525, Note_on_c, 7, 59, 0
9, 30540, Note_on_c, 7, 59, 85
9, 30585, Note_on_c, 7, 59, 0
9, 30600, Note_on_c, 7, 54, 85
9, 30645, Note_on_c, 7, 54, 0
9, 30660, Note_on_c, 7, 54, 85
9, 30705, Note_on_c, 7, 54, 0
9, 30720, Note_on_c, 7, 55, 85
9, 30765, Note_on_c, 7, 55, 0
9, 30780, Note_on_c, 7, 55, 85
9, 30825, Note_on_c, 7, 55, 0
9, 30840, Note_on_c, 7, 57, 85
9, 30885, Note_on_c, 7, 57, 0
9, 30900, Note_on_c, 7, 57, 85
9, 30945, Note_on_c, 7, 57, 0
9, 30960, Note_on_c, 7, 59, 85
9, 31080, Note_on_c, 7, 59, 0
9, 31680, Note_on_c, 7, 50, 47
9, 31920, Note_on_c, 7, 50, 0
9, 31920, Note_on_c, 7, 52, 47
9, 32160, Note_on_c, 7, 52, 0
9, 32160, Note_on_c, 7, 48, 47
9, 32250, Note_on_c, 7, 48, 0
9, 32280, Note_on_c, 7, 48, 47
9, 32370, Note_on_c, 7, 48, 0
9, 32400, Note_on_c, 7, 50, 47
9, 32490, Note_on_c, 7, 50, 0
9, 32520, Note_on_c, 7, 50, 47
9, 32610, Note_on_c, 7, 50, 0
9, 32640, Note_on_c, 7, 47, 47
9, 32700, Note_on_c, 7, 47, 0
9, 32760, Note_on_c, 7, 50, 47
9, 32820, Note_on_c, 7, 50, 0
9, 32880, Note_on_c, 7, 55, 47
9, 33000, Note_on_c, 7, 55, 0
9, 33600, Note_on_c, 7, 50, 47
9, 33840, Note_on_c, 7, 50, 0
9, 33840, Note_on_c, 7, 52, 47
9, 34080, Note_on_c, 7, 52, 0
9, 34080, Note_on_c, 7, 48, 47
9, 34170, Note_on_c, 7, 48, 0
9, 34200, Note_on_c, 7, 48, 47
9, 34290, Note_on_c, 7, 48, 0
9, 34320, Note_on_c, 7, 50, 47
9, 34410, Note_on_c, 7, 50, 0
9, 34440, Note_on_c, 7, 50, 47
9, 34530, Note_on_c, 7, 50, 0
9, 34560, Note_on_c, 7, 55, 91
9, 34605, Note_on_c, 7, 55, 0
9, 34620, Note_on_c, 7, 55, 83
9, 34665, Note_on_c, 7, 55, 0
9, 34680, Note_on_c, 7, 55, 83
9, 34725, Note_on_c, 7, 55, 0
9, 34740, Note_on_c, 7, 55, 83
9, 34785, Note_on_c, 7, 55, 0
9, 34800, Note_on_c, 7, 55, 59
9, 34845, Note_on_c, 7, 55, 0
9, 34860, Note_on_c, 7, 55, 59
9, 34905, Note_on_c, 7, 55, 0
9, 34920, Note_on_c, 7, 55, 59
9, 34965, Note_on_c, 7, 55, 0
9, 34980, Note_on_c, 7, 55, 59
9, 35025, Note_on_c, 7, 55, 0
9, 35040, Note_on_c, 7, 55, 92
9, 35085, Note_on_c, 7, 55, 0
9, 35100, Note_on_c, 7, 55, 79
9, 35145, Note_on_c, 7, 55, 0
9, 35160, Note_on_c, 7, 55, 79
9, 35205, Note_on_c, 7, 55, 0
9, 35220, Note_on_c, 7, 55, 79
9, 35265, Note_on_c, 7, 55, 0
9, 35280, Note_on_c, 7, 55, 59
9, 35325, Note_on_c, 7, 55, 0
9, 35340, Note_on_c, 7, 55, 59
9, 35385, Note_on_c, 7, 55, 0
9, 35400, Note_on_c, 7, 55, 59
9, 35445, Note_on_c, 7, 55, 0
9, 35460, Note_on_c, 7, 55, 59
9, 35505, Note_on_c, 7, 55, 0
9, 35520, Note_on_c, 7, 55, 59
9, 35565, Note_on_c, 7, 55, 0
9, 35580, Note_on_c, 7, 55, 40
9, 35625, Note_on_c, 7, 55, 0
9, 35640, Note_on_c, 7, 55, 43
9, 35685, Note_on_c, 7, 55, 0
9, 35700, Note_on_c, 7, 55, 46
9, 35745, Note_on_c, 7, 55, 0
9, 35760, Note_on_c, 7, 55, 49
9, 35805, Note_on_c, 7, 55, 0
9, 35820, Note_on_c, 7, 55, 52
9, 35865, Note_on_c, 7, 55, 0
9, 35880, Note_on_c, 7, 55, 55
9, 35925, Note_on_c, 7, 55, 0
9, 35940, Note_on_c, 7, 55, 58
9, 35985, Note_on_c, 7, 55, 0
9, 36000, Note_on_c, 7, 55, 61
9, 36045, Note_on_c, 7, 55, 0
9, 36060, Note_on_c, 7, 55, 64
9, 36105, Note_on_c, 7, 55, 0
9, 36120, Note_on_c, 7, 54, 67
9, 36165, Note_on_c, 7, 54, 0
9, 36180, Note_on_c, 7, 54, 70
9, 36225, Note_on_c, 7, 54, 0
9, 36240, Note_on_c, 7, 55, 73
9, 36285, Note_on_c, 7, 55, 0
9, 36300, Note_on_c, 7, 55, 76
9, 36345, Note_on_c, 7, 55, 0
9, 36360, Note_on_c, 7, 52, 79
9, 36405, Note_on_c, 7, 52, 0
9, 36420, Note_on_c, 7, 52, 82
9, 36465, Note_on_c, 7, 52, 0
9, 36480, Note_on_c, 7, 50, 85
9, 36525, Note_on_c, 7, 50, 0
9, 36540, Note_on_c, 7, 50, 85
9, 36585, Note_on_c, 7, 50, 0
9, 36600, Note_on_c, 7, 50, 85
9, 36645, Note_on_c, 7, 50, 0
9, 36660, Note_on_c, 7, 50, 85
9, 36705, Note_on_c, 7, 50, 0
9, 36720, Note_on_c, 7, 50, 85
9, 36765, Note_on_c, 7, 50, 0
9, 36780, Note_on_c, 7, 50, 85
9, 36825, Note_on_c, 7, 50, 0
9, 36840, Note_on_c, 7, 50, 85
9, 36885, Note_on_c, 7, 50, 0
9, 36900, Note_on_c, 7, 50, 85
9, 36945, Note_on_c, 7, 50, 0
9, 36960, Note_on_c, 7, 50, 85
9, 37005, Note_on_c, 7, 50, 0
9, 37020, Note_on_c, 7, 50, 85
9, 37065, Note_on_c, 7, 50, 0
9, 37080, Note_on_c, 7, 50, 85
9, 37125, Note_on_c, 7, 50, 0
9, 37140, Note_on_c, 7, 50, 85
9, 37185, Note_on_c, 7, 50, 0
9, 37200, Note_on_c, 7, 50, 85
9, 37245, Note_on_c, 7, 50, 0
9, 37260, Note_on_c, 7, 50, 85
9, 37305, Note_on_c, 7, 50, 0
9, 37320, Note_on_c, 7, 50, 85
9, 37365, Note_on_c, 7, 50, 0
9, 37380, Note_on_c, 7, 50, 85
9, 37425, Note_on_c, 7, 50, 0
9, 37440, Note_on_c, 7, 50, 85
9, 37485, Note_on_c, 7, 50, 0
9, 37500, Note_on_c, 7, 52, 85
9, 37545, Note_on_c, 7, 52, 0
9, 37560, Note_on_c, 7, 54, 85
9, 37605, Note_on_c, 7, 54, 0
9, 37620, Note_on_c, 7, 52, 85
9, 37665, Note_on_c, 7, 52, 0
9, 37680, Note_on_c, 7, 50, 85
9, 37725, Note_on_c, 7, 50, 0
9, 37740, Note_on_c, 7, 52, 85
9, 37785, Note_on_c, 7, 52, 0
9, 37800, Note_on_c, 7, 54, 85
9, 37845, Note_on_c, 7, 54, 0
9, 37860, Note_on_c, 7, 50, 85
9, 37905, Note_on_c, 7, 50, 0
9, 37920, Note_on_c, 7, 55, 85
9, 37965, Note_on_c, 7, 55, 0
9, 37980, Note_on_c, 7, 57, 85
9, 38025, Note_on_c, 7, 57, 0
9, 38040, Note_on_c, 7, 59, 85
9, 38085, Note_on_c, 7, 59, 0
9, 38100, Note_on_c, 7, 57, 85
9, 38145, Note_on_c, 7, 57, 0
9, 38160, Note_on_c, 7, 55, 85
9, 38205, Note_on_c, 7, 55, 0
9, 38220, Note_on_c, 7, 57, 85
9, 38265, Note_on_c, 7, 57, 0
9, 38280, Note_on_c, 7, 59, 85
9, 38325, Note_on_c, 7, 59, 0
9, 38340, Note_on_c, 7, 56, 85
9, 38385, Note_on_c, 7, 56, 0
9, 38400, Note_on_c, 7, 57, 85
9, 38445, Note_on_c, 7, 57, 0
9, 38460, Note_on_c, 7, 57, 85
9, 38505, Note_on_c, 7, 57, 0
9, 38520, Note_on_c, 7, 57, 85
9, 38565, Note_on_c, 7, 57, 0
9, 38580, Note_on_c, 7, 57, 85
9, 38625, Note_on_c, 7, 57, 0
9, 38640, Note_on_c, 7, 57, 85
9, 38685, Note_on_c, 7, 57, 0
9, 38700, Note_on_c, 7, 57, 85
9, 38745, Note_on_c, 7, 57, 0
9, 38760, Note_on_c, 7, 57, 85
9, 38805, Note_on_c, 7, 57, 0
9, 38820, Note_on_c, 7, 57, 85
9, 38865, Note_on_c, 7, 57, 0
9, 38880, Note_on_c, 7, 57, 85
9, 38925, Note_on_c, 7, 57, 0
9, 38940, Note_on_c, 7, 45, 85
9, 38985, Note_on_c, 7, 45, 0
9, 39000, Note_on_c, 7, 45, 85
9, 39045, Note_on_c, 7, 45, 0
9, 39060, Note_on_c, 7, 45, 85
9, 39105, Note_on_c, 7, 45, 0
9, 39120, Note_on_c, 7, 45, 85
9, 39240, Note_on_c, 7, 45, 0
9, 39720, Note_on_c, 7, 51, 55
9, 39780, Note_on_c, 7, 51, 0
9, 39840, Note_on_c, 7, 52, 55
9, 39900, Note_on_c, 7, 52, 0
9, 39960, Note_on_c, 7, 50, 55
9, 40020, Note_on_c, 7, 50, 0
9, 40080, Note_on_c, 7, 49, 55
9, 40140, Note_on_c, 7, 49, 0
9, 40200, Note_on_c, 7, 45, 55
9, 40260, Note_on_c, 7, 45, 0
9, 40440, Note_on_c, 7, 46, 55
9, 40560, Note_on_c, 7, 46, 0
9, 40560, Note_on_c, 7, 47, 55
9, 40620, Note_on_c, 7, 47, 0
9, 40680, Note_on_c, 7, 43, 55
9, 40740, Note_on_c, 7, 43, 0
9, 40800, Note_on_c, 7, 45, 55
9, 40890, Note_on_c, 7, 45, 0
9, 40920, Note_on_c, 7, 57, 55
9, 41100, Note_on_c, 7, 57, 0
9, 41100, Note_on_c, 7, 56, 55
9, 41160, Note_on_c, 7, 56, 0
9, 41160, Note_on_c, 7, 55, 55
9, 41220, Note_on_c, 7, 55, 0
9, 41220, Note_on_c, 7, 52, 55
9, 41280, Note_on_c, 7, 52, 0
9, 41280, Note_on_c, 7, 50, 55
9, 41340, Note_on_c, 7, 50, 0
9, 41400, Note_on_c, 7, 52, 55
9, 41460, Note_on_c, 7, 52, 0
9, 41520, Note_on_c, 7, 54, 55
9, 41580, Note_on_c, 7, 54, 0
9, 41640, Note_on_c, 7, 51, 55
9, 41700, Note_on_c, 7, 51, 0
9, 41760, Note_on_c, 7, 52, 55
9, 41820, Note_on_c, 7, 52, 0
9, 41880, Note_on_c, 7, 50, 55
9, 41940, Note_on_c, 7, 50, 0
9, 42000, Note_on_c, 7, 49, 55
9, 42060, Note_on_c, 7, 49, 0
9, 42120, Note_on_c, 7, 45, 55
9, 42180, Note_on_c, 7, 45, 0
9, 42240, Note_on_c, 7, 47, 55
9, 42300, Note_on_c, 7, 47, 0
9, 42360, Note_on_c, 7, 55, 55
9, 42420, Note_on_c, 7, 55, 0
9, 42480, Note_on_c, 7, 57, 55
9, 42540, Note_on_c, 7, 57, 0
9, 42600, Note_on_c, 7, 45, 55
9, 42660, Note_on_c, 7, 45, 0
9, 42720, Note_on_c, 7, 50, 55
9, 42840, Note_on_c, 7, 50, 0
9, 43200, Note_on_c, 7, 45, 55
9, 43320, Note_on_c, 7, 45, 0
9, 43680, Note_on_c, 7, 50, 55
9, 43800, Note_on_c, 7, 50, 0
9, 44160, Note_on_c, 7, 45, 55
9, 44280, Note_on_c, 7, 45, 0
9, 44700, Note_on_c, 7, 50, 55
9, 44745, Note_on_c, 7, 50, 0
9, 44760, Note_on_c, 7, 54, 55
9, 44805, Note_on_c, 7, 54, 0
9, 44820, Note_on_c, 7, 52, 55
9, 44865, Note_on_c, 7, 52, 0
9, 44880, Note_on_c, 7, 51, 55
9, 44925, Note_on_c, 7, 51, 0
9, 44940, Note_on_c, 7, 47, 55
9, 44985, Note_on_c, 7, 47, 0
9, 45000, Note_on_c, 7, 49, 55
9, 45045, Note_on_c, 7, 49, 0
9, 45060, Note_on_c, 7, 50, 55
9, 45105, Note_on_c, 7, 50, 0
9, 45120, Note_on_c, 7, 52, 85
9, 45165, Note_on_c, 7, 52, 0
9, 45180, Note_on_c, 7, 55, 85
9, 45225, Note_on_c, 7, 55, 0
9, 45240, Note_on_c, 7, 52, 85
9, 45285, Note_on_c, 7, 52, 0
9, 45300, Note_on_c, 7, 50, 85
9, 45345, Note_on_c, 7, 50, 0
9, 45360, Note_on_c, 7, 49, 85
9, 45405, Note_on_c, 7, 49, 0
9, 45420, Note_on_c, 7, 45, 85
9, 45465, Note_on_c, 7, 45, 0
9, 45480, Note_on_c, 7, 47, 85
9, 45525, Note_on_c, 7, 47, 0
9, 45540, Note_on_c, 7, 49, 85
9, 45585, Note_on_c, 7, 49, 0
9, 45600, Note_on_c, 7, 50, 85
9, 45645, Note_on_c, 7, 50, 0
9, 45660, Note_on_c, 7, 50, 85
9, 45705, Note_on_c, 7, 50, 0
9, 45720, Note_on_c, 7, 52, 85
9, 45765, Note_on_c, 7, 52, 0
9, 45780, Note_on_c, 7, 54, 85
9, 45825, Note_on_c, 7, 54, 0
9, 45840, Note_on_c, 7, 55, 85
9, 45885, Note_on_c, 7, 55, 0
9, 45900, Note_on_c, 7, 55, 85
9, 45945, Note_on_c, 7, 55, 0
9, 45960, Note_on_c, 7, 55, 85
9, 46005, Note_on_c, 7, 55, 0
9, 46020, Note_on_c, 7, 55, 85
9, 46065, Note_on_c, 7, 55, 0
9, 46080, Note_on_c, 7, 57, 85
9, 46125, Note_on_c, 7, 57, 0
9, 46140, Note_on_c, 7, 57, 85
9, 46185, Note_on_c, 7, 57, 0
9, 46200, Note_on_c, 7, 57, 85
9, 46245, Note_on_c, 7, 57, 0
9, 46260, Note_on_c, 7, 57, 85
9, 46305, Note_on_c, 7, 57, 0
9, 46320, Note_on_c, 7, 45, 85
9, 46365, Note_on_c, 7, 45, 0
9, 46380, Note_on_c, 7, 45, 85
9, 46425, Note_on_c, 7, 45, 0
9, 46440, Note_on_c, 7, 45, 85
9, 46485, Note_on_c, 7, 45, 0
9, 46500, Note_on_c, 7, 45, 85
9, 46545, Note_on_c, 7, 45, 0
9, 46560, Note_on_c, 7, 50, 85
9, 46680, Note_on_c, 7, 50, 0
9, 47040, Note_on_c, 7, 45, 55
9, 47160, Note_on_c, 7, 45, 0
9, 47520, Note_on_c, 7, 50, 55
9, 47640, Note_on_c, 7, 50, 0
9, 48000, Note_on_c, 7, 45, 55
9, 48120, Note_on_c, 7, 45, 0
9, 48540, Note_on_c, 7, 50, 85
9, 48585, Note_on_c, 7, 50, 0
9, 48600, Note_on_c, 7, 54, 85
9, 48645, Note_on_c, 7, 54, 0
9, 48660, Note_on_c, 7, 52, 85
9, 48705, Note_on_c, 7, 52, 0
9, 48720, Note_on_c, 7, 51, 85
9, 48765, Note_on_c, 7, 51, 0
9, 48780, Note_on_c, 7, 47, 85
9, 48825, Note_on_c, 7, 47, 0
9, 48840, Note_on_c, 7, 49, 85
9, 48885, Note_on_c, 7, 49, 0
9, 48900, Note_on_c, 7, 50, 85
9, 48945, Note_on_c, 7, 50, 0
9, 48960, Note_on_c, 7, 52, 85
9, 49005, Note_on_c, 7, 52, 0
9, 49020, Note_on_c, 7, 55, 85
9, 49065, Note_on_c, 7, 55, 0
9, 49080, Note_on_c, 7, 52, 85
9, 49125, Note_on_c, 7, 52, 0
9, 49140, Note_on_c, 7, 50, 85
9, 49185, Note_on_c, 7, 50, 0
9, 49200, Note_on_c, 7, 49, 85
9, 49245, Note_on_c, 7, 49, 0
9, 49260, Note_on_c, 7, 45, 85
9, 49305, Note_on_c, 7, 45, 0
9, 49320, Note_on_c, 7, 47, 85
9, 49365, Note_on_c, 7, 47, 0
9, 49380, Note_on_c, 7, 49, 85
9, 49425, Note_on_c, 7, 49, 0
9, 49440, Note_on_c, 7, 50, 85
9, 49485, Note_on_c, 7, 50, 0
9, 49500, Note_on_c, 7, 50, 85
9, 49545, Note_on_c, 7, 50, 0
9, 49560, Note_on_c, 7, 52, 85
9, 49605, Note_on_c, 7, 52, 0
9, 49620, Note_on_c, 7, 54, 85
9, 49665, Note_on_c, 7, 54, 0
9, 49680, Note_on_c, 7, 55, 85
9, 49725, Note_on_c, 7, 55, 0
9, 49740, Note_on_c, 7, 55, 85
9, 49785, Note_on_c, 7, 55, 0
9, 49800, Note_on_c, 7, 55, 85
9, 49845, Note_on_c, 7, 55, 0
9, 49860, Note_on_c, 7, 55, 85
9, 49905, Note_on_c, 7, 55, 0
9, 49920, Note_on_c, 7, 57, 85
9, 49965, Note_on_c, 7, 57, 0
9, 49980, Note_on_c, 7, 57, 85
9, 50025, Note_on_c, 7, 57, 0
9, 50040, Note_on_c, 7, 57, 85
9, 50085, Note_on_c, 7, 57, 0
9, 50100, Note_on_c, 7, 57, 85
9, 50145, Note_on_c, 7, 57, 0
9, 50160, Note_on_c, 7, 45, 85
9, 50205, Note_on_c, 7, 45, 0
9, 50220, Note_on_c, 7, 45, 85
9, 50265, Note_on_c, 7, 45, 0
9, 50280, Note_on_c, 7, 45, 85
9, 50325, Note_on_c, 7, 45, 0
9, 50340, Note_on_c, 7, 45, 85
9, 50385, Note_on_c, 7, 45, 0
9, 50400, Note_on_c, 7, 50, 85
9, 50445, Note_on_c, 7, 50, 0
9, 50460, Note_on_c, 7, 45, 85
9, 50505, Note_on_c, 7, 45, 0
9, 50520, Note_on_c, 7, 47, 85
9, 50565, Note_on_c, 7, 47, 0
9, 50580, Note_on_c, 7, 49, 85
9, 50625, Note_on_c, 7, 49, 0
9, 50640, Note_on_c, 7, 50, 85
9, 50685, Note_on_c, 7, 50, 0
9, 50700, Note_on_c, 7, 50, 85
9, 50745, Note_on_c, 7, 50, 0
9, 50760, Note_on_c, 7, 52, 85
9, 50805, Note_on_c, 7, 52, 0
9, 50820, Note_on_c, 7, 52, 85
9, 50865, Note_on_c, 7, 52, 0
9, 50880, Note_on_c, 7, 54, 85
9, 50925, Note_on_c, 7, 54, 0
9, 50940, Note_on_c, 7, 49, 85
9, 50985, Note_on_c, 7, 49, 0
9, 51000, Note_on_c, 7, 50, 85
9, 51045, Note_on_c, 7, 50, 0
9, 51060, Note_on_c, 7, 52, 85
9, 51105, Note_on_c, 7, 52, 0
9, 51120, Note_on_c, 7, 54, 85
9, 51165, Note_on_c, 7, 54, 0
9, 51180, Note_on_c, 7, 54, 85
9, 51225, Note_on_c, 7, 54, 0
9, 51240, Note_on_c, 7, 55, 85
9, 51285, Note_on_c, 7, 55, 0
9, 51300, Note_on_c, 7, 55, 85
9, 51345, Note_on_c, 7, 55, 0
9, 51360, Note_on_c, 7, 57, 85
9, 51405, Note_on_c, 7, 57, 0
9, 51420, Note_on_c, 7, 57, 85
9, 51465, Note_on_c, 7, 57, 0
9, 51480, Note_on_c, 7, 58, 85
9, 51525, Note_on_c, 7, 58, 0
9, 51540, Note_on_c, 7, 58, 85
9, 51585, Note_on_c, 7, 58, 0
9, 51600, Note_on_c, 7, 59, 85
9, 51720, Note_on_c, 7, 59, 0
9, 51840, Note_on_c, 7, 55, 55
9, 52080, Note_on_c, 7, 55, 0
9, 52080, Note_on_c, 7, 57, 55
9, 52320, Note_on_c, 7, 57, 0
9, 52320, Note_on_c, 7, 50, 55
9, 52380, Note_on_c, 7, 50, 0
9, 52440, Note_on_c, 7, 50, 55
9, 52500, Note_on_c, 7, 50, 0
9, 52560, Note_on_c, 7, 50, 55
9, 52620, Note_on_c, 7, 50, 0
9, 52800, Note_on_c, 7, 50, 89
9, 52920, Note_on_c, 7, 50, 0
9, 52980, Note_on_c, 7, 45, 89
9, 53025, Note_on_c, 7, 45, 0
9, 53040, Note_on_c, 7, 50, 89
9, 53160, Note_on_c, 7, 50, 0
9, 53220, Note_on_c, 7, 45, 89
9, 53265, Note_on_c, 7, 45, 0
9, 53280, Note_on_c, 7, 50, 89
9, 53325, Note_on_c, 7, 50, 0
9, 53340, Note_on_c, 7, 45, 89
9, 53385, Note_on_c, 7, 45, 0
9, 53400, Note_on_c, 7, 50, 89
9, 53445, Note_on_c, 7, 50, 0
9, 53460, Note_on_c, 7, 54, 89
9, 53505, Note_on_c, 7, 54, 0
9, 53520, Note_on_c, 7, 57, 89
9, 53640, Note_on_c, 7, 57, 0
9, 53760, Note_on_c, 7, 57, 89
9, 53880, Note_on_c, 7, 57, 0
9, 53940, Note_on_c, 7, 54, 89
9, 53985, Note_on_c, 7, 54, 0
9, 54000, Note_on_c, 7, 57, 89
9, 54120, Note_on_c, 7, 57, 0
9, 54180, Note_on_c, 7, 54, 89
9, 54225, Note_on_c, 7, 54, 0
9, 54240, Note_on_c, 7, 57, 89
9, 54285, Note_on_c, 7, 57, 0
9, 54300, Note_on_c, 7, 54, 89
9, 54345, Note_on_c, 7, 54, 0
9, 54360, Note_on_c, 7, 51, 89
9, 54405, Note_on_c, 7, 51, 0
9, 54420, Note_on_c, 7, 54, 89
9, 54465, Note_on_c, 7, 54, 0
9, 54480, Note_on_c, 7, 47, 89
9, 54600, Note_on_c, 7, 47, 0
9, 54720, Note_on_c, 7, 48, 55
9, 54840, Note_on_c, 7, 48, 0
9, 55200, Note_on_c, 7, 43, 55
9, 55320, Note_on_c, 7, 43, 0
9, 55680, Note_on_c, 7, 48, 55
9, 55800, Note_on_c, 7, 48, 0
9, 56160, Note_on_c, 7, 43, 55
9, 56280, Note_on_c, 7, 43, 0
9, 56640, Note_on_c, 7, 48, 55
9, 56760, Note_on_c, 7, 48, 0
9, 57120, Note_on_c, 7, 52, 55
9, 57240, Note_on_c, 7, 52, 0
9, 57600, Note_on_c, 7, 45, 55
9, 57720, Note_on_c, 7, 45, 0
9, 58080, Note_on_c, 7, 50, 55
9, 58200, Note_on_c, 7, 50, 0
9, 58560, Note_on_c, 7, 51, 55
9, 59505, Note_on_c, 7, 51, 0
9, 59520, Note_on_c, 7, 50, 53
9, 59640, Note_on_c, 7, 50, 0
9, 59700, Note_on_c, 7, 50, 91
9, 59760, Note_on_c, 7, 50, 0
9, 59760, Note_on_c, 7, 52, 91
9, 59820, Note_on_c, 7, 52, 0
9, 59820, Note_on_c, 7, 54, 91
9, 59880, Note_on_c, 7, 54, 0
9, 59880, Note_on_c, 7, 55, 91
9, 59940, Note_on_c, 7, 55, 0
9, 59940, Note_on_c, 7, 57, 91
9, 60000, Note_on_c, 7, 57, 0
9, 60000, Note_on_c, 7, 60, 91
9, 60060, Note_on_c, 7, 60, 0
9, 60060, Note_on_c, 7, 58, 91
9, 60120, Note_on_c, 7, 58, 0
9, 60180, Note_on_c, 7, 54, 91
9, 60240, Note_on_c, 7, 54, 0
9, 60240, Note_on_c, 7, 55, 91
9, 60300, Note_on_c, 7, 55, 0
9, 60300, Note_on_c, 7, 57, 91
9, 60360, Note_on_c, 7, 57, 0
9, 60360, Note_on_c, 7, 58, 91
9, 60420, Note_on_c, 7, 58, 0
9, 60420, Note_on_c, 7, 61, 91
9, 60480, Note_on_c, 7, 61, 0
9, 60480, Note_on_c, 7, 64, 91
9, 60540, Note_on_c, 7, 64, 0
9, 60540, Note_on_c, 7, 62, 91
9, 60600, Note_on_c, 7, 62, 0
9, 61920, Note_on_c, 7, 50, 53
9, 62400, Note_on_c, 7, 50, 0
9, 62400, Note_on_c, 7, 55, 97
9, 62520, Note_on_c, 7, 55, 0
9, 62580, Note_on_c, 7, 50, 97
9, 62610, Note_on_c, 7, 50, 0
9, 62640, Note_on_c, 7, 55, 97
9, 62760, Note_on_c, 7, 55, 0
9, 62820, Note_on_c, 7, 50, 97
9, 62850, Note_on_c, 7, 50, 0
9, 62880, Note_on_c, 7, 55, 97
9, 62910, Note_on_c, 7, 55, 0
9, 62940, Note_on_c, 7, 50, 97
9, 62970, Note_on_c, 7, 50, 0
9, 63000, Note_on_c, 7, 55, 96
9, 63030, Note_on_c, 7, 55, 0
9, 63060, Note_on_c, 7, 59, 96
9, 63090, Note_on_c, 7, 59, 0
9, 63120, Note_on_c, 7, 62, 95
9, 63240, Note_on_c, 7, 62, 0
9, 63360, Note_on_c, 7, 60, 95
9, 63480, Note_on_c, 7, 60, 0
9, 63540, Note_on_c, 7, 57, 95
9, 63570, Note_on_c, 7, 57, 0
9, 63600, Note_on_c, 7, 60, 95
9, 63720, Note_on_c, 7, 60, 0
9, 63780, Note_on_c, 7, 57, 91
9, 63810, Note_on_c, 7, 57, 0
9, 63840, Note_on_c, 7, 60, 91
9, 63870, Note_on_c, 7, 60, 0
9, 63900, Note_on_c, 7, 57, 91
9, 63930, Note_on_c, 7, 57, 0
9, 63960, Note_on_c, 7, 54, 91
9, 63990, Note_on_c, 7, 54, 0
9, 64020, Note_on_c, 7, 57, 91
9, 64050, Note_on_c, 7, 57, 0
9, 64080, Note_on_c, 7, 50, 90
9, 64200, Note_on_c, 7, 50, 0
9, 64320, Note_on_c, 7, 55, 85
9, 64365, Note_on_c, 7, 55, 0
9, 64380, Note_on_c, 7, 55, 85
9, 64425, Note_on_c, 7, 55, 0
9, 64440, Note_on_c, 7, 55, 85
9, 64485, Note_on_c, 7, 55, 0
9, 64500, Note_on_c, 7, 55, 85
9, 64545, Note_on_c, 7, 55, 0
9, 64560, Note_on_c, 7, 55, 85
9, 64605, Note_on_c, 7, 55, 0
9, 64620, Note_on_c, 7, 55, 85
9, 64665, Note_on_c, 7, 55, 0
9, 64680, Note_on_c, 7, 55, 85
9, 64725, Note_on_c, 7, 55, 0
9, 64740, Note_on_c, 7, 55, 85
9, 64785, Note_on_c, 7, 55, 0
9, 64800, Note_on_c, 7, 55, 85
9, 64845, Note_on_c, 7, 55, 0
9, 64860, Note_on_c, 7, 55, 85
9, 64905, Note_on_c, 7, 55, 0
9, 64920, Note_on_c, 7, 55, 85
9, 64965, Note_on_c, 7, 55, 0
9, 64980, Note_on_c, 7, 55, 85
9, 65025, Note_on_c, 7, 55, 0
9, 65040, Note_on_c, 7, 55, 85
9, 65085, Note_on_c, 7, 55, 0
9, 65100, Note_on_c, 7, 55, 85
9, 65145, Note_on_c, 7, 55, 0
9, 65160, Note_on_c, 7, 55, 85
9, 65205, Note_on_c, 7, 55, 0
9, 65220, Note_on_c, 7, 55, 85
9, 65265, Note_on_c, 7, 55, 0
9, 65280, Note_on_c, 7, 55, 85
9, 65325, Note_on_c, 7, 55, 0
9, 65340, Note_on_c, 7, 55, 85
9, 65385, Note_on_c, 7, 55, 0
9, 65400, Note_on_c, 7, 55, 85
9, 65445, Note_on_c, 7, 55, 0
9, 65460, Note_on_c, 7, 55, 85
9, 65505, Note_on_c, 7, 55, 0
9, 65520, Note_on_c, 7, 55, 85
9, 65565, Note_on_c, 7, 55, 0
9, 65580, Note_on_c, 7, 55, 85
9, 65625, Note_on_c, 7, 55, 0
9, 65640, Note_on_c, 7, 55, 85
9, 65685, Note_on_c, 7, 55, 0
9, 65700, Note_on_c, 7, 55, 85
9, 65745, Note_on_c, 7, 55, 0
9, 65760, Note_on_c, 7, 55, 85
9, 65805, Note_on_c, 7, 55, 0
9, 65820, Note_on_c, 7, 55, 85
9, 65865, Note_on_c, 7, 55, 0
9, 65880, Note_on_c, 7, 55, 85
9, 65925, Note_on_c, 7, 55, 0
9, 65940, Note_on_c, 7, 55, 85
9, 65985, Note_on_c, 7, 55, 0
9, 66000, Note_on_c, 7, 55, 85
9, 66045, Note_on_c, 7, 55, 0
9, 66060, Note_on_c, 7, 55, 85
9, 66105, Note_on_c, 7, 55, 0
9, 66120, Note_on_c, 7, 55, 85
9, 66165, Note_on_c, 7, 55, 0
9, 66180, Note_on_c, 7, 55, 85
9, 66225, Note_on_c, 7, 55, 0
9, 66240, Note_on_c, 7, 55, 85
9, 66285, Note_on_c, 7, 55, 0
9, 66300, Note_on_c, 7, 55, 85
9, 66345, Note_on_c, 7, 55, 0
9, 66360, Note_on_c, 7, 57, 85
9, 66405, Note_on_c, 7, 57, 0
9, 66420, Note_on_c, 7, 57, 85
9, 66465, Note_on_c, 7, 57, 0
9, 66480, Note_on_c, 7, 59, 85
9, 66525, Note_on_c, 7, 59, 0
9, 66540, Note_on_c, 7, 59, 85
9, 66585, Note_on_c, 7, 59, 0
9, 66600, Note_on_c, 7, 54, 85
9, 66645, Note_on_c, 7, 54, 0
9, 66660, Note_on_c, 7, 54, 85
9, 66705, Note_on_c, 7, 54, 0
9, 66720, Note_on_c, 7, 55, 85
9, 66765, Note_on_c, 7, 55, 0
9, 66780, Note_on_c, 7, 55, 85
9, 66825, Note_on_c, 7, 55, 0
9, 66840, Note_on_c, 7, 57, 85
9, 66885, Note_on_c, 7, 57, 0
9, 66900, Note_on_c, 7, 57, 85
9, 66945, Note_on_c, 7, 57, 0
9, 66960, Note_on_c, 7, 59, 85
9, 67080, Note_on_c, 7, 59, 0
9, 67680, Note_on_c, 7, 50, 47
9, 67920, Note_on_c, 7, 50, 0
9, 67920, Note_on_c, 7, 52, 47
9, 68160, Note_on_c, 7, 52, 0
9, 68160, Note_on_c, 7, 48, 47
9, 68250, Note_on_c, 7, 48, 0
9, 68280, Note_on_c, 7, 48, 47
9, 68370, Note_on_c, 7, 48, 0
9, 68400, Note_on_c, 7, 50, 47
9, 68490, Note_on_c, 7, 50, 0
9, 68520, Note_on_c, 7, 50, 47
9, 68610, Note_on_c, 7, 50, 0
9, 68640, Note_on_c, 7, 47, 47
9, 68700, Note_on_c, 7, 47, 0
9, 68760, Note_on_c, 7, 50, 47
9, 68820, Note_on_c, 7, 50, 0
9, 68880, Note_on_c, 7, 55, 47
9, 69000, Note_on_c, 7, 55, 0
9, 69600, Note_on_c, 7, 50, 47
9, 69840, Note_on_c, 7, 50, 0
9, 69840, Note_on_c, 7, 52, 47
9, 70080, Note_on_c, 7, 52, 0
9, 70080, Note_on_c, 7, 48, 47
9, 70170, Note_on_c, 7, 48, 0
9, 70200, Note_on_c, 7, 48, 47
9, 70290, Note_on_c, 7, 48, 0
9, 70320, Note_on_c, 7, 50, 47
9, 70410, Note_on_c, 7, 50, 0
9, 70440, Note_on_c, 7, 50, 47
9, 70530, Note_on_c, 7, 50, 0
9, 70560, Note_on_c, 7, 55, 91
9, 70605, Note_on_c, 7, 55, 0
9, 70620, Note_on_c, 7, 55, 83
9, 70665, Note_on_c, 7, 55, 0
9, 70680, Note_on_c, 7, 55, 83
9, 70725, Note_on_c, 7, 55, 0
9, 70740, Note_on_c, 7, 55, 83
9, 70785, Note_on_c, 7, 55, 0
9, 70800, Note_on_c, 7, 55, 59
9, 70845, Note_on_c, 7, 55, 0
9, 70860, Note_on_c, 7, 55, 59
9, 70905, Note_on_c, 7, 55, 0
9, 70920, Note_on_c, 7, 55, 59
9, 70965, Note_on_c, 7, 55, 0
9, 70980, Note_on_c, 7, 55, 59
9, 71025, Note_on_c, 7, 55, 0
9, 71040, Note_on_c, 7, 55, 92
9, 71085, Note_on_c, 7, 55, 0
9, 71100, Note_on_c, 7, 55, 79
9, 71145, Note_on_c, 7, 55, 0
9, 71160, Note_on_c, 7, 55, 79
9, 71205, Note_on_c, 7, 55, 0
9, 71220, Note_on_c, 7, 55, 79
9, 71265, Note_on_c, 7, 55, 0
9, 71280, Note_on_c, 7, 55, 59
9, 71325, Note_on_c, 7, 55, 0
9, 71340, Note_on_c, 7, 55, 59
9, 71385, Note_on_c, 7, 55, 0
9, 71400, Note_on_c, 7, 55, 59
9, 71445, Note_on_c, 7, 55, 0
9, 71460, Note_on_c, 7, 55, 59
9, 71505, Note_on_c, 7, 55, 0
9, 71520, Note_on_c, 7, 55, 59
9, 71565, Note_on_c, 7, 55, 0
9, 71580, Note_on_c, 7, 55, 40
9, 71625, Note_on_c, 7, 55, 0
9, 71640, Note_on_c, 7, 55, 43
9, 71685, Note_on_c, 7, 55, 0
9, 71700, Note_on_c, 7, 55, 46
9, 71745, Note_on_c, 7, 55, 0
9, 71760, Note_on_c, 7, 55, 49
9, 71805, Note_on_c, 7, 55, 0
9, 71820, Note_on_c, 7, 55, 52
9, 71865, Note_on_c, 7, 55, 0
9, 71880, Note_on_c, 7, 55, 55
9, 71925, Note_on_c, 7, 55, 0
9, 71940, Note_on_c, 7, 55, 58
9, 71985, Note_on_c, 7, 55, 0
9, 72000, Note_on_c, 7, 55, 61
9, 72045, Note_on_c, 7, 55, 0
9, 72060, Note_on_c, 7, 55, 64
9, 72105, Note_on_c, 7, 55, 0
9, 72120, Note_on_c, 7, 54, 67
9, 72165, Note_on_c, 7, 54, 0
9, 72180, Note_on_c, 7, 54, 70
9, 72225, Note_on_c, 7, 54, 0
9, 72240, Note_on_c, 7, 55, 73
9, 72285, Note_on_c, 7, 55, 0
9, 72300, Note_on_c, 7, 55, 76
9, 72345, Note_on_c, 7, 55, 0
9, 72360, Note_on_c, 7, 52, 79
9, 72405, Note_on_c, 7, 52, 0
9, 72420, Note_on_c, 7, 52, 82
9, 72465, Note_on_c, 7, 52, 0
9, 72480, Note_on_c, 7, 50, 85
9, 72525, Note_on_c, 7, 50, 0
9, 72540, Note_on_c, 7, 50, 85
9, 72585, Note_on_c, 7, 50, 0
9, 72600, Note_on_c, 7, 50, 85
9, 72645, Note_on_c, 7, 50, 0
9, 72660, Note_on_c, 7, 50, 85
9, 72705, Note_on_c, 7, 50, 0
9, 72720, Note_on_c, 7, 50, 85
9, 72765, Note_on_c, 7, 50, 0
9, 72780, Note_on_c, 7, 50, 85
9, 72825, Note_on_c, 7, 50, 0
9, 72840, Note_on_c, 7, 50, 85
9, 72885, Note_on_c, 7, 50, 0
9, 72900, Note_on_c, 7, 50, 85
9, 72945, Note_on_c, 7, 50, 0
9, 72960, Note_on_c, 7, 50, 85
9, 73005, Note_on_c, 7, 50, 0
9, 73020, Note_on_c, 7, 50, 85
9, 73065, Note_on_c, 7, 50, 0
9, 73080, Note_on_c, 7, 50, 85
9, 73125, Note_on_c, 7, 50, 0
9, 73140, Note_on_c, 7, 50, 85
9, 73185, Note_on_c, 7, 50, 0
9, 73200, Note_on_c, 7, 50, 85
9, 73245, Note_on_c, 7, 50, 0
9, 73260, Note_on_c, 7, 50, 85
9, 73305, Note_on_c, 7, 50, 0
9, 73320, Note_on_c, 7, 50, 85
9, 73365, Note_on_c, 7, 50, 0
9, 73380, Note_on_c, 7, 50, 85
9, 73425, Note_on_c, 7, 50, 0
9, 73440, Note_on_c, 7, 50, 85
9, 73485, Note_on_c, 7, 50, 0
9, 73500, Note_on_c, 7, 50, 85
9, 73545, Note_on_c, 7, 50, 0
9, 73560, Note_on_c, 7, 50, 85
9, 73605, Note_on_c, 7, 50, 0
9, 73620, Note_on_c, 7, 50, 85
9, 73665, Note_on_c, 7, 50, 0
9, 73680, Note_on_c, 7, 50, 85
9, 73725, Note_on_c, 7, 50, 0
9, 73740, Note_on_c, 7, 50, 85
9, 73785, Note_on_c, 7, 50, 0
9, 73800, Note_on_c, 7, 50, 85
9, 73845, Note_on_c, 7, 50, 0
9, 73860, Note_on_c, 7, 50, 85
9, 73905, Note_on_c, 7, 50, 0
9, 73920, Note_on_c, 7, 50, 85
9, 73965, Note_on_c, 7, 50, 0
9, 73980, Note_on_c, 7, 50, 85
9, 74025, Note_on_c, 7, 50, 0
9, 74040, Note_on_c, 7, 50, 85
9, 74085, Note_on_c, 7, 50, 0
9, 74100, Note_on_c, 7, 50, 85
9, 74145, Note_on_c, 7, 50, 0
9, 74160, Note_on_c, 7, 50, 85
9, 74280, Note_on_c, 7, 50, 0
9, 74760, Note_on_c, 7, 56, 55
9, 74820, Note_on_c, 7, 56, 0
9, 74880, Note_on_c, 7, 57, 55
9, 74940, Note_on_c, 7, 57, 0
9, 75000, Note_on_c, 7, 55, 55
9, 75060, Note_on_c, 7, 55, 0
9, 75120, Note_on_c, 7, 54, 55
9, 75180, Note_on_c, 7, 54, 0
9, 75240, Note_on_c, 7, 50, 55
9, 75300, Note_on_c, 7, 50, 0
9, 75480, Note_on_c, 7, 51, 55
9, 75600, Note_on_c, 7, 51, 0
9, 75600, Note_on_c, 7, 52, 55
9, 75660, Note_on_c, 7, 52, 0
9, 75720, Note_on_c, 7, 48, 55
9, 75780, Note_on_c, 7, 48, 0
9, 75840, Note_on_c, 7, 50, 55
9, 75930, Note_on_c, 7, 50, 0
9, 75960, Note_on_c, 7, 62, 55
9, 76140, Note_on_c, 7, 62, 0
9, 76140, Note_on_c, 7, 61, 55
9, 76200, Note_on_c, 7, 61, 0
9, 76200, Note_on_c, 7, 60, 55
9, 76260, Note_on_c, 7, 60, 0
9, 76260, Note_on_c, 7, 57, 55
9, 76320, Note_on_c, 7, 57, 0
9, 76320, Note_on_c, 7, 55, 55
9, 76380, Note_on_c, 7, 55, 0
9, 76440, Note_on_c, 7, 57, 55
9, 76500, Note_on_c, 7, 57, 0
9, 76560, Note_on_c, 7, 59, 55
9, 76620, Note_on_c, 7, 59, 0
9, 76680, Note_on_c, 7, 56, 55
9, 76740, Note_on_c, 7, 56, 0
9, 76800, Note_on_c, 7, 57, 55
9, 76860, Note_on_c, 7, 57, 0
9, 76920, Note_on_c, 7, 55, 55
9, 76980, Note_on_c, 7, 55, 0
9, 77040, Note_on_c, 7, 54, 55
9, 77100, Note_on_c, 7, 54, 0
9, 77160, Note_on_c, 7, 50, 55
9, 77220, Note_on_c, 7, 50, 0
9, 77280, Note_on_c, 7, 52, 55
9, 77340, Note_on_c, 7, 52, 0
9, 77400, Note_on_c, 7, 60, 55
9, 77460, Note_on_c, 7, 60, 0
9, 77520, Note_on_c, 7, 62, 55
9, 77580, Note_on_c, 7, 62, 0
9, 77640, Note_on_c, 7, 50, 55
9, 77700, Note_on_c, 7, 50, 0
9, 77760, Note_on_c, 7, 43, 55
9, 77880, Note_on_c, 7, 43, 0
9, 78240, Note_on_c, 7, 50, 55
9, 78360, Note_on_c, 7, 50, 0
9, 78720, Note_on_c, 7, 43, 55
9, 78840, Note_on_c, 7, 43, 0
9, 79200, Note_on_c, 7, 50, 55
9, 79320, Note_on_c, 7, 50, 0
9, 79740, Note_on_c, 7, 55, 55
9, 79785, Note_on_c, 7, 55, 0
9, 79800, Note_on_c, 7, 59, 55
9, 79845, Note_on_c, 7, 59, 0
9, 79860, Note_on_c, 7, 57, 55
9, 79905, Note_on_c, 7, 57, 0
9, 79920, Note_on_c, 7, 56, 55
9, 79965, Note_on_c, 7, 56, 0
9, 79980, Note_on_c, 7, 52, 55
9, 80025, Note_on_c, 7, 52, 0
9, 80040, Note_on_c, 7, 54, 55
9, 80085, Note_on_c, 7, 54, 0
9, 80100, Note_on_c, 7, 55, 55
9, 80145, Note_on_c, 7, 55, 0
9, 80160, Note_on_c, 7, 57, 85
9, 80205, Note_on_c, 7, 57, 0
9, 80220, Note_on_c, 7, 60, 85
9, 80265, Note_on_c, 7, 60, 0
9, 80280, Note_on_c, 7, 57, 85
9, 80325, Note_on_c, 7, 57, 0
9, 80340, Note_on_c, 7, 55, 85
9, 80385, Note_on_c, 7, 55, 0
9, 80400, Note_on_c, 7, 54, 85
9, 80445, Note_on_c, 7, 54, 0
9, 80460, Note_on_c, 7, 50, 85
9, 80505, Note_on_c, 7, 50, 0
9, 80520, Note_on_c, 7, 52, 85
9, 80565, Note_on_c, 7, 52, 0
9, 80580, Note_on_c, 7, 54, 85
9, 80625, Note_on_c, 7, 54, 0
9, 80640, Note_on_c, 7, 55, 85
9, 80685, Note_on_c, 7, 55, 0
9, 80700, Note_on_c, 7, 55, 85
9, 80745, Note_on_c, 7, 55, 0
9, 80760, Note_on_c, 7, 57, 85
9, 80805, Note_on_c, 7, 57, 0
9, 80820, Note_on_c, 7, 59, 85
9, 80865, Note_on_c, 7, 59, 0
9, 80880, Note_on_c, 7, 60, 85
9, 80925, Note_on_c, 7, 60, 0
9, 80940, Note_on_c, 7, 60, 85
9, 80985, Note_on_c, 7, 60, 0
9, 81000, Note_on_c, 7, 60, 85
9, 81045, Note_on_c, 7, 60, 0
9, 81060, Note_on_c, 7, 60, 85
9, 81105, Note_on_c, 7, 60, 0
9, 81120, Note_on_c, 7, 62, 85
9, 81165, Note_on_c, 7, 62, 0
9, 81180, Note_on_c, 7, 62, 85
9, 81225, Note_on_c, 7, 62, 0
9, 81240, Note_on_c, 7, 62, 85
9, 81285, Note_on_c, 7, 62, 0
9, 81300, Note_on_c, 7, 62, 85
9, 81345, Note_on_c, 7, 62, 0
9, 81360, Note_on_c, 7, 50, 85
9, 81405, Note_on_c, 7, 50, 0
9, 81420, Note_on_c, 7, 50, 85
9, 81465, Note_on_c, 7, 50, 0
9, 81480, Note_on_c, 7, 50, 85
9, 81525, Note_on_c, 7, 50, 0
9, 81540, Note_on_c, 7, 50, 85
9, 81585, Note_on_c, 7, 50, 0
9, 81600, Note_on_c, 7, 55, 85
9, 81720, Note_on_c, 7, 55, 0
9, 82080, Note_on_c, 7, 50, 55
9, 82200, Note_on_c, 7, 50, 0
9, 82560, Note_on_c, 7, 55, 55
9, 82680, Note_on_c, 7, 55, 0
9, 83040, Note_on_c, 7, 50, 55
9, 83160, Note_on_c, 7, 50, 0
9, 83580, Note_on_c, 7, 55, 85
9, 83625, Note_on_c, 7, 55, 0
9, 83640, Note_on_c, 7, 59, 85
9, 83685, Note_on_c, 7, 59, 0
9, 83700, Note_on_c, 7, 57, 85
9, 83745, Note_on_c, 7, 57, 0
9, 83760, Note_on_c, 7, 56, 85
9, 83805, Note_on_c, 7, 56, 0
9, 83820, Note_on_c, 7, 52, 85
9, 83865, Note_on_c, 7, 52, 0
9, 83880, Note_on_c, 7, 54, 85
9, 83925, Note_on_c, 7, 54, 0
9, 83940, Note_on_c, 7, 55, 85
9, 83985, Note_on_c, 7, 55, 0
9, 84000, Note_on_c, 7, 57, 85
9, 84045, Note_on_c, 7, 57, 0
9, 84060, Note_on_c, 7, 60, 85
9, 84105, Note_on_c, 7, 60, 0
9, 84120, Note_on_c, 7, 57, 85
9, 84165, Note_on_c, 7, 57, 0
9, 84180, Note_on_c, 7, 55, 85
9, 84225, Note_on_c, 7, 55, 0
9, 84240, Note_on_c, 7, 54, 85
9, 84285, Note_on_c, 7, 54, 0
9, 84300, Note_on_c, 7, 50, 85
9, 84345, Note_on_c, 7, 50, 0
9, 84360, Note_on_c, 7, 52, 85
9, 84405, Note_on_c, 7, 52, 0
9, 84420, Note_on_c, 7, 54, 85
9, 84465, Note_on_c, 7, 54, 0
9, 84480, Note_on_c, 7, 55, 85
9, 84525, Note_on_c, 7, 55, 0
9, 84540, Note_on_c, 7, 55, 85
9, 84585, Note_on_c, 7, 55, 0
9, 84600, Note_on_c, 7, 57, 85
9, 84645, Note_on_c, 7, 57, 0
9, 84660, Note_on_c, 7, 59, 85
9, 84705, Note_on_c, 7, 59, 0
9, 84720, Note_on_c, 7, 60, 85
9, 84765, Note_on_c, 7, 60, 0
9, 84780, Note_on_c, 7, 60, 85
9, 84825, Note_on_c, 7, 60, 0
9, 84840, Note_on_c, 7, 60, 85
9, 84885, Note_on_c, 7, 60, 0
9, 84900, Note_on_c, 7, 60, 85
9, 84945, Note_on_c, 7, 60, 0
9, 84960, Note_on_c, 7, 62, 85
9, 85005, Note_on_c, 7, 62, 0
9, 85020, Note_on_c, 7, 62, 85
9, 85065, Note_on_c, 7, 62, 0
9, 85080, Note_on_c, 7, 62, 85
9, 85125, Note_on_c, 7, 62, 0
9, 85140, Note_on_c, 7, 62, 85
9, 85185, Note_on_c, 7, 62, 0
9, 85200, Note_on_c, 7, 50, 85
9, 85245, Note_on_c, 7, 50, 0
9, 85260, Note_on_c, 7, 50, 85
9, 85305, Note_on_c, 7, 50, 0
9, 85320, Note_on_c, 7, 50, 85
9, 85365, Note_on_c, 7, 50, 0
9, 85380, Note_on_c, 7, 50, 85
9, 85425, Note_on_c, 7, 50, 0
9, 85440, Note_on_c, 7, 55, 85
9, 85485, Note_on_c, 7, 55, 0
9, 85500, Note_on_c, 7, 50, 85
9, 85545, Note_on_c, 7, 50, 0
9, 85560, Note_on_c, 7, 52, 85
9, 85605, Note_on_c, 7, 52, 0
9, 85620, Note_on_c, 7, 54, 85
9, 85665, Note_on_c, 7, 54, 0
9, 85680, Note_on_c, 7, 55, 85
9, 85725, Note_on_c, 7, 55, 0
9, 85740, Note_on_c, 7, 55, 85
9, 85785, Note_on_c, 7, 55, 0
9, 85800, Note_on_c, 7, 57, 85
9, 85845, Note_on_c, 7, 57, 0
9, 85860, Note_on_c, 7, 57, 85
9, 85905, Note_on_c, 7, 57, 0
9, 85920, Note_on_c, 7, 59, 85
9, 85965, Note_on_c, 7, 59, 0
9, 85980, Note_on_c, 7, 54, 85
9, 86025, Note_on_c, 7, 54, 0
9, 86040, Note_on_c, 7, 55, 85
9, 86085, Note_on_c, 7, 55, 0
9, 86100, Note_on_c, 7, 57, 85
9, 86145, Note_on_c, 7, 57, 0
9, 86160, Note_on_c, 7, 59, 85
9, 86205, Note_on_c, 7, 59, 0
9, 86220, Note_on_c, 7, 59, 85
9, 86265, Note_on_c, 7, 59, 0
9, 86280, Note_on_c, 7, 60, 85
9, 86325, Note_on_c, 7, 60, 0
9, 86340, Note_on_c, 7, 60, 85
9, 86385, Note_on_c, 7, 60, 0
9, 86400, Note_on_c, 7, 62, 85
9, 86445, Note_on_c, 7, 62, 0
9, 86460, Note_on_c, 7, 62, 85
9, 86505, Note_on_c, 7, 62, 0
9, 86520, Note_on_c, 7, 63, 85
9, 86565, Note_on_c, 7, 63, 0
9, 86580, Note_on_c, 7, 63, 85
9, 86625, Note_on_c, 7, 63, 0
9, 86640, Note_on_c, 7, 64, 85
9, 86760, Note_on_c, 7, 64, 0
9, 86880, Note_on_c, 7, 48, 70
9, 87120, Note_on_c, 7, 48, 0
9, 87120, Note_on_c, 7, 50, 70
9, 87360, Note_on_c, 7, 50, 0
9, 87360, Note_on_c, 7, 43, 70
9, 87480, Note_on_c, 7, 43, 0
9, 87840, Note_on_c, 7, 48, 70
9, 88080, Note_on_c, 7, 48, 0
9, 88080, Note_on_c, 7, 50, 70
9, 88320, Note_on_c, 7, 50, 0
9, 88320, Note_on_c, 7, 43, 70
9, 88440, Note_on_c, 7, 43, 0
9, 88800, Note_on_c, 7, 48, 80
9, 88920, Note_on_c, 7, 48, 0
9, 89040, Note_on_c, 7, 50, 109
9, 89160, Note_on_c, 7, 50, 0
9, 89280, Note_on_c, 7, 43, 99
9, 89325, Note_on_c, 7, 43, 0
9, 89340, Note_on_c, 7, 43, 95
9, 89385, Note_on_c, 7, 43, 0
9, 89400, Note_on_c, 7, 43, 93
9, 89445, Note_on_c, 7, 43, 0
9, 89460, Note_on_c, 7, 43, 93
9, 89505, Note_on_c, 7, 43, 0
9, 89520, Note_on_c, 7, 43, 93
9, 89565, Note_on_c, 7, 43, 0
9, 89580, Note_on_c, 7, 43, 94
9, 89625, Note_on_c, 7, 43, 0
9, 89640, Note_on_c, 7, 43, 94
9, 89685, Note_on_c, 7, 43, 0
9, 89700, Note_on_c, 7, 43, 94
9, 89745, Note_on_c, 7, 43, 0
9, 89760, Note_on_c, 7, 43, 94
9, 89805, Note_on_c, 7, 43, 0
9, 89820, Note_on_c, 7, 43, 94
9, 89865, Note_on_c, 7, 43, 0
9, 89880, Note_on_c, 7, 43, 94
9, 89925, Note_on_c, 7, 43, 0
9, 89940, Note_on_c, 7, 43, 94
9, 89985, Note_on_c, 7, 43, 0
9, 90000, Note_on_c, 7, 43, 94
9, 90045, Note_on_c, 7, 43, 0
9, 90060, Note_on_c, 7, 43, 94
9, 90105, Note_on_c, 7, 43, 0
9, 90120, Note_on_c, 7, 43, 94
9, 90165, Note_on_c, 7, 43, 0
9, 90180, Note_on_c, 7, 43, 94
9, 90225, Note_on_c, 7, 43, 0
9, 90240, Note_on_c, 7, 43, 94
9, 90285, Note_on_c, 7, 43, 0
9, 90300, Note_on_c, 7, 43, 94
9, 90345, Note_on_c, 7, 43, 0
9, 90360, Note_on_c, 7, 43, 94
9, 90405, Note_on_c, 7, 43, 0
9, 90420, Note_on_c, 7, 43, 94
9, 90465, Note_on_c, 7, 43, 0
9, 90480, Note_on_c, 7, 43, 94
9, 90525, Note_on_c, 7, 43, 0
9, 90540, Note_on_c, 7, 43, 94
9, 90585, Note_on_c, 7, 43, 0
9, 90600, Note_on_c, 7, 43, 94
9, 90645, Note_on_c, 7, 43, 0
9, 90660, Note_on_c, 7, 43, 94
9, 90705, Note_on_c, 7, 43, 0
9, 90720, Note_on_c, 7, 43, 94
9, 90765, Note_on_c, 7, 43, 0
9, 90780, Note_on_c, 7, 43, 94
9, 90825, Note_on_c, 7, 43, 0
9, 90840, Note_on_c, 7, 43, 94
9, 90885, Note_on_c, 7, 43, 0
9, 90900, Note_on_c, 7, 43, 94
9, 90945, Note_on_c, 7, 43, 0
9, 90960, Note_on_c, 7, 43, 94
9, 91005, Note_on_c, 7, 43, 0
9, 91020, Note_on_c, 7, 43, 94
9, 91065, Note_on_c, 7, 43, 0
9, 91080, Note_on_c, 7, 43, 94
9, 91125, Note_on_c, 7, 43, 0
9, 91140, Note_on_c, 7, 43, 94
9, 91185, Note_on_c, 7, 43, 0
9, 91200, Note_on_c, 7, 43, 94
9, 91245, Note_on_c, 7, 43, 0
9, 91260, Note_on_c, 7, 47, 96
9, 91305, Note_on_c, 7, 47, 0
9, 91320, Note_on_c, 7, 50, 98
9, 91365, Note_on_c, 7, 50, 0
9, 91380, Note_on_c, 7, 55, 98
9, 91425, Note_on_c, 7, 55, 0
9, 91440, Note_on_c, 7, 59, 97
9, 91485, Note_on_c, 7, 59, 0
9, 91500, Note_on_c, 7, 55, 93
9, 91545, Note_on_c, 7, 55, 0
9, 91560, Note_on_c, 7, 62, 92
9, 91605, Note_on_c, 7, 62, 0
9, 91620, Note_on_c, 7, 59, 93
9, 91665, Note_on_c, 7, 59, 0
9, 91680, Note_on_c, 7, 55, 94
9, 91780, Note_on_c, 7, 55, 0
9, 91800, Note_on_c, 7, 43, 94
9, 91860, Note_on_c, 7, 43, 0
9, 91890, Note_on_c, 7, 43, 93
9, 91905, Note_on_c, 7, 43, 0
9, 91920, Note_on_c, 7, 43, 92
9, 92040, Note_on_c, 7, 43, 0
9, 92040, End_track
10, 0, Start_track
10, 0, MIDI_port, 0
10, 0, Title_t, "by"
10, 0, Program_c, 8, 41
10, 0, Control_c, 8, 7, 122
10, 0, Control_c, 8, 10, 85
10, 0, Note_on_c, 8, 43, 85
10, 120, Note_on_c, 8, 43, 0
10, 180, Note_on_c, 8, 38, 85
10, 210, Note_on_c, 8, 38, 0
10, 240, Note_on_c, 8, 43, 85
10, 360, Note_on_c, 8, 43, 0
10, 420, Note_on_c, 8, 38, 85
10, 450, Note_on_c, 8, 38, 0
10, 480, Note_on_c, 8, 43, 85
10, 510, Note_on_c, 8, 43, 0
10, 540, Note_on_c, 8, 38, 85
10, 570, Note_on_c, 8, 38, 0
10, 600, Note_on_c, 8, 43, 85
10, 630, Note_on_c, 8, 43, 0
10, 660, Note_on_c, 8, 47, 85
10, 690, Note_on_c, 8, 47, 0
10, 720, Note_on_c, 8, 50, 85
10, 840, Note_on_c, 8, 50, 0
10, 960, Note_on_c, 8, 48, 85
10, 1080, Note_on_c, 8, 48, 0
10, 1140, Note_on_c, 8, 45, 85
10, 1170, Note_on_c, 8, 45, 0
10, 1200, Note_on_c, 8, 48, 85
10, 1320, Note_on_c, 8, 48, 0
10, 1380, Note_on_c, 8, 45, 85
10, 1410, Note_on_c, 8, 45, 0
10, 1440, Note_on_c, 8, 48, 85
10, 1470, Note_on_c, 8, 48, 0
10, 1500, Note_on_c, 8, 45, 85
10, 1530, Note_on_c, 8, 45, 0
10, 1560, Note_on_c, 8, 42, 85
10, 1590, Note_on_c, 8, 42, 0
10, 1620, Note_on_c, 8, 45, 85
10, 1650, Note_on_c, 8, 45, 0
10, 1680, Note_on_c, 8, 38, 85
10, 1800, Note_on_c, 8, 38, 0
10, 1920, Note_on_c, 8, 43, 85
10, 1965, Note_on_c, 8, 43, 0
10, 1980, Note_on_c, 8, 43, 85
10, 2025, Note_on_c, 8, 43, 0
10, 2040, Note_on_c, 8, 43, 85
10, 2085, Note_on_c, 8, 43, 0
10, 2100, Note_on_c, 8, 43, 85
10, 2145, Note_on_c, 8, 43, 0
10, 2160, Note_on_c, 8, 43, 85
10, 2205, Note_on_c, 8, 43, 0
10, 2220, Note_on_c, 8, 43, 85
10, 2265, Note_on_c, 8, 43, 0
10, 2280, Note_on_c, 8, 43, 85
10, 2325, Note_on_c, 8, 43, 0
10, 2340, Note_on_c, 8, 43, 85
10, 2385, Note_on_c, 8, 43, 0
10, 2400, Note_on_c, 8, 43, 85
10, 2445, Note_on_c, 8, 43, 0
10, 2460, Note_on_c, 8, 43, 85
10, 2505, Note_on_c, 8, 43, 0
10, 2520, Note_on_c, 8, 43, 85
10, 2565, Note_on_c, 8, 43, 0
10, 2580, Note_on_c, 8, 43, 85
10, 2625, Note_on_c, 8, 43, 0
10, 2640, Note_on_c, 8, 43, 85
10, 2685, Note_on_c, 8, 43, 0
10, 2700, Note_on_c, 8, 43, 85
10, 2745, Note_on_c, 8, 43, 0
10, 2760, Note_on_c, 8, 43, 85
10, 2805, Note_on_c, 8, 43, 0
10, 2820, Note_on_c, 8, 43, 85
10, 2865, Note_on_c, 8, 43, 0
10, 2880, Note_on_c, 8, 43, 85
10, 2925, Note_on_c, 8, 43, 0
10, 2940, Note_on_c, 8, 43, 85
10, 2985, Note_on_c, 8, 43, 0
10, 3000, Note_on_c, 8, 43, 85
10, 3045, Note_on_c, 8, 43, 0
10, 3060, Note_on_c, 8, 43, 85
10, 3105, Note_on_c, 8, 43, 0
10, 3120, Note_on_c, 8, 43, 85
10, 3165, Note_on_c, 8, 43, 0
10, 3180, Note_on_c, 8, 43, 85
10, 3225, Note_on_c, 8, 43, 0
10, 3240, Note_on_c, 8, 43, 85
10, 3285, Note_on_c, 8, 43, 0
10, 3300, Note_on_c, 8, 43, 85
10, 3345, Note_on_c, 8, 43, 0
10, 3360, Note_on_c, 8, 43, 85
10, 3405, Note_on_c, 8, 43, 0
10, 3420, Note_on_c, 8, 43, 85
10, 3465, Note_on_c, 8, 43, 0
10, 3480, Note_on_c, 8, 43, 85
10, 3525, Note_on_c, 8, 43, 0
10, 3540, Note_on_c, 8, 43, 85
10, 3585, Note_on_c, 8, 43, 0
10, 3600, Note_on_c, 8, 43, 85
10, 3645, Note_on_c, 8, 43, 0
10, 3660, Note_on_c, 8, 43, 85
10, 3705, Note_on_c, 8, 43, 0
10, 3720, Note_on_c, 8, 43, 85
10, 3765, Note_on_c, 8, 43, 0
10, 3780, Note_on_c, 8, 43, 85
10, 3825, Note_on_c, 8, 43, 0
10, 3840, Note_on_c, 8, 43, 85
10, 3885, Note_on_c, 8, 43, 0
10, 3900, Note_on_c, 8, 43, 85
10, 3945, Note_on_c, 8, 43, 0
10, 3960, Note_on_c, 8, 45, 85
10, 4005, Note_on_c, 8, 45, 0
10, 4020, Note_on_c, 8, 45, 85
10, 4065, Note_on_c, 8, 45, 0
10, 4080, Note_on_c, 8, 47, 85
10, 4125, Note_on_c, 8, 47, 0
10, 4140, Note_on_c, 8, 47, 85
10, 4185, Note_on_c, 8, 47, 0
10, 4200, Note_on_c, 8, 42, 85
10, 4245, Note_on_c, 8, 42, 0
10, 4260, Note_on_c, 8, 42, 85
10, 4305, Note_on_c, 8, 42, 0
10, 4320, Note_on_c, 8, 43, 85
10, 4365, Note_on_c, 8, 43, 0
10, 4380, Note_on_c, 8, 43, 85
10, 4425, Note_on_c, 8, 43, 0
10, 4440, Note_on_c, 8, 45, 85
10, 4485, Note_on_c, 8, 45, 0
10, 4500, Note_on_c, 8, 45, 85
10, 4545, Note_on_c, 8, 45, 0
10, 4560, Note_on_c, 8, 47, 85
10, 4680, Note_on_c, 8, 47, 0
10, 5280, Note_on_c, 8, 38, 47
10, 5520, Note_on_c, 8, 38, 0
10, 5520, Note_on_c, 8, 40, 47
10, 5760, Note_on_c, 8, 40, 0
10, 5760, Note_on_c, 8, 36, 47
10, 5850, Note_on_c, 8, 36, 0
10, 5880, Note_on_c, 8, 36, 47
10, 5970, Note_on_c, 8, 36, 0
10, 6000, Note_on_c, 8, 38, 47
10, 6090, Note_on_c, 8, 38, 0
10, 6120, Note_on_c, 8, 38, 47
10, 6210, Note_on_c, 8, 38, 0
10, 6240, Note_on_c, 8, 35, 47
10, 6300, Note_on_c, 8, 35, 0
10, 6360, Note_on_c, 8, 38, 47
10, 6420, Note_on_c, 8, 38, 0
10, 6480, Note_on_c, 8, 43, 47
10, 6600, Note_on_c, 8, 43, 0
10, 7200, Note_on_c, 8, 38, 47
10, 7440, Note_on_c, 8, 38, 0
10, 7440, Note_on_c, 8, 40, 47
10, 7680, Note_on_c, 8, 40, 0
10, 7680, Note_on_c, 8, 36, 47
10, 7770, Note_on_c, 8, 36, 0
10, 7800, Note_on_c, 8, 36, 47
10, 7890, Note_on_c, 8, 36, 0
10, 7920, Note_on_c, 8, 38, 47
10, 8010, Note_on_c, 8, 38, 0
10, 8040, Note_on_c, 8, 38, 47
10, 8130, Note_on_c, 8, 38, 0
10, 8160, Note_on_c, 8, 43, 91
10, 8205, Note_on_c, 8, 43, 0
10, 8220, Note_on_c, 8, 43, 83
10, 8265, Note_on_c, 8, 43, 0
10, 8280, Note_on_c, 8, 43, 83
10, 8325, Note_on_c, 8, 43, 0
10, 8340, Note_on_c, 8, 43, 83
10, 8385, Note_on_c, 8, 43, 0
10, 8400, Note_on_c, 8, 43, 59
10, 8445, Note_on_c, 8, 43, 0
10, 8460, Note_on_c, 8, 43, 59
10, 8505, Note_on_c, 8, 43, 0
10, 8520, Note_on_c, 8, 43, 59
10, 8565, Note_on_c, 8, 43, 0
10, 8580, Note_on_c, 8, 43, 59
10, 8625, Note_on_c, 8, 43, 0
10, 8640, Note_on_c, 8, 43, 92
10, 8685, Note_on_c, 8, 43, 0
10, 8700, Note_on_c, 8, 43, 79
10, 8745, Note_on_c, 8, 43, 0
10, 8760, Note_on_c, 8, 43, 79
10, 8805, Note_on_c, 8, 43, 0
10, 8820, Note_on_c, 8, 43, 79
10, 8865, Note_on_c, 8, 43, 0
10, 8880, Note_on_c, 8, 43, 59
10, 8925, Note_on_c, 8, 43, 0
10, 8940, Note_on_c, 8, 43, 59
10, 8985, Note_on_c, 8, 43, 0
10, 9000, Note_on_c, 8, 43, 59
10, 9045, Note_on_c, 8, 43, 0
10, 9060, Note_on_c, 8, 43, 59
10, 9105, Note_on_c, 8, 43, 0
10, 9120, Note_on_c, 8, 43, 59
10, 9165, Note_on_c, 8, 43, 0
10, 9180, Note_on_c, 8, 43, 40
10, 9225, Note_on_c, 8, 43, 0
10, 9240, Note_on_c, 8, 43, 43
10, 9285, Note_on_c, 8, 43, 0
10, 9300, Note_on_c, 8, 43, 46
10, 9345, Note_on_c, 8, 43, 0
10, 9360, Note_on_c, 8, 43, 49
10, 9405, Note_on_c, 8, 43, 0
10, 9420, Note_on_c, 8, 43, 52
10, 9465, Note_on_c, 8, 43, 0
10, 9480, Note_on_c, 8, 43, 55
10, 9525, Note_on_c, 8, 43, 0
10, 9540, Note_on_c, 8, 43, 58
10, 9585, Note_on_c, 8, 43, 0
10, 9600, Note_on_c, 8, 43, 61
10, 9645, Note_on_c, 8, 43, 0
10, 9660, Note_on_c, 8, 43, 64
10, 9705, Note_on_c, 8, 43, 0
10, 9720, Note_on_c, 8, 42, 67
10, 9765, Note_on_c, 8, 42, 0
10, 9780, Note_on_c, 8, 42, 70
10, 9825, Note_on_c, 8, 42, 0
10, 9840, Note_on_c, 8, 43, 73
10, 9885, Note_on_c, 8, 43, 0
10, 9900, Note_on_c, 8, 43, 76
10, 9945, Note_on_c, 8, 43, 0
10, 9960, Note_on_c, 8, 40, 79
10, 10005, Note_on_c, 8, 40, 0
10, 10020, Note_on_c, 8, 40, 82
10, 10065, Note_on_c, 8, 40, 0
10, 10080, Note_on_c, 8, 38, 85
10, 10125, Note_on_c, 8, 38, 0
10, 10140, Note_on_c, 8, 38, 85
10, 10185, Note_on_c, 8, 38, 0
10, 10200, Note_on_c, 8, 38, 85
10, 10245, Note_on_c, 8, 38, 0
10, 10260, Note_on_c, 8, 38, 85
10, 10305, Note_on_c, 8, 38, 0
10, 10320, Note_on_c, 8, 38, 85
10, 10365, Note_on_c, 8, 38, 0
10, 10380, Note_on_c, 8, 38, 85
10, 10425, Note_on_c, 8, 38, 0
10, 10440, Note_on_c, 8, 38, 85
10, 10485, Note_on_c, 8, 38, 0
10, 10500, Note_on_c, 8, 38, 85
10, 10545, Note_on_c, 8, 38, 0
10, 10560, Note_on_c, 8, 38, 85
10, 10605, Note_on_c, 8, 38, 0
10, 10620, Note_on_c, 8, 38, 85
10, 10665, Note_on_c, 8, 38, 0
10, 10680, Note_on_c, 8, 38, 85
10, 10725, Note_on_c, 8, 38, 0
10, 10740, Note_on_c, 8, 38, 85
10, 10785, Note_on_c, 8, 38, 0
10, 10800, Note_on_c, 8, 38, 85
10, 10845, Note_on_c, 8, 38, 0
10, 10860, Note_on_c, 8, 38, 85
10, 10905, Note_on_c, 8, 38, 0
10, 10920, Note_on_c, 8, 38, 85
10, 10965, Note_on_c, 8, 38, 0
10, 10980, Note_on_c, 8, 38, 85
10, 11025, Note_on_c, 8, 38, 0
10, 11040, Note_on_c, 8, 38, 85
10, 11085, Note_on_c, 8, 38, 0
10, 11100, Note_on_c, 8, 40, 85
10, 11145, Note_on_c, 8, 40, 0
10, 11160, Note_on_c, 8, 42, 85
10, 11205, Note_on_c, 8, 42, 0
10, 11220, Note_on_c, 8, 40, 85
10, 11265, Note_on_c, 8, 40, 0
10, 11280, Note_on_c, 8, 38, 85
10, 11325, Note_on_c, 8, 38, 0
10, 11340, Note_on_c, 8, 40, 85
10, 11385, Note_on_c, 8, 40, 0
10, 11400, Note_on_c, 8, 42, 85
10, 11445, Note_on_c, 8, 42, 0
10, 11460, Note_on_c, 8, 38, 85
10, 11505, Note_on_c, 8, 38, 0
10, 11520, Note_on_c, 8, 43, 85
10, 11565, Note_on_c, 8, 43, 0
10, 11580, Note_on_c, 8, 45, 85
10, 11625, Note_on_c, 8, 45, 0
10, 11640, Note_on_c, 8, 47, 85
10, 11685, Note_on_c, 8, 47, 0
10, 11700, Note_on_c, 8, 45, 85
10, 11745, Note_on_c, 8, 45, 0
10, 11760, Note_on_c, 8, 43, 85
10, 11805, Note_on_c, 8, 43, 0
10, 11820, Note_on_c, 8, 45, 85
10, 11865, Note_on_c, 8, 45, 0
10, 11880, Note_on_c, 8, 47, 85
10, 11925, Note_on_c, 8, 47, 0
10, 11940, Note_on_c, 8, 44, 85
10, 11985, Note_on_c, 8, 44, 0
10, 12000, Note_on_c, 8, 45, 85
10, 12045, Note_on_c, 8, 45, 0
10, 12060, Note_on_c, 8, 45, 85
10, 12105, Note_on_c, 8, 45, 0
10, 12120, Note_on_c, 8, 45, 85
10, 12165, Note_on_c, 8, 45, 0
10, 12180, Note_on_c, 8, 45, 85
10, 12225, Note_on_c, 8, 45, 0
10, 12240, Note_on_c, 8, 45, 85
10, 12285, Note_on_c, 8, 45, 0
10, 12300, Note_on_c, 8, 45, 85
10, 12345, Note_on_c, 8, 45, 0
10, 12360, Note_on_c, 8, 45, 85
10, 12405, Note_on_c, 8, 45, 0
10, 12420, Note_on_c, 8, 45, 85
10, 12465, Note_on_c, 8, 45, 0
10, 12480, Note_on_c, 8, 45, 85
10, 12525, Note_on_c, 8, 45, 0
10, 12540, Note_on_c, 8, 33, 85
10, 12585, Note_on_c, 8, 33, 0
10, 12600, Note_on_c, 8, 33, 85
10, 12645, Note_on_c, 8, 33, 0
10, 12660, Note_on_c, 8, 33, 85
10, 12705, Note_on_c, 8, 33, 0
10, 12720, Note_on_c, 8, 33, 85
10, 12840, Note_on_c, 8, 33, 0
10, 13320, Note_on_c, 8, 39, 55
10, 13380, Note_on_c, 8, 39, 0
10, 13440, Note_on_c, 8, 40, 55
10, 13500, Note_on_c, 8, 40, 0
10, 13560, Note_on_c, 8, 38, 55
10, 13620, Note_on_c, 8, 38, 0
10, 13680, Note_on_c, 8, 37, 55
10, 13740, Note_on_c, 8, 37, 0
10, 13800, Note_on_c, 8, 33, 55
10, 13860, Note_on_c, 8, 33, 0
10, 14040, Note_on_c, 8, 34, 55
10, 14160, Note_on_c, 8, 34, 0
10, 14160, Note_on_c, 8, 35, 55
10, 14220, Note_on_c, 8, 35, 0
10, 14280, Note_on_c, 8, 31, 55
10, 14340, Note_on_c, 8, 31, 0
10, 14400, Note_on_c, 8, 33, 55
10, 14490, Note_on_c, 8, 33, 0
10, 14520, Note_on_c, 8, 45, 55
10, 14700, Note_on_c, 8, 45, 0
10, 14700, Note_on_c, 8, 44, 55
10, 14760, Note_on_c, 8, 44, 0
10, 14760, Note_on_c, 8, 43, 55
10, 14820, Note_on_c, 8, 43, 0
10, 14820, Note_on_c, 8, 40, 55
10, 14880, Note_on_c, 8, 40, 0
10, 14880, Note_on_c, 8, 38, 55
10, 14940, Note_on_c, 8, 38, 0
10, 15000, Note_on_c, 8, 40, 55
10, 15060, Note_on_c, 8, 40, 0
10, 15120, Note_on_c, 8, 42, 55
10, 15180, Note_on_c, 8, 42, 0
10, 15240, Note_on_c, 8, 39, 55
10, 15300, Note_on_c, 8, 39, 0
10, 15360, Note_on_c, 8, 40, 55
10, 15420, Note_on_c, 8, 40, 0
10, 15480, Note_on_c, 8, 38, 55
10, 15540, Note_on_c, 8, 38, 0
10, 15600, Note_on_c, 8, 37, 55
10, 15660, Note_on_c, 8, 37, 0
10, 15720, Note_on_c, 8, 33, 55
10, 15780, Note_on_c, 8, 33, 0
10, 15840, Note_on_c, 8, 35, 55
10, 15900, Note_on_c, 8, 35, 0
10, 15960, Note_on_c, 8, 43, 55
10, 16020, Note_on_c, 8, 43, 0
10, 16080, Note_on_c, 8, 45, 55
10, 16140, Note_on_c, 8, 45, 0
10, 16200, Note_on_c, 8, 33, 55
10, 16260, Note_on_c, 8, 33, 0
10, 16320, Note_on_c, 8, 38, 55
10, 16440, Note_on_c, 8, 38, 0
10, 16800, Note_on_c, 8, 33, 55
10, 16920, Note_on_c, 8, 33, 0
10, 17280, Note_on_c, 8, 38, 55
10, 17400, Note_on_c, 8, 38, 0
10, 17760, Note_on_c, 8, 33, 55
10, 17880, Note_on_c, 8, 33, 0
10, 18300, Note_on_c, 8, 38, 55
10, 18345, Note_on_c, 8, 38, 0
10, 18360, Note_on_c, 8, 42, 55
10, 18405, Note_on_c, 8, 42, 0
10, 18420, Note_on_c, 8, 40, 55
10, 18465, Note_on_c, 8, 40, 0
10, 18480, Note_on_c, 8, 39, 55
10, 18525, Note_on_c, 8, 39, 0
10, 18540, Note_on_c, 8, 35, 55
10, 18585, Note_on_c, 8, 35, 0
10, 18600, Note_on_c, 8, 37, 55
10, 18645, Note_on_c, 8, 37, 0
10, 18660, Note_on_c, 8, 38, 55
10, 18705, Note_on_c, 8, 38, 0
10, 18720, Note_on_c, 8, 40, 85
10, 18765, Note_on_c, 8, 40, 0
10, 18780, Note_on_c, 8, 43, 85
10, 18825, Note_on_c, 8, 43, 0
10, 18840, Note_on_c, 8, 40, 85
10, 18885, Note_on_c, 8, 40, 0
10, 18900, Note_on_c, 8, 38, 85
10, 18945, Note_on_c, 8, 38, 0
10, 18960, Note_on_c, 8, 37, 85
10, 19005, Note_on_c, 8, 37, 0
10, 19020, Note_on_c, 8, 33, 85
10, 19065, Note_on_c, 8, 33, 0
10, 19080, Note_on_c, 8, 35, 85
10, 19125, Note_on_c, 8, 35, 0
10, 19140, Note_on_c, 8, 37, 85
10, 19185, Note_on_c, 8, 37, 0
10, 19200, Note_on_c, 8, 38, 85
10, 19245, Note_on_c, 8, 38, 0
10, 19260, Note_on_c, 8, 38, 85
10, 19305, Note_on_c, 8, 38, 0
10, 19320, Note_on_c, 8, 40, 85
10, 19365, Note_on_c, 8, 40, 0
10, 19380, Note_on_c, 8, 42, 85
10, 19425, Note_on_c, 8, 42, 0
10, 19440, Note_on_c, 8, 43, 85
10, 19485, Note_on_c, 8, 43, 0
10, 19500, Note_on_c, 8, 43, 85
10, 19545, Note_on_c, 8, 43, 0
10, 19560, Note_on_c, 8, 43, 85
10, 19605, Note_on_c, 8, 43, 0
10, 19620, Note_on_c, 8, 43, 85
10, 19665, Note_on_c, 8, 43, 0
10, 19680, Note_on_c, 8, 45, 85
10, 19725, Note_on_c, 8, 45, 0
10, 19740, Note_on_c, 8, 45, 85
10, 19785, Note_on_c, 8, 45, 0
10, 19800, Note_on_c, 8, 45, 85
10, 19845, Note_on_c, 8, 45, 0
10, 19860, Note_on_c, 8, 45, 85
10, 19905, Note_on_c, 8, 45, 0
10, 19920, Note_on_c, 8, 33, 85
10, 19965, Note_on_c, 8, 33, 0
10, 19980, Note_on_c, 8, 33, 85
10, 20025, Note_on_c, 8, 33, 0
10, 20040, Note_on_c, 8, 33, 85
10, 20085, Note_on_c, 8, 33, 0
10, 20100, Note_on_c, 8, 33, 85
10, 20145, Note_on_c, 8, 33, 0
10, 20160, Note_on_c, 8, 38, 85
10, 20280, Note_on_c, 8, 38, 0
10, 20640, Note_on_c, 8, 33, 55
10, 20760, Note_on_c, 8, 33, 0
10, 21120, Note_on_c, 8, 38, 55
10, 21240, Note_on_c, 8, 38, 0
10, 21600, Note_on_c, 8, 33, 55
10, 21720, Note_on_c, 8, 33, 0
10, 22140, Note_on_c, 8, 38, 85
10, 22185, Note_on_c, 8, 38, 0
10, 22200, Note_on_c, 8, 42, 85
10, 22245, Note_on_c, 8, 42, 0
10, 22260, Note_on_c, 8, 40, 85
10, 22305, Note_on_c, 8, 40, 0
10, 22320, Note_on_c, 8, 39, 85
10, 22365, Note_on_c, 8, 39, 0
10, 22380, Note_on_c, 8, 35, 85
10, 22425, Note_on_c, 8, 35, 0
10, 22440, Note_on_c, 8, 37, 85
10, 22485, Note_on_c, 8, 37, 0
10, 22500, Note_on_c, 8, 38, 85
10, 22545, Note_on_c, 8, 38, 0
10, 22560, Note_on_c, 8, 40, 85
10, 22605, Note_on_c, 8, 40, 0
10, 22620, Note_on_c, 8, 43, 85
10, 22665, Note_on_c, 8, 43, 0
10, 22680, Note_on_c, 8, 40, 85
10, 22725, Note_on_c, 8, 40, 0
10, 22740, Note_on_c, 8, 38, 85
10, 22785, Note_on_c, 8, 38, 0
10, 22800, Note_on_c, 8, 37, 85
10, 22845, Note_on_c, 8, 37, 0
10, 22860, Note_on_c, 8, 33, 85
10, 22905, Note_on_c, 8, 33, 0
10, 22920, Note_on_c, 8, 35, 85
10, 22965, Note_on_c, 8, 35, 0
10, 22980, Note_on_c, 8, 37, 85
10, 23025, Note_on_c, 8, 37, 0
10, 23040, Note_on_c, 8, 38, 85
10, 23085, Note_on_c, 8, 38, 0
10, 23100, Note_on_c, 8, 38, 85
10, 23145, Note_on_c, 8, 38, 0
10, 23160, Note_on_c, 8, 40, 85
10, 23205, Note_on_c, 8, 40, 0
10, 23220, Note_on_c, 8, 42, 85
10, 23265, Note_on_c, 8, 42, 0
10, 23280, Note_on_c, 8, 43, 85
10, 23325, Note_on_c, 8, 43, 0
10, 23340, Note_on_c, 8, 43, 85
10, 23385, Note_on_c, 8, 43, 0
10, 23400, Note_on_c, 8, 43, 85
10, 23445, Note_on_c, 8, 43, 0
10, 23460, Note_on_c, 8, 43, 85
10, 23505, Note_on_c, 8, 43, 0
10, 23520, Note_on_c, 8, 45, 85
10, 23565, Note_on_c, 8, 45, 0
10, 23580, Note_on_c, 8, 45, 85
10, 23625, Note_on_c, 8, 45, 0
10, 23640, Note_on_c, 8, 45, 85
10, 23685, Note_on_c, 8, 45, 0
10, 23700, Note_on_c, 8, 45, 85
10, 23745, Note_on_c, 8, 45, 0
10, 23760, Note_on_c, 8, 33, 85
10, 23805, Note_on_c, 8, 33, 0
10, 23820, Note_on_c, 8, 33, 85
10, 23865, Note_on_c, 8, 33, 0
10, 23880, Note_on_c, 8, 33, 85
10, 23925, Note_on_c, 8, 33, 0
10, 23940, Note_on_c, 8, 33, 85
10, 23985, Note_on_c, 8, 33, 0
10, 24000, Note_on_c, 8, 38, 85
10, 24045, Note_on_c, 8, 38, 0
10, 24060, Note_on_c, 8, 33, 85
10, 24105, Note_on_c, 8, 33, 0
10, 24120, Note_on_c, 8, 35, 85
10, 24165, Note_on_c, 8, 35, 0
10, 24180, Note_on_c, 8, 37, 85
10, 24225, Note_on_c, 8, 37, 0
10, 24240, Note_on_c, 8, 38, 85
10, 24285, Note_on_c, 8, 38, 0
10, 24300, Note_on_c, 8, 38, 85
10, 24345, Note_on_c, 8, 38, 0
10, 24360, Note_on_c, 8, 40, 85
10, 24405, Note_on_c, 8, 40, 0
10, 24420, Note_on_c, 8, 40, 85
10, 24465, Note_on_c, 8, 40, 0
10, 24480, Note_on_c, 8, 42, 85
10, 24525, Note_on_c, 8, 42, 0
10, 24540, Note_on_c, 8, 37, 85
10, 24585, Note_on_c, 8, 37, 0
10, 24600, Note_on_c, 8, 38, 85
10, 24645, Note_on_c, 8, 38, 0
10, 24660, Note_on_c, 8, 40, 85
10, 24705, Note_on_c, 8, 40, 0
10, 24720, Note_on_c, 8, 42, 85
10, 24765, Note_on_c, 8, 42, 0
10, 24780, Note_on_c, 8, 42, 85
10, 24825, Note_on_c, 8, 42, 0
10, 24840, Note_on_c, 8, 43, 85
10, 24885, Note_on_c, 8, 43, 0
10, 24900, Note_on_c, 8, 43, 85
10, 24945, Note_on_c, 8, 43, 0
10, 24960, Note_on_c, 8, 45, 85
10, 25005, Note_on_c, 8, 45, 0
10, 25020, Note_on_c, 8, 45, 85
10, 25065, Note_on_c, 8, 45, 0
10, 25080, Note_on_c, 8, 46, 85
10, 25125, Note_on_c, 8, 46, 0
10, 25140, Note_on_c, 8, 46, 85
10, 25185, Note_on_c, 8, 46, 0
10, 25200, Note_on_c, 8, 47, 85
10, 25320, Note_on_c, 8, 47, 0
10, 25440, Note_on_c, 8, 43, 55
10, 25680, Note_on_c, 8, 43, 0
10, 25680, Note_on_c, 8, 45, 55
10, 25920, Note_on_c, 8, 45, 0
10, 25920, Note_on_c, 8, 38, 55
10, 25980, Note_on_c, 8, 38, 0
10, 26040, Note_on_c, 8, 38, 55
10, 26100, Note_on_c, 8, 38, 0
10, 26160, Note_on_c, 8, 38, 55
10, 26220, Note_on_c, 8, 38, 0
10, 26410, Note_on_c, 8, 43, 85
10, 26530, Note_on_c, 8, 43, 0
10, 26590, Note_on_c, 8, 38, 85
10, 26620, Note_on_c, 8, 38, 0
10, 26650, Note_on_c, 8, 43, 85
10, 26770, Note_on_c, 8, 43, 0
10, 26830, Note_on_c, 8, 38, 85
10, 26860, Note_on_c, 8, 38, 0
10, 26890, Note_on_c, 8, 43, 85
10, 26920, Note_on_c, 8, 43, 0
10, 26950, Note_on_c, 8, 38, 85
10, 26980, Note_on_c, 8, 38, 0
10, 27010, Note_on_c, 8, 43, 85
10, 27040, Note_on_c, 8, 43, 0
10, 27070, Note_on_c, 8, 47, 85
10, 27100, Note_on_c, 8, 47, 0
10, 27130, Note_on_c, 8, 50, 85
10, 27250, Note_on_c, 8, 50, 0
10, 27370, Note_on_c, 8, 48, 85
10, 27490, Note_on_c, 8, 48, 0
10, 27550, Note_on_c, 8, 45, 85
10, 27580, Note_on_c, 8, 45, 0
10, 27610, Note_on_c, 8, 48, 85
10, 27730, Note_on_c, 8, 48, 0
10, 27790, Note_on_c, 8, 45, 85
10, 27820, Note_on_c, 8, 45, 0
10, 27850, Note_on_c, 8, 48, 85
10, 27880, Note_on_c, 8, 48, 0
10, 27910, Note_on_c, 8, 45, 85
10, 27940, Note_on_c, 8, 45, 0
10, 27970, Note_on_c, 8, 42, 85
10, 28000, Note_on_c, 8, 42, 0
10, 28030, Note_on_c, 8, 45, 85
10, 28060, Note_on_c, 8, 45, 0
10, 28090, Note_on_c, 8, 38, 85
10, 28210, Note_on_c, 8, 38, 0
10, 28320, Note_on_c, 8, 43, 85
10, 28365, Note_on_c, 8, 43, 0
10, 28380, Note_on_c, 8, 43, 85
10, 28425, Note_on_c, 8, 43, 0
10, 28440, Note_on_c, 8, 43, 85
10, 28485, Note_on_c, 8, 43, 0
10, 28500, Note_on_c, 8, 43, 85
10, 28545, Note_on_c, 8, 43, 0
10, 28560, Note_on_c, 8, 43, 85
10, 28605, Note_on_c, 8, 43, 0
10, 28620, Note_on_c, 8, 43, 85
10, 28665, Note_on_c, 8, 43, 0
10, 28680, Note_on_c, 8, 43, 85
10, 28725, Note_on_c, 8, 43, 0
10, 28740, Note_on_c, 8, 43, 85
10, 28785, Note_on_c, 8, 43, 0
10, 28800, Note_on_c, 8, 43, 85
10, 28845, Note_on_c, 8, 43, 0
10, 28860, Note_on_c, 8, 43, 85
10, 28905, Note_on_c, 8, 43, 0
10, 28920, Note_on_c, 8, 43, 85
10, 28965, Note_on_c, 8, 43, 0
10, 28980, Note_on_c, 8, 43, 85
10, 29025, Note_on_c, 8, 43, 0
10, 29040, Note_on_c, 8, 43, 85
10, 29085, Note_on_c, 8, 43, 0
10, 29100, Note_on_c, 8, 43, 85
10, 29145, Note_on_c, 8, 43, 0
10, 29160, Note_on_c, 8, 43, 85
10, 29205, Note_on_c, 8, 43, 0
10, 29220, Note_on_c, 8, 43, 85
10, 29265, Note_on_c, 8, 43, 0
10, 29280, Note_on_c, 8, 43, 85
10, 29325, Note_on_c, 8, 43, 0
10, 29340, Note_on_c, 8, 43, 85
10, 29385, Note_on_c, 8, 43, 0
10, 29400, Note_on_c, 8, 43, 85
10, 29445, Note_on_c, 8, 43, 0
10, 29460, Note_on_c, 8, 43, 85
10, 29505, Note_on_c, 8, 43, 0
10, 29520, Note_on_c, 8, 43, 85
10, 29565, Note_on_c, 8, 43, 0
10, 29580, Note_on_c, 8, 43, 85
10, 29625, Note_on_c, 8, 43, 0
10, 29640, Note_on_c, 8, 43, 85
10, 29685, Note_on_c, 8, 43, 0
10, 29700, Note_on_c, 8, 43, 85
10, 29745, Note_on_c, 8, 43, 0
10, 29760, Note_on_c, 8, 43, 85
10, 29805, Note_on_c, 8, 43, 0
10, 29820, Note_on_c, 8, 43, 85
10, 29865, Note_on_c, 8, 43, 0
10, 29880, Note_on_c, 8, 43, 85
10, 29925, Note_on_c, 8, 43, 0
10, 29940, Note_on_c, 8, 43, 85
10, 29985, Note_on_c, 8, 43, 0
10, 30000, Note_on_c, 8, 43, 85
10, 30045, Note_on_c, 8, 43, 0
10, 30060, Note_on_c, 8, 43, 85
10, 30105, Note_on_c, 8, 43, 0
10, 30120, Note_on_c, 8, 43, 85
10, 30165, Note_on_c, 8, 43, 0
10, 30180, Note_on_c, 8, 43, 85
10, 30225, Note_on_c, 8, 43, 0
10, 30240, Note_on_c, 8, 43, 85
10, 30285, Note_on_c, 8, 43, 0
10, 30300, Note_on_c, 8, 43, 85
10, 30345, Note_on_c, 8, 43, 0
10, 30360, Note_on_c, 8, 45, 85
10, 30405, Note_on_c, 8, 45, 0
10, 30420, Note_on_c, 8, 45, 85
10, 30465, Note_on_c, 8, 45, 0
10, 30480, Note_on_c, 8, 47, 85
10, 30525, Note_on_c, 8, 47, 0
10, 30540, Note_on_c, 8, 47, 85
10, 30585, Note_on_c, 8, 47, 0
10, 30600, Note_on_c, 8, 42, 85
10, 30645, Note_on_c, 8, 42, 0
10, 30660, Note_on_c, 8, 42, 85
10, 30705, Note_on_c, 8, 42, 0
10, 30720, Note_on_c, 8, 43, 85
10, 30765, Note_on_c, 8, 43, 0
10, 30780, Note_on_c, 8, 43, 85
10, 30825, Note_on_c, 8, 43, 0
10, 30840, Note_on_c, 8, 45, 85
10, 30885, Note_on_c, 8, 45, 0
10, 30900, Note_on_c, 8, 45, 85
10, 30945, Note_on_c, 8, 45, 0
10, 30960, Note_on_c, 8, 47, 85
10, 31080, Note_on_c, 8, 47, 0
10, 31680, Note_on_c, 8, 38, 47
10, 31920, Note_on_c, 8, 38, 0
10, 31920, Note_on_c, 8, 40, 47
10, 32160, Note_on_c, 8, 40, 0
10, 32160, Note_on_c, 8, 36, 47
10, 32250, Note_on_c, 8, 36, 0
10, 32280, Note_on_c, 8, 36, 47
10, 32370, Note_on_c, 8, 36, 0
10, 32400, Note_on_c, 8, 38, 47
10, 32490, Note_on_c, 8, 38, 0
10, 32520, Note_on_c, 8, 38, 47
10, 32610, Note_on_c, 8, 38, 0
10, 32640, Note_on_c, 8, 35, 47
10, 32700, Note_on_c, 8, 35, 0
10, 32760, Note_on_c, 8, 38, 47
10, 32820, Note_on_c, 8, 38, 0
10, 32880, Note_on_c, 8, 43, 47
10, 33000, Note_on_c, 8, 43, 0
10, 33600, Note_on_c, 8, 38, 47
10, 33840, Note_on_c, 8, 38, 0
10, 33840, Note_on_c, 8, 40, 47
10, 34080, Note_on_c, 8, 40, 0
10, 34080, Note_on_c, 8, 36, 47
10, 34170, Note_on_c, 8, 36, 0
10, 34200, Note_on_c, 8, 36, 47
10, 34290, Note_on_c, 8, 36, 0
10, 34320, Note_on_c, 8, 38, 47
10, 34410, Note_on_c, 8, 38, 0
10, 34440, Note_on_c, 8, 38, 47
10, 34530, Note_on_c, 8, 38, 0
10, 34560, Note_on_c, 8, 43, 91
10, 34605, Note_on_c, 8, 43, 0
10, 34620, Note_on_c, 8, 43, 83
10, 34665, Note_on_c, 8, 43, 0
10, 34680, Note_on_c, 8, 43, 83
10, 34725, Note_on_c, 8, 43, 0
10, 34740, Note_on_c, 8, 43, 83
10, 34785, Note_on_c, 8, 43, 0
10, 34800, Note_on_c, 8, 43, 59
10, 34845, Note_on_c, 8, 43, 0
10, 34860, Note_on_c, 8, 43, 59
10, 34905, Note_on_c, 8, 43, 0
10, 34920, Note_on_c, 8, 43, 59
10, 34965, Note_on_c, 8, 43, 0
10, 34980, Note_on_c, 8, 43, 59
10, 35025, Note_on_c, 8, 43, 0
10, 35040, Note_on_c, 8, 43, 92
10, 35085, Note_on_c, 8, 43, 0
10, 35100, Note_on_c, 8, 43, 79
10, 35145, Note_on_c, 8, 43, 0
10, 35160, Note_on_c, 8, 43, 79
10, 35205, Note_on_c, 8, 43, 0
10, 35220, Note_on_c, 8, 43, 79
10, 35265, Note_on_c, 8, 43, 0
10, 35280, Note_on_c, 8, 43, 59
10, 35325, Note_on_c, 8, 43, 0
10, 35340, Note_on_c, 8, 43, 59
10, 35385, Note_on_c, 8, 43, 0
10, 35400, Note_on_c, 8, 43, 59
10, 35445, Note_on_c, 8, 43, 0
10, 35460, Note_on_c, 8, 43, 59
10, 35505, Note_on_c, 8, 43, 0
10, 35520, Note_on_c, 8, 43, 59
10, 35565, Note_on_c, 8, 43, 0
10, 35580, Note_on_c, 8, 43, 40
10, 35625, Note_on_c, 8, 43, 0
10, 35640, Note_on_c, 8, 43, 43
10, 35685, Note_on_c, 8, 43, 0
10, 35700, Note_on_c, 8, 43, 46
10, 35745, Note_on_c, 8, 43, 0
10, 35760, Note_on_c, 8, 43, 49
10, 35805, Note_on_c, 8, 43, 0
10, 35820, Note_on_c, 8, 43, 52
10, 35865, Note_on_c, 8, 43, 0
10, 35880, Note_on_c, 8, 43, 55
10, 35925, Note_on_c, 8, 43, 0
10, 35940, Note_on_c, 8, 43, 58
10, 35985, Note_on_c, 8, 43, 0
10, 36000, Note_on_c, 8, 43, 61
10, 36045, Note_on_c, 8, 43, 0
10, 36060, Note_on_c, 8, 43, 64
10, 36105, Note_on_c, 8, 43, 0
10, 36120, Note_on_c, 8, 42, 67
10, 36165, Note_on_c, 8, 42, 0
10, 36180, Note_on_c, 8, 42, 70
10, 36225, Note_on_c, 8, 42, 0
10, 36240, Note_on_c, 8, 43, 73
10, 36285, Note_on_c, 8, 43, 0
10, 36300, Note_on_c, 8, 43, 76
10, 36345, Note_on_c, 8, 43, 0
10, 36360, Note_on_c, 8, 40, 79
10, 36405, Note_on_c, 8, 40, 0
10, 36420, Note_on_c, 8, 40, 82
10, 36465, Note_on_c, 8, 40, 0
10, 36480, Note_on_c, 8, 38, 85
10, 36525, Note_on_c, 8, 38, 0
10, 36540, Note_on_c, 8, 38, 85
10, 36585, Note_on_c, 8, 38, 0
10, 36600, Note_on_c, 8, 38, 85
10, 36645, Note_on_c, 8, 38, 0
10, 36660, Note_on_c, 8, 38, 85
10, 36705, Note_on_c, 8, 38, 0
10, 36720, Note_on_c, 8, 38, 85
10, 36765, Note_on_c, 8, 38, 0
10, 36780, Note_on_c, 8, 38, 85
10, 36825, Note_on_c, 8, 38, 0
10, 36840, Note_on_c, 8, 38, 85
10, 36885, Note_on_c, 8, 38, 0
10, 36900, Note_on_c, 8, 38, 85
10, 36945, Note_on_c, 8, 38, 0
10, 36960, Note_on_c, 8, 38, 85
10, 37005, Note_on_c, 8, 38, 0
10, 37020, Note_on_c, 8, 38, 85
10, 37065, Note_on_c, 8, 38, 0
10, 37080, Note_on_c, 8, 38, 85
10, 37125, Note_on_c, 8, 38, 0
10, 37140, Note_on_c, 8, 38, 85
10, 37185, Note_on_c, 8, 38, 0
10, 37200, Note_on_c, 8, 38, 85
10, 37245, Note_on_c, 8, 38, 0
10, 37260, Note_on_c, 8, 38, 85
10, 37305, Note_on_c, 8, 38, 0
10, 37320, Note_on_c, 8, 38, 85
10, 37365, Note_on_c, 8, 38, 0
10, 37380, Note_on_c, 8, 38, 85
10, 37425, Note_on_c, 8, 38, 0
10, 37440, Note_on_c, 8, 38, 85
10, 37485, Note_on_c, 8, 38, 0
10, 37500, Note_on_c, 8, 40, 85
10, 37545, Note_on_c, 8, 40, 0
10, 37560, Note_on_c, 8, 42, 85
10, 37605, Note_on_c, 8, 42, 0
10, 37620, Note_on_c, 8, 40, 85
10, 37665, Note_on_c, 8, 40, 0
10, 37680, Note_on_c, 8, 38, 85
10, 37725, Note_on_c, 8, 38, 0
10, 37740, Note_on_c, 8, 40, 85
10, 37785, Note_on_c, 8, 40, 0
10, 37800, Note_on_c, 8, 42, 85
10, 37845, Note_on_c, 8, 42, 0
10, 37860, Note_on_c, 8, 38, 85
10, 37905, Note_on_c, 8, 38, 0
10, 37920, Note_on_c, 8, 43, 85
10, 37965, Note_on_c, 8, 43, 0
10, 37980, Note_on_c, 8, 45, 85
10, 38025, Note_on_c, 8, 45, 0
10, 38040, Note_on_c, 8, 47, 85
10, 38085, Note_on_c, 8, 47, 0
10, 38100, Note_on_c, 8, 45, 85
10, 38145, Note_on_c, 8, 45, 0
10, 38160, Note_on_c, 8, 43, 85
10, 38205, Note_on_c, 8, 43, 0
10, 38220, Note_on_c, 8, 45, 85
10, 38265, Note_on_c, 8, 45, 0
10, 38280, Note_on_c, 8, 47, 85
10, 38325, Note_on_c, 8, 47, 0
10, 38340, Note_on_c, 8, 44, 85
10, 38385, Note_on_c, 8, 44, 0
10, 38400, Note_on_c, 8, 45, 85
10, 38445, Note_on_c, 8, 45, 0
10, 38460, Note_on_c, 8, 45, 85
10, 38505, Note_on_c, 8, 45, 0
10, 38520, Note_on_c, 8, 45, 85
10, 38565, Note_on_c, 8, 45, 0
10, 38580, Note_on_c, 8, 45, 85
10, 38625, Note_on_c, 8, 45, 0
10, 38640, Note_on_c, 8, 45, 85
10, 38685, Note_on_c, 8, 45, 0
10, 38700, Note_on_c, 8, 45, 85
10, 38745, Note_on_c, 8, 45, 0
10, 38760, Note_on_c, 8, 45, 85
10, 38805, Note_on_c, 8, 45, 0
10, 38820, Note_on_c, 8, 45, 85
10, 38865, Note_on_c, 8, 45, 0
10, 38880, Note_on_c, 8, 45, 85
10, 38925, Note_on_c, 8, 45, 0
10, 38940, Note_on_c, 8, 33, 85
10, 38985, Note_on_c, 8, 33, 0
10, 39000, Note_on_c, 8, 33, 85
10, 39045, Note_on_c, 8, 33, 0
10, 39060, Note_on_c, 8, 33, 85
10, 39105, Note_on_c, 8, 33, 0
10, 39120, Note_on_c, 8, 33, 85
10, 39240, Note_on_c, 8, 33, 0
10, 39720, Note_on_c, 8, 39, 55
10, 39780, Note_on_c, 8, 39, 0
10, 39840, Note_on_c, 8, 40, 55
10, 39900, Note_on_c, 8, 40, 0
10, 39960, Note_on_c, 8, 38, 55
10, 40020, Note_on_c, 8, 38, 0
10, 40080, Note_on_c, 8, 37, 55
10, 40140, Note_on_c, 8, 37, 0
10, 40200, Note_on_c, 8, 33, 55
10, 40260, Note_on_c, 8, 33, 0
10, 40440, Note_on_c, 8, 34, 55
10, 40560, Note_on_c, 8, 34, 0
10, 40560, Note_on_c, 8, 35, 55
10, 40620, Note_on_c, 8, 35, 0
10, 40680, Note_on_c, 8, 31, 55
10, 40740, Note_on_c, 8, 31, 0
10, 40800, Note_on_c, 8, 33, 55
10, 40890, Note_on_c, 8, 33, 0
10, 40920, Note_on_c, 8, 45, 55
10, 41100, Note_on_c, 8, 45, 0
10, 41100, Note_on_c, 8, 44, 55
10, 41160, Note_on_c, 8, 44, 0
10, 41160, Note_on_c, 8, 43, 55
10, 41220, Note_on_c, 8, 43, 0
10, 41220, Note_on_c, 8, 40, 55
10, 41280, Note_on_c, 8, 40, 0
10, 41280, Note_on_c, 8, 38, 55
10, 41340, Note_on_c, 8, 38, 0
10, 41400, Note_on_c, 8, 40, 55
10, 41460, Note_on_c, 8, 40, 0
10, 41520, Note_on_c, 8, 42, 55
10, 41580, Note_on_c, 8, 42, 0
10, 41640, Note_on_c, 8, 39, 55
10, 41700, Note_on_c, 8, 39, 0
10, 41760, Note_on_c, 8, 40, 55
10, 41820, Note_on_c, 8, 40, 0
10, 41880, Note_on_c, 8, 38, 55
10, 41940, Note_on_c, 8, 38, 0
10, 42000, Note_on_c, 8, 37, 55
10, 42060, Note_on_c, 8, 37, 0
10, 42120, Note_on_c, 8, 33, 55
10, 42180, Note_on_c, 8, 33, 0
10, 42240, Note_on_c, 8, 35, 55
10, 42300, Note_on_c, 8, 35, 0
10, 42360, Note_on_c, 8, 43, 55
10, 42420, Note_on_c, 8, 43, 0
10, 42480, Note_on_c, 8, 45, 55
10, 42540, Note_on_c, 8, 45, 0
10, 42600, Note_on_c, 8, 33, 55
10, 42660, Note_on_c, 8, 33, 0
10, 42720, Note_on_c, 8, 38, 55
10, 42840, Note_on_c, 8, 38, 0
10, 43200, Note_on_c, 8, 33, 55
10, 43320, Note_on_c, 8, 33, 0
10, 43680, Note_on_c, 8, 38, 55
10, 43800, Note_on_c, 8, 38, 0
10, 44160, Note_on_c, 8, 33, 55
10, 44280, Note_on_c, 8, 33, 0
10, 44700, Note_on_c, 8, 38, 55
10, 44745, Note_on_c, 8, 38, 0
10, 44760, Note_on_c, 8, 42, 55
10, 44805, Note_on_c, 8, 42, 0
10, 44820, Note_on_c, 8, 40, 55
10, 44865, Note_on_c, 8, 40, 0
10, 44880, Note_on_c, 8, 39, 55
10, 44925, Note_on_c, 8, 39, 0
10, 44940, Note_on_c, 8, 35, 55
10, 44985, Note_on_c, 8, 35, 0
10, 45000, Note_on_c, 8, 37, 55
10, 45045, Note_on_c, 8, 37, 0
10, 45060, Note_on_c, 8, 38, 55
10, 45105, Note_on_c, 8, 38, 0
10, 45120, Note_on_c, 8, 40, 85
10, 45165, Note_on_c, 8, 40, 0
10, 45180, Note_on_c, 8, 43, 85
10, 45225, Note_on_c, 8, 43, 0
10, 45240, Note_on_c, 8, 40, 85
10, 45285, Note_on_c, 8, 40, 0
10, 45300, Note_on_c, 8, 38, 85
10, 45345, Note_on_c, 8, 38, 0
10, 45360, Note_on_c, 8, 37, 85
10, 45405, Note_on_c, 8, 37, 0
10, 45420, Note_on_c, 8, 33, 85
10, 45465, Note_on_c, 8, 33, 0
10, 45480, Note_on_c, 8, 35, 85
10, 45525, Note_on_c, 8, 35, 0
10, 45540, Note_on_c, 8, 37, 85
10, 45585, Note_on_c, 8, 37, 0
10, 45600, Note_on_c, 8, 38, 85
10, 45645, Note_on_c, 8, 38, 0
10, 45660, Note_on_c, 8, 38, 85
10, 45705, Note_on_c, 8, 38, 0
10, 45720, Note_on_c, 8, 40, 85
10, 45765, Note_on_c, 8, 40, 0
10, 45780, Note_on_c, 8, 42, 85
10, 45825, Note_on_c, 8, 42, 0
10, 45840, Note_on_c, 8, 43, 85
10, 45885, Note_on_c, 8, 43, 0
10, 45900, Note_on_c, 8, 43, 85
10, 45945, Note_on_c, 8, 43, 0
10, 45960, Note_on_c, 8, 43, 85
10, 46005, Note_on_c, 8, 43, 0
10, 46020, Note_on_c, 8, 43, 85
10, 46065, Note_on_c, 8, 43, 0
10, 46080, Note_on_c, 8, 45, 85
10, 46125, Note_on_c, 8, 45, 0
10, 46140, Note_on_c, 8, 45, 85
10, 46185, Note_on_c, 8, 45, 0
10, 46200, Note_on_c, 8, 45, 85
10, 46245, Note_on_c, 8, 45, 0
10, 46260, Note_on_c, 8, 45, 85
10, 46305, Note_on_c, 8, 45, 0
10, 46320, Note_on_c, 8, 33, 85
10, 46365, Note_on_c, 8, 33, 0
10, 46380, Note_on_c, 8, 33, 85
10, 46425, Note_on_c, 8, 33, 0
10, 46440, Note_on_c, 8, 33, 85
10, 46485, Note_on_c, 8, 33, 0
10, 46500, Note_on_c, 8, 33, 85
10, 46545, Note_on_c, 8, 33, 0
10, 46560, Note_on_c, 8, 38, 85
10, 46680, Note_on_c, 8, 38, 0
10, 47040, Note_on_c, 8, 33, 55
10, 47160, Note_on_c, 8, 33, 0
10, 47520, Note_on_c, 8, 38, 55
10, 47640, Note_on_c, 8, 38, 0
10, 48000, Note_on_c, 8, 33, 55
10, 48120, Note_on_c, 8, 33, 0
10, 48540, Note_on_c, 8, 38, 85
10, 48585, Note_on_c, 8, 38, 0
10, 48600, Note_on_c, 8, 42, 85
10, 48645, Note_on_c, 8, 42, 0
10, 48660, Note_on_c, 8, 40, 85
10, 48705, Note_on_c, 8, 40, 0
10, 48720, Note_on_c, 8, 39, 85
10, 48765, Note_on_c, 8, 39, 0
10, 48780, Note_on_c, 8, 35, 85
10, 48825, Note_on_c, 8, 35, 0
10, 48840, Note_on_c, 8, 37, 85
10, 48885, Note_on_c, 8, 37, 0
10, 48900, Note_on_c, 8, 38, 85
10, 48945, Note_on_c, 8, 38, 0
10, 48960, Note_on_c, 8, 40, 85
10, 49005, Note_on_c, 8, 40, 0
10, 49020, Note_on_c, 8, 43, 85
10, 49065, Note_on_c, 8, 43, 0
10, 49080, Note_on_c, 8, 40, 85
10, 49125, Note_on_c, 8, 40, 0
10, 49140, Note_on_c, 8, 38, 85
10, 49185, Note_on_c, 8, 38, 0
10, 49200, Note_on_c, 8, 37, 85
10, 49245, Note_on_c, 8, 37, 0
10, 49260, Note_on_c, 8, 33, 85
10, 49305, Note_on_c, 8, 33, 0
10, 49320, Note_on_c, 8, 35, 85
10, 49365, Note_on_c, 8, 35, 0
10, 49380, Note_on_c, 8, 37, 85
10, 49425, Note_on_c, 8, 37, 0
10, 49440, Note_on_c, 8, 38, 85
10, 49485, Note_on_c, 8, 38, 0
10, 49500, Note_on_c, 8, 38, 85
10, 49545, Note_on_c, 8, 38, 0
10, 49560, Note_on_c, 8, 40, 85
10, 49605, Note_on_c, 8, 40, 0
10, 49620, Note_on_c, 8, 42, 85
10, 49665, Note_on_c, 8, 42, 0
10, 49680, Note_on_c, 8, 43, 85
10, 49725, Note_on_c, 8, 43, 0
10, 49740, Note_on_c, 8, 43, 85
10, 49785, Note_on_c, 8, 43, 0
10, 49800, Note_on_c, 8, 43, 85
10, 49845, Note_on_c, 8, 43, 0
10, 49860, Note_on_c, 8, 43, 85
10, 49905, Note_on_c, 8, 43, 0
10, 49920, Note_on_c, 8, 45, 85
10, 49965, Note_on_c, 8, 45, 0
10, 49980, Note_on_c, 8, 45, 85
10, 50025, Note_on_c, 8, 45, 0
10, 50040, Note_on_c, 8, 45, 85
10, 50085, Note_on_c, 8, 45, 0
10, 50100, Note_on_c, 8, 45, 85
10, 50145, Note_on_c, 8, 45, 0
10, 50160, Note_on_c, 8, 33, 85
10, 50205, Note_on_c, 8, 33, 0
10, 50220, Note_on_c, 8, 33, 85
10, 50265, Note_on_c, 8, 33, 0
10, 50280, Note_on_c, 8, 33, 85
10, 50325, Note_on_c, 8, 33, 0
10, 50340, Note_on_c, 8, 33, 85
10, 50385, Note_on_c, 8, 33, 0
10, 50400, Note_on_c, 8, 38, 85
10, 50445, Note_on_c, 8, 38, 0
10, 50460, Note_on_c, 8, 33, 85
10, 50505, Note_on_c, 8, 33, 0
10, 50520, Note_on_c, 8, 35, 85
10, 50565, Note_on_c, 8, 35, 0
10, 50580, Note_on_c, 8, 37, 85
10, 50625, Note_on_c, 8, 37, 0
10, 50640, Note_on_c, 8, 38, 85
10, 50685, Note_on_c, 8, 38, 0
10, 50700, Note_on_c, 8, 38, 85
10, 50745, Note_on_c, 8, 38, 0
10, 50760, Note_on_c, 8, 40, 85
10, 50805, Note_on_c, 8, 40, 0
10, 50820, Note_on_c, 8, 40, 85
10, 50865, Note_on_c, 8, 40, 0
10, 50880, Note_on_c, 8, 42, 85
10, 50925, Note_on_c, 8, 42, 0
10, 50940, Note_on_c, 8, 37, 85
10, 50985, Note_on_c, 8, 37, 0
10, 51000, Note_on_c, 8, 38, 85
10, 51045, Note_on_c, 8, 38, 0
10, 51060, Note_on_c, 8, 40, 85
10, 51105, Note_on_c, 8, 40, 0
10, 51120, Note_on_c, 8, 42, 85
10, 51165, Note_on_c, 8, 42, 0
10, 51180, Note_on_c, 8, 42, 85
10, 51225, Note_on_c, 8, 42, 0
10, 51240, Note_on_c, 8, 43, 85
10, 51285, Note_on_c, 8, 43, 0
10, 51300, Note_on_c, 8, 43, 85
10, 51345, Note_on_c, 8, 43, 0
10, 51360, Note_on_c, 8, 45, 85
10, 51405, Note_on_c, 8, 45, 0
10, 51420, Note_on_c, 8, 45, 85
10, 51465, Note_on_c, 8, 45, 0
10, 51480, Note_on_c, 8, 46, 85
10, 51525, Note_on_c, 8, 46, 0
10, 51540, Note_on_c, 8, 46, 85
10, 51585, Note_on_c, 8, 46, 0
10, 51600, Note_on_c, 8, 47, 85
10, 51720, Note_on_c, 8, 47, 0
10, 51840, Note_on_c, 8, 43, 55
10, 52080, Note_on_c, 8, 43, 0
10, 52080, Note_on_c, 8, 45, 55
10, 52320, Note_on_c, 8, 45, 0
10, 52320, Note_on_c, 8, 38, 55
10, 52380, Note_on_c, 8, 38, 0
10, 52440, Note_on_c, 8, 38, 55
10, 52500, Note_on_c, 8, 38, 0
10, 52560, Note_on_c, 8, 38, 55
10, 52620, Note_on_c, 8, 38, 0
10, 52800, Note_on_c, 8, 38, 89
10, 52920, Note_on_c, 8, 38, 0
10, 52980, Note_on_c, 8, 33, 89
10, 53025, Note_on_c, 8, 33, 0
10, 53040, Note_on_c, 8, 38, 89
10, 53160, Note_on_c, 8, 38, 0
10, 53220, Note_on_c, 8, 33, 89
10, 53265, Note_on_c, 8, 33, 0
10, 53280, Note_on_c, 8, 38, 89
10, 53325, Note_on_c, 8, 38, 0
10, 53340, Note_on_c, 8, 33, 89
10, 53385, Note_on_c, 8, 33, 0
10, 53400, Note_on_c, 8, 38, 89
10, 53445, Note_on_c, 8, 38, 0
10, 53460, Note_on_c, 8, 42, 89
10, 53505, Note_on_c, 8, 42, 0
10, 53520, Note_on_c, 8, 45, 89
10, 53640, Note_on_c, 8, 45, 0
10, 53760, Note_on_c, 8, 45, 89
10, 53880, Note_on_c, 8, 45, 0
10, 53940, Note_on_c, 8, 42, 89
10, 53985, Note_on_c, 8, 42, 0
10, 54000, Note_on_c, 8, 45, 89
10, 54120, Note_on_c, 8, 45, 0
10, 54180, Note_on_c, 8, 42, 89
10, 54225, Note_on_c, 8, 42, 0
10, 54240, Note_on_c, 8, 45, 89
10, 54285, Note_on_c, 8, 45, 0
10, 54300, Note_on_c, 8, 42, 89
10, 54345, Note_on_c, 8, 42, 0
10, 54360, Note_on_c, 8, 39, 89
10, 54405, Note_on_c, 8, 39, 0
10, 54420, Note_on_c, 8, 42, 89
10, 54465, Note_on_c, 8, 42, 0
10, 54480, Note_on_c, 8, 35, 89
10, 54600, Note_on_c, 8, 35, 0
10, 54720, Note_on_c, 8, 36, 55
10, 54840, Note_on_c, 8, 36, 0
10, 55200, Note_on_c, 8, 31, 55
10, 55320, Note_on_c, 8, 31, 0
10, 55680, Note_on_c, 8, 36, 55
10, 55800, Note_on_c, 8, 36, 0
10, 56160, Note_on_c, 8, 31, 55
10, 56280, Note_on_c, 8, 31, 0
10, 56640, Note_on_c, 8, 36, 55
10, 56760, Note_on_c, 8, 36, 0
10, 57120, Note_on_c, 8, 40, 55
10, 57240, Note_on_c, 8, 40, 0
10, 57600, Note_on_c, 8, 33, 55
10, 57720, Note_on_c, 8, 33, 0
10, 58080, Note_on_c, 8, 38, 55
10, 58200, Note_on_c, 8, 38, 0
10, 58560, Note_on_c, 8, 39, 55
10, 59505, Note_on_c, 8, 39, 0
10, 59520, Note_on_c, 8, 38, 53
10, 59640, Note_on_c, 8, 38, 0
10, 59700, Note_on_c, 8, 38, 91
10, 59760, Note_on_c, 8, 38, 0
10, 59760, Note_on_c, 8, 40, 91
10, 59820, Note_on_c, 8, 40, 0
10, 59820, Note_on_c, 8, 42, 91
10, 59880, Note_on_c, 8, 42, 0
10, 59880, Note_on_c, 8, 43, 91
10, 59940, Note_on_c, 8, 43, 0
10, 59940, Note_on_c, 8, 45, 91
10, 60000, Note_on_c, 8, 45, 0
10, 60000, Note_on_c, 8, 48, 91
10, 60060, Note_on_c, 8, 48, 0
10, 60060, Note_on_c, 8, 46, 91
10, 60120, Note_on_c, 8, 46, 0
10, 60180, Note_on_c, 8, 42, 91
10, 60240, Note_on_c, 8, 42, 0
10, 60240, Note_on_c, 8, 43, 91
10, 60300, Note_on_c, 8, 43, 0
10, 60300, Note_on_c, 8, 45, 91
10, 60360, Note_on_c, 8, 45, 0
10, 60360, Note_on_c, 8, 46, 91
10, 60420, Note_on_c, 8, 46, 0
10, 60420, Note_on_c, 8, 49, 91
10, 60480, Note_on_c, 8, 49, 0
10, 60480, Note_on_c, 8, 52, 91
10, 60540, Note_on_c, 8, 52, 0
10, 60540, Note_on_c, 8, 50, 91
10, 60600, Note_on_c, 8, 50, 0
10, 61920, Note_on_c, 8, 38, 53
10, 62400, Note_on_c, 8, 38, 0
10, 62410, Note_on_c, 8, 43, 99
10, 62530, Note_on_c, 8, 43, 0
10, 62590, Note_on_c, 8, 38, 100
10, 62620, Note_on_c, 8, 38, 0
10, 62650, Note_on_c, 8, 43, 100
10, 62770, Note_on_c, 8, 43, 0
10, 62830, Note_on_c, 8, 38, 98
10, 62860, Note_on_c, 8, 38, 0
10, 62890, Note_on_c, 8, 43, 97
10, 62920, Note_on_c, 8, 43, 0
10, 62950, Note_on_c, 8, 38, 97
10, 62980, Note_on_c, 8, 38, 0
10, 63010, Note_on_c, 8, 43, 97
10, 63040, Note_on_c, 8, 43, 0
10, 63070, Note_on_c, 8, 47, 97
10, 63100, Note_on_c, 8, 47, 0
10, 63130, Note_on_c, 8, 50, 97
10, 63250, Note_on_c, 8, 50, 0
10, 63370, Note_on_c, 8, 48, 100
10, 63490, Note_on_c, 8, 48, 0
10, 63550, Note_on_c, 8, 45, 98
10, 63580, Note_on_c, 8, 45, 0
10, 63610, Note_on_c, 8, 48, 97
10, 63730, Note_on_c, 8, 48, 0
10, 63790, Note_on_c, 8, 45, 93
10, 63820, Note_on_c, 8, 45, 0
10, 63850, Note_on_c, 8, 48, 92
10, 63880, Note_on_c, 8, 48, 0
10, 63910, Note_on_c, 8, 45, 91
10, 63940, Note_on_c, 8, 45, 0
10, 63970, Note_on_c, 8, 42, 89
10, 64000, Note_on_c, 8, 42, 0
10, 64030, Note_on_c, 8, 45, 85
10, 64060, Note_on_c, 8, 45, 0
10, 64090, Note_on_c, 8, 38, 85
10, 64210, Note_on_c, 8, 38, 0
10, 64320, Note_on_c, 8, 43, 85
10, 64365, Note_on_c, 8, 43, 0
10, 64380, Note_on_c, 8, 43, 85
10, 64425, Note_on_c, 8, 43, 0
10, 64440, Note_on_c, 8, 43, 85
10, 64485, Note_on_c, 8, 43, 0
10, 64500, Note_on_c, 8, 43, 85
10, 64545, Note_on_c, 8, 43, 0
10, 64560, Note_on_c, 8, 43, 85
10, 64605, Note_on_c, 8, 43, 0
10, 64620, Note_on_c, 8, 43, 85
10, 64665, Note_on_c, 8, 43, 0
10, 64680, Note_on_c, 8, 43, 85
10, 64725, Note_on_c, 8, 43, 0
10, 64740, Note_on_c, 8, 43, 85
10, 64785, Note_on_c, 8, 43, 0
10, 64800, Note_on_c, 8, 43, 85
10, 64845, Note_on_c, 8, 43, 0
10, 64860, Note_on_c, 8, 43, 85
10, 64905, Note_on_c, 8, 43, 0
10, 64920, Note_on_c, 8, 43, 85
10, 64965, Note_on_c, 8, 43, 0
10, 64980, Note_on_c, 8, 43, 85
10, 65025, Note_on_c, 8, 43, 0
10, 65040, Note_on_c, 8, 43, 85
10, 65085, Note_on_c, 8, 43, 0
10, 65100, Note_on_c, 8, 43, 85
10, 65145, Note_on_c, 8, 43, 0
10, 65160, Note_on_c, 8, 43, 85
10, 65205, Note_on_c, 8, 43, 0
10, 65220, Note_on_c, 8, 43, 85
10, 65265, Note_on_c, 8, 43, 0
10, 65280, Note_on_c, 8, 43, 85
10, 65325, Note_on_c, 8, 43, 0
10, 65340, Note_on_c, 8, 43, 85
10, 65385, Note_on_c, 8, 43, 0
10, 65400, Note_on_c, 8, 43, 85
10, 65445, Note_on_c, 8, 43, 0
10, 65460, Note_on_c, 8, 43, 85
10, 65505, Note_on_c, 8, 43, 0
10, 65520, Note_on_c, 8, 43, 85
10, 65565, Note_on_c, 8, 43, 0
10, 65580, Note_on_c, 8, 43, 85
10, 65625, Note_on_c, 8, 43, 0
10, 65640, Note_on_c, 8, 43, 85
10, 65685, Note_on_c, 8, 43, 0
10, 65700, Note_on_c, 8, 43, 85
10, 65745, Note_on_c, 8, 43, 0
10, 65760, Note_on_c, 8, 43, 85
10, 65805, Note_on_c, 8, 43, 0
10, 65820, Note_on_c, 8, 43, 85
10, 65865, Note_on_c, 8, 43, 0
10, 65880, Note_on_c, 8, 43, 85
10, 65925, Note_on_c, 8, 43, 0
10, 65940, Note_on_c, 8, 43, 85
10, 65985, Note_on_c, 8, 43, 0
10, 66000, Note_on_c, 8, 43, 85
10, 66045, Note_on_c, 8, 43, 0
10, 66060, Note_on_c, 8, 43, 85
10, 66105, Note_on_c, 8, 43, 0
10, 66120, Note_on_c, 8, 43, 85
10, 66165, Note_on_c, 8, 43, 0
10, 66180, Note_on_c, 8, 43, 85
10, 66225, Note_on_c, 8, 43, 0
10, 66240, Note_on_c, 8, 43, 85
10, 66285, Note_on_c, 8, 43, 0
10, 66300, Note_on_c, 8, 43, 85
10, 66345, Note_on_c, 8, 43, 0
10, 66360, Note_on_c, 8, 45, 85
10, 66405, Note_on_c, 8, 45, 0
10, 66420, Note_on_c, 8, 45, 85
10, 66465, Note_on_c, 8, 45, 0
10, 66480, Note_on_c, 8, 47, 85
10, 66525, Note_on_c, 8, 47, 0
10, 66540, Note_on_c, 8, 47, 85
10, 66585, Note_on_c, 8, 47, 0
10, 66600, Note_on_c, 8, 42, 85
10, 66645, Note_on_c, 8, 42, 0
10, 66660, Note_on_c, 8, 42, 85
10, 66705, Note_on_c, 8, 42, 0
10, 66720, Note_on_c, 8, 43, 85
10, 66765, Note_on_c, 8, 43, 0
10, 66780, Note_on_c, 8, 43, 85
10, 66825, Note_on_c, 8, 43, 0
10, 66840, Note_on_c, 8, 45, 85
10, 66885, Note_on_c, 8, 45, 0
10, 66900, Note_on_c, 8, 45, 85
10, 66945, Note_on_c, 8, 45, 0
10, 66960, Note_on_c, 8, 47, 85
10, 67080, Note_on_c, 8, 47, 0
10, 67680, Note_on_c, 8, 38, 47
10, 67920, Note_on_c, 8, 38, 0
10, 67920, Note_on_c, 8, 40, 47
10, 68160, Note_on_c, 8, 40, 0
10, 68160, Note_on_c, 8, 36, 47
10, 68250, Note_on_c, 8, 36, 0
10, 68280, Note_on_c, 8, 36, 47
10, 68370, Note_on_c, 8, 36, 0
10, 68400, Note_on_c, 8, 38, 47
10, 68490, Note_on_c, 8, 38, 0
10, 68520, Note_on_c, 8, 38, 47
10, 68610, Note_on_c, 8, 38, 0
10, 68640, Note_on_c, 8, 35, 47
10, 68700, Note_on_c, 8, 35, 0
10, 68760, Note_on_c, 8, 38, 47
10, 68820, Note_on_c, 8, 38, 0
10, 68880, Note_on_c, 8, 43, 47
10, 69000, Note_on_c, 8, 43, 0
10, 69600, Note_on_c, 8, 38, 47
10, 69840, Note_on_c, 8, 38, 0
10, 69840, Note_on_c, 8, 40, 47
10, 70080, Note_on_c, 8, 40, 0
10, 70080, Note_on_c, 8, 36, 47
10, 70170, Note_on_c, 8, 36, 0
10, 70200, Note_on_c, 8, 36, 47
10, 70290, Note_on_c, 8, 36, 0
10, 70320, Note_on_c, 8, 38, 47
10, 70410, Note_on_c, 8, 38, 0
10, 70440, Note_on_c, 8, 38, 47
10, 70530, Note_on_c, 8, 38, 0
10, 70560, Note_on_c, 8, 43, 91
10, 70605, Note_on_c, 8, 43, 0
10, 70620, Note_on_c, 8, 43, 83
10, 70665, Note_on_c, 8, 43, 0
10, 70680, Note_on_c, 8, 43, 83
10, 70725, Note_on_c, 8, 43, 0
10, 70740, Note_on_c, 8, 43, 83
10, 70785, Note_on_c, 8, 43, 0
10, 70800, Note_on_c, 8, 43, 59
10, 70845, Note_on_c, 8, 43, 0
10, 70860, Note_on_c, 8, 43, 59
10, 70905, Note_on_c, 8, 43, 0
10, 70920, Note_on_c, 8, 43, 59
10, 70965, Note_on_c, 8, 43, 0
10, 70980, Note_on_c, 8, 43, 59
10, 71025, Note_on_c, 8, 43, 0
10, 71040, Note_on_c, 8, 43, 92
10, 71085, Note_on_c, 8, 43, 0
10, 71100, Note_on_c, 8, 43, 79
10, 71145, Note_on_c, 8, 43, 0
10, 71160, Note_on_c, 8, 43, 79
10, 71205, Note_on_c, 8, 43, 0
10, 71220, Note_on_c, 8, 43, 79
10, 71265, Note_on_c, 8, 43, 0
10, 71280, Note_on_c, 8, 43, 59
10, 71325, Note_on_c, 8, 43, 0
10, 71340, Note_on_c, 8, 43, 59
10, 71385, Note_on_c, 8, 43, 0
10, 71400, Note_on_c, 8, 43, 59
10, 71445, Note_on_c, 8, 43, 0
10, 71460, Note_on_c, 8, 43, 59
10, 71505, Note_on_c, 8, 43, 0
10, 71520, Note_on_c, 8, 43, 59
10, 71565, Note_on_c, 8, 43, 0
10, 71580, Note_on_c, 8, 43, 40
10, 71625, Note_on_c, 8, 43, 0
10, 71640, Note_on_c, 8, 43, 43
10, 71685, Note_on_c, 8, 43, 0
10, 71700, Note_on_c, 8, 43, 46
10, 71745, Note_on_c, 8, 43, 0
10, 71760, Note_on_c, 8, 43, 49
10, 71805, Note_on_c, 8, 43, 0
10, 71820, Note_on_c, 8, 43, 52
10, 71865, Note_on_c, 8, 43, 0
10, 71880, Note_on_c, 8, 43, 55
10, 71925, Note_on_c, 8, 43, 0
10, 71940, Note_on_c, 8, 43, 58
10, 71985, Note_on_c, 8, 43, 0
10, 72000, Note_on_c, 8, 43, 61
10, 72045, Note_on_c, 8, 43, 0
10, 72060, Note_on_c, 8, 43, 64
10, 72105, Note_on_c, 8, 43, 0
10, 72120, Note_on_c, 8, 42, 67
10, 72165, Note_on_c, 8, 42, 0
10, 72180, Note_on_c, 8, 42, 70
10, 72225, Note_on_c, 8, 42, 0
10, 72240, Note_on_c, 8, 43, 73
10, 72285, Note_on_c, 8, 43, 0
10, 72300, Note_on_c, 8, 43, 76
10, 72345, Note_on_c, 8, 43, 0
10, 72360, Note_on_c, 8, 40, 79
10, 72405, Note_on_c, 8, 40, 0
10, 72420, Note_on_c, 8, 40, 82
10, 72465, Note_on_c, 8, 40, 0
10, 72480, Note_on_c, 8, 38, 85
10, 72525, Note_on_c, 8, 38, 0
10, 72540, Note_on_c, 8, 38, 85
10, 72585, Note_on_c, 8, 38, 0
10, 72600, Note_on_c, 8, 38, 85
10, 72645, Note_on_c, 8, 38, 0
10, 72660, Note_on_c, 8, 38, 85
10, 72705, Note_on_c, 8, 38, 0
10, 72720, Note_on_c, 8, 38, 85
10, 72765, Note_on_c, 8, 38, 0
10, 72780, Note_on_c, 8, 38, 85
10, 72825, Note_on_c, 8, 38, 0
10, 72840, Note_on_c, 8, 38, 85
10, 72885, Note_on_c, 8, 38, 0
10, 72900, Note_on_c, 8, 38, 85
10, 72945, Note_on_c, 8, 38, 0
10, 72960, Note_on_c, 8, 38, 85
10, 73005, Note_on_c, 8, 38, 0
10, 73020, Note_on_c, 8, 38, 85
10, 73065, Note_on_c, 8, 38, 0
10, 73080, Note_on_c, 8, 38, 85
10, 73125, Note_on_c, 8, 38, 0
10, 73140, Note_on_c, 8, 38, 85
10, 73185, Note_on_c, 8, 38, 0
10, 73200, Note_on_c, 8, 38, 85
10, 73245, Note_on_c, 8, 38, 0
10, 73260, Note_on_c, 8, 38, 85
10, 73305, Note_on_c, 8, 38, 0
10, 73320, Note_on_c, 8, 38, 85
10, 73365, Note_on_c, 8, 38, 0
10, 73380, Note_on_c, 8, 38, 85
10, 73425, Note_on_c, 8, 38, 0
10, 73440, Note_on_c, 8, 38, 85
10, 73485, Note_on_c, 8, 38, 0
10, 73500, Note_on_c, 8, 38, 85
10, 73545, Note_on_c, 8, 38, 0
10, 73560, Note_on_c, 8, 38, 85
10, 73605, Note_on_c, 8, 38, 0
10, 73620, Note_on_c, 8, 38, 85
10, 73665, Note_on_c, 8, 38, 0
10, 73680, Note_on_c, 8, 38, 85
10, 73725, Note_on_c, 8, 38, 0
10, 73740, Note_on_c, 8, 38, 85
10, 73785, Note_on_c, 8, 38, 0
10, 73800, Note_on_c, 8, 38, 85
10, 73845, Note_on_c, 8, 38, 0
10, 73860, Note_on_c, 8, 38, 85
10, 73905, Note_on_c, 8, 38, 0
10, 73923, Note_on_c, 8, 38, 85
10, 73968, Note_on_c, 8, 38, 0
10, 73983, Note_on_c, 8, 38, 85
10, 74028, Note_on_c, 8, 38, 0
10, 74043, Note_on_c, 8, 38, 85
10, 74088, Note_on_c, 8, 38, 0
10, 74103, Note_on_c, 8, 38, 85
10, 74148, Note_on_c, 8, 38, 0
10, 74163, Note_on_c, 8, 38, 85
10, 74283, Note_on_c, 8, 38, 0
10, 74760, Note_on_c, 8, 44, 55
10, 74820, Note_on_c, 8, 44, 0
10, 74880, Note_on_c, 8, 45, 55
10, 74940, Note_on_c, 8, 45, 0
10, 75000, Note_on_c, 8, 43, 55
10, 75060, Note_on_c, 8, 43, 0
10, 75120, Note_on_c, 8, 42, 55
10, 75180, Note_on_c, 8, 42, 0
10, 75240, Note_on_c, 8, 38, 55
10, 75300, Note_on_c, 8, 38, 0
10, 75480, Note_on_c, 8, 39, 55
10, 75600, Note_on_c, 8, 39, 0
10, 75600, Note_on_c, 8, 40, 55
10, 75660, Note_on_c, 8, 40, 0
10, 75720, Note_on_c, 8, 36, 55
10, 75780, Note_on_c, 8, 36, 0
10, 75840, Note_on_c, 8, 38, 55
10, 75930, Note_on_c, 8, 38, 0
10, 75960, Note_on_c, 8, 50, 55
10, 76140, Note_on_c, 8, 50, 0
10, 76140, Note_on_c, 8, 49, 55
10, 76200, Note_on_c, 8, 49, 0
10, 76200, Note_on_c, 8, 48, 55
10, 76260, Note_on_c, 8, 48, 0
10, 76260, Note_on_c, 8, 45, 55
10, 76320, Note_on_c, 8, 45, 0
10, 76320, Note_on_c, 8, 43, 55
10, 76380, Note_on_c, 8, 43, 0
10, 76440, Note_on_c, 8, 45, 55
10, 76500, Note_on_c, 8, 45, 0
10, 76560, Note_on_c, 8, 47, 55
10, 76620, Note_on_c, 8, 47, 0
10, 76680, Note_on_c, 8, 44, 55
10, 76740, Note_on_c, 8, 44, 0
10, 76800, Note_on_c, 8, 45, 55
10, 76860, Note_on_c, 8, 45, 0
10, 76920, Note_on_c, 8, 43, 55
10, 76980, Note_on_c, 8, 43, 0
10, 77040, Note_on_c, 8, 42, 55
10, 77100, Note_on_c, 8, 42, 0
10, 77160, Note_on_c, 8, 38, 55
10, 77220, Note_on_c, 8, 38, 0
10, 77280, Note_on_c, 8, 40, 55
10, 77340, Note_on_c, 8, 40, 0
10, 77400, Note_on_c, 8, 48, 55
10, 77460, Note_on_c, 8, 48, 0
10, 77520, Note_on_c, 8, 50, 55
10, 77580, Note_on_c, 8, 50, 0
10, 77640, Note_on_c, 8, 38, 55
10, 77700, Note_on_c, 8, 38, 0
10, 77760, Note_on_c, 8, 31, 55
10, 77880, Note_on_c, 8, 31, 0
10, 78240, Note_on_c, 8, 38, 55
10, 78360, Note_on_c, 8, 38, 0
10, 78720, Note_on_c, 8, 31, 55
10, 78840, Note_on_c, 8, 31, 0
10, 79200, Note_on_c, 8, 38, 55
10, 79320, Note_on_c, 8, 38, 0
10, 79740, Note_on_c, 8, 43, 55
10, 79785, Note_on_c, 8, 43, 0
10, 79800, Note_on_c, 8, 47, 55
10, 79845, Note_on_c, 8, 47, 0
10, 79860, Note_on_c, 8, 45, 55
10, 79905, Note_on_c, 8, 45, 0
10, 79920, Note_on_c, 8, 44, 55
10, 79965, Note_on_c, 8, 44, 0
10, 79980, Note_on_c, 8, 40, 55
10, 80025, Note_on_c, 8, 40, 0
10, 80040, Note_on_c, 8, 42, 55
10, 80085, Note_on_c, 8, 42, 0
10, 80100, Note_on_c, 8, 43, 55
10, 80145, Note_on_c, 8, 43, 0
10, 80160, Note_on_c, 8, 45, 85
10, 80205, Note_on_c, 8, 45, 0
10, 80220, Note_on_c, 8, 48, 85
10, 80265, Note_on_c, 8, 48, 0
10, 80280, Note_on_c, 8, 45, 85
10, 80325, Note_on_c, 8, 45, 0
10, 80340, Note_on_c, 8, 43, 85
10, 80385, Note_on_c, 8, 43, 0
10, 80400, Note_on_c, 8, 42, 85
10, 80445, Note_on_c, 8, 42, 0
10, 80460, Note_on_c, 8, 38, 85
10, 80505, Note_on_c, 8, 38, 0
10, 80520, Note_on_c, 8, 40, 85
10, 80565, Note_on_c, 8, 40, 0
10, 80580, Note_on_c, 8, 42, 85
10, 80625, Note_on_c, 8, 42, 0
10, 80640, Note_on_c, 8, 43, 85
10, 80685, Note_on_c, 8, 43, 0
10, 80700, Note_on_c, 8, 43, 85
10, 80745, Note_on_c, 8, 43, 0
10, 80760, Note_on_c, 8, 45, 85
10, 80805, Note_on_c, 8, 45, 0
10, 80820, Note_on_c, 8, 47, 85
10, 80865, Note_on_c, 8, 47, 0
10, 80880, Note_on_c, 8, 48, 85
10, 80925, Note_on_c, 8, 48, 0
10, 80940, Note_on_c, 8, 48, 85
10, 80985, Note_on_c, 8, 48, 0
10, 81000, Note_on_c, 8, 48, 85
10, 81045, Note_on_c, 8, 48, 0
10, 81060, Note_on_c, 8, 48, 85
10, 81105, Note_on_c, 8, 48, 0
10, 81120, Note_on_c, 8, 50, 85
10, 81165, Note_on_c, 8, 50, 0
10, 81180, Note_on_c, 8, 50, 85
10, 81225, Note_on_c, 8, 50, 0
10, 81240, Note_on_c, 8, 50, 85
10, 81285, Note_on_c, 8, 50, 0
10, 81300, Note_on_c, 8, 50, 85
10, 81345, Note_on_c, 8, 50, 0
10, 81360, Note_on_c, 8, 38, 85
10, 81405, Note_on_c, 8, 38, 0
10, 81420, Note_on_c, 8, 38, 85
10, 81465, Note_on_c, 8, 38, 0
10, 81480, Note_on_c, 8, 38, 85
10, 81525, Note_on_c, 8, 38, 0
10, 81540, Note_on_c, 8, 38, 85
10, 81585, Note_on_c, 8, 38, 0
10, 81600, Note_on_c, 8, 43, 85
10, 81720, Note_on_c, 8, 43, 0
10, 82080, Note_on_c, 8, 38, 55
10, 82200, Note_on_c, 8, 38, 0
10, 82560, Note_on_c, 8, 43, 55
10, 82680, Note_on_c, 8, 43, 0
10, 83040, Note_on_c, 8, 38, 55
10, 83160, Note_on_c, 8, 38, 0
10, 83580, Note_on_c, 8, 43, 85
10, 83625, Note_on_c, 8, 43, 0
10, 83640, Note_on_c, 8, 47, 85
10, 83685, Note_on_c, 8, 47, 0
10, 83700, Note_on_c, 8, 45, 85
10, 83745, Note_on_c, 8, 45, 0
10, 83760, Note_on_c, 8, 44, 85
10, 83805, Note_on_c, 8, 44, 0
10, 83820, Note_on_c, 8, 40, 85
10, 83865, Note_on_c, 8, 40, 0
10, 83880, Note_on_c, 8, 42, 85
10, 83925, Note_on_c, 8, 42, 0
10, 83940, Note_on_c, 8, 43, 85
10, 83985, Note_on_c, 8, 43, 0
10, 84000, Note_on_c, 8, 45, 85
10, 84045, Note_on_c, 8, 45, 0
10, 84060, Note_on_c, 8, 48, 85
10, 84105, Note_on_c, 8, 48, 0
10, 84120, Note_on_c, 8, 45, 85
10, 84165, Note_on_c, 8, 45, 0
10, 84180, Note_on_c, 8, 43, 85
10, 84225, Note_on_c, 8, 43, 0
10, 84240, Note_on_c, 8, 42, 85
10, 84285, Note_on_c, 8, 42, 0
10, 84300, Note_on_c, 8, 38, 85
10, 84345, Note_on_c, 8, 38, 0
10, 84360, Note_on_c, 8, 40, 85
10, 84405, Note_on_c, 8, 40, 0
10, 84420, Note_on_c, 8, 42, 85
10, 84465, Note_on_c, 8, 42, 0
10, 84480, Note_on_c, 8, 43, 85
10, 84525, Note_on_c, 8, 43, 0
10, 84540, Note_on_c, 8, 43, 85
10, 84585, Note_on_c, 8, 43, 0
10, 84600, Note_on_c, 8, 45, 85
10, 84645, Note_on_c, 8, 45, 0
10, 84660, Note_on_c, 8, 47, 85
10, 84705, Note_on_c, 8, 47, 0
10, 84720, Note_on_c, 8, 48, 85
10, 84765, Note_on_c, 8, 48, 0
10, 84780, Note_on_c, 8, 48, 85
10, 84825, Note_on_c, 8, 48, 0
10, 84840, Note_on_c, 8, 48, 85
10, 84885, Note_on_c, 8, 48, 0
10, 84900, Note_on_c, 8, 48, 85
10, 84945, Note_on_c, 8, 48, 0
10, 84960, Note_on_c, 8, 50, 85
10, 85005, Note_on_c, 8, 50, 0
10, 85020, Note_on_c, 8, 50, 85
10, 85065, Note_on_c, 8, 50, 0
10, 85080, Note_on_c, 8, 50, 85
10, 85125, Note_on_c, 8, 50, 0
10, 85140, Note_on_c, 8, 50, 85
10, 85185, Note_on_c, 8, 50, 0
10, 85200, Note_on_c, 8, 38, 85
10, 85245, Note_on_c, 8, 38, 0
10, 85260, Note_on_c, 8, 38, 85
10, 85305, Note_on_c, 8, 38, 0
10, 85320, Note_on_c, 8, 38, 85
10, 85365, Note_on_c, 8, 38, 0
10, 85380, Note_on_c, 8, 38, 85
10, 85425, Note_on_c, 8, 38, 0
10, 85442, Note_on_c, 8, 43, 85
10, 85487, Note_on_c, 8, 43, 0
10, 85502, Note_on_c, 8, 38, 85
10, 85547, Note_on_c, 8, 38, 0
10, 85562, Note_on_c, 8, 40, 85
10, 85607, Note_on_c, 8, 40, 0
10, 85622, Note_on_c, 8, 42, 85
10, 85667, Note_on_c, 8, 42, 0
10, 85682, Note_on_c, 8, 43, 85
10, 85727, Note_on_c, 8, 43, 0
10, 85742, Note_on_c, 8, 43, 85
10, 85787, Note_on_c, 8, 43, 0
10, 85802, Note_on_c, 8, 45, 85
10, 85847, Note_on_c, 8, 45, 0
10, 85862, Note_on_c, 8, 45, 85
10, 85907, Note_on_c, 8, 45, 0
10, 85922, Note_on_c, 8, 47, 85
10, 85967, Note_on_c, 8, 47, 0
10, 85982, Note_on_c, 8, 42, 85
10, 86027, Note_on_c, 8, 42, 0
10, 86042, Note_on_c, 8, 43, 85
10, 86087, Note_on_c, 8, 43, 0
10, 86102, Note_on_c, 8, 45, 85
10, 86147, Note_on_c, 8, 45, 0
10, 86162, Note_on_c, 8, 47, 85
10, 86207, Note_on_c, 8, 47, 0
10, 86222, Note_on_c, 8, 47, 85
10, 86267, Note_on_c, 8, 47, 0
10, 86282, Note_on_c, 8, 48, 85
10, 86327, Note_on_c, 8, 48, 0
10, 86342, Note_on_c, 8, 48, 85
10, 86387, Note_on_c, 8, 48, 0
10, 86400, Note_on_c, 8, 50, 85
10, 86445, Note_on_c, 8, 50, 0
10, 86460, Note_on_c, 8, 50, 85
10, 86505, Note_on_c, 8, 50, 0
10, 86520, Note_on_c, 8, 51, 85
10, 86565, Note_on_c, 8, 51, 0
10, 86580, Note_on_c, 8, 51, 85
10, 86625, Note_on_c, 8, 51, 0
10, 86640, Note_on_c, 8, 52, 85
10, 86760, Note_on_c, 8, 52, 0
10, 86880, Note_on_c, 8, 36, 70
10, 87120, Note_on_c, 8, 36, 0
10, 87120, Note_on_c, 8, 38, 70
10, 87360, Note_on_c, 8, 38, 0
10, 87360, Note_on_c, 8, 31, 70
10, 87480, Note_on_c, 8, 31, 0
10, 87840, Note_on_c, 8, 36, 70
10, 88080, Note_on_c, 8, 36, 0
10, 88080, Note_on_c, 8, 38, 70
10, 88320, Note_on_c, 8, 38, 0
10, 88320, Note_on_c, 8, 31, 70
10, 88440, Note_on_c, 8, 31, 0
10, 88800, Note_on_c, 8, 36, 80
10, 88920, Note_on_c, 8, 36, 0
10, 89040, Note_on_c, 8, 38, 102
10, 89160, Note_on_c, 8, 38, 0
10, 89280, Note_on_c, 8, 31, 99
10, 89325, Note_on_c, 8, 31, 0
10, 89340, Note_on_c, 8, 31, 91
10, 89385, Note_on_c, 8, 31, 0
10, 89400, Note_on_c, 8, 31, 90
10, 89445, Note_on_c, 8, 31, 0
10, 89460, Note_on_c, 8, 31, 90
10, 89505, Note_on_c, 8, 31, 0
10, 89520, Note_on_c, 8, 31, 90
10, 89565, Note_on_c, 8, 31, 0
10, 89580, Note_on_c, 8, 31, 90
10, 89625, Note_on_c, 8, 31, 0
10, 89640, Note_on_c, 8, 31, 90
10, 89685, Note_on_c, 8, 31, 0
10, 89700, Note_on_c, 8, 31, 90
10, 89745, Note_on_c, 8, 31, 0
10, 89760, Note_on_c, 8, 31, 90
10, 89805, Note_on_c, 8, 31, 0
10, 89820, Note_on_c, 8, 31, 92
10, 89865, Note_on_c, 8, 31, 0
10, 89880, Note_on_c, 8, 31, 92
10, 89925, Note_on_c, 8, 31, 0
10, 89940, Note_on_c, 8, 31, 92
10, 89985, Note_on_c, 8, 31, 0
10, 90000, Note_on_c, 8, 31, 92
10, 90045, Note_on_c, 8, 31, 0
10, 90060, Note_on_c, 8, 31, 92
10, 90105, Note_on_c, 8, 31, 0
10, 90120, Note_on_c, 8, 31, 92
10, 90165, Note_on_c, 8, 31, 0
10, 90180, Note_on_c, 8, 31, 92
10, 90225, Note_on_c, 8, 31, 0
10, 90240, Note_on_c, 8, 31, 93
10, 90285, Note_on_c, 8, 31, 0
10, 90300, Note_on_c, 8, 31, 92
10, 90345, Note_on_c, 8, 31, 0
10, 90360, Note_on_c, 8, 31, 92
10, 90405, Note_on_c, 8, 31, 0
10, 90420, Note_on_c, 8, 31, 92
10, 90465, Note_on_c, 8, 31, 0
10, 90480, Note_on_c, 8, 31, 94
10, 90525, Note_on_c, 8, 31, 0
10, 90540, Note_on_c, 8, 31, 94
10, 90585, Note_on_c, 8, 31, 0
10, 90600, Note_on_c, 8, 31, 94
10, 90645, Note_on_c, 8, 31, 0
10, 90660, Note_on_c, 8, 31, 93
10, 90705, Note_on_c, 8, 31, 0
10, 90720, Note_on_c, 8, 31, 92
10, 90765, Note_on_c, 8, 31, 0
10, 90780, Note_on_c, 8, 31, 92
10, 90825, Note_on_c, 8, 31, 0
10, 90840, Note_on_c, 8, 31, 92
10, 90885, Note_on_c, 8, 31, 0
10, 90900, Note_on_c, 8, 31, 92
10, 90945, Note_on_c, 8, 31, 0
10, 90960, Note_on_c, 8, 31, 92
10, 91005, Note_on_c, 8, 31, 0
10, 91020, Note_on_c, 8, 31, 92
10, 91065, Note_on_c, 8, 31, 0
10, 91080, Note_on_c, 8, 31, 93
10, 91125, Note_on_c, 8, 31, 0
10, 91140, Note_on_c, 8, 31, 95
10, 91185, Note_on_c, 8, 31, 0
10, 91200, Note_on_c, 8, 31, 98
10, 91245, Note_on_c, 8, 31, 0
10, 91260, Note_on_c, 8, 35, 94
10, 91305, Note_on_c, 8, 35, 0
10, 91320, Note_on_c, 8, 38, 94
10, 91365, Note_on_c, 8, 38, 0
10, 91380, Note_on_c, 8, 43, 94
10, 91425, Note_on_c, 8, 43, 0
10, 91440, Note_on_c, 8, 47, 94
10, 91485, Note_on_c, 8, 47, 0
10, 91500, Note_on_c, 8, 43, 94
10, 91545, Note_on_c, 8, 43, 0
10, 91560, Note_on_c, 8, 50, 94
10, 91605, Note_on_c, 8, 50, 0
10, 91620, Note_on_c, 8, 47, 94
10, 91665, Note_on_c, 8, 47, 0
10, 91680, Note_on_c, 8, 43, 94
10, 91780, Note_on_c, 8, 43, 0
10, 91800, Note_on_c, 8, 31, 95
10, 91860, Note_on_c, 8, 31, 0
10, 91890, Note_on_c, 8, 31, 97
10, 91905, Note_on_c, 8, 31, 0
10, 91920, Note_on_c, 8, 31, 97
10, 92040, Note_on_c, 8, 31, 0
10, 92040, End_track
11, 0, Start_track
11, 0, MIDI_port, 0
11, 0, Title_t, "J. Frimodig"
11, 0, Program_c, 10, 48
11, 0, Control_c, 10, 7, 121
11, 0, Control_c, 10, 10, 24
11, 0, Note_on_c, 10, 62, 85
11, 0, Note_on_c, 10, 79, 85
11, 0, Note_on_c, 10, 71, 85
11, 120, Note_on_c, 10, 71, 0
11, 120, Note_on_c, 10, 79, 0
11, 120, Note_on_c, 10, 62, 0
11, 180, Note_on_c, 10, 74, 85
11, 210, Note_on_c, 10, 74, 0
11, 240, Note_on_c, 10, 79, 85
11, 360, Note_on_c, 10, 79, 0
11, 420, Note_on_c, 10, 74, 85
11, 450, Note_on_c, 10, 74, 0
11, 480, Note_on_c, 10, 79, 85
11, 510, Note_on_c, 10, 79, 0
11, 540, Note_on_c, 10, 74, 85
11, 570, Note_on_c, 10, 74, 0
11, 600, Note_on_c, 10, 79, 85
11, 630, Note_on_c, 10, 79, 0
11, 660, Note_on_c, 10, 83, 85
11, 690, Note_on_c, 10, 83, 0
11, 720, Note_on_c, 10, 86, 85
11, 840, Note_on_c, 10, 86, 0
11, 960, Note_on_c, 10, 84, 85
11, 1080, Note_on_c, 10, 84, 0
11, 1140, Note_on_c, 10, 81, 82
11, 1170, Note_on_c, 10, 81, 0
11, 1200, Note_on_c, 10, 84, 85
11, 1320, Note_on_c, 10, 84, 0
11, 1380, Note_on_c, 10, 81, 79
11, 1410, Note_on_c, 10, 81, 0
11, 1440, Note_on_c, 10, 84, 85
11, 1470, Note_on_c, 10, 84, 0
11, 1500, Note_on_c, 10, 81, 80
11, 1530, Note_on_c, 10, 81, 0
11, 1560, Note_on_c, 10, 78, 85
11, 1590, Note_on_c, 10, 78, 0
11, 1620, Note_on_c, 10, 81, 77
11, 1650, Note_on_c, 10, 81, 0
11, 1680, Note_on_c, 10, 74, 85
11, 1800, Note_on_c, 10, 74, 0
11, 1920, Note_on_c, 10, 62, 85
11, 1920, Note_on_c, 10, 79, 85
11, 1920, Note_on_c, 10, 71, 85
11, 1980, Note_on_c, 10, 71, 0
11, 1980, Note_on_c, 10, 79, 0
11, 1980, Note_on_c, 10, 62, 0
11, 2040, Note_on_c, 10, 79, 85
11, 2220, Note_on_c, 10, 79, 0
11, 2220, Note_on_c, 10, 83, 89
11, 2280, Note_on_c, 10, 83, 0
11, 2280, Note_on_c, 10, 81, 94
11, 2310, Note_on_c, 10, 81, 0
11, 2340, Note_on_c, 10, 79, 97
11, 2370, Note_on_c, 10, 79, 0
11, 2400, Note_on_c, 10, 79, 95
11, 2415, Note_on_c, 10, 79, 0
11, 2415, Note_on_c, 10, 81, 95
11, 2430, Note_on_c, 10, 81, 0
11, 2430, Note_on_c, 10, 79, 95
11, 2445, Note_on_c, 10, 79, 0
11, 2445, Note_on_c, 10, 81, 94
11, 2460, Note_on_c, 10, 81, 0
11, 2460, Note_on_c, 10, 78, 94
11, 2510, Note_on_c, 10, 78, 0
11, 2520, Note_on_c, 10, 78, 88
11, 2700, Note_on_c, 10, 78, 0
11, 2700, Note_on_c, 10, 81, 85
11, 2760, Note_on_c, 10, 81, 0
11, 2760, Note_on_c, 10, 84, 85
11, 2790, Note_on_c, 10, 84, 0
11, 2820, Note_on_c, 10, 78, 85
11, 2850, Note_on_c, 10, 78, 0
11, 2880, Note_on_c, 10, 81, 85
11, 2940, Note_on_c, 10, 81, 0
11, 2940, Note_on_c, 10, 79, 85
11, 2970, Note_on_c, 10, 79, 0
11, 3000, Note_on_c, 10, 79, 85
11, 3180, Note_on_c, 10, 79, 0
11, 3180, Note_on_c, 10, 83, 86
11, 3240, Note_on_c, 10, 83, 0
11, 3240, Note_on_c, 10, 81, 86
11, 3270, Note_on_c, 10, 81, 0
11, 3300, Note_on_c, 10, 79, 89
11, 3330, Note_on_c, 10, 79, 0
11, 3360, Note_on_c, 10, 79, 91
11, 3375, Note_on_c, 10, 79, 0
11, 3375, Note_on_c, 10, 81, 91
11, 3390, Note_on_c, 10, 81, 0
11, 3390, Note_on_c, 10, 79, 92
11, 3405, Note_on_c, 10, 79, 0
11, 3405, Note_on_c, 10, 81, 94
11, 3420, Note_on_c, 10, 81, 0
11, 3420, Note_on_c, 10, 78, 94
11, 3470, Note_on_c, 10, 78, 0
11, 3480, Note_on_c, 10, 78, 94
11, 3660, Note_on_c, 10, 78, 0
11, 3660, Note_on_c, 10, 81, 85
11, 3720, Note_on_c, 10, 81, 0
11, 3720, Note_on_c, 10, 84, 85
11, 3750, Note_on_c, 10, 84, 0
11, 3780, Note_on_c, 10, 78, 85
11, 3810, Note_on_c, 10, 78, 0
11, 3840, Note_on_c, 10, 79, 85
11, 3870, Note_on_c, 10, 79, 0
11, 3900, Note_on_c, 10, 79, 85
11, 3930, Note_on_c, 10, 79, 0
11, 3960, Note_on_c, 10, 79, 85
11, 3990, Note_on_c, 10, 79, 0
11, 3990, Note_on_c, 10, 78, 85
11, 4020, Note_on_c, 10, 78, 0
11, 4020, Note_on_c, 10, 76, 85
11, 4050, Note_on_c, 10, 76, 0
11, 4050, Note_on_c, 10, 78, 85
11, 4080, Note_on_c, 10, 78, 0
11, 4080, Note_on_c, 10, 79, 85
11, 4110, Note_on_c, 10, 79, 0
11, 4140, Note_on_c, 10, 79, 85
11, 4170, Note_on_c, 10, 79, 0
11, 4200, Note_on_c, 10, 83, 85
11, 4230, Note_on_c, 10, 83, 0
11, 4230, Note_on_c, 10, 81, 85
11, 4260, Note_on_c, 10, 81, 0
11, 4260, Note_on_c, 10, 79, 85
11, 4290, Note_on_c, 10, 79, 0
11, 4290, Note_on_c, 10, 81, 85
11, 4320, Note_on_c, 10, 81, 0
11, 4320, Note_on_c, 10, 83, 86
11, 4350, Note_on_c, 10, 83, 0
11, 4380, Note_on_c, 10, 83, 86
11, 4410, Note_on_c, 10, 83, 0
11, 4440, Note_on_c, 10, 86, 83
11, 4470, Note_on_c, 10, 86, 0
11, 4470, Note_on_c, 10, 84, 80
11, 4500, Note_on_c, 10, 84, 0
11, 4500, Note_on_c, 10, 83, 80
11, 4530, Note_on_c, 10, 83, 0
11, 4530, Note_on_c, 10, 84, 79
11, 4560, Note_on_c, 10, 84, 0
11, 4560, Note_on_c, 10, 86, 76
11, 4680, Note_on_c, 10, 86, 0
11, 4800, Note_on_c, 10, 74, 41
11, 5040, Note_on_c, 10, 74, 0
11, 5040, Note_on_c, 10, 76, 47
11, 5280, Note_on_c, 10, 76, 0
11, 5280, Note_on_c, 10, 74, 47
11, 5310, Note_on_c, 10, 74, 0
11, 5310, Note_on_c, 10, 72, 47
11, 5390, Note_on_c, 10, 72, 0
11, 5400, Note_on_c, 10, 72, 47
11, 5520, Note_on_c, 10, 72, 0
11, 5520, Note_on_c, 10, 72, 47
11, 5550, Note_on_c, 10, 72, 0
11, 5550, Note_on_c, 10, 71, 47
11, 5630, Note_on_c, 10, 71, 0
11, 5640, Note_on_c, 10, 71, 47
11, 5760, Note_on_c, 10, 71, 0
11, 5760, Note_on_c, 10, 71, 47
11, 5790, Note_on_c, 10, 71, 0
11, 5790, Note_on_c, 10, 69, 47
11, 5870, Note_on_c, 10, 69, 0
11, 5880, Note_on_c, 10, 69, 47
11, 6000, Note_on_c, 10, 69, 0
11, 6000, Note_on_c, 10, 67, 47
11, 6060, Note_on_c, 10, 67, 0
11, 6060, Note_on_c, 10, 66, 47
11, 6090, Note_on_c, 10, 66, 0
11, 6120, Note_on_c, 10, 64, 47
11, 6150, Note_on_c, 10, 64, 0
11, 6180, Note_on_c, 10, 66, 47
11, 6210, Note_on_c, 10, 66, 0
11, 6240, Note_on_c, 10, 67, 47
11, 6300, Note_on_c, 10, 67, 0
11, 6360, Note_on_c, 10, 69, 47
11, 6420, Note_on_c, 10, 69, 0
11, 6480, Note_on_c, 10, 71, 47
11, 6540, Note_on_c, 10, 71, 0
11, 6720, Note_on_c, 10, 74, 47
11, 6960, Note_on_c, 10, 74, 0
11, 6960, Note_on_c, 10, 76, 47
11, 7200, Note_on_c, 10, 76, 0
11, 7200, Note_on_c, 10, 74, 47
11, 7260, Note_on_c, 10, 74, 0
11, 7260, Note_on_c, 10, 72, 47
11, 7290, Note_on_c, 10, 72, 0
11, 7320, Note_on_c, 10, 72, 47
11, 7350, Note_on_c, 10, 72, 0
11, 7380, Note_on_c, 10, 72, 47
11, 7410, Note_on_c, 10, 72, 0
11, 7440, Note_on_c, 10, 72, 47
11, 7500, Note_on_c, 10, 72, 0
11, 7500, Note_on_c, 10, 71, 47
11, 7530, Note_on_c, 10, 71, 0
11, 7560, Note_on_c, 10, 71, 47
11, 7590, Note_on_c, 10, 71, 0
11, 7620, Note_on_c, 10, 71, 47
11, 7650, Note_on_c, 10, 71, 0
11, 7680, Note_on_c, 10, 71, 47
11, 7740, Note_on_c, 10, 71, 0
11, 7740, Note_on_c, 10, 69, 47
11, 7770, Note_on_c, 10, 69, 0
11, 7800, Note_on_c, 10, 69, 47
11, 7845, Note_on_c, 10, 69, 0
11, 7860, Note_on_c, 10, 69, 47
11, 7905, Note_on_c, 10, 69, 0
11, 7920, Note_on_c, 10, 67, 47
11, 7980, Note_on_c, 10, 67, 0
11, 7980, Note_on_c, 10, 66, 47
11, 8040, Note_on_c, 10, 66, 0
11, 8040, Note_on_c, 10, 64, 47
11, 8100, Note_on_c, 10, 64, 0
11, 8100, Note_on_c, 10, 66, 47
11, 8160, Note_on_c, 10, 66, 0
11, 8160, Note_on_c, 10, 55, 85
11, 8160, Note_on_c, 10, 67, 85
11, 8460, Note_on_c, 10, 67, 0
11, 8460, Note_on_c, 10, 55, 0
11, 8460, Note_on_c, 10, 67, 61
11, 8475, Note_on_c, 10, 67, 0
11, 8475, Note_on_c, 10, 69, 61
11, 8490, Note_on_c, 10, 69, 0
11, 8490, Note_on_c, 10, 66, 61
11, 8505, Note_on_c, 10, 66, 0
11, 8505, Note_on_c, 10, 67, 61
11, 8520, Note_on_c, 10, 67, 0
11, 8520, Note_on_c, 10, 69, 61
11, 8580, Note_on_c, 10, 69, 0
11, 8580, Note_on_c, 10, 66, 61
11, 8640, Note_on_c, 10, 66, 0
11, 8640, Note_on_c, 10, 71, 85
11, 8940, Note_on_c, 10, 71, 0
11, 8940, Note_on_c, 10, 71, 61
11, 8955, Note_on_c, 10, 71, 0
11, 8955, Note_on_c, 10, 72, 61
11, 8970, Note_on_c, 10, 72, 0
11, 8970, Note_on_c, 10, 69, 61
11, 8985, Note_on_c, 10, 69, 0
11, 8985, Note_on_c, 10, 71, 61
11, 9000, Note_on_c, 10, 71, 0
11, 9000, Note_on_c, 10, 72, 61
11, 9060, Note_on_c, 10, 72, 0
11, 9060, Note_on_c, 10, 69, 61
11, 9120, Note_on_c, 10, 69, 0
11, 9120, Note_on_c, 10, 74, 46
11, 9140, Note_on_c, 10, 74, 0
11, 9150, Note_on_c, 10, 74, 46
11, 9170, Note_on_c, 10, 74, 0
11, 9180, Note_on_c, 10, 74, 47
11, 9200, Note_on_c, 10, 74, 0
11, 9210, Note_on_c, 10, 74, 47
11, 9230, Note_on_c, 10, 74, 0
11, 9240, Note_on_c, 10, 74, 49
11, 9260, Note_on_c, 10, 74, 0
11, 9270, Note_on_c, 10, 74, 50
11, 9290, Note_on_c, 10, 74, 0
11, 9300, Note_on_c, 10, 74, 50
11, 9320, Note_on_c, 10, 74, 0
11, 9330, Note_on_c, 10, 74, 52
11, 9350, Note_on_c, 10, 74, 0
11, 9360, Note_on_c, 10, 76, 53
11, 9380, Note_on_c, 10, 76, 0
11, 9390, Note_on_c, 10, 76, 53
11, 9410, Note_on_c, 10, 76, 0
11, 9420, Note_on_c, 10, 76, 55
11, 9440, Note_on_c, 10, 76, 0
11, 9450, Note_on_c, 10, 76, 56
11, 9470, Note_on_c, 10, 76, 0
11, 9480, Note_on_c, 10, 78, 56
11, 9500, Note_on_c, 10, 78, 0
11, 9510, Note_on_c, 10, 78, 58
11, 9530, Note_on_c, 10, 78, 0
11, 9540, Note_on_c, 10, 78, 58
11, 9560, Note_on_c, 10, 78, 0
11, 9570, Note_on_c, 10, 78, 59
11, 9590, Note_on_c, 10, 78, 0
11, 9600, Note_on_c, 10, 79, 61
11, 9620, Note_on_c, 10, 79, 0
11, 9630, Note_on_c, 10, 79, 61
11, 9650, Note_on_c, 10, 79, 0
11, 9660, Note_on_c, 10, 79, 62
11, 9680, Note_on_c, 10, 79, 0
11, 9690, Note_on_c, 10, 79, 64
11, 9710, Note_on_c, 10, 79, 0
11, 9720, Note_on_c, 10, 81, 64
11, 9740, Note_on_c, 10, 81, 0
11, 9750, Note_on_c, 10, 81, 65
11, 9770, Note_on_c, 10, 81, 0
11, 9780, Note_on_c, 10, 81, 67
11, 9800, Note_on_c, 10, 81, 0
11, 9810, Note_on_c, 10, 81, 67
11, 9830, Note_on_c, 10, 81, 0
11, 9840, Note_on_c, 10, 83, 68
11, 9860, Note_on_c, 10, 83, 0
11, 9870, Note_on_c, 10, 83, 68
11, 9890, Note_on_c, 10, 83, 0
11, 9900, Note_on_c, 10, 83, 70
11, 9920, Note_on_c, 10, 83, 0
11, 9930, Note_on_c, 10, 83, 71
11, 9950, Note_on_c, 10, 83, 0
11, 9960, Note_on_c, 10, 85, 71
11, 9980, Note_on_c, 10, 85, 0
11, 9990, Note_on_c, 10, 85, 73
11, 10010, Note_on_c, 10, 85, 0
11, 10020, Note_on_c, 10, 85, 74
11, 10040, Note_on_c, 10, 85, 0
11, 10050, Note_on_c, 10, 85, 74
11, 10070, Note_on_c, 10, 85, 0
11, 10080, Note_on_c, 10, 86, 85
11, 10260, Note_on_c, 10, 86, 0
11, 10260, Note_on_c, 10, 81, 85
11, 10320, Note_on_c, 10, 81, 0
11, 10320, Note_on_c, 10, 85, 94
11, 10410, Note_on_c, 10, 85, 0
11, 10410, Note_on_c, 10, 81, 85
11, 10440, Note_on_c, 10, 81, 0
11, 10440, Note_on_c, 10, 85, 85
11, 10530, Note_on_c, 10, 85, 0
11, 10530, Note_on_c, 10, 81, 85
11, 10560, Note_on_c, 10, 81, 0
11, 10560, Note_on_c, 10, 86, 85
11, 10740, Note_on_c, 10, 86, 0
11, 10740, Note_on_c, 10, 81, 85
11, 10800, Note_on_c, 10, 81, 0
11, 10800, Note_on_c, 10, 85, 85
11, 10890, Note_on_c, 10, 85, 0
11, 10890, Note_on_c, 10, 81, 85
11, 10920, Note_on_c, 10, 81, 0
11, 10920, Note_on_c, 10, 85, 85
11, 11010, Note_on_c, 10, 85, 0
11, 11010, Note_on_c, 10, 81, 85
11, 11040, Note_on_c, 10, 81, 0
11, 11040, Note_on_c, 10, 86, 85
11, 11070, Note_on_c, 10, 86, 0
11, 11100, Note_on_c, 10, 78, 85
11, 11100, Note_on_c, 10, 86, 85
11, 11190, Note_on_c, 10, 86, 0
11, 11190, Note_on_c, 10, 78, 0
11, 11220, Note_on_c, 10, 78, 85
11, 11220, Note_on_c, 10, 86, 85
11, 11310, Note_on_c, 10, 86, 0
11, 11310, Note_on_c, 10, 78, 0
11, 11340, Note_on_c, 10, 78, 85
11, 11340, Note_on_c, 10, 86, 85
11, 11430, Note_on_c, 10, 86, 0
11, 11430, Note_on_c, 10, 78, 0
11, 11460, Note_on_c, 10, 78, 85
11, 11460, Note_on_c, 10, 86, 85
11, 11520, Note_on_c, 10, 78, 0
11, 11520, Note_on_c, 10, 76, 85
11, 11550, Note_on_c, 10, 76, 0
11, 11550, Note_on_c, 10, 86, 0
11, 11580, Note_on_c, 10, 76, 85
11, 11580, Note_on_c, 10, 86, 85
11, 11670, Note_on_c, 10, 86, 0
11, 11670, Note_on_c, 10, 76, 0
11, 11700, Note_on_c, 10, 76, 85
11, 11700, Note_on_c, 10, 86, 85
11, 11790, Note_on_c, 10, 86, 0
11, 11790, Note_on_c, 10, 76, 0
11, 11820, Note_on_c, 10, 76, 85
11, 11820, Note_on_c, 10, 86, 85
11, 11910, Note_on_c, 10, 86, 0
11, 11910, Note_on_c, 10, 76, 0
11, 11940, Note_on_c, 10, 76, 85
11, 11940, Note_on_c, 10, 86, 85
11, 12000, Note_on_c, 10, 86, 0
11, 12000, Note_on_c, 10, 76, 0
11, 12000, Note_on_c, 10, 76, 92
11, 12000, Note_on_c, 10, 85, 92
11, 12045, Note_on_c, 10, 85, 0
11, 12045, Note_on_c, 10, 76, 0
11, 12060, Note_on_c, 10, 81, 85
11, 12105, Note_on_c, 10, 81, 0
11, 12120, Note_on_c, 10, 86, 85
11, 12165, Note_on_c, 10, 86, 0
11, 12180, Note_on_c, 10, 81, 85
11, 12225, Note_on_c, 10, 81, 0
11, 12240, Note_on_c, 10, 85, 85
11, 12285, Note_on_c, 10, 85, 0
11, 12300, Note_on_c, 10, 81, 85
11, 12345, Note_on_c, 10, 81, 0
11, 12360, Note_on_c, 10, 86, 85
11, 12405, Note_on_c, 10, 86, 0
11, 12420, Note_on_c, 10, 81, 85
11, 12465, Note_on_c, 10, 81, 0
11, 12480, Note_on_c, 10, 85, 94
11, 12525, Note_on_c, 10, 85, 0
11, 12540, Note_on_c, 10, 69, 85
11, 12585, Note_on_c, 10, 69, 0
11, 12600, Note_on_c, 10, 69, 85
11, 12645, Note_on_c, 10, 69, 0
11, 12660, Note_on_c, 10, 69, 85
11, 12705, Note_on_c, 10, 69, 0
11, 12720, Note_on_c, 10, 69, 85
11, 12840, Note_on_c, 10, 69, 0
11, 12950, Control_c, 10, 11, 77
11, 12960, Note_on_c, 10, 81, 55
11, 12964, Control_c, 10, 11, 80
11, 12966, Control_c, 10, 11, 82
11, 12970, Control_c, 10, 11, 83
11, 12974, Control_c, 10, 11, 85
11, 12978, Control_c, 10, 11, 87
11, 12994, Control_c, 10, 11, 93
11, 12998, Control_c, 10, 11, 101
11, 13010, Control_c, 10, 11, 107
11, 13022, Control_c, 10, 11, 113
11, 13034, Control_c, 10, 11, 115
11, 13038, Control_c, 10, 11, 117
11, 13042, Control_c, 10, 11, 118
11, 13044, Control_c, 10, 11, 119
11, 13048, Control_c, 10, 11, 120
11, 13052, Control_c, 10, 11, 121
11, 13056, Control_c, 10, 11, 122
11, 13058, Control_c, 10, 11, 123
11, 13060, Control_c, 10, 11, 124
11, 13064, Control_c, 10, 11, 127
11, 13140, Note_on_c, 10, 81, 0
11, 13140, Note_on_c, 10, 79, 55
11, 13160, Note_on_c, 10, 79, 0
11, 13160, Note_on_c, 10, 78, 55
11, 13180, Note_on_c, 10, 78, 0
11, 13180, Note_on_c, 10, 76, 55
11, 13200, Note_on_c, 10, 76, 0
11, 13200, Note_on_c, 10, 74, 55
11, 13260, Note_on_c, 10, 74, 0
11, 13320, Note_on_c, 10, 83, 55
11, 13380, Note_on_c, 10, 83, 0
11, 13440, Note_on_c, 10, 79, 55
11, 13500, Note_on_c, 10, 79, 0
11, 13560, Note_on_c, 10, 76, 55
11, 13620, Note_on_c, 10, 76, 0
11, 13680, Note_on_c, 10, 81, 55
11, 13740, Note_on_c, 10, 81, 0
11, 13920, Note_on_c, 10, 78, 55
11, 14100, Note_on_c, 10, 78, 0
11, 14100, Note_on_c, 10, 76, 55
11, 14120, Note_on_c, 10, 76, 0
11, 14120, Note_on_c, 10, 74, 55
11, 14140, Note_on_c, 10, 74, 0
11, 14140, Note_on_c, 10, 73, 55
11, 14160, Note_on_c, 10, 73, 0
11, 14160, Note_on_c, 10, 71, 55
11, 14220, Note_on_c, 10, 71, 0
11, 14280, Note_on_c, 10, 79, 55
11, 14340, Note_on_c, 10, 79, 0
11, 14400, Note_on_c, 10, 78, 55
11, 14640, Note_on_c, 10, 78, 0
11, 14640, Note_on_c, 10, 76, 49
11, 14760, Note_on_c, 10, 76, 0
11, 14940, Note_on_c, 10, 81, 55
11, 14970, Note_on_c, 10, 81, 0
11, 15000, Note_on_c, 10, 81, 55
11, 15030, Note_on_c, 10, 81, 0
11, 15060, Note_on_c, 10, 81, 55
11, 15090, Note_on_c, 10, 81, 0
11, 15120, Note_on_c, 10, 81, 55
11, 15150, Note_on_c, 10, 81, 0
11, 15180, Note_on_c, 10, 81, 55
11, 15210, Note_on_c, 10, 81, 0
11, 15240, Note_on_c, 10, 81, 55
11, 15270, Note_on_c, 10, 81, 0
11, 15300, Note_on_c, 10, 81, 55
11, 15330, Note_on_c, 10, 81, 0
11, 15360, Note_on_c, 10, 81, 55
11, 15390, Note_on_c, 10, 81, 0
11, 15420, Note_on_c, 10, 81, 55
11, 15450, Note_on_c, 10, 81, 0
11, 15480, Note_on_c, 10, 81, 55
11, 15510, Note_on_c, 10, 81, 0
11, 15540, Note_on_c, 10, 81, 55
11, 15570, Note_on_c, 10, 81, 0
11, 15600, Note_on_c, 10, 81, 55
11, 15630, Note_on_c, 10, 81, 0
11, 15660, Note_on_c, 10, 81, 55
11, 15690, Note_on_c, 10, 81, 0
11, 15720, Note_on_c, 10, 83, 55
11, 15750, Note_on_c, 10, 83, 0
11, 15780, Note_on_c, 10, 85, 55
11, 15810, Note_on_c, 10, 85, 0
11, 15840, Note_on_c, 10, 85, 55
11, 15900, Note_on_c, 10, 85, 0
11, 15900, Note_on_c, 10, 86, 55
11, 15960, Note_on_c, 10, 86, 0
11, 16020, Note_on_c, 10, 83, 55
11, 16050, Note_on_c, 10, 83, 0
11, 16080, Note_on_c, 10, 83, 55
11, 16140, Note_on_c, 10, 83, 0
11, 16140, Note_on_c, 10, 81, 55
11, 16200, Note_on_c, 10, 81, 0
11, 16260, Note_on_c, 10, 73, 55
11, 16305, Note_on_c, 10, 73, 0
11, 16320, Note_on_c, 10, 74, 55
11, 16440, Note_on_c, 10, 74, 0
11, 16500, Note_on_c, 10, 81, 55
11, 16530, Note_on_c, 10, 81, 0
11, 16560, Note_on_c, 10, 86, 55
11, 16620, Note_on_c, 10, 86, 0
11, 16620, Note_on_c, 10, 85, 55
11, 16680, Note_on_c, 10, 85, 0
11, 16680, Note_on_c, 10, 83, 55
11, 16740, Note_on_c, 10, 83, 0
11, 16740, Note_on_c, 10, 81, 55
11, 16800, Note_on_c, 10, 81, 0
11, 16800, Note_on_c, 10, 83, 55
11, 16815, Note_on_c, 10, 83, 0
11, 16815, Note_on_c, 10, 85, 55
11, 16830, Note_on_c, 10, 85, 0
11, 16830, Note_on_c, 10, 83, 55
11, 16845, Note_on_c, 10, 83, 0
11, 16845, Note_on_c, 10, 85, 55
11, 16860, Note_on_c, 10, 85, 0
11, 16860, Note_on_c, 10, 81, 55
11, 16920, Note_on_c, 10, 81, 0
11, 16980, Note_on_c, 10, 81, 55
11, 17010, Note_on_c, 10, 81, 0
11, 17040, Note_on_c, 10, 81, 55
11, 17070, Note_on_c, 10, 81, 0
11, 17100, Note_on_c, 10, 81, 55
11, 17130, Note_on_c, 10, 81, 0
11, 17160, Note_on_c, 10, 81, 55
11, 17190, Note_on_c, 10, 81, 0
11, 17220, Note_on_c, 10, 81, 55
11, 17250, Note_on_c, 10, 81, 0
11, 17280, Note_on_c, 10, 83, 55
11, 17295, Note_on_c, 10, 83, 0
11, 17295, Note_on_c, 10, 85, 55
11, 17310, Note_on_c, 10, 85, 0
11, 17310, Note_on_c, 10, 83, 55
11, 17325, Note_on_c, 10, 83, 0
11, 17325, Note_on_c, 10, 85, 55
11, 17340, Note_on_c, 10, 85, 0
11, 17340, Note_on_c, 10, 81, 55
11, 17400, Note_on_c, 10, 81, 0
11, 17460, Note_on_c, 10, 81, 55
11, 17505, Note_on_c, 10, 81, 0
11, 17520, Note_on_c, 10, 86, 55
11, 17580, Note_on_c, 10, 86, 0
11, 17580, Note_on_c, 10, 85, 55
11, 17640, Note_on_c, 10, 85, 0
11, 17640, Note_on_c, 10, 83, 55
11, 17700, Note_on_c, 10, 83, 0
11, 17700, Note_on_c, 10, 81, 55
11, 17760, Note_on_c, 10, 81, 0
11, 17760, Note_on_c, 10, 83, 55
11, 17775, Note_on_c, 10, 83, 0
11, 17775, Note_on_c, 10, 85, 55
11, 17790, Note_on_c, 10, 85, 0
11, 17790, Note_on_c, 10, 83, 55
11, 17805, Note_on_c, 10, 83, 0
11, 17805, Note_on_c, 10, 85, 55
11, 17820, Note_on_c, 10, 85, 0
11, 17820, Note_on_c, 10, 81, 55
11, 17880, Note_on_c, 10, 81, 0
11, 17940, Note_on_c, 10, 81, 55
11, 17970, Note_on_c, 10, 81, 0
11, 18000, Note_on_c, 10, 81, 55
11, 18030, Note_on_c, 10, 81, 0
11, 18060, Note_on_c, 10, 81, 55
11, 18090, Note_on_c, 10, 81, 0
11, 18120, Note_on_c, 10, 81, 55
11, 18150, Note_on_c, 10, 81, 0
11, 18180, Note_on_c, 10, 81, 53
11, 18210, Note_on_c, 10, 81, 0
11, 18240, Note_on_c, 10, 83, 49
11, 18255, Note_on_c, 10, 83, 0
11, 18255, Note_on_c, 10, 85, 49
11, 18270, Note_on_c, 10, 85, 0
11, 18270, Note_on_c, 10, 83, 47
11, 18285, Note_on_c, 10, 83, 0
11, 18285, Note_on_c, 10, 85, 47
11, 18300, Note_on_c, 10, 85, 0
11, 18300, Note_on_c, 10, 81, 46
11, 18360, Note_on_c, 10, 81, 0
11, 18480, Note_on_c, 10, 71, 91
11, 18480, Note_on_c, 10, 83, 91
11, 18650, Note_on_c, 10, 83, 0
11, 18650, Note_on_c, 10, 71, 0
11, 18660, Note_on_c, 10, 81, 89
11, 18680, Note_on_c, 10, 81, 0
11, 18680, Note_on_c, 10, 79, 92
11, 18700, Note_on_c, 10, 79, 0
11, 18700, Note_on_c, 10, 78, 94
11, 18720, Note_on_c, 10, 78, 0
11, 18720, Note_on_c, 10, 79, 97
11, 18840, Note_on_c, 10, 79, 0
11, 18960, Note_on_c, 10, 81, 85
11, 18960, Note_on_c, 10, 69, 85
11, 19130, Note_on_c, 10, 69, 0
11, 19130, Note_on_c, 10, 81, 0
11, 19140, Note_on_c, 10, 79, 86
11, 19160, Note_on_c, 10, 79, 0
11, 19160, Note_on_c, 10, 78, 86
11, 19180, Note_on_c, 10, 78, 0
11, 19180, Note_on_c, 10, 76, 89
11, 19200, Note_on_c, 10, 76, 0
11, 19200, Note_on_c, 10, 78, 92
11, 19320, Note_on_c, 10, 78, 0
11, 19440, Note_on_c, 10, 83, 85
11, 19500, Note_on_c, 10, 83, 0
11, 19500, Note_on_c, 10, 85, 85
11, 19530, Note_on_c, 10, 85, 0
11, 19530, Note_on_c, 10, 86, 89
11, 19560, Note_on_c, 10, 86, 0
11, 19560, Note_on_c, 10, 85, 94
11, 19605, Note_on_c, 10, 85, 0
11, 19620, Note_on_c, 10, 83, 95
11, 19650, Note_on_c, 10, 83, 0
11, 19680, Note_on_c, 10, 83, 97
11, 19740, Note_on_c, 10, 83, 0
11, 19740, Note_on_c, 10, 81, 101
11, 19785, Note_on_c, 10, 81, 0
11, 19800, Note_on_c, 10, 78, 104
11, 19830, Note_on_c, 10, 78, 0
11, 19860, Note_on_c, 10, 81, 104
11, 19890, Note_on_c, 10, 81, 0
11, 19920, Note_on_c, 10, 81, 104
11, 19980, Note_on_c, 10, 81, 0
11, 19980, Note_on_c, 10, 79, 103
11, 20025, Note_on_c, 10, 79, 0
11, 20040, Note_on_c, 10, 78, 98
11, 20070, Note_on_c, 10, 78, 0
11, 20100, Note_on_c, 10, 76, 89
11, 20130, Note_on_c, 10, 76, 0
11, 20160, Note_on_c, 10, 74, 85
11, 20280, Note_on_c, 10, 74, 0
11, 20340, Note_on_c, 10, 81, 53
11, 20370, Note_on_c, 10, 81, 0
11, 20400, Note_on_c, 10, 86, 53
11, 20460, Note_on_c, 10, 86, 0
11, 20460, Note_on_c, 10, 85, 53
11, 20520, Note_on_c, 10, 85, 0
11, 20520, Note_on_c, 10, 83, 53
11, 20580, Note_on_c, 10, 83, 0
11, 20580, Note_on_c, 10, 81, 53
11, 20640, Note_on_c, 10, 81, 0
11, 20640, Note_on_c, 10, 83, 55
11, 20655, Note_on_c, 10, 83, 0
11, 20655, Note_on_c, 10, 85, 55
11, 20670, Note_on_c, 10, 85, 0
11, 20670, Note_on_c, 10, 83, 55
11, 20685, Note_on_c, 10, 83, 0
11, 20685, Note_on_c, 10, 85, 55
11, 20700, Note_on_c, 10, 85, 0
11, 20700, Note_on_c, 10, 81, 55
11, 20760, Note_on_c, 10, 81, 0
11, 20820, Note_on_c, 10, 81, 55
11, 20850, Note_on_c, 10, 81, 0
11, 20880, Note_on_c, 10, 81, 55
11, 20910, Note_on_c, 10, 81, 0
11, 20940, Note_on_c, 10, 81, 55
11, 20970, Note_on_c, 10, 81, 0
11, 21000, Note_on_c, 10, 81, 55
11, 21030, Note_on_c, 10, 81, 0
11, 21060, Note_on_c, 10, 81, 55
11, 21090, Note_on_c, 10, 81, 0
11, 21120, Note_on_c, 10, 83, 55
11, 21135, Note_on_c, 10, 83, 0
11, 21135, Note_on_c, 10, 85, 55
11, 21150, Note_on_c, 10, 85, 0
11, 21150, Note_on_c, 10, 83, 55
11, 21165, Note_on_c, 10, 83, 0
11, 21165, Note_on_c, 10, 85, 55
11, 21180, Note_on_c, 10, 85, 0
11, 21180, Note_on_c, 10, 81, 55
11, 21240, Note_on_c, 10, 81, 0
11, 21300, Note_on_c, 10, 81, 55
11, 21345, Note_on_c, 10, 81, 0
11, 21360, Note_on_c, 10, 86, 55
11, 21420, Note_on_c, 10, 86, 0
11, 21420, Note_on_c, 10, 85, 55
11, 21480, Note_on_c, 10, 85, 0
11, 21480, Note_on_c, 10, 83, 55
11, 21540, Note_on_c, 10, 83, 0
11, 21540, Note_on_c, 10, 81, 55
11, 21600, Note_on_c, 10, 81, 0
11, 21600, Note_on_c, 10, 83, 55
11, 21615, Note_on_c, 10, 83, 0
11, 21615, Note_on_c, 10, 85, 55
11, 21630, Note_on_c, 10, 85, 0
11, 21630, Note_on_c, 10, 83, 55
11, 21645, Note_on_c, 10, 83, 0
11, 21645, Note_on_c, 10, 85, 55
11, 21660, Note_on_c, 10, 85, 0
11, 21660, Note_on_c, 10, 81, 55
11, 21720, Note_on_c, 10, 81, 0
11, 21780, Note_on_c, 10, 81, 55
11, 21810, Note_on_c, 10, 81, 0
11, 21840, Note_on_c, 10, 81, 55
11, 21870, Note_on_c, 10, 81, 0
11, 21900, Note_on_c, 10, 81, 55
11, 21930, Note_on_c, 10, 81, 0
11, 21960, Note_on_c, 10, 81, 55
11, 21990, Note_on_c, 10, 81, 0
11, 22020, Note_on_c, 10, 81, 55
11, 22050, Note_on_c, 10, 81, 0
11, 22080, Note_on_c, 10, 83, 59
11, 22095, Note_on_c, 10, 83, 0
11, 22095, Note_on_c, 10, 85, 59
11, 22110, Note_on_c, 10, 85, 0
11, 22110, Note_on_c, 10, 83, 59
11, 22125, Note_on_c, 10, 83, 0
11, 22125, Note_on_c, 10, 85, 59
11, 22140, Note_on_c, 10, 85, 0
11, 22140, Note_on_c, 10, 81, 59
11, 22200, Note_on_c, 10, 81, 0
11, 22320, Note_on_c, 10, 71, 85
11, 22320, Note_on_c, 10, 83, 85
11, 22490, Note_on_c, 10, 83, 0
11, 22490, Note_on_c, 10, 71, 0
11, 22500, Note_on_c, 10, 81, 85
11, 22520, Note_on_c, 10, 81, 0
11, 22520, Note_on_c, 10, 79, 85
11, 22540, Note_on_c, 10, 79, 0
11, 22540, Note_on_c, 10, 78, 85
11, 22560, Note_on_c, 10, 78, 0
11, 22560, Note_on_c, 10, 79, 85
11, 22680, Note_on_c, 10, 79, 0
11, 22800, Note_on_c, 10, 81, 85
11, 22800, Note_on_c, 10, 69, 85
11, 22970, Note_on_c, 10, 69, 0
11, 22970, Note_on_c, 10, 81, 0
11, 22980, Note_on_c, 10, 79, 85
11, 23000, Note_on_c, 10, 79, 0
11, 23000, Note_on_c, 10, 78, 85
11, 23020, Note_on_c, 10, 78, 0
11, 23020, Note_on_c, 10, 76, 85
11, 23040, Note_on_c, 10, 76, 0
11, 23040, Note_on_c, 10, 78, 85
11, 23160, Note_on_c, 10, 78, 0
11, 23280, Note_on_c, 10, 83, 80
11, 23340, Note_on_c, 10, 83, 0
11, 23340, Note_on_c, 10, 85, 82
11, 23370, Note_on_c, 10, 85, 0
11, 23370, Note_on_c, 10, 86, 83
11, 23400, Note_on_c, 10, 86, 0
11, 23400, Note_on_c, 10, 85, 83
11, 23445, Note_on_c, 10, 85, 0
11, 23460, Note_on_c, 10, 83, 85
11, 23490, Note_on_c, 10, 83, 0
11, 23520, Note_on_c, 10, 83, 86
11, 23580, Note_on_c, 10, 83, 0
11, 23580, Note_on_c, 10, 81, 88
11, 23625, Note_on_c, 10, 81, 0
11, 23640, Note_on_c, 10, 78, 88
11, 23670, Note_on_c, 10, 78, 0
11, 23700, Note_on_c, 10, 81, 88
11, 23730, Note_on_c, 10, 81, 0
11, 23760, Note_on_c, 10, 81, 88
11, 23820, Note_on_c, 10, 81, 0
11, 23820, Note_on_c, 10, 79, 88
11, 23865, Note_on_c, 10, 79, 0
11, 23880, Note_on_c, 10, 78, 88
11, 23910, Note_on_c, 10, 78, 0
11, 23940, Note_on_c, 10, 76, 88
11, 23970, Note_on_c, 10, 76, 0
11, 24000, Note_on_c, 10, 74, 88
11, 24045, Note_on_c, 10, 74, 0
11, 24060, Note_on_c, 10, 69, 88
11, 24105, Note_on_c, 10, 69, 0
11, 24120, Note_on_c, 10, 71, 88
11, 24165, Note_on_c, 10, 71, 0
11, 24180, Note_on_c, 10, 73, 85
11, 24225, Note_on_c, 10, 73, 0
11, 24240, Note_on_c, 10, 74, 82
11, 24270, Note_on_c, 10, 74, 0
11, 24300, Note_on_c, 10, 74, 85
11, 24330, Note_on_c, 10, 74, 0
11, 24360, Note_on_c, 10, 76, 85
11, 24375, Note_on_c, 10, 76, 0
11, 24375, Note_on_c, 10, 78, 85
11, 24390, Note_on_c, 10, 78, 0
11, 24390, Note_on_c, 10, 76, 85
11, 24405, Note_on_c, 10, 76, 0
11, 24405, Note_on_c, 10, 78, 85
11, 24420, Note_on_c, 10, 78, 0
11, 24420, Note_on_c, 10, 74, 85
11, 24450, Note_on_c, 10, 74, 0
11, 24450, Note_on_c, 10, 76, 85
11, 24480, Note_on_c, 10, 76, 0
11, 24480, Note_on_c, 10, 78, 85
11, 24540, Note_on_c, 10, 78, 0
11, 24540, Note_on_c, 10, 73, 85
11, 24585, Note_on_c, 10, 73, 0
11, 24600, Note_on_c, 10, 74, 85
11, 24645, Note_on_c, 10, 74, 0
11, 24660, Note_on_c, 10, 76, 85
11, 24705, Note_on_c, 10, 76, 0
11, 24720, Note_on_c, 10, 78, 85
11, 24765, Note_on_c, 10, 78, 0
11, 24780, Note_on_c, 10, 78, 85
11, 24825, Note_on_c, 10, 78, 0
11, 24840, Note_on_c, 10, 79, 85
11, 24855, Note_on_c, 10, 79, 0
11, 24855, Note_on_c, 10, 81, 86
11, 24870, Note_on_c, 10, 81, 0
11, 24870, Note_on_c, 10, 79, 88
11, 24885, Note_on_c, 10, 79, 0
11, 24885, Note_on_c, 10, 81, 88
11, 24900, Note_on_c, 10, 81, 0
11, 24900, Note_on_c, 10, 78, 88
11, 24930, Note_on_c, 10, 78, 0
11, 24930, Note_on_c, 10, 79, 88
11, 24960, Note_on_c, 10, 79, 0
11, 24960, Note_on_c, 10, 81, 88
11, 25005, Note_on_c, 10, 81, 0
11, 25020, Note_on_c, 10, 81, 91
11, 25065, Note_on_c, 10, 81, 0
11, 25080, Note_on_c, 10, 82, 92
11, 25095, Note_on_c, 10, 82, 0
11, 25095, Note_on_c, 10, 83, 92
11, 25110, Note_on_c, 10, 83, 0
11, 25110, Note_on_c, 10, 82, 94
11, 25125, Note_on_c, 10, 82, 0
11, 25125, Note_on_c, 10, 83, 94
11, 25140, Note_on_c, 10, 83, 0
11, 25140, Note_on_c, 10, 80, 95
11, 25170, Note_on_c, 10, 80, 0
11, 25170, Note_on_c, 10, 82, 97
11, 25200, Note_on_c, 10, 82, 0
11, 25200, Note_on_c, 10, 83, 100
11, 25320, Note_on_c, 10, 83, 0
11, 25440, Note_on_c, 10, 71, 47
11, 25620, Note_on_c, 10, 71, 0
11, 25620, Note_on_c, 10, 76, 47
11, 25665, Note_on_c, 10, 76, 0
11, 25680, Note_on_c, 10, 74, 47
11, 25740, Note_on_c, 10, 74, 0
11, 25740, Note_on_c, 10, 73, 47
11, 25800, Note_on_c, 10, 73, 0
11, 25800, Note_on_c, 10, 71, 49
11, 25860, Note_on_c, 10, 71, 0
11, 25860, Note_on_c, 10, 69, 50
11, 25920, Note_on_c, 10, 69, 0
11, 25920, Note_on_c, 10, 74, 50
11, 25980, Note_on_c, 10, 74, 0
11, 26040, Note_on_c, 10, 78, 50
11, 26100, Note_on_c, 10, 78, 0
11, 26160, Note_on_c, 10, 74, 41
11, 26220, Note_on_c, 10, 74, 0
11, 26400, Note_on_c, 10, 62, 85
11, 26400, Note_on_c, 10, 79, 85
11, 26400, Note_on_c, 10, 71, 85
11, 26520, Note_on_c, 10, 71, 0
11, 26520, Note_on_c, 10, 79, 0
11, 26520, Note_on_c, 10, 62, 0
11, 26580, Note_on_c, 10, 74, 85
11, 26610, Note_on_c, 10, 74, 0
11, 26640, Note_on_c, 10, 79, 85
11, 26760, Note_on_c, 10, 79, 0
11, 26820, Note_on_c, 10, 74, 85
11, 26850, Note_on_c, 10, 74, 0
11, 26880, Note_on_c, 10, 79, 85
11, 26910, Note_on_c, 10, 79, 0
11, 26940, Note_on_c, 10, 74, 85
11, 26970, Note_on_c, 10, 74, 0
11, 27000, Note_on_c, 10, 79, 85
11, 27030, Note_on_c, 10, 79, 0
11, 27060, Note_on_c, 10, 83, 85
11, 27090, Note_on_c, 10, 83, 0
11, 27120, Note_on_c, 10, 86, 85
11, 27240, Note_on_c, 10, 86, 0
11, 27360, Note_on_c, 10, 84, 85
11, 27480, Note_on_c, 10, 84, 0
11, 27540, Note_on_c, 10, 81, 76
11, 27570, Note_on_c, 10, 81, 0
11, 27600, Note_on_c, 10, 84, 85
11, 27720, Note_on_c, 10, 84, 0
11, 27780, Note_on_c, 10, 81, 76
11, 27810, Note_on_c, 10, 81, 0
11, 27840, Note_on_c, 10, 84, 85
11, 27870, Note_on_c, 10, 84, 0
11, 27900, Note_on_c, 10, 81, 74
11, 27930, Note_on_c, 10, 81, 0
11, 27960, Note_on_c, 10, 78, 85
11, 27990, Note_on_c, 10, 78, 0
11, 28020, Note_on_c, 10, 81, 71
11, 28050, Note_on_c, 10, 81, 0
11, 28080, Note_on_c, 10, 74, 85
11, 28200, Note_on_c, 10, 74, 0
11, 28320, Note_on_c, 10, 62, 85
11, 28320, Note_on_c, 10, 79, 85
11, 28320, Note_on_c, 10, 71, 85
11, 28380, Note_on_c, 10, 71, 0
11, 28380, Note_on_c, 10, 79, 0
11, 28380, Note_on_c, 10, 62, 0
11, 28440, Note_on_c, 10, 79, 85
11, 28620, Note_on_c, 10, 79, 0
11, 28620, Note_on_c, 10, 83, 85
11, 28680, Note_on_c, 10, 83, 0
11, 28680, Note_on_c, 10, 81, 85
11, 28710, Note_on_c, 10, 81, 0
11, 28740, Note_on_c, 10, 79, 85
11, 28770, Note_on_c, 10, 79, 0
11, 28800, Note_on_c, 10, 79, 85
11, 28815, Note_on_c, 10, 79, 0
11, 28815, Note_on_c, 10, 81, 85
11, 28830, Note_on_c, 10, 81, 0
11, 28830, Note_on_c, 10, 79, 85
11, 28845, Note_on_c, 10, 79, 0
11, 28845, Note_on_c, 10, 81, 85
11, 28860, Note_on_c, 10, 81, 0
11, 28860, Note_on_c, 10, 78, 85
11, 28910, Note_on_c, 10, 78, 0
11, 28920, Note_on_c, 10, 78, 85
11, 29100, Note_on_c, 10, 78, 0
11, 29100, Note_on_c, 10, 81, 85
11, 29160, Note_on_c, 10, 81, 0
11, 29160, Note_on_c, 10, 84, 85
11, 29190, Note_on_c, 10, 84, 0
11, 29220, Note_on_c, 10, 78, 85
11, 29250, Note_on_c, 10, 78, 0
11, 29280, Note_on_c, 10, 81, 85
11, 29340, Note_on_c, 10, 81, 0
11, 29340, Note_on_c, 10, 79, 85
11, 29370, Note_on_c, 10, 79, 0
11, 29400, Note_on_c, 10, 79, 85
11, 29580, Note_on_c, 10, 79, 0
11, 29580, Note_on_c, 10, 83, 85
11, 29640, Note_on_c, 10, 83, 0
11, 29640, Note_on_c, 10, 81, 85
11, 29670, Note_on_c, 10, 81, 0
11, 29700, Note_on_c, 10, 79, 85
11, 29730, Note_on_c, 10, 79, 0
11, 29760, Note_on_c, 10, 79, 85
11, 29775, Note_on_c, 10, 79, 0
11, 29775, Note_on_c, 10, 81, 85
11, 29790, Note_on_c, 10, 81, 0
11, 29790, Note_on_c, 10, 79, 85
11, 29805, Note_on_c, 10, 79, 0
11, 29805, Note_on_c, 10, 81, 85
11, 29820, Note_on_c, 10, 81, 0
11, 29820, Note_on_c, 10, 78, 85
11, 29870, Note_on_c, 10, 78, 0
11, 29880, Note_on_c, 10, 78, 85
11, 30060, Note_on_c, 10, 78, 0
11, 30060, Note_on_c, 10, 81, 85
11, 30120, Note_on_c, 10, 81, 0
11, 30120, Note_on_c, 10, 84, 85
11, 30150, Note_on_c, 10, 84, 0
11, 30180, Note_on_c, 10, 78, 85
11, 30210, Note_on_c, 10, 78, 0
11, 30240, Note_on_c, 10, 79, 85
11, 30270, Note_on_c, 10, 79, 0
11, 30300, Note_on_c, 10, 79, 85
11, 30330, Note_on_c, 10, 79, 0
11, 30360, Note_on_c, 10, 79, 85
11, 30390, Note_on_c, 10, 79, 0
11, 30390, Note_on_c, 10, 78, 85
11, 30420, Note_on_c, 10, 78, 0
11, 30420, Note_on_c, 10, 76, 85
11, 30450, Note_on_c, 10, 76, 0
11, 30450, Note_on_c, 10, 78, 85
11, 30480, Note_on_c, 10, 78, 0
11, 30480, Note_on_c, 10, 79, 85
11, 30510, Note_on_c, 10, 79, 0
11, 30540, Note_on_c, 10, 79, 85
11, 30570, Note_on_c, 10, 79, 0
11, 30600, Note_on_c, 10, 83, 85
11, 30630, Note_on_c, 10, 83, 0
11, 30630, Note_on_c, 10, 81, 85
11, 30660, Note_on_c, 10, 81, 0
11, 30660, Note_on_c, 10, 79, 85
11, 30690, Note_on_c, 10, 79, 0
11, 30690, Note_on_c, 10, 81, 85
11, 30720, Note_on_c, 10, 81, 0
11, 30720, Note_on_c, 10, 83, 85
11, 30750, Note_on_c, 10, 83, 0
11, 30780, Note_on_c, 10, 83, 85
11, 30810, Note_on_c, 10, 83, 0
11, 30840, Note_on_c, 10, 86, 85
11, 30870, Note_on_c, 10, 86, 0
11, 30870, Note_on_c, 10, 84, 85
11, 30900, Note_on_c, 10, 84, 0
11, 30900, Note_on_c, 10, 83, 85
11, 30930, Note_on_c, 10, 83, 0
11, 30930, Note_on_c, 10, 84, 85
11, 30960, Note_on_c, 10, 84, 0
11, 30960, Note_on_c, 10, 86, 85
11, 31080, Note_on_c, 10, 86, 0
11, 31200, Note_on_c, 10, 74, 52
11, 31440, Note_on_c, 10, 74, 0
11, 31440, Note_on_c, 10, 76, 40
11, 31680, Note_on_c, 10, 76, 0
11, 31680, Note_on_c, 10, 74, 44
11, 31710, Note_on_c, 10, 74, 0
11, 31710, Note_on_c, 10, 72, 46
11, 31790, Note_on_c, 10, 72, 0
11, 31800, Note_on_c, 10, 72, 46
11, 31920, Note_on_c, 10, 72, 0
11, 31920, Note_on_c, 10, 72, 47
11, 31950, Note_on_c, 10, 72, 0
11, 31950, Note_on_c, 10, 71, 47
11, 32030, Note_on_c, 10, 71, 0
11, 32040, Note_on_c, 10, 71, 47
11, 32160, Note_on_c, 10, 71, 0
11, 32160, Note_on_c, 10, 71, 47
11, 32190, Note_on_c, 10, 71, 0
11, 32190, Note_on_c, 10, 69, 47
11, 32270, Note_on_c, 10, 69, 0
11, 32280, Note_on_c, 10, 69, 47
11, 32400, Note_on_c, 10, 69, 0
11, 32400, Note_on_c, 10, 67, 47
11, 32460, Note_on_c, 10, 67, 0
11, 32460, Note_on_c, 10, 66, 47
11, 32490, Note_on_c, 10, 66, 0
11, 32520, Note_on_c, 10, 64, 47
11, 32550, Note_on_c, 10, 64, 0
11, 32580, Note_on_c, 10, 66, 47
11, 32610, Note_on_c, 10, 66, 0
11, 32640, Note_on_c, 10, 67, 47
11, 32700, Note_on_c, 10, 67, 0
11, 32760, Note_on_c, 10, 69, 47
11, 32820, Note_on_c, 10, 69, 0
11, 32880, Note_on_c, 10, 71, 47
11, 32940, Note_on_c, 10, 71, 0
11, 33120, Note_on_c, 10, 74, 54
11, 33360, Note_on_c, 10, 74, 0
11, 33360, Note_on_c, 10, 76, 59
11, 33600, Note_on_c, 10, 76, 0
11, 33600, Note_on_c, 10, 74, 47
11, 33660, Note_on_c, 10, 74, 0
11, 33660, Note_on_c, 10, 72, 47
11, 33690, Note_on_c, 10, 72, 0
11, 33720, Note_on_c, 10, 72, 47
11, 33750, Note_on_c, 10, 72, 0
11, 33780, Note_on_c, 10, 72, 47
11, 33810, Note_on_c, 10, 72, 0
11, 33840, Note_on_c, 10, 72, 47
11, 33900, Note_on_c, 10, 72, 0
11, 33900, Note_on_c, 10, 71, 47
11, 33930, Note_on_c, 10, 71, 0
11, 33960, Note_on_c, 10, 71, 47
11, 33990, Note_on_c, 10, 71, 0
11, 34020, Note_on_c, 10, 71, 47
11, 34050, Note_on_c, 10, 71, 0
11, 34080, Note_on_c, 10, 71, 47
11, 34140, Note_on_c, 10, 71, 0
11, 34140, Note_on_c, 10, 69, 47
11, 34170, Note_on_c, 10, 69, 0
11, 34200, Note_on_c, 10, 69, 47
11, 34245, Note_on_c, 10, 69, 0
11, 34260, Note_on_c, 10, 69, 47
11, 34305, Note_on_c, 10, 69, 0
11, 34320, Note_on_c, 10, 67, 47
11, 34380, Note_on_c, 10, 67, 0
11, 34380, Note_on_c, 10, 66, 47
11, 34440, Note_on_c, 10, 66, 0
11, 34440, Note_on_c, 10, 64, 47
11, 34500, Note_on_c, 10, 64, 0
11, 34500, Note_on_c, 10, 66, 47
11, 34560, Note_on_c, 10, 66, 0
11, 34560, Note_on_c, 10, 55, 95
11, 34560, Note_on_c, 10, 67, 95
11, 34860, Note_on_c, 10, 67, 0
11, 34860, Note_on_c, 10, 55, 0
11, 34860, Note_on_c, 10, 67, 61
11, 34875, Note_on_c, 10, 67, 0
11, 34875, Note_on_c, 10, 69, 61
11, 34890, Note_on_c, 10, 69, 0
11, 34890, Note_on_c, 10, 66, 61
11, 34905, Note_on_c, 10, 66, 0
11, 34905, Note_on_c, 10, 67, 61
11, 34920, Note_on_c, 10, 67, 0
11, 34920, Note_on_c, 10, 69, 61
11, 34980, Note_on_c, 10, 69, 0
11, 34980, Note_on_c, 10, 66, 61
11, 35040, Note_on_c, 10, 66, 0
11, 35040, Note_on_c, 10, 71, 85
11, 35340, Note_on_c, 10, 71, 0
11, 35340, Note_on_c, 10, 71, 61
11, 35355, Note_on_c, 10, 71, 0
11, 35355, Note_on_c, 10, 72, 61
11, 35370, Note_on_c, 10, 72, 0
11, 35370, Note_on_c, 10, 69, 61
11, 35385, Note_on_c, 10, 69, 0
11, 35385, Note_on_c, 10, 71, 61
11, 35400, Note_on_c, 10, 71, 0
11, 35400, Note_on_c, 10, 72, 61
11, 35460, Note_on_c, 10, 72, 0
11, 35460, Note_on_c, 10, 69, 61
11, 35520, Note_on_c, 10, 69, 0
11, 35520, Note_on_c, 10, 74, 46
11, 35540, Note_on_c, 10, 74, 0
11, 35550, Note_on_c, 10, 74, 46
11, 35570, Note_on_c, 10, 74, 0
11, 35580, Note_on_c, 10, 74, 47
11, 35600, Note_on_c, 10, 74, 0
11, 35610, Note_on_c, 10, 74, 47
11, 35630, Note_on_c, 10, 74, 0
11, 35640, Note_on_c, 10, 74, 49
11, 35660, Note_on_c, 10, 74, 0
11, 35670, Note_on_c, 10, 74, 50
11, 35690, Note_on_c, 10, 74, 0
11, 35700, Note_on_c, 10, 74, 50
11, 35720, Note_on_c, 10, 74, 0
11, 35730, Note_on_c, 10, 74, 52
11, 35750, Note_on_c, 10, 74, 0
11, 35760, Note_on_c, 10, 76, 53
11, 35780, Note_on_c, 10, 76, 0
11, 35790, Note_on_c, 10, 76, 53
11, 35810, Note_on_c, 10, 76, 0
11, 35820, Note_on_c, 10, 76, 55
11, 35840, Note_on_c, 10, 76, 0
11, 35850, Note_on_c, 10, 76, 56
11, 35870, Note_on_c, 10, 76, 0
11, 35880, Note_on_c, 10, 78, 56
11, 35900, Note_on_c, 10, 78, 0
11, 35910, Note_on_c, 10, 78, 58
11, 35930, Note_on_c, 10, 78, 0
11, 35940, Note_on_c, 10, 78, 58
11, 35960, Note_on_c, 10, 78, 0
11, 35970, Note_on_c, 10, 78, 59
11, 35990, Note_on_c, 10, 78, 0
11, 36000, Note_on_c, 10, 79, 61
11, 36020, Note_on_c, 10, 79, 0
11, 36030, Note_on_c, 10, 79, 61
11, 36050, Note_on_c, 10, 79, 0
11, 36060, Note_on_c, 10, 79, 62
11, 36080, Note_on_c, 10, 79, 0
11, 36090, Note_on_c, 10, 79, 64
11, 36110, Note_on_c, 10, 79, 0
11, 36120, Note_on_c, 10, 81, 64
11, 36140, Note_on_c, 10, 81, 0
11, 36150, Note_on_c, 10, 81, 65
11, 36170, Note_on_c, 10, 81, 0
11, 36180, Note_on_c, 10, 81, 67
11, 36200, Note_on_c, 10, 81, 0
11, 36210, Note_on_c, 10, 81, 67
11, 36230, Note_on_c, 10, 81, 0
11, 36240, Note_on_c, 10, 83, 68
11, 36260, Note_on_c, 10, 83, 0
11, 36270, Note_on_c, 10, 83, 68
11, 36290, Note_on_c, 10, 83, 0
11, 36300, Note_on_c, 10, 83, 70
11, 36320, Note_on_c, 10, 83, 0
11, 36330, Note_on_c, 10, 83, 71
11, 36350, Note_on_c, 10, 83, 0
11, 36360, Note_on_c, 10, 85, 71
11, 36380, Note_on_c, 10, 85, 0
11, 36390, Note_on_c, 10, 85, 73
11, 36410, Note_on_c, 10, 85, 0
11, 36420, Note_on_c, 10, 85, 74
11, 36440, Note_on_c, 10, 85, 0
11, 36450, Note_on_c, 10, 85, 74
11, 36470, Note_on_c, 10, 85, 0
11, 36480, Note_on_c, 10, 86, 92
11, 36660, Note_on_c, 10, 86, 0
11, 36660, Note_on_c, 10, 81, 85
11, 36720, Note_on_c, 10, 81, 0
11, 36720, Note_on_c, 10, 85, 85
11, 36810, Note_on_c, 10, 85, 0
11, 36810, Note_on_c, 10, 81, 85
11, 36840, Note_on_c, 10, 81, 0
11, 36840, Note_on_c, 10, 85, 85
11, 36930, Note_on_c, 10, 85, 0
11, 36930, Note_on_c, 10, 81, 85
11, 36960, Note_on_c, 10, 81, 0
11, 36960, Note_on_c, 10, 86, 98
11, 37140, Note_on_c, 10, 86, 0
11, 37140, Note_on_c, 10, 81, 85
11, 37200, Note_on_c, 10, 81, 0
11, 37200, Note_on_c, 10, 85, 85
11, 37290, Note_on_c, 10, 85, 0
11, 37290, Note_on_c, 10, 81, 85
11, 37320, Note_on_c, 10, 81, 0
11, 37320, Note_on_c, 10, 85, 85
11, 37410, Note_on_c, 10, 85, 0
11, 37410, Note_on_c, 10, 81, 85
11, 37440, Note_on_c, 10, 81, 0
11, 37440, Note_on_c, 10, 86, 85
11, 37470, Note_on_c, 10, 86, 0
11, 37500, Note_on_c, 10, 78, 98
11, 37500, Note_on_c, 10, 86, 98
11, 37590, Note_on_c, 10, 86, 0
11, 37590, Note_on_c, 10, 78, 0
11, 37620, Note_on_c, 10, 78, 85
11, 37620, Note_on_c, 10, 86, 85
11, 37710, Note_on_c, 10, 86, 0
11, 37710, Note_on_c, 10, 78, 0
11, 37740, Note_on_c, 10, 78, 85
11, 37740, Note_on_c, 10, 86, 85
11, 37830, Note_on_c, 10, 86, 0
11, 37830, Note_on_c, 10, 78, 0
11, 37860, Note_on_c, 10, 78, 85
11, 37860, Note_on_c, 10, 86, 85
11, 37920, Note_on_c, 10, 78, 0
11, 37920, Note_on_c, 10, 76, 85
11, 37950, Note_on_c, 10, 76, 0
11, 37950, Note_on_c, 10, 86, 0
11, 37980, Note_on_c, 10, 76, 85
11, 37980, Note_on_c, 10, 86, 85
11, 38070, Note_on_c, 10, 86, 0
11, 38070, Note_on_c, 10, 76, 0
11, 38100, Note_on_c, 10, 76, 85
11, 38100, Note_on_c, 10, 86, 85
11, 38190, Note_on_c, 10, 86, 0
11, 38190, Note_on_c, 10, 76, 0
11, 38220, Note_on_c, 10, 76, 85
11, 38220, Note_on_c, 10, 86, 85
11, 38310, Note_on_c, 10, 86, 0
11, 38310, Note_on_c, 10, 76, 0
11, 38340, Note_on_c, 10, 76, 85
11, 38340, Note_on_c, 10, 86, 85
11, 38400, Note_on_c, 10, 86, 0
11, 38400, Note_on_c, 10, 76, 0
11, 38400, Note_on_c, 10, 76, 97
11, 38400, Note_on_c, 10, 85, 97
11, 38445, Note_on_c, 10, 85, 0
11, 38445, Note_on_c, 10, 76, 0
11, 38460, Note_on_c, 10, 81, 85
11, 38505, Note_on_c, 10, 81, 0
11, 38520, Note_on_c, 10, 86, 85
11, 38565, Note_on_c, 10, 86, 0
11, 38580, Note_on_c, 10, 81, 85
11, 38625, Note_on_c, 10, 81, 0
11, 38640, Note_on_c, 10, 85, 85
11, 38685, Note_on_c, 10, 85, 0
11, 38700, Note_on_c, 10, 81, 85
11, 38745, Note_on_c, 10, 81, 0
11, 38760, Note_on_c, 10, 86, 85
11, 38805, Note_on_c, 10, 86, 0
11, 38820, Note_on_c, 10, 81, 85
11, 38865, Note_on_c, 10, 81, 0
11, 38880, Note_on_c, 10, 85, 97
11, 38925, Note_on_c, 10, 85, 0
11, 38940, Note_on_c, 10, 69, 85
11, 38985, Note_on_c, 10, 69, 0
11, 39000, Note_on_c, 10, 69, 85
11, 39045, Note_on_c, 10, 69, 0
11, 39060, Note_on_c, 10, 69, 85
11, 39105, Note_on_c, 10, 69, 0
11, 39120, Note_on_c, 10, 69, 85
11, 39240, Note_on_c, 10, 69, 0
11, 39360, Note_on_c, 10, 81, 55
11, 39540, Note_on_c, 10, 81, 0
11, 39540, Note_on_c, 10, 79, 55
11, 39560, Note_on_c, 10, 79, 0
11, 39560, Note_on_c, 10, 78, 55
11, 39580, Note_on_c, 10, 78, 0
11, 39580, Note_on_c, 10, 76, 55
11, 39600, Note_on_c, 10, 76, 0
11, 39600, Note_on_c, 10, 74, 55
11, 39660, Note_on_c, 10, 74, 0
11, 39720, Note_on_c, 10, 83, 55
11, 39780, Note_on_c, 10, 83, 0
11, 39840, Note_on_c, 10, 79, 55
11, 39900, Note_on_c, 10, 79, 0
11, 39960, Note_on_c, 10, 76, 55
11, 40020, Note_on_c, 10, 76, 0
11, 40080, Note_on_c, 10, 81, 55
11, 40140, Note_on_c, 10, 81, 0
11, 40320, Note_on_c, 10, 78, 55
11, 40500, Note_on_c, 10, 78, 0
11, 40500, Note_on_c, 10, 76, 55
11, 40520, Note_on_c, 10, 76, 0
11, 40520, Note_on_c, 10, 74, 55
11, 40540, Note_on_c, 10, 74, 0
11, 40540, Note_on_c, 10, 73, 55
11, 40560, Note_on_c, 10, 73, 0
11, 40560, Note_on_c, 10, 71, 55
11, 40620, Note_on_c, 10, 71, 0
11, 40680, Note_on_c, 10, 79, 55
11, 40740, Note_on_c, 10, 79, 0
11, 40800, Note_on_c, 10, 78, 55
11, 41040, Note_on_c, 10, 78, 0
11, 41040, Note_on_c, 10, 76, 43
11, 41160, Note_on_c, 10, 76, 0
11, 41340, Note_on_c, 10, 81, 55
11, 41370, Note_on_c, 10, 81, 0
11, 41400, Note_on_c, 10, 81, 55
11, 41430, Note_on_c, 10, 81, 0
11, 41460, Note_on_c, 10, 81, 55
11, 41490, Note_on_c, 10, 81, 0
11, 41520, Note_on_c, 10, 81, 55
11, 41550, Note_on_c, 10, 81, 0
11, 41580, Note_on_c, 10, 81, 55
11, 41610, Note_on_c, 10, 81, 0
11, 41640, Note_on_c, 10, 81, 55
11, 41670, Note_on_c, 10, 81, 0
11, 41700, Note_on_c, 10, 81, 55
11, 41730, Note_on_c, 10, 81, 0
11, 41760, Note_on_c, 10, 81, 55
11, 41790, Note_on_c, 10, 81, 0
11, 41820, Note_on_c, 10, 81, 55
11, 41850, Note_on_c, 10, 81, 0
11, 41880, Note_on_c, 10, 81, 55
11, 41910, Note_on_c, 10, 81, 0
11, 41940, Note_on_c, 10, 81, 55
11, 41970, Note_on_c, 10, 81, 0
11, 42000, Note_on_c, 10, 81, 55
11, 42030, Note_on_c, 10, 81, 0
11, 42060, Note_on_c, 10, 81, 55
11, 42090, Note_on_c, 10, 81, 0
11, 42120, Note_on_c, 10, 83, 55
11, 42150, Note_on_c, 10, 83, 0
11, 42180, Note_on_c, 10, 85, 55
11, 42210, Note_on_c, 10, 85, 0
11, 42240, Note_on_c, 10, 85, 55
11, 42300, Note_on_c, 10, 85, 0
11, 42300, Note_on_c, 10, 86, 55
11, 42360, Note_on_c, 10, 86, 0
11, 42420, Note_on_c, 10, 83, 55
11, 42450, Note_on_c, 10, 83, 0
11, 42480, Note_on_c, 10, 83, 55
11, 42540, Note_on_c, 10, 83, 0
11, 42540, Note_on_c, 10, 81, 55
11, 42600, Note_on_c, 10, 81, 0
11, 42660, Note_on_c, 10, 73, 55
11, 42705, Note_on_c, 10, 73, 0
11, 42720, Note_on_c, 10, 74, 55
11, 42840, Note_on_c, 10, 74, 0
11, 42900, Note_on_c, 10, 81, 55
11, 42930, Note_on_c, 10, 81, 0
11, 42960, Note_on_c, 10, 86, 55
11, 43020, Note_on_c, 10, 86, 0
11, 43020, Note_on_c, 10, 85, 55
11, 43080, Note_on_c, 10, 85, 0
11, 43080, Note_on_c, 10, 83, 55
11, 43140, Note_on_c, 10, 83, 0
11, 43140, Note_on_c, 10, 81, 55
11, 43200, Note_on_c, 10, 81, 0
11, 43200, Note_on_c, 10, 83, 55
11, 43215, Note_on_c, 10, 83, 0
11, 43215, Note_on_c, 10, 85, 55
11, 43230, Note_on_c, 10, 85, 0
11, 43230, Note_on_c, 10, 83, 55
11, 43245, Note_on_c, 10, 83, 0
11, 43245, Note_on_c, 10, 85, 55
11, 43260, Note_on_c, 10, 85, 0
11, 43260, Note_on_c, 10, 81, 55
11, 43320, Note_on_c, 10, 81, 0
11, 43380, Note_on_c, 10, 81, 55
11, 43410, Note_on_c, 10, 81, 0
11, 43440, Note_on_c, 10, 81, 55
11, 43470, Note_on_c, 10, 81, 0
11, 43500, Note_on_c, 10, 81, 55
11, 43530, Note_on_c, 10, 81, 0
11, 43560, Note_on_c, 10, 81, 55
11, 43590, Note_on_c, 10, 81, 0
11, 43620, Note_on_c, 10, 81, 55
11, 43650, Note_on_c, 10, 81, 0
11, 43680, Note_on_c, 10, 83, 55
11, 43695, Note_on_c, 10, 83, 0
11, 43695, Note_on_c, 10, 85, 55
11, 43710, Note_on_c, 10, 85, 0
11, 43710, Note_on_c, 10, 83, 55
11, 43725, Note_on_c, 10, 83, 0
11, 43725, Note_on_c, 10, 85, 55
11, 43740, Note_on_c, 10, 85, 0
11, 43740, Note_on_c, 10, 81, 55
11, 43800, Note_on_c, 10, 81, 0
11, 43860, Note_on_c, 10, 81, 55
11, 43905, Note_on_c, 10, 81, 0
11, 43920, Note_on_c, 10, 86, 55
11, 43980, Note_on_c, 10, 86, 0
11, 43980, Note_on_c, 10, 85, 55
11, 44040, Note_on_c, 10, 85, 0
11, 44040, Note_on_c, 10, 83, 55
11, 44100, Note_on_c, 10, 83, 0
11, 44100, Note_on_c, 10, 81, 55
11, 44160, Note_on_c, 10, 81, 0
11, 44160, Note_on_c, 10, 83, 55
11, 44175, Note_on_c, 10, 83, 0
11, 44175, Note_on_c, 10, 85, 55
11, 44190, Note_on_c, 10, 85, 0
11, 44190, Note_on_c, 10, 83, 55
11, 44205, Note_on_c, 10, 83, 0
11, 44205, Note_on_c, 10, 85, 55
11, 44220, Note_on_c, 10, 85, 0
11, 44220, Note_on_c, 10, 81, 55
11, 44280, Note_on_c, 10, 81, 0
11, 44340, Note_on_c, 10, 81, 55
11, 44370, Note_on_c, 10, 81, 0
11, 44400, Note_on_c, 10, 81, 55
11, 44430, Note_on_c, 10, 81, 0
11, 44460, Note_on_c, 10, 81, 55
11, 44490, Note_on_c, 10, 81, 0
11, 44520, Note_on_c, 10, 81, 55
11, 44550, Note_on_c, 10, 81, 0
11, 44580, Note_on_c, 10, 81, 55
11, 44610, Note_on_c, 10, 81, 0
11, 44640, Note_on_c, 10, 83, 55
11, 44655, Note_on_c, 10, 83, 0
11, 44655, Note_on_c, 10, 85, 55
11, 44670, Note_on_c, 10, 85, 0
11, 44670, Note_on_c, 10, 83, 55
11, 44685, Note_on_c, 10, 83, 0
11, 44685, Note_on_c, 10, 85, 55
11, 44700, Note_on_c, 10, 85, 0
11, 44700, Note_on_c, 10, 81, 55
11, 44760, Note_on_c, 10, 81, 0
11, 44880, Note_on_c, 10, 71, 94
11, 44880, Note_on_c, 10, 83, 94
11, 45050, Note_on_c, 10, 83, 0
11, 45050, Note_on_c, 10, 71, 0
11, 45060, Note_on_c, 10, 81, 83
11, 45080, Note_on_c, 10, 81, 0
11, 45080, Note_on_c, 10, 79, 83
11, 45100, Note_on_c, 10, 79, 0
11, 45100, Note_on_c, 10, 78, 83
11, 45120, Note_on_c, 10, 78, 0
11, 45120, Note_on_c, 10, 79, 83
11, 45240, Note_on_c, 10, 79, 0
11, 45360, Note_on_c, 10, 81, 85
11, 45360, Note_on_c, 10, 69, 85
11, 45530, Note_on_c, 10, 69, 0
11, 45530, Note_on_c, 10, 81, 0
11, 45540, Note_on_c, 10, 79, 85
11, 45560, Note_on_c, 10, 79, 0
11, 45560, Note_on_c, 10, 78, 85
11, 45580, Note_on_c, 10, 78, 0
11, 45580, Note_on_c, 10, 76, 85
11, 45600, Note_on_c, 10, 76, 0
11, 45600, Note_on_c, 10, 78, 85
11, 45720, Note_on_c, 10, 78, 0
11, 45840, Note_on_c, 10, 83, 79
11, 45900, Note_on_c, 10, 83, 0
11, 45900, Note_on_c, 10, 85, 80
11, 45930, Note_on_c, 10, 85, 0
11, 45930, Note_on_c, 10, 86, 82
11, 45960, Note_on_c, 10, 86, 0
11, 45960, Note_on_c, 10, 85, 82
11, 46005, Note_on_c, 10, 85, 0
11, 46020, Note_on_c, 10, 83, 82
11, 46050, Note_on_c, 10, 83, 0
11, 46080, Note_on_c, 10, 83, 83
11, 46140, Note_on_c, 10, 83, 0
11, 46140, Note_on_c, 10, 81, 86
11, 46185, Note_on_c, 10, 81, 0
11, 46200, Note_on_c, 10, 78, 86
11, 46230, Note_on_c, 10, 78, 0
11, 46260, Note_on_c, 10, 81, 88
11, 46290, Note_on_c, 10, 81, 0
11, 46320, Note_on_c, 10, 81, 88
11, 46380, Note_on_c, 10, 81, 0
11, 46380, Note_on_c, 10, 79, 83
11, 46425, Note_on_c, 10, 79, 0
11, 46440, Note_on_c, 10, 78, 79
11, 46470, Note_on_c, 10, 78, 0
11, 46500, Note_on_c, 10, 76, 76
11, 46530, Note_on_c, 10, 76, 0
11, 46560, Note_on_c, 10, 74, 85
11, 46680, Note_on_c, 10, 74, 0
11, 46740, Note_on_c, 10, 81, 53
11, 46770, Note_on_c, 10, 81, 0
11, 46800, Note_on_c, 10, 86, 53
11, 46860, Note_on_c, 10, 86, 0
11, 46860, Note_on_c, 10, 85, 53
11, 46920, Note_on_c, 10, 85, 0
11, 46920, Note_on_c, 10, 83, 53
11, 46980, Note_on_c, 10, 83, 0
11, 46980, Note_on_c, 10, 81, 53
11, 47040, Note_on_c, 10, 81, 0
11, 47040, Note_on_c, 10, 83, 55
11, 47055, Note_on_c, 10, 83, 0
11, 47055, Note_on_c, 10, 85, 55
11, 47070, Note_on_c, 10, 85, 0
11, 47070, Note_on_c, 10, 83, 55
11, 47085, Note_on_c, 10, 83, 0
11, 47085, Note_on_c, 10, 85, 55
11, 47100, Note_on_c, 10, 85, 0
11, 47100, Note_on_c, 10, 81, 55
11, 47160, Note_on_c, 10, 81, 0
11, 47220, Note_on_c, 10, 81, 55
11, 47250, Note_on_c, 10, 81, 0
11, 47280, Note_on_c, 10, 81, 55
11, 47310, Note_on_c, 10, 81, 0
11, 47340, Note_on_c, 10, 81, 55
11, 47370, Note_on_c, 10, 81, 0
11, 47400, Note_on_c, 10, 81, 55
11, 47430, Note_on_c, 10, 81, 0
11, 47460, Note_on_c, 10, 81, 55
11, 47490, Note_on_c, 10, 81, 0
11, 47520, Note_on_c, 10, 83, 55
11, 47535, Note_on_c, 10, 83, 0
11, 47535, Note_on_c, 10, 85, 55
11, 47550, Note_on_c, 10, 85, 0
11, 47550, Note_on_c, 10, 83, 55
11, 47565, Note_on_c, 10, 83, 0
11, 47565, Note_on_c, 10, 85, 55
11, 47580, Note_on_c, 10, 85, 0
11, 47580, Note_on_c, 10, 81, 55
11, 47640, Note_on_c, 10, 81, 0
11, 47700, Note_on_c, 10, 81, 55
11, 47745, Note_on_c, 10, 81, 0
11, 47760, Note_on_c, 10, 86, 55
11, 47820, Note_on_c, 10, 86, 0
11, 47820, Note_on_c, 10, 85, 55
11, 47880, Note_on_c, 10, 85, 0
11, 47880, Note_on_c, 10, 83, 55
11, 47940, Note_on_c, 10, 83, 0
11, 47940, Note_on_c, 10, 81, 55
11, 48000, Note_on_c, 10, 81, 0
11, 48000, Note_on_c, 10, 83, 55
11, 48015, Note_on_c, 10, 83, 0
11, 48015, Note_on_c, 10, 85, 55
11, 48030, Note_on_c, 10, 85, 0
11, 48030, Note_on_c, 10, 83, 55
11, 48045, Note_on_c, 10, 83, 0
11, 48045, Note_on_c, 10, 85, 55
11, 48060, Note_on_c, 10, 85, 0
11, 48060, Note_on_c, 10, 81, 55
11, 48120, Note_on_c, 10, 81, 0
11, 48180, Note_on_c, 10, 81, 55
11, 48210, Note_on_c, 10, 81, 0
11, 48240, Note_on_c, 10, 81, 55
11, 48270, Note_on_c, 10, 81, 0
11, 48300, Note_on_c, 10, 81, 55
11, 48330, Note_on_c, 10, 81, 0
11, 48360, Note_on_c, 10, 81, 55
11, 48390, Note_on_c, 10, 81, 0
11, 48420, Note_on_c, 10, 81, 55
11, 48450, Note_on_c, 10, 81, 0
11, 48480, Note_on_c, 10, 83, 59
11, 48495, Note_on_c, 10, 83, 0
11, 48495, Note_on_c, 10, 85, 59
11, 48510, Note_on_c, 10, 85, 0
11, 48510, Note_on_c, 10, 83, 59
11, 48525, Note_on_c, 10, 83, 0
11, 48525, Note_on_c, 10, 85, 59
11, 48540, Note_on_c, 10, 85, 0
11, 48540, Note_on_c, 10, 81, 59
11, 48600, Note_on_c, 10, 81, 0
11, 48720, Note_on_c, 10, 71, 85
11, 48720, Note_on_c, 10, 83, 85
11, 48890, Note_on_c, 10, 83, 0
11, 48890, Note_on_c, 10, 71, 0
11, 48900, Note_on_c, 10, 81, 85
11, 48920, Note_on_c, 10, 81, 0
11, 48920, Note_on_c, 10, 79, 85
11, 48940, Note_on_c, 10, 79, 0
11, 48940, Note_on_c, 10, 78, 85
11, 48960, Note_on_c, 10, 78, 0
11, 48960, Note_on_c, 10, 79, 85
11, 49080, Note_on_c, 10, 79, 0
11, 49200, Note_on_c, 10, 81, 85
11, 49200, Note_on_c, 10, 69, 85
11, 49370, Note_on_c, 10, 69, 0
11, 49370, Note_on_c, 10, 81, 0
11, 49380, Note_on_c, 10, 79, 85
11, 49400, Note_on_c, 10, 79, 0
11, 49400, Note_on_c, 10, 78, 85
11, 49420, Note_on_c, 10, 78, 0
11, 49420, Note_on_c, 10, 76, 85
11, 49440, Note_on_c, 10, 76, 0
11, 49440, Note_on_c, 10, 78, 85
11, 49560, Note_on_c, 10, 78, 0
11, 49680, Note_on_c, 10, 83, 85
11, 49740, Note_on_c, 10, 83, 0
11, 49740, Note_on_c, 10, 85, 85
11, 49770, Note_on_c, 10, 85, 0
11, 49770, Note_on_c, 10, 86, 85
11, 49800, Note_on_c, 10, 86, 0
11, 49800, Note_on_c, 10, 85, 85
11, 49845, Note_on_c, 10, 85, 0
11, 49860, Note_on_c, 10, 83, 85
11, 49890, Note_on_c, 10, 83, 0
11, 49920, Note_on_c, 10, 83, 95
11, 49980, Note_on_c, 10, 83, 0
11, 49980, Note_on_c, 10, 81, 85
11, 50025, Note_on_c, 10, 81, 0
11, 50040, Note_on_c, 10, 78, 85
11, 50070, Note_on_c, 10, 78, 0
11, 50100, Note_on_c, 10, 81, 85
11, 50130, Note_on_c, 10, 81, 0
11, 50160, Note_on_c, 10, 81, 85
11, 50220, Note_on_c, 10, 81, 0
11, 50220, Note_on_c, 10, 79, 85
11, 50265, Note_on_c, 10, 79, 0
11, 50280, Note_on_c, 10, 78, 85
11, 50310, Note_on_c, 10, 78, 0
11, 50340, Note_on_c, 10, 76, 85
11, 50370, Note_on_c, 10, 76, 0
11, 50400, Note_on_c, 10, 74, 85
11, 50445, Note_on_c, 10, 74, 0
11, 50460, Note_on_c, 10, 69, 85
11, 50505, Note_on_c, 10, 69, 0
11, 50520, Note_on_c, 10, 71, 85
11, 50565, Note_on_c, 10, 71, 0
11, 50580, Note_on_c, 10, 73, 85
11, 50625, Note_on_c, 10, 73, 0
11, 50640, Note_on_c, 10, 74, 85
11, 50670, Note_on_c, 10, 74, 0
11, 50700, Note_on_c, 10, 74, 85
11, 50730, Note_on_c, 10, 74, 0
11, 50760, Note_on_c, 10, 76, 85
11, 50775, Note_on_c, 10, 76, 0
11, 50775, Note_on_c, 10, 78, 85
11, 50790, Note_on_c, 10, 78, 0
11, 50790, Note_on_c, 10, 76, 85
11, 50805, Note_on_c, 10, 76, 0
11, 50805, Note_on_c, 10, 78, 85
11, 50820, Note_on_c, 10, 78, 0
11, 50820, Note_on_c, 10, 74, 85
11, 50850, Note_on_c, 10, 74, 0
11, 50850, Note_on_c, 10, 76, 85
11, 50880, Note_on_c, 10, 76, 0
11, 50880, Note_on_c, 10, 78, 85
11, 50940, Note_on_c, 10, 78, 0
11, 50940, Note_on_c, 10, 73, 85
11, 50985, Note_on_c, 10, 73, 0
11, 51000, Note_on_c, 10, 74, 85
11, 51045, Note_on_c, 10, 74, 0
11, 51060, Note_on_c, 10, 76, 85
11, 51105, Note_on_c, 10, 76, 0
11, 51120, Note_on_c, 10, 78, 85
11, 51165, Note_on_c, 10, 78, 0
11, 51180, Note_on_c, 10, 78, 85
11, 51225, Note_on_c, 10, 78, 0
11, 51240, Note_on_c, 10, 79, 85
11, 51255, Note_on_c, 10, 79, 0
11, 51255, Note_on_c, 10, 81, 86
11, 51270, Note_on_c, 10, 81, 0
11, 51270, Note_on_c, 10, 79, 86
11, 51285, Note_on_c, 10, 79, 0
11, 51285, Note_on_c, 10, 81, 86
11, 51300, Note_on_c, 10, 81, 0
11, 51300, Note_on_c, 10, 78, 86
11, 51330, Note_on_c, 10, 78, 0
11, 51330, Note_on_c, 10, 79, 88
11, 51360, Note_on_c, 10, 79, 0
11, 51360, Note_on_c, 10, 81, 88
11, 51405, Note_on_c, 10, 81, 0
11, 51420, Note_on_c, 10, 81, 88
11, 51465, Note_on_c, 10, 81, 0
11, 51480, Note_on_c, 10, 82, 89
11, 51495, Note_on_c, 10, 82, 0
11, 51495, Note_on_c, 10, 83, 91
11, 51510, Note_on_c, 10, 83, 0
11, 51510, Note_on_c, 10, 82, 91
11, 51525, Note_on_c, 10, 82, 0
11, 51525, Note_on_c, 10, 83, 91
11, 51540, Note_on_c, 10, 83, 0
11, 51540, Note_on_c, 10, 80, 92
11, 51570, Note_on_c, 10, 80, 0
11, 51570, Note_on_c, 10, 82, 94
11, 51600, Note_on_c, 10, 82, 0
11, 51600, Note_on_c, 10, 83, 98
11, 51720, Note_on_c, 10, 83, 0
11, 51840, Note_on_c, 10, 71, 40
11, 52020, Note_on_c, 10, 71, 0
11, 52020, Note_on_c, 10, 76, 47
11, 52065, Note_on_c, 10, 76, 0
11, 52080, Note_on_c, 10, 74, 49
11, 52140, Note_on_c, 10, 74, 0
11, 52140, Note_on_c, 10, 73, 49
11, 52200, Note_on_c, 10, 73, 0
11, 52200, Note_on_c, 10, 71, 43
11, 52260, Note_on_c, 10, 71, 0
11, 52260, Note_on_c, 10, 69, 41
11, 52320, Note_on_c, 10, 69, 0
11, 52320, Note_on_c, 10, 74, 40
11, 52380, Note_on_c, 10, 74, 0
11, 52440, Note_on_c, 10, 78, 59
11, 52500, Note_on_c, 10, 78, 0
11, 52560, Note_on_c, 10, 74, 57
11, 52620, Note_on_c, 10, 74, 0
11, 52800, Note_on_c, 10, 62, 100
11, 52800, Note_on_c, 10, 74, 100
11, 52920, Note_on_c, 10, 74, 0
11, 52920, Note_on_c, 10, 62, 0
11, 52980, Note_on_c, 10, 69, 91
11, 53025, Note_on_c, 10, 69, 0
11, 53040, Note_on_c, 10, 74, 91
11, 53160, Note_on_c, 10, 74, 0
11, 53220, Note_on_c, 10, 69, 91
11, 53265, Note_on_c, 10, 69, 0
11, 53280, Note_on_c, 10, 74, 91
11, 53325, Note_on_c, 10, 74, 0
11, 53340, Note_on_c, 10, 69, 91
11, 53385, Note_on_c, 10, 69, 0
11, 53400, Note_on_c, 10, 74, 91
11, 53445, Note_on_c, 10, 74, 0
11, 53460, Note_on_c, 10, 78, 91
11, 53505, Note_on_c, 10, 78, 0
11, 53520, Note_on_c, 10, 81, 91
11, 53640, Note_on_c, 10, 81, 0
11, 53760, Note_on_c, 10, 81, 91
11, 53880, Note_on_c, 10, 81, 0
11, 53940, Note_on_c, 10, 78, 91
11, 53985, Note_on_c, 10, 78, 0
11, 54000, Note_on_c, 10, 81, 91
11, 54120, Note_on_c, 10, 81, 0
11, 54180, Note_on_c, 10, 78, 91
11, 54225, Note_on_c, 10, 78, 0
11, 54240, Note_on_c, 10, 81, 91
11, 54285, Note_on_c, 10, 81, 0
11, 54300, Note_on_c, 10, 78, 91
11, 54345, Note_on_c, 10, 78, 0
11, 54360, Note_on_c, 10, 75, 91
11, 54405, Note_on_c, 10, 75, 0
11, 54420, Note_on_c, 10, 78, 91
11, 54465, Note_on_c, 10, 78, 0
11, 54480, Note_on_c, 10, 71, 91
11, 54600, Note_on_c, 10, 71, 0
11, 54900, Note_on_c, 10, 79, 55
11, 54945, Note_on_c, 10, 79, 0
11, 54960, Note_on_c, 10, 84, 55
11, 55020, Note_on_c, 10, 84, 0
11, 55020, Note_on_c, 10, 83, 55
11, 55080, Note_on_c, 10, 83, 0
11, 55080, Note_on_c, 10, 81, 55
11, 55140, Note_on_c, 10, 81, 0
11, 55140, Note_on_c, 10, 79, 55
11, 55200, Note_on_c, 10, 79, 0
11, 55200, Note_on_c, 10, 81, 55
11, 55215, Note_on_c, 10, 81, 0
11, 55215, Note_on_c, 10, 83, 55
11, 55230, Note_on_c, 10, 83, 0
11, 55230, Note_on_c, 10, 81, 55
11, 55245, Note_on_c, 10, 81, 0
11, 55245, Note_on_c, 10, 83, 55
11, 55260, Note_on_c, 10, 83, 0
11, 55260, Note_on_c, 10, 79, 55
11, 55320, Note_on_c, 10, 79, 0
11, 55380, Note_on_c, 10, 79, 55
11, 55410, Note_on_c, 10, 79, 0
11, 55440, Note_on_c, 10, 79, 55
11, 55470, Note_on_c, 10, 79, 0
11, 55500, Note_on_c, 10, 79, 55
11, 55530, Note_on_c, 10, 79, 0
11, 55560, Note_on_c, 10, 79, 55
11, 55590, Note_on_c, 10, 79, 0
11, 55620, Note_on_c, 10, 79, 55
11, 55650, Note_on_c, 10, 79, 0
11, 55680, Note_on_c, 10, 81, 55
11, 55695, Note_on_c, 10, 81, 0
11, 55695, Note_on_c, 10, 83, 55
11, 55710, Note_on_c, 10, 83, 0
11, 55710, Note_on_c, 10, 81, 55
11, 55725, Note_on_c, 10, 81, 0
11, 55725, Note_on_c, 10, 83, 55
11, 55740, Note_on_c, 10, 83, 0
11, 55740, Note_on_c, 10, 79, 55
11, 55800, Note_on_c, 10, 79, 0
11, 55860, Note_on_c, 10, 79, 55
11, 55905, Note_on_c, 10, 79, 0
11, 55920, Note_on_c, 10, 84, 55
11, 55980, Note_on_c, 10, 84, 0
11, 55980, Note_on_c, 10, 83, 55
11, 56040, Note_on_c, 10, 83, 0
11, 56040, Note_on_c, 10, 81, 55
11, 56100, Note_on_c, 10, 81, 0
11, 56100, Note_on_c, 10, 79, 55
11, 56160, Note_on_c, 10, 79, 0
11, 56160, Note_on_c, 10, 81, 55
11, 56175, Note_on_c, 10, 81, 0
11, 56175, Note_on_c, 10, 83, 55
11, 56190, Note_on_c, 10, 83, 0
11, 56190, Note_on_c, 10, 81, 55
11, 56205, Note_on_c, 10, 81, 0
11, 56205, Note_on_c, 10, 83, 55
11, 56220, Note_on_c, 10, 83, 0
11, 56220, Note_on_c, 10, 79, 55
11, 56280, Note_on_c, 10, 79, 0
11, 56340, Note_on_c, 10, 79, 55
11, 56370, Note_on_c, 10, 79, 0
11, 56400, Note_on_c, 10, 79, 55
11, 56430, Note_on_c, 10, 79, 0
11, 56460, Note_on_c, 10, 79, 55
11, 56490, Note_on_c, 10, 79, 0
11, 56520, Note_on_c, 10, 79, 55
11, 56550, Note_on_c, 10, 79, 0
11, 56580, Note_on_c, 10, 79, 55
11, 56610, Note_on_c, 10, 79, 0
11, 56640, Note_on_c, 10, 81, 55
11, 56655, Note_on_c, 10, 81, 0
11, 56655, Note_on_c, 10, 83, 55
11, 56670, Note_on_c, 10, 83, 0
11, 56670, Note_on_c, 10, 81, 55
11, 56685, Note_on_c, 10, 81, 0
11, 56685, Note_on_c, 10, 83, 55
11, 56700, Note_on_c, 10, 83, 0
11, 56700, Note_on_c, 10, 79, 55
11, 56760, Note_on_c, 10, 79, 0
11, 56820, Note_on_c, 10, 79, 55
11, 56865, Note_on_c, 10, 79, 0
11, 56880, Note_on_c, 10, 84, 55
11, 56940, Note_on_c, 10, 84, 0
11, 56940, Note_on_c, 10, 83, 55
11, 57000, Note_on_c, 10, 83, 0
11, 57000, Note_on_c, 10, 81, 55
11, 57060, Note_on_c, 10, 81, 0
11, 57060, Note_on_c, 10, 79, 55
11, 57120, Note_on_c, 10, 79, 0
11, 57120, Note_on_c, 10, 81, 55
11, 57135, Note_on_c, 10, 81, 0
11, 57135, Note_on_c, 10, 83, 55
11, 57150, Note_on_c, 10, 83, 0
11, 57150, Note_on_c, 10, 81, 55
11, 57165, Note_on_c, 10, 81, 0
11, 57165, Note_on_c, 10, 83, 55
11, 57180, Note_on_c, 10, 83, 0
11, 57180, Note_on_c, 10, 80, 55
11, 57240, Note_on_c, 10, 80, 0
11, 57300, Note_on_c, 10, 80, 55
11, 57330, Note_on_c, 10, 80, 0
11, 57360, Note_on_c, 10, 80, 55
11, 57390, Note_on_c, 10, 80, 0
11, 57420, Note_on_c, 10, 80, 55
11, 57450, Note_on_c, 10, 80, 0
11, 57480, Note_on_c, 10, 80, 55
11, 57510, Note_on_c, 10, 80, 0
11, 57540, Note_on_c, 10, 80, 55
11, 57570, Note_on_c, 10, 80, 0
11, 57600, Note_on_c, 10, 83, 55
11, 57615, Note_on_c, 10, 83, 0
11, 57615, Note_on_c, 10, 84, 55
11, 57630, Note_on_c, 10, 84, 0
11, 57630, Note_on_c, 10, 83, 55
11, 57645, Note_on_c, 10, 83, 0
11, 57645, Note_on_c, 10, 84, 55
11, 57660, Note_on_c, 10, 84, 0
11, 57660, Note_on_c, 10, 81, 55
11, 57720, Note_on_c, 10, 81, 0
11, 57780, Note_on_c, 10, 81, 55
11, 57825, Note_on_c, 10, 81, 0
11, 57840, Note_on_c, 10, 84, 55
11, 57900, Note_on_c, 10, 84, 0
11, 57900, Note_on_c, 10, 82, 55
11, 57960, Note_on_c, 10, 82, 0
11, 57960, Note_on_c, 10, 81, 55
11, 58020, Note_on_c, 10, 81, 0
11, 58020, Note_on_c, 10, 79, 55
11, 58080, Note_on_c, 10, 79, 0
11, 58080, Note_on_c, 10, 79, 55
11, 58095, Note_on_c, 10, 79, 0
11, 58095, Note_on_c, 10, 81, 55
11, 58110, Note_on_c, 10, 81, 0
11, 58110, Note_on_c, 10, 79, 55
11, 58125, Note_on_c, 10, 79, 0
11, 58125, Note_on_c, 10, 81, 55
11, 58140, Note_on_c, 10, 81, 0
11, 58140, Note_on_c, 10, 78, 55
11, 58200, Note_on_c, 10, 78, 0
11, 58260, Note_on_c, 10, 78, 55
11, 58290, Note_on_c, 10, 78, 0
11, 58320, Note_on_c, 10, 78, 55
11, 58350, Note_on_c, 10, 78, 0
11, 58380, Note_on_c, 10, 78, 55
11, 58410, Note_on_c, 10, 78, 0
11, 58440, Note_on_c, 10, 78, 55
11, 58470, Note_on_c, 10, 78, 0
11, 58500, Note_on_c, 10, 78, 55
11, 58530, Note_on_c, 10, 78, 0
11, 58560, Note_on_c, 10, 81, 55
11, 58575, Note_on_c, 10, 81, 0
11, 58575, Note_on_c, 10, 82, 55
11, 58590, Note_on_c, 10, 82, 0
11, 58590, Note_on_c, 10, 81, 55
11, 58605, Note_on_c, 10, 81, 0
11, 58605, Note_on_c, 10, 82, 55
11, 58620, Note_on_c, 10, 82, 0
11, 58620, Note_on_c, 10, 79, 55
11, 58680, Note_on_c, 10, 79, 0
11, 58740, Note_on_c, 10, 75, 55
11, 58785, Note_on_c, 10, 75, 0
11, 58800, Note_on_c, 10, 79, 55
11, 58860, Note_on_c, 10, 79, 0
11, 58860, Note_on_c, 10, 77, 55
11, 58920, Note_on_c, 10, 77, 0
11, 58920, Note_on_c, 10, 76, 55
11, 58980, Note_on_c, 10, 76, 0
11, 58980, Note_on_c, 10, 74, 55
11, 59040, Note_on_c, 10, 74, 0
11, 59040, Note_on_c, 10, 74, 55
11, 59055, Note_on_c, 10, 74, 0
11, 59055, Note_on_c, 10, 75, 55
11, 59070, Note_on_c, 10, 75, 0
11, 59070, Note_on_c, 10, 74, 55
11, 59085, Note_on_c, 10, 74, 0
11, 59085, Note_on_c, 10, 75, 55
11, 59100, Note_on_c, 10, 75, 0
11, 59100, Note_on_c, 10, 73, 55
11, 59160, Note_on_c, 10, 73, 0
11, 59220, Note_on_c, 10, 73, 55
11, 59250, Note_on_c, 10, 73, 0
11, 59280, Note_on_c, 10, 73, 55
11, 59310, Note_on_c, 10, 73, 0
11, 59340, Note_on_c, 10, 73, 55
11, 59370, Note_on_c, 10, 73, 0
11, 59400, Note_on_c, 10, 73, 55
11, 59430, Note_on_c, 10, 73, 0
11, 59460, Note_on_c, 10, 73, 55
11, 59490, Note_on_c, 10, 73, 0
11, 59520, Note_on_c, 10, 76, 53
11, 59535, Note_on_c, 10, 76, 0
11, 59535, Note_on_c, 10, 78, 53
11, 59550, Note_on_c, 10, 78, 0
11, 59550, Note_on_c, 10, 76, 53
11, 59565, Note_on_c, 10, 76, 0
11, 59565, Note_on_c, 10, 78, 53
11, 59580, Note_on_c, 10, 78, 0
11, 59580, Note_on_c, 10, 74, 53
11, 59640, Note_on_c, 10, 74, 0
11, 59700, Note_on_c, 10, 62, 91
11, 59760, Note_on_c, 10, 62, 0
11, 59760, Note_on_c, 10, 64, 91
11, 59820, Note_on_c, 10, 64, 0
11, 59820, Note_on_c, 10, 66, 91
11, 59880, Note_on_c, 10, 66, 0
11, 59880, Note_on_c, 10, 67, 91
11, 59940, Note_on_c, 10, 67, 0
11, 59940, Note_on_c, 10, 69, 91
11, 60000, Note_on_c, 10, 69, 0
11, 60000, Note_on_c, 10, 72, 91
11, 60060, Note_on_c, 10, 72, 0
11, 60060, Note_on_c, 10, 70, 91
11, 60120, Note_on_c, 10, 70, 0
11, 60180, Note_on_c, 10, 66, 91
11, 60240, Note_on_c, 10, 66, 0
11, 60240, Note_on_c, 10, 67, 91
11, 60300, Note_on_c, 10, 67, 0
11, 60300, Note_on_c, 10, 69, 91
11, 60360, Note_on_c, 10, 69, 0
11, 60360, Note_on_c, 10, 70, 91
11, 60420, Note_on_c, 10, 70, 0
11, 60420, Note_on_c, 10, 73, 91
11, 60480, Note_on_c, 10, 73, 0
11, 60480, Note_on_c, 10, 76, 91
11, 60540, Note_on_c, 10, 76, 0
11, 60540, Note_on_c, 10, 74, 91
11, 60600, Note_on_c, 10, 74, 0
11, 60660, Note_on_c, 10, 74, 53
11, 60720, Note_on_c, 10, 74, 0
11, 60720, Note_on_c, 10, 76, 53
11, 60780, Note_on_c, 10, 76, 0
11, 60780, Note_on_c, 10, 78, 53
11, 60840, Note_on_c, 10, 78, 0
11, 60840, Note_on_c, 10, 79, 53
11, 60900, Note_on_c, 10, 79, 0
11, 60900, Note_on_c, 10, 81, 52
11, 60960, Note_on_c, 10, 81, 0
11, 60960, Note_on_c, 10, 82, 50
11, 61080, Note_on_c, 10, 82, 0
11, 61080, Note_on_c, 10, 83, 46
11, 61200, Note_on_c, 10, 83, 0
11, 61200, Note_on_c, 10, 84, 43
11, 61320, Note_on_c, 10, 84, 0
11, 61320, Note_on_c, 10, 85, 40
11, 61440, Note_on_c, 10, 85, 0
11, 61440, Note_on_c, 10, 86, 59
11, 62145, Note_on_c, 10, 86, 0
11, 62160, Note_on_c, 10, 78, 52
11, 62175, Note_on_c, 10, 78, 0
11, 62175, Note_on_c, 10, 79, 53
11, 62190, Note_on_c, 10, 79, 0
11, 62190, Note_on_c, 10, 78, 55
11, 62205, Note_on_c, 10, 78, 0
11, 62205, Note_on_c, 10, 79, 58
11, 62220, Note_on_c, 10, 79, 0
11, 62220, Note_on_c, 10, 78, 59
11, 62235, Note_on_c, 10, 78, 0
11, 62235, Note_on_c, 10, 79, 61
11, 62250, Note_on_c, 10, 79, 0
11, 62250, Note_on_c, 10, 78, 62
11, 62265, Note_on_c, 10, 78, 0
11, 62265, Note_on_c, 10, 79, 65
11, 62280, Note_on_c, 10, 79, 0
11, 62280, Note_on_c, 10, 78, 67
11, 62295, Note_on_c, 10, 78, 0
11, 62295, Note_on_c, 10, 79, 68
11, 62310, Note_on_c, 10, 79, 0
11, 62310, Note_on_c, 10, 78, 70
11, 62325, Note_on_c, 10, 78, 0
11, 62325, Note_on_c, 10, 79, 71
11, 62340, Note_on_c, 10, 79, 0
11, 62340, Note_on_c, 10, 76, 74
11, 62370, Note_on_c, 10, 76, 0
11, 62370, Note_on_c, 10, 78, 77
11, 62400, Note_on_c, 10, 78, 0
11, 62400, Note_on_c, 10, 79, 93
11, 62520, Note_on_c, 10, 79, 0
11, 62580, Note_on_c, 10, 74, 92
11, 62610, Note_on_c, 10, 74, 0
11, 62640, Note_on_c, 10, 79, 92
11, 62760, Note_on_c, 10, 79, 0
11, 62820, Note_on_c, 10, 74, 91
11, 62850, Note_on_c, 10, 74, 0
11, 62880, Note_on_c, 10, 79, 90
11, 62910, Note_on_c, 10, 79, 0
11, 62940, Note_on_c, 10, 74, 90
11, 62970, Note_on_c, 10, 74, 0
11, 63000, Note_on_c, 10, 79, 90
11, 63030, Note_on_c, 10, 79, 0
11, 63060, Note_on_c, 10, 83, 90
11, 63090, Note_on_c, 10, 83, 0
11, 63120, Note_on_c, 10, 86, 89
11, 63240, Note_on_c, 10, 86, 0
11, 63360, Note_on_c, 10, 84, 104
11, 63480, Note_on_c, 10, 84, 0
11, 63540, Note_on_c, 10, 81, 87
11, 63570, Note_on_c, 10, 81, 0
11, 63600, Note_on_c, 10, 84, 86
11, 63720, Note_on_c, 10, 84, 0
11, 63780, Note_on_c, 10, 81, 85
11, 63810, Note_on_c, 10, 81, 0
11, 63840, Note_on_c, 10, 84, 92
11, 63870, Note_on_c, 10, 84, 0
11, 63900, Note_on_c, 10, 81, 85
11, 63930, Note_on_c, 10, 81, 0
11, 63960, Note_on_c, 10, 78, 92
11, 63990, Note_on_c, 10, 78, 0
11, 64020, Note_on_c, 10, 81, 85
11, 64050, Note_on_c, 10, 81, 0
11, 64080, Note_on_c, 10, 74, 94
11, 64200, Note_on_c, 10, 74, 0
11, 64320, Note_on_c, 10, 62, 92
11, 64320, Note_on_c, 10, 79, 92
11, 64320, Note_on_c, 10, 71, 92
11, 64380, Note_on_c, 10, 71, 0
11, 64380, Note_on_c, 10, 79, 0
11, 64380, Note_on_c, 10, 62, 0
11, 64440, Note_on_c, 10, 79, 85
11, 64620, Note_on_c, 10, 79, 0
11, 64620, Note_on_c, 10, 83, 74
11, 64680, Note_on_c, 10, 83, 0
11, 64680, Note_on_c, 10, 81, 74
11, 64710, Note_on_c, 10, 81, 0
11, 64740, Note_on_c, 10, 79, 80
11, 64770, Note_on_c, 10, 79, 0
11, 64800, Note_on_c, 10, 79, 86
11, 64815, Note_on_c, 10, 79, 0
11, 64815, Note_on_c, 10, 81, 86
11, 64830, Note_on_c, 10, 81, 0
11, 64830, Note_on_c, 10, 79, 86
11, 64845, Note_on_c, 10, 79, 0
11, 64845, Note_on_c, 10, 81, 86
11, 64860, Note_on_c, 10, 81, 0
11, 64860, Note_on_c, 10, 78, 83
11, 64910, Note_on_c, 10, 78, 0
11, 64920, Note_on_c, 10, 78, 77
11, 65100, Note_on_c, 10, 78, 0
11, 65100, Note_on_c, 10, 81, 85
11, 65160, Note_on_c, 10, 81, 0
11, 65160, Note_on_c, 10, 84, 85
11, 65190, Note_on_c, 10, 84, 0
11, 65220, Note_on_c, 10, 78, 85
11, 65250, Note_on_c, 10, 78, 0
11, 65280, Note_on_c, 10, 81, 85
11, 65340, Note_on_c, 10, 81, 0
11, 65340, Note_on_c, 10, 79, 85
11, 65370, Note_on_c, 10, 79, 0
11, 65400, Note_on_c, 10, 79, 85
11, 65580, Note_on_c, 10, 79, 0
11, 65580, Note_on_c, 10, 83, 85
11, 65640, Note_on_c, 10, 83, 0
11, 65640, Note_on_c, 10, 81, 85
11, 65670, Note_on_c, 10, 81, 0
11, 65700, Note_on_c, 10, 79, 85
11, 65730, Note_on_c, 10, 79, 0
11, 65760, Note_on_c, 10, 79, 85
11, 65775, Note_on_c, 10, 79, 0
11, 65775, Note_on_c, 10, 81, 85
11, 65790, Note_on_c, 10, 81, 0
11, 65790, Note_on_c, 10, 79, 85
11, 65805, Note_on_c, 10, 79, 0
11, 65805, Note_on_c, 10, 81, 85
11, 65820, Note_on_c, 10, 81, 0
11, 65820, Note_on_c, 10, 78, 85
11, 65870, Note_on_c, 10, 78, 0
11, 65880, Note_on_c, 10, 78, 85
11, 66060, Note_on_c, 10, 78, 0
11, 66060, Note_on_c, 10, 81, 85
11, 66120, Note_on_c, 10, 81, 0
11, 66120, Note_on_c, 10, 84, 85
11, 66150, Note_on_c, 10, 84, 0
11, 66180, Note_on_c, 10, 78, 85
11, 66210, Note_on_c, 10, 78, 0
11, 66240, Note_on_c, 10, 79, 85
11, 66270, Note_on_c, 10, 79, 0
11, 66300, Note_on_c, 10, 79, 85
11, 66330, Note_on_c, 10, 79, 0
11, 66360, Note_on_c, 10, 79, 85
11, 66390, Note_on_c, 10, 79, 0
11, 66390, Note_on_c, 10, 78, 85
11, 66420, Note_on_c, 10, 78, 0
11, 66420, Note_on_c, 10, 76, 85
11, 66450, Note_on_c, 10, 76, 0
11, 66450, Note_on_c, 10, 78, 85
11, 66480, Note_on_c, 10, 78, 0
11, 66480, Note_on_c, 10, 79, 85
11, 66510, Note_on_c, 10, 79, 0
11, 66540, Note_on_c, 10, 79, 85
11, 66570, Note_on_c, 10, 79, 0
11, 66600, Note_on_c, 10, 83, 85
11, 66630, Note_on_c, 10, 83, 0
11, 66630, Note_on_c, 10, 81, 85
11, 66660, Note_on_c, 10, 81, 0
11, 66660, Note_on_c, 10, 79, 85
11, 66690, Note_on_c, 10, 79, 0
11, 66690, Note_on_c, 10, 81, 83
11, 66720, Note_on_c, 10, 81, 0
11, 66720, Note_on_c, 10, 83, 83
11, 66750, Note_on_c, 10, 83, 0
11, 66780, Note_on_c, 10, 83, 83
11, 66810, Note_on_c, 10, 83, 0
11, 66840, Note_on_c, 10, 86, 83
11, 66870, Note_on_c, 10, 86, 0
11, 66870, Note_on_c, 10, 84, 80
11, 66900, Note_on_c, 10, 84, 0
11, 66900, Note_on_c, 10, 83, 79
11, 66930, Note_on_c, 10, 83, 0
11, 66930, Note_on_c, 10, 84, 76
11, 66960, Note_on_c, 10, 84, 0
11, 66960, Note_on_c, 10, 86, 71
11, 67080, Note_on_c, 10, 86, 0
11, 67200, Note_on_c, 10, 74, 56
11, 67440, Note_on_c, 10, 74, 0
11, 67440, Note_on_c, 10, 76, 55
11, 67680, Note_on_c, 10, 76, 0
11, 67680, Note_on_c, 10, 74, 57
11, 67710, Note_on_c, 10, 74, 0
11, 67710, Note_on_c, 10, 72, 59
11, 67790, Note_on_c, 10, 72, 0
11, 67800, Note_on_c, 10, 72, 58
11, 67920, Note_on_c, 10, 72, 0
11, 67920, Note_on_c, 10, 72, 57
11, 67950, Note_on_c, 10, 72, 0
11, 67950, Note_on_c, 10, 71, 55
11, 68030, Note_on_c, 10, 71, 0
11, 68040, Note_on_c, 10, 71, 53
11, 68160, Note_on_c, 10, 71, 0
11, 68160, Note_on_c, 10, 71, 57
11, 68190, Note_on_c, 10, 71, 0
11, 68190, Note_on_c, 10, 69, 56
11, 68270, Note_on_c, 10, 69, 0
11, 68280, Note_on_c, 10, 69, 55
11, 68400, Note_on_c, 10, 69, 0
11, 68400, Note_on_c, 10, 67, 54
11, 68460, Note_on_c, 10, 67, 0
11, 68460, Note_on_c, 10, 66, 55
11, 68490, Note_on_c, 10, 66, 0
11, 68520, Note_on_c, 10, 64, 55
11, 68550, Note_on_c, 10, 64, 0
11, 68580, Note_on_c, 10, 66, 55
11, 68610, Note_on_c, 10, 66, 0
11, 68640, Note_on_c, 10, 67, 56
11, 68700, Note_on_c, 10, 67, 0
11, 68760, Note_on_c, 10, 69, 57
11, 68820, Note_on_c, 10, 69, 0
11, 68880, Note_on_c, 10, 71, 57
11, 68940, Note_on_c, 10, 71, 0
11, 69120, Note_on_c, 10, 74, 56
11, 69360, Note_on_c, 10, 74, 0
11, 69360, Note_on_c, 10, 76, 59
11, 69600, Note_on_c, 10, 76, 0
11, 69600, Note_on_c, 10, 74, 46
11, 69660, Note_on_c, 10, 74, 0
11, 69660, Note_on_c, 10, 72, 51
11, 69690, Note_on_c, 10, 72, 0
11, 69720, Note_on_c, 10, 72, 51
11, 69750, Note_on_c, 10, 72, 0
11, 69780, Note_on_c, 10, 72, 51
11, 69810, Note_on_c, 10, 72, 0
11, 69840, Note_on_c, 10, 72, 51
11, 69900, Note_on_c, 10, 72, 0
11, 69900, Note_on_c, 10, 71, 50
11, 69930, Note_on_c, 10, 71, 0
11, 69960, Note_on_c, 10, 71, 49
11, 69990, Note_on_c, 10, 71, 0
11, 70020, Note_on_c, 10, 71, 49
11, 70050, Note_on_c, 10, 71, 0
11, 70080, Note_on_c, 10, 71, 49
11, 70140, Note_on_c, 10, 71, 0
11, 70140, Note_on_c, 10, 69, 50
11, 70170, Note_on_c, 10, 69, 0
11, 70200, Note_on_c, 10, 69, 52
11, 70245, Note_on_c, 10, 69, 0
11, 70260, Note_on_c, 10, 69, 52
11, 70305, Note_on_c, 10, 69, 0
11, 70320, Note_on_c, 10, 67, 52
11, 70380, Note_on_c, 10, 67, 0
11, 70380, Note_on_c, 10, 66, 54
11, 70440, Note_on_c, 10, 66, 0
11, 70440, Note_on_c, 10, 64, 55
11, 70500, Note_on_c, 10, 64, 0
11, 70500, Note_on_c, 10, 66, 55
11, 70560, Note_on_c, 10, 66, 0
11, 70560, Note_on_c, 10, 55, 85
11, 70560, Note_on_c, 10, 67, 85
11, 70860, Note_on_c, 10, 67, 0
11, 70860, Note_on_c, 10, 55, 0
11, 70860, Note_on_c, 10, 67, 61
11, 70875, Note_on_c, 10, 67, 0
11, 70875, Note_on_c, 10, 69, 61
11, 70890, Note_on_c, 10, 69, 0
11, 70890, Note_on_c, 10, 66, 61
11, 70905, Note_on_c, 10, 66, 0
11, 70905, Note_on_c, 10, 67, 61
11, 70920, Note_on_c, 10, 67, 0
11, 70920, Note_on_c, 10, 69, 61
11, 70980, Note_on_c, 10, 69, 0
11, 70980, Note_on_c, 10, 66, 61
11, 71040, Note_on_c, 10, 66, 0
11, 71040, Note_on_c, 10, 71, 91
11, 71340, Note_on_c, 10, 71, 0
11, 71340, Note_on_c, 10, 71, 61
11, 71355, Note_on_c, 10, 71, 0
11, 71355, Note_on_c, 10, 72, 61
11, 71370, Note_on_c, 10, 72, 0
11, 71370, Note_on_c, 10, 69, 61
11, 71385, Note_on_c, 10, 69, 0
11, 71385, Note_on_c, 10, 71, 61
11, 71400, Note_on_c, 10, 71, 0
11, 71400, Note_on_c, 10, 72, 61
11, 71460, Note_on_c, 10, 72, 0
11, 71460, Note_on_c, 10, 69, 61
11, 71520, Note_on_c, 10, 69, 0
11, 71520, Note_on_c, 10, 74, 51
11, 71540, Note_on_c, 10, 74, 0
11, 71550, Note_on_c, 10, 74, 56
11, 71570, Note_on_c, 10, 74, 0
11, 71580, Note_on_c, 10, 74, 59
11, 71600, Note_on_c, 10, 74, 0
11, 71610, Note_on_c, 10, 74, 56
11, 71630, Note_on_c, 10, 74, 0
11, 71640, Note_on_c, 10, 74, 56
11, 71660, Note_on_c, 10, 74, 0
11, 71670, Note_on_c, 10, 74, 56
11, 71690, Note_on_c, 10, 74, 0
11, 71700, Note_on_c, 10, 74, 56
11, 71720, Note_on_c, 10, 74, 0
11, 71730, Note_on_c, 10, 74, 56
11, 71750, Note_on_c, 10, 74, 0
11, 71760, Note_on_c, 10, 76, 56
11, 71780, Note_on_c, 10, 76, 0
11, 71790, Note_on_c, 10, 76, 56
11, 71810, Note_on_c, 10, 76, 0
11, 71820, Note_on_c, 10, 76, 56
11, 71840, Note_on_c, 10, 76, 0
11, 71850, Note_on_c, 10, 76, 56
11, 71870, Note_on_c, 10, 76, 0
11, 71880, Note_on_c, 10, 78, 56
11, 71900, Note_on_c, 10, 78, 0
11, 71910, Note_on_c, 10, 78, 56
11, 71930, Note_on_c, 10, 78, 0
11, 71940, Note_on_c, 10, 78, 57
11, 71960, Note_on_c, 10, 78, 0
11, 71970, Note_on_c, 10, 78, 59
11, 71990, Note_on_c, 10, 78, 0
11, 72000, Note_on_c, 10, 79, 62
11, 72020, Note_on_c, 10, 79, 0
11, 72030, Note_on_c, 10, 79, 65
11, 72050, Note_on_c, 10, 79, 0
11, 72060, Note_on_c, 10, 79, 66
11, 72080, Note_on_c, 10, 79, 0
11, 72090, Note_on_c, 10, 79, 66
11, 72110, Note_on_c, 10, 79, 0
11, 72120, Note_on_c, 10, 81, 66
11, 72140, Note_on_c, 10, 81, 0
11, 72150, Note_on_c, 10, 81, 66
11, 72170, Note_on_c, 10, 81, 0
11, 72180, Note_on_c, 10, 81, 66
11, 72200, Note_on_c, 10, 81, 0
11, 72210, Note_on_c, 10, 81, 68
11, 72230, Note_on_c, 10, 81, 0
11, 72240, Note_on_c, 10, 83, 68
11, 72260, Note_on_c, 10, 83, 0
11, 72270, Note_on_c, 10, 83, 70
11, 72290, Note_on_c, 10, 83, 0
11, 72300, Note_on_c, 10, 83, 70
11, 72320, Note_on_c, 10, 83, 0
11, 72330, Note_on_c, 10, 83, 71
11, 72350, Note_on_c, 10, 83, 0
11, 72360, Note_on_c, 10, 85, 71
11, 72380, Note_on_c, 10, 85, 0
11, 72390, Note_on_c, 10, 85, 73
11, 72410, Note_on_c, 10, 85, 0
11, 72420, Note_on_c, 10, 85, 74
11, 72440, Note_on_c, 10, 85, 0
11, 72450, Note_on_c, 10, 85, 74
11, 72470, Note_on_c, 10, 85, 0
11, 72480, Note_on_c, 10, 86, 85
11, 72660, Note_on_c, 10, 86, 0
11, 72660, Note_on_c, 10, 81, 85
11, 72720, Note_on_c, 10, 81, 0
11, 72720, Note_on_c, 10, 85, 85
11, 72810, Note_on_c, 10, 85, 0
11, 72810, Note_on_c, 10, 81, 85
11, 72840, Note_on_c, 10, 81, 0
11, 72840, Note_on_c, 10, 85, 85
11, 72930, Note_on_c, 10, 85, 0
11, 72930, Note_on_c, 10, 81, 85
11, 72960, Note_on_c, 10, 81, 0
11, 72960, Note_on_c, 10, 86, 85
11, 73140, Note_on_c, 10, 86, 0
11, 73140, Note_on_c, 10, 81, 85
11, 73200, Note_on_c, 10, 81, 0
11, 73200, Note_on_c, 10, 85, 85
11, 73290, Note_on_c, 10, 85, 0
11, 73290, Note_on_c, 10, 81, 85
11, 73320, Note_on_c, 10, 81, 0
11, 73320, Note_on_c, 10, 85, 85
11, 73410, Note_on_c, 10, 85, 0
11, 73410, Note_on_c, 10, 81, 85
11, 73440, Note_on_c, 10, 81, 0
11, 73440, Note_on_c, 10, 86, 100
11, 73470, Note_on_c, 10, 86, 0
11, 73500, Note_on_c, 10, 81, 100
11, 73530, Note_on_c, 10, 81, 0
11, 73560, Note_on_c, 10, 85, 100
11, 73590, Note_on_c, 10, 85, 0
11, 73620, Note_on_c, 10, 81, 100
11, 73650, Note_on_c, 10, 81, 0
11, 73680, Note_on_c, 10, 86, 100
11, 73710, Note_on_c, 10, 86, 0
11, 73740, Note_on_c, 10, 81, 100
11, 73770, Note_on_c, 10, 81, 0
11, 73800, Note_on_c, 10, 85, 100
11, 73830, Note_on_c, 10, 85, 0
11, 73860, Note_on_c, 10, 81, 100
11, 73890, Note_on_c, 10, 81, 0
11, 73920, Note_on_c, 10, 86, 85
11, 73965, Note_on_c, 10, 86, 0
11, 73980, Note_on_c, 10, 62, 85
11, 74025, Note_on_c, 10, 62, 0
11, 74040, Note_on_c, 10, 62, 85
11, 74085, Note_on_c, 10, 62, 0
11, 74100, Note_on_c, 10, 62, 85
11, 74145, Note_on_c, 10, 62, 0
11, 74160, Note_on_c, 10, 62, 85
11, 74280, Note_on_c, 10, 62, 0
11, 74400, Note_on_c, 10, 74, 46
11, 74580, Note_on_c, 10, 74, 0
11, 74580, Note_on_c, 10, 72, 47
11, 74600, Note_on_c, 10, 72, 0
11, 74600, Note_on_c, 10, 71, 47
11, 74620, Note_on_c, 10, 71, 0
11, 74620, Note_on_c, 10, 69, 47
11, 74640, Note_on_c, 10, 69, 0
11, 74640, Note_on_c, 10, 67, 47
11, 74700, Note_on_c, 10, 67, 0
11, 74760, Note_on_c, 10, 76, 47
11, 74820, Note_on_c, 10, 76, 0
11, 74880, Note_on_c, 10, 72, 46
11, 74940, Note_on_c, 10, 72, 0
11, 75000, Note_on_c, 10, 69, 43
11, 75060, Note_on_c, 10, 69, 0
11, 75120, Note_on_c, 10, 74, 59
11, 75180, Note_on_c, 10, 74, 0
11, 75360, Note_on_c, 10, 83, 55
11, 75540, Note_on_c, 10, 83, 0
11, 75540, Note_on_c, 10, 81, 55
11, 75560, Note_on_c, 10, 81, 0
11, 75560, Note_on_c, 10, 79, 55
11, 75580, Note_on_c, 10, 79, 0
11, 75580, Note_on_c, 10, 78, 55
11, 75600, Note_on_c, 10, 78, 0
11, 75600, Note_on_c, 10, 76, 55
11, 75660, Note_on_c, 10, 76, 0
11, 75720, Note_on_c, 10, 84, 55
11, 75780, Note_on_c, 10, 84, 0
11, 75840, Note_on_c, 10, 83, 55
11, 76080, Note_on_c, 10, 83, 0
11, 76080, Note_on_c, 10, 81, 47
11, 76200, Note_on_c, 10, 81, 0
11, 76380, Note_on_c, 10, 86, 55
11, 76410, Note_on_c, 10, 86, 0
11, 76440, Note_on_c, 10, 86, 55
11, 76470, Note_on_c, 10, 86, 0
11, 76500, Note_on_c, 10, 86, 55
11, 76530, Note_on_c, 10, 86, 0
11, 76560, Note_on_c, 10, 86, 55
11, 76590, Note_on_c, 10, 86, 0
11, 76620, Note_on_c, 10, 86, 55
11, 76650, Note_on_c, 10, 86, 0
11, 76680, Note_on_c, 10, 86, 55
11, 76710, Note_on_c, 10, 86, 0
11, 76740, Note_on_c, 10, 86, 55
11, 76770, Note_on_c, 10, 86, 0
11, 76800, Note_on_c, 10, 86, 55
11, 76830, Note_on_c, 10, 86, 0
11, 76860, Note_on_c, 10, 86, 55
11, 76890, Note_on_c, 10, 86, 0
11, 76920, Note_on_c, 10, 86, 55
11, 76950, Note_on_c, 10, 86, 0
11, 76980, Note_on_c, 10, 86, 55
11, 77010, Note_on_c, 10, 86, 0
11, 77040, Note_on_c, 10, 86, 55
11, 77100, Note_on_c, 10, 86, 0
11, 77100, Note_on_c, 10, 84, 55
11, 77160, Note_on_c, 10, 84, 0
11, 77160, Note_on_c, 10, 79, 55
11, 77220, Note_on_c, 10, 79, 0
11, 77220, Note_on_c, 10, 78, 55
11, 77280, Note_on_c, 10, 78, 0
11, 77280, Note_on_c, 10, 78, 55
11, 77340, Note_on_c, 10, 78, 0
11, 77340, Note_on_c, 10, 79, 65
11, 77400, Note_on_c, 10, 79, 0
11, 77460, Note_on_c, 10, 76, 55
11, 77490, Note_on_c, 10, 76, 0
11, 77520, Note_on_c, 10, 76, 55
11, 77580, Note_on_c, 10, 76, 0
11, 77580, Note_on_c, 10, 74, 55
11, 77640, Note_on_c, 10, 74, 0
11, 77700, Note_on_c, 10, 66, 55
11, 77745, Note_on_c, 10, 66, 0
11, 77760, Note_on_c, 10, 67, 67
11, 77880, Note_on_c, 10, 67, 0
11, 77940, Note_on_c, 10, 74, 55
11, 77970, Note_on_c, 10, 74, 0
11, 78000, Note_on_c, 10, 79, 55
11, 78060, Note_on_c, 10, 79, 0
11, 78060, Note_on_c, 10, 78, 55
11, 78120, Note_on_c, 10, 78, 0
11, 78120, Note_on_c, 10, 76, 55
11, 78180, Note_on_c, 10, 76, 0
11, 78180, Note_on_c, 10, 74, 55
11, 78240, Note_on_c, 10, 74, 0
11, 78240, Note_on_c, 10, 76, 55
11, 78255, Note_on_c, 10, 76, 0
11, 78255, Note_on_c, 10, 78, 55
11, 78270, Note_on_c, 10, 78, 0
11, 78270, Note_on_c, 10, 76, 55
11, 78285, Note_on_c, 10, 76, 0
11, 78285, Note_on_c, 10, 78, 55
11, 78300, Note_on_c, 10, 78, 0
11, 78300, Note_on_c, 10, 74, 55
11, 78360, Note_on_c, 10, 74, 0
11, 78420, Note_on_c, 10, 74, 55
11, 78450, Note_on_c, 10, 74, 0
11, 78480, Note_on_c, 10, 74, 55
11, 78510, Note_on_c, 10, 74, 0
11, 78540, Note_on_c, 10, 74, 55
11, 78570, Note_on_c, 10, 74, 0
11, 78600, Note_on_c, 10, 74, 55
11, 78630, Note_on_c, 10, 74, 0
11, 78660, Note_on_c, 10, 74, 55
11, 78690, Note_on_c, 10, 74, 0
11, 78720, Note_on_c, 10, 76, 55
11, 78735, Note_on_c, 10, 76, 0
11, 78735, Note_on_c, 10, 78, 55
11, 78750, Note_on_c, 10, 78, 0
11, 78750, Note_on_c, 10, 76, 55
11, 78765, Note_on_c, 10, 76, 0
11, 78765, Note_on_c, 10, 78, 55
11, 78780, Note_on_c, 10, 78, 0
11, 78780, Note_on_c, 10, 74, 55
11, 78840, Note_on_c, 10, 74, 0
11, 78900, Note_on_c, 10, 74, 55
11, 78945, Note_on_c, 10, 74, 0
11, 78960, Note_on_c, 10, 79, 55
11, 79020, Note_on_c, 10, 79, 0
11, 79020, Note_on_c, 10, 78, 55
11, 79080, Note_on_c, 10, 78, 0
11, 79080, Note_on_c, 10, 76, 55
11, 79140, Note_on_c, 10, 76, 0
11, 79140, Note_on_c, 10, 74, 55
11, 79200, Note_on_c, 10, 74, 0
11, 79200, Note_on_c, 10, 76, 55
11, 79215, Note_on_c, 10, 76, 0
11, 79215, Note_on_c, 10, 78, 55
11, 79230, Note_on_c, 10, 78, 0
11, 79230, Note_on_c, 10, 76, 55
11, 79245, Note_on_c, 10, 76, 0
11, 79245, Note_on_c, 10, 78, 55
11, 79260, Note_on_c, 10, 78, 0
11, 79260, Note_on_c, 10, 74, 55
11, 79320, Note_on_c, 10, 74, 0
11, 79380, Note_on_c, 10, 74, 55
11, 79410, Note_on_c, 10, 74, 0
11, 79440, Note_on_c, 10, 74, 55
11, 79470, Note_on_c, 10, 74, 0
11, 79500, Note_on_c, 10, 74, 55
11, 79530, Note_on_c, 10, 74, 0
11, 79560, Note_on_c, 10, 74, 55
11, 79590, Note_on_c, 10, 74, 0
11, 79620, Note_on_c, 10, 74, 55
11, 79650, Note_on_c, 10, 74, 0
11, 79680, Note_on_c, 10, 76, 55
11, 79695, Note_on_c, 10, 76, 0
11, 79695, Note_on_c, 10, 78, 55
11, 79710, Note_on_c, 10, 78, 0
11, 79710, Note_on_c, 10, 76, 55
11, 79725, Note_on_c, 10, 76, 0
11, 79725, Note_on_c, 10, 78, 55
11, 79740, Note_on_c, 10, 78, 0
11, 79740, Note_on_c, 10, 74, 55
11, 79800, Note_on_c, 10, 74, 0
11, 79920, Note_on_c, 10, 64, 83
11, 79920, Note_on_c, 10, 76, 83
11, 80090, Note_on_c, 10, 76, 0
11, 80090, Note_on_c, 10, 64, 0
11, 80100, Note_on_c, 10, 74, 82
11, 80120, Note_on_c, 10, 74, 0
11, 80120, Note_on_c, 10, 72, 82
11, 80140, Note_on_c, 10, 72, 0
11, 80140, Note_on_c, 10, 71, 82
11, 80160, Note_on_c, 10, 71, 0
11, 80160, Note_on_c, 10, 72, 83
11, 80280, Note_on_c, 10, 72, 0
11, 80400, Note_on_c, 10, 74, 85
11, 80400, Note_on_c, 10, 62, 85
11, 80570, Note_on_c, 10, 62, 0
11, 80570, Note_on_c, 10, 74, 0
11, 80580, Note_on_c, 10, 72, 77
11, 80600, Note_on_c, 10, 72, 0
11, 80600, Note_on_c, 10, 71, 79
11, 80620, Note_on_c, 10, 71, 0
11, 80620, Note_on_c, 10, 69, 83
11, 80640, Note_on_c, 10, 69, 0
11, 80640, Note_on_c, 10, 71, 88
11, 80760, Note_on_c, 10, 71, 0
11, 80880, Note_on_c, 10, 76, 85
11, 80940, Note_on_c, 10, 76, 0
11, 80940, Note_on_c, 10, 78, 85
11, 80970, Note_on_c, 10, 78, 0
11, 80970, Note_on_c, 10, 79, 85
11, 81000, Note_on_c, 10, 79, 0
11, 81000, Note_on_c, 10, 78, 85
11, 81045, Note_on_c, 10, 78, 0
11, 81060, Note_on_c, 10, 76, 85
11, 81090, Note_on_c, 10, 76, 0
11, 81120, Note_on_c, 10, 76, 85
11, 81180, Note_on_c, 10, 76, 0
11, 81180, Note_on_c, 10, 74, 85
11, 81225, Note_on_c, 10, 74, 0
11, 81240, Note_on_c, 10, 71, 85
11, 81270, Note_on_c, 10, 71, 0
11, 81300, Note_on_c, 10, 74, 85
11, 81330, Note_on_c, 10, 74, 0
11, 81360, Note_on_c, 10, 74, 85
11, 81420, Note_on_c, 10, 74, 0
11, 81420, Note_on_c, 10, 72, 85
11, 81465, Note_on_c, 10, 72, 0
11, 81480, Note_on_c, 10, 71, 85
11, 81510, Note_on_c, 10, 71, 0
11, 81540, Note_on_c, 10, 69, 85
11, 81570, Note_on_c, 10, 69, 0
11, 81600, Note_on_c, 10, 67, 85
11, 81720, Note_on_c, 10, 67, 0
11, 81780, Note_on_c, 10, 74, 50
11, 81810, Note_on_c, 10, 74, 0
11, 81840, Note_on_c, 10, 79, 50
11, 81900, Note_on_c, 10, 79, 0
11, 81900, Note_on_c, 10, 78, 50
11, 81960, Note_on_c, 10, 78, 0
11, 81960, Note_on_c, 10, 76, 53
11, 82020, Note_on_c, 10, 76, 0
11, 82020, Note_on_c, 10, 74, 56
11, 82080, Note_on_c, 10, 74, 0
11, 82080, Note_on_c, 10, 76, 58
11, 82095, Note_on_c, 10, 76, 0
11, 82095, Note_on_c, 10, 78, 58
11, 82110, Note_on_c, 10, 78, 0
11, 82110, Note_on_c, 10, 76, 59
11, 82125, Note_on_c, 10, 76, 0
11, 82125, Note_on_c, 10, 78, 59
11, 82140, Note_on_c, 10, 78, 0
11, 82140, Note_on_c, 10, 74, 61
11, 82200, Note_on_c, 10, 74, 0
11, 82260, Note_on_c, 10, 74, 56
11, 82290, Note_on_c, 10, 74, 0
11, 82320, Note_on_c, 10, 74, 55
11, 82350, Note_on_c, 10, 74, 0
11, 82380, Note_on_c, 10, 74, 55
11, 82410, Note_on_c, 10, 74, 0
11, 82440, Note_on_c, 10, 74, 53
11, 82470, Note_on_c, 10, 74, 0
11, 82500, Note_on_c, 10, 74, 52
11, 82530, Note_on_c, 10, 74, 0
11, 82560, Note_on_c, 10, 76, 55
11, 82575, Note_on_c, 10, 76, 0
11, 82575, Note_on_c, 10, 78, 55
11, 82590, Note_on_c, 10, 78, 0
11, 82590, Note_on_c, 10, 76, 55
11, 82605, Note_on_c, 10, 76, 0
11, 82605, Note_on_c, 10, 78, 55
11, 82620, Note_on_c, 10, 78, 0
11, 82620, Note_on_c, 10, 74, 55
11, 82680, Note_on_c, 10, 74, 0
11, 82740, Note_on_c, 10, 74, 55
11, 82785, Note_on_c, 10, 74, 0
11, 82800, Note_on_c, 10, 79, 55
11, 82860, Note_on_c, 10, 79, 0
11, 82860, Note_on_c, 10, 78, 55
11, 82920, Note_on_c, 10, 78, 0
11, 82920, Note_on_c, 10, 76, 55
11, 82980, Note_on_c, 10, 76, 0
11, 82980, Note_on_c, 10, 74, 56
11, 83040, Note_on_c, 10, 74, 0
11, 83040, Note_on_c, 10, 76, 65
11, 83055, Note_on_c, 10, 76, 0
11, 83055, Note_on_c, 10, 78, 65
11, 83070, Note_on_c, 10, 78, 0
11, 83070, Note_on_c, 10, 76, 65
11, 83085, Note_on_c, 10, 76, 0
11, 83085, Note_on_c, 10, 78, 65
11, 83100, Note_on_c, 10, 78, 0
11, 83100, Note_on_c, 10, 74, 64
11, 83160, Note_on_c, 10, 74, 0
11, 83220, Note_on_c, 10, 74, 55
11, 83250, Note_on_c, 10, 74, 0
11, 83280, Note_on_c, 10, 74, 55
11, 83310, Note_on_c, 10, 74, 0
11, 83340, Note_on_c, 10, 74, 55
11, 83370, Note_on_c, 10, 74, 0
11, 83400, Note_on_c, 10, 74, 55
11, 83430, Note_on_c, 10, 74, 0
11, 83460, Note_on_c, 10, 74, 55
11, 83490, Note_on_c, 10, 74, 0
11, 83520, Note_on_c, 10, 76, 59
11, 83535, Note_on_c, 10, 76, 0
11, 83535, Note_on_c, 10, 78, 59
11, 83550, Note_on_c, 10, 78, 0
11, 83550, Note_on_c, 10, 76, 59
11, 83565, Note_on_c, 10, 76, 0
11, 83565, Note_on_c, 10, 78, 59
11, 83580, Note_on_c, 10, 78, 0
11, 83580, Note_on_c, 10, 74, 59
11, 83640, Note_on_c, 10, 74, 0
11, 83760, Note_on_c, 10, 88, 85
11, 83930, Note_on_c, 10, 88, 0
11, 83940, Note_on_c, 10, 86, 85
11, 83960, Note_on_c, 10, 86, 0
11, 83960, Note_on_c, 10, 84, 85
11, 83980, Note_on_c, 10, 84, 0
11, 83980, Note_on_c, 10, 83, 85
11, 84000, Note_on_c, 10, 83, 0
11, 84000, Note_on_c, 10, 84, 85
11, 84120, Note_on_c, 10, 84, 0
11, 84240, Note_on_c, 10, 86, 85
11, 84240, Note_on_c, 10, 74, 85
11, 84410, Note_on_c, 10, 74, 0
11, 84410, Note_on_c, 10, 86, 0
11, 84420, Note_on_c, 10, 84, 82
11, 84440, Note_on_c, 10, 84, 0
11, 84440, Note_on_c, 10, 83, 83
11, 84460, Note_on_c, 10, 83, 0
11, 84460, Note_on_c, 10, 81, 83
11, 84480, Note_on_c, 10, 81, 0
11, 84480, Note_on_c, 10, 83, 86
11, 84600, Note_on_c, 10, 83, 0
11, 84720, Note_on_c, 10, 76, 85
11, 84780, Note_on_c, 10, 76, 0
11, 84780, Note_on_c, 10, 78, 85
11, 84810, Note_on_c, 10, 78, 0
11, 84810, Note_on_c, 10, 79, 85
11, 84840, Note_on_c, 10, 79, 0
11, 84840, Note_on_c, 10, 78, 85
11, 84885, Note_on_c, 10, 78, 0
11, 84900, Note_on_c, 10, 76, 85
11, 84930, Note_on_c, 10, 76, 0
11, 84960, Note_on_c, 10, 74, 85
11, 84990, Note_on_c, 10, 74, 0
11, 85020, Note_on_c, 10, 79, 85
11, 85050, Note_on_c, 10, 79, 0
11, 85080, Note_on_c, 10, 83, 85
11, 85110, Note_on_c, 10, 83, 0
11, 85140, Note_on_c, 10, 86, 85
11, 85170, Note_on_c, 10, 86, 0
11, 85200, Note_on_c, 10, 86, 85
11, 85260, Note_on_c, 10, 86, 0
11, 85260, Note_on_c, 10, 84, 85
11, 85305, Note_on_c, 10, 84, 0
11, 85320, Note_on_c, 10, 83, 85
11, 85350, Note_on_c, 10, 83, 0
11, 85380, Note_on_c, 10, 81, 85
11, 85410, Note_on_c, 10, 81, 0
11, 85440, Note_on_c, 10, 79, 94
11, 85485, Note_on_c, 10, 79, 0
11, 85500, Note_on_c, 10, 62, 85
11, 85545, Note_on_c, 10, 62, 0
11, 85560, Note_on_c, 10, 64, 85
11, 85605, Note_on_c, 10, 64, 0
11, 85620, Note_on_c, 10, 66, 85
11, 85665, Note_on_c, 10, 66, 0
11, 85680, Note_on_c, 10, 67, 85
11, 85725, Note_on_c, 10, 67, 0
11, 85740, Note_on_c, 10, 67, 85
11, 85785, Note_on_c, 10, 67, 0
11, 85800, Note_on_c, 10, 69, 85
11, 85815, Note_on_c, 10, 69, 0
11, 85815, Note_on_c, 10, 71, 85
11, 85830, Note_on_c, 10, 71, 0
11, 85830, Note_on_c, 10, 69, 85
11, 85845, Note_on_c, 10, 69, 0
11, 85845, Note_on_c, 10, 71, 85
11, 85860, Note_on_c, 10, 71, 0
11, 85860, Note_on_c, 10, 67, 85
11, 85890, Note_on_c, 10, 67, 0
11, 85890, Note_on_c, 10, 69, 85
11, 85920, Note_on_c, 10, 69, 0
11, 85920, Note_on_c, 10, 71, 85
11, 85965, Note_on_c, 10, 71, 0
11, 85980, Note_on_c, 10, 66, 85
11, 86025, Note_on_c, 10, 66, 0
11, 86040, Note_on_c, 10, 67, 85
11, 86085, Note_on_c, 10, 67, 0
11, 86100, Note_on_c, 10, 69, 85
11, 86145, Note_on_c, 10, 69, 0
11, 86160, Note_on_c, 10, 71, 85
11, 86205, Note_on_c, 10, 71, 0
11, 86220, Note_on_c, 10, 71, 85
11, 86265, Note_on_c, 10, 71, 0
11, 86280, Note_on_c, 10, 72, 86
11, 86295, Note_on_c, 10, 72, 0
11, 86295, Note_on_c, 10, 74, 86
11, 86310, Note_on_c, 10, 74, 0
11, 86310, Note_on_c, 10, 72, 86
11, 86325, Note_on_c, 10, 72, 0
11, 86325, Note_on_c, 10, 74, 86
11, 86340, Note_on_c, 10, 74, 0
11, 86340, Note_on_c, 10, 71, 86
11, 86370, Note_on_c, 10, 71, 0
11, 86370, Note_on_c, 10, 72, 89
11, 86400, Note_on_c, 10, 72, 0
11, 86400, Note_on_c, 10, 74, 89
11, 86445, Note_on_c, 10, 74, 0
11, 86460, Note_on_c, 10, 74, 91
11, 86505, Note_on_c, 10, 74, 0
11, 86520, Note_on_c, 10, 75, 91
11, 86535, Note_on_c, 10, 75, 0
11, 86535, Note_on_c, 10, 76, 91
11, 86550, Note_on_c, 10, 76, 0
11, 86550, Note_on_c, 10, 75, 91
11, 86565, Note_on_c, 10, 75, 0
11, 86565, Note_on_c, 10, 76, 92
11, 86580, Note_on_c, 10, 76, 0
11, 86580, Note_on_c, 10, 73, 94
11, 86610, Note_on_c, 10, 73, 0
11, 86610, Note_on_c, 10, 75, 97
11, 86640, Note_on_c, 10, 75, 0
11, 86640, Note_on_c, 10, 76, 98
11, 86760, Note_on_c, 10, 76, 0
11, 86880, Note_on_c, 10, 64, 61
11, 87060, Note_on_c, 10, 64, 0
11, 87060, Note_on_c, 10, 69, 61
11, 87105, Note_on_c, 10, 69, 0
11, 87120, Note_on_c, 10, 67, 61
11, 87180, Note_on_c, 10, 67, 0
11, 87180, Note_on_c, 10, 66, 62
11, 87240, Note_on_c, 10, 66, 0
11, 87240, Note_on_c, 10, 64, 62
11, 87300, Note_on_c, 10, 64, 0
11, 87300, Note_on_c, 10, 62, 62
11, 87345, Note_on_c, 10, 62, 0
11, 87360, Note_on_c, 10, 74, 62
11, 87420, Note_on_c, 10, 74, 0
11, 87420, Note_on_c, 10, 73, 62
11, 87480, Note_on_c, 10, 73, 0
11, 87480, Note_on_c, 10, 72, 62
11, 87540, Note_on_c, 10, 72, 0
11, 87540, Note_on_c, 10, 71, 62
11, 87600, Note_on_c, 10, 71, 0
11, 87600, Note_on_c, 10, 74, 61
11, 87660, Note_on_c, 10, 74, 0
11, 87660, Note_on_c, 10, 73, 61
11, 87720, Note_on_c, 10, 73, 0
11, 87720, Note_on_c, 10, 72, 61
11, 87780, Note_on_c, 10, 72, 0
11, 87780, Note_on_c, 10, 71, 59
11, 87825, Note_on_c, 10, 71, 0
11, 87840, Note_on_c, 10, 64, 61
11, 88020, Note_on_c, 10, 64, 0
11, 88020, Note_on_c, 10, 69, 67
11, 88065, Note_on_c, 10, 69, 0
11, 88080, Note_on_c, 10, 67, 70
11, 88140, Note_on_c, 10, 67, 0
11, 88140, Note_on_c, 10, 66, 70
11, 88200, Note_on_c, 10, 66, 0
11, 88200, Note_on_c, 10, 64, 70
11, 88260, Note_on_c, 10, 64, 0
11, 88260, Note_on_c, 10, 62, 70
11, 88305, Note_on_c, 10, 62, 0
11, 88320, Note_on_c, 10, 74, 70
11, 88380, Note_on_c, 10, 74, 0
11, 88380, Note_on_c, 10, 76, 70
11, 88440, Note_on_c, 10, 76, 0
11, 88440, Note_on_c, 10, 78, 70
11, 88500, Note_on_c, 10, 78, 0
11, 88500, Note_on_c, 10, 79, 70
11, 88560, Note_on_c, 10, 79, 0
11, 88560, Note_on_c, 10, 74, 70
11, 88620, Note_on_c, 10, 74, 0
11, 88620, Note_on_c, 10, 76, 70
11, 88680, Note_on_c, 10, 76, 0
11, 88680, Note_on_c, 10, 78, 70
11, 88740, Note_on_c, 10, 78, 0
11, 88740, Note_on_c, 10, 79, 76
11, 88785, Note_on_c, 10, 79, 0
11, 88800, Note_on_c, 10, 81, 75
11, 88920, Note_on_c, 10, 81, 0
11, 89040, Note_on_c, 10, 74, 91
11, 89040, Note_on_c, 10, 86, 91
11, 89160, Note_on_c, 10, 86, 0
11, 89160, Note_on_c, 10, 74, 0
11, 89280, Note_on_c, 10, 62, 96
11, 89280, Note_on_c, 10, 71, 96
11, 89280, Note_on_c, 10, 79, 96
11, 89400, Note_on_c, 10, 79, 0
11, 89400, Note_on_c, 10, 71, 0
11, 89400, Note_on_c, 10, 62, 0
11, 89460, Note_on_c, 10, 74, 95
11, 89505, Note_on_c, 10, 74, 0
11, 89520, Note_on_c, 10, 71, 94
11, 89565, Note_on_c, 10, 71, 0
11, 89580, Note_on_c, 10, 67, 90
11, 89625, Note_on_c, 10, 67, 0
11, 89640, Note_on_c, 10, 71, 90
11, 89685, Note_on_c, 10, 71, 0
11, 89700, Note_on_c, 10, 74, 89
11, 89745, Note_on_c, 10, 74, 0
11, 89760, Note_on_c, 10, 79, 88
11, 89805, Note_on_c, 10, 79, 0
11, 89820, Note_on_c, 10, 74, 88
11, 89865, Note_on_c, 10, 74, 0
11, 89880, Note_on_c, 10, 79, 88
11, 89925, Note_on_c, 10, 79, 0
11, 89940, Note_on_c, 10, 83, 90
11, 89985, Note_on_c, 10, 83, 0
11, 90000, Note_on_c, 10, 86, 92
11, 90100, Note_on_c, 10, 86, 0
11, 90120, Note_on_c, 10, 62, 95
11, 90120, Note_on_c, 10, 69, 95
11, 90120, Note_on_c, 10, 78, 95
11, 90220, Note_on_c, 10, 78, 0
11, 90220, Note_on_c, 10, 69, 0
11, 90220, Note_on_c, 10, 62, 0
11, 90240, Note_on_c, 10, 62, 100
11, 90240, Note_on_c, 10, 71, 100
11, 90240, Note_on_c, 10, 79, 100
11, 90360, Note_on_c, 10, 79, 0
11, 90360, Note_on_c, 10, 71, 0
11, 90360, Note_on_c, 10, 62, 0
11, 90420, Note_on_c, 10, 74, 98
11, 90465, Note_on_c, 10, 74, 0
11, 90480, Note_on_c, 10, 71, 98
11, 90525, Note_on_c, 10, 71, 0
11, 90540, Note_on_c, 10, 67, 95
11, 90585, Note_on_c, 10, 67, 0
11, 90600, Note_on_c, 10, 71, 94
11, 90645, Note_on_c, 10, 71, 0
11, 90660, Note_on_c, 10, 74, 92
11, 90705, Note_on_c, 10, 74, 0
11, 90720, Note_on_c, 10, 79, 91
11, 90765, Note_on_c, 10, 79, 0
11, 90780, Note_on_c, 10, 74, 91
11, 90825, Note_on_c, 10, 74, 0
11, 90840, Note_on_c, 10, 79, 92
11, 90885, Note_on_c, 10, 79, 0
11, 90900, Note_on_c, 10, 83, 92
11, 90945, Note_on_c, 10, 83, 0
11, 90960, Note_on_c, 10, 86, 96
11, 91060, Note_on_c, 10, 86, 0
11, 91080, Note_on_c, 10, 62, 99
11, 91080, Note_on_c, 10, 69, 99
11, 91080, Note_on_c, 10, 78, 99
11, 91180, Note_on_c, 10, 78, 0
11, 91180, Note_on_c, 10, 69, 0
11, 91180, Note_on_c, 10, 62, 0
11, 91200, Note_on_c, 10, 62, 109
11, 91200, Note_on_c, 10, 71, 109
11, 91200, Note_on_c, 10, 79, 109
11, 91320, Note_on_c, 10, 79, 0
11, 91320, Note_on_c, 10, 71, 0
11, 91320, Note_on_c, 10, 62, 0
11, 91440, Note_on_c, 10, 62, 106
11, 91440, Note_on_c, 10, 71, 106
11, 91440, Note_on_c, 10, 79, 106
11, 91560, Note_on_c, 10, 79, 0
11, 91560, Note_on_c, 10, 71, 0
11, 91560, Note_on_c, 10, 62, 0
11, 91680, Note_on_c, 10, 62, 106
11, 91680, Note_on_c, 10, 71, 106
11, 91680, Note_on_c, 10, 79, 106
11, 91780, Note_on_c, 10, 79, 0
11, 91780, Note_on_c, 10, 71, 0
11, 91780, Note_on_c, 10, 62, 0
11, 91800, Note_on_c, 10, 55, 110
11, 91800, Note_on_c, 10, 67, 110
11, 91860, Note_on_c, 10, 67, 0
11, 91860, Note_on_c, 10, 55, 0
11, 91890, Note_on_c, 10, 55, 109
11, 91890, Note_on_c, 10, 67, 109
11, 91905, Note_on_c, 10, 67, 0
11, 91905, Note_on_c, 10, 55, 0
11, 91920, Note_on_c, 10, 55, 108
11, 91920, Note_on_c, 10, 67, 108
11, 92040, Note_on_c, 10, 67, 0
11, 92040, Note_on_c, 10, 55, 0
11, 92040, End_track
12, 0, Start_track
12, 0, MIDI_port, 0
12, 0, Title_t, """Wildman5"""
12, 0, Program_c, 10, 44
12, 0, Control_c, 10, 7, 115
12, 0, Control_c, 10, 10, 70
12, 10, Note_on_c, 10, 79, 85
12, 10, Note_on_c, 10, 71, 85
12, 10, Note_on_c, 10, 62, 85
12, 130, Note_on_c, 10, 62, 0
12, 130, Note_on_c, 10, 71, 0
12, 130, Note_on_c, 10, 79, 0
12, 190, Note_on_c, 10, 74, 85
12, 220, Note_on_c, 10, 74, 0
12, 250, Note_on_c, 10, 79, 85
12, 370, Note_on_c, 10, 79, 0
12, 430, Note_on_c, 10, 74, 85
12, 460, Note_on_c, 10, 74, 0
12, 490, Note_on_c, 10, 79, 85
12, 520, Note_on_c, 10, 79, 0
12, 550, Note_on_c, 10, 74, 85
12, 580, Note_on_c, 10, 74, 0
12, 610, Note_on_c, 10, 79, 85
12, 640, Note_on_c, 10, 79, 0
12, 670, Note_on_c, 10, 83, 85
12, 700, Note_on_c, 10, 83, 0
12, 730, Note_on_c, 10, 86, 85
12, 850, Note_on_c, 10, 86, 0
12, 970, Note_on_c, 10, 84, 85
12, 1090, Note_on_c, 10, 84, 0
12, 1150, Note_on_c, 10, 81, 85
12, 1180, Note_on_c, 10, 81, 0
12, 1210, Note_on_c, 10, 84, 85
12, 1330, Note_on_c, 10, 84, 0
12, 1390, Note_on_c, 10, 81, 85
12, 1420, Note_on_c, 10, 81, 0
12, 1450, Note_on_c, 10, 84, 85
12, 1480, Note_on_c, 10, 84, 0
12, 1510, Note_on_c, 10, 81, 85
12, 1540, Note_on_c, 10, 81, 0
12, 1570, Note_on_c, 10, 78, 85
12, 1600, Note_on_c, 10, 78, 0
12, 1630, Note_on_c, 10, 81, 85
12, 1660, Note_on_c, 10, 81, 0
12, 1690, Note_on_c, 10, 74, 85
12, 1810, Note_on_c, 10, 74, 0
12, 1920, Note_on_c, 10, 59, 85
12, 1920, Note_on_c, 10, 62, 85
12, 1940, Note_on_c, 10, 62, 0
12, 1940, Note_on_c, 10, 59, 0
12, 1950, Note_on_c, 10, 59, 85
12, 1950, Note_on_c, 10, 62, 85
12, 1970, Note_on_c, 10, 62, 0
12, 1970, Note_on_c, 10, 59, 0
12, 1980, Note_on_c, 10, 59, 85
12, 1980, Note_on_c, 10, 62, 85
12, 2000, Note_on_c, 10, 62, 0
12, 2000, Note_on_c, 10, 59, 0
12, 2010, Note_on_c, 10, 59, 85
12, 2010, Note_on_c, 10, 62, 85
12, 2030, Note_on_c, 10, 62, 0
12, 2030, Note_on_c, 10, 59, 0
12, 2040, Note_on_c, 10, 59, 85
12, 2040, Note_on_c, 10, 62, 85
12, 2060, Note_on_c, 10, 62, 0
12, 2060, Note_on_c, 10, 59, 0
12, 2070, Note_on_c, 10, 59, 85
12, 2070, Note_on_c, 10, 62, 85
12, 2090, Note_on_c, 10, 62, 0
12, 2090, Note_on_c, 10, 59, 0
12, 2100, Note_on_c, 10, 59, 85
12, 2100, Note_on_c, 10, 62, 85
12, 2120, Note_on_c, 10, 62, 0
12, 2120, Note_on_c, 10, 59, 0
12, 2130, Note_on_c, 10, 59, 85
12, 2130, Note_on_c, 10, 62, 85
12, 2150, Note_on_c, 10, 62, 0
12, 2150, Note_on_c, 10, 59, 0
12, 2160, Note_on_c, 10, 59, 85
12, 2160, Note_on_c, 10, 62, 85
12, 2180, Note_on_c, 10, 62, 0
12, 2180, Note_on_c, 10, 59, 0
12, 2190, Note_on_c, 10, 59, 85
12, 2190, Note_on_c, 10, 62, 85
12, 2210, Note_on_c, 10, 62, 0
12, 2210, Note_on_c, 10, 59, 0
12, 2220, Note_on_c, 10, 59, 85
12, 2220, Note_on_c, 10, 62, 85
12, 2240, Note_on_c, 10, 62, 0
12, 2240, Note_on_c, 10, 59, 0
12, 2250, Note_on_c, 10, 59, 85
12, 2250, Note_on_c, 10, 62, 85
12, 2270, Note_on_c, 10, 62, 0
12, 2270, Note_on_c, 10, 59, 0
12, 2280, Note_on_c, 10, 59, 85
12, 2280, Note_on_c, 10, 62, 85
12, 2300, Note_on_c, 10, 62, 0
12, 2300, Note_on_c, 10, 59, 0
12, 2310, Note_on_c, 10, 59, 85
12, 2310, Note_on_c, 10, 62, 85
12, 2330, Note_on_c, 10, 62, 0
12, 2330, Note_on_c, 10, 59, 0
12, 2340, Note_on_c, 10, 59, 85
12, 2340, Note_on_c, 10, 62, 85
12, 2360, Note_on_c, 10, 62, 0
12, 2360, Note_on_c, 10, 59, 0
12, 2370, Note_on_c, 10, 59, 85
12, 2370, Note_on_c, 10, 62, 85
12, 2390, Note_on_c, 10, 62, 0
12, 2390, Note_on_c, 10, 59, 0
12, 2400, Note_on_c, 10, 60, 85
12, 2400, Note_on_c, 10, 62, 85
12, 2420, Note_on_c, 10, 62, 0
12, 2420, Note_on_c, 10, 60, 0
12, 2430, Note_on_c, 10, 60, 85
12, 2430, Note_on_c, 10, 62, 85
12, 2450, Note_on_c, 10, 62, 0
12, 2450, Note_on_c, 10, 60, 0
12, 2460, Note_on_c, 10, 60, 85
12, 2460, Note_on_c, 10, 62, 85
12, 2480, Note_on_c, 10, 62, 0
12, 2480, Note_on_c, 10, 60, 0
12, 2490, Note_on_c, 10, 60, 85
12, 2490, Note_on_c, 10, 62, 85
12, 2510, Note_on_c, 10, 62, 0
12, 2510, Note_on_c, 10, 60, 0
12, 2520, Note_on_c, 10, 60, 85
12, 2520, Note_on_c, 10, 62, 85
12, 2540, Note_on_c, 10, 62, 0
12, 2540, Note_on_c, 10, 60, 0
12, 2550, Note_on_c, 10, 60, 85
12, 2550, Note_on_c, 10, 62, 85
12, 2570, Note_on_c, 10, 62, 0
12, 2570, Note_on_c, 10, 60, 0
12, 2580, Note_on_c, 10, 60, 85
12, 2580, Note_on_c, 10, 62, 85
12, 2600, Note_on_c, 10, 62, 0
12, 2600, Note_on_c, 10, 60, 0
12, 2610, Note_on_c, 10, 60, 85
12, 2610, Note_on_c, 10, 62, 85
12, 2630, Note_on_c, 10, 62, 0
12, 2630, Note_on_c, 10, 60, 0
12, 2640, Note_on_c, 10, 60, 85
12, 2640, Note_on_c, 10, 62, 85
12, 2660, Note_on_c, 10, 62, 0
12, 2660, Note_on_c, 10, 60, 0
12, 2670, Note_on_c, 10, 60, 85
12, 2670, Note_on_c, 10, 62, 85
12, 2690, Note_on_c, 10, 62, 0
12, 2690, Note_on_c, 10, 60, 0
12, 2700, Note_on_c, 10, 60, 85
12, 2700, Note_on_c, 10, 62, 85
12, 2720, Note_on_c, 10, 62, 0
12, 2720, Note_on_c, 10, 60, 0
12, 2730, Note_on_c, 10, 60, 85
12, 2730, Note_on_c, 10, 62, 85
12, 2750, Note_on_c, 10, 62, 0
12, 2750, Note_on_c, 10, 60, 0
12, 2760, Note_on_c, 10, 60, 85
12, 2760, Note_on_c, 10, 62, 85
12, 2780, Note_on_c, 10, 62, 0
12, 2780, Note_on_c, 10, 60, 0
12, 2790, Note_on_c, 10, 60, 85
12, 2790, Note_on_c, 10, 62, 85
12, 2810, Note_on_c, 10, 62, 0
12, 2810, Note_on_c, 10, 60, 0
12, 2820, Note_on_c, 10, 60, 85
12, 2820, Note_on_c, 10, 62, 85
12, 2840, Note_on_c, 10, 62, 0
12, 2840, Note_on_c, 10, 60, 0
12, 2850, Note_on_c, 10, 60, 85
12, 2850, Note_on_c, 10, 62, 85
12, 2870, Note_on_c, 10, 62, 0
12, 2870, Note_on_c, 10, 60, 0
12, 2880, Note_on_c, 10, 59, 85
12, 2880, Note_on_c, 10, 62, 85
12, 2900, Note_on_c, 10, 62, 0
12, 2900, Note_on_c, 10, 59, 0
12, 2910, Note_on_c, 10, 59, 85
12, 2910, Note_on_c, 10, 62, 85
12, 2930, Note_on_c, 10, 62, 0
12, 2930, Note_on_c, 10, 59, 0
12, 2940, Note_on_c, 10, 59, 85
12, 2940, Note_on_c, 10, 62, 85
12, 2960, Note_on_c, 10, 62, 0
12, 2960, Note_on_c, 10, 59, 0
12, 2970, Note_on_c, 10, 59, 85
12, 2970, Note_on_c, 10, 62, 85
12, 2990, Note_on_c, 10, 62, 0
12, 2990, Note_on_c, 10, 59, 0
12, 3000, Note_on_c, 10, 59, 85
12, 3000, Note_on_c, 10, 62, 85
12, 3020, Note_on_c, 10, 62, 0
12, 3020, Note_on_c, 10, 59, 0
12, 3030, Note_on_c, 10, 59, 85
12, 3030, Note_on_c, 10, 62, 85
12, 3050, Note_on_c, 10, 62, 0
12, 3050, Note_on_c, 10, 59, 0
12, 3060, Note_on_c, 10, 59, 85
12, 3060, Note_on_c, 10, 62, 85
12, 3080, Note_on_c, 10, 62, 0
12, 3080, Note_on_c, 10, 59, 0
12, 3090, Note_on_c, 10, 59, 85
12, 3090, Note_on_c, 10, 62, 85
12, 3110, Note_on_c, 10, 62, 0
12, 3110, Note_on_c, 10, 59, 0
12, 3120, Note_on_c, 10, 59, 85
12, 3120, Note_on_c, 10, 62, 85
12, 3140, Note_on_c, 10, 62, 0
12, 3140, Note_on_c, 10, 59, 0
12, 3150, Note_on_c, 10, 59, 85
12, 3150, Note_on_c, 10, 62, 85
12, 3170, Note_on_c, 10, 62, 0
12, 3170, Note_on_c, 10, 59, 0
12, 3180, Note_on_c, 10, 59, 85
12, 3180, Note_on_c, 10, 62, 85
12, 3200, Note_on_c, 10, 62, 0
12, 3200, Note_on_c, 10, 59, 0
12, 3210, Note_on_c, 10, 59, 85
12, 3210, Note_on_c, 10, 62, 85
12, 3230, Note_on_c, 10, 62, 0
12, 3230, Note_on_c, 10, 59, 0
12, 3240, Note_on_c, 10, 59, 85
12, 3240, Note_on_c, 10, 62, 85
12, 3260, Note_on_c, 10, 62, 0
12, 3260, Note_on_c, 10, 59, 0
12, 3270, Note_on_c, 10, 59, 85
12, 3270, Note_on_c, 10, 62, 85
12, 3290, Note_on_c, 10, 62, 0
12, 3290, Note_on_c, 10, 59, 0
12, 3300, Note_on_c, 10, 59, 85
12, 3300, Note_on_c, 10, 62, 85
12, 3320, Note_on_c, 10, 62, 0
12, 3320, Note_on_c, 10, 59, 0
12, 3330, Note_on_c, 10, 59, 85
12, 3330, Note_on_c, 10, 62, 85
12, 3350, Note_on_c, 10, 62, 0
12, 3350, Note_on_c, 10, 59, 0
12, 3360, Note_on_c, 10, 60, 85
12, 3360, Note_on_c, 10, 62, 85
12, 3380, Note_on_c, 10, 62, 0
12, 3380, Note_on_c, 10, 60, 0
12, 3390, Note_on_c, 10, 60, 85
12, 3390, Note_on_c, 10, 62, 85
12, 3410, Note_on_c, 10, 62, 0
12, 3410, Note_on_c, 10, 60, 0
12, 3420, Note_on_c, 10, 60, 85
12, 3420, Note_on_c, 10, 62, 85
12, 3440, Note_on_c, 10, 62, 0
12, 3440, Note_on_c, 10, 60, 0
12, 3450, Note_on_c, 10, 60, 85
12, 3450, Note_on_c, 10, 62, 85
12, 3470, Note_on_c, 10, 62, 0
12, 3470, Note_on_c, 10, 60, 0
12, 3480, Note_on_c, 10, 60, 85
12, 3480, Note_on_c, 10, 62, 85
12, 3500, Note_on_c, 10, 62, 0
12, 3500, Note_on_c, 10, 60, 0
12, 3510, Note_on_c, 10, 60, 85
12, 3510, Note_on_c, 10, 62, 85
12, 3530, Note_on_c, 10, 62, 0
12, 3530, Note_on_c, 10, 60, 0
12, 3540, Note_on_c, 10, 60, 85
12, 3540, Note_on_c, 10, 62, 85
12, 3560, Note_on_c, 10, 62, 0
12, 3560, Note_on_c, 10, 60, 0
12, 3570, Note_on_c, 10, 60, 85
12, 3570, Note_on_c, 10, 62, 85
12, 3590, Note_on_c, 10, 62, 0
12, 3590, Note_on_c, 10, 60, 0
12, 3600, Note_on_c, 10, 60, 85
12, 3600, Note_on_c, 10, 62, 85
12, 3620, Note_on_c, 10, 62, 0
12, 3620, Note_on_c, 10, 60, 0
12, 3630, Note_on_c, 10, 60, 85
12, 3630, Note_on_c, 10, 62, 85
12, 3650, Note_on_c, 10, 62, 0
12, 3650, Note_on_c, 10, 60, 0
12, 3660, Note_on_c, 10, 60, 85
12, 3660, Note_on_c, 10, 62, 85
12, 3680, Note_on_c, 10, 62, 0
12, 3680, Note_on_c, 10, 60, 0
12, 3690, Note_on_c, 10, 60, 85
12, 3690, Note_on_c, 10, 62, 85
12, 3710, Note_on_c, 10, 62, 0
12, 3710, Note_on_c, 10, 60, 0
12, 3720, Note_on_c, 10, 60, 85
12, 3720, Note_on_c, 10, 62, 85
12, 3740, Note_on_c, 10, 62, 0
12, 3740, Note_on_c, 10, 60, 0
12, 3750, Note_on_c, 10, 60, 85
12, 3750, Note_on_c, 10, 62, 85
12, 3770, Note_on_c, 10, 62, 0
12, 3770, Note_on_c, 10, 60, 0
12, 3780, Note_on_c, 10, 60, 85
12, 3780, Note_on_c, 10, 62, 85
12, 3800, Note_on_c, 10, 62, 0
12, 3800, Note_on_c, 10, 60, 0
12, 3810, Note_on_c, 10, 60, 85
12, 3810, Note_on_c, 10, 62, 85
12, 3830, Note_on_c, 10, 62, 0
12, 3830, Note_on_c, 10, 60, 0
12, 3840, Note_on_c, 10, 59, 85
12, 3840, Note_on_c, 10, 62, 85
12, 3960, Note_on_c, 10, 62, 0
12, 3960, Note_on_c, 10, 59, 0
12, 3960, Note_on_c, 10, 72, 85
12, 4005, Note_on_c, 10, 72, 0
12, 4020, Note_on_c, 10, 72, 85
12, 4065, Note_on_c, 10, 72, 0
12, 4080, Note_on_c, 10, 74, 85
12, 4125, Note_on_c, 10, 74, 0
12, 4140, Note_on_c, 10, 74, 85
12, 4185, Note_on_c, 10, 74, 0
12, 4200, Note_on_c, 10, 72, 85
12, 4260, Note_on_c, 10, 72, 0
12, 4260, Note_on_c, 10, 71, 85
12, 4290, Note_on_c, 10, 71, 0
12, 4290, Note_on_c, 10, 69, 85
12, 4320, Note_on_c, 10, 69, 0
12, 4320, Note_on_c, 10, 67, 85
12, 4365, Note_on_c, 10, 67, 0
12, 4380, Note_on_c, 10, 67, 85
12, 4425, Note_on_c, 10, 67, 0
12, 4440, Note_on_c, 10, 66, 85
12, 4485, Note_on_c, 10, 66, 0
12, 4500, Note_on_c, 10, 66, 85
12, 4545, Note_on_c, 10, 66, 0
12, 4560, Note_on_c, 10, 67, 85
12, 4680, Note_on_c, 10, 67, 0
12, 4800, Note_on_c, 10, 71, 47
12, 5040, Note_on_c, 10, 71, 0
12, 5040, Note_on_c, 10, 72, 47
12, 5280, Note_on_c, 10, 72, 0
12, 5280, Note_on_c, 10, 71, 47
12, 5310, Note_on_c, 10, 71, 0
12, 5310, Note_on_c, 10, 69, 47
12, 5390, Note_on_c, 10, 69, 0
12, 5400, Note_on_c, 10, 69, 47
12, 5520, Note_on_c, 10, 69, 0
12, 5520, Note_on_c, 10, 69, 47
12, 5550, Note_on_c, 10, 69, 0
12, 5550, Note_on_c, 10, 67, 47
12, 5630, Note_on_c, 10, 67, 0
12, 5640, Note_on_c, 10, 67, 47
12, 5760, Note_on_c, 10, 67, 0
12, 5760, Note_on_c, 10, 64, 47
12, 5850, Note_on_c, 10, 64, 0
12, 5880, Note_on_c, 10, 64, 47
12, 5970, Note_on_c, 10, 64, 0
12, 6000, Note_on_c, 10, 60, 47
12, 6090, Note_on_c, 10, 60, 0
12, 6120, Note_on_c, 10, 57, 47
12, 6210, Note_on_c, 10, 57, 0
12, 6240, Note_on_c, 10, 62, 47
12, 6300, Note_on_c, 10, 62, 0
12, 6360, Note_on_c, 10, 66, 47
12, 6420, Note_on_c, 10, 66, 0
12, 6480, Note_on_c, 10, 67, 47
12, 6540, Note_on_c, 10, 67, 0
12, 6720, Note_on_c, 10, 71, 47
12, 6960, Note_on_c, 10, 71, 0
12, 6960, Note_on_c, 10, 72, 47
12, 7200, Note_on_c, 10, 72, 0
12, 7200, Note_on_c, 10, 71, 47
12, 7260, Note_on_c, 10, 71, 0
12, 7260, Note_on_c, 10, 69, 47
12, 7290, Note_on_c, 10, 69, 0
12, 7320, Note_on_c, 10, 69, 47
12, 7350, Note_on_c, 10, 69, 0
12, 7380, Note_on_c, 10, 69, 47
12, 7410, Note_on_c, 10, 69, 0
12, 7440, Note_on_c, 10, 69, 47
12, 7500, Note_on_c, 10, 69, 0
12, 7500, Note_on_c, 10, 67, 47
12, 7530, Note_on_c, 10, 67, 0
12, 7560, Note_on_c, 10, 67, 47
12, 7590, Note_on_c, 10, 67, 0
12, 7620, Note_on_c, 10, 67, 47
12, 7650, Note_on_c, 10, 67, 0
12, 7680, Note_on_c, 10, 64, 47
12, 7770, Note_on_c, 10, 64, 0
12, 7800, Note_on_c, 10, 64, 47
12, 7845, Note_on_c, 10, 64, 0
12, 7860, Note_on_c, 10, 64, 47
12, 7905, Note_on_c, 10, 64, 0
12, 7920, Note_on_c, 10, 60, 47
12, 8010, Note_on_c, 10, 60, 0
12, 8040, Note_on_c, 10, 60, 47
12, 8085, Note_on_c, 10, 60, 0
12, 8100, Note_on_c, 10, 60, 47
12, 8145, Note_on_c, 10, 60, 0
12, 8160, Note_on_c, 10, 59, 85
12, 8460, Note_on_c, 10, 59, 0
12, 8460, Note_on_c, 10, 59, 61
12, 8475, Note_on_c, 10, 59, 0
12, 8475, Note_on_c, 10, 60, 61
12, 8490, Note_on_c, 10, 60, 0
12, 8490, Note_on_c, 10, 57, 61
12, 8505, Note_on_c, 10, 57, 0
12, 8505, Note_on_c, 10, 59, 61
12, 8520, Note_on_c, 10, 59, 0
12, 8520, Note_on_c, 10, 60, 61
12, 8580, Note_on_c, 10, 60, 0
12, 8580, Note_on_c, 10, 57, 61
12, 8640, Note_on_c, 10, 57, 0
12, 8640, Note_on_c, 10, 67, 85
12, 8940, Note_on_c, 10, 67, 0
12, 8940, Note_on_c, 10, 67, 61
12, 8955, Note_on_c, 10, 67, 0
12, 8955, Note_on_c, 10, 69, 61
12, 8970, Note_on_c, 10, 69, 0
12, 8970, Note_on_c, 10, 66, 61
12, 8985, Note_on_c, 10, 66, 0
12, 8985, Note_on_c, 10, 67, 61
12, 9000, Note_on_c, 10, 67, 0
12, 9000, Note_on_c, 10, 69, 61
12, 9060, Note_on_c, 10, 69, 0
12, 9060, Note_on_c, 10, 66, 61
12, 9120, Note_on_c, 10, 66, 0
12, 9120, Note_on_c, 10, 71, 53
12, 9140, Note_on_c, 10, 71, 0
12, 9150, Note_on_c, 10, 71, 53
12, 9170, Note_on_c, 10, 71, 0
12, 9180, Note_on_c, 10, 71, 55
12, 9200, Note_on_c, 10, 71, 0
12, 9210, Note_on_c, 10, 71, 55
12, 9230, Note_on_c, 10, 71, 0
12, 9240, Note_on_c, 10, 71, 55
12, 9260, Note_on_c, 10, 71, 0
12, 9270, Note_on_c, 10, 71, 56
12, 9290, Note_on_c, 10, 71, 0
12, 9300, Note_on_c, 10, 71, 56
12, 9320, Note_on_c, 10, 71, 0
12, 9330, Note_on_c, 10, 71, 58
12, 9350, Note_on_c, 10, 71, 0
12, 9360, Note_on_c, 10, 72, 58
12, 9380, Note_on_c, 10, 72, 0
12, 9390, Note_on_c, 10, 72, 59
12, 9410, Note_on_c, 10, 72, 0
12, 9420, Note_on_c, 10, 72, 59
12, 9440, Note_on_c, 10, 72, 0
12, 9450, Note_on_c, 10, 72, 61
12, 9470, Note_on_c, 10, 72, 0
12, 9480, Note_on_c, 10, 74, 61
12, 9500, Note_on_c, 10, 74, 0
12, 9510, Note_on_c, 10, 74, 62
12, 9530, Note_on_c, 10, 74, 0
12, 9540, Note_on_c, 10, 74, 62
12, 9560, Note_on_c, 10, 74, 0
12, 9570, Note_on_c, 10, 74, 64
12, 9590, Note_on_c, 10, 74, 0
12, 9600, Note_on_c, 10, 71, 64
12, 9620, Note_on_c, 10, 71, 0
12, 9630, Note_on_c, 10, 71, 65
12, 9650, Note_on_c, 10, 71, 0
12, 9660, Note_on_c, 10, 71, 65
12, 9680, Note_on_c, 10, 71, 0
12, 9690, Note_on_c, 10, 71, 67
12, 9710, Note_on_c, 10, 71, 0
12, 9720, Note_on_c, 10, 74, 67
12, 9740, Note_on_c, 10, 74, 0
12, 9750, Note_on_c, 10, 74, 68
12, 9770, Note_on_c, 10, 74, 0
12, 9780, Note_on_c, 10, 74, 68
12, 9800, Note_on_c, 10, 74, 0
12, 9810, Note_on_c, 10, 74, 70
12, 9830, Note_on_c, 10, 74, 0
12, 9840, Note_on_c, 10, 74, 70
12, 9860, Note_on_c, 10, 74, 0
12, 9870, Note_on_c, 10, 74, 71
12, 9890, Note_on_c, 10, 74, 0
12, 9900, Note_on_c, 10, 74, 71
12, 9920, Note_on_c, 10, 74, 0
12, 9930, Note_on_c, 10, 74, 73
12, 9950, Note_on_c, 10, 74, 0
12, 9960, Note_on_c, 10, 79, 73
12, 9980, Note_on_c, 10, 79, 0
12, 9990, Note_on_c, 10, 79, 73
12, 10010, Note_on_c, 10, 79, 0
12, 10020, Note_on_c, 10, 79, 74
12, 10040, Note_on_c, 10, 79, 0
12, 10050, Note_on_c, 10, 79, 74
12, 10070, Note_on_c, 10, 79, 0
12, 10080, Note_on_c, 10, 78, 85
12, 10100, Note_on_c, 10, 78, 0
12, 10110, Note_on_c, 10, 78, 85
12, 10130, Note_on_c, 10, 78, 0
12, 10140, Note_on_c, 10, 78, 85
12, 10160, Note_on_c, 10, 78, 0
12, 10170, Note_on_c, 10, 78, 85
12, 10190, Note_on_c, 10, 78, 0
12, 10200, Note_on_c, 10, 78, 85
12, 10220, Note_on_c, 10, 78, 0
12, 10230, Note_on_c, 10, 78, 85
12, 10250, Note_on_c, 10, 78, 0
12, 10260, Note_on_c, 10, 78, 85
12, 10280, Note_on_c, 10, 78, 0
12, 10290, Note_on_c, 10, 78, 85
12, 10310, Note_on_c, 10, 78, 0
12, 10320, Note_on_c, 10, 79, 85
12, 10340, Note_on_c, 10, 79, 0
12, 10350, Note_on_c, 10, 79, 85
12, 10370, Note_on_c, 10, 79, 0
12, 10380, Note_on_c, 10, 79, 85
12, 10400, Note_on_c, 10, 79, 0
12, 10410, Note_on_c, 10, 79, 85
12, 10430, Note_on_c, 10, 79, 0
12, 10440, Note_on_c, 10, 79, 85
12, 10460, Note_on_c, 10, 79, 0
12, 10470, Note_on_c, 10, 79, 85
12, 10490, Note_on_c, 10, 79, 0
12, 10500, Note_on_c, 10, 79, 85
12, 10520, Note_on_c, 10, 79, 0
12, 10530, Note_on_c, 10, 79, 85
12, 10550, Note_on_c, 10, 79, 0
12, 10560, Note_on_c, 10, 78, 85
12, 10580, Note_on_c, 10, 78, 0
12, 10590, Note_on_c, 10, 78, 85
12, 10610, Note_on_c, 10, 78, 0
12, 10620, Note_on_c, 10, 78, 85
12, 10640, Note_on_c, 10, 78, 0
12, 10650, Note_on_c, 10, 78, 85
12, 10670, Note_on_c, 10, 78, 0
12, 10680, Note_on_c, 10, 78, 85
12, 10700, Note_on_c, 10, 78, 0
12, 10710, Note_on_c, 10, 78, 85
12, 10730, Note_on_c, 10, 78, 0
12, 10740, Note_on_c, 10, 78, 85
12, 10760, Note_on_c, 10, 78, 0
12, 10770, Note_on_c, 10, 78, 85
12, 10790, Note_on_c, 10, 78, 0
12, 10800, Note_on_c, 10, 79, 85
12, 10820, Note_on_c, 10, 79, 0
12, 10830, Note_on_c, 10, 79, 85
12, 10850, Note_on_c, 10, 79, 0
12, 10860, Note_on_c, 10, 79, 85
12, 10880, Note_on_c, 10, 79, 0
12, 10890, Note_on_c, 10, 79, 85
12, 10910, Note_on_c, 10, 79, 0
12, 10920, Note_on_c, 10, 79, 85
12, 10940, Note_on_c, 10, 79, 0
12, 10950, Note_on_c, 10, 79, 85
12, 10970, Note_on_c, 10, 79, 0
12, 10980, Note_on_c, 10, 79, 85
12, 11000, Note_on_c, 10, 79, 0
12, 11010, Note_on_c, 10, 79, 85
12, 11030, Note_on_c, 10, 79, 0
12, 11040, Note_on_c, 10, 74, 85
12, 11070, Note_on_c, 10, 74, 0
12, 11100, Note_on_c, 10, 74, 85
12, 11190, Note_on_c, 10, 74, 0
12, 11220, Note_on_c, 10, 74, 85
12, 11310, Note_on_c, 10, 74, 0
12, 11340, Note_on_c, 10, 74, 85
12, 11430, Note_on_c, 10, 74, 0
12, 11460, Note_on_c, 10, 74, 85
12, 11550, Note_on_c, 10, 74, 0
12, 11580, Note_on_c, 10, 74, 85
12, 11670, Note_on_c, 10, 74, 0
12, 11700, Note_on_c, 10, 74, 85
12, 11790, Note_on_c, 10, 74, 0
12, 11820, Note_on_c, 10, 74, 85
12, 11910, Note_on_c, 10, 74, 0
12, 11940, Note_on_c, 10, 74, 85
12, 12000, Note_on_c, 10, 74, 0
12, 12000, Note_on_c, 10, 73, 85
12, 12020, Note_on_c, 10, 73, 0
12, 12030, Note_on_c, 10, 76, 85
12, 12030, Note_on_c, 10, 73, 85
12, 12050, Note_on_c, 10, 73, 0
12, 12050, Note_on_c, 10, 76, 0
12, 12060, Note_on_c, 10, 76, 85
12, 12060, Note_on_c, 10, 73, 85
12, 12080, Note_on_c, 10, 73, 0
12, 12080, Note_on_c, 10, 76, 0
12, 12090, Note_on_c, 10, 76, 85
12, 12090, Note_on_c, 10, 73, 85
12, 12110, Note_on_c, 10, 73, 0
12, 12110, Note_on_c, 10, 76, 0
12, 12120, Note_on_c, 10, 78, 85
12, 12120, Note_on_c, 10, 74, 85
12, 12140, Note_on_c, 10, 74, 0
12, 12140, Note_on_c, 10, 78, 0
12, 12150, Note_on_c, 10, 78, 85
12, 12150, Note_on_c, 10, 74, 85
12, 12170, Note_on_c, 10, 74, 0
12, 12170, Note_on_c, 10, 78, 0
12, 12180, Note_on_c, 10, 78, 85
12, 12180, Note_on_c, 10, 74, 85
12, 12200, Note_on_c, 10, 74, 0
12, 12200, Note_on_c, 10, 78, 0
12, 12210, Note_on_c, 10, 78, 85
12, 12210, Note_on_c, 10, 74, 85
12, 12230, Note_on_c, 10, 74, 0
12, 12230, Note_on_c, 10, 78, 0
12, 12240, Note_on_c, 10, 73, 85
12, 12240, Note_on_c, 10, 76, 85
12, 12260, Note_on_c, 10, 76, 0
12, 12260, Note_on_c, 10, 73, 0
12, 12270, Note_on_c, 10, 73, 85
12, 12270, Note_on_c, 10, 76, 85
12, 12290, Note_on_c, 10, 76, 0
12, 12290, Note_on_c, 10, 73, 0
12, 12300, Note_on_c, 10, 73, 85
12, 12300, Note_on_c, 10, 76, 85
12, 12320, Note_on_c, 10, 76, 0
12, 12320, Note_on_c, 10, 73, 0
12, 12330, Note_on_c, 10, 73, 85
12, 12330, Note_on_c, 10, 76, 85
12, 12350, Note_on_c, 10, 76, 0
12, 12350, Note_on_c, 10, 73, 0
12, 12360, Note_on_c, 10, 78, 85
12, 12360, Note_on_c, 10, 74, 85
12, 12380, Note_on_c, 10, 74, 0
12, 12380, Note_on_c, 10, 78, 0
12, 12390, Note_on_c, 10, 78, 85
12, 12390, Note_on_c, 10, 74, 85
12, 12410, Note_on_c, 10, 74, 0
12, 12410, Note_on_c, 10, 78, 0
12, 12420, Note_on_c, 10, 78, 85
12, 12420, Note_on_c, 10, 74, 85
12, 12440, Note_on_c, 10, 74, 0
12, 12440, Note_on_c, 10, 78, 0
12, 12450, Note_on_c, 10, 78, 85
12, 12450, Note_on_c, 10, 74, 85
12, 12470, Note_on_c, 10, 74, 0
12, 12470, Note_on_c, 10, 78, 0
12, 12480, Note_on_c, 10, 76, 85
12, 12480, Note_on_c, 10, 73, 85
12, 12525, Note_on_c, 10, 73, 0
12, 12525, Note_on_c, 10, 76, 0
12, 12540, Note_on_c, 10, 69, 85
12, 12585, Note_on_c, 10, 69, 0
12, 12600, Note_on_c, 10, 69, 85
12, 12645, Note_on_c, 10, 69, 0
12, 12660, Note_on_c, 10, 69, 85
12, 12705, Note_on_c, 10, 69, 0
12, 12720, Note_on_c, 10, 69, 85
12, 12840, Note_on_c, 10, 69, 0
12, 12960, Note_on_c, 10, 69, 55
12, 13140, Note_on_c, 10, 69, 0
12, 13140, Note_on_c, 10, 67, 55
12, 13160, Note_on_c, 10, 67, 0
12, 13160, Note_on_c, 10, 66, 55
12, 13180, Note_on_c, 10, 66, 0
12, 13180, Note_on_c, 10, 64, 55
12, 13200, Note_on_c, 10, 64, 0
12, 13200, Note_on_c, 10, 62, 55
12, 13260, Note_on_c, 10, 62, 0
12, 13320, Note_on_c, 10, 71, 55
12, 13380, Note_on_c, 10, 71, 0
12, 13440, Note_on_c, 10, 67, 55
12, 13500, Note_on_c, 10, 67, 0
12, 13560, Note_on_c, 10, 64, 55
12, 13620, Note_on_c, 10, 64, 0
12, 13680, Note_on_c, 10, 69, 55
12, 13740, Note_on_c, 10, 69, 0
12, 13920, Note_on_c, 10, 66, 55
12, 14100, Note_on_c, 10, 66, 0
12, 14100, Note_on_c, 10, 64, 55
12, 14120, Note_on_c, 10, 64, 0
12, 14120, Note_on_c, 10, 62, 55
12, 14140, Note_on_c, 10, 62, 0
12, 14140, Note_on_c, 10, 61, 55
12, 14160, Note_on_c, 10, 61, 0
12, 14160, Note_on_c, 10, 59, 55
12, 14220, Note_on_c, 10, 59, 0
12, 14280, Note_on_c, 10, 67, 55
12, 14340, Note_on_c, 10, 67, 0
12, 14400, Note_on_c, 10, 66, 55
12, 14640, Note_on_c, 10, 66, 0
12, 14640, Note_on_c, 10, 64, 55
12, 14760, Note_on_c, 10, 64, 0
12, 14880, Note_on_c, 10, 69, 55
12, 15060, Note_on_c, 10, 69, 0
12, 15060, Note_on_c, 10, 67, 55
12, 15080, Note_on_c, 10, 67, 0
12, 15080, Note_on_c, 10, 66, 55
12, 15100, Note_on_c, 10, 66, 0
12, 15100, Note_on_c, 10, 64, 55
12, 15120, Note_on_c, 10, 64, 0
12, 15120, Note_on_c, 10, 62, 55
12, 15180, Note_on_c, 10, 62, 0
12, 15240, Note_on_c, 10, 71, 55
12, 15300, Note_on_c, 10, 71, 0
12, 15360, Note_on_c, 10, 67, 55
12, 15420, Note_on_c, 10, 67, 0
12, 15480, Note_on_c, 10, 64, 55
12, 15540, Note_on_c, 10, 64, 0
12, 15600, Note_on_c, 10, 69, 55
12, 15660, Note_on_c, 10, 69, 0
12, 15765, Note_on_c, 10, 67, 55
12, 15810, Note_on_c, 10, 67, 0
12, 15840, Note_on_c, 10, 67, 55
12, 15900, Note_on_c, 10, 67, 0
12, 15900, Note_on_c, 10, 66, 55
12, 15960, Note_on_c, 10, 66, 0
12, 16020, Note_on_c, 10, 79, 55
12, 16050, Note_on_c, 10, 79, 0
12, 16080, Note_on_c, 10, 79, 55
12, 16140, Note_on_c, 10, 79, 0
12, 16140, Note_on_c, 10, 78, 55
12, 16200, Note_on_c, 10, 78, 0
12, 16260, Note_on_c, 10, 67, 55
12, 16305, Note_on_c, 10, 67, 0
12, 16320, Note_on_c, 10, 66, 55
12, 16365, Note_on_c, 10, 66, 0
12, 16380, Note_on_c, 10, 66, 55
12, 16425, Note_on_c, 10, 66, 0
12, 16440, Note_on_c, 10, 67, 55
12, 16485, Note_on_c, 10, 67, 0
12, 16500, Note_on_c, 10, 67, 55
12, 16545, Note_on_c, 10, 67, 0
12, 16560, Note_on_c, 10, 69, 55
12, 16605, Note_on_c, 10, 69, 0
12, 16620, Note_on_c, 10, 69, 55
12, 16665, Note_on_c, 10, 69, 0
12, 16680, Note_on_c, 10, 66, 55
12, 16725, Note_on_c, 10, 66, 0
12, 16740, Note_on_c, 10, 66, 55
12, 16785, Note_on_c, 10, 66, 0
12, 16800, Note_on_c, 10, 64, 55
12, 16845, Note_on_c, 10, 64, 0
12, 16860, Note_on_c, 10, 64, 55
12, 16905, Note_on_c, 10, 64, 0
12, 16920, Note_on_c, 10, 66, 55
12, 16965, Note_on_c, 10, 66, 0
12, 16980, Note_on_c, 10, 66, 55
12, 17025, Note_on_c, 10, 66, 0
12, 17040, Note_on_c, 10, 67, 55
12, 17085, Note_on_c, 10, 67, 0
12, 17100, Note_on_c, 10, 67, 55
12, 17145, Note_on_c, 10, 67, 0
12, 17160, Note_on_c, 10, 64, 55
12, 17205, Note_on_c, 10, 64, 0
12, 17220, Note_on_c, 10, 64, 55
12, 17265, Note_on_c, 10, 64, 0
12, 17280, Note_on_c, 10, 66, 55
12, 17325, Note_on_c, 10, 66, 0
12, 17340, Note_on_c, 10, 66, 55
12, 17385, Note_on_c, 10, 66, 0
12, 17400, Note_on_c, 10, 67, 55
12, 17445, Note_on_c, 10, 67, 0
12, 17460, Note_on_c, 10, 67, 55
12, 17505, Note_on_c, 10, 67, 0
12, 17520, Note_on_c, 10, 69, 55
12, 17565, Note_on_c, 10, 69, 0
12, 17580, Note_on_c, 10, 69, 55
12, 17625, Note_on_c, 10, 69, 0
12, 17640, Note_on_c, 10, 66, 55
12, 17685, Note_on_c, 10, 66, 0
12, 17700, Note_on_c, 10, 66, 55
12, 17745, Note_on_c, 10, 66, 0
12, 17760, Note_on_c, 10, 64, 55
12, 17805, Note_on_c, 10, 64, 0
12, 17820, Note_on_c, 10, 64, 55
12, 17865, Note_on_c, 10, 64, 0
12, 17880, Note_on_c, 10, 66, 55
12, 17925, Note_on_c, 10, 66, 0
12, 17940, Note_on_c, 10, 66, 55
12, 17985, Note_on_c, 10, 66, 0
12, 18000, Note_on_c, 10, 67, 55
12, 18045, Note_on_c, 10, 67, 0
12, 18060, Note_on_c, 10, 67, 55
12, 18105, Note_on_c, 10, 67, 0
12, 18120, Note_on_c, 10, 64, 55
12, 18165, Note_on_c, 10, 64, 0
12, 18180, Note_on_c, 10, 64, 55
12, 18225, Note_on_c, 10, 64, 0
12, 18240, Note_on_c, 10, 66, 55
12, 18360, Note_on_c, 10, 66, 0
12, 18480, Note_on_c, 10, 78, 85
12, 18480, Note_on_c, 10, 71, 85
12, 18720, Note_on_c, 10, 71, 0
12, 18720, Note_on_c, 10, 78, 0
12, 18720, Note_on_c, 10, 76, 85
12, 18840, Note_on_c, 10, 76, 0
12, 18960, Note_on_c, 10, 69, 85
12, 18960, Note_on_c, 10, 76, 85
12, 19200, Note_on_c, 10, 76, 0
12, 19200, Note_on_c, 10, 69, 0
12, 19200, Note_on_c, 10, 74, 85
12, 19245, Note_on_c, 10, 74, 0
12, 19260, Note_on_c, 10, 78, 85
12, 19290, Note_on_c, 10, 78, 0
12, 19320, Note_on_c, 10, 79, 85
12, 19350, Note_on_c, 10, 79, 0
12, 19380, Note_on_c, 10, 81, 85
12, 19410, Note_on_c, 10, 81, 0
12, 19440, Note_on_c, 10, 79, 85
12, 19500, Note_on_c, 10, 79, 0
12, 19500, Note_on_c, 10, 81, 85
12, 19530, Note_on_c, 10, 81, 0
12, 19530, Note_on_c, 10, 83, 85
12, 19560, Note_on_c, 10, 83, 0
12, 19560, Note_on_c, 10, 81, 85
12, 19605, Note_on_c, 10, 81, 0
12, 19620, Note_on_c, 10, 79, 85
12, 19650, Note_on_c, 10, 79, 0
12, 19680, Note_on_c, 10, 79, 85
12, 19740, Note_on_c, 10, 79, 0
12, 19740, Note_on_c, 10, 78, 85
12, 19785, Note_on_c, 10, 78, 0
12, 19800, Note_on_c, 10, 74, 85
12, 19830, Note_on_c, 10, 74, 0
12, 19860, Note_on_c, 10, 78, 85
12, 19890, Note_on_c, 10, 78, 0
12, 19920, Note_on_c, 10, 78, 85
12, 19980, Note_on_c, 10, 78, 0
12, 19980, Note_on_c, 10, 76, 85
12, 20025, Note_on_c, 10, 76, 0
12, 20040, Note_on_c, 10, 74, 85
12, 20070, Note_on_c, 10, 74, 0
12, 20100, Note_on_c, 10, 73, 85
12, 20130, Note_on_c, 10, 73, 0
12, 20160, Note_on_c, 10, 74, 85
12, 20205, Note_on_c, 10, 74, 0
12, 20220, Note_on_c, 10, 66, 53
12, 20265, Note_on_c, 10, 66, 0
12, 20280, Note_on_c, 10, 67, 53
12, 20325, Note_on_c, 10, 67, 0
12, 20340, Note_on_c, 10, 67, 53
12, 20385, Note_on_c, 10, 67, 0
12, 20400, Note_on_c, 10, 69, 53
12, 20445, Note_on_c, 10, 69, 0
12, 20460, Note_on_c, 10, 69, 53
12, 20505, Note_on_c, 10, 69, 0
12, 20520, Note_on_c, 10, 66, 53
12, 20565, Note_on_c, 10, 66, 0
12, 20580, Note_on_c, 10, 66, 53
12, 20625, Note_on_c, 10, 66, 0
12, 20640, Note_on_c, 10, 64, 55
12, 20685, Note_on_c, 10, 64, 0
12, 20700, Note_on_c, 10, 64, 55
12, 20745, Note_on_c, 10, 64, 0
12, 20760, Note_on_c, 10, 66, 55
12, 20805, Note_on_c, 10, 66, 0
12, 20820, Note_on_c, 10, 66, 55
12, 20865, Note_on_c, 10, 66, 0
12, 20880, Note_on_c, 10, 67, 55
12, 20925, Note_on_c, 10, 67, 0
12, 20940, Note_on_c, 10, 67, 55
12, 20985, Note_on_c, 10, 67, 0
12, 21000, Note_on_c, 10, 64, 55
12, 21045, Note_on_c, 10, 64, 0
12, 21060, Note_on_c, 10, 64, 55
12, 21105, Note_on_c, 10, 64, 0
12, 21120, Note_on_c, 10, 66, 55
12, 21165, Note_on_c, 10, 66, 0
12, 21180, Note_on_c, 10, 66, 55
12, 21225, Note_on_c, 10, 66, 0
12, 21240, Note_on_c, 10, 67, 55
12, 21285, Note_on_c, 10, 67, 0
12, 21300, Note_on_c, 10, 67, 55
12, 21345, Note_on_c, 10, 67, 0
12, 21360, Note_on_c, 10, 69, 55
12, 21405, Note_on_c, 10, 69, 0
12, 21420, Note_on_c, 10, 69, 55
12, 21465, Note_on_c, 10, 69, 0
12, 21480, Note_on_c, 10, 66, 55
12, 21525, Note_on_c, 10, 66, 0
12, 21540, Note_on_c, 10, 66, 55
12, 21585, Note_on_c, 10, 66, 0
12, 21600, Note_on_c, 10, 64, 55
12, 21645, Note_on_c, 10, 64, 0
12, 21660, Note_on_c, 10, 64, 55
12, 21705, Note_on_c, 10, 64, 0
12, 21720, Note_on_c, 10, 66, 55
12, 21765, Note_on_c, 10, 66, 0
12, 21780, Note_on_c, 10, 66, 55
12, 21825, Note_on_c, 10, 66, 0
12, 21840, Note_on_c, 10, 67, 55
12, 21885, Note_on_c, 10, 67, 0
12, 21900, Note_on_c, 10, 67, 55
12, 21945, Note_on_c, 10, 67, 0
12, 21960, Note_on_c, 10, 64, 55
12, 22005, Note_on_c, 10, 64, 0
12, 22020, Note_on_c, 10, 64, 55
12, 22065, Note_on_c, 10, 64, 0
12, 22080, Note_on_c, 10, 66, 58
12, 22200, Note_on_c, 10, 66, 0
12, 22320, Note_on_c, 10, 78, 85
12, 22320, Note_on_c, 10, 71, 85
12, 22560, Note_on_c, 10, 71, 0
12, 22560, Note_on_c, 10, 78, 0
12, 22560, Note_on_c, 10, 76, 85
12, 22680, Note_on_c, 10, 76, 0
12, 22800, Note_on_c, 10, 69, 85
12, 22800, Note_on_c, 10, 76, 85
12, 23040, Note_on_c, 10, 76, 0
12, 23040, Note_on_c, 10, 69, 0
12, 23040, Note_on_c, 10, 74, 85
12, 23085, Note_on_c, 10, 74, 0
12, 23100, Note_on_c, 10, 78, 85
12, 23130, Note_on_c, 10, 78, 0
12, 23160, Note_on_c, 10, 79, 85
12, 23190, Note_on_c, 10, 79, 0
12, 23220, Note_on_c, 10, 81, 85
12, 23250, Note_on_c, 10, 81, 0
12, 23280, Note_on_c, 10, 79, 85
12, 23340, Note_on_c, 10, 79, 0
12, 23340, Note_on_c, 10, 81, 85
12, 23370, Note_on_c, 10, 81, 0
12, 23370, Note_on_c, 10, 83, 85
12, 23400, Note_on_c, 10, 83, 0
12, 23400, Note_on_c, 10, 81, 85
12, 23445, Note_on_c, 10, 81, 0
12, 23460, Note_on_c, 10, 79, 85
12, 23490, Note_on_c, 10, 79, 0
12, 23520, Note_on_c, 10, 79, 85
12, 23580, Note_on_c, 10, 79, 0
12, 23580, Note_on_c, 10, 78, 85
12, 23625, Note_on_c, 10, 78, 0
12, 23640, Note_on_c, 10, 74, 85
12, 23670, Note_on_c, 10, 74, 0
12, 23700, Note_on_c, 10, 78, 85
12, 23730, Note_on_c, 10, 78, 0
12, 23760, Note_on_c, 10, 78, 85
12, 23820, Note_on_c, 10, 78, 0
12, 23820, Note_on_c, 10, 76, 85
12, 23865, Note_on_c, 10, 76, 0
12, 23880, Note_on_c, 10, 74, 85
12, 23910, Note_on_c, 10, 74, 0
12, 23940, Note_on_c, 10, 73, 85
12, 23970, Note_on_c, 10, 73, 0
12, 24000, Note_on_c, 10, 74, 85
12, 24045, Note_on_c, 10, 74, 0
12, 24060, Note_on_c, 10, 69, 85
12, 24105, Note_on_c, 10, 69, 0
12, 24120, Note_on_c, 10, 71, 85
12, 24165, Note_on_c, 10, 71, 0
12, 24180, Note_on_c, 10, 73, 85
12, 24225, Note_on_c, 10, 73, 0
12, 24240, Note_on_c, 10, 74, 85
12, 24270, Note_on_c, 10, 74, 0
12, 24300, Note_on_c, 10, 74, 85
12, 24330, Note_on_c, 10, 74, 0
12, 24360, Note_on_c, 10, 76, 85
12, 24375, Note_on_c, 10, 76, 0
12, 24375, Note_on_c, 10, 78, 85
12, 24390, Note_on_c, 10, 78, 0
12, 24390, Note_on_c, 10, 76, 85
12, 24405, Note_on_c, 10, 76, 0
12, 24405, Note_on_c, 10, 78, 85
12, 24420, Note_on_c, 10, 78, 0
12, 24420, Note_on_c, 10, 74, 85
12, 24450, Note_on_c, 10, 74, 0
12, 24450, Note_on_c, 10, 76, 85
12, 24480, Note_on_c, 10, 76, 0
12, 24480, Note_on_c, 10, 78, 85
12, 24540, Note_on_c, 10, 78, 0
12, 24540, Note_on_c, 10, 73, 85
12, 24585, Note_on_c, 10, 73, 0
12, 24600, Note_on_c, 10, 74, 85
12, 24645, Note_on_c, 10, 74, 0
12, 24660, Note_on_c, 10, 76, 85
12, 24705, Note_on_c, 10, 76, 0
12, 24720, Note_on_c, 10, 78, 85
12, 24765, Note_on_c, 10, 78, 0
12, 24780, Note_on_c, 10, 78, 85
12, 24825, Note_on_c, 10, 78, 0
12, 24840, Note_on_c, 10, 79, 85
12, 24855, Note_on_c, 10, 79, 0
12, 24855, Note_on_c, 10, 81, 85
12, 24870, Note_on_c, 10, 81, 0
12, 24870, Note_on_c, 10, 79, 85
12, 24885, Note_on_c, 10, 79, 0
12, 24885, Note_on_c, 10, 81, 85
12, 24900, Note_on_c, 10, 81, 0
12, 24900, Note_on_c, 10, 78, 85
12, 24930, Note_on_c, 10, 78, 0
12, 24930, Note_on_c, 10, 79, 85
12, 24960, Note_on_c, 10, 79, 0
12, 24960, Note_on_c, 10, 81, 85
12, 25005, Note_on_c, 10, 81, 0
12, 25020, Note_on_c, 10, 81, 85
12, 25065, Note_on_c, 10, 81, 0
12, 25080, Note_on_c, 10, 82, 85
12, 25095, Note_on_c, 10, 82, 0
12, 25095, Note_on_c, 10, 83, 85
12, 25110, Note_on_c, 10, 83, 0
12, 25110, Note_on_c, 10, 82, 85
12, 25125, Note_on_c, 10, 82, 0
12, 25125, Note_on_c, 10, 83, 85
12, 25140, Note_on_c, 10, 83, 0
12, 25140, Note_on_c, 10, 80, 85
12, 25170, Note_on_c, 10, 80, 0
12, 25170, Note_on_c, 10, 82, 85
12, 25200, Note_on_c, 10, 82, 0
12, 25200, Note_on_c, 10, 83, 85
12, 25320, Note_on_c, 10, 83, 0
12, 25440, Note_on_c, 10, 67, 55
12, 25920, Note_on_c, 10, 67, 0
12, 25920, Note_on_c, 10, 66, 55
12, 25980, Note_on_c, 10, 66, 0
12, 26040, Note_on_c, 10, 69, 55
12, 26100, Note_on_c, 10, 69, 0
12, 26160, Note_on_c, 10, 66, 55
12, 26220, Note_on_c, 10, 66, 0
12, 26410, Note_on_c, 10, 79, 85
12, 26410, Note_on_c, 10, 71, 85
12, 26410, Note_on_c, 10, 62, 85
12, 26530, Note_on_c, 10, 62, 0
12, 26530, Note_on_c, 10, 71, 0
12, 26530, Note_on_c, 10, 79, 0
12, 26590, Note_on_c, 10, 74, 85
12, 26620, Note_on_c, 10, 74, 0
12, 26650, Note_on_c, 10, 79, 85
12, 26770, Note_on_c, 10, 79, 0
12, 26830, Note_on_c, 10, 74, 85
12, 26860, Note_on_c, 10, 74, 0
12, 26890, Note_on_c, 10, 79, 85
12, 26920, Note_on_c, 10, 79, 0
12, 26950, Note_on_c, 10, 74, 85
12, 26980, Note_on_c, 10, 74, 0
12, 27010, Note_on_c, 10, 79, 85
12, 27040, Note_on_c, 10, 79, 0
12, 27070, Note_on_c, 10, 83, 85
12, 27100, Note_on_c, 10, 83, 0
12, 27130, Note_on_c, 10, 86, 85
12, 27250, Note_on_c, 10, 86, 0
12, 27370, Note_on_c, 10, 84, 85
12, 27490, Note_on_c, 10, 84, 0
12, 27550, Note_on_c, 10, 81, 85
12, 27580, Note_on_c, 10, 81, 0
12, 27610, Note_on_c, 10, 84, 85
12, 27730, Note_on_c, 10, 84, 0
12, 27790, Note_on_c, 10, 81, 85
12, 27820, Note_on_c, 10, 81, 0
12, 27850, Note_on_c, 10, 84, 85
12, 27880, Note_on_c, 10, 84, 0
12, 27910, Note_on_c, 10, 81, 85
12, 27940, Note_on_c, 10, 81, 0
12, 27970, Note_on_c, 10, 78, 85
12, 28000, Note_on_c, 10, 78, 0
12, 28030, Note_on_c, 10, 81, 85
12, 28060, Note_on_c, 10, 81, 0
12, 28090, Note_on_c, 10, 74, 85
12, 28210, Note_on_c, 10, 74, 0
12, 28320, Note_on_c, 10, 59, 85
12, 28320, Note_on_c, 10, 62, 85
12, 28340, Note_on_c, 10, 62, 0
12, 28340, Note_on_c, 10, 59, 0
12, 28350, Note_on_c, 10, 59, 85
12, 28350, Note_on_c, 10, 62, 85
12, 28370, Note_on_c, 10, 62, 0
12, 28370, Note_on_c, 10, 59, 0
12, 28380, Note_on_c, 10, 59, 85
12, 28380, Note_on_c, 10, 62, 85
12, 28400, Note_on_c, 10, 62, 0
12, 28400, Note_on_c, 10, 59, 0
12, 28410, Note_on_c, 10, 59, 85
12, 28410, Note_on_c, 10, 62, 85
12, 28430, Note_on_c, 10, 62, 0
12, 28430, Note_on_c, 10, 59, 0
12, 28440, Note_on_c, 10, 59, 85
12, 28440, Note_on_c, 10, 62, 85
12, 28460, Note_on_c, 10, 62, 0
12, 28460, Note_on_c, 10, 59, 0
12, 28470, Note_on_c, 10, 59, 85
12, 28470, Note_on_c, 10, 62, 85
12, 28490, Note_on_c, 10, 62, 0
12, 28490, Note_on_c, 10, 59, 0
12, 28500, Note_on_c, 10, 59, 85
12, 28500, Note_on_c, 10, 62, 85
12, 28520, Note_on_c, 10, 62, 0
12, 28520, Note_on_c, 10, 59, 0
12, 28530, Note_on_c, 10, 59, 85
12, 28530, Note_on_c, 10, 62, 85
12, 28550, Note_on_c, 10, 62, 0
12, 28550, Note_on_c, 10, 59, 0
12, 28560, Note_on_c, 10, 59, 85
12, 28560, Note_on_c, 10, 62, 85
12, 28580, Note_on_c, 10, 62, 0
12, 28580, Note_on_c, 10, 59, 0
12, 28590, Note_on_c, 10, 59, 85
12, 28590, Note_on_c, 10, 62, 85
12, 28610, Note_on_c, 10, 62, 0
12, 28610, Note_on_c, 10, 59, 0
12, 28620, Note_on_c, 10, 59, 85
12, 28620, Note_on_c, 10, 62, 85
12, 28640, Note_on_c, 10, 62, 0
12, 28640, Note_on_c, 10, 59, 0
12, 28650, Note_on_c, 10, 59, 85
12, 28650, Note_on_c, 10, 62, 85
12, 28670, Note_on_c, 10, 62, 0
12, 28670, Note_on_c, 10, 59, 0
12, 28680, Note_on_c, 10, 59, 85
12, 28680, Note_on_c, 10, 62, 85
12, 28700, Note_on_c, 10, 62, 0
12, 28700, Note_on_c, 10, 59, 0
12, 28710, Note_on_c, 10, 59, 85
12, 28710, Note_on_c, 10, 62, 85
12, 28730, Note_on_c, 10, 62, 0
12, 28730, Note_on_c, 10, 59, 0
12, 28740, Note_on_c, 10, 59, 85
12, 28740, Note_on_c, 10, 62, 85
12, 28760, Note_on_c, 10, 62, 0
12, 28760, Note_on_c, 10, 59, 0
12, 28770, Note_on_c, 10, 59, 85
12, 28770, Note_on_c, 10, 62, 85
12, 28790, Note_on_c, 10, 62, 0
12, 28790, Note_on_c, 10, 59, 0
12, 28800, Note_on_c, 10, 60, 85
12, 28800, Note_on_c, 10, 62, 85
12, 28820, Note_on_c, 10, 62, 0
12, 28820, Note_on_c, 10, 60, 0
12, 28830, Note_on_c, 10, 60, 85
12, 28830, Note_on_c, 10, 62, 85
12, 28850, Note_on_c, 10, 62, 0
12, 28850, Note_on_c, 10, 60, 0
12, 28860, Note_on_c, 10, 60, 85
12, 28860, Note_on_c, 10, 62, 85
12, 28880, Note_on_c, 10, 62, 0
12, 28880, Note_on_c, 10, 60, 0
12, 28890, Note_on_c, 10, 60, 85
12, 28890, Note_on_c, 10, 62, 85
12, 28910, Note_on_c, 10, 62, 0
12, 28910, Note_on_c, 10, 60, 0
12, 28920, Note_on_c, 10, 60, 85
12, 28920, Note_on_c, 10, 62, 85
12, 28940, Note_on_c, 10, 62, 0
12, 28940, Note_on_c, 10, 60, 0
12, 28950, Note_on_c, 10, 60, 85
12, 28950, Note_on_c, 10, 62, 85
12, 28970, Note_on_c, 10, 62, 0
12, 28970, Note_on_c, 10, 60, 0
12, 28980, Note_on_c, 10, 60, 85
12, 28980, Note_on_c, 10, 62, 85
12, 29000, Note_on_c, 10, 62, 0
12, 29000, Note_on_c, 10, 60, 0
12, 29010, Note_on_c, 10, 60, 85
12, 29010, Note_on_c, 10, 62, 85
12, 29030, Note_on_c, 10, 62, 0
12, 29030, Note_on_c, 10, 60, 0
12, 29040, Note_on_c, 10, 60, 85
12, 29040, Note_on_c, 10, 62, 85
12, 29060, Note_on_c, 10, 62, 0
12, 29060, Note_on_c, 10, 60, 0
12, 29070, Note_on_c, 10, 60, 85
12, 29070, Note_on_c, 10, 62, 85
12, 29090, Note_on_c, 10, 62, 0
12, 29090, Note_on_c, 10, 60, 0
12, 29100, Note_on_c, 10, 60, 85
12, 29100, Note_on_c, 10, 62, 85
12, 29120, Note_on_c, 10, 62, 0
12, 29120, Note_on_c, 10, 60, 0
12, 29130, Note_on_c, 10, 60, 85
12, 29130, Note_on_c, 10, 62, 85
12, 29150, Note_on_c, 10, 62, 0
12, 29150, Note_on_c, 10, 60, 0
12, 29160, Note_on_c, 10, 60, 85
12, 29160, Note_on_c, 10, 62, 85
12, 29180, Note_on_c, 10, 62, 0
12, 29180, Note_on_c, 10, 60, 0
12, 29190, Note_on_c, 10, 60, 85
12, 29190, Note_on_c, 10, 62, 85
12, 29210, Note_on_c, 10, 62, 0
12, 29210, Note_on_c, 10, 60, 0
12, 29220, Note_on_c, 10, 60, 85
12, 29220, Note_on_c, 10, 62, 85
12, 29240, Note_on_c, 10, 62, 0
12, 29240, Note_on_c, 10, 60, 0
12, 29250, Note_on_c, 10, 60, 85
12, 29250, Note_on_c, 10, 62, 85
12, 29270, Note_on_c, 10, 62, 0
12, 29270, Note_on_c, 10, 60, 0
12, 29280, Note_on_c, 10, 59, 85
12, 29280, Note_on_c, 10, 62, 85
12, 29300, Note_on_c, 10, 62, 0
12, 29300, Note_on_c, 10, 59, 0
12, 29310, Note_on_c, 10, 59, 85
12, 29310, Note_on_c, 10, 62, 85
12, 29330, Note_on_c, 10, 62, 0
12, 29330, Note_on_c, 10, 59, 0
12, 29340, Note_on_c, 10, 59, 85
12, 29340, Note_on_c, 10, 62, 85
12, 29360, Note_on_c, 10, 62, 0
12, 29360, Note_on_c, 10, 59, 0
12, 29370, Note_on_c, 10, 59, 85
12, 29370, Note_on_c, 10, 62, 85
12, 29390, Note_on_c, 10, 62, 0
12, 29390, Note_on_c, 10, 59, 0
12, 29400, Note_on_c, 10, 59, 85
12, 29400, Note_on_c, 10, 62, 85
12, 29420, Note_on_c, 10, 62, 0
12, 29420, Note_on_c, 10, 59, 0
12, 29430, Note_on_c, 10, 59, 85
12, 29430, Note_on_c, 10, 62, 85
12, 29450, Note_on_c, 10, 62, 0
12, 29450, Note_on_c, 10, 59, 0
12, 29460, Note_on_c, 10, 59, 85
12, 29460, Note_on_c, 10, 62, 85
12, 29480, Note_on_c, 10, 62, 0
12, 29480, Note_on_c, 10, 59, 0
12, 29490, Note_on_c, 10, 59, 85
12, 29490, Note_on_c, 10, 62, 85
12, 29510, Note_on_c, 10, 62, 0
12, 29510, Note_on_c, 10, 59, 0
12, 29520, Note_on_c, 10, 59, 85
12, 29520, Note_on_c, 10, 62, 85
12, 29540, Note_on_c, 10, 62, 0
12, 29540, Note_on_c, 10, 59, 0
12, 29550, Note_on_c, 10, 59, 85
12, 29550, Note_on_c, 10, 62, 85
12, 29570, Note_on_c, 10, 62, 0
12, 29570, Note_on_c, 10, 59, 0
12, 29580, Note_on_c, 10, 59, 85
12, 29580, Note_on_c, 10, 62, 85
12, 29600, Note_on_c, 10, 62, 0
12, 29600, Note_on_c, 10, 59, 0
12, 29610, Note_on_c, 10, 59, 85
12, 29610, Note_on_c, 10, 62, 85
12, 29630, Note_on_c, 10, 62, 0
12, 29630, Note_on_c, 10, 59, 0
12, 29640, Note_on_c, 10, 59, 85
12, 29640, Note_on_c, 10, 62, 85
12, 29660, Note_on_c, 10, 62, 0
12, 29660, Note_on_c, 10, 59, 0
12, 29670, Note_on_c, 10, 59, 85
12, 29670, Note_on_c, 10, 62, 85
12, 29690, Note_on_c, 10, 62, 0
12, 29690, Note_on_c, 10, 59, 0
12, 29700, Note_on_c, 10, 59, 85
12, 29700, Note_on_c, 10, 62, 85
12, 29720, Note_on_c, 10, 62, 0
12, 29720, Note_on_c, 10, 59, 0
12, 29730, Note_on_c, 10, 59, 85
12, 29730, Note_on_c, 10, 62, 85
12, 29750, Note_on_c, 10, 62, 0
12, 29750, Note_on_c, 10, 59, 0
12, 29760, Note_on_c, 10, 60, 85
12, 29760, Note_on_c, 10, 62, 85
12, 29780, Note_on_c, 10, 62, 0
12, 29780, Note_on_c, 10, 60, 0
12, 29790, Note_on_c, 10, 60, 85
12, 29790, Note_on_c, 10, 62, 85
12, 29810, Note_on_c, 10, 62, 0
12, 29810, Note_on_c, 10, 60, 0
12, 29820, Note_on_c, 10, 60, 85
12, 29820, Note_on_c, 10, 62, 85
12, 29840, Note_on_c, 10, 62, 0
12, 29840, Note_on_c, 10, 60, 0
12, 29850, Note_on_c, 10, 60, 85
12, 29850, Note_on_c, 10, 62, 85
12, 29870, Note_on_c, 10, 62, 0
12, 29870, Note_on_c, 10, 60, 0
12, 29880, Note_on_c, 10, 60, 85
12, 29880, Note_on_c, 10, 62, 85
12, 29900, Note_on_c, 10, 62, 0
12, 29900, Note_on_c, 10, 60, 0
12, 29910, Note_on_c, 10, 60, 85
12, 29910, Note_on_c, 10, 62, 85
12, 29930, Note_on_c, 10, 62, 0
12, 29930, Note_on_c, 10, 60, 0
12, 29940, Note_on_c, 10, 60, 85
12, 29940, Note_on_c, 10, 62, 85
12, 29960, Note_on_c, 10, 62, 0
12, 29960, Note_on_c, 10, 60, 0
12, 29970, Note_on_c, 10, 60, 85
12, 29970, Note_on_c, 10, 62, 85
12, 29990, Note_on_c, 10, 62, 0
12, 29990, Note_on_c, 10, 60, 0
12, 30000, Note_on_c, 10, 60, 85
12, 30000, Note_on_c, 10, 62, 85
12, 30020, Note_on_c, 10, 62, 0
12, 30020, Note_on_c, 10, 60, 0
12, 30030, Note_on_c, 10, 60, 85
12, 30030, Note_on_c, 10, 62, 85
12, 30050, Note_on_c, 10, 62, 0
12, 30050, Note_on_c, 10, 60, 0
12, 30060, Note_on_c, 10, 60, 85
12, 30060, Note_on_c, 10, 62, 85
12, 30080, Note_on_c, 10, 62, 0
12, 30080, Note_on_c, 10, 60, 0
12, 30090, Note_on_c, 10, 60, 85
12, 30090, Note_on_c, 10, 62, 85
12, 30110, Note_on_c, 10, 62, 0
12, 30110, Note_on_c, 10, 60, 0
12, 30120, Note_on_c, 10, 60, 85
12, 30120, Note_on_c, 10, 62, 85
12, 30140, Note_on_c, 10, 62, 0
12, 30140, Note_on_c, 10, 60, 0
12, 30150, Note_on_c, 10, 60, 85
12, 30150, Note_on_c, 10, 62, 85
12, 30170, Note_on_c, 10, 62, 0
12, 30170, Note_on_c, 10, 60, 0
12, 30180, Note_on_c, 10, 60, 85
12, 30180, Note_on_c, 10, 62, 85
12, 30200, Note_on_c, 10, 62, 0
12, 30200, Note_on_c, 10, 60, 0
12, 30210, Note_on_c, 10, 60, 85
12, 30210, Note_on_c, 10, 62, 85
12, 30230, Note_on_c, 10, 62, 0
12, 30230, Note_on_c, 10, 60, 0
12, 30240, Note_on_c, 10, 59, 85
12, 30240, Note_on_c, 10, 62, 85
12, 30360, Note_on_c, 10, 62, 0
12, 30360, Note_on_c, 10, 59, 0
12, 30360, Note_on_c, 10, 72, 85
12, 30405, Note_on_c, 10, 72, 0
12, 30420, Note_on_c, 10, 72, 85
12, 30465, Note_on_c, 10, 72, 0
12, 30480, Note_on_c, 10, 74, 85
12, 30525, Note_on_c, 10, 74, 0
12, 30540, Note_on_c, 10, 74, 85
12, 30585, Note_on_c, 10, 74, 0
12, 30600, Note_on_c, 10, 72, 85
12, 30660, Note_on_c, 10, 72, 0
12, 30660, Note_on_c, 10, 71, 85
12, 30690, Note_on_c, 10, 71, 0
12, 30690, Note_on_c, 10, 69, 85
12, 30720, Note_on_c, 10, 69, 0
12, 30720, Note_on_c, 10, 67, 85
12, 30765, Note_on_c, 10, 67, 0
12, 30780, Note_on_c, 10, 67, 85
12, 30825, Note_on_c, 10, 67, 0
12, 30840, Note_on_c, 10, 66, 85
12, 30885, Note_on_c, 10, 66, 0
12, 30900, Note_on_c, 10, 66, 85
12, 30945, Note_on_c, 10, 66, 0
12, 30960, Note_on_c, 10, 67, 85
12, 31080, Note_on_c, 10, 67, 0
12, 31200, Note_on_c, 10, 71, 47
12, 31440, Note_on_c, 10, 71, 0
12, 31440, Note_on_c, 10, 72, 47
12, 31680, Note_on_c, 10, 72, 0
12, 31680, Note_on_c, 10, 71, 47
12, 31710, Note_on_c, 10, 71, 0
12, 31710, Note_on_c, 10, 69, 47
12, 31790, Note_on_c, 10, 69, 0
12, 31800, Note_on_c, 10, 69, 47
12, 31920, Note_on_c, 10, 69, 0
12, 31920, Note_on_c, 10, 69, 47
12, 31950, Note_on_c, 10, 69, 0
12, 31950, Note_on_c, 10, 67, 47
12, 32030, Note_on_c, 10, 67, 0
12, 32040, Note_on_c, 10, 67, 47
12, 32160, Note_on_c, 10, 67, 0
12, 32160, Note_on_c, 10, 64, 47
12, 32250, Note_on_c, 10, 64, 0
12, 32280, Note_on_c, 10, 64, 47
12, 32370, Note_on_c, 10, 64, 0
12, 32400, Note_on_c, 10, 60, 47
12, 32490, Note_on_c, 10, 60, 0
12, 32520, Note_on_c, 10, 57, 47
12, 32610, Note_on_c, 10, 57, 0
12, 32640, Note_on_c, 10, 62, 47
12, 32700, Note_on_c, 10, 62, 0
12, 32760, Note_on_c, 10, 66, 47
12, 32820, Note_on_c, 10, 66, 0
12, 32880, Note_on_c, 10, 67, 47
12, 32940, Note_on_c, 10, 67, 0
12, 33120, Note_on_c, 10, 71, 47
12, 33360, Note_on_c, 10, 71, 0
12, 33360, Note_on_c, 10, 72, 47
12, 33600, Note_on_c, 10, 72, 0
12, 33600, Note_on_c, 10, 71, 47
12, 33660, Note_on_c, 10, 71, 0
12, 33660, Note_on_c, 10, 69, 47
12, 33690, Note_on_c, 10, 69, 0
12, 33720, Note_on_c, 10, 69, 47
12, 33750, Note_on_c, 10, 69, 0
12, 33780, Note_on_c, 10, 69, 47
12, 33810, Note_on_c, 10, 69, 0
12, 33840, Note_on_c, 10, 69, 47
12, 33900, Note_on_c, 10, 69, 0
12, 33900, Note_on_c, 10, 67, 47
12, 33930, Note_on_c, 10, 67, 0
12, 33960, Note_on_c, 10, 67, 47
12, 33990, Note_on_c, 10, 67, 0
12, 34020, Note_on_c, 10, 67, 47
12, 34050, Note_on_c, 10, 67, 0
12, 34080, Note_on_c, 10, 64, 47
12, 34170, Note_on_c, 10, 64, 0
12, 34200, Note_on_c, 10, 64, 47
12, 34245, Note_on_c, 10, 64, 0
12, 34260, Note_on_c, 10, 64, 47
12, 34305, Note_on_c, 10, 64, 0
12, 34320, Note_on_c, 10, 60, 47
12, 34410, Note_on_c, 10, 60, 0
12, 34440, Note_on_c, 10, 60, 47
12, 34485, Note_on_c, 10, 60, 0
12, 34500, Note_on_c, 10, 60, 47
12, 34545, Note_on_c, 10, 60, 0
12, 34560, Note_on_c, 10, 59, 85
12, 34860, Note_on_c, 10, 59, 0
12, 34860, Note_on_c, 10, 59, 61
12, 34875, Note_on_c, 10, 59, 0
12, 34875, Note_on_c, 10, 60, 61
12, 34890, Note_on_c, 10, 60, 0
12, 34890, Note_on_c, 10, 57, 61
12, 34905, Note_on_c, 10, 57, 0
12, 34905, Note_on_c, 10, 59, 61
12, 34920, Note_on_c, 10, 59, 0
12, 34920, Note_on_c, 10, 60, 61
12, 34980, Note_on_c, 10, 60, 0
12, 34980, Note_on_c, 10, 57, 61
12, 35040, Note_on_c, 10, 57, 0
12, 35040, Note_on_c, 10, 67, 85
12, 35340, Note_on_c, 10, 67, 0
12, 35340, Note_on_c, 10, 67, 61
12, 35355, Note_on_c, 10, 67, 0
12, 35355, Note_on_c, 10, 69, 61
12, 35370, Note_on_c, 10, 69, 0
12, 35370, Note_on_c, 10, 66, 61
12, 35385, Note_on_c, 10, 66, 0
12, 35385, Note_on_c, 10, 67, 61
12, 35400, Note_on_c, 10, 67, 0
12, 35400, Note_on_c, 10, 69, 61
12, 35460, Note_on_c, 10, 69, 0
12, 35460, Note_on_c, 10, 66, 61
12, 35520, Note_on_c, 10, 66, 0
12, 35520, Note_on_c, 10, 71, 53
12, 35540, Note_on_c, 10, 71, 0
12, 35550, Note_on_c, 10, 71, 53
12, 35570, Note_on_c, 10, 71, 0
12, 35580, Note_on_c, 10, 71, 55
12, 35600, Note_on_c, 10, 71, 0
12, 35610, Note_on_c, 10, 71, 55
12, 35630, Note_on_c, 10, 71, 0
12, 35640, Note_on_c, 10, 71, 55
12, 35660, Note_on_c, 10, 71, 0
12, 35670, Note_on_c, 10, 71, 56
12, 35690, Note_on_c, 10, 71, 0
12, 35700, Note_on_c, 10, 71, 56
12, 35720, Note_on_c, 10, 71, 0
12, 35730, Note_on_c, 10, 71, 58
12, 35750, Note_on_c, 10, 71, 0
12, 35760, Note_on_c, 10, 72, 58
12, 35780, Note_on_c, 10, 72, 0
12, 35790, Note_on_c, 10, 72, 59
12, 35810, Note_on_c, 10, 72, 0
12, 35820, Note_on_c, 10, 72, 59
12, 35840, Note_on_c, 10, 72, 0
12, 35850, Note_on_c, 10, 72, 61
12, 35870, Note_on_c, 10, 72, 0
12, 35880, Note_on_c, 10, 74, 61
12, 35900, Note_on_c, 10, 74, 0
12, 35910, Note_on_c, 10, 74, 62
12, 35930, Note_on_c, 10, 74, 0
12, 35940, Note_on_c, 10, 74, 62
12, 35960, Note_on_c, 10, 74, 0
12, 35970, Note_on_c, 10, 74, 64
12, 35990, Note_on_c, 10, 74, 0
12, 36000, Note_on_c, 10, 71, 64
12, 36020, Note_on_c, 10, 71, 0
12, 36030, Note_on_c, 10, 71, 65
12, 36050, Note_on_c, 10, 71, 0
12, 36060, Note_on_c, 10, 71, 65
12, 36080, Note_on_c, 10, 71, 0
12, 36090, Note_on_c, 10, 71, 67
12, 36110, Note_on_c, 10, 71, 0
12, 36120, Note_on_c, 10, 74, 67
12, 36140, Note_on_c, 10, 74, 0
12, 36150, Note_on_c, 10, 74, 68
12, 36170, Note_on_c, 10, 74, 0
12, 36180, Note_on_c, 10, 74, 68
12, 36200, Note_on_c, 10, 74, 0
12, 36210, Note_on_c, 10, 74, 70
12, 36230, Note_on_c, 10, 74, 0
12, 36240, Note_on_c, 10, 74, 70
12, 36260, Note_on_c, 10, 74, 0
12, 36270, Note_on_c, 10, 74, 71
12, 36290, Note_on_c, 10, 74, 0
12, 36300, Note_on_c, 10, 74, 71
12, 36320, Note_on_c, 10, 74, 0
12, 36330, Note_on_c, 10, 74, 73
12, 36350, Note_on_c, 10, 74, 0
12, 36360, Note_on_c, 10, 79, 73
12, 36380, Note_on_c, 10, 79, 0
12, 36390, Note_on_c, 10, 79, 73
12, 36410, Note_on_c, 10, 79, 0
12, 36420, Note_on_c, 10, 79, 74
12, 36440, Note_on_c, 10, 79, 0
12, 36450, Note_on_c, 10, 79, 74
12, 36470, Note_on_c, 10, 79, 0
12, 36480, Note_on_c, 10, 78, 85
12, 36500, Note_on_c, 10, 78, 0
12, 36510, Note_on_c, 10, 78, 85
12, 36530, Note_on_c, 10, 78, 0
12, 36540, Note_on_c, 10, 78, 85
12, 36560, Note_on_c, 10, 78, 0
12, 36570, Note_on_c, 10, 78, 85
12, 36590, Note_on_c, 10, 78, 0
12, 36600, Note_on_c, 10, 78, 85
12, 36620, Note_on_c, 10, 78, 0
12, 36630, Note_on_c, 10, 78, 85
12, 36650, Note_on_c, 10, 78, 0
12, 36660, Note_on_c, 10, 78, 85
12, 36680, Note_on_c, 10, 78, 0
12, 36690, Note_on_c, 10, 78, 85
12, 36710, Note_on_c, 10, 78, 0
12, 36720, Note_on_c, 10, 79, 85
12, 36740, Note_on_c, 10, 79, 0
12, 36750, Note_on_c, 10, 79, 85
12, 36770, Note_on_c, 10, 79, 0
12, 36780, Note_on_c, 10, 79, 85
12, 36800, Note_on_c, 10, 79, 0
12, 36810, Note_on_c, 10, 79, 85
12, 36830, Note_on_c, 10, 79, 0
12, 36840, Note_on_c, 10, 79, 85
12, 36860, Note_on_c, 10, 79, 0
12, 36870, Note_on_c, 10, 79, 85
12, 36890, Note_on_c, 10, 79, 0
12, 36900, Note_on_c, 10, 79, 85
12, 36920, Note_on_c, 10, 79, 0
12, 36930, Note_on_c, 10, 79, 85
12, 36950, Note_on_c, 10, 79, 0
12, 36960, Note_on_c, 10, 78, 85
12, 36980, Note_on_c, 10, 78, 0
12, 36990, Note_on_c, 10, 78, 85
12, 37010, Note_on_c, 10, 78, 0
12, 37020, Note_on_c, 10, 78, 85
12, 37040, Note_on_c, 10, 78, 0
12, 37050, Note_on_c, 10, 78, 85
12, 37070, Note_on_c, 10, 78, 0
12, 37080, Note_on_c, 10, 78, 85
12, 37100, Note_on_c, 10, 78, 0
12, 37110, Note_on_c, 10, 78, 85
12, 37130, Note_on_c, 10, 78, 0
12, 37140, Note_on_c, 10, 78, 85
12, 37160, Note_on_c, 10, 78, 0
12, 37170, Note_on_c, 10, 78, 85
12, 37190, Note_on_c, 10, 78, 0
12, 37200, Note_on_c, 10, 79, 85
12, 37220, Note_on_c, 10, 79, 0
12, 37230, Note_on_c, 10, 79, 85
12, 37250, Note_on_c, 10, 79, 0
12, 37260, Note_on_c, 10, 79, 85
12, 37280, Note_on_c, 10, 79, 0
12, 37290, Note_on_c, 10, 79, 85
12, 37310, Note_on_c, 10, 79, 0
12, 37320, Note_on_c, 10, 79, 85
12, 37340, Note_on_c, 10, 79, 0
12, 37350, Note_on_c, 10, 79, 85
12, 37370, Note_on_c, 10, 79, 0
12, 37380, Note_on_c, 10, 79, 85
12, 37400, Note_on_c, 10, 79, 0
12, 37410, Note_on_c, 10, 79, 85
12, 37430, Note_on_c, 10, 79, 0
12, 37440, Note_on_c, 10, 74, 85
12, 37470, Note_on_c, 10, 74, 0
12, 37500, Note_on_c, 10, 74, 85
12, 37590, Note_on_c, 10, 74, 0
12, 37620, Note_on_c, 10, 74, 85
12, 37710, Note_on_c, 10, 74, 0
12, 37740, Note_on_c, 10, 74, 85
12, 37830, Note_on_c, 10, 74, 0
12, 37860, Note_on_c, 10, 74, 85
12, 37950, Note_on_c, 10, 74, 0
12, 37980, Note_on_c, 10, 74, 85
12, 38070, Note_on_c, 10, 74, 0
12, 38100, Note_on_c, 10, 74, 85
12, 38190, Note_on_c, 10, 74, 0
12, 38220, Note_on_c, 10, 74, 85
12, 38310, Note_on_c, 10, 74, 0
12, 38340, Note_on_c, 10, 74, 85
12, 38400, Note_on_c, 10, 74, 0
12, 38400, Note_on_c, 10, 73, 85
12, 38420, Note_on_c, 10, 73, 0
12, 38430, Note_on_c, 10, 76, 85
12, 38430, Note_on_c, 10, 73, 85
12, 38450, Note_on_c, 10, 73, 0
12, 38450, Note_on_c, 10, 76, 0
12, 38460, Note_on_c, 10, 76, 85
12, 38460, Note_on_c, 10, 73, 85
12, 38480, Note_on_c, 10, 73, 0
12, 38480, Note_on_c, 10, 76, 0
12, 38490, Note_on_c, 10, 76, 85
12, 38490, Note_on_c, 10, 73, 85
12, 38510, Note_on_c, 10, 73, 0
12, 38510, Note_on_c, 10, 76, 0
12, 38520, Note_on_c, 10, 78, 85
12, 38520, Note_on_c, 10, 74, 85
12, 38540, Note_on_c, 10, 74, 0
12, 38540, Note_on_c, 10, 78, 0
12, 38550, Note_on_c, 10, 78, 85
12, 38550, Note_on_c, 10, 74, 85
12, 38570, Note_on_c, 10, 74, 0
12, 38570, Note_on_c, 10, 78, 0
12, 38580, Note_on_c, 10, 78, 85
12, 38580, Note_on_c, 10, 74, 85
12, 38600, Note_on_c, 10, 74, 0
12, 38600, Note_on_c, 10, 78, 0
12, 38610, Note_on_c, 10, 78, 85
12, 38610, Note_on_c, 10, 74, 85
12, 38630, Note_on_c, 10, 74, 0
12, 38630, Note_on_c, 10, 78, 0
12, 38640, Note_on_c, 10, 73, 85
12, 38640, Note_on_c, 10, 76, 85
12, 38660, Note_on_c, 10, 76, 0
12, 38660, Note_on_c, 10, 73, 0
12, 38670, Note_on_c, 10, 73, 85
12, 38670, Note_on_c, 10, 76, 85
12, 38690, Note_on_c, 10, 76, 0
12, 38690, Note_on_c, 10, 73, 0
12, 38700, Note_on_c, 10, 73, 85
12, 38700, Note_on_c, 10, 76, 85
12, 38720, Note_on_c, 10, 76, 0
12, 38720, Note_on_c, 10, 73, 0
12, 38730, Note_on_c, 10, 73, 85
12, 38730, Note_on_c, 10, 76, 85
12, 38750, Note_on_c, 10, 76, 0
12, 38750, Note_on_c, 10, 73, 0
12, 38760, Note_on_c, 10, 78, 85
12, 38760, Note_on_c, 10, 74, 85
12, 38780, Note_on_c, 10, 74, 0
12, 38780, Note_on_c, 10, 78, 0
12, 38790, Note_on_c, 10, 78, 85
12, 38790, Note_on_c, 10, 74, 85
12, 38810, Note_on_c, 10, 74, 0
12, 38810, Note_on_c, 10, 78, 0
12, 38820, Note_on_c, 10, 78, 85
12, 38820, Note_on_c, 10, 74, 85
12, 38840, Note_on_c, 10, 74, 0
12, 38840, Note_on_c, 10, 78, 0
12, 38850, Note_on_c, 10, 78, 85
12, 38850, Note_on_c, 10, 74, 85
12, 38870, Note_on_c, 10, 74, 0
12, 38870, Note_on_c, 10, 78, 0
12, 38885, Note_on_c, 10, 76, 85
12, 38885, Note_on_c, 10, 73, 85
12, 38930, Note_on_c, 10, 73, 0
12, 38930, Note_on_c, 10, 76, 0
12, 38945, Note_on_c, 10, 69, 85
12, 38990, Note_on_c, 10, 69, 0
12, 39005, Note_on_c, 10, 69, 85
12, 39050, Note_on_c, 10, 69, 0
12, 39065, Note_on_c, 10, 69, 85
12, 39110, Note_on_c, 10, 69, 0
12, 39125, Note_on_c, 10, 69, 85
12, 39245, Note_on_c, 10, 69, 0
12, 39360, Note_on_c, 10, 69, 55
12, 39540, Note_on_c, 10, 69, 0
12, 39540, Note_on_c, 10, 67, 55
12, 39560, Note_on_c, 10, 67, 0
12, 39560, Note_on_c, 10, 66, 55
12, 39580, Note_on_c, 10, 66, 0
12, 39580, Note_on_c, 10, 64, 55
12, 39600, Note_on_c, 10, 64, 0
12, 39600, Note_on_c, 10, 62, 55
12, 39660, Note_on_c, 10, 62, 0
12, 39720, Note_on_c, 10, 71, 55
12, 39780, Note_on_c, 10, 71, 0
12, 39840, Note_on_c, 10, 67, 55
12, 39900, Note_on_c, 10, 67, 0
12, 39960, Note_on_c, 10, 64, 55
12, 40020, Note_on_c, 10, 64, 0
12, 40080, Note_on_c, 10, 69, 55
12, 40140, Note_on_c, 10, 69, 0
12, 40320, Note_on_c, 10, 66, 55
12, 40500, Note_on_c, 10, 66, 0
12, 40500, Note_on_c, 10, 64, 55
12, 40520, Note_on_c, 10, 64, 0
12, 40520, Note_on_c, 10, 62, 55
12, 40540, Note_on_c, 10, 62, 0
12, 40540, Note_on_c, 10, 61, 55
12, 40560, Note_on_c, 10, 61, 0
12, 40560, Note_on_c, 10, 59, 55
12, 40620, Note_on_c, 10, 59, 0
12, 40680, Note_on_c, 10, 67, 55
12, 40740, Note_on_c, 10, 67, 0
12, 40800, Note_on_c, 10, 66, 55
12, 41040, Note_on_c, 10, 66, 0
12, 41040, Note_on_c, 10, 64, 55
12, 41160, Note_on_c, 10, 64, 0
12, 41280, Note_on_c, 10, 69, 55
12, 41460, Note_on_c, 10, 69, 0
12, 41460, Note_on_c, 10, 67, 55
12, 41480, Note_on_c, 10, 67, 0
12, 41480, Note_on_c, 10, 66, 55
12, 41500, Note_on_c, 10, 66, 0
12, 41500, Note_on_c, 10, 64, 55
12, 41520, Note_on_c, 10, 64, 0
12, 41520, Note_on_c, 10, 62, 55
12, 41580, Note_on_c, 10, 62, 0
12, 41640, Note_on_c, 10, 71, 55
12, 41700, Note_on_c, 10, 71, 0
12, 41760, Note_on_c, 10, 67, 55
12, 41820, Note_on_c, 10, 67, 0
12, 41880, Note_on_c, 10, 64, 55
12, 41940, Note_on_c, 10, 64, 0
12, 42000, Note_on_c, 10, 69, 55
12, 42060, Note_on_c, 10, 69, 0
12, 42165, Note_on_c, 10, 67, 55
12, 42210, Note_on_c, 10, 67, 0
12, 42240, Note_on_c, 10, 67, 55
12, 42300, Note_on_c, 10, 67, 0
12, 42300, Note_on_c, 10, 66, 55
12, 42360, Note_on_c, 10, 66, 0
12, 42420, Note_on_c, 10, 79, 55
12, 42450, Note_on_c, 10, 79, 0
12, 42480, Note_on_c, 10, 79, 55
12, 42540, Note_on_c, 10, 79, 0
12, 42540, Note_on_c, 10, 78, 55
12, 42600, Note_on_c, 10, 78, 0
12, 42660, Note_on_c, 10, 67, 55
12, 42705, Note_on_c, 10, 67, 0
12, 42720, Note_on_c, 10, 66, 55
12, 42765, Note_on_c, 10, 66, 0
12, 42780, Note_on_c, 10, 66, 55
12, 42825, Note_on_c, 10, 66, 0
12, 42840, Note_on_c, 10, 67, 55
12, 42885, Note_on_c, 10, 67, 0
12, 42900, Note_on_c, 10, 67, 55
12, 42945, Note_on_c, 10, 67, 0
12, 42960, Note_on_c, 10, 69, 55
12, 43005, Note_on_c, 10, 69, 0
12, 43020, Note_on_c, 10, 69, 55
12, 43065, Note_on_c, 10, 69, 0
12, 43080, Note_on_c, 10, 66, 55
12, 43125, Note_on_c, 10, 66, 0
12, 43140, Note_on_c, 10, 66, 55
12, 43185, Note_on_c, 10, 66, 0
12, 43200, Note_on_c, 10, 64, 55
12, 43245, Note_on_c, 10, 64, 0
12, 43260, Note_on_c, 10, 64, 55
12, 43305, Note_on_c, 10, 64, 0
12, 43320, Note_on_c, 10, 66, 55
12, 43365, Note_on_c, 10, 66, 0
12, 43380, Note_on_c, 10, 66, 55
12, 43425, Note_on_c, 10, 66, 0
12, 43440, Note_on_c, 10, 67, 55
12, 43485, Note_on_c, 10, 67, 0
12, 43500, Note_on_c, 10, 67, 55
12, 43545, Note_on_c, 10, 67, 0
12, 43560, Note_on_c, 10, 64, 55
12, 43605, Note_on_c, 10, 64, 0
12, 43620, Note_on_c, 10, 64, 55
12, 43665, Note_on_c, 10, 64, 0
12, 43680, Note_on_c, 10, 66, 55
12, 43725, Note_on_c, 10, 66, 0
12, 43740, Note_on_c, 10, 66, 55
12, 43785, Note_on_c, 10, 66, 0
12, 43800, Note_on_c, 10, 67, 55
12, 43845, Note_on_c, 10, 67, 0
12, 43860, Note_on_c, 10, 67, 55
12, 43905, Note_on_c, 10, 67, 0
12, 43920, Note_on_c, 10, 69, 55
12, 43965, Note_on_c, 10, 69, 0
12, 43980, Note_on_c, 10, 69, 55
12, 44025, Note_on_c, 10, 69, 0
12, 44040, Note_on_c, 10, 66, 55
12, 44085, Note_on_c, 10, 66, 0
12, 44100, Note_on_c, 10, 66, 55
12, 44145, Note_on_c, 10, 66, 0
12, 44160, Note_on_c, 10, 64, 55
12, 44205, Note_on_c, 10, 64, 0
12, 44220, Note_on_c, 10, 64, 55
12, 44265, Note_on_c, 10, 64, 0
12, 44280, Note_on_c, 10, 66, 55
12, 44325, Note_on_c, 10, 66, 0
12, 44340, Note_on_c, 10, 66, 55
12, 44385, Note_on_c, 10, 66, 0
12, 44400, Note_on_c, 10, 67, 55
12, 44445, Note_on_c, 10, 67, 0
12, 44460, Note_on_c, 10, 67, 55
12, 44505, Note_on_c, 10, 67, 0
12, 44520, Note_on_c, 10, 64, 55
12, 44565, Note_on_c, 10, 64, 0
12, 44580, Note_on_c, 10, 64, 55
12, 44625, Note_on_c, 10, 64, 0
12, 44640, Note_on_c, 10, 66, 55
12, 44760, Note_on_c, 10, 66, 0
12, 44880, Note_on_c, 10, 78, 85
12, 44880, Note_on_c, 10, 71, 85
12, 45120, Note_on_c, 10, 71, 0
12, 45120, Note_on_c, 10, 78, 0
12, 45120, Note_on_c, 10, 76, 85
12, 45240, Note_on_c, 10, 76, 0
12, 45360, Note_on_c, 10, 69, 85
12, 45360, Note_on_c, 10, 76, 85
12, 45600, Note_on_c, 10, 76, 0
12, 45600, Note_on_c, 10, 69, 0
12, 45600, Note_on_c, 10, 74, 85
12, 45645, Note_on_c, 10, 74, 0
12, 45660, Note_on_c, 10, 78, 85
12, 45690, Note_on_c, 10, 78, 0
12, 45720, Note_on_c, 10, 79, 85
12, 45750, Note_on_c, 10, 79, 0
12, 45780, Note_on_c, 10, 81, 85
12, 45810, Note_on_c, 10, 81, 0
12, 45840, Note_on_c, 10, 79, 85
12, 45900, Note_on_c, 10, 79, 0
12, 45900, Note_on_c, 10, 81, 85
12, 45930, Note_on_c, 10, 81, 0
12, 45930, Note_on_c, 10, 83, 85
12, 45960, Note_on_c, 10, 83, 0
12, 45960, Note_on_c, 10, 81, 85
12, 46005, Note_on_c, 10, 81, 0
12, 46020, Note_on_c, 10, 79, 85
12, 46050, Note_on_c, 10, 79, 0
12, 46080, Note_on_c, 10, 79, 85
12, 46140, Note_on_c, 10, 79, 0
12, 46140, Note_on_c, 10, 78, 85
12, 46185, Note_on_c, 10, 78, 0
12, 46200, Note_on_c, 10, 74, 85
12, 46230, Note_on_c, 10, 74, 0
12, 46260, Note_on_c, 10, 78, 85
12, 46290, Note_on_c, 10, 78, 0
12, 46320, Note_on_c, 10, 78, 85
12, 46380, Note_on_c, 10, 78, 0
12, 46380, Note_on_c, 10, 76, 85
12, 46425, Note_on_c, 10, 76, 0
12, 46440, Note_on_c, 10, 74, 85
12, 46470, Note_on_c, 10, 74, 0
12, 46500, Note_on_c, 10, 73, 85
12, 46530, Note_on_c, 10, 73, 0
12, 46560, Note_on_c, 10, 74, 85
12, 46605, Note_on_c, 10, 74, 0
12, 46620, Note_on_c, 10, 66, 53
12, 46665, Note_on_c, 10, 66, 0
12, 46680, Note_on_c, 10, 67, 53
12, 46725, Note_on_c, 10, 67, 0
12, 46740, Note_on_c, 10, 67, 53
12, 46785, Note_on_c, 10, 67, 0
12, 46800, Note_on_c, 10, 69, 53
12, 46845, Note_on_c, 10, 69, 0
12, 46860, Note_on_c, 10, 69, 53
12, 46905, Note_on_c, 10, 69, 0
12, 46920, Note_on_c, 10, 66, 53
12, 46965, Note_on_c, 10, 66, 0
12, 46980, Note_on_c, 10, 66, 53
12, 47025, Note_on_c, 10, 66, 0
12, 47040, Note_on_c, 10, 64, 55
12, 47085, Note_on_c, 10, 64, 0
12, 47100, Note_on_c, 10, 64, 55
12, 47145, Note_on_c, 10, 64, 0
12, 47160, Note_on_c, 10, 66, 55
12, 47205, Note_on_c, 10, 66, 0
12, 47220, Note_on_c, 10, 66, 55
12, 47265, Note_on_c, 10, 66, 0
12, 47280, Note_on_c, 10, 67, 55
12, 47325, Note_on_c, 10, 67, 0
12, 47340, Note_on_c, 10, 67, 55
12, 47385, Note_on_c, 10, 67, 0
12, 47400, Note_on_c, 10, 64, 55
12, 47445, Note_on_c, 10, 64, 0
12, 47460, Note_on_c, 10, 64, 55
12, 47505, Note_on_c, 10, 64, 0
12, 47520, Note_on_c, 10, 66, 55
12, 47565, Note_on_c, 10, 66, 0
12, 47580, Note_on_c, 10, 66, 55
12, 47625, Note_on_c, 10, 66, 0
12, 47640, Note_on_c, 10, 67, 55
12, 47685, Note_on_c, 10, 67, 0
12, 47700, Note_on_c, 10, 67, 55
12, 47745, Note_on_c, 10, 67, 0
12, 47760, Note_on_c, 10, 69, 55
12, 47805, Note_on_c, 10, 69, 0
12, 47820, Note_on_c, 10, 69, 55
12, 47865, Note_on_c, 10, 69, 0
12, 47880, Note_on_c, 10, 66, 55
12, 47925, Note_on_c, 10, 66, 0
12, 47940, Note_on_c, 10, 66, 55
12, 47985, Note_on_c, 10, 66, 0
12, 48000, Note_on_c, 10, 64, 55
12, 48045, Note_on_c, 10, 64, 0
12, 48060, Note_on_c, 10, 64, 55
12, 48105, Note_on_c, 10, 64, 0
12, 48120, Note_on_c, 10, 66, 55
12, 48165, Note_on_c, 10, 66, 0
12, 48180, Note_on_c, 10, 66, 55
12, 48225, Note_on_c, 10, 66, 0
12, 48240, Note_on_c, 10, 67, 55
12, 48285, Note_on_c, 10, 67, 0
12, 48300, Note_on_c, 10, 67, 55
12, 48345, Note_on_c, 10, 67, 0
12, 48360, Note_on_c, 10, 64, 55
12, 48405, Note_on_c, 10, 64, 0
12, 48420, Note_on_c, 10, 64, 55
12, 48465, Note_on_c, 10, 64, 0
12, 48480, Note_on_c, 10, 66, 58
12, 48600, Note_on_c, 10, 66, 0
12, 48720, Note_on_c, 10, 78, 85
12, 48720, Note_on_c, 10, 71, 85
12, 48960, Note_on_c, 10, 71, 0
12, 48960, Note_on_c, 10, 78, 0
12, 48960, Note_on_c, 10, 76, 85
12, 49080, Note_on_c, 10, 76, 0
12, 49200, Note_on_c, 10, 69, 85
12, 49200, Note_on_c, 10, 76, 85
12, 49440, Note_on_c, 10, 76, 0
12, 49440, Note_on_c, 10, 69, 0
12, 49440, Note_on_c, 10, 74, 85
12, 49485, Note_on_c, 10, 74, 0
12, 49500, Note_on_c, 10, 78, 85
12, 49530, Note_on_c, 10, 78, 0
12, 49560, Note_on_c, 10, 79, 85
12, 49590, Note_on_c, 10, 79, 0
12, 49620, Note_on_c, 10, 81, 85
12, 49650, Note_on_c, 10, 81, 0
12, 49680, Note_on_c, 10, 79, 85
12, 49740, Note_on_c, 10, 79, 0
12, 49740, Note_on_c, 10, 81, 85
12, 49770, Note_on_c, 10, 81, 0
12, 49770, Note_on_c, 10, 83, 85
12, 49800, Note_on_c, 10, 83, 0
12, 49800, Note_on_c, 10, 81, 85
12, 49845, Note_on_c, 10, 81, 0
12, 49860, Note_on_c, 10, 79, 85
12, 49890, Note_on_c, 10, 79, 0
12, 49920, Note_on_c, 10, 79, 85
12, 49980, Note_on_c, 10, 79, 0
12, 49980, Note_on_c, 10, 78, 85
12, 50025, Note_on_c, 10, 78, 0
12, 50040, Note_on_c, 10, 74, 85
12, 50070, Note_on_c, 10, 74, 0
12, 50100, Note_on_c, 10, 78, 85
12, 50130, Note_on_c, 10, 78, 0
12, 50160, Note_on_c, 10, 78, 85
12, 50220, Note_on_c, 10, 78, 0
12, 50220, Note_on_c, 10, 76, 85
12, 50265, Note_on_c, 10, 76, 0
12, 50280, Note_on_c, 10, 74, 85
12, 50310, Note_on_c, 10, 74, 0
12, 50340, Note_on_c, 10, 73, 85
12, 50370, Note_on_c, 10, 73, 0
12, 50400, Note_on_c, 10, 74, 85
12, 50445, Note_on_c, 10, 74, 0
12, 50460, Note_on_c, 10, 69, 85
12, 50505, Note_on_c, 10, 69, 0
12, 50520, Note_on_c, 10, 71, 85
12, 50565, Note_on_c, 10, 71, 0
12, 50580, Note_on_c, 10, 73, 85
12, 50625, Note_on_c, 10, 73, 0
12, 50640, Note_on_c, 10, 74, 85
12, 50670, Note_on_c, 10, 74, 0
12, 50700, Note_on_c, 10, 74, 85
12, 50730, Note_on_c, 10, 74, 0
12, 50760, Note_on_c, 10, 76, 85
12, 50775, Note_on_c, 10, 76, 0
12, 50775, Note_on_c, 10, 78, 85
12, 50790, Note_on_c, 10, 78, 0
12, 50790, Note_on_c, 10, 76, 85
12, 50805, Note_on_c, 10, 76, 0
12, 50805, Note_on_c, 10, 78, 85
12, 50820, Note_on_c, 10, 78, 0
12, 50820, Note_on_c, 10, 74, 85
12, 50850, Note_on_c, 10, 74, 0
12, 50850, Note_on_c, 10, 76, 85
12, 50880, Note_on_c, 10, 76, 0
12, 50880, Note_on_c, 10, 78, 85
12, 50940, Note_on_c, 10, 78, 0
12, 50940, Note_on_c, 10, 73, 85
12, 50985, Note_on_c, 10, 73, 0
12, 51000, Note_on_c, 10, 74, 85
12, 51045, Note_on_c, 10, 74, 0
12, 51060, Note_on_c, 10, 76, 85
12, 51105, Note_on_c, 10, 76, 0
12, 51120, Note_on_c, 10, 78, 85
12, 51165, Note_on_c, 10, 78, 0
12, 51180, Note_on_c, 10, 78, 85
12, 51225, Note_on_c, 10, 78, 0
12, 51240, Note_on_c, 10, 79, 85
12, 51255, Note_on_c, 10, 79, 0
12, 51255, Note_on_c, 10, 81, 85
12, 51270, Note_on_c, 10, 81, 0
12, 51270, Note_on_c, 10, 79, 85
12, 51285, Note_on_c, 10, 79, 0
12, 51285, Note_on_c, 10, 81, 85
12, 51300, Note_on_c, 10, 81, 0
12, 51300, Note_on_c, 10, 78, 85
12, 51330, Note_on_c, 10, 78, 0
12, 51330, Note_on_c, 10, 79, 85
12, 51360, Note_on_c, 10, 79, 0
12, 51360, Note_on_c, 10, 81, 85
12, 51405, Note_on_c, 10, 81, 0
12, 51420, Note_on_c, 10, 81, 85
12, 51465, Note_on_c, 10, 81, 0
12, 51480, Note_on_c, 10, 82, 85
12, 51495, Note_on_c, 10, 82, 0
12, 51495, Note_on_c, 10, 83, 85
12, 51510, Note_on_c, 10, 83, 0
12, 51510, Note_on_c, 10, 82, 85
12, 51525, Note_on_c, 10, 82, 0
12, 51525, Note_on_c, 10, 83, 85
12, 51540, Note_on_c, 10, 83, 0
12, 51540, Note_on_c, 10, 80, 85
12, 51570, Note_on_c, 10, 80, 0
12, 51570, Note_on_c, 10, 82, 85
12, 51600, Note_on_c, 10, 82, 0
12, 51600, Note_on_c, 10, 83, 85
12, 51720, Note_on_c, 10, 83, 0
12, 51840, Note_on_c, 10, 67, 55
12, 52320, Note_on_c, 10, 67, 0
12, 52320, Note_on_c, 10, 66, 55
12, 52380, Note_on_c, 10, 66, 0
12, 52440, Note_on_c, 10, 69, 55
12, 52500, Note_on_c, 10, 69, 0
12, 52560, Note_on_c, 10, 66, 55
12, 52620, Note_on_c, 10, 66, 0
12, 52810, Note_on_c, 10, 62, 89
12, 52810, Note_on_c, 10, 74, 89
12, 52930, Note_on_c, 10, 74, 0
12, 52930, Note_on_c, 10, 62, 0
12, 52990, Note_on_c, 10, 69, 89
12, 53035, Note_on_c, 10, 69, 0
12, 53050, Note_on_c, 10, 74, 89
12, 53170, Note_on_c, 10, 74, 0
12, 53230, Note_on_c, 10, 69, 89
12, 53275, Note_on_c, 10, 69, 0
12, 53290, Note_on_c, 10, 74, 89
12, 53335, Note_on_c, 10, 74, 0
12, 53350, Note_on_c, 10, 69, 89
12, 53395, Note_on_c, 10, 69, 0
12, 53410, Note_on_c, 10, 74, 89
12, 53455, Note_on_c, 10, 74, 0
12, 53470, Note_on_c, 10, 78, 89
12, 53515, Note_on_c, 10, 78, 0
12, 53530, Note_on_c, 10, 81, 89
12, 53650, Note_on_c, 10, 81, 0
12, 53770, Note_on_c, 10, 81, 89
12, 53890, Note_on_c, 10, 81, 0
12, 53950, Note_on_c, 10, 78, 89
12, 53995, Note_on_c, 10, 78, 0
12, 54010, Note_on_c, 10, 81, 89
12, 54130, Note_on_c, 10, 81, 0
12, 54190, Note_on_c, 10, 78, 89
12, 54235, Note_on_c, 10, 78, 0
12, 54250, Note_on_c, 10, 81, 89
12, 54295, Note_on_c, 10, 81, 0
12, 54310, Note_on_c, 10, 78, 89
12, 54355, Note_on_c, 10, 78, 0
12, 54370, Note_on_c, 10, 75, 89
12, 54415, Note_on_c, 10, 75, 0
12, 54430, Note_on_c, 10, 78, 89
12, 54475, Note_on_c, 10, 78, 0
12, 54490, Note_on_c, 10, 71, 89
12, 54610, Note_on_c, 10, 71, 0
12, 54720, Note_on_c, 10, 64, 55
12, 54765, Note_on_c, 10, 64, 0
12, 54780, Note_on_c, 10, 64, 55
12, 54825, Note_on_c, 10, 64, 0
12, 54840, Note_on_c, 10, 65, 55
12, 54885, Note_on_c, 10, 65, 0
12, 54900, Note_on_c, 10, 65, 55
12, 54945, Note_on_c, 10, 65, 0
12, 54960, Note_on_c, 10, 67, 55
12, 55005, Note_on_c, 10, 67, 0
12, 55020, Note_on_c, 10, 67, 55
12, 55065, Note_on_c, 10, 67, 0
12, 55080, Note_on_c, 10, 64, 55
12, 55125, Note_on_c, 10, 64, 0
12, 55140, Note_on_c, 10, 64, 55
12, 55185, Note_on_c, 10, 64, 0
12, 55200, Note_on_c, 10, 62, 55
12, 55245, Note_on_c, 10, 62, 0
12, 55260, Note_on_c, 10, 62, 55
12, 55305, Note_on_c, 10, 62, 0
12, 55320, Note_on_c, 10, 64, 55
12, 55365, Note_on_c, 10, 64, 0
12, 55380, Note_on_c, 10, 64, 55
12, 55425, Note_on_c, 10, 64, 0
12, 55440, Note_on_c, 10, 65, 55
12, 55485, Note_on_c, 10, 65, 0
12, 55500, Note_on_c, 10, 65, 55
12, 55545, Note_on_c, 10, 65, 0
12, 55560, Note_on_c, 10, 62, 55
12, 55605, Note_on_c, 10, 62, 0
12, 55620, Note_on_c, 10, 62, 55
12, 55665, Note_on_c, 10, 62, 0
12, 55680, Note_on_c, 10, 64, 55
12, 55725, Note_on_c, 10, 64, 0
12, 55740, Note_on_c, 10, 64, 55
12, 55785, Note_on_c, 10, 64, 0
12, 55800, Note_on_c, 10, 65, 55
12, 55845, Note_on_c, 10, 65, 0
12, 55860, Note_on_c, 10, 65, 55
12, 55905, Note_on_c, 10, 65, 0
12, 55920, Note_on_c, 10, 67, 55
12, 55965, Note_on_c, 10, 67, 0
12, 55980, Note_on_c, 10, 67, 55
12, 56025, Note_on_c, 10, 67, 0
12, 56040, Note_on_c, 10, 64, 55
12, 56085, Note_on_c, 10, 64, 0
12, 56100, Note_on_c, 10, 64, 55
12, 56145, Note_on_c, 10, 64, 0
12, 56160, Note_on_c, 10, 62, 55
12, 56205, Note_on_c, 10, 62, 0
12, 56220, Note_on_c, 10, 62, 55
12, 56265, Note_on_c, 10, 62, 0
12, 56280, Note_on_c, 10, 64, 55
12, 56325, Note_on_c, 10, 64, 0
12, 56340, Note_on_c, 10, 64, 55
12, 56385, Note_on_c, 10, 64, 0
12, 56400, Note_on_c, 10, 65, 55
12, 56445, Note_on_c, 10, 65, 0
12, 56460, Note_on_c, 10, 65, 55
12, 56505, Note_on_c, 10, 65, 0
12, 56520, Note_on_c, 10, 62, 55
12, 56565, Note_on_c, 10, 62, 0
12, 56580, Note_on_c, 10, 62, 55
12, 56625, Note_on_c, 10, 62, 0
12, 56640, Note_on_c, 10, 64, 55
12, 56685, Note_on_c, 10, 64, 0
12, 56700, Note_on_c, 10, 64, 55
12, 56745, Note_on_c, 10, 64, 0
12, 56760, Note_on_c, 10, 65, 55
12, 56805, Note_on_c, 10, 65, 0
12, 56820, Note_on_c, 10, 65, 55
12, 56865, Note_on_c, 10, 65, 0
12, 56880, Note_on_c, 10, 67, 55
12, 56925, Note_on_c, 10, 67, 0
12, 56940, Note_on_c, 10, 67, 55
12, 56985, Note_on_c, 10, 67, 0
12, 57000, Note_on_c, 10, 64, 55
12, 57045, Note_on_c, 10, 64, 0
12, 57060, Note_on_c, 10, 64, 55
12, 57105, Note_on_c, 10, 64, 0
12, 57120, Note_on_c, 10, 62, 55
12, 57165, Note_on_c, 10, 62, 0
12, 57180, Note_on_c, 10, 62, 55
12, 57225, Note_on_c, 10, 62, 0
12, 57240, Note_on_c, 10, 64, 55
12, 57285, Note_on_c, 10, 64, 0
12, 57300, Note_on_c, 10, 64, 55
12, 57345, Note_on_c, 10, 64, 0
12, 57360, Note_on_c, 10, 65, 55
12, 57405, Note_on_c, 10, 65, 0
12, 57420, Note_on_c, 10, 65, 55
12, 57465, Note_on_c, 10, 65, 0
12, 57480, Note_on_c, 10, 62, 55
12, 57525, Note_on_c, 10, 62, 0
12, 57540, Note_on_c, 10, 62, 55
12, 57585, Note_on_c, 10, 62, 0
12, 57600, Note_on_c, 10, 60, 55
12, 57645, Note_on_c, 10, 60, 0
12, 57660, Note_on_c, 10, 60, 55
12, 57705, Note_on_c, 10, 60, 0
12, 57720, Note_on_c, 10, 62, 55
12, 57765, Note_on_c, 10, 62, 0
12, 57780, Note_on_c, 10, 62, 55
12, 57825, Note_on_c, 10, 62, 0
12, 57840, Note_on_c, 10, 64, 55
12, 57885, Note_on_c, 10, 64, 0
12, 57900, Note_on_c, 10, 64, 55
12, 57945, Note_on_c, 10, 64, 0
12, 57960, Note_on_c, 10, 60, 55
12, 58005, Note_on_c, 10, 60, 0
12, 58020, Note_on_c, 10, 60, 55
12, 58065, Note_on_c, 10, 60, 0
12, 58080, Note_on_c, 10, 60, 55
12, 58125, Note_on_c, 10, 60, 0
12, 58140, Note_on_c, 10, 60, 55
12, 58185, Note_on_c, 10, 60, 0
12, 58200, Note_on_c, 10, 62, 55
12, 58245, Note_on_c, 10, 62, 0
12, 58260, Note_on_c, 10, 62, 55
12, 58305, Note_on_c, 10, 62, 0
12, 58320, Note_on_c, 10, 63, 55
12, 58365, Note_on_c, 10, 63, 0
12, 58380, Note_on_c, 10, 63, 55
12, 58425, Note_on_c, 10, 63, 0
12, 58440, Note_on_c, 10, 60, 55
12, 58485, Note_on_c, 10, 60, 0
12, 58500, Note_on_c, 10, 60, 55
12, 58545, Note_on_c, 10, 60, 0
12, 58560, Note_on_c, 10, 58, 55
12, 58605, Note_on_c, 10, 58, 0
12, 58620, Note_on_c, 10, 58, 55
12, 58665, Note_on_c, 10, 58, 0
12, 58680, Note_on_c, 10, 57, 55
12, 58725, Note_on_c, 10, 57, 0
12, 58740, Note_on_c, 10, 57, 55
12, 58785, Note_on_c, 10, 57, 0
12, 58800, Note_on_c, 10, 58, 55
12, 58845, Note_on_c, 10, 58, 0
12, 58860, Note_on_c, 10, 58, 55
12, 58905, Note_on_c, 10, 58, 0
12, 58920, Note_on_c, 10, 69, 55
12, 58965, Note_on_c, 10, 69, 0
12, 58980, Note_on_c, 10, 69, 55
12, 59025, Note_on_c, 10, 69, 0
12, 59040, Note_on_c, 10, 70, 55
12, 59085, Note_on_c, 10, 70, 0
12, 59100, Note_on_c, 10, 70, 55
12, 59145, Note_on_c, 10, 70, 0
12, 59160, Note_on_c, 10, 69, 55
12, 59205, Note_on_c, 10, 69, 0
12, 59220, Note_on_c, 10, 69, 55
12, 59265, Note_on_c, 10, 69, 0
12, 59280, Note_on_c, 10, 70, 55
12, 59325, Note_on_c, 10, 70, 0
12, 59340, Note_on_c, 10, 70, 55
12, 59385, Note_on_c, 10, 70, 0
12, 59400, Note_on_c, 10, 69, 55
12, 59445, Note_on_c, 10, 69, 0
12, 59460, Note_on_c, 10, 67, 55
12, 59505, Note_on_c, 10, 67, 0
12, 59530, Note_on_c, 10, 66, 53
12, 59650, Note_on_c, 10, 66, 0
12, 59710, Note_on_c, 10, 62, 91
12, 59770, Note_on_c, 10, 62, 0
12, 59770, Note_on_c, 10, 64, 91
12, 59830, Note_on_c, 10, 64, 0
12, 59830, Note_on_c, 10, 66, 91
12, 59890, Note_on_c, 10, 66, 0
12, 59890, Note_on_c, 10, 67, 91
12, 59950, Note_on_c, 10, 67, 0
12, 59950, Note_on_c, 10, 69, 91
12, 60010, Note_on_c, 10, 69, 0
12, 60010, Note_on_c, 10, 72, 91
12, 60070, Note_on_c, 10, 72, 0
12, 60070, Note_on_c, 10, 70, 91
12, 60130, Note_on_c, 10, 70, 0
12, 60190, Note_on_c, 10, 66, 91
12, 60250, Note_on_c, 10, 66, 0
12, 60250, Note_on_c, 10, 67, 91
12, 60310, Note_on_c, 10, 67, 0
12, 60310, Note_on_c, 10, 69, 91
12, 60370, Note_on_c, 10, 69, 0
12, 60370, Note_on_c, 10, 70, 91
12, 60430, Note_on_c, 10, 70, 0
12, 60430, Note_on_c, 10, 73, 91
12, 60490, Note_on_c, 10, 73, 0
12, 60490, Note_on_c, 10, 76, 91
12, 60550, Note_on_c, 10, 76, 0
12, 60550, Note_on_c, 10, 74, 91
12, 60610, Note_on_c, 10, 74, 0
12, 60670, Note_on_c, 10, 62, 53
12, 60730, Note_on_c, 10, 62, 0
12, 60730, Note_on_c, 10, 64, 53
12, 60790, Note_on_c, 10, 64, 0
12, 60790, Note_on_c, 10, 66, 53
12, 60850, Note_on_c, 10, 66, 0
12, 60850, Note_on_c, 10, 67, 53
12, 60910, Note_on_c, 10, 67, 0
12, 60910, Note_on_c, 10, 69, 53
12, 60960, Note_on_c, 10, 70, 53
12, 60970, Note_on_c, 10, 69, 0
12, 61080, Note_on_c, 10, 70, 0
12, 61080, Note_on_c, 10, 71, 53
12, 61200, Note_on_c, 10, 71, 0
12, 61200, Note_on_c, 10, 72, 53
12, 61320, Note_on_c, 10, 72, 0
12, 61320, Note_on_c, 10, 73, 53
12, 61440, Note_on_c, 10, 73, 0
12, 61440, Note_on_c, 10, 74, 68
12, 61470, Note_on_c, 10, 74, 0
12, 61500, Note_on_c, 10, 74, 68
12, 61530, Note_on_c, 10, 74, 0
12, 61560, Note_on_c, 10, 74, 68
12, 61620, Note_on_c, 10, 74, 0
12, 61620, Note_on_c, 10, 76, 68
12, 61665, Note_on_c, 10, 76, 0
12, 61680, Note_on_c, 10, 72, 68
12, 61710, Note_on_c, 10, 72, 0
12, 61740, Note_on_c, 10, 72, 68
12, 61770, Note_on_c, 10, 72, 0
12, 61800, Note_on_c, 10, 72, 68
12, 61860, Note_on_c, 10, 72, 0
12, 61860, Note_on_c, 10, 74, 68
12, 61905, Note_on_c, 10, 74, 0
12, 61920, Note_on_c, 10, 71, 68
12, 61950, Note_on_c, 10, 71, 0
12, 61980, Note_on_c, 10, 71, 68
12, 62010, Note_on_c, 10, 71, 0
12, 62040, Note_on_c, 10, 71, 68
12, 62100, Note_on_c, 10, 71, 0
12, 62100, Note_on_c, 10, 74, 68
12, 62145, Note_on_c, 10, 74, 0
12, 62160, Note_on_c, 10, 74, 68
12, 62220, Note_on_c, 10, 74, 0
12, 62220, Note_on_c, 10, 72, 68
12, 62265, Note_on_c, 10, 72, 0
12, 62280, Note_on_c, 10, 71, 68
12, 62310, Note_on_c, 10, 71, 0
12, 62340, Note_on_c, 10, 69, 68
12, 62370, Note_on_c, 10, 69, 0
12, 62410, Note_on_c, 10, 79, 93
12, 62410, Note_on_c, 10, 71, 93
12, 62410, Note_on_c, 10, 62, 93
12, 62530, Note_on_c, 10, 62, 0
12, 62530, Note_on_c, 10, 71, 0
12, 62530, Note_on_c, 10, 79, 0
12, 62590, Note_on_c, 10, 74, 92
12, 62620, Note_on_c, 10, 74, 0
12, 62650, Note_on_c, 10, 79, 92
12, 62770, Note_on_c, 10, 79, 0
12, 62830, Note_on_c, 10, 74, 91
12, 62860, Note_on_c, 10, 74, 0
12, 62890, Note_on_c, 10, 79, 90
12, 62920, Note_on_c, 10, 79, 0
12, 62950, Note_on_c, 10, 74, 90
12, 62980, Note_on_c, 10, 74, 0
12, 63010, Note_on_c, 10, 79, 90
12, 63040, Note_on_c, 10, 79, 0
12, 63070, Note_on_c, 10, 83, 90
12, 63100, Note_on_c, 10, 83, 0
12, 63130, Note_on_c, 10, 86, 89
12, 63250, Note_on_c, 10, 86, 0
12, 63370, Note_on_c, 10, 84, 88
12, 63490, Note_on_c, 10, 84, 0
12, 63550, Note_on_c, 10, 81, 87
12, 63580, Note_on_c, 10, 81, 0
12, 63610, Note_on_c, 10, 84, 86
12, 63730, Note_on_c, 10, 84, 0
12, 63790, Note_on_c, 10, 81, 85
12, 63820, Note_on_c, 10, 81, 0
12, 63850, Note_on_c, 10, 84, 85
12, 63880, Note_on_c, 10, 84, 0
12, 63910, Note_on_c, 10, 81, 85
12, 63940, Note_on_c, 10, 81, 0
12, 63970, Note_on_c, 10, 78, 85
12, 64000, Note_on_c, 10, 78, 0
12, 64030, Note_on_c, 10, 81, 85
12, 64060, Note_on_c, 10, 81, 0
12, 64090, Note_on_c, 10, 74, 85
12, 64210, Note_on_c, 10, 74, 0
12, 64320, Note_on_c, 10, 59, 85
12, 64320, Note_on_c, 10, 62, 85
12, 64340, Note_on_c, 10, 62, 0
12, 64340, Note_on_c, 10, 59, 0
12, 64350, Note_on_c, 10, 59, 85
12, 64350, Note_on_c, 10, 62, 85
12, 64370, Note_on_c, 10, 62, 0
12, 64370, Note_on_c, 10, 59, 0
12, 64380, Note_on_c, 10, 59, 85
12, 64380, Note_on_c, 10, 62, 85
12, 64400, Note_on_c, 10, 62, 0
12, 64400, Note_on_c, 10, 59, 0
12, 64410, Note_on_c, 10, 59, 85
12, 64410, Note_on_c, 10, 62, 85
12, 64430, Note_on_c, 10, 62, 0
12, 64430, Note_on_c, 10, 59, 0
12, 64440, Note_on_c, 10, 59, 85
12, 64440, Note_on_c, 10, 62, 85
12, 64460, Note_on_c, 10, 62, 0
12, 64460, Note_on_c, 10, 59, 0
12, 64470, Note_on_c, 10, 59, 85
12, 64470, Note_on_c, 10, 62, 85
12, 64490, Note_on_c, 10, 62, 0
12, 64490, Note_on_c, 10, 59, 0
12, 64500, Note_on_c, 10, 59, 85
12, 64500, Note_on_c, 10, 62, 85
12, 64520, Note_on_c, 10, 62, 0
12, 64520, Note_on_c, 10, 59, 0
12, 64530, Note_on_c, 10, 59, 85
12, 64530, Note_on_c, 10, 62, 85
12, 64550, Note_on_c, 10, 62, 0
12, 64550, Note_on_c, 10, 59, 0
12, 64560, Note_on_c, 10, 59, 85
12, 64560, Note_on_c, 10, 62, 85
12, 64580, Note_on_c, 10, 62, 0
12, 64580, Note_on_c, 10, 59, 0
12, 64590, Note_on_c, 10, 59, 85
12, 64590, Note_on_c, 10, 62, 85
12, 64610, Note_on_c, 10, 62, 0
12, 64610, Note_on_c, 10, 59, 0
12, 64620, Note_on_c, 10, 59, 85
12, 64620, Note_on_c, 10, 62, 85
12, 64640, Note_on_c, 10, 62, 0
12, 64640, Note_on_c, 10, 59, 0
12, 64650, Note_on_c, 10, 59, 85
12, 64650, Note_on_c, 10, 62, 85
12, 64670, Note_on_c, 10, 62, 0
12, 64670, Note_on_c, 10, 59, 0
12, 64680, Note_on_c, 10, 59, 85
12, 64680, Note_on_c, 10, 62, 85
12, 64700, Note_on_c, 10, 62, 0
12, 64700, Note_on_c, 10, 59, 0
12, 64710, Note_on_c, 10, 59, 85
12, 64710, Note_on_c, 10, 62, 85
12, 64730, Note_on_c, 10, 62, 0
12, 64730, Note_on_c, 10, 59, 0
12, 64740, Note_on_c, 10, 59, 85
12, 64740, Note_on_c, 10, 62, 85
12, 64760, Note_on_c, 10, 62, 0
12, 64760, Note_on_c, 10, 59, 0
12, 64770, Note_on_c, 10, 59, 85
12, 64770, Note_on_c, 10, 62, 85
12, 64790, Note_on_c, 10, 62, 0
12, 64790, Note_on_c, 10, 59, 0
12, 64800, Note_on_c, 10, 60, 85
12, 64800, Note_on_c, 10, 62, 85
12, 64820, Note_on_c, 10, 62, 0
12, 64820, Note_on_c, 10, 60, 0
12, 64830, Note_on_c, 10, 60, 85
12, 64830, Note_on_c, 10, 62, 85
12, 64850, Note_on_c, 10, 62, 0
12, 64850, Note_on_c, 10, 60, 0
12, 64860, Note_on_c, 10, 60, 85
12, 64860, Note_on_c, 10, 62, 85
12, 64880, Note_on_c, 10, 62, 0
12, 64880, Note_on_c, 10, 60, 0
12, 64890, Note_on_c, 10, 60, 85
12, 64890, Note_on_c, 10, 62, 85
12, 64910, Note_on_c, 10, 62, 0
12, 64910, Note_on_c, 10, 60, 0
12, 64920, Note_on_c, 10, 60, 85
12, 64920, Note_on_c, 10, 62, 85
12, 64940, Note_on_c, 10, 62, 0
12, 64940, Note_on_c, 10, 60, 0
12, 64950, Note_on_c, 10, 60, 85
12, 64950, Note_on_c, 10, 62, 85
12, 64970, Note_on_c, 10, 62, 0
12, 64970, Note_on_c, 10, 60, 0
12, 64980, Note_on_c, 10, 60, 85
12, 64980, Note_on_c, 10, 62, 85
12, 65000, Note_on_c, 10, 62, 0
12, 65000, Note_on_c, 10, 60, 0
12, 65010, Note_on_c, 10, 60, 85
12, 65010, Note_on_c, 10, 62, 85
12, 65030, Note_on_c, 10, 62, 0
12, 65030, Note_on_c, 10, 60, 0
12, 65040, Note_on_c, 10, 60, 85
12, 65040, Note_on_c, 10, 62, 85
12, 65060, Note_on_c, 10, 62, 0
12, 65060, Note_on_c, 10, 60, 0
12, 65070, Note_on_c, 10, 60, 85
12, 65070, Note_on_c, 10, 62, 85
12, 65090, Note_on_c, 10, 62, 0
12, 65090, Note_on_c, 10, 60, 0
12, 65100, Note_on_c, 10, 60, 85
12, 65100, Note_on_c, 10, 62, 85
12, 65120, Note_on_c, 10, 62, 0
12, 65120, Note_on_c, 10, 60, 0
12, 65130, Note_on_c, 10, 60, 85
12, 65130, Note_on_c, 10, 62, 85
12, 65150, Note_on_c, 10, 62, 0
12, 65150, Note_on_c, 10, 60, 0
12, 65160, Note_on_c, 10, 60, 85
12, 65160, Note_on_c, 10, 62, 85
12, 65180, Note_on_c, 10, 62, 0
12, 65180, Note_on_c, 10, 60, 0
12, 65190, Note_on_c, 10, 60, 85
12, 65190, Note_on_c, 10, 62, 85
12, 65210, Note_on_c, 10, 62, 0
12, 65210, Note_on_c, 10, 60, 0
12, 65220, Note_on_c, 10, 60, 85
12, 65220, Note_on_c, 10, 62, 85
12, 65240, Note_on_c, 10, 62, 0
12, 65240, Note_on_c, 10, 60, 0
12, 65250, Note_on_c, 10, 60, 85
12, 65250, Note_on_c, 10, 62, 85
12, 65270, Note_on_c, 10, 62, 0
12, 65270, Note_on_c, 10, 60, 0
12, 65280, Note_on_c, 10, 59, 85
12, 65280, Note_on_c, 10, 62, 85
12, 65300, Note_on_c, 10, 62, 0
12, 65300, Note_on_c, 10, 59, 0
12, 65310, Note_on_c, 10, 59, 85
12, 65310, Note_on_c, 10, 62, 85
12, 65330, Note_on_c, 10, 62, 0
12, 65330, Note_on_c, 10, 59, 0
12, 65340, Note_on_c, 10, 59, 85
12, 65340, Note_on_c, 10, 62, 85
12, 65360, Note_on_c, 10, 62, 0
12, 65360, Note_on_c, 10, 59, 0
12, 65370, Note_on_c, 10, 59, 85
12, 65370, Note_on_c, 10, 62, 85
12, 65390, Note_on_c, 10, 62, 0
12, 65390, Note_on_c, 10, 59, 0
12, 65400, Note_on_c, 10, 59, 85
12, 65400, Note_on_c, 10, 62, 85
12, 65420, Note_on_c, 10, 62, 0
12, 65420, Note_on_c, 10, 59, 0
12, 65430, Note_on_c, 10, 59, 85
12, 65430, Note_on_c, 10, 62, 85
12, 65450, Note_on_c, 10, 62, 0
12, 65450, Note_on_c, 10, 59, 0
12, 65460, Note_on_c, 10, 59, 85
12, 65460, Note_on_c, 10, 62, 85
12, 65480, Note_on_c, 10, 62, 0
12, 65480, Note_on_c, 10, 59, 0
12, 65490, Note_on_c, 10, 59, 85
12, 65490, Note_on_c, 10, 62, 85
12, 65510, Note_on_c, 10, 62, 0
12, 65510, Note_on_c, 10, 59, 0
12, 65520, Note_on_c, 10, 59, 85
12, 65520, Note_on_c, 10, 62, 85
12, 65540, Note_on_c, 10, 62, 0
12, 65540, Note_on_c, 10, 59, 0
12, 65550, Note_on_c, 10, 59, 85
12, 65550, Note_on_c, 10, 62, 85
12, 65570, Note_on_c, 10, 62, 0
12, 65570, Note_on_c, 10, 59, 0
12, 65580, Note_on_c, 10, 59, 85
12, 65580, Note_on_c, 10, 62, 85
12, 65600, Note_on_c, 10, 62, 0
12, 65600, Note_on_c, 10, 59, 0
12, 65610, Note_on_c, 10, 59, 85
12, 65610, Note_on_c, 10, 62, 85
12, 65630, Note_on_c, 10, 62, 0
12, 65630, Note_on_c, 10, 59, 0
12, 65640, Note_on_c, 10, 59, 85
12, 65640, Note_on_c, 10, 62, 85
12, 65660, Note_on_c, 10, 62, 0
12, 65660, Note_on_c, 10, 59, 0
12, 65670, Note_on_c, 10, 59, 85
12, 65670, Note_on_c, 10, 62, 85
12, 65690, Note_on_c, 10, 62, 0
12, 65690, Note_on_c, 10, 59, 0
12, 65700, Note_on_c, 10, 59, 85
12, 65700, Note_on_c, 10, 62, 85
12, 65720, Note_on_c, 10, 62, 0
12, 65720, Note_on_c, 10, 59, 0
12, 65730, Note_on_c, 10, 59, 85
12, 65730, Note_on_c, 10, 62, 85
12, 65750, Note_on_c, 10, 62, 0
12, 65750, Note_on_c, 10, 59, 0
12, 65760, Note_on_c, 10, 60, 85
12, 65760, Note_on_c, 10, 62, 85
12, 65780, Note_on_c, 10, 62, 0
12, 65780, Note_on_c, 10, 60, 0
12, 65790, Note_on_c, 10, 60, 85
12, 65790, Note_on_c, 10, 62, 85
12, 65810, Note_on_c, 10, 62, 0
12, 65810, Note_on_c, 10, 60, 0
12, 65820, Note_on_c, 10, 60, 85
12, 65820, Note_on_c, 10, 62, 85
12, 65840, Note_on_c, 10, 62, 0
12, 65840, Note_on_c, 10, 60, 0
12, 65850, Note_on_c, 10, 60, 85
12, 65850, Note_on_c, 10, 62, 85
12, 65870, Note_on_c, 10, 62, 0
12, 65870, Note_on_c, 10, 60, 0
12, 65880, Note_on_c, 10, 60, 85
12, 65880, Note_on_c, 10, 62, 85
12, 65900, Note_on_c, 10, 62, 0
12, 65900, Note_on_c, 10, 60, 0
12, 65910, Note_on_c, 10, 60, 85
12, 65910, Note_on_c, 10, 62, 85
12, 65930, Note_on_c, 10, 62, 0
12, 65930, Note_on_c, 10, 60, 0
12, 65940, Note_on_c, 10, 60, 85
12, 65940, Note_on_c, 10, 62, 85
12, 65960, Note_on_c, 10, 62, 0
12, 65960, Note_on_c, 10, 60, 0
12, 65970, Note_on_c, 10, 60, 85
12, 65970, Note_on_c, 10, 62, 85
12, 65990, Note_on_c, 10, 62, 0
12, 65990, Note_on_c, 10, 60, 0
12, 66000, Note_on_c, 10, 60, 85
12, 66000, Note_on_c, 10, 62, 85
12, 66020, Note_on_c, 10, 62, 0
12, 66020, Note_on_c, 10, 60, 0
12, 66030, Note_on_c, 10, 60, 85
12, 66030, Note_on_c, 10, 62, 85
12, 66050, Note_on_c, 10, 62, 0
12, 66050, Note_on_c, 10, 60, 0
12, 66060, Note_on_c, 10, 60, 85
12, 66060, Note_on_c, 10, 62, 85
12, 66080, Note_on_c, 10, 62, 0
12, 66080, Note_on_c, 10, 60, 0
12, 66090, Note_on_c, 10, 60, 85
12, 66090, Note_on_c, 10, 62, 85
12, 66110, Note_on_c, 10, 62, 0
12, 66110, Note_on_c, 10, 60, 0
12, 66120, Note_on_c, 10, 60, 85
12, 66120, Note_on_c, 10, 62, 85
12, 66140, Note_on_c, 10, 62, 0
12, 66140, Note_on_c, 10, 60, 0
12, 66150, Note_on_c, 10, 60, 85
12, 66150, Note_on_c, 10, 62, 85
12, 66170, Note_on_c, 10, 62, 0
12, 66170, Note_on_c, 10, 60, 0
12, 66180, Note_on_c, 10, 60, 85
12, 66180, Note_on_c, 10, 62, 85
12, 66200, Note_on_c, 10, 62, 0
12, 66200, Note_on_c, 10, 60, 0
12, 66210, Note_on_c, 10, 60, 85
12, 66210, Note_on_c, 10, 62, 85
12, 66230, Note_on_c, 10, 62, 0
12, 66230, Note_on_c, 10, 60, 0
12, 66240, Note_on_c, 10, 59, 85
12, 66240, Note_on_c, 10, 62, 85
12, 66360, Note_on_c, 10, 62, 0
12, 66360, Note_on_c, 10, 59, 0
12, 66360, Note_on_c, 10, 72, 85
12, 66405, Note_on_c, 10, 72, 0
12, 66420, Note_on_c, 10, 72, 85
12, 66465, Note_on_c, 10, 72, 0
12, 66480, Note_on_c, 10, 74, 85
12, 66525, Note_on_c, 10, 74, 0
12, 66540, Note_on_c, 10, 74, 85
12, 66585, Note_on_c, 10, 74, 0
12, 66600, Note_on_c, 10, 72, 85
12, 66660, Note_on_c, 10, 72, 0
12, 66660, Note_on_c, 10, 71, 85
12, 66690, Note_on_c, 10, 71, 0
12, 66690, Note_on_c, 10, 69, 85
12, 66720, Note_on_c, 10, 69, 0
12, 66720, Note_on_c, 10, 67, 85
12, 66765, Note_on_c, 10, 67, 0
12, 66780, Note_on_c, 10, 67, 85
12, 66825, Note_on_c, 10, 67, 0
12, 66840, Note_on_c, 10, 66, 85
12, 66885, Note_on_c, 10, 66, 0
12, 66900, Note_on_c, 10, 66, 85
12, 66945, Note_on_c, 10, 66, 0
12, 66960, Note_on_c, 10, 67, 85
12, 67080, Note_on_c, 10, 67, 0
12, 67200, Note_on_c, 10, 71, 47
12, 67440, Note_on_c, 10, 71, 0
12, 67440, Note_on_c, 10, 72, 47
12, 67680, Note_on_c, 10, 72, 0
12, 67680, Note_on_c, 10, 71, 47
12, 67710, Note_on_c, 10, 71, 0
12, 67710, Note_on_c, 10, 69, 47
12, 67790, Note_on_c, 10, 69, 0
12, 67800, Note_on_c, 10, 69, 47
12, 67920, Note_on_c, 10, 69, 0
12, 67920, Note_on_c, 10, 69, 47
12, 67950, Note_on_c, 10, 69, 0
12, 67950, Note_on_c, 10, 67, 47
12, 68030, Note_on_c, 10, 67, 0
12, 68040, Note_on_c, 10, 67, 47
12, 68160, Note_on_c, 10, 67, 0
12, 68160, Note_on_c, 10, 64, 47
12, 68250, Note_on_c, 10, 64, 0
12, 68280, Note_on_c, 10, 64, 47
12, 68370, Note_on_c, 10, 64, 0
12, 68400, Note_on_c, 10, 60, 47
12, 68490, Note_on_c, 10, 60, 0
12, 68520, Note_on_c, 10, 57, 47
12, 68610, Note_on_c, 10, 57, 0
12, 68640, Note_on_c, 10, 62, 47
12, 68700, Note_on_c, 10, 62, 0
12, 68760, Note_on_c, 10, 66, 47
12, 68820, Note_on_c, 10, 66, 0
12, 68880, Note_on_c, 10, 67, 47
12, 68940, Note_on_c, 10, 67, 0
12, 69120, Note_on_c, 10, 71, 47
12, 69360, Note_on_c, 10, 71, 0
12, 69360, Note_on_c, 10, 72, 47
12, 69600, Note_on_c, 10, 72, 0
12, 69600, Note_on_c, 10, 71, 47
12, 69660, Note_on_c, 10, 71, 0
12, 69660, Note_on_c, 10, 69, 47
12, 69690, Note_on_c, 10, 69, 0
12, 69720, Note_on_c, 10, 69, 47
12, 69750, Note_on_c, 10, 69, 0
12, 69780, Note_on_c, 10, 69, 47
12, 69810, Note_on_c, 10, 69, 0
12, 69840, Note_on_c, 10, 69, 47
12, 69900, Note_on_c, 10, 69, 0
12, 69900, Note_on_c, 10, 67, 47
12, 69930, Note_on_c, 10, 67, 0
12, 69960, Note_on_c, 10, 67, 47
12, 69990, Note_on_c, 10, 67, 0
12, 70020, Note_on_c, 10, 67, 47
12, 70050, Note_on_c, 10, 67, 0
12, 70080, Note_on_c, 10, 64, 47
12, 70170, Note_on_c, 10, 64, 0
12, 70200, Note_on_c, 10, 64, 47
12, 70245, Note_on_c, 10, 64, 0
12, 70260, Note_on_c, 10, 64, 47
12, 70305, Note_on_c, 10, 64, 0
12, 70320, Note_on_c, 10, 60, 47
12, 70410, Note_on_c, 10, 60, 0
12, 70440, Note_on_c, 10, 60, 47
12, 70485, Note_on_c, 10, 60, 0
12, 70500, Note_on_c, 10, 60, 47
12, 70545, Note_on_c, 10, 60, 0
12, 70560, Note_on_c, 10, 59, 85
12, 70860, Note_on_c, 10, 59, 0
12, 70860, Note_on_c, 10, 59, 61
12, 70875, Note_on_c, 10, 59, 0
12, 70875, Note_on_c, 10, 60, 61
12, 70890, Note_on_c, 10, 60, 0
12, 70890, Note_on_c, 10, 57, 61
12, 70905, Note_on_c, 10, 57, 0
12, 70905, Note_on_c, 10, 59, 61
12, 70920, Note_on_c, 10, 59, 0
12, 70920, Note_on_c, 10, 60, 61
12, 70980, Note_on_c, 10, 60, 0
12, 70980, Note_on_c, 10, 57, 61
12, 71040, Note_on_c, 10, 57, 0
12, 71040, Note_on_c, 10, 67, 85
12, 71340, Note_on_c, 10, 67, 0
12, 71340, Note_on_c, 10, 67, 61
12, 71355, Note_on_c, 10, 67, 0
12, 71355, Note_on_c, 10, 69, 61
12, 71370, Note_on_c, 10, 69, 0
12, 71370, Note_on_c, 10, 66, 61
12, 71385, Note_on_c, 10, 66, 0
12, 71385, Note_on_c, 10, 67, 61
12, 71400, Note_on_c, 10, 67, 0
12, 71400, Note_on_c, 10, 69, 61
12, 71460, Note_on_c, 10, 69, 0
12, 71460, Note_on_c, 10, 66, 61
12, 71520, Note_on_c, 10, 66, 0
12, 71520, Note_on_c, 10, 71, 53
12, 71540, Note_on_c, 10, 71, 0
12, 71550, Note_on_c, 10, 71, 53
12, 71570, Note_on_c, 10, 71, 0
12, 71580, Note_on_c, 10, 71, 55
12, 71600, Note_on_c, 10, 71, 0
12, 71610, Note_on_c, 10, 71, 55
12, 71630, Note_on_c, 10, 71, 0
12, 71640, Note_on_c, 10, 71, 55
12, 71660, Note_on_c, 10, 71, 0
12, 71670, Note_on_c, 10, 71, 56
12, 71690, Note_on_c, 10, 71, 0
12, 71700, Note_on_c, 10, 71, 56
12, 71720, Note_on_c, 10, 71, 0
12, 71730, Note_on_c, 10, 71, 58
12, 71750, Note_on_c, 10, 71, 0
12, 71760, Note_on_c, 10, 72, 58
12, 71780, Note_on_c, 10, 72, 0
12, 71790, Note_on_c, 10, 72, 59
12, 71810, Note_on_c, 10, 72, 0
12, 71820, Note_on_c, 10, 72, 59
12, 71840, Note_on_c, 10, 72, 0
12, 71850, Note_on_c, 10, 72, 61
12, 71870, Note_on_c, 10, 72, 0
12, 71880, Note_on_c, 10, 74, 61
12, 71900, Note_on_c, 10, 74, 0
12, 71910, Note_on_c, 10, 74, 62
12, 71930, Note_on_c, 10, 74, 0
12, 71940, Note_on_c, 10, 74, 62
12, 71960, Note_on_c, 10, 74, 0
12, 71970, Note_on_c, 10, 74, 64
12, 71990, Note_on_c, 10, 74, 0
12, 72000, Note_on_c, 10, 71, 64
12, 72020, Note_on_c, 10, 71, 0
12, 72030, Note_on_c, 10, 71, 65
12, 72050, Note_on_c, 10, 71, 0
12, 72060, Note_on_c, 10, 71, 65
12, 72080, Note_on_c, 10, 71, 0
12, 72090, Note_on_c, 10, 71, 67
12, 72110, Note_on_c, 10, 71, 0
12, 72120, Note_on_c, 10, 74, 67
12, 72140, Note_on_c, 10, 74, 0
12, 72150, Note_on_c, 10, 74, 68
12, 72170, Note_on_c, 10, 74, 0
12, 72180, Note_on_c, 10, 74, 68
12, 72200, Note_on_c, 10, 74, 0
12, 72210, Note_on_c, 10, 74, 70
12, 72230, Note_on_c, 10, 74, 0
12, 72240, Note_on_c, 10, 74, 70
12, 72260, Note_on_c, 10, 74, 0
12, 72270, Note_on_c, 10, 74, 71
12, 72290, Note_on_c, 10, 74, 0
12, 72300, Note_on_c, 10, 74, 71
12, 72320, Note_on_c, 10, 74, 0
12, 72330, Note_on_c, 10, 74, 73
12, 72350, Note_on_c, 10, 74, 0
12, 72360, Note_on_c, 10, 79, 73
12, 72380, Note_on_c, 10, 79, 0
12, 72390, Note_on_c, 10, 79, 73
12, 72410, Note_on_c, 10, 79, 0
12, 72420, Note_on_c, 10, 79, 74
12, 72440, Note_on_c, 10, 79, 0
12, 72450, Note_on_c, 10, 79, 74
12, 72470, Note_on_c, 10, 79, 0
12, 72480, Note_on_c, 10, 78, 85
12, 72500, Note_on_c, 10, 78, 0
12, 72510, Note_on_c, 10, 78, 85
12, 72530, Note_on_c, 10, 78, 0
12, 72540, Note_on_c, 10, 78, 85
12, 72560, Note_on_c, 10, 78, 0
12, 72570, Note_on_c, 10, 78, 85
12, 72590, Note_on_c, 10, 78, 0
12, 72600, Note_on_c, 10, 78, 85
12, 72620, Note_on_c, 10, 78, 0
12, 72630, Note_on_c, 10, 78, 85
12, 72650, Note_on_c, 10, 78, 0
12, 72660, Note_on_c, 10, 78, 85
12, 72680, Note_on_c, 10, 78, 0
12, 72690, Note_on_c, 10, 78, 85
12, 72710, Note_on_c, 10, 78, 0
12, 72720, Note_on_c, 10, 79, 85
12, 72740, Note_on_c, 10, 79, 0
12, 72750, Note_on_c, 10, 79, 85
12, 72770, Note_on_c, 10, 79, 0
12, 72780, Note_on_c, 10, 79, 85
12, 72800, Note_on_c, 10, 79, 0
12, 72810, Note_on_c, 10, 79, 85
12, 72830, Note_on_c, 10, 79, 0
12, 72840, Note_on_c, 10, 79, 85
12, 72860, Note_on_c, 10, 79, 0
12, 72870, Note_on_c, 10, 79, 85
12, 72890, Note_on_c, 10, 79, 0
12, 72900, Note_on_c, 10, 79, 85
12, 72920, Note_on_c, 10, 79, 0
12, 72930, Note_on_c, 10, 79, 85
12, 72950, Note_on_c, 10, 79, 0
12, 72960, Note_on_c, 10, 78, 85
12, 72980, Note_on_c, 10, 78, 0
12, 72990, Note_on_c, 10, 78, 85
12, 73010, Note_on_c, 10, 78, 0
12, 73020, Note_on_c, 10, 78, 85
12, 73040, Note_on_c, 10, 78, 0
12, 73050, Note_on_c, 10, 78, 85
12, 73070, Note_on_c, 10, 78, 0
12, 73080, Note_on_c, 10, 78, 85
12, 73100, Note_on_c, 10, 78, 0
12, 73110, Note_on_c, 10, 78, 85
12, 73130, Note_on_c, 10, 78, 0
12, 73140, Note_on_c, 10, 78, 85
12, 73160, Note_on_c, 10, 78, 0
12, 73170, Note_on_c, 10, 78, 85
12, 73190, Note_on_c, 10, 78, 0
12, 73200, Note_on_c, 10, 79, 85
12, 73220, Note_on_c, 10, 79, 0
12, 73230, Note_on_c, 10, 79, 85
12, 73250, Note_on_c, 10, 79, 0
12, 73260, Note_on_c, 10, 79, 85
12, 73280, Note_on_c, 10, 79, 0
12, 73290, Note_on_c, 10, 79, 85
12, 73310, Note_on_c, 10, 79, 0
12, 73320, Note_on_c, 10, 79, 85
12, 73340, Note_on_c, 10, 79, 0
12, 73350, Note_on_c, 10, 79, 85
12, 73370, Note_on_c, 10, 79, 0
12, 73380, Note_on_c, 10, 79, 85
12, 73400, Note_on_c, 10, 79, 0
12, 73410, Note_on_c, 10, 79, 85
12, 73430, Note_on_c, 10, 79, 0
12, 73440, Note_on_c, 10, 78, 85
12, 73460, Note_on_c, 10, 78, 0
12, 73470, Note_on_c, 10, 78, 85
12, 73490, Note_on_c, 10, 78, 0
12, 73500, Note_on_c, 10, 78, 85
12, 73520, Note_on_c, 10, 78, 0
12, 73530, Note_on_c, 10, 78, 85
12, 73550, Note_on_c, 10, 78, 0
12, 73560, Note_on_c, 10, 79, 85
12, 73580, Note_on_c, 10, 79, 0
12, 73590, Note_on_c, 10, 79, 85
12, 73610, Note_on_c, 10, 79, 0
12, 73620, Note_on_c, 10, 79, 85
12, 73640, Note_on_c, 10, 79, 0
12, 73650, Note_on_c, 10, 79, 85
12, 73670, Note_on_c, 10, 79, 0
12, 73680, Note_on_c, 10, 78, 85
12, 73700, Note_on_c, 10, 78, 0
12, 73710, Note_on_c, 10, 78, 85
12, 73730, Note_on_c, 10, 78, 0
12, 73740, Note_on_c, 10, 78, 85
12, 73760, Note_on_c, 10, 78, 0
12, 73770, Note_on_c, 10, 78, 85
12, 73790, Note_on_c, 10, 78, 0
12, 73800, Note_on_c, 10, 79, 85
12, 73820, Note_on_c, 10, 79, 0
12, 73830, Note_on_c, 10, 79, 85
12, 73850, Note_on_c, 10, 79, 0
12, 73860, Note_on_c, 10, 79, 85
12, 73880, Note_on_c, 10, 79, 0
12, 73890, Note_on_c, 10, 79, 85
12, 73910, Note_on_c, 10, 79, 0
12, 73923, Note_on_c, 10, 78, 85
12, 73968, Note_on_c, 10, 78, 0
12, 73983, Note_on_c, 10, 62, 85
12, 74028, Note_on_c, 10, 62, 0
12, 74043, Note_on_c, 10, 62, 85
12, 74088, Note_on_c, 10, 62, 0
12, 74103, Note_on_c, 10, 62, 85
12, 74148, Note_on_c, 10, 62, 0
12, 74163, Note_on_c, 10, 62, 85
12, 74283, Note_on_c, 10, 62, 0
12, 74400, Note_on_c, 10, 62, 55
12, 74580, Note_on_c, 10, 62, 0
12, 74580, Note_on_c, 10, 60, 55
12, 74600, Note_on_c, 10, 60, 0
12, 74600, Note_on_c, 10, 59, 55
12, 74620, Note_on_c, 10, 59, 0
12, 74620, Note_on_c, 10, 57, 55
12, 74640, Note_on_c, 10, 57, 0
12, 74640, Note_on_c, 10, 55, 55
12, 74700, Note_on_c, 10, 55, 0
12, 74760, Note_on_c, 10, 64, 55
12, 74820, Note_on_c, 10, 64, 0
12, 74880, Note_on_c, 10, 60, 55
12, 74940, Note_on_c, 10, 60, 0
12, 75000, Note_on_c, 10, 57, 55
12, 75060, Note_on_c, 10, 57, 0
12, 75120, Note_on_c, 10, 62, 55
12, 75180, Note_on_c, 10, 62, 0
12, 75360, Note_on_c, 10, 71, 55
12, 75540, Note_on_c, 10, 71, 0
12, 75540, Note_on_c, 10, 69, 55
12, 75560, Note_on_c, 10, 69, 0
12, 75560, Note_on_c, 10, 67, 55
12, 75580, Note_on_c, 10, 67, 0
12, 75580, Note_on_c, 10, 66, 55
12, 75600, Note_on_c, 10, 66, 0
12, 75600, Note_on_c, 10, 64, 55
12, 75660, Note_on_c, 10, 64, 0
12, 75720, Note_on_c, 10, 72, 55
12, 75780, Note_on_c, 10, 72, 0
12, 75840, Note_on_c, 10, 71, 55
12, 76080, Note_on_c, 10, 71, 0
12, 76080, Note_on_c, 10, 69, 55
12, 76200, Note_on_c, 10, 69, 0
12, 76320, Note_on_c, 10, 74, 55
12, 76500, Note_on_c, 10, 74, 0
12, 76500, Note_on_c, 10, 72, 55
12, 76520, Note_on_c, 10, 72, 0
12, 76520, Note_on_c, 10, 71, 55
12, 76540, Note_on_c, 10, 71, 0
12, 76540, Note_on_c, 10, 69, 55
12, 76560, Note_on_c, 10, 69, 0
12, 76560, Note_on_c, 10, 67, 55
12, 76620, Note_on_c, 10, 67, 0
12, 76680, Note_on_c, 10, 76, 55
12, 76740, Note_on_c, 10, 76, 0
12, 76800, Note_on_c, 10, 72, 55
12, 76860, Note_on_c, 10, 72, 0
12, 76920, Note_on_c, 10, 69, 55
12, 76980, Note_on_c, 10, 69, 0
12, 77040, Note_on_c, 10, 74, 55
12, 77100, Note_on_c, 10, 74, 0
12, 77205, Note_on_c, 10, 72, 55
12, 77250, Note_on_c, 10, 72, 0
12, 77280, Note_on_c, 10, 72, 55
12, 77340, Note_on_c, 10, 72, 0
12, 77340, Note_on_c, 10, 71, 55
12, 77400, Note_on_c, 10, 71, 0
12, 77460, Note_on_c, 10, 72, 55
12, 77490, Note_on_c, 10, 72, 0
12, 77520, Note_on_c, 10, 72, 55
12, 77580, Note_on_c, 10, 72, 0
12, 77580, Note_on_c, 10, 71, 55
12, 77640, Note_on_c, 10, 71, 0
12, 77700, Note_on_c, 10, 60, 55
12, 77745, Note_on_c, 10, 60, 0
12, 77760, Note_on_c, 10, 59, 55
12, 77805, Note_on_c, 10, 59, 0
12, 77820, Note_on_c, 10, 59, 55
12, 77865, Note_on_c, 10, 59, 0
12, 77880, Note_on_c, 10, 60, 55
12, 77925, Note_on_c, 10, 60, 0
12, 77940, Note_on_c, 10, 60, 55
12, 77985, Note_on_c, 10, 60, 0
12, 78000, Note_on_c, 10, 62, 55
12, 78045, Note_on_c, 10, 62, 0
12, 78060, Note_on_c, 10, 62, 55
12, 78105, Note_on_c, 10, 62, 0
12, 78120, Note_on_c, 10, 59, 55
12, 78165, Note_on_c, 10, 59, 0
12, 78180, Note_on_c, 10, 59, 55
12, 78225, Note_on_c, 10, 59, 0
12, 78240, Note_on_c, 10, 57, 55
12, 78285, Note_on_c, 10, 57, 0
12, 78300, Note_on_c, 10, 57, 55
12, 78345, Note_on_c, 10, 57, 0
12, 78360, Note_on_c, 10, 59, 55
12, 78405, Note_on_c, 10, 59, 0
12, 78420, Note_on_c, 10, 59, 55
12, 78465, Note_on_c, 10, 59, 0
12, 78480, Note_on_c, 10, 60, 55
12, 78525, Note_on_c, 10, 60, 0
12, 78540, Note_on_c, 10, 60, 55
12, 78585, Note_on_c, 10, 60, 0
12, 78600, Note_on_c, 10, 57, 55
12, 78645, Note_on_c, 10, 57, 0
12, 78660, Note_on_c, 10, 57, 55
12, 78705, Note_on_c, 10, 57, 0
12, 78720, Note_on_c, 10, 59, 55
12, 78765, Note_on_c, 10, 59, 0
12, 78780, Note_on_c, 10, 59, 55
12, 78825, Note_on_c, 10, 59, 0
12, 78840, Note_on_c, 10, 60, 55
12, 78885, Note_on_c, 10, 60, 0
12, 78900, Note_on_c, 10, 60, 55
12, 78945, Note_on_c, 10, 60, 0
12, 78960, Note_on_c, 10, 62, 55
12, 79005, Note_on_c, 10, 62, 0
12, 79020, Note_on_c, 10, 62, 55
12, 79065, Note_on_c, 10, 62, 0
12, 79080, Note_on_c, 10, 59, 55
12, 79125, Note_on_c, 10, 59, 0
12, 79140, Note_on_c, 10, 59, 55
12, 79185, Note_on_c, 10, 59, 0
12, 79200, Note_on_c, 10, 57, 55
12, 79245, Note_on_c, 10, 57, 0
12, 79260, Note_on_c, 10, 57, 55
12, 79305, Note_on_c, 10, 57, 0
12, 79320, Note_on_c, 10, 59, 55
12, 79365, Note_on_c, 10, 59, 0
12, 79380, Note_on_c, 10, 59, 55
12, 79425, Note_on_c, 10, 59, 0
12, 79440, Note_on_c, 10, 60, 55
12, 79485, Note_on_c, 10, 60, 0
12, 79500, Note_on_c, 10, 60, 55
12, 79545, Note_on_c, 10, 60, 0
12, 79560, Note_on_c, 10, 57, 55
12, 79605, Note_on_c, 10, 57, 0
12, 79620, Note_on_c, 10, 57, 55
12, 79665, Note_on_c, 10, 57, 0
12, 79680, Note_on_c, 10, 59, 55
12, 79800, Note_on_c, 10, 59, 0
12, 79920, Note_on_c, 10, 71, 85
12, 79920, Note_on_c, 10, 64, 85
12, 80160, Note_on_c, 10, 64, 0
12, 80160, Note_on_c, 10, 71, 0
12, 80160, Note_on_c, 10, 69, 85
12, 80280, Note_on_c, 10, 69, 0
12, 80400, Note_on_c, 10, 62, 85
12, 80400, Note_on_c, 10, 69, 85
12, 80640, Note_on_c, 10, 69, 0
12, 80640, Note_on_c, 10, 62, 0
12, 80640, Note_on_c, 10, 67, 85
12, 80685, Note_on_c, 10, 67, 0
12, 80700, Note_on_c, 10, 71, 85
12, 80730, Note_on_c, 10, 71, 0
12, 80760, Note_on_c, 10, 72, 85
12, 80790, Note_on_c, 10, 72, 0
12, 80820, Note_on_c, 10, 74, 85
12, 80850, Note_on_c, 10, 74, 0
12, 80880, Note_on_c, 10, 72, 85
12, 80940, Note_on_c, 10, 72, 0
12, 80940, Note_on_c, 10, 74, 85
12, 80970, Note_on_c, 10, 74, 0
12, 80970, Note_on_c, 10, 76, 85
12, 81000, Note_on_c, 10, 76, 0
12, 81000, Note_on_c, 10, 74, 85
12, 81045, Note_on_c, 10, 74, 0
12, 81060, Note_on_c, 10, 72, 85
12, 81090, Note_on_c, 10, 72, 0
12, 81120, Note_on_c, 10, 72, 85
12, 81180, Note_on_c, 10, 72, 0
12, 81180, Note_on_c, 10, 71, 85
12, 81225, Note_on_c, 10, 71, 0
12, 81240, Note_on_c, 10, 67, 85
12, 81270, Note_on_c, 10, 67, 0
12, 81300, Note_on_c, 10, 71, 85
12, 81330, Note_on_c, 10, 71, 0
12, 81360, Note_on_c, 10, 71, 85
12, 81420, Note_on_c, 10, 71, 0
12, 81420, Note_on_c, 10, 69, 85
12, 81465, Note_on_c, 10, 69, 0
12, 81480, Note_on_c, 10, 67, 85
12, 81510, Note_on_c, 10, 67, 0
12, 81540, Note_on_c, 10, 66, 85
12, 81570, Note_on_c, 10, 66, 0
12, 81600, Note_on_c, 10, 67, 85
12, 81645, Note_on_c, 10, 67, 0
12, 81660, Note_on_c, 10, 59, 53
12, 81705, Note_on_c, 10, 59, 0
12, 81720, Note_on_c, 10, 60, 53
12, 81765, Note_on_c, 10, 60, 0
12, 81780, Note_on_c, 10, 60, 53
12, 81825, Note_on_c, 10, 60, 0
12, 81840, Note_on_c, 10, 62, 53
12, 81885, Note_on_c, 10, 62, 0
12, 81900, Note_on_c, 10, 62, 53
12, 81945, Note_on_c, 10, 62, 0
12, 81960, Note_on_c, 10, 59, 53
12, 82005, Note_on_c, 10, 59, 0
12, 82020, Note_on_c, 10, 59, 53
12, 82065, Note_on_c, 10, 59, 0
12, 82080, Note_on_c, 10, 57, 55
12, 82125, Note_on_c, 10, 57, 0
12, 82140, Note_on_c, 10, 57, 55
12, 82185, Note_on_c, 10, 57, 0
12, 82200, Note_on_c, 10, 59, 55
12, 82245, Note_on_c, 10, 59, 0
12, 82260, Note_on_c, 10, 59, 55
12, 82305, Note_on_c, 10, 59, 0
12, 82320, Note_on_c, 10, 60, 55
12, 82365, Note_on_c, 10, 60, 0
12, 82380, Note_on_c, 10, 60, 55
12, 82425, Note_on_c, 10, 60, 0
12, 82440, Note_on_c, 10, 57, 55
12, 82485, Note_on_c, 10, 57, 0
12, 82500, Note_on_c, 10, 57, 55
12, 82545, Note_on_c, 10, 57, 0
12, 82560, Note_on_c, 10, 59, 55
12, 82605, Note_on_c, 10, 59, 0
12, 82620, Note_on_c, 10, 71, 55
12, 82665, Note_on_c, 10, 71, 0
12, 82680, Note_on_c, 10, 72, 55
12, 82725, Note_on_c, 10, 72, 0
12, 82740, Note_on_c, 10, 72, 55
12, 82785, Note_on_c, 10, 72, 0
12, 82800, Note_on_c, 10, 74, 55
12, 82845, Note_on_c, 10, 74, 0
12, 82860, Note_on_c, 10, 74, 55
12, 82905, Note_on_c, 10, 74, 0
12, 82920, Note_on_c, 10, 71, 55
12, 82965, Note_on_c, 10, 71, 0
12, 82980, Note_on_c, 10, 71, 55
12, 83025, Note_on_c, 10, 71, 0
12, 83040, Note_on_c, 10, 69, 55
12, 83085, Note_on_c, 10, 69, 0
12, 83100, Note_on_c, 10, 69, 55
12, 83145, Note_on_c, 10, 69, 0
12, 83160, Note_on_c, 10, 71, 55
12, 83205, Note_on_c, 10, 71, 0
12, 83220, Note_on_c, 10, 71, 55
12, 83265, Note_on_c, 10, 71, 0
12, 83280, Note_on_c, 10, 72, 55
12, 83325, Note_on_c, 10, 72, 0
12, 83340, Note_on_c, 10, 72, 55
12, 83385, Note_on_c, 10, 72, 0
12, 83400, Note_on_c, 10, 69, 55
12, 83445, Note_on_c, 10, 69, 0
12, 83460, Note_on_c, 10, 69, 55
12, 83505, Note_on_c, 10, 69, 0
12, 83520, Note_on_c, 10, 71, 58
12, 83640, Note_on_c, 10, 71, 0
12, 83760, Note_on_c, 10, 83, 85
12, 84000, Note_on_c, 10, 83, 0
12, 84000, Note_on_c, 10, 81, 85
12, 84120, Note_on_c, 10, 81, 0
12, 84240, Note_on_c, 10, 81, 85
12, 84480, Note_on_c, 10, 81, 0
12, 84480, Note_on_c, 10, 79, 85
12, 84525, Note_on_c, 10, 79, 0
12, 84540, Note_on_c, 10, 71, 85
12, 84570, Note_on_c, 10, 71, 0
12, 84600, Note_on_c, 10, 72, 85
12, 84630, Note_on_c, 10, 72, 0
12, 84660, Note_on_c, 10, 74, 85
12, 84690, Note_on_c, 10, 74, 0
12, 84720, Note_on_c, 10, 72, 85
12, 84780, Note_on_c, 10, 72, 0
12, 84780, Note_on_c, 10, 74, 85
12, 84810, Note_on_c, 10, 74, 0
12, 84810, Note_on_c, 10, 76, 85
12, 84840, Note_on_c, 10, 76, 0
12, 84840, Note_on_c, 10, 74, 85
12, 84885, Note_on_c, 10, 74, 0
12, 84900, Note_on_c, 10, 72, 85
12, 84930, Note_on_c, 10, 72, 0
12, 84960, Note_on_c, 10, 71, 85
12, 84990, Note_on_c, 10, 71, 0
12, 85020, Note_on_c, 10, 74, 85
12, 85050, Note_on_c, 10, 74, 0
12, 85080, Note_on_c, 10, 79, 85
12, 85110, Note_on_c, 10, 79, 0
12, 85140, Note_on_c, 10, 83, 85
12, 85170, Note_on_c, 10, 83, 0
12, 85200, Note_on_c, 10, 83, 85
12, 85260, Note_on_c, 10, 83, 0
12, 85260, Note_on_c, 10, 81, 85
12, 85305, Note_on_c, 10, 81, 0
12, 85320, Note_on_c, 10, 79, 85
12, 85350, Note_on_c, 10, 79, 0
12, 85380, Note_on_c, 10, 78, 85
12, 85410, Note_on_c, 10, 78, 0
12, 85442, Note_on_c, 10, 79, 85
12, 85487, Note_on_c, 10, 79, 0
12, 85502, Note_on_c, 10, 62, 85
12, 85547, Note_on_c, 10, 62, 0
12, 85562, Note_on_c, 10, 64, 85
12, 85607, Note_on_c, 10, 64, 0
12, 85622, Note_on_c, 10, 66, 85
12, 85667, Note_on_c, 10, 66, 0
12, 85682, Note_on_c, 10, 67, 85
12, 85727, Note_on_c, 10, 67, 0
12, 85742, Note_on_c, 10, 67, 85
12, 85787, Note_on_c, 10, 67, 0
12, 85802, Note_on_c, 10, 69, 85
12, 85817, Note_on_c, 10, 69, 0
12, 85817, Note_on_c, 10, 71, 85
12, 85832, Note_on_c, 10, 71, 0
12, 85832, Note_on_c, 10, 69, 85
12, 85847, Note_on_c, 10, 69, 0
12, 85847, Note_on_c, 10, 71, 85
12, 85862, Note_on_c, 10, 71, 0
12, 85862, Note_on_c, 10, 67, 85
12, 85892, Note_on_c, 10, 67, 0
12, 85892, Note_on_c, 10, 69, 85
12, 85922, Note_on_c, 10, 69, 0
12, 85922, Note_on_c, 10, 71, 85
12, 85967, Note_on_c, 10, 71, 0
12, 85982, Note_on_c, 10, 66, 85
12, 86027, Note_on_c, 10, 66, 0
12, 86042, Note_on_c, 10, 67, 85
12, 86087, Note_on_c, 10, 67, 0
12, 86102, Note_on_c, 10, 69, 85
12, 86147, Note_on_c, 10, 69, 0
12, 86162, Note_on_c, 10, 71, 85
12, 86207, Note_on_c, 10, 71, 0
12, 86222, Note_on_c, 10, 71, 85
12, 86267, Note_on_c, 10, 71, 0
12, 86282, Note_on_c, 10, 72, 85
12, 86297, Note_on_c, 10, 72, 0
12, 86297, Note_on_c, 10, 74, 85
12, 86312, Note_on_c, 10, 74, 0
12, 86312, Note_on_c, 10, 72, 85
12, 86327, Note_on_c, 10, 72, 0
12, 86327, Note_on_c, 10, 74, 85
12, 86342, Note_on_c, 10, 74, 0
12, 86342, Note_on_c, 10, 71, 85
12, 86372, Note_on_c, 10, 71, 0
12, 86372, Note_on_c, 10, 72, 85
12, 86400, Note_on_c, 10, 74, 85
12, 86402, Note_on_c, 10, 72, 0
12, 86445, Note_on_c, 10, 74, 0
12, 86460, Note_on_c, 10, 74, 85
12, 86505, Note_on_c, 10, 74, 0
12, 86520, Note_on_c, 10, 75, 85
12, 86535, Note_on_c, 10, 75, 0
12, 86535, Note_on_c, 10, 76, 85
12, 86550, Note_on_c, 10, 76, 0
12, 86550, Note_on_c, 10, 75, 85
12, 86565, Note_on_c, 10, 75, 0
12, 86565, Note_on_c, 10, 76, 85
12, 86580, Note_on_c, 10, 76, 0
12, 86580, Note_on_c, 10, 73, 85
12, 86610, Note_on_c, 10, 73, 0
12, 86610, Note_on_c, 10, 75, 85
12, 86640, Note_on_c, 10, 75, 0
12, 86640, Note_on_c, 10, 76, 85
12, 86760, Note_on_c, 10, 76, 0
12, 86880, Note_on_c, 10, 60, 70
12, 87360, Note_on_c, 10, 60, 0
12, 87360, Note_on_c, 10, 59, 70
12, 87480, Note_on_c, 10, 59, 0
12, 87840, Note_on_c, 10, 60, 70
12, 88320, Note_on_c, 10, 60, 0
12, 88320, Note_on_c, 10, 59, 70
12, 88440, Note_on_c, 10, 59, 0
12, 88560, Note_on_c, 10, 71, 70
12, 88680, Note_on_c, 10, 71, 0
12, 88800, Note_on_c, 10, 76, 92
12, 88920, Note_on_c, 10, 76, 0
12, 89040, Note_on_c, 10, 72, 106
12, 89040, Note_on_c, 10, 78, 106
12, 89160, Note_on_c, 10, 78, 0
12, 89160, Note_on_c, 10, 72, 0
12, 89280, Note_on_c, 10, 59, 95
12, 89280, Note_on_c, 10, 62, 95
12, 89300, Note_on_c, 10, 62, 0
12, 89300, Note_on_c, 10, 59, 0
12, 89310, Note_on_c, 10, 59, 95
12, 89310, Note_on_c, 10, 62, 95
12, 89330, Note_on_c, 10, 62, 0
12, 89330, Note_on_c, 10, 59, 0
12, 89340, Note_on_c, 10, 59, 95
12, 89340, Note_on_c, 10, 62, 95
12, 89360, Note_on_c, 10, 62, 0
12, 89360, Note_on_c, 10, 59, 0
12, 89370, Note_on_c, 10, 59, 95
12, 89370, Note_on_c, 10, 62, 95
12, 89390, Note_on_c, 10, 62, 0
12, 89390, Note_on_c, 10, 59, 0
12, 89400, Note_on_c, 10, 59, 95
12, 89400, Note_on_c, 10, 62, 95
12, 89420, Note_on_c, 10, 62, 0
12, 89420, Note_on_c, 10, 59, 0
12, 89430, Note_on_c, 10, 59, 94
12, 89430, Note_on_c, 10, 62, 94
12, 89450, Note_on_c, 10, 62, 0
12, 89450, Note_on_c, 10, 59, 0
12, 89460, Note_on_c, 10, 59, 94
12, 89460, Note_on_c, 10, 62, 94
12, 89480, Note_on_c, 10, 62, 0
12, 89480, Note_on_c, 10, 59, 0
12, 89490, Note_on_c, 10, 59, 94
12, 89490, Note_on_c, 10, 62, 94
12, 89510, Note_on_c, 10, 62, 0
12, 89510, Note_on_c, 10, 59, 0
12, 89520, Note_on_c, 10, 59, 94
12, 89520, Note_on_c, 10, 62, 94
12, 89540, Note_on_c, 10, 62, 0
12, 89540, Note_on_c, 10, 59, 0
12, 89550, Note_on_c, 10, 59, 94
12, 89550, Note_on_c, 10, 62, 94
12, 89570, Note_on_c, 10, 62, 0
12, 89570, Note_on_c, 10, 59, 0
12, 89580, Note_on_c, 10, 59, 94
12, 89580, Note_on_c, 10, 62, 94
12, 89600, Note_on_c, 10, 62, 0
12, 89600, Note_on_c, 10, 59, 0
12, 89610, Note_on_c, 10, 59, 94
12, 89610, Note_on_c, 10, 62, 94
12, 89630, Note_on_c, 10, 62, 0
12, 89630, Note_on_c, 10, 59, 0
12, 89640, Note_on_c, 10, 59, 94
12, 89640, Note_on_c, 10, 62, 94
12, 89660, Note_on_c, 10, 62, 0
12, 89660, Note_on_c, 10, 59, 0
12, 89670, Note_on_c, 10, 59, 94
12, 89670, Note_on_c, 10, 62, 94
12, 89690, Note_on_c, 10, 62, 0
12, 89690, Note_on_c, 10, 59, 0
12, 89700, Note_on_c, 10, 59, 94
12, 89700, Note_on_c, 10, 62, 94
12, 89720, Note_on_c, 10, 62, 0
12, 89720, Note_on_c, 10, 59, 0
12, 89730, Note_on_c, 10, 59, 94
12, 89730, Note_on_c, 10, 62, 94
12, 89750, Note_on_c, 10, 62, 0
12, 89750, Note_on_c, 10, 59, 0
12, 89760, Note_on_c, 10, 59, 94
12, 89760, Note_on_c, 10, 62, 94
12, 89780, Note_on_c, 10, 62, 0
12, 89780, Note_on_c, 10, 59, 0
12, 89790, Note_on_c, 10, 59, 94
12, 89790, Note_on_c, 10, 62, 94
12, 89810, Note_on_c, 10, 62, 0
12, 89810, Note_on_c, 10, 59, 0
12, 89820, Note_on_c, 10, 59, 94
12, 89820, Note_on_c, 10, 62, 94
12, 89840, Note_on_c, 10, 62, 0
12, 89840, Note_on_c, 10, 59, 0
12, 89850, Note_on_c, 10, 59, 94
12, 89850, Note_on_c, 10, 62, 94
12, 89870, Note_on_c, 10, 62, 0
12, 89870, Note_on_c, 10, 59, 0
12, 89880, Note_on_c, 10, 59, 94
12, 89880, Note_on_c, 10, 62, 94
12, 89900, Note_on_c, 10, 62, 0
12, 89900, Note_on_c, 10, 59, 0
12, 89910, Note_on_c, 10, 59, 93
12, 89910, Note_on_c, 10, 62, 93
12, 89930, Note_on_c, 10, 62, 0
12, 89930, Note_on_c, 10, 59, 0
12, 89940, Note_on_c, 10, 59, 93
12, 89940, Note_on_c, 10, 62, 93
12, 89960, Note_on_c, 10, 62, 0
12, 89960, Note_on_c, 10, 59, 0
12, 89970, Note_on_c, 10, 59, 91
12, 89970, Note_on_c, 10, 62, 91
12, 89990, Note_on_c, 10, 62, 0
12, 89990, Note_on_c, 10, 59, 0
12, 90000, Note_on_c, 10, 59, 90
12, 90000, Note_on_c, 10, 62, 90
12, 90020, Note_on_c, 10, 62, 0
12, 90020, Note_on_c, 10, 59, 0
12, 90030, Note_on_c, 10, 59, 90
12, 90030, Note_on_c, 10, 62, 90
12, 90050, Note_on_c, 10, 62, 0
12, 90050, Note_on_c, 10, 59, 0
12, 90060, Note_on_c, 10, 59, 90
12, 90060, Note_on_c, 10, 62, 90
12, 90080, Note_on_c, 10, 62, 0
12, 90080, Note_on_c, 10, 59, 0
12, 90090, Note_on_c, 10, 59, 90
12, 90090, Note_on_c, 10, 62, 90
12, 90110, Note_on_c, 10, 62, 0
12, 90110, Note_on_c, 10, 59, 0
12, 90120, Note_on_c, 10, 60, 90
12, 90120, Note_on_c, 10, 62, 90
12, 90140, Note_on_c, 10, 62, 0
12, 90140, Note_on_c, 10, 60, 0
12, 90150, Note_on_c, 10, 60, 89
12, 90150, Note_on_c, 10, 62, 89
12, 90170, Note_on_c, 10, 62, 0
12, 90170, Note_on_c, 10, 60, 0
12, 90180, Note_on_c, 10, 60, 89
12, 90180, Note_on_c, 10, 62, 89
12, 90200, Note_on_c, 10, 62, 0
12, 90200, Note_on_c, 10, 60, 0
12, 90210, Note_on_c, 10, 60, 89
12, 90210, Note_on_c, 10, 62, 89
12, 90230, Note_on_c, 10, 62, 0
12, 90230, Note_on_c, 10, 60, 0
12, 90240, Note_on_c, 10, 59, 89
12, 90240, Note_on_c, 10, 62, 89
12, 90260, Note_on_c, 10, 62, 0
12, 90260, Note_on_c, 10, 59, 0
12, 90270, Note_on_c, 10, 59, 89
12, 90270, Note_on_c, 10, 62, 89
12, 90290, Note_on_c, 10, 62, 0
12, 90290, Note_on_c, 10, 59, 0
12, 90300, Note_on_c, 10, 59, 89
12, 90300, Note_on_c, 10, 62, 89
12, 90320, Note_on_c, 10, 62, 0
12, 90320, Note_on_c, 10, 59, 0
12, 90330, Note_on_c, 10, 59, 90
12, 90330, Note_on_c, 10, 62, 90
12, 90350, Note_on_c, 10, 62, 0
12, 90350, Note_on_c, 10, 59, 0
12, 90360, Note_on_c, 10, 59, 90
12, 90360, Note_on_c, 10, 62, 90
12, 90380, Note_on_c, 10, 62, 0
12, 90380, Note_on_c, 10, 59, 0
12, 90390, Note_on_c, 10, 59, 90
12, 90390, Note_on_c, 10, 62, 90
12, 90410, Note_on_c, 10, 62, 0
12, 90410, Note_on_c, 10, 59, 0
12, 90420, Note_on_c, 10, 59, 92
12, 90420, Note_on_c, 10, 62, 92
12, 90440, Note_on_c, 10, 62, 0
12, 90440, Note_on_c, 10, 59, 0
12, 90450, Note_on_c, 10, 59, 93
12, 90450, Note_on_c, 10, 62, 93
12, 90470, Note_on_c, 10, 62, 0
12, 90470, Note_on_c, 10, 59, 0
12, 90480, Note_on_c, 10, 59, 94
12, 90480, Note_on_c, 10, 62, 94
12, 90500, Note_on_c, 10, 62, 0
12, 90500, Note_on_c, 10, 59, 0
12, 90510, Note_on_c, 10, 59, 95
12, 90510, Note_on_c, 10, 62, 95
12, 90530, Note_on_c, 10, 62, 0
12, 90530, Note_on_c, 10, 59, 0
12, 90540, Note_on_c, 10, 59, 96
12, 90540, Note_on_c, 10, 62, 96
12, 90560, Note_on_c, 10, 62, 0
12, 90560, Note_on_c, 10, 59, 0
12, 90570, Note_on_c, 10, 59, 96
12, 90570, Note_on_c, 10, 62, 96
12, 90590, Note_on_c, 10, 62, 0
12, 90590, Note_on_c, 10, 59, 0
12, 90600, Note_on_c, 10, 59, 96
12, 90600, Note_on_c, 10, 62, 96
12, 90620, Note_on_c, 10, 62, 0
12, 90620, Note_on_c, 10, 59, 0
12, 90630, Note_on_c, 10, 59, 96
12, 90630, Note_on_c, 10, 62, 96
12, 90650, Note_on_c, 10, 62, 0
12, 90650, Note_on_c, 10, 59, 0
12, 90660, Note_on_c, 10, 59, 95
12, 90660, Note_on_c, 10, 62, 95
12, 90680, Note_on_c, 10, 62, 0
12, 90680, Note_on_c, 10, 59, 0
12, 90690, Note_on_c, 10, 59, 94
12, 90690, Note_on_c, 10, 62, 94
12, 90710, Note_on_c, 10, 62, 0
12, 90710, Note_on_c, 10, 59, 0
12, 90720, Note_on_c, 10, 59, 94
12, 90720, Note_on_c, 10, 62, 94
12, 90740, Note_on_c, 10, 62, 0
12, 90740, Note_on_c, 10, 59, 0
12, 90750, Note_on_c, 10, 59, 93
12, 90750, Note_on_c, 10, 62, 93
12, 90770, Note_on_c, 10, 62, 0
12, 90770, Note_on_c, 10, 59, 0
12, 90780, Note_on_c, 10, 59, 93
12, 90780, Note_on_c, 10, 62, 93
12, 90800, Note_on_c, 10, 62, 0
12, 90800, Note_on_c, 10, 59, 0
12, 90810, Note_on_c, 10, 59, 93
12, 90810, Note_on_c, 10, 62, 93
12, 90830, Note_on_c, 10, 62, 0
12, 90830, Note_on_c, 10, 59, 0
12, 90840, Note_on_c, 10, 59, 92
12, 90840, Note_on_c, 10, 62, 92
12, 90860, Note_on_c, 10, 62, 0
12, 90860, Note_on_c, 10, 59, 0
12, 90870, Note_on_c, 10, 59, 91
12, 90870, Note_on_c, 10, 62, 91
12, 90890, Note_on_c, 10, 62, 0
12, 90890, Note_on_c, 10, 59, 0
12, 90900, Note_on_c, 10, 59, 90
12, 90900, Note_on_c, 10, 62, 90
12, 90920, Note_on_c, 10, 62, 0
12, 90920, Note_on_c, 10, 59, 0
12, 90930, Note_on_c, 10, 59, 90
12, 90930, Note_on_c, 10, 62, 90
12, 90950, Note_on_c, 10, 62, 0
12, 90950, Note_on_c, 10, 59, 0
12, 90960, Note_on_c, 10, 59, 90
12, 90960, Note_on_c, 10, 62, 90
12, 90980, Note_on_c, 10, 62, 0
12, 90980, Note_on_c, 10, 59, 0
12, 90990, Note_on_c, 10, 59, 90
12, 90990, Note_on_c, 10, 62, 90
12, 91010, Note_on_c, 10, 62, 0
12, 91010, Note_on_c, 10, 59, 0
12, 91020, Note_on_c, 10, 59, 90
12, 91020, Note_on_c, 10, 62, 90
12, 91040, Note_on_c, 10, 62, 0
12, 91040, Note_on_c, 10, 59, 0
12, 91050, Note_on_c, 10, 59, 90
12, 91050, Note_on_c, 10, 62, 90
12, 91070, Note_on_c, 10, 62, 0
12, 91070, Note_on_c, 10, 59, 0
12, 91080, Note_on_c, 10, 60, 91
12, 91080, Note_on_c, 10, 62, 91
12, 91100, Note_on_c, 10, 62, 0
12, 91100, Note_on_c, 10, 60, 0
12, 91110, Note_on_c, 10, 60, 94
12, 91110, Note_on_c, 10, 62, 94
12, 91130, Note_on_c, 10, 62, 0
12, 91130, Note_on_c, 10, 60, 0
12, 91140, Note_on_c, 10, 60, 95
12, 91140, Note_on_c, 10, 62, 95
12, 91160, Note_on_c, 10, 62, 0
12, 91160, Note_on_c, 10, 60, 0
12, 91170, Note_on_c, 10, 60, 98
12, 91170, Note_on_c, 10, 62, 98
12, 91190, Note_on_c, 10, 62, 0
12, 91190, Note_on_c, 10, 60, 0
12, 91200, Note_on_c, 10, 62, 98
12, 91200, Note_on_c, 10, 59, 98
12, 91320, Note_on_c, 10, 59, 0
12, 91320, Note_on_c, 10, 62, 0
12, 91440, Note_on_c, 10, 79, 103
12, 91440, Note_on_c, 10, 71, 103
12, 91440, Note_on_c, 10, 62, 103
12, 91560, Note_on_c, 10, 62, 0
12, 91560, Note_on_c, 10, 71, 0
12, 91560, Note_on_c, 10, 79, 0
12, 91682, Note_on_c, 10, 62, 103
12, 91682, Note_on_c, 10, 71, 103
12, 91682, Note_on_c, 10, 79, 103
12, 91782, Note_on_c, 10, 79, 0
12, 91782, Note_on_c, 10, 71, 0
12, 91782, Note_on_c, 10, 62, 0
12, 91802, Note_on_c, 10, 55, 103
12, 91802, Note_on_c, 10, 67, 103
12, 91862, Note_on_c, 10, 67, 0
12, 91862, Note_on_c, 10, 55, 0
12, 91892, Note_on_c, 10, 55, 103
12, 91892, Note_on_c, 10, 67, 103
12, 91907, Note_on_c, 10, 67, 0
12, 91907, Note_on_c, 10, 55, 0
12, 91922, Note_on_c, 10, 55, 103
12, 91922, Note_on_c, 10, 67, 103
12, 92042, Note_on_c, 10, 67, 0
12, 92042, Note_on_c, 10, 55, 0
12, 92042, End_track
13, 0, Start_track
13, 0, MIDI_port, 0
13, 0, Title_t, "20 Sep 1994"
13, 0, Program_c, 11, 48
13, 0, Control_c, 11, 7, 105
13, 0, Control_c, 11, 10, 68
13, 0, Note_on_c, 11, 67, 85
13, 120, Note_on_c, 11, 67, 0
13, 180, Note_on_c, 11, 62, 85
13, 210, Note_on_c, 11, 62, 0
13, 240, Note_on_c, 11, 67, 85
13, 360, Note_on_c, 11, 67, 0
13, 420, Note_on_c, 11, 62, 85
13, 450, Note_on_c, 11, 62, 0
13, 480, Note_on_c, 11, 67, 85
13, 510, Note_on_c, 11, 67, 0
13, 540, Note_on_c, 11, 62, 85
13, 570, Note_on_c, 11, 62, 0
13, 600, Note_on_c, 11, 67, 85
13, 630, Note_on_c, 11, 67, 0
13, 660, Note_on_c, 11, 71, 85
13, 690, Note_on_c, 11, 71, 0
13, 720, Note_on_c, 11, 74, 85
13, 840, Note_on_c, 11, 74, 0
13, 960, Note_on_c, 11, 72, 85
13, 1080, Note_on_c, 11, 72, 0
13, 1140, Note_on_c, 11, 69, 85
13, 1170, Note_on_c, 11, 69, 0
13, 1200, Note_on_c, 11, 72, 85
13, 1320, Note_on_c, 11, 72, 0
13, 1380, Note_on_c, 11, 69, 85
13, 1410, Note_on_c, 11, 69, 0
13, 1440, Note_on_c, 11, 72, 85
13, 1470, Note_on_c, 11, 72, 0
13, 1500, Note_on_c, 11, 69, 85
13, 1530, Note_on_c, 11, 69, 0
13, 1560, Note_on_c, 11, 66, 85
13, 1590, Note_on_c, 11, 66, 0
13, 1620, Note_on_c, 11, 69, 85
13, 1650, Note_on_c, 11, 69, 0
13, 1680, Note_on_c, 11, 62, 85
13, 1800, Note_on_c, 11, 62, 0
13, 1920, Note_on_c, 11, 67, 85
13, 1965, Note_on_c, 11, 67, 0
13, 1980, Note_on_c, 11, 67, 85
13, 2025, Note_on_c, 11, 67, 0
13, 2040, Note_on_c, 11, 67, 85
13, 2085, Note_on_c, 11, 67, 0
13, 2100, Note_on_c, 11, 67, 85
13, 2145, Note_on_c, 11, 67, 0
13, 2160, Note_on_c, 11, 67, 85
13, 2205, Note_on_c, 11, 67, 0
13, 2220, Note_on_c, 11, 67, 85
13, 2265, Note_on_c, 11, 67, 0
13, 2280, Note_on_c, 11, 67, 85
13, 2325, Note_on_c, 11, 67, 0
13, 2340, Note_on_c, 11, 67, 85
13, 2385, Note_on_c, 11, 67, 0
13, 2400, Note_on_c, 11, 69, 85
13, 2445, Note_on_c, 11, 69, 0
13, 2460, Note_on_c, 11, 69, 85
13, 2505, Note_on_c, 11, 69, 0
13, 2520, Note_on_c, 11, 69, 85
13, 2565, Note_on_c, 11, 69, 0
13, 2580, Note_on_c, 11, 69, 85
13, 2625, Note_on_c, 11, 69, 0
13, 2640, Note_on_c, 11, 69, 85
13, 2700, Note_on_c, 11, 69, 0
13, 2700, Note_on_c, 11, 72, 85
13, 2745, Note_on_c, 11, 72, 0
13, 2760, Note_on_c, 11, 66, 85
13, 2820, Note_on_c, 11, 66, 0
13, 2820, Note_on_c, 11, 69, 85
13, 2865, Note_on_c, 11, 69, 0
13, 2880, Note_on_c, 11, 67, 85
13, 2925, Note_on_c, 11, 67, 0
13, 2940, Note_on_c, 11, 67, 85
13, 2985, Note_on_c, 11, 67, 0
13, 3000, Note_on_c, 11, 67, 85
13, 3045, Note_on_c, 11, 67, 0
13, 3060, Note_on_c, 11, 67, 85
13, 3105, Note_on_c, 11, 67, 0
13, 3120, Note_on_c, 11, 67, 85
13, 3165, Note_on_c, 11, 67, 0
13, 3180, Note_on_c, 11, 67, 85
13, 3225, Note_on_c, 11, 67, 0
13, 3240, Note_on_c, 11, 67, 85
13, 3285, Note_on_c, 11, 67, 0
13, 3300, Note_on_c, 11, 67, 85
13, 3345, Note_on_c, 11, 67, 0
13, 3360, Note_on_c, 11, 69, 85
13, 3405, Note_on_c, 11, 69, 0
13, 3420, Note_on_c, 11, 69, 85
13, 3465, Note_on_c, 11, 69, 0
13, 3480, Note_on_c, 11, 69, 85
13, 3525, Note_on_c, 11, 69, 0
13, 3540, Note_on_c, 11, 69, 85
13, 3585, Note_on_c, 11, 69, 0
13, 3600, Note_on_c, 11, 69, 85
13, 3660, Note_on_c, 11, 69, 0
13, 3660, Note_on_c, 11, 72, 85
13, 3705, Note_on_c, 11, 72, 0
13, 3720, Note_on_c, 11, 66, 85
13, 3780, Note_on_c, 11, 66, 0
13, 3780, Note_on_c, 11, 69, 85
13, 3825, Note_on_c, 11, 69, 0
13, 3840, Note_on_c, 11, 62, 85
13, 3860, Note_on_c, 11, 62, 0
13, 3870, Note_on_c, 11, 62, 85
13, 3890, Note_on_c, 11, 62, 0
13, 3900, Note_on_c, 11, 62, 85
13, 3920, Note_on_c, 11, 62, 0
13, 3930, Note_on_c, 11, 62, 85
13, 3950, Note_on_c, 11, 62, 0
13, 3960, Note_on_c, 11, 62, 85
13, 3980, Note_on_c, 11, 62, 0
13, 3990, Note_on_c, 11, 62, 85
13, 4010, Note_on_c, 11, 62, 0
13, 4020, Note_on_c, 11, 62, 85
13, 4040, Note_on_c, 11, 62, 0
13, 4050, Note_on_c, 11, 62, 85
13, 4070, Note_on_c, 11, 62, 0
13, 4080, Note_on_c, 11, 62, 85
13, 4100, Note_on_c, 11, 62, 0
13, 4110, Note_on_c, 11, 62, 85
13, 4130, Note_on_c, 11, 62, 0
13, 4140, Note_on_c, 11, 62, 85
13, 4160, Note_on_c, 11, 62, 0
13, 4170, Note_on_c, 11, 62, 85
13, 4190, Note_on_c, 11, 62, 0
13, 4200, Note_on_c, 11, 62, 85
13, 4220, Note_on_c, 11, 62, 0
13, 4230, Note_on_c, 11, 62, 85
13, 4250, Note_on_c, 11, 62, 0
13, 4260, Note_on_c, 11, 62, 85
13, 4280, Note_on_c, 11, 62, 0
13, 4290, Note_on_c, 11, 62, 85
13, 4310, Note_on_c, 11, 62, 0
13, 4320, Note_on_c, 11, 62, 85
13, 4340, Note_on_c, 11, 62, 0
13, 4350, Note_on_c, 11, 62, 85
13, 4370, Note_on_c, 11, 62, 0
13, 4380, Note_on_c, 11, 62, 85
13, 4400, Note_on_c, 11, 62, 0
13, 4410, Note_on_c, 11, 62, 85
13, 4430, Note_on_c, 11, 62, 0
13, 4440, Note_on_c, 11, 62, 85
13, 4460, Note_on_c, 11, 62, 0
13, 4470, Note_on_c, 11, 62, 85
13, 4490, Note_on_c, 11, 62, 0
13, 4500, Note_on_c, 11, 62, 85
13, 4520, Note_on_c, 11, 62, 0
13, 4530, Note_on_c, 11, 62, 85
13, 4550, Note_on_c, 11, 62, 0
13, 4560, Note_on_c, 11, 62, 85
13, 4680, Note_on_c, 11, 62, 0
13, 5280, Note_on_c, 11, 54, 47
13, 5520, Note_on_c, 11, 54, 0
13, 5520, Note_on_c, 11, 55, 47
13, 5760, Note_on_c, 11, 55, 0
13, 5760, Note_on_c, 11, 60, 47
13, 5850, Note_on_c, 11, 60, 0
13, 5880, Note_on_c, 11, 60, 47
13, 5970, Note_on_c, 11, 60, 0
13, 6000, Note_on_c, 11, 57, 47
13, 6090, Note_on_c, 11, 57, 0
13, 6120, Note_on_c, 11, 50, 47
13, 6210, Note_on_c, 11, 50, 0
13, 6240, Note_on_c, 11, 50, 47
13, 6300, Note_on_c, 11, 50, 0
13, 6360, Note_on_c, 11, 62, 47
13, 6420, Note_on_c, 11, 62, 0
13, 6480, Note_on_c, 11, 62, 47
13, 6600, Note_on_c, 11, 62, 0
13, 7200, Note_on_c, 11, 66, 47
13, 7440, Note_on_c, 11, 66, 0
13, 7440, Note_on_c, 11, 67, 47
13, 7680, Note_on_c, 11, 67, 0
13, 7680, Note_on_c, 11, 60, 47
13, 7770, Note_on_c, 11, 60, 0
13, 7800, Note_on_c, 11, 60, 47
13, 7845, Note_on_c, 11, 60, 0
13, 7860, Note_on_c, 11, 60, 47
13, 7905, Note_on_c, 11, 60, 0
13, 7920, Note_on_c, 11, 57, 47
13, 8010, Note_on_c, 11, 57, 0
13, 8040, Note_on_c, 11, 57, 47
13, 8085, Note_on_c, 11, 57, 0
13, 8100, Note_on_c, 11, 57, 47
13, 8145, Note_on_c, 11, 57, 0
13, 8160, Note_on_c, 11, 55, 92
13, 8205, Note_on_c, 11, 55, 0
13, 8220, Note_on_c, 11, 55, 71
13, 8265, Note_on_c, 11, 55, 0
13, 8280, Note_on_c, 11, 55, 71
13, 8325, Note_on_c, 11, 55, 0
13, 8340, Note_on_c, 11, 55, 71
13, 8385, Note_on_c, 11, 55, 0
13, 8400, Note_on_c, 11, 55, 55
13, 8445, Note_on_c, 11, 55, 0
13, 8460, Note_on_c, 11, 55, 50
13, 8505, Note_on_c, 11, 55, 0
13, 8520, Note_on_c, 11, 55, 50
13, 8565, Note_on_c, 11, 55, 0
13, 8580, Note_on_c, 11, 55, 50
13, 8625, Note_on_c, 11, 55, 0
13, 8640, Note_on_c, 11, 55, 91
13, 8685, Note_on_c, 11, 55, 0
13, 8700, Note_on_c, 11, 55, 65
13, 8745, Note_on_c, 11, 55, 0
13, 8760, Note_on_c, 11, 55, 65
13, 8805, Note_on_c, 11, 55, 0
13, 8820, Note_on_c, 11, 55, 65
13, 8865, Note_on_c, 11, 55, 0
13, 8880, Note_on_c, 11, 55, 46
13, 8925, Note_on_c, 11, 55, 0
13, 8940, Note_on_c, 11, 55, 46
13, 8985, Note_on_c, 11, 55, 0
13, 9000, Note_on_c, 11, 55, 46
13, 9045, Note_on_c, 11, 55, 0
13, 9060, Note_on_c, 11, 55, 46
13, 9105, Note_on_c, 11, 55, 0
13, 9120, Note_on_c, 11, 55, 59
13, 9165, Note_on_c, 11, 55, 0
13, 9180, Note_on_c, 11, 67, 41
13, 9225, Note_on_c, 11, 67, 0
13, 9240, Note_on_c, 11, 67, 46
13, 9285, Note_on_c, 11, 67, 0
13, 9300, Note_on_c, 11, 67, 49
13, 9345, Note_on_c, 11, 67, 0
13, 9360, Note_on_c, 11, 67, 53
13, 9405, Note_on_c, 11, 67, 0
13, 9420, Note_on_c, 11, 67, 56
13, 9465, Note_on_c, 11, 67, 0
13, 9480, Note_on_c, 11, 69, 61
13, 9525, Note_on_c, 11, 69, 0
13, 9540, Note_on_c, 11, 69, 64
13, 9585, Note_on_c, 11, 69, 0
13, 9600, Note_on_c, 11, 67, 68
13, 9645, Note_on_c, 11, 67, 0
13, 9660, Note_on_c, 11, 67, 71
13, 9705, Note_on_c, 11, 67, 0
13, 9720, Note_on_c, 11, 66, 76
13, 9765, Note_on_c, 11, 66, 0
13, 9780, Note_on_c, 11, 66, 79
13, 9825, Note_on_c, 11, 66, 0
13, 9840, Note_on_c, 11, 67, 82
13, 9885, Note_on_c, 11, 67, 0
13, 9900, Note_on_c, 11, 67, 82
13, 9945, Note_on_c, 11, 67, 0
13, 9960, Note_on_c, 11, 64, 82
13, 10005, Note_on_c, 11, 64, 0
13, 10020, Note_on_c, 11, 64, 82
13, 10065, Note_on_c, 11, 64, 0
13, 10080, Note_on_c, 11, 69, 85
13, 10080, Note_on_c, 11, 62, 85
13, 10100, Note_on_c, 11, 62, 0
13, 10100, Note_on_c, 11, 69, 0
13, 10110, Note_on_c, 11, 69, 85
13, 10110, Note_on_c, 11, 62, 85
13, 10130, Note_on_c, 11, 62, 0
13, 10130, Note_on_c, 11, 69, 0
13, 10140, Note_on_c, 11, 69, 85
13, 10140, Note_on_c, 11, 62, 85
13, 10160, Note_on_c, 11, 62, 0
13, 10160, Note_on_c, 11, 69, 0
13, 10170, Note_on_c, 11, 69, 85
13, 10170, Note_on_c, 11, 62, 85
13, 10190, Note_on_c, 11, 62, 0
13, 10190, Note_on_c, 11, 69, 0
13, 10200, Note_on_c, 11, 69, 85
13, 10200, Note_on_c, 11, 62, 85
13, 10220, Note_on_c, 11, 62, 0
13, 10220, Note_on_c, 11, 69, 0
13, 10230, Note_on_c, 11, 69, 85
13, 10230, Note_on_c, 11, 62, 85
13, 10250, Note_on_c, 11, 62, 0
13, 10250, Note_on_c, 11, 69, 0
13, 10260, Note_on_c, 11, 69, 85
13, 10260, Note_on_c, 11, 62, 85
13, 10280, Note_on_c, 11, 62, 0
13, 10280, Note_on_c, 11, 69, 0
13, 10290, Note_on_c, 11, 69, 85
13, 10290, Note_on_c, 11, 62, 85
13, 10310, Note_on_c, 11, 62, 0
13, 10310, Note_on_c, 11, 69, 0
13, 10320, Note_on_c, 11, 69, 85
13, 10320, Note_on_c, 11, 64, 85
13, 10340, Note_on_c, 11, 64, 0
13, 10340, Note_on_c, 11, 69, 0
13, 10350, Note_on_c, 11, 69, 85
13, 10350, Note_on_c, 11, 64, 85
13, 10370, Note_on_c, 11, 64, 0
13, 10370, Note_on_c, 11, 69, 0
13, 10380, Note_on_c, 11, 69, 85
13, 10380, Note_on_c, 11, 64, 85
13, 10400, Note_on_c, 11, 64, 0
13, 10400, Note_on_c, 11, 69, 0
13, 10410, Note_on_c, 11, 69, 85
13, 10410, Note_on_c, 11, 64, 85
13, 10430, Note_on_c, 11, 64, 0
13, 10430, Note_on_c, 11, 69, 0
13, 10440, Note_on_c, 11, 69, 85
13, 10440, Note_on_c, 11, 64, 85
13, 10460, Note_on_c, 11, 64, 0
13, 10460, Note_on_c, 11, 69, 0
13, 10470, Note_on_c, 11, 69, 85
13, 10470, Note_on_c, 11, 64, 85
13, 10490, Note_on_c, 11, 64, 0
13, 10490, Note_on_c, 11, 69, 0
13, 10500, Note_on_c, 11, 69, 85
13, 10500, Note_on_c, 11, 64, 85
13, 10520, Note_on_c, 11, 64, 0
13, 10520, Note_on_c, 11, 69, 0
13, 10530, Note_on_c, 11, 69, 85
13, 10530, Note_on_c, 11, 64, 85
13, 10550, Note_on_c, 11, 64, 0
13, 10550, Note_on_c, 11, 69, 0
13, 10560, Note_on_c, 11, 69, 85
13, 10560, Note_on_c, 11, 62, 85
13, 10580, Note_on_c, 11, 62, 0
13, 10580, Note_on_c, 11, 69, 0
13, 10590, Note_on_c, 11, 69, 85
13, 10590, Note_on_c, 11, 62, 85
13, 10610, Note_on_c, 11, 62, 0
13, 10610, Note_on_c, 11, 69, 0
13, 10620, Note_on_c, 11, 69, 85
13, 10620, Note_on_c, 11, 62, 85
13, 10640, Note_on_c, 11, 62, 0
13, 10640, Note_on_c, 11, 69, 0
13, 10650, Note_on_c, 11, 69, 85
13, 10650, Note_on_c, 11, 62, 85
13, 10670, Note_on_c, 11, 62, 0
13, 10670, Note_on_c, 11, 69, 0
13, 10680, Note_on_c, 11, 69, 85
13, 10680, Note_on_c, 11, 62, 85
13, 10700, Note_on_c, 11, 62, 0
13, 10700, Note_on_c, 11, 69, 0
13, 10710, Note_on_c, 11, 69, 85
13, 10710, Note_on_c, 11, 62, 85
13, 10730, Note_on_c, 11, 62, 0
13, 10730, Note_on_c, 11, 69, 0
13, 10740, Note_on_c, 11, 69, 85
13, 10740, Note_on_c, 11, 62, 85
13, 10760, Note_on_c, 11, 62, 0
13, 10760, Note_on_c, 11, 69, 0
13, 10770, Note_on_c, 11, 69, 85
13, 10770, Note_on_c, 11, 62, 85
13, 10790, Note_on_c, 11, 62, 0
13, 10790, Note_on_c, 11, 69, 0
13, 10800, Note_on_c, 11, 69, 85
13, 10800, Note_on_c, 11, 64, 85
13, 10820, Note_on_c, 11, 64, 0
13, 10820, Note_on_c, 11, 69, 0
13, 10830, Note_on_c, 11, 69, 85
13, 10830, Note_on_c, 11, 64, 85
13, 10850, Note_on_c, 11, 64, 0
13, 10850, Note_on_c, 11, 69, 0
13, 10860, Note_on_c, 11, 69, 85
13, 10860, Note_on_c, 11, 64, 85
13, 10880, Note_on_c, 11, 64, 0
13, 10880, Note_on_c, 11, 69, 0
13, 10890, Note_on_c, 11, 69, 85
13, 10890, Note_on_c, 11, 64, 85
13, 10910, Note_on_c, 11, 64, 0
13, 10910, Note_on_c, 11, 69, 0
13, 10920, Note_on_c, 11, 69, 85
13, 10920, Note_on_c, 11, 64, 85
13, 10940, Note_on_c, 11, 64, 0
13, 10940, Note_on_c, 11, 69, 0
13, 10950, Note_on_c, 11, 69, 85
13, 10950, Note_on_c, 11, 64, 85
13, 10970, Note_on_c, 11, 64, 0
13, 10970, Note_on_c, 11, 69, 0
13, 10980, Note_on_c, 11, 69, 85
13, 10980, Note_on_c, 11, 64, 85
13, 11000, Note_on_c, 11, 64, 0
13, 11000, Note_on_c, 11, 69, 0
13, 11010, Note_on_c, 11, 69, 85
13, 11010, Note_on_c, 11, 64, 85
13, 11030, Note_on_c, 11, 64, 0
13, 11030, Note_on_c, 11, 69, 0
13, 11040, Note_on_c, 11, 62, 85
13, 11085, Note_on_c, 11, 62, 0
13, 11100, Note_on_c, 11, 64, 85
13, 11145, Note_on_c, 11, 64, 0
13, 11160, Note_on_c, 11, 66, 85
13, 11205, Note_on_c, 11, 66, 0
13, 11220, Note_on_c, 11, 64, 85
13, 11265, Note_on_c, 11, 64, 0
13, 11280, Note_on_c, 11, 62, 85
13, 11325, Note_on_c, 11, 62, 0
13, 11340, Note_on_c, 11, 64, 85
13, 11385, Note_on_c, 11, 64, 0
13, 11400, Note_on_c, 11, 66, 85
13, 11445, Note_on_c, 11, 66, 0
13, 11460, Note_on_c, 11, 62, 85
13, 11505, Note_on_c, 11, 62, 0
13, 11520, Note_on_c, 11, 71, 85
13, 11565, Note_on_c, 11, 71, 0
13, 11580, Note_on_c, 11, 69, 85
13, 11625, Note_on_c, 11, 69, 0
13, 11640, Note_on_c, 11, 67, 85
13, 11685, Note_on_c, 11, 67, 0
13, 11700, Note_on_c, 11, 69, 85
13, 11745, Note_on_c, 11, 69, 0
13, 11760, Note_on_c, 11, 71, 85
13, 11805, Note_on_c, 11, 71, 0
13, 11820, Note_on_c, 11, 69, 85
13, 11865, Note_on_c, 11, 69, 0
13, 11880, Note_on_c, 11, 68, 85
13, 11925, Note_on_c, 11, 68, 0
13, 11940, Note_on_c, 11, 71, 85
13, 11985, Note_on_c, 11, 71, 0
13, 12000, Note_on_c, 11, 69, 85
13, 12045, Note_on_c, 11, 69, 0
13, 12060, Note_on_c, 11, 69, 85
13, 12105, Note_on_c, 11, 69, 0
13, 12120, Note_on_c, 11, 69, 85
13, 12165, Note_on_c, 11, 69, 0
13, 12180, Note_on_c, 11, 69, 85
13, 12225, Note_on_c, 11, 69, 0
13, 12240, Note_on_c, 11, 69, 85
13, 12285, Note_on_c, 11, 69, 0
13, 12300, Note_on_c, 11, 69, 85
13, 12345, Note_on_c, 11, 69, 0
13, 12360, Note_on_c, 11, 69, 85
13, 12405, Note_on_c, 11, 69, 0
13, 12420, Note_on_c, 11, 69, 85
13, 12465, Note_on_c, 11, 69, 0
13, 12480, Note_on_c, 11, 69, 85
13, 12525, Note_on_c, 11, 69, 0
13, 12540, Note_on_c, 11, 57, 85
13, 12585, Note_on_c, 11, 57, 0
13, 12600, Note_on_c, 11, 57, 85
13, 12645, Note_on_c, 11, 57, 0
13, 12660, Note_on_c, 11, 57, 85
13, 12705, Note_on_c, 11, 57, 0
13, 12720, Note_on_c, 11, 57, 85
13, 12840, Note_on_c, 11, 57, 0
13, 13320, Note_on_c, 11, 66, 55
13, 13380, Note_on_c, 11, 66, 0
13, 13440, Note_on_c, 11, 59, 55
13, 13500, Note_on_c, 11, 59, 0
13, 13560, Note_on_c, 11, 67, 55
13, 13620, Note_on_c, 11, 67, 0
13, 13680, Note_on_c, 11, 64, 55
13, 13740, Note_on_c, 11, 64, 0
13, 13800, Note_on_c, 11, 61, 55
13, 13860, Note_on_c, 11, 61, 0
13, 14040, Note_on_c, 11, 64, 55
13, 14160, Note_on_c, 11, 64, 0
13, 14160, Note_on_c, 11, 62, 55
13, 14220, Note_on_c, 11, 62, 0
13, 14280, Note_on_c, 11, 64, 55
13, 14340, Note_on_c, 11, 64, 0
13, 14400, Note_on_c, 11, 62, 55
13, 14640, Note_on_c, 11, 62, 0
13, 14640, Note_on_c, 11, 61, 55
13, 14760, Note_on_c, 11, 61, 0
13, 15000, Note_on_c, 11, 61, 55
13, 15120, Note_on_c, 11, 61, 0
13, 15120, Note_on_c, 11, 62, 55
13, 15180, Note_on_c, 11, 62, 0
13, 15240, Note_on_c, 11, 66, 55
13, 15300, Note_on_c, 11, 66, 0
13, 15360, Note_on_c, 11, 59, 55
13, 15420, Note_on_c, 11, 59, 0
13, 15480, Note_on_c, 11, 55, 55
13, 15540, Note_on_c, 11, 55, 0
13, 15600, Note_on_c, 11, 52, 55
13, 15720, Note_on_c, 11, 52, 0
13, 15780, Note_on_c, 11, 64, 55
13, 15825, Note_on_c, 11, 64, 0
13, 15840, Note_on_c, 11, 64, 55
13, 15900, Note_on_c, 11, 64, 0
13, 15900, Note_on_c, 11, 62, 55
13, 15960, Note_on_c, 11, 62, 0
13, 16320, Note_on_c, 11, 62, 55
13, 16365, Note_on_c, 11, 62, 0
13, 16380, Note_on_c, 11, 62, 55
13, 16425, Note_on_c, 11, 62, 0
13, 16440, Note_on_c, 11, 64, 55
13, 16485, Note_on_c, 11, 64, 0
13, 16500, Note_on_c, 11, 64, 55
13, 16545, Note_on_c, 11, 64, 0
13, 16560, Note_on_c, 11, 66, 55
13, 16605, Note_on_c, 11, 66, 0
13, 16620, Note_on_c, 11, 66, 55
13, 16665, Note_on_c, 11, 66, 0
13, 16680, Note_on_c, 11, 62, 55
13, 16725, Note_on_c, 11, 62, 0
13, 16740, Note_on_c, 11, 62, 55
13, 16785, Note_on_c, 11, 62, 0
13, 16800, Note_on_c, 11, 61, 55
13, 16845, Note_on_c, 11, 61, 0
13, 16860, Note_on_c, 11, 61, 55
13, 16905, Note_on_c, 11, 61, 0
13, 16920, Note_on_c, 11, 62, 55
13, 16965, Note_on_c, 11, 62, 0
13, 16980, Note_on_c, 11, 62, 55
13, 17025, Note_on_c, 11, 62, 0
13, 17040, Note_on_c, 11, 64, 55
13, 17085, Note_on_c, 11, 64, 0
13, 17100, Note_on_c, 11, 64, 55
13, 17145, Note_on_c, 11, 64, 0
13, 17160, Note_on_c, 11, 61, 55
13, 17205, Note_on_c, 11, 61, 0
13, 17220, Note_on_c, 11, 61, 55
13, 17265, Note_on_c, 11, 61, 0
13, 17280, Note_on_c, 11, 62, 55
13, 17325, Note_on_c, 11, 62, 0
13, 17340, Note_on_c, 11, 62, 55
13, 17385, Note_on_c, 11, 62, 0
13, 17400, Note_on_c, 11, 64, 55
13, 17445, Note_on_c, 11, 64, 0
13, 17460, Note_on_c, 11, 64, 55
13, 17505, Note_on_c, 11, 64, 0
13, 17520, Note_on_c, 11, 66, 55
13, 17565, Note_on_c, 11, 66, 0
13, 17580, Note_on_c, 11, 66, 55
13, 17625, Note_on_c, 11, 66, 0
13, 17640, Note_on_c, 11, 62, 55
13, 17685, Note_on_c, 11, 62, 0
13, 17700, Note_on_c, 11, 62, 55
13, 17745, Note_on_c, 11, 62, 0
13, 17760, Note_on_c, 11, 61, 55
13, 17805, Note_on_c, 11, 61, 0
13, 17820, Note_on_c, 11, 61, 55
13, 17865, Note_on_c, 11, 61, 0
13, 17880, Note_on_c, 11, 62, 55
13, 17925, Note_on_c, 11, 62, 0
13, 17940, Note_on_c, 11, 62, 55
13, 17985, Note_on_c, 11, 62, 0
13, 18000, Note_on_c, 11, 64, 55
13, 18045, Note_on_c, 11, 64, 0
13, 18060, Note_on_c, 11, 64, 55
13, 18105, Note_on_c, 11, 64, 0
13, 18120, Note_on_c, 11, 61, 55
13, 18165, Note_on_c, 11, 61, 0
13, 18180, Note_on_c, 11, 61, 55
13, 18225, Note_on_c, 11, 61, 0
13, 18240, Note_on_c, 11, 62, 55
13, 18285, Note_on_c, 11, 62, 0
13, 18300, Note_on_c, 11, 62, 55
13, 18345, Note_on_c, 11, 62, 0
13, 18360, Note_on_c, 11, 66, 55
13, 18405, Note_on_c, 11, 66, 0
13, 18420, Note_on_c, 11, 64, 55
13, 18465, Note_on_c, 11, 64, 0
13, 18480, Note_on_c, 11, 63, 55
13, 18525, Note_on_c, 11, 63, 0
13, 18540, Note_on_c, 11, 59, 55
13, 18585, Note_on_c, 11, 59, 0
13, 18600, Note_on_c, 11, 61, 55
13, 18645, Note_on_c, 11, 61, 0
13, 18660, Note_on_c, 11, 62, 55
13, 18705, Note_on_c, 11, 62, 0
13, 18720, Note_on_c, 11, 64, 85
13, 18765, Note_on_c, 11, 64, 0
13, 18780, Note_on_c, 11, 67, 85
13, 18825, Note_on_c, 11, 67, 0
13, 18840, Note_on_c, 11, 64, 85
13, 18885, Note_on_c, 11, 64, 0
13, 18900, Note_on_c, 11, 62, 85
13, 18945, Note_on_c, 11, 62, 0
13, 18960, Note_on_c, 11, 61, 85
13, 19005, Note_on_c, 11, 61, 0
13, 19020, Note_on_c, 11, 57, 55
13, 19065, Note_on_c, 11, 57, 0
13, 19080, Note_on_c, 11, 59, 85
13, 19125, Note_on_c, 11, 59, 0
13, 19140, Note_on_c, 11, 61, 85
13, 19185, Note_on_c, 11, 61, 0
13, 19200, Note_on_c, 11, 62, 85
13, 19245, Note_on_c, 11, 62, 0
13, 19260, Note_on_c, 11, 74, 85
13, 19305, Note_on_c, 11, 74, 0
13, 19320, Note_on_c, 11, 74, 85
13, 19365, Note_on_c, 11, 74, 0
13, 19380, Note_on_c, 11, 74, 85
13, 19425, Note_on_c, 11, 74, 0
13, 19440, Note_on_c, 11, 74, 85
13, 19485, Note_on_c, 11, 74, 0
13, 19500, Note_on_c, 11, 74, 85
13, 19545, Note_on_c, 11, 74, 0
13, 19560, Note_on_c, 11, 74, 85
13, 19605, Note_on_c, 11, 74, 0
13, 19620, Note_on_c, 11, 74, 85
13, 19665, Note_on_c, 11, 74, 0
13, 19680, Note_on_c, 11, 74, 85
13, 19740, Note_on_c, 11, 74, 0
13, 19740, Note_on_c, 11, 69, 85
13, 19785, Note_on_c, 11, 69, 0
13, 19800, Note_on_c, 11, 69, 85
13, 19830, Note_on_c, 11, 69, 0
13, 19860, Note_on_c, 11, 69, 85
13, 19890, Note_on_c, 11, 69, 0
13, 19920, Note_on_c, 11, 69, 85
13, 19965, Note_on_c, 11, 69, 0
13, 19980, Note_on_c, 11, 69, 85
13, 20025, Note_on_c, 11, 69, 0
13, 20040, Note_on_c, 11, 69, 85
13, 20085, Note_on_c, 11, 69, 0
13, 20100, Note_on_c, 11, 67, 85
13, 20145, Note_on_c, 11, 67, 0
13, 20160, Note_on_c, 11, 62, 85
13, 20205, Note_on_c, 11, 62, 0
13, 20220, Note_on_c, 11, 62, 53
13, 20265, Note_on_c, 11, 62, 0
13, 20280, Note_on_c, 11, 64, 53
13, 20325, Note_on_c, 11, 64, 0
13, 20340, Note_on_c, 11, 64, 53
13, 20385, Note_on_c, 11, 64, 0
13, 20400, Note_on_c, 11, 66, 53
13, 20445, Note_on_c, 11, 66, 0
13, 20460, Note_on_c, 11, 66, 53
13, 20505, Note_on_c, 11, 66, 0
13, 20520, Note_on_c, 11, 62, 53
13, 20565, Note_on_c, 11, 62, 0
13, 20580, Note_on_c, 11, 62, 53
13, 20625, Note_on_c, 11, 62, 0
13, 20640, Note_on_c, 11, 61, 55
13, 20685, Note_on_c, 11, 61, 0
13, 20700, Note_on_c, 11, 61, 55
13, 20745, Note_on_c, 11, 61, 0
13, 20760, Note_on_c, 11, 62, 55
13, 20805, Note_on_c, 11, 62, 0
13, 20820, Note_on_c, 11, 62, 55
13, 20865, Note_on_c, 11, 62, 0
13, 20880, Note_on_c, 11, 64, 55
13, 20925, Note_on_c, 11, 64, 0
13, 20940, Note_on_c, 11, 64, 55
13, 20985, Note_on_c, 11, 64, 0
13, 21000, Note_on_c, 11, 61, 55
13, 21045, Note_on_c, 11, 61, 0
13, 21060, Note_on_c, 11, 61, 55
13, 21105, Note_on_c, 11, 61, 0
13, 21120, Note_on_c, 11, 62, 55
13, 21165, Note_on_c, 11, 62, 0
13, 21180, Note_on_c, 11, 62, 55
13, 21225, Note_on_c, 11, 62, 0
13, 21240, Note_on_c, 11, 64, 55
13, 21285, Note_on_c, 11, 64, 0
13, 21300, Note_on_c, 11, 64, 55
13, 21345, Note_on_c, 11, 64, 0
13, 21360, Note_on_c, 11, 66, 55
13, 21405, Note_on_c, 11, 66, 0
13, 21420, Note_on_c, 11, 66, 55
13, 21465, Note_on_c, 11, 66, 0
13, 21480, Note_on_c, 11, 62, 55
13, 21525, Note_on_c, 11, 62, 0
13, 21540, Note_on_c, 11, 62, 55
13, 21585, Note_on_c, 11, 62, 0
13, 21600, Note_on_c, 11, 61, 55
13, 21645, Note_on_c, 11, 61, 0
13, 21660, Note_on_c, 11, 61, 55
13, 21705, Note_on_c, 11, 61, 0
13, 21720, Note_on_c, 11, 62, 55
13, 21765, Note_on_c, 11, 62, 0
13, 21780, Note_on_c, 11, 62, 55
13, 21825, Note_on_c, 11, 62, 0
13, 21840, Note_on_c, 11, 64, 55
13, 21885, Note_on_c, 11, 64, 0
13, 21900, Note_on_c, 11, 64, 55
13, 21945, Note_on_c, 11, 64, 0
13, 21960, Note_on_c, 11, 61, 55
13, 22005, Note_on_c, 11, 61, 0
13, 22020, Note_on_c, 11, 61, 55
13, 22065, Note_on_c, 11, 61, 0
13, 22080, Note_on_c, 11, 62, 55
13, 22125, Note_on_c, 11, 62, 0
13, 22140, Note_on_c, 11, 62, 85
13, 22185, Note_on_c, 11, 62, 0
13, 22200, Note_on_c, 11, 66, 85
13, 22245, Note_on_c, 11, 66, 0
13, 22260, Note_on_c, 11, 64, 85
13, 22305, Note_on_c, 11, 64, 0
13, 22320, Note_on_c, 11, 63, 85
13, 22365, Note_on_c, 11, 63, 0
13, 22380, Note_on_c, 11, 59, 85
13, 22425, Note_on_c, 11, 59, 0
13, 22440, Note_on_c, 11, 61, 85
13, 22485, Note_on_c, 11, 61, 0
13, 22500, Note_on_c, 11, 62, 85
13, 22545, Note_on_c, 11, 62, 0
13, 22560, Note_on_c, 11, 64, 85
13, 22605, Note_on_c, 11, 64, 0
13, 22620, Note_on_c, 11, 67, 85
13, 22665, Note_on_c, 11, 67, 0
13, 22680, Note_on_c, 11, 64, 85
13, 22725, Note_on_c, 11, 64, 0
13, 22740, Note_on_c, 11, 62, 85
13, 22785, Note_on_c, 11, 62, 0
13, 22800, Note_on_c, 11, 61, 85
13, 22845, Note_on_c, 11, 61, 0
13, 22860, Note_on_c, 11, 57, 85
13, 22905, Note_on_c, 11, 57, 0
13, 22920, Note_on_c, 11, 59, 85
13, 22965, Note_on_c, 11, 59, 0
13, 22980, Note_on_c, 11, 61, 85
13, 23025, Note_on_c, 11, 61, 0
13, 23040, Note_on_c, 11, 62, 85
13, 23085, Note_on_c, 11, 62, 0
13, 23100, Note_on_c, 11, 74, 85
13, 23145, Note_on_c, 11, 74, 0
13, 23160, Note_on_c, 11, 74, 85
13, 23205, Note_on_c, 11, 74, 0
13, 23220, Note_on_c, 11, 74, 85
13, 23265, Note_on_c, 11, 74, 0
13, 23280, Note_on_c, 11, 74, 85
13, 23325, Note_on_c, 11, 74, 0
13, 23340, Note_on_c, 11, 74, 85
13, 23385, Note_on_c, 11, 74, 0
13, 23400, Note_on_c, 11, 74, 85
13, 23445, Note_on_c, 11, 74, 0
13, 23460, Note_on_c, 11, 74, 85
13, 23505, Note_on_c, 11, 74, 0
13, 23520, Note_on_c, 11, 74, 85
13, 23580, Note_on_c, 11, 74, 0
13, 23580, Note_on_c, 11, 69, 85
13, 23625, Note_on_c, 11, 69, 0
13, 23640, Note_on_c, 11, 69, 85
13, 23670, Note_on_c, 11, 69, 0
13, 23700, Note_on_c, 11, 69, 85
13, 23730, Note_on_c, 11, 69, 0
13, 23760, Note_on_c, 11, 69, 85
13, 23805, Note_on_c, 11, 69, 0
13, 23820, Note_on_c, 11, 69, 85
13, 23865, Note_on_c, 11, 69, 0
13, 23880, Note_on_c, 11, 69, 85
13, 23925, Note_on_c, 11, 69, 0
13, 23940, Note_on_c, 11, 67, 85
13, 23985, Note_on_c, 11, 67, 0
13, 24000, Note_on_c, 11, 66, 85
13, 24045, Note_on_c, 11, 66, 0
13, 24060, Note_on_c, 11, 57, 85
13, 24105, Note_on_c, 11, 57, 0
13, 24120, Note_on_c, 11, 59, 85
13, 24165, Note_on_c, 11, 59, 0
13, 24180, Note_on_c, 11, 61, 85
13, 24225, Note_on_c, 11, 61, 0
13, 24240, Note_on_c, 11, 62, 85
13, 24285, Note_on_c, 11, 62, 0
13, 24300, Note_on_c, 11, 62, 85
13, 24345, Note_on_c, 11, 62, 0
13, 24360, Note_on_c, 11, 64, 85
13, 24405, Note_on_c, 11, 64, 0
13, 24420, Note_on_c, 11, 64, 85
13, 24465, Note_on_c, 11, 64, 0
13, 24480, Note_on_c, 11, 66, 85
13, 24525, Note_on_c, 11, 66, 0
13, 24540, Note_on_c, 11, 61, 85
13, 24585, Note_on_c, 11, 61, 0
13, 24600, Note_on_c, 11, 62, 85
13, 24645, Note_on_c, 11, 62, 0
13, 24660, Note_on_c, 11, 64, 85
13, 24705, Note_on_c, 11, 64, 0
13, 24720, Note_on_c, 11, 66, 85
13, 24765, Note_on_c, 11, 66, 0
13, 24780, Note_on_c, 11, 66, 85
13, 24825, Note_on_c, 11, 66, 0
13, 24840, Note_on_c, 11, 67, 85
13, 24885, Note_on_c, 11, 67, 0
13, 24900, Note_on_c, 11, 67, 85
13, 24945, Note_on_c, 11, 67, 0
13, 24960, Note_on_c, 11, 69, 85
13, 25005, Note_on_c, 11, 69, 0
13, 25020, Note_on_c, 11, 69, 85
13, 25065, Note_on_c, 11, 69, 0
13, 25080, Note_on_c, 11, 70, 85
13, 25125, Note_on_c, 11, 70, 0
13, 25140, Note_on_c, 11, 70, 85
13, 25185, Note_on_c, 11, 70, 0
13, 25200, Note_on_c, 11, 71, 85
13, 25320, Note_on_c, 11, 71, 0
13, 25440, Note_on_c, 11, 64, 55
13, 25800, Note_on_c, 11, 64, 0
13, 25800, Note_on_c, 11, 62, 55
13, 25860, Note_on_c, 11, 62, 0
13, 25860, Note_on_c, 11, 61, 55
13, 25920, Note_on_c, 11, 61, 0
13, 25920, Note_on_c, 11, 62, 55
13, 25980, Note_on_c, 11, 62, 0
13, 26040, Note_on_c, 11, 62, 55
13, 26100, Note_on_c, 11, 62, 0
13, 26160, Note_on_c, 11, 62, 55
13, 26220, Note_on_c, 11, 62, 0
13, 26400, Note_on_c, 11, 67, 85
13, 26520, Note_on_c, 11, 67, 0
13, 26580, Note_on_c, 11, 62, 85
13, 26610, Note_on_c, 11, 62, 0
13, 26640, Note_on_c, 11, 67, 85
13, 26760, Note_on_c, 11, 67, 0
13, 26820, Note_on_c, 11, 62, 85
13, 26850, Note_on_c, 11, 62, 0
13, 26880, Note_on_c, 11, 67, 85
13, 26910, Note_on_c, 11, 67, 0
13, 26940, Note_on_c, 11, 62, 85
13, 26970, Note_on_c, 11, 62, 0
13, 27000, Note_on_c, 11, 67, 85
13, 27030, Note_on_c, 11, 67, 0
13, 27060, Note_on_c, 11, 71, 85
13, 27090, Note_on_c, 11, 71, 0
13, 27120, Note_on_c, 11, 74, 85
13, 27240, Note_on_c, 11, 74, 0
13, 27360, Note_on_c, 11, 72, 85
13, 27480, Note_on_c, 11, 72, 0
13, 27540, Note_on_c, 11, 69, 85
13, 27570, Note_on_c, 11, 69, 0
13, 27600, Note_on_c, 11, 72, 85
13, 27720, Note_on_c, 11, 72, 0
13, 27780, Note_on_c, 11, 69, 85
13, 27810, Note_on_c, 11, 69, 0
13, 27840, Note_on_c, 11, 72, 85
13, 27870, Note_on_c, 11, 72, 0
13, 27900, Note_on_c, 11, 69, 85
13, 27930, Note_on_c, 11, 69, 0
13, 27960, Note_on_c, 11, 66, 85
13, 27990, Note_on_c, 11, 66, 0
13, 28020, Note_on_c, 11, 69, 85
13, 28050, Note_on_c, 11, 69, 0
13, 28080, Note_on_c, 11, 62, 85
13, 28200, Note_on_c, 11, 62, 0
13, 28320, Note_on_c, 11, 67, 85
13, 28365, Note_on_c, 11, 67, 0
13, 28380, Note_on_c, 11, 67, 85
13, 28425, Note_on_c, 11, 67, 0
13, 28440, Note_on_c, 11, 67, 85
13, 28485, Note_on_c, 11, 67, 0
13, 28500, Note_on_c, 11, 67, 85
13, 28545, Note_on_c, 11, 67, 0
13, 28560, Note_on_c, 11, 67, 85
13, 28605, Note_on_c, 11, 67, 0
13, 28620, Note_on_c, 11, 67, 85
13, 28665, Note_on_c, 11, 67, 0
13, 28680, Note_on_c, 11, 67, 85
13, 28725, Note_on_c, 11, 67, 0
13, 28740, Note_on_c, 11, 67, 85
13, 28785, Note_on_c, 11, 67, 0
13, 28800, Note_on_c, 11, 69, 85
13, 28845, Note_on_c, 11, 69, 0
13, 28860, Note_on_c, 11, 69, 85
13, 28905, Note_on_c, 11, 69, 0
13, 28920, Note_on_c, 11, 69, 85
13, 28965, Note_on_c, 11, 69, 0
13, 28980, Note_on_c, 11, 69, 85
13, 29025, Note_on_c, 11, 69, 0
13, 29040, Note_on_c, 11, 69, 85
13, 29100, Note_on_c, 11, 69, 0
13, 29100, Note_on_c, 11, 72, 85
13, 29145, Note_on_c, 11, 72, 0
13, 29160, Note_on_c, 11, 66, 85
13, 29220, Note_on_c, 11, 66, 0
13, 29220, Note_on_c, 11, 69, 85
13, 29265, Note_on_c, 11, 69, 0
13, 29280, Note_on_c, 11, 67, 85
13, 29325, Note_on_c, 11, 67, 0
13, 29340, Note_on_c, 11, 67, 85
13, 29385, Note_on_c, 11, 67, 0
13, 29400, Note_on_c, 11, 67, 85
13, 29445, Note_on_c, 11, 67, 0
13, 29460, Note_on_c, 11, 67, 85
13, 29505, Note_on_c, 11, 67, 0
13, 29520, Note_on_c, 11, 67, 85
13, 29565, Note_on_c, 11, 67, 0
13, 29580, Note_on_c, 11, 67, 85
13, 29625, Note_on_c, 11, 67, 0
13, 29640, Note_on_c, 11, 67, 85
13, 29685, Note_on_c, 11, 67, 0
13, 29700, Note_on_c, 11, 67, 85
13, 29745, Note_on_c, 11, 67, 0
13, 29760, Note_on_c, 11, 69, 85
13, 29805, Note_on_c, 11, 69, 0
13, 29820, Note_on_c, 11, 69, 85
13, 29865, Note_on_c, 11, 69, 0
13, 29880, Note_on_c, 11, 69, 85
13, 29925, Note_on_c, 11, 69, 0
13, 29940, Note_on_c, 11, 69, 85
13, 29985, Note_on_c, 11, 69, 0
13, 30000, Note_on_c, 11, 69, 85
13, 30060, Note_on_c, 11, 69, 0
13, 30060, Note_on_c, 11, 72, 85
13, 30105, Note_on_c, 11, 72, 0
13, 30120, Note_on_c, 11, 66, 85
13, 30180, Note_on_c, 11, 66, 0
13, 30180, Note_on_c, 11, 69, 85
13, 30225, Note_on_c, 11, 69, 0
13, 30240, Note_on_c, 11, 62, 85
13, 30260, Note_on_c, 11, 62, 0
13, 30270, Note_on_c, 11, 62, 85
13, 30290, Note_on_c, 11, 62, 0
13, 30300, Note_on_c, 11, 62, 85
13, 30320, Note_on_c, 11, 62, 0
13, 30330, Note_on_c, 11, 62, 85
13, 30350, Note_on_c, 11, 62, 0
13, 30360, Note_on_c, 11, 62, 85
13, 30380, Note_on_c, 11, 62, 0
13, 30390, Note_on_c, 11, 62, 85
13, 30410, Note_on_c, 11, 62, 0
13, 30420, Note_on_c, 11, 62, 85
13, 30440, Note_on_c, 11, 62, 0
13, 30450, Note_on_c, 11, 62, 85
13, 30470, Note_on_c, 11, 62, 0
13, 30480, Note_on_c, 11, 62, 85
13, 30500, Note_on_c, 11, 62, 0
13, 30510, Note_on_c, 11, 62, 85
13, 30530, Note_on_c, 11, 62, 0
13, 30540, Note_on_c, 11, 62, 85
13, 30560, Note_on_c, 11, 62, 0
13, 30570, Note_on_c, 11, 62, 85
13, 30590, Note_on_c, 11, 62, 0
13, 30600, Note_on_c, 11, 62, 85
13, 30620, Note_on_c, 11, 62, 0
13, 30630, Note_on_c, 11, 62, 85
13, 30650, Note_on_c, 11, 62, 0
13, 30660, Note_on_c, 11, 62, 85
13, 30680, Note_on_c, 11, 62, 0
13, 30690, Note_on_c, 11, 62, 85
13, 30710, Note_on_c, 11, 62, 0
13, 30720, Note_on_c, 11, 62, 85
13, 30740, Note_on_c, 11, 62, 0
13, 30750, Note_on_c, 11, 62, 85
13, 30770, Note_on_c, 11, 62, 0
13, 30780, Note_on_c, 11, 62, 85
13, 30800, Note_on_c, 11, 62, 0
13, 30810, Note_on_c, 11, 62, 85
13, 30830, Note_on_c, 11, 62, 0
13, 30840, Note_on_c, 11, 62, 85
13, 30860, Note_on_c, 11, 62, 0
13, 30870, Note_on_c, 11, 62, 85
13, 30890, Note_on_c, 11, 62, 0
13, 30900, Note_on_c, 11, 62, 85
13, 30920, Note_on_c, 11, 62, 0
13, 30930, Note_on_c, 11, 62, 85
13, 30950, Note_on_c, 11, 62, 0
13, 30960, Note_on_c, 11, 62, 85
13, 31080, Note_on_c, 11, 62, 0
13, 31680, Note_on_c, 11, 54, 47
13, 31920, Note_on_c, 11, 54, 0
13, 31920, Note_on_c, 11, 55, 47
13, 32160, Note_on_c, 11, 55, 0
13, 32160, Note_on_c, 11, 60, 47
13, 32250, Note_on_c, 11, 60, 0
13, 32280, Note_on_c, 11, 60, 47
13, 32370, Note_on_c, 11, 60, 0
13, 32400, Note_on_c, 11, 57, 47
13, 32490, Note_on_c, 11, 57, 0
13, 32520, Note_on_c, 11, 50, 47
13, 32610, Note_on_c, 11, 50, 0
13, 32640, Note_on_c, 11, 50, 47
13, 32700, Note_on_c, 11, 50, 0
13, 32760, Note_on_c, 11, 62, 47
13, 32820, Note_on_c, 11, 62, 0
13, 32880, Note_on_c, 11, 62, 47
13, 33000, Note_on_c, 11, 62, 0
13, 33600, Note_on_c, 11, 66, 47
13, 33840, Note_on_c, 11, 66, 0
13, 33840, Note_on_c, 11, 67, 47
13, 34080, Note_on_c, 11, 67, 0
13, 34080, Note_on_c, 11, 60, 47
13, 34170, Note_on_c, 11, 60, 0
13, 34200, Note_on_c, 11, 60, 47
13, 34245, Note_on_c, 11, 60, 0
13, 34260, Note_on_c, 11, 60, 47
13, 34305, Note_on_c, 11, 60, 0
13, 34320, Note_on_c, 11, 57, 47
13, 34410, Note_on_c, 11, 57, 0
13, 34440, Note_on_c, 11, 57, 47
13, 34485, Note_on_c, 11, 57, 0
13, 34500, Note_on_c, 11, 57, 47
13, 34545, Note_on_c, 11, 57, 0
13, 34560, Note_on_c, 11, 55, 92
13, 34605, Note_on_c, 11, 55, 0
13, 34620, Note_on_c, 11, 55, 71
13, 34665, Note_on_c, 11, 55, 0
13, 34680, Note_on_c, 11, 55, 71
13, 34725, Note_on_c, 11, 55, 0
13, 34740, Note_on_c, 11, 55, 71
13, 34785, Note_on_c, 11, 55, 0
13, 34800, Note_on_c, 11, 55, 55
13, 34845, Note_on_c, 11, 55, 0
13, 34860, Note_on_c, 11, 55, 50
13, 34905, Note_on_c, 11, 55, 0
13, 34920, Note_on_c, 11, 55, 50
13, 34965, Note_on_c, 11, 55, 0
13, 34980, Note_on_c, 11, 55, 50
13, 35025, Note_on_c, 11, 55, 0
13, 35040, Note_on_c, 11, 55, 91
13, 35085, Note_on_c, 11, 55, 0
13, 35100, Note_on_c, 11, 55, 65
13, 35145, Note_on_c, 11, 55, 0
13, 35160, Note_on_c, 11, 55, 65
13, 35205, Note_on_c, 11, 55, 0
13, 35220, Note_on_c, 11, 55, 65
13, 35265, Note_on_c, 11, 55, 0
13, 35280, Note_on_c, 11, 55, 46
13, 35325, Note_on_c, 11, 55, 0
13, 35340, Note_on_c, 11, 55, 46
13, 35385, Note_on_c, 11, 55, 0
13, 35400, Note_on_c, 11, 55, 46
13, 35445, Note_on_c, 11, 55, 0
13, 35460, Note_on_c, 11, 55, 46
13, 35505, Note_on_c, 11, 55, 0
13, 35520, Note_on_c, 11, 55, 59
13, 35565, Note_on_c, 11, 55, 0
13, 35580, Note_on_c, 11, 67, 41
13, 35625, Note_on_c, 11, 67, 0
13, 35640, Note_on_c, 11, 67, 46
13, 35685, Note_on_c, 11, 67, 0
13, 35700, Note_on_c, 11, 67, 49
13, 35745, Note_on_c, 11, 67, 0
13, 35760, Note_on_c, 11, 67, 53
13, 35805, Note_on_c, 11, 67, 0
13, 35820, Note_on_c, 11, 67, 56
13, 35865, Note_on_c, 11, 67, 0
13, 35880, Note_on_c, 11, 69, 61
13, 35925, Note_on_c, 11, 69, 0
13, 35940, Note_on_c, 11, 69, 64
13, 35985, Note_on_c, 11, 69, 0
13, 36000, Note_on_c, 11, 67, 68
13, 36045, Note_on_c, 11, 67, 0
13, 36060, Note_on_c, 11, 67, 71
13, 36105, Note_on_c, 11, 67, 0
13, 36120, Note_on_c, 11, 66, 76
13, 36165, Note_on_c, 11, 66, 0
13, 36180, Note_on_c, 11, 66, 79
13, 36225, Note_on_c, 11, 66, 0
13, 36240, Note_on_c, 11, 67, 82
13, 36285, Note_on_c, 11, 67, 0
13, 36300, Note_on_c, 11, 67, 82
13, 36345, Note_on_c, 11, 67, 0
13, 36360, Note_on_c, 11, 64, 82
13, 36405, Note_on_c, 11, 64, 0
13, 36420, Note_on_c, 11, 64, 82
13, 36465, Note_on_c, 11, 64, 0
13, 36480, Note_on_c, 11, 69, 85
13, 36480, Note_on_c, 11, 62, 85
13, 36500, Note_on_c, 11, 62, 0
13, 36500, Note_on_c, 11, 69, 0
13, 36510, Note_on_c, 11, 69, 85
13, 36510, Note_on_c, 11, 62, 85
13, 36530, Note_on_c, 11, 62, 0
13, 36530, Note_on_c, 11, 69, 0
13, 36540, Note_on_c, 11, 69, 85
13, 36540, Note_on_c, 11, 62, 85
13, 36560, Note_on_c, 11, 62, 0
13, 36560, Note_on_c, 11, 69, 0
13, 36570, Note_on_c, 11, 69, 85
13, 36570, Note_on_c, 11, 62, 85
13, 36590, Note_on_c, 11, 62, 0
13, 36590, Note_on_c, 11, 69, 0
13, 36600, Note_on_c, 11, 69, 85
13, 36600, Note_on_c, 11, 62, 85
13, 36620, Note_on_c, 11, 62, 0
13, 36620, Note_on_c, 11, 69, 0
13, 36630, Note_on_c, 11, 69, 85
13, 36630, Note_on_c, 11, 62, 85
13, 36650, Note_on_c, 11, 62, 0
13, 36650, Note_on_c, 11, 69, 0
13, 36660, Note_on_c, 11, 69, 85
13, 36660, Note_on_c, 11, 62, 85
13, 36680, Note_on_c, 11, 62, 0
13, 36680, Note_on_c, 11, 69, 0
13, 36690, Note_on_c, 11, 69, 85
13, 36690, Note_on_c, 11, 62, 85
13, 36710, Note_on_c, 11, 62, 0
13, 36710, Note_on_c, 11, 69, 0
13, 36720, Note_on_c, 11, 69, 85
13, 36720, Note_on_c, 11, 64, 85
13, 36740, Note_on_c, 11, 64, 0
13, 36740, Note_on_c, 11, 69, 0
13, 36750, Note_on_c, 11, 69, 85
13, 36750, Note_on_c, 11, 64, 85
13, 36770, Note_on_c, 11, 64, 0
13, 36770, Note_on_c, 11, 69, 0
13, 36780, Note_on_c, 11, 69, 85
13, 36780, Note_on_c, 11, 64, 85
13, 36800, Note_on_c, 11, 64, 0
13, 36800, Note_on_c, 11, 69, 0
13, 36810, Note_on_c, 11, 69, 85
13, 36810, Note_on_c, 11, 64, 85
13, 36830, Note_on_c, 11, 64, 0
13, 36830, Note_on_c, 11, 69, 0
13, 36840, Note_on_c, 11, 69, 85
13, 36840, Note_on_c, 11, 64, 85
13, 36860, Note_on_c, 11, 64, 0
13, 36860, Note_on_c, 11, 69, 0
13, 36870, Note_on_c, 11, 69, 85
13, 36870, Note_on_c, 11, 64, 85
13, 36890, Note_on_c, 11, 64, 0
13, 36890, Note_on_c, 11, 69, 0
13, 36900, Note_on_c, 11, 69, 85
13, 36900, Note_on_c, 11, 64, 85
13, 36920, Note_on_c, 11, 64, 0
13, 36920, Note_on_c, 11, 69, 0
13, 36930, Note_on_c, 11, 69, 85
13, 36930, Note_on_c, 11, 64, 85
13, 36950, Note_on_c, 11, 64, 0
13, 36950, Note_on_c, 11, 69, 0
13, 36960, Note_on_c, 11, 69, 85
13, 36960, Note_on_c, 11, 62, 85
13, 36980, Note_on_c, 11, 62, 0
13, 36980, Note_on_c, 11, 69, 0
13, 36990, Note_on_c, 11, 69, 85
13, 36990, Note_on_c, 11, 62, 85
13, 37010, Note_on_c, 11, 62, 0
13, 37010, Note_on_c, 11, 69, 0
13, 37020, Note_on_c, 11, 69, 85
13, 37020, Note_on_c, 11, 62, 85
13, 37040, Note_on_c, 11, 62, 0
13, 37040, Note_on_c, 11, 69, 0
13, 37050, Note_on_c, 11, 69, 85
13, 37050, Note_on_c, 11, 62, 85
13, 37070, Note_on_c, 11, 62, 0
13, 37070, Note_on_c, 11, 69, 0
13, 37080, Note_on_c, 11, 69, 85
13, 37080, Note_on_c, 11, 62, 85
13, 37100, Note_on_c, 11, 62, 0
13, 37100, Note_on_c, 11, 69, 0
13, 37110, Note_on_c, 11, 69, 85
13, 37110, Note_on_c, 11, 62, 85
13, 37130, Note_on_c, 11, 62, 0
13, 37130, Note_on_c, 11, 69, 0
13, 37140, Note_on_c, 11, 69, 85
13, 37140, Note_on_c, 11, 62, 85
13, 37160, Note_on_c, 11, 62, 0
13, 37160, Note_on_c, 11, 69, 0
13, 37170, Note_on_c, 11, 69, 85
13, 37170, Note_on_c, 11, 62, 85
13, 37190, Note_on_c, 11, 62, 0
13, 37190, Note_on_c, 11, 69, 0
13, 37200, Note_on_c, 11, 69, 85
13, 37200, Note_on_c, 11, 64, 85
13, 37220, Note_on_c, 11, 64, 0
13, 37220, Note_on_c, 11, 69, 0
13, 37230, Note_on_c, 11, 69, 85
13, 37230, Note_on_c, 11, 64, 85
13, 37250, Note_on_c, 11, 64, 0
13, 37250, Note_on_c, 11, 69, 0
13, 37260, Note_on_c, 11, 69, 85
13, 37260, Note_on_c, 11, 64, 85
13, 37280, Note_on_c, 11, 64, 0
13, 37280, Note_on_c, 11, 69, 0
13, 37290, Note_on_c, 11, 69, 85
13, 37290, Note_on_c, 11, 64, 85
13, 37310, Note_on_c, 11, 64, 0
13, 37310, Note_on_c, 11, 69, 0
13, 37320, Note_on_c, 11, 69, 85
13, 37320, Note_on_c, 11, 64, 85
13, 37340, Note_on_c, 11, 64, 0
13, 37340, Note_on_c, 11, 69, 0
13, 37350, Note_on_c, 11, 69, 85
13, 37350, Note_on_c, 11, 64, 85
13, 37370, Note_on_c, 11, 64, 0
13, 37370, Note_on_c, 11, 69, 0
13, 37380, Note_on_c, 11, 69, 85
13, 37380, Note_on_c, 11, 64, 85
13, 37400, Note_on_c, 11, 64, 0
13, 37400, Note_on_c, 11, 69, 0
13, 37410, Note_on_c, 11, 69, 85
13, 37410, Note_on_c, 11, 64, 85
13, 37430, Note_on_c, 11, 64, 0
13, 37430, Note_on_c, 11, 69, 0
13, 37440, Note_on_c, 11, 62, 85
13, 37485, Note_on_c, 11, 62, 0
13, 37500, Note_on_c, 11, 64, 85
13, 37545, Note_on_c, 11, 64, 0
13, 37560, Note_on_c, 11, 66, 85
13, 37605, Note_on_c, 11, 66, 0
13, 37620, Note_on_c, 11, 64, 85
13, 37665, Note_on_c, 11, 64, 0
13, 37680, Note_on_c, 11, 62, 85
13, 37725, Note_on_c, 11, 62, 0
13, 37740, Note_on_c, 11, 64, 85
13, 37785, Note_on_c, 11, 64, 0
13, 37800, Note_on_c, 11, 66, 85
13, 37845, Note_on_c, 11, 66, 0
13, 37860, Note_on_c, 11, 62, 85
13, 37905, Note_on_c, 11, 62, 0
13, 37920, Note_on_c, 11, 71, 85
13, 37965, Note_on_c, 11, 71, 0
13, 37980, Note_on_c, 11, 69, 85
13, 38025, Note_on_c, 11, 69, 0
13, 38040, Note_on_c, 11, 67, 85
13, 38085, Note_on_c, 11, 67, 0
13, 38100, Note_on_c, 11, 69, 85
13, 38145, Note_on_c, 11, 69, 0
13, 38160, Note_on_c, 11, 71, 85
13, 38205, Note_on_c, 11, 71, 0
13, 38220, Note_on_c, 11, 69, 85
13, 38265, Note_on_c, 11, 69, 0
13, 38280, Note_on_c, 11, 68, 85
13, 38325, Note_on_c, 11, 68, 0
13, 38340, Note_on_c, 11, 71, 85
13, 38385, Note_on_c, 11, 71, 0
13, 38400, Note_on_c, 11, 69, 85
13, 38445, Note_on_c, 11, 69, 0
13, 38460, Note_on_c, 11, 69, 85
13, 38505, Note_on_c, 11, 69, 0
13, 38520, Note_on_c, 11, 69, 85
13, 38565, Note_on_c, 11, 69, 0
13, 38580, Note_on_c, 11, 69, 85
13, 38625, Note_on_c, 11, 69, 0
13, 38640, Note_on_c, 11, 69, 85
13, 38685, Note_on_c, 11, 69, 0
13, 38700, Note_on_c, 11, 69, 85
13, 38745, Note_on_c, 11, 69, 0
13, 38760, Note_on_c, 11, 69, 85
13, 38805, Note_on_c, 11, 69, 0
13, 38820, Note_on_c, 11, 69, 85
13, 38865, Note_on_c, 11, 69, 0
13, 38880, Note_on_c, 11, 69, 85
13, 38925, Note_on_c, 11, 69, 0
13, 38940, Note_on_c, 11, 57, 85
13, 38985, Note_on_c, 11, 57, 0
13, 39000, Note_on_c, 11, 57, 85
13, 39045, Note_on_c, 11, 57, 0
13, 39060, Note_on_c, 11, 57, 85
13, 39105, Note_on_c, 11, 57, 0
13, 39120, Note_on_c, 11, 57, 85
13, 39240, Note_on_c, 11, 57, 0
13, 39720, Note_on_c, 11, 66, 55
13, 39780, Note_on_c, 11, 66, 0
13, 39840, Note_on_c, 11, 59, 55
13, 39900, Note_on_c, 11, 59, 0
13, 39960, Note_on_c, 11, 67, 55
13, 40020, Note_on_c, 11, 67, 0
13, 40080, Note_on_c, 11, 64, 55
13, 40140, Note_on_c, 11, 64, 0
13, 40200, Note_on_c, 11, 61, 55
13, 40260, Note_on_c, 11, 61, 0
13, 40440, Note_on_c, 11, 64, 55
13, 40560, Note_on_c, 11, 64, 0
13, 40560, Note_on_c, 11, 62, 55
13, 40620, Note_on_c, 11, 62, 0
13, 40680, Note_on_c, 11, 64, 55
13, 40740, Note_on_c, 11, 64, 0
13, 40800, Note_on_c, 11, 62, 55
13, 41040, Note_on_c, 11, 62, 0
13, 41040, Note_on_c, 11, 61, 55
13, 41160, Note_on_c, 11, 61, 0
13, 41400, Note_on_c, 11, 61, 55
13, 41520, Note_on_c, 11, 61, 0
13, 41520, Note_on_c, 11, 62, 55
13, 41580, Note_on_c, 11, 62, 0
13, 41640, Note_on_c, 11, 66, 55
13, 41700, Note_on_c, 11, 66, 0
13, 41760, Note_on_c, 11, 59, 55
13, 41820, Note_on_c, 11, 59, 0
13, 41880, Note_on_c, 11, 55, 55
13, 41940, Note_on_c, 11, 55, 0
13, 42000, Note_on_c, 11, 52, 55
13, 42120, Note_on_c, 11, 52, 0
13, 42180, Note_on_c, 11, 64, 55
13, 42225, Note_on_c, 11, 64, 0
13, 42240, Note_on_c, 11, 64, 55
13, 42300, Note_on_c, 11, 64, 0
13, 42300, Note_on_c, 11, 62, 55
13, 42360, Note_on_c, 11, 62, 0
13, 42720, Note_on_c, 11, 62, 55
13, 42765, Note_on_c, 11, 62, 0
13, 42780, Note_on_c, 11, 62, 55
13, 42825, Note_on_c, 11, 62, 0
13, 42840, Note_on_c, 11, 64, 55
13, 42885, Note_on_c, 11, 64, 0
13, 42900, Note_on_c, 11, 64, 55
13, 42945, Note_on_c, 11, 64, 0
13, 42960, Note_on_c, 11, 66, 55
13, 43005, Note_on_c, 11, 66, 0
13, 43020, Note_on_c, 11, 66, 55
13, 43065, Note_on_c, 11, 66, 0
13, 43080, Note_on_c, 11, 62, 55
13, 43125, Note_on_c, 11, 62, 0
13, 43140, Note_on_c, 11, 62, 55
13, 43185, Note_on_c, 11, 62, 0
13, 43200, Note_on_c, 11, 61, 55
13, 43245, Note_on_c, 11, 61, 0
13, 43260, Note_on_c, 11, 61, 55
13, 43305, Note_on_c, 11, 61, 0
13, 43320, Note_on_c, 11, 62, 55
13, 43365, Note_on_c, 11, 62, 0
13, 43380, Note_on_c, 11, 62, 55
13, 43425, Note_on_c, 11, 62, 0
13, 43440, Note_on_c, 11, 64, 55
13, 43485, Note_on_c, 11, 64, 0
13, 43500, Note_on_c, 11, 64, 55
13, 43545, Note_on_c, 11, 64, 0
13, 43560, Note_on_c, 11, 61, 55
13, 43605, Note_on_c, 11, 61, 0
13, 43620, Note_on_c, 11, 61, 55
13, 43665, Note_on_c, 11, 61, 0
13, 43680, Note_on_c, 11, 62, 55
13, 43725, Note_on_c, 11, 62, 0
13, 43740, Note_on_c, 11, 62, 55
13, 43785, Note_on_c, 11, 62, 0
13, 43800, Note_on_c, 11, 64, 55
13, 43845, Note_on_c, 11, 64, 0
13, 43860, Note_on_c, 11, 64, 55
13, 43905, Note_on_c, 11, 64, 0
13, 43920, Note_on_c, 11, 66, 55
13, 43965, Note_on_c, 11, 66, 0
13, 43980, Note_on_c, 11, 66, 55
13, 44025, Note_on_c, 11, 66, 0
13, 44040, Note_on_c, 11, 62, 55
13, 44085, Note_on_c, 11, 62, 0
13, 44100, Note_on_c, 11, 62, 55
13, 44145, Note_on_c, 11, 62, 0
13, 44160, Note_on_c, 11, 61, 55
13, 44205, Note_on_c, 11, 61, 0
13, 44220, Note_on_c, 11, 61, 55
13, 44265, Note_on_c, 11, 61, 0
13, 44280, Note_on_c, 11, 62, 55
13, 44325, Note_on_c, 11, 62, 0
13, 44340, Note_on_c, 11, 62, 55
13, 44385, Note_on_c, 11, 62, 0
13, 44400, Note_on_c, 11, 64, 55
13, 44445, Note_on_c, 11, 64, 0
13, 44460, Note_on_c, 11, 64, 55
13, 44505, Note_on_c, 11, 64, 0
13, 44520, Note_on_c, 11, 61, 55
13, 44565, Note_on_c, 11, 61, 0
13, 44580, Note_on_c, 11, 61, 55
13, 44625, Note_on_c, 11, 61, 0
13, 44640, Note_on_c, 11, 62, 55
13, 44685, Note_on_c, 11, 62, 0
13, 44700, Note_on_c, 11, 62, 55
13, 44745, Note_on_c, 11, 62, 0
13, 44760, Note_on_c, 11, 66, 55
13, 44805, Note_on_c, 11, 66, 0
13, 44820, Note_on_c, 11, 64, 55
13, 44865, Note_on_c, 11, 64, 0
13, 44880, Note_on_c, 11, 63, 55
13, 44925, Note_on_c, 11, 63, 0
13, 44940, Note_on_c, 11, 59, 55
13, 44985, Note_on_c, 11, 59, 0
13, 45000, Note_on_c, 11, 61, 55
13, 45045, Note_on_c, 11, 61, 0
13, 45060, Note_on_c, 11, 62, 55
13, 45105, Note_on_c, 11, 62, 0
13, 45120, Note_on_c, 11, 64, 85
13, 45165, Note_on_c, 11, 64, 0
13, 45180, Note_on_c, 11, 67, 85
13, 45225, Note_on_c, 11, 67, 0
13, 45240, Note_on_c, 11, 64, 85
13, 45285, Note_on_c, 11, 64, 0
13, 45300, Note_on_c, 11, 62, 85
13, 45345, Note_on_c, 11, 62, 0
13, 45360, Note_on_c, 11, 61, 85
13, 45405, Note_on_c, 11, 61, 0
13, 45420, Note_on_c, 11, 57, 55
13, 45465, Note_on_c, 11, 57, 0
13, 45480, Note_on_c, 11, 59, 85
13, 45525, Note_on_c, 11, 59, 0
13, 45540, Note_on_c, 11, 61, 85
13, 45585, Note_on_c, 11, 61, 0
13, 45600, Note_on_c, 11, 62, 85
13, 45645, Note_on_c, 11, 62, 0
13, 45660, Note_on_c, 11, 74, 85
13, 45705, Note_on_c, 11, 74, 0
13, 45720, Note_on_c, 11, 74, 85
13, 45765, Note_on_c, 11, 74, 0
13, 45780, Note_on_c, 11, 74, 85
13, 45825, Note_on_c, 11, 74, 0
13, 45840, Note_on_c, 11, 74, 85
13, 45885, Note_on_c, 11, 74, 0
13, 45900, Note_on_c, 11, 74, 85
13, 45945, Note_on_c, 11, 74, 0
13, 45960, Note_on_c, 11, 74, 85
13, 46005, Note_on_c, 11, 74, 0
13, 46020, Note_on_c, 11, 74, 85
13, 46065, Note_on_c, 11, 74, 0
13, 46080, Note_on_c, 11, 74, 85
13, 46140, Note_on_c, 11, 74, 0
13, 46140, Note_on_c, 11, 69, 85
13, 46185, Note_on_c, 11, 69, 0
13, 46200, Note_on_c, 11, 69, 85
13, 46230, Note_on_c, 11, 69, 0
13, 46260, Note_on_c, 11, 69, 85
13, 46290, Note_on_c, 11, 69, 0
13, 46320, Note_on_c, 11, 69, 85
13, 46365, Note_on_c, 11, 69, 0
13, 46380, Note_on_c, 11, 69, 85
13, 46425, Note_on_c, 11, 69, 0
13, 46440, Note_on_c, 11, 69, 85
13, 46485, Note_on_c, 11, 69, 0
13, 46500, Note_on_c, 11, 67, 85
13, 46545, Note_on_c, 11, 67, 0
13, 46560, Note_on_c, 11, 62, 85
13, 46605, Note_on_c, 11, 62, 0
13, 46620, Note_on_c, 11, 62, 53
13, 46665, Note_on_c, 11, 62, 0
13, 46680, Note_on_c, 11, 64, 53
13, 46725, Note_on_c, 11, 64, 0
13, 46740, Note_on_c, 11, 64, 53
13, 46785, Note_on_c, 11, 64, 0
13, 46800, Note_on_c, 11, 66, 53
13, 46845, Note_on_c, 11, 66, 0
13, 46860, Note_on_c, 11, 66, 53
13, 46905, Note_on_c, 11, 66, 0
13, 46920, Note_on_c, 11, 62, 53
13, 46965, Note_on_c, 11, 62, 0
13, 46980, Note_on_c, 11, 62, 53
13, 47025, Note_on_c, 11, 62, 0
13, 47040, Note_on_c, 11, 61, 55
13, 47085, Note_on_c, 11, 61, 0
13, 47100, Note_on_c, 11, 61, 55
13, 47145, Note_on_c, 11, 61, 0
13, 47160, Note_on_c, 11, 62, 55
13, 47205, Note_on_c, 11, 62, 0
13, 47220, Note_on_c, 11, 62, 55
13, 47265, Note_on_c, 11, 62, 0
13, 47280, Note_on_c, 11, 64, 55
13, 47325, Note_on_c, 11, 64, 0
13, 47340, Note_on_c, 11, 64, 55
13, 47385, Note_on_c, 11, 64, 0
13, 47400, Note_on_c, 11, 61, 55
13, 47445, Note_on_c, 11, 61, 0
13, 47460, Note_on_c, 11, 61, 55
13, 47505, Note_on_c, 11, 61, 0
13, 47520, Note_on_c, 11, 62, 55
13, 47565, Note_on_c, 11, 62, 0
13, 47580, Note_on_c, 11, 62, 55
13, 47625, Note_on_c, 11, 62, 0
13, 47640, Note_on_c, 11, 64, 55
13, 47685, Note_on_c, 11, 64, 0
13, 47700, Note_on_c, 11, 64, 55
13, 47745, Note_on_c, 11, 64, 0
13, 47760, Note_on_c, 11, 66, 55
13, 47805, Note_on_c, 11, 66, 0
13, 47820, Note_on_c, 11, 66, 55
13, 47865, Note_on_c, 11, 66, 0
13, 47880, Note_on_c, 11, 62, 55
13, 47925, Note_on_c, 11, 62, 0
13, 47940, Note_on_c, 11, 62, 55
13, 47985, Note_on_c, 11, 62, 0
13, 48000, Note_on_c, 11, 61, 55
13, 48045, Note_on_c, 11, 61, 0
13, 48060, Note_on_c, 11, 61, 55
13, 48105, Note_on_c, 11, 61, 0
13, 48120, Note_on_c, 11, 62, 55
13, 48165, Note_on_c, 11, 62, 0
13, 48180, Note_on_c, 11, 62, 55
13, 48225, Note_on_c, 11, 62, 0
13, 48240, Note_on_c, 11, 64, 55
13, 48285, Note_on_c, 11, 64, 0
13, 48300, Note_on_c, 11, 64, 55
13, 48345, Note_on_c, 11, 64, 0
13, 48360, Note_on_c, 11, 61, 55
13, 48405, Note_on_c, 11, 61, 0
13, 48420, Note_on_c, 11, 61, 55
13, 48465, Note_on_c, 11, 61, 0
13, 48480, Note_on_c, 11, 62, 55
13, 48525, Note_on_c, 11, 62, 0
13, 48540, Note_on_c, 11, 62, 85
13, 48585, Note_on_c, 11, 62, 0
13, 48600, Note_on_c, 11, 66, 85
13, 48645, Note_on_c, 11, 66, 0
13, 48660, Note_on_c, 11, 64, 85
13, 48705, Note_on_c, 11, 64, 0
13, 48720, Note_on_c, 11, 63, 85
13, 48765, Note_on_c, 11, 63, 0
13, 48780, Note_on_c, 11, 59, 85
13, 48825, Note_on_c, 11, 59, 0
13, 48840, Note_on_c, 11, 61, 85
13, 48885, Note_on_c, 11, 61, 0
13, 48900, Note_on_c, 11, 62, 85
13, 48945, Note_on_c, 11, 62, 0
13, 48960, Note_on_c, 11, 64, 85
13, 49005, Note_on_c, 11, 64, 0
13, 49020, Note_on_c, 11, 67, 85
13, 49065, Note_on_c, 11, 67, 0
13, 49080, Note_on_c, 11, 64, 85
13, 49125, Note_on_c, 11, 64, 0
13, 49140, Note_on_c, 11, 62, 85
13, 49185, Note_on_c, 11, 62, 0
13, 49200, Note_on_c, 11, 61, 85
13, 49245, Note_on_c, 11, 61, 0
13, 49260, Note_on_c, 11, 57, 85
13, 49305, Note_on_c, 11, 57, 0
13, 49320, Note_on_c, 11, 59, 85
13, 49365, Note_on_c, 11, 59, 0
13, 49380, Note_on_c, 11, 61, 85
13, 49425, Note_on_c, 11, 61, 0
13, 49440, Note_on_c, 11, 62, 85
13, 49485, Note_on_c, 11, 62, 0
13, 49500, Note_on_c, 11, 74, 85
13, 49545, Note_on_c, 11, 74, 0
13, 49560, Note_on_c, 11, 74, 85
13, 49605, Note_on_c, 11, 74, 0
13, 49620, Note_on_c, 11, 74, 85
13, 49665, Note_on_c, 11, 74, 0
13, 49680, Note_on_c, 11, 74, 85
13, 49725, Note_on_c, 11, 74, 0
13, 49740, Note_on_c, 11, 74, 85
13, 49785, Note_on_c, 11, 74, 0
13, 49800, Note_on_c, 11, 74, 85
13, 49845, Note_on_c, 11, 74, 0
13, 49860, Note_on_c, 11, 74, 85
13, 49905, Note_on_c, 11, 74, 0
13, 49920, Note_on_c, 11, 74, 85
13, 49980, Note_on_c, 11, 74, 0
13, 49980, Note_on_c, 11, 69, 85
13, 50025, Note_on_c, 11, 69, 0
13, 50040, Note_on_c, 11, 69, 85
13, 50070, Note_on_c, 11, 69, 0
13, 50100, Note_on_c, 11, 69, 85
13, 50130, Note_on_c, 11, 69, 0
13, 50160, Note_on_c, 11, 69, 85
13, 50205, Note_on_c, 11, 69, 0
13, 50220, Note_on_c, 11, 69, 85
13, 50265, Note_on_c, 11, 69, 0
13, 50280, Note_on_c, 11, 69, 85
13, 50325, Note_on_c, 11, 69, 0
13, 50340, Note_on_c, 11, 67, 85
13, 50385, Note_on_c, 11, 67, 0
13, 50400, Note_on_c, 11, 66, 85
13, 50445, Note_on_c, 11, 66, 0
13, 50460, Note_on_c, 11, 57, 85
13, 50505, Note_on_c, 11, 57, 0
13, 50520, Note_on_c, 11, 59, 85
13, 50565, Note_on_c, 11, 59, 0
13, 50580, Note_on_c, 11, 61, 85
13, 50625, Note_on_c, 11, 61, 0
13, 50640, Note_on_c, 11, 62, 85
13, 50685, Note_on_c, 11, 62, 0
13, 50700, Note_on_c, 11, 62, 85
13, 50745, Note_on_c, 11, 62, 0
13, 50760, Note_on_c, 11, 64, 85
13, 50805, Note_on_c, 11, 64, 0
13, 50820, Note_on_c, 11, 64, 85
13, 50865, Note_on_c, 11, 64, 0
13, 50880, Note_on_c, 11, 66, 85
13, 50925, Note_on_c, 11, 66, 0
13, 50940, Note_on_c, 11, 61, 85
13, 50985, Note_on_c, 11, 61, 0
13, 51000, Note_on_c, 11, 62, 85
13, 51045, Note_on_c, 11, 62, 0
13, 51060, Note_on_c, 11, 64, 85
13, 51105, Note_on_c, 11, 64, 0
13, 51120, Note_on_c, 11, 66, 85
13, 51165, Note_on_c, 11, 66, 0
13, 51180, Note_on_c, 11, 66, 85
13, 51225, Note_on_c, 11, 66, 0
13, 51240, Note_on_c, 11, 67, 85
13, 51285, Note_on_c, 11, 67, 0
13, 51300, Note_on_c, 11, 67, 85
13, 51345, Note_on_c, 11, 67, 0
13, 51360, Note_on_c, 11, 69, 85
13, 51405, Note_on_c, 11, 69, 0
13, 51420, Note_on_c, 11, 69, 85
13, 51465, Note_on_c, 11, 69, 0
13, 51480, Note_on_c, 11, 70, 85
13, 51525, Note_on_c, 11, 70, 0
13, 51540, Note_on_c, 11, 70, 85
13, 51585, Note_on_c, 11, 70, 0
13, 51600, Note_on_c, 11, 71, 85
13, 51720, Note_on_c, 11, 71, 0
13, 51840, Note_on_c, 11, 64, 55
13, 52200, Note_on_c, 11, 64, 0
13, 52200, Note_on_c, 11, 62, 55
13, 52260, Note_on_c, 11, 62, 0
13, 52260, Note_on_c, 11, 61, 55
13, 52320, Note_on_c, 11, 61, 0
13, 52320, Note_on_c, 11, 62, 55
13, 52380, Note_on_c, 11, 62, 0
13, 52440, Note_on_c, 11, 62, 55
13, 52500, Note_on_c, 11, 62, 0
13, 52560, Note_on_c, 11, 62, 55
13, 52620, Note_on_c, 11, 62, 0
13, 52800, Note_on_c, 11, 62, 89
13, 52920, Note_on_c, 11, 62, 0
13, 52980, Note_on_c, 11, 57, 89
13, 53025, Note_on_c, 11, 57, 0
13, 53040, Note_on_c, 11, 62, 89
13, 53160, Note_on_c, 11, 62, 0
13, 53220, Note_on_c, 11, 57, 89
13, 53265, Note_on_c, 11, 57, 0
13, 53280, Note_on_c, 11, 62, 89
13, 53325, Note_on_c, 11, 62, 0
13, 53340, Note_on_c, 11, 57, 89
13, 53385, Note_on_c, 11, 57, 0
13, 53400, Note_on_c, 11, 62, 89
13, 53445, Note_on_c, 11, 62, 0
13, 53460, Note_on_c, 11, 66, 89
13, 53505, Note_on_c, 11, 66, 0
13, 53520, Note_on_c, 11, 69, 89
13, 53640, Note_on_c, 11, 69, 0
13, 53760, Note_on_c, 11, 69, 89
13, 53880, Note_on_c, 11, 69, 0
13, 53940, Note_on_c, 11, 66, 89
13, 53985, Note_on_c, 11, 66, 0
13, 54000, Note_on_c, 11, 69, 89
13, 54120, Note_on_c, 11, 69, 0
13, 54180, Note_on_c, 11, 66, 89
13, 54225, Note_on_c, 11, 66, 0
13, 54240, Note_on_c, 11, 69, 89
13, 54285, Note_on_c, 11, 69, 0
13, 54300, Note_on_c, 11, 66, 89
13, 54345, Note_on_c, 11, 66, 0
13, 54360, Note_on_c, 11, 63, 89
13, 54405, Note_on_c, 11, 63, 0
13, 54420, Note_on_c, 11, 66, 89
13, 54465, Note_on_c, 11, 66, 0
13, 54480, Note_on_c, 11, 59, 89
13, 54600, Note_on_c, 11, 59, 0
13, 54720, Note_on_c, 11, 60, 55
13, 54765, Note_on_c, 11, 60, 0
13, 54780, Note_on_c, 11, 60, 55
13, 54825, Note_on_c, 11, 60, 0
13, 54840, Note_on_c, 11, 62, 55
13, 54885, Note_on_c, 11, 62, 0
13, 54900, Note_on_c, 11, 62, 55
13, 54945, Note_on_c, 11, 62, 0
13, 54960, Note_on_c, 11, 64, 55
13, 55005, Note_on_c, 11, 64, 0
13, 55020, Note_on_c, 11, 64, 55
13, 55065, Note_on_c, 11, 64, 0
13, 55080, Note_on_c, 11, 60, 55
13, 55125, Note_on_c, 11, 60, 0
13, 55140, Note_on_c, 11, 60, 55
13, 55185, Note_on_c, 11, 60, 0
13, 55200, Note_on_c, 11, 59, 55
13, 55245, Note_on_c, 11, 59, 0
13, 55260, Note_on_c, 11, 59, 55
13, 55305, Note_on_c, 11, 59, 0
13, 55320, Note_on_c, 11, 60, 55
13, 55365, Note_on_c, 11, 60, 0
13, 55380, Note_on_c, 11, 60, 55
13, 55425, Note_on_c, 11, 60, 0
13, 55440, Note_on_c, 11, 62, 55
13, 55485, Note_on_c, 11, 62, 0
13, 55500, Note_on_c, 11, 62, 55
13, 55545, Note_on_c, 11, 62, 0
13, 55560, Note_on_c, 11, 59, 55
13, 55605, Note_on_c, 11, 59, 0
13, 55620, Note_on_c, 11, 59, 55
13, 55665, Note_on_c, 11, 59, 0
13, 55680, Note_on_c, 11, 60, 55
13, 55725, Note_on_c, 11, 60, 0
13, 55740, Note_on_c, 11, 60, 55
13, 55785, Note_on_c, 11, 60, 0
13, 55800, Note_on_c, 11, 62, 55
13, 55845, Note_on_c, 11, 62, 0
13, 55860, Note_on_c, 11, 62, 55
13, 55905, Note_on_c, 11, 62, 0
13, 55920, Note_on_c, 11, 64, 55
13, 55965, Note_on_c, 11, 64, 0
13, 55980, Note_on_c, 11, 64, 55
13, 56025, Note_on_c, 11, 64, 0
13, 56040, Note_on_c, 11, 60, 55
13, 56085, Note_on_c, 11, 60, 0
13, 56100, Note_on_c, 11, 60, 55
13, 56145, Note_on_c, 11, 60, 0
13, 56160, Note_on_c, 11, 59, 55
13, 56205, Note_on_c, 11, 59, 0
13, 56220, Note_on_c, 11, 59, 55
13, 56265, Note_on_c, 11, 59, 0
13, 56280, Note_on_c, 11, 60, 55
13, 56325, Note_on_c, 11, 60, 0
13, 56340, Note_on_c, 11, 60, 55
13, 56385, Note_on_c, 11, 60, 0
13, 56400, Note_on_c, 11, 62, 55
13, 56445, Note_on_c, 11, 62, 0
13, 56460, Note_on_c, 11, 62, 55
13, 56505, Note_on_c, 11, 62, 0
13, 56520, Note_on_c, 11, 59, 55
13, 56565, Note_on_c, 11, 59, 0
13, 56580, Note_on_c, 11, 59, 55
13, 56625, Note_on_c, 11, 59, 0
13, 56640, Note_on_c, 11, 60, 55
13, 56685, Note_on_c, 11, 60, 0
13, 56700, Note_on_c, 11, 60, 55
13, 56745, Note_on_c, 11, 60, 0
13, 56760, Note_on_c, 11, 62, 55
13, 56805, Note_on_c, 11, 62, 0
13, 56820, Note_on_c, 11, 62, 55
13, 56865, Note_on_c, 11, 62, 0
13, 56880, Note_on_c, 11, 64, 55
13, 56925, Note_on_c, 11, 64, 0
13, 56940, Note_on_c, 11, 64, 55
13, 56985, Note_on_c, 11, 64, 0
13, 57000, Note_on_c, 11, 60, 55
13, 57045, Note_on_c, 11, 60, 0
13, 57060, Note_on_c, 11, 60, 55
13, 57105, Note_on_c, 11, 60, 0
13, 57120, Note_on_c, 11, 59, 55
13, 57165, Note_on_c, 11, 59, 0
13, 57180, Note_on_c, 11, 59, 55
13, 57225, Note_on_c, 11, 59, 0
13, 57240, Note_on_c, 11, 60, 55
13, 57285, Note_on_c, 11, 60, 0
13, 57300, Note_on_c, 11, 60, 55
13, 57345, Note_on_c, 11, 60, 0
13, 57360, Note_on_c, 11, 62, 55
13, 57405, Note_on_c, 11, 62, 0
13, 57420, Note_on_c, 11, 62, 55
13, 57465, Note_on_c, 11, 62, 0
13, 57480, Note_on_c, 11, 59, 55
13, 57525, Note_on_c, 11, 59, 0
13, 57540, Note_on_c, 11, 59, 55
13, 57585, Note_on_c, 11, 59, 0
13, 57600, Note_on_c, 11, 57, 55
13, 57645, Note_on_c, 11, 57, 0
13, 57660, Note_on_c, 11, 57, 55
13, 57705, Note_on_c, 11, 57, 0
13, 57720, Note_on_c, 11, 59, 55
13, 57765, Note_on_c, 11, 59, 0
13, 57780, Note_on_c, 11, 59, 55
13, 57825, Note_on_c, 11, 59, 0
13, 57840, Note_on_c, 11, 60, 55
13, 57885, Note_on_c, 11, 60, 0
13, 57900, Note_on_c, 11, 60, 55
13, 57945, Note_on_c, 11, 60, 0
13, 57960, Note_on_c, 11, 57, 55
13, 58005, Note_on_c, 11, 57, 0
13, 58020, Note_on_c, 11, 57, 55
13, 58065, Note_on_c, 11, 57, 0
13, 58080, Note_on_c, 11, 57, 55
13, 58125, Note_on_c, 11, 57, 0
13, 58140, Note_on_c, 11, 57, 55
13, 58185, Note_on_c, 11, 57, 0
13, 58200, Note_on_c, 11, 58, 55
13, 58245, Note_on_c, 11, 58, 0
13, 58260, Note_on_c, 11, 58, 55
13, 58305, Note_on_c, 11, 58, 0
13, 58320, Note_on_c, 11, 60, 55
13, 58365, Note_on_c, 11, 60, 0
13, 58380, Note_on_c, 11, 60, 55
13, 58425, Note_on_c, 11, 60, 0
13, 58440, Note_on_c, 11, 57, 55
13, 58485, Note_on_c, 11, 57, 0
13, 58500, Note_on_c, 11, 57, 55
13, 58545, Note_on_c, 11, 57, 0
13, 58560, Note_on_c, 11, 55, 55
13, 58605, Note_on_c, 11, 55, 0
13, 58620, Note_on_c, 11, 55, 55
13, 58665, Note_on_c, 11, 55, 0
13, 58680, Note_on_c, 11, 54, 55
13, 58725, Note_on_c, 11, 54, 0
13, 58740, Note_on_c, 11, 54, 55
13, 58785, Note_on_c, 11, 54, 0
13, 58800, Note_on_c, 11, 55, 55
13, 58845, Note_on_c, 11, 55, 0
13, 58860, Note_on_c, 11, 55, 55
13, 58905, Note_on_c, 11, 55, 0
13, 58920, Note_on_c, 11, 66, 55
13, 58965, Note_on_c, 11, 66, 0
13, 58980, Note_on_c, 11, 66, 55
13, 59025, Note_on_c, 11, 66, 0
13, 59040, Note_on_c, 11, 67, 55
13, 59085, Note_on_c, 11, 67, 0
13, 59100, Note_on_c, 11, 67, 55
13, 59145, Note_on_c, 11, 67, 0
13, 59160, Note_on_c, 11, 66, 55
13, 59205, Note_on_c, 11, 66, 0
13, 59220, Note_on_c, 11, 66, 55
13, 59265, Note_on_c, 11, 66, 0
13, 59280, Note_on_c, 11, 67, 55
13, 59325, Note_on_c, 11, 67, 0
13, 59340, Note_on_c, 11, 55, 55
13, 59385, Note_on_c, 11, 55, 0
13, 59400, Note_on_c, 11, 53, 55
13, 59445, Note_on_c, 11, 53, 0
13, 59460, Note_on_c, 11, 55, 55
13, 59505, Note_on_c, 11, 55, 0
13, 59530, Note_on_c, 11, 57, 53
13, 59650, Note_on_c, 11, 57, 0
13, 59710, Note_on_c, 11, 50, 91
13, 59770, Note_on_c, 11, 50, 0
13, 59770, Note_on_c, 11, 52, 91
13, 59830, Note_on_c, 11, 52, 0
13, 59830, Note_on_c, 11, 54, 91
13, 59890, Note_on_c, 11, 54, 0
13, 59890, Note_on_c, 11, 55, 91
13, 59950, Note_on_c, 11, 55, 0
13, 59950, Note_on_c, 11, 57, 91
13, 60010, Note_on_c, 11, 57, 0
13, 60010, Note_on_c, 11, 60, 91
13, 60070, Note_on_c, 11, 60, 0
13, 60070, Note_on_c, 11, 58, 91
13, 60130, Note_on_c, 11, 58, 0
13, 60190, Note_on_c, 11, 54, 91
13, 60250, Note_on_c, 11, 54, 0
13, 60250, Note_on_c, 11, 55, 91
13, 60310, Note_on_c, 11, 55, 0
13, 60310, Note_on_c, 11, 57, 91
13, 60370, Note_on_c, 11, 57, 0
13, 60370, Note_on_c, 11, 58, 91
13, 60430, Note_on_c, 11, 58, 0
13, 60430, Note_on_c, 11, 61, 91
13, 60490, Note_on_c, 11, 61, 0
13, 60490, Note_on_c, 11, 64, 53
13, 60550, Note_on_c, 11, 64, 0
13, 60550, Note_on_c, 11, 62, 53
13, 60610, Note_on_c, 11, 62, 0
13, 61440, Note_on_c, 11, 71, 68
13, 61470, Note_on_c, 11, 71, 0
13, 61500, Note_on_c, 11, 71, 68
13, 61530, Note_on_c, 11, 71, 0
13, 61560, Note_on_c, 11, 71, 68
13, 61620, Note_on_c, 11, 71, 0
13, 61620, Note_on_c, 11, 72, 68
13, 61665, Note_on_c, 11, 72, 0
13, 61680, Note_on_c, 11, 69, 68
13, 61710, Note_on_c, 11, 69, 0
13, 61740, Note_on_c, 11, 69, 68
13, 61770, Note_on_c, 11, 69, 0
13, 61800, Note_on_c, 11, 69, 68
13, 61860, Note_on_c, 11, 69, 0
13, 61860, Note_on_c, 11, 71, 68
13, 61905, Note_on_c, 11, 71, 0
13, 61920, Note_on_c, 11, 67, 68
13, 61950, Note_on_c, 11, 67, 0
13, 61980, Note_on_c, 11, 67, 68
13, 62010, Note_on_c, 11, 67, 0
13, 62040, Note_on_c, 11, 67, 68
13, 62100, Note_on_c, 11, 67, 0
13, 62100, Note_on_c, 11, 71, 68
13, 62145, Note_on_c, 11, 71, 0
13, 62160, Note_on_c, 11, 71, 68
13, 62220, Note_on_c, 11, 71, 0
13, 62220, Note_on_c, 11, 69, 68
13, 62265, Note_on_c, 11, 69, 0
13, 62280, Note_on_c, 11, 67, 68
13, 62310, Note_on_c, 11, 67, 0
13, 62340, Note_on_c, 11, 62, 68
13, 62370, Note_on_c, 11, 62, 0
13, 62405, Note_on_c, 11, 59, 93
13, 62525, Note_on_c, 11, 59, 0
13, 62585, Note_on_c, 11, 62, 92
13, 62615, Note_on_c, 11, 62, 0
13, 62645, Note_on_c, 11, 67, 92
13, 62765, Note_on_c, 11, 67, 0
13, 62825, Note_on_c, 11, 62, 91
13, 62855, Note_on_c, 11, 62, 0
13, 62885, Note_on_c, 11, 67, 90
13, 62915, Note_on_c, 11, 67, 0
13, 62945, Note_on_c, 11, 62, 90
13, 62975, Note_on_c, 11, 62, 0
13, 63005, Note_on_c, 11, 67, 90
13, 63035, Note_on_c, 11, 67, 0
13, 63065, Note_on_c, 11, 71, 90
13, 63095, Note_on_c, 11, 71, 0
13, 63125, Note_on_c, 11, 74, 89
13, 63245, Note_on_c, 11, 74, 0
13, 63365, Note_on_c, 11, 72, 88
13, 63485, Note_on_c, 11, 72, 0
13, 63545, Note_on_c, 11, 69, 87
13, 63575, Note_on_c, 11, 69, 0
13, 63605, Note_on_c, 11, 72, 86
13, 63725, Note_on_c, 11, 72, 0
13, 63785, Note_on_c, 11, 69, 85
13, 63815, Note_on_c, 11, 69, 0
13, 63845, Note_on_c, 11, 72, 85
13, 63875, Note_on_c, 11, 72, 0
13, 63905, Note_on_c, 11, 69, 85
13, 63935, Note_on_c, 11, 69, 0
13, 63965, Note_on_c, 11, 66, 85
13, 63995, Note_on_c, 11, 66, 0
13, 64025, Note_on_c, 11, 69, 85
13, 64055, Note_on_c, 11, 69, 0
13, 64085, Note_on_c, 11, 62, 85
13, 64205, Note_on_c, 11, 62, 0
13, 64320, Note_on_c, 11, 67, 85
13, 64365, Note_on_c, 11, 67, 0
13, 64380, Note_on_c, 11, 67, 85
13, 64425, Note_on_c, 11, 67, 0
13, 64440, Note_on_c, 11, 67, 85
13, 64485, Note_on_c, 11, 67, 0
13, 64500, Note_on_c, 11, 67, 85
13, 64545, Note_on_c, 11, 67, 0
13, 64560, Note_on_c, 11, 67, 85
13, 64605, Note_on_c, 11, 67, 0
13, 64620, Note_on_c, 11, 67, 85
13, 64665, Note_on_c, 11, 67, 0
13, 64680, Note_on_c, 11, 67, 85
13, 64725, Note_on_c, 11, 67, 0
13, 64740, Note_on_c, 11, 67, 85
13, 64785, Note_on_c, 11, 67, 0
13, 64800, Note_on_c, 11, 69, 85
13, 64845, Note_on_c, 11, 69, 0
13, 64860, Note_on_c, 11, 69, 85
13, 64905, Note_on_c, 11, 69, 0
13, 64920, Note_on_c, 11, 69, 85
13, 64965, Note_on_c, 11, 69, 0
13, 64980, Note_on_c, 11, 69, 85
13, 65025, Note_on_c, 11, 69, 0
13, 65040, Note_on_c, 11, 69, 85
13, 65100, Note_on_c, 11, 69, 0
13, 65100, Note_on_c, 11, 72, 85
13, 65145, Note_on_c, 11, 72, 0
13, 65160, Note_on_c, 11, 66, 85
13, 65220, Note_on_c, 11, 66, 0
13, 65220, Note_on_c, 11, 69, 85
13, 65265, Note_on_c, 11, 69, 0
13, 65280, Note_on_c, 11, 67, 85
13, 65325, Note_on_c, 11, 67, 0
13, 65340, Note_on_c, 11, 67, 85
13, 65385, Note_on_c, 11, 67, 0
13, 65400, Note_on_c, 11, 67, 85
13, 65445, Note_on_c, 11, 67, 0
13, 65460, Note_on_c, 11, 67, 85
13, 65505, Note_on_c, 11, 67, 0
13, 65520, Note_on_c, 11, 67, 85
13, 65565, Note_on_c, 11, 67, 0
13, 65580, Note_on_c, 11, 67, 85
13, 65625, Note_on_c, 11, 67, 0
13, 65640, Note_on_c, 11, 67, 85
13, 65685, Note_on_c, 11, 67, 0
13, 65700, Note_on_c, 11, 67, 85
13, 65745, Note_on_c, 11, 67, 0
13, 65760, Note_on_c, 11, 69, 85
13, 65805, Note_on_c, 11, 69, 0
13, 65820, Note_on_c, 11, 69, 85
13, 65865, Note_on_c, 11, 69, 0
13, 65880, Note_on_c, 11, 69, 85
13, 65925, Note_on_c, 11, 69, 0
13, 65940, Note_on_c, 11, 69, 85
13, 65985, Note_on_c, 11, 69, 0
13, 66000, Note_on_c, 11, 69, 85
13, 66060, Note_on_c, 11, 69, 0
13, 66060, Note_on_c, 11, 72, 85
13, 66105, Note_on_c, 11, 72, 0
13, 66120, Note_on_c, 11, 66, 85
13, 66180, Note_on_c, 11, 66, 0
13, 66180, Note_on_c, 11, 69, 85
13, 66225, Note_on_c, 11, 69, 0
13, 66240, Note_on_c, 11, 62, 85
13, 66260, Note_on_c, 11, 62, 0
13, 66270, Note_on_c, 11, 62, 85
13, 66290, Note_on_c, 11, 62, 0
13, 66300, Note_on_c, 11, 62, 85
13, 66320, Note_on_c, 11, 62, 0
13, 66330, Note_on_c, 11, 62, 85
13, 66350, Note_on_c, 11, 62, 0
13, 66360, Note_on_c, 11, 62, 85
13, 66380, Note_on_c, 11, 62, 0
13, 66390, Note_on_c, 11, 62, 85
13, 66410, Note_on_c, 11, 62, 0
13, 66420, Note_on_c, 11, 62, 85
13, 66440, Note_on_c, 11, 62, 0
13, 66450, Note_on_c, 11, 62, 85
13, 66470, Note_on_c, 11, 62, 0
13, 66480, Note_on_c, 11, 62, 85
13, 66500, Note_on_c, 11, 62, 0
13, 66510, Note_on_c, 11, 62, 85
13, 66530, Note_on_c, 11, 62, 0
13, 66540, Note_on_c, 11, 62, 85
13, 66560, Note_on_c, 11, 62, 0
13, 66570, Note_on_c, 11, 62, 85
13, 66590, Note_on_c, 11, 62, 0
13, 66600, Note_on_c, 11, 62, 85
13, 66620, Note_on_c, 11, 62, 0
13, 66630, Note_on_c, 11, 62, 85
13, 66650, Note_on_c, 11, 62, 0
13, 66660, Note_on_c, 11, 62, 85
13, 66680, Note_on_c, 11, 62, 0
13, 66690, Note_on_c, 11, 62, 85
13, 66710, Note_on_c, 11, 62, 0
13, 66720, Note_on_c, 11, 62, 85
13, 66740, Note_on_c, 11, 62, 0
13, 66750, Note_on_c, 11, 62, 85
13, 66770, Note_on_c, 11, 62, 0
13, 66780, Note_on_c, 11, 62, 85
13, 66800, Note_on_c, 11, 62, 0
13, 66810, Note_on_c, 11, 62, 85
13, 66830, Note_on_c, 11, 62, 0
13, 66840, Note_on_c, 11, 62, 85
13, 66860, Note_on_c, 11, 62, 0
13, 66870, Note_on_c, 11, 62, 85
13, 66890, Note_on_c, 11, 62, 0
13, 66900, Note_on_c, 11, 62, 85
13, 66920, Note_on_c, 11, 62, 0
13, 66930, Note_on_c, 11, 62, 85
13, 66950, Note_on_c, 11, 62, 0
13, 66960, Note_on_c, 11, 62, 85
13, 67080, Note_on_c, 11, 62, 0
13, 67680, Note_on_c, 11, 54, 47
13, 67920, Note_on_c, 11, 54, 0
13, 67920, Note_on_c, 11, 55, 47
13, 68160, Note_on_c, 11, 55, 0
13, 68160, Note_on_c, 11, 60, 47
13, 68250, Note_on_c, 11, 60, 0
13, 68280, Note_on_c, 11, 60, 47
13, 68370, Note_on_c, 11, 60, 0
13, 68400, Note_on_c, 11, 57, 47
13, 68490, Note_on_c, 11, 57, 0
13, 68520, Note_on_c, 11, 50, 47
13, 68610, Note_on_c, 11, 50, 0
13, 68640, Note_on_c, 11, 50, 47
13, 68700, Note_on_c, 11, 50, 0
13, 68760, Note_on_c, 11, 62, 47
13, 68820, Note_on_c, 11, 62, 0
13, 68880, Note_on_c, 11, 62, 47
13, 69000, Note_on_c, 11, 62, 0
13, 69600, Note_on_c, 11, 66, 47
13, 69840, Note_on_c, 11, 66, 0
13, 69840, Note_on_c, 11, 67, 47
13, 70080, Note_on_c, 11, 67, 0
13, 70080, Note_on_c, 11, 60, 47
13, 70170, Note_on_c, 11, 60, 0
13, 70200, Note_on_c, 11, 60, 47
13, 70245, Note_on_c, 11, 60, 0
13, 70260, Note_on_c, 11, 60, 47
13, 70305, Note_on_c, 11, 60, 0
13, 70320, Note_on_c, 11, 57, 47
13, 70410, Note_on_c, 11, 57, 0
13, 70440, Note_on_c, 11, 57, 47
13, 70485, Note_on_c, 11, 57, 0
13, 70500, Note_on_c, 11, 57, 47
13, 70545, Note_on_c, 11, 57, 0
13, 70560, Note_on_c, 11, 55, 92
13, 70605, Note_on_c, 11, 55, 0
13, 70620, Note_on_c, 11, 55, 71
13, 70665, Note_on_c, 11, 55, 0
13, 70680, Note_on_c, 11, 55, 71
13, 70725, Note_on_c, 11, 55, 0
13, 70740, Note_on_c, 11, 55, 71
13, 70785, Note_on_c, 11, 55, 0
13, 70800, Note_on_c, 11, 55, 55
13, 70845, Note_on_c, 11, 55, 0
13, 70860, Note_on_c, 11, 55, 50
13, 70905, Note_on_c, 11, 55, 0
13, 70920, Note_on_c, 11, 55, 50
13, 70965, Note_on_c, 11, 55, 0
13, 70980, Note_on_c, 11, 55, 50
13, 71025, Note_on_c, 11, 55, 0
13, 71040, Note_on_c, 11, 55, 91
13, 71085, Note_on_c, 11, 55, 0
13, 71100, Note_on_c, 11, 55, 65
13, 71145, Note_on_c, 11, 55, 0
13, 71160, Note_on_c, 11, 55, 65
13, 71205, Note_on_c, 11, 55, 0
13, 71220, Note_on_c, 11, 55, 65
13, 71265, Note_on_c, 11, 55, 0
13, 71280, Note_on_c, 11, 55, 46
13, 71325, Note_on_c, 11, 55, 0
13, 71340, Note_on_c, 11, 55, 46
13, 71385, Note_on_c, 11, 55, 0
13, 71400, Note_on_c, 11, 55, 46
13, 71445, Note_on_c, 11, 55, 0
13, 71460, Note_on_c, 11, 55, 46
13, 71505, Note_on_c, 11, 55, 0
13, 71520, Note_on_c, 11, 55, 59
13, 71565, Note_on_c, 11, 55, 0
13, 71580, Note_on_c, 11, 67, 41
13, 71625, Note_on_c, 11, 67, 0
13, 71640, Note_on_c, 11, 67, 46
13, 71685, Note_on_c, 11, 67, 0
13, 71700, Note_on_c, 11, 67, 49
13, 71745, Note_on_c, 11, 67, 0
13, 71760, Note_on_c, 11, 67, 53
13, 71805, Note_on_c, 11, 67, 0
13, 71820, Note_on_c, 11, 67, 56
13, 71865, Note_on_c, 11, 67, 0
13, 71880, Note_on_c, 11, 69, 61
13, 71925, Note_on_c, 11, 69, 0
13, 71940, Note_on_c, 11, 69, 64
13, 71985, Note_on_c, 11, 69, 0
13, 72000, Note_on_c, 11, 67, 68
13, 72045, Note_on_c, 11, 67, 0
13, 72060, Note_on_c, 11, 67, 71
13, 72105, Note_on_c, 11, 67, 0
13, 72120, Note_on_c, 11, 66, 76
13, 72165, Note_on_c, 11, 66, 0
13, 72180, Note_on_c, 11, 66, 79
13, 72225, Note_on_c, 11, 66, 0
13, 72240, Note_on_c, 11, 67, 82
13, 72285, Note_on_c, 11, 67, 0
13, 72300, Note_on_c, 11, 67, 82
13, 72345, Note_on_c, 11, 67, 0
13, 72360, Note_on_c, 11, 64, 82
13, 72405, Note_on_c, 11, 64, 0
13, 72420, Note_on_c, 11, 64, 82
13, 72465, Note_on_c, 11, 64, 0
13, 72480, Note_on_c, 11, 69, 85
13, 72480, Note_on_c, 11, 62, 85
13, 72500, Note_on_c, 11, 62, 0
13, 72500, Note_on_c, 11, 69, 0
13, 72510, Note_on_c, 11, 69, 85
13, 72510, Note_on_c, 11, 62, 85
13, 72530, Note_on_c, 11, 62, 0
13, 72530, Note_on_c, 11, 69, 0
13, 72540, Note_on_c, 11, 69, 85
13, 72540, Note_on_c, 11, 62, 85
13, 72560, Note_on_c, 11, 62, 0
13, 72560, Note_on_c, 11, 69, 0
13, 72570, Note_on_c, 11, 69, 85
13, 72570, Note_on_c, 11, 62, 85
13, 72590, Note_on_c, 11, 62, 0
13, 72590, Note_on_c, 11, 69, 0
13, 72600, Note_on_c, 11, 69, 85
13, 72600, Note_on_c, 11, 62, 85
13, 72620, Note_on_c, 11, 62, 0
13, 72620, Note_on_c, 11, 69, 0
13, 72630, Note_on_c, 11, 69, 85
13, 72630, Note_on_c, 11, 62, 85
13, 72650, Note_on_c, 11, 62, 0
13, 72650, Note_on_c, 11, 69, 0
13, 72660, Note_on_c, 11, 69, 85
13, 72660, Note_on_c, 11, 62, 85
13, 72680, Note_on_c, 11, 62, 0
13, 72680, Note_on_c, 11, 69, 0
13, 72690, Note_on_c, 11, 69, 85
13, 72690, Note_on_c, 11, 62, 85
13, 72710, Note_on_c, 11, 62, 0
13, 72710, Note_on_c, 11, 69, 0
13, 72720, Note_on_c, 11, 69, 85
13, 72720, Note_on_c, 11, 64, 85
13, 72740, Note_on_c, 11, 64, 0
13, 72740, Note_on_c, 11, 69, 0
13, 72750, Note_on_c, 11, 69, 85
13, 72750, Note_on_c, 11, 64, 85
13, 72770, Note_on_c, 11, 64, 0
13, 72770, Note_on_c, 11, 69, 0
13, 72780, Note_on_c, 11, 69, 85
13, 72780, Note_on_c, 11, 64, 85
13, 72800, Note_on_c, 11, 64, 0
13, 72800, Note_on_c, 11, 69, 0
13, 72810, Note_on_c, 11, 69, 85
13, 72810, Note_on_c, 11, 64, 85
13, 72830, Note_on_c, 11, 64, 0
13, 72830, Note_on_c, 11, 69, 0
13, 72840, Note_on_c, 11, 69, 85
13, 72840, Note_on_c, 11, 64, 85
13, 72860, Note_on_c, 11, 64, 0
13, 72860, Note_on_c, 11, 69, 0
13, 72870, Note_on_c, 11, 69, 85
13, 72870, Note_on_c, 11, 64, 85
13, 72890, Note_on_c, 11, 64, 0
13, 72890, Note_on_c, 11, 69, 0
13, 72900, Note_on_c, 11, 69, 85
13, 72900, Note_on_c, 11, 64, 85
13, 72920, Note_on_c, 11, 64, 0
13, 72920, Note_on_c, 11, 69, 0
13, 72930, Note_on_c, 11, 69, 85
13, 72930, Note_on_c, 11, 64, 85
13, 72950, Note_on_c, 11, 64, 0
13, 72950, Note_on_c, 11, 69, 0
13, 72960, Note_on_c, 11, 69, 85
13, 72960, Note_on_c, 11, 62, 85
13, 72980, Note_on_c, 11, 62, 0
13, 72980, Note_on_c, 11, 69, 0
13, 72990, Note_on_c, 11, 69, 85
13, 72990, Note_on_c, 11, 62, 85
13, 73010, Note_on_c, 11, 62, 0
13, 73010, Note_on_c, 11, 69, 0
13, 73020, Note_on_c, 11, 69, 85
13, 73020, Note_on_c, 11, 62, 85
13, 73040, Note_on_c, 11, 62, 0
13, 73040, Note_on_c, 11, 69, 0
13, 73050, Note_on_c, 11, 69, 85
13, 73050, Note_on_c, 11, 62, 85
13, 73070, Note_on_c, 11, 62, 0
13, 73070, Note_on_c, 11, 69, 0
13, 73080, Note_on_c, 11, 69, 85
13, 73080, Note_on_c, 11, 62, 85
13, 73100, Note_on_c, 11, 62, 0
13, 73100, Note_on_c, 11, 69, 0
13, 73110, Note_on_c, 11, 69, 85
13, 73110, Note_on_c, 11, 62, 85
13, 73130, Note_on_c, 11, 62, 0
13, 73130, Note_on_c, 11, 69, 0
13, 73140, Note_on_c, 11, 69, 85
13, 73140, Note_on_c, 11, 62, 85
13, 73160, Note_on_c, 11, 62, 0
13, 73160, Note_on_c, 11, 69, 0
13, 73170, Note_on_c, 11, 69, 85
13, 73170, Note_on_c, 11, 62, 85
13, 73190, Note_on_c, 11, 62, 0
13, 73190, Note_on_c, 11, 69, 0
13, 73200, Note_on_c, 11, 69, 85
13, 73200, Note_on_c, 11, 64, 85
13, 73220, Note_on_c, 11, 64, 0
13, 73220, Note_on_c, 11, 69, 0
13, 73230, Note_on_c, 11, 69, 85
13, 73230, Note_on_c, 11, 64, 85
13, 73250, Note_on_c, 11, 64, 0
13, 73250, Note_on_c, 11, 69, 0
13, 73260, Note_on_c, 11, 69, 85
13, 73260, Note_on_c, 11, 64, 85
13, 73280, Note_on_c, 11, 64, 0
13, 73280, Note_on_c, 11, 69, 0
13, 73290, Note_on_c, 11, 69, 85
13, 73290, Note_on_c, 11, 64, 85
13, 73310, Note_on_c, 11, 64, 0
13, 73310, Note_on_c, 11, 69, 0
13, 73320, Note_on_c, 11, 69, 85
13, 73320, Note_on_c, 11, 64, 85
13, 73340, Note_on_c, 11, 64, 0
13, 73340, Note_on_c, 11, 69, 0
13, 73350, Note_on_c, 11, 69, 85
13, 73350, Note_on_c, 11, 64, 85
13, 73370, Note_on_c, 11, 64, 0
13, 73370, Note_on_c, 11, 69, 0
13, 73380, Note_on_c, 11, 69, 85
13, 73380, Note_on_c, 11, 64, 85
13, 73400, Note_on_c, 11, 64, 0
13, 73400, Note_on_c, 11, 69, 0
13, 73410, Note_on_c, 11, 69, 85
13, 73410, Note_on_c, 11, 64, 85
13, 73430, Note_on_c, 11, 64, 0
13, 73430, Note_on_c, 11, 69, 0
13, 73440, Note_on_c, 11, 69, 85
13, 73440, Note_on_c, 11, 62, 85
13, 73460, Note_on_c, 11, 62, 0
13, 73460, Note_on_c, 11, 69, 0
13, 73470, Note_on_c, 11, 69, 85
13, 73470, Note_on_c, 11, 62, 85
13, 73490, Note_on_c, 11, 62, 0
13, 73490, Note_on_c, 11, 69, 0
13, 73500, Note_on_c, 11, 69, 85
13, 73500, Note_on_c, 11, 62, 85
13, 73520, Note_on_c, 11, 62, 0
13, 73520, Note_on_c, 11, 69, 0
13, 73530, Note_on_c, 11, 69, 85
13, 73530, Note_on_c, 11, 62, 85
13, 73550, Note_on_c, 11, 62, 0
13, 73550, Note_on_c, 11, 69, 0
13, 73560, Note_on_c, 11, 64, 85
13, 73560, Note_on_c, 11, 69, 85
13, 73580, Note_on_c, 11, 69, 0
13, 73580, Note_on_c, 11, 64, 0
13, 73590, Note_on_c, 11, 64, 85
13, 73590, Note_on_c, 11, 69, 85
13, 73610, Note_on_c, 11, 69, 0
13, 73610, Note_on_c, 11, 64, 0
13, 73620, Note_on_c, 11, 64, 85
13, 73620, Note_on_c, 11, 69, 85
13, 73640, Note_on_c, 11, 69, 0
13, 73640, Note_on_c, 11, 64, 0
13, 73650, Note_on_c, 11, 64, 85
13, 73650, Note_on_c, 11, 69, 85
13, 73670, Note_on_c, 11, 69, 0
13, 73670, Note_on_c, 11, 64, 0
13, 73680, Note_on_c, 11, 62, 85
13, 73680, Note_on_c, 11, 69, 85
13, 73700, Note_on_c, 11, 69, 0
13, 73700, Note_on_c, 11, 62, 0
13, 73710, Note_on_c, 11, 62, 85
13, 73710, Note_on_c, 11, 69, 85
13, 73730, Note_on_c, 11, 69, 0
13, 73730, Note_on_c, 11, 62, 0
13, 73740, Note_on_c, 11, 62, 85
13, 73740, Note_on_c, 11, 69, 85
13, 73760, Note_on_c, 11, 69, 0
13, 73760, Note_on_c, 11, 62, 0
13, 73770, Note_on_c, 11, 62, 85
13, 73770, Note_on_c, 11, 69, 85
13, 73790, Note_on_c, 11, 69, 0
13, 73790, Note_on_c, 11, 62, 0
13, 73800, Note_on_c, 11, 69, 85
13, 73800, Note_on_c, 11, 64, 85
13, 73820, Note_on_c, 11, 64, 0
13, 73820, Note_on_c, 11, 69, 0
13, 73830, Note_on_c, 11, 69, 85
13, 73830, Note_on_c, 11, 64, 85
13, 73850, Note_on_c, 11, 64, 0
13, 73850, Note_on_c, 11, 69, 0
13, 73860, Note_on_c, 11, 69, 85
13, 73860, Note_on_c, 11, 64, 85
13, 73880, Note_on_c, 11, 64, 0
13, 73880, Note_on_c, 11, 69, 0
13, 73890, Note_on_c, 11, 69, 85
13, 73890, Note_on_c, 11, 64, 85
13, 73910, Note_on_c, 11, 64, 0
13, 73910, Note_on_c, 11, 69, 0
13, 73923, Note_on_c, 11, 62, 85
13, 73923, Note_on_c, 11, 69, 85
13, 73968, Note_on_c, 11, 69, 0
13, 73968, Note_on_c, 11, 62, 0
13, 73983, Note_on_c, 11, 50, 85
13, 74028, Note_on_c, 11, 50, 0
13, 74043, Note_on_c, 11, 50, 85
13, 74088, Note_on_c, 11, 50, 0
13, 74103, Note_on_c, 11, 50, 85
13, 74148, Note_on_c, 11, 50, 0
13, 74163, Note_on_c, 11, 50, 85
13, 74283, Note_on_c, 11, 50, 0
13, 74760, Note_on_c, 11, 59, 55
13, 74820, Note_on_c, 11, 59, 0
13, 74880, Note_on_c, 11, 52, 55
13, 74940, Note_on_c, 11, 52, 0
13, 75000, Note_on_c, 11, 60, 55
13, 75060, Note_on_c, 11, 60, 0
13, 75120, Note_on_c, 11, 57, 55
13, 75180, Note_on_c, 11, 57, 0
13, 75240, Note_on_c, 11, 54, 55
13, 75300, Note_on_c, 11, 54, 0
13, 75480, Note_on_c, 11, 69, 55
13, 75600, Note_on_c, 11, 69, 0
13, 75600, Note_on_c, 11, 67, 55
13, 75660, Note_on_c, 11, 67, 0
13, 75720, Note_on_c, 11, 69, 55
13, 75780, Note_on_c, 11, 69, 0
13, 75840, Note_on_c, 11, 67, 55
13, 76080, Note_on_c, 11, 67, 0
13, 76080, Note_on_c, 11, 66, 55
13, 76200, Note_on_c, 11, 66, 0
13, 76440, Note_on_c, 11, 66, 55
13, 76560, Note_on_c, 11, 66, 0
13, 76560, Note_on_c, 11, 67, 55
13, 76620, Note_on_c, 11, 67, 0
13, 76680, Note_on_c, 11, 71, 55
13, 76740, Note_on_c, 11, 71, 0
13, 76800, Note_on_c, 11, 64, 55
13, 76860, Note_on_c, 11, 64, 0
13, 76920, Note_on_c, 11, 60, 55
13, 76980, Note_on_c, 11, 60, 0
13, 77040, Note_on_c, 11, 57, 55
13, 77160, Note_on_c, 11, 57, 0
13, 77220, Note_on_c, 11, 69, 55
13, 77265, Note_on_c, 11, 69, 0
13, 77280, Note_on_c, 11, 69, 55
13, 77340, Note_on_c, 11, 69, 0
13, 77340, Note_on_c, 11, 67, 55
13, 77400, Note_on_c, 11, 67, 0
13, 77760, Note_on_c, 11, 55, 55
13, 77805, Note_on_c, 11, 55, 0
13, 77820, Note_on_c, 11, 55, 55
13, 77865, Note_on_c, 11, 55, 0
13, 77880, Note_on_c, 11, 57, 55
13, 77925, Note_on_c, 11, 57, 0
13, 77940, Note_on_c, 11, 57, 55
13, 77985, Note_on_c, 11, 57, 0
13, 78000, Note_on_c, 11, 59, 55
13, 78045, Note_on_c, 11, 59, 0
13, 78060, Note_on_c, 11, 59, 55
13, 78105, Note_on_c, 11, 59, 0
13, 78120, Note_on_c, 11, 55, 55
13, 78165, Note_on_c, 11, 55, 0
13, 78180, Note_on_c, 11, 55, 55
13, 78225, Note_on_c, 11, 55, 0
13, 78240, Note_on_c, 11, 54, 55
13, 78285, Note_on_c, 11, 54, 0
13, 78300, Note_on_c, 11, 54, 55
13, 78345, Note_on_c, 11, 54, 0
13, 78360, Note_on_c, 11, 55, 55
13, 78405, Note_on_c, 11, 55, 0
13, 78420, Note_on_c, 11, 55, 55
13, 78465, Note_on_c, 11, 55, 0
13, 78480, Note_on_c, 11, 57, 55
13, 78525, Note_on_c, 11, 57, 0
13, 78540, Note_on_c, 11, 57, 55
13, 78585, Note_on_c, 11, 57, 0
13, 78600, Note_on_c, 11, 54, 55
13, 78645, Note_on_c, 11, 54, 0
13, 78660, Note_on_c, 11, 54, 55
13, 78705, Note_on_c, 11, 54, 0
13, 78720, Note_on_c, 11, 55, 55
13, 78765, Note_on_c, 11, 55, 0
13, 78780, Note_on_c, 11, 55, 55
13, 78825, Note_on_c, 11, 55, 0
13, 78840, Note_on_c, 11, 57, 55
13, 78885, Note_on_c, 11, 57, 0
13, 78900, Note_on_c, 11, 57, 55
13, 78945, Note_on_c, 11, 57, 0
13, 78960, Note_on_c, 11, 59, 55
13, 79005, Note_on_c, 11, 59, 0
13, 79020, Note_on_c, 11, 59, 55
13, 79065, Note_on_c, 11, 59, 0
13, 79080, Note_on_c, 11, 55, 55
13, 79125, Note_on_c, 11, 55, 0
13, 79140, Note_on_c, 11, 55, 55
13, 79185, Note_on_c, 11, 55, 0
13, 79200, Note_on_c, 11, 54, 55
13, 79245, Note_on_c, 11, 54, 0
13, 79260, Note_on_c, 11, 54, 55
13, 79305, Note_on_c, 11, 54, 0
13, 79320, Note_on_c, 11, 55, 55
13, 79365, Note_on_c, 11, 55, 0
13, 79380, Note_on_c, 11, 55, 55
13, 79425, Note_on_c, 11, 55, 0
13, 79440, Note_on_c, 11, 57, 55
13, 79485, Note_on_c, 11, 57, 0
13, 79500, Note_on_c, 11, 57, 55
13, 79545, Note_on_c, 11, 57, 0
13, 79560, Note_on_c, 11, 54, 55
13, 79605, Note_on_c, 11, 54, 0
13, 79620, Note_on_c, 11, 54, 55
13, 79665, Note_on_c, 11, 54, 0
13, 79680, Note_on_c, 11, 55, 55
13, 79725, Note_on_c, 11, 55, 0
13, 79740, Note_on_c, 11, 67, 83
13, 79785, Note_on_c, 11, 67, 0
13, 79800, Note_on_c, 11, 71, 83
13, 79845, Note_on_c, 11, 71, 0
13, 79860, Note_on_c, 11, 69, 83
13, 79905, Note_on_c, 11, 69, 0
13, 79920, Note_on_c, 11, 68, 83
13, 79965, Note_on_c, 11, 68, 0
13, 79980, Note_on_c, 11, 64, 83
13, 80025, Note_on_c, 11, 64, 0
13, 80040, Note_on_c, 11, 66, 83
13, 80085, Note_on_c, 11, 66, 0
13, 80100, Note_on_c, 11, 67, 83
13, 80145, Note_on_c, 11, 67, 0
13, 80160, Note_on_c, 11, 69, 83
13, 80205, Note_on_c, 11, 69, 0
13, 80220, Note_on_c, 11, 72, 83
13, 80265, Note_on_c, 11, 72, 0
13, 80280, Note_on_c, 11, 69, 85
13, 80325, Note_on_c, 11, 69, 0
13, 80340, Note_on_c, 11, 67, 85
13, 80385, Note_on_c, 11, 67, 0
13, 80400, Note_on_c, 11, 66, 85
13, 80445, Note_on_c, 11, 66, 0
13, 80460, Note_on_c, 11, 62, 86
13, 80505, Note_on_c, 11, 62, 0
13, 80520, Note_on_c, 11, 64, 85
13, 80565, Note_on_c, 11, 64, 0
13, 80580, Note_on_c, 11, 66, 85
13, 80625, Note_on_c, 11, 66, 0
13, 80640, Note_on_c, 11, 67, 85
13, 80685, Note_on_c, 11, 67, 0
13, 80700, Note_on_c, 11, 67, 85
13, 80745, Note_on_c, 11, 67, 0
13, 80760, Note_on_c, 11, 67, 85
13, 80805, Note_on_c, 11, 67, 0
13, 80820, Note_on_c, 11, 67, 85
13, 80865, Note_on_c, 11, 67, 0
13, 80880, Note_on_c, 11, 67, 85
13, 80925, Note_on_c, 11, 67, 0
13, 80940, Note_on_c, 11, 67, 85
13, 80985, Note_on_c, 11, 67, 0
13, 81000, Note_on_c, 11, 67, 85
13, 81045, Note_on_c, 11, 67, 0
13, 81060, Note_on_c, 11, 67, 85
13, 81105, Note_on_c, 11, 67, 0
13, 81120, Note_on_c, 11, 67, 85
13, 81180, Note_on_c, 11, 67, 0
13, 81180, Note_on_c, 11, 62, 85
13, 81225, Note_on_c, 11, 62, 0
13, 81240, Note_on_c, 11, 62, 85
13, 81270, Note_on_c, 11, 62, 0
13, 81300, Note_on_c, 11, 62, 85
13, 81330, Note_on_c, 11, 62, 0
13, 81360, Note_on_c, 11, 62, 85
13, 81405, Note_on_c, 11, 62, 0
13, 81420, Note_on_c, 11, 62, 85
13, 81465, Note_on_c, 11, 62, 0
13, 81480, Note_on_c, 11, 62, 85
13, 81525, Note_on_c, 11, 62, 0
13, 81540, Note_on_c, 11, 60, 85
13, 81585, Note_on_c, 11, 60, 0
13, 81600, Note_on_c, 11, 55, 85
13, 81645, Note_on_c, 11, 55, 0
13, 81660, Note_on_c, 11, 55, 53
13, 81705, Note_on_c, 11, 55, 0
13, 81720, Note_on_c, 11, 57, 53
13, 81765, Note_on_c, 11, 57, 0
13, 81780, Note_on_c, 11, 57, 53
13, 81825, Note_on_c, 11, 57, 0
13, 81840, Note_on_c, 11, 59, 53
13, 81885, Note_on_c, 11, 59, 0
13, 81900, Note_on_c, 11, 59, 53
13, 81945, Note_on_c, 11, 59, 0
13, 81960, Note_on_c, 11, 55, 53
13, 82005, Note_on_c, 11, 55, 0
13, 82020, Note_on_c, 11, 55, 53
13, 82065, Note_on_c, 11, 55, 0
13, 82080, Note_on_c, 11, 54, 55
13, 82125, Note_on_c, 11, 54, 0
13, 82140, Note_on_c, 11, 54, 55
13, 82185, Note_on_c, 11, 54, 0
13, 82200, Note_on_c, 11, 55, 55
13, 82245, Note_on_c, 11, 55, 0
13, 82260, Note_on_c, 11, 55, 55
13, 82305, Note_on_c, 11, 55, 0
13, 82320, Note_on_c, 11, 57, 55
13, 82365, Note_on_c, 11, 57, 0
13, 82380, Note_on_c, 11, 57, 55
13, 82425, Note_on_c, 11, 57, 0
13, 82440, Note_on_c, 11, 54, 55
13, 82485, Note_on_c, 11, 54, 0
13, 82500, Note_on_c, 11, 54, 55
13, 82545, Note_on_c, 11, 54, 0
13, 82560, Note_on_c, 11, 55, 55
13, 82605, Note_on_c, 11, 55, 0
13, 82620, Note_on_c, 11, 67, 55
13, 82665, Note_on_c, 11, 67, 0
13, 82680, Note_on_c, 11, 69, 55
13, 82725, Note_on_c, 11, 69, 0
13, 82740, Note_on_c, 11, 69, 55
13, 82785, Note_on_c, 11, 69, 0
13, 82800, Note_on_c, 11, 71, 55
13, 82845, Note_on_c, 11, 71, 0
13, 82860, Note_on_c, 11, 71, 55
13, 82905, Note_on_c, 11, 71, 0
13, 82920, Note_on_c, 11, 67, 55
13, 82965, Note_on_c, 11, 67, 0
13, 82980, Note_on_c, 11, 67, 55
13, 83025, Note_on_c, 11, 67, 0
13, 83040, Note_on_c, 11, 66, 55
13, 83085, Note_on_c, 11, 66, 0
13, 83100, Note_on_c, 11, 66, 55
13, 83145, Note_on_c, 11, 66, 0
13, 83160, Note_on_c, 11, 67, 55
13, 83205, Note_on_c, 11, 67, 0
13, 83220, Note_on_c, 11, 67, 55
13, 83265, Note_on_c, 11, 67, 0
13, 83280, Note_on_c, 11, 69, 55
13, 83325, Note_on_c, 11, 69, 0
13, 83340, Note_on_c, 11, 69, 55
13, 83385, Note_on_c, 11, 69, 0
13, 83400, Note_on_c, 11, 66, 55
13, 83445, Note_on_c, 11, 66, 0
13, 83460, Note_on_c, 11, 66, 55
13, 83505, Note_on_c, 11, 66, 0
13, 83520, Note_on_c, 11, 67, 55
13, 83565, Note_on_c, 11, 67, 0
13, 83580, Note_on_c, 11, 67, 85
13, 83625, Note_on_c, 11, 67, 0
13, 83640, Note_on_c, 11, 71, 85
13, 83685, Note_on_c, 11, 71, 0
13, 83700, Note_on_c, 11, 69, 85
13, 83745, Note_on_c, 11, 69, 0
13, 83760, Note_on_c, 11, 68, 85
13, 83805, Note_on_c, 11, 68, 0
13, 83820, Note_on_c, 11, 64, 85
13, 83865, Note_on_c, 11, 64, 0
13, 83880, Note_on_c, 11, 66, 85
13, 83925, Note_on_c, 11, 66, 0
13, 83940, Note_on_c, 11, 67, 85
13, 83985, Note_on_c, 11, 67, 0
13, 84000, Note_on_c, 11, 69, 85
13, 84045, Note_on_c, 11, 69, 0
13, 84060, Note_on_c, 11, 72, 85
13, 84105, Note_on_c, 11, 72, 0
13, 84120, Note_on_c, 11, 69, 85
13, 84165, Note_on_c, 11, 69, 0
13, 84180, Note_on_c, 11, 67, 85
13, 84225, Note_on_c, 11, 67, 0
13, 84240, Note_on_c, 11, 66, 85
13, 84285, Note_on_c, 11, 66, 0
13, 84300, Note_on_c, 11, 62, 85
13, 84345, Note_on_c, 11, 62, 0
13, 84360, Note_on_c, 11, 64, 85
13, 84405, Note_on_c, 11, 64, 0
13, 84420, Note_on_c, 11, 66, 85
13, 84465, Note_on_c, 11, 66, 0
13, 84480, Note_on_c, 11, 67, 85
13, 84525, Note_on_c, 11, 67, 0
13, 84540, Note_on_c, 11, 67, 85
13, 84585, Note_on_c, 11, 67, 0
13, 84600, Note_on_c, 11, 67, 85
13, 84645, Note_on_c, 11, 67, 0
13, 84660, Note_on_c, 11, 67, 85
13, 84705, Note_on_c, 11, 67, 0
13, 84720, Note_on_c, 11, 67, 85
13, 84765, Note_on_c, 11, 67, 0
13, 84780, Note_on_c, 11, 67, 85
13, 84825, Note_on_c, 11, 67, 0
13, 84840, Note_on_c, 11, 67, 85
13, 84885, Note_on_c, 11, 67, 0
13, 84900, Note_on_c, 11, 67, 85
13, 84945, Note_on_c, 11, 67, 0
13, 84960, Note_on_c, 11, 67, 85
13, 85005, Note_on_c, 11, 67, 0
13, 85020, Note_on_c, 11, 71, 85
13, 85065, Note_on_c, 11, 71, 0
13, 85080, Note_on_c, 11, 74, 85
13, 85125, Note_on_c, 11, 74, 0
13, 85140, Note_on_c, 11, 74, 85
13, 85185, Note_on_c, 11, 74, 0
13, 85200, Note_on_c, 11, 74, 85
13, 85245, Note_on_c, 11, 74, 0
13, 85260, Note_on_c, 11, 74, 85
13, 85305, Note_on_c, 11, 74, 0
13, 85320, Note_on_c, 11, 74, 85
13, 85365, Note_on_c, 11, 74, 0
13, 85380, Note_on_c, 11, 72, 85
13, 85425, Note_on_c, 11, 72, 0
13, 85442, Note_on_c, 11, 71, 85
13, 85487, Note_on_c, 11, 71, 0
13, 85502, Note_on_c, 11, 62, 85
13, 85547, Note_on_c, 11, 62, 0
13, 85562, Note_on_c, 11, 64, 85
13, 85607, Note_on_c, 11, 64, 0
13, 85622, Note_on_c, 11, 66, 85
13, 85667, Note_on_c, 11, 66, 0
13, 85682, Note_on_c, 11, 67, 85
13, 85727, Note_on_c, 11, 67, 0
13, 85742, Note_on_c, 11, 67, 85
13, 85787, Note_on_c, 11, 67, 0
13, 85802, Note_on_c, 11, 69, 85
13, 85847, Note_on_c, 11, 69, 0
13, 85862, Note_on_c, 11, 69, 85
13, 85907, Note_on_c, 11, 69, 0
13, 85922, Note_on_c, 11, 71, 85
13, 85967, Note_on_c, 11, 71, 0
13, 85982, Note_on_c, 11, 54, 85
13, 86027, Note_on_c, 11, 54, 0
13, 86042, Note_on_c, 11, 55, 85
13, 86087, Note_on_c, 11, 55, 0
13, 86102, Note_on_c, 11, 57, 85
13, 86147, Note_on_c, 11, 57, 0
13, 86162, Note_on_c, 11, 59, 85
13, 86207, Note_on_c, 11, 59, 0
13, 86222, Note_on_c, 11, 59, 85
13, 86267, Note_on_c, 11, 59, 0
13, 86282, Note_on_c, 11, 60, 85
13, 86327, Note_on_c, 11, 60, 0
13, 86342, Note_on_c, 11, 60, 85
13, 86387, Note_on_c, 11, 60, 0
13, 86400, Note_on_c, 11, 62, 85
13, 86445, Note_on_c, 11, 62, 0
13, 86460, Note_on_c, 11, 62, 85
13, 86505, Note_on_c, 11, 62, 0
13, 86520, Note_on_c, 11, 63, 85
13, 86565, Note_on_c, 11, 63, 0
13, 86580, Note_on_c, 11, 63, 85
13, 86625, Note_on_c, 11, 63, 0
13, 86640, Note_on_c, 11, 64, 85
13, 86760, Note_on_c, 11, 64, 0
13, 86880, Note_on_c, 11, 57, 70
13, 87240, Note_on_c, 11, 57, 0
13, 87240, Note_on_c, 11, 55, 70
13, 87300, Note_on_c, 11, 55, 0
13, 87300, Note_on_c, 11, 54, 70
13, 87360, Note_on_c, 11, 54, 0
13, 87360, Note_on_c, 11, 55, 70
13, 87480, Note_on_c, 11, 55, 0
13, 87840, Note_on_c, 11, 57, 70
13, 88200, Note_on_c, 11, 57, 0
13, 88200, Note_on_c, 11, 55, 70
13, 88260, Note_on_c, 11, 55, 0
13, 88260, Note_on_c, 11, 54, 70
13, 88320, Note_on_c, 11, 54, 0
13, 88320, Note_on_c, 11, 55, 70
13, 88440, Note_on_c, 11, 55, 0
13, 88560, Note_on_c, 11, 67, 70
13, 88680, Note_on_c, 11, 67, 0
13, 88800, Note_on_c, 11, 64, 92
13, 88920, Note_on_c, 11, 64, 0
13, 89040, Note_on_c, 11, 62, 111
13, 89040, Note_on_c, 11, 69, 111
13, 89160, Note_on_c, 11, 69, 0
13, 89160, Note_on_c, 11, 62, 0
13, 89280, Note_on_c, 11, 55, 97
13, 89300, Note_on_c, 11, 55, 0
13, 89310, Note_on_c, 11, 55, 94
13, 89330, Note_on_c, 11, 55, 0
13, 89340, Note_on_c, 11, 55, 93
13, 89360, Note_on_c, 11, 55, 0
13, 89370, Note_on_c, 11, 55, 92
13, 89390, Note_on_c, 11, 55, 0
13, 89400, Note_on_c, 11, 55, 90
13, 89420, Note_on_c, 11, 55, 0
13, 89430, Note_on_c, 11, 55, 90
13, 89450, Note_on_c, 11, 55, 0
13, 89460, Note_on_c, 11, 55, 90
13, 89480, Note_on_c, 11, 55, 0
13, 89490, Note_on_c, 11, 55, 90
13, 89510, Note_on_c, 11, 55, 0
13, 89520, Note_on_c, 11, 55, 88
13, 89540, Note_on_c, 11, 55, 0
13, 89550, Note_on_c, 11, 55, 88
13, 89570, Note_on_c, 11, 55, 0
13, 89580, Note_on_c, 11, 55, 90
13, 89600, Note_on_c, 11, 55, 0
13, 89610, Note_on_c, 11, 55, 90
13, 89630, Note_on_c, 11, 55, 0
13, 89640, Note_on_c, 11, 55, 88
13, 89660, Note_on_c, 11, 55, 0
13, 89670, Note_on_c, 11, 55, 87
13, 89690, Note_on_c, 11, 55, 0
13, 89700, Note_on_c, 11, 55, 87
13, 89720, Note_on_c, 11, 55, 0
13, 89730, Note_on_c, 11, 55, 86
13, 89750, Note_on_c, 11, 55, 0
13, 89760, Note_on_c, 11, 55, 86
13, 89780, Note_on_c, 11, 55, 0
13, 89790, Note_on_c, 11, 55, 86
13, 89810, Note_on_c, 11, 55, 0
13, 89820, Note_on_c, 11, 55, 87
13, 89840, Note_on_c, 11, 55, 0
13, 89850, Note_on_c, 11, 55, 89
13, 89870, Note_on_c, 11, 55, 0
13, 89880, Note_on_c, 11, 55, 90
13, 89900, Note_on_c, 11, 55, 0
13, 89910, Note_on_c, 11, 55, 90
13, 89930, Note_on_c, 11, 55, 0
13, 89940, Note_on_c, 11, 55, 90
13, 89960, Note_on_c, 11, 55, 0
13, 89970, Note_on_c, 11, 55, 89
13, 89990, Note_on_c, 11, 55, 0
13, 90000, Note_on_c, 11, 55, 85
13, 90020, Note_on_c, 11, 55, 0
13, 90030, Note_on_c, 11, 55, 87
13, 90050, Note_on_c, 11, 55, 0
13, 90060, Note_on_c, 11, 55, 87
13, 90080, Note_on_c, 11, 55, 0
13, 90090, Note_on_c, 11, 55, 88
13, 90110, Note_on_c, 11, 55, 0
13, 90120, Note_on_c, 11, 57, 89
13, 90140, Note_on_c, 11, 57, 0
13, 90150, Note_on_c, 11, 57, 90
13, 90170, Note_on_c, 11, 57, 0
13, 90180, Note_on_c, 11, 57, 90
13, 90200, Note_on_c, 11, 57, 0
13, 90210, Note_on_c, 11, 57, 90
13, 90230, Note_on_c, 11, 57, 0
13, 90240, Note_on_c, 11, 55, 90
13, 90260, Note_on_c, 11, 55, 0
13, 90270, Note_on_c, 11, 55, 90
13, 90290, Note_on_c, 11, 55, 0
13, 90300, Note_on_c, 11, 55, 90
13, 90320, Note_on_c, 11, 55, 0
13, 90330, Note_on_c, 11, 55, 90
13, 90350, Note_on_c, 11, 55, 0
13, 90360, Note_on_c, 11, 55, 90
13, 90380, Note_on_c, 11, 55, 0
13, 90390, Note_on_c, 11, 55, 90
13, 90410, Note_on_c, 11, 55, 0
13, 90420, Note_on_c, 11, 55, 90
13, 90440, Note_on_c, 11, 55, 0
13, 90450, Note_on_c, 11, 55, 90
13, 90470, Note_on_c, 11, 55, 0
13, 90480, Note_on_c, 11, 55, 89
13, 90500, Note_on_c, 11, 55, 0
13, 90510, Note_on_c, 11, 55, 89
13, 90530, Note_on_c, 11, 55, 0
13, 90540, Note_on_c, 11, 55, 89
13, 90560, Note_on_c, 11, 55, 0
13, 90570, Note_on_c, 11, 55, 89
13, 90590, Note_on_c, 11, 55, 0
13, 90600, Note_on_c, 11, 55, 89
13, 90620, Note_on_c, 11, 55, 0
13, 90630, Note_on_c, 11, 55, 90
13, 90650, Note_on_c, 11, 55, 0
13, 90660, Note_on_c, 11, 55, 95
13, 90680, Note_on_c, 11, 55, 0
13, 90690, Note_on_c, 11, 55, 96
13, 90710, Note_on_c, 11, 55, 0
13, 90720, Note_on_c, 11, 55, 97
13, 90740, Note_on_c, 11, 55, 0
13, 90750, Note_on_c, 11, 55, 98
13, 90770, Note_on_c, 11, 55, 0
13, 90780, Note_on_c, 11, 55, 99
13, 90800, Note_on_c, 11, 55, 0
13, 90810, Note_on_c, 11, 55, 99
13, 90830, Note_on_c, 11, 55, 0
13, 90840, Note_on_c, 11, 55, 99
13, 90860, Note_on_c, 11, 55, 0
13, 90870, Note_on_c, 11, 55, 99
13, 90890, Note_on_c, 11, 55, 0
13, 90900, Note_on_c, 11, 55, 99
13, 90920, Note_on_c, 11, 55, 0
13, 90930, Note_on_c, 11, 55, 99
13, 90950, Note_on_c, 11, 55, 0
13, 90960, Note_on_c, 11, 55, 97
13, 90980, Note_on_c, 11, 55, 0
13, 90990, Note_on_c, 11, 55, 97
13, 91010, Note_on_c, 11, 55, 0
13, 91020, Note_on_c, 11, 55, 96
13, 91040, Note_on_c, 11, 55, 0
13, 91050, Note_on_c, 11, 55, 94
13, 91070, Note_on_c, 11, 55, 0
13, 91080, Note_on_c, 11, 57, 94
13, 91100, Note_on_c, 11, 57, 0
13, 91110, Note_on_c, 11, 57, 94
13, 91130, Note_on_c, 11, 57, 0
13, 91140, Note_on_c, 11, 57, 95
13, 91160, Note_on_c, 11, 57, 0
13, 91170, Note_on_c, 11, 57, 95
13, 91190, Note_on_c, 11, 57, 0
13, 91200, Note_on_c, 11, 55, 96
13, 91245, Note_on_c, 11, 55, 0
13, 91260, Note_on_c, 11, 59, 103
13, 91305, Note_on_c, 11, 59, 0
13, 91320, Note_on_c, 11, 62, 103
13, 91365, Note_on_c, 11, 62, 0
13, 91380, Note_on_c, 11, 67, 103
13, 91425, Note_on_c, 11, 67, 0
13, 91440, Note_on_c, 11, 71, 103
13, 91485, Note_on_c, 11, 71, 0
13, 91500, Note_on_c, 11, 67, 103
13, 91545, Note_on_c, 11, 67, 0
13, 91560, Note_on_c, 11, 74, 103
13, 91605, Note_on_c, 11, 74, 0
13, 91620, Note_on_c, 11, 71, 103
13, 91665, Note_on_c, 11, 71, 0
13, 91683, Note_on_c, 11, 67, 103
13, 91783, Note_on_c, 11, 67, 0
13, 91803, Note_on_c, 11, 55, 103
13, 91863, Note_on_c, 11, 55, 0
13, 91893, Note_on_c, 11, 55, 103
13, 91908, Note_on_c, 11, 55, 0
13, 91923, Note_on_c, 11, 55, 103
13, 92043, Note_on_c, 11, 55, 0
13, 92043, End_track
14, 0, Start_track
14, 0, MIDI_port, 0
14, 0, Title_t, "++++++++++++"
14, 0, Program_c, 11, 44
14, 0, Control_c, 11, 7, 110
14, 0, Control_c, 11, 10, 74
14, 0, Note_on_c, 11, 55, 85
14, 120, Note_on_c, 11, 55, 0
14, 180, Note_on_c, 11, 50, 85
14, 210, Note_on_c, 11, 50, 0
14, 240, Note_on_c, 11, 55, 85
14, 360, Note_on_c, 11, 55, 0
14, 420, Note_on_c, 11, 50, 85
14, 450, Note_on_c, 11, 50, 0
14, 480, Note_on_c, 11, 55, 85
14, 510, Note_on_c, 11, 55, 0
14, 540, Note_on_c, 11, 50, 85
14, 570, Note_on_c, 11, 50, 0
14, 600, Note_on_c, 11, 55, 85
14, 630, Note_on_c, 11, 55, 0
14, 660, Note_on_c, 11, 59, 85
14, 690, Note_on_c, 11, 59, 0
14, 720, Note_on_c, 11, 62, 85
14, 840, Note_on_c, 11, 62, 0
14, 960, Note_on_c, 11, 60, 85
14, 1080, Note_on_c, 11, 60, 0
14, 1140, Note_on_c, 11, 57, 85
14, 1170, Note_on_c, 11, 57, 0
14, 1200, Note_on_c, 11, 60, 85
14, 1320, Note_on_c, 11, 60, 0
14, 1380, Note_on_c, 11, 57, 85
14, 1410, Note_on_c, 11, 57, 0
14, 1440, Note_on_c, 11, 60, 85
14, 1470, Note_on_c, 11, 60, 0
14, 1500, Note_on_c, 11, 57, 85
14, 1530, Note_on_c, 11, 57, 0
14, 1560, Note_on_c, 11, 54, 85
14, 1590, Note_on_c, 11, 54, 0
14, 1620, Note_on_c, 11, 57, 85
14, 1650, Note_on_c, 11, 57, 0
14, 1680, Note_on_c, 11, 50, 85
14, 1800, Note_on_c, 11, 50, 0
14, 1920, Note_on_c, 11, 55, 85
14, 1965, Note_on_c, 11, 55, 0
14, 1980, Note_on_c, 11, 55, 85
14, 2025, Note_on_c, 11, 55, 0
14, 2040, Note_on_c, 11, 55, 85
14, 2085, Note_on_c, 11, 55, 0
14, 2100, Note_on_c, 11, 55, 85
14, 2145, Note_on_c, 11, 55, 0
14, 2160, Note_on_c, 11, 55, 85
14, 2205, Note_on_c, 11, 55, 0
14, 2220, Note_on_c, 11, 55, 85
14, 2265, Note_on_c, 11, 55, 0
14, 2280, Note_on_c, 11, 55, 85
14, 2325, Note_on_c, 11, 55, 0
14, 2340, Note_on_c, 11, 55, 85
14, 2385, Note_on_c, 11, 55, 0
14, 2400, Note_on_c, 11, 55, 85
14, 2445, Note_on_c, 11, 55, 0
14, 2460, Note_on_c, 11, 55, 85
14, 2505, Note_on_c, 11, 55, 0
14, 2520, Note_on_c, 11, 55, 85
14, 2565, Note_on_c, 11, 55, 0
14, 2580, Note_on_c, 11, 55, 85
14, 2625, Note_on_c, 11, 55, 0
14, 2640, Note_on_c, 11, 55, 85
14, 2685, Note_on_c, 11, 55, 0
14, 2700, Note_on_c, 11, 55, 85
14, 2745, Note_on_c, 11, 55, 0
14, 2760, Note_on_c, 11, 55, 85
14, 2805, Note_on_c, 11, 55, 0
14, 2820, Note_on_c, 11, 55, 85
14, 2865, Note_on_c, 11, 55, 0
14, 2880, Note_on_c, 11, 55, 85
14, 2925, Note_on_c, 11, 55, 0
14, 2940, Note_on_c, 11, 55, 85
14, 2985, Note_on_c, 11, 55, 0
14, 3000, Note_on_c, 11, 55, 85
14, 3045, Note_on_c, 11, 55, 0
14, 3060, Note_on_c, 11, 55, 85
14, 3105, Note_on_c, 11, 55, 0
14, 3120, Note_on_c, 11, 55, 85
14, 3165, Note_on_c, 11, 55, 0
14, 3180, Note_on_c, 11, 55, 85
14, 3225, Note_on_c, 11, 55, 0
14, 3240, Note_on_c, 11, 55, 85
14, 3285, Note_on_c, 11, 55, 0
14, 3300, Note_on_c, 11, 55, 85
14, 3345, Note_on_c, 11, 55, 0
14, 3360, Note_on_c, 11, 55, 85
14, 3405, Note_on_c, 11, 55, 0
14, 3420, Note_on_c, 11, 55, 85
14, 3465, Note_on_c, 11, 55, 0
14, 3480, Note_on_c, 11, 55, 85
14, 3525, Note_on_c, 11, 55, 0
14, 3540, Note_on_c, 11, 55, 85
14, 3585, Note_on_c, 11, 55, 0
14, 3600, Note_on_c, 11, 55, 85
14, 3645, Note_on_c, 11, 55, 0
14, 3660, Note_on_c, 11, 55, 85
14, 3705, Note_on_c, 11, 55, 0
14, 3720, Note_on_c, 11, 55, 85
14, 3765, Note_on_c, 11, 55, 0
14, 3780, Note_on_c, 11, 55, 85
14, 3825, Note_on_c, 11, 55, 0
14, 3840, Note_on_c, 11, 55, 85
14, 3885, Note_on_c, 11, 55, 0
14, 3900, Note_on_c, 11, 55, 85
14, 3945, Note_on_c, 11, 55, 0
14, 3960, Note_on_c, 11, 57, 85
14, 4005, Note_on_c, 11, 57, 0
14, 4020, Note_on_c, 11, 57, 85
14, 4065, Note_on_c, 11, 57, 0
14, 4080, Note_on_c, 11, 59, 85
14, 4125, Note_on_c, 11, 59, 0
14, 4140, Note_on_c, 11, 59, 85
14, 4185, Note_on_c, 11, 59, 0
14, 4200, Note_on_c, 11, 54, 85
14, 4245, Note_on_c, 11, 54, 0
14, 4260, Note_on_c, 11, 54, 85
14, 4305, Note_on_c, 11, 54, 0
14, 4320, Note_on_c, 11, 55, 85
14, 4365, Note_on_c, 11, 55, 0
14, 4380, Note_on_c, 11, 55, 85
14, 4425, Note_on_c, 11, 55, 0
14, 4440, Note_on_c, 11, 57, 85
14, 4485, Note_on_c, 11, 57, 0
14, 4500, Note_on_c, 11, 57, 85
14, 4545, Note_on_c, 11, 57, 0
14, 4560, Note_on_c, 11, 59, 85
14, 4680, Note_on_c, 11, 59, 0
14, 5280, Note_on_c, 11, 50, 47
14, 5520, Note_on_c, 11, 50, 0
14, 5520, Note_on_c, 11, 52, 47
14, 5760, Note_on_c, 11, 52, 0
14, 5760, Note_on_c, 11, 48, 47
14, 5850, Note_on_c, 11, 48, 0
14, 5880, Note_on_c, 11, 48, 47
14, 5970, Note_on_c, 11, 48, 0
14, 6000, Note_on_c, 11, 50, 47
14, 6090, Note_on_c, 11, 50, 0
14, 6120, Note_on_c, 11, 50, 47
14, 6210, Note_on_c, 11, 50, 0
14, 6240, Note_on_c, 11, 47, 47
14, 6300, Note_on_c, 11, 47, 0
14, 6360, Note_on_c, 11, 50, 47
14, 6420, Note_on_c, 11, 50, 0
14, 6480, Note_on_c, 11, 55, 47
14, 6600, Note_on_c, 11, 55, 0
14, 7200, Note_on_c, 11, 50, 47
14, 7440, Note_on_c, 11, 50, 0
14, 7440, Note_on_c, 11, 52, 47
14, 7680, Note_on_c, 11, 52, 0
14, 7680, Note_on_c, 11, 48, 47
14, 7770, Note_on_c, 11, 48, 0
14, 7800, Note_on_c, 11, 48, 47
14, 7890, Note_on_c, 11, 48, 0
14, 7920, Note_on_c, 11, 50, 47
14, 8010, Note_on_c, 11, 50, 0
14, 8040, Note_on_c, 11, 50, 47
14, 8130, Note_on_c, 11, 50, 0
14, 8160, Note_on_c, 11, 55, 91
14, 8205, Note_on_c, 11, 55, 0
14, 8220, Note_on_c, 11, 55, 83
14, 8265, Note_on_c, 11, 55, 0
14, 8280, Note_on_c, 11, 55, 83
14, 8325, Note_on_c, 11, 55, 0
14, 8340, Note_on_c, 11, 55, 83
14, 8385, Note_on_c, 11, 55, 0
14, 8400, Note_on_c, 11, 55, 59
14, 8445, Note_on_c, 11, 55, 0
14, 8460, Note_on_c, 11, 55, 59
14, 8505, Note_on_c, 11, 55, 0
14, 8520, Note_on_c, 11, 55, 59
14, 8565, Note_on_c, 11, 55, 0
14, 8580, Note_on_c, 11, 55, 59
14, 8625, Note_on_c, 11, 55, 0
14, 8640, Note_on_c, 11, 55, 92
14, 8685, Note_on_c, 11, 55, 0
14, 8700, Note_on_c, 11, 55, 79
14, 8745, Note_on_c, 11, 55, 0
14, 8760, Note_on_c, 11, 55, 79
14, 8805, Note_on_c, 11, 55, 0
14, 8820, Note_on_c, 11, 55, 79
14, 8865, Note_on_c, 11, 55, 0
14, 8880, Note_on_c, 11, 55, 59
14, 8925, Note_on_c, 11, 55, 0
14, 8940, Note_on_c, 11, 55, 59
14, 8985, Note_on_c, 11, 55, 0
14, 9000, Note_on_c, 11, 55, 59
14, 9045, Note_on_c, 11, 55, 0
14, 9060, Note_on_c, 11, 55, 59
14, 9105, Note_on_c, 11, 55, 0
14, 9120, Note_on_c, 11, 55, 59
14, 9165, Note_on_c, 11, 55, 0
14, 9180, Note_on_c, 11, 55, 40
14, 9225, Note_on_c, 11, 55, 0
14, 9240, Note_on_c, 11, 55, 43
14, 9285, Note_on_c, 11, 55, 0
14, 9300, Note_on_c, 11, 55, 46
14, 9345, Note_on_c, 11, 55, 0
14, 9360, Note_on_c, 11, 55, 49
14, 9405, Note_on_c, 11, 55, 0
14, 9420, Note_on_c, 11, 55, 52
14, 9465, Note_on_c, 11, 55, 0
14, 9480, Note_on_c, 11, 55, 55
14, 9525, Note_on_c, 11, 55, 0
14, 9540, Note_on_c, 11, 55, 58
14, 9585, Note_on_c, 11, 55, 0
14, 9600, Note_on_c, 11, 55, 61
14, 9645, Note_on_c, 11, 55, 0
14, 9660, Note_on_c, 11, 55, 64
14, 9705, Note_on_c, 11, 55, 0
14, 9720, Note_on_c, 11, 54, 67
14, 9765, Note_on_c, 11, 54, 0
14, 9780, Note_on_c, 11, 54, 70
14, 9825, Note_on_c, 11, 54, 0
14, 9840, Note_on_c, 11, 55, 73
14, 9885, Note_on_c, 11, 55, 0
14, 9900, Note_on_c, 11, 55, 76
14, 9945, Note_on_c, 11, 55, 0
14, 9960, Note_on_c, 11, 52, 79
14, 10005, Note_on_c, 11, 52, 0
14, 10020, Note_on_c, 11, 52, 82
14, 10065, Note_on_c, 11, 52, 0
14, 10080, Note_on_c, 11, 50, 85
14, 10125, Note_on_c, 11, 50, 0
14, 10140, Note_on_c, 11, 50, 85
14, 10185, Note_on_c, 11, 50, 0
14, 10200, Note_on_c, 11, 50, 85
14, 10245, Note_on_c, 11, 50, 0
14, 10260, Note_on_c, 11, 50, 85
14, 10305, Note_on_c, 11, 50, 0
14, 10320, Note_on_c, 11, 50, 85
14, 10365, Note_on_c, 11, 50, 0
14, 10380, Note_on_c, 11, 50, 85
14, 10425, Note_on_c, 11, 50, 0
14, 10440, Note_on_c, 11, 50, 85
14, 10485, Note_on_c, 11, 50, 0
14, 10500, Note_on_c, 11, 50, 85
14, 10545, Note_on_c, 11, 50, 0
14, 10560, Note_on_c, 11, 50, 85
14, 10605, Note_on_c, 11, 50, 0
14, 10620, Note_on_c, 11, 50, 85
14, 10665, Note_on_c, 11, 50, 0
14, 10680, Note_on_c, 11, 50, 85
14, 10725, Note_on_c, 11, 50, 0
14, 10740, Note_on_c, 11, 50, 85
14, 10785, Note_on_c, 11, 50, 0
14, 10800, Note_on_c, 11, 50, 85
14, 10845, Note_on_c, 11, 50, 0
14, 10860, Note_on_c, 11, 50, 85
14, 10905, Note_on_c, 11, 50, 0
14, 10920, Note_on_c, 11, 50, 85
14, 10965, Note_on_c, 11, 50, 0
14, 10980, Note_on_c, 11, 50, 85
14, 11025, Note_on_c, 11, 50, 0
14, 11040, Note_on_c, 11, 50, 85
14, 11085, Note_on_c, 11, 50, 0
14, 11100, Note_on_c, 11, 52, 85
14, 11145, Note_on_c, 11, 52, 0
14, 11160, Note_on_c, 11, 54, 85
14, 11205, Note_on_c, 11, 54, 0
14, 11220, Note_on_c, 11, 52, 85
14, 11265, Note_on_c, 11, 52, 0
14, 11280, Note_on_c, 11, 50, 85
14, 11325, Note_on_c, 11, 50, 0
14, 11340, Note_on_c, 11, 52, 85
14, 11385, Note_on_c, 11, 52, 0
14, 11400, Note_on_c, 11, 54, 85
14, 11445, Note_on_c, 11, 54, 0
14, 11460, Note_on_c, 11, 50, 85
14, 11505, Note_on_c, 11, 50, 0
14, 11520, Note_on_c, 11, 55, 85
14, 11565, Note_on_c, 11, 55, 0
14, 11580, Note_on_c, 11, 57, 85
14, 11625, Note_on_c, 11, 57, 0
14, 11640, Note_on_c, 11, 59, 85
14, 11685, Note_on_c, 11, 59, 0
14, 11700, Note_on_c, 11, 57, 85
14, 11745, Note_on_c, 11, 57, 0
14, 11760, Note_on_c, 11, 55, 85
14, 11805, Note_on_c, 11, 55, 0
14, 11820, Note_on_c, 11, 57, 85
14, 11865, Note_on_c, 11, 57, 0
14, 11880, Note_on_c, 11, 59, 85
14, 11925, Note_on_c, 11, 59, 0
14, 11940, Note_on_c, 11, 56, 85
14, 11985, Note_on_c, 11, 56, 0
14, 12000, Note_on_c, 11, 57, 85
14, 12045, Note_on_c, 11, 57, 0
14, 12060, Note_on_c, 11, 57, 85
14, 12105, Note_on_c, 11, 57, 0
14, 12120, Note_on_c, 11, 57, 85
14, 12165, Note_on_c, 11, 57, 0
14, 12180, Note_on_c, 11, 57, 85
14, 12225, Note_on_c, 11, 57, 0
14, 12240, Note_on_c, 11, 57, 85
14, 12285, Note_on_c, 11, 57, 0
14, 12300, Note_on_c, 11, 57, 85
14, 12345, Note_on_c, 11, 57, 0
14, 12360, Note_on_c, 11, 57, 85
14, 12405, Note_on_c, 11, 57, 0
14, 12420, Note_on_c, 11, 57, 85
14, 12465, Note_on_c, 11, 57, 0
14, 12480, Note_on_c, 11, 57, 85
14, 12525, Note_on_c, 11, 57, 0
14, 12540, Note_on_c, 11, 45, 85
14, 12585, Note_on_c, 11, 45, 0
14, 12600, Note_on_c, 11, 45, 85
14, 12645, Note_on_c, 11, 45, 0
14, 12660, Note_on_c, 11, 45, 85
14, 12705, Note_on_c, 11, 45, 0
14, 12720, Note_on_c, 11, 45, 85
14, 12840, Note_on_c, 11, 45, 0
14, 13320, Note_on_c, 11, 51, 55
14, 13380, Note_on_c, 11, 51, 0
14, 13440, Note_on_c, 11, 52, 55
14, 13500, Note_on_c, 11, 52, 0
14, 13560, Note_on_c, 11, 50, 55
14, 13620, Note_on_c, 11, 50, 0
14, 13680, Note_on_c, 11, 49, 55
14, 13740, Note_on_c, 11, 49, 0
14, 13800, Note_on_c, 11, 45, 55
14, 13860, Note_on_c, 11, 45, 0
14, 14040, Note_on_c, 11, 46, 55
14, 14160, Note_on_c, 11, 46, 0
14, 14160, Note_on_c, 11, 47, 55
14, 14220, Note_on_c, 11, 47, 0
14, 14280, Note_on_c, 11, 43, 55
14, 14340, Note_on_c, 11, 43, 0
14, 14400, Note_on_c, 11, 45, 55
14, 14490, Note_on_c, 11, 45, 0
14, 14520, Note_on_c, 11, 57, 55
14, 14700, Note_on_c, 11, 57, 0
14, 14700, Note_on_c, 11, 56, 55
14, 14760, Note_on_c, 11, 56, 0
14, 14760, Note_on_c, 11, 55, 55
14, 14820, Note_on_c, 11, 55, 0
14, 14820, Note_on_c, 11, 52, 55
14, 14880, Note_on_c, 11, 52, 0
14, 14880, Note_on_c, 11, 50, 55
14, 14940, Note_on_c, 11, 50, 0
14, 15000, Note_on_c, 11, 52, 55
14, 15060, Note_on_c, 11, 52, 0
14, 15120, Note_on_c, 11, 54, 55
14, 15180, Note_on_c, 11, 54, 0
14, 15240, Note_on_c, 11, 51, 55
14, 15300, Note_on_c, 11, 51, 0
14, 15360, Note_on_c, 11, 52, 55
14, 15420, Note_on_c, 11, 52, 0
14, 15480, Note_on_c, 11, 50, 55
14, 15540, Note_on_c, 11, 50, 0
14, 15600, Note_on_c, 11, 49, 55
14, 15660, Note_on_c, 11, 49, 0
14, 15720, Note_on_c, 11, 45, 55
14, 15780, Note_on_c, 11, 45, 0
14, 15840, Note_on_c, 11, 47, 55
14, 15900, Note_on_c, 11, 47, 0
14, 15960, Note_on_c, 11, 55, 55
14, 16020, Note_on_c, 11, 55, 0
14, 16080, Note_on_c, 11, 57, 55
14, 16140, Note_on_c, 11, 57, 0
14, 16200, Note_on_c, 11, 45, 55
14, 16260, Note_on_c, 11, 45, 0
14, 16320, Note_on_c, 11, 50, 55
14, 16440, Note_on_c, 11, 50, 0
14, 16800, Note_on_c, 11, 45, 55
14, 16920, Note_on_c, 11, 45, 0
14, 17280, Note_on_c, 11, 50, 55
14, 17400, Note_on_c, 11, 50, 0
14, 17760, Note_on_c, 11, 45, 55
14, 17880, Note_on_c, 11, 45, 0
14, 18300, Note_on_c, 11, 50, 55
14, 18345, Note_on_c, 11, 50, 0
14, 18360, Note_on_c, 11, 54, 55
14, 18405, Note_on_c, 11, 54, 0
14, 18420, Note_on_c, 11, 52, 55
14, 18465, Note_on_c, 11, 52, 0
14, 18480, Note_on_c, 11, 51, 55
14, 18525, Note_on_c, 11, 51, 0
14, 18540, Note_on_c, 11, 47, 55
14, 18585, Note_on_c, 11, 47, 0
14, 18600, Note_on_c, 11, 49, 55
14, 18645, Note_on_c, 11, 49, 0
14, 18660, Note_on_c, 11, 50, 55
14, 18705, Note_on_c, 11, 50, 0
14, 18720, Note_on_c, 11, 52, 85
14, 18765, Note_on_c, 11, 52, 0
14, 18780, Note_on_c, 11, 55, 85
14, 18825, Note_on_c, 11, 55, 0
14, 18840, Note_on_c, 11, 52, 85
14, 18885, Note_on_c, 11, 52, 0
14, 18900, Note_on_c, 11, 50, 85
14, 18945, Note_on_c, 11, 50, 0
14, 18960, Note_on_c, 11, 49, 85
14, 19005, Note_on_c, 11, 49, 0
14, 19020, Note_on_c, 11, 45, 85
14, 19065, Note_on_c, 11, 45, 0
14, 19080, Note_on_c, 11, 47, 85
14, 19125, Note_on_c, 11, 47, 0
14, 19140, Note_on_c, 11, 49, 85
14, 19185, Note_on_c, 11, 49, 0
14, 19200, Note_on_c, 11, 50, 85
14, 19245, Note_on_c, 11, 50, 0
14, 19260, Note_on_c, 11, 50, 85
14, 19305, Note_on_c, 11, 50, 0
14, 19320, Note_on_c, 11, 52, 85
14, 19365, Note_on_c, 11, 52, 0
14, 19380, Note_on_c, 11, 54, 85
14, 19425, Note_on_c, 11, 54, 0
14, 19440, Note_on_c, 11, 55, 85
14, 19485, Note_on_c, 11, 55, 0
14, 19500, Note_on_c, 11, 55, 85
14, 19545, Note_on_c, 11, 55, 0
14, 19560, Note_on_c, 11, 55, 85
14, 19605, Note_on_c, 11, 55, 0
14, 19620, Note_on_c, 11, 55, 85
14, 19665, Note_on_c, 11, 55, 0
14, 19680, Note_on_c, 11, 57, 85
14, 19725, Note_on_c, 11, 57, 0
14, 19740, Note_on_c, 11, 57, 85
14, 19785, Note_on_c, 11, 57, 0
14, 19800, Note_on_c, 11, 57, 85
14, 19845, Note_on_c, 11, 57, 0
14, 19860, Note_on_c, 11, 57, 85
14, 19905, Note_on_c, 11, 57, 0
14, 19920, Note_on_c, 11, 45, 85
14, 19965, Note_on_c, 11, 45, 0
14, 19980, Note_on_c, 11, 45, 85
14, 20025, Note_on_c, 11, 45, 0
14, 20040, Note_on_c, 11, 45, 85
14, 20085, Note_on_c, 11, 45, 0
14, 20100, Note_on_c, 11, 45, 85
14, 20145, Note_on_c, 11, 45, 0
14, 20160, Note_on_c, 11, 50, 85
14, 20280, Note_on_c, 11, 50, 0
14, 20640, Note_on_c, 11, 45, 55
14, 20760, Note_on_c, 11, 45, 0
14, 21120, Note_on_c, 11, 50, 55
14, 21240, Note_on_c, 11, 50, 0
14, 21600, Note_on_c, 11, 45, 55
14, 21720, Note_on_c, 11, 45, 0
14, 22140, Note_on_c, 11, 50, 85
14, 22185, Note_on_c, 11, 50, 0
14, 22200, Note_on_c, 11, 54, 85
14, 22245, Note_on_c, 11, 54, 0
14, 22260, Note_on_c, 11, 52, 85
14, 22305, Note_on_c, 11, 52, 0
14, 22320, Note_on_c, 11, 51, 85
14, 22365, Note_on_c, 11, 51, 0
14, 22380, Note_on_c, 11, 47, 85
14, 22425, Note_on_c, 11, 47, 0
14, 22440, Note_on_c, 11, 49, 85
14, 22485, Note_on_c, 11, 49, 0
14, 22500, Note_on_c, 11, 50, 85
14, 22545, Note_on_c, 11, 50, 0
14, 22560, Note_on_c, 11, 52, 85
14, 22605, Note_on_c, 11, 52, 0
14, 22620, Note_on_c, 11, 55, 85
14, 22665, Note_on_c, 11, 55, 0
14, 22680, Note_on_c, 11, 52, 85
14, 22725, Note_on_c, 11, 52, 0
14, 22740, Note_on_c, 11, 50, 85
14, 22785, Note_on_c, 11, 50, 0
14, 22800, Note_on_c, 11, 49, 85
14, 22845, Note_on_c, 11, 49, 0
14, 22860, Note_on_c, 11, 45, 85
14, 22905, Note_on_c, 11, 45, 0
14, 22920, Note_on_c, 11, 47, 85
14, 22965, Note_on_c, 11, 47, 0
14, 22980, Note_on_c, 11, 49, 85
14, 23025, Note_on_c, 11, 49, 0
14, 23040, Note_on_c, 11, 50, 85
14, 23085, Note_on_c, 11, 50, 0
14, 23100, Note_on_c, 11, 50, 85
14, 23145, Note_on_c, 11, 50, 0
14, 23160, Note_on_c, 11, 52, 85
14, 23205, Note_on_c, 11, 52, 0
14, 23220, Note_on_c, 11, 54, 85
14, 23265, Note_on_c, 11, 54, 0
14, 23280, Note_on_c, 11, 55, 85
14, 23325, Note_on_c, 11, 55, 0
14, 23340, Note_on_c, 11, 55, 85
14, 23385, Note_on_c, 11, 55, 0
14, 23400, Note_on_c, 11, 55, 85
14, 23445, Note_on_c, 11, 55, 0
14, 23460, Note_on_c, 11, 55, 85
14, 23505, Note_on_c, 11, 55, 0
14, 23520, Note_on_c, 11, 57, 85
14, 23565, Note_on_c, 11, 57, 0
14, 23580, Note_on_c, 11, 57, 85
14, 23625, Note_on_c, 11, 57, 0
14, 23640, Note_on_c, 11, 57, 85
14, 23685, Note_on_c, 11, 57, 0
14, 23700, Note_on_c, 11, 57, 85
14, 23745, Note_on_c, 11, 57, 0
14, 23760, Note_on_c, 11, 45, 85
14, 23805, Note_on_c, 11, 45, 0
14, 23820, Note_on_c, 11, 45, 85
14, 23865, Note_on_c, 11, 45, 0
14, 23880, Note_on_c, 11, 45, 85
14, 23925, Note_on_c, 11, 45, 0
14, 23940, Note_on_c, 11, 45, 85
14, 23985, Note_on_c, 11, 45, 0
14, 24000, Note_on_c, 11, 50, 85
14, 24045, Note_on_c, 11, 50, 0
14, 24060, Note_on_c, 11, 45, 85
14, 24105, Note_on_c, 11, 45, 0
14, 24120, Note_on_c, 11, 47, 85
14, 24165, Note_on_c, 11, 47, 0
14, 24180, Note_on_c, 11, 49, 85
14, 24225, Note_on_c, 11, 49, 0
14, 24240, Note_on_c, 11, 50, 85
14, 24285, Note_on_c, 11, 50, 0
14, 24300, Note_on_c, 11, 50, 85
14, 24345, Note_on_c, 11, 50, 0
14, 24360, Note_on_c, 11, 52, 85
14, 24405, Note_on_c, 11, 52, 0
14, 24420, Note_on_c, 11, 52, 85
14, 24465, Note_on_c, 11, 52, 0
14, 24480, Note_on_c, 11, 54, 85
14, 24525, Note_on_c, 11, 54, 0
14, 24540, Note_on_c, 11, 49, 85
14, 24585, Note_on_c, 11, 49, 0
14, 24600, Note_on_c, 11, 50, 85
14, 24645, Note_on_c, 11, 50, 0
14, 24660, Note_on_c, 11, 52, 85
14, 24705, Note_on_c, 11, 52, 0
14, 24720, Note_on_c, 11, 54, 85
14, 24765, Note_on_c, 11, 54, 0
14, 24780, Note_on_c, 11, 54, 85
14, 24825, Note_on_c, 11, 54, 0
14, 24840, Note_on_c, 11, 55, 85
14, 24885, Note_on_c, 11, 55, 0
14, 24900, Note_on_c, 11, 55, 85
14, 24945, Note_on_c, 11, 55, 0
14, 24960, Note_on_c, 11, 57, 85
14, 25005, Note_on_c, 11, 57, 0
14, 25020, Note_on_c, 11, 57, 85
14, 25065, Note_on_c, 11, 57, 0
14, 25080, Note_on_c, 11, 58, 85
14, 25125, Note_on_c, 11, 58, 0
14, 25140, Note_on_c, 11, 58, 85
14, 25185, Note_on_c, 11, 58, 0
14, 25200, Note_on_c, 11, 59, 85
14, 25320, Note_on_c, 11, 59, 0
14, 25440, Note_on_c, 11, 55, 55
14, 25680, Note_on_c, 11, 55, 0
14, 25680, Note_on_c, 11, 57, 55
14, 25920, Note_on_c, 11, 57, 0
14, 25920, Note_on_c, 11, 50, 55
14, 25980, Note_on_c, 11, 50, 0
14, 26040, Note_on_c, 11, 50, 55
14, 26100, Note_on_c, 11, 50, 0
14, 26160, Note_on_c, 11, 50, 55
14, 26220, Note_on_c, 11, 50, 0
14, 26400, Note_on_c, 11, 55, 85
14, 26520, Note_on_c, 11, 55, 0
14, 26580, Note_on_c, 11, 50, 85
14, 26610, Note_on_c, 11, 50, 0
14, 26640, Note_on_c, 11, 55, 85
14, 26760, Note_on_c, 11, 55, 0
14, 26820, Note_on_c, 11, 50, 85
14, 26850, Note_on_c, 11, 50, 0
14, 26880, Note_on_c, 11, 55, 85
14, 26910, Note_on_c, 11, 55, 0
14, 26940, Note_on_c, 11, 50, 85
14, 26970, Note_on_c, 11, 50, 0
14, 27000, Note_on_c, 11, 55, 85
14, 27030, Note_on_c, 11, 55, 0
14, 27060, Note_on_c, 11, 59, 85
14, 27090, Note_on_c, 11, 59, 0
14, 27120, Note_on_c, 11, 62, 85
14, 27240, Note_on_c, 11, 62, 0
14, 27360, Note_on_c, 11, 60, 85
14, 27480, Note_on_c, 11, 60, 0
14, 27540, Note_on_c, 11, 57, 85
14, 27570, Note_on_c, 11, 57, 0
14, 27600, Note_on_c, 11, 60, 85
14, 27720, Note_on_c, 11, 60, 0
14, 27780, Note_on_c, 11, 57, 85
14, 27810, Note_on_c, 11, 57, 0
14, 27840, Note_on_c, 11, 60, 85
14, 27870, Note_on_c, 11, 60, 0
14, 27900, Note_on_c, 11, 57, 85
14, 27930, Note_on_c, 11, 57, 0
14, 27960, Note_on_c, 11, 54, 85
14, 27990, Note_on_c, 11, 54, 0
14, 28020, Note_on_c, 11, 57, 85
14, 28050, Note_on_c, 11, 57, 0
14, 28080, Note_on_c, 11, 50, 85
14, 28200, Note_on_c, 11, 50, 0
14, 28320, Note_on_c, 11, 55, 85
14, 28365, Note_on_c, 11, 55, 0
14, 28380, Note_on_c, 11, 55, 85
14, 28425, Note_on_c, 11, 55, 0
14, 28440, Note_on_c, 11, 55, 85
14, 28485, Note_on_c, 11, 55, 0
14, 28500, Note_on_c, 11, 55, 85
14, 28545, Note_on_c, 11, 55, 0
14, 28560, Note_on_c, 11, 55, 85
14, 28605, Note_on_c, 11, 55, 0
14, 28620, Note_on_c, 11, 55, 85
14, 28665, Note_on_c, 11, 55, 0
14, 28680, Note_on_c, 11, 55, 85
14, 28725, Note_on_c, 11, 55, 0
14, 28740, Note_on_c, 11, 55, 85
14, 28785, Note_on_c, 11, 55, 0
14, 28800, Note_on_c, 11, 55, 85
14, 28845, Note_on_c, 11, 55, 0
14, 28860, Note_on_c, 11, 55, 85
14, 28905, Note_on_c, 11, 55, 0
14, 28920, Note_on_c, 11, 55, 85
14, 28965, Note_on_c, 11, 55, 0
14, 28980, Note_on_c, 11, 55, 85
14, 29025, Note_on_c, 11, 55, 0
14, 29040, Note_on_c, 11, 55, 85
14, 29085, Note_on_c, 11, 55, 0
14, 29100, Note_on_c, 11, 55, 85
14, 29145, Note_on_c, 11, 55, 0
14, 29160, Note_on_c, 11, 55, 85
14, 29205, Note_on_c, 11, 55, 0
14, 29220, Note_on_c, 11, 55, 85
14, 29265, Note_on_c, 11, 55, 0
14, 29280, Note_on_c, 11, 55, 85
14, 29325, Note_on_c, 11, 55, 0
14, 29340, Note_on_c, 11, 55, 85
14, 29385, Note_on_c, 11, 55, 0
14, 29400, Note_on_c, 11, 55, 85
14, 29445, Note_on_c, 11, 55, 0
14, 29460, Note_on_c, 11, 55, 85
14, 29505, Note_on_c, 11, 55, 0
14, 29520, Note_on_c, 11, 55, 85
14, 29565, Note_on_c, 11, 55, 0
14, 29580, Note_on_c, 11, 55, 85
14, 29625, Note_on_c, 11, 55, 0
14, 29640, Note_on_c, 11, 55, 85
14, 29685, Note_on_c, 11, 55, 0
14, 29700, Note_on_c, 11, 55, 85
14, 29745, Note_on_c, 11, 55, 0
14, 29760, Note_on_c, 11, 55, 85
14, 29805, Note_on_c, 11, 55, 0
14, 29820, Note_on_c, 11, 55, 85
14, 29865, Note_on_c, 11, 55, 0
14, 29880, Note_on_c, 11, 55, 85
14, 29925, Note_on_c, 11, 55, 0
14, 29940, Note_on_c, 11, 55, 85
14, 29985, Note_on_c, 11, 55, 0
14, 30000, Note_on_c, 11, 55, 85
14, 30045, Note_on_c, 11, 55, 0
14, 30060, Note_on_c, 11, 55, 85
14, 30105, Note_on_c, 11, 55, 0
14, 30120, Note_on_c, 11, 55, 85
14, 30165, Note_on_c, 11, 55, 0
14, 30180, Note_on_c, 11, 55, 85
14, 30225, Note_on_c, 11, 55, 0
14, 30240, Note_on_c, 11, 55, 85
14, 30285, Note_on_c, 11, 55, 0
14, 30300, Note_on_c, 11, 55, 85
14, 30345, Note_on_c, 11, 55, 0
14, 30360, Note_on_c, 11, 57, 85
14, 30405, Note_on_c, 11, 57, 0
14, 30420, Note_on_c, 11, 57, 85
14, 30465, Note_on_c, 11, 57, 0
14, 30480, Note_on_c, 11, 59, 85
14, 30525, Note_on_c, 11, 59, 0
14, 30540, Note_on_c, 11, 59, 85
14, 30585, Note_on_c, 11, 59, 0
14, 30600, Note_on_c, 11, 54, 85
14, 30645, Note_on_c, 11, 54, 0
14, 30660, Note_on_c, 11, 54, 85
14, 30705, Note_on_c, 11, 54, 0
14, 30720, Note_on_c, 11, 55, 85
14, 30765, Note_on_c, 11, 55, 0
14, 30780, Note_on_c, 11, 55, 85
14, 30825, Note_on_c, 11, 55, 0
14, 30840, Note_on_c, 11, 57, 85
14, 30885, Note_on_c, 11, 57, 0
14, 30900, Note_on_c, 11, 57, 85
14, 30945, Note_on_c, 11, 57, 0
14, 30960, Note_on_c, 11, 59, 85
14, 31080, Note_on_c, 11, 59, 0
14, 31680, Note_on_c, 11, 50, 47
14, 31920, Note_on_c, 11, 50, 0
14, 31920, Note_on_c, 11, 52, 47
14, 32160, Note_on_c, 11, 52, 0
14, 32160, Note_on_c, 11, 48, 47
14, 32250, Note_on_c, 11, 48, 0
14, 32280, Note_on_c, 11, 48, 47
14, 32370, Note_on_c, 11, 48, 0
14, 32400, Note_on_c, 11, 50, 47
14, 32490, Note_on_c, 11, 50, 0
14, 32520, Note_on_c, 11, 50, 47
14, 32610, Note_on_c, 11, 50, 0
14, 32640, Note_on_c, 11, 47, 47
14, 32700, Note_on_c, 11, 47, 0
14, 32760, Note_on_c, 11, 50, 47
14, 32820, Note_on_c, 11, 50, 0
14, 32880, Note_on_c, 11, 55, 47
14, 33000, Note_on_c, 11, 55, 0
14, 33600, Note_on_c, 11, 50, 47
14, 33840, Note_on_c, 11, 50, 0
14, 33840, Note_on_c, 11, 52, 47
14, 34080, Note_on_c, 11, 52, 0
14, 34080, Note_on_c, 11, 48, 47
14, 34170, Note_on_c, 11, 48, 0
14, 34200, Note_on_c, 11, 48, 47
14, 34290, Note_on_c, 11, 48, 0
14, 34320, Note_on_c, 11, 50, 47
14, 34410, Note_on_c, 11, 50, 0
14, 34440, Note_on_c, 11, 50, 47
14, 34530, Note_on_c, 11, 50, 0
14, 34560, Note_on_c, 11, 55, 91
14, 34605, Note_on_c, 11, 55, 0
14, 34620, Note_on_c, 11, 55, 83
14, 34665, Note_on_c, 11, 55, 0
14, 34680, Note_on_c, 11, 55, 83
14, 34725, Note_on_c, 11, 55, 0
14, 34740, Note_on_c, 11, 55, 83
14, 34785, Note_on_c, 11, 55, 0
14, 34800, Note_on_c, 11, 55, 59
14, 34845, Note_on_c, 11, 55, 0
14, 34860, Note_on_c, 11, 55, 59
14, 34905, Note_on_c, 11, 55, 0
14, 34920, Note_on_c, 11, 55, 59
14, 34965, Note_on_c, 11, 55, 0
14, 34980, Note_on_c, 11, 55, 59
14, 35025, Note_on_c, 11, 55, 0
14, 35040, Note_on_c, 11, 55, 92
14, 35085, Note_on_c, 11, 55, 0
14, 35100, Note_on_c, 11, 55, 79
14, 35145, Note_on_c, 11, 55, 0
14, 35160, Note_on_c, 11, 55, 79
14, 35205, Note_on_c, 11, 55, 0
14, 35220, Note_on_c, 11, 55, 79
14, 35265, Note_on_c, 11, 55, 0
14, 35280, Note_on_c, 11, 55, 59
14, 35325, Note_on_c, 11, 55, 0
14, 35340, Note_on_c, 11, 55, 59
14, 35385, Note_on_c, 11, 55, 0
14, 35400, Note_on_c, 11, 55, 59
14, 35445, Note_on_c, 11, 55, 0
14, 35460, Note_on_c, 11, 55, 59
14, 35505, Note_on_c, 11, 55, 0
14, 35520, Note_on_c, 11, 55, 59
14, 35565, Note_on_c, 11, 55, 0
14, 35580, Note_on_c, 11, 55, 40
14, 35625, Note_on_c, 11, 55, 0
14, 35640, Note_on_c, 11, 55, 43
14, 35685, Note_on_c, 11, 55, 0
14, 35700, Note_on_c, 11, 55, 46
14, 35745, Note_on_c, 11, 55, 0
14, 35760, Note_on_c, 11, 55, 49
14, 35805, Note_on_c, 11, 55, 0
14, 35820, Note_on_c, 11, 55, 52
14, 35865, Note_on_c, 11, 55, 0
14, 35880, Note_on_c, 11, 55, 55
14, 35925, Note_on_c, 11, 55, 0
14, 35940, Note_on_c, 11, 55, 58
14, 35985, Note_on_c, 11, 55, 0
14, 36000, Note_on_c, 11, 55, 61
14, 36045, Note_on_c, 11, 55, 0
14, 36060, Note_on_c, 11, 55, 64
14, 36105, Note_on_c, 11, 55, 0
14, 36120, Note_on_c, 11, 54, 67
14, 36165, Note_on_c, 11, 54, 0
14, 36180, Note_on_c, 11, 54, 70
14, 36225, Note_on_c, 11, 54, 0
14, 36240, Note_on_c, 11, 55, 73
14, 36285, Note_on_c, 11, 55, 0
14, 36300, Note_on_c, 11, 55, 76
14, 36345, Note_on_c, 11, 55, 0
14, 36360, Note_on_c, 11, 52, 79
14, 36405, Note_on_c, 11, 52, 0
14, 36420, Note_on_c, 11, 52, 82
14, 36465, Note_on_c, 11, 52, 0
14, 36480, Note_on_c, 11, 50, 85
14, 36525, Note_on_c, 11, 50, 0
14, 36540, Note_on_c, 11, 50, 85
14, 36585, Note_on_c, 11, 50, 0
14, 36600, Note_on_c, 11, 50, 85
14, 36645, Note_on_c, 11, 50, 0
14, 36660, Note_on_c, 11, 50, 85
14, 36705, Note_on_c, 11, 50, 0
14, 36720, Note_on_c, 11, 50, 85
14, 36765, Note_on_c, 11, 50, 0
14, 36780, Note_on_c, 11, 50, 85
14, 36825, Note_on_c, 11, 50, 0
14, 36840, Note_on_c, 11, 50, 85
14, 36885, Note_on_c, 11, 50, 0
14, 36900, Note_on_c, 11, 50, 85
14, 36945, Note_on_c, 11, 50, 0
14, 36960, Note_on_c, 11, 50, 85
14, 37005, Note_on_c, 11, 50, 0
14, 37020, Note_on_c, 11, 50, 85
14, 37065, Note_on_c, 11, 50, 0
14, 37080, Note_on_c, 11, 50, 85
14, 37125, Note_on_c, 11, 50, 0
14, 37140, Note_on_c, 11, 50, 85
14, 37185, Note_on_c, 11, 50, 0
14, 37200, Note_on_c, 11, 50, 85
14, 37245, Note_on_c, 11, 50, 0
14, 37260, Note_on_c, 11, 50, 85
14, 37305, Note_on_c, 11, 50, 0
14, 37320, Note_on_c, 11, 50, 85
14, 37365, Note_on_c, 11, 50, 0
14, 37380, Note_on_c, 11, 50, 85
14, 37425, Note_on_c, 11, 50, 0
14, 37440, Note_on_c, 11, 50, 85
14, 37485, Note_on_c, 11, 50, 0
14, 37500, Note_on_c, 11, 52, 85
14, 37545, Note_on_c, 11, 52, 0
14, 37560, Note_on_c, 11, 54, 85
14, 37605, Note_on_c, 11, 54, 0
14, 37620, Note_on_c, 11, 52, 85
14, 37665, Note_on_c, 11, 52, 0
14, 37680, Note_on_c, 11, 50, 85
14, 37725, Note_on_c, 11, 50, 0
14, 37740, Note_on_c, 11, 52, 85
14, 37785, Note_on_c, 11, 52, 0
14, 37800, Note_on_c, 11, 54, 85
14, 37845, Note_on_c, 11, 54, 0
14, 37860, Note_on_c, 11, 50, 85
14, 37905, Note_on_c, 11, 50, 0
14, 37920, Note_on_c, 11, 55, 85
14, 37965, Note_on_c, 11, 55, 0
14, 37980, Note_on_c, 11, 57, 85
14, 38025, Note_on_c, 11, 57, 0
14, 38040, Note_on_c, 11, 59, 85
14, 38085, Note_on_c, 11, 59, 0
14, 38100, Note_on_c, 11, 57, 85
14, 38145, Note_on_c, 11, 57, 0
14, 38160, Note_on_c, 11, 55, 85
14, 38205, Note_on_c, 11, 55, 0
14, 38220, Note_on_c, 11, 57, 85
14, 38265, Note_on_c, 11, 57, 0
14, 38280, Note_on_c, 11, 59, 85
14, 38325, Note_on_c, 11, 59, 0
14, 38340, Note_on_c, 11, 56, 85
14, 38385, Note_on_c, 11, 56, 0
14, 38400, Note_on_c, 11, 57, 85
14, 38445, Note_on_c, 11, 57, 0
14, 38460, Note_on_c, 11, 57, 85
14, 38505, Note_on_c, 11, 57, 0
14, 38520, Note_on_c, 11, 57, 85
14, 38565, Note_on_c, 11, 57, 0
14, 38580, Note_on_c, 11, 57, 85
14, 38625, Note_on_c, 11, 57, 0
14, 38640, Note_on_c, 11, 57, 85
14, 38685, Note_on_c, 11, 57, 0
14, 38700, Note_on_c, 11, 57, 85
14, 38745, Note_on_c, 11, 57, 0
14, 38760, Note_on_c, 11, 57, 85
14, 38805, Note_on_c, 11, 57, 0
14, 38820, Note_on_c, 11, 57, 85
14, 38865, Note_on_c, 11, 57, 0
14, 38880, Note_on_c, 11, 57, 85
14, 38925, Note_on_c, 11, 57, 0
14, 38940, Note_on_c, 11, 45, 85
14, 38985, Note_on_c, 11, 45, 0
14, 39000, Note_on_c, 11, 45, 85
14, 39045, Note_on_c, 11, 45, 0
14, 39060, Note_on_c, 11, 45, 85
14, 39105, Note_on_c, 11, 45, 0
14, 39120, Note_on_c, 11, 45, 85
14, 39240, Note_on_c, 11, 45, 0
14, 39720, Note_on_c, 11, 51, 55
14, 39780, Note_on_c, 11, 51, 0
14, 39840, Note_on_c, 11, 52, 55
14, 39900, Note_on_c, 11, 52, 0
14, 39960, Note_on_c, 11, 50, 55
14, 40020, Note_on_c, 11, 50, 0
14, 40080, Note_on_c, 11, 49, 55
14, 40140, Note_on_c, 11, 49, 0
14, 40200, Note_on_c, 11, 45, 55
14, 40260, Note_on_c, 11, 45, 0
14, 40440, Note_on_c, 11, 46, 55
14, 40560, Note_on_c, 11, 46, 0
14, 40560, Note_on_c, 11, 47, 55
14, 40620, Note_on_c, 11, 47, 0
14, 40680, Note_on_c, 11, 43, 55
14, 40740, Note_on_c, 11, 43, 0
14, 40800, Note_on_c, 11, 45, 55
14, 40890, Note_on_c, 11, 45, 0
14, 40920, Note_on_c, 11, 57, 55
14, 41100, Note_on_c, 11, 57, 0
14, 41100, Note_on_c, 11, 56, 55
14, 41160, Note_on_c, 11, 56, 0
14, 41160, Note_on_c, 11, 55, 55
14, 41220, Note_on_c, 11, 55, 0
14, 41220, Note_on_c, 11, 52, 55
14, 41280, Note_on_c, 11, 52, 0
14, 41280, Note_on_c, 11, 50, 55
14, 41340, Note_on_c, 11, 50, 0
14, 41400, Note_on_c, 11, 52, 55
14, 41460, Note_on_c, 11, 52, 0
14, 41520, Note_on_c, 11, 54, 55
14, 41580, Note_on_c, 11, 54, 0
14, 41640, Note_on_c, 11, 51, 55
14, 41700, Note_on_c, 11, 51, 0
14, 41760, Note_on_c, 11, 52, 55
14, 41820, Note_on_c, 11, 52, 0
14, 41880, Note_on_c, 11, 50, 55
14, 41940, Note_on_c, 11, 50, 0
14, 42000, Note_on_c, 11, 49, 55
14, 42060, Note_on_c, 11, 49, 0
14, 42120, Note_on_c, 11, 45, 55
14, 42180, Note_on_c, 11, 45, 0
14, 42240, Note_on_c, 11, 47, 55
14, 42300, Note_on_c, 11, 47, 0
14, 42360, Note_on_c, 11, 55, 55
14, 42420, Note_on_c, 11, 55, 0
14, 42480, Note_on_c, 11, 57, 55
14, 42540, Note_on_c, 11, 57, 0
14, 42600, Note_on_c, 11, 45, 55
14, 42660, Note_on_c, 11, 45, 0
14, 42720, Note_on_c, 11, 50, 55
14, 42840, Note_on_c, 11, 50, 0
14, 43200, Note_on_c, 11, 45, 55
14, 43320, Note_on_c, 11, 45, 0
14, 43680, Note_on_c, 11, 50, 55
14, 43800, Note_on_c, 11, 50, 0
14, 44160, Note_on_c, 11, 45, 55
14, 44280, Note_on_c, 11, 45, 0
14, 44700, Note_on_c, 11, 50, 55
14, 44745, Note_on_c, 11, 50, 0
14, 44760, Note_on_c, 11, 54, 55
14, 44805, Note_on_c, 11, 54, 0
14, 44820, Note_on_c, 11, 52, 55
14, 44865, Note_on_c, 11, 52, 0
14, 44880, Note_on_c, 11, 51, 55
14, 44925, Note_on_c, 11, 51, 0
14, 44940, Note_on_c, 11, 47, 55
14, 44985, Note_on_c, 11, 47, 0
14, 45000, Note_on_c, 11, 49, 55
14, 45045, Note_on_c, 11, 49, 0
14, 45060, Note_on_c, 11, 50, 55
14, 45105, Note_on_c, 11, 50, 0
14, 45120, Note_on_c, 11, 52, 85
14, 45165, Note_on_c, 11, 52, 0
14, 45180, Note_on_c, 11, 55, 85
14, 45225, Note_on_c, 11, 55, 0
14, 45240, Note_on_c, 11, 52, 85
14, 45285, Note_on_c, 11, 52, 0
14, 45300, Note_on_c, 11, 50, 85
14, 45345, Note_on_c, 11, 50, 0
14, 45360, Note_on_c, 11, 49, 85
14, 45405, Note_on_c, 11, 49, 0
14, 45420, Note_on_c, 11, 45, 85
14, 45465, Note_on_c, 11, 45, 0
14, 45480, Note_on_c, 11, 47, 85
14, 45525, Note_on_c, 11, 47, 0
14, 45540, Note_on_c, 11, 49, 85
14, 45585, Note_on_c, 11, 49, 0
14, 45600, Note_on_c, 11, 50, 85
14, 45645, Note_on_c, 11, 50, 0
14, 45660, Note_on_c, 11, 50, 85
14, 45705, Note_on_c, 11, 50, 0
14, 45720, Note_on_c, 11, 52, 85
14, 45765, Note_on_c, 11, 52, 0
14, 45780, Note_on_c, 11, 54, 85
14, 45825, Note_on_c, 11, 54, 0
14, 45840, Note_on_c, 11, 55, 85
14, 45885, Note_on_c, 11, 55, 0
14, 45900, Note_on_c, 11, 55, 85
14, 45945, Note_on_c, 11, 55, 0
14, 45960, Note_on_c, 11, 55, 85
14, 46005, Note_on_c, 11, 55, 0
14, 46020, Note_on_c, 11, 55, 85
14, 46065, Note_on_c, 11, 55, 0
14, 46080, Note_on_c, 11, 57, 85
14, 46125, Note_on_c, 11, 57, 0
14, 46140, Note_on_c, 11, 57, 85
14, 46185, Note_on_c, 11, 57, 0
14, 46200, Note_on_c, 11, 57, 85
14, 46245, Note_on_c, 11, 57, 0
14, 46260, Note_on_c, 11, 57, 85
14, 46305, Note_on_c, 11, 57, 0
14, 46320, Note_on_c, 11, 45, 85
14, 46365, Note_on_c, 11, 45, 0
14, 46380, Note_on_c, 11, 45, 85
14, 46425, Note_on_c, 11, 45, 0
14, 46440, Note_on_c, 11, 45, 85
14, 46485, Note_on_c, 11, 45, 0
14, 46500, Note_on_c, 11, 45, 85
14, 46545, Note_on_c, 11, 45, 0
14, 46560, Note_on_c, 11, 50, 85
14, 46680, Note_on_c, 11, 50, 0
14, 47040, Note_on_c, 11, 45, 55
14, 47160, Note_on_c, 11, 45, 0
14, 47520, Note_on_c, 11, 50, 55
14, 47640, Note_on_c, 11, 50, 0
14, 48000, Note_on_c, 11, 45, 55
14, 48120, Note_on_c, 11, 45, 0
14, 48540, Note_on_c, 11, 50, 85
14, 48585, Note_on_c, 11, 50, 0
14, 48600, Note_on_c, 11, 54, 85
14, 48645, Note_on_c, 11, 54, 0
14, 48660, Note_on_c, 11, 52, 85
14, 48705, Note_on_c, 11, 52, 0
14, 48720, Note_on_c, 11, 51, 85
14, 48765, Note_on_c, 11, 51, 0
14, 48780, Note_on_c, 11, 47, 85
14, 48825, Note_on_c, 11, 47, 0
14, 48840, Note_on_c, 11, 49, 85
14, 48885, Note_on_c, 11, 49, 0
14, 48900, Note_on_c, 11, 50, 85
14, 48945, Note_on_c, 11, 50, 0
14, 48960, Note_on_c, 11, 52, 85
14, 49005, Note_on_c, 11, 52, 0
14, 49020, Note_on_c, 11, 55, 85
14, 49065, Note_on_c, 11, 55, 0
14, 49080, Note_on_c, 11, 52, 85
14, 49125, Note_on_c, 11, 52, 0
14, 49140, Note_on_c, 11, 50, 85
14, 49185, Note_on_c, 11, 50, 0
14, 49200, Note_on_c, 11, 49, 85
14, 49245, Note_on_c, 11, 49, 0
14, 49260, Note_on_c, 11, 45, 85
14, 49305, Note_on_c, 11, 45, 0
14, 49320, Note_on_c, 11, 47, 85
14, 49365, Note_on_c, 11, 47, 0
14, 49380, Note_on_c, 11, 49, 85
14, 49425, Note_on_c, 11, 49, 0
14, 49440, Note_on_c, 11, 50, 85
14, 49485, Note_on_c, 11, 50, 0
14, 49500, Note_on_c, 11, 50, 85
14, 49545, Note_on_c, 11, 50, 0
14, 49560, Note_on_c, 11, 52, 85
14, 49605, Note_on_c, 11, 52, 0
14, 49620, Note_on_c, 11, 54, 85
14, 49665, Note_on_c, 11, 54, 0
14, 49680, Note_on_c, 11, 55, 85
14, 49725, Note_on_c, 11, 55, 0
14, 49740, Note_on_c, 11, 55, 85
14, 49785, Note_on_c, 11, 55, 0
14, 49800, Note_on_c, 11, 55, 85
14, 49845, Note_on_c, 11, 55, 0
14, 49860, Note_on_c, 11, 55, 85
14, 49905, Note_on_c, 11, 55, 0
14, 49920, Note_on_c, 11, 57, 85
14, 49965, Note_on_c, 11, 57, 0
14, 49980, Note_on_c, 11, 57, 85
14, 50025, Note_on_c, 11, 57, 0
14, 50040, Note_on_c, 11, 57, 85
14, 50085, Note_on_c, 11, 57, 0
14, 50100, Note_on_c, 11, 57, 85
14, 50145, Note_on_c, 11, 57, 0
14, 50160, Note_on_c, 11, 45, 85
14, 50205, Note_on_c, 11, 45, 0
14, 50220, Note_on_c, 11, 45, 85
14, 50265, Note_on_c, 11, 45, 0
14, 50280, Note_on_c, 11, 45, 85
14, 50325, Note_on_c, 11, 45, 0
14, 50340, Note_on_c, 11, 45, 85
14, 50385, Note_on_c, 11, 45, 0
14, 50400, Note_on_c, 11, 50, 85
14, 50445, Note_on_c, 11, 50, 0
14, 50460, Note_on_c, 11, 45, 85
14, 50505, Note_on_c, 11, 45, 0
14, 50520, Note_on_c, 11, 47, 85
14, 50565, Note_on_c, 11, 47, 0
14, 50580, Note_on_c, 11, 49, 85
14, 50625, Note_on_c, 11, 49, 0
14, 50640, Note_on_c, 11, 50, 85
14, 50685, Note_on_c, 11, 50, 0
14, 50700, Note_on_c, 11, 50, 85
14, 50745, Note_on_c, 11, 50, 0
14, 50760, Note_on_c, 11, 52, 85
14, 50805, Note_on_c, 11, 52, 0
14, 50820, Note_on_c, 11, 52, 85
14, 50865, Note_on_c, 11, 52, 0
14, 50880, Note_on_c, 11, 54, 85
14, 50925, Note_on_c, 11, 54, 0
14, 50940, Note_on_c, 11, 49, 85
14, 50985, Note_on_c, 11, 49, 0
14, 51000, Note_on_c, 11, 50, 85
14, 51045, Note_on_c, 11, 50, 0
14, 51060, Note_on_c, 11, 52, 85
14, 51105, Note_on_c, 11, 52, 0
14, 51120, Note_on_c, 11, 54, 85
14, 51165, Note_on_c, 11, 54, 0
14, 51180, Note_on_c, 11, 54, 85
14, 51225, Note_on_c, 11, 54, 0
14, 51240, Note_on_c, 11, 55, 85
14, 51285, Note_on_c, 11, 55, 0
14, 51300, Note_on_c, 11, 55, 85
14, 51345, Note_on_c, 11, 55, 0
14, 51360, Note_on_c, 11, 57, 85
14, 51405, Note_on_c, 11, 57, 0
14, 51420, Note_on_c, 11, 57, 85
14, 51465, Note_on_c, 11, 57, 0
14, 51480, Note_on_c, 11, 58, 85
14, 51525, Note_on_c, 11, 58, 0
14, 51540, Note_on_c, 11, 58, 85
14, 51585, Note_on_c, 11, 58, 0
14, 51600, Note_on_c, 11, 59, 85
14, 51720, Note_on_c, 11, 59, 0
14, 51840, Note_on_c, 11, 55, 55
14, 52080, Note_on_c, 11, 55, 0
14, 52080, Note_on_c, 11, 57, 55
14, 52320, Note_on_c, 11, 57, 0
14, 52320, Note_on_c, 11, 50, 55
14, 52380, Note_on_c, 11, 50, 0
14, 52440, Note_on_c, 11, 50, 55
14, 52500, Note_on_c, 11, 50, 0
14, 52560, Note_on_c, 11, 50, 55
14, 52620, Note_on_c, 11, 50, 0
14, 52800, Note_on_c, 11, 50, 89
14, 52920, Note_on_c, 11, 50, 0
14, 52980, Note_on_c, 11, 45, 89
14, 53025, Note_on_c, 11, 45, 0
14, 53040, Note_on_c, 11, 50, 89
14, 53160, Note_on_c, 11, 50, 0
14, 53220, Note_on_c, 11, 45, 89
14, 53265, Note_on_c, 11, 45, 0
14, 53280, Note_on_c, 11, 50, 89
14, 53325, Note_on_c, 11, 50, 0
14, 53340, Note_on_c, 11, 45, 89
14, 53385, Note_on_c, 11, 45, 0
14, 53400, Note_on_c, 11, 50, 89
14, 53445, Note_on_c, 11, 50, 0
14, 53460, Note_on_c, 11, 54, 89
14, 53505, Note_on_c, 11, 54, 0
14, 53520, Note_on_c, 11, 57, 89
14, 53640, Note_on_c, 11, 57, 0
14, 53760, Note_on_c, 11, 57, 89
14, 53880, Note_on_c, 11, 57, 0
14, 53940, Note_on_c, 11, 54, 89
14, 53985, Note_on_c, 11, 54, 0
14, 54000, Note_on_c, 11, 57, 89
14, 54120, Note_on_c, 11, 57, 0
14, 54180, Note_on_c, 11, 54, 89
14, 54225, Note_on_c, 11, 54, 0
14, 54240, Note_on_c, 11, 57, 89
14, 54285, Note_on_c, 11, 57, 0
14, 54300, Note_on_c, 11, 54, 89
14, 54345, Note_on_c, 11, 54, 0
14, 54360, Note_on_c, 11, 51, 89
14, 54405, Note_on_c, 11, 51, 0
14, 54420, Note_on_c, 11, 54, 89
14, 54465, Note_on_c, 11, 54, 0
14, 54480, Note_on_c, 11, 47, 89
14, 54600, Note_on_c, 11, 47, 0
14, 54720, Note_on_c, 11, 48, 55
14, 54840, Note_on_c, 11, 48, 0
14, 55200, Note_on_c, 11, 43, 55
14, 55320, Note_on_c, 11, 43, 0
14, 55680, Note_on_c, 11, 48, 55
14, 55800, Note_on_c, 11, 48, 0
14, 56160, Note_on_c, 11, 43, 55
14, 56280, Note_on_c, 11, 43, 0
14, 56640, Note_on_c, 11, 48, 55
14, 56760, Note_on_c, 11, 48, 0
14, 57120, Note_on_c, 11, 52, 55
14, 57240, Note_on_c, 11, 52, 0
14, 57600, Note_on_c, 11, 45, 55
14, 57720, Note_on_c, 11, 45, 0
14, 58080, Note_on_c, 11, 50, 55
14, 58200, Note_on_c, 11, 50, 0
14, 58560, Note_on_c, 11, 51, 55
14, 59505, Note_on_c, 11, 51, 0
14, 59520, Note_on_c, 11, 50, 53
14, 59640, Note_on_c, 11, 50, 0
14, 59700, Note_on_c, 11, 50, 91
14, 59760, Note_on_c, 11, 50, 0
14, 59760, Note_on_c, 11, 52, 91
14, 59820, Note_on_c, 11, 52, 0
14, 59820, Note_on_c, 11, 54, 91
14, 59880, Note_on_c, 11, 54, 0
14, 59880, Note_on_c, 11, 55, 91
14, 59940, Note_on_c, 11, 55, 0
14, 59940, Note_on_c, 11, 57, 91
14, 60000, Note_on_c, 11, 57, 0
14, 60000, Note_on_c, 11, 60, 91
14, 60060, Note_on_c, 11, 60, 0
14, 60060, Note_on_c, 11, 58, 91
14, 60120, Note_on_c, 11, 58, 0
14, 60180, Note_on_c, 11, 54, 91
14, 60240, Note_on_c, 11, 54, 0
14, 60240, Note_on_c, 11, 55, 91
14, 60300, Note_on_c, 11, 55, 0
14, 60300, Note_on_c, 11, 57, 91
14, 60360, Note_on_c, 11, 57, 0
14, 60360, Note_on_c, 11, 58, 91
14, 60420, Note_on_c, 11, 58, 0
14, 60420, Note_on_c, 11, 61, 91
14, 60480, Note_on_c, 11, 61, 0
14, 60480, Note_on_c, 11, 64, 91
14, 60540, Note_on_c, 11, 64, 0
14, 60540, Note_on_c, 11, 62, 91
14, 60600, Note_on_c, 11, 62, 0
14, 61920, Note_on_c, 11, 50, 53
14, 62400, Note_on_c, 11, 50, 0
14, 62400, Note_on_c, 11, 55, 97
14, 62520, Note_on_c, 11, 55, 0
14, 62580, Note_on_c, 11, 50, 97
14, 62610, Note_on_c, 11, 50, 0
14, 62640, Note_on_c, 11, 55, 97
14, 62760, Note_on_c, 11, 55, 0
14, 62820, Note_on_c, 11, 50, 97
14, 62850, Note_on_c, 11, 50, 0
14, 62880, Note_on_c, 11, 55, 97
14, 62910, Note_on_c, 11, 55, 0
14, 62940, Note_on_c, 11, 50, 97
14, 62970, Note_on_c, 11, 50, 0
14, 63000, Note_on_c, 11, 55, 96
14, 63030, Note_on_c, 11, 55, 0
14, 63060, Note_on_c, 11, 59, 96
14, 63090, Note_on_c, 11, 59, 0
14, 63120, Note_on_c, 11, 62, 95
14, 63240, Note_on_c, 11, 62, 0
14, 63360, Note_on_c, 11, 60, 95
14, 63480, Note_on_c, 11, 60, 0
14, 63540, Note_on_c, 11, 57, 95
14, 63570, Note_on_c, 11, 57, 0
14, 63600, Note_on_c, 11, 60, 95
14, 63720, Note_on_c, 11, 60, 0
14, 63780, Note_on_c, 11, 57, 91
14, 63810, Note_on_c, 11, 57, 0
14, 63840, Note_on_c, 11, 60, 91
14, 63870, Note_on_c, 11, 60, 0
14, 63900, Note_on_c, 11, 57, 91
14, 63930, Note_on_c, 11, 57, 0
14, 63960, Note_on_c, 11, 54, 91
14, 63990, Note_on_c, 11, 54, 0
14, 64020, Note_on_c, 11, 57, 91
14, 64050, Note_on_c, 11, 57, 0
14, 64080, Note_on_c, 11, 50, 90
14, 64200, Note_on_c, 11, 50, 0
14, 64320, Note_on_c, 11, 55, 85
14, 64365, Note_on_c, 11, 55, 0
14, 64380, Note_on_c, 11, 55, 85
14, 64425, Note_on_c, 11, 55, 0
14, 64440, Note_on_c, 11, 55, 85
14, 64485, Note_on_c, 11, 55, 0
14, 64500, Note_on_c, 11, 55, 85
14, 64545, Note_on_c, 11, 55, 0
14, 64560, Note_on_c, 11, 55, 85
14, 64605, Note_on_c, 11, 55, 0
14, 64620, Note_on_c, 11, 55, 85
14, 64665, Note_on_c, 11, 55, 0
14, 64680, Note_on_c, 11, 55, 85
14, 64725, Note_on_c, 11, 55, 0
14, 64740, Note_on_c, 11, 55, 85
14, 64785, Note_on_c, 11, 55, 0
14, 64800, Note_on_c, 11, 55, 85
14, 64845, Note_on_c, 11, 55, 0
14, 64860, Note_on_c, 11, 55, 85
14, 64905, Note_on_c, 11, 55, 0
14, 64920, Note_on_c, 11, 55, 85
14, 64965, Note_on_c, 11, 55, 0
14, 64980, Note_on_c, 11, 55, 85
14, 65025, Note_on_c, 11, 55, 0
14, 65040, Note_on_c, 11, 55, 85
14, 65085, Note_on_c, 11, 55, 0
14, 65100, Note_on_c, 11, 55, 85
14, 65145, Note_on_c, 11, 55, 0
14, 65160, Note_on_c, 11, 55, 85
14, 65205, Note_on_c, 11, 55, 0
14, 65220, Note_on_c, 11, 55, 85
14, 65265, Note_on_c, 11, 55, 0
14, 65280, Note_on_c, 11, 55, 85
14, 65325, Note_on_c, 11, 55, 0
14, 65340, Note_on_c, 11, 55, 85
14, 65385, Note_on_c, 11, 55, 0
14, 65400, Note_on_c, 11, 55, 85
14, 65445, Note_on_c, 11, 55, 0
14, 65460, Note_on_c, 11, 55, 85
14, 65505, Note_on_c, 11, 55, 0
14, 65520, Note_on_c, 11, 55, 85
14, 65565, Note_on_c, 11, 55, 0
14, 65580, Note_on_c, 11, 55, 85
14, 65625, Note_on_c, 11, 55, 0
14, 65640, Note_on_c, 11, 55, 85
14, 65685, Note_on_c, 11, 55, 0
14, 65700, Note_on_c, 11, 55, 85
14, 65745, Note_on_c, 11, 55, 0
14, 65760, Note_on_c, 11, 55, 85
14, 65805, Note_on_c, 11, 55, 0
14, 65820, Note_on_c, 11, 55, 85
14, 65865, Note_on_c, 11, 55, 0
14, 65880, Note_on_c, 11, 55, 85
14, 65925, Note_on_c, 11, 55, 0
14, 65940, Note_on_c, 11, 55, 85
14, 65985, Note_on_c, 11, 55, 0
14, 66000, Note_on_c, 11, 55, 85
14, 66045, Note_on_c, 11, 55, 0
14, 66060, Note_on_c, 11, 55, 85
14, 66105, Note_on_c, 11, 55, 0
14, 66120, Note_on_c, 11, 55, 85
14, 66165, Note_on_c, 11, 55, 0
14, 66180, Note_on_c, 11, 55, 85
14, 66225, Note_on_c, 11, 55, 0
14, 66240, Note_on_c, 11, 55, 85
14, 66285, Note_on_c, 11, 55, 0
14, 66300, Note_on_c, 11, 55, 85
14, 66345, Note_on_c, 11, 55, 0
14, 66360, Note_on_c, 11, 57, 85
14, 66405, Note_on_c, 11, 57, 0
14, 66420, Note_on_c, 11, 57, 85
14, 66465, Note_on_c, 11, 57, 0
14, 66480, Note_on_c, 11, 59, 85
14, 66525, Note_on_c, 11, 59, 0
14, 66540, Note_on_c, 11, 59, 85
14, 66585, Note_on_c, 11, 59, 0
14, 66600, Note_on_c, 11, 54, 85
14, 66645, Note_on_c, 11, 54, 0
14, 66660, Note_on_c, 11, 54, 85
14, 66705, Note_on_c, 11, 54, 0
14, 66720, Note_on_c, 11, 55, 85
14, 66765, Note_on_c, 11, 55, 0
14, 66780, Note_on_c, 11, 55, 85
14, 66825, Note_on_c, 11, 55, 0
14, 66840, Note_on_c, 11, 57, 85
14, 66885, Note_on_c, 11, 57, 0
14, 66900, Note_on_c, 11, 57, 85
14, 66945, Note_on_c, 11, 57, 0
14, 66960, Note_on_c, 11, 59, 85
14, 67080, Note_on_c, 11, 59, 0
14, 67680, Note_on_c, 11, 50, 47
14, 67920, Note_on_c, 11, 50, 0
14, 67920, Note_on_c, 11, 52, 47
14, 68160, Note_on_c, 11, 52, 0
14, 68160, Note_on_c, 11, 48, 47
14, 68250, Note_on_c, 11, 48, 0
14, 68280, Note_on_c, 11, 48, 47
14, 68370, Note_on_c, 11, 48, 0
14, 68400, Note_on_c, 11, 50, 47
14, 68490, Note_on_c, 11, 50, 0
14, 68520, Note_on_c, 11, 50, 47
14, 68610, Note_on_c, 11, 50, 0
14, 68640, Note_on_c, 11, 47, 47
14, 68700, Note_on_c, 11, 47, 0
14, 68760, Note_on_c, 11, 50, 47
14, 68820, Note_on_c, 11, 50, 0
14, 68880, Note_on_c, 11, 55, 47
14, 69000, Note_on_c, 11, 55, 0
14, 69600, Note_on_c, 11, 50, 47
14, 69840, Note_on_c, 11, 50, 0
14, 69840, Note_on_c, 11, 52, 47
14, 70080, Note_on_c, 11, 52, 0
14, 70080, Note_on_c, 11, 48, 47
14, 70170, Note_on_c, 11, 48, 0
14, 70200, Note_on_c, 11, 48, 47
14, 70290, Note_on_c, 11, 48, 0
14, 70320, Note_on_c, 11, 50, 47
14, 70410, Note_on_c, 11, 50, 0
14, 70440, Note_on_c, 11, 50, 47
14, 70530, Note_on_c, 11, 50, 0
14, 70560, Note_on_c, 11, 55, 91
14, 70605, Note_on_c, 11, 55, 0
14, 70620, Note_on_c, 11, 55, 83
14, 70665, Note_on_c, 11, 55, 0
14, 70680, Note_on_c, 11, 55, 83
14, 70725, Note_on_c, 11, 55, 0
14, 70740, Note_on_c, 11, 55, 83
14, 70785, Note_on_c, 11, 55, 0
14, 70800, Note_on_c, 11, 55, 59
14, 70845, Note_on_c, 11, 55, 0
14, 70860, Note_on_c, 11, 55, 59
14, 70905, Note_on_c, 11, 55, 0
14, 70920, Note_on_c, 11, 55, 59
14, 70965, Note_on_c, 11, 55, 0
14, 70980, Note_on_c, 11, 55, 59
14, 71025, Note_on_c, 11, 55, 0
14, 71040, Note_on_c, 11, 55, 92
14, 71085, Note_on_c, 11, 55, 0
14, 71100, Note_on_c, 11, 55, 79
14, 71145, Note_on_c, 11, 55, 0
14, 71160, Note_on_c, 11, 55, 79
14, 71205, Note_on_c, 11, 55, 0
14, 71220, Note_on_c, 11, 55, 79
14, 71265, Note_on_c, 11, 55, 0
14, 71280, Note_on_c, 11, 55, 59
14, 71325, Note_on_c, 11, 55, 0
14, 71340, Note_on_c, 11, 55, 59
14, 71385, Note_on_c, 11, 55, 0
14, 71400, Note_on_c, 11, 55, 59
14, 71445, Note_on_c, 11, 55, 0
14, 71460, Note_on_c, 11, 55, 59
14, 71505, Note_on_c, 11, 55, 0
14, 71520, Note_on_c, 11, 55, 59
14, 71565, Note_on_c, 11, 55, 0
14, 71580, Note_on_c, 11, 55, 40
14, 71625, Note_on_c, 11, 55, 0
14, 71640, Note_on_c, 11, 55, 43
14, 71685, Note_on_c, 11, 55, 0
14, 71700, Note_on_c, 11, 55, 46
14, 71745, Note_on_c, 11, 55, 0
14, 71760, Note_on_c, 11, 55, 49
14, 71805, Note_on_c, 11, 55, 0
14, 71820, Note_on_c, 11, 55, 52
14, 71865, Note_on_c, 11, 55, 0
14, 71880, Note_on_c, 11, 55, 55
14, 71925, Note_on_c, 11, 55, 0
14, 71940, Note_on_c, 11, 55, 58
14, 71985, Note_on_c, 11, 55, 0
14, 72000, Note_on_c, 11, 55, 61
14, 72045, Note_on_c, 11, 55, 0
14, 72060, Note_on_c, 11, 55, 64
14, 72105, Note_on_c, 11, 55, 0
14, 72120, Note_on_c, 11, 54, 67
14, 72165, Note_on_c, 11, 54, 0
14, 72180, Note_on_c, 11, 54, 70
14, 72225, Note_on_c, 11, 54, 0
14, 72240, Note_on_c, 11, 55, 73
14, 72285, Note_on_c, 11, 55, 0
14, 72300, Note_on_c, 11, 55, 76
14, 72345, Note_on_c, 11, 55, 0
14, 72360, Note_on_c, 11, 52, 79
14, 72405, Note_on_c, 11, 52, 0
14, 72420, Note_on_c, 11, 52, 82
14, 72465, Note_on_c, 11, 52, 0
14, 72480, Note_on_c, 11, 50, 85
14, 72525, Note_on_c, 11, 50, 0
14, 72540, Note_on_c, 11, 50, 85
14, 72585, Note_on_c, 11, 50, 0
14, 72600, Note_on_c, 11, 50, 85
14, 72645, Note_on_c, 11, 50, 0
14, 72660, Note_on_c, 11, 50, 85
14, 72705, Note_on_c, 11, 50, 0
14, 72720, Note_on_c, 11, 50, 85
14, 72765, Note_on_c, 11, 50, 0
14, 72780, Note_on_c, 11, 50, 85
14, 72825, Note_on_c, 11, 50, 0
14, 72840, Note_on_c, 11, 50, 85
14, 72885, Note_on_c, 11, 50, 0
14, 72900, Note_on_c, 11, 50, 85
14, 72945, Note_on_c, 11, 50, 0
14, 72960, Note_on_c, 11, 50, 85
14, 73005, Note_on_c, 11, 50, 0
14, 73020, Note_on_c, 11, 50, 85
14, 73065, Note_on_c, 11, 50, 0
14, 73080, Note_on_c, 11, 50, 85
14, 73125, Note_on_c, 11, 50, 0
14, 73140, Note_on_c, 11, 50, 85
14, 73185, Note_on_c, 11, 50, 0
14, 73200, Note_on_c, 11, 50, 85
14, 73245, Note_on_c, 11, 50, 0
14, 73260, Note_on_c, 11, 50, 85
14, 73305, Note_on_c, 11, 50, 0
14, 73320, Note_on_c, 11, 50, 85
14, 73365, Note_on_c, 11, 50, 0
14, 73380, Note_on_c, 11, 50, 85
14, 73425, Note_on_c, 11, 50, 0
14, 73440, Note_on_c, 11, 50, 85
14, 73485, Note_on_c, 11, 50, 0
14, 73500, Note_on_c, 11, 50, 85
14, 73545, Note_on_c, 11, 50, 0
14, 73560, Note_on_c, 11, 50, 85
14, 73605, Note_on_c, 11, 50, 0
14, 73620, Note_on_c, 11, 50, 85
14, 73665, Note_on_c, 11, 50, 0
14, 73680, Note_on_c, 11, 50, 85
14, 73725, Note_on_c, 11, 50, 0
14, 73740, Note_on_c, 11, 50, 85
14, 73785, Note_on_c, 11, 50, 0
14, 73800, Note_on_c, 11, 50, 85
14, 73845, Note_on_c, 11, 50, 0
14, 73860, Note_on_c, 11, 50, 85
14, 73905, Note_on_c, 11, 50, 0
14, 73920, Note_on_c, 11, 50, 85
14, 73965, Note_on_c, 11, 50, 0
14, 73980, Note_on_c, 11, 50, 85
14, 74025, Note_on_c, 11, 50, 0
14, 74040, Note_on_c, 11, 50, 85
14, 74085, Note_on_c, 11, 50, 0
14, 74100, Note_on_c, 11, 50, 85
14, 74145, Note_on_c, 11, 50, 0
14, 74160, Note_on_c, 11, 50, 85
14, 74280, Note_on_c, 11, 50, 0
14, 74760, Note_on_c, 11, 56, 55
14, 74820, Note_on_c, 11, 56, 0
14, 74880, Note_on_c, 11, 57, 55
14, 74940, Note_on_c, 11, 57, 0
14, 75000, Note_on_c, 11, 55, 55
14, 75060, Note_on_c, 11, 55, 0
14, 75120, Note_on_c, 11, 54, 55
14, 75180, Note_on_c, 11, 54, 0
14, 75240, Note_on_c, 11, 50, 55
14, 75300, Note_on_c, 11, 50, 0
14, 75480, Note_on_c, 11, 51, 55
14, 75600, Note_on_c, 11, 51, 0
14, 75600, Note_on_c, 11, 52, 55
14, 75660, Note_on_c, 11, 52, 0
14, 75720, Note_on_c, 11, 48, 55
14, 75780, Note_on_c, 11, 48, 0
14, 75840, Note_on_c, 11, 50, 55
14, 75930, Note_on_c, 11, 50, 0
14, 75960, Note_on_c, 11, 62, 55
14, 76140, Note_on_c, 11, 62, 0
14, 76140, Note_on_c, 11, 61, 55
14, 76200, Note_on_c, 11, 61, 0
14, 76200, Note_on_c, 11, 60, 55
14, 76260, Note_on_c, 11, 60, 0
14, 76260, Note_on_c, 11, 57, 55
14, 76320, Note_on_c, 11, 57, 0
14, 76320, Note_on_c, 11, 55, 55
14, 76380, Note_on_c, 11, 55, 0
14, 76440, Note_on_c, 11, 57, 55
14, 76500, Note_on_c, 11, 57, 0
14, 76560, Note_on_c, 11, 59, 55
14, 76620, Note_on_c, 11, 59, 0
14, 76680, Note_on_c, 11, 56, 55
14, 76740, Note_on_c, 11, 56, 0
14, 76800, Note_on_c, 11, 57, 55
14, 76860, Note_on_c, 11, 57, 0
14, 76920, Note_on_c, 11, 55, 55
14, 76980, Note_on_c, 11, 55, 0
14, 77040, Note_on_c, 11, 54, 55
14, 77100, Note_on_c, 11, 54, 0
14, 77160, Note_on_c, 11, 50, 55
14, 77220, Note_on_c, 11, 50, 0
14, 77280, Note_on_c, 11, 52, 55
14, 77340, Note_on_c, 11, 52, 0
14, 77400, Note_on_c, 11, 60, 55
14, 77460, Note_on_c, 11, 60, 0
14, 77520, Note_on_c, 11, 62, 55
14, 77580, Note_on_c, 11, 62, 0
14, 77640, Note_on_c, 11, 50, 55
14, 77700, Note_on_c, 11, 50, 0
14, 77760, Note_on_c, 11, 43, 55
14, 77880, Note_on_c, 11, 43, 0
14, 78240, Note_on_c, 11, 50, 55
14, 78360, Note_on_c, 11, 50, 0
14, 78720, Note_on_c, 11, 43, 55
14, 78840, Note_on_c, 11, 43, 0
14, 79200, Note_on_c, 11, 50, 55
14, 79320, Note_on_c, 11, 50, 0
14, 79740, Note_on_c, 11, 55, 55
14, 79785, Note_on_c, 11, 55, 0
14, 79800, Note_on_c, 11, 59, 55
14, 79845, Note_on_c, 11, 59, 0
14, 79860, Note_on_c, 11, 57, 55
14, 79905, Note_on_c, 11, 57, 0
14, 79920, Note_on_c, 11, 56, 55
14, 79965, Note_on_c, 11, 56, 0
14, 79980, Note_on_c, 11, 52, 55
14, 80025, Note_on_c, 11, 52, 0
14, 80040, Note_on_c, 11, 54, 55
14, 80085, Note_on_c, 11, 54, 0
14, 80100, Note_on_c, 11, 55, 55
14, 80145, Note_on_c, 11, 55, 0
14, 80160, Note_on_c, 11, 57, 85
14, 80205, Note_on_c, 11, 57, 0
14, 80220, Note_on_c, 11, 60, 85
14, 80265, Note_on_c, 11, 60, 0
14, 80280, Note_on_c, 11, 57, 85
14, 80325, Note_on_c, 11, 57, 0
14, 80340, Note_on_c, 11, 55, 85
14, 80385, Note_on_c, 11, 55, 0
14, 80400, Note_on_c, 11, 54, 85
14, 80445, Note_on_c, 11, 54, 0
14, 80460, Note_on_c, 11, 50, 85
14, 80505, Note_on_c, 11, 50, 0
14, 80520, Note_on_c, 11, 52, 85
14, 80565, Note_on_c, 11, 52, 0
14, 80580, Note_on_c, 11, 54, 85
14, 80625, Note_on_c, 11, 54, 0
14, 80640, Note_on_c, 11, 55, 85
14, 80685, Note_on_c, 11, 55, 0
14, 80700, Note_on_c, 11, 55, 85
14, 80745, Note_on_c, 11, 55, 0
14, 80760, Note_on_c, 11, 57, 85
14, 80805, Note_on_c, 11, 57, 0
14, 80820, Note_on_c, 11, 59, 85
14, 80865, Note_on_c, 11, 59, 0
14, 80880, Note_on_c, 11, 60, 85
14, 80925, Note_on_c, 11, 60, 0
14, 80940, Note_on_c, 11, 60, 85
14, 80985, Note_on_c, 11, 60, 0
14, 81000, Note_on_c, 11, 60, 85
14, 81045, Note_on_c, 11, 60, 0
14, 81060, Note_on_c, 11, 60, 85
14, 81105, Note_on_c, 11, 60, 0
14, 81120, Note_on_c, 11, 62, 85
14, 81165, Note_on_c, 11, 62, 0
14, 81180, Note_on_c, 11, 62, 85
14, 81225, Note_on_c, 11, 62, 0
14, 81240, Note_on_c, 11, 62, 85
14, 81285, Note_on_c, 11, 62, 0
14, 81300, Note_on_c, 11, 62, 85
14, 81345, Note_on_c, 11, 62, 0
14, 81360, Note_on_c, 11, 50, 85
14, 81405, Note_on_c, 11, 50, 0
14, 81420, Note_on_c, 11, 50, 85
14, 81465, Note_on_c, 11, 50, 0
14, 81480, Note_on_c, 11, 50, 85
14, 81525, Note_on_c, 11, 50, 0
14, 81540, Note_on_c, 11, 50, 85
14, 81585, Note_on_c, 11, 50, 0
14, 81600, Note_on_c, 11, 55, 85
14, 81720, Note_on_c, 11, 55, 0
14, 82080, Note_on_c, 11, 50, 55
14, 82200, Note_on_c, 11, 50, 0
14, 82560, Note_on_c, 11, 55, 55
14, 82680, Note_on_c, 11, 55, 0
14, 83040, Note_on_c, 11, 50, 55
14, 83160, Note_on_c, 11, 50, 0
14, 83580, Note_on_c, 11, 55, 85
14, 83625, Note_on_c, 11, 55, 0
14, 83640, Note_on_c, 11, 59, 85
14, 83685, Note_on_c, 11, 59, 0
14, 83700, Note_on_c, 11, 57, 85
14, 83745, Note_on_c, 11, 57, 0
14, 83760, Note_on_c, 11, 56, 85
14, 83805, Note_on_c, 11, 56, 0
14, 83820, Note_on_c, 11, 52, 85
14, 83865, Note_on_c, 11, 52, 0
14, 83880, Note_on_c, 11, 54, 85
14, 83925, Note_on_c, 11, 54, 0
14, 83940, Note_on_c, 11, 55, 85
14, 83985, Note_on_c, 11, 55, 0
14, 84000, Note_on_c, 11, 57, 85
14, 84045, Note_on_c, 11, 57, 0
14, 84060, Note_on_c, 11, 60, 85
14, 84105, Note_on_c, 11, 60, 0
14, 84120, Note_on_c, 11, 57, 85
14, 84165, Note_on_c, 11, 57, 0
14, 84180, Note_on_c, 11, 55, 85
14, 84225, Note_on_c, 11, 55, 0
14, 84240, Note_on_c, 11, 54, 85
14, 84285, Note_on_c, 11, 54, 0
14, 84300, Note_on_c, 11, 50, 85
14, 84345, Note_on_c, 11, 50, 0
14, 84360, Note_on_c, 11, 52, 85
14, 84405, Note_on_c, 11, 52, 0
14, 84420, Note_on_c, 11, 54, 85
14, 84465, Note_on_c, 11, 54, 0
14, 84480, Note_on_c, 11, 55, 85
14, 84525, Note_on_c, 11, 55, 0
14, 84540, Note_on_c, 11, 55, 85
14, 84585, Note_on_c, 11, 55, 0
14, 84600, Note_on_c, 11, 57, 85
14, 84645, Note_on_c, 11, 57, 0
14, 84660, Note_on_c, 11, 59, 85
14, 84705, Note_on_c, 11, 59, 0
14, 84720, Note_on_c, 11, 60, 85
14, 84765, Note_on_c, 11, 60, 0
14, 84780, Note_on_c, 11, 60, 85
14, 84825, Note_on_c, 11, 60, 0
14, 84840, Note_on_c, 11, 60, 85
14, 84885, Note_on_c, 11, 60, 0
14, 84900, Note_on_c, 11, 60, 85
14, 84945, Note_on_c, 11, 60, 0
14, 84960, Note_on_c, 11, 62, 85
14, 85005, Note_on_c, 11, 62, 0
14, 85020, Note_on_c, 11, 62, 85
14, 85065, Note_on_c, 11, 62, 0
14, 85080, Note_on_c, 11, 62, 85
14, 85125, Note_on_c, 11, 62, 0
14, 85140, Note_on_c, 11, 62, 85
14, 85185, Note_on_c, 11, 62, 0
14, 85200, Note_on_c, 11, 50, 85
14, 85245, Note_on_c, 11, 50, 0
14, 85260, Note_on_c, 11, 50, 85
14, 85305, Note_on_c, 11, 50, 0
14, 85320, Note_on_c, 11, 50, 85
14, 85365, Note_on_c, 11, 50, 0
14, 85380, Note_on_c, 11, 50, 85
14, 85425, Note_on_c, 11, 50, 0
14, 85440, Note_on_c, 11, 55, 85
14, 85485, Note_on_c, 11, 55, 0
14, 85500, Note_on_c, 11, 50, 85
14, 85545, Note_on_c, 11, 50, 0
14, 85560, Note_on_c, 11, 52, 85
14, 85605, Note_on_c, 11, 52, 0
14, 85620, Note_on_c, 11, 54, 85
14, 85665, Note_on_c, 11, 54, 0
14, 85680, Note_on_c, 11, 55, 85
14, 85725, Note_on_c, 11, 55, 0
14, 85740, Note_on_c, 11, 55, 85
14, 85785, Note_on_c, 11, 55, 0
14, 85800, Note_on_c, 11, 57, 85
14, 85845, Note_on_c, 11, 57, 0
14, 85860, Note_on_c, 11, 57, 85
14, 85905, Note_on_c, 11, 57, 0
14, 85920, Note_on_c, 11, 59, 85
14, 85965, Note_on_c, 11, 59, 0
14, 85980, Note_on_c, 11, 54, 85
14, 86025, Note_on_c, 11, 54, 0
14, 86040, Note_on_c, 11, 55, 85
14, 86085, Note_on_c, 11, 55, 0
14, 86100, Note_on_c, 11, 57, 85
14, 86145, Note_on_c, 11, 57, 0
14, 86160, Note_on_c, 11, 59, 85
14, 86205, Note_on_c, 11, 59, 0
14, 86220, Note_on_c, 11, 59, 85
14, 86265, Note_on_c, 11, 59, 0
14, 86280, Note_on_c, 11, 60, 85
14, 86325, Note_on_c, 11, 60, 0
14, 86340, Note_on_c, 11, 60, 85
14, 86385, Note_on_c, 11, 60, 0
14, 86400, Note_on_c, 11, 62, 85
14, 86445, Note_on_c, 11, 62, 0
14, 86460, Note_on_c, 11, 62, 85
14, 86505, Note_on_c, 11, 62, 0
14, 86520, Note_on_c, 11, 63, 85
14, 86565, Note_on_c, 11, 63, 0
14, 86580, Note_on_c, 11, 63, 85
14, 86625, Note_on_c, 11, 63, 0
14, 86640, Note_on_c, 11, 64, 85
14, 86760, Note_on_c, 11, 64, 0
14, 86880, Note_on_c, 11, 48, 70
14, 87120, Note_on_c, 11, 48, 0
14, 87120, Note_on_c, 11, 50, 70
14, 87360, Note_on_c, 11, 50, 0
14, 87360, Note_on_c, 11, 43, 70
14, 87480, Note_on_c, 11, 43, 0
14, 87840, Note_on_c, 11, 48, 70
14, 88080, Note_on_c, 11, 48, 0
14, 88080, Note_on_c, 11, 50, 70
14, 88320, Note_on_c, 11, 50, 0
14, 88320, Note_on_c, 11, 43, 70
14, 88440, Note_on_c, 11, 43, 0
14, 88800, Note_on_c, 11, 48, 80
14, 88920, Note_on_c, 11, 48, 0
14, 89040, Note_on_c, 11, 50, 109
14, 89160, Note_on_c, 11, 50, 0
14, 89280, Note_on_c, 11, 43, 99
14, 89325, Note_on_c, 11, 43, 0
14, 89340, Note_on_c, 11, 43, 95
14, 89385, Note_on_c, 11, 43, 0
14, 89400, Note_on_c, 11, 43, 93
14, 89445, Note_on_c, 11, 43, 0
14, 89460, Note_on_c, 11, 43, 93
14, 89505, Note_on_c, 11, 43, 0
14, 89520, Note_on_c, 11, 43, 93
14, 89565, Note_on_c, 11, 43, 0
14, 89580, Note_on_c, 11, 43, 94
14, 89625, Note_on_c, 11, 43, 0
14, 89640, Note_on_c, 11, 43, 94
14, 89685, Note_on_c, 11, 43, 0
14, 89700, Note_on_c, 11, 43, 94
14, 89745, Note_on_c, 11, 43, 0
14, 89760, Note_on_c, 11, 43, 94
14, 89805, Note_on_c, 11, 43, 0
14, 89820, Note_on_c, 11, 43, 94
14, 89865, Note_on_c, 11, 43, 0
14, 89880, Note_on_c, 11, 43, 94
14, 89925, Note_on_c, 11, 43, 0
14, 89940, Note_on_c, 11, 43, 94
14, 89985, Note_on_c, 11, 43, 0
14, 90000, Note_on_c, 11, 43, 94
14, 90045, Note_on_c, 11, 43, 0
14, 90060, Note_on_c, 11, 43, 94
14, 90105, Note_on_c, 11, 43, 0
14, 90120, Note_on_c, 11, 43, 94
14, 90165, Note_on_c, 11, 43, 0
14, 90180, Note_on_c, 11, 43, 94
14, 90225, Note_on_c, 11, 43, 0
14, 90240, Note_on_c, 11, 43, 94
14, 90285, Note_on_c, 11, 43, 0
14, 90300, Note_on_c, 11, 43, 94
14, 90345, Note_on_c, 11, 43, 0
14, 90360, Note_on_c, 11, 43, 94
14, 90405, Note_on_c, 11, 43, 0
14, 90420, Note_on_c, 11, 43, 94
14, 90465, Note_on_c, 11, 43, 0
14, 90480, Note_on_c, 11, 43, 94
14, 90525, Note_on_c, 11, 43, 0
14, 90540, Note_on_c, 11, 43, 94
14, 90585, Note_on_c, 11, 43, 0
14, 90600, Note_on_c, 11, 43, 94
14, 90645, Note_on_c, 11, 43, 0
14, 90660, Note_on_c, 11, 43, 94
14, 90705, Note_on_c, 11, 43, 0
14, 90720, Note_on_c, 11, 43, 94
14, 90765, Note_on_c, 11, 43, 0
14, 90780, Note_on_c, 11, 43, 94
14, 90825, Note_on_c, 11, 43, 0
14, 90840, Note_on_c, 11, 43, 94
14, 90885, Note_on_c, 11, 43, 0
14, 90900, Note_on_c, 11, 43, 94
14, 90945, Note_on_c, 11, 43, 0
14, 90960, Note_on_c, 11, 43, 94
14, 91005, Note_on_c, 11, 43, 0
14, 91020, Note_on_c, 11, 43, 94
14, 91065, Note_on_c, 11, 43, 0
14, 91080, Note_on_c, 11, 43, 94
14, 91125, Note_on_c, 11, 43, 0
14, 91140, Note_on_c, 11, 43, 94
14, 91185, Note_on_c, 11, 43, 0
14, 91200, Note_on_c, 11, 43, 94
14, 91245, Note_on_c, 11, 43, 0
14, 91260, Note_on_c, 11, 47, 96
14, 91305, Note_on_c, 11, 47, 0
14, 91320, Note_on_c, 11, 50, 98
14, 91365, Note_on_c, 11, 50, 0
14, 91380, Note_on_c, 11, 55, 98
14, 91425, Note_on_c, 11, 55, 0
14, 91440, Note_on_c, 11, 59, 97
14, 91485, Note_on_c, 11, 59, 0
14, 91500, Note_on_c, 11, 55, 93
14, 91545, Note_on_c, 11, 55, 0
14, 91560, Note_on_c, 11, 62, 92
14, 91605, Note_on_c, 11, 62, 0
14, 91620, Note_on_c, 11, 59, 93
14, 91665, Note_on_c, 11, 59, 0
14, 91680, Note_on_c, 11, 55, 94
14, 91780, Note_on_c, 11, 55, 0
14, 91800, Note_on_c, 11, 43, 94
14, 91860, Note_on_c, 11, 43, 0
14, 91890, Note_on_c, 11, 43, 93
14, 91905, Note_on_c, 11, 43, 0
14, 91920, Note_on_c, 11, 43, 92
14, 92040, Note_on_c, 11, 43, 0
14, 92040, End_track
15, 0, Start_track
15, 0, MIDI_port, 0
15, 0, Title_t, "PUBLIC"
15, 0, Program_c, 12, 45
15, 0, Control_c, 12, 7, 105
15, 0, Control_c, 12, 10, 50
15, 0, Note_on_c, 12, 62, 85
15, 0, Note_on_c, 12, 79, 85
15, 0, Note_on_c, 12, 71, 85
15, 120, Note_on_c, 12, 71, 0
15, 120, Note_on_c, 12, 79, 0
15, 120, Note_on_c, 12, 62, 0
15, 180, Note_on_c, 12, 74, 85
15, 210, Note_on_c, 12, 74, 0
15, 240, Note_on_c, 12, 79, 85
15, 360, Note_on_c, 12, 79, 0
15, 420, Note_on_c, 12, 74, 85
15, 450, Note_on_c, 12, 74, 0
15, 480, Note_on_c, 12, 79, 85
15, 510, Note_on_c, 12, 79, 0
15, 540, Note_on_c, 12, 74, 85
15, 570, Note_on_c, 12, 74, 0
15, 600, Note_on_c, 12, 79, 85
15, 630, Note_on_c, 12, 79, 0
15, 660, Note_on_c, 12, 83, 85
15, 690, Note_on_c, 12, 83, 0
15, 720, Note_on_c, 12, 86, 85
15, 840, Note_on_c, 12, 86, 0
15, 960, Note_on_c, 12, 84, 85
15, 1080, Note_on_c, 12, 84, 0
15, 1140, Note_on_c, 12, 81, 82
15, 1170, Note_on_c, 12, 81, 0
15, 1200, Note_on_c, 12, 84, 85
15, 1320, Note_on_c, 12, 84, 0
15, 1380, Note_on_c, 12, 81, 79
15, 1410, Note_on_c, 12, 81, 0
15, 1440, Note_on_c, 12, 84, 85
15, 1470, Note_on_c, 12, 84, 0
15, 1500, Note_on_c, 12, 81, 80
15, 1530, Note_on_c, 12, 81, 0
15, 1560, Note_on_c, 12, 78, 85
15, 1590, Note_on_c, 12, 78, 0
15, 1620, Note_on_c, 12, 81, 77
15, 1650, Note_on_c, 12, 81, 0
15, 1680, Note_on_c, 12, 74, 85
15, 1800, Note_on_c, 12, 74, 0
15, 1920, Note_on_c, 12, 62, 85
15, 1920, Note_on_c, 12, 79, 85
15, 1920, Note_on_c, 12, 71, 85
15, 1980, Note_on_c, 12, 71, 0
15, 1980, Note_on_c, 12, 79, 0
15, 1980, Note_on_c, 12, 62, 0
15, 2040, Note_on_c, 12, 79, 85
15, 2220, Note_on_c, 12, 79, 0
15, 2220, Note_on_c, 12, 83, 89
15, 2280, Note_on_c, 12, 83, 0
15, 2280, Note_on_c, 12, 81, 94
15, 2310, Note_on_c, 12, 81, 0
15, 2340, Note_on_c, 12, 79, 97
15, 2370, Note_on_c, 12, 79, 0
15, 2400, Note_on_c, 12, 79, 95
15, 2415, Note_on_c, 12, 79, 0
15, 2415, Note_on_c, 12, 81, 95
15, 2430, Note_on_c, 12, 81, 0
15, 2430, Note_on_c, 12, 79, 95
15, 2445, Note_on_c, 12, 79, 0
15, 2445, Note_on_c, 12, 81, 94
15, 2460, Note_on_c, 12, 81, 0
15, 2460, Note_on_c, 12, 78, 94
15, 2510, Note_on_c, 12, 78, 0
15, 2520, Note_on_c, 12, 78, 88
15, 2700, Note_on_c, 12, 78, 0
15, 2700, Note_on_c, 12, 81, 85
15, 2760, Note_on_c, 12, 81, 0
15, 2760, Note_on_c, 12, 84, 85
15, 2790, Note_on_c, 12, 84, 0
15, 2820, Note_on_c, 12, 78, 85
15, 2850, Note_on_c, 12, 78, 0
15, 2880, Note_on_c, 12, 81, 85
15, 2940, Note_on_c, 12, 81, 0
15, 2940, Note_on_c, 12, 79, 85
15, 2970, Note_on_c, 12, 79, 0
15, 3000, Note_on_c, 12, 79, 85
15, 3180, Note_on_c, 12, 79, 0
15, 3180, Note_on_c, 12, 83, 86
15, 3240, Note_on_c, 12, 83, 0
15, 3240, Note_on_c, 12, 81, 86
15, 3270, Note_on_c, 12, 81, 0
15, 3300, Note_on_c, 12, 79, 89
15, 3330, Note_on_c, 12, 79, 0
15, 3360, Note_on_c, 12, 79, 91
15, 3375, Note_on_c, 12, 79, 0
15, 3375, Note_on_c, 12, 81, 91
15, 3390, Note_on_c, 12, 81, 0
15, 3390, Note_on_c, 12, 79, 92
15, 3405, Note_on_c, 12, 79, 0
15, 3405, Note_on_c, 12, 81, 94
15, 3420, Note_on_c, 12, 81, 0
15, 3420, Note_on_c, 12, 78, 94
15, 3470, Note_on_c, 12, 78, 0
15, 3480, Note_on_c, 12, 78, 94
15, 3660, Note_on_c, 12, 78, 0
15, 3660, Note_on_c, 12, 81, 85
15, 3720, Note_on_c, 12, 81, 0
15, 3720, Note_on_c, 12, 84, 85
15, 3750, Note_on_c, 12, 84, 0
15, 3780, Note_on_c, 12, 78, 85
15, 3810, Note_on_c, 12, 78, 0
15, 3840, Note_on_c, 12, 79, 85
15, 3870, Note_on_c, 12, 79, 0
15, 3900, Note_on_c, 12, 79, 85
15, 3930, Note_on_c, 12, 79, 0
15, 3960, Note_on_c, 12, 79, 85
15, 3990, Note_on_c, 12, 79, 0
15, 3990, Note_on_c, 12, 78, 85
15, 4020, Note_on_c, 12, 78, 0
15, 4020, Note_on_c, 12, 76, 85
15, 4050, Note_on_c, 12, 76, 0
15, 4050, Note_on_c, 12, 78, 85
15, 4080, Note_on_c, 12, 78, 0
15, 4080, Note_on_c, 12, 79, 85
15, 4110, Note_on_c, 12, 79, 0
15, 4140, Note_on_c, 12, 79, 85
15, 4170, Note_on_c, 12, 79, 0
15, 4200, Note_on_c, 12, 83, 85
15, 4230, Note_on_c, 12, 83, 0
15, 4230, Note_on_c, 12, 81, 85
15, 4260, Note_on_c, 12, 81, 0
15, 4260, Note_on_c, 12, 79, 85
15, 4290, Note_on_c, 12, 79, 0
15, 4290, Note_on_c, 12, 81, 85
15, 4320, Note_on_c, 12, 81, 0
15, 4320, Note_on_c, 12, 83, 86
15, 4350, Note_on_c, 12, 83, 0
15, 4380, Note_on_c, 12, 83, 86
15, 4410, Note_on_c, 12, 83, 0
15, 4440, Note_on_c, 12, 86, 83
15, 4470, Note_on_c, 12, 86, 0
15, 4470, Note_on_c, 12, 84, 80
15, 4500, Note_on_c, 12, 84, 0
15, 4500, Note_on_c, 12, 83, 80
15, 4530, Note_on_c, 12, 83, 0
15, 4530, Note_on_c, 12, 84, 79
15, 4560, Note_on_c, 12, 84, 0
15, 4560, Note_on_c, 12, 86, 76
15, 4680, Note_on_c, 12, 86, 0
15, 4800, Note_on_c, 12, 74, 41
15, 5040, Note_on_c, 12, 74, 0
15, 5040, Note_on_c, 12, 76, 47
15, 5280, Note_on_c, 12, 76, 0
15, 5280, Note_on_c, 12, 74, 47
15, 5310, Note_on_c, 12, 74, 0
15, 5310, Note_on_c, 12, 72, 47
15, 5390, Note_on_c, 12, 72, 0
15, 5400, Note_on_c, 12, 72, 47
15, 5520, Note_on_c, 12, 72, 0
15, 5520, Note_on_c, 12, 72, 47
15, 5550, Note_on_c, 12, 72, 0
15, 5550, Note_on_c, 12, 71, 47
15, 5630, Note_on_c, 12, 71, 0
15, 5640, Note_on_c, 12, 71, 47
15, 5760, Note_on_c, 12, 71, 0
15, 5760, Note_on_c, 12, 71, 47
15, 5790, Note_on_c, 12, 71, 0
15, 5790, Note_on_c, 12, 69, 47
15, 5870, Note_on_c, 12, 69, 0
15, 5880, Note_on_c, 12, 69, 47
15, 6000, Note_on_c, 12, 69, 0
15, 6000, Note_on_c, 12, 67, 47
15, 6060, Note_on_c, 12, 67, 0
15, 6060, Note_on_c, 12, 66, 47
15, 6090, Note_on_c, 12, 66, 0
15, 6120, Note_on_c, 12, 64, 47
15, 6150, Note_on_c, 12, 64, 0
15, 6180, Note_on_c, 12, 66, 47
15, 6210, Note_on_c, 12, 66, 0
15, 6240, Note_on_c, 12, 67, 47
15, 6300, Note_on_c, 12, 67, 0
15, 6360, Note_on_c, 12, 69, 47
15, 6420, Note_on_c, 12, 69, 0
15, 6480, Note_on_c, 12, 71, 47
15, 6540, Note_on_c, 12, 71, 0
15, 6720, Note_on_c, 12, 74, 47
15, 6960, Note_on_c, 12, 74, 0
15, 6960, Note_on_c, 12, 76, 47
15, 7200, Note_on_c, 12, 76, 0
15, 7200, Note_on_c, 12, 74, 47
15, 7260, Note_on_c, 12, 74, 0
15, 7260, Note_on_c, 12, 72, 47
15, 7290, Note_on_c, 12, 72, 0
15, 7320, Note_on_c, 12, 72, 47
15, 7350, Note_on_c, 12, 72, 0
15, 7380, Note_on_c, 12, 72, 47
15, 7410, Note_on_c, 12, 72, 0
15, 7440, Note_on_c, 12, 72, 47
15, 7500, Note_on_c, 12, 72, 0
15, 7500, Note_on_c, 12, 71, 47
15, 7530, Note_on_c, 12, 71, 0
15, 7560, Note_on_c, 12, 71, 47
15, 7590, Note_on_c, 12, 71, 0
15, 7620, Note_on_c, 12, 71, 47
15, 7650, Note_on_c, 12, 71, 0
15, 7680, Note_on_c, 12, 71, 47
15, 7740, Note_on_c, 12, 71, 0
15, 7740, Note_on_c, 12, 69, 47
15, 7770, Note_on_c, 12, 69, 0
15, 7800, Note_on_c, 12, 69, 47
15, 7845, Note_on_c, 12, 69, 0
15, 7860, Note_on_c, 12, 69, 47
15, 7905, Note_on_c, 12, 69, 0
15, 7920, Note_on_c, 12, 67, 47
15, 7980, Note_on_c, 12, 67, 0
15, 7980, Note_on_c, 12, 66, 47
15, 8040, Note_on_c, 12, 66, 0
15, 8040, Note_on_c, 12, 64, 47
15, 8100, Note_on_c, 12, 64, 0
15, 8100, Note_on_c, 12, 66, 47
15, 8160, Note_on_c, 12, 66, 0
15, 8160, Note_on_c, 12, 55, 85
15, 8160, Note_on_c, 12, 67, 85
15, 8460, Note_on_c, 12, 67, 0
15, 8460, Note_on_c, 12, 55, 0
15, 8460, Note_on_c, 12, 67, 61
15, 8475, Note_on_c, 12, 67, 0
15, 8475, Note_on_c, 12, 69, 61
15, 8490, Note_on_c, 12, 69, 0
15, 8490, Note_on_c, 12, 66, 61
15, 8505, Note_on_c, 12, 66, 0
15, 8505, Note_on_c, 12, 67, 61
15, 8520, Note_on_c, 12, 67, 0
15, 8520, Note_on_c, 12, 69, 61
15, 8580, Note_on_c, 12, 69, 0
15, 8580, Note_on_c, 12, 66, 61
15, 8640, Note_on_c, 12, 66, 0
15, 8640, Note_on_c, 12, 71, 85
15, 8940, Note_on_c, 12, 71, 0
15, 8940, Note_on_c, 12, 71, 61
15, 8955, Note_on_c, 12, 71, 0
15, 8955, Note_on_c, 12, 72, 61
15, 8970, Note_on_c, 12, 72, 0
15, 8970, Note_on_c, 12, 69, 61
15, 8985, Note_on_c, 12, 69, 0
15, 8985, Note_on_c, 12, 71, 61
15, 9000, Note_on_c, 12, 71, 0
15, 9000, Note_on_c, 12, 72, 61
15, 9060, Note_on_c, 12, 72, 0
15, 9060, Note_on_c, 12, 69, 61
15, 9120, Note_on_c, 12, 69, 0
15, 9120, Note_on_c, 12, 74, 46
15, 9140, Note_on_c, 12, 74, 0
15, 9150, Note_on_c, 12, 74, 46
15, 9170, Note_on_c, 12, 74, 0
15, 9180, Note_on_c, 12, 74, 47
15, 9200, Note_on_c, 12, 74, 0
15, 9210, Note_on_c, 12, 74, 47
15, 9230, Note_on_c, 12, 74, 0
15, 9240, Note_on_c, 12, 74, 49
15, 9260, Note_on_c, 12, 74, 0
15, 9270, Note_on_c, 12, 74, 50
15, 9290, Note_on_c, 12, 74, 0
15, 9300, Note_on_c, 12, 74, 50
15, 9320, Note_on_c, 12, 74, 0
15, 9330, Note_on_c, 12, 74, 52
15, 9350, Note_on_c, 12, 74, 0
15, 9360, Note_on_c, 12, 76, 53
15, 9380, Note_on_c, 12, 76, 0
15, 9390, Note_on_c, 12, 76, 53
15, 9410, Note_on_c, 12, 76, 0
15, 9420, Note_on_c, 12, 76, 55
15, 9440, Note_on_c, 12, 76, 0
15, 9450, Note_on_c, 12, 76, 56
15, 9470, Note_on_c, 12, 76, 0
15, 9480, Note_on_c, 12, 78, 56
15, 9500, Note_on_c, 12, 78, 0
15, 9510, Note_on_c, 12, 78, 58
15, 9530, Note_on_c, 12, 78, 0
15, 9540, Note_on_c, 12, 78, 58
15, 9560, Note_on_c, 12, 78, 0
15, 9570, Note_on_c, 12, 78, 59
15, 9590, Note_on_c, 12, 78, 0
15, 9600, Note_on_c, 12, 79, 61
15, 9620, Note_on_c, 12, 79, 0
15, 9630, Note_on_c, 12, 79, 61
15, 9650, Note_on_c, 12, 79, 0
15, 9660, Note_on_c, 12, 79, 62
15, 9680, Note_on_c, 12, 79, 0
15, 9690, Note_on_c, 12, 79, 64
15, 9710, Note_on_c, 12, 79, 0
15, 9720, Note_on_c, 12, 81, 64
15, 9740, Note_on_c, 12, 81, 0
15, 9750, Note_on_c, 12, 81, 65
15, 9770, Note_on_c, 12, 81, 0
15, 9780, Note_on_c, 12, 81, 67
15, 9800, Note_on_c, 12, 81, 0
15, 9810, Note_on_c, 12, 81, 67
15, 9830, Note_on_c, 12, 81, 0
15, 9840, Note_on_c, 12, 83, 68
15, 9860, Note_on_c, 12, 83, 0
15, 9870, Note_on_c, 12, 83, 68
15, 9890, Note_on_c, 12, 83, 0
15, 9900, Note_on_c, 12, 83, 70
15, 9920, Note_on_c, 12, 83, 0
15, 9930, Note_on_c, 12, 83, 71
15, 9950, Note_on_c, 12, 83, 0
15, 9960, Note_on_c, 12, 85, 71
15, 9980, Note_on_c, 12, 85, 0
15, 9990, Note_on_c, 12, 85, 73
15, 10010, Note_on_c, 12, 85, 0
15, 10020, Note_on_c, 12, 85, 74
15, 10040, Note_on_c, 12, 85, 0
15, 10050, Note_on_c, 12, 85, 74
15, 10070, Note_on_c, 12, 85, 0
15, 10080, Note_on_c, 12, 86, 85
15, 10260, Note_on_c, 12, 86, 0
15, 10260, Note_on_c, 12, 81, 85
15, 10320, Note_on_c, 12, 81, 0
15, 10320, Note_on_c, 12, 85, 94
15, 10410, Note_on_c, 12, 85, 0
15, 10410, Note_on_c, 12, 81, 85
15, 10440, Note_on_c, 12, 81, 0
15, 10440, Note_on_c, 12, 85, 85
15, 10530, Note_on_c, 12, 85, 0
15, 10530, Note_on_c, 12, 81, 85
15, 10560, Note_on_c, 12, 81, 0
15, 10560, Note_on_c, 12, 86, 85
15, 10740, Note_on_c, 12, 86, 0
15, 10740, Note_on_c, 12, 81, 85
15, 10800, Note_on_c, 12, 81, 0
15, 10800, Note_on_c, 12, 85, 85
15, 10890, Note_on_c, 12, 85, 0
15, 10890, Note_on_c, 12, 81, 85
15, 10920, Note_on_c, 12, 81, 0
15, 10920, Note_on_c, 12, 85, 85
15, 11010, Note_on_c, 12, 85, 0
15, 11010, Note_on_c, 12, 81, 85
15, 11040, Note_on_c, 12, 81, 0
15, 11040, Note_on_c, 12, 86, 85
15, 11070, Note_on_c, 12, 86, 0
15, 11100, Note_on_c, 12, 78, 85
15, 11100, Note_on_c, 12, 86, 85
15, 11190, Note_on_c, 12, 86, 0
15, 11190, Note_on_c, 12, 78, 0
15, 11220, Note_on_c, 12, 78, 85
15, 11220, Note_on_c, 12, 86, 85
15, 11310, Note_on_c, 12, 86, 0
15, 11310, Note_on_c, 12, 78, 0
15, 11340, Note_on_c, 12, 78, 85
15, 11340, Note_on_c, 12, 86, 85
15, 11430, Note_on_c, 12, 86, 0
15, 11430, Note_on_c, 12, 78, 0
15, 11460, Note_on_c, 12, 78, 85
15, 11460, Note_on_c, 12, 86, 85
15, 11520, Note_on_c, 12, 78, 0
15, 11520, Note_on_c, 12, 76, 85
15, 11550, Note_on_c, 12, 76, 0
15, 11550, Note_on_c, 12, 86, 0
15, 11580, Note_on_c, 12, 76, 85
15, 11580, Note_on_c, 12, 86, 85
15, 11670, Note_on_c, 12, 86, 0
15, 11670, Note_on_c, 12, 76, 0
15, 11700, Note_on_c, 12, 76, 85
15, 11700, Note_on_c, 12, 86, 85
15, 11790, Note_on_c, 12, 86, 0
15, 11790, Note_on_c, 12, 76, 0
15, 11820, Note_on_c, 12, 76, 85
15, 11820, Note_on_c, 12, 86, 85
15, 11910, Note_on_c, 12, 86, 0
15, 11910, Note_on_c, 12, 76, 0
15, 11940, Note_on_c, 12, 76, 85
15, 11940, Note_on_c, 12, 86, 85
15, 12000, Note_on_c, 12, 86, 0
15, 12000, Note_on_c, 12, 76, 0
15, 12000, Note_on_c, 12, 76, 92
15, 12000, Note_on_c, 12, 85, 92
15, 12045, Note_on_c, 12, 85, 0
15, 12045, Note_on_c, 12, 76, 0
15, 12060, Note_on_c, 12, 81, 85
15, 12105, Note_on_c, 12, 81, 0
15, 12120, Note_on_c, 12, 86, 85
15, 12165, Note_on_c, 12, 86, 0
15, 12180, Note_on_c, 12, 81, 85
15, 12225, Note_on_c, 12, 81, 0
15, 12240, Note_on_c, 12, 85, 85
15, 12285, Note_on_c, 12, 85, 0
15, 12300, Note_on_c, 12, 81, 85
15, 12345, Note_on_c, 12, 81, 0
15, 12360, Note_on_c, 12, 86, 85
15, 12405, Note_on_c, 12, 86, 0
15, 12420, Note_on_c, 12, 81, 85
15, 12465, Note_on_c, 12, 81, 0
15, 12480, Note_on_c, 12, 85, 94
15, 12525, Note_on_c, 12, 85, 0
15, 12540, Note_on_c, 12, 69, 85
15, 12585, Note_on_c, 12, 69, 0
15, 12600, Note_on_c, 12, 69, 85
15, 12645, Note_on_c, 12, 69, 0
15, 12660, Note_on_c, 12, 69, 85
15, 12705, Note_on_c, 12, 69, 0
15, 12720, Note_on_c, 12, 69, 85
15, 12840, Note_on_c, 12, 69, 0
15, 12950, Control_c, 12, 11, 77
15, 12960, Note_on_c, 12, 81, 55
15, 12964, Control_c, 12, 11, 80
15, 12966, Control_c, 12, 11, 82
15, 12970, Control_c, 12, 11, 83
15, 12974, Control_c, 12, 11, 85
15, 12978, Control_c, 12, 11, 87
15, 12994, Control_c, 12, 11, 93
15, 12998, Control_c, 12, 11, 101
15, 13010, Control_c, 12, 11, 107
15, 13022, Control_c, 12, 11, 113
15, 13034, Control_c, 12, 11, 115
15, 13038, Control_c, 12, 11, 117
15, 13042, Control_c, 12, 11, 118
15, 13044, Control_c, 12, 11, 119
15, 13048, Control_c, 12, 11, 120
15, 13052, Control_c, 12, 11, 121
15, 13056, Control_c, 12, 11, 122
15, 13058, Control_c, 12, 11, 123
15, 13060, Control_c, 12, 11, 124
15, 13064, Control_c, 12, 11, 127
15, 13140, Note_on_c, 12, 81, 0
15, 13140, Note_on_c, 12, 79, 55
15, 13160, Note_on_c, 12, 79, 0
15, 13160, Note_on_c, 12, 78, 55
15, 13180, Note_on_c, 12, 78, 0
15, 13180, Note_on_c, 12, 76, 55
15, 13200, Note_on_c, 12, 76, 0
15, 13200, Note_on_c, 12, 74, 55
15, 13260, Note_on_c, 12, 74, 0
15, 13320, Note_on_c, 12, 83, 55
15, 13380, Note_on_c, 12, 83, 0
15, 13440, Note_on_c, 12, 79, 55
15, 13500, Note_on_c, 12, 79, 0
15, 13560, Note_on_c, 12, 76, 55
15, 13620, Note_on_c, 12, 76, 0
15, 13680, Note_on_c, 12, 81, 55
15, 13740, Note_on_c, 12, 81, 0
15, 13920, Note_on_c, 12, 78, 55
15, 14100, Note_on_c, 12, 78, 0
15, 14100, Note_on_c, 12, 76, 55
15, 14120, Note_on_c, 12, 76, 0
15, 14120, Note_on_c, 12, 74, 55
15, 14140, Note_on_c, 12, 74, 0
15, 14140, Note_on_c, 12, 73, 55
15, 14160, Note_on_c, 12, 73, 0
15, 14160, Note_on_c, 12, 71, 55
15, 14220, Note_on_c, 12, 71, 0
15, 14280, Note_on_c, 12, 79, 55
15, 14340, Note_on_c, 12, 79, 0
15, 14400, Note_on_c, 12, 78, 55
15, 14640, Note_on_c, 12, 78, 0
15, 14640, Note_on_c, 12, 76, 49
15, 14760, Note_on_c, 12, 76, 0
15, 14940, Note_on_c, 12, 81, 55
15, 14970, Note_on_c, 12, 81, 0
15, 15000, Note_on_c, 12, 81, 55
15, 15030, Note_on_c, 12, 81, 0
15, 15060, Note_on_c, 12, 81, 55
15, 15090, Note_on_c, 12, 81, 0
15, 15120, Note_on_c, 12, 81, 55
15, 15150, Note_on_c, 12, 81, 0
15, 15180, Note_on_c, 12, 81, 55
15, 15210, Note_on_c, 12, 81, 0
15, 15240, Note_on_c, 12, 81, 55
15, 15270, Note_on_c, 12, 81, 0
15, 15300, Note_on_c, 12, 81, 55
15, 15330, Note_on_c, 12, 81, 0
15, 15360, Note_on_c, 12, 81, 55
15, 15390, Note_on_c, 12, 81, 0
15, 15420, Note_on_c, 12, 81, 55
15, 15450, Note_on_c, 12, 81, 0
15, 15480, Note_on_c, 12, 81, 55
15, 15510, Note_on_c, 12, 81, 0
15, 15540, Note_on_c, 12, 81, 55
15, 15570, Note_on_c, 12, 81, 0
15, 15600, Note_on_c, 12, 81, 55
15, 15630, Note_on_c, 12, 81, 0
15, 15660, Note_on_c, 12, 81, 55
15, 15690, Note_on_c, 12, 81, 0
15, 15720, Note_on_c, 12, 83, 55
15, 15750, Note_on_c, 12, 83, 0
15, 15780, Note_on_c, 12, 85, 55
15, 15810, Note_on_c, 12, 85, 0
15, 15840, Note_on_c, 12, 85, 55
15, 15900, Note_on_c, 12, 85, 0
15, 15900, Note_on_c, 12, 86, 55
15, 15960, Note_on_c, 12, 86, 0
15, 16020, Note_on_c, 12, 83, 55
15, 16050, Note_on_c, 12, 83, 0
15, 16080, Note_on_c, 12, 83, 55
15, 16140, Note_on_c, 12, 83, 0
15, 16140, Note_on_c, 12, 81, 55
15, 16200, Note_on_c, 12, 81, 0
15, 16260, Note_on_c, 12, 73, 55
15, 16305, Note_on_c, 12, 73, 0
15, 16320, Note_on_c, 12, 74, 55
15, 16440, Note_on_c, 12, 74, 0
15, 16500, Note_on_c, 12, 81, 55
15, 16530, Note_on_c, 12, 81, 0
15, 16560, Note_on_c, 12, 86, 55
15, 16620, Note_on_c, 12, 86, 0
15, 16620, Note_on_c, 12, 85, 55
15, 16680, Note_on_c, 12, 85, 0
15, 16680, Note_on_c, 12, 83, 55
15, 16740, Note_on_c, 12, 83, 0
15, 16740, Note_on_c, 12, 81, 55
15, 16800, Note_on_c, 12, 81, 0
15, 16800, Note_on_c, 12, 83, 55
15, 16815, Note_on_c, 12, 83, 0
15, 16815, Note_on_c, 12, 85, 55
15, 16830, Note_on_c, 12, 85, 0
15, 16830, Note_on_c, 12, 83, 55
15, 16845, Note_on_c, 12, 83, 0
15, 16845, Note_on_c, 12, 85, 55
15, 16860, Note_on_c, 12, 85, 0
15, 16860, Note_on_c, 12, 81, 55
15, 16920, Note_on_c, 12, 81, 0
15, 16980, Note_on_c, 12, 81, 55
15, 17010, Note_on_c, 12, 81, 0
15, 17040, Note_on_c, 12, 81, 55
15, 17070, Note_on_c, 12, 81, 0
15, 17100, Note_on_c, 12, 81, 55
15, 17130, Note_on_c, 12, 81, 0
15, 17160, Note_on_c, 12, 81, 55
15, 17190, Note_on_c, 12, 81, 0
15, 17220, Note_on_c, 12, 81, 55
15, 17250, Note_on_c, 12, 81, 0
15, 17280, Note_on_c, 12, 83, 55
15, 17295, Note_on_c, 12, 83, 0
15, 17295, Note_on_c, 12, 85, 55
15, 17310, Note_on_c, 12, 85, 0
15, 17310, Note_on_c, 12, 83, 55
15, 17325, Note_on_c, 12, 83, 0
15, 17325, Note_on_c, 12, 85, 55
15, 17340, Note_on_c, 12, 85, 0
15, 17340, Note_on_c, 12, 81, 55
15, 17400, Note_on_c, 12, 81, 0
15, 17460, Note_on_c, 12, 81, 55
15, 17505, Note_on_c, 12, 81, 0
15, 17520, Note_on_c, 12, 86, 55
15, 17580, Note_on_c, 12, 86, 0
15, 17580, Note_on_c, 12, 85, 55
15, 17640, Note_on_c, 12, 85, 0
15, 17640, Note_on_c, 12, 83, 55
15, 17700, Note_on_c, 12, 83, 0
15, 17700, Note_on_c, 12, 81, 55
15, 17760, Note_on_c, 12, 81, 0
15, 17760, Note_on_c, 12, 83, 55
15, 17775, Note_on_c, 12, 83, 0
15, 17775, Note_on_c, 12, 85, 55
15, 17790, Note_on_c, 12, 85, 0
15, 17790, Note_on_c, 12, 83, 55
15, 17805, Note_on_c, 12, 83, 0
15, 17805, Note_on_c, 12, 85, 55
15, 17820, Note_on_c, 12, 85, 0
15, 17820, Note_on_c, 12, 81, 55
15, 17880, Note_on_c, 12, 81, 0
15, 17940, Note_on_c, 12, 81, 55
15, 17970, Note_on_c, 12, 81, 0
15, 18000, Note_on_c, 12, 81, 55
15, 18030, Note_on_c, 12, 81, 0
15, 18060, Note_on_c, 12, 81, 55
15, 18090, Note_on_c, 12, 81, 0
15, 18120, Note_on_c, 12, 81, 55
15, 18150, Note_on_c, 12, 81, 0
15, 18180, Note_on_c, 12, 81, 53
15, 18210, Note_on_c, 12, 81, 0
15, 18240, Note_on_c, 12, 83, 49
15, 18255, Note_on_c, 12, 83, 0
15, 18255, Note_on_c, 12, 85, 49
15, 18270, Note_on_c, 12, 85, 0
15, 18270, Note_on_c, 12, 83, 47
15, 18285, Note_on_c, 12, 83, 0
15, 18285, Note_on_c, 12, 85, 47
15, 18300, Note_on_c, 12, 85, 0
15, 18300, Note_on_c, 12, 81, 46
15, 18360, Note_on_c, 12, 81, 0
15, 18480, Note_on_c, 12, 71, 91
15, 18480, Note_on_c, 12, 83, 91
15, 18650, Note_on_c, 12, 83, 0
15, 18650, Note_on_c, 12, 71, 0
15, 18660, Note_on_c, 12, 81, 89
15, 18680, Note_on_c, 12, 81, 0
15, 18680, Note_on_c, 12, 79, 92
15, 18700, Note_on_c, 12, 79, 0
15, 18700, Note_on_c, 12, 78, 94
15, 18720, Note_on_c, 12, 78, 0
15, 18720, Note_on_c, 12, 79, 97
15, 18840, Note_on_c, 12, 79, 0
15, 18960, Note_on_c, 12, 81, 85
15, 18960, Note_on_c, 12, 69, 85
15, 19130, Note_on_c, 12, 69, 0
15, 19130, Note_on_c, 12, 81, 0
15, 19140, Note_on_c, 12, 79, 86
15, 19160, Note_on_c, 12, 79, 0
15, 19160, Note_on_c, 12, 78, 86
15, 19180, Note_on_c, 12, 78, 0
15, 19180, Note_on_c, 12, 76, 89
15, 19200, Note_on_c, 12, 76, 0
15, 19200, Note_on_c, 12, 78, 92
15, 19320, Note_on_c, 12, 78, 0
15, 19440, Note_on_c, 12, 83, 85
15, 19500, Note_on_c, 12, 83, 0
15, 19500, Note_on_c, 12, 85, 85
15, 19530, Note_on_c, 12, 85, 0
15, 19530, Note_on_c, 12, 86, 89
15, 19560, Note_on_c, 12, 86, 0
15, 19560, Note_on_c, 12, 85, 94
15, 19605, Note_on_c, 12, 85, 0
15, 19620, Note_on_c, 12, 83, 95
15, 19650, Note_on_c, 12, 83, 0
15, 19680, Note_on_c, 12, 83, 97
15, 19740, Note_on_c, 12, 83, 0
15, 19740, Note_on_c, 12, 81, 101
15, 19785, Note_on_c, 12, 81, 0
15, 19800, Note_on_c, 12, 78, 104
15, 19830, Note_on_c, 12, 78, 0
15, 19860, Note_on_c, 12, 81, 104
15, 19890, Note_on_c, 12, 81, 0
15, 19920, Note_on_c, 12, 81, 104
15, 19980, Note_on_c, 12, 81, 0
15, 19980, Note_on_c, 12, 79, 103
15, 20025, Note_on_c, 12, 79, 0
15, 20040, Note_on_c, 12, 78, 98
15, 20070, Note_on_c, 12, 78, 0
15, 20100, Note_on_c, 12, 76, 89
15, 20130, Note_on_c, 12, 76, 0
15, 20160, Note_on_c, 12, 74, 85
15, 20280, Note_on_c, 12, 74, 0
15, 20340, Note_on_c, 12, 81, 53
15, 20370, Note_on_c, 12, 81, 0
15, 20400, Note_on_c, 12, 86, 53
15, 20460, Note_on_c, 12, 86, 0
15, 20460, Note_on_c, 12, 85, 53
15, 20520, Note_on_c, 12, 85, 0
15, 20520, Note_on_c, 12, 83, 53
15, 20580, Note_on_c, 12, 83, 0
15, 20580, Note_on_c, 12, 81, 53
15, 20640, Note_on_c, 12, 81, 0
15, 20640, Note_on_c, 12, 83, 55
15, 20655, Note_on_c, 12, 83, 0
15, 20655, Note_on_c, 12, 85, 55
15, 20670, Note_on_c, 12, 85, 0
15, 20670, Note_on_c, 12, 83, 55
15, 20685, Note_on_c, 12, 83, 0
15, 20685, Note_on_c, 12, 85, 55
15, 20700, Note_on_c, 12, 85, 0
15, 20700, Note_on_c, 12, 81, 55
15, 20760, Note_on_c, 12, 81, 0
15, 20820, Note_on_c, 12, 81, 55
15, 20850, Note_on_c, 12, 81, 0
15, 20880, Note_on_c, 12, 81, 55
15, 20910, Note_on_c, 12, 81, 0
15, 20940, Note_on_c, 12, 81, 55
15, 20970, Note_on_c, 12, 81, 0
15, 21000, Note_on_c, 12, 81, 55
15, 21030, Note_on_c, 12, 81, 0
15, 21060, Note_on_c, 12, 81, 55
15, 21090, Note_on_c, 12, 81, 0
15, 21120, Note_on_c, 12, 83, 55
15, 21135, Note_on_c, 12, 83, 0
15, 21135, Note_on_c, 12, 85, 55
15, 21150, Note_on_c, 12, 85, 0
15, 21150, Note_on_c, 12, 83, 55
15, 21165, Note_on_c, 12, 83, 0
15, 21165, Note_on_c, 12, 85, 55
15, 21180, Note_on_c, 12, 85, 0
15, 21180, Note_on_c, 12, 81, 55
15, 21240, Note_on_c, 12, 81, 0
15, 21300, Note_on_c, 12, 81, 55
15, 21345, Note_on_c, 12, 81, 0
15, 21360, Note_on_c, 12, 86, 55
15, 21420, Note_on_c, 12, 86, 0
15, 21420, Note_on_c, 12, 85, 55
15, 21480, Note_on_c, 12, 85, 0
15, 21480, Note_on_c, 12, 83, 55
15, 21540, Note_on_c, 12, 83, 0
15, 21540, Note_on_c, 12, 81, 55
15, 21600, Note_on_c, 12, 81, 0
15, 21600, Note_on_c, 12, 83, 55
15, 21615, Note_on_c, 12, 83, 0
15, 21615, Note_on_c, 12, 85, 55
15, 21630, Note_on_c, 12, 85, 0
15, 21630, Note_on_c, 12, 83, 55
15, 21645, Note_on_c, 12, 83, 0
15, 21645, Note_on_c, 12, 85, 55
15, 21660, Note_on_c, 12, 85, 0
15, 21660, Note_on_c, 12, 81, 55
15, 21720, Note_on_c, 12, 81, 0
15, 21780, Note_on_c, 12, 81, 55
15, 21810, Note_on_c, 12, 81, 0
15, 21840, Note_on_c, 12, 81, 55
15, 21870, Note_on_c, 12, 81, 0
15, 21900, Note_on_c, 12, 81, 55
15, 21930, Note_on_c, 12, 81, 0
15, 21960, Note_on_c, 12, 81, 55
15, 21990, Note_on_c, 12, 81, 0
15, 22020, Note_on_c, 12, 81, 55
15, 22050, Note_on_c, 12, 81, 0
15, 22080, Note_on_c, 12, 83, 59
15, 22095, Note_on_c, 12, 83, 0
15, 22095, Note_on_c, 12, 85, 59
15, 22110, Note_on_c, 12, 85, 0
15, 22110, Note_on_c, 12, 83, 59
15, 22125, Note_on_c, 12, 83, 0
15, 22125, Note_on_c, 12, 85, 59
15, 22140, Note_on_c, 12, 85, 0
15, 22140, Note_on_c, 12, 81, 59
15, 22200, Note_on_c, 12, 81, 0
15, 22320, Note_on_c, 12, 71, 85
15, 22320, Note_on_c, 12, 83, 85
15, 22490, Note_on_c, 12, 83, 0
15, 22490, Note_on_c, 12, 71, 0
15, 22500, Note_on_c, 12, 81, 85
15, 22520, Note_on_c, 12, 81, 0
15, 22520, Note_on_c, 12, 79, 85
15, 22540, Note_on_c, 12, 79, 0
15, 22540, Note_on_c, 12, 78, 85
15, 22560, Note_on_c, 12, 78, 0
15, 22560, Note_on_c, 12, 79, 85
15, 22680, Note_on_c, 12, 79, 0
15, 22800, Note_on_c, 12, 81, 85
15, 22800, Note_on_c, 12, 69, 85
15, 22970, Note_on_c, 12, 69, 0
15, 22970, Note_on_c, 12, 81, 0
15, 22980, Note_on_c, 12, 79, 85
15, 23000, Note_on_c, 12, 79, 0
15, 23000, Note_on_c, 12, 78, 85
15, 23020, Note_on_c, 12, 78, 0
15, 23020, Note_on_c, 12, 76, 85
15, 23040, Note_on_c, 12, 76, 0
15, 23040, Note_on_c, 12, 78, 85
15, 23160, Note_on_c, 12, 78, 0
15, 23280, Note_on_c, 12, 83, 80
15, 23340, Note_on_c, 12, 83, 0
15, 23340, Note_on_c, 12, 85, 82
15, 23370, Note_on_c, 12, 85, 0
15, 23370, Note_on_c, 12, 86, 83
15, 23400, Note_on_c, 12, 86, 0
15, 23400, Note_on_c, 12, 85, 83
15, 23445, Note_on_c, 12, 85, 0
15, 23460, Note_on_c, 12, 83, 85
15, 23490, Note_on_c, 12, 83, 0
15, 23520, Note_on_c, 12, 83, 86
15, 23580, Note_on_c, 12, 83, 0
15, 23580, Note_on_c, 12, 81, 88
15, 23625, Note_on_c, 12, 81, 0
15, 23640, Note_on_c, 12, 78, 88
15, 23670, Note_on_c, 12, 78, 0
15, 23700, Note_on_c, 12, 81, 88
15, 23730, Note_on_c, 12, 81, 0
15, 23760, Note_on_c, 12, 81, 88
15, 23820, Note_on_c, 12, 81, 0
15, 23820, Note_on_c, 12, 79, 88
15, 23865, Note_on_c, 12, 79, 0
15, 23880, Note_on_c, 12, 78, 88
15, 23910, Note_on_c, 12, 78, 0
15, 23940, Note_on_c, 12, 76, 88
15, 23970, Note_on_c, 12, 76, 0
15, 24000, Note_on_c, 12, 74, 88
15, 24045, Note_on_c, 12, 74, 0
15, 24060, Note_on_c, 12, 69, 88
15, 24105, Note_on_c, 12, 69, 0
15, 24120, Note_on_c, 12, 71, 88
15, 24165, Note_on_c, 12, 71, 0
15, 24180, Note_on_c, 12, 73, 85
15, 24225, Note_on_c, 12, 73, 0
15, 24240, Note_on_c, 12, 74, 82
15, 24270, Note_on_c, 12, 74, 0
15, 24300, Note_on_c, 12, 74, 85
15, 24330, Note_on_c, 12, 74, 0
15, 24360, Note_on_c, 12, 76, 85
15, 24375, Note_on_c, 12, 76, 0
15, 24375, Note_on_c, 12, 78, 85
15, 24390, Note_on_c, 12, 78, 0
15, 24390, Note_on_c, 12, 76, 85
15, 24405, Note_on_c, 12, 76, 0
15, 24405, Note_on_c, 12, 78, 85
15, 24420, Note_on_c, 12, 78, 0
15, 24420, Note_on_c, 12, 74, 85
15, 24450, Note_on_c, 12, 74, 0
15, 24450, Note_on_c, 12, 76, 85
15, 24480, Note_on_c, 12, 76, 0
15, 24480, Note_on_c, 12, 78, 85
15, 24540, Note_on_c, 12, 78, 0
15, 24540, Note_on_c, 12, 73, 85
15, 24585, Note_on_c, 12, 73, 0
15, 24600, Note_on_c, 12, 74, 85
15, 24645, Note_on_c, 12, 74, 0
15, 24660, Note_on_c, 12, 76, 85
15, 24705, Note_on_c, 12, 76, 0
15, 24720, Note_on_c, 12, 78, 85
15, 24765, Note_on_c, 12, 78, 0
15, 24780, Note_on_c, 12, 78, 85
15, 24825, Note_on_c, 12, 78, 0
15, 24840, Note_on_c, 12, 79, 85
15, 24855, Note_on_c, 12, 79, 0
15, 24855, Note_on_c, 12, 81, 86
15, 24870, Note_on_c, 12, 81, 0
15, 24870, Note_on_c, 12, 79, 88
15, 24885, Note_on_c, 12, 79, 0
15, 24885, Note_on_c, 12, 81, 88
15, 24900, Note_on_c, 12, 81, 0
15, 24900, Note_on_c, 12, 78, 88
15, 24930, Note_on_c, 12, 78, 0
15, 24930, Note_on_c, 12, 79, 88
15, 24960, Note_on_c, 12, 79, 0
15, 24960, Note_on_c, 12, 81, 88
15, 25005, Note_on_c, 12, 81, 0
15, 25020, Note_on_c, 12, 81, 91
15, 25065, Note_on_c, 12, 81, 0
15, 25080, Note_on_c, 12, 82, 92
15, 25095, Note_on_c, 12, 82, 0
15, 25095, Note_on_c, 12, 83, 92
15, 25110, Note_on_c, 12, 83, 0
15, 25110, Note_on_c, 12, 82, 94
15, 25125, Note_on_c, 12, 82, 0
15, 25125, Note_on_c, 12, 83, 94
15, 25140, Note_on_c, 12, 83, 0
15, 25140, Note_on_c, 12, 80, 95
15, 25170, Note_on_c, 12, 80, 0
15, 25170, Note_on_c, 12, 82, 97
15, 25200, Note_on_c, 12, 82, 0
15, 25200, Note_on_c, 12, 83, 100
15, 25320, Note_on_c, 12, 83, 0
15, 25440, Note_on_c, 12, 71, 47
15, 25620, Note_on_c, 12, 71, 0
15, 25620, Note_on_c, 12, 76, 47
15, 25665, Note_on_c, 12, 76, 0
15, 25680, Note_on_c, 12, 74, 47
15, 25740, Note_on_c, 12, 74, 0
15, 25740, Note_on_c, 12, 73, 47
15, 25800, Note_on_c, 12, 73, 0
15, 25800, Note_on_c, 12, 71, 49
15, 25860, Note_on_c, 12, 71, 0
15, 25860, Note_on_c, 12, 69, 50
15, 25920, Note_on_c, 12, 69, 0
15, 25920, Note_on_c, 12, 74, 50
15, 25980, Note_on_c, 12, 74, 0
15, 26040, Note_on_c, 12, 78, 50
15, 26100, Note_on_c, 12, 78, 0
15, 26160, Note_on_c, 12, 74, 41
15, 26220, Note_on_c, 12, 74, 0
15, 26400, Note_on_c, 12, 62, 85
15, 26400, Note_on_c, 12, 79, 85
15, 26400, Note_on_c, 12, 71, 85
15, 26520, Note_on_c, 12, 71, 0
15, 26520, Note_on_c, 12, 79, 0
15, 26520, Note_on_c, 12, 62, 0
15, 26580, Note_on_c, 12, 74, 85
15, 26610, Note_on_c, 12, 74, 0
15, 26640, Note_on_c, 12, 79, 85
15, 26760, Note_on_c, 12, 79, 0
15, 26820, Note_on_c, 12, 74, 85
15, 26850, Note_on_c, 12, 74, 0
15, 26880, Note_on_c, 12, 79, 85
15, 26910, Note_on_c, 12, 79, 0
15, 26940, Note_on_c, 12, 74, 85
15, 26970, Note_on_c, 12, 74, 0
15, 27000, Note_on_c, 12, 79, 85
15, 27030, Note_on_c, 12, 79, 0
15, 27060, Note_on_c, 12, 83, 85
15, 27090, Note_on_c, 12, 83, 0
15, 27120, Note_on_c, 12, 86, 85
15, 27240, Note_on_c, 12, 86, 0
15, 27360, Note_on_c, 12, 84, 85
15, 27480, Note_on_c, 12, 84, 0
15, 27540, Note_on_c, 12, 81, 76
15, 27570, Note_on_c, 12, 81, 0
15, 27600, Note_on_c, 12, 84, 85
15, 27720, Note_on_c, 12, 84, 0
15, 27780, Note_on_c, 12, 81, 76
15, 27810, Note_on_c, 12, 81, 0
15, 27840, Note_on_c, 12, 84, 85
15, 27870, Note_on_c, 12, 84, 0
15, 27900, Note_on_c, 12, 81, 74
15, 27930, Note_on_c, 12, 81, 0
15, 27960, Note_on_c, 12, 78, 85
15, 27990, Note_on_c, 12, 78, 0
15, 28020, Note_on_c, 12, 81, 71
15, 28050, Note_on_c, 12, 81, 0
15, 28080, Note_on_c, 12, 74, 85
15, 28200, Note_on_c, 12, 74, 0
15, 28320, Note_on_c, 12, 62, 85
15, 28320, Note_on_c, 12, 79, 85
15, 28320, Note_on_c, 12, 71, 85
15, 28380, Note_on_c, 12, 71, 0
15, 28380, Note_on_c, 12, 79, 0
15, 28380, Note_on_c, 12, 62, 0
15, 28440, Note_on_c, 12, 79, 85
15, 28620, Note_on_c, 12, 79, 0
15, 28620, Note_on_c, 12, 83, 85
15, 28680, Note_on_c, 12, 83, 0
15, 28680, Note_on_c, 12, 81, 85
15, 28710, Note_on_c, 12, 81, 0
15, 28740, Note_on_c, 12, 79, 85
15, 28770, Note_on_c, 12, 79, 0
15, 28800, Note_on_c, 12, 79, 85
15, 28815, Note_on_c, 12, 79, 0
15, 28815, Note_on_c, 12, 81, 85
15, 28830, Note_on_c, 12, 81, 0
15, 28830, Note_on_c, 12, 79, 85
15, 28845, Note_on_c, 12, 79, 0
15, 28845, Note_on_c, 12, 81, 85
15, 28860, Note_on_c, 12, 81, 0
15, 28860, Note_on_c, 12, 78, 85
15, 28910, Note_on_c, 12, 78, 0
15, 28920, Note_on_c, 12, 78, 85
15, 29100, Note_on_c, 12, 78, 0
15, 29100, Note_on_c, 12, 81, 85
15, 29160, Note_on_c, 12, 81, 0
15, 29160, Note_on_c, 12, 84, 85
15, 29190, Note_on_c, 12, 84, 0
15, 29220, Note_on_c, 12, 78, 85
15, 29250, Note_on_c, 12, 78, 0
15, 29280, Note_on_c, 12, 81, 85
15, 29340, Note_on_c, 12, 81, 0
15, 29340, Note_on_c, 12, 79, 85
15, 29370, Note_on_c, 12, 79, 0
15, 29400, Note_on_c, 12, 79, 85
15, 29580, Note_on_c, 12, 79, 0
15, 29580, Note_on_c, 12, 83, 85
15, 29640, Note_on_c, 12, 83, 0
15, 29640, Note_on_c, 12, 81, 85
15, 29670, Note_on_c, 12, 81, 0
15, 29700, Note_on_c, 12, 79, 85
15, 29730, Note_on_c, 12, 79, 0
15, 29760, Note_on_c, 12, 79, 85
15, 29775, Note_on_c, 12, 79, 0
15, 29775, Note_on_c, 12, 81, 85
15, 29790, Note_on_c, 12, 81, 0
15, 29790, Note_on_c, 12, 79, 85
15, 29805, Note_on_c, 12, 79, 0
15, 29805, Note_on_c, 12, 81, 85
15, 29820, Note_on_c, 12, 81, 0
15, 29820, Note_on_c, 12, 78, 85
15, 29870, Note_on_c, 12, 78, 0
15, 29880, Note_on_c, 12, 78, 85
15, 30060, Note_on_c, 12, 78, 0
15, 30060, Note_on_c, 12, 81, 85
15, 30120, Note_on_c, 12, 81, 0
15, 30120, Note_on_c, 12, 84, 85
15, 30150, Note_on_c, 12, 84, 0
15, 30180, Note_on_c, 12, 78, 85
15, 30210, Note_on_c, 12, 78, 0
15, 30240, Note_on_c, 12, 79, 85
15, 30270, Note_on_c, 12, 79, 0
15, 30300, Note_on_c, 12, 79, 85
15, 30330, Note_on_c, 12, 79, 0
15, 30360, Note_on_c, 12, 79, 85
15, 30390, Note_on_c, 12, 79, 0
15, 30390, Note_on_c, 12, 78, 85
15, 30420, Note_on_c, 12, 78, 0
15, 30420, Note_on_c, 12, 76, 85
15, 30450, Note_on_c, 12, 76, 0
15, 30450, Note_on_c, 12, 78, 85
15, 30480, Note_on_c, 12, 78, 0
15, 30480, Note_on_c, 12, 79, 85
15, 30510, Note_on_c, 12, 79, 0
15, 30540, Note_on_c, 12, 79, 85
15, 30570, Note_on_c, 12, 79, 0
15, 30600, Note_on_c, 12, 83, 85
15, 30630, Note_on_c, 12, 83, 0
15, 30630, Note_on_c, 12, 81, 85
15, 30660, Note_on_c, 12, 81, 0
15, 30660, Note_on_c, 12, 79, 85
15, 30690, Note_on_c, 12, 79, 0
15, 30690, Note_on_c, 12, 81, 85
15, 30720, Note_on_c, 12, 81, 0
15, 30720, Note_on_c, 12, 83, 85
15, 30750, Note_on_c, 12, 83, 0
15, 30780, Note_on_c, 12, 83, 85
15, 30810, Note_on_c, 12, 83, 0
15, 30840, Note_on_c, 12, 86, 85
15, 30870, Note_on_c, 12, 86, 0
15, 30870, Note_on_c, 12, 84, 85
15, 30900, Note_on_c, 12, 84, 0
15, 30900, Note_on_c, 12, 83, 85
15, 30930, Note_on_c, 12, 83, 0
15, 30930, Note_on_c, 12, 84, 85
15, 30960, Note_on_c, 12, 84, 0
15, 30960, Note_on_c, 12, 86, 85
15, 31080, Note_on_c, 12, 86, 0
15, 31200, Note_on_c, 12, 74, 52
15, 31440, Note_on_c, 12, 74, 0
15, 31440, Note_on_c, 12, 76, 40
15, 31680, Note_on_c, 12, 76, 0
15, 31680, Note_on_c, 12, 74, 44
15, 31710, Note_on_c, 12, 74, 0
15, 31710, Note_on_c, 12, 72, 46
15, 31790, Note_on_c, 12, 72, 0
15, 31800, Note_on_c, 12, 72, 46
15, 31920, Note_on_c, 12, 72, 0
15, 31920, Note_on_c, 12, 72, 47
15, 31950, Note_on_c, 12, 72, 0
15, 31950, Note_on_c, 12, 71, 47
15, 32030, Note_on_c, 12, 71, 0
15, 32040, Note_on_c, 12, 71, 47
15, 32160, Note_on_c, 12, 71, 0
15, 32160, Note_on_c, 12, 71, 47
15, 32190, Note_on_c, 12, 71, 0
15, 32190, Note_on_c, 12, 69, 47
15, 32270, Note_on_c, 12, 69, 0
15, 32280, Note_on_c, 12, 69, 47
15, 32400, Note_on_c, 12, 69, 0
15, 32400, Note_on_c, 12, 67, 47
15, 32460, Note_on_c, 12, 67, 0
15, 32460, Note_on_c, 12, 66, 47
15, 32490, Note_on_c, 12, 66, 0
15, 32520, Note_on_c, 12, 64, 47
15, 32550, Note_on_c, 12, 64, 0
15, 32580, Note_on_c, 12, 66, 47
15, 32610, Note_on_c, 12, 66, 0
15, 32640, Note_on_c, 12, 67, 47
15, 32700, Note_on_c, 12, 67, 0
15, 32760, Note_on_c, 12, 69, 47
15, 32820, Note_on_c, 12, 69, 0
15, 32880, Note_on_c, 12, 71, 47
15, 32940, Note_on_c, 12, 71, 0
15, 33120, Note_on_c, 12, 74, 54
15, 33360, Note_on_c, 12, 74, 0
15, 33360, Note_on_c, 12, 76, 59
15, 33600, Note_on_c, 12, 76, 0
15, 33600, Note_on_c, 12, 74, 47
15, 33660, Note_on_c, 12, 74, 0
15, 33660, Note_on_c, 12, 72, 47
15, 33690, Note_on_c, 12, 72, 0
15, 33720, Note_on_c, 12, 72, 47
15, 33750, Note_on_c, 12, 72, 0
15, 33780, Note_on_c, 12, 72, 47
15, 33810, Note_on_c, 12, 72, 0
15, 33840, Note_on_c, 12, 72, 47
15, 33900, Note_on_c, 12, 72, 0
15, 33900, Note_on_c, 12, 71, 47
15, 33930, Note_on_c, 12, 71, 0
15, 33960, Note_on_c, 12, 71, 47
15, 33990, Note_on_c, 12, 71, 0
15, 34020, Note_on_c, 12, 71, 47
15, 34050, Note_on_c, 12, 71, 0
15, 34080, Note_on_c, 12, 71, 47
15, 34140, Note_on_c, 12, 71, 0
15, 34140, Note_on_c, 12, 69, 47
15, 34170, Note_on_c, 12, 69, 0
15, 34200, Note_on_c, 12, 69, 47
15, 34245, Note_on_c, 12, 69, 0
15, 34260, Note_on_c, 12, 69, 47
15, 34305, Note_on_c, 12, 69, 0
15, 34320, Note_on_c, 12, 67, 47
15, 34380, Note_on_c, 12, 67, 0
15, 34380, Note_on_c, 12, 66, 47
15, 34440, Note_on_c, 12, 66, 0
15, 34440, Note_on_c, 12, 64, 47
15, 34500, Note_on_c, 12, 64, 0
15, 34500, Note_on_c, 12, 66, 47
15, 34560, Note_on_c, 12, 66, 0
15, 34560, Note_on_c, 12, 55, 95
15, 34560, Note_on_c, 12, 67, 95
15, 34860, Note_on_c, 12, 67, 0
15, 34860, Note_on_c, 12, 55, 0
15, 34860, Note_on_c, 12, 67, 61
15, 34875, Note_on_c, 12, 67, 0
15, 34875, Note_on_c, 12, 69, 61
15, 34890, Note_on_c, 12, 69, 0
15, 34890, Note_on_c, 12, 66, 61
15, 34905, Note_on_c, 12, 66, 0
15, 34905, Note_on_c, 12, 67, 61
15, 34920, Note_on_c, 12, 67, 0
15, 34920, Note_on_c, 12, 69, 61
15, 34980, Note_on_c, 12, 69, 0
15, 34980, Note_on_c, 12, 66, 61
15, 35040, Note_on_c, 12, 66, 0
15, 35040, Note_on_c, 12, 71, 85
15, 35340, Note_on_c, 12, 71, 0
15, 35340, Note_on_c, 12, 71, 61
15, 35355, Note_on_c, 12, 71, 0
15, 35355, Note_on_c, 12, 72, 61
15, 35370, Note_on_c, 12, 72, 0
15, 35370, Note_on_c, 12, 69, 61
15, 35385, Note_on_c, 12, 69, 0
15, 35385, Note_on_c, 12, 71, 61
15, 35400, Note_on_c, 12, 71, 0
15, 35400, Note_on_c, 12, 72, 61
15, 35460, Note_on_c, 12, 72, 0
15, 35460, Note_on_c, 12, 69, 61
15, 35520, Note_on_c, 12, 69, 0
15, 35520, Note_on_c, 12, 74, 46
15, 35540, Note_on_c, 12, 74, 0
15, 35550, Note_on_c, 12, 74, 46
15, 35570, Note_on_c, 12, 74, 0
15, 35580, Note_on_c, 12, 74, 47
15, 35600, Note_on_c, 12, 74, 0
15, 35610, Note_on_c, 12, 74, 47
15, 35630, Note_on_c, 12, 74, 0
15, 35640, Note_on_c, 12, 74, 49
15, 35660, Note_on_c, 12, 74, 0
15, 35670, Note_on_c, 12, 74, 50
15, 35690, Note_on_c, 12, 74, 0
15, 35700, Note_on_c, 12, 74, 50
15, 35720, Note_on_c, 12, 74, 0
15, 35730, Note_on_c, 12, 74, 52
15, 35750, Note_on_c, 12, 74, 0
15, 35760, Note_on_c, 12, 76, 53
15, 35780, Note_on_c, 12, 76, 0
15, 35790, Note_on_c, 12, 76, 53
15, 35810, Note_on_c, 12, 76, 0
15, 35820, Note_on_c, 12, 76, 55
15, 35840, Note_on_c, 12, 76, 0
15, 35850, Note_on_c, 12, 76, 56
15, 35870, Note_on_c, 12, 76, 0
15, 35880, Note_on_c, 12, 78, 56
15, 35900, Note_on_c, 12, 78, 0
15, 35910, Note_on_c, 12, 78, 58
15, 35930, Note_on_c, 12, 78, 0
15, 35940, Note_on_c, 12, 78, 58
15, 35960, Note_on_c, 12, 78, 0
15, 35970, Note_on_c, 12, 78, 59
15, 35990, Note_on_c, 12, 78, 0
15, 36000, Note_on_c, 12, 79, 61
15, 36020, Note_on_c, 12, 79, 0
15, 36030, Note_on_c, 12, 79, 61
15, 36050, Note_on_c, 12, 79, 0
15, 36060, Note_on_c, 12, 79, 62
15, 36080, Note_on_c, 12, 79, 0
15, 36090, Note_on_c, 12, 79, 64
15, 36110, Note_on_c, 12, 79, 0
15, 36120, Note_on_c, 12, 81, 64
15, 36140, Note_on_c, 12, 81, 0
15, 36150, Note_on_c, 12, 81, 65
15, 36170, Note_on_c, 12, 81, 0
15, 36180, Note_on_c, 12, 81, 67
15, 36200, Note_on_c, 12, 81, 0
15, 36210, Note_on_c, 12, 81, 67
15, 36230, Note_on_c, 12, 81, 0
15, 36240, Note_on_c, 12, 83, 68
15, 36260, Note_on_c, 12, 83, 0
15, 36270, Note_on_c, 12, 83, 68
15, 36290, Note_on_c, 12, 83, 0
15, 36300, Note_on_c, 12, 83, 70
15, 36320, Note_on_c, 12, 83, 0
15, 36330, Note_on_c, 12, 83, 71
15, 36350, Note_on_c, 12, 83, 0
15, 36360, Note_on_c, 12, 85, 71
15, 36380, Note_on_c, 12, 85, 0
15, 36390, Note_on_c, 12, 85, 73
15, 36410, Note_on_c, 12, 85, 0
15, 36420, Note_on_c, 12, 85, 74
15, 36440, Note_on_c, 12, 85, 0
15, 36450, Note_on_c, 12, 85, 74
15, 36470, Note_on_c, 12, 85, 0
15, 36480, Note_on_c, 12, 86, 92
15, 36660, Note_on_c, 12, 86, 0
15, 36660, Note_on_c, 12, 81, 85
15, 36720, Note_on_c, 12, 81, 0
15, 36720, Note_on_c, 12, 85, 85
15, 36810, Note_on_c, 12, 85, 0
15, 36810, Note_on_c, 12, 81, 85
15, 36840, Note_on_c, 12, 81, 0
15, 36840, Note_on_c, 12, 85, 85
15, 36930, Note_on_c, 12, 85, 0
15, 36930, Note_on_c, 12, 81, 85
15, 36960, Note_on_c, 12, 81, 0
15, 36960, Note_on_c, 12, 86, 98
15, 37140, Note_on_c, 12, 86, 0
15, 37140, Note_on_c, 12, 81, 85
15, 37200, Note_on_c, 12, 81, 0
15, 37200, Note_on_c, 12, 85, 85
15, 37290, Note_on_c, 12, 85, 0
15, 37290, Note_on_c, 12, 81, 85
15, 37320, Note_on_c, 12, 81, 0
15, 37320, Note_on_c, 12, 85, 85
15, 37410, Note_on_c, 12, 85, 0
15, 37410, Note_on_c, 12, 81, 85
15, 37440, Note_on_c, 12, 81, 0
15, 37440, Note_on_c, 12, 86, 85
15, 37470, Note_on_c, 12, 86, 0
15, 37500, Note_on_c, 12, 78, 98
15, 37500, Note_on_c, 12, 86, 98
15, 37590, Note_on_c, 12, 86, 0
15, 37590, Note_on_c, 12, 78, 0
15, 37620, Note_on_c, 12, 78, 85
15, 37620, Note_on_c, 12, 86, 85
15, 37710, Note_on_c, 12, 86, 0
15, 37710, Note_on_c, 12, 78, 0
15, 37740, Note_on_c, 12, 78, 85
15, 37740, Note_on_c, 12, 86, 85
15, 37830, Note_on_c, 12, 86, 0
15, 37830, Note_on_c, 12, 78, 0
15, 37860, Note_on_c, 12, 78, 85
15, 37860, Note_on_c, 12, 86, 85
15, 37920, Note_on_c, 12, 78, 0
15, 37920, Note_on_c, 12, 76, 85
15, 37950, Note_on_c, 12, 76, 0
15, 37950, Note_on_c, 12, 86, 0
15, 37980, Note_on_c, 12, 76, 85
15, 37980, Note_on_c, 12, 86, 85
15, 38070, Note_on_c, 12, 86, 0
15, 38070, Note_on_c, 12, 76, 0
15, 38100, Note_on_c, 12, 76, 85
15, 38100, Note_on_c, 12, 86, 85
15, 38190, Note_on_c, 12, 86, 0
15, 38190, Note_on_c, 12, 76, 0
15, 38220, Note_on_c, 12, 76, 85
15, 38220, Note_on_c, 12, 86, 85
15, 38310, Note_on_c, 12, 86, 0
15, 38310, Note_on_c, 12, 76, 0
15, 38340, Note_on_c, 12, 76, 85
15, 38340, Note_on_c, 12, 86, 85
15, 38400, Note_on_c, 12, 86, 0
15, 38400, Note_on_c, 12, 76, 0
15, 38400, Note_on_c, 12, 76, 97
15, 38400, Note_on_c, 12, 85, 97
15, 38445, Note_on_c, 12, 85, 0
15, 38445, Note_on_c, 12, 76, 0
15, 38460, Note_on_c, 12, 81, 85
15, 38505, Note_on_c, 12, 81, 0
15, 38520, Note_on_c, 12, 86, 85
15, 38565, Note_on_c, 12, 86, 0
15, 38580, Note_on_c, 12, 81, 85
15, 38625, Note_on_c, 12, 81, 0
15, 38640, Note_on_c, 12, 85, 85
15, 38685, Note_on_c, 12, 85, 0
15, 38700, Note_on_c, 12, 81, 85
15, 38745, Note_on_c, 12, 81, 0
15, 38760, Note_on_c, 12, 86, 85
15, 38805, Note_on_c, 12, 86, 0
15, 38820, Note_on_c, 12, 81, 85
15, 38865, Note_on_c, 12, 81, 0
15, 38880, Note_on_c, 12, 85, 97
15, 38925, Note_on_c, 12, 85, 0
15, 38940, Note_on_c, 12, 69, 85
15, 38985, Note_on_c, 12, 69, 0
15, 39000, Note_on_c, 12, 69, 85
15, 39045, Note_on_c, 12, 69, 0
15, 39060, Note_on_c, 12, 69, 85
15, 39105, Note_on_c, 12, 69, 0
15, 39120, Note_on_c, 12, 69, 85
15, 39240, Note_on_c, 12, 69, 0
15, 39360, Note_on_c, 12, 81, 55
15, 39540, Note_on_c, 12, 81, 0
15, 39540, Note_on_c, 12, 79, 55
15, 39560, Note_on_c, 12, 79, 0
15, 39560, Note_on_c, 12, 78, 55
15, 39580, Note_on_c, 12, 78, 0
15, 39580, Note_on_c, 12, 76, 55
15, 39600, Note_on_c, 12, 76, 0
15, 39600, Note_on_c, 12, 74, 55
15, 39660, Note_on_c, 12, 74, 0
15, 39720, Note_on_c, 12, 83, 55
15, 39780, Note_on_c, 12, 83, 0
15, 39840, Note_on_c, 12, 79, 55
15, 39900, Note_on_c, 12, 79, 0
15, 39960, Note_on_c, 12, 76, 55
15, 40020, Note_on_c, 12, 76, 0
15, 40080, Note_on_c, 12, 81, 55
15, 40140, Note_on_c, 12, 81, 0
15, 40320, Note_on_c, 12, 78, 55
15, 40500, Note_on_c, 12, 78, 0
15, 40500, Note_on_c, 12, 76, 55
15, 40520, Note_on_c, 12, 76, 0
15, 40520, Note_on_c, 12, 74, 55
15, 40540, Note_on_c, 12, 74, 0
15, 40540, Note_on_c, 12, 73, 55
15, 40560, Note_on_c, 12, 73, 0
15, 40560, Note_on_c, 12, 71, 55
15, 40620, Note_on_c, 12, 71, 0
15, 40680, Note_on_c, 12, 79, 55
15, 40740, Note_on_c, 12, 79, 0
15, 40800, Note_on_c, 12, 78, 55
15, 41040, Note_on_c, 12, 78, 0
15, 41040, Note_on_c, 12, 76, 43
15, 41160, Note_on_c, 12, 76, 0
15, 41340, Note_on_c, 12, 81, 55
15, 41370, Note_on_c, 12, 81, 0
15, 41400, Note_on_c, 12, 81, 55
15, 41430, Note_on_c, 12, 81, 0
15, 41460, Note_on_c, 12, 81, 55
15, 41490, Note_on_c, 12, 81, 0
15, 41520, Note_on_c, 12, 81, 55
15, 41550, Note_on_c, 12, 81, 0
15, 41580, Note_on_c, 12, 81, 55
15, 41610, Note_on_c, 12, 81, 0
15, 41640, Note_on_c, 12, 81, 55
15, 41670, Note_on_c, 12, 81, 0
15, 41700, Note_on_c, 12, 81, 55
15, 41730, Note_on_c, 12, 81, 0
15, 41760, Note_on_c, 12, 81, 55
15, 41790, Note_on_c, 12, 81, 0
15, 41820, Note_on_c, 12, 81, 55
15, 41850, Note_on_c, 12, 81, 0
15, 41880, Note_on_c, 12, 81, 55
15, 41910, Note_on_c, 12, 81, 0
15, 41940, Note_on_c, 12, 81, 55
15, 41970, Note_on_c, 12, 81, 0
15, 42000, Note_on_c, 12, 81, 55
15, 42030, Note_on_c, 12, 81, 0
15, 42060, Note_on_c, 12, 81, 55
15, 42090, Note_on_c, 12, 81, 0
15, 42120, Note_on_c, 12, 83, 55
15, 42150, Note_on_c, 12, 83, 0
15, 42180, Note_on_c, 12, 85, 55
15, 42210, Note_on_c, 12, 85, 0
15, 42240, Note_on_c, 12, 85, 55
15, 42300, Note_on_c, 12, 85, 0
15, 42300, Note_on_c, 12, 86, 55
15, 42360, Note_on_c, 12, 86, 0
15, 42420, Note_on_c, 12, 83, 55
15, 42450, Note_on_c, 12, 83, 0
15, 42480, Note_on_c, 12, 83, 55
15, 42540, Note_on_c, 12, 83, 0
15, 42540, Note_on_c, 12, 81, 55
15, 42600, Note_on_c, 12, 81, 0
15, 42660, Note_on_c, 12, 73, 55
15, 42705, Note_on_c, 12, 73, 0
15, 42720, Note_on_c, 12, 74, 55
15, 42840, Note_on_c, 12, 74, 0
15, 42900, Note_on_c, 12, 81, 55
15, 42930, Note_on_c, 12, 81, 0
15, 42960, Note_on_c, 12, 86, 55
15, 43020, Note_on_c, 12, 86, 0
15, 43020, Note_on_c, 12, 85, 55
15, 43080, Note_on_c, 12, 85, 0
15, 43080, Note_on_c, 12, 83, 55
15, 43140, Note_on_c, 12, 83, 0
15, 43140, Note_on_c, 12, 81, 55
15, 43200, Note_on_c, 12, 81, 0
15, 43200, Note_on_c, 12, 83, 55
15, 43215, Note_on_c, 12, 83, 0
15, 43215, Note_on_c, 12, 85, 55
15, 43230, Note_on_c, 12, 85, 0
15, 43230, Note_on_c, 12, 83, 55
15, 43245, Note_on_c, 12, 83, 0
15, 43245, Note_on_c, 12, 85, 55
15, 43260, Note_on_c, 12, 85, 0
15, 43260, Note_on_c, 12, 81, 55
15, 43320, Note_on_c, 12, 81, 0
15, 43380, Note_on_c, 12, 81, 55
15, 43410, Note_on_c, 12, 81, 0
15, 43440, Note_on_c, 12, 81, 55
15, 43470, Note_on_c, 12, 81, 0
15, 43500, Note_on_c, 12, 81, 55
15, 43530, Note_on_c, 12, 81, 0
15, 43560, Note_on_c, 12, 81, 55
15, 43590, Note_on_c, 12, 81, 0
15, 43620, Note_on_c, 12, 81, 55
15, 43650, Note_on_c, 12, 81, 0
15, 43680, Note_on_c, 12, 83, 55
15, 43695, Note_on_c, 12, 83, 0
15, 43695, Note_on_c, 12, 85, 55
15, 43710, Note_on_c, 12, 85, 0
15, 43710, Note_on_c, 12, 83, 55
15, 43725, Note_on_c, 12, 83, 0
15, 43725, Note_on_c, 12, 85, 55
15, 43740, Note_on_c, 12, 85, 0
15, 43740, Note_on_c, 12, 81, 55
15, 43800, Note_on_c, 12, 81, 0
15, 43860, Note_on_c, 12, 81, 55
15, 43905, Note_on_c, 12, 81, 0
15, 43920, Note_on_c, 12, 86, 55
15, 43980, Note_on_c, 12, 86, 0
15, 43980, Note_on_c, 12, 85, 55
15, 44040, Note_on_c, 12, 85, 0
15, 44040, Note_on_c, 12, 83, 55
15, 44100, Note_on_c, 12, 83, 0
15, 44100, Note_on_c, 12, 81, 55
15, 44160, Note_on_c, 12, 81, 0
15, 44160, Note_on_c, 12, 83, 55
15, 44175, Note_on_c, 12, 83, 0
15, 44175, Note_on_c, 12, 85, 55
15, 44190, Note_on_c, 12, 85, 0
15, 44190, Note_on_c, 12, 83, 55
15, 44205, Note_on_c, 12, 83, 0
15, 44205, Note_on_c, 12, 85, 55
15, 44220, Note_on_c, 12, 85, 0
15, 44220, Note_on_c, 12, 81, 55
15, 44280, Note_on_c, 12, 81, 0
15, 44340, Note_on_c, 12, 81, 55
15, 44370, Note_on_c, 12, 81, 0
15, 44400, Note_on_c, 12, 81, 55
15, 44430, Note_on_c, 12, 81, 0
15, 44460, Note_on_c, 12, 81, 55
15, 44490, Note_on_c, 12, 81, 0
15, 44520, Note_on_c, 12, 81, 55
15, 44550, Note_on_c, 12, 81, 0
15, 44580, Note_on_c, 12, 81, 55
15, 44610, Note_on_c, 12, 81, 0
15, 44640, Note_on_c, 12, 83, 55
15, 44655, Note_on_c, 12, 83, 0
15, 44655, Note_on_c, 12, 85, 55
15, 44670, Note_on_c, 12, 85, 0
15, 44670, Note_on_c, 12, 83, 55
15, 44685, Note_on_c, 12, 83, 0
15, 44685, Note_on_c, 12, 85, 55
15, 44700, Note_on_c, 12, 85, 0
15, 44700, Note_on_c, 12, 81, 55
15, 44760, Note_on_c, 12, 81, 0
15, 44880, Note_on_c, 12, 71, 94
15, 44880, Note_on_c, 12, 83, 94
15, 45050, Note_on_c, 12, 83, 0
15, 45050, Note_on_c, 12, 71, 0
15, 45060, Note_on_c, 12, 81, 83
15, 45080, Note_on_c, 12, 81, 0
15, 45080, Note_on_c, 12, 79, 83
15, 45100, Note_on_c, 12, 79, 0
15, 45100, Note_on_c, 12, 78, 83
15, 45120, Note_on_c, 12, 78, 0
15, 45120, Note_on_c, 12, 79, 83
15, 45240, Note_on_c, 12, 79, 0
15, 45360, Note_on_c, 12, 81, 85
15, 45360, Note_on_c, 12, 69, 85
15, 45530, Note_on_c, 12, 69, 0
15, 45530, Note_on_c, 12, 81, 0
15, 45540, Note_on_c, 12, 79, 85
15, 45560, Note_on_c, 12, 79, 0
15, 45560, Note_on_c, 12, 78, 85
15, 45580, Note_on_c, 12, 78, 0
15, 45580, Note_on_c, 12, 76, 85
15, 45600, Note_on_c, 12, 76, 0
15, 45600, Note_on_c, 12, 78, 85
15, 45720, Note_on_c, 12, 78, 0
15, 45840, Note_on_c, 12, 83, 79
15, 45900, Note_on_c, 12, 83, 0
15, 45900, Note_on_c, 12, 85, 80
15, 45930, Note_on_c, 12, 85, 0
15, 45930, Note_on_c, 12, 86, 82
15, 45960, Note_on_c, 12, 86, 0
15, 45960, Note_on_c, 12, 85, 82
15, 46005, Note_on_c, 12, 85, 0
15, 46020, Note_on_c, 12, 83, 82
15, 46050, Note_on_c, 12, 83, 0
15, 46080, Note_on_c, 12, 83, 83
15, 46140, Note_on_c, 12, 83, 0
15, 46140, Note_on_c, 12, 81, 86
15, 46185, Note_on_c, 12, 81, 0
15, 46200, Note_on_c, 12, 78, 86
15, 46230, Note_on_c, 12, 78, 0
15, 46260, Note_on_c, 12, 81, 88
15, 46290, Note_on_c, 12, 81, 0
15, 46320, Note_on_c, 12, 81, 88
15, 46380, Note_on_c, 12, 81, 0
15, 46380, Note_on_c, 12, 79, 83
15, 46425, Note_on_c, 12, 79, 0
15, 46440, Note_on_c, 12, 78, 79
15, 46470, Note_on_c, 12, 78, 0
15, 46500, Note_on_c, 12, 76, 76
15, 46530, Note_on_c, 12, 76, 0
15, 46560, Note_on_c, 12, 74, 85
15, 46680, Note_on_c, 12, 74, 0
15, 46740, Note_on_c, 12, 81, 53
15, 46770, Note_on_c, 12, 81, 0
15, 46800, Note_on_c, 12, 86, 53
15, 46860, Note_on_c, 12, 86, 0
15, 46860, Note_on_c, 12, 85, 53
15, 46920, Note_on_c, 12, 85, 0
15, 46920, Note_on_c, 12, 83, 53
15, 46980, Note_on_c, 12, 83, 0
15, 46980, Note_on_c, 12, 81, 53
15, 47040, Note_on_c, 12, 81, 0
15, 47040, Note_on_c, 12, 83, 55
15, 47055, Note_on_c, 12, 83, 0
15, 47055, Note_on_c, 12, 85, 55
15, 47070, Note_on_c, 12, 85, 0
15, 47070, Note_on_c, 12, 83, 55
15, 47085, Note_on_c, 12, 83, 0
15, 47085, Note_on_c, 12, 85, 55
15, 47100, Note_on_c, 12, 85, 0
15, 47100, Note_on_c, 12, 81, 55
15, 47160, Note_on_c, 12, 81, 0
15, 47220, Note_on_c, 12, 81, 55
15, 47250, Note_on_c, 12, 81, 0
15, 47280, Note_on_c, 12, 81, 55
15, 47310, Note_on_c, 12, 81, 0
15, 47340, Note_on_c, 12, 81, 55
15, 47370, Note_on_c, 12, 81, 0
15, 47400, Note_on_c, 12, 81, 55
15, 47430, Note_on_c, 12, 81, 0
15, 47460, Note_on_c, 12, 81, 55
15, 47490, Note_on_c, 12, 81, 0
15, 47520, Note_on_c, 12, 83, 55
15, 47535, Note_on_c, 12, 83, 0
15, 47535, Note_on_c, 12, 85, 55
15, 47550, Note_on_c, 12, 85, 0
15, 47550, Note_on_c, 12, 83, 55
15, 47565, Note_on_c, 12, 83, 0
15, 47565, Note_on_c, 12, 85, 55
15, 47580, Note_on_c, 12, 85, 0
15, 47580, Note_on_c, 12, 81, 55
15, 47640, Note_on_c, 12, 81, 0
15, 47700, Note_on_c, 12, 81, 55
15, 47745, Note_on_c, 12, 81, 0
15, 47760, Note_on_c, 12, 86, 55
15, 47820, Note_on_c, 12, 86, 0
15, 47820, Note_on_c, 12, 85, 55
15, 47880, Note_on_c, 12, 85, 0
15, 47880, Note_on_c, 12, 83, 55
15, 47940, Note_on_c, 12, 83, 0
15, 47940, Note_on_c, 12, 81, 55
15, 48000, Note_on_c, 12, 81, 0
15, 48000, Note_on_c, 12, 83, 55
15, 48015, Note_on_c, 12, 83, 0
15, 48015, Note_on_c, 12, 85, 55
15, 48030, Note_on_c, 12, 85, 0
15, 48030, Note_on_c, 12, 83, 55
15, 48045, Note_on_c, 12, 83, 0
15, 48045, Note_on_c, 12, 85, 55
15, 48060, Note_on_c, 12, 85, 0
15, 48060, Note_on_c, 12, 81, 55
15, 48120, Note_on_c, 12, 81, 0
15, 48180, Note_on_c, 12, 81, 55
15, 48210, Note_on_c, 12, 81, 0
15, 48240, Note_on_c, 12, 81, 55
15, 48270, Note_on_c, 12, 81, 0
15, 48300, Note_on_c, 12, 81, 55
15, 48330, Note_on_c, 12, 81, 0
15, 48360, Note_on_c, 12, 81, 55
15, 48390, Note_on_c, 12, 81, 0
15, 48420, Note_on_c, 12, 81, 55
15, 48450, Note_on_c, 12, 81, 0
15, 48480, Note_on_c, 12, 83, 59
15, 48495, Note_on_c, 12, 83, 0
15, 48495, Note_on_c, 12, 85, 59
15, 48510, Note_on_c, 12, 85, 0
15, 48510, Note_on_c, 12, 83, 59
15, 48525, Note_on_c, 12, 83, 0
15, 48525, Note_on_c, 12, 85, 59
15, 48540, Note_on_c, 12, 85, 0
15, 48540, Note_on_c, 12, 81, 59
15, 48600, Note_on_c, 12, 81, 0
15, 48720, Note_on_c, 12, 71, 85
15, 48720, Note_on_c, 12, 83, 85
15, 48890, Note_on_c, 12, 83, 0
15, 48890, Note_on_c, 12, 71, 0
15, 48900, Note_on_c, 12, 81, 85
15, 48920, Note_on_c, 12, 81, 0
15, 48920, Note_on_c, 12, 79, 85
15, 48940, Note_on_c, 12, 79, 0
15, 48940, Note_on_c, 12, 78, 85
15, 48960, Note_on_c, 12, 78, 0
15, 48960, Note_on_c, 12, 79, 85
15, 49080, Note_on_c, 12, 79, 0
15, 49200, Note_on_c, 12, 81, 85
15, 49200, Note_on_c, 12, 69, 85
15, 49370, Note_on_c, 12, 69, 0
15, 49370, Note_on_c, 12, 81, 0
15, 49380, Note_on_c, 12, 79, 85
15, 49400, Note_on_c, 12, 79, 0
15, 49400, Note_on_c, 12, 78, 85
15, 49420, Note_on_c, 12, 78, 0
15, 49420, Note_on_c, 12, 76, 85
15, 49440, Note_on_c, 12, 76, 0
15, 49440, Note_on_c, 12, 78, 85
15, 49560, Note_on_c, 12, 78, 0
15, 49680, Note_on_c, 12, 83, 85
15, 49740, Note_on_c, 12, 83, 0
15, 49740, Note_on_c, 12, 85, 85
15, 49770, Note_on_c, 12, 85, 0
15, 49770, Note_on_c, 12, 86, 85
15, 49800, Note_on_c, 12, 86, 0
15, 49800, Note_on_c, 12, 85, 85
15, 49845, Note_on_c, 12, 85, 0
15, 49860, Note_on_c, 12, 83, 85
15, 49890, Note_on_c, 12, 83, 0
15, 49920, Note_on_c, 12, 83, 95
15, 49980, Note_on_c, 12, 83, 0
15, 49980, Note_on_c, 12, 81, 85
15, 50025, Note_on_c, 12, 81, 0
15, 50040, Note_on_c, 12, 78, 85
15, 50070, Note_on_c, 12, 78, 0
15, 50100, Note_on_c, 12, 81, 85
15, 50130, Note_on_c, 12, 81, 0
15, 50160, Note_on_c, 12, 81, 85
15, 50220, Note_on_c, 12, 81, 0
15, 50220, Note_on_c, 12, 79, 85
15, 50265, Note_on_c, 12, 79, 0
15, 50280, Note_on_c, 12, 78, 85
15, 50310, Note_on_c, 12, 78, 0
15, 50340, Note_on_c, 12, 76, 85
15, 50370, Note_on_c, 12, 76, 0
15, 50400, Note_on_c, 12, 74, 85
15, 50445, Note_on_c, 12, 74, 0
15, 50460, Note_on_c, 12, 69, 85
15, 50505, Note_on_c, 12, 69, 0
15, 50520, Note_on_c, 12, 71, 85
15, 50565, Note_on_c, 12, 71, 0
15, 50580, Note_on_c, 12, 73, 85
15, 50625, Note_on_c, 12, 73, 0
15, 50640, Note_on_c, 12, 74, 85
15, 50670, Note_on_c, 12, 74, 0
15, 50700, Note_on_c, 12, 74, 85
15, 50730, Note_on_c, 12, 74, 0
15, 50760, Note_on_c, 12, 76, 85
15, 50775, Note_on_c, 12, 76, 0
15, 50775, Note_on_c, 12, 78, 85
15, 50790, Note_on_c, 12, 78, 0
15, 50790, Note_on_c, 12, 76, 85
15, 50805, Note_on_c, 12, 76, 0
15, 50805, Note_on_c, 12, 78, 85
15, 50820, Note_on_c, 12, 78, 0
15, 50820, Note_on_c, 12, 74, 85
15, 50850, Note_on_c, 12, 74, 0
15, 50850, Note_on_c, 12, 76, 85
15, 50880, Note_on_c, 12, 76, 0
15, 50880, Note_on_c, 12, 78, 85
15, 50940, Note_on_c, 12, 78, 0
15, 50940, Note_on_c, 12, 73, 85
15, 50985, Note_on_c, 12, 73, 0
15, 51000, Note_on_c, 12, 74, 85
15, 51045, Note_on_c, 12, 74, 0
15, 51060, Note_on_c, 12, 76, 85
15, 51105, Note_on_c, 12, 76, 0
15, 51120, Note_on_c, 12, 78, 85
15, 51165, Note_on_c, 12, 78, 0
15, 51180, Note_on_c, 12, 78, 85
15, 51225, Note_on_c, 12, 78, 0
15, 51240, Note_on_c, 12, 79, 85
15, 51255, Note_on_c, 12, 79, 0
15, 51255, Note_on_c, 12, 81, 86
15, 51270, Note_on_c, 12, 81, 0
15, 51270, Note_on_c, 12, 79, 86
15, 51285, Note_on_c, 12, 79, 0
15, 51285, Note_on_c, 12, 81, 86
15, 51300, Note_on_c, 12, 81, 0
15, 51300, Note_on_c, 12, 78, 86
15, 51330, Note_on_c, 12, 78, 0
15, 51330, Note_on_c, 12, 79, 88
15, 51360, Note_on_c, 12, 79, 0
15, 51360, Note_on_c, 12, 81, 88
15, 51405, Note_on_c, 12, 81, 0
15, 51420, Note_on_c, 12, 81, 88
15, 51465, Note_on_c, 12, 81, 0
15, 51480, Note_on_c, 12, 82, 89
15, 51495, Note_on_c, 12, 82, 0
15, 51495, Note_on_c, 12, 83, 91
15, 51510, Note_on_c, 12, 83, 0
15, 51510, Note_on_c, 12, 82, 91
15, 51525, Note_on_c, 12, 82, 0
15, 51525, Note_on_c, 12, 83, 91
15, 51540, Note_on_c, 12, 83, 0
15, 51540, Note_on_c, 12, 80, 92
15, 51570, Note_on_c, 12, 80, 0
15, 51570, Note_on_c, 12, 82, 94
15, 51600, Note_on_c, 12, 82, 0
15, 51600, Note_on_c, 12, 83, 98
15, 51720, Note_on_c, 12, 83, 0
15, 51840, Note_on_c, 12, 71, 40
15, 52020, Note_on_c, 12, 71, 0
15, 52020, Note_on_c, 12, 76, 47
15, 52065, Note_on_c, 12, 76, 0
15, 52080, Note_on_c, 12, 74, 49
15, 52140, Note_on_c, 12, 74, 0
15, 52140, Note_on_c, 12, 73, 49
15, 52200, Note_on_c, 12, 73, 0
15, 52200, Note_on_c, 12, 71, 43
15, 52260, Note_on_c, 12, 71, 0
15, 52260, Note_on_c, 12, 69, 41
15, 52320, Note_on_c, 12, 69, 0
15, 52320, Note_on_c, 12, 74, 40
15, 52380, Note_on_c, 12, 74, 0
15, 52440, Note_on_c, 12, 78, 59
15, 52500, Note_on_c, 12, 78, 0
15, 52560, Note_on_c, 12, 74, 57
15, 52620, Note_on_c, 12, 74, 0
15, 52800, Note_on_c, 12, 62, 100
15, 52800, Note_on_c, 12, 74, 100
15, 52920, Note_on_c, 12, 74, 0
15, 52920, Note_on_c, 12, 62, 0
15, 52980, Note_on_c, 12, 69, 91
15, 53025, Note_on_c, 12, 69, 0
15, 53040, Note_on_c, 12, 74, 91
15, 53160, Note_on_c, 12, 74, 0
15, 53220, Note_on_c, 12, 69, 91
15, 53265, Note_on_c, 12, 69, 0
15, 53280, Note_on_c, 12, 74, 91
15, 53325, Note_on_c, 12, 74, 0
15, 53340, Note_on_c, 12, 69, 91
15, 53385, Note_on_c, 12, 69, 0
15, 53400, Note_on_c, 12, 74, 91
15, 53445, Note_on_c, 12, 74, 0
15, 53460, Note_on_c, 12, 78, 91
15, 53505, Note_on_c, 12, 78, 0
15, 53520, Note_on_c, 12, 81, 91
15, 53640, Note_on_c, 12, 81, 0
15, 53760, Note_on_c, 12, 81, 91
15, 53880, Note_on_c, 12, 81, 0
15, 53940, Note_on_c, 12, 78, 91
15, 53985, Note_on_c, 12, 78, 0
15, 54000, Note_on_c, 12, 81, 91
15, 54120, Note_on_c, 12, 81, 0
15, 54180, Note_on_c, 12, 78, 91
15, 54225, Note_on_c, 12, 78, 0
15, 54240, Note_on_c, 12, 81, 91
15, 54285, Note_on_c, 12, 81, 0
15, 54300, Note_on_c, 12, 78, 91
15, 54345, Note_on_c, 12, 78, 0
15, 54360, Note_on_c, 12, 75, 91
15, 54405, Note_on_c, 12, 75, 0
15, 54420, Note_on_c, 12, 78, 91
15, 54465, Note_on_c, 12, 78, 0
15, 54480, Note_on_c, 12, 71, 91
15, 54600, Note_on_c, 12, 71, 0
15, 54900, Note_on_c, 12, 79, 55
15, 54945, Note_on_c, 12, 79, 0
15, 54960, Note_on_c, 12, 84, 55
15, 55020, Note_on_c, 12, 84, 0
15, 55020, Note_on_c, 12, 83, 55
15, 55080, Note_on_c, 12, 83, 0
15, 55080, Note_on_c, 12, 81, 55
15, 55140, Note_on_c, 12, 81, 0
15, 55140, Note_on_c, 12, 79, 55
15, 55200, Note_on_c, 12, 79, 0
15, 55200, Note_on_c, 12, 81, 55
15, 55215, Note_on_c, 12, 81, 0
15, 55215, Note_on_c, 12, 83, 55
15, 55230, Note_on_c, 12, 83, 0
15, 55230, Note_on_c, 12, 81, 55
15, 55245, Note_on_c, 12, 81, 0
15, 55245, Note_on_c, 12, 83, 55
15, 55260, Note_on_c, 12, 83, 0
15, 55260, Note_on_c, 12, 79, 55
15, 55320, Note_on_c, 12, 79, 0
15, 55380, Note_on_c, 12, 79, 55
15, 55410, Note_on_c, 12, 79, 0
15, 55440, Note_on_c, 12, 79, 55
15, 55470, Note_on_c, 12, 79, 0
15, 55500, Note_on_c, 12, 79, 55
15, 55530, Note_on_c, 12, 79, 0
15, 55560, Note_on_c, 12, 79, 55
15, 55590, Note_on_c, 12, 79, 0
15, 55620, Note_on_c, 12, 79, 55
15, 55650, Note_on_c, 12, 79, 0
15, 55680, Note_on_c, 12, 81, 55
15, 55695, Note_on_c, 12, 81, 0
15, 55695, Note_on_c, 12, 83, 55
15, 55710, Note_on_c, 12, 83, 0
15, 55710, Note_on_c, 12, 81, 55
15, 55725, Note_on_c, 12, 81, 0
15, 55725, Note_on_c, 12, 83, 55
15, 55740, Note_on_c, 12, 83, 0
15, 55740, Note_on_c, 12, 79, 55
15, 55800, Note_on_c, 12, 79, 0
15, 55860, Note_on_c, 12, 79, 55
15, 55905, Note_on_c, 12, 79, 0
15, 55920, Note_on_c, 12, 84, 55
15, 55980, Note_on_c, 12, 84, 0
15, 55980, Note_on_c, 12, 83, 55
15, 56040, Note_on_c, 12, 83, 0
15, 56040, Note_on_c, 12, 81, 55
15, 56100, Note_on_c, 12, 81, 0
15, 56100, Note_on_c, 12, 79, 55
15, 56160, Note_on_c, 12, 79, 0
15, 56160, Note_on_c, 12, 81, 55
15, 56175, Note_on_c, 12, 81, 0
15, 56175, Note_on_c, 12, 83, 55
15, 56190, Note_on_c, 12, 83, 0
15, 56190, Note_on_c, 12, 81, 55
15, 56205, Note_on_c, 12, 81, 0
15, 56205, Note_on_c, 12, 83, 55
15, 56220, Note_on_c, 12, 83, 0
15, 56220, Note_on_c, 12, 79, 55
15, 56280, Note_on_c, 12, 79, 0
15, 56340, Note_on_c, 12, 79, 55
15, 56370, Note_on_c, 12, 79, 0
15, 56400, Note_on_c, 12, 79, 55
15, 56430, Note_on_c, 12, 79, 0
15, 56460, Note_on_c, 12, 79, 55
15, 56490, Note_on_c, 12, 79, 0
15, 56520, Note_on_c, 12, 79, 55
15, 56550, Note_on_c, 12, 79, 0
15, 56580, Note_on_c, 12, 79, 55
15, 56610, Note_on_c, 12, 79, 0
15, 56640, Note_on_c, 12, 81, 55
15, 56655, Note_on_c, 12, 81, 0
15, 56655, Note_on_c, 12, 83, 55
15, 56670, Note_on_c, 12, 83, 0
15, 56670, Note_on_c, 12, 81, 55
15, 56685, Note_on_c, 12, 81, 0
15, 56685, Note_on_c, 12, 83, 55
15, 56700, Note_on_c, 12, 83, 0
15, 56700, Note_on_c, 12, 79, 55
15, 56760, Note_on_c, 12, 79, 0
15, 56820, Note_on_c, 12, 79, 55
15, 56865, Note_on_c, 12, 79, 0
15, 56880, Note_on_c, 12, 84, 55
15, 56940, Note_on_c, 12, 84, 0
15, 56940, Note_on_c, 12, 83, 55
15, 57000, Note_on_c, 12, 83, 0
15, 57000, Note_on_c, 12, 81, 55
15, 57060, Note_on_c, 12, 81, 0
15, 57060, Note_on_c, 12, 79, 55
15, 57120, Note_on_c, 12, 79, 0
15, 57120, Note_on_c, 12, 81, 55
15, 57135, Note_on_c, 12, 81, 0
15, 57135, Note_on_c, 12, 83, 55
15, 57150, Note_on_c, 12, 83, 0
15, 57150, Note_on_c, 12, 81, 55
15, 57165, Note_on_c, 12, 81, 0
15, 57165, Note_on_c, 12, 83, 55
15, 57180, Note_on_c, 12, 83, 0
15, 57180, Note_on_c, 12, 80, 55
15, 57240, Note_on_c, 12, 80, 0
15, 57300, Note_on_c, 12, 80, 55
15, 57330, Note_on_c, 12, 80, 0
15, 57360, Note_on_c, 12, 80, 55
15, 57390, Note_on_c, 12, 80, 0
15, 57420, Note_on_c, 12, 80, 55
15, 57450, Note_on_c, 12, 80, 0
15, 57480, Note_on_c, 12, 80, 55
15, 57510, Note_on_c, 12, 80, 0
15, 57540, Note_on_c, 12, 80, 55
15, 57570, Note_on_c, 12, 80, 0
15, 57600, Note_on_c, 12, 83, 55
15, 57615, Note_on_c, 12, 83, 0
15, 57615, Note_on_c, 12, 84, 55
15, 57630, Note_on_c, 12, 84, 0
15, 57630, Note_on_c, 12, 83, 55
15, 57645, Note_on_c, 12, 83, 0
15, 57645, Note_on_c, 12, 84, 55
15, 57660, Note_on_c, 12, 84, 0
15, 57660, Note_on_c, 12, 81, 55
15, 57720, Note_on_c, 12, 81, 0
15, 57780, Note_on_c, 12, 81, 55
15, 57825, Note_on_c, 12, 81, 0
15, 57840, Note_on_c, 12, 84, 55
15, 57900, Note_on_c, 12, 84, 0
15, 57900, Note_on_c, 12, 82, 55
15, 57960, Note_on_c, 12, 82, 0
15, 57960, Note_on_c, 12, 81, 55
15, 58020, Note_on_c, 12, 81, 0
15, 58020, Note_on_c, 12, 79, 55
15, 58080, Note_on_c, 12, 79, 0
15, 58080, Note_on_c, 12, 79, 55
15, 58095, Note_on_c, 12, 79, 0
15, 58095, Note_on_c, 12, 81, 55
15, 58110, Note_on_c, 12, 81, 0
15, 58110, Note_on_c, 12, 79, 55
15, 58125, Note_on_c, 12, 79, 0
15, 58125, Note_on_c, 12, 81, 55
15, 58140, Note_on_c, 12, 81, 0
15, 58140, Note_on_c, 12, 78, 55
15, 58200, Note_on_c, 12, 78, 0
15, 58260, Note_on_c, 12, 78, 55
15, 58290, Note_on_c, 12, 78, 0
15, 58320, Note_on_c, 12, 78, 55
15, 58350, Note_on_c, 12, 78, 0
15, 58380, Note_on_c, 12, 78, 55
15, 58410, Note_on_c, 12, 78, 0
15, 58440, Note_on_c, 12, 78, 55
15, 58470, Note_on_c, 12, 78, 0
15, 58500, Note_on_c, 12, 78, 55
15, 58530, Note_on_c, 12, 78, 0
15, 58560, Note_on_c, 12, 81, 55
15, 58575, Note_on_c, 12, 81, 0
15, 58575, Note_on_c, 12, 82, 55
15, 58590, Note_on_c, 12, 82, 0
15, 58590, Note_on_c, 12, 81, 55
15, 58605, Note_on_c, 12, 81, 0
15, 58605, Note_on_c, 12, 82, 55
15, 58620, Note_on_c, 12, 82, 0
15, 58620, Note_on_c, 12, 79, 55
15, 58680, Note_on_c, 12, 79, 0
15, 58740, Note_on_c, 12, 75, 55
15, 58785, Note_on_c, 12, 75, 0
15, 58800, Note_on_c, 12, 79, 55
15, 58860, Note_on_c, 12, 79, 0
15, 58860, Note_on_c, 12, 77, 55
15, 58920, Note_on_c, 12, 77, 0
15, 58920, Note_on_c, 12, 76, 55
15, 58980, Note_on_c, 12, 76, 0
15, 58980, Note_on_c, 12, 74, 55
15, 59040, Note_on_c, 12, 74, 0
15, 59040, Note_on_c, 12, 74, 55
15, 59055, Note_on_c, 12, 74, 0
15, 59055, Note_on_c, 12, 75, 55
15, 59070, Note_on_c, 12, 75, 0
15, 59070, Note_on_c, 12, 74, 55
15, 59085, Note_on_c, 12, 74, 0
15, 59085, Note_on_c, 12, 75, 55
15, 59100, Note_on_c, 12, 75, 0
15, 59100, Note_on_c, 12, 73, 55
15, 59160, Note_on_c, 12, 73, 0
15, 59220, Note_on_c, 12, 73, 55
15, 59250, Note_on_c, 12, 73, 0
15, 59280, Note_on_c, 12, 73, 55
15, 59310, Note_on_c, 12, 73, 0
15, 59340, Note_on_c, 12, 73, 55
15, 59370, Note_on_c, 12, 73, 0
15, 59400, Note_on_c, 12, 73, 55
15, 59430, Note_on_c, 12, 73, 0
15, 59460, Note_on_c, 12, 73, 55
15, 59490, Note_on_c, 12, 73, 0
15, 59520, Note_on_c, 12, 76, 53
15, 59535, Note_on_c, 12, 76, 0
15, 59535, Note_on_c, 12, 78, 53
15, 59550, Note_on_c, 12, 78, 0
15, 59550, Note_on_c, 12, 76, 53
15, 59565, Note_on_c, 12, 76, 0
15, 59565, Note_on_c, 12, 78, 53
15, 59580, Note_on_c, 12, 78, 0
15, 59580, Note_on_c, 12, 74, 53
15, 59640, Note_on_c, 12, 74, 0
15, 59700, Note_on_c, 12, 62, 91
15, 59760, Note_on_c, 12, 62, 0
15, 59760, Note_on_c, 12, 64, 91
15, 59820, Note_on_c, 12, 64, 0
15, 59820, Note_on_c, 12, 66, 91
15, 59880, Note_on_c, 12, 66, 0
15, 59880, Note_on_c, 12, 67, 91
15, 59940, Note_on_c, 12, 67, 0
15, 59940, Note_on_c, 12, 69, 91
15, 60000, Note_on_c, 12, 69, 0
15, 60000, Note_on_c, 12, 72, 91
15, 60060, Note_on_c, 12, 72, 0
15, 60060, Note_on_c, 12, 70, 91
15, 60120, Note_on_c, 12, 70, 0
15, 60180, Note_on_c, 12, 66, 91
15, 60240, Note_on_c, 12, 66, 0
15, 60240, Note_on_c, 12, 67, 91
15, 60300, Note_on_c, 12, 67, 0
15, 60300, Note_on_c, 12, 69, 91
15, 60360, Note_on_c, 12, 69, 0
15, 60360, Note_on_c, 12, 70, 91
15, 60420, Note_on_c, 12, 70, 0
15, 60420, Note_on_c, 12, 73, 91
15, 60480, Note_on_c, 12, 73, 0
15, 60480, Note_on_c, 12, 76, 91
15, 60540, Note_on_c, 12, 76, 0
15, 60540, Note_on_c, 12, 74, 91
15, 60600, Note_on_c, 12, 74, 0
15, 60660, Note_on_c, 12, 74, 53
15, 60720, Note_on_c, 12, 74, 0
15, 60720, Note_on_c, 12, 76, 53
15, 60780, Note_on_c, 12, 76, 0
15, 60780, Note_on_c, 12, 78, 53
15, 60840, Note_on_c, 12, 78, 0
15, 60840, Note_on_c, 12, 79, 53
15, 60900, Note_on_c, 12, 79, 0
15, 60900, Note_on_c, 12, 81, 52
15, 60960, Note_on_c, 12, 81, 0
15, 60960, Note_on_c, 12, 82, 50
15, 61080, Note_on_c, 12, 82, 0
15, 61080, Note_on_c, 12, 83, 46
15, 61200, Note_on_c, 12, 83, 0
15, 61200, Note_on_c, 12, 84, 43
15, 61320, Note_on_c, 12, 84, 0
15, 61320, Note_on_c, 12, 85, 40
15, 61440, Note_on_c, 12, 85, 0
15, 61440, Note_on_c, 12, 86, 59
15, 62145, Note_on_c, 12, 86, 0
15, 62160, Note_on_c, 12, 78, 52
15, 62175, Note_on_c, 12, 78, 0
15, 62175, Note_on_c, 12, 79, 53
15, 62190, Note_on_c, 12, 79, 0
15, 62190, Note_on_c, 12, 78, 55
15, 62205, Note_on_c, 12, 78, 0
15, 62205, Note_on_c, 12, 79, 58
15, 62220, Note_on_c, 12, 79, 0
15, 62220, Note_on_c, 12, 78, 59
15, 62235, Note_on_c, 12, 78, 0
15, 62235, Note_on_c, 12, 79, 61
15, 62250, Note_on_c, 12, 79, 0
15, 62250, Note_on_c, 12, 78, 62
15, 62265, Note_on_c, 12, 78, 0
15, 62265, Note_on_c, 12, 79, 65
15, 62280, Note_on_c, 12, 79, 0
15, 62280, Note_on_c, 12, 78, 67
15, 62295, Note_on_c, 12, 78, 0
15, 62295, Note_on_c, 12, 79, 68
15, 62310, Note_on_c, 12, 79, 0
15, 62310, Note_on_c, 12, 78, 70
15, 62325, Note_on_c, 12, 78, 0
15, 62325, Note_on_c, 12, 79, 71
15, 62340, Note_on_c, 12, 79, 0
15, 62340, Note_on_c, 12, 76, 74
15, 62370, Note_on_c, 12, 76, 0
15, 62370, Note_on_c, 12, 78, 77
15, 62400, Note_on_c, 12, 78, 0
15, 62400, Note_on_c, 12, 79, 93
15, 62520, Note_on_c, 12, 79, 0
15, 62580, Note_on_c, 12, 74, 92
15, 62610, Note_on_c, 12, 74, 0
15, 62640, Note_on_c, 12, 79, 92
15, 62760, Note_on_c, 12, 79, 0
15, 62820, Note_on_c, 12, 74, 91
15, 62850, Note_on_c, 12, 74, 0
15, 62880, Note_on_c, 12, 79, 90
15, 62910, Note_on_c, 12, 79, 0
15, 62940, Note_on_c, 12, 74, 90
15, 62970, Note_on_c, 12, 74, 0
15, 63000, Note_on_c, 12, 79, 90
15, 63030, Note_on_c, 12, 79, 0
15, 63060, Note_on_c, 12, 83, 90
15, 63090, Note_on_c, 12, 83, 0
15, 63120, Note_on_c, 12, 86, 89
15, 63240, Note_on_c, 12, 86, 0
15, 63360, Note_on_c, 12, 84, 104
15, 63480, Note_on_c, 12, 84, 0
15, 63540, Note_on_c, 12, 81, 87
15, 63570, Note_on_c, 12, 81, 0
15, 63600, Note_on_c, 12, 84, 86
15, 63720, Note_on_c, 12, 84, 0
15, 63780, Note_on_c, 12, 81, 85
15, 63810, Note_on_c, 12, 81, 0
15, 63840, Note_on_c, 12, 84, 92
15, 63870, Note_on_c, 12, 84, 0
15, 63900, Note_on_c, 12, 81, 85
15, 63930, Note_on_c, 12, 81, 0
15, 63960, Note_on_c, 12, 78, 92
15, 63990, Note_on_c, 12, 78, 0
15, 64020, Note_on_c, 12, 81, 85
15, 64050, Note_on_c, 12, 81, 0
15, 64080, Note_on_c, 12, 74, 94
15, 64200, Note_on_c, 12, 74, 0
15, 64320, Note_on_c, 12, 62, 92
15, 64320, Note_on_c, 12, 79, 92
15, 64320, Note_on_c, 12, 71, 92
15, 64380, Note_on_c, 12, 71, 0
15, 64380, Note_on_c, 12, 79, 0
15, 64380, Note_on_c, 12, 62, 0
15, 64440, Note_on_c, 12, 79, 85
15, 64620, Note_on_c, 12, 79, 0
15, 64620, Note_on_c, 12, 83, 74
15, 64680, Note_on_c, 12, 83, 0
15, 64680, Note_on_c, 12, 81, 74
15, 64710, Note_on_c, 12, 81, 0
15, 64740, Note_on_c, 12, 79, 80
15, 64770, Note_on_c, 12, 79, 0
15, 64800, Note_on_c, 12, 79, 86
15, 64815, Note_on_c, 12, 79, 0
15, 64815, Note_on_c, 12, 81, 86
15, 64830, Note_on_c, 12, 81, 0
15, 64830, Note_on_c, 12, 79, 86
15, 64845, Note_on_c, 12, 79, 0
15, 64845, Note_on_c, 12, 81, 86
15, 64860, Note_on_c, 12, 81, 0
15, 64860, Note_on_c, 12, 78, 83
15, 64910, Note_on_c, 12, 78, 0
15, 64920, Note_on_c, 12, 78, 77
15, 65100, Note_on_c, 12, 78, 0
15, 65100, Note_on_c, 12, 81, 85
15, 65160, Note_on_c, 12, 81, 0
15, 65160, Note_on_c, 12, 84, 85
15, 65190, Note_on_c, 12, 84, 0
15, 65220, Note_on_c, 12, 78, 85
15, 65250, Note_on_c, 12, 78, 0
15, 65280, Note_on_c, 12, 81, 85
15, 65340, Note_on_c, 12, 81, 0
15, 65340, Note_on_c, 12, 79, 85
15, 65370, Note_on_c, 12, 79, 0
15, 65400, Note_on_c, 12, 79, 85
15, 65580, Note_on_c, 12, 79, 0
15, 65580, Note_on_c, 12, 83, 85
15, 65640, Note_on_c, 12, 83, 0
15, 65640, Note_on_c, 12, 81, 85
15, 65670, Note_on_c, 12, 81, 0
15, 65700, Note_on_c, 12, 79, 85
15, 65730, Note_on_c, 12, 79, 0
15, 65760, Note_on_c, 12, 79, 85
15, 65775, Note_on_c, 12, 79, 0
15, 65775, Note_on_c, 12, 81, 85
15, 65790, Note_on_c, 12, 81, 0
15, 65790, Note_on_c, 12, 79, 85
15, 65805, Note_on_c, 12, 79, 0
15, 65805, Note_on_c, 12, 81, 85
15, 65820, Note_on_c, 12, 81, 0
15, 65820, Note_on_c, 12, 78, 85
15, 65870, Note_on_c, 12, 78, 0
15, 65880, Note_on_c, 12, 78, 85
15, 66060, Note_on_c, 12, 78, 0
15, 66060, Note_on_c, 12, 81, 85
15, 66120, Note_on_c, 12, 81, 0
15, 66120, Note_on_c, 12, 84, 85
15, 66150, Note_on_c, 12, 84, 0
15, 66180, Note_on_c, 12, 78, 85
15, 66210, Note_on_c, 12, 78, 0
15, 66240, Note_on_c, 12, 79, 85
15, 66270, Note_on_c, 12, 79, 0
15, 66300, Note_on_c, 12, 79, 85
15, 66330, Note_on_c, 12, 79, 0
15, 66360, Note_on_c, 12, 79, 85
15, 66390, Note_on_c, 12, 79, 0
15, 66390, Note_on_c, 12, 78, 85
15, 66420, Note_on_c, 12, 78, 0
15, 66420, Note_on_c, 12, 76, 85
15, 66450, Note_on_c, 12, 76, 0
15, 66450, Note_on_c, 12, 78, 85
15, 66480, Note_on_c, 12, 78, 0
15, 66480, Note_on_c, 12, 79, 85
15, 66510, Note_on_c, 12, 79, 0
15, 66540, Note_on_c, 12, 79, 85
15, 66570, Note_on_c, 12, 79, 0
15, 66600, Note_on_c, 12, 83, 85
15, 66630, Note_on_c, 12, 83, 0
15, 66630, Note_on_c, 12, 81, 85
15, 66660, Note_on_c, 12, 81, 0
15, 66660, Note_on_c, 12, 79, 85
15, 66690, Note_on_c, 12, 79, 0
15, 66690, Note_on_c, 12, 81, 83
15, 66720, Note_on_c, 12, 81, 0
15, 66720, Note_on_c, 12, 83, 83
15, 66750, Note_on_c, 12, 83, 0
15, 66780, Note_on_c, 12, 83, 83
15, 66810, Note_on_c, 12, 83, 0
15, 66840, Note_on_c, 12, 86, 83
15, 66870, Note_on_c, 12, 86, 0
15, 66870, Note_on_c, 12, 84, 80
15, 66900, Note_on_c, 12, 84, 0
15, 66900, Note_on_c, 12, 83, 79
15, 66930, Note_on_c, 12, 83, 0
15, 66930, Note_on_c, 12, 84, 76
15, 66960, Note_on_c, 12, 84, 0
15, 66960, Note_on_c, 12, 86, 71
15, 67080, Note_on_c, 12, 86, 0
15, 67200, Note_on_c, 12, 74, 56
15, 67440, Note_on_c, 12, 74, 0
15, 67440, Note_on_c, 12, 76, 55
15, 67680, Note_on_c, 12, 76, 0
15, 67680, Note_on_c, 12, 74, 57
15, 67710, Note_on_c, 12, 74, 0
15, 67710, Note_on_c, 12, 72, 59
15, 67790, Note_on_c, 12, 72, 0
15, 67800, Note_on_c, 12, 72, 58
15, 67920, Note_on_c, 12, 72, 0
15, 67920, Note_on_c, 12, 72, 57
15, 67950, Note_on_c, 12, 72, 0
15, 67950, Note_on_c, 12, 71, 55
15, 68030, Note_on_c, 12, 71, 0
15, 68040, Note_on_c, 12, 71, 53
15, 68160, Note_on_c, 12, 71, 0
15, 68160, Note_on_c, 12, 71, 57
15, 68190, Note_on_c, 12, 71, 0
15, 68190, Note_on_c, 12, 69, 56
15, 68270, Note_on_c, 12, 69, 0
15, 68280, Note_on_c, 12, 69, 55
15, 68400, Note_on_c, 12, 69, 0
15, 68400, Note_on_c, 12, 67, 54
15, 68460, Note_on_c, 12, 67, 0
15, 68460, Note_on_c, 12, 66, 55
15, 68490, Note_on_c, 12, 66, 0
15, 68520, Note_on_c, 12, 64, 55
15, 68550, Note_on_c, 12, 64, 0
15, 68580, Note_on_c, 12, 66, 55
15, 68610, Note_on_c, 12, 66, 0
15, 68640, Note_on_c, 12, 67, 56
15, 68700, Note_on_c, 12, 67, 0
15, 68760, Note_on_c, 12, 69, 57
15, 68820, Note_on_c, 12, 69, 0
15, 68880, Note_on_c, 12, 71, 57
15, 68940, Note_on_c, 12, 71, 0
15, 69120, Note_on_c, 12, 74, 56
15, 69360, Note_on_c, 12, 74, 0
15, 69360, Note_on_c, 12, 76, 59
15, 69600, Note_on_c, 12, 76, 0
15, 69600, Note_on_c, 12, 74, 46
15, 69660, Note_on_c, 12, 74, 0
15, 69660, Note_on_c, 12, 72, 51
15, 69690, Note_on_c, 12, 72, 0
15, 69720, Note_on_c, 12, 72, 51
15, 69750, Note_on_c, 12, 72, 0
15, 69780, Note_on_c, 12, 72, 51
15, 69810, Note_on_c, 12, 72, 0
15, 69840, Note_on_c, 12, 72, 51
15, 69900, Note_on_c, 12, 72, 0
15, 69900, Note_on_c, 12, 71, 50
15, 69930, Note_on_c, 12, 71, 0
15, 69960, Note_on_c, 12, 71, 49
15, 69990, Note_on_c, 12, 71, 0
15, 70020, Note_on_c, 12, 71, 49
15, 70050, Note_on_c, 12, 71, 0
15, 70080, Note_on_c, 12, 71, 49
15, 70140, Note_on_c, 12, 71, 0
15, 70140, Note_on_c, 12, 69, 50
15, 70170, Note_on_c, 12, 69, 0
15, 70200, Note_on_c, 12, 69, 52
15, 70245, Note_on_c, 12, 69, 0
15, 70260, Note_on_c, 12, 69, 52
15, 70305, Note_on_c, 12, 69, 0
15, 70320, Note_on_c, 12, 67, 52
15, 70380, Note_on_c, 12, 67, 0
15, 70380, Note_on_c, 12, 66, 54
15, 70440, Note_on_c, 12, 66, 0
15, 70440, Note_on_c, 12, 64, 55
15, 70500, Note_on_c, 12, 64, 0
15, 70500, Note_on_c, 12, 66, 55
15, 70560, Note_on_c, 12, 66, 0
15, 70560, Note_on_c, 12, 55, 85
15, 70560, Note_on_c, 12, 67, 85
15, 70860, Note_on_c, 12, 67, 0
15, 70860, Note_on_c, 12, 55, 0
15, 70860, Note_on_c, 12, 67, 61
15, 70875, Note_on_c, 12, 67, 0
15, 70875, Note_on_c, 12, 69, 61
15, 70890, Note_on_c, 12, 69, 0
15, 70890, Note_on_c, 12, 66, 61
15, 70905, Note_on_c, 12, 66, 0
15, 70905, Note_on_c, 12, 67, 61
15, 70920, Note_on_c, 12, 67, 0
15, 70920, Note_on_c, 12, 69, 61
15, 70980, Note_on_c, 12, 69, 0
15, 70980, Note_on_c, 12, 66, 61
15, 71040, Note_on_c, 12, 66, 0
15, 71040, Note_on_c, 12, 71, 91
15, 71340, Note_on_c, 12, 71, 0
15, 71340, Note_on_c, 12, 71, 61
15, 71355, Note_on_c, 12, 71, 0
15, 71355, Note_on_c, 12, 72, 61
15, 71370, Note_on_c, 12, 72, 0
15, 71370, Note_on_c, 12, 69, 61
15, 71385, Note_on_c, 12, 69, 0
15, 71385, Note_on_c, 12, 71, 61
15, 71400, Note_on_c, 12, 71, 0
15, 71400, Note_on_c, 12, 72, 61
15, 71460, Note_on_c, 12, 72, 0
15, 71460, Note_on_c, 12, 69, 61
15, 71520, Note_on_c, 12, 69, 0
15, 71520, Note_on_c, 12, 74, 51
15, 71540, Note_on_c, 12, 74, 0
15, 71550, Note_on_c, 12, 74, 56
15, 71570, Note_on_c, 12, 74, 0
15, 71580, Note_on_c, 12, 74, 59
15, 71600, Note_on_c, 12, 74, 0
15, 71610, Note_on_c, 12, 74, 56
15, 71630, Note_on_c, 12, 74, 0
15, 71640, Note_on_c, 12, 74, 56
15, 71660, Note_on_c, 12, 74, 0
15, 71670, Note_on_c, 12, 74, 56
15, 71690, Note_on_c, 12, 74, 0
15, 71700, Note_on_c, 12, 74, 56
15, 71720, Note_on_c, 12, 74, 0
15, 71730, Note_on_c, 12, 74, 56
15, 71750, Note_on_c, 12, 74, 0
15, 71760, Note_on_c, 12, 76, 56
15, 71780, Note_on_c, 12, 76, 0
15, 71790, Note_on_c, 12, 76, 56
15, 71810, Note_on_c, 12, 76, 0
15, 71820, Note_on_c, 12, 76, 56
15, 71840, Note_on_c, 12, 76, 0
15, 71850, Note_on_c, 12, 76, 56
15, 71870, Note_on_c, 12, 76, 0
15, 71880, Note_on_c, 12, 78, 56
15, 71900, Note_on_c, 12, 78, 0
15, 71910, Note_on_c, 12, 78, 56
15, 71930, Note_on_c, 12, 78, 0
15, 71940, Note_on_c, 12, 78, 57
15, 71960, Note_on_c, 12, 78, 0
15, 71970, Note_on_c, 12, 78, 59
15, 71990, Note_on_c, 12, 78, 0
15, 72000, Note_on_c, 12, 79, 62
15, 72020, Note_on_c, 12, 79, 0
15, 72030, Note_on_c, 12, 79, 65
15, 72050, Note_on_c, 12, 79, 0
15, 72060, Note_on_c, 12, 79, 66
15, 72080, Note_on_c, 12, 79, 0
15, 72090, Note_on_c, 12, 79, 66
15, 72110, Note_on_c, 12, 79, 0
15, 72120, Note_on_c, 12, 81, 66
15, 72140, Note_on_c, 12, 81, 0
15, 72150, Note_on_c, 12, 81, 66
15, 72170, Note_on_c, 12, 81, 0
15, 72180, Note_on_c, 12, 81, 66
15, 72200, Note_on_c, 12, 81, 0
15, 72210, Note_on_c, 12, 81, 68
15, 72230, Note_on_c, 12, 81, 0
15, 72240, Note_on_c, 12, 83, 68
15, 72260, Note_on_c, 12, 83, 0
15, 72270, Note_on_c, 12, 83, 70
15, 72290, Note_on_c, 12, 83, 0
15, 72300, Note_on_c, 12, 83, 70
15, 72320, Note_on_c, 12, 83, 0
15, 72330, Note_on_c, 12, 83, 71
15, 72350, Note_on_c, 12, 83, 0
15, 72360, Note_on_c, 12, 85, 71
15, 72380, Note_on_c, 12, 85, 0
15, 72390, Note_on_c, 12, 85, 73
15, 72410, Note_on_c, 12, 85, 0
15, 72420, Note_on_c, 12, 85, 74
15, 72440, Note_on_c, 12, 85, 0
15, 72450, Note_on_c, 12, 85, 74
15, 72470, Note_on_c, 12, 85, 0
15, 72480, Note_on_c, 12, 86, 85
15, 72660, Note_on_c, 12, 86, 0
15, 72660, Note_on_c, 12, 81, 85
15, 72720, Note_on_c, 12, 81, 0
15, 72720, Note_on_c, 12, 85, 85
15, 72810, Note_on_c, 12, 85, 0
15, 72810, Note_on_c, 12, 81, 85
15, 72840, Note_on_c, 12, 81, 0
15, 72840, Note_on_c, 12, 85, 85
15, 72930, Note_on_c, 12, 85, 0
15, 72930, Note_on_c, 12, 81, 85
15, 72960, Note_on_c, 12, 81, 0
15, 72960, Note_on_c, 12, 86, 85
15, 73140, Note_on_c, 12, 86, 0
15, 73140, Note_on_c, 12, 81, 85
15, 73200, Note_on_c, 12, 81, 0
15, 73200, Note_on_c, 12, 85, 85
15, 73290, Note_on_c, 12, 85, 0
15, 73290, Note_on_c, 12, 81, 85
15, 73320, Note_on_c, 12, 81, 0
15, 73320, Note_on_c, 12, 85, 85
15, 73410, Note_on_c, 12, 85, 0
15, 73410, Note_on_c, 12, 81, 85
15, 73440, Note_on_c, 12, 81, 0
15, 73440, Note_on_c, 12, 86, 100
15, 73470, Note_on_c, 12, 86, 0
15, 73500, Note_on_c, 12, 81, 100
15, 73530, Note_on_c, 12, 81, 0
15, 73560, Note_on_c, 12, 85, 100
15, 73590, Note_on_c, 12, 85, 0
15, 73620, Note_on_c, 12, 81, 100
15, 73650, Note_on_c, 12, 81, 0
15, 73680, Note_on_c, 12, 86, 100
15, 73710, Note_on_c, 12, 86, 0
15, 73740, Note_on_c, 12, 81, 100
15, 73770, Note_on_c, 12, 81, 0
15, 73800, Note_on_c, 12, 85, 100
15, 73830, Note_on_c, 12, 85, 0
15, 73860, Note_on_c, 12, 81, 100
15, 73890, Note_on_c, 12, 81, 0
15, 73920, Note_on_c, 12, 86, 85
15, 73965, Note_on_c, 12, 86, 0
15, 73980, Note_on_c, 12, 62, 85
15, 74025, Note_on_c, 12, 62, 0
15, 74040, Note_on_c, 12, 62, 85
15, 74085, Note_on_c, 12, 62, 0
15, 74100, Note_on_c, 12, 62, 85
15, 74145, Note_on_c, 12, 62, 0
15, 74160, Note_on_c, 12, 62, 85
15, 74280, Note_on_c, 12, 62, 0
15, 74400, Note_on_c, 12, 74, 46
15, 74580, Note_on_c, 12, 74, 0
15, 74580, Note_on_c, 12, 72, 47
15, 74600, Note_on_c, 12, 72, 0
15, 74600, Note_on_c, 12, 71, 47
15, 74620, Note_on_c, 12, 71, 0
15, 74620, Note_on_c, 12, 69, 47
15, 74640, Note_on_c, 12, 69, 0
15, 74640, Note_on_c, 12, 67, 47
15, 74700, Note_on_c, 12, 67, 0
15, 74760, Note_on_c, 12, 76, 47
15, 74820, Note_on_c, 12, 76, 0
15, 74880, Note_on_c, 12, 72, 46
15, 74940, Note_on_c, 12, 72, 0
15, 75000, Note_on_c, 12, 69, 43
15, 75060, Note_on_c, 12, 69, 0
15, 75120, Note_on_c, 12, 74, 59
15, 75180, Note_on_c, 12, 74, 0
15, 75360, Note_on_c, 12, 83, 55
15, 75540, Note_on_c, 12, 83, 0
15, 75540, Note_on_c, 12, 81, 55
15, 75560, Note_on_c, 12, 81, 0
15, 75560, Note_on_c, 12, 79, 55
15, 75580, Note_on_c, 12, 79, 0
15, 75580, Note_on_c, 12, 78, 55
15, 75600, Note_on_c, 12, 78, 0
15, 75600, Note_on_c, 12, 76, 55
15, 75660, Note_on_c, 12, 76, 0
15, 75720, Note_on_c, 12, 84, 55
15, 75780, Note_on_c, 12, 84, 0
15, 75840, Note_on_c, 12, 83, 55
15, 76080, Note_on_c, 12, 83, 0
15, 76080, Note_on_c, 12, 81, 47
15, 76200, Note_on_c, 12, 81, 0
15, 76380, Note_on_c, 12, 86, 55
15, 76410, Note_on_c, 12, 86, 0
15, 76440, Note_on_c, 12, 86, 55
15, 76470, Note_on_c, 12, 86, 0
15, 76500, Note_on_c, 12, 86, 55
15, 76530, Note_on_c, 12, 86, 0
15, 76560, Note_on_c, 12, 86, 55
15, 76590, Note_on_c, 12, 86, 0
15, 76620, Note_on_c, 12, 86, 55
15, 76650, Note_on_c, 12, 86, 0
15, 76680, Note_on_c, 12, 86, 55
15, 76710, Note_on_c, 12, 86, 0
15, 76740, Note_on_c, 12, 86, 55
15, 76770, Note_on_c, 12, 86, 0
15, 76800, Note_on_c, 12, 86, 55
15, 76830, Note_on_c, 12, 86, 0
15, 76860, Note_on_c, 12, 86, 55
15, 76890, Note_on_c, 12, 86, 0
15, 76920, Note_on_c, 12, 86, 55
15, 76950, Note_on_c, 12, 86, 0
15, 76980, Note_on_c, 12, 86, 55
15, 77010, Note_on_c, 12, 86, 0
15, 77040, Note_on_c, 12, 86, 55
15, 77100, Note_on_c, 12, 86, 0
15, 77100, Note_on_c, 12, 84, 55
15, 77160, Note_on_c, 12, 84, 0
15, 77160, Note_on_c, 12, 79, 55
15, 77220, Note_on_c, 12, 79, 0
15, 77220, Note_on_c, 12, 78, 55
15, 77280, Note_on_c, 12, 78, 0
15, 77280, Note_on_c, 12, 78, 55
15, 77340, Note_on_c, 12, 78, 0
15, 77340, Note_on_c, 12, 79, 65
15, 77400, Note_on_c, 12, 79, 0
15, 77460, Note_on_c, 12, 76, 55
15, 77490, Note_on_c, 12, 76, 0
15, 77520, Note_on_c, 12, 76, 55
15, 77580, Note_on_c, 12, 76, 0
15, 77580, Note_on_c, 12, 74, 55
15, 77640, Note_on_c, 12, 74, 0
15, 77700, Note_on_c, 12, 66, 55
15, 77745, Note_on_c, 12, 66, 0
15, 77760, Note_on_c, 12, 67, 67
15, 77880, Note_on_c, 12, 67, 0
15, 77940, Note_on_c, 12, 74, 55
15, 77970, Note_on_c, 12, 74, 0
15, 78000, Note_on_c, 12, 79, 55
15, 78060, Note_on_c, 12, 79, 0
15, 78060, Note_on_c, 12, 78, 55
15, 78120, Note_on_c, 12, 78, 0
15, 78120, Note_on_c, 12, 76, 55
15, 78180, Note_on_c, 12, 76, 0
15, 78180, Note_on_c, 12, 74, 55
15, 78240, Note_on_c, 12, 74, 0
15, 78240, Note_on_c, 12, 76, 55
15, 78255, Note_on_c, 12, 76, 0
15, 78255, Note_on_c, 12, 78, 55
15, 78270, Note_on_c, 12, 78, 0
15, 78270, Note_on_c, 12, 76, 55
15, 78285, Note_on_c, 12, 76, 0
15, 78285, Note_on_c, 12, 78, 55
15, 78300, Note_on_c, 12, 78, 0
15, 78300, Note_on_c, 12, 74, 55
15, 78360, Note_on_c, 12, 74, 0
15, 78420, Note_on_c, 12, 74, 55
15, 78450, Note_on_c, 12, 74, 0
15, 78480, Note_on_c, 12, 74, 55
15, 78510, Note_on_c, 12, 74, 0
15, 78540, Note_on_c, 12, 74, 55
15, 78570, Note_on_c, 12, 74, 0
15, 78600, Note_on_c, 12, 74, 55
15, 78630, Note_on_c, 12, 74, 0
15, 78660, Note_on_c, 12, 74, 55
15, 78690, Note_on_c, 12, 74, 0
15, 78720, Note_on_c, 12, 76, 55
15, 78735, Note_on_c, 12, 76, 0
15, 78735, Note_on_c, 12, 78, 55
15, 78750, Note_on_c, 12, 78, 0
15, 78750, Note_on_c, 12, 76, 55
15, 78765, Note_on_c, 12, 76, 0
15, 78765, Note_on_c, 12, 78, 55
15, 78780, Note_on_c, 12, 78, 0
15, 78780, Note_on_c, 12, 74, 55
15, 78840, Note_on_c, 12, 74, 0
15, 78900, Note_on_c, 12, 74, 55
15, 78945, Note_on_c, 12, 74, 0
15, 78960, Note_on_c, 12, 79, 55
15, 79020, Note_on_c, 12, 79, 0
15, 79020, Note_on_c, 12, 78, 55
15, 79080, Note_on_c, 12, 78, 0
15, 79080, Note_on_c, 12, 76, 55
15, 79140, Note_on_c, 12, 76, 0
15, 79140, Note_on_c, 12, 74, 55
15, 79200, Note_on_c, 12, 74, 0
15, 79200, Note_on_c, 12, 76, 55
15, 79215, Note_on_c, 12, 76, 0
15, 79215, Note_on_c, 12, 78, 55
15, 79230, Note_on_c, 12, 78, 0
15, 79230, Note_on_c, 12, 76, 55
15, 79245, Note_on_c, 12, 76, 0
15, 79245, Note_on_c, 12, 78, 55
15, 79260, Note_on_c, 12, 78, 0
15, 79260, Note_on_c, 12, 74, 55
15, 79320, Note_on_c, 12, 74, 0
15, 79380, Note_on_c, 12, 74, 55
15, 79410, Note_on_c, 12, 74, 0
15, 79440, Note_on_c, 12, 74, 55
15, 79470, Note_on_c, 12, 74, 0
15, 79500, Note_on_c, 12, 74, 55
15, 79530, Note_on_c, 12, 74, 0
15, 79560, Note_on_c, 12, 74, 55
15, 79590, Note_on_c, 12, 74, 0
15, 79620, Note_on_c, 12, 74, 55
15, 79650, Note_on_c, 12, 74, 0
15, 79680, Note_on_c, 12, 76, 55
15, 79695, Note_on_c, 12, 76, 0
15, 79695, Note_on_c, 12, 78, 55
15, 79710, Note_on_c, 12, 78, 0
15, 79710, Note_on_c, 12, 76, 55
15, 79725, Note_on_c, 12, 76, 0
15, 79725, Note_on_c, 12, 78, 55
15, 79740, Note_on_c, 12, 78, 0
15, 79740, Note_on_c, 12, 74, 55
15, 79800, Note_on_c, 12, 74, 0
15, 79920, Note_on_c, 12, 64, 83
15, 79920, Note_on_c, 12, 76, 83
15, 80090, Note_on_c, 12, 76, 0
15, 80090, Note_on_c, 12, 64, 0
15, 80100, Note_on_c, 12, 74, 82
15, 80120, Note_on_c, 12, 74, 0
15, 80120, Note_on_c, 12, 72, 82
15, 80140, Note_on_c, 12, 72, 0
15, 80140, Note_on_c, 12, 71, 82
15, 80160, Note_on_c, 12, 71, 0
15, 80160, Note_on_c, 12, 72, 83
15, 80280, Note_on_c, 12, 72, 0
15, 80400, Note_on_c, 12, 74, 85
15, 80400, Note_on_c, 12, 62, 85
15, 80570, Note_on_c, 12, 62, 0
15, 80570, Note_on_c, 12, 74, 0
15, 80580, Note_on_c, 12, 72, 77
15, 80600, Note_on_c, 12, 72, 0
15, 80600, Note_on_c, 12, 71, 79
15, 80620, Note_on_c, 12, 71, 0
15, 80620, Note_on_c, 12, 69, 83
15, 80640, Note_on_c, 12, 69, 0
15, 80640, Note_on_c, 12, 71, 88
15, 80760, Note_on_c, 12, 71, 0
15, 80880, Note_on_c, 12, 76, 85
15, 80940, Note_on_c, 12, 76, 0
15, 80940, Note_on_c, 12, 78, 85
15, 80970, Note_on_c, 12, 78, 0
15, 80970, Note_on_c, 12, 79, 85
15, 81000, Note_on_c, 12, 79, 0
15, 81000, Note_on_c, 12, 78, 85
15, 81045, Note_on_c, 12, 78, 0
15, 81060, Note_on_c, 12, 76, 85
15, 81090, Note_on_c, 12, 76, 0
15, 81120, Note_on_c, 12, 76, 85
15, 81180, Note_on_c, 12, 76, 0
15, 81180, Note_on_c, 12, 74, 85
15, 81225, Note_on_c, 12, 74, 0
15, 81240, Note_on_c, 12, 71, 85
15, 81270, Note_on_c, 12, 71, 0
15, 81300, Note_on_c, 12, 74, 85
15, 81330, Note_on_c, 12, 74, 0
15, 81360, Note_on_c, 12, 74, 85
15, 81420, Note_on_c, 12, 74, 0
15, 81420, Note_on_c, 12, 72, 85
15, 81465, Note_on_c, 12, 72, 0
15, 81480, Note_on_c, 12, 71, 85
15, 81510, Note_on_c, 12, 71, 0
15, 81540, Note_on_c, 12, 69, 85
15, 81570, Note_on_c, 12, 69, 0
15, 81600, Note_on_c, 12, 67, 85
15, 81720, Note_on_c, 12, 67, 0
15, 81780, Note_on_c, 12, 74, 50
15, 81810, Note_on_c, 12, 74, 0
15, 81840, Note_on_c, 12, 79, 50
15, 81900, Note_on_c, 12, 79, 0
15, 81900, Note_on_c, 12, 78, 50
15, 81960, Note_on_c, 12, 78, 0
15, 81960, Note_on_c, 12, 76, 53
15, 82020, Note_on_c, 12, 76, 0
15, 82020, Note_on_c, 12, 74, 56
15, 82080, Note_on_c, 12, 74, 0
15, 82080, Note_on_c, 12, 76, 58
15, 82095, Note_on_c, 12, 76, 0
15, 82095, Note_on_c, 12, 78, 58
15, 82110, Note_on_c, 12, 78, 0
15, 82110, Note_on_c, 12, 76, 59
15, 82125, Note_on_c, 12, 76, 0
15, 82125, Note_on_c, 12, 78, 59
15, 82140, Note_on_c, 12, 78, 0
15, 82140, Note_on_c, 12, 74, 61
15, 82200, Note_on_c, 12, 74, 0
15, 82260, Note_on_c, 12, 74, 56
15, 82290, Note_on_c, 12, 74, 0
15, 82320, Note_on_c, 12, 74, 55
15, 82350, Note_on_c, 12, 74, 0
15, 82380, Note_on_c, 12, 74, 55
15, 82410, Note_on_c, 12, 74, 0
15, 82440, Note_on_c, 12, 74, 53
15, 82470, Note_on_c, 12, 74, 0
15, 82500, Note_on_c, 12, 74, 52
15, 82530, Note_on_c, 12, 74, 0
15, 82560, Note_on_c, 12, 76, 55
15, 82575, Note_on_c, 12, 76, 0
15, 82575, Note_on_c, 12, 78, 55
15, 82590, Note_on_c, 12, 78, 0
15, 82590, Note_on_c, 12, 76, 55
15, 82605, Note_on_c, 12, 76, 0
15, 82605, Note_on_c, 12, 78, 55
15, 82620, Note_on_c, 12, 78, 0
15, 82620, Note_on_c, 12, 74, 55
15, 82680, Note_on_c, 12, 74, 0
15, 82740, Note_on_c, 12, 74, 55
15, 82785, Note_on_c, 12, 74, 0
15, 82800, Note_on_c, 12, 79, 55
15, 82860, Note_on_c, 12, 79, 0
15, 82860, Note_on_c, 12, 78, 55
15, 82920, Note_on_c, 12, 78, 0
15, 82920, Note_on_c, 12, 76, 55
15, 82980, Note_on_c, 12, 76, 0
15, 82980, Note_on_c, 12, 74, 56
15, 83040, Note_on_c, 12, 74, 0
15, 83040, Note_on_c, 12, 76, 65
15, 83055, Note_on_c, 12, 76, 0
15, 83055, Note_on_c, 12, 78, 65
15, 83070, Note_on_c, 12, 78, 0
15, 83070, Note_on_c, 12, 76, 65
15, 83085, Note_on_c, 12, 76, 0
15, 83085, Note_on_c, 12, 78, 65
15, 83100, Note_on_c, 12, 78, 0
15, 83100, Note_on_c, 12, 74, 64
15, 83160, Note_on_c, 12, 74, 0
15, 83220, Note_on_c, 12, 74, 55
15, 83250, Note_on_c, 12, 74, 0
15, 83280, Note_on_c, 12, 74, 55
15, 83310, Note_on_c, 12, 74, 0
15, 83340, Note_on_c, 12, 74, 55
15, 83370, Note_on_c, 12, 74, 0
15, 83400, Note_on_c, 12, 74, 55
15, 83430, Note_on_c, 12, 74, 0
15, 83460, Note_on_c, 12, 74, 55
15, 83490, Note_on_c, 12, 74, 0
15, 83520, Note_on_c, 12, 76, 59
15, 83535, Note_on_c, 12, 76, 0
15, 83535, Note_on_c, 12, 78, 59
15, 83550, Note_on_c, 12, 78, 0
15, 83550, Note_on_c, 12, 76, 59
15, 83565, Note_on_c, 12, 76, 0
15, 83565, Note_on_c, 12, 78, 59
15, 83580, Note_on_c, 12, 78, 0
15, 83580, Note_on_c, 12, 74, 59
15, 83640, Note_on_c, 12, 74, 0
15, 83760, Note_on_c, 12, 88, 85
15, 83930, Note_on_c, 12, 88, 0
15, 83940, Note_on_c, 12, 86, 85
15, 83960, Note_on_c, 12, 86, 0
15, 83960, Note_on_c, 12, 84, 85
15, 83980, Note_on_c, 12, 84, 0
15, 83980, Note_on_c, 12, 83, 85
15, 84000, Note_on_c, 12, 83, 0
15, 84000, Note_on_c, 12, 84, 85
15, 84120, Note_on_c, 12, 84, 0
15, 84240, Note_on_c, 12, 86, 85
15, 84240, Note_on_c, 12, 74, 85
15, 84410, Note_on_c, 12, 74, 0
15, 84410, Note_on_c, 12, 86, 0
15, 84420, Note_on_c, 12, 84, 82
15, 84440, Note_on_c, 12, 84, 0
15, 84440, Note_on_c, 12, 83, 83
15, 84460, Note_on_c, 12, 83, 0
15, 84460, Note_on_c, 12, 81, 83
15, 84480, Note_on_c, 12, 81, 0
15, 84480, Note_on_c, 12, 83, 86
15, 84600, Note_on_c, 12, 83, 0
15, 84720, Note_on_c, 12, 76, 85
15, 84780, Note_on_c, 12, 76, 0
15, 84780, Note_on_c, 12, 78, 85
15, 84810, Note_on_c, 12, 78, 0
15, 84810, Note_on_c, 12, 79, 85
15, 84840, Note_on_c, 12, 79, 0
15, 84840, Note_on_c, 12, 78, 85
15, 84885, Note_on_c, 12, 78, 0
15, 84900, Note_on_c, 12, 76, 85
15, 84930, Note_on_c, 12, 76, 0
15, 84960, Note_on_c, 12, 74, 85
15, 84990, Note_on_c, 12, 74, 0
15, 85020, Note_on_c, 12, 79, 85
15, 85050, Note_on_c, 12, 79, 0
15, 85080, Note_on_c, 12, 83, 85
15, 85110, Note_on_c, 12, 83, 0
15, 85140, Note_on_c, 12, 86, 85
15, 85170, Note_on_c, 12, 86, 0
15, 85200, Note_on_c, 12, 86, 85
15, 85260, Note_on_c, 12, 86, 0
15, 85260, Note_on_c, 12, 84, 85
15, 85305, Note_on_c, 12, 84, 0
15, 85320, Note_on_c, 12, 83, 85
15, 85350, Note_on_c, 12, 83, 0
15, 85380, Note_on_c, 12, 81, 85
15, 85410, Note_on_c, 12, 81, 0
15, 85440, Note_on_c, 12, 79, 94
15, 85485, Note_on_c, 12, 79, 0
15, 85500, Note_on_c, 12, 62, 85
15, 85545, Note_on_c, 12, 62, 0
15, 85560, Note_on_c, 12, 64, 85
15, 85605, Note_on_c, 12, 64, 0
15, 85620, Note_on_c, 12, 66, 85
15, 85665, Note_on_c, 12, 66, 0
15, 85680, Note_on_c, 12, 67, 85
15, 85725, Note_on_c, 12, 67, 0
15, 85740, Note_on_c, 12, 67, 85
15, 85785, Note_on_c, 12, 67, 0
15, 85800, Note_on_c, 12, 69, 85
15, 85815, Note_on_c, 12, 69, 0
15, 85815, Note_on_c, 12, 71, 85
15, 85830, Note_on_c, 12, 71, 0
15, 85830, Note_on_c, 12, 69, 85
15, 85845, Note_on_c, 12, 69, 0
15, 85845, Note_on_c, 12, 71, 85
15, 85860, Note_on_c, 12, 71, 0
15, 85860, Note_on_c, 12, 67, 85
15, 85890, Note_on_c, 12, 67, 0
15, 85890, Note_on_c, 12, 69, 85
15, 85920, Note_on_c, 12, 69, 0
15, 85920, Note_on_c, 12, 71, 85
15, 85965, Note_on_c, 12, 71, 0
15, 85980, Note_on_c, 12, 66, 85
15, 86025, Note_on_c, 12, 66, 0
15, 86040, Note_on_c, 12, 67, 85
15, 86085, Note_on_c, 12, 67, 0
15, 86100, Note_on_c, 12, 69, 85
15, 86145, Note_on_c, 12, 69, 0
15, 86160, Note_on_c, 12, 71, 85
15, 86205, Note_on_c, 12, 71, 0
15, 86220, Note_on_c, 12, 71, 85
15, 86265, Note_on_c, 12, 71, 0
15, 86280, Note_on_c, 12, 72, 86
15, 86295, Note_on_c, 12, 72, 0
15, 86295, Note_on_c, 12, 74, 86
15, 86310, Note_on_c, 12, 74, 0
15, 86310, Note_on_c, 12, 72, 86
15, 86325, Note_on_c, 12, 72, 0
15, 86325, Note_on_c, 12, 74, 86
15, 86340, Note_on_c, 12, 74, 0
15, 86340, Note_on_c, 12, 71, 86
15, 86370, Note_on_c, 12, 71, 0
15, 86370, Note_on_c, 12, 72, 89
15, 86400, Note_on_c, 12, 72, 0
15, 86400, Note_on_c, 12, 74, 89
15, 86445, Note_on_c, 12, 74, 0
15, 86460, Note_on_c, 12, 74, 91
15, 86505, Note_on_c, 12, 74, 0
15, 86520, Note_on_c, 12, 75, 91
15, 86535, Note_on_c, 12, 75, 0
15, 86535, Note_on_c, 12, 76, 91
15, 86550, Note_on_c, 12, 76, 0
15, 86550, Note_on_c, 12, 75, 91
15, 86565, Note_on_c, 12, 75, 0
15, 86565, Note_on_c, 12, 76, 92
15, 86580, Note_on_c, 12, 76, 0
15, 86580, Note_on_c, 12, 73, 94
15, 86610, Note_on_c, 12, 73, 0
15, 86610, Note_on_c, 12, 75, 97
15, 86640, Note_on_c, 12, 75, 0
15, 86640, Note_on_c, 12, 76, 98
15, 86760, Note_on_c, 12, 76, 0
15, 86880, Note_on_c, 12, 64, 61
15, 87060, Note_on_c, 12, 64, 0
15, 87060, Note_on_c, 12, 69, 61
15, 87105, Note_on_c, 12, 69, 0
15, 87120, Note_on_c, 12, 67, 61
15, 87180, Note_on_c, 12, 67, 0
15, 87180, Note_on_c, 12, 66, 62
15, 87240, Note_on_c, 12, 66, 0
15, 87240, Note_on_c, 12, 64, 62
15, 87300, Note_on_c, 12, 64, 0
15, 87300, Note_on_c, 12, 62, 62
15, 87345, Note_on_c, 12, 62, 0
15, 87360, Note_on_c, 12, 74, 62
15, 87420, Note_on_c, 12, 74, 0
15, 87420, Note_on_c, 12, 73, 62
15, 87480, Note_on_c, 12, 73, 0
15, 87480, Note_on_c, 12, 72, 62
15, 87540, Note_on_c, 12, 72, 0
15, 87540, Note_on_c, 12, 71, 62
15, 87600, Note_on_c, 12, 71, 0
15, 87600, Note_on_c, 12, 74, 61
15, 87660, Note_on_c, 12, 74, 0
15, 87660, Note_on_c, 12, 73, 61
15, 87720, Note_on_c, 12, 73, 0
15, 87720, Note_on_c, 12, 72, 61
15, 87780, Note_on_c, 12, 72, 0
15, 87780, Note_on_c, 12, 71, 59
15, 87825, Note_on_c, 12, 71, 0
15, 87840, Note_on_c, 12, 64, 61
15, 88020, Note_on_c, 12, 64, 0
15, 88020, Note_on_c, 12, 69, 67
15, 88065, Note_on_c, 12, 69, 0
15, 88080, Note_on_c, 12, 67, 70
15, 88140, Note_on_c, 12, 67, 0
15, 88140, Note_on_c, 12, 66, 70
15, 88200, Note_on_c, 12, 66, 0
15, 88200, Note_on_c, 12, 64, 70
15, 88260, Note_on_c, 12, 64, 0
15, 88260, Note_on_c, 12, 62, 70
15, 88305, Note_on_c, 12, 62, 0
15, 88320, Note_on_c, 12, 74, 70
15, 88380, Note_on_c, 12, 74, 0
15, 88380, Note_on_c, 12, 76, 70
15, 88440, Note_on_c, 12, 76, 0
15, 88440, Note_on_c, 12, 78, 70
15, 88500, Note_on_c, 12, 78, 0
15, 88500, Note_on_c, 12, 79, 70
15, 88560, Note_on_c, 12, 79, 0
15, 88560, Note_on_c, 12, 74, 70
15, 88620, Note_on_c, 12, 74, 0
15, 88620, Note_on_c, 12, 76, 70
15, 88680, Note_on_c, 12, 76, 0
15, 88680, Note_on_c, 12, 78, 70
15, 88740, Note_on_c, 12, 78, 0
15, 88740, Note_on_c, 12, 79, 76
15, 88785, Note_on_c, 12, 79, 0
15, 88800, Note_on_c, 12, 81, 75
15, 88920, Note_on_c, 12, 81, 0
15, 89040, Note_on_c, 12, 74, 91
15, 89040, Note_on_c, 12, 86, 91
15, 89160, Note_on_c, 12, 86, 0
15, 89160, Note_on_c, 12, 74, 0
15, 89280, Note_on_c, 12, 62, 96
15, 89280, Note_on_c, 12, 71, 96
15, 89280, Note_on_c, 12, 79, 96
15, 89400, Note_on_c, 12, 79, 0
15, 89400, Note_on_c, 12, 71, 0
15, 89400, Note_on_c, 12, 62, 0
15, 89460, Note_on_c, 12, 74, 95
15, 89505, Note_on_c, 12, 74, 0
15, 89520, Note_on_c, 12, 71, 94
15, 89565, Note_on_c, 12, 71, 0
15, 89580, Note_on_c, 12, 67, 90
15, 89625, Note_on_c, 12, 67, 0
15, 89640, Note_on_c, 12, 71, 90
15, 89685, Note_on_c, 12, 71, 0
15, 89700, Note_on_c, 12, 74, 89
15, 89745, Note_on_c, 12, 74, 0
15, 89760, Note_on_c, 12, 79, 88
15, 89805, Note_on_c, 12, 79, 0
15, 89820, Note_on_c, 12, 74, 88
15, 89865, Note_on_c, 12, 74, 0
15, 89880, Note_on_c, 12, 79, 88
15, 89925, Note_on_c, 12, 79, 0
15, 89940, Note_on_c, 12, 83, 90
15, 89985, Note_on_c, 12, 83, 0
15, 90000, Note_on_c, 12, 86, 92
15, 90100, Note_on_c, 12, 86, 0
15, 90120, Note_on_c, 12, 62, 95
15, 90120, Note_on_c, 12, 69, 95
15, 90120, Note_on_c, 12, 78, 95
15, 90220, Note_on_c, 12, 78, 0
15, 90220, Note_on_c, 12, 69, 0
15, 90220, Note_on_c, 12, 62, 0
15, 90240, Note_on_c, 12, 62, 100
15, 90240, Note_on_c, 12, 71, 100
15, 90240, Note_on_c, 12, 79, 100
15, 90360, Note_on_c, 12, 79, 0
15, 90360, Note_on_c, 12, 71, 0
15, 90360, Note_on_c, 12, 62, 0
15, 90420, Note_on_c, 12, 74, 98
15, 90465, Note_on_c, 12, 74, 0
15, 90480, Note_on_c, 12, 71, 98
15, 90525, Note_on_c, 12, 71, 0
15, 90540, Note_on_c, 12, 67, 95
15, 90585, Note_on_c, 12, 67, 0
15, 90600, Note_on_c, 12, 71, 94
15, 90645, Note_on_c, 12, 71, 0
15, 90660, Note_on_c, 12, 74, 92
15, 90705, Note_on_c, 12, 74, 0
15, 90720, Note_on_c, 12, 79, 91
15, 90765, Note_on_c, 12, 79, 0
15, 90780, Note_on_c, 12, 74, 91
15, 90825, Note_on_c, 12, 74, 0
15, 90840, Note_on_c, 12, 79, 92
15, 90885, Note_on_c, 12, 79, 0
15, 90900, Note_on_c, 12, 83, 92
15, 90945, Note_on_c, 12, 83, 0
15, 90960, Note_on_c, 12, 86, 96
15, 91060, Note_on_c, 12, 86, 0
15, 91080, Note_on_c, 12, 62, 99
15, 91080, Note_on_c, 12, 69, 99
15, 91080, Note_on_c, 12, 78, 99
15, 91180, Note_on_c, 12, 78, 0
15, 91180, Note_on_c, 12, 69, 0
15, 91180, Note_on_c, 12, 62, 0
15, 91200, Note_on_c, 12, 62, 109
15, 91200, Note_on_c, 12, 71, 109
15, 91200, Note_on_c, 12, 79, 109
15, 91320, Note_on_c, 12, 79, 0
15, 91320, Note_on_c, 12, 71, 0
15, 91320, Note_on_c, 12, 62, 0
15, 91440, Note_on_c, 12, 62, 106
15, 91440, Note_on_c, 12, 71, 106
15, 91440, Note_on_c, 12, 79, 106
15, 91560, Note_on_c, 12, 79, 0
15, 91560, Note_on_c, 12, 71, 0
15, 91560, Note_on_c, 12, 62, 0
15, 91680, Note_on_c, 12, 62, 106
15, 91680, Note_on_c, 12, 71, 106
15, 91680, Note_on_c, 12, 79, 106
15, 91780, Note_on_c, 12, 79, 0
15, 91780, Note_on_c, 12, 71, 0
15, 91780, Note_on_c, 12, 62, 0
15, 91800, Note_on_c, 12, 55, 110
15, 91800, Note_on_c, 12, 67, 110
15, 91860, Note_on_c, 12, 67, 0
15, 91860, Note_on_c, 12, 55, 0
15, 91890, Note_on_c, 12, 55, 109
15, 91890, Note_on_c, 12, 67, 109
15, 91905, Note_on_c, 12, 67, 0
15, 91905, Note_on_c, 12, 55, 0
15, 91920, Note_on_c, 12, 55, 108
15, 91920, Note_on_c, 12, 67, 108
15, 92040, Note_on_c, 12, 67, 0
15, 92040, Note_on_c, 12, 55, 0
15, 92040, End_track
16, 0, Start_track
16, 0, MIDI_port, 0
16, 0, Title_t, "DOMAIN"
16, 0, Program_c, 12, 32
16, 0, Control_c, 12, 7, 112
16, 0, Control_c, 12, 10, 68
16, 0, Note_on_c, 12, 67, 85
16, 120, Note_on_c, 12, 67, 0
16, 180, Note_on_c, 12, 62, 85
16, 210, Note_on_c, 12, 62, 0
16, 240, Note_on_c, 12, 67, 85
16, 360, Note_on_c, 12, 67, 0
16, 420, Note_on_c, 12, 62, 85
16, 450, Note_on_c, 12, 62, 0
16, 480, Note_on_c, 12, 67, 85
16, 510, Note_on_c, 12, 67, 0
16, 540, Note_on_c, 12, 62, 85
16, 570, Note_on_c, 12, 62, 0
16, 600, Note_on_c, 12, 67, 85
16, 630, Note_on_c, 12, 67, 0
16, 660, Note_on_c, 12, 71, 85
16, 690, Note_on_c, 12, 71, 0
16, 720, Note_on_c, 12, 74, 85
16, 840, Note_on_c, 12, 74, 0
16, 960, Note_on_c, 12, 72, 85
16, 1080, Note_on_c, 12, 72, 0
16, 1140, Note_on_c, 12, 69, 85
16, 1170, Note_on_c, 12, 69, 0
16, 1200, Note_on_c, 12, 72, 85
16, 1320, Note_on_c, 12, 72, 0
16, 1380, Note_on_c, 12, 69, 85
16, 1410, Note_on_c, 12, 69, 0
16, 1440, Note_on_c, 12, 72, 85
16, 1470, Note_on_c, 12, 72, 0
16, 1500, Note_on_c, 12, 69, 85
16, 1530, Note_on_c, 12, 69, 0
16, 1560, Note_on_c, 12, 66, 85
16, 1590, Note_on_c, 12, 66, 0
16, 1620, Note_on_c, 12, 69, 85
16, 1650, Note_on_c, 12, 69, 0
16, 1680, Note_on_c, 12, 62, 85
16, 1800, Note_on_c, 12, 62, 0
16, 1920, Note_on_c, 12, 67, 85
16, 1965, Note_on_c, 12, 67, 0
16, 1980, Note_on_c, 12, 67, 85
16, 2025, Note_on_c, 12, 67, 0
16, 2040, Note_on_c, 12, 67, 85
16, 2085, Note_on_c, 12, 67, 0
16, 2100, Note_on_c, 12, 67, 85
16, 2145, Note_on_c, 12, 67, 0
16, 2160, Note_on_c, 12, 67, 85
16, 2205, Note_on_c, 12, 67, 0
16, 2220, Note_on_c, 12, 67, 85
16, 2265, Note_on_c, 12, 67, 0
16, 2280, Note_on_c, 12, 67, 85
16, 2325, Note_on_c, 12, 67, 0
16, 2340, Note_on_c, 12, 67, 85
16, 2385, Note_on_c, 12, 67, 0
16, 2400, Note_on_c, 12, 69, 85
16, 2445, Note_on_c, 12, 69, 0
16, 2460, Note_on_c, 12, 69, 85
16, 2505, Note_on_c, 12, 69, 0
16, 2520, Note_on_c, 12, 69, 85
16, 2565, Note_on_c, 12, 69, 0
16, 2580, Note_on_c, 12, 69, 85
16, 2625, Note_on_c, 12, 69, 0
16, 2640, Note_on_c, 12, 69, 85
16, 2700, Note_on_c, 12, 69, 0
16, 2700, Note_on_c, 12, 72, 85
16, 2745, Note_on_c, 12, 72, 0
16, 2760, Note_on_c, 12, 66, 85
16, 2820, Note_on_c, 12, 66, 0
16, 2820, Note_on_c, 12, 69, 85
16, 2865, Note_on_c, 12, 69, 0
16, 2880, Note_on_c, 12, 67, 85
16, 2925, Note_on_c, 12, 67, 0
16, 2940, Note_on_c, 12, 67, 85
16, 2985, Note_on_c, 12, 67, 0
16, 3000, Note_on_c, 12, 67, 85
16, 3045, Note_on_c, 12, 67, 0
16, 3060, Note_on_c, 12, 67, 85
16, 3105, Note_on_c, 12, 67, 0
16, 3120, Note_on_c, 12, 67, 85
16, 3165, Note_on_c, 12, 67, 0
16, 3180, Note_on_c, 12, 67, 85
16, 3225, Note_on_c, 12, 67, 0
16, 3240, Note_on_c, 12, 67, 85
16, 3285, Note_on_c, 12, 67, 0
16, 3300, Note_on_c, 12, 67, 85
16, 3345, Note_on_c, 12, 67, 0
16, 3360, Note_on_c, 12, 69, 85
16, 3405, Note_on_c, 12, 69, 0
16, 3420, Note_on_c, 12, 69, 85
16, 3465, Note_on_c, 12, 69, 0
16, 3480, Note_on_c, 12, 69, 85
16, 3525, Note_on_c, 12, 69, 0
16, 3540, Note_on_c, 12, 69, 85
16, 3585, Note_on_c, 12, 69, 0
16, 3600, Note_on_c, 12, 69, 85
16, 3660, Note_on_c, 12, 69, 0
16, 3660, Note_on_c, 12, 72, 85
16, 3705, Note_on_c, 12, 72, 0
16, 3720, Note_on_c, 12, 66, 85
16, 3780, Note_on_c, 12, 66, 0
16, 3780, Note_on_c, 12, 69, 85
16, 3825, Note_on_c, 12, 69, 0
16, 3840, Note_on_c, 12, 62, 85
16, 3860, Note_on_c, 12, 62, 0
16, 3870, Note_on_c, 12, 62, 85
16, 3890, Note_on_c, 12, 62, 0
16, 3900, Note_on_c, 12, 62, 85
16, 3920, Note_on_c, 12, 62, 0
16, 3930, Note_on_c, 12, 62, 85
16, 3950, Note_on_c, 12, 62, 0
16, 3960, Note_on_c, 12, 62, 85
16, 3980, Note_on_c, 12, 62, 0
16, 3990, Note_on_c, 12, 62, 85
16, 4010, Note_on_c, 12, 62, 0
16, 4020, Note_on_c, 12, 62, 85
16, 4040, Note_on_c, 12, 62, 0
16, 4050, Note_on_c, 12, 62, 85
16, 4070, Note_on_c, 12, 62, 0
16, 4080, Note_on_c, 12, 62, 85
16, 4100, Note_on_c, 12, 62, 0
16, 4110, Note_on_c, 12, 62, 85
16, 4130, Note_on_c, 12, 62, 0
16, 4140, Note_on_c, 12, 62, 85
16, 4160, Note_on_c, 12, 62, 0
16, 4170, Note_on_c, 12, 62, 85
16, 4190, Note_on_c, 12, 62, 0
16, 4200, Note_on_c, 12, 62, 85
16, 4220, Note_on_c, 12, 62, 0
16, 4230, Note_on_c, 12, 62, 85
16, 4250, Note_on_c, 12, 62, 0
16, 4260, Note_on_c, 12, 62, 85
16, 4280, Note_on_c, 12, 62, 0
16, 4290, Note_on_c, 12, 62, 85
16, 4310, Note_on_c, 12, 62, 0
16, 4320, Note_on_c, 12, 62, 85
16, 4340, Note_on_c, 12, 62, 0
16, 4350, Note_on_c, 12, 62, 85
16, 4370, Note_on_c, 12, 62, 0
16, 4380, Note_on_c, 12, 62, 85
16, 4400, Note_on_c, 12, 62, 0
16, 4410, Note_on_c, 12, 62, 85
16, 4430, Note_on_c, 12, 62, 0
16, 4440, Note_on_c, 12, 62, 85
16, 4460, Note_on_c, 12, 62, 0
16, 4470, Note_on_c, 12, 62, 85
16, 4490, Note_on_c, 12, 62, 0
16, 4500, Note_on_c, 12, 62, 85
16, 4520, Note_on_c, 12, 62, 0
16, 4530, Note_on_c, 12, 62, 85
16, 4550, Note_on_c, 12, 62, 0
16, 4560, Note_on_c, 12, 62, 85
16, 4680, Note_on_c, 12, 62, 0
16, 5280, Note_on_c, 12, 54, 47
16, 5520, Note_on_c, 12, 54, 0
16, 5520, Note_on_c, 12, 55, 47
16, 5760, Note_on_c, 12, 55, 0
16, 5760, Note_on_c, 12, 60, 47
16, 5850, Note_on_c, 12, 60, 0
16, 5880, Note_on_c, 12, 60, 47
16, 5970, Note_on_c, 12, 60, 0
16, 6000, Note_on_c, 12, 57, 47
16, 6090, Note_on_c, 12, 57, 0
16, 6120, Note_on_c, 12, 50, 47
16, 6210, Note_on_c, 12, 50, 0
16, 6240, Note_on_c, 12, 50, 47
16, 6300, Note_on_c, 12, 50, 0
16, 6360, Note_on_c, 12, 62, 47
16, 6420, Note_on_c, 12, 62, 0
16, 6480, Note_on_c, 12, 62, 47
16, 6600, Note_on_c, 12, 62, 0
16, 7200, Note_on_c, 12, 66, 47
16, 7440, Note_on_c, 12, 66, 0
16, 7440, Note_on_c, 12, 67, 47
16, 7680, Note_on_c, 12, 67, 0
16, 7680, Note_on_c, 12, 60, 47
16, 7770, Note_on_c, 12, 60, 0
16, 7800, Note_on_c, 12, 60, 47
16, 7845, Note_on_c, 12, 60, 0
16, 7860, Note_on_c, 12, 60, 47
16, 7905, Note_on_c, 12, 60, 0
16, 7920, Note_on_c, 12, 57, 47
16, 8010, Note_on_c, 12, 57, 0
16, 8040, Note_on_c, 12, 57, 47
16, 8085, Note_on_c, 12, 57, 0
16, 8100, Note_on_c, 12, 57, 47
16, 8145, Note_on_c, 12, 57, 0
16, 8160, Note_on_c, 12, 55, 92
16, 8205, Note_on_c, 12, 55, 0
16, 8220, Note_on_c, 12, 55, 71
16, 8265, Note_on_c, 12, 55, 0
16, 8280, Note_on_c, 12, 55, 71
16, 8325, Note_on_c, 12, 55, 0
16, 8340, Note_on_c, 12, 55, 71
16, 8385, Note_on_c, 12, 55, 0
16, 8400, Note_on_c, 12, 55, 55
16, 8445, Note_on_c, 12, 55, 0
16, 8460, Note_on_c, 12, 55, 50
16, 8505, Note_on_c, 12, 55, 0
16, 8520, Note_on_c, 12, 55, 50
16, 8565, Note_on_c, 12, 55, 0
16, 8580, Note_on_c, 12, 55, 50
16, 8625, Note_on_c, 12, 55, 0
16, 8640, Note_on_c, 12, 55, 91
16, 8685, Note_on_c, 12, 55, 0
16, 8700, Note_on_c, 12, 55, 65
16, 8745, Note_on_c, 12, 55, 0
16, 8760, Note_on_c, 12, 55, 65
16, 8805, Note_on_c, 12, 55, 0
16, 8820, Note_on_c, 12, 55, 65
16, 8865, Note_on_c, 12, 55, 0
16, 8880, Note_on_c, 12, 55, 46
16, 8925, Note_on_c, 12, 55, 0
16, 8940, Note_on_c, 12, 55, 46
16, 8985, Note_on_c, 12, 55, 0
16, 9000, Note_on_c, 12, 55, 46
16, 9045, Note_on_c, 12, 55, 0
16, 9060, Note_on_c, 12, 55, 46
16, 9105, Note_on_c, 12, 55, 0
16, 9120, Note_on_c, 12, 55, 59
16, 9165, Note_on_c, 12, 55, 0
16, 9180, Note_on_c, 12, 67, 41
16, 9225, Note_on_c, 12, 67, 0
16, 9240, Note_on_c, 12, 67, 46
16, 9285, Note_on_c, 12, 67, 0
16, 9300, Note_on_c, 12, 67, 49
16, 9345, Note_on_c, 12, 67, 0
16, 9360, Note_on_c, 12, 67, 53
16, 9405, Note_on_c, 12, 67, 0
16, 9420, Note_on_c, 12, 67, 56
16, 9465, Note_on_c, 12, 67, 0
16, 9480, Note_on_c, 12, 69, 61
16, 9525, Note_on_c, 12, 69, 0
16, 9540, Note_on_c, 12, 69, 64
16, 9585, Note_on_c, 12, 69, 0
16, 9600, Note_on_c, 12, 67, 68
16, 9645, Note_on_c, 12, 67, 0
16, 9660, Note_on_c, 12, 67, 71
16, 9705, Note_on_c, 12, 67, 0
16, 9720, Note_on_c, 12, 66, 76
16, 9765, Note_on_c, 12, 66, 0
16, 9780, Note_on_c, 12, 66, 79
16, 9825, Note_on_c, 12, 66, 0
16, 9840, Note_on_c, 12, 67, 82
16, 9885, Note_on_c, 12, 67, 0
16, 9900, Note_on_c, 12, 67, 82
16, 9945, Note_on_c, 12, 67, 0
16, 9960, Note_on_c, 12, 64, 82
16, 10005, Note_on_c, 12, 64, 0
16, 10020, Note_on_c, 12, 64, 82
16, 10065, Note_on_c, 12, 64, 0
16, 10080, Note_on_c, 12, 69, 85
16, 10080, Note_on_c, 12, 62, 85
16, 10100, Note_on_c, 12, 62, 0
16, 10100, Note_on_c, 12, 69, 0
16, 10110, Note_on_c, 12, 69, 85
16, 10110, Note_on_c, 12, 62, 85
16, 10130, Note_on_c, 12, 62, 0
16, 10130, Note_on_c, 12, 69, 0
16, 10140, Note_on_c, 12, 69, 85
16, 10140, Note_on_c, 12, 62, 85
16, 10160, Note_on_c, 12, 62, 0
16, 10160, Note_on_c, 12, 69, 0
16, 10170, Note_on_c, 12, 69, 85
16, 10170, Note_on_c, 12, 62, 85
16, 10190, Note_on_c, 12, 62, 0
16, 10190, Note_on_c, 12, 69, 0
16, 10200, Note_on_c, 12, 69, 85
16, 10200, Note_on_c, 12, 62, 85
16, 10220, Note_on_c, 12, 62, 0
16, 10220, Note_on_c, 12, 69, 0
16, 10230, Note_on_c, 12, 69, 85
16, 10230, Note_on_c, 12, 62, 85
16, 10250, Note_on_c, 12, 62, 0
16, 10250, Note_on_c, 12, 69, 0
16, 10260, Note_on_c, 12, 69, 85
16, 10260, Note_on_c, 12, 62, 85
16, 10280, Note_on_c, 12, 62, 0
16, 10280, Note_on_c, 12, 69, 0
16, 10290, Note_on_c, 12, 69, 85
16, 10290, Note_on_c, 12, 62, 85
16, 10310, Note_on_c, 12, 62, 0
16, 10310, Note_on_c, 12, 69, 0
16, 10320, Note_on_c, 12, 69, 85
16, 10320, Note_on_c, 12, 64, 85
16, 10340, Note_on_c, 12, 64, 0
16, 10340, Note_on_c, 12, 69, 0
16, 10350, Note_on_c, 12, 69, 85
16, 10350, Note_on_c, 12, 64, 85
16, 10370, Note_on_c, 12, 64, 0
16, 10370, Note_on_c, 12, 69, 0
16, 10380, Note_on_c, 12, 69, 85
16, 10380, Note_on_c, 12, 64, 85
16, 10400, Note_on_c, 12, 64, 0
16, 10400, Note_on_c, 12, 69, 0
16, 10410, Note_on_c, 12, 69, 85
16, 10410, Note_on_c, 12, 64, 85
16, 10430, Note_on_c, 12, 64, 0
16, 10430, Note_on_c, 12, 69, 0
16, 10440, Note_on_c, 12, 69, 85
16, 10440, Note_on_c, 12, 64, 85
16, 10460, Note_on_c, 12, 64, 0
16, 10460, Note_on_c, 12, 69, 0
16, 10470, Note_on_c, 12, 69, 85
16, 10470, Note_on_c, 12, 64, 85
16, 10490, Note_on_c, 12, 64, 0
16, 10490, Note_on_c, 12, 69, 0
16, 10500, Note_on_c, 12, 69, 85
16, 10500, Note_on_c, 12, 64, 85
16, 10520, Note_on_c, 12, 64, 0
16, 10520, Note_on_c, 12, 69, 0
16, 10530, Note_on_c, 12, 69, 85
16, 10530, Note_on_c, 12, 64, 85
16, 10550, Note_on_c, 12, 64, 0
16, 10550, Note_on_c, 12, 69, 0
16, 10560, Note_on_c, 12, 69, 85
16, 10560, Note_on_c, 12, 62, 85
16, 10580, Note_on_c, 12, 62, 0
16, 10580, Note_on_c, 12, 69, 0
16, 10590, Note_on_c, 12, 69, 85
16, 10590, Note_on_c, 12, 62, 85
16, 10610, Note_on_c, 12, 62, 0
16, 10610, Note_on_c, 12, 69, 0
16, 10620, Note_on_c, 12, 69, 85
16, 10620, Note_on_c, 12, 62, 85
16, 10640, Note_on_c, 12, 62, 0
16, 10640, Note_on_c, 12, 69, 0
16, 10650, Note_on_c, 12, 69, 85
16, 10650, Note_on_c, 12, 62, 85
16, 10670, Note_on_c, 12, 62, 0
16, 10670, Note_on_c, 12, 69, 0
16, 10680, Note_on_c, 12, 69, 85
16, 10680, Note_on_c, 12, 62, 85
16, 10700, Note_on_c, 12, 62, 0
16, 10700, Note_on_c, 12, 69, 0
16, 10710, Note_on_c, 12, 69, 85
16, 10710, Note_on_c, 12, 62, 85
16, 10730, Note_on_c, 12, 62, 0
16, 10730, Note_on_c, 12, 69, 0
16, 10740, Note_on_c, 12, 69, 85
16, 10740, Note_on_c, 12, 62, 85
16, 10760, Note_on_c, 12, 62, 0
16, 10760, Note_on_c, 12, 69, 0
16, 10770, Note_on_c, 12, 69, 85
16, 10770, Note_on_c, 12, 62, 85
16, 10790, Note_on_c, 12, 62, 0
16, 10790, Note_on_c, 12, 69, 0
16, 10800, Note_on_c, 12, 69, 85
16, 10800, Note_on_c, 12, 64, 85
16, 10820, Note_on_c, 12, 64, 0
16, 10820, Note_on_c, 12, 69, 0
16, 10830, Note_on_c, 12, 69, 85
16, 10830, Note_on_c, 12, 64, 85
16, 10850, Note_on_c, 12, 64, 0
16, 10850, Note_on_c, 12, 69, 0
16, 10860, Note_on_c, 12, 69, 85
16, 10860, Note_on_c, 12, 64, 85
16, 10880, Note_on_c, 12, 64, 0
16, 10880, Note_on_c, 12, 69, 0
16, 10890, Note_on_c, 12, 69, 85
16, 10890, Note_on_c, 12, 64, 85
16, 10910, Note_on_c, 12, 64, 0
16, 10910, Note_on_c, 12, 69, 0
16, 10920, Note_on_c, 12, 69, 85
16, 10920, Note_on_c, 12, 64, 85
16, 10940, Note_on_c, 12, 64, 0
16, 10940, Note_on_c, 12, 69, 0
16, 10950, Note_on_c, 12, 69, 85
16, 10950, Note_on_c, 12, 64, 85
16, 10970, Note_on_c, 12, 64, 0
16, 10970, Note_on_c, 12, 69, 0
16, 10980, Note_on_c, 12, 69, 85
16, 10980, Note_on_c, 12, 64, 85
16, 11000, Note_on_c, 12, 64, 0
16, 11000, Note_on_c, 12, 69, 0
16, 11010, Note_on_c, 12, 69, 85
16, 11010, Note_on_c, 12, 64, 85
16, 11030, Note_on_c, 12, 64, 0
16, 11030, Note_on_c, 12, 69, 0
16, 11040, Note_on_c, 12, 62, 85
16, 11085, Note_on_c, 12, 62, 0
16, 11100, Note_on_c, 12, 64, 85
16, 11145, Note_on_c, 12, 64, 0
16, 11160, Note_on_c, 12, 66, 85
16, 11205, Note_on_c, 12, 66, 0
16, 11220, Note_on_c, 12, 64, 85
16, 11265, Note_on_c, 12, 64, 0
16, 11280, Note_on_c, 12, 62, 85
16, 11325, Note_on_c, 12, 62, 0
16, 11340, Note_on_c, 12, 64, 85
16, 11385, Note_on_c, 12, 64, 0
16, 11400, Note_on_c, 12, 66, 85
16, 11445, Note_on_c, 12, 66, 0
16, 11460, Note_on_c, 12, 62, 85
16, 11505, Note_on_c, 12, 62, 0
16, 11520, Note_on_c, 12, 71, 85
16, 11565, Note_on_c, 12, 71, 0
16, 11580, Note_on_c, 12, 69, 85
16, 11625, Note_on_c, 12, 69, 0
16, 11640, Note_on_c, 12, 67, 85
16, 11685, Note_on_c, 12, 67, 0
16, 11700, Note_on_c, 12, 69, 85
16, 11745, Note_on_c, 12, 69, 0
16, 11760, Note_on_c, 12, 71, 85
16, 11805, Note_on_c, 12, 71, 0
16, 11820, Note_on_c, 12, 69, 85
16, 11865, Note_on_c, 12, 69, 0
16, 11880, Note_on_c, 12, 68, 85
16, 11925, Note_on_c, 12, 68, 0
16, 11940, Note_on_c, 12, 71, 85
16, 11985, Note_on_c, 12, 71, 0
16, 12000, Note_on_c, 12, 69, 85
16, 12045, Note_on_c, 12, 69, 0
16, 12060, Note_on_c, 12, 69, 85
16, 12105, Note_on_c, 12, 69, 0
16, 12120, Note_on_c, 12, 69, 85
16, 12165, Note_on_c, 12, 69, 0
16, 12180, Note_on_c, 12, 69, 85
16, 12225, Note_on_c, 12, 69, 0
16, 12240, Note_on_c, 12, 69, 85
16, 12285, Note_on_c, 12, 69, 0
16, 12300, Note_on_c, 12, 69, 85
16, 12345, Note_on_c, 12, 69, 0
16, 12360, Note_on_c, 12, 69, 85
16, 12405, Note_on_c, 12, 69, 0
16, 12420, Note_on_c, 12, 69, 85
16, 12465, Note_on_c, 12, 69, 0
16, 12480, Note_on_c, 12, 69, 85
16, 12525, Note_on_c, 12, 69, 0
16, 12540, Note_on_c, 12, 57, 85
16, 12585, Note_on_c, 12, 57, 0
16, 12600, Note_on_c, 12, 57, 85
16, 12645, Note_on_c, 12, 57, 0
16, 12660, Note_on_c, 12, 57, 85
16, 12705, Note_on_c, 12, 57, 0
16, 12720, Note_on_c, 12, 57, 85
16, 12840, Note_on_c, 12, 57, 0
16, 13320, Note_on_c, 12, 66, 55
16, 13380, Note_on_c, 12, 66, 0
16, 13440, Note_on_c, 12, 59, 55
16, 13500, Note_on_c, 12, 59, 0
16, 13560, Note_on_c, 12, 67, 55
16, 13620, Note_on_c, 12, 67, 0
16, 13680, Note_on_c, 12, 64, 55
16, 13740, Note_on_c, 12, 64, 0
16, 13800, Note_on_c, 12, 61, 55
16, 13860, Note_on_c, 12, 61, 0
16, 14040, Note_on_c, 12, 64, 55
16, 14160, Note_on_c, 12, 64, 0
16, 14160, Note_on_c, 12, 62, 55
16, 14220, Note_on_c, 12, 62, 0
16, 14280, Note_on_c, 12, 64, 55
16, 14340, Note_on_c, 12, 64, 0
16, 14400, Note_on_c, 12, 62, 55
16, 14640, Note_on_c, 12, 62, 0
16, 14640, Note_on_c, 12, 61, 55
16, 14760, Note_on_c, 12, 61, 0
16, 15000, Note_on_c, 12, 61, 55
16, 15120, Note_on_c, 12, 61, 0
16, 15120, Note_on_c, 12, 62, 55
16, 15180, Note_on_c, 12, 62, 0
16, 15240, Note_on_c, 12, 66, 55
16, 15300, Note_on_c, 12, 66, 0
16, 15360, Note_on_c, 12, 59, 55
16, 15420, Note_on_c, 12, 59, 0
16, 15480, Note_on_c, 12, 55, 55
16, 15540, Note_on_c, 12, 55, 0
16, 15600, Note_on_c, 12, 52, 55
16, 15720, Note_on_c, 12, 52, 0
16, 15780, Note_on_c, 12, 64, 55
16, 15825, Note_on_c, 12, 64, 0
16, 15840, Note_on_c, 12, 64, 55
16, 15900, Note_on_c, 12, 64, 0
16, 15900, Note_on_c, 12, 62, 55
16, 15960, Note_on_c, 12, 62, 0
16, 16320, Note_on_c, 12, 62, 55
16, 16365, Note_on_c, 12, 62, 0
16, 16380, Note_on_c, 12, 62, 55
16, 16425, Note_on_c, 12, 62, 0
16, 16440, Note_on_c, 12, 64, 55
16, 16485, Note_on_c, 12, 64, 0
16, 16500, Note_on_c, 12, 64, 55
16, 16545, Note_on_c, 12, 64, 0
16, 16560, Note_on_c, 12, 66, 55
16, 16605, Note_on_c, 12, 66, 0
16, 16620, Note_on_c, 12, 66, 55
16, 16665, Note_on_c, 12, 66, 0
16, 16680, Note_on_c, 12, 62, 55
16, 16725, Note_on_c, 12, 62, 0
16, 16740, Note_on_c, 12, 62, 55
16, 16785, Note_on_c, 12, 62, 0
16, 16800, Note_on_c, 12, 61, 55
16, 16845, Note_on_c, 12, 61, 0
16, 16860, Note_on_c, 12, 61, 55
16, 16905, Note_on_c, 12, 61, 0
16, 16920, Note_on_c, 12, 62, 55
16, 16965, Note_on_c, 12, 62, 0
16, 16980, Note_on_c, 12, 62, 55
16, 17025, Note_on_c, 12, 62, 0
16, 17040, Note_on_c, 12, 64, 55
16, 17085, Note_on_c, 12, 64, 0
16, 17100, Note_on_c, 12, 64, 55
16, 17145, Note_on_c, 12, 64, 0
16, 17160, Note_on_c, 12, 61, 55
16, 17205, Note_on_c, 12, 61, 0
16, 17220, Note_on_c, 12, 61, 55
16, 17265, Note_on_c, 12, 61, 0
16, 17280, Note_on_c, 12, 62, 55
16, 17325, Note_on_c, 12, 62, 0
16, 17340, Note_on_c, 12, 62, 55
16, 17385, Note_on_c, 12, 62, 0
16, 17400, Note_on_c, 12, 64, 55
16, 17445, Note_on_c, 12, 64, 0
16, 17460, Note_on_c, 12, 64, 55
16, 17505, Note_on_c, 12, 64, 0
16, 17520, Note_on_c, 12, 66, 55
16, 17565, Note_on_c, 12, 66, 0
16, 17580, Note_on_c, 12, 66, 55
16, 17625, Note_on_c, 12, 66, 0
16, 17640, Note_on_c, 12, 62, 55
16, 17685, Note_on_c, 12, 62, 0
16, 17700, Note_on_c, 12, 62, 55
16, 17745, Note_on_c, 12, 62, 0
16, 17760, Note_on_c, 12, 61, 55
16, 17805, Note_on_c, 12, 61, 0
16, 17820, Note_on_c, 12, 61, 55
16, 17865, Note_on_c, 12, 61, 0
16, 17880, Note_on_c, 12, 62, 55
16, 17925, Note_on_c, 12, 62, 0
16, 17940, Note_on_c, 12, 62, 55
16, 17985, Note_on_c, 12, 62, 0
16, 18000, Note_on_c, 12, 64, 55
16, 18045, Note_on_c, 12, 64, 0
16, 18060, Note_on_c, 12, 64, 55
16, 18105, Note_on_c, 12, 64, 0
16, 18120, Note_on_c, 12, 61, 55
16, 18165, Note_on_c, 12, 61, 0
16, 18180, Note_on_c, 12, 61, 55
16, 18225, Note_on_c, 12, 61, 0
16, 18240, Note_on_c, 12, 62, 55
16, 18285, Note_on_c, 12, 62, 0
16, 18300, Note_on_c, 12, 62, 55
16, 18345, Note_on_c, 12, 62, 0
16, 18360, Note_on_c, 12, 66, 55
16, 18405, Note_on_c, 12, 66, 0
16, 18420, Note_on_c, 12, 64, 55
16, 18465, Note_on_c, 12, 64, 0
16, 18480, Note_on_c, 12, 63, 55
16, 18525, Note_on_c, 12, 63, 0
16, 18540, Note_on_c, 12, 59, 55
16, 18585, Note_on_c, 12, 59, 0
16, 18600, Note_on_c, 12, 61, 55
16, 18645, Note_on_c, 12, 61, 0
16, 18660, Note_on_c, 12, 62, 55
16, 18705, Note_on_c, 12, 62, 0
16, 18720, Note_on_c, 12, 64, 85
16, 18765, Note_on_c, 12, 64, 0
16, 18780, Note_on_c, 12, 67, 85
16, 18825, Note_on_c, 12, 67, 0
16, 18840, Note_on_c, 12, 64, 85
16, 18885, Note_on_c, 12, 64, 0
16, 18900, Note_on_c, 12, 62, 85
16, 18945, Note_on_c, 12, 62, 0
16, 18960, Note_on_c, 12, 61, 85
16, 19005, Note_on_c, 12, 61, 0
16, 19020, Note_on_c, 12, 57, 55
16, 19065, Note_on_c, 12, 57, 0
16, 19080, Note_on_c, 12, 59, 85
16, 19125, Note_on_c, 12, 59, 0
16, 19140, Note_on_c, 12, 61, 85
16, 19185, Note_on_c, 12, 61, 0
16, 19200, Note_on_c, 12, 62, 85
16, 19245, Note_on_c, 12, 62, 0
16, 19260, Note_on_c, 12, 74, 85
16, 19305, Note_on_c, 12, 74, 0
16, 19320, Note_on_c, 12, 74, 85
16, 19365, Note_on_c, 12, 74, 0
16, 19380, Note_on_c, 12, 74, 85
16, 19425, Note_on_c, 12, 74, 0
16, 19440, Note_on_c, 12, 74, 85
16, 19485, Note_on_c, 12, 74, 0
16, 19500, Note_on_c, 12, 74, 85
16, 19545, Note_on_c, 12, 74, 0
16, 19560, Note_on_c, 12, 74, 85
16, 19605, Note_on_c, 12, 74, 0
16, 19620, Note_on_c, 12, 74, 85
16, 19665, Note_on_c, 12, 74, 0
16, 19680, Note_on_c, 12, 74, 85
16, 19740, Note_on_c, 12, 74, 0
16, 19740, Note_on_c, 12, 69, 85
16, 19785, Note_on_c, 12, 69, 0
16, 19800, Note_on_c, 12, 69, 85
16, 19830, Note_on_c, 12, 69, 0
16, 19860, Note_on_c, 12, 69, 85
16, 19890, Note_on_c, 12, 69, 0
16, 19920, Note_on_c, 12, 69, 85
16, 19965, Note_on_c, 12, 69, 0
16, 19980, Note_on_c, 12, 69, 85
16, 20025, Note_on_c, 12, 69, 0
16, 20040, Note_on_c, 12, 69, 85
16, 20085, Note_on_c, 12, 69, 0
16, 20100, Note_on_c, 12, 67, 85
16, 20145, Note_on_c, 12, 67, 0
16, 20160, Note_on_c, 12, 62, 85
16, 20205, Note_on_c, 12, 62, 0
16, 20220, Note_on_c, 12, 62, 53
16, 20265, Note_on_c, 12, 62, 0
16, 20280, Note_on_c, 12, 64, 53
16, 20325, Note_on_c, 12, 64, 0
16, 20340, Note_on_c, 12, 64, 53
16, 20385, Note_on_c, 12, 64, 0
16, 20400, Note_on_c, 12, 66, 53
16, 20445, Note_on_c, 12, 66, 0
16, 20460, Note_on_c, 12, 66, 53
16, 20505, Note_on_c, 12, 66, 0
16, 20520, Note_on_c, 12, 62, 53
16, 20565, Note_on_c, 12, 62, 0
16, 20580, Note_on_c, 12, 62, 53
16, 20625, Note_on_c, 12, 62, 0
16, 20640, Note_on_c, 12, 61, 55
16, 20685, Note_on_c, 12, 61, 0
16, 20700, Note_on_c, 12, 61, 55
16, 20745, Note_on_c, 12, 61, 0
16, 20760, Note_on_c, 12, 62, 55
16, 20805, Note_on_c, 12, 62, 0
16, 20820, Note_on_c, 12, 62, 55
16, 20865, Note_on_c, 12, 62, 0
16, 20880, Note_on_c, 12, 64, 55
16, 20925, Note_on_c, 12, 64, 0
16, 20940, Note_on_c, 12, 64, 55
16, 20985, Note_on_c, 12, 64, 0
16, 21000, Note_on_c, 12, 61, 55
16, 21045, Note_on_c, 12, 61, 0
16, 21060, Note_on_c, 12, 61, 55
16, 21105, Note_on_c, 12, 61, 0
16, 21120, Note_on_c, 12, 62, 55
16, 21165, Note_on_c, 12, 62, 0
16, 21180, Note_on_c, 12, 62, 55
16, 21225, Note_on_c, 12, 62, 0
16, 21240, Note_on_c, 12, 64, 55
16, 21285, Note_on_c, 12, 64, 0
16, 21300, Note_on_c, 12, 64, 55
16, 21345, Note_on_c, 12, 64, 0
16, 21360, Note_on_c, 12, 66, 55
16, 21405, Note_on_c, 12, 66, 0
16, 21420, Note_on_c, 12, 66, 55
16, 21465, Note_on_c, 12, 66, 0
16, 21480, Note_on_c, 12, 62, 55
16, 21525, Note_on_c, 12, 62, 0
16, 21540, Note_on_c, 12, 62, 55
16, 21585, Note_on_c, 12, 62, 0
16, 21600, Note_on_c, 12, 61, 55
16, 21645, Note_on_c, 12, 61, 0
16, 21660, Note_on_c, 12, 61, 55
16, 21705, Note_on_c, 12, 61, 0
16, 21720, Note_on_c, 12, 62, 55
16, 21765, Note_on_c, 12, 62, 0
16, 21780, Note_on_c, 12, 62, 55
16, 21825, Note_on_c, 12, 62, 0
16, 21840, Note_on_c, 12, 64, 55
16, 21885, Note_on_c, 12, 64, 0
16, 21900, Note_on_c, 12, 64, 55
16, 21945, Note_on_c, 12, 64, 0
16, 21960, Note_on_c, 12, 61, 55
16, 22005, Note_on_c, 12, 61, 0
16, 22020, Note_on_c, 12, 61, 55
16, 22065, Note_on_c, 12, 61, 0
16, 22080, Note_on_c, 12, 62, 55
16, 22125, Note_on_c, 12, 62, 0
16, 22140, Note_on_c, 12, 62, 85
16, 22185, Note_on_c, 12, 62, 0
16, 22200, Note_on_c, 12, 66, 85
16, 22245, Note_on_c, 12, 66, 0
16, 22260, Note_on_c, 12, 64, 85
16, 22305, Note_on_c, 12, 64, 0
16, 22320, Note_on_c, 12, 63, 85
16, 22365, Note_on_c, 12, 63, 0
16, 22380, Note_on_c, 12, 59, 85
16, 22425, Note_on_c, 12, 59, 0
16, 22440, Note_on_c, 12, 61, 85
16, 22485, Note_on_c, 12, 61, 0
16, 22500, Note_on_c, 12, 62, 85
16, 22545, Note_on_c, 12, 62, 0
16, 22560, Note_on_c, 12, 64, 85
16, 22605, Note_on_c, 12, 64, 0
16, 22620, Note_on_c, 12, 67, 85
16, 22665, Note_on_c, 12, 67, 0
16, 22680, Note_on_c, 12, 64, 85
16, 22725, Note_on_c, 12, 64, 0
16, 22740, Note_on_c, 12, 62, 85
16, 22785, Note_on_c, 12, 62, 0
16, 22800, Note_on_c, 12, 61, 85
16, 22845, Note_on_c, 12, 61, 0
16, 22860, Note_on_c, 12, 57, 85
16, 22905, Note_on_c, 12, 57, 0
16, 22920, Note_on_c, 12, 59, 85
16, 22965, Note_on_c, 12, 59, 0
16, 22980, Note_on_c, 12, 61, 85
16, 23025, Note_on_c, 12, 61, 0
16, 23040, Note_on_c, 12, 62, 85
16, 23085, Note_on_c, 12, 62, 0
16, 23100, Note_on_c, 12, 74, 85
16, 23145, Note_on_c, 12, 74, 0
16, 23160, Note_on_c, 12, 74, 85
16, 23205, Note_on_c, 12, 74, 0
16, 23220, Note_on_c, 12, 74, 85
16, 23265, Note_on_c, 12, 74, 0
16, 23280, Note_on_c, 12, 74, 85
16, 23325, Note_on_c, 12, 74, 0
16, 23340, Note_on_c, 12, 74, 85
16, 23385, Note_on_c, 12, 74, 0
16, 23400, Note_on_c, 12, 74, 85
16, 23445, Note_on_c, 12, 74, 0
16, 23460, Note_on_c, 12, 74, 85
16, 23505, Note_on_c, 12, 74, 0
16, 23520, Note_on_c, 12, 74, 85
16, 23580, Note_on_c, 12, 74, 0
16, 23580, Note_on_c, 12, 69, 85
16, 23625, Note_on_c, 12, 69, 0
16, 23640, Note_on_c, 12, 69, 85
16, 23670, Note_on_c, 12, 69, 0
16, 23700, Note_on_c, 12, 69, 85
16, 23730, Note_on_c, 12, 69, 0
16, 23760, Note_on_c, 12, 69, 85
16, 23805, Note_on_c, 12, 69, 0
16, 23820, Note_on_c, 12, 69, 85
16, 23865, Note_on_c, 12, 69, 0
16, 23880, Note_on_c, 12, 69, 85
16, 23925, Note_on_c, 12, 69, 0
16, 23940, Note_on_c, 12, 67, 85
16, 23985, Note_on_c, 12, 67, 0
16, 24000, Note_on_c, 12, 66, 85
16, 24045, Note_on_c, 12, 66, 0
16, 24060, Note_on_c, 12, 57, 85
16, 24105, Note_on_c, 12, 57, 0
16, 24120, Note_on_c, 12, 59, 85
16, 24165, Note_on_c, 12, 59, 0
16, 24180, Note_on_c, 12, 61, 85
16, 24225, Note_on_c, 12, 61, 0
16, 24240, Note_on_c, 12, 62, 85
16, 24285, Note_on_c, 12, 62, 0
16, 24300, Note_on_c, 12, 62, 85
16, 24345, Note_on_c, 12, 62, 0
16, 24360, Note_on_c, 12, 64, 85
16, 24405, Note_on_c, 12, 64, 0
16, 24420, Note_on_c, 12, 64, 85
16, 24465, Note_on_c, 12, 64, 0
16, 24480, Note_on_c, 12, 66, 85
16, 24525, Note_on_c, 12, 66, 0
16, 24540, Note_on_c, 12, 61, 85
16, 24585, Note_on_c, 12, 61, 0
16, 24600, Note_on_c, 12, 62, 85
16, 24645, Note_on_c, 12, 62, 0
16, 24660, Note_on_c, 12, 64, 85
16, 24705, Note_on_c, 12, 64, 0
16, 24720, Note_on_c, 12, 66, 85
16, 24765, Note_on_c, 12, 66, 0
16, 24780, Note_on_c, 12, 66, 85
16, 24825, Note_on_c, 12, 66, 0
16, 24840, Note_on_c, 12, 67, 85
16, 24885, Note_on_c, 12, 67, 0
16, 24900, Note_on_c, 12, 67, 85
16, 24945, Note_on_c, 12, 67, 0
16, 24960, Note_on_c, 12, 69, 85
16, 25005, Note_on_c, 12, 69, 0
16, 25020, Note_on_c, 12, 69, 85
16, 25065, Note_on_c, 12, 69, 0
16, 25080, Note_on_c, 12, 70, 85
16, 25125, Note_on_c, 12, 70, 0
16, 25140, Note_on_c, 12, 70, 85
16, 25185, Note_on_c, 12, 70, 0
16, 25200, Note_on_c, 12, 71, 85
16, 25320, Note_on_c, 12, 71, 0
16, 25440, Note_on_c, 12, 64, 55
16, 25800, Note_on_c, 12, 64, 0
16, 25800, Note_on_c, 12, 62, 55
16, 25860, Note_on_c, 12, 62, 0
16, 25860, Note_on_c, 12, 61, 55
16, 25920, Note_on_c, 12, 61, 0
16, 25920, Note_on_c, 12, 62, 55
16, 25980, Note_on_c, 12, 62, 0
16, 26040, Note_on_c, 12, 62, 55
16, 26100, Note_on_c, 12, 62, 0
16, 26160, Note_on_c, 12, 62, 55
16, 26220, Note_on_c, 12, 62, 0
16, 26400, Note_on_c, 12, 67, 85
16, 26520, Note_on_c, 12, 67, 0
16, 26580, Note_on_c, 12, 62, 85
16, 26610, Note_on_c, 12, 62, 0
16, 26640, Note_on_c, 12, 67, 85
16, 26760, Note_on_c, 12, 67, 0
16, 26820, Note_on_c, 12, 62, 85
16, 26850, Note_on_c, 12, 62, 0
16, 26880, Note_on_c, 12, 67, 85
16, 26910, Note_on_c, 12, 67, 0
16, 26940, Note_on_c, 12, 62, 85
16, 26970, Note_on_c, 12, 62, 0
16, 27000, Note_on_c, 12, 67, 85
16, 27030, Note_on_c, 12, 67, 0
16, 27060, Note_on_c, 12, 71, 85
16, 27090, Note_on_c, 12, 71, 0
16, 27120, Note_on_c, 12, 74, 85
16, 27240, Note_on_c, 12, 74, 0
16, 27360, Note_on_c, 12, 72, 85
16, 27480, Note_on_c, 12, 72, 0
16, 27540, Note_on_c, 12, 69, 85
16, 27570, Note_on_c, 12, 69, 0
16, 27600, Note_on_c, 12, 72, 85
16, 27720, Note_on_c, 12, 72, 0
16, 27780, Note_on_c, 12, 69, 85
16, 27810, Note_on_c, 12, 69, 0
16, 27840, Note_on_c, 12, 72, 85
16, 27870, Note_on_c, 12, 72, 0
16, 27900, Note_on_c, 12, 69, 85
16, 27930, Note_on_c, 12, 69, 0
16, 27960, Note_on_c, 12, 66, 85
16, 27990, Note_on_c, 12, 66, 0
16, 28020, Note_on_c, 12, 69, 85
16, 28050, Note_on_c, 12, 69, 0
16, 28080, Note_on_c, 12, 62, 85
16, 28200, Note_on_c, 12, 62, 0
16, 28320, Note_on_c, 12, 67, 85
16, 28365, Note_on_c, 12, 67, 0
16, 28380, Note_on_c, 12, 67, 85
16, 28425, Note_on_c, 12, 67, 0
16, 28440, Note_on_c, 12, 67, 85
16, 28485, Note_on_c, 12, 67, 0
16, 28500, Note_on_c, 12, 67, 85
16, 28545, Note_on_c, 12, 67, 0
16, 28560, Note_on_c, 12, 67, 85
16, 28605, Note_on_c, 12, 67, 0
16, 28620, Note_on_c, 12, 67, 85
16, 28665, Note_on_c, 12, 67, 0
16, 28680, Note_on_c, 12, 67, 85
16, 28725, Note_on_c, 12, 67, 0
16, 28740, Note_on_c, 12, 67, 85
16, 28785, Note_on_c, 12, 67, 0
16, 28800, Note_on_c, 12, 69, 85
16, 28845, Note_on_c, 12, 69, 0
16, 28860, Note_on_c, 12, 69, 85
16, 28905, Note_on_c, 12, 69, 0
16, 28920, Note_on_c, 12, 69, 85
16, 28965, Note_on_c, 12, 69, 0
16, 28980, Note_on_c, 12, 69, 85
16, 29025, Note_on_c, 12, 69, 0
16, 29040, Note_on_c, 12, 69, 85
16, 29100, Note_on_c, 12, 69, 0
16, 29100, Note_on_c, 12, 72, 85
16, 29145, Note_on_c, 12, 72, 0
16, 29160, Note_on_c, 12, 66, 85
16, 29220, Note_on_c, 12, 66, 0
16, 29220, Note_on_c, 12, 69, 85
16, 29265, Note_on_c, 12, 69, 0
16, 29280, Note_on_c, 12, 67, 85
16, 29325, Note_on_c, 12, 67, 0
16, 29340, Note_on_c, 12, 67, 85
16, 29385, Note_on_c, 12, 67, 0
16, 29400, Note_on_c, 12, 67, 85
16, 29445, Note_on_c, 12, 67, 0
16, 29460, Note_on_c, 12, 67, 85
16, 29505, Note_on_c, 12, 67, 0
16, 29520, Note_on_c, 12, 67, 85
16, 29565, Note_on_c, 12, 67, 0
16, 29580, Note_on_c, 12, 67, 85
16, 29625, Note_on_c, 12, 67, 0
16, 29640, Note_on_c, 12, 67, 85
16, 29685, Note_on_c, 12, 67, 0
16, 29700, Note_on_c, 12, 67, 85
16, 29745, Note_on_c, 12, 67, 0
16, 29760, Note_on_c, 12, 69, 85
16, 29805, Note_on_c, 12, 69, 0
16, 29820, Note_on_c, 12, 69, 85
16, 29865, Note_on_c, 12, 69, 0
16, 29880, Note_on_c, 12, 69, 85
16, 29925, Note_on_c, 12, 69, 0
16, 29940, Note_on_c, 12, 69, 85
16, 29985, Note_on_c, 12, 69, 0
16, 30000, Note_on_c, 12, 69, 85
16, 30060, Note_on_c, 12, 69, 0
16, 30060, Note_on_c, 12, 72, 85
16, 30105, Note_on_c, 12, 72, 0
16, 30120, Note_on_c, 12, 66, 85
16, 30180, Note_on_c, 12, 66, 0
16, 30180, Note_on_c, 12, 69, 85
16, 30225, Note_on_c, 12, 69, 0
16, 30240, Note_on_c, 12, 62, 85
16, 30260, Note_on_c, 12, 62, 0
16, 30270, Note_on_c, 12, 62, 85
16, 30290, Note_on_c, 12, 62, 0
16, 30300, Note_on_c, 12, 62, 85
16, 30320, Note_on_c, 12, 62, 0
16, 30330, Note_on_c, 12, 62, 85
16, 30350, Note_on_c, 12, 62, 0
16, 30360, Note_on_c, 12, 62, 85
16, 30380, Note_on_c, 12, 62, 0
16, 30390, Note_on_c, 12, 62, 85
16, 30410, Note_on_c, 12, 62, 0
16, 30420, Note_on_c, 12, 62, 85
16, 30440, Note_on_c, 12, 62, 0
16, 30450, Note_on_c, 12, 62, 85
16, 30470, Note_on_c, 12, 62, 0
16, 30480, Note_on_c, 12, 62, 85
16, 30500, Note_on_c, 12, 62, 0
16, 30510, Note_on_c, 12, 62, 85
16, 30530, Note_on_c, 12, 62, 0
16, 30540, Note_on_c, 12, 62, 85
16, 30560, Note_on_c, 12, 62, 0
16, 30570, Note_on_c, 12, 62, 85
16, 30590, Note_on_c, 12, 62, 0
16, 30600, Note_on_c, 12, 62, 85
16, 30620, Note_on_c, 12, 62, 0
16, 30630, Note_on_c, 12, 62, 85
16, 30650, Note_on_c, 12, 62, 0
16, 30660, Note_on_c, 12, 62, 85
16, 30680, Note_on_c, 12, 62, 0
16, 30690, Note_on_c, 12, 62, 85
16, 30710, Note_on_c, 12, 62, 0
16, 30720, Note_on_c, 12, 62, 85
16, 30740, Note_on_c, 12, 62, 0
16, 30750, Note_on_c, 12, 62, 85
16, 30770, Note_on_c, 12, 62, 0
16, 30780, Note_on_c, 12, 62, 85
16, 30800, Note_on_c, 12, 62, 0
16, 30810, Note_on_c, 12, 62, 85
16, 30830, Note_on_c, 12, 62, 0
16, 30840, Note_on_c, 12, 62, 85
16, 30860, Note_on_c, 12, 62, 0
16, 30870, Note_on_c, 12, 62, 85
16, 30890, Note_on_c, 12, 62, 0
16, 30900, Note_on_c, 12, 62, 85
16, 30920, Note_on_c, 12, 62, 0
16, 30930, Note_on_c, 12, 62, 85
16, 30950, Note_on_c, 12, 62, 0
16, 30960, Note_on_c, 12, 62, 85
16, 31080, Note_on_c, 12, 62, 0
16, 31680, Note_on_c, 12, 54, 47
16, 31920, Note_on_c, 12, 54, 0
16, 31920, Note_on_c, 12, 55, 47
16, 32160, Note_on_c, 12, 55, 0
16, 32160, Note_on_c, 12, 60, 47
16, 32250, Note_on_c, 12, 60, 0
16, 32280, Note_on_c, 12, 60, 47
16, 32370, Note_on_c, 12, 60, 0
16, 32400, Note_on_c, 12, 57, 47
16, 32490, Note_on_c, 12, 57, 0
16, 32520, Note_on_c, 12, 50, 47
16, 32610, Note_on_c, 12, 50, 0
16, 32640, Note_on_c, 12, 50, 47
16, 32700, Note_on_c, 12, 50, 0
16, 32760, Note_on_c, 12, 62, 47
16, 32820, Note_on_c, 12, 62, 0
16, 32880, Note_on_c, 12, 62, 47
16, 33000, Note_on_c, 12, 62, 0
16, 33600, Note_on_c, 12, 66, 47
16, 33840, Note_on_c, 12, 66, 0
16, 33840, Note_on_c, 12, 67, 47
16, 34080, Note_on_c, 12, 67, 0
16, 34080, Note_on_c, 12, 60, 47
16, 34170, Note_on_c, 12, 60, 0
16, 34200, Note_on_c, 12, 60, 47
16, 34245, Note_on_c, 12, 60, 0
16, 34260, Note_on_c, 12, 60, 47
16, 34305, Note_on_c, 12, 60, 0
16, 34320, Note_on_c, 12, 57, 47
16, 34410, Note_on_c, 12, 57, 0
16, 34440, Note_on_c, 12, 57, 47
16, 34485, Note_on_c, 12, 57, 0
16, 34500, Note_on_c, 12, 57, 47
16, 34545, Note_on_c, 12, 57, 0
16, 34560, Note_on_c, 12, 55, 92
16, 34605, Note_on_c, 12, 55, 0
16, 34620, Note_on_c, 12, 55, 71
16, 34665, Note_on_c, 12, 55, 0
16, 34680, Note_on_c, 12, 55, 71
16, 34725, Note_on_c, 12, 55, 0
16, 34740, Note_on_c, 12, 55, 71
16, 34785, Note_on_c, 12, 55, 0
16, 34800, Note_on_c, 12, 55, 55
16, 34845, Note_on_c, 12, 55, 0
16, 34860, Note_on_c, 12, 55, 50
16, 34905, Note_on_c, 12, 55, 0
16, 34920, Note_on_c, 12, 55, 50
16, 34965, Note_on_c, 12, 55, 0
16, 34980, Note_on_c, 12, 55, 50
16, 35025, Note_on_c, 12, 55, 0
16, 35040, Note_on_c, 12, 55, 91
16, 35085, Note_on_c, 12, 55, 0
16, 35100, Note_on_c, 12, 55, 65
16, 35145, Note_on_c, 12, 55, 0
16, 35160, Note_on_c, 12, 55, 65
16, 35205, Note_on_c, 12, 55, 0
16, 35220, Note_on_c, 12, 55, 65
16, 35265, Note_on_c, 12, 55, 0
16, 35280, Note_on_c, 12, 55, 46
16, 35325, Note_on_c, 12, 55, 0
16, 35340, Note_on_c, 12, 55, 46
16, 35385, Note_on_c, 12, 55, 0
16, 35400, Note_on_c, 12, 55, 46
16, 35445, Note_on_c, 12, 55, 0
16, 35460, Note_on_c, 12, 55, 46
16, 35505, Note_on_c, 12, 55, 0
16, 35520, Note_on_c, 12, 55, 59
16, 35565, Note_on_c, 12, 55, 0
16, 35580, Note_on_c, 12, 67, 41
16, 35625, Note_on_c, 12, 67, 0
16, 35640, Note_on_c, 12, 67, 46
16, 35685, Note_on_c, 12, 67, 0
16, 35700, Note_on_c, 12, 67, 49
16, 35745, Note_on_c, 12, 67, 0
16, 35760, Note_on_c, 12, 67, 53
16, 35805, Note_on_c, 12, 67, 0
16, 35820, Note_on_c, 12, 67, 56
16, 35865, Note_on_c, 12, 67, 0
16, 35880, Note_on_c, 12, 69, 61
16, 35925, Note_on_c, 12, 69, 0
16, 35940, Note_on_c, 12, 69, 64
16, 35985, Note_on_c, 12, 69, 0
16, 36000, Note_on_c, 12, 67, 68
16, 36045, Note_on_c, 12, 67, 0
16, 36060, Note_on_c, 12, 67, 71
16, 36105, Note_on_c, 12, 67, 0
16, 36120, Note_on_c, 12, 66, 76
16, 36165, Note_on_c, 12, 66, 0
16, 36180, Note_on_c, 12, 66, 79
16, 36225, Note_on_c, 12, 66, 0
16, 36240, Note_on_c, 12, 67, 82
16, 36285, Note_on_c, 12, 67, 0
16, 36300, Note_on_c, 12, 67, 82
16, 36345, Note_on_c, 12, 67, 0
16, 36360, Note_on_c, 12, 64, 82
16, 36405, Note_on_c, 12, 64, 0
16, 36420, Note_on_c, 12, 64, 82
16, 36465, Note_on_c, 12, 64, 0
16, 36480, Note_on_c, 12, 69, 85
16, 36480, Note_on_c, 12, 62, 85
16, 36500, Note_on_c, 12, 62, 0
16, 36500, Note_on_c, 12, 69, 0
16, 36510, Note_on_c, 12, 69, 85
16, 36510, Note_on_c, 12, 62, 85
16, 36530, Note_on_c, 12, 62, 0
16, 36530, Note_on_c, 12, 69, 0
16, 36540, Note_on_c, 12, 69, 85
16, 36540, Note_on_c, 12, 62, 85
16, 36560, Note_on_c, 12, 62, 0
16, 36560, Note_on_c, 12, 69, 0
16, 36570, Note_on_c, 12, 69, 85
16, 36570, Note_on_c, 12, 62, 85
16, 36590, Note_on_c, 12, 62, 0
16, 36590, Note_on_c, 12, 69, 0
16, 36600, Note_on_c, 12, 69, 85
16, 36600, Note_on_c, 12, 62, 85
16, 36620, Note_on_c, 12, 62, 0
16, 36620, Note_on_c, 12, 69, 0
16, 36630, Note_on_c, 12, 69, 85
16, 36630, Note_on_c, 12, 62, 85
16, 36650, Note_on_c, 12, 62, 0
16, 36650, Note_on_c, 12, 69, 0
16, 36660, Note_on_c, 12, 69, 85
16, 36660, Note_on_c, 12, 62, 85
16, 36680, Note_on_c, 12, 62, 0
16, 36680, Note_on_c, 12, 69, 0
16, 36690, Note_on_c, 12, 69, 85
16, 36690, Note_on_c, 12, 62, 85
16, 36710, Note_on_c, 12, 62, 0
16, 36710, Note_on_c, 12, 69, 0
16, 36720, Note_on_c, 12, 69, 85
16, 36720, Note_on_c, 12, 64, 85
16, 36740, Note_on_c, 12, 64, 0
16, 36740, Note_on_c, 12, 69, 0
16, 36750, Note_on_c, 12, 69, 85
16, 36750, Note_on_c, 12, 64, 85
16, 36770, Note_on_c, 12, 64, 0
16, 36770, Note_on_c, 12, 69, 0
16, 36780, Note_on_c, 12, 69, 85
16, 36780, Note_on_c, 12, 64, 85
16, 36800, Note_on_c, 12, 64, 0
16, 36800, Note_on_c, 12, 69, 0
16, 36810, Note_on_c, 12, 69, 85
16, 36810, Note_on_c, 12, 64, 85
16, 36830, Note_on_c, 12, 64, 0
16, 36830, Note_on_c, 12, 69, 0
16, 36840, Note_on_c, 12, 69, 85
16, 36840, Note_on_c, 12, 64, 85
16, 36860, Note_on_c, 12, 64, 0
16, 36860, Note_on_c, 12, 69, 0
16, 36870, Note_on_c, 12, 69, 85
16, 36870, Note_on_c, 12, 64, 85
16, 36890, Note_on_c, 12, 64, 0
16, 36890, Note_on_c, 12, 69, 0
16, 36900, Note_on_c, 12, 69, 85
16, 36900, Note_on_c, 12, 64, 85
16, 36920, Note_on_c, 12, 64, 0
16, 36920, Note_on_c, 12, 69, 0
16, 36930, Note_on_c, 12, 69, 85
16, 36930, Note_on_c, 12, 64, 85
16, 36950, Note_on_c, 12, 64, 0
16, 36950, Note_on_c, 12, 69, 0
16, 36960, Note_on_c, 12, 69, 85
16, 36960, Note_on_c, 12, 62, 85
16, 36980, Note_on_c, 12, 62, 0
16, 36980, Note_on_c, 12, 69, 0
16, 36990, Note_on_c, 12, 69, 85
16, 36990, Note_on_c, 12, 62, 85
16, 37010, Note_on_c, 12, 62, 0
16, 37010, Note_on_c, 12, 69, 0
16, 37020, Note_on_c, 12, 69, 85
16, 37020, Note_on_c, 12, 62, 85
16, 37040, Note_on_c, 12, 62, 0
16, 37040, Note_on_c, 12, 69, 0
16, 37050, Note_on_c, 12, 69, 85
16, 37050, Note_on_c, 12, 62, 85
16, 37070, Note_on_c, 12, 62, 0
16, 37070, Note_on_c, 12, 69, 0
16, 37080, Note_on_c, 12, 69, 85
16, 37080, Note_on_c, 12, 62, 85
16, 37100, Note_on_c, 12, 62, 0
16, 37100, Note_on_c, 12, 69, 0
16, 37110, Note_on_c, 12, 69, 85
16, 37110, Note_on_c, 12, 62, 85
16, 37130, Note_on_c, 12, 62, 0
16, 37130, Note_on_c, 12, 69, 0
16, 37140, Note_on_c, 12, 69, 85
16, 37140, Note_on_c, 12, 62, 85
16, 37160, Note_on_c, 12, 62, 0
16, 37160, Note_on_c, 12, 69, 0
16, 37170, Note_on_c, 12, 69, 85
16, 37170, Note_on_c, 12, 62, 85
16, 37190, Note_on_c, 12, 62, 0
16, 37190, Note_on_c, 12, 69, 0
16, 37200, Note_on_c, 12, 69, 85
16, 37200, Note_on_c, 12, 64, 85
16, 37220, Note_on_c, 12, 64, 0
16, 37220, Note_on_c, 12, 69, 0
16, 37230, Note_on_c, 12, 69, 85
16, 37230, Note_on_c, 12, 64, 85
16, 37250, Note_on_c, 12, 64, 0
16, 37250, Note_on_c, 12, 69, 0
16, 37260, Note_on_c, 12, 69, 85
16, 37260, Note_on_c, 12, 64, 85
16, 37280, Note_on_c, 12, 64, 0
16, 37280, Note_on_c, 12, 69, 0
16, 37290, Note_on_c, 12, 69, 85
16, 37290, Note_on_c, 12, 64, 85
16, 37310, Note_on_c, 12, 64, 0
16, 37310, Note_on_c, 12, 69, 0
16, 37320, Note_on_c, 12, 69, 85
16, 37320, Note_on_c, 12, 64, 85
16, 37340, Note_on_c, 12, 64, 0
16, 37340, Note_on_c, 12, 69, 0
16, 37350, Note_on_c, 12, 69, 85
16, 37350, Note_on_c, 12, 64, 85
16, 37370, Note_on_c, 12, 64, 0
16, 37370, Note_on_c, 12, 69, 0
16, 37380, Note_on_c, 12, 69, 85
16, 37380, Note_on_c, 12, 64, 85
16, 37400, Note_on_c, 12, 64, 0
16, 37400, Note_on_c, 12, 69, 0
16, 37410, Note_on_c, 12, 69, 85
16, 37410, Note_on_c, 12, 64, 85
16, 37430, Note_on_c, 12, 64, 0
16, 37430, Note_on_c, 12, 69, 0
16, 37440, Note_on_c, 12, 62, 85
16, 37485, Note_on_c, 12, 62, 0
16, 37500, Note_on_c, 12, 64, 85
16, 37545, Note_on_c, 12, 64, 0
16, 37560, Note_on_c, 12, 66, 85
16, 37605, Note_on_c, 12, 66, 0
16, 37620, Note_on_c, 12, 64, 85
16, 37665, Note_on_c, 12, 64, 0
16, 37680, Note_on_c, 12, 62, 85
16, 37725, Note_on_c, 12, 62, 0
16, 37740, Note_on_c, 12, 64, 85
16, 37785, Note_on_c, 12, 64, 0
16, 37800, Note_on_c, 12, 66, 85
16, 37845, Note_on_c, 12, 66, 0
16, 37860, Note_on_c, 12, 62, 85
16, 37905, Note_on_c, 12, 62, 0
16, 37920, Note_on_c, 12, 71, 85
16, 37965, Note_on_c, 12, 71, 0
16, 37980, Note_on_c, 12, 69, 85
16, 38025, Note_on_c, 12, 69, 0
16, 38040, Note_on_c, 12, 67, 85
16, 38085, Note_on_c, 12, 67, 0
16, 38100, Note_on_c, 12, 69, 85
16, 38145, Note_on_c, 12, 69, 0
16, 38160, Note_on_c, 12, 71, 85
16, 38205, Note_on_c, 12, 71, 0
16, 38220, Note_on_c, 12, 69, 85
16, 38265, Note_on_c, 12, 69, 0
16, 38280, Note_on_c, 12, 68, 85
16, 38325, Note_on_c, 12, 68, 0
16, 38340, Note_on_c, 12, 71, 85
16, 38385, Note_on_c, 12, 71, 0
16, 38400, Note_on_c, 12, 69, 85
16, 38445, Note_on_c, 12, 69, 0
16, 38460, Note_on_c, 12, 69, 85
16, 38505, Note_on_c, 12, 69, 0
16, 38520, Note_on_c, 12, 69, 85
16, 38565, Note_on_c, 12, 69, 0
16, 38580, Note_on_c, 12, 69, 85
16, 38625, Note_on_c, 12, 69, 0
16, 38640, Note_on_c, 12, 69, 85
16, 38685, Note_on_c, 12, 69, 0
16, 38700, Note_on_c, 12, 69, 85
16, 38745, Note_on_c, 12, 69, 0
16, 38760, Note_on_c, 12, 69, 85
16, 38805, Note_on_c, 12, 69, 0
16, 38820, Note_on_c, 12, 69, 85
16, 38865, Note_on_c, 12, 69, 0
16, 38880, Note_on_c, 12, 69, 85
16, 38925, Note_on_c, 12, 69, 0
16, 38940, Note_on_c, 12, 57, 85
16, 38985, Note_on_c, 12, 57, 0
16, 39000, Note_on_c, 12, 57, 85
16, 39045, Note_on_c, 12, 57, 0
16, 39060, Note_on_c, 12, 57, 85
16, 39105, Note_on_c, 12, 57, 0
16, 39120, Note_on_c, 12, 57, 85
16, 39240, Note_on_c, 12, 57, 0
16, 39720, Note_on_c, 12, 66, 55
16, 39780, Note_on_c, 12, 66, 0
16, 39840, Note_on_c, 12, 59, 55
16, 39900, Note_on_c, 12, 59, 0
16, 39960, Note_on_c, 12, 67, 55
16, 40020, Note_on_c, 12, 67, 0
16, 40080, Note_on_c, 12, 64, 55
16, 40140, Note_on_c, 12, 64, 0
16, 40200, Note_on_c, 12, 61, 55
16, 40260, Note_on_c, 12, 61, 0
16, 40440, Note_on_c, 12, 64, 55
16, 40560, Note_on_c, 12, 64, 0
16, 40560, Note_on_c, 12, 62, 55
16, 40620, Note_on_c, 12, 62, 0
16, 40680, Note_on_c, 12, 64, 55
16, 40740, Note_on_c, 12, 64, 0
16, 40800, Note_on_c, 12, 62, 55
16, 41040, Note_on_c, 12, 62, 0
16, 41040, Note_on_c, 12, 61, 55
16, 41160, Note_on_c, 12, 61, 0
16, 41400, Note_on_c, 12, 61, 55
16, 41520, Note_on_c, 12, 61, 0
16, 41520, Note_on_c, 12, 62, 55
16, 41580, Note_on_c, 12, 62, 0
16, 41640, Note_on_c, 12, 66, 55
16, 41700, Note_on_c, 12, 66, 0
16, 41760, Note_on_c, 12, 59, 55
16, 41820, Note_on_c, 12, 59, 0
16, 41880, Note_on_c, 12, 55, 55
16, 41940, Note_on_c, 12, 55, 0
16, 42000, Note_on_c, 12, 52, 55
16, 42120, Note_on_c, 12, 52, 0
16, 42180, Note_on_c, 12, 64, 55
16, 42225, Note_on_c, 12, 64, 0
16, 42240, Note_on_c, 12, 64, 55
16, 42300, Note_on_c, 12, 64, 0
16, 42300, Note_on_c, 12, 62, 55
16, 42360, Note_on_c, 12, 62, 0
16, 42720, Note_on_c, 12, 62, 55
16, 42765, Note_on_c, 12, 62, 0
16, 42780, Note_on_c, 12, 62, 55
16, 42825, Note_on_c, 12, 62, 0
16, 42840, Note_on_c, 12, 64, 55
16, 42885, Note_on_c, 12, 64, 0
16, 42900, Note_on_c, 12, 64, 55
16, 42945, Note_on_c, 12, 64, 0
16, 42960, Note_on_c, 12, 66, 55
16, 43005, Note_on_c, 12, 66, 0
16, 43020, Note_on_c, 12, 66, 55
16, 43065, Note_on_c, 12, 66, 0
16, 43080, Note_on_c, 12, 62, 55
16, 43125, Note_on_c, 12, 62, 0
16, 43140, Note_on_c, 12, 62, 55
16, 43185, Note_on_c, 12, 62, 0
16, 43200, Note_on_c, 12, 61, 55
16, 43245, Note_on_c, 12, 61, 0
16, 43260, Note_on_c, 12, 61, 55
16, 43305, Note_on_c, 12, 61, 0
16, 43320, Note_on_c, 12, 62, 55
16, 43365, Note_on_c, 12, 62, 0
16, 43380, Note_on_c, 12, 62, 55
16, 43425, Note_on_c, 12, 62, 0
16, 43440, Note_on_c, 12, 64, 55
16, 43485, Note_on_c, 12, 64, 0
16, 43500, Note_on_c, 12, 64, 55
16, 43545, Note_on_c, 12, 64, 0
16, 43560, Note_on_c, 12, 61, 55
16, 43605, Note_on_c, 12, 61, 0
16, 43620, Note_on_c, 12, 61, 55
16, 43665, Note_on_c, 12, 61, 0
16, 43680, Note_on_c, 12, 62, 55
16, 43725, Note_on_c, 12, 62, 0
16, 43740, Note_on_c, 12, 62, 55
16, 43785, Note_on_c, 12, 62, 0
16, 43800, Note_on_c, 12, 64, 55
16, 43845, Note_on_c, 12, 64, 0
16, 43860, Note_on_c, 12, 64, 55
16, 43905, Note_on_c, 12, 64, 0
16, 43920, Note_on_c, 12, 66, 55
16, 43965, Note_on_c, 12, 66, 0
16, 43980, Note_on_c, 12, 66, 55
16, 44025, Note_on_c, 12, 66, 0
16, 44040, Note_on_c, 12, 62, 55
16, 44085, Note_on_c, 12, 62, 0
16, 44100, Note_on_c, 12, 62, 55
16, 44145, Note_on_c, 12, 62, 0
16, 44160, Note_on_c, 12, 61, 55
16, 44205, Note_on_c, 12, 61, 0
16, 44220, Note_on_c, 12, 61, 55
16, 44265, Note_on_c, 12, 61, 0
16, 44280, Note_on_c, 12, 62, 55
16, 44325, Note_on_c, 12, 62, 0
16, 44340, Note_on_c, 12, 62, 55
16, 44385, Note_on_c, 12, 62, 0
16, 44400, Note_on_c, 12, 64, 55
16, 44445, Note_on_c, 12, 64, 0
16, 44460, Note_on_c, 12, 64, 55
16, 44505, Note_on_c, 12, 64, 0
16, 44520, Note_on_c, 12, 61, 55
16, 44565, Note_on_c, 12, 61, 0
16, 44580, Note_on_c, 12, 61, 55
16, 44625, Note_on_c, 12, 61, 0
16, 44640, Note_on_c, 12, 62, 55
16, 44685, Note_on_c, 12, 62, 0
16, 44700, Note_on_c, 12, 62, 55
16, 44745, Note_on_c, 12, 62, 0
16, 44760, Note_on_c, 12, 66, 55
16, 44805, Note_on_c, 12, 66, 0
16, 44820, Note_on_c, 12, 64, 55
16, 44865, Note_on_c, 12, 64, 0
16, 44880, Note_on_c, 12, 63, 55
16, 44925, Note_on_c, 12, 63, 0
16, 44940, Note_on_c, 12, 59, 55
16, 44985, Note_on_c, 12, 59, 0
16, 45000, Note_on_c, 12, 61, 55
16, 45045, Note_on_c, 12, 61, 0
16, 45060, Note_on_c, 12, 62, 55
16, 45105, Note_on_c, 12, 62, 0
16, 45120, Note_on_c, 12, 64, 85
16, 45165, Note_on_c, 12, 64, 0
16, 45180, Note_on_c, 12, 67, 85
16, 45225, Note_on_c, 12, 67, 0
16, 45240, Note_on_c, 12, 64, 85
16, 45285, Note_on_c, 12, 64, 0
16, 45300, Note_on_c, 12, 62, 85
16, 45345, Note_on_c, 12, 62, 0
16, 45360, Note_on_c, 12, 61, 85
16, 45405, Note_on_c, 12, 61, 0
16, 45420, Note_on_c, 12, 57, 55
16, 45465, Note_on_c, 12, 57, 0
16, 45480, Note_on_c, 12, 59, 85
16, 45525, Note_on_c, 12, 59, 0
16, 45540, Note_on_c, 12, 61, 85
16, 45585, Note_on_c, 12, 61, 0
16, 45600, Note_on_c, 12, 62, 85
16, 45645, Note_on_c, 12, 62, 0
16, 45660, Note_on_c, 12, 74, 85
16, 45705, Note_on_c, 12, 74, 0
16, 45720, Note_on_c, 12, 74, 85
16, 45765, Note_on_c, 12, 74, 0
16, 45780, Note_on_c, 12, 74, 85
16, 45825, Note_on_c, 12, 74, 0
16, 45840, Note_on_c, 12, 74, 85
16, 45885, Note_on_c, 12, 74, 0
16, 45900, Note_on_c, 12, 74, 85
16, 45945, Note_on_c, 12, 74, 0
16, 45960, Note_on_c, 12, 74, 85
16, 46005, Note_on_c, 12, 74, 0
16, 46020, Note_on_c, 12, 74, 85
16, 46065, Note_on_c, 12, 74, 0
16, 46080, Note_on_c, 12, 74, 85
16, 46140, Note_on_c, 12, 74, 0
16, 46140, Note_on_c, 12, 69, 85
16, 46185, Note_on_c, 12, 69, 0
16, 46200, Note_on_c, 12, 69, 85
16, 46230, Note_on_c, 12, 69, 0
16, 46260, Note_on_c, 12, 69, 85
16, 46290, Note_on_c, 12, 69, 0
16, 46320, Note_on_c, 12, 69, 85
16, 46365, Note_on_c, 12, 69, 0
16, 46380, Note_on_c, 12, 69, 85
16, 46425, Note_on_c, 12, 69, 0
16, 46440, Note_on_c, 12, 69, 85
16, 46485, Note_on_c, 12, 69, 0
16, 46500, Note_on_c, 12, 67, 85
16, 46545, Note_on_c, 12, 67, 0
16, 46560, Note_on_c, 12, 62, 85
16, 46605, Note_on_c, 12, 62, 0
16, 46620, Note_on_c, 12, 62, 53
16, 46665, Note_on_c, 12, 62, 0
16, 46680, Note_on_c, 12, 64, 53
16, 46725, Note_on_c, 12, 64, 0
16, 46740, Note_on_c, 12, 64, 53
16, 46785, Note_on_c, 12, 64, 0
16, 46800, Note_on_c, 12, 66, 53
16, 46845, Note_on_c, 12, 66, 0
16, 46860, Note_on_c, 12, 66, 53
16, 46905, Note_on_c, 12, 66, 0
16, 46920, Note_on_c, 12, 62, 53
16, 46965, Note_on_c, 12, 62, 0
16, 46980, Note_on_c, 12, 62, 53
16, 47025, Note_on_c, 12, 62, 0
16, 47040, Note_on_c, 12, 61, 55
16, 47085, Note_on_c, 12, 61, 0
16, 47100, Note_on_c, 12, 61, 55
16, 47145, Note_on_c, 12, 61, 0
16, 47160, Note_on_c, 12, 62, 55
16, 47205, Note_on_c, 12, 62, 0
16, 47220, Note_on_c, 12, 62, 55
16, 47265, Note_on_c, 12, 62, 0
16, 47280, Note_on_c, 12, 64, 55
16, 47325, Note_on_c, 12, 64, 0
16, 47340, Note_on_c, 12, 64, 55
16, 47385, Note_on_c, 12, 64, 0
16, 47400, Note_on_c, 12, 61, 55
16, 47445, Note_on_c, 12, 61, 0
16, 47460, Note_on_c, 12, 61, 55
16, 47505, Note_on_c, 12, 61, 0
16, 47520, Note_on_c, 12, 62, 55
16, 47565, Note_on_c, 12, 62, 0
16, 47580, Note_on_c, 12, 62, 55
16, 47625, Note_on_c, 12, 62, 0
16, 47640, Note_on_c, 12, 64, 55
16, 47685, Note_on_c, 12, 64, 0
16, 47700, Note_on_c, 12, 64, 55
16, 47745, Note_on_c, 12, 64, 0
16, 47760, Note_on_c, 12, 66, 55
16, 47805, Note_on_c, 12, 66, 0
16, 47820, Note_on_c, 12, 66, 55
16, 47865, Note_on_c, 12, 66, 0
16, 47880, Note_on_c, 12, 62, 55
16, 47925, Note_on_c, 12, 62, 0
16, 47940, Note_on_c, 12, 62, 55
16, 47985, Note_on_c, 12, 62, 0
16, 48000, Note_on_c, 12, 61, 55
16, 48045, Note_on_c, 12, 61, 0
16, 48060, Note_on_c, 12, 61, 55
16, 48105, Note_on_c, 12, 61, 0
16, 48120, Note_on_c, 12, 62, 55
16, 48165, Note_on_c, 12, 62, 0
16, 48180, Note_on_c, 12, 62, 55
16, 48225, Note_on_c, 12, 62, 0
16, 48240, Note_on_c, 12, 64, 55
16, 48285, Note_on_c, 12, 64, 0
16, 48300, Note_on_c, 12, 64, 55
16, 48345, Note_on_c, 12, 64, 0
16, 48360, Note_on_c, 12, 61, 55
16, 48405, Note_on_c, 12, 61, 0
16, 48420, Note_on_c, 12, 61, 55
16, 48465, Note_on_c, 12, 61, 0
16, 48480, Note_on_c, 12, 62, 55
16, 48525, Note_on_c, 12, 62, 0
16, 48540, Note_on_c, 12, 62, 85
16, 48585, Note_on_c, 12, 62, 0
16, 48600, Note_on_c, 12, 66, 85
16, 48645, Note_on_c, 12, 66, 0
16, 48660, Note_on_c, 12, 64, 85
16, 48705, Note_on_c, 12, 64, 0
16, 48720, Note_on_c, 12, 63, 85
16, 48765, Note_on_c, 12, 63, 0
16, 48780, Note_on_c, 12, 59, 85
16, 48825, Note_on_c, 12, 59, 0
16, 48840, Note_on_c, 12, 61, 85
16, 48885, Note_on_c, 12, 61, 0
16, 48900, Note_on_c, 12, 62, 85
16, 48945, Note_on_c, 12, 62, 0
16, 48960, Note_on_c, 12, 64, 85
16, 49005, Note_on_c, 12, 64, 0
16, 49020, Note_on_c, 12, 67, 85
16, 49065, Note_on_c, 12, 67, 0
16, 49080, Note_on_c, 12, 64, 85
16, 49125, Note_on_c, 12, 64, 0
16, 49140, Note_on_c, 12, 62, 85
16, 49185, Note_on_c, 12, 62, 0
16, 49200, Note_on_c, 12, 61, 85
16, 49245, Note_on_c, 12, 61, 0
16, 49260, Note_on_c, 12, 57, 85
16, 49305, Note_on_c, 12, 57, 0
16, 49320, Note_on_c, 12, 59, 85
16, 49365, Note_on_c, 12, 59, 0
16, 49380, Note_on_c, 12, 61, 85
16, 49425, Note_on_c, 12, 61, 0
16, 49440, Note_on_c, 12, 62, 85
16, 49485, Note_on_c, 12, 62, 0
16, 49500, Note_on_c, 12, 74, 85
16, 49545, Note_on_c, 12, 74, 0
16, 49560, Note_on_c, 12, 74, 85
16, 49605, Note_on_c, 12, 74, 0
16, 49620, Note_on_c, 12, 74, 85
16, 49665, Note_on_c, 12, 74, 0
16, 49680, Note_on_c, 12, 74, 85
16, 49725, Note_on_c, 12, 74, 0
16, 49740, Note_on_c, 12, 74, 85
16, 49785, Note_on_c, 12, 74, 0
16, 49800, Note_on_c, 12, 74, 85
16, 49845, Note_on_c, 12, 74, 0
16, 49860, Note_on_c, 12, 74, 85
16, 49905, Note_on_c, 12, 74, 0
16, 49920, Note_on_c, 12, 74, 85
16, 49980, Note_on_c, 12, 74, 0
16, 49980, Note_on_c, 12, 69, 85
16, 50025, Note_on_c, 12, 69, 0
16, 50040, Note_on_c, 12, 69, 85
16, 50070, Note_on_c, 12, 69, 0
16, 50100, Note_on_c, 12, 69, 85
16, 50130, Note_on_c, 12, 69, 0
16, 50160, Note_on_c, 12, 69, 85
16, 50205, Note_on_c, 12, 69, 0
16, 50220, Note_on_c, 12, 69, 85
16, 50265, Note_on_c, 12, 69, 0
16, 50280, Note_on_c, 12, 69, 85
16, 50325, Note_on_c, 12, 69, 0
16, 50340, Note_on_c, 12, 67, 85
16, 50385, Note_on_c, 12, 67, 0
16, 50400, Note_on_c, 12, 66, 85
16, 50445, Note_on_c, 12, 66, 0
16, 50460, Note_on_c, 12, 57, 85
16, 50505, Note_on_c, 12, 57, 0
16, 50520, Note_on_c, 12, 59, 85
16, 50565, Note_on_c, 12, 59, 0
16, 50580, Note_on_c, 12, 61, 85
16, 50625, Note_on_c, 12, 61, 0
16, 50640, Note_on_c, 12, 62, 85
16, 50685, Note_on_c, 12, 62, 0
16, 50700, Note_on_c, 12, 62, 85
16, 50745, Note_on_c, 12, 62, 0
16, 50760, Note_on_c, 12, 64, 85
16, 50805, Note_on_c, 12, 64, 0
16, 50820, Note_on_c, 12, 64, 85
16, 50865, Note_on_c, 12, 64, 0
16, 50880, Note_on_c, 12, 66, 85
16, 50925, Note_on_c, 12, 66, 0
16, 50940, Note_on_c, 12, 61, 85
16, 50985, Note_on_c, 12, 61, 0
16, 51000, Note_on_c, 12, 62, 85
16, 51045, Note_on_c, 12, 62, 0
16, 51060, Note_on_c, 12, 64, 85
16, 51105, Note_on_c, 12, 64, 0
16, 51120, Note_on_c, 12, 66, 85
16, 51165, Note_on_c, 12, 66, 0
16, 51180, Note_on_c, 12, 66, 85
16, 51225, Note_on_c, 12, 66, 0
16, 51240, Note_on_c, 12, 67, 85
16, 51285, Note_on_c, 12, 67, 0
16, 51300, Note_on_c, 12, 67, 85
16, 51345, Note_on_c, 12, 67, 0
16, 51360, Note_on_c, 12, 69, 85
16, 51405, Note_on_c, 12, 69, 0
16, 51420, Note_on_c, 12, 69, 85
16, 51465, Note_on_c, 12, 69, 0
16, 51480, Note_on_c, 12, 70, 85
16, 51525, Note_on_c, 12, 70, 0
16, 51540, Note_on_c, 12, 70, 85
16, 51585, Note_on_c, 12, 70, 0
16, 51600, Note_on_c, 12, 71, 85
16, 51720, Note_on_c, 12, 71, 0
16, 51840, Note_on_c, 12, 64, 55
16, 52200, Note_on_c, 12, 64, 0
16, 52200, Note_on_c, 12, 62, 55
16, 52260, Note_on_c, 12, 62, 0
16, 52260, Note_on_c, 12, 61, 55
16, 52320, Note_on_c, 12, 61, 0
16, 52320, Note_on_c, 12, 62, 55
16, 52380, Note_on_c, 12, 62, 0
16, 52440, Note_on_c, 12, 62, 55
16, 52500, Note_on_c, 12, 62, 0
16, 52560, Note_on_c, 12, 62, 55
16, 52620, Note_on_c, 12, 62, 0
16, 52800, Note_on_c, 12, 62, 89
16, 52920, Note_on_c, 12, 62, 0
16, 52980, Note_on_c, 12, 57, 89
16, 53025, Note_on_c, 12, 57, 0
16, 53040, Note_on_c, 12, 62, 89
16, 53160, Note_on_c, 12, 62, 0
16, 53220, Note_on_c, 12, 57, 89
16, 53265, Note_on_c, 12, 57, 0
16, 53280, Note_on_c, 12, 62, 89
16, 53325, Note_on_c, 12, 62, 0
16, 53340, Note_on_c, 12, 57, 89
16, 53385, Note_on_c, 12, 57, 0
16, 53400, Note_on_c, 12, 62, 89
16, 53445, Note_on_c, 12, 62, 0
16, 53460, Note_on_c, 12, 66, 89
16, 53505, Note_on_c, 12, 66, 0
16, 53520, Note_on_c, 12, 69, 89
16, 53640, Note_on_c, 12, 69, 0
16, 53760, Note_on_c, 12, 69, 89
16, 53880, Note_on_c, 12, 69, 0
16, 53940, Note_on_c, 12, 66, 89
16, 53985, Note_on_c, 12, 66, 0
16, 54000, Note_on_c, 12, 69, 89
16, 54120, Note_on_c, 12, 69, 0
16, 54180, Note_on_c, 12, 66, 89
16, 54225, Note_on_c, 12, 66, 0
16, 54240, Note_on_c, 12, 69, 89
16, 54285, Note_on_c, 12, 69, 0
16, 54300, Note_on_c, 12, 66, 89
16, 54345, Note_on_c, 12, 66, 0
16, 54360, Note_on_c, 12, 63, 89
16, 54405, Note_on_c, 12, 63, 0
16, 54420, Note_on_c, 12, 66, 89
16, 54465, Note_on_c, 12, 66, 0
16, 54480, Note_on_c, 12, 59, 89
16, 54600, Note_on_c, 12, 59, 0
16, 54720, Note_on_c, 12, 60, 55
16, 54765, Note_on_c, 12, 60, 0
16, 54780, Note_on_c, 12, 60, 55
16, 54825, Note_on_c, 12, 60, 0
16, 54840, Note_on_c, 12, 62, 55
16, 54885, Note_on_c, 12, 62, 0
16, 54900, Note_on_c, 12, 62, 55
16, 54945, Note_on_c, 12, 62, 0
16, 54960, Note_on_c, 12, 64, 55
16, 55005, Note_on_c, 12, 64, 0
16, 55020, Note_on_c, 12, 64, 55
16, 55065, Note_on_c, 12, 64, 0
16, 55080, Note_on_c, 12, 60, 55
16, 55125, Note_on_c, 12, 60, 0
16, 55140, Note_on_c, 12, 60, 55
16, 55185, Note_on_c, 12, 60, 0
16, 55200, Note_on_c, 12, 59, 55
16, 55245, Note_on_c, 12, 59, 0
16, 55260, Note_on_c, 12, 59, 55
16, 55305, Note_on_c, 12, 59, 0
16, 55320, Note_on_c, 12, 60, 55
16, 55365, Note_on_c, 12, 60, 0
16, 55380, Note_on_c, 12, 60, 55
16, 55425, Note_on_c, 12, 60, 0
16, 55440, Note_on_c, 12, 62, 55
16, 55485, Note_on_c, 12, 62, 0
16, 55500, Note_on_c, 12, 62, 55
16, 55545, Note_on_c, 12, 62, 0
16, 55560, Note_on_c, 12, 59, 55
16, 55605, Note_on_c, 12, 59, 0
16, 55620, Note_on_c, 12, 59, 55
16, 55665, Note_on_c, 12, 59, 0
16, 55680, Note_on_c, 12, 60, 55
16, 55725, Note_on_c, 12, 60, 0
16, 55740, Note_on_c, 12, 60, 55
16, 55785, Note_on_c, 12, 60, 0
16, 55800, Note_on_c, 12, 62, 55
16, 55845, Note_on_c, 12, 62, 0
16, 55860, Note_on_c, 12, 62, 55
16, 55905, Note_on_c, 12, 62, 0
16, 55920, Note_on_c, 12, 64, 55
16, 55965, Note_on_c, 12, 64, 0
16, 55980, Note_on_c, 12, 64, 55
16, 56025, Note_on_c, 12, 64, 0
16, 56040, Note_on_c, 12, 60, 55
16, 56085, Note_on_c, 12, 60, 0
16, 56100, Note_on_c, 12, 60, 55
16, 56145, Note_on_c, 12, 60, 0
16, 56160, Note_on_c, 12, 59, 55
16, 56205, Note_on_c, 12, 59, 0
16, 56220, Note_on_c, 12, 59, 55
16, 56265, Note_on_c, 12, 59, 0
16, 56280, Note_on_c, 12, 60, 55
16, 56325, Note_on_c, 12, 60, 0
16, 56340, Note_on_c, 12, 60, 55
16, 56385, Note_on_c, 12, 60, 0
16, 56400, Note_on_c, 12, 62, 55
16, 56445, Note_on_c, 12, 62, 0
16, 56460, Note_on_c, 12, 62, 55
16, 56505, Note_on_c, 12, 62, 0
16, 56520, Note_on_c, 12, 59, 55
16, 56565, Note_on_c, 12, 59, 0
16, 56580, Note_on_c, 12, 59, 55
16, 56625, Note_on_c, 12, 59, 0
16, 56640, Note_on_c, 12, 60, 55
16, 56685, Note_on_c, 12, 60, 0
16, 56700, Note_on_c, 12, 60, 55
16, 56745, Note_on_c, 12, 60, 0
16, 56760, Note_on_c, 12, 62, 55
16, 56805, Note_on_c, 12, 62, 0
16, 56820, Note_on_c, 12, 62, 55
16, 56865, Note_on_c, 12, 62, 0
16, 56880, Note_on_c, 12, 64, 55
16, 56925, Note_on_c, 12, 64, 0
16, 56940, Note_on_c, 12, 64, 55
16, 56985, Note_on_c, 12, 64, 0
16, 57000, Note_on_c, 12, 60, 55
16, 57045, Note_on_c, 12, 60, 0
16, 57060, Note_on_c, 12, 60, 55
16, 57105, Note_on_c, 12, 60, 0
16, 57120, Note_on_c, 12, 59, 55
16, 57165, Note_on_c, 12, 59, 0
16, 57180, Note_on_c, 12, 59, 55
16, 57225, Note_on_c, 12, 59, 0
16, 57240, Note_on_c, 12, 60, 55
16, 57285, Note_on_c, 12, 60, 0
16, 57300, Note_on_c, 12, 60, 55
16, 57345, Note_on_c, 12, 60, 0
16, 57360, Note_on_c, 12, 62, 55
16, 57405, Note_on_c, 12, 62, 0
16, 57420, Note_on_c, 12, 62, 55
16, 57465, Note_on_c, 12, 62, 0
16, 57480, Note_on_c, 12, 59, 55
16, 57525, Note_on_c, 12, 59, 0
16, 57540, Note_on_c, 12, 59, 55
16, 57585, Note_on_c, 12, 59, 0
16, 57600, Note_on_c, 12, 57, 55
16, 57645, Note_on_c, 12, 57, 0
16, 57660, Note_on_c, 12, 57, 55
16, 57705, Note_on_c, 12, 57, 0
16, 57720, Note_on_c, 12, 59, 55
16, 57765, Note_on_c, 12, 59, 0
16, 57780, Note_on_c, 12, 59, 55
16, 57825, Note_on_c, 12, 59, 0
16, 57840, Note_on_c, 12, 60, 55
16, 57885, Note_on_c, 12, 60, 0
16, 57900, Note_on_c, 12, 60, 55
16, 57945, Note_on_c, 12, 60, 0
16, 57960, Note_on_c, 12, 57, 55
16, 58005, Note_on_c, 12, 57, 0
16, 58020, Note_on_c, 12, 57, 55
16, 58065, Note_on_c, 12, 57, 0
16, 58080, Note_on_c, 12, 57, 55
16, 58125, Note_on_c, 12, 57, 0
16, 58140, Note_on_c, 12, 57, 55
16, 58185, Note_on_c, 12, 57, 0
16, 58200, Note_on_c, 12, 58, 55
16, 58245, Note_on_c, 12, 58, 0
16, 58260, Note_on_c, 12, 58, 55
16, 58305, Note_on_c, 12, 58, 0
16, 58320, Note_on_c, 12, 60, 55
16, 58365, Note_on_c, 12, 60, 0
16, 58380, Note_on_c, 12, 60, 55
16, 58425, Note_on_c, 12, 60, 0
16, 58440, Note_on_c, 12, 57, 55
16, 58485, Note_on_c, 12, 57, 0
16, 58500, Note_on_c, 12, 57, 55
16, 58545, Note_on_c, 12, 57, 0
16, 58560, Note_on_c, 12, 55, 55
16, 58605, Note_on_c, 12, 55, 0
16, 58620, Note_on_c, 12, 55, 55
16, 58665, Note_on_c, 12, 55, 0
16, 58680, Note_on_c, 12, 54, 55
16, 58725, Note_on_c, 12, 54, 0
16, 58740, Note_on_c, 12, 54, 55
16, 58785, Note_on_c, 12, 54, 0
16, 58800, Note_on_c, 12, 55, 55
16, 58845, Note_on_c, 12, 55, 0
16, 58860, Note_on_c, 12, 55, 55
16, 58905, Note_on_c, 12, 55, 0
16, 58920, Note_on_c, 12, 66, 55
16, 58965, Note_on_c, 12, 66, 0
16, 58980, Note_on_c, 12, 66, 55
16, 59025, Note_on_c, 12, 66, 0
16, 59040, Note_on_c, 12, 67, 55
16, 59085, Note_on_c, 12, 67, 0
16, 59100, Note_on_c, 12, 67, 55
16, 59145, Note_on_c, 12, 67, 0
16, 59160, Note_on_c, 12, 66, 55
16, 59205, Note_on_c, 12, 66, 0
16, 59220, Note_on_c, 12, 66, 55
16, 59265, Note_on_c, 12, 66, 0
16, 59280, Note_on_c, 12, 67, 55
16, 59325, Note_on_c, 12, 67, 0
16, 59340, Note_on_c, 12, 55, 55
16, 59385, Note_on_c, 12, 55, 0
16, 59400, Note_on_c, 12, 53, 55
16, 59445, Note_on_c, 12, 53, 0
16, 59460, Note_on_c, 12, 55, 55
16, 59505, Note_on_c, 12, 55, 0
16, 59530, Note_on_c, 12, 57, 53
16, 59650, Note_on_c, 12, 57, 0
16, 59710, Note_on_c, 12, 50, 91
16, 59770, Note_on_c, 12, 50, 0
16, 59770, Note_on_c, 12, 52, 91
16, 59830, Note_on_c, 12, 52, 0
16, 59830, Note_on_c, 12, 54, 91
16, 59890, Note_on_c, 12, 54, 0
16, 59890, Note_on_c, 12, 55, 91
16, 59950, Note_on_c, 12, 55, 0
16, 59950, Note_on_c, 12, 57, 91
16, 60010, Note_on_c, 12, 57, 0
16, 60010, Note_on_c, 12, 60, 91
16, 60070, Note_on_c, 12, 60, 0
16, 60070, Note_on_c, 12, 58, 91
16, 60130, Note_on_c, 12, 58, 0
16, 60190, Note_on_c, 12, 54, 91
16, 60250, Note_on_c, 12, 54, 0
16, 60250, Note_on_c, 12, 55, 91
16, 60310, Note_on_c, 12, 55, 0
16, 60310, Note_on_c, 12, 57, 91
16, 60370, Note_on_c, 12, 57, 0
16, 60370, Note_on_c, 12, 58, 91
16, 60430, Note_on_c, 12, 58, 0
16, 60430, Note_on_c, 12, 61, 91
16, 60490, Note_on_c, 12, 61, 0
16, 60490, Note_on_c, 12, 64, 53
16, 60550, Note_on_c, 12, 64, 0
16, 60550, Note_on_c, 12, 62, 53
16, 60610, Note_on_c, 12, 62, 0
16, 61440, Note_on_c, 12, 71, 68
16, 61470, Note_on_c, 12, 71, 0
16, 61500, Note_on_c, 12, 71, 68
16, 61530, Note_on_c, 12, 71, 0
16, 61560, Note_on_c, 12, 71, 68
16, 61620, Note_on_c, 12, 71, 0
16, 61620, Note_on_c, 12, 72, 68
16, 61665, Note_on_c, 12, 72, 0
16, 61680, Note_on_c, 12, 69, 68
16, 61710, Note_on_c, 12, 69, 0
16, 61740, Note_on_c, 12, 69, 68
16, 61770, Note_on_c, 12, 69, 0
16, 61800, Note_on_c, 12, 69, 68
16, 61860, Note_on_c, 12, 69, 0
16, 61860, Note_on_c, 12, 71, 68
16, 61905, Note_on_c, 12, 71, 0
16, 61920, Note_on_c, 12, 67, 68
16, 61950, Note_on_c, 12, 67, 0
16, 61980, Note_on_c, 12, 67, 68
16, 62010, Note_on_c, 12, 67, 0
16, 62040, Note_on_c, 12, 67, 68
16, 62100, Note_on_c, 12, 67, 0
16, 62100, Note_on_c, 12, 71, 68
16, 62145, Note_on_c, 12, 71, 0
16, 62160, Note_on_c, 12, 71, 68
16, 62220, Note_on_c, 12, 71, 0
16, 62220, Note_on_c, 12, 69, 68
16, 62265, Note_on_c, 12, 69, 0
16, 62280, Note_on_c, 12, 67, 68
16, 62310, Note_on_c, 12, 67, 0
16, 62340, Note_on_c, 12, 62, 68
16, 62370, Note_on_c, 12, 62, 0
16, 62405, Note_on_c, 12, 59, 93
16, 62525, Note_on_c, 12, 59, 0
16, 62585, Note_on_c, 12, 62, 92
16, 62615, Note_on_c, 12, 62, 0
16, 62645, Note_on_c, 12, 67, 92
16, 62765, Note_on_c, 12, 67, 0
16, 62825, Note_on_c, 12, 62, 91
16, 62855, Note_on_c, 12, 62, 0
16, 62885, Note_on_c, 12, 67, 90
16, 62915, Note_on_c, 12, 67, 0
16, 62945, Note_on_c, 12, 62, 90
16, 62975, Note_on_c, 12, 62, 0
16, 63005, Note_on_c, 12, 67, 90
16, 63035, Note_on_c, 12, 67, 0
16, 63065, Note_on_c, 12, 71, 90
16, 63095, Note_on_c, 12, 71, 0
16, 63125, Note_on_c, 12, 74, 89
16, 63245, Note_on_c, 12, 74, 0
16, 63365, Note_on_c, 12, 72, 88
16, 63485, Note_on_c, 12, 72, 0
16, 63545, Note_on_c, 12, 69, 87
16, 63575, Note_on_c, 12, 69, 0
16, 63605, Note_on_c, 12, 72, 86
16, 63725, Note_on_c, 12, 72, 0
16, 63785, Note_on_c, 12, 69, 85
16, 63815, Note_on_c, 12, 69, 0
16, 63845, Note_on_c, 12, 72, 85
16, 63875, Note_on_c, 12, 72, 0
16, 63905, Note_on_c, 12, 69, 85
16, 63935, Note_on_c, 12, 69, 0
16, 63965, Note_on_c, 12, 66, 85
16, 63995, Note_on_c, 12, 66, 0
16, 64025, Note_on_c, 12, 69, 85
16, 64055, Note_on_c, 12, 69, 0
16, 64085, Note_on_c, 12, 62, 85
16, 64205, Note_on_c, 12, 62, 0
16, 64320, Note_on_c, 12, 67, 85
16, 64365, Note_on_c, 12, 67, 0
16, 64380, Note_on_c, 12, 67, 85
16, 64425, Note_on_c, 12, 67, 0
16, 64440, Note_on_c, 12, 67, 85
16, 64485, Note_on_c, 12, 67, 0
16, 64500, Note_on_c, 12, 67, 85
16, 64545, Note_on_c, 12, 67, 0
16, 64560, Note_on_c, 12, 67, 85
16, 64605, Note_on_c, 12, 67, 0
16, 64620, Note_on_c, 12, 67, 85
16, 64665, Note_on_c, 12, 67, 0
16, 64680, Note_on_c, 12, 67, 85
16, 64725, Note_on_c, 12, 67, 0
16, 64740, Note_on_c, 12, 67, 85
16, 64785, Note_on_c, 12, 67, 0
16, 64800, Note_on_c, 12, 69, 85
16, 64845, Note_on_c, 12, 69, 0
16, 64860, Note_on_c, 12, 69, 85
16, 64905, Note_on_c, 12, 69, 0
16, 64920, Note_on_c, 12, 69, 85
16, 64965, Note_on_c, 12, 69, 0
16, 64980, Note_on_c, 12, 69, 85
16, 65025, Note_on_c, 12, 69, 0
16, 65040, Note_on_c, 12, 69, 85
16, 65100, Note_on_c, 12, 69, 0
16, 65100, Note_on_c, 12, 72, 85
16, 65145, Note_on_c, 12, 72, 0
16, 65160, Note_on_c, 12, 66, 85
16, 65220, Note_on_c, 12, 66, 0
16, 65220, Note_on_c, 12, 69, 85
16, 65265, Note_on_c, 12, 69, 0
16, 65280, Note_on_c, 12, 67, 85
16, 65325, Note_on_c, 12, 67, 0
16, 65340, Note_on_c, 12, 67, 85
16, 65385, Note_on_c, 12, 67, 0
16, 65400, Note_on_c, 12, 67, 85
16, 65445, Note_on_c, 12, 67, 0
16, 65460, Note_on_c, 12, 67, 85
16, 65505, Note_on_c, 12, 67, 0
16, 65520, Note_on_c, 12, 67, 85
16, 65565, Note_on_c, 12, 67, 0
16, 65580, Note_on_c, 12, 67, 85
16, 65625, Note_on_c, 12, 67, 0
16, 65640, Note_on_c, 12, 67, 85
16, 65685, Note_on_c, 12, 67, 0
16, 65700, Note_on_c, 12, 67, 85
16, 65745, Note_on_c, 12, 67, 0
16, 65760, Note_on_c, 12, 69, 85
16, 65805, Note_on_c, 12, 69, 0
16, 65820, Note_on_c, 12, 69, 85
16, 65865, Note_on_c, 12, 69, 0
16, 65880, Note_on_c, 12, 69, 85
16, 65925, Note_on_c, 12, 69, 0
16, 65940, Note_on_c, 12, 69, 85
16, 65985, Note_on_c, 12, 69, 0
16, 66000, Note_on_c, 12, 69, 85
16, 66060, Note_on_c, 12, 69, 0
16, 66060, Note_on_c, 12, 72, 85
16, 66105, Note_on_c, 12, 72, 0
16, 66120, Note_on_c, 12, 66, 85
16, 66180, Note_on_c, 12, 66, 0
16, 66180, Note_on_c, 12, 69, 85
16, 66225, Note_on_c, 12, 69, 0
16, 66240, Note_on_c, 12, 62, 85
16, 66260, Note_on_c, 12, 62, 0
16, 66270, Note_on_c, 12, 62, 85
16, 66290, Note_on_c, 12, 62, 0
16, 66300, Note_on_c, 12, 62, 85
16, 66320, Note_on_c, 12, 62, 0
16, 66330, Note_on_c, 12, 62, 85
16, 66350, Note_on_c, 12, 62, 0
16, 66360, Note_on_c, 12, 62, 85
16, 66380, Note_on_c, 12, 62, 0
16, 66390, Note_on_c, 12, 62, 85
16, 66410, Note_on_c, 12, 62, 0
16, 66420, Note_on_c, 12, 62, 85
16, 66440, Note_on_c, 12, 62, 0
16, 66450, Note_on_c, 12, 62, 85
16, 66470, Note_on_c, 12, 62, 0
16, 66480, Note_on_c, 12, 62, 85
16, 66500, Note_on_c, 12, 62, 0
16, 66510, Note_on_c, 12, 62, 85
16, 66530, Note_on_c, 12, 62, 0
16, 66540, Note_on_c, 12, 62, 85
16, 66560, Note_on_c, 12, 62, 0
16, 66570, Note_on_c, 12, 62, 85
16, 66590, Note_on_c, 12, 62, 0
16, 66600, Note_on_c, 12, 62, 85
16, 66620, Note_on_c, 12, 62, 0
16, 66630, Note_on_c, 12, 62, 85
16, 66650, Note_on_c, 12, 62, 0
16, 66660, Note_on_c, 12, 62, 85
16, 66680, Note_on_c, 12, 62, 0
16, 66690, Note_on_c, 12, 62, 85
16, 66710, Note_on_c, 12, 62, 0
16, 66720, Note_on_c, 12, 62, 85
16, 66740, Note_on_c, 12, 62, 0
16, 66750, Note_on_c, 12, 62, 85
16, 66770, Note_on_c, 12, 62, 0
16, 66780, Note_on_c, 12, 62, 85
16, 66800, Note_on_c, 12, 62, 0
16, 66810, Note_on_c, 12, 62, 85
16, 66830, Note_on_c, 12, 62, 0
16, 66840, Note_on_c, 12, 62, 85
16, 66860, Note_on_c, 12, 62, 0
16, 66870, Note_on_c, 12, 62, 85
16, 66890, Note_on_c, 12, 62, 0
16, 66900, Note_on_c, 12, 62, 85
16, 66920, Note_on_c, 12, 62, 0
16, 66930, Note_on_c, 12, 62, 85
16, 66950, Note_on_c, 12, 62, 0
16, 66960, Note_on_c, 12, 62, 85
16, 67080, Note_on_c, 12, 62, 0
16, 67680, Note_on_c, 12, 54, 47
16, 67920, Note_on_c, 12, 54, 0
16, 67920, Note_on_c, 12, 55, 47
16, 68160, Note_on_c, 12, 55, 0
16, 68160, Note_on_c, 12, 60, 47
16, 68250, Note_on_c, 12, 60, 0
16, 68280, Note_on_c, 12, 60, 47
16, 68370, Note_on_c, 12, 60, 0
16, 68400, Note_on_c, 12, 57, 47
16, 68490, Note_on_c, 12, 57, 0
16, 68520, Note_on_c, 12, 50, 47
16, 68610, Note_on_c, 12, 50, 0
16, 68640, Note_on_c, 12, 50, 47
16, 68700, Note_on_c, 12, 50, 0
16, 68760, Note_on_c, 12, 62, 47
16, 68820, Note_on_c, 12, 62, 0
16, 68880, Note_on_c, 12, 62, 47
16, 69000, Note_on_c, 12, 62, 0
16, 69600, Note_on_c, 12, 66, 47
16, 69840, Note_on_c, 12, 66, 0
16, 69840, Note_on_c, 12, 67, 47
16, 70080, Note_on_c, 12, 67, 0
16, 70080, Note_on_c, 12, 60, 47
16, 70170, Note_on_c, 12, 60, 0
16, 70200, Note_on_c, 12, 60, 47
16, 70245, Note_on_c, 12, 60, 0
16, 70260, Note_on_c, 12, 60, 47
16, 70305, Note_on_c, 12, 60, 0
16, 70320, Note_on_c, 12, 57, 47
16, 70410, Note_on_c, 12, 57, 0
16, 70440, Note_on_c, 12, 57, 47
16, 70485, Note_on_c, 12, 57, 0
16, 70500, Note_on_c, 12, 57, 47
16, 70545, Note_on_c, 12, 57, 0
16, 70560, Note_on_c, 12, 55, 92
16, 70605, Note_on_c, 12, 55, 0
16, 70620, Note_on_c, 12, 55, 71
16, 70665, Note_on_c, 12, 55, 0
16, 70680, Note_on_c, 12, 55, 71
16, 70725, Note_on_c, 12, 55, 0
16, 70740, Note_on_c, 12, 55, 71
16, 70785, Note_on_c, 12, 55, 0
16, 70800, Note_on_c, 12, 55, 55
16, 70845, Note_on_c, 12, 55, 0
16, 70860, Note_on_c, 12, 55, 50
16, 70905, Note_on_c, 12, 55, 0
16, 70920, Note_on_c, 12, 55, 50
16, 70965, Note_on_c, 12, 55, 0
16, 70980, Note_on_c, 12, 55, 50
16, 71025, Note_on_c, 12, 55, 0
16, 71040, Note_on_c, 12, 55, 91
16, 71085, Note_on_c, 12, 55, 0
16, 71100, Note_on_c, 12, 55, 65
16, 71145, Note_on_c, 12, 55, 0
16, 71160, Note_on_c, 12, 55, 65
16, 71205, Note_on_c, 12, 55, 0
16, 71220, Note_on_c, 12, 55, 65
16, 71265, Note_on_c, 12, 55, 0
16, 71280, Note_on_c, 12, 55, 46
16, 71325, Note_on_c, 12, 55, 0
16, 71340, Note_on_c, 12, 55, 46
16, 71385, Note_on_c, 12, 55, 0
16, 71400, Note_on_c, 12, 55, 46
16, 71445, Note_on_c, 12, 55, 0
16, 71460, Note_on_c, 12, 55, 46
16, 71505, Note_on_c, 12, 55, 0
16, 71520, Note_on_c, 12, 55, 59
16, 71565, Note_on_c, 12, 55, 0
16, 71580, Note_on_c, 12, 67, 41
16, 71625, Note_on_c, 12, 67, 0
16, 71640, Note_on_c, 12, 67, 46
16, 71685, Note_on_c, 12, 67, 0
16, 71700, Note_on_c, 12, 67, 49
16, 71745, Note_on_c, 12, 67, 0
16, 71760, Note_on_c, 12, 67, 53
16, 71805, Note_on_c, 12, 67, 0
16, 71820, Note_on_c, 12, 67, 56
16, 71865, Note_on_c, 12, 67, 0
16, 71880, Note_on_c, 12, 69, 61
16, 71925, Note_on_c, 12, 69, 0
16, 71940, Note_on_c, 12, 69, 64
16, 71985, Note_on_c, 12, 69, 0
16, 72000, Note_on_c, 12, 67, 68
16, 72045, Note_on_c, 12, 67, 0
16, 72060, Note_on_c, 12, 67, 71
16, 72105, Note_on_c, 12, 67, 0
16, 72120, Note_on_c, 12, 66, 76
16, 72165, Note_on_c, 12, 66, 0
16, 72180, Note_on_c, 12, 66, 79
16, 72225, Note_on_c, 12, 66, 0
16, 72240, Note_on_c, 12, 67, 82
16, 72285, Note_on_c, 12, 67, 0
16, 72300, Note_on_c, 12, 67, 82
16, 72345, Note_on_c, 12, 67, 0
16, 72360, Note_on_c, 12, 64, 82
16, 72405, Note_on_c, 12, 64, 0
16, 72420, Note_on_c, 12, 64, 82
16, 72465, Note_on_c, 12, 64, 0
16, 72480, Note_on_c, 12, 69, 85
16, 72480, Note_on_c, 12, 62, 85
16, 72500, Note_on_c, 12, 62, 0
16, 72500, Note_on_c, 12, 69, 0
16, 72510, Note_on_c, 12, 69, 85
16, 72510, Note_on_c, 12, 62, 85
16, 72530, Note_on_c, 12, 62, 0
16, 72530, Note_on_c, 12, 69, 0
16, 72540, Note_on_c, 12, 69, 85
16, 72540, Note_on_c, 12, 62, 85
16, 72560, Note_on_c, 12, 62, 0
16, 72560, Note_on_c, 12, 69, 0
16, 72570, Note_on_c, 12, 69, 85
16, 72570, Note_on_c, 12, 62, 85
16, 72590, Note_on_c, 12, 62, 0
16, 72590, Note_on_c, 12, 69, 0
16, 72600, Note_on_c, 12, 69, 85
16, 72600, Note_on_c, 12, 62, 85
16, 72620, Note_on_c, 12, 62, 0
16, 72620, Note_on_c, 12, 69, 0
16, 72630, Note_on_c, 12, 69, 85
16, 72630, Note_on_c, 12, 62, 85
16, 72650, Note_on_c, 12, 62, 0
16, 72650, Note_on_c, 12, 69, 0
16, 72660, Note_on_c, 12, 69, 85
16, 72660, Note_on_c, 12, 62, 85
16, 72680, Note_on_c, 12, 62, 0
16, 72680, Note_on_c, 12, 69, 0
16, 72690, Note_on_c, 12, 69, 85
16, 72690, Note_on_c, 12, 62, 85
16, 72710, Note_on_c, 12, 62, 0
16, 72710, Note_on_c, 12, 69, 0
16, 72720, Note_on_c, 12, 69, 85
16, 72720, Note_on_c, 12, 64, 85
16, 72740, Note_on_c, 12, 64, 0
16, 72740, Note_on_c, 12, 69, 0
16, 72750, Note_on_c, 12, 69, 85
16, 72750, Note_on_c, 12, 64, 85
16, 72770, Note_on_c, 12, 64, 0
16, 72770, Note_on_c, 12, 69, 0
16, 72780, Note_on_c, 12, 69, 85
16, 72780, Note_on_c, 12, 64, 85
16, 72800, Note_on_c, 12, 64, 0
16, 72800, Note_on_c, 12, 69, 0
16, 72810, Note_on_c, 12, 69, 85
16, 72810, Note_on_c, 12, 64, 85
16, 72830, Note_on_c, 12, 64, 0
16, 72830, Note_on_c, 12, 69, 0
16, 72840, Note_on_c, 12, 69, 85
16, 72840, Note_on_c, 12, 64, 85
16, 72860, Note_on_c, 12, 64, 0
16, 72860, Note_on_c, 12, 69, 0
16, 72870, Note_on_c, 12, 69, 85
16, 72870, Note_on_c, 12, 64, 85
16, 72890, Note_on_c, 12, 64, 0
16, 72890, Note_on_c, 12, 69, 0
16, 72900, Note_on_c, 12, 69, 85
16, 72900, Note_on_c, 12, 64, 85
16, 72920, Note_on_c, 12, 64, 0
16, 72920, Note_on_c, 12, 69, 0
16, 72930, Note_on_c, 12, 69, 85
16, 72930, Note_on_c, 12, 64, 85
16, 72950, Note_on_c, 12, 64, 0
16, 72950, Note_on_c, 12, 69, 0
16, 72960, Note_on_c, 12, 69, 85
16, 72960, Note_on_c, 12, 62, 85
16, 72980, Note_on_c, 12, 62, 0
16, 72980, Note_on_c, 12, 69, 0
16, 72990, Note_on_c, 12, 69, 85
16, 72990, Note_on_c, 12, 62, 85
16, 73010, Note_on_c, 12, 62, 0
16, 73010, Note_on_c, 12, 69, 0
16, 73020, Note_on_c, 12, 69, 85
16, 73020, Note_on_c, 12, 62, 85
16, 73040, Note_on_c, 12, 62, 0
16, 73040, Note_on_c, 12, 69, 0
16, 73050, Note_on_c, 12, 69, 85
16, 73050, Note_on_c, 12, 62, 85
16, 73070, Note_on_c, 12, 62, 0
16, 73070, Note_on_c, 12, 69, 0
16, 73080, Note_on_c, 12, 69, 85
16, 73080, Note_on_c, 12, 62, 85
16, 73100, Note_on_c, 12, 62, 0
16, 73100, Note_on_c, 12, 69, 0
16, 73110, Note_on_c, 12, 69, 85
16, 73110, Note_on_c, 12, 62, 85
16, 73130, Note_on_c, 12, 62, 0
16, 73130, Note_on_c, 12, 69, 0
16, 73140, Note_on_c, 12, 69, 85
16, 73140, Note_on_c, 12, 62, 85
16, 73160, Note_on_c, 12, 62, 0
16, 73160, Note_on_c, 12, 69, 0
16, 73170, Note_on_c, 12, 69, 85
16, 73170, Note_on_c, 12, 62, 85
16, 73190, Note_on_c, 12, 62, 0
16, 73190, Note_on_c, 12, 69, 0
16, 73200, Note_on_c, 12, 69, 85
16, 73200, Note_on_c, 12, 64, 85
16, 73220, Note_on_c, 12, 64, 0
16, 73220, Note_on_c, 12, 69, 0
16, 73230, Note_on_c, 12, 69, 85
16, 73230, Note_on_c, 12, 64, 85
16, 73250, Note_on_c, 12, 64, 0
16, 73250, Note_on_c, 12, 69, 0
16, 73260, Note_on_c, 12, 69, 85
16, 73260, Note_on_c, 12, 64, 85
16, 73280, Note_on_c, 12, 64, 0
16, 73280, Note_on_c, 12, 69, 0
16, 73290, Note_on_c, 12, 69, 85
16, 73290, Note_on_c, 12, 64, 85
16, 73310, Note_on_c, 12, 64, 0
16, 73310, Note_on_c, 12, 69, 0
16, 73320, Note_on_c, 12, 69, 85
16, 73320, Note_on_c, 12, 64, 85
16, 73340, Note_on_c, 12, 64, 0
16, 73340, Note_on_c, 12, 69, 0
16, 73350, Note_on_c, 12, 69, 85
16, 73350, Note_on_c, 12, 64, 85
16, 73370, Note_on_c, 12, 64, 0
16, 73370, Note_on_c, 12, 69, 0
16, 73380, Note_on_c, 12, 69, 85
16, 73380, Note_on_c, 12, 64, 85
16, 73400, Note_on_c, 12, 64, 0
16, 73400, Note_on_c, 12, 69, 0
16, 73410, Note_on_c, 12, 69, 85
16, 73410, Note_on_c, 12, 64, 85
16, 73430, Note_on_c, 12, 64, 0
16, 73430, Note_on_c, 12, 69, 0
16, 73440, Note_on_c, 12, 69, 85
16, 73440, Note_on_c, 12, 62, 85
16, 73460, Note_on_c, 12, 62, 0
16, 73460, Note_on_c, 12, 69, 0
16, 73470, Note_on_c, 12, 69, 85
16, 73470, Note_on_c, 12, 62, 85
16, 73490, Note_on_c, 12, 62, 0
16, 73490, Note_on_c, 12, 69, 0
16, 73500, Note_on_c, 12, 69, 85
16, 73500, Note_on_c, 12, 62, 85
16, 73520, Note_on_c, 12, 62, 0
16, 73520, Note_on_c, 12, 69, 0
16, 73530, Note_on_c, 12, 69, 85
16, 73530, Note_on_c, 12, 62, 85
16, 73550, Note_on_c, 12, 62, 0
16, 73550, Note_on_c, 12, 69, 0
16, 73560, Note_on_c, 12, 64, 85
16, 73560, Note_on_c, 12, 69, 85
16, 73580, Note_on_c, 12, 69, 0
16, 73580, Note_on_c, 12, 64, 0
16, 73590, Note_on_c, 12, 64, 85
16, 73590, Note_on_c, 12, 69, 85
16, 73610, Note_on_c, 12, 69, 0
16, 73610, Note_on_c, 12, 64, 0
16, 73620, Note_on_c, 12, 64, 85
16, 73620, Note_on_c, 12, 69, 85
16, 73640, Note_on_c, 12, 69, 0
16, 73640, Note_on_c, 12, 64, 0
16, 73650, Note_on_c, 12, 64, 85
16, 73650, Note_on_c, 12, 69, 85
16, 73670, Note_on_c, 12, 69, 0
16, 73670, Note_on_c, 12, 64, 0
16, 73680, Note_on_c, 12, 62, 85
16, 73680, Note_on_c, 12, 69, 85
16, 73700, Note_on_c, 12, 69, 0
16, 73700, Note_on_c, 12, 62, 0
16, 73710, Note_on_c, 12, 62, 85
16, 73710, Note_on_c, 12, 69, 85
16, 73730, Note_on_c, 12, 69, 0
16, 73730, Note_on_c, 12, 62, 0
16, 73740, Note_on_c, 12, 62, 85
16, 73740, Note_on_c, 12, 69, 85
16, 73760, Note_on_c, 12, 69, 0
16, 73760, Note_on_c, 12, 62, 0
16, 73770, Note_on_c, 12, 62, 85
16, 73770, Note_on_c, 12, 69, 85
16, 73790, Note_on_c, 12, 69, 0
16, 73790, Note_on_c, 12, 62, 0
16, 73800, Note_on_c, 12, 69, 85
16, 73800, Note_on_c, 12, 64, 85
16, 73820, Note_on_c, 12, 64, 0
16, 73820, Note_on_c, 12, 69, 0
16, 73830, Note_on_c, 12, 69, 85
16, 73830, Note_on_c, 12, 64, 85
16, 73850, Note_on_c, 12, 64, 0
16, 73850, Note_on_c, 12, 69, 0
16, 73860, Note_on_c, 12, 69, 85
16, 73860, Note_on_c, 12, 64, 85
16, 73880, Note_on_c, 12, 64, 0
16, 73880, Note_on_c, 12, 69, 0
16, 73890, Note_on_c, 12, 69, 85
16, 73890, Note_on_c, 12, 64, 85
16, 73910, Note_on_c, 12, 64, 0
16, 73910, Note_on_c, 12, 69, 0
16, 73923, Note_on_c, 12, 62, 85
16, 73923, Note_on_c, 12, 69, 85
16, 73968, Note_on_c, 12, 69, 0
16, 73968, Note_on_c, 12, 62, 0
16, 73983, Note_on_c, 12, 50, 85
16, 74028, Note_on_c, 12, 50, 0
16, 74043, Note_on_c, 12, 50, 85
16, 74088, Note_on_c, 12, 50, 0
16, 74103, Note_on_c, 12, 50, 85
16, 74148, Note_on_c, 12, 50, 0
16, 74163, Note_on_c, 12, 50, 85
16, 74283, Note_on_c, 12, 50, 0
16, 74760, Note_on_c, 12, 59, 55
16, 74820, Note_on_c, 12, 59, 0
16, 74880, Note_on_c, 12, 52, 55
16, 74940, Note_on_c, 12, 52, 0
16, 75000, Note_on_c, 12, 60, 55
16, 75060, Note_on_c, 12, 60, 0
16, 75120, Note_on_c, 12, 57, 55
16, 75180, Note_on_c, 12, 57, 0
16, 75240, Note_on_c, 12, 54, 55
16, 75300, Note_on_c, 12, 54, 0
16, 75480, Note_on_c, 12, 69, 55
16, 75600, Note_on_c, 12, 69, 0
16, 75600, Note_on_c, 12, 67, 55
16, 75660, Note_on_c, 12, 67, 0
16, 75720, Note_on_c, 12, 69, 55
16, 75780, Note_on_c, 12, 69, 0
16, 75840, Note_on_c, 12, 67, 55
16, 76080, Note_on_c, 12, 67, 0
16, 76080, Note_on_c, 12, 66, 55
16, 76200, Note_on_c, 12, 66, 0
16, 76440, Note_on_c, 12, 66, 55
16, 76560, Note_on_c, 12, 66, 0
16, 76560, Note_on_c, 12, 67, 55
16, 76620, Note_on_c, 12, 67, 0
16, 76680, Note_on_c, 12, 71, 55
16, 76740, Note_on_c, 12, 71, 0
16, 76800, Note_on_c, 12, 64, 55
16, 76860, Note_on_c, 12, 64, 0
16, 76920, Note_on_c, 12, 60, 55
16, 76980, Note_on_c, 12, 60, 0
16, 77040, Note_on_c, 12, 57, 55
16, 77160, Note_on_c, 12, 57, 0
16, 77220, Note_on_c, 12, 69, 55
16, 77265, Note_on_c, 12, 69, 0
16, 77280, Note_on_c, 12, 69, 55
16, 77340, Note_on_c, 12, 69, 0
16, 77340, Note_on_c, 12, 67, 55
16, 77400, Note_on_c, 12, 67, 0
16, 77760, Note_on_c, 12, 55, 55
16, 77805, Note_on_c, 12, 55, 0
16, 77820, Note_on_c, 12, 55, 55
16, 77865, Note_on_c, 12, 55, 0
16, 77880, Note_on_c, 12, 57, 55
16, 77925, Note_on_c, 12, 57, 0
16, 77940, Note_on_c, 12, 57, 55
16, 77985, Note_on_c, 12, 57, 0
16, 78000, Note_on_c, 12, 59, 55
16, 78045, Note_on_c, 12, 59, 0
16, 78060, Note_on_c, 12, 59, 55
16, 78105, Note_on_c, 12, 59, 0
16, 78120, Note_on_c, 12, 55, 55
16, 78165, Note_on_c, 12, 55, 0
16, 78180, Note_on_c, 12, 55, 55
16, 78225, Note_on_c, 12, 55, 0
16, 78240, Note_on_c, 12, 54, 55
16, 78285, Note_on_c, 12, 54, 0
16, 78300, Note_on_c, 12, 54, 55
16, 78345, Note_on_c, 12, 54, 0
16, 78360, Note_on_c, 12, 55, 55
16, 78405, Note_on_c, 12, 55, 0
16, 78420, Note_on_c, 12, 55, 55
16, 78465, Note_on_c, 12, 55, 0
16, 78480, Note_on_c, 12, 57, 55
16, 78525, Note_on_c, 12, 57, 0
16, 78540, Note_on_c, 12, 57, 55
16, 78585, Note_on_c, 12, 57, 0
16, 78600, Note_on_c, 12, 54, 55
16, 78645, Note_on_c, 12, 54, 0
16, 78660, Note_on_c, 12, 54, 55
16, 78705, Note_on_c, 12, 54, 0
16, 78720, Note_on_c, 12, 55, 55
16, 78765, Note_on_c, 12, 55, 0
16, 78780, Note_on_c, 12, 55, 55
16, 78825, Note_on_c, 12, 55, 0
16, 78840, Note_on_c, 12, 57, 55
16, 78885, Note_on_c, 12, 57, 0
16, 78900, Note_on_c, 12, 57, 55
16, 78945, Note_on_c, 12, 57, 0
16, 78960, Note_on_c, 12, 59, 55
16, 79005, Note_on_c, 12, 59, 0
16, 79020, Note_on_c, 12, 59, 55
16, 79065, Note_on_c, 12, 59, 0
16, 79080, Note_on_c, 12, 55, 55
16, 79125, Note_on_c, 12, 55, 0
16, 79140, Note_on_c, 12, 55, 55
16, 79185, Note_on_c, 12, 55, 0
16, 79200, Note_on_c, 12, 54, 55
16, 79245, Note_on_c, 12, 54, 0
16, 79260, Note_on_c, 12, 54, 55
16, 79305, Note_on_c, 12, 54, 0
16, 79320, Note_on_c, 12, 55, 55
16, 79365, Note_on_c, 12, 55, 0
16, 79380, Note_on_c, 12, 55, 55
16, 79425, Note_on_c, 12, 55, 0
16, 79440, Note_on_c, 12, 57, 55
16, 79485, Note_on_c, 12, 57, 0
16, 79500, Note_on_c, 12, 57, 55
16, 79545, Note_on_c, 12, 57, 0
16, 79560, Note_on_c, 12, 54, 55
16, 79605, Note_on_c, 12, 54, 0
16, 79620, Note_on_c, 12, 54, 55
16, 79665, Note_on_c, 12, 54, 0
16, 79680, Note_on_c, 12, 55, 55
16, 79725, Note_on_c, 12, 55, 0
16, 79740, Note_on_c, 12, 67, 83
16, 79785, Note_on_c, 12, 67, 0
16, 79800, Note_on_c, 12, 71, 83
16, 79845, Note_on_c, 12, 71, 0
16, 79860, Note_on_c, 12, 69, 83
16, 79905, Note_on_c, 12, 69, 0
16, 79920, Note_on_c, 12, 68, 83
16, 79965, Note_on_c, 12, 68, 0
16, 79980, Note_on_c, 12, 64, 83
16, 80025, Note_on_c, 12, 64, 0
16, 80040, Note_on_c, 12, 66, 83
16, 80085, Note_on_c, 12, 66, 0
16, 80100, Note_on_c, 12, 67, 83
16, 80145, Note_on_c, 12, 67, 0
16, 80160, Note_on_c, 12, 69, 83
16, 80205, Note_on_c, 12, 69, 0
16, 80220, Note_on_c, 12, 72, 83
16, 80265, Note_on_c, 12, 72, 0
16, 80280, Note_on_c, 12, 69, 85
16, 80325, Note_on_c, 12, 69, 0
16, 80340, Note_on_c, 12, 67, 85
16, 80385, Note_on_c, 12, 67, 0
16, 80400, Note_on_c, 12, 66, 85
16, 80445, Note_on_c, 12, 66, 0
16, 80460, Note_on_c, 12, 62, 86
16, 80505, Note_on_c, 12, 62, 0
16, 80520, Note_on_c, 12, 64, 85
16, 80565, Note_on_c, 12, 64, 0
16, 80580, Note_on_c, 12, 66, 85
16, 80625, Note_on_c, 12, 66, 0
16, 80640, Note_on_c, 12, 67, 85
16, 80685, Note_on_c, 12, 67, 0
16, 80700, Note_on_c, 12, 67, 85
16, 80745, Note_on_c, 12, 67, 0
16, 80760, Note_on_c, 12, 67, 85
16, 80805, Note_on_c, 12, 67, 0
16, 80820, Note_on_c, 12, 67, 85
16, 80865, Note_on_c, 12, 67, 0
16, 80880, Note_on_c, 12, 67, 85
16, 80925, Note_on_c, 12, 67, 0
16, 80940, Note_on_c, 12, 67, 85
16, 80985, Note_on_c, 12, 67, 0
16, 81000, Note_on_c, 12, 67, 85
16, 81045, Note_on_c, 12, 67, 0
16, 81060, Note_on_c, 12, 67, 85
16, 81105, Note_on_c, 12, 67, 0
16, 81120, Note_on_c, 12, 67, 85
16, 81180, Note_on_c, 12, 67, 0
16, 81180, Note_on_c, 12, 62, 85
16, 81225, Note_on_c, 12, 62, 0
16, 81240, Note_on_c, 12, 62, 85
16, 81270, Note_on_c, 12, 62, 0
16, 81300, Note_on_c, 12, 62, 85
16, 81330, Note_on_c, 12, 62, 0
16, 81360, Note_on_c, 12, 62, 85
16, 81405, Note_on_c, 12, 62, 0
16, 81420, Note_on_c, 12, 62, 85
16, 81465, Note_on_c, 12, 62, 0
16, 81480, Note_on_c, 12, 62, 85
16, 81525, Note_on_c, 12, 62, 0
16, 81540, Note_on_c, 12, 60, 85
16, 81585, Note_on_c, 12, 60, 0
16, 81600, Note_on_c, 12, 55, 85
16, 81645, Note_on_c, 12, 55, 0
16, 81660, Note_on_c, 12, 55, 53
16, 81705, Note_on_c, 12, 55, 0
16, 81720, Note_on_c, 12, 57, 53
16, 81765, Note_on_c, 12, 57, 0
16, 81780, Note_on_c, 12, 57, 53
16, 81825, Note_on_c, 12, 57, 0
16, 81840, Note_on_c, 12, 59, 53
16, 81885, Note_on_c, 12, 59, 0
16, 81900, Note_on_c, 12, 59, 53
16, 81945, Note_on_c, 12, 59, 0
16, 81960, Note_on_c, 12, 55, 53
16, 82005, Note_on_c, 12, 55, 0
16, 82020, Note_on_c, 12, 55, 53
16, 82065, Note_on_c, 12, 55, 0
16, 82080, Note_on_c, 12, 54, 55
16, 82125, Note_on_c, 12, 54, 0
16, 82140, Note_on_c, 12, 54, 55
16, 82185, Note_on_c, 12, 54, 0
16, 82200, Note_on_c, 12, 55, 55
16, 82245, Note_on_c, 12, 55, 0
16, 82260, Note_on_c, 12, 55, 55
16, 82305, Note_on_c, 12, 55, 0
16, 82320, Note_on_c, 12, 57, 55
16, 82365, Note_on_c, 12, 57, 0
16, 82380, Note_on_c, 12, 57, 55
16, 82425, Note_on_c, 12, 57, 0
16, 82440, Note_on_c, 12, 54, 55
16, 82485, Note_on_c, 12, 54, 0
16, 82500, Note_on_c, 12, 54, 55
16, 82545, Note_on_c, 12, 54, 0
16, 82560, Note_on_c, 12, 55, 55
16, 82605, Note_on_c, 12, 55, 0
16, 82620, Note_on_c, 12, 67, 55
16, 82665, Note_on_c, 12, 67, 0
16, 82680, Note_on_c, 12, 69, 55
16, 82725, Note_on_c, 12, 69, 0
16, 82740, Note_on_c, 12, 69, 55
16, 82785, Note_on_c, 12, 69, 0
16, 82800, Note_on_c, 12, 71, 55
16, 82845, Note_on_c, 12, 71, 0
16, 82860, Note_on_c, 12, 71, 55
16, 82905, Note_on_c, 12, 71, 0
16, 82920, Note_on_c, 12, 67, 55
16, 82965, Note_on_c, 12, 67, 0
16, 82980, Note_on_c, 12, 67, 55
16, 83025, Note_on_c, 12, 67, 0
16, 83040, Note_on_c, 12, 66, 55
16, 83085, Note_on_c, 12, 66, 0
16, 83100, Note_on_c, 12, 66, 55
16, 83145, Note_on_c, 12, 66, 0
16, 83160, Note_on_c, 12, 67, 55
16, 83205, Note_on_c, 12, 67, 0
16, 83220, Note_on_c, 12, 67, 55
16, 83265, Note_on_c, 12, 67, 0
16, 83280, Note_on_c, 12, 69, 55
16, 83325, Note_on_c, 12, 69, 0
16, 83340, Note_on_c, 12, 69, 55
16, 83385, Note_on_c, 12, 69, 0
16, 83400, Note_on_c, 12, 66, 55
16, 83445, Note_on_c, 12, 66, 0
16, 83460, Note_on_c, 12, 66, 55
16, 83505, Note_on_c, 12, 66, 0
16, 83520, Note_on_c, 12, 67, 55
16, 83565, Note_on_c, 12, 67, 0
16, 83580, Note_on_c, 12, 67, 85
16, 83625, Note_on_c, 12, 67, 0
16, 83640, Note_on_c, 12, 71, 85
16, 83685, Note_on_c, 12, 71, 0
16, 83700, Note_on_c, 12, 69, 85
16, 83745, Note_on_c, 12, 69, 0
16, 83760, Note_on_c, 12, 68, 85
16, 83805, Note_on_c, 12, 68, 0
16, 83820, Note_on_c, 12, 64, 85
16, 83865, Note_on_c, 12, 64, 0
16, 83880, Note_on_c, 12, 66, 85
16, 83925, Note_on_c, 12, 66, 0
16, 83940, Note_on_c, 12, 67, 85
16, 83985, Note_on_c, 12, 67, 0
16, 84000, Note_on_c, 12, 69, 85
16, 84045, Note_on_c, 12, 69, 0
16, 84060, Note_on_c, 12, 72, 85
16, 84105, Note_on_c, 12, 72, 0
16, 84120, Note_on_c, 12, 69, 85
16, 84165, Note_on_c, 12, 69, 0
16, 84180, Note_on_c, 12, 67, 85
16, 84225, Note_on_c, 12, 67, 0
16, 84240, Note_on_c, 12, 66, 85
16, 84285, Note_on_c, 12, 66, 0
16, 84300, Note_on_c, 12, 62, 85
16, 84345, Note_on_c, 12, 62, 0
16, 84360, Note_on_c, 12, 64, 85
16, 84405, Note_on_c, 12, 64, 0
16, 84420, Note_on_c, 12, 66, 85
16, 84465, Note_on_c, 12, 66, 0
16, 84480, Note_on_c, 12, 67, 85
16, 84525, Note_on_c, 12, 67, 0
16, 84540, Note_on_c, 12, 67, 85
16, 84585, Note_on_c, 12, 67, 0
16, 84600, Note_on_c, 12, 67, 85
16, 84645, Note_on_c, 12, 67, 0
16, 84660, Note_on_c, 12, 67, 85
16, 84705, Note_on_c, 12, 67, 0
16, 84720, Note_on_c, 12, 67, 85
16, 84765, Note_on_c, 12, 67, 0
16, 84780, Note_on_c, 12, 67, 85
16, 84825, Note_on_c, 12, 67, 0
16, 84840, Note_on_c, 12, 67, 85
16, 84885, Note_on_c, 12, 67, 0
16, 84900, Note_on_c, 12, 67, 85
16, 84945, Note_on_c, 12, 67, 0
16, 84960, Note_on_c, 12, 67, 85
16, 85005, Note_on_c, 12, 67, 0
16, 85020, Note_on_c, 12, 71, 85
16, 85065, Note_on_c, 12, 71, 0
16, 85080, Note_on_c, 12, 74, 85
16, 85125, Note_on_c, 12, 74, 0
16, 85140, Note_on_c, 12, 74, 85
16, 85185, Note_on_c, 12, 74, 0
16, 85200, Note_on_c, 12, 74, 85
16, 85245, Note_on_c, 12, 74, 0
16, 85260, Note_on_c, 12, 74, 85
16, 85305, Note_on_c, 12, 74, 0
16, 85320, Note_on_c, 12, 74, 85
16, 85365, Note_on_c, 12, 74, 0
16, 85380, Note_on_c, 12, 72, 85
16, 85425, Note_on_c, 12, 72, 0
16, 85442, Note_on_c, 12, 71, 85
16, 85487, Note_on_c, 12, 71, 0
16, 85502, Note_on_c, 12, 62, 85
16, 85547, Note_on_c, 12, 62, 0
16, 85562, Note_on_c, 12, 64, 85
16, 85607, Note_on_c, 12, 64, 0
16, 85622, Note_on_c, 12, 66, 85
16, 85667, Note_on_c, 12, 66, 0
16, 85682, Note_on_c, 12, 67, 85
16, 85727, Note_on_c, 12, 67, 0
16, 85742, Note_on_c, 12, 67, 85
16, 85787, Note_on_c, 12, 67, 0
16, 85802, Note_on_c, 12, 69, 85
16, 85847, Note_on_c, 12, 69, 0
16, 85862, Note_on_c, 12, 69, 85
16, 85907, Note_on_c, 12, 69, 0
16, 85922, Note_on_c, 12, 71, 85
16, 85967, Note_on_c, 12, 71, 0
16, 85982, Note_on_c, 12, 54, 85
16, 86027, Note_on_c, 12, 54, 0
16, 86042, Note_on_c, 12, 55, 85
16, 86087, Note_on_c, 12, 55, 0
16, 86102, Note_on_c, 12, 57, 85
16, 86147, Note_on_c, 12, 57, 0
16, 86162, Note_on_c, 12, 59, 85
16, 86207, Note_on_c, 12, 59, 0
16, 86222, Note_on_c, 12, 59, 85
16, 86267, Note_on_c, 12, 59, 0
16, 86282, Note_on_c, 12, 60, 85
16, 86327, Note_on_c, 12, 60, 0
16, 86342, Note_on_c, 12, 60, 85
16, 86387, Note_on_c, 12, 60, 0
16, 86400, Note_on_c, 12, 62, 85
16, 86445, Note_on_c, 12, 62, 0
16, 86460, Note_on_c, 12, 62, 85
16, 86505, Note_on_c, 12, 62, 0
16, 86520, Note_on_c, 12, 63, 85
16, 86565, Note_on_c, 12, 63, 0
16, 86580, Note_on_c, 12, 63, 85
16, 86625, Note_on_c, 12, 63, 0
16, 86640, Note_on_c, 12, 64, 85
16, 86760, Note_on_c, 12, 64, 0
16, 86880, Note_on_c, 12, 57, 70
16, 87240, Note_on_c, 12, 57, 0
16, 87240, Note_on_c, 12, 55, 70
16, 87300, Note_on_c, 12, 55, 0
16, 87300, Note_on_c, 12, 54, 70
16, 87360, Note_on_c, 12, 54, 0
16, 87360, Note_on_c, 12, 55, 70
16, 87480, Note_on_c, 12, 55, 0
16, 87840, Note_on_c, 12, 57, 70
16, 88200, Note_on_c, 12, 57, 0
16, 88200, Note_on_c, 12, 55, 70
16, 88260, Note_on_c, 12, 55, 0
16, 88260, Note_on_c, 12, 54, 70
16, 88320, Note_on_c, 12, 54, 0
16, 88320, Note_on_c, 12, 55, 70
16, 88440, Note_on_c, 12, 55, 0
16, 88560, Note_on_c, 12, 67, 70
16, 88680, Note_on_c, 12, 67, 0
16, 88800, Note_on_c, 12, 64, 92
16, 88920, Note_on_c, 12, 64, 0
16, 89040, Note_on_c, 12, 62, 111
16, 89040, Note_on_c, 12, 69, 111
16, 89160, Note_on_c, 12, 69, 0
16, 89160, Note_on_c, 12, 62, 0
16, 89280, Note_on_c, 12, 55, 97
16, 89300, Note_on_c, 12, 55, 0
16, 89310, Note_on_c, 12, 55, 94
16, 89330, Note_on_c, 12, 55, 0
16, 89340, Note_on_c, 12, 55, 93
16, 89360, Note_on_c, 12, 55, 0
16, 89370, Note_on_c, 12, 55, 92
16, 89390, Note_on_c, 12, 55, 0
16, 89400, Note_on_c, 12, 55, 90
16, 89420, Note_on_c, 12, 55, 0
16, 89430, Note_on_c, 12, 55, 90
16, 89450, Note_on_c, 12, 55, 0
16, 89460, Note_on_c, 12, 55, 90
16, 89480, Note_on_c, 12, 55, 0
16, 89490, Note_on_c, 12, 55, 90
16, 89510, Note_on_c, 12, 55, 0
16, 89520, Note_on_c, 12, 55, 88
16, 89540, Note_on_c, 12, 55, 0
16, 89550, Note_on_c, 12, 55, 88
16, 89570, Note_on_c, 12, 55, 0
16, 89580, Note_on_c, 12, 55, 90
16, 89600, Note_on_c, 12, 55, 0
16, 89610, Note_on_c, 12, 55, 90
16, 89630, Note_on_c, 12, 55, 0
16, 89640, Note_on_c, 12, 55, 88
16, 89660, Note_on_c, 12, 55, 0
16, 89670, Note_on_c, 12, 55, 87
16, 89690, Note_on_c, 12, 55, 0
16, 89700, Note_on_c, 12, 55, 87
16, 89720, Note_on_c, 12, 55, 0
16, 89730, Note_on_c, 12, 55, 86
16, 89750, Note_on_c, 12, 55, 0
16, 89760, Note_on_c, 12, 55, 86
16, 89780, Note_on_c, 12, 55, 0
16, 89790, Note_on_c, 12, 55, 86
16, 89810, Note_on_c, 12, 55, 0
16, 89820, Note_on_c, 12, 55, 87
16, 89840, Note_on_c, 12, 55, 0
16, 89850, Note_on_c, 12, 55, 89
16, 89870, Note_on_c, 12, 55, 0
16, 89880, Note_on_c, 12, 55, 90
16, 89900, Note_on_c, 12, 55, 0
16, 89910, Note_on_c, 12, 55, 90
16, 89930, Note_on_c, 12, 55, 0
16, 89940, Note_on_c, 12, 55, 90
16, 89960, Note_on_c, 12, 55, 0
16, 89970, Note_on_c, 12, 55, 89
16, 89990, Note_on_c, 12, 55, 0
16, 90000, Note_on_c, 12, 55, 85
16, 90020, Note_on_c, 12, 55, 0
16, 90030, Note_on_c, 12, 55, 87
16, 90050, Note_on_c, 12, 55, 0
16, 90060, Note_on_c, 12, 55, 87
16, 90080, Note_on_c, 12, 55, 0
16, 90090, Note_on_c, 12, 55, 88
16, 90110, Note_on_c, 12, 55, 0
16, 90120, Note_on_c, 12, 57, 89
16, 90140, Note_on_c, 12, 57, 0
16, 90150, Note_on_c, 12, 57, 90
16, 90170, Note_on_c, 12, 57, 0
16, 90180, Note_on_c, 12, 57, 90
16, 90200, Note_on_c, 12, 57, 0
16, 90210, Note_on_c, 12, 57, 90
16, 90230, Note_on_c, 12, 57, 0
16, 90240, Note_on_c, 12, 55, 90
16, 90260, Note_on_c, 12, 55, 0
16, 90270, Note_on_c, 12, 55, 90
16, 90290, Note_on_c, 12, 55, 0
16, 90300, Note_on_c, 12, 55, 90
16, 90320, Note_on_c, 12, 55, 0
16, 90330, Note_on_c, 12, 55, 90
16, 90350, Note_on_c, 12, 55, 0
16, 90360, Note_on_c, 12, 55, 90
16, 90380, Note_on_c, 12, 55, 0
16, 90390, Note_on_c, 12, 55, 90
16, 90410, Note_on_c, 12, 55, 0
16, 90420, Note_on_c, 12, 55, 90
16, 90440, Note_on_c, 12, 55, 0
16, 90450, Note_on_c, 12, 55, 90
16, 90470, Note_on_c, 12, 55, 0
16, 90480, Note_on_c, 12, 55, 89
16, 90500, Note_on_c, 12, 55, 0
16, 90510, Note_on_c, 12, 55, 89
16, 90530, Note_on_c, 12, 55, 0
16, 90540, Note_on_c, 12, 55, 89
16, 90560, Note_on_c, 12, 55, 0
16, 90570, Note_on_c, 12, 55, 89
16, 90590, Note_on_c, 12, 55, 0
16, 90600, Note_on_c, 12, 55, 89
16, 90620, Note_on_c, 12, 55, 0
16, 90630, Note_on_c, 12, 55, 90
16, 90650, Note_on_c, 12, 55, 0
16, 90660, Note_on_c, 12, 55, 95
16, 90680, Note_on_c, 12, 55, 0
16, 90690, Note_on_c, 12, 55, 96
16, 90710, Note_on_c, 12, 55, 0
16, 90720, Note_on_c, 12, 55, 97
16, 90740, Note_on_c, 12, 55, 0
16, 90750, Note_on_c, 12, 55, 98
16, 90770, Note_on_c, 12, 55, 0
16, 90780, Note_on_c, 12, 55, 99
16, 90800, Note_on_c, 12, 55, 0
16, 90810, Note_on_c, 12, 55, 99
16, 90830, Note_on_c, 12, 55, 0
16, 90840, Note_on_c, 12, 55, 99
16, 90860, Note_on_c, 12, 55, 0
16, 90870, Note_on_c, 12, 55, 99
16, 90890, Note_on_c, 12, 55, 0
16, 90900, Note_on_c, 12, 55, 99
16, 90920, Note_on_c, 12, 55, 0
16, 90930, Note_on_c, 12, 55, 99
16, 90950, Note_on_c, 12, 55, 0
16, 90960, Note_on_c, 12, 55, 97
16, 90980, Note_on_c, 12, 55, 0
16, 90990, Note_on_c, 12, 55, 97
16, 91010, Note_on_c, 12, 55, 0
16, 91020, Note_on_c, 12, 55, 96
16, 91040, Note_on_c, 12, 55, 0
16, 91050, Note_on_c, 12, 55, 94
16, 91070, Note_on_c, 12, 55, 0
16, 91080, Note_on_c, 12, 57, 94
16, 91100, Note_on_c, 12, 57, 0
16, 91110, Note_on_c, 12, 57, 94
16, 91130, Note_on_c, 12, 57, 0
16, 91140, Note_on_c, 12, 57, 95
16, 91160, Note_on_c, 12, 57, 0
16, 91170, Note_on_c, 12, 57, 95
16, 91190, Note_on_c, 12, 57, 0
16, 91200, Note_on_c, 12, 55, 96
16, 91245, Note_on_c, 12, 55, 0
16, 91260, Note_on_c, 12, 59, 103
16, 91305, Note_on_c, 12, 59, 0
16, 91320, Note_on_c, 12, 62, 103
16, 91365, Note_on_c, 12, 62, 0
16, 91380, Note_on_c, 12, 67, 103
16, 91425, Note_on_c, 12, 67, 0
16, 91440, Note_on_c, 12, 71, 103
16, 91485, Note_on_c, 12, 71, 0
16, 91500, Note_on_c, 12, 67, 103
16, 91545, Note_on_c, 12, 67, 0
16, 91560, Note_on_c, 12, 74, 103
16, 91605, Note_on_c, 12, 74, 0
16, 91620, Note_on_c, 12, 71, 103
16, 91665, Note_on_c, 12, 71, 0
16, 91683, Note_on_c, 12, 67, 103
16, 91783, Note_on_c, 12, 67, 0
16, 91803, Note_on_c, 12, 55, 103
16, 91863, Note_on_c, 12, 55, 0
16, 91893, Note_on_c, 12, 55, 103
16, 91908, Note_on_c, 12, 55, 0
16, 91923, Note_on_c, 12, 55, 103
16, 92043, Note_on_c, 12, 55, 0
16, 92043, End_track
17, 0, Start_track
17, 0, MIDI_port, 0
17, 0, Title_t, "+++++++++++"
17, 0, Program_c, 12, 41
17, 0, Control_c, 12, 7, 122
17, 0, Control_c, 12, 10, 47
17, 0, Note_on_c, 12, 62, 85
17, 0, Note_on_c, 12, 79, 85
17, 0, Note_on_c, 12, 71, 85
17, 120, Note_on_c, 12, 71, 0
17, 120, Note_on_c, 12, 79, 0
17, 120, Note_on_c, 12, 62, 0
17, 180, Note_on_c, 12, 74, 85
17, 210, Note_on_c, 12, 74, 0
17, 240, Note_on_c, 12, 79, 85
17, 360, Note_on_c, 12, 79, 0
17, 420, Note_on_c, 12, 74, 85
17, 450, Note_on_c, 12, 74, 0
17, 480, Note_on_c, 12, 79, 85
17, 510, Note_on_c, 12, 79, 0
17, 540, Note_on_c, 12, 74, 85
17, 570, Note_on_c, 12, 74, 0
17, 600, Note_on_c, 12, 79, 85
17, 630, Note_on_c, 12, 79, 0
17, 660, Note_on_c, 12, 83, 85
17, 690, Note_on_c, 12, 83, 0
17, 720, Note_on_c, 12, 86, 85
17, 840, Note_on_c, 12, 86, 0
17, 960, Note_on_c, 12, 84, 85
17, 1080, Note_on_c, 12, 84, 0
17, 1140, Note_on_c, 12, 81, 82
17, 1170, Note_on_c, 12, 81, 0
17, 1200, Note_on_c, 12, 84, 85
17, 1320, Note_on_c, 12, 84, 0
17, 1380, Note_on_c, 12, 81, 79
17, 1410, Note_on_c, 12, 81, 0
17, 1440, Note_on_c, 12, 84, 85
17, 1470, Note_on_c, 12, 84, 0
17, 1500, Note_on_c, 12, 81, 80
17, 1530, Note_on_c, 12, 81, 0
17, 1560, Note_on_c, 12, 78, 85
17, 1590, Note_on_c, 12, 78, 0
17, 1620, Note_on_c, 12, 81, 77
17, 1650, Note_on_c, 12, 81, 0
17, 1680, Note_on_c, 12, 74, 85
17, 1800, Note_on_c, 12, 74, 0
17, 1920, Note_on_c, 12, 62, 85
17, 1920, Note_on_c, 12, 79, 85
17, 1920, Note_on_c, 12, 71, 85
17, 1980, Note_on_c, 12, 71, 0
17, 1980, Note_on_c, 12, 79, 0
17, 1980, Note_on_c, 12, 62, 0
17, 2040, Note_on_c, 12, 79, 85
17, 2220, Note_on_c, 12, 79, 0
17, 2220, Note_on_c, 12, 83, 89
17, 2280, Note_on_c, 12, 83, 0
17, 2280, Note_on_c, 12, 81, 94
17, 2310, Note_on_c, 12, 81, 0
17, 2340, Note_on_c, 12, 79, 97
17, 2370, Note_on_c, 12, 79, 0
17, 2400, Note_on_c, 12, 79, 95
17, 2415, Note_on_c, 12, 79, 0
17, 2415, Note_on_c, 12, 81, 95
17, 2430, Note_on_c, 12, 81, 0
17, 2430, Note_on_c, 12, 79, 95
17, 2445, Note_on_c, 12, 79, 0
17, 2445, Note_on_c, 12, 81, 94
17, 2460, Note_on_c, 12, 81, 0
17, 2460, Note_on_c, 12, 78, 94
17, 2510, Note_on_c, 12, 78, 0
17, 2520, Note_on_c, 12, 78, 88
17, 2700, Note_on_c, 12, 78, 0
17, 2700, Note_on_c, 12, 81, 85
17, 2760, Note_on_c, 12, 81, 0
17, 2760, Note_on_c, 12, 84, 85
17, 2790, Note_on_c, 12, 84, 0
17, 2820, Note_on_c, 12, 78, 85
17, 2850, Note_on_c, 12, 78, 0
17, 2880, Note_on_c, 12, 81, 85
17, 2940, Note_on_c, 12, 81, 0
17, 2940, Note_on_c, 12, 79, 85
17, 2970, Note_on_c, 12, 79, 0
17, 3000, Note_on_c, 12, 79, 85
17, 3180, Note_on_c, 12, 79, 0
17, 3180, Note_on_c, 12, 83, 86
17, 3240, Note_on_c, 12, 83, 0
17, 3240, Note_on_c, 12, 81, 86
17, 3270, Note_on_c, 12, 81, 0
17, 3300, Note_on_c, 12, 79, 89
17, 3330, Note_on_c, 12, 79, 0
17, 3360, Note_on_c, 12, 79, 91
17, 3375, Note_on_c, 12, 79, 0
17, 3375, Note_on_c, 12, 81, 91
17, 3390, Note_on_c, 12, 81, 0
17, 3390, Note_on_c, 12, 79, 92
17, 3405, Note_on_c, 12, 79, 0
17, 3405, Note_on_c, 12, 81, 94
17, 3420, Note_on_c, 12, 81, 0
17, 3420, Note_on_c, 12, 78, 94
17, 3470, Note_on_c, 12, 78, 0
17, 3480, Note_on_c, 12, 78, 94
17, 3660, Note_on_c, 12, 78, 0
17, 3660, Note_on_c, 12, 81, 85
17, 3720, Note_on_c, 12, 81, 0
17, 3720, Note_on_c, 12, 84, 85
17, 3750, Note_on_c, 12, 84, 0
17, 3780, Note_on_c, 12, 78, 85
17, 3810, Note_on_c, 12, 78, 0
17, 3840, Note_on_c, 12, 79, 85
17, 3870, Note_on_c, 12, 79, 0
17, 3900, Note_on_c, 12, 79, 85
17, 3930, Note_on_c, 12, 79, 0
17, 3960, Note_on_c, 12, 79, 85
17, 3990, Note_on_c, 12, 79, 0
17, 3990, Note_on_c, 12, 78, 85
17, 4020, Note_on_c, 12, 78, 0
17, 4020, Note_on_c, 12, 76, 85
17, 4050, Note_on_c, 12, 76, 0
17, 4050, Note_on_c, 12, 78, 85
17, 4080, Note_on_c, 12, 78, 0
17, 4080, Note_on_c, 12, 79, 85
17, 4110, Note_on_c, 12, 79, 0
17, 4140, Note_on_c, 12, 79, 85
17, 4170, Note_on_c, 12, 79, 0
17, 4200, Note_on_c, 12, 83, 85
17, 4230, Note_on_c, 12, 83, 0
17, 4230, Note_on_c, 12, 81, 85
17, 4260, Note_on_c, 12, 81, 0
17, 4260, Note_on_c, 12, 79, 85
17, 4290, Note_on_c, 12, 79, 0
17, 4290, Note_on_c, 12, 81, 85
17, 4320, Note_on_c, 12, 81, 0
17, 4320, Note_on_c, 12, 83, 86
17, 4350, Note_on_c, 12, 83, 0
17, 4380, Note_on_c, 12, 83, 86
17, 4410, Note_on_c, 12, 83, 0
17, 4440, Note_on_c, 12, 86, 83
17, 4470, Note_on_c, 12, 86, 0
17, 4470, Note_on_c, 12, 84, 80
17, 4500, Note_on_c, 12, 84, 0
17, 4500, Note_on_c, 12, 83, 80
17, 4530, Note_on_c, 12, 83, 0
17, 4530, Note_on_c, 12, 84, 79
17, 4560, Note_on_c, 12, 84, 0
17, 4560, Note_on_c, 12, 86, 76
17, 4680, Note_on_c, 12, 86, 0
17, 4800, Note_on_c, 12, 74, 41
17, 5040, Note_on_c, 12, 74, 0
17, 5040, Note_on_c, 12, 76, 47
17, 5280, Note_on_c, 12, 76, 0
17, 5280, Note_on_c, 12, 74, 47
17, 5310, Note_on_c, 12, 74, 0
17, 5310, Note_on_c, 12, 72, 47
17, 5390, Note_on_c, 12, 72, 0
17, 5400, Note_on_c, 12, 72, 47
17, 5520, Note_on_c, 12, 72, 0
17, 5520, Note_on_c, 12, 72, 47
17, 5550, Note_on_c, 12, 72, 0
17, 5550, Note_on_c, 12, 71, 47
17, 5630, Note_on_c, 12, 71, 0
17, 5640, Note_on_c, 12, 71, 47
17, 5760, Note_on_c, 12, 71, 0
17, 5760, Note_on_c, 12, 71, 47
17, 5790, Note_on_c, 12, 71, 0
17, 5790, Note_on_c, 12, 69, 47
17, 5870, Note_on_c, 12, 69, 0
17, 5880, Note_on_c, 12, 69, 47
17, 6000, Note_on_c, 12, 69, 0
17, 6000, Note_on_c, 12, 67, 47
17, 6060, Note_on_c, 12, 67, 0
17, 6060, Note_on_c, 12, 66, 47
17, 6090, Note_on_c, 12, 66, 0
17, 6120, Note_on_c, 12, 64, 47
17, 6150, Note_on_c, 12, 64, 0
17, 6180, Note_on_c, 12, 66, 47
17, 6210, Note_on_c, 12, 66, 0
17, 6240, Note_on_c, 12, 67, 47
17, 6300, Note_on_c, 12, 67, 0
17, 6360, Note_on_c, 12, 69, 47
17, 6420, Note_on_c, 12, 69, 0
17, 6480, Note_on_c, 12, 71, 47
17, 6540, Note_on_c, 12, 71, 0
17, 6720, Note_on_c, 12, 74, 47
17, 6960, Note_on_c, 12, 74, 0
17, 6960, Note_on_c, 12, 76, 47
17, 7200, Note_on_c, 12, 76, 0
17, 7200, Note_on_c, 12, 74, 47
17, 7260, Note_on_c, 12, 74, 0
17, 7260, Note_on_c, 12, 72, 47
17, 7290, Note_on_c, 12, 72, 0
17, 7320, Note_on_c, 12, 72, 47
17, 7350, Note_on_c, 12, 72, 0
17, 7380, Note_on_c, 12, 72, 47
17, 7410, Note_on_c, 12, 72, 0
17, 7440, Note_on_c, 12, 72, 47
17, 7500, Note_on_c, 12, 72, 0
17, 7500, Note_on_c, 12, 71, 47
17, 7530, Note_on_c, 12, 71, 0
17, 7560, Note_on_c, 12, 71, 47
17, 7590, Note_on_c, 12, 71, 0
17, 7620, Note_on_c, 12, 71, 47
17, 7650, Note_on_c, 12, 71, 0
17, 7680, Note_on_c, 12, 71, 47
17, 7740, Note_on_c, 12, 71, 0
17, 7740, Note_on_c, 12, 69, 47
17, 7770, Note_on_c, 12, 69, 0
17, 7800, Note_on_c, 12, 69, 47
17, 7845, Note_on_c, 12, 69, 0
17, 7860, Note_on_c, 12, 69, 47
17, 7905, Note_on_c, 12, 69, 0
17, 7920, Note_on_c, 12, 67, 47
17, 7980, Note_on_c, 12, 67, 0
17, 7980, Note_on_c, 12, 66, 47
17, 8040, Note_on_c, 12, 66, 0
17, 8040, Note_on_c, 12, 64, 47
17, 8100, Note_on_c, 12, 64, 0
17, 8100, Note_on_c, 12, 66, 47
17, 8160, Note_on_c, 12, 66, 0
17, 8160, Note_on_c, 12, 55, 85
17, 8160, Note_on_c, 12, 67, 85
17, 8460, Note_on_c, 12, 67, 0
17, 8460, Note_on_c, 12, 55, 0
17, 8460, Note_on_c, 12, 67, 61
17, 8475, Note_on_c, 12, 67, 0
17, 8475, Note_on_c, 12, 69, 61
17, 8490, Note_on_c, 12, 69, 0
17, 8490, Note_on_c, 12, 66, 61
17, 8505, Note_on_c, 12, 66, 0
17, 8505, Note_on_c, 12, 67, 61
17, 8520, Note_on_c, 12, 67, 0
17, 8520, Note_on_c, 12, 69, 61
17, 8580, Note_on_c, 12, 69, 0
17, 8580, Note_on_c, 12, 66, 61
17, 8640, Note_on_c, 12, 66, 0
17, 8640, Note_on_c, 12, 71, 85
17, 8940, Note_on_c, 12, 71, 0
17, 8940, Note_on_c, 12, 71, 61
17, 8955, Note_on_c, 12, 71, 0
17, 8955, Note_on_c, 12, 72, 61
17, 8970, Note_on_c, 12, 72, 0
17, 8970, Note_on_c, 12, 69, 61
17, 8985, Note_on_c, 12, 69, 0
17, 8985, Note_on_c, 12, 71, 61
17, 9000, Note_on_c, 12, 71, 0
17, 9000, Note_on_c, 12, 72, 61
17, 9060, Note_on_c, 12, 72, 0
17, 9060, Note_on_c, 12, 69, 61
17, 9120, Note_on_c, 12, 69, 0
17, 9120, Note_on_c, 12, 74, 46
17, 9140, Note_on_c, 12, 74, 0
17, 9150, Note_on_c, 12, 74, 46
17, 9170, Note_on_c, 12, 74, 0
17, 9180, Note_on_c, 12, 74, 47
17, 9200, Note_on_c, 12, 74, 0
17, 9210, Note_on_c, 12, 74, 47
17, 9230, Note_on_c, 12, 74, 0
17, 9240, Note_on_c, 12, 74, 49
17, 9260, Note_on_c, 12, 74, 0
17, 9270, Note_on_c, 12, 74, 50
17, 9290, Note_on_c, 12, 74, 0
17, 9300, Note_on_c, 12, 74, 50
17, 9320, Note_on_c, 12, 74, 0
17, 9330, Note_on_c, 12, 74, 52
17, 9350, Note_on_c, 12, 74, 0
17, 9360, Note_on_c, 12, 76, 53
17, 9380, Note_on_c, 12, 76, 0
17, 9390, Note_on_c, 12, 76, 53
17, 9410, Note_on_c, 12, 76, 0
17, 9420, Note_on_c, 12, 76, 55
17, 9440, Note_on_c, 12, 76, 0
17, 9450, Note_on_c, 12, 76, 56
17, 9470, Note_on_c, 12, 76, 0
17, 9480, Note_on_c, 12, 78, 56
17, 9500, Note_on_c, 12, 78, 0
17, 9510, Note_on_c, 12, 78, 58
17, 9530, Note_on_c, 12, 78, 0
17, 9540, Note_on_c, 12, 78, 58
17, 9560, Note_on_c, 12, 78, 0
17, 9570, Note_on_c, 12, 78, 59
17, 9590, Note_on_c, 12, 78, 0
17, 9600, Note_on_c, 12, 79, 61
17, 9620, Note_on_c, 12, 79, 0
17, 9630, Note_on_c, 12, 79, 61
17, 9650, Note_on_c, 12, 79, 0
17, 9660, Note_on_c, 12, 79, 62
17, 9680, Note_on_c, 12, 79, 0
17, 9690, Note_on_c, 12, 79, 64
17, 9710, Note_on_c, 12, 79, 0
17, 9720, Note_on_c, 12, 81, 64
17, 9740, Note_on_c, 12, 81, 0
17, 9750, Note_on_c, 12, 81, 65
17, 9770, Note_on_c, 12, 81, 0
17, 9780, Note_on_c, 12, 81, 67
17, 9800, Note_on_c, 12, 81, 0
17, 9810, Note_on_c, 12, 81, 67
17, 9830, Note_on_c, 12, 81, 0
17, 9840, Note_on_c, 12, 83, 68
17, 9860, Note_on_c, 12, 83, 0
17, 9870, Note_on_c, 12, 83, 68
17, 9890, Note_on_c, 12, 83, 0
17, 9900, Note_on_c, 12, 83, 70
17, 9920, Note_on_c, 12, 83, 0
17, 9930, Note_on_c, 12, 83, 71
17, 9950, Note_on_c, 12, 83, 0
17, 9960, Note_on_c, 12, 85, 71
17, 9980, Note_on_c, 12, 85, 0
17, 9990, Note_on_c, 12, 85, 73
17, 10010, Note_on_c, 12, 85, 0
17, 10020, Note_on_c, 12, 85, 74
17, 10040, Note_on_c, 12, 85, 0
17, 10050, Note_on_c, 12, 85, 74
17, 10070, Note_on_c, 12, 85, 0
17, 10080, Note_on_c, 12, 86, 85
17, 10260, Note_on_c, 12, 86, 0
17, 10260, Note_on_c, 12, 81, 85
17, 10320, Note_on_c, 12, 81, 0
17, 10320, Note_on_c, 12, 85, 94
17, 10410, Note_on_c, 12, 85, 0
17, 10410, Note_on_c, 12, 81, 85
17, 10440, Note_on_c, 12, 81, 0
17, 10440, Note_on_c, 12, 85, 85
17, 10530, Note_on_c, 12, 85, 0
17, 10530, Note_on_c, 12, 81, 85
17, 10560, Note_on_c, 12, 81, 0
17, 10560, Note_on_c, 12, 86, 85
17, 10740, Note_on_c, 12, 86, 0
17, 10740, Note_on_c, 12, 81, 85
17, 10800, Note_on_c, 12, 81, 0
17, 10800, Note_on_c, 12, 85, 85
17, 10890, Note_on_c, 12, 85, 0
17, 10890, Note_on_c, 12, 81, 85
17, 10920, Note_on_c, 12, 81, 0
17, 10920, Note_on_c, 12, 85, 85
17, 11010, Note_on_c, 12, 85, 0
17, 11010, Note_on_c, 12, 81, 85
17, 11040, Note_on_c, 12, 81, 0
17, 11040, Note_on_c, 12, 86, 85
17, 11070, Note_on_c, 12, 86, 0
17, 11100, Note_on_c, 12, 78, 85
17, 11100, Note_on_c, 12, 86, 85
17, 11190, Note_on_c, 12, 86, 0
17, 11190, Note_on_c, 12, 78, 0
17, 11220, Note_on_c, 12, 78, 85
17, 11220, Note_on_c, 12, 86, 85
17, 11310, Note_on_c, 12, 86, 0
17, 11310, Note_on_c, 12, 78, 0
17, 11340, Note_on_c, 12, 78, 85
17, 11340, Note_on_c, 12, 86, 85
17, 11430, Note_on_c, 12, 86, 0
17, 11430, Note_on_c, 12, 78, 0
17, 11460, Note_on_c, 12, 78, 85
17, 11460, Note_on_c, 12, 86, 85
17, 11520, Note_on_c, 12, 78, 0
17, 11520, Note_on_c, 12, 76, 85
17, 11550, Note_on_c, 12, 76, 0
17, 11550, Note_on_c, 12, 86, 0
17, 11580, Note_on_c, 12, 76, 85
17, 11580, Note_on_c, 12, 86, 85
17, 11670, Note_on_c, 12, 86, 0
17, 11670, Note_on_c, 12, 76, 0
17, 11700, Note_on_c, 12, 76, 85
17, 11700, Note_on_c, 12, 86, 85
17, 11790, Note_on_c, 12, 86, 0
17, 11790, Note_on_c, 12, 76, 0
17, 11820, Note_on_c, 12, 76, 85
17, 11820, Note_on_c, 12, 86, 85
17, 11910, Note_on_c, 12, 86, 0
17, 11910, Note_on_c, 12, 76, 0
17, 11940, Note_on_c, 12, 76, 85
17, 11940, Note_on_c, 12, 86, 85
17, 12000, Note_on_c, 12, 86, 0
17, 12000, Note_on_c, 12, 76, 0
17, 12000, Note_on_c, 12, 76, 92
17, 12000, Note_on_c, 12, 85, 92
17, 12045, Note_on_c, 12, 85, 0
17, 12045, Note_on_c, 12, 76, 0
17, 12060, Note_on_c, 12, 81, 85
17, 12105, Note_on_c, 12, 81, 0
17, 12120, Note_on_c, 12, 86, 85
17, 12165, Note_on_c, 12, 86, 0
17, 12180, Note_on_c, 12, 81, 85
17, 12225, Note_on_c, 12, 81, 0
17, 12240, Note_on_c, 12, 85, 85
17, 12285, Note_on_c, 12, 85, 0
17, 12300, Note_on_c, 12, 81, 85
17, 12345, Note_on_c, 12, 81, 0
17, 12360, Note_on_c, 12, 86, 85
17, 12405, Note_on_c, 12, 86, 0
17, 12420, Note_on_c, 12, 81, 85
17, 12465, Note_on_c, 12, 81, 0
17, 12480, Note_on_c, 12, 85, 94
17, 12525, Note_on_c, 12, 85, 0
17, 12540, Note_on_c, 12, 69, 85
17, 12585, Note_on_c, 12, 69, 0
17, 12600, Note_on_c, 12, 69, 85
17, 12645, Note_on_c, 12, 69, 0
17, 12660, Note_on_c, 12, 69, 85
17, 12705, Note_on_c, 12, 69, 0
17, 12720, Note_on_c, 12, 69, 85
17, 12840, Note_on_c, 12, 69, 0
17, 12950, Control_c, 12, 11, 77
17, 12960, Note_on_c, 12, 81, 55
17, 12964, Control_c, 12, 11, 80
17, 12966, Control_c, 12, 11, 82
17, 12970, Control_c, 12, 11, 83
17, 12974, Control_c, 12, 11, 85
17, 12978, Control_c, 12, 11, 87
17, 12994, Control_c, 12, 11, 93
17, 12998, Control_c, 12, 11, 101
17, 13010, Control_c, 12, 11, 107
17, 13022, Control_c, 12, 11, 113
17, 13034, Control_c, 12, 11, 115
17, 13038, Control_c, 12, 11, 117
17, 13042, Control_c, 12, 11, 118
17, 13044, Control_c, 12, 11, 119
17, 13048, Control_c, 12, 11, 120
17, 13052, Control_c, 12, 11, 121
17, 13056, Control_c, 12, 11, 122
17, 13058, Control_c, 12, 11, 123
17, 13060, Control_c, 12, 11, 124
17, 13064, Control_c, 12, 11, 127
17, 13140, Note_on_c, 12, 81, 0
17, 13140, Note_on_c, 12, 79, 55
17, 13160, Note_on_c, 12, 79, 0
17, 13160, Note_on_c, 12, 78, 55
17, 13180, Note_on_c, 12, 78, 0
17, 13180, Note_on_c, 12, 76, 55
17, 13200, Note_on_c, 12, 76, 0
17, 13200, Note_on_c, 12, 74, 55
17, 13260, Note_on_c, 12, 74, 0
17, 13320, Note_on_c, 12, 83, 55
17, 13380, Note_on_c, 12, 83, 0
17, 13440, Note_on_c, 12, 79, 55
17, 13500, Note_on_c, 12, 79, 0
17, 13560, Note_on_c, 12, 76, 55
17, 13620, Note_on_c, 12, 76, 0
17, 13680, Note_on_c, 12, 81, 55
17, 13740, Note_on_c, 12, 81, 0
17, 13920, Note_on_c, 12, 78, 55
17, 14100, Note_on_c, 12, 78, 0
17, 14100, Note_on_c, 12, 76, 55
17, 14120, Note_on_c, 12, 76, 0
17, 14120, Note_on_c, 12, 74, 55
17, 14140, Note_on_c, 12, 74, 0
17, 14140, Note_on_c, 12, 73, 55
17, 14160, Note_on_c, 12, 73, 0
17, 14160, Note_on_c, 12, 71, 55
17, 14220, Note_on_c, 12, 71, 0
17, 14280, Note_on_c, 12, 79, 55
17, 14340, Note_on_c, 12, 79, 0
17, 14400, Note_on_c, 12, 78, 55
17, 14640, Note_on_c, 12, 78, 0
17, 14640, Note_on_c, 12, 76, 49
17, 14760, Note_on_c, 12, 76, 0
17, 14940, Note_on_c, 12, 81, 55
17, 14970, Note_on_c, 12, 81, 0
17, 15000, Note_on_c, 12, 81, 55
17, 15030, Note_on_c, 12, 81, 0
17, 15060, Note_on_c, 12, 81, 55
17, 15090, Note_on_c, 12, 81, 0
17, 15120, Note_on_c, 12, 81, 55
17, 15150, Note_on_c, 12, 81, 0
17, 15180, Note_on_c, 12, 81, 55
17, 15210, Note_on_c, 12, 81, 0
17, 15240, Note_on_c, 12, 81, 55
17, 15270, Note_on_c, 12, 81, 0
17, 15300, Note_on_c, 12, 81, 55
17, 15330, Note_on_c, 12, 81, 0
17, 15360, Note_on_c, 12, 81, 55
17, 15390, Note_on_c, 12, 81, 0
17, 15420, Note_on_c, 12, 81, 55
17, 15450, Note_on_c, 12, 81, 0
17, 15480, Note_on_c, 12, 81, 55
17, 15510, Note_on_c, 12, 81, 0
17, 15540, Note_on_c, 12, 81, 55
17, 15570, Note_on_c, 12, 81, 0
17, 15600, Note_on_c, 12, 81, 55
17, 15630, Note_on_c, 12, 81, 0
17, 15660, Note_on_c, 12, 81, 55
17, 15690, Note_on_c, 12, 81, 0
17, 15720, Note_on_c, 12, 83, 55
17, 15750, Note_on_c, 12, 83, 0
17, 15780, Note_on_c, 12, 85, 55
17, 15810, Note_on_c, 12, 85, 0
17, 15840, Note_on_c, 12, 85, 55
17, 15900, Note_on_c, 12, 85, 0
17, 15900, Note_on_c, 12, 86, 55
17, 15960, Note_on_c, 12, 86, 0
17, 16020, Note_on_c, 12, 83, 55
17, 16050, Note_on_c, 12, 83, 0
17, 16080, Note_on_c, 12, 83, 55
17, 16140, Note_on_c, 12, 83, 0
17, 16140, Note_on_c, 12, 81, 55
17, 16200, Note_on_c, 12, 81, 0
17, 16260, Note_on_c, 12, 73, 55
17, 16305, Note_on_c, 12, 73, 0
17, 16320, Note_on_c, 12, 74, 55
17, 16440, Note_on_c, 12, 74, 0
17, 16500, Note_on_c, 12, 81, 55
17, 16530, Note_on_c, 12, 81, 0
17, 16560, Note_on_c, 12, 86, 55
17, 16620, Note_on_c, 12, 86, 0
17, 16620, Note_on_c, 12, 85, 55
17, 16680, Note_on_c, 12, 85, 0
17, 16680, Note_on_c, 12, 83, 55
17, 16740, Note_on_c, 12, 83, 0
17, 16740, Note_on_c, 12, 81, 55
17, 16800, Note_on_c, 12, 81, 0
17, 16800, Note_on_c, 12, 83, 55
17, 16815, Note_on_c, 12, 83, 0
17, 16815, Note_on_c, 12, 85, 55
17, 16830, Note_on_c, 12, 85, 0
17, 16830, Note_on_c, 12, 83, 55
17, 16845, Note_on_c, 12, 83, 0
17, 16845, Note_on_c, 12, 85, 55
17, 16860, Note_on_c, 12, 85, 0
17, 16860, Note_on_c, 12, 81, 55
17, 16920, Note_on_c, 12, 81, 0
17, 16980, Note_on_c, 12, 81, 55
17, 17010, Note_on_c, 12, 81, 0
17, 17040, Note_on_c, 12, 81, 55
17, 17070, Note_on_c, 12, 81, 0
17, 17100, Note_on_c, 12, 81, 55
17, 17130, Note_on_c, 12, 81, 0
17, 17160, Note_on_c, 12, 81, 55
17, 17190, Note_on_c, 12, 81, 0
17, 17220, Note_on_c, 12, 81, 55
17, 17250, Note_on_c, 12, 81, 0
17, 17280, Note_on_c, 12, 83, 55
17, 17295, Note_on_c, 12, 83, 0
17, 17295, Note_on_c, 12, 85, 55
17, 17310, Note_on_c, 12, 85, 0
17, 17310, Note_on_c, 12, 83, 55
17, 17325, Note_on_c, 12, 83, 0
17, 17325, Note_on_c, 12, 85, 55
17, 17340, Note_on_c, 12, 85, 0
17, 17340, Note_on_c, 12, 81, 55
17, 17400, Note_on_c, 12, 81, 0
17, 17460, Note_on_c, 12, 81, 55
17, 17505, Note_on_c, 12, 81, 0
17, 17520, Note_on_c, 12, 86, 55
17, 17580, Note_on_c, 12, 86, 0
17, 17580, Note_on_c, 12, 85, 55
17, 17640, Note_on_c, 12, 85, 0
17, 17640, Note_on_c, 12, 83, 55
17, 17700, Note_on_c, 12, 83, 0
17, 17700, Note_on_c, 12, 81, 55
17, 17760, Note_on_c, 12, 81, 0
17, 17760, Note_on_c, 12, 83, 55
17, 17775, Note_on_c, 12, 83, 0
17, 17775, Note_on_c, 12, 85, 55
17, 17790, Note_on_c, 12, 85, 0
17, 17790, Note_on_c, 12, 83, 55
17, 17805, Note_on_c, 12, 83, 0
17, 17805, Note_on_c, 12, 85, 55
17, 17820, Note_on_c, 12, 85, 0
17, 17820, Note_on_c, 12, 81, 55
17, 17880, Note_on_c, 12, 81, 0
17, 17940, Note_on_c, 12, 81, 55
17, 17970, Note_on_c, 12, 81, 0
17, 18000, Note_on_c, 12, 81, 55
17, 18030, Note_on_c, 12, 81, 0
17, 18060, Note_on_c, 12, 81, 55
17, 18090, Note_on_c, 12, 81, 0
17, 18120, Note_on_c, 12, 81, 55
17, 18150, Note_on_c, 12, 81, 0
17, 18180, Note_on_c, 12, 81, 53
17, 18210, Note_on_c, 12, 81, 0
17, 18240, Note_on_c, 12, 83, 49
17, 18255, Note_on_c, 12, 83, 0
17, 18255, Note_on_c, 12, 85, 49
17, 18270, Note_on_c, 12, 85, 0
17, 18270, Note_on_c, 12, 83, 47
17, 18285, Note_on_c, 12, 83, 0
17, 18285, Note_on_c, 12, 85, 47
17, 18300, Note_on_c, 12, 85, 0
17, 18300, Note_on_c, 12, 81, 46
17, 18360, Note_on_c, 12, 81, 0
17, 18480, Note_on_c, 12, 71, 91
17, 18480, Note_on_c, 12, 83, 91
17, 18650, Note_on_c, 12, 83, 0
17, 18650, Note_on_c, 12, 71, 0
17, 18660, Note_on_c, 12, 81, 89
17, 18680, Note_on_c, 12, 81, 0
17, 18680, Note_on_c, 12, 79, 92
17, 18700, Note_on_c, 12, 79, 0
17, 18700, Note_on_c, 12, 78, 94
17, 18720, Note_on_c, 12, 78, 0
17, 18720, Note_on_c, 12, 79, 97
17, 18840, Note_on_c, 12, 79, 0
17, 18960, Note_on_c, 12, 81, 85
17, 18960, Note_on_c, 12, 69, 85
17, 19130, Note_on_c, 12, 69, 0
17, 19130, Note_on_c, 12, 81, 0
17, 19140, Note_on_c, 12, 79, 86
17, 19160, Note_on_c, 12, 79, 0
17, 19160, Note_on_c, 12, 78, 86
17, 19180, Note_on_c, 12, 78, 0
17, 19180, Note_on_c, 12, 76, 89
17, 19200, Note_on_c, 12, 76, 0
17, 19200, Note_on_c, 12, 78, 92
17, 19320, Note_on_c, 12, 78, 0
17, 19440, Note_on_c, 12, 83, 85
17, 19500, Note_on_c, 12, 83, 0
17, 19500, Note_on_c, 12, 85, 85
17, 19530, Note_on_c, 12, 85, 0
17, 19530, Note_on_c, 12, 86, 89
17, 19560, Note_on_c, 12, 86, 0
17, 19560, Note_on_c, 12, 85, 94
17, 19605, Note_on_c, 12, 85, 0
17, 19620, Note_on_c, 12, 83, 95
17, 19650, Note_on_c, 12, 83, 0
17, 19680, Note_on_c, 12, 83, 97
17, 19740, Note_on_c, 12, 83, 0
17, 19740, Note_on_c, 12, 81, 101
17, 19785, Note_on_c, 12, 81, 0
17, 19800, Note_on_c, 12, 78, 104
17, 19830, Note_on_c, 12, 78, 0
17, 19860, Note_on_c, 12, 81, 104
17, 19890, Note_on_c, 12, 81, 0
17, 19920, Note_on_c, 12, 81, 104
17, 19980, Note_on_c, 12, 81, 0
17, 19980, Note_on_c, 12, 79, 103
17, 20025, Note_on_c, 12, 79, 0
17, 20040, Note_on_c, 12, 78, 98
17, 20070, Note_on_c, 12, 78, 0
17, 20100, Note_on_c, 12, 76, 89
17, 20130, Note_on_c, 12, 76, 0
17, 20160, Note_on_c, 12, 74, 85
17, 20280, Note_on_c, 12, 74, 0
17, 20340, Note_on_c, 12, 81, 53
17, 20370, Note_on_c, 12, 81, 0
17, 20400, Note_on_c, 12, 86, 53
17, 20460, Note_on_c, 12, 86, 0
17, 20460, Note_on_c, 12, 85, 53
17, 20520, Note_on_c, 12, 85, 0
17, 20520, Note_on_c, 12, 83, 53
17, 20580, Note_on_c, 12, 83, 0
17, 20580, Note_on_c, 12, 81, 53
17, 20640, Note_on_c, 12, 81, 0
17, 20640, Note_on_c, 12, 83, 55
17, 20655, Note_on_c, 12, 83, 0
17, 20655, Note_on_c, 12, 85, 55
17, 20670, Note_on_c, 12, 85, 0
17, 20670, Note_on_c, 12, 83, 55
17, 20685, Note_on_c, 12, 83, 0
17, 20685, Note_on_c, 12, 85, 55
17, 20700, Note_on_c, 12, 85, 0
17, 20700, Note_on_c, 12, 81, 55
17, 20760, Note_on_c, 12, 81, 0
17, 20820, Note_on_c, 12, 81, 55
17, 20850, Note_on_c, 12, 81, 0
17, 20880, Note_on_c, 12, 81, 55
17, 20910, Note_on_c, 12, 81, 0
17, 20940, Note_on_c, 12, 81, 55
17, 20970, Note_on_c, 12, 81, 0
17, 21000, Note_on_c, 12, 81, 55
17, 21030, Note_on_c, 12, 81, 0
17, 21060, Note_on_c, 12, 81, 55
17, 21090, Note_on_c, 12, 81, 0
17, 21120, Note_on_c, 12, 83, 55
17, 21135, Note_on_c, 12, 83, 0
17, 21135, Note_on_c, 12, 85, 55
17, 21150, Note_on_c, 12, 85, 0
17, 21150, Note_on_c, 12, 83, 55
17, 21165, Note_on_c, 12, 83, 0
17, 21165, Note_on_c, 12, 85, 55
17, 21180, Note_on_c, 12, 85, 0
17, 21180, Note_on_c, 12, 81, 55
17, 21240, Note_on_c, 12, 81, 0
17, 21300, Note_on_c, 12, 81, 55
17, 21345, Note_on_c, 12, 81, 0
17, 21360, Note_on_c, 12, 86, 55
17, 21420, Note_on_c, 12, 86, 0
17, 21420, Note_on_c, 12, 85, 55
17, 21480, Note_on_c, 12, 85, 0
17, 21480, Note_on_c, 12, 83, 55
17, 21540, Note_on_c, 12, 83, 0
17, 21540, Note_on_c, 12, 81, 55
17, 21600, Note_on_c, 12, 81, 0
17, 21600, Note_on_c, 12, 83, 55
17, 21615, Note_on_c, 12, 83, 0
17, 21615, Note_on_c, 12, 85, 55
17, 21630, Note_on_c, 12, 85, 0
17, 21630, Note_on_c, 12, 83, 55
17, 21645, Note_on_c, 12, 83, 0
17, 21645, Note_on_c, 12, 85, 55
17, 21660, Note_on_c, 12, 85, 0
17, 21660, Note_on_c, 12, 81, 55
17, 21720, Note_on_c, 12, 81, 0
17, 21780, Note_on_c, 12, 81, 55
17, 21810, Note_on_c, 12, 81, 0
17, 21840, Note_on_c, 12, 81, 55
17, 21870, Note_on_c, 12, 81, 0
17, 21900, Note_on_c, 12, 81, 55
17, 21930, Note_on_c, 12, 81, 0
17, 21960, Note_on_c, 12, 81, 55
17, 21990, Note_on_c, 12, 81, 0
17, 22020, Note_on_c, 12, 81, 55
17, 22050, Note_on_c, 12, 81, 0
17, 22080, Note_on_c, 12, 83, 59
17, 22095, Note_on_c, 12, 83, 0
17, 22095, Note_on_c, 12, 85, 59
17, 22110, Note_on_c, 12, 85, 0
17, 22110, Note_on_c, 12, 83, 59
17, 22125, Note_on_c, 12, 83, 0
17, 22125, Note_on_c, 12, 85, 59
17, 22140, Note_on_c, 12, 85, 0
17, 22140, Note_on_c, 12, 81, 59
17, 22200, Note_on_c, 12, 81, 0
17, 22320, Note_on_c, 12, 71, 85
17, 22320, Note_on_c, 12, 83, 85
17, 22490, Note_on_c, 12, 83, 0
17, 22490, Note_on_c, 12, 71, 0
17, 22500, Note_on_c, 12, 81, 85
17, 22520, Note_on_c, 12, 81, 0
17, 22520, Note_on_c, 12, 79, 85
17, 22540, Note_on_c, 12, 79, 0
17, 22540, Note_on_c, 12, 78, 85
17, 22560, Note_on_c, 12, 78, 0
17, 22560, Note_on_c, 12, 79, 85
17, 22680, Note_on_c, 12, 79, 0
17, 22800, Note_on_c, 12, 81, 85
17, 22800, Note_on_c, 12, 69, 85
17, 22970, Note_on_c, 12, 69, 0
17, 22970, Note_on_c, 12, 81, 0
17, 22980, Note_on_c, 12, 79, 85
17, 23000, Note_on_c, 12, 79, 0
17, 23000, Note_on_c, 12, 78, 85
17, 23020, Note_on_c, 12, 78, 0
17, 23020, Note_on_c, 12, 76, 85
17, 23040, Note_on_c, 12, 76, 0
17, 23040, Note_on_c, 12, 78, 85
17, 23160, Note_on_c, 12, 78, 0
17, 23280, Note_on_c, 12, 83, 80
17, 23340, Note_on_c, 12, 83, 0
17, 23340, Note_on_c, 12, 85, 82
17, 23370, Note_on_c, 12, 85, 0
17, 23370, Note_on_c, 12, 86, 83
17, 23400, Note_on_c, 12, 86, 0
17, 23400, Note_on_c, 12, 85, 83
17, 23445, Note_on_c, 12, 85, 0
17, 23460, Note_on_c, 12, 83, 85
17, 23490, Note_on_c, 12, 83, 0
17, 23520, Note_on_c, 12, 83, 86
17, 23580, Note_on_c, 12, 83, 0
17, 23580, Note_on_c, 12, 81, 88
17, 23625, Note_on_c, 12, 81, 0
17, 23640, Note_on_c, 12, 78, 88
17, 23670, Note_on_c, 12, 78, 0
17, 23700, Note_on_c, 12, 81, 88
17, 23730, Note_on_c, 12, 81, 0
17, 23760, Note_on_c, 12, 81, 88
17, 23820, Note_on_c, 12, 81, 0
17, 23820, Note_on_c, 12, 79, 88
17, 23865, Note_on_c, 12, 79, 0
17, 23880, Note_on_c, 12, 78, 88
17, 23910, Note_on_c, 12, 78, 0
17, 23940, Note_on_c, 12, 76, 88
17, 23970, Note_on_c, 12, 76, 0
17, 24000, Note_on_c, 12, 74, 88
17, 24045, Note_on_c, 12, 74, 0
17, 24060, Note_on_c, 12, 69, 88
17, 24105, Note_on_c, 12, 69, 0
17, 24120, Note_on_c, 12, 71, 88
17, 24165, Note_on_c, 12, 71, 0
17, 24180, Note_on_c, 12, 73, 85
17, 24225, Note_on_c, 12, 73, 0
17, 24240, Note_on_c, 12, 74, 82
17, 24270, Note_on_c, 12, 74, 0
17, 24300, Note_on_c, 12, 74, 85
17, 24330, Note_on_c, 12, 74, 0
17, 24360, Note_on_c, 12, 76, 85
17, 24375, Note_on_c, 12, 76, 0
17, 24375, Note_on_c, 12, 78, 85
17, 24390, Note_on_c, 12, 78, 0
17, 24390, Note_on_c, 12, 76, 85
17, 24405, Note_on_c, 12, 76, 0
17, 24405, Note_on_c, 12, 78, 85
17, 24420, Note_on_c, 12, 78, 0
17, 24420, Note_on_c, 12, 74, 85
17, 24450, Note_on_c, 12, 74, 0
17, 24450, Note_on_c, 12, 76, 85
17, 24480, Note_on_c, 12, 76, 0
17, 24480, Note_on_c, 12, 78, 85
17, 24540, Note_on_c, 12, 78, 0
17, 24540, Note_on_c, 12, 73, 85
17, 24585, Note_on_c, 12, 73, 0
17, 24600, Note_on_c, 12, 74, 85
17, 24645, Note_on_c, 12, 74, 0
17, 24660, Note_on_c, 12, 76, 85
17, 24705, Note_on_c, 12, 76, 0
17, 24720, Note_on_c, 12, 78, 85
17, 24765, Note_on_c, 12, 78, 0
17, 24780, Note_on_c, 12, 78, 85
17, 24825, Note_on_c, 12, 78, 0
17, 24840, Note_on_c, 12, 79, 85
17, 24855, Note_on_c, 12, 79, 0
17, 24855, Note_on_c, 12, 81, 86
17, 24870, Note_on_c, 12, 81, 0
17, 24870, Note_on_c, 12, 79, 88
17, 24885, Note_on_c, 12, 79, 0
17, 24885, Note_on_c, 12, 81, 88
17, 24900, Note_on_c, 12, 81, 0
17, 24900, Note_on_c, 12, 78, 88
17, 24930, Note_on_c, 12, 78, 0
17, 24930, Note_on_c, 12, 79, 88
17, 24960, Note_on_c, 12, 79, 0
17, 24960, Note_on_c, 12, 81, 88
17, 25005, Note_on_c, 12, 81, 0
17, 25020, Note_on_c, 12, 81, 91
17, 25065, Note_on_c, 12, 81, 0
17, 25080, Note_on_c, 12, 82, 92
17, 25095, Note_on_c, 12, 82, 0
17, 25095, Note_on_c, 12, 83, 92
17, 25110, Note_on_c, 12, 83, 0
17, 25110, Note_on_c, 12, 82, 94
17, 25125, Note_on_c, 12, 82, 0
17, 25125, Note_on_c, 12, 83, 94
17, 25140, Note_on_c, 12, 83, 0
17, 25140, Note_on_c, 12, 80, 95
17, 25170, Note_on_c, 12, 80, 0
17, 25170, Note_on_c, 12, 82, 97
17, 25200, Note_on_c, 12, 82, 0
17, 25200, Note_on_c, 12, 83, 100
17, 25320, Note_on_c, 12, 83, 0
17, 25440, Note_on_c, 12, 71, 47
17, 25620, Note_on_c, 12, 71, 0
17, 25620, Note_on_c, 12, 76, 47
17, 25665, Note_on_c, 12, 76, 0
17, 25680, Note_on_c, 12, 74, 47
17, 25740, Note_on_c, 12, 74, 0
17, 25740, Note_on_c, 12, 73, 47
17, 25800, Note_on_c, 12, 73, 0
17, 25800, Note_on_c, 12, 71, 49
17, 25860, Note_on_c, 12, 71, 0
17, 25860, Note_on_c, 12, 69, 50
17, 25920, Note_on_c, 12, 69, 0
17, 25920, Note_on_c, 12, 74, 50
17, 25980, Note_on_c, 12, 74, 0
17, 26040, Note_on_c, 12, 78, 50
17, 26100, Note_on_c, 12, 78, 0
17, 26160, Note_on_c, 12, 74, 41
17, 26220, Note_on_c, 12, 74, 0
17, 26400, Note_on_c, 12, 62, 85
17, 26400, Note_on_c, 12, 79, 85
17, 26400, Note_on_c, 12, 71, 85
17, 26520, Note_on_c, 12, 71, 0
17, 26520, Note_on_c, 12, 79, 0
17, 26520, Note_on_c, 12, 62, 0
17, 26580, Note_on_c, 12, 74, 85
17, 26610, Note_on_c, 12, 74, 0
17, 26640, Note_on_c, 12, 79, 85
17, 26760, Note_on_c, 12, 79, 0
17, 26820, Note_on_c, 12, 74, 85
17, 26850, Note_on_c, 12, 74, 0
17, 26880, Note_on_c, 12, 79, 85
17, 26910, Note_on_c, 12, 79, 0
17, 26940, Note_on_c, 12, 74, 85
17, 26970, Note_on_c, 12, 74, 0
17, 27000, Note_on_c, 12, 79, 85
17, 27030, Note_on_c, 12, 79, 0
17, 27060, Note_on_c, 12, 83, 85
17, 27090, Note_on_c, 12, 83, 0
17, 27120, Note_on_c, 12, 86, 85
17, 27240, Note_on_c, 12, 86, 0
17, 27360, Note_on_c, 12, 84, 85
17, 27480, Note_on_c, 12, 84, 0
17, 27540, Note_on_c, 12, 81, 76
17, 27570, Note_on_c, 12, 81, 0
17, 27600, Note_on_c, 12, 84, 85
17, 27720, Note_on_c, 12, 84, 0
17, 27780, Note_on_c, 12, 81, 76
17, 27810, Note_on_c, 12, 81, 0
17, 27840, Note_on_c, 12, 84, 85
17, 27870, Note_on_c, 12, 84, 0
17, 27900, Note_on_c, 12, 81, 74
17, 27930, Note_on_c, 12, 81, 0
17, 27960, Note_on_c, 12, 78, 85
17, 27990, Note_on_c, 12, 78, 0
17, 28020, Note_on_c, 12, 81, 71
17, 28050, Note_on_c, 12, 81, 0
17, 28080, Note_on_c, 12, 74, 85
17, 28200, Note_on_c, 12, 74, 0
17, 28320, Note_on_c, 12, 62, 85
17, 28320, Note_on_c, 12, 79, 85
17, 28320, Note_on_c, 12, 71, 85
17, 28380, Note_on_c, 12, 71, 0
17, 28380, Note_on_c, 12, 79, 0
17, 28380, Note_on_c, 12, 62, 0
17, 28440, Note_on_c, 12, 79, 85
17, 28620, Note_on_c, 12, 79, 0
17, 28620, Note_on_c, 12, 83, 85
17, 28680, Note_on_c, 12, 83, 0
17, 28680, Note_on_c, 12, 81, 85
17, 28710, Note_on_c, 12, 81, 0
17, 28740, Note_on_c, 12, 79, 85
17, 28770, Note_on_c, 12, 79, 0
17, 28800, Note_on_c, 12, 79, 85
17, 28815, Note_on_c, 12, 79, 0
17, 28815, Note_on_c, 12, 81, 85
17, 28830, Note_on_c, 12, 81, 0
17, 28830, Note_on_c, 12, 79, 85
17, 28845, Note_on_c, 12, 79, 0
17, 28845, Note_on_c, 12, 81, 85
17, 28860, Note_on_c, 12, 81, 0
17, 28860, Note_on_c, 12, 78, 85
17, 28910, Note_on_c, 12, 78, 0
17, 28920, Note_on_c, 12, 78, 85
17, 29100, Note_on_c, 12, 78, 0
17, 29100, Note_on_c, 12, 81, 85
17, 29160, Note_on_c, 12, 81, 0
17, 29160, Note_on_c, 12, 84, 85
17, 29190, Note_on_c, 12, 84, 0
17, 29220, Note_on_c, 12, 78, 85
17, 29250, Note_on_c, 12, 78, 0
17, 29280, Note_on_c, 12, 81, 85
17, 29340, Note_on_c, 12, 81, 0
17, 29340, Note_on_c, 12, 79, 85
17, 29370, Note_on_c, 12, 79, 0
17, 29400, Note_on_c, 12, 79, 85
17, 29580, Note_on_c, 12, 79, 0
17, 29580, Note_on_c, 12, 83, 85
17, 29640, Note_on_c, 12, 83, 0
17, 29640, Note_on_c, 12, 81, 85
17, 29670, Note_on_c, 12, 81, 0
17, 29700, Note_on_c, 12, 79, 85
17, 29730, Note_on_c, 12, 79, 0
17, 29760, Note_on_c, 12, 79, 85
17, 29775, Note_on_c, 12, 79, 0
17, 29775, Note_on_c, 12, 81, 85
17, 29790, Note_on_c, 12, 81, 0
17, 29790, Note_on_c, 12, 79, 85
17, 29805, Note_on_c, 12, 79, 0
17, 29805, Note_on_c, 12, 81, 85
17, 29820, Note_on_c, 12, 81, 0
17, 29820, Note_on_c, 12, 78, 85
17, 29870, Note_on_c, 12, 78, 0
17, 29880, Note_on_c, 12, 78, 85
17, 30060, Note_on_c, 12, 78, 0
17, 30060, Note_on_c, 12, 81, 85
17, 30120, Note_on_c, 12, 81, 0
17, 30120, Note_on_c, 12, 84, 85
17, 30150, Note_on_c, 12, 84, 0
17, 30180, Note_on_c, 12, 78, 85
17, 30210, Note_on_c, 12, 78, 0
17, 30240, Note_on_c, 12, 79, 85
17, 30270, Note_on_c, 12, 79, 0
17, 30300, Note_on_c, 12, 79, 85
17, 30330, Note_on_c, 12, 79, 0
17, 30360, Note_on_c, 12, 79, 85
17, 30390, Note_on_c, 12, 79, 0
17, 30390, Note_on_c, 12, 78, 85
17, 30420, Note_on_c, 12, 78, 0
17, 30420, Note_on_c, 12, 76, 85
17, 30450, Note_on_c, 12, 76, 0
17, 30450, Note_on_c, 12, 78, 85
17, 30480, Note_on_c, 12, 78, 0
17, 30480, Note_on_c, 12, 79, 85
17, 30510, Note_on_c, 12, 79, 0
17, 30540, Note_on_c, 12, 79, 85
17, 30570, Note_on_c, 12, 79, 0
17, 30600, Note_on_c, 12, 83, 85
17, 30630, Note_on_c, 12, 83, 0
17, 30630, Note_on_c, 12, 81, 85
17, 30660, Note_on_c, 12, 81, 0
17, 30660, Note_on_c, 12, 79, 85
17, 30690, Note_on_c, 12, 79, 0
17, 30690, Note_on_c, 12, 81, 85
17, 30720, Note_on_c, 12, 81, 0
17, 30720, Note_on_c, 12, 83, 85
17, 30750, Note_on_c, 12, 83, 0
17, 30780, Note_on_c, 12, 83, 85
17, 30810, Note_on_c, 12, 83, 0
17, 30840, Note_on_c, 12, 86, 85
17, 30870, Note_on_c, 12, 86, 0
17, 30870, Note_on_c, 12, 84, 85
17, 30900, Note_on_c, 12, 84, 0
17, 30900, Note_on_c, 12, 83, 85
17, 30930, Note_on_c, 12, 83, 0
17, 30930, Note_on_c, 12, 84, 85
17, 30960, Note_on_c, 12, 84, 0
17, 30960, Note_on_c, 12, 86, 85
17, 31080, Note_on_c, 12, 86, 0
17, 31200, Note_on_c, 12, 74, 52
17, 31440, Note_on_c, 12, 74, 0
17, 31440, Note_on_c, 12, 76, 40
17, 31680, Note_on_c, 12, 76, 0
17, 31680, Note_on_c, 12, 74, 44
17, 31710, Note_on_c, 12, 74, 0
17, 31710, Note_on_c, 12, 72, 46
17, 31790, Note_on_c, 12, 72, 0
17, 31800, Note_on_c, 12, 72, 46
17, 31920, Note_on_c, 12, 72, 0
17, 31920, Note_on_c, 12, 72, 47
17, 31950, Note_on_c, 12, 72, 0
17, 31950, Note_on_c, 12, 71, 47
17, 32030, Note_on_c, 12, 71, 0
17, 32040, Note_on_c, 12, 71, 47
17, 32160, Note_on_c, 12, 71, 0
17, 32160, Note_on_c, 12, 71, 47
17, 32190, Note_on_c, 12, 71, 0
17, 32190, Note_on_c, 12, 69, 47
17, 32270, Note_on_c, 12, 69, 0
17, 32280, Note_on_c, 12, 69, 47
17, 32400, Note_on_c, 12, 69, 0
17, 32400, Note_on_c, 12, 67, 47
17, 32460, Note_on_c, 12, 67, 0
17, 32460, Note_on_c, 12, 66, 47
17, 32490, Note_on_c, 12, 66, 0
17, 32520, Note_on_c, 12, 64, 47
17, 32550, Note_on_c, 12, 64, 0
17, 32580, Note_on_c, 12, 66, 47
17, 32610, Note_on_c, 12, 66, 0
17, 32640, Note_on_c, 12, 67, 47
17, 32700, Note_on_c, 12, 67, 0
17, 32760, Note_on_c, 12, 69, 47
17, 32820, Note_on_c, 12, 69, 0
17, 32880, Note_on_c, 12, 71, 47
17, 32940, Note_on_c, 12, 71, 0
17, 33120, Note_on_c, 12, 74, 54
17, 33360, Note_on_c, 12, 74, 0
17, 33360, Note_on_c, 12, 76, 59
17, 33600, Note_on_c, 12, 76, 0
17, 33600, Note_on_c, 12, 74, 47
17, 33660, Note_on_c, 12, 74, 0
17, 33660, Note_on_c, 12, 72, 47
17, 33690, Note_on_c, 12, 72, 0
17, 33720, Note_on_c, 12, 72, 47
17, 33750, Note_on_c, 12, 72, 0
17, 33780, Note_on_c, 12, 72, 47
17, 33810, Note_on_c, 12, 72, 0
17, 33840, Note_on_c, 12, 72, 47
17, 33900, Note_on_c, 12, 72, 0
17, 33900, Note_on_c, 12, 71, 47
17, 33930, Note_on_c, 12, 71, 0
17, 33960, Note_on_c, 12, 71, 47
17, 33990, Note_on_c, 12, 71, 0
17, 34020, Note_on_c, 12, 71, 47
17, 34050, Note_on_c, 12, 71, 0
17, 34080, Note_on_c, 12, 71, 47
17, 34140, Note_on_c, 12, 71, 0
17, 34140, Note_on_c, 12, 69, 47
17, 34170, Note_on_c, 12, 69, 0
17, 34200, Note_on_c, 12, 69, 47
17, 34245, Note_on_c, 12, 69, 0
17, 34260, Note_on_c, 12, 69, 47
17, 34305, Note_on_c, 12, 69, 0
17, 34320, Note_on_c, 12, 67, 47
17, 34380, Note_on_c, 12, 67, 0
17, 34380, Note_on_c, 12, 66, 47
17, 34440, Note_on_c, 12, 66, 0
17, 34440, Note_on_c, 12, 64, 47
17, 34500, Note_on_c, 12, 64, 0
17, 34500, Note_on_c, 12, 66, 47
17, 34560, Note_on_c, 12, 66, 0
17, 34560, Note_on_c, 12, 55, 95
17, 34560, Note_on_c, 12, 67, 95
17, 34860, Note_on_c, 12, 67, 0
17, 34860, Note_on_c, 12, 55, 0
17, 34860, Note_on_c, 12, 67, 61
17, 34875, Note_on_c, 12, 67, 0
17, 34875, Note_on_c, 12, 69, 61
17, 34890, Note_on_c, 12, 69, 0
17, 34890, Note_on_c, 12, 66, 61
17, 34905, Note_on_c, 12, 66, 0
17, 34905, Note_on_c, 12, 67, 61
17, 34920, Note_on_c, 12, 67, 0
17, 34920, Note_on_c, 12, 69, 61
17, 34980, Note_on_c, 12, 69, 0
17, 34980, Note_on_c, 12, 66, 61
17, 35040, Note_on_c, 12, 66, 0
17, 35040, Note_on_c, 12, 71, 85
17, 35340, Note_on_c, 12, 71, 0
17, 35340, Note_on_c, 12, 71, 61
17, 35355, Note_on_c, 12, 71, 0
17, 35355, Note_on_c, 12, 72, 61
17, 35370, Note_on_c, 12, 72, 0
17, 35370, Note_on_c, 12, 69, 61
17, 35385, Note_on_c, 12, 69, 0
17, 35385, Note_on_c, 12, 71, 61
17, 35400, Note_on_c, 12, 71, 0
17, 35400, Note_on_c, 12, 72, 61
17, 35460, Note_on_c, 12, 72, 0
17, 35460, Note_on_c, 12, 69, 61
17, 35520, Note_on_c, 12, 69, 0
17, 35520, Note_on_c, 12, 74, 46
17, 35540, Note_on_c, 12, 74, 0
17, 35550, Note_on_c, 12, 74, 46
17, 35570, Note_on_c, 12, 74, 0
17, 35580, Note_on_c, 12, 74, 47
17, 35600, Note_on_c, 12, 74, 0
17, 35610, Note_on_c, 12, 74, 47
17, 35630, Note_on_c, 12, 74, 0
17, 35640, Note_on_c, 12, 74, 49
17, 35660, Note_on_c, 12, 74, 0
17, 35670, Note_on_c, 12, 74, 50
17, 35690, Note_on_c, 12, 74, 0
17, 35700, Note_on_c, 12, 74, 50
17, 35720, Note_on_c, 12, 74, 0
17, 35730, Note_on_c, 12, 74, 52
17, 35750, Note_on_c, 12, 74, 0
17, 35760, Note_on_c, 12, 76, 53
17, 35780, Note_on_c, 12, 76, 0
17, 35790, Note_on_c, 12, 76, 53
17, 35810, Note_on_c, 12, 76, 0
17, 35820, Note_on_c, 12, 76, 55
17, 35840, Note_on_c, 12, 76, 0
17, 35850, Note_on_c, 12, 76, 56
17, 35870, Note_on_c, 12, 76, 0
17, 35880, Note_on_c, 12, 78, 56
17, 35900, Note_on_c, 12, 78, 0
17, 35910, Note_on_c, 12, 78, 58
17, 35930, Note_on_c, 12, 78, 0
17, 35940, Note_on_c, 12, 78, 58
17, 35960, Note_on_c, 12, 78, 0
17, 35970, Note_on_c, 12, 78, 59
17, 35990, Note_on_c, 12, 78, 0
17, 36000, Note_on_c, 12, 79, 61
17, 36020, Note_on_c, 12, 79, 0
17, 36030, Note_on_c, 12, 79, 61
17, 36050, Note_on_c, 12, 79, 0
17, 36060, Note_on_c, 12, 79, 62
17, 36080, Note_on_c, 12, 79, 0
17, 36090, Note_on_c, 12, 79, 64
17, 36110, Note_on_c, 12, 79, 0
17, 36120, Note_on_c, 12, 81, 64
17, 36140, Note_on_c, 12, 81, 0
17, 36150, Note_on_c, 12, 81, 65
17, 36170, Note_on_c, 12, 81, 0
17, 36180, Note_on_c, 12, 81, 67
17, 36200, Note_on_c, 12, 81, 0
17, 36210, Note_on_c, 12, 81, 67
17, 36230, Note_on_c, 12, 81, 0
17, 36240, Note_on_c, 12, 83, 68
17, 36260, Note_on_c, 12, 83, 0
17, 36270, Note_on_c, 12, 83, 68
17, 36290, Note_on_c, 12, 83, 0
17, 36300, Note_on_c, 12, 83, 70
17, 36320, Note_on_c, 12, 83, 0
17, 36330, Note_on_c, 12, 83, 71
17, 36350, Note_on_c, 12, 83, 0
17, 36360, Note_on_c, 12, 85, 71
17, 36380, Note_on_c, 12, 85, 0
17, 36390, Note_on_c, 12, 85, 73
17, 36410, Note_on_c, 12, 85, 0
17, 36420, Note_on_c, 12, 85, 74
17, 36440, Note_on_c, 12, 85, 0
17, 36450, Note_on_c, 12, 85, 74
17, 36470, Note_on_c, 12, 85, 0
17, 36480, Note_on_c, 12, 86, 92
17, 36660, Note_on_c, 12, 86, 0
17, 36660, Note_on_c, 12, 81, 85
17, 36720, Note_on_c, 12, 81, 0
17, 36720, Note_on_c, 12, 85, 85
17, 36810, Note_on_c, 12, 85, 0
17, 36810, Note_on_c, 12, 81, 85
17, 36840, Note_on_c, 12, 81, 0
17, 36840, Note_on_c, 12, 85, 85
17, 36930, Note_on_c, 12, 85, 0
17, 36930, Note_on_c, 12, 81, 85
17, 36960, Note_on_c, 12, 81, 0
17, 36960, Note_on_c, 12, 86, 98
17, 37140, Note_on_c, 12, 86, 0
17, 37140, Note_on_c, 12, 81, 85
17, 37200, Note_on_c, 12, 81, 0
17, 37200, Note_on_c, 12, 85, 85
17, 37290, Note_on_c, 12, 85, 0
17, 37290, Note_on_c, 12, 81, 85
17, 37320, Note_on_c, 12, 81, 0
17, 37320, Note_on_c, 12, 85, 85
17, 37410, Note_on_c, 12, 85, 0
17, 37410, Note_on_c, 12, 81, 85
17, 37440, Note_on_c, 12, 81, 0
17, 37440, Note_on_c, 12, 86, 85
17, 37470, Note_on_c, 12, 86, 0
17, 37500, Note_on_c, 12, 78, 98
17, 37500, Note_on_c, 12, 86, 98
17, 37590, Note_on_c, 12, 86, 0
17, 37590, Note_on_c, 12, 78, 0
17, 37620, Note_on_c, 12, 78, 85
17, 37620, Note_on_c, 12, 86, 85
17, 37710, Note_on_c, 12, 86, 0
17, 37710, Note_on_c, 12, 78, 0
17, 37740, Note_on_c, 12, 78, 85
17, 37740, Note_on_c, 12, 86, 85
17, 37830, Note_on_c, 12, 86, 0
17, 37830, Note_on_c, 12, 78, 0
17, 37860, Note_on_c, 12, 78, 85
17, 37860, Note_on_c, 12, 86, 85
17, 37920, Note_on_c, 12, 78, 0
17, 37920, Note_on_c, 12, 76, 85
17, 37950, Note_on_c, 12, 76, 0
17, 37950, Note_on_c, 12, 86, 0
17, 37980, Note_on_c, 12, 76, 85
17, 37980, Note_on_c, 12, 86, 85
17, 38070, Note_on_c, 12, 86, 0
17, 38070, Note_on_c, 12, 76, 0
17, 38100, Note_on_c, 12, 76, 85
17, 38100, Note_on_c, 12, 86, 85
17, 38190, Note_on_c, 12, 86, 0
17, 38190, Note_on_c, 12, 76, 0
17, 38220, Note_on_c, 12, 76, 85
17, 38220, Note_on_c, 12, 86, 85
17, 38310, Note_on_c, 12, 86, 0
17, 38310, Note_on_c, 12, 76, 0
17, 38340, Note_on_c, 12, 76, 85
17, 38340, Note_on_c, 12, 86, 85
17, 38400, Note_on_c, 12, 86, 0
17, 38400, Note_on_c, 12, 76, 0
17, 38400, Note_on_c, 12, 76, 97
17, 38400, Note_on_c, 12, 85, 97
17, 38445, Note_on_c, 12, 85, 0
17, 38445, Note_on_c, 12, 76, 0
17, 38460, Note_on_c, 12, 81, 85
17, 38505, Note_on_c, 12, 81, 0
17, 38520, Note_on_c, 12, 86, 85
17, 38565, Note_on_c, 12, 86, 0
17, 38580, Note_on_c, 12, 81, 85
17, 38625, Note_on_c, 12, 81, 0
17, 38640, Note_on_c, 12, 85, 85
17, 38685, Note_on_c, 12, 85, 0
17, 38700, Note_on_c, 12, 81, 85
17, 38745, Note_on_c, 12, 81, 0
17, 38760, Note_on_c, 12, 86, 85
17, 38805, Note_on_c, 12, 86, 0
17, 38820, Note_on_c, 12, 81, 85
17, 38865, Note_on_c, 12, 81, 0
17, 38880, Note_on_c, 12, 85, 97
17, 38925, Note_on_c, 12, 85, 0
17, 38940, Note_on_c, 12, 69, 85
17, 38985, Note_on_c, 12, 69, 0
17, 39000, Note_on_c, 12, 69, 85
17, 39045, Note_on_c, 12, 69, 0
17, 39060, Note_on_c, 12, 69, 85
17, 39105, Note_on_c, 12, 69, 0
17, 39120, Note_on_c, 12, 69, 85
17, 39240, Note_on_c, 12, 69, 0
17, 39360, Note_on_c, 12, 81, 55
17, 39540, Note_on_c, 12, 81, 0
17, 39540, Note_on_c, 12, 79, 55
17, 39560, Note_on_c, 12, 79, 0
17, 39560, Note_on_c, 12, 78, 55
17, 39580, Note_on_c, 12, 78, 0
17, 39580, Note_on_c, 12, 76, 55
17, 39600, Note_on_c, 12, 76, 0
17, 39600, Note_on_c, 12, 74, 55
17, 39660, Note_on_c, 12, 74, 0
17, 39720, Note_on_c, 12, 83, 55
17, 39780, Note_on_c, 12, 83, 0
17, 39840, Note_on_c, 12, 79, 55
17, 39900, Note_on_c, 12, 79, 0
17, 39960, Note_on_c, 12, 76, 55
17, 40020, Note_on_c, 12, 76, 0
17, 40080, Note_on_c, 12, 81, 55
17, 40140, Note_on_c, 12, 81, 0
17, 40320, Note_on_c, 12, 78, 55
17, 40500, Note_on_c, 12, 78, 0
17, 40500, Note_on_c, 12, 76, 55
17, 40520, Note_on_c, 12, 76, 0
17, 40520, Note_on_c, 12, 74, 55
17, 40540, Note_on_c, 12, 74, 0
17, 40540, Note_on_c, 12, 73, 55
17, 40560, Note_on_c, 12, 73, 0
17, 40560, Note_on_c, 12, 71, 55
17, 40620, Note_on_c, 12, 71, 0
17, 40680, Note_on_c, 12, 79, 55
17, 40740, Note_on_c, 12, 79, 0
17, 40800, Note_on_c, 12, 78, 55
17, 41040, Note_on_c, 12, 78, 0
17, 41040, Note_on_c, 12, 76, 43
17, 41160, Note_on_c, 12, 76, 0
17, 41340, Note_on_c, 12, 81, 55
17, 41370, Note_on_c, 12, 81, 0
17, 41400, Note_on_c, 12, 81, 55
17, 41430, Note_on_c, 12, 81, 0
17, 41460, Note_on_c, 12, 81, 55
17, 41490, Note_on_c, 12, 81, 0
17, 41520, Note_on_c, 12, 81, 55
17, 41550, Note_on_c, 12, 81, 0
17, 41580, Note_on_c, 12, 81, 55
17, 41610, Note_on_c, 12, 81, 0
17, 41640, Note_on_c, 12, 81, 55
17, 41670, Note_on_c, 12, 81, 0
17, 41700, Note_on_c, 12, 81, 55
17, 41730, Note_on_c, 12, 81, 0
17, 41760, Note_on_c, 12, 81, 55
17, 41790, Note_on_c, 12, 81, 0
17, 41820, Note_on_c, 12, 81, 55
17, 41850, Note_on_c, 12, 81, 0
17, 41880, Note_on_c, 12, 81, 55
17, 41910, Note_on_c, 12, 81, 0
17, 41940, Note_on_c, 12, 81, 55
17, 41970, Note_on_c, 12, 81, 0
17, 42000, Note_on_c, 12, 81, 55
17, 42030, Note_on_c, 12, 81, 0
17, 42060, Note_on_c, 12, 81, 55
17, 42090, Note_on_c, 12, 81, 0
17, 42120, Note_on_c, 12, 83, 55
17, 42150, Note_on_c, 12, 83, 0
17, 42180, Note_on_c, 12, 85, 55
17, 42210, Note_on_c, 12, 85, 0
17, 42240, Note_on_c, 12, 85, 55
17, 42300, Note_on_c, 12, 85, 0
17, 42300, Note_on_c, 12, 86, 55
17, 42360, Note_on_c, 12, 86, 0
17, 42420, Note_on_c, 12, 83, 55
17, 42450, Note_on_c, 12, 83, 0
17, 42480, Note_on_c, 12, 83, 55
17, 42540, Note_on_c, 12, 83, 0
17, 42540, Note_on_c, 12, 81, 55
17, 42600, Note_on_c, 12, 81, 0
17, 42660, Note_on_c, 12, 73, 55
17, 42705, Note_on_c, 12, 73, 0
17, 42720, Note_on_c, 12, 74, 55
17, 42840, Note_on_c, 12, 74, 0
17, 42900, Note_on_c, 12, 81, 55
17, 42930, Note_on_c, 12, 81, 0
17, 42960, Note_on_c, 12, 86, 55
17, 43020, Note_on_c, 12, 86, 0
17, 43020, Note_on_c, 12, 85, 55
17, 43080, Note_on_c, 12, 85, 0
17, 43080, Note_on_c, 12, 83, 55
17, 43140, Note_on_c, 12, 83, 0
17, 43140, Note_on_c, 12, 81, 55
17, 43200, Note_on_c, 12, 81, 0
17, 43200, Note_on_c, 12, 83, 55
17, 43215, Note_on_c, 12, 83, 0
17, 43215, Note_on_c, 12, 85, 55
17, 43230, Note_on_c, 12, 85, 0
17, 43230, Note_on_c, 12, 83, 55
17, 43245, Note_on_c, 12, 83, 0
17, 43245, Note_on_c, 12, 85, 55
17, 43260, Note_on_c, 12, 85, 0
17, 43260, Note_on_c, 12, 81, 55
17, 43320, Note_on_c, 12, 81, 0
17, 43380, Note_on_c, 12, 81, 55
17, 43410, Note_on_c, 12, 81, 0
17, 43440, Note_on_c, 12, 81, 55
17, 43470, Note_on_c, 12, 81, 0
17, 43500, Note_on_c, 12, 81, 55
17, 43530, Note_on_c, 12, 81, 0
17, 43560, Note_on_c, 12, 81, 55
17, 43590, Note_on_c, 12, 81, 0
17, 43620, Note_on_c, 12, 81, 55
17, 43650, Note_on_c, 12, 81, 0
17, 43680, Note_on_c, 12, 83, 55
17, 43695, Note_on_c, 12, 83, 0
17, 43695, Note_on_c, 12, 85, 55
17, 43710, Note_on_c, 12, 85, 0
17, 43710, Note_on_c, 12, 83, 55
17, 43725, Note_on_c, 12, 83, 0
17, 43725, Note_on_c, 12, 85, 55
17, 43740, Note_on_c, 12, 85, 0
17, 43740, Note_on_c, 12, 81, 55
17, 43800, Note_on_c, 12, 81, 0
17, 43860, Note_on_c, 12, 81, 55
17, 43905, Note_on_c, 12, 81, 0
17, 43920, Note_on_c, 12, 86, 55
17, 43980, Note_on_c, 12, 86, 0
17, 43980, Note_on_c, 12, 85, 55
17, 44040, Note_on_c, 12, 85, 0
17, 44040, Note_on_c, 12, 83, 55
17, 44100, Note_on_c, 12, 83, 0
17, 44100, Note_on_c, 12, 81, 55
17, 44160, Note_on_c, 12, 81, 0
17, 44160, Note_on_c, 12, 83, 55
17, 44175, Note_on_c, 12, 83, 0
17, 44175, Note_on_c, 12, 85, 55
17, 44190, Note_on_c, 12, 85, 0
17, 44190, Note_on_c, 12, 83, 55
17, 44205, Note_on_c, 12, 83, 0
17, 44205, Note_on_c, 12, 85, 55
17, 44220, Note_on_c, 12, 85, 0
17, 44220, Note_on_c, 12, 81, 55
17, 44280, Note_on_c, 12, 81, 0
17, 44340, Note_on_c, 12, 81, 55
17, 44370, Note_on_c, 12, 81, 0
17, 44400, Note_on_c, 12, 81, 55
17, 44430, Note_on_c, 12, 81, 0
17, 44460, Note_on_c, 12, 81, 55
17, 44490, Note_on_c, 12, 81, 0
17, 44520, Note_on_c, 12, 81, 55
17, 44550, Note_on_c, 12, 81, 0
17, 44580, Note_on_c, 12, 81, 55
17, 44610, Note_on_c, 12, 81, 0
17, 44640, Note_on_c, 12, 83, 55
17, 44655, Note_on_c, 12, 83, 0
17, 44655, Note_on_c, 12, 85, 55
17, 44670, Note_on_c, 12, 85, 0
17, 44670, Note_on_c, 12, 83, 55
17, 44685, Note_on_c, 12, 83, 0
17, 44685, Note_on_c, 12, 85, 55
17, 44700, Note_on_c, 12, 85, 0
17, 44700, Note_on_c, 12, 81, 55
17, 44760, Note_on_c, 12, 81, 0
17, 44880, Note_on_c, 12, 71, 94
17, 44880, Note_on_c, 12, 83, 94
17, 45050, Note_on_c, 12, 83, 0
17, 45050, Note_on_c, 12, 71, 0
17, 45060, Note_on_c, 12, 81, 83
17, 45080, Note_on_c, 12, 81, 0
17, 45080, Note_on_c, 12, 79, 83
17, 45100, Note_on_c, 12, 79, 0
17, 45100, Note_on_c, 12, 78, 83
17, 45120, Note_on_c, 12, 78, 0
17, 45120, Note_on_c, 12, 79, 83
17, 45240, Note_on_c, 12, 79, 0
17, 45360, Note_on_c, 12, 81, 85
17, 45360, Note_on_c, 12, 69, 85
17, 45530, Note_on_c, 12, 69, 0
17, 45530, Note_on_c, 12, 81, 0
17, 45540, Note_on_c, 12, 79, 85
17, 45560, Note_on_c, 12, 79, 0
17, 45560, Note_on_c, 12, 78, 85
17, 45580, Note_on_c, 12, 78, 0
17, 45580, Note_on_c, 12, 76, 85
17, 45600, Note_on_c, 12, 76, 0
17, 45600, Note_on_c, 12, 78, 85
17, 45720, Note_on_c, 12, 78, 0
17, 45840, Note_on_c, 12, 83, 79
17, 45900, Note_on_c, 12, 83, 0
17, 45900, Note_on_c, 12, 85, 80
17, 45930, Note_on_c, 12, 85, 0
17, 45930, Note_on_c, 12, 86, 82
17, 45960, Note_on_c, 12, 86, 0
17, 45960, Note_on_c, 12, 85, 82
17, 46005, Note_on_c, 12, 85, 0
17, 46020, Note_on_c, 12, 83, 82
17, 46050, Note_on_c, 12, 83, 0
17, 46080, Note_on_c, 12, 83, 83
17, 46140, Note_on_c, 12, 83, 0
17, 46140, Note_on_c, 12, 81, 86
17, 46185, Note_on_c, 12, 81, 0
17, 46200, Note_on_c, 12, 78, 86
17, 46230, Note_on_c, 12, 78, 0
17, 46260, Note_on_c, 12, 81, 88
17, 46290, Note_on_c, 12, 81, 0
17, 46320, Note_on_c, 12, 81, 88
17, 46380, Note_on_c, 12, 81, 0
17, 46380, Note_on_c, 12, 79, 83
17, 46425, Note_on_c, 12, 79, 0
17, 46440, Note_on_c, 12, 78, 79
17, 46470, Note_on_c, 12, 78, 0
17, 46500, Note_on_c, 12, 76, 76
17, 46530, Note_on_c, 12, 76, 0
17, 46560, Note_on_c, 12, 74, 85
17, 46680, Note_on_c, 12, 74, 0
17, 46740, Note_on_c, 12, 81, 53
17, 46770, Note_on_c, 12, 81, 0
17, 46800, Note_on_c, 12, 86, 53
17, 46860, Note_on_c, 12, 86, 0
17, 46860, Note_on_c, 12, 85, 53
17, 46920, Note_on_c, 12, 85, 0
17, 46920, Note_on_c, 12, 83, 53
17, 46980, Note_on_c, 12, 83, 0
17, 46980, Note_on_c, 12, 81, 53
17, 47040, Note_on_c, 12, 81, 0
17, 47040, Note_on_c, 12, 83, 55
17, 47055, Note_on_c, 12, 83, 0
17, 47055, Note_on_c, 12, 85, 55
17, 47070, Note_on_c, 12, 85, 0
17, 47070, Note_on_c, 12, 83, 55
17, 47085, Note_on_c, 12, 83, 0
17, 47085, Note_on_c, 12, 85, 55
17, 47100, Note_on_c, 12, 85, 0
17, 47100, Note_on_c, 12, 81, 55
17, 47160, Note_on_c, 12, 81, 0
17, 47220, Note_on_c, 12, 81, 55
17, 47250, Note_on_c, 12, 81, 0
17, 47280, Note_on_c, 12, 81, 55
17, 47310, Note_on_c, 12, 81, 0
17, 47340, Note_on_c, 12, 81, 55
17, 47370, Note_on_c, 12, 81, 0
17, 47400, Note_on_c, 12, 81, 55
17, 47430, Note_on_c, 12, 81, 0
17, 47460, Note_on_c, 12, 81, 55
17, 47490, Note_on_c, 12, 81, 0
17, 47520, Note_on_c, 12, 83, 55
17, 47535, Note_on_c, 12, 83, 0
17, 47535, Note_on_c, 12, 85, 55
17, 47550, Note_on_c, 12, 85, 0
17, 47550, Note_on_c, 12, 83, 55
17, 47565, Note_on_c, 12, 83, 0
17, 47565, Note_on_c, 12, 85, 55
17, 47580, Note_on_c, 12, 85, 0
17, 47580, Note_on_c, 12, 81, 55
17, 47640, Note_on_c, 12, 81, 0
17, 47700, Note_on_c, 12, 81, 55
17, 47745, Note_on_c, 12, 81, 0
17, 47760, Note_on_c, 12, 86, 55
17, 47820, Note_on_c, 12, 86, 0
17, 47820, Note_on_c, 12, 85, 55
17, 47880, Note_on_c, 12, 85, 0
17, 47880, Note_on_c, 12, 83, 55
17, 47940, Note_on_c, 12, 83, 0
17, 47940, Note_on_c, 12, 81, 55
17, 48000, Note_on_c, 12, 81, 0
17, 48000, Note_on_c, 12, 83, 55
17, 48015, Note_on_c, 12, 83, 0
17, 48015, Note_on_c, 12, 85, 55
17, 48030, Note_on_c, 12, 85, 0
17, 48030, Note_on_c, 12, 83, 55
17, 48045, Note_on_c, 12, 83, 0
17, 48045, Note_on_c, 12, 85, 55
17, 48060, Note_on_c, 12, 85, 0
17, 48060, Note_on_c, 12, 81, 55
17, 48120, Note_on_c, 12, 81, 0
17, 48180, Note_on_c, 12, 81, 55
17, 48210, Note_on_c, 12, 81, 0
17, 48240, Note_on_c, 12, 81, 55
17, 48270, Note_on_c, 12, 81, 0
17, 48300, Note_on_c, 12, 81, 55
17, 48330, Note_on_c, 12, 81, 0
17, 48360, Note_on_c, 12, 81, 55
17, 48390, Note_on_c, 12, 81, 0
17, 48420, Note_on_c, 12, 81, 55
17, 48450, Note_on_c, 12, 81, 0
17, 48480, Note_on_c, 12, 83, 59
17, 48495, Note_on_c, 12, 83, 0
17, 48495, Note_on_c, 12, 85, 59
17, 48510, Note_on_c, 12, 85, 0
17, 48510, Note_on_c, 12, 83, 59
17, 48525, Note_on_c, 12, 83, 0
17, 48525, Note_on_c, 12, 85, 59
17, 48540, Note_on_c, 12, 85, 0
17, 48540, Note_on_c, 12, 81, 59
17, 48600, Note_on_c, 12, 81, 0
17, 48720, Note_on_c, 12, 71, 85
17, 48720, Note_on_c, 12, 83, 85
17, 48890, Note_on_c, 12, 83, 0
17, 48890, Note_on_c, 12, 71, 0
17, 48900, Note_on_c, 12, 81, 85
17, 48920, Note_on_c, 12, 81, 0
17, 48920, Note_on_c, 12, 79, 85
17, 48940, Note_on_c, 12, 79, 0
17, 48940, Note_on_c, 12, 78, 85
17, 48960, Note_on_c, 12, 78, 0
17, 48960, Note_on_c, 12, 79, 85
17, 49080, Note_on_c, 12, 79, 0
17, 49200, Note_on_c, 12, 81, 85
17, 49200, Note_on_c, 12, 69, 85
17, 49370, Note_on_c, 12, 69, 0
17, 49370, Note_on_c, 12, 81, 0
17, 49380, Note_on_c, 12, 79, 85
17, 49400, Note_on_c, 12, 79, 0
17, 49400, Note_on_c, 12, 78, 85
17, 49420, Note_on_c, 12, 78, 0
17, 49420, Note_on_c, 12, 76, 85
17, 49440, Note_on_c, 12, 76, 0
17, 49440, Note_on_c, 12, 78, 85
17, 49560, Note_on_c, 12, 78, 0
17, 49680, Note_on_c, 12, 83, 85
17, 49740, Note_on_c, 12, 83, 0
17, 49740, Note_on_c, 12, 85, 85
17, 49770, Note_on_c, 12, 85, 0
17, 49770, Note_on_c, 12, 86, 85
17, 49800, Note_on_c, 12, 86, 0
17, 49800, Note_on_c, 12, 85, 85
17, 49845, Note_on_c, 12, 85, 0
17, 49860, Note_on_c, 12, 83, 85
17, 49890, Note_on_c, 12, 83, 0
17, 49920, Note_on_c, 12, 83, 95
17, 49980, Note_on_c, 12, 83, 0
17, 49980, Note_on_c, 12, 81, 85
17, 50025, Note_on_c, 12, 81, 0
17, 50040, Note_on_c, 12, 78, 85
17, 50070, Note_on_c, 12, 78, 0
17, 50100, Note_on_c, 12, 81, 85
17, 50130, Note_on_c, 12, 81, 0
17, 50160, Note_on_c, 12, 81, 85
17, 50220, Note_on_c, 12, 81, 0
17, 50220, Note_on_c, 12, 79, 85
17, 50265, Note_on_c, 12, 79, 0
17, 50280, Note_on_c, 12, 78, 85
17, 50310, Note_on_c, 12, 78, 0
17, 50340, Note_on_c, 12, 76, 85
17, 50370, Note_on_c, 12, 76, 0
17, 50400, Note_on_c, 12, 74, 85
17, 50445, Note_on_c, 12, 74, 0
17, 50460, Note_on_c, 12, 69, 85
17, 50505, Note_on_c, 12, 69, 0
17, 50520, Note_on_c, 12, 71, 85
17, 50565, Note_on_c, 12, 71, 0
17, 50580, Note_on_c, 12, 73, 85
17, 50625, Note_on_c, 12, 73, 0
17, 50640, Note_on_c, 12, 74, 85
17, 50670, Note_on_c, 12, 74, 0
17, 50700, Note_on_c, 12, 74, 85
17, 50730, Note_on_c, 12, 74, 0
17, 50760, Note_on_c, 12, 76, 85
17, 50775, Note_on_c, 12, 76, 0
17, 50775, Note_on_c, 12, 78, 85
17, 50790, Note_on_c, 12, 78, 0
17, 50790, Note_on_c, 12, 76, 85
17, 50805, Note_on_c, 12, 76, 0
17, 50805, Note_on_c, 12, 78, 85
17, 50820, Note_on_c, 12, 78, 0
17, 50820, Note_on_c, 12, 74, 85
17, 50850, Note_on_c, 12, 74, 0
17, 50850, Note_on_c, 12, 76, 85
17, 50880, Note_on_c, 12, 76, 0
17, 50880, Note_on_c, 12, 78, 85
17, 50940, Note_on_c, 12, 78, 0
17, 50940, Note_on_c, 12, 73, 85
17, 50985, Note_on_c, 12, 73, 0
17, 51000, Note_on_c, 12, 74, 85
17, 51045, Note_on_c, 12, 74, 0
17, 51060, Note_on_c, 12, 76, 85
17, 51105, Note_on_c, 12, 76, 0
17, 51120, Note_on_c, 12, 78, 85
17, 51165, Note_on_c, 12, 78, 0
17, 51180, Note_on_c, 12, 78, 85
17, 51225, Note_on_c, 12, 78, 0
17, 51240, Note_on_c, 12, 79, 85
17, 51255, Note_on_c, 12, 79, 0
17, 51255, Note_on_c, 12, 81, 86
17, 51270, Note_on_c, 12, 81, 0
17, 51270, Note_on_c, 12, 79, 86
17, 51285, Note_on_c, 12, 79, 0
17, 51285, Note_on_c, 12, 81, 86
17, 51300, Note_on_c, 12, 81, 0
17, 51300, Note_on_c, 12, 78, 86
17, 51330, Note_on_c, 12, 78, 0
17, 51330, Note_on_c, 12, 79, 88
17, 51360, Note_on_c, 12, 79, 0
17, 51360, Note_on_c, 12, 81, 88
17, 51405, Note_on_c, 12, 81, 0
17, 51420, Note_on_c, 12, 81, 88
17, 51465, Note_on_c, 12, 81, 0
17, 51480, Note_on_c, 12, 82, 89
17, 51495, Note_on_c, 12, 82, 0
17, 51495, Note_on_c, 12, 83, 91
17, 51510, Note_on_c, 12, 83, 0
17, 51510, Note_on_c, 12, 82, 91
17, 51525, Note_on_c, 12, 82, 0
17, 51525, Note_on_c, 12, 83, 91
17, 51540, Note_on_c, 12, 83, 0
17, 51540, Note_on_c, 12, 80, 92
17, 51570, Note_on_c, 12, 80, 0
17, 51570, Note_on_c, 12, 82, 94
17, 51600, Note_on_c, 12, 82, 0
17, 51600, Note_on_c, 12, 83, 98
17, 51720, Note_on_c, 12, 83, 0
17, 51840, Note_on_c, 12, 71, 40
17, 52020, Note_on_c, 12, 71, 0
17, 52020, Note_on_c, 12, 76, 47
17, 52065, Note_on_c, 12, 76, 0
17, 52080, Note_on_c, 12, 74, 49
17, 52140, Note_on_c, 12, 74, 0
17, 52140, Note_on_c, 12, 73, 49
17, 52200, Note_on_c, 12, 73, 0
17, 52200, Note_on_c, 12, 71, 43
17, 52260, Note_on_c, 12, 71, 0
17, 52260, Note_on_c, 12, 69, 41
17, 52320, Note_on_c, 12, 69, 0
17, 52320, Note_on_c, 12, 74, 40
17, 52380, Note_on_c, 12, 74, 0
17, 52440, Note_on_c, 12, 78, 59
17, 52500, Note_on_c, 12, 78, 0
17, 52560, Note_on_c, 12, 74, 57
17, 52620, Note_on_c, 12, 74, 0
17, 52800, Note_on_c, 12, 62, 100
17, 52800, Note_on_c, 12, 74, 100
17, 52920, Note_on_c, 12, 74, 0
17, 52920, Note_on_c, 12, 62, 0
17, 52980, Note_on_c, 12, 69, 91
17, 53025, Note_on_c, 12, 69, 0
17, 53040, Note_on_c, 12, 74, 91
17, 53160, Note_on_c, 12, 74, 0
17, 53220, Note_on_c, 12, 69, 91
17, 53265, Note_on_c, 12, 69, 0
17, 53280, Note_on_c, 12, 74, 91
17, 53325, Note_on_c, 12, 74, 0
17, 53340, Note_on_c, 12, 69, 91
17, 53385, Note_on_c, 12, 69, 0
17, 53400, Note_on_c, 12, 74, 91
17, 53445, Note_on_c, 12, 74, 0
17, 53460, Note_on_c, 12, 78, 91
17, 53505, Note_on_c, 12, 78, 0
17, 53520, Note_on_c, 12, 81, 91
17, 53640, Note_on_c, 12, 81, 0
17, 53760, Note_on_c, 12, 81, 91
17, 53880, Note_on_c, 12, 81, 0
17, 53940, Note_on_c, 12, 78, 91
17, 53985, Note_on_c, 12, 78, 0
17, 54000, Note_on_c, 12, 81, 91
17, 54120, Note_on_c, 12, 81, 0
17, 54180, Note_on_c, 12, 78, 91
17, 54225, Note_on_c, 12, 78, 0
17, 54240, Note_on_c, 12, 81, 91
17, 54285, Note_on_c, 12, 81, 0
17, 54300, Note_on_c, 12, 78, 91
17, 54345, Note_on_c, 12, 78, 0
17, 54360, Note_on_c, 12, 75, 91
17, 54405, Note_on_c, 12, 75, 0
17, 54420, Note_on_c, 12, 78, 91
17, 54465, Note_on_c, 12, 78, 0
17, 54480, Note_on_c, 12, 71, 91
17, 54600, Note_on_c, 12, 71, 0
17, 54900, Note_on_c, 12, 79, 55
17, 54945, Note_on_c, 12, 79, 0
17, 54960, Note_on_c, 12, 84, 55
17, 55020, Note_on_c, 12, 84, 0
17, 55020, Note_on_c, 12, 83, 55
17, 55080, Note_on_c, 12, 83, 0
17, 55080, Note_on_c, 12, 81, 55
17, 55140, Note_on_c, 12, 81, 0
17, 55140, Note_on_c, 12, 79, 55
17, 55200, Note_on_c, 12, 79, 0
17, 55200, Note_on_c, 12, 81, 55
17, 55215, Note_on_c, 12, 81, 0
17, 55215, Note_on_c, 12, 83, 55
17, 55230, Note_on_c, 12, 83, 0
17, 55230, Note_on_c, 12, 81, 55
17, 55245, Note_on_c, 12, 81, 0
17, 55245, Note_on_c, 12, 83, 55
17, 55260, Note_on_c, 12, 83, 0
17, 55260, Note_on_c, 12, 79, 55
17, 55320, Note_on_c, 12, 79, 0
17, 55380, Note_on_c, 12, 79, 55
17, 55410, Note_on_c, 12, 79, 0
17, 55440, Note_on_c, 12, 79, 55
17, 55470, Note_on_c, 12, 79, 0
17, 55500, Note_on_c, 12, 79, 55
17, 55530, Note_on_c, 12, 79, 0
17, 55560, Note_on_c, 12, 79, 55
17, 55590, Note_on_c, 12, 79, 0
17, 55620, Note_on_c, 12, 79, 55
17, 55650, Note_on_c, 12, 79, 0
17, 55680, Note_on_c, 12, 81, 55
17, 55695, Note_on_c, 12, 81, 0
17, 55695, Note_on_c, 12, 83, 55
17, 55710, Note_on_c, 12, 83, 0
17, 55710, Note_on_c, 12, 81, 55
17, 55725, Note_on_c, 12, 81, 0
17, 55725, Note_on_c, 12, 83, 55
17, 55740, Note_on_c, 12, 83, 0
17, 55740, Note_on_c, 12, 79, 55
17, 55800, Note_on_c, 12, 79, 0
17, 55860, Note_on_c, 12, 79, 55
17, 55905, Note_on_c, 12, 79, 0
17, 55920, Note_on_c, 12, 84, 55
17, 55980, Note_on_c, 12, 84, 0
17, 55980, Note_on_c, 12, 83, 55
17, 56040, Note_on_c, 12, 83, 0
17, 56040, Note_on_c, 12, 81, 55
17, 56100, Note_on_c, 12, 81, 0
17, 56100, Note_on_c, 12, 79, 55
17, 56160, Note_on_c, 12, 79, 0
17, 56160, Note_on_c, 12, 81, 55
17, 56175, Note_on_c, 12, 81, 0
17, 56175, Note_on_c, 12, 83, 55
17, 56190, Note_on_c, 12, 83, 0
17, 56190, Note_on_c, 12, 81, 55
17, 56205, Note_on_c, 12, 81, 0
17, 56205, Note_on_c, 12, 83, 55
17, 56220, Note_on_c, 12, 83, 0
17, 56220, Note_on_c, 12, 79, 55
17, 56280, Note_on_c, 12, 79, 0
17, 56340, Note_on_c, 12, 79, 55
17, 56370, Note_on_c, 12, 79, 0
17, 56400, Note_on_c, 12, 79, 55
17, 56430, Note_on_c, 12, 79, 0
17, 56460, Note_on_c, 12, 79, 55
17, 56490, Note_on_c, 12, 79, 0
17, 56520, Note_on_c, 12, 79, 55
17, 56550, Note_on_c, 12, 79, 0
17, 56580, Note_on_c, 12, 79, 55
17, 56610, Note_on_c, 12, 79, 0
17, 56640, Note_on_c, 12, 81, 55
17, 56655, Note_on_c, 12, 81, 0
17, 56655, Note_on_c, 12, 83, 55
17, 56670, Note_on_c, 12, 83, 0
17, 56670, Note_on_c, 12, 81, 55
17, 56685, Note_on_c, 12, 81, 0
17, 56685, Note_on_c, 12, 83, 55
17, 56700, Note_on_c, 12, 83, 0
17, 56700, Note_on_c, 12, 79, 55
17, 56760, Note_on_c, 12, 79, 0
17, 56820, Note_on_c, 12, 79, 55
17, 56865, Note_on_c, 12, 79, 0
17, 56880, Note_on_c, 12, 84, 55
17, 56940, Note_on_c, 12, 84, 0
17, 56940, Note_on_c, 12, 83, 55
17, 57000, Note_on_c, 12, 83, 0
17, 57000, Note_on_c, 12, 81, 55
17, 57060, Note_on_c, 12, 81, 0
17, 57060, Note_on_c, 12, 79, 55
17, 57120, Note_on_c, 12, 79, 0
17, 57120, Note_on_c, 12, 81, 55
17, 57135, Note_on_c, 12, 81, 0
17, 57135, Note_on_c, 12, 83, 55
17, 57150, Note_on_c, 12, 83, 0
17, 57150, Note_on_c, 12, 81, 55
17, 57165, Note_on_c, 12, 81, 0
17, 57165, Note_on_c, 12, 83, 55
17, 57180, Note_on_c, 12, 83, 0
17, 57180, Note_on_c, 12, 80, 55
17, 57240, Note_on_c, 12, 80, 0
17, 57300, Note_on_c, 12, 80, 55
17, 57330, Note_on_c, 12, 80, 0
17, 57360, Note_on_c, 12, 80, 55
17, 57390, Note_on_c, 12, 80, 0
17, 57420, Note_on_c, 12, 80, 55
17, 57450, Note_on_c, 12, 80, 0
17, 57480, Note_on_c, 12, 80, 55
17, 57510, Note_on_c, 12, 80, 0
17, 57540, Note_on_c, 12, 80, 55
17, 57570, Note_on_c, 12, 80, 0
17, 57600, Note_on_c, 12, 83, 55
17, 57615, Note_on_c, 12, 83, 0
17, 57615, Note_on_c, 12, 84, 55
17, 57630, Note_on_c, 12, 84, 0
17, 57630, Note_on_c, 12, 83, 55
17, 57645, Note_on_c, 12, 83, 0
17, 57645, Note_on_c, 12, 84, 55
17, 57660, Note_on_c, 12, 84, 0
17, 57660, Note_on_c, 12, 81, 55
17, 57720, Note_on_c, 12, 81, 0
17, 57780, Note_on_c, 12, 81, 55
17, 57825, Note_on_c, 12, 81, 0
17, 57840, Note_on_c, 12, 84, 55
17, 57900, Note_on_c, 12, 84, 0
17, 57900, Note_on_c, 12, 82, 55
17, 57960, Note_on_c, 12, 82, 0
17, 57960, Note_on_c, 12, 81, 55
17, 58020, Note_on_c, 12, 81, 0
17, 58020, Note_on_c, 12, 79, 55
17, 58080, Note_on_c, 12, 79, 0
17, 58080, Note_on_c, 12, 79, 55
17, 58095, Note_on_c, 12, 79, 0
17, 58095, Note_on_c, 12, 81, 55
17, 58110, Note_on_c, 12, 81, 0
17, 58110, Note_on_c, 12, 79, 55
17, 58125, Note_on_c, 12, 79, 0
17, 58125, Note_on_c, 12, 81, 55
17, 58140, Note_on_c, 12, 81, 0
17, 58140, Note_on_c, 12, 78, 55
17, 58200, Note_on_c, 12, 78, 0
17, 58260, Note_on_c, 12, 78, 55
17, 58290, Note_on_c, 12, 78, 0
17, 58320, Note_on_c, 12, 78, 55
17, 58350, Note_on_c, 12, 78, 0
17, 58380, Note_on_c, 12, 78, 55
17, 58410, Note_on_c, 12, 78, 0
17, 58440, Note_on_c, 12, 78, 55
17, 58470, Note_on_c, 12, 78, 0
17, 58500, Note_on_c, 12, 78, 55
17, 58530, Note_on_c, 12, 78, 0
17, 58560, Note_on_c, 12, 81, 55
17, 58575, Note_on_c, 12, 81, 0
17, 58575, Note_on_c, 12, 82, 55
17, 58590, Note_on_c, 12, 82, 0
17, 58590, Note_on_c, 12, 81, 55
17, 58605, Note_on_c, 12, 81, 0
17, 58605, Note_on_c, 12, 82, 55
17, 58620, Note_on_c, 12, 82, 0
17, 58620, Note_on_c, 12, 79, 55
17, 58680, Note_on_c, 12, 79, 0
17, 58740, Note_on_c, 12, 75, 55
17, 58785, Note_on_c, 12, 75, 0
17, 58800, Note_on_c, 12, 79, 55
17, 58860, Note_on_c, 12, 79, 0
17, 58860, Note_on_c, 12, 77, 55
17, 58920, Note_on_c, 12, 77, 0
17, 58920, Note_on_c, 12, 76, 55
17, 58980, Note_on_c, 12, 76, 0
17, 58980, Note_on_c, 12, 74, 55
17, 59040, Note_on_c, 12, 74, 0
17, 59040, Note_on_c, 12, 74, 55
17, 59055, Note_on_c, 12, 74, 0
17, 59055, Note_on_c, 12, 75, 55
17, 59070, Note_on_c, 12, 75, 0
17, 59070, Note_on_c, 12, 74, 55
17, 59085, Note_on_c, 12, 74, 0
17, 59085, Note_on_c, 12, 75, 55
17, 59100, Note_on_c, 12, 75, 0
17, 59100, Note_on_c, 12, 73, 55
17, 59160, Note_on_c, 12, 73, 0
17, 59220, Note_on_c, 12, 73, 55
17, 59250, Note_on_c, 12, 73, 0
17, 59280, Note_on_c, 12, 73, 55
17, 59310, Note_on_c, 12, 73, 0
17, 59340, Note_on_c, 12, 73, 55
17, 59370, Note_on_c, 12, 73, 0
17, 59400, Note_on_c, 12, 73, 55
17, 59430, Note_on_c, 12, 73, 0
17, 59460, Note_on_c, 12, 73, 55
17, 59490, Note_on_c, 12, 73, 0
17, 59520, Note_on_c, 12, 76, 53
17, 59535, Note_on_c, 12, 76, 0
17, 59535, Note_on_c, 12, 78, 53
17, 59550, Note_on_c, 12, 78, 0
17, 59550, Note_on_c, 12, 76, 53
17, 59565, Note_on_c, 12, 76, 0
17, 59565, Note_on_c, 12, 78, 53
17, 59580, Note_on_c, 12, 78, 0
17, 59580, Note_on_c, 12, 74, 53
17, 59640, Note_on_c, 12, 74, 0
17, 59700, Note_on_c, 12, 62, 91
17, 59760, Note_on_c, 12, 62, 0
17, 59760, Note_on_c, 12, 64, 91
17, 59820, Note_on_c, 12, 64, 0
17, 59820, Note_on_c, 12, 66, 91
17, 59880, Note_on_c, 12, 66, 0
17, 59880, Note_on_c, 12, 67, 91
17, 59940, Note_on_c, 12, 67, 0
17, 59940, Note_on_c, 12, 69, 91
17, 60000, Note_on_c, 12, 69, 0
17, 60000, Note_on_c, 12, 72, 91
17, 60060, Note_on_c, 12, 72, 0
17, 60060, Note_on_c, 12, 70, 91
17, 60120, Note_on_c, 12, 70, 0
17, 60180, Note_on_c, 12, 66, 91
17, 60240, Note_on_c, 12, 66, 0
17, 60240, Note_on_c, 12, 67, 91
17, 60300, Note_on_c, 12, 67, 0
17, 60300, Note_on_c, 12, 69, 91
17, 60360, Note_on_c, 12, 69, 0
17, 60360, Note_on_c, 12, 70, 91
17, 60420, Note_on_c, 12, 70, 0
17, 60420, Note_on_c, 12, 73, 91
17, 60480, Note_on_c, 12, 73, 0
17, 60480, Note_on_c, 12, 76, 91
17, 60540, Note_on_c, 12, 76, 0
17, 60540, Note_on_c, 12, 74, 91
17, 60600, Note_on_c, 12, 74, 0
17, 60660, Note_on_c, 12, 74, 53
17, 60720, Note_on_c, 12, 74, 0
17, 60720, Note_on_c, 12, 76, 53
17, 60780, Note_on_c, 12, 76, 0
17, 60780, Note_on_c, 12, 78, 53
17, 60840, Note_on_c, 12, 78, 0
17, 60840, Note_on_c, 12, 79, 53
17, 60900, Note_on_c, 12, 79, 0
17, 60900, Note_on_c, 12, 81, 52
17, 60960, Note_on_c, 12, 81, 0
17, 60960, Note_on_c, 12, 82, 50
17, 61080, Note_on_c, 12, 82, 0
17, 61080, Note_on_c, 12, 83, 46
17, 61200, Note_on_c, 12, 83, 0
17, 61200, Note_on_c, 12, 84, 43
17, 61320, Note_on_c, 12, 84, 0
17, 61320, Note_on_c, 12, 85, 40
17, 61440, Note_on_c, 12, 85, 0
17, 61440, Note_on_c, 12, 86, 59
17, 62145, Note_on_c, 12, 86, 0
17, 62160, Note_on_c, 12, 78, 52
17, 62175, Note_on_c, 12, 78, 0
17, 62175, Note_on_c, 12, 79, 53
17, 62190, Note_on_c, 12, 79, 0
17, 62190, Note_on_c, 12, 78, 55
17, 62205, Note_on_c, 12, 78, 0
17, 62205, Note_on_c, 12, 79, 58
17, 62220, Note_on_c, 12, 79, 0
17, 62220, Note_on_c, 12, 78, 59
17, 62235, Note_on_c, 12, 78, 0
17, 62235, Note_on_c, 12, 79, 61
17, 62250, Note_on_c, 12, 79, 0
17, 62250, Note_on_c, 12, 78, 62
17, 62265, Note_on_c, 12, 78, 0
17, 62265, Note_on_c, 12, 79, 65
17, 62280, Note_on_c, 12, 79, 0
17, 62280, Note_on_c, 12, 78, 67
17, 62295, Note_on_c, 12, 78, 0
17, 62295, Note_on_c, 12, 79, 68
17, 62310, Note_on_c, 12, 79, 0
17, 62310, Note_on_c, 12, 78, 70
17, 62325, Note_on_c, 12, 78, 0
17, 62325, Note_on_c, 12, 79, 71
17, 62340, Note_on_c, 12, 79, 0
17, 62340, Note_on_c, 12, 76, 74
17, 62370, Note_on_c, 12, 76, 0
17, 62370, Note_on_c, 12, 78, 77
17, 62400, Note_on_c, 12, 78, 0
17, 62400, Note_on_c, 12, 79, 93
17, 62520, Note_on_c, 12, 79, 0
17, 62580, Note_on_c, 12, 74, 92
17, 62610, Note_on_c, 12, 74, 0
17, 62640, Note_on_c, 12, 79, 92
17, 62760, Note_on_c, 12, 79, 0
17, 62820, Note_on_c, 12, 74, 91
17, 62850, Note_on_c, 12, 74, 0
17, 62880, Note_on_c, 12, 79, 90
17, 62910, Note_on_c, 12, 79, 0
17, 62940, Note_on_c, 12, 74, 90
17, 62970, Note_on_c, 12, 74, 0
17, 63000, Note_on_c, 12, 79, 90
17, 63030, Note_on_c, 12, 79, 0
17, 63060, Note_on_c, 12, 83, 90
17, 63090, Note_on_c, 12, 83, 0
17, 63120, Note_on_c, 12, 86, 89
17, 63240, Note_on_c, 12, 86, 0
17, 63360, Note_on_c, 12, 84, 104
17, 63480, Note_on_c, 12, 84, 0
17, 63540, Note_on_c, 12, 81, 87
17, 63570, Note_on_c, 12, 81, 0
17, 63600, Note_on_c, 12, 84, 86
17, 63720, Note_on_c, 12, 84, 0
17, 63780, Note_on_c, 12, 81, 85
17, 63810, Note_on_c, 12, 81, 0
17, 63840, Note_on_c, 12, 84, 92
17, 63870, Note_on_c, 12, 84, 0
17, 63900, Note_on_c, 12, 81, 85
17, 63930, Note_on_c, 12, 81, 0
17, 63960, Note_on_c, 12, 78, 92
17, 63990, Note_on_c, 12, 78, 0
17, 64020, Note_on_c, 12, 81, 85
17, 64050, Note_on_c, 12, 81, 0
17, 64080, Note_on_c, 12, 74, 94
17, 64200, Note_on_c, 12, 74, 0
17, 64320, Note_on_c, 12, 62, 92
17, 64320, Note_on_c, 12, 79, 92
17, 64320, Note_on_c, 12, 71, 92
17, 64380, Note_on_c, 12, 71, 0
17, 64380, Note_on_c, 12, 79, 0
17, 64380, Note_on_c, 12, 62, 0
17, 64440, Note_on_c, 12, 79, 85
17, 64620, Note_on_c, 12, 79, 0
17, 64620, Note_on_c, 12, 83, 74
17, 64680, Note_on_c, 12, 83, 0
17, 64680, Note_on_c, 12, 81, 74
17, 64710, Note_on_c, 12, 81, 0
17, 64740, Note_on_c, 12, 79, 80
17, 64770, Note_on_c, 12, 79, 0
17, 64800, Note_on_c, 12, 79, 86
17, 64815, Note_on_c, 12, 79, 0
17, 64815, Note_on_c, 12, 81, 86
17, 64830, Note_on_c, 12, 81, 0
17, 64830, Note_on_c, 12, 79, 86
17, 64845, Note_on_c, 12, 79, 0
17, 64845, Note_on_c, 12, 81, 86
17, 64860, Note_on_c, 12, 81, 0
17, 64860, Note_on_c, 12, 78, 83
17, 64910, Note_on_c, 12, 78, 0
17, 64920, Note_on_c, 12, 78, 77
17, 65100, Note_on_c, 12, 78, 0
17, 65100, Note_on_c, 12, 81, 85
17, 65160, Note_on_c, 12, 81, 0
17, 65160, Note_on_c, 12, 84, 85
17, 65190, Note_on_c, 12, 84, 0
17, 65220, Note_on_c, 12, 78, 85
17, 65250, Note_on_c, 12, 78, 0
17, 65280, Note_on_c, 12, 81, 85
17, 65340, Note_on_c, 12, 81, 0
17, 65340, Note_on_c, 12, 79, 85
17, 65370, Note_on_c, 12, 79, 0
17, 65400, Note_on_c, 12, 79, 85
17, 65580, Note_on_c, 12, 79, 0
17, 65580, Note_on_c, 12, 83, 85
17, 65640, Note_on_c, 12, 83, 0
17, 65640, Note_on_c, 12, 81, 85
17, 65670, Note_on_c, 12, 81, 0
17, 65700, Note_on_c, 12, 79, 85
17, 65730, Note_on_c, 12, 79, 0
17, 65760, Note_on_c, 12, 79, 85
17, 65775, Note_on_c, 12, 79, 0
17, 65775, Note_on_c, 12, 81, 85
17, 65790, Note_on_c, 12, 81, 0
17, 65790, Note_on_c, 12, 79, 85
17, 65805, Note_on_c, 12, 79, 0
17, 65805, Note_on_c, 12, 81, 85
17, 65820, Note_on_c, 12, 81, 0
17, 65820, Note_on_c, 12, 78, 85
17, 65870, Note_on_c, 12, 78, 0
17, 65880, Note_on_c, 12, 78, 85
17, 66060, Note_on_c, 12, 78, 0
17, 66060, Note_on_c, 12, 81, 85
17, 66120, Note_on_c, 12, 81, 0
17, 66120, Note_on_c, 12, 84, 85
17, 66150, Note_on_c, 12, 84, 0
17, 66180, Note_on_c, 12, 78, 85
17, 66210, Note_on_c, 12, 78, 0
17, 66240, Note_on_c, 12, 79, 85
17, 66270, Note_on_c, 12, 79, 0
17, 66300, Note_on_c, 12, 79, 85
17, 66330, Note_on_c, 12, 79, 0
17, 66360, Note_on_c, 12, 79, 85
17, 66390, Note_on_c, 12, 79, 0
17, 66390, Note_on_c, 12, 78, 85
17, 66420, Note_on_c, 12, 78, 0
17, 66420, Note_on_c, 12, 76, 85
17, 66450, Note_on_c, 12, 76, 0
17, 66450, Note_on_c, 12, 78, 85
17, 66480, Note_on_c, 12, 78, 0
17, 66480, Note_on_c, 12, 79, 85
17, 66510, Note_on_c, 12, 79, 0
17, 66540, Note_on_c, 12, 79, 85
17, 66570, Note_on_c, 12, 79, 0
17, 66600, Note_on_c, 12, 83, 85
17, 66630, Note_on_c, 12, 83, 0
17, 66630, Note_on_c, 12, 81, 85
17, 66660, Note_on_c, 12, 81, 0
17, 66660, Note_on_c, 12, 79, 85
17, 66690, Note_on_c, 12, 79, 0
17, 66690, Note_on_c, 12, 81, 83
17, 66720, Note_on_c, 12, 81, 0
17, 66720, Note_on_c, 12, 83, 83
17, 66750, Note_on_c, 12, 83, 0
17, 66780, Note_on_c, 12, 83, 83
17, 66810, Note_on_c, 12, 83, 0
17, 66840, Note_on_c, 12, 86, 83
17, 66870, Note_on_c, 12, 86, 0
17, 66870, Note_on_c, 12, 84, 80
17, 66900, Note_on_c, 12, 84, 0
17, 66900, Note_on_c, 12, 83, 79
17, 66930, Note_on_c, 12, 83, 0
17, 66930, Note_on_c, 12, 84, 76
17, 66960, Note_on_c, 12, 84, 0
17, 66960, Note_on_c, 12, 86, 71
17, 67080, Note_on_c, 12, 86, 0
17, 67200, Note_on_c, 12, 74, 56
17, 67440, Note_on_c, 12, 74, 0
17, 67440, Note_on_c, 12, 76, 55
17, 67680, Note_on_c, 12, 76, 0
17, 67680, Note_on_c, 12, 74, 57
17, 67710, Note_on_c, 12, 74, 0
17, 67710, Note_on_c, 12, 72, 59
17, 67790, Note_on_c, 12, 72, 0
17, 67800, Note_on_c, 12, 72, 58
17, 67920, Note_on_c, 12, 72, 0
17, 67920, Note_on_c, 12, 72, 57
17, 67950, Note_on_c, 12, 72, 0
17, 67950, Note_on_c, 12, 71, 55
17, 68030, Note_on_c, 12, 71, 0
17, 68040, Note_on_c, 12, 71, 53
17, 68160, Note_on_c, 12, 71, 0
17, 68160, Note_on_c, 12, 71, 57
17, 68190, Note_on_c, 12, 71, 0
17, 68190, Note_on_c, 12, 69, 56
17, 68270, Note_on_c, 12, 69, 0
17, 68280, Note_on_c, 12, 69, 55
17, 68400, Note_on_c, 12, 69, 0
17, 68400, Note_on_c, 12, 67, 54
17, 68460, Note_on_c, 12, 67, 0
17, 68460, Note_on_c, 12, 66, 55
17, 68490, Note_on_c, 12, 66, 0
17, 68520, Note_on_c, 12, 64, 55
17, 68550, Note_on_c, 12, 64, 0
17, 68580, Note_on_c, 12, 66, 55
17, 68610, Note_on_c, 12, 66, 0
17, 68640, Note_on_c, 12, 67, 56
17, 68700, Note_on_c, 12, 67, 0
17, 68760, Note_on_c, 12, 69, 57
17, 68820, Note_on_c, 12, 69, 0
17, 68880, Note_on_c, 12, 71, 57
17, 68940, Note_on_c, 12, 71, 0
17, 69120, Note_on_c, 12, 74, 56
17, 69360, Note_on_c, 12, 74, 0
17, 69360, Note_on_c, 12, 76, 59
17, 69600, Note_on_c, 12, 76, 0
17, 69600, Note_on_c, 12, 74, 46
17, 69660, Note_on_c, 12, 74, 0
17, 69660, Note_on_c, 12, 72, 51
17, 69690, Note_on_c, 12, 72, 0
17, 69720, Note_on_c, 12, 72, 51
17, 69750, Note_on_c, 12, 72, 0
17, 69780, Note_on_c, 12, 72, 51
17, 69810, Note_on_c, 12, 72, 0
17, 69840, Note_on_c, 12, 72, 51
17, 69900, Note_on_c, 12, 72, 0
17, 69900, Note_on_c, 12, 71, 50
17, 69930, Note_on_c, 12, 71, 0
17, 69960, Note_on_c, 12, 71, 49
17, 69990, Note_on_c, 12, 71, 0
17, 70020, Note_on_c, 12, 71, 49
17, 70050, Note_on_c, 12, 71, 0
17, 70080, Note_on_c, 12, 71, 49
17, 70140, Note_on_c, 12, 71, 0
17, 70140, Note_on_c, 12, 69, 50
17, 70170, Note_on_c, 12, 69, 0
17, 70200, Note_on_c, 12, 69, 52
17, 70245, Note_on_c, 12, 69, 0
17, 70260, Note_on_c, 12, 69, 52
17, 70305, Note_on_c, 12, 69, 0
17, 70320, Note_on_c, 12, 67, 52
17, 70380, Note_on_c, 12, 67, 0
17, 70380, Note_on_c, 12, 66, 54
17, 70440, Note_on_c, 12, 66, 0
17, 70440, Note_on_c, 12, 64, 55
17, 70500, Note_on_c, 12, 64, 0
17, 70500, Note_on_c, 12, 66, 55
17, 70560, Note_on_c, 12, 66, 0
17, 70560, Note_on_c, 12, 55, 85
17, 70560, Note_on_c, 12, 67, 85
17, 70860, Note_on_c, 12, 67, 0
17, 70860, Note_on_c, 12, 55, 0
17, 70860, Note_on_c, 12, 67, 61
17, 70875, Note_on_c, 12, 67, 0
17, 70875, Note_on_c, 12, 69, 61
17, 70890, Note_on_c, 12, 69, 0
17, 70890, Note_on_c, 12, 66, 61
17, 70905, Note_on_c, 12, 66, 0
17, 70905, Note_on_c, 12, 67, 61
17, 70920, Note_on_c, 12, 67, 0
17, 70920, Note_on_c, 12, 69, 61
17, 70980, Note_on_c, 12, 69, 0
17, 70980, Note_on_c, 12, 66, 61
17, 71040, Note_on_c, 12, 66, 0
17, 71040, Note_on_c, 12, 71, 91
17, 71340, Note_on_c, 12, 71, 0
17, 71340, Note_on_c, 12, 71, 61
17, 71355, Note_on_c, 12, 71, 0
17, 71355, Note_on_c, 12, 72, 61
17, 71370, Note_on_c, 12, 72, 0
17, 71370, Note_on_c, 12, 69, 61
17, 71385, Note_on_c, 12, 69, 0
17, 71385, Note_on_c, 12, 71, 61
17, 71400, Note_on_c, 12, 71, 0
17, 71400, Note_on_c, 12, 72, 61
17, 71460, Note_on_c, 12, 72, 0
17, 71460, Note_on_c, 12, 69, 61
17, 71520, Note_on_c, 12, 69, 0
17, 71520, Note_on_c, 12, 74, 51
17, 71540, Note_on_c, 12, 74, 0
17, 71550, Note_on_c, 12, 74, 56
17, 71570, Note_on_c, 12, 74, 0
17, 71580, Note_on_c, 12, 74, 59
17, 71600, Note_on_c, 12, 74, 0
17, 71610, Note_on_c, 12, 74, 56
17, 71630, Note_on_c, 12, 74, 0
17, 71640, Note_on_c, 12, 74, 56
17, 71660, Note_on_c, 12, 74, 0
17, 71670, Note_on_c, 12, 74, 56
17, 71690, Note_on_c, 12, 74, 0
17, 71700, Note_on_c, 12, 74, 56
17, 71720, Note_on_c, 12, 74, 0
17, 71730, Note_on_c, 12, 74, 56
17, 71750, Note_on_c, 12, 74, 0
17, 71760, Note_on_c, 12, 76, 56
17, 71780, Note_on_c, 12, 76, 0
17, 71790, Note_on_c, 12, 76, 56
17, 71810, Note_on_c, 12, 76, 0
17, 71820, Note_on_c, 12, 76, 56
17, 71840, Note_on_c, 12, 76, 0
17, 71850, Note_on_c, 12, 76, 56
17, 71870, Note_on_c, 12, 76, 0
17, 71880, Note_on_c, 12, 78, 56
17, 71900, Note_on_c, 12, 78, 0
17, 71910, Note_on_c, 12, 78, 56
17, 71930, Note_on_c, 12, 78, 0
17, 71940, Note_on_c, 12, 78, 57
17, 71960, Note_on_c, 12, 78, 0
17, 71970, Note_on_c, 12, 78, 59
17, 71990, Note_on_c, 12, 78, 0
17, 72000, Note_on_c, 12, 79, 62
17, 72020, Note_on_c, 12, 79, 0
17, 72030, Note_on_c, 12, 79, 65
17, 72050, Note_on_c, 12, 79, 0
17, 72060, Note_on_c, 12, 79, 66
17, 72080, Note_on_c, 12, 79, 0
17, 72090, Note_on_c, 12, 79, 66
17, 72110, Note_on_c, 12, 79, 0
17, 72120, Note_on_c, 12, 81, 66
17, 72140, Note_on_c, 12, 81, 0
17, 72150, Note_on_c, 12, 81, 66
17, 72170, Note_on_c, 12, 81, 0
17, 72180, Note_on_c, 12, 81, 66
17, 72200, Note_on_c, 12, 81, 0
17, 72210, Note_on_c, 12, 81, 68
17, 72230, Note_on_c, 12, 81, 0
17, 72240, Note_on_c, 12, 83, 68
17, 72260, Note_on_c, 12, 83, 0
17, 72270, Note_on_c, 12, 83, 70
17, 72290, Note_on_c, 12, 83, 0
17, 72300, Note_on_c, 12, 83, 70
17, 72320, Note_on_c, 12, 83, 0
17, 72330, Note_on_c, 12, 83, 71
17, 72350, Note_on_c, 12, 83, 0
17, 72360, Note_on_c, 12, 85, 71
17, 72380, Note_on_c, 12, 85, 0
17, 72390, Note_on_c, 12, 85, 73
17, 72410, Note_on_c, 12, 85, 0
17, 72420, Note_on_c, 12, 85, 74
17, 72440, Note_on_c, 12, 85, 0
17, 72450, Note_on_c, 12, 85, 74
17, 72470, Note_on_c, 12, 85, 0
17, 72480, Note_on_c, 12, 86, 85
17, 72660, Note_on_c, 12, 86, 0
17, 72660, Note_on_c, 12, 81, 85
17, 72720, Note_on_c, 12, 81, 0
17, 72720, Note_on_c, 12, 85, 85
17, 72810, Note_on_c, 12, 85, 0
17, 72810, Note_on_c, 12, 81, 85
17, 72840, Note_on_c, 12, 81, 0
17, 72840, Note_on_c, 12, 85, 85
17, 72930, Note_on_c, 12, 85, 0
17, 72930, Note_on_c, 12, 81, 85
17, 72960, Note_on_c, 12, 81, 0
17, 72960, Note_on_c, 12, 86, 85
17, 73140, Note_on_c, 12, 86, 0
17, 73140, Note_on_c, 12, 81, 85
17, 73200, Note_on_c, 12, 81, 0
17, 73200, Note_on_c, 12, 85, 85
17, 73290, Note_on_c, 12, 85, 0
17, 73290, Note_on_c, 12, 81, 85
17, 73320, Note_on_c, 12, 81, 0
17, 73320, Note_on_c, 12, 85, 85
17, 73410, Note_on_c, 12, 85, 0
17, 73410, Note_on_c, 12, 81, 85
17, 73440, Note_on_c, 12, 81, 0
17, 73440, Note_on_c, 12, 86, 100
17, 73470, Note_on_c, 12, 86, 0
17, 73500, Note_on_c, 12, 81, 100
17, 73530, Note_on_c, 12, 81, 0
17, 73560, Note_on_c, 12, 85, 100
17, 73590, Note_on_c, 12, 85, 0
17, 73620, Note_on_c, 12, 81, 100
17, 73650, Note_on_c, 12, 81, 0
17, 73680, Note_on_c, 12, 86, 100
17, 73710, Note_on_c, 12, 86, 0
17, 73740, Note_on_c, 12, 81, 100
17, 73770, Note_on_c, 12, 81, 0
17, 73800, Note_on_c, 12, 85, 100
17, 73830, Note_on_c, 12, 85, 0
17, 73860, Note_on_c, 12, 81, 100
17, 73890, Note_on_c, 12, 81, 0
17, 73920, Note_on_c, 12, 86, 85
17, 73965, Note_on_c, 12, 86, 0
17, 73980, Note_on_c, 12, 62, 85
17, 74025, Note_on_c, 12, 62, 0
17, 74040, Note_on_c, 12, 62, 85
17, 74085, Note_on_c, 12, 62, 0
17, 74100, Note_on_c, 12, 62, 85
17, 74145, Note_on_c, 12, 62, 0
17, 74160, Note_on_c, 12, 62, 85
17, 74280, Note_on_c, 12, 62, 0
17, 74400, Note_on_c, 12, 74, 46
17, 74580, Note_on_c, 12, 74, 0
17, 74580, Note_on_c, 12, 72, 47
17, 74600, Note_on_c, 12, 72, 0
17, 74600, Note_on_c, 12, 71, 47
17, 74620, Note_on_c, 12, 71, 0
17, 74620, Note_on_c, 12, 69, 47
17, 74640, Note_on_c, 12, 69, 0
17, 74640, Note_on_c, 12, 67, 47
17, 74700, Note_on_c, 12, 67, 0
17, 74760, Note_on_c, 12, 76, 47
17, 74820, Note_on_c, 12, 76, 0
17, 74880, Note_on_c, 12, 72, 46
17, 74940, Note_on_c, 12, 72, 0
17, 75000, Note_on_c, 12, 69, 43
17, 75060, Note_on_c, 12, 69, 0
17, 75120, Note_on_c, 12, 74, 59
17, 75180, Note_on_c, 12, 74, 0
17, 75360, Note_on_c, 12, 83, 55
17, 75540, Note_on_c, 12, 83, 0
17, 75540, Note_on_c, 12, 81, 55
17, 75560, Note_on_c, 12, 81, 0
17, 75560, Note_on_c, 12, 79, 55
17, 75580, Note_on_c, 12, 79, 0
17, 75580, Note_on_c, 12, 78, 55
17, 75600, Note_on_c, 12, 78, 0
17, 75600, Note_on_c, 12, 76, 55
17, 75660, Note_on_c, 12, 76, 0
17, 75720, Note_on_c, 12, 84, 55
17, 75780, Note_on_c, 12, 84, 0
17, 75840, Note_on_c, 12, 83, 55
17, 76080, Note_on_c, 12, 83, 0
17, 76080, Note_on_c, 12, 81, 47
17, 76200, Note_on_c, 12, 81, 0
17, 76380, Note_on_c, 12, 86, 55
17, 76410, Note_on_c, 12, 86, 0
17, 76440, Note_on_c, 12, 86, 55
17, 76470, Note_on_c, 12, 86, 0
17, 76500, Note_on_c, 12, 86, 55
17, 76530, Note_on_c, 12, 86, 0
17, 76560, Note_on_c, 12, 86, 55
17, 76590, Note_on_c, 12, 86, 0
17, 76620, Note_on_c, 12, 86, 55
17, 76650, Note_on_c, 12, 86, 0
17, 76680, Note_on_c, 12, 86, 55
17, 76710, Note_on_c, 12, 86, 0
17, 76740, Note_on_c, 12, 86, 55
17, 76770, Note_on_c, 12, 86, 0
17, 76800, Note_on_c, 12, 86, 55
17, 76830, Note_on_c, 12, 86, 0
17, 76860, Note_on_c, 12, 86, 55
17, 76890, Note_on_c, 12, 86, 0
17, 76920, Note_on_c, 12, 86, 55
17, 76950, Note_on_c, 12, 86, 0
17, 76980, Note_on_c, 12, 86, 55
17, 77010, Note_on_c, 12, 86, 0
17, 77040, Note_on_c, 12, 86, 55
17, 77100, Note_on_c, 12, 86, 0
17, 77100, Note_on_c, 12, 84, 55
17, 77160, Note_on_c, 12, 84, 0
17, 77160, Note_on_c, 12, 79, 55
17, 77220, Note_on_c, 12, 79, 0
17, 77220, Note_on_c, 12, 78, 55
17, 77280, Note_on_c, 12, 78, 0
17, 77280, Note_on_c, 12, 78, 55
17, 77340, Note_on_c, 12, 78, 0
17, 77340, Note_on_c, 12, 79, 65
17, 77400, Note_on_c, 12, 79, 0
17, 77460, Note_on_c, 12, 76, 55
17, 77490, Note_on_c, 12, 76, 0
17, 77520, Note_on_c, 12, 76, 55
17, 77580, Note_on_c, 12, 76, 0
17, 77580, Note_on_c, 12, 74, 55
17, 77640, Note_on_c, 12, 74, 0
17, 77700, Note_on_c, 12, 66, 55
17, 77745, Note_on_c, 12, 66, 0
17, 77760, Note_on_c, 12, 67, 67
17, 77880, Note_on_c, 12, 67, 0
17, 77940, Note_on_c, 12, 74, 55
17, 77970, Note_on_c, 12, 74, 0
17, 78000, Note_on_c, 12, 79, 55
17, 78060, Note_on_c, 12, 79, 0
17, 78060, Note_on_c, 12, 78, 55
17, 78120, Note_on_c, 12, 78, 0
17, 78120, Note_on_c, 12, 76, 55
17, 78180, Note_on_c, 12, 76, 0
17, 78180, Note_on_c, 12, 74, 55
17, 78240, Note_on_c, 12, 74, 0
17, 78240, Note_on_c, 12, 76, 55
17, 78255, Note_on_c, 12, 76, 0
17, 78255, Note_on_c, 12, 78, 55
17, 78270, Note_on_c, 12, 78, 0
17, 78270, Note_on_c, 12, 76, 55
17, 78285, Note_on_c, 12, 76, 0
17, 78285, Note_on_c, 12, 78, 55
17, 78300, Note_on_c, 12, 78, 0
17, 78300, Note_on_c, 12, 74, 55
17, 78360, Note_on_c, 12, 74, 0
17, 78420, Note_on_c, 12, 74, 55
17, 78450, Note_on_c, 12, 74, 0
17, 78480, Note_on_c, 12, 74, 55
17, 78510, Note_on_c, 12, 74, 0
17, 78540, Note_on_c, 12, 74, 55
17, 78570, Note_on_c, 12, 74, 0
17, 78600, Note_on_c, 12, 74, 55
17, 78630, Note_on_c, 12, 74, 0
17, 78660, Note_on_c, 12, 74, 55
17, 78690, Note_on_c, 12, 74, 0
17, 78720, Note_on_c, 12, 76, 55
17, 78735, Note_on_c, 12, 76, 0
17, 78735, Note_on_c, 12, 78, 55
17, 78750, Note_on_c, 12, 78, 0
17, 78750, Note_on_c, 12, 76, 55
17, 78765, Note_on_c, 12, 76, 0
17, 78765, Note_on_c, 12, 78, 55
17, 78780, Note_on_c, 12, 78, 0
17, 78780, Note_on_c, 12, 74, 55
17, 78840, Note_on_c, 12, 74, 0
17, 78900, Note_on_c, 12, 74, 55
17, 78945, Note_on_c, 12, 74, 0
17, 78960, Note_on_c, 12, 79, 55
17, 79020, Note_on_c, 12, 79, 0
17, 79020, Note_on_c, 12, 78, 55
17, 79080, Note_on_c, 12, 78, 0
17, 79080, Note_on_c, 12, 76, 55
17, 79140, Note_on_c, 12, 76, 0
17, 79140, Note_on_c, 12, 74, 55
17, 79200, Note_on_c, 12, 74, 0
17, 79200, Note_on_c, 12, 76, 55
17, 79215, Note_on_c, 12, 76, 0
17, 79215, Note_on_c, 12, 78, 55
17, 79230, Note_on_c, 12, 78, 0
17, 79230, Note_on_c, 12, 76, 55
17, 79245, Note_on_c, 12, 76, 0
17, 79245, Note_on_c, 12, 78, 55
17, 79260, Note_on_c, 12, 78, 0
17, 79260, Note_on_c, 12, 74, 55
17, 79320, Note_on_c, 12, 74, 0
17, 79380, Note_on_c, 12, 74, 55
17, 79410, Note_on_c, 12, 74, 0
17, 79440, Note_on_c, 12, 74, 55
17, 79470, Note_on_c, 12, 74, 0
17, 79500, Note_on_c, 12, 74, 55
17, 79530, Note_on_c, 12, 74, 0
17, 79560, Note_on_c, 12, 74, 55
17, 79590, Note_on_c, 12, 74, 0
17, 79620, Note_on_c, 12, 74, 55
17, 79650, Note_on_c, 12, 74, 0
17, 79680, Note_on_c, 12, 76, 55
17, 79695, Note_on_c, 12, 76, 0
17, 79695, Note_on_c, 12, 78, 55
17, 79710, Note_on_c, 12, 78, 0
17, 79710, Note_on_c, 12, 76, 55
17, 79725, Note_on_c, 12, 76, 0
17, 79725, Note_on_c, 12, 78, 55
17, 79740, Note_on_c, 12, 78, 0
17, 79740, Note_on_c, 12, 74, 55
17, 79800, Note_on_c, 12, 74, 0
17, 79920, Note_on_c, 12, 64, 83
17, 79920, Note_on_c, 12, 76, 83
17, 80090, Note_on_c, 12, 76, 0
17, 80090, Note_on_c, 12, 64, 0
17, 80100, Note_on_c, 12, 74, 82
17, 80120, Note_on_c, 12, 74, 0
17, 80120, Note_on_c, 12, 72, 82
17, 80140, Note_on_c, 12, 72, 0
17, 80140, Note_on_c, 12, 71, 82
17, 80160, Note_on_c, 12, 71, 0
17, 80160, Note_on_c, 12, 72, 83
17, 80280, Note_on_c, 12, 72, 0
17, 80400, Note_on_c, 12, 74, 85
17, 80400, Note_on_c, 12, 62, 85
17, 80570, Note_on_c, 12, 62, 0
17, 80570, Note_on_c, 12, 74, 0
17, 80580, Note_on_c, 12, 72, 77
17, 80600, Note_on_c, 12, 72, 0
17, 80600, Note_on_c, 12, 71, 79
17, 80620, Note_on_c, 12, 71, 0
17, 80620, Note_on_c, 12, 69, 83
17, 80640, Note_on_c, 12, 69, 0
17, 80640, Note_on_c, 12, 71, 88
17, 80760, Note_on_c, 12, 71, 0
17, 80880, Note_on_c, 12, 76, 85
17, 80940, Note_on_c, 12, 76, 0
17, 80940, Note_on_c, 12, 78, 85
17, 80970, Note_on_c, 12, 78, 0
17, 80970, Note_on_c, 12, 79, 85
17, 81000, Note_on_c, 12, 79, 0
17, 81000, Note_on_c, 12, 78, 85
17, 81045, Note_on_c, 12, 78, 0
17, 81060, Note_on_c, 12, 76, 85
17, 81090, Note_on_c, 12, 76, 0
17, 81120, Note_on_c, 12, 76, 85
17, 81180, Note_on_c, 12, 76, 0
17, 81180, Note_on_c, 12, 74, 85
17, 81225, Note_on_c, 12, 74, 0
17, 81240, Note_on_c, 12, 71, 85
17, 81270, Note_on_c, 12, 71, 0
17, 81300, Note_on_c, 12, 74, 85
17, 81330, Note_on_c, 12, 74, 0
17, 81360, Note_on_c, 12, 74, 85
17, 81420, Note_on_c, 12, 74, 0
17, 81420, Note_on_c, 12, 72, 85
17, 81465, Note_on_c, 12, 72, 0
17, 81480, Note_on_c, 12, 71, 85
17, 81510, Note_on_c, 12, 71, 0
17, 81540, Note_on_c, 12, 69, 85
17, 81570, Note_on_c, 12, 69, 0
17, 81600, Note_on_c, 12, 67, 85
17, 81720, Note_on_c, 12, 67, 0
17, 81780, Note_on_c, 12, 74, 50
17, 81810, Note_on_c, 12, 74, 0
17, 81840, Note_on_c, 12, 79, 50
17, 81900, Note_on_c, 12, 79, 0
17, 81900, Note_on_c, 12, 78, 50
17, 81960, Note_on_c, 12, 78, 0
17, 81960, Note_on_c, 12, 76, 53
17, 82020, Note_on_c, 12, 76, 0
17, 82020, Note_on_c, 12, 74, 56
17, 82080, Note_on_c, 12, 74, 0
17, 82080, Note_on_c, 12, 76, 58
17, 82095, Note_on_c, 12, 76, 0
17, 82095, Note_on_c, 12, 78, 58
17, 82110, Note_on_c, 12, 78, 0
17, 82110, Note_on_c, 12, 76, 59
17, 82125, Note_on_c, 12, 76, 0
17, 82125, Note_on_c, 12, 78, 59
17, 82140, Note_on_c, 12, 78, 0
17, 82140, Note_on_c, 12, 74, 61
17, 82200, Note_on_c, 12, 74, 0
17, 82260, Note_on_c, 12, 74, 56
17, 82290, Note_on_c, 12, 74, 0
17, 82320, Note_on_c, 12, 74, 55
17, 82350, Note_on_c, 12, 74, 0
17, 82380, Note_on_c, 12, 74, 55
17, 82410, Note_on_c, 12, 74, 0
17, 82440, Note_on_c, 12, 74, 53
17, 82470, Note_on_c, 12, 74, 0
17, 82500, Note_on_c, 12, 74, 52
17, 82530, Note_on_c, 12, 74, 0
17, 82560, Note_on_c, 12, 76, 55
17, 82575, Note_on_c, 12, 76, 0
17, 82575, Note_on_c, 12, 78, 55
17, 82590, Note_on_c, 12, 78, 0
17, 82590, Note_on_c, 12, 76, 55
17, 82605, Note_on_c, 12, 76, 0
17, 82605, Note_on_c, 12, 78, 55
17, 82620, Note_on_c, 12, 78, 0
17, 82620, Note_on_c, 12, 74, 55
17, 82680, Note_on_c, 12, 74, 0
17, 82740, Note_on_c, 12, 74, 55
17, 82785, Note_on_c, 12, 74, 0
17, 82800, Note_on_c, 12, 79, 55
17, 82860, Note_on_c, 12, 79, 0
17, 82860, Note_on_c, 12, 78, 55
17, 82920, Note_on_c, 12, 78, 0
17, 82920, Note_on_c, 12, 76, 55
17, 82980, Note_on_c, 12, 76, 0
17, 82980, Note_on_c, 12, 74, 56
17, 83040, Note_on_c, 12, 74, 0
17, 83040, Note_on_c, 12, 76, 65
17, 83055, Note_on_c, 12, 76, 0
17, 83055, Note_on_c, 12, 78, 65
17, 83070, Note_on_c, 12, 78, 0
17, 83070, Note_on_c, 12, 76, 65
17, 83085, Note_on_c, 12, 76, 0
17, 83085, Note_on_c, 12, 78, 65
17, 83100, Note_on_c, 12, 78, 0
17, 83100, Note_on_c, 12, 74, 64
17, 83160, Note_on_c, 12, 74, 0
17, 83220, Note_on_c, 12, 74, 55
17, 83250, Note_on_c, 12, 74, 0
17, 83280, Note_on_c, 12, 74, 55
17, 83310, Note_on_c, 12, 74, 0
17, 83340, Note_on_c, 12, 74, 55
17, 83370, Note_on_c, 12, 74, 0
17, 83400, Note_on_c, 12, 74, 55
17, 83430, Note_on_c, 12, 74, 0
17, 83460, Note_on_c, 12, 74, 55
17, 83490, Note_on_c, 12, 74, 0
17, 83520, Note_on_c, 12, 76, 59
17, 83535, Note_on_c, 12, 76, 0
17, 83535, Note_on_c, 12, 78, 59
17, 83550, Note_on_c, 12, 78, 0
17, 83550, Note_on_c, 12, 76, 59
17, 83565, Note_on_c, 12, 76, 0
17, 83565, Note_on_c, 12, 78, 59
17, 83580, Note_on_c, 12, 78, 0
17, 83580, Note_on_c, 12, 74, 59
17, 83640, Note_on_c, 12, 74, 0
17, 83760, Note_on_c, 12, 88, 85
17, 83930, Note_on_c, 12, 88, 0
17, 83940, Note_on_c, 12, 86, 85
17, 83960, Note_on_c, 12, 86, 0
17, 83960, Note_on_c, 12, 84, 85
17, 83980, Note_on_c, 12, 84, 0
17, 83980, Note_on_c, 12, 83, 85
17, 84000, Note_on_c, 12, 83, 0
17, 84000, Note_on_c, 12, 84, 85
17, 84120, Note_on_c, 12, 84, 0
17, 84240, Note_on_c, 12, 86, 85
17, 84240, Note_on_c, 12, 74, 85
17, 84410, Note_on_c, 12, 74, 0
17, 84410, Note_on_c, 12, 86, 0
17, 84420, Note_on_c, 12, 84, 82
17, 84440, Note_on_c, 12, 84, 0
17, 84440, Note_on_c, 12, 83, 83
17, 84460, Note_on_c, 12, 83, 0
17, 84460, Note_on_c, 12, 81, 83
17, 84480, Note_on_c, 12, 81, 0
17, 84480, Note_on_c, 12, 83, 86
17, 84600, Note_on_c, 12, 83, 0
17, 84720, Note_on_c, 12, 76, 85
17, 84780, Note_on_c, 12, 76, 0
17, 84780, Note_on_c, 12, 78, 85
17, 84810, Note_on_c, 12, 78, 0
17, 84810, Note_on_c, 12, 79, 85
17, 84840, Note_on_c, 12, 79, 0
17, 84840, Note_on_c, 12, 78, 85
17, 84885, Note_on_c, 12, 78, 0
17, 84900, Note_on_c, 12, 76, 85
17, 84930, Note_on_c, 12, 76, 0
17, 84960, Note_on_c, 12, 74, 85
17, 84990, Note_on_c, 12, 74, 0
17, 85020, Note_on_c, 12, 79, 85
17, 85050, Note_on_c, 12, 79, 0
17, 85080, Note_on_c, 12, 83, 85
17, 85110, Note_on_c, 12, 83, 0
17, 85140, Note_on_c, 12, 86, 85
17, 85170, Note_on_c, 12, 86, 0
17, 85200, Note_on_c, 12, 86, 85
17, 85260, Note_on_c, 12, 86, 0
17, 85260, Note_on_c, 12, 84, 85
17, 85305, Note_on_c, 12, 84, 0
17, 85320, Note_on_c, 12, 83, 85
17, 85350, Note_on_c, 12, 83, 0
17, 85380, Note_on_c, 12, 81, 85
17, 85410, Note_on_c, 12, 81, 0
17, 85440, Note_on_c, 12, 79, 94
17, 85485, Note_on_c, 12, 79, 0
17, 85500, Note_on_c, 12, 62, 85
17, 85545, Note_on_c, 12, 62, 0
17, 85560, Note_on_c, 12, 64, 85
17, 85605, Note_on_c, 12, 64, 0
17, 85620, Note_on_c, 12, 66, 85
17, 85665, Note_on_c, 12, 66, 0
17, 85680, Note_on_c, 12, 67, 85
17, 85725, Note_on_c, 12, 67, 0
17, 85740, Note_on_c, 12, 67, 85
17, 85785, Note_on_c, 12, 67, 0
17, 85800, Note_on_c, 12, 69, 85
17, 85815, Note_on_c, 12, 69, 0
17, 85815, Note_on_c, 12, 71, 85
17, 85830, Note_on_c, 12, 71, 0
17, 85830, Note_on_c, 12, 69, 85
17, 85845, Note_on_c, 12, 69, 0
17, 85845, Note_on_c, 12, 71, 85
17, 85860, Note_on_c, 12, 71, 0
17, 85860, Note_on_c, 12, 67, 85
17, 85890, Note_on_c, 12, 67, 0
17, 85890, Note_on_c, 12, 69, 85
17, 85920, Note_on_c, 12, 69, 0
17, 85920, Note_on_c, 12, 71, 85
17, 85965, Note_on_c, 12, 71, 0
17, 85980, Note_on_c, 12, 66, 85
17, 86025, Note_on_c, 12, 66, 0
17, 86040, Note_on_c, 12, 67, 85
17, 86085, Note_on_c, 12, 67, 0
17, 86100, Note_on_c, 12, 69, 85
17, 86145, Note_on_c, 12, 69, 0
17, 86160, Note_on_c, 12, 71, 85
17, 86205, Note_on_c, 12, 71, 0
17, 86220, Note_on_c, 12, 71, 85
17, 86265, Note_on_c, 12, 71, 0
17, 86280, Note_on_c, 12, 72, 86
17, 86295, Note_on_c, 12, 72, 0
17, 86295, Note_on_c, 12, 74, 86
17, 86310, Note_on_c, 12, 74, 0
17, 86310, Note_on_c, 12, 72, 86
17, 86325, Note_on_c, 12, 72, 0
17, 86325, Note_on_c, 12, 74, 86
17, 86340, Note_on_c, 12, 74, 0
17, 86340, Note_on_c, 12, 71, 86
17, 86370, Note_on_c, 12, 71, 0
17, 86370, Note_on_c, 12, 72, 89
17, 86400, Note_on_c, 12, 72, 0
17, 86400, Note_on_c, 12, 74, 89
17, 86445, Note_on_c, 12, 74, 0
17, 86460, Note_on_c, 12, 74, 91
17, 86505, Note_on_c, 12, 74, 0
17, 86520, Note_on_c, 12, 75, 91
17, 86535, Note_on_c, 12, 75, 0
17, 86535, Note_on_c, 12, 76, 91
17, 86550, Note_on_c, 12, 76, 0
17, 86550, Note_on_c, 12, 75, 91
17, 86565, Note_on_c, 12, 75, 0
17, 86565, Note_on_c, 12, 76, 92
17, 86580, Note_on_c, 12, 76, 0
17, 86580, Note_on_c, 12, 73, 94
17, 86610, Note_on_c, 12, 73, 0
17, 86610, Note_on_c, 12, 75, 97
17, 86640, Note_on_c, 12, 75, 0
17, 86640, Note_on_c, 12, 76, 98
17, 86760, Note_on_c, 12, 76, 0
17, 86880, Note_on_c, 12, 64, 61
17, 87060, Note_on_c, 12, 64, 0
17, 87060, Note_on_c, 12, 69, 61
17, 87105, Note_on_c, 12, 69, 0
17, 87120, Note_on_c, 12, 67, 61
17, 87180, Note_on_c, 12, 67, 0
17, 87180, Note_on_c, 12, 66, 62
17, 87240, Note_on_c, 12, 66, 0
17, 87240, Note_on_c, 12, 64, 62
17, 87300, Note_on_c, 12, 64, 0
17, 87300, Note_on_c, 12, 62, 62
17, 87345, Note_on_c, 12, 62, 0
17, 87360, Note_on_c, 12, 74, 62
17, 87420, Note_on_c, 12, 74, 0
17, 87420, Note_on_c, 12, 73, 62
17, 87480, Note_on_c, 12, 73, 0
17, 87480, Note_on_c, 12, 72, 62
17, 87540, Note_on_c, 12, 72, 0
17, 87540, Note_on_c, 12, 71, 62
17, 87600, Note_on_c, 12, 71, 0
17, 87600, Note_on_c, 12, 74, 61
17, 87660, Note_on_c, 12, 74, 0
17, 87660, Note_on_c, 12, 73, 61
17, 87720, Note_on_c, 12, 73, 0
17, 87720, Note_on_c, 12, 72, 61
17, 87780, Note_on_c, 12, 72, 0
17, 87780, Note_on_c, 12, 71, 59
17, 87825, Note_on_c, 12, 71, 0
17, 87840, Note_on_c, 12, 64, 61
17, 88020, Note_on_c, 12, 64, 0
17, 88020, Note_on_c, 12, 69, 67
17, 88065, Note_on_c, 12, 69, 0
17, 88080, Note_on_c, 12, 67, 70
17, 88140, Note_on_c, 12, 67, 0
17, 88140, Note_on_c, 12, 66, 70
17, 88200, Note_on_c, 12, 66, 0
17, 88200, Note_on_c, 12, 64, 70
17, 88260, Note_on_c, 12, 64, 0
17, 88260, Note_on_c, 12, 62, 70
17, 88305, Note_on_c, 12, 62, 0
17, 88320, Note_on_c, 12, 74, 70
17, 88380, Note_on_c, 12, 74, 0
17, 88380, Note_on_c, 12, 76, 70
17, 88440, Note_on_c, 12, 76, 0
17, 88440, Note_on_c, 12, 78, 70
17, 88500, Note_on_c, 12, 78, 0
17, 88500, Note_on_c, 12, 79, 70
17, 88560, Note_on_c, 12, 79, 0
17, 88560, Note_on_c, 12, 74, 70
17, 88620, Note_on_c, 12, 74, 0
17, 88620, Note_on_c, 12, 76, 70
17, 88680, Note_on_c, 12, 76, 0
17, 88680, Note_on_c, 12, 78, 70
17, 88740, Note_on_c, 12, 78, 0
17, 88740, Note_on_c, 12, 79, 76
17, 88785, Note_on_c, 12, 79, 0
17, 88800, Note_on_c, 12, 81, 75
17, 88920, Note_on_c, 12, 81, 0
17, 89040, Note_on_c, 12, 74, 91
17, 89040, Note_on_c, 12, 86, 91
17, 89160, Note_on_c, 12, 86, 0
17, 89160, Note_on_c, 12, 74, 0
17, 89280, Note_on_c, 12, 62, 96
17, 89280, Note_on_c, 12, 71, 96
17, 89280, Note_on_c, 12, 79, 96
17, 89400, Note_on_c, 12, 79, 0
17, 89400, Note_on_c, 12, 71, 0
17, 89400, Note_on_c, 12, 62, 0
17, 89460, Note_on_c, 12, 74, 95
17, 89505, Note_on_c, 12, 74, 0
17, 89520, Note_on_c, 12, 71, 94
17, 89565, Note_on_c, 12, 71, 0
17, 89580, Note_on_c, 12, 67, 90
17, 89625, Note_on_c, 12, 67, 0
17, 89640, Note_on_c, 12, 71, 90
17, 89685, Note_on_c, 12, 71, 0
17, 89700, Note_on_c, 12, 74, 89
17, 89745, Note_on_c, 12, 74, 0
17, 89760, Note_on_c, 12, 79, 88
17, 89805, Note_on_c, 12, 79, 0
17, 89820, Note_on_c, 12, 74, 88
17, 89865, Note_on_c, 12, 74, 0
17, 89880, Note_on_c, 12, 79, 88
17, 89925, Note_on_c, 12, 79, 0
17, 89940, Note_on_c, 12, 83, 90
17, 89985, Note_on_c, 12, 83, 0
17, 90000, Note_on_c, 12, 86, 92
17, 90100, Note_on_c, 12, 86, 0
17, 90120, Note_on_c, 12, 62, 95
17, 90120, Note_on_c, 12, 69, 95
17, 90120, Note_on_c, 12, 78, 95
17, 90220, Note_on_c, 12, 78, 0
17, 90220, Note_on_c, 12, 69, 0
17, 90220, Note_on_c, 12, 62, 0
17, 90240, Note_on_c, 12, 62, 100
17, 90240, Note_on_c, 12, 71, 100
17, 90240, Note_on_c, 12, 79, 100
17, 90360, Note_on_c, 12, 79, 0
17, 90360, Note_on_c, 12, 71, 0
17, 90360, Note_on_c, 12, 62, 0
17, 90420, Note_on_c, 12, 74, 98
17, 90465, Note_on_c, 12, 74, 0
17, 90480, Note_on_c, 12, 71, 98
17, 90525, Note_on_c, 12, 71, 0
17, 90540, Note_on_c, 12, 67, 95
17, 90585, Note_on_c, 12, 67, 0
17, 90600, Note_on_c, 12, 71, 94
17, 90645, Note_on_c, 12, 71, 0
17, 90660, Note_on_c, 12, 74, 92
17, 90705, Note_on_c, 12, 74, 0
17, 90720, Note_on_c, 12, 79, 91
17, 90765, Note_on_c, 12, 79, 0
17, 90780, Note_on_c, 12, 74, 91
17, 90825, Note_on_c, 12, 74, 0
17, 90840, Note_on_c, 12, 79, 92
17, 90885, Note_on_c, 12, 79, 0
17, 90900, Note_on_c, 12, 83, 92
17, 90945, Note_on_c, 12, 83, 0
17, 90960, Note_on_c, 12, 86, 96
17, 91060, Note_on_c, 12, 86, 0
17, 91080, Note_on_c, 12, 62, 99
17, 91080, Note_on_c, 12, 69, 99
17, 91080, Note_on_c, 12, 78, 99
17, 91180, Note_on_c, 12, 78, 0
17, 91180, Note_on_c, 12, 69, 0
17, 91180, Note_on_c, 12, 62, 0
17, 91200, Note_on_c, 12, 62, 109
17, 91200, Note_on_c, 12, 71, 109
17, 91200, Note_on_c, 12, 79, 109
17, 91320, Note_on_c, 12, 79, 0
17, 91320, Note_on_c, 12, 71, 0
17, 91320, Note_on_c, 12, 62, 0
17, 91440, Note_on_c, 12, 62, 106
17, 91440, Note_on_c, 12, 71, 106
17, 91440, Note_on_c, 12, 79, 106
17, 91560, Note_on_c, 12, 79, 0
17, 91560, Note_on_c, 12, 71, 0
17, 91560, Note_on_c, 12, 62, 0
17, 91680, Note_on_c, 12, 62, 106
17, 91680, Note_on_c, 12, 71, 106
17, 91680, Note_on_c, 12, 79, 106
17, 91780, Note_on_c, 12, 79, 0
17, 91780, Note_on_c, 12, 71, 0
17, 91780, Note_on_c, 12, 62, 0
17, 91800, Note_on_c, 12, 55, 110
17, 91800, Note_on_c, 12, 67, 110
17, 91860, Note_on_c, 12, 67, 0
17, 91860, Note_on_c, 12, 55, 0
17, 91890, Note_on_c, 12, 55, 109
17, 91890, Note_on_c, 12, 67, 109
17, 91905, Note_on_c, 12, 67, 0
17, 91905, Note_on_c, 12, 55, 0
17, 91920, Note_on_c, 12, 55, 108
17, 91920, Note_on_c, 12, 67, 108
17, 92040, Note_on_c, 12, 67, 0
17, 92040, Note_on_c, 12, 55, 0
17, 92040, End_track
18, 0, Start_track
18, 0, MIDI_port, 0
18, 0, Title_t, "May be"
18, 0, Program_c, 12, 48
18, 0, Control_c, 12, 7, 111
18, 0, Control_c, 12, 10, 68
18, 0, Note_on_c, 12, 67, 85
18, 120, Note_on_c, 12, 67, 0
18, 180, Note_on_c, 12, 62, 85
18, 210, Note_on_c, 12, 62, 0
18, 240, Note_on_c, 12, 67, 85
18, 360, Note_on_c, 12, 67, 0
18, 420, Note_on_c, 12, 62, 85
18, 450, Note_on_c, 12, 62, 0
18, 480, Note_on_c, 12, 67, 85
18, 510, Note_on_c, 12, 67, 0
18, 540, Note_on_c, 12, 62, 85
18, 570, Note_on_c, 12, 62, 0
18, 600, Note_on_c, 12, 67, 85
18, 630, Note_on_c, 12, 67, 0
18, 660, Note_on_c, 12, 71, 85
18, 690, Note_on_c, 12, 71, 0
18, 720, Note_on_c, 12, 74, 85
18, 840, Note_on_c, 12, 74, 0
18, 960, Note_on_c, 12, 72, 85
18, 1080, Note_on_c, 12, 72, 0
18, 1140, Note_on_c, 12, 69, 85
18, 1170, Note_on_c, 12, 69, 0
18, 1200, Note_on_c, 12, 72, 85
18, 1320, Note_on_c, 12, 72, 0
18, 1380, Note_on_c, 12, 69, 85
18, 1410, Note_on_c, 12, 69, 0
18, 1440, Note_on_c, 12, 72, 85
18, 1470, Note_on_c, 12, 72, 0
18, 1500, Note_on_c, 12, 69, 85
18, 1530, Note_on_c, 12, 69, 0
18, 1560, Note_on_c, 12, 66, 85
18, 1590, Note_on_c, 12, 66, 0
18, 1620, Note_on_c, 12, 69, 85
18, 1650, Note_on_c, 12, 69, 0
18, 1680, Note_on_c, 12, 62, 85
18, 1800, Note_on_c, 12, 62, 0
18, 1920, Note_on_c, 12, 67, 85
18, 1965, Note_on_c, 12, 67, 0
18, 1980, Note_on_c, 12, 67, 85
18, 2025, Note_on_c, 12, 67, 0
18, 2040, Note_on_c, 12, 67, 85
18, 2085, Note_on_c, 12, 67, 0
18, 2100, Note_on_c, 12, 67, 85
18, 2145, Note_on_c, 12, 67, 0
18, 2160, Note_on_c, 12, 67, 85
18, 2205, Note_on_c, 12, 67, 0
18, 2220, Note_on_c, 12, 67, 85
18, 2265, Note_on_c, 12, 67, 0
18, 2280, Note_on_c, 12, 67, 85
18, 2325, Note_on_c, 12, 67, 0
18, 2340, Note_on_c, 12, 67, 85
18, 2385, Note_on_c, 12, 67, 0
18, 2400, Note_on_c, 12, 69, 85
18, 2445, Note_on_c, 12, 69, 0
18, 2460, Note_on_c, 12, 69, 85
18, 2505, Note_on_c, 12, 69, 0
18, 2520, Note_on_c, 12, 69, 85
18, 2565, Note_on_c, 12, 69, 0
18, 2580, Note_on_c, 12, 69, 85
18, 2625, Note_on_c, 12, 69, 0
18, 2640, Note_on_c, 12, 69, 85
18, 2700, Note_on_c, 12, 69, 0
18, 2700, Note_on_c, 12, 72, 85
18, 2745, Note_on_c, 12, 72, 0
18, 2760, Note_on_c, 12, 66, 85
18, 2820, Note_on_c, 12, 66, 0
18, 2820, Note_on_c, 12, 69, 85
18, 2865, Note_on_c, 12, 69, 0
18, 2880, Note_on_c, 12, 67, 85
18, 2925, Note_on_c, 12, 67, 0
18, 2940, Note_on_c, 12, 67, 85
18, 2985, Note_on_c, 12, 67, 0
18, 3000, Note_on_c, 12, 67, 85
18, 3045, Note_on_c, 12, 67, 0
18, 3060, Note_on_c, 12, 67, 85
18, 3105, Note_on_c, 12, 67, 0
18, 3120, Note_on_c, 12, 67, 85
18, 3165, Note_on_c, 12, 67, 0
18, 3180, Note_on_c, 12, 67, 85
18, 3225, Note_on_c, 12, 67, 0
18, 3240, Note_on_c, 12, 67, 85
18, 3285, Note_on_c, 12, 67, 0
18, 3300, Note_on_c, 12, 67, 85
18, 3345, Note_on_c, 12, 67, 0
18, 3360, Note_on_c, 12, 69, 85
18, 3405, Note_on_c, 12, 69, 0
18, 3420, Note_on_c, 12, 69, 85
18, 3465, Note_on_c, 12, 69, 0
18, 3480, Note_on_c, 12, 69, 85
18, 3525, Note_on_c, 12, 69, 0
18, 3540, Note_on_c, 12, 69, 85
18, 3585, Note_on_c, 12, 69, 0
18, 3600, Note_on_c, 12, 69, 85
18, 3660, Note_on_c, 12, 69, 0
18, 3660, Note_on_c, 12, 72, 85
18, 3705, Note_on_c, 12, 72, 0
18, 3720, Note_on_c, 12, 66, 85
18, 3780, Note_on_c, 12, 66, 0
18, 3780, Note_on_c, 12, 69, 85
18, 3825, Note_on_c, 12, 69, 0
18, 3840, Note_on_c, 12, 62, 85
18, 3860, Note_on_c, 12, 62, 0
18, 3870, Note_on_c, 12, 62, 85
18, 3890, Note_on_c, 12, 62, 0
18, 3900, Note_on_c, 12, 62, 85
18, 3920, Note_on_c, 12, 62, 0
18, 3930, Note_on_c, 12, 62, 85
18, 3950, Note_on_c, 12, 62, 0
18, 3960, Note_on_c, 12, 62, 85
18, 3980, Note_on_c, 12, 62, 0
18, 3990, Note_on_c, 12, 62, 85
18, 4010, Note_on_c, 12, 62, 0
18, 4020, Note_on_c, 12, 62, 85
18, 4040, Note_on_c, 12, 62, 0
18, 4050, Note_on_c, 12, 62, 85
18, 4070, Note_on_c, 12, 62, 0
18, 4080, Note_on_c, 12, 62, 85
18, 4100, Note_on_c, 12, 62, 0
18, 4110, Note_on_c, 12, 62, 85
18, 4130, Note_on_c, 12, 62, 0
18, 4140, Note_on_c, 12, 62, 85
18, 4160, Note_on_c, 12, 62, 0
18, 4170, Note_on_c, 12, 62, 85
18, 4190, Note_on_c, 12, 62, 0
18, 4200, Note_on_c, 12, 62, 85
18, 4220, Note_on_c, 12, 62, 0
18, 4230, Note_on_c, 12, 62, 85
18, 4250, Note_on_c, 12, 62, 0
18, 4260, Note_on_c, 12, 62, 85
18, 4280, Note_on_c, 12, 62, 0
18, 4290, Note_on_c, 12, 62, 85
18, 4310, Note_on_c, 12, 62, 0
18, 4320, Note_on_c, 12, 62, 85
18, 4340, Note_on_c, 12, 62, 0
18, 4350, Note_on_c, 12, 62, 85
18, 4370, Note_on_c, 12, 62, 0
18, 4380, Note_on_c, 12, 62, 85
18, 4400, Note_on_c, 12, 62, 0
18, 4410, Note_on_c, 12, 62, 85
18, 4430, Note_on_c, 12, 62, 0
18, 4440, Note_on_c, 12, 62, 85
18, 4460, Note_on_c, 12, 62, 0
18, 4470, Note_on_c, 12, 62, 85
18, 4490, Note_on_c, 12, 62, 0
18, 4500, Note_on_c, 12, 62, 85
18, 4520, Note_on_c, 12, 62, 0
18, 4530, Note_on_c, 12, 62, 85
18, 4550, Note_on_c, 12, 62, 0
18, 4560, Note_on_c, 12, 62, 85
18, 4680, Note_on_c, 12, 62, 0
18, 5280, Note_on_c, 12, 54, 47
18, 5520, Note_on_c, 12, 54, 0
18, 5520, Note_on_c, 12, 55, 47
18, 5760, Note_on_c, 12, 55, 0
18, 5760, Note_on_c, 12, 60, 47
18, 5850, Note_on_c, 12, 60, 0
18, 5880, Note_on_c, 12, 60, 47
18, 5970, Note_on_c, 12, 60, 0
18, 6000, Note_on_c, 12, 57, 47
18, 6090, Note_on_c, 12, 57, 0
18, 6120, Note_on_c, 12, 50, 47
18, 6210, Note_on_c, 12, 50, 0
18, 6240, Note_on_c, 12, 50, 47
18, 6300, Note_on_c, 12, 50, 0
18, 6360, Note_on_c, 12, 62, 47
18, 6420, Note_on_c, 12, 62, 0
18, 6480, Note_on_c, 12, 62, 47
18, 6600, Note_on_c, 12, 62, 0
18, 7200, Note_on_c, 12, 66, 47
18, 7440, Note_on_c, 12, 66, 0
18, 7440, Note_on_c, 12, 67, 47
18, 7680, Note_on_c, 12, 67, 0
18, 7680, Note_on_c, 12, 60, 47
18, 7770, Note_on_c, 12, 60, 0
18, 7800, Note_on_c, 12, 60, 47
18, 7845, Note_on_c, 12, 60, 0
18, 7860, Note_on_c, 12, 60, 47
18, 7905, Note_on_c, 12, 60, 0
18, 7920, Note_on_c, 12, 57, 47
18, 8010, Note_on_c, 12, 57, 0
18, 8040, Note_on_c, 12, 57, 47
18, 8085, Note_on_c, 12, 57, 0
18, 8100, Note_on_c, 12, 57, 47
18, 8145, Note_on_c, 12, 57, 0
18, 8160, Note_on_c, 12, 55, 92
18, 8205, Note_on_c, 12, 55, 0
18, 8220, Note_on_c, 12, 55, 71
18, 8265, Note_on_c, 12, 55, 0
18, 8280, Note_on_c, 12, 55, 71
18, 8325, Note_on_c, 12, 55, 0
18, 8340, Note_on_c, 12, 55, 71
18, 8385, Note_on_c, 12, 55, 0
18, 8400, Note_on_c, 12, 55, 55
18, 8445, Note_on_c, 12, 55, 0
18, 8460, Note_on_c, 12, 55, 50
18, 8505, Note_on_c, 12, 55, 0
18, 8520, Note_on_c, 12, 55, 50
18, 8565, Note_on_c, 12, 55, 0
18, 8580, Note_on_c, 12, 55, 50
18, 8625, Note_on_c, 12, 55, 0
18, 8640, Note_on_c, 12, 55, 91
18, 8685, Note_on_c, 12, 55, 0
18, 8700, Note_on_c, 12, 55, 65
18, 8745, Note_on_c, 12, 55, 0
18, 8760, Note_on_c, 12, 55, 65
18, 8805, Note_on_c, 12, 55, 0
18, 8820, Note_on_c, 12, 55, 65
18, 8865, Note_on_c, 12, 55, 0
18, 8880, Note_on_c, 12, 55, 46
18, 8925, Note_on_c, 12, 55, 0
18, 8940, Note_on_c, 12, 55, 46
18, 8985, Note_on_c, 12, 55, 0
18, 9000, Note_on_c, 12, 55, 46
18, 9045, Note_on_c, 12, 55, 0
18, 9060, Note_on_c, 12, 55, 46
18, 9105, Note_on_c, 12, 55, 0
18, 9120, Note_on_c, 12, 55, 59
18, 9165, Note_on_c, 12, 55, 0
18, 9180, Note_on_c, 12, 67, 41
18, 9225, Note_on_c, 12, 67, 0
18, 9240, Note_on_c, 12, 67, 46
18, 9285, Note_on_c, 12, 67, 0
18, 9300, Note_on_c, 12, 67, 49
18, 9345, Note_on_c, 12, 67, 0
18, 9360, Note_on_c, 12, 67, 53
18, 9405, Note_on_c, 12, 67, 0
18, 9420, Note_on_c, 12, 67, 56
18, 9465, Note_on_c, 12, 67, 0
18, 9480, Note_on_c, 12, 69, 61
18, 9525, Note_on_c, 12, 69, 0
18, 9540, Note_on_c, 12, 69, 64
18, 9585, Note_on_c, 12, 69, 0
18, 9600, Note_on_c, 12, 67, 68
18, 9645, Note_on_c, 12, 67, 0
18, 9660, Note_on_c, 12, 67, 71
18, 9705, Note_on_c, 12, 67, 0
18, 9720, Note_on_c, 12, 66, 76
18, 9765, Note_on_c, 12, 66, 0
18, 9780, Note_on_c, 12, 66, 79
18, 9825, Note_on_c, 12, 66, 0
18, 9840, Note_on_c, 12, 67, 82
18, 9885, Note_on_c, 12, 67, 0
18, 9900, Note_on_c, 12, 67, 82
18, 9945, Note_on_c, 12, 67, 0
18, 9960, Note_on_c, 12, 64, 82
18, 10005, Note_on_c, 12, 64, 0
18, 10020, Note_on_c, 12, 64, 82
18, 10065, Note_on_c, 12, 64, 0
18, 10080, Note_on_c, 12, 69, 85
18, 10080, Note_on_c, 12, 62, 85
18, 10100, Note_on_c, 12, 62, 0
18, 10100, Note_on_c, 12, 69, 0
18, 10110, Note_on_c, 12, 69, 85
18, 10110, Note_on_c, 12, 62, 85
18, 10130, Note_on_c, 12, 62, 0
18, 10130, Note_on_c, 12, 69, 0
18, 10140, Note_on_c, 12, 69, 85
18, 10140, Note_on_c, 12, 62, 85
18, 10160, Note_on_c, 12, 62, 0
18, 10160, Note_on_c, 12, 69, 0
18, 10170, Note_on_c, 12, 69, 85
18, 10170, Note_on_c, 12, 62, 85
18, 10190, Note_on_c, 12, 62, 0
18, 10190, Note_on_c, 12, 69, 0
18, 10200, Note_on_c, 12, 69, 85
18, 10200, Note_on_c, 12, 62, 85
18, 10220, Note_on_c, 12, 62, 0
18, 10220, Note_on_c, 12, 69, 0
18, 10230, Note_on_c, 12, 69, 85
18, 10230, Note_on_c, 12, 62, 85
18, 10250, Note_on_c, 12, 62, 0
18, 10250, Note_on_c, 12, 69, 0
18, 10260, Note_on_c, 12, 69, 85
18, 10260, Note_on_c, 12, 62, 85
18, 10280, Note_on_c, 12, 62, 0
18, 10280, Note_on_c, 12, 69, 0
18, 10290, Note_on_c, 12, 69, 85
18, 10290, Note_on_c, 12, 62, 85
18, 10310, Note_on_c, 12, 62, 0
18, 10310, Note_on_c, 12, 69, 0
18, 10320, Note_on_c, 12, 69, 85
18, 10320, Note_on_c, 12, 64, 85
18, 10340, Note_on_c, 12, 64, 0
18, 10340, Note_on_c, 12, 69, 0
18, 10350, Note_on_c, 12, 69, 85
18, 10350, Note_on_c, 12, 64, 85
18, 10370, Note_on_c, 12, 64, 0
18, 10370, Note_on_c, 12, 69, 0
18, 10380, Note_on_c, 12, 69, 85
18, 10380, Note_on_c, 12, 64, 85
18, 10400, Note_on_c, 12, 64, 0
18, 10400, Note_on_c, 12, 69, 0
18, 10410, Note_on_c, 12, 69, 85
18, 10410, Note_on_c, 12, 64, 85
18, 10430, Note_on_c, 12, 64, 0
18, 10430, Note_on_c, 12, 69, 0
18, 10440, Note_on_c, 12, 69, 85
18, 10440, Note_on_c, 12, 64, 85
18, 10460, Note_on_c, 12, 64, 0
18, 10460, Note_on_c, 12, 69, 0
18, 10470, Note_on_c, 12, 69, 85
18, 10470, Note_on_c, 12, 64, 85
18, 10490, Note_on_c, 12, 64, 0
18, 10490, Note_on_c, 12, 69, 0
18, 10500, Note_on_c, 12, 69, 85
18, 10500, Note_on_c, 12, 64, 85
18, 10520, Note_on_c, 12, 64, 0
18, 10520, Note_on_c, 12, 69, 0
18, 10530, Note_on_c, 12, 69, 85
18, 10530, Note_on_c, 12, 64, 85
18, 10550, Note_on_c, 12, 64, 0
18, 10550, Note_on_c, 12, 69, 0
18, 10560, Note_on_c, 12, 69, 85
18, 10560, Note_on_c, 12, 62, 85
18, 10580, Note_on_c, 12, 62, 0
18, 10580, Note_on_c, 12, 69, 0
18, 10590, Note_on_c, 12, 69, 85
18, 10590, Note_on_c, 12, 62, 85
18, 10610, Note_on_c, 12, 62, 0
18, 10610, Note_on_c, 12, 69, 0
18, 10620, Note_on_c, 12, 69, 85
18, 10620, Note_on_c, 12, 62, 85
18, 10640, Note_on_c, 12, 62, 0
18, 10640, Note_on_c, 12, 69, 0
18, 10650, Note_on_c, 12, 69, 85
18, 10650, Note_on_c, 12, 62, 85
18, 10670, Note_on_c, 12, 62, 0
18, 10670, Note_on_c, 12, 69, 0
18, 10680, Note_on_c, 12, 69, 85
18, 10680, Note_on_c, 12, 62, 85
18, 10700, Note_on_c, 12, 62, 0
18, 10700, Note_on_c, 12, 69, 0
18, 10710, Note_on_c, 12, 69, 85
18, 10710, Note_on_c, 12, 62, 85
18, 10730, Note_on_c, 12, 62, 0
18, 10730, Note_on_c, 12, 69, 0
18, 10740, Note_on_c, 12, 69, 85
18, 10740, Note_on_c, 12, 62, 85
18, 10760, Note_on_c, 12, 62, 0
18, 10760, Note_on_c, 12, 69, 0
18, 10770, Note_on_c, 12, 69, 85
18, 10770, Note_on_c, 12, 62, 85
18, 10790, Note_on_c, 12, 62, 0
18, 10790, Note_on_c, 12, 69, 0
18, 10800, Note_on_c, 12, 69, 85
18, 10800, Note_on_c, 12, 64, 85
18, 10820, Note_on_c, 12, 64, 0
18, 10820, Note_on_c, 12, 69, 0
18, 10830, Note_on_c, 12, 69, 85
18, 10830, Note_on_c, 12, 64, 85
18, 10850, Note_on_c, 12, 64, 0
18, 10850, Note_on_c, 12, 69, 0
18, 10860, Note_on_c, 12, 69, 85
18, 10860, Note_on_c, 12, 64, 85
18, 10880, Note_on_c, 12, 64, 0
18, 10880, Note_on_c, 12, 69, 0
18, 10890, Note_on_c, 12, 69, 85
18, 10890, Note_on_c, 12, 64, 85
18, 10910, Note_on_c, 12, 64, 0
18, 10910, Note_on_c, 12, 69, 0
18, 10920, Note_on_c, 12, 69, 85
18, 10920, Note_on_c, 12, 64, 85
18, 10940, Note_on_c, 12, 64, 0
18, 10940, Note_on_c, 12, 69, 0
18, 10950, Note_on_c, 12, 69, 85
18, 10950, Note_on_c, 12, 64, 85
18, 10970, Note_on_c, 12, 64, 0
18, 10970, Note_on_c, 12, 69, 0
18, 10980, Note_on_c, 12, 69, 85
18, 10980, Note_on_c, 12, 64, 85
18, 11000, Note_on_c, 12, 64, 0
18, 11000, Note_on_c, 12, 69, 0
18, 11010, Note_on_c, 12, 69, 85
18, 11010, Note_on_c, 12, 64, 85
18, 11030, Note_on_c, 12, 64, 0
18, 11030, Note_on_c, 12, 69, 0
18, 11040, Note_on_c, 12, 62, 85
18, 11085, Note_on_c, 12, 62, 0
18, 11100, Note_on_c, 12, 64, 85
18, 11145, Note_on_c, 12, 64, 0
18, 11160, Note_on_c, 12, 66, 85
18, 11205, Note_on_c, 12, 66, 0
18, 11220, Note_on_c, 12, 64, 85
18, 11265, Note_on_c, 12, 64, 0
18, 11280, Note_on_c, 12, 62, 85
18, 11325, Note_on_c, 12, 62, 0
18, 11340, Note_on_c, 12, 64, 85
18, 11385, Note_on_c, 12, 64, 0
18, 11400, Note_on_c, 12, 66, 85
18, 11445, Note_on_c, 12, 66, 0
18, 11460, Note_on_c, 12, 62, 85
18, 11505, Note_on_c, 12, 62, 0
18, 11520, Note_on_c, 12, 71, 85
18, 11565, Note_on_c, 12, 71, 0
18, 11580, Note_on_c, 12, 69, 85
18, 11625, Note_on_c, 12, 69, 0
18, 11640, Note_on_c, 12, 67, 85
18, 11685, Note_on_c, 12, 67, 0
18, 11700, Note_on_c, 12, 69, 85
18, 11745, Note_on_c, 12, 69, 0
18, 11760, Note_on_c, 12, 71, 85
18, 11805, Note_on_c, 12, 71, 0
18, 11820, Note_on_c, 12, 69, 85
18, 11865, Note_on_c, 12, 69, 0
18, 11880, Note_on_c, 12, 68, 85
18, 11925, Note_on_c, 12, 68, 0
18, 11940, Note_on_c, 12, 71, 85
18, 11985, Note_on_c, 12, 71, 0
18, 12000, Note_on_c, 12, 69, 85
18, 12045, Note_on_c, 12, 69, 0
18, 12060, Note_on_c, 12, 69, 85
18, 12105, Note_on_c, 12, 69, 0
18, 12120, Note_on_c, 12, 69, 85
18, 12165, Note_on_c, 12, 69, 0
18, 12180, Note_on_c, 12, 69, 85
18, 12225, Note_on_c, 12, 69, 0
18, 12240, Note_on_c, 12, 69, 85
18, 12285, Note_on_c, 12, 69, 0
18, 12300, Note_on_c, 12, 69, 85
18, 12345, Note_on_c, 12, 69, 0
18, 12360, Note_on_c, 12, 69, 85
18, 12405, Note_on_c, 12, 69, 0
18, 12420, Note_on_c, 12, 69, 85
18, 12465, Note_on_c, 12, 69, 0
18, 12480, Note_on_c, 12, 69, 85
18, 12525, Note_on_c, 12, 69, 0
18, 12540, Note_on_c, 12, 57, 85
18, 12585, Note_on_c, 12, 57, 0
18, 12600, Note_on_c, 12, 57, 85
18, 12645, Note_on_c, 12, 57, 0
18, 12660, Note_on_c, 12, 57, 85
18, 12705, Note_on_c, 12, 57, 0
18, 12720, Note_on_c, 12, 57, 85
18, 12840, Note_on_c, 12, 57, 0
18, 13320, Note_on_c, 12, 66, 55
18, 13380, Note_on_c, 12, 66, 0
18, 13440, Note_on_c, 12, 59, 55
18, 13500, Note_on_c, 12, 59, 0
18, 13560, Note_on_c, 12, 67, 55
18, 13620, Note_on_c, 12, 67, 0
18, 13680, Note_on_c, 12, 64, 55
18, 13740, Note_on_c, 12, 64, 0
18, 13800, Note_on_c, 12, 61, 55
18, 13860, Note_on_c, 12, 61, 0
18, 14040, Note_on_c, 12, 64, 55
18, 14160, Note_on_c, 12, 64, 0
18, 14160, Note_on_c, 12, 62, 55
18, 14220, Note_on_c, 12, 62, 0
18, 14280, Note_on_c, 12, 64, 55
18, 14340, Note_on_c, 12, 64, 0
18, 14400, Note_on_c, 12, 62, 55
18, 14640, Note_on_c, 12, 62, 0
18, 14640, Note_on_c, 12, 61, 55
18, 14760, Note_on_c, 12, 61, 0
18, 15000, Note_on_c, 12, 61, 55
18, 15120, Note_on_c, 12, 61, 0
18, 15120, Note_on_c, 12, 62, 55
18, 15180, Note_on_c, 12, 62, 0
18, 15240, Note_on_c, 12, 66, 55
18, 15300, Note_on_c, 12, 66, 0
18, 15360, Note_on_c, 12, 59, 55
18, 15420, Note_on_c, 12, 59, 0
18, 15480, Note_on_c, 12, 55, 55
18, 15540, Note_on_c, 12, 55, 0
18, 15600, Note_on_c, 12, 52, 55
18, 15720, Note_on_c, 12, 52, 0
18, 15780, Note_on_c, 12, 64, 55
18, 15825, Note_on_c, 12, 64, 0
18, 15840, Note_on_c, 12, 64, 55
18, 15900, Note_on_c, 12, 64, 0
18, 15900, Note_on_c, 12, 62, 55
18, 15960, Note_on_c, 12, 62, 0
18, 16320, Note_on_c, 12, 62, 55
18, 16365, Note_on_c, 12, 62, 0
18, 16380, Note_on_c, 12, 62, 55
18, 16425, Note_on_c, 12, 62, 0
18, 16440, Note_on_c, 12, 64, 55
18, 16485, Note_on_c, 12, 64, 0
18, 16500, Note_on_c, 12, 64, 55
18, 16545, Note_on_c, 12, 64, 0
18, 16560, Note_on_c, 12, 66, 55
18, 16605, Note_on_c, 12, 66, 0
18, 16620, Note_on_c, 12, 66, 55
18, 16665, Note_on_c, 12, 66, 0
18, 16680, Note_on_c, 12, 62, 55
18, 16725, Note_on_c, 12, 62, 0
18, 16740, Note_on_c, 12, 62, 55
18, 16785, Note_on_c, 12, 62, 0
18, 16800, Note_on_c, 12, 61, 55
18, 16845, Note_on_c, 12, 61, 0
18, 16860, Note_on_c, 12, 61, 55
18, 16905, Note_on_c, 12, 61, 0
18, 16920, Note_on_c, 12, 62, 55
18, 16965, Note_on_c, 12, 62, 0
18, 16980, Note_on_c, 12, 62, 55
18, 17025, Note_on_c, 12, 62, 0
18, 17040, Note_on_c, 12, 64, 55
18, 17085, Note_on_c, 12, 64, 0
18, 17100, Note_on_c, 12, 64, 55
18, 17145, Note_on_c, 12, 64, 0
18, 17160, Note_on_c, 12, 61, 55
18, 17205, Note_on_c, 12, 61, 0
18, 17220, Note_on_c, 12, 61, 55
18, 17265, Note_on_c, 12, 61, 0
18, 17280, Note_on_c, 12, 62, 55
18, 17325, Note_on_c, 12, 62, 0
18, 17340, Note_on_c, 12, 62, 55
18, 17385, Note_on_c, 12, 62, 0
18, 17400, Note_on_c, 12, 64, 55
18, 17445, Note_on_c, 12, 64, 0
18, 17460, Note_on_c, 12, 64, 55
18, 17505, Note_on_c, 12, 64, 0
18, 17520, Note_on_c, 12, 66, 55
18, 17565, Note_on_c, 12, 66, 0
18, 17580, Note_on_c, 12, 66, 55
18, 17625, Note_on_c, 12, 66, 0
18, 17640, Note_on_c, 12, 62, 55
18, 17685, Note_on_c, 12, 62, 0
18, 17700, Note_on_c, 12, 62, 55
18, 17745, Note_on_c, 12, 62, 0
18, 17760, Note_on_c, 12, 61, 55
18, 17805, Note_on_c, 12, 61, 0
18, 17820, Note_on_c, 12, 61, 55
18, 17865, Note_on_c, 12, 61, 0
18, 17880, Note_on_c, 12, 62, 55
18, 17925, Note_on_c, 12, 62, 0
18, 17940, Note_on_c, 12, 62, 55
18, 17985, Note_on_c, 12, 62, 0
18, 18000, Note_on_c, 12, 64, 55
18, 18045, Note_on_c, 12, 64, 0
18, 18060, Note_on_c, 12, 64, 55
18, 18105, Note_on_c, 12, 64, 0
18, 18120, Note_on_c, 12, 61, 55
18, 18165, Note_on_c, 12, 61, 0
18, 18180, Note_on_c, 12, 61, 55
18, 18225, Note_on_c, 12, 61, 0
18, 18240, Note_on_c, 12, 62, 55
18, 18285, Note_on_c, 12, 62, 0
18, 18300, Note_on_c, 12, 62, 55
18, 18345, Note_on_c, 12, 62, 0
18, 18360, Note_on_c, 12, 66, 55
18, 18405, Note_on_c, 12, 66, 0
18, 18420, Note_on_c, 12, 64, 55
18, 18465, Note_on_c, 12, 64, 0
18, 18480, Note_on_c, 12, 63, 55
18, 18525, Note_on_c, 12, 63, 0
18, 18540, Note_on_c, 12, 59, 55
18, 18585, Note_on_c, 12, 59, 0
18, 18600, Note_on_c, 12, 61, 55
18, 18645, Note_on_c, 12, 61, 0
18, 18660, Note_on_c, 12, 62, 55
18, 18705, Note_on_c, 12, 62, 0
18, 18720, Note_on_c, 12, 64, 85
18, 18765, Note_on_c, 12, 64, 0
18, 18780, Note_on_c, 12, 67, 85
18, 18825, Note_on_c, 12, 67, 0
18, 18840, Note_on_c, 12, 64, 85
18, 18885, Note_on_c, 12, 64, 0
18, 18900, Note_on_c, 12, 62, 85
18, 18945, Note_on_c, 12, 62, 0
18, 18960, Note_on_c, 12, 61, 85
18, 19005, Note_on_c, 12, 61, 0
18, 19020, Note_on_c, 12, 57, 55
18, 19065, Note_on_c, 12, 57, 0
18, 19080, Note_on_c, 12, 59, 85
18, 19125, Note_on_c, 12, 59, 0
18, 19140, Note_on_c, 12, 61, 85
18, 19185, Note_on_c, 12, 61, 0
18, 19200, Note_on_c, 12, 62, 85
18, 19245, Note_on_c, 12, 62, 0
18, 19260, Note_on_c, 12, 74, 85
18, 19305, Note_on_c, 12, 74, 0
18, 19320, Note_on_c, 12, 74, 85
18, 19365, Note_on_c, 12, 74, 0
18, 19380, Note_on_c, 12, 74, 85
18, 19425, Note_on_c, 12, 74, 0
18, 19440, Note_on_c, 12, 74, 85
18, 19485, Note_on_c, 12, 74, 0
18, 19500, Note_on_c, 12, 74, 85
18, 19545, Note_on_c, 12, 74, 0
18, 19560, Note_on_c, 12, 74, 85
18, 19605, Note_on_c, 12, 74, 0
18, 19620, Note_on_c, 12, 74, 85
18, 19665, Note_on_c, 12, 74, 0
18, 19680, Note_on_c, 12, 74, 85
18, 19740, Note_on_c, 12, 74, 0
18, 19740, Note_on_c, 12, 69, 85
18, 19785, Note_on_c, 12, 69, 0
18, 19800, Note_on_c, 12, 69, 85
18, 19830, Note_on_c, 12, 69, 0
18, 19860, Note_on_c, 12, 69, 85
18, 19890, Note_on_c, 12, 69, 0
18, 19920, Note_on_c, 12, 69, 85
18, 19965, Note_on_c, 12, 69, 0
18, 19980, Note_on_c, 12, 69, 85
18, 20025, Note_on_c, 12, 69, 0
18, 20040, Note_on_c, 12, 69, 85
18, 20085, Note_on_c, 12, 69, 0
18, 20100, Note_on_c, 12, 67, 85
18, 20145, Note_on_c, 12, 67, 0
18, 20160, Note_on_c, 12, 62, 85
18, 20205, Note_on_c, 12, 62, 0
18, 20220, Note_on_c, 12, 62, 53
18, 20265, Note_on_c, 12, 62, 0
18, 20280, Note_on_c, 12, 64, 53
18, 20325, Note_on_c, 12, 64, 0
18, 20340, Note_on_c, 12, 64, 53
18, 20385, Note_on_c, 12, 64, 0
18, 20400, Note_on_c, 12, 66, 53
18, 20445, Note_on_c, 12, 66, 0
18, 20460, Note_on_c, 12, 66, 53
18, 20505, Note_on_c, 12, 66, 0
18, 20520, Note_on_c, 12, 62, 53
18, 20565, Note_on_c, 12, 62, 0
18, 20580, Note_on_c, 12, 62, 53
18, 20625, Note_on_c, 12, 62, 0
18, 20640, Note_on_c, 12, 61, 55
18, 20685, Note_on_c, 12, 61, 0
18, 20700, Note_on_c, 12, 61, 55
18, 20745, Note_on_c, 12, 61, 0
18, 20760, Note_on_c, 12, 62, 55
18, 20805, Note_on_c, 12, 62, 0
18, 20820, Note_on_c, 12, 62, 55
18, 20865, Note_on_c, 12, 62, 0
18, 20880, Note_on_c, 12, 64, 55
18, 20925, Note_on_c, 12, 64, 0
18, 20940, Note_on_c, 12, 64, 55
18, 20985, Note_on_c, 12, 64, 0
18, 21000, Note_on_c, 12, 61, 55
18, 21045, Note_on_c, 12, 61, 0
18, 21060, Note_on_c, 12, 61, 55
18, 21105, Note_on_c, 12, 61, 0
18, 21120, Note_on_c, 12, 62, 55
18, 21165, Note_on_c, 12, 62, 0
18, 21180, Note_on_c, 12, 62, 55
18, 21225, Note_on_c, 12, 62, 0
18, 21240, Note_on_c, 12, 64, 55
18, 21285, Note_on_c, 12, 64, 0
18, 21300, Note_on_c, 12, 64, 55
18, 21345, Note_on_c, 12, 64, 0
18, 21360, Note_on_c, 12, 66, 55
18, 21405, Note_on_c, 12, 66, 0
18, 21420, Note_on_c, 12, 66, 55
18, 21465, Note_on_c, 12, 66, 0
18, 21480, Note_on_c, 12, 62, 55
18, 21525, Note_on_c, 12, 62, 0
18, 21540, Note_on_c, 12, 62, 55
18, 21585, Note_on_c, 12, 62, 0
18, 21600, Note_on_c, 12, 61, 55
18, 21645, Note_on_c, 12, 61, 0
18, 21660, Note_on_c, 12, 61, 55
18, 21705, Note_on_c, 12, 61, 0
18, 21720, Note_on_c, 12, 62, 55
18, 21765, Note_on_c, 12, 62, 0
18, 21780, Note_on_c, 12, 62, 55
18, 21825, Note_on_c, 12, 62, 0
18, 21840, Note_on_c, 12, 64, 55
18, 21885, Note_on_c, 12, 64, 0
18, 21900, Note_on_c, 12, 64, 55
18, 21945, Note_on_c, 12, 64, 0
18, 21960, Note_on_c, 12, 61, 55
18, 22005, Note_on_c, 12, 61, 0
18, 22020, Note_on_c, 12, 61, 55
18, 22065, Note_on_c, 12, 61, 0
18, 22080, Note_on_c, 12, 62, 55
18, 22125, Note_on_c, 12, 62, 0
18, 22140, Note_on_c, 12, 62, 85
18, 22185, Note_on_c, 12, 62, 0
18, 22200, Note_on_c, 12, 66, 85
18, 22245, Note_on_c, 12, 66, 0
18, 22260, Note_on_c, 12, 64, 85
18, 22305, Note_on_c, 12, 64, 0
18, 22320, Note_on_c, 12, 63, 85
18, 22365, Note_on_c, 12, 63, 0
18, 22380, Note_on_c, 12, 59, 85
18, 22425, Note_on_c, 12, 59, 0
18, 22440, Note_on_c, 12, 61, 85
18, 22485, Note_on_c, 12, 61, 0
18, 22500, Note_on_c, 12, 62, 85
18, 22545, Note_on_c, 12, 62, 0
18, 22560, Note_on_c, 12, 64, 85
18, 22605, Note_on_c, 12, 64, 0
18, 22620, Note_on_c, 12, 67, 85
18, 22665, Note_on_c, 12, 67, 0
18, 22680, Note_on_c, 12, 64, 85
18, 22725, Note_on_c, 12, 64, 0
18, 22740, Note_on_c, 12, 62, 85
18, 22785, Note_on_c, 12, 62, 0
18, 22800, Note_on_c, 12, 61, 85
18, 22845, Note_on_c, 12, 61, 0
18, 22860, Note_on_c, 12, 57, 85
18, 22905, Note_on_c, 12, 57, 0
18, 22920, Note_on_c, 12, 59, 85
18, 22965, Note_on_c, 12, 59, 0
18, 22980, Note_on_c, 12, 61, 85
18, 23025, Note_on_c, 12, 61, 0
18, 23040, Note_on_c, 12, 62, 85
18, 23085, Note_on_c, 12, 62, 0
18, 23100, Note_on_c, 12, 74, 85
18, 23145, Note_on_c, 12, 74, 0
18, 23160, Note_on_c, 12, 74, 85
18, 23205, Note_on_c, 12, 74, 0
18, 23220, Note_on_c, 12, 74, 85
18, 23265, Note_on_c, 12, 74, 0
18, 23280, Note_on_c, 12, 74, 85
18, 23325, Note_on_c, 12, 74, 0
18, 23340, Note_on_c, 12, 74, 85
18, 23385, Note_on_c, 12, 74, 0
18, 23400, Note_on_c, 12, 74, 85
18, 23445, Note_on_c, 12, 74, 0
18, 23460, Note_on_c, 12, 74, 85
18, 23505, Note_on_c, 12, 74, 0
18, 23520, Note_on_c, 12, 74, 85
18, 23580, Note_on_c, 12, 74, 0
18, 23580, Note_on_c, 12, 69, 85
18, 23625, Note_on_c, 12, 69, 0
18, 23640, Note_on_c, 12, 69, 85
18, 23670, Note_on_c, 12, 69, 0
18, 23700, Note_on_c, 12, 69, 85
18, 23730, Note_on_c, 12, 69, 0
18, 23760, Note_on_c, 12, 69, 85
18, 23805, Note_on_c, 12, 69, 0
18, 23820, Note_on_c, 12, 69, 85
18, 23865, Note_on_c, 12, 69, 0
18, 23880, Note_on_c, 12, 69, 85
18, 23925, Note_on_c, 12, 69, 0
18, 23940, Note_on_c, 12, 67, 85
18, 23985, Note_on_c, 12, 67, 0
18, 24000, Note_on_c, 12, 66, 85
18, 24045, Note_on_c, 12, 66, 0
18, 24060, Note_on_c, 12, 57, 85
18, 24105, Note_on_c, 12, 57, 0
18, 24120, Note_on_c, 12, 59, 85
18, 24165, Note_on_c, 12, 59, 0
18, 24180, Note_on_c, 12, 61, 85
18, 24225, Note_on_c, 12, 61, 0
18, 24240, Note_on_c, 12, 62, 85
18, 24285, Note_on_c, 12, 62, 0
18, 24300, Note_on_c, 12, 62, 85
18, 24345, Note_on_c, 12, 62, 0
18, 24360, Note_on_c, 12, 64, 85
18, 24405, Note_on_c, 12, 64, 0
18, 24420, Note_on_c, 12, 64, 85
18, 24465, Note_on_c, 12, 64, 0
18, 24480, Note_on_c, 12, 66, 85
18, 24525, Note_on_c, 12, 66, 0
18, 24540, Note_on_c, 12, 61, 85
18, 24585, Note_on_c, 12, 61, 0
18, 24600, Note_on_c, 12, 62, 85
18, 24645, Note_on_c, 12, 62, 0
18, 24660, Note_on_c, 12, 64, 85
18, 24705, Note_on_c, 12, 64, 0
18, 24720, Note_on_c, 12, 66, 85
18, 24765, Note_on_c, 12, 66, 0
18, 24780, Note_on_c, 12, 66, 85
18, 24825, Note_on_c, 12, 66, 0
18, 24840, Note_on_c, 12, 67, 85
18, 24885, Note_on_c, 12, 67, 0
18, 24900, Note_on_c, 12, 67, 85
18, 24945, Note_on_c, 12, 67, 0
18, 24960, Note_on_c, 12, 69, 85
18, 25005, Note_on_c, 12, 69, 0
18, 25020, Note_on_c, 12, 69, 85
18, 25065, Note_on_c, 12, 69, 0
18, 25080, Note_on_c, 12, 70, 85
18, 25125, Note_on_c, 12, 70, 0
18, 25140, Note_on_c, 12, 70, 85
18, 25185, Note_on_c, 12, 70, 0
18, 25200, Note_on_c, 12, 71, 85
18, 25320, Note_on_c, 12, 71, 0
18, 25440, Note_on_c, 12, 64, 55
18, 25800, Note_on_c, 12, 64, 0
18, 25800, Note_on_c, 12, 62, 55
18, 25860, Note_on_c, 12, 62, 0
18, 25860, Note_on_c, 12, 61, 55
18, 25920, Note_on_c, 12, 61, 0
18, 25920, Note_on_c, 12, 62, 55
18, 25980, Note_on_c, 12, 62, 0
18, 26040, Note_on_c, 12, 62, 55
18, 26100, Note_on_c, 12, 62, 0
18, 26160, Note_on_c, 12, 62, 55
18, 26220, Note_on_c, 12, 62, 0
18, 26400, Note_on_c, 12, 67, 85
18, 26520, Note_on_c, 12, 67, 0
18, 26580, Note_on_c, 12, 62, 85
18, 26610, Note_on_c, 12, 62, 0
18, 26640, Note_on_c, 12, 67, 85
18, 26760, Note_on_c, 12, 67, 0
18, 26820, Note_on_c, 12, 62, 85
18, 26850, Note_on_c, 12, 62, 0
18, 26880, Note_on_c, 12, 67, 85
18, 26910, Note_on_c, 12, 67, 0
18, 26940, Note_on_c, 12, 62, 85
18, 26970, Note_on_c, 12, 62, 0
18, 27000, Note_on_c, 12, 67, 85
18, 27030, Note_on_c, 12, 67, 0
18, 27060, Note_on_c, 12, 71, 85
18, 27090, Note_on_c, 12, 71, 0
18, 27120, Note_on_c, 12, 74, 85
18, 27240, Note_on_c, 12, 74, 0
18, 27360, Note_on_c, 12, 72, 85
18, 27480, Note_on_c, 12, 72, 0
18, 27540, Note_on_c, 12, 69, 85
18, 27570, Note_on_c, 12, 69, 0
18, 27600, Note_on_c, 12, 72, 85
18, 27720, Note_on_c, 12, 72, 0
18, 27780, Note_on_c, 12, 69, 85
18, 27810, Note_on_c, 12, 69, 0
18, 27840, Note_on_c, 12, 72, 85
18, 27870, Note_on_c, 12, 72, 0
18, 27900, Note_on_c, 12, 69, 85
18, 27930, Note_on_c, 12, 69, 0
18, 27960, Note_on_c, 12, 66, 85
18, 27990, Note_on_c, 12, 66, 0
18, 28020, Note_on_c, 12, 69, 85
18, 28050, Note_on_c, 12, 69, 0
18, 28080, Note_on_c, 12, 62, 85
18, 28200, Note_on_c, 12, 62, 0
18, 28320, Note_on_c, 12, 67, 85
18, 28365, Note_on_c, 12, 67, 0
18, 28380, Note_on_c, 12, 67, 85
18, 28425, Note_on_c, 12, 67, 0
18, 28440, Note_on_c, 12, 67, 85
18, 28485, Note_on_c, 12, 67, 0
18, 28500, Note_on_c, 12, 67, 85
18, 28545, Note_on_c, 12, 67, 0
18, 28560, Note_on_c, 12, 67, 85
18, 28605, Note_on_c, 12, 67, 0
18, 28620, Note_on_c, 12, 67, 85
18, 28665, Note_on_c, 12, 67, 0
18, 28680, Note_on_c, 12, 67, 85
18, 28725, Note_on_c, 12, 67, 0
18, 28740, Note_on_c, 12, 67, 85
18, 28785, Note_on_c, 12, 67, 0
18, 28800, Note_on_c, 12, 69, 85
18, 28845, Note_on_c, 12, 69, 0
18, 28860, Note_on_c, 12, 69, 85
18, 28905, Note_on_c, 12, 69, 0
18, 28920, Note_on_c, 12, 69, 85
18, 28965, Note_on_c, 12, 69, 0
18, 28980, Note_on_c, 12, 69, 85
18, 29025, Note_on_c, 12, 69, 0
18, 29040, Note_on_c, 12, 69, 85
18, 29100, Note_on_c, 12, 69, 0
18, 29100, Note_on_c, 12, 72, 85
18, 29145, Note_on_c, 12, 72, 0
18, 29160, Note_on_c, 12, 66, 85
18, 29220, Note_on_c, 12, 66, 0
18, 29220, Note_on_c, 12, 69, 85
18, 29265, Note_on_c, 12, 69, 0
18, 29280, Note_on_c, 12, 67, 85
18, 29325, Note_on_c, 12, 67, 0
18, 29340, Note_on_c, 12, 67, 85
18, 29385, Note_on_c, 12, 67, 0
18, 29400, Note_on_c, 12, 67, 85
18, 29445, Note_on_c, 12, 67, 0
18, 29460, Note_on_c, 12, 67, 85
18, 29505, Note_on_c, 12, 67, 0
18, 29520, Note_on_c, 12, 67, 85
18, 29565, Note_on_c, 12, 67, 0
18, 29580, Note_on_c, 12, 67, 85
18, 29625, Note_on_c, 12, 67, 0
18, 29640, Note_on_c, 12, 67, 85
18, 29685, Note_on_c, 12, 67, 0
18, 29700, Note_on_c, 12, 67, 85
18, 29745, Note_on_c, 12, 67, 0
18, 29760, Note_on_c, 12, 69, 85
18, 29805, Note_on_c, 12, 69, 0
18, 29820, Note_on_c, 12, 69, 85
18, 29865, Note_on_c, 12, 69, 0
18, 29880, Note_on_c, 12, 69, 85
18, 29925, Note_on_c, 12, 69, 0
18, 29940, Note_on_c, 12, 69, 85
18, 29985, Note_on_c, 12, 69, 0
18, 30000, Note_on_c, 12, 69, 85
18, 30060, Note_on_c, 12, 69, 0
18, 30060, Note_on_c, 12, 72, 85
18, 30105, Note_on_c, 12, 72, 0
18, 30120, Note_on_c, 12, 66, 85
18, 30180, Note_on_c, 12, 66, 0
18, 30180, Note_on_c, 12, 69, 85
18, 30225, Note_on_c, 12, 69, 0
18, 30240, Note_on_c, 12, 62, 85
18, 30260, Note_on_c, 12, 62, 0
18, 30270, Note_on_c, 12, 62, 85
18, 30290, Note_on_c, 12, 62, 0
18, 30300, Note_on_c, 12, 62, 85
18, 30320, Note_on_c, 12, 62, 0
18, 30330, Note_on_c, 12, 62, 85
18, 30350, Note_on_c, 12, 62, 0
18, 30360, Note_on_c, 12, 62, 85
18, 30380, Note_on_c, 12, 62, 0
18, 30390, Note_on_c, 12, 62, 85
18, 30410, Note_on_c, 12, 62, 0
18, 30420, Note_on_c, 12, 62, 85
18, 30440, Note_on_c, 12, 62, 0
18, 30450, Note_on_c, 12, 62, 85
18, 30470, Note_on_c, 12, 62, 0
18, 30480, Note_on_c, 12, 62, 85
18, 30500, Note_on_c, 12, 62, 0
18, 30510, Note_on_c, 12, 62, 85
18, 30530, Note_on_c, 12, 62, 0
18, 30540, Note_on_c, 12, 62, 85
18, 30560, Note_on_c, 12, 62, 0
18, 30570, Note_on_c, 12, 62, 85
18, 30590, Note_on_c, 12, 62, 0
18, 30600, Note_on_c, 12, 62, 85
18, 30620, Note_on_c, 12, 62, 0
18, 30630, Note_on_c, 12, 62, 85
18, 30650, Note_on_c, 12, 62, 0
18, 30660, Note_on_c, 12, 62, 85
18, 30680, Note_on_c, 12, 62, 0
18, 30690, Note_on_c, 12, 62, 85
18, 30710, Note_on_c, 12, 62, 0
18, 30720, Note_on_c, 12, 62, 85
18, 30740, Note_on_c, 12, 62, 0
18, 30750, Note_on_c, 12, 62, 85
18, 30770, Note_on_c, 12, 62, 0
18, 30780, Note_on_c, 12, 62, 85
18, 30800, Note_on_c, 12, 62, 0
18, 30810, Note_on_c, 12, 62, 85
18, 30830, Note_on_c, 12, 62, 0
18, 30840, Note_on_c, 12, 62, 85
18, 30860, Note_on_c, 12, 62, 0
18, 30870, Note_on_c, 12, 62, 85
18, 30890, Note_on_c, 12, 62, 0
18, 30900, Note_on_c, 12, 62, 85
18, 30920, Note_on_c, 12, 62, 0
18, 30930, Note_on_c, 12, 62, 85
18, 30950, Note_on_c, 12, 62, 0
18, 30960, Note_on_c, 12, 62, 85
18, 31080, Note_on_c, 12, 62, 0
18, 31680, Note_on_c, 12, 54, 47
18, 31920, Note_on_c, 12, 54, 0
18, 31920, Note_on_c, 12, 55, 47
18, 32160, Note_on_c, 12, 55, 0
18, 32160, Note_on_c, 12, 60, 47
18, 32250, Note_on_c, 12, 60, 0
18, 32280, Note_on_c, 12, 60, 47
18, 32370, Note_on_c, 12, 60, 0
18, 32400, Note_on_c, 12, 57, 47
18, 32490, Note_on_c, 12, 57, 0
18, 32520, Note_on_c, 12, 50, 47
18, 32610, Note_on_c, 12, 50, 0
18, 32640, Note_on_c, 12, 50, 47
18, 32700, Note_on_c, 12, 50, 0
18, 32760, Note_on_c, 12, 62, 47
18, 32820, Note_on_c, 12, 62, 0
18, 32880, Note_on_c, 12, 62, 47
18, 33000, Note_on_c, 12, 62, 0
18, 33600, Note_on_c, 12, 66, 47
18, 33840, Note_on_c, 12, 66, 0
18, 33840, Note_on_c, 12, 67, 47
18, 34080, Note_on_c, 12, 67, 0
18, 34080, Note_on_c, 12, 60, 47
18, 34170, Note_on_c, 12, 60, 0
18, 34200, Note_on_c, 12, 60, 47
18, 34245, Note_on_c, 12, 60, 0
18, 34260, Note_on_c, 12, 60, 47
18, 34305, Note_on_c, 12, 60, 0
18, 34320, Note_on_c, 12, 57, 47
18, 34410, Note_on_c, 12, 57, 0
18, 34440, Note_on_c, 12, 57, 47
18, 34485, Note_on_c, 12, 57, 0
18, 34500, Note_on_c, 12, 57, 47
18, 34545, Note_on_c, 12, 57, 0
18, 34560, Note_on_c, 12, 55, 92
18, 34605, Note_on_c, 12, 55, 0
18, 34620, Note_on_c, 12, 55, 71
18, 34665, Note_on_c, 12, 55, 0
18, 34680, Note_on_c, 12, 55, 71
18, 34725, Note_on_c, 12, 55, 0
18, 34740, Note_on_c, 12, 55, 71
18, 34785, Note_on_c, 12, 55, 0
18, 34800, Note_on_c, 12, 55, 55
18, 34845, Note_on_c, 12, 55, 0
18, 34860, Note_on_c, 12, 55, 50
18, 34905, Note_on_c, 12, 55, 0
18, 34920, Note_on_c, 12, 55, 50
18, 34965, Note_on_c, 12, 55, 0
18, 34980, Note_on_c, 12, 55, 50
18, 35025, Note_on_c, 12, 55, 0
18, 35040, Note_on_c, 12, 55, 91
18, 35085, Note_on_c, 12, 55, 0
18, 35100, Note_on_c, 12, 55, 65
18, 35145, Note_on_c, 12, 55, 0
18, 35160, Note_on_c, 12, 55, 65
18, 35205, Note_on_c, 12, 55, 0
18, 35220, Note_on_c, 12, 55, 65
18, 35265, Note_on_c, 12, 55, 0
18, 35280, Note_on_c, 12, 55, 46
18, 35325, Note_on_c, 12, 55, 0
18, 35340, Note_on_c, 12, 55, 46
18, 35385, Note_on_c, 12, 55, 0
18, 35400, Note_on_c, 12, 55, 46
18, 35445, Note_on_c, 12, 55, 0
18, 35460, Note_on_c, 12, 55, 46
18, 35505, Note_on_c, 12, 55, 0
18, 35520, Note_on_c, 12, 55, 59
18, 35565, Note_on_c, 12, 55, 0
18, 35580, Note_on_c, 12, 67, 41
18, 35625, Note_on_c, 12, 67, 0
18, 35640, Note_on_c, 12, 67, 46
18, 35685, Note_on_c, 12, 67, 0
18, 35700, Note_on_c, 12, 67, 49
18, 35745, Note_on_c, 12, 67, 0
18, 35760, Note_on_c, 12, 67, 53
18, 35805, Note_on_c, 12, 67, 0
18, 35820, Note_on_c, 12, 67, 56
18, 35865, Note_on_c, 12, 67, 0
18, 35880, Note_on_c, 12, 69, 61
18, 35925, Note_on_c, 12, 69, 0
18, 35940, Note_on_c, 12, 69, 64
18, 35985, Note_on_c, 12, 69, 0
18, 36000, Note_on_c, 12, 67, 68
18, 36045, Note_on_c, 12, 67, 0
18, 36060, Note_on_c, 12, 67, 71
18, 36105, Note_on_c, 12, 67, 0
18, 36120, Note_on_c, 12, 66, 76
18, 36165, Note_on_c, 12, 66, 0
18, 36180, Note_on_c, 12, 66, 79
18, 36225, Note_on_c, 12, 66, 0
18, 36240, Note_on_c, 12, 67, 82
18, 36285, Note_on_c, 12, 67, 0
18, 36300, Note_on_c, 12, 67, 82
18, 36345, Note_on_c, 12, 67, 0
18, 36360, Note_on_c, 12, 64, 82
18, 36405, Note_on_c, 12, 64, 0
18, 36420, Note_on_c, 12, 64, 82
18, 36465, Note_on_c, 12, 64, 0
18, 36480, Note_on_c, 12, 69, 85
18, 36480, Note_on_c, 12, 62, 85
18, 36500, Note_on_c, 12, 62, 0
18, 36500, Note_on_c, 12, 69, 0
18, 36510, Note_on_c, 12, 69, 85
18, 36510, Note_on_c, 12, 62, 85
18, 36530, Note_on_c, 12, 62, 0
18, 36530, Note_on_c, 12, 69, 0
18, 36540, Note_on_c, 12, 69, 85
18, 36540, Note_on_c, 12, 62, 85
18, 36560, Note_on_c, 12, 62, 0
18, 36560, Note_on_c, 12, 69, 0
18, 36570, Note_on_c, 12, 69, 85
18, 36570, Note_on_c, 12, 62, 85
18, 36590, Note_on_c, 12, 62, 0
18, 36590, Note_on_c, 12, 69, 0
18, 36600, Note_on_c, 12, 69, 85
18, 36600, Note_on_c, 12, 62, 85
18, 36620, Note_on_c, 12, 62, 0
18, 36620, Note_on_c, 12, 69, 0
18, 36630, Note_on_c, 12, 69, 85
18, 36630, Note_on_c, 12, 62, 85
18, 36650, Note_on_c, 12, 62, 0
18, 36650, Note_on_c, 12, 69, 0
18, 36660, Note_on_c, 12, 69, 85
18, 36660, Note_on_c, 12, 62, 85
18, 36680, Note_on_c, 12, 62, 0
18, 36680, Note_on_c, 12, 69, 0
18, 36690, Note_on_c, 12, 69, 85
18, 36690, Note_on_c, 12, 62, 85
18, 36710, Note_on_c, 12, 62, 0
18, 36710, Note_on_c, 12, 69, 0
18, 36720, Note_on_c, 12, 69, 85
18, 36720, Note_on_c, 12, 64, 85
18, 36740, Note_on_c, 12, 64, 0
18, 36740, Note_on_c, 12, 69, 0
18, 36750, Note_on_c, 12, 69, 85
18, 36750, Note_on_c, 12, 64, 85
18, 36770, Note_on_c, 12, 64, 0
18, 36770, Note_on_c, 12, 69, 0
18, 36780, Note_on_c, 12, 69, 85
18, 36780, Note_on_c, 12, 64, 85
18, 36800, Note_on_c, 12, 64, 0
18, 36800, Note_on_c, 12, 69, 0
18, 36810, Note_on_c, 12, 69, 85
18, 36810, Note_on_c, 12, 64, 85
18, 36830, Note_on_c, 12, 64, 0
18, 36830, Note_on_c, 12, 69, 0
18, 36840, Note_on_c, 12, 69, 85
18, 36840, Note_on_c, 12, 64, 85
18, 36860, Note_on_c, 12, 64, 0
18, 36860, Note_on_c, 12, 69, 0
18, 36870, Note_on_c, 12, 69, 85
18, 36870, Note_on_c, 12, 64, 85
18, 36890, Note_on_c, 12, 64, 0
18, 36890, Note_on_c, 12, 69, 0
18, 36900, Note_on_c, 12, 69, 85
18, 36900, Note_on_c, 12, 64, 85
18, 36920, Note_on_c, 12, 64, 0
18, 36920, Note_on_c, 12, 69, 0
18, 36930, Note_on_c, 12, 69, 85
18, 36930, Note_on_c, 12, 64, 85
18, 36950, Note_on_c, 12, 64, 0
18, 36950, Note_on_c, 12, 69, 0
18, 36960, Note_on_c, 12, 69, 85
18, 36960, Note_on_c, 12, 62, 85
18, 36980, Note_on_c, 12, 62, 0
18, 36980, Note_on_c, 12, 69, 0
18, 36990, Note_on_c, 12, 69, 85
18, 36990, Note_on_c, 12, 62, 85
18, 37010, Note_on_c, 12, 62, 0
18, 37010, Note_on_c, 12, 69, 0
18, 37020, Note_on_c, 12, 69, 85
18, 37020, Note_on_c, 12, 62, 85
18, 37040, Note_on_c, 12, 62, 0
18, 37040, Note_on_c, 12, 69, 0
18, 37050, Note_on_c, 12, 69, 85
18, 37050, Note_on_c, 12, 62, 85
18, 37070, Note_on_c, 12, 62, 0
18, 37070, Note_on_c, 12, 69, 0
18, 37080, Note_on_c, 12, 69, 85
18, 37080, Note_on_c, 12, 62, 85
18, 37100, Note_on_c, 12, 62, 0
18, 37100, Note_on_c, 12, 69, 0
18, 37110, Note_on_c, 12, 69, 85
18, 37110, Note_on_c, 12, 62, 85
18, 37130, Note_on_c, 12, 62, 0
18, 37130, Note_on_c, 12, 69, 0
18, 37140, Note_on_c, 12, 69, 85
18, 37140, Note_on_c, 12, 62, 85
18, 37160, Note_on_c, 12, 62, 0
18, 37160, Note_on_c, 12, 69, 0
18, 37170, Note_on_c, 12, 69, 85
18, 37170, Note_on_c, 12, 62, 85
18, 37190, Note_on_c, 12, 62, 0
18, 37190, Note_on_c, 12, 69, 0
18, 37200, Note_on_c, 12, 69, 85
18, 37200, Note_on_c, 12, 64, 85
18, 37220, Note_on_c, 12, 64, 0
18, 37220, Note_on_c, 12, 69, 0
18, 37230, Note_on_c, 12, 69, 85
18, 37230, Note_on_c, 12, 64, 85
18, 37250, Note_on_c, 12, 64, 0
18, 37250, Note_on_c, 12, 69, 0
18, 37260, Note_on_c, 12, 69, 85
18, 37260, Note_on_c, 12, 64, 85
18, 37280, Note_on_c, 12, 64, 0
18, 37280, Note_on_c, 12, 69, 0
18, 37290, Note_on_c, 12, 69, 85
18, 37290, Note_on_c, 12, 64, 85
18, 37310, Note_on_c, 12, 64, 0
18, 37310, Note_on_c, 12, 69, 0
18, 37320, Note_on_c, 12, 69, 85
18, 37320, Note_on_c, 12, 64, 85
18, 37340, Note_on_c, 12, 64, 0
18, 37340, Note_on_c, 12, 69, 0
18, 37350, Note_on_c, 12, 69, 85
18, 37350, Note_on_c, 12, 64, 85
18, 37370, Note_on_c, 12, 64, 0
18, 37370, Note_on_c, 12, 69, 0
18, 37380, Note_on_c, 12, 69, 85
18, 37380, Note_on_c, 12, 64, 85
18, 37400, Note_on_c, 12, 64, 0
18, 37400, Note_on_c, 12, 69, 0
18, 37410, Note_on_c, 12, 69, 85
18, 37410, Note_on_c, 12, 64, 85
18, 37430, Note_on_c, 12, 64, 0
18, 37430, Note_on_c, 12, 69, 0
18, 37440, Note_on_c, 12, 62, 85
18, 37485, Note_on_c, 12, 62, 0
18, 37500, Note_on_c, 12, 64, 85
18, 37545, Note_on_c, 12, 64, 0
18, 37560, Note_on_c, 12, 66, 85
18, 37605, Note_on_c, 12, 66, 0
18, 37620, Note_on_c, 12, 64, 85
18, 37665, Note_on_c, 12, 64, 0
18, 37680, Note_on_c, 12, 62, 85
18, 37725, Note_on_c, 12, 62, 0
18, 37740, Note_on_c, 12, 64, 85
18, 37785, Note_on_c, 12, 64, 0
18, 37800, Note_on_c, 12, 66, 85
18, 37845, Note_on_c, 12, 66, 0
18, 37860, Note_on_c, 12, 62, 85
18, 37905, Note_on_c, 12, 62, 0
18, 37920, Note_on_c, 12, 71, 85
18, 37965, Note_on_c, 12, 71, 0
18, 37980, Note_on_c, 12, 69, 85
18, 38025, Note_on_c, 12, 69, 0
18, 38040, Note_on_c, 12, 67, 85
18, 38085, Note_on_c, 12, 67, 0
18, 38100, Note_on_c, 12, 69, 85
18, 38145, Note_on_c, 12, 69, 0
18, 38160, Note_on_c, 12, 71, 85
18, 38205, Note_on_c, 12, 71, 0
18, 38220, Note_on_c, 12, 69, 85
18, 38265, Note_on_c, 12, 69, 0
18, 38280, Note_on_c, 12, 68, 85
18, 38325, Note_on_c, 12, 68, 0
18, 38340, Note_on_c, 12, 71, 85
18, 38385, Note_on_c, 12, 71, 0
18, 38400, Note_on_c, 12, 69, 85
18, 38445, Note_on_c, 12, 69, 0
18, 38460, Note_on_c, 12, 69, 85
18, 38505, Note_on_c, 12, 69, 0
18, 38520, Note_on_c, 12, 69, 85
18, 38565, Note_on_c, 12, 69, 0
18, 38580, Note_on_c, 12, 69, 85
18, 38625, Note_on_c, 12, 69, 0
18, 38640, Note_on_c, 12, 69, 85
18, 38685, Note_on_c, 12, 69, 0
18, 38700, Note_on_c, 12, 69, 85
18, 38745, Note_on_c, 12, 69, 0
18, 38760, Note_on_c, 12, 69, 85
18, 38805, Note_on_c, 12, 69, 0
18, 38820, Note_on_c, 12, 69, 85
18, 38865, Note_on_c, 12, 69, 0
18, 38880, Note_on_c, 12, 69, 85
18, 38925, Note_on_c, 12, 69, 0
18, 38940, Note_on_c, 12, 57, 85
18, 38985, Note_on_c, 12, 57, 0
18, 39000, Note_on_c, 12, 57, 85
18, 39045, Note_on_c, 12, 57, 0
18, 39060, Note_on_c, 12, 57, 85
18, 39105, Note_on_c, 12, 57, 0
18, 39120, Note_on_c, 12, 57, 85
18, 39240, Note_on_c, 12, 57, 0
18, 39720, Note_on_c, 12, 66, 55
18, 39780, Note_on_c, 12, 66, 0
18, 39840, Note_on_c, 12, 59, 55
18, 39900, Note_on_c, 12, 59, 0
18, 39960, Note_on_c, 12, 67, 55
18, 40020, Note_on_c, 12, 67, 0
18, 40080, Note_on_c, 12, 64, 55
18, 40140, Note_on_c, 12, 64, 0
18, 40200, Note_on_c, 12, 61, 55
18, 40260, Note_on_c, 12, 61, 0
18, 40440, Note_on_c, 12, 64, 55
18, 40560, Note_on_c, 12, 64, 0
18, 40560, Note_on_c, 12, 62, 55
18, 40620, Note_on_c, 12, 62, 0
18, 40680, Note_on_c, 12, 64, 55
18, 40740, Note_on_c, 12, 64, 0
18, 40800, Note_on_c, 12, 62, 55
18, 41040, Note_on_c, 12, 62, 0
18, 41040, Note_on_c, 12, 61, 55
18, 41160, Note_on_c, 12, 61, 0
18, 41400, Note_on_c, 12, 61, 55
18, 41520, Note_on_c, 12, 61, 0
18, 41520, Note_on_c, 12, 62, 55
18, 41580, Note_on_c, 12, 62, 0
18, 41640, Note_on_c, 12, 66, 55
18, 41700, Note_on_c, 12, 66, 0
18, 41760, Note_on_c, 12, 59, 55
18, 41820, Note_on_c, 12, 59, 0
18, 41880, Note_on_c, 12, 55, 55
18, 41940, Note_on_c, 12, 55, 0
18, 42000, Note_on_c, 12, 52, 55
18, 42120, Note_on_c, 12, 52, 0
18, 42180, Note_on_c, 12, 64, 55
18, 42225, Note_on_c, 12, 64, 0
18, 42240, Note_on_c, 12, 64, 55
18, 42300, Note_on_c, 12, 64, 0
18, 42300, Note_on_c, 12, 62, 55
18, 42360, Note_on_c, 12, 62, 0
18, 42720, Note_on_c, 12, 62, 55
18, 42765, Note_on_c, 12, 62, 0
18, 42780, Note_on_c, 12, 62, 55
18, 42825, Note_on_c, 12, 62, 0
18, 42840, Note_on_c, 12, 64, 55
18, 42885, Note_on_c, 12, 64, 0
18, 42900, Note_on_c, 12, 64, 55
18, 42945, Note_on_c, 12, 64, 0
18, 42960, Note_on_c, 12, 66, 55
18, 43005, Note_on_c, 12, 66, 0
18, 43020, Note_on_c, 12, 66, 55
18, 43065, Note_on_c, 12, 66, 0
18, 43080, Note_on_c, 12, 62, 55
18, 43125, Note_on_c, 12, 62, 0
18, 43140, Note_on_c, 12, 62, 55
18, 43185, Note_on_c, 12, 62, 0
18, 43200, Note_on_c, 12, 61, 55
18, 43245, Note_on_c, 12, 61, 0
18, 43260, Note_on_c, 12, 61, 55
18, 43305, Note_on_c, 12, 61, 0
18, 43320, Note_on_c, 12, 62, 55
18, 43365, Note_on_c, 12, 62, 0
18, 43380, Note_on_c, 12, 62, 55
18, 43425, Note_on_c, 12, 62, 0
18, 43440, Note_on_c, 12, 64, 55
18, 43485, Note_on_c, 12, 64, 0
18, 43500, Note_on_c, 12, 64, 55
18, 43545, Note_on_c, 12, 64, 0
18, 43560, Note_on_c, 12, 61, 55
18, 43605, Note_on_c, 12, 61, 0
18, 43620, Note_on_c, 12, 61, 55
18, 43665, Note_on_c, 12, 61, 0
18, 43680, Note_on_c, 12, 62, 55
18, 43725, Note_on_c, 12, 62, 0
18, 43740, Note_on_c, 12, 62, 55
18, 43785, Note_on_c, 12, 62, 0
18, 43800, Note_on_c, 12, 64, 55
18, 43845, Note_on_c, 12, 64, 0
18, 43860, Note_on_c, 12, 64, 55
18, 43905, Note_on_c, 12, 64, 0
18, 43920, Note_on_c, 12, 66, 55
18, 43965, Note_on_c, 12, 66, 0
18, 43980, Note_on_c, 12, 66, 55
18, 44025, Note_on_c, 12, 66, 0
18, 44040, Note_on_c, 12, 62, 55
18, 44085, Note_on_c, 12, 62, 0
18, 44100, Note_on_c, 12, 62, 55
18, 44145, Note_on_c, 12, 62, 0
18, 44160, Note_on_c, 12, 61, 55
18, 44205, Note_on_c, 12, 61, 0
18, 44220, Note_on_c, 12, 61, 55
18, 44265, Note_on_c, 12, 61, 0
18, 44280, Note_on_c, 12, 62, 55
18, 44325, Note_on_c, 12, 62, 0
18, 44340, Note_on_c, 12, 62, 55
18, 44385, Note_on_c, 12, 62, 0
18, 44400, Note_on_c, 12, 64, 55
18, 44445, Note_on_c, 12, 64, 0
18, 44460, Note_on_c, 12, 64, 55
18, 44505, Note_on_c, 12, 64, 0
18, 44520, Note_on_c, 12, 61, 55
18, 44565, Note_on_c, 12, 61, 0
18, 44580, Note_on_c, 12, 61, 55
18, 44625, Note_on_c, 12, 61, 0
18, 44640, Note_on_c, 12, 62, 55
18, 44685, Note_on_c, 12, 62, 0
18, 44700, Note_on_c, 12, 62, 55
18, 44745, Note_on_c, 12, 62, 0
18, 44760, Note_on_c, 12, 66, 55
18, 44805, Note_on_c, 12, 66, 0
18, 44820, Note_on_c, 12, 64, 55
18, 44865, Note_on_c, 12, 64, 0
18, 44880, Note_on_c, 12, 63, 55
18, 44925, Note_on_c, 12, 63, 0
18, 44940, Note_on_c, 12, 59, 55
18, 44985, Note_on_c, 12, 59, 0
18, 45000, Note_on_c, 12, 61, 55
18, 45045, Note_on_c, 12, 61, 0
18, 45060, Note_on_c, 12, 62, 55
18, 45105, Note_on_c, 12, 62, 0
18, 45120, Note_on_c, 12, 64, 85
18, 45165, Note_on_c, 12, 64, 0
18, 45180, Note_on_c, 12, 67, 85
18, 45225, Note_on_c, 12, 67, 0
18, 45240, Note_on_c, 12, 64, 85
18, 45285, Note_on_c, 12, 64, 0
18, 45300, Note_on_c, 12, 62, 85
18, 45345, Note_on_c, 12, 62, 0
18, 45360, Note_on_c, 12, 61, 85
18, 45405, Note_on_c, 12, 61, 0
18, 45420, Note_on_c, 12, 57, 55
18, 45465, Note_on_c, 12, 57, 0
18, 45480, Note_on_c, 12, 59, 85
18, 45525, Note_on_c, 12, 59, 0
18, 45540, Note_on_c, 12, 61, 85
18, 45585, Note_on_c, 12, 61, 0
18, 45600, Note_on_c, 12, 62, 85
18, 45645, Note_on_c, 12, 62, 0
18, 45660, Note_on_c, 12, 74, 85
18, 45705, Note_on_c, 12, 74, 0
18, 45720, Note_on_c, 12, 74, 85
18, 45765, Note_on_c, 12, 74, 0
18, 45780, Note_on_c, 12, 74, 85
18, 45825, Note_on_c, 12, 74, 0
18, 45840, Note_on_c, 12, 74, 85
18, 45885, Note_on_c, 12, 74, 0
18, 45900, Note_on_c, 12, 74, 85
18, 45945, Note_on_c, 12, 74, 0
18, 45960, Note_on_c, 12, 74, 85
18, 46005, Note_on_c, 12, 74, 0
18, 46020, Note_on_c, 12, 74, 85
18, 46065, Note_on_c, 12, 74, 0
18, 46080, Note_on_c, 12, 74, 85
18, 46140, Note_on_c, 12, 74, 0
18, 46140, Note_on_c, 12, 69, 85
18, 46185, Note_on_c, 12, 69, 0
18, 46200, Note_on_c, 12, 69, 85
18, 46230, Note_on_c, 12, 69, 0
18, 46260, Note_on_c, 12, 69, 85
18, 46290, Note_on_c, 12, 69, 0
18, 46320, Note_on_c, 12, 69, 85
18, 46365, Note_on_c, 12, 69, 0
18, 46380, Note_on_c, 12, 69, 85
18, 46425, Note_on_c, 12, 69, 0
18, 46440, Note_on_c, 12, 69, 85
18, 46485, Note_on_c, 12, 69, 0
18, 46500, Note_on_c, 12, 67, 85
18, 46545, Note_on_c, 12, 67, 0
18, 46560, Note_on_c, 12, 62, 85
18, 46605, Note_on_c, 12, 62, 0
18, 46620, Note_on_c, 12, 62, 53
18, 46665, Note_on_c, 12, 62, 0
18, 46680, Note_on_c, 12, 64, 53
18, 46725, Note_on_c, 12, 64, 0
18, 46740, Note_on_c, 12, 64, 53
18, 46785, Note_on_c, 12, 64, 0
18, 46800, Note_on_c, 12, 66, 53
18, 46845, Note_on_c, 12, 66, 0
18, 46860, Note_on_c, 12, 66, 53
18, 46905, Note_on_c, 12, 66, 0
18, 46920, Note_on_c, 12, 62, 53
18, 46965, Note_on_c, 12, 62, 0
18, 46980, Note_on_c, 12, 62, 53
18, 47025, Note_on_c, 12, 62, 0
18, 47040, Note_on_c, 12, 61, 55
18, 47085, Note_on_c, 12, 61, 0
18, 47100, Note_on_c, 12, 61, 55
18, 47145, Note_on_c, 12, 61, 0
18, 47160, Note_on_c, 12, 62, 55
18, 47205, Note_on_c, 12, 62, 0
18, 47220, Note_on_c, 12, 62, 55
18, 47265, Note_on_c, 12, 62, 0
18, 47280, Note_on_c, 12, 64, 55
18, 47325, Note_on_c, 12, 64, 0
18, 47340, Note_on_c, 12, 64, 55
18, 47385, Note_on_c, 12, 64, 0
18, 47400, Note_on_c, 12, 61, 55
18, 47445, Note_on_c, 12, 61, 0
18, 47460, Note_on_c, 12, 61, 55
18, 47505, Note_on_c, 12, 61, 0
18, 47520, Note_on_c, 12, 62, 55
18, 47565, Note_on_c, 12, 62, 0
18, 47580, Note_on_c, 12, 62, 55
18, 47625, Note_on_c, 12, 62, 0
18, 47640, Note_on_c, 12, 64, 55
18, 47685, Note_on_c, 12, 64, 0
18, 47700, Note_on_c, 12, 64, 55
18, 47745, Note_on_c, 12, 64, 0
18, 47760, Note_on_c, 12, 66, 55
18, 47805, Note_on_c, 12, 66, 0
18, 47820, Note_on_c, 12, 66, 55
18, 47865, Note_on_c, 12, 66, 0
18, 47880, Note_on_c, 12, 62, 55
18, 47925, Note_on_c, 12, 62, 0
18, 47940, Note_on_c, 12, 62, 55
18, 47985, Note_on_c, 12, 62, 0
18, 48000, Note_on_c, 12, 61, 55
18, 48045, Note_on_c, 12, 61, 0
18, 48060, Note_on_c, 12, 61, 55
18, 48105, Note_on_c, 12, 61, 0
18, 48120, Note_on_c, 12, 62, 55
18, 48165, Note_on_c, 12, 62, 0
18, 48180, Note_on_c, 12, 62, 55
18, 48225, Note_on_c, 12, 62, 0
18, 48240, Note_on_c, 12, 64, 55
18, 48285, Note_on_c, 12, 64, 0
18, 48300, Note_on_c, 12, 64, 55
18, 48345, Note_on_c, 12, 64, 0
18, 48360, Note_on_c, 12, 61, 55
18, 48405, Note_on_c, 12, 61, 0
18, 48420, Note_on_c, 12, 61, 55
18, 48465, Note_on_c, 12, 61, 0
18, 48480, Note_on_c, 12, 62, 55
18, 48525, Note_on_c, 12, 62, 0
18, 48540, Note_on_c, 12, 62, 85
18, 48585, Note_on_c, 12, 62, 0
18, 48600, Note_on_c, 12, 66, 85
18, 48645, Note_on_c, 12, 66, 0
18, 48660, Note_on_c, 12, 64, 85
18, 48705, Note_on_c, 12, 64, 0
18, 48720, Note_on_c, 12, 63, 85
18, 48765, Note_on_c, 12, 63, 0
18, 48780, Note_on_c, 12, 59, 85
18, 48825, Note_on_c, 12, 59, 0
18, 48840, Note_on_c, 12, 61, 85
18, 48885, Note_on_c, 12, 61, 0
18, 48900, Note_on_c, 12, 62, 85
18, 48945, Note_on_c, 12, 62, 0
18, 48960, Note_on_c, 12, 64, 85
18, 49005, Note_on_c, 12, 64, 0
18, 49020, Note_on_c, 12, 67, 85
18, 49065, Note_on_c, 12, 67, 0
18, 49080, Note_on_c, 12, 64, 85
18, 49125, Note_on_c, 12, 64, 0
18, 49140, Note_on_c, 12, 62, 85
18, 49185, Note_on_c, 12, 62, 0
18, 49200, Note_on_c, 12, 61, 85
18, 49245, Note_on_c, 12, 61, 0
18, 49260, Note_on_c, 12, 57, 85
18, 49305, Note_on_c, 12, 57, 0
18, 49320, Note_on_c, 12, 59, 85
18, 49365, Note_on_c, 12, 59, 0
18, 49380, Note_on_c, 12, 61, 85
18, 49425, Note_on_c, 12, 61, 0
18, 49440, Note_on_c, 12, 62, 85
18, 49485, Note_on_c, 12, 62, 0
18, 49500, Note_on_c, 12, 74, 85
18, 49545, Note_on_c, 12, 74, 0
18, 49560, Note_on_c, 12, 74, 85
18, 49605, Note_on_c, 12, 74, 0
18, 49620, Note_on_c, 12, 74, 85
18, 49665, Note_on_c, 12, 74, 0
18, 49680, Note_on_c, 12, 74, 85
18, 49725, Note_on_c, 12, 74, 0
18, 49740, Note_on_c, 12, 74, 85
18, 49785, Note_on_c, 12, 74, 0
18, 49800, Note_on_c, 12, 74, 85
18, 49845, Note_on_c, 12, 74, 0
18, 49860, Note_on_c, 12, 74, 85
18, 49905, Note_on_c, 12, 74, 0
18, 49920, Note_on_c, 12, 74, 85
18, 49980, Note_on_c, 12, 74, 0
18, 49980, Note_on_c, 12, 69, 85
18, 50025, Note_on_c, 12, 69, 0
18, 50040, Note_on_c, 12, 69, 85
18, 50070, Note_on_c, 12, 69, 0
18, 50100, Note_on_c, 12, 69, 85
18, 50130, Note_on_c, 12, 69, 0
18, 50160, Note_on_c, 12, 69, 85
18, 50205, Note_on_c, 12, 69, 0
18, 50220, Note_on_c, 12, 69, 85
18, 50265, Note_on_c, 12, 69, 0
18, 50280, Note_on_c, 12, 69, 85
18, 50325, Note_on_c, 12, 69, 0
18, 50340, Note_on_c, 12, 67, 85
18, 50385, Note_on_c, 12, 67, 0
18, 50400, Note_on_c, 12, 66, 85
18, 50445, Note_on_c, 12, 66, 0
18, 50460, Note_on_c, 12, 57, 85
18, 50505, Note_on_c, 12, 57, 0
18, 50520, Note_on_c, 12, 59, 85
18, 50565, Note_on_c, 12, 59, 0
18, 50580, Note_on_c, 12, 61, 85
18, 50625, Note_on_c, 12, 61, 0
18, 50640, Note_on_c, 12, 62, 85
18, 50685, Note_on_c, 12, 62, 0
18, 50700, Note_on_c, 12, 62, 85
18, 50745, Note_on_c, 12, 62, 0
18, 50760, Note_on_c, 12, 64, 85
18, 50805, Note_on_c, 12, 64, 0
18, 50820, Note_on_c, 12, 64, 85
18, 50865, Note_on_c, 12, 64, 0
18, 50880, Note_on_c, 12, 66, 85
18, 50925, Note_on_c, 12, 66, 0
18, 50940, Note_on_c, 12, 61, 85
18, 50985, Note_on_c, 12, 61, 0
18, 51000, Note_on_c, 12, 62, 85
18, 51045, Note_on_c, 12, 62, 0
18, 51060, Note_on_c, 12, 64, 85
18, 51105, Note_on_c, 12, 64, 0
18, 51120, Note_on_c, 12, 66, 85
18, 51165, Note_on_c, 12, 66, 0
18, 51180, Note_on_c, 12, 66, 85
18, 51225, Note_on_c, 12, 66, 0
18, 51240, Note_on_c, 12, 67, 85
18, 51285, Note_on_c, 12, 67, 0
18, 51300, Note_on_c, 12, 67, 85
18, 51345, Note_on_c, 12, 67, 0
18, 51360, Note_on_c, 12, 69, 85
18, 51405, Note_on_c, 12, 69, 0
18, 51420, Note_on_c, 12, 69, 85
18, 51465, Note_on_c, 12, 69, 0
18, 51480, Note_on_c, 12, 70, 85
18, 51525, Note_on_c, 12, 70, 0
18, 51540, Note_on_c, 12, 70, 85
18, 51585, Note_on_c, 12, 70, 0
18, 51600, Note_on_c, 12, 71, 85
18, 51720, Note_on_c, 12, 71, 0
18, 51840, Note_on_c, 12, 64, 55
18, 52200, Note_on_c, 12, 64, 0
18, 52200, Note_on_c, 12, 62, 55
18, 52260, Note_on_c, 12, 62, 0
18, 52260, Note_on_c, 12, 61, 55
18, 52320, Note_on_c, 12, 61, 0
18, 52320, Note_on_c, 12, 62, 55
18, 52380, Note_on_c, 12, 62, 0
18, 52440, Note_on_c, 12, 62, 55
18, 52500, Note_on_c, 12, 62, 0
18, 52560, Note_on_c, 12, 62, 55
18, 52620, Note_on_c, 12, 62, 0
18, 52800, Note_on_c, 12, 62, 89
18, 52920, Note_on_c, 12, 62, 0
18, 52980, Note_on_c, 12, 57, 89
18, 53025, Note_on_c, 12, 57, 0
18, 53040, Note_on_c, 12, 62, 89
18, 53160, Note_on_c, 12, 62, 0
18, 53220, Note_on_c, 12, 57, 89
18, 53265, Note_on_c, 12, 57, 0
18, 53280, Note_on_c, 12, 62, 89
18, 53325, Note_on_c, 12, 62, 0
18, 53340, Note_on_c, 12, 57, 89
18, 53385, Note_on_c, 12, 57, 0
18, 53400, Note_on_c, 12, 62, 89
18, 53445, Note_on_c, 12, 62, 0
18, 53460, Note_on_c, 12, 66, 89
18, 53505, Note_on_c, 12, 66, 0
18, 53520, Note_on_c, 12, 69, 89
18, 53640, Note_on_c, 12, 69, 0
18, 53760, Note_on_c, 12, 69, 89
18, 53880, Note_on_c, 12, 69, 0
18, 53940, Note_on_c, 12, 66, 89
18, 53985, Note_on_c, 12, 66, 0
18, 54000, Note_on_c, 12, 69, 89
18, 54120, Note_on_c, 12, 69, 0
18, 54180, Note_on_c, 12, 66, 89
18, 54225, Note_on_c, 12, 66, 0
18, 54240, Note_on_c, 12, 69, 89
18, 54285, Note_on_c, 12, 69, 0
18, 54300, Note_on_c, 12, 66, 89
18, 54345, Note_on_c, 12, 66, 0
18, 54360, Note_on_c, 12, 63, 89
18, 54405, Note_on_c, 12, 63, 0
18, 54420, Note_on_c, 12, 66, 89
18, 54465, Note_on_c, 12, 66, 0
18, 54480, Note_on_c, 12, 59, 89
18, 54600, Note_on_c, 12, 59, 0
18, 54720, Note_on_c, 12, 60, 55
18, 54765, Note_on_c, 12, 60, 0
18, 54780, Note_on_c, 12, 60, 55
18, 54825, Note_on_c, 12, 60, 0
18, 54840, Note_on_c, 12, 62, 55
18, 54885, Note_on_c, 12, 62, 0
18, 54900, Note_on_c, 12, 62, 55
18, 54945, Note_on_c, 12, 62, 0
18, 54960, Note_on_c, 12, 64, 55
18, 55005, Note_on_c, 12, 64, 0
18, 55020, Note_on_c, 12, 64, 55
18, 55065, Note_on_c, 12, 64, 0
18, 55080, Note_on_c, 12, 60, 55
18, 55125, Note_on_c, 12, 60, 0
18, 55140, Note_on_c, 12, 60, 55
18, 55185, Note_on_c, 12, 60, 0
18, 55200, Note_on_c, 12, 59, 55
18, 55245, Note_on_c, 12, 59, 0
18, 55260, Note_on_c, 12, 59, 55
18, 55305, Note_on_c, 12, 59, 0
18, 55320, Note_on_c, 12, 60, 55
18, 55365, Note_on_c, 12, 60, 0
18, 55380, Note_on_c, 12, 60, 55
18, 55425, Note_on_c, 12, 60, 0
18, 55440, Note_on_c, 12, 62, 55
18, 55485, Note_on_c, 12, 62, 0
18, 55500, Note_on_c, 12, 62, 55
18, 55545, Note_on_c, 12, 62, 0
18, 55560, Note_on_c, 12, 59, 55
18, 55605, Note_on_c, 12, 59, 0
18, 55620, Note_on_c, 12, 59, 55
18, 55665, Note_on_c, 12, 59, 0
18, 55680, Note_on_c, 12, 60, 55
18, 55725, Note_on_c, 12, 60, 0
18, 55740, Note_on_c, 12, 60, 55
18, 55785, Note_on_c, 12, 60, 0
18, 55800, Note_on_c, 12, 62, 55
18, 55845, Note_on_c, 12, 62, 0
18, 55860, Note_on_c, 12, 62, 55
18, 55905, Note_on_c, 12, 62, 0
18, 55920, Note_on_c, 12, 64, 55
18, 55965, Note_on_c, 12, 64, 0
18, 55980, Note_on_c, 12, 64, 55
18, 56025, Note_on_c, 12, 64, 0
18, 56040, Note_on_c, 12, 60, 55
18, 56085, Note_on_c, 12, 60, 0
18, 56100, Note_on_c, 12, 60, 55
18, 56145, Note_on_c, 12, 60, 0
18, 56160, Note_on_c, 12, 59, 55
18, 56205, Note_on_c, 12, 59, 0
18, 56220, Note_on_c, 12, 59, 55
18, 56265, Note_on_c, 12, 59, 0
18, 56280, Note_on_c, 12, 60, 55
18, 56325, Note_on_c, 12, 60, 0
18, 56340, Note_on_c, 12, 60, 55
18, 56385, Note_on_c, 12, 60, 0
18, 56400, Note_on_c, 12, 62, 55
18, 56445, Note_on_c, 12, 62, 0
18, 56460, Note_on_c, 12, 62, 55
18, 56505, Note_on_c, 12, 62, 0
18, 56520, Note_on_c, 12, 59, 55
18, 56565, Note_on_c, 12, 59, 0
18, 56580, Note_on_c, 12, 59, 55
18, 56625, Note_on_c, 12, 59, 0
18, 56640, Note_on_c, 12, 60, 55
18, 56685, Note_on_c, 12, 60, 0
18, 56700, Note_on_c, 12, 60, 55
18, 56745, Note_on_c, 12, 60, 0
18, 56760, Note_on_c, 12, 62, 55
18, 56805, Note_on_c, 12, 62, 0
18, 56820, Note_on_c, 12, 62, 55
18, 56865, Note_on_c, 12, 62, 0
18, 56880, Note_on_c, 12, 64, 55
18, 56925, Note_on_c, 12, 64, 0
18, 56940, Note_on_c, 12, 64, 55
18, 56985, Note_on_c, 12, 64, 0
18, 57000, Note_on_c, 12, 60, 55
18, 57045, Note_on_c, 12, 60, 0
18, 57060, Note_on_c, 12, 60, 55
18, 57105, Note_on_c, 12, 60, 0
18, 57120, Note_on_c, 12, 59, 55
18, 57165, Note_on_c, 12, 59, 0
18, 57180, Note_on_c, 12, 59, 55
18, 57225, Note_on_c, 12, 59, 0
18, 57240, Note_on_c, 12, 60, 55
18, 57285, Note_on_c, 12, 60, 0
18, 57300, Note_on_c, 12, 60, 55
18, 57345, Note_on_c, 12, 60, 0
18, 57360, Note_on_c, 12, 62, 55
18, 57405, Note_on_c, 12, 62, 0
18, 57420, Note_on_c, 12, 62, 55
18, 57465, Note_on_c, 12, 62, 0
18, 57480, Note_on_c, 12, 59, 55
18, 57525, Note_on_c, 12, 59, 0
18, 57540, Note_on_c, 12, 59, 55
18, 57585, Note_on_c, 12, 59, 0
18, 57600, Note_on_c, 12, 57, 55
18, 57645, Note_on_c, 12, 57, 0
18, 57660, Note_on_c, 12, 57, 55
18, 57705, Note_on_c, 12, 57, 0
18, 57720, Note_on_c, 12, 59, 55
18, 57765, Note_on_c, 12, 59, 0
18, 57780, Note_on_c, 12, 59, 55
18, 57825, Note_on_c, 12, 59, 0
18, 57840, Note_on_c, 12, 60, 55
18, 57885, Note_on_c, 12, 60, 0
18, 57900, Note_on_c, 12, 60, 55
18, 57945, Note_on_c, 12, 60, 0
18, 57960, Note_on_c, 12, 57, 55
18, 58005, Note_on_c, 12, 57, 0
18, 58020, Note_on_c, 12, 57, 55
18, 58065, Note_on_c, 12, 57, 0
18, 58080, Note_on_c, 12, 57, 55
18, 58125, Note_on_c, 12, 57, 0
18, 58140, Note_on_c, 12, 57, 55
18, 58185, Note_on_c, 12, 57, 0
18, 58200, Note_on_c, 12, 58, 55
18, 58245, Note_on_c, 12, 58, 0
18, 58260, Note_on_c, 12, 58, 55
18, 58305, Note_on_c, 12, 58, 0
18, 58320, Note_on_c, 12, 60, 55
18, 58365, Note_on_c, 12, 60, 0
18, 58380, Note_on_c, 12, 60, 55
18, 58425, Note_on_c, 12, 60, 0
18, 58440, Note_on_c, 12, 57, 55
18, 58485, Note_on_c, 12, 57, 0
18, 58500, Note_on_c, 12, 57, 55
18, 58545, Note_on_c, 12, 57, 0
18, 58560, Note_on_c, 12, 55, 55
18, 58605, Note_on_c, 12, 55, 0
18, 58620, Note_on_c, 12, 55, 55
18, 58665, Note_on_c, 12, 55, 0
18, 58680, Note_on_c, 12, 54, 55
18, 58725, Note_on_c, 12, 54, 0
18, 58740, Note_on_c, 12, 54, 55
18, 58785, Note_on_c, 12, 54, 0
18, 58800, Note_on_c, 12, 55, 55
18, 58845, Note_on_c, 12, 55, 0
18, 58860, Note_on_c, 12, 55, 55
18, 58905, Note_on_c, 12, 55, 0
18, 58920, Note_on_c, 12, 66, 55
18, 58965, Note_on_c, 12, 66, 0
18, 58980, Note_on_c, 12, 66, 55
18, 59025, Note_on_c, 12, 66, 0
18, 59040, Note_on_c, 12, 67, 55
18, 59085, Note_on_c, 12, 67, 0
18, 59100, Note_on_c, 12, 67, 55
18, 59145, Note_on_c, 12, 67, 0
18, 59160, Note_on_c, 12, 66, 55
18, 59205, Note_on_c, 12, 66, 0
18, 59220, Note_on_c, 12, 66, 55
18, 59265, Note_on_c, 12, 66, 0
18, 59280, Note_on_c, 12, 67, 55
18, 59325, Note_on_c, 12, 67, 0
18, 59340, Note_on_c, 12, 55, 55
18, 59385, Note_on_c, 12, 55, 0
18, 59400, Note_on_c, 12, 53, 55
18, 59445, Note_on_c, 12, 53, 0
18, 59460, Note_on_c, 12, 55, 55
18, 59505, Note_on_c, 12, 55, 0
18, 59530, Note_on_c, 12, 57, 53
18, 59650, Note_on_c, 12, 57, 0
18, 59710, Note_on_c, 12, 50, 91
18, 59770, Note_on_c, 12, 50, 0
18, 59770, Note_on_c, 12, 52, 91
18, 59830, Note_on_c, 12, 52, 0
18, 59830, Note_on_c, 12, 54, 91
18, 59890, Note_on_c, 12, 54, 0
18, 59890, Note_on_c, 12, 55, 91
18, 59950, Note_on_c, 12, 55, 0
18, 59950, Note_on_c, 12, 57, 91
18, 60010, Note_on_c, 12, 57, 0
18, 60010, Note_on_c, 12, 60, 91
18, 60070, Note_on_c, 12, 60, 0
18, 60070, Note_on_c, 12, 58, 91
18, 60130, Note_on_c, 12, 58, 0
18, 60190, Note_on_c, 12, 54, 91
18, 60250, Note_on_c, 12, 54, 0
18, 60250, Note_on_c, 12, 55, 91
18, 60310, Note_on_c, 12, 55, 0
18, 60310, Note_on_c, 12, 57, 91
18, 60370, Note_on_c, 12, 57, 0
18, 60370, Note_on_c, 12, 58, 91
18, 60430, Note_on_c, 12, 58, 0
18, 60430, Note_on_c, 12, 61, 91
18, 60490, Note_on_c, 12, 61, 0
18, 60490, Note_on_c, 12, 64, 53
18, 60550, Note_on_c, 12, 64, 0
18, 60550, Note_on_c, 12, 62, 53
18, 60610, Note_on_c, 12, 62, 0
18, 61440, Note_on_c, 12, 71, 68
18, 61470, Note_on_c, 12, 71, 0
18, 61500, Note_on_c, 12, 71, 68
18, 61530, Note_on_c, 12, 71, 0
18, 61560, Note_on_c, 12, 71, 68
18, 61620, Note_on_c, 12, 71, 0
18, 61620, Note_on_c, 12, 72, 68
18, 61665, Note_on_c, 12, 72, 0
18, 61680, Note_on_c, 12, 69, 68
18, 61710, Note_on_c, 12, 69, 0
18, 61740, Note_on_c, 12, 69, 68
18, 61770, Note_on_c, 12, 69, 0
18, 61800, Note_on_c, 12, 69, 68
18, 61860, Note_on_c, 12, 69, 0
18, 61860, Note_on_c, 12, 71, 68
18, 61905, Note_on_c, 12, 71, 0
18, 61920, Note_on_c, 12, 67, 68
18, 61950, Note_on_c, 12, 67, 0
18, 61980, Note_on_c, 12, 67, 68
18, 62010, Note_on_c, 12, 67, 0
18, 62040, Note_on_c, 12, 67, 68
18, 62100, Note_on_c, 12, 67, 0
18, 62100, Note_on_c, 12, 71, 68
18, 62145, Note_on_c, 12, 71, 0
18, 62160, Note_on_c, 12, 71, 68
18, 62220, Note_on_c, 12, 71, 0
18, 62220, Note_on_c, 12, 69, 68
18, 62265, Note_on_c, 12, 69, 0
18, 62280, Note_on_c, 12, 67, 68
18, 62310, Note_on_c, 12, 67, 0
18, 62340, Note_on_c, 12, 62, 68
18, 62370, Note_on_c, 12, 62, 0
18, 62405, Note_on_c, 12, 59, 93
18, 62525, Note_on_c, 12, 59, 0
18, 62585, Note_on_c, 12, 62, 92
18, 62615, Note_on_c, 12, 62, 0
18, 62645, Note_on_c, 12, 67, 92
18, 62765, Note_on_c, 12, 67, 0
18, 62825, Note_on_c, 12, 62, 91
18, 62855, Note_on_c, 12, 62, 0
18, 62885, Note_on_c, 12, 67, 90
18, 62915, Note_on_c, 12, 67, 0
18, 62945, Note_on_c, 12, 62, 90
18, 62975, Note_on_c, 12, 62, 0
18, 63005, Note_on_c, 12, 67, 90
18, 63035, Note_on_c, 12, 67, 0
18, 63065, Note_on_c, 12, 71, 90
18, 63095, Note_on_c, 12, 71, 0
18, 63125, Note_on_c, 12, 74, 89
18, 63245, Note_on_c, 12, 74, 0
18, 63365, Note_on_c, 12, 72, 88
18, 63485, Note_on_c, 12, 72, 0
18, 63545, Note_on_c, 12, 69, 87
18, 63575, Note_on_c, 12, 69, 0
18, 63605, Note_on_c, 12, 72, 86
18, 63725, Note_on_c, 12, 72, 0
18, 63785, Note_on_c, 12, 69, 85
18, 63815, Note_on_c, 12, 69, 0
18, 63845, Note_on_c, 12, 72, 85
18, 63875, Note_on_c, 12, 72, 0
18, 63905, Note_on_c, 12, 69, 85
18, 63935, Note_on_c, 12, 69, 0
18, 63965, Note_on_c, 12, 66, 85
18, 63995, Note_on_c, 12, 66, 0
18, 64025, Note_on_c, 12, 69, 85
18, 64055, Note_on_c, 12, 69, 0
18, 64085, Note_on_c, 12, 62, 85
18, 64205, Note_on_c, 12, 62, 0
18, 64320, Note_on_c, 12, 67, 85
18, 64365, Note_on_c, 12, 67, 0
18, 64380, Note_on_c, 12, 67, 85
18, 64425, Note_on_c, 12, 67, 0
18, 64440, Note_on_c, 12, 67, 85
18, 64485, Note_on_c, 12, 67, 0
18, 64500, Note_on_c, 12, 67, 85
18, 64545, Note_on_c, 12, 67, 0
18, 64560, Note_on_c, 12, 67, 85
18, 64605, Note_on_c, 12, 67, 0
18, 64620, Note_on_c, 12, 67, 85
18, 64665, Note_on_c, 12, 67, 0
18, 64680, Note_on_c, 12, 67, 85
18, 64725, Note_on_c, 12, 67, 0
18, 64740, Note_on_c, 12, 67, 85
18, 64785, Note_on_c, 12, 67, 0
18, 64800, Note_on_c, 12, 69, 85
18, 64845, Note_on_c, 12, 69, 0
18, 64860, Note_on_c, 12, 69, 85
18, 64905, Note_on_c, 12, 69, 0
18, 64920, Note_on_c, 12, 69, 85
18, 64965, Note_on_c, 12, 69, 0
18, 64980, Note_on_c, 12, 69, 85
18, 65025, Note_on_c, 12, 69, 0
18, 65040, Note_on_c, 12, 69, 85
18, 65100, Note_on_c, 12, 69, 0
18, 65100, Note_on_c, 12, 72, 85
18, 65145, Note_on_c, 12, 72, 0
18, 65160, Note_on_c, 12, 66, 85
18, 65220, Note_on_c, 12, 66, 0
18, 65220, Note_on_c, 12, 69, 85
18, 65265, Note_on_c, 12, 69, 0
18, 65280, Note_on_c, 12, 67, 85
18, 65325, Note_on_c, 12, 67, 0
18, 65340, Note_on_c, 12, 67, 85
18, 65385, Note_on_c, 12, 67, 0
18, 65400, Note_on_c, 12, 67, 85
18, 65445, Note_on_c, 12, 67, 0
18, 65460, Note_on_c, 12, 67, 85
18, 65505, Note_on_c, 12, 67, 0
18, 65520, Note_on_c, 12, 67, 85
18, 65565, Note_on_c, 12, 67, 0
18, 65580, Note_on_c, 12, 67, 85
18, 65625, Note_on_c, 12, 67, 0
18, 65640, Note_on_c, 12, 67, 85
18, 65685, Note_on_c, 12, 67, 0
18, 65700, Note_on_c, 12, 67, 85
18, 65745, Note_on_c, 12, 67, 0
18, 65760, Note_on_c, 12, 69, 85
18, 65805, Note_on_c, 12, 69, 0
18, 65820, Note_on_c, 12, 69, 85
18, 65865, Note_on_c, 12, 69, 0
18, 65880, Note_on_c, 12, 69, 85
18, 65925, Note_on_c, 12, 69, 0
18, 65940, Note_on_c, 12, 69, 85
18, 65985, Note_on_c, 12, 69, 0
18, 66000, Note_on_c, 12, 69, 85
18, 66060, Note_on_c, 12, 69, 0
18, 66060, Note_on_c, 12, 72, 85
18, 66105, Note_on_c, 12, 72, 0
18, 66120, Note_on_c, 12, 66, 85
18, 66180, Note_on_c, 12, 66, 0
18, 66180, Note_on_c, 12, 69, 85
18, 66225, Note_on_c, 12, 69, 0
18, 66240, Note_on_c, 12, 62, 85
18, 66260, Note_on_c, 12, 62, 0
18, 66270, Note_on_c, 12, 62, 85
18, 66290, Note_on_c, 12, 62, 0
18, 66300, Note_on_c, 12, 62, 85
18, 66320, Note_on_c, 12, 62, 0
18, 66330, Note_on_c, 12, 62, 85
18, 66350, Note_on_c, 12, 62, 0
18, 66360, Note_on_c, 12, 62, 85
18, 66380, Note_on_c, 12, 62, 0
18, 66390, Note_on_c, 12, 62, 85
18, 66410, Note_on_c, 12, 62, 0
18, 66420, Note_on_c, 12, 62, 85
18, 66440, Note_on_c, 12, 62, 0
18, 66450, Note_on_c, 12, 62, 85
18, 66470, Note_on_c, 12, 62, 0
18, 66480, Note_on_c, 12, 62, 85
18, 66500, Note_on_c, 12, 62, 0
18, 66510, Note_on_c, 12, 62, 85
18, 66530, Note_on_c, 12, 62, 0
18, 66540, Note_on_c, 12, 62, 85
18, 66560, Note_on_c, 12, 62, 0
18, 66570, Note_on_c, 12, 62, 85
18, 66590, Note_on_c, 12, 62, 0
18, 66600, Note_on_c, 12, 62, 85
18, 66620, Note_on_c, 12, 62, 0
18, 66630, Note_on_c, 12, 62, 85
18, 66650, Note_on_c, 12, 62, 0
18, 66660, Note_on_c, 12, 62, 85
18, 66680, Note_on_c, 12, 62, 0
18, 66690, Note_on_c, 12, 62, 85
18, 66710, Note_on_c, 12, 62, 0
18, 66720, Note_on_c, 12, 62, 85
18, 66740, Note_on_c, 12, 62, 0
18, 66750, Note_on_c, 12, 62, 85
18, 66770, Note_on_c, 12, 62, 0
18, 66780, Note_on_c, 12, 62, 85
18, 66800, Note_on_c, 12, 62, 0
18, 66810, Note_on_c, 12, 62, 85
18, 66830, Note_on_c, 12, 62, 0
18, 66840, Note_on_c, 12, 62, 85
18, 66860, Note_on_c, 12, 62, 0
18, 66870, Note_on_c, 12, 62, 85
18, 66890, Note_on_c, 12, 62, 0
18, 66900, Note_on_c, 12, 62, 85
18, 66920, Note_on_c, 12, 62, 0
18, 66930, Note_on_c, 12, 62, 85
18, 66950, Note_on_c, 12, 62, 0
18, 66960, Note_on_c, 12, 62, 85
18, 67080, Note_on_c, 12, 62, 0
18, 67680, Note_on_c, 12, 54, 47
18, 67920, Note_on_c, 12, 54, 0
18, 67920, Note_on_c, 12, 55, 47
18, 68160, Note_on_c, 12, 55, 0
18, 68160, Note_on_c, 12, 60, 47
18, 68250, Note_on_c, 12, 60, 0
18, 68280, Note_on_c, 12, 60, 47
18, 68370, Note_on_c, 12, 60, 0
18, 68400, Note_on_c, 12, 57, 47
18, 68490, Note_on_c, 12, 57, 0
18, 68520, Note_on_c, 12, 50, 47
18, 68610, Note_on_c, 12, 50, 0
18, 68640, Note_on_c, 12, 50, 47
18, 68700, Note_on_c, 12, 50, 0
18, 68760, Note_on_c, 12, 62, 47
18, 68820, Note_on_c, 12, 62, 0
18, 68880, Note_on_c, 12, 62, 47
18, 69000, Note_on_c, 12, 62, 0
18, 69600, Note_on_c, 12, 66, 47
18, 69840, Note_on_c, 12, 66, 0
18, 69840, Note_on_c, 12, 67, 47
18, 70080, Note_on_c, 12, 67, 0
18, 70080, Note_on_c, 12, 60, 47
18, 70170, Note_on_c, 12, 60, 0
18, 70200, Note_on_c, 12, 60, 47
18, 70245, Note_on_c, 12, 60, 0
18, 70260, Note_on_c, 12, 60, 47
18, 70305, Note_on_c, 12, 60, 0
18, 70320, Note_on_c, 12, 57, 47
18, 70410, Note_on_c, 12, 57, 0
18, 70440, Note_on_c, 12, 57, 47
18, 70485, Note_on_c, 12, 57, 0
18, 70500, Note_on_c, 12, 57, 47
18, 70545, Note_on_c, 12, 57, 0
18, 70560, Note_on_c, 12, 55, 92
18, 70605, Note_on_c, 12, 55, 0
18, 70620, Note_on_c, 12, 55, 71
18, 70665, Note_on_c, 12, 55, 0
18, 70680, Note_on_c, 12, 55, 71
18, 70725, Note_on_c, 12, 55, 0
18, 70740, Note_on_c, 12, 55, 71
18, 70785, Note_on_c, 12, 55, 0
18, 70800, Note_on_c, 12, 55, 55
18, 70845, Note_on_c, 12, 55, 0
18, 70860, Note_on_c, 12, 55, 50
18, 70905, Note_on_c, 12, 55, 0
18, 70920, Note_on_c, 12, 55, 50
18, 70965, Note_on_c, 12, 55, 0
18, 70980, Note_on_c, 12, 55, 50
18, 71025, Note_on_c, 12, 55, 0
18, 71040, Note_on_c, 12, 55, 91
18, 71085, Note_on_c, 12, 55, 0
18, 71100, Note_on_c, 12, 55, 65
18, 71145, Note_on_c, 12, 55, 0
18, 71160, Note_on_c, 12, 55, 65
18, 71205, Note_on_c, 12, 55, 0
18, 71220, Note_on_c, 12, 55, 65
18, 71265, Note_on_c, 12, 55, 0
18, 71280, Note_on_c, 12, 55, 46
18, 71325, Note_on_c, 12, 55, 0
18, 71340, Note_on_c, 12, 55, 46
18, 71385, Note_on_c, 12, 55, 0
18, 71400, Note_on_c, 12, 55, 46
18, 71445, Note_on_c, 12, 55, 0
18, 71460, Note_on_c, 12, 55, 46
18, 71505, Note_on_c, 12, 55, 0
18, 71520, Note_on_c, 12, 55, 59
18, 71565, Note_on_c, 12, 55, 0
18, 71580, Note_on_c, 12, 67, 41
18, 71625, Note_on_c, 12, 67, 0
18, 71640, Note_on_c, 12, 67, 46
18, 71685, Note_on_c, 12, 67, 0
18, 71700, Note_on_c, 12, 67, 49
18, 71745, Note_on_c, 12, 67, 0
18, 71760, Note_on_c, 12, 67, 53
18, 71805, Note_on_c, 12, 67, 0
18, 71820, Note_on_c, 12, 67, 56
18, 71865, Note_on_c, 12, 67, 0
18, 71880, Note_on_c, 12, 69, 61
18, 71925, Note_on_c, 12, 69, 0
18, 71940, Note_on_c, 12, 69, 64
18, 71985, Note_on_c, 12, 69, 0
18, 72000, Note_on_c, 12, 67, 68
18, 72045, Note_on_c, 12, 67, 0
18, 72060, Note_on_c, 12, 67, 71
18, 72105, Note_on_c, 12, 67, 0
18, 72120, Note_on_c, 12, 66, 76
18, 72165, Note_on_c, 12, 66, 0
18, 72180, Note_on_c, 12, 66, 79
18, 72225, Note_on_c, 12, 66, 0
18, 72240, Note_on_c, 12, 67, 82
18, 72285, Note_on_c, 12, 67, 0
18, 72300, Note_on_c, 12, 67, 82
18, 72345, Note_on_c, 12, 67, 0
18, 72360, Note_on_c, 12, 64, 82
18, 72405, Note_on_c, 12, 64, 0
18, 72420, Note_on_c, 12, 64, 82
18, 72465, Note_on_c, 12, 64, 0
18, 72480, Note_on_c, 12, 69, 85
18, 72480, Note_on_c, 12, 62, 85
18, 72500, Note_on_c, 12, 62, 0
18, 72500, Note_on_c, 12, 69, 0
18, 72510, Note_on_c, 12, 69, 85
18, 72510, Note_on_c, 12, 62, 85
18, 72530, Note_on_c, 12, 62, 0
18, 72530, Note_on_c, 12, 69, 0
18, 72540, Note_on_c, 12, 69, 85
18, 72540, Note_on_c, 12, 62, 85
18, 72560, Note_on_c, 12, 62, 0
18, 72560, Note_on_c, 12, 69, 0
18, 72570, Note_on_c, 12, 69, 85
18, 72570, Note_on_c, 12, 62, 85
18, 72590, Note_on_c, 12, 62, 0
18, 72590, Note_on_c, 12, 69, 0
18, 72600, Note_on_c, 12, 69, 85
18, 72600, Note_on_c, 12, 62, 85
18, 72620, Note_on_c, 12, 62, 0
18, 72620, Note_on_c, 12, 69, 0
18, 72630, Note_on_c, 12, 69, 85
18, 72630, Note_on_c, 12, 62, 85
18, 72650, Note_on_c, 12, 62, 0
18, 72650, Note_on_c, 12, 69, 0
18, 72660, Note_on_c, 12, 69, 85
18, 72660, Note_on_c, 12, 62, 85
18, 72680, Note_on_c, 12, 62, 0
18, 72680, Note_on_c, 12, 69, 0
18, 72690, Note_on_c, 12, 69, 85
18, 72690, Note_on_c, 12, 62, 85
18, 72710, Note_on_c, 12, 62, 0
18, 72710, Note_on_c, 12, 69, 0
18, 72720, Note_on_c, 12, 69, 85
18, 72720, Note_on_c, 12, 64, 85
18, 72740, Note_on_c, 12, 64, 0
18, 72740, Note_on_c, 12, 69, 0
18, 72750, Note_on_c, 12, 69, 85
18, 72750, Note_on_c, 12, 64, 85
18, 72770, Note_on_c, 12, 64, 0
18, 72770, Note_on_c, 12, 69, 0
18, 72780, Note_on_c, 12, 69, 85
18, 72780, Note_on_c, 12, 64, 85
18, 72800, Note_on_c, 12, 64, 0
18, 72800, Note_on_c, 12, 69, 0
18, 72810, Note_on_c, 12, 69, 85
18, 72810, Note_on_c, 12, 64, 85
18, 72830, Note_on_c, 12, 64, 0
18, 72830, Note_on_c, 12, 69, 0
18, 72840, Note_on_c, 12, 69, 85
18, 72840, Note_on_c, 12, 64, 85
18, 72860, Note_on_c, 12, 64, 0
18, 72860, Note_on_c, 12, 69, 0
18, 72870, Note_on_c, 12, 69, 85
18, 72870, Note_on_c, 12, 64, 85
18, 72890, Note_on_c, 12, 64, 0
18, 72890, Note_on_c, 12, 69, 0
18, 72900, Note_on_c, 12, 69, 85
18, 72900, Note_on_c, 12, 64, 85
18, 72920, Note_on_c, 12, 64, 0
18, 72920, Note_on_c, 12, 69, 0
18, 72930, Note_on_c, 12, 69, 85
18, 72930, Note_on_c, 12, 64, 85
18, 72950, Note_on_c, 12, 64, 0
18, 72950, Note_on_c, 12, 69, 0
18, 72960, Note_on_c, 12, 69, 85
18, 72960, Note_on_c, 12, 62, 85
18, 72980, Note_on_c, 12, 62, 0
18, 72980, Note_on_c, 12, 69, 0
18, 72990, Note_on_c, 12, 69, 85
18, 72990, Note_on_c, 12, 62, 85
18, 73010, Note_on_c, 12, 62, 0
18, 73010, Note_on_c, 12, 69, 0
18, 73020, Note_on_c, 12, 69, 85
18, 73020, Note_on_c, 12, 62, 85
18, 73040, Note_on_c, 12, 62, 0
18, 73040, Note_on_c, 12, 69, 0
18, 73050, Note_on_c, 12, 69, 85
18, 73050, Note_on_c, 12, 62, 85
18, 73070, Note_on_c, 12, 62, 0
18, 73070, Note_on_c, 12, 69, 0
18, 73080, Note_on_c, 12, 69, 85
18, 73080, Note_on_c, 12, 62, 85
18, 73100, Note_on_c, 12, 62, 0
18, 73100, Note_on_c, 12, 69, 0
18, 73110, Note_on_c, 12, 69, 85
18, 73110, Note_on_c, 12, 62, 85
18, 73130, Note_on_c, 12, 62, 0
18, 73130, Note_on_c, 12, 69, 0
18, 73140, Note_on_c, 12, 69, 85
18, 73140, Note_on_c, 12, 62, 85
18, 73160, Note_on_c, 12, 62, 0
18, 73160, Note_on_c, 12, 69, 0
18, 73170, Note_on_c, 12, 69, 85
18, 73170, Note_on_c, 12, 62, 85
18, 73190, Note_on_c, 12, 62, 0
18, 73190, Note_on_c, 12, 69, 0
18, 73200, Note_on_c, 12, 69, 85
18, 73200, Note_on_c, 12, 64, 85
18, 73220, Note_on_c, 12, 64, 0
18, 73220, Note_on_c, 12, 69, 0
18, 73230, Note_on_c, 12, 69, 85
18, 73230, Note_on_c, 12, 64, 85
18, 73250, Note_on_c, 12, 64, 0
18, 73250, Note_on_c, 12, 69, 0
18, 73260, Note_on_c, 12, 69, 85
18, 73260, Note_on_c, 12, 64, 85
18, 73280, Note_on_c, 12, 64, 0
18, 73280, Note_on_c, 12, 69, 0
18, 73290, Note_on_c, 12, 69, 85
18, 73290, Note_on_c, 12, 64, 85
18, 73310, Note_on_c, 12, 64, 0
18, 73310, Note_on_c, 12, 69, 0
18, 73320, Note_on_c, 12, 69, 85
18, 73320, Note_on_c, 12, 64, 85
18, 73340, Note_on_c, 12, 64, 0
18, 73340, Note_on_c, 12, 69, 0
18, 73350, Note_on_c, 12, 69, 85
18, 73350, Note_on_c, 12, 64, 85
18, 73370, Note_on_c, 12, 64, 0
18, 73370, Note_on_c, 12, 69, 0
18, 73380, Note_on_c, 12, 69, 85
18, 73380, Note_on_c, 12, 64, 85
18, 73400, Note_on_c, 12, 64, 0
18, 73400, Note_on_c, 12, 69, 0
18, 73410, Note_on_c, 12, 69, 85
18, 73410, Note_on_c, 12, 64, 85
18, 73430, Note_on_c, 12, 64, 0
18, 73430, Note_on_c, 12, 69, 0
18, 73440, Note_on_c, 12, 69, 85
18, 73440, Note_on_c, 12, 62, 85
18, 73460, Note_on_c, 12, 62, 0
18, 73460, Note_on_c, 12, 69, 0
18, 73470, Note_on_c, 12, 69, 85
18, 73470, Note_on_c, 12, 62, 85
18, 73490, Note_on_c, 12, 62, 0
18, 73490, Note_on_c, 12, 69, 0
18, 73500, Note_on_c, 12, 69, 85
18, 73500, Note_on_c, 12, 62, 85
18, 73520, Note_on_c, 12, 62, 0
18, 73520, Note_on_c, 12, 69, 0
18, 73530, Note_on_c, 12, 69, 85
18, 73530, Note_on_c, 12, 62, 85
18, 73550, Note_on_c, 12, 62, 0
18, 73550, Note_on_c, 12, 69, 0
18, 73560, Note_on_c, 12, 64, 85
18, 73560, Note_on_c, 12, 69, 85
18, 73580, Note_on_c, 12, 69, 0
18, 73580, Note_on_c, 12, 64, 0
18, 73590, Note_on_c, 12, 64, 85
18, 73590, Note_on_c, 12, 69, 85
18, 73610, Note_on_c, 12, 69, 0
18, 73610, Note_on_c, 12, 64, 0
18, 73620, Note_on_c, 12, 64, 85
18, 73620, Note_on_c, 12, 69, 85
18, 73640, Note_on_c, 12, 69, 0
18, 73640, Note_on_c, 12, 64, 0
18, 73650, Note_on_c, 12, 64, 85
18, 73650, Note_on_c, 12, 69, 85
18, 73670, Note_on_c, 12, 69, 0
18, 73670, Note_on_c, 12, 64, 0
18, 73680, Note_on_c, 12, 62, 85
18, 73680, Note_on_c, 12, 69, 85
18, 73700, Note_on_c, 12, 69, 0
18, 73700, Note_on_c, 12, 62, 0
18, 73710, Note_on_c, 12, 62, 85
18, 73710, Note_on_c, 12, 69, 85
18, 73730, Note_on_c, 12, 69, 0
18, 73730, Note_on_c, 12, 62, 0
18, 73740, Note_on_c, 12, 62, 85
18, 73740, Note_on_c, 12, 69, 85
18, 73760, Note_on_c, 12, 69, 0
18, 73760, Note_on_c, 12, 62, 0
18, 73770, Note_on_c, 12, 62, 85
18, 73770, Note_on_c, 12, 69, 85
18, 73790, Note_on_c, 12, 69, 0
18, 73790, Note_on_c, 12, 62, 0
18, 73800, Note_on_c, 12, 69, 85
18, 73800, Note_on_c, 12, 64, 85
18, 73820, Note_on_c, 12, 64, 0
18, 73820, Note_on_c, 12, 69, 0
18, 73830, Note_on_c, 12, 69, 85
18, 73830, Note_on_c, 12, 64, 85
18, 73850, Note_on_c, 12, 64, 0
18, 73850, Note_on_c, 12, 69, 0
18, 73860, Note_on_c, 12, 69, 85
18, 73860, Note_on_c, 12, 64, 85
18, 73880, Note_on_c, 12, 64, 0
18, 73880, Note_on_c, 12, 69, 0
18, 73890, Note_on_c, 12, 69, 85
18, 73890, Note_on_c, 12, 64, 85
18, 73910, Note_on_c, 12, 64, 0
18, 73910, Note_on_c, 12, 69, 0
18, 73923, Note_on_c, 12, 62, 85
18, 73923, Note_on_c, 12, 69, 85
18, 73968, Note_on_c, 12, 69, 0
18, 73968, Note_on_c, 12, 62, 0
18, 73983, Note_on_c, 12, 50, 85
18, 74028, Note_on_c, 12, 50, 0
18, 74043, Note_on_c, 12, 50, 85
18, 74088, Note_on_c, 12, 50, 0
18, 74103, Note_on_c, 12, 50, 85
18, 74148, Note_on_c, 12, 50, 0
18, 74163, Note_on_c, 12, 50, 85
18, 74283, Note_on_c, 12, 50, 0
18, 74760, Note_on_c, 12, 59, 55
18, 74820, Note_on_c, 12, 59, 0
18, 74880, Note_on_c, 12, 52, 55
18, 74940, Note_on_c, 12, 52, 0
18, 75000, Note_on_c, 12, 60, 55
18, 75060, Note_on_c, 12, 60, 0
18, 75120, Note_on_c, 12, 57, 55
18, 75180, Note_on_c, 12, 57, 0
18, 75240, Note_on_c, 12, 54, 55
18, 75300, Note_on_c, 12, 54, 0
18, 75480, Note_on_c, 12, 69, 55
18, 75600, Note_on_c, 12, 69, 0
18, 75600, Note_on_c, 12, 67, 55
18, 75660, Note_on_c, 12, 67, 0
18, 75720, Note_on_c, 12, 69, 55
18, 75780, Note_on_c, 12, 69, 0
18, 75840, Note_on_c, 12, 67, 55
18, 76080, Note_on_c, 12, 67, 0
18, 76080, Note_on_c, 12, 66, 55
18, 76200, Note_on_c, 12, 66, 0
18, 76440, Note_on_c, 12, 66, 55
18, 76560, Note_on_c, 12, 66, 0
18, 76560, Note_on_c, 12, 67, 55
18, 76620, Note_on_c, 12, 67, 0
18, 76680, Note_on_c, 12, 71, 55
18, 76740, Note_on_c, 12, 71, 0
18, 76800, Note_on_c, 12, 64, 55
18, 76860, Note_on_c, 12, 64, 0
18, 76920, Note_on_c, 12, 60, 55
18, 76980, Note_on_c, 12, 60, 0
18, 77040, Note_on_c, 12, 57, 55
18, 77160, Note_on_c, 12, 57, 0
18, 77220, Note_on_c, 12, 69, 55
18, 77265, Note_on_c, 12, 69, 0
18, 77280, Note_on_c, 12, 69, 55
18, 77340, Note_on_c, 12, 69, 0
18, 77340, Note_on_c, 12, 67, 55
18, 77400, Note_on_c, 12, 67, 0
18, 77760, Note_on_c, 12, 55, 55
18, 77805, Note_on_c, 12, 55, 0
18, 77820, Note_on_c, 12, 55, 55
18, 77865, Note_on_c, 12, 55, 0
18, 77880, Note_on_c, 12, 57, 55
18, 77925, Note_on_c, 12, 57, 0
18, 77940, Note_on_c, 12, 57, 55
18, 77985, Note_on_c, 12, 57, 0
18, 78000, Note_on_c, 12, 59, 55
18, 78045, Note_on_c, 12, 59, 0
18, 78060, Note_on_c, 12, 59, 55
18, 78105, Note_on_c, 12, 59, 0
18, 78120, Note_on_c, 12, 55, 55
18, 78165, Note_on_c, 12, 55, 0
18, 78180, Note_on_c, 12, 55, 55
18, 78225, Note_on_c, 12, 55, 0
18, 78240, Note_on_c, 12, 54, 55
18, 78285, Note_on_c, 12, 54, 0
18, 78300, Note_on_c, 12, 54, 55
18, 78345, Note_on_c, 12, 54, 0
18, 78360, Note_on_c, 12, 55, 55
18, 78405, Note_on_c, 12, 55, 0
18, 78420, Note_on_c, 12, 55, 55
18, 78465, Note_on_c, 12, 55, 0
18, 78480, Note_on_c, 12, 57, 55
18, 78525, Note_on_c, 12, 57, 0
18, 78540, Note_on_c, 12, 57, 55
18, 78585, Note_on_c, 12, 57, 0
18, 78600, Note_on_c, 12, 54, 55
18, 78645, Note_on_c, 12, 54, 0
18, 78660, Note_on_c, 12, 54, 55
18, 78705, Note_on_c, 12, 54, 0
18, 78720, Note_on_c, 12, 55, 55
18, 78765, Note_on_c, 12, 55, 0
18, 78780, Note_on_c, 12, 55, 55
18, 78825, Note_on_c, 12, 55, 0
18, 78840, Note_on_c, 12, 57, 55
18, 78885, Note_on_c, 12, 57, 0
18, 78900, Note_on_c, 12, 57, 55
18, 78945, Note_on_c, 12, 57, 0
18, 78960, Note_on_c, 12, 59, 55
18, 79005, Note_on_c, 12, 59, 0
18, 79020, Note_on_c, 12, 59, 55
18, 79065, Note_on_c, 12, 59, 0
18, 79080, Note_on_c, 12, 55, 55
18, 79125, Note_on_c, 12, 55, 0
18, 79140, Note_on_c, 12, 55, 55
18, 79185, Note_on_c, 12, 55, 0
18, 79200, Note_on_c, 12, 54, 55
18, 79245, Note_on_c, 12, 54, 0
18, 79260, Note_on_c, 12, 54, 55
18, 79305, Note_on_c, 12, 54, 0
18, 79320, Note_on_c, 12, 55, 55
18, 79365, Note_on_c, 12, 55, 0
18, 79380, Note_on_c, 12, 55, 55
18, 79425, Note_on_c, 12, 55, 0
18, 79440, Note_on_c, 12, 57, 55
18, 79485, Note_on_c, 12, 57, 0
18, 79500, Note_on_c, 12, 57, 55
18, 79545, Note_on_c, 12, 57, 0
18, 79560, Note_on_c, 12, 54, 55
18, 79605, Note_on_c, 12, 54, 0
18, 79620, Note_on_c, 12, 54, 55
18, 79665, Note_on_c, 12, 54, 0
18, 79680, Note_on_c, 12, 55, 55
18, 79725, Note_on_c, 12, 55, 0
18, 79740, Note_on_c, 12, 67, 83
18, 79785, Note_on_c, 12, 67, 0
18, 79800, Note_on_c, 12, 71, 83
18, 79845, Note_on_c, 12, 71, 0
18, 79860, Note_on_c, 12, 69, 83
18, 79905, Note_on_c, 12, 69, 0
18, 79920, Note_on_c, 12, 68, 83
18, 79965, Note_on_c, 12, 68, 0
18, 79980, Note_on_c, 12, 64, 83
18, 80025, Note_on_c, 12, 64, 0
18, 80040, Note_on_c, 12, 66, 83
18, 80085, Note_on_c, 12, 66, 0
18, 80100, Note_on_c, 12, 67, 83
18, 80145, Note_on_c, 12, 67, 0
18, 80160, Note_on_c, 12, 69, 83
18, 80205, Note_on_c, 12, 69, 0
18, 80220, Note_on_c, 12, 72, 83
18, 80265, Note_on_c, 12, 72, 0
18, 80280, Note_on_c, 12, 69, 85
18, 80325, Note_on_c, 12, 69, 0
18, 80340, Note_on_c, 12, 67, 85
18, 80385, Note_on_c, 12, 67, 0
18, 80400, Note_on_c, 12, 66, 85
18, 80445, Note_on_c, 12, 66, 0
18, 80460, Note_on_c, 12, 62, 86
18, 80505, Note_on_c, 12, 62, 0
18, 80520, Note_on_c, 12, 64, 85
18, 80565, Note_on_c, 12, 64, 0
18, 80580, Note_on_c, 12, 66, 85
18, 80625, Note_on_c, 12, 66, 0
18, 80640, Note_on_c, 12, 67, 85
18, 80685, Note_on_c, 12, 67, 0
18, 80700, Note_on_c, 12, 67, 85
18, 80745, Note_on_c, 12, 67, 0
18, 80760, Note_on_c, 12, 67, 85
18, 80805, Note_on_c, 12, 67, 0
18, 80820, Note_on_c, 12, 67, 85
18, 80865, Note_on_c, 12, 67, 0
18, 80880, Note_on_c, 12, 67, 85
18, 80925, Note_on_c, 12, 67, 0
18, 80940, Note_on_c, 12, 67, 85
18, 80985, Note_on_c, 12, 67, 0
18, 81000, Note_on_c, 12, 67, 85
18, 81045, Note_on_c, 12, 67, 0
18, 81060, Note_on_c, 12, 67, 85
18, 81105, Note_on_c, 12, 67, 0
18, 81120, Note_on_c, 12, 67, 85
18, 81180, Note_on_c, 12, 67, 0
18, 81180, Note_on_c, 12, 62, 85
18, 81225, Note_on_c, 12, 62, 0
18, 81240, Note_on_c, 12, 62, 85
18, 81270, Note_on_c, 12, 62, 0
18, 81300, Note_on_c, 12, 62, 85
18, 81330, Note_on_c, 12, 62, 0
18, 81360, Note_on_c, 12, 62, 85
18, 81405, Note_on_c, 12, 62, 0
18, 81420, Note_on_c, 12, 62, 85
18, 81465, Note_on_c, 12, 62, 0
18, 81480, Note_on_c, 12, 62, 85
18, 81525, Note_on_c, 12, 62, 0
18, 81540, Note_on_c, 12, 60, 85
18, 81585, Note_on_c, 12, 60, 0
18, 81600, Note_on_c, 12, 55, 85
18, 81645, Note_on_c, 12, 55, 0
18, 81660, Note_on_c, 12, 55, 53
18, 81705, Note_on_c, 12, 55, 0
18, 81720, Note_on_c, 12, 57, 53
18, 81765, Note_on_c, 12, 57, 0
18, 81780, Note_on_c, 12, 57, 53
18, 81825, Note_on_c, 12, 57, 0
18, 81840, Note_on_c, 12, 59, 53
18, 81885, Note_on_c, 12, 59, 0
18, 81900, Note_on_c, 12, 59, 53
18, 81945, Note_on_c, 12, 59, 0
18, 81960, Note_on_c, 12, 55, 53
18, 82005, Note_on_c, 12, 55, 0
18, 82020, Note_on_c, 12, 55, 53
18, 82065, Note_on_c, 12, 55, 0
18, 82080, Note_on_c, 12, 54, 55
18, 82125, Note_on_c, 12, 54, 0
18, 82140, Note_on_c, 12, 54, 55
18, 82185, Note_on_c, 12, 54, 0
18, 82200, Note_on_c, 12, 55, 55
18, 82245, Note_on_c, 12, 55, 0
18, 82260, Note_on_c, 12, 55, 55
18, 82305, Note_on_c, 12, 55, 0
18, 82320, Note_on_c, 12, 57, 55
18, 82365, Note_on_c, 12, 57, 0
18, 82380, Note_on_c, 12, 57, 55
18, 82425, Note_on_c, 12, 57, 0
18, 82440, Note_on_c, 12, 54, 55
18, 82485, Note_on_c, 12, 54, 0
18, 82500, Note_on_c, 12, 54, 55
18, 82545, Note_on_c, 12, 54, 0
18, 82560, Note_on_c, 12, 55, 55
18, 82605, Note_on_c, 12, 55, 0
18, 82620, Note_on_c, 12, 67, 55
18, 82665, Note_on_c, 12, 67, 0
18, 82680, Note_on_c, 12, 69, 55
18, 82725, Note_on_c, 12, 69, 0
18, 82740, Note_on_c, 12, 69, 55
18, 82785, Note_on_c, 12, 69, 0
18, 82800, Note_on_c, 12, 71, 55
18, 82845, Note_on_c, 12, 71, 0
18, 82860, Note_on_c, 12, 71, 55
18, 82905, Note_on_c, 12, 71, 0
18, 82920, Note_on_c, 12, 67, 55
18, 82965, Note_on_c, 12, 67, 0
18, 82980, Note_on_c, 12, 67, 55
18, 83025, Note_on_c, 12, 67, 0
18, 83040, Note_on_c, 12, 66, 55
18, 83085, Note_on_c, 12, 66, 0
18, 83100, Note_on_c, 12, 66, 55
18, 83145, Note_on_c, 12, 66, 0
18, 83160, Note_on_c, 12, 67, 55
18, 83205, Note_on_c, 12, 67, 0
18, 83220, Note_on_c, 12, 67, 55
18, 83265, Note_on_c, 12, 67, 0
18, 83280, Note_on_c, 12, 69, 55
18, 83325, Note_on_c, 12, 69, 0
18, 83340, Note_on_c, 12, 69, 55
18, 83385, Note_on_c, 12, 69, 0
18, 83400, Note_on_c, 12, 66, 55
18, 83445, Note_on_c, 12, 66, 0
18, 83460, Note_on_c, 12, 66, 55
18, 83505, Note_on_c, 12, 66, 0
18, 83520, Note_on_c, 12, 67, 55
18, 83565, Note_on_c, 12, 67, 0
18, 83580, Note_on_c, 12, 67, 85
18, 83625, Note_on_c, 12, 67, 0
18, 83640, Note_on_c, 12, 71, 85
18, 83685, Note_on_c, 12, 71, 0
18, 83700, Note_on_c, 12, 69, 85
18, 83745, Note_on_c, 12, 69, 0
18, 83760, Note_on_c, 12, 68, 85
18, 83805, Note_on_c, 12, 68, 0
18, 83820, Note_on_c, 12, 64, 85
18, 83865, Note_on_c, 12, 64, 0
18, 83880, Note_on_c, 12, 66, 85
18, 83925, Note_on_c, 12, 66, 0
18, 83940, Note_on_c, 12, 67, 85
18, 83985, Note_on_c, 12, 67, 0
18, 84000, Note_on_c, 12, 69, 85
18, 84045, Note_on_c, 12, 69, 0
18, 84060, Note_on_c, 12, 72, 85
18, 84105, Note_on_c, 12, 72, 0
18, 84120, Note_on_c, 12, 69, 85
18, 84165, Note_on_c, 12, 69, 0
18, 84180, Note_on_c, 12, 67, 85
18, 84225, Note_on_c, 12, 67, 0
18, 84240, Note_on_c, 12, 66, 85
18, 84285, Note_on_c, 12, 66, 0
18, 84300, Note_on_c, 12, 62, 85
18, 84345, Note_on_c, 12, 62, 0
18, 84360, Note_on_c, 12, 64, 85
18, 84405, Note_on_c, 12, 64, 0
18, 84420, Note_on_c, 12, 66, 85
18, 84465, Note_on_c, 12, 66, 0
18, 84480, Note_on_c, 12, 67, 85
18, 84525, Note_on_c, 12, 67, 0
18, 84540, Note_on_c, 12, 67, 85
18, 84585, Note_on_c, 12, 67, 0
18, 84600, Note_on_c, 12, 67, 85
18, 84645, Note_on_c, 12, 67, 0
18, 84660, Note_on_c, 12, 67, 85
18, 84705, Note_on_c, 12, 67, 0
18, 84720, Note_on_c, 12, 67, 85
18, 84765, Note_on_c, 12, 67, 0
18, 84780, Note_on_c, 12, 67, 85
18, 84825, Note_on_c, 12, 67, 0
18, 84840, Note_on_c, 12, 67, 85
18, 84885, Note_on_c, 12, 67, 0
18, 84900, Note_on_c, 12, 67, 85
18, 84945, Note_on_c, 12, 67, 0
18, 84960, Note_on_c, 12, 67, 85
18, 85005, Note_on_c, 12, 67, 0
18, 85020, Note_on_c, 12, 71, 85
18, 85065, Note_on_c, 12, 71, 0
18, 85080, Note_on_c, 12, 74, 85
18, 85125, Note_on_c, 12, 74, 0
18, 85140, Note_on_c, 12, 74, 85
18, 85185, Note_on_c, 12, 74, 0
18, 85200, Note_on_c, 12, 74, 85
18, 85245, Note_on_c, 12, 74, 0
18, 85260, Note_on_c, 12, 74, 85
18, 85305, Note_on_c, 12, 74, 0
18, 85320, Note_on_c, 12, 74, 85
18, 85365, Note_on_c, 12, 74, 0
18, 85380, Note_on_c, 12, 72, 85
18, 85425, Note_on_c, 12, 72, 0
18, 85442, Note_on_c, 12, 71, 85
18, 85487, Note_on_c, 12, 71, 0
18, 85502, Note_on_c, 12, 62, 85
18, 85547, Note_on_c, 12, 62, 0
18, 85562, Note_on_c, 12, 64, 85
18, 85607, Note_on_c, 12, 64, 0
18, 85622, Note_on_c, 12, 66, 85
18, 85667, Note_on_c, 12, 66, 0
18, 85682, Note_on_c, 12, 67, 85
18, 85727, Note_on_c, 12, 67, 0
18, 85742, Note_on_c, 12, 67, 85
18, 85787, Note_on_c, 12, 67, 0
18, 85802, Note_on_c, 12, 69, 85
18, 85847, Note_on_c, 12, 69, 0
18, 85862, Note_on_c, 12, 69, 85
18, 85907, Note_on_c, 12, 69, 0
18, 85922, Note_on_c, 12, 71, 85
18, 85967, Note_on_c, 12, 71, 0
18, 85982, Note_on_c, 12, 54, 85
18, 86027, Note_on_c, 12, 54, 0
18, 86042, Note_on_c, 12, 55, 85
18, 86087, Note_on_c, 12, 55, 0
18, 86102, Note_on_c, 12, 57, 85
18, 86147, Note_on_c, 12, 57, 0
18, 86162, Note_on_c, 12, 59, 85
18, 86207, Note_on_c, 12, 59, 0
18, 86222, Note_on_c, 12, 59, 85
18, 86267, Note_on_c, 12, 59, 0
18, 86282, Note_on_c, 12, 60, 85
18, 86327, Note_on_c, 12, 60, 0
18, 86342, Note_on_c, 12, 60, 85
18, 86387, Note_on_c, 12, 60, 0
18, 86400, Note_on_c, 12, 62, 85
18, 86445, Note_on_c, 12, 62, 0
18, 86460, Note_on_c, 12, 62, 85
18, 86505, Note_on_c, 12, 62, 0
18, 86520, Note_on_c, 12, 63, 85
18, 86565, Note_on_c, 12, 63, 0
18, 86580, Note_on_c, 12, 63, 85
18, 86625, Note_on_c, 12, 63, 0
18, 86640, Note_on_c, 12, 64, 85
18, 86760, Note_on_c, 12, 64, 0
18, 86880, Note_on_c, 12, 57, 70
18, 87240, Note_on_c, 12, 57, 0
18, 87240, Note_on_c, 12, 55, 70
18, 87300, Note_on_c, 12, 55, 0
18, 87300, Note_on_c, 12, 54, 70
18, 87360, Note_on_c, 12, 54, 0
18, 87360, Note_on_c, 12, 55, 70
18, 87480, Note_on_c, 12, 55, 0
18, 87840, Note_on_c, 12, 57, 70
18, 88200, Note_on_c, 12, 57, 0
18, 88200, Note_on_c, 12, 55, 70
18, 88260, Note_on_c, 12, 55, 0
18, 88260, Note_on_c, 12, 54, 70
18, 88320, Note_on_c, 12, 54, 0
18, 88320, Note_on_c, 12, 55, 70
18, 88440, Note_on_c, 12, 55, 0
18, 88560, Note_on_c, 12, 67, 70
18, 88680, Note_on_c, 12, 67, 0
18, 88800, Note_on_c, 12, 64, 92
18, 88920, Note_on_c, 12, 64, 0
18, 89040, Note_on_c, 12, 62, 111
18, 89040, Note_on_c, 12, 69, 111
18, 89160, Note_on_c, 12, 69, 0
18, 89160, Note_on_c, 12, 62, 0
18, 89280, Note_on_c, 12, 55, 97
18, 89300, Note_on_c, 12, 55, 0
18, 89310, Note_on_c, 12, 55, 94
18, 89330, Note_on_c, 12, 55, 0
18, 89340, Note_on_c, 12, 55, 93
18, 89360, Note_on_c, 12, 55, 0
18, 89370, Note_on_c, 12, 55, 92
18, 89390, Note_on_c, 12, 55, 0
18, 89400, Note_on_c, 12, 55, 90
18, 89420, Note_on_c, 12, 55, 0
18, 89430, Note_on_c, 12, 55, 90
18, 89450, Note_on_c, 12, 55, 0
18, 89460, Note_on_c, 12, 55, 90
18, 89480, Note_on_c, 12, 55, 0
18, 89490, Note_on_c, 12, 55, 90
18, 89510, Note_on_c, 12, 55, 0
18, 89520, Note_on_c, 12, 55, 88
18, 89540, Note_on_c, 12, 55, 0
18, 89550, Note_on_c, 12, 55, 88
18, 89570, Note_on_c, 12, 55, 0
18, 89580, Note_on_c, 12, 55, 90
18, 89600, Note_on_c, 12, 55, 0
18, 89610, Note_on_c, 12, 55, 90
18, 89630, Note_on_c, 12, 55, 0
18, 89640, Note_on_c, 12, 55, 88
18, 89660, Note_on_c, 12, 55, 0
18, 89670, Note_on_c, 12, 55, 87
18, 89690, Note_on_c, 12, 55, 0
18, 89700, Note_on_c, 12, 55, 87
18, 89720, Note_on_c, 12, 55, 0
18, 89730, Note_on_c, 12, 55, 86
18, 89750, Note_on_c, 12, 55, 0
18, 89760, Note_on_c, 12, 55, 86
18, 89780, Note_on_c, 12, 55, 0
18, 89790, Note_on_c, 12, 55, 86
18, 89810, Note_on_c, 12, 55, 0
18, 89820, Note_on_c, 12, 55, 87
18, 89840, Note_on_c, 12, 55, 0
18, 89850, Note_on_c, 12, 55, 89
18, 89870, Note_on_c, 12, 55, 0
18, 89880, Note_on_c, 12, 55, 90
18, 89900, Note_on_c, 12, 55, 0
18, 89910, Note_on_c, 12, 55, 90
18, 89930, Note_on_c, 12, 55, 0
18, 89940, Note_on_c, 12, 55, 90
18, 89960, Note_on_c, 12, 55, 0
18, 89970, Note_on_c, 12, 55, 89
18, 89990, Note_on_c, 12, 55, 0
18, 90000, Note_on_c, 12, 55, 85
18, 90020, Note_on_c, 12, 55, 0
18, 90030, Note_on_c, 12, 55, 87
18, 90050, Note_on_c, 12, 55, 0
18, 90060, Note_on_c, 12, 55, 87
18, 90080, Note_on_c, 12, 55, 0
18, 90090, Note_on_c, 12, 55, 88
18, 90110, Note_on_c, 12, 55, 0
18, 90120, Note_on_c, 12, 57, 89
18, 90140, Note_on_c, 12, 57, 0
18, 90150, Note_on_c, 12, 57, 90
18, 90170, Note_on_c, 12, 57, 0
18, 90180, Note_on_c, 12, 57, 90
18, 90200, Note_on_c, 12, 57, 0
18, 90210, Note_on_c, 12, 57, 90
18, 90230, Note_on_c, 12, 57, 0
18, 90240, Note_on_c, 12, 55, 90
18, 90260, Note_on_c, 12, 55, 0
18, 90270, Note_on_c, 12, 55, 90
18, 90290, Note_on_c, 12, 55, 0
18, 90300, Note_on_c, 12, 55, 90
18, 90320, Note_on_c, 12, 55, 0
18, 90330, Note_on_c, 12, 55, 90
18, 90350, Note_on_c, 12, 55, 0
18, 90360, Note_on_c, 12, 55, 90
18, 90380, Note_on_c, 12, 55, 0
18, 90390, Note_on_c, 12, 55, 90
18, 90410, Note_on_c, 12, 55, 0
18, 90420, Note_on_c, 12, 55, 90
18, 90440, Note_on_c, 12, 55, 0
18, 90450, Note_on_c, 12, 55, 90
18, 90470, Note_on_c, 12, 55, 0
18, 90480, Note_on_c, 12, 55, 89
18, 90500, Note_on_c, 12, 55, 0
18, 90510, Note_on_c, 12, 55, 89
18, 90530, Note_on_c, 12, 55, 0
18, 90540, Note_on_c, 12, 55, 89
18, 90560, Note_on_c, 12, 55, 0
18, 90570, Note_on_c, 12, 55, 89
18, 90590, Note_on_c, 12, 55, 0
18, 90600, Note_on_c, 12, 55, 89
18, 90620, Note_on_c, 12, 55, 0
18, 90630, Note_on_c, 12, 55, 90
18, 90650, Note_on_c, 12, 55, 0
18, 90660, Note_on_c, 12, 55, 95
18, 90680, Note_on_c, 12, 55, 0
18, 90690, Note_on_c, 12, 55, 96
18, 90710, Note_on_c, 12, 55, 0
18, 90720, Note_on_c, 12, 55, 97
18, 90740, Note_on_c, 12, 55, 0
18, 90750, Note_on_c, 12, 55, 98
18, 90770, Note_on_c, 12, 55, 0
18, 90780, Note_on_c, 12, 55, 99
18, 90800, Note_on_c, 12, 55, 0
18, 90810, Note_on_c, 12, 55, 99
18, 90830, Note_on_c, 12, 55, 0
18, 90840, Note_on_c, 12, 55, 99
18, 90860, Note_on_c, 12, 55, 0
18, 90870, Note_on_c, 12, 55, 99
18, 90890, Note_on_c, 12, 55, 0
18, 90900, Note_on_c, 12, 55, 99
18, 90920, Note_on_c, 12, 55, 0
18, 90930, Note_on_c, 12, 55, 99
18, 90950, Note_on_c, 12, 55, 0
18, 90960, Note_on_c, 12, 55, 97
18, 90980, Note_on_c, 12, 55, 0
18, 90990, Note_on_c, 12, 55, 97
18, 91010, Note_on_c, 12, 55, 0
18, 91020, Note_on_c, 12, 55, 96
18, 91040, Note_on_c, 12, 55, 0
18, 91050, Note_on_c, 12, 55, 94
18, 91070, Note_on_c, 12, 55, 0
18, 91080, Note_on_c, 12, 57, 94
18, 91100, Note_on_c, 12, 57, 0
18, 91110, Note_on_c, 12, 57, 94
18, 91130, Note_on_c, 12, 57, 0
18, 91140, Note_on_c, 12, 57, 95
18, 91160, Note_on_c, 12, 57, 0
18, 91170, Note_on_c, 12, 57, 95
18, 91190, Note_on_c, 12, 57, 0
18, 91200, Note_on_c, 12, 55, 96
18, 91245, Note_on_c, 12, 55, 0
18, 91260, Note_on_c, 12, 59, 103
18, 91305, Note_on_c, 12, 59, 0
18, 91320, Note_on_c, 12, 62, 103
18, 91365, Note_on_c, 12, 62, 0
18, 91380, Note_on_c, 12, 67, 103
18, 91425, Note_on_c, 12, 67, 0
18, 91440, Note_on_c, 12, 71, 103
18, 91485, Note_on_c, 12, 71, 0
18, 91500, Note_on_c, 12, 67, 103
18, 91545, Note_on_c, 12, 67, 0
18, 91560, Note_on_c, 12, 74, 103
18, 91605, Note_on_c, 12, 74, 0
18, 91620, Note_on_c, 12, 71, 103
18, 91665, Note_on_c, 12, 71, 0
18, 91683, Note_on_c, 12, 67, 103
18, 91783, Note_on_c, 12, 67, 0
18, 91803, Note_on_c, 12, 55, 103
18, 91863, Note_on_c, 12, 55, 0
18, 91893, Note_on_c, 12, 55, 103
18, 91908, Note_on_c, 12, 55, 0
18, 91923, Note_on_c, 12, 55, 103
18, 92043, Note_on_c, 12, 55, 0
18, 92043, End_track
19, 0, Start_track
19, 0, MIDI_port, 0
19, 0, Title_t, "Freely"
19, 0, Program_c, 13, 51
19, 0, Control_c, 13, 7, 111
19, 0, Control_c, 13, 10, 24
19, 0, Note_on_c, 13, 62, 85
19, 0, Note_on_c, 13, 79, 85
19, 0, Note_on_c, 13, 71, 85
19, 120, Note_on_c, 13, 71, 0
19, 120, Note_on_c, 13, 79, 0
19, 120, Note_on_c, 13, 62, 0
19, 180, Note_on_c, 13, 74, 85
19, 210, Note_on_c, 13, 74, 0
19, 240, Note_on_c, 13, 79, 85
19, 360, Note_on_c, 13, 79, 0
19, 420, Note_on_c, 13, 74, 85
19, 450, Note_on_c, 13, 74, 0
19, 480, Note_on_c, 13, 79, 85
19, 510, Note_on_c, 13, 79, 0
19, 540, Note_on_c, 13, 74, 85
19, 570, Note_on_c, 13, 74, 0
19, 600, Note_on_c, 13, 79, 85
19, 630, Note_on_c, 13, 79, 0
19, 660, Note_on_c, 13, 83, 85
19, 690, Note_on_c, 13, 83, 0
19, 720, Note_on_c, 13, 86, 85
19, 840, Note_on_c, 13, 86, 0
19, 960, Note_on_c, 13, 84, 85
19, 1080, Note_on_c, 13, 84, 0
19, 1140, Note_on_c, 13, 81, 82
19, 1170, Note_on_c, 13, 81, 0
19, 1200, Note_on_c, 13, 84, 85
19, 1320, Note_on_c, 13, 84, 0
19, 1380, Note_on_c, 13, 81, 79
19, 1410, Note_on_c, 13, 81, 0
19, 1440, Note_on_c, 13, 84, 85
19, 1470, Note_on_c, 13, 84, 0
19, 1500, Note_on_c, 13, 81, 80
19, 1530, Note_on_c, 13, 81, 0
19, 1560, Note_on_c, 13, 78, 85
19, 1590, Note_on_c, 13, 78, 0
19, 1620, Note_on_c, 13, 81, 77
19, 1650, Note_on_c, 13, 81, 0
19, 1680, Note_on_c, 13, 74, 85
19, 1800, Note_on_c, 13, 74, 0
19, 1920, Note_on_c, 13, 62, 85
19, 1920, Note_on_c, 13, 79, 85
19, 1920, Note_on_c, 13, 71, 85
19, 1980, Note_on_c, 13, 71, 0
19, 1980, Note_on_c, 13, 79, 0
19, 1980, Note_on_c, 13, 62, 0
19, 2040, Note_on_c, 13, 79, 85
19, 2220, Note_on_c, 13, 79, 0
19, 2220, Note_on_c, 13, 83, 89
19, 2280, Note_on_c, 13, 83, 0
19, 2280, Note_on_c, 13, 81, 94
19, 2310, Note_on_c, 13, 81, 0
19, 2340, Note_on_c, 13, 79, 97
19, 2370, Note_on_c, 13, 79, 0
19, 2400, Note_on_c, 13, 79, 95
19, 2415, Note_on_c, 13, 79, 0
19, 2415, Note_on_c, 13, 81, 95
19, 2430, Note_on_c, 13, 81, 0
19, 2430, Note_on_c, 13, 79, 95
19, 2445, Note_on_c, 13, 79, 0
19, 2445, Note_on_c, 13, 81, 94
19, 2460, Note_on_c, 13, 81, 0
19, 2460, Note_on_c, 13, 78, 94
19, 2510, Note_on_c, 13, 78, 0
19, 2520, Note_on_c, 13, 78, 88
19, 2700, Note_on_c, 13, 78, 0
19, 2700, Note_on_c, 13, 81, 85
19, 2760, Note_on_c, 13, 81, 0
19, 2760, Note_on_c, 13, 84, 85
19, 2790, Note_on_c, 13, 84, 0
19, 2820, Note_on_c, 13, 78, 85
19, 2850, Note_on_c, 13, 78, 0
19, 2880, Note_on_c, 13, 81, 85
19, 2940, Note_on_c, 13, 81, 0
19, 2940, Note_on_c, 13, 79, 85
19, 2970, Note_on_c, 13, 79, 0
19, 3000, Note_on_c, 13, 79, 85
19, 3180, Note_on_c, 13, 79, 0
19, 3180, Note_on_c, 13, 83, 86
19, 3240, Note_on_c, 13, 83, 0
19, 3240, Note_on_c, 13, 81, 86
19, 3270, Note_on_c, 13, 81, 0
19, 3300, Note_on_c, 13, 79, 89
19, 3330, Note_on_c, 13, 79, 0
19, 3360, Note_on_c, 13, 79, 91
19, 3375, Note_on_c, 13, 79, 0
19, 3375, Note_on_c, 13, 81, 91
19, 3390, Note_on_c, 13, 81, 0
19, 3390, Note_on_c, 13, 79, 92
19, 3405, Note_on_c, 13, 79, 0
19, 3405, Note_on_c, 13, 81, 94
19, 3420, Note_on_c, 13, 81, 0
19, 3420, Note_on_c, 13, 78, 94
19, 3470, Note_on_c, 13, 78, 0
19, 3480, Note_on_c, 13, 78, 94
19, 3660, Note_on_c, 13, 78, 0
19, 3660, Note_on_c, 13, 81, 85
19, 3720, Note_on_c, 13, 81, 0
19, 3720, Note_on_c, 13, 84, 85
19, 3750, Note_on_c, 13, 84, 0
19, 3780, Note_on_c, 13, 78, 85
19, 3810, Note_on_c, 13, 78, 0
19, 3840, Note_on_c, 13, 79, 85
19, 3870, Note_on_c, 13, 79, 0
19, 3900, Note_on_c, 13, 79, 85
19, 3930, Note_on_c, 13, 79, 0
19, 3960, Note_on_c, 13, 79, 85
19, 3990, Note_on_c, 13, 79, 0
19, 3990, Note_on_c, 13, 78, 85
19, 4020, Note_on_c, 13, 78, 0
19, 4020, Note_on_c, 13, 76, 85
19, 4050, Note_on_c, 13, 76, 0
19, 4050, Note_on_c, 13, 78, 85
19, 4080, Note_on_c, 13, 78, 0
19, 4080, Note_on_c, 13, 79, 85
19, 4110, Note_on_c, 13, 79, 0
19, 4140, Note_on_c, 13, 79, 85
19, 4170, Note_on_c, 13, 79, 0
19, 4200, Note_on_c, 13, 83, 85
19, 4230, Note_on_c, 13, 83, 0
19, 4230, Note_on_c, 13, 81, 85
19, 4260, Note_on_c, 13, 81, 0
19, 4260, Note_on_c, 13, 79, 85
19, 4290, Note_on_c, 13, 79, 0
19, 4290, Note_on_c, 13, 81, 85
19, 4320, Note_on_c, 13, 81, 0
19, 4320, Note_on_c, 13, 83, 86
19, 4350, Note_on_c, 13, 83, 0
19, 4380, Note_on_c, 13, 83, 86
19, 4410, Note_on_c, 13, 83, 0
19, 4440, Note_on_c, 13, 86, 83
19, 4470, Note_on_c, 13, 86, 0
19, 4470, Note_on_c, 13, 84, 80
19, 4500, Note_on_c, 13, 84, 0
19, 4500, Note_on_c, 13, 83, 80
19, 4530, Note_on_c, 13, 83, 0
19, 4530, Note_on_c, 13, 84, 79
19, 4560, Note_on_c, 13, 84, 0
19, 4560, Note_on_c, 13, 86, 76
19, 4680, Note_on_c, 13, 86, 0
19, 4800, Note_on_c, 13, 74, 41
19, 5040, Note_on_c, 13, 74, 0
19, 5040, Note_on_c, 13, 76, 47
19, 5280, Note_on_c, 13, 76, 0
19, 5280, Note_on_c, 13, 74, 47
19, 5310, Note_on_c, 13, 74, 0
19, 5310, Note_on_c, 13, 72, 47
19, 5390, Note_on_c, 13, 72, 0
19, 5400, Note_on_c, 13, 72, 47
19, 5520, Note_on_c, 13, 72, 0
19, 5520, Note_on_c, 13, 72, 47
19, 5550, Note_on_c, 13, 72, 0
19, 5550, Note_on_c, 13, 71, 47
19, 5630, Note_on_c, 13, 71, 0
19, 5640, Note_on_c, 13, 71, 47
19, 5760, Note_on_c, 13, 71, 0
19, 5760, Note_on_c, 13, 71, 47
19, 5790, Note_on_c, 13, 71, 0
19, 5790, Note_on_c, 13, 69, 47
19, 5870, Note_on_c, 13, 69, 0
19, 5880, Note_on_c, 13, 69, 47
19, 6000, Note_on_c, 13, 69, 0
19, 6000, Note_on_c, 13, 67, 47
19, 6060, Note_on_c, 13, 67, 0
19, 6060, Note_on_c, 13, 66, 47
19, 6090, Note_on_c, 13, 66, 0
19, 6120, Note_on_c, 13, 64, 47
19, 6150, Note_on_c, 13, 64, 0
19, 6180, Note_on_c, 13, 66, 47
19, 6210, Note_on_c, 13, 66, 0
19, 6240, Note_on_c, 13, 67, 47
19, 6300, Note_on_c, 13, 67, 0
19, 6360, Note_on_c, 13, 69, 47
19, 6420, Note_on_c, 13, 69, 0
19, 6480, Note_on_c, 13, 71, 47
19, 6540, Note_on_c, 13, 71, 0
19, 6720, Note_on_c, 13, 74, 47
19, 6960, Note_on_c, 13, 74, 0
19, 6960, Note_on_c, 13, 76, 47
19, 7200, Note_on_c, 13, 76, 0
19, 7200, Note_on_c, 13, 74, 47
19, 7260, Note_on_c, 13, 74, 0
19, 7260, Note_on_c, 13, 72, 47
19, 7290, Note_on_c, 13, 72, 0
19, 7320, Note_on_c, 13, 72, 47
19, 7350, Note_on_c, 13, 72, 0
19, 7380, Note_on_c, 13, 72, 47
19, 7410, Note_on_c, 13, 72, 0
19, 7440, Note_on_c, 13, 72, 47
19, 7500, Note_on_c, 13, 72, 0
19, 7500, Note_on_c, 13, 71, 47
19, 7530, Note_on_c, 13, 71, 0
19, 7560, Note_on_c, 13, 71, 47
19, 7590, Note_on_c, 13, 71, 0
19, 7620, Note_on_c, 13, 71, 47
19, 7650, Note_on_c, 13, 71, 0
19, 7680, Note_on_c, 13, 71, 47
19, 7740, Note_on_c, 13, 71, 0
19, 7740, Note_on_c, 13, 69, 47
19, 7770, Note_on_c, 13, 69, 0
19, 7800, Note_on_c, 13, 69, 47
19, 7845, Note_on_c, 13, 69, 0
19, 7860, Note_on_c, 13, 69, 47
19, 7905, Note_on_c, 13, 69, 0
19, 7920, Note_on_c, 13, 67, 47
19, 7980, Note_on_c, 13, 67, 0
19, 7980, Note_on_c, 13, 66, 47
19, 8040, Note_on_c, 13, 66, 0
19, 8040, Note_on_c, 13, 64, 47
19, 8100, Note_on_c, 13, 64, 0
19, 8100, Note_on_c, 13, 66, 47
19, 8160, Note_on_c, 13, 66, 0
19, 8160, Note_on_c, 13, 55, 85
19, 8160, Note_on_c, 13, 67, 85
19, 8460, Note_on_c, 13, 67, 0
19, 8460, Note_on_c, 13, 55, 0
19, 8460, Note_on_c, 13, 67, 61
19, 8475, Note_on_c, 13, 67, 0
19, 8475, Note_on_c, 13, 69, 61
19, 8490, Note_on_c, 13, 69, 0
19, 8490, Note_on_c, 13, 66, 61
19, 8505, Note_on_c, 13, 66, 0
19, 8505, Note_on_c, 13, 67, 61
19, 8520, Note_on_c, 13, 67, 0
19, 8520, Note_on_c, 13, 69, 61
19, 8580, Note_on_c, 13, 69, 0
19, 8580, Note_on_c, 13, 66, 61
19, 8640, Note_on_c, 13, 66, 0
19, 8640, Note_on_c, 13, 71, 85
19, 8940, Note_on_c, 13, 71, 0
19, 8940, Note_on_c, 13, 71, 61
19, 8955, Note_on_c, 13, 71, 0
19, 8955, Note_on_c, 13, 72, 61
19, 8970, Note_on_c, 13, 72, 0
19, 8970, Note_on_c, 13, 69, 61
19, 8985, Note_on_c, 13, 69, 0
19, 8985, Note_on_c, 13, 71, 61
19, 9000, Note_on_c, 13, 71, 0
19, 9000, Note_on_c, 13, 72, 61
19, 9060, Note_on_c, 13, 72, 0
19, 9060, Note_on_c, 13, 69, 61
19, 9120, Note_on_c, 13, 69, 0
19, 9120, Note_on_c, 13, 74, 46
19, 9140, Note_on_c, 13, 74, 0
19, 9150, Note_on_c, 13, 74, 46
19, 9170, Note_on_c, 13, 74, 0
19, 9180, Note_on_c, 13, 74, 47
19, 9200, Note_on_c, 13, 74, 0
19, 9210, Note_on_c, 13, 74, 47
19, 9230, Note_on_c, 13, 74, 0
19, 9240, Note_on_c, 13, 74, 49
19, 9260, Note_on_c, 13, 74, 0
19, 9270, Note_on_c, 13, 74, 50
19, 9290, Note_on_c, 13, 74, 0
19, 9300, Note_on_c, 13, 74, 50
19, 9320, Note_on_c, 13, 74, 0
19, 9330, Note_on_c, 13, 74, 52
19, 9350, Note_on_c, 13, 74, 0
19, 9360, Note_on_c, 13, 76, 53
19, 9380, Note_on_c, 13, 76, 0
19, 9390, Note_on_c, 13, 76, 53
19, 9410, Note_on_c, 13, 76, 0
19, 9420, Note_on_c, 13, 76, 55
19, 9440, Note_on_c, 13, 76, 0
19, 9450, Note_on_c, 13, 76, 56
19, 9470, Note_on_c, 13, 76, 0
19, 9480, Note_on_c, 13, 78, 56
19, 9500, Note_on_c, 13, 78, 0
19, 9510, Note_on_c, 13, 78, 58
19, 9530, Note_on_c, 13, 78, 0
19, 9540, Note_on_c, 13, 78, 58
19, 9560, Note_on_c, 13, 78, 0
19, 9570, Note_on_c, 13, 78, 59
19, 9590, Note_on_c, 13, 78, 0
19, 9600, Note_on_c, 13, 79, 61
19, 9620, Note_on_c, 13, 79, 0
19, 9630, Note_on_c, 13, 79, 61
19, 9650, Note_on_c, 13, 79, 0
19, 9660, Note_on_c, 13, 79, 62
19, 9680, Note_on_c, 13, 79, 0
19, 9690, Note_on_c, 13, 79, 64
19, 9710, Note_on_c, 13, 79, 0
19, 9720, Note_on_c, 13, 81, 64
19, 9740, Note_on_c, 13, 81, 0
19, 9750, Note_on_c, 13, 81, 65
19, 9770, Note_on_c, 13, 81, 0
19, 9780, Note_on_c, 13, 81, 67
19, 9800, Note_on_c, 13, 81, 0
19, 9810, Note_on_c, 13, 81, 67
19, 9830, Note_on_c, 13, 81, 0
19, 9840, Note_on_c, 13, 83, 68
19, 9860, Note_on_c, 13, 83, 0
19, 9870, Note_on_c, 13, 83, 68
19, 9890, Note_on_c, 13, 83, 0
19, 9900, Note_on_c, 13, 83, 70
19, 9920, Note_on_c, 13, 83, 0
19, 9930, Note_on_c, 13, 83, 71
19, 9950, Note_on_c, 13, 83, 0
19, 9960, Note_on_c, 13, 85, 71
19, 9980, Note_on_c, 13, 85, 0
19, 9990, Note_on_c, 13, 85, 73
19, 10010, Note_on_c, 13, 85, 0
19, 10020, Note_on_c, 13, 85, 74
19, 10040, Note_on_c, 13, 85, 0
19, 10050, Note_on_c, 13, 85, 74
19, 10070, Note_on_c, 13, 85, 0
19, 10080, Note_on_c, 13, 86, 85
19, 10260, Note_on_c, 13, 86, 0
19, 10260, Note_on_c, 13, 81, 85
19, 10320, Note_on_c, 13, 81, 0
19, 10320, Note_on_c, 13, 85, 94
19, 10410, Note_on_c, 13, 85, 0
19, 10410, Note_on_c, 13, 81, 85
19, 10440, Note_on_c, 13, 81, 0
19, 10440, Note_on_c, 13, 85, 85
19, 10530, Note_on_c, 13, 85, 0
19, 10530, Note_on_c, 13, 81, 85
19, 10560, Note_on_c, 13, 81, 0
19, 10560, Note_on_c, 13, 86, 85
19, 10740, Note_on_c, 13, 86, 0
19, 10740, Note_on_c, 13, 81, 85
19, 10800, Note_on_c, 13, 81, 0
19, 10800, Note_on_c, 13, 85, 85
19, 10890, Note_on_c, 13, 85, 0
19, 10890, Note_on_c, 13, 81, 85
19, 10920, Note_on_c, 13, 81, 0
19, 10920, Note_on_c, 13, 85, 85
19, 11010, Note_on_c, 13, 85, 0
19, 11010, Note_on_c, 13, 81, 85
19, 11040, Note_on_c, 13, 81, 0
19, 11040, Note_on_c, 13, 86, 85
19, 11070, Note_on_c, 13, 86, 0
19, 11100, Note_on_c, 13, 78, 85
19, 11100, Note_on_c, 13, 86, 85
19, 11190, Note_on_c, 13, 86, 0
19, 11190, Note_on_c, 13, 78, 0
19, 11220, Note_on_c, 13, 78, 85
19, 11220, Note_on_c, 13, 86, 85
19, 11310, Note_on_c, 13, 86, 0
19, 11310, Note_on_c, 13, 78, 0
19, 11340, Note_on_c, 13, 78, 85
19, 11340, Note_on_c, 13, 86, 85
19, 11430, Note_on_c, 13, 86, 0
19, 11430, Note_on_c, 13, 78, 0
19, 11460, Note_on_c, 13, 78, 85
19, 11460, Note_on_c, 13, 86, 85
19, 11520, Note_on_c, 13, 78, 0
19, 11520, Note_on_c, 13, 76, 85
19, 11550, Note_on_c, 13, 76, 0
19, 11550, Note_on_c, 13, 86, 0
19, 11580, Note_on_c, 13, 76, 85
19, 11580, Note_on_c, 13, 86, 85
19, 11670, Note_on_c, 13, 86, 0
19, 11670, Note_on_c, 13, 76, 0
19, 11700, Note_on_c, 13, 76, 85
19, 11700, Note_on_c, 13, 86, 85
19, 11790, Note_on_c, 13, 86, 0
19, 11790, Note_on_c, 13, 76, 0
19, 11820, Note_on_c, 13, 76, 85
19, 11820, Note_on_c, 13, 86, 85
19, 11910, Note_on_c, 13, 86, 0
19, 11910, Note_on_c, 13, 76, 0
19, 11940, Note_on_c, 13, 76, 85
19, 11940, Note_on_c, 13, 86, 85
19, 12000, Note_on_c, 13, 86, 0
19, 12000, Note_on_c, 13, 76, 0
19, 12000, Note_on_c, 13, 76, 92
19, 12000, Note_on_c, 13, 85, 92
19, 12045, Note_on_c, 13, 85, 0
19, 12045, Note_on_c, 13, 76, 0
19, 12060, Note_on_c, 13, 81, 85
19, 12105, Note_on_c, 13, 81, 0
19, 12120, Note_on_c, 13, 86, 85
19, 12165, Note_on_c, 13, 86, 0
19, 12180, Note_on_c, 13, 81, 85
19, 12225, Note_on_c, 13, 81, 0
19, 12240, Note_on_c, 13, 85, 85
19, 12285, Note_on_c, 13, 85, 0
19, 12300, Note_on_c, 13, 81, 85
19, 12345, Note_on_c, 13, 81, 0
19, 12360, Note_on_c, 13, 86, 85
19, 12405, Note_on_c, 13, 86, 0
19, 12420, Note_on_c, 13, 81, 85
19, 12465, Note_on_c, 13, 81, 0
19, 12480, Note_on_c, 13, 85, 94
19, 12525, Note_on_c, 13, 85, 0
19, 12540, Note_on_c, 13, 69, 85
19, 12585, Note_on_c, 13, 69, 0
19, 12600, Note_on_c, 13, 69, 85
19, 12645, Note_on_c, 13, 69, 0
19, 12660, Note_on_c, 13, 69, 85
19, 12705, Note_on_c, 13, 69, 0
19, 12720, Note_on_c, 13, 69, 85
19, 12840, Note_on_c, 13, 69, 0
19, 12950, Control_c, 13, 11, 77
19, 12960, Note_on_c, 13, 81, 55
19, 12964, Control_c, 13, 11, 80
19, 12966, Control_c, 13, 11, 82
19, 12970, Control_c, 13, 11, 83
19, 12974, Control_c, 13, 11, 85
19, 12978, Control_c, 13, 11, 87
19, 12994, Control_c, 13, 11, 93
19, 12998, Control_c, 13, 11, 101
19, 13010, Control_c, 13, 11, 107
19, 13022, Control_c, 13, 11, 113
19, 13034, Control_c, 13, 11, 115
19, 13038, Control_c, 13, 11, 117
19, 13042, Control_c, 13, 11, 118
19, 13044, Control_c, 13, 11, 119
19, 13048, Control_c, 13, 11, 120
19, 13052, Control_c, 13, 11, 121
19, 13056, Control_c, 13, 11, 122
19, 13058, Control_c, 13, 11, 123
19, 13060, Control_c, 13, 11, 124
19, 13064, Control_c, 13, 11, 127
19, 13140, Note_on_c, 13, 81, 0
19, 13140, Note_on_c, 13, 79, 55
19, 13160, Note_on_c, 13, 79, 0
19, 13160, Note_on_c, 13, 78, 55
19, 13180, Note_on_c, 13, 78, 0
19, 13180, Note_on_c, 13, 76, 55
19, 13200, Note_on_c, 13, 76, 0
19, 13200, Note_on_c, 13, 74, 55
19, 13260, Note_on_c, 13, 74, 0
19, 13320, Note_on_c, 13, 83, 55
19, 13380, Note_on_c, 13, 83, 0
19, 13440, Note_on_c, 13, 79, 55
19, 13500, Note_on_c, 13, 79, 0
19, 13560, Note_on_c, 13, 76, 55
19, 13620, Note_on_c, 13, 76, 0
19, 13680, Note_on_c, 13, 81, 55
19, 13740, Note_on_c, 13, 81, 0
19, 13920, Note_on_c, 13, 78, 55
19, 14100, Note_on_c, 13, 78, 0
19, 14100, Note_on_c, 13, 76, 55
19, 14120, Note_on_c, 13, 76, 0
19, 14120, Note_on_c, 13, 74, 55
19, 14140, Note_on_c, 13, 74, 0
19, 14140, Note_on_c, 13, 73, 55
19, 14160, Note_on_c, 13, 73, 0
19, 14160, Note_on_c, 13, 71, 55
19, 14220, Note_on_c, 13, 71, 0
19, 14280, Note_on_c, 13, 79, 55
19, 14340, Note_on_c, 13, 79, 0
19, 14400, Note_on_c, 13, 78, 55
19, 14640, Note_on_c, 13, 78, 0
19, 14640, Note_on_c, 13, 76, 49
19, 14760, Note_on_c, 13, 76, 0
19, 14940, Note_on_c, 13, 81, 55
19, 14970, Note_on_c, 13, 81, 0
19, 15000, Note_on_c, 13, 81, 55
19, 15030, Note_on_c, 13, 81, 0
19, 15060, Note_on_c, 13, 81, 55
19, 15090, Note_on_c, 13, 81, 0
19, 15120, Note_on_c, 13, 81, 55
19, 15150, Note_on_c, 13, 81, 0
19, 15180, Note_on_c, 13, 81, 55
19, 15210, Note_on_c, 13, 81, 0
19, 15240, Note_on_c, 13, 81, 55
19, 15270, Note_on_c, 13, 81, 0
19, 15300, Note_on_c, 13, 81, 55
19, 15330, Note_on_c, 13, 81, 0
19, 15360, Note_on_c, 13, 81, 55
19, 15390, Note_on_c, 13, 81, 0
19, 15420, Note_on_c, 13, 81, 55
19, 15450, Note_on_c, 13, 81, 0
19, 15480, Note_on_c, 13, 81, 55
19, 15510, Note_on_c, 13, 81, 0
19, 15540, Note_on_c, 13, 81, 55
19, 15570, Note_on_c, 13, 81, 0
19, 15600, Note_on_c, 13, 81, 55
19, 15630, Note_on_c, 13, 81, 0
19, 15660, Note_on_c, 13, 81, 55
19, 15690, Note_on_c, 13, 81, 0
19, 15720, Note_on_c, 13, 83, 55
19, 15750, Note_on_c, 13, 83, 0
19, 15780, Note_on_c, 13, 85, 55
19, 15810, Note_on_c, 13, 85, 0
19, 15840, Note_on_c, 13, 85, 55
19, 15900, Note_on_c, 13, 85, 0
19, 15900, Note_on_c, 13, 86, 55
19, 15960, Note_on_c, 13, 86, 0
19, 16020, Note_on_c, 13, 83, 55
19, 16050, Note_on_c, 13, 83, 0
19, 16080, Note_on_c, 13, 83, 55
19, 16140, Note_on_c, 13, 83, 0
19, 16140, Note_on_c, 13, 81, 55
19, 16200, Note_on_c, 13, 81, 0
19, 16260, Note_on_c, 13, 73, 55
19, 16305, Note_on_c, 13, 73, 0
19, 16320, Note_on_c, 13, 74, 55
19, 16440, Note_on_c, 13, 74, 0
19, 16500, Note_on_c, 13, 81, 55
19, 16530, Note_on_c, 13, 81, 0
19, 16560, Note_on_c, 13, 86, 55
19, 16620, Note_on_c, 13, 86, 0
19, 16620, Note_on_c, 13, 85, 55
19, 16680, Note_on_c, 13, 85, 0
19, 16680, Note_on_c, 13, 83, 55
19, 16740, Note_on_c, 13, 83, 0
19, 16740, Note_on_c, 13, 81, 55
19, 16800, Note_on_c, 13, 81, 0
19, 16800, Note_on_c, 13, 83, 55
19, 16815, Note_on_c, 13, 83, 0
19, 16815, Note_on_c, 13, 85, 55
19, 16830, Note_on_c, 13, 85, 0
19, 16830, Note_on_c, 13, 83, 55
19, 16845, Note_on_c, 13, 83, 0
19, 16845, Note_on_c, 13, 85, 55
19, 16860, Note_on_c, 13, 85, 0
19, 16860, Note_on_c, 13, 81, 55
19, 16920, Note_on_c, 13, 81, 0
19, 16980, Note_on_c, 13, 81, 55
19, 17010, Note_on_c, 13, 81, 0
19, 17040, Note_on_c, 13, 81, 55
19, 17070, Note_on_c, 13, 81, 0
19, 17100, Note_on_c, 13, 81, 55
19, 17130, Note_on_c, 13, 81, 0
19, 17160, Note_on_c, 13, 81, 55
19, 17190, Note_on_c, 13, 81, 0
19, 17220, Note_on_c, 13, 81, 55
19, 17250, Note_on_c, 13, 81, 0
19, 17280, Note_on_c, 13, 83, 55
19, 17295, Note_on_c, 13, 83, 0
19, 17295, Note_on_c, 13, 85, 55
19, 17310, Note_on_c, 13, 85, 0
19, 17310, Note_on_c, 13, 83, 55
19, 17325, Note_on_c, 13, 83, 0
19, 17325, Note_on_c, 13, 85, 55
19, 17340, Note_on_c, 13, 85, 0
19, 17340, Note_on_c, 13, 81, 55
19, 17400, Note_on_c, 13, 81, 0
19, 17460, Note_on_c, 13, 81, 55
19, 17505, Note_on_c, 13, 81, 0
19, 17520, Note_on_c, 13, 86, 55
19, 17580, Note_on_c, 13, 86, 0
19, 17580, Note_on_c, 13, 85, 55
19, 17640, Note_on_c, 13, 85, 0
19, 17640, Note_on_c, 13, 83, 55
19, 17700, Note_on_c, 13, 83, 0
19, 17700, Note_on_c, 13, 81, 55
19, 17760, Note_on_c, 13, 81, 0
19, 17760, Note_on_c, 13, 83, 55
19, 17775, Note_on_c, 13, 83, 0
19, 17775, Note_on_c, 13, 85, 55
19, 17790, Note_on_c, 13, 85, 0
19, 17790, Note_on_c, 13, 83, 55
19, 17805, Note_on_c, 13, 83, 0
19, 17805, Note_on_c, 13, 85, 55
19, 17820, Note_on_c, 13, 85, 0
19, 17820, Note_on_c, 13, 81, 55
19, 17880, Note_on_c, 13, 81, 0
19, 17940, Note_on_c, 13, 81, 55
19, 17970, Note_on_c, 13, 81, 0
19, 18000, Note_on_c, 13, 81, 55
19, 18030, Note_on_c, 13, 81, 0
19, 18060, Note_on_c, 13, 81, 55
19, 18090, Note_on_c, 13, 81, 0
19, 18120, Note_on_c, 13, 81, 55
19, 18150, Note_on_c, 13, 81, 0
19, 18180, Note_on_c, 13, 81, 53
19, 18210, Note_on_c, 13, 81, 0
19, 18240, Note_on_c, 13, 83, 49
19, 18255, Note_on_c, 13, 83, 0
19, 18255, Note_on_c, 13, 85, 49
19, 18270, Note_on_c, 13, 85, 0
19, 18270, Note_on_c, 13, 83, 47
19, 18285, Note_on_c, 13, 83, 0
19, 18285, Note_on_c, 13, 85, 47
19, 18300, Note_on_c, 13, 85, 0
19, 18300, Note_on_c, 13, 81, 46
19, 18360, Note_on_c, 13, 81, 0
19, 18480, Note_on_c, 13, 71, 91
19, 18480, Note_on_c, 13, 83, 91
19, 18650, Note_on_c, 13, 83, 0
19, 18650, Note_on_c, 13, 71, 0
19, 18660, Note_on_c, 13, 81, 89
19, 18680, Note_on_c, 13, 81, 0
19, 18680, Note_on_c, 13, 79, 92
19, 18700, Note_on_c, 13, 79, 0
19, 18700, Note_on_c, 13, 78, 94
19, 18720, Note_on_c, 13, 78, 0
19, 18720, Note_on_c, 13, 79, 97
19, 18840, Note_on_c, 13, 79, 0
19, 18960, Note_on_c, 13, 81, 85
19, 18960, Note_on_c, 13, 69, 85
19, 19130, Note_on_c, 13, 69, 0
19, 19130, Note_on_c, 13, 81, 0
19, 19140, Note_on_c, 13, 79, 86
19, 19160, Note_on_c, 13, 79, 0
19, 19160, Note_on_c, 13, 78, 86
19, 19180, Note_on_c, 13, 78, 0
19, 19180, Note_on_c, 13, 76, 89
19, 19200, Note_on_c, 13, 76, 0
19, 19200, Note_on_c, 13, 78, 92
19, 19320, Note_on_c, 13, 78, 0
19, 19440, Note_on_c, 13, 83, 85
19, 19500, Note_on_c, 13, 83, 0
19, 19500, Note_on_c, 13, 85, 85
19, 19530, Note_on_c, 13, 85, 0
19, 19530, Note_on_c, 13, 86, 89
19, 19560, Note_on_c, 13, 86, 0
19, 19560, Note_on_c, 13, 85, 94
19, 19605, Note_on_c, 13, 85, 0
19, 19620, Note_on_c, 13, 83, 95
19, 19650, Note_on_c, 13, 83, 0
19, 19680, Note_on_c, 13, 83, 97
19, 19740, Note_on_c, 13, 83, 0
19, 19740, Note_on_c, 13, 81, 101
19, 19785, Note_on_c, 13, 81, 0
19, 19800, Note_on_c, 13, 78, 104
19, 19830, Note_on_c, 13, 78, 0
19, 19860, Note_on_c, 13, 81, 104
19, 19890, Note_on_c, 13, 81, 0
19, 19920, Note_on_c, 13, 81, 104
19, 19980, Note_on_c, 13, 81, 0
19, 19980, Note_on_c, 13, 79, 103
19, 20025, Note_on_c, 13, 79, 0
19, 20040, Note_on_c, 13, 78, 98
19, 20070, Note_on_c, 13, 78, 0
19, 20100, Note_on_c, 13, 76, 89
19, 20130, Note_on_c, 13, 76, 0
19, 20160, Note_on_c, 13, 74, 85
19, 20280, Note_on_c, 13, 74, 0
19, 20340, Note_on_c, 13, 81, 53
19, 20370, Note_on_c, 13, 81, 0
19, 20400, Note_on_c, 13, 86, 53
19, 20460, Note_on_c, 13, 86, 0
19, 20460, Note_on_c, 13, 85, 53
19, 20520, Note_on_c, 13, 85, 0
19, 20520, Note_on_c, 13, 83, 53
19, 20580, Note_on_c, 13, 83, 0
19, 20580, Note_on_c, 13, 81, 53
19, 20640, Note_on_c, 13, 81, 0
19, 20640, Note_on_c, 13, 83, 55
19, 20655, Note_on_c, 13, 83, 0
19, 20655, Note_on_c, 13, 85, 55
19, 20670, Note_on_c, 13, 85, 0
19, 20670, Note_on_c, 13, 83, 55
19, 20685, Note_on_c, 13, 83, 0
19, 20685, Note_on_c, 13, 85, 55
19, 20700, Note_on_c, 13, 85, 0
19, 20700, Note_on_c, 13, 81, 55
19, 20760, Note_on_c, 13, 81, 0
19, 20820, Note_on_c, 13, 81, 55
19, 20850, Note_on_c, 13, 81, 0
19, 20880, Note_on_c, 13, 81, 55
19, 20910, Note_on_c, 13, 81, 0
19, 20940, Note_on_c, 13, 81, 55
19, 20970, Note_on_c, 13, 81, 0
19, 21000, Note_on_c, 13, 81, 55
19, 21030, Note_on_c, 13, 81, 0
19, 21060, Note_on_c, 13, 81, 55
19, 21090, Note_on_c, 13, 81, 0
19, 21120, Note_on_c, 13, 83, 55
19, 21135, Note_on_c, 13, 83, 0
19, 21135, Note_on_c, 13, 85, 55
19, 21150, Note_on_c, 13, 85, 0
19, 21150, Note_on_c, 13, 83, 55
19, 21165, Note_on_c, 13, 83, 0
19, 21165, Note_on_c, 13, 85, 55
19, 21180, Note_on_c, 13, 85, 0
19, 21180, Note_on_c, 13, 81, 55
19, 21240, Note_on_c, 13, 81, 0
19, 21300, Note_on_c, 13, 81, 55
19, 21345, Note_on_c, 13, 81, 0
19, 21360, Note_on_c, 13, 86, 55
19, 21420, Note_on_c, 13, 86, 0
19, 21420, Note_on_c, 13, 85, 55
19, 21480, Note_on_c, 13, 85, 0
19, 21480, Note_on_c, 13, 83, 55
19, 21540, Note_on_c, 13, 83, 0
19, 21540, Note_on_c, 13, 81, 55
19, 21600, Note_on_c, 13, 81, 0
19, 21600, Note_on_c, 13, 83, 55
19, 21615, Note_on_c, 13, 83, 0
19, 21615, Note_on_c, 13, 85, 55
19, 21630, Note_on_c, 13, 85, 0
19, 21630, Note_on_c, 13, 83, 55
19, 21645, Note_on_c, 13, 83, 0
19, 21645, Note_on_c, 13, 85, 55
19, 21660, Note_on_c, 13, 85, 0
19, 21660, Note_on_c, 13, 81, 55
19, 21720, Note_on_c, 13, 81, 0
19, 21780, Note_on_c, 13, 81, 55
19, 21810, Note_on_c, 13, 81, 0
19, 21840, Note_on_c, 13, 81, 55
19, 21870, Note_on_c, 13, 81, 0
19, 21900, Note_on_c, 13, 81, 55
19, 21930, Note_on_c, 13, 81, 0
19, 21960, Note_on_c, 13, 81, 55
19, 21990, Note_on_c, 13, 81, 0
19, 22020, Note_on_c, 13, 81, 55
19, 22050, Note_on_c, 13, 81, 0
19, 22080, Note_on_c, 13, 83, 59
19, 22095, Note_on_c, 13, 83, 0
19, 22095, Note_on_c, 13, 85, 59
19, 22110, Note_on_c, 13, 85, 0
19, 22110, Note_on_c, 13, 83, 59
19, 22125, Note_on_c, 13, 83, 0
19, 22125, Note_on_c, 13, 85, 59
19, 22140, Note_on_c, 13, 85, 0
19, 22140, Note_on_c, 13, 81, 59
19, 22200, Note_on_c, 13, 81, 0
19, 22320, Note_on_c, 13, 71, 85
19, 22320, Note_on_c, 13, 83, 85
19, 22490, Note_on_c, 13, 83, 0
19, 22490, Note_on_c, 13, 71, 0
19, 22500, Note_on_c, 13, 81, 85
19, 22520, Note_on_c, 13, 81, 0
19, 22520, Note_on_c, 13, 79, 85
19, 22540, Note_on_c, 13, 79, 0
19, 22540, Note_on_c, 13, 78, 85
19, 22560, Note_on_c, 13, 78, 0
19, 22560, Note_on_c, 13, 79, 85
19, 22680, Note_on_c, 13, 79, 0
19, 22800, Note_on_c, 13, 81, 85
19, 22800, Note_on_c, 13, 69, 85
19, 22970, Note_on_c, 13, 69, 0
19, 22970, Note_on_c, 13, 81, 0
19, 22980, Note_on_c, 13, 79, 85
19, 23000, Note_on_c, 13, 79, 0
19, 23000, Note_on_c, 13, 78, 85
19, 23020, Note_on_c, 13, 78, 0
19, 23020, Note_on_c, 13, 76, 85
19, 23040, Note_on_c, 13, 76, 0
19, 23040, Note_on_c, 13, 78, 85
19, 23160, Note_on_c, 13, 78, 0
19, 23280, Note_on_c, 13, 83, 80
19, 23340, Note_on_c, 13, 83, 0
19, 23340, Note_on_c, 13, 85, 82
19, 23370, Note_on_c, 13, 85, 0
19, 23370, Note_on_c, 13, 86, 83
19, 23400, Note_on_c, 13, 86, 0
19, 23400, Note_on_c, 13, 85, 83
19, 23445, Note_on_c, 13, 85, 0
19, 23460, Note_on_c, 13, 83, 85
19, 23490, Note_on_c, 13, 83, 0
19, 23520, Note_on_c, 13, 83, 86
19, 23580, Note_on_c, 13, 83, 0
19, 23580, Note_on_c, 13, 81, 88
19, 23625, Note_on_c, 13, 81, 0
19, 23640, Note_on_c, 13, 78, 88
19, 23670, Note_on_c, 13, 78, 0
19, 23700, Note_on_c, 13, 81, 88
19, 23730, Note_on_c, 13, 81, 0
19, 23760, Note_on_c, 13, 81, 88
19, 23820, Note_on_c, 13, 81, 0
19, 23820, Note_on_c, 13, 79, 88
19, 23865, Note_on_c, 13, 79, 0
19, 23880, Note_on_c, 13, 78, 88
19, 23910, Note_on_c, 13, 78, 0
19, 23940, Note_on_c, 13, 76, 88
19, 23970, Note_on_c, 13, 76, 0
19, 24000, Note_on_c, 13, 74, 88
19, 24045, Note_on_c, 13, 74, 0
19, 24060, Note_on_c, 13, 69, 88
19, 24105, Note_on_c, 13, 69, 0
19, 24120, Note_on_c, 13, 71, 88
19, 24165, Note_on_c, 13, 71, 0
19, 24180, Note_on_c, 13, 73, 85
19, 24225, Note_on_c, 13, 73, 0
19, 24240, Note_on_c, 13, 74, 82
19, 24270, Note_on_c, 13, 74, 0
19, 24300, Note_on_c, 13, 74, 85
19, 24330, Note_on_c, 13, 74, 0
19, 24360, Note_on_c, 13, 76, 85
19, 24375, Note_on_c, 13, 76, 0
19, 24375, Note_on_c, 13, 78, 85
19, 24390, Note_on_c, 13, 78, 0
19, 24390, Note_on_c, 13, 76, 85
19, 24405, Note_on_c, 13, 76, 0
19, 24405, Note_on_c, 13, 78, 85
19, 24420, Note_on_c, 13, 78, 0
19, 24420, Note_on_c, 13, 74, 85
19, 24450, Note_on_c, 13, 74, 0
19, 24450, Note_on_c, 13, 76, 85
19, 24480, Note_on_c, 13, 76, 0
19, 24480, Note_on_c, 13, 78, 85
19, 24540, Note_on_c, 13, 78, 0
19, 24540, Note_on_c, 13, 73, 85
19, 24585, Note_on_c, 13, 73, 0
19, 24600, Note_on_c, 13, 74, 85
19, 24645, Note_on_c, 13, 74, 0
19, 24660, Note_on_c, 13, 76, 85
19, 24705, Note_on_c, 13, 76, 0
19, 24720, Note_on_c, 13, 78, 85
19, 24765, Note_on_c, 13, 78, 0
19, 24780, Note_on_c, 13, 78, 85
19, 24825, Note_on_c, 13, 78, 0
19, 24840, Note_on_c, 13, 79, 85
19, 24855, Note_on_c, 13, 79, 0
19, 24855, Note_on_c, 13, 81, 86
19, 24870, Note_on_c, 13, 81, 0
19, 24870, Note_on_c, 13, 79, 88
19, 24885, Note_on_c, 13, 79, 0
19, 24885, Note_on_c, 13, 81, 88
19, 24900, Note_on_c, 13, 81, 0
19, 24900, Note_on_c, 13, 78, 88
19, 24930, Note_on_c, 13, 78, 0
19, 24930, Note_on_c, 13, 79, 88
19, 24960, Note_on_c, 13, 79, 0
19, 24960, Note_on_c, 13, 81, 88
19, 25005, Note_on_c, 13, 81, 0
19, 25020, Note_on_c, 13, 81, 91
19, 25065, Note_on_c, 13, 81, 0
19, 25080, Note_on_c, 13, 82, 92
19, 25095, Note_on_c, 13, 82, 0
19, 25095, Note_on_c, 13, 83, 92
19, 25110, Note_on_c, 13, 83, 0
19, 25110, Note_on_c, 13, 82, 94
19, 25125, Note_on_c, 13, 82, 0
19, 25125, Note_on_c, 13, 83, 94
19, 25140, Note_on_c, 13, 83, 0
19, 25140, Note_on_c, 13, 80, 95
19, 25170, Note_on_c, 13, 80, 0
19, 25170, Note_on_c, 13, 82, 97
19, 25200, Note_on_c, 13, 82, 0
19, 25200, Note_on_c, 13, 83, 100
19, 25320, Note_on_c, 13, 83, 0
19, 25440, Note_on_c, 13, 71, 47
19, 25620, Note_on_c, 13, 71, 0
19, 25620, Note_on_c, 13, 76, 47
19, 25665, Note_on_c, 13, 76, 0
19, 25680, Note_on_c, 13, 74, 47
19, 25740, Note_on_c, 13, 74, 0
19, 25740, Note_on_c, 13, 73, 47
19, 25800, Note_on_c, 13, 73, 0
19, 25800, Note_on_c, 13, 71, 49
19, 25860, Note_on_c, 13, 71, 0
19, 25860, Note_on_c, 13, 69, 50
19, 25920, Note_on_c, 13, 69, 0
19, 25920, Note_on_c, 13, 74, 50
19, 25980, Note_on_c, 13, 74, 0
19, 26040, Note_on_c, 13, 78, 50
19, 26100, Note_on_c, 13, 78, 0
19, 26160, Note_on_c, 13, 74, 41
19, 26220, Note_on_c, 13, 74, 0
19, 26400, Note_on_c, 13, 62, 85
19, 26400, Note_on_c, 13, 79, 85
19, 26400, Note_on_c, 13, 71, 85
19, 26520, Note_on_c, 13, 71, 0
19, 26520, Note_on_c, 13, 79, 0
19, 26520, Note_on_c, 13, 62, 0
19, 26580, Note_on_c, 13, 74, 85
19, 26610, Note_on_c, 13, 74, 0
19, 26640, Note_on_c, 13, 79, 85
19, 26760, Note_on_c, 13, 79, 0
19, 26820, Note_on_c, 13, 74, 85
19, 26850, Note_on_c, 13, 74, 0
19, 26880, Note_on_c, 13, 79, 85
19, 26910, Note_on_c, 13, 79, 0
19, 26940, Note_on_c, 13, 74, 85
19, 26970, Note_on_c, 13, 74, 0
19, 27000, Note_on_c, 13, 79, 85
19, 27030, Note_on_c, 13, 79, 0
19, 27060, Note_on_c, 13, 83, 85
19, 27090, Note_on_c, 13, 83, 0
19, 27120, Note_on_c, 13, 86, 85
19, 27240, Note_on_c, 13, 86, 0
19, 27360, Note_on_c, 13, 84, 85
19, 27480, Note_on_c, 13, 84, 0
19, 27540, Note_on_c, 13, 81, 76
19, 27570, Note_on_c, 13, 81, 0
19, 27600, Note_on_c, 13, 84, 85
19, 27720, Note_on_c, 13, 84, 0
19, 27780, Note_on_c, 13, 81, 76
19, 27810, Note_on_c, 13, 81, 0
19, 27840, Note_on_c, 13, 84, 85
19, 27870, Note_on_c, 13, 84, 0
19, 27900, Note_on_c, 13, 81, 74
19, 27930, Note_on_c, 13, 81, 0
19, 27960, Note_on_c, 13, 78, 85
19, 27990, Note_on_c, 13, 78, 0
19, 28020, Note_on_c, 13, 81, 71
19, 28050, Note_on_c, 13, 81, 0
19, 28080, Note_on_c, 13, 74, 85
19, 28200, Note_on_c, 13, 74, 0
19, 28320, Note_on_c, 13, 62, 85
19, 28320, Note_on_c, 13, 79, 85
19, 28320, Note_on_c, 13, 71, 85
19, 28380, Note_on_c, 13, 71, 0
19, 28380, Note_on_c, 13, 79, 0
19, 28380, Note_on_c, 13, 62, 0
19, 28440, Note_on_c, 13, 79, 85
19, 28620, Note_on_c, 13, 79, 0
19, 28620, Note_on_c, 13, 83, 85
19, 28680, Note_on_c, 13, 83, 0
19, 28680, Note_on_c, 13, 81, 85
19, 28710, Note_on_c, 13, 81, 0
19, 28740, Note_on_c, 13, 79, 85
19, 28770, Note_on_c, 13, 79, 0
19, 28800, Note_on_c, 13, 79, 85
19, 28815, Note_on_c, 13, 79, 0
19, 28815, Note_on_c, 13, 81, 85
19, 28830, Note_on_c, 13, 81, 0
19, 28830, Note_on_c, 13, 79, 85
19, 28845, Note_on_c, 13, 79, 0
19, 28845, Note_on_c, 13, 81, 85
19, 28860, Note_on_c, 13, 81, 0
19, 28860, Note_on_c, 13, 78, 85
19, 28910, Note_on_c, 13, 78, 0
19, 28920, Note_on_c, 13, 78, 85
19, 29100, Note_on_c, 13, 78, 0
19, 29100, Note_on_c, 13, 81, 85
19, 29160, Note_on_c, 13, 81, 0
19, 29160, Note_on_c, 13, 84, 85
19, 29190, Note_on_c, 13, 84, 0
19, 29220, Note_on_c, 13, 78, 85
19, 29250, Note_on_c, 13, 78, 0
19, 29280, Note_on_c, 13, 81, 85
19, 29340, Note_on_c, 13, 81, 0
19, 29340, Note_on_c, 13, 79, 85
19, 29370, Note_on_c, 13, 79, 0
19, 29400, Note_on_c, 13, 79, 85
19, 29580, Note_on_c, 13, 79, 0
19, 29580, Note_on_c, 13, 83, 85
19, 29640, Note_on_c, 13, 83, 0
19, 29640, Note_on_c, 13, 81, 85
19, 29670, Note_on_c, 13, 81, 0
19, 29700, Note_on_c, 13, 79, 85
19, 29730, Note_on_c, 13, 79, 0
19, 29760, Note_on_c, 13, 79, 85
19, 29775, Note_on_c, 13, 79, 0
19, 29775, Note_on_c, 13, 81, 85
19, 29790, Note_on_c, 13, 81, 0
19, 29790, Note_on_c, 13, 79, 85
19, 29805, Note_on_c, 13, 79, 0
19, 29805, Note_on_c, 13, 81, 85
19, 29820, Note_on_c, 13, 81, 0
19, 29820, Note_on_c, 13, 78, 85
19, 29870, Note_on_c, 13, 78, 0
19, 29880, Note_on_c, 13, 78, 85
19, 30060, Note_on_c, 13, 78, 0
19, 30060, Note_on_c, 13, 81, 85
19, 30120, Note_on_c, 13, 81, 0
19, 30120, Note_on_c, 13, 84, 85
19, 30150, Note_on_c, 13, 84, 0
19, 30180, Note_on_c, 13, 78, 85
19, 30210, Note_on_c, 13, 78, 0
19, 30240, Note_on_c, 13, 79, 85
19, 30270, Note_on_c, 13, 79, 0
19, 30300, Note_on_c, 13, 79, 85
19, 30330, Note_on_c, 13, 79, 0
19, 30360, Note_on_c, 13, 79, 85
19, 30390, Note_on_c, 13, 79, 0
19, 30390, Note_on_c, 13, 78, 85
19, 30420, Note_on_c, 13, 78, 0
19, 30420, Note_on_c, 13, 76, 85
19, 30450, Note_on_c, 13, 76, 0
19, 30450, Note_on_c, 13, 78, 85
19, 30480, Note_on_c, 13, 78, 0
19, 30480, Note_on_c, 13, 79, 85
19, 30510, Note_on_c, 13, 79, 0
19, 30540, Note_on_c, 13, 79, 85
19, 30570, Note_on_c, 13, 79, 0
19, 30600, Note_on_c, 13, 83, 85
19, 30630, Note_on_c, 13, 83, 0
19, 30630, Note_on_c, 13, 81, 85
19, 30660, Note_on_c, 13, 81, 0
19, 30660, Note_on_c, 13, 79, 85
19, 30690, Note_on_c, 13, 79, 0
19, 30690, Note_on_c, 13, 81, 85
19, 30720, Note_on_c, 13, 81, 0
19, 30720, Note_on_c, 13, 83, 85
19, 30750, Note_on_c, 13, 83, 0
19, 30780, Note_on_c, 13, 83, 85
19, 30810, Note_on_c, 13, 83, 0
19, 30840, Note_on_c, 13, 86, 85
19, 30870, Note_on_c, 13, 86, 0
19, 30870, Note_on_c, 13, 84, 85
19, 30900, Note_on_c, 13, 84, 0
19, 30900, Note_on_c, 13, 83, 85
19, 30930, Note_on_c, 13, 83, 0
19, 30930, Note_on_c, 13, 84, 85
19, 30960, Note_on_c, 13, 84, 0
19, 30960, Note_on_c, 13, 86, 85
19, 31080, Note_on_c, 13, 86, 0
19, 31200, Note_on_c, 13, 74, 52
19, 31440, Note_on_c, 13, 74, 0
19, 31440, Note_on_c, 13, 76, 40
19, 31680, Note_on_c, 13, 76, 0
19, 31680, Note_on_c, 13, 74, 44
19, 31710, Note_on_c, 13, 74, 0
19, 31710, Note_on_c, 13, 72, 46
19, 31790, Note_on_c, 13, 72, 0
19, 31800, Note_on_c, 13, 72, 46
19, 31920, Note_on_c, 13, 72, 0
19, 31920, Note_on_c, 13, 72, 47
19, 31950, Note_on_c, 13, 72, 0
19, 31950, Note_on_c, 13, 71, 47
19, 32030, Note_on_c, 13, 71, 0
19, 32040, Note_on_c, 13, 71, 47
19, 32160, Note_on_c, 13, 71, 0
19, 32160, Note_on_c, 13, 71, 47
19, 32190, Note_on_c, 13, 71, 0
19, 32190, Note_on_c, 13, 69, 47
19, 32270, Note_on_c, 13, 69, 0
19, 32280, Note_on_c, 13, 69, 47
19, 32400, Note_on_c, 13, 69, 0
19, 32400, Note_on_c, 13, 67, 47
19, 32460, Note_on_c, 13, 67, 0
19, 32460, Note_on_c, 13, 66, 47
19, 32490, Note_on_c, 13, 66, 0
19, 32520, Note_on_c, 13, 64, 47
19, 32550, Note_on_c, 13, 64, 0
19, 32580, Note_on_c, 13, 66, 47
19, 32610, Note_on_c, 13, 66, 0
19, 32640, Note_on_c, 13, 67, 47
19, 32700, Note_on_c, 13, 67, 0
19, 32760, Note_on_c, 13, 69, 47
19, 32820, Note_on_c, 13, 69, 0
19, 32880, Note_on_c, 13, 71, 47
19, 32940, Note_on_c, 13, 71, 0
19, 33120, Note_on_c, 13, 74, 54
19, 33360, Note_on_c, 13, 74, 0
19, 33360, Note_on_c, 13, 76, 59
19, 33600, Note_on_c, 13, 76, 0
19, 33600, Note_on_c, 13, 74, 47
19, 33660, Note_on_c, 13, 74, 0
19, 33660, Note_on_c, 13, 72, 47
19, 33690, Note_on_c, 13, 72, 0
19, 33720, Note_on_c, 13, 72, 47
19, 33750, Note_on_c, 13, 72, 0
19, 33780, Note_on_c, 13, 72, 47
19, 33810, Note_on_c, 13, 72, 0
19, 33840, Note_on_c, 13, 72, 47
19, 33900, Note_on_c, 13, 72, 0
19, 33900, Note_on_c, 13, 71, 47
19, 33930, Note_on_c, 13, 71, 0
19, 33960, Note_on_c, 13, 71, 47
19, 33990, Note_on_c, 13, 71, 0
19, 34020, Note_on_c, 13, 71, 47
19, 34050, Note_on_c, 13, 71, 0
19, 34080, Note_on_c, 13, 71, 47
19, 34140, Note_on_c, 13, 71, 0
19, 34140, Note_on_c, 13, 69, 47
19, 34170, Note_on_c, 13, 69, 0
19, 34200, Note_on_c, 13, 69, 47
19, 34245, Note_on_c, 13, 69, 0
19, 34260, Note_on_c, 13, 69, 47
19, 34305, Note_on_c, 13, 69, 0
19, 34320, Note_on_c, 13, 67, 47
19, 34380, Note_on_c, 13, 67, 0
19, 34380, Note_on_c, 13, 66, 47
19, 34440, Note_on_c, 13, 66, 0
19, 34440, Note_on_c, 13, 64, 47
19, 34500, Note_on_c, 13, 64, 0
19, 34500, Note_on_c, 13, 66, 47
19, 34560, Note_on_c, 13, 66, 0
19, 34560, Note_on_c, 13, 55, 95
19, 34560, Note_on_c, 13, 67, 95
19, 34860, Note_on_c, 13, 67, 0
19, 34860, Note_on_c, 13, 55, 0
19, 34860, Note_on_c, 13, 67, 61
19, 34875, Note_on_c, 13, 67, 0
19, 34875, Note_on_c, 13, 69, 61
19, 34890, Note_on_c, 13, 69, 0
19, 34890, Note_on_c, 13, 66, 61
19, 34905, Note_on_c, 13, 66, 0
19, 34905, Note_on_c, 13, 67, 61
19, 34920, Note_on_c, 13, 67, 0
19, 34920, Note_on_c, 13, 69, 61
19, 34980, Note_on_c, 13, 69, 0
19, 34980, Note_on_c, 13, 66, 61
19, 35040, Note_on_c, 13, 66, 0
19, 35040, Note_on_c, 13, 71, 85
19, 35340, Note_on_c, 13, 71, 0
19, 35340, Note_on_c, 13, 71, 61
19, 35355, Note_on_c, 13, 71, 0
19, 35355, Note_on_c, 13, 72, 61
19, 35370, Note_on_c, 13, 72, 0
19, 35370, Note_on_c, 13, 69, 61
19, 35385, Note_on_c, 13, 69, 0
19, 35385, Note_on_c, 13, 71, 61
19, 35400, Note_on_c, 13, 71, 0
19, 35400, Note_on_c, 13, 72, 61
19, 35460, Note_on_c, 13, 72, 0
19, 35460, Note_on_c, 13, 69, 61
19, 35520, Note_on_c, 13, 69, 0
19, 35520, Note_on_c, 13, 74, 46
19, 35540, Note_on_c, 13, 74, 0
19, 35550, Note_on_c, 13, 74, 46
19, 35570, Note_on_c, 13, 74, 0
19, 35580, Note_on_c, 13, 74, 47
19, 35600, Note_on_c, 13, 74, 0
19, 35610, Note_on_c, 13, 74, 47
19, 35630, Note_on_c, 13, 74, 0
19, 35640, Note_on_c, 13, 74, 49
19, 35660, Note_on_c, 13, 74, 0
19, 35670, Note_on_c, 13, 74, 50
19, 35690, Note_on_c, 13, 74, 0
19, 35700, Note_on_c, 13, 74, 50
19, 35720, Note_on_c, 13, 74, 0
19, 35730, Note_on_c, 13, 74, 52
19, 35750, Note_on_c, 13, 74, 0
19, 35760, Note_on_c, 13, 76, 53
19, 35780, Note_on_c, 13, 76, 0
19, 35790, Note_on_c, 13, 76, 53
19, 35810, Note_on_c, 13, 76, 0
19, 35820, Note_on_c, 13, 76, 55
19, 35840, Note_on_c, 13, 76, 0
19, 35850, Note_on_c, 13, 76, 56
19, 35870, Note_on_c, 13, 76, 0
19, 35880, Note_on_c, 13, 78, 56
19, 35900, Note_on_c, 13, 78, 0
19, 35910, Note_on_c, 13, 78, 58
19, 35930, Note_on_c, 13, 78, 0
19, 35940, Note_on_c, 13, 78, 58
19, 35960, Note_on_c, 13, 78, 0
19, 35970, Note_on_c, 13, 78, 59
19, 35990, Note_on_c, 13, 78, 0
19, 36000, Note_on_c, 13, 79, 61
19, 36020, Note_on_c, 13, 79, 0
19, 36030, Note_on_c, 13, 79, 61
19, 36050, Note_on_c, 13, 79, 0
19, 36060, Note_on_c, 13, 79, 62
19, 36080, Note_on_c, 13, 79, 0
19, 36090, Note_on_c, 13, 79, 64
19, 36110, Note_on_c, 13, 79, 0
19, 36120, Note_on_c, 13, 81, 64
19, 36140, Note_on_c, 13, 81, 0
19, 36150, Note_on_c, 13, 81, 65
19, 36170, Note_on_c, 13, 81, 0
19, 36180, Note_on_c, 13, 81, 67
19, 36200, Note_on_c, 13, 81, 0
19, 36210, Note_on_c, 13, 81, 67
19, 36230, Note_on_c, 13, 81, 0
19, 36240, Note_on_c, 13, 83, 68
19, 36260, Note_on_c, 13, 83, 0
19, 36270, Note_on_c, 13, 83, 68
19, 36290, Note_on_c, 13, 83, 0
19, 36300, Note_on_c, 13, 83, 70
19, 36320, Note_on_c, 13, 83, 0
19, 36330, Note_on_c, 13, 83, 71
19, 36350, Note_on_c, 13, 83, 0
19, 36360, Note_on_c, 13, 85, 71
19, 36380, Note_on_c, 13, 85, 0
19, 36390, Note_on_c, 13, 85, 73
19, 36410, Note_on_c, 13, 85, 0
19, 36420, Note_on_c, 13, 85, 74
19, 36440, Note_on_c, 13, 85, 0
19, 36450, Note_on_c, 13, 85, 74
19, 36470, Note_on_c, 13, 85, 0
19, 36480, Note_on_c, 13, 86, 92
19, 36660, Note_on_c, 13, 86, 0
19, 36660, Note_on_c, 13, 81, 85
19, 36720, Note_on_c, 13, 81, 0
19, 36720, Note_on_c, 13, 85, 85
19, 36810, Note_on_c, 13, 85, 0
19, 36810, Note_on_c, 13, 81, 85
19, 36840, Note_on_c, 13, 81, 0
19, 36840, Note_on_c, 13, 85, 85
19, 36930, Note_on_c, 13, 85, 0
19, 36930, Note_on_c, 13, 81, 85
19, 36960, Note_on_c, 13, 81, 0
19, 36960, Note_on_c, 13, 86, 98
19, 37140, Note_on_c, 13, 86, 0
19, 37140, Note_on_c, 13, 81, 85
19, 37200, Note_on_c, 13, 81, 0
19, 37200, Note_on_c, 13, 85, 85
19, 37290, Note_on_c, 13, 85, 0
19, 37290, Note_on_c, 13, 81, 85
19, 37320, Note_on_c, 13, 81, 0
19, 37320, Note_on_c, 13, 85, 85
19, 37410, Note_on_c, 13, 85, 0
19, 37410, Note_on_c, 13, 81, 85
19, 37440, Note_on_c, 13, 81, 0
19, 37440, Note_on_c, 13, 86, 85
19, 37470, Note_on_c, 13, 86, 0
19, 37500, Note_on_c, 13, 78, 98
19, 37500, Note_on_c, 13, 86, 98
19, 37590, Note_on_c, 13, 86, 0
19, 37590, Note_on_c, 13, 78, 0
19, 37620, Note_on_c, 13, 78, 85
19, 37620, Note_on_c, 13, 86, 85
19, 37710, Note_on_c, 13, 86, 0
19, 37710, Note_on_c, 13, 78, 0
19, 37740, Note_on_c, 13, 78, 85
19, 37740, Note_on_c, 13, 86, 85
19, 37830, Note_on_c, 13, 86, 0
19, 37830, Note_on_c, 13, 78, 0
19, 37860, Note_on_c, 13, 78, 85
19, 37860, Note_on_c, 13, 86, 85
19, 37920, Note_on_c, 13, 78, 0
19, 37920, Note_on_c, 13, 76, 85
19, 37950, Note_on_c, 13, 76, 0
19, 37950, Note_on_c, 13, 86, 0
19, 37980, Note_on_c, 13, 76, 85
19, 37980, Note_on_c, 13, 86, 85
19, 38070, Note_on_c, 13, 86, 0
19, 38070, Note_on_c, 13, 76, 0
19, 38100, Note_on_c, 13, 76, 85
19, 38100, Note_on_c, 13, 86, 85
19, 38190, Note_on_c, 13, 86, 0
19, 38190, Note_on_c, 13, 76, 0
19, 38220, Note_on_c, 13, 76, 85
19, 38220, Note_on_c, 13, 86, 85
19, 38310, Note_on_c, 13, 86, 0
19, 38310, Note_on_c, 13, 76, 0
19, 38340, Note_on_c, 13, 76, 85
19, 38340, Note_on_c, 13, 86, 85
19, 38400, Note_on_c, 13, 86, 0
19, 38400, Note_on_c, 13, 76, 0
19, 38400, Note_on_c, 13, 76, 97
19, 38400, Note_on_c, 13, 85, 97
19, 38445, Note_on_c, 13, 85, 0
19, 38445, Note_on_c, 13, 76, 0
19, 38460, Note_on_c, 13, 81, 85
19, 38505, Note_on_c, 13, 81, 0
19, 38520, Note_on_c, 13, 86, 85
19, 38565, Note_on_c, 13, 86, 0
19, 38580, Note_on_c, 13, 81, 85
19, 38625, Note_on_c, 13, 81, 0
19, 38640, Note_on_c, 13, 85, 85
19, 38685, Note_on_c, 13, 85, 0
19, 38700, Note_on_c, 13, 81, 85
19, 38745, Note_on_c, 13, 81, 0
19, 38760, Note_on_c, 13, 86, 85
19, 38805, Note_on_c, 13, 86, 0
19, 38820, Note_on_c, 13, 81, 85
19, 38865, Note_on_c, 13, 81, 0
19, 38880, Note_on_c, 13, 85, 97
19, 38925, Note_on_c, 13, 85, 0
19, 38940, Note_on_c, 13, 69, 85
19, 38985, Note_on_c, 13, 69, 0
19, 39000, Note_on_c, 13, 69, 85
19, 39045, Note_on_c, 13, 69, 0
19, 39060, Note_on_c, 13, 69, 85
19, 39105, Note_on_c, 13, 69, 0
19, 39120, Note_on_c, 13, 69, 85
19, 39240, Note_on_c, 13, 69, 0
19, 39360, Note_on_c, 13, 81, 55
19, 39540, Note_on_c, 13, 81, 0
19, 39540, Note_on_c, 13, 79, 55
19, 39560, Note_on_c, 13, 79, 0
19, 39560, Note_on_c, 13, 78, 55
19, 39580, Note_on_c, 13, 78, 0
19, 39580, Note_on_c, 13, 76, 55
19, 39600, Note_on_c, 13, 76, 0
19, 39600, Note_on_c, 13, 74, 55
19, 39660, Note_on_c, 13, 74, 0
19, 39720, Note_on_c, 13, 83, 55
19, 39780, Note_on_c, 13, 83, 0
19, 39840, Note_on_c, 13, 79, 55
19, 39900, Note_on_c, 13, 79, 0
19, 39960, Note_on_c, 13, 76, 55
19, 40020, Note_on_c, 13, 76, 0
19, 40080, Note_on_c, 13, 81, 55
19, 40140, Note_on_c, 13, 81, 0
19, 40320, Note_on_c, 13, 78, 55
19, 40500, Note_on_c, 13, 78, 0
19, 40500, Note_on_c, 13, 76, 55
19, 40520, Note_on_c, 13, 76, 0
19, 40520, Note_on_c, 13, 74, 55
19, 40540, Note_on_c, 13, 74, 0
19, 40540, Note_on_c, 13, 73, 55
19, 40560, Note_on_c, 13, 73, 0
19, 40560, Note_on_c, 13, 71, 55
19, 40620, Note_on_c, 13, 71, 0
19, 40680, Note_on_c, 13, 79, 55
19, 40740, Note_on_c, 13, 79, 0
19, 40800, Note_on_c, 13, 78, 55
19, 41040, Note_on_c, 13, 78, 0
19, 41040, Note_on_c, 13, 76, 43
19, 41160, Note_on_c, 13, 76, 0
19, 41340, Note_on_c, 13, 81, 55
19, 41370, Note_on_c, 13, 81, 0
19, 41400, Note_on_c, 13, 81, 55
19, 41430, Note_on_c, 13, 81, 0
19, 41460, Note_on_c, 13, 81, 55
19, 41490, Note_on_c, 13, 81, 0
19, 41520, Note_on_c, 13, 81, 55
19, 41550, Note_on_c, 13, 81, 0
19, 41580, Note_on_c, 13, 81, 55
19, 41610, Note_on_c, 13, 81, 0
19, 41640, Note_on_c, 13, 81, 55
19, 41670, Note_on_c, 13, 81, 0
19, 41700, Note_on_c, 13, 81, 55
19, 41730, Note_on_c, 13, 81, 0
19, 41760, Note_on_c, 13, 81, 55
19, 41790, Note_on_c, 13, 81, 0
19, 41820, Note_on_c, 13, 81, 55
19, 41850, Note_on_c, 13, 81, 0
19, 41880, Note_on_c, 13, 81, 55
19, 41910, Note_on_c, 13, 81, 0
19, 41940, Note_on_c, 13, 81, 55
19, 41970, Note_on_c, 13, 81, 0
19, 42000, Note_on_c, 13, 81, 55
19, 42030, Note_on_c, 13, 81, 0
19, 42060, Note_on_c, 13, 81, 55
19, 42090, Note_on_c, 13, 81, 0
19, 42120, Note_on_c, 13, 83, 55
19, 42150, Note_on_c, 13, 83, 0
19, 42180, Note_on_c, 13, 85, 55
19, 42210, Note_on_c, 13, 85, 0
19, 42240, Note_on_c, 13, 85, 55
19, 42300, Note_on_c, 13, 85, 0
19, 42300, Note_on_c, 13, 86, 55
19, 42360, Note_on_c, 13, 86, 0
19, 42420, Note_on_c, 13, 83, 55
19, 42450, Note_on_c, 13, 83, 0
19, 42480, Note_on_c, 13, 83, 55
19, 42540, Note_on_c, 13, 83, 0
19, 42540, Note_on_c, 13, 81, 55
19, 42600, Note_on_c, 13, 81, 0
19, 42660, Note_on_c, 13, 73, 55
19, 42705, Note_on_c, 13, 73, 0
19, 42720, Note_on_c, 13, 74, 55
19, 42840, Note_on_c, 13, 74, 0
19, 42900, Note_on_c, 13, 81, 55
19, 42930, Note_on_c, 13, 81, 0
19, 42960, Note_on_c, 13, 86, 55
19, 43020, Note_on_c, 13, 86, 0
19, 43020, Note_on_c, 13, 85, 55
19, 43080, Note_on_c, 13, 85, 0
19, 43080, Note_on_c, 13, 83, 55
19, 43140, Note_on_c, 13, 83, 0
19, 43140, Note_on_c, 13, 81, 55
19, 43200, Note_on_c, 13, 81, 0
19, 43200, Note_on_c, 13, 83, 55
19, 43215, Note_on_c, 13, 83, 0
19, 43215, Note_on_c, 13, 85, 55
19, 43230, Note_on_c, 13, 85, 0
19, 43230, Note_on_c, 13, 83, 55
19, 43245, Note_on_c, 13, 83, 0
19, 43245, Note_on_c, 13, 85, 55
19, 43260, Note_on_c, 13, 85, 0
19, 43260, Note_on_c, 13, 81, 55
19, 43320, Note_on_c, 13, 81, 0
19, 43380, Note_on_c, 13, 81, 55
19, 43410, Note_on_c, 13, 81, 0
19, 43440, Note_on_c, 13, 81, 55
19, 43470, Note_on_c, 13, 81, 0
19, 43500, Note_on_c, 13, 81, 55
19, 43530, Note_on_c, 13, 81, 0
19, 43560, Note_on_c, 13, 81, 55
19, 43590, Note_on_c, 13, 81, 0
19, 43620, Note_on_c, 13, 81, 55
19, 43650, Note_on_c, 13, 81, 0
19, 43680, Note_on_c, 13, 83, 55
19, 43695, Note_on_c, 13, 83, 0
19, 43695, Note_on_c, 13, 85, 55
19, 43710, Note_on_c, 13, 85, 0
19, 43710, Note_on_c, 13, 83, 55
19, 43725, Note_on_c, 13, 83, 0
19, 43725, Note_on_c, 13, 85, 55
19, 43740, Note_on_c, 13, 85, 0
19, 43740, Note_on_c, 13, 81, 55
19, 43800, Note_on_c, 13, 81, 0
19, 43860, Note_on_c, 13, 81, 55
19, 43905, Note_on_c, 13, 81, 0
19, 43920, Note_on_c, 13, 86, 55
19, 43980, Note_on_c, 13, 86, 0
19, 43980, Note_on_c, 13, 85, 55
19, 44040, Note_on_c, 13, 85, 0
19, 44040, Note_on_c, 13, 83, 55
19, 44100, Note_on_c, 13, 83, 0
19, 44100, Note_on_c, 13, 81, 55
19, 44160, Note_on_c, 13, 81, 0
19, 44160, Note_on_c, 13, 83, 55
19, 44175, Note_on_c, 13, 83, 0
19, 44175, Note_on_c, 13, 85, 55
19, 44190, Note_on_c, 13, 85, 0
19, 44190, Note_on_c, 13, 83, 55
19, 44205, Note_on_c, 13, 83, 0
19, 44205, Note_on_c, 13, 85, 55
19, 44220, Note_on_c, 13, 85, 0
19, 44220, Note_on_c, 13, 81, 55
19, 44280, Note_on_c, 13, 81, 0
19, 44340, Note_on_c, 13, 81, 55
19, 44370, Note_on_c, 13, 81, 0
19, 44400, Note_on_c, 13, 81, 55
19, 44430, Note_on_c, 13, 81, 0
19, 44460, Note_on_c, 13, 81, 55
19, 44490, Note_on_c, 13, 81, 0
19, 44520, Note_on_c, 13, 81, 55
19, 44550, Note_on_c, 13, 81, 0
19, 44580, Note_on_c, 13, 81, 55
19, 44610, Note_on_c, 13, 81, 0
19, 44640, Note_on_c, 13, 83, 55
19, 44655, Note_on_c, 13, 83, 0
19, 44655, Note_on_c, 13, 85, 55
19, 44670, Note_on_c, 13, 85, 0
19, 44670, Note_on_c, 13, 83, 55
19, 44685, Note_on_c, 13, 83, 0
19, 44685, Note_on_c, 13, 85, 55
19, 44700, Note_on_c, 13, 85, 0
19, 44700, Note_on_c, 13, 81, 55
19, 44760, Note_on_c, 13, 81, 0
19, 44880, Note_on_c, 13, 71, 94
19, 44880, Note_on_c, 13, 83, 94
19, 45050, Note_on_c, 13, 83, 0
19, 45050, Note_on_c, 13, 71, 0
19, 45060, Note_on_c, 13, 81, 83
19, 45080, Note_on_c, 13, 81, 0
19, 45080, Note_on_c, 13, 79, 83
19, 45100, Note_on_c, 13, 79, 0
19, 45100, Note_on_c, 13, 78, 83
19, 45120, Note_on_c, 13, 78, 0
19, 45120, Note_on_c, 13, 79, 83
19, 45240, Note_on_c, 13, 79, 0
19, 45360, Note_on_c, 13, 81, 85
19, 45360, Note_on_c, 13, 69, 85
19, 45530, Note_on_c, 13, 69, 0
19, 45530, Note_on_c, 13, 81, 0
19, 45540, Note_on_c, 13, 79, 85
19, 45560, Note_on_c, 13, 79, 0
19, 45560, Note_on_c, 13, 78, 85
19, 45580, Note_on_c, 13, 78, 0
19, 45580, Note_on_c, 13, 76, 85
19, 45600, Note_on_c, 13, 76, 0
19, 45600, Note_on_c, 13, 78, 85
19, 45720, Note_on_c, 13, 78, 0
19, 45840, Note_on_c, 13, 83, 79
19, 45900, Note_on_c, 13, 83, 0
19, 45900, Note_on_c, 13, 85, 80
19, 45930, Note_on_c, 13, 85, 0
19, 45930, Note_on_c, 13, 86, 82
19, 45960, Note_on_c, 13, 86, 0
19, 45960, Note_on_c, 13, 85, 82
19, 46005, Note_on_c, 13, 85, 0
19, 46020, Note_on_c, 13, 83, 82
19, 46050, Note_on_c, 13, 83, 0
19, 46080, Note_on_c, 13, 83, 83
19, 46140, Note_on_c, 13, 83, 0
19, 46140, Note_on_c, 13, 81, 86
19, 46185, Note_on_c, 13, 81, 0
19, 46200, Note_on_c, 13, 78, 86
19, 46230, Note_on_c, 13, 78, 0
19, 46260, Note_on_c, 13, 81, 88
19, 46290, Note_on_c, 13, 81, 0
19, 46320, Note_on_c, 13, 81, 88
19, 46380, Note_on_c, 13, 81, 0
19, 46380, Note_on_c, 13, 79, 83
19, 46425, Note_on_c, 13, 79, 0
19, 46440, Note_on_c, 13, 78, 79
19, 46470, Note_on_c, 13, 78, 0
19, 46500, Note_on_c, 13, 76, 76
19, 46530, Note_on_c, 13, 76, 0
19, 46560, Note_on_c, 13, 74, 85
19, 46680, Note_on_c, 13, 74, 0
19, 46740, Note_on_c, 13, 81, 53
19, 46770, Note_on_c, 13, 81, 0
19, 46800, Note_on_c, 13, 86, 53
19, 46860, Note_on_c, 13, 86, 0
19, 46860, Note_on_c, 13, 85, 53
19, 46920, Note_on_c, 13, 85, 0
19, 46920, Note_on_c, 13, 83, 53
19, 46980, Note_on_c, 13, 83, 0
19, 46980, Note_on_c, 13, 81, 53
19, 47040, Note_on_c, 13, 81, 0
19, 47040, Note_on_c, 13, 83, 55
19, 47055, Note_on_c, 13, 83, 0
19, 47055, Note_on_c, 13, 85, 55
19, 47070, Note_on_c, 13, 85, 0
19, 47070, Note_on_c, 13, 83, 55
19, 47085, Note_on_c, 13, 83, 0
19, 47085, Note_on_c, 13, 85, 55
19, 47100, Note_on_c, 13, 85, 0
19, 47100, Note_on_c, 13, 81, 55
19, 47160, Note_on_c, 13, 81, 0
19, 47220, Note_on_c, 13, 81, 55
19, 47250, Note_on_c, 13, 81, 0
19, 47280, Note_on_c, 13, 81, 55
19, 47310, Note_on_c, 13, 81, 0
19, 47340, Note_on_c, 13, 81, 55
19, 47370, Note_on_c, 13, 81, 0
19, 47400, Note_on_c, 13, 81, 55
19, 47430, Note_on_c, 13, 81, 0
19, 47460, Note_on_c, 13, 81, 55
19, 47490, Note_on_c, 13, 81, 0
19, 47520, Note_on_c, 13, 83, 55
19, 47535, Note_on_c, 13, 83, 0
19, 47535, Note_on_c, 13, 85, 55
19, 47550, Note_on_c, 13, 85, 0
19, 47550, Note_on_c, 13, 83, 55
19, 47565, Note_on_c, 13, 83, 0
19, 47565, Note_on_c, 13, 85, 55
19, 47580, Note_on_c, 13, 85, 0
19, 47580, Note_on_c, 13, 81, 55
19, 47640, Note_on_c, 13, 81, 0
19, 47700, Note_on_c, 13, 81, 55
19, 47745, Note_on_c, 13, 81, 0
19, 47760, Note_on_c, 13, 86, 55
19, 47820, Note_on_c, 13, 86, 0
19, 47820, Note_on_c, 13, 85, 55
19, 47880, Note_on_c, 13, 85, 0
19, 47880, Note_on_c, 13, 83, 55
19, 47940, Note_on_c, 13, 83, 0
19, 47940, Note_on_c, 13, 81, 55
19, 48000, Note_on_c, 13, 81, 0
19, 48000, Note_on_c, 13, 83, 55
19, 48015, Note_on_c, 13, 83, 0
19, 48015, Note_on_c, 13, 85, 55
19, 48030, Note_on_c, 13, 85, 0
19, 48030, Note_on_c, 13, 83, 55
19, 48045, Note_on_c, 13, 83, 0
19, 48045, Note_on_c, 13, 85, 55
19, 48060, Note_on_c, 13, 85, 0
19, 48060, Note_on_c, 13, 81, 55
19, 48120, Note_on_c, 13, 81, 0
19, 48180, Note_on_c, 13, 81, 55
19, 48210, Note_on_c, 13, 81, 0
19, 48240, Note_on_c, 13, 81, 55
19, 48270, Note_on_c, 13, 81, 0
19, 48300, Note_on_c, 13, 81, 55
19, 48330, Note_on_c, 13, 81, 0
19, 48360, Note_on_c, 13, 81, 55
19, 48390, Note_on_c, 13, 81, 0
19, 48420, Note_on_c, 13, 81, 55
19, 48450, Note_on_c, 13, 81, 0
19, 48480, Note_on_c, 13, 83, 59
19, 48495, Note_on_c, 13, 83, 0
19, 48495, Note_on_c, 13, 85, 59
19, 48510, Note_on_c, 13, 85, 0
19, 48510, Note_on_c, 13, 83, 59
19, 48525, Note_on_c, 13, 83, 0
19, 48525, Note_on_c, 13, 85, 59
19, 48540, Note_on_c, 13, 85, 0
19, 48540, Note_on_c, 13, 81, 59
19, 48600, Note_on_c, 13, 81, 0
19, 48720, Note_on_c, 13, 71, 85
19, 48720, Note_on_c, 13, 83, 85
19, 48890, Note_on_c, 13, 83, 0
19, 48890, Note_on_c, 13, 71, 0
19, 48900, Note_on_c, 13, 81, 85
19, 48920, Note_on_c, 13, 81, 0
19, 48920, Note_on_c, 13, 79, 85
19, 48940, Note_on_c, 13, 79, 0
19, 48940, Note_on_c, 13, 78, 85
19, 48960, Note_on_c, 13, 78, 0
19, 48960, Note_on_c, 13, 79, 85
19, 49080, Note_on_c, 13, 79, 0
19, 49200, Note_on_c, 13, 81, 85
19, 49200, Note_on_c, 13, 69, 85
19, 49370, Note_on_c, 13, 69, 0
19, 49370, Note_on_c, 13, 81, 0
19, 49380, Note_on_c, 13, 79, 85
19, 49400, Note_on_c, 13, 79, 0
19, 49400, Note_on_c, 13, 78, 85
19, 49420, Note_on_c, 13, 78, 0
19, 49420, Note_on_c, 13, 76, 85
19, 49440, Note_on_c, 13, 76, 0
19, 49440, Note_on_c, 13, 78, 85
19, 49560, Note_on_c, 13, 78, 0
19, 49680, Note_on_c, 13, 83, 85
19, 49740, Note_on_c, 13, 83, 0
19, 49740, Note_on_c, 13, 85, 85
19, 49770, Note_on_c, 13, 85, 0
19, 49770, Note_on_c, 13, 86, 85
19, 49800, Note_on_c, 13, 86, 0
19, 49800, Note_on_c, 13, 85, 85
19, 49845, Note_on_c, 13, 85, 0
19, 49860, Note_on_c, 13, 83, 85
19, 49890, Note_on_c, 13, 83, 0
19, 49920, Note_on_c, 13, 83, 95
19, 49980, Note_on_c, 13, 83, 0
19, 49980, Note_on_c, 13, 81, 85
19, 50025, Note_on_c, 13, 81, 0
19, 50040, Note_on_c, 13, 78, 85
19, 50070, Note_on_c, 13, 78, 0
19, 50100, Note_on_c, 13, 81, 85
19, 50130, Note_on_c, 13, 81, 0
19, 50160, Note_on_c, 13, 81, 85
19, 50220, Note_on_c, 13, 81, 0
19, 50220, Note_on_c, 13, 79, 85
19, 50265, Note_on_c, 13, 79, 0
19, 50280, Note_on_c, 13, 78, 85
19, 50310, Note_on_c, 13, 78, 0
19, 50340, Note_on_c, 13, 76, 85
19, 50370, Note_on_c, 13, 76, 0
19, 50400, Note_on_c, 13, 74, 85
19, 50445, Note_on_c, 13, 74, 0
19, 50460, Note_on_c, 13, 69, 85
19, 50505, Note_on_c, 13, 69, 0
19, 50520, Note_on_c, 13, 71, 85
19, 50565, Note_on_c, 13, 71, 0
19, 50580, Note_on_c, 13, 73, 85
19, 50625, Note_on_c, 13, 73, 0
19, 50640, Note_on_c, 13, 74, 85
19, 50670, Note_on_c, 13, 74, 0
19, 50700, Note_on_c, 13, 74, 85
19, 50730, Note_on_c, 13, 74, 0
19, 50760, Note_on_c, 13, 76, 85
19, 50775, Note_on_c, 13, 76, 0
19, 50775, Note_on_c, 13, 78, 85
19, 50790, Note_on_c, 13, 78, 0
19, 50790, Note_on_c, 13, 76, 85
19, 50805, Note_on_c, 13, 76, 0
19, 50805, Note_on_c, 13, 78, 85
19, 50820, Note_on_c, 13, 78, 0
19, 50820, Note_on_c, 13, 74, 85
19, 50850, Note_on_c, 13, 74, 0
19, 50850, Note_on_c, 13, 76, 85
19, 50880, Note_on_c, 13, 76, 0
19, 50880, Note_on_c, 13, 78, 85
19, 50940, Note_on_c, 13, 78, 0
19, 50940, Note_on_c, 13, 73, 85
19, 50985, Note_on_c, 13, 73, 0
19, 51000, Note_on_c, 13, 74, 85
19, 51045, Note_on_c, 13, 74, 0
19, 51060, Note_on_c, 13, 76, 85
19, 51105, Note_on_c, 13, 76, 0
19, 51120, Note_on_c, 13, 78, 85
19, 51165, Note_on_c, 13, 78, 0
19, 51180, Note_on_c, 13, 78, 85
19, 51225, Note_on_c, 13, 78, 0
19, 51240, Note_on_c, 13, 79, 85
19, 51255, Note_on_c, 13, 79, 0
19, 51255, Note_on_c, 13, 81, 86
19, 51270, Note_on_c, 13, 81, 0
19, 51270, Note_on_c, 13, 79, 86
19, 51285, Note_on_c, 13, 79, 0
19, 51285, Note_on_c, 13, 81, 86
19, 51300, Note_on_c, 13, 81, 0
19, 51300, Note_on_c, 13, 78, 86
19, 51330, Note_on_c, 13, 78, 0
19, 51330, Note_on_c, 13, 79, 88
19, 51360, Note_on_c, 13, 79, 0
19, 51360, Note_on_c, 13, 81, 88
19, 51405, Note_on_c, 13, 81, 0
19, 51420, Note_on_c, 13, 81, 88
19, 51465, Note_on_c, 13, 81, 0
19, 51480, Note_on_c, 13, 82, 89
19, 51495, Note_on_c, 13, 82, 0
19, 51495, Note_on_c, 13, 83, 91
19, 51510, Note_on_c, 13, 83, 0
19, 51510, Note_on_c, 13, 82, 91
19, 51525, Note_on_c, 13, 82, 0
19, 51525, Note_on_c, 13, 83, 91
19, 51540, Note_on_c, 13, 83, 0
19, 51540, Note_on_c, 13, 80, 92
19, 51570, Note_on_c, 13, 80, 0
19, 51570, Note_on_c, 13, 82, 94
19, 51600, Note_on_c, 13, 82, 0
19, 51600, Note_on_c, 13, 83, 98
19, 51720, Note_on_c, 13, 83, 0
19, 51840, Note_on_c, 13, 71, 40
19, 52020, Note_on_c, 13, 71, 0
19, 52020, Note_on_c, 13, 76, 47
19, 52065, Note_on_c, 13, 76, 0
19, 52080, Note_on_c, 13, 74, 49
19, 52140, Note_on_c, 13, 74, 0
19, 52140, Note_on_c, 13, 73, 49
19, 52200, Note_on_c, 13, 73, 0
19, 52200, Note_on_c, 13, 71, 43
19, 52260, Note_on_c, 13, 71, 0
19, 52260, Note_on_c, 13, 69, 41
19, 52320, Note_on_c, 13, 69, 0
19, 52320, Note_on_c, 13, 74, 40
19, 52380, Note_on_c, 13, 74, 0
19, 52440, Note_on_c, 13, 78, 59
19, 52500, Note_on_c, 13, 78, 0
19, 52560, Note_on_c, 13, 74, 57
19, 52620, Note_on_c, 13, 74, 0
19, 52800, Note_on_c, 13, 62, 100
19, 52800, Note_on_c, 13, 74, 100
19, 52920, Note_on_c, 13, 74, 0
19, 52920, Note_on_c, 13, 62, 0
19, 52980, Note_on_c, 13, 69, 91
19, 53025, Note_on_c, 13, 69, 0
19, 53040, Note_on_c, 13, 74, 91
19, 53160, Note_on_c, 13, 74, 0
19, 53220, Note_on_c, 13, 69, 91
19, 53265, Note_on_c, 13, 69, 0
19, 53280, Note_on_c, 13, 74, 91
19, 53325, Note_on_c, 13, 74, 0
19, 53340, Note_on_c, 13, 69, 91
19, 53385, Note_on_c, 13, 69, 0
19, 53400, Note_on_c, 13, 74, 91
19, 53445, Note_on_c, 13, 74, 0
19, 53460, Note_on_c, 13, 78, 91
19, 53505, Note_on_c, 13, 78, 0
19, 53520, Note_on_c, 13, 81, 91
19, 53640, Note_on_c, 13, 81, 0
19, 53760, Note_on_c, 13, 81, 91
19, 53880, Note_on_c, 13, 81, 0
19, 53940, Note_on_c, 13, 78, 91
19, 53985, Note_on_c, 13, 78, 0
19, 54000, Note_on_c, 13, 81, 91
19, 54120, Note_on_c, 13, 81, 0
19, 54180, Note_on_c, 13, 78, 91
19, 54225, Note_on_c, 13, 78, 0
19, 54240, Note_on_c, 13, 81, 91
19, 54285, Note_on_c, 13, 81, 0
19, 54300, Note_on_c, 13, 78, 91
19, 54345, Note_on_c, 13, 78, 0
19, 54360, Note_on_c, 13, 75, 91
19, 54405, Note_on_c, 13, 75, 0
19, 54420, Note_on_c, 13, 78, 91
19, 54465, Note_on_c, 13, 78, 0
19, 54480, Note_on_c, 13, 71, 91
19, 54600, Note_on_c, 13, 71, 0
19, 54900, Note_on_c, 13, 79, 55
19, 54945, Note_on_c, 13, 79, 0
19, 54960, Note_on_c, 13, 84, 55
19, 55020, Note_on_c, 13, 84, 0
19, 55020, Note_on_c, 13, 83, 55
19, 55080, Note_on_c, 13, 83, 0
19, 55080, Note_on_c, 13, 81, 55
19, 55140, Note_on_c, 13, 81, 0
19, 55140, Note_on_c, 13, 79, 55
19, 55200, Note_on_c, 13, 79, 0
19, 55200, Note_on_c, 13, 81, 55
19, 55215, Note_on_c, 13, 81, 0
19, 55215, Note_on_c, 13, 83, 55
19, 55230, Note_on_c, 13, 83, 0
19, 55230, Note_on_c, 13, 81, 55
19, 55245, Note_on_c, 13, 81, 0
19, 55245, Note_on_c, 13, 83, 55
19, 55260, Note_on_c, 13, 83, 0
19, 55260, Note_on_c, 13, 79, 55
19, 55320, Note_on_c, 13, 79, 0
19, 55380, Note_on_c, 13, 79, 55
19, 55410, Note_on_c, 13, 79, 0
19, 55440, Note_on_c, 13, 79, 55
19, 55470, Note_on_c, 13, 79, 0
19, 55500, Note_on_c, 13, 79, 55
19, 55530, Note_on_c, 13, 79, 0
19, 55560, Note_on_c, 13, 79, 55
19, 55590, Note_on_c, 13, 79, 0
19, 55620, Note_on_c, 13, 79, 55
19, 55650, Note_on_c, 13, 79, 0
19, 55680, Note_on_c, 13, 81, 55
19, 55695, Note_on_c, 13, 81, 0
19, 55695, Note_on_c, 13, 83, 55
19, 55710, Note_on_c, 13, 83, 0
19, 55710, Note_on_c, 13, 81, 55
19, 55725, Note_on_c, 13, 81, 0
19, 55725, Note_on_c, 13, 83, 55
19, 55740, Note_on_c, 13, 83, 0
19, 55740, Note_on_c, 13, 79, 55
19, 55800, Note_on_c, 13, 79, 0
19, 55860, Note_on_c, 13, 79, 55
19, 55905, Note_on_c, 13, 79, 0
19, 55920, Note_on_c, 13, 84, 55
19, 55980, Note_on_c, 13, 84, 0
19, 55980, Note_on_c, 13, 83, 55
19, 56040, Note_on_c, 13, 83, 0
19, 56040, Note_on_c, 13, 81, 55
19, 56100, Note_on_c, 13, 81, 0
19, 56100, Note_on_c, 13, 79, 55
19, 56160, Note_on_c, 13, 79, 0
19, 56160, Note_on_c, 13, 81, 55
19, 56175, Note_on_c, 13, 81, 0
19, 56175, Note_on_c, 13, 83, 55
19, 56190, Note_on_c, 13, 83, 0
19, 56190, Note_on_c, 13, 81, 55
19, 56205, Note_on_c, 13, 81, 0
19, 56205, Note_on_c, 13, 83, 55
19, 56220, Note_on_c, 13, 83, 0
19, 56220, Note_on_c, 13, 79, 55
19, 56280, Note_on_c, 13, 79, 0
19, 56340, Note_on_c, 13, 79, 55
19, 56370, Note_on_c, 13, 79, 0
19, 56400, Note_on_c, 13, 79, 55
19, 56430, Note_on_c, 13, 79, 0
19, 56460, Note_on_c, 13, 79, 55
19, 56490, Note_on_c, 13, 79, 0
19, 56520, Note_on_c, 13, 79, 55
19, 56550, Note_on_c, 13, 79, 0
19, 56580, Note_on_c, 13, 79, 55
19, 56610, Note_on_c, 13, 79, 0
19, 56640, Note_on_c, 13, 81, 55
19, 56655, Note_on_c, 13, 81, 0
19, 56655, Note_on_c, 13, 83, 55
19, 56670, Note_on_c, 13, 83, 0
19, 56670, Note_on_c, 13, 81, 55
19, 56685, Note_on_c, 13, 81, 0
19, 56685, Note_on_c, 13, 83, 55
19, 56700, Note_on_c, 13, 83, 0
19, 56700, Note_on_c, 13, 79, 55
19, 56760, Note_on_c, 13, 79, 0
19, 56820, Note_on_c, 13, 79, 55
19, 56865, Note_on_c, 13, 79, 0
19, 56880, Note_on_c, 13, 84, 55
19, 56940, Note_on_c, 13, 84, 0
19, 56940, Note_on_c, 13, 83, 55
19, 57000, Note_on_c, 13, 83, 0
19, 57000, Note_on_c, 13, 81, 55
19, 57060, Note_on_c, 13, 81, 0
19, 57060, Note_on_c, 13, 79, 55
19, 57120, Note_on_c, 13, 79, 0
19, 57120, Note_on_c, 13, 81, 55
19, 57135, Note_on_c, 13, 81, 0
19, 57135, Note_on_c, 13, 83, 55
19, 57150, Note_on_c, 13, 83, 0
19, 57150, Note_on_c, 13, 81, 55
19, 57165, Note_on_c, 13, 81, 0
19, 57165, Note_on_c, 13, 83, 55
19, 57180, Note_on_c, 13, 83, 0
19, 57180, Note_on_c, 13, 80, 55
19, 57240, Note_on_c, 13, 80, 0
19, 57300, Note_on_c, 13, 80, 55
19, 57330, Note_on_c, 13, 80, 0
19, 57360, Note_on_c, 13, 80, 55
19, 57390, Note_on_c, 13, 80, 0
19, 57420, Note_on_c, 13, 80, 55
19, 57450, Note_on_c, 13, 80, 0
19, 57480, Note_on_c, 13, 80, 55
19, 57510, Note_on_c, 13, 80, 0
19, 57540, Note_on_c, 13, 80, 55
19, 57570, Note_on_c, 13, 80, 0
19, 57600, Note_on_c, 13, 83, 55
19, 57615, Note_on_c, 13, 83, 0
19, 57615, Note_on_c, 13, 84, 55
19, 57630, Note_on_c, 13, 84, 0
19, 57630, Note_on_c, 13, 83, 55
19, 57645, Note_on_c, 13, 83, 0
19, 57645, Note_on_c, 13, 84, 55
19, 57660, Note_on_c, 13, 84, 0
19, 57660, Note_on_c, 13, 81, 55
19, 57720, Note_on_c, 13, 81, 0
19, 57780, Note_on_c, 13, 81, 55
19, 57825, Note_on_c, 13, 81, 0
19, 57840, Note_on_c, 13, 84, 55
19, 57900, Note_on_c, 13, 84, 0
19, 57900, Note_on_c, 13, 82, 55
19, 57960, Note_on_c, 13, 82, 0
19, 57960, Note_on_c, 13, 81, 55
19, 58020, Note_on_c, 13, 81, 0
19, 58020, Note_on_c, 13, 79, 55
19, 58080, Note_on_c, 13, 79, 0
19, 58080, Note_on_c, 13, 79, 55
19, 58095, Note_on_c, 13, 79, 0
19, 58095, Note_on_c, 13, 81, 55
19, 58110, Note_on_c, 13, 81, 0
19, 58110, Note_on_c, 13, 79, 55
19, 58125, Note_on_c, 13, 79, 0
19, 58125, Note_on_c, 13, 81, 55
19, 58140, Note_on_c, 13, 81, 0
19, 58140, Note_on_c, 13, 78, 55
19, 58200, Note_on_c, 13, 78, 0
19, 58260, Note_on_c, 13, 78, 55
19, 58290, Note_on_c, 13, 78, 0
19, 58320, Note_on_c, 13, 78, 55
19, 58350, Note_on_c, 13, 78, 0
19, 58380, Note_on_c, 13, 78, 55
19, 58410, Note_on_c, 13, 78, 0
19, 58440, Note_on_c, 13, 78, 55
19, 58470, Note_on_c, 13, 78, 0
19, 58500, Note_on_c, 13, 78, 55
19, 58530, Note_on_c, 13, 78, 0
19, 58560, Note_on_c, 13, 81, 55
19, 58575, Note_on_c, 13, 81, 0
19, 58575, Note_on_c, 13, 82, 55
19, 58590, Note_on_c, 13, 82, 0
19, 58590, Note_on_c, 13, 81, 55
19, 58605, Note_on_c, 13, 81, 0
19, 58605, Note_on_c, 13, 82, 55
19, 58620, Note_on_c, 13, 82, 0
19, 58620, Note_on_c, 13, 79, 55
19, 58680, Note_on_c, 13, 79, 0
19, 58740, Note_on_c, 13, 75, 55
19, 58785, Note_on_c, 13, 75, 0
19, 58800, Note_on_c, 13, 79, 55
19, 58860, Note_on_c, 13, 79, 0
19, 58860, Note_on_c, 13, 77, 55
19, 58920, Note_on_c, 13, 77, 0
19, 58920, Note_on_c, 13, 76, 55
19, 58980, Note_on_c, 13, 76, 0
19, 58980, Note_on_c, 13, 74, 55
19, 59040, Note_on_c, 13, 74, 0
19, 59040, Note_on_c, 13, 74, 55
19, 59055, Note_on_c, 13, 74, 0
19, 59055, Note_on_c, 13, 75, 55
19, 59070, Note_on_c, 13, 75, 0
19, 59070, Note_on_c, 13, 74, 55
19, 59085, Note_on_c, 13, 74, 0
19, 59085, Note_on_c, 13, 75, 55
19, 59100, Note_on_c, 13, 75, 0
19, 59100, Note_on_c, 13, 73, 55
19, 59160, Note_on_c, 13, 73, 0
19, 59220, Note_on_c, 13, 73, 55
19, 59250, Note_on_c, 13, 73, 0
19, 59280, Note_on_c, 13, 73, 55
19, 59310, Note_on_c, 13, 73, 0
19, 59340, Note_on_c, 13, 73, 55
19, 59370, Note_on_c, 13, 73, 0
19, 59400, Note_on_c, 13, 73, 55
19, 59430, Note_on_c, 13, 73, 0
19, 59460, Note_on_c, 13, 73, 55
19, 59490, Note_on_c, 13, 73, 0
19, 59520, Note_on_c, 13, 76, 53
19, 59535, Note_on_c, 13, 76, 0
19, 59535, Note_on_c, 13, 78, 53
19, 59550, Note_on_c, 13, 78, 0
19, 59550, Note_on_c, 13, 76, 53
19, 59565, Note_on_c, 13, 76, 0
19, 59565, Note_on_c, 13, 78, 53
19, 59580, Note_on_c, 13, 78, 0
19, 59580, Note_on_c, 13, 74, 53
19, 59640, Note_on_c, 13, 74, 0
19, 59700, Note_on_c, 13, 62, 91
19, 59760, Note_on_c, 13, 62, 0
19, 59760, Note_on_c, 13, 64, 91
19, 59820, Note_on_c, 13, 64, 0
19, 59820, Note_on_c, 13, 66, 91
19, 59880, Note_on_c, 13, 66, 0
19, 59880, Note_on_c, 13, 67, 91
19, 59940, Note_on_c, 13, 67, 0
19, 59940, Note_on_c, 13, 69, 91
19, 60000, Note_on_c, 13, 69, 0
19, 60000, Note_on_c, 13, 72, 91
19, 60060, Note_on_c, 13, 72, 0
19, 60060, Note_on_c, 13, 70, 91
19, 60120, Note_on_c, 13, 70, 0
19, 60180, Note_on_c, 13, 66, 91
19, 60240, Note_on_c, 13, 66, 0
19, 60240, Note_on_c, 13, 67, 91
19, 60300, Note_on_c, 13, 67, 0
19, 60300, Note_on_c, 13, 69, 91
19, 60360, Note_on_c, 13, 69, 0
19, 60360, Note_on_c, 13, 70, 91
19, 60420, Note_on_c, 13, 70, 0
19, 60420, Note_on_c, 13, 73, 91
19, 60480, Note_on_c, 13, 73, 0
19, 60480, Note_on_c, 13, 76, 91
19, 60540, Note_on_c, 13, 76, 0
19, 60540, Note_on_c, 13, 74, 91
19, 60600, Note_on_c, 13, 74, 0
19, 60660, Note_on_c, 13, 74, 53
19, 60720, Note_on_c, 13, 74, 0
19, 60720, Note_on_c, 13, 76, 53
19, 60780, Note_on_c, 13, 76, 0
19, 60780, Note_on_c, 13, 78, 53
19, 60840, Note_on_c, 13, 78, 0
19, 60840, Note_on_c, 13, 79, 53
19, 60900, Note_on_c, 13, 79, 0
19, 60900, Note_on_c, 13, 81, 52
19, 60960, Note_on_c, 13, 81, 0
19, 60960, Note_on_c, 13, 82, 50
19, 61080, Note_on_c, 13, 82, 0
19, 61080, Note_on_c, 13, 83, 46
19, 61200, Note_on_c, 13, 83, 0
19, 61200, Note_on_c, 13, 84, 43
19, 61320, Note_on_c, 13, 84, 0
19, 61320, Note_on_c, 13, 85, 40
19, 61440, Note_on_c, 13, 85, 0
19, 61440, Note_on_c, 13, 86, 59
19, 62145, Note_on_c, 13, 86, 0
19, 62160, Note_on_c, 13, 78, 52
19, 62175, Note_on_c, 13, 78, 0
19, 62175, Note_on_c, 13, 79, 53
19, 62190, Note_on_c, 13, 79, 0
19, 62190, Note_on_c, 13, 78, 55
19, 62205, Note_on_c, 13, 78, 0
19, 62205, Note_on_c, 13, 79, 58
19, 62220, Note_on_c, 13, 79, 0
19, 62220, Note_on_c, 13, 78, 59
19, 62235, Note_on_c, 13, 78, 0
19, 62235, Note_on_c, 13, 79, 61
19, 62250, Note_on_c, 13, 79, 0
19, 62250, Note_on_c, 13, 78, 62
19, 62265, Note_on_c, 13, 78, 0
19, 62265, Note_on_c, 13, 79, 65
19, 62280, Note_on_c, 13, 79, 0
19, 62280, Note_on_c, 13, 78, 67
19, 62295, Note_on_c, 13, 78, 0
19, 62295, Note_on_c, 13, 79, 68
19, 62310, Note_on_c, 13, 79, 0
19, 62310, Note_on_c, 13, 78, 70
19, 62325, Note_on_c, 13, 78, 0
19, 62325, Note_on_c, 13, 79, 71
19, 62340, Note_on_c, 13, 79, 0
19, 62340, Note_on_c, 13, 76, 74
19, 62370, Note_on_c, 13, 76, 0
19, 62370, Note_on_c, 13, 78, 77
19, 62400, Note_on_c, 13, 78, 0
19, 62400, Note_on_c, 13, 79, 93
19, 62520, Note_on_c, 13, 79, 0
19, 62580, Note_on_c, 13, 74, 92
19, 62610, Note_on_c, 13, 74, 0
19, 62640, Note_on_c, 13, 79, 92
19, 62760, Note_on_c, 13, 79, 0
19, 62820, Note_on_c, 13, 74, 91
19, 62850, Note_on_c, 13, 74, 0
19, 62880, Note_on_c, 13, 79, 90
19, 62910, Note_on_c, 13, 79, 0
19, 62940, Note_on_c, 13, 74, 90
19, 62970, Note_on_c, 13, 74, 0
19, 63000, Note_on_c, 13, 79, 90
19, 63030, Note_on_c, 13, 79, 0
19, 63060, Note_on_c, 13, 83, 90
19, 63090, Note_on_c, 13, 83, 0
19, 63120, Note_on_c, 13, 86, 89
19, 63240, Note_on_c, 13, 86, 0
19, 63360, Note_on_c, 13, 84, 104
19, 63480, Note_on_c, 13, 84, 0
19, 63540, Note_on_c, 13, 81, 87
19, 63570, Note_on_c, 13, 81, 0
19, 63600, Note_on_c, 13, 84, 86
19, 63720, Note_on_c, 13, 84, 0
19, 63780, Note_on_c, 13, 81, 85
19, 63810, Note_on_c, 13, 81, 0
19, 63840, Note_on_c, 13, 84, 92
19, 63870, Note_on_c, 13, 84, 0
19, 63900, Note_on_c, 13, 81, 85
19, 63930, Note_on_c, 13, 81, 0
19, 63960, Note_on_c, 13, 78, 92
19, 63990, Note_on_c, 13, 78, 0
19, 64020, Note_on_c, 13, 81, 85
19, 64050, Note_on_c, 13, 81, 0
19, 64080, Note_on_c, 13, 74, 94
19, 64200, Note_on_c, 13, 74, 0
19, 64320, Note_on_c, 13, 62, 92
19, 64320, Note_on_c, 13, 79, 92
19, 64320, Note_on_c, 13, 71, 92
19, 64380, Note_on_c, 13, 71, 0
19, 64380, Note_on_c, 13, 79, 0
19, 64380, Note_on_c, 13, 62, 0
19, 64440, Note_on_c, 13, 79, 85
19, 64620, Note_on_c, 13, 79, 0
19, 64620, Note_on_c, 13, 83, 74
19, 64680, Note_on_c, 13, 83, 0
19, 64680, Note_on_c, 13, 81, 74
19, 64710, Note_on_c, 13, 81, 0
19, 64740, Note_on_c, 13, 79, 80
19, 64770, Note_on_c, 13, 79, 0
19, 64800, Note_on_c, 13, 79, 86
19, 64815, Note_on_c, 13, 79, 0
19, 64815, Note_on_c, 13, 81, 86
19, 64830, Note_on_c, 13, 81, 0
19, 64830, Note_on_c, 13, 79, 86
19, 64845, Note_on_c, 13, 79, 0
19, 64845, Note_on_c, 13, 81, 86
19, 64860, Note_on_c, 13, 81, 0
19, 64860, Note_on_c, 13, 78, 83
19, 64910, Note_on_c, 13, 78, 0
19, 64920, Note_on_c, 13, 78, 77
19, 65100, Note_on_c, 13, 78, 0
19, 65100, Note_on_c, 13, 81, 85
19, 65160, Note_on_c, 13, 81, 0
19, 65160, Note_on_c, 13, 84, 85
19, 65190, Note_on_c, 13, 84, 0
19, 65220, Note_on_c, 13, 78, 85
19, 65250, Note_on_c, 13, 78, 0
19, 65280, Note_on_c, 13, 81, 85
19, 65340, Note_on_c, 13, 81, 0
19, 65340, Note_on_c, 13, 79, 85
19, 65370, Note_on_c, 13, 79, 0
19, 65400, Note_on_c, 13, 79, 85
19, 65580, Note_on_c, 13, 79, 0
19, 65580, Note_on_c, 13, 83, 85
19, 65640, Note_on_c, 13, 83, 0
19, 65640, Note_on_c, 13, 81, 85
19, 65670, Note_on_c, 13, 81, 0
19, 65700, Note_on_c, 13, 79, 85
19, 65730, Note_on_c, 13, 79, 0
19, 65760, Note_on_c, 13, 79, 85
19, 65775, Note_on_c, 13, 79, 0
19, 65775, Note_on_c, 13, 81, 85
19, 65790, Note_on_c, 13, 81, 0
19, 65790, Note_on_c, 13, 79, 85
19, 65805, Note_on_c, 13, 79, 0
19, 65805, Note_on_c, 13, 81, 85
19, 65820, Note_on_c, 13, 81, 0
19, 65820, Note_on_c, 13, 78, 85
19, 65870, Note_on_c, 13, 78, 0
19, 65880, Note_on_c, 13, 78, 85
19, 66060, Note_on_c, 13, 78, 0
19, 66060, Note_on_c, 13, 81, 85
19, 66120, Note_on_c, 13, 81, 0
19, 66120, Note_on_c, 13, 84, 85
19, 66150, Note_on_c, 13, 84, 0
19, 66180, Note_on_c, 13, 78, 85
19, 66210, Note_on_c, 13, 78, 0
19, 66240, Note_on_c, 13, 79, 85
19, 66270, Note_on_c, 13, 79, 0
19, 66300, Note_on_c, 13, 79, 85
19, 66330, Note_on_c, 13, 79, 0
19, 66360, Note_on_c, 13, 79, 85
19, 66390, Note_on_c, 13, 79, 0
19, 66390, Note_on_c, 13, 78, 85
19, 66420, Note_on_c, 13, 78, 0
19, 66420, Note_on_c, 13, 76, 85
19, 66450, Note_on_c, 13, 76, 0
19, 66450, Note_on_c, 13, 78, 85
19, 66480, Note_on_c, 13, 78, 0
19, 66480, Note_on_c, 13, 79, 85
19, 66510, Note_on_c, 13, 79, 0
19, 66540, Note_on_c, 13, 79, 85
19, 66570, Note_on_c, 13, 79, 0
19, 66600, Note_on_c, 13, 83, 85
19, 66630, Note_on_c, 13, 83, 0
19, 66630, Note_on_c, 13, 81, 85
19, 66660, Note_on_c, 13, 81, 0
19, 66660, Note_on_c, 13, 79, 85
19, 66690, Note_on_c, 13, 79, 0
19, 66690, Note_on_c, 13, 81, 83
19, 66720, Note_on_c, 13, 81, 0
19, 66720, Note_on_c, 13, 83, 83
19, 66750, Note_on_c, 13, 83, 0
19, 66780, Note_on_c, 13, 83, 83
19, 66810, Note_on_c, 13, 83, 0
19, 66840, Note_on_c, 13, 86, 83
19, 66870, Note_on_c, 13, 86, 0
19, 66870, Note_on_c, 13, 84, 80
19, 66900, Note_on_c, 13, 84, 0
19, 66900, Note_on_c, 13, 83, 79
19, 66930, Note_on_c, 13, 83, 0
19, 66930, Note_on_c, 13, 84, 76
19, 66960, Note_on_c, 13, 84, 0
19, 66960, Note_on_c, 13, 86, 71
19, 67080, Note_on_c, 13, 86, 0
19, 67200, Note_on_c, 13, 74, 56
19, 67440, Note_on_c, 13, 74, 0
19, 67440, Note_on_c, 13, 76, 55
19, 67680, Note_on_c, 13, 76, 0
19, 67680, Note_on_c, 13, 74, 57
19, 67710, Note_on_c, 13, 74, 0
19, 67710, Note_on_c, 13, 72, 59
19, 67790, Note_on_c, 13, 72, 0
19, 67800, Note_on_c, 13, 72, 58
19, 67920, Note_on_c, 13, 72, 0
19, 67920, Note_on_c, 13, 72, 57
19, 67950, Note_on_c, 13, 72, 0
19, 67950, Note_on_c, 13, 71, 55
19, 68030, Note_on_c, 13, 71, 0
19, 68040, Note_on_c, 13, 71, 53
19, 68160, Note_on_c, 13, 71, 0
19, 68160, Note_on_c, 13, 71, 57
19, 68190, Note_on_c, 13, 71, 0
19, 68190, Note_on_c, 13, 69, 56
19, 68270, Note_on_c, 13, 69, 0
19, 68280, Note_on_c, 13, 69, 55
19, 68400, Note_on_c, 13, 69, 0
19, 68400, Note_on_c, 13, 67, 54
19, 68460, Note_on_c, 13, 67, 0
19, 68460, Note_on_c, 13, 66, 55
19, 68490, Note_on_c, 13, 66, 0
19, 68520, Note_on_c, 13, 64, 55
19, 68550, Note_on_c, 13, 64, 0
19, 68580, Note_on_c, 13, 66, 55
19, 68610, Note_on_c, 13, 66, 0
19, 68640, Note_on_c, 13, 67, 56
19, 68700, Note_on_c, 13, 67, 0
19, 68760, Note_on_c, 13, 69, 57
19, 68820, Note_on_c, 13, 69, 0
19, 68880, Note_on_c, 13, 71, 57
19, 68940, Note_on_c, 13, 71, 0
19, 69120, Note_on_c, 13, 74, 56
19, 69360, Note_on_c, 13, 74, 0
19, 69360, Note_on_c, 13, 76, 59
19, 69600, Note_on_c, 13, 76, 0
19, 69600, Note_on_c, 13, 74, 46
19, 69660, Note_on_c, 13, 74, 0
19, 69660, Note_on_c, 13, 72, 51
19, 69690, Note_on_c, 13, 72, 0
19, 69720, Note_on_c, 13, 72, 51
19, 69750, Note_on_c, 13, 72, 0
19, 69780, Note_on_c, 13, 72, 51
19, 69810, Note_on_c, 13, 72, 0
19, 69840, Note_on_c, 13, 72, 51
19, 69900, Note_on_c, 13, 72, 0
19, 69900, Note_on_c, 13, 71, 50
19, 69930, Note_on_c, 13, 71, 0
19, 69960, Note_on_c, 13, 71, 49
19, 69990, Note_on_c, 13, 71, 0
19, 70020, Note_on_c, 13, 71, 49
19, 70050, Note_on_c, 13, 71, 0
19, 70080, Note_on_c, 13, 71, 49
19, 70140, Note_on_c, 13, 71, 0
19, 70140, Note_on_c, 13, 69, 50
19, 70170, Note_on_c, 13, 69, 0
19, 70200, Note_on_c, 13, 69, 52
19, 70245, Note_on_c, 13, 69, 0
19, 70260, Note_on_c, 13, 69, 52
19, 70305, Note_on_c, 13, 69, 0
19, 70320, Note_on_c, 13, 67, 52
19, 70380, Note_on_c, 13, 67, 0
19, 70380, Note_on_c, 13, 66, 54
19, 70440, Note_on_c, 13, 66, 0
19, 70440, Note_on_c, 13, 64, 55
19, 70500, Note_on_c, 13, 64, 0
19, 70500, Note_on_c, 13, 66, 55
19, 70560, Note_on_c, 13, 66, 0
19, 70560, Note_on_c, 13, 55, 85
19, 70560, Note_on_c, 13, 67, 85
19, 70860, Note_on_c, 13, 67, 0
19, 70860, Note_on_c, 13, 55, 0
19, 70860, Note_on_c, 13, 67, 61
19, 70875, Note_on_c, 13, 67, 0
19, 70875, Note_on_c, 13, 69, 61
19, 70890, Note_on_c, 13, 69, 0
19, 70890, Note_on_c, 13, 66, 61
19, 70905, Note_on_c, 13, 66, 0
19, 70905, Note_on_c, 13, 67, 61
19, 70920, Note_on_c, 13, 67, 0
19, 70920, Note_on_c, 13, 69, 61
19, 70980, Note_on_c, 13, 69, 0
19, 70980, Note_on_c, 13, 66, 61
19, 71040, Note_on_c, 13, 66, 0
19, 71040, Note_on_c, 13, 71, 91
19, 71340, Note_on_c, 13, 71, 0
19, 71340, Note_on_c, 13, 71, 61
19, 71355, Note_on_c, 13, 71, 0
19, 71355, Note_on_c, 13, 72, 61
19, 71370, Note_on_c, 13, 72, 0
19, 71370, Note_on_c, 13, 69, 61
19, 71385, Note_on_c, 13, 69, 0
19, 71385, Note_on_c, 13, 71, 61
19, 71400, Note_on_c, 13, 71, 0
19, 71400, Note_on_c, 13, 72, 61
19, 71460, Note_on_c, 13, 72, 0
19, 71460, Note_on_c, 13, 69, 61
19, 71520, Note_on_c, 13, 69, 0
19, 71520, Note_on_c, 13, 74, 51
19, 71540, Note_on_c, 13, 74, 0
19, 71550, Note_on_c, 13, 74, 56
19, 71570, Note_on_c, 13, 74, 0
19, 71580, Note_on_c, 13, 74, 59
19, 71600, Note_on_c, 13, 74, 0
19, 71610, Note_on_c, 13, 74, 56
19, 71630, Note_on_c, 13, 74, 0
19, 71640, Note_on_c, 13, 74, 56
19, 71660, Note_on_c, 13, 74, 0
19, 71670, Note_on_c, 13, 74, 56
19, 71690, Note_on_c, 13, 74, 0
19, 71700, Note_on_c, 13, 74, 56
19, 71720, Note_on_c, 13, 74, 0
19, 71730, Note_on_c, 13, 74, 56
19, 71750, Note_on_c, 13, 74, 0
19, 71760, Note_on_c, 13, 76, 56
19, 71780, Note_on_c, 13, 76, 0
19, 71790, Note_on_c, 13, 76, 56
19, 71810, Note_on_c, 13, 76, 0
19, 71820, Note_on_c, 13, 76, 56
19, 71840, Note_on_c, 13, 76, 0
19, 71850, Note_on_c, 13, 76, 56
19, 71870, Note_on_c, 13, 76, 0
19, 71880, Note_on_c, 13, 78, 56
19, 71900, Note_on_c, 13, 78, 0
19, 71910, Note_on_c, 13, 78, 56
19, 71930, Note_on_c, 13, 78, 0
19, 71940, Note_on_c, 13, 78, 57
19, 71960, Note_on_c, 13, 78, 0
19, 71970, Note_on_c, 13, 78, 59
19, 71990, Note_on_c, 13, 78, 0
19, 72000, Note_on_c, 13, 79, 62
19, 72020, Note_on_c, 13, 79, 0
19, 72030, Note_on_c, 13, 79, 65
19, 72050, Note_on_c, 13, 79, 0
19, 72060, Note_on_c, 13, 79, 66
19, 72080, Note_on_c, 13, 79, 0
19, 72090, Note_on_c, 13, 79, 66
19, 72110, Note_on_c, 13, 79, 0
19, 72120, Note_on_c, 13, 81, 66
19, 72140, Note_on_c, 13, 81, 0
19, 72150, Note_on_c, 13, 81, 66
19, 72170, Note_on_c, 13, 81, 0
19, 72180, Note_on_c, 13, 81, 66
19, 72200, Note_on_c, 13, 81, 0
19, 72210, Note_on_c, 13, 81, 68
19, 72230, Note_on_c, 13, 81, 0
19, 72240, Note_on_c, 13, 83, 68
19, 72260, Note_on_c, 13, 83, 0
19, 72270, Note_on_c, 13, 83, 70
19, 72290, Note_on_c, 13, 83, 0
19, 72300, Note_on_c, 13, 83, 70
19, 72320, Note_on_c, 13, 83, 0
19, 72330, Note_on_c, 13, 83, 71
19, 72350, Note_on_c, 13, 83, 0
19, 72360, Note_on_c, 13, 85, 71
19, 72380, Note_on_c, 13, 85, 0
19, 72390, Note_on_c, 13, 85, 73
19, 72410, Note_on_c, 13, 85, 0
19, 72420, Note_on_c, 13, 85, 74
19, 72440, Note_on_c, 13, 85, 0
19, 72450, Note_on_c, 13, 85, 74
19, 72470, Note_on_c, 13, 85, 0
19, 72480, Note_on_c, 13, 86, 85
19, 72660, Note_on_c, 13, 86, 0
19, 72660, Note_on_c, 13, 81, 85
19, 72720, Note_on_c, 13, 81, 0
19, 72720, Note_on_c, 13, 85, 85
19, 72810, Note_on_c, 13, 85, 0
19, 72810, Note_on_c, 13, 81, 85
19, 72840, Note_on_c, 13, 81, 0
19, 72840, Note_on_c, 13, 85, 85
19, 72930, Note_on_c, 13, 85, 0
19, 72930, Note_on_c, 13, 81, 85
19, 72960, Note_on_c, 13, 81, 0
19, 72960, Note_on_c, 13, 86, 85
19, 73140, Note_on_c, 13, 86, 0
19, 73140, Note_on_c, 13, 81, 85
19, 73200, Note_on_c, 13, 81, 0
19, 73200, Note_on_c, 13, 85, 85
19, 73290, Note_on_c, 13, 85, 0
19, 73290, Note_on_c, 13, 81, 85
19, 73320, Note_on_c, 13, 81, 0
19, 73320, Note_on_c, 13, 85, 85
19, 73410, Note_on_c, 13, 85, 0
19, 73410, Note_on_c, 13, 81, 85
19, 73440, Note_on_c, 13, 81, 0
19, 73440, Note_on_c, 13, 86, 100
19, 73470, Note_on_c, 13, 86, 0
19, 73500, Note_on_c, 13, 81, 100
19, 73530, Note_on_c, 13, 81, 0
19, 73560, Note_on_c, 13, 85, 100
19, 73590, Note_on_c, 13, 85, 0
19, 73620, Note_on_c, 13, 81, 100
19, 73650, Note_on_c, 13, 81, 0
19, 73680, Note_on_c, 13, 86, 100
19, 73710, Note_on_c, 13, 86, 0
19, 73740, Note_on_c, 13, 81, 100
19, 73770, Note_on_c, 13, 81, 0
19, 73800, Note_on_c, 13, 85, 100
19, 73830, Note_on_c, 13, 85, 0
19, 73860, Note_on_c, 13, 81, 100
19, 73890, Note_on_c, 13, 81, 0
19, 73920, Note_on_c, 13, 86, 85
19, 73965, Note_on_c, 13, 86, 0
19, 73980, Note_on_c, 13, 62, 85
19, 74025, Note_on_c, 13, 62, 0
19, 74040, Note_on_c, 13, 62, 85
19, 74085, Note_on_c, 13, 62, 0
19, 74100, Note_on_c, 13, 62, 85
19, 74145, Note_on_c, 13, 62, 0
19, 74160, Note_on_c, 13, 62, 85
19, 74280, Note_on_c, 13, 62, 0
19, 74400, Note_on_c, 13, 74, 46
19, 74580, Note_on_c, 13, 74, 0
19, 74580, Note_on_c, 13, 72, 47
19, 74600, Note_on_c, 13, 72, 0
19, 74600, Note_on_c, 13, 71, 47
19, 74620, Note_on_c, 13, 71, 0
19, 74620, Note_on_c, 13, 69, 47
19, 74640, Note_on_c, 13, 69, 0
19, 74640, Note_on_c, 13, 67, 47
19, 74700, Note_on_c, 13, 67, 0
19, 74760, Note_on_c, 13, 76, 47
19, 74820, Note_on_c, 13, 76, 0
19, 74880, Note_on_c, 13, 72, 46
19, 74940, Note_on_c, 13, 72, 0
19, 75000, Note_on_c, 13, 69, 43
19, 75060, Note_on_c, 13, 69, 0
19, 75120, Note_on_c, 13, 74, 59
19, 75180, Note_on_c, 13, 74, 0
19, 75360, Note_on_c, 13, 83, 55
19, 75540, Note_on_c, 13, 83, 0
19, 75540, Note_on_c, 13, 81, 55
19, 75560, Note_on_c, 13, 81, 0
19, 75560, Note_on_c, 13, 79, 55
19, 75580, Note_on_c, 13, 79, 0
19, 75580, Note_on_c, 13, 78, 55
19, 75600, Note_on_c, 13, 78, 0
19, 75600, Note_on_c, 13, 76, 55
19, 75660, Note_on_c, 13, 76, 0
19, 75720, Note_on_c, 13, 84, 55
19, 75780, Note_on_c, 13, 84, 0
19, 75840, Note_on_c, 13, 83, 55
19, 76080, Note_on_c, 13, 83, 0
19, 76080, Note_on_c, 13, 81, 47
19, 76200, Note_on_c, 13, 81, 0
19, 76380, Note_on_c, 13, 86, 55
19, 76410, Note_on_c, 13, 86, 0
19, 76440, Note_on_c, 13, 86, 55
19, 76470, Note_on_c, 13, 86, 0
19, 76500, Note_on_c, 13, 86, 55
19, 76530, Note_on_c, 13, 86, 0
19, 76560, Note_on_c, 13, 86, 55
19, 76590, Note_on_c, 13, 86, 0
19, 76620, Note_on_c, 13, 86, 55
19, 76650, Note_on_c, 13, 86, 0
19, 76680, Note_on_c, 13, 86, 55
19, 76710, Note_on_c, 13, 86, 0
19, 76740, Note_on_c, 13, 86, 55
19, 76770, Note_on_c, 13, 86, 0
19, 76800, Note_on_c, 13, 86, 55
19, 76830, Note_on_c, 13, 86, 0
19, 76860, Note_on_c, 13, 86, 55
19, 76890, Note_on_c, 13, 86, 0
19, 76920, Note_on_c, 13, 86, 55
19, 76950, Note_on_c, 13, 86, 0
19, 76980, Note_on_c, 13, 86, 55
19, 77010, Note_on_c, 13, 86, 0
19, 77040, Note_on_c, 13, 86, 55
19, 77100, Note_on_c, 13, 86, 0
19, 77100, Note_on_c, 13, 84, 55
19, 77160, Note_on_c, 13, 84, 0
19, 77160, Note_on_c, 13, 79, 55
19, 77220, Note_on_c, 13, 79, 0
19, 77220, Note_on_c, 13, 78, 55
19, 77280, Note_on_c, 13, 78, 0
19, 77280, Note_on_c, 13, 78, 55
19, 77340, Note_on_c, 13, 78, 0
19, 77340, Note_on_c, 13, 79, 65
19, 77400, Note_on_c, 13, 79, 0
19, 77460, Note_on_c, 13, 76, 55
19, 77490, Note_on_c, 13, 76, 0
19, 77520, Note_on_c, 13, 76, 55
19, 77580, Note_on_c, 13, 76, 0
19, 77580, Note_on_c, 13, 74, 55
19, 77640, Note_on_c, 13, 74, 0
19, 77700, Note_on_c, 13, 66, 55
19, 77745, Note_on_c, 13, 66, 0
19, 77760, Note_on_c, 13, 67, 67
19, 77880, Note_on_c, 13, 67, 0
19, 77940, Note_on_c, 13, 74, 55
19, 77970, Note_on_c, 13, 74, 0
19, 78000, Note_on_c, 13, 79, 55
19, 78060, Note_on_c, 13, 79, 0
19, 78060, Note_on_c, 13, 78, 55
19, 78120, Note_on_c, 13, 78, 0
19, 78120, Note_on_c, 13, 76, 55
19, 78180, Note_on_c, 13, 76, 0
19, 78180, Note_on_c, 13, 74, 55
19, 78240, Note_on_c, 13, 74, 0
19, 78240, Note_on_c, 13, 76, 55
19, 78255, Note_on_c, 13, 76, 0
19, 78255, Note_on_c, 13, 78, 55
19, 78270, Note_on_c, 13, 78, 0
19, 78270, Note_on_c, 13, 76, 55
19, 78285, Note_on_c, 13, 76, 0
19, 78285, Note_on_c, 13, 78, 55
19, 78300, Note_on_c, 13, 78, 0
19, 78300, Note_on_c, 13, 74, 55
19, 78360, Note_on_c, 13, 74, 0
19, 78420, Note_on_c, 13, 74, 55
19, 78450, Note_on_c, 13, 74, 0
19, 78480, Note_on_c, 13, 74, 55
19, 78510, Note_on_c, 13, 74, 0
19, 78540, Note_on_c, 13, 74, 55
19, 78570, Note_on_c, 13, 74, 0
19, 78600, Note_on_c, 13, 74, 55
19, 78630, Note_on_c, 13, 74, 0
19, 78660, Note_on_c, 13, 74, 55
19, 78690, Note_on_c, 13, 74, 0
19, 78720, Note_on_c, 13, 76, 55
19, 78735, Note_on_c, 13, 76, 0
19, 78735, Note_on_c, 13, 78, 55
19, 78750, Note_on_c, 13, 78, 0
19, 78750, Note_on_c, 13, 76, 55
19, 78765, Note_on_c, 13, 76, 0
19, 78765, Note_on_c, 13, 78, 55
19, 78780, Note_on_c, 13, 78, 0
19, 78780, Note_on_c, 13, 74, 55
19, 78840, Note_on_c, 13, 74, 0
19, 78900, Note_on_c, 13, 74, 55
19, 78945, Note_on_c, 13, 74, 0
19, 78960, Note_on_c, 13, 79, 55
19, 79020, Note_on_c, 13, 79, 0
19, 79020, Note_on_c, 13, 78, 55
19, 79080, Note_on_c, 13, 78, 0
19, 79080, Note_on_c, 13, 76, 55
19, 79140, Note_on_c, 13, 76, 0
19, 79140, Note_on_c, 13, 74, 55
19, 79200, Note_on_c, 13, 74, 0
19, 79200, Note_on_c, 13, 76, 55
19, 79215, Note_on_c, 13, 76, 0
19, 79215, Note_on_c, 13, 78, 55
19, 79230, Note_on_c, 13, 78, 0
19, 79230, Note_on_c, 13, 76, 55
19, 79245, Note_on_c, 13, 76, 0
19, 79245, Note_on_c, 13, 78, 55
19, 79260, Note_on_c, 13, 78, 0
19, 79260, Note_on_c, 13, 74, 55
19, 79320, Note_on_c, 13, 74, 0
19, 79380, Note_on_c, 13, 74, 55
19, 79410, Note_on_c, 13, 74, 0
19, 79440, Note_on_c, 13, 74, 55
19, 79470, Note_on_c, 13, 74, 0
19, 79500, Note_on_c, 13, 74, 55
19, 79530, Note_on_c, 13, 74, 0
19, 79560, Note_on_c, 13, 74, 55
19, 79590, Note_on_c, 13, 74, 0
19, 79620, Note_on_c, 13, 74, 55
19, 79650, Note_on_c, 13, 74, 0
19, 79680, Note_on_c, 13, 76, 55
19, 79695, Note_on_c, 13, 76, 0
19, 79695, Note_on_c, 13, 78, 55
19, 79710, Note_on_c, 13, 78, 0
19, 79710, Note_on_c, 13, 76, 55
19, 79725, Note_on_c, 13, 76, 0
19, 79725, Note_on_c, 13, 78, 55
19, 79740, Note_on_c, 13, 78, 0
19, 79740, Note_on_c, 13, 74, 55
19, 79800, Note_on_c, 13, 74, 0
19, 79920, Note_on_c, 13, 64, 83
19, 79920, Note_on_c, 13, 76, 83
19, 80090, Note_on_c, 13, 76, 0
19, 80090, Note_on_c, 13, 64, 0
19, 80100, Note_on_c, 13, 74, 82
19, 80120, Note_on_c, 13, 74, 0
19, 80120, Note_on_c, 13, 72, 82
19, 80140, Note_on_c, 13, 72, 0
19, 80140, Note_on_c, 13, 71, 82
19, 80160, Note_on_c, 13, 71, 0
19, 80160, Note_on_c, 13, 72, 83
19, 80280, Note_on_c, 13, 72, 0
19, 80400, Note_on_c, 13, 74, 85
19, 80400, Note_on_c, 13, 62, 85
19, 80570, Note_on_c, 13, 62, 0
19, 80570, Note_on_c, 13, 74, 0
19, 80580, Note_on_c, 13, 72, 77
19, 80600, Note_on_c, 13, 72, 0
19, 80600, Note_on_c, 13, 71, 79
19, 80620, Note_on_c, 13, 71, 0
19, 80620, Note_on_c, 13, 69, 83
19, 80640, Note_on_c, 13, 69, 0
19, 80640, Note_on_c, 13, 71, 88
19, 80760, Note_on_c, 13, 71, 0
19, 80880, Note_on_c, 13, 76, 85
19, 80940, Note_on_c, 13, 76, 0
19, 80940, Note_on_c, 13, 78, 85
19, 80970, Note_on_c, 13, 78, 0
19, 80970, Note_on_c, 13, 79, 85
19, 81000, Note_on_c, 13, 79, 0
19, 81000, Note_on_c, 13, 78, 85
19, 81045, Note_on_c, 13, 78, 0
19, 81060, Note_on_c, 13, 76, 85
19, 81090, Note_on_c, 13, 76, 0
19, 81120, Note_on_c, 13, 76, 85
19, 81180, Note_on_c, 13, 76, 0
19, 81180, Note_on_c, 13, 74, 85
19, 81225, Note_on_c, 13, 74, 0
19, 81240, Note_on_c, 13, 71, 85
19, 81270, Note_on_c, 13, 71, 0
19, 81300, Note_on_c, 13, 74, 85
19, 81330, Note_on_c, 13, 74, 0
19, 81360, Note_on_c, 13, 74, 85
19, 81420, Note_on_c, 13, 74, 0
19, 81420, Note_on_c, 13, 72, 85
19, 81465, Note_on_c, 13, 72, 0
19, 81480, Note_on_c, 13, 71, 85
19, 81510, Note_on_c, 13, 71, 0
19, 81540, Note_on_c, 13, 69, 85
19, 81570, Note_on_c, 13, 69, 0
19, 81600, Note_on_c, 13, 67, 85
19, 81720, Note_on_c, 13, 67, 0
19, 81780, Note_on_c, 13, 74, 50
19, 81810, Note_on_c, 13, 74, 0
19, 81840, Note_on_c, 13, 79, 50
19, 81900, Note_on_c, 13, 79, 0
19, 81900, Note_on_c, 13, 78, 50
19, 81960, Note_on_c, 13, 78, 0
19, 81960, Note_on_c, 13, 76, 53
19, 82020, Note_on_c, 13, 76, 0
19, 82020, Note_on_c, 13, 74, 56
19, 82080, Note_on_c, 13, 74, 0
19, 82080, Note_on_c, 13, 76, 58
19, 82095, Note_on_c, 13, 76, 0
19, 82095, Note_on_c, 13, 78, 58
19, 82110, Note_on_c, 13, 78, 0
19, 82110, Note_on_c, 13, 76, 59
19, 82125, Note_on_c, 13, 76, 0
19, 82125, Note_on_c, 13, 78, 59
19, 82140, Note_on_c, 13, 78, 0
19, 82140, Note_on_c, 13, 74, 61
19, 82200, Note_on_c, 13, 74, 0
19, 82260, Note_on_c, 13, 74, 56
19, 82290, Note_on_c, 13, 74, 0
19, 82320, Note_on_c, 13, 74, 55
19, 82350, Note_on_c, 13, 74, 0
19, 82380, Note_on_c, 13, 74, 55
19, 82410, Note_on_c, 13, 74, 0
19, 82440, Note_on_c, 13, 74, 53
19, 82470, Note_on_c, 13, 74, 0
19, 82500, Note_on_c, 13, 74, 52
19, 82530, Note_on_c, 13, 74, 0
19, 82560, Note_on_c, 13, 76, 55
19, 82575, Note_on_c, 13, 76, 0
19, 82575, Note_on_c, 13, 78, 55
19, 82590, Note_on_c, 13, 78, 0
19, 82590, Note_on_c, 13, 76, 55
19, 82605, Note_on_c, 13, 76, 0
19, 82605, Note_on_c, 13, 78, 55
19, 82620, Note_on_c, 13, 78, 0
19, 82620, Note_on_c, 13, 74, 55
19, 82680, Note_on_c, 13, 74, 0
19, 82740, Note_on_c, 13, 74, 55
19, 82785, Note_on_c, 13, 74, 0
19, 82800, Note_on_c, 13, 79, 55
19, 82860, Note_on_c, 13, 79, 0
19, 82860, Note_on_c, 13, 78, 55
19, 82920, Note_on_c, 13, 78, 0
19, 82920, Note_on_c, 13, 76, 55
19, 82980, Note_on_c, 13, 76, 0
19, 82980, Note_on_c, 13, 74, 56
19, 83040, Note_on_c, 13, 74, 0
19, 83040, Note_on_c, 13, 76, 65
19, 83055, Note_on_c, 13, 76, 0
19, 83055, Note_on_c, 13, 78, 65
19, 83070, Note_on_c, 13, 78, 0
19, 83070, Note_on_c, 13, 76, 65
19, 83085, Note_on_c, 13, 76, 0
19, 83085, Note_on_c, 13, 78, 65
19, 83100, Note_on_c, 13, 78, 0
19, 83100, Note_on_c, 13, 74, 64
19, 83160, Note_on_c, 13, 74, 0
19, 83220, Note_on_c, 13, 74, 55
19, 83250, Note_on_c, 13, 74, 0
19, 83280, Note_on_c, 13, 74, 55
19, 83310, Note_on_c, 13, 74, 0
19, 83340, Note_on_c, 13, 74, 55
19, 83370, Note_on_c, 13, 74, 0
19, 83400, Note_on_c, 13, 74, 55
19, 83430, Note_on_c, 13, 74, 0
19, 83460, Note_on_c, 13, 74, 55
19, 83490, Note_on_c, 13, 74, 0
19, 83520, Note_on_c, 13, 76, 59
19, 83535, Note_on_c, 13, 76, 0
19, 83535, Note_on_c, 13, 78, 59
19, 83550, Note_on_c, 13, 78, 0
19, 83550, Note_on_c, 13, 76, 59
19, 83565, Note_on_c, 13, 76, 0
19, 83565, Note_on_c, 13, 78, 59
19, 83580, Note_on_c, 13, 78, 0
19, 83580, Note_on_c, 13, 74, 59
19, 83640, Note_on_c, 13, 74, 0
19, 83760, Note_on_c, 13, 88, 85
19, 83930, Note_on_c, 13, 88, 0
19, 83940, Note_on_c, 13, 86, 85
19, 83960, Note_on_c, 13, 86, 0
19, 83960, Note_on_c, 13, 84, 85
19, 83980, Note_on_c, 13, 84, 0
19, 83980, Note_on_c, 13, 83, 85
19, 84000, Note_on_c, 13, 83, 0
19, 84000, Note_on_c, 13, 84, 85
19, 84120, Note_on_c, 13, 84, 0
19, 84240, Note_on_c, 13, 86, 85
19, 84240, Note_on_c, 13, 74, 85
19, 84410, Note_on_c, 13, 74, 0
19, 84410, Note_on_c, 13, 86, 0
19, 84420, Note_on_c, 13, 84, 82
19, 84440, Note_on_c, 13, 84, 0
19, 84440, Note_on_c, 13, 83, 83
19, 84460, Note_on_c, 13, 83, 0
19, 84460, Note_on_c, 13, 81, 83
19, 84480, Note_on_c, 13, 81, 0
19, 84480, Note_on_c, 13, 83, 86
19, 84600, Note_on_c, 13, 83, 0
19, 84720, Note_on_c, 13, 76, 85
19, 84780, Note_on_c, 13, 76, 0
19, 84780, Note_on_c, 13, 78, 85
19, 84810, Note_on_c, 13, 78, 0
19, 84810, Note_on_c, 13, 79, 85
19, 84840, Note_on_c, 13, 79, 0
19, 84840, Note_on_c, 13, 78, 85
19, 84885, Note_on_c, 13, 78, 0
19, 84900, Note_on_c, 13, 76, 85
19, 84930, Note_on_c, 13, 76, 0
19, 84960, Note_on_c, 13, 74, 85
19, 84990, Note_on_c, 13, 74, 0
19, 85020, Note_on_c, 13, 79, 85
19, 85050, Note_on_c, 13, 79, 0
19, 85080, Note_on_c, 13, 83, 85
19, 85110, Note_on_c, 13, 83, 0
19, 85140, Note_on_c, 13, 86, 85
19, 85170, Note_on_c, 13, 86, 0
19, 85200, Note_on_c, 13, 86, 85
19, 85260, Note_on_c, 13, 86, 0
19, 85260, Note_on_c, 13, 84, 85
19, 85305, Note_on_c, 13, 84, 0
19, 85320, Note_on_c, 13, 83, 85
19, 85350, Note_on_c, 13, 83, 0
19, 85380, Note_on_c, 13, 81, 85
19, 85410, Note_on_c, 13, 81, 0
19, 85440, Note_on_c, 13, 79, 94
19, 85485, Note_on_c, 13, 79, 0
19, 85500, Note_on_c, 13, 62, 85
19, 85545, Note_on_c, 13, 62, 0
19, 85560, Note_on_c, 13, 64, 85
19, 85605, Note_on_c, 13, 64, 0
19, 85620, Note_on_c, 13, 66, 85
19, 85665, Note_on_c, 13, 66, 0
19, 85680, Note_on_c, 13, 67, 85
19, 85725, Note_on_c, 13, 67, 0
19, 85740, Note_on_c, 13, 67, 85
19, 85785, Note_on_c, 13, 67, 0
19, 85800, Note_on_c, 13, 69, 85
19, 85815, Note_on_c, 13, 69, 0
19, 85815, Note_on_c, 13, 71, 85
19, 85830, Note_on_c, 13, 71, 0
19, 85830, Note_on_c, 13, 69, 85
19, 85845, Note_on_c, 13, 69, 0
19, 85845, Note_on_c, 13, 71, 85
19, 85860, Note_on_c, 13, 71, 0
19, 85860, Note_on_c, 13, 67, 85
19, 85890, Note_on_c, 13, 67, 0
19, 85890, Note_on_c, 13, 69, 85
19, 85920, Note_on_c, 13, 69, 0
19, 85920, Note_on_c, 13, 71, 85
19, 85965, Note_on_c, 13, 71, 0
19, 85980, Note_on_c, 13, 66, 85
19, 86025, Note_on_c, 13, 66, 0
19, 86040, Note_on_c, 13, 67, 85
19, 86085, Note_on_c, 13, 67, 0
19, 86100, Note_on_c, 13, 69, 85
19, 86145, Note_on_c, 13, 69, 0
19, 86160, Note_on_c, 13, 71, 85
19, 86205, Note_on_c, 13, 71, 0
19, 86220, Note_on_c, 13, 71, 85
19, 86265, Note_on_c, 13, 71, 0
19, 86280, Note_on_c, 13, 72, 86
19, 86295, Note_on_c, 13, 72, 0
19, 86295, Note_on_c, 13, 74, 86
19, 86310, Note_on_c, 13, 74, 0
19, 86310, Note_on_c, 13, 72, 86
19, 86325, Note_on_c, 13, 72, 0
19, 86325, Note_on_c, 13, 74, 86
19, 86340, Note_on_c, 13, 74, 0
19, 86340, Note_on_c, 13, 71, 86
19, 86370, Note_on_c, 13, 71, 0
19, 86370, Note_on_c, 13, 72, 89
19, 86400, Note_on_c, 13, 72, 0
19, 86400, Note_on_c, 13, 74, 89
19, 86445, Note_on_c, 13, 74, 0
19, 86460, Note_on_c, 13, 74, 91
19, 86505, Note_on_c, 13, 74, 0
19, 86520, Note_on_c, 13, 75, 91
19, 86535, Note_on_c, 13, 75, 0
19, 86535, Note_on_c, 13, 76, 91
19, 86550, Note_on_c, 13, 76, 0
19, 86550, Note_on_c, 13, 75, 91
19, 86565, Note_on_c, 13, 75, 0
19, 86565, Note_on_c, 13, 76, 92
19, 86580, Note_on_c, 13, 76, 0
19, 86580, Note_on_c, 13, 73, 94
19, 86610, Note_on_c, 13, 73, 0
19, 86610, Note_on_c, 13, 75, 97
19, 86640, Note_on_c, 13, 75, 0
19, 86640, Note_on_c, 13, 76, 98
19, 86760, Note_on_c, 13, 76, 0
19, 86880, Note_on_c, 13, 64, 61
19, 87060, Note_on_c, 13, 64, 0
19, 87060, Note_on_c, 13, 69, 61
19, 87105, Note_on_c, 13, 69, 0
19, 87120, Note_on_c, 13, 67, 61
19, 87180, Note_on_c, 13, 67, 0
19, 87180, Note_on_c, 13, 66, 62
19, 87240, Note_on_c, 13, 66, 0
19, 87240, Note_on_c, 13, 64, 62
19, 87300, Note_on_c, 13, 64, 0
19, 87300, Note_on_c, 13, 62, 62
19, 87345, Note_on_c, 13, 62, 0
19, 87360, Note_on_c, 13, 74, 62
19, 87420, Note_on_c, 13, 74, 0
19, 87420, Note_on_c, 13, 73, 62
19, 87480, Note_on_c, 13, 73, 0
19, 87480, Note_on_c, 13, 72, 62
19, 87540, Note_on_c, 13, 72, 0
19, 87540, Note_on_c, 13, 71, 62
19, 87600, Note_on_c, 13, 71, 0
19, 87600, Note_on_c, 13, 74, 61
19, 87660, Note_on_c, 13, 74, 0
19, 87660, Note_on_c, 13, 73, 61
19, 87720, Note_on_c, 13, 73, 0
19, 87720, Note_on_c, 13, 72, 61
19, 87780, Note_on_c, 13, 72, 0
19, 87780, Note_on_c, 13, 71, 59
19, 87825, Note_on_c, 13, 71, 0
19, 87840, Note_on_c, 13, 64, 61
19, 88020, Note_on_c, 13, 64, 0
19, 88020, Note_on_c, 13, 69, 67
19, 88065, Note_on_c, 13, 69, 0
19, 88080, Note_on_c, 13, 67, 70
19, 88140, Note_on_c, 13, 67, 0
19, 88140, Note_on_c, 13, 66, 70
19, 88200, Note_on_c, 13, 66, 0
19, 88200, Note_on_c, 13, 64, 70
19, 88260, Note_on_c, 13, 64, 0
19, 88260, Note_on_c, 13, 62, 70
19, 88305, Note_on_c, 13, 62, 0
19, 88320, Note_on_c, 13, 74, 70
19, 88380, Note_on_c, 13, 74, 0
19, 88380, Note_on_c, 13, 76, 70
19, 88440, Note_on_c, 13, 76, 0
19, 88440, Note_on_c, 13, 78, 70
19, 88500, Note_on_c, 13, 78, 0
19, 88500, Note_on_c, 13, 79, 70
19, 88560, Note_on_c, 13, 79, 0
19, 88560, Note_on_c, 13, 74, 70
19, 88620, Note_on_c, 13, 74, 0
19, 88620, Note_on_c, 13, 76, 70
19, 88680, Note_on_c, 13, 76, 0
19, 88680, Note_on_c, 13, 78, 70
19, 88740, Note_on_c, 13, 78, 0
19, 88740, Note_on_c, 13, 79, 76
19, 88785, Note_on_c, 13, 79, 0
19, 88800, Note_on_c, 13, 81, 75
19, 88920, Note_on_c, 13, 81, 0
19, 89040, Note_on_c, 13, 74, 91
19, 89040, Note_on_c, 13, 86, 91
19, 89160, Note_on_c, 13, 86, 0
19, 89160, Note_on_c, 13, 74, 0
19, 89280, Note_on_c, 13, 62, 96
19, 89280, Note_on_c, 13, 71, 96
19, 89280, Note_on_c, 13, 79, 96
19, 89400, Note_on_c, 13, 79, 0
19, 89400, Note_on_c, 13, 71, 0
19, 89400, Note_on_c, 13, 62, 0
19, 89460, Note_on_c, 13, 74, 95
19, 89505, Note_on_c, 13, 74, 0
19, 89520, Note_on_c, 13, 71, 94
19, 89565, Note_on_c, 13, 71, 0
19, 89580, Note_on_c, 13, 67, 90
19, 89625, Note_on_c, 13, 67, 0
19, 89640, Note_on_c, 13, 71, 90
19, 89685, Note_on_c, 13, 71, 0
19, 89700, Note_on_c, 13, 74, 89
19, 89745, Note_on_c, 13, 74, 0
19, 89760, Note_on_c, 13, 79, 88
19, 89805, Note_on_c, 13, 79, 0
19, 89820, Note_on_c, 13, 74, 88
19, 89865, Note_on_c, 13, 74, 0
19, 89880, Note_on_c, 13, 79, 88
19, 89925, Note_on_c, 13, 79, 0
19, 89940, Note_on_c, 13, 83, 90
19, 89985, Note_on_c, 13, 83, 0
19, 90000, Note_on_c, 13, 86, 92
19, 90100, Note_on_c, 13, 86, 0
19, 90120, Note_on_c, 13, 62, 95
19, 90120, Note_on_c, 13, 69, 95
19, 90120, Note_on_c, 13, 78, 95
19, 90220, Note_on_c, 13, 78, 0
19, 90220, Note_on_c, 13, 69, 0
19, 90220, Note_on_c, 13, 62, 0
19, 90240, Note_on_c, 13, 62, 100
19, 90240, Note_on_c, 13, 71, 100
19, 90240, Note_on_c, 13, 79, 100
19, 90360, Note_on_c, 13, 79, 0
19, 90360, Note_on_c, 13, 71, 0
19, 90360, Note_on_c, 13, 62, 0
19, 90420, Note_on_c, 13, 74, 98
19, 90465, Note_on_c, 13, 74, 0
19, 90480, Note_on_c, 13, 71, 98
19, 90525, Note_on_c, 13, 71, 0
19, 90540, Note_on_c, 13, 67, 95
19, 90585, Note_on_c, 13, 67, 0
19, 90600, Note_on_c, 13, 71, 94
19, 90645, Note_on_c, 13, 71, 0
19, 90660, Note_on_c, 13, 74, 92
19, 90705, Note_on_c, 13, 74, 0
19, 90720, Note_on_c, 13, 79, 91
19, 90765, Note_on_c, 13, 79, 0
19, 90780, Note_on_c, 13, 74, 91
19, 90825, Note_on_c, 13, 74, 0
19, 90840, Note_on_c, 13, 79, 92
19, 90885, Note_on_c, 13, 79, 0
19, 90900, Note_on_c, 13, 83, 92
19, 90945, Note_on_c, 13, 83, 0
19, 90960, Note_on_c, 13, 86, 96
19, 91060, Note_on_c, 13, 86, 0
19, 91080, Note_on_c, 13, 62, 99
19, 91080, Note_on_c, 13, 69, 99
19, 91080, Note_on_c, 13, 78, 99
19, 91180, Note_on_c, 13, 78, 0
19, 91180, Note_on_c, 13, 69, 0
19, 91180, Note_on_c, 13, 62, 0
19, 91200, Note_on_c, 13, 62, 109
19, 91200, Note_on_c, 13, 71, 109
19, 91200, Note_on_c, 13, 79, 109
19, 91320, Note_on_c, 13, 79, 0
19, 91320, Note_on_c, 13, 71, 0
19, 91320, Note_on_c, 13, 62, 0
19, 91440, Note_on_c, 13, 62, 106
19, 91440, Note_on_c, 13, 71, 106
19, 91440, Note_on_c, 13, 79, 106
19, 91560, Note_on_c, 13, 79, 0
19, 91560, Note_on_c, 13, 71, 0
19, 91560, Note_on_c, 13, 62, 0
19, 91680, Note_on_c, 13, 62, 106
19, 91680, Note_on_c, 13, 71, 106
19, 91680, Note_on_c, 13, 79, 106
19, 91780, Note_on_c, 13, 79, 0
19, 91780, Note_on_c, 13, 71, 0
19, 91780, Note_on_c, 13, 62, 0
19, 91800, Note_on_c, 13, 55, 110
19, 91800, Note_on_c, 13, 67, 110
19, 91860, Note_on_c, 13, 67, 0
19, 91860, Note_on_c, 13, 55, 0
19, 91890, Note_on_c, 13, 55, 109
19, 91890, Note_on_c, 13, 67, 109
19, 91905, Note_on_c, 13, 67, 0
19, 91905, Note_on_c, 13, 55, 0
19, 91920, Note_on_c, 13, 55, 108
19, 91920, Note_on_c, 13, 67, 108
19, 92040, Note_on_c, 13, 67, 0
19, 92040, Note_on_c, 13, 55, 0
19, 92040, End_track
20, 0, Start_track
20, 0, MIDI_port, 0
20, 0, Title_t, "Distributed"
20, 0, Program_c, 13, 50
20, 0, Control_c, 13, 7, 111
20, 0, Control_c, 13, 10, 53
20, 10, Note_on_c, 13, 79, 85
20, 10, Note_on_c, 13, 71, 85
20, 10, Note_on_c, 13, 62, 85
20, 130, Note_on_c, 13, 62, 0
20, 130, Note_on_c, 13, 71, 0
20, 130, Note_on_c, 13, 79, 0
20, 190, Note_on_c, 13, 74, 85
20, 220, Note_on_c, 13, 74, 0
20, 250, Note_on_c, 13, 79, 85
20, 370, Note_on_c, 13, 79, 0
20, 430, Note_on_c, 13, 74, 85
20, 460, Note_on_c, 13, 74, 0
20, 490, Note_on_c, 13, 79, 85
20, 520, Note_on_c, 13, 79, 0
20, 550, Note_on_c, 13, 74, 85
20, 580, Note_on_c, 13, 74, 0
20, 610, Note_on_c, 13, 79, 85
20, 640, Note_on_c, 13, 79, 0
20, 670, Note_on_c, 13, 83, 85
20, 700, Note_on_c, 13, 83, 0
20, 730, Note_on_c, 13, 86, 85
20, 850, Note_on_c, 13, 86, 0
20, 970, Note_on_c, 13, 84, 85
20, 1090, Note_on_c, 13, 84, 0
20, 1150, Note_on_c, 13, 81, 85
20, 1180, Note_on_c, 13, 81, 0
20, 1210, Note_on_c, 13, 84, 85
20, 1330, Note_on_c, 13, 84, 0
20, 1390, Note_on_c, 13, 81, 85
20, 1420, Note_on_c, 13, 81, 0
20, 1450, Note_on_c, 13, 84, 85
20, 1480, Note_on_c, 13, 84, 0
20, 1510, Note_on_c, 13, 81, 85
20, 1540, Note_on_c, 13, 81, 0
20, 1570, Note_on_c, 13, 78, 85
20, 1600, Note_on_c, 13, 78, 0
20, 1630, Note_on_c, 13, 81, 85
20, 1660, Note_on_c, 13, 81, 0
20, 1690, Note_on_c, 13, 74, 85
20, 1810, Note_on_c, 13, 74, 0
20, 1920, Note_on_c, 13, 59, 85
20, 1920, Note_on_c, 13, 62, 85
20, 1940, Note_on_c, 13, 62, 0
20, 1940, Note_on_c, 13, 59, 0
20, 1950, Note_on_c, 13, 59, 85
20, 1950, Note_on_c, 13, 62, 85
20, 1970, Note_on_c, 13, 62, 0
20, 1970, Note_on_c, 13, 59, 0
20, 1980, Note_on_c, 13, 59, 85
20, 1980, Note_on_c, 13, 62, 85
20, 2000, Note_on_c, 13, 62, 0
20, 2000, Note_on_c, 13, 59, 0
20, 2010, Note_on_c, 13, 59, 85
20, 2010, Note_on_c, 13, 62, 85
20, 2030, Note_on_c, 13, 62, 0
20, 2030, Note_on_c, 13, 59, 0
20, 2040, Note_on_c, 13, 59, 85
20, 2040, Note_on_c, 13, 62, 85
20, 2060, Note_on_c, 13, 62, 0
20, 2060, Note_on_c, 13, 59, 0
20, 2070, Note_on_c, 13, 59, 85
20, 2070, Note_on_c, 13, 62, 85
20, 2090, Note_on_c, 13, 62, 0
20, 2090, Note_on_c, 13, 59, 0
20, 2100, Note_on_c, 13, 59, 85
20, 2100, Note_on_c, 13, 62, 85
20, 2120, Note_on_c, 13, 62, 0
20, 2120, Note_on_c, 13, 59, 0
20, 2130, Note_on_c, 13, 59, 85
20, 2130, Note_on_c, 13, 62, 85
20, 2150, Note_on_c, 13, 62, 0
20, 2150, Note_on_c, 13, 59, 0
20, 2160, Note_on_c, 13, 59, 85
20, 2160, Note_on_c, 13, 62, 85
20, 2180, Note_on_c, 13, 62, 0
20, 2180, Note_on_c, 13, 59, 0
20, 2190, Note_on_c, 13, 59, 85
20, 2190, Note_on_c, 13, 62, 85
20, 2210, Note_on_c, 13, 62, 0
20, 2210, Note_on_c, 13, 59, 0
20, 2220, Note_on_c, 13, 59, 85
20, 2220, Note_on_c, 13, 62, 85
20, 2240, Note_on_c, 13, 62, 0
20, 2240, Note_on_c, 13, 59, 0
20, 2250, Note_on_c, 13, 59, 85
20, 2250, Note_on_c, 13, 62, 85
20, 2270, Note_on_c, 13, 62, 0
20, 2270, Note_on_c, 13, 59, 0
20, 2280, Note_on_c, 13, 59, 85
20, 2280, Note_on_c, 13, 62, 85
20, 2300, Note_on_c, 13, 62, 0
20, 2300, Note_on_c, 13, 59, 0
20, 2310, Note_on_c, 13, 59, 85
20, 2310, Note_on_c, 13, 62, 85
20, 2330, Note_on_c, 13, 62, 0
20, 2330, Note_on_c, 13, 59, 0
20, 2340, Note_on_c, 13, 59, 85
20, 2340, Note_on_c, 13, 62, 85
20, 2360, Note_on_c, 13, 62, 0
20, 2360, Note_on_c, 13, 59, 0
20, 2370, Note_on_c, 13, 59, 85
20, 2370, Note_on_c, 13, 62, 85
20, 2390, Note_on_c, 13, 62, 0
20, 2390, Note_on_c, 13, 59, 0
20, 2400, Note_on_c, 13, 60, 85
20, 2400, Note_on_c, 13, 62, 85
20, 2420, Note_on_c, 13, 62, 0
20, 2420, Note_on_c, 13, 60, 0
20, 2430, Note_on_c, 13, 60, 85
20, 2430, Note_on_c, 13, 62, 85
20, 2450, Note_on_c, 13, 62, 0
20, 2450, Note_on_c, 13, 60, 0
20, 2460, Note_on_c, 13, 60, 85
20, 2460, Note_on_c, 13, 62, 85
20, 2480, Note_on_c, 13, 62, 0
20, 2480, Note_on_c, 13, 60, 0
20, 2490, Note_on_c, 13, 60, 85
20, 2490, Note_on_c, 13, 62, 85
20, 2510, Note_on_c, 13, 62, 0
20, 2510, Note_on_c, 13, 60, 0
20, 2520, Note_on_c, 13, 60, 85
20, 2520, Note_on_c, 13, 62, 85
20, 2540, Note_on_c, 13, 62, 0
20, 2540, Note_on_c, 13, 60, 0
20, 2550, Note_on_c, 13, 60, 85
20, 2550, Note_on_c, 13, 62, 85
20, 2570, Note_on_c, 13, 62, 0
20, 2570, Note_on_c, 13, 60, 0
20, 2580, Note_on_c, 13, 60, 85
20, 2580, Note_on_c, 13, 62, 85
20, 2600, Note_on_c, 13, 62, 0
20, 2600, Note_on_c, 13, 60, 0
20, 2610, Note_on_c, 13, 60, 85
20, 2610, Note_on_c, 13, 62, 85
20, 2630, Note_on_c, 13, 62, 0
20, 2630, Note_on_c, 13, 60, 0
20, 2640, Note_on_c, 13, 60, 85
20, 2640, Note_on_c, 13, 62, 85
20, 2660, Note_on_c, 13, 62, 0
20, 2660, Note_on_c, 13, 60, 0
20, 2670, Note_on_c, 13, 60, 85
20, 2670, Note_on_c, 13, 62, 85
20, 2690, Note_on_c, 13, 62, 0
20, 2690, Note_on_c, 13, 60, 0
20, 2700, Note_on_c, 13, 60, 85
20, 2700, Note_on_c, 13, 62, 85
20, 2720, Note_on_c, 13, 62, 0
20, 2720, Note_on_c, 13, 60, 0
20, 2730, Note_on_c, 13, 60, 85
20, 2730, Note_on_c, 13, 62, 85
20, 2750, Note_on_c, 13, 62, 0
20, 2750, Note_on_c, 13, 60, 0
20, 2760, Note_on_c, 13, 60, 85
20, 2760, Note_on_c, 13, 62, 85
20, 2780, Note_on_c, 13, 62, 0
20, 2780, Note_on_c, 13, 60, 0
20, 2790, Note_on_c, 13, 60, 85
20, 2790, Note_on_c, 13, 62, 85
20, 2810, Note_on_c, 13, 62, 0
20, 2810, Note_on_c, 13, 60, 0
20, 2820, Note_on_c, 13, 60, 85
20, 2820, Note_on_c, 13, 62, 85
20, 2840, Note_on_c, 13, 62, 0
20, 2840, Note_on_c, 13, 60, 0
20, 2850, Note_on_c, 13, 60, 85
20, 2850, Note_on_c, 13, 62, 85
20, 2870, Note_on_c, 13, 62, 0
20, 2870, Note_on_c, 13, 60, 0
20, 2880, Note_on_c, 13, 59, 85
20, 2880, Note_on_c, 13, 62, 85
20, 2900, Note_on_c, 13, 62, 0
20, 2900, Note_on_c, 13, 59, 0
20, 2910, Note_on_c, 13, 59, 85
20, 2910, Note_on_c, 13, 62, 85
20, 2930, Note_on_c, 13, 62, 0
20, 2930, Note_on_c, 13, 59, 0
20, 2940, Note_on_c, 13, 59, 85
20, 2940, Note_on_c, 13, 62, 85
20, 2960, Note_on_c, 13, 62, 0
20, 2960, Note_on_c, 13, 59, 0
20, 2970, Note_on_c, 13, 59, 85
20, 2970, Note_on_c, 13, 62, 85
20, 2990, Note_on_c, 13, 62, 0
20, 2990, Note_on_c, 13, 59, 0
20, 3000, Note_on_c, 13, 59, 85
20, 3000, Note_on_c, 13, 62, 85
20, 3020, Note_on_c, 13, 62, 0
20, 3020, Note_on_c, 13, 59, 0
20, 3030, Note_on_c, 13, 59, 85
20, 3030, Note_on_c, 13, 62, 85
20, 3050, Note_on_c, 13, 62, 0
20, 3050, Note_on_c, 13, 59, 0
20, 3060, Note_on_c, 13, 59, 85
20, 3060, Note_on_c, 13, 62, 85
20, 3080, Note_on_c, 13, 62, 0
20, 3080, Note_on_c, 13, 59, 0
20, 3090, Note_on_c, 13, 59, 85
20, 3090, Note_on_c, 13, 62, 85
20, 3110, Note_on_c, 13, 62, 0
20, 3110, Note_on_c, 13, 59, 0
20, 3120, Note_on_c, 13, 59, 85
20, 3120, Note_on_c, 13, 62, 85
20, 3140, Note_on_c, 13, 62, 0
20, 3140, Note_on_c, 13, 59, 0
20, 3150, Note_on_c, 13, 59, 85
20, 3150, Note_on_c, 13, 62, 85
20, 3170, Note_on_c, 13, 62, 0
20, 3170, Note_on_c, 13, 59, 0
20, 3180, Note_on_c, 13, 59, 85
20, 3180, Note_on_c, 13, 62, 85
20, 3200, Note_on_c, 13, 62, 0
20, 3200, Note_on_c, 13, 59, 0
20, 3210, Note_on_c, 13, 59, 85
20, 3210, Note_on_c, 13, 62, 85
20, 3230, Note_on_c, 13, 62, 0
20, 3230, Note_on_c, 13, 59, 0
20, 3240, Note_on_c, 13, 59, 85
20, 3240, Note_on_c, 13, 62, 85
20, 3260, Note_on_c, 13, 62, 0
20, 3260, Note_on_c, 13, 59, 0
20, 3270, Note_on_c, 13, 59, 85
20, 3270, Note_on_c, 13, 62, 85
20, 3290, Note_on_c, 13, 62, 0
20, 3290, Note_on_c, 13, 59, 0
20, 3300, Note_on_c, 13, 59, 85
20, 3300, Note_on_c, 13, 62, 85
20, 3320, Note_on_c, 13, 62, 0
20, 3320, Note_on_c, 13, 59, 0
20, 3330, Note_on_c, 13, 59, 85
20, 3330, Note_on_c, 13, 62, 85
20, 3350, Note_on_c, 13, 62, 0
20, 3350, Note_on_c, 13, 59, 0
20, 3360, Note_on_c, 13, 60, 85
20, 3360, Note_on_c, 13, 62, 85
20, 3380, Note_on_c, 13, 62, 0
20, 3380, Note_on_c, 13, 60, 0
20, 3390, Note_on_c, 13, 60, 85
20, 3390, Note_on_c, 13, 62, 85
20, 3410, Note_on_c, 13, 62, 0
20, 3410, Note_on_c, 13, 60, 0
20, 3420, Note_on_c, 13, 60, 85
20, 3420, Note_on_c, 13, 62, 85
20, 3440, Note_on_c, 13, 62, 0
20, 3440, Note_on_c, 13, 60, 0
20, 3450, Note_on_c, 13, 60, 85
20, 3450, Note_on_c, 13, 62, 85
20, 3470, Note_on_c, 13, 62, 0
20, 3470, Note_on_c, 13, 60, 0
20, 3480, Note_on_c, 13, 60, 85
20, 3480, Note_on_c, 13, 62, 85
20, 3500, Note_on_c, 13, 62, 0
20, 3500, Note_on_c, 13, 60, 0
20, 3510, Note_on_c, 13, 60, 85
20, 3510, Note_on_c, 13, 62, 85
20, 3530, Note_on_c, 13, 62, 0
20, 3530, Note_on_c, 13, 60, 0
20, 3540, Note_on_c, 13, 60, 85
20, 3540, Note_on_c, 13, 62, 85
20, 3560, Note_on_c, 13, 62, 0
20, 3560, Note_on_c, 13, 60, 0
20, 3570, Note_on_c, 13, 60, 85
20, 3570, Note_on_c, 13, 62, 85
20, 3590, Note_on_c, 13, 62, 0
20, 3590, Note_on_c, 13, 60, 0
20, 3600, Note_on_c, 13, 60, 85
20, 3600, Note_on_c, 13, 62, 85
20, 3620, Note_on_c, 13, 62, 0
20, 3620, Note_on_c, 13, 60, 0
20, 3630, Note_on_c, 13, 60, 85
20, 3630, Note_on_c, 13, 62, 85
20, 3650, Note_on_c, 13, 62, 0
20, 3650, Note_on_c, 13, 60, 0
20, 3660, Note_on_c, 13, 60, 85
20, 3660, Note_on_c, 13, 62, 85
20, 3680, Note_on_c, 13, 62, 0
20, 3680, Note_on_c, 13, 60, 0
20, 3690, Note_on_c, 13, 60, 85
20, 3690, Note_on_c, 13, 62, 85
20, 3710, Note_on_c, 13, 62, 0
20, 3710, Note_on_c, 13, 60, 0
20, 3720, Note_on_c, 13, 60, 85
20, 3720, Note_on_c, 13, 62, 85
20, 3740, Note_on_c, 13, 62, 0
20, 3740, Note_on_c, 13, 60, 0
20, 3750, Note_on_c, 13, 60, 85
20, 3750, Note_on_c, 13, 62, 85
20, 3770, Note_on_c, 13, 62, 0
20, 3770, Note_on_c, 13, 60, 0
20, 3780, Note_on_c, 13, 60, 85
20, 3780, Note_on_c, 13, 62, 85
20, 3800, Note_on_c, 13, 62, 0
20, 3800, Note_on_c, 13, 60, 0
20, 3810, Note_on_c, 13, 60, 85
20, 3810, Note_on_c, 13, 62, 85
20, 3830, Note_on_c, 13, 62, 0
20, 3830, Note_on_c, 13, 60, 0
20, 3840, Note_on_c, 13, 59, 85
20, 3840, Note_on_c, 13, 62, 85
20, 3960, Note_on_c, 13, 62, 0
20, 3960, Note_on_c, 13, 59, 0
20, 3960, Note_on_c, 13, 72, 85
20, 4005, Note_on_c, 13, 72, 0
20, 4020, Note_on_c, 13, 72, 85
20, 4065, Note_on_c, 13, 72, 0
20, 4080, Note_on_c, 13, 74, 85
20, 4125, Note_on_c, 13, 74, 0
20, 4140, Note_on_c, 13, 74, 85
20, 4185, Note_on_c, 13, 74, 0
20, 4200, Note_on_c, 13, 72, 85
20, 4260, Note_on_c, 13, 72, 0
20, 4260, Note_on_c, 13, 71, 85
20, 4290, Note_on_c, 13, 71, 0
20, 4290, Note_on_c, 13, 69, 85
20, 4320, Note_on_c, 13, 69, 0
20, 4320, Note_on_c, 13, 67, 85
20, 4365, Note_on_c, 13, 67, 0
20, 4380, Note_on_c, 13, 67, 85
20, 4425, Note_on_c, 13, 67, 0
20, 4440, Note_on_c, 13, 66, 85
20, 4485, Note_on_c, 13, 66, 0
20, 4500, Note_on_c, 13, 66, 85
20, 4545, Note_on_c, 13, 66, 0
20, 4560, Note_on_c, 13, 67, 85
20, 4680, Note_on_c, 13, 67, 0
20, 4800, Note_on_c, 13, 71, 47
20, 5040, Note_on_c, 13, 71, 0
20, 5040, Note_on_c, 13, 72, 47
20, 5280, Note_on_c, 13, 72, 0
20, 5280, Note_on_c, 13, 71, 47
20, 5310, Note_on_c, 13, 71, 0
20, 5310, Note_on_c, 13, 69, 47
20, 5390, Note_on_c, 13, 69, 0
20, 5400, Note_on_c, 13, 69, 47
20, 5520, Note_on_c, 13, 69, 0
20, 5520, Note_on_c, 13, 69, 47
20, 5550, Note_on_c, 13, 69, 0
20, 5550, Note_on_c, 13, 67, 47
20, 5630, Note_on_c, 13, 67, 0
20, 5640, Note_on_c, 13, 67, 47
20, 5760, Note_on_c, 13, 67, 0
20, 5760, Note_on_c, 13, 64, 47
20, 5850, Note_on_c, 13, 64, 0
20, 5880, Note_on_c, 13, 64, 47
20, 5970, Note_on_c, 13, 64, 0
20, 6000, Note_on_c, 13, 60, 47
20, 6090, Note_on_c, 13, 60, 0
20, 6120, Note_on_c, 13, 57, 47
20, 6210, Note_on_c, 13, 57, 0
20, 6240, Note_on_c, 13, 62, 47
20, 6300, Note_on_c, 13, 62, 0
20, 6360, Note_on_c, 13, 66, 47
20, 6420, Note_on_c, 13, 66, 0
20, 6480, Note_on_c, 13, 67, 47
20, 6540, Note_on_c, 13, 67, 0
20, 6720, Note_on_c, 13, 71, 47
20, 6960, Note_on_c, 13, 71, 0
20, 6960, Note_on_c, 13, 72, 47
20, 7200, Note_on_c, 13, 72, 0
20, 7200, Note_on_c, 13, 71, 47
20, 7260, Note_on_c, 13, 71, 0
20, 7260, Note_on_c, 13, 69, 47
20, 7290, Note_on_c, 13, 69, 0
20, 7320, Note_on_c, 13, 69, 47
20, 7350, Note_on_c, 13, 69, 0
20, 7380, Note_on_c, 13, 69, 47
20, 7410, Note_on_c, 13, 69, 0
20, 7440, Note_on_c, 13, 69, 47
20, 7500, Note_on_c, 13, 69, 0
20, 7500, Note_on_c, 13, 67, 47
20, 7530, Note_on_c, 13, 67, 0
20, 7560, Note_on_c, 13, 67, 47
20, 7590, Note_on_c, 13, 67, 0
20, 7620, Note_on_c, 13, 67, 47
20, 7650, Note_on_c, 13, 67, 0
20, 7680, Note_on_c, 13, 64, 47
20, 7770, Note_on_c, 13, 64, 0
20, 7800, Note_on_c, 13, 64, 47
20, 7845, Note_on_c, 13, 64, 0
20, 7860, Note_on_c, 13, 64, 47
20, 7905, Note_on_c, 13, 64, 0
20, 7920, Note_on_c, 13, 60, 47
20, 8010, Note_on_c, 13, 60, 0
20, 8040, Note_on_c, 13, 60, 47
20, 8085, Note_on_c, 13, 60, 0
20, 8100, Note_on_c, 13, 60, 47
20, 8145, Note_on_c, 13, 60, 0
20, 8160, Note_on_c, 13, 59, 85
20, 8460, Note_on_c, 13, 59, 0
20, 8460, Note_on_c, 13, 59, 61
20, 8475, Note_on_c, 13, 59, 0
20, 8475, Note_on_c, 13, 60, 61
20, 8490, Note_on_c, 13, 60, 0
20, 8490, Note_on_c, 13, 57, 61
20, 8505, Note_on_c, 13, 57, 0
20, 8505, Note_on_c, 13, 59, 61
20, 8520, Note_on_c, 13, 59, 0
20, 8520, Note_on_c, 13, 60, 61
20, 8580, Note_on_c, 13, 60, 0
20, 8580, Note_on_c, 13, 57, 61
20, 8640, Note_on_c, 13, 57, 0
20, 8640, Note_on_c, 13, 67, 85
20, 8940, Note_on_c, 13, 67, 0
20, 8940, Note_on_c, 13, 67, 61
20, 8955, Note_on_c, 13, 67, 0
20, 8955, Note_on_c, 13, 69, 61
20, 8970, Note_on_c, 13, 69, 0
20, 8970, Note_on_c, 13, 66, 61
20, 8985, Note_on_c, 13, 66, 0
20, 8985, Note_on_c, 13, 67, 61
20, 9000, Note_on_c, 13, 67, 0
20, 9000, Note_on_c, 13, 69, 61
20, 9060, Note_on_c, 13, 69, 0
20, 9060, Note_on_c, 13, 66, 61
20, 9120, Note_on_c, 13, 66, 0
20, 9120, Note_on_c, 13, 71, 53
20, 9140, Note_on_c, 13, 71, 0
20, 9150, Note_on_c, 13, 71, 53
20, 9170, Note_on_c, 13, 71, 0
20, 9180, Note_on_c, 13, 71, 55
20, 9200, Note_on_c, 13, 71, 0
20, 9210, Note_on_c, 13, 71, 55
20, 9230, Note_on_c, 13, 71, 0
20, 9240, Note_on_c, 13, 71, 55
20, 9260, Note_on_c, 13, 71, 0
20, 9270, Note_on_c, 13, 71, 56
20, 9290, Note_on_c, 13, 71, 0
20, 9300, Note_on_c, 13, 71, 56
20, 9320, Note_on_c, 13, 71, 0
20, 9330, Note_on_c, 13, 71, 58
20, 9350, Note_on_c, 13, 71, 0
20, 9360, Note_on_c, 13, 72, 58
20, 9380, Note_on_c, 13, 72, 0
20, 9390, Note_on_c, 13, 72, 59
20, 9410, Note_on_c, 13, 72, 0
20, 9420, Note_on_c, 13, 72, 59
20, 9440, Note_on_c, 13, 72, 0
20, 9450, Note_on_c, 13, 72, 61
20, 9470, Note_on_c, 13, 72, 0
20, 9480, Note_on_c, 13, 74, 61
20, 9500, Note_on_c, 13, 74, 0
20, 9510, Note_on_c, 13, 74, 62
20, 9530, Note_on_c, 13, 74, 0
20, 9540, Note_on_c, 13, 74, 62
20, 9560, Note_on_c, 13, 74, 0
20, 9570, Note_on_c, 13, 74, 64
20, 9590, Note_on_c, 13, 74, 0
20, 9600, Note_on_c, 13, 71, 64
20, 9620, Note_on_c, 13, 71, 0
20, 9630, Note_on_c, 13, 71, 65
20, 9650, Note_on_c, 13, 71, 0
20, 9660, Note_on_c, 13, 71, 65
20, 9680, Note_on_c, 13, 71, 0
20, 9690, Note_on_c, 13, 71, 67
20, 9710, Note_on_c, 13, 71, 0
20, 9720, Note_on_c, 13, 74, 67
20, 9740, Note_on_c, 13, 74, 0
20, 9750, Note_on_c, 13, 74, 68
20, 9770, Note_on_c, 13, 74, 0
20, 9780, Note_on_c, 13, 74, 68
20, 9800, Note_on_c, 13, 74, 0
20, 9810, Note_on_c, 13, 74, 70
20, 9830, Note_on_c, 13, 74, 0
20, 9840, Note_on_c, 13, 74, 70
20, 9860, Note_on_c, 13, 74, 0
20, 9870, Note_on_c, 13, 74, 71
20, 9890, Note_on_c, 13, 74, 0
20, 9900, Note_on_c, 13, 74, 71
20, 9920, Note_on_c, 13, 74, 0
20, 9930, Note_on_c, 13, 74, 73
20, 9950, Note_on_c, 13, 74, 0
20, 9960, Note_on_c, 13, 79, 73
20, 9980, Note_on_c, 13, 79, 0
20, 9990, Note_on_c, 13, 79, 73
20, 10010, Note_on_c, 13, 79, 0
20, 10020, Note_on_c, 13, 79, 74
20, 10040, Note_on_c, 13, 79, 0
20, 10050, Note_on_c, 13, 79, 74
20, 10070, Note_on_c, 13, 79, 0
20, 10080, Note_on_c, 13, 78, 85
20, 10100, Note_on_c, 13, 78, 0
20, 10110, Note_on_c, 13, 78, 85
20, 10130, Note_on_c, 13, 78, 0
20, 10140, Note_on_c, 13, 78, 85
20, 10160, Note_on_c, 13, 78, 0
20, 10170, Note_on_c, 13, 78, 85
20, 10190, Note_on_c, 13, 78, 0
20, 10200, Note_on_c, 13, 78, 85
20, 10220, Note_on_c, 13, 78, 0
20, 10230, Note_on_c, 13, 78, 85
20, 10250, Note_on_c, 13, 78, 0
20, 10260, Note_on_c, 13, 78, 85
20, 10280, Note_on_c, 13, 78, 0
20, 10290, Note_on_c, 13, 78, 85
20, 10310, Note_on_c, 13, 78, 0
20, 10320, Note_on_c, 13, 79, 85
20, 10340, Note_on_c, 13, 79, 0
20, 10350, Note_on_c, 13, 79, 85
20, 10370, Note_on_c, 13, 79, 0
20, 10380, Note_on_c, 13, 79, 85
20, 10400, Note_on_c, 13, 79, 0
20, 10410, Note_on_c, 13, 79, 85
20, 10430, Note_on_c, 13, 79, 0
20, 10440, Note_on_c, 13, 79, 85
20, 10460, Note_on_c, 13, 79, 0
20, 10470, Note_on_c, 13, 79, 85
20, 10490, Note_on_c, 13, 79, 0
20, 10500, Note_on_c, 13, 79, 85
20, 10520, Note_on_c, 13, 79, 0
20, 10530, Note_on_c, 13, 79, 85
20, 10550, Note_on_c, 13, 79, 0
20, 10560, Note_on_c, 13, 78, 85
20, 10580, Note_on_c, 13, 78, 0
20, 10590, Note_on_c, 13, 78, 85
20, 10610, Note_on_c, 13, 78, 0
20, 10620, Note_on_c, 13, 78, 85
20, 10640, Note_on_c, 13, 78, 0
20, 10650, Note_on_c, 13, 78, 85
20, 10670, Note_on_c, 13, 78, 0
20, 10680, Note_on_c, 13, 78, 85
20, 10700, Note_on_c, 13, 78, 0
20, 10710, Note_on_c, 13, 78, 85
20, 10730, Note_on_c, 13, 78, 0
20, 10740, Note_on_c, 13, 78, 85
20, 10760, Note_on_c, 13, 78, 0
20, 10770, Note_on_c, 13, 78, 85
20, 10790, Note_on_c, 13, 78, 0
20, 10800, Note_on_c, 13, 79, 85
20, 10820, Note_on_c, 13, 79, 0
20, 10830, Note_on_c, 13, 79, 85
20, 10850, Note_on_c, 13, 79, 0
20, 10860, Note_on_c, 13, 79, 85
20, 10880, Note_on_c, 13, 79, 0
20, 10890, Note_on_c, 13, 79, 85
20, 10910, Note_on_c, 13, 79, 0
20, 10920, Note_on_c, 13, 79, 85
20, 10940, Note_on_c, 13, 79, 0
20, 10950, Note_on_c, 13, 79, 85
20, 10970, Note_on_c, 13, 79, 0
20, 10980, Note_on_c, 13, 79, 85
20, 11000, Note_on_c, 13, 79, 0
20, 11010, Note_on_c, 13, 79, 85
20, 11030, Note_on_c, 13, 79, 0
20, 11040, Note_on_c, 13, 74, 85
20, 11070, Note_on_c, 13, 74, 0
20, 11100, Note_on_c, 13, 74, 85
20, 11190, Note_on_c, 13, 74, 0
20, 11220, Note_on_c, 13, 74, 85
20, 11310, Note_on_c, 13, 74, 0
20, 11340, Note_on_c, 13, 74, 85
20, 11430, Note_on_c, 13, 74, 0
20, 11460, Note_on_c, 13, 74, 85
20, 11550, Note_on_c, 13, 74, 0
20, 11580, Note_on_c, 13, 74, 85
20, 11670, Note_on_c, 13, 74, 0
20, 11700, Note_on_c, 13, 74, 85
20, 11790, Note_on_c, 13, 74, 0
20, 11820, Note_on_c, 13, 74, 85
20, 11910, Note_on_c, 13, 74, 0
20, 11940, Note_on_c, 13, 74, 85
20, 12000, Note_on_c, 13, 74, 0
20, 12000, Note_on_c, 13, 73, 85
20, 12020, Note_on_c, 13, 73, 0
20, 12030, Note_on_c, 13, 76, 85
20, 12030, Note_on_c, 13, 73, 85
20, 12050, Note_on_c, 13, 73, 0
20, 12050, Note_on_c, 13, 76, 0
20, 12060, Note_on_c, 13, 76, 85
20, 12060, Note_on_c, 13, 73, 85
20, 12080, Note_on_c, 13, 73, 0
20, 12080, Note_on_c, 13, 76, 0
20, 12090, Note_on_c, 13, 76, 85
20, 12090, Note_on_c, 13, 73, 85
20, 12110, Note_on_c, 13, 73, 0
20, 12110, Note_on_c, 13, 76, 0
20, 12120, Note_on_c, 13, 78, 85
20, 12120, Note_on_c, 13, 74, 85
20, 12140, Note_on_c, 13, 74, 0
20, 12140, Note_on_c, 13, 78, 0
20, 12150, Note_on_c, 13, 78, 85
20, 12150, Note_on_c, 13, 74, 85
20, 12170, Note_on_c, 13, 74, 0
20, 12170, Note_on_c, 13, 78, 0
20, 12180, Note_on_c, 13, 78, 85
20, 12180, Note_on_c, 13, 74, 85
20, 12200, Note_on_c, 13, 74, 0
20, 12200, Note_on_c, 13, 78, 0
20, 12210, Note_on_c, 13, 78, 85
20, 12210, Note_on_c, 13, 74, 85
20, 12230, Note_on_c, 13, 74, 0
20, 12230, Note_on_c, 13, 78, 0
20, 12240, Note_on_c, 13, 73, 85
20, 12240, Note_on_c, 13, 76, 85
20, 12260, Note_on_c, 13, 76, 0
20, 12260, Note_on_c, 13, 73, 0
20, 12270, Note_on_c, 13, 73, 85
20, 12270, Note_on_c, 13, 76, 85
20, 12290, Note_on_c, 13, 76, 0
20, 12290, Note_on_c, 13, 73, 0
20, 12300, Note_on_c, 13, 73, 85
20, 12300, Note_on_c, 13, 76, 85
20, 12320, Note_on_c, 13, 76, 0
20, 12320, Note_on_c, 13, 73, 0
20, 12330, Note_on_c, 13, 73, 85
20, 12330, Note_on_c, 13, 76, 85
20, 12350, Note_on_c, 13, 76, 0
20, 12350, Note_on_c, 13, 73, 0
20, 12360, Note_on_c, 13, 78, 85
20, 12360, Note_on_c, 13, 74, 85
20, 12380, Note_on_c, 13, 74, 0
20, 12380, Note_on_c, 13, 78, 0
20, 12390, Note_on_c, 13, 78, 85
20, 12390, Note_on_c, 13, 74, 85
20, 12410, Note_on_c, 13, 74, 0
20, 12410, Note_on_c, 13, 78, 0
20, 12420, Note_on_c, 13, 78, 85
20, 12420, Note_on_c, 13, 74, 85
20, 12440, Note_on_c, 13, 74, 0
20, 12440, Note_on_c, 13, 78, 0
20, 12450, Note_on_c, 13, 78, 85
20, 12450, Note_on_c, 13, 74, 85
20, 12470, Note_on_c, 13, 74, 0
20, 12470, Note_on_c, 13, 78, 0
20, 12480, Note_on_c, 13, 76, 85
20, 12480, Note_on_c, 13, 73, 85
20, 12525, Note_on_c, 13, 73, 0
20, 12525, Note_on_c, 13, 76, 0
20, 12540, Note_on_c, 13, 69, 85
20, 12585, Note_on_c, 13, 69, 0
20, 12600, Note_on_c, 13, 69, 85
20, 12645, Note_on_c, 13, 69, 0
20, 12660, Note_on_c, 13, 69, 85
20, 12705, Note_on_c, 13, 69, 0
20, 12720, Note_on_c, 13, 69, 85
20, 12840, Note_on_c, 13, 69, 0
20, 12960, Note_on_c, 13, 69, 55
20, 13140, Note_on_c, 13, 69, 0
20, 13140, Note_on_c, 13, 67, 55
20, 13160, Note_on_c, 13, 67, 0
20, 13160, Note_on_c, 13, 66, 55
20, 13180, Note_on_c, 13, 66, 0
20, 13180, Note_on_c, 13, 64, 55
20, 13200, Note_on_c, 13, 64, 0
20, 13200, Note_on_c, 13, 62, 55
20, 13260, Note_on_c, 13, 62, 0
20, 13320, Note_on_c, 13, 71, 55
20, 13380, Note_on_c, 13, 71, 0
20, 13440, Note_on_c, 13, 67, 55
20, 13500, Note_on_c, 13, 67, 0
20, 13560, Note_on_c, 13, 64, 55
20, 13620, Note_on_c, 13, 64, 0
20, 13680, Note_on_c, 13, 69, 55
20, 13740, Note_on_c, 13, 69, 0
20, 13920, Note_on_c, 13, 66, 55
20, 14100, Note_on_c, 13, 66, 0
20, 14100, Note_on_c, 13, 64, 55
20, 14120, Note_on_c, 13, 64, 0
20, 14120, Note_on_c, 13, 62, 55
20, 14140, Note_on_c, 13, 62, 0
20, 14140, Note_on_c, 13, 61, 55
20, 14160, Note_on_c, 13, 61, 0
20, 14160, Note_on_c, 13, 59, 55
20, 14220, Note_on_c, 13, 59, 0
20, 14280, Note_on_c, 13, 67, 55
20, 14340, Note_on_c, 13, 67, 0
20, 14400, Note_on_c, 13, 66, 55
20, 14640, Note_on_c, 13, 66, 0
20, 14640, Note_on_c, 13, 64, 55
20, 14760, Note_on_c, 13, 64, 0
20, 14880, Note_on_c, 13, 69, 55
20, 15060, Note_on_c, 13, 69, 0
20, 15060, Note_on_c, 13, 67, 55
20, 15080, Note_on_c, 13, 67, 0
20, 15080, Note_on_c, 13, 66, 55
20, 15100, Note_on_c, 13, 66, 0
20, 15100, Note_on_c, 13, 64, 55
20, 15120, Note_on_c, 13, 64, 0
20, 15120, Note_on_c, 13, 62, 55
20, 15180, Note_on_c, 13, 62, 0
20, 15240, Note_on_c, 13, 71, 55
20, 15300, Note_on_c, 13, 71, 0
20, 15360, Note_on_c, 13, 67, 55
20, 15420, Note_on_c, 13, 67, 0
20, 15480, Note_on_c, 13, 64, 55
20, 15540, Note_on_c, 13, 64, 0
20, 15600, Note_on_c, 13, 69, 55
20, 15660, Note_on_c, 13, 69, 0
20, 15765, Note_on_c, 13, 67, 55
20, 15810, Note_on_c, 13, 67, 0
20, 15840, Note_on_c, 13, 67, 55
20, 15900, Note_on_c, 13, 67, 0
20, 15900, Note_on_c, 13, 66, 55
20, 15960, Note_on_c, 13, 66, 0
20, 16020, Note_on_c, 13, 79, 55
20, 16050, Note_on_c, 13, 79, 0
20, 16080, Note_on_c, 13, 79, 55
20, 16140, Note_on_c, 13, 79, 0
20, 16140, Note_on_c, 13, 78, 55
20, 16200, Note_on_c, 13, 78, 0
20, 16260, Note_on_c, 13, 67, 55
20, 16305, Note_on_c, 13, 67, 0
20, 16320, Note_on_c, 13, 66, 55
20, 16365, Note_on_c, 13, 66, 0
20, 16380, Note_on_c, 13, 66, 55
20, 16425, Note_on_c, 13, 66, 0
20, 16440, Note_on_c, 13, 67, 55
20, 16485, Note_on_c, 13, 67, 0
20, 16500, Note_on_c, 13, 67, 55
20, 16545, Note_on_c, 13, 67, 0
20, 16560, Note_on_c, 13, 69, 55
20, 16605, Note_on_c, 13, 69, 0
20, 16620, Note_on_c, 13, 69, 55
20, 16665, Note_on_c, 13, 69, 0
20, 16680, Note_on_c, 13, 66, 55
20, 16725, Note_on_c, 13, 66, 0
20, 16740, Note_on_c, 13, 66, 55
20, 16785, Note_on_c, 13, 66, 0
20, 16800, Note_on_c, 13, 64, 55
20, 16845, Note_on_c, 13, 64, 0
20, 16860, Note_on_c, 13, 64, 55
20, 16905, Note_on_c, 13, 64, 0
20, 16920, Note_on_c, 13, 66, 55
20, 16965, Note_on_c, 13, 66, 0
20, 16980, Note_on_c, 13, 66, 55
20, 17025, Note_on_c, 13, 66, 0
20, 17040, Note_on_c, 13, 67, 55
20, 17085, Note_on_c, 13, 67, 0
20, 17100, Note_on_c, 13, 67, 55
20, 17145, Note_on_c, 13, 67, 0
20, 17160, Note_on_c, 13, 64, 55
20, 17205, Note_on_c, 13, 64, 0
20, 17220, Note_on_c, 13, 64, 55
20, 17265, Note_on_c, 13, 64, 0
20, 17280, Note_on_c, 13, 66, 55
20, 17325, Note_on_c, 13, 66, 0
20, 17340, Note_on_c, 13, 66, 55
20, 17385, Note_on_c, 13, 66, 0
20, 17400, Note_on_c, 13, 67, 55
20, 17445, Note_on_c, 13, 67, 0
20, 17460, Note_on_c, 13, 67, 55
20, 17505, Note_on_c, 13, 67, 0
20, 17520, Note_on_c, 13, 69, 55
20, 17565, Note_on_c, 13, 69, 0
20, 17580, Note_on_c, 13, 69, 55
20, 17625, Note_on_c, 13, 69, 0
20, 17640, Note_on_c, 13, 66, 55
20, 17685, Note_on_c, 13, 66, 0
20, 17700, Note_on_c, 13, 66, 55
20, 17745, Note_on_c, 13, 66, 0
20, 17760, Note_on_c, 13, 64, 55
20, 17805, Note_on_c, 13, 64, 0
20, 17820, Note_on_c, 13, 64, 55
20, 17865, Note_on_c, 13, 64, 0
20, 17880, Note_on_c, 13, 66, 55
20, 17925, Note_on_c, 13, 66, 0
20, 17940, Note_on_c, 13, 66, 55
20, 17985, Note_on_c, 13, 66, 0
20, 18000, Note_on_c, 13, 67, 55
20, 18045, Note_on_c, 13, 67, 0
20, 18060, Note_on_c, 13, 67, 55
20, 18105, Note_on_c, 13, 67, 0
20, 18120, Note_on_c, 13, 64, 55
20, 18165, Note_on_c, 13, 64, 0
20, 18180, Note_on_c, 13, 64, 55
20, 18225, Note_on_c, 13, 64, 0
20, 18240, Note_on_c, 13, 66, 55
20, 18360, Note_on_c, 13, 66, 0
20, 18480, Note_on_c, 13, 78, 85
20, 18480, Note_on_c, 13, 71, 85
20, 18720, Note_on_c, 13, 71, 0
20, 18720, Note_on_c, 13, 78, 0
20, 18720, Note_on_c, 13, 76, 85
20, 18840, Note_on_c, 13, 76, 0
20, 18960, Note_on_c, 13, 69, 85
20, 18960, Note_on_c, 13, 76, 85
20, 19200, Note_on_c, 13, 76, 0
20, 19200, Note_on_c, 13, 69, 0
20, 19200, Note_on_c, 13, 74, 85
20, 19245, Note_on_c, 13, 74, 0
20, 19260, Note_on_c, 13, 78, 85
20, 19290, Note_on_c, 13, 78, 0
20, 19320, Note_on_c, 13, 79, 85
20, 19350, Note_on_c, 13, 79, 0
20, 19380, Note_on_c, 13, 81, 85
20, 19410, Note_on_c, 13, 81, 0
20, 19440, Note_on_c, 13, 79, 85
20, 19500, Note_on_c, 13, 79, 0
20, 19500, Note_on_c, 13, 81, 85
20, 19530, Note_on_c, 13, 81, 0
20, 19530, Note_on_c, 13, 83, 85
20, 19560, Note_on_c, 13, 83, 0
20, 19560, Note_on_c, 13, 81, 85
20, 19605, Note_on_c, 13, 81, 0
20, 19620, Note_on_c, 13, 79, 85
20, 19650, Note_on_c, 13, 79, 0
20, 19680, Note_on_c, 13, 79, 85
20, 19740, Note_on_c, 13, 79, 0
20, 19740, Note_on_c, 13, 78, 85
20, 19785, Note_on_c, 13, 78, 0
20, 19800, Note_on_c, 13, 74, 85
20, 19830, Note_on_c, 13, 74, 0
20, 19860, Note_on_c, 13, 78, 85
20, 19890, Note_on_c, 13, 78, 0
20, 19920, Note_on_c, 13, 78, 85
20, 19980, Note_on_c, 13, 78, 0
20, 19980, Note_on_c, 13, 76, 85
20, 20025, Note_on_c, 13, 76, 0
20, 20040, Note_on_c, 13, 74, 85
20, 20070, Note_on_c, 13, 74, 0
20, 20100, Note_on_c, 13, 73, 85
20, 20130, Note_on_c, 13, 73, 0
20, 20160, Note_on_c, 13, 74, 85
20, 20205, Note_on_c, 13, 74, 0
20, 20220, Note_on_c, 13, 66, 53
20, 20265, Note_on_c, 13, 66, 0
20, 20280, Note_on_c, 13, 67, 53
20, 20325, Note_on_c, 13, 67, 0
20, 20340, Note_on_c, 13, 67, 53
20, 20385, Note_on_c, 13, 67, 0
20, 20400, Note_on_c, 13, 69, 53
20, 20445, Note_on_c, 13, 69, 0
20, 20460, Note_on_c, 13, 69, 53
20, 20505, Note_on_c, 13, 69, 0
20, 20520, Note_on_c, 13, 66, 53
20, 20565, Note_on_c, 13, 66, 0
20, 20580, Note_on_c, 13, 66, 53
20, 20625, Note_on_c, 13, 66, 0
20, 20640, Note_on_c, 13, 64, 55
20, 20685, Note_on_c, 13, 64, 0
20, 20700, Note_on_c, 13, 64, 55
20, 20745, Note_on_c, 13, 64, 0
20, 20760, Note_on_c, 13, 66, 55
20, 20805, Note_on_c, 13, 66, 0
20, 20820, Note_on_c, 13, 66, 55
20, 20865, Note_on_c, 13, 66, 0
20, 20880, Note_on_c, 13, 67, 55
20, 20925, Note_on_c, 13, 67, 0
20, 20940, Note_on_c, 13, 67, 55
20, 20985, Note_on_c, 13, 67, 0
20, 21000, Note_on_c, 13, 64, 55
20, 21045, Note_on_c, 13, 64, 0
20, 21060, Note_on_c, 13, 64, 55
20, 21105, Note_on_c, 13, 64, 0
20, 21120, Note_on_c, 13, 66, 55
20, 21165, Note_on_c, 13, 66, 0
20, 21180, Note_on_c, 13, 66, 55
20, 21225, Note_on_c, 13, 66, 0
20, 21240, Note_on_c, 13, 67, 55
20, 21285, Note_on_c, 13, 67, 0
20, 21300, Note_on_c, 13, 67, 55
20, 21345, Note_on_c, 13, 67, 0
20, 21360, Note_on_c, 13, 69, 55
20, 21405, Note_on_c, 13, 69, 0
20, 21420, Note_on_c, 13, 69, 55
20, 21465, Note_on_c, 13, 69, 0
20, 21480, Note_on_c, 13, 66, 55
20, 21525, Note_on_c, 13, 66, 0
20, 21540, Note_on_c, 13, 66, 55
20, 21585, Note_on_c, 13, 66, 0
20, 21600, Note_on_c, 13, 64, 55
20, 21645, Note_on_c, 13, 64, 0
20, 21660, Note_on_c, 13, 64, 55
20, 21705, Note_on_c, 13, 64, 0
20, 21720, Note_on_c, 13, 66, 55
20, 21765, Note_on_c, 13, 66, 0
20, 21780, Note_on_c, 13, 66, 55
20, 21825, Note_on_c, 13, 66, 0
20, 21840, Note_on_c, 13, 67, 55
20, 21885, Note_on_c, 13, 67, 0
20, 21900, Note_on_c, 13, 67, 55
20, 21945, Note_on_c, 13, 67, 0
20, 21960, Note_on_c, 13, 64, 55
20, 22005, Note_on_c, 13, 64, 0
20, 22020, Note_on_c, 13, 64, 55
20, 22065, Note_on_c, 13, 64, 0
20, 22080, Note_on_c, 13, 66, 58
20, 22200, Note_on_c, 13, 66, 0
20, 22320, Note_on_c, 13, 78, 85
20, 22320, Note_on_c, 13, 71, 85
20, 22560, Note_on_c, 13, 71, 0
20, 22560, Note_on_c, 13, 78, 0
20, 22560, Note_on_c, 13, 76, 85
20, 22680, Note_on_c, 13, 76, 0
20, 22800, Note_on_c, 13, 69, 85
20, 22800, Note_on_c, 13, 76, 85
20, 23040, Note_on_c, 13, 76, 0
20, 23040, Note_on_c, 13, 69, 0
20, 23040, Note_on_c, 13, 74, 85
20, 23085, Note_on_c, 13, 74, 0
20, 23100, Note_on_c, 13, 78, 85
20, 23130, Note_on_c, 13, 78, 0
20, 23160, Note_on_c, 13, 79, 85
20, 23190, Note_on_c, 13, 79, 0
20, 23220, Note_on_c, 13, 81, 85
20, 23250, Note_on_c, 13, 81, 0
20, 23280, Note_on_c, 13, 79, 85
20, 23340, Note_on_c, 13, 79, 0
20, 23340, Note_on_c, 13, 81, 85
20, 23370, Note_on_c, 13, 81, 0
20, 23370, Note_on_c, 13, 83, 85
20, 23400, Note_on_c, 13, 83, 0
20, 23400, Note_on_c, 13, 81, 85
20, 23445, Note_on_c, 13, 81, 0
20, 23460, Note_on_c, 13, 79, 85
20, 23490, Note_on_c, 13, 79, 0
20, 23520, Note_on_c, 13, 79, 85
20, 23580, Note_on_c, 13, 79, 0
20, 23580, Note_on_c, 13, 78, 85
20, 23625, Note_on_c, 13, 78, 0
20, 23640, Note_on_c, 13, 74, 85
20, 23670, Note_on_c, 13, 74, 0
20, 23700, Note_on_c, 13, 78, 85
20, 23730, Note_on_c, 13, 78, 0
20, 23760, Note_on_c, 13, 78, 85
20, 23820, Note_on_c, 13, 78, 0
20, 23820, Note_on_c, 13, 76, 85
20, 23865, Note_on_c, 13, 76, 0
20, 23880, Note_on_c, 13, 74, 85
20, 23910, Note_on_c, 13, 74, 0
20, 23940, Note_on_c, 13, 73, 85
20, 23970, Note_on_c, 13, 73, 0
20, 24000, Note_on_c, 13, 74, 85
20, 24045, Note_on_c, 13, 74, 0
20, 24060, Note_on_c, 13, 69, 85
20, 24105, Note_on_c, 13, 69, 0
20, 24120, Note_on_c, 13, 71, 85
20, 24165, Note_on_c, 13, 71, 0
20, 24180, Note_on_c, 13, 73, 85
20, 24225, Note_on_c, 13, 73, 0
20, 24240, Note_on_c, 13, 74, 85
20, 24270, Note_on_c, 13, 74, 0
20, 24300, Note_on_c, 13, 74, 85
20, 24330, Note_on_c, 13, 74, 0
20, 24360, Note_on_c, 13, 76, 85
20, 24375, Note_on_c, 13, 76, 0
20, 24375, Note_on_c, 13, 78, 85
20, 24390, Note_on_c, 13, 78, 0
20, 24390, Note_on_c, 13, 76, 85
20, 24405, Note_on_c, 13, 76, 0
20, 24405, Note_on_c, 13, 78, 85
20, 24420, Note_on_c, 13, 78, 0
20, 24420, Note_on_c, 13, 74, 85
20, 24450, Note_on_c, 13, 74, 0
20, 24450, Note_on_c, 13, 76, 85
20, 24480, Note_on_c, 13, 76, 0
20, 24480, Note_on_c, 13, 78, 85
20, 24540, Note_on_c, 13, 78, 0
20, 24540, Note_on_c, 13, 73, 85
20, 24585, Note_on_c, 13, 73, 0
20, 24600, Note_on_c, 13, 74, 85
20, 24645, Note_on_c, 13, 74, 0
20, 24660, Note_on_c, 13, 76, 85
20, 24705, Note_on_c, 13, 76, 0
20, 24720, Note_on_c, 13, 78, 85
20, 24765, Note_on_c, 13, 78, 0
20, 24780, Note_on_c, 13, 78, 85
20, 24825, Note_on_c, 13, 78, 0
20, 24840, Note_on_c, 13, 79, 85
20, 24855, Note_on_c, 13, 79, 0
20, 24855, Note_on_c, 13, 81, 85
20, 24870, Note_on_c, 13, 81, 0
20, 24870, Note_on_c, 13, 79, 85
20, 24885, Note_on_c, 13, 79, 0
20, 24885, Note_on_c, 13, 81, 85
20, 24900, Note_on_c, 13, 81, 0
20, 24900, Note_on_c, 13, 78, 85
20, 24930, Note_on_c, 13, 78, 0
20, 24930, Note_on_c, 13, 79, 85
20, 24960, Note_on_c, 13, 79, 0
20, 24960, Note_on_c, 13, 81, 85
20, 25005, Note_on_c, 13, 81, 0
20, 25020, Note_on_c, 13, 81, 85
20, 25065, Note_on_c, 13, 81, 0
20, 25080, Note_on_c, 13, 82, 85
20, 25095, Note_on_c, 13, 82, 0
20, 25095, Note_on_c, 13, 83, 85
20, 25110, Note_on_c, 13, 83, 0
20, 25110, Note_on_c, 13, 82, 85
20, 25125, Note_on_c, 13, 82, 0
20, 25125, Note_on_c, 13, 83, 85
20, 25140, Note_on_c, 13, 83, 0
20, 25140, Note_on_c, 13, 80, 85
20, 25170, Note_on_c, 13, 80, 0
20, 25170, Note_on_c, 13, 82, 85
20, 25200, Note_on_c, 13, 82, 0
20, 25200, Note_on_c, 13, 83, 85
20, 25320, Note_on_c, 13, 83, 0
20, 25440, Note_on_c, 13, 67, 55
20, 25920, Note_on_c, 13, 67, 0
20, 25920, Note_on_c, 13, 66, 55
20, 25980, Note_on_c, 13, 66, 0
20, 26040, Note_on_c, 13, 69, 55
20, 26100, Note_on_c, 13, 69, 0
20, 26160, Note_on_c, 13, 66, 55
20, 26220, Note_on_c, 13, 66, 0
20, 26410, Note_on_c, 13, 79, 85
20, 26410, Note_on_c, 13, 71, 85
20, 26410, Note_on_c, 13, 62, 85
20, 26530, Note_on_c, 13, 62, 0
20, 26530, Note_on_c, 13, 71, 0
20, 26530, Note_on_c, 13, 79, 0
20, 26590, Note_on_c, 13, 74, 85
20, 26620, Note_on_c, 13, 74, 0
20, 26650, Note_on_c, 13, 79, 85
20, 26770, Note_on_c, 13, 79, 0
20, 26830, Note_on_c, 13, 74, 85
20, 26860, Note_on_c, 13, 74, 0
20, 26890, Note_on_c, 13, 79, 85
20, 26920, Note_on_c, 13, 79, 0
20, 26950, Note_on_c, 13, 74, 85
20, 26980, Note_on_c, 13, 74, 0
20, 27010, Note_on_c, 13, 79, 85
20, 27040, Note_on_c, 13, 79, 0
20, 27070, Note_on_c, 13, 83, 85
20, 27100, Note_on_c, 13, 83, 0
20, 27130, Note_on_c, 13, 86, 85
20, 27250, Note_on_c, 13, 86, 0
20, 27370, Note_on_c, 13, 84, 85
20, 27490, Note_on_c, 13, 84, 0
20, 27550, Note_on_c, 13, 81, 85
20, 27580, Note_on_c, 13, 81, 0
20, 27610, Note_on_c, 13, 84, 85
20, 27730, Note_on_c, 13, 84, 0
20, 27790, Note_on_c, 13, 81, 85
20, 27820, Note_on_c, 13, 81, 0
20, 27850, Note_on_c, 13, 84, 85
20, 27880, Note_on_c, 13, 84, 0
20, 27910, Note_on_c, 13, 81, 85
20, 27940, Note_on_c, 13, 81, 0
20, 27970, Note_on_c, 13, 78, 85
20, 28000, Note_on_c, 13, 78, 0
20, 28030, Note_on_c, 13, 81, 85
20, 28060, Note_on_c, 13, 81, 0
20, 28090, Note_on_c, 13, 74, 85
20, 28210, Note_on_c, 13, 74, 0
20, 28320, Note_on_c, 13, 59, 85
20, 28320, Note_on_c, 13, 62, 85
20, 28340, Note_on_c, 13, 62, 0
20, 28340, Note_on_c, 13, 59, 0
20, 28350, Note_on_c, 13, 59, 85
20, 28350, Note_on_c, 13, 62, 85
20, 28370, Note_on_c, 13, 62, 0
20, 28370, Note_on_c, 13, 59, 0
20, 28380, Note_on_c, 13, 59, 85
20, 28380, Note_on_c, 13, 62, 85
20, 28400, Note_on_c, 13, 62, 0
20, 28400, Note_on_c, 13, 59, 0
20, 28410, Note_on_c, 13, 59, 85
20, 28410, Note_on_c, 13, 62, 85
20, 28430, Note_on_c, 13, 62, 0
20, 28430, Note_on_c, 13, 59, 0
20, 28440, Note_on_c, 13, 59, 85
20, 28440, Note_on_c, 13, 62, 85
20, 28460, Note_on_c, 13, 62, 0
20, 28460, Note_on_c, 13, 59, 0
20, 28470, Note_on_c, 13, 59, 85
20, 28470, Note_on_c, 13, 62, 85
20, 28490, Note_on_c, 13, 62, 0
20, 28490, Note_on_c, 13, 59, 0
20, 28500, Note_on_c, 13, 59, 85
20, 28500, Note_on_c, 13, 62, 85
20, 28520, Note_on_c, 13, 62, 0
20, 28520, Note_on_c, 13, 59, 0
20, 28530, Note_on_c, 13, 59, 85
20, 28530, Note_on_c, 13, 62, 85
20, 28550, Note_on_c, 13, 62, 0
20, 28550, Note_on_c, 13, 59, 0
20, 28560, Note_on_c, 13, 59, 85
20, 28560, Note_on_c, 13, 62, 85
20, 28580, Note_on_c, 13, 62, 0
20, 28580, Note_on_c, 13, 59, 0
20, 28590, Note_on_c, 13, 59, 85
20, 28590, Note_on_c, 13, 62, 85
20, 28610, Note_on_c, 13, 62, 0
20, 28610, Note_on_c, 13, 59, 0
20, 28620, Note_on_c, 13, 59, 85
20, 28620, Note_on_c, 13, 62, 85
20, 28640, Note_on_c, 13, 62, 0
20, 28640, Note_on_c, 13, 59, 0
20, 28650, Note_on_c, 13, 59, 85
20, 28650, Note_on_c, 13, 62, 85
20, 28670, Note_on_c, 13, 62, 0
20, 28670, Note_on_c, 13, 59, 0
20, 28680, Note_on_c, 13, 59, 85
20, 28680, Note_on_c, 13, 62, 85
20, 28700, Note_on_c, 13, 62, 0
20, 28700, Note_on_c, 13, 59, 0
20, 28710, Note_on_c, 13, 59, 85
20, 28710, Note_on_c, 13, 62, 85
20, 28730, Note_on_c, 13, 62, 0
20, 28730, Note_on_c, 13, 59, 0
20, 28740, Note_on_c, 13, 59, 85
20, 28740, Note_on_c, 13, 62, 85
20, 28760, Note_on_c, 13, 62, 0
20, 28760, Note_on_c, 13, 59, 0
20, 28770, Note_on_c, 13, 59, 85
20, 28770, Note_on_c, 13, 62, 85
20, 28790, Note_on_c, 13, 62, 0
20, 28790, Note_on_c, 13, 59, 0
20, 28800, Note_on_c, 13, 60, 85
20, 28800, Note_on_c, 13, 62, 85
20, 28820, Note_on_c, 13, 62, 0
20, 28820, Note_on_c, 13, 60, 0
20, 28830, Note_on_c, 13, 60, 85
20, 28830, Note_on_c, 13, 62, 85
20, 28850, Note_on_c, 13, 62, 0
20, 28850, Note_on_c, 13, 60, 0
20, 28860, Note_on_c, 13, 60, 85
20, 28860, Note_on_c, 13, 62, 85
20, 28880, Note_on_c, 13, 62, 0
20, 28880, Note_on_c, 13, 60, 0
20, 28890, Note_on_c, 13, 60, 85
20, 28890, Note_on_c, 13, 62, 85
20, 28910, Note_on_c, 13, 62, 0
20, 28910, Note_on_c, 13, 60, 0
20, 28920, Note_on_c, 13, 60, 85
20, 28920, Note_on_c, 13, 62, 85
20, 28940, Note_on_c, 13, 62, 0
20, 28940, Note_on_c, 13, 60, 0
20, 28950, Note_on_c, 13, 60, 85
20, 28950, Note_on_c, 13, 62, 85
20, 28970, Note_on_c, 13, 62, 0
20, 28970, Note_on_c, 13, 60, 0
20, 28980, Note_on_c, 13, 60, 85
20, 28980, Note_on_c, 13, 62, 85
20, 29000, Note_on_c, 13, 62, 0
20, 29000, Note_on_c, 13, 60, 0
20, 29010, Note_on_c, 13, 60, 85
20, 29010, Note_on_c, 13, 62, 85
20, 29030, Note_on_c, 13, 62, 0
20, 29030, Note_on_c, 13, 60, 0
20, 29040, Note_on_c, 13, 60, 85
20, 29040, Note_on_c, 13, 62, 85
20, 29060, Note_on_c, 13, 62, 0
20, 29060, Note_on_c, 13, 60, 0
20, 29070, Note_on_c, 13, 60, 85
20, 29070, Note_on_c, 13, 62, 85
20, 29090, Note_on_c, 13, 62, 0
20, 29090, Note_on_c, 13, 60, 0
20, 29100, Note_on_c, 13, 60, 85
20, 29100, Note_on_c, 13, 62, 85
20, 29120, Note_on_c, 13, 62, 0
20, 29120, Note_on_c, 13, 60, 0
20, 29130, Note_on_c, 13, 60, 85
20, 29130, Note_on_c, 13, 62, 85
20, 29150, Note_on_c, 13, 62, 0
20, 29150, Note_on_c, 13, 60, 0
20, 29160, Note_on_c, 13, 60, 85
20, 29160, Note_on_c, 13, 62, 85
20, 29180, Note_on_c, 13, 62, 0
20, 29180, Note_on_c, 13, 60, 0
20, 29190, Note_on_c, 13, 60, 85
20, 29190, Note_on_c, 13, 62, 85
20, 29210, Note_on_c, 13, 62, 0
20, 29210, Note_on_c, 13, 60, 0
20, 29220, Note_on_c, 13, 60, 85
20, 29220, Note_on_c, 13, 62, 85
20, 29240, Note_on_c, 13, 62, 0
20, 29240, Note_on_c, 13, 60, 0
20, 29250, Note_on_c, 13, 60, 85
20, 29250, Note_on_c, 13, 62, 85
20, 29270, Note_on_c, 13, 62, 0
20, 29270, Note_on_c, 13, 60, 0
20, 29280, Note_on_c, 13, 59, 85
20, 29280, Note_on_c, 13, 62, 85
20, 29300, Note_on_c, 13, 62, 0
20, 29300, Note_on_c, 13, 59, 0
20, 29310, Note_on_c, 13, 59, 85
20, 29310, Note_on_c, 13, 62, 85
20, 29330, Note_on_c, 13, 62, 0
20, 29330, Note_on_c, 13, 59, 0
20, 29340, Note_on_c, 13, 59, 85
20, 29340, Note_on_c, 13, 62, 85
20, 29360, Note_on_c, 13, 62, 0
20, 29360, Note_on_c, 13, 59, 0
20, 29370, Note_on_c, 13, 59, 85
20, 29370, Note_on_c, 13, 62, 85
20, 29390, Note_on_c, 13, 62, 0
20, 29390, Note_on_c, 13, 59, 0
20, 29400, Note_on_c, 13, 59, 85
20, 29400, Note_on_c, 13, 62, 85
20, 29420, Note_on_c, 13, 62, 0
20, 29420, Note_on_c, 13, 59, 0
20, 29430, Note_on_c, 13, 59, 85
20, 29430, Note_on_c, 13, 62, 85
20, 29450, Note_on_c, 13, 62, 0
20, 29450, Note_on_c, 13, 59, 0
20, 29460, Note_on_c, 13, 59, 85
20, 29460, Note_on_c, 13, 62, 85
20, 29480, Note_on_c, 13, 62, 0
20, 29480, Note_on_c, 13, 59, 0
20, 29490, Note_on_c, 13, 59, 85
20, 29490, Note_on_c, 13, 62, 85
20, 29510, Note_on_c, 13, 62, 0
20, 29510, Note_on_c, 13, 59, 0
20, 29520, Note_on_c, 13, 59, 85
20, 29520, Note_on_c, 13, 62, 85
20, 29540, Note_on_c, 13, 62, 0
20, 29540, Note_on_c, 13, 59, 0
20, 29550, Note_on_c, 13, 59, 85
20, 29550, Note_on_c, 13, 62, 85
20, 29570, Note_on_c, 13, 62, 0
20, 29570, Note_on_c, 13, 59, 0
20, 29580, Note_on_c, 13, 59, 85
20, 29580, Note_on_c, 13, 62, 85
20, 29600, Note_on_c, 13, 62, 0
20, 29600, Note_on_c, 13, 59, 0
20, 29610, Note_on_c, 13, 59, 85
20, 29610, Note_on_c, 13, 62, 85
20, 29630, Note_on_c, 13, 62, 0
20, 29630, Note_on_c, 13, 59, 0
20, 29640, Note_on_c, 13, 59, 85
20, 29640, Note_on_c, 13, 62, 85
20, 29660, Note_on_c, 13, 62, 0
20, 29660, Note_on_c, 13, 59, 0
20, 29670, Note_on_c, 13, 59, 85
20, 29670, Note_on_c, 13, 62, 85
20, 29690, Note_on_c, 13, 62, 0
20, 29690, Note_on_c, 13, 59, 0
20, 29700, Note_on_c, 13, 59, 85
20, 29700, Note_on_c, 13, 62, 85
20, 29720, Note_on_c, 13, 62, 0
20, 29720, Note_on_c, 13, 59, 0
20, 29730, Note_on_c, 13, 59, 85
20, 29730, Note_on_c, 13, 62, 85
20, 29750, Note_on_c, 13, 62, 0
20, 29750, Note_on_c, 13, 59, 0
20, 29760, Note_on_c, 13, 60, 85
20, 29760, Note_on_c, 13, 62, 85
20, 29780, Note_on_c, 13, 62, 0
20, 29780, Note_on_c, 13, 60, 0
20, 29790, Note_on_c, 13, 60, 85
20, 29790, Note_on_c, 13, 62, 85
20, 29810, Note_on_c, 13, 62, 0
20, 29810, Note_on_c, 13, 60, 0
20, 29820, Note_on_c, 13, 60, 85
20, 29820, Note_on_c, 13, 62, 85
20, 29840, Note_on_c, 13, 62, 0
20, 29840, Note_on_c, 13, 60, 0
20, 29850, Note_on_c, 13, 60, 85
20, 29850, Note_on_c, 13, 62, 85
20, 29870, Note_on_c, 13, 62, 0
20, 29870, Note_on_c, 13, 60, 0
20, 29880, Note_on_c, 13, 60, 85
20, 29880, Note_on_c, 13, 62, 85
20, 29900, Note_on_c, 13, 62, 0
20, 29900, Note_on_c, 13, 60, 0
20, 29910, Note_on_c, 13, 60, 85
20, 29910, Note_on_c, 13, 62, 85
20, 29930, Note_on_c, 13, 62, 0
20, 29930, Note_on_c, 13, 60, 0
20, 29940, Note_on_c, 13, 60, 85
20, 29940, Note_on_c, 13, 62, 85
20, 29960, Note_on_c, 13, 62, 0
20, 29960, Note_on_c, 13, 60, 0
20, 29970, Note_on_c, 13, 60, 85
20, 29970, Note_on_c, 13, 62, 85
20, 29990, Note_on_c, 13, 62, 0
20, 29990, Note_on_c, 13, 60, 0
20, 30000, Note_on_c, 13, 60, 85
20, 30000, Note_on_c, 13, 62, 85
20, 30020, Note_on_c, 13, 62, 0
20, 30020, Note_on_c, 13, 60, 0
20, 30030, Note_on_c, 13, 60, 85
20, 30030, Note_on_c, 13, 62, 85
20, 30050, Note_on_c, 13, 62, 0
20, 30050, Note_on_c, 13, 60, 0
20, 30060, Note_on_c, 13, 60, 85
20, 30060, Note_on_c, 13, 62, 85
20, 30080, Note_on_c, 13, 62, 0
20, 30080, Note_on_c, 13, 60, 0
20, 30090, Note_on_c, 13, 60, 85
20, 30090, Note_on_c, 13, 62, 85
20, 30110, Note_on_c, 13, 62, 0
20, 30110, Note_on_c, 13, 60, 0
20, 30120, Note_on_c, 13, 60, 85
20, 30120, Note_on_c, 13, 62, 85
20, 30140, Note_on_c, 13, 62, 0
20, 30140, Note_on_c, 13, 60, 0
20, 30150, Note_on_c, 13, 60, 85
20, 30150, Note_on_c, 13, 62, 85
20, 30170, Note_on_c, 13, 62, 0
20, 30170, Note_on_c, 13, 60, 0
20, 30180, Note_on_c, 13, 60, 85
20, 30180, Note_on_c, 13, 62, 85
20, 30200, Note_on_c, 13, 62, 0
20, 30200, Note_on_c, 13, 60, 0
20, 30210, Note_on_c, 13, 60, 85
20, 30210, Note_on_c, 13, 62, 85
20, 30230, Note_on_c, 13, 62, 0
20, 30230, Note_on_c, 13, 60, 0
20, 30240, Note_on_c, 13, 59, 85
20, 30240, Note_on_c, 13, 62, 85
20, 30360, Note_on_c, 13, 62, 0
20, 30360, Note_on_c, 13, 59, 0
20, 30360, Note_on_c, 13, 72, 85
20, 30405, Note_on_c, 13, 72, 0
20, 30420, Note_on_c, 13, 72, 85
20, 30465, Note_on_c, 13, 72, 0
20, 30480, Note_on_c, 13, 74, 85
20, 30525, Note_on_c, 13, 74, 0
20, 30540, Note_on_c, 13, 74, 85
20, 30585, Note_on_c, 13, 74, 0
20, 30600, Note_on_c, 13, 72, 85
20, 30660, Note_on_c, 13, 72, 0
20, 30660, Note_on_c, 13, 71, 85
20, 30690, Note_on_c, 13, 71, 0
20, 30690, Note_on_c, 13, 69, 85
20, 30720, Note_on_c, 13, 69, 0
20, 30720, Note_on_c, 13, 67, 85
20, 30765, Note_on_c, 13, 67, 0
20, 30780, Note_on_c, 13, 67, 85
20, 30825, Note_on_c, 13, 67, 0
20, 30840, Note_on_c, 13, 66, 85
20, 30885, Note_on_c, 13, 66, 0
20, 30900, Note_on_c, 13, 66, 85
20, 30945, Note_on_c, 13, 66, 0
20, 30960, Note_on_c, 13, 67, 85
20, 31080, Note_on_c, 13, 67, 0
20, 31200, Note_on_c, 13, 71, 47
20, 31440, Note_on_c, 13, 71, 0
20, 31440, Note_on_c, 13, 72, 47
20, 31680, Note_on_c, 13, 72, 0
20, 31680, Note_on_c, 13, 71, 47
20, 31710, Note_on_c, 13, 71, 0
20, 31710, Note_on_c, 13, 69, 47
20, 31790, Note_on_c, 13, 69, 0
20, 31800, Note_on_c, 13, 69, 47
20, 31920, Note_on_c, 13, 69, 0
20, 31920, Note_on_c, 13, 69, 47
20, 31950, Note_on_c, 13, 69, 0
20, 31950, Note_on_c, 13, 67, 47
20, 32030, Note_on_c, 13, 67, 0
20, 32040, Note_on_c, 13, 67, 47
20, 32160, Note_on_c, 13, 67, 0
20, 32160, Note_on_c, 13, 64, 47
20, 32250, Note_on_c, 13, 64, 0
20, 32280, Note_on_c, 13, 64, 47
20, 32370, Note_on_c, 13, 64, 0
20, 32400, Note_on_c, 13, 60, 47
20, 32490, Note_on_c, 13, 60, 0
20, 32520, Note_on_c, 13, 57, 47
20, 32610, Note_on_c, 13, 57, 0
20, 32640, Note_on_c, 13, 62, 47
20, 32700, Note_on_c, 13, 62, 0
20, 32760, Note_on_c, 13, 66, 47
20, 32820, Note_on_c, 13, 66, 0
20, 32880, Note_on_c, 13, 67, 47
20, 32940, Note_on_c, 13, 67, 0
20, 33120, Note_on_c, 13, 71, 47
20, 33360, Note_on_c, 13, 71, 0
20, 33360, Note_on_c, 13, 72, 47
20, 33600, Note_on_c, 13, 72, 0
20, 33600, Note_on_c, 13, 71, 47
20, 33660, Note_on_c, 13, 71, 0
20, 33660, Note_on_c, 13, 69, 47
20, 33690, Note_on_c, 13, 69, 0
20, 33720, Note_on_c, 13, 69, 47
20, 33750, Note_on_c, 13, 69, 0
20, 33780, Note_on_c, 13, 69, 47
20, 33810, Note_on_c, 13, 69, 0
20, 33840, Note_on_c, 13, 69, 47
20, 33900, Note_on_c, 13, 69, 0
20, 33900, Note_on_c, 13, 67, 47
20, 33930, Note_on_c, 13, 67, 0
20, 33960, Note_on_c, 13, 67, 47
20, 33990, Note_on_c, 13, 67, 0
20, 34020, Note_on_c, 13, 67, 47
20, 34050, Note_on_c, 13, 67, 0
20, 34080, Note_on_c, 13, 64, 47
20, 34170, Note_on_c, 13, 64, 0
20, 34200, Note_on_c, 13, 64, 47
20, 34245, Note_on_c, 13, 64, 0
20, 34260, Note_on_c, 13, 64, 47
20, 34305, Note_on_c, 13, 64, 0
20, 34320, Note_on_c, 13, 60, 47
20, 34410, Note_on_c, 13, 60, 0
20, 34440, Note_on_c, 13, 60, 47
20, 34485, Note_on_c, 13, 60, 0
20, 34500, Note_on_c, 13, 60, 47
20, 34545, Note_on_c, 13, 60, 0
20, 34560, Note_on_c, 13, 59, 85
20, 34860, Note_on_c, 13, 59, 0
20, 34860, Note_on_c, 13, 59, 61
20, 34875, Note_on_c, 13, 59, 0
20, 34875, Note_on_c, 13, 60, 61
20, 34890, Note_on_c, 13, 60, 0
20, 34890, Note_on_c, 13, 57, 61
20, 34905, Note_on_c, 13, 57, 0
20, 34905, Note_on_c, 13, 59, 61
20, 34920, Note_on_c, 13, 59, 0
20, 34920, Note_on_c, 13, 60, 61
20, 34980, Note_on_c, 13, 60, 0
20, 34980, Note_on_c, 13, 57, 61
20, 35040, Note_on_c, 13, 57, 0
20, 35040, Note_on_c, 13, 67, 85
20, 35340, Note_on_c, 13, 67, 0
20, 35340, Note_on_c, 13, 67, 61
20, 35355, Note_on_c, 13, 67, 0
20, 35355, Note_on_c, 13, 69, 61
20, 35370, Note_on_c, 13, 69, 0
20, 35370, Note_on_c, 13, 66, 61
20, 35385, Note_on_c, 13, 66, 0
20, 35385, Note_on_c, 13, 67, 61
20, 35400, Note_on_c, 13, 67, 0
20, 35400, Note_on_c, 13, 69, 61
20, 35460, Note_on_c, 13, 69, 0
20, 35460, Note_on_c, 13, 66, 61
20, 35520, Note_on_c, 13, 66, 0
20, 35520, Note_on_c, 13, 71, 53
20, 35540, Note_on_c, 13, 71, 0
20, 35550, Note_on_c, 13, 71, 53
20, 35570, Note_on_c, 13, 71, 0
20, 35580, Note_on_c, 13, 71, 55
20, 35600, Note_on_c, 13, 71, 0
20, 35610, Note_on_c, 13, 71, 55
20, 35630, Note_on_c, 13, 71, 0
20, 35640, Note_on_c, 13, 71, 55
20, 35660, Note_on_c, 13, 71, 0
20, 35670, Note_on_c, 13, 71, 56
20, 35690, Note_on_c, 13, 71, 0
20, 35700, Note_on_c, 13, 71, 56
20, 35720, Note_on_c, 13, 71, 0
20, 35730, Note_on_c, 13, 71, 58
20, 35750, Note_on_c, 13, 71, 0
20, 35760, Note_on_c, 13, 72, 58
20, 35780, Note_on_c, 13, 72, 0
20, 35790, Note_on_c, 13, 72, 59
20, 35810, Note_on_c, 13, 72, 0
20, 35820, Note_on_c, 13, 72, 59
20, 35840, Note_on_c, 13, 72, 0
20, 35850, Note_on_c, 13, 72, 61
20, 35870, Note_on_c, 13, 72, 0
20, 35880, Note_on_c, 13, 74, 61
20, 35900, Note_on_c, 13, 74, 0
20, 35910, Note_on_c, 13, 74, 62
20, 35930, Note_on_c, 13, 74, 0
20, 35940, Note_on_c, 13, 74, 62
20, 35960, Note_on_c, 13, 74, 0
20, 35970, Note_on_c, 13, 74, 64
20, 35990, Note_on_c, 13, 74, 0
20, 36000, Note_on_c, 13, 71, 64
20, 36020, Note_on_c, 13, 71, 0
20, 36030, Note_on_c, 13, 71, 65
20, 36050, Note_on_c, 13, 71, 0
20, 36060, Note_on_c, 13, 71, 65
20, 36080, Note_on_c, 13, 71, 0
20, 36090, Note_on_c, 13, 71, 67
20, 36110, Note_on_c, 13, 71, 0
20, 36120, Note_on_c, 13, 74, 67
20, 36140, Note_on_c, 13, 74, 0
20, 36150, Note_on_c, 13, 74, 68
20, 36170, Note_on_c, 13, 74, 0
20, 36180, Note_on_c, 13, 74, 68
20, 36200, Note_on_c, 13, 74, 0
20, 36210, Note_on_c, 13, 74, 70
20, 36230, Note_on_c, 13, 74, 0
20, 36240, Note_on_c, 13, 74, 70
20, 36260, Note_on_c, 13, 74, 0
20, 36270, Note_on_c, 13, 74, 71
20, 36290, Note_on_c, 13, 74, 0
20, 36300, Note_on_c, 13, 74, 71
20, 36320, Note_on_c, 13, 74, 0
20, 36330, Note_on_c, 13, 74, 73
20, 36350, Note_on_c, 13, 74, 0
20, 36360, Note_on_c, 13, 79, 73
20, 36380, Note_on_c, 13, 79, 0
20, 36390, Note_on_c, 13, 79, 73
20, 36410, Note_on_c, 13, 79, 0
20, 36420, Note_on_c, 13, 79, 74
20, 36440, Note_on_c, 13, 79, 0
20, 36450, Note_on_c, 13, 79, 74
20, 36470, Note_on_c, 13, 79, 0
20, 36480, Note_on_c, 13, 78, 85
20, 36500, Note_on_c, 13, 78, 0
20, 36510, Note_on_c, 13, 78, 85
20, 36530, Note_on_c, 13, 78, 0
20, 36540, Note_on_c, 13, 78, 85
20, 36560, Note_on_c, 13, 78, 0
20, 36570, Note_on_c, 13, 78, 85
20, 36590, Note_on_c, 13, 78, 0
20, 36600, Note_on_c, 13, 78, 85
20, 36620, Note_on_c, 13, 78, 0
20, 36630, Note_on_c, 13, 78, 85
20, 36650, Note_on_c, 13, 78, 0
20, 36660, Note_on_c, 13, 78, 85
20, 36680, Note_on_c, 13, 78, 0
20, 36690, Note_on_c, 13, 78, 85
20, 36710, Note_on_c, 13, 78, 0
20, 36720, Note_on_c, 13, 79, 85
20, 36740, Note_on_c, 13, 79, 0
20, 36750, Note_on_c, 13, 79, 85
20, 36770, Note_on_c, 13, 79, 0
20, 36780, Note_on_c, 13, 79, 85
20, 36800, Note_on_c, 13, 79, 0
20, 36810, Note_on_c, 13, 79, 85
20, 36830, Note_on_c, 13, 79, 0
20, 36840, Note_on_c, 13, 79, 85
20, 36860, Note_on_c, 13, 79, 0
20, 36870, Note_on_c, 13, 79, 85
20, 36890, Note_on_c, 13, 79, 0
20, 36900, Note_on_c, 13, 79, 85
20, 36920, Note_on_c, 13, 79, 0
20, 36930, Note_on_c, 13, 79, 85
20, 36950, Note_on_c, 13, 79, 0
20, 36960, Note_on_c, 13, 78, 85
20, 36980, Note_on_c, 13, 78, 0
20, 36990, Note_on_c, 13, 78, 85
20, 37010, Note_on_c, 13, 78, 0
20, 37020, Note_on_c, 13, 78, 85
20, 37040, Note_on_c, 13, 78, 0
20, 37050, Note_on_c, 13, 78, 85
20, 37070, Note_on_c, 13, 78, 0
20, 37080, Note_on_c, 13, 78, 85
20, 37100, Note_on_c, 13, 78, 0
20, 37110, Note_on_c, 13, 78, 85
20, 37130, Note_on_c, 13, 78, 0
20, 37140, Note_on_c, 13, 78, 85
20, 37160, Note_on_c, 13, 78, 0
20, 37170, Note_on_c, 13, 78, 85
20, 37190, Note_on_c, 13, 78, 0
20, 37200, Note_on_c, 13, 79, 85
20, 37220, Note_on_c, 13, 79, 0
20, 37230, Note_on_c, 13, 79, 85
20, 37250, Note_on_c, 13, 79, 0
20, 37260, Note_on_c, 13, 79, 85
20, 37280, Note_on_c, 13, 79, 0
20, 37290, Note_on_c, 13, 79, 85
20, 37310, Note_on_c, 13, 79, 0
20, 37320, Note_on_c, 13, 79, 85
20, 37340, Note_on_c, 13, 79, 0
20, 37350, Note_on_c, 13, 79, 85
20, 37370, Note_on_c, 13, 79, 0
20, 37380, Note_on_c, 13, 79, 85
20, 37400, Note_on_c, 13, 79, 0
20, 37410, Note_on_c, 13, 79, 85
20, 37430, Note_on_c, 13, 79, 0
20, 37440, Note_on_c, 13, 74, 85
20, 37470, Note_on_c, 13, 74, 0
20, 37500, Note_on_c, 13, 74, 85
20, 37590, Note_on_c, 13, 74, 0
20, 37620, Note_on_c, 13, 74, 85
20, 37710, Note_on_c, 13, 74, 0
20, 37740, Note_on_c, 13, 74, 85
20, 37830, Note_on_c, 13, 74, 0
20, 37860, Note_on_c, 13, 74, 85
20, 37950, Note_on_c, 13, 74, 0
20, 37980, Note_on_c, 13, 74, 85
20, 38070, Note_on_c, 13, 74, 0
20, 38100, Note_on_c, 13, 74, 85
20, 38190, Note_on_c, 13, 74, 0
20, 38220, Note_on_c, 13, 74, 85
20, 38310, Note_on_c, 13, 74, 0
20, 38340, Note_on_c, 13, 74, 85
20, 38400, Note_on_c, 13, 74, 0
20, 38400, Note_on_c, 13, 73, 85
20, 38420, Note_on_c, 13, 73, 0
20, 38430, Note_on_c, 13, 76, 85
20, 38430, Note_on_c, 13, 73, 85
20, 38450, Note_on_c, 13, 73, 0
20, 38450, Note_on_c, 13, 76, 0
20, 38460, Note_on_c, 13, 76, 85
20, 38460, Note_on_c, 13, 73, 85
20, 38480, Note_on_c, 13, 73, 0
20, 38480, Note_on_c, 13, 76, 0
20, 38490, Note_on_c, 13, 76, 85
20, 38490, Note_on_c, 13, 73, 85
20, 38510, Note_on_c, 13, 73, 0
20, 38510, Note_on_c, 13, 76, 0
20, 38520, Note_on_c, 13, 78, 85
20, 38520, Note_on_c, 13, 74, 85
20, 38540, Note_on_c, 13, 74, 0
20, 38540, Note_on_c, 13, 78, 0
20, 38550, Note_on_c, 13, 78, 85
20, 38550, Note_on_c, 13, 74, 85
20, 38570, Note_on_c, 13, 74, 0
20, 38570, Note_on_c, 13, 78, 0
20, 38580, Note_on_c, 13, 78, 85
20, 38580, Note_on_c, 13, 74, 85
20, 38600, Note_on_c, 13, 74, 0
20, 38600, Note_on_c, 13, 78, 0
20, 38610, Note_on_c, 13, 78, 85
20, 38610, Note_on_c, 13, 74, 85
20, 38630, Note_on_c, 13, 74, 0
20, 38630, Note_on_c, 13, 78, 0
20, 38640, Note_on_c, 13, 73, 85
20, 38640, Note_on_c, 13, 76, 85
20, 38660, Note_on_c, 13, 76, 0
20, 38660, Note_on_c, 13, 73, 0
20, 38670, Note_on_c, 13, 73, 85
20, 38670, Note_on_c, 13, 76, 85
20, 38690, Note_on_c, 13, 76, 0
20, 38690, Note_on_c, 13, 73, 0
20, 38700, Note_on_c, 13, 73, 85
20, 38700, Note_on_c, 13, 76, 85
20, 38720, Note_on_c, 13, 76, 0
20, 38720, Note_on_c, 13, 73, 0
20, 38730, Note_on_c, 13, 73, 85
20, 38730, Note_on_c, 13, 76, 85
20, 38750, Note_on_c, 13, 76, 0
20, 38750, Note_on_c, 13, 73, 0
20, 38760, Note_on_c, 13, 78, 85
20, 38760, Note_on_c, 13, 74, 85
20, 38780, Note_on_c, 13, 74, 0
20, 38780, Note_on_c, 13, 78, 0
20, 38790, Note_on_c, 13, 78, 85
20, 38790, Note_on_c, 13, 74, 85
20, 38810, Note_on_c, 13, 74, 0
20, 38810, Note_on_c, 13, 78, 0
20, 38820, Note_on_c, 13, 78, 85
20, 38820, Note_on_c, 13, 74, 85
20, 38840, Note_on_c, 13, 74, 0
20, 38840, Note_on_c, 13, 78, 0
20, 38850, Note_on_c, 13, 78, 85
20, 38850, Note_on_c, 13, 74, 85
20, 38870, Note_on_c, 13, 74, 0
20, 38870, Note_on_c, 13, 78, 0
20, 38885, Note_on_c, 13, 76, 85
20, 38885, Note_on_c, 13, 73, 85
20, 38930, Note_on_c, 13, 73, 0
20, 38930, Note_on_c, 13, 76, 0
20, 38945, Note_on_c, 13, 69, 85
20, 38990, Note_on_c, 13, 69, 0
20, 39005, Note_on_c, 13, 69, 85
20, 39050, Note_on_c, 13, 69, 0
20, 39065, Note_on_c, 13, 69, 85
20, 39110, Note_on_c, 13, 69, 0
20, 39125, Note_on_c, 13, 69, 85
20, 39245, Note_on_c, 13, 69, 0
20, 39360, Note_on_c, 13, 69, 55
20, 39540, Note_on_c, 13, 69, 0
20, 39540, Note_on_c, 13, 67, 55
20, 39560, Note_on_c, 13, 67, 0
20, 39560, Note_on_c, 13, 66, 55
20, 39580, Note_on_c, 13, 66, 0
20, 39580, Note_on_c, 13, 64, 55
20, 39600, Note_on_c, 13, 64, 0
20, 39600, Note_on_c, 13, 62, 55
20, 39660, Note_on_c, 13, 62, 0
20, 39720, Note_on_c, 13, 71, 55
20, 39780, Note_on_c, 13, 71, 0
20, 39840, Note_on_c, 13, 67, 55
20, 39900, Note_on_c, 13, 67, 0
20, 39960, Note_on_c, 13, 64, 55
20, 40020, Note_on_c, 13, 64, 0
20, 40080, Note_on_c, 13, 69, 55
20, 40140, Note_on_c, 13, 69, 0
20, 40320, Note_on_c, 13, 66, 55
20, 40500, Note_on_c, 13, 66, 0
20, 40500, Note_on_c, 13, 64, 55
20, 40520, Note_on_c, 13, 64, 0
20, 40520, Note_on_c, 13, 62, 55
20, 40540, Note_on_c, 13, 62, 0
20, 40540, Note_on_c, 13, 61, 55
20, 40560, Note_on_c, 13, 61, 0
20, 40560, Note_on_c, 13, 59, 55
20, 40620, Note_on_c, 13, 59, 0
20, 40680, Note_on_c, 13, 67, 55
20, 40740, Note_on_c, 13, 67, 0
20, 40800, Note_on_c, 13, 66, 55
20, 41040, Note_on_c, 13, 66, 0
20, 41040, Note_on_c, 13, 64, 55
20, 41160, Note_on_c, 13, 64, 0
20, 41280, Note_on_c, 13, 69, 55
20, 41460, Note_on_c, 13, 69, 0
20, 41460, Note_on_c, 13, 67, 55
20, 41480, Note_on_c, 13, 67, 0
20, 41480, Note_on_c, 13, 66, 55
20, 41500, Note_on_c, 13, 66, 0
20, 41500, Note_on_c, 13, 64, 55
20, 41520, Note_on_c, 13, 64, 0
20, 41520, Note_on_c, 13, 62, 55
20, 41580, Note_on_c, 13, 62, 0
20, 41640, Note_on_c, 13, 71, 55
20, 41700, Note_on_c, 13, 71, 0
20, 41760, Note_on_c, 13, 67, 55
20, 41820, Note_on_c, 13, 67, 0
20, 41880, Note_on_c, 13, 64, 55
20, 41940, Note_on_c, 13, 64, 0
20, 42000, Note_on_c, 13, 69, 55
20, 42060, Note_on_c, 13, 69, 0
20, 42165, Note_on_c, 13, 67, 55
20, 42210, Note_on_c, 13, 67, 0
20, 42240, Note_on_c, 13, 67, 55
20, 42300, Note_on_c, 13, 67, 0
20, 42300, Note_on_c, 13, 66, 55
20, 42360, Note_on_c, 13, 66, 0
20, 42420, Note_on_c, 13, 79, 55
20, 42450, Note_on_c, 13, 79, 0
20, 42480, Note_on_c, 13, 79, 55
20, 42540, Note_on_c, 13, 79, 0
20, 42540, Note_on_c, 13, 78, 55
20, 42600, Note_on_c, 13, 78, 0
20, 42660, Note_on_c, 13, 67, 55
20, 42705, Note_on_c, 13, 67, 0
20, 42720, Note_on_c, 13, 66, 55
20, 42765, Note_on_c, 13, 66, 0
20, 42780, Note_on_c, 13, 66, 55
20, 42825, Note_on_c, 13, 66, 0
20, 42840, Note_on_c, 13, 67, 55
20, 42885, Note_on_c, 13, 67, 0
20, 42900, Note_on_c, 13, 67, 55
20, 42945, Note_on_c, 13, 67, 0
20, 42960, Note_on_c, 13, 69, 55
20, 43005, Note_on_c, 13, 69, 0
20, 43020, Note_on_c, 13, 69, 55
20, 43065, Note_on_c, 13, 69, 0
20, 43080, Note_on_c, 13, 66, 55
20, 43125, Note_on_c, 13, 66, 0
20, 43140, Note_on_c, 13, 66, 55
20, 43185, Note_on_c, 13, 66, 0
20, 43200, Note_on_c, 13, 64, 55
20, 43245, Note_on_c, 13, 64, 0
20, 43260, Note_on_c, 13, 64, 55
20, 43305, Note_on_c, 13, 64, 0
20, 43320, Note_on_c, 13, 66, 55
20, 43365, Note_on_c, 13, 66, 0
20, 43380, Note_on_c, 13, 66, 55
20, 43425, Note_on_c, 13, 66, 0
20, 43440, Note_on_c, 13, 67, 55
20, 43485, Note_on_c, 13, 67, 0
20, 43500, Note_on_c, 13, 67, 55
20, 43545, Note_on_c, 13, 67, 0
20, 43560, Note_on_c, 13, 64, 55
20, 43605, Note_on_c, 13, 64, 0
20, 43620, Note_on_c, 13, 64, 55
20, 43665, Note_on_c, 13, 64, 0
20, 43680, Note_on_c, 13, 66, 55
20, 43725, Note_on_c, 13, 66, 0
20, 43740, Note_on_c, 13, 66, 55
20, 43785, Note_on_c, 13, 66, 0
20, 43800, Note_on_c, 13, 67, 55
20, 43845, Note_on_c, 13, 67, 0
20, 43860, Note_on_c, 13, 67, 55
20, 43905, Note_on_c, 13, 67, 0
20, 43920, Note_on_c, 13, 69, 55
20, 43965, Note_on_c, 13, 69, 0
20, 43980, Note_on_c, 13, 69, 55
20, 44025, Note_on_c, 13, 69, 0
20, 44040, Note_on_c, 13, 66, 55
20, 44085, Note_on_c, 13, 66, 0
20, 44100, Note_on_c, 13, 66, 55
20, 44145, Note_on_c, 13, 66, 0
20, 44160, Note_on_c, 13, 64, 55
20, 44205, Note_on_c, 13, 64, 0
20, 44220, Note_on_c, 13, 64, 55
20, 44265, Note_on_c, 13, 64, 0
20, 44280, Note_on_c, 13, 66, 55
20, 44325, Note_on_c, 13, 66, 0
20, 44340, Note_on_c, 13, 66, 55
20, 44385, Note_on_c, 13, 66, 0
20, 44400, Note_on_c, 13, 67, 55
20, 44445, Note_on_c, 13, 67, 0
20, 44460, Note_on_c, 13, 67, 55
20, 44505, Note_on_c, 13, 67, 0
20, 44520, Note_on_c, 13, 64, 55
20, 44565, Note_on_c, 13, 64, 0
20, 44580, Note_on_c, 13, 64, 55
20, 44625, Note_on_c, 13, 64, 0
20, 44640, Note_on_c, 13, 66, 55
20, 44760, Note_on_c, 13, 66, 0
20, 44880, Note_on_c, 13, 78, 85
20, 44880, Note_on_c, 13, 71, 85
20, 45120, Note_on_c, 13, 71, 0
20, 45120, Note_on_c, 13, 78, 0
20, 45120, Note_on_c, 13, 76, 85
20, 45240, Note_on_c, 13, 76, 0
20, 45360, Note_on_c, 13, 69, 85
20, 45360, Note_on_c, 13, 76, 85
20, 45600, Note_on_c, 13, 76, 0
20, 45600, Note_on_c, 13, 69, 0
20, 45600, Note_on_c, 13, 74, 85
20, 45645, Note_on_c, 13, 74, 0
20, 45660, Note_on_c, 13, 78, 85
20, 45690, Note_on_c, 13, 78, 0
20, 45720, Note_on_c, 13, 79, 85
20, 45750, Note_on_c, 13, 79, 0
20, 45780, Note_on_c, 13, 81, 85
20, 45810, Note_on_c, 13, 81, 0
20, 45840, Note_on_c, 13, 79, 85
20, 45900, Note_on_c, 13, 79, 0
20, 45900, Note_on_c, 13, 81, 85
20, 45930, Note_on_c, 13, 81, 0
20, 45930, Note_on_c, 13, 83, 85
20, 45960, Note_on_c, 13, 83, 0
20, 45960, Note_on_c, 13, 81, 85
20, 46005, Note_on_c, 13, 81, 0
20, 46020, Note_on_c, 13, 79, 85
20, 46050, Note_on_c, 13, 79, 0
20, 46080, Note_on_c, 13, 79, 85
20, 46140, Note_on_c, 13, 79, 0
20, 46140, Note_on_c, 13, 78, 85
20, 46185, Note_on_c, 13, 78, 0
20, 46200, Note_on_c, 13, 74, 85
20, 46230, Note_on_c, 13, 74, 0
20, 46260, Note_on_c, 13, 78, 85
20, 46290, Note_on_c, 13, 78, 0
20, 46320, Note_on_c, 13, 78, 85
20, 46380, Note_on_c, 13, 78, 0
20, 46380, Note_on_c, 13, 76, 85
20, 46425, Note_on_c, 13, 76, 0
20, 46440, Note_on_c, 13, 74, 85
20, 46470, Note_on_c, 13, 74, 0
20, 46500, Note_on_c, 13, 73, 85
20, 46530, Note_on_c, 13, 73, 0
20, 46560, Note_on_c, 13, 74, 85
20, 46605, Note_on_c, 13, 74, 0
20, 46620, Note_on_c, 13, 66, 53
20, 46665, Note_on_c, 13, 66, 0
20, 46680, Note_on_c, 13, 67, 53
20, 46725, Note_on_c, 13, 67, 0
20, 46740, Note_on_c, 13, 67, 53
20, 46785, Note_on_c, 13, 67, 0
20, 46800, Note_on_c, 13, 69, 53
20, 46845, Note_on_c, 13, 69, 0
20, 46860, Note_on_c, 13, 69, 53
20, 46905, Note_on_c, 13, 69, 0
20, 46920, Note_on_c, 13, 66, 53
20, 46965, Note_on_c, 13, 66, 0
20, 46980, Note_on_c, 13, 66, 53
20, 47025, Note_on_c, 13, 66, 0
20, 47040, Note_on_c, 13, 64, 55
20, 47085, Note_on_c, 13, 64, 0
20, 47100, Note_on_c, 13, 64, 55
20, 47145, Note_on_c, 13, 64, 0
20, 47160, Note_on_c, 13, 66, 55
20, 47205, Note_on_c, 13, 66, 0
20, 47220, Note_on_c, 13, 66, 55
20, 47265, Note_on_c, 13, 66, 0
20, 47280, Note_on_c, 13, 67, 55
20, 47325, Note_on_c, 13, 67, 0
20, 47340, Note_on_c, 13, 67, 55
20, 47385, Note_on_c, 13, 67, 0
20, 47400, Note_on_c, 13, 64, 55
20, 47445, Note_on_c, 13, 64, 0
20, 47460, Note_on_c, 13, 64, 55
20, 47505, Note_on_c, 13, 64, 0
20, 47520, Note_on_c, 13, 66, 55
20, 47565, Note_on_c, 13, 66, 0
20, 47580, Note_on_c, 13, 66, 55
20, 47625, Note_on_c, 13, 66, 0
20, 47640, Note_on_c, 13, 67, 55
20, 47685, Note_on_c, 13, 67, 0
20, 47700, Note_on_c, 13, 67, 55
20, 47745, Note_on_c, 13, 67, 0
20, 47760, Note_on_c, 13, 69, 55
20, 47805, Note_on_c, 13, 69, 0
20, 47820, Note_on_c, 13, 69, 55
20, 47865, Note_on_c, 13, 69, 0
20, 47880, Note_on_c, 13, 66, 55
20, 47925, Note_on_c, 13, 66, 0
20, 47940, Note_on_c, 13, 66, 55
20, 47985, Note_on_c, 13, 66, 0
20, 48000, Note_on_c, 13, 64, 55
20, 48045, Note_on_c, 13, 64, 0
20, 48060, Note_on_c, 13, 64, 55
20, 48105, Note_on_c, 13, 64, 0
20, 48120, Note_on_c, 13, 66, 55
20, 48165, Note_on_c, 13, 66, 0
20, 48180, Note_on_c, 13, 66, 55
20, 48225, Note_on_c, 13, 66, 0
20, 48240, Note_on_c, 13, 67, 55
20, 48285, Note_on_c, 13, 67, 0
20, 48300, Note_on_c, 13, 67, 55
20, 48345, Note_on_c, 13, 67, 0
20, 48360, Note_on_c, 13, 64, 55
20, 48405, Note_on_c, 13, 64, 0
20, 48420, Note_on_c, 13, 64, 55
20, 48465, Note_on_c, 13, 64, 0
20, 48480, Note_on_c, 13, 66, 58
20, 48600, Note_on_c, 13, 66, 0
20, 48720, Note_on_c, 13, 78, 85
20, 48720, Note_on_c, 13, 71, 85
20, 48960, Note_on_c, 13, 71, 0
20, 48960, Note_on_c, 13, 78, 0
20, 48960, Note_on_c, 13, 76, 85
20, 49080, Note_on_c, 13, 76, 0
20, 49200, Note_on_c, 13, 69, 85
20, 49200, Note_on_c, 13, 76, 85
20, 49440, Note_on_c, 13, 76, 0
20, 49440, Note_on_c, 13, 69, 0
20, 49440, Note_on_c, 13, 74, 85
20, 49485, Note_on_c, 13, 74, 0
20, 49500, Note_on_c, 13, 78, 85
20, 49530, Note_on_c, 13, 78, 0
20, 49560, Note_on_c, 13, 79, 85
20, 49590, Note_on_c, 13, 79, 0
20, 49620, Note_on_c, 13, 81, 85
20, 49650, Note_on_c, 13, 81, 0
20, 49680, Note_on_c, 13, 79, 85
20, 49740, Note_on_c, 13, 79, 0
20, 49740, Note_on_c, 13, 81, 85
20, 49770, Note_on_c, 13, 81, 0
20, 49770, Note_on_c, 13, 83, 85
20, 49800, Note_on_c, 13, 83, 0
20, 49800, Note_on_c, 13, 81, 85
20, 49845, Note_on_c, 13, 81, 0
20, 49860, Note_on_c, 13, 79, 85
20, 49890, Note_on_c, 13, 79, 0
20, 49920, Note_on_c, 13, 79, 85
20, 49980, Note_on_c, 13, 79, 0
20, 49980, Note_on_c, 13, 78, 85
20, 50025, Note_on_c, 13, 78, 0
20, 50040, Note_on_c, 13, 74, 85
20, 50070, Note_on_c, 13, 74, 0
20, 50100, Note_on_c, 13, 78, 85
20, 50130, Note_on_c, 13, 78, 0
20, 50160, Note_on_c, 13, 78, 85
20, 50220, Note_on_c, 13, 78, 0
20, 50220, Note_on_c, 13, 76, 85
20, 50265, Note_on_c, 13, 76, 0
20, 50280, Note_on_c, 13, 74, 85
20, 50310, Note_on_c, 13, 74, 0
20, 50340, Note_on_c, 13, 73, 85
20, 50370, Note_on_c, 13, 73, 0
20, 50400, Note_on_c, 13, 74, 85
20, 50445, Note_on_c, 13, 74, 0
20, 50460, Note_on_c, 13, 69, 85
20, 50505, Note_on_c, 13, 69, 0
20, 50520, Note_on_c, 13, 71, 85
20, 50565, Note_on_c, 13, 71, 0
20, 50580, Note_on_c, 13, 73, 85
20, 50625, Note_on_c, 13, 73, 0
20, 50640, Note_on_c, 13, 74, 85
20, 50670, Note_on_c, 13, 74, 0
20, 50700, Note_on_c, 13, 74, 85
20, 50730, Note_on_c, 13, 74, 0
20, 50760, Note_on_c, 13, 76, 85
20, 50775, Note_on_c, 13, 76, 0
20, 50775, Note_on_c, 13, 78, 85
20, 50790, Note_on_c, 13, 78, 0
20, 50790, Note_on_c, 13, 76, 85
20, 50805, Note_on_c, 13, 76, 0
20, 50805, Note_on_c, 13, 78, 85
20, 50820, Note_on_c, 13, 78, 0
20, 50820, Note_on_c, 13, 74, 85
20, 50850, Note_on_c, 13, 74, 0
20, 50850, Note_on_c, 13, 76, 85
20, 50880, Note_on_c, 13, 76, 0
20, 50880, Note_on_c, 13, 78, 85
20, 50940, Note_on_c, 13, 78, 0
20, 50940, Note_on_c, 13, 73, 85
20, 50985, Note_on_c, 13, 73, 0
20, 51000, Note_on_c, 13, 74, 85
20, 51045, Note_on_c, 13, 74, 0
20, 51060, Note_on_c, 13, 76, 85
20, 51105, Note_on_c, 13, 76, 0
20, 51120, Note_on_c, 13, 78, 85
20, 51165, Note_on_c, 13, 78, 0
20, 51180, Note_on_c, 13, 78, 85
20, 51225, Note_on_c, 13, 78, 0
20, 51240, Note_on_c, 13, 79, 85
20, 51255, Note_on_c, 13, 79, 0
20, 51255, Note_on_c, 13, 81, 85
20, 51270, Note_on_c, 13, 81, 0
20, 51270, Note_on_c, 13, 79, 85
20, 51285, Note_on_c, 13, 79, 0
20, 51285, Note_on_c, 13, 81, 85
20, 51300, Note_on_c, 13, 81, 0
20, 51300, Note_on_c, 13, 78, 85
20, 51330, Note_on_c, 13, 78, 0
20, 51330, Note_on_c, 13, 79, 85
20, 51360, Note_on_c, 13, 79, 0
20, 51360, Note_on_c, 13, 81, 85
20, 51405, Note_on_c, 13, 81, 0
20, 51420, Note_on_c, 13, 81, 85
20, 51465, Note_on_c, 13, 81, 0
20, 51480, Note_on_c, 13, 82, 85
20, 51495, Note_on_c, 13, 82, 0
20, 51495, Note_on_c, 13, 83, 85
20, 51510, Note_on_c, 13, 83, 0
20, 51510, Note_on_c, 13, 82, 85
20, 51525, Note_on_c, 13, 82, 0
20, 51525, Note_on_c, 13, 83, 85
20, 51540, Note_on_c, 13, 83, 0
20, 51540, Note_on_c, 13, 80, 85
20, 51570, Note_on_c, 13, 80, 0
20, 51570, Note_on_c, 13, 82, 85
20, 51600, Note_on_c, 13, 82, 0
20, 51600, Note_on_c, 13, 83, 85
20, 51720, Note_on_c, 13, 83, 0
20, 51840, Note_on_c, 13, 67, 55
20, 52320, Note_on_c, 13, 67, 0
20, 52320, Note_on_c, 13, 66, 55
20, 52380, Note_on_c, 13, 66, 0
20, 52440, Note_on_c, 13, 69, 55
20, 52500, Note_on_c, 13, 69, 0
20, 52560, Note_on_c, 13, 66, 55
20, 52620, Note_on_c, 13, 66, 0
20, 52810, Note_on_c, 13, 62, 89
20, 52810, Note_on_c, 13, 74, 89
20, 52930, Note_on_c, 13, 74, 0
20, 52930, Note_on_c, 13, 62, 0
20, 52990, Note_on_c, 13, 69, 89
20, 53035, Note_on_c, 13, 69, 0
20, 53050, Note_on_c, 13, 74, 89
20, 53170, Note_on_c, 13, 74, 0
20, 53230, Note_on_c, 13, 69, 89
20, 53275, Note_on_c, 13, 69, 0
20, 53290, Note_on_c, 13, 74, 89
20, 53335, Note_on_c, 13, 74, 0
20, 53350, Note_on_c, 13, 69, 89
20, 53395, Note_on_c, 13, 69, 0
20, 53410, Note_on_c, 13, 74, 89
20, 53455, Note_on_c, 13, 74, 0
20, 53470, Note_on_c, 13, 78, 89
20, 53515, Note_on_c, 13, 78, 0
20, 53530, Note_on_c, 13, 81, 89
20, 53650, Note_on_c, 13, 81, 0
20, 53770, Note_on_c, 13, 81, 89
20, 53890, Note_on_c, 13, 81, 0
20, 53950, Note_on_c, 13, 78, 89
20, 53995, Note_on_c, 13, 78, 0
20, 54010, Note_on_c, 13, 81, 89
20, 54130, Note_on_c, 13, 81, 0
20, 54190, Note_on_c, 13, 78, 89
20, 54235, Note_on_c, 13, 78, 0
20, 54250, Note_on_c, 13, 81, 89
20, 54295, Note_on_c, 13, 81, 0
20, 54310, Note_on_c, 13, 78, 89
20, 54355, Note_on_c, 13, 78, 0
20, 54370, Note_on_c, 13, 75, 89
20, 54415, Note_on_c, 13, 75, 0
20, 54430, Note_on_c, 13, 78, 89
20, 54475, Note_on_c, 13, 78, 0
20, 54490, Note_on_c, 13, 71, 89
20, 54610, Note_on_c, 13, 71, 0
20, 54720, Note_on_c, 13, 64, 55
20, 54765, Note_on_c, 13, 64, 0
20, 54780, Note_on_c, 13, 64, 55
20, 54825, Note_on_c, 13, 64, 0
20, 54840, Note_on_c, 13, 65, 55
20, 54885, Note_on_c, 13, 65, 0
20, 54900, Note_on_c, 13, 65, 55
20, 54945, Note_on_c, 13, 65, 0
20, 54960, Note_on_c, 13, 67, 55
20, 55005, Note_on_c, 13, 67, 0
20, 55020, Note_on_c, 13, 67, 55
20, 55065, Note_on_c, 13, 67, 0
20, 55080, Note_on_c, 13, 64, 55
20, 55125, Note_on_c, 13, 64, 0
20, 55140, Note_on_c, 13, 64, 55
20, 55185, Note_on_c, 13, 64, 0
20, 55200, Note_on_c, 13, 62, 55
20, 55245, Note_on_c, 13, 62, 0
20, 55260, Note_on_c, 13, 62, 55
20, 55305, Note_on_c, 13, 62, 0
20, 55320, Note_on_c, 13, 64, 55
20, 55365, Note_on_c, 13, 64, 0
20, 55380, Note_on_c, 13, 64, 55
20, 55425, Note_on_c, 13, 64, 0
20, 55440, Note_on_c, 13, 65, 55
20, 55485, Note_on_c, 13, 65, 0
20, 55500, Note_on_c, 13, 65, 55
20, 55545, Note_on_c, 13, 65, 0
20, 55560, Note_on_c, 13, 62, 55
20, 55605, Note_on_c, 13, 62, 0
20, 55620, Note_on_c, 13, 62, 55
20, 55665, Note_on_c, 13, 62, 0
20, 55680, Note_on_c, 13, 64, 55
20, 55725, Note_on_c, 13, 64, 0
20, 55740, Note_on_c, 13, 64, 55
20, 55785, Note_on_c, 13, 64, 0
20, 55800, Note_on_c, 13, 65, 55
20, 55845, Note_on_c, 13, 65, 0
20, 55860, Note_on_c, 13, 65, 55
20, 55905, Note_on_c, 13, 65, 0
20, 55920, Note_on_c, 13, 67, 55
20, 55965, Note_on_c, 13, 67, 0
20, 55980, Note_on_c, 13, 67, 55
20, 56025, Note_on_c, 13, 67, 0
20, 56040, Note_on_c, 13, 64, 55
20, 56085, Note_on_c, 13, 64, 0
20, 56100, Note_on_c, 13, 64, 55
20, 56145, Note_on_c, 13, 64, 0
20, 56160, Note_on_c, 13, 62, 55
20, 56205, Note_on_c, 13, 62, 0
20, 56220, Note_on_c, 13, 62, 55
20, 56265, Note_on_c, 13, 62, 0
20, 56280, Note_on_c, 13, 64, 55
20, 56325, Note_on_c, 13, 64, 0
20, 56340, Note_on_c, 13, 64, 55
20, 56385, Note_on_c, 13, 64, 0
20, 56400, Note_on_c, 13, 65, 55
20, 56445, Note_on_c, 13, 65, 0
20, 56460, Note_on_c, 13, 65, 55
20, 56505, Note_on_c, 13, 65, 0
20, 56520, Note_on_c, 13, 62, 55
20, 56565, Note_on_c, 13, 62, 0
20, 56580, Note_on_c, 13, 62, 55
20, 56625, Note_on_c, 13, 62, 0
20, 56640, Note_on_c, 13, 64, 55
20, 56685, Note_on_c, 13, 64, 0
20, 56700, Note_on_c, 13, 64, 55
20, 56745, Note_on_c, 13, 64, 0
20, 56760, Note_on_c, 13, 65, 55
20, 56805, Note_on_c, 13, 65, 0
20, 56820, Note_on_c, 13, 65, 55
20, 56865, Note_on_c, 13, 65, 0
20, 56880, Note_on_c, 13, 67, 55
20, 56925, Note_on_c, 13, 67, 0
20, 56940, Note_on_c, 13, 67, 55
20, 56985, Note_on_c, 13, 67, 0
20, 57000, Note_on_c, 13, 64, 55
20, 57045, Note_on_c, 13, 64, 0
20, 57060, Note_on_c, 13, 64, 55
20, 57105, Note_on_c, 13, 64, 0
20, 57120, Note_on_c, 13, 62, 55
20, 57165, Note_on_c, 13, 62, 0
20, 57180, Note_on_c, 13, 62, 55
20, 57225, Note_on_c, 13, 62, 0
20, 57240, Note_on_c, 13, 64, 55
20, 57285, Note_on_c, 13, 64, 0
20, 57300, Note_on_c, 13, 64, 55
20, 57345, Note_on_c, 13, 64, 0
20, 57360, Note_on_c, 13, 65, 55
20, 57405, Note_on_c, 13, 65, 0
20, 57420, Note_on_c, 13, 65, 55
20, 57465, Note_on_c, 13, 65, 0
20, 57480, Note_on_c, 13, 62, 55
20, 57525, Note_on_c, 13, 62, 0
20, 57540, Note_on_c, 13, 62, 55
20, 57585, Note_on_c, 13, 62, 0
20, 57600, Note_on_c, 13, 60, 55
20, 57645, Note_on_c, 13, 60, 0
20, 57660, Note_on_c, 13, 60, 55
20, 57705, Note_on_c, 13, 60, 0
20, 57720, Note_on_c, 13, 62, 55
20, 57765, Note_on_c, 13, 62, 0
20, 57780, Note_on_c, 13, 62, 55
20, 57825, Note_on_c, 13, 62, 0
20, 57840, Note_on_c, 13, 64, 55
20, 57885, Note_on_c, 13, 64, 0
20, 57900, Note_on_c, 13, 64, 55
20, 57945, Note_on_c, 13, 64, 0
20, 57960, Note_on_c, 13, 60, 55
20, 58005, Note_on_c, 13, 60, 0
20, 58020, Note_on_c, 13, 60, 55
20, 58065, Note_on_c, 13, 60, 0
20, 58080, Note_on_c, 13, 60, 55
20, 58125, Note_on_c, 13, 60, 0
20, 58140, Note_on_c, 13, 60, 55
20, 58185, Note_on_c, 13, 60, 0
20, 58200, Note_on_c, 13, 62, 55
20, 58245, Note_on_c, 13, 62, 0
20, 58260, Note_on_c, 13, 62, 55
20, 58305, Note_on_c, 13, 62, 0
20, 58320, Note_on_c, 13, 63, 55
20, 58365, Note_on_c, 13, 63, 0
20, 58380, Note_on_c, 13, 63, 55
20, 58425, Note_on_c, 13, 63, 0
20, 58440, Note_on_c, 13, 60, 55
20, 58485, Note_on_c, 13, 60, 0
20, 58500, Note_on_c, 13, 60, 55
20, 58545, Note_on_c, 13, 60, 0
20, 58560, Note_on_c, 13, 58, 55
20, 58605, Note_on_c, 13, 58, 0
20, 58620, Note_on_c, 13, 58, 55
20, 58665, Note_on_c, 13, 58, 0
20, 58680, Note_on_c, 13, 57, 55
20, 58725, Note_on_c, 13, 57, 0
20, 58740, Note_on_c, 13, 57, 55
20, 58785, Note_on_c, 13, 57, 0
20, 58800, Note_on_c, 13, 58, 55
20, 58845, Note_on_c, 13, 58, 0
20, 58860, Note_on_c, 13, 58, 55
20, 58905, Note_on_c, 13, 58, 0
20, 58920, Note_on_c, 13, 69, 55
20, 58965, Note_on_c, 13, 69, 0
20, 58980, Note_on_c, 13, 69, 55
20, 59025, Note_on_c, 13, 69, 0
20, 59040, Note_on_c, 13, 70, 55
20, 59085, Note_on_c, 13, 70, 0
20, 59100, Note_on_c, 13, 70, 55
20, 59145, Note_on_c, 13, 70, 0
20, 59160, Note_on_c, 13, 69, 55
20, 59205, Note_on_c, 13, 69, 0
20, 59220, Note_on_c, 13, 69, 55
20, 59265, Note_on_c, 13, 69, 0
20, 59280, Note_on_c, 13, 70, 55
20, 59325, Note_on_c, 13, 70, 0
20, 59340, Note_on_c, 13, 70, 55
20, 59385, Note_on_c, 13, 70, 0
20, 59400, Note_on_c, 13, 69, 55
20, 59445, Note_on_c, 13, 69, 0
20, 59460, Note_on_c, 13, 67, 55
20, 59505, Note_on_c, 13, 67, 0
20, 59530, Note_on_c, 13, 66, 53
20, 59650, Note_on_c, 13, 66, 0
20, 59710, Note_on_c, 13, 62, 91
20, 59770, Note_on_c, 13, 62, 0
20, 59770, Note_on_c, 13, 64, 91
20, 59830, Note_on_c, 13, 64, 0
20, 59830, Note_on_c, 13, 66, 91
20, 59890, Note_on_c, 13, 66, 0
20, 59890, Note_on_c, 13, 67, 91
20, 59950, Note_on_c, 13, 67, 0
20, 59950, Note_on_c, 13, 69, 91
20, 60010, Note_on_c, 13, 69, 0
20, 60010, Note_on_c, 13, 72, 91
20, 60070, Note_on_c, 13, 72, 0
20, 60070, Note_on_c, 13, 70, 91
20, 60130, Note_on_c, 13, 70, 0
20, 60190, Note_on_c, 13, 66, 91
20, 60250, Note_on_c, 13, 66, 0
20, 60250, Note_on_c, 13, 67, 91
20, 60310, Note_on_c, 13, 67, 0
20, 60310, Note_on_c, 13, 69, 91
20, 60370, Note_on_c, 13, 69, 0
20, 60370, Note_on_c, 13, 70, 91
20, 60430, Note_on_c, 13, 70, 0
20, 60430, Note_on_c, 13, 73, 91
20, 60490, Note_on_c, 13, 73, 0
20, 60490, Note_on_c, 13, 76, 91
20, 60550, Note_on_c, 13, 76, 0
20, 60550, Note_on_c, 13, 74, 91
20, 60610, Note_on_c, 13, 74, 0
20, 60670, Note_on_c, 13, 62, 53
20, 60730, Note_on_c, 13, 62, 0
20, 60730, Note_on_c, 13, 64, 53
20, 60790, Note_on_c, 13, 64, 0
20, 60790, Note_on_c, 13, 66, 53
20, 60850, Note_on_c, 13, 66, 0
20, 60850, Note_on_c, 13, 67, 53
20, 60910, Note_on_c, 13, 67, 0
20, 60910, Note_on_c, 13, 69, 53
20, 60960, Note_on_c, 13, 70, 53
20, 60970, Note_on_c, 13, 69, 0
20, 61080, Note_on_c, 13, 70, 0
20, 61080, Note_on_c, 13, 71, 53
20, 61200, Note_on_c, 13, 71, 0
20, 61200, Note_on_c, 13, 72, 53
20, 61320, Note_on_c, 13, 72, 0
20, 61320, Note_on_c, 13, 73, 53
20, 61440, Note_on_c, 13, 73, 0
20, 61440, Note_on_c, 13, 74, 68
20, 61470, Note_on_c, 13, 74, 0
20, 61500, Note_on_c, 13, 74, 68
20, 61530, Note_on_c, 13, 74, 0
20, 61560, Note_on_c, 13, 74, 68
20, 61620, Note_on_c, 13, 74, 0
20, 61620, Note_on_c, 13, 76, 68
20, 61665, Note_on_c, 13, 76, 0
20, 61680, Note_on_c, 13, 72, 68
20, 61710, Note_on_c, 13, 72, 0
20, 61740, Note_on_c, 13, 72, 68
20, 61770, Note_on_c, 13, 72, 0
20, 61800, Note_on_c, 13, 72, 68
20, 61860, Note_on_c, 13, 72, 0
20, 61860, Note_on_c, 13, 74, 68
20, 61905, Note_on_c, 13, 74, 0
20, 61920, Note_on_c, 13, 71, 68
20, 61950, Note_on_c, 13, 71, 0
20, 61980, Note_on_c, 13, 71, 68
20, 62010, Note_on_c, 13, 71, 0
20, 62040, Note_on_c, 13, 71, 68
20, 62100, Note_on_c, 13, 71, 0
20, 62100, Note_on_c, 13, 74, 68
20, 62145, Note_on_c, 13, 74, 0
20, 62160, Note_on_c, 13, 74, 68
20, 62220, Note_on_c, 13, 74, 0
20, 62220, Note_on_c, 13, 72, 68
20, 62265, Note_on_c, 13, 72, 0
20, 62280, Note_on_c, 13, 71, 68
20, 62310, Note_on_c, 13, 71, 0
20, 62340, Note_on_c, 13, 69, 68
20, 62370, Note_on_c, 13, 69, 0
20, 62410, Note_on_c, 13, 79, 93
20, 62410, Note_on_c, 13, 71, 93
20, 62410, Note_on_c, 13, 62, 93
20, 62530, Note_on_c, 13, 62, 0
20, 62530, Note_on_c, 13, 71, 0
20, 62530, Note_on_c, 13, 79, 0
20, 62590, Note_on_c, 13, 74, 92
20, 62620, Note_on_c, 13, 74, 0
20, 62650, Note_on_c, 13, 79, 92
20, 62770, Note_on_c, 13, 79, 0
20, 62830, Note_on_c, 13, 74, 91
20, 62860, Note_on_c, 13, 74, 0
20, 62890, Note_on_c, 13, 79, 90
20, 62920, Note_on_c, 13, 79, 0
20, 62950, Note_on_c, 13, 74, 90
20, 62980, Note_on_c, 13, 74, 0
20, 63010, Note_on_c, 13, 79, 90
20, 63040, Note_on_c, 13, 79, 0
20, 63070, Note_on_c, 13, 83, 90
20, 63100, Note_on_c, 13, 83, 0
20, 63130, Note_on_c, 13, 86, 89
20, 63250, Note_on_c, 13, 86, 0
20, 63370, Note_on_c, 13, 84, 88
20, 63490, Note_on_c, 13, 84, 0
20, 63550, Note_on_c, 13, 81, 87
20, 63580, Note_on_c, 13, 81, 0
20, 63610, Note_on_c, 13, 84, 86
20, 63730, Note_on_c, 13, 84, 0
20, 63790, Note_on_c, 13, 81, 85
20, 63820, Note_on_c, 13, 81, 0
20, 63850, Note_on_c, 13, 84, 85
20, 63880, Note_on_c, 13, 84, 0
20, 63910, Note_on_c, 13, 81, 85
20, 63940, Note_on_c, 13, 81, 0
20, 63970, Note_on_c, 13, 78, 85
20, 64000, Note_on_c, 13, 78, 0
20, 64030, Note_on_c, 13, 81, 85
20, 64060, Note_on_c, 13, 81, 0
20, 64090, Note_on_c, 13, 74, 85
20, 64210, Note_on_c, 13, 74, 0
20, 64320, Note_on_c, 13, 59, 85
20, 64320, Note_on_c, 13, 62, 85
20, 64340, Note_on_c, 13, 62, 0
20, 64340, Note_on_c, 13, 59, 0
20, 64350, Note_on_c, 13, 59, 85
20, 64350, Note_on_c, 13, 62, 85
20, 64370, Note_on_c, 13, 62, 0
20, 64370, Note_on_c, 13, 59, 0
20, 64380, Note_on_c, 13, 59, 85
20, 64380, Note_on_c, 13, 62, 85
20, 64400, Note_on_c, 13, 62, 0
20, 64400, Note_on_c, 13, 59, 0
20, 64410, Note_on_c, 13, 59, 85
20, 64410, Note_on_c, 13, 62, 85
20, 64430, Note_on_c, 13, 62, 0
20, 64430, Note_on_c, 13, 59, 0
20, 64440, Note_on_c, 13, 59, 85
20, 64440, Note_on_c, 13, 62, 85
20, 64460, Note_on_c, 13, 62, 0
20, 64460, Note_on_c, 13, 59, 0
20, 64470, Note_on_c, 13, 59, 85
20, 64470, Note_on_c, 13, 62, 85
20, 64490, Note_on_c, 13, 62, 0
20, 64490, Note_on_c, 13, 59, 0
20, 64500, Note_on_c, 13, 59, 85
20, 64500, Note_on_c, 13, 62, 85
20, 64520, Note_on_c, 13, 62, 0
20, 64520, Note_on_c, 13, 59, 0
20, 64530, Note_on_c, 13, 59, 85
20, 64530, Note_on_c, 13, 62, 85
20, 64550, Note_on_c, 13, 62, 0
20, 64550, Note_on_c, 13, 59, 0
20, 64560, Note_on_c, 13, 59, 85
20, 64560, Note_on_c, 13, 62, 85
20, 64580, Note_on_c, 13, 62, 0
20, 64580, Note_on_c, 13, 59, 0
20, 64590, Note_on_c, 13, 59, 85
20, 64590, Note_on_c, 13, 62, 85
20, 64610, Note_on_c, 13, 62, 0
20, 64610, Note_on_c, 13, 59, 0
20, 64620, Note_on_c, 13, 59, 85
20, 64620, Note_on_c, 13, 62, 85
20, 64640, Note_on_c, 13, 62, 0
20, 64640, Note_on_c, 13, 59, 0
20, 64650, Note_on_c, 13, 59, 85
20, 64650, Note_on_c, 13, 62, 85
20, 64670, Note_on_c, 13, 62, 0
20, 64670, Note_on_c, 13, 59, 0
20, 64680, Note_on_c, 13, 59, 85
20, 64680, Note_on_c, 13, 62, 85
20, 64700, Note_on_c, 13, 62, 0
20, 64700, Note_on_c, 13, 59, 0
20, 64710, Note_on_c, 13, 59, 85
20, 64710, Note_on_c, 13, 62, 85
20, 64730, Note_on_c, 13, 62, 0
20, 64730, Note_on_c, 13, 59, 0
20, 64740, Note_on_c, 13, 59, 85
20, 64740, Note_on_c, 13, 62, 85
20, 64760, Note_on_c, 13, 62, 0
20, 64760, Note_on_c, 13, 59, 0
20, 64770, Note_on_c, 13, 59, 85
20, 64770, Note_on_c, 13, 62, 85
20, 64790, Note_on_c, 13, 62, 0
20, 64790, Note_on_c, 13, 59, 0
20, 64800, Note_on_c, 13, 60, 85
20, 64800, Note_on_c, 13, 62, 85
20, 64820, Note_on_c, 13, 62, 0
20, 64820, Note_on_c, 13, 60, 0
20, 64830, Note_on_c, 13, 60, 85
20, 64830, Note_on_c, 13, 62, 85
20, 64850, Note_on_c, 13, 62, 0
20, 64850, Note_on_c, 13, 60, 0
20, 64860, Note_on_c, 13, 60, 85
20, 64860, Note_on_c, 13, 62, 85
20, 64880, Note_on_c, 13, 62, 0
20, 64880, Note_on_c, 13, 60, 0
20, 64890, Note_on_c, 13, 60, 85
20, 64890, Note_on_c, 13, 62, 85
20, 64910, Note_on_c, 13, 62, 0
20, 64910, Note_on_c, 13, 60, 0
20, 64920, Note_on_c, 13, 60, 85
20, 64920, Note_on_c, 13, 62, 85
20, 64940, Note_on_c, 13, 62, 0
20, 64940, Note_on_c, 13, 60, 0
20, 64950, Note_on_c, 13, 60, 85
20, 64950, Note_on_c, 13, 62, 85
20, 64970, Note_on_c, 13, 62, 0
20, 64970, Note_on_c, 13, 60, 0
20, 64980, Note_on_c, 13, 60, 85
20, 64980, Note_on_c, 13, 62, 85
20, 65000, Note_on_c, 13, 62, 0
20, 65000, Note_on_c, 13, 60, 0
20, 65010, Note_on_c, 13, 60, 85
20, 65010, Note_on_c, 13, 62, 85
20, 65030, Note_on_c, 13, 62, 0
20, 65030, Note_on_c, 13, 60, 0
20, 65040, Note_on_c, 13, 60, 85
20, 65040, Note_on_c, 13, 62, 85
20, 65060, Note_on_c, 13, 62, 0
20, 65060, Note_on_c, 13, 60, 0
20, 65070, Note_on_c, 13, 60, 85
20, 65070, Note_on_c, 13, 62, 85
20, 65090, Note_on_c, 13, 62, 0
20, 65090, Note_on_c, 13, 60, 0
20, 65100, Note_on_c, 13, 60, 85
20, 65100, Note_on_c, 13, 62, 85
20, 65120, Note_on_c, 13, 62, 0
20, 65120, Note_on_c, 13, 60, 0
20, 65130, Note_on_c, 13, 60, 85
20, 65130, Note_on_c, 13, 62, 85
20, 65150, Note_on_c, 13, 62, 0
20, 65150, Note_on_c, 13, 60, 0
20, 65160, Note_on_c, 13, 60, 85
20, 65160, Note_on_c, 13, 62, 85
20, 65180, Note_on_c, 13, 62, 0
20, 65180, Note_on_c, 13, 60, 0
20, 65190, Note_on_c, 13, 60, 85
20, 65190, Note_on_c, 13, 62, 85
20, 65210, Note_on_c, 13, 62, 0
20, 65210, Note_on_c, 13, 60, 0
20, 65220, Note_on_c, 13, 60, 85
20, 65220, Note_on_c, 13, 62, 85
20, 65240, Note_on_c, 13, 62, 0
20, 65240, Note_on_c, 13, 60, 0
20, 65250, Note_on_c, 13, 60, 85
20, 65250, Note_on_c, 13, 62, 85
20, 65270, Note_on_c, 13, 62, 0
20, 65270, Note_on_c, 13, 60, 0
20, 65280, Note_on_c, 13, 59, 85
20, 65280, Note_on_c, 13, 62, 85
20, 65300, Note_on_c, 13, 62, 0
20, 65300, Note_on_c, 13, 59, 0
20, 65310, Note_on_c, 13, 59, 85
20, 65310, Note_on_c, 13, 62, 85
20, 65330, Note_on_c, 13, 62, 0
20, 65330, Note_on_c, 13, 59, 0
20, 65340, Note_on_c, 13, 59, 85
20, 65340, Note_on_c, 13, 62, 85
20, 65360, Note_on_c, 13, 62, 0
20, 65360, Note_on_c, 13, 59, 0
20, 65370, Note_on_c, 13, 59, 85
20, 65370, Note_on_c, 13, 62, 85
20, 65390, Note_on_c, 13, 62, 0
20, 65390, Note_on_c, 13, 59, 0
20, 65400, Note_on_c, 13, 59, 85
20, 65400, Note_on_c, 13, 62, 85
20, 65420, Note_on_c, 13, 62, 0
20, 65420, Note_on_c, 13, 59, 0
20, 65430, Note_on_c, 13, 59, 85
20, 65430, Note_on_c, 13, 62, 85
20, 65450, Note_on_c, 13, 62, 0
20, 65450, Note_on_c, 13, 59, 0
20, 65460, Note_on_c, 13, 59, 85
20, 65460, Note_on_c, 13, 62, 85
20, 65480, Note_on_c, 13, 62, 0
20, 65480, Note_on_c, 13, 59, 0
20, 65490, Note_on_c, 13, 59, 85
20, 65490, Note_on_c, 13, 62, 85
20, 65510, Note_on_c, 13, 62, 0
20, 65510, Note_on_c, 13, 59, 0
20, 65520, Note_on_c, 13, 59, 85
20, 65520, Note_on_c, 13, 62, 85
20, 65540, Note_on_c, 13, 62, 0
20, 65540, Note_on_c, 13, 59, 0
20, 65550, Note_on_c, 13, 59, 85
20, 65550, Note_on_c, 13, 62, 85
20, 65570, Note_on_c, 13, 62, 0
20, 65570, Note_on_c, 13, 59, 0
20, 65580, Note_on_c, 13, 59, 85
20, 65580, Note_on_c, 13, 62, 85
20, 65600, Note_on_c, 13, 62, 0
20, 65600, Note_on_c, 13, 59, 0
20, 65610, Note_on_c, 13, 59, 85
20, 65610, Note_on_c, 13, 62, 85
20, 65630, Note_on_c, 13, 62, 0
20, 65630, Note_on_c, 13, 59, 0
20, 65640, Note_on_c, 13, 59, 85
20, 65640, Note_on_c, 13, 62, 85
20, 65660, Note_on_c, 13, 62, 0
20, 65660, Note_on_c, 13, 59, 0
20, 65670, Note_on_c, 13, 59, 85
20, 65670, Note_on_c, 13, 62, 85
20, 65690, Note_on_c, 13, 62, 0
20, 65690, Note_on_c, 13, 59, 0
20, 65700, Note_on_c, 13, 59, 85
20, 65700, Note_on_c, 13, 62, 85
20, 65720, Note_on_c, 13, 62, 0
20, 65720, Note_on_c, 13, 59, 0
20, 65730, Note_on_c, 13, 59, 85
20, 65730, Note_on_c, 13, 62, 85
20, 65750, Note_on_c, 13, 62, 0
20, 65750, Note_on_c, 13, 59, 0
20, 65760, Note_on_c, 13, 60, 85
20, 65760, Note_on_c, 13, 62, 85
20, 65780, Note_on_c, 13, 62, 0
20, 65780, Note_on_c, 13, 60, 0
20, 65790, Note_on_c, 13, 60, 85
20, 65790, Note_on_c, 13, 62, 85
20, 65810, Note_on_c, 13, 62, 0
20, 65810, Note_on_c, 13, 60, 0
20, 65820, Note_on_c, 13, 60, 85
20, 65820, Note_on_c, 13, 62, 85
20, 65840, Note_on_c, 13, 62, 0
20, 65840, Note_on_c, 13, 60, 0
20, 65850, Note_on_c, 13, 60, 85
20, 65850, Note_on_c, 13, 62, 85
20, 65870, Note_on_c, 13, 62, 0
20, 65870, Note_on_c, 13, 60, 0
20, 65880, Note_on_c, 13, 60, 85
20, 65880, Note_on_c, 13, 62, 85
20, 65900, Note_on_c, 13, 62, 0
20, 65900, Note_on_c, 13, 60, 0
20, 65910, Note_on_c, 13, 60, 85
20, 65910, Note_on_c, 13, 62, 85
20, 65930, Note_on_c, 13, 62, 0
20, 65930, Note_on_c, 13, 60, 0
20, 65940, Note_on_c, 13, 60, 85
20, 65940, Note_on_c, 13, 62, 85
20, 65960, Note_on_c, 13, 62, 0
20, 65960, Note_on_c, 13, 60, 0
20, 65970, Note_on_c, 13, 60, 85
20, 65970, Note_on_c, 13, 62, 85
20, 65990, Note_on_c, 13, 62, 0
20, 65990, Note_on_c, 13, 60, 0
20, 66000, Note_on_c, 13, 60, 85
20, 66000, Note_on_c, 13, 62, 85
20, 66020, Note_on_c, 13, 62, 0
20, 66020, Note_on_c, 13, 60, 0
20, 66030, Note_on_c, 13, 60, 85
20, 66030, Note_on_c, 13, 62, 85
20, 66050, Note_on_c, 13, 62, 0
20, 66050, Note_on_c, 13, 60, 0
20, 66060, Note_on_c, 13, 60, 85
20, 66060, Note_on_c, 13, 62, 85
20, 66080, Note_on_c, 13, 62, 0
20, 66080, Note_on_c, 13, 60, 0
20, 66090, Note_on_c, 13, 60, 85
20, 66090, Note_on_c, 13, 62, 85
20, 66110, Note_on_c, 13, 62, 0
20, 66110, Note_on_c, 13, 60, 0
20, 66120, Note_on_c, 13, 60, 85
20, 66120, Note_on_c, 13, 62, 85
20, 66140, Note_on_c, 13, 62, 0
20, 66140, Note_on_c, 13, 60, 0
20, 66150, Note_on_c, 13, 60, 85
20, 66150, Note_on_c, 13, 62, 85
20, 66170, Note_on_c, 13, 62, 0
20, 66170, Note_on_c, 13, 60, 0
20, 66180, Note_on_c, 13, 60, 85
20, 66180, Note_on_c, 13, 62, 85
20, 66200, Note_on_c, 13, 62, 0
20, 66200, Note_on_c, 13, 60, 0
20, 66210, Note_on_c, 13, 60, 85
20, 66210, Note_on_c, 13, 62, 85
20, 66230, Note_on_c, 13, 62, 0
20, 66230, Note_on_c, 13, 60, 0
20, 66240, Note_on_c, 13, 59, 85
20, 66240, Note_on_c, 13, 62, 85
20, 66360, Note_on_c, 13, 62, 0
20, 66360, Note_on_c, 13, 59, 0
20, 66360, Note_on_c, 13, 72, 85
20, 66405, Note_on_c, 13, 72, 0
20, 66420, Note_on_c, 13, 72, 85
20, 66465, Note_on_c, 13, 72, 0
20, 66480, Note_on_c, 13, 74, 85
20, 66525, Note_on_c, 13, 74, 0
20, 66540, Note_on_c, 13, 74, 85
20, 66585, Note_on_c, 13, 74, 0
20, 66600, Note_on_c, 13, 72, 85
20, 66660, Note_on_c, 13, 72, 0
20, 66660, Note_on_c, 13, 71, 85
20, 66690, Note_on_c, 13, 71, 0
20, 66690, Note_on_c, 13, 69, 85
20, 66720, Note_on_c, 13, 69, 0
20, 66720, Note_on_c, 13, 67, 85
20, 66765, Note_on_c, 13, 67, 0
20, 66780, Note_on_c, 13, 67, 85
20, 66825, Note_on_c, 13, 67, 0
20, 66840, Note_on_c, 13, 66, 85
20, 66885, Note_on_c, 13, 66, 0
20, 66900, Note_on_c, 13, 66, 85
20, 66945, Note_on_c, 13, 66, 0
20, 66960, Note_on_c, 13, 67, 85
20, 67080, Note_on_c, 13, 67, 0
20, 67200, Note_on_c, 13, 71, 47
20, 67440, Note_on_c, 13, 71, 0
20, 67440, Note_on_c, 13, 72, 47
20, 67680, Note_on_c, 13, 72, 0
20, 67680, Note_on_c, 13, 71, 47
20, 67710, Note_on_c, 13, 71, 0
20, 67710, Note_on_c, 13, 69, 47
20, 67790, Note_on_c, 13, 69, 0
20, 67800, Note_on_c, 13, 69, 47
20, 67920, Note_on_c, 13, 69, 0
20, 67920, Note_on_c, 13, 69, 47
20, 67950, Note_on_c, 13, 69, 0
20, 67950, Note_on_c, 13, 67, 47
20, 68030, Note_on_c, 13, 67, 0
20, 68040, Note_on_c, 13, 67, 47
20, 68160, Note_on_c, 13, 67, 0
20, 68160, Note_on_c, 13, 64, 47
20, 68250, Note_on_c, 13, 64, 0
20, 68280, Note_on_c, 13, 64, 47
20, 68370, Note_on_c, 13, 64, 0
20, 68400, Note_on_c, 13, 60, 47
20, 68490, Note_on_c, 13, 60, 0
20, 68520, Note_on_c, 13, 57, 47
20, 68610, Note_on_c, 13, 57, 0
20, 68640, Note_on_c, 13, 62, 47
20, 68700, Note_on_c, 13, 62, 0
20, 68760, Note_on_c, 13, 66, 47
20, 68820, Note_on_c, 13, 66, 0
20, 68880, Note_on_c, 13, 67, 47
20, 68940, Note_on_c, 13, 67, 0
20, 69120, Note_on_c, 13, 71, 47
20, 69360, Note_on_c, 13, 71, 0
20, 69360, Note_on_c, 13, 72, 47
20, 69600, Note_on_c, 13, 72, 0
20, 69600, Note_on_c, 13, 71, 47
20, 69660, Note_on_c, 13, 71, 0
20, 69660, Note_on_c, 13, 69, 47
20, 69690, Note_on_c, 13, 69, 0
20, 69720, Note_on_c, 13, 69, 47
20, 69750, Note_on_c, 13, 69, 0
20, 69780, Note_on_c, 13, 69, 47
20, 69810, Note_on_c, 13, 69, 0
20, 69840, Note_on_c, 13, 69, 47
20, 69900, Note_on_c, 13, 69, 0
20, 69900, Note_on_c, 13, 67, 47
20, 69930, Note_on_c, 13, 67, 0
20, 69960, Note_on_c, 13, 67, 47
20, 69990, Note_on_c, 13, 67, 0
20, 70020, Note_on_c, 13, 67, 47
20, 70050, Note_on_c, 13, 67, 0
20, 70080, Note_on_c, 13, 64, 47
20, 70170, Note_on_c, 13, 64, 0
20, 70200, Note_on_c, 13, 64, 47
20, 70245, Note_on_c, 13, 64, 0
20, 70260, Note_on_c, 13, 64, 47
20, 70305, Note_on_c, 13, 64, 0
20, 70320, Note_on_c, 13, 60, 47
20, 70410, Note_on_c, 13, 60, 0
20, 70440, Note_on_c, 13, 60, 47
20, 70485, Note_on_c, 13, 60, 0
20, 70500, Note_on_c, 13, 60, 47
20, 70545, Note_on_c, 13, 60, 0
20, 70560, Note_on_c, 13, 59, 85
20, 70860, Note_on_c, 13, 59, 0
20, 70860, Note_on_c, 13, 59, 61
20, 70875, Note_on_c, 13, 59, 0
20, 70875, Note_on_c, 13, 60, 61
20, 70890, Note_on_c, 13, 60, 0
20, 70890, Note_on_c, 13, 57, 61
20, 70905, Note_on_c, 13, 57, 0
20, 70905, Note_on_c, 13, 59, 61
20, 70920, Note_on_c, 13, 59, 0
20, 70920, Note_on_c, 13, 60, 61
20, 70980, Note_on_c, 13, 60, 0
20, 70980, Note_on_c, 13, 57, 61
20, 71040, Note_on_c, 13, 57, 0
20, 71040, Note_on_c, 13, 67, 85
20, 71340, Note_on_c, 13, 67, 0
20, 71340, Note_on_c, 13, 67, 61
20, 71355, Note_on_c, 13, 67, 0
20, 71355, Note_on_c, 13, 69, 61
20, 71370, Note_on_c, 13, 69, 0
20, 71370, Note_on_c, 13, 66, 61
20, 71385, Note_on_c, 13, 66, 0
20, 71385, Note_on_c, 13, 67, 61
20, 71400, Note_on_c, 13, 67, 0
20, 71400, Note_on_c, 13, 69, 61
20, 71460, Note_on_c, 13, 69, 0
20, 71460, Note_on_c, 13, 66, 61
20, 71520, Note_on_c, 13, 66, 0
20, 71520, Note_on_c, 13, 71, 53
20, 71540, Note_on_c, 13, 71, 0
20, 71550, Note_on_c, 13, 71, 53
20, 71570, Note_on_c, 13, 71, 0
20, 71580, Note_on_c, 13, 71, 55
20, 71600, Note_on_c, 13, 71, 0
20, 71610, Note_on_c, 13, 71, 55
20, 71630, Note_on_c, 13, 71, 0
20, 71640, Note_on_c, 13, 71, 55
20, 71660, Note_on_c, 13, 71, 0
20, 71670, Note_on_c, 13, 71, 56
20, 71690, Note_on_c, 13, 71, 0
20, 71700, Note_on_c, 13, 71, 56
20, 71720, Note_on_c, 13, 71, 0
20, 71730, Note_on_c, 13, 71, 58
20, 71750, Note_on_c, 13, 71, 0
20, 71760, Note_on_c, 13, 72, 58
20, 71780, Note_on_c, 13, 72, 0
20, 71790, Note_on_c, 13, 72, 59
20, 71810, Note_on_c, 13, 72, 0
20, 71820, Note_on_c, 13, 72, 59
20, 71840, Note_on_c, 13, 72, 0
20, 71850, Note_on_c, 13, 72, 61
20, 71870, Note_on_c, 13, 72, 0
20, 71880, Note_on_c, 13, 74, 61
20, 71900, Note_on_c, 13, 74, 0
20, 71910, Note_on_c, 13, 74, 62
20, 71930, Note_on_c, 13, 74, 0
20, 71940, Note_on_c, 13, 74, 62
20, 71960, Note_on_c, 13, 74, 0
20, 71970, Note_on_c, 13, 74, 64
20, 71990, Note_on_c, 13, 74, 0
20, 72000, Note_on_c, 13, 71, 64
20, 72020, Note_on_c, 13, 71, 0
20, 72030, Note_on_c, 13, 71, 65
20, 72050, Note_on_c, 13, 71, 0
20, 72060, Note_on_c, 13, 71, 65
20, 72080, Note_on_c, 13, 71, 0
20, 72090, Note_on_c, 13, 71, 67
20, 72110, Note_on_c, 13, 71, 0
20, 72120, Note_on_c, 13, 74, 67
20, 72140, Note_on_c, 13, 74, 0
20, 72150, Note_on_c, 13, 74, 68
20, 72170, Note_on_c, 13, 74, 0
20, 72180, Note_on_c, 13, 74, 68
20, 72200, Note_on_c, 13, 74, 0
20, 72210, Note_on_c, 13, 74, 70
20, 72230, Note_on_c, 13, 74, 0
20, 72240, Note_on_c, 13, 74, 70
20, 72260, Note_on_c, 13, 74, 0
20, 72270, Note_on_c, 13, 74, 71
20, 72290, Note_on_c, 13, 74, 0
20, 72300, Note_on_c, 13, 74, 71
20, 72320, Note_on_c, 13, 74, 0
20, 72330, Note_on_c, 13, 74, 73
20, 72350, Note_on_c, 13, 74, 0
20, 72360, Note_on_c, 13, 79, 73
20, 72380, Note_on_c, 13, 79, 0
20, 72390, Note_on_c, 13, 79, 73
20, 72410, Note_on_c, 13, 79, 0
20, 72420, Note_on_c, 13, 79, 74
20, 72440, Note_on_c, 13, 79, 0
20, 72450, Note_on_c, 13, 79, 74
20, 72470, Note_on_c, 13, 79, 0
20, 72480, Note_on_c, 13, 78, 85
20, 72500, Note_on_c, 13, 78, 0
20, 72510, Note_on_c, 13, 78, 85
20, 72530, Note_on_c, 13, 78, 0
20, 72540, Note_on_c, 13, 78, 85
20, 72560, Note_on_c, 13, 78, 0
20, 72570, Note_on_c, 13, 78, 85
20, 72590, Note_on_c, 13, 78, 0
20, 72600, Note_on_c, 13, 78, 85
20, 72620, Note_on_c, 13, 78, 0
20, 72630, Note_on_c, 13, 78, 85
20, 72650, Note_on_c, 13, 78, 0
20, 72660, Note_on_c, 13, 78, 85
20, 72680, Note_on_c, 13, 78, 0
20, 72690, Note_on_c, 13, 78, 85
20, 72710, Note_on_c, 13, 78, 0
20, 72720, Note_on_c, 13, 79, 85
20, 72740, Note_on_c, 13, 79, 0
20, 72750, Note_on_c, 13, 79, 85
20, 72770, Note_on_c, 13, 79, 0
20, 72780, Note_on_c, 13, 79, 85
20, 72800, Note_on_c, 13, 79, 0
20, 72810, Note_on_c, 13, 79, 85
20, 72830, Note_on_c, 13, 79, 0
20, 72840, Note_on_c, 13, 79, 85
20, 72860, Note_on_c, 13, 79, 0
20, 72870, Note_on_c, 13, 79, 85
20, 72890, Note_on_c, 13, 79, 0
20, 72900, Note_on_c, 13, 79, 85
20, 72920, Note_on_c, 13, 79, 0
20, 72930, Note_on_c, 13, 79, 85
20, 72950, Note_on_c, 13, 79, 0
20, 72960, Note_on_c, 13, 78, 85
20, 72980, Note_on_c, 13, 78, 0
20, 72990, Note_on_c, 13, 78, 85
20, 73010, Note_on_c, 13, 78, 0
20, 73020, Note_on_c, 13, 78, 85
20, 73040, Note_on_c, 13, 78, 0
20, 73050, Note_on_c, 13, 78, 85
20, 73070, Note_on_c, 13, 78, 0
20, 73080, Note_on_c, 13, 78, 85
20, 73100, Note_on_c, 13, 78, 0
20, 73110, Note_on_c, 13, 78, 85
20, 73130, Note_on_c, 13, 78, 0
20, 73140, Note_on_c, 13, 78, 85
20, 73160, Note_on_c, 13, 78, 0
20, 73170, Note_on_c, 13, 78, 85
20, 73190, Note_on_c, 13, 78, 0
20, 73200, Note_on_c, 13, 79, 85
20, 73220, Note_on_c, 13, 79, 0
20, 73230, Note_on_c, 13, 79, 85
20, 73250, Note_on_c, 13, 79, 0
20, 73260, Note_on_c, 13, 79, 85
20, 73280, Note_on_c, 13, 79, 0
20, 73290, Note_on_c, 13, 79, 85
20, 73310, Note_on_c, 13, 79, 0
20, 73320, Note_on_c, 13, 79, 85
20, 73340, Note_on_c, 13, 79, 0
20, 73350, Note_on_c, 13, 79, 85
20, 73370, Note_on_c, 13, 79, 0
20, 73380, Note_on_c, 13, 79, 85
20, 73400, Note_on_c, 13, 79, 0
20, 73410, Note_on_c, 13, 79, 85
20, 73430, Note_on_c, 13, 79, 0
20, 73440, Note_on_c, 13, 78, 85
20, 73460, Note_on_c, 13, 78, 0
20, 73470, Note_on_c, 13, 78, 85
20, 73490, Note_on_c, 13, 78, 0
20, 73500, Note_on_c, 13, 78, 85
20, 73520, Note_on_c, 13, 78, 0
20, 73530, Note_on_c, 13, 78, 85
20, 73550, Note_on_c, 13, 78, 0
20, 73560, Note_on_c, 13, 79, 85
20, 73580, Note_on_c, 13, 79, 0
20, 73590, Note_on_c, 13, 79, 85
20, 73610, Note_on_c, 13, 79, 0
20, 73620, Note_on_c, 13, 79, 85
20, 73640, Note_on_c, 13, 79, 0
20, 73650, Note_on_c, 13, 79, 85
20, 73670, Note_on_c, 13, 79, 0
20, 73680, Note_on_c, 13, 78, 85
20, 73700, Note_on_c, 13, 78, 0
20, 73710, Note_on_c, 13, 78, 85
20, 73730, Note_on_c, 13, 78, 0
20, 73740, Note_on_c, 13, 78, 85
20, 73760, Note_on_c, 13, 78, 0
20, 73770, Note_on_c, 13, 78, 85
20, 73790, Note_on_c, 13, 78, 0
20, 73800, Note_on_c, 13, 79, 85
20, 73820, Note_on_c, 13, 79, 0
20, 73830, Note_on_c, 13, 79, 85
20, 73850, Note_on_c, 13, 79, 0
20, 73860, Note_on_c, 13, 79, 85
20, 73880, Note_on_c, 13, 79, 0
20, 73890, Note_on_c, 13, 79, 85
20, 73910, Note_on_c, 13, 79, 0
20, 73923, Note_on_c, 13, 78, 85
20, 73968, Note_on_c, 13, 78, 0
20, 73983, Note_on_c, 13, 62, 85
20, 74028, Note_on_c, 13, 62, 0
20, 74043, Note_on_c, 13, 62, 85
20, 74088, Note_on_c, 13, 62, 0
20, 74103, Note_on_c, 13, 62, 85
20, 74148, Note_on_c, 13, 62, 0
20, 74163, Note_on_c, 13, 62, 85
20, 74283, Note_on_c, 13, 62, 0
20, 74400, Note_on_c, 13, 62, 55
20, 74580, Note_on_c, 13, 62, 0
20, 74580, Note_on_c, 13, 60, 55
20, 74600, Note_on_c, 13, 60, 0
20, 74600, Note_on_c, 13, 59, 55
20, 74620, Note_on_c, 13, 59, 0
20, 74620, Note_on_c, 13, 57, 55
20, 74640, Note_on_c, 13, 57, 0
20, 74640, Note_on_c, 13, 55, 55
20, 74700, Note_on_c, 13, 55, 0
20, 74760, Note_on_c, 13, 64, 55
20, 74820, Note_on_c, 13, 64, 0
20, 74880, Note_on_c, 13, 60, 55
20, 74940, Note_on_c, 13, 60, 0
20, 75000, Note_on_c, 13, 57, 55
20, 75060, Note_on_c, 13, 57, 0
20, 75120, Note_on_c, 13, 62, 55
20, 75180, Note_on_c, 13, 62, 0
20, 75360, Note_on_c, 13, 71, 55
20, 75540, Note_on_c, 13, 71, 0
20, 75540, Note_on_c, 13, 69, 55
20, 75560, Note_on_c, 13, 69, 0
20, 75560, Note_on_c, 13, 67, 55
20, 75580, Note_on_c, 13, 67, 0
20, 75580, Note_on_c, 13, 66, 55
20, 75600, Note_on_c, 13, 66, 0
20, 75600, Note_on_c, 13, 64, 55
20, 75660, Note_on_c, 13, 64, 0
20, 75720, Note_on_c, 13, 72, 55
20, 75780, Note_on_c, 13, 72, 0
20, 75840, Note_on_c, 13, 71, 55
20, 76080, Note_on_c, 13, 71, 0
20, 76080, Note_on_c, 13, 69, 55
20, 76200, Note_on_c, 13, 69, 0
20, 76320, Note_on_c, 13, 74, 55
20, 76500, Note_on_c, 13, 74, 0
20, 76500, Note_on_c, 13, 72, 55
20, 76520, Note_on_c, 13, 72, 0
20, 76520, Note_on_c, 13, 71, 55
20, 76540, Note_on_c, 13, 71, 0
20, 76540, Note_on_c, 13, 69, 55
20, 76560, Note_on_c, 13, 69, 0
20, 76560, Note_on_c, 13, 67, 55
20, 76620, Note_on_c, 13, 67, 0
20, 76680, Note_on_c, 13, 76, 55
20, 76740, Note_on_c, 13, 76, 0
20, 76800, Note_on_c, 13, 72, 55
20, 76860, Note_on_c, 13, 72, 0
20, 76920, Note_on_c, 13, 69, 55
20, 76980, Note_on_c, 13, 69, 0
20, 77040, Note_on_c, 13, 74, 55
20, 77100, Note_on_c, 13, 74, 0
20, 77205, Note_on_c, 13, 72, 55
20, 77250, Note_on_c, 13, 72, 0
20, 77280, Note_on_c, 13, 72, 55
20, 77340, Note_on_c, 13, 72, 0
20, 77340, Note_on_c, 13, 71, 55
20, 77400, Note_on_c, 13, 71, 0
20, 77460, Note_on_c, 13, 72, 55
20, 77490, Note_on_c, 13, 72, 0
20, 77520, Note_on_c, 13, 72, 55
20, 77580, Note_on_c, 13, 72, 0
20, 77580, Note_on_c, 13, 71, 55
20, 77640, Note_on_c, 13, 71, 0
20, 77700, Note_on_c, 13, 60, 55
20, 77745, Note_on_c, 13, 60, 0
20, 77760, Note_on_c, 13, 59, 55
20, 77805, Note_on_c, 13, 59, 0
20, 77820, Note_on_c, 13, 59, 55
20, 77865, Note_on_c, 13, 59, 0
20, 77880, Note_on_c, 13, 60, 55
20, 77925, Note_on_c, 13, 60, 0
20, 77940, Note_on_c, 13, 60, 55
20, 77985, Note_on_c, 13, 60, 0
20, 78000, Note_on_c, 13, 62, 55
20, 78045, Note_on_c, 13, 62, 0
20, 78060, Note_on_c, 13, 62, 55
20, 78105, Note_on_c, 13, 62, 0
20, 78120, Note_on_c, 13, 59, 55
20, 78165, Note_on_c, 13, 59, 0
20, 78180, Note_on_c, 13, 59, 55
20, 78225, Note_on_c, 13, 59, 0
20, 78240, Note_on_c, 13, 57, 55
20, 78285, Note_on_c, 13, 57, 0
20, 78300, Note_on_c, 13, 57, 55
20, 78345, Note_on_c, 13, 57, 0
20, 78360, Note_on_c, 13, 59, 55
20, 78405, Note_on_c, 13, 59, 0
20, 78420, Note_on_c, 13, 59, 55
20, 78465, Note_on_c, 13, 59, 0
20, 78480, Note_on_c, 13, 60, 55
20, 78525, Note_on_c, 13, 60, 0
20, 78540, Note_on_c, 13, 60, 55
20, 78585, Note_on_c, 13, 60, 0
20, 78600, Note_on_c, 13, 57, 55
20, 78645, Note_on_c, 13, 57, 0
20, 78660, Note_on_c, 13, 57, 55
20, 78705, Note_on_c, 13, 57, 0
20, 78720, Note_on_c, 13, 59, 55
20, 78765, Note_on_c, 13, 59, 0
20, 78780, Note_on_c, 13, 59, 55
20, 78825, Note_on_c, 13, 59, 0
20, 78840, Note_on_c, 13, 60, 55
20, 78885, Note_on_c, 13, 60, 0
20, 78900, Note_on_c, 13, 60, 55
20, 78945, Note_on_c, 13, 60, 0
20, 78960, Note_on_c, 13, 62, 55
20, 79005, Note_on_c, 13, 62, 0
20, 79020, Note_on_c, 13, 62, 55
20, 79065, Note_on_c, 13, 62, 0
20, 79080, Note_on_c, 13, 59, 55
20, 79125, Note_on_c, 13, 59, 0
20, 79140, Note_on_c, 13, 59, 55
20, 79185, Note_on_c, 13, 59, 0
20, 79200, Note_on_c, 13, 57, 55
20, 79245, Note_on_c, 13, 57, 0
20, 79260, Note_on_c, 13, 57, 55
20, 79305, Note_on_c, 13, 57, 0
20, 79320, Note_on_c, 13, 59, 55
20, 79365, Note_on_c, 13, 59, 0
20, 79380, Note_on_c, 13, 59, 55
20, 79425, Note_on_c, 13, 59, 0
20, 79440, Note_on_c, 13, 60, 55
20, 79485, Note_on_c, 13, 60, 0
20, 79500, Note_on_c, 13, 60, 55
20, 79545, Note_on_c, 13, 60, 0
20, 79560, Note_on_c, 13, 57, 55
20, 79605, Note_on_c, 13, 57, 0
20, 79620, Note_on_c, 13, 57, 55
20, 79665, Note_on_c, 13, 57, 0
20, 79680, Note_on_c, 13, 59, 55
20, 79800, Note_on_c, 13, 59, 0
20, 79920, Note_on_c, 13, 71, 85
20, 79920, Note_on_c, 13, 64, 85
20, 80160, Note_on_c, 13, 64, 0
20, 80160, Note_on_c, 13, 71, 0
20, 80160, Note_on_c, 13, 69, 85
20, 80280, Note_on_c, 13, 69, 0
20, 80400, Note_on_c, 13, 62, 85
20, 80400, Note_on_c, 13, 69, 85
20, 80640, Note_on_c, 13, 69, 0
20, 80640, Note_on_c, 13, 62, 0
20, 80640, Note_on_c, 13, 67, 85
20, 80685, Note_on_c, 13, 67, 0
20, 80700, Note_on_c, 13, 71, 85
20, 80730, Note_on_c, 13, 71, 0
20, 80760, Note_on_c, 13, 72, 85
20, 80790, Note_on_c, 13, 72, 0
20, 80820, Note_on_c, 13, 74, 85
20, 80850, Note_on_c, 13, 74, 0
20, 80880, Note_on_c, 13, 72, 85
20, 80940, Note_on_c, 13, 72, 0
20, 80940, Note_on_c, 13, 74, 85
20, 80970, Note_on_c, 13, 74, 0
20, 80970, Note_on_c, 13, 76, 85
20, 81000, Note_on_c, 13, 76, 0
20, 81000, Note_on_c, 13, 74, 85
20, 81045, Note_on_c, 13, 74, 0
20, 81060, Note_on_c, 13, 72, 85
20, 81090, Note_on_c, 13, 72, 0
20, 81120, Note_on_c, 13, 72, 85
20, 81180, Note_on_c, 13, 72, 0
20, 81180, Note_on_c, 13, 71, 85
20, 81225, Note_on_c, 13, 71, 0
20, 81240, Note_on_c, 13, 67, 85
20, 81270, Note_on_c, 13, 67, 0
20, 81300, Note_on_c, 13, 71, 85
20, 81330, Note_on_c, 13, 71, 0
20, 81360, Note_on_c, 13, 71, 85
20, 81420, Note_on_c, 13, 71, 0
20, 81420, Note_on_c, 13, 69, 85
20, 81465, Note_on_c, 13, 69, 0
20, 81480, Note_on_c, 13, 67, 85
20, 81510, Note_on_c, 13, 67, 0
20, 81540, Note_on_c, 13, 66, 85
20, 81570, Note_on_c, 13, 66, 0
20, 81600, Note_on_c, 13, 67, 85
20, 81645, Note_on_c, 13, 67, 0
20, 81660, Note_on_c, 13, 59, 53
20, 81705, Note_on_c, 13, 59, 0
20, 81720, Note_on_c, 13, 60, 53
20, 81765, Note_on_c, 13, 60, 0
20, 81780, Note_on_c, 13, 60, 53
20, 81825, Note_on_c, 13, 60, 0
20, 81840, Note_on_c, 13, 62, 53
20, 81885, Note_on_c, 13, 62, 0
20, 81900, Note_on_c, 13, 62, 53
20, 81945, Note_on_c, 13, 62, 0
20, 81960, Note_on_c, 13, 59, 53
20, 82005, Note_on_c, 13, 59, 0
20, 82020, Note_on_c, 13, 59, 53
20, 82065, Note_on_c, 13, 59, 0
20, 82080, Note_on_c, 13, 57, 55
20, 82125, Note_on_c, 13, 57, 0
20, 82140, Note_on_c, 13, 57, 55
20, 82185, Note_on_c, 13, 57, 0
20, 82200, Note_on_c, 13, 59, 55
20, 82245, Note_on_c, 13, 59, 0
20, 82260, Note_on_c, 13, 59, 55
20, 82305, Note_on_c, 13, 59, 0
20, 82320, Note_on_c, 13, 60, 55
20, 82365, Note_on_c, 13, 60, 0
20, 82380, Note_on_c, 13, 60, 55
20, 82425, Note_on_c, 13, 60, 0
20, 82440, Note_on_c, 13, 57, 55
20, 82485, Note_on_c, 13, 57, 0
20, 82500, Note_on_c, 13, 57, 55
20, 82545, Note_on_c, 13, 57, 0
20, 82560, Note_on_c, 13, 59, 55
20, 82605, Note_on_c, 13, 59, 0
20, 82620, Note_on_c, 13, 71, 55
20, 82665, Note_on_c, 13, 71, 0
20, 82680, Note_on_c, 13, 72, 55
20, 82725, Note_on_c, 13, 72, 0
20, 82740, Note_on_c, 13, 72, 55
20, 82785, Note_on_c, 13, 72, 0
20, 82800, Note_on_c, 13, 74, 55
20, 82845, Note_on_c, 13, 74, 0
20, 82860, Note_on_c, 13, 74, 55
20, 82905, Note_on_c, 13, 74, 0
20, 82920, Note_on_c, 13, 71, 55
20, 82965, Note_on_c, 13, 71, 0
20, 82980, Note_on_c, 13, 71, 55
20, 83025, Note_on_c, 13, 71, 0
20, 83040, Note_on_c, 13, 69, 55
20, 83085, Note_on_c, 13, 69, 0
20, 83100, Note_on_c, 13, 69, 55
20, 83145, Note_on_c, 13, 69, 0
20, 83160, Note_on_c, 13, 71, 55
20, 83205, Note_on_c, 13, 71, 0
20, 83220, Note_on_c, 13, 71, 55
20, 83265, Note_on_c, 13, 71, 0
20, 83280, Note_on_c, 13, 72, 55
20, 83325, Note_on_c, 13, 72, 0
20, 83340, Note_on_c, 13, 72, 55
20, 83385, Note_on_c, 13, 72, 0
20, 83400, Note_on_c, 13, 69, 55
20, 83445, Note_on_c, 13, 69, 0
20, 83460, Note_on_c, 13, 69, 55
20, 83505, Note_on_c, 13, 69, 0
20, 83520, Note_on_c, 13, 71, 58
20, 83640, Note_on_c, 13, 71, 0
20, 83760, Note_on_c, 13, 83, 85
20, 84000, Note_on_c, 13, 83, 0
20, 84000, Note_on_c, 13, 81, 85
20, 84120, Note_on_c, 13, 81, 0
20, 84240, Note_on_c, 13, 81, 85
20, 84480, Note_on_c, 13, 81, 0
20, 84480, Note_on_c, 13, 79, 85
20, 84525, Note_on_c, 13, 79, 0
20, 84540, Note_on_c, 13, 71, 85
20, 84570, Note_on_c, 13, 71, 0
20, 84600, Note_on_c, 13, 72, 85
20, 84630, Note_on_c, 13, 72, 0
20, 84660, Note_on_c, 13, 74, 85
20, 84690, Note_on_c, 13, 74, 0
20, 84720, Note_on_c, 13, 72, 85
20, 84780, Note_on_c, 13, 72, 0
20, 84780, Note_on_c, 13, 74, 85
20, 84810, Note_on_c, 13, 74, 0
20, 84810, Note_on_c, 13, 76, 85
20, 84840, Note_on_c, 13, 76, 0
20, 84840, Note_on_c, 13, 74, 85
20, 84885, Note_on_c, 13, 74, 0
20, 84900, Note_on_c, 13, 72, 85
20, 84930, Note_on_c, 13, 72, 0
20, 84960, Note_on_c, 13, 71, 85
20, 84990, Note_on_c, 13, 71, 0
20, 85020, Note_on_c, 13, 74, 85
20, 85050, Note_on_c, 13, 74, 0
20, 85080, Note_on_c, 13, 79, 85
20, 85110, Note_on_c, 13, 79, 0
20, 85140, Note_on_c, 13, 83, 85
20, 85170, Note_on_c, 13, 83, 0
20, 85200, Note_on_c, 13, 83, 85
20, 85260, Note_on_c, 13, 83, 0
20, 85260, Note_on_c, 13, 81, 85
20, 85305, Note_on_c, 13, 81, 0
20, 85320, Note_on_c, 13, 79, 85
20, 85350, Note_on_c, 13, 79, 0
20, 85380, Note_on_c, 13, 78, 85
20, 85410, Note_on_c, 13, 78, 0
20, 85442, Note_on_c, 13, 79, 85
20, 85487, Note_on_c, 13, 79, 0
20, 85502, Note_on_c, 13, 62, 85
20, 85547, Note_on_c, 13, 62, 0
20, 85562, Note_on_c, 13, 64, 85
20, 85607, Note_on_c, 13, 64, 0
20, 85622, Note_on_c, 13, 66, 85
20, 85667, Note_on_c, 13, 66, 0
20, 85682, Note_on_c, 13, 67, 85
20, 85727, Note_on_c, 13, 67, 0
20, 85742, Note_on_c, 13, 67, 85
20, 85787, Note_on_c, 13, 67, 0
20, 85802, Note_on_c, 13, 69, 85
20, 85817, Note_on_c, 13, 69, 0
20, 85817, Note_on_c, 13, 71, 85
20, 85832, Note_on_c, 13, 71, 0
20, 85832, Note_on_c, 13, 69, 85
20, 85847, Note_on_c, 13, 69, 0
20, 85847, Note_on_c, 13, 71, 85
20, 85862, Note_on_c, 13, 71, 0
20, 85862, Note_on_c, 13, 67, 85
20, 85892, Note_on_c, 13, 67, 0
20, 85892, Note_on_c, 13, 69, 85
20, 85922, Note_on_c, 13, 69, 0
20, 85922, Note_on_c, 13, 71, 85
20, 85967, Note_on_c, 13, 71, 0
20, 85982, Note_on_c, 13, 66, 85
20, 86027, Note_on_c, 13, 66, 0
20, 86042, Note_on_c, 13, 67, 85
20, 86087, Note_on_c, 13, 67, 0
20, 86102, Note_on_c, 13, 69, 85
20, 86147, Note_on_c, 13, 69, 0
20, 86162, Note_on_c, 13, 71, 85
20, 86207, Note_on_c, 13, 71, 0
20, 86222, Note_on_c, 13, 71, 85
20, 86267, Note_on_c, 13, 71, 0
20, 86282, Note_on_c, 13, 72, 85
20, 86297, Note_on_c, 13, 72, 0
20, 86297, Note_on_c, 13, 74, 85
20, 86312, Note_on_c, 13, 74, 0
20, 86312, Note_on_c, 13, 72, 85
20, 86327, Note_on_c, 13, 72, 0
20, 86327, Note_on_c, 13, 74, 85
20, 86342, Note_on_c, 13, 74, 0
20, 86342, Note_on_c, 13, 71, 85
20, 86372, Note_on_c, 13, 71, 0
20, 86372, Note_on_c, 13, 72, 85
20, 86400, Note_on_c, 13, 74, 85
20, 86402, Note_on_c, 13, 72, 0
20, 86445, Note_on_c, 13, 74, 0
20, 86460, Note_on_c, 13, 74, 85
20, 86505, Note_on_c, 13, 74, 0
20, 86520, Note_on_c, 13, 75, 85
20, 86535, Note_on_c, 13, 75, 0
20, 86535, Note_on_c, 13, 76, 85
20, 86550, Note_on_c, 13, 76, 0
20, 86550, Note_on_c, 13, 75, 85
20, 86565, Note_on_c, 13, 75, 0
20, 86565, Note_on_c, 13, 76, 85
20, 86580, Note_on_c, 13, 76, 0
20, 86580, Note_on_c, 13, 73, 85
20, 86610, Note_on_c, 13, 73, 0
20, 86610, Note_on_c, 13, 75, 85
20, 86640, Note_on_c, 13, 75, 0
20, 86640, Note_on_c, 13, 76, 85
20, 86760, Note_on_c, 13, 76, 0
20, 86880, Note_on_c, 13, 60, 70
20, 87360, Note_on_c, 13, 60, 0
20, 87360, Note_on_c, 13, 59, 70
20, 87480, Note_on_c, 13, 59, 0
20, 87840, Note_on_c, 13, 60, 70
20, 88320, Note_on_c, 13, 60, 0
20, 88320, Note_on_c, 13, 59, 70
20, 88440, Note_on_c, 13, 59, 0
20, 88560, Note_on_c, 13, 71, 70
20, 88680, Note_on_c, 13, 71, 0
20, 88800, Note_on_c, 13, 76, 92
20, 88920, Note_on_c, 13, 76, 0
20, 89040, Note_on_c, 13, 72, 106
20, 89040, Note_on_c, 13, 78, 106
20, 89160, Note_on_c, 13, 78, 0
20, 89160, Note_on_c, 13, 72, 0
20, 89280, Note_on_c, 13, 59, 95
20, 89280, Note_on_c, 13, 62, 95
20, 89300, Note_on_c, 13, 62, 0
20, 89300, Note_on_c, 13, 59, 0
20, 89310, Note_on_c, 13, 59, 95
20, 89310, Note_on_c, 13, 62, 95
20, 89330, Note_on_c, 13, 62, 0
20, 89330, Note_on_c, 13, 59, 0
20, 89340, Note_on_c, 13, 59, 95
20, 89340, Note_on_c, 13, 62, 95
20, 89360, Note_on_c, 13, 62, 0
20, 89360, Note_on_c, 13, 59, 0
20, 89370, Note_on_c, 13, 59, 95
20, 89370, Note_on_c, 13, 62, 95
20, 89390, Note_on_c, 13, 62, 0
20, 89390, Note_on_c, 13, 59, 0
20, 89400, Note_on_c, 13, 59, 95
20, 89400, Note_on_c, 13, 62, 95
20, 89420, Note_on_c, 13, 62, 0
20, 89420, Note_on_c, 13, 59, 0
20, 89430, Note_on_c, 13, 59, 94
20, 89430, Note_on_c, 13, 62, 94
20, 89450, Note_on_c, 13, 62, 0
20, 89450, Note_on_c, 13, 59, 0
20, 89460, Note_on_c, 13, 59, 94
20, 89460, Note_on_c, 13, 62, 94
20, 89480, Note_on_c, 13, 62, 0
20, 89480, Note_on_c, 13, 59, 0
20, 89490, Note_on_c, 13, 59, 94
20, 89490, Note_on_c, 13, 62, 94
20, 89510, Note_on_c, 13, 62, 0
20, 89510, Note_on_c, 13, 59, 0
20, 89520, Note_on_c, 13, 59, 94
20, 89520, Note_on_c, 13, 62, 94
20, 89540, Note_on_c, 13, 62, 0
20, 89540, Note_on_c, 13, 59, 0
20, 89550, Note_on_c, 13, 59, 94
20, 89550, Note_on_c, 13, 62, 94
20, 89570, Note_on_c, 13, 62, 0
20, 89570, Note_on_c, 13, 59, 0
20, 89580, Note_on_c, 13, 59, 94
20, 89580, Note_on_c, 13, 62, 94
20, 89600, Note_on_c, 13, 62, 0
20, 89600, Note_on_c, 13, 59, 0
20, 89610, Note_on_c, 13, 59, 94
20, 89610, Note_on_c, 13, 62, 94
20, 89630, Note_on_c, 13, 62, 0
20, 89630, Note_on_c, 13, 59, 0
20, 89640, Note_on_c, 13, 59, 94
20, 89640, Note_on_c, 13, 62, 94
20, 89660, Note_on_c, 13, 62, 0
20, 89660, Note_on_c, 13, 59, 0
20, 89670, Note_on_c, 13, 59, 94
20, 89670, Note_on_c, 13, 62, 94
20, 89690, Note_on_c, 13, 62, 0
20, 89690, Note_on_c, 13, 59, 0
20, 89700, Note_on_c, 13, 59, 94
20, 89700, Note_on_c, 13, 62, 94
20, 89720, Note_on_c, 13, 62, 0
20, 89720, Note_on_c, 13, 59, 0
20, 89730, Note_on_c, 13, 59, 94
20, 89730, Note_on_c, 13, 62, 94
20, 89750, Note_on_c, 13, 62, 0
20, 89750, Note_on_c, 13, 59, 0
20, 89760, Note_on_c, 13, 59, 94
20, 89760, Note_on_c, 13, 62, 94
20, 89780, Note_on_c, 13, 62, 0
20, 89780, Note_on_c, 13, 59, 0
20, 89790, Note_on_c, 13, 59, 94
20, 89790, Note_on_c, 13, 62, 94
20, 89810, Note_on_c, 13, 62, 0
20, 89810, Note_on_c, 13, 59, 0
20, 89820, Note_on_c, 13, 59, 94
20, 89820, Note_on_c, 13, 62, 94
20, 89840, Note_on_c, 13, 62, 0
20, 89840, Note_on_c, 13, 59, 0
20, 89850, Note_on_c, 13, 59, 94
20, 89850, Note_on_c, 13, 62, 94
20, 89870, Note_on_c, 13, 62, 0
20, 89870, Note_on_c, 13, 59, 0
20, 89880, Note_on_c, 13, 59, 94
20, 89880, Note_on_c, 13, 62, 94
20, 89900, Note_on_c, 13, 62, 0
20, 89900, Note_on_c, 13, 59, 0
20, 89910, Note_on_c, 13, 59, 93
20, 89910, Note_on_c, 13, 62, 93
20, 89930, Note_on_c, 13, 62, 0
20, 89930, Note_on_c, 13, 59, 0
20, 89940, Note_on_c, 13, 59, 93
20, 89940, Note_on_c, 13, 62, 93
20, 89960, Note_on_c, 13, 62, 0
20, 89960, Note_on_c, 13, 59, 0
20, 89970, Note_on_c, 13, 59, 91
20, 89970, Note_on_c, 13, 62, 91
20, 89990, Note_on_c, 13, 62, 0
20, 89990, Note_on_c, 13, 59, 0
20, 90000, Note_on_c, 13, 59, 90
20, 90000, Note_on_c, 13, 62, 90
20, 90020, Note_on_c, 13, 62, 0
20, 90020, Note_on_c, 13, 59, 0
20, 90030, Note_on_c, 13, 59, 90
20, 90030, Note_on_c, 13, 62, 90
20, 90050, Note_on_c, 13, 62, 0
20, 90050, Note_on_c, 13, 59, 0
20, 90060, Note_on_c, 13, 59, 90
20, 90060, Note_on_c, 13, 62, 90
20, 90080, Note_on_c, 13, 62, 0
20, 90080, Note_on_c, 13, 59, 0
20, 90090, Note_on_c, 13, 59, 90
20, 90090, Note_on_c, 13, 62, 90
20, 90110, Note_on_c, 13, 62, 0
20, 90110, Note_on_c, 13, 59, 0
20, 90120, Note_on_c, 13, 60, 90
20, 90120, Note_on_c, 13, 62, 90
20, 90140, Note_on_c, 13, 62, 0
20, 90140, Note_on_c, 13, 60, 0
20, 90150, Note_on_c, 13, 60, 89
20, 90150, Note_on_c, 13, 62, 89
20, 90170, Note_on_c, 13, 62, 0
20, 90170, Note_on_c, 13, 60, 0
20, 90180, Note_on_c, 13, 60, 89
20, 90180, Note_on_c, 13, 62, 89
20, 90200, Note_on_c, 13, 62, 0
20, 90200, Note_on_c, 13, 60, 0
20, 90210, Note_on_c, 13, 60, 89
20, 90210, Note_on_c, 13, 62, 89
20, 90230, Note_on_c, 13, 62, 0
20, 90230, Note_on_c, 13, 60, 0
20, 90240, Note_on_c, 13, 59, 89
20, 90240, Note_on_c, 13, 62, 89
20, 90260, Note_on_c, 13, 62, 0
20, 90260, Note_on_c, 13, 59, 0
20, 90270, Note_on_c, 13, 59, 89
20, 90270, Note_on_c, 13, 62, 89
20, 90290, Note_on_c, 13, 62, 0
20, 90290, Note_on_c, 13, 59, 0
20, 90300, Note_on_c, 13, 59, 89
20, 90300, Note_on_c, 13, 62, 89
20, 90320, Note_on_c, 13, 62, 0
20, 90320, Note_on_c, 13, 59, 0
20, 90330, Note_on_c, 13, 59, 90
20, 90330, Note_on_c, 13, 62, 90
20, 90350, Note_on_c, 13, 62, 0
20, 90350, Note_on_c, 13, 59, 0
20, 90360, Note_on_c, 13, 59, 90
20, 90360, Note_on_c, 13, 62, 90
20, 90380, Note_on_c, 13, 62, 0
20, 90380, Note_on_c, 13, 59, 0
20, 90390, Note_on_c, 13, 59, 90
20, 90390, Note_on_c, 13, 62, 90
20, 90410, Note_on_c, 13, 62, 0
20, 90410, Note_on_c, 13, 59, 0
20, 90420, Note_on_c, 13, 59, 92
20, 90420, Note_on_c, 13, 62, 92
20, 90440, Note_on_c, 13, 62, 0
20, 90440, Note_on_c, 13, 59, 0
20, 90450, Note_on_c, 13, 59, 93
20, 90450, Note_on_c, 13, 62, 93
20, 90470, Note_on_c, 13, 62, 0
20, 90470, Note_on_c, 13, 59, 0
20, 90480, Note_on_c, 13, 59, 94
20, 90480, Note_on_c, 13, 62, 94
20, 90500, Note_on_c, 13, 62, 0
20, 90500, Note_on_c, 13, 59, 0
20, 90510, Note_on_c, 13, 59, 95
20, 90510, Note_on_c, 13, 62, 95
20, 90530, Note_on_c, 13, 62, 0
20, 90530, Note_on_c, 13, 59, 0
20, 90540, Note_on_c, 13, 59, 96
20, 90540, Note_on_c, 13, 62, 96
20, 90560, Note_on_c, 13, 62, 0
20, 90560, Note_on_c, 13, 59, 0
20, 90570, Note_on_c, 13, 59, 96
20, 90570, Note_on_c, 13, 62, 96
20, 90590, Note_on_c, 13, 62, 0
20, 90590, Note_on_c, 13, 59, 0
20, 90600, Note_on_c, 13, 59, 96
20, 90600, Note_on_c, 13, 62, 96
20, 90620, Note_on_c, 13, 62, 0
20, 90620, Note_on_c, 13, 59, 0
20, 90630, Note_on_c, 13, 59, 96
20, 90630, Note_on_c, 13, 62, 96
20, 90650, Note_on_c, 13, 62, 0
20, 90650, Note_on_c, 13, 59, 0
20, 90660, Note_on_c, 13, 59, 95
20, 90660, Note_on_c, 13, 62, 95
20, 90680, Note_on_c, 13, 62, 0
20, 90680, Note_on_c, 13, 59, 0
20, 90690, Note_on_c, 13, 59, 94
20, 90690, Note_on_c, 13, 62, 94
20, 90710, Note_on_c, 13, 62, 0
20, 90710, Note_on_c, 13, 59, 0
20, 90720, Note_on_c, 13, 59, 94
20, 90720, Note_on_c, 13, 62, 94
20, 90740, Note_on_c, 13, 62, 0
20, 90740, Note_on_c, 13, 59, 0
20, 90750, Note_on_c, 13, 59, 93
20, 90750, Note_on_c, 13, 62, 93
20, 90770, Note_on_c, 13, 62, 0
20, 90770, Note_on_c, 13, 59, 0
20, 90780, Note_on_c, 13, 59, 93
20, 90780, Note_on_c, 13, 62, 93
20, 90800, Note_on_c, 13, 62, 0
20, 90800, Note_on_c, 13, 59, 0
20, 90810, Note_on_c, 13, 59, 93
20, 90810, Note_on_c, 13, 62, 93
20, 90830, Note_on_c, 13, 62, 0
20, 90830, Note_on_c, 13, 59, 0
20, 90840, Note_on_c, 13, 59, 92
20, 90840, Note_on_c, 13, 62, 92
20, 90860, Note_on_c, 13, 62, 0
20, 90860, Note_on_c, 13, 59, 0
20, 90870, Note_on_c, 13, 59, 91
20, 90870, Note_on_c, 13, 62, 91
20, 90890, Note_on_c, 13, 62, 0
20, 90890, Note_on_c, 13, 59, 0
20, 90900, Note_on_c, 13, 59, 90
20, 90900, Note_on_c, 13, 62, 90
20, 90920, Note_on_c, 13, 62, 0
20, 90920, Note_on_c, 13, 59, 0
20, 90930, Note_on_c, 13, 59, 90
20, 90930, Note_on_c, 13, 62, 90
20, 90950, Note_on_c, 13, 62, 0
20, 90950, Note_on_c, 13, 59, 0
20, 90960, Note_on_c, 13, 59, 90
20, 90960, Note_on_c, 13, 62, 90
20, 90980, Note_on_c, 13, 62, 0
20, 90980, Note_on_c, 13, 59, 0
20, 90990, Note_on_c, 13, 59, 90
20, 90990, Note_on_c, 13, 62, 90
20, 91010, Note_on_c, 13, 62, 0
20, 91010, Note_on_c, 13, 59, 0
20, 91020, Note_on_c, 13, 59, 90
20, 91020, Note_on_c, 13, 62, 90
20, 91040, Note_on_c, 13, 62, 0
20, 91040, Note_on_c, 13, 59, 0
20, 91050, Note_on_c, 13, 59, 90
20, 91050, Note_on_c, 13, 62, 90
20, 91070, Note_on_c, 13, 62, 0
20, 91070, Note_on_c, 13, 59, 0
20, 91080, Note_on_c, 13, 60, 91
20, 91080, Note_on_c, 13, 62, 91
20, 91100, Note_on_c, 13, 62, 0
20, 91100, Note_on_c, 13, 60, 0
20, 91110, Note_on_c, 13, 60, 94
20, 91110, Note_on_c, 13, 62, 94
20, 91130, Note_on_c, 13, 62, 0
20, 91130, Note_on_c, 13, 60, 0
20, 91140, Note_on_c, 13, 60, 95
20, 91140, Note_on_c, 13, 62, 95
20, 91160, Note_on_c, 13, 62, 0
20, 91160, Note_on_c, 13, 60, 0
20, 91170, Note_on_c, 13, 60, 98
20, 91170, Note_on_c, 13, 62, 98
20, 91190, Note_on_c, 13, 62, 0
20, 91190, Note_on_c, 13, 60, 0
20, 91200, Note_on_c, 13, 62, 98
20, 91200, Note_on_c, 13, 59, 98
20, 91320, Note_on_c, 13, 59, 0
20, 91320, Note_on_c, 13, 62, 0
20, 91440, Note_on_c, 13, 79, 103
20, 91440, Note_on_c, 13, 71, 103
20, 91440, Note_on_c, 13, 62, 103
20, 91560, Note_on_c, 13, 62, 0
20, 91560, Note_on_c, 13, 71, 0
20, 91560, Note_on_c, 13, 79, 0
20, 91682, Note_on_c, 13, 62, 103
20, 91682, Note_on_c, 13, 71, 103
20, 91682, Note_on_c, 13, 79, 103
20, 91782, Note_on_c, 13, 79, 0
20, 91782, Note_on_c, 13, 71, 0
20, 91782, Note_on_c, 13, 62, 0
20, 91802, Note_on_c, 13, 55, 103
20, 91802, Note_on_c, 13, 67, 103
20, 91862, Note_on_c, 13, 67, 0
20, 91862, Note_on_c, 13, 55, 0
20, 91892, Note_on_c, 13, 55, 103
20, 91892, Note_on_c, 13, 67, 103
20, 91907, Note_on_c, 13, 67, 0
20, 91907, Note_on_c, 13, 55, 0
20, 91922, Note_on_c, 13, 55, 103
20, 91922, Note_on_c, 13, 67, 103
20, 92042, Note_on_c, 13, 67, 0
20, 92042, Note_on_c, 13, 55, 0
20, 92042, End_track
21, 0, Start_track
21, 0, MIDI_port, 0
21, 0, Title_t, "+++++++++++"
21, 0, Program_c, 13, 44
21, 0, Control_c, 13, 7, 110
21, 0, Control_c, 13, 10, 66
21, 0, Note_on_c, 13, 67, 85
21, 120, Note_on_c, 13, 67, 0
21, 180, Note_on_c, 13, 62, 85
21, 210, Note_on_c, 13, 62, 0
21, 240, Note_on_c, 13, 67, 85
21, 360, Note_on_c, 13, 67, 0
21, 420, Note_on_c, 13, 62, 85
21, 450, Note_on_c, 13, 62, 0
21, 480, Note_on_c, 13, 67, 85
21, 510, Note_on_c, 13, 67, 0
21, 540, Note_on_c, 13, 62, 85
21, 570, Note_on_c, 13, 62, 0
21, 600, Note_on_c, 13, 67, 85
21, 630, Note_on_c, 13, 67, 0
21, 660, Note_on_c, 13, 71, 85
21, 690, Note_on_c, 13, 71, 0
21, 720, Note_on_c, 13, 74, 85
21, 840, Note_on_c, 13, 74, 0
21, 960, Note_on_c, 13, 72, 85
21, 1080, Note_on_c, 13, 72, 0
21, 1140, Note_on_c, 13, 69, 85
21, 1170, Note_on_c, 13, 69, 0
21, 1200, Note_on_c, 13, 72, 85
21, 1320, Note_on_c, 13, 72, 0
21, 1380, Note_on_c, 13, 69, 85
21, 1410, Note_on_c, 13, 69, 0
21, 1440, Note_on_c, 13, 72, 85
21, 1470, Note_on_c, 13, 72, 0
21, 1500, Note_on_c, 13, 69, 85
21, 1530, Note_on_c, 13, 69, 0
21, 1560, Note_on_c, 13, 66, 85
21, 1590, Note_on_c, 13, 66, 0
21, 1620, Note_on_c, 13, 69, 85
21, 1650, Note_on_c, 13, 69, 0
21, 1680, Note_on_c, 13, 62, 85
21, 1800, Note_on_c, 13, 62, 0
21, 1920, Note_on_c, 13, 67, 85
21, 1965, Note_on_c, 13, 67, 0
21, 1980, Note_on_c, 13, 67, 85
21, 2025, Note_on_c, 13, 67, 0
21, 2040, Note_on_c, 13, 67, 85
21, 2085, Note_on_c, 13, 67, 0
21, 2100, Note_on_c, 13, 67, 85
21, 2145, Note_on_c, 13, 67, 0
21, 2160, Note_on_c, 13, 67, 85
21, 2205, Note_on_c, 13, 67, 0
21, 2220, Note_on_c, 13, 67, 85
21, 2265, Note_on_c, 13, 67, 0
21, 2280, Note_on_c, 13, 67, 85
21, 2325, Note_on_c, 13, 67, 0
21, 2340, Note_on_c, 13, 67, 85
21, 2385, Note_on_c, 13, 67, 0
21, 2400, Note_on_c, 13, 69, 85
21, 2445, Note_on_c, 13, 69, 0
21, 2460, Note_on_c, 13, 69, 85
21, 2505, Note_on_c, 13, 69, 0
21, 2520, Note_on_c, 13, 69, 85
21, 2565, Note_on_c, 13, 69, 0
21, 2580, Note_on_c, 13, 69, 85
21, 2625, Note_on_c, 13, 69, 0
21, 2640, Note_on_c, 13, 69, 85
21, 2700, Note_on_c, 13, 69, 0
21, 2700, Note_on_c, 13, 72, 85
21, 2745, Note_on_c, 13, 72, 0
21, 2760, Note_on_c, 13, 66, 85
21, 2820, Note_on_c, 13, 66, 0
21, 2820, Note_on_c, 13, 69, 85
21, 2865, Note_on_c, 13, 69, 0
21, 2880, Note_on_c, 13, 67, 85
21, 2925, Note_on_c, 13, 67, 0
21, 2940, Note_on_c, 13, 67, 85
21, 2985, Note_on_c, 13, 67, 0
21, 3000, Note_on_c, 13, 67, 85
21, 3045, Note_on_c, 13, 67, 0
21, 3060, Note_on_c, 13, 67, 85
21, 3105, Note_on_c, 13, 67, 0
21, 3120, Note_on_c, 13, 67, 85
21, 3165, Note_on_c, 13, 67, 0
21, 3180, Note_on_c, 13, 67, 85
21, 3225, Note_on_c, 13, 67, 0
21, 3240, Note_on_c, 13, 67, 85
21, 3285, Note_on_c, 13, 67, 0
21, 3300, Note_on_c, 13, 67, 85
21, 3345, Note_on_c, 13, 67, 0
21, 3360, Note_on_c, 13, 69, 85
21, 3405, Note_on_c, 13, 69, 0
21, 3420, Note_on_c, 13, 69, 85
21, 3465, Note_on_c, 13, 69, 0
21, 3480, Note_on_c, 13, 69, 85
21, 3525, Note_on_c, 13, 69, 0
21, 3540, Note_on_c, 13, 69, 85
21, 3585, Note_on_c, 13, 69, 0
21, 3600, Note_on_c, 13, 69, 85
21, 3660, Note_on_c, 13, 69, 0
21, 3660, Note_on_c, 13, 72, 85
21, 3705, Note_on_c, 13, 72, 0
21, 3720, Note_on_c, 13, 66, 85
21, 3780, Note_on_c, 13, 66, 0
21, 3780, Note_on_c, 13, 69, 85
21, 3825, Note_on_c, 13, 69, 0
21, 3840, Note_on_c, 13, 62, 85
21, 3860, Note_on_c, 13, 62, 0
21, 3870, Note_on_c, 13, 62, 85
21, 3890, Note_on_c, 13, 62, 0
21, 3900, Note_on_c, 13, 62, 85
21, 3920, Note_on_c, 13, 62, 0
21, 3930, Note_on_c, 13, 62, 85
21, 3950, Note_on_c, 13, 62, 0
21, 3960, Note_on_c, 13, 62, 85
21, 3980, Note_on_c, 13, 62, 0
21, 3990, Note_on_c, 13, 62, 85
21, 4010, Note_on_c, 13, 62, 0
21, 4020, Note_on_c, 13, 62, 85
21, 4040, Note_on_c, 13, 62, 0
21, 4050, Note_on_c, 13, 62, 85
21, 4070, Note_on_c, 13, 62, 0
21, 4080, Note_on_c, 13, 62, 85
21, 4100, Note_on_c, 13, 62, 0
21, 4110, Note_on_c, 13, 62, 85
21, 4130, Note_on_c, 13, 62, 0
21, 4140, Note_on_c, 13, 62, 85
21, 4160, Note_on_c, 13, 62, 0
21, 4170, Note_on_c, 13, 62, 85
21, 4190, Note_on_c, 13, 62, 0
21, 4200, Note_on_c, 13, 62, 85
21, 4220, Note_on_c, 13, 62, 0
21, 4230, Note_on_c, 13, 62, 85
21, 4250, Note_on_c, 13, 62, 0
21, 4260, Note_on_c, 13, 62, 85
21, 4280, Note_on_c, 13, 62, 0
21, 4290, Note_on_c, 13, 62, 85
21, 4310, Note_on_c, 13, 62, 0
21, 4320, Note_on_c, 13, 62, 85
21, 4340, Note_on_c, 13, 62, 0
21, 4350, Note_on_c, 13, 62, 85
21, 4370, Note_on_c, 13, 62, 0
21, 4380, Note_on_c, 13, 62, 85
21, 4400, Note_on_c, 13, 62, 0
21, 4410, Note_on_c, 13, 62, 85
21, 4430, Note_on_c, 13, 62, 0
21, 4440, Note_on_c, 13, 62, 85
21, 4460, Note_on_c, 13, 62, 0
21, 4470, Note_on_c, 13, 62, 85
21, 4490, Note_on_c, 13, 62, 0
21, 4500, Note_on_c, 13, 62, 85
21, 4520, Note_on_c, 13, 62, 0
21, 4530, Note_on_c, 13, 62, 85
21, 4550, Note_on_c, 13, 62, 0
21, 4560, Note_on_c, 13, 62, 85
21, 4680, Note_on_c, 13, 62, 0
21, 5280, Note_on_c, 13, 54, 47
21, 5520, Note_on_c, 13, 54, 0
21, 5520, Note_on_c, 13, 55, 47
21, 5760, Note_on_c, 13, 55, 0
21, 5760, Note_on_c, 13, 60, 47
21, 5850, Note_on_c, 13, 60, 0
21, 5880, Note_on_c, 13, 60, 47
21, 5970, Note_on_c, 13, 60, 0
21, 6000, Note_on_c, 13, 57, 47
21, 6090, Note_on_c, 13, 57, 0
21, 6120, Note_on_c, 13, 50, 47
21, 6210, Note_on_c, 13, 50, 0
21, 6240, Note_on_c, 13, 50, 47
21, 6300, Note_on_c, 13, 50, 0
21, 6360, Note_on_c, 13, 62, 47
21, 6420, Note_on_c, 13, 62, 0
21, 6480, Note_on_c, 13, 62, 47
21, 6600, Note_on_c, 13, 62, 0
21, 7200, Note_on_c, 13, 66, 47
21, 7440, Note_on_c, 13, 66, 0
21, 7440, Note_on_c, 13, 67, 47
21, 7680, Note_on_c, 13, 67, 0
21, 7680, Note_on_c, 13, 60, 47
21, 7770, Note_on_c, 13, 60, 0
21, 7800, Note_on_c, 13, 60, 47
21, 7845, Note_on_c, 13, 60, 0
21, 7860, Note_on_c, 13, 60, 47
21, 7905, Note_on_c, 13, 60, 0
21, 7920, Note_on_c, 13, 57, 47
21, 8010, Note_on_c, 13, 57, 0
21, 8040, Note_on_c, 13, 57, 47
21, 8085, Note_on_c, 13, 57, 0
21, 8100, Note_on_c, 13, 57, 47
21, 8145, Note_on_c, 13, 57, 0
21, 8160, Note_on_c, 13, 55, 92
21, 8205, Note_on_c, 13, 55, 0
21, 8220, Note_on_c, 13, 55, 71
21, 8265, Note_on_c, 13, 55, 0
21, 8280, Note_on_c, 13, 55, 71
21, 8325, Note_on_c, 13, 55, 0
21, 8340, Note_on_c, 13, 55, 71
21, 8385, Note_on_c, 13, 55, 0
21, 8400, Note_on_c, 13, 55, 55
21, 8445, Note_on_c, 13, 55, 0
21, 8460, Note_on_c, 13, 55, 50
21, 8505, Note_on_c, 13, 55, 0
21, 8520, Note_on_c, 13, 55, 50
21, 8565, Note_on_c, 13, 55, 0
21, 8580, Note_on_c, 13, 55, 50
21, 8625, Note_on_c, 13, 55, 0
21, 8640, Note_on_c, 13, 55, 91
21, 8685, Note_on_c, 13, 55, 0
21, 8700, Note_on_c, 13, 55, 65
21, 8745, Note_on_c, 13, 55, 0
21, 8760, Note_on_c, 13, 55, 65
21, 8805, Note_on_c, 13, 55, 0
21, 8820, Note_on_c, 13, 55, 65
21, 8865, Note_on_c, 13, 55, 0
21, 8880, Note_on_c, 13, 55, 46
21, 8925, Note_on_c, 13, 55, 0
21, 8940, Note_on_c, 13, 55, 46
21, 8985, Note_on_c, 13, 55, 0
21, 9000, Note_on_c, 13, 55, 46
21, 9045, Note_on_c, 13, 55, 0
21, 9060, Note_on_c, 13, 55, 46
21, 9105, Note_on_c, 13, 55, 0
21, 9120, Note_on_c, 13, 55, 59
21, 9165, Note_on_c, 13, 55, 0
21, 9180, Note_on_c, 13, 67, 41
21, 9225, Note_on_c, 13, 67, 0
21, 9240, Note_on_c, 13, 67, 46
21, 9285, Note_on_c, 13, 67, 0
21, 9300, Note_on_c, 13, 67, 49
21, 9345, Note_on_c, 13, 67, 0
21, 9360, Note_on_c, 13, 67, 53
21, 9405, Note_on_c, 13, 67, 0
21, 9420, Note_on_c, 13, 67, 56
21, 9465, Note_on_c, 13, 67, 0
21, 9480, Note_on_c, 13, 69, 61
21, 9525, Note_on_c, 13, 69, 0
21, 9540, Note_on_c, 13, 69, 64
21, 9585, Note_on_c, 13, 69, 0
21, 9600, Note_on_c, 13, 67, 68
21, 9645, Note_on_c, 13, 67, 0
21, 9660, Note_on_c, 13, 67, 71
21, 9705, Note_on_c, 13, 67, 0
21, 9720, Note_on_c, 13, 66, 76
21, 9765, Note_on_c, 13, 66, 0
21, 9780, Note_on_c, 13, 66, 79
21, 9825, Note_on_c, 13, 66, 0
21, 9840, Note_on_c, 13, 67, 82
21, 9885, Note_on_c, 13, 67, 0
21, 9900, Note_on_c, 13, 67, 82
21, 9945, Note_on_c, 13, 67, 0
21, 9960, Note_on_c, 13, 64, 82
21, 10005, Note_on_c, 13, 64, 0
21, 10020, Note_on_c, 13, 64, 82
21, 10065, Note_on_c, 13, 64, 0
21, 10080, Note_on_c, 13, 69, 85
21, 10080, Note_on_c, 13, 62, 85
21, 10100, Note_on_c, 13, 62, 0
21, 10100, Note_on_c, 13, 69, 0
21, 10110, Note_on_c, 13, 69, 85
21, 10110, Note_on_c, 13, 62, 85
21, 10130, Note_on_c, 13, 62, 0
21, 10130, Note_on_c, 13, 69, 0
21, 10140, Note_on_c, 13, 69, 85
21, 10140, Note_on_c, 13, 62, 85
21, 10160, Note_on_c, 13, 62, 0
21, 10160, Note_on_c, 13, 69, 0
21, 10170, Note_on_c, 13, 69, 85
21, 10170, Note_on_c, 13, 62, 85
21, 10190, Note_on_c, 13, 62, 0
21, 10190, Note_on_c, 13, 69, 0
21, 10200, Note_on_c, 13, 69, 85
21, 10200, Note_on_c, 13, 62, 85
21, 10220, Note_on_c, 13, 62, 0
21, 10220, Note_on_c, 13, 69, 0
21, 10230, Note_on_c, 13, 69, 85
21, 10230, Note_on_c, 13, 62, 85
21, 10250, Note_on_c, 13, 62, 0
21, 10250, Note_on_c, 13, 69, 0
21, 10260, Note_on_c, 13, 69, 85
21, 10260, Note_on_c, 13, 62, 85
21, 10280, Note_on_c, 13, 62, 0
21, 10280, Note_on_c, 13, 69, 0
21, 10290, Note_on_c, 13, 69, 85
21, 10290, Note_on_c, 13, 62, 85
21, 10310, Note_on_c, 13, 62, 0
21, 10310, Note_on_c, 13, 69, 0
21, 10320, Note_on_c, 13, 69, 85
21, 10320, Note_on_c, 13, 64, 85
21, 10340, Note_on_c, 13, 64, 0
21, 10340, Note_on_c, 13, 69, 0
21, 10350, Note_on_c, 13, 69, 85
21, 10350, Note_on_c, 13, 64, 85
21, 10370, Note_on_c, 13, 64, 0
21, 10370, Note_on_c, 13, 69, 0
21, 10380, Note_on_c, 13, 69, 85
21, 10380, Note_on_c, 13, 64, 85
21, 10400, Note_on_c, 13, 64, 0
21, 10400, Note_on_c, 13, 69, 0
21, 10410, Note_on_c, 13, 69, 85
21, 10410, Note_on_c, 13, 64, 85
21, 10430, Note_on_c, 13, 64, 0
21, 10430, Note_on_c, 13, 69, 0
21, 10440, Note_on_c, 13, 69, 85
21, 10440, Note_on_c, 13, 64, 85
21, 10460, Note_on_c, 13, 64, 0
21, 10460, Note_on_c, 13, 69, 0
21, 10470, Note_on_c, 13, 69, 85
21, 10470, Note_on_c, 13, 64, 85
21, 10490, Note_on_c, 13, 64, 0
21, 10490, Note_on_c, 13, 69, 0
21, 10500, Note_on_c, 13, 69, 85
21, 10500, Note_on_c, 13, 64, 85
21, 10520, Note_on_c, 13, 64, 0
21, 10520, Note_on_c, 13, 69, 0
21, 10530, Note_on_c, 13, 69, 85
21, 10530, Note_on_c, 13, 64, 85
21, 10550, Note_on_c, 13, 64, 0
21, 10550, Note_on_c, 13, 69, 0
21, 10560, Note_on_c, 13, 69, 85
21, 10560, Note_on_c, 13, 62, 85
21, 10580, Note_on_c, 13, 62, 0
21, 10580, Note_on_c, 13, 69, 0
21, 10590, Note_on_c, 13, 69, 85
21, 10590, Note_on_c, 13, 62, 85
21, 10610, Note_on_c, 13, 62, 0
21, 10610, Note_on_c, 13, 69, 0
21, 10620, Note_on_c, 13, 69, 85
21, 10620, Note_on_c, 13, 62, 85
21, 10640, Note_on_c, 13, 62, 0
21, 10640, Note_on_c, 13, 69, 0
21, 10650, Note_on_c, 13, 69, 85
21, 10650, Note_on_c, 13, 62, 85
21, 10670, Note_on_c, 13, 62, 0
21, 10670, Note_on_c, 13, 69, 0
21, 10680, Note_on_c, 13, 69, 85
21, 10680, Note_on_c, 13, 62, 85
21, 10700, Note_on_c, 13, 62, 0
21, 10700, Note_on_c, 13, 69, 0
21, 10710, Note_on_c, 13, 69, 85
21, 10710, Note_on_c, 13, 62, 85
21, 10730, Note_on_c, 13, 62, 0
21, 10730, Note_on_c, 13, 69, 0
21, 10740, Note_on_c, 13, 69, 85
21, 10740, Note_on_c, 13, 62, 85
21, 10760, Note_on_c, 13, 62, 0
21, 10760, Note_on_c, 13, 69, 0
21, 10770, Note_on_c, 13, 69, 85
21, 10770, Note_on_c, 13, 62, 85
21, 10790, Note_on_c, 13, 62, 0
21, 10790, Note_on_c, 13, 69, 0
21, 10800, Note_on_c, 13, 69, 85
21, 10800, Note_on_c, 13, 64, 85
21, 10820, Note_on_c, 13, 64, 0
21, 10820, Note_on_c, 13, 69, 0
21, 10830, Note_on_c, 13, 69, 85
21, 10830, Note_on_c, 13, 64, 85
21, 10850, Note_on_c, 13, 64, 0
21, 10850, Note_on_c, 13, 69, 0
21, 10860, Note_on_c, 13, 69, 85
21, 10860, Note_on_c, 13, 64, 85
21, 10880, Note_on_c, 13, 64, 0
21, 10880, Note_on_c, 13, 69, 0
21, 10890, Note_on_c, 13, 69, 85
21, 10890, Note_on_c, 13, 64, 85
21, 10910, Note_on_c, 13, 64, 0
21, 10910, Note_on_c, 13, 69, 0
21, 10920, Note_on_c, 13, 69, 85
21, 10920, Note_on_c, 13, 64, 85
21, 10940, Note_on_c, 13, 64, 0
21, 10940, Note_on_c, 13, 69, 0
21, 10950, Note_on_c, 13, 69, 85
21, 10950, Note_on_c, 13, 64, 85
21, 10970, Note_on_c, 13, 64, 0
21, 10970, Note_on_c, 13, 69, 0
21, 10980, Note_on_c, 13, 69, 85
21, 10980, Note_on_c, 13, 64, 85
21, 11000, Note_on_c, 13, 64, 0
21, 11000, Note_on_c, 13, 69, 0
21, 11010, Note_on_c, 13, 69, 85
21, 11010, Note_on_c, 13, 64, 85
21, 11030, Note_on_c, 13, 64, 0
21, 11030, Note_on_c, 13, 69, 0
21, 11040, Note_on_c, 13, 62, 85
21, 11085, Note_on_c, 13, 62, 0
21, 11100, Note_on_c, 13, 64, 85
21, 11145, Note_on_c, 13, 64, 0
21, 11160, Note_on_c, 13, 66, 85
21, 11205, Note_on_c, 13, 66, 0
21, 11220, Note_on_c, 13, 64, 85
21, 11265, Note_on_c, 13, 64, 0
21, 11280, Note_on_c, 13, 62, 85
21, 11325, Note_on_c, 13, 62, 0
21, 11340, Note_on_c, 13, 64, 85
21, 11385, Note_on_c, 13, 64, 0
21, 11400, Note_on_c, 13, 66, 85
21, 11445, Note_on_c, 13, 66, 0
21, 11460, Note_on_c, 13, 62, 85
21, 11505, Note_on_c, 13, 62, 0
21, 11520, Note_on_c, 13, 71, 85
21, 11565, Note_on_c, 13, 71, 0
21, 11580, Note_on_c, 13, 69, 85
21, 11625, Note_on_c, 13, 69, 0
21, 11640, Note_on_c, 13, 67, 85
21, 11685, Note_on_c, 13, 67, 0
21, 11700, Note_on_c, 13, 69, 85
21, 11745, Note_on_c, 13, 69, 0
21, 11760, Note_on_c, 13, 71, 85
21, 11805, Note_on_c, 13, 71, 0
21, 11820, Note_on_c, 13, 69, 85
21, 11865, Note_on_c, 13, 69, 0
21, 11880, Note_on_c, 13, 68, 85
21, 11925, Note_on_c, 13, 68, 0
21, 11940, Note_on_c, 13, 71, 85
21, 11985, Note_on_c, 13, 71, 0
21, 12000, Note_on_c, 13, 69, 85
21, 12045, Note_on_c, 13, 69, 0
21, 12060, Note_on_c, 13, 69, 85
21, 12105, Note_on_c, 13, 69, 0
21, 12120, Note_on_c, 13, 69, 85
21, 12165, Note_on_c, 13, 69, 0
21, 12180, Note_on_c, 13, 69, 85
21, 12225, Note_on_c, 13, 69, 0
21, 12240, Note_on_c, 13, 69, 85
21, 12285, Note_on_c, 13, 69, 0
21, 12300, Note_on_c, 13, 69, 85
21, 12345, Note_on_c, 13, 69, 0
21, 12360, Note_on_c, 13, 69, 85
21, 12405, Note_on_c, 13, 69, 0
21, 12420, Note_on_c, 13, 69, 85
21, 12465, Note_on_c, 13, 69, 0
21, 12480, Note_on_c, 13, 69, 85
21, 12525, Note_on_c, 13, 69, 0
21, 12540, Note_on_c, 13, 57, 85
21, 12585, Note_on_c, 13, 57, 0
21, 12600, Note_on_c, 13, 57, 85
21, 12645, Note_on_c, 13, 57, 0
21, 12660, Note_on_c, 13, 57, 85
21, 12705, Note_on_c, 13, 57, 0
21, 12720, Note_on_c, 13, 57, 85
21, 12840, Note_on_c, 13, 57, 0
21, 13320, Note_on_c, 13, 66, 55
21, 13380, Note_on_c, 13, 66, 0
21, 13440, Note_on_c, 13, 59, 55
21, 13500, Note_on_c, 13, 59, 0
21, 13560, Note_on_c, 13, 67, 55
21, 13620, Note_on_c, 13, 67, 0
21, 13680, Note_on_c, 13, 64, 55
21, 13740, Note_on_c, 13, 64, 0
21, 13800, Note_on_c, 13, 61, 55
21, 13860, Note_on_c, 13, 61, 0
21, 14040, Note_on_c, 13, 64, 55
21, 14160, Note_on_c, 13, 64, 0
21, 14160, Note_on_c, 13, 62, 55
21, 14220, Note_on_c, 13, 62, 0
21, 14280, Note_on_c, 13, 64, 55
21, 14340, Note_on_c, 13, 64, 0
21, 14400, Note_on_c, 13, 62, 55
21, 14640, Note_on_c, 13, 62, 0
21, 14640, Note_on_c, 13, 61, 55
21, 14760, Note_on_c, 13, 61, 0
21, 15000, Note_on_c, 13, 61, 55
21, 15120, Note_on_c, 13, 61, 0
21, 15120, Note_on_c, 13, 62, 55
21, 15180, Note_on_c, 13, 62, 0
21, 15240, Note_on_c, 13, 66, 55
21, 15300, Note_on_c, 13, 66, 0
21, 15360, Note_on_c, 13, 59, 55
21, 15420, Note_on_c, 13, 59, 0
21, 15480, Note_on_c, 13, 55, 55
21, 15540, Note_on_c, 13, 55, 0
21, 15600, Note_on_c, 13, 52, 55
21, 15720, Note_on_c, 13, 52, 0
21, 15780, Note_on_c, 13, 64, 55
21, 15825, Note_on_c, 13, 64, 0
21, 15840, Note_on_c, 13, 64, 55
21, 15900, Note_on_c, 13, 64, 0
21, 15900, Note_on_c, 13, 62, 55
21, 15960, Note_on_c, 13, 62, 0
21, 16320, Note_on_c, 13, 62, 55
21, 16365, Note_on_c, 13, 62, 0
21, 16380, Note_on_c, 13, 62, 55
21, 16425, Note_on_c, 13, 62, 0
21, 16440, Note_on_c, 13, 64, 55
21, 16485, Note_on_c, 13, 64, 0
21, 16500, Note_on_c, 13, 64, 55
21, 16545, Note_on_c, 13, 64, 0
21, 16560, Note_on_c, 13, 66, 55
21, 16605, Note_on_c, 13, 66, 0
21, 16620, Note_on_c, 13, 66, 55
21, 16665, Note_on_c, 13, 66, 0
21, 16680, Note_on_c, 13, 62, 55
21, 16725, Note_on_c, 13, 62, 0
21, 16740, Note_on_c, 13, 62, 55
21, 16785, Note_on_c, 13, 62, 0
21, 16800, Note_on_c, 13, 61, 55
21, 16845, Note_on_c, 13, 61, 0
21, 16860, Note_on_c, 13, 61, 55
21, 16905, Note_on_c, 13, 61, 0
21, 16920, Note_on_c, 13, 62, 55
21, 16965, Note_on_c, 13, 62, 0
21, 16980, Note_on_c, 13, 62, 55
21, 17025, Note_on_c, 13, 62, 0
21, 17040, Note_on_c, 13, 64, 55
21, 17085, Note_on_c, 13, 64, 0
21, 17100, Note_on_c, 13, 64, 55
21, 17145, Note_on_c, 13, 64, 0
21, 17160, Note_on_c, 13, 61, 55
21, 17205, Note_on_c, 13, 61, 0
21, 17220, Note_on_c, 13, 61, 55
21, 17265, Note_on_c, 13, 61, 0
21, 17280, Note_on_c, 13, 62, 55
21, 17325, Note_on_c, 13, 62, 0
21, 17340, Note_on_c, 13, 62, 55
21, 17385, Note_on_c, 13, 62, 0
21, 17400, Note_on_c, 13, 64, 55
21, 17445, Note_on_c, 13, 64, 0
21, 17460, Note_on_c, 13, 64, 55
21, 17505, Note_on_c, 13, 64, 0
21, 17520, Note_on_c, 13, 66, 55
21, 17565, Note_on_c, 13, 66, 0
21, 17580, Note_on_c, 13, 66, 55
21, 17625, Note_on_c, 13, 66, 0
21, 17640, Note_on_c, 13, 62, 55
21, 17685, Note_on_c, 13, 62, 0
21, 17700, Note_on_c, 13, 62, 55
21, 17745, Note_on_c, 13, 62, 0
21, 17760, Note_on_c, 13, 61, 55
21, 17805, Note_on_c, 13, 61, 0
21, 17820, Note_on_c, 13, 61, 55
21, 17865, Note_on_c, 13, 61, 0
21, 17880, Note_on_c, 13, 62, 55
21, 17925, Note_on_c, 13, 62, 0
21, 17940, Note_on_c, 13, 62, 55
21, 17985, Note_on_c, 13, 62, 0
21, 18000, Note_on_c, 13, 64, 55
21, 18045, Note_on_c, 13, 64, 0
21, 18060, Note_on_c, 13, 64, 55
21, 18105, Note_on_c, 13, 64, 0
21, 18120, Note_on_c, 13, 61, 55
21, 18165, Note_on_c, 13, 61, 0
21, 18180, Note_on_c, 13, 61, 55
21, 18225, Note_on_c, 13, 61, 0
21, 18240, Note_on_c, 13, 62, 55
21, 18285, Note_on_c, 13, 62, 0
21, 18300, Note_on_c, 13, 62, 55
21, 18345, Note_on_c, 13, 62, 0
21, 18360, Note_on_c, 13, 66, 55
21, 18405, Note_on_c, 13, 66, 0
21, 18420, Note_on_c, 13, 64, 55
21, 18465, Note_on_c, 13, 64, 0
21, 18480, Note_on_c, 13, 63, 55
21, 18525, Note_on_c, 13, 63, 0
21, 18540, Note_on_c, 13, 59, 55
21, 18585, Note_on_c, 13, 59, 0
21, 18600, Note_on_c, 13, 61, 55
21, 18645, Note_on_c, 13, 61, 0
21, 18660, Note_on_c, 13, 62, 55
21, 18705, Note_on_c, 13, 62, 0
21, 18720, Note_on_c, 13, 64, 85
21, 18765, Note_on_c, 13, 64, 0
21, 18780, Note_on_c, 13, 67, 85
21, 18825, Note_on_c, 13, 67, 0
21, 18840, Note_on_c, 13, 64, 85
21, 18885, Note_on_c, 13, 64, 0
21, 18900, Note_on_c, 13, 62, 85
21, 18945, Note_on_c, 13, 62, 0
21, 18960, Note_on_c, 13, 61, 85
21, 19005, Note_on_c, 13, 61, 0
21, 19020, Note_on_c, 13, 57, 55
21, 19065, Note_on_c, 13, 57, 0
21, 19080, Note_on_c, 13, 59, 85
21, 19125, Note_on_c, 13, 59, 0
21, 19140, Note_on_c, 13, 61, 85
21, 19185, Note_on_c, 13, 61, 0
21, 19200, Note_on_c, 13, 62, 85
21, 19245, Note_on_c, 13, 62, 0
21, 19260, Note_on_c, 13, 74, 85
21, 19305, Note_on_c, 13, 74, 0
21, 19320, Note_on_c, 13, 74, 85
21, 19365, Note_on_c, 13, 74, 0
21, 19380, Note_on_c, 13, 74, 85
21, 19425, Note_on_c, 13, 74, 0
21, 19440, Note_on_c, 13, 74, 85
21, 19485, Note_on_c, 13, 74, 0
21, 19500, Note_on_c, 13, 74, 85
21, 19545, Note_on_c, 13, 74, 0
21, 19560, Note_on_c, 13, 74, 85
21, 19605, Note_on_c, 13, 74, 0
21, 19620, Note_on_c, 13, 74, 85
21, 19665, Note_on_c, 13, 74, 0
21, 19680, Note_on_c, 13, 74, 85
21, 19740, Note_on_c, 13, 74, 0
21, 19740, Note_on_c, 13, 69, 85
21, 19785, Note_on_c, 13, 69, 0
21, 19800, Note_on_c, 13, 69, 85
21, 19830, Note_on_c, 13, 69, 0
21, 19860, Note_on_c, 13, 69, 85
21, 19890, Note_on_c, 13, 69, 0
21, 19920, Note_on_c, 13, 69, 85
21, 19965, Note_on_c, 13, 69, 0
21, 19980, Note_on_c, 13, 69, 85
21, 20025, Note_on_c, 13, 69, 0
21, 20040, Note_on_c, 13, 69, 85
21, 20085, Note_on_c, 13, 69, 0
21, 20100, Note_on_c, 13, 67, 85
21, 20145, Note_on_c, 13, 67, 0
21, 20160, Note_on_c, 13, 62, 85
21, 20205, Note_on_c, 13, 62, 0
21, 20220, Note_on_c, 13, 62, 53
21, 20265, Note_on_c, 13, 62, 0
21, 20280, Note_on_c, 13, 64, 53
21, 20325, Note_on_c, 13, 64, 0
21, 20340, Note_on_c, 13, 64, 53
21, 20385, Note_on_c, 13, 64, 0
21, 20400, Note_on_c, 13, 66, 53
21, 20445, Note_on_c, 13, 66, 0
21, 20460, Note_on_c, 13, 66, 53
21, 20505, Note_on_c, 13, 66, 0
21, 20520, Note_on_c, 13, 62, 53
21, 20565, Note_on_c, 13, 62, 0
21, 20580, Note_on_c, 13, 62, 53
21, 20625, Note_on_c, 13, 62, 0
21, 20640, Note_on_c, 13, 61, 55
21, 20685, Note_on_c, 13, 61, 0
21, 20700, Note_on_c, 13, 61, 55
21, 20745, Note_on_c, 13, 61, 0
21, 20760, Note_on_c, 13, 62, 55
21, 20805, Note_on_c, 13, 62, 0
21, 20820, Note_on_c, 13, 62, 55
21, 20865, Note_on_c, 13, 62, 0
21, 20880, Note_on_c, 13, 64, 55
21, 20925, Note_on_c, 13, 64, 0
21, 20940, Note_on_c, 13, 64, 55
21, 20985, Note_on_c, 13, 64, 0
21, 21000, Note_on_c, 13, 61, 55
21, 21045, Note_on_c, 13, 61, 0
21, 21060, Note_on_c, 13, 61, 55
21, 21105, Note_on_c, 13, 61, 0
21, 21120, Note_on_c, 13, 62, 55
21, 21165, Note_on_c, 13, 62, 0
21, 21180, Note_on_c, 13, 62, 55
21, 21225, Note_on_c, 13, 62, 0
21, 21240, Note_on_c, 13, 64, 55
21, 21285, Note_on_c, 13, 64, 0
21, 21300, Note_on_c, 13, 64, 55
21, 21345, Note_on_c, 13, 64, 0
21, 21360, Note_on_c, 13, 66, 55
21, 21405, Note_on_c, 13, 66, 0
21, 21420, Note_on_c, 13, 66, 55
21, 21465, Note_on_c, 13, 66, 0
21, 21480, Note_on_c, 13, 62, 55
21, 21525, Note_on_c, 13, 62, 0
21, 21540, Note_on_c, 13, 62, 55
21, 21585, Note_on_c, 13, 62, 0
21, 21600, Note_on_c, 13, 61, 55
21, 21645, Note_on_c, 13, 61, 0
21, 21660, Note_on_c, 13, 61, 55
21, 21705, Note_on_c, 13, 61, 0
21, 21720, Note_on_c, 13, 62, 55
21, 21765, Note_on_c, 13, 62, 0
21, 21780, Note_on_c, 13, 62, 55
21, 21825, Note_on_c, 13, 62, 0
21, 21840, Note_on_c, 13, 64, 55
21, 21885, Note_on_c, 13, 64, 0
21, 21900, Note_on_c, 13, 64, 55
21, 21945, Note_on_c, 13, 64, 0
21, 21960, Note_on_c, 13, 61, 55
21, 22005, Note_on_c, 13, 61, 0
21, 22020, Note_on_c, 13, 61, 55
21, 22065, Note_on_c, 13, 61, 0
21, 22080, Note_on_c, 13, 62, 55
21, 22125, Note_on_c, 13, 62, 0
21, 22140, Note_on_c, 13, 62, 85
21, 22185, Note_on_c, 13, 62, 0
21, 22200, Note_on_c, 13, 66, 85
21, 22245, Note_on_c, 13, 66, 0
21, 22260, Note_on_c, 13, 64, 85
21, 22305, Note_on_c, 13, 64, 0
21, 22320, Note_on_c, 13, 63, 85
21, 22365, Note_on_c, 13, 63, 0
21, 22380, Note_on_c, 13, 59, 85
21, 22425, Note_on_c, 13, 59, 0
21, 22440, Note_on_c, 13, 61, 85
21, 22485, Note_on_c, 13, 61, 0
21, 22500, Note_on_c, 13, 62, 85
21, 22545, Note_on_c, 13, 62, 0
21, 22560, Note_on_c, 13, 64, 85
21, 22605, Note_on_c, 13, 64, 0
21, 22620, Note_on_c, 13, 67, 85
21, 22665, Note_on_c, 13, 67, 0
21, 22680, Note_on_c, 13, 64, 85
21, 22725, Note_on_c, 13, 64, 0
21, 22740, Note_on_c, 13, 62, 85
21, 22785, Note_on_c, 13, 62, 0
21, 22800, Note_on_c, 13, 61, 85
21, 22845, Note_on_c, 13, 61, 0
21, 22860, Note_on_c, 13, 57, 85
21, 22905, Note_on_c, 13, 57, 0
21, 22920, Note_on_c, 13, 59, 85
21, 22965, Note_on_c, 13, 59, 0
21, 22980, Note_on_c, 13, 61, 85
21, 23025, Note_on_c, 13, 61, 0
21, 23040, Note_on_c, 13, 62, 85
21, 23085, Note_on_c, 13, 62, 0
21, 23100, Note_on_c, 13, 74, 85
21, 23145, Note_on_c, 13, 74, 0
21, 23160, Note_on_c, 13, 74, 85
21, 23205, Note_on_c, 13, 74, 0
21, 23220, Note_on_c, 13, 74, 85
21, 23265, Note_on_c, 13, 74, 0
21, 23280, Note_on_c, 13, 74, 85
21, 23325, Note_on_c, 13, 74, 0
21, 23340, Note_on_c, 13, 74, 85
21, 23385, Note_on_c, 13, 74, 0
21, 23400, Note_on_c, 13, 74, 85
21, 23445, Note_on_c, 13, 74, 0
21, 23460, Note_on_c, 13, 74, 85
21, 23505, Note_on_c, 13, 74, 0
21, 23520, Note_on_c, 13, 74, 85
21, 23580, Note_on_c, 13, 74, 0
21, 23580, Note_on_c, 13, 69, 85
21, 23625, Note_on_c, 13, 69, 0
21, 23640, Note_on_c, 13, 69, 85
21, 23670, Note_on_c, 13, 69, 0
21, 23700, Note_on_c, 13, 69, 85
21, 23730, Note_on_c, 13, 69, 0
21, 23760, Note_on_c, 13, 69, 85
21, 23805, Note_on_c, 13, 69, 0
21, 23820, Note_on_c, 13, 69, 85
21, 23865, Note_on_c, 13, 69, 0
21, 23880, Note_on_c, 13, 69, 85
21, 23925, Note_on_c, 13, 69, 0
21, 23940, Note_on_c, 13, 67, 85
21, 23985, Note_on_c, 13, 67, 0
21, 24000, Note_on_c, 13, 66, 85
21, 24045, Note_on_c, 13, 66, 0
21, 24060, Note_on_c, 13, 57, 85
21, 24105, Note_on_c, 13, 57, 0
21, 24120, Note_on_c, 13, 59, 85
21, 24165, Note_on_c, 13, 59, 0
21, 24180, Note_on_c, 13, 61, 85
21, 24225, Note_on_c, 13, 61, 0
21, 24240, Note_on_c, 13, 62, 85
21, 24285, Note_on_c, 13, 62, 0
21, 24300, Note_on_c, 13, 62, 85
21, 24345, Note_on_c, 13, 62, 0
21, 24360, Note_on_c, 13, 64, 85
21, 24405, Note_on_c, 13, 64, 0
21, 24420, Note_on_c, 13, 64, 85
21, 24465, Note_on_c, 13, 64, 0
21, 24480, Note_on_c, 13, 66, 85
21, 24525, Note_on_c, 13, 66, 0
21, 24540, Note_on_c, 13, 61, 85
21, 24585, Note_on_c, 13, 61, 0
21, 24600, Note_on_c, 13, 62, 85
21, 24645, Note_on_c, 13, 62, 0
21, 24660, Note_on_c, 13, 64, 85
21, 24705, Note_on_c, 13, 64, 0
21, 24720, Note_on_c, 13, 66, 85
21, 24765, Note_on_c, 13, 66, 0
21, 24780, Note_on_c, 13, 66, 85
21, 24825, Note_on_c, 13, 66, 0
21, 24840, Note_on_c, 13, 67, 85
21, 24885, Note_on_c, 13, 67, 0
21, 24900, Note_on_c, 13, 67, 85
21, 24945, Note_on_c, 13, 67, 0
21, 24960, Note_on_c, 13, 69, 85
21, 25005, Note_on_c, 13, 69, 0
21, 25020, Note_on_c, 13, 69, 85
21, 25065, Note_on_c, 13, 69, 0
21, 25080, Note_on_c, 13, 70, 85
21, 25125, Note_on_c, 13, 70, 0
21, 25140, Note_on_c, 13, 70, 85
21, 25185, Note_on_c, 13, 70, 0
21, 25200, Note_on_c, 13, 71, 85
21, 25320, Note_on_c, 13, 71, 0
21, 25440, Note_on_c, 13, 64, 55
21, 25800, Note_on_c, 13, 64, 0
21, 25800, Note_on_c, 13, 62, 55
21, 25860, Note_on_c, 13, 62, 0
21, 25860, Note_on_c, 13, 61, 55
21, 25920, Note_on_c, 13, 61, 0
21, 25920, Note_on_c, 13, 62, 55
21, 25980, Note_on_c, 13, 62, 0
21, 26040, Note_on_c, 13, 62, 55
21, 26100, Note_on_c, 13, 62, 0
21, 26160, Note_on_c, 13, 62, 55
21, 26220, Note_on_c, 13, 62, 0
21, 26400, Note_on_c, 13, 67, 85
21, 26520, Note_on_c, 13, 67, 0
21, 26580, Note_on_c, 13, 62, 85
21, 26610, Note_on_c, 13, 62, 0
21, 26640, Note_on_c, 13, 67, 85
21, 26760, Note_on_c, 13, 67, 0
21, 26820, Note_on_c, 13, 62, 85
21, 26850, Note_on_c, 13, 62, 0
21, 26880, Note_on_c, 13, 67, 85
21, 26910, Note_on_c, 13, 67, 0
21, 26940, Note_on_c, 13, 62, 85
21, 26970, Note_on_c, 13, 62, 0
21, 27000, Note_on_c, 13, 67, 85
21, 27030, Note_on_c, 13, 67, 0
21, 27060, Note_on_c, 13, 71, 85
21, 27090, Note_on_c, 13, 71, 0
21, 27120, Note_on_c, 13, 74, 85
21, 27240, Note_on_c, 13, 74, 0
21, 27360, Note_on_c, 13, 72, 85
21, 27480, Note_on_c, 13, 72, 0
21, 27540, Note_on_c, 13, 69, 85
21, 27570, Note_on_c, 13, 69, 0
21, 27600, Note_on_c, 13, 72, 85
21, 27720, Note_on_c, 13, 72, 0
21, 27780, Note_on_c, 13, 69, 85
21, 27810, Note_on_c, 13, 69, 0
21, 27840, Note_on_c, 13, 72, 85
21, 27870, Note_on_c, 13, 72, 0
21, 27900, Note_on_c, 13, 69, 85
21, 27930, Note_on_c, 13, 69, 0
21, 27960, Note_on_c, 13, 66, 85
21, 27990, Note_on_c, 13, 66, 0
21, 28020, Note_on_c, 13, 69, 85
21, 28050, Note_on_c, 13, 69, 0
21, 28080, Note_on_c, 13, 62, 85
21, 28200, Note_on_c, 13, 62, 0
21, 28320, Note_on_c, 13, 67, 85
21, 28365, Note_on_c, 13, 67, 0
21, 28380, Note_on_c, 13, 67, 85
21, 28425, Note_on_c, 13, 67, 0
21, 28440, Note_on_c, 13, 67, 85
21, 28485, Note_on_c, 13, 67, 0
21, 28500, Note_on_c, 13, 67, 85
21, 28545, Note_on_c, 13, 67, 0
21, 28560, Note_on_c, 13, 67, 85
21, 28605, Note_on_c, 13, 67, 0
21, 28620, Note_on_c, 13, 67, 85
21, 28665, Note_on_c, 13, 67, 0
21, 28680, Note_on_c, 13, 67, 85
21, 28725, Note_on_c, 13, 67, 0
21, 28740, Note_on_c, 13, 67, 85
21, 28785, Note_on_c, 13, 67, 0
21, 28800, Note_on_c, 13, 69, 85
21, 28845, Note_on_c, 13, 69, 0
21, 28860, Note_on_c, 13, 69, 85
21, 28905, Note_on_c, 13, 69, 0
21, 28920, Note_on_c, 13, 69, 85
21, 28965, Note_on_c, 13, 69, 0
21, 28980, Note_on_c, 13, 69, 85
21, 29025, Note_on_c, 13, 69, 0
21, 29040, Note_on_c, 13, 69, 85
21, 29100, Note_on_c, 13, 69, 0
21, 29100, Note_on_c, 13, 72, 85
21, 29145, Note_on_c, 13, 72, 0
21, 29160, Note_on_c, 13, 66, 85
21, 29220, Note_on_c, 13, 66, 0
21, 29220, Note_on_c, 13, 69, 85
21, 29265, Note_on_c, 13, 69, 0
21, 29280, Note_on_c, 13, 67, 85
21, 29325, Note_on_c, 13, 67, 0
21, 29340, Note_on_c, 13, 67, 85
21, 29385, Note_on_c, 13, 67, 0
21, 29400, Note_on_c, 13, 67, 85
21, 29445, Note_on_c, 13, 67, 0
21, 29460, Note_on_c, 13, 67, 85
21, 29505, Note_on_c, 13, 67, 0
21, 29520, Note_on_c, 13, 67, 85
21, 29565, Note_on_c, 13, 67, 0
21, 29580, Note_on_c, 13, 67, 85
21, 29625, Note_on_c, 13, 67, 0
21, 29640, Note_on_c, 13, 67, 85
21, 29685, Note_on_c, 13, 67, 0
21, 29700, Note_on_c, 13, 67, 85
21, 29745, Note_on_c, 13, 67, 0
21, 29760, Note_on_c, 13, 69, 85
21, 29805, Note_on_c, 13, 69, 0
21, 29820, Note_on_c, 13, 69, 85
21, 29865, Note_on_c, 13, 69, 0
21, 29880, Note_on_c, 13, 69, 85
21, 29925, Note_on_c, 13, 69, 0
21, 29940, Note_on_c, 13, 69, 85
21, 29985, Note_on_c, 13, 69, 0
21, 30000, Note_on_c, 13, 69, 85
21, 30060, Note_on_c, 13, 69, 0
21, 30060, Note_on_c, 13, 72, 85
21, 30105, Note_on_c, 13, 72, 0
21, 30120, Note_on_c, 13, 66, 85
21, 30180, Note_on_c, 13, 66, 0
21, 30180, Note_on_c, 13, 69, 85
21, 30225, Note_on_c, 13, 69, 0
21, 30240, Note_on_c, 13, 62, 85
21, 30260, Note_on_c, 13, 62, 0
21, 30270, Note_on_c, 13, 62, 85
21, 30290, Note_on_c, 13, 62, 0
21, 30300, Note_on_c, 13, 62, 85
21, 30320, Note_on_c, 13, 62, 0
21, 30330, Note_on_c, 13, 62, 85
21, 30350, Note_on_c, 13, 62, 0
21, 30360, Note_on_c, 13, 62, 85
21, 30380, Note_on_c, 13, 62, 0
21, 30390, Note_on_c, 13, 62, 85
21, 30410, Note_on_c, 13, 62, 0
21, 30420, Note_on_c, 13, 62, 85
21, 30440, Note_on_c, 13, 62, 0
21, 30450, Note_on_c, 13, 62, 85
21, 30470, Note_on_c, 13, 62, 0
21, 30480, Note_on_c, 13, 62, 85
21, 30500, Note_on_c, 13, 62, 0
21, 30510, Note_on_c, 13, 62, 85
21, 30530, Note_on_c, 13, 62, 0
21, 30540, Note_on_c, 13, 62, 85
21, 30560, Note_on_c, 13, 62, 0
21, 30570, Note_on_c, 13, 62, 85
21, 30590, Note_on_c, 13, 62, 0
21, 30600, Note_on_c, 13, 62, 85
21, 30620, Note_on_c, 13, 62, 0
21, 30630, Note_on_c, 13, 62, 85
21, 30650, Note_on_c, 13, 62, 0
21, 30660, Note_on_c, 13, 62, 85
21, 30680, Note_on_c, 13, 62, 0
21, 30690, Note_on_c, 13, 62, 85
21, 30710, Note_on_c, 13, 62, 0
21, 30720, Note_on_c, 13, 62, 85
21, 30740, Note_on_c, 13, 62, 0
21, 30750, Note_on_c, 13, 62, 85
21, 30770, Note_on_c, 13, 62, 0
21, 30780, Note_on_c, 13, 62, 85
21, 30800, Note_on_c, 13, 62, 0
21, 30810, Note_on_c, 13, 62, 85
21, 30830, Note_on_c, 13, 62, 0
21, 30840, Note_on_c, 13, 62, 85
21, 30860, Note_on_c, 13, 62, 0
21, 30870, Note_on_c, 13, 62, 85
21, 30890, Note_on_c, 13, 62, 0
21, 30900, Note_on_c, 13, 62, 85
21, 30920, Note_on_c, 13, 62, 0
21, 30930, Note_on_c, 13, 62, 85
21, 30950, Note_on_c, 13, 62, 0
21, 30960, Note_on_c, 13, 62, 85
21, 31080, Note_on_c, 13, 62, 0
21, 31680, Note_on_c, 13, 54, 47
21, 31920, Note_on_c, 13, 54, 0
21, 31920, Note_on_c, 13, 55, 47
21, 32160, Note_on_c, 13, 55, 0
21, 32160, Note_on_c, 13, 60, 47
21, 32250, Note_on_c, 13, 60, 0
21, 32280, Note_on_c, 13, 60, 47
21, 32370, Note_on_c, 13, 60, 0
21, 32400, Note_on_c, 13, 57, 47
21, 32490, Note_on_c, 13, 57, 0
21, 32520, Note_on_c, 13, 50, 47
21, 32610, Note_on_c, 13, 50, 0
21, 32640, Note_on_c, 13, 50, 47
21, 32700, Note_on_c, 13, 50, 0
21, 32760, Note_on_c, 13, 62, 47
21, 32820, Note_on_c, 13, 62, 0
21, 32880, Note_on_c, 13, 62, 47
21, 33000, Note_on_c, 13, 62, 0
21, 33600, Note_on_c, 13, 66, 47
21, 33840, Note_on_c, 13, 66, 0
21, 33840, Note_on_c, 13, 67, 47
21, 34080, Note_on_c, 13, 67, 0
21, 34080, Note_on_c, 13, 60, 47
21, 34170, Note_on_c, 13, 60, 0
21, 34200, Note_on_c, 13, 60, 47
21, 34245, Note_on_c, 13, 60, 0
21, 34260, Note_on_c, 13, 60, 47
21, 34305, Note_on_c, 13, 60, 0
21, 34320, Note_on_c, 13, 57, 47
21, 34410, Note_on_c, 13, 57, 0
21, 34440, Note_on_c, 13, 57, 47
21, 34485, Note_on_c, 13, 57, 0
21, 34500, Note_on_c, 13, 57, 47
21, 34545, Note_on_c, 13, 57, 0
21, 34560, Note_on_c, 13, 55, 92
21, 34605, Note_on_c, 13, 55, 0
21, 34620, Note_on_c, 13, 55, 71
21, 34665, Note_on_c, 13, 55, 0
21, 34680, Note_on_c, 13, 55, 71
21, 34725, Note_on_c, 13, 55, 0
21, 34740, Note_on_c, 13, 55, 71
21, 34785, Note_on_c, 13, 55, 0
21, 34800, Note_on_c, 13, 55, 55
21, 34845, Note_on_c, 13, 55, 0
21, 34860, Note_on_c, 13, 55, 50
21, 34905, Note_on_c, 13, 55, 0
21, 34920, Note_on_c, 13, 55, 50
21, 34965, Note_on_c, 13, 55, 0
21, 34980, Note_on_c, 13, 55, 50
21, 35025, Note_on_c, 13, 55, 0
21, 35040, Note_on_c, 13, 55, 91
21, 35085, Note_on_c, 13, 55, 0
21, 35100, Note_on_c, 13, 55, 65
21, 35145, Note_on_c, 13, 55, 0
21, 35160, Note_on_c, 13, 55, 65
21, 35205, Note_on_c, 13, 55, 0
21, 35220, Note_on_c, 13, 55, 65
21, 35265, Note_on_c, 13, 55, 0
21, 35280, Note_on_c, 13, 55, 46
21, 35325, Note_on_c, 13, 55, 0
21, 35340, Note_on_c, 13, 55, 46
21, 35385, Note_on_c, 13, 55, 0
21, 35400, Note_on_c, 13, 55, 46
21, 35445, Note_on_c, 13, 55, 0
21, 35460, Note_on_c, 13, 55, 46
21, 35505, Note_on_c, 13, 55, 0
21, 35520, Note_on_c, 13, 55, 59
21, 35565, Note_on_c, 13, 55, 0
21, 35580, Note_on_c, 13, 67, 41
21, 35625, Note_on_c, 13, 67, 0
21, 35640, Note_on_c, 13, 67, 46
21, 35685, Note_on_c, 13, 67, 0
21, 35700, Note_on_c, 13, 67, 49
21, 35745, Note_on_c, 13, 67, 0
21, 35760, Note_on_c, 13, 67, 53
21, 35805, Note_on_c, 13, 67, 0
21, 35820, Note_on_c, 13, 67, 56
21, 35865, Note_on_c, 13, 67, 0
21, 35880, Note_on_c, 13, 69, 61
21, 35925, Note_on_c, 13, 69, 0
21, 35940, Note_on_c, 13, 69, 64
21, 35985, Note_on_c, 13, 69, 0
21, 36000, Note_on_c, 13, 67, 68
21, 36045, Note_on_c, 13, 67, 0
21, 36060, Note_on_c, 13, 67, 71
21, 36105, Note_on_c, 13, 67, 0
21, 36120, Note_on_c, 13, 66, 76
21, 36165, Note_on_c, 13, 66, 0
21, 36180, Note_on_c, 13, 66, 79
21, 36225, Note_on_c, 13, 66, 0
21, 36240, Note_on_c, 13, 67, 82
21, 36285, Note_on_c, 13, 67, 0
21, 36300, Note_on_c, 13, 67, 82
21, 36345, Note_on_c, 13, 67, 0
21, 36360, Note_on_c, 13, 64, 82
21, 36405, Note_on_c, 13, 64, 0
21, 36420, Note_on_c, 13, 64, 82
21, 36465, Note_on_c, 13, 64, 0
21, 36480, Note_on_c, 13, 69, 85
21, 36480, Note_on_c, 13, 62, 85
21, 36500, Note_on_c, 13, 62, 0
21, 36500, Note_on_c, 13, 69, 0
21, 36510, Note_on_c, 13, 69, 85
21, 36510, Note_on_c, 13, 62, 85
21, 36530, Note_on_c, 13, 62, 0
21, 36530, Note_on_c, 13, 69, 0
21, 36540, Note_on_c, 13, 69, 85
21, 36540, Note_on_c, 13, 62, 85
21, 36560, Note_on_c, 13, 62, 0
21, 36560, Note_on_c, 13, 69, 0
21, 36570, Note_on_c, 13, 69, 85
21, 36570, Note_on_c, 13, 62, 85
21, 36590, Note_on_c, 13, 62, 0
21, 36590, Note_on_c, 13, 69, 0
21, 36600, Note_on_c, 13, 69, 85
21, 36600, Note_on_c, 13, 62, 85
21, 36620, Note_on_c, 13, 62, 0
21, 36620, Note_on_c, 13, 69, 0
21, 36630, Note_on_c, 13, 69, 85
21, 36630, Note_on_c, 13, 62, 85
21, 36650, Note_on_c, 13, 62, 0
21, 36650, Note_on_c, 13, 69, 0
21, 36660, Note_on_c, 13, 69, 85
21, 36660, Note_on_c, 13, 62, 85
21, 36680, Note_on_c, 13, 62, 0
21, 36680, Note_on_c, 13, 69, 0
21, 36690, Note_on_c, 13, 69, 85
21, 36690, Note_on_c, 13, 62, 85
21, 36710, Note_on_c, 13, 62, 0
21, 36710, Note_on_c, 13, 69, 0
21, 36720, Note_on_c, 13, 69, 85
21, 36720, Note_on_c, 13, 64, 85
21, 36740, Note_on_c, 13, 64, 0
21, 36740, Note_on_c, 13, 69, 0
21, 36750, Note_on_c, 13, 69, 85
21, 36750, Note_on_c, 13, 64, 85
21, 36770, Note_on_c, 13, 64, 0
21, 36770, Note_on_c, 13, 69, 0
21, 36780, Note_on_c, 13, 69, 85
21, 36780, Note_on_c, 13, 64, 85
21, 36800, Note_on_c, 13, 64, 0
21, 36800, Note_on_c, 13, 69, 0
21, 36810, Note_on_c, 13, 69, 85
21, 36810, Note_on_c, 13, 64, 85
21, 36830, Note_on_c, 13, 64, 0
21, 36830, Note_on_c, 13, 69, 0
21, 36840, Note_on_c, 13, 69, 85
21, 36840, Note_on_c, 13, 64, 85
21, 36860, Note_on_c, 13, 64, 0
21, 36860, Note_on_c, 13, 69, 0
21, 36870, Note_on_c, 13, 69, 85
21, 36870, Note_on_c, 13, 64, 85
21, 36890, Note_on_c, 13, 64, 0
21, 36890, Note_on_c, 13, 69, 0
21, 36900, Note_on_c, 13, 69, 85
21, 36900, Note_on_c, 13, 64, 85
21, 36920, Note_on_c, 13, 64, 0
21, 36920, Note_on_c, 13, 69, 0
21, 36930, Note_on_c, 13, 69, 85
21, 36930, Note_on_c, 13, 64, 85
21, 36950, Note_on_c, 13, 64, 0
21, 36950, Note_on_c, 13, 69, 0
21, 36960, Note_on_c, 13, 69, 85
21, 36960, Note_on_c, 13, 62, 85
21, 36980, Note_on_c, 13, 62, 0
21, 36980, Note_on_c, 13, 69, 0
21, 36990, Note_on_c, 13, 69, 85
21, 36990, Note_on_c, 13, 62, 85
21, 37010, Note_on_c, 13, 62, 0
21, 37010, Note_on_c, 13, 69, 0
21, 37020, Note_on_c, 13, 69, 85
21, 37020, Note_on_c, 13, 62, 85
21, 37040, Note_on_c, 13, 62, 0
21, 37040, Note_on_c, 13, 69, 0
21, 37050, Note_on_c, 13, 69, 85
21, 37050, Note_on_c, 13, 62, 85
21, 37070, Note_on_c, 13, 62, 0
21, 37070, Note_on_c, 13, 69, 0
21, 37080, Note_on_c, 13, 69, 85
21, 37080, Note_on_c, 13, 62, 85
21, 37100, Note_on_c, 13, 62, 0
21, 37100, Note_on_c, 13, 69, 0
21, 37110, Note_on_c, 13, 69, 85
21, 37110, Note_on_c, 13, 62, 85
21, 37130, Note_on_c, 13, 62, 0
21, 37130, Note_on_c, 13, 69, 0
21, 37140, Note_on_c, 13, 69, 85
21, 37140, Note_on_c, 13, 62, 85
21, 37160, Note_on_c, 13, 62, 0
21, 37160, Note_on_c, 13, 69, 0
21, 37170, Note_on_c, 13, 69, 85
21, 37170, Note_on_c, 13, 62, 85
21, 37190, Note_on_c, 13, 62, 0
21, 37190, Note_on_c, 13, 69, 0
21, 37200, Note_on_c, 13, 69, 85
21, 37200, Note_on_c, 13, 64, 85
21, 37220, Note_on_c, 13, 64, 0
21, 37220, Note_on_c, 13, 69, 0
21, 37230, Note_on_c, 13, 69, 85
21, 37230, Note_on_c, 13, 64, 85
21, 37250, Note_on_c, 13, 64, 0
21, 37250, Note_on_c, 13, 69, 0
21, 37260, Note_on_c, 13, 69, 85
21, 37260, Note_on_c, 13, 64, 85
21, 37280, Note_on_c, 13, 64, 0
21, 37280, Note_on_c, 13, 69, 0
21, 37290, Note_on_c, 13, 69, 85
21, 37290, Note_on_c, 13, 64, 85
21, 37310, Note_on_c, 13, 64, 0
21, 37310, Note_on_c, 13, 69, 0
21, 37320, Note_on_c, 13, 69, 85
21, 37320, Note_on_c, 13, 64, 85
21, 37340, Note_on_c, 13, 64, 0
21, 37340, Note_on_c, 13, 69, 0
21, 37350, Note_on_c, 13, 69, 85
21, 37350, Note_on_c, 13, 64, 85
21, 37370, Note_on_c, 13, 64, 0
21, 37370, Note_on_c, 13, 69, 0
21, 37380, Note_on_c, 13, 69, 85
21, 37380, Note_on_c, 13, 64, 85
21, 37400, Note_on_c, 13, 64, 0
21, 37400, Note_on_c, 13, 69, 0
21, 37410, Note_on_c, 13, 69, 85
21, 37410, Note_on_c, 13, 64, 85
21, 37430, Note_on_c, 13, 64, 0
21, 37430, Note_on_c, 13, 69, 0
21, 37440, Note_on_c, 13, 62, 85
21, 37485, Note_on_c, 13, 62, 0
21, 37500, Note_on_c, 13, 64, 85
21, 37545, Note_on_c, 13, 64, 0
21, 37560, Note_on_c, 13, 66, 85
21, 37605, Note_on_c, 13, 66, 0
21, 37620, Note_on_c, 13, 64, 85
21, 37665, Note_on_c, 13, 64, 0
21, 37680, Note_on_c, 13, 62, 85
21, 37725, Note_on_c, 13, 62, 0
21, 37740, Note_on_c, 13, 64, 85
21, 37785, Note_on_c, 13, 64, 0
21, 37800, Note_on_c, 13, 66, 85
21, 37845, Note_on_c, 13, 66, 0
21, 37860, Note_on_c, 13, 62, 85
21, 37905, Note_on_c, 13, 62, 0
21, 37920, Note_on_c, 13, 71, 85
21, 37965, Note_on_c, 13, 71, 0
21, 37980, Note_on_c, 13, 69, 85
21, 38025, Note_on_c, 13, 69, 0
21, 38040, Note_on_c, 13, 67, 85
21, 38085, Note_on_c, 13, 67, 0
21, 38100, Note_on_c, 13, 69, 85
21, 38145, Note_on_c, 13, 69, 0
21, 38160, Note_on_c, 13, 71, 85
21, 38205, Note_on_c, 13, 71, 0
21, 38220, Note_on_c, 13, 69, 85
21, 38265, Note_on_c, 13, 69, 0
21, 38280, Note_on_c, 13, 68, 85
21, 38325, Note_on_c, 13, 68, 0
21, 38340, Note_on_c, 13, 71, 85
21, 38385, Note_on_c, 13, 71, 0
21, 38400, Note_on_c, 13, 69, 85
21, 38445, Note_on_c, 13, 69, 0
21, 38460, Note_on_c, 13, 69, 85
21, 38505, Note_on_c, 13, 69, 0
21, 38520, Note_on_c, 13, 69, 85
21, 38565, Note_on_c, 13, 69, 0
21, 38580, Note_on_c, 13, 69, 85
21, 38625, Note_on_c, 13, 69, 0
21, 38640, Note_on_c, 13, 69, 85
21, 38685, Note_on_c, 13, 69, 0
21, 38700, Note_on_c, 13, 69, 85
21, 38745, Note_on_c, 13, 69, 0
21, 38760, Note_on_c, 13, 69, 85
21, 38805, Note_on_c, 13, 69, 0
21, 38820, Note_on_c, 13, 69, 85
21, 38865, Note_on_c, 13, 69, 0
21, 38880, Note_on_c, 13, 69, 85
21, 38925, Note_on_c, 13, 69, 0
21, 38940, Note_on_c, 13, 57, 85
21, 38985, Note_on_c, 13, 57, 0
21, 39000, Note_on_c, 13, 57, 85
21, 39045, Note_on_c, 13, 57, 0
21, 39060, Note_on_c, 13, 57, 85
21, 39105, Note_on_c, 13, 57, 0
21, 39120, Note_on_c, 13, 57, 85
21, 39240, Note_on_c, 13, 57, 0
21, 39720, Note_on_c, 13, 66, 55
21, 39780, Note_on_c, 13, 66, 0
21, 39840, Note_on_c, 13, 59, 55
21, 39900, Note_on_c, 13, 59, 0
21, 39960, Note_on_c, 13, 67, 55
21, 40020, Note_on_c, 13, 67, 0
21, 40080, Note_on_c, 13, 64, 55
21, 40140, Note_on_c, 13, 64, 0
21, 40200, Note_on_c, 13, 61, 55
21, 40260, Note_on_c, 13, 61, 0
21, 40440, Note_on_c, 13, 64, 55
21, 40560, Note_on_c, 13, 64, 0
21, 40560, Note_on_c, 13, 62, 55
21, 40620, Note_on_c, 13, 62, 0
21, 40680, Note_on_c, 13, 64, 55
21, 40740, Note_on_c, 13, 64, 0
21, 40800, Note_on_c, 13, 62, 55
21, 41040, Note_on_c, 13, 62, 0
21, 41040, Note_on_c, 13, 61, 55
21, 41160, Note_on_c, 13, 61, 0
21, 41400, Note_on_c, 13, 61, 55
21, 41520, Note_on_c, 13, 61, 0
21, 41520, Note_on_c, 13, 62, 55
21, 41580, Note_on_c, 13, 62, 0
21, 41640, Note_on_c, 13, 66, 55
21, 41700, Note_on_c, 13, 66, 0
21, 41760, Note_on_c, 13, 59, 55
21, 41820, Note_on_c, 13, 59, 0
21, 41880, Note_on_c, 13, 55, 55
21, 41940, Note_on_c, 13, 55, 0
21, 42000, Note_on_c, 13, 52, 55
21, 42120, Note_on_c, 13, 52, 0
21, 42180, Note_on_c, 13, 64, 55
21, 42225, Note_on_c, 13, 64, 0
21, 42240, Note_on_c, 13, 64, 55
21, 42300, Note_on_c, 13, 64, 0
21, 42300, Note_on_c, 13, 62, 55
21, 42360, Note_on_c, 13, 62, 0
21, 42720, Note_on_c, 13, 62, 55
21, 42765, Note_on_c, 13, 62, 0
21, 42780, Note_on_c, 13, 62, 55
21, 42825, Note_on_c, 13, 62, 0
21, 42840, Note_on_c, 13, 64, 55
21, 42885, Note_on_c, 13, 64, 0
21, 42900, Note_on_c, 13, 64, 55
21, 42945, Note_on_c, 13, 64, 0
21, 42960, Note_on_c, 13, 66, 55
21, 43005, Note_on_c, 13, 66, 0
21, 43020, Note_on_c, 13, 66, 55
21, 43065, Note_on_c, 13, 66, 0
21, 43080, Note_on_c, 13, 62, 55
21, 43125, Note_on_c, 13, 62, 0
21, 43140, Note_on_c, 13, 62, 55
21, 43185, Note_on_c, 13, 62, 0
21, 43200, Note_on_c, 13, 61, 55
21, 43245, Note_on_c, 13, 61, 0
21, 43260, Note_on_c, 13, 61, 55
21, 43305, Note_on_c, 13, 61, 0
21, 43320, Note_on_c, 13, 62, 55
21, 43365, Note_on_c, 13, 62, 0
21, 43380, Note_on_c, 13, 62, 55
21, 43425, Note_on_c, 13, 62, 0
21, 43440, Note_on_c, 13, 64, 55
21, 43485, Note_on_c, 13, 64, 0
21, 43500, Note_on_c, 13, 64, 55
21, 43545, Note_on_c, 13, 64, 0
21, 43560, Note_on_c, 13, 61, 55
21, 43605, Note_on_c, 13, 61, 0
21, 43620, Note_on_c, 13, 61, 55
21, 43665, Note_on_c, 13, 61, 0
21, 43680, Note_on_c, 13, 62, 55
21, 43725, Note_on_c, 13, 62, 0
21, 43740, Note_on_c, 13, 62, 55
21, 43785, Note_on_c, 13, 62, 0
21, 43800, Note_on_c, 13, 64, 55
21, 43845, Note_on_c, 13, 64, 0
21, 43860, Note_on_c, 13, 64, 55
21, 43905, Note_on_c, 13, 64, 0
21, 43920, Note_on_c, 13, 66, 55
21, 43965, Note_on_c, 13, 66, 0
21, 43980, Note_on_c, 13, 66, 55
21, 44025, Note_on_c, 13, 66, 0
21, 44040, Note_on_c, 13, 62, 55
21, 44085, Note_on_c, 13, 62, 0
21, 44100, Note_on_c, 13, 62, 55
21, 44145, Note_on_c, 13, 62, 0
21, 44160, Note_on_c, 13, 61, 55
21, 44205, Note_on_c, 13, 61, 0
21, 44220, Note_on_c, 13, 61, 55
21, 44265, Note_on_c, 13, 61, 0
21, 44280, Note_on_c, 13, 62, 55
21, 44325, Note_on_c, 13, 62, 0
21, 44340, Note_on_c, 13, 62, 55
21, 44385, Note_on_c, 13, 62, 0
21, 44400, Note_on_c, 13, 64, 55
21, 44445, Note_on_c, 13, 64, 0
21, 44460, Note_on_c, 13, 64, 55
21, 44505, Note_on_c, 13, 64, 0
21, 44520, Note_on_c, 13, 61, 55
21, 44565, Note_on_c, 13, 61, 0
21, 44580, Note_on_c, 13, 61, 55
21, 44625, Note_on_c, 13, 61, 0
21, 44640, Note_on_c, 13, 62, 55
21, 44685, Note_on_c, 13, 62, 0
21, 44700, Note_on_c, 13, 62, 55
21, 44745, Note_on_c, 13, 62, 0
21, 44760, Note_on_c, 13, 66, 55
21, 44805, Note_on_c, 13, 66, 0
21, 44820, Note_on_c, 13, 64, 55
21, 44865, Note_on_c, 13, 64, 0
21, 44880, Note_on_c, 13, 63, 55
21, 44925, Note_on_c, 13, 63, 0
21, 44940, Note_on_c, 13, 59, 55
21, 44985, Note_on_c, 13, 59, 0
21, 45000, Note_on_c, 13, 61, 55
21, 45045, Note_on_c, 13, 61, 0
21, 45060, Note_on_c, 13, 62, 55
21, 45105, Note_on_c, 13, 62, 0
21, 45120, Note_on_c, 13, 64, 85
21, 45165, Note_on_c, 13, 64, 0
21, 45180, Note_on_c, 13, 67, 85
21, 45225, Note_on_c, 13, 67, 0
21, 45240, Note_on_c, 13, 64, 85
21, 45285, Note_on_c, 13, 64, 0
21, 45300, Note_on_c, 13, 62, 85
21, 45345, Note_on_c, 13, 62, 0
21, 45360, Note_on_c, 13, 61, 85
21, 45405, Note_on_c, 13, 61, 0
21, 45420, Note_on_c, 13, 57, 55
21, 45465, Note_on_c, 13, 57, 0
21, 45480, Note_on_c, 13, 59, 85
21, 45525, Note_on_c, 13, 59, 0
21, 45540, Note_on_c, 13, 61, 85
21, 45585, Note_on_c, 13, 61, 0
21, 45600, Note_on_c, 13, 62, 85
21, 45645, Note_on_c, 13, 62, 0
21, 45660, Note_on_c, 13, 74, 85
21, 45705, Note_on_c, 13, 74, 0
21, 45720, Note_on_c, 13, 74, 85
21, 45765, Note_on_c, 13, 74, 0
21, 45780, Note_on_c, 13, 74, 85
21, 45825, Note_on_c, 13, 74, 0
21, 45840, Note_on_c, 13, 74, 85
21, 45885, Note_on_c, 13, 74, 0
21, 45900, Note_on_c, 13, 74, 85
21, 45945, Note_on_c, 13, 74, 0
21, 45960, Note_on_c, 13, 74, 85
21, 46005, Note_on_c, 13, 74, 0
21, 46020, Note_on_c, 13, 74, 85
21, 46065, Note_on_c, 13, 74, 0
21, 46080, Note_on_c, 13, 74, 85
21, 46140, Note_on_c, 13, 74, 0
21, 46140, Note_on_c, 13, 69, 85
21, 46185, Note_on_c, 13, 69, 0
21, 46200, Note_on_c, 13, 69, 85
21, 46230, Note_on_c, 13, 69, 0
21, 46260, Note_on_c, 13, 69, 85
21, 46290, Note_on_c, 13, 69, 0
21, 46320, Note_on_c, 13, 69, 85
21, 46365, Note_on_c, 13, 69, 0
21, 46380, Note_on_c, 13, 69, 85
21, 46425, Note_on_c, 13, 69, 0
21, 46440, Note_on_c, 13, 69, 85
21, 46485, Note_on_c, 13, 69, 0
21, 46500, Note_on_c, 13, 67, 85
21, 46545, Note_on_c, 13, 67, 0
21, 46560, Note_on_c, 13, 62, 85
21, 46605, Note_on_c, 13, 62, 0
21, 46620, Note_on_c, 13, 62, 53
21, 46665, Note_on_c, 13, 62, 0
21, 46680, Note_on_c, 13, 64, 53
21, 46725, Note_on_c, 13, 64, 0
21, 46740, Note_on_c, 13, 64, 53
21, 46785, Note_on_c, 13, 64, 0
21, 46800, Note_on_c, 13, 66, 53
21, 46845, Note_on_c, 13, 66, 0
21, 46860, Note_on_c, 13, 66, 53
21, 46905, Note_on_c, 13, 66, 0
21, 46920, Note_on_c, 13, 62, 53
21, 46965, Note_on_c, 13, 62, 0
21, 46980, Note_on_c, 13, 62, 53
21, 47025, Note_on_c, 13, 62, 0
21, 47040, Note_on_c, 13, 61, 55
21, 47085, Note_on_c, 13, 61, 0
21, 47100, Note_on_c, 13, 61, 55
21, 47145, Note_on_c, 13, 61, 0
21, 47160, Note_on_c, 13, 62, 55
21, 47205, Note_on_c, 13, 62, 0
21, 47220, Note_on_c, 13, 62, 55
21, 47265, Note_on_c, 13, 62, 0
21, 47280, Note_on_c, 13, 64, 55
21, 47325, Note_on_c, 13, 64, 0
21, 47340, Note_on_c, 13, 64, 55
21, 47385, Note_on_c, 13, 64, 0
21, 47400, Note_on_c, 13, 61, 55
21, 47445, Note_on_c, 13, 61, 0
21, 47460, Note_on_c, 13, 61, 55
21, 47505, Note_on_c, 13, 61, 0
21, 47520, Note_on_c, 13, 62, 55
21, 47565, Note_on_c, 13, 62, 0
21, 47580, Note_on_c, 13, 62, 55
21, 47625, Note_on_c, 13, 62, 0
21, 47640, Note_on_c, 13, 64, 55
21, 47685, Note_on_c, 13, 64, 0
21, 47700, Note_on_c, 13, 64, 55
21, 47745, Note_on_c, 13, 64, 0
21, 47760, Note_on_c, 13, 66, 55
21, 47805, Note_on_c, 13, 66, 0
21, 47820, Note_on_c, 13, 66, 55
21, 47865, Note_on_c, 13, 66, 0
21, 47880, Note_on_c, 13, 62, 55
21, 47925, Note_on_c, 13, 62, 0
21, 47940, Note_on_c, 13, 62, 55
21, 47985, Note_on_c, 13, 62, 0
21, 48000, Note_on_c, 13, 61, 55
21, 48045, Note_on_c, 13, 61, 0
21, 48060, Note_on_c, 13, 61, 55
21, 48105, Note_on_c, 13, 61, 0
21, 48120, Note_on_c, 13, 62, 55
21, 48165, Note_on_c, 13, 62, 0
21, 48180, Note_on_c, 13, 62, 55
21, 48225, Note_on_c, 13, 62, 0
21, 48240, Note_on_c, 13, 64, 55
21, 48285, Note_on_c, 13, 64, 0
21, 48300, Note_on_c, 13, 64, 55
21, 48345, Note_on_c, 13, 64, 0
21, 48360, Note_on_c, 13, 61, 55
21, 48405, Note_on_c, 13, 61, 0
21, 48420, Note_on_c, 13, 61, 55
21, 48465, Note_on_c, 13, 61, 0
21, 48480, Note_on_c, 13, 62, 55
21, 48525, Note_on_c, 13, 62, 0
21, 48540, Note_on_c, 13, 62, 85
21, 48585, Note_on_c, 13, 62, 0
21, 48600, Note_on_c, 13, 66, 85
21, 48645, Note_on_c, 13, 66, 0
21, 48660, Note_on_c, 13, 64, 85
21, 48705, Note_on_c, 13, 64, 0
21, 48720, Note_on_c, 13, 63, 85
21, 48765, Note_on_c, 13, 63, 0
21, 48780, Note_on_c, 13, 59, 85
21, 48825, Note_on_c, 13, 59, 0
21, 48840, Note_on_c, 13, 61, 85
21, 48885, Note_on_c, 13, 61, 0
21, 48900, Note_on_c, 13, 62, 85
21, 48945, Note_on_c, 13, 62, 0
21, 48960, Note_on_c, 13, 64, 85
21, 49005, Note_on_c, 13, 64, 0
21, 49020, Note_on_c, 13, 67, 85
21, 49065, Note_on_c, 13, 67, 0
21, 49080, Note_on_c, 13, 64, 85
21, 49125, Note_on_c, 13, 64, 0
21, 49140, Note_on_c, 13, 62, 85
21, 49185, Note_on_c, 13, 62, 0
21, 49200, Note_on_c, 13, 61, 85
21, 49245, Note_on_c, 13, 61, 0
21, 49260, Note_on_c, 13, 57, 85
21, 49305, Note_on_c, 13, 57, 0
21, 49320, Note_on_c, 13, 59, 85
21, 49365, Note_on_c, 13, 59, 0
21, 49380, Note_on_c, 13, 61, 85
21, 49425, Note_on_c, 13, 61, 0
21, 49440, Note_on_c, 13, 62, 85
21, 49485, Note_on_c, 13, 62, 0
21, 49500, Note_on_c, 13, 74, 85
21, 49545, Note_on_c, 13, 74, 0
21, 49560, Note_on_c, 13, 74, 85
21, 49605, Note_on_c, 13, 74, 0
21, 49620, Note_on_c, 13, 74, 85
21, 49665, Note_on_c, 13, 74, 0
21, 49680, Note_on_c, 13, 74, 85
21, 49725, Note_on_c, 13, 74, 0
21, 49740, Note_on_c, 13, 74, 85
21, 49785, Note_on_c, 13, 74, 0
21, 49800, Note_on_c, 13, 74, 85
21, 49845, Note_on_c, 13, 74, 0
21, 49860, Note_on_c, 13, 74, 85
21, 49905, Note_on_c, 13, 74, 0
21, 49920, Note_on_c, 13, 74, 85
21, 49980, Note_on_c, 13, 74, 0
21, 49980, Note_on_c, 13, 69, 85
21, 50025, Note_on_c, 13, 69, 0
21, 50040, Note_on_c, 13, 69, 85
21, 50070, Note_on_c, 13, 69, 0
21, 50100, Note_on_c, 13, 69, 85
21, 50130, Note_on_c, 13, 69, 0
21, 50160, Note_on_c, 13, 69, 85
21, 50205, Note_on_c, 13, 69, 0
21, 50220, Note_on_c, 13, 69, 85
21, 50265, Note_on_c, 13, 69, 0
21, 50280, Note_on_c, 13, 69, 85
21, 50325, Note_on_c, 13, 69, 0
21, 50340, Note_on_c, 13, 67, 85
21, 50385, Note_on_c, 13, 67, 0
21, 50400, Note_on_c, 13, 66, 85
21, 50445, Note_on_c, 13, 66, 0
21, 50460, Note_on_c, 13, 57, 85
21, 50505, Note_on_c, 13, 57, 0
21, 50520, Note_on_c, 13, 59, 85
21, 50565, Note_on_c, 13, 59, 0
21, 50580, Note_on_c, 13, 61, 85
21, 50625, Note_on_c, 13, 61, 0
21, 50640, Note_on_c, 13, 62, 85
21, 50685, Note_on_c, 13, 62, 0
21, 50700, Note_on_c, 13, 62, 85
21, 50745, Note_on_c, 13, 62, 0
21, 50760, Note_on_c, 13, 64, 85
21, 50805, Note_on_c, 13, 64, 0
21, 50820, Note_on_c, 13, 64, 85
21, 50865, Note_on_c, 13, 64, 0
21, 50880, Note_on_c, 13, 66, 85
21, 50925, Note_on_c, 13, 66, 0
21, 50940, Note_on_c, 13, 61, 85
21, 50985, Note_on_c, 13, 61, 0
21, 51000, Note_on_c, 13, 62, 85
21, 51045, Note_on_c, 13, 62, 0
21, 51060, Note_on_c, 13, 64, 85
21, 51105, Note_on_c, 13, 64, 0
21, 51120, Note_on_c, 13, 66, 85
21, 51165, Note_on_c, 13, 66, 0
21, 51180, Note_on_c, 13, 66, 85
21, 51225, Note_on_c, 13, 66, 0
21, 51240, Note_on_c, 13, 67, 85
21, 51285, Note_on_c, 13, 67, 0
21, 51300, Note_on_c, 13, 67, 85
21, 51345, Note_on_c, 13, 67, 0
21, 51360, Note_on_c, 13, 69, 85
21, 51405, Note_on_c, 13, 69, 0
21, 51420, Note_on_c, 13, 69, 85
21, 51465, Note_on_c, 13, 69, 0
21, 51480, Note_on_c, 13, 70, 85
21, 51525, Note_on_c, 13, 70, 0
21, 51540, Note_on_c, 13, 70, 85
21, 51585, Note_on_c, 13, 70, 0
21, 51600, Note_on_c, 13, 71, 85
21, 51720, Note_on_c, 13, 71, 0
21, 51840, Note_on_c, 13, 64, 55
21, 52200, Note_on_c, 13, 64, 0
21, 52200, Note_on_c, 13, 62, 55
21, 52260, Note_on_c, 13, 62, 0
21, 52260, Note_on_c, 13, 61, 55
21, 52320, Note_on_c, 13, 61, 0
21, 52320, Note_on_c, 13, 62, 55
21, 52380, Note_on_c, 13, 62, 0
21, 52440, Note_on_c, 13, 62, 55
21, 52500, Note_on_c, 13, 62, 0
21, 52560, Note_on_c, 13, 62, 55
21, 52620, Note_on_c, 13, 62, 0
21, 52800, Note_on_c, 13, 62, 89
21, 52920, Note_on_c, 13, 62, 0
21, 52980, Note_on_c, 13, 57, 89
21, 53025, Note_on_c, 13, 57, 0
21, 53040, Note_on_c, 13, 62, 89
21, 53160, Note_on_c, 13, 62, 0
21, 53220, Note_on_c, 13, 57, 89
21, 53265, Note_on_c, 13, 57, 0
21, 53280, Note_on_c, 13, 62, 89
21, 53325, Note_on_c, 13, 62, 0
21, 53340, Note_on_c, 13, 57, 89
21, 53385, Note_on_c, 13, 57, 0
21, 53400, Note_on_c, 13, 62, 89
21, 53445, Note_on_c, 13, 62, 0
21, 53460, Note_on_c, 13, 66, 89
21, 53505, Note_on_c, 13, 66, 0
21, 53520, Note_on_c, 13, 69, 89
21, 53640, Note_on_c, 13, 69, 0
21, 53760, Note_on_c, 13, 69, 89
21, 53880, Note_on_c, 13, 69, 0
21, 53940, Note_on_c, 13, 66, 89
21, 53985, Note_on_c, 13, 66, 0
21, 54000, Note_on_c, 13, 69, 89
21, 54120, Note_on_c, 13, 69, 0
21, 54180, Note_on_c, 13, 66, 89
21, 54225, Note_on_c, 13, 66, 0
21, 54240, Note_on_c, 13, 69, 89
21, 54285, Note_on_c, 13, 69, 0
21, 54300, Note_on_c, 13, 66, 89
21, 54345, Note_on_c, 13, 66, 0
21, 54360, Note_on_c, 13, 63, 89
21, 54405, Note_on_c, 13, 63, 0
21, 54420, Note_on_c, 13, 66, 89
21, 54465, Note_on_c, 13, 66, 0
21, 54480, Note_on_c, 13, 59, 89
21, 54600, Note_on_c, 13, 59, 0
21, 54720, Note_on_c, 13, 60, 55
21, 54765, Note_on_c, 13, 60, 0
21, 54780, Note_on_c, 13, 60, 55
21, 54825, Note_on_c, 13, 60, 0
21, 54840, Note_on_c, 13, 62, 55
21, 54885, Note_on_c, 13, 62, 0
21, 54900, Note_on_c, 13, 62, 55
21, 54945, Note_on_c, 13, 62, 0
21, 54960, Note_on_c, 13, 64, 55
21, 55005, Note_on_c, 13, 64, 0
21, 55020, Note_on_c, 13, 64, 55
21, 55065, Note_on_c, 13, 64, 0
21, 55080, Note_on_c, 13, 60, 55
21, 55125, Note_on_c, 13, 60, 0
21, 55140, Note_on_c, 13, 60, 55
21, 55185, Note_on_c, 13, 60, 0
21, 55200, Note_on_c, 13, 59, 55
21, 55245, Note_on_c, 13, 59, 0
21, 55260, Note_on_c, 13, 59, 55
21, 55305, Note_on_c, 13, 59, 0
21, 55320, Note_on_c, 13, 60, 55
21, 55365, Note_on_c, 13, 60, 0
21, 55380, Note_on_c, 13, 60, 55
21, 55425, Note_on_c, 13, 60, 0
21, 55440, Note_on_c, 13, 62, 55
21, 55485, Note_on_c, 13, 62, 0
21, 55500, Note_on_c, 13, 62, 55
21, 55545, Note_on_c, 13, 62, 0
21, 55560, Note_on_c, 13, 59, 55
21, 55605, Note_on_c, 13, 59, 0
21, 55620, Note_on_c, 13, 59, 55
21, 55665, Note_on_c, 13, 59, 0
21, 55680, Note_on_c, 13, 60, 55
21, 55725, Note_on_c, 13, 60, 0
21, 55740, Note_on_c, 13, 60, 55
21, 55785, Note_on_c, 13, 60, 0
21, 55800, Note_on_c, 13, 62, 55
21, 55845, Note_on_c, 13, 62, 0
21, 55860, Note_on_c, 13, 62, 55
21, 55905, Note_on_c, 13, 62, 0
21, 55920, Note_on_c, 13, 64, 55
21, 55965, Note_on_c, 13, 64, 0
21, 55980, Note_on_c, 13, 64, 55
21, 56025, Note_on_c, 13, 64, 0
21, 56040, Note_on_c, 13, 60, 55
21, 56085, Note_on_c, 13, 60, 0
21, 56100, Note_on_c, 13, 60, 55
21, 56145, Note_on_c, 13, 60, 0
21, 56160, Note_on_c, 13, 59, 55
21, 56205, Note_on_c, 13, 59, 0
21, 56220, Note_on_c, 13, 59, 55
21, 56265, Note_on_c, 13, 59, 0
21, 56280, Note_on_c, 13, 60, 55
21, 56325, Note_on_c, 13, 60, 0
21, 56340, Note_on_c, 13, 60, 55
21, 56385, Note_on_c, 13, 60, 0
21, 56400, Note_on_c, 13, 62, 55
21, 56445, Note_on_c, 13, 62, 0
21, 56460, Note_on_c, 13, 62, 55
21, 56505, Note_on_c, 13, 62, 0
21, 56520, Note_on_c, 13, 59, 55
21, 56565, Note_on_c, 13, 59, 0
21, 56580, Note_on_c, 13, 59, 55
21, 56625, Note_on_c, 13, 59, 0
21, 56640, Note_on_c, 13, 60, 55
21, 56685, Note_on_c, 13, 60, 0
21, 56700, Note_on_c, 13, 60, 55
21, 56745, Note_on_c, 13, 60, 0
21, 56760, Note_on_c, 13, 62, 55
21, 56805, Note_on_c, 13, 62, 0
21, 56820, Note_on_c, 13, 62, 55
21, 56865, Note_on_c, 13, 62, 0
21, 56880, Note_on_c, 13, 64, 55
21, 56925, Note_on_c, 13, 64, 0
21, 56940, Note_on_c, 13, 64, 55
21, 56985, Note_on_c, 13, 64, 0
21, 57000, Note_on_c, 13, 60, 55
21, 57045, Note_on_c, 13, 60, 0
21, 57060, Note_on_c, 13, 60, 55
21, 57105, Note_on_c, 13, 60, 0
21, 57120, Note_on_c, 13, 59, 55
21, 57165, Note_on_c, 13, 59, 0
21, 57180, Note_on_c, 13, 59, 55
21, 57225, Note_on_c, 13, 59, 0
21, 57240, Note_on_c, 13, 60, 55
21, 57285, Note_on_c, 13, 60, 0
21, 57300, Note_on_c, 13, 60, 55
21, 57345, Note_on_c, 13, 60, 0
21, 57360, Note_on_c, 13, 62, 55
21, 57405, Note_on_c, 13, 62, 0
21, 57420, Note_on_c, 13, 62, 55
21, 57465, Note_on_c, 13, 62, 0
21, 57480, Note_on_c, 13, 59, 55
21, 57525, Note_on_c, 13, 59, 0
21, 57540, Note_on_c, 13, 59, 55
21, 57585, Note_on_c, 13, 59, 0
21, 57600, Note_on_c, 13, 57, 55
21, 57645, Note_on_c, 13, 57, 0
21, 57660, Note_on_c, 13, 57, 55
21, 57705, Note_on_c, 13, 57, 0
21, 57720, Note_on_c, 13, 59, 55
21, 57765, Note_on_c, 13, 59, 0
21, 57780, Note_on_c, 13, 59, 55
21, 57825, Note_on_c, 13, 59, 0
21, 57840, Note_on_c, 13, 60, 55
21, 57885, Note_on_c, 13, 60, 0
21, 57900, Note_on_c, 13, 60, 55
21, 57945, Note_on_c, 13, 60, 0
21, 57960, Note_on_c, 13, 57, 55
21, 58005, Note_on_c, 13, 57, 0
21, 58020, Note_on_c, 13, 57, 55
21, 58065, Note_on_c, 13, 57, 0
21, 58080, Note_on_c, 13, 57, 55
21, 58125, Note_on_c, 13, 57, 0
21, 58140, Note_on_c, 13, 57, 55
21, 58185, Note_on_c, 13, 57, 0
21, 58200, Note_on_c, 13, 58, 55
21, 58245, Note_on_c, 13, 58, 0
21, 58260, Note_on_c, 13, 58, 55
21, 58305, Note_on_c, 13, 58, 0
21, 58320, Note_on_c, 13, 60, 55
21, 58365, Note_on_c, 13, 60, 0
21, 58380, Note_on_c, 13, 60, 55
21, 58425, Note_on_c, 13, 60, 0
21, 58440, Note_on_c, 13, 57, 55
21, 58485, Note_on_c, 13, 57, 0
21, 58500, Note_on_c, 13, 57, 55
21, 58545, Note_on_c, 13, 57, 0
21, 58560, Note_on_c, 13, 55, 55
21, 58605, Note_on_c, 13, 55, 0
21, 58620, Note_on_c, 13, 55, 55
21, 58665, Note_on_c, 13, 55, 0
21, 58680, Note_on_c, 13, 54, 55
21, 58725, Note_on_c, 13, 54, 0
21, 58740, Note_on_c, 13, 54, 55
21, 58785, Note_on_c, 13, 54, 0
21, 58800, Note_on_c, 13, 55, 55
21, 58845, Note_on_c, 13, 55, 0
21, 58860, Note_on_c, 13, 55, 55
21, 58905, Note_on_c, 13, 55, 0
21, 58920, Note_on_c, 13, 66, 55
21, 58965, Note_on_c, 13, 66, 0
21, 58980, Note_on_c, 13, 66, 55
21, 59025, Note_on_c, 13, 66, 0
21, 59040, Note_on_c, 13, 67, 55
21, 59085, Note_on_c, 13, 67, 0
21, 59100, Note_on_c, 13, 67, 55
21, 59145, Note_on_c, 13, 67, 0
21, 59160, Note_on_c, 13, 66, 55
21, 59205, Note_on_c, 13, 66, 0
21, 59220, Note_on_c, 13, 66, 55
21, 59265, Note_on_c, 13, 66, 0
21, 59280, Note_on_c, 13, 67, 55
21, 59325, Note_on_c, 13, 67, 0
21, 59340, Note_on_c, 13, 55, 55
21, 59385, Note_on_c, 13, 55, 0
21, 59400, Note_on_c, 13, 53, 55
21, 59445, Note_on_c, 13, 53, 0
21, 59460, Note_on_c, 13, 55, 55
21, 59505, Note_on_c, 13, 55, 0
21, 59530, Note_on_c, 13, 57, 53
21, 59650, Note_on_c, 13, 57, 0
21, 59710, Note_on_c, 13, 50, 91
21, 59770, Note_on_c, 13, 50, 0
21, 59770, Note_on_c, 13, 52, 91
21, 59830, Note_on_c, 13, 52, 0
21, 59830, Note_on_c, 13, 54, 91
21, 59890, Note_on_c, 13, 54, 0
21, 59890, Note_on_c, 13, 55, 91
21, 59950, Note_on_c, 13, 55, 0
21, 59950, Note_on_c, 13, 57, 91
21, 60010, Note_on_c, 13, 57, 0
21, 60010, Note_on_c, 13, 60, 91
21, 60070, Note_on_c, 13, 60, 0
21, 60070, Note_on_c, 13, 58, 91
21, 60130, Note_on_c, 13, 58, 0
21, 60190, Note_on_c, 13, 54, 91
21, 60250, Note_on_c, 13, 54, 0
21, 60250, Note_on_c, 13, 55, 91
21, 60310, Note_on_c, 13, 55, 0
21, 60310, Note_on_c, 13, 57, 91
21, 60370, Note_on_c, 13, 57, 0
21, 60370, Note_on_c, 13, 58, 91
21, 60430, Note_on_c, 13, 58, 0
21, 60430, Note_on_c, 13, 61, 91
21, 60490, Note_on_c, 13, 61, 0
21, 60490, Note_on_c, 13, 64, 53
21, 60550, Note_on_c, 13, 64, 0
21, 60550, Note_on_c, 13, 62, 53
21, 60610, Note_on_c, 13, 62, 0
21, 61440, Note_on_c, 13, 71, 68
21, 61470, Note_on_c, 13, 71, 0
21, 61500, Note_on_c, 13, 71, 68
21, 61530, Note_on_c, 13, 71, 0
21, 61560, Note_on_c, 13, 71, 68
21, 61620, Note_on_c, 13, 71, 0
21, 61620, Note_on_c, 13, 72, 68
21, 61665, Note_on_c, 13, 72, 0
21, 61680, Note_on_c, 13, 69, 68
21, 61710, Note_on_c, 13, 69, 0
21, 61740, Note_on_c, 13, 69, 68
21, 61770, Note_on_c, 13, 69, 0
21, 61800, Note_on_c, 13, 69, 68
21, 61860, Note_on_c, 13, 69, 0
21, 61860, Note_on_c, 13, 71, 68
21, 61905, Note_on_c, 13, 71, 0
21, 61920, Note_on_c, 13, 67, 68
21, 61950, Note_on_c, 13, 67, 0
21, 61980, Note_on_c, 13, 67, 68
21, 62010, Note_on_c, 13, 67, 0
21, 62040, Note_on_c, 13, 67, 68
21, 62100, Note_on_c, 13, 67, 0
21, 62100, Note_on_c, 13, 71, 68
21, 62145, Note_on_c, 13, 71, 0
21, 62160, Note_on_c, 13, 71, 68
21, 62220, Note_on_c, 13, 71, 0
21, 62220, Note_on_c, 13, 69, 68
21, 62265, Note_on_c, 13, 69, 0
21, 62280, Note_on_c, 13, 67, 68
21, 62310, Note_on_c, 13, 67, 0
21, 62340, Note_on_c, 13, 62, 68
21, 62370, Note_on_c, 13, 62, 0
21, 62405, Note_on_c, 13, 59, 93
21, 62525, Note_on_c, 13, 59, 0
21, 62585, Note_on_c, 13, 62, 92
21, 62615, Note_on_c, 13, 62, 0
21, 62645, Note_on_c, 13, 67, 92
21, 62765, Note_on_c, 13, 67, 0
21, 62825, Note_on_c, 13, 62, 91
21, 62855, Note_on_c, 13, 62, 0
21, 62885, Note_on_c, 13, 67, 90
21, 62915, Note_on_c, 13, 67, 0
21, 62945, Note_on_c, 13, 62, 90
21, 62975, Note_on_c, 13, 62, 0
21, 63005, Note_on_c, 13, 67, 90
21, 63035, Note_on_c, 13, 67, 0
21, 63065, Note_on_c, 13, 71, 90
21, 63095, Note_on_c, 13, 71, 0
21, 63125, Note_on_c, 13, 74, 89
21, 63245, Note_on_c, 13, 74, 0
21, 63365, Note_on_c, 13, 72, 88
21, 63485, Note_on_c, 13, 72, 0
21, 63545, Note_on_c, 13, 69, 87
21, 63575, Note_on_c, 13, 69, 0
21, 63605, Note_on_c, 13, 72, 86
21, 63725, Note_on_c, 13, 72, 0
21, 63785, Note_on_c, 13, 69, 85
21, 63815, Note_on_c, 13, 69, 0
21, 63845, Note_on_c, 13, 72, 85
21, 63875, Note_on_c, 13, 72, 0
21, 63905, Note_on_c, 13, 69, 85
21, 63935, Note_on_c, 13, 69, 0
21, 63965, Note_on_c, 13, 66, 85
21, 63995, Note_on_c, 13, 66, 0
21, 64025, Note_on_c, 13, 69, 85
21, 64055, Note_on_c, 13, 69, 0
21, 64085, Note_on_c, 13, 62, 85
21, 64205, Note_on_c, 13, 62, 0
21, 64320, Note_on_c, 13, 67, 85
21, 64365, Note_on_c, 13, 67, 0
21, 64380, Note_on_c, 13, 67, 85
21, 64425, Note_on_c, 13, 67, 0
21, 64440, Note_on_c, 13, 67, 85
21, 64485, Note_on_c, 13, 67, 0
21, 64500, Note_on_c, 13, 67, 85
21, 64545, Note_on_c, 13, 67, 0
21, 64560, Note_on_c, 13, 67, 85
21, 64605, Note_on_c, 13, 67, 0
21, 64620, Note_on_c, 13, 67, 85
21, 64665, Note_on_c, 13, 67, 0
21, 64680, Note_on_c, 13, 67, 85
21, 64725, Note_on_c, 13, 67, 0
21, 64740, Note_on_c, 13, 67, 85
21, 64785, Note_on_c, 13, 67, 0
21, 64800, Note_on_c, 13, 69, 85
21, 64845, Note_on_c, 13, 69, 0
21, 64860, Note_on_c, 13, 69, 85
21, 64905, Note_on_c, 13, 69, 0
21, 64920, Note_on_c, 13, 69, 85
21, 64965, Note_on_c, 13, 69, 0
21, 64980, Note_on_c, 13, 69, 85
21, 65025, Note_on_c, 13, 69, 0
21, 65040, Note_on_c, 13, 69, 85
21, 65100, Note_on_c, 13, 69, 0
21, 65100, Note_on_c, 13, 72, 85
21, 65145, Note_on_c, 13, 72, 0
21, 65160, Note_on_c, 13, 66, 85
21, 65220, Note_on_c, 13, 66, 0
21, 65220, Note_on_c, 13, 69, 85
21, 65265, Note_on_c, 13, 69, 0
21, 65280, Note_on_c, 13, 67, 85
21, 65325, Note_on_c, 13, 67, 0
21, 65340, Note_on_c, 13, 67, 85
21, 65385, Note_on_c, 13, 67, 0
21, 65400, Note_on_c, 13, 67, 85
21, 65445, Note_on_c, 13, 67, 0
21, 65460, Note_on_c, 13, 67, 85
21, 65505, Note_on_c, 13, 67, 0
21, 65520, Note_on_c, 13, 67, 85
21, 65565, Note_on_c, 13, 67, 0
21, 65580, Note_on_c, 13, 67, 85
21, 65625, Note_on_c, 13, 67, 0
21, 65640, Note_on_c, 13, 67, 85
21, 65685, Note_on_c, 13, 67, 0
21, 65700, Note_on_c, 13, 67, 85
21, 65745, Note_on_c, 13, 67, 0
21, 65760, Note_on_c, 13, 69, 85
21, 65805, Note_on_c, 13, 69, 0
21, 65820, Note_on_c, 13, 69, 85
21, 65865, Note_on_c, 13, 69, 0
21, 65880, Note_on_c, 13, 69, 85
21, 65925, Note_on_c, 13, 69, 0
21, 65940, Note_on_c, 13, 69, 85
21, 65985, Note_on_c, 13, 69, 0
21, 66000, Note_on_c, 13, 69, 85
21, 66060, Note_on_c, 13, 69, 0
21, 66060, Note_on_c, 13, 72, 85
21, 66105, Note_on_c, 13, 72, 0
21, 66120, Note_on_c, 13, 66, 85
21, 66180, Note_on_c, 13, 66, 0
21, 66180, Note_on_c, 13, 69, 85
21, 66225, Note_on_c, 13, 69, 0
21, 66240, Note_on_c, 13, 62, 85
21, 66260, Note_on_c, 13, 62, 0
21, 66270, Note_on_c, 13, 62, 85
21, 66290, Note_on_c, 13, 62, 0
21, 66300, Note_on_c, 13, 62, 85
21, 66320, Note_on_c, 13, 62, 0
21, 66330, Note_on_c, 13, 62, 85
21, 66350, Note_on_c, 13, 62, 0
21, 66360, Note_on_c, 13, 62, 85
21, 66380, Note_on_c, 13, 62, 0
21, 66390, Note_on_c, 13, 62, 85
21, 66410, Note_on_c, 13, 62, 0
21, 66420, Note_on_c, 13, 62, 85
21, 66440, Note_on_c, 13, 62, 0
21, 66450, Note_on_c, 13, 62, 85
21, 66470, Note_on_c, 13, 62, 0
21, 66480, Note_on_c, 13, 62, 85
21, 66500, Note_on_c, 13, 62, 0
21, 66510, Note_on_c, 13, 62, 85
21, 66530, Note_on_c, 13, 62, 0
21, 66540, Note_on_c, 13, 62, 85
21, 66560, Note_on_c, 13, 62, 0
21, 66570, Note_on_c, 13, 62, 85
21, 66590, Note_on_c, 13, 62, 0
21, 66600, Note_on_c, 13, 62, 85
21, 66620, Note_on_c, 13, 62, 0
21, 66630, Note_on_c, 13, 62, 85
21, 66650, Note_on_c, 13, 62, 0
21, 66660, Note_on_c, 13, 62, 85
21, 66680, Note_on_c, 13, 62, 0
21, 66690, Note_on_c, 13, 62, 85
21, 66710, Note_on_c, 13, 62, 0
21, 66720, Note_on_c, 13, 62, 85
21, 66740, Note_on_c, 13, 62, 0
21, 66750, Note_on_c, 13, 62, 85
21, 66770, Note_on_c, 13, 62, 0
21, 66780, Note_on_c, 13, 62, 85
21, 66800, Note_on_c, 13, 62, 0
21, 66810, Note_on_c, 13, 62, 85
21, 66830, Note_on_c, 13, 62, 0
21, 66840, Note_on_c, 13, 62, 85
21, 66860, Note_on_c, 13, 62, 0
21, 66870, Note_on_c, 13, 62, 85
21, 66890, Note_on_c, 13, 62, 0
21, 66900, Note_on_c, 13, 62, 85
21, 66920, Note_on_c, 13, 62, 0
21, 66930, Note_on_c, 13, 62, 85
21, 66950, Note_on_c, 13, 62, 0
21, 66960, Note_on_c, 13, 62, 85
21, 67080, Note_on_c, 13, 62, 0
21, 67680, Note_on_c, 13, 54, 47
21, 67920, Note_on_c, 13, 54, 0
21, 67920, Note_on_c, 13, 55, 47
21, 68160, Note_on_c, 13, 55, 0
21, 68160, Note_on_c, 13, 60, 47
21, 68250, Note_on_c, 13, 60, 0
21, 68280, Note_on_c, 13, 60, 47
21, 68370, Note_on_c, 13, 60, 0
21, 68400, Note_on_c, 13, 57, 47
21, 68490, Note_on_c, 13, 57, 0
21, 68520, Note_on_c, 13, 50, 47
21, 68610, Note_on_c, 13, 50, 0
21, 68640, Note_on_c, 13, 50, 47
21, 68700, Note_on_c, 13, 50, 0
21, 68760, Note_on_c, 13, 62, 47
21, 68820, Note_on_c, 13, 62, 0
21, 68880, Note_on_c, 13, 62, 47
21, 69000, Note_on_c, 13, 62, 0
21, 69600, Note_on_c, 13, 66, 47
21, 69840, Note_on_c, 13, 66, 0
21, 69840, Note_on_c, 13, 67, 47
21, 70080, Note_on_c, 13, 67, 0
21, 70080, Note_on_c, 13, 60, 47
21, 70170, Note_on_c, 13, 60, 0
21, 70200, Note_on_c, 13, 60, 47
21, 70245, Note_on_c, 13, 60, 0
21, 70260, Note_on_c, 13, 60, 47
21, 70305, Note_on_c, 13, 60, 0
21, 70320, Note_on_c, 13, 57, 47
21, 70410, Note_on_c, 13, 57, 0
21, 70440, Note_on_c, 13, 57, 47
21, 70485, Note_on_c, 13, 57, 0
21, 70500, Note_on_c, 13, 57, 47
21, 70545, Note_on_c, 13, 57, 0
21, 70560, Note_on_c, 13, 55, 92
21, 70605, Note_on_c, 13, 55, 0
21, 70620, Note_on_c, 13, 55, 71
21, 70665, Note_on_c, 13, 55, 0
21, 70680, Note_on_c, 13, 55, 71
21, 70725, Note_on_c, 13, 55, 0
21, 70740, Note_on_c, 13, 55, 71
21, 70785, Note_on_c, 13, 55, 0
21, 70800, Note_on_c, 13, 55, 55
21, 70845, Note_on_c, 13, 55, 0
21, 70860, Note_on_c, 13, 55, 50
21, 70905, Note_on_c, 13, 55, 0
21, 70920, Note_on_c, 13, 55, 50
21, 70965, Note_on_c, 13, 55, 0
21, 70980, Note_on_c, 13, 55, 50
21, 71025, Note_on_c, 13, 55, 0
21, 71040, Note_on_c, 13, 55, 91
21, 71085, Note_on_c, 13, 55, 0
21, 71100, Note_on_c, 13, 55, 65
21, 71145, Note_on_c, 13, 55, 0
21, 71160, Note_on_c, 13, 55, 65
21, 71205, Note_on_c, 13, 55, 0
21, 71220, Note_on_c, 13, 55, 65
21, 71265, Note_on_c, 13, 55, 0
21, 71280, Note_on_c, 13, 55, 46
21, 71325, Note_on_c, 13, 55, 0
21, 71340, Note_on_c, 13, 55, 46
21, 71385, Note_on_c, 13, 55, 0
21, 71400, Note_on_c, 13, 55, 46
21, 71445, Note_on_c, 13, 55, 0
21, 71460, Note_on_c, 13, 55, 46
21, 71505, Note_on_c, 13, 55, 0
21, 71520, Note_on_c, 13, 55, 59
21, 71565, Note_on_c, 13, 55, 0
21, 71580, Note_on_c, 13, 67, 41
21, 71625, Note_on_c, 13, 67, 0
21, 71640, Note_on_c, 13, 67, 46
21, 71685, Note_on_c, 13, 67, 0
21, 71700, Note_on_c, 13, 67, 49
21, 71745, Note_on_c, 13, 67, 0
21, 71760, Note_on_c, 13, 67, 53
21, 71805, Note_on_c, 13, 67, 0
21, 71820, Note_on_c, 13, 67, 56
21, 71865, Note_on_c, 13, 67, 0
21, 71880, Note_on_c, 13, 69, 61
21, 71925, Note_on_c, 13, 69, 0
21, 71940, Note_on_c, 13, 69, 64
21, 71985, Note_on_c, 13, 69, 0
21, 72000, Note_on_c, 13, 67, 68
21, 72045, Note_on_c, 13, 67, 0
21, 72060, Note_on_c, 13, 67, 71
21, 72105, Note_on_c, 13, 67, 0
21, 72120, Note_on_c, 13, 66, 76
21, 72165, Note_on_c, 13, 66, 0
21, 72180, Note_on_c, 13, 66, 79
21, 72225, Note_on_c, 13, 66, 0
21, 72240, Note_on_c, 13, 67, 82
21, 72285, Note_on_c, 13, 67, 0
21, 72300, Note_on_c, 13, 67, 82
21, 72345, Note_on_c, 13, 67, 0
21, 72360, Note_on_c, 13, 64, 82
21, 72405, Note_on_c, 13, 64, 0
21, 72420, Note_on_c, 13, 64, 82
21, 72465, Note_on_c, 13, 64, 0
21, 72480, Note_on_c, 13, 69, 85
21, 72480, Note_on_c, 13, 62, 85
21, 72500, Note_on_c, 13, 62, 0
21, 72500, Note_on_c, 13, 69, 0
21, 72510, Note_on_c, 13, 69, 85
21, 72510, Note_on_c, 13, 62, 85
21, 72530, Note_on_c, 13, 62, 0
21, 72530, Note_on_c, 13, 69, 0
21, 72540, Note_on_c, 13, 69, 85
21, 72540, Note_on_c, 13, 62, 85
21, 72560, Note_on_c, 13, 62, 0
21, 72560, Note_on_c, 13, 69, 0
21, 72570, Note_on_c, 13, 69, 85
21, 72570, Note_on_c, 13, 62, 85
21, 72590, Note_on_c, 13, 62, 0
21, 72590, Note_on_c, 13, 69, 0
21, 72600, Note_on_c, 13, 69, 85
21, 72600, Note_on_c, 13, 62, 85
21, 72620, Note_on_c, 13, 62, 0
21, 72620, Note_on_c, 13, 69, 0
21, 72630, Note_on_c, 13, 69, 85
21, 72630, Note_on_c, 13, 62, 85
21, 72650, Note_on_c, 13, 62, 0
21, 72650, Note_on_c, 13, 69, 0
21, 72660, Note_on_c, 13, 69, 85
21, 72660, Note_on_c, 13, 62, 85
21, 72680, Note_on_c, 13, 62, 0
21, 72680, Note_on_c, 13, 69, 0
21, 72690, Note_on_c, 13, 69, 85
21, 72690, Note_on_c, 13, 62, 85
21, 72710, Note_on_c, 13, 62, 0
21, 72710, Note_on_c, 13, 69, 0
21, 72720, Note_on_c, 13, 69, 85
21, 72720, Note_on_c, 13, 64, 85
21, 72740, Note_on_c, 13, 64, 0
21, 72740, Note_on_c, 13, 69, 0
21, 72750, Note_on_c, 13, 69, 85
21, 72750, Note_on_c, 13, 64, 85
21, 72770, Note_on_c, 13, 64, 0
21, 72770, Note_on_c, 13, 69, 0
21, 72780, Note_on_c, 13, 69, 85
21, 72780, Note_on_c, 13, 64, 85
21, 72800, Note_on_c, 13, 64, 0
21, 72800, Note_on_c, 13, 69, 0
21, 72810, Note_on_c, 13, 69, 85
21, 72810, Note_on_c, 13, 64, 85
21, 72830, Note_on_c, 13, 64, 0
21, 72830, Note_on_c, 13, 69, 0
21, 72840, Note_on_c, 13, 69, 85
21, 72840, Note_on_c, 13, 64, 85
21, 72860, Note_on_c, 13, 64, 0
21, 72860, Note_on_c, 13, 69, 0
21, 72870, Note_on_c, 13, 69, 85
21, 72870, Note_on_c, 13, 64, 85
21, 72890, Note_on_c, 13, 64, 0
21, 72890, Note_on_c, 13, 69, 0
21, 72900, Note_on_c, 13, 69, 85
21, 72900, Note_on_c, 13, 64, 85
21, 72920, Note_on_c, 13, 64, 0
21, 72920, Note_on_c, 13, 69, 0
21, 72930, Note_on_c, 13, 69, 85
21, 72930, Note_on_c, 13, 64, 85
21, 72950, Note_on_c, 13, 64, 0
21, 72950, Note_on_c, 13, 69, 0
21, 72960, Note_on_c, 13, 69, 85
21, 72960, Note_on_c, 13, 62, 85
21, 72980, Note_on_c, 13, 62, 0
21, 72980, Note_on_c, 13, 69, 0
21, 72990, Note_on_c, 13, 69, 85
21, 72990, Note_on_c, 13, 62, 85
21, 73010, Note_on_c, 13, 62, 0
21, 73010, Note_on_c, 13, 69, 0
21, 73020, Note_on_c, 13, 69, 85
21, 73020, Note_on_c, 13, 62, 85
21, 73040, Note_on_c, 13, 62, 0
21, 73040, Note_on_c, 13, 69, 0
21, 73050, Note_on_c, 13, 69, 85
21, 73050, Note_on_c, 13, 62, 85
21, 73070, Note_on_c, 13, 62, 0
21, 73070, Note_on_c, 13, 69, 0
21, 73080, Note_on_c, 13, 69, 85
21, 73080, Note_on_c, 13, 62, 85
21, 73100, Note_on_c, 13, 62, 0
21, 73100, Note_on_c, 13, 69, 0
21, 73110, Note_on_c, 13, 69, 85
21, 73110, Note_on_c, 13, 62, 85
21, 73130, Note_on_c, 13, 62, 0
21, 73130, Note_on_c, 13, 69, 0
21, 73140, Note_on_c, 13, 69, 85
21, 73140, Note_on_c, 13, 62, 85
21, 73160, Note_on_c, 13, 62, 0
21, 73160, Note_on_c, 13, 69, 0
21, 73170, Note_on_c, 13, 69, 85
21, 73170, Note_on_c, 13, 62, 85
21, 73190, Note_on_c, 13, 62, 0
21, 73190, Note_on_c, 13, 69, 0
21, 73200, Note_on_c, 13, 69, 85
21, 73200, Note_on_c, 13, 64, 85
21, 73220, Note_on_c, 13, 64, 0
21, 73220, Note_on_c, 13, 69, 0
21, 73230, Note_on_c, 13, 69, 85
21, 73230, Note_on_c, 13, 64, 85
21, 73250, Note_on_c, 13, 64, 0
21, 73250, Note_on_c, 13, 69, 0
21, 73260, Note_on_c, 13, 69, 85
21, 73260, Note_on_c, 13, 64, 85
21, 73280, Note_on_c, 13, 64, 0
21, 73280, Note_on_c, 13, 69, 0
21, 73290, Note_on_c, 13, 69, 85
21, 73290, Note_on_c, 13, 64, 85
21, 73310, Note_on_c, 13, 64, 0
21, 73310, Note_on_c, 13, 69, 0
21, 73320, Note_on_c, 13, 69, 85
21, 73320, Note_on_c, 13, 64, 85
21, 73340, Note_on_c, 13, 64, 0
21, 73340, Note_on_c, 13, 69, 0
21, 73350, Note_on_c, 13, 69, 85
21, 73350, Note_on_c, 13, 64, 85
21, 73370, Note_on_c, 13, 64, 0
21, 73370, Note_on_c, 13, 69, 0
21, 73380, Note_on_c, 13, 69, 85
21, 73380, Note_on_c, 13, 64, 85
21, 73400, Note_on_c, 13, 64, 0
21, 73400, Note_on_c, 13, 69, 0
21, 73410, Note_on_c, 13, 69, 85
21, 73410, Note_on_c, 13, 64, 85
21, 73430, Note_on_c, 13, 64, 0
21, 73430, Note_on_c, 13, 69, 0
21, 73440, Note_on_c, 13, 69, 85
21, 73440, Note_on_c, 13, 62, 85
21, 73460, Note_on_c, 13, 62, 0
21, 73460, Note_on_c, 13, 69, 0
21, 73470, Note_on_c, 13, 69, 85
21, 73470, Note_on_c, 13, 62, 85
21, 73490, Note_on_c, 13, 62, 0
21, 73490, Note_on_c, 13, 69, 0
21, 73500, Note_on_c, 13, 69, 85
21, 73500, Note_on_c, 13, 62, 85
21, 73520, Note_on_c, 13, 62, 0
21, 73520, Note_on_c, 13, 69, 0
21, 73530, Note_on_c, 13, 69, 85
21, 73530, Note_on_c, 13, 62, 85
21, 73550, Note_on_c, 13, 62, 0
21, 73550, Note_on_c, 13, 69, 0
21, 73560, Note_on_c, 13, 64, 85
21, 73560, Note_on_c, 13, 69, 85
21, 73580, Note_on_c, 13, 69, 0
21, 73580, Note_on_c, 13, 64, 0
21, 73590, Note_on_c, 13, 64, 85
21, 73590, Note_on_c, 13, 69, 85
21, 73610, Note_on_c, 13, 69, 0
21, 73610, Note_on_c, 13, 64, 0
21, 73620, Note_on_c, 13, 64, 85
21, 73620, Note_on_c, 13, 69, 85
21, 73640, Note_on_c, 13, 69, 0
21, 73640, Note_on_c, 13, 64, 0
21, 73650, Note_on_c, 13, 64, 85
21, 73650, Note_on_c, 13, 69, 85
21, 73670, Note_on_c, 13, 69, 0
21, 73670, Note_on_c, 13, 64, 0
21, 73680, Note_on_c, 13, 62, 85
21, 73680, Note_on_c, 13, 69, 85
21, 73700, Note_on_c, 13, 69, 0
21, 73700, Note_on_c, 13, 62, 0
21, 73710, Note_on_c, 13, 62, 85
21, 73710, Note_on_c, 13, 69, 85
21, 73730, Note_on_c, 13, 69, 0
21, 73730, Note_on_c, 13, 62, 0
21, 73740, Note_on_c, 13, 62, 85
21, 73740, Note_on_c, 13, 69, 85
21, 73760, Note_on_c, 13, 69, 0
21, 73760, Note_on_c, 13, 62, 0
21, 73770, Note_on_c, 13, 62, 85
21, 73770, Note_on_c, 13, 69, 85
21, 73790, Note_on_c, 13, 69, 0
21, 73790, Note_on_c, 13, 62, 0
21, 73800, Note_on_c, 13, 69, 85
21, 73800, Note_on_c, 13, 64, 85
21, 73820, Note_on_c, 13, 64, 0
21, 73820, Note_on_c, 13, 69, 0
21, 73830, Note_on_c, 13, 69, 85
21, 73830, Note_on_c, 13, 64, 85
21, 73850, Note_on_c, 13, 64, 0
21, 73850, Note_on_c, 13, 69, 0
21, 73860, Note_on_c, 13, 69, 85
21, 73860, Note_on_c, 13, 64, 85
21, 73880, Note_on_c, 13, 64, 0
21, 73880, Note_on_c, 13, 69, 0
21, 73890, Note_on_c, 13, 69, 85
21, 73890, Note_on_c, 13, 64, 85
21, 73910, Note_on_c, 13, 64, 0
21, 73910, Note_on_c, 13, 69, 0
21, 73923, Note_on_c, 13, 62, 85
21, 73923, Note_on_c, 13, 69, 85
21, 73968, Note_on_c, 13, 69, 0
21, 73968, Note_on_c, 13, 62, 0
21, 73983, Note_on_c, 13, 50, 85
21, 74028, Note_on_c, 13, 50, 0
21, 74043, Note_on_c, 13, 50, 85
21, 74088, Note_on_c, 13, 50, 0
21, 74103, Note_on_c, 13, 50, 85
21, 74148, Note_on_c, 13, 50, 0
21, 74163, Note_on_c, 13, 50, 85
21, 74283, Note_on_c, 13, 50, 0
21, 74760, Note_on_c, 13, 59, 55
21, 74820, Note_on_c, 13, 59, 0
21, 74880, Note_on_c, 13, 52, 55
21, 74940, Note_on_c, 13, 52, 0
21, 75000, Note_on_c, 13, 60, 55
21, 75060, Note_on_c, 13, 60, 0
21, 75120, Note_on_c, 13, 57, 55
21, 75180, Note_on_c, 13, 57, 0
21, 75240, Note_on_c, 13, 54, 55
21, 75300, Note_on_c, 13, 54, 0
21, 75480, Note_on_c, 13, 69, 55
21, 75600, Note_on_c, 13, 69, 0
21, 75600, Note_on_c, 13, 67, 55
21, 75660, Note_on_c, 13, 67, 0
21, 75720, Note_on_c, 13, 69, 55
21, 75780, Note_on_c, 13, 69, 0
21, 75840, Note_on_c, 13, 67, 55
21, 76080, Note_on_c, 13, 67, 0
21, 76080, Note_on_c, 13, 66, 55
21, 76200, Note_on_c, 13, 66, 0
21, 76440, Note_on_c, 13, 66, 55
21, 76560, Note_on_c, 13, 66, 0
21, 76560, Note_on_c, 13, 67, 55
21, 76620, Note_on_c, 13, 67, 0
21, 76680, Note_on_c, 13, 71, 55
21, 76740, Note_on_c, 13, 71, 0
21, 76800, Note_on_c, 13, 64, 55
21, 76860, Note_on_c, 13, 64, 0
21, 76920, Note_on_c, 13, 60, 55
21, 76980, Note_on_c, 13, 60, 0
21, 77040, Note_on_c, 13, 57, 55
21, 77160, Note_on_c, 13, 57, 0
21, 77220, Note_on_c, 13, 69, 55
21, 77265, Note_on_c, 13, 69, 0
21, 77280, Note_on_c, 13, 69, 55
21, 77340, Note_on_c, 13, 69, 0
21, 77340, Note_on_c, 13, 67, 55
21, 77400, Note_on_c, 13, 67, 0
21, 77760, Note_on_c, 13, 55, 55
21, 77805, Note_on_c, 13, 55, 0
21, 77820, Note_on_c, 13, 55, 55
21, 77865, Note_on_c, 13, 55, 0
21, 77880, Note_on_c, 13, 57, 55
21, 77925, Note_on_c, 13, 57, 0
21, 77940, Note_on_c, 13, 57, 55
21, 77985, Note_on_c, 13, 57, 0
21, 78000, Note_on_c, 13, 59, 55
21, 78045, Note_on_c, 13, 59, 0
21, 78060, Note_on_c, 13, 59, 55
21, 78105, Note_on_c, 13, 59, 0
21, 78120, Note_on_c, 13, 55, 55
21, 78165, Note_on_c, 13, 55, 0
21, 78180, Note_on_c, 13, 55, 55
21, 78225, Note_on_c, 13, 55, 0
21, 78240, Note_on_c, 13, 54, 55
21, 78285, Note_on_c, 13, 54, 0
21, 78300, Note_on_c, 13, 54, 55
21, 78345, Note_on_c, 13, 54, 0
21, 78360, Note_on_c, 13, 55, 55
21, 78405, Note_on_c, 13, 55, 0
21, 78420, Note_on_c, 13, 55, 55
21, 78465, Note_on_c, 13, 55, 0
21, 78480, Note_on_c, 13, 57, 55
21, 78525, Note_on_c, 13, 57, 0
21, 78540, Note_on_c, 13, 57, 55
21, 78585, Note_on_c, 13, 57, 0
21, 78600, Note_on_c, 13, 54, 55
21, 78645, Note_on_c, 13, 54, 0
21, 78660, Note_on_c, 13, 54, 55
21, 78705, Note_on_c, 13, 54, 0
21, 78720, Note_on_c, 13, 55, 55
21, 78765, Note_on_c, 13, 55, 0
21, 78780, Note_on_c, 13, 55, 55
21, 78825, Note_on_c, 13, 55, 0
21, 78840, Note_on_c, 13, 57, 55
21, 78885, Note_on_c, 13, 57, 0
21, 78900, Note_on_c, 13, 57, 55
21, 78945, Note_on_c, 13, 57, 0
21, 78960, Note_on_c, 13, 59, 55
21, 79005, Note_on_c, 13, 59, 0
21, 79020, Note_on_c, 13, 59, 55
21, 79065, Note_on_c, 13, 59, 0
21, 79080, Note_on_c, 13, 55, 55
21, 79125, Note_on_c, 13, 55, 0
21, 79140, Note_on_c, 13, 55, 55
21, 79185, Note_on_c, 13, 55, 0
21, 79200, Note_on_c, 13, 54, 55
21, 79245, Note_on_c, 13, 54, 0
21, 79260, Note_on_c, 13, 54, 55
21, 79305, Note_on_c, 13, 54, 0
21, 79320, Note_on_c, 13, 55, 55
21, 79365, Note_on_c, 13, 55, 0
21, 79380, Note_on_c, 13, 55, 55
21, 79425, Note_on_c, 13, 55, 0
21, 79440, Note_on_c, 13, 57, 55
21, 79485, Note_on_c, 13, 57, 0
21, 79500, Note_on_c, 13, 57, 55
21, 79545, Note_on_c, 13, 57, 0
21, 79560, Note_on_c, 13, 54, 55
21, 79605, Note_on_c, 13, 54, 0
21, 79620, Note_on_c, 13, 54, 55
21, 79665, Note_on_c, 13, 54, 0
21, 79680, Note_on_c, 13, 55, 55
21, 79725, Note_on_c, 13, 55, 0
21, 79740, Note_on_c, 13, 67, 83
21, 79785, Note_on_c, 13, 67, 0
21, 79800, Note_on_c, 13, 71, 83
21, 79845, Note_on_c, 13, 71, 0
21, 79860, Note_on_c, 13, 69, 83
21, 79905, Note_on_c, 13, 69, 0
21, 79920, Note_on_c, 13, 68, 83
21, 79965, Note_on_c, 13, 68, 0
21, 79980, Note_on_c, 13, 64, 83
21, 80025, Note_on_c, 13, 64, 0
21, 80040, Note_on_c, 13, 66, 83
21, 80085, Note_on_c, 13, 66, 0
21, 80100, Note_on_c, 13, 67, 83
21, 80145, Note_on_c, 13, 67, 0
21, 80160, Note_on_c, 13, 69, 83
21, 80205, Note_on_c, 13, 69, 0
21, 80220, Note_on_c, 13, 72, 83
21, 80265, Note_on_c, 13, 72, 0
21, 80280, Note_on_c, 13, 69, 85
21, 80325, Note_on_c, 13, 69, 0
21, 80340, Note_on_c, 13, 67, 85
21, 80385, Note_on_c, 13, 67, 0
21, 80400, Note_on_c, 13, 66, 85
21, 80445, Note_on_c, 13, 66, 0
21, 80460, Note_on_c, 13, 62, 86
21, 80505, Note_on_c, 13, 62, 0
21, 80520, Note_on_c, 13, 64, 85
21, 80565, Note_on_c, 13, 64, 0
21, 80580, Note_on_c, 13, 66, 85
21, 80625, Note_on_c, 13, 66, 0
21, 80640, Note_on_c, 13, 67, 85
21, 80685, Note_on_c, 13, 67, 0
21, 80700, Note_on_c, 13, 67, 85
21, 80745, Note_on_c, 13, 67, 0
21, 80760, Note_on_c, 13, 67, 85
21, 80805, Note_on_c, 13, 67, 0
21, 80820, Note_on_c, 13, 67, 85
21, 80865, Note_on_c, 13, 67, 0
21, 80880, Note_on_c, 13, 67, 85
21, 80925, Note_on_c, 13, 67, 0
21, 80940, Note_on_c, 13, 67, 85
21, 80985, Note_on_c, 13, 67, 0
21, 81000, Note_on_c, 13, 67, 85
21, 81045, Note_on_c, 13, 67, 0
21, 81060, Note_on_c, 13, 67, 85
21, 81105, Note_on_c, 13, 67, 0
21, 81120, Note_on_c, 13, 67, 85
21, 81180, Note_on_c, 13, 67, 0
21, 81180, Note_on_c, 13, 62, 85
21, 81225, Note_on_c, 13, 62, 0
21, 81240, Note_on_c, 13, 62, 85
21, 81270, Note_on_c, 13, 62, 0
21, 81300, Note_on_c, 13, 62, 85
21, 81330, Note_on_c, 13, 62, 0
21, 81360, Note_on_c, 13, 62, 85
21, 81405, Note_on_c, 13, 62, 0
21, 81420, Note_on_c, 13, 62, 85
21, 81465, Note_on_c, 13, 62, 0
21, 81480, Note_on_c, 13, 62, 85
21, 81525, Note_on_c, 13, 62, 0
21, 81540, Note_on_c, 13, 60, 85
21, 81585, Note_on_c, 13, 60, 0
21, 81600, Note_on_c, 13, 55, 85
21, 81645, Note_on_c, 13, 55, 0
21, 81660, Note_on_c, 13, 55, 53
21, 81705, Note_on_c, 13, 55, 0
21, 81720, Note_on_c, 13, 57, 53
21, 81765, Note_on_c, 13, 57, 0
21, 81780, Note_on_c, 13, 57, 53
21, 81825, Note_on_c, 13, 57, 0
21, 81840, Note_on_c, 13, 59, 53
21, 81885, Note_on_c, 13, 59, 0
21, 81900, Note_on_c, 13, 59, 53
21, 81945, Note_on_c, 13, 59, 0
21, 81960, Note_on_c, 13, 55, 53
21, 82005, Note_on_c, 13, 55, 0
21, 82020, Note_on_c, 13, 55, 53
21, 82065, Note_on_c, 13, 55, 0
21, 82080, Note_on_c, 13, 54, 55
21, 82125, Note_on_c, 13, 54, 0
21, 82140, Note_on_c, 13, 54, 55
21, 82185, Note_on_c, 13, 54, 0
21, 82200, Note_on_c, 13, 55, 55
21, 82245, Note_on_c, 13, 55, 0
21, 82260, Note_on_c, 13, 55, 55
21, 82305, Note_on_c, 13, 55, 0
21, 82320, Note_on_c, 13, 57, 55
21, 82365, Note_on_c, 13, 57, 0
21, 82380, Note_on_c, 13, 57, 55
21, 82425, Note_on_c, 13, 57, 0
21, 82440, Note_on_c, 13, 54, 55
21, 82485, Note_on_c, 13, 54, 0
21, 82500, Note_on_c, 13, 54, 55
21, 82545, Note_on_c, 13, 54, 0
21, 82560, Note_on_c, 13, 55, 55
21, 82605, Note_on_c, 13, 55, 0
21, 82620, Note_on_c, 13, 67, 55
21, 82665, Note_on_c, 13, 67, 0
21, 82680, Note_on_c, 13, 69, 55
21, 82725, Note_on_c, 13, 69, 0
21, 82740, Note_on_c, 13, 69, 55
21, 82785, Note_on_c, 13, 69, 0
21, 82800, Note_on_c, 13, 71, 55
21, 82845, Note_on_c, 13, 71, 0
21, 82860, Note_on_c, 13, 71, 55
21, 82905, Note_on_c, 13, 71, 0
21, 82920, Note_on_c, 13, 67, 55
21, 82965, Note_on_c, 13, 67, 0
21, 82980, Note_on_c, 13, 67, 55
21, 83025, Note_on_c, 13, 67, 0
21, 83040, Note_on_c, 13, 66, 55
21, 83085, Note_on_c, 13, 66, 0
21, 83100, Note_on_c, 13, 66, 55
21, 83145, Note_on_c, 13, 66, 0
21, 83160, Note_on_c, 13, 67, 55
21, 83205, Note_on_c, 13, 67, 0
21, 83220, Note_on_c, 13, 67, 55
21, 83265, Note_on_c, 13, 67, 0
21, 83280, Note_on_c, 13, 69, 55
21, 83325, Note_on_c, 13, 69, 0
21, 83340, Note_on_c, 13, 69, 55
21, 83385, Note_on_c, 13, 69, 0
21, 83400, Note_on_c, 13, 66, 55
21, 83445, Note_on_c, 13, 66, 0
21, 83460, Note_on_c, 13, 66, 55
21, 83505, Note_on_c, 13, 66, 0
21, 83520, Note_on_c, 13, 67, 55
21, 83565, Note_on_c, 13, 67, 0
21, 83580, Note_on_c, 13, 67, 85
21, 83625, Note_on_c, 13, 67, 0
21, 83640, Note_on_c, 13, 71, 85
21, 83685, Note_on_c, 13, 71, 0
21, 83700, Note_on_c, 13, 69, 85
21, 83745, Note_on_c, 13, 69, 0
21, 83760, Note_on_c, 13, 68, 85
21, 83805, Note_on_c, 13, 68, 0
21, 83820, Note_on_c, 13, 64, 85
21, 83865, Note_on_c, 13, 64, 0
21, 83880, Note_on_c, 13, 66, 85
21, 83925, Note_on_c, 13, 66, 0
21, 83940, Note_on_c, 13, 67, 85
21, 83985, Note_on_c, 13, 67, 0
21, 84000, Note_on_c, 13, 69, 85
21, 84045, Note_on_c, 13, 69, 0
21, 84060, Note_on_c, 13, 72, 85
21, 84105, Note_on_c, 13, 72, 0
21, 84120, Note_on_c, 13, 69, 85
21, 84165, Note_on_c, 13, 69, 0
21, 84180, Note_on_c, 13, 67, 85
21, 84225, Note_on_c, 13, 67, 0
21, 84240, Note_on_c, 13, 66, 85
21, 84285, Note_on_c, 13, 66, 0
21, 84300, Note_on_c, 13, 62, 85
21, 84345, Note_on_c, 13, 62, 0
21, 84360, Note_on_c, 13, 64, 85
21, 84405, Note_on_c, 13, 64, 0
21, 84420, Note_on_c, 13, 66, 85
21, 84465, Note_on_c, 13, 66, 0
21, 84480, Note_on_c, 13, 67, 85
21, 84525, Note_on_c, 13, 67, 0
21, 84540, Note_on_c, 13, 67, 85
21, 84585, Note_on_c, 13, 67, 0
21, 84600, Note_on_c, 13, 67, 85
21, 84645, Note_on_c, 13, 67, 0
21, 84660, Note_on_c, 13, 67, 85
21, 84705, Note_on_c, 13, 67, 0
21, 84720, Note_on_c, 13, 67, 85
21, 84765, Note_on_c, 13, 67, 0
21, 84780, Note_on_c, 13, 67, 85
21, 84825, Note_on_c, 13, 67, 0
21, 84840, Note_on_c, 13, 67, 85
21, 84885, Note_on_c, 13, 67, 0
21, 84900, Note_on_c, 13, 67, 85
21, 84945, Note_on_c, 13, 67, 0
21, 84960, Note_on_c, 13, 67, 85
21, 85005, Note_on_c, 13, 67, 0
21, 85020, Note_on_c, 13, 71, 85
21, 85065, Note_on_c, 13, 71, 0
21, 85080, Note_on_c, 13, 74, 85
21, 85125, Note_on_c, 13, 74, 0
21, 85140, Note_on_c, 13, 74, 85
21, 85185, Note_on_c, 13, 74, 0
21, 85200, Note_on_c, 13, 74, 85
21, 85245, Note_on_c, 13, 74, 0
21, 85260, Note_on_c, 13, 74, 85
21, 85305, Note_on_c, 13, 74, 0
21, 85320, Note_on_c, 13, 74, 85
21, 85365, Note_on_c, 13, 74, 0
21, 85380, Note_on_c, 13, 72, 85
21, 85425, Note_on_c, 13, 72, 0
21, 85442, Note_on_c, 13, 71, 85
21, 85487, Note_on_c, 13, 71, 0
21, 85502, Note_on_c, 13, 62, 85
21, 85547, Note_on_c, 13, 62, 0
21, 85562, Note_on_c, 13, 64, 85
21, 85607, Note_on_c, 13, 64, 0
21, 85622, Note_on_c, 13, 66, 85
21, 85667, Note_on_c, 13, 66, 0
21, 85682, Note_on_c, 13, 67, 85
21, 85727, Note_on_c, 13, 67, 0
21, 85742, Note_on_c, 13, 67, 85
21, 85787, Note_on_c, 13, 67, 0
21, 85802, Note_on_c, 13, 69, 85
21, 85847, Note_on_c, 13, 69, 0
21, 85862, Note_on_c, 13, 69, 85
21, 85907, Note_on_c, 13, 69, 0
21, 85922, Note_on_c, 13, 71, 85
21, 85967, Note_on_c, 13, 71, 0
21, 85982, Note_on_c, 13, 54, 85
21, 86027, Note_on_c, 13, 54, 0
21, 86042, Note_on_c, 13, 55, 85
21, 86087, Note_on_c, 13, 55, 0
21, 86102, Note_on_c, 13, 57, 85
21, 86147, Note_on_c, 13, 57, 0
21, 86162, Note_on_c, 13, 59, 85
21, 86207, Note_on_c, 13, 59, 0
21, 86222, Note_on_c, 13, 59, 85
21, 86267, Note_on_c, 13, 59, 0
21, 86282, Note_on_c, 13, 60, 85
21, 86327, Note_on_c, 13, 60, 0
21, 86342, Note_on_c, 13, 60, 85
21, 86387, Note_on_c, 13, 60, 0
21, 86400, Note_on_c, 13, 62, 85
21, 86445, Note_on_c, 13, 62, 0
21, 86460, Note_on_c, 13, 62, 85
21, 86505, Note_on_c, 13, 62, 0
21, 86520, Note_on_c, 13, 63, 85
21, 86565, Note_on_c, 13, 63, 0
21, 86580, Note_on_c, 13, 63, 85
21, 86625, Note_on_c, 13, 63, 0
21, 86640, Note_on_c, 13, 64, 85
21, 86760, Note_on_c, 13, 64, 0
21, 86880, Note_on_c, 13, 57, 70
21, 87240, Note_on_c, 13, 57, 0
21, 87240, Note_on_c, 13, 55, 70
21, 87300, Note_on_c, 13, 55, 0
21, 87300, Note_on_c, 13, 54, 70
21, 87360, Note_on_c, 13, 54, 0
21, 87360, Note_on_c, 13, 55, 70
21, 87480, Note_on_c, 13, 55, 0
21, 87840, Note_on_c, 13, 57, 70
21, 88200, Note_on_c, 13, 57, 0
21, 88200, Note_on_c, 13, 55, 70
21, 88260, Note_on_c, 13, 55, 0
21, 88260, Note_on_c, 13, 54, 70
21, 88320, Note_on_c, 13, 54, 0
21, 88320, Note_on_c, 13, 55, 70
21, 88440, Note_on_c, 13, 55, 0
21, 88560, Note_on_c, 13, 67, 70
21, 88680, Note_on_c, 13, 67, 0
21, 88800, Note_on_c, 13, 64, 92
21, 88920, Note_on_c, 13, 64, 0
21, 89040, Note_on_c, 13, 62, 111
21, 89040, Note_on_c, 13, 69, 111
21, 89160, Note_on_c, 13, 69, 0
21, 89160, Note_on_c, 13, 62, 0
21, 89280, Note_on_c, 13, 55, 97
21, 89300, Note_on_c, 13, 55, 0
21, 89310, Note_on_c, 13, 55, 94
21, 89330, Note_on_c, 13, 55, 0
21, 89340, Note_on_c, 13, 55, 93
21, 89360, Note_on_c, 13, 55, 0
21, 89370, Note_on_c, 13, 55, 92
21, 89390, Note_on_c, 13, 55, 0
21, 89400, Note_on_c, 13, 55, 90
21, 89420, Note_on_c, 13, 55, 0
21, 89430, Note_on_c, 13, 55, 90
21, 89450, Note_on_c, 13, 55, 0
21, 89460, Note_on_c, 13, 55, 90
21, 89480, Note_on_c, 13, 55, 0
21, 89490, Note_on_c, 13, 55, 90
21, 89510, Note_on_c, 13, 55, 0
21, 89520, Note_on_c, 13, 55, 88
21, 89540, Note_on_c, 13, 55, 0
21, 89550, Note_on_c, 13, 55, 88
21, 89570, Note_on_c, 13, 55, 0
21, 89580, Note_on_c, 13, 55, 90
21, 89600, Note_on_c, 13, 55, 0
21, 89610, Note_on_c, 13, 55, 90
21, 89630, Note_on_c, 13, 55, 0
21, 89640, Note_on_c, 13, 55, 88
21, 89660, Note_on_c, 13, 55, 0
21, 89670, Note_on_c, 13, 55, 87
21, 89690, Note_on_c, 13, 55, 0
21, 89700, Note_on_c, 13, 55, 87
21, 89720, Note_on_c, 13, 55, 0
21, 89730, Note_on_c, 13, 55, 86
21, 89750, Note_on_c, 13, 55, 0
21, 89760, Note_on_c, 13, 55, 86
21, 89780, Note_on_c, 13, 55, 0
21, 89790, Note_on_c, 13, 55, 86
21, 89810, Note_on_c, 13, 55, 0
21, 89820, Note_on_c, 13, 55, 87
21, 89840, Note_on_c, 13, 55, 0
21, 89850, Note_on_c, 13, 55, 89
21, 89870, Note_on_c, 13, 55, 0
21, 89880, Note_on_c, 13, 55, 90
21, 89900, Note_on_c, 13, 55, 0
21, 89910, Note_on_c, 13, 55, 90
21, 89930, Note_on_c, 13, 55, 0
21, 89940, Note_on_c, 13, 55, 90
21, 89960, Note_on_c, 13, 55, 0
21, 89970, Note_on_c, 13, 55, 89
21, 89990, Note_on_c, 13, 55, 0
21, 90000, Note_on_c, 13, 55, 85
21, 90020, Note_on_c, 13, 55, 0
21, 90030, Note_on_c, 13, 55, 87
21, 90050, Note_on_c, 13, 55, 0
21, 90060, Note_on_c, 13, 55, 87
21, 90080, Note_on_c, 13, 55, 0
21, 90090, Note_on_c, 13, 55, 88
21, 90110, Note_on_c, 13, 55, 0
21, 90120, Note_on_c, 13, 57, 89
21, 90140, Note_on_c, 13, 57, 0
21, 90150, Note_on_c, 13, 57, 90
21, 90170, Note_on_c, 13, 57, 0
21, 90180, Note_on_c, 13, 57, 90
21, 90200, Note_on_c, 13, 57, 0
21, 90210, Note_on_c, 13, 57, 90
21, 90230, Note_on_c, 13, 57, 0
21, 90240, Note_on_c, 13, 55, 90
21, 90260, Note_on_c, 13, 55, 0
21, 90270, Note_on_c, 13, 55, 90
21, 90290, Note_on_c, 13, 55, 0
21, 90300, Note_on_c, 13, 55, 90
21, 90320, Note_on_c, 13, 55, 0
21, 90330, Note_on_c, 13, 55, 90
21, 90350, Note_on_c, 13, 55, 0
21, 90360, Note_on_c, 13, 55, 90
21, 90380, Note_on_c, 13, 55, 0
21, 90390, Note_on_c, 13, 55, 90
21, 90410, Note_on_c, 13, 55, 0
21, 90420, Note_on_c, 13, 55, 90
21, 90440, Note_on_c, 13, 55, 0
21, 90450, Note_on_c, 13, 55, 90
21, 90470, Note_on_c, 13, 55, 0
21, 90480, Note_on_c, 13, 55, 89
21, 90500, Note_on_c, 13, 55, 0
21, 90510, Note_on_c, 13, 55, 89
21, 90530, Note_on_c, 13, 55, 0
21, 90540, Note_on_c, 13, 55, 89
21, 90560, Note_on_c, 13, 55, 0
21, 90570, Note_on_c, 13, 55, 89
21, 90590, Note_on_c, 13, 55, 0
21, 90600, Note_on_c, 13, 55, 89
21, 90620, Note_on_c, 13, 55, 0
21, 90630, Note_on_c, 13, 55, 90
21, 90650, Note_on_c, 13, 55, 0
21, 90660, Note_on_c, 13, 55, 95
21, 90680, Note_on_c, 13, 55, 0
21, 90690, Note_on_c, 13, 55, 96
21, 90710, Note_on_c, 13, 55, 0
21, 90720, Note_on_c, 13, 55, 97
21, 90740, Note_on_c, 13, 55, 0
21, 90750, Note_on_c, 13, 55, 98
21, 90770, Note_on_c, 13, 55, 0
21, 90780, Note_on_c, 13, 55, 99
21, 90800, Note_on_c, 13, 55, 0
21, 90810, Note_on_c, 13, 55, 99
21, 90830, Note_on_c, 13, 55, 0
21, 90840, Note_on_c, 13, 55, 99
21, 90860, Note_on_c, 13, 55, 0
21, 90870, Note_on_c, 13, 55, 99
21, 90890, Note_on_c, 13, 55, 0
21, 90900, Note_on_c, 13, 55, 99
21, 90920, Note_on_c, 13, 55, 0
21, 90930, Note_on_c, 13, 55, 99
21, 90950, Note_on_c, 13, 55, 0
21, 90960, Note_on_c, 13, 55, 97
21, 90980, Note_on_c, 13, 55, 0
21, 90990, Note_on_c, 13, 55, 97
21, 91010, Note_on_c, 13, 55, 0
21, 91020, Note_on_c, 13, 55, 96
21, 91040, Note_on_c, 13, 55, 0
21, 91050, Note_on_c, 13, 55, 94
21, 91070, Note_on_c, 13, 55, 0
21, 91080, Note_on_c, 13, 57, 94
21, 91100, Note_on_c, 13, 57, 0
21, 91110, Note_on_c, 13, 57, 94
21, 91130, Note_on_c, 13, 57, 0
21, 91140, Note_on_c, 13, 57, 95
21, 91160, Note_on_c, 13, 57, 0
21, 91170, Note_on_c, 13, 57, 95
21, 91190, Note_on_c, 13, 57, 0
21, 91200, Note_on_c, 13, 55, 96
21, 91245, Note_on_c, 13, 55, 0
21, 91260, Note_on_c, 13, 59, 103
21, 91305, Note_on_c, 13, 59, 0
21, 91320, Note_on_c, 13, 62, 103
21, 91365, Note_on_c, 13, 62, 0
21, 91380, Note_on_c, 13, 67, 103
21, 91425, Note_on_c, 13, 67, 0
21, 91440, Note_on_c, 13, 71, 103
21, 91485, Note_on_c, 13, 71, 0
21, 91500, Note_on_c, 13, 67, 103
21, 91545, Note_on_c, 13, 67, 0
21, 91560, Note_on_c, 13, 74, 103
21, 91605, Note_on_c, 13, 74, 0
21, 91620, Note_on_c, 13, 71, 103
21, 91665, Note_on_c, 13, 71, 0
21, 91683, Note_on_c, 13, 67, 103
21, 91783, Note_on_c, 13, 67, 0
21, 91803, Note_on_c, 13, 55, 103
21, 91863, Note_on_c, 13, 55, 0
21, 91893, Note_on_c, 13, 55, 103
21, 91908, Note_on_c, 13, 55, 0
21, 91923, Note_on_c, 13, 55, 103
21, 92043, Note_on_c, 13, 55, 0
21, 92043, End_track
22, 0, Start_track
22, 0, MIDI_port, 0
22, 0, Program_c, 13, 40
22, 0, Control_c, 13, 7, 122
22, 0, Control_c, 13, 10, 50
22, 0, Note_on_c, 13, 62, 85
22, 0, Note_on_c, 13, 79, 85
22, 0, Note_on_c, 13, 71, 85
22, 120, Note_on_c, 13, 71, 0
22, 120, Note_on_c, 13, 79, 0
22, 120, Note_on_c, 13, 62, 0
22, 180, Note_on_c, 13, 74, 85
22, 210, Note_on_c, 13, 74, 0
22, 240, Note_on_c, 13, 79, 85
22, 360, Note_on_c, 13, 79, 0
22, 420, Note_on_c, 13, 74, 85
22, 450, Note_on_c, 13, 74, 0
22, 480, Note_on_c, 13, 79, 85
22, 510, Note_on_c, 13, 79, 0
22, 540, Note_on_c, 13, 74, 85
22, 570, Note_on_c, 13, 74, 0
22, 600, Note_on_c, 13, 79, 85
22, 630, Note_on_c, 13, 79, 0
22, 660, Note_on_c, 13, 83, 85
22, 690, Note_on_c, 13, 83, 0
22, 720, Note_on_c, 13, 86, 85
22, 840, Note_on_c, 13, 86, 0
22, 960, Note_on_c, 13, 84, 85
22, 1080, Note_on_c, 13, 84, 0
22, 1140, Note_on_c, 13, 81, 82
22, 1170, Note_on_c, 13, 81, 0
22, 1200, Note_on_c, 13, 84, 85
22, 1320, Note_on_c, 13, 84, 0
22, 1380, Note_on_c, 13, 81, 79
22, 1410, Note_on_c, 13, 81, 0
22, 1440, Note_on_c, 13, 84, 85
22, 1470, Note_on_c, 13, 84, 0
22, 1500, Note_on_c, 13, 81, 80
22, 1530, Note_on_c, 13, 81, 0
22, 1560, Note_on_c, 13, 78, 85
22, 1590, Note_on_c, 13, 78, 0
22, 1620, Note_on_c, 13, 81, 77
22, 1650, Note_on_c, 13, 81, 0
22, 1680, Note_on_c, 13, 74, 85
22, 1800, Note_on_c, 13, 74, 0
22, 1920, Note_on_c, 13, 62, 85
22, 1920, Note_on_c, 13, 79, 85
22, 1920, Note_on_c, 13, 71, 85
22, 1980, Note_on_c, 13, 71, 0
22, 1980, Note_on_c, 13, 79, 0
22, 1980, Note_on_c, 13, 62, 0
22, 2040, Note_on_c, 13, 79, 85
22, 2220, Note_on_c, 13, 79, 0
22, 2220, Note_on_c, 13, 83, 89
22, 2280, Note_on_c, 13, 83, 0
22, 2280, Note_on_c, 13, 81, 94
22, 2310, Note_on_c, 13, 81, 0
22, 2340, Note_on_c, 13, 79, 97
22, 2370, Note_on_c, 13, 79, 0
22, 2400, Note_on_c, 13, 79, 95
22, 2415, Note_on_c, 13, 79, 0
22, 2415, Note_on_c, 13, 81, 95
22, 2430, Note_on_c, 13, 81, 0
22, 2430, Note_on_c, 13, 79, 95
22, 2445, Note_on_c, 13, 79, 0
22, 2445, Note_on_c, 13, 81, 94
22, 2460, Note_on_c, 13, 81, 0
22, 2460, Note_on_c, 13, 78, 94
22, 2510, Note_on_c, 13, 78, 0
22, 2520, Note_on_c, 13, 78, 88
22, 2700, Note_on_c, 13, 78, 0
22, 2700, Note_on_c, 13, 81, 85
22, 2760, Note_on_c, 13, 81, 0
22, 2760, Note_on_c, 13, 84, 85
22, 2790, Note_on_c, 13, 84, 0
22, 2820, Note_on_c, 13, 78, 85
22, 2850, Note_on_c, 13, 78, 0
22, 2880, Note_on_c, 13, 81, 85
22, 2940, Note_on_c, 13, 81, 0
22, 2940, Note_on_c, 13, 79, 85
22, 2970, Note_on_c, 13, 79, 0
22, 3000, Note_on_c, 13, 79, 85
22, 3180, Note_on_c, 13, 79, 0
22, 3180, Note_on_c, 13, 83, 86
22, 3240, Note_on_c, 13, 83, 0
22, 3240, Note_on_c, 13, 81, 86
22, 3270, Note_on_c, 13, 81, 0
22, 3300, Note_on_c, 13, 79, 89
22, 3330, Note_on_c, 13, 79, 0
22, 3360, Note_on_c, 13, 79, 91
22, 3375, Note_on_c, 13, 79, 0
22, 3375, Note_on_c, 13, 81, 91
22, 3390, Note_on_c, 13, 81, 0
22, 3390, Note_on_c, 13, 79, 92
22, 3405, Note_on_c, 13, 79, 0
22, 3405, Note_on_c, 13, 81, 94
22, 3420, Note_on_c, 13, 81, 0
22, 3420, Note_on_c, 13, 78, 94
22, 3470, Note_on_c, 13, 78, 0
22, 3480, Note_on_c, 13, 78, 94
22, 3660, Note_on_c, 13, 78, 0
22, 3660, Note_on_c, 13, 81, 85
22, 3720, Note_on_c, 13, 81, 0
22, 3720, Note_on_c, 13, 84, 85
22, 3750, Note_on_c, 13, 84, 0
22, 3780, Note_on_c, 13, 78, 85
22, 3810, Note_on_c, 13, 78, 0
22, 3840, Note_on_c, 13, 79, 85
22, 3870, Note_on_c, 13, 79, 0
22, 3900, Note_on_c, 13, 79, 85
22, 3930, Note_on_c, 13, 79, 0
22, 3960, Note_on_c, 13, 79, 85
22, 3990, Note_on_c, 13, 79, 0
22, 3990, Note_on_c, 13, 78, 85
22, 4020, Note_on_c, 13, 78, 0
22, 4020, Note_on_c, 13, 76, 85
22, 4050, Note_on_c, 13, 76, 0
22, 4050, Note_on_c, 13, 78, 85
22, 4080, Note_on_c, 13, 78, 0
22, 4080, Note_on_c, 13, 79, 85
22, 4110, Note_on_c, 13, 79, 0
22, 4140, Note_on_c, 13, 79, 85
22, 4170, Note_on_c, 13, 79, 0
22, 4200, Note_on_c, 13, 83, 85
22, 4230, Note_on_c, 13, 83, 0
22, 4230, Note_on_c, 13, 81, 85
22, 4260, Note_on_c, 13, 81, 0
22, 4260, Note_on_c, 13, 79, 85
22, 4290, Note_on_c, 13, 79, 0
22, 4290, Note_on_c, 13, 81, 85
22, 4320, Note_on_c, 13, 81, 0
22, 4320, Note_on_c, 13, 83, 86
22, 4350, Note_on_c, 13, 83, 0
22, 4380, Note_on_c, 13, 83, 86
22, 4410, Note_on_c, 13, 83, 0
22, 4440, Note_on_c, 13, 86, 83
22, 4470, Note_on_c, 13, 86, 0
22, 4470, Note_on_c, 13, 84, 80
22, 4500, Note_on_c, 13, 84, 0
22, 4500, Note_on_c, 13, 83, 80
22, 4530, Note_on_c, 13, 83, 0
22, 4530, Note_on_c, 13, 84, 79
22, 4560, Note_on_c, 13, 84, 0
22, 4560, Note_on_c, 13, 86, 76
22, 4680, Note_on_c, 13, 86, 0
22, 4800, Note_on_c, 13, 74, 41
22, 5040, Note_on_c, 13, 74, 0
22, 5040, Note_on_c, 13, 76, 47
22, 5280, Note_on_c, 13, 76, 0
22, 5280, Note_on_c, 13, 74, 47
22, 5310, Note_on_c, 13, 74, 0
22, 5310, Note_on_c, 13, 72, 47
22, 5390, Note_on_c, 13, 72, 0
22, 5400, Note_on_c, 13, 72, 47
22, 5520, Note_on_c, 13, 72, 0
22, 5520, Note_on_c, 13, 72, 47
22, 5550, Note_on_c, 13, 72, 0
22, 5550, Note_on_c, 13, 71, 47
22, 5630, Note_on_c, 13, 71, 0
22, 5640, Note_on_c, 13, 71, 47
22, 5760, Note_on_c, 13, 71, 0
22, 5760, Note_on_c, 13, 71, 47
22, 5790, Note_on_c, 13, 71, 0
22, 5790, Note_on_c, 13, 69, 47
22, 5870, Note_on_c, 13, 69, 0
22, 5880, Note_on_c, 13, 69, 47
22, 6000, Note_on_c, 13, 69, 0
22, 6000, Note_on_c, 13, 67, 47
22, 6060, Note_on_c, 13, 67, 0
22, 6060, Note_on_c, 13, 66, 47
22, 6090, Note_on_c, 13, 66, 0
22, 6120, Note_on_c, 13, 64, 47
22, 6150, Note_on_c, 13, 64, 0
22, 6180, Note_on_c, 13, 66, 47
22, 6210, Note_on_c, 13, 66, 0
22, 6240, Note_on_c, 13, 67, 47
22, 6300, Note_on_c, 13, 67, 0
22, 6360, Note_on_c, 13, 69, 47
22, 6420, Note_on_c, 13, 69, 0
22, 6480, Note_on_c, 13, 71, 47
22, 6540, Note_on_c, 13, 71, 0
22, 6720, Note_on_c, 13, 74, 47
22, 6960, Note_on_c, 13, 74, 0
22, 6960, Note_on_c, 13, 76, 47
22, 7200, Note_on_c, 13, 76, 0
22, 7200, Note_on_c, 13, 74, 47
22, 7260, Note_on_c, 13, 74, 0
22, 7260, Note_on_c, 13, 72, 47
22, 7290, Note_on_c, 13, 72, 0
22, 7320, Note_on_c, 13, 72, 47
22, 7350, Note_on_c, 13, 72, 0
22, 7380, Note_on_c, 13, 72, 47
22, 7410, Note_on_c, 13, 72, 0
22, 7440, Note_on_c, 13, 72, 47
22, 7500, Note_on_c, 13, 72, 0
22, 7500, Note_on_c, 13, 71, 47
22, 7530, Note_on_c, 13, 71, 0
22, 7560, Note_on_c, 13, 71, 47
22, 7590, Note_on_c, 13, 71, 0
22, 7620, Note_on_c, 13, 71, 47
22, 7650, Note_on_c, 13, 71, 0
22, 7680, Note_on_c, 13, 71, 47
22, 7740, Note_on_c, 13, 71, 0
22, 7740, Note_on_c, 13, 69, 47
22, 7770, Note_on_c, 13, 69, 0
22, 7800, Note_on_c, 13, 69, 47
22, 7845, Note_on_c, 13, 69, 0
22, 7860, Note_on_c, 13, 69, 47
22, 7905, Note_on_c, 13, 69, 0
22, 7920, Note_on_c, 13, 67, 47
22, 7980, Note_on_c, 13, 67, 0
22, 7980, Note_on_c, 13, 66, 47
22, 8040, Note_on_c, 13, 66, 0
22, 8040, Note_on_c, 13, 64, 47
22, 8100, Note_on_c, 13, 64, 0
22, 8100, Note_on_c, 13, 66, 47
22, 8160, Note_on_c, 13, 66, 0
22, 8160, Note_on_c, 13, 55, 85
22, 8160, Note_on_c, 13, 67, 85
22, 8460, Note_on_c, 13, 67, 0
22, 8460, Note_on_c, 13, 55, 0
22, 8460, Note_on_c, 13, 67, 61
22, 8475, Note_on_c, 13, 67, 0
22, 8475, Note_on_c, 13, 69, 61
22, 8490, Note_on_c, 13, 69, 0
22, 8490, Note_on_c, 13, 66, 61
22, 8505, Note_on_c, 13, 66, 0
22, 8505, Note_on_c, 13, 67, 61
22, 8520, Note_on_c, 13, 67, 0
22, 8520, Note_on_c, 13, 69, 61
22, 8580, Note_on_c, 13, 69, 0
22, 8580, Note_on_c, 13, 66, 61
22, 8640, Note_on_c, 13, 66, 0
22, 8640, Note_on_c, 13, 71, 85
22, 8940, Note_on_c, 13, 71, 0
22, 8940, Note_on_c, 13, 71, 61
22, 8955, Note_on_c, 13, 71, 0
22, 8955, Note_on_c, 13, 72, 61
22, 8970, Note_on_c, 13, 72, 0
22, 8970, Note_on_c, 13, 69, 61
22, 8985, Note_on_c, 13, 69, 0
22, 8985, Note_on_c, 13, 71, 61
22, 9000, Note_on_c, 13, 71, 0
22, 9000, Note_on_c, 13, 72, 61
22, 9060, Note_on_c, 13, 72, 0
22, 9060, Note_on_c, 13, 69, 61
22, 9120, Note_on_c, 13, 69, 0
22, 9120, Note_on_c, 13, 74, 46
22, 9140, Note_on_c, 13, 74, 0
22, 9150, Note_on_c, 13, 74, 46
22, 9170, Note_on_c, 13, 74, 0
22, 9180, Note_on_c, 13, 74, 47
22, 9200, Note_on_c, 13, 74, 0
22, 9210, Note_on_c, 13, 74, 47
22, 9230, Note_on_c, 13, 74, 0
22, 9240, Note_on_c, 13, 74, 49
22, 9260, Note_on_c, 13, 74, 0
22, 9270, Note_on_c, 13, 74, 50
22, 9290, Note_on_c, 13, 74, 0
22, 9300, Note_on_c, 13, 74, 50
22, 9320, Note_on_c, 13, 74, 0
22, 9330, Note_on_c, 13, 74, 52
22, 9350, Note_on_c, 13, 74, 0
22, 9360, Note_on_c, 13, 76, 53
22, 9380, Note_on_c, 13, 76, 0
22, 9390, Note_on_c, 13, 76, 53
22, 9410, Note_on_c, 13, 76, 0
22, 9420, Note_on_c, 13, 76, 55
22, 9440, Note_on_c, 13, 76, 0
22, 9450, Note_on_c, 13, 76, 56
22, 9470, Note_on_c, 13, 76, 0
22, 9480, Note_on_c, 13, 78, 56
22, 9500, Note_on_c, 13, 78, 0
22, 9510, Note_on_c, 13, 78, 58
22, 9530, Note_on_c, 13, 78, 0
22, 9540, Note_on_c, 13, 78, 58
22, 9560, Note_on_c, 13, 78, 0
22, 9570, Note_on_c, 13, 78, 59
22, 9590, Note_on_c, 13, 78, 0
22, 9600, Note_on_c, 13, 79, 61
22, 9620, Note_on_c, 13, 79, 0
22, 9630, Note_on_c, 13, 79, 61
22, 9650, Note_on_c, 13, 79, 0
22, 9660, Note_on_c, 13, 79, 62
22, 9680, Note_on_c, 13, 79, 0
22, 9690, Note_on_c, 13, 79, 64
22, 9710, Note_on_c, 13, 79, 0
22, 9720, Note_on_c, 13, 81, 64
22, 9740, Note_on_c, 13, 81, 0
22, 9750, Note_on_c, 13, 81, 65
22, 9770, Note_on_c, 13, 81, 0
22, 9780, Note_on_c, 13, 81, 67
22, 9800, Note_on_c, 13, 81, 0
22, 9810, Note_on_c, 13, 81, 67
22, 9830, Note_on_c, 13, 81, 0
22, 9840, Note_on_c, 13, 83, 68
22, 9860, Note_on_c, 13, 83, 0
22, 9870, Note_on_c, 13, 83, 68
22, 9890, Note_on_c, 13, 83, 0
22, 9900, Note_on_c, 13, 83, 70
22, 9920, Note_on_c, 13, 83, 0
22, 9930, Note_on_c, 13, 83, 71
22, 9950, Note_on_c, 13, 83, 0
22, 9960, Note_on_c, 13, 85, 71
22, 9980, Note_on_c, 13, 85, 0
22, 9990, Note_on_c, 13, 85, 73
22, 10010, Note_on_c, 13, 85, 0
22, 10020, Note_on_c, 13, 85, 74
22, 10040, Note_on_c, 13, 85, 0
22, 10050, Note_on_c, 13, 85, 74
22, 10070, Note_on_c, 13, 85, 0
22, 10080, Note_on_c, 13, 86, 85
22, 10260, Note_on_c, 13, 86, 0
22, 10260, Note_on_c, 13, 81, 85
22, 10320, Note_on_c, 13, 81, 0
22, 10320, Note_on_c, 13, 85, 94
22, 10410, Note_on_c, 13, 85, 0
22, 10410, Note_on_c, 13, 81, 85
22, 10440, Note_on_c, 13, 81, 0
22, 10440, Note_on_c, 13, 85, 85
22, 10530, Note_on_c, 13, 85, 0
22, 10530, Note_on_c, 13, 81, 85
22, 10560, Note_on_c, 13, 81, 0
22, 10560, Note_on_c, 13, 86, 85
22, 10740, Note_on_c, 13, 86, 0
22, 10740, Note_on_c, 13, 81, 85
22, 10800, Note_on_c, 13, 81, 0
22, 10800, Note_on_c, 13, 85, 85
22, 10890, Note_on_c, 13, 85, 0
22, 10890, Note_on_c, 13, 81, 85
22, 10920, Note_on_c, 13, 81, 0
22, 10920, Note_on_c, 13, 85, 85
22, 11010, Note_on_c, 13, 85, 0
22, 11010, Note_on_c, 13, 81, 85
22, 11040, Note_on_c, 13, 81, 0
22, 11040, Note_on_c, 13, 86, 85
22, 11070, Note_on_c, 13, 86, 0
22, 11100, Note_on_c, 13, 78, 85
22, 11100, Note_on_c, 13, 86, 85
22, 11190, Note_on_c, 13, 86, 0
22, 11190, Note_on_c, 13, 78, 0
22, 11220, Note_on_c, 13, 78, 85
22, 11220, Note_on_c, 13, 86, 85
22, 11310, Note_on_c, 13, 86, 0
22, 11310, Note_on_c, 13, 78, 0
22, 11340, Note_on_c, 13, 78, 85
22, 11340, Note_on_c, 13, 86, 85
22, 11430, Note_on_c, 13, 86, 0
22, 11430, Note_on_c, 13, 78, 0
22, 11460, Note_on_c, 13, 78, 85
22, 11460, Note_on_c, 13, 86, 85
22, 11520, Note_on_c, 13, 78, 0
22, 11520, Note_on_c, 13, 76, 85
22, 11550, Note_on_c, 13, 76, 0
22, 11550, Note_on_c, 13, 86, 0
22, 11580, Note_on_c, 13, 76, 85
22, 11580, Note_on_c, 13, 86, 85
22, 11670, Note_on_c, 13, 86, 0
22, 11670, Note_on_c, 13, 76, 0
22, 11700, Note_on_c, 13, 76, 85
22, 11700, Note_on_c, 13, 86, 85
22, 11790, Note_on_c, 13, 86, 0
22, 11790, Note_on_c, 13, 76, 0
22, 11820, Note_on_c, 13, 76, 85
22, 11820, Note_on_c, 13, 86, 85
22, 11910, Note_on_c, 13, 86, 0
22, 11910, Note_on_c, 13, 76, 0
22, 11940, Note_on_c, 13, 76, 85
22, 11940, Note_on_c, 13, 86, 85
22, 12000, Note_on_c, 13, 86, 0
22, 12000, Note_on_c, 13, 76, 0
22, 12000, Note_on_c, 13, 76, 92
22, 12000, Note_on_c, 13, 85, 92
22, 12045, Note_on_c, 13, 85, 0
22, 12045, Note_on_c, 13, 76, 0
22, 12060, Note_on_c, 13, 81, 85
22, 12105, Note_on_c, 13, 81, 0
22, 12120, Note_on_c, 13, 86, 85
22, 12165, Note_on_c, 13, 86, 0
22, 12180, Note_on_c, 13, 81, 85
22, 12225, Note_on_c, 13, 81, 0
22, 12240, Note_on_c, 13, 85, 85
22, 12285, Note_on_c, 13, 85, 0
22, 12300, Note_on_c, 13, 81, 85
22, 12345, Note_on_c, 13, 81, 0
22, 12360, Note_on_c, 13, 86, 85
22, 12405, Note_on_c, 13, 86, 0
22, 12420, Note_on_c, 13, 81, 85
22, 12465, Note_on_c, 13, 81, 0
22, 12480, Note_on_c, 13, 85, 94
22, 12525, Note_on_c, 13, 85, 0
22, 12540, Note_on_c, 13, 69, 85
22, 12585, Note_on_c, 13, 69, 0
22, 12600, Note_on_c, 13, 69, 85
22, 12645, Note_on_c, 13, 69, 0
22, 12660, Note_on_c, 13, 69, 85
22, 12705, Note_on_c, 13, 69, 0
22, 12720, Note_on_c, 13, 69, 85
22, 12840, Note_on_c, 13, 69, 0
22, 12950, Control_c, 13, 11, 77
22, 12960, Note_on_c, 13, 81, 55
22, 12964, Control_c, 13, 11, 80
22, 12966, Control_c, 13, 11, 82
22, 12970, Control_c, 13, 11, 83
22, 12974, Control_c, 13, 11, 85
22, 12978, Control_c, 13, 11, 87
22, 12994, Control_c, 13, 11, 93
22, 12998, Control_c, 13, 11, 101
22, 13010, Control_c, 13, 11, 107
22, 13022, Control_c, 13, 11, 113
22, 13034, Control_c, 13, 11, 115
22, 13038, Control_c, 13, 11, 117
22, 13042, Control_c, 13, 11, 118
22, 13044, Control_c, 13, 11, 119
22, 13048, Control_c, 13, 11, 120
22, 13052, Control_c, 13, 11, 121
22, 13056, Control_c, 13, 11, 122
22, 13058, Control_c, 13, 11, 123
22, 13060, Control_c, 13, 11, 124
22, 13064, Control_c, 13, 11, 127
22, 13140, Note_on_c, 13, 81, 0
22, 13140, Note_on_c, 13, 79, 55
22, 13160, Note_on_c, 13, 79, 0
22, 13160, Note_on_c, 13, 78, 55
22, 13180, Note_on_c, 13, 78, 0
22, 13180, Note_on_c, 13, 76, 55
22, 13200, Note_on_c, 13, 76, 0
22, 13200, Note_on_c, 13, 74, 55
22, 13260, Note_on_c, 13, 74, 0
22, 13320, Note_on_c, 13, 83, 55
22, 13380, Note_on_c, 13, 83, 0
22, 13440, Note_on_c, 13, 79, 55
22, 13500, Note_on_c, 13, 79, 0
22, 13560, Note_on_c, 13, 76, 55
22, 13620, Note_on_c, 13, 76, 0
22, 13680, Note_on_c, 13, 81, 55
22, 13740, Note_on_c, 13, 81, 0
22, 13920, Note_on_c, 13, 78, 55
22, 14100, Note_on_c, 13, 78, 0
22, 14100, Note_on_c, 13, 76, 55
22, 14120, Note_on_c, 13, 76, 0
22, 14120, Note_on_c, 13, 74, 55
22, 14140, Note_on_c, 13, 74, 0
22, 14140, Note_on_c, 13, 73, 55
22, 14160, Note_on_c, 13, 73, 0
22, 14160, Note_on_c, 13, 71, 55
22, 14220, Note_on_c, 13, 71, 0
22, 14280, Note_on_c, 13, 79, 55
22, 14340, Note_on_c, 13, 79, 0
22, 14400, Note_on_c, 13, 78, 55
22, 14640, Note_on_c, 13, 78, 0
22, 14640, Note_on_c, 13, 76, 49
22, 14760, Note_on_c, 13, 76, 0
22, 14940, Note_on_c, 13, 81, 55
22, 14970, Note_on_c, 13, 81, 0
22, 15000, Note_on_c, 13, 81, 55
22, 15030, Note_on_c, 13, 81, 0
22, 15060, Note_on_c, 13, 81, 55
22, 15090, Note_on_c, 13, 81, 0
22, 15120, Note_on_c, 13, 81, 55
22, 15150, Note_on_c, 13, 81, 0
22, 15180, Note_on_c, 13, 81, 55
22, 15210, Note_on_c, 13, 81, 0
22, 15240, Note_on_c, 13, 81, 55
22, 15270, Note_on_c, 13, 81, 0
22, 15300, Note_on_c, 13, 81, 55
22, 15330, Note_on_c, 13, 81, 0
22, 15360, Note_on_c, 13, 81, 55
22, 15390, Note_on_c, 13, 81, 0
22, 15420, Note_on_c, 13, 81, 55
22, 15450, Note_on_c, 13, 81, 0
22, 15480, Note_on_c, 13, 81, 55
22, 15510, Note_on_c, 13, 81, 0
22, 15540, Note_on_c, 13, 81, 55
22, 15570, Note_on_c, 13, 81, 0
22, 15600, Note_on_c, 13, 81, 55
22, 15630, Note_on_c, 13, 81, 0
22, 15660, Note_on_c, 13, 81, 55
22, 15690, Note_on_c, 13, 81, 0
22, 15720, Note_on_c, 13, 83, 55
22, 15750, Note_on_c, 13, 83, 0
22, 15780, Note_on_c, 13, 85, 55
22, 15810, Note_on_c, 13, 85, 0
22, 15840, Note_on_c, 13, 85, 55
22, 15900, Note_on_c, 13, 85, 0
22, 15900, Note_on_c, 13, 86, 55
22, 15960, Note_on_c, 13, 86, 0
22, 16020, Note_on_c, 13, 83, 55
22, 16050, Note_on_c, 13, 83, 0
22, 16080, Note_on_c, 13, 83, 55
22, 16140, Note_on_c, 13, 83, 0
22, 16140, Note_on_c, 13, 81, 55
22, 16200, Note_on_c, 13, 81, 0
22, 16260, Note_on_c, 13, 73, 55
22, 16305, Note_on_c, 13, 73, 0
22, 16320, Note_on_c, 13, 74, 55
22, 16440, Note_on_c, 13, 74, 0
22, 16500, Note_on_c, 13, 81, 55
22, 16530, Note_on_c, 13, 81, 0
22, 16560, Note_on_c, 13, 86, 55
22, 16620, Note_on_c, 13, 86, 0
22, 16620, Note_on_c, 13, 85, 55
22, 16680, Note_on_c, 13, 85, 0
22, 16680, Note_on_c, 13, 83, 55
22, 16740, Note_on_c, 13, 83, 0
22, 16740, Note_on_c, 13, 81, 55
22, 16800, Note_on_c, 13, 81, 0
22, 16800, Note_on_c, 13, 83, 55
22, 16815, Note_on_c, 13, 83, 0
22, 16815, Note_on_c, 13, 85, 55
22, 16830, Note_on_c, 13, 85, 0
22, 16830, Note_on_c, 13, 83, 55
22, 16845, Note_on_c, 13, 83, 0
22, 16845, Note_on_c, 13, 85, 55
22, 16860, Note_on_c, 13, 85, 0
22, 16860, Note_on_c, 13, 81, 55
22, 16920, Note_on_c, 13, 81, 0
22, 16980, Note_on_c, 13, 81, 55
22, 17010, Note_on_c, 13, 81, 0
22, 17040, Note_on_c, 13, 81, 55
22, 17070, Note_on_c, 13, 81, 0
22, 17100, Note_on_c, 13, 81, 55
22, 17130, Note_on_c, 13, 81, 0
22, 17160, Note_on_c, 13, 81, 55
22, 17190, Note_on_c, 13, 81, 0
22, 17220, Note_on_c, 13, 81, 55
22, 17250, Note_on_c, 13, 81, 0
22, 17280, Note_on_c, 13, 83, 55
22, 17295, Note_on_c, 13, 83, 0
22, 17295, Note_on_c, 13, 85, 55
22, 17310, Note_on_c, 13, 85, 0
22, 17310, Note_on_c, 13, 83, 55
22, 17325, Note_on_c, 13, 83, 0
22, 17325, Note_on_c, 13, 85, 55
22, 17340, Note_on_c, 13, 85, 0
22, 17340, Note_on_c, 13, 81, 55
22, 17400, Note_on_c, 13, 81, 0
22, 17460, Note_on_c, 13, 81, 55
22, 17505, Note_on_c, 13, 81, 0
22, 17520, Note_on_c, 13, 86, 55
22, 17580, Note_on_c, 13, 86, 0
22, 17580, Note_on_c, 13, 85, 55
22, 17640, Note_on_c, 13, 85, 0
22, 17640, Note_on_c, 13, 83, 55
22, 17700, Note_on_c, 13, 83, 0
22, 17700, Note_on_c, 13, 81, 55
22, 17760, Note_on_c, 13, 81, 0
22, 17760, Note_on_c, 13, 83, 55
22, 17775, Note_on_c, 13, 83, 0
22, 17775, Note_on_c, 13, 85, 55
22, 17790, Note_on_c, 13, 85, 0
22, 17790, Note_on_c, 13, 83, 55
22, 17805, Note_on_c, 13, 83, 0
22, 17805, Note_on_c, 13, 85, 55
22, 17820, Note_on_c, 13, 85, 0
22, 17820, Note_on_c, 13, 81, 55
22, 17880, Note_on_c, 13, 81, 0
22, 17940, Note_on_c, 13, 81, 55
22, 17970, Note_on_c, 13, 81, 0
22, 18000, Note_on_c, 13, 81, 55
22, 18030, Note_on_c, 13, 81, 0
22, 18060, Note_on_c, 13, 81, 55
22, 18090, Note_on_c, 13, 81, 0
22, 18120, Note_on_c, 13, 81, 55
22, 18150, Note_on_c, 13, 81, 0
22, 18180, Note_on_c, 13, 81, 53
22, 18210, Note_on_c, 13, 81, 0
22, 18240, Note_on_c, 13, 83, 49
22, 18255, Note_on_c, 13, 83, 0
22, 18255, Note_on_c, 13, 85, 49
22, 18270, Note_on_c, 13, 85, 0
22, 18270, Note_on_c, 13, 83, 47
22, 18285, Note_on_c, 13, 83, 0
22, 18285, Note_on_c, 13, 85, 47
22, 18300, Note_on_c, 13, 85, 0
22, 18300, Note_on_c, 13, 81, 46
22, 18360, Note_on_c, 13, 81, 0
22, 18480, Note_on_c, 13, 71, 91
22, 18480, Note_on_c, 13, 83, 91
22, 18650, Note_on_c, 13, 83, 0
22, 18650, Note_on_c, 13, 71, 0
22, 18660, Note_on_c, 13, 81, 89
22, 18680, Note_on_c, 13, 81, 0
22, 18680, Note_on_c, 13, 79, 92
22, 18700, Note_on_c, 13, 79, 0
22, 18700, Note_on_c, 13, 78, 94
22, 18720, Note_on_c, 13, 78, 0
22, 18720, Note_on_c, 13, 79, 97
22, 18840, Note_on_c, 13, 79, 0
22, 18960, Note_on_c, 13, 81, 85
22, 18960, Note_on_c, 13, 69, 85
22, 19130, Note_on_c, 13, 69, 0
22, 19130, Note_on_c, 13, 81, 0
22, 19140, Note_on_c, 13, 79, 86
22, 19160, Note_on_c, 13, 79, 0
22, 19160, Note_on_c, 13, 78, 86
22, 19180, Note_on_c, 13, 78, 0
22, 19180, Note_on_c, 13, 76, 89
22, 19200, Note_on_c, 13, 76, 0
22, 19200, Note_on_c, 13, 78, 92
22, 19320, Note_on_c, 13, 78, 0
22, 19440, Note_on_c, 13, 83, 85
22, 19500, Note_on_c, 13, 83, 0
22, 19500, Note_on_c, 13, 85, 85
22, 19530, Note_on_c, 13, 85, 0
22, 19530, Note_on_c, 13, 86, 89
22, 19560, Note_on_c, 13, 86, 0
22, 19560, Note_on_c, 13, 85, 94
22, 19605, Note_on_c, 13, 85, 0
22, 19620, Note_on_c, 13, 83, 95
22, 19650, Note_on_c, 13, 83, 0
22, 19680, Note_on_c, 13, 83, 97
22, 19740, Note_on_c, 13, 83, 0
22, 19740, Note_on_c, 13, 81, 101
22, 19785, Note_on_c, 13, 81, 0
22, 19800, Note_on_c, 13, 78, 104
22, 19830, Note_on_c, 13, 78, 0
22, 19860, Note_on_c, 13, 81, 104
22, 19890, Note_on_c, 13, 81, 0
22, 19920, Note_on_c, 13, 81, 104
22, 19980, Note_on_c, 13, 81, 0
22, 19980, Note_on_c, 13, 79, 103
22, 20025, Note_on_c, 13, 79, 0
22, 20040, Note_on_c, 13, 78, 98
22, 20070, Note_on_c, 13, 78, 0
22, 20100, Note_on_c, 13, 76, 89
22, 20130, Note_on_c, 13, 76, 0
22, 20160, Note_on_c, 13, 74, 85
22, 20280, Note_on_c, 13, 74, 0
22, 20340, Note_on_c, 13, 81, 53
22, 20370, Note_on_c, 13, 81, 0
22, 20400, Note_on_c, 13, 86, 53
22, 20460, Note_on_c, 13, 86, 0
22, 20460, Note_on_c, 13, 85, 53
22, 20520, Note_on_c, 13, 85, 0
22, 20520, Note_on_c, 13, 83, 53
22, 20580, Note_on_c, 13, 83, 0
22, 20580, Note_on_c, 13, 81, 53
22, 20640, Note_on_c, 13, 81, 0
22, 20640, Note_on_c, 13, 83, 55
22, 20655, Note_on_c, 13, 83, 0
22, 20655, Note_on_c, 13, 85, 55
22, 20670, Note_on_c, 13, 85, 0
22, 20670, Note_on_c, 13, 83, 55
22, 20685, Note_on_c, 13, 83, 0
22, 20685, Note_on_c, 13, 85, 55
22, 20700, Note_on_c, 13, 85, 0
22, 20700, Note_on_c, 13, 81, 55
22, 20760, Note_on_c, 13, 81, 0
22, 20820, Note_on_c, 13, 81, 55
22, 20850, Note_on_c, 13, 81, 0
22, 20880, Note_on_c, 13, 81, 55
22, 20910, Note_on_c, 13, 81, 0
22, 20940, Note_on_c, 13, 81, 55
22, 20970, Note_on_c, 13, 81, 0
22, 21000, Note_on_c, 13, 81, 55
22, 21030, Note_on_c, 13, 81, 0
22, 21060, Note_on_c, 13, 81, 55
22, 21090, Note_on_c, 13, 81, 0
22, 21120, Note_on_c, 13, 83, 55
22, 21135, Note_on_c, 13, 83, 0
22, 21135, Note_on_c, 13, 85, 55
22, 21150, Note_on_c, 13, 85, 0
22, 21150, Note_on_c, 13, 83, 55
22, 21165, Note_on_c, 13, 83, 0
22, 21165, Note_on_c, 13, 85, 55
22, 21180, Note_on_c, 13, 85, 0
22, 21180, Note_on_c, 13, 81, 55
22, 21240, Note_on_c, 13, 81, 0
22, 21300, Note_on_c, 13, 81, 55
22, 21345, Note_on_c, 13, 81, 0
22, 21360, Note_on_c, 13, 86, 55
22, 21420, Note_on_c, 13, 86, 0
22, 21420, Note_on_c, 13, 85, 55
22, 21480, Note_on_c, 13, 85, 0
22, 21480, Note_on_c, 13, 83, 55
22, 21540, Note_on_c, 13, 83, 0
22, 21540, Note_on_c, 13, 81, 55
22, 21600, Note_on_c, 13, 81, 0
22, 21600, Note_on_c, 13, 83, 55
22, 21615, Note_on_c, 13, 83, 0
22, 21615, Note_on_c, 13, 85, 55
22, 21630, Note_on_c, 13, 85, 0
22, 21630, Note_on_c, 13, 83, 55
22, 21645, Note_on_c, 13, 83, 0
22, 21645, Note_on_c, 13, 85, 55
22, 21660, Note_on_c, 13, 85, 0
22, 21660, Note_on_c, 13, 81, 55
22, 21720, Note_on_c, 13, 81, 0
22, 21780, Note_on_c, 13, 81, 55
22, 21810, Note_on_c, 13, 81, 0
22, 21840, Note_on_c, 13, 81, 55
22, 21870, Note_on_c, 13, 81, 0
22, 21900, Note_on_c, 13, 81, 55
22, 21930, Note_on_c, 13, 81, 0
22, 21960, Note_on_c, 13, 81, 55
22, 21990, Note_on_c, 13, 81, 0
22, 22020, Note_on_c, 13, 81, 55
22, 22050, Note_on_c, 13, 81, 0
22, 22080, Note_on_c, 13, 83, 59
22, 22095, Note_on_c, 13, 83, 0
22, 22095, Note_on_c, 13, 85, 59
22, 22110, Note_on_c, 13, 85, 0
22, 22110, Note_on_c, 13, 83, 59
22, 22125, Note_on_c, 13, 83, 0
22, 22125, Note_on_c, 13, 85, 59
22, 22140, Note_on_c, 13, 85, 0
22, 22140, Note_on_c, 13, 81, 59
22, 22200, Note_on_c, 13, 81, 0
22, 22320, Note_on_c, 13, 71, 85
22, 22320, Note_on_c, 13, 83, 85
22, 22490, Note_on_c, 13, 83, 0
22, 22490, Note_on_c, 13, 71, 0
22, 22500, Note_on_c, 13, 81, 85
22, 22520, Note_on_c, 13, 81, 0
22, 22520, Note_on_c, 13, 79, 85
22, 22540, Note_on_c, 13, 79, 0
22, 22540, Note_on_c, 13, 78, 85
22, 22560, Note_on_c, 13, 78, 0
22, 22560, Note_on_c, 13, 79, 85
22, 22680, Note_on_c, 13, 79, 0
22, 22800, Note_on_c, 13, 81, 85
22, 22800, Note_on_c, 13, 69, 85
22, 22970, Note_on_c, 13, 69, 0
22, 22970, Note_on_c, 13, 81, 0
22, 22980, Note_on_c, 13, 79, 85
22, 23000, Note_on_c, 13, 79, 0
22, 23000, Note_on_c, 13, 78, 85
22, 23020, Note_on_c, 13, 78, 0
22, 23020, Note_on_c, 13, 76, 85
22, 23040, Note_on_c, 13, 76, 0
22, 23040, Note_on_c, 13, 78, 85
22, 23160, Note_on_c, 13, 78, 0
22, 23280, Note_on_c, 13, 83, 80
22, 23340, Note_on_c, 13, 83, 0
22, 23340, Note_on_c, 13, 85, 82
22, 23370, Note_on_c, 13, 85, 0
22, 23370, Note_on_c, 13, 86, 83
22, 23400, Note_on_c, 13, 86, 0
22, 23400, Note_on_c, 13, 85, 83
22, 23445, Note_on_c, 13, 85, 0
22, 23460, Note_on_c, 13, 83, 85
22, 23490, Note_on_c, 13, 83, 0
22, 23520, Note_on_c, 13, 83, 86
22, 23580, Note_on_c, 13, 83, 0
22, 23580, Note_on_c, 13, 81, 88
22, 23625, Note_on_c, 13, 81, 0
22, 23640, Note_on_c, 13, 78, 88
22, 23670, Note_on_c, 13, 78, 0
22, 23700, Note_on_c, 13, 81, 88
22, 23730, Note_on_c, 13, 81, 0
22, 23760, Note_on_c, 13, 81, 88
22, 23820, Note_on_c, 13, 81, 0
22, 23820, Note_on_c, 13, 79, 88
22, 23865, Note_on_c, 13, 79, 0
22, 23880, Note_on_c, 13, 78, 88
22, 23910, Note_on_c, 13, 78, 0
22, 23940, Note_on_c, 13, 76, 88
22, 23970, Note_on_c, 13, 76, 0
22, 24000, Note_on_c, 13, 74, 88
22, 24045, Note_on_c, 13, 74, 0
22, 24060, Note_on_c, 13, 69, 88
22, 24105, Note_on_c, 13, 69, 0
22, 24120, Note_on_c, 13, 71, 88
22, 24165, Note_on_c, 13, 71, 0
22, 24180, Note_on_c, 13, 73, 85
22, 24225, Note_on_c, 13, 73, 0
22, 24240, Note_on_c, 13, 74, 82
22, 24270, Note_on_c, 13, 74, 0
22, 24300, Note_on_c, 13, 74, 85
22, 24330, Note_on_c, 13, 74, 0
22, 24360, Note_on_c, 13, 76, 85
22, 24375, Note_on_c, 13, 76, 0
22, 24375, Note_on_c, 13, 78, 85
22, 24390, Note_on_c, 13, 78, 0
22, 24390, Note_on_c, 13, 76, 85
22, 24405, Note_on_c, 13, 76, 0
22, 24405, Note_on_c, 13, 78, 85
22, 24420, Note_on_c, 13, 78, 0
22, 24420, Note_on_c, 13, 74, 85
22, 24450, Note_on_c, 13, 74, 0
22, 24450, Note_on_c, 13, 76, 85
22, 24480, Note_on_c, 13, 76, 0
22, 24480, Note_on_c, 13, 78, 85
22, 24540, Note_on_c, 13, 78, 0
22, 24540, Note_on_c, 13, 73, 85
22, 24585, Note_on_c, 13, 73, 0
22, 24600, Note_on_c, 13, 74, 85
22, 24645, Note_on_c, 13, 74, 0
22, 24660, Note_on_c, 13, 76, 85
22, 24705, Note_on_c, 13, 76, 0
22, 24720, Note_on_c, 13, 78, 85
22, 24765, Note_on_c, 13, 78, 0
22, 24780, Note_on_c, 13, 78, 85
22, 24825, Note_on_c, 13, 78, 0
22, 24840, Note_on_c, 13, 79, 85
22, 24855, Note_on_c, 13, 79, 0
22, 24855, Note_on_c, 13, 81, 86
22, 24870, Note_on_c, 13, 81, 0
22, 24870, Note_on_c, 13, 79, 88
22, 24885, Note_on_c, 13, 79, 0
22, 24885, Note_on_c, 13, 81, 88
22, 24900, Note_on_c, 13, 81, 0
22, 24900, Note_on_c, 13, 78, 88
22, 24930, Note_on_c, 13, 78, 0
22, 24930, Note_on_c, 13, 79, 88
22, 24960, Note_on_c, 13, 79, 0
22, 24960, Note_on_c, 13, 81, 88
22, 25005, Note_on_c, 13, 81, 0
22, 25020, Note_on_c, 13, 81, 91
22, 25065, Note_on_c, 13, 81, 0
22, 25080, Note_on_c, 13, 82, 92
22, 25095, Note_on_c, 13, 82, 0
22, 25095, Note_on_c, 13, 83, 92
22, 25110, Note_on_c, 13, 83, 0
22, 25110, Note_on_c, 13, 82, 94
22, 25125, Note_on_c, 13, 82, 0
22, 25125, Note_on_c, 13, 83, 94
22, 25140, Note_on_c, 13, 83, 0
22, 25140, Note_on_c, 13, 80, 95
22, 25170, Note_on_c, 13, 80, 0
22, 25170, Note_on_c, 13, 82, 97
22, 25200, Note_on_c, 13, 82, 0
22, 25200, Note_on_c, 13, 83, 100
22, 25320, Note_on_c, 13, 83, 0
22, 25440, Note_on_c, 13, 71, 47
22, 25620, Note_on_c, 13, 71, 0
22, 25620, Note_on_c, 13, 76, 47
22, 25665, Note_on_c, 13, 76, 0
22, 25680, Note_on_c, 13, 74, 47
22, 25740, Note_on_c, 13, 74, 0
22, 25740, Note_on_c, 13, 73, 47
22, 25800, Note_on_c, 13, 73, 0
22, 25800, Note_on_c, 13, 71, 49
22, 25860, Note_on_c, 13, 71, 0
22, 25860, Note_on_c, 13, 69, 50
22, 25920, Note_on_c, 13, 69, 0
22, 25920, Note_on_c, 13, 74, 50
22, 25980, Note_on_c, 13, 74, 0
22, 26040, Note_on_c, 13, 78, 50
22, 26100, Note_on_c, 13, 78, 0
22, 26160, Note_on_c, 13, 74, 41
22, 26220, Note_on_c, 13, 74, 0
22, 26400, Note_on_c, 13, 62, 85
22, 26400, Note_on_c, 13, 79, 85
22, 26400, Note_on_c, 13, 71, 85
22, 26520, Note_on_c, 13, 71, 0
22, 26520, Note_on_c, 13, 79, 0
22, 26520, Note_on_c, 13, 62, 0
22, 26580, Note_on_c, 13, 74, 85
22, 26610, Note_on_c, 13, 74, 0
22, 26640, Note_on_c, 13, 79, 85
22, 26760, Note_on_c, 13, 79, 0
22, 26820, Note_on_c, 13, 74, 85
22, 26850, Note_on_c, 13, 74, 0
22, 26880, Note_on_c, 13, 79, 85
22, 26910, Note_on_c, 13, 79, 0
22, 26940, Note_on_c, 13, 74, 85
22, 26970, Note_on_c, 13, 74, 0
22, 27000, Note_on_c, 13, 79, 85
22, 27030, Note_on_c, 13, 79, 0
22, 27060, Note_on_c, 13, 83, 85
22, 27090, Note_on_c, 13, 83, 0
22, 27120, Note_on_c, 13, 86, 85
22, 27240, Note_on_c, 13, 86, 0
22, 27360, Note_on_c, 13, 84, 85
22, 27480, Note_on_c, 13, 84, 0
22, 27540, Note_on_c, 13, 81, 76
22, 27570, Note_on_c, 13, 81, 0
22, 27600, Note_on_c, 13, 84, 85
22, 27720, Note_on_c, 13, 84, 0
22, 27780, Note_on_c, 13, 81, 76
22, 27810, Note_on_c, 13, 81, 0
22, 27840, Note_on_c, 13, 84, 85
22, 27870, Note_on_c, 13, 84, 0
22, 27900, Note_on_c, 13, 81, 74
22, 27930, Note_on_c, 13, 81, 0
22, 27960, Note_on_c, 13, 78, 85
22, 27990, Note_on_c, 13, 78, 0
22, 28020, Note_on_c, 13, 81, 71
22, 28050, Note_on_c, 13, 81, 0
22, 28080, Note_on_c, 13, 74, 85
22, 28200, Note_on_c, 13, 74, 0
22, 28320, Note_on_c, 13, 62, 85
22, 28320, Note_on_c, 13, 79, 85
22, 28320, Note_on_c, 13, 71, 85
22, 28380, Note_on_c, 13, 71, 0
22, 28380, Note_on_c, 13, 79, 0
22, 28380, Note_on_c, 13, 62, 0
22, 28440, Note_on_c, 13, 79, 85
22, 28620, Note_on_c, 13, 79, 0
22, 28620, Note_on_c, 13, 83, 85
22, 28680, Note_on_c, 13, 83, 0
22, 28680, Note_on_c, 13, 81, 85
22, 28710, Note_on_c, 13, 81, 0
22, 28740, Note_on_c, 13, 79, 85
22, 28770, Note_on_c, 13, 79, 0
22, 28800, Note_on_c, 13, 79, 85
22, 28815, Note_on_c, 13, 79, 0
22, 28815, Note_on_c, 13, 81, 85
22, 28830, Note_on_c, 13, 81, 0
22, 28830, Note_on_c, 13, 79, 85
22, 28845, Note_on_c, 13, 79, 0
22, 28845, Note_on_c, 13, 81, 85
22, 28860, Note_on_c, 13, 81, 0
22, 28860, Note_on_c, 13, 78, 85
22, 28910, Note_on_c, 13, 78, 0
22, 28920, Note_on_c, 13, 78, 85
22, 29100, Note_on_c, 13, 78, 0
22, 29100, Note_on_c, 13, 81, 85
22, 29160, Note_on_c, 13, 81, 0
22, 29160, Note_on_c, 13, 84, 85
22, 29190, Note_on_c, 13, 84, 0
22, 29220, Note_on_c, 13, 78, 85
22, 29250, Note_on_c, 13, 78, 0
22, 29280, Note_on_c, 13, 81, 85
22, 29340, Note_on_c, 13, 81, 0
22, 29340, Note_on_c, 13, 79, 85
22, 29370, Note_on_c, 13, 79, 0
22, 29400, Note_on_c, 13, 79, 85
22, 29580, Note_on_c, 13, 79, 0
22, 29580, Note_on_c, 13, 83, 85
22, 29640, Note_on_c, 13, 83, 0
22, 29640, Note_on_c, 13, 81, 85
22, 29670, Note_on_c, 13, 81, 0
22, 29700, Note_on_c, 13, 79, 85
22, 29730, Note_on_c, 13, 79, 0
22, 29760, Note_on_c, 13, 79, 85
22, 29775, Note_on_c, 13, 79, 0
22, 29775, Note_on_c, 13, 81, 85
22, 29790, Note_on_c, 13, 81, 0
22, 29790, Note_on_c, 13, 79, 85
22, 29805, Note_on_c, 13, 79, 0
22, 29805, Note_on_c, 13, 81, 85
22, 29820, Note_on_c, 13, 81, 0
22, 29820, Note_on_c, 13, 78, 85
22, 29870, Note_on_c, 13, 78, 0
22, 29880, Note_on_c, 13, 78, 85
22, 30060, Note_on_c, 13, 78, 0
22, 30060, Note_on_c, 13, 81, 85
22, 30120, Note_on_c, 13, 81, 0
22, 30120, Note_on_c, 13, 84, 85
22, 30150, Note_on_c, 13, 84, 0
22, 30180, Note_on_c, 13, 78, 85
22, 30210, Note_on_c, 13, 78, 0
22, 30240, Note_on_c, 13, 79, 85
22, 30270, Note_on_c, 13, 79, 0
22, 30300, Note_on_c, 13, 79, 85
22, 30330, Note_on_c, 13, 79, 0
22, 30360, Note_on_c, 13, 79, 85
22, 30390, Note_on_c, 13, 79, 0
22, 30390, Note_on_c, 13, 78, 85
22, 30420, Note_on_c, 13, 78, 0
22, 30420, Note_on_c, 13, 76, 85
22, 30450, Note_on_c, 13, 76, 0
22, 30450, Note_on_c, 13, 78, 85
22, 30480, Note_on_c, 13, 78, 0
22, 30480, Note_on_c, 13, 79, 85
22, 30510, Note_on_c, 13, 79, 0
22, 30540, Note_on_c, 13, 79, 85
22, 30570, Note_on_c, 13, 79, 0
22, 30600, Note_on_c, 13, 83, 85
22, 30630, Note_on_c, 13, 83, 0
22, 30630, Note_on_c, 13, 81, 85
22, 30660, Note_on_c, 13, 81, 0
22, 30660, Note_on_c, 13, 79, 85
22, 30690, Note_on_c, 13, 79, 0
22, 30690, Note_on_c, 13, 81, 85
22, 30720, Note_on_c, 13, 81, 0
22, 30720, Note_on_c, 13, 83, 85
22, 30750, Note_on_c, 13, 83, 0
22, 30780, Note_on_c, 13, 83, 85
22, 30810, Note_on_c, 13, 83, 0
22, 30840, Note_on_c, 13, 86, 85
22, 30870, Note_on_c, 13, 86, 0
22, 30870, Note_on_c, 13, 84, 85
22, 30900, Note_on_c, 13, 84, 0
22, 30900, Note_on_c, 13, 83, 85
22, 30930, Note_on_c, 13, 83, 0
22, 30930, Note_on_c, 13, 84, 85
22, 30960, Note_on_c, 13, 84, 0
22, 30960, Note_on_c, 13, 86, 85
22, 31080, Note_on_c, 13, 86, 0
22, 31200, Note_on_c, 13, 74, 52
22, 31440, Note_on_c, 13, 74, 0
22, 31440, Note_on_c, 13, 76, 40
22, 31680, Note_on_c, 13, 76, 0
22, 31680, Note_on_c, 13, 74, 44
22, 31710, Note_on_c, 13, 74, 0
22, 31710, Note_on_c, 13, 72, 46
22, 31790, Note_on_c, 13, 72, 0
22, 31800, Note_on_c, 13, 72, 46
22, 31920, Note_on_c, 13, 72, 0
22, 31920, Note_on_c, 13, 72, 47
22, 31950, Note_on_c, 13, 72, 0
22, 31950, Note_on_c, 13, 71, 47
22, 32030, Note_on_c, 13, 71, 0
22, 32040, Note_on_c, 13, 71, 47
22, 32160, Note_on_c, 13, 71, 0
22, 32160, Note_on_c, 13, 71, 47
22, 32190, Note_on_c, 13, 71, 0
22, 32190, Note_on_c, 13, 69, 47
22, 32270, Note_on_c, 13, 69, 0
22, 32280, Note_on_c, 13, 69, 47
22, 32400, Note_on_c, 13, 69, 0
22, 32400, Note_on_c, 13, 67, 47
22, 32460, Note_on_c, 13, 67, 0
22, 32460, Note_on_c, 13, 66, 47
22, 32490, Note_on_c, 13, 66, 0
22, 32520, Note_on_c, 13, 64, 47
22, 32550, Note_on_c, 13, 64, 0
22, 32580, Note_on_c, 13, 66, 47
22, 32610, Note_on_c, 13, 66, 0
22, 32640, Note_on_c, 13, 67, 47
22, 32700, Note_on_c, 13, 67, 0
22, 32760, Note_on_c, 13, 69, 47
22, 32820, Note_on_c, 13, 69, 0
22, 32880, Note_on_c, 13, 71, 47
22, 32940, Note_on_c, 13, 71, 0
22, 33120, Note_on_c, 13, 74, 54
22, 33360, Note_on_c, 13, 74, 0
22, 33360, Note_on_c, 13, 76, 59
22, 33600, Note_on_c, 13, 76, 0
22, 33600, Note_on_c, 13, 74, 47
22, 33660, Note_on_c, 13, 74, 0
22, 33660, Note_on_c, 13, 72, 47
22, 33690, Note_on_c, 13, 72, 0
22, 33720, Note_on_c, 13, 72, 47
22, 33750, Note_on_c, 13, 72, 0
22, 33780, Note_on_c, 13, 72, 47
22, 33810, Note_on_c, 13, 72, 0
22, 33840, Note_on_c, 13, 72, 47
22, 33900, Note_on_c, 13, 72, 0
22, 33900, Note_on_c, 13, 71, 47
22, 33930, Note_on_c, 13, 71, 0
22, 33960, Note_on_c, 13, 71, 47
22, 33990, Note_on_c, 13, 71, 0
22, 34020, Note_on_c, 13, 71, 47
22, 34050, Note_on_c, 13, 71, 0
22, 34080, Note_on_c, 13, 71, 47
22, 34140, Note_on_c, 13, 71, 0
22, 34140, Note_on_c, 13, 69, 47
22, 34170, Note_on_c, 13, 69, 0
22, 34200, Note_on_c, 13, 69, 47
22, 34245, Note_on_c, 13, 69, 0
22, 34260, Note_on_c, 13, 69, 47
22, 34305, Note_on_c, 13, 69, 0
22, 34320, Note_on_c, 13, 67, 47
22, 34380, Note_on_c, 13, 67, 0
22, 34380, Note_on_c, 13, 66, 47
22, 34440, Note_on_c, 13, 66, 0
22, 34440, Note_on_c, 13, 64, 47
22, 34500, Note_on_c, 13, 64, 0
22, 34500, Note_on_c, 13, 66, 47
22, 34560, Note_on_c, 13, 66, 0
22, 34560, Note_on_c, 13, 55, 95
22, 34560, Note_on_c, 13, 67, 95
22, 34860, Note_on_c, 13, 67, 0
22, 34860, Note_on_c, 13, 55, 0
22, 34860, Note_on_c, 13, 67, 61
22, 34875, Note_on_c, 13, 67, 0
22, 34875, Note_on_c, 13, 69, 61
22, 34890, Note_on_c, 13, 69, 0
22, 34890, Note_on_c, 13, 66, 61
22, 34905, Note_on_c, 13, 66, 0
22, 34905, Note_on_c, 13, 67, 61
22, 34920, Note_on_c, 13, 67, 0
22, 34920, Note_on_c, 13, 69, 61
22, 34980, Note_on_c, 13, 69, 0
22, 34980, Note_on_c, 13, 66, 61
22, 35040, Note_on_c, 13, 66, 0
22, 35040, Note_on_c, 13, 71, 85
22, 35340, Note_on_c, 13, 71, 0
22, 35340, Note_on_c, 13, 71, 61
22, 35355, Note_on_c, 13, 71, 0
22, 35355, Note_on_c, 13, 72, 61
22, 35370, Note_on_c, 13, 72, 0
22, 35370, Note_on_c, 13, 69, 61
22, 35385, Note_on_c, 13, 69, 0
22, 35385, Note_on_c, 13, 71, 61
22, 35400, Note_on_c, 13, 71, 0
22, 35400, Note_on_c, 13, 72, 61
22, 35460, Note_on_c, 13, 72, 0
22, 35460, Note_on_c, 13, 69, 61
22, 35520, Note_on_c, 13, 69, 0
22, 35520, Note_on_c, 13, 74, 46
22, 35540, Note_on_c, 13, 74, 0
22, 35550, Note_on_c, 13, 74, 46
22, 35570, Note_on_c, 13, 74, 0
22, 35580, Note_on_c, 13, 74, 47
22, 35600, Note_on_c, 13, 74, 0
22, 35610, Note_on_c, 13, 74, 47
22, 35630, Note_on_c, 13, 74, 0
22, 35640, Note_on_c, 13, 74, 49
22, 35660, Note_on_c, 13, 74, 0
22, 35670, Note_on_c, 13, 74, 50
22, 35690, Note_on_c, 13, 74, 0
22, 35700, Note_on_c, 13, 74, 50
22, 35720, Note_on_c, 13, 74, 0
22, 35730, Note_on_c, 13, 74, 52
22, 35750, Note_on_c, 13, 74, 0
22, 35760, Note_on_c, 13, 76, 53
22, 35780, Note_on_c, 13, 76, 0
22, 35790, Note_on_c, 13, 76, 53
22, 35810, Note_on_c, 13, 76, 0
22, 35820, Note_on_c, 13, 76, 55
22, 35840, Note_on_c, 13, 76, 0
22, 35850, Note_on_c, 13, 76, 56
22, 35870, Note_on_c, 13, 76, 0
22, 35880, Note_on_c, 13, 78, 56
22, 35900, Note_on_c, 13, 78, 0
22, 35910, Note_on_c, 13, 78, 58
22, 35930, Note_on_c, 13, 78, 0
22, 35940, Note_on_c, 13, 78, 58
22, 35960, Note_on_c, 13, 78, 0
22, 35970, Note_on_c, 13, 78, 59
22, 35990, Note_on_c, 13, 78, 0
22, 36000, Note_on_c, 13, 79, 61
22, 36020, Note_on_c, 13, 79, 0
22, 36030, Note_on_c, 13, 79, 61
22, 36050, Note_on_c, 13, 79, 0
22, 36060, Note_on_c, 13, 79, 62
22, 36080, Note_on_c, 13, 79, 0
22, 36090, Note_on_c, 13, 79, 64
22, 36110, Note_on_c, 13, 79, 0
22, 36120, Note_on_c, 13, 81, 64
22, 36140, Note_on_c, 13, 81, 0
22, 36150, Note_on_c, 13, 81, 65
22, 36170, Note_on_c, 13, 81, 0
22, 36180, Note_on_c, 13, 81, 67
22, 36200, Note_on_c, 13, 81, 0
22, 36210, Note_on_c, 13, 81, 67
22, 36230, Note_on_c, 13, 81, 0
22, 36240, Note_on_c, 13, 83, 68
22, 36260, Note_on_c, 13, 83, 0
22, 36270, Note_on_c, 13, 83, 68
22, 36290, Note_on_c, 13, 83, 0
22, 36300, Note_on_c, 13, 83, 70
22, 36320, Note_on_c, 13, 83, 0
22, 36330, Note_on_c, 13, 83, 71
22, 36350, Note_on_c, 13, 83, 0
22, 36360, Note_on_c, 13, 85, 71
22, 36380, Note_on_c, 13, 85, 0
22, 36390, Note_on_c, 13, 85, 73
22, 36410, Note_on_c, 13, 85, 0
22, 36420, Note_on_c, 13, 85, 74
22, 36440, Note_on_c, 13, 85, 0
22, 36450, Note_on_c, 13, 85, 74
22, 36470, Note_on_c, 13, 85, 0
22, 36480, Note_on_c, 13, 86, 92
22, 36660, Note_on_c, 13, 86, 0
22, 36660, Note_on_c, 13, 81, 85
22, 36720, Note_on_c, 13, 81, 0
22, 36720, Note_on_c, 13, 85, 85
22, 36810, Note_on_c, 13, 85, 0
22, 36810, Note_on_c, 13, 81, 85
22, 36840, Note_on_c, 13, 81, 0
22, 36840, Note_on_c, 13, 85, 85
22, 36930, Note_on_c, 13, 85, 0
22, 36930, Note_on_c, 13, 81, 85
22, 36960, Note_on_c, 13, 81, 0
22, 36960, Note_on_c, 13, 86, 98
22, 37140, Note_on_c, 13, 86, 0
22, 37140, Note_on_c, 13, 81, 85
22, 37200, Note_on_c, 13, 81, 0
22, 37200, Note_on_c, 13, 85, 85
22, 37290, Note_on_c, 13, 85, 0
22, 37290, Note_on_c, 13, 81, 85
22, 37320, Note_on_c, 13, 81, 0
22, 37320, Note_on_c, 13, 85, 85
22, 37410, Note_on_c, 13, 85, 0
22, 37410, Note_on_c, 13, 81, 85
22, 37440, Note_on_c, 13, 81, 0
22, 37440, Note_on_c, 13, 86, 85
22, 37470, Note_on_c, 13, 86, 0
22, 37500, Note_on_c, 13, 78, 98
22, 37500, Note_on_c, 13, 86, 98
22, 37590, Note_on_c, 13, 86, 0
22, 37590, Note_on_c, 13, 78, 0
22, 37620, Note_on_c, 13, 78, 85
22, 37620, Note_on_c, 13, 86, 85
22, 37710, Note_on_c, 13, 86, 0
22, 37710, Note_on_c, 13, 78, 0
22, 37740, Note_on_c, 13, 78, 85
22, 37740, Note_on_c, 13, 86, 85
22, 37830, Note_on_c, 13, 86, 0
22, 37830, Note_on_c, 13, 78, 0
22, 37860, Note_on_c, 13, 78, 85
22, 37860, Note_on_c, 13, 86, 85
22, 37920, Note_on_c, 13, 78, 0
22, 37920, Note_on_c, 13, 76, 85
22, 37950, Note_on_c, 13, 76, 0
22, 37950, Note_on_c, 13, 86, 0
22, 37980, Note_on_c, 13, 76, 85
22, 37980, Note_on_c, 13, 86, 85
22, 38070, Note_on_c, 13, 86, 0
22, 38070, Note_on_c, 13, 76, 0
22, 38100, Note_on_c, 13, 76, 85
22, 38100, Note_on_c, 13, 86, 85
22, 38190, Note_on_c, 13, 86, 0
22, 38190, Note_on_c, 13, 76, 0
22, 38220, Note_on_c, 13, 76, 85
22, 38220, Note_on_c, 13, 86, 85
22, 38310, Note_on_c, 13, 86, 0
22, 38310, Note_on_c, 13, 76, 0
22, 38340, Note_on_c, 13, 76, 85
22, 38340, Note_on_c, 13, 86, 85
22, 38400, Note_on_c, 13, 86, 0
22, 38400, Note_on_c, 13, 76, 0
22, 38400, Note_on_c, 13, 76, 97
22, 38400, Note_on_c, 13, 85, 97
22, 38445, Note_on_c, 13, 85, 0
22, 38445, Note_on_c, 13, 76, 0
22, 38460, Note_on_c, 13, 81, 85
22, 38505, Note_on_c, 13, 81, 0
22, 38520, Note_on_c, 13, 86, 85
22, 38565, Note_on_c, 13, 86, 0
22, 38580, Note_on_c, 13, 81, 85
22, 38625, Note_on_c, 13, 81, 0
22, 38640, Note_on_c, 13, 85, 85
22, 38685, Note_on_c, 13, 85, 0
22, 38700, Note_on_c, 13, 81, 85
22, 38745, Note_on_c, 13, 81, 0
22, 38760, Note_on_c, 13, 86, 85
22, 38805, Note_on_c, 13, 86, 0
22, 38820, Note_on_c, 13, 81, 85
22, 38865, Note_on_c, 13, 81, 0
22, 38880, Note_on_c, 13, 85, 97
22, 38925, Note_on_c, 13, 85, 0
22, 38940, Note_on_c, 13, 69, 85
22, 38985, Note_on_c, 13, 69, 0
22, 39000, Note_on_c, 13, 69, 85
22, 39045, Note_on_c, 13, 69, 0
22, 39060, Note_on_c, 13, 69, 85
22, 39105, Note_on_c, 13, 69, 0
22, 39120, Note_on_c, 13, 69, 85
22, 39240, Note_on_c, 13, 69, 0
22, 39360, Note_on_c, 13, 81, 55
22, 39540, Note_on_c, 13, 81, 0
22, 39540, Note_on_c, 13, 79, 55
22, 39560, Note_on_c, 13, 79, 0
22, 39560, Note_on_c, 13, 78, 55
22, 39580, Note_on_c, 13, 78, 0
22, 39580, Note_on_c, 13, 76, 55
22, 39600, Note_on_c, 13, 76, 0
22, 39600, Note_on_c, 13, 74, 55
22, 39660, Note_on_c, 13, 74, 0
22, 39720, Note_on_c, 13, 83, 55
22, 39780, Note_on_c, 13, 83, 0
22, 39840, Note_on_c, 13, 79, 55
22, 39900, Note_on_c, 13, 79, 0
22, 39960, Note_on_c, 13, 76, 55
22, 40020, Note_on_c, 13, 76, 0
22, 40080, Note_on_c, 13, 81, 55
22, 40140, Note_on_c, 13, 81, 0
22, 40320, Note_on_c, 13, 78, 55
22, 40500, Note_on_c, 13, 78, 0
22, 40500, Note_on_c, 13, 76, 55
22, 40520, Note_on_c, 13, 76, 0
22, 40520, Note_on_c, 13, 74, 55
22, 40540, Note_on_c, 13, 74, 0
22, 40540, Note_on_c, 13, 73, 55
22, 40560, Note_on_c, 13, 73, 0
22, 40560, Note_on_c, 13, 71, 55
22, 40620, Note_on_c, 13, 71, 0
22, 40680, Note_on_c, 13, 79, 55
22, 40740, Note_on_c, 13, 79, 0
22, 40800, Note_on_c, 13, 78, 55
22, 41040, Note_on_c, 13, 78, 0
22, 41040, Note_on_c, 13, 76, 43
22, 41160, Note_on_c, 13, 76, 0
22, 41340, Note_on_c, 13, 81, 55
22, 41370, Note_on_c, 13, 81, 0
22, 41400, Note_on_c, 13, 81, 55
22, 41430, Note_on_c, 13, 81, 0
22, 41460, Note_on_c, 13, 81, 55
22, 41490, Note_on_c, 13, 81, 0
22, 41520, Note_on_c, 13, 81, 55
22, 41550, Note_on_c, 13, 81, 0
22, 41580, Note_on_c, 13, 81, 55
22, 41610, Note_on_c, 13, 81, 0
22, 41640, Note_on_c, 13, 81, 55
22, 41670, Note_on_c, 13, 81, 0
22, 41700, Note_on_c, 13, 81, 55
22, 41730, Note_on_c, 13, 81, 0
22, 41760, Note_on_c, 13, 81, 55
22, 41790, Note_on_c, 13, 81, 0
22, 41820, Note_on_c, 13, 81, 55
22, 41850, Note_on_c, 13, 81, 0
22, 41880, Note_on_c, 13, 81, 55
22, 41910, Note_on_c, 13, 81, 0
22, 41940, Note_on_c, 13, 81, 55
22, 41970, Note_on_c, 13, 81, 0
22, 42000, Note_on_c, 13, 81, 55
22, 42030, Note_on_c, 13, 81, 0
22, 42060, Note_on_c, 13, 81, 55
22, 42090, Note_on_c, 13, 81, 0
22, 42120, Note_on_c, 13, 83, 55
22, 42150, Note_on_c, 13, 83, 0
22, 42180, Note_on_c, 13, 85, 55
22, 42210, Note_on_c, 13, 85, 0
22, 42240, Note_on_c, 13, 85, 55
22, 42300, Note_on_c, 13, 85, 0
22, 42300, Note_on_c, 13, 86, 55
22, 42360, Note_on_c, 13, 86, 0
22, 42420, Note_on_c, 13, 83, 55
22, 42450, Note_on_c, 13, 83, 0
22, 42480, Note_on_c, 13, 83, 55
22, 42540, Note_on_c, 13, 83, 0
22, 42540, Note_on_c, 13, 81, 55
22, 42600, Note_on_c, 13, 81, 0
22, 42660, Note_on_c, 13, 73, 55
22, 42705, Note_on_c, 13, 73, 0
22, 42720, Note_on_c, 13, 74, 55
22, 42840, Note_on_c, 13, 74, 0
22, 42900, Note_on_c, 13, 81, 55
22, 42930, Note_on_c, 13, 81, 0
22, 42960, Note_on_c, 13, 86, 55
22, 43020, Note_on_c, 13, 86, 0
22, 43020, Note_on_c, 13, 85, 55
22, 43080, Note_on_c, 13, 85, 0
22, 43080, Note_on_c, 13, 83, 55
22, 43140, Note_on_c, 13, 83, 0
22, 43140, Note_on_c, 13, 81, 55
22, 43200, Note_on_c, 13, 81, 0
22, 43200, Note_on_c, 13, 83, 55
22, 43215, Note_on_c, 13, 83, 0
22, 43215, Note_on_c, 13, 85, 55
22, 43230, Note_on_c, 13, 85, 0
22, 43230, Note_on_c, 13, 83, 55
22, 43245, Note_on_c, 13, 83, 0
22, 43245, Note_on_c, 13, 85, 55
22, 43260, Note_on_c, 13, 85, 0
22, 43260, Note_on_c, 13, 81, 55
22, 43320, Note_on_c, 13, 81, 0
22, 43380, Note_on_c, 13, 81, 55
22, 43410, Note_on_c, 13, 81, 0
22, 43440, Note_on_c, 13, 81, 55
22, 43470, Note_on_c, 13, 81, 0
22, 43500, Note_on_c, 13, 81, 55
22, 43530, Note_on_c, 13, 81, 0
22, 43560, Note_on_c, 13, 81, 55
22, 43590, Note_on_c, 13, 81, 0
22, 43620, Note_on_c, 13, 81, 55
22, 43650, Note_on_c, 13, 81, 0
22, 43680, Note_on_c, 13, 83, 55
22, 43695, Note_on_c, 13, 83, 0
22, 43695, Note_on_c, 13, 85, 55
22, 43710, Note_on_c, 13, 85, 0
22, 43710, Note_on_c, 13, 83, 55
22, 43725, Note_on_c, 13, 83, 0
22, 43725, Note_on_c, 13, 85, 55
22, 43740, Note_on_c, 13, 85, 0
22, 43740, Note_on_c, 13, 81, 55
22, 43800, Note_on_c, 13, 81, 0
22, 43860, Note_on_c, 13, 81, 55
22, 43905, Note_on_c, 13, 81, 0
22, 43920, Note_on_c, 13, 86, 55
22, 43980, Note_on_c, 13, 86, 0
22, 43980, Note_on_c, 13, 85, 55
22, 44040, Note_on_c, 13, 85, 0
22, 44040, Note_on_c, 13, 83, 55
22, 44100, Note_on_c, 13, 83, 0
22, 44100, Note_on_c, 13, 81, 55
22, 44160, Note_on_c, 13, 81, 0
22, 44160, Note_on_c, 13, 83, 55
22, 44175, Note_on_c, 13, 83, 0
22, 44175, Note_on_c, 13, 85, 55
22, 44190, Note_on_c, 13, 85, 0
22, 44190, Note_on_c, 13, 83, 55
22, 44205, Note_on_c, 13, 83, 0
22, 44205, Note_on_c, 13, 85, 55
22, 44220, Note_on_c, 13, 85, 0
22, 44220, Note_on_c, 13, 81, 55
22, 44280, Note_on_c, 13, 81, 0
22, 44340, Note_on_c, 13, 81, 55
22, 44370, Note_on_c, 13, 81, 0
22, 44400, Note_on_c, 13, 81, 55
22, 44430, Note_on_c, 13, 81, 0
22, 44460, Note_on_c, 13, 81, 55
22, 44490, Note_on_c, 13, 81, 0
22, 44520, Note_on_c, 13, 81, 55
22, 44550, Note_on_c, 13, 81, 0
22, 44580, Note_on_c, 13, 81, 55
22, 44610, Note_on_c, 13, 81, 0
22, 44640, Note_on_c, 13, 83, 55
22, 44655, Note_on_c, 13, 83, 0
22, 44655, Note_on_c, 13, 85, 55
22, 44670, Note_on_c, 13, 85, 0
22, 44670, Note_on_c, 13, 83, 55
22, 44685, Note_on_c, 13, 83, 0
22, 44685, Note_on_c, 13, 85, 55
22, 44700, Note_on_c, 13, 85, 0
22, 44700, Note_on_c, 13, 81, 55
22, 44760, Note_on_c, 13, 81, 0
22, 44880, Note_on_c, 13, 71, 94
22, 44880, Note_on_c, 13, 83, 94
22, 45050, Note_on_c, 13, 83, 0
22, 45050, Note_on_c, 13, 71, 0
22, 45060, Note_on_c, 13, 81, 83
22, 45080, Note_on_c, 13, 81, 0
22, 45080, Note_on_c, 13, 79, 83
22, 45100, Note_on_c, 13, 79, 0
22, 45100, Note_on_c, 13, 78, 83
22, 45120, Note_on_c, 13, 78, 0
22, 45120, Note_on_c, 13, 79, 83
22, 45240, Note_on_c, 13, 79, 0
22, 45360, Note_on_c, 13, 81, 85
22, 45360, Note_on_c, 13, 69, 85
22, 45530, Note_on_c, 13, 69, 0
22, 45530, Note_on_c, 13, 81, 0
22, 45540, Note_on_c, 13, 79, 85
22, 45560, Note_on_c, 13, 79, 0
22, 45560, Note_on_c, 13, 78, 85
22, 45580, Note_on_c, 13, 78, 0
22, 45580, Note_on_c, 13, 76, 85
22, 45600, Note_on_c, 13, 76, 0
22, 45600, Note_on_c, 13, 78, 85
22, 45720, Note_on_c, 13, 78, 0
22, 45840, Note_on_c, 13, 83, 79
22, 45900, Note_on_c, 13, 83, 0
22, 45900, Note_on_c, 13, 85, 80
22, 45930, Note_on_c, 13, 85, 0
22, 45930, Note_on_c, 13, 86, 82
22, 45960, Note_on_c, 13, 86, 0
22, 45960, Note_on_c, 13, 85, 82
22, 46005, Note_on_c, 13, 85, 0
22, 46020, Note_on_c, 13, 83, 82
22, 46050, Note_on_c, 13, 83, 0
22, 46080, Note_on_c, 13, 83, 83
22, 46140, Note_on_c, 13, 83, 0
22, 46140, Note_on_c, 13, 81, 86
22, 46185, Note_on_c, 13, 81, 0
22, 46200, Note_on_c, 13, 78, 86
22, 46230, Note_on_c, 13, 78, 0
22, 46260, Note_on_c, 13, 81, 88
22, 46290, Note_on_c, 13, 81, 0
22, 46320, Note_on_c, 13, 81, 88
22, 46380, Note_on_c, 13, 81, 0
22, 46380, Note_on_c, 13, 79, 83
22, 46425, Note_on_c, 13, 79, 0
22, 46440, Note_on_c, 13, 78, 79
22, 46470, Note_on_c, 13, 78, 0
22, 46500, Note_on_c, 13, 76, 76
22, 46530, Note_on_c, 13, 76, 0
22, 46560, Note_on_c, 13, 74, 85
22, 46680, Note_on_c, 13, 74, 0
22, 46740, Note_on_c, 13, 81, 53
22, 46770, Note_on_c, 13, 81, 0
22, 46800, Note_on_c, 13, 86, 53
22, 46860, Note_on_c, 13, 86, 0
22, 46860, Note_on_c, 13, 85, 53
22, 46920, Note_on_c, 13, 85, 0
22, 46920, Note_on_c, 13, 83, 53
22, 46980, Note_on_c, 13, 83, 0
22, 46980, Note_on_c, 13, 81, 53
22, 47040, Note_on_c, 13, 81, 0
22, 47040, Note_on_c, 13, 83, 55
22, 47055, Note_on_c, 13, 83, 0
22, 47055, Note_on_c, 13, 85, 55
22, 47070, Note_on_c, 13, 85, 0
22, 47070, Note_on_c, 13, 83, 55
22, 47085, Note_on_c, 13, 83, 0
22, 47085, Note_on_c, 13, 85, 55
22, 47100, Note_on_c, 13, 85, 0
22, 47100, Note_on_c, 13, 81, 55
22, 47160, Note_on_c, 13, 81, 0
22, 47220, Note_on_c, 13, 81, 55
22, 47250, Note_on_c, 13, 81, 0
22, 47280, Note_on_c, 13, 81, 55
22, 47310, Note_on_c, 13, 81, 0
22, 47340, Note_on_c, 13, 81, 55
22, 47370, Note_on_c, 13, 81, 0
22, 47400, Note_on_c, 13, 81, 55
22, 47430, Note_on_c, 13, 81, 0
22, 47460, Note_on_c, 13, 81, 55
22, 47490, Note_on_c, 13, 81, 0
22, 47520, Note_on_c, 13, 83, 55
22, 47535, Note_on_c, 13, 83, 0
22, 47535, Note_on_c, 13, 85, 55
22, 47550, Note_on_c, 13, 85, 0
22, 47550, Note_on_c, 13, 83, 55
22, 47565, Note_on_c, 13, 83, 0
22, 47565, Note_on_c, 13, 85, 55
22, 47580, Note_on_c, 13, 85, 0
22, 47580, Note_on_c, 13, 81, 55
22, 47640, Note_on_c, 13, 81, 0
22, 47700, Note_on_c, 13, 81, 55
22, 47745, Note_on_c, 13, 81, 0
22, 47760, Note_on_c, 13, 86, 55
22, 47820, Note_on_c, 13, 86, 0
22, 47820, Note_on_c, 13, 85, 55
22, 47880, Note_on_c, 13, 85, 0
22, 47880, Note_on_c, 13, 83, 55
22, 47940, Note_on_c, 13, 83, 0
22, 47940, Note_on_c, 13, 81, 55
22, 48000, Note_on_c, 13, 81, 0
22, 48000, Note_on_c, 13, 83, 55
22, 48015, Note_on_c, 13, 83, 0
22, 48015, Note_on_c, 13, 85, 55
22, 48030, Note_on_c, 13, 85, 0
22, 48030, Note_on_c, 13, 83, 55
22, 48045, Note_on_c, 13, 83, 0
22, 48045, Note_on_c, 13, 85, 55
22, 48060, Note_on_c, 13, 85, 0
22, 48060, Note_on_c, 13, 81, 55
22, 48120, Note_on_c, 13, 81, 0
22, 48180, Note_on_c, 13, 81, 55
22, 48210, Note_on_c, 13, 81, 0
22, 48240, Note_on_c, 13, 81, 55
22, 48270, Note_on_c, 13, 81, 0
22, 48300, Note_on_c, 13, 81, 55
22, 48330, Note_on_c, 13, 81, 0
22, 48360, Note_on_c, 13, 81, 55
22, 48390, Note_on_c, 13, 81, 0
22, 48420, Note_on_c, 13, 81, 55
22, 48450, Note_on_c, 13, 81, 0
22, 48480, Note_on_c, 13, 83, 59
22, 48495, Note_on_c, 13, 83, 0
22, 48495, Note_on_c, 13, 85, 59
22, 48510, Note_on_c, 13, 85, 0
22, 48510, Note_on_c, 13, 83, 59
22, 48525, Note_on_c, 13, 83, 0
22, 48525, Note_on_c, 13, 85, 59
22, 48540, Note_on_c, 13, 85, 0
22, 48540, Note_on_c, 13, 81, 59
22, 48600, Note_on_c, 13, 81, 0
22, 48720, Note_on_c, 13, 71, 85
22, 48720, Note_on_c, 13, 83, 85
22, 48890, Note_on_c, 13, 83, 0
22, 48890, Note_on_c, 13, 71, 0
22, 48900, Note_on_c, 13, 81, 85
22, 48920, Note_on_c, 13, 81, 0
22, 48920, Note_on_c, 13, 79, 85
22, 48940, Note_on_c, 13, 79, 0
22, 48940, Note_on_c, 13, 78, 85
22, 48960, Note_on_c, 13, 78, 0
22, 48960, Note_on_c, 13, 79, 85
22, 49080, Note_on_c, 13, 79, 0
22, 49200, Note_on_c, 13, 81, 85
22, 49200, Note_on_c, 13, 69, 85
22, 49370, Note_on_c, 13, 69, 0
22, 49370, Note_on_c, 13, 81, 0
22, 49380, Note_on_c, 13, 79, 85
22, 49400, Note_on_c, 13, 79, 0
22, 49400, Note_on_c, 13, 78, 85
22, 49420, Note_on_c, 13, 78, 0
22, 49420, Note_on_c, 13, 76, 85
22, 49440, Note_on_c, 13, 76, 0
22, 49440, Note_on_c, 13, 78, 85
22, 49560, Note_on_c, 13, 78, 0
22, 49680, Note_on_c, 13, 83, 85
22, 49740, Note_on_c, 13, 83, 0
22, 49740, Note_on_c, 13, 85, 85
22, 49770, Note_on_c, 13, 85, 0
22, 49770, Note_on_c, 13, 86, 85
22, 49800, Note_on_c, 13, 86, 0
22, 49800, Note_on_c, 13, 85, 85
22, 49845, Note_on_c, 13, 85, 0
22, 49860, Note_on_c, 13, 83, 85
22, 49890, Note_on_c, 13, 83, 0
22, 49920, Note_on_c, 13, 83, 95
22, 49980, Note_on_c, 13, 83, 0
22, 49980, Note_on_c, 13, 81, 85
22, 50025, Note_on_c, 13, 81, 0
22, 50040, Note_on_c, 13, 78, 85
22, 50070, Note_on_c, 13, 78, 0
22, 50100, Note_on_c, 13, 81, 85
22, 50130, Note_on_c, 13, 81, 0
22, 50160, Note_on_c, 13, 81, 85
22, 50220, Note_on_c, 13, 81, 0
22, 50220, Note_on_c, 13, 79, 85
22, 50265, Note_on_c, 13, 79, 0
22, 50280, Note_on_c, 13, 78, 85
22, 50310, Note_on_c, 13, 78, 0
22, 50340, Note_on_c, 13, 76, 85
22, 50370, Note_on_c, 13, 76, 0
22, 50400, Note_on_c, 13, 74, 85
22, 50445, Note_on_c, 13, 74, 0
22, 50460, Note_on_c, 13, 69, 85
22, 50505, Note_on_c, 13, 69, 0
22, 50520, Note_on_c, 13, 71, 85
22, 50565, Note_on_c, 13, 71, 0
22, 50580, Note_on_c, 13, 73, 85
22, 50625, Note_on_c, 13, 73, 0
22, 50640, Note_on_c, 13, 74, 85
22, 50670, Note_on_c, 13, 74, 0
22, 50700, Note_on_c, 13, 74, 85
22, 50730, Note_on_c, 13, 74, 0
22, 50760, Note_on_c, 13, 76, 85
22, 50775, Note_on_c, 13, 76, 0
22, 50775, Note_on_c, 13, 78, 85
22, 50790, Note_on_c, 13, 78, 0
22, 50790, Note_on_c, 13, 76, 85
22, 50805, Note_on_c, 13, 76, 0
22, 50805, Note_on_c, 13, 78, 85
22, 50820, Note_on_c, 13, 78, 0
22, 50820, Note_on_c, 13, 74, 85
22, 50850, Note_on_c, 13, 74, 0
22, 50850, Note_on_c, 13, 76, 85
22, 50880, Note_on_c, 13, 76, 0
22, 50880, Note_on_c, 13, 78, 85
22, 50940, Note_on_c, 13, 78, 0
22, 50940, Note_on_c, 13, 73, 85
22, 50985, Note_on_c, 13, 73, 0
22, 51000, Note_on_c, 13, 74, 85
22, 51045, Note_on_c, 13, 74, 0
22, 51060, Note_on_c, 13, 76, 85
22, 51105, Note_on_c, 13, 76, 0
22, 51120, Note_on_c, 13, 78, 85
22, 51165, Note_on_c, 13, 78, 0
22, 51180, Note_on_c, 13, 78, 85
22, 51225, Note_on_c, 13, 78, 0
22, 51240, Note_on_c, 13, 79, 85
22, 51255, Note_on_c, 13, 79, 0
22, 51255, Note_on_c, 13, 81, 86
22, 51270, Note_on_c, 13, 81, 0
22, 51270, Note_on_c, 13, 79, 86
22, 51285, Note_on_c, 13, 79, 0
22, 51285, Note_on_c, 13, 81, 86
22, 51300, Note_on_c, 13, 81, 0
22, 51300, Note_on_c, 13, 78, 86
22, 51330, Note_on_c, 13, 78, 0
22, 51330, Note_on_c, 13, 79, 88
22, 51360, Note_on_c, 13, 79, 0
22, 51360, Note_on_c, 13, 81, 88
22, 51405, Note_on_c, 13, 81, 0
22, 51420, Note_on_c, 13, 81, 88
22, 51465, Note_on_c, 13, 81, 0
22, 51480, Note_on_c, 13, 82, 89
22, 51495, Note_on_c, 13, 82, 0
22, 51495, Note_on_c, 13, 83, 91
22, 51510, Note_on_c, 13, 83, 0
22, 51510, Note_on_c, 13, 82, 91
22, 51525, Note_on_c, 13, 82, 0
22, 51525, Note_on_c, 13, 83, 91
22, 51540, Note_on_c, 13, 83, 0
22, 51540, Note_on_c, 13, 80, 92
22, 51570, Note_on_c, 13, 80, 0
22, 51570, Note_on_c, 13, 82, 94
22, 51600, Note_on_c, 13, 82, 0
22, 51600, Note_on_c, 13, 83, 98
22, 51720, Note_on_c, 13, 83, 0
22, 51840, Note_on_c, 13, 71, 40
22, 52020, Note_on_c, 13, 71, 0
22, 52020, Note_on_c, 13, 76, 47
22, 52065, Note_on_c, 13, 76, 0
22, 52080, Note_on_c, 13, 74, 49
22, 52140, Note_on_c, 13, 74, 0
22, 52140, Note_on_c, 13, 73, 49
22, 52200, Note_on_c, 13, 73, 0
22, 52200, Note_on_c, 13, 71, 43
22, 52260, Note_on_c, 13, 71, 0
22, 52260, Note_on_c, 13, 69, 41
22, 52320, Note_on_c, 13, 69, 0
22, 52320, Note_on_c, 13, 74, 40
22, 52380, Note_on_c, 13, 74, 0
22, 52440, Note_on_c, 13, 78, 59
22, 52500, Note_on_c, 13, 78, 0
22, 52560, Note_on_c, 13, 74, 57
22, 52620, Note_on_c, 13, 74, 0
22, 52800, Note_on_c, 13, 62, 100
22, 52800, Note_on_c, 13, 74, 100
22, 52920, Note_on_c, 13, 74, 0
22, 52920, Note_on_c, 13, 62, 0
22, 52980, Note_on_c, 13, 69, 91
22, 53025, Note_on_c, 13, 69, 0
22, 53040, Note_on_c, 13, 74, 91
22, 53160, Note_on_c, 13, 74, 0
22, 53220, Note_on_c, 13, 69, 91
22, 53265, Note_on_c, 13, 69, 0
22, 53280, Note_on_c, 13, 74, 91
22, 53325, Note_on_c, 13, 74, 0
22, 53340, Note_on_c, 13, 69, 91
22, 53385, Note_on_c, 13, 69, 0
22, 53400, Note_on_c, 13, 74, 91
22, 53445, Note_on_c, 13, 74, 0
22, 53460, Note_on_c, 13, 78, 91
22, 53505, Note_on_c, 13, 78, 0
22, 53520, Note_on_c, 13, 81, 91
22, 53640, Note_on_c, 13, 81, 0
22, 53760, Note_on_c, 13, 81, 91
22, 53880, Note_on_c, 13, 81, 0
22, 53940, Note_on_c, 13, 78, 91
22, 53985, Note_on_c, 13, 78, 0
22, 54000, Note_on_c, 13, 81, 91
22, 54120, Note_on_c, 13, 81, 0
22, 54180, Note_on_c, 13, 78, 91
22, 54225, Note_on_c, 13, 78, 0
22, 54240, Note_on_c, 13, 81, 91
22, 54285, Note_on_c, 13, 81, 0
22, 54300, Note_on_c, 13, 78, 91
22, 54345, Note_on_c, 13, 78, 0
22, 54360, Note_on_c, 13, 75, 91
22, 54405, Note_on_c, 13, 75, 0
22, 54420, Note_on_c, 13, 78, 91
22, 54465, Note_on_c, 13, 78, 0
22, 54480, Note_on_c, 13, 71, 91
22, 54600, Note_on_c, 13, 71, 0
22, 54900, Note_on_c, 13, 79, 55
22, 54945, Note_on_c, 13, 79, 0
22, 54960, Note_on_c, 13, 84, 55
22, 55020, Note_on_c, 13, 84, 0
22, 55020, Note_on_c, 13, 83, 55
22, 55080, Note_on_c, 13, 83, 0
22, 55080, Note_on_c, 13, 81, 55
22, 55140, Note_on_c, 13, 81, 0
22, 55140, Note_on_c, 13, 79, 55
22, 55200, Note_on_c, 13, 79, 0
22, 55200, Note_on_c, 13, 81, 55
22, 55215, Note_on_c, 13, 81, 0
22, 55215, Note_on_c, 13, 83, 55
22, 55230, Note_on_c, 13, 83, 0
22, 55230, Note_on_c, 13, 81, 55
22, 55245, Note_on_c, 13, 81, 0
22, 55245, Note_on_c, 13, 83, 55
22, 55260, Note_on_c, 13, 83, 0
22, 55260, Note_on_c, 13, 79, 55
22, 55320, Note_on_c, 13, 79, 0
22, 55380, Note_on_c, 13, 79, 55
22, 55410, Note_on_c, 13, 79, 0
22, 55440, Note_on_c, 13, 79, 55
22, 55470, Note_on_c, 13, 79, 0
22, 55500, Note_on_c, 13, 79, 55
22, 55530, Note_on_c, 13, 79, 0
22, 55560, Note_on_c, 13, 79, 55
22, 55590, Note_on_c, 13, 79, 0
22, 55620, Note_on_c, 13, 79, 55
22, 55650, Note_on_c, 13, 79, 0
22, 55680, Note_on_c, 13, 81, 55
22, 55695, Note_on_c, 13, 81, 0
22, 55695, Note_on_c, 13, 83, 55
22, 55710, Note_on_c, 13, 83, 0
22, 55710, Note_on_c, 13, 81, 55
22, 55725, Note_on_c, 13, 81, 0
22, 55725, Note_on_c, 13, 83, 55
22, 55740, Note_on_c, 13, 83, 0
22, 55740, Note_on_c, 13, 79, 55
22, 55800, Note_on_c, 13, 79, 0
22, 55860, Note_on_c, 13, 79, 55
22, 55905, Note_on_c, 13, 79, 0
22, 55920, Note_on_c, 13, 84, 55
22, 55980, Note_on_c, 13, 84, 0
22, 55980, Note_on_c, 13, 83, 55
22, 56040, Note_on_c, 13, 83, 0
22, 56040, Note_on_c, 13, 81, 55
22, 56100, Note_on_c, 13, 81, 0
22, 56100, Note_on_c, 13, 79, 55
22, 56160, Note_on_c, 13, 79, 0
22, 56160, Note_on_c, 13, 81, 55
22, 56175, Note_on_c, 13, 81, 0
22, 56175, Note_on_c, 13, 83, 55
22, 56190, Note_on_c, 13, 83, 0
22, 56190, Note_on_c, 13, 81, 55
22, 56205, Note_on_c, 13, 81, 0
22, 56205, Note_on_c, 13, 83, 55
22, 56220, Note_on_c, 13, 83, 0
22, 56220, Note_on_c, 13, 79, 55
22, 56280, Note_on_c, 13, 79, 0
22, 56340, Note_on_c, 13, 79, 55
22, 56370, Note_on_c, 13, 79, 0
22, 56400, Note_on_c, 13, 79, 55
22, 56430, Note_on_c, 13, 79, 0
22, 56460, Note_on_c, 13, 79, 55
22, 56490, Note_on_c, 13, 79, 0
22, 56520, Note_on_c, 13, 79, 55
22, 56550, Note_on_c, 13, 79, 0
22, 56580, Note_on_c, 13, 79, 55
22, 56610, Note_on_c, 13, 79, 0
22, 56640, Note_on_c, 13, 81, 55
22, 56655, Note_on_c, 13, 81, 0
22, 56655, Note_on_c, 13, 83, 55
22, 56670, Note_on_c, 13, 83, 0
22, 56670, Note_on_c, 13, 81, 55
22, 56685, Note_on_c, 13, 81, 0
22, 56685, Note_on_c, 13, 83, 55
22, 56700, Note_on_c, 13, 83, 0
22, 56700, Note_on_c, 13, 79, 55
22, 56760, Note_on_c, 13, 79, 0
22, 56820, Note_on_c, 13, 79, 55
22, 56865, Note_on_c, 13, 79, 0
22, 56880, Note_on_c, 13, 84, 55
22, 56940, Note_on_c, 13, 84, 0
22, 56940, Note_on_c, 13, 83, 55
22, 57000, Note_on_c, 13, 83, 0
22, 57000, Note_on_c, 13, 81, 55
22, 57060, Note_on_c, 13, 81, 0
22, 57060, Note_on_c, 13, 79, 55
22, 57120, Note_on_c, 13, 79, 0
22, 57120, Note_on_c, 13, 81, 55
22, 57135, Note_on_c, 13, 81, 0
22, 57135, Note_on_c, 13, 83, 55
22, 57150, Note_on_c, 13, 83, 0
22, 57150, Note_on_c, 13, 81, 55
22, 57165, Note_on_c, 13, 81, 0
22, 57165, Note_on_c, 13, 83, 55
22, 57180, Note_on_c, 13, 83, 0
22, 57180, Note_on_c, 13, 80, 55
22, 57240, Note_on_c, 13, 80, 0
22, 57300, Note_on_c, 13, 80, 55
22, 57330, Note_on_c, 13, 80, 0
22, 57360, Note_on_c, 13, 80, 55
22, 57390, Note_on_c, 13, 80, 0
22, 57420, Note_on_c, 13, 80, 55
22, 57450, Note_on_c, 13, 80, 0
22, 57480, Note_on_c, 13, 80, 55
22, 57510, Note_on_c, 13, 80, 0
22, 57540, Note_on_c, 13, 80, 55
22, 57570, Note_on_c, 13, 80, 0
22, 57600, Note_on_c, 13, 83, 55
22, 57615, Note_on_c, 13, 83, 0
22, 57615, Note_on_c, 13, 84, 55
22, 57630, Note_on_c, 13, 84, 0
22, 57630, Note_on_c, 13, 83, 55
22, 57645, Note_on_c, 13, 83, 0
22, 57645, Note_on_c, 13, 84, 55
22, 57660, Note_on_c, 13, 84, 0
22, 57660, Note_on_c, 13, 81, 55
22, 57720, Note_on_c, 13, 81, 0
22, 57780, Note_on_c, 13, 81, 55
22, 57825, Note_on_c, 13, 81, 0
22, 57840, Note_on_c, 13, 84, 55
22, 57900, Note_on_c, 13, 84, 0
22, 57900, Note_on_c, 13, 82, 55
22, 57960, Note_on_c, 13, 82, 0
22, 57960, Note_on_c, 13, 81, 55
22, 58020, Note_on_c, 13, 81, 0
22, 58020, Note_on_c, 13, 79, 55
22, 58080, Note_on_c, 13, 79, 0
22, 58080, Note_on_c, 13, 79, 55
22, 58095, Note_on_c, 13, 79, 0
22, 58095, Note_on_c, 13, 81, 55
22, 58110, Note_on_c, 13, 81, 0
22, 58110, Note_on_c, 13, 79, 55
22, 58125, Note_on_c, 13, 79, 0
22, 58125, Note_on_c, 13, 81, 55
22, 58140, Note_on_c, 13, 81, 0
22, 58140, Note_on_c, 13, 78, 55
22, 58200, Note_on_c, 13, 78, 0
22, 58260, Note_on_c, 13, 78, 55
22, 58290, Note_on_c, 13, 78, 0
22, 58320, Note_on_c, 13, 78, 55
22, 58350, Note_on_c, 13, 78, 0
22, 58380, Note_on_c, 13, 78, 55
22, 58410, Note_on_c, 13, 78, 0
22, 58440, Note_on_c, 13, 78, 55
22, 58470, Note_on_c, 13, 78, 0
22, 58500, Note_on_c, 13, 78, 55
22, 58530, Note_on_c, 13, 78, 0
22, 58560, Note_on_c, 13, 81, 55
22, 58575, Note_on_c, 13, 81, 0
22, 58575, Note_on_c, 13, 82, 55
22, 58590, Note_on_c, 13, 82, 0
22, 58590, Note_on_c, 13, 81, 55
22, 58605, Note_on_c, 13, 81, 0
22, 58605, Note_on_c, 13, 82, 55
22, 58620, Note_on_c, 13, 82, 0
22, 58620, Note_on_c, 13, 79, 55
22, 58680, Note_on_c, 13, 79, 0
22, 58740, Note_on_c, 13, 75, 55
22, 58785, Note_on_c, 13, 75, 0
22, 58800, Note_on_c, 13, 79, 55
22, 58860, Note_on_c, 13, 79, 0
22, 58860, Note_on_c, 13, 77, 55
22, 58920, Note_on_c, 13, 77, 0
22, 58920, Note_on_c, 13, 76, 55
22, 58980, Note_on_c, 13, 76, 0
22, 58980, Note_on_c, 13, 74, 55
22, 59040, Note_on_c, 13, 74, 0
22, 59040, Note_on_c, 13, 74, 55
22, 59055, Note_on_c, 13, 74, 0
22, 59055, Note_on_c, 13, 75, 55
22, 59070, Note_on_c, 13, 75, 0
22, 59070, Note_on_c, 13, 74, 55
22, 59085, Note_on_c, 13, 74, 0
22, 59085, Note_on_c, 13, 75, 55
22, 59100, Note_on_c, 13, 75, 0
22, 59100, Note_on_c, 13, 73, 55
22, 59160, Note_on_c, 13, 73, 0
22, 59220, Note_on_c, 13, 73, 55
22, 59250, Note_on_c, 13, 73, 0
22, 59280, Note_on_c, 13, 73, 55
22, 59310, Note_on_c, 13, 73, 0
22, 59340, Note_on_c, 13, 73, 55
22, 59370, Note_on_c, 13, 73, 0
22, 59400, Note_on_c, 13, 73, 55
22, 59430, Note_on_c, 13, 73, 0
22, 59460, Note_on_c, 13, 73, 55
22, 59490, Note_on_c, 13, 73, 0
22, 59520, Note_on_c, 13, 76, 53
22, 59535, Note_on_c, 13, 76, 0
22, 59535, Note_on_c, 13, 78, 53
22, 59550, Note_on_c, 13, 78, 0
22, 59550, Note_on_c, 13, 76, 53
22, 59565, Note_on_c, 13, 76, 0
22, 59565, Note_on_c, 13, 78, 53
22, 59580, Note_on_c, 13, 78, 0
22, 59580, Note_on_c, 13, 74, 53
22, 59640, Note_on_c, 13, 74, 0
22, 59700, Note_on_c, 13, 62, 91
22, 59760, Note_on_c, 13, 62, 0
22, 59760, Note_on_c, 13, 64, 91
22, 59820, Note_on_c, 13, 64, 0
22, 59820, Note_on_c, 13, 66, 91
22, 59880, Note_on_c, 13, 66, 0
22, 59880, Note_on_c, 13, 67, 91
22, 59940, Note_on_c, 13, 67, 0
22, 59940, Note_on_c, 13, 69, 91
22, 60000, Note_on_c, 13, 69, 0
22, 60000, Note_on_c, 13, 72, 91
22, 60060, Note_on_c, 13, 72, 0
22, 60060, Note_on_c, 13, 70, 91
22, 60120, Note_on_c, 13, 70, 0
22, 60180, Note_on_c, 13, 66, 91
22, 60240, Note_on_c, 13, 66, 0
22, 60240, Note_on_c, 13, 67, 91
22, 60300, Note_on_c, 13, 67, 0
22, 60300, Note_on_c, 13, 69, 91
22, 60360, Note_on_c, 13, 69, 0
22, 60360, Note_on_c, 13, 70, 91
22, 60420, Note_on_c, 13, 70, 0
22, 60420, Note_on_c, 13, 73, 91
22, 60480, Note_on_c, 13, 73, 0
22, 60480, Note_on_c, 13, 76, 91
22, 60540, Note_on_c, 13, 76, 0
22, 60540, Note_on_c, 13, 74, 91
22, 60600, Note_on_c, 13, 74, 0
22, 60660, Note_on_c, 13, 74, 53
22, 60720, Note_on_c, 13, 74, 0
22, 60720, Note_on_c, 13, 76, 53
22, 60780, Note_on_c, 13, 76, 0
22, 60780, Note_on_c, 13, 78, 53
22, 60840, Note_on_c, 13, 78, 0
22, 60840, Note_on_c, 13, 79, 53
22, 60900, Note_on_c, 13, 79, 0
22, 60900, Note_on_c, 13, 81, 52
22, 60960, Note_on_c, 13, 81, 0
22, 60960, Note_on_c, 13, 82, 50
22, 61080, Note_on_c, 13, 82, 0
22, 61080, Note_on_c, 13, 83, 46
22, 61200, Note_on_c, 13, 83, 0
22, 61200, Note_on_c, 13, 84, 43
22, 61320, Note_on_c, 13, 84, 0
22, 61320, Note_on_c, 13, 85, 40
22, 61440, Note_on_c, 13, 85, 0
22, 61440, Note_on_c, 13, 86, 59
22, 62145, Note_on_c, 13, 86, 0
22, 62160, Note_on_c, 13, 78, 52
22, 62175, Note_on_c, 13, 78, 0
22, 62175, Note_on_c, 13, 79, 53
22, 62190, Note_on_c, 13, 79, 0
22, 62190, Note_on_c, 13, 78, 55
22, 62205, Note_on_c, 13, 78, 0
22, 62205, Note_on_c, 13, 79, 58
22, 62220, Note_on_c, 13, 79, 0
22, 62220, Note_on_c, 13, 78, 59
22, 62235, Note_on_c, 13, 78, 0
22, 62235, Note_on_c, 13, 79, 61
22, 62250, Note_on_c, 13, 79, 0
22, 62250, Note_on_c, 13, 78, 62
22, 62265, Note_on_c, 13, 78, 0
22, 62265, Note_on_c, 13, 79, 65
22, 62280, Note_on_c, 13, 79, 0
22, 62280, Note_on_c, 13, 78, 67
22, 62295, Note_on_c, 13, 78, 0
22, 62295, Note_on_c, 13, 79, 68
22, 62310, Note_on_c, 13, 79, 0
22, 62310, Note_on_c, 13, 78, 70
22, 62325, Note_on_c, 13, 78, 0
22, 62325, Note_on_c, 13, 79, 71
22, 62340, Note_on_c, 13, 79, 0
22, 62340, Note_on_c, 13, 76, 74
22, 62370, Note_on_c, 13, 76, 0
22, 62370, Note_on_c, 13, 78, 77
22, 62400, Note_on_c, 13, 78, 0
22, 62400, Note_on_c, 13, 79, 93
22, 62520, Note_on_c, 13, 79, 0
22, 62580, Note_on_c, 13, 74, 92
22, 62610, Note_on_c, 13, 74, 0
22, 62640, Note_on_c, 13, 79, 92
22, 62760, Note_on_c, 13, 79, 0
22, 62820, Note_on_c, 13, 74, 91
22, 62850, Note_on_c, 13, 74, 0
22, 62880, Note_on_c, 13, 79, 90
22, 62910, Note_on_c, 13, 79, 0
22, 62940, Note_on_c, 13, 74, 90
22, 62970, Note_on_c, 13, 74, 0
22, 63000, Note_on_c, 13, 79, 90
22, 63030, Note_on_c, 13, 79, 0
22, 63060, Note_on_c, 13, 83, 90
22, 63090, Note_on_c, 13, 83, 0
22, 63120, Note_on_c, 13, 86, 89
22, 63240, Note_on_c, 13, 86, 0
22, 63360, Note_on_c, 13, 84, 104
22, 63480, Note_on_c, 13, 84, 0
22, 63540, Note_on_c, 13, 81, 87
22, 63570, Note_on_c, 13, 81, 0
22, 63600, Note_on_c, 13, 84, 86
22, 63720, Note_on_c, 13, 84, 0
22, 63780, Note_on_c, 13, 81, 85
22, 63810, Note_on_c, 13, 81, 0
22, 63840, Note_on_c, 13, 84, 92
22, 63870, Note_on_c, 13, 84, 0
22, 63900, Note_on_c, 13, 81, 85
22, 63930, Note_on_c, 13, 81, 0
22, 63960, Note_on_c, 13, 78, 92
22, 63990, Note_on_c, 13, 78, 0
22, 64020, Note_on_c, 13, 81, 85
22, 64050, Note_on_c, 13, 81, 0
22, 64080, Note_on_c, 13, 74, 94
22, 64200, Note_on_c, 13, 74, 0
22, 64320, Note_on_c, 13, 62, 92
22, 64320, Note_on_c, 13, 79, 92
22, 64320, Note_on_c, 13, 71, 92
22, 64380, Note_on_c, 13, 71, 0
22, 64380, Note_on_c, 13, 79, 0
22, 64380, Note_on_c, 13, 62, 0
22, 64440, Note_on_c, 13, 79, 85
22, 64620, Note_on_c, 13, 79, 0
22, 64620, Note_on_c, 13, 83, 74
22, 64680, Note_on_c, 13, 83, 0
22, 64680, Note_on_c, 13, 81, 74
22, 64710, Note_on_c, 13, 81, 0
22, 64740, Note_on_c, 13, 79, 80
22, 64770, Note_on_c, 13, 79, 0
22, 64800, Note_on_c, 13, 79, 86
22, 64815, Note_on_c, 13, 79, 0
22, 64815, Note_on_c, 13, 81, 86
22, 64830, Note_on_c, 13, 81, 0
22, 64830, Note_on_c, 13, 79, 86
22, 64845, Note_on_c, 13, 79, 0
22, 64845, Note_on_c, 13, 81, 86
22, 64860, Note_on_c, 13, 81, 0
22, 64860, Note_on_c, 13, 78, 83
22, 64910, Note_on_c, 13, 78, 0
22, 64920, Note_on_c, 13, 78, 77
22, 65100, Note_on_c, 13, 78, 0
22, 65100, Note_on_c, 13, 81, 85
22, 65160, Note_on_c, 13, 81, 0
22, 65160, Note_on_c, 13, 84, 85
22, 65190, Note_on_c, 13, 84, 0
22, 65220, Note_on_c, 13, 78, 85
22, 65250, Note_on_c, 13, 78, 0
22, 65280, Note_on_c, 13, 81, 85
22, 65340, Note_on_c, 13, 81, 0
22, 65340, Note_on_c, 13, 79, 85
22, 65370, Note_on_c, 13, 79, 0
22, 65400, Note_on_c, 13, 79, 85
22, 65580, Note_on_c, 13, 79, 0
22, 65580, Note_on_c, 13, 83, 85
22, 65640, Note_on_c, 13, 83, 0
22, 65640, Note_on_c, 13, 81, 85
22, 65670, Note_on_c, 13, 81, 0
22, 65700, Note_on_c, 13, 79, 85
22, 65730, Note_on_c, 13, 79, 0
22, 65760, Note_on_c, 13, 79, 85
22, 65775, Note_on_c, 13, 79, 0
22, 65775, Note_on_c, 13, 81, 85
22, 65790, Note_on_c, 13, 81, 0
22, 65790, Note_on_c, 13, 79, 85
22, 65805, Note_on_c, 13, 79, 0
22, 65805, Note_on_c, 13, 81, 85
22, 65820, Note_on_c, 13, 81, 0
22, 65820, Note_on_c, 13, 78, 85
22, 65870, Note_on_c, 13, 78, 0
22, 65880, Note_on_c, 13, 78, 85
22, 66060, Note_on_c, 13, 78, 0
22, 66060, Note_on_c, 13, 81, 85
22, 66120, Note_on_c, 13, 81, 0
22, 66120, Note_on_c, 13, 84, 85
22, 66150, Note_on_c, 13, 84, 0
22, 66180, Note_on_c, 13, 78, 85
22, 66210, Note_on_c, 13, 78, 0
22, 66240, Note_on_c, 13, 79, 85
22, 66270, Note_on_c, 13, 79, 0
22, 66300, Note_on_c, 13, 79, 85
22, 66330, Note_on_c, 13, 79, 0
22, 66360, Note_on_c, 13, 79, 85
22, 66390, Note_on_c, 13, 79, 0
22, 66390, Note_on_c, 13, 78, 85
22, 66420, Note_on_c, 13, 78, 0
22, 66420, Note_on_c, 13, 76, 85
22, 66450, Note_on_c, 13, 76, 0
22, 66450, Note_on_c, 13, 78, 85
22, 66480, Note_on_c, 13, 78, 0
22, 66480, Note_on_c, 13, 79, 85
22, 66510, Note_on_c, 13, 79, 0
22, 66540, Note_on_c, 13, 79, 85
22, 66570, Note_on_c, 13, 79, 0
22, 66600, Note_on_c, 13, 83, 85
22, 66630, Note_on_c, 13, 83, 0
22, 66630, Note_on_c, 13, 81, 85
22, 66660, Note_on_c, 13, 81, 0
22, 66660, Note_on_c, 13, 79, 85
22, 66690, Note_on_c, 13, 79, 0
22, 66690, Note_on_c, 13, 81, 83
22, 66720, Note_on_c, 13, 81, 0
22, 66720, Note_on_c, 13, 83, 83
22, 66750, Note_on_c, 13, 83, 0
22, 66780, Note_on_c, 13, 83, 83
22, 66810, Note_on_c, 13, 83, 0
22, 66840, Note_on_c, 13, 86, 83
22, 66870, Note_on_c, 13, 86, 0
22, 66870, Note_on_c, 13, 84, 80
22, 66900, Note_on_c, 13, 84, 0
22, 66900, Note_on_c, 13, 83, 79
22, 66930, Note_on_c, 13, 83, 0
22, 66930, Note_on_c, 13, 84, 76
22, 66960, Note_on_c, 13, 84, 0
22, 66960, Note_on_c, 13, 86, 71
22, 67080, Note_on_c, 13, 86, 0
22, 67200, Note_on_c, 13, 74, 56
22, 67440, Note_on_c, 13, 74, 0
22, 67440, Note_on_c, 13, 76, 55
22, 67680, Note_on_c, 13, 76, 0
22, 67680, Note_on_c, 13, 74, 57
22, 67710, Note_on_c, 13, 74, 0
22, 67710, Note_on_c, 13, 72, 59
22, 67790, Note_on_c, 13, 72, 0
22, 67800, Note_on_c, 13, 72, 58
22, 67920, Note_on_c, 13, 72, 0
22, 67920, Note_on_c, 13, 72, 57
22, 67950, Note_on_c, 13, 72, 0
22, 67950, Note_on_c, 13, 71, 55
22, 68030, Note_on_c, 13, 71, 0
22, 68040, Note_on_c, 13, 71, 53
22, 68160, Note_on_c, 13, 71, 0
22, 68160, Note_on_c, 13, 71, 57
22, 68190, Note_on_c, 13, 71, 0
22, 68190, Note_on_c, 13, 69, 56
22, 68270, Note_on_c, 13, 69, 0
22, 68280, Note_on_c, 13, 69, 55
22, 68400, Note_on_c, 13, 69, 0
22, 68400, Note_on_c, 13, 67, 54
22, 68460, Note_on_c, 13, 67, 0
22, 68460, Note_on_c, 13, 66, 55
22, 68490, Note_on_c, 13, 66, 0
22, 68520, Note_on_c, 13, 64, 55
22, 68550, Note_on_c, 13, 64, 0
22, 68580, Note_on_c, 13, 66, 55
22, 68610, Note_on_c, 13, 66, 0
22, 68640, Note_on_c, 13, 67, 56
22, 68700, Note_on_c, 13, 67, 0
22, 68760, Note_on_c, 13, 69, 57
22, 68820, Note_on_c, 13, 69, 0
22, 68880, Note_on_c, 13, 71, 57
22, 68940, Note_on_c, 13, 71, 0
22, 69120, Note_on_c, 13, 74, 56
22, 69360, Note_on_c, 13, 74, 0
22, 69360, Note_on_c, 13, 76, 59
22, 69600, Note_on_c, 13, 76, 0
22, 69600, Note_on_c, 13, 74, 46
22, 69660, Note_on_c, 13, 74, 0
22, 69660, Note_on_c, 13, 72, 51
22, 69690, Note_on_c, 13, 72, 0
22, 69720, Note_on_c, 13, 72, 51
22, 69750, Note_on_c, 13, 72, 0
22, 69780, Note_on_c, 13, 72, 51
22, 69810, Note_on_c, 13, 72, 0
22, 69840, Note_on_c, 13, 72, 51
22, 69900, Note_on_c, 13, 72, 0
22, 69900, Note_on_c, 13, 71, 50
22, 69930, Note_on_c, 13, 71, 0
22, 69960, Note_on_c, 13, 71, 49
22, 69990, Note_on_c, 13, 71, 0
22, 70020, Note_on_c, 13, 71, 49
22, 70050, Note_on_c, 13, 71, 0
22, 70080, Note_on_c, 13, 71, 49
22, 70140, Note_on_c, 13, 71, 0
22, 70140, Note_on_c, 13, 69, 50
22, 70170, Note_on_c, 13, 69, 0
22, 70200, Note_on_c, 13, 69, 52
22, 70245, Note_on_c, 13, 69, 0
22, 70260, Note_on_c, 13, 69, 52
22, 70305, Note_on_c, 13, 69, 0
22, 70320, Note_on_c, 13, 67, 52
22, 70380, Note_on_c, 13, 67, 0
22, 70380, Note_on_c, 13, 66, 54
22, 70440, Note_on_c, 13, 66, 0
22, 70440, Note_on_c, 13, 64, 55
22, 70500, Note_on_c, 13, 64, 0
22, 70500, Note_on_c, 13, 66, 55
22, 70560, Note_on_c, 13, 66, 0
22, 70560, Note_on_c, 13, 55, 85
22, 70560, Note_on_c, 13, 67, 85
22, 70860, Note_on_c, 13, 67, 0
22, 70860, Note_on_c, 13, 55, 0
22, 70860, Note_on_c, 13, 67, 61
22, 70875, Note_on_c, 13, 67, 0
22, 70875, Note_on_c, 13, 69, 61
22, 70890, Note_on_c, 13, 69, 0
22, 70890, Note_on_c, 13, 66, 61
22, 70905, Note_on_c, 13, 66, 0
22, 70905, Note_on_c, 13, 67, 61
22, 70920, Note_on_c, 13, 67, 0
22, 70920, Note_on_c, 13, 69, 61
22, 70980, Note_on_c, 13, 69, 0
22, 70980, Note_on_c, 13, 66, 61
22, 71040, Note_on_c, 13, 66, 0
22, 71040, Note_on_c, 13, 71, 91
22, 71340, Note_on_c, 13, 71, 0
22, 71340, Note_on_c, 13, 71, 61
22, 71355, Note_on_c, 13, 71, 0
22, 71355, Note_on_c, 13, 72, 61
22, 71370, Note_on_c, 13, 72, 0
22, 71370, Note_on_c, 13, 69, 61
22, 71385, Note_on_c, 13, 69, 0
22, 71385, Note_on_c, 13, 71, 61
22, 71400, Note_on_c, 13, 71, 0
22, 71400, Note_on_c, 13, 72, 61
22, 71460, Note_on_c, 13, 72, 0
22, 71460, Note_on_c, 13, 69, 61
22, 71520, Note_on_c, 13, 69, 0
22, 71520, Note_on_c, 13, 74, 51
22, 71540, Note_on_c, 13, 74, 0
22, 71550, Note_on_c, 13, 74, 56
22, 71570, Note_on_c, 13, 74, 0
22, 71580, Note_on_c, 13, 74, 59
22, 71600, Note_on_c, 13, 74, 0
22, 71610, Note_on_c, 13, 74, 56
22, 71630, Note_on_c, 13, 74, 0
22, 71640, Note_on_c, 13, 74, 56
22, 71660, Note_on_c, 13, 74, 0
22, 71670, Note_on_c, 13, 74, 56
22, 71690, Note_on_c, 13, 74, 0
22, 71700, Note_on_c, 13, 74, 56
22, 71720, Note_on_c, 13, 74, 0
22, 71730, Note_on_c, 13, 74, 56
22, 71750, Note_on_c, 13, 74, 0
22, 71760, Note_on_c, 13, 76, 56
22, 71780, Note_on_c, 13, 76, 0
22, 71790, Note_on_c, 13, 76, 56
22, 71810, Note_on_c, 13, 76, 0
22, 71820, Note_on_c, 13, 76, 56
22, 71840, Note_on_c, 13, 76, 0
22, 71850, Note_on_c, 13, 76, 56
22, 71870, Note_on_c, 13, 76, 0
22, 71880, Note_on_c, 13, 78, 56
22, 71900, Note_on_c, 13, 78, 0
22, 71910, Note_on_c, 13, 78, 56
22, 71930, Note_on_c, 13, 78, 0
22, 71940, Note_on_c, 13, 78, 57
22, 71960, Note_on_c, 13, 78, 0
22, 71970, Note_on_c, 13, 78, 59
22, 71990, Note_on_c, 13, 78, 0
22, 72000, Note_on_c, 13, 79, 62
22, 72020, Note_on_c, 13, 79, 0
22, 72030, Note_on_c, 13, 79, 65
22, 72050, Note_on_c, 13, 79, 0
22, 72060, Note_on_c, 13, 79, 66
22, 72080, Note_on_c, 13, 79, 0
22, 72090, Note_on_c, 13, 79, 66
22, 72110, Note_on_c, 13, 79, 0
22, 72120, Note_on_c, 13, 81, 66
22, 72140, Note_on_c, 13, 81, 0
22, 72150, Note_on_c, 13, 81, 66
22, 72170, Note_on_c, 13, 81, 0
22, 72180, Note_on_c, 13, 81, 66
22, 72200, Note_on_c, 13, 81, 0
22, 72210, Note_on_c, 13, 81, 68
22, 72230, Note_on_c, 13, 81, 0
22, 72240, Note_on_c, 13, 83, 68
22, 72260, Note_on_c, 13, 83, 0
22, 72270, Note_on_c, 13, 83, 70
22, 72290, Note_on_c, 13, 83, 0
22, 72300, Note_on_c, 13, 83, 70
22, 72320, Note_on_c, 13, 83, 0
22, 72330, Note_on_c, 13, 83, 71
22, 72350, Note_on_c, 13, 83, 0
22, 72360, Note_on_c, 13, 85, 71
22, 72380, Note_on_c, 13, 85, 0
22, 72390, Note_on_c, 13, 85, 73
22, 72410, Note_on_c, 13, 85, 0
22, 72420, Note_on_c, 13, 85, 74
22, 72440, Note_on_c, 13, 85, 0
22, 72450, Note_on_c, 13, 85, 74
22, 72470, Note_on_c, 13, 85, 0
22, 72480, Note_on_c, 13, 86, 85
22, 72660, Note_on_c, 13, 86, 0
22, 72660, Note_on_c, 13, 81, 85
22, 72720, Note_on_c, 13, 81, 0
22, 72720, Note_on_c, 13, 85, 85
22, 72810, Note_on_c, 13, 85, 0
22, 72810, Note_on_c, 13, 81, 85
22, 72840, Note_on_c, 13, 81, 0
22, 72840, Note_on_c, 13, 85, 85
22, 72930, Note_on_c, 13, 85, 0
22, 72930, Note_on_c, 13, 81, 85
22, 72960, Note_on_c, 13, 81, 0
22, 72960, Note_on_c, 13, 86, 85
22, 73140, Note_on_c, 13, 86, 0
22, 73140, Note_on_c, 13, 81, 85
22, 73200, Note_on_c, 13, 81, 0
22, 73200, Note_on_c, 13, 85, 85
22, 73290, Note_on_c, 13, 85, 0
22, 73290, Note_on_c, 13, 81, 85
22, 73320, Note_on_c, 13, 81, 0
22, 73320, Note_on_c, 13, 85, 85
22, 73410, Note_on_c, 13, 85, 0
22, 73410, Note_on_c, 13, 81, 85
22, 73440, Note_on_c, 13, 81, 0
22, 73440, Note_on_c, 13, 86, 100
22, 73470, Note_on_c, 13, 86, 0
22, 73500, Note_on_c, 13, 81, 100
22, 73530, Note_on_c, 13, 81, 0
22, 73560, Note_on_c, 13, 85, 100
22, 73590, Note_on_c, 13, 85, 0
22, 73620, Note_on_c, 13, 81, 100
22, 73650, Note_on_c, 13, 81, 0
22, 73680, Note_on_c, 13, 86, 100
22, 73710, Note_on_c, 13, 86, 0
22, 73740, Note_on_c, 13, 81, 100
22, 73770, Note_on_c, 13, 81, 0
22, 73800, Note_on_c, 13, 85, 100
22, 73830, Note_on_c, 13, 85, 0
22, 73860, Note_on_c, 13, 81, 100
22, 73890, Note_on_c, 13, 81, 0
22, 73920, Note_on_c, 13, 86, 85
22, 73965, Note_on_c, 13, 86, 0
22, 73980, Note_on_c, 13, 62, 85
22, 74025, Note_on_c, 13, 62, 0
22, 74040, Note_on_c, 13, 62, 85
22, 74085, Note_on_c, 13, 62, 0
22, 74100, Note_on_c, 13, 62, 85
22, 74145, Note_on_c, 13, 62, 0
22, 74160, Note_on_c, 13, 62, 85
22, 74280, Note_on_c, 13, 62, 0
22, 74400, Note_on_c, 13, 74, 46
22, 74580, Note_on_c, 13, 74, 0
22, 74580, Note_on_c, 13, 72, 47
22, 74600, Note_on_c, 13, 72, 0
22, 74600, Note_on_c, 13, 71, 47
22, 74620, Note_on_c, 13, 71, 0
22, 74620, Note_on_c, 13, 69, 47
22, 74640, Note_on_c, 13, 69, 0
22, 74640, Note_on_c, 13, 67, 47
22, 74700, Note_on_c, 13, 67, 0
22, 74760, Note_on_c, 13, 76, 47
22, 74820, Note_on_c, 13, 76, 0
22, 74880, Note_on_c, 13, 72, 46
22, 74940, Note_on_c, 13, 72, 0
22, 75000, Note_on_c, 13, 69, 43
22, 75060, Note_on_c, 13, 69, 0
22, 75120, Note_on_c, 13, 74, 59
22, 75180, Note_on_c, 13, 74, 0
22, 75360, Note_on_c, 13, 83, 55
22, 75540, Note_on_c, 13, 83, 0
22, 75540, Note_on_c, 13, 81, 55
22, 75560, Note_on_c, 13, 81, 0
22, 75560, Note_on_c, 13, 79, 55
22, 75580, Note_on_c, 13, 79, 0
22, 75580, Note_on_c, 13, 78, 55
22, 75600, Note_on_c, 13, 78, 0
22, 75600, Note_on_c, 13, 76, 55
22, 75660, Note_on_c, 13, 76, 0
22, 75720, Note_on_c, 13, 84, 55
22, 75780, Note_on_c, 13, 84, 0
22, 75840, Note_on_c, 13, 83, 55
22, 76080, Note_on_c, 13, 83, 0
22, 76080, Note_on_c, 13, 81, 47
22, 76200, Note_on_c, 13, 81, 0
22, 76380, Note_on_c, 13, 86, 55
22, 76410, Note_on_c, 13, 86, 0
22, 76440, Note_on_c, 13, 86, 55
22, 76470, Note_on_c, 13, 86, 0
22, 76500, Note_on_c, 13, 86, 55
22, 76530, Note_on_c, 13, 86, 0
22, 76560, Note_on_c, 13, 86, 55
22, 76590, Note_on_c, 13, 86, 0
22, 76620, Note_on_c, 13, 86, 55
22, 76650, Note_on_c, 13, 86, 0
22, 76680, Note_on_c, 13, 86, 55
22, 76710, Note_on_c, 13, 86, 0
22, 76740, Note_on_c, 13, 86, 55
22, 76770, Note_on_c, 13, 86, 0
22, 76800, Note_on_c, 13, 86, 55
22, 76830, Note_on_c, 13, 86, 0
22, 76860, Note_on_c, 13, 86, 55
22, 76890, Note_on_c, 13, 86, 0
22, 76920, Note_on_c, 13, 86, 55
22, 76950, Note_on_c, 13, 86, 0
22, 76980, Note_on_c, 13, 86, 55
22, 77010, Note_on_c, 13, 86, 0
22, 77040, Note_on_c, 13, 86, 55
22, 77100, Note_on_c, 13, 86, 0
22, 77100, Note_on_c, 13, 84, 55
22, 77160, Note_on_c, 13, 84, 0
22, 77160, Note_on_c, 13, 79, 55
22, 77220, Note_on_c, 13, 79, 0
22, 77220, Note_on_c, 13, 78, 55
22, 77280, Note_on_c, 13, 78, 0
22, 77280, Note_on_c, 13, 78, 55
22, 77340, Note_on_c, 13, 78, 0
22, 77340, Note_on_c, 13, 79, 65
22, 77400, Note_on_c, 13, 79, 0
22, 77460, Note_on_c, 13, 76, 55
22, 77490, Note_on_c, 13, 76, 0
22, 77520, Note_on_c, 13, 76, 55
22, 77580, Note_on_c, 13, 76, 0
22, 77580, Note_on_c, 13, 74, 55
22, 77640, Note_on_c, 13, 74, 0
22, 77700, Note_on_c, 13, 66, 55
22, 77745, Note_on_c, 13, 66, 0
22, 77760, Note_on_c, 13, 67, 67
22, 77880, Note_on_c, 13, 67, 0
22, 77940, Note_on_c, 13, 74, 55
22, 77970, Note_on_c, 13, 74, 0
22, 78000, Note_on_c, 13, 79, 55
22, 78060, Note_on_c, 13, 79, 0
22, 78060, Note_on_c, 13, 78, 55
22, 78120, Note_on_c, 13, 78, 0
22, 78120, Note_on_c, 13, 76, 55
22, 78180, Note_on_c, 13, 76, 0
22, 78180, Note_on_c, 13, 74, 55
22, 78240, Note_on_c, 13, 74, 0
22, 78240, Note_on_c, 13, 76, 55
22, 78255, Note_on_c, 13, 76, 0
22, 78255, Note_on_c, 13, 78, 55
22, 78270, Note_on_c, 13, 78, 0
22, 78270, Note_on_c, 13, 76, 55
22, 78285, Note_on_c, 13, 76, 0
22, 78285, Note_on_c, 13, 78, 55
22, 78300, Note_on_c, 13, 78, 0
22, 78300, Note_on_c, 13, 74, 55
22, 78360, Note_on_c, 13, 74, 0
22, 78420, Note_on_c, 13, 74, 55
22, 78450, Note_on_c, 13, 74, 0
22, 78480, Note_on_c, 13, 74, 55
22, 78510, Note_on_c, 13, 74, 0
22, 78540, Note_on_c, 13, 74, 55
22, 78570, Note_on_c, 13, 74, 0
22, 78600, Note_on_c, 13, 74, 55
22, 78630, Note_on_c, 13, 74, 0
22, 78660, Note_on_c, 13, 74, 55
22, 78690, Note_on_c, 13, 74, 0
22, 78720, Note_on_c, 13, 76, 55
22, 78735, Note_on_c, 13, 76, 0
22, 78735, Note_on_c, 13, 78, 55
22, 78750, Note_on_c, 13, 78, 0
22, 78750, Note_on_c, 13, 76, 55
22, 78765, Note_on_c, 13, 76, 0
22, 78765, Note_on_c, 13, 78, 55
22, 78780, Note_on_c, 13, 78, 0
22, 78780, Note_on_c, 13, 74, 55
22, 78840, Note_on_c, 13, 74, 0
22, 78900, Note_on_c, 13, 74, 55
22, 78945, Note_on_c, 13, 74, 0
22, 78960, Note_on_c, 13, 79, 55
22, 79020, Note_on_c, 13, 79, 0
22, 79020, Note_on_c, 13, 78, 55
22, 79080, Note_on_c, 13, 78, 0
22, 79080, Note_on_c, 13, 76, 55
22, 79140, Note_on_c, 13, 76, 0
22, 79140, Note_on_c, 13, 74, 55
22, 79200, Note_on_c, 13, 74, 0
22, 79200, Note_on_c, 13, 76, 55
22, 79215, Note_on_c, 13, 76, 0
22, 79215, Note_on_c, 13, 78, 55
22, 79230, Note_on_c, 13, 78, 0
22, 79230, Note_on_c, 13, 76, 55
22, 79245, Note_on_c, 13, 76, 0
22, 79245, Note_on_c, 13, 78, 55
22, 79260, Note_on_c, 13, 78, 0
22, 79260, Note_on_c, 13, 74, 55
22, 79320, Note_on_c, 13, 74, 0
22, 79380, Note_on_c, 13, 74, 55
22, 79410, Note_on_c, 13, 74, 0
22, 79440, Note_on_c, 13, 74, 55
22, 79470, Note_on_c, 13, 74, 0
22, 79500, Note_on_c, 13, 74, 55
22, 79530, Note_on_c, 13, 74, 0
22, 79560, Note_on_c, 13, 74, 55
22, 79590, Note_on_c, 13, 74, 0
22, 79620, Note_on_c, 13, 74, 55
22, 79650, Note_on_c, 13, 74, 0
22, 79680, Note_on_c, 13, 76, 55
22, 79695, Note_on_c, 13, 76, 0
22, 79695, Note_on_c, 13, 78, 55
22, 79710, Note_on_c, 13, 78, 0
22, 79710, Note_on_c, 13, 76, 55
22, 79725, Note_on_c, 13, 76, 0
22, 79725, Note_on_c, 13, 78, 55
22, 79740, Note_on_c, 13, 78, 0
22, 79740, Note_on_c, 13, 74, 55
22, 79800, Note_on_c, 13, 74, 0
22, 79920, Note_on_c, 13, 64, 83
22, 79920, Note_on_c, 13, 76, 83
22, 80090, Note_on_c, 13, 76, 0
22, 80090, Note_on_c, 13, 64, 0
22, 80100, Note_on_c, 13, 74, 82
22, 80120, Note_on_c, 13, 74, 0
22, 80120, Note_on_c, 13, 72, 82
22, 80140, Note_on_c, 13, 72, 0
22, 80140, Note_on_c, 13, 71, 82
22, 80160, Note_on_c, 13, 71, 0
22, 80160, Note_on_c, 13, 72, 83
22, 80280, Note_on_c, 13, 72, 0
22, 80400, Note_on_c, 13, 74, 85
22, 80400, Note_on_c, 13, 62, 85
22, 80570, Note_on_c, 13, 62, 0
22, 80570, Note_on_c, 13, 74, 0
22, 80580, Note_on_c, 13, 72, 77
22, 80600, Note_on_c, 13, 72, 0
22, 80600, Note_on_c, 13, 71, 79
22, 80620, Note_on_c, 13, 71, 0
22, 80620, Note_on_c, 13, 69, 83
22, 80640, Note_on_c, 13, 69, 0
22, 80640, Note_on_c, 13, 71, 88
22, 80760, Note_on_c, 13, 71, 0
22, 80880, Note_on_c, 13, 76, 85
22, 80940, Note_on_c, 13, 76, 0
22, 80940, Note_on_c, 13, 78, 85
22, 80970, Note_on_c, 13, 78, 0
22, 80970, Note_on_c, 13, 79, 85
22, 81000, Note_on_c, 13, 79, 0
22, 81000, Note_on_c, 13, 78, 85
22, 81045, Note_on_c, 13, 78, 0
22, 81060, Note_on_c, 13, 76, 85
22, 81090, Note_on_c, 13, 76, 0
22, 81120, Note_on_c, 13, 76, 85
22, 81180, Note_on_c, 13, 76, 0
22, 81180, Note_on_c, 13, 74, 85
22, 81225, Note_on_c, 13, 74, 0
22, 81240, Note_on_c, 13, 71, 85
22, 81270, Note_on_c, 13, 71, 0
22, 81300, Note_on_c, 13, 74, 85
22, 81330, Note_on_c, 13, 74, 0
22, 81360, Note_on_c, 13, 74, 85
22, 81420, Note_on_c, 13, 74, 0
22, 81420, Note_on_c, 13, 72, 85
22, 81465, Note_on_c, 13, 72, 0
22, 81480, Note_on_c, 13, 71, 85
22, 81510, Note_on_c, 13, 71, 0
22, 81540, Note_on_c, 13, 69, 85
22, 81570, Note_on_c, 13, 69, 0
22, 81600, Note_on_c, 13, 67, 85
22, 81720, Note_on_c, 13, 67, 0
22, 81780, Note_on_c, 13, 74, 50
22, 81810, Note_on_c, 13, 74, 0
22, 81840, Note_on_c, 13, 79, 50
22, 81900, Note_on_c, 13, 79, 0
22, 81900, Note_on_c, 13, 78, 50
22, 81960, Note_on_c, 13, 78, 0
22, 81960, Note_on_c, 13, 76, 53
22, 82020, Note_on_c, 13, 76, 0
22, 82020, Note_on_c, 13, 74, 56
22, 82080, Note_on_c, 13, 74, 0
22, 82080, Note_on_c, 13, 76, 58
22, 82095, Note_on_c, 13, 76, 0
22, 82095, Note_on_c, 13, 78, 58
22, 82110, Note_on_c, 13, 78, 0
22, 82110, Note_on_c, 13, 76, 59
22, 82125, Note_on_c, 13, 76, 0
22, 82125, Note_on_c, 13, 78, 59
22, 82140, Note_on_c, 13, 78, 0
22, 82140, Note_on_c, 13, 74, 61
22, 82200, Note_on_c, 13, 74, 0
22, 82260, Note_on_c, 13, 74, 56
22, 82290, Note_on_c, 13, 74, 0
22, 82320, Note_on_c, 13, 74, 55
22, 82350, Note_on_c, 13, 74, 0
22, 82380, Note_on_c, 13, 74, 55
22, 82410, Note_on_c, 13, 74, 0
22, 82440, Note_on_c, 13, 74, 53
22, 82470, Note_on_c, 13, 74, 0
22, 82500, Note_on_c, 13, 74, 52
22, 82530, Note_on_c, 13, 74, 0
22, 82560, Note_on_c, 13, 76, 55
22, 82575, Note_on_c, 13, 76, 0
22, 82575, Note_on_c, 13, 78, 55
22, 82590, Note_on_c, 13, 78, 0
22, 82590, Note_on_c, 13, 76, 55
22, 82605, Note_on_c, 13, 76, 0
22, 82605, Note_on_c, 13, 78, 55
22, 82620, Note_on_c, 13, 78, 0
22, 82620, Note_on_c, 13, 74, 55
22, 82680, Note_on_c, 13, 74, 0
22, 82740, Note_on_c, 13, 74, 55
22, 82785, Note_on_c, 13, 74, 0
22, 82800, Note_on_c, 13, 79, 55
22, 82860, Note_on_c, 13, 79, 0
22, 82860, Note_on_c, 13, 78, 55
22, 82920, Note_on_c, 13, 78, 0
22, 82920, Note_on_c, 13, 76, 55
22, 82980, Note_on_c, 13, 76, 0
22, 82980, Note_on_c, 13, 74, 56
22, 83040, Note_on_c, 13, 74, 0
22, 83040, Note_on_c, 13, 76, 65
22, 83055, Note_on_c, 13, 76, 0
22, 83055, Note_on_c, 13, 78, 65
22, 83070, Note_on_c, 13, 78, 0
22, 83070, Note_on_c, 13, 76, 65
22, 83085, Note_on_c, 13, 76, 0
22, 83085, Note_on_c, 13, 78, 65
22, 83100, Note_on_c, 13, 78, 0
22, 83100, Note_on_c, 13, 74, 64
22, 83160, Note_on_c, 13, 74, 0
22, 83220, Note_on_c, 13, 74, 55
22, 83250, Note_on_c, 13, 74, 0
22, 83280, Note_on_c, 13, 74, 55
22, 83310, Note_on_c, 13, 74, 0
22, 83340, Note_on_c, 13, 74, 55
22, 83370, Note_on_c, 13, 74, 0
22, 83400, Note_on_c, 13, 74, 55
22, 83430, Note_on_c, 13, 74, 0
22, 83460, Note_on_c, 13, 74, 55
22, 83490, Note_on_c, 13, 74, 0
22, 83520, Note_on_c, 13, 76, 59
22, 83535, Note_on_c, 13, 76, 0
22, 83535, Note_on_c, 13, 78, 59
22, 83550, Note_on_c, 13, 78, 0
22, 83550, Note_on_c, 13, 76, 59
22, 83565, Note_on_c, 13, 76, 0
22, 83565, Note_on_c, 13, 78, 59
22, 83580, Note_on_c, 13, 78, 0
22, 83580, Note_on_c, 13, 74, 59
22, 83640, Note_on_c, 13, 74, 0
22, 83760, Note_on_c, 13, 88, 85
22, 83930, Note_on_c, 13, 88, 0
22, 83940, Note_on_c, 13, 86, 85
22, 83960, Note_on_c, 13, 86, 0
22, 83960, Note_on_c, 13, 84, 85
22, 83980, Note_on_c, 13, 84, 0
22, 83980, Note_on_c, 13, 83, 85
22, 84000, Note_on_c, 13, 83, 0
22, 84000, Note_on_c, 13, 84, 85
22, 84120, Note_on_c, 13, 84, 0
22, 84240, Note_on_c, 13, 86, 85
22, 84240, Note_on_c, 13, 74, 85
22, 84410, Note_on_c, 13, 74, 0
22, 84410, Note_on_c, 13, 86, 0
22, 84420, Note_on_c, 13, 84, 82
22, 84440, Note_on_c, 13, 84, 0
22, 84440, Note_on_c, 13, 83, 83
22, 84460, Note_on_c, 13, 83, 0
22, 84460, Note_on_c, 13, 81, 83
22, 84480, Note_on_c, 13, 81, 0
22, 84480, Note_on_c, 13, 83, 86
22, 84600, Note_on_c, 13, 83, 0
22, 84720, Note_on_c, 13, 76, 85
22, 84780, Note_on_c, 13, 76, 0
22, 84780, Note_on_c, 13, 78, 85
22, 84810, Note_on_c, 13, 78, 0
22, 84810, Note_on_c, 13, 79, 85
22, 84840, Note_on_c, 13, 79, 0
22, 84840, Note_on_c, 13, 78, 85
22, 84885, Note_on_c, 13, 78, 0
22, 84900, Note_on_c, 13, 76, 85
22, 84930, Note_on_c, 13, 76, 0
22, 84960, Note_on_c, 13, 74, 85
22, 84990, Note_on_c, 13, 74, 0
22, 85020, Note_on_c, 13, 79, 85
22, 85050, Note_on_c, 13, 79, 0
22, 85080, Note_on_c, 13, 83, 85
22, 85110, Note_on_c, 13, 83, 0
22, 85140, Note_on_c, 13, 86, 85
22, 85170, Note_on_c, 13, 86, 0
22, 85200, Note_on_c, 13, 86, 85
22, 85260, Note_on_c, 13, 86, 0
22, 85260, Note_on_c, 13, 84, 85
22, 85305, Note_on_c, 13, 84, 0
22, 85320, Note_on_c, 13, 83, 85
22, 85350, Note_on_c, 13, 83, 0
22, 85380, Note_on_c, 13, 81, 85
22, 85410, Note_on_c, 13, 81, 0
22, 85440, Note_on_c, 13, 79, 94
22, 85485, Note_on_c, 13, 79, 0
22, 85500, Note_on_c, 13, 62, 85
22, 85545, Note_on_c, 13, 62, 0
22, 85560, Note_on_c, 13, 64, 85
22, 85605, Note_on_c, 13, 64, 0
22, 85620, Note_on_c, 13, 66, 85
22, 85665, Note_on_c, 13, 66, 0
22, 85680, Note_on_c, 13, 67, 85
22, 85725, Note_on_c, 13, 67, 0
22, 85740, Note_on_c, 13, 67, 85
22, 85785, Note_on_c, 13, 67, 0
22, 85800, Note_on_c, 13, 69, 85
22, 85815, Note_on_c, 13, 69, 0
22, 85815, Note_on_c, 13, 71, 85
22, 85830, Note_on_c, 13, 71, 0
22, 85830, Note_on_c, 13, 69, 85
22, 85845, Note_on_c, 13, 69, 0
22, 85845, Note_on_c, 13, 71, 85
22, 85860, Note_on_c, 13, 71, 0
22, 85860, Note_on_c, 13, 67, 85
22, 85890, Note_on_c, 13, 67, 0
22, 85890, Note_on_c, 13, 69, 85
22, 85920, Note_on_c, 13, 69, 0
22, 85920, Note_on_c, 13, 71, 85
22, 85965, Note_on_c, 13, 71, 0
22, 85980, Note_on_c, 13, 66, 85
22, 86025, Note_on_c, 13, 66, 0
22, 86040, Note_on_c, 13, 67, 85
22, 86085, Note_on_c, 13, 67, 0
22, 86100, Note_on_c, 13, 69, 85
22, 86145, Note_on_c, 13, 69, 0
22, 86160, Note_on_c, 13, 71, 85
22, 86205, Note_on_c, 13, 71, 0
22, 86220, Note_on_c, 13, 71, 85
22, 86265, Note_on_c, 13, 71, 0
22, 86280, Note_on_c, 13, 72, 86
22, 86295, Note_on_c, 13, 72, 0
22, 86295, Note_on_c, 13, 74, 86
22, 86310, Note_on_c, 13, 74, 0
22, 86310, Note_on_c, 13, 72, 86
22, 86325, Note_on_c, 13, 72, 0
22, 86325, Note_on_c, 13, 74, 86
22, 86340, Note_on_c, 13, 74, 0
22, 86340, Note_on_c, 13, 71, 86
22, 86370, Note_on_c, 13, 71, 0
22, 86370, Note_on_c, 13, 72, 89
22, 86400, Note_on_c, 13, 72, 0
22, 86400, Note_on_c, 13, 74, 89
22, 86445, Note_on_c, 13, 74, 0
22, 86460, Note_on_c, 13, 74, 91
22, 86505, Note_on_c, 13, 74, 0
22, 86520, Note_on_c, 13, 75, 91
22, 86535, Note_on_c, 13, 75, 0
22, 86535, Note_on_c, 13, 76, 91
22, 86550, Note_on_c, 13, 76, 0
22, 86550, Note_on_c, 13, 75, 91
22, 86565, Note_on_c, 13, 75, 0
22, 86565, Note_on_c, 13, 76, 92
22, 86580, Note_on_c, 13, 76, 0
22, 86580, Note_on_c, 13, 73, 94
22, 86610, Note_on_c, 13, 73, 0
22, 86610, Note_on_c, 13, 75, 97
22, 86640, Note_on_c, 13, 75, 0
22, 86640, Note_on_c, 13, 76, 98
22, 86760, Note_on_c, 13, 76, 0
22, 86880, Note_on_c, 13, 64, 61
22, 87060, Note_on_c, 13, 64, 0
22, 87060, Note_on_c, 13, 69, 61
22, 87105, Note_on_c, 13, 69, 0
22, 87120, Note_on_c, 13, 67, 61
22, 87180, Note_on_c, 13, 67, 0
22, 87180, Note_on_c, 13, 66, 62
22, 87240, Note_on_c, 13, 66, 0
22, 87240, Note_on_c, 13, 64, 62
22, 87300, Note_on_c, 13, 64, 0
22, 87300, Note_on_c, 13, 62, 62
22, 87345, Note_on_c, 13, 62, 0
22, 87360, Note_on_c, 13, 74, 62
22, 87420, Note_on_c, 13, 74, 0
22, 87420, Note_on_c, 13, 73, 62
22, 87480, Note_on_c, 13, 73, 0
22, 87480, Note_on_c, 13, 72, 62
22, 87540, Note_on_c, 13, 72, 0
22, 87540, Note_on_c, 13, 71, 62
22, 87600, Note_on_c, 13, 71, 0
22, 87600, Note_on_c, 13, 74, 61
22, 87660, Note_on_c, 13, 74, 0
22, 87660, Note_on_c, 13, 73, 61
22, 87720, Note_on_c, 13, 73, 0
22, 87720, Note_on_c, 13, 72, 61
22, 87780, Note_on_c, 13, 72, 0
22, 87780, Note_on_c, 13, 71, 59
22, 87825, Note_on_c, 13, 71, 0
22, 87840, Note_on_c, 13, 64, 61
22, 88020, Note_on_c, 13, 64, 0
22, 88020, Note_on_c, 13, 69, 67
22, 88065, Note_on_c, 13, 69, 0
22, 88080, Note_on_c, 13, 67, 70
22, 88140, Note_on_c, 13, 67, 0
22, 88140, Note_on_c, 13, 66, 70
22, 88200, Note_on_c, 13, 66, 0
22, 88200, Note_on_c, 13, 64, 70
22, 88260, Note_on_c, 13, 64, 0
22, 88260, Note_on_c, 13, 62, 70
22, 88305, Note_on_c, 13, 62, 0
22, 88320, Note_on_c, 13, 74, 70
22, 88380, Note_on_c, 13, 74, 0
22, 88380, Note_on_c, 13, 76, 70
22, 88440, Note_on_c, 13, 76, 0
22, 88440, Note_on_c, 13, 78, 70
22, 88500, Note_on_c, 13, 78, 0
22, 88500, Note_on_c, 13, 79, 70
22, 88560, Note_on_c, 13, 79, 0
22, 88560, Note_on_c, 13, 74, 70
22, 88620, Note_on_c, 13, 74, 0
22, 88620, Note_on_c, 13, 76, 70
22, 88680, Note_on_c, 13, 76, 0
22, 88680, Note_on_c, 13, 78, 70
22, 88740, Note_on_c, 13, 78, 0
22, 88740, Note_on_c, 13, 79, 76
22, 88785, Note_on_c, 13, 79, 0
22, 88800, Note_on_c, 13, 81, 75
22, 88920, Note_on_c, 13, 81, 0
22, 89040, Note_on_c, 13, 74, 91
22, 89040, Note_on_c, 13, 86, 91
22, 89160, Note_on_c, 13, 86, 0
22, 89160, Note_on_c, 13, 74, 0
22, 89280, Note_on_c, 13, 62, 96
22, 89280, Note_on_c, 13, 71, 96
22, 89280, Note_on_c, 13, 79, 96
22, 89400, Note_on_c, 13, 79, 0
22, 89400, Note_on_c, 13, 71, 0
22, 89400, Note_on_c, 13, 62, 0
22, 89460, Note_on_c, 13, 74, 95
22, 89505, Note_on_c, 13, 74, 0
22, 89520, Note_on_c, 13, 71, 94
22, 89565, Note_on_c, 13, 71, 0
22, 89580, Note_on_c, 13, 67, 90
22, 89625, Note_on_c, 13, 67, 0
22, 89640, Note_on_c, 13, 71, 90
22, 89685, Note_on_c, 13, 71, 0
22, 89700, Note_on_c, 13, 74, 89
22, 89745, Note_on_c, 13, 74, 0
22, 89760, Note_on_c, 13, 79, 88
22, 89805, Note_on_c, 13, 79, 0
22, 89820, Note_on_c, 13, 74, 88
22, 89865, Note_on_c, 13, 74, 0
22, 89880, Note_on_c, 13, 79, 88
22, 89925, Note_on_c, 13, 79, 0
22, 89940, Note_on_c, 13, 83, 90
22, 89985, Note_on_c, 13, 83, 0
22, 90000, Note_on_c, 13, 86, 92
22, 90100, Note_on_c, 13, 86, 0
22, 90120, Note_on_c, 13, 62, 95
22, 90120, Note_on_c, 13, 69, 95
22, 90120, Note_on_c, 13, 78, 95
22, 90220, Note_on_c, 13, 78, 0
22, 90220, Note_on_c, 13, 69, 0
22, 90220, Note_on_c, 13, 62, 0
22, 90240, Note_on_c, 13, 62, 100
22, 90240, Note_on_c, 13, 71, 100
22, 90240, Note_on_c, 13, 79, 100
22, 90360, Note_on_c, 13, 79, 0
22, 90360, Note_on_c, 13, 71, 0
22, 90360, Note_on_c, 13, 62, 0
22, 90420, Note_on_c, 13, 74, 98
22, 90465, Note_on_c, 13, 74, 0
22, 90480, Note_on_c, 13, 71, 98
22, 90525, Note_on_c, 13, 71, 0
22, 90540, Note_on_c, 13, 67, 95
22, 90585, Note_on_c, 13, 67, 0
22, 90600, Note_on_c, 13, 71, 94
22, 90645, Note_on_c, 13, 71, 0
22, 90660, Note_on_c, 13, 74, 92
22, 90705, Note_on_c, 13, 74, 0
22, 90720, Note_on_c, 13, 79, 91
22, 90765, Note_on_c, 13, 79, 0
22, 90780, Note_on_c, 13, 74, 91
22, 90825, Note_on_c, 13, 74, 0
22, 90840, Note_on_c, 13, 79, 92
22, 90885, Note_on_c, 13, 79, 0
22, 90900, Note_on_c, 13, 83, 92
22, 90945, Note_on_c, 13, 83, 0
22, 90960, Note_on_c, 13, 86, 96
22, 91060, Note_on_c, 13, 86, 0
22, 91080, Note_on_c, 13, 62, 99
22, 91080, Note_on_c, 13, 69, 99
22, 91080, Note_on_c, 13, 78, 99
22, 91180, Note_on_c, 13, 78, 0
22, 91180, Note_on_c, 13, 69, 0
22, 91180, Note_on_c, 13, 62, 0
22, 91200, Note_on_c, 13, 62, 109
22, 91200, Note_on_c, 13, 71, 109
22, 91200, Note_on_c, 13, 79, 109
22, 91320, Note_on_c, 13, 79, 0
22, 91320, Note_on_c, 13, 71, 0
22, 91320, Note_on_c, 13, 62, 0
22, 91440, Note_on_c, 13, 62, 106
22, 91440, Note_on_c, 13, 71, 106
22, 91440, Note_on_c, 13, 79, 106
22, 91560, Note_on_c, 13, 79, 0
22, 91560, Note_on_c, 13, 71, 0
22, 91560, Note_on_c, 13, 62, 0
22, 91680, Note_on_c, 13, 62, 106
22, 91680, Note_on_c, 13, 71, 106
22, 91680, Note_on_c, 13, 79, 106
22, 91780, Note_on_c, 13, 79, 0
22, 91780, Note_on_c, 13, 71, 0
22, 91780, Note_on_c, 13, 62, 0
22, 91800, Note_on_c, 13, 55, 110
22, 91800, Note_on_c, 13, 67, 110
22, 91860, Note_on_c, 13, 67, 0
22, 91860, Note_on_c, 13, 55, 0
22, 91890, Note_on_c, 13, 55, 109
22, 91890, Note_on_c, 13, 67, 109
22, 91905, Note_on_c, 13, 67, 0
22, 91905, Note_on_c, 13, 55, 0
22, 91920, Note_on_c, 13, 55, 108
22, 91920, Note_on_c, 13, 67, 108
22, 92040, Note_on_c, 13, 67, 0
22, 92040, Note_on_c, 13, 55, 0
22, 92040, End_track
23, 0, Start_track
23, 0, MIDI_port, 0
23, 0, Program_c, 13, 41
23, 0, Control_c, 13, 7, 122
23, 0, Control_c, 13, 10, 53
23, 10, Note_on_c, 13, 79, 85
23, 10, Note_on_c, 13, 71, 85
23, 10, Note_on_c, 13, 62, 85
23, 130, Note_on_c, 13, 62, 0
23, 130, Note_on_c, 13, 71, 0
23, 130, Note_on_c, 13, 79, 0
23, 190, Note_on_c, 13, 74, 85
23, 220, Note_on_c, 13, 74, 0
23, 250, Note_on_c, 13, 79, 85
23, 370, Note_on_c, 13, 79, 0
23, 430, Note_on_c, 13, 74, 85
23, 460, Note_on_c, 13, 74, 0
23, 490, Note_on_c, 13, 79, 85
23, 520, Note_on_c, 13, 79, 0
23, 550, Note_on_c, 13, 74, 85
23, 580, Note_on_c, 13, 74, 0
23, 610, Note_on_c, 13, 79, 85
23, 640, Note_on_c, 13, 79, 0
23, 670, Note_on_c, 13, 83, 85
23, 700, Note_on_c, 13, 83, 0
23, 730, Note_on_c, 13, 86, 85
23, 850, Note_on_c, 13, 86, 0
23, 970, Note_on_c, 13, 84, 85
23, 1090, Note_on_c, 13, 84, 0
23, 1150, Note_on_c, 13, 81, 85
23, 1180, Note_on_c, 13, 81, 0
23, 1210, Note_on_c, 13, 84, 85
23, 1330, Note_on_c, 13, 84, 0
23, 1390, Note_on_c, 13, 81, 85
23, 1420, Note_on_c, 13, 81, 0
23, 1450, Note_on_c, 13, 84, 85
23, 1480, Note_on_c, 13, 84, 0
23, 1510, Note_on_c, 13, 81, 85
23, 1540, Note_on_c, 13, 81, 0
23, 1570, Note_on_c, 13, 78, 85
23, 1600, Note_on_c, 13, 78, 0
23, 1630, Note_on_c, 13, 81, 85
23, 1660, Note_on_c, 13, 81, 0
23, 1690, Note_on_c, 13, 74, 85
23, 1810, Note_on_c, 13, 74, 0
23, 1920, Note_on_c, 13, 59, 85
23, 1920, Note_on_c, 13, 62, 85
23, 1940, Note_on_c, 13, 62, 0
23, 1940, Note_on_c, 13, 59, 0
23, 1950, Note_on_c, 13, 59, 85
23, 1950, Note_on_c, 13, 62, 85
23, 1970, Note_on_c, 13, 62, 0
23, 1970, Note_on_c, 13, 59, 0
23, 1980, Note_on_c, 13, 59, 85
23, 1980, Note_on_c, 13, 62, 85
23, 2000, Note_on_c, 13, 62, 0
23, 2000, Note_on_c, 13, 59, 0
23, 2010, Note_on_c, 13, 59, 85
23, 2010, Note_on_c, 13, 62, 85
23, 2030, Note_on_c, 13, 62, 0
23, 2030, Note_on_c, 13, 59, 0
23, 2040, Note_on_c, 13, 59, 85
23, 2040, Note_on_c, 13, 62, 85
23, 2060, Note_on_c, 13, 62, 0
23, 2060, Note_on_c, 13, 59, 0
23, 2070, Note_on_c, 13, 59, 85
23, 2070, Note_on_c, 13, 62, 85
23, 2090, Note_on_c, 13, 62, 0
23, 2090, Note_on_c, 13, 59, 0
23, 2100, Note_on_c, 13, 59, 85
23, 2100, Note_on_c, 13, 62, 85
23, 2120, Note_on_c, 13, 62, 0
23, 2120, Note_on_c, 13, 59, 0
23, 2130, Note_on_c, 13, 59, 85
23, 2130, Note_on_c, 13, 62, 85
23, 2150, Note_on_c, 13, 62, 0
23, 2150, Note_on_c, 13, 59, 0
23, 2160, Note_on_c, 13, 59, 85
23, 2160, Note_on_c, 13, 62, 85
23, 2180, Note_on_c, 13, 62, 0
23, 2180, Note_on_c, 13, 59, 0
23, 2190, Note_on_c, 13, 59, 85
23, 2190, Note_on_c, 13, 62, 85
23, 2210, Note_on_c, 13, 62, 0
23, 2210, Note_on_c, 13, 59, 0
23, 2220, Note_on_c, 13, 59, 85
23, 2220, Note_on_c, 13, 62, 85
23, 2240, Note_on_c, 13, 62, 0
23, 2240, Note_on_c, 13, 59, 0
23, 2250, Note_on_c, 13, 59, 85
23, 2250, Note_on_c, 13, 62, 85
23, 2270, Note_on_c, 13, 62, 0
23, 2270, Note_on_c, 13, 59, 0
23, 2280, Note_on_c, 13, 59, 85
23, 2280, Note_on_c, 13, 62, 85
23, 2300, Note_on_c, 13, 62, 0
23, 2300, Note_on_c, 13, 59, 0
23, 2310, Note_on_c, 13, 59, 85
23, 2310, Note_on_c, 13, 62, 85
23, 2330, Note_on_c, 13, 62, 0
23, 2330, Note_on_c, 13, 59, 0
23, 2340, Note_on_c, 13, 59, 85
23, 2340, Note_on_c, 13, 62, 85
23, 2360, Note_on_c, 13, 62, 0
23, 2360, Note_on_c, 13, 59, 0
23, 2370, Note_on_c, 13, 59, 85
23, 2370, Note_on_c, 13, 62, 85
23, 2390, Note_on_c, 13, 62, 0
23, 2390, Note_on_c, 13, 59, 0
23, 2400, Note_on_c, 13, 60, 85
23, 2400, Note_on_c, 13, 62, 85
23, 2420, Note_on_c, 13, 62, 0
23, 2420, Note_on_c, 13, 60, 0
23, 2430, Note_on_c, 13, 60, 85
23, 2430, Note_on_c, 13, 62, 85
23, 2450, Note_on_c, 13, 62, 0
23, 2450, Note_on_c, 13, 60, 0
23, 2460, Note_on_c, 13, 60, 85
23, 2460, Note_on_c, 13, 62, 85
23, 2480, Note_on_c, 13, 62, 0
23, 2480, Note_on_c, 13, 60, 0
23, 2490, Note_on_c, 13, 60, 85
23, 2490, Note_on_c, 13, 62, 85
23, 2510, Note_on_c, 13, 62, 0
23, 2510, Note_on_c, 13, 60, 0
23, 2520, Note_on_c, 13, 60, 85
23, 2520, Note_on_c, 13, 62, 85
23, 2540, Note_on_c, 13, 62, 0
23, 2540, Note_on_c, 13, 60, 0
23, 2550, Note_on_c, 13, 60, 85
23, 2550, Note_on_c, 13, 62, 85
23, 2570, Note_on_c, 13, 62, 0
23, 2570, Note_on_c, 13, 60, 0
23, 2580, Note_on_c, 13, 60, 85
23, 2580, Note_on_c, 13, 62, 85
23, 2600, Note_on_c, 13, 62, 0
23, 2600, Note_on_c, 13, 60, 0
23, 2610, Note_on_c, 13, 60, 85
23, 2610, Note_on_c, 13, 62, 85
23, 2630, Note_on_c, 13, 62, 0
23, 2630, Note_on_c, 13, 60, 0
23, 2640, Note_on_c, 13, 60, 85
23, 2640, Note_on_c, 13, 62, 85
23, 2660, Note_on_c, 13, 62, 0
23, 2660, Note_on_c, 13, 60, 0
23, 2670, Note_on_c, 13, 60, 85
23, 2670, Note_on_c, 13, 62, 85
23, 2690, Note_on_c, 13, 62, 0
23, 2690, Note_on_c, 13, 60, 0
23, 2700, Note_on_c, 13, 60, 85
23, 2700, Note_on_c, 13, 62, 85
23, 2720, Note_on_c, 13, 62, 0
23, 2720, Note_on_c, 13, 60, 0
23, 2730, Note_on_c, 13, 60, 85
23, 2730, Note_on_c, 13, 62, 85
23, 2750, Note_on_c, 13, 62, 0
23, 2750, Note_on_c, 13, 60, 0
23, 2760, Note_on_c, 13, 60, 85
23, 2760, Note_on_c, 13, 62, 85
23, 2780, Note_on_c, 13, 62, 0
23, 2780, Note_on_c, 13, 60, 0
23, 2790, Note_on_c, 13, 60, 85
23, 2790, Note_on_c, 13, 62, 85
23, 2810, Note_on_c, 13, 62, 0
23, 2810, Note_on_c, 13, 60, 0
23, 2820, Note_on_c, 13, 60, 85
23, 2820, Note_on_c, 13, 62, 85
23, 2840, Note_on_c, 13, 62, 0
23, 2840, Note_on_c, 13, 60, 0
23, 2850, Note_on_c, 13, 60, 85
23, 2850, Note_on_c, 13, 62, 85
23, 2870, Note_on_c, 13, 62, 0
23, 2870, Note_on_c, 13, 60, 0
23, 2880, Note_on_c, 13, 59, 85
23, 2880, Note_on_c, 13, 62, 85
23, 2900, Note_on_c, 13, 62, 0
23, 2900, Note_on_c, 13, 59, 0
23, 2910, Note_on_c, 13, 59, 85
23, 2910, Note_on_c, 13, 62, 85
23, 2930, Note_on_c, 13, 62, 0
23, 2930, Note_on_c, 13, 59, 0
23, 2940, Note_on_c, 13, 59, 85
23, 2940, Note_on_c, 13, 62, 85
23, 2960, Note_on_c, 13, 62, 0
23, 2960, Note_on_c, 13, 59, 0
23, 2970, Note_on_c, 13, 59, 85
23, 2970, Note_on_c, 13, 62, 85
23, 2990, Note_on_c, 13, 62, 0
23, 2990, Note_on_c, 13, 59, 0
23, 3000, Note_on_c, 13, 59, 85
23, 3000, Note_on_c, 13, 62, 85
23, 3020, Note_on_c, 13, 62, 0
23, 3020, Note_on_c, 13, 59, 0
23, 3030, Note_on_c, 13, 59, 85
23, 3030, Note_on_c, 13, 62, 85
23, 3050, Note_on_c, 13, 62, 0
23, 3050, Note_on_c, 13, 59, 0
23, 3060, Note_on_c, 13, 59, 85
23, 3060, Note_on_c, 13, 62, 85
23, 3080, Note_on_c, 13, 62, 0
23, 3080, Note_on_c, 13, 59, 0
23, 3090, Note_on_c, 13, 59, 85
23, 3090, Note_on_c, 13, 62, 85
23, 3110, Note_on_c, 13, 62, 0
23, 3110, Note_on_c, 13, 59, 0
23, 3120, Note_on_c, 13, 59, 85
23, 3120, Note_on_c, 13, 62, 85
23, 3140, Note_on_c, 13, 62, 0
23, 3140, Note_on_c, 13, 59, 0
23, 3150, Note_on_c, 13, 59, 85
23, 3150, Note_on_c, 13, 62, 85
23, 3170, Note_on_c, 13, 62, 0
23, 3170, Note_on_c, 13, 59, 0
23, 3180, Note_on_c, 13, 59, 85
23, 3180, Note_on_c, 13, 62, 85
23, 3200, Note_on_c, 13, 62, 0
23, 3200, Note_on_c, 13, 59, 0
23, 3210, Note_on_c, 13, 59, 85
23, 3210, Note_on_c, 13, 62, 85
23, 3230, Note_on_c, 13, 62, 0
23, 3230, Note_on_c, 13, 59, 0
23, 3240, Note_on_c, 13, 59, 85
23, 3240, Note_on_c, 13, 62, 85
23, 3260, Note_on_c, 13, 62, 0
23, 3260, Note_on_c, 13, 59, 0
23, 3270, Note_on_c, 13, 59, 85
23, 3270, Note_on_c, 13, 62, 85
23, 3290, Note_on_c, 13, 62, 0
23, 3290, Note_on_c, 13, 59, 0
23, 3300, Note_on_c, 13, 59, 85
23, 3300, Note_on_c, 13, 62, 85
23, 3320, Note_on_c, 13, 62, 0
23, 3320, Note_on_c, 13, 59, 0
23, 3330, Note_on_c, 13, 59, 85
23, 3330, Note_on_c, 13, 62, 85
23, 3350, Note_on_c, 13, 62, 0
23, 3350, Note_on_c, 13, 59, 0
23, 3360, Note_on_c, 13, 60, 85
23, 3360, Note_on_c, 13, 62, 85
23, 3380, Note_on_c, 13, 62, 0
23, 3380, Note_on_c, 13, 60, 0
23, 3390, Note_on_c, 13, 60, 85
23, 3390, Note_on_c, 13, 62, 85
23, 3410, Note_on_c, 13, 62, 0
23, 3410, Note_on_c, 13, 60, 0
23, 3420, Note_on_c, 13, 60, 85
23, 3420, Note_on_c, 13, 62, 85
23, 3440, Note_on_c, 13, 62, 0
23, 3440, Note_on_c, 13, 60, 0
23, 3450, Note_on_c, 13, 60, 85
23, 3450, Note_on_c, 13, 62, 85
23, 3470, Note_on_c, 13, 62, 0
23, 3470, Note_on_c, 13, 60, 0
23, 3480, Note_on_c, 13, 60, 85
23, 3480, Note_on_c, 13, 62, 85
23, 3500, Note_on_c, 13, 62, 0
23, 3500, Note_on_c, 13, 60, 0
23, 3510, Note_on_c, 13, 60, 85
23, 3510, Note_on_c, 13, 62, 85
23, 3530, Note_on_c, 13, 62, 0
23, 3530, Note_on_c, 13, 60, 0
23, 3540, Note_on_c, 13, 60, 85
23, 3540, Note_on_c, 13, 62, 85
23, 3560, Note_on_c, 13, 62, 0
23, 3560, Note_on_c, 13, 60, 0
23, 3570, Note_on_c, 13, 60, 85
23, 3570, Note_on_c, 13, 62, 85
23, 3590, Note_on_c, 13, 62, 0
23, 3590, Note_on_c, 13, 60, 0
23, 3600, Note_on_c, 13, 60, 85
23, 3600, Note_on_c, 13, 62, 85
23, 3620, Note_on_c, 13, 62, 0
23, 3620, Note_on_c, 13, 60, 0
23, 3630, Note_on_c, 13, 60, 85
23, 3630, Note_on_c, 13, 62, 85
23, 3650, Note_on_c, 13, 62, 0
23, 3650, Note_on_c, 13, 60, 0
23, 3660, Note_on_c, 13, 60, 85
23, 3660, Note_on_c, 13, 62, 85
23, 3680, Note_on_c, 13, 62, 0
23, 3680, Note_on_c, 13, 60, 0
23, 3690, Note_on_c, 13, 60, 85
23, 3690, Note_on_c, 13, 62, 85
23, 3710, Note_on_c, 13, 62, 0
23, 3710, Note_on_c, 13, 60, 0
23, 3720, Note_on_c, 13, 60, 85
23, 3720, Note_on_c, 13, 62, 85
23, 3740, Note_on_c, 13, 62, 0
23, 3740, Note_on_c, 13, 60, 0
23, 3750, Note_on_c, 13, 60, 85
23, 3750, Note_on_c, 13, 62, 85
23, 3770, Note_on_c, 13, 62, 0
23, 3770, Note_on_c, 13, 60, 0
23, 3780, Note_on_c, 13, 60, 85
23, 3780, Note_on_c, 13, 62, 85
23, 3800, Note_on_c, 13, 62, 0
23, 3800, Note_on_c, 13, 60, 0
23, 3810, Note_on_c, 13, 60, 85
23, 3810, Note_on_c, 13, 62, 85
23, 3830, Note_on_c, 13, 62, 0
23, 3830, Note_on_c, 13, 60, 0
23, 3840, Note_on_c, 13, 59, 85
23, 3840, Note_on_c, 13, 62, 85
23, 3960, Note_on_c, 13, 62, 0
23, 3960, Note_on_c, 13, 59, 0
23, 3960, Note_on_c, 13, 72, 85
23, 4005, Note_on_c, 13, 72, 0
23, 4020, Note_on_c, 13, 72, 85
23, 4065, Note_on_c, 13, 72, 0
23, 4080, Note_on_c, 13, 74, 85
23, 4125, Note_on_c, 13, 74, 0
23, 4140, Note_on_c, 13, 74, 85
23, 4185, Note_on_c, 13, 74, 0
23, 4200, Note_on_c, 13, 72, 85
23, 4260, Note_on_c, 13, 72, 0
23, 4260, Note_on_c, 13, 71, 85
23, 4290, Note_on_c, 13, 71, 0
23, 4290, Note_on_c, 13, 69, 85
23, 4320, Note_on_c, 13, 69, 0
23, 4320, Note_on_c, 13, 67, 85
23, 4365, Note_on_c, 13, 67, 0
23, 4380, Note_on_c, 13, 67, 85
23, 4425, Note_on_c, 13, 67, 0
23, 4440, Note_on_c, 13, 66, 85
23, 4485, Note_on_c, 13, 66, 0
23, 4500, Note_on_c, 13, 66, 85
23, 4545, Note_on_c, 13, 66, 0
23, 4560, Note_on_c, 13, 67, 85
23, 4680, Note_on_c, 13, 67, 0
23, 4800, Note_on_c, 13, 71, 47
23, 5040, Note_on_c, 13, 71, 0
23, 5040, Note_on_c, 13, 72, 47
23, 5280, Note_on_c, 13, 72, 0
23, 5280, Note_on_c, 13, 71, 47
23, 5310, Note_on_c, 13, 71, 0
23, 5310, Note_on_c, 13, 69, 47
23, 5390, Note_on_c, 13, 69, 0
23, 5400, Note_on_c, 13, 69, 47
23, 5520, Note_on_c, 13, 69, 0
23, 5520, Note_on_c, 13, 69, 47
23, 5550, Note_on_c, 13, 69, 0
23, 5550, Note_on_c, 13, 67, 47
23, 5630, Note_on_c, 13, 67, 0
23, 5640, Note_on_c, 13, 67, 47
23, 5760, Note_on_c, 13, 67, 0
23, 5760, Note_on_c, 13, 64, 47
23, 5850, Note_on_c, 13, 64, 0
23, 5880, Note_on_c, 13, 64, 47
23, 5970, Note_on_c, 13, 64, 0
23, 6000, Note_on_c, 13, 60, 47
23, 6090, Note_on_c, 13, 60, 0
23, 6120, Note_on_c, 13, 57, 47
23, 6210, Note_on_c, 13, 57, 0
23, 6240, Note_on_c, 13, 62, 47
23, 6300, Note_on_c, 13, 62, 0
23, 6360, Note_on_c, 13, 66, 47
23, 6420, Note_on_c, 13, 66, 0
23, 6480, Note_on_c, 13, 67, 47
23, 6540, Note_on_c, 13, 67, 0
23, 6720, Note_on_c, 13, 71, 47
23, 6960, Note_on_c, 13, 71, 0
23, 6960, Note_on_c, 13, 72, 47
23, 7200, Note_on_c, 13, 72, 0
23, 7200, Note_on_c, 13, 71, 47
23, 7260, Note_on_c, 13, 71, 0
23, 7260, Note_on_c, 13, 69, 47
23, 7290, Note_on_c, 13, 69, 0
23, 7320, Note_on_c, 13, 69, 47
23, 7350, Note_on_c, 13, 69, 0
23, 7380, Note_on_c, 13, 69, 47
23, 7410, Note_on_c, 13, 69, 0
23, 7440, Note_on_c, 13, 69, 47
23, 7500, Note_on_c, 13, 69, 0
23, 7500, Note_on_c, 13, 67, 47
23, 7530, Note_on_c, 13, 67, 0
23, 7560, Note_on_c, 13, 67, 47
23, 7590, Note_on_c, 13, 67, 0
23, 7620, Note_on_c, 13, 67, 47
23, 7650, Note_on_c, 13, 67, 0
23, 7680, Note_on_c, 13, 64, 47
23, 7770, Note_on_c, 13, 64, 0
23, 7800, Note_on_c, 13, 64, 47
23, 7845, Note_on_c, 13, 64, 0
23, 7860, Note_on_c, 13, 64, 47
23, 7905, Note_on_c, 13, 64, 0
23, 7920, Note_on_c, 13, 60, 47
23, 8010, Note_on_c, 13, 60, 0
23, 8040, Note_on_c, 13, 60, 47
23, 8085, Note_on_c, 13, 60, 0
23, 8100, Note_on_c, 13, 60, 47
23, 8145, Note_on_c, 13, 60, 0
23, 8160, Note_on_c, 13, 59, 85
23, 8460, Note_on_c, 13, 59, 0
23, 8460, Note_on_c, 13, 59, 61
23, 8475, Note_on_c, 13, 59, 0
23, 8475, Note_on_c, 13, 60, 61
23, 8490, Note_on_c, 13, 60, 0
23, 8490, Note_on_c, 13, 57, 61
23, 8505, Note_on_c, 13, 57, 0
23, 8505, Note_on_c, 13, 59, 61
23, 8520, Note_on_c, 13, 59, 0
23, 8520, Note_on_c, 13, 60, 61
23, 8580, Note_on_c, 13, 60, 0
23, 8580, Note_on_c, 13, 57, 61
23, 8640, Note_on_c, 13, 57, 0
23, 8640, Note_on_c, 13, 67, 85
23, 8940, Note_on_c, 13, 67, 0
23, 8940, Note_on_c, 13, 67, 61
23, 8955, Note_on_c, 13, 67, 0
23, 8955, Note_on_c, 13, 69, 61
23, 8970, Note_on_c, 13, 69, 0
23, 8970, Note_on_c, 13, 66, 61
23, 8985, Note_on_c, 13, 66, 0
23, 8985, Note_on_c, 13, 67, 61
23, 9000, Note_on_c, 13, 67, 0
23, 9000, Note_on_c, 13, 69, 61
23, 9060, Note_on_c, 13, 69, 0
23, 9060, Note_on_c, 13, 66, 61
23, 9120, Note_on_c, 13, 66, 0
23, 9120, Note_on_c, 13, 71, 53
23, 9140, Note_on_c, 13, 71, 0
23, 9150, Note_on_c, 13, 71, 53
23, 9170, Note_on_c, 13, 71, 0
23, 9180, Note_on_c, 13, 71, 55
23, 9200, Note_on_c, 13, 71, 0
23, 9210, Note_on_c, 13, 71, 55
23, 9230, Note_on_c, 13, 71, 0
23, 9240, Note_on_c, 13, 71, 55
23, 9260, Note_on_c, 13, 71, 0
23, 9270, Note_on_c, 13, 71, 56
23, 9290, Note_on_c, 13, 71, 0
23, 9300, Note_on_c, 13, 71, 56
23, 9320, Note_on_c, 13, 71, 0
23, 9330, Note_on_c, 13, 71, 58
23, 9350, Note_on_c, 13, 71, 0
23, 9360, Note_on_c, 13, 72, 58
23, 9380, Note_on_c, 13, 72, 0
23, 9390, Note_on_c, 13, 72, 59
23, 9410, Note_on_c, 13, 72, 0
23, 9420, Note_on_c, 13, 72, 59
23, 9440, Note_on_c, 13, 72, 0
23, 9450, Note_on_c, 13, 72, 61
23, 9470, Note_on_c, 13, 72, 0
23, 9480, Note_on_c, 13, 74, 61
23, 9500, Note_on_c, 13, 74, 0
23, 9510, Note_on_c, 13, 74, 62
23, 9530, Note_on_c, 13, 74, 0
23, 9540, Note_on_c, 13, 74, 62
23, 9560, Note_on_c, 13, 74, 0
23, 9570, Note_on_c, 13, 74, 64
23, 9590, Note_on_c, 13, 74, 0
23, 9600, Note_on_c, 13, 71, 64
23, 9620, Note_on_c, 13, 71, 0
23, 9630, Note_on_c, 13, 71, 65
23, 9650, Note_on_c, 13, 71, 0
23, 9660, Note_on_c, 13, 71, 65
23, 9680, Note_on_c, 13, 71, 0
23, 9690, Note_on_c, 13, 71, 67
23, 9710, Note_on_c, 13, 71, 0
23, 9720, Note_on_c, 13, 74, 67
23, 9740, Note_on_c, 13, 74, 0
23, 9750, Note_on_c, 13, 74, 68
23, 9770, Note_on_c, 13, 74, 0
23, 9780, Note_on_c, 13, 74, 68
23, 9800, Note_on_c, 13, 74, 0
23, 9810, Note_on_c, 13, 74, 70
23, 9830, Note_on_c, 13, 74, 0
23, 9840, Note_on_c, 13, 74, 70
23, 9860, Note_on_c, 13, 74, 0
23, 9870, Note_on_c, 13, 74, 71
23, 9890, Note_on_c, 13, 74, 0
23, 9900, Note_on_c, 13, 74, 71
23, 9920, Note_on_c, 13, 74, 0
23, 9930, Note_on_c, 13, 74, 73
23, 9950, Note_on_c, 13, 74, 0
23, 9960, Note_on_c, 13, 79, 73
23, 9980, Note_on_c, 13, 79, 0
23, 9990, Note_on_c, 13, 79, 73
23, 10010, Note_on_c, 13, 79, 0
23, 10020, Note_on_c, 13, 79, 74
23, 10040, Note_on_c, 13, 79, 0
23, 10050, Note_on_c, 13, 79, 74
23, 10070, Note_on_c, 13, 79, 0
23, 10080, Note_on_c, 13, 78, 85
23, 10100, Note_on_c, 13, 78, 0
23, 10110, Note_on_c, 13, 78, 85
23, 10130, Note_on_c, 13, 78, 0
23, 10140, Note_on_c, 13, 78, 85
23, 10160, Note_on_c, 13, 78, 0
23, 10170, Note_on_c, 13, 78, 85
23, 10190, Note_on_c, 13, 78, 0
23, 10200, Note_on_c, 13, 78, 85
23, 10220, Note_on_c, 13, 78, 0
23, 10230, Note_on_c, 13, 78, 85
23, 10250, Note_on_c, 13, 78, 0
23, 10260, Note_on_c, 13, 78, 85
23, 10280, Note_on_c, 13, 78, 0
23, 10290, Note_on_c, 13, 78, 85
23, 10310, Note_on_c, 13, 78, 0
23, 10320, Note_on_c, 13, 79, 85
23, 10340, Note_on_c, 13, 79, 0
23, 10350, Note_on_c, 13, 79, 85
23, 10370, Note_on_c, 13, 79, 0
23, 10380, Note_on_c, 13, 79, 85
23, 10400, Note_on_c, 13, 79, 0
23, 10410, Note_on_c, 13, 79, 85
23, 10430, Note_on_c, 13, 79, 0
23, 10440, Note_on_c, 13, 79, 85
23, 10460, Note_on_c, 13, 79, 0
23, 10470, Note_on_c, 13, 79, 85
23, 10490, Note_on_c, 13, 79, 0
23, 10500, Note_on_c, 13, 79, 85
23, 10520, Note_on_c, 13, 79, 0
23, 10530, Note_on_c, 13, 79, 85
23, 10550, Note_on_c, 13, 79, 0
23, 10560, Note_on_c, 13, 78, 85
23, 10580, Note_on_c, 13, 78, 0
23, 10590, Note_on_c, 13, 78, 85
23, 10610, Note_on_c, 13, 78, 0
23, 10620, Note_on_c, 13, 78, 85
23, 10640, Note_on_c, 13, 78, 0
23, 10650, Note_on_c, 13, 78, 85
23, 10670, Note_on_c, 13, 78, 0
23, 10680, Note_on_c, 13, 78, 85
23, 10700, Note_on_c, 13, 78, 0
23, 10710, Note_on_c, 13, 78, 85
23, 10730, Note_on_c, 13, 78, 0
23, 10740, Note_on_c, 13, 78, 85
23, 10760, Note_on_c, 13, 78, 0
23, 10770, Note_on_c, 13, 78, 85
23, 10790, Note_on_c, 13, 78, 0
23, 10800, Note_on_c, 13, 79, 85
23, 10820, Note_on_c, 13, 79, 0
23, 10830, Note_on_c, 13, 79, 85
23, 10850, Note_on_c, 13, 79, 0
23, 10860, Note_on_c, 13, 79, 85
23, 10880, Note_on_c, 13, 79, 0
23, 10890, Note_on_c, 13, 79, 85
23, 10910, Note_on_c, 13, 79, 0
23, 10920, Note_on_c, 13, 79, 85
23, 10940, Note_on_c, 13, 79, 0
23, 10950, Note_on_c, 13, 79, 85
23, 10970, Note_on_c, 13, 79, 0
23, 10980, Note_on_c, 13, 79, 85
23, 11000, Note_on_c, 13, 79, 0
23, 11010, Note_on_c, 13, 79, 85
23, 11030, Note_on_c, 13, 79, 0
23, 11040, Note_on_c, 13, 74, 85
23, 11070, Note_on_c, 13, 74, 0
23, 11100, Note_on_c, 13, 74, 85
23, 11190, Note_on_c, 13, 74, 0
23, 11220, Note_on_c, 13, 74, 85
23, 11310, Note_on_c, 13, 74, 0
23, 11340, Note_on_c, 13, 74, 85
23, 11430, Note_on_c, 13, 74, 0
23, 11460, Note_on_c, 13, 74, 85
23, 11550, Note_on_c, 13, 74, 0
23, 11580, Note_on_c, 13, 74, 85
23, 11670, Note_on_c, 13, 74, 0
23, 11700, Note_on_c, 13, 74, 85
23, 11790, Note_on_c, 13, 74, 0
23, 11820, Note_on_c, 13, 74, 85
23, 11910, Note_on_c, 13, 74, 0
23, 11940, Note_on_c, 13, 74, 85
23, 12000, Note_on_c, 13, 74, 0
23, 12000, Note_on_c, 13, 73, 85
23, 12020, Note_on_c, 13, 73, 0
23, 12030, Note_on_c, 13, 76, 85
23, 12030, Note_on_c, 13, 73, 85
23, 12050, Note_on_c, 13, 73, 0
23, 12050, Note_on_c, 13, 76, 0
23, 12060, Note_on_c, 13, 76, 85
23, 12060, Note_on_c, 13, 73, 85
23, 12080, Note_on_c, 13, 73, 0
23, 12080, Note_on_c, 13, 76, 0
23, 12090, Note_on_c, 13, 76, 85
23, 12090, Note_on_c, 13, 73, 85
23, 12110, Note_on_c, 13, 73, 0
23, 12110, Note_on_c, 13, 76, 0
23, 12120, Note_on_c, 13, 78, 85
23, 12120, Note_on_c, 13, 74, 85
23, 12140, Note_on_c, 13, 74, 0
23, 12140, Note_on_c, 13, 78, 0
23, 12150, Note_on_c, 13, 78, 85
23, 12150, Note_on_c, 13, 74, 85
23, 12170, Note_on_c, 13, 74, 0
23, 12170, Note_on_c, 13, 78, 0
23, 12180, Note_on_c, 13, 78, 85
23, 12180, Note_on_c, 13, 74, 85
23, 12200, Note_on_c, 13, 74, 0
23, 12200, Note_on_c, 13, 78, 0
23, 12210, Note_on_c, 13, 78, 85
23, 12210, Note_on_c, 13, 74, 85
23, 12230, Note_on_c, 13, 74, 0
23, 12230, Note_on_c, 13, 78, 0
23, 12240, Note_on_c, 13, 73, 85
23, 12240, Note_on_c, 13, 76, 85
23, 12260, Note_on_c, 13, 76, 0
23, 12260, Note_on_c, 13, 73, 0
23, 12270, Note_on_c, 13, 73, 85
23, 12270, Note_on_c, 13, 76, 85
23, 12290, Note_on_c, 13, 76, 0
23, 12290, Note_on_c, 13, 73, 0
23, 12300, Note_on_c, 13, 73, 85
23, 12300, Note_on_c, 13, 76, 85
23, 12320, Note_on_c, 13, 76, 0
23, 12320, Note_on_c, 13, 73, 0
23, 12330, Note_on_c, 13, 73, 85
23, 12330, Note_on_c, 13, 76, 85
23, 12350, Note_on_c, 13, 76, 0
23, 12350, Note_on_c, 13, 73, 0
23, 12360, Note_on_c, 13, 78, 85
23, 12360, Note_on_c, 13, 74, 85
23, 12380, Note_on_c, 13, 74, 0
23, 12380, Note_on_c, 13, 78, 0
23, 12390, Note_on_c, 13, 78, 85
23, 12390, Note_on_c, 13, 74, 85
23, 12410, Note_on_c, 13, 74, 0
23, 12410, Note_on_c, 13, 78, 0
23, 12420, Note_on_c, 13, 78, 85
23, 12420, Note_on_c, 13, 74, 85
23, 12440, Note_on_c, 13, 74, 0
23, 12440, Note_on_c, 13, 78, 0
23, 12450, Note_on_c, 13, 78, 85
23, 12450, Note_on_c, 13, 74, 85
23, 12470, Note_on_c, 13, 74, 0
23, 12470, Note_on_c, 13, 78, 0
23, 12480, Note_on_c, 13, 76, 85
23, 12480, Note_on_c, 13, 73, 85
23, 12525, Note_on_c, 13, 73, 0
23, 12525, Note_on_c, 13, 76, 0
23, 12540, Note_on_c, 13, 69, 85
23, 12585, Note_on_c, 13, 69, 0
23, 12600, Note_on_c, 13, 69, 85
23, 12645, Note_on_c, 13, 69, 0
23, 12660, Note_on_c, 13, 69, 85
23, 12705, Note_on_c, 13, 69, 0
23, 12720, Note_on_c, 13, 69, 85
23, 12840, Note_on_c, 13, 69, 0
23, 12960, Note_on_c, 13, 69, 55
23, 13140, Note_on_c, 13, 69, 0
23, 13140, Note_on_c, 13, 67, 55
23, 13160, Note_on_c, 13, 67, 0
23, 13160, Note_on_c, 13, 66, 55
23, 13180, Note_on_c, 13, 66, 0
23, 13180, Note_on_c, 13, 64, 55
23, 13200, Note_on_c, 13, 64, 0
23, 13200, Note_on_c, 13, 62, 55
23, 13260, Note_on_c, 13, 62, 0
23, 13320, Note_on_c, 13, 71, 55
23, 13380, Note_on_c, 13, 71, 0
23, 13440, Note_on_c, 13, 67, 55
23, 13500, Note_on_c, 13, 67, 0
23, 13560, Note_on_c, 13, 64, 55
23, 13620, Note_on_c, 13, 64, 0
23, 13680, Note_on_c, 13, 69, 55
23, 13740, Note_on_c, 13, 69, 0
23, 13920, Note_on_c, 13, 66, 55
23, 14100, Note_on_c, 13, 66, 0
23, 14100, Note_on_c, 13, 64, 55
23, 14120, Note_on_c, 13, 64, 0
23, 14120, Note_on_c, 13, 62, 55
23, 14140, Note_on_c, 13, 62, 0
23, 14140, Note_on_c, 13, 61, 55
23, 14160, Note_on_c, 13, 61, 0
23, 14160, Note_on_c, 13, 59, 55
23, 14220, Note_on_c, 13, 59, 0
23, 14280, Note_on_c, 13, 67, 55
23, 14340, Note_on_c, 13, 67, 0
23, 14400, Note_on_c, 13, 66, 55
23, 14640, Note_on_c, 13, 66, 0
23, 14640, Note_on_c, 13, 64, 55
23, 14760, Note_on_c, 13, 64, 0
23, 14880, Note_on_c, 13, 69, 55
23, 15060, Note_on_c, 13, 69, 0
23, 15060, Note_on_c, 13, 67, 55
23, 15080, Note_on_c, 13, 67, 0
23, 15080, Note_on_c, 13, 66, 55
23, 15100, Note_on_c, 13, 66, 0
23, 15100, Note_on_c, 13, 64, 55
23, 15120, Note_on_c, 13, 64, 0
23, 15120, Note_on_c, 13, 62, 55
23, 15180, Note_on_c, 13, 62, 0
23, 15240, Note_on_c, 13, 71, 55
23, 15300, Note_on_c, 13, 71, 0
23, 15360, Note_on_c, 13, 67, 55
23, 15420, Note_on_c, 13, 67, 0
23, 15480, Note_on_c, 13, 64, 55
23, 15540, Note_on_c, 13, 64, 0
23, 15600, Note_on_c, 13, 69, 55
23, 15660, Note_on_c, 13, 69, 0
23, 15765, Note_on_c, 13, 67, 55
23, 15810, Note_on_c, 13, 67, 0
23, 15840, Note_on_c, 13, 67, 55
23, 15900, Note_on_c, 13, 67, 0
23, 15900, Note_on_c, 13, 66, 55
23, 15960, Note_on_c, 13, 66, 0
23, 16020, Note_on_c, 13, 79, 55
23, 16050, Note_on_c, 13, 79, 0
23, 16080, Note_on_c, 13, 79, 55
23, 16140, Note_on_c, 13, 79, 0
23, 16140, Note_on_c, 13, 78, 55
23, 16200, Note_on_c, 13, 78, 0
23, 16260, Note_on_c, 13, 67, 55
23, 16305, Note_on_c, 13, 67, 0
23, 16320, Note_on_c, 13, 66, 55
23, 16365, Note_on_c, 13, 66, 0
23, 16380, Note_on_c, 13, 66, 55
23, 16425, Note_on_c, 13, 66, 0
23, 16440, Note_on_c, 13, 67, 55
23, 16485, Note_on_c, 13, 67, 0
23, 16500, Note_on_c, 13, 67, 55
23, 16545, Note_on_c, 13, 67, 0
23, 16560, Note_on_c, 13, 69, 55
23, 16605, Note_on_c, 13, 69, 0
23, 16620, Note_on_c, 13, 69, 55
23, 16665, Note_on_c, 13, 69, 0
23, 16680, Note_on_c, 13, 66, 55
23, 16725, Note_on_c, 13, 66, 0
23, 16740, Note_on_c, 13, 66, 55
23, 16785, Note_on_c, 13, 66, 0
23, 16800, Note_on_c, 13, 64, 55
23, 16845, Note_on_c, 13, 64, 0
23, 16860, Note_on_c, 13, 64, 55
23, 16905, Note_on_c, 13, 64, 0
23, 16920, Note_on_c, 13, 66, 55
23, 16965, Note_on_c, 13, 66, 0
23, 16980, Note_on_c, 13, 66, 55
23, 17025, Note_on_c, 13, 66, 0
23, 17040, Note_on_c, 13, 67, 55
23, 17085, Note_on_c, 13, 67, 0
23, 17100, Note_on_c, 13, 67, 55
23, 17145, Note_on_c, 13, 67, 0
23, 17160, Note_on_c, 13, 64, 55
23, 17205, Note_on_c, 13, 64, 0
23, 17220, Note_on_c, 13, 64, 55
23, 17265, Note_on_c, 13, 64, 0
23, 17280, Note_on_c, 13, 66, 55
23, 17325, Note_on_c, 13, 66, 0
23, 17340, Note_on_c, 13, 66, 55
23, 17385, Note_on_c, 13, 66, 0
23, 17400, Note_on_c, 13, 67, 55
23, 17445, Note_on_c, 13, 67, 0
23, 17460, Note_on_c, 13, 67, 55
23, 17505, Note_on_c, 13, 67, 0
23, 17520, Note_on_c, 13, 69, 55
23, 17565, Note_on_c, 13, 69, 0
23, 17580, Note_on_c, 13, 69, 55
23, 17625, Note_on_c, 13, 69, 0
23, 17640, Note_on_c, 13, 66, 55
23, 17685, Note_on_c, 13, 66, 0
23, 17700, Note_on_c, 13, 66, 55
23, 17745, Note_on_c, 13, 66, 0
23, 17760, Note_on_c, 13, 64, 55
23, 17805, Note_on_c, 13, 64, 0
23, 17820, Note_on_c, 13, 64, 55
23, 17865, Note_on_c, 13, 64, 0
23, 17880, Note_on_c, 13, 66, 55
23, 17925, Note_on_c, 13, 66, 0
23, 17940, Note_on_c, 13, 66, 55
23, 17985, Note_on_c, 13, 66, 0
23, 18000, Note_on_c, 13, 67, 55
23, 18045, Note_on_c, 13, 67, 0
23, 18060, Note_on_c, 13, 67, 55
23, 18105, Note_on_c, 13, 67, 0
23, 18120, Note_on_c, 13, 64, 55
23, 18165, Note_on_c, 13, 64, 0
23, 18180, Note_on_c, 13, 64, 55
23, 18225, Note_on_c, 13, 64, 0
23, 18240, Note_on_c, 13, 66, 55
23, 18360, Note_on_c, 13, 66, 0
23, 18480, Note_on_c, 13, 78, 85
23, 18480, Note_on_c, 13, 71, 85
23, 18720, Note_on_c, 13, 71, 0
23, 18720, Note_on_c, 13, 78, 0
23, 18720, Note_on_c, 13, 76, 85
23, 18840, Note_on_c, 13, 76, 0
23, 18960, Note_on_c, 13, 69, 85
23, 18960, Note_on_c, 13, 76, 85
23, 19200, Note_on_c, 13, 76, 0
23, 19200, Note_on_c, 13, 69, 0
23, 19200, Note_on_c, 13, 74, 85
23, 19245, Note_on_c, 13, 74, 0
23, 19260, Note_on_c, 13, 78, 85
23, 19290, Note_on_c, 13, 78, 0
23, 19320, Note_on_c, 13, 79, 85
23, 19350, Note_on_c, 13, 79, 0
23, 19380, Note_on_c, 13, 81, 85
23, 19410, Note_on_c, 13, 81, 0
23, 19440, Note_on_c, 13, 79, 85
23, 19500, Note_on_c, 13, 79, 0
23, 19500, Note_on_c, 13, 81, 85
23, 19530, Note_on_c, 13, 81, 0
23, 19530, Note_on_c, 13, 83, 85
23, 19560, Note_on_c, 13, 83, 0
23, 19560, Note_on_c, 13, 81, 85
23, 19605, Note_on_c, 13, 81, 0
23, 19620, Note_on_c, 13, 79, 85
23, 19650, Note_on_c, 13, 79, 0
23, 19680, Note_on_c, 13, 79, 85
23, 19740, Note_on_c, 13, 79, 0
23, 19740, Note_on_c, 13, 78, 85
23, 19785, Note_on_c, 13, 78, 0
23, 19800, Note_on_c, 13, 74, 85
23, 19830, Note_on_c, 13, 74, 0
23, 19860, Note_on_c, 13, 78, 85
23, 19890, Note_on_c, 13, 78, 0
23, 19920, Note_on_c, 13, 78, 85
23, 19980, Note_on_c, 13, 78, 0
23, 19980, Note_on_c, 13, 76, 85
23, 20025, Note_on_c, 13, 76, 0
23, 20040, Note_on_c, 13, 74, 85
23, 20070, Note_on_c, 13, 74, 0
23, 20100, Note_on_c, 13, 73, 85
23, 20130, Note_on_c, 13, 73, 0
23, 20160, Note_on_c, 13, 74, 85
23, 20205, Note_on_c, 13, 74, 0
23, 20220, Note_on_c, 13, 66, 53
23, 20265, Note_on_c, 13, 66, 0
23, 20280, Note_on_c, 13, 67, 53
23, 20325, Note_on_c, 13, 67, 0
23, 20340, Note_on_c, 13, 67, 53
23, 20385, Note_on_c, 13, 67, 0
23, 20400, Note_on_c, 13, 69, 53
23, 20445, Note_on_c, 13, 69, 0
23, 20460, Note_on_c, 13, 69, 53
23, 20505, Note_on_c, 13, 69, 0
23, 20520, Note_on_c, 13, 66, 53
23, 20565, Note_on_c, 13, 66, 0
23, 20580, Note_on_c, 13, 66, 53
23, 20625, Note_on_c, 13, 66, 0
23, 20640, Note_on_c, 13, 64, 55
23, 20685, Note_on_c, 13, 64, 0
23, 20700, Note_on_c, 13, 64, 55
23, 20745, Note_on_c, 13, 64, 0
23, 20760, Note_on_c, 13, 66, 55
23, 20805, Note_on_c, 13, 66, 0
23, 20820, Note_on_c, 13, 66, 55
23, 20865, Note_on_c, 13, 66, 0
23, 20880, Note_on_c, 13, 67, 55
23, 20925, Note_on_c, 13, 67, 0
23, 20940, Note_on_c, 13, 67, 55
23, 20985, Note_on_c, 13, 67, 0
23, 21000, Note_on_c, 13, 64, 55
23, 21045, Note_on_c, 13, 64, 0
23, 21060, Note_on_c, 13, 64, 55
23, 21105, Note_on_c, 13, 64, 0
23, 21120, Note_on_c, 13, 66, 55
23, 21165, Note_on_c, 13, 66, 0
23, 21180, Note_on_c, 13, 66, 55
23, 21225, Note_on_c, 13, 66, 0
23, 21240, Note_on_c, 13, 67, 55
23, 21285, Note_on_c, 13, 67, 0
23, 21300, Note_on_c, 13, 67, 55
23, 21345, Note_on_c, 13, 67, 0
23, 21360, Note_on_c, 13, 69, 55
23, 21405, Note_on_c, 13, 69, 0
23, 21420, Note_on_c, 13, 69, 55
23, 21465, Note_on_c, 13, 69, 0
23, 21480, Note_on_c, 13, 66, 55
23, 21525, Note_on_c, 13, 66, 0
23, 21540, Note_on_c, 13, 66, 55
23, 21585, Note_on_c, 13, 66, 0
23, 21600, Note_on_c, 13, 64, 55
23, 21645, Note_on_c, 13, 64, 0
23, 21660, Note_on_c, 13, 64, 55
23, 21705, Note_on_c, 13, 64, 0
23, 21720, Note_on_c, 13, 66, 55
23, 21765, Note_on_c, 13, 66, 0
23, 21780, Note_on_c, 13, 66, 55
23, 21825, Note_on_c, 13, 66, 0
23, 21840, Note_on_c, 13, 67, 55
23, 21885, Note_on_c, 13, 67, 0
23, 21900, Note_on_c, 13, 67, 55
23, 21945, Note_on_c, 13, 67, 0
23, 21960, Note_on_c, 13, 64, 55
23, 22005, Note_on_c, 13, 64, 0
23, 22020, Note_on_c, 13, 64, 55
23, 22065, Note_on_c, 13, 64, 0
23, 22080, Note_on_c, 13, 66, 58
23, 22200, Note_on_c, 13, 66, 0
23, 22320, Note_on_c, 13, 78, 85
23, 22320, Note_on_c, 13, 71, 85
23, 22560, Note_on_c, 13, 71, 0
23, 22560, Note_on_c, 13, 78, 0
23, 22560, Note_on_c, 13, 76, 85
23, 22680, Note_on_c, 13, 76, 0
23, 22800, Note_on_c, 13, 69, 85
23, 22800, Note_on_c, 13, 76, 85
23, 23040, Note_on_c, 13, 76, 0
23, 23040, Note_on_c, 13, 69, 0
23, 23040, Note_on_c, 13, 74, 85
23, 23085, Note_on_c, 13, 74, 0
23, 23100, Note_on_c, 13, 78, 85
23, 23130, Note_on_c, 13, 78, 0
23, 23160, Note_on_c, 13, 79, 85
23, 23190, Note_on_c, 13, 79, 0
23, 23220, Note_on_c, 13, 81, 85
23, 23250, Note_on_c, 13, 81, 0
23, 23280, Note_on_c, 13, 79, 85
23, 23340, Note_on_c, 13, 79, 0
23, 23340, Note_on_c, 13, 81, 85
23, 23370, Note_on_c, 13, 81, 0
23, 23370, Note_on_c, 13, 83, 85
23, 23400, Note_on_c, 13, 83, 0
23, 23400, Note_on_c, 13, 81, 85
23, 23445, Note_on_c, 13, 81, 0
23, 23460, Note_on_c, 13, 79, 85
23, 23490, Note_on_c, 13, 79, 0
23, 23520, Note_on_c, 13, 79, 85
23, 23580, Note_on_c, 13, 79, 0
23, 23580, Note_on_c, 13, 78, 85
23, 23625, Note_on_c, 13, 78, 0
23, 23640, Note_on_c, 13, 74, 85
23, 23670, Note_on_c, 13, 74, 0
23, 23700, Note_on_c, 13, 78, 85
23, 23730, Note_on_c, 13, 78, 0
23, 23760, Note_on_c, 13, 78, 85
23, 23820, Note_on_c, 13, 78, 0
23, 23820, Note_on_c, 13, 76, 85
23, 23865, Note_on_c, 13, 76, 0
23, 23880, Note_on_c, 13, 74, 85
23, 23910, Note_on_c, 13, 74, 0
23, 23940, Note_on_c, 13, 73, 85
23, 23970, Note_on_c, 13, 73, 0
23, 24000, Note_on_c, 13, 74, 85
23, 24045, Note_on_c, 13, 74, 0
23, 24060, Note_on_c, 13, 69, 85
23, 24105, Note_on_c, 13, 69, 0
23, 24120, Note_on_c, 13, 71, 85
23, 24165, Note_on_c, 13, 71, 0
23, 24180, Note_on_c, 13, 73, 85
23, 24225, Note_on_c, 13, 73, 0
23, 24240, Note_on_c, 13, 74, 85
23, 24270, Note_on_c, 13, 74, 0
23, 24300, Note_on_c, 13, 74, 85
23, 24330, Note_on_c, 13, 74, 0
23, 24360, Note_on_c, 13, 76, 85
23, 24375, Note_on_c, 13, 76, 0
23, 24375, Note_on_c, 13, 78, 85
23, 24390, Note_on_c, 13, 78, 0
23, 24390, Note_on_c, 13, 76, 85
23, 24405, Note_on_c, 13, 76, 0
23, 24405, Note_on_c, 13, 78, 85
23, 24420, Note_on_c, 13, 78, 0
23, 24420, Note_on_c, 13, 74, 85
23, 24450, Note_on_c, 13, 74, 0
23, 24450, Note_on_c, 13, 76, 85
23, 24480, Note_on_c, 13, 76, 0
23, 24480, Note_on_c, 13, 78, 85
23, 24540, Note_on_c, 13, 78, 0
23, 24540, Note_on_c, 13, 73, 85
23, 24585, Note_on_c, 13, 73, 0
23, 24600, Note_on_c, 13, 74, 85
23, 24645, Note_on_c, 13, 74, 0
23, 24660, Note_on_c, 13, 76, 85
23, 24705, Note_on_c, 13, 76, 0
23, 24720, Note_on_c, 13, 78, 85
23, 24765, Note_on_c, 13, 78, 0
23, 24780, Note_on_c, 13, 78, 85
23, 24825, Note_on_c, 13, 78, 0
23, 24840, Note_on_c, 13, 79, 85
23, 24855, Note_on_c, 13, 79, 0
23, 24855, Note_on_c, 13, 81, 85
23, 24870, Note_on_c, 13, 81, 0
23, 24870, Note_on_c, 13, 79, 85
23, 24885, Note_on_c, 13, 79, 0
23, 24885, Note_on_c, 13, 81, 85
23, 24900, Note_on_c, 13, 81, 0
23, 24900, Note_on_c, 13, 78, 85
23, 24930, Note_on_c, 13, 78, 0
23, 24930, Note_on_c, 13, 79, 85
23, 24960, Note_on_c, 13, 79, 0
23, 24960, Note_on_c, 13, 81, 85
23, 25005, Note_on_c, 13, 81, 0
23, 25020, Note_on_c, 13, 81, 85
23, 25065, Note_on_c, 13, 81, 0
23, 25080, Note_on_c, 13, 82, 85
23, 25095, Note_on_c, 13, 82, 0
23, 25095, Note_on_c, 13, 83, 85
23, 25110, Note_on_c, 13, 83, 0
23, 25110, Note_on_c, 13, 82, 85
23, 25125, Note_on_c, 13, 82, 0
23, 25125, Note_on_c, 13, 83, 85
23, 25140, Note_on_c, 13, 83, 0
23, 25140, Note_on_c, 13, 80, 85
23, 25170, Note_on_c, 13, 80, 0
23, 25170, Note_on_c, 13, 82, 85
23, 25200, Note_on_c, 13, 82, 0
23, 25200, Note_on_c, 13, 83, 85
23, 25320, Note_on_c, 13, 83, 0
23, 25440, Note_on_c, 13, 67, 55
23, 25920, Note_on_c, 13, 67, 0
23, 25920, Note_on_c, 13, 66, 55
23, 25980, Note_on_c, 13, 66, 0
23, 26040, Note_on_c, 13, 69, 55
23, 26100, Note_on_c, 13, 69, 0
23, 26160, Note_on_c, 13, 66, 55
23, 26220, Note_on_c, 13, 66, 0
23, 26410, Note_on_c, 13, 79, 85
23, 26410, Note_on_c, 13, 71, 85
23, 26410, Note_on_c, 13, 62, 85
23, 26530, Note_on_c, 13, 62, 0
23, 26530, Note_on_c, 13, 71, 0
23, 26530, Note_on_c, 13, 79, 0
23, 26590, Note_on_c, 13, 74, 85
23, 26620, Note_on_c, 13, 74, 0
23, 26650, Note_on_c, 13, 79, 85
23, 26770, Note_on_c, 13, 79, 0
23, 26830, Note_on_c, 13, 74, 85
23, 26860, Note_on_c, 13, 74, 0
23, 26890, Note_on_c, 13, 79, 85
23, 26920, Note_on_c, 13, 79, 0
23, 26950, Note_on_c, 13, 74, 85
23, 26980, Note_on_c, 13, 74, 0
23, 27010, Note_on_c, 13, 79, 85
23, 27040, Note_on_c, 13, 79, 0
23, 27070, Note_on_c, 13, 83, 85
23, 27100, Note_on_c, 13, 83, 0
23, 27130, Note_on_c, 13, 86, 85
23, 27250, Note_on_c, 13, 86, 0
23, 27370, Note_on_c, 13, 84, 85
23, 27490, Note_on_c, 13, 84, 0
23, 27550, Note_on_c, 13, 81, 85
23, 27580, Note_on_c, 13, 81, 0
23, 27610, Note_on_c, 13, 84, 85
23, 27730, Note_on_c, 13, 84, 0
23, 27790, Note_on_c, 13, 81, 85
23, 27820, Note_on_c, 13, 81, 0
23, 27850, Note_on_c, 13, 84, 85
23, 27880, Note_on_c, 13, 84, 0
23, 27910, Note_on_c, 13, 81, 85
23, 27940, Note_on_c, 13, 81, 0
23, 27970, Note_on_c, 13, 78, 85
23, 28000, Note_on_c, 13, 78, 0
23, 28030, Note_on_c, 13, 81, 85
23, 28060, Note_on_c, 13, 81, 0
23, 28090, Note_on_c, 13, 74, 85
23, 28210, Note_on_c, 13, 74, 0
23, 28320, Note_on_c, 13, 59, 85
23, 28320, Note_on_c, 13, 62, 85
23, 28340, Note_on_c, 13, 62, 0
23, 28340, Note_on_c, 13, 59, 0
23, 28350, Note_on_c, 13, 59, 85
23, 28350, Note_on_c, 13, 62, 85
23, 28370, Note_on_c, 13, 62, 0
23, 28370, Note_on_c, 13, 59, 0
23, 28380, Note_on_c, 13, 59, 85
23, 28380, Note_on_c, 13, 62, 85
23, 28400, Note_on_c, 13, 62, 0
23, 28400, Note_on_c, 13, 59, 0
23, 28410, Note_on_c, 13, 59, 85
23, 28410, Note_on_c, 13, 62, 85
23, 28430, Note_on_c, 13, 62, 0
23, 28430, Note_on_c, 13, 59, 0
23, 28440, Note_on_c, 13, 59, 85
23, 28440, Note_on_c, 13, 62, 85
23, 28460, Note_on_c, 13, 62, 0
23, 28460, Note_on_c, 13, 59, 0
23, 28470, Note_on_c, 13, 59, 85
23, 28470, Note_on_c, 13, 62, 85
23, 28490, Note_on_c, 13, 62, 0
23, 28490, Note_on_c, 13, 59, 0
23, 28500, Note_on_c, 13, 59, 85
23, 28500, Note_on_c, 13, 62, 85
23, 28520, Note_on_c, 13, 62, 0
23, 28520, Note_on_c, 13, 59, 0
23, 28530, Note_on_c, 13, 59, 85
23, 28530, Note_on_c, 13, 62, 85
23, 28550, Note_on_c, 13, 62, 0
23, 28550, Note_on_c, 13, 59, 0
23, 28560, Note_on_c, 13, 59, 85
23, 28560, Note_on_c, 13, 62, 85
23, 28580, Note_on_c, 13, 62, 0
23, 28580, Note_on_c, 13, 59, 0
23, 28590, Note_on_c, 13, 59, 85
23, 28590, Note_on_c, 13, 62, 85
23, 28610, Note_on_c, 13, 62, 0
23, 28610, Note_on_c, 13, 59, 0
23, 28620, Note_on_c, 13, 59, 85
23, 28620, Note_on_c, 13, 62, 85
23, 28640, Note_on_c, 13, 62, 0
23, 28640, Note_on_c, 13, 59, 0
23, 28650, Note_on_c, 13, 59, 85
23, 28650, Note_on_c, 13, 62, 85
23, 28670, Note_on_c, 13, 62, 0
23, 28670, Note_on_c, 13, 59, 0
23, 28680, Note_on_c, 13, 59, 85
23, 28680, Note_on_c, 13, 62, 85
23, 28700, Note_on_c, 13, 62, 0
23, 28700, Note_on_c, 13, 59, 0
23, 28710, Note_on_c, 13, 59, 85
23, 28710, Note_on_c, 13, 62, 85
23, 28730, Note_on_c, 13, 62, 0
23, 28730, Note_on_c, 13, 59, 0
23, 28740, Note_on_c, 13, 59, 85
23, 28740, Note_on_c, 13, 62, 85
23, 28760, Note_on_c, 13, 62, 0
23, 28760, Note_on_c, 13, 59, 0
23, 28770, Note_on_c, 13, 59, 85
23, 28770, Note_on_c, 13, 62, 85
23, 28790, Note_on_c, 13, 62, 0
23, 28790, Note_on_c, 13, 59, 0
23, 28800, Note_on_c, 13, 60, 85
23, 28800, Note_on_c, 13, 62, 85
23, 28820, Note_on_c, 13, 62, 0
23, 28820, Note_on_c, 13, 60, 0
23, 28830, Note_on_c, 13, 60, 85
23, 28830, Note_on_c, 13, 62, 85
23, 28850, Note_on_c, 13, 62, 0
23, 28850, Note_on_c, 13, 60, 0
23, 28860, Note_on_c, 13, 60, 85
23, 28860, Note_on_c, 13, 62, 85
23, 28880, Note_on_c, 13, 62, 0
23, 28880, Note_on_c, 13, 60, 0
23, 28890, Note_on_c, 13, 60, 85
23, 28890, Note_on_c, 13, 62, 85
23, 28910, Note_on_c, 13, 62, 0
23, 28910, Note_on_c, 13, 60, 0
23, 28920, Note_on_c, 13, 60, 85
23, 28920, Note_on_c, 13, 62, 85
23, 28940, Note_on_c, 13, 62, 0
23, 28940, Note_on_c, 13, 60, 0
23, 28950, Note_on_c, 13, 60, 85
23, 28950, Note_on_c, 13, 62, 85
23, 28970, Note_on_c, 13, 62, 0
23, 28970, Note_on_c, 13, 60, 0
23, 28980, Note_on_c, 13, 60, 85
23, 28980, Note_on_c, 13, 62, 85
23, 29000, Note_on_c, 13, 62, 0
23, 29000, Note_on_c, 13, 60, 0
23, 29010, Note_on_c, 13, 60, 85
23, 29010, Note_on_c, 13, 62, 85
23, 29030, Note_on_c, 13, 62, 0
23, 29030, Note_on_c, 13, 60, 0
23, 29040, Note_on_c, 13, 60, 85
23, 29040, Note_on_c, 13, 62, 85
23, 29060, Note_on_c, 13, 62, 0
23, 29060, Note_on_c, 13, 60, 0
23, 29070, Note_on_c, 13, 60, 85
23, 29070, Note_on_c, 13, 62, 85
23, 29090, Note_on_c, 13, 62, 0
23, 29090, Note_on_c, 13, 60, 0
23, 29100, Note_on_c, 13, 60, 85
23, 29100, Note_on_c, 13, 62, 85
23, 29120, Note_on_c, 13, 62, 0
23, 29120, Note_on_c, 13, 60, 0
23, 29130, Note_on_c, 13, 60, 85
23, 29130, Note_on_c, 13, 62, 85
23, 29150, Note_on_c, 13, 62, 0
23, 29150, Note_on_c, 13, 60, 0
23, 29160, Note_on_c, 13, 60, 85
23, 29160, Note_on_c, 13, 62, 85
23, 29180, Note_on_c, 13, 62, 0
23, 29180, Note_on_c, 13, 60, 0
23, 29190, Note_on_c, 13, 60, 85
23, 29190, Note_on_c, 13, 62, 85
23, 29210, Note_on_c, 13, 62, 0
23, 29210, Note_on_c, 13, 60, 0
23, 29220, Note_on_c, 13, 60, 85
23, 29220, Note_on_c, 13, 62, 85
23, 29240, Note_on_c, 13, 62, 0
23, 29240, Note_on_c, 13, 60, 0
23, 29250, Note_on_c, 13, 60, 85
23, 29250, Note_on_c, 13, 62, 85
23, 29270, Note_on_c, 13, 62, 0
23, 29270, Note_on_c, 13, 60, 0
23, 29280, Note_on_c, 13, 59, 85
23, 29280, Note_on_c, 13, 62, 85
23, 29300, Note_on_c, 13, 62, 0
23, 29300, Note_on_c, 13, 59, 0
23, 29310, Note_on_c, 13, 59, 85
23, 29310, Note_on_c, 13, 62, 85
23, 29330, Note_on_c, 13, 62, 0
23, 29330, Note_on_c, 13, 59, 0
23, 29340, Note_on_c, 13, 59, 85
23, 29340, Note_on_c, 13, 62, 85
23, 29360, Note_on_c, 13, 62, 0
23, 29360, Note_on_c, 13, 59, 0
23, 29370, Note_on_c, 13, 59, 85
23, 29370, Note_on_c, 13, 62, 85
23, 29390, Note_on_c, 13, 62, 0
23, 29390, Note_on_c, 13, 59, 0
23, 29400, Note_on_c, 13, 59, 85
23, 29400, Note_on_c, 13, 62, 85
23, 29420, Note_on_c, 13, 62, 0
23, 29420, Note_on_c, 13, 59, 0
23, 29430, Note_on_c, 13, 59, 85
23, 29430, Note_on_c, 13, 62, 85
23, 29450, Note_on_c, 13, 62, 0
23, 29450, Note_on_c, 13, 59, 0
23, 29460, Note_on_c, 13, 59, 85
23, 29460, Note_on_c, 13, 62, 85
23, 29480, Note_on_c, 13, 62, 0
23, 29480, Note_on_c, 13, 59, 0
23, 29490, Note_on_c, 13, 59, 85
23, 29490, Note_on_c, 13, 62, 85
23, 29510, Note_on_c, 13, 62, 0
23, 29510, Note_on_c, 13, 59, 0
23, 29520, Note_on_c, 13, 59, 85
23, 29520, Note_on_c, 13, 62, 85
23, 29540, Note_on_c, 13, 62, 0
23, 29540, Note_on_c, 13, 59, 0
23, 29550, Note_on_c, 13, 59, 85
23, 29550, Note_on_c, 13, 62, 85
23, 29570, Note_on_c, 13, 62, 0
23, 29570, Note_on_c, 13, 59, 0
23, 29580, Note_on_c, 13, 59, 85
23, 29580, Note_on_c, 13, 62, 85
23, 29600, Note_on_c, 13, 62, 0
23, 29600, Note_on_c, 13, 59, 0
23, 29610, Note_on_c, 13, 59, 85
23, 29610, Note_on_c, 13, 62, 85
23, 29630, Note_on_c, 13, 62, 0
23, 29630, Note_on_c, 13, 59, 0
23, 29640, Note_on_c, 13, 59, 85
23, 29640, Note_on_c, 13, 62, 85
23, 29660, Note_on_c, 13, 62, 0
23, 29660, Note_on_c, 13, 59, 0
23, 29670, Note_on_c, 13, 59, 85
23, 29670, Note_on_c, 13, 62, 85
23, 29690, Note_on_c, 13, 62, 0
23, 29690, Note_on_c, 13, 59, 0
23, 29700, Note_on_c, 13, 59, 85
23, 29700, Note_on_c, 13, 62, 85
23, 29720, Note_on_c, 13, 62, 0
23, 29720, Note_on_c, 13, 59, 0
23, 29730, Note_on_c, 13, 59, 85
23, 29730, Note_on_c, 13, 62, 85
23, 29750, Note_on_c, 13, 62, 0
23, 29750, Note_on_c, 13, 59, 0
23, 29760, Note_on_c, 13, 60, 85
23, 29760, Note_on_c, 13, 62, 85
23, 29780, Note_on_c, 13, 62, 0
23, 29780, Note_on_c, 13, 60, 0
23, 29790, Note_on_c, 13, 60, 85
23, 29790, Note_on_c, 13, 62, 85
23, 29810, Note_on_c, 13, 62, 0
23, 29810, Note_on_c, 13, 60, 0
23, 29820, Note_on_c, 13, 60, 85
23, 29820, Note_on_c, 13, 62, 85
23, 29840, Note_on_c, 13, 62, 0
23, 29840, Note_on_c, 13, 60, 0
23, 29850, Note_on_c, 13, 60, 85
23, 29850, Note_on_c, 13, 62, 85
23, 29870, Note_on_c, 13, 62, 0
23, 29870, Note_on_c, 13, 60, 0
23, 29880, Note_on_c, 13, 60, 85
23, 29880, Note_on_c, 13, 62, 85
23, 29900, Note_on_c, 13, 62, 0
23, 29900, Note_on_c, 13, 60, 0
23, 29910, Note_on_c, 13, 60, 85
23, 29910, Note_on_c, 13, 62, 85
23, 29930, Note_on_c, 13, 62, 0
23, 29930, Note_on_c, 13, 60, 0
23, 29940, Note_on_c, 13, 60, 85
23, 29940, Note_on_c, 13, 62, 85
23, 29960, Note_on_c, 13, 62, 0
23, 29960, Note_on_c, 13, 60, 0
23, 29970, Note_on_c, 13, 60, 85
23, 29970, Note_on_c, 13, 62, 85
23, 29990, Note_on_c, 13, 62, 0
23, 29990, Note_on_c, 13, 60, 0
23, 30000, Note_on_c, 13, 60, 85
23, 30000, Note_on_c, 13, 62, 85
23, 30020, Note_on_c, 13, 62, 0
23, 30020, Note_on_c, 13, 60, 0
23, 30030, Note_on_c, 13, 60, 85
23, 30030, Note_on_c, 13, 62, 85
23, 30050, Note_on_c, 13, 62, 0
23, 30050, Note_on_c, 13, 60, 0
23, 30060, Note_on_c, 13, 60, 85
23, 30060, Note_on_c, 13, 62, 85
23, 30080, Note_on_c, 13, 62, 0
23, 30080, Note_on_c, 13, 60, 0
23, 30090, Note_on_c, 13, 60, 85
23, 30090, Note_on_c, 13, 62, 85
23, 30110, Note_on_c, 13, 62, 0
23, 30110, Note_on_c, 13, 60, 0
23, 30120, Note_on_c, 13, 60, 85
23, 30120, Note_on_c, 13, 62, 85
23, 30140, Note_on_c, 13, 62, 0
23, 30140, Note_on_c, 13, 60, 0
23, 30150, Note_on_c, 13, 60, 85
23, 30150, Note_on_c, 13, 62, 85
23, 30170, Note_on_c, 13, 62, 0
23, 30170, Note_on_c, 13, 60, 0
23, 30180, Note_on_c, 13, 60, 85
23, 30180, Note_on_c, 13, 62, 85
23, 30200, Note_on_c, 13, 62, 0
23, 30200, Note_on_c, 13, 60, 0
23, 30210, Note_on_c, 13, 60, 85
23, 30210, Note_on_c, 13, 62, 85
23, 30230, Note_on_c, 13, 62, 0
23, 30230, Note_on_c, 13, 60, 0
23, 30240, Note_on_c, 13, 59, 85
23, 30240, Note_on_c, 13, 62, 85
23, 30360, Note_on_c, 13, 62, 0
23, 30360, Note_on_c, 13, 59, 0
23, 30360, Note_on_c, 13, 72, 85
23, 30405, Note_on_c, 13, 72, 0
23, 30420, Note_on_c, 13, 72, 85
23, 30465, Note_on_c, 13, 72, 0
23, 30480, Note_on_c, 13, 74, 85
23, 30525, Note_on_c, 13, 74, 0
23, 30540, Note_on_c, 13, 74, 85
23, 30585, Note_on_c, 13, 74, 0
23, 30600, Note_on_c, 13, 72, 85
23, 30660, Note_on_c, 13, 72, 0
23, 30660, Note_on_c, 13, 71, 85
23, 30690, Note_on_c, 13, 71, 0
23, 30690, Note_on_c, 13, 69, 85
23, 30720, Note_on_c, 13, 69, 0
23, 30720, Note_on_c, 13, 67, 85
23, 30765, Note_on_c, 13, 67, 0
23, 30780, Note_on_c, 13, 67, 85
23, 30825, Note_on_c, 13, 67, 0
23, 30840, Note_on_c, 13, 66, 85
23, 30885, Note_on_c, 13, 66, 0
23, 30900, Note_on_c, 13, 66, 85
23, 30945, Note_on_c, 13, 66, 0
23, 30960, Note_on_c, 13, 67, 85
23, 31080, Note_on_c, 13, 67, 0
23, 31200, Note_on_c, 13, 71, 47
23, 31440, Note_on_c, 13, 71, 0
23, 31440, Note_on_c, 13, 72, 47
23, 31680, Note_on_c, 13, 72, 0
23, 31680, Note_on_c, 13, 71, 47
23, 31710, Note_on_c, 13, 71, 0
23, 31710, Note_on_c, 13, 69, 47
23, 31790, Note_on_c, 13, 69, 0
23, 31800, Note_on_c, 13, 69, 47
23, 31920, Note_on_c, 13, 69, 0
23, 31920, Note_on_c, 13, 69, 47
23, 31950, Note_on_c, 13, 69, 0
23, 31950, Note_on_c, 13, 67, 47
23, 32030, Note_on_c, 13, 67, 0
23, 32040, Note_on_c, 13, 67, 47
23, 32160, Note_on_c, 13, 67, 0
23, 32160, Note_on_c, 13, 64, 47
23, 32250, Note_on_c, 13, 64, 0
23, 32280, Note_on_c, 13, 64, 47
23, 32370, Note_on_c, 13, 64, 0
23, 32400, Note_on_c, 13, 60, 47
23, 32490, Note_on_c, 13, 60, 0
23, 32520, Note_on_c, 13, 57, 47
23, 32610, Note_on_c, 13, 57, 0
23, 32640, Note_on_c, 13, 62, 47
23, 32700, Note_on_c, 13, 62, 0
23, 32760, Note_on_c, 13, 66, 47
23, 32820, Note_on_c, 13, 66, 0
23, 32880, Note_on_c, 13, 67, 47
23, 32940, Note_on_c, 13, 67, 0
23, 33120, Note_on_c, 13, 71, 47
23, 33360, Note_on_c, 13, 71, 0
23, 33360, Note_on_c, 13, 72, 47
23, 33600, Note_on_c, 13, 72, 0
23, 33600, Note_on_c, 13, 71, 47
23, 33660, Note_on_c, 13, 71, 0
23, 33660, Note_on_c, 13, 69, 47
23, 33690, Note_on_c, 13, 69, 0
23, 33720, Note_on_c, 13, 69, 47
23, 33750, Note_on_c, 13, 69, 0
23, 33780, Note_on_c, 13, 69, 47
23, 33810, Note_on_c, 13, 69, 0
23, 33840, Note_on_c, 13, 69, 47
23, 33900, Note_on_c, 13, 69, 0
23, 33900, Note_on_c, 13, 67, 47
23, 33930, Note_on_c, 13, 67, 0
23, 33960, Note_on_c, 13, 67, 47
23, 33990, Note_on_c, 13, 67, 0
23, 34020, Note_on_c, 13, 67, 47
23, 34050, Note_on_c, 13, 67, 0
23, 34080, Note_on_c, 13, 64, 47
23, 34170, Note_on_c, 13, 64, 0
23, 34200, Note_on_c, 13, 64, 47
23, 34245, Note_on_c, 13, 64, 0
23, 34260, Note_on_c, 13, 64, 47
23, 34305, Note_on_c, 13, 64, 0
23, 34320, Note_on_c, 13, 60, 47
23, 34410, Note_on_c, 13, 60, 0
23, 34440, Note_on_c, 13, 60, 47
23, 34485, Note_on_c, 13, 60, 0
23, 34500, Note_on_c, 13, 60, 47
23, 34545, Note_on_c, 13, 60, 0
23, 34560, Note_on_c, 13, 59, 85
23, 34860, Note_on_c, 13, 59, 0
23, 34860, Note_on_c, 13, 59, 61
23, 34875, Note_on_c, 13, 59, 0
23, 34875, Note_on_c, 13, 60, 61
23, 34890, Note_on_c, 13, 60, 0
23, 34890, Note_on_c, 13, 57, 61
23, 34905, Note_on_c, 13, 57, 0
23, 34905, Note_on_c, 13, 59, 61
23, 34920, Note_on_c, 13, 59, 0
23, 34920, Note_on_c, 13, 60, 61
23, 34980, Note_on_c, 13, 60, 0
23, 34980, Note_on_c, 13, 57, 61
23, 35040, Note_on_c, 13, 57, 0
23, 35040, Note_on_c, 13, 67, 85
23, 35340, Note_on_c, 13, 67, 0
23, 35340, Note_on_c, 13, 67, 61
23, 35355, Note_on_c, 13, 67, 0
23, 35355, Note_on_c, 13, 69, 61
23, 35370, Note_on_c, 13, 69, 0
23, 35370, Note_on_c, 13, 66, 61
23, 35385, Note_on_c, 13, 66, 0
23, 35385, Note_on_c, 13, 67, 61
23, 35400, Note_on_c, 13, 67, 0
23, 35400, Note_on_c, 13, 69, 61
23, 35460, Note_on_c, 13, 69, 0
23, 35460, Note_on_c, 13, 66, 61
23, 35520, Note_on_c, 13, 66, 0
23, 35520, Note_on_c, 13, 71, 53
23, 35540, Note_on_c, 13, 71, 0
23, 35550, Note_on_c, 13, 71, 53
23, 35570, Note_on_c, 13, 71, 0
23, 35580, Note_on_c, 13, 71, 55
23, 35600, Note_on_c, 13, 71, 0
23, 35610, Note_on_c, 13, 71, 55
23, 35630, Note_on_c, 13, 71, 0
23, 35640, Note_on_c, 13, 71, 55
23, 35660, Note_on_c, 13, 71, 0
23, 35670, Note_on_c, 13, 71, 56
23, 35690, Note_on_c, 13, 71, 0
23, 35700, Note_on_c, 13, 71, 56
23, 35720, Note_on_c, 13, 71, 0
23, 35730, Note_on_c, 13, 71, 58
23, 35750, Note_on_c, 13, 71, 0
23, 35760, Note_on_c, 13, 72, 58
23, 35780, Note_on_c, 13, 72, 0
23, 35790, Note_on_c, 13, 72, 59
23, 35810, Note_on_c, 13, 72, 0
23, 35820, Note_on_c, 13, 72, 59
23, 35840, Note_on_c, 13, 72, 0
23, 35850, Note_on_c, 13, 72, 61
23, 35870, Note_on_c, 13, 72, 0
23, 35880, Note_on_c, 13, 74, 61
23, 35900, Note_on_c, 13, 74, 0
23, 35910, Note_on_c, 13, 74, 62
23, 35930, Note_on_c, 13, 74, 0
23, 35940, Note_on_c, 13, 74, 62
23, 35960, Note_on_c, 13, 74, 0
23, 35970, Note_on_c, 13, 74, 64
23, 35990, Note_on_c, 13, 74, 0
23, 36000, Note_on_c, 13, 71, 64
23, 36020, Note_on_c, 13, 71, 0
23, 36030, Note_on_c, 13, 71, 65
23, 36050, Note_on_c, 13, 71, 0
23, 36060, Note_on_c, 13, 71, 65
23, 36080, Note_on_c, 13, 71, 0
23, 36090, Note_on_c, 13, 71, 67
23, 36110, Note_on_c, 13, 71, 0
23, 36120, Note_on_c, 13, 74, 67
23, 36140, Note_on_c, 13, 74, 0
23, 36150, Note_on_c, 13, 74, 68
23, 36170, Note_on_c, 13, 74, 0
23, 36180, Note_on_c, 13, 74, 68
23, 36200, Note_on_c, 13, 74, 0
23, 36210, Note_on_c, 13, 74, 70
23, 36230, Note_on_c, 13, 74, 0
23, 36240, Note_on_c, 13, 74, 70
23, 36260, Note_on_c, 13, 74, 0
23, 36270, Note_on_c, 13, 74, 71
23, 36290, Note_on_c, 13, 74, 0
23, 36300, Note_on_c, 13, 74, 71
23, 36320, Note_on_c, 13, 74, 0
23, 36330, Note_on_c, 13, 74, 73
23, 36350, Note_on_c, 13, 74, 0
23, 36360, Note_on_c, 13, 79, 73
23, 36380, Note_on_c, 13, 79, 0
23, 36390, Note_on_c, 13, 79, 73
23, 36410, Note_on_c, 13, 79, 0
23, 36420, Note_on_c, 13, 79, 74
23, 36440, Note_on_c, 13, 79, 0
23, 36450, Note_on_c, 13, 79, 74
23, 36470, Note_on_c, 13, 79, 0
23, 36480, Note_on_c, 13, 78, 85
23, 36500, Note_on_c, 13, 78, 0
23, 36510, Note_on_c, 13, 78, 85
23, 36530, Note_on_c, 13, 78, 0
23, 36540, Note_on_c, 13, 78, 85
23, 36560, Note_on_c, 13, 78, 0
23, 36570, Note_on_c, 13, 78, 85
23, 36590, Note_on_c, 13, 78, 0
23, 36600, Note_on_c, 13, 78, 85
23, 36620, Note_on_c, 13, 78, 0
23, 36630, Note_on_c, 13, 78, 85
23, 36650, Note_on_c, 13, 78, 0
23, 36660, Note_on_c, 13, 78, 85
23, 36680, Note_on_c, 13, 78, 0
23, 36690, Note_on_c, 13, 78, 85
23, 36710, Note_on_c, 13, 78, 0
23, 36720, Note_on_c, 13, 79, 85
23, 36740, Note_on_c, 13, 79, 0
23, 36750, Note_on_c, 13, 79, 85
23, 36770, Note_on_c, 13, 79, 0
23, 36780, Note_on_c, 13, 79, 85
23, 36800, Note_on_c, 13, 79, 0
23, 36810, Note_on_c, 13, 79, 85
23, 36830, Note_on_c, 13, 79, 0
23, 36840, Note_on_c, 13, 79, 85
23, 36860, Note_on_c, 13, 79, 0
23, 36870, Note_on_c, 13, 79, 85
23, 36890, Note_on_c, 13, 79, 0
23, 36900, Note_on_c, 13, 79, 85
23, 36920, Note_on_c, 13, 79, 0
23, 36930, Note_on_c, 13, 79, 85
23, 36950, Note_on_c, 13, 79, 0
23, 36960, Note_on_c, 13, 78, 85
23, 36980, Note_on_c, 13, 78, 0
23, 36990, Note_on_c, 13, 78, 85
23, 37010, Note_on_c, 13, 78, 0
23, 37020, Note_on_c, 13, 78, 85
23, 37040, Note_on_c, 13, 78, 0
23, 37050, Note_on_c, 13, 78, 85
23, 37070, Note_on_c, 13, 78, 0
23, 37080, Note_on_c, 13, 78, 85
23, 37100, Note_on_c, 13, 78, 0
23, 37110, Note_on_c, 13, 78, 85
23, 37130, Note_on_c, 13, 78, 0
23, 37140, Note_on_c, 13, 78, 85
23, 37160, Note_on_c, 13, 78, 0
23, 37170, Note_on_c, 13, 78, 85
23, 37190, Note_on_c, 13, 78, 0
23, 37200, Note_on_c, 13, 79, 85
23, 37220, Note_on_c, 13, 79, 0
23, 37230, Note_on_c, 13, 79, 85
23, 37250, Note_on_c, 13, 79, 0
23, 37260, Note_on_c, 13, 79, 85
23, 37280, Note_on_c, 13, 79, 0
23, 37290, Note_on_c, 13, 79, 85
23, 37310, Note_on_c, 13, 79, 0
23, 37320, Note_on_c, 13, 79, 85
23, 37340, Note_on_c, 13, 79, 0
23, 37350, Note_on_c, 13, 79, 85
23, 37370, Note_on_c, 13, 79, 0
23, 37380, Note_on_c, 13, 79, 85
23, 37400, Note_on_c, 13, 79, 0
23, 37410, Note_on_c, 13, 79, 85
23, 37430, Note_on_c, 13, 79, 0
23, 37440, Note_on_c, 13, 74, 85
23, 37470, Note_on_c, 13, 74, 0
23, 37500, Note_on_c, 13, 74, 85
23, 37590, Note_on_c, 13, 74, 0
23, 37620, Note_on_c, 13, 74, 85
23, 37710, Note_on_c, 13, 74, 0
23, 37740, Note_on_c, 13, 74, 85
23, 37830, Note_on_c, 13, 74, 0
23, 37860, Note_on_c, 13, 74, 85
23, 37950, Note_on_c, 13, 74, 0
23, 37980, Note_on_c, 13, 74, 85
23, 38070, Note_on_c, 13, 74, 0
23, 38100, Note_on_c, 13, 74, 85
23, 38190, Note_on_c, 13, 74, 0
23, 38220, Note_on_c, 13, 74, 85
23, 38310, Note_on_c, 13, 74, 0
23, 38340, Note_on_c, 13, 74, 85
23, 38400, Note_on_c, 13, 74, 0
23, 38400, Note_on_c, 13, 73, 85
23, 38420, Note_on_c, 13, 73, 0
23, 38430, Note_on_c, 13, 76, 85
23, 38430, Note_on_c, 13, 73, 85
23, 38450, Note_on_c, 13, 73, 0
23, 38450, Note_on_c, 13, 76, 0
23, 38460, Note_on_c, 13, 76, 85
23, 38460, Note_on_c, 13, 73, 85
23, 38480, Note_on_c, 13, 73, 0
23, 38480, Note_on_c, 13, 76, 0
23, 38490, Note_on_c, 13, 76, 85
23, 38490, Note_on_c, 13, 73, 85
23, 38510, Note_on_c, 13, 73, 0
23, 38510, Note_on_c, 13, 76, 0
23, 38520, Note_on_c, 13, 78, 85
23, 38520, Note_on_c, 13, 74, 85
23, 38540, Note_on_c, 13, 74, 0
23, 38540, Note_on_c, 13, 78, 0
23, 38550, Note_on_c, 13, 78, 85
23, 38550, Note_on_c, 13, 74, 85
23, 38570, Note_on_c, 13, 74, 0
23, 38570, Note_on_c, 13, 78, 0
23, 38580, Note_on_c, 13, 78, 85
23, 38580, Note_on_c, 13, 74, 85
23, 38600, Note_on_c, 13, 74, 0
23, 38600, Note_on_c, 13, 78, 0
23, 38610, Note_on_c, 13, 78, 85
23, 38610, Note_on_c, 13, 74, 85
23, 38630, Note_on_c, 13, 74, 0
23, 38630, Note_on_c, 13, 78, 0
23, 38640, Note_on_c, 13, 73, 85
23, 38640, Note_on_c, 13, 76, 85
23, 38660, Note_on_c, 13, 76, 0
23, 38660, Note_on_c, 13, 73, 0
23, 38670, Note_on_c, 13, 73, 85
23, 38670, Note_on_c, 13, 76, 85
23, 38690, Note_on_c, 13, 76, 0
23, 38690, Note_on_c, 13, 73, 0
23, 38700, Note_on_c, 13, 73, 85
23, 38700, Note_on_c, 13, 76, 85
23, 38720, Note_on_c, 13, 76, 0
23, 38720, Note_on_c, 13, 73, 0
23, 38730, Note_on_c, 13, 73, 85
23, 38730, Note_on_c, 13, 76, 85
23, 38750, Note_on_c, 13, 76, 0
23, 38750, Note_on_c, 13, 73, 0
23, 38760, Note_on_c, 13, 78, 85
23, 38760, Note_on_c, 13, 74, 85
23, 38780, Note_on_c, 13, 74, 0
23, 38780, Note_on_c, 13, 78, 0
23, 38790, Note_on_c, 13, 78, 85
23, 38790, Note_on_c, 13, 74, 85
23, 38810, Note_on_c, 13, 74, 0
23, 38810, Note_on_c, 13, 78, 0
23, 38820, Note_on_c, 13, 78, 85
23, 38820, Note_on_c, 13, 74, 85
23, 38840, Note_on_c, 13, 74, 0
23, 38840, Note_on_c, 13, 78, 0
23, 38850, Note_on_c, 13, 78, 85
23, 38850, Note_on_c, 13, 74, 85
23, 38870, Note_on_c, 13, 74, 0
23, 38870, Note_on_c, 13, 78, 0
23, 38885, Note_on_c, 13, 76, 85
23, 38885, Note_on_c, 13, 73, 85
23, 38930, Note_on_c, 13, 73, 0
23, 38930, Note_on_c, 13, 76, 0
23, 38945, Note_on_c, 13, 69, 85
23, 38990, Note_on_c, 13, 69, 0
23, 39005, Note_on_c, 13, 69, 85
23, 39050, Note_on_c, 13, 69, 0
23, 39065, Note_on_c, 13, 69, 85
23, 39110, Note_on_c, 13, 69, 0
23, 39125, Note_on_c, 13, 69, 85
23, 39245, Note_on_c, 13, 69, 0
23, 39360, Note_on_c, 13, 69, 55
23, 39540, Note_on_c, 13, 69, 0
23, 39540, Note_on_c, 13, 67, 55
23, 39560, Note_on_c, 13, 67, 0
23, 39560, Note_on_c, 13, 66, 55
23, 39580, Note_on_c, 13, 66, 0
23, 39580, Note_on_c, 13, 64, 55
23, 39600, Note_on_c, 13, 64, 0
23, 39600, Note_on_c, 13, 62, 55
23, 39660, Note_on_c, 13, 62, 0
23, 39720, Note_on_c, 13, 71, 55
23, 39780, Note_on_c, 13, 71, 0
23, 39840, Note_on_c, 13, 67, 55
23, 39900, Note_on_c, 13, 67, 0
23, 39960, Note_on_c, 13, 64, 55
23, 40020, Note_on_c, 13, 64, 0
23, 40080, Note_on_c, 13, 69, 55
23, 40140, Note_on_c, 13, 69, 0
23, 40320, Note_on_c, 13, 66, 55
23, 40500, Note_on_c, 13, 66, 0
23, 40500, Note_on_c, 13, 64, 55
23, 40520, Note_on_c, 13, 64, 0
23, 40520, Note_on_c, 13, 62, 55
23, 40540, Note_on_c, 13, 62, 0
23, 40540, Note_on_c, 13, 61, 55
23, 40560, Note_on_c, 13, 61, 0
23, 40560, Note_on_c, 13, 59, 55
23, 40620, Note_on_c, 13, 59, 0
23, 40680, Note_on_c, 13, 67, 55
23, 40740, Note_on_c, 13, 67, 0
23, 40800, Note_on_c, 13, 66, 55
23, 41040, Note_on_c, 13, 66, 0
23, 41040, Note_on_c, 13, 64, 55
23, 41160, Note_on_c, 13, 64, 0
23, 41280, Note_on_c, 13, 69, 55
23, 41460, Note_on_c, 13, 69, 0
23, 41460, Note_on_c, 13, 67, 55
23, 41480, Note_on_c, 13, 67, 0
23, 41480, Note_on_c, 13, 66, 55
23, 41500, Note_on_c, 13, 66, 0
23, 41500, Note_on_c, 13, 64, 55
23, 41520, Note_on_c, 13, 64, 0
23, 41520, Note_on_c, 13, 62, 55
23, 41580, Note_on_c, 13, 62, 0
23, 41640, Note_on_c, 13, 71, 55
23, 41700, Note_on_c, 13, 71, 0
23, 41760, Note_on_c, 13, 67, 55
23, 41820, Note_on_c, 13, 67, 0
23, 41880, Note_on_c, 13, 64, 55
23, 41940, Note_on_c, 13, 64, 0
23, 42000, Note_on_c, 13, 69, 55
23, 42060, Note_on_c, 13, 69, 0
23, 42165, Note_on_c, 13, 67, 55
23, 42210, Note_on_c, 13, 67, 0
23, 42240, Note_on_c, 13, 67, 55
23, 42300, Note_on_c, 13, 67, 0
23, 42300, Note_on_c, 13, 66, 55
23, 42360, Note_on_c, 13, 66, 0
23, 42420, Note_on_c, 13, 79, 55
23, 42450, Note_on_c, 13, 79, 0
23, 42480, Note_on_c, 13, 79, 55
23, 42540, Note_on_c, 13, 79, 0
23, 42540, Note_on_c, 13, 78, 55
23, 42600, Note_on_c, 13, 78, 0
23, 42660, Note_on_c, 13, 67, 55
23, 42705, Note_on_c, 13, 67, 0
23, 42720, Note_on_c, 13, 66, 55
23, 42765, Note_on_c, 13, 66, 0
23, 42780, Note_on_c, 13, 66, 55
23, 42825, Note_on_c, 13, 66, 0
23, 42840, Note_on_c, 13, 67, 55
23, 42885, Note_on_c, 13, 67, 0
23, 42900, Note_on_c, 13, 67, 55
23, 42945, Note_on_c, 13, 67, 0
23, 42960, Note_on_c, 13, 69, 55
23, 43005, Note_on_c, 13, 69, 0
23, 43020, Note_on_c, 13, 69, 55
23, 43065, Note_on_c, 13, 69, 0
23, 43080, Note_on_c, 13, 66, 55
23, 43125, Note_on_c, 13, 66, 0
23, 43140, Note_on_c, 13, 66, 55
23, 43185, Note_on_c, 13, 66, 0
23, 43200, Note_on_c, 13, 64, 55
23, 43245, Note_on_c, 13, 64, 0
23, 43260, Note_on_c, 13, 64, 55
23, 43305, Note_on_c, 13, 64, 0
23, 43320, Note_on_c, 13, 66, 55
23, 43365, Note_on_c, 13, 66, 0
23, 43380, Note_on_c, 13, 66, 55
23, 43425, Note_on_c, 13, 66, 0
23, 43440, Note_on_c, 13, 67, 55
23, 43485, Note_on_c, 13, 67, 0
23, 43500, Note_on_c, 13, 67, 55
23, 43545, Note_on_c, 13, 67, 0
23, 43560, Note_on_c, 13, 64, 55
23, 43605, Note_on_c, 13, 64, 0
23, 43620, Note_on_c, 13, 64, 55
23, 43665, Note_on_c, 13, 64, 0
23, 43680, Note_on_c, 13, 66, 55
23, 43725, Note_on_c, 13, 66, 0
23, 43740, Note_on_c, 13, 66, 55
23, 43785, Note_on_c, 13, 66, 0
23, 43800, Note_on_c, 13, 67, 55
23, 43845, Note_on_c, 13, 67, 0
23, 43860, Note_on_c, 13, 67, 55
23, 43905, Note_on_c, 13, 67, 0
23, 43920, Note_on_c, 13, 69, 55
23, 43965, Note_on_c, 13, 69, 0
23, 43980, Note_on_c, 13, 69, 55
23, 44025, Note_on_c, 13, 69, 0
23, 44040, Note_on_c, 13, 66, 55
23, 44085, Note_on_c, 13, 66, 0
23, 44100, Note_on_c, 13, 66, 55
23, 44145, Note_on_c, 13, 66, 0
23, 44160, Note_on_c, 13, 64, 55
23, 44205, Note_on_c, 13, 64, 0
23, 44220, Note_on_c, 13, 64, 55
23, 44265, Note_on_c, 13, 64, 0
23, 44280, Note_on_c, 13, 66, 55
23, 44325, Note_on_c, 13, 66, 0
23, 44340, Note_on_c, 13, 66, 55
23, 44385, Note_on_c, 13, 66, 0
23, 44400, Note_on_c, 13, 67, 55
23, 44445, Note_on_c, 13, 67, 0
23, 44460, Note_on_c, 13, 67, 55
23, 44505, Note_on_c, 13, 67, 0
23, 44520, Note_on_c, 13, 64, 55
23, 44565, Note_on_c, 13, 64, 0
23, 44580, Note_on_c, 13, 64, 55
23, 44625, Note_on_c, 13, 64, 0
23, 44640, Note_on_c, 13, 66, 55
23, 44760, Note_on_c, 13, 66, 0
23, 44880, Note_on_c, 13, 78, 85
23, 44880, Note_on_c, 13, 71, 85
23, 45120, Note_on_c, 13, 71, 0
23, 45120, Note_on_c, 13, 78, 0
23, 45120, Note_on_c, 13, 76, 85
23, 45240, Note_on_c, 13, 76, 0
23, 45360, Note_on_c, 13, 69, 85
23, 45360, Note_on_c, 13, 76, 85
23, 45600, Note_on_c, 13, 76, 0
23, 45600, Note_on_c, 13, 69, 0
23, 45600, Note_on_c, 13, 74, 85
23, 45645, Note_on_c, 13, 74, 0
23, 45660, Note_on_c, 13, 78, 85
23, 45690, Note_on_c, 13, 78, 0
23, 45720, Note_on_c, 13, 79, 85
23, 45750, Note_on_c, 13, 79, 0
23, 45780, Note_on_c, 13, 81, 85
23, 45810, Note_on_c, 13, 81, 0
23, 45840, Note_on_c, 13, 79, 85
23, 45900, Note_on_c, 13, 79, 0
23, 45900, Note_on_c, 13, 81, 85
23, 45930, Note_on_c, 13, 81, 0
23, 45930, Note_on_c, 13, 83, 85
23, 45960, Note_on_c, 13, 83, 0
23, 45960, Note_on_c, 13, 81, 85
23, 46005, Note_on_c, 13, 81, 0
23, 46020, Note_on_c, 13, 79, 85
23, 46050, Note_on_c, 13, 79, 0
23, 46080, Note_on_c, 13, 79, 85
23, 46140, Note_on_c, 13, 79, 0
23, 46140, Note_on_c, 13, 78, 85
23, 46185, Note_on_c, 13, 78, 0
23, 46200, Note_on_c, 13, 74, 85
23, 46230, Note_on_c, 13, 74, 0
23, 46260, Note_on_c, 13, 78, 85
23, 46290, Note_on_c, 13, 78, 0
23, 46320, Note_on_c, 13, 78, 85
23, 46380, Note_on_c, 13, 78, 0
23, 46380, Note_on_c, 13, 76, 85
23, 46425, Note_on_c, 13, 76, 0
23, 46440, Note_on_c, 13, 74, 85
23, 46470, Note_on_c, 13, 74, 0
23, 46500, Note_on_c, 13, 73, 85
23, 46530, Note_on_c, 13, 73, 0
23, 46560, Note_on_c, 13, 74, 85
23, 46605, Note_on_c, 13, 74, 0
23, 46620, Note_on_c, 13, 66, 53
23, 46665, Note_on_c, 13, 66, 0
23, 46680, Note_on_c, 13, 67, 53
23, 46725, Note_on_c, 13, 67, 0
23, 46740, Note_on_c, 13, 67, 53
23, 46785, Note_on_c, 13, 67, 0
23, 46800, Note_on_c, 13, 69, 53
23, 46845, Note_on_c, 13, 69, 0
23, 46860, Note_on_c, 13, 69, 53
23, 46905, Note_on_c, 13, 69, 0
23, 46920, Note_on_c, 13, 66, 53
23, 46965, Note_on_c, 13, 66, 0
23, 46980, Note_on_c, 13, 66, 53
23, 47025, Note_on_c, 13, 66, 0
23, 47040, Note_on_c, 13, 64, 55
23, 47085, Note_on_c, 13, 64, 0
23, 47100, Note_on_c, 13, 64, 55
23, 47145, Note_on_c, 13, 64, 0
23, 47160, Note_on_c, 13, 66, 55
23, 47205, Note_on_c, 13, 66, 0
23, 47220, Note_on_c, 13, 66, 55
23, 47265, Note_on_c, 13, 66, 0
23, 47280, Note_on_c, 13, 67, 55
23, 47325, Note_on_c, 13, 67, 0
23, 47340, Note_on_c, 13, 67, 55
23, 47385, Note_on_c, 13, 67, 0
23, 47400, Note_on_c, 13, 64, 55
23, 47445, Note_on_c, 13, 64, 0
23, 47460, Note_on_c, 13, 64, 55
23, 47505, Note_on_c, 13, 64, 0
23, 47520, Note_on_c, 13, 66, 55
23, 47565, Note_on_c, 13, 66, 0
23, 47580, Note_on_c, 13, 66, 55
23, 47625, Note_on_c, 13, 66, 0
23, 47640, Note_on_c, 13, 67, 55
23, 47685, Note_on_c, 13, 67, 0
23, 47700, Note_on_c, 13, 67, 55
23, 47745, Note_on_c, 13, 67, 0
23, 47760, Note_on_c, 13, 69, 55
23, 47805, Note_on_c, 13, 69, 0
23, 47820, Note_on_c, 13, 69, 55
23, 47865, Note_on_c, 13, 69, 0
23, 47880, Note_on_c, 13, 66, 55
23, 47925, Note_on_c, 13, 66, 0
23, 47940, Note_on_c, 13, 66, 55
23, 47985, Note_on_c, 13, 66, 0
23, 48000, Note_on_c, 13, 64, 55
23, 48045, Note_on_c, 13, 64, 0
23, 48060, Note_on_c, 13, 64, 55
23, 48105, Note_on_c, 13, 64, 0
23, 48120, Note_on_c, 13, 66, 55
23, 48165, Note_on_c, 13, 66, 0
23, 48180, Note_on_c, 13, 66, 55
23, 48225, Note_on_c, 13, 66, 0
23, 48240, Note_on_c, 13, 67, 55
23, 48285, Note_on_c, 13, 67, 0
23, 48300, Note_on_c, 13, 67, 55
23, 48345, Note_on_c, 13, 67, 0
23, 48360, Note_on_c, 13, 64, 55
23, 48405, Note_on_c, 13, 64, 0
23, 48420, Note_on_c, 13, 64, 55
23, 48465, Note_on_c, 13, 64, 0
23, 48480, Note_on_c, 13, 66, 58
23, 48600, Note_on_c, 13, 66, 0
23, 48720, Note_on_c, 13, 78, 85
23, 48720, Note_on_c, 13, 71, 85
23, 48960, Note_on_c, 13, 71, 0
23, 48960, Note_on_c, 13, 78, 0
23, 48960, Note_on_c, 13, 76, 85
23, 49080, Note_on_c, 13, 76, 0
23, 49200, Note_on_c, 13, 69, 85
23, 49200, Note_on_c, 13, 76, 85
23, 49440, Note_on_c, 13, 76, 0
23, 49440, Note_on_c, 13, 69, 0
23, 49440, Note_on_c, 13, 74, 85
23, 49485, Note_on_c, 13, 74, 0
23, 49500, Note_on_c, 13, 78, 85
23, 49530, Note_on_c, 13, 78, 0
23, 49560, Note_on_c, 13, 79, 85
23, 49590, Note_on_c, 13, 79, 0
23, 49620, Note_on_c, 13, 81, 85
23, 49650, Note_on_c, 13, 81, 0
23, 49680, Note_on_c, 13, 79, 85
23, 49740, Note_on_c, 13, 79, 0
23, 49740, Note_on_c, 13, 81, 85
23, 49770, Note_on_c, 13, 81, 0
23, 49770, Note_on_c, 13, 83, 85
23, 49800, Note_on_c, 13, 83, 0
23, 49800, Note_on_c, 13, 81, 85
23, 49845, Note_on_c, 13, 81, 0
23, 49860, Note_on_c, 13, 79, 85
23, 49890, Note_on_c, 13, 79, 0
23, 49920, Note_on_c, 13, 79, 85
23, 49980, Note_on_c, 13, 79, 0
23, 49980, Note_on_c, 13, 78, 85
23, 50025, Note_on_c, 13, 78, 0
23, 50040, Note_on_c, 13, 74, 85
23, 50070, Note_on_c, 13, 74, 0
23, 50100, Note_on_c, 13, 78, 85
23, 50130, Note_on_c, 13, 78, 0
23, 50160, Note_on_c, 13, 78, 85
23, 50220, Note_on_c, 13, 78, 0
23, 50220, Note_on_c, 13, 76, 85
23, 50265, Note_on_c, 13, 76, 0
23, 50280, Note_on_c, 13, 74, 85
23, 50310, Note_on_c, 13, 74, 0
23, 50340, Note_on_c, 13, 73, 85
23, 50370, Note_on_c, 13, 73, 0
23, 50400, Note_on_c, 13, 74, 85
23, 50445, Note_on_c, 13, 74, 0
23, 50460, Note_on_c, 13, 69, 85
23, 50505, Note_on_c, 13, 69, 0
23, 50520, Note_on_c, 13, 71, 85
23, 50565, Note_on_c, 13, 71, 0
23, 50580, Note_on_c, 13, 73, 85
23, 50625, Note_on_c, 13, 73, 0
23, 50640, Note_on_c, 13, 74, 85
23, 50670, Note_on_c, 13, 74, 0
23, 50700, Note_on_c, 13, 74, 85
23, 50730, Note_on_c, 13, 74, 0
23, 50760, Note_on_c, 13, 76, 85
23, 50775, Note_on_c, 13, 76, 0
23, 50775, Note_on_c, 13, 78, 85
23, 50790, Note_on_c, 13, 78, 0
23, 50790, Note_on_c, 13, 76, 85
23, 50805, Note_on_c, 13, 76, 0
23, 50805, Note_on_c, 13, 78, 85
23, 50820, Note_on_c, 13, 78, 0
23, 50820, Note_on_c, 13, 74, 85
23, 50850, Note_on_c, 13, 74, 0
23, 50850, Note_on_c, 13, 76, 85
23, 50880, Note_on_c, 13, 76, 0
23, 50880, Note_on_c, 13, 78, 85
23, 50940, Note_on_c, 13, 78, 0
23, 50940, Note_on_c, 13, 73, 85
23, 50985, Note_on_c, 13, 73, 0
23, 51000, Note_on_c, 13, 74, 85
23, 51045, Note_on_c, 13, 74, 0
23, 51060, Note_on_c, 13, 76, 85
23, 51105, Note_on_c, 13, 76, 0
23, 51120, Note_on_c, 13, 78, 85
23, 51165, Note_on_c, 13, 78, 0
23, 51180, Note_on_c, 13, 78, 85
23, 51225, Note_on_c, 13, 78, 0
23, 51240, Note_on_c, 13, 79, 85
23, 51255, Note_on_c, 13, 79, 0
23, 51255, Note_on_c, 13, 81, 85
23, 51270, Note_on_c, 13, 81, 0
23, 51270, Note_on_c, 13, 79, 85
23, 51285, Note_on_c, 13, 79, 0
23, 51285, Note_on_c, 13, 81, 85
23, 51300, Note_on_c, 13, 81, 0
23, 51300, Note_on_c, 13, 78, 85
23, 51330, Note_on_c, 13, 78, 0
23, 51330, Note_on_c, 13, 79, 85
23, 51360, Note_on_c, 13, 79, 0
23, 51360, Note_on_c, 13, 81, 85
23, 51405, Note_on_c, 13, 81, 0
23, 51420, Note_on_c, 13, 81, 85
23, 51465, Note_on_c, 13, 81, 0
23, 51480, Note_on_c, 13, 82, 85
23, 51495, Note_on_c, 13, 82, 0
23, 51495, Note_on_c, 13, 83, 85
23, 51510, Note_on_c, 13, 83, 0
23, 51510, Note_on_c, 13, 82, 85
23, 51525, Note_on_c, 13, 82, 0
23, 51525, Note_on_c, 13, 83, 85
23, 51540, Note_on_c, 13, 83, 0
23, 51540, Note_on_c, 13, 80, 85
23, 51570, Note_on_c, 13, 80, 0
23, 51570, Note_on_c, 13, 82, 85
23, 51600, Note_on_c, 13, 82, 0
23, 51600, Note_on_c, 13, 83, 85
23, 51720, Note_on_c, 13, 83, 0
23, 51840, Note_on_c, 13, 67, 55
23, 52320, Note_on_c, 13, 67, 0
23, 52320, Note_on_c, 13, 66, 55
23, 52380, Note_on_c, 13, 66, 0
23, 52440, Note_on_c, 13, 69, 55
23, 52500, Note_on_c, 13, 69, 0
23, 52560, Note_on_c, 13, 66, 55
23, 52620, Note_on_c, 13, 66, 0
23, 52810, Note_on_c, 13, 62, 89
23, 52810, Note_on_c, 13, 74, 89
23, 52930, Note_on_c, 13, 74, 0
23, 52930, Note_on_c, 13, 62, 0
23, 52990, Note_on_c, 13, 69, 89
23, 53035, Note_on_c, 13, 69, 0
23, 53050, Note_on_c, 13, 74, 89
23, 53170, Note_on_c, 13, 74, 0
23, 53230, Note_on_c, 13, 69, 89
23, 53275, Note_on_c, 13, 69, 0
23, 53290, Note_on_c, 13, 74, 89
23, 53335, Note_on_c, 13, 74, 0
23, 53350, Note_on_c, 13, 69, 89
23, 53395, Note_on_c, 13, 69, 0
23, 53410, Note_on_c, 13, 74, 89
23, 53455, Note_on_c, 13, 74, 0
23, 53470, Note_on_c, 13, 78, 89
23, 53515, Note_on_c, 13, 78, 0
23, 53530, Note_on_c, 13, 81, 89
23, 53650, Note_on_c, 13, 81, 0
23, 53770, Note_on_c, 13, 81, 89
23, 53890, Note_on_c, 13, 81, 0
23, 53950, Note_on_c, 13, 78, 89
23, 53995, Note_on_c, 13, 78, 0
23, 54010, Note_on_c, 13, 81, 89
23, 54130, Note_on_c, 13, 81, 0
23, 54190, Note_on_c, 13, 78, 89
23, 54235, Note_on_c, 13, 78, 0
23, 54250, Note_on_c, 13, 81, 89
23, 54295, Note_on_c, 13, 81, 0
23, 54310, Note_on_c, 13, 78, 89
23, 54355, Note_on_c, 13, 78, 0
23, 54370, Note_on_c, 13, 75, 89
23, 54415, Note_on_c, 13, 75, 0
23, 54430, Note_on_c, 13, 78, 89
23, 54475, Note_on_c, 13, 78, 0
23, 54490, Note_on_c, 13, 71, 89
23, 54610, Note_on_c, 13, 71, 0
23, 54720, Note_on_c, 13, 64, 55
23, 54765, Note_on_c, 13, 64, 0
23, 54780, Note_on_c, 13, 64, 55
23, 54825, Note_on_c, 13, 64, 0
23, 54840, Note_on_c, 13, 65, 55
23, 54885, Note_on_c, 13, 65, 0
23, 54900, Note_on_c, 13, 65, 55
23, 54945, Note_on_c, 13, 65, 0
23, 54960, Note_on_c, 13, 67, 55
23, 55005, Note_on_c, 13, 67, 0
23, 55020, Note_on_c, 13, 67, 55
23, 55065, Note_on_c, 13, 67, 0
23, 55080, Note_on_c, 13, 64, 55
23, 55125, Note_on_c, 13, 64, 0
23, 55140, Note_on_c, 13, 64, 55
23, 55185, Note_on_c, 13, 64, 0
23, 55200, Note_on_c, 13, 62, 55
23, 55245, Note_on_c, 13, 62, 0
23, 55260, Note_on_c, 13, 62, 55
23, 55305, Note_on_c, 13, 62, 0
23, 55320, Note_on_c, 13, 64, 55
23, 55365, Note_on_c, 13, 64, 0
23, 55380, Note_on_c, 13, 64, 55
23, 55425, Note_on_c, 13, 64, 0
23, 55440, Note_on_c, 13, 65, 55
23, 55485, Note_on_c, 13, 65, 0
23, 55500, Note_on_c, 13, 65, 55
23, 55545, Note_on_c, 13, 65, 0
23, 55560, Note_on_c, 13, 62, 55
23, 55605, Note_on_c, 13, 62, 0
23, 55620, Note_on_c, 13, 62, 55
23, 55665, Note_on_c, 13, 62, 0
23, 55680, Note_on_c, 13, 64, 55
23, 55725, Note_on_c, 13, 64, 0
23, 55740, Note_on_c, 13, 64, 55
23, 55785, Note_on_c, 13, 64, 0
23, 55800, Note_on_c, 13, 65, 55
23, 55845, Note_on_c, 13, 65, 0
23, 55860, Note_on_c, 13, 65, 55
23, 55905, Note_on_c, 13, 65, 0
23, 55920, Note_on_c, 13, 67, 55
23, 55965, Note_on_c, 13, 67, 0
23, 55980, Note_on_c, 13, 67, 55
23, 56025, Note_on_c, 13, 67, 0
23, 56040, Note_on_c, 13, 64, 55
23, 56085, Note_on_c, 13, 64, 0
23, 56100, Note_on_c, 13, 64, 55
23, 56145, Note_on_c, 13, 64, 0
23, 56160, Note_on_c, 13, 62, 55
23, 56205, Note_on_c, 13, 62, 0
23, 56220, Note_on_c, 13, 62, 55
23, 56265, Note_on_c, 13, 62, 0
23, 56280, Note_on_c, 13, 64, 55
23, 56325, Note_on_c, 13, 64, 0
23, 56340, Note_on_c, 13, 64, 55
23, 56385, Note_on_c, 13, 64, 0
23, 56400, Note_on_c, 13, 65, 55
23, 56445, Note_on_c, 13, 65, 0
23, 56460, Note_on_c, 13, 65, 55
23, 56505, Note_on_c, 13, 65, 0
23, 56520, Note_on_c, 13, 62, 55
23, 56565, Note_on_c, 13, 62, 0
23, 56580, Note_on_c, 13, 62, 55
23, 56625, Note_on_c, 13, 62, 0
23, 56640, Note_on_c, 13, 64, 55
23, 56685, Note_on_c, 13, 64, 0
23, 56700, Note_on_c, 13, 64, 55
23, 56745, Note_on_c, 13, 64, 0
23, 56760, Note_on_c, 13, 65, 55
23, 56805, Note_on_c, 13, 65, 0
23, 56820, Note_on_c, 13, 65, 55
23, 56865, Note_on_c, 13, 65, 0
23, 56880, Note_on_c, 13, 67, 55
23, 56925, Note_on_c, 13, 67, 0
23, 56940, Note_on_c, 13, 67, 55
23, 56985, Note_on_c, 13, 67, 0
23, 57000, Note_on_c, 13, 64, 55
23, 57045, Note_on_c, 13, 64, 0
23, 57060, Note_on_c, 13, 64, 55
23, 57105, Note_on_c, 13, 64, 0
23, 57120, Note_on_c, 13, 62, 55
23, 57165, Note_on_c, 13, 62, 0
23, 57180, Note_on_c, 13, 62, 55
23, 57225, Note_on_c, 13, 62, 0
23, 57240, Note_on_c, 13, 64, 55
23, 57285, Note_on_c, 13, 64, 0
23, 57300, Note_on_c, 13, 64, 55
23, 57345, Note_on_c, 13, 64, 0
23, 57360, Note_on_c, 13, 65, 55
23, 57405, Note_on_c, 13, 65, 0
23, 57420, Note_on_c, 13, 65, 55
23, 57465, Note_on_c, 13, 65, 0
23, 57480, Note_on_c, 13, 62, 55
23, 57525, Note_on_c, 13, 62, 0
23, 57540, Note_on_c, 13, 62, 55
23, 57585, Note_on_c, 13, 62, 0
23, 57600, Note_on_c, 13, 60, 55
23, 57645, Note_on_c, 13, 60, 0
23, 57660, Note_on_c, 13, 60, 55
23, 57705, Note_on_c, 13, 60, 0
23, 57720, Note_on_c, 13, 62, 55
23, 57765, Note_on_c, 13, 62, 0
23, 57780, Note_on_c, 13, 62, 55
23, 57825, Note_on_c, 13, 62, 0
23, 57840, Note_on_c, 13, 64, 55
23, 57885, Note_on_c, 13, 64, 0
23, 57900, Note_on_c, 13, 64, 55
23, 57945, Note_on_c, 13, 64, 0
23, 57960, Note_on_c, 13, 60, 55
23, 58005, Note_on_c, 13, 60, 0
23, 58020, Note_on_c, 13, 60, 55
23, 58065, Note_on_c, 13, 60, 0
23, 58080, Note_on_c, 13, 60, 55
23, 58125, Note_on_c, 13, 60, 0
23, 58140, Note_on_c, 13, 60, 55
23, 58185, Note_on_c, 13, 60, 0
23, 58200, Note_on_c, 13, 62, 55
23, 58245, Note_on_c, 13, 62, 0
23, 58260, Note_on_c, 13, 62, 55
23, 58305, Note_on_c, 13, 62, 0
23, 58320, Note_on_c, 13, 63, 55
23, 58365, Note_on_c, 13, 63, 0
23, 58380, Note_on_c, 13, 63, 55
23, 58425, Note_on_c, 13, 63, 0
23, 58440, Note_on_c, 13, 60, 55
23, 58485, Note_on_c, 13, 60, 0
23, 58500, Note_on_c, 13, 60, 55
23, 58545, Note_on_c, 13, 60, 0
23, 58560, Note_on_c, 13, 58, 55
23, 58605, Note_on_c, 13, 58, 0
23, 58620, Note_on_c, 13, 58, 55
23, 58665, Note_on_c, 13, 58, 0
23, 58680, Note_on_c, 13, 57, 55
23, 58725, Note_on_c, 13, 57, 0
23, 58740, Note_on_c, 13, 57, 55
23, 58785, Note_on_c, 13, 57, 0
23, 58800, Note_on_c, 13, 58, 55
23, 58845, Note_on_c, 13, 58, 0
23, 58860, Note_on_c, 13, 58, 55
23, 58905, Note_on_c, 13, 58, 0
23, 58920, Note_on_c, 13, 69, 55
23, 58965, Note_on_c, 13, 69, 0
23, 58980, Note_on_c, 13, 69, 55
23, 59025, Note_on_c, 13, 69, 0
23, 59040, Note_on_c, 13, 70, 55
23, 59085, Note_on_c, 13, 70, 0
23, 59100, Note_on_c, 13, 70, 55
23, 59145, Note_on_c, 13, 70, 0
23, 59160, Note_on_c, 13, 69, 55
23, 59205, Note_on_c, 13, 69, 0
23, 59220, Note_on_c, 13, 69, 55
23, 59265, Note_on_c, 13, 69, 0
23, 59280, Note_on_c, 13, 70, 55
23, 59325, Note_on_c, 13, 70, 0
23, 59340, Note_on_c, 13, 70, 55
23, 59385, Note_on_c, 13, 70, 0
23, 59400, Note_on_c, 13, 69, 55
23, 59445, Note_on_c, 13, 69, 0
23, 59460, Note_on_c, 13, 67, 55
23, 59505, Note_on_c, 13, 67, 0
23, 59530, Note_on_c, 13, 66, 53
23, 59650, Note_on_c, 13, 66, 0
23, 59710, Note_on_c, 13, 62, 91
23, 59770, Note_on_c, 13, 62, 0
23, 59770, Note_on_c, 13, 64, 91
23, 59830, Note_on_c, 13, 64, 0
23, 59830, Note_on_c, 13, 66, 91
23, 59890, Note_on_c, 13, 66, 0
23, 59890, Note_on_c, 13, 67, 91
23, 59950, Note_on_c, 13, 67, 0
23, 59950, Note_on_c, 13, 69, 91
23, 60010, Note_on_c, 13, 69, 0
23, 60010, Note_on_c, 13, 72, 91
23, 60070, Note_on_c, 13, 72, 0
23, 60070, Note_on_c, 13, 70, 91
23, 60130, Note_on_c, 13, 70, 0
23, 60190, Note_on_c, 13, 66, 91
23, 60250, Note_on_c, 13, 66, 0
23, 60250, Note_on_c, 13, 67, 91
23, 60310, Note_on_c, 13, 67, 0
23, 60310, Note_on_c, 13, 69, 91
23, 60370, Note_on_c, 13, 69, 0
23, 60370, Note_on_c, 13, 70, 91
23, 60430, Note_on_c, 13, 70, 0
23, 60430, Note_on_c, 13, 73, 91
23, 60490, Note_on_c, 13, 73, 0
23, 60490, Note_on_c, 13, 76, 91
23, 60550, Note_on_c, 13, 76, 0
23, 60550, Note_on_c, 13, 74, 91
23, 60610, Note_on_c, 13, 74, 0
23, 60670, Note_on_c, 13, 62, 53
23, 60730, Note_on_c, 13, 62, 0
23, 60730, Note_on_c, 13, 64, 53
23, 60790, Note_on_c, 13, 64, 0
23, 60790, Note_on_c, 13, 66, 53
23, 60850, Note_on_c, 13, 66, 0
23, 60850, Note_on_c, 13, 67, 53
23, 60910, Note_on_c, 13, 67, 0
23, 60910, Note_on_c, 13, 69, 53
23, 60960, Note_on_c, 13, 70, 53
23, 60970, Note_on_c, 13, 69, 0
23, 61080, Note_on_c, 13, 70, 0
23, 61080, Note_on_c, 13, 71, 53
23, 61200, Note_on_c, 13, 71, 0
23, 61200, Note_on_c, 13, 72, 53
23, 61320, Note_on_c, 13, 72, 0
23, 61320, Note_on_c, 13, 73, 53
23, 61440, Note_on_c, 13, 73, 0
23, 61440, Note_on_c, 13, 74, 68
23, 61470, Note_on_c, 13, 74, 0
23, 61500, Note_on_c, 13, 74, 68
23, 61530, Note_on_c, 13, 74, 0
23, 61560, Note_on_c, 13, 74, 68
23, 61620, Note_on_c, 13, 74, 0
23, 61620, Note_on_c, 13, 76, 68
23, 61665, Note_on_c, 13, 76, 0
23, 61680, Note_on_c, 13, 72, 68
23, 61710, Note_on_c, 13, 72, 0
23, 61740, Note_on_c, 13, 72, 68
23, 61770, Note_on_c, 13, 72, 0
23, 61800, Note_on_c, 13, 72, 68
23, 61860, Note_on_c, 13, 72, 0
23, 61860, Note_on_c, 13, 74, 68
23, 61905, Note_on_c, 13, 74, 0
23, 61920, Note_on_c, 13, 71, 68
23, 61950, Note_on_c, 13, 71, 0
23, 61980, Note_on_c, 13, 71, 68
23, 62010, Note_on_c, 13, 71, 0
23, 62040, Note_on_c, 13, 71, 68
23, 62100, Note_on_c, 13, 71, 0
23, 62100, Note_on_c, 13, 74, 68
23, 62145, Note_on_c, 13, 74, 0
23, 62160, Note_on_c, 13, 74, 68
23, 62220, Note_on_c, 13, 74, 0
23, 62220, Note_on_c, 13, 72, 68
23, 62265, Note_on_c, 13, 72, 0
23, 62280, Note_on_c, 13, 71, 68
23, 62310, Note_on_c, 13, 71, 0
23, 62340, Note_on_c, 13, 69, 68
23, 62370, Note_on_c, 13, 69, 0
23, 62410, Note_on_c, 13, 79, 93
23, 62410, Note_on_c, 13, 71, 93
23, 62410, Note_on_c, 13, 62, 93
23, 62530, Note_on_c, 13, 62, 0
23, 62530, Note_on_c, 13, 71, 0
23, 62530, Note_on_c, 13, 79, 0
23, 62590, Note_on_c, 13, 74, 92
23, 62620, Note_on_c, 13, 74, 0
23, 62650, Note_on_c, 13, 79, 92
23, 62770, Note_on_c, 13, 79, 0
23, 62830, Note_on_c, 13, 74, 91
23, 62860, Note_on_c, 13, 74, 0
23, 62890, Note_on_c, 13, 79, 90
23, 62920, Note_on_c, 13, 79, 0
23, 62950, Note_on_c, 13, 74, 90
23, 62980, Note_on_c, 13, 74, 0
23, 63010, Note_on_c, 13, 79, 90
23, 63040, Note_on_c, 13, 79, 0
23, 63070, Note_on_c, 13, 83, 90
23, 63100, Note_on_c, 13, 83, 0
23, 63130, Note_on_c, 13, 86, 89
23, 63250, Note_on_c, 13, 86, 0
23, 63370, Note_on_c, 13, 84, 88
23, 63490, Note_on_c, 13, 84, 0
23, 63550, Note_on_c, 13, 81, 87
23, 63580, Note_on_c, 13, 81, 0
23, 63610, Note_on_c, 13, 84, 86
23, 63730, Note_on_c, 13, 84, 0
23, 63790, Note_on_c, 13, 81, 85
23, 63820, Note_on_c, 13, 81, 0
23, 63850, Note_on_c, 13, 84, 85
23, 63880, Note_on_c, 13, 84, 0
23, 63910, Note_on_c, 13, 81, 85
23, 63940, Note_on_c, 13, 81, 0
23, 63970, Note_on_c, 13, 78, 85
23, 64000, Note_on_c, 13, 78, 0
23, 64030, Note_on_c, 13, 81, 85
23, 64060, Note_on_c, 13, 81, 0
23, 64090, Note_on_c, 13, 74, 85
23, 64210, Note_on_c, 13, 74, 0
23, 64320, Note_on_c, 13, 59, 85
23, 64320, Note_on_c, 13, 62, 85
23, 64340, Note_on_c, 13, 62, 0
23, 64340, Note_on_c, 13, 59, 0
23, 64350, Note_on_c, 13, 59, 85
23, 64350, Note_on_c, 13, 62, 85
23, 64370, Note_on_c, 13, 62, 0
23, 64370, Note_on_c, 13, 59, 0
23, 64380, Note_on_c, 13, 59, 85
23, 64380, Note_on_c, 13, 62, 85
23, 64400, Note_on_c, 13, 62, 0
23, 64400, Note_on_c, 13, 59, 0
23, 64410, Note_on_c, 13, 59, 85
23, 64410, Note_on_c, 13, 62, 85
23, 64430, Note_on_c, 13, 62, 0
23, 64430, Note_on_c, 13, 59, 0
23, 64440, Note_on_c, 13, 59, 85
23, 64440, Note_on_c, 13, 62, 85
23, 64460, Note_on_c, 13, 62, 0
23, 64460, Note_on_c, 13, 59, 0
23, 64470, Note_on_c, 13, 59, 85
23, 64470, Note_on_c, 13, 62, 85
23, 64490, Note_on_c, 13, 62, 0
23, 64490, Note_on_c, 13, 59, 0
23, 64500, Note_on_c, 13, 59, 85
23, 64500, Note_on_c, 13, 62, 85
23, 64520, Note_on_c, 13, 62, 0
23, 64520, Note_on_c, 13, 59, 0
23, 64530, Note_on_c, 13, 59, 85
23, 64530, Note_on_c, 13, 62, 85
23, 64550, Note_on_c, 13, 62, 0
23, 64550, Note_on_c, 13, 59, 0
23, 64560, Note_on_c, 13, 59, 85
23, 64560, Note_on_c, 13, 62, 85
23, 64580, Note_on_c, 13, 62, 0
23, 64580, Note_on_c, 13, 59, 0
23, 64590, Note_on_c, 13, 59, 85
23, 64590, Note_on_c, 13, 62, 85
23, 64610, Note_on_c, 13, 62, 0
23, 64610, Note_on_c, 13, 59, 0
23, 64620, Note_on_c, 13, 59, 85
23, 64620, Note_on_c, 13, 62, 85
23, 64640, Note_on_c, 13, 62, 0
23, 64640, Note_on_c, 13, 59, 0
23, 64650, Note_on_c, 13, 59, 85
23, 64650, Note_on_c, 13, 62, 85
23, 64670, Note_on_c, 13, 62, 0
23, 64670, Note_on_c, 13, 59, 0
23, 64680, Note_on_c, 13, 59, 85
23, 64680, Note_on_c, 13, 62, 85
23, 64700, Note_on_c, 13, 62, 0
23, 64700, Note_on_c, 13, 59, 0
23, 64710, Note_on_c, 13, 59, 85
23, 64710, Note_on_c, 13, 62, 85
23, 64730, Note_on_c, 13, 62, 0
23, 64730, Note_on_c, 13, 59, 0
23, 64740, Note_on_c, 13, 59, 85
23, 64740, Note_on_c, 13, 62, 85
23, 64760, Note_on_c, 13, 62, 0
23, 64760, Note_on_c, 13, 59, 0
23, 64770, Note_on_c, 13, 59, 85
23, 64770, Note_on_c, 13, 62, 85
23, 64790, Note_on_c, 13, 62, 0
23, 64790, Note_on_c, 13, 59, 0
23, 64800, Note_on_c, 13, 60, 85
23, 64800, Note_on_c, 13, 62, 85
23, 64820, Note_on_c, 13, 62, 0
23, 64820, Note_on_c, 13, 60, 0
23, 64830, Note_on_c, 13, 60, 85
23, 64830, Note_on_c, 13, 62, 85
23, 64850, Note_on_c, 13, 62, 0
23, 64850, Note_on_c, 13, 60, 0
23, 64860, Note_on_c, 13, 60, 85
23, 64860, Note_on_c, 13, 62, 85
23, 64880, Note_on_c, 13, 62, 0
23, 64880, Note_on_c, 13, 60, 0
23, 64890, Note_on_c, 13, 60, 85
23, 64890, Note_on_c, 13, 62, 85
23, 64910, Note_on_c, 13, 62, 0
23, 64910, Note_on_c, 13, 60, 0
23, 64920, Note_on_c, 13, 60, 85
23, 64920, Note_on_c, 13, 62, 85
23, 64940, Note_on_c, 13, 62, 0
23, 64940, Note_on_c, 13, 60, 0
23, 64950, Note_on_c, 13, 60, 85
23, 64950, Note_on_c, 13, 62, 85
23, 64970, Note_on_c, 13, 62, 0
23, 64970, Note_on_c, 13, 60, 0
23, 64980, Note_on_c, 13, 60, 85
23, 64980, Note_on_c, 13, 62, 85
23, 65000, Note_on_c, 13, 62, 0
23, 65000, Note_on_c, 13, 60, 0
23, 65010, Note_on_c, 13, 60, 85
23, 65010, Note_on_c, 13, 62, 85
23, 65030, Note_on_c, 13, 62, 0
23, 65030, Note_on_c, 13, 60, 0
23, 65040, Note_on_c, 13, 60, 85
23, 65040, Note_on_c, 13, 62, 85
23, 65060, Note_on_c, 13, 62, 0
23, 65060, Note_on_c, 13, 60, 0
23, 65070, Note_on_c, 13, 60, 85
23, 65070, Note_on_c, 13, 62, 85
23, 65090, Note_on_c, 13, 62, 0
23, 65090, Note_on_c, 13, 60, 0
23, 65100, Note_on_c, 13, 60, 85
23, 65100, Note_on_c, 13, 62, 85
23, 65120, Note_on_c, 13, 62, 0
23, 65120, Note_on_c, 13, 60, 0
23, 65130, Note_on_c, 13, 60, 85
23, 65130, Note_on_c, 13, 62, 85
23, 65150, Note_on_c, 13, 62, 0
23, 65150, Note_on_c, 13, 60, 0
23, 65160, Note_on_c, 13, 60, 85
23, 65160, Note_on_c, 13, 62, 85
23, 65180, Note_on_c, 13, 62, 0
23, 65180, Note_on_c, 13, 60, 0
23, 65190, Note_on_c, 13, 60, 85
23, 65190, Note_on_c, 13, 62, 85
23, 65210, Note_on_c, 13, 62, 0
23, 65210, Note_on_c, 13, 60, 0
23, 65220, Note_on_c, 13, 60, 85
23, 65220, Note_on_c, 13, 62, 85
23, 65240, Note_on_c, 13, 62, 0
23, 65240, Note_on_c, 13, 60, 0
23, 65250, Note_on_c, 13, 60, 85
23, 65250, Note_on_c, 13, 62, 85
23, 65270, Note_on_c, 13, 62, 0
23, 65270, Note_on_c, 13, 60, 0
23, 65280, Note_on_c, 13, 59, 85
23, 65280, Note_on_c, 13, 62, 85
23, 65300, Note_on_c, 13, 62, 0
23, 65300, Note_on_c, 13, 59, 0
23, 65310, Note_on_c, 13, 59, 85
23, 65310, Note_on_c, 13, 62, 85
23, 65330, Note_on_c, 13, 62, 0
23, 65330, Note_on_c, 13, 59, 0
23, 65340, Note_on_c, 13, 59, 85
23, 65340, Note_on_c, 13, 62, 85
23, 65360, Note_on_c, 13, 62, 0
23, 65360, Note_on_c, 13, 59, 0
23, 65370, Note_on_c, 13, 59, 85
23, 65370, Note_on_c, 13, 62, 85
23, 65390, Note_on_c, 13, 62, 0
23, 65390, Note_on_c, 13, 59, 0
23, 65400, Note_on_c, 13, 59, 85
23, 65400, Note_on_c, 13, 62, 85
23, 65420, Note_on_c, 13, 62, 0
23, 65420, Note_on_c, 13, 59, 0
23, 65430, Note_on_c, 13, 59, 85
23, 65430, Note_on_c, 13, 62, 85
23, 65450, Note_on_c, 13, 62, 0
23, 65450, Note_on_c, 13, 59, 0
23, 65460, Note_on_c, 13, 59, 85
23, 65460, Note_on_c, 13, 62, 85
23, 65480, Note_on_c, 13, 62, 0
23, 65480, Note_on_c, 13, 59, 0
23, 65490, Note_on_c, 13, 59, 85
23, 65490, Note_on_c, 13, 62, 85
23, 65510, Note_on_c, 13, 62, 0
23, 65510, Note_on_c, 13, 59, 0
23, 65520, Note_on_c, 13, 59, 85
23, 65520, Note_on_c, 13, 62, 85
23, 65540, Note_on_c, 13, 62, 0
23, 65540, Note_on_c, 13, 59, 0
23, 65550, Note_on_c, 13, 59, 85
23, 65550, Note_on_c, 13, 62, 85
23, 65570, Note_on_c, 13, 62, 0
23, 65570, Note_on_c, 13, 59, 0
23, 65580, Note_on_c, 13, 59, 85
23, 65580, Note_on_c, 13, 62, 85
23, 65600, Note_on_c, 13, 62, 0
23, 65600, Note_on_c, 13, 59, 0
23, 65610, Note_on_c, 13, 59, 85
23, 65610, Note_on_c, 13, 62, 85
23, 65630, Note_on_c, 13, 62, 0
23, 65630, Note_on_c, 13, 59, 0
23, 65640, Note_on_c, 13, 59, 85
23, 65640, Note_on_c, 13, 62, 85
23, 65660, Note_on_c, 13, 62, 0
23, 65660, Note_on_c, 13, 59, 0
23, 65670, Note_on_c, 13, 59, 85
23, 65670, Note_on_c, 13, 62, 85
23, 65690, Note_on_c, 13, 62, 0
23, 65690, Note_on_c, 13, 59, 0
23, 65700, Note_on_c, 13, 59, 85
23, 65700, Note_on_c, 13, 62, 85
23, 65720, Note_on_c, 13, 62, 0
23, 65720, Note_on_c, 13, 59, 0
23, 65730, Note_on_c, 13, 59, 85
23, 65730, Note_on_c, 13, 62, 85
23, 65750, Note_on_c, 13, 62, 0
23, 65750, Note_on_c, 13, 59, 0
23, 65760, Note_on_c, 13, 60, 85
23, 65760, Note_on_c, 13, 62, 85
23, 65780, Note_on_c, 13, 62, 0
23, 65780, Note_on_c, 13, 60, 0
23, 65790, Note_on_c, 13, 60, 85
23, 65790, Note_on_c, 13, 62, 85
23, 65810, Note_on_c, 13, 62, 0
23, 65810, Note_on_c, 13, 60, 0
23, 65820, Note_on_c, 13, 60, 85
23, 65820, Note_on_c, 13, 62, 85
23, 65840, Note_on_c, 13, 62, 0
23, 65840, Note_on_c, 13, 60, 0
23, 65850, Note_on_c, 13, 60, 85
23, 65850, Note_on_c, 13, 62, 85
23, 65870, Note_on_c, 13, 62, 0
23, 65870, Note_on_c, 13, 60, 0
23, 65880, Note_on_c, 13, 60, 85
23, 65880, Note_on_c, 13, 62, 85
23, 65900, Note_on_c, 13, 62, 0
23, 65900, Note_on_c, 13, 60, 0
23, 65910, Note_on_c, 13, 60, 85
23, 65910, Note_on_c, 13, 62, 85
23, 65930, Note_on_c, 13, 62, 0
23, 65930, Note_on_c, 13, 60, 0
23, 65940, Note_on_c, 13, 60, 85
23, 65940, Note_on_c, 13, 62, 85
23, 65960, Note_on_c, 13, 62, 0
23, 65960, Note_on_c, 13, 60, 0
23, 65970, Note_on_c, 13, 60, 85
23, 65970, Note_on_c, 13, 62, 85
23, 65990, Note_on_c, 13, 62, 0
23, 65990, Note_on_c, 13, 60, 0
23, 66000, Note_on_c, 13, 60, 85
23, 66000, Note_on_c, 13, 62, 85
23, 66020, Note_on_c, 13, 62, 0
23, 66020, Note_on_c, 13, 60, 0
23, 66030, Note_on_c, 13, 60, 85
23, 66030, Note_on_c, 13, 62, 85
23, 66050, Note_on_c, 13, 62, 0
23, 66050, Note_on_c, 13, 60, 0
23, 66060, Note_on_c, 13, 60, 85
23, 66060, Note_on_c, 13, 62, 85
23, 66080, Note_on_c, 13, 62, 0
23, 66080, Note_on_c, 13, 60, 0
23, 66090, Note_on_c, 13, 60, 85
23, 66090, Note_on_c, 13, 62, 85
23, 66110, Note_on_c, 13, 62, 0
23, 66110, Note_on_c, 13, 60, 0
23, 66120, Note_on_c, 13, 60, 85
23, 66120, Note_on_c, 13, 62, 85
23, 66140, Note_on_c, 13, 62, 0
23, 66140, Note_on_c, 13, 60, 0
23, 66150, Note_on_c, 13, 60, 85
23, 66150, Note_on_c, 13, 62, 85
23, 66170, Note_on_c, 13, 62, 0
23, 66170, Note_on_c, 13, 60, 0
23, 66180, Note_on_c, 13, 60, 85
23, 66180, Note_on_c, 13, 62, 85
23, 66200, Note_on_c, 13, 62, 0
23, 66200, Note_on_c, 13, 60, 0
23, 66210, Note_on_c, 13, 60, 85
23, 66210, Note_on_c, 13, 62, 85
23, 66230, Note_on_c, 13, 62, 0
23, 66230, Note_on_c, 13, 60, 0
23, 66240, Note_on_c, 13, 59, 85
23, 66240, Note_on_c, 13, 62, 85
23, 66360, Note_on_c, 13, 62, 0
23, 66360, Note_on_c, 13, 59, 0
23, 66360, Note_on_c, 13, 72, 85
23, 66405, Note_on_c, 13, 72, 0
23, 66420, Note_on_c, 13, 72, 85
23, 66465, Note_on_c, 13, 72, 0
23, 66480, Note_on_c, 13, 74, 85
23, 66525, Note_on_c, 13, 74, 0
23, 66540, Note_on_c, 13, 74, 85
23, 66585, Note_on_c, 13, 74, 0
23, 66600, Note_on_c, 13, 72, 85
23, 66660, Note_on_c, 13, 72, 0
23, 66660, Note_on_c, 13, 71, 85
23, 66690, Note_on_c, 13, 71, 0
23, 66690, Note_on_c, 13, 69, 85
23, 66720, Note_on_c, 13, 69, 0
23, 66720, Note_on_c, 13, 67, 85
23, 66765, Note_on_c, 13, 67, 0
23, 66780, Note_on_c, 13, 67, 85
23, 66825, Note_on_c, 13, 67, 0
23, 66840, Note_on_c, 13, 66, 85
23, 66885, Note_on_c, 13, 66, 0
23, 66900, Note_on_c, 13, 66, 85
23, 66945, Note_on_c, 13, 66, 0
23, 66960, Note_on_c, 13, 67, 85
23, 67080, Note_on_c, 13, 67, 0
23, 67200, Note_on_c, 13, 71, 47
23, 67440, Note_on_c, 13, 71, 0
23, 67440, Note_on_c, 13, 72, 47
23, 67680, Note_on_c, 13, 72, 0
23, 67680, Note_on_c, 13, 71, 47
23, 67710, Note_on_c, 13, 71, 0
23, 67710, Note_on_c, 13, 69, 47
23, 67790, Note_on_c, 13, 69, 0
23, 67800, Note_on_c, 13, 69, 47
23, 67920, Note_on_c, 13, 69, 0
23, 67920, Note_on_c, 13, 69, 47
23, 67950, Note_on_c, 13, 69, 0
23, 67950, Note_on_c, 13, 67, 47
23, 68030, Note_on_c, 13, 67, 0
23, 68040, Note_on_c, 13, 67, 47
23, 68160, Note_on_c, 13, 67, 0
23, 68160, Note_on_c, 13, 64, 47
23, 68250, Note_on_c, 13, 64, 0
23, 68280, Note_on_c, 13, 64, 47
23, 68370, Note_on_c, 13, 64, 0
23, 68400, Note_on_c, 13, 60, 47
23, 68490, Note_on_c, 13, 60, 0
23, 68520, Note_on_c, 13, 57, 47
23, 68610, Note_on_c, 13, 57, 0
23, 68640, Note_on_c, 13, 62, 47
23, 68700, Note_on_c, 13, 62, 0
23, 68760, Note_on_c, 13, 66, 47
23, 68820, Note_on_c, 13, 66, 0
23, 68880, Note_on_c, 13, 67, 47
23, 68940, Note_on_c, 13, 67, 0
23, 69120, Note_on_c, 13, 71, 47
23, 69360, Note_on_c, 13, 71, 0
23, 69360, Note_on_c, 13, 72, 47
23, 69600, Note_on_c, 13, 72, 0
23, 69600, Note_on_c, 13, 71, 47
23, 69660, Note_on_c, 13, 71, 0
23, 69660, Note_on_c, 13, 69, 47
23, 69690, Note_on_c, 13, 69, 0
23, 69720, Note_on_c, 13, 69, 47
23, 69750, Note_on_c, 13, 69, 0
23, 69780, Note_on_c, 13, 69, 47
23, 69810, Note_on_c, 13, 69, 0
23, 69840, Note_on_c, 13, 69, 47
23, 69900, Note_on_c, 13, 69, 0
23, 69900, Note_on_c, 13, 67, 47
23, 69930, Note_on_c, 13, 67, 0
23, 69960, Note_on_c, 13, 67, 47
23, 69990, Note_on_c, 13, 67, 0
23, 70020, Note_on_c, 13, 67, 47
23, 70050, Note_on_c, 13, 67, 0
23, 70080, Note_on_c, 13, 64, 47
23, 70170, Note_on_c, 13, 64, 0
23, 70200, Note_on_c, 13, 64, 47
23, 70245, Note_on_c, 13, 64, 0
23, 70260, Note_on_c, 13, 64, 47
23, 70305, Note_on_c, 13, 64, 0
23, 70320, Note_on_c, 13, 60, 47
23, 70410, Note_on_c, 13, 60, 0
23, 70440, Note_on_c, 13, 60, 47
23, 70485, Note_on_c, 13, 60, 0
23, 70500, Note_on_c, 13, 60, 47
23, 70545, Note_on_c, 13, 60, 0
23, 70560, Note_on_c, 13, 59, 85
23, 70860, Note_on_c, 13, 59, 0
23, 70860, Note_on_c, 13, 59, 61
23, 70875, Note_on_c, 13, 59, 0
23, 70875, Note_on_c, 13, 60, 61
23, 70890, Note_on_c, 13, 60, 0
23, 70890, Note_on_c, 13, 57, 61
23, 70905, Note_on_c, 13, 57, 0
23, 70905, Note_on_c, 13, 59, 61
23, 70920, Note_on_c, 13, 59, 0
23, 70920, Note_on_c, 13, 60, 61
23, 70980, Note_on_c, 13, 60, 0
23, 70980, Note_on_c, 13, 57, 61
23, 71040, Note_on_c, 13, 57, 0
23, 71040, Note_on_c, 13, 67, 85
23, 71340, Note_on_c, 13, 67, 0
23, 71340, Note_on_c, 13, 67, 61
23, 71355, Note_on_c, 13, 67, 0
23, 71355, Note_on_c, 13, 69, 61
23, 71370, Note_on_c, 13, 69, 0
23, 71370, Note_on_c, 13, 66, 61
23, 71385, Note_on_c, 13, 66, 0
23, 71385, Note_on_c, 13, 67, 61
23, 71400, Note_on_c, 13, 67, 0
23, 71400, Note_on_c, 13, 69, 61
23, 71460, Note_on_c, 13, 69, 0
23, 71460, Note_on_c, 13, 66, 61
23, 71520, Note_on_c, 13, 66, 0
23, 71520, Note_on_c, 13, 71, 53
23, 71540, Note_on_c, 13, 71, 0
23, 71550, Note_on_c, 13, 71, 53
23, 71570, Note_on_c, 13, 71, 0
23, 71580, Note_on_c, 13, 71, 55
23, 71600, Note_on_c, 13, 71, 0
23, 71610, Note_on_c, 13, 71, 55
23, 71630, Note_on_c, 13, 71, 0
23, 71640, Note_on_c, 13, 71, 55
23, 71660, Note_on_c, 13, 71, 0
23, 71670, Note_on_c, 13, 71, 56
23, 71690, Note_on_c, 13, 71, 0
23, 71700, Note_on_c, 13, 71, 56
23, 71720, Note_on_c, 13, 71, 0
23, 71730, Note_on_c, 13, 71, 58
23, 71750, Note_on_c, 13, 71, 0
23, 71760, Note_on_c, 13, 72, 58
23, 71780, Note_on_c, 13, 72, 0
23, 71790, Note_on_c, 13, 72, 59
23, 71810, Note_on_c, 13, 72, 0
23, 71820, Note_on_c, 13, 72, 59
23, 71840, Note_on_c, 13, 72, 0
23, 71850, Note_on_c, 13, 72, 61
23, 71870, Note_on_c, 13, 72, 0
23, 71880, Note_on_c, 13, 74, 61
23, 71900, Note_on_c, 13, 74, 0
23, 71910, Note_on_c, 13, 74, 62
23, 71930, Note_on_c, 13, 74, 0
23, 71940, Note_on_c, 13, 74, 62
23, 71960, Note_on_c, 13, 74, 0
23, 71970, Note_on_c, 13, 74, 64
23, 71990, Note_on_c, 13, 74, 0
23, 72000, Note_on_c, 13, 71, 64
23, 72020, Note_on_c, 13, 71, 0
23, 72030, Note_on_c, 13, 71, 65
23, 72050, Note_on_c, 13, 71, 0
23, 72060, Note_on_c, 13, 71, 65
23, 72080, Note_on_c, 13, 71, 0
23, 72090, Note_on_c, 13, 71, 67
23, 72110, Note_on_c, 13, 71, 0
23, 72120, Note_on_c, 13, 74, 67
23, 72140, Note_on_c, 13, 74, 0
23, 72150, Note_on_c, 13, 74, 68
23, 72170, Note_on_c, 13, 74, 0
23, 72180, Note_on_c, 13, 74, 68
23, 72200, Note_on_c, 13, 74, 0
23, 72210, Note_on_c, 13, 74, 70
23, 72230, Note_on_c, 13, 74, 0
23, 72240, Note_on_c, 13, 74, 70
23, 72260, Note_on_c, 13, 74, 0
23, 72270, Note_on_c, 13, 74, 71
23, 72290, Note_on_c, 13, 74, 0
23, 72300, Note_on_c, 13, 74, 71
23, 72320, Note_on_c, 13, 74, 0
23, 72330, Note_on_c, 13, 74, 73
23, 72350, Note_on_c, 13, 74, 0
23, 72360, Note_on_c, 13, 79, 73
23, 72380, Note_on_c, 13, 79, 0
23, 72390, Note_on_c, 13, 79, 73
23, 72410, Note_on_c, 13, 79, 0
23, 72420, Note_on_c, 13, 79, 74
23, 72440, Note_on_c, 13, 79, 0
23, 72450, Note_on_c, 13, 79, 74
23, 72470, Note_on_c, 13, 79, 0
23, 72480, Note_on_c, 13, 78, 85
23, 72500, Note_on_c, 13, 78, 0
23, 72510, Note_on_c, 13, 78, 85
23, 72530, Note_on_c, 13, 78, 0
23, 72540, Note_on_c, 13, 78, 85
23, 72560, Note_on_c, 13, 78, 0
23, 72570, Note_on_c, 13, 78, 85
23, 72590, Note_on_c, 13, 78, 0
23, 72600, Note_on_c, 13, 78, 85
23, 72620, Note_on_c, 13, 78, 0
23, 72630, Note_on_c, 13, 78, 85
23, 72650, Note_on_c, 13, 78, 0
23, 72660, Note_on_c, 13, 78, 85
23, 72680, Note_on_c, 13, 78, 0
23, 72690, Note_on_c, 13, 78, 85
23, 72710, Note_on_c, 13, 78, 0
23, 72720, Note_on_c, 13, 79, 85
23, 72740, Note_on_c, 13, 79, 0
23, 72750, Note_on_c, 13, 79, 85
23, 72770, Note_on_c, 13, 79, 0
23, 72780, Note_on_c, 13, 79, 85
23, 72800, Note_on_c, 13, 79, 0
23, 72810, Note_on_c, 13, 79, 85
23, 72830, Note_on_c, 13, 79, 0
23, 72840, Note_on_c, 13, 79, 85
23, 72860, Note_on_c, 13, 79, 0
23, 72870, Note_on_c, 13, 79, 85
23, 72890, Note_on_c, 13, 79, 0
23, 72900, Note_on_c, 13, 79, 85
23, 72920, Note_on_c, 13, 79, 0
23, 72930, Note_on_c, 13, 79, 85
23, 72950, Note_on_c, 13, 79, 0
23, 72960, Note_on_c, 13, 78, 85
23, 72980, Note_on_c, 13, 78, 0
23, 72990, Note_on_c, 13, 78, 85
23, 73010, Note_on_c, 13, 78, 0
23, 73020, Note_on_c, 13, 78, 85
23, 73040, Note_on_c, 13, 78, 0
23, 73050, Note_on_c, 13, 78, 85
23, 73070, Note_on_c, 13, 78, 0
23, 73080, Note_on_c, 13, 78, 85
23, 73100, Note_on_c, 13, 78, 0
23, 73110, Note_on_c, 13, 78, 85
23, 73130, Note_on_c, 13, 78, 0
23, 73140, Note_on_c, 13, 78, 85
23, 73160, Note_on_c, 13, 78, 0
23, 73170, Note_on_c, 13, 78, 85
23, 73190, Note_on_c, 13, 78, 0
23, 73200, Note_on_c, 13, 79, 85
23, 73220, Note_on_c, 13, 79, 0
23, 73230, Note_on_c, 13, 79, 85
23, 73250, Note_on_c, 13, 79, 0
23, 73260, Note_on_c, 13, 79, 85
23, 73280, Note_on_c, 13, 79, 0
23, 73290, Note_on_c, 13, 79, 85
23, 73310, Note_on_c, 13, 79, 0
23, 73320, Note_on_c, 13, 79, 85
23, 73340, Note_on_c, 13, 79, 0
23, 73350, Note_on_c, 13, 79, 85
23, 73370, Note_on_c, 13, 79, 0
23, 73380, Note_on_c, 13, 79, 85
23, 73400, Note_on_c, 13, 79, 0
23, 73410, Note_on_c, 13, 79, 85
23, 73430, Note_on_c, 13, 79, 0
23, 73440, Note_on_c, 13, 78, 85
23, 73460, Note_on_c, 13, 78, 0
23, 73470, Note_on_c, 13, 78, 85
23, 73490, Note_on_c, 13, 78, 0
23, 73500, Note_on_c, 13, 78, 85
23, 73520, Note_on_c, 13, 78, 0
23, 73530, Note_on_c, 13, 78, 85
23, 73550, Note_on_c, 13, 78, 0
23, 73560, Note_on_c, 13, 79, 85
23, 73580, Note_on_c, 13, 79, 0
23, 73590, Note_on_c, 13, 79, 85
23, 73610, Note_on_c, 13, 79, 0
23, 73620, Note_on_c, 13, 79, 85
23, 73640, Note_on_c, 13, 79, 0
23, 73650, Note_on_c, 13, 79, 85
23, 73670, Note_on_c, 13, 79, 0
23, 73680, Note_on_c, 13, 78, 85
23, 73700, Note_on_c, 13, 78, 0
23, 73710, Note_on_c, 13, 78, 85
23, 73730, Note_on_c, 13, 78, 0
23, 73740, Note_on_c, 13, 78, 85
23, 73760, Note_on_c, 13, 78, 0
23, 73770, Note_on_c, 13, 78, 85
23, 73790, Note_on_c, 13, 78, 0
23, 73800, Note_on_c, 13, 79, 85
23, 73820, Note_on_c, 13, 79, 0
23, 73830, Note_on_c, 13, 79, 85
23, 73850, Note_on_c, 13, 79, 0
23, 73860, Note_on_c, 13, 79, 85
23, 73880, Note_on_c, 13, 79, 0
23, 73890, Note_on_c, 13, 79, 85
23, 73910, Note_on_c, 13, 79, 0
23, 73923, Note_on_c, 13, 78, 85
23, 73968, Note_on_c, 13, 78, 0
23, 73983, Note_on_c, 13, 62, 85
23, 74028, Note_on_c, 13, 62, 0
23, 74043, Note_on_c, 13, 62, 85
23, 74088, Note_on_c, 13, 62, 0
23, 74103, Note_on_c, 13, 62, 85
23, 74148, Note_on_c, 13, 62, 0
23, 74163, Note_on_c, 13, 62, 85
23, 74283, Note_on_c, 13, 62, 0
23, 74400, Note_on_c, 13, 62, 55
23, 74580, Note_on_c, 13, 62, 0
23, 74580, Note_on_c, 13, 60, 55
23, 74600, Note_on_c, 13, 60, 0
23, 74600, Note_on_c, 13, 59, 55
23, 74620, Note_on_c, 13, 59, 0
23, 74620, Note_on_c, 13, 57, 55
23, 74640, Note_on_c, 13, 57, 0
23, 74640, Note_on_c, 13, 55, 55
23, 74700, Note_on_c, 13, 55, 0
23, 74760, Note_on_c, 13, 64, 55
23, 74820, Note_on_c, 13, 64, 0
23, 74880, Note_on_c, 13, 60, 55
23, 74940, Note_on_c, 13, 60, 0
23, 75000, Note_on_c, 13, 57, 55
23, 75060, Note_on_c, 13, 57, 0
23, 75120, Note_on_c, 13, 62, 55
23, 75180, Note_on_c, 13, 62, 0
23, 75360, Note_on_c, 13, 71, 55
23, 75540, Note_on_c, 13, 71, 0
23, 75540, Note_on_c, 13, 69, 55
23, 75560, Note_on_c, 13, 69, 0
23, 75560, Note_on_c, 13, 67, 55
23, 75580, Note_on_c, 13, 67, 0
23, 75580, Note_on_c, 13, 66, 55
23, 75600, Note_on_c, 13, 66, 0
23, 75600, Note_on_c, 13, 64, 55
23, 75660, Note_on_c, 13, 64, 0
23, 75720, Note_on_c, 13, 72, 55
23, 75780, Note_on_c, 13, 72, 0
23, 75840, Note_on_c, 13, 71, 55
23, 76080, Note_on_c, 13, 71, 0
23, 76080, Note_on_c, 13, 69, 55
23, 76200, Note_on_c, 13, 69, 0
23, 76320, Note_on_c, 13, 74, 55
23, 76500, Note_on_c, 13, 74, 0
23, 76500, Note_on_c, 13, 72, 55
23, 76520, Note_on_c, 13, 72, 0
23, 76520, Note_on_c, 13, 71, 55
23, 76540, Note_on_c, 13, 71, 0
23, 76540, Note_on_c, 13, 69, 55
23, 76560, Note_on_c, 13, 69, 0
23, 76560, Note_on_c, 13, 67, 55
23, 76620, Note_on_c, 13, 67, 0
23, 76680, Note_on_c, 13, 76, 55
23, 76740, Note_on_c, 13, 76, 0
23, 76800, Note_on_c, 13, 72, 55
23, 76860, Note_on_c, 13, 72, 0
23, 76920, Note_on_c, 13, 69, 55
23, 76980, Note_on_c, 13, 69, 0
23, 77040, Note_on_c, 13, 74, 55
23, 77100, Note_on_c, 13, 74, 0
23, 77205, Note_on_c, 13, 72, 55
23, 77250, Note_on_c, 13, 72, 0
23, 77280, Note_on_c, 13, 72, 55
23, 77340, Note_on_c, 13, 72, 0
23, 77340, Note_on_c, 13, 71, 55
23, 77400, Note_on_c, 13, 71, 0
23, 77460, Note_on_c, 13, 72, 55
23, 77490, Note_on_c, 13, 72, 0
23, 77520, Note_on_c, 13, 72, 55
23, 77580, Note_on_c, 13, 72, 0
23, 77580, Note_on_c, 13, 71, 55
23, 77640, Note_on_c, 13, 71, 0
23, 77700, Note_on_c, 13, 60, 55
23, 77745, Note_on_c, 13, 60, 0
23, 77760, Note_on_c, 13, 59, 55
23, 77805, Note_on_c, 13, 59, 0
23, 77820, Note_on_c, 13, 59, 55
23, 77865, Note_on_c, 13, 59, 0
23, 77880, Note_on_c, 13, 60, 55
23, 77925, Note_on_c, 13, 60, 0
23, 77940, Note_on_c, 13, 60, 55
23, 77985, Note_on_c, 13, 60, 0
23, 78000, Note_on_c, 13, 62, 55
23, 78045, Note_on_c, 13, 62, 0
23, 78060, Note_on_c, 13, 62, 55
23, 78105, Note_on_c, 13, 62, 0
23, 78120, Note_on_c, 13, 59, 55
23, 78165, Note_on_c, 13, 59, 0
23, 78180, Note_on_c, 13, 59, 55
23, 78225, Note_on_c, 13, 59, 0
23, 78240, Note_on_c, 13, 57, 55
23, 78285, Note_on_c, 13, 57, 0
23, 78300, Note_on_c, 13, 57, 55
23, 78345, Note_on_c, 13, 57, 0
23, 78360, Note_on_c, 13, 59, 55
23, 78405, Note_on_c, 13, 59, 0
23, 78420, Note_on_c, 13, 59, 55
23, 78465, Note_on_c, 13, 59, 0
23, 78480, Note_on_c, 13, 60, 55
23, 78525, Note_on_c, 13, 60, 0
23, 78540, Note_on_c, 13, 60, 55
23, 78585, Note_on_c, 13, 60, 0
23, 78600, Note_on_c, 13, 57, 55
23, 78645, Note_on_c, 13, 57, 0
23, 78660, Note_on_c, 13, 57, 55
23, 78705, Note_on_c, 13, 57, 0
23, 78720, Note_on_c, 13, 59, 55
23, 78765, Note_on_c, 13, 59, 0
23, 78780, Note_on_c, 13, 59, 55
23, 78825, Note_on_c, 13, 59, 0
23, 78840, Note_on_c, 13, 60, 55
23, 78885, Note_on_c, 13, 60, 0
23, 78900, Note_on_c, 13, 60, 55
23, 78945, Note_on_c, 13, 60, 0
23, 78960, Note_on_c, 13, 62, 55
23, 79005, Note_on_c, 13, 62, 0
23, 79020, Note_on_c, 13, 62, 55
23, 79065, Note_on_c, 13, 62, 0
23, 79080, Note_on_c, 13, 59, 55
23, 79125, Note_on_c, 13, 59, 0
23, 79140, Note_on_c, 13, 59, 55
23, 79185, Note_on_c, 13, 59, 0
23, 79200, Note_on_c, 13, 57, 55
23, 79245, Note_on_c, 13, 57, 0
23, 79260, Note_on_c, 13, 57, 55
23, 79305, Note_on_c, 13, 57, 0
23, 79320, Note_on_c, 13, 59, 55
23, 79365, Note_on_c, 13, 59, 0
23, 79380, Note_on_c, 13, 59, 55
23, 79425, Note_on_c, 13, 59, 0
23, 79440, Note_on_c, 13, 60, 55
23, 79485, Note_on_c, 13, 60, 0
23, 79500, Note_on_c, 13, 60, 55
23, 79545, Note_on_c, 13, 60, 0
23, 79560, Note_on_c, 13, 57, 55
23, 79605, Note_on_c, 13, 57, 0
23, 79620, Note_on_c, 13, 57, 55
23, 79665, Note_on_c, 13, 57, 0
23, 79680, Note_on_c, 13, 59, 55
23, 79800, Note_on_c, 13, 59, 0
23, 79920, Note_on_c, 13, 71, 85
23, 79920, Note_on_c, 13, 64, 85
23, 80160, Note_on_c, 13, 64, 0
23, 80160, Note_on_c, 13, 71, 0
23, 80160, Note_on_c, 13, 69, 85
23, 80280, Note_on_c, 13, 69, 0
23, 80400, Note_on_c, 13, 62, 85
23, 80400, Note_on_c, 13, 69, 85
23, 80640, Note_on_c, 13, 69, 0
23, 80640, Note_on_c, 13, 62, 0
23, 80640, Note_on_c, 13, 67, 85
23, 80685, Note_on_c, 13, 67, 0
23, 80700, Note_on_c, 13, 71, 85
23, 80730, Note_on_c, 13, 71, 0
23, 80760, Note_on_c, 13, 72, 85
23, 80790, Note_on_c, 13, 72, 0
23, 80820, Note_on_c, 13, 74, 85
23, 80850, Note_on_c, 13, 74, 0
23, 80880, Note_on_c, 13, 72, 85
23, 80940, Note_on_c, 13, 72, 0
23, 80940, Note_on_c, 13, 74, 85
23, 80970, Note_on_c, 13, 74, 0
23, 80970, Note_on_c, 13, 76, 85
23, 81000, Note_on_c, 13, 76, 0
23, 81000, Note_on_c, 13, 74, 85
23, 81045, Note_on_c, 13, 74, 0
23, 81060, Note_on_c, 13, 72, 85
23, 81090, Note_on_c, 13, 72, 0
23, 81120, Note_on_c, 13, 72, 85
23, 81180, Note_on_c, 13, 72, 0
23, 81180, Note_on_c, 13, 71, 85
23, 81225, Note_on_c, 13, 71, 0
23, 81240, Note_on_c, 13, 67, 85
23, 81270, Note_on_c, 13, 67, 0
23, 81300, Note_on_c, 13, 71, 85
23, 81330, Note_on_c, 13, 71, 0
23, 81360, Note_on_c, 13, 71, 85
23, 81420, Note_on_c, 13, 71, 0
23, 81420, Note_on_c, 13, 69, 85
23, 81465, Note_on_c, 13, 69, 0
23, 81480, Note_on_c, 13, 67, 85
23, 81510, Note_on_c, 13, 67, 0
23, 81540, Note_on_c, 13, 66, 85
23, 81570, Note_on_c, 13, 66, 0
23, 81600, Note_on_c, 13, 67, 85
23, 81645, Note_on_c, 13, 67, 0
23, 81660, Note_on_c, 13, 59, 53
23, 81705, Note_on_c, 13, 59, 0
23, 81720, Note_on_c, 13, 60, 53
23, 81765, Note_on_c, 13, 60, 0
23, 81780, Note_on_c, 13, 60, 53
23, 81825, Note_on_c, 13, 60, 0
23, 81840, Note_on_c, 13, 62, 53
23, 81885, Note_on_c, 13, 62, 0
23, 81900, Note_on_c, 13, 62, 53
23, 81945, Note_on_c, 13, 62, 0
23, 81960, Note_on_c, 13, 59, 53
23, 82005, Note_on_c, 13, 59, 0
23, 82020, Note_on_c, 13, 59, 53
23, 82065, Note_on_c, 13, 59, 0
23, 82080, Note_on_c, 13, 57, 55
23, 82125, Note_on_c, 13, 57, 0
23, 82140, Note_on_c, 13, 57, 55
23, 82185, Note_on_c, 13, 57, 0
23, 82200, Note_on_c, 13, 59, 55
23, 82245, Note_on_c, 13, 59, 0
23, 82260, Note_on_c, 13, 59, 55
23, 82305, Note_on_c, 13, 59, 0
23, 82320, Note_on_c, 13, 60, 55
23, 82365, Note_on_c, 13, 60, 0
23, 82380, Note_on_c, 13, 60, 55
23, 82425, Note_on_c, 13, 60, 0
23, 82440, Note_on_c, 13, 57, 55
23, 82485, Note_on_c, 13, 57, 0
23, 82500, Note_on_c, 13, 57, 55
23, 82545, Note_on_c, 13, 57, 0
23, 82560, Note_on_c, 13, 59, 55
23, 82605, Note_on_c, 13, 59, 0
23, 82620, Note_on_c, 13, 71, 55
23, 82665, Note_on_c, 13, 71, 0
23, 82680, Note_on_c, 13, 72, 55
23, 82725, Note_on_c, 13, 72, 0
23, 82740, Note_on_c, 13, 72, 55
23, 82785, Note_on_c, 13, 72, 0
23, 82800, Note_on_c, 13, 74, 55
23, 82845, Note_on_c, 13, 74, 0
23, 82860, Note_on_c, 13, 74, 55
23, 82905, Note_on_c, 13, 74, 0
23, 82920, Note_on_c, 13, 71, 55
23, 82965, Note_on_c, 13, 71, 0
23, 82980, Note_on_c, 13, 71, 55
23, 83025, Note_on_c, 13, 71, 0
23, 83040, Note_on_c, 13, 69, 55
23, 83085, Note_on_c, 13, 69, 0
23, 83100, Note_on_c, 13, 69, 55
23, 83145, Note_on_c, 13, 69, 0
23, 83160, Note_on_c, 13, 71, 55
23, 83205, Note_on_c, 13, 71, 0
23, 83220, Note_on_c, 13, 71, 55
23, 83265, Note_on_c, 13, 71, 0
23, 83280, Note_on_c, 13, 72, 55
23, 83325, Note_on_c, 13, 72, 0
23, 83340, Note_on_c, 13, 72, 55
23, 83385, Note_on_c, 13, 72, 0
23, 83400, Note_on_c, 13, 69, 55
23, 83445, Note_on_c, 13, 69, 0
23, 83460, Note_on_c, 13, 69, 55
23, 83505, Note_on_c, 13, 69, 0
23, 83520, Note_on_c, 13, 71, 58
23, 83640, Note_on_c, 13, 71, 0
23, 83760, Note_on_c, 13, 83, 85
23, 84000, Note_on_c, 13, 83, 0
23, 84000, Note_on_c, 13, 81, 85
23, 84120, Note_on_c, 13, 81, 0
23, 84240, Note_on_c, 13, 81, 85
23, 84480, Note_on_c, 13, 81, 0
23, 84480, Note_on_c, 13, 79, 85
23, 84525, Note_on_c, 13, 79, 0
23, 84540, Note_on_c, 13, 71, 85
23, 84570, Note_on_c, 13, 71, 0
23, 84600, Note_on_c, 13, 72, 85
23, 84630, Note_on_c, 13, 72, 0
23, 84660, Note_on_c, 13, 74, 85
23, 84690, Note_on_c, 13, 74, 0
23, 84720, Note_on_c, 13, 72, 85
23, 84780, Note_on_c, 13, 72, 0
23, 84780, Note_on_c, 13, 74, 85
23, 84810, Note_on_c, 13, 74, 0
23, 84810, Note_on_c, 13, 76, 85
23, 84840, Note_on_c, 13, 76, 0
23, 84840, Note_on_c, 13, 74, 85
23, 84885, Note_on_c, 13, 74, 0
23, 84900, Note_on_c, 13, 72, 85
23, 84930, Note_on_c, 13, 72, 0
23, 84960, Note_on_c, 13, 71, 85
23, 84990, Note_on_c, 13, 71, 0
23, 85020, Note_on_c, 13, 74, 85
23, 85050, Note_on_c, 13, 74, 0
23, 85080, Note_on_c, 13, 79, 85
23, 85110, Note_on_c, 13, 79, 0
23, 85140, Note_on_c, 13, 83, 85
23, 85170, Note_on_c, 13, 83, 0
23, 85200, Note_on_c, 13, 83, 85
23, 85260, Note_on_c, 13, 83, 0
23, 85260, Note_on_c, 13, 81, 85
23, 85305, Note_on_c, 13, 81, 0
23, 85320, Note_on_c, 13, 79, 85
23, 85350, Note_on_c, 13, 79, 0
23, 85380, Note_on_c, 13, 78, 85
23, 85410, Note_on_c, 13, 78, 0
23, 85442, Note_on_c, 13, 79, 85
23, 85487, Note_on_c, 13, 79, 0
23, 85502, Note_on_c, 13, 62, 85
23, 85547, Note_on_c, 13, 62, 0
23, 85562, Note_on_c, 13, 64, 85
23, 85607, Note_on_c, 13, 64, 0
23, 85622, Note_on_c, 13, 66, 85
23, 85667, Note_on_c, 13, 66, 0
23, 85682, Note_on_c, 13, 67, 85
23, 85727, Note_on_c, 13, 67, 0
23, 85742, Note_on_c, 13, 67, 85
23, 85787, Note_on_c, 13, 67, 0
23, 85802, Note_on_c, 13, 69, 85
23, 85817, Note_on_c, 13, 69, 0
23, 85817, Note_on_c, 13, 71, 85
23, 85832, Note_on_c, 13, 71, 0
23, 85832, Note_on_c, 13, 69, 85
23, 85847, Note_on_c, 13, 69, 0
23, 85847, Note_on_c, 13, 71, 85
23, 85862, Note_on_c, 13, 71, 0
23, 85862, Note_on_c, 13, 67, 85
23, 85892, Note_on_c, 13, 67, 0
23, 85892, Note_on_c, 13, 69, 85
23, 85922, Note_on_c, 13, 69, 0
23, 85922, Note_on_c, 13, 71, 85
23, 85967, Note_on_c, 13, 71, 0
23, 85982, Note_on_c, 13, 66, 85
23, 86027, Note_on_c, 13, 66, 0
23, 86042, Note_on_c, 13, 67, 85
23, 86087, Note_on_c, 13, 67, 0
23, 86102, Note_on_c, 13, 69, 85
23, 86147, Note_on_c, 13, 69, 0
23, 86162, Note_on_c, 13, 71, 85
23, 86207, Note_on_c, 13, 71, 0
23, 86222, Note_on_c, 13, 71, 85
23, 86267, Note_on_c, 13, 71, 0
23, 86282, Note_on_c, 13, 72, 85
23, 86297, Note_on_c, 13, 72, 0
23, 86297, Note_on_c, 13, 74, 85
23, 86312, Note_on_c, 13, 74, 0
23, 86312, Note_on_c, 13, 72, 85
23, 86327, Note_on_c, 13, 72, 0
23, 86327, Note_on_c, 13, 74, 85
23, 86342, Note_on_c, 13, 74, 0
23, 86342, Note_on_c, 13, 71, 85
23, 86372, Note_on_c, 13, 71, 0
23, 86372, Note_on_c, 13, 72, 85
23, 86400, Note_on_c, 13, 74, 85
23, 86402, Note_on_c, 13, 72, 0
23, 86445, Note_on_c, 13, 74, 0
23, 86460, Note_on_c, 13, 74, 85
23, 86505, Note_on_c, 13, 74, 0
23, 86520, Note_on_c, 13, 75, 85
23, 86535, Note_on_c, 13, 75, 0
23, 86535, Note_on_c, 13, 76, 85
23, 86550, Note_on_c, 13, 76, 0
23, 86550, Note_on_c, 13, 75, 85
23, 86565, Note_on_c, 13, 75, 0
23, 86565, Note_on_c, 13, 76, 85
23, 86580, Note_on_c, 13, 76, 0
23, 86580, Note_on_c, 13, 73, 85
23, 86610, Note_on_c, 13, 73, 0
23, 86610, Note_on_c, 13, 75, 85
23, 86640, Note_on_c, 13, 75, 0
23, 86640, Note_on_c, 13, 76, 85
23, 86760, Note_on_c, 13, 76, 0
23, 86880, Note_on_c, 13, 60, 70
23, 87360, Note_on_c, 13, 60, 0
23, 87360, Note_on_c, 13, 59, 70
23, 87480, Note_on_c, 13, 59, 0
23, 87840, Note_on_c, 13, 60, 70
23, 88320, Note_on_c, 13, 60, 0
23, 88320, Note_on_c, 13, 59, 70
23, 88440, Note_on_c, 13, 59, 0
23, 88560, Note_on_c, 13, 71, 70
23, 88680, Note_on_c, 13, 71, 0
23, 88800, Note_on_c, 13, 76, 92
23, 88920, Note_on_c, 13, 76, 0
23, 89040, Note_on_c, 13, 72, 106
23, 89040, Note_on_c, 13, 78, 106
23, 89160, Note_on_c, 13, 78, 0
23, 89160, Note_on_c, 13, 72, 0
23, 89280, Note_on_c, 13, 59, 95
23, 89280, Note_on_c, 13, 62, 95
23, 89300, Note_on_c, 13, 62, 0
23, 89300, Note_on_c, 13, 59, 0
23, 89310, Note_on_c, 13, 59, 95
23, 89310, Note_on_c, 13, 62, 95
23, 89330, Note_on_c, 13, 62, 0
23, 89330, Note_on_c, 13, 59, 0
23, 89340, Note_on_c, 13, 59, 95
23, 89340, Note_on_c, 13, 62, 95
23, 89360, Note_on_c, 13, 62, 0
23, 89360, Note_on_c, 13, 59, 0
23, 89370, Note_on_c, 13, 59, 95
23, 89370, Note_on_c, 13, 62, 95
23, 89390, Note_on_c, 13, 62, 0
23, 89390, Note_on_c, 13, 59, 0
23, 89400, Note_on_c, 13, 59, 95
23, 89400, Note_on_c, 13, 62, 95
23, 89420, Note_on_c, 13, 62, 0
23, 89420, Note_on_c, 13, 59, 0
23, 89430, Note_on_c, 13, 59, 94
23, 89430, Note_on_c, 13, 62, 94
23, 89450, Note_on_c, 13, 62, 0
23, 89450, Note_on_c, 13, 59, 0
23, 89460, Note_on_c, 13, 59, 94
23, 89460, Note_on_c, 13, 62, 94
23, 89480, Note_on_c, 13, 62, 0
23, 89480, Note_on_c, 13, 59, 0
23, 89490, Note_on_c, 13, 59, 94
23, 89490, Note_on_c, 13, 62, 94
23, 89510, Note_on_c, 13, 62, 0
23, 89510, Note_on_c, 13, 59, 0
23, 89520, Note_on_c, 13, 59, 94
23, 89520, Note_on_c, 13, 62, 94
23, 89540, Note_on_c, 13, 62, 0
23, 89540, Note_on_c, 13, 59, 0
23, 89550, Note_on_c, 13, 59, 94
23, 89550, Note_on_c, 13, 62, 94
23, 89570, Note_on_c, 13, 62, 0
23, 89570, Note_on_c, 13, 59, 0
23, 89580, Note_on_c, 13, 59, 94
23, 89580, Note_on_c, 13, 62, 94
23, 89600, Note_on_c, 13, 62, 0
23, 89600, Note_on_c, 13, 59, 0
23, 89610, Note_on_c, 13, 59, 94
23, 89610, Note_on_c, 13, 62, 94
23, 89630, Note_on_c, 13, 62, 0
23, 89630, Note_on_c, 13, 59, 0
23, 89640, Note_on_c, 13, 59, 94
23, 89640, Note_on_c, 13, 62, 94
23, 89660, Note_on_c, 13, 62, 0
23, 89660, Note_on_c, 13, 59, 0
23, 89670, Note_on_c, 13, 59, 94
23, 89670, Note_on_c, 13, 62, 94
23, 89690, Note_on_c, 13, 62, 0
23, 89690, Note_on_c, 13, 59, 0
23, 89700, Note_on_c, 13, 59, 94
23, 89700, Note_on_c, 13, 62, 94
23, 89720, Note_on_c, 13, 62, 0
23, 89720, Note_on_c, 13, 59, 0
23, 89730, Note_on_c, 13, 59, 94
23, 89730, Note_on_c, 13, 62, 94
23, 89750, Note_on_c, 13, 62, 0
23, 89750, Note_on_c, 13, 59, 0
23, 89760, Note_on_c, 13, 59, 94
23, 89760, Note_on_c, 13, 62, 94
23, 89780, Note_on_c, 13, 62, 0
23, 89780, Note_on_c, 13, 59, 0
23, 89790, Note_on_c, 13, 59, 94
23, 89790, Note_on_c, 13, 62, 94
23, 89810, Note_on_c, 13, 62, 0
23, 89810, Note_on_c, 13, 59, 0
23, 89820, Note_on_c, 13, 59, 94
23, 89820, Note_on_c, 13, 62, 94
23, 89840, Note_on_c, 13, 62, 0
23, 89840, Note_on_c, 13, 59, 0
23, 89850, Note_on_c, 13, 59, 94
23, 89850, Note_on_c, 13, 62, 94
23, 89870, Note_on_c, 13, 62, 0
23, 89870, Note_on_c, 13, 59, 0
23, 89880, Note_on_c, 13, 59, 94
23, 89880, Note_on_c, 13, 62, 94
23, 89900, Note_on_c, 13, 62, 0
23, 89900, Note_on_c, 13, 59, 0
23, 89910, Note_on_c, 13, 59, 93
23, 89910, Note_on_c, 13, 62, 93
23, 89930, Note_on_c, 13, 62, 0
23, 89930, Note_on_c, 13, 59, 0
23, 89940, Note_on_c, 13, 59, 93
23, 89940, Note_on_c, 13, 62, 93
23, 89960, Note_on_c, 13, 62, 0
23, 89960, Note_on_c, 13, 59, 0
23, 89970, Note_on_c, 13, 59, 91
23, 89970, Note_on_c, 13, 62, 91
23, 89990, Note_on_c, 13, 62, 0
23, 89990, Note_on_c, 13, 59, 0
23, 90000, Note_on_c, 13, 59, 90
23, 90000, Note_on_c, 13, 62, 90
23, 90020, Note_on_c, 13, 62, 0
23, 90020, Note_on_c, 13, 59, 0
23, 90030, Note_on_c, 13, 59, 90
23, 90030, Note_on_c, 13, 62, 90
23, 90050, Note_on_c, 13, 62, 0
23, 90050, Note_on_c, 13, 59, 0
23, 90060, Note_on_c, 13, 59, 90
23, 90060, Note_on_c, 13, 62, 90
23, 90080, Note_on_c, 13, 62, 0
23, 90080, Note_on_c, 13, 59, 0
23, 90090, Note_on_c, 13, 59, 90
23, 90090, Note_on_c, 13, 62, 90
23, 90110, Note_on_c, 13, 62, 0
23, 90110, Note_on_c, 13, 59, 0
23, 90120, Note_on_c, 13, 60, 90
23, 90120, Note_on_c, 13, 62, 90
23, 90140, Note_on_c, 13, 62, 0
23, 90140, Note_on_c, 13, 60, 0
23, 90150, Note_on_c, 13, 60, 89
23, 90150, Note_on_c, 13, 62, 89
23, 90170, Note_on_c, 13, 62, 0
23, 90170, Note_on_c, 13, 60, 0
23, 90180, Note_on_c, 13, 60, 89
23, 90180, Note_on_c, 13, 62, 89
23, 90200, Note_on_c, 13, 62, 0
23, 90200, Note_on_c, 13, 60, 0
23, 90210, Note_on_c, 13, 60, 89
23, 90210, Note_on_c, 13, 62, 89
23, 90230, Note_on_c, 13, 62, 0
23, 90230, Note_on_c, 13, 60, 0
23, 90240, Note_on_c, 13, 59, 89
23, 90240, Note_on_c, 13, 62, 89
23, 90260, Note_on_c, 13, 62, 0
23, 90260, Note_on_c, 13, 59, 0
23, 90270, Note_on_c, 13, 59, 89
23, 90270, Note_on_c, 13, 62, 89
23, 90290, Note_on_c, 13, 62, 0
23, 90290, Note_on_c, 13, 59, 0
23, 90300, Note_on_c, 13, 59, 89
23, 90300, Note_on_c, 13, 62, 89
23, 90320, Note_on_c, 13, 62, 0
23, 90320, Note_on_c, 13, 59, 0
23, 90330, Note_on_c, 13, 59, 90
23, 90330, Note_on_c, 13, 62, 90
23, 90350, Note_on_c, 13, 62, 0
23, 90350, Note_on_c, 13, 59, 0
23, 90360, Note_on_c, 13, 59, 90
23, 90360, Note_on_c, 13, 62, 90
23, 90380, Note_on_c, 13, 62, 0
23, 90380, Note_on_c, 13, 59, 0
23, 90390, Note_on_c, 13, 59, 90
23, 90390, Note_on_c, 13, 62, 90
23, 90410, Note_on_c, 13, 62, 0
23, 90410, Note_on_c, 13, 59, 0
23, 90420, Note_on_c, 13, 59, 92
23, 90420, Note_on_c, 13, 62, 92
23, 90440, Note_on_c, 13, 62, 0
23, 90440, Note_on_c, 13, 59, 0
23, 90450, Note_on_c, 13, 59, 93
23, 90450, Note_on_c, 13, 62, 93
23, 90470, Note_on_c, 13, 62, 0
23, 90470, Note_on_c, 13, 59, 0
23, 90480, Note_on_c, 13, 59, 94
23, 90480, Note_on_c, 13, 62, 94
23, 90500, Note_on_c, 13, 62, 0
23, 90500, Note_on_c, 13, 59, 0
23, 90510, Note_on_c, 13, 59, 95
23, 90510, Note_on_c, 13, 62, 95
23, 90530, Note_on_c, 13, 62, 0
23, 90530, Note_on_c, 13, 59, 0
23, 90540, Note_on_c, 13, 59, 96
23, 90540, Note_on_c, 13, 62, 96
23, 90560, Note_on_c, 13, 62, 0
23, 90560, Note_on_c, 13, 59, 0
23, 90570, Note_on_c, 13, 59, 96
23, 90570, Note_on_c, 13, 62, 96
23, 90590, Note_on_c, 13, 62, 0
23, 90590, Note_on_c, 13, 59, 0
23, 90600, Note_on_c, 13, 59, 96
23, 90600, Note_on_c, 13, 62, 96
23, 90620, Note_on_c, 13, 62, 0
23, 90620, Note_on_c, 13, 59, 0
23, 90630, Note_on_c, 13, 59, 96
23, 90630, Note_on_c, 13, 62, 96
23, 90650, Note_on_c, 13, 62, 0
23, 90650, Note_on_c, 13, 59, 0
23, 90660, Note_on_c, 13, 59, 95
23, 90660, Note_on_c, 13, 62, 95
23, 90680, Note_on_c, 13, 62, 0
23, 90680, Note_on_c, 13, 59, 0
23, 90690, Note_on_c, 13, 59, 94
23, 90690, Note_on_c, 13, 62, 94
23, 90710, Note_on_c, 13, 62, 0
23, 90710, Note_on_c, 13, 59, 0
23, 90720, Note_on_c, 13, 59, 94
23, 90720, Note_on_c, 13, 62, 94
23, 90740, Note_on_c, 13, 62, 0
23, 90740, Note_on_c, 13, 59, 0
23, 90750, Note_on_c, 13, 59, 93
23, 90750, Note_on_c, 13, 62, 93
23, 90770, Note_on_c, 13, 62, 0
23, 90770, Note_on_c, 13, 59, 0
23, 90780, Note_on_c, 13, 59, 93
23, 90780, Note_on_c, 13, 62, 93
23, 90800, Note_on_c, 13, 62, 0
23, 90800, Note_on_c, 13, 59, 0
23, 90810, Note_on_c, 13, 59, 93
23, 90810, Note_on_c, 13, 62, 93
23, 90830, Note_on_c, 13, 62, 0
23, 90830, Note_on_c, 13, 59, 0
23, 90840, Note_on_c, 13, 59, 92
23, 90840, Note_on_c, 13, 62, 92
23, 90860, Note_on_c, 13, 62, 0
23, 90860, Note_on_c, 13, 59, 0
23, 90870, Note_on_c, 13, 59, 91
23, 90870, Note_on_c, 13, 62, 91
23, 90890, Note_on_c, 13, 62, 0
23, 90890, Note_on_c, 13, 59, 0
23, 90900, Note_on_c, 13, 59, 90
23, 90900, Note_on_c, 13, 62, 90
23, 90920, Note_on_c, 13, 62, 0
23, 90920, Note_on_c, 13, 59, 0
23, 90930, Note_on_c, 13, 59, 90
23, 90930, Note_on_c, 13, 62, 90
23, 90950, Note_on_c, 13, 62, 0
23, 90950, Note_on_c, 13, 59, 0
23, 90960, Note_on_c, 13, 59, 90
23, 90960, Note_on_c, 13, 62, 90
23, 90980, Note_on_c, 13, 62, 0
23, 90980, Note_on_c, 13, 59, 0
23, 90990, Note_on_c, 13, 59, 90
23, 90990, Note_on_c, 13, 62, 90
23, 91010, Note_on_c, 13, 62, 0
23, 91010, Note_on_c, 13, 59, 0
23, 91020, Note_on_c, 13, 59, 90
23, 91020, Note_on_c, 13, 62, 90
23, 91040, Note_on_c, 13, 62, 0
23, 91040, Note_on_c, 13, 59, 0
23, 91050, Note_on_c, 13, 59, 90
23, 91050, Note_on_c, 13, 62, 90
23, 91070, Note_on_c, 13, 62, 0
23, 91070, Note_on_c, 13, 59, 0
23, 91080, Note_on_c, 13, 60, 91
23, 91080, Note_on_c, 13, 62, 91
23, 91100, Note_on_c, 13, 62, 0
23, 91100, Note_on_c, 13, 60, 0
23, 91110, Note_on_c, 13, 60, 94
23, 91110, Note_on_c, 13, 62, 94
23, 91130, Note_on_c, 13, 62, 0
23, 91130, Note_on_c, 13, 60, 0
23, 91140, Note_on_c, 13, 60, 95
23, 91140, Note_on_c, 13, 62, 95
23, 91160, Note_on_c, 13, 62, 0
23, 91160, Note_on_c, 13, 60, 0
23, 91170, Note_on_c, 13, 60, 98
23, 91170, Note_on_c, 13, 62, 98
23, 91190, Note_on_c, 13, 62, 0
23, 91190, Note_on_c, 13, 60, 0
23, 91200, Note_on_c, 13, 62, 98
23, 91200, Note_on_c, 13, 59, 98
23, 91320, Note_on_c, 13, 59, 0
23, 91320, Note_on_c, 13, 62, 0
23, 91440, Note_on_c, 13, 79, 103
23, 91440, Note_on_c, 13, 71, 103
23, 91440, Note_on_c, 13, 62, 103
23, 91560, Note_on_c, 13, 62, 0
23, 91560, Note_on_c, 13, 71, 0
23, 91560, Note_on_c, 13, 79, 0
23, 91682, Note_on_c, 13, 62, 103
23, 91682, Note_on_c, 13, 71, 103
23, 91682, Note_on_c, 13, 79, 103
23, 91782, Note_on_c, 13, 79, 0
23, 91782, Note_on_c, 13, 71, 0
23, 91782, Note_on_c, 13, 62, 0
23, 91802, Note_on_c, 13, 55, 103
23, 91802, Note_on_c, 13, 67, 103
23, 91862, Note_on_c, 13, 67, 0
23, 91862, Note_on_c, 13, 55, 0
23, 91892, Note_on_c, 13, 55, 103
23, 91892, Note_on_c, 13, 67, 103
23, 91907, Note_on_c, 13, 67, 0
23, 91907, Note_on_c, 13, 55, 0
23, 91922, Note_on_c, 13, 55, 103
23, 91922, Note_on_c, 13, 67, 103
23, 92042, Note_on_c, 13, 67, 0
23, 92042, Note_on_c, 13, 55, 0
23, 92042, End_track
24, 0, Start_track
24, 0, MIDI_port, 0
24, 0, Program_c, 14, 69
24, 0, Control_c, 14, 7, 105
24, 0, Control_c, 14, 10, 72
24, 0, Note_on_c, 14, 55, 85
24, 120, Note_on_c, 14, 55, 0
24, 180, Note_on_c, 14, 50, 85
24, 210, Note_on_c, 14, 50, 0
24, 240, Note_on_c, 14, 55, 85
24, 360, Note_on_c, 14, 55, 0
24, 420, Note_on_c, 14, 50, 85
24, 450, Note_on_c, 14, 50, 0
24, 480, Note_on_c, 14, 55, 85
24, 510, Note_on_c, 14, 55, 0
24, 540, Note_on_c, 14, 50, 85
24, 570, Note_on_c, 14, 50, 0
24, 600, Note_on_c, 14, 55, 85
24, 630, Note_on_c, 14, 55, 0
24, 660, Note_on_c, 14, 59, 85
24, 690, Note_on_c, 14, 59, 0
24, 720, Note_on_c, 14, 62, 85
24, 840, Note_on_c, 14, 62, 0
24, 960, Note_on_c, 14, 60, 85
24, 1080, Note_on_c, 14, 60, 0
24, 1140, Note_on_c, 14, 57, 85
24, 1170, Note_on_c, 14, 57, 0
24, 1200, Note_on_c, 14, 60, 85
24, 1320, Note_on_c, 14, 60, 0
24, 1380, Note_on_c, 14, 57, 85
24, 1410, Note_on_c, 14, 57, 0
24, 1440, Note_on_c, 14, 60, 85
24, 1470, Note_on_c, 14, 60, 0
24, 1500, Note_on_c, 14, 57, 85
24, 1530, Note_on_c, 14, 57, 0
24, 1560, Note_on_c, 14, 54, 85
24, 1590, Note_on_c, 14, 54, 0
24, 1620, Note_on_c, 14, 57, 85
24, 1650, Note_on_c, 14, 57, 0
24, 1680, Note_on_c, 14, 50, 85
24, 1800, Note_on_c, 14, 50, 0
24, 1920, Note_on_c, 14, 55, 85
24, 1965, Note_on_c, 14, 55, 0
24, 1980, Note_on_c, 14, 55, 85
24, 2025, Note_on_c, 14, 55, 0
24, 2040, Note_on_c, 14, 55, 85
24, 2085, Note_on_c, 14, 55, 0
24, 2100, Note_on_c, 14, 55, 85
24, 2145, Note_on_c, 14, 55, 0
24, 2160, Note_on_c, 14, 55, 85
24, 2205, Note_on_c, 14, 55, 0
24, 2220, Note_on_c, 14, 55, 85
24, 2265, Note_on_c, 14, 55, 0
24, 2280, Note_on_c, 14, 55, 85
24, 2325, Note_on_c, 14, 55, 0
24, 2340, Note_on_c, 14, 55, 85
24, 2385, Note_on_c, 14, 55, 0
24, 2400, Note_on_c, 14, 55, 85
24, 2445, Note_on_c, 14, 55, 0
24, 2460, Note_on_c, 14, 55, 85
24, 2505, Note_on_c, 14, 55, 0
24, 2520, Note_on_c, 14, 55, 85
24, 2565, Note_on_c, 14, 55, 0
24, 2580, Note_on_c, 14, 55, 85
24, 2625, Note_on_c, 14, 55, 0
24, 2640, Note_on_c, 14, 55, 85
24, 2685, Note_on_c, 14, 55, 0
24, 2700, Note_on_c, 14, 55, 85
24, 2745, Note_on_c, 14, 55, 0
24, 2760, Note_on_c, 14, 55, 85
24, 2805, Note_on_c, 14, 55, 0
24, 2820, Note_on_c, 14, 55, 85
24, 2865, Note_on_c, 14, 55, 0
24, 2880, Note_on_c, 14, 55, 85
24, 2925, Note_on_c, 14, 55, 0
24, 2940, Note_on_c, 14, 55, 85
24, 2985, Note_on_c, 14, 55, 0
24, 3000, Note_on_c, 14, 55, 85
24, 3045, Note_on_c, 14, 55, 0
24, 3060, Note_on_c, 14, 55, 85
24, 3105, Note_on_c, 14, 55, 0
24, 3120, Note_on_c, 14, 55, 85
24, 3165, Note_on_c, 14, 55, 0
24, 3180, Note_on_c, 14, 55, 85
24, 3225, Note_on_c, 14, 55, 0
24, 3240, Note_on_c, 14, 55, 85
24, 3285, Note_on_c, 14, 55, 0
24, 3300, Note_on_c, 14, 55, 85
24, 3345, Note_on_c, 14, 55, 0
24, 3360, Note_on_c, 14, 55, 85
24, 3405, Note_on_c, 14, 55, 0
24, 3420, Note_on_c, 14, 55, 85
24, 3465, Note_on_c, 14, 55, 0
24, 3480, Note_on_c, 14, 55, 85
24, 3525, Note_on_c, 14, 55, 0
24, 3540, Note_on_c, 14, 55, 85
24, 3585, Note_on_c, 14, 55, 0
24, 3600, Note_on_c, 14, 55, 85
24, 3645, Note_on_c, 14, 55, 0
24, 3660, Note_on_c, 14, 55, 85
24, 3705, Note_on_c, 14, 55, 0
24, 3720, Note_on_c, 14, 55, 85
24, 3765, Note_on_c, 14, 55, 0
24, 3780, Note_on_c, 14, 55, 85
24, 3825, Note_on_c, 14, 55, 0
24, 3840, Note_on_c, 14, 55, 85
24, 3885, Note_on_c, 14, 55, 0
24, 3900, Note_on_c, 14, 55, 85
24, 3945, Note_on_c, 14, 55, 0
24, 3960, Note_on_c, 14, 57, 85
24, 4005, Note_on_c, 14, 57, 0
24, 4020, Note_on_c, 14, 57, 85
24, 4065, Note_on_c, 14, 57, 0
24, 4080, Note_on_c, 14, 59, 85
24, 4125, Note_on_c, 14, 59, 0
24, 4140, Note_on_c, 14, 59, 85
24, 4185, Note_on_c, 14, 59, 0
24, 4200, Note_on_c, 14, 54, 85
24, 4245, Note_on_c, 14, 54, 0
24, 4260, Note_on_c, 14, 54, 85
24, 4305, Note_on_c, 14, 54, 0
24, 4320, Note_on_c, 14, 55, 85
24, 4365, Note_on_c, 14, 55, 0
24, 4380, Note_on_c, 14, 55, 85
24, 4425, Note_on_c, 14, 55, 0
24, 4440, Note_on_c, 14, 57, 85
24, 4485, Note_on_c, 14, 57, 0
24, 4500, Note_on_c, 14, 57, 85
24, 4545, Note_on_c, 14, 57, 0
24, 4560, Note_on_c, 14, 59, 85
24, 4680, Note_on_c, 14, 59, 0
24, 5280, Note_on_c, 14, 50, 47
24, 5520, Note_on_c, 14, 50, 0
24, 5520, Note_on_c, 14, 52, 47
24, 5760, Note_on_c, 14, 52, 0
24, 5760, Note_on_c, 14, 48, 47
24, 5850, Note_on_c, 14, 48, 0
24, 5880, Note_on_c, 14, 48, 47
24, 5970, Note_on_c, 14, 48, 0
24, 6000, Note_on_c, 14, 50, 47
24, 6090, Note_on_c, 14, 50, 0
24, 6120, Note_on_c, 14, 50, 47
24, 6210, Note_on_c, 14, 50, 0
24, 6240, Note_on_c, 14, 47, 47
24, 6300, Note_on_c, 14, 47, 0
24, 6360, Note_on_c, 14, 50, 47
24, 6420, Note_on_c, 14, 50, 0
24, 6480, Note_on_c, 14, 55, 47
24, 6600, Note_on_c, 14, 55, 0
24, 7200, Note_on_c, 14, 50, 47
24, 7440, Note_on_c, 14, 50, 0
24, 7440, Note_on_c, 14, 52, 47
24, 7680, Note_on_c, 14, 52, 0
24, 7680, Note_on_c, 14, 48, 47
24, 7770, Note_on_c, 14, 48, 0
24, 7800, Note_on_c, 14, 48, 47
24, 7890, Note_on_c, 14, 48, 0
24, 7920, Note_on_c, 14, 50, 47
24, 8010, Note_on_c, 14, 50, 0
24, 8040, Note_on_c, 14, 50, 47
24, 8130, Note_on_c, 14, 50, 0
24, 8160, Note_on_c, 14, 55, 91
24, 8205, Note_on_c, 14, 55, 0
24, 8220, Note_on_c, 14, 55, 83
24, 8265, Note_on_c, 14, 55, 0
24, 8280, Note_on_c, 14, 55, 83
24, 8325, Note_on_c, 14, 55, 0
24, 8340, Note_on_c, 14, 55, 83
24, 8385, Note_on_c, 14, 55, 0
24, 8400, Note_on_c, 14, 55, 59
24, 8445, Note_on_c, 14, 55, 0
24, 8460, Note_on_c, 14, 55, 59
24, 8505, Note_on_c, 14, 55, 0
24, 8520, Note_on_c, 14, 55, 59
24, 8565, Note_on_c, 14, 55, 0
24, 8580, Note_on_c, 14, 55, 59
24, 8625, Note_on_c, 14, 55, 0
24, 8640, Note_on_c, 14, 55, 92
24, 8685, Note_on_c, 14, 55, 0
24, 8700, Note_on_c, 14, 55, 79
24, 8745, Note_on_c, 14, 55, 0
24, 8760, Note_on_c, 14, 55, 79
24, 8805, Note_on_c, 14, 55, 0
24, 8820, Note_on_c, 14, 55, 79
24, 8865, Note_on_c, 14, 55, 0
24, 8880, Note_on_c, 14, 55, 59
24, 8925, Note_on_c, 14, 55, 0
24, 8940, Note_on_c, 14, 55, 59
24, 8985, Note_on_c, 14, 55, 0
24, 9000, Note_on_c, 14, 55, 59
24, 9045, Note_on_c, 14, 55, 0
24, 9060, Note_on_c, 14, 55, 59
24, 9105, Note_on_c, 14, 55, 0
24, 9120, Note_on_c, 14, 55, 59
24, 9165, Note_on_c, 14, 55, 0
24, 9180, Note_on_c, 14, 55, 40
24, 9225, Note_on_c, 14, 55, 0
24, 9240, Note_on_c, 14, 55, 43
24, 9285, Note_on_c, 14, 55, 0
24, 9300, Note_on_c, 14, 55, 46
24, 9345, Note_on_c, 14, 55, 0
24, 9360, Note_on_c, 14, 55, 49
24, 9405, Note_on_c, 14, 55, 0
24, 9420, Note_on_c, 14, 55, 52
24, 9465, Note_on_c, 14, 55, 0
24, 9480, Note_on_c, 14, 55, 55
24, 9525, Note_on_c, 14, 55, 0
24, 9540, Note_on_c, 14, 55, 58
24, 9585, Note_on_c, 14, 55, 0
24, 9600, Note_on_c, 14, 55, 61
24, 9645, Note_on_c, 14, 55, 0
24, 9660, Note_on_c, 14, 55, 64
24, 9705, Note_on_c, 14, 55, 0
24, 9720, Note_on_c, 14, 54, 67
24, 9765, Note_on_c, 14, 54, 0
24, 9780, Note_on_c, 14, 54, 70
24, 9825, Note_on_c, 14, 54, 0
24, 9840, Note_on_c, 14, 55, 73
24, 9885, Note_on_c, 14, 55, 0
24, 9900, Note_on_c, 14, 55, 76
24, 9945, Note_on_c, 14, 55, 0
24, 9960, Note_on_c, 14, 52, 79
24, 10005, Note_on_c, 14, 52, 0
24, 10020, Note_on_c, 14, 52, 82
24, 10065, Note_on_c, 14, 52, 0
24, 10080, Note_on_c, 14, 50, 85
24, 10125, Note_on_c, 14, 50, 0
24, 10140, Note_on_c, 14, 50, 85
24, 10185, Note_on_c, 14, 50, 0
24, 10200, Note_on_c, 14, 50, 85
24, 10245, Note_on_c, 14, 50, 0
24, 10260, Note_on_c, 14, 50, 85
24, 10305, Note_on_c, 14, 50, 0
24, 10320, Note_on_c, 14, 50, 85
24, 10365, Note_on_c, 14, 50, 0
24, 10380, Note_on_c, 14, 50, 85
24, 10425, Note_on_c, 14, 50, 0
24, 10440, Note_on_c, 14, 50, 85
24, 10485, Note_on_c, 14, 50, 0
24, 10500, Note_on_c, 14, 50, 85
24, 10545, Note_on_c, 14, 50, 0
24, 10560, Note_on_c, 14, 50, 85
24, 10605, Note_on_c, 14, 50, 0
24, 10620, Note_on_c, 14, 50, 85
24, 10665, Note_on_c, 14, 50, 0
24, 10680, Note_on_c, 14, 50, 85
24, 10725, Note_on_c, 14, 50, 0
24, 10740, Note_on_c, 14, 50, 85
24, 10785, Note_on_c, 14, 50, 0
24, 10800, Note_on_c, 14, 50, 85
24, 10845, Note_on_c, 14, 50, 0
24, 10860, Note_on_c, 14, 50, 85
24, 10905, Note_on_c, 14, 50, 0
24, 10920, Note_on_c, 14, 50, 85
24, 10965, Note_on_c, 14, 50, 0
24, 10980, Note_on_c, 14, 50, 85
24, 11025, Note_on_c, 14, 50, 0
24, 11040, Note_on_c, 14, 50, 85
24, 11085, Note_on_c, 14, 50, 0
24, 11100, Note_on_c, 14, 52, 85
24, 11145, Note_on_c, 14, 52, 0
24, 11160, Note_on_c, 14, 54, 85
24, 11205, Note_on_c, 14, 54, 0
24, 11220, Note_on_c, 14, 52, 85
24, 11265, Note_on_c, 14, 52, 0
24, 11280, Note_on_c, 14, 50, 85
24, 11325, Note_on_c, 14, 50, 0
24, 11340, Note_on_c, 14, 52, 85
24, 11385, Note_on_c, 14, 52, 0
24, 11400, Note_on_c, 14, 54, 85
24, 11445, Note_on_c, 14, 54, 0
24, 11460, Note_on_c, 14, 50, 85
24, 11505, Note_on_c, 14, 50, 0
24, 11520, Note_on_c, 14, 55, 85
24, 11565, Note_on_c, 14, 55, 0
24, 11580, Note_on_c, 14, 57, 85
24, 11625, Note_on_c, 14, 57, 0
24, 11640, Note_on_c, 14, 59, 85
24, 11685, Note_on_c, 14, 59, 0
24, 11700, Note_on_c, 14, 57, 85
24, 11745, Note_on_c, 14, 57, 0
24, 11760, Note_on_c, 14, 55, 85
24, 11805, Note_on_c, 14, 55, 0
24, 11820, Note_on_c, 14, 57, 85
24, 11865, Note_on_c, 14, 57, 0
24, 11880, Note_on_c, 14, 59, 85
24, 11925, Note_on_c, 14, 59, 0
24, 11940, Note_on_c, 14, 56, 85
24, 11985, Note_on_c, 14, 56, 0
24, 12000, Note_on_c, 14, 57, 85
24, 12045, Note_on_c, 14, 57, 0
24, 12060, Note_on_c, 14, 57, 85
24, 12105, Note_on_c, 14, 57, 0
24, 12120, Note_on_c, 14, 57, 85
24, 12165, Note_on_c, 14, 57, 0
24, 12180, Note_on_c, 14, 57, 85
24, 12225, Note_on_c, 14, 57, 0
24, 12240, Note_on_c, 14, 57, 85
24, 12285, Note_on_c, 14, 57, 0
24, 12300, Note_on_c, 14, 57, 85
24, 12345, Note_on_c, 14, 57, 0
24, 12360, Note_on_c, 14, 57, 85
24, 12405, Note_on_c, 14, 57, 0
24, 12420, Note_on_c, 14, 57, 85
24, 12465, Note_on_c, 14, 57, 0
24, 12480, Note_on_c, 14, 57, 85
24, 12525, Note_on_c, 14, 57, 0
24, 12540, Note_on_c, 14, 45, 85
24, 12585, Note_on_c, 14, 45, 0
24, 12600, Note_on_c, 14, 45, 85
24, 12645, Note_on_c, 14, 45, 0
24, 12660, Note_on_c, 14, 45, 85
24, 12705, Note_on_c, 14, 45, 0
24, 12720, Note_on_c, 14, 45, 85
24, 12840, Note_on_c, 14, 45, 0
24, 13320, Note_on_c, 14, 51, 55
24, 13380, Note_on_c, 14, 51, 0
24, 13440, Note_on_c, 14, 52, 55
24, 13500, Note_on_c, 14, 52, 0
24, 13560, Note_on_c, 14, 50, 55
24, 13620, Note_on_c, 14, 50, 0
24, 13680, Note_on_c, 14, 49, 55
24, 13740, Note_on_c, 14, 49, 0
24, 13800, Note_on_c, 14, 45, 55
24, 13860, Note_on_c, 14, 45, 0
24, 14040, Note_on_c, 14, 46, 55
24, 14160, Note_on_c, 14, 46, 0
24, 14160, Note_on_c, 14, 47, 55
24, 14220, Note_on_c, 14, 47, 0
24, 14280, Note_on_c, 14, 43, 55
24, 14340, Note_on_c, 14, 43, 0
24, 14400, Note_on_c, 14, 45, 55
24, 14490, Note_on_c, 14, 45, 0
24, 14520, Note_on_c, 14, 57, 55
24, 14700, Note_on_c, 14, 57, 0
24, 14700, Note_on_c, 14, 56, 55
24, 14760, Note_on_c, 14, 56, 0
24, 14760, Note_on_c, 14, 55, 55
24, 14820, Note_on_c, 14, 55, 0
24, 14820, Note_on_c, 14, 52, 55
24, 14880, Note_on_c, 14, 52, 0
24, 14880, Note_on_c, 14, 50, 55
24, 14940, Note_on_c, 14, 50, 0
24, 15000, Note_on_c, 14, 52, 55
24, 15060, Note_on_c, 14, 52, 0
24, 15120, Note_on_c, 14, 54, 55
24, 15180, Note_on_c, 14, 54, 0
24, 15240, Note_on_c, 14, 51, 55
24, 15300, Note_on_c, 14, 51, 0
24, 15360, Note_on_c, 14, 52, 55
24, 15420, Note_on_c, 14, 52, 0
24, 15480, Note_on_c, 14, 50, 55
24, 15540, Note_on_c, 14, 50, 0
24, 15600, Note_on_c, 14, 49, 55
24, 15660, Note_on_c, 14, 49, 0
24, 15720, Note_on_c, 14, 45, 55
24, 15780, Note_on_c, 14, 45, 0
24, 15840, Note_on_c, 14, 47, 55
24, 15900, Note_on_c, 14, 47, 0
24, 15960, Note_on_c, 14, 55, 55
24, 16020, Note_on_c, 14, 55, 0
24, 16080, Note_on_c, 14, 57, 55
24, 16140, Note_on_c, 14, 57, 0
24, 16200, Note_on_c, 14, 45, 55
24, 16260, Note_on_c, 14, 45, 0
24, 16320, Note_on_c, 14, 50, 55
24, 16440, Note_on_c, 14, 50, 0
24, 16800, Note_on_c, 14, 45, 55
24, 16920, Note_on_c, 14, 45, 0
24, 17280, Note_on_c, 14, 50, 55
24, 17400, Note_on_c, 14, 50, 0
24, 17760, Note_on_c, 14, 45, 55
24, 17880, Note_on_c, 14, 45, 0
24, 18300, Note_on_c, 14, 50, 55
24, 18345, Note_on_c, 14, 50, 0
24, 18360, Note_on_c, 14, 54, 55
24, 18405, Note_on_c, 14, 54, 0
24, 18420, Note_on_c, 14, 52, 55
24, 18465, Note_on_c, 14, 52, 0
24, 18480, Note_on_c, 14, 51, 55
24, 18525, Note_on_c, 14, 51, 0
24, 18540, Note_on_c, 14, 47, 55
24, 18585, Note_on_c, 14, 47, 0
24, 18600, Note_on_c, 14, 49, 55
24, 18645, Note_on_c, 14, 49, 0
24, 18660, Note_on_c, 14, 50, 55
24, 18705, Note_on_c, 14, 50, 0
24, 18720, Note_on_c, 14, 52, 85
24, 18765, Note_on_c, 14, 52, 0
24, 18780, Note_on_c, 14, 55, 85
24, 18825, Note_on_c, 14, 55, 0
24, 18840, Note_on_c, 14, 52, 85
24, 18885, Note_on_c, 14, 52, 0
24, 18900, Note_on_c, 14, 50, 85
24, 18945, Note_on_c, 14, 50, 0
24, 18960, Note_on_c, 14, 49, 85
24, 19005, Note_on_c, 14, 49, 0
24, 19020, Note_on_c, 14, 45, 85
24, 19065, Note_on_c, 14, 45, 0
24, 19080, Note_on_c, 14, 47, 85
24, 19125, Note_on_c, 14, 47, 0
24, 19140, Note_on_c, 14, 49, 85
24, 19185, Note_on_c, 14, 49, 0
24, 19200, Note_on_c, 14, 50, 85
24, 19245, Note_on_c, 14, 50, 0
24, 19260, Note_on_c, 14, 50, 85
24, 19305, Note_on_c, 14, 50, 0
24, 19320, Note_on_c, 14, 52, 85
24, 19365, Note_on_c, 14, 52, 0
24, 19380, Note_on_c, 14, 54, 85
24, 19425, Note_on_c, 14, 54, 0
24, 19440, Note_on_c, 14, 55, 85
24, 19485, Note_on_c, 14, 55, 0
24, 19500, Note_on_c, 14, 55, 85
24, 19545, Note_on_c, 14, 55, 0
24, 19560, Note_on_c, 14, 55, 85
24, 19605, Note_on_c, 14, 55, 0
24, 19620, Note_on_c, 14, 55, 85
24, 19665, Note_on_c, 14, 55, 0
24, 19680, Note_on_c, 14, 57, 85
24, 19725, Note_on_c, 14, 57, 0
24, 19740, Note_on_c, 14, 57, 85
24, 19785, Note_on_c, 14, 57, 0
24, 19800, Note_on_c, 14, 57, 85
24, 19845, Note_on_c, 14, 57, 0
24, 19860, Note_on_c, 14, 57, 85
24, 19905, Note_on_c, 14, 57, 0
24, 19920, Note_on_c, 14, 45, 85
24, 19965, Note_on_c, 14, 45, 0
24, 19980, Note_on_c, 14, 45, 85
24, 20025, Note_on_c, 14, 45, 0
24, 20040, Note_on_c, 14, 45, 85
24, 20085, Note_on_c, 14, 45, 0
24, 20100, Note_on_c, 14, 45, 85
24, 20145, Note_on_c, 14, 45, 0
24, 20160, Note_on_c, 14, 50, 85
24, 20280, Note_on_c, 14, 50, 0
24, 20640, Note_on_c, 14, 45, 55
24, 20760, Note_on_c, 14, 45, 0
24, 21120, Note_on_c, 14, 50, 55
24, 21240, Note_on_c, 14, 50, 0
24, 21600, Note_on_c, 14, 45, 55
24, 21720, Note_on_c, 14, 45, 0
24, 22140, Note_on_c, 14, 50, 85
24, 22185, Note_on_c, 14, 50, 0
24, 22200, Note_on_c, 14, 54, 85
24, 22245, Note_on_c, 14, 54, 0
24, 22260, Note_on_c, 14, 52, 85
24, 22305, Note_on_c, 14, 52, 0
24, 22320, Note_on_c, 14, 51, 85
24, 22365, Note_on_c, 14, 51, 0
24, 22380, Note_on_c, 14, 47, 85
24, 22425, Note_on_c, 14, 47, 0
24, 22440, Note_on_c, 14, 49, 85
24, 22485, Note_on_c, 14, 49, 0
24, 22500, Note_on_c, 14, 50, 85
24, 22545, Note_on_c, 14, 50, 0
24, 22560, Note_on_c, 14, 52, 85
24, 22605, Note_on_c, 14, 52, 0
24, 22620, Note_on_c, 14, 55, 85
24, 22665, Note_on_c, 14, 55, 0
24, 22680, Note_on_c, 14, 52, 85
24, 22725, Note_on_c, 14, 52, 0
24, 22740, Note_on_c, 14, 50, 85
24, 22785, Note_on_c, 14, 50, 0
24, 22800, Note_on_c, 14, 49, 85
24, 22845, Note_on_c, 14, 49, 0
24, 22860, Note_on_c, 14, 45, 85
24, 22905, Note_on_c, 14, 45, 0
24, 22920, Note_on_c, 14, 47, 85
24, 22965, Note_on_c, 14, 47, 0
24, 22980, Note_on_c, 14, 49, 85
24, 23025, Note_on_c, 14, 49, 0
24, 23040, Note_on_c, 14, 50, 85
24, 23085, Note_on_c, 14, 50, 0
24, 23100, Note_on_c, 14, 50, 85
24, 23145, Note_on_c, 14, 50, 0
24, 23160, Note_on_c, 14, 52, 85
24, 23205, Note_on_c, 14, 52, 0
24, 23220, Note_on_c, 14, 54, 85
24, 23265, Note_on_c, 14, 54, 0
24, 23280, Note_on_c, 14, 55, 85
24, 23325, Note_on_c, 14, 55, 0
24, 23340, Note_on_c, 14, 55, 85
24, 23385, Note_on_c, 14, 55, 0
24, 23400, Note_on_c, 14, 55, 85
24, 23445, Note_on_c, 14, 55, 0
24, 23460, Note_on_c, 14, 55, 85
24, 23505, Note_on_c, 14, 55, 0
24, 23520, Note_on_c, 14, 57, 85
24, 23565, Note_on_c, 14, 57, 0
24, 23580, Note_on_c, 14, 57, 85
24, 23625, Note_on_c, 14, 57, 0
24, 23640, Note_on_c, 14, 57, 85
24, 23685, Note_on_c, 14, 57, 0
24, 23700, Note_on_c, 14, 57, 85
24, 23745, Note_on_c, 14, 57, 0
24, 23760, Note_on_c, 14, 45, 85
24, 23805, Note_on_c, 14, 45, 0
24, 23820, Note_on_c, 14, 45, 85
24, 23865, Note_on_c, 14, 45, 0
24, 23880, Note_on_c, 14, 45, 85
24, 23925, Note_on_c, 14, 45, 0
24, 23940, Note_on_c, 14, 45, 85
24, 23985, Note_on_c, 14, 45, 0
24, 24000, Note_on_c, 14, 50, 85
24, 24045, Note_on_c, 14, 50, 0
24, 24060, Note_on_c, 14, 45, 85
24, 24105, Note_on_c, 14, 45, 0
24, 24120, Note_on_c, 14, 47, 85
24, 24165, Note_on_c, 14, 47, 0
24, 24180, Note_on_c, 14, 49, 85
24, 24225, Note_on_c, 14, 49, 0
24, 24240, Note_on_c, 14, 50, 85
24, 24285, Note_on_c, 14, 50, 0
24, 24300, Note_on_c, 14, 50, 85
24, 24345, Note_on_c, 14, 50, 0
24, 24360, Note_on_c, 14, 52, 85
24, 24405, Note_on_c, 14, 52, 0
24, 24420, Note_on_c, 14, 52, 85
24, 24465, Note_on_c, 14, 52, 0
24, 24480, Note_on_c, 14, 54, 85
24, 24525, Note_on_c, 14, 54, 0
24, 24540, Note_on_c, 14, 49, 85
24, 24585, Note_on_c, 14, 49, 0
24, 24600, Note_on_c, 14, 50, 85
24, 24645, Note_on_c, 14, 50, 0
24, 24660, Note_on_c, 14, 52, 85
24, 24705, Note_on_c, 14, 52, 0
24, 24720, Note_on_c, 14, 54, 85
24, 24765, Note_on_c, 14, 54, 0
24, 24780, Note_on_c, 14, 54, 85
24, 24825, Note_on_c, 14, 54, 0
24, 24840, Note_on_c, 14, 55, 85
24, 24885, Note_on_c, 14, 55, 0
24, 24900, Note_on_c, 14, 55, 85
24, 24945, Note_on_c, 14, 55, 0
24, 24960, Note_on_c, 14, 57, 85
24, 25005, Note_on_c, 14, 57, 0
24, 25020, Note_on_c, 14, 57, 85
24, 25065, Note_on_c, 14, 57, 0
24, 25080, Note_on_c, 14, 58, 85
24, 25125, Note_on_c, 14, 58, 0
24, 25140, Note_on_c, 14, 58, 85
24, 25185, Note_on_c, 14, 58, 0
24, 25200, Note_on_c, 14, 59, 85
24, 25320, Note_on_c, 14, 59, 0
24, 25440, Note_on_c, 14, 55, 55
24, 25680, Note_on_c, 14, 55, 0
24, 25680, Note_on_c, 14, 57, 55
24, 25920, Note_on_c, 14, 57, 0
24, 25920, Note_on_c, 14, 50, 55
24, 25980, Note_on_c, 14, 50, 0
24, 26040, Note_on_c, 14, 50, 55
24, 26100, Note_on_c, 14, 50, 0
24, 26160, Note_on_c, 14, 50, 55
24, 26220, Note_on_c, 14, 50, 0
24, 26400, Note_on_c, 14, 55, 85
24, 26520, Note_on_c, 14, 55, 0
24, 26580, Note_on_c, 14, 50, 85
24, 26610, Note_on_c, 14, 50, 0
24, 26640, Note_on_c, 14, 55, 85
24, 26760, Note_on_c, 14, 55, 0
24, 26820, Note_on_c, 14, 50, 85
24, 26850, Note_on_c, 14, 50, 0
24, 26880, Note_on_c, 14, 55, 85
24, 26910, Note_on_c, 14, 55, 0
24, 26940, Note_on_c, 14, 50, 85
24, 26970, Note_on_c, 14, 50, 0
24, 27000, Note_on_c, 14, 55, 85
24, 27030, Note_on_c, 14, 55, 0
24, 27060, Note_on_c, 14, 59, 85
24, 27090, Note_on_c, 14, 59, 0
24, 27120, Note_on_c, 14, 62, 85
24, 27240, Note_on_c, 14, 62, 0
24, 27360, Note_on_c, 14, 60, 85
24, 27480, Note_on_c, 14, 60, 0
24, 27540, Note_on_c, 14, 57, 85
24, 27570, Note_on_c, 14, 57, 0
24, 27600, Note_on_c, 14, 60, 85
24, 27720, Note_on_c, 14, 60, 0
24, 27780, Note_on_c, 14, 57, 85
24, 27810, Note_on_c, 14, 57, 0
24, 27840, Note_on_c, 14, 60, 85
24, 27870, Note_on_c, 14, 60, 0
24, 27900, Note_on_c, 14, 57, 85
24, 27930, Note_on_c, 14, 57, 0
24, 27960, Note_on_c, 14, 54, 85
24, 27990, Note_on_c, 14, 54, 0
24, 28020, Note_on_c, 14, 57, 85
24, 28050, Note_on_c, 14, 57, 0
24, 28080, Note_on_c, 14, 50, 85
24, 28200, Note_on_c, 14, 50, 0
24, 28320, Note_on_c, 14, 55, 85
24, 28365, Note_on_c, 14, 55, 0
24, 28380, Note_on_c, 14, 55, 85
24, 28425, Note_on_c, 14, 55, 0
24, 28440, Note_on_c, 14, 55, 85
24, 28485, Note_on_c, 14, 55, 0
24, 28500, Note_on_c, 14, 55, 85
24, 28545, Note_on_c, 14, 55, 0
24, 28560, Note_on_c, 14, 55, 85
24, 28605, Note_on_c, 14, 55, 0
24, 28620, Note_on_c, 14, 55, 85
24, 28665, Note_on_c, 14, 55, 0
24, 28680, Note_on_c, 14, 55, 85
24, 28725, Note_on_c, 14, 55, 0
24, 28740, Note_on_c, 14, 55, 85
24, 28785, Note_on_c, 14, 55, 0
24, 28800, Note_on_c, 14, 55, 85
24, 28845, Note_on_c, 14, 55, 0
24, 28860, Note_on_c, 14, 55, 85
24, 28905, Note_on_c, 14, 55, 0
24, 28920, Note_on_c, 14, 55, 85
24, 28965, Note_on_c, 14, 55, 0
24, 28980, Note_on_c, 14, 55, 85
24, 29025, Note_on_c, 14, 55, 0
24, 29040, Note_on_c, 14, 55, 85
24, 29085, Note_on_c, 14, 55, 0
24, 29100, Note_on_c, 14, 55, 85
24, 29145, Note_on_c, 14, 55, 0
24, 29160, Note_on_c, 14, 55, 85
24, 29205, Note_on_c, 14, 55, 0
24, 29220, Note_on_c, 14, 55, 85
24, 29265, Note_on_c, 14, 55, 0
24, 29280, Note_on_c, 14, 55, 85
24, 29325, Note_on_c, 14, 55, 0
24, 29340, Note_on_c, 14, 55, 85
24, 29385, Note_on_c, 14, 55, 0
24, 29400, Note_on_c, 14, 55, 85
24, 29445, Note_on_c, 14, 55, 0
24, 29460, Note_on_c, 14, 55, 85
24, 29505, Note_on_c, 14, 55, 0
24, 29520, Note_on_c, 14, 55, 85
24, 29565, Note_on_c, 14, 55, 0
24, 29580, Note_on_c, 14, 55, 85
24, 29625, Note_on_c, 14, 55, 0
24, 29640, Note_on_c, 14, 55, 85
24, 29685, Note_on_c, 14, 55, 0
24, 29700, Note_on_c, 14, 55, 85
24, 29745, Note_on_c, 14, 55, 0
24, 29760, Note_on_c, 14, 55, 85
24, 29805, Note_on_c, 14, 55, 0
24, 29820, Note_on_c, 14, 55, 85
24, 29865, Note_on_c, 14, 55, 0
24, 29880, Note_on_c, 14, 55, 85
24, 29925, Note_on_c, 14, 55, 0
24, 29940, Note_on_c, 14, 55, 85
24, 29985, Note_on_c, 14, 55, 0
24, 30000, Note_on_c, 14, 55, 85
24, 30045, Note_on_c, 14, 55, 0
24, 30060, Note_on_c, 14, 55, 85
24, 30105, Note_on_c, 14, 55, 0
24, 30120, Note_on_c, 14, 55, 85
24, 30165, Note_on_c, 14, 55, 0
24, 30180, Note_on_c, 14, 55, 85
24, 30225, Note_on_c, 14, 55, 0
24, 30240, Note_on_c, 14, 55, 85
24, 30285, Note_on_c, 14, 55, 0
24, 30300, Note_on_c, 14, 55, 85
24, 30345, Note_on_c, 14, 55, 0
24, 30360, Note_on_c, 14, 57, 85
24, 30405, Note_on_c, 14, 57, 0
24, 30420, Note_on_c, 14, 57, 85
24, 30465, Note_on_c, 14, 57, 0
24, 30480, Note_on_c, 14, 59, 85
24, 30525, Note_on_c, 14, 59, 0
24, 30540, Note_on_c, 14, 59, 85
24, 30585, Note_on_c, 14, 59, 0
24, 30600, Note_on_c, 14, 54, 85
24, 30645, Note_on_c, 14, 54, 0
24, 30660, Note_on_c, 14, 54, 85
24, 30705, Note_on_c, 14, 54, 0
24, 30720, Note_on_c, 14, 55, 85
24, 30765, Note_on_c, 14, 55, 0
24, 30780, Note_on_c, 14, 55, 85
24, 30825, Note_on_c, 14, 55, 0
24, 30840, Note_on_c, 14, 57, 85
24, 30885, Note_on_c, 14, 57, 0
24, 30900, Note_on_c, 14, 57, 85
24, 30945, Note_on_c, 14, 57, 0
24, 30960, Note_on_c, 14, 59, 85
24, 31080, Note_on_c, 14, 59, 0
24, 31680, Note_on_c, 14, 50, 47
24, 31920, Note_on_c, 14, 50, 0
24, 31920, Note_on_c, 14, 52, 47
24, 32160, Note_on_c, 14, 52, 0
24, 32160, Note_on_c, 14, 48, 47
24, 32250, Note_on_c, 14, 48, 0
24, 32280, Note_on_c, 14, 48, 47
24, 32370, Note_on_c, 14, 48, 0
24, 32400, Note_on_c, 14, 50, 47
24, 32490, Note_on_c, 14, 50, 0
24, 32520, Note_on_c, 14, 50, 47
24, 32610, Note_on_c, 14, 50, 0
24, 32640, Note_on_c, 14, 47, 47
24, 32700, Note_on_c, 14, 47, 0
24, 32760, Note_on_c, 14, 50, 47
24, 32820, Note_on_c, 14, 50, 0
24, 32880, Note_on_c, 14, 55, 47
24, 33000, Note_on_c, 14, 55, 0
24, 33600, Note_on_c, 14, 50, 47
24, 33840, Note_on_c, 14, 50, 0
24, 33840, Note_on_c, 14, 52, 47
24, 34080, Note_on_c, 14, 52, 0
24, 34080, Note_on_c, 14, 48, 47
24, 34170, Note_on_c, 14, 48, 0
24, 34200, Note_on_c, 14, 48, 47
24, 34290, Note_on_c, 14, 48, 0
24, 34320, Note_on_c, 14, 50, 47
24, 34410, Note_on_c, 14, 50, 0
24, 34440, Note_on_c, 14, 50, 47
24, 34530, Note_on_c, 14, 50, 0
24, 34560, Note_on_c, 14, 55, 91
24, 34605, Note_on_c, 14, 55, 0
24, 34620, Note_on_c, 14, 55, 83
24, 34665, Note_on_c, 14, 55, 0
24, 34680, Note_on_c, 14, 55, 83
24, 34725, Note_on_c, 14, 55, 0
24, 34740, Note_on_c, 14, 55, 83
24, 34785, Note_on_c, 14, 55, 0
24, 34800, Note_on_c, 14, 55, 59
24, 34845, Note_on_c, 14, 55, 0
24, 34860, Note_on_c, 14, 55, 59
24, 34905, Note_on_c, 14, 55, 0
24, 34920, Note_on_c, 14, 55, 59
24, 34965, Note_on_c, 14, 55, 0
24, 34980, Note_on_c, 14, 55, 59
24, 35025, Note_on_c, 14, 55, 0
24, 35040, Note_on_c, 14, 55, 92
24, 35085, Note_on_c, 14, 55, 0
24, 35100, Note_on_c, 14, 55, 79
24, 35145, Note_on_c, 14, 55, 0
24, 35160, Note_on_c, 14, 55, 79
24, 35205, Note_on_c, 14, 55, 0
24, 35220, Note_on_c, 14, 55, 79
24, 35265, Note_on_c, 14, 55, 0
24, 35280, Note_on_c, 14, 55, 59
24, 35325, Note_on_c, 14, 55, 0
24, 35340, Note_on_c, 14, 55, 59
24, 35385, Note_on_c, 14, 55, 0
24, 35400, Note_on_c, 14, 55, 59
24, 35445, Note_on_c, 14, 55, 0
24, 35460, Note_on_c, 14, 55, 59
24, 35505, Note_on_c, 14, 55, 0
24, 35520, Note_on_c, 14, 55, 59
24, 35565, Note_on_c, 14, 55, 0
24, 35580, Note_on_c, 14, 55, 40
24, 35625, Note_on_c, 14, 55, 0
24, 35640, Note_on_c, 14, 55, 43
24, 35685, Note_on_c, 14, 55, 0
24, 35700, Note_on_c, 14, 55, 46
24, 35745, Note_on_c, 14, 55, 0
24, 35760, Note_on_c, 14, 55, 49
24, 35805, Note_on_c, 14, 55, 0
24, 35820, Note_on_c, 14, 55, 52
24, 35865, Note_on_c, 14, 55, 0
24, 35880, Note_on_c, 14, 55, 55
24, 35925, Note_on_c, 14, 55, 0
24, 35940, Note_on_c, 14, 55, 58
24, 35985, Note_on_c, 14, 55, 0
24, 36000, Note_on_c, 14, 55, 61
24, 36045, Note_on_c, 14, 55, 0
24, 36060, Note_on_c, 14, 55, 64
24, 36105, Note_on_c, 14, 55, 0
24, 36120, Note_on_c, 14, 54, 67
24, 36165, Note_on_c, 14, 54, 0
24, 36180, Note_on_c, 14, 54, 70
24, 36225, Note_on_c, 14, 54, 0
24, 36240, Note_on_c, 14, 55, 73
24, 36285, Note_on_c, 14, 55, 0
24, 36300, Note_on_c, 14, 55, 76
24, 36345, Note_on_c, 14, 55, 0
24, 36360, Note_on_c, 14, 52, 79
24, 36405, Note_on_c, 14, 52, 0
24, 36420, Note_on_c, 14, 52, 82
24, 36465, Note_on_c, 14, 52, 0
24, 36480, Note_on_c, 14, 50, 85
24, 36525, Note_on_c, 14, 50, 0
24, 36540, Note_on_c, 14, 50, 85
24, 36585, Note_on_c, 14, 50, 0
24, 36600, Note_on_c, 14, 50, 85
24, 36645, Note_on_c, 14, 50, 0
24, 36660, Note_on_c, 14, 50, 85
24, 36705, Note_on_c, 14, 50, 0
24, 36720, Note_on_c, 14, 50, 85
24, 36765, Note_on_c, 14, 50, 0
24, 36780, Note_on_c, 14, 50, 85
24, 36825, Note_on_c, 14, 50, 0
24, 36840, Note_on_c, 14, 50, 85
24, 36885, Note_on_c, 14, 50, 0
24, 36900, Note_on_c, 14, 50, 85
24, 36945, Note_on_c, 14, 50, 0
24, 36960, Note_on_c, 14, 50, 85
24, 37005, Note_on_c, 14, 50, 0
24, 37020, Note_on_c, 14, 50, 85
24, 37065, Note_on_c, 14, 50, 0
24, 37080, Note_on_c, 14, 50, 85
24, 37125, Note_on_c, 14, 50, 0
24, 37140, Note_on_c, 14, 50, 85
24, 37185, Note_on_c, 14, 50, 0
24, 37200, Note_on_c, 14, 50, 85
24, 37245, Note_on_c, 14, 50, 0
24, 37260, Note_on_c, 14, 50, 85
24, 37305, Note_on_c, 14, 50, 0
24, 37320, Note_on_c, 14, 50, 85
24, 37365, Note_on_c, 14, 50, 0
24, 37380, Note_on_c, 14, 50, 85
24, 37425, Note_on_c, 14, 50, 0
24, 37440, Note_on_c, 14, 50, 85
24, 37485, Note_on_c, 14, 50, 0
24, 37500, Note_on_c, 14, 52, 85
24, 37545, Note_on_c, 14, 52, 0
24, 37560, Note_on_c, 14, 54, 85
24, 37605, Note_on_c, 14, 54, 0
24, 37620, Note_on_c, 14, 52, 85
24, 37665, Note_on_c, 14, 52, 0
24, 37680, Note_on_c, 14, 50, 85
24, 37725, Note_on_c, 14, 50, 0
24, 37740, Note_on_c, 14, 52, 85
24, 37785, Note_on_c, 14, 52, 0
24, 37800, Note_on_c, 14, 54, 85
24, 37845, Note_on_c, 14, 54, 0
24, 37860, Note_on_c, 14, 50, 85
24, 37905, Note_on_c, 14, 50, 0
24, 37920, Note_on_c, 14, 55, 85
24, 37965, Note_on_c, 14, 55, 0
24, 37980, Note_on_c, 14, 57, 85
24, 38025, Note_on_c, 14, 57, 0
24, 38040, Note_on_c, 14, 59, 85
24, 38085, Note_on_c, 14, 59, 0
24, 38100, Note_on_c, 14, 57, 85
24, 38145, Note_on_c, 14, 57, 0
24, 38160, Note_on_c, 14, 55, 85
24, 38205, Note_on_c, 14, 55, 0
24, 38220, Note_on_c, 14, 57, 85
24, 38265, Note_on_c, 14, 57, 0
24, 38280, Note_on_c, 14, 59, 85
24, 38325, Note_on_c, 14, 59, 0
24, 38340, Note_on_c, 14, 56, 85
24, 38385, Note_on_c, 14, 56, 0
24, 38400, Note_on_c, 14, 57, 85
24, 38445, Note_on_c, 14, 57, 0
24, 38460, Note_on_c, 14, 57, 85
24, 38505, Note_on_c, 14, 57, 0
24, 38520, Note_on_c, 14, 57, 85
24, 38565, Note_on_c, 14, 57, 0
24, 38580, Note_on_c, 14, 57, 85
24, 38625, Note_on_c, 14, 57, 0
24, 38640, Note_on_c, 14, 57, 85
24, 38685, Note_on_c, 14, 57, 0
24, 38700, Note_on_c, 14, 57, 85
24, 38745, Note_on_c, 14, 57, 0
24, 38760, Note_on_c, 14, 57, 85
24, 38805, Note_on_c, 14, 57, 0
24, 38820, Note_on_c, 14, 57, 85
24, 38865, Note_on_c, 14, 57, 0
24, 38880, Note_on_c, 14, 57, 85
24, 38925, Note_on_c, 14, 57, 0
24, 38940, Note_on_c, 14, 45, 85
24, 38985, Note_on_c, 14, 45, 0
24, 39000, Note_on_c, 14, 45, 85
24, 39045, Note_on_c, 14, 45, 0
24, 39060, Note_on_c, 14, 45, 85
24, 39105, Note_on_c, 14, 45, 0
24, 39120, Note_on_c, 14, 45, 85
24, 39240, Note_on_c, 14, 45, 0
24, 39720, Note_on_c, 14, 51, 55
24, 39780, Note_on_c, 14, 51, 0
24, 39840, Note_on_c, 14, 52, 55
24, 39900, Note_on_c, 14, 52, 0
24, 39960, Note_on_c, 14, 50, 55
24, 40020, Note_on_c, 14, 50, 0
24, 40080, Note_on_c, 14, 49, 55
24, 40140, Note_on_c, 14, 49, 0
24, 40200, Note_on_c, 14, 45, 55
24, 40260, Note_on_c, 14, 45, 0
24, 40440, Note_on_c, 14, 46, 55
24, 40560, Note_on_c, 14, 46, 0
24, 40560, Note_on_c, 14, 47, 55
24, 40620, Note_on_c, 14, 47, 0
24, 40680, Note_on_c, 14, 43, 55
24, 40740, Note_on_c, 14, 43, 0
24, 40800, Note_on_c, 14, 45, 55
24, 40890, Note_on_c, 14, 45, 0
24, 40920, Note_on_c, 14, 57, 55
24, 41100, Note_on_c, 14, 57, 0
24, 41100, Note_on_c, 14, 56, 55
24, 41160, Note_on_c, 14, 56, 0
24, 41160, Note_on_c, 14, 55, 55
24, 41220, Note_on_c, 14, 55, 0
24, 41220, Note_on_c, 14, 52, 55
24, 41280, Note_on_c, 14, 52, 0
24, 41280, Note_on_c, 14, 50, 55
24, 41340, Note_on_c, 14, 50, 0
24, 41400, Note_on_c, 14, 52, 55
24, 41460, Note_on_c, 14, 52, 0
24, 41520, Note_on_c, 14, 54, 55
24, 41580, Note_on_c, 14, 54, 0
24, 41640, Note_on_c, 14, 51, 55
24, 41700, Note_on_c, 14, 51, 0
24, 41760, Note_on_c, 14, 52, 55
24, 41820, Note_on_c, 14, 52, 0
24, 41880, Note_on_c, 14, 50, 55
24, 41940, Note_on_c, 14, 50, 0
24, 42000, Note_on_c, 14, 49, 55
24, 42060, Note_on_c, 14, 49, 0
24, 42120, Note_on_c, 14, 45, 55
24, 42180, Note_on_c, 14, 45, 0
24, 42240, Note_on_c, 14, 47, 55
24, 42300, Note_on_c, 14, 47, 0
24, 42360, Note_on_c, 14, 55, 55
24, 42420, Note_on_c, 14, 55, 0
24, 42480, Note_on_c, 14, 57, 55
24, 42540, Note_on_c, 14, 57, 0
24, 42600, Note_on_c, 14, 45, 55
24, 42660, Note_on_c, 14, 45, 0
24, 42720, Note_on_c, 14, 50, 55
24, 42840, Note_on_c, 14, 50, 0
24, 43200, Note_on_c, 14, 45, 55
24, 43320, Note_on_c, 14, 45, 0
24, 43680, Note_on_c, 14, 50, 55
24, 43800, Note_on_c, 14, 50, 0
24, 44160, Note_on_c, 14, 45, 55
24, 44280, Note_on_c, 14, 45, 0
24, 44700, Note_on_c, 14, 50, 55
24, 44745, Note_on_c, 14, 50, 0
24, 44760, Note_on_c, 14, 54, 55
24, 44805, Note_on_c, 14, 54, 0
24, 44820, Note_on_c, 14, 52, 55
24, 44865, Note_on_c, 14, 52, 0
24, 44880, Note_on_c, 14, 51, 55
24, 44925, Note_on_c, 14, 51, 0
24, 44940, Note_on_c, 14, 47, 55
24, 44985, Note_on_c, 14, 47, 0
24, 45000, Note_on_c, 14, 49, 55
24, 45045, Note_on_c, 14, 49, 0
24, 45060, Note_on_c, 14, 50, 55
24, 45105, Note_on_c, 14, 50, 0
24, 45120, Note_on_c, 14, 52, 85
24, 45165, Note_on_c, 14, 52, 0
24, 45180, Note_on_c, 14, 55, 85
24, 45225, Note_on_c, 14, 55, 0
24, 45240, Note_on_c, 14, 52, 85
24, 45285, Note_on_c, 14, 52, 0
24, 45300, Note_on_c, 14, 50, 85
24, 45345, Note_on_c, 14, 50, 0
24, 45360, Note_on_c, 14, 49, 85
24, 45405, Note_on_c, 14, 49, 0
24, 45420, Note_on_c, 14, 45, 85
24, 45465, Note_on_c, 14, 45, 0
24, 45480, Note_on_c, 14, 47, 85
24, 45525, Note_on_c, 14, 47, 0
24, 45540, Note_on_c, 14, 49, 85
24, 45585, Note_on_c, 14, 49, 0
24, 45600, Note_on_c, 14, 50, 85
24, 45645, Note_on_c, 14, 50, 0
24, 45660, Note_on_c, 14, 50, 85
24, 45705, Note_on_c, 14, 50, 0
24, 45720, Note_on_c, 14, 52, 85
24, 45765, Note_on_c, 14, 52, 0
24, 45780, Note_on_c, 14, 54, 85
24, 45825, Note_on_c, 14, 54, 0
24, 45840, Note_on_c, 14, 55, 85
24, 45885, Note_on_c, 14, 55, 0
24, 45900, Note_on_c, 14, 55, 85
24, 45945, Note_on_c, 14, 55, 0
24, 45960, Note_on_c, 14, 55, 85
24, 46005, Note_on_c, 14, 55, 0
24, 46020, Note_on_c, 14, 55, 85
24, 46065, Note_on_c, 14, 55, 0
24, 46080, Note_on_c, 14, 57, 85
24, 46125, Note_on_c, 14, 57, 0
24, 46140, Note_on_c, 14, 57, 85
24, 46185, Note_on_c, 14, 57, 0
24, 46200, Note_on_c, 14, 57, 85
24, 46245, Note_on_c, 14, 57, 0
24, 46260, Note_on_c, 14, 57, 85
24, 46305, Note_on_c, 14, 57, 0
24, 46320, Note_on_c, 14, 45, 85
24, 46365, Note_on_c, 14, 45, 0
24, 46380, Note_on_c, 14, 45, 85
24, 46425, Note_on_c, 14, 45, 0
24, 46440, Note_on_c, 14, 45, 85
24, 46485, Note_on_c, 14, 45, 0
24, 46500, Note_on_c, 14, 45, 85
24, 46545, Note_on_c, 14, 45, 0
24, 46560, Note_on_c, 14, 50, 85
24, 46680, Note_on_c, 14, 50, 0
24, 47040, Note_on_c, 14, 45, 55
24, 47160, Note_on_c, 14, 45, 0
24, 47520, Note_on_c, 14, 50, 55
24, 47640, Note_on_c, 14, 50, 0
24, 48000, Note_on_c, 14, 45, 55
24, 48120, Note_on_c, 14, 45, 0
24, 48540, Note_on_c, 14, 50, 85
24, 48585, Note_on_c, 14, 50, 0
24, 48600, Note_on_c, 14, 54, 85
24, 48645, Note_on_c, 14, 54, 0
24, 48660, Note_on_c, 14, 52, 85
24, 48705, Note_on_c, 14, 52, 0
24, 48720, Note_on_c, 14, 51, 85
24, 48765, Note_on_c, 14, 51, 0
24, 48780, Note_on_c, 14, 47, 85
24, 48825, Note_on_c, 14, 47, 0
24, 48840, Note_on_c, 14, 49, 85
24, 48885, Note_on_c, 14, 49, 0
24, 48900, Note_on_c, 14, 50, 85
24, 48945, Note_on_c, 14, 50, 0
24, 48960, Note_on_c, 14, 52, 85
24, 49005, Note_on_c, 14, 52, 0
24, 49020, Note_on_c, 14, 55, 85
24, 49065, Note_on_c, 14, 55, 0
24, 49080, Note_on_c, 14, 52, 85
24, 49125, Note_on_c, 14, 52, 0
24, 49140, Note_on_c, 14, 50, 85
24, 49185, Note_on_c, 14, 50, 0
24, 49200, Note_on_c, 14, 49, 85
24, 49245, Note_on_c, 14, 49, 0
24, 49260, Note_on_c, 14, 45, 85
24, 49305, Note_on_c, 14, 45, 0
24, 49320, Note_on_c, 14, 47, 85
24, 49365, Note_on_c, 14, 47, 0
24, 49380, Note_on_c, 14, 49, 85
24, 49425, Note_on_c, 14, 49, 0
24, 49440, Note_on_c, 14, 50, 85
24, 49485, Note_on_c, 14, 50, 0
24, 49500, Note_on_c, 14, 50, 85
24, 49545, Note_on_c, 14, 50, 0
24, 49560, Note_on_c, 14, 52, 85
24, 49605, Note_on_c, 14, 52, 0
24, 49620, Note_on_c, 14, 54, 85
24, 49665, Note_on_c, 14, 54, 0
24, 49680, Note_on_c, 14, 55, 85
24, 49725, Note_on_c, 14, 55, 0
24, 49740, Note_on_c, 14, 55, 85
24, 49785, Note_on_c, 14, 55, 0
24, 49800, Note_on_c, 14, 55, 85
24, 49845, Note_on_c, 14, 55, 0
24, 49860, Note_on_c, 14, 55, 85
24, 49905, Note_on_c, 14, 55, 0
24, 49920, Note_on_c, 14, 57, 85
24, 49965, Note_on_c, 14, 57, 0
24, 49980, Note_on_c, 14, 57, 85
24, 50025, Note_on_c, 14, 57, 0
24, 50040, Note_on_c, 14, 57, 85
24, 50085, Note_on_c, 14, 57, 0
24, 50100, Note_on_c, 14, 57, 85
24, 50145, Note_on_c, 14, 57, 0
24, 50160, Note_on_c, 14, 45, 85
24, 50205, Note_on_c, 14, 45, 0
24, 50220, Note_on_c, 14, 45, 85
24, 50265, Note_on_c, 14, 45, 0
24, 50280, Note_on_c, 14, 45, 85
24, 50325, Note_on_c, 14, 45, 0
24, 50340, Note_on_c, 14, 45, 85
24, 50385, Note_on_c, 14, 45, 0
24, 50400, Note_on_c, 14, 50, 85
24, 50445, Note_on_c, 14, 50, 0
24, 50460, Note_on_c, 14, 45, 85
24, 50505, Note_on_c, 14, 45, 0
24, 50520, Note_on_c, 14, 47, 85
24, 50565, Note_on_c, 14, 47, 0
24, 50580, Note_on_c, 14, 49, 85
24, 50625, Note_on_c, 14, 49, 0
24, 50640, Note_on_c, 14, 50, 85
24, 50685, Note_on_c, 14, 50, 0
24, 50700, Note_on_c, 14, 50, 85
24, 50745, Note_on_c, 14, 50, 0
24, 50760, Note_on_c, 14, 52, 85
24, 50805, Note_on_c, 14, 52, 0
24, 50820, Note_on_c, 14, 52, 85
24, 50865, Note_on_c, 14, 52, 0
24, 50880, Note_on_c, 14, 54, 85
24, 50925, Note_on_c, 14, 54, 0
24, 50940, Note_on_c, 14, 49, 85
24, 50985, Note_on_c, 14, 49, 0
24, 51000, Note_on_c, 14, 50, 85
24, 51045, Note_on_c, 14, 50, 0
24, 51060, Note_on_c, 14, 52, 85
24, 51105, Note_on_c, 14, 52, 0
24, 51120, Note_on_c, 14, 54, 85
24, 51165, Note_on_c, 14, 54, 0
24, 51180, Note_on_c, 14, 54, 85
24, 51225, Note_on_c, 14, 54, 0
24, 51240, Note_on_c, 14, 55, 85
24, 51285, Note_on_c, 14, 55, 0
24, 51300, Note_on_c, 14, 55, 85
24, 51345, Note_on_c, 14, 55, 0
24, 51360, Note_on_c, 14, 57, 85
24, 51405, Note_on_c, 14, 57, 0
24, 51420, Note_on_c, 14, 57, 85
24, 51465, Note_on_c, 14, 57, 0
24, 51480, Note_on_c, 14, 58, 85
24, 51525, Note_on_c, 14, 58, 0
24, 51540, Note_on_c, 14, 58, 85
24, 51585, Note_on_c, 14, 58, 0
24, 51600, Note_on_c, 14, 59, 85
24, 51720, Note_on_c, 14, 59, 0
24, 51840, Note_on_c, 14, 55, 55
24, 52080, Note_on_c, 14, 55, 0
24, 52080, Note_on_c, 14, 57, 55
24, 52320, Note_on_c, 14, 57, 0
24, 52320, Note_on_c, 14, 50, 55
24, 52380, Note_on_c, 14, 50, 0
24, 52440, Note_on_c, 14, 50, 55
24, 52500, Note_on_c, 14, 50, 0
24, 52560, Note_on_c, 14, 50, 55
24, 52620, Note_on_c, 14, 50, 0
24, 52800, Note_on_c, 14, 50, 89
24, 52920, Note_on_c, 14, 50, 0
24, 52980, Note_on_c, 14, 45, 89
24, 53025, Note_on_c, 14, 45, 0
24, 53040, Note_on_c, 14, 50, 89
24, 53160, Note_on_c, 14, 50, 0
24, 53220, Note_on_c, 14, 45, 89
24, 53265, Note_on_c, 14, 45, 0
24, 53280, Note_on_c, 14, 50, 89
24, 53325, Note_on_c, 14, 50, 0
24, 53340, Note_on_c, 14, 45, 89
24, 53385, Note_on_c, 14, 45, 0
24, 53400, Note_on_c, 14, 50, 89
24, 53445, Note_on_c, 14, 50, 0
24, 53460, Note_on_c, 14, 54, 89
24, 53505, Note_on_c, 14, 54, 0
24, 53520, Note_on_c, 14, 57, 89
24, 53640, Note_on_c, 14, 57, 0
24, 53760, Note_on_c, 14, 57, 89
24, 53880, Note_on_c, 14, 57, 0
24, 53940, Note_on_c, 14, 54, 89
24, 53985, Note_on_c, 14, 54, 0
24, 54000, Note_on_c, 14, 57, 89
24, 54120, Note_on_c, 14, 57, 0
24, 54180, Note_on_c, 14, 54, 89
24, 54225, Note_on_c, 14, 54, 0
24, 54240, Note_on_c, 14, 57, 89
24, 54285, Note_on_c, 14, 57, 0
24, 54300, Note_on_c, 14, 54, 89
24, 54345, Note_on_c, 14, 54, 0
24, 54360, Note_on_c, 14, 51, 89
24, 54405, Note_on_c, 14, 51, 0
24, 54420, Note_on_c, 14, 54, 89
24, 54465, Note_on_c, 14, 54, 0
24, 54480, Note_on_c, 14, 47, 89
24, 54600, Note_on_c, 14, 47, 0
24, 54720, Note_on_c, 14, 48, 55
24, 54840, Note_on_c, 14, 48, 0
24, 55200, Note_on_c, 14, 43, 55
24, 55320, Note_on_c, 14, 43, 0
24, 55680, Note_on_c, 14, 48, 55
24, 55800, Note_on_c, 14, 48, 0
24, 56160, Note_on_c, 14, 43, 55
24, 56280, Note_on_c, 14, 43, 0
24, 56640, Note_on_c, 14, 48, 55
24, 56760, Note_on_c, 14, 48, 0
24, 57120, Note_on_c, 14, 52, 55
24, 57240, Note_on_c, 14, 52, 0
24, 57600, Note_on_c, 14, 45, 55
24, 57720, Note_on_c, 14, 45, 0
24, 58080, Note_on_c, 14, 50, 55
24, 58200, Note_on_c, 14, 50, 0
24, 58560, Note_on_c, 14, 51, 55
24, 59505, Note_on_c, 14, 51, 0
24, 59520, Note_on_c, 14, 50, 53
24, 59640, Note_on_c, 14, 50, 0
24, 59700, Note_on_c, 14, 50, 91
24, 59760, Note_on_c, 14, 50, 0
24, 59760, Note_on_c, 14, 52, 91
24, 59820, Note_on_c, 14, 52, 0
24, 59820, Note_on_c, 14, 54, 91
24, 59880, Note_on_c, 14, 54, 0
24, 59880, Note_on_c, 14, 55, 91
24, 59940, Note_on_c, 14, 55, 0
24, 59940, Note_on_c, 14, 57, 91
24, 60000, Note_on_c, 14, 57, 0
24, 60000, Note_on_c, 14, 60, 91
24, 60060, Note_on_c, 14, 60, 0
24, 60060, Note_on_c, 14, 58, 91
24, 60120, Note_on_c, 14, 58, 0
24, 60180, Note_on_c, 14, 54, 91
24, 60240, Note_on_c, 14, 54, 0
24, 60240, Note_on_c, 14, 55, 91
24, 60300, Note_on_c, 14, 55, 0
24, 60300, Note_on_c, 14, 57, 91
24, 60360, Note_on_c, 14, 57, 0
24, 60360, Note_on_c, 14, 58, 91
24, 60420, Note_on_c, 14, 58, 0
24, 60420, Note_on_c, 14, 61, 91
24, 60480, Note_on_c, 14, 61, 0
24, 60480, Note_on_c, 14, 64, 91
24, 60540, Note_on_c, 14, 64, 0
24, 60540, Note_on_c, 14, 62, 91
24, 60600, Note_on_c, 14, 62, 0
24, 61920, Note_on_c, 14, 50, 53
24, 62400, Note_on_c, 14, 50, 0
24, 62400, Note_on_c, 14, 55, 97
24, 62520, Note_on_c, 14, 55, 0
24, 62580, Note_on_c, 14, 50, 97
24, 62610, Note_on_c, 14, 50, 0
24, 62640, Note_on_c, 14, 55, 97
24, 62760, Note_on_c, 14, 55, 0
24, 62820, Note_on_c, 14, 50, 97
24, 62850, Note_on_c, 14, 50, 0
24, 62880, Note_on_c, 14, 55, 97
24, 62910, Note_on_c, 14, 55, 0
24, 62940, Note_on_c, 14, 50, 97
24, 62970, Note_on_c, 14, 50, 0
24, 63000, Note_on_c, 14, 55, 96
24, 63030, Note_on_c, 14, 55, 0
24, 63060, Note_on_c, 14, 59, 96
24, 63090, Note_on_c, 14, 59, 0
24, 63120, Note_on_c, 14, 62, 95
24, 63240, Note_on_c, 14, 62, 0
24, 63360, Note_on_c, 14, 60, 95
24, 63480, Note_on_c, 14, 60, 0
24, 63540, Note_on_c, 14, 57, 95
24, 63570, Note_on_c, 14, 57, 0
24, 63600, Note_on_c, 14, 60, 95
24, 63720, Note_on_c, 14, 60, 0
24, 63780, Note_on_c, 14, 57, 91
24, 63810, Note_on_c, 14, 57, 0
24, 63840, Note_on_c, 14, 60, 91
24, 63870, Note_on_c, 14, 60, 0
24, 63900, Note_on_c, 14, 57, 91
24, 63930, Note_on_c, 14, 57, 0
24, 63960, Note_on_c, 14, 54, 91
24, 63990, Note_on_c, 14, 54, 0
24, 64020, Note_on_c, 14, 57, 91
24, 64050, Note_on_c, 14, 57, 0
24, 64080, Note_on_c, 14, 50, 90
24, 64200, Note_on_c, 14, 50, 0
24, 64320, Note_on_c, 14, 55, 85
24, 64365, Note_on_c, 14, 55, 0
24, 64380, Note_on_c, 14, 55, 85
24, 64425, Note_on_c, 14, 55, 0
24, 64440, Note_on_c, 14, 55, 85
24, 64485, Note_on_c, 14, 55, 0
24, 64500, Note_on_c, 14, 55, 85
24, 64545, Note_on_c, 14, 55, 0
24, 64560, Note_on_c, 14, 55, 85
24, 64605, Note_on_c, 14, 55, 0
24, 64620, Note_on_c, 14, 55, 85
24, 64665, Note_on_c, 14, 55, 0
24, 64680, Note_on_c, 14, 55, 85
24, 64725, Note_on_c, 14, 55, 0
24, 64740, Note_on_c, 14, 55, 85
24, 64785, Note_on_c, 14, 55, 0
24, 64800, Note_on_c, 14, 55, 85
24, 64845, Note_on_c, 14, 55, 0
24, 64860, Note_on_c, 14, 55, 85
24, 64905, Note_on_c, 14, 55, 0
24, 64920, Note_on_c, 14, 55, 85
24, 64965, Note_on_c, 14, 55, 0
24, 64980, Note_on_c, 14, 55, 85
24, 65025, Note_on_c, 14, 55, 0
24, 65040, Note_on_c, 14, 55, 85
24, 65085, Note_on_c, 14, 55, 0
24, 65100, Note_on_c, 14, 55, 85
24, 65145, Note_on_c, 14, 55, 0
24, 65160, Note_on_c, 14, 55, 85
24, 65205, Note_on_c, 14, 55, 0
24, 65220, Note_on_c, 14, 55, 85
24, 65265, Note_on_c, 14, 55, 0
24, 65280, Note_on_c, 14, 55, 85
24, 65325, Note_on_c, 14, 55, 0
24, 65340, Note_on_c, 14, 55, 85
24, 65385, Note_on_c, 14, 55, 0
24, 65400, Note_on_c, 14, 55, 85
24, 65445, Note_on_c, 14, 55, 0
24, 65460, Note_on_c, 14, 55, 85
24, 65505, Note_on_c, 14, 55, 0
24, 65520, Note_on_c, 14, 55, 85
24, 65565, Note_on_c, 14, 55, 0
24, 65580, Note_on_c, 14, 55, 85
24, 65625, Note_on_c, 14, 55, 0
24, 65640, Note_on_c, 14, 55, 85
24, 65685, Note_on_c, 14, 55, 0
24, 65700, Note_on_c, 14, 55, 85
24, 65745, Note_on_c, 14, 55, 0
24, 65760, Note_on_c, 14, 55, 85
24, 65805, Note_on_c, 14, 55, 0
24, 65820, Note_on_c, 14, 55, 85
24, 65865, Note_on_c, 14, 55, 0
24, 65880, Note_on_c, 14, 55, 85
24, 65925, Note_on_c, 14, 55, 0
24, 65940, Note_on_c, 14, 55, 85
24, 65985, Note_on_c, 14, 55, 0
24, 66000, Note_on_c, 14, 55, 85
24, 66045, Note_on_c, 14, 55, 0
24, 66060, Note_on_c, 14, 55, 85
24, 66105, Note_on_c, 14, 55, 0
24, 66120, Note_on_c, 14, 55, 85
24, 66165, Note_on_c, 14, 55, 0
24, 66180, Note_on_c, 14, 55, 85
24, 66225, Note_on_c, 14, 55, 0
24, 66240, Note_on_c, 14, 55, 85
24, 66285, Note_on_c, 14, 55, 0
24, 66300, Note_on_c, 14, 55, 85
24, 66345, Note_on_c, 14, 55, 0
24, 66360, Note_on_c, 14, 57, 85
24, 66405, Note_on_c, 14, 57, 0
24, 66420, Note_on_c, 14, 57, 85
24, 66465, Note_on_c, 14, 57, 0
24, 66480, Note_on_c, 14, 59, 85
24, 66525, Note_on_c, 14, 59, 0
24, 66540, Note_on_c, 14, 59, 85
24, 66585, Note_on_c, 14, 59, 0
24, 66600, Note_on_c, 14, 54, 85
24, 66645, Note_on_c, 14, 54, 0
24, 66660, Note_on_c, 14, 54, 85
24, 66705, Note_on_c, 14, 54, 0
24, 66720, Note_on_c, 14, 55, 85
24, 66765, Note_on_c, 14, 55, 0
24, 66780, Note_on_c, 14, 55, 85
24, 66825, Note_on_c, 14, 55, 0
24, 66840, Note_on_c, 14, 57, 85
24, 66885, Note_on_c, 14, 57, 0
24, 66900, Note_on_c, 14, 57, 85
24, 66945, Note_on_c, 14, 57, 0
24, 66960, Note_on_c, 14, 59, 85
24, 67080, Note_on_c, 14, 59, 0
24, 67680, Note_on_c, 14, 50, 47
24, 67920, Note_on_c, 14, 50, 0
24, 67920, Note_on_c, 14, 52, 47
24, 68160, Note_on_c, 14, 52, 0
24, 68160, Note_on_c, 14, 48, 47
24, 68250, Note_on_c, 14, 48, 0
24, 68280, Note_on_c, 14, 48, 47
24, 68370, Note_on_c, 14, 48, 0
24, 68400, Note_on_c, 14, 50, 47
24, 68490, Note_on_c, 14, 50, 0
24, 68520, Note_on_c, 14, 50, 47
24, 68610, Note_on_c, 14, 50, 0
24, 68640, Note_on_c, 14, 47, 47
24, 68700, Note_on_c, 14, 47, 0
24, 68760, Note_on_c, 14, 50, 47
24, 68820, Note_on_c, 14, 50, 0
24, 68880, Note_on_c, 14, 55, 47
24, 69000, Note_on_c, 14, 55, 0
24, 69600, Note_on_c, 14, 50, 47
24, 69840, Note_on_c, 14, 50, 0
24, 69840, Note_on_c, 14, 52, 47
24, 70080, Note_on_c, 14, 52, 0
24, 70080, Note_on_c, 14, 48, 47
24, 70170, Note_on_c, 14, 48, 0
24, 70200, Note_on_c, 14, 48, 47
24, 70290, Note_on_c, 14, 48, 0
24, 70320, Note_on_c, 14, 50, 47
24, 70410, Note_on_c, 14, 50, 0
24, 70440, Note_on_c, 14, 50, 47
24, 70530, Note_on_c, 14, 50, 0
24, 70560, Note_on_c, 14, 55, 91
24, 70605, Note_on_c, 14, 55, 0
24, 70620, Note_on_c, 14, 55, 83
24, 70665, Note_on_c, 14, 55, 0
24, 70680, Note_on_c, 14, 55, 83
24, 70725, Note_on_c, 14, 55, 0
24, 70740, Note_on_c, 14, 55, 83
24, 70785, Note_on_c, 14, 55, 0
24, 70800, Note_on_c, 14, 55, 59
24, 70845, Note_on_c, 14, 55, 0
24, 70860, Note_on_c, 14, 55, 59
24, 70905, Note_on_c, 14, 55, 0
24, 70920, Note_on_c, 14, 55, 59
24, 70965, Note_on_c, 14, 55, 0
24, 70980, Note_on_c, 14, 55, 59
24, 71025, Note_on_c, 14, 55, 0
24, 71040, Note_on_c, 14, 55, 92
24, 71085, Note_on_c, 14, 55, 0
24, 71100, Note_on_c, 14, 55, 79
24, 71145, Note_on_c, 14, 55, 0
24, 71160, Note_on_c, 14, 55, 79
24, 71205, Note_on_c, 14, 55, 0
24, 71220, Note_on_c, 14, 55, 79
24, 71265, Note_on_c, 14, 55, 0
24, 71280, Note_on_c, 14, 55, 59
24, 71325, Note_on_c, 14, 55, 0
24, 71340, Note_on_c, 14, 55, 59
24, 71385, Note_on_c, 14, 55, 0
24, 71400, Note_on_c, 14, 55, 59
24, 71445, Note_on_c, 14, 55, 0
24, 71460, Note_on_c, 14, 55, 59
24, 71505, Note_on_c, 14, 55, 0
24, 71520, Note_on_c, 14, 55, 59
24, 71565, Note_on_c, 14, 55, 0
24, 71580, Note_on_c, 14, 55, 40
24, 71625, Note_on_c, 14, 55, 0
24, 71640, Note_on_c, 14, 55, 43
24, 71685, Note_on_c, 14, 55, 0
24, 71700, Note_on_c, 14, 55, 46
24, 71745, Note_on_c, 14, 55, 0
24, 71760, Note_on_c, 14, 55, 49
24, 71805, Note_on_c, 14, 55, 0
24, 71820, Note_on_c, 14, 55, 52
24, 71865, Note_on_c, 14, 55, 0
24, 71880, Note_on_c, 14, 55, 55
24, 71925, Note_on_c, 14, 55, 0
24, 71940, Note_on_c, 14, 55, 58
24, 71985, Note_on_c, 14, 55, 0
24, 72000, Note_on_c, 14, 55, 61
24, 72045, Note_on_c, 14, 55, 0
24, 72060, Note_on_c, 14, 55, 64
24, 72105, Note_on_c, 14, 55, 0
24, 72120, Note_on_c, 14, 54, 67
24, 72165, Note_on_c, 14, 54, 0
24, 72180, Note_on_c, 14, 54, 70
24, 72225, Note_on_c, 14, 54, 0
24, 72240, Note_on_c, 14, 55, 73
24, 72285, Note_on_c, 14, 55, 0
24, 72300, Note_on_c, 14, 55, 76
24, 72345, Note_on_c, 14, 55, 0
24, 72360, Note_on_c, 14, 52, 79
24, 72405, Note_on_c, 14, 52, 0
24, 72420, Note_on_c, 14, 52, 82
24, 72465, Note_on_c, 14, 52, 0
24, 72480, Note_on_c, 14, 50, 85
24, 72525, Note_on_c, 14, 50, 0
24, 72540, Note_on_c, 14, 50, 85
24, 72585, Note_on_c, 14, 50, 0
24, 72600, Note_on_c, 14, 50, 85
24, 72645, Note_on_c, 14, 50, 0
24, 72660, Note_on_c, 14, 50, 85
24, 72705, Note_on_c, 14, 50, 0
24, 72720, Note_on_c, 14, 50, 85
24, 72765, Note_on_c, 14, 50, 0
24, 72780, Note_on_c, 14, 50, 85
24, 72825, Note_on_c, 14, 50, 0
24, 72840, Note_on_c, 14, 50, 85
24, 72885, Note_on_c, 14, 50, 0
24, 72900, Note_on_c, 14, 50, 85
24, 72945, Note_on_c, 14, 50, 0
24, 72960, Note_on_c, 14, 50, 85
24, 73005, Note_on_c, 14, 50, 0
24, 73020, Note_on_c, 14, 50, 85
24, 73065, Note_on_c, 14, 50, 0
24, 73080, Note_on_c, 14, 50, 85
24, 73125, Note_on_c, 14, 50, 0
24, 73140, Note_on_c, 14, 50, 85
24, 73185, Note_on_c, 14, 50, 0
24, 73200, Note_on_c, 14, 50, 85
24, 73245, Note_on_c, 14, 50, 0
24, 73260, Note_on_c, 14, 50, 85
24, 73305, Note_on_c, 14, 50, 0
24, 73320, Note_on_c, 14, 50, 85
24, 73365, Note_on_c, 14, 50, 0
24, 73380, Note_on_c, 14, 50, 85
24, 73425, Note_on_c, 14, 50, 0
24, 73440, Note_on_c, 14, 50, 85
24, 73485, Note_on_c, 14, 50, 0
24, 73500, Note_on_c, 14, 50, 85
24, 73545, Note_on_c, 14, 50, 0
24, 73560, Note_on_c, 14, 50, 85
24, 73605, Note_on_c, 14, 50, 0
24, 73620, Note_on_c, 14, 50, 85
24, 73665, Note_on_c, 14, 50, 0
24, 73680, Note_on_c, 14, 50, 85
24, 73725, Note_on_c, 14, 50, 0
24, 73740, Note_on_c, 14, 50, 85
24, 73785, Note_on_c, 14, 50, 0
24, 73800, Note_on_c, 14, 50, 85
24, 73845, Note_on_c, 14, 50, 0
24, 73860, Note_on_c, 14, 50, 85
24, 73905, Note_on_c, 14, 50, 0
24, 73920, Note_on_c, 14, 50, 85
24, 73965, Note_on_c, 14, 50, 0
24, 73980, Note_on_c, 14, 50, 85
24, 74025, Note_on_c, 14, 50, 0
24, 74040, Note_on_c, 14, 50, 85
24, 74085, Note_on_c, 14, 50, 0
24, 74100, Note_on_c, 14, 50, 85
24, 74145, Note_on_c, 14, 50, 0
24, 74160, Note_on_c, 14, 50, 85
24, 74280, Note_on_c, 14, 50, 0
24, 74760, Note_on_c, 14, 56, 55
24, 74820, Note_on_c, 14, 56, 0
24, 74880, Note_on_c, 14, 57, 55
24, 74940, Note_on_c, 14, 57, 0
24, 75000, Note_on_c, 14, 55, 55
24, 75060, Note_on_c, 14, 55, 0
24, 75120, Note_on_c, 14, 54, 55
24, 75180, Note_on_c, 14, 54, 0
24, 75240, Note_on_c, 14, 50, 55
24, 75300, Note_on_c, 14, 50, 0
24, 75480, Note_on_c, 14, 51, 55
24, 75600, Note_on_c, 14, 51, 0
24, 75600, Note_on_c, 14, 52, 55
24, 75660, Note_on_c, 14, 52, 0
24, 75720, Note_on_c, 14, 48, 55
24, 75780, Note_on_c, 14, 48, 0
24, 75840, Note_on_c, 14, 50, 55
24, 75930, Note_on_c, 14, 50, 0
24, 75960, Note_on_c, 14, 62, 55
24, 76140, Note_on_c, 14, 62, 0
24, 76140, Note_on_c, 14, 61, 55
24, 76200, Note_on_c, 14, 61, 0
24, 76200, Note_on_c, 14, 60, 55
24, 76260, Note_on_c, 14, 60, 0
24, 76260, Note_on_c, 14, 57, 55
24, 76320, Note_on_c, 14, 57, 0
24, 76320, Note_on_c, 14, 55, 55
24, 76380, Note_on_c, 14, 55, 0
24, 76440, Note_on_c, 14, 57, 55
24, 76500, Note_on_c, 14, 57, 0
24, 76560, Note_on_c, 14, 59, 55
24, 76620, Note_on_c, 14, 59, 0
24, 76680, Note_on_c, 14, 56, 55
24, 76740, Note_on_c, 14, 56, 0
24, 76800, Note_on_c, 14, 57, 55
24, 76860, Note_on_c, 14, 57, 0
24, 76920, Note_on_c, 14, 55, 55
24, 76980, Note_on_c, 14, 55, 0
24, 77040, Note_on_c, 14, 54, 55
24, 77100, Note_on_c, 14, 54, 0
24, 77160, Note_on_c, 14, 50, 55
24, 77220, Note_on_c, 14, 50, 0
24, 77280, Note_on_c, 14, 52, 55
24, 77340, Note_on_c, 14, 52, 0
24, 77400, Note_on_c, 14, 60, 55
24, 77460, Note_on_c, 14, 60, 0
24, 77520, Note_on_c, 14, 62, 55
24, 77580, Note_on_c, 14, 62, 0
24, 77640, Note_on_c, 14, 50, 55
24, 77700, Note_on_c, 14, 50, 0
24, 77760, Note_on_c, 14, 43, 55
24, 77880, Note_on_c, 14, 43, 0
24, 78240, Note_on_c, 14, 50, 55
24, 78360, Note_on_c, 14, 50, 0
24, 78720, Note_on_c, 14, 43, 55
24, 78840, Note_on_c, 14, 43, 0
24, 79200, Note_on_c, 14, 50, 55
24, 79320, Note_on_c, 14, 50, 0
24, 79740, Note_on_c, 14, 55, 55
24, 79785, Note_on_c, 14, 55, 0
24, 79800, Note_on_c, 14, 59, 55
24, 79845, Note_on_c, 14, 59, 0
24, 79860, Note_on_c, 14, 57, 55
24, 79905, Note_on_c, 14, 57, 0
24, 79920, Note_on_c, 14, 56, 55
24, 79965, Note_on_c, 14, 56, 0
24, 79980, Note_on_c, 14, 52, 55
24, 80025, Note_on_c, 14, 52, 0
24, 80040, Note_on_c, 14, 54, 55
24, 80085, Note_on_c, 14, 54, 0
24, 80100, Note_on_c, 14, 55, 55
24, 80145, Note_on_c, 14, 55, 0
24, 80160, Note_on_c, 14, 57, 85
24, 80205, Note_on_c, 14, 57, 0
24, 80220, Note_on_c, 14, 60, 85
24, 80265, Note_on_c, 14, 60, 0
24, 80280, Note_on_c, 14, 57, 85
24, 80325, Note_on_c, 14, 57, 0
24, 80340, Note_on_c, 14, 55, 85
24, 80385, Note_on_c, 14, 55, 0
24, 80400, Note_on_c, 14, 54, 85
24, 80445, Note_on_c, 14, 54, 0
24, 80460, Note_on_c, 14, 50, 85
24, 80505, Note_on_c, 14, 50, 0
24, 80520, Note_on_c, 14, 52, 85
24, 80565, Note_on_c, 14, 52, 0
24, 80580, Note_on_c, 14, 54, 85
24, 80625, Note_on_c, 14, 54, 0
24, 80640, Note_on_c, 14, 55, 85
24, 80685, Note_on_c, 14, 55, 0
24, 80700, Note_on_c, 14, 55, 85
24, 80745, Note_on_c, 14, 55, 0
24, 80760, Note_on_c, 14, 57, 85
24, 80805, Note_on_c, 14, 57, 0
24, 80820, Note_on_c, 14, 59, 85
24, 80865, Note_on_c, 14, 59, 0
24, 80880, Note_on_c, 14, 60, 85
24, 80925, Note_on_c, 14, 60, 0
24, 80940, Note_on_c, 14, 60, 85
24, 80985, Note_on_c, 14, 60, 0
24, 81000, Note_on_c, 14, 60, 85
24, 81045, Note_on_c, 14, 60, 0
24, 81060, Note_on_c, 14, 60, 85
24, 81105, Note_on_c, 14, 60, 0
24, 81120, Note_on_c, 14, 62, 85
24, 81165, Note_on_c, 14, 62, 0
24, 81180, Note_on_c, 14, 62, 85
24, 81225, Note_on_c, 14, 62, 0
24, 81240, Note_on_c, 14, 62, 85
24, 81285, Note_on_c, 14, 62, 0
24, 81300, Note_on_c, 14, 62, 85
24, 81345, Note_on_c, 14, 62, 0
24, 81360, Note_on_c, 14, 50, 85
24, 81405, Note_on_c, 14, 50, 0
24, 81420, Note_on_c, 14, 50, 85
24, 81465, Note_on_c, 14, 50, 0
24, 81480, Note_on_c, 14, 50, 85
24, 81525, Note_on_c, 14, 50, 0
24, 81540, Note_on_c, 14, 50, 85
24, 81585, Note_on_c, 14, 50, 0
24, 81600, Note_on_c, 14, 55, 85
24, 81720, Note_on_c, 14, 55, 0
24, 82080, Note_on_c, 14, 50, 55
24, 82200, Note_on_c, 14, 50, 0
24, 82560, Note_on_c, 14, 55, 55
24, 82680, Note_on_c, 14, 55, 0
24, 83040, Note_on_c, 14, 50, 55
24, 83160, Note_on_c, 14, 50, 0
24, 83580, Note_on_c, 14, 55, 85
24, 83625, Note_on_c, 14, 55, 0
24, 83640, Note_on_c, 14, 59, 85
24, 83685, Note_on_c, 14, 59, 0
24, 83700, Note_on_c, 14, 57, 85
24, 83745, Note_on_c, 14, 57, 0
24, 83760, Note_on_c, 14, 56, 85
24, 83805, Note_on_c, 14, 56, 0
24, 83820, Note_on_c, 14, 52, 85
24, 83865, Note_on_c, 14, 52, 0
24, 83880, Note_on_c, 14, 54, 85
24, 83925, Note_on_c, 14, 54, 0
24, 83940, Note_on_c, 14, 55, 85
24, 83985, Note_on_c, 14, 55, 0
24, 84000, Note_on_c, 14, 57, 85
24, 84045, Note_on_c, 14, 57, 0
24, 84060, Note_on_c, 14, 60, 85
24, 84105, Note_on_c, 14, 60, 0
24, 84120, Note_on_c, 14, 57, 85
24, 84165, Note_on_c, 14, 57, 0
24, 84180, Note_on_c, 14, 55, 85
24, 84225, Note_on_c, 14, 55, 0
24, 84240, Note_on_c, 14, 54, 85
24, 84285, Note_on_c, 14, 54, 0
24, 84300, Note_on_c, 14, 50, 85
24, 84345, Note_on_c, 14, 50, 0
24, 84360, Note_on_c, 14, 52, 85
24, 84405, Note_on_c, 14, 52, 0
24, 84420, Note_on_c, 14, 54, 85
24, 84465, Note_on_c, 14, 54, 0
24, 84480, Note_on_c, 14, 55, 85
24, 84525, Note_on_c, 14, 55, 0
24, 84540, Note_on_c, 14, 55, 85
24, 84585, Note_on_c, 14, 55, 0
24, 84600, Note_on_c, 14, 57, 85
24, 84645, Note_on_c, 14, 57, 0
24, 84660, Note_on_c, 14, 59, 85
24, 84705, Note_on_c, 14, 59, 0
24, 84720, Note_on_c, 14, 60, 85
24, 84765, Note_on_c, 14, 60, 0
24, 84780, Note_on_c, 14, 60, 85
24, 84825, Note_on_c, 14, 60, 0
24, 84840, Note_on_c, 14, 60, 85
24, 84885, Note_on_c, 14, 60, 0
24, 84900, Note_on_c, 14, 60, 85
24, 84945, Note_on_c, 14, 60, 0
24, 84960, Note_on_c, 14, 62, 85
24, 85005, Note_on_c, 14, 62, 0
24, 85020, Note_on_c, 14, 62, 85
24, 85065, Note_on_c, 14, 62, 0
24, 85080, Note_on_c, 14, 62, 85
24, 85125, Note_on_c, 14, 62, 0
24, 85140, Note_on_c, 14, 62, 85
24, 85185, Note_on_c, 14, 62, 0
24, 85200, Note_on_c, 14, 50, 85
24, 85245, Note_on_c, 14, 50, 0
24, 85260, Note_on_c, 14, 50, 85
24, 85305, Note_on_c, 14, 50, 0
24, 85320, Note_on_c, 14, 50, 85
24, 85365, Note_on_c, 14, 50, 0
24, 85380, Note_on_c, 14, 50, 85
24, 85425, Note_on_c, 14, 50, 0
24, 85440, Note_on_c, 14, 55, 85
24, 85485, Note_on_c, 14, 55, 0
24, 85500, Note_on_c, 14, 50, 85
24, 85545, Note_on_c, 14, 50, 0
24, 85560, Note_on_c, 14, 52, 85
24, 85605, Note_on_c, 14, 52, 0
24, 85620, Note_on_c, 14, 54, 85
24, 85665, Note_on_c, 14, 54, 0
24, 85680, Note_on_c, 14, 55, 85
24, 85725, Note_on_c, 14, 55, 0
24, 85740, Note_on_c, 14, 55, 85
24, 85785, Note_on_c, 14, 55, 0
24, 85800, Note_on_c, 14, 57, 85
24, 85845, Note_on_c, 14, 57, 0
24, 85860, Note_on_c, 14, 57, 85
24, 85905, Note_on_c, 14, 57, 0
24, 85920, Note_on_c, 14, 59, 85
24, 85965, Note_on_c, 14, 59, 0
24, 85980, Note_on_c, 14, 54, 85
24, 86025, Note_on_c, 14, 54, 0
24, 86040, Note_on_c, 14, 55, 85
24, 86085, Note_on_c, 14, 55, 0
24, 86100, Note_on_c, 14, 57, 85
24, 86145, Note_on_c, 14, 57, 0
24, 86160, Note_on_c, 14, 59, 85
24, 86205, Note_on_c, 14, 59, 0
24, 86220, Note_on_c, 14, 59, 85
24, 86265, Note_on_c, 14, 59, 0
24, 86280, Note_on_c, 14, 60, 85
24, 86325, Note_on_c, 14, 60, 0
24, 86340, Note_on_c, 14, 60, 85
24, 86385, Note_on_c, 14, 60, 0
24, 86400, Note_on_c, 14, 62, 85
24, 86445, Note_on_c, 14, 62, 0
24, 86460, Note_on_c, 14, 62, 85
24, 86505, Note_on_c, 14, 62, 0
24, 86520, Note_on_c, 14, 63, 85
24, 86565, Note_on_c, 14, 63, 0
24, 86580, Note_on_c, 14, 63, 85
24, 86625, Note_on_c, 14, 63, 0
24, 86640, Note_on_c, 14, 64, 85
24, 86760, Note_on_c, 14, 64, 0
24, 86880, Note_on_c, 14, 48, 70
24, 87120, Note_on_c, 14, 48, 0
24, 87120, Note_on_c, 14, 50, 70
24, 87360, Note_on_c, 14, 50, 0
24, 87360, Note_on_c, 14, 43, 70
24, 87480, Note_on_c, 14, 43, 0
24, 87840, Note_on_c, 14, 48, 70
24, 88080, Note_on_c, 14, 48, 0
24, 88080, Note_on_c, 14, 50, 70
24, 88320, Note_on_c, 14, 50, 0
24, 88320, Note_on_c, 14, 43, 70
24, 88440, Note_on_c, 14, 43, 0
24, 88800, Note_on_c, 14, 48, 80
24, 88920, Note_on_c, 14, 48, 0
24, 89040, Note_on_c, 14, 50, 109
24, 89160, Note_on_c, 14, 50, 0
24, 89280, Note_on_c, 14, 43, 99
24, 89325, Note_on_c, 14, 43, 0
24, 89340, Note_on_c, 14, 43, 95
24, 89385, Note_on_c, 14, 43, 0
24, 89400, Note_on_c, 14, 43, 93
24, 89445, Note_on_c, 14, 43, 0
24, 89460, Note_on_c, 14, 43, 93
24, 89505, Note_on_c, 14, 43, 0
24, 89520, Note_on_c, 14, 43, 93
24, 89565, Note_on_c, 14, 43, 0
24, 89580, Note_on_c, 14, 43, 94
24, 89625, Note_on_c, 14, 43, 0
24, 89640, Note_on_c, 14, 43, 94
24, 89685, Note_on_c, 14, 43, 0
24, 89700, Note_on_c, 14, 43, 94
24, 89745, Note_on_c, 14, 43, 0
24, 89760, Note_on_c, 14, 43, 94
24, 89805, Note_on_c, 14, 43, 0
24, 89820, Note_on_c, 14, 43, 94
24, 89865, Note_on_c, 14, 43, 0
24, 89880, Note_on_c, 14, 43, 94
24, 89925, Note_on_c, 14, 43, 0
24, 89940, Note_on_c, 14, 43, 94
24, 89985, Note_on_c, 14, 43, 0
24, 90000, Note_on_c, 14, 43, 94
24, 90045, Note_on_c, 14, 43, 0
24, 90060, Note_on_c, 14, 43, 94
24, 90105, Note_on_c, 14, 43, 0
24, 90120, Note_on_c, 14, 43, 94
24, 90165, Note_on_c, 14, 43, 0
24, 90180, Note_on_c, 14, 43, 94
24, 90225, Note_on_c, 14, 43, 0
24, 90240, Note_on_c, 14, 43, 94
24, 90285, Note_on_c, 14, 43, 0
24, 90300, Note_on_c, 14, 43, 94
24, 90345, Note_on_c, 14, 43, 0
24, 90360, Note_on_c, 14, 43, 94
24, 90405, Note_on_c, 14, 43, 0
24, 90420, Note_on_c, 14, 43, 94
24, 90465, Note_on_c, 14, 43, 0
24, 90480, Note_on_c, 14, 43, 94
24, 90525, Note_on_c, 14, 43, 0
24, 90540, Note_on_c, 14, 43, 94
24, 90585, Note_on_c, 14, 43, 0
24, 90600, Note_on_c, 14, 43, 94
24, 90645, Note_on_c, 14, 43, 0
24, 90660, Note_on_c, 14, 43, 94
24, 90705, Note_on_c, 14, 43, 0
24, 90720, Note_on_c, 14, 43, 94
24, 90765, Note_on_c, 14, 43, 0
24, 90780, Note_on_c, 14, 43, 94
24, 90825, Note_on_c, 14, 43, 0
24, 90840, Note_on_c, 14, 43, 94
24, 90885, Note_on_c, 14, 43, 0
24, 90900, Note_on_c, 14, 43, 94
24, 90945, Note_on_c, 14, 43, 0
24, 90960, Note_on_c, 14, 43, 94
24, 91005, Note_on_c, 14, 43, 0
24, 91020, Note_on_c, 14, 43, 94
24, 91065, Note_on_c, 14, 43, 0
24, 91080, Note_on_c, 14, 43, 94
24, 91125, Note_on_c, 14, 43, 0
24, 91140, Note_on_c, 14, 43, 94
24, 91185, Note_on_c, 14, 43, 0
24, 91200, Note_on_c, 14, 43, 94
24, 91245, Note_on_c, 14, 43, 0
24, 91260, Note_on_c, 14, 47, 96
24, 91305, Note_on_c, 14, 47, 0
24, 91320, Note_on_c, 14, 50, 98
24, 91365, Note_on_c, 14, 50, 0
24, 91380, Note_on_c, 14, 55, 98
24, 91425, Note_on_c, 14, 55, 0
24, 91440, Note_on_c, 14, 59, 97
24, 91485, Note_on_c, 14, 59, 0
24, 91500, Note_on_c, 14, 55, 93
24, 91545, Note_on_c, 14, 55, 0
24, 91560, Note_on_c, 14, 62, 92
24, 91605, Note_on_c, 14, 62, 0
24, 91620, Note_on_c, 14, 59, 93
24, 91665, Note_on_c, 14, 59, 0
24, 91680, Note_on_c, 14, 55, 94
24, 91780, Note_on_c, 14, 55, 0
24, 91800, Note_on_c, 14, 43, 94
24, 91860, Note_on_c, 14, 43, 0
24, 91890, Note_on_c, 14, 43, 93
24, 91905, Note_on_c, 14, 43, 0
24, 91920, Note_on_c, 14, 43, 92
24, 92040, Note_on_c, 14, 43, 0
24, 92040, End_track
0, 0, End_of_file
