0, 0, Header, 1, 6, 384
1, 0, Start_track
1, 0, Time_signature, 3, 2, 96, 8
1, 0, Sequencer_specific, 3, 0, 0, 65
1, 0, Sequencer_specific, 5, 0, 0, 119, 14, 0
1, 0, Tempo, 1153846
1, 4608, Tempo, 1250000
1, 6912, Tempo, 1153846
1, 38016, Tempo, 1250000
1, 39168, Tempo, 1363636
1, 39552, Tempo, 681818
1, 40320, Tempo, 1153846
1, 77752, Tempo, 1250000
1, 79488, Tempo, 1153846
1, 93356, Tempo, 1250000
1, 94464, Tempo, 1153846
1, 107704, Tempo, 1250000
1, 108672, Tempo, 681818
1, 109440, Tempo, 1153846
1, 139960, Tempo, 1250000
1, 141696, Tempo, 1034482
1, 152632, Tempo, 1250000
1, 153400, Tempo, 638297
1, 154368, Tempo, 1304347
1, 155136, Tempo, 1428571
1, 155520, Tempo, 1153846
1, 157824, Tempo, 1111111
1, 160128, Tempo, 1250000
1, 161280, Tempo, 1200000
1, 162900, Tempo, 1500000
1, 163584, Tempo, 1363636
1, 164352, Tempo, 1304347
1, 165300, Tempo, 1250000
1, 165888, Tempo, 1200000
1, 166324, Tempo, 1500000
1, 166832, Tempo, 1153846
1, 175280, Tempo, 1250000
1, 177408, Tempo, 1153846
1, 181248, Tempo, 1304347
1, 182016, Tempo, 1428571
1, 182016, End_track
2, 0, Start_track
2, 0, Title_t, "Mozart - Piano"
2, 0, Control_c, 0, 0, 0
2, 0, Program_c, 0, 0
2, 0, Control_c, 0, 7, 127
2, 0, Control_c, 0, 10, 63
2, 0, Control_c, 0, 91, 84
2, 0, Control_c, 0, 93, 45
2, 0, Key_signature, 0, "major"
2, 0, Control_c, 0, 121, 0
2, 384, Control_c, 0, 10, 63
2, 480, Control_c, 0, 91, 63
2, 576, Control_c, 0, 93, 35
2, 672, Program_c, 0, 0
2, 34560, Note_on_c, 0, 67, 66
2, 34940, Note_off_c, 0, 67, 0
2, 34944, Note_on_c, 0, 67, 66
2, 35516, Note_off_c, 0, 67, 0
2, 35520, Note_on_c, 0, 69, 66
2, 35708, Note_off_c, 0, 69, 0
2, 35712, Note_on_c, 0, 69, 66
2, 35900, Note_off_c, 0, 69, 0
2, 35904, Note_on_c, 0, 67, 66
2, 36092, Note_off_c, 0, 67, 0
2, 36096, Note_on_c, 0, 67, 66
2, 36668, Note_off_c, 0, 67, 0
2, 36672, Note_on_c, 0, 67, 66
2, 36860, Note_off_c, 0, 67, 0
2, 36864, Note_on_c, 0, 67, 66
2, 37052, Note_off_c, 0, 67, 0
2, 37056, Note_on_c, 0, 66, 66
2, 37244, Note_off_c, 0, 66, 0
2, 37248, Note_on_c, 0, 76, 66
2, 37820, Note_off_c, 0, 76, 0
2, 37824, Note_on_c, 0, 72, 66
2, 38012, Note_off_c, 0, 72, 0
2, 38016, Note_on_c, 0, 72, 66
2, 38588, Note_off_c, 0, 72, 0
2, 38592, Note_on_c, 0, 71, 66
2, 38684, Note_off_c, 0, 71, 0
2, 38688, Note_on_c, 0, 69, 66
2, 38780, Note_off_c, 0, 69, 0
2, 38784, Note_on_c, 0, 72, 66
2, 38876, Note_off_c, 0, 72, 0
2, 38880, Note_on_c, 0, 71, 66
2, 38972, Note_off_c, 0, 71, 0
2, 38976, Note_on_c, 0, 69, 66
2, 39068, Note_off_c, 0, 69, 0
2, 39072, Note_on_c, 0, 67, 66
2, 39164, Note_off_c, 0, 67, 0
2, 39168, Note_on_c, 0, 67, 66
2, 39548, Note_off_c, 0, 67, 0
2, 40320, Note_on_c, 0, 74, 93
2, 40320, Note_on_c, 0, 70, 93
2, 40320, Note_on_c, 0, 67, 93
2, 40320, Note_on_c, 0, 62, 93
2, 40700, Note_off_c, 0, 74, 0
2, 40700, Note_off_c, 0, 70, 0
2, 40700, Note_off_c, 0, 67, 0
2, 40700, Note_off_c, 0, 62, 0
2, 40704, Note_on_c, 0, 74, 66
2, 40744, Note_off_c, 0, 74, 64
2, 40752, Note_on_c, 0, 75, 66
2, 40792, Note_off_c, 0, 75, 64
2, 40800, Note_on_c, 0, 74, 66
2, 40840, Note_off_c, 0, 74, 64
2, 40848, Note_on_c, 0, 72, 66
2, 40888, Note_off_c, 0, 72, 64
2, 40896, Note_on_c, 0, 74, 66
2, 40936, Note_off_c, 0, 74, 64
2, 40992, Note_on_c, 0, 75, 66
2, 41084, Note_off_c, 0, 75, 64
2, 41088, Note_on_c, 0, 79, 66
2, 41276, Note_off_c, 0, 79, 0
2, 41280, Note_on_c, 0, 70, 66
2, 41468, Note_off_c, 0, 70, 0
2, 41472, Note_on_c, 0, 69, 93
2, 41512, Note_off_c, 0, 69, 64
2, 41520, Note_on_c, 0, 70, 93
2, 41560, Note_off_c, 0, 70, 64
2, 41568, Note_on_c, 0, 69, 93
2, 41608, Note_off_c, 0, 69, 64
2, 41616, Note_on_c, 0, 67, 93
2, 41656, Note_off_c, 0, 67, 64
2, 41664, Note_on_c, 0, 69, 93
2, 41704, Note_off_c, 0, 69, 64
2, 41760, Note_on_c, 0, 70, 66
2, 41852, Note_off_c, 0, 70, 64
2, 41856, Note_on_c, 0, 72, 66
2, 42236, Note_off_c, 0, 72, 0
2, 42432, Note_on_c, 0, 72, 66
2, 42620, Note_off_c, 0, 72, 0
2, 42624, Note_on_c, 0, 81, 66
2, 42716, Note_off_c, 0, 81, 0
2, 42720, Note_on_c, 0, 78, 66
2, 42812, Note_off_c, 0, 78, 0
2, 42816, Note_on_c, 0, 84, 66
2, 43196, Note_off_c, 0, 84, 0
2, 43200, Note_on_c, 0, 82, 66
2, 43292, Note_off_c, 0, 82, 0
2, 43296, Note_on_c, 0, 81, 66
2, 43388, Note_off_c, 0, 81, 0
2, 43392, Note_on_c, 0, 79, 66
2, 43484, Note_off_c, 0, 79, 0
2, 43488, Note_on_c, 0, 78, 66
2, 43580, Note_off_c, 0, 78, 0
2, 43584, Note_on_c, 0, 75, 66
2, 43676, Note_off_c, 0, 75, 0
2, 43680, Note_on_c, 0, 74, 66
2, 43772, Note_off_c, 0, 74, 0
2, 43776, Note_on_c, 0, 74, 66
2, 44060, Note_off_c, 0, 74, 0
2, 44064, Note_on_c, 0, 72, 66
2, 44156, Note_off_c, 0, 72, 0
2, 44160, Note_on_c, 0, 70, 66
2, 44540, Note_off_c, 0, 70, 0
2, 44736, Note_on_c, 0, 67, 66
2, 44924, Note_off_c, 0, 67, 0
2, 44928, Note_on_c, 0, 67, 66
2, 45308, Note_off_c, 0, 67, 0
2, 45312, Note_on_c, 0, 86, 66
2, 45884, Note_off_c, 0, 86, 0
2, 45888, Note_on_c, 0, 70, 66
2, 46076, Note_off_c, 0, 70, 0
2, 46080, Note_on_c, 0, 68, 67
2, 46460, Note_off_c, 0, 68, 0
2, 46464, Note_on_c, 0, 87, 77
2, 47036, Note_off_c, 0, 87, 0
2, 47040, Note_on_c, 0, 84, 88
2, 47228, Note_off_c, 0, 84, 0
2, 47232, Note_on_c, 0, 84, 88
2, 47420, Note_off_c, 0, 84, 0
2, 47424, Note_on_c, 0, 82, 88
2, 47612, Note_off_c, 0, 82, 0
2, 47616, Note_on_c, 0, 82, 88
2, 48092, Note_off_c, 0, 82, 0
2, 48096, Note_on_c, 0, 84, 88
2, 48136, Note_off_c, 0, 84, 0
2, 48144, Note_on_c, 0, 82, 88
2, 48184, Note_off_c, 0, 82, 0
2, 48192, Note_on_c, 0, 81, 88
2, 48280, Note_off_c, 0, 81, 0
2, 48288, Note_on_c, 0, 79, 88
2, 48328, Note_off_c, 0, 79, 0
2, 48384, Note_on_c, 0, 79, 86
2, 48476, Note_off_c, 0, 79, 0
2, 48480, Note_on_c, 0, 78, 84
2, 48572, Note_off_c, 0, 78, 0
2, 48576, Note_on_c, 0, 76, 81
2, 48668, Note_off_c, 0, 76, 0
2, 48672, Note_on_c, 0, 74, 79
2, 48764, Note_off_c, 0, 74, 0
2, 48768, Note_on_c, 0, 74, 75
2, 49148, Note_off_c, 0, 74, 0
2, 52416, Note_on_c, 0, 74, 66
2, 52604, Note_off_c, 0, 74, 0
2, 52608, Note_on_c, 0, 78, 70
2, 52796, Note_off_c, 0, 78, 0
2, 52800, Note_on_c, 0, 81, 75
2, 52988, Note_off_c, 0, 81, 0
2, 52992, Note_on_c, 0, 86, 80
2, 53468, Note_off_c, 0, 86, 0
2, 53472, Note_on_c, 0, 88, 84
2, 53512, Note_off_c, 0, 88, 0
2, 53520, Note_on_c, 0, 86, 83
2, 53560, Note_off_c, 0, 86, 0
2, 53568, Note_on_c, 0, 84, 81
2, 53608, Note_off_c, 0, 84, 0
2, 53616, Note_on_c, 0, 83, 80
2, 53656, Note_off_c, 0, 83, 0
2, 53664, Note_on_c, 0, 81, 79
2, 53704, Note_off_c, 0, 81, 0
2, 53712, Note_on_c, 0, 79, 77
2, 53752, Note_off_c, 0, 79, 0
2, 53760, Note_on_c, 0, 77, 75
2, 53948, Note_off_c, 0, 77, 0
2, 53952, Note_on_c, 0, 77, 70
2, 54140, Note_off_c, 0, 77, 0
2, 54144, Note_on_c, 0, 75, 66
2, 54332, Note_off_c, 0, 75, 0
2, 54336, Note_on_c, 0, 76, 66
2, 54716, Note_off_c, 0, 76, 0
2, 54720, Note_on_c, 0, 88, 85
2, 54960, Note_on_c, 0, 86, 80
2, 54972, Note_off_c, 0, 88, 0
2, 55000, Note_off_c, 0, 86, 0
2, 55008, Note_on_c, 0, 84, 79
2, 55048, Note_off_c, 0, 84, 0
2, 55056, Note_on_c, 0, 83, 78
2, 55096, Note_off_c, 0, 83, 0
2, 55104, Note_on_c, 0, 81, 77
2, 55144, Note_off_c, 0, 81, 0
2, 55152, Note_on_c, 0, 79, 75
2, 55192, Note_off_c, 0, 79, 0
2, 55200, Note_on_c, 0, 78, 74
2, 55240, Note_off_c, 0, 78, 0
2, 55248, Note_on_c, 0, 76, 73
2, 55288, Note_off_c, 0, 76, 0
2, 55296, Note_on_c, 0, 73, 72
2, 55484, Note_off_c, 0, 73, 0
2, 55488, Note_on_c, 0, 74, 68
2, 55868, Note_off_c, 0, 74, 0
2, 55872, Note_on_c, 0, 86, 85
2, 56112, Note_on_c, 0, 84, 80
2, 56124, Note_off_c, 0, 86, 0
2, 56152, Note_off_c, 0, 84, 0
2, 56160, Note_on_c, 0, 83, 79
2, 56200, Note_off_c, 0, 83, 0
2, 56208, Note_on_c, 0, 81, 78
2, 56248, Note_off_c, 0, 81, 0
2, 56256, Note_on_c, 0, 80, 77
2, 56296, Note_off_c, 0, 80, 0
2, 56304, Note_on_c, 0, 77, 75
2, 56344, Note_off_c, 0, 77, 0
2, 56352, Note_on_c, 0, 76, 74
2, 56392, Note_off_c, 0, 76, 0
2, 56400, Note_on_c, 0, 74, 73
2, 56440, Note_off_c, 0, 74, 0
2, 56448, Note_on_c, 0, 71, 72
2, 56636, Note_off_c, 0, 71, 0
2, 56640, Note_on_c, 0, 72, 68
2, 57020, Note_off_c, 0, 72, 0
2, 57024, Note_on_c, 0, 84, 85
2, 57264, Note_on_c, 0, 83, 80
2, 57276, Note_off_c, 0, 84, 0
2, 57304, Note_off_c, 0, 83, 0
2, 57312, Note_on_c, 0, 81, 79
2, 57352, Note_off_c, 0, 81, 0
2, 57360, Note_on_c, 0, 79, 78
2, 57400, Note_off_c, 0, 79, 0
2, 57408, Note_on_c, 0, 78, 77
2, 57448, Note_off_c, 0, 78, 0
2, 57456, Note_on_c, 0, 76, 75
2, 57496, Note_off_c, 0, 76, 0
2, 57504, Note_on_c, 0, 74, 74
2, 57544, Note_off_c, 0, 74, 0
2, 57552, Note_on_c, 0, 72, 73
2, 57592, Note_off_c, 0, 72, 0
2, 57600, Note_on_c, 0, 71, 72
2, 57692, Note_off_c, 0, 71, 0
2, 57696, Note_on_c, 0, 83, 70
2, 57788, Note_off_c, 0, 83, 0
2, 57792, Note_on_c, 0, 81, 68
2, 57884, Note_off_c, 0, 81, 0
2, 57888, Note_on_c, 0, 79, 66
2, 57980, Note_off_c, 0, 79, 0
2, 57984, Note_on_c, 0, 78, 67
2, 58076, Note_off_c, 0, 78, 0
2, 58080, Note_on_c, 0, 84, 69
2, 58172, Note_off_c, 0, 84, 0
2, 58176, Note_on_c, 0, 81, 72
2, 58268, Note_off_c, 0, 81, 0
2, 58272, Note_on_c, 0, 78, 74
2, 58364, Note_off_c, 0, 78, 0
2, 58368, Note_on_c, 0, 79, 78
2, 58460, Note_off_c, 0, 79, 0
2, 58464, Note_on_c, 0, 86, 81
2, 58556, Note_off_c, 0, 86, 0
2, 58560, Note_on_c, 0, 83, 83
2, 58652, Note_off_c, 0, 83, 0
2, 58656, Note_on_c, 0, 77, 86
2, 58748, Note_off_c, 0, 77, 0
2, 58752, Note_on_c, 0, 75, 88
2, 58844, Note_off_c, 0, 75, 0
2, 58848, Note_on_c, 0, 76, 88
2, 58940, Note_off_c, 0, 76, 0
2, 58944, Note_on_c, 0, 76, 88
2, 59184, Note_on_c, 0, 77, 88
2, 59196, Note_off_c, 0, 76, 0
2, 59224, Note_off_c, 0, 77, 0
2, 59232, Note_on_c, 0, 76, 88
2, 59272, Note_off_c, 0, 76, 0
2, 59280, Note_on_c, 0, 75, 88
2, 59320, Note_off_c, 0, 75, 0
2, 59328, Note_on_c, 0, 76, 88
2, 59368, Note_off_c, 0, 76, 0
2, 59376, Note_on_c, 0, 77, 88
2, 59416, Note_off_c, 0, 77, 0
2, 59424, Note_on_c, 0, 76, 88
2, 59464, Note_off_c, 0, 76, 0
2, 59472, Note_on_c, 0, 75, 88
2, 59512, Note_off_c, 0, 75, 0
2, 59520, Note_on_c, 0, 76, 88
2, 59560, Note_off_c, 0, 76, 0
2, 59568, Note_on_c, 0, 78, 88
2, 59608, Note_off_c, 0, 78, 0
2, 59616, Note_on_c, 0, 79, 88
2, 59656, Note_off_c, 0, 79, 0
2, 59664, Note_on_c, 0, 78, 88
2, 59704, Note_off_c, 0, 78, 0
2, 59712, Note_on_c, 0, 81, 88
2, 59752, Note_off_c, 0, 81, 0
2, 59760, Note_on_c, 0, 79, 88
2, 59800, Note_off_c, 0, 79, 0
2, 59808, Note_on_c, 0, 78, 88
2, 59848, Note_off_c, 0, 78, 0
2, 59856, Note_on_c, 0, 76, 88
2, 59896, Note_off_c, 0, 76, 0
2, 59904, Note_on_c, 0, 76, 88
2, 60092, Note_off_c, 0, 76, 0
2, 60096, Note_on_c, 0, 74, 88
2, 60476, Note_off_c, 0, 74, 0
2, 60480, Note_on_c, 0, 72, 88
2, 60764, Note_off_c, 0, 72, 0
2, 60768, Note_on_c, 0, 71, 88
2, 60860, Note_off_c, 0, 71, 0
2, 60864, Note_on_c, 0, 79, 88
2, 60956, Note_off_c, 0, 79, 0
2, 60960, Note_on_c, 0, 77, 88
2, 61052, Note_off_c, 0, 77, 0
2, 61056, Note_on_c, 0, 75, 88
2, 61148, Note_off_c, 0, 75, 0
2, 61152, Note_on_c, 0, 78, 88
2, 61192, Note_off_c, 0, 78, 0
2, 61200, Note_on_c, 0, 76, 88
2, 61240, Note_off_c, 0, 76, 0
2, 61248, Note_on_c, 0, 74, 88
2, 61288, Note_off_c, 0, 74, 0
2, 61296, Note_on_c, 0, 72, 88
2, 61336, Note_off_c, 0, 72, 0
2, 61344, Note_on_c, 0, 71, 88
2, 61384, Note_off_c, 0, 71, 0
2, 61392, Note_on_c, 0, 69, 88
2, 61432, Note_off_c, 0, 69, 0
2, 61440, Note_on_c, 0, 69, 88
2, 61532, Note_off_c, 0, 69, 0
2, 61536, Note_on_c, 0, 67, 88
2, 61628, Note_off_c, 0, 67, 0
2, 61632, Note_on_c, 0, 67, 86
2, 61824, Note_on_c, 0, 67, 79
2, 61860, Note_off_c, 0, 67, 64
2, 61864, Note_on_c, 0, 69, 78
2, 61876, Note_off_c, 0, 67, 0
2, 61900, Note_off_c, 0, 69, 0
2, 61904, Note_on_c, 0, 67, 77
2, 61940, Note_off_c, 0, 67, 0
2, 61944, Note_on_c, 0, 66, 74
2, 61980, Note_off_c, 0, 66, 0
2, 61984, Note_on_c, 0, 67, 73
2, 62016, Note_on_c, 0, 71, 71
2, 62016, Note_on_c, 0, 66, 71
2, 62020, Note_off_c, 0, 67, 0
2, 62108, Note_off_c, 0, 71, 0
2, 62112, Note_on_c, 0, 69, 68
2, 62204, Note_off_c, 0, 66, 0
2, 62204, Note_off_c, 0, 69, 0
2, 62208, Note_on_c, 0, 67, 66
2, 62588, Note_off_c, 0, 67, 0
2, 64512, Note_on_c, 0, 86, 66
2, 64512, Note_on_c, 0, 83, 66
2, 64512, Note_on_c, 0, 74, 66
2, 64512, Note_on_c, 0, 71, 66
2, 65276, Note_off_c, 0, 86, 0
2, 65276, Note_off_c, 0, 83, 0
2, 65276, Note_off_c, 0, 74, 0
2, 65276, Note_off_c, 0, 71, 0
2, 65280, Note_on_c, 0, 85, 66
2, 65280, Note_on_c, 0, 82, 66
2, 65280, Note_on_c, 0, 73, 66
2, 65280, Note_on_c, 0, 70, 66
2, 65660, Note_off_c, 0, 85, 0
2, 65660, Note_off_c, 0, 82, 0
2, 65660, Note_off_c, 0, 73, 0
2, 65660, Note_off_c, 0, 70, 0
2, 65664, Note_on_c, 0, 84, 66
2, 65664, Note_on_c, 0, 81, 66
2, 65664, Note_on_c, 0, 72, 66
2, 65664, Note_on_c, 0, 69, 66
2, 65852, Note_off_c, 0, 72, 0
2, 65852, Note_off_c, 0, 69, 0
2, 65948, Note_off_c, 0, 84, 0
2, 65948, Note_off_c, 0, 81, 0
2, 65952, Note_on_c, 0, 82, 66
2, 65952, Note_on_c, 0, 86, 66
2, 65952, Note_on_c, 0, 74, 66
2, 65952, Note_on_c, 0, 70, 66
2, 66044, Note_off_c, 0, 82, 0
2, 66044, Note_off_c, 0, 86, 0
2, 66044, Note_off_c, 0, 74, 0
2, 66044, Note_off_c, 0, 70, 0
2, 66048, Note_on_c, 0, 87, 66
2, 66048, Note_on_c, 0, 84, 66
2, 66048, Note_on_c, 0, 75, 66
2, 66048, Note_on_c, 0, 72, 66
2, 66428, Note_off_c, 0, 87, 0
2, 66428, Note_off_c, 0, 84, 0
2, 66428, Note_off_c, 0, 75, 0
2, 66428, Note_off_c, 0, 72, 0
2, 66432, Note_on_c, 0, 81, 66
2, 66432, Note_on_c, 0, 78, 66
2, 66432, Note_on_c, 0, 69, 66
2, 66432, Note_on_c, 0, 66, 66
2, 66812, Note_off_c, 0, 81, 0
2, 66812, Note_off_c, 0, 78, 0
2, 66812, Note_off_c, 0, 69, 0
2, 66812, Note_off_c, 0, 66, 0
2, 66816, Note_on_c, 0, 83, 66
2, 66816, Note_on_c, 0, 79, 66
2, 66816, Note_on_c, 0, 71, 66
2, 66816, Note_on_c, 0, 67, 66
2, 66876, Note_off_c, 0, 83, 0
2, 66876, Note_off_c, 0, 79, 0
2, 66880, Note_on_c, 0, 86, 66
2, 66940, Note_off_c, 0, 86, 0
2, 66944, Note_on_c, 0, 84, 66
2, 67004, Note_off_c, 0, 71, 0
2, 67004, Note_off_c, 0, 67, 0
2, 67004, Note_off_c, 0, 84, 0
2, 67008, Note_on_c, 0, 83, 66
2, 67068, Note_off_c, 0, 83, 0
2, 67072, Note_on_c, 0, 81, 66
2, 67132, Note_off_c, 0, 81, 0
2, 67136, Note_on_c, 0, 79, 66
2, 67196, Note_off_c, 0, 79, 0
2, 67200, Note_on_c, 0, 78, 66
2, 67260, Note_off_c, 0, 78, 0
2, 67264, Note_on_c, 0, 84, 66
2, 67324, Note_off_c, 0, 84, 0
2, 67328, Note_on_c, 0, 83, 66
2, 67388, Note_off_c, 0, 83, 0
2, 67392, Note_on_c, 0, 81, 66
2, 67452, Note_off_c, 0, 81, 0
2, 67456, Note_on_c, 0, 79, 66
2, 67516, Note_off_c, 0, 79, 0
2, 67520, Note_on_c, 0, 78, 66
2, 67580, Note_off_c, 0, 78, 0
2, 67584, Note_on_c, 0, 79, 66
2, 67644, Note_off_c, 0, 79, 0
2, 67648, Note_on_c, 0, 81, 66
2, 67708, Note_off_c, 0, 81, 0
2, 67712, Note_on_c, 0, 79, 66
2, 67772, Note_off_c, 0, 79, 0
2, 67776, Note_on_c, 0, 77, 66
2, 67836, Note_off_c, 0, 77, 0
2, 67840, Note_on_c, 0, 76, 66
2, 67900, Note_off_c, 0, 76, 0
2, 67904, Note_on_c, 0, 75, 66
2, 67964, Note_off_c, 0, 75, 0
2, 67968, Note_on_c, 0, 75, 66
2, 68156, Note_off_c, 0, 75, 0
2, 68160, Note_on_c, 0, 76, 66
2, 68348, Note_off_c, 0, 76, 0
2, 68928, Note_on_c, 0, 80, 66
2, 68928, Note_on_c, 0, 68, 66
2, 69116, Note_off_c, 0, 80, 0
2, 69116, Note_off_c, 0, 68, 0
2, 69120, Note_on_c, 0, 81, 66
2, 69120, Note_on_c, 0, 69, 66
2, 69308, Note_off_c, 0, 81, 0
2, 69308, Note_off_c, 0, 69, 0
2, 70080, Note_on_c, 0, 83, 66
2, 70080, Note_on_c, 0, 71, 66
2, 70268, Note_off_c, 0, 83, 0
2, 70268, Note_off_c, 0, 71, 0
2, 70272, Note_on_c, 0, 84, 66
2, 70272, Note_on_c, 0, 72, 66
2, 70460, Note_off_c, 0, 84, 0
2, 70460, Note_off_c, 0, 72, 0
2, 71232, Note_on_c, 0, 61, 66
2, 71420, Note_off_c, 0, 61, 0
2, 71424, Note_on_c, 0, 62, 67
2, 71516, Note_off_c, 0, 62, 0
2, 71520, Note_on_c, 0, 67, 68
2, 71708, Note_off_c, 0, 67, 0
2, 71712, Note_on_c, 0, 71, 72
2, 71900, Note_off_c, 0, 71, 0
2, 71904, Note_on_c, 0, 74, 75
2, 72092, Note_off_c, 0, 74, 0
2, 72096, Note_on_c, 0, 79, 80
2, 72284, Note_off_c, 0, 79, 0
2, 72288, Note_on_c, 0, 83, 83
2, 72476, Note_off_c, 0, 83, 0
2, 72480, Note_on_c, 0, 86, 88
2, 72572, Note_off_c, 0, 86, 0
2, 72576, Note_on_c, 0, 83, 88
2, 72600, Note_off_c, 0, 83, 0
2, 72604, Note_on_c, 0, 81, 88
2, 72628, Note_off_c, 0, 81, 0
2, 72632, Note_on_c, 0, 83, 86
2, 72656, Note_off_c, 0, 83, 0
2, 72660, Note_on_c, 0, 81, 86
2, 72684, Note_off_c, 0, 81, 0
2, 72688, Note_on_c, 0, 83, 85
2, 72712, Note_off_c, 0, 83, 0
2, 72716, Note_on_c, 0, 81, 85
2, 72740, Note_off_c, 0, 81, 0
2, 72744, Note_on_c, 0, 83, 84
2, 72768, Note_off_c, 0, 83, 0
2, 72772, Note_on_c, 0, 81, 84
2, 72796, Note_off_c, 0, 81, 0
2, 72800, Note_on_c, 0, 83, 83
2, 72824, Note_off_c, 0, 83, 0
2, 72828, Note_on_c, 0, 81, 83
2, 72852, Note_off_c, 0, 81, 0
2, 72856, Note_on_c, 0, 83, 82
2, 72880, Note_off_c, 0, 83, 0
2, 72884, Note_on_c, 0, 81, 82
2, 72908, Note_off_c, 0, 81, 0
2, 72912, Note_on_c, 0, 83, 81
2, 72936, Note_off_c, 0, 83, 0
2, 72940, Note_on_c, 0, 81, 81
2, 72964, Note_off_c, 0, 81, 0
2, 72972, Note_on_c, 0, 83, 80
2, 72996, Note_off_c, 0, 83, 0
2, 73000, Note_on_c, 0, 81, 79
2, 73024, Note_off_c, 0, 81, 0
2, 73028, Note_on_c, 0, 83, 79
2, 73052, Note_off_c, 0, 83, 0
2, 73056, Note_on_c, 0, 81, 78
2, 73080, Note_off_c, 0, 81, 0
2, 73084, Note_on_c, 0, 83, 78
2, 73108, Note_off_c, 0, 83, 0
2, 73112, Note_on_c, 0, 81, 77
2, 73136, Note_off_c, 0, 81, 0
2, 73140, Note_on_c, 0, 83, 77
2, 73164, Note_off_c, 0, 83, 64
2, 73168, Note_on_c, 0, 81, 75
2, 73192, Note_off_c, 0, 81, 64
2, 73196, Note_on_c, 0, 83, 75
2, 73220, Note_off_c, 0, 83, 64
2, 73224, Note_on_c, 0, 81, 74
2, 73248, Note_off_c, 0, 81, 64
2, 73252, Note_on_c, 0, 83, 74
2, 73276, Note_off_c, 0, 83, 64
2, 73280, Note_on_c, 0, 81, 73
2, 73304, Note_off_c, 0, 81, 64
2, 73312, Note_on_c, 0, 83, 72
2, 73328, Note_on_c, 0, 81, 72
2, 73336, Note_off_c, 0, 83, 64
2, 73352, Note_off_c, 0, 81, 64
2, 73360, Note_on_c, 0, 83, 71
2, 73384, Note_off_c, 0, 83, 64
2, 73388, Note_on_c, 0, 81, 71
2, 73412, Note_off_c, 0, 81, 64
2, 73416, Note_on_c, 0, 83, 70
2, 73440, Note_off_c, 0, 83, 64
2, 73444, Note_on_c, 0, 81, 70
2, 73468, Note_off_c, 0, 81, 64
2, 73472, Note_on_c, 0, 83, 69
2, 73496, Note_off_c, 0, 83, 64
2, 73504, Note_on_c, 0, 81, 69
2, 73528, Note_off_c, 0, 81, 64
2, 73536, Note_on_c, 0, 79, 68
2, 73628, Note_off_c, 0, 79, 0
2, 73632, Note_on_c, 0, 81, 67
2, 73724, Note_off_c, 0, 81, 0
2, 73728, Note_on_c, 0, 79, 66
2, 73732, Note_off_c, 0, 81, 0
2, 74108, Note_off_c, 0, 79, 0
2, 79488, Note_on_c, 0, 77, 66
2, 79488, Note_on_c, 0, 69, 66
2, 79868, Note_off_c, 0, 77, 0
2, 79868, Note_off_c, 0, 69, 0
2, 79872, Note_on_c, 0, 76, 66
2, 79872, Note_on_c, 0, 67, 66
2, 80252, Note_off_c, 0, 76, 0
2, 80252, Note_off_c, 0, 67, 0
2, 80256, Note_on_c, 0, 79, 66
2, 80256, Note_on_c, 0, 70, 66
2, 80636, Note_off_c, 0, 79, 0
2, 80636, Note_off_c, 0, 70, 0
2, 80640, Note_on_c, 0, 73, 66
2, 80640, Note_on_c, 0, 64, 66
2, 81020, Note_off_c, 0, 73, 0
2, 81020, Note_off_c, 0, 64, 0
2, 81024, Note_on_c, 0, 74, 66
2, 81024, Note_on_c, 0, 65, 66
2, 81396, Note_off_c, 0, 74, 0
2, 81396, Note_off_c, 0, 65, 0
2, 81600, Note_on_c, 0, 74, 66
2, 81632, Note_off_c, 0, 74, 64
2, 81636, Note_on_c, 0, 76, 66
2, 81668, Note_off_c, 0, 76, 64
2, 81672, Note_on_c, 0, 74, 66
2, 81704, Note_off_c, 0, 74, 64
2, 81708, Note_on_c, 0, 73, 66
2, 81740, Note_off_c, 0, 73, 64
2, 81744, Note_on_c, 0, 74, 66
2, 81776, Note_off_c, 0, 74, 64
2, 81792, Note_on_c, 0, 77, 66
2, 81980, Note_off_c, 0, 77, 0
2, 81984, Note_on_c, 0, 76, 66
2, 82172, Note_off_c, 0, 76, 0
2, 82368, Note_on_c, 0, 76, 67
2, 82400, Note_off_c, 0, 76, 64
2, 82404, Note_on_c, 0, 77, 68
2, 82436, Note_off_c, 0, 77, 64
2, 82440, Note_on_c, 0, 76, 68
2, 82472, Note_off_c, 0, 76, 64
2, 82476, Note_on_c, 0, 75, 69
2, 82508, Note_off_c, 0, 75, 64
2, 82512, Note_on_c, 0, 76, 70
2, 82544, Note_off_c, 0, 76, 64
2, 82560, Note_on_c, 0, 82, 71
2, 82748, Note_off_c, 0, 82, 0
2, 82752, Note_on_c, 0, 81, 75
2, 82940, Note_off_c, 0, 81, 0
2, 82944, Note_on_c, 0, 79, 80
2, 83132, Note_off_c, 0, 79, 0
2, 83136, Note_on_c, 0, 77, 84
2, 83324, Note_off_c, 0, 77, 0
2, 83520, Note_on_c, 0, 74, 88
2, 83900, Note_off_c, 0, 74, 0
2, 83904, Note_on_c, 0, 86, 88
2, 84092, Note_off_c, 0, 86, 0
2, 84096, Note_on_c, 0, 84, 88
2, 84188, Note_off_c, 0, 84, 0
2, 84192, Note_on_c, 0, 82, 88
2, 84284, Note_off_c, 0, 82, 0
2, 84288, Note_on_c, 0, 81, 88
2, 84380, Note_off_c, 0, 81, 0
2, 84384, Note_on_c, 0, 79, 88
2, 84476, Note_off_c, 0, 79, 0
2, 84480, Note_on_c, 0, 77, 86
2, 84668, Note_off_c, 0, 77, 0
2, 84672, Note_on_c, 0, 81, 83
2, 84704, Note_off_c, 0, 81, 64
2, 84708, Note_on_c, 0, 82, 82
2, 84740, Note_off_c, 0, 82, 64
2, 84744, Note_on_c, 0, 81, 81
2, 84776, Note_off_c, 0, 81, 64
2, 84780, Note_on_c, 0, 79, 80
2, 84812, Note_off_c, 0, 79, 64
2, 84816, Note_on_c, 0, 81, 79
2, 84848, Note_off_c, 0, 81, 64
2, 84864, Note_on_c, 0, 81, 78
2, 84956, Note_off_c, 0, 81, 64
2, 84960, Note_on_c, 0, 79, 77
2, 85052, Note_off_c, 0, 79, 0
2, 85056, Note_on_c, 0, 76, 75
2, 85148, Note_off_c, 0, 76, 0
2, 85152, Note_on_c, 0, 73, 72
2, 85244, Note_off_c, 0, 73, 0
2, 85248, Note_on_c, 0, 74, 69
2, 85628, Note_off_c, 0, 74, 0
2, 86208, Note_on_c, 0, 77, 66
2, 86396, Note_off_c, 0, 77, 0
2, 86400, Note_on_c, 0, 77, 68
2, 86492, Note_off_c, 0, 77, 0
2, 86496, Note_on_c, 0, 76, 73
2, 86588, Note_off_c, 0, 76, 0
2, 86592, Note_on_c, 0, 86, 79
2, 86972, Note_off_c, 0, 86, 0
2, 86976, Note_on_c, 0, 84, 88
2, 87068, Note_off_c, 0, 84, 0
2, 87072, Note_on_c, 0, 83, 88
2, 87164, Note_off_c, 0, 83, 0
2, 87168, Note_on_c, 0, 81, 86
2, 87260, Note_off_c, 0, 81, 0
2, 87264, Note_on_c, 0, 80, 81
2, 87356, Note_off_c, 0, 80, 0
2, 87360, Note_on_c, 0, 77, 75
2, 87452, Note_off_c, 0, 77, 0
2, 87456, Note_on_c, 0, 76, 70
2, 87548, Note_off_c, 0, 76, 0
2, 87552, Note_on_c, 0, 74, 66
2, 87644, Note_off_c, 0, 74, 0
2, 87648, Note_on_c, 0, 72, 66
2, 87740, Note_off_c, 0, 72, 0
2, 88512, Note_on_c, 0, 72, 66
2, 88764, Note_off_c, 0, 72, 0
2, 88768, Note_on_c, 0, 71, 70
2, 88828, Note_off_c, 0, 71, 0
2, 88832, Note_on_c, 0, 78, 74
2, 88892, Note_off_c, 0, 78, 0
2, 88896, Note_on_c, 0, 76, 79
2, 88956, Note_off_c, 0, 76, 0
2, 88960, Note_on_c, 0, 75, 83
2, 89020, Note_off_c, 0, 75, 0
2, 89024, Note_on_c, 0, 81, 86
2, 89084, Note_off_c, 0, 81, 0
2, 89088, Note_on_c, 0, 79, 88
2, 89148, Note_off_c, 0, 79, 0
2, 89152, Note_on_c, 0, 78, 88
2, 89212, Note_off_c, 0, 78, 0
2, 89216, Note_on_c, 0, 84, 88
2, 89276, Note_off_c, 0, 84, 0
2, 89280, Note_on_c, 0, 83, 88
2, 89340, Note_off_c, 0, 83, 0
2, 89344, Note_on_c, 0, 81, 88
2, 89404, Note_off_c, 0, 81, 0
2, 89408, Note_on_c, 0, 79, 88
2, 89468, Note_off_c, 0, 79, 0
2, 89472, Note_on_c, 0, 78, 86
2, 89532, Note_off_c, 0, 78, 0
2, 89536, Note_on_c, 0, 81, 83
2, 89596, Note_off_c, 0, 81, 0
2, 89600, Note_on_c, 0, 69, 79
2, 89660, Note_off_c, 0, 69, 0
2, 89664, Note_on_c, 0, 72, 75
2, 89724, Note_off_c, 0, 72, 0
2, 89728, Note_on_c, 0, 66, 71
2, 89788, Note_off_c, 0, 66, 0
2, 89792, Note_on_c, 0, 71, 68
2, 89852, Note_off_c, 0, 71, 0
2, 89856, Note_on_c, 0, 69, 66
2, 90044, Note_off_c, 0, 69, 0
2, 90048, Note_on_c, 0, 67, 66
2, 90236, Note_off_c, 0, 67, 0
2, 91104, Note_on_c, 0, 66, 88
2, 91196, Note_off_c, 0, 66, 0
2, 91200, Note_on_c, 0, 85, 88
2, 91484, Note_off_c, 0, 85, 0
2, 91488, Note_on_c, 0, 70, 88
2, 91580, Note_off_c, 0, 70, 0
2, 91584, Note_on_c, 0, 88, 88
2, 91868, Note_off_c, 0, 88, 0
2, 91872, Note_on_c, 0, 86, 85
2, 91912, Note_off_c, 0, 86, 0
2, 91920, Note_on_c, 0, 85, 83
2, 91960, Note_off_c, 0, 85, 0
2, 91968, Note_on_c, 0, 83, 81
2, 92008, Note_off_c, 0, 83, 0
2, 92016, Note_on_c, 0, 82, 79
2, 92056, Note_off_c, 0, 82, 0
2, 92064, Note_on_c, 0, 79, 77
2, 92104, Note_off_c, 0, 79, 0
2, 92112, Note_on_c, 0, 78, 74
2, 92152, Note_off_c, 0, 78, 0
2, 92160, Note_on_c, 0, 76, 72
2, 92252, Note_off_c, 0, 76, 0
2, 92256, Note_on_c, 0, 74, 70
2, 92348, Note_off_c, 0, 74, 0
2, 93360, Note_on_c, 0, 68, 70
2, 93400, Note_off_c, 0, 68, 0
2, 93408, Note_on_c, 0, 74, 73
2, 93448, Note_off_c, 0, 74, 0
2, 93456, Note_on_c, 0, 73, 77
2, 93496, Note_off_c, 0, 73, 0
2, 93504, Note_on_c, 0, 71, 81
2, 93544, Note_off_c, 0, 71, 0
2, 93552, Note_on_c, 0, 80, 84
2, 93592, Note_off_c, 0, 80, 0
2, 93600, Note_on_c, 0, 78, 88
2, 93640, Note_off_c, 0, 78, 0
2, 93648, Note_on_c, 0, 77, 91
2, 93688, Note_off_c, 0, 77, 0
2, 93696, Note_on_c, 0, 83, 93
2, 93736, Note_off_c, 0, 83, 0
2, 93744, Note_on_c, 0, 81, 93
2, 93784, Note_off_c, 0, 81, 0
2, 93792, Note_on_c, 0, 80, 93
2, 93832, Note_off_c, 0, 80, 0
2, 93840, Note_on_c, 0, 86, 93
2, 93880, Note_off_c, 0, 86, 0
2, 93888, Note_on_c, 0, 85, 93
2, 93928, Note_off_c, 0, 85, 0
2, 93936, Note_on_c, 0, 83, 93
2, 93976, Note_off_c, 0, 83, 0
2, 93984, Note_on_c, 0, 81, 93
2, 94024, Note_off_c, 0, 81, 0
2, 94032, Note_on_c, 0, 80, 93
2, 94072, Note_off_c, 0, 80, 0
2, 94080, Note_on_c, 0, 78, 93
2, 94120, Note_off_c, 0, 78, 0
2, 94128, Note_on_c, 0, 77, 93
2, 94168, Note_off_c, 0, 77, 0
2, 94176, Note_on_c, 0, 80, 93
2, 94216, Note_off_c, 0, 80, 0
2, 94224, Note_on_c, 0, 78, 93
2, 94264, Note_off_c, 0, 78, 0
2, 94272, Note_on_c, 0, 77, 93
2, 94312, Note_off_c, 0, 77, 0
2, 94320, Note_on_c, 0, 74, 93
2, 94360, Note_off_c, 0, 74, 0
2, 94368, Note_on_c, 0, 73, 93
2, 94408, Note_off_c, 0, 73, 0
2, 94416, Note_on_c, 0, 71, 93
2, 94456, Note_off_c, 0, 71, 0
2, 94464, Note_on_c, 0, 71, 89
2, 94556, Note_off_c, 0, 71, 0
2, 94560, Note_on_c, 0, 70, 89
2, 94652, Note_off_c, 0, 70, 0
2, 94656, Note_on_c, 0, 69, 89
2, 95036, Note_off_c, 0, 69, 0
2, 95040, Note_on_c, 0, 81, 88
2, 95420, Note_off_c, 0, 81, 0
2, 95424, Note_on_c, 0, 80, 88
2, 95708, Note_off_c, 0, 80, 0
2, 95712, Note_on_c, 0, 79, 88
2, 95804, Note_off_c, 0, 79, 0
2, 95808, Note_on_c, 0, 76, 88
2, 96092, Note_off_c, 0, 76, 0
2, 96096, Note_on_c, 0, 75, 88
2, 96136, Note_off_c, 0, 75, 0
2, 96144, Note_on_c, 0, 76, 88
2, 96184, Note_off_c, 0, 76, 0
2, 96192, Note_on_c, 0, 75, 88
2, 96232, Note_off_c, 0, 75, 0
2, 96240, Note_on_c, 0, 76, 88
2, 96280, Note_off_c, 0, 76, 0
2, 96288, Note_on_c, 0, 75, 88
2, 96328, Note_off_c, 0, 75, 0
2, 96336, Note_on_c, 0, 76, 88
2, 96376, Note_off_c, 0, 76, 0
2, 96384, Note_on_c, 0, 75, 88
2, 96424, Note_off_c, 0, 75, 0
2, 96432, Note_on_c, 0, 76, 88
2, 96472, Note_off_c, 0, 76, 0
2, 96480, Note_on_c, 0, 75, 88
2, 96520, Note_off_c, 0, 75, 0
2, 96528, Note_on_c, 0, 76, 88
2, 96568, Note_off_c, 0, 76, 0
2, 96576, Note_on_c, 0, 78, 88
2, 96616, Note_off_c, 0, 78, 0
2, 96624, Note_on_c, 0, 76, 88
2, 96664, Note_off_c, 0, 76, 0
2, 96672, Note_on_c, 0, 75, 88
2, 96712, Note_off_c, 0, 75, 0
2, 96720, Note_on_c, 0, 73, 88
2, 96760, Note_off_c, 0, 73, 0
2, 96768, Note_on_c, 0, 72, 88
2, 96860, Note_off_c, 0, 72, 0
2, 96864, Note_on_c, 0, 75, 88
2, 96956, Note_off_c, 0, 75, 0
2, 96960, Note_on_c, 0, 81, 88
2, 97052, Note_off_c, 0, 81, 0
2, 97056, Note_on_c, 0, 80, 88
2, 97148, Note_off_c, 0, 80, 0
2, 97152, Note_on_c, 0, 78, 88
2, 97244, Note_off_c, 0, 78, 0
2, 97248, Note_on_c, 0, 77, 88
2, 97340, Note_off_c, 0, 77, 0
2, 97344, Note_on_c, 0, 76, 88
2, 97532, Note_off_c, 0, 76, 0
2, 97536, Note_on_c, 0, 76, 88
2, 97628, Note_off_c, 0, 76, 0
2, 97632, Note_on_c, 0, 75, 88
2, 97672, Note_off_c, 0, 75, 0
2, 97680, Note_on_c, 0, 76, 88
2, 97720, Note_off_c, 0, 76, 0
2, 97728, Note_on_c, 0, 78, 88
2, 97768, Note_off_c, 0, 78, 0
2, 97776, Note_on_c, 0, 76, 88
2, 97816, Note_off_c, 0, 76, 0
2, 97824, Note_on_c, 0, 75, 88
2, 97864, Note_off_c, 0, 75, 0
2, 97872, Note_on_c, 0, 73, 88
2, 97912, Note_off_c, 0, 73, 0
2, 97920, Note_on_c, 0, 72, 86
2, 98012, Note_off_c, 0, 72, 0
2, 98016, Note_on_c, 0, 63, 84
2, 98108, Note_off_c, 0, 63, 0
2, 98112, Note_on_c, 0, 69, 81
2, 98204, Note_off_c, 0, 69, 0
2, 98208, Note_on_c, 0, 68, 79
2, 98300, Note_off_c, 0, 68, 0
2, 98304, Note_on_c, 0, 66, 75
2, 98396, Note_off_c, 0, 66, 0
2, 98400, Note_on_c, 0, 65, 73
2, 98492, Note_off_c, 0, 65, 0
2, 98496, Note_on_c, 0, 64, 70
2, 98780, Note_off_c, 0, 64, 0
2, 98784, Note_on_c, 0, 63, 61
2, 98828, Note_off_c, 0, 63, 0
2, 98832, Note_on_c, 0, 64, 60
2, 98876, Note_off_c, 0, 64, 0
2, 98880, Note_on_c, 0, 66, 59
2, 98924, Note_off_c, 0, 66, 0
2, 98928, Note_on_c, 0, 64, 57
2, 98972, Note_off_c, 0, 64, 0
2, 98976, Note_on_c, 0, 63, 56
2, 99020, Note_off_c, 0, 63, 0
2, 99024, Note_on_c, 0, 61, 55
2, 99068, Note_off_c, 0, 61, 0
2, 99072, Note_on_c, 0, 60, 55
2, 99164, Note_off_c, 0, 60, 0
2, 99168, Note_on_c, 0, 63, 55
2, 99212, Note_off_c, 0, 63, 0
2, 99264, Note_on_c, 0, 68, 55
2, 99452, Note_off_c, 0, 68, 0
2, 103680, Note_on_c, 0, 67, 66
2, 104060, Note_off_c, 0, 67, 0
2, 104064, Note_on_c, 0, 67, 66
2, 104636, Note_off_c, 0, 67, 0
2, 104640, Note_on_c, 0, 69, 66
2, 104828, Note_off_c, 0, 69, 0
2, 104832, Note_on_c, 0, 67, 66
2, 104876, Note_off_c, 0, 67, 0
2, 104880, Note_on_c, 0, 71, 66
2, 104924, Note_off_c, 0, 71, 0
2, 104928, Note_on_c, 0, 69, 66
2, 105020, Note_off_c, 0, 69, 0
2, 105024, Note_on_c, 0, 67, 66
2, 105200, Note_on_c, 0, 67, 66
2, 105212, Note_off_c, 0, 67, 0
2, 105772, Note_off_c, 0, 67, 0
2, 105792, Note_on_c, 0, 67, 66
2, 105980, Note_off_c, 0, 67, 0
2, 105984, Note_on_c, 0, 67, 66
2, 106172, Note_off_c, 0, 67, 0
2, 106176, Note_on_c, 0, 66, 66
2, 106364, Note_off_c, 0, 66, 0
2, 106368, Note_on_c, 0, 76, 66
2, 106940, Note_off_c, 0, 76, 0
2, 106944, Note_on_c, 0, 74, 66
2, 106992, Note_on_c, 0, 72, 66
2, 107012, Note_off_c, 0, 74, 0
2, 107036, Note_off_c, 0, 72, 0
2, 107040, Note_on_c, 0, 71, 66
2, 107084, Note_off_c, 0, 71, 0
2, 107088, Note_on_c, 0, 72, 66
2, 107132, Note_off_c, 0, 72, 0
2, 107136, Note_on_c, 0, 72, 66
2, 107708, Note_off_c, 0, 72, 0
2, 107712, Note_on_c, 0, 71, 66
2, 107804, Note_off_c, 0, 71, 0
2, 107808, Note_on_c, 0, 69, 66
2, 107900, Note_off_c, 0, 69, 0
2, 107904, Note_on_c, 0, 72, 66
2, 107996, Note_off_c, 0, 72, 0
2, 108000, Note_on_c, 0, 71, 66
2, 108092, Note_off_c, 0, 71, 0
2, 108096, Note_on_c, 0, 69, 66
2, 108188, Note_off_c, 0, 69, 0
2, 108192, Note_on_c, 0, 67, 66
2, 108284, Note_off_c, 0, 67, 0
2, 108288, Note_on_c, 0, 67, 66
2, 108668, Note_off_c, 0, 67, 0
2, 109440, Note_on_c, 0, 79, 93
2, 109440, Note_on_c, 0, 75, 93
2, 109440, Note_on_c, 0, 70, 93
2, 109440, Note_on_c, 0, 67, 93
2, 109820, Note_off_c, 0, 79, 0
2, 109820, Note_off_c, 0, 75, 0
2, 109820, Note_off_c, 0, 70, 0
2, 109820, Note_off_c, 0, 67, 0
2, 109824, Note_on_c, 0, 58, 66
2, 110396, Note_off_c, 0, 58, 0
2, 110400, Note_on_c, 0, 58, 66
2, 110588, Note_off_c, 0, 58, 0
2, 110592, Note_on_c, 0, 58, 66
2, 110632, Note_off_c, 0, 58, 64
2, 110640, Note_on_c, 0, 60, 66
2, 110680, Note_off_c, 0, 60, 64
2, 110688, Note_on_c, 0, 58, 66
2, 110728, Note_off_c, 0, 58, 64
2, 110736, Note_on_c, 0, 60, 66
2, 110776, Note_off_c, 0, 60, 64
2, 110784, Note_on_c, 0, 58, 66
2, 110824, Note_off_c, 0, 58, 64
2, 110832, Note_on_c, 0, 60, 66
2, 110872, Note_off_c, 0, 60, 64
2, 110880, Note_on_c, 0, 60, 66
2, 110972, Note_off_c, 0, 60, 0
2, 110976, Note_on_c, 0, 56, 66
2, 111356, Note_off_c, 0, 56, 0
2, 111552, Note_on_c, 0, 56, 66
2, 111740, Note_off_c, 0, 56, 0
2, 111744, Note_on_c, 0, 84, 93
2, 112176, Note_off_c, 0, 84, 0
2, 112176, Note_on_c, 0, 82, 88
2, 112216, Note_off_c, 0, 82, 0
2, 112224, Note_on_c, 0, 80, 86
2, 112264, Note_off_c, 0, 80, 0
2, 112272, Note_on_c, 0, 79, 86
2, 112312, Note_off_c, 0, 79, 0
2, 112320, Note_on_c, 0, 77, 85
2, 112360, Note_off_c, 0, 77, 0
2, 112368, Note_on_c, 0, 75, 85
2, 112408, Note_off_c, 0, 75, 0
2, 112416, Note_on_c, 0, 74, 84
2, 112456, Note_off_c, 0, 74, 0
2, 112464, Note_on_c, 0, 72, 84
2, 112504, Note_off_c, 0, 72, 0
2, 112512, Note_on_c, 0, 70, 83
2, 112552, Note_off_c, 0, 70, 0
2, 112560, Note_on_c, 0, 68, 83
2, 112600, Note_off_c, 0, 68, 0
2, 112608, Note_on_c, 0, 67, 82
2, 112648, Note_off_c, 0, 67, 0
2, 112656, Note_on_c, 0, 65, 81
2, 112696, Note_off_c, 0, 65, 0
2, 112704, Note_on_c, 0, 63, 81
2, 112744, Note_off_c, 0, 63, 0
2, 112752, Note_on_c, 0, 62, 80
2, 112792, Note_off_c, 0, 62, 0
2, 112800, Note_on_c, 0, 60, 80
2, 112840, Note_off_c, 0, 60, 0
2, 112848, Note_on_c, 0, 58, 79
2, 112888, Note_off_c, 0, 58, 0
2, 112896, Note_on_c, 0, 58, 79
2, 113184, Note_on_c, 0, 56, 74
2, 113276, Note_off_c, 0, 56, 0
2, 113280, Note_on_c, 0, 55, 73
2, 113468, Note_off_c, 0, 58, 0
2, 113660, Note_off_c, 0, 55, 0
2, 113856, Note_on_c, 0, 79, 67
2, 114044, Note_off_c, 0, 79, 0
2, 114048, Note_on_c, 0, 79, 66
2, 114080, Note_off_c, 0, 79, 64
2, 114084, Note_on_c, 0, 80, 66
2, 114116, Note_off_c, 0, 80, 64
2, 114124, Note_on_c, 0, 79, 66
2, 114156, Note_off_c, 0, 79, 64
2, 114164, Note_on_c, 0, 77, 66
2, 114196, Note_off_c, 0, 77, 64
2, 114204, Note_on_c, 0, 79, 66
2, 114236, Note_off_c, 0, 79, 64
2, 114240, Note_on_c, 0, 67, 66
2, 114240, Note_on_c, 0, 62, 66
2, 114240, Note_on_c, 0, 71, 66
2, 114240, Note_on_c, 0, 80, 66
2, 114332, Note_off_c, 0, 80, 64
2, 114336, Note_on_c, 0, 76, 66
2, 114428, Note_off_c, 0, 67, 0
2, 114428, Note_off_c, 0, 62, 0
2, 114428, Note_off_c, 0, 71, 0
2, 114428, Note_off_c, 0, 76, 0
2, 114432, Note_on_c, 0, 71, 66
2, 114432, Note_on_c, 0, 67, 66
2, 114432, Note_on_c, 0, 62, 66
2, 114432, Note_on_c, 0, 77, 66
2, 114620, Note_off_c, 0, 71, 0
2, 114620, Note_off_c, 0, 67, 0
2, 114620, Note_off_c, 0, 62, 0
2, 114624, Note_on_c, 0, 71, 66
2, 114624, Note_on_c, 0, 67, 66
2, 114624, Note_on_c, 0, 62, 66
2, 114812, Note_off_c, 0, 77, 0
2, 114812, Note_off_c, 0, 71, 0
2, 114812, Note_off_c, 0, 67, 0
2, 114812, Note_off_c, 0, 62, 0
2, 114816, Note_on_c, 0, 71, 66
2, 114816, Note_on_c, 0, 67, 66
2, 114816, Note_on_c, 0, 62, 66
2, 115004, Note_off_c, 0, 71, 0
2, 115004, Note_off_c, 0, 67, 0
2, 115004, Note_off_c, 0, 62, 0
2, 115008, Note_on_c, 0, 71, 66
2, 115008, Note_on_c, 0, 67, 66
2, 115008, Note_on_c, 0, 62, 66
2, 115008, Note_on_c, 0, 77, 66
2, 115196, Note_off_c, 0, 71, 0
2, 115196, Note_off_c, 0, 67, 0
2, 115196, Note_off_c, 0, 62, 0
2, 115196, Note_off_c, 0, 77, 0
2, 115200, Note_on_c, 0, 77, 66
2, 115292, Note_off_c, 0, 77, 0
2, 115296, Note_on_c, 0, 78, 66
2, 115388, Note_off_c, 0, 78, 0
2, 115392, Note_on_c, 0, 72, 66
2, 115392, Note_on_c, 0, 67, 66
2, 115392, Note_on_c, 0, 60, 66
2, 115392, Note_on_c, 0, 79, 66
2, 115484, Note_off_c, 0, 79, 0
2, 115488, Note_on_c, 0, 74, 66
2, 115580, Note_off_c, 0, 72, 0
2, 115580, Note_off_c, 0, 67, 0
2, 115580, Note_off_c, 0, 60, 0
2, 115580, Note_off_c, 0, 74, 0
2, 115584, Note_on_c, 0, 72, 66
2, 115584, Note_on_c, 0, 67, 66
2, 115584, Note_on_c, 0, 60, 66
2, 115584, Note_on_c, 0, 77, 66
2, 115772, Note_off_c, 0, 72, 0
2, 115772, Note_off_c, 0, 67, 0
2, 115772, Note_off_c, 0, 60, 0
2, 115772, Note_off_c, 0, 77, 0
2, 115776, Note_on_c, 0, 59, 66
2, 115776, Note_on_c, 0, 75, 66
2, 115776, Note_on_c, 0, 67, 66
2, 115964, Note_off_c, 0, 59, 0
2, 115964, Note_off_c, 0, 67, 0
2, 115968, Note_on_c, 0, 67, 66
2, 115968, Note_on_c, 0, 58, 66
2, 116156, Note_off_c, 0, 75, 0
2, 116156, Note_off_c, 0, 67, 0
2, 116156, Note_off_c, 0, 58, 0
2, 116160, Note_on_c, 0, 67, 66
2, 116160, Note_on_c, 0, 58, 66
2, 116160, Note_on_c, 0, 74, 66
2, 116348, Note_off_c, 0, 67, 0
2, 116348, Note_off_c, 0, 58, 0
2, 116352, Note_on_c, 0, 67, 66
2, 116352, Note_on_c, 0, 56, 66
2, 116540, Note_off_c, 0, 67, 0
2, 116540, Note_off_c, 0, 56, 0
2, 116540, Note_off_c, 0, 74, 0
2, 116544, Note_on_c, 0, 72, 66
2, 116544, Note_on_c, 0, 67, 66
2, 116544, Note_on_c, 0, 56, 66
2, 116732, Note_off_c, 0, 67, 0
2, 116732, Note_off_c, 0, 56, 0
2, 116736, Note_on_c, 0, 66, 66
2, 116736, Note_on_c, 0, 56, 66
2, 116784, Note_on_c, 0, 74, 66
2, 116788, Note_off_c, 0, 72, 0
2, 116824, Note_off_c, 0, 74, 0
2, 116832, Note_on_c, 0, 72, 66
2, 116872, Note_off_c, 0, 72, 0
2, 116880, Note_on_c, 0, 71, 66
2, 116920, Note_off_c, 0, 71, 0
2, 116924, Note_off_c, 0, 66, 0
2, 116924, Note_off_c, 0, 56, 0
2, 116928, Note_on_c, 0, 72, 66
2, 116928, Note_on_c, 0, 66, 66
2, 116928, Note_on_c, 0, 56, 66
2, 117020, Note_off_c, 0, 72, 0
2, 117024, Note_on_c, 0, 74, 66
2, 117116, Note_off_c, 0, 66, 0
2, 117116, Note_off_c, 0, 56, 0
2, 117120, Note_on_c, 0, 66, 66
2, 117120, Note_on_c, 0, 56, 66
2, 117212, Note_off_c, 0, 74, 0
2, 117216, Note_on_c, 0, 77, 66
2, 117256, Note_off_c, 0, 77, 0
2, 117264, Note_on_c, 0, 75, 66
2, 117304, Note_off_c, 0, 75, 0
2, 117308, Note_off_c, 0, 66, 0
2, 117308, Note_off_c, 0, 56, 0
2, 117312, Note_on_c, 0, 74, 66
2, 117312, Note_on_c, 0, 66, 66
2, 117312, Note_on_c, 0, 56, 66
2, 117404, Note_off_c, 0, 74, 0
2, 117408, Note_on_c, 0, 72, 66
2, 117500, Note_off_c, 0, 66, 0
2, 117500, Note_off_c, 0, 56, 0
2, 117500, Note_off_c, 0, 72, 0
2, 117504, Note_on_c, 0, 78, 66
2, 117504, Note_on_c, 0, 63, 66
2, 117504, Note_on_c, 0, 60, 66
2, 117504, Note_on_c, 0, 55, 66
2, 117884, Note_off_c, 0, 78, 0
2, 117884, Note_off_c, 0, 63, 0
2, 117884, Note_off_c, 0, 60, 0
2, 117884, Note_off_c, 0, 55, 0
2, 117888, Note_on_c, 0, 79, 66
2, 117888, Note_on_c, 0, 62, 66
2, 117888, Note_on_c, 0, 59, 66
2, 117888, Note_on_c, 0, 55, 66
2, 118268, Note_off_c, 0, 79, 0
2, 118268, Note_off_c, 0, 62, 0
2, 118268, Note_off_c, 0, 59, 0
2, 118268, Note_off_c, 0, 55, 0
2, 121536, Note_on_c, 0, 72, 67
2, 121724, Note_off_c, 0, 72, 0
2, 121728, Note_on_c, 0, 76, 74
2, 121916, Note_off_c, 0, 76, 0
2, 121920, Note_on_c, 0, 79, 82
2, 122108, Note_off_c, 0, 79, 0
2, 122112, Note_on_c, 0, 84, 88
2, 122588, Note_off_c, 0, 84, 0
2, 122592, Note_on_c, 0, 84, 88
2, 122684, Note_off_c, 0, 84, 0
2, 122688, Note_on_c, 0, 86, 88
2, 122780, Note_off_c, 0, 86, 0
2, 122784, Note_on_c, 0, 84, 88
2, 122876, Note_off_c, 0, 84, 0
2, 122880, Note_on_c, 0, 82, 88
2, 122972, Note_off_c, 0, 82, 0
2, 122976, Note_on_c, 0, 82, 88
2, 123068, Note_off_c, 0, 82, 0
2, 123072, Note_on_c, 0, 84, 88
2, 123164, Note_off_c, 0, 84, 0
2, 123168, Note_on_c, 0, 82, 88
2, 123260, Note_off_c, 0, 82, 0
2, 123264, Note_on_c, 0, 80, 88
2, 123452, Note_off_c, 0, 80, 0
2, 123456, Note_on_c, 0, 81, 88
2, 123740, Note_off_c, 0, 81, 0
2, 123744, Note_on_c, 0, 81, 88
2, 123836, Note_off_c, 0, 81, 0
2, 123840, Note_on_c, 0, 82, 88
2, 123932, Note_off_c, 0, 82, 0
2, 123936, Note_on_c, 0, 81, 88
2, 124028, Note_off_c, 0, 81, 0
2, 124032, Note_on_c, 0, 79, 88
2, 124124, Note_off_c, 0, 79, 0
2, 124128, Note_on_c, 0, 79, 88
2, 124220, Note_off_c, 0, 79, 0
2, 124224, Note_on_c, 0, 81, 88
2, 124316, Note_off_c, 0, 81, 0
2, 124320, Note_on_c, 0, 79, 88
2, 124412, Note_off_c, 0, 79, 0
2, 124416, Note_on_c, 0, 76, 88
2, 124604, Note_off_c, 0, 76, 0
2, 124608, Note_on_c, 0, 77, 88
2, 124892, Note_off_c, 0, 77, 0
2, 124896, Note_on_c, 0, 77, 88
2, 124988, Note_off_c, 0, 77, 0
2, 124992, Note_on_c, 0, 79, 88
2, 125084, Note_off_c, 0, 79, 0
2, 125088, Note_on_c, 0, 77, 88
2, 125180, Note_off_c, 0, 77, 0
2, 125184, Note_on_c, 0, 76, 88
2, 125232, Note_off_c, 0, 76, 0
2, 125280, Note_on_c, 0, 76, 88
2, 125372, Note_off_c, 0, 76, 0
2, 125376, Note_on_c, 0, 77, 88
2, 125468, Note_off_c, 0, 77, 0
2, 125472, Note_on_c, 0, 76, 88
2, 125564, Note_off_c, 0, 76, 0
2, 125568, Note_on_c, 0, 73, 88
2, 125756, Note_off_c, 0, 73, 0
2, 125760, Note_on_c, 0, 74, 88
2, 126044, Note_off_c, 0, 74, 0
2, 126048, Note_on_c, 0, 81, 88
2, 126140, Note_off_c, 0, 81, 0
2, 126144, Note_on_c, 0, 79, 88
2, 126236, Note_off_c, 0, 79, 0
2, 126240, Note_on_c, 0, 77, 88
2, 126332, Note_off_c, 0, 77, 0
2, 126336, Note_on_c, 0, 76, 88
2, 126428, Note_off_c, 0, 76, 0
2, 126432, Note_on_c, 0, 74, 88
2, 126524, Note_off_c, 0, 74, 0
2, 126528, Note_on_c, 0, 76, 88
2, 126620, Note_off_c, 0, 76, 0
2, 126624, Note_on_c, 0, 77, 88
2, 126716, Note_off_c, 0, 77, 0
2, 126720, Note_on_c, 0, 79, 88
2, 126760, Note_off_c, 0, 79, 64
2, 126768, Note_on_c, 0, 81, 88
2, 126808, Note_off_c, 0, 81, 64
2, 126816, Note_on_c, 0, 79, 88
2, 126856, Note_off_c, 0, 79, 64
2, 126864, Note_on_c, 0, 77, 88
2, 126904, Note_off_c, 0, 77, 64
2, 126912, Note_on_c, 0, 79, 88
2, 127004, Note_off_c, 0, 79, 64
2, 127008, Note_on_c, 0, 81, 88
2, 127100, Note_off_c, 0, 81, 64
2, 127104, Note_on_c, 0, 72, 89
2, 127484, Note_off_c, 0, 72, 0
2, 127488, Note_on_c, 0, 71, 92
2, 127868, Note_off_c, 0, 71, 0
2, 127872, Note_on_c, 0, 72, 95
2, 128252, Note_off_c, 0, 72, 0
2, 132480, Note_on_c, 0, 89, 99
2, 132520, Note_off_c, 0, 89, 0
2, 132528, Note_on_c, 0, 88, 97
2, 132568, Note_off_c, 0, 88, 0
2, 132576, Note_on_c, 0, 86, 96
2, 132616, Note_off_c, 0, 86, 0
2, 132624, Note_on_c, 0, 84, 94
2, 132664, Note_off_c, 0, 84, 0
2, 132672, Note_on_c, 0, 83, 93
2, 132712, Note_off_c, 0, 83, 0
2, 132720, Note_on_c, 0, 81, 92
2, 132760, Note_off_c, 0, 81, 0
2, 132768, Note_on_c, 0, 79, 90
2, 132808, Note_off_c, 0, 79, 0
2, 132816, Note_on_c, 0, 78, 89
2, 132856, Note_off_c, 0, 78, 0
2, 132864, Note_on_c, 0, 77, 88
2, 132904, Note_off_c, 0, 77, 0
2, 132912, Note_on_c, 0, 76, 85
2, 132952, Note_off_c, 0, 76, 0
2, 132960, Note_on_c, 0, 74, 84
2, 133000, Note_off_c, 0, 74, 0
2, 133008, Note_on_c, 0, 72, 83
2, 133048, Note_off_c, 0, 72, 0
2, 133056, Note_on_c, 0, 71, 81
2, 133096, Note_off_c, 0, 71, 0
2, 133104, Note_on_c, 0, 69, 80
2, 133144, Note_off_c, 0, 69, 0
2, 133152, Note_on_c, 0, 67, 79
2, 133192, Note_off_c, 0, 67, 0
2, 133200, Note_on_c, 0, 65, 77
2, 133240, Note_off_c, 0, 65, 0
2, 133248, Note_on_c, 0, 64, 75
2, 133340, Note_off_c, 0, 64, 0
2, 133344, Note_on_c, 0, 72, 72
2, 133436, Note_off_c, 0, 72, 0
2, 133440, Note_on_c, 0, 71, 70
2, 133532, Note_off_c, 0, 71, 0
2, 133536, Note_on_c, 0, 70, 67
2, 133628, Note_off_c, 0, 70, 0
2, 133632, Note_on_c, 0, 68, 66
2, 133916, Note_off_c, 0, 68, 0
2, 133920, Note_on_c, 0, 69, 66
2, 134012, Note_off_c, 0, 69, 0
2, 134016, Note_on_c, 0, 69, 66
2, 134396, Note_off_c, 0, 69, 0
2, 134688, Note_on_c, 0, 74, 66
2, 134780, Note_off_c, 0, 74, 0
2, 134784, Note_on_c, 0, 73, 68
2, 134876, Note_off_c, 0, 73, 0
2, 134880, Note_on_c, 0, 74, 75
2, 134972, Note_off_c, 0, 74, 0
2, 134976, Note_on_c, 0, 76, 83
2, 135068, Note_off_c, 0, 76, 0
2, 135072, Note_on_c, 0, 74, 91
2, 135164, Note_off_c, 0, 74, 0
2, 135168, Note_on_c, 0, 74, 93
2, 135260, Note_off_c, 0, 74, 64
2, 135264, Note_on_c, 0, 76, 93
2, 135356, Note_off_c, 0, 76, 64
2, 135360, Note_on_c, 0, 74, 93
2, 135452, Note_off_c, 0, 74, 64
2, 135456, Note_on_c, 0, 73, 93
2, 135548, Note_off_c, 0, 73, 64
2, 135552, Note_on_c, 0, 74, 93
2, 135740, Note_off_c, 0, 74, 64
2, 135744, Note_on_c, 0, 81, 93
2, 135884, Note_off_c, 0, 81, 0
2, 135888, Note_on_c, 0, 79, 93
2, 135928, Note_off_c, 0, 79, 0
2, 135936, Note_on_c, 0, 79, 93
2, 135968, Note_off_c, 0, 79, 64
2, 135972, Note_on_c, 0, 81, 93
2, 136004, Note_off_c, 0, 81, 64
2, 136012, Note_on_c, 0, 79, 93
2, 136044, Note_off_c, 0, 79, 64
2, 136052, Note_on_c, 0, 78, 93
2, 136084, Note_off_c, 0, 78, 64
2, 136092, Note_on_c, 0, 79, 93
2, 136124, Note_off_c, 0, 79, 64
2, 136128, Note_on_c, 0, 88, 93
2, 136412, Note_off_c, 0, 88, 0
2, 136416, Note_on_c, 0, 84, 89
2, 136604, Note_off_c, 0, 84, 0
2, 136608, Note_on_c, 0, 79, 82
2, 136700, Note_off_c, 0, 79, 0
2, 136704, Note_on_c, 0, 84, 79
2, 136796, Note_off_c, 0, 84, 0
2, 136800, Note_on_c, 0, 79, 75
2, 136988, Note_off_c, 0, 79, 0
2, 136992, Note_on_c, 0, 76, 69
2, 137084, Note_off_c, 0, 76, 0
2, 137088, Note_on_c, 0, 74, 66
2, 137112, Note_off_c, 0, 74, 0
2, 137116, Note_on_c, 0, 76, 66
2, 137140, Note_off_c, 0, 76, 0
2, 137144, Note_on_c, 0, 74, 67
2, 137168, Note_off_c, 0, 74, 0
2, 137172, Note_on_c, 0, 76, 67
2, 137196, Note_off_c, 0, 76, 0
2, 137200, Note_on_c, 0, 74, 68
2, 137224, Note_off_c, 0, 74, 0
2, 137228, Note_on_c, 0, 76, 69
2, 137252, Note_off_c, 0, 76, 0
2, 137256, Note_on_c, 0, 74, 69
2, 137280, Note_off_c, 0, 74, 0
2, 137284, Note_on_c, 0, 76, 70
2, 137308, Note_off_c, 0, 76, 0
2, 137312, Note_on_c, 0, 74, 71
2, 137336, Note_off_c, 0, 74, 0
2, 137340, Note_on_c, 0, 76, 71
2, 137364, Note_off_c, 0, 76, 0
2, 137368, Note_on_c, 0, 74, 72
2, 137392, Note_off_c, 0, 74, 0
2, 137396, Note_on_c, 0, 76, 73
2, 137420, Note_off_c, 0, 76, 64
2, 137424, Note_on_c, 0, 74, 73
2, 137448, Note_off_c, 0, 74, 64
2, 137452, Note_on_c, 0, 74, 74
2, 137476, Note_off_c, 0, 74, 0
2, 137480, Note_on_c, 0, 76, 75
2, 137504, Note_off_c, 0, 76, 64
2, 137508, Note_on_c, 0, 76, 75
2, 137532, Note_off_c, 0, 76, 0
2, 137536, Note_on_c, 0, 74, 77
2, 137560, Note_off_c, 0, 74, 0
2, 137564, Note_on_c, 0, 76, 78
2, 137588, Note_off_c, 0, 76, 0
2, 137592, Note_on_c, 0, 74, 78
2, 137616, Note_off_c, 0, 74, 0
2, 137620, Note_on_c, 0, 76, 79
2, 137644, Note_off_c, 0, 76, 0
2, 137648, Note_on_c, 0, 74, 80
2, 137672, Note_off_c, 0, 74, 0
2, 137676, Note_on_c, 0, 76, 80
2, 137700, Note_off_c, 0, 76, 0
2, 137704, Note_on_c, 0, 74, 81
2, 137728, Note_off_c, 0, 74, 0
2, 137732, Note_on_c, 0, 76, 82
2, 137756, Note_off_c, 0, 76, 0
2, 137760, Note_on_c, 0, 74, 82
2, 137784, Note_off_c, 0, 74, 0
2, 137788, Note_on_c, 0, 76, 83
2, 137812, Note_off_c, 0, 76, 64
2, 137816, Note_on_c, 0, 74, 84
2, 137840, Note_off_c, 0, 74, 64
2, 137844, Note_on_c, 0, 76, 84
2, 137868, Note_off_c, 0, 76, 64
2, 137876, Note_on_c, 0, 74, 85
2, 137900, Note_off_c, 0, 74, 64
2, 137904, Note_on_c, 0, 76, 86
2, 137928, Note_off_c, 0, 76, 64
2, 137932, Note_on_c, 0, 74, 86
2, 137956, Note_off_c, 0, 74, 64
2, 137960, Note_on_c, 0, 76, 88
2, 137984, Note_off_c, 0, 76, 64
2, 137988, Note_on_c, 0, 74, 89
2, 138012, Note_off_c, 0, 74, 64
2, 138016, Note_on_c, 0, 76, 90
2, 138040, Note_off_c, 0, 76, 64
2, 138048, Note_on_c, 0, 72, 91
2, 138140, Note_off_c, 0, 72, 0
2, 138144, Note_on_c, 0, 74, 93
2, 138236, Note_off_c, 0, 74, 0
2, 138240, Note_on_c, 0, 72, 97
2, 138620, Note_off_c, 0, 72, 0
2, 141696, Note_on_c, 0, 79, 66
2, 141836, Note_off_c, 0, 79, 0
2, 141840, Note_on_c, 0, 76, 66
2, 141880, Note_off_c, 0, 76, 0
2, 141888, Note_on_c, 0, 79, 66
2, 142268, Note_off_c, 0, 79, 0
2, 142272, Note_on_c, 0, 88, 66
2, 142460, Note_off_c, 0, 88, 0
2, 142464, Note_on_c, 0, 86, 66
2, 142556, Note_off_c, 0, 86, 0
2, 142560, Note_on_c, 0, 84, 66
2, 142652, Note_off_c, 0, 84, 0
2, 142656, Note_on_c, 0, 83, 66
2, 142748, Note_off_c, 0, 83, 0
2, 142752, Note_on_c, 0, 81, 66
2, 142844, Note_off_c, 0, 81, 0
2, 142848, Note_on_c, 0, 79, 66
2, 143132, Note_off_c, 0, 79, 0
2, 143136, Note_on_c, 0, 81, 66
2, 143176, Note_off_c, 0, 81, 0
2, 143184, Note_on_c, 0, 79, 66
2, 143224, Note_off_c, 0, 79, 0
2, 143232, Note_on_c, 0, 78, 66
2, 143424, Note_on_c, 0, 72, 66
2, 143612, Note_off_c, 0, 72, 0
2, 143616, Note_on_c, 0, 74, 66
2, 143804, Note_off_c, 0, 74, 0
2, 143808, Note_on_c, 0, 75, 66
2, 143996, Note_off_c, 0, 78, 0
2, 143996, Note_off_c, 0, 75, 0
2, 144000, Note_on_c, 0, 74, 66
2, 144000, Note_on_c, 0, 77, 66
2, 144032, Note_off_c, 0, 77, 64
2, 144036, Note_on_c, 0, 79, 66
2, 144068, Note_off_c, 0, 79, 64
2, 144076, Note_on_c, 0, 77, 66
2, 144108, Note_off_c, 0, 77, 64
2, 144116, Note_on_c, 0, 76, 66
2, 144148, Note_off_c, 0, 76, 64
2, 144156, Note_on_c, 0, 77, 66
2, 144188, Note_off_c, 0, 74, 64
2, 144188, Note_off_c, 0, 77, 64
2, 144192, Note_on_c, 0, 89, 66
2, 144572, Note_off_c, 0, 89, 0
2, 144576, Note_on_c, 0, 88, 66
2, 144668, Note_off_c, 0, 88, 0
2, 144672, Note_on_c, 0, 86, 66
2, 144764, Note_off_c, 0, 86, 0
2, 144768, Note_on_c, 0, 84, 66
2, 144860, Note_off_c, 0, 84, 0
2, 144864, Note_on_c, 0, 83, 66
2, 144956, Note_off_c, 0, 83, 0
2, 144960, Note_on_c, 0, 81, 66
2, 145052, Note_off_c, 0, 81, 0
2, 145056, Note_on_c, 0, 79, 66
2, 145148, Note_off_c, 0, 79, 0
2, 145152, Note_on_c, 0, 77, 66
2, 145244, Note_off_c, 0, 77, 0
2, 145248, Note_on_c, 0, 76, 66
2, 145340, Note_off_c, 0, 76, 0
2, 145344, Note_on_c, 0, 86, 66
2, 145436, Note_off_c, 0, 86, 0
2, 145440, Note_on_c, 0, 84, 66
2, 145532, Note_off_c, 0, 84, 0
2, 145536, Note_on_c, 0, 82, 66
2, 145724, Note_off_c, 0, 82, 0
2, 146304, Note_on_c, 0, 82, 66
2, 146492, Note_off_c, 0, 82, 0
2, 146496, Note_on_c, 0, 80, 66
2, 146684, Note_off_c, 0, 80, 0
2, 146880, Note_on_c, 0, 80, 66
2, 147068, Note_off_c, 0, 80, 0
2, 147072, Note_on_c, 0, 84, 66
2, 147260, Note_off_c, 0, 84, 0
2, 147264, Note_on_c, 0, 76, 66
2, 147452, Note_off_c, 0, 76, 0
2, 147456, Note_on_c, 0, 79, 66
2, 147644, Note_off_c, 0, 79, 0
2, 147648, Note_on_c, 0, 77, 66
2, 147836, Note_off_c, 0, 77, 0
2, 148032, Note_on_c, 0, 77, 66
2, 148220, Note_off_c, 0, 77, 0
2, 148224, Note_on_c, 0, 79, 66
2, 148412, Note_off_c, 0, 79, 0
2, 148416, Note_on_c, 0, 84, 66
2, 148604, Note_off_c, 0, 84, 0
2, 148608, Note_on_c, 0, 82, 66
2, 148796, Note_off_c, 0, 82, 0
2, 148800, Note_on_c, 0, 80, 66
2, 148988, Note_off_c, 0, 80, 0
2, 149184, Note_on_c, 0, 80, 66
2, 149208, Note_off_c, 0, 80, 0
2, 149208, Note_on_c, 0, 82, 66
2, 149232, Note_off_c, 0, 82, 0
2, 149232, Note_on_c, 0, 80, 66
2, 149256, Note_off_c, 0, 80, 0
2, 149256, Note_on_c, 0, 82, 66
2, 149280, Note_off_c, 0, 82, 0
2, 149280, Note_on_c, 0, 80, 66
2, 149304, Note_off_c, 0, 80, 0
2, 149304, Note_on_c, 0, 82, 66
2, 149328, Note_off_c, 0, 82, 0
2, 149328, Note_on_c, 0, 79, 66
2, 149352, Note_off_c, 0, 79, 0
2, 149352, Note_on_c, 0, 80, 66
2, 149376, Note_off_c, 0, 80, 0
2, 149376, Note_on_c, 0, 84, 66
2, 149564, Note_off_c, 0, 84, 0
2, 149568, Note_on_c, 0, 76, 66
2, 149756, Note_off_c, 0, 76, 0
2, 149760, Note_on_c, 0, 79, 66
2, 149948, Note_off_c, 0, 79, 0
2, 149952, Note_on_c, 0, 77, 66
2, 150140, Note_off_c, 0, 77, 0
2, 150336, Note_on_c, 0, 77, 66
2, 150360, Note_off_c, 0, 77, 0
2, 150360, Note_on_c, 0, 79, 66
2, 150384, Note_off_c, 0, 79, 0
2, 150384, Note_on_c, 0, 77, 66
2, 150408, Note_off_c, 0, 77, 0
2, 150408, Note_on_c, 0, 79, 66
2, 150432, Note_off_c, 0, 79, 0
2, 150432, Note_on_c, 0, 77, 66
2, 150456, Note_off_c, 0, 77, 0
2, 150456, Note_on_c, 0, 79, 66
2, 150480, Note_off_c, 0, 79, 0
2, 150480, Note_on_c, 0, 76, 66
2, 150504, Note_off_c, 0, 76, 0
2, 150504, Note_on_c, 0, 77, 66
2, 150528, Note_off_c, 0, 77, 0
2, 150528, Note_on_c, 0, 79, 66
2, 150716, Note_off_c, 0, 79, 0
2, 150720, Note_on_c, 0, 84, 66
2, 150908, Note_off_c, 0, 84, 0
2, 150912, Note_on_c, 0, 82, 68
2, 151196, Note_off_c, 0, 82, 0
2, 151200, Note_on_c, 0, 80, 75
2, 151292, Note_off_c, 0, 80, 0
2, 151296, Note_on_c, 0, 80, 78
2, 151676, Note_off_c, 0, 80, 0
2, 151680, Note_on_c, 0, 79, 88
2, 152060, Note_off_c, 0, 79, 0
2, 152064, Note_on_c, 0, 79, 99
2, 153020, Note_off_c, 0, 79, 0
2, 153024, Note_on_c, 0, 78, 66
2, 153068, Note_off_c, 0, 78, 0
2, 153072, Note_on_c, 0, 79, 66
2, 153116, Note_off_c, 0, 79, 0
2, 153120, Note_on_c, 0, 81, 66
2, 153164, Note_off_c, 0, 81, 0
2, 153168, Note_on_c, 0, 79, 66
2, 153212, Note_off_c, 0, 79, 0
2, 153216, Note_on_c, 0, 78, 66
2, 153404, Note_off_c, 0, 78, 0
2, 154368, Note_on_c, 0, 77, 99
2, 154368, Note_on_c, 0, 74, 99
2, 154368, Note_on_c, 0, 71, 99
2, 154368, Note_on_c, 0, 65, 99
2, 154748, Note_off_c, 0, 77, 0
2, 154748, Note_off_c, 0, 74, 0
2, 154748, Note_off_c, 0, 71, 0
2, 154748, Note_off_c, 0, 65, 0
2, 154752, Note_on_c, 0, 89, 99
2, 155160, Note_off_c, 0, 89, 0
2, 155160, Note_on_c, 0, 88, 89
2, 155184, Note_off_c, 0, 88, 0
2, 155184, Note_on_c, 0, 86, 89
2, 155208, Note_off_c, 0, 86, 0
2, 155208, Note_on_c, 0, 84, 88
2, 155232, Note_off_c, 0, 84, 0
2, 155232, Note_on_c, 0, 83, 88
2, 155256, Note_off_c, 0, 83, 0
2, 155256, Note_on_c, 0, 81, 86
2, 155280, Note_off_c, 0, 81, 0
2, 155280, Note_on_c, 0, 79, 86
2, 155304, Note_off_c, 0, 79, 0
2, 155304, Note_on_c, 0, 77, 85
2, 155328, Note_off_c, 0, 77, 0
2, 155328, Note_on_c, 0, 76, 85
2, 155352, Note_off_c, 0, 76, 0
2, 155352, Note_on_c, 0, 74, 84
2, 155376, Note_off_c, 0, 74, 0
2, 155376, Note_on_c, 0, 72, 83
2, 155400, Note_off_c, 0, 72, 0
2, 155400, Note_on_c, 0, 71, 83
2, 155424, Note_off_c, 0, 71, 0
2, 155424, Note_on_c, 0, 69, 82
2, 155448, Note_off_c, 0, 69, 0
2, 155448, Note_on_c, 0, 67, 82
2, 155472, Note_off_c, 0, 67, 0
2, 155472, Note_on_c, 0, 65, 81
2, 155496, Note_off_c, 0, 65, 0
2, 155520, Note_on_c, 0, 63, 80
2, 155900, Note_off_c, 0, 63, 0
2, 155904, Note_on_c, 0, 64, 71
2, 156092, Note_off_c, 0, 64, 0
2, 156096, Note_on_c, 0, 64, 66
2, 156096, Note_on_c, 0, 76, 66
2, 156284, Note_off_c, 0, 64, 0
2, 156284, Note_off_c, 0, 76, 0
2, 156288, Note_on_c, 0, 77, 66
2, 156288, Note_on_c, 0, 65, 66
2, 156476, Note_off_c, 0, 77, 0
2, 156476, Note_off_c, 0, 65, 0
2, 156480, Note_on_c, 0, 79, 66
2, 156480, Note_on_c, 0, 67, 66
2, 156668, Note_off_c, 0, 79, 0
2, 156668, Note_off_c, 0, 67, 0
2, 156672, Note_on_c, 0, 81, 66
2, 156672, Note_on_c, 0, 69, 66
2, 156860, Note_off_c, 0, 81, 0
2, 156860, Note_off_c, 0, 69, 0
2, 157248, Note_on_c, 0, 74, 66
2, 157248, Note_on_c, 0, 62, 66
2, 157436, Note_off_c, 0, 74, 0
2, 157436, Note_off_c, 0, 62, 0
2, 157440, Note_on_c, 0, 76, 66
2, 157440, Note_on_c, 0, 64, 66
2, 157628, Note_off_c, 0, 76, 0
2, 157628, Note_off_c, 0, 64, 0
2, 157632, Note_on_c, 0, 77, 66
2, 157632, Note_on_c, 0, 65, 66
2, 157820, Note_off_c, 0, 77, 0
2, 157820, Note_off_c, 0, 65, 0
2, 157824, Note_on_c, 0, 79, 66
2, 157824, Note_on_c, 0, 67, 66
2, 158012, Note_off_c, 0, 79, 0
2, 158012, Note_off_c, 0, 67, 0
2, 158400, Note_on_c, 0, 72, 67
2, 158400, Note_on_c, 0, 60, 67
2, 158588, Note_off_c, 0, 72, 0
2, 158588, Note_off_c, 0, 60, 0
2, 158592, Note_on_c, 0, 62, 70
2, 158592, Note_on_c, 0, 74, 70
2, 158780, Note_off_c, 0, 62, 0
2, 158780, Note_off_c, 0, 74, 0
2, 158784, Note_on_c, 0, 76, 73
2, 158784, Note_on_c, 0, 64, 73
2, 158972, Note_off_c, 0, 76, 0
2, 158972, Note_off_c, 0, 64, 0
2, 158976, Note_on_c, 0, 77, 77
2, 158976, Note_on_c, 0, 65, 77
2, 159164, Note_off_c, 0, 77, 0
2, 159164, Note_off_c, 0, 65, 0
2, 159168, Note_on_c, 0, 79, 81
2, 159168, Note_on_c, 0, 67, 81
2, 159168, Note_on_c, 0, 64, 81
2, 159168, Note_on_c, 0, 52, 81
2, 159356, Note_off_c, 0, 79, 0
2, 159356, Note_off_c, 0, 67, 0
2, 159356, Note_off_c, 0, 64, 0
2, 159356, Note_off_c, 0, 52, 0
2, 159360, Note_on_c, 0, 81, 84
2, 159360, Note_on_c, 0, 69, 84
2, 159360, Note_on_c, 0, 65, 84
2, 159360, Note_on_c, 0, 53, 84
2, 159548, Note_off_c, 0, 81, 0
2, 159548, Note_off_c, 0, 69, 0
2, 159548, Note_off_c, 0, 65, 0
2, 159548, Note_off_c, 0, 53, 0
2, 159552, Note_on_c, 0, 83, 88
2, 159552, Note_on_c, 0, 71, 88
2, 159552, Note_on_c, 0, 67, 88
2, 159552, Note_on_c, 0, 55, 88
2, 159740, Note_off_c, 0, 83, 0
2, 159740, Note_off_c, 0, 71, 0
2, 159740, Note_off_c, 0, 67, 0
2, 159740, Note_off_c, 0, 55, 0
2, 159744, Note_on_c, 0, 84, 91
2, 159744, Note_on_c, 0, 72, 91
2, 159744, Note_on_c, 0, 69, 91
2, 159744, Note_on_c, 0, 57, 91
2, 159932, Note_off_c, 0, 84, 0
2, 159932, Note_off_c, 0, 72, 0
2, 159932, Note_off_c, 0, 69, 0
2, 159932, Note_off_c, 0, 57, 0
2, 159936, Note_on_c, 0, 86, 94
2, 159936, Note_on_c, 0, 74, 94
2, 159936, Note_on_c, 0, 71, 94
2, 159936, Note_on_c, 0, 59, 94
2, 160124, Note_off_c, 0, 86, 0
2, 160124, Note_off_c, 0, 74, 0
2, 160124, Note_off_c, 0, 71, 0
2, 160124, Note_off_c, 0, 59, 0
2, 160128, Note_on_c, 0, 88, 99
2, 160128, Note_on_c, 0, 76, 99
2, 160128, Note_on_c, 0, 72, 99
2, 160128, Note_on_c, 0, 67, 99
2, 160128, Note_on_c, 0, 60, 99
2, 160412, Note_off_c, 0, 76, 0
2, 160448, Note_off_c, 0, 88, 0
2, 160452, Note_on_c, 0, 86, 99
2, 160484, Note_off_c, 0, 86, 0
2, 160488, Note_on_c, 0, 84, 99
2, 160520, Note_off_c, 0, 84, 0
2, 160524, Note_on_c, 0, 83, 99
2, 160556, Note_off_c, 0, 83, 0
2, 160560, Note_on_c, 0, 84, 99
2, 160592, Note_off_c, 0, 84, 0
2, 160596, Note_on_c, 0, 83, 99
2, 160628, Note_off_c, 0, 83, 0
2, 160632, Note_on_c, 0, 84, 99
2, 160664, Note_off_c, 0, 84, 0
2, 160668, Note_on_c, 0, 86, 99
2, 160700, Note_off_c, 0, 72, 0
2, 160700, Note_off_c, 0, 67, 0
2, 160700, Note_off_c, 0, 60, 0
2, 160700, Note_off_c, 0, 86, 0
2, 160704, Note_on_c, 0, 87, 77
2, 160704, Note_on_c, 0, 75, 77
2, 160704, Note_on_c, 0, 72, 77
2, 160704, Note_on_c, 0, 67, 77
2, 160704, Note_on_c, 0, 60, 77
2, 160988, Note_off_c, 0, 87, 0
2, 161020, Note_off_c, 0, 75, 0
2, 161028, Note_on_c, 0, 86, 89
2, 161060, Note_off_c, 0, 86, 0
2, 161064, Note_on_c, 0, 84, 90
2, 161096, Note_off_c, 0, 84, 0
2, 161100, Note_on_c, 0, 83, 91
2, 161132, Note_off_c, 0, 83, 0
2, 161136, Note_on_c, 0, 84, 93
2, 161168, Note_off_c, 0, 84, 0
2, 161172, Note_on_c, 0, 83, 94
2, 161204, Note_off_c, 0, 83, 0
2, 161208, Note_on_c, 0, 84, 95
2, 161240, Note_off_c, 0, 84, 0
2, 161244, Note_on_c, 0, 86, 96
2, 161276, Note_off_c, 0, 72, 0
2, 161276, Note_off_c, 0, 67, 0
2, 161276, Note_off_c, 0, 60, 0
2, 161276, Note_off_c, 0, 86, 0
2, 161280, Note_on_c, 0, 87, 99
2, 161280, Note_on_c, 0, 81, 99
2, 161280, Note_on_c, 0, 75, 99
2, 161852, Note_off_c, 0, 81, 0
2, 161852, Note_off_c, 0, 75, 0
2, 161912, Note_off_c, 0, 87, 0
2, 161912, Note_on_c, 0, 84, 88
2, 161968, Note_off_c, 0, 84, 0
2, 161968, Note_on_c, 0, 81, 88
2, 162024, Note_off_c, 0, 81, 0
2, 162024, Note_on_c, 0, 78, 88
2, 162080, Note_off_c, 0, 78, 0
2, 162084, Note_on_c, 0, 75, 88
2, 162140, Note_off_c, 0, 75, 0
2, 162144, Note_on_c, 0, 72, 88
2, 162200, Note_off_c, 0, 72, 0
2, 162200, Note_on_c, 0, 69, 88
2, 162256, Note_off_c, 0, 69, 0
2, 162256, Note_on_c, 0, 66, 88
2, 162312, Note_off_c, 0, 66, 0
2, 162312, Note_on_c, 0, 63, 88
2, 162368, Note_off_c, 0, 63, 0
2, 162372, Note_on_c, 0, 60, 88
2, 162428, Note_off_c, 0, 60, 0
2, 165384, Note_on_c, 0, 63, 88
2, 165452, Note_off_c, 0, 63, 0
2, 165456, Note_on_c, 0, 64, 88
2, 165524, Note_off_c, 0, 64, 0
2, 165528, Note_on_c, 0, 66, 88
2, 165528, Note_on_c, 0, 63, 88
2, 165596, Note_off_c, 0, 66, 0
2, 165596, Note_off_c, 0, 63, 0
2, 165600, Note_on_c, 0, 67, 88
2, 165600, Note_on_c, 0, 64, 88
2, 165668, Note_off_c, 0, 67, 0
2, 165668, Note_off_c, 0, 64, 0
2, 165672, Note_on_c, 0, 71, 88
2, 165672, Note_on_c, 0, 63, 88
2, 165740, Note_off_c, 0, 71, 0
2, 165740, Note_off_c, 0, 63, 0
2, 165744, Note_on_c, 0, 72, 88
2, 165744, Note_on_c, 0, 64, 88
2, 165812, Note_off_c, 0, 72, 0
2, 165812, Note_off_c, 0, 64, 0
2, 165816, Note_on_c, 0, 75, 88
2, 165816, Note_on_c, 0, 71, 88
2, 165884, Note_off_c, 0, 75, 0
2, 165884, Note_off_c, 0, 71, 0
2, 165888, Note_on_c, 0, 76, 88
2, 165888, Note_on_c, 0, 72, 88
2, 165956, Note_off_c, 0, 76, 0
2, 165956, Note_off_c, 0, 72, 0
2, 165960, Note_on_c, 0, 78, 88
2, 165960, Note_on_c, 0, 75, 88
2, 166028, Note_off_c, 0, 78, 0
2, 166028, Note_off_c, 0, 75, 0
2, 166032, Note_on_c, 0, 79, 88
2, 166032, Note_on_c, 0, 76, 88
2, 166100, Note_off_c, 0, 79, 0
2, 166100, Note_off_c, 0, 76, 0
2, 166104, Note_on_c, 0, 83, 88
2, 166104, Note_on_c, 0, 75, 88
2, 166172, Note_off_c, 0, 83, 0
2, 166172, Note_off_c, 0, 75, 0
2, 166176, Note_on_c, 0, 84, 88
2, 166176, Note_on_c, 0, 76, 88
2, 166244, Note_off_c, 0, 84, 0
2, 166244, Note_off_c, 0, 76, 0
2, 166248, Note_on_c, 0, 87, 88
2, 166248, Note_on_c, 0, 83, 88
2, 166316, Note_off_c, 0, 87, 0
2, 166316, Note_off_c, 0, 83, 0
2, 166320, Note_on_c, 0, 88, 88
2, 166320, Note_on_c, 0, 84, 88
2, 166388, Note_off_c, 0, 88, 0
2, 166388, Note_off_c, 0, 84, 0
2, 166836, Note_on_c, 0, 72, 68
2, 166928, Note_off_c, 0, 72, 0
2, 166932, Note_on_c, 0, 72, 70
2, 166964, Note_off_c, 0, 72, 0
2, 166968, Note_on_c, 0, 74, 71
2, 167000, Note_off_c, 0, 74, 0
2, 167004, Note_on_c, 0, 76, 73
2, 167036, Note_off_c, 0, 76, 0
2, 167040, Note_on_c, 0, 74, 74
2, 167064, Note_off_c, 0, 74, 0
2, 167068, Note_on_c, 0, 76, 75
2, 167092, Note_off_c, 0, 76, 0
2, 167096, Note_on_c, 0, 74, 77
2, 167120, Note_off_c, 0, 74, 0
2, 167124, Note_on_c, 0, 76, 78
2, 167148, Note_off_c, 0, 76, 0
2, 167152, Note_on_c, 0, 74, 79
2, 167176, Note_off_c, 0, 74, 0
2, 167180, Note_on_c, 0, 76, 80
2, 167204, Note_off_c, 0, 76, 0
2, 167208, Note_on_c, 0, 74, 81
2, 167232, Note_off_c, 0, 74, 0
2, 167236, Note_on_c, 0, 76, 83
2, 167260, Note_off_c, 0, 76, 0
2, 167264, Note_on_c, 0, 74, 84
2, 167288, Note_off_c, 0, 74, 0
2, 167292, Note_on_c, 0, 76, 85
2, 167316, Note_off_c, 0, 76, 0
2, 167320, Note_on_c, 0, 74, 86
2, 167344, Note_off_c, 0, 74, 0
2, 167348, Note_on_c, 0, 76, 88
2, 167372, Note_off_c, 0, 76, 0
2, 167376, Note_on_c, 0, 74, 89
2, 167400, Note_off_c, 0, 74, 0
2, 167404, Note_on_c, 0, 76, 90
2, 167428, Note_off_c, 0, 76, 0
2, 167436, Note_on_c, 0, 74, 91
2, 167460, Note_off_c, 0, 74, 0
2, 167464, Note_on_c, 0, 76, 92
2, 167488, Note_off_c, 0, 76, 0
2, 167492, Note_on_c, 0, 74, 93
2, 167516, Note_off_c, 0, 74, 0
2, 167520, Note_on_c, 0, 76, 94
2, 167544, Note_off_c, 0, 76, 0
2, 167548, Note_on_c, 0, 74, 95
2, 167572, Note_off_c, 0, 74, 0
2, 167576, Note_on_c, 0, 76, 96
2, 167600, Note_off_c, 0, 76, 0
2, 167604, Note_on_c, 0, 74, 96
2, 167628, Note_off_c, 0, 74, 0
2, 167632, Note_on_c, 0, 76, 95
2, 167656, Note_off_c, 0, 76, 0
2, 167660, Note_on_c, 0, 74, 94
2, 167684, Note_off_c, 0, 74, 0
2, 167688, Note_on_c, 0, 76, 93
2, 167712, Note_off_c, 0, 76, 0
2, 167716, Note_on_c, 0, 74, 92
2, 167740, Note_off_c, 0, 74, 0
2, 167744, Note_on_c, 0, 76, 91
2, 167768, Note_off_c, 0, 76, 64
2, 167772, Note_on_c, 0, 74, 90
2, 167796, Note_off_c, 0, 74, 64
2, 167800, Note_on_c, 0, 76, 89
2, 167824, Note_off_c, 0, 76, 64
2, 167828, Note_on_c, 0, 74, 86
2, 167852, Note_off_c, 0, 74, 64
2, 167856, Note_on_c, 0, 76, 85
2, 167880, Note_off_c, 0, 76, 64
2, 167884, Note_on_c, 0, 74, 84
2, 167908, Note_off_c, 0, 74, 64
2, 167912, Note_on_c, 0, 76, 83
2, 167936, Note_off_c, 0, 76, 64
2, 167940, Note_on_c, 0, 74, 82
2, 167964, Note_off_c, 0, 74, 64
2, 167968, Note_on_c, 0, 76, 81
2, 167992, Note_off_c, 0, 76, 64
2, 168000, Note_on_c, 0, 72, 80
2, 168092, Note_off_c, 0, 72, 0
2, 168096, Note_on_c, 0, 74, 75
2, 168188, Note_off_c, 0, 74, 0
2, 168192, Note_on_c, 0, 72, 71
2, 168196, Note_off_c, 0, 74, 0
2, 168572, Note_off_c, 0, 72, 0
2, 172800, Note_on_c, 0, 81, 66
2, 173180, Note_off_c, 0, 81, 0
2, 173184, Note_on_c, 0, 81, 66
2, 173276, Note_off_c, 0, 81, 64
2, 173280, Note_on_c, 0, 84, 66
2, 173372, Note_off_c, 0, 84, 64
2, 173376, Note_on_c, 0, 81, 66
2, 173468, Note_off_c, 0, 81, 64
2, 173472, Note_on_c, 0, 80, 66
2, 173564, Note_off_c, 0, 80, 64
2, 173568, Note_on_c, 0, 81, 66
2, 173756, Note_off_c, 0, 81, 64
2, 173760, Note_on_c, 0, 83, 66
2, 173852, Note_off_c, 0, 83, 0
2, 173856, Note_on_c, 0, 84, 66
2, 173948, Note_off_c, 0, 84, 0
2, 173952, Note_on_c, 0, 84, 66
2, 174240, Note_on_c, 0, 79, 66
2, 174332, Note_off_c, 0, 79, 0
2, 174336, Note_on_c, 0, 79, 66
2, 174524, Note_off_c, 0, 84, 0
2, 174908, Note_off_c, 0, 79, 0
2, 174912, Note_on_c, 0, 80, 66
2, 175004, Note_off_c, 0, 80, 0
2, 175008, Note_on_c, 0, 81, 66
2, 175100, Note_off_c, 0, 81, 0
2, 175104, Note_on_c, 0, 81, 66
2, 175196, Note_off_c, 0, 81, 0
2, 175200, Note_on_c, 0, 72, 66
2, 175388, Note_off_c, 0, 72, 64
2, 175392, Note_on_c, 0, 72, 66
2, 175484, Note_off_c, 0, 72, 64
2, 175488, Note_on_c, 0, 74, 66
2, 175580, Note_off_c, 0, 74, 64
2, 175584, Note_on_c, 0, 72, 66
2, 175676, Note_off_c, 0, 72, 64
2, 175680, Note_on_c, 0, 71, 66
2, 175772, Note_off_c, 0, 71, 64
2, 175776, Note_on_c, 0, 72, 66
2, 175868, Note_off_c, 0, 72, 64
2, 175872, Note_on_c, 0, 71, 66
2, 175872, Note_on_c, 0, 76, 66
2, 176060, Note_off_c, 0, 76, 0
2, 176064, Note_on_c, 0, 74, 66
2, 176252, Note_off_c, 0, 71, 0
2, 176252, Note_off_c, 0, 74, 0
2, 176256, Note_on_c, 0, 72, 66
2, 176636, Note_off_c, 0, 72, 0
2, 177408, Note_on_c, 0, 59, 99
2, 178220, Note_off_c, 0, 59, 0
2, 178224, Note_on_c, 0, 60, 77
2, 178264, Note_off_c, 0, 60, 0
2, 178272, Note_on_c, 0, 62, 79
2, 178312, Note_off_c, 0, 62, 0
2, 178320, Note_on_c, 0, 64, 81
2, 178360, Note_off_c, 0, 64, 0
2, 178368, Note_on_c, 0, 65, 83
2, 178408, Note_off_c, 0, 65, 0
2, 178416, Note_on_c, 0, 67, 85
2, 178456, Note_off_c, 0, 67, 0
2, 178464, Note_on_c, 0, 69, 88
2, 178504, Note_off_c, 0, 69, 0
2, 178512, Note_on_c, 0, 71, 91
2, 178552, Note_off_c, 0, 71, 0
2, 178560, Note_on_c, 0, 72, 94
2, 178940, Note_off_c, 0, 72, 0
2, 179712, Note_on_c, 0, 71, 99
2, 180524, Note_off_c, 0, 71, 0
2, 180528, Note_on_c, 0, 72, 77
2, 180568, Note_off_c, 0, 72, 0
2, 180576, Note_on_c, 0, 74, 79
2, 180616, Note_off_c, 0, 74, 0
2, 180624, Note_on_c, 0, 76, 81
2, 180664, Note_off_c, 0, 76, 0
2, 180672, Note_on_c, 0, 77, 83
2, 180712, Note_off_c, 0, 77, 0
2, 180720, Note_on_c, 0, 79, 85
2, 180760, Note_off_c, 0, 79, 0
2, 180768, Note_on_c, 0, 81, 88
2, 180808, Note_off_c, 0, 81, 0
2, 180816, Note_on_c, 0, 83, 92
2, 180856, Note_off_c, 0, 83, 0
2, 180960, Note_on_c, 0, 84, 96
2, 181052, Note_off_c, 0, 84, 0
2, 181056, Note_on_c, 0, 79, 92
2, 181148, Note_off_c, 0, 79, 0
2, 181152, Note_on_c, 0, 76, 88
2, 181244, Note_off_c, 0, 76, 0
2, 181248, Note_on_c, 0, 74, 83
2, 181340, Note_off_c, 0, 74, 0
2, 181344, Note_on_c, 0, 81, 79
2, 181436, Note_off_c, 0, 81, 0
2, 181440, Note_on_c, 0, 77, 74
2, 181532, Note_off_c, 0, 77, 0
2, 181536, Note_on_c, 0, 74, 70
2, 181628, Note_off_c, 0, 74, 0
2, 181632, Note_on_c, 0, 71, 66
2, 181724, Note_off_c, 0, 71, 0
2, 181728, Note_on_c, 0, 77, 61
2, 181820, Note_off_c, 0, 77, 0
2, 181824, Note_on_c, 0, 74, 57
2, 181916, Note_off_c, 0, 74, 0
2, 181920, Note_on_c, 0, 71, 52
2, 182012, Note_off_c, 0, 71, 0
2, 182016, Note_on_c, 0, 74, 48
2, 182016, Note_on_c, 0, 71, 48
2, 182016, Note_on_c, 0, 65, 48
2, 182016, Note_on_c, 0, 67, 48
2, 182396, Note_off_c, 0, 74, 0
2, 182396, Note_off_c, 0, 71, 0
2, 182396, Note_off_c, 0, 65, 0
2, 182400, Note_on_c, 0, 72, 48
2, 182400, Note_on_c, 0, 64, 48
2, 182780, Note_off_c, 0, 67, 0
2, 182780, Note_off_c, 0, 72, 0
2, 182780, Note_off_c, 0, 64, 0
2, 182780, End_track
3, 0, Start_track
3, 0, Title_t, "Concerto  #17"
3, 0, Control_c, 1, 0, 0
3, 0, Program_c, 1, 0
3, 0, Control_c, 1, 7, 127
3, 0, Control_c, 1, 10, 63
3, 0, Control_c, 1, 91, 87
3, 0, Control_c, 1, 93, 45
3, 0, Key_signature, 0, "major"
3, 0, Control_c, 1, 121, 0
3, 384, Control_c, 1, 10, 63
3, 480, Control_c, 1, 91, 63
3, 576, Control_c, 1, 93, 35
3, 672, Program_c, 1, 0
3, 34560, Note_on_c, 1, 60, 66
3, 34560, Note_on_c, 1, 64, 66
3, 34748, Note_off_c, 1, 60, 0
3, 34748, Note_off_c, 1, 64, 0
3, 34752, Note_on_c, 1, 60, 66
3, 34752, Note_on_c, 1, 64, 66
3, 34940, Note_off_c, 1, 60, 0
3, 34940, Note_off_c, 1, 64, 0
3, 34944, Note_on_c, 1, 60, 66
3, 34944, Note_on_c, 1, 64, 66
3, 35132, Note_off_c, 1, 60, 0
3, 35132, Note_off_c, 1, 64, 0
3, 35136, Note_on_c, 1, 60, 66
3, 35136, Note_on_c, 1, 64, 66
3, 35324, Note_off_c, 1, 60, 0
3, 35324, Note_off_c, 1, 64, 0
3, 35328, Note_on_c, 1, 60, 66
3, 35328, Note_on_c, 1, 64, 66
3, 35516, Note_off_c, 1, 60, 0
3, 35516, Note_off_c, 1, 64, 0
3, 35520, Note_on_c, 1, 60, 66
3, 35520, Note_on_c, 1, 64, 66
3, 35708, Note_off_c, 1, 60, 0
3, 35708, Note_off_c, 1, 64, 0
3, 35712, Note_on_c, 1, 59, 66
3, 35712, Note_on_c, 1, 62, 66
3, 35900, Note_off_c, 1, 59, 0
3, 35900, Note_off_c, 1, 62, 0
3, 35904, Note_on_c, 1, 59, 66
3, 35904, Note_on_c, 1, 62, 66
3, 36092, Note_off_c, 1, 59, 0
3, 36092, Note_off_c, 1, 62, 0
3, 36096, Note_on_c, 1, 59, 66
3, 36096, Note_on_c, 1, 62, 66
3, 36284, Note_off_c, 1, 59, 0
3, 36284, Note_off_c, 1, 62, 0
3, 36288, Note_on_c, 1, 59, 66
3, 36288, Note_on_c, 1, 62, 66
3, 36476, Note_off_c, 1, 59, 0
3, 36476, Note_off_c, 1, 62, 0
3, 36480, Note_on_c, 1, 59, 66
3, 36480, Note_on_c, 1, 62, 66
3, 36668, Note_off_c, 1, 59, 0
3, 36668, Note_off_c, 1, 62, 0
3, 36672, Note_on_c, 1, 59, 66
3, 36672, Note_on_c, 1, 62, 66
3, 36860, Note_off_c, 1, 59, 0
3, 36860, Note_off_c, 1, 62, 0
3, 36864, Note_on_c, 1, 57, 66
3, 36864, Note_on_c, 1, 60, 66
3, 37052, Note_off_c, 1, 57, 0
3, 37052, Note_off_c, 1, 60, 0
3, 37056, Note_on_c, 1, 57, 66
3, 37056, Note_on_c, 1, 60, 66
3, 37244, Note_off_c, 1, 57, 0
3, 37244, Note_off_c, 1, 60, 0
3, 37248, Note_on_c, 1, 57, 66
3, 37248, Note_on_c, 1, 66, 66
3, 37436, Note_off_c, 1, 57, 0
3, 37436, Note_off_c, 1, 66, 0
3, 37440, Note_on_c, 1, 57, 66
3, 37440, Note_on_c, 1, 66, 66
3, 37628, Note_off_c, 1, 57, 0
3, 37628, Note_off_c, 1, 66, 0
3, 37632, Note_on_c, 1, 57, 66
3, 37632, Note_on_c, 1, 66, 66
3, 37820, Note_off_c, 1, 57, 0
3, 37820, Note_off_c, 1, 66, 0
3, 37824, Note_on_c, 1, 57, 66
3, 37824, Note_on_c, 1, 66, 66
3, 38012, Note_off_c, 1, 57, 0
3, 38012, Note_off_c, 1, 66, 0
3, 38016, Note_on_c, 1, 67, 66
3, 38016, Note_on_c, 1, 62, 66
3, 38016, Note_on_c, 1, 55, 66
3, 38780, Note_off_c, 1, 67, 0
3, 38780, Note_off_c, 1, 62, 0
3, 38780, Note_off_c, 1, 55, 0
3, 39168, Note_on_c, 1, 55, 66
3, 39168, Note_on_c, 1, 50, 66
3, 39168, Note_on_c, 1, 47, 66
3, 39168, Note_on_c, 1, 43, 66
3, 39548, Note_off_c, 1, 55, 0
3, 39548, Note_off_c, 1, 50, 0
3, 39548, Note_off_c, 1, 47, 0
3, 39548, Note_off_c, 1, 43, 0
3, 40320, Note_on_c, 1, 55, 93
3, 40320, Note_on_c, 1, 50, 93
3, 40320, Note_on_c, 1, 46, 93
3, 40320, Note_on_c, 1, 43, 93
3, 40508, Note_off_c, 1, 55, 0
3, 40508, Note_off_c, 1, 50, 0
3, 40508, Note_off_c, 1, 46, 0
3, 40508, Note_off_c, 1, 43, 0
3, 40512, Note_on_c, 1, 58, 66
3, 40512, Note_on_c, 1, 55, 66
3, 40700, Note_off_c, 1, 58, 0
3, 40700, Note_off_c, 1, 55, 0
3, 40704, Note_on_c, 1, 58, 66
3, 40704, Note_on_c, 1, 55, 66
3, 40892, Note_off_c, 1, 58, 0
3, 40892, Note_off_c, 1, 55, 0
3, 40896, Note_on_c, 1, 58, 66
3, 40896, Note_on_c, 1, 55, 66
3, 41084, Note_off_c, 1, 58, 0
3, 41084, Note_off_c, 1, 55, 0
3, 41088, Note_on_c, 1, 58, 66
3, 41088, Note_on_c, 1, 55, 66
3, 41276, Note_off_c, 1, 58, 0
3, 41276, Note_off_c, 1, 55, 0
3, 41280, Note_on_c, 1, 58, 66
3, 41280, Note_on_c, 1, 55, 66
3, 41468, Note_off_c, 1, 58, 0
3, 41468, Note_off_c, 1, 55, 0
3, 41664, Note_on_c, 1, 57, 66
3, 41664, Note_on_c, 1, 60, 66
3, 41664, Note_on_c, 1, 63, 66
3, 41664, Note_on_c, 1, 55, 66
3, 41852, Note_off_c, 1, 57, 0
3, 41852, Note_off_c, 1, 60, 0
3, 41852, Note_off_c, 1, 63, 0
3, 41852, Note_off_c, 1, 55, 0
3, 41856, Note_on_c, 1, 57, 66
3, 41856, Note_on_c, 1, 60, 66
3, 41856, Note_on_c, 1, 63, 66
3, 41856, Note_on_c, 1, 55, 66
3, 42044, Note_off_c, 1, 57, 0
3, 42044, Note_off_c, 1, 60, 0
3, 42044, Note_off_c, 1, 63, 0
3, 42044, Note_off_c, 1, 55, 0
3, 42048, Note_on_c, 1, 57, 66
3, 42048, Note_on_c, 1, 55, 66
3, 42048, Note_on_c, 1, 60, 66
3, 42048, Note_on_c, 1, 63, 66
3, 42236, Note_off_c, 1, 57, 0
3, 42236, Note_off_c, 1, 55, 0
3, 42236, Note_off_c, 1, 60, 0
3, 42236, Note_off_c, 1, 63, 0
3, 42240, Note_on_c, 1, 63, 66
3, 42240, Note_on_c, 1, 57, 66
3, 42240, Note_on_c, 1, 55, 66
3, 42240, Note_on_c, 1, 60, 66
3, 42428, Note_off_c, 1, 63, 0
3, 42428, Note_off_c, 1, 57, 0
3, 42428, Note_off_c, 1, 55, 0
3, 42428, Note_off_c, 1, 60, 0
3, 42432, Note_on_c, 1, 63, 66
3, 42432, Note_on_c, 1, 60, 66
3, 42432, Note_on_c, 1, 57, 66
3, 42432, Note_on_c, 1, 55, 66
3, 42620, Note_off_c, 1, 63, 0
3, 42620, Note_off_c, 1, 60, 0
3, 42620, Note_off_c, 1, 57, 0
3, 42620, Note_off_c, 1, 55, 0
3, 42816, Note_on_c, 1, 62, 66
3, 42816, Note_on_c, 1, 57, 66
3, 42816, Note_on_c, 1, 54, 66
3, 43004, Note_off_c, 1, 62, 0
3, 43004, Note_off_c, 1, 57, 0
3, 43004, Note_off_c, 1, 54, 0
3, 43008, Note_on_c, 1, 62, 66
3, 43008, Note_on_c, 1, 57, 66
3, 43008, Note_on_c, 1, 54, 66
3, 43196, Note_off_c, 1, 62, 0
3, 43196, Note_off_c, 1, 57, 0
3, 43196, Note_off_c, 1, 54, 0
3, 43200, Note_on_c, 1, 62, 66
3, 43200, Note_on_c, 1, 57, 66
3, 43200, Note_on_c, 1, 54, 66
3, 43388, Note_off_c, 1, 62, 0
3, 43388, Note_off_c, 1, 57, 0
3, 43388, Note_off_c, 1, 54, 0
3, 43392, Note_on_c, 1, 62, 66
3, 43392, Note_on_c, 1, 57, 66
3, 43392, Note_on_c, 1, 54, 66
3, 43580, Note_off_c, 1, 62, 0
3, 43580, Note_off_c, 1, 57, 0
3, 43580, Note_off_c, 1, 54, 0
3, 43584, Note_on_c, 1, 62, 66
3, 43584, Note_on_c, 1, 57, 66
3, 43584, Note_on_c, 1, 54, 66
3, 43772, Note_off_c, 1, 62, 0
3, 43772, Note_off_c, 1, 57, 0
3, 43772, Note_off_c, 1, 54, 0
3, 43968, Note_on_c, 1, 55, 66
3, 43968, Note_on_c, 1, 58, 66
3, 43968, Note_on_c, 1, 62, 66
3, 44156, Note_off_c, 1, 55, 0
3, 44156, Note_off_c, 1, 58, 0
3, 44156, Note_off_c, 1, 62, 0
3, 44160, Note_on_c, 1, 62, 66
3, 44160, Note_on_c, 1, 58, 66
3, 44160, Note_on_c, 1, 55, 66
3, 44348, Note_off_c, 1, 62, 0
3, 44348, Note_off_c, 1, 58, 0
3, 44348, Note_off_c, 1, 55, 0
3, 44352, Note_on_c, 1, 62, 66
3, 44352, Note_on_c, 1, 58, 66
3, 44352, Note_on_c, 1, 55, 66
3, 44540, Note_off_c, 1, 62, 0
3, 44540, Note_off_c, 1, 58, 0
3, 44540, Note_off_c, 1, 55, 0
3, 44544, Note_on_c, 1, 62, 66
3, 44544, Note_on_c, 1, 58, 66
3, 44544, Note_on_c, 1, 55, 66
3, 44732, Note_off_c, 1, 62, 0
3, 44732, Note_off_c, 1, 58, 0
3, 44732, Note_off_c, 1, 55, 0
3, 44736, Note_on_c, 1, 62, 66
3, 44736, Note_on_c, 1, 58, 66
3, 44736, Note_on_c, 1, 55, 66
3, 44924, Note_off_c, 1, 62, 0
3, 44924, Note_off_c, 1, 58, 0
3, 44924, Note_off_c, 1, 55, 0
3, 44928, Note_on_c, 1, 46, 66
3, 45308, Note_off_c, 1, 46, 0
3, 46080, Note_on_c, 1, 48, 67
3, 46460, Note_off_c, 1, 48, 0
3, 47232, Note_on_c, 1, 49, 88
3, 47612, Note_off_c, 1, 49, 0
3, 48384, Note_on_c, 1, 50, 86
3, 48764, Note_off_c, 1, 50, 0
3, 52992, Note_on_c, 1, 43, 80
3, 53372, Note_off_c, 1, 43, 0
3, 54144, Note_on_c, 1, 60, 66
3, 54332, Note_off_c, 1, 60, 0
3, 54528, Note_on_c, 1, 57, 66
3, 54716, Note_off_c, 1, 57, 0
3, 54912, Note_on_c, 1, 54, 81
3, 55100, Note_off_c, 1, 54, 0
3, 55296, Note_on_c, 1, 59, 72
3, 55484, Note_off_c, 1, 59, 0
3, 55680, Note_on_c, 1, 56, 77
3, 55868, Note_off_c, 1, 56, 0
3, 56064, Note_on_c, 1, 52, 81
3, 56252, Note_off_c, 1, 52, 0
3, 56448, Note_on_c, 1, 57, 72
3, 56636, Note_off_c, 1, 57, 0
3, 56832, Note_on_c, 1, 54, 66
3, 57020, Note_off_c, 1, 54, 0
3, 57216, Note_on_c, 1, 50, 81
3, 57404, Note_off_c, 1, 50, 0
3, 57600, Note_on_c, 1, 55, 72
3, 57792, Note_on_c, 1, 59, 68
3, 57792, Note_on_c, 1, 62, 68
3, 57980, Note_off_c, 1, 55, 0
3, 57980, Note_off_c, 1, 59, 0
3, 57980, Note_off_c, 1, 62, 0
3, 57984, Note_on_c, 1, 57, 67
3, 58176, Note_on_c, 1, 60, 72
3, 58176, Note_on_c, 1, 66, 72
3, 58364, Note_off_c, 1, 57, 0
3, 58364, Note_off_c, 1, 60, 0
3, 58364, Note_off_c, 1, 66, 0
3, 58368, Note_on_c, 1, 59, 78
3, 58560, Note_on_c, 1, 62, 83
3, 58560, Note_on_c, 1, 67, 83
3, 58748, Note_off_c, 1, 59, 0
3, 58748, Note_off_c, 1, 62, 0
3, 58748, Note_off_c, 1, 67, 0
3, 58752, Note_on_c, 1, 67, 88
3, 58752, Note_on_c, 1, 60, 88
3, 58940, Note_off_c, 1, 67, 0
3, 58940, Note_off_c, 1, 60, 0
3, 58944, Note_on_c, 1, 67, 88
3, 58944, Note_on_c, 1, 60, 88
3, 59132, Note_off_c, 1, 67, 0
3, 59132, Note_off_c, 1, 60, 0
3, 59136, Note_on_c, 1, 67, 88
3, 59136, Note_on_c, 1, 60, 88
3, 59324, Note_off_c, 1, 67, 0
3, 59324, Note_off_c, 1, 60, 0
3, 59328, Note_on_c, 1, 67, 88
3, 59328, Note_on_c, 1, 60, 88
3, 59516, Note_off_c, 1, 67, 0
3, 59516, Note_off_c, 1, 60, 0
3, 59520, Note_on_c, 1, 67, 88
3, 59520, Note_on_c, 1, 60, 88
3, 59708, Note_off_c, 1, 67, 0
3, 59708, Note_off_c, 1, 60, 0
3, 59712, Note_on_c, 1, 64, 88
3, 59712, Note_on_c, 1, 60, 88
3, 59900, Note_off_c, 1, 64, 0
3, 59900, Note_off_c, 1, 60, 0
3, 59904, Note_on_c, 1, 62, 88
3, 59904, Note_on_c, 1, 66, 88
3, 60284, Note_off_c, 1, 62, 0
3, 60284, Note_off_c, 1, 66, 0
3, 60288, Note_on_c, 1, 63, 88
3, 60288, Note_on_c, 1, 66, 88
3, 60668, Note_off_c, 1, 63, 0
3, 60668, Note_off_c, 1, 66, 0
3, 60672, Note_on_c, 1, 64, 88
3, 60672, Note_on_c, 1, 67, 88
3, 60860, Note_off_c, 1, 64, 0
3, 60860, Note_off_c, 1, 67, 0
3, 60864, Note_on_c, 1, 59, 88
3, 61052, Note_off_c, 1, 59, 0
3, 61056, Note_on_c, 1, 60, 88
3, 61056, Note_on_c, 1, 67, 88
3, 61244, Note_off_c, 1, 67, 0
3, 61248, Note_on_c, 1, 64, 88
3, 61436, Note_off_c, 1, 60, 0
3, 61436, Note_off_c, 1, 64, 0
3, 61440, Note_on_c, 1, 59, 88
3, 61440, Note_on_c, 1, 50, 88
3, 61628, Note_off_c, 1, 59, 0
3, 61628, Note_off_c, 1, 50, 0
3, 61632, Note_on_c, 1, 59, 86
3, 61632, Note_on_c, 1, 50, 86
3, 61820, Note_off_c, 1, 59, 0
3, 61820, Note_off_c, 1, 50, 0
3, 61824, Note_on_c, 1, 60, 79
3, 61824, Note_on_c, 1, 50, 79
3, 62012, Note_off_c, 1, 60, 0
3, 62012, Note_off_c, 1, 50, 0
3, 62016, Note_on_c, 1, 60, 71
3, 62016, Note_on_c, 1, 50, 71
3, 62204, Note_off_c, 1, 60, 0
3, 62204, Note_off_c, 1, 50, 0
3, 62208, Note_on_c, 1, 59, 66
3, 62208, Note_on_c, 1, 55, 66
3, 62588, Note_off_c, 1, 59, 0
3, 62588, Note_off_c, 1, 55, 0
3, 67200, Note_on_c, 1, 57, 66
3, 67200, Note_on_c, 1, 60, 66
3, 67200, Note_on_c, 1, 66, 66
3, 67388, Note_off_c, 1, 57, 0
3, 67388, Note_off_c, 1, 60, 0
3, 67388, Note_off_c, 1, 66, 0
3, 67584, Note_on_c, 1, 59, 66
3, 67584, Note_on_c, 1, 62, 66
3, 67584, Note_on_c, 1, 67, 66
3, 67772, Note_off_c, 1, 59, 0
3, 67772, Note_off_c, 1, 62, 0
3, 67772, Note_off_c, 1, 67, 0
3, 67968, Note_on_c, 1, 67, 66
3, 67968, Note_on_c, 1, 60, 66
3, 68348, Note_off_c, 1, 67, 0
3, 68348, Note_off_c, 1, 60, 0
3, 69120, Note_on_c, 1, 64, 66
3, 69120, Note_on_c, 1, 60, 66
3, 69500, Note_off_c, 1, 64, 0
3, 69500, Note_off_c, 1, 60, 0
3, 70272, Note_on_c, 1, 64, 66
3, 70272, Note_on_c, 1, 60, 66
3, 70652, Note_off_c, 1, 64, 0
3, 70652, Note_off_c, 1, 60, 0
3, 71232, Note_on_c, 1, 57, 66
3, 71232, Note_on_c, 1, 55, 66
3, 71232, Note_on_c, 1, 52, 66
3, 71420, Note_off_c, 1, 57, 0
3, 71420, Note_off_c, 1, 55, 0
3, 71420, Note_off_c, 1, 52, 0
3, 71424, Note_on_c, 1, 59, 67
3, 71424, Note_on_c, 1, 55, 67
3, 71424, Note_on_c, 1, 50, 67
3, 71612, Note_off_c, 1, 59, 0
3, 71612, Note_off_c, 1, 55, 0
3, 71612, Note_off_c, 1, 50, 0
3, 71808, Note_on_c, 1, 59, 74
3, 71808, Note_on_c, 1, 55, 74
3, 71808, Note_on_c, 1, 50, 74
3, 71996, Note_off_c, 1, 59, 0
3, 71996, Note_off_c, 1, 55, 0
3, 71996, Note_off_c, 1, 50, 0
3, 72192, Note_on_c, 1, 59, 82
3, 72192, Note_on_c, 1, 55, 82
3, 72192, Note_on_c, 1, 50, 82
3, 72380, Note_off_c, 1, 59, 0
3, 72380, Note_off_c, 1, 55, 0
3, 72380, Note_off_c, 1, 50, 0
3, 72576, Note_on_c, 1, 60, 88
3, 72576, Note_on_c, 1, 54, 88
3, 72576, Note_on_c, 1, 50, 88
3, 72764, Note_off_c, 1, 60, 0
3, 72764, Note_off_c, 1, 54, 0
3, 72764, Note_off_c, 1, 50, 0
3, 72960, Note_on_c, 1, 60, 80
3, 72960, Note_on_c, 1, 54, 80
3, 72960, Note_on_c, 1, 50, 80
3, 73148, Note_off_c, 1, 60, 0
3, 73148, Note_off_c, 1, 54, 0
3, 73148, Note_off_c, 1, 50, 0
3, 73344, Note_on_c, 1, 60, 72
3, 73344, Note_on_c, 1, 54, 72
3, 73344, Note_on_c, 1, 50, 72
3, 73532, Note_off_c, 1, 60, 0
3, 73532, Note_off_c, 1, 54, 0
3, 73532, Note_off_c, 1, 50, 0
3, 73728, Note_on_c, 1, 59, 66
3, 73728, Note_on_c, 1, 55, 66
3, 74108, Note_off_c, 1, 59, 0
3, 74108, Note_off_c, 1, 55, 0
3, 79488, Note_on_c, 1, 62, 66
3, 79488, Note_on_c, 1, 50, 66
3, 79676, Note_off_c, 1, 62, 0
3, 79680, Note_on_c, 1, 62, 66
3, 79868, Note_off_c, 1, 62, 0
3, 79872, Note_on_c, 1, 62, 66
3, 80060, Note_off_c, 1, 62, 0
3, 80064, Note_on_c, 1, 62, 66
3, 80252, Note_off_c, 1, 62, 0
3, 80256, Note_on_c, 1, 62, 66
3, 80444, Note_off_c, 1, 62, 0
3, 80448, Note_on_c, 1, 62, 66
3, 80636, Note_off_c, 1, 50, 0
3, 80636, Note_off_c, 1, 62, 0
3, 80640, Note_on_c, 1, 50, 66
3, 80640, Note_on_c, 1, 62, 66
3, 80828, Note_off_c, 1, 62, 0
3, 80832, Note_on_c, 1, 62, 66
3, 81020, Note_off_c, 1, 62, 0
3, 81024, Note_on_c, 1, 62, 66
3, 81212, Note_off_c, 1, 62, 0
3, 81216, Note_on_c, 1, 62, 66
3, 81404, Note_off_c, 1, 50, 0
3, 81404, Note_off_c, 1, 62, 0
3, 81408, Note_on_c, 1, 50, 66
3, 81408, Note_on_c, 1, 62, 66
3, 81596, Note_off_c, 1, 62, 0
3, 81600, Note_on_c, 1, 62, 66
3, 81788, Note_off_c, 1, 50, 0
3, 81788, Note_off_c, 1, 62, 0
3, 81792, Note_on_c, 1, 62, 66
3, 81792, Note_on_c, 1, 55, 66
3, 81980, Note_off_c, 1, 62, 0
3, 81984, Note_on_c, 1, 62, 66
3, 82172, Note_off_c, 1, 55, 0
3, 82172, Note_off_c, 1, 62, 0
3, 82176, Note_on_c, 1, 62, 66
3, 82176, Note_on_c, 1, 57, 66
3, 82364, Note_off_c, 1, 62, 0
3, 82368, Note_on_c, 1, 62, 67
3, 82556, Note_off_c, 1, 62, 0
3, 82560, Note_on_c, 1, 61, 71
3, 82748, Note_off_c, 1, 61, 0
3, 82752, Note_on_c, 1, 61, 75
3, 82940, Note_off_c, 1, 57, 0
3, 82940, Note_off_c, 1, 61, 0
3, 82944, Note_on_c, 1, 62, 80
3, 82944, Note_on_c, 1, 58, 80
3, 83132, Note_off_c, 1, 62, 0
3, 83136, Note_on_c, 1, 62, 84
3, 83324, Note_off_c, 1, 58, 0
3, 83324, Note_off_c, 1, 62, 0
3, 83328, Note_on_c, 1, 62, 88
3, 83328, Note_on_c, 1, 58, 88
3, 83516, Note_off_c, 1, 62, 0
3, 83520, Note_on_c, 1, 62, 88
3, 83708, Note_off_c, 1, 58, 0
3, 83708, Note_off_c, 1, 62, 0
3, 83712, Note_on_c, 1, 62, 88
3, 83712, Note_on_c, 1, 53, 88
3, 83900, Note_off_c, 1, 62, 0
3, 83904, Note_on_c, 1, 62, 88
3, 84092, Note_off_c, 1, 53, 0
3, 84092, Note_off_c, 1, 62, 0
3, 84096, Note_on_c, 1, 55, 88
3, 84096, Note_on_c, 1, 62, 88
3, 84284, Note_off_c, 1, 62, 0
3, 84288, Note_on_c, 1, 62, 88
3, 84476, Note_off_c, 1, 55, 0
3, 84476, Note_off_c, 1, 62, 0
3, 84480, Note_on_c, 1, 57, 86
3, 84480, Note_on_c, 1, 62, 86
3, 84668, Note_off_c, 1, 62, 0
3, 84672, Note_on_c, 1, 62, 83
3, 84860, Note_off_c, 1, 57, 0
3, 84860, Note_off_c, 1, 62, 0
3, 84864, Note_on_c, 1, 57, 79
3, 84864, Note_on_c, 1, 61, 79
3, 85052, Note_off_c, 1, 61, 0
3, 85056, Note_on_c, 1, 67, 75
3, 85244, Note_off_c, 1, 57, 0
3, 85244, Note_off_c, 1, 67, 0
3, 85248, Note_on_c, 1, 62, 71
3, 85248, Note_on_c, 1, 65, 71
3, 85628, Note_off_c, 1, 62, 0
3, 85628, Note_off_c, 1, 65, 0
3, 86400, Note_on_c, 1, 59, 68
3, 86400, Note_on_c, 1, 56, 68
3, 87164, Note_off_c, 1, 59, 0
3, 87168, Note_on_c, 1, 64, 86
3, 87548, Note_off_c, 1, 56, 0
3, 87548, Note_off_c, 1, 64, 0
3, 87552, Note_on_c, 1, 64, 66
3, 87552, Note_on_c, 1, 57, 66
3, 87932, Note_off_c, 1, 64, 0
3, 87932, Note_off_c, 1, 57, 0
3, 88704, Note_on_c, 1, 51, 68
3, 88704, Note_on_c, 1, 54, 68
3, 88892, Note_off_c, 1, 51, 0
3, 88896, Note_on_c, 1, 51, 79
3, 89084, Note_off_c, 1, 51, 0
3, 89088, Note_on_c, 1, 51, 88
3, 89276, Note_off_c, 1, 51, 0
3, 89280, Note_on_c, 1, 51, 88
3, 89468, Note_off_c, 1, 54, 0
3, 89468, Note_off_c, 1, 51, 0
3, 89472, Note_on_c, 1, 51, 85
3, 89472, Note_on_c, 1, 59, 85
3, 89660, Note_off_c, 1, 51, 0
3, 89664, Note_on_c, 1, 51, 73
3, 89852, Note_off_c, 1, 59, 0
3, 89852, Note_off_c, 1, 51, 0
3, 89856, Note_on_c, 1, 59, 66
3, 89856, Note_on_c, 1, 52, 66
3, 90236, Note_off_c, 1, 59, 0
3, 90236, Note_off_c, 1, 52, 0
3, 91008, Note_on_c, 1, 49, 88
3, 91008, Note_on_c, 1, 46, 88
3, 91388, Note_off_c, 1, 49, 0
3, 91392, Note_on_c, 1, 54, 88
3, 92156, Note_off_c, 1, 46, 0
3, 92156, Note_off_c, 1, 54, 0
3, 92160, Note_on_c, 1, 53, 72
3, 92160, Note_on_c, 1, 47, 72
3, 92540, Note_off_c, 1, 53, 0
3, 92540, Note_off_c, 1, 47, 0
3, 92544, Note_on_c, 1, 59, 66
3, 92544, Note_on_c, 1, 62, 66
3, 93308, Note_off_c, 1, 59, 0
3, 93308, Note_off_c, 1, 62, 0
3, 93312, Note_on_c, 1, 61, 67
3, 93312, Note_on_c, 1, 53, 67
3, 94076, Note_off_c, 1, 61, 0
3, 94076, Note_off_c, 1, 53, 0
3, 94464, Note_on_c, 1, 61, 89
3, 94464, Note_on_c, 1, 54, 89
3, 94652, Note_off_c, 1, 61, 0
3, 94652, Note_off_c, 1, 54, 0
3, 94656, Note_on_c, 1, 61, 89
3, 94656, Note_on_c, 1, 54, 89
3, 94844, Note_off_c, 1, 61, 0
3, 94844, Note_off_c, 1, 54, 0
3, 94848, Note_on_c, 1, 61, 88
3, 94848, Note_on_c, 1, 54, 88
3, 95036, Note_off_c, 1, 61, 0
3, 95036, Note_off_c, 1, 54, 0
3, 95040, Note_on_c, 1, 61, 88
3, 95040, Note_on_c, 1, 54, 88
3, 95228, Note_off_c, 1, 61, 0
3, 95228, Note_off_c, 1, 54, 0
3, 95232, Note_on_c, 1, 60, 88
3, 95232, Note_on_c, 1, 56, 88
3, 95420, Note_off_c, 1, 60, 0
3, 95420, Note_off_c, 1, 56, 0
3, 95424, Note_on_c, 1, 60, 88
3, 95424, Note_on_c, 1, 56, 88
3, 95612, Note_off_c, 1, 60, 0
3, 95612, Note_off_c, 1, 56, 0
3, 95616, Note_on_c, 1, 61, 88
3, 95616, Note_on_c, 1, 57, 88
3, 95996, Note_off_c, 1, 61, 0
3, 96000, Note_on_c, 1, 64, 88
3, 96380, Note_off_c, 1, 64, 0
3, 96384, Note_on_c, 1, 67, 88
3, 96764, Note_off_c, 1, 57, 0
3, 96764, Note_off_c, 1, 67, 0
3, 96768, Note_on_c, 1, 68, 88
3, 96768, Note_on_c, 1, 56, 88
3, 96956, Note_off_c, 1, 68, 0
3, 96956, Note_off_c, 1, 56, 0
3, 96960, Note_on_c, 1, 60, 88
3, 97148, Note_off_c, 1, 60, 0
3, 97152, Note_on_c, 1, 61, 88
3, 97532, Note_off_c, 1, 61, 0
3, 97536, Note_on_c, 1, 55, 88
3, 97916, Note_off_c, 1, 55, 0
3, 97920, Note_on_c, 1, 56, 86
3, 98108, Note_off_c, 1, 56, 0
3, 98112, Note_on_c, 1, 48, 81
3, 98300, Note_off_c, 1, 48, 0
3, 98304, Note_on_c, 1, 49, 75
3, 98684, Note_off_c, 1, 49, 0
3, 98688, Note_on_c, 1, 43, 64
3, 99068, Note_off_c, 1, 43, 0
3, 99072, Note_on_c, 1, 44, 55
3, 99452, Note_off_c, 1, 44, 0
3, 103680, Note_on_c, 1, 64, 66
3, 103680, Note_on_c, 1, 60, 66
3, 103868, Note_off_c, 1, 64, 0
3, 103868, Note_off_c, 1, 60, 0
3, 103872, Note_on_c, 1, 64, 66
3, 103872, Note_on_c, 1, 60, 66
3, 104060, Note_off_c, 1, 64, 0
3, 104060, Note_off_c, 1, 60, 0
3, 104064, Note_on_c, 1, 64, 66
3, 104064, Note_on_c, 1, 60, 66
3, 104252, Note_off_c, 1, 64, 0
3, 104252, Note_off_c, 1, 60, 0
3, 104256, Note_on_c, 1, 64, 66
3, 104256, Note_on_c, 1, 60, 66
3, 104444, Note_off_c, 1, 64, 0
3, 104444, Note_off_c, 1, 60, 0
3, 104448, Note_on_c, 1, 64, 66
3, 104448, Note_on_c, 1, 60, 66
3, 104636, Note_off_c, 1, 64, 0
3, 104636, Note_off_c, 1, 60, 0
3, 104640, Note_on_c, 1, 64, 66
3, 104640, Note_on_c, 1, 60, 66
3, 104828, Note_off_c, 1, 64, 0
3, 104828, Note_off_c, 1, 60, 0
3, 104832, Note_on_c, 1, 59, 66
3, 104832, Note_on_c, 1, 62, 66
3, 105020, Note_off_c, 1, 59, 0
3, 105020, Note_off_c, 1, 62, 0
3, 105024, Note_on_c, 1, 62, 66
3, 105024, Note_on_c, 1, 59, 66
3, 105212, Note_off_c, 1, 62, 0
3, 105212, Note_off_c, 1, 59, 0
3, 105216, Note_on_c, 1, 62, 66
3, 105216, Note_on_c, 1, 59, 66
3, 105404, Note_off_c, 1, 62, 0
3, 105404, Note_off_c, 1, 59, 0
3, 105408, Note_on_c, 1, 62, 66
3, 105408, Note_on_c, 1, 59, 66
3, 105596, Note_off_c, 1, 62, 0
3, 105596, Note_off_c, 1, 59, 0
3, 105600, Note_on_c, 1, 62, 66
3, 105600, Note_on_c, 1, 59, 66
3, 105788, Note_off_c, 1, 62, 0
3, 105788, Note_off_c, 1, 59, 0
3, 105792, Note_on_c, 1, 62, 66
3, 105792, Note_on_c, 1, 59, 66
3, 105980, Note_off_c, 1, 62, 0
3, 105980, Note_off_c, 1, 59, 0
3, 105984, Note_on_c, 1, 57, 66
3, 105984, Note_on_c, 1, 60, 66
3, 106172, Note_off_c, 1, 57, 0
3, 106172, Note_off_c, 1, 60, 0
3, 106176, Note_on_c, 1, 57, 66
3, 106176, Note_on_c, 1, 60, 66
3, 106364, Note_off_c, 1, 57, 0
3, 106364, Note_off_c, 1, 60, 0
3, 106368, Note_on_c, 1, 57, 66
3, 106368, Note_on_c, 1, 66, 66
3, 106556, Note_off_c, 1, 57, 0
3, 106556, Note_off_c, 1, 66, 0
3, 106560, Note_on_c, 1, 57, 66
3, 106560, Note_on_c, 1, 66, 66
3, 106748, Note_off_c, 1, 57, 0
3, 106748, Note_off_c, 1, 66, 0
3, 106752, Note_on_c, 1, 57, 66
3, 106752, Note_on_c, 1, 66, 66
3, 106940, Note_off_c, 1, 57, 0
3, 106940, Note_off_c, 1, 66, 0
3, 106944, Note_on_c, 1, 57, 66
3, 106944, Note_on_c, 1, 66, 66
3, 107132, Note_off_c, 1, 57, 0
3, 107132, Note_off_c, 1, 66, 0
3, 107136, Note_on_c, 1, 67, 66
3, 107136, Note_on_c, 1, 62, 66
3, 107136, Note_on_c, 1, 55, 66
3, 107900, Note_off_c, 1, 67, 0
3, 107900, Note_off_c, 1, 62, 0
3, 107900, Note_off_c, 1, 55, 0
3, 108288, Note_on_c, 1, 55, 66
3, 108288, Note_on_c, 1, 50, 66
3, 108288, Note_on_c, 1, 47, 66
3, 108288, Note_on_c, 1, 43, 66
3, 108668, Note_off_c, 1, 55, 0
3, 108668, Note_off_c, 1, 50, 0
3, 108668, Note_off_c, 1, 47, 0
3, 108668, Note_off_c, 1, 43, 0
3, 109440, Note_on_c, 1, 51, 66
3, 109440, Note_on_c, 1, 46, 66
3, 109440, Note_on_c, 1, 43, 66
3, 109440, Note_on_c, 1, 39, 66
3, 109628, Note_off_c, 1, 51, 0
3, 109628, Note_off_c, 1, 46, 0
3, 109628, Note_off_c, 1, 43, 0
3, 109628, Note_off_c, 1, 39, 0
3, 109632, Note_on_c, 1, 55, 66
3, 109632, Note_on_c, 1, 51, 66
3, 109820, Note_off_c, 1, 55, 0
3, 109820, Note_off_c, 1, 51, 0
3, 109824, Note_on_c, 1, 55, 66
3, 109824, Note_on_c, 1, 51, 66
3, 110012, Note_off_c, 1, 55, 0
3, 110012, Note_off_c, 1, 51, 0
3, 110016, Note_on_c, 1, 55, 66
3, 110016, Note_on_c, 1, 51, 66
3, 110204, Note_off_c, 1, 55, 0
3, 110204, Note_off_c, 1, 51, 0
3, 110208, Note_on_c, 1, 55, 66
3, 110208, Note_on_c, 1, 51, 66
3, 110396, Note_off_c, 1, 55, 0
3, 110396, Note_off_c, 1, 51, 0
3, 110400, Note_on_c, 1, 55, 66
3, 110400, Note_on_c, 1, 51, 66
3, 110588, Note_off_c, 1, 55, 0
3, 110588, Note_off_c, 1, 51, 0
3, 110784, Note_on_c, 1, 53, 66
3, 110784, Note_on_c, 1, 51, 66
3, 110972, Note_off_c, 1, 53, 0
3, 110972, Note_off_c, 1, 51, 0
3, 110976, Note_on_c, 1, 53, 66
3, 110976, Note_on_c, 1, 51, 66
3, 111164, Note_off_c, 1, 53, 0
3, 111164, Note_off_c, 1, 51, 0
3, 111168, Note_on_c, 1, 53, 66
3, 111168, Note_on_c, 1, 51, 66
3, 111356, Note_off_c, 1, 53, 0
3, 111356, Note_off_c, 1, 51, 0
3, 111360, Note_on_c, 1, 53, 66
3, 111360, Note_on_c, 1, 51, 66
3, 111548, Note_off_c, 1, 53, 0
3, 111548, Note_off_c, 1, 51, 0
3, 111552, Note_on_c, 1, 53, 66
3, 111552, Note_on_c, 1, 51, 66
3, 111740, Note_off_c, 1, 53, 0
3, 111740, Note_off_c, 1, 51, 0
3, 111936, Note_on_c, 1, 53, 66
3, 111936, Note_on_c, 1, 50, 66
3, 112124, Note_off_c, 1, 53, 0
3, 112124, Note_off_c, 1, 50, 0
3, 112128, Note_on_c, 1, 53, 88
3, 112128, Note_on_c, 1, 50, 88
3, 112316, Note_off_c, 1, 53, 0
3, 112316, Note_off_c, 1, 50, 0
3, 112320, Note_on_c, 1, 53, 85
3, 112320, Note_on_c, 1, 50, 85
3, 112508, Note_off_c, 1, 53, 0
3, 112508, Note_off_c, 1, 50, 0
3, 112512, Note_on_c, 1, 53, 83
3, 112512, Note_on_c, 1, 50, 83
3, 112700, Note_off_c, 1, 53, 0
3, 112700, Note_off_c, 1, 50, 0
3, 112704, Note_on_c, 1, 53, 81
3, 112704, Note_on_c, 1, 50, 81
3, 112892, Note_off_c, 1, 53, 0
3, 112892, Note_off_c, 1, 50, 0
3, 112896, Note_on_c, 1, 51, 79
3, 112896, Note_on_c, 1, 46, 79
3, 112896, Note_on_c, 1, 39, 79
3, 113084, Note_off_c, 1, 51, 0
3, 113084, Note_off_c, 1, 46, 0
3, 113084, Note_off_c, 1, 39, 0
3, 113088, Note_on_c, 1, 51, 75
3, 113088, Note_on_c, 1, 46, 75
3, 113088, Note_on_c, 1, 39, 75
3, 113276, Note_off_c, 1, 51, 0
3, 113276, Note_off_c, 1, 46, 0
3, 113276, Note_off_c, 1, 39, 0
3, 113280, Note_on_c, 1, 51, 73
3, 113280, Note_on_c, 1, 46, 73
3, 113280, Note_on_c, 1, 39, 73
3, 113468, Note_off_c, 1, 51, 0
3, 113468, Note_off_c, 1, 46, 0
3, 113468, Note_off_c, 1, 39, 0
3, 113472, Note_on_c, 1, 51, 71
3, 113472, Note_on_c, 1, 46, 71
3, 113472, Note_on_c, 1, 39, 71
3, 113660, Note_off_c, 1, 51, 0
3, 113660, Note_off_c, 1, 46, 0
3, 113660, Note_off_c, 1, 39, 0
3, 113664, Note_on_c, 1, 51, 69
3, 113664, Note_on_c, 1, 46, 69
3, 113664, Note_on_c, 1, 39, 69
3, 113852, Note_off_c, 1, 51, 0
3, 113852, Note_off_c, 1, 46, 0
3, 113852, Note_off_c, 1, 39, 0
3, 113856, Note_on_c, 1, 51, 67
3, 113856, Note_on_c, 1, 46, 67
3, 113856, Note_on_c, 1, 39, 67
3, 114044, Note_off_c, 1, 51, 0
3, 114044, Note_off_c, 1, 46, 0
3, 114044, Note_off_c, 1, 39, 0
3, 122496, Note_on_c, 1, 53, 88
3, 122876, Note_off_c, 1, 53, 0
3, 122880, Note_on_c, 1, 48, 88
3, 123260, Note_off_c, 1, 48, 0
3, 123648, Note_on_c, 1, 53, 88
3, 124028, Note_off_c, 1, 53, 0
3, 124032, Note_on_c, 1, 57, 88
3, 124412, Note_off_c, 1, 57, 0
3, 124416, Note_on_c, 1, 50, 88
3, 124796, Note_off_c, 1, 50, 0
3, 124800, Note_on_c, 1, 47, 88
3, 125180, Note_off_c, 1, 47, 0
3, 125184, Note_on_c, 1, 48, 88
3, 125564, Note_off_c, 1, 48, 0
3, 125760, Note_on_c, 1, 57, 88
3, 125760, Note_on_c, 1, 53, 88
3, 125948, Note_off_c, 1, 57, 0
3, 125948, Note_off_c, 1, 53, 0
3, 125952, Note_on_c, 1, 57, 88
3, 125952, Note_on_c, 1, 53, 88
3, 126140, Note_off_c, 1, 57, 0
3, 126140, Note_off_c, 1, 53, 0
3, 126144, Note_on_c, 1, 57, 88
3, 126144, Note_on_c, 1, 53, 88
3, 126332, Note_off_c, 1, 57, 0
3, 126332, Note_off_c, 1, 53, 0
3, 126336, Note_on_c, 1, 57, 88
3, 126336, Note_on_c, 1, 53, 88
3, 126524, Note_off_c, 1, 57, 0
3, 126524, Note_off_c, 1, 53, 0
3, 126528, Note_on_c, 1, 57, 88
3, 126528, Note_on_c, 1, 53, 88
3, 126716, Note_off_c, 1, 57, 0
3, 126716, Note_off_c, 1, 53, 0
3, 126720, Note_on_c, 1, 60, 88
3, 126720, Note_on_c, 1, 52, 88
3, 126908, Note_off_c, 1, 52, 0
3, 126912, Note_on_c, 1, 53, 88
3, 127100, Note_off_c, 1, 60, 0
3, 127100, Note_off_c, 1, 53, 0
3, 127104, Note_on_c, 1, 55, 89
3, 127104, Note_on_c, 1, 64, 89
3, 127292, Note_off_c, 1, 55, 0
3, 127292, Note_off_c, 1, 64, 0
3, 127296, Note_on_c, 1, 55, 90
3, 127296, Note_on_c, 1, 64, 90
3, 127484, Note_off_c, 1, 55, 0
3, 127484, Note_off_c, 1, 64, 0
3, 127488, Note_on_c, 1, 53, 92
3, 127488, Note_on_c, 1, 62, 92
3, 127676, Note_off_c, 1, 53, 0
3, 127676, Note_off_c, 1, 62, 0
3, 127680, Note_on_c, 1, 53, 93
3, 127680, Note_on_c, 1, 62, 93
3, 127868, Note_off_c, 1, 53, 0
3, 127868, Note_off_c, 1, 62, 0
3, 127872, Note_on_c, 1, 60, 95
3, 127872, Note_on_c, 1, 52, 95
3, 128252, Note_off_c, 1, 60, 0
3, 128252, Note_off_c, 1, 52, 0
3, 132480, Note_on_c, 1, 55, 99
3, 132480, Note_on_c, 1, 50, 99
3, 132480, Note_on_c, 1, 47, 99
3, 133244, Note_off_c, 1, 55, 0
3, 133244, Note_off_c, 1, 50, 0
3, 133244, Note_off_c, 1, 47, 0
3, 133248, Note_on_c, 1, 55, 75
3, 133248, Note_on_c, 1, 52, 75
3, 133248, Note_on_c, 1, 48, 75
3, 133628, Note_off_c, 1, 55, 0
3, 133628, Note_off_c, 1, 52, 0
3, 133628, Note_off_c, 1, 48, 0
3, 133824, Note_on_c, 1, 53, 66
3, 133824, Note_on_c, 1, 60, 66
3, 134012, Note_off_c, 1, 53, 0
3, 134012, Note_off_c, 1, 60, 0
3, 134016, Note_on_c, 1, 53, 66
3, 134016, Note_on_c, 1, 60, 66
3, 134204, Note_off_c, 1, 53, 0
3, 134204, Note_off_c, 1, 60, 0
3, 134208, Note_on_c, 1, 53, 66
3, 134208, Note_on_c, 1, 60, 66
3, 134396, Note_off_c, 1, 53, 0
3, 134396, Note_off_c, 1, 60, 0
3, 134400, Note_on_c, 1, 53, 66
3, 134400, Note_on_c, 1, 60, 66
3, 134588, Note_off_c, 1, 53, 0
3, 134588, Note_off_c, 1, 60, 0
3, 134592, Note_on_c, 1, 53, 66
3, 134592, Note_on_c, 1, 60, 66
3, 134780, Note_off_c, 1, 53, 0
3, 134780, Note_off_c, 1, 60, 0
3, 134976, Note_on_c, 1, 60, 83
3, 134976, Note_on_c, 1, 54, 83
3, 134976, Note_on_c, 1, 57, 83
3, 135164, Note_off_c, 1, 60, 0
3, 135164, Note_off_c, 1, 54, 0
3, 135164, Note_off_c, 1, 57, 0
3, 135168, Note_on_c, 1, 60, 93
3, 135168, Note_on_c, 1, 57, 93
3, 135168, Note_on_c, 1, 54, 93
3, 135356, Note_off_c, 1, 60, 0
3, 135356, Note_off_c, 1, 57, 0
3, 135356, Note_off_c, 1, 54, 0
3, 135360, Note_on_c, 1, 60, 93
3, 135360, Note_on_c, 1, 57, 93
3, 135360, Note_on_c, 1, 54, 93
3, 135548, Note_off_c, 1, 60, 0
3, 135548, Note_off_c, 1, 57, 0
3, 135548, Note_off_c, 1, 54, 0
3, 135552, Note_on_c, 1, 60, 93
3, 135552, Note_on_c, 1, 57, 93
3, 135552, Note_on_c, 1, 54, 93
3, 135740, Note_off_c, 1, 60, 0
3, 135740, Note_off_c, 1, 57, 0
3, 135740, Note_off_c, 1, 54, 0
3, 135744, Note_on_c, 1, 60, 93
3, 135744, Note_on_c, 1, 57, 93
3, 135744, Note_on_c, 1, 54, 93
3, 135932, Note_off_c, 1, 60, 0
3, 135932, Note_off_c, 1, 57, 0
3, 135932, Note_off_c, 1, 54, 0
3, 135936, Note_on_c, 1, 55, 93
3, 135936, Note_on_c, 1, 60, 93
3, 135936, Note_on_c, 1, 64, 93
3, 136124, Note_off_c, 1, 55, 0
3, 136124, Note_off_c, 1, 60, 0
3, 136124, Note_off_c, 1, 64, 0
3, 136320, Note_on_c, 1, 55, 92
3, 136320, Note_on_c, 1, 60, 92
3, 136320, Note_on_c, 1, 64, 92
3, 136508, Note_off_c, 1, 55, 0
3, 136508, Note_off_c, 1, 60, 0
3, 136508, Note_off_c, 1, 64, 0
3, 136704, Note_on_c, 1, 55, 79
3, 136704, Note_on_c, 1, 60, 79
3, 136704, Note_on_c, 1, 64, 79
3, 136892, Note_off_c, 1, 55, 0
3, 136892, Note_off_c, 1, 60, 0
3, 136892, Note_off_c, 1, 64, 0
3, 137088, Note_on_c, 1, 55, 66
3, 137088, Note_on_c, 1, 59, 66
3, 137088, Note_on_c, 1, 65, 66
3, 137276, Note_off_c, 1, 55, 0
3, 137276, Note_off_c, 1, 59, 0
3, 137276, Note_off_c, 1, 65, 0
3, 137472, Note_on_c, 1, 55, 75
3, 137472, Note_on_c, 1, 59, 75
3, 137472, Note_on_c, 1, 65, 75
3, 137660, Note_off_c, 1, 55, 0
3, 137660, Note_off_c, 1, 59, 0
3, 137660, Note_off_c, 1, 65, 0
3, 137856, Note_on_c, 1, 55, 86
3, 137856, Note_on_c, 1, 59, 86
3, 137856, Note_on_c, 1, 65, 86
3, 138044, Note_off_c, 1, 55, 0
3, 138044, Note_off_c, 1, 59, 0
3, 138044, Note_off_c, 1, 65, 0
3, 138240, Note_on_c, 1, 64, 97
3, 138240, Note_on_c, 1, 60, 97
3, 138620, Note_off_c, 1, 64, 0
3, 138620, Note_off_c, 1, 60, 0
3, 142080, Note_on_c, 1, 60, 66
3, 142080, Note_on_c, 1, 55, 66
3, 142460, Note_off_c, 1, 60, 0
3, 142464, Note_on_c, 1, 64, 66
3, 142844, Note_off_c, 1, 55, 0
3, 142844, Note_off_c, 1, 64, 0
3, 142848, Note_on_c, 1, 55, 66
3, 142848, Note_on_c, 1, 63, 66
3, 143420, Note_off_c, 1, 63, 0
3, 143424, Note_on_c, 1, 63, 66
3, 143612, Note_off_c, 1, 63, 0
3, 143616, Note_on_c, 1, 62, 66
3, 143804, Note_off_c, 1, 62, 0
3, 143808, Note_on_c, 1, 60, 66
3, 143996, Note_off_c, 1, 55, 0
3, 143996, Note_off_c, 1, 60, 0
3, 144000, Note_on_c, 1, 59, 66
3, 144000, Note_on_c, 1, 55, 66
3, 144380, Note_off_c, 1, 59, 0
3, 144380, Note_off_c, 1, 55, 0
3, 145152, Note_on_c, 1, 60, 66
3, 145152, Note_on_c, 1, 57, 66
3, 145532, Note_off_c, 1, 60, 0
3, 145532, Note_off_c, 1, 57, 0
3, 145536, Note_on_c, 1, 60, 66
3, 145536, Note_on_c, 1, 52, 66
3, 145724, Note_off_c, 1, 60, 0
3, 145724, Note_off_c, 1, 52, 0
3, 146496, Note_on_c, 1, 60, 66
3, 146496, Note_on_c, 1, 53, 66
3, 146684, Note_off_c, 1, 60, 0
3, 146684, Note_off_c, 1, 53, 0
3, 146688, Note_on_c, 1, 60, 66
3, 146688, Note_on_c, 1, 53, 66
3, 146876, Note_off_c, 1, 60, 0
3, 146876, Note_off_c, 1, 53, 0
3, 146880, Note_on_c, 1, 60, 66
3, 146880, Note_on_c, 1, 53, 66
3, 147068, Note_off_c, 1, 60, 0
3, 147068, Note_off_c, 1, 53, 0
3, 147072, Note_on_c, 1, 60, 66
3, 147072, Note_on_c, 1, 55, 66
3, 147260, Note_off_c, 1, 60, 0
3, 147260, Note_off_c, 1, 55, 0
3, 147264, Note_on_c, 1, 60, 66
3, 147264, Note_on_c, 1, 55, 66
3, 147452, Note_off_c, 1, 60, 0
3, 147452, Note_off_c, 1, 55, 0
3, 147648, Note_on_c, 1, 60, 66
3, 147648, Note_on_c, 1, 56, 66
3, 147836, Note_off_c, 1, 60, 0
3, 147836, Note_off_c, 1, 56, 0
3, 147840, Note_on_c, 1, 60, 66
3, 147840, Note_on_c, 1, 56, 66
3, 148028, Note_off_c, 1, 60, 0
3, 148028, Note_off_c, 1, 56, 0
3, 148032, Note_on_c, 1, 60, 66
3, 148032, Note_on_c, 1, 56, 66
3, 148220, Note_off_c, 1, 60, 0
3, 148220, Note_off_c, 1, 56, 0
3, 148224, Note_on_c, 1, 52, 66
3, 148224, Note_on_c, 1, 60, 66
3, 148412, Note_off_c, 1, 52, 0
3, 148412, Note_off_c, 1, 60, 0
3, 148416, Note_on_c, 1, 60, 66
3, 148416, Note_on_c, 1, 52, 66
3, 148604, Note_off_c, 1, 60, 0
3, 148604, Note_off_c, 1, 52, 0
3, 148800, Note_on_c, 1, 60, 66
3, 148800, Note_on_c, 1, 53, 66
3, 148988, Note_off_c, 1, 60, 0
3, 148988, Note_off_c, 1, 53, 0
3, 148992, Note_on_c, 1, 60, 66
3, 148992, Note_on_c, 1, 53, 66
3, 149180, Note_off_c, 1, 60, 0
3, 149180, Note_off_c, 1, 53, 0
3, 149184, Note_on_c, 1, 60, 66
3, 149184, Note_on_c, 1, 53, 66
3, 149372, Note_off_c, 1, 60, 0
3, 149372, Note_off_c, 1, 53, 0
3, 149376, Note_on_c, 1, 60, 66
3, 149376, Note_on_c, 1, 55, 66
3, 149564, Note_off_c, 1, 60, 0
3, 149564, Note_off_c, 1, 55, 0
3, 149568, Note_on_c, 1, 55, 66
3, 149568, Note_on_c, 1, 60, 66
3, 149756, Note_off_c, 1, 55, 0
3, 149764, Note_off_c, 1, 60, 64
3, 149952, Note_on_c, 1, 60, 66
3, 149952, Note_on_c, 1, 56, 66
3, 150140, Note_off_c, 1, 60, 0
3, 150140, Note_off_c, 1, 56, 0
3, 150144, Note_on_c, 1, 60, 66
3, 150144, Note_on_c, 1, 56, 66
3, 150332, Note_off_c, 1, 60, 0
3, 150332, Note_off_c, 1, 56, 0
3, 150336, Note_on_c, 1, 60, 66
3, 150336, Note_on_c, 1, 56, 66
3, 150524, Note_off_c, 1, 60, 0
3, 150524, Note_off_c, 1, 56, 0
3, 150528, Note_on_c, 1, 60, 66
3, 150528, Note_on_c, 1, 52, 66
3, 150716, Note_off_c, 1, 60, 0
3, 150716, Note_off_c, 1, 52, 0
3, 150720, Note_on_c, 1, 60, 66
3, 150720, Note_on_c, 1, 52, 66
3, 150908, Note_off_c, 1, 60, 0
3, 150908, Note_off_c, 1, 52, 0
3, 150912, Note_on_c, 1, 60, 68
3, 150912, Note_on_c, 1, 53, 68
3, 151100, Note_off_c, 1, 60, 0
3, 151100, Note_off_c, 1, 53, 0
3, 151104, Note_on_c, 1, 60, 72
3, 151104, Note_on_c, 1, 53, 72
3, 151292, Note_off_c, 1, 60, 0
3, 151292, Note_off_c, 1, 53, 0
3, 151296, Note_on_c, 1, 60, 78
3, 151296, Note_on_c, 1, 53, 78
3, 151484, Note_off_c, 1, 60, 0
3, 151484, Note_off_c, 1, 53, 0
3, 151488, Note_on_c, 1, 60, 83
3, 151488, Note_on_c, 1, 53, 83
3, 151676, Note_off_c, 1, 60, 0
3, 151676, Note_off_c, 1, 53, 0
3, 151680, Note_on_c, 1, 60, 88
3, 151680, Note_on_c, 1, 51, 88
3, 151868, Note_off_c, 1, 60, 0
3, 151868, Note_off_c, 1, 51, 0
3, 151872, Note_on_c, 1, 60, 93
3, 151872, Note_on_c, 1, 51, 93
3, 152060, Note_off_c, 1, 60, 0
3, 152060, Note_off_c, 1, 51, 0
3, 152064, Note_on_c, 1, 60, 99
3, 152064, Note_on_c, 1, 50, 99
3, 153212, Note_off_c, 1, 60, 0
3, 153212, Note_off_c, 1, 50, 0
3, 153216, Note_on_c, 1, 60, 66
3, 153216, Note_on_c, 1, 50, 66
3, 153500, Note_off_c, 1, 60, 0
3, 153500, Note_off_c, 1, 50, 0
3, 154368, Note_on_c, 1, 55, 99
3, 154368, Note_on_c, 1, 50, 99
3, 154368, Note_on_c, 1, 47, 99
3, 154368, Note_on_c, 1, 43, 99
3, 154556, Note_off_c, 1, 55, 0
3, 154556, Note_off_c, 1, 50, 0
3, 154556, Note_off_c, 1, 47, 0
3, 154556, Note_off_c, 1, 43, 0
3, 154560, Note_on_c, 1, 59, 66
3, 154560, Note_on_c, 1, 55, 66
3, 154748, Note_off_c, 1, 59, 0
3, 154748, Note_off_c, 1, 55, 0
3, 154752, Note_on_c, 1, 59, 99
3, 154752, Note_on_c, 1, 55, 99
3, 154940, Note_off_c, 1, 59, 0
3, 154940, Note_off_c, 1, 55, 0
3, 154944, Note_on_c, 1, 59, 94
3, 154944, Note_on_c, 1, 55, 94
3, 155132, Note_off_c, 1, 59, 0
3, 155132, Note_off_c, 1, 55, 0
3, 155136, Note_on_c, 1, 59, 90
3, 155136, Note_on_c, 1, 55, 90
3, 155324, Note_off_c, 1, 59, 0
3, 155324, Note_off_c, 1, 55, 0
3, 155328, Note_on_c, 1, 59, 85
3, 155328, Note_on_c, 1, 55, 85
3, 155516, Note_off_c, 1, 59, 0
3, 155516, Note_off_c, 1, 55, 0
3, 155520, Note_on_c, 1, 59, 80
3, 155520, Note_on_c, 1, 57, 80
3, 155900, Note_off_c, 1, 59, 0
3, 155904, Note_on_c, 1, 60, 71
3, 156284, Note_off_c, 1, 57, 0
3, 156284, Note_off_c, 1, 60, 0
3, 156864, Note_on_c, 1, 55, 66
3, 156864, Note_on_c, 1, 61, 66
3, 157052, Note_off_c, 1, 55, 0
3, 157052, Note_off_c, 1, 61, 0
3, 157056, Note_on_c, 1, 62, 66
3, 157056, Note_on_c, 1, 53, 66
3, 157244, Note_off_c, 1, 62, 0
3, 157244, Note_off_c, 1, 53, 0
3, 158016, Note_on_c, 1, 59, 66
3, 158016, Note_on_c, 1, 53, 66
3, 158204, Note_off_c, 1, 59, 0
3, 158204, Note_off_c, 1, 53, 0
3, 158208, Note_on_c, 1, 60, 66
3, 158208, Note_on_c, 1, 52, 66
3, 158396, Note_off_c, 1, 60, 0
3, 158396, Note_off_c, 1, 52, 0
3, 161280, Note_on_c, 1, 54, 99
3, 161280, Note_on_c, 1, 48, 99
3, 161280, Note_on_c, 1, 42, 99
3, 161852, Note_off_c, 1, 54, 0
3, 161852, Note_off_c, 1, 48, 0
3, 161852, Note_off_c, 1, 42, 0
3, 162432, Note_on_c, 1, 57, 88
3, 162488, Note_off_c, 1, 57, 0
3, 162488, Note_on_c, 1, 54, 88
3, 162544, Note_off_c, 1, 54, 0
3, 162544, Note_on_c, 1, 51, 88
3, 162600, Note_off_c, 1, 51, 0
3, 162600, Note_on_c, 1, 48, 88
3, 162656, Note_off_c, 1, 48, 0
3, 162660, Note_on_c, 1, 45, 88
3, 162716, Note_off_c, 1, 45, 0
3, 162720, Note_on_c, 1, 42, 88
3, 162776, Note_off_c, 1, 42, 0
3, 162776, Note_on_c, 1, 39, 88
3, 162832, Note_off_c, 1, 39, 0
3, 162832, Note_on_c, 1, 36, 88
3, 162888, Note_off_c, 1, 36, 0
3, 162888, Note_on_c, 1, 33, 88
3, 162944, Note_off_c, 1, 33, 0
3, 162948, Note_on_c, 1, 30, 88
3, 163004, Note_off_c, 1, 30, 0
3, 163008, Note_on_c, 1, 31, 105
3, 163868, Note_off_c, 1, 31, 0
3, 163872, Note_on_c, 1, 35, 88
3, 164012, Note_off_c, 1, 35, 0
3, 164016, Note_on_c, 1, 36, 88
3, 164156, Note_off_c, 1, 36, 0
3, 164160, Note_on_c, 1, 39, 88
3, 164300, Note_off_c, 1, 39, 0
3, 164304, Note_on_c, 1, 40, 88
3, 164444, Note_off_c, 1, 40, 0
3, 164448, Note_on_c, 1, 42, 88
3, 164588, Note_off_c, 1, 42, 0
3, 164592, Note_on_c, 1, 43, 88
3, 164732, Note_off_c, 1, 43, 0
3, 164736, Note_on_c, 1, 47, 88
3, 164876, Note_off_c, 1, 47, 0
3, 164880, Note_on_c, 1, 48, 88
3, 164948, Note_off_c, 1, 48, 0
3, 164952, Note_on_c, 1, 51, 88
3, 165020, Note_off_c, 1, 51, 0
3, 165024, Note_on_c, 1, 52, 88
3, 165092, Note_off_c, 1, 52, 0
3, 165096, Note_on_c, 1, 54, 88
3, 165164, Note_off_c, 1, 54, 0
3, 165168, Note_on_c, 1, 55, 86
3, 165236, Note_off_c, 1, 55, 0
3, 165240, Note_on_c, 1, 59, 88
3, 165308, Note_off_c, 1, 59, 0
3, 165312, Note_on_c, 1, 60, 88
3, 165380, Note_off_c, 1, 60, 0
3, 167328, Note_on_c, 1, 65, 66
3, 167328, Note_on_c, 1, 59, 66
3, 167328, Note_on_c, 1, 55, 66
3, 167900, Note_off_c, 1, 65, 0
3, 167900, Note_off_c, 1, 59, 0
3, 167900, Note_off_c, 1, 55, 0
3, 168192, Note_on_c, 1, 64, 66
3, 168192, Note_on_c, 1, 60, 66
3, 168572, Note_off_c, 1, 64, 0
3, 168572, Note_off_c, 1, 60, 0
3, 172992, Note_on_c, 1, 60, 66
3, 172992, Note_on_c, 1, 53, 66
3, 173180, Note_off_c, 1, 60, 0
3, 173180, Note_off_c, 1, 53, 0
3, 173184, Note_on_c, 1, 60, 66
3, 173184, Note_on_c, 1, 53, 66
3, 173372, Note_off_c, 1, 60, 0
3, 173372, Note_off_c, 1, 53, 0
3, 173376, Note_on_c, 1, 60, 66
3, 173376, Note_on_c, 1, 53, 66
3, 173564, Note_off_c, 1, 60, 0
3, 173564, Note_off_c, 1, 53, 0
3, 173568, Note_on_c, 1, 60, 66
3, 173568, Note_on_c, 1, 53, 66
3, 173756, Note_off_c, 1, 60, 0
3, 173756, Note_off_c, 1, 53, 0
3, 173760, Note_on_c, 1, 60, 66
3, 173760, Note_on_c, 1, 53, 66
3, 173948, Note_off_c, 1, 60, 0
3, 173948, Note_off_c, 1, 53, 0
3, 174144, Note_on_c, 1, 60, 66
3, 174144, Note_on_c, 1, 52, 66
3, 174332, Note_off_c, 1, 60, 0
3, 174332, Note_off_c, 1, 52, 0
3, 174336, Note_on_c, 1, 60, 66
3, 174336, Note_on_c, 1, 52, 66
3, 174524, Note_off_c, 1, 60, 0
3, 174524, Note_off_c, 1, 52, 0
3, 174528, Note_on_c, 1, 60, 66
3, 174528, Note_on_c, 1, 52, 66
3, 174716, Note_off_c, 1, 60, 0
3, 174716, Note_off_c, 1, 52, 0
3, 174720, Note_on_c, 1, 60, 66
3, 174720, Note_on_c, 1, 52, 66
3, 174908, Note_off_c, 1, 60, 0
3, 174908, Note_off_c, 1, 52, 0
3, 174912, Note_on_c, 1, 60, 66
3, 174912, Note_on_c, 1, 53, 66
3, 175100, Note_off_c, 1, 60, 0
3, 175100, Note_off_c, 1, 53, 0
3, 175296, Note_on_c, 1, 64, 66
3, 175296, Note_on_c, 1, 55, 66
3, 175484, Note_off_c, 1, 64, 0
3, 175484, Note_off_c, 1, 55, 0
3, 175488, Note_on_c, 1, 64, 66
3, 175488, Note_on_c, 1, 55, 66
3, 175676, Note_off_c, 1, 64, 0
3, 175676, Note_off_c, 1, 55, 0
3, 175680, Note_on_c, 1, 64, 66
3, 175680, Note_on_c, 1, 55, 66
3, 175868, Note_off_c, 1, 64, 0
3, 175868, Note_off_c, 1, 55, 0
3, 175872, Note_on_c, 1, 65, 66
3, 175872, Note_on_c, 1, 55, 66
3, 176060, Note_off_c, 1, 65, 0
3, 176060, Note_off_c, 1, 55, 0
3, 176064, Note_on_c, 1, 65, 66
3, 176064, Note_on_c, 1, 55, 66
3, 176252, Note_off_c, 1, 65, 0
3, 176252, Note_off_c, 1, 55, 0
3, 176256, Note_on_c, 1, 60, 66
3, 176256, Note_on_c, 1, 64, 66
3, 176636, Note_off_c, 1, 60, 0
3, 176636, Note_off_c, 1, 64, 0
3, 177408, Note_on_c, 1, 48, 99
3, 177408, Note_on_c, 1, 36, 99
3, 178556, Note_off_c, 1, 48, 0
3, 178556, Note_off_c, 1, 36, 0
3, 178560, Note_on_c, 1, 48, 66
3, 178560, Note_on_c, 1, 36, 66
3, 179132, Note_off_c, 1, 48, 0
3, 179132, Note_off_c, 1, 36, 0
3, 179712, Note_on_c, 1, 48, 99
3, 179712, Note_on_c, 1, 36, 99
3, 180860, Note_off_c, 1, 48, 0
3, 180860, Note_off_c, 1, 36, 0
3, 180864, Note_on_c, 1, 60, 88
3, 181148, Note_off_c, 1, 60, 0
3, 181248, Note_on_c, 1, 53, 72
3, 181436, Note_off_c, 1, 53, 0
3, 181632, Note_on_c, 1, 55, 63
3, 181820, Note_off_c, 1, 55, 0
3, 182016, Note_on_c, 1, 60, 49
3, 182016, Note_on_c, 1, 48, 49
3, 182780, Note_off_c, 1, 60, 0
3, 182780, Note_off_c, 1, 48, 0
3, 182780, End_track
4, 0, Start_track
4, 0, Title_t, "K453 -b-Andante"
4, 0, Control_c, 2, 0, 0
4, 0, Program_c, 2, 48
4, 0, Control_c, 2, 7, 127
4, 0, Control_c, 2, 10, 52
4, 0, Control_c, 2, 91, 79
4, 0, Control_c, 2, 93, 0
4, 0, Key_signature, 0, "major"
4, 0, Control_c, 2, 121, 0
4, 384, Control_c, 2, 10, 53
4, 480, Control_c, 2, 91, 63
4, 672, Program_c, 2, 48
4, 1152, Note_on_c, 2, 67, 63
4, 1532, Note_off_c, 2, 67, 0
4, 1536, Note_on_c, 2, 67, 63
4, 2108, Note_off_c, 2, 67, 0
4, 2112, Note_on_c, 2, 69, 63
4, 2300, Note_off_c, 2, 69, 0
4, 2304, Note_on_c, 2, 69, 63
4, 2492, Note_off_c, 2, 69, 0
4, 2496, Note_on_c, 2, 67, 63
4, 2684, Note_off_c, 2, 67, 0
4, 2688, Note_on_c, 2, 67, 63
4, 3260, Note_off_c, 2, 67, 0
4, 3264, Note_on_c, 2, 67, 63
4, 3452, Note_off_c, 2, 67, 0
4, 3456, Note_on_c, 2, 67, 63
4, 3644, Note_off_c, 2, 67, 0
4, 3648, Note_on_c, 2, 66, 63
4, 3836, Note_off_c, 2, 66, 0
4, 3840, Note_on_c, 2, 76, 63
4, 3840, Note_on_c, 2, 66, 63
4, 4412, Note_off_c, 2, 76, 0
4, 4416, Note_on_c, 2, 72, 63
4, 4604, Note_off_c, 2, 66, 0
4, 4604, Note_off_c, 2, 72, 0
4, 4608, Note_on_c, 2, 72, 63
4, 4608, Note_on_c, 2, 66, 63
4, 4988, Note_off_c, 2, 66, 0
4, 4992, Note_on_c, 2, 67, 63
4, 5180, Note_off_c, 2, 72, 0
4, 5184, Note_on_c, 2, 71, 63
4, 5276, Note_off_c, 2, 71, 0
4, 5280, Note_on_c, 2, 69, 63
4, 5372, Note_off_c, 2, 69, 0
4, 5376, Note_on_c, 2, 72, 63
4, 5468, Note_off_c, 2, 72, 0
4, 5472, Note_on_c, 2, 71, 63
4, 5564, Note_off_c, 2, 71, 0
4, 5568, Note_on_c, 2, 69, 63
4, 5660, Note_off_c, 2, 69, 0
4, 5664, Note_on_c, 2, 67, 63
4, 5756, Note_off_c, 2, 67, 0
4, 5756, Note_off_c, 2, 67, 0
4, 5760, Note_on_c, 2, 67, 63
4, 5760, Note_on_c, 2, 62, 63
4, 5760, Note_on_c, 2, 59, 63
4, 6524, Note_off_c, 2, 67, 0
4, 6524, Note_off_c, 2, 62, 0
4, 6524, Note_off_c, 2, 59, 0
4, 6912, Note_on_c, 2, 79, 63
4, 6912, Note_on_c, 2, 72, 63
4, 8540, Note_off_c, 2, 72, 64
4, 8540, Note_off_c, 2, 79, 64
4, 8640, Note_on_c, 2, 81, 63
4, 8732, Note_off_c, 2, 81, 0
4, 8736, Note_on_c, 2, 79, 63
4, 8828, Note_off_c, 2, 79, 0
4, 8832, Note_on_c, 2, 77, 63
4, 8924, Note_off_c, 2, 77, 0
4, 8928, Note_on_c, 2, 76, 63
4, 9020, Note_off_c, 2, 76, 0
4, 9024, Note_on_c, 2, 74, 63
4, 9116, Note_off_c, 2, 74, 0
4, 9120, Note_on_c, 2, 72, 63
4, 9212, Note_off_c, 2, 72, 0
4, 9216, Note_on_c, 2, 71, 63
4, 9216, Note_on_c, 2, 67, 63
4, 9500, Note_off_c, 2, 71, 0
4, 9500, Note_off_c, 2, 67, 0
4, 9504, Note_on_c, 2, 72, 63
4, 9548, Note_off_c, 2, 72, 0
4, 9552, Note_on_c, 2, 74, 63
4, 9596, Note_off_c, 2, 74, 0
4, 9600, Note_on_c, 2, 72, 63
4, 9600, Note_on_c, 2, 67, 63
4, 9792, Note_on_c, 2, 72, 63
4, 9980, Note_off_c, 2, 72, 0
4, 9980, Note_off_c, 2, 67, 0
4, 9980, Note_off_c, 2, 72, 0
4, 9984, Note_on_c, 2, 76, 63
4, 10172, Note_off_c, 2, 76, 0
4, 10176, Note_on_c, 2, 79, 63
4, 10364, Note_off_c, 2, 79, 0
4, 10368, Note_on_c, 2, 84, 63
4, 10652, Note_off_c, 2, 84, 0
4, 10656, Note_on_c, 2, 83, 63
4, 10700, Note_off_c, 2, 83, 0
4, 10704, Note_on_c, 2, 81, 63
4, 10748, Note_off_c, 2, 81, 0
4, 10752, Note_on_c, 2, 79, 63
4, 10944, Note_on_c, 2, 67, 63
4, 11132, Note_off_c, 2, 79, 0
4, 11132, Note_off_c, 2, 67, 0
4, 11136, Note_on_c, 2, 72, 63
4, 11324, Note_off_c, 2, 72, 0
4, 11328, Note_on_c, 2, 76, 63
4, 11516, Note_off_c, 2, 76, 0
4, 11520, Note_on_c, 2, 79, 63
4, 12092, Note_off_c, 2, 79, 0
4, 12096, Note_on_c, 2, 76, 63
4, 12236, Note_off_c, 2, 76, 0
4, 12240, Note_on_c, 2, 72, 63
4, 12284, Note_off_c, 2, 72, 0
4, 12288, Note_on_c, 2, 77, 63
4, 12288, Note_on_c, 2, 67, 63
4, 12380, Note_off_c, 2, 77, 0
4, 12480, Note_on_c, 2, 77, 63
4, 12572, Note_off_c, 2, 77, 0
4, 12672, Note_on_c, 2, 75, 63
4, 12860, Note_off_c, 2, 75, 0
4, 12864, Note_on_c, 2, 76, 63
4, 13052, Note_off_c, 2, 67, 0
4, 13052, Note_off_c, 2, 76, 0
4, 13248, Note_on_c, 2, 76, 63
4, 13248, Note_on_c, 2, 79, 63
4, 13436, Note_off_c, 2, 76, 0
4, 13436, Note_off_c, 2, 79, 0
4, 13440, Note_on_c, 2, 77, 63
4, 13440, Note_on_c, 2, 81, 63
4, 13628, Note_off_c, 2, 77, 0
4, 13628, Note_off_c, 2, 81, 0
4, 13632, Note_on_c, 2, 77, 63
4, 13632, Note_on_c, 2, 83, 63
4, 13820, Note_off_c, 2, 77, 0
4, 13820, Note_off_c, 2, 83, 0
4, 13824, Note_on_c, 2, 75, 63
4, 13824, Note_on_c, 2, 84, 63
4, 14012, Note_off_c, 2, 75, 0
4, 14016, Note_on_c, 2, 76, 63
4, 14204, Note_off_c, 2, 76, 0
4, 14208, Note_on_c, 2, 76, 63
4, 14300, Note_off_c, 2, 84, 0
4, 14304, Note_on_c, 2, 84, 63
4, 14396, Note_off_c, 2, 76, 0
4, 14396, Note_off_c, 2, 84, 0
4, 14400, Note_on_c, 2, 72, 63
4, 14400, Note_on_c, 2, 86, 63
4, 14492, Note_off_c, 2, 86, 0
4, 14496, Note_on_c, 2, 84, 63
4, 14588, Note_off_c, 2, 72, 0
4, 14588, Note_off_c, 2, 84, 0
4, 14592, Note_on_c, 2, 76, 63
4, 14592, Note_on_c, 2, 82, 63
4, 14640, Note_off_c, 2, 82, 0
4, 14688, Note_on_c, 2, 82, 63
4, 14780, Note_off_c, 2, 76, 0
4, 14780, Note_off_c, 2, 82, 0
4, 14784, Note_on_c, 2, 79, 63
4, 14784, Note_on_c, 2, 84, 63
4, 14876, Note_off_c, 2, 84, 0
4, 14880, Note_on_c, 2, 82, 63
4, 14972, Note_off_c, 2, 79, 0
4, 14972, Note_off_c, 2, 82, 0
4, 14976, Note_on_c, 2, 80, 63
4, 14976, Note_on_c, 2, 76, 63
4, 15164, Note_off_c, 2, 80, 0
4, 15164, Note_off_c, 2, 76, 0
4, 15168, Note_on_c, 2, 81, 63
4, 15168, Note_on_c, 2, 77, 63
4, 15168, Note_on_c, 2, 69, 63
4, 15356, Note_off_c, 2, 77, 0
4, 15356, Note_off_c, 2, 69, 0
4, 15360, Note_on_c, 2, 69, 63
4, 15452, Note_off_c, 2, 81, 0
4, 15456, Note_on_c, 2, 81, 63
4, 15548, Note_off_c, 2, 69, 0
4, 15548, Note_off_c, 2, 81, 0
4, 15552, Note_on_c, 2, 69, 63
4, 15552, Note_on_c, 2, 82, 63
4, 15644, Note_off_c, 2, 82, 0
4, 15648, Note_on_c, 2, 81, 63
4, 15740, Note_off_c, 2, 69, 0
4, 15740, Note_off_c, 2, 81, 0
4, 15744, Note_on_c, 2, 73, 63
4, 15744, Note_on_c, 2, 79, 63
4, 15792, Note_off_c, 2, 79, 0
4, 15836, Note_off_c, 2, 73, 0
4, 15840, Note_on_c, 2, 79, 63
4, 15932, Note_off_c, 2, 79, 0
4, 15936, Note_on_c, 2, 76, 63
4, 15936, Note_on_c, 2, 81, 63
4, 16028, Note_off_c, 2, 81, 0
4, 16032, Note_on_c, 2, 79, 63
4, 16124, Note_off_c, 2, 76, 0
4, 16124, Note_off_c, 2, 79, 0
4, 16128, Note_on_c, 2, 81, 63
4, 16128, Note_on_c, 2, 76, 63
4, 16316, Note_off_c, 2, 76, 0
4, 16320, Note_on_c, 2, 77, 63
4, 16508, Note_off_c, 2, 77, 0
4, 16512, Note_on_c, 2, 77, 63
4, 16604, Note_off_c, 2, 81, 0
4, 16604, Note_off_c, 2, 77, 0
4, 16608, Note_on_c, 2, 77, 63
4, 16608, Note_on_c, 2, 81, 63
4, 16700, Note_off_c, 2, 77, 0
4, 16700, Note_off_c, 2, 81, 0
4, 16704, Note_on_c, 2, 79, 63
4, 16704, Note_on_c, 2, 82, 63
4, 16796, Note_off_c, 2, 79, 0
4, 16796, Note_off_c, 2, 82, 0
4, 16800, Note_on_c, 2, 77, 63
4, 16800, Note_on_c, 2, 81, 63
4, 16892, Note_off_c, 2, 77, 0
4, 16892, Note_off_c, 2, 81, 0
4, 16896, Note_on_c, 2, 76, 63
4, 16896, Note_on_c, 2, 79, 63
4, 16944, Note_off_c, 2, 76, 0
4, 16944, Note_off_c, 2, 79, 0
4, 16992, Note_on_c, 2, 76, 63
4, 16992, Note_on_c, 2, 79, 63
4, 17084, Note_off_c, 2, 76, 0
4, 17084, Note_off_c, 2, 79, 0
4, 17088, Note_on_c, 2, 77, 63
4, 17088, Note_on_c, 2, 81, 63
4, 17180, Note_off_c, 2, 77, 0
4, 17180, Note_off_c, 2, 81, 0
4, 17184, Note_on_c, 2, 76, 63
4, 17184, Note_on_c, 2, 79, 63
4, 17276, Note_off_c, 2, 76, 0
4, 17276, Note_off_c, 2, 79, 0
4, 17280, Note_on_c, 2, 76, 63
4, 17280, Note_on_c, 2, 73, 63
4, 17468, Note_off_c, 2, 76, 0
4, 17468, Note_off_c, 2, 73, 0
4, 17472, Note_on_c, 2, 77, 63
4, 17472, Note_on_c, 2, 74, 63
4, 17660, Note_off_c, 2, 77, 0
4, 17660, Note_off_c, 2, 74, 0
4, 17856, Note_on_c, 2, 77, 63
4, 17856, Note_on_c, 2, 74, 63
4, 17948, Note_off_c, 2, 77, 0
4, 17948, Note_off_c, 2, 74, 0
4, 18048, Note_on_c, 2, 77, 63
4, 18048, Note_on_c, 2, 74, 63
4, 18140, Note_off_c, 2, 77, 0
4, 18140, Note_off_c, 2, 74, 0
4, 18240, Note_on_c, 2, 77, 63
4, 18240, Note_on_c, 2, 74, 63
4, 18240, Note_on_c, 2, 68, 63
4, 18332, Note_off_c, 2, 77, 0
4, 18332, Note_off_c, 2, 74, 0
4, 18332, Note_off_c, 2, 68, 0
4, 18432, Note_on_c, 2, 86, 63
4, 18432, Note_on_c, 2, 77, 63
4, 18620, Note_off_c, 2, 86, 0
4, 18620, Note_off_c, 2, 77, 0
4, 18624, Note_on_c, 2, 77, 63
4, 18624, Note_on_c, 2, 74, 63
4, 18812, Note_off_c, 2, 77, 0
4, 18812, Note_off_c, 2, 74, 0
4, 19008, Note_on_c, 2, 77, 63
4, 19008, Note_on_c, 2, 74, 63
4, 19196, Note_off_c, 2, 77, 0
4, 19196, Note_off_c, 2, 74, 0
4, 19200, Note_on_c, 2, 75, 63
4, 19200, Note_on_c, 2, 71, 63
4, 19388, Note_off_c, 2, 75, 0
4, 19388, Note_off_c, 2, 71, 0
4, 19392, Note_on_c, 2, 76, 63
4, 19392, Note_on_c, 2, 72, 63
4, 19580, Note_off_c, 2, 76, 0
4, 19580, Note_off_c, 2, 72, 0
4, 19584, Note_on_c, 2, 69, 63
4, 19772, Note_off_c, 2, 69, 0
4, 19776, Note_on_c, 2, 81, 63
4, 19776, Note_on_c, 2, 84, 63
4, 19964, Note_off_c, 2, 81, 0
4, 19964, Note_off_c, 2, 84, 0
4, 19968, Note_on_c, 2, 79, 64
4, 19968, Note_on_c, 2, 83, 64
4, 20156, Note_off_c, 2, 79, 0
4, 20156, Note_off_c, 2, 83, 0
4, 20160, Note_on_c, 2, 77, 71
4, 20160, Note_on_c, 2, 81, 71
4, 20348, Note_off_c, 2, 77, 0
4, 20348, Note_off_c, 2, 81, 0
4, 20352, Note_on_c, 2, 76, 77
4, 20352, Note_on_c, 2, 79, 77
4, 20540, Note_off_c, 2, 76, 0
4, 20540, Note_off_c, 2, 79, 0
4, 20544, Note_on_c, 2, 77, 85
4, 20544, Note_on_c, 2, 74, 85
4, 20732, Note_off_c, 2, 77, 0
4, 20732, Note_off_c, 2, 74, 0
4, 20736, Note_on_c, 2, 76, 92
4, 20736, Note_on_c, 2, 72, 92
4, 20928, Note_on_c, 2, 67, 92
4, 21116, Note_off_c, 2, 76, 0
4, 21116, Note_off_c, 2, 72, 0
4, 21116, Note_off_c, 2, 67, 0
4, 21120, Note_on_c, 2, 74, 92
4, 21120, Note_on_c, 2, 71, 92
4, 21120, Note_on_c, 2, 67, 92
4, 21308, Note_off_c, 2, 67, 0
4, 21312, Note_on_c, 2, 67, 92
4, 21500, Note_off_c, 2, 74, 0
4, 21500, Note_off_c, 2, 71, 0
4, 21500, Note_off_c, 2, 67, 0
4, 21504, Note_on_c, 2, 67, 92
4, 21692, Note_off_c, 2, 67, 0
4, 21696, Note_on_c, 2, 67, 92
4, 21884, Note_off_c, 2, 67, 0
4, 21888, Note_on_c, 2, 79, 92
4, 21888, Note_on_c, 2, 72, 92
4, 21888, Note_on_c, 2, 67, 92
4, 22076, Note_off_c, 2, 72, 0
4, 22076, Note_off_c, 2, 67, 0
4, 22272, Note_on_c, 2, 74, 92
4, 22272, Note_on_c, 2, 71, 92
4, 22272, Note_on_c, 2, 67, 92
4, 22460, Note_off_c, 2, 74, 0
4, 22460, Note_off_c, 2, 71, 0
4, 22460, Note_off_c, 2, 67, 0
4, 22656, Note_on_c, 2, 76, 92
4, 22656, Note_on_c, 2, 72, 92
4, 22656, Note_on_c, 2, 67, 92
4, 22844, Note_off_c, 2, 76, 0
4, 22844, Note_off_c, 2, 72, 0
4, 22844, Note_off_c, 2, 67, 0
4, 23040, Note_on_c, 2, 77, 92
4, 23040, Note_on_c, 2, 74, 92
4, 23040, Note_on_c, 2, 67, 92
4, 23232, Note_on_c, 2, 86, 63
4, 23232, Note_on_c, 2, 83, 63
4, 23324, Note_off_c, 2, 77, 0
4, 23324, Note_off_c, 2, 74, 0
4, 23324, Note_off_c, 2, 67, 0
4, 23324, Note_off_c, 2, 86, 0
4, 23324, Note_off_c, 2, 83, 0
4, 23328, Note_on_c, 2, 84, 63
4, 23328, Note_on_c, 2, 81, 63
4, 23420, Note_off_c, 2, 79, 0
4, 23420, Note_off_c, 2, 84, 0
4, 23420, Note_off_c, 2, 81, 0
4, 23424, Note_on_c, 2, 79, 63
4, 23424, Note_on_c, 2, 83, 63
4, 23516, Note_off_c, 2, 79, 0
4, 23516, Note_off_c, 2, 83, 0
4, 23520, Note_on_c, 2, 77, 63
4, 23520, Note_on_c, 2, 81, 63
4, 23520, Note_on_c, 2, 55, 63
4, 23612, Note_off_c, 2, 77, 0
4, 23612, Note_off_c, 2, 81, 0
4, 23612, Note_off_c, 2, 55, 0
4, 23616, Note_on_c, 2, 76, 63
4, 23616, Note_on_c, 2, 79, 63
4, 23616, Note_on_c, 2, 57, 63
4, 23708, Note_off_c, 2, 76, 0
4, 23708, Note_off_c, 2, 79, 0
4, 23708, Note_off_c, 2, 57, 0
4, 23712, Note_on_c, 2, 74, 63
4, 23712, Note_on_c, 2, 77, 63
4, 23712, Note_on_c, 2, 59, 63
4, 23804, Note_off_c, 2, 74, 0
4, 23804, Note_off_c, 2, 77, 0
4, 23804, Note_off_c, 2, 59, 0
4, 23808, Note_on_c, 2, 76, 63
4, 23808, Note_on_c, 2, 72, 63
4, 23808, Note_on_c, 2, 60, 63
4, 23900, Note_off_c, 2, 76, 0
4, 23900, Note_off_c, 2, 72, 0
4, 23904, Note_on_c, 2, 77, 63
4, 23904, Note_on_c, 2, 74, 63
4, 23996, Note_off_c, 2, 60, 0
4, 23996, Note_off_c, 2, 77, 0
4, 23996, Note_off_c, 2, 74, 0
4, 24000, Note_on_c, 2, 79, 63
4, 24000, Note_on_c, 2, 76, 63
4, 24000, Note_on_c, 2, 60, 63
4, 24092, Note_off_c, 2, 79, 0
4, 24092, Note_off_c, 2, 76, 0
4, 24096, Note_on_c, 2, 80, 63
4, 24096, Note_on_c, 2, 76, 63
4, 24188, Note_off_c, 2, 60, 0
4, 24188, Note_off_c, 2, 80, 0
4, 24188, Note_off_c, 2, 76, 0
4, 24192, Note_on_c, 2, 77, 63
4, 24192, Note_on_c, 2, 81, 63
4, 24192, Note_on_c, 2, 65, 63
4, 24284, Note_off_c, 2, 77, 0
4, 24284, Note_off_c, 2, 81, 0
4, 24288, Note_on_c, 2, 81, 63
4, 24288, Note_on_c, 2, 84, 63
4, 24380, Note_off_c, 2, 65, 0
4, 24380, Note_off_c, 2, 81, 0
4, 24380, Note_off_c, 2, 84, 0
4, 24384, Note_on_c, 2, 83, 63
4, 24384, Note_on_c, 2, 79, 63
4, 24384, Note_on_c, 2, 65, 63
4, 24428, Note_off_c, 2, 83, 0
4, 24428, Note_off_c, 2, 79, 0
4, 24432, Note_on_c, 2, 81, 63
4, 24432, Note_on_c, 2, 77, 63
4, 24476, Note_off_c, 2, 81, 0
4, 24476, Note_off_c, 2, 77, 0
4, 24480, Note_on_c, 2, 79, 63
4, 24480, Note_on_c, 2, 76, 63
4, 24524, Note_off_c, 2, 79, 0
4, 24524, Note_off_c, 2, 76, 0
4, 24528, Note_on_c, 2, 77, 63
4, 24528, Note_on_c, 2, 74, 63
4, 24572, Note_off_c, 2, 65, 0
4, 24572, Note_off_c, 2, 77, 0
4, 24572, Note_off_c, 2, 74, 0
4, 24576, Note_on_c, 2, 76, 63
4, 24576, Note_on_c, 2, 72, 63
4, 24576, Note_on_c, 2, 67, 63
4, 24764, Note_off_c, 2, 67, 0
4, 24768, Note_on_c, 2, 67, 63
4, 24956, Note_off_c, 2, 76, 0
4, 24956, Note_off_c, 2, 72, 0
4, 24956, Note_off_c, 2, 67, 0
4, 24960, Note_on_c, 2, 74, 63
4, 24960, Note_on_c, 2, 71, 63
4, 24960, Note_on_c, 2, 67, 63
4, 24960, Note_on_c, 2, 65, 63
4, 25148, Note_off_c, 2, 67, 0
4, 25148, Note_off_c, 2, 65, 0
4, 25152, Note_on_c, 2, 67, 63
4, 25152, Note_on_c, 2, 65, 63
4, 25340, Note_off_c, 2, 74, 0
4, 25340, Note_off_c, 2, 71, 0
4, 25340, Note_off_c, 2, 67, 0
4, 25340, Note_off_c, 2, 65, 0
4, 25344, Note_on_c, 2, 79, 92
4, 25344, Note_on_c, 2, 72, 92
4, 25344, Note_on_c, 2, 67, 92
4, 25532, Note_off_c, 2, 72, 0
4, 25532, Note_off_c, 2, 67, 0
4, 25728, Note_on_c, 2, 74, 92
4, 25728, Note_on_c, 2, 71, 92
4, 25728, Note_on_c, 2, 67, 92
4, 25916, Note_off_c, 2, 74, 0
4, 25916, Note_off_c, 2, 71, 0
4, 25916, Note_off_c, 2, 67, 0
4, 26112, Note_on_c, 2, 76, 92
4, 26112, Note_on_c, 2, 72, 92
4, 26112, Note_on_c, 2, 67, 92
4, 26300, Note_off_c, 2, 76, 0
4, 26300, Note_off_c, 2, 72, 0
4, 26300, Note_off_c, 2, 67, 0
4, 26496, Note_on_c, 2, 77, 92
4, 26496, Note_on_c, 2, 74, 92
4, 26496, Note_on_c, 2, 67, 92
4, 26684, Note_off_c, 2, 77, 0
4, 26684, Note_off_c, 2, 74, 0
4, 26684, Note_off_c, 2, 67, 0
4, 26688, Note_on_c, 2, 89, 63
4, 26780, Note_off_c, 2, 89, 0
4, 26784, Note_on_c, 2, 88, 63
4, 26876, Note_off_c, 2, 79, 0
4, 26876, Note_off_c, 2, 88, 0
4, 26880, Note_on_c, 2, 86, 63
4, 26972, Note_off_c, 2, 86, 0
4, 26976, Note_on_c, 2, 84, 63
4, 27068, Note_off_c, 2, 84, 0
4, 27072, Note_on_c, 2, 83, 63
4, 27072, Note_on_c, 2, 77, 63
4, 27164, Note_off_c, 2, 83, 0
4, 27164, Note_off_c, 2, 77, 0
4, 27168, Note_on_c, 2, 81, 63
4, 27168, Note_on_c, 2, 76, 63
4, 27260, Note_off_c, 2, 81, 0
4, 27260, Note_off_c, 2, 76, 0
4, 27264, Note_on_c, 2, 79, 63
4, 27264, Note_on_c, 2, 74, 63
4, 27356, Note_off_c, 2, 79, 0
4, 27356, Note_off_c, 2, 74, 0
4, 27360, Note_on_c, 2, 78, 63
4, 27360, Note_on_c, 2, 74, 63
4, 27452, Note_off_c, 2, 78, 0
4, 27452, Note_off_c, 2, 74, 0
4, 27456, Note_on_c, 2, 79, 63
4, 27456, Note_on_c, 2, 74, 63
4, 27548, Note_off_c, 2, 79, 0
4, 27548, Note_off_c, 2, 74, 0
4, 27552, Note_on_c, 2, 77, 63
4, 27552, Note_on_c, 2, 71, 63
4, 27644, Note_off_c, 2, 77, 0
4, 27644, Note_off_c, 2, 71, 0
4, 27648, Note_on_c, 2, 76, 63
4, 27648, Note_on_c, 2, 72, 63
4, 27740, Note_off_c, 2, 76, 0
4, 27740, Note_off_c, 2, 72, 0
4, 27744, Note_on_c, 2, 84, 63
4, 27744, Note_on_c, 2, 76, 63
4, 27836, Note_off_c, 2, 84, 0
4, 27836, Note_off_c, 2, 76, 0
4, 27840, Note_on_c, 2, 81, 63
4, 27840, Note_on_c, 2, 77, 63
4, 27932, Note_off_c, 2, 81, 0
4, 27932, Note_off_c, 2, 77, 0
4, 27936, Note_on_c, 2, 77, 63
4, 27936, Note_on_c, 2, 74, 63
4, 28028, Note_off_c, 2, 77, 0
4, 28028, Note_off_c, 2, 74, 0
4, 28032, Note_on_c, 2, 76, 63
4, 28032, Note_on_c, 2, 72, 63
4, 28220, Note_off_c, 2, 76, 0
4, 28220, Note_off_c, 2, 72, 0
4, 28224, Note_on_c, 2, 76, 63
4, 28224, Note_on_c, 2, 79, 63
4, 28316, Note_off_c, 2, 76, 0
4, 28316, Note_off_c, 2, 79, 0
4, 28320, Note_on_c, 2, 77, 63
4, 28320, Note_on_c, 2, 74, 63
4, 28604, Note_off_c, 2, 77, 0
4, 28604, Note_off_c, 2, 74, 0
4, 28608, Note_on_c, 2, 76, 63
4, 28608, Note_on_c, 2, 72, 63
4, 28700, Note_off_c, 2, 76, 0
4, 28700, Note_off_c, 2, 72, 0
4, 28704, Note_on_c, 2, 74, 63
4, 28704, Note_on_c, 2, 71, 63
4, 28796, Note_off_c, 2, 74, 0
4, 28796, Note_off_c, 2, 71, 0
4, 28800, Note_on_c, 2, 76, 63
4, 28800, Note_on_c, 2, 67, 63
4, 28800, Note_on_c, 2, 72, 63
4, 29564, Note_off_c, 2, 76, 0
4, 29564, Note_off_c, 2, 67, 0
4, 29568, Note_on_c, 2, 75, 63
4, 29568, Note_on_c, 2, 66, 63
4, 29948, Note_off_c, 2, 72, 0
4, 29948, Note_off_c, 2, 75, 0
4, 29948, Note_off_c, 2, 66, 0
4, 29952, Note_on_c, 2, 74, 63
4, 29952, Note_on_c, 2, 65, 63
4, 29952, Note_on_c, 2, 72, 63
4, 30236, Note_off_c, 2, 74, 0
4, 30236, Note_off_c, 2, 65, 0
4, 30240, Note_on_c, 2, 75, 63
4, 30240, Note_on_c, 2, 67, 63
4, 30332, Note_off_c, 2, 75, 0
4, 30332, Note_off_c, 2, 67, 0
4, 30336, Note_on_c, 2, 77, 63
4, 30336, Note_on_c, 2, 68, 63
4, 30716, Note_off_c, 2, 72, 0
4, 30716, Note_off_c, 2, 77, 0
4, 30716, Note_off_c, 2, 68, 0
4, 30720, Note_on_c, 2, 71, 63
4, 30720, Note_on_c, 2, 62, 63
4, 31100, Note_off_c, 2, 71, 0
4, 31100, Note_off_c, 2, 62, 0
4, 31104, Note_on_c, 2, 79, 63
4, 31104, Note_on_c, 2, 76, 63
4, 31104, Note_on_c, 2, 67, 63
4, 31868, Note_off_c, 2, 79, 0
4, 31868, Note_off_c, 2, 76, 0
4, 31868, Note_off_c, 2, 67, 0
4, 31872, Note_on_c, 2, 78, 63
4, 31872, Note_on_c, 2, 75, 63
4, 31872, Note_on_c, 2, 66, 63
4, 32252, Note_off_c, 2, 78, 0
4, 32252, Note_off_c, 2, 75, 0
4, 32252, Note_off_c, 2, 66, 0
4, 32256, Note_on_c, 2, 77, 63
4, 32256, Note_on_c, 2, 74, 63
4, 32256, Note_on_c, 2, 65, 63
4, 32540, Note_off_c, 2, 77, 0
4, 32540, Note_off_c, 2, 74, 0
4, 32540, Note_off_c, 2, 65, 0
4, 32544, Note_on_c, 2, 79, 63
4, 32544, Note_on_c, 2, 75, 63
4, 32544, Note_on_c, 2, 67, 63
4, 32636, Note_off_c, 2, 79, 0
4, 32636, Note_off_c, 2, 75, 0
4, 32636, Note_off_c, 2, 67, 0
4, 32640, Note_on_c, 2, 80, 63
4, 32640, Note_on_c, 2, 77, 63
4, 32640, Note_on_c, 2, 68, 63
4, 33020, Note_off_c, 2, 80, 0
4, 33020, Note_off_c, 2, 77, 0
4, 33020, Note_off_c, 2, 68, 0
4, 33024, Note_on_c, 2, 71, 63
4, 33024, Note_on_c, 2, 62, 63
4, 33308, Note_off_c, 2, 71, 0
4, 33308, Note_off_c, 2, 62, 0
4, 33312, Note_on_c, 2, 83, 63
4, 33404, Note_off_c, 2, 83, 0
4, 33408, Note_on_c, 2, 83, 63
4, 33408, Note_on_c, 2, 74, 63
4, 33408, Note_on_c, 2, 71, 63
4, 33788, Note_off_c, 2, 83, 0
4, 33788, Note_off_c, 2, 74, 0
4, 33788, Note_off_c, 2, 71, 0
4, 33792, Note_on_c, 2, 84, 63
4, 33792, Note_on_c, 2, 76, 63
4, 33792, Note_on_c, 2, 72, 63
4, 34172, Note_off_c, 2, 84, 0
4, 34172, Note_off_c, 2, 76, 0
4, 34172, Note_off_c, 2, 72, 0
4, 40320, Note_on_c, 2, 62, 84
4, 40320, Note_on_c, 2, 58, 84
4, 40508, Note_off_c, 2, 62, 0
4, 40508, Note_off_c, 2, 58, 0
4, 40704, Note_on_c, 2, 79, 57
4, 40704, Note_on_c, 2, 70, 57
4, 40892, Note_off_c, 2, 79, 0
4, 40892, Note_off_c, 2, 70, 0
4, 41088, Note_on_c, 2, 82, 57
4, 41088, Note_on_c, 2, 74, 57
4, 41276, Note_off_c, 2, 82, 0
4, 41276, Note_off_c, 2, 74, 0
4, 41472, Note_on_c, 2, 60, 84
4, 41472, Note_on_c, 2, 57, 84
4, 41660, Note_off_c, 2, 60, 0
4, 41660, Note_off_c, 2, 57, 0
4, 41856, Note_on_c, 2, 75, 57
4, 41856, Note_on_c, 2, 72, 57
4, 41856, Note_on_c, 2, 67, 57
4, 42044, Note_off_c, 2, 75, 0
4, 42044, Note_off_c, 2, 72, 0
4, 42044, Note_off_c, 2, 67, 0
4, 42240, Note_on_c, 2, 84, 57
4, 42240, Note_on_c, 2, 75, 57
4, 42428, Note_off_c, 2, 84, 0
4, 42428, Note_off_c, 2, 75, 0
4, 42624, Note_on_c, 2, 62, 84
4, 42624, Note_on_c, 2, 60, 84
4, 42624, Note_on_c, 2, 57, 84
4, 42812, Note_off_c, 2, 62, 0
4, 42812, Note_off_c, 2, 60, 0
4, 42812, Note_off_c, 2, 57, 0
4, 43008, Note_on_c, 2, 74, 57
4, 43008, Note_on_c, 2, 81, 57
4, 43196, Note_off_c, 2, 74, 0
4, 43196, Note_off_c, 2, 81, 0
4, 43392, Note_on_c, 2, 81, 57
4, 43392, Note_on_c, 2, 84, 57
4, 43580, Note_off_c, 2, 81, 0
4, 43580, Note_off_c, 2, 84, 0
4, 43776, Note_on_c, 2, 62, 84
4, 43776, Note_on_c, 2, 58, 84
4, 43776, Note_on_c, 2, 55, 84
4, 43964, Note_off_c, 2, 62, 0
4, 43964, Note_off_c, 2, 58, 0
4, 43964, Note_off_c, 2, 55, 0
4, 44160, Note_on_c, 2, 74, 57
4, 44160, Note_on_c, 2, 82, 57
4, 44348, Note_off_c, 2, 74, 0
4, 44348, Note_off_c, 2, 82, 0
4, 44544, Note_on_c, 2, 82, 57
4, 44544, Note_on_c, 2, 86, 57
4, 44732, Note_off_c, 2, 82, 0
4, 44732, Note_off_c, 2, 86, 0
4, 45120, Note_on_c, 2, 67, 59
4, 45120, Note_on_c, 2, 62, 59
4, 45120, Note_on_c, 2, 58, 59
4, 45212, Note_off_c, 2, 67, 0
4, 45212, Note_off_c, 2, 62, 0
4, 45212, Note_off_c, 2, 58, 0
4, 45312, Note_on_c, 2, 70, 63
4, 45312, Note_on_c, 2, 67, 63
4, 45312, Note_on_c, 2, 62, 63
4, 45404, Note_off_c, 2, 70, 0
4, 45404, Note_off_c, 2, 67, 0
4, 45404, Note_off_c, 2, 62, 0
4, 45504, Note_on_c, 2, 74, 65
4, 45504, Note_on_c, 2, 70, 65
4, 45504, Note_on_c, 2, 67, 65
4, 45596, Note_off_c, 2, 74, 0
4, 45596, Note_off_c, 2, 70, 0
4, 45596, Note_off_c, 2, 67, 0
4, 45696, Note_on_c, 2, 79, 68
4, 45696, Note_on_c, 2, 74, 68
4, 45696, Note_on_c, 2, 70, 68
4, 45788, Note_off_c, 2, 79, 0
4, 45788, Note_off_c, 2, 74, 0
4, 45788, Note_off_c, 2, 70, 0
4, 45888, Note_on_c, 2, 82, 70
4, 45888, Note_on_c, 2, 79, 70
4, 45888, Note_on_c, 2, 74, 70
4, 45980, Note_off_c, 2, 82, 0
4, 45980, Note_off_c, 2, 79, 0
4, 45980, Note_off_c, 2, 74, 0
4, 46272, Note_on_c, 2, 68, 59
4, 46272, Note_on_c, 2, 63, 59
4, 46272, Note_on_c, 2, 60, 59
4, 46364, Note_off_c, 2, 68, 0
4, 46364, Note_off_c, 2, 63, 0
4, 46364, Note_off_c, 2, 60, 0
4, 46464, Note_on_c, 2, 72, 63
4, 46464, Note_on_c, 2, 68, 63
4, 46464, Note_on_c, 2, 63, 63
4, 46556, Note_off_c, 2, 72, 0
4, 46556, Note_off_c, 2, 68, 0
4, 46556, Note_off_c, 2, 63, 0
4, 46656, Note_on_c, 2, 75, 65
4, 46656, Note_on_c, 2, 72, 65
4, 46656, Note_on_c, 2, 68, 65
4, 46748, Note_off_c, 2, 75, 0
4, 46748, Note_off_c, 2, 72, 0
4, 46748, Note_off_c, 2, 68, 0
4, 46848, Note_on_c, 2, 80, 68
4, 46848, Note_on_c, 2, 75, 68
4, 46848, Note_on_c, 2, 72, 68
4, 46940, Note_off_c, 2, 80, 0
4, 46940, Note_off_c, 2, 75, 0
4, 46940, Note_off_c, 2, 72, 0
4, 47040, Note_on_c, 2, 84, 70
4, 47040, Note_on_c, 2, 80, 70
4, 47040, Note_on_c, 2, 75, 70
4, 47132, Note_off_c, 2, 84, 0
4, 47132, Note_off_c, 2, 80, 0
4, 47132, Note_off_c, 2, 75, 0
4, 47424, Note_on_c, 2, 67, 59
4, 47424, Note_on_c, 2, 64, 59
4, 47424, Note_on_c, 2, 58, 59
4, 47516, Note_off_c, 2, 67, 0
4, 47516, Note_off_c, 2, 64, 0
4, 47516, Note_off_c, 2, 58, 0
4, 47616, Note_on_c, 2, 70, 63
4, 47616, Note_on_c, 2, 67, 63
4, 47616, Note_on_c, 2, 64, 63
4, 47708, Note_off_c, 2, 70, 0
4, 47708, Note_off_c, 2, 67, 0
4, 47708, Note_off_c, 2, 64, 0
4, 47808, Note_on_c, 2, 76, 65
4, 47808, Note_on_c, 2, 70, 65
4, 47808, Note_on_c, 2, 67, 65
4, 47900, Note_off_c, 2, 76, 0
4, 47900, Note_off_c, 2, 70, 0
4, 47900, Note_off_c, 2, 67, 0
4, 48000, Note_on_c, 2, 79, 68
4, 48000, Note_on_c, 2, 76, 68
4, 48000, Note_on_c, 2, 70, 68
4, 48092, Note_off_c, 2, 79, 0
4, 48092, Note_off_c, 2, 76, 0
4, 48092, Note_off_c, 2, 70, 0
4, 48192, Note_on_c, 2, 82, 70
4, 48192, Note_on_c, 2, 79, 70
4, 48192, Note_on_c, 2, 76, 70
4, 48284, Note_off_c, 2, 82, 0
4, 48284, Note_off_c, 2, 79, 0
4, 48284, Note_off_c, 2, 76, 0
4, 48576, Note_on_c, 2, 62, 57
4, 48764, Note_off_c, 2, 62, 0
4, 48768, Note_on_c, 2, 66, 57
4, 48768, Note_on_c, 2, 74, 57
4, 48956, Note_off_c, 2, 66, 0
4, 48956, Note_off_c, 2, 74, 0
4, 48960, Note_on_c, 2, 62, 57
4, 49148, Note_off_c, 2, 62, 0
4, 49152, Note_on_c, 2, 69, 57
4, 49152, Note_on_c, 2, 72, 57
4, 49340, Note_off_c, 2, 69, 0
4, 49340, Note_off_c, 2, 72, 0
4, 49344, Note_on_c, 2, 62, 57
4, 49532, Note_off_c, 2, 62, 0
4, 49536, Note_on_c, 2, 71, 57
4, 49536, Note_on_c, 2, 67, 57
4, 49724, Note_off_c, 2, 71, 0
4, 49724, Note_off_c, 2, 67, 0
4, 49728, Note_on_c, 2, 62, 57
4, 49916, Note_off_c, 2, 62, 0
4, 49920, Note_on_c, 2, 67, 57
4, 49920, Note_on_c, 2, 71, 57
4, 50108, Note_off_c, 2, 67, 0
4, 50108, Note_off_c, 2, 71, 0
4, 50112, Note_on_c, 2, 62, 57
4, 50300, Note_off_c, 2, 62, 0
4, 50304, Note_on_c, 2, 66, 57
4, 50492, Note_off_c, 2, 66, 0
4, 50496, Note_on_c, 2, 69, 57
4, 50496, Note_on_c, 2, 62, 57
4, 50684, Note_off_c, 2, 69, 0
4, 50684, Note_off_c, 2, 62, 0
4, 50688, Note_on_c, 2, 67, 57
4, 50688, Note_on_c, 2, 74, 57
4, 50876, Note_off_c, 2, 67, 0
4, 50880, Note_on_c, 2, 62, 57
4, 51068, Note_off_c, 2, 62, 0
4, 51072, Note_on_c, 2, 67, 57
4, 51260, Note_off_c, 2, 74, 0
4, 51260, Note_off_c, 2, 67, 0
4, 51264, Note_on_c, 2, 62, 57
4, 51264, Note_on_c, 2, 71, 57
4, 51404, Note_off_c, 2, 71, 0
4, 51408, Note_on_c, 2, 67, 57
4, 51452, Note_off_c, 2, 62, 0
4, 51452, Note_off_c, 2, 67, 0
4, 51456, Note_on_c, 2, 66, 57
4, 51456, Note_on_c, 2, 72, 57
4, 51644, Note_off_c, 2, 66, 0
4, 51644, Note_off_c, 2, 72, 0
4, 51648, Note_on_c, 2, 62, 57
4, 51648, Note_on_c, 2, 72, 57
4, 51836, Note_off_c, 2, 62, 0
4, 51836, Note_off_c, 2, 72, 0
4, 51840, Note_on_c, 2, 70, 57
4, 52028, Note_off_c, 2, 70, 0
4, 52032, Note_on_c, 2, 62, 57
4, 52032, Note_on_c, 2, 71, 57
4, 52220, Note_off_c, 2, 62, 0
4, 52224, Note_on_c, 2, 67, 57
4, 52412, Note_off_c, 2, 71, 0
4, 52412, Note_off_c, 2, 67, 0
4, 52416, Note_on_c, 2, 83, 57
4, 52556, Note_off_c, 2, 83, 0
4, 52560, Note_on_c, 2, 79, 57
4, 52604, Note_off_c, 2, 79, 0
4, 52608, Note_on_c, 2, 84, 57
4, 52608, Note_on_c, 2, 78, 57
4, 52700, Note_off_c, 2, 84, 0
4, 52700, Note_off_c, 2, 78, 0
4, 52800, Note_on_c, 2, 84, 57
4, 52800, Note_on_c, 2, 74, 57
4, 52892, Note_off_c, 2, 84, 0
4, 52892, Note_off_c, 2, 74, 0
4, 52992, Note_on_c, 2, 78, 57
4, 52992, Note_on_c, 2, 82, 57
4, 53180, Note_off_c, 2, 78, 0
4, 53180, Note_off_c, 2, 82, 0
4, 53184, Note_on_c, 2, 79, 57
4, 53184, Note_on_c, 2, 83, 57
4, 53372, Note_off_c, 2, 79, 0
4, 53372, Note_off_c, 2, 83, 0
4, 54336, Note_on_c, 2, 76, 57
4, 54336, Note_on_c, 2, 67, 57
4, 54716, Note_off_c, 2, 76, 0
4, 54716, Note_off_c, 2, 67, 0
4, 54720, Note_on_c, 2, 76, 57
4, 54720, Note_on_c, 2, 66, 57
4, 54908, Note_off_c, 2, 66, 0
4, 54912, Note_on_c, 2, 68, 57
4, 55100, Note_off_c, 2, 76, 0
4, 55100, Note_off_c, 2, 68, 0
4, 55104, Note_on_c, 2, 76, 57
4, 55104, Note_on_c, 2, 69, 57
4, 55292, Note_off_c, 2, 76, 0
4, 55292, Note_off_c, 2, 69, 0
4, 55488, Note_on_c, 2, 66, 57
4, 55488, Note_on_c, 2, 74, 57
4, 55868, Note_off_c, 2, 66, 0
4, 55868, Note_off_c, 2, 74, 0
4, 55872, Note_on_c, 2, 64, 57
4, 55872, Note_on_c, 2, 74, 57
4, 56060, Note_off_c, 2, 64, 0
4, 56064, Note_on_c, 2, 69, 57
4, 56252, Note_off_c, 2, 74, 0
4, 56252, Note_off_c, 2, 69, 0
4, 56256, Note_on_c, 2, 74, 57
4, 56256, Note_on_c, 2, 68, 57
4, 56444, Note_off_c, 2, 74, 0
4, 56444, Note_off_c, 2, 68, 0
4, 56640, Note_on_c, 2, 64, 57
4, 56640, Note_on_c, 2, 72, 57
4, 56828, Note_off_c, 2, 64, 0
4, 56832, Note_on_c, 2, 63, 57
4, 57020, Note_off_c, 2, 72, 0
4, 57020, Note_off_c, 2, 63, 0
4, 57024, Note_on_c, 2, 62, 57
4, 57024, Note_on_c, 2, 72, 57
4, 57212, Note_off_c, 2, 62, 0
4, 57216, Note_on_c, 2, 67, 57
4, 57404, Note_off_c, 2, 72, 0
4, 57404, Note_off_c, 2, 67, 0
4, 57408, Note_on_c, 2, 66, 57
4, 57408, Note_on_c, 2, 72, 57
4, 57596, Note_off_c, 2, 66, 0
4, 57596, Note_off_c, 2, 72, 0
4, 57600, Note_on_c, 2, 71, 57
4, 57600, Note_on_c, 2, 67, 57
4, 57788, Note_off_c, 2, 71, 0
4, 57788, Note_off_c, 2, 67, 0
4, 57984, Note_on_c, 2, 69, 57
4, 57984, Note_on_c, 2, 66, 57
4, 57984, Note_on_c, 2, 60, 57
4, 58172, Note_off_c, 2, 69, 0
4, 58172, Note_off_c, 2, 66, 0
4, 58172, Note_off_c, 2, 60, 0
4, 58368, Note_on_c, 2, 67, 57
4, 58368, Note_on_c, 2, 62, 57
4, 58368, Note_on_c, 2, 59, 57
4, 58556, Note_off_c, 2, 67, 0
4, 58556, Note_off_c, 2, 62, 0
4, 58556, Note_off_c, 2, 59, 0
4, 62208, Note_on_c, 2, 83, 57
4, 62208, Note_on_c, 2, 74, 57
4, 62972, Note_off_c, 2, 83, 0
4, 62972, Note_off_c, 2, 74, 0
4, 62976, Note_on_c, 2, 82, 57
4, 62976, Note_on_c, 2, 73, 57
4, 63356, Note_off_c, 2, 82, 0
4, 63356, Note_off_c, 2, 73, 0
4, 63360, Note_on_c, 2, 81, 57
4, 63360, Note_on_c, 2, 72, 57
4, 63644, Note_off_c, 2, 81, 0
4, 63644, Note_off_c, 2, 72, 0
4, 63648, Note_on_c, 2, 74, 57
4, 63648, Note_on_c, 2, 82, 57
4, 63740, Note_off_c, 2, 74, 0
4, 63740, Note_off_c, 2, 82, 0
4, 63744, Note_on_c, 2, 84, 57
4, 63744, Note_on_c, 2, 75, 57
4, 64124, Note_off_c, 2, 84, 0
4, 64124, Note_off_c, 2, 75, 0
4, 64128, Note_on_c, 2, 78, 57
4, 64128, Note_on_c, 2, 74, 57
4, 64220, Note_off_c, 2, 74, 0
4, 64224, Note_on_c, 2, 72, 57
4, 64316, Note_off_c, 2, 72, 0
4, 64320, Note_on_c, 2, 71, 57
4, 64412, Note_off_c, 2, 71, 0
4, 64416, Note_on_c, 2, 72, 57
4, 64508, Note_off_c, 2, 78, 0
4, 64508, Note_off_c, 2, 72, 0
4, 64512, Note_on_c, 2, 79, 57
4, 64512, Note_on_c, 2, 71, 57
4, 64892, Note_off_c, 2, 79, 0
4, 64892, Note_off_c, 2, 71, 0
4, 65664, Note_on_c, 2, 87, 57
4, 65664, Note_on_c, 2, 75, 57
4, 66428, Note_off_c, 2, 87, 0
4, 66428, Note_off_c, 2, 75, 0
4, 66432, Note_on_c, 2, 86, 57
4, 66432, Note_on_c, 2, 74, 57
4, 66524, Note_off_c, 2, 86, 0
4, 66524, Note_off_c, 2, 74, 0
4, 66528, Note_on_c, 2, 84, 57
4, 66528, Note_on_c, 2, 72, 57
4, 66620, Note_off_c, 2, 84, 0
4, 66620, Note_off_c, 2, 72, 0
4, 66624, Note_on_c, 2, 83, 57
4, 66624, Note_on_c, 2, 71, 57
4, 66716, Note_off_c, 2, 83, 0
4, 66716, Note_off_c, 2, 71, 0
4, 66720, Note_on_c, 2, 84, 57
4, 66720, Note_on_c, 2, 72, 57
4, 66812, Note_off_c, 2, 84, 0
4, 66812, Note_off_c, 2, 72, 0
4, 66816, Note_on_c, 2, 83, 57
4, 66816, Note_on_c, 2, 71, 57
4, 66908, Note_off_c, 2, 83, 0
4, 66908, Note_off_c, 2, 71, 0
4, 68160, Note_on_c, 2, 76, 57
4, 68348, Note_off_c, 2, 76, 0
4, 68352, Note_on_c, 2, 77, 57
4, 68540, Note_off_c, 2, 77, 0
4, 68544, Note_on_c, 2, 78, 57
4, 68732, Note_off_c, 2, 78, 0
4, 68736, Note_on_c, 2, 79, 57
4, 68924, Note_off_c, 2, 79, 0
4, 69312, Note_on_c, 2, 80, 57
4, 69312, Note_on_c, 2, 68, 57
4, 69500, Note_off_c, 2, 80, 0
4, 69500, Note_off_c, 2, 68, 0
4, 69504, Note_on_c, 2, 81, 57
4, 69504, Note_on_c, 2, 69, 57
4, 69692, Note_off_c, 2, 81, 0
4, 69692, Note_off_c, 2, 69, 0
4, 69696, Note_on_c, 2, 83, 57
4, 69696, Note_on_c, 2, 71, 57
4, 69884, Note_off_c, 2, 83, 0
4, 69884, Note_off_c, 2, 71, 0
4, 69888, Note_on_c, 2, 84, 57
4, 69888, Note_on_c, 2, 72, 57
4, 70076, Note_off_c, 2, 84, 0
4, 70076, Note_off_c, 2, 72, 0
4, 70464, Note_on_c, 2, 83, 57
4, 70464, Note_on_c, 2, 71, 57
4, 70652, Note_off_c, 2, 83, 0
4, 70652, Note_off_c, 2, 71, 0
4, 70656, Note_on_c, 2, 84, 57
4, 70656, Note_on_c, 2, 72, 57
4, 70844, Note_off_c, 2, 84, 0
4, 70844, Note_off_c, 2, 72, 0
4, 70848, Note_on_c, 2, 86, 57
4, 70848, Note_on_c, 2, 74, 57
4, 71036, Note_off_c, 2, 86, 0
4, 71036, Note_off_c, 2, 74, 0
4, 71040, Note_on_c, 2, 88, 57
4, 71040, Note_on_c, 2, 76, 57
4, 71228, Note_off_c, 2, 88, 0
4, 71228, Note_off_c, 2, 76, 0
4, 71232, Note_on_c, 2, 73, 57
4, 71232, Note_on_c, 2, 69, 57
4, 71232, Note_on_c, 2, 67, 57
4, 71420, Note_off_c, 2, 73, 0
4, 71420, Note_off_c, 2, 69, 0
4, 71420, Note_off_c, 2, 67, 0
4, 71424, Note_on_c, 2, 74, 57
4, 71424, Note_on_c, 2, 71, 57
4, 71424, Note_on_c, 2, 67, 57
4, 71516, Note_off_c, 2, 74, 0
4, 71516, Note_off_c, 2, 71, 0
4, 71516, Note_off_c, 2, 67, 0
4, 71520, Note_on_c, 2, 71, 57
4, 71520, Note_on_c, 2, 67, 57
4, 71520, Note_on_c, 2, 62, 57
4, 71612, Note_off_c, 2, 71, 0
4, 71612, Note_off_c, 2, 67, 0
4, 71612, Note_off_c, 2, 62, 0
4, 71616, Note_on_c, 2, 71, 57
4, 71616, Note_on_c, 2, 67, 57
4, 71616, Note_on_c, 2, 62, 57
4, 71708, Note_off_c, 2, 71, 0
4, 71708, Note_off_c, 2, 67, 0
4, 71708, Note_off_c, 2, 62, 0
4, 71712, Note_on_c, 2, 71, 57
4, 71712, Note_on_c, 2, 67, 57
4, 71712, Note_on_c, 2, 62, 57
4, 71804, Note_off_c, 2, 71, 0
4, 71804, Note_off_c, 2, 67, 0
4, 71804, Note_off_c, 2, 62, 0
4, 71808, Note_on_c, 2, 71, 57
4, 71808, Note_on_c, 2, 67, 57
4, 71808, Note_on_c, 2, 62, 57
4, 71900, Note_off_c, 2, 71, 0
4, 71900, Note_off_c, 2, 67, 0
4, 71900, Note_off_c, 2, 62, 0
4, 71904, Note_on_c, 2, 71, 57
4, 71904, Note_on_c, 2, 67, 57
4, 71904, Note_on_c, 2, 62, 57
4, 71996, Note_off_c, 2, 71, 0
4, 71996, Note_off_c, 2, 67, 0
4, 71996, Note_off_c, 2, 62, 0
4, 72000, Note_on_c, 2, 71, 57
4, 72000, Note_on_c, 2, 67, 57
4, 72000, Note_on_c, 2, 62, 57
4, 72092, Note_off_c, 2, 71, 0
4, 72092, Note_off_c, 2, 67, 0
4, 72092, Note_off_c, 2, 62, 0
4, 72096, Note_on_c, 2, 71, 57
4, 72096, Note_on_c, 2, 67, 57
4, 72096, Note_on_c, 2, 62, 57
4, 72188, Note_off_c, 2, 71, 0
4, 72188, Note_off_c, 2, 67, 0
4, 72188, Note_off_c, 2, 62, 0
4, 72192, Note_on_c, 2, 71, 57
4, 72192, Note_on_c, 2, 67, 57
4, 72192, Note_on_c, 2, 62, 57
4, 72284, Note_off_c, 2, 71, 0
4, 72284, Note_off_c, 2, 67, 0
4, 72284, Note_off_c, 2, 62, 0
4, 72288, Note_on_c, 2, 71, 57
4, 72288, Note_on_c, 2, 67, 57
4, 72288, Note_on_c, 2, 62, 57
4, 72380, Note_off_c, 2, 71, 0
4, 72380, Note_off_c, 2, 67, 0
4, 72380, Note_off_c, 2, 62, 0
4, 72384, Note_on_c, 2, 71, 57
4, 72384, Note_on_c, 2, 67, 57
4, 72384, Note_on_c, 2, 62, 57
4, 72476, Note_off_c, 2, 71, 0
4, 72476, Note_off_c, 2, 67, 0
4, 72476, Note_off_c, 2, 62, 0
4, 72480, Note_on_c, 2, 71, 57
4, 72480, Note_on_c, 2, 67, 57
4, 72480, Note_on_c, 2, 62, 57
4, 72572, Note_off_c, 2, 71, 0
4, 72572, Note_off_c, 2, 67, 0
4, 72572, Note_off_c, 2, 62, 0
4, 72576, Note_on_c, 2, 69, 57
4, 72576, Note_on_c, 2, 66, 57
4, 72576, Note_on_c, 2, 62, 57
4, 72576, Note_on_c, 2, 60, 57
4, 72668, Note_off_c, 2, 69, 0
4, 72668, Note_off_c, 2, 66, 0
4, 72668, Note_off_c, 2, 62, 0
4, 72668, Note_off_c, 2, 60, 0
4, 72672, Note_on_c, 2, 69, 57
4, 72672, Note_on_c, 2, 66, 57
4, 72672, Note_on_c, 2, 62, 57
4, 72672, Note_on_c, 2, 60, 57
4, 72764, Note_off_c, 2, 69, 0
4, 72764, Note_off_c, 2, 66, 0
4, 72764, Note_off_c, 2, 62, 0
4, 72764, Note_off_c, 2, 60, 0
4, 72768, Note_on_c, 2, 69, 57
4, 72768, Note_on_c, 2, 66, 57
4, 72768, Note_on_c, 2, 62, 57
4, 72768, Note_on_c, 2, 60, 57
4, 72860, Note_off_c, 2, 69, 0
4, 72860, Note_off_c, 2, 66, 0
4, 72860, Note_off_c, 2, 62, 0
4, 72860, Note_off_c, 2, 60, 0
4, 72864, Note_on_c, 2, 69, 57
4, 72864, Note_on_c, 2, 66, 57
4, 72864, Note_on_c, 2, 62, 57
4, 72864, Note_on_c, 2, 60, 57
4, 72956, Note_off_c, 2, 69, 0
4, 72956, Note_off_c, 2, 66, 0
4, 72956, Note_off_c, 2, 62, 0
4, 72956, Note_off_c, 2, 60, 0
4, 72960, Note_on_c, 2, 69, 57
4, 72960, Note_on_c, 2, 66, 57
4, 72960, Note_on_c, 2, 62, 57
4, 72960, Note_on_c, 2, 60, 57
4, 73052, Note_off_c, 2, 69, 0
4, 73052, Note_off_c, 2, 66, 0
4, 73052, Note_off_c, 2, 62, 0
4, 73052, Note_off_c, 2, 60, 0
4, 73056, Note_on_c, 2, 69, 57
4, 73056, Note_on_c, 2, 66, 57
4, 73056, Note_on_c, 2, 62, 57
4, 73056, Note_on_c, 2, 60, 57
4, 73148, Note_off_c, 2, 69, 0
4, 73148, Note_off_c, 2, 66, 0
4, 73148, Note_off_c, 2, 62, 0
4, 73148, Note_off_c, 2, 60, 0
4, 73152, Note_on_c, 2, 69, 57
4, 73152, Note_on_c, 2, 66, 57
4, 73152, Note_on_c, 2, 62, 57
4, 73152, Note_on_c, 2, 60, 57
4, 73244, Note_off_c, 2, 69, 0
4, 73244, Note_off_c, 2, 66, 0
4, 73244, Note_off_c, 2, 62, 0
4, 73244, Note_off_c, 2, 60, 0
4, 73248, Note_on_c, 2, 69, 57
4, 73248, Note_on_c, 2, 66, 57
4, 73248, Note_on_c, 2, 62, 57
4, 73248, Note_on_c, 2, 60, 57
4, 73340, Note_off_c, 2, 69, 0
4, 73340, Note_off_c, 2, 66, 0
4, 73340, Note_off_c, 2, 62, 0
4, 73340, Note_off_c, 2, 60, 0
4, 73344, Note_on_c, 2, 69, 57
4, 73344, Note_on_c, 2, 66, 57
4, 73344, Note_on_c, 2, 62, 57
4, 73344, Note_on_c, 2, 60, 57
4, 73436, Note_off_c, 2, 69, 0
4, 73436, Note_off_c, 2, 66, 0
4, 73436, Note_off_c, 2, 62, 0
4, 73436, Note_off_c, 2, 60, 0
4, 73440, Note_on_c, 2, 69, 57
4, 73440, Note_on_c, 2, 66, 57
4, 73440, Note_on_c, 2, 62, 57
4, 73440, Note_on_c, 2, 60, 57
4, 73532, Note_off_c, 2, 69, 0
4, 73532, Note_off_c, 2, 66, 0
4, 73532, Note_off_c, 2, 62, 0
4, 73532, Note_off_c, 2, 60, 0
4, 73536, Note_on_c, 2, 69, 57
4, 73536, Note_on_c, 2, 66, 57
4, 73536, Note_on_c, 2, 62, 57
4, 73536, Note_on_c, 2, 60, 57
4, 73628, Note_off_c, 2, 69, 0
4, 73628, Note_off_c, 2, 66, 0
4, 73628, Note_off_c, 2, 62, 0
4, 73628, Note_off_c, 2, 60, 0
4, 73632, Note_on_c, 2, 69, 57
4, 73632, Note_on_c, 2, 66, 57
4, 73632, Note_on_c, 2, 62, 57
4, 73632, Note_on_c, 2, 60, 57
4, 73724, Note_off_c, 2, 69, 0
4, 73724, Note_off_c, 2, 66, 0
4, 73724, Note_off_c, 2, 62, 0
4, 73724, Note_off_c, 2, 60, 0
4, 73728, Note_on_c, 2, 74, 57
4, 73728, Note_on_c, 2, 71, 57
4, 73728, Note_on_c, 2, 67, 57
4, 73916, Note_off_c, 2, 71, 0
4, 73916, Note_off_c, 2, 67, 0
4, 73920, Note_on_c, 2, 71, 57
4, 73920, Note_on_c, 2, 67, 57
4, 74108, Note_off_c, 2, 74, 0
4, 74108, Note_off_c, 2, 71, 0
4, 74108, Note_off_c, 2, 67, 0
4, 74112, Note_on_c, 2, 71, 57
4, 74112, Note_on_c, 2, 67, 57
4, 74112, Note_on_c, 2, 74, 57
4, 74300, Note_off_c, 2, 71, 0
4, 74300, Note_off_c, 2, 67, 0
4, 74304, Note_on_c, 2, 71, 57
4, 74304, Note_on_c, 2, 67, 57
4, 74492, Note_off_c, 2, 71, 0
4, 74492, Note_off_c, 2, 67, 0
4, 74496, Note_on_c, 2, 71, 57
4, 74496, Note_on_c, 2, 67, 57
4, 74684, Note_off_c, 2, 74, 0
4, 74684, Note_off_c, 2, 71, 0
4, 74684, Note_off_c, 2, 67, 0
4, 74688, Note_on_c, 2, 71, 57
4, 74688, Note_on_c, 2, 67, 57
4, 74688, Note_on_c, 2, 76, 57
4, 74876, Note_off_c, 2, 71, 0
4, 74876, Note_off_c, 2, 67, 0
4, 74876, Note_off_c, 2, 76, 0
4, 74880, Note_on_c, 2, 76, 57
4, 74880, Note_on_c, 2, 69, 57
4, 74880, Note_on_c, 2, 66, 57
4, 74972, Note_off_c, 2, 69, 0
4, 74972, Note_off_c, 2, 66, 0
4, 75068, Note_off_c, 2, 76, 0
4, 75072, Note_on_c, 2, 74, 57
4, 75072, Note_on_c, 2, 69, 57
4, 75072, Note_on_c, 2, 66, 57
4, 75164, Note_off_c, 2, 69, 0
4, 75164, Note_off_c, 2, 66, 0
4, 75260, Note_off_c, 2, 74, 0
4, 75264, Note_on_c, 2, 74, 57
4, 75264, Note_on_c, 2, 69, 57
4, 75264, Note_on_c, 2, 66, 57
4, 75356, Note_off_c, 2, 69, 0
4, 75356, Note_off_c, 2, 66, 0
4, 75456, Note_on_c, 2, 69, 57
4, 75456, Note_on_c, 2, 66, 57
4, 75548, Note_off_c, 2, 69, 0
4, 75548, Note_off_c, 2, 66, 0
4, 75648, Note_on_c, 2, 69, 57
4, 75648, Note_on_c, 2, 66, 57
4, 75740, Note_off_c, 2, 69, 0
4, 75740, Note_off_c, 2, 66, 0
4, 75836, Note_off_c, 2, 74, 0
4, 75840, Note_on_c, 2, 74, 57
4, 75840, Note_on_c, 2, 69, 57
4, 75840, Note_on_c, 2, 66, 57
4, 75932, Note_off_c, 2, 69, 0
4, 75932, Note_off_c, 2, 66, 0
4, 76028, Note_off_c, 2, 74, 0
4, 76032, Note_on_c, 2, 74, 57
4, 76032, Note_on_c, 2, 67, 57
4, 76032, Note_on_c, 2, 64, 57
4, 76124, Note_off_c, 2, 67, 0
4, 76124, Note_off_c, 2, 64, 0
4, 76220, Note_off_c, 2, 74, 0
4, 76224, Note_on_c, 2, 67, 57
4, 76224, Note_on_c, 2, 64, 57
4, 76224, Note_on_c, 2, 73, 57
4, 76316, Note_off_c, 2, 67, 0
4, 76316, Note_off_c, 2, 64, 0
4, 76412, Note_off_c, 2, 73, 0
4, 76416, Note_on_c, 2, 73, 57
4, 76416, Note_on_c, 2, 83, 57
4, 76416, Note_on_c, 2, 67, 57
4, 76416, Note_on_c, 2, 64, 57
4, 76416, Note_on_c, 2, 57, 57
4, 76508, Note_off_c, 2, 73, 0
4, 76508, Note_off_c, 2, 67, 0
4, 76508, Note_off_c, 2, 64, 0
4, 76508, Note_off_c, 2, 57, 0
4, 76608, Note_on_c, 2, 73, 57
4, 76608, Note_on_c, 2, 67, 57
4, 76608, Note_on_c, 2, 64, 57
4, 76608, Note_on_c, 2, 57, 57
4, 76700, Note_off_c, 2, 73, 0
4, 76700, Note_off_c, 2, 67, 0
4, 76700, Note_off_c, 2, 64, 0
4, 76700, Note_off_c, 2, 57, 0
4, 76800, Note_on_c, 2, 73, 57
4, 76800, Note_on_c, 2, 67, 57
4, 76800, Note_on_c, 2, 57, 57
4, 76800, Note_on_c, 2, 64, 57
4, 76892, Note_off_c, 2, 73, 0
4, 76892, Note_off_c, 2, 67, 0
4, 76892, Note_off_c, 2, 57, 0
4, 76892, Note_off_c, 2, 64, 0
4, 76988, Note_off_c, 2, 83, 0
4, 76992, Note_on_c, 2, 73, 57
4, 76992, Note_on_c, 2, 79, 57
4, 76992, Note_on_c, 2, 67, 57
4, 76992, Note_on_c, 2, 64, 57
4, 76992, Note_on_c, 2, 57, 57
4, 77084, Note_off_c, 2, 73, 0
4, 77084, Note_off_c, 2, 67, 0
4, 77084, Note_off_c, 2, 64, 0
4, 77084, Note_off_c, 2, 57, 0
4, 77180, Note_off_c, 2, 79, 0
4, 77184, Note_on_c, 2, 79, 57
4, 77184, Note_on_c, 2, 73, 57
4, 77184, Note_on_c, 2, 69, 57
4, 77184, Note_on_c, 2, 62, 57
4, 77564, Note_off_c, 2, 73, 0
4, 77568, Note_on_c, 2, 74, 63
4, 77756, Note_off_c, 2, 79, 0
4, 77760, Note_on_c, 2, 78, 60
4, 77852, Note_off_c, 2, 78, 0
4, 77856, Note_on_c, 2, 76, 58
4, 77948, Note_off_c, 2, 76, 0
4, 77952, Note_on_c, 2, 79, 57
4, 78044, Note_off_c, 2, 79, 0
4, 78048, Note_on_c, 2, 78, 54
4, 78140, Note_off_c, 2, 78, 0
4, 78144, Note_on_c, 2, 76, 53
4, 78236, Note_off_c, 2, 76, 0
4, 78240, Note_on_c, 2, 74, 52
4, 78332, Note_off_c, 2, 69, 0
4, 78332, Note_off_c, 2, 62, 0
4, 78332, Note_off_c, 2, 74, 0
4, 78332, Note_off_c, 2, 74, 0
4, 78336, Note_on_c, 2, 74, 48
4, 78336, Note_on_c, 2, 69, 48
4, 78336, Note_on_c, 2, 66, 48
4, 78336, Note_on_c, 2, 62, 48
4, 79100, Note_off_c, 2, 74, 0
4, 79100, Note_off_c, 2, 69, 0
4, 79100, Note_off_c, 2, 66, 0
4, 79100, Note_off_c, 2, 62, 0
4, 85248, Note_on_c, 2, 74, 57
4, 85248, Note_on_c, 2, 69, 57
4, 85248, Note_on_c, 2, 65, 57
4, 85628, Note_off_c, 2, 74, 0
4, 85628, Note_off_c, 2, 69, 0
4, 85628, Note_off_c, 2, 65, 0
4, 85632, Note_on_c, 2, 74, 57
4, 85672, Note_off_c, 2, 74, 64
4, 85680, Note_on_c, 2, 76, 57
4, 85720, Note_off_c, 2, 76, 64
4, 85744, Note_on_c, 2, 74, 57
4, 85776, Note_on_c, 2, 73, 57
4, 85784, Note_off_c, 2, 74, 64
4, 85816, Note_off_c, 2, 73, 64
4, 85824, Note_on_c, 2, 74, 57
4, 85864, Note_off_c, 2, 74, 64
4, 85920, Note_on_c, 2, 76, 57
4, 86012, Note_off_c, 2, 76, 64
4, 86016, Note_on_c, 2, 77, 57
4, 86108, Note_off_c, 2, 77, 0
4, 86208, Note_on_c, 2, 77, 57
4, 86300, Note_off_c, 2, 77, 0
4, 86400, Note_on_c, 2, 76, 57
4, 86400, Note_on_c, 2, 74, 57
4, 86400, Note_on_c, 2, 71, 57
4, 86780, Note_off_c, 2, 76, 0
4, 87548, Note_off_c, 2, 74, 0
4, 87548, Note_off_c, 2, 71, 0
4, 87552, Note_on_c, 2, 72, 57
4, 87552, Note_on_c, 2, 69, 57
4, 87932, Note_off_c, 2, 72, 0
4, 87932, Note_off_c, 2, 69, 0
4, 87936, Note_on_c, 2, 81, 57
4, 87976, Note_off_c, 2, 81, 64
4, 87984, Note_on_c, 2, 83, 57
4, 88024, Note_off_c, 2, 83, 64
4, 88032, Note_on_c, 2, 81, 57
4, 88072, Note_off_c, 2, 81, 64
4, 88080, Note_on_c, 2, 80, 57
4, 88120, Note_off_c, 2, 80, 64
4, 88128, Note_on_c, 2, 81, 57
4, 88168, Note_off_c, 2, 81, 64
4, 88224, Note_on_c, 2, 83, 57
4, 88316, Note_off_c, 2, 83, 0
4, 88320, Note_on_c, 2, 84, 57
4, 88412, Note_off_c, 2, 84, 0
4, 88512, Note_on_c, 2, 84, 57
4, 88604, Note_off_c, 2, 84, 0
4, 88704, Note_on_c, 2, 66, 57
4, 88704, Note_on_c, 2, 69, 57
4, 88704, Note_on_c, 2, 71, 57
4, 89852, Note_off_c, 2, 66, 0
4, 89852, Note_off_c, 2, 69, 0
4, 89852, Note_off_c, 2, 71, 0
4, 89856, Note_on_c, 2, 71, 57
4, 89856, Note_on_c, 2, 67, 57
4, 89856, Note_on_c, 2, 64, 57
4, 90236, Note_off_c, 2, 71, 0
4, 90236, Note_off_c, 2, 67, 0
4, 90236, Note_off_c, 2, 64, 0
4, 90240, Note_on_c, 2, 70, 57
4, 90240, Note_on_c, 2, 76, 57
4, 90524, Note_off_c, 2, 76, 0
4, 90528, Note_on_c, 2, 78, 57
4, 90620, Note_off_c, 2, 70, 0
4, 90620, Note_off_c, 2, 78, 0
4, 90624, Note_on_c, 2, 71, 57
4, 90624, Note_on_c, 2, 79, 57
4, 90716, Note_off_c, 2, 79, 0
4, 90816, Note_on_c, 2, 79, 57
4, 90908, Note_off_c, 2, 79, 0
4, 91004, Note_off_c, 2, 71, 0
4, 91008, Note_on_c, 2, 73, 57
4, 91008, Note_on_c, 2, 66, 57
4, 91008, Note_on_c, 2, 64, 57
4, 92156, Note_off_c, 2, 73, 0
4, 92156, Note_off_c, 2, 66, 0
4, 92156, Note_off_c, 2, 64, 0
4, 92160, Note_on_c, 2, 71, 57
4, 92160, Note_on_c, 2, 65, 57
4, 92160, Note_on_c, 2, 62, 57
4, 92540, Note_off_c, 2, 71, 0
4, 92540, Note_off_c, 2, 65, 0
4, 92540, Note_off_c, 2, 62, 0
4, 92544, Note_on_c, 2, 83, 57
4, 92584, Note_off_c, 2, 83, 64
4, 92592, Note_on_c, 2, 84, 57
4, 92632, Note_off_c, 2, 84, 64
4, 92640, Note_on_c, 2, 83, 57
4, 92672, Note_on_c, 2, 82, 57
4, 92680, Note_off_c, 2, 83, 64
4, 92712, Note_off_c, 2, 82, 64
4, 92736, Note_on_c, 2, 83, 57
4, 92776, Note_off_c, 2, 83, 64
4, 92832, Note_on_c, 2, 85, 57
4, 92924, Note_off_c, 2, 85, 64
4, 92928, Note_on_c, 2, 86, 57
4, 93020, Note_off_c, 2, 86, 0
4, 93120, Note_on_c, 2, 86, 57
4, 93212, Note_off_c, 2, 86, 0
4, 93312, Note_on_c, 2, 71, 57
4, 93312, Note_on_c, 2, 68, 57
4, 93312, Note_on_c, 2, 73, 57
4, 93692, Note_off_c, 2, 73, 64
4, 94460, Note_off_c, 2, 71, 64
4, 94460, Note_off_c, 2, 68, 64
4, 99264, Note_on_c, 2, 56, 47
4, 99644, Note_off_c, 2, 56, 0
4, 99648, Note_on_c, 2, 60, 47
4, 100028, Note_off_c, 2, 60, 0
4, 100032, Note_on_c, 2, 63, 47
4, 100220, Note_off_c, 2, 63, 0
4, 100416, Note_on_c, 2, 63, 47
4, 100796, Note_off_c, 2, 63, 0
4, 100800, Note_on_c, 2, 68, 47
4, 101180, Note_off_c, 2, 68, 0
4, 101184, Note_on_c, 2, 71, 54
4, 101372, Note_off_c, 2, 71, 0
4, 101568, Note_on_c, 2, 68, 63
4, 101948, Note_off_c, 2, 68, 0
4, 101952, Note_on_c, 2, 71, 72
4, 102332, Note_off_c, 2, 71, 0
4, 102336, Note_on_c, 2, 74, 80
4, 102524, Note_off_c, 2, 74, 0
4, 102720, Note_on_c, 2, 74, 84
4, 103100, Note_off_c, 2, 74, 0
4, 103104, Note_on_c, 2, 77, 84
4, 103484, Note_off_c, 2, 77, 0
4, 103488, Note_on_c, 2, 83, 84
4, 103488, Note_on_c, 2, 77, 84
4, 103488, Note_on_c, 2, 74, 84
4, 103676, Note_off_c, 2, 83, 0
4, 103676, Note_off_c, 2, 77, 0
4, 103676, Note_off_c, 2, 74, 0
4, 103680, Note_on_c, 2, 84, 57
4, 103680, Note_on_c, 2, 76, 57
4, 103680, Note_on_c, 2, 72, 57
4, 104060, Note_off_c, 2, 84, 0
4, 104060, Note_off_c, 2, 76, 0
4, 104060, Note_off_c, 2, 72, 0
4, 109440, Note_on_c, 2, 58, 84
4, 109440, Note_on_c, 2, 55, 84
4, 109628, Note_off_c, 2, 58, 0
4, 109628, Note_off_c, 2, 55, 0
4, 109824, Note_on_c, 2, 70, 57
4, 109824, Note_on_c, 2, 67, 57
4, 109824, Note_on_c, 2, 63, 57
4, 110012, Note_off_c, 2, 70, 0
4, 110012, Note_off_c, 2, 67, 0
4, 110012, Note_off_c, 2, 63, 0
4, 110208, Note_on_c, 2, 79, 57
4, 110208, Note_on_c, 2, 70, 57
4, 110396, Note_off_c, 2, 79, 0
4, 110396, Note_off_c, 2, 70, 0
4, 110592, Note_on_c, 2, 60, 84
4, 110592, Note_on_c, 2, 56, 84
4, 110592, Note_on_c, 2, 53, 84
4, 110780, Note_off_c, 2, 60, 0
4, 110780, Note_off_c, 2, 56, 0
4, 110780, Note_off_c, 2, 53, 0
4, 110976, Note_on_c, 2, 72, 57
4, 110976, Note_on_c, 2, 68, 57
4, 110976, Note_on_c, 2, 65, 57
4, 111164, Note_off_c, 2, 72, 0
4, 111164, Note_off_c, 2, 68, 0
4, 111164, Note_off_c, 2, 65, 0
4, 111360, Note_on_c, 2, 80, 57
4, 111360, Note_on_c, 2, 72, 57
4, 111548, Note_off_c, 2, 80, 0
4, 111548, Note_off_c, 2, 72, 0
4, 111744, Note_on_c, 2, 58, 84
4, 111744, Note_on_c, 2, 56, 84
4, 111744, Note_on_c, 2, 53, 84
4, 111932, Note_off_c, 2, 58, 0
4, 111932, Note_off_c, 2, 56, 0
4, 111932, Note_off_c, 2, 53, 0
4, 112128, Note_on_c, 2, 77, 57
4, 112128, Note_on_c, 2, 70, 57
4, 112128, Note_on_c, 2, 68, 57
4, 112316, Note_off_c, 2, 77, 0
4, 112316, Note_off_c, 2, 70, 0
4, 112316, Note_off_c, 2, 68, 0
4, 112512, Note_on_c, 2, 80, 57
4, 112512, Note_on_c, 2, 77, 57
4, 112892, Note_off_c, 2, 80, 0
4, 112892, Note_off_c, 2, 77, 0
4, 112896, Note_on_c, 2, 58, 84
4, 112896, Note_on_c, 2, 55, 84
4, 113084, Note_off_c, 2, 58, 0
4, 113084, Note_off_c, 2, 55, 0
4, 113280, Note_on_c, 2, 79, 57
4, 113280, Note_on_c, 2, 75, 57
4, 113280, Note_on_c, 2, 70, 57
4, 113468, Note_off_c, 2, 79, 0
4, 113468, Note_off_c, 2, 75, 0
4, 113468, Note_off_c, 2, 70, 0
4, 113664, Note_on_c, 2, 79, 57
4, 113664, Note_on_c, 2, 82, 57
4, 113852, Note_off_c, 2, 79, 0
4, 113852, Note_off_c, 2, 82, 0
4, 114048, Note_on_c, 2, 83, 57
4, 114048, Note_on_c, 2, 71, 57
4, 115196, Note_off_c, 2, 83, 0
4, 115196, Note_off_c, 2, 71, 0
4, 115200, Note_on_c, 2, 84, 57
4, 115200, Note_on_c, 2, 72, 57
4, 115964, Note_off_c, 2, 84, 0
4, 115964, Note_off_c, 2, 72, 0
4, 115968, Note_on_c, 2, 79, 57
4, 115968, Note_on_c, 2, 67, 57
4, 116348, Note_off_c, 2, 79, 0
4, 116348, Note_off_c, 2, 67, 0
4, 116352, Note_on_c, 2, 75, 57
4, 116352, Note_on_c, 2, 63, 57
4, 117116, Note_off_c, 2, 75, 0
4, 117116, Note_off_c, 2, 63, 0
4, 117120, Note_on_c, 2, 72, 57
4, 117120, Note_on_c, 2, 63, 57
4, 117308, Note_off_c, 2, 72, 0
4, 117308, Note_off_c, 2, 63, 0
4, 117312, Note_on_c, 2, 63, 57
4, 117312, Note_on_c, 2, 60, 57
4, 117500, Note_off_c, 2, 63, 0
4, 117500, Note_off_c, 2, 60, 0
4, 117504, Note_on_c, 2, 63, 57
4, 117504, Note_on_c, 2, 60, 57
4, 117692, Note_off_c, 2, 63, 0
4, 117692, Note_off_c, 2, 60, 0
4, 117696, Note_on_c, 2, 55, 57
4, 117884, Note_off_c, 2, 55, 0
4, 117888, Note_on_c, 2, 62, 57
4, 117888, Note_on_c, 2, 59, 57
4, 118076, Note_off_c, 2, 62, 0
4, 118076, Note_off_c, 2, 59, 0
4, 118080, Note_on_c, 2, 55, 57
4, 118268, Note_off_c, 2, 55, 0
4, 118272, Note_on_c, 2, 59, 57
4, 118460, Note_off_c, 2, 59, 0
4, 118464, Note_on_c, 2, 62, 57
4, 118652, Note_off_c, 2, 62, 0
4, 118656, Note_on_c, 2, 67, 57
4, 119228, Note_off_c, 2, 67, 0
4, 119232, Note_on_c, 2, 67, 57
4, 119232, Note_on_c, 2, 64, 57
4, 119372, Note_off_c, 2, 64, 0
4, 119376, Note_on_c, 2, 60, 57
4, 119420, Note_off_c, 2, 67, 0
4, 119420, Note_off_c, 2, 60, 0
4, 119424, Note_on_c, 2, 71, 57
4, 119424, Note_on_c, 2, 65, 57
4, 119612, Note_off_c, 2, 71, 0
4, 119612, Note_off_c, 2, 65, 0
4, 119616, Note_on_c, 2, 74, 57
4, 119616, Note_on_c, 2, 65, 57
4, 119804, Note_off_c, 2, 74, 0
4, 119804, Note_off_c, 2, 65, 0
4, 119808, Note_on_c, 2, 79, 57
4, 120380, Note_off_c, 2, 79, 0
4, 120384, Note_on_c, 2, 79, 57
4, 120384, Note_on_c, 2, 76, 57
4, 120524, Note_off_c, 2, 76, 0
4, 120528, Note_on_c, 2, 72, 57
4, 120572, Note_off_c, 2, 79, 0
4, 120572, Note_off_c, 2, 72, 0
4, 120576, Note_on_c, 2, 81, 57
4, 120576, Note_on_c, 2, 77, 57
4, 120668, Note_off_c, 2, 77, 0
4, 120764, Note_off_c, 2, 81, 0
4, 120768, Note_on_c, 2, 83, 57
4, 120768, Note_on_c, 2, 77, 57
4, 120860, Note_off_c, 2, 77, 0
4, 120956, Note_off_c, 2, 83, 0
4, 120960, Note_on_c, 2, 75, 57
4, 120960, Note_on_c, 2, 84, 57
4, 121148, Note_off_c, 2, 75, 0
4, 121152, Note_on_c, 2, 76, 57
4, 121340, Note_off_c, 2, 76, 0
4, 121360, Note_on_c, 2, 76, 57
4, 121436, Note_off_c, 2, 84, 0
4, 121440, Note_on_c, 2, 84, 57
4, 121532, Note_off_c, 2, 84, 0
4, 121536, Note_on_c, 2, 86, 57
4, 121628, Note_off_c, 2, 86, 0
4, 121632, Note_on_c, 2, 84, 57
4, 121724, Note_off_c, 2, 84, 0
4, 121728, Note_on_c, 2, 82, 57
4, 121776, Note_off_c, 2, 82, 0
4, 121824, Note_on_c, 2, 82, 57
4, 121916, Note_off_c, 2, 82, 0
4, 121920, Note_on_c, 2, 84, 57
4, 122012, Note_off_c, 2, 84, 0
4, 122016, Note_on_c, 2, 82, 57
4, 122108, Note_off_c, 2, 82, 0
4, 122112, Note_on_c, 2, 76, 57
4, 122112, Note_on_c, 2, 80, 57
4, 122124, Note_off_c, 2, 76, 0
4, 122300, Note_off_c, 2, 76, 0
4, 122300, Note_off_c, 2, 80, 0
4, 122304, Note_on_c, 2, 77, 57
4, 122304, Note_on_c, 2, 81, 57
4, 122492, Note_off_c, 2, 77, 0
4, 122588, Note_off_c, 2, 81, 0
4, 122592, Note_on_c, 2, 81, 57
4, 122684, Note_off_c, 2, 81, 0
4, 122688, Note_on_c, 2, 82, 57
4, 122780, Note_off_c, 2, 82, 0
4, 122784, Note_on_c, 2, 81, 57
4, 122876, Note_off_c, 2, 81, 0
4, 122880, Note_on_c, 2, 79, 57
4, 122928, Note_off_c, 2, 79, 0
4, 122976, Note_on_c, 2, 79, 57
4, 123068, Note_off_c, 2, 79, 0
4, 123072, Note_on_c, 2, 81, 57
4, 123164, Note_off_c, 2, 81, 0
4, 123168, Note_on_c, 2, 79, 57
4, 123260, Note_off_c, 2, 79, 0
4, 123264, Note_on_c, 2, 76, 57
4, 123452, Note_off_c, 2, 76, 0
4, 123456, Note_on_c, 2, 77, 57
4, 123740, Note_off_c, 2, 77, 0
4, 123744, Note_on_c, 2, 77, 57
4, 123836, Note_off_c, 2, 77, 0
4, 123840, Note_on_c, 2, 79, 57
4, 123932, Note_off_c, 2, 79, 0
4, 123936, Note_on_c, 2, 77, 57
4, 124028, Note_off_c, 2, 77, 0
4, 124032, Note_on_c, 2, 76, 57
4, 124080, Note_off_c, 2, 76, 0
4, 124128, Note_on_c, 2, 76, 57
4, 124220, Note_off_c, 2, 76, 0
4, 124224, Note_on_c, 2, 77, 57
4, 124316, Note_off_c, 2, 77, 0
4, 124320, Note_on_c, 2, 76, 57
4, 124412, Note_off_c, 2, 76, 0
4, 124416, Note_on_c, 2, 73, 57
4, 124604, Note_off_c, 2, 73, 0
4, 124608, Note_on_c, 2, 74, 57
4, 124608, Note_on_c, 2, 65, 57
4, 124608, Note_on_c, 2, 62, 57
4, 124796, Note_off_c, 2, 74, 0
4, 124896, Note_on_c, 2, 62, 57
4, 124988, Note_off_c, 2, 62, 0
4, 124992, Note_on_c, 2, 64, 57
4, 125084, Note_off_c, 2, 64, 0
4, 125088, Note_on_c, 2, 62, 57
4, 125180, Note_off_c, 2, 65, 0
4, 125180, Note_off_c, 2, 62, 0
4, 125180, Note_off_c, 2, 62, 0
4, 125184, Note_on_c, 2, 60, 57
4, 125184, Note_on_c, 2, 64, 57
4, 125228, Note_off_c, 2, 60, 0
4, 125264, Note_on_c, 2, 60, 57
4, 125356, Note_off_c, 2, 60, 0
4, 125376, Note_on_c, 2, 62, 57
4, 125440, Note_off_c, 2, 64, 64
4, 125468, Note_off_c, 2, 62, 0
4, 125472, Note_on_c, 2, 60, 57
4, 125564, Note_off_c, 2, 60, 0
4, 125568, Note_on_c, 2, 62, 57
4, 125568, Note_on_c, 2, 57, 57
4, 125948, Note_off_c, 2, 62, 64
4, 125948, Note_off_c, 2, 57, 64
4, 127872, Note_on_c, 2, 79, 84
4, 127872, Note_on_c, 2, 72, 84
4, 127872, Note_on_c, 2, 67, 84
4, 128156, Note_off_c, 2, 72, 0
4, 128156, Note_off_c, 2, 67, 0
4, 128256, Note_on_c, 2, 74, 84
4, 128256, Note_on_c, 2, 71, 84
4, 128256, Note_on_c, 2, 67, 84
4, 128444, Note_off_c, 2, 74, 0
4, 128444, Note_off_c, 2, 71, 0
4, 128444, Note_off_c, 2, 67, 0
4, 128640, Note_on_c, 2, 76, 84
4, 128640, Note_on_c, 2, 72, 84
4, 128640, Note_on_c, 2, 67, 84
4, 128828, Note_off_c, 2, 76, 0
4, 128828, Note_off_c, 2, 72, 0
4, 128828, Note_off_c, 2, 67, 0
4, 129020, Note_off_c, 2, 79, 0
4, 129024, Note_on_c, 2, 77, 84
4, 129024, Note_on_c, 2, 79, 84
4, 129024, Note_on_c, 2, 74, 84
4, 129024, Note_on_c, 2, 67, 84
4, 129216, Note_on_c, 2, 86, 84
4, 129216, Note_on_c, 2, 83, 84
4, 129308, Note_off_c, 2, 77, 0
4, 129308, Note_off_c, 2, 79, 0
4, 129308, Note_off_c, 2, 74, 0
4, 129308, Note_off_c, 2, 67, 0
4, 129308, Note_off_c, 2, 86, 0
4, 129308, Note_off_c, 2, 83, 0
4, 129312, Note_on_c, 2, 81, 84
4, 129312, Note_on_c, 2, 84, 84
4, 129404, Note_off_c, 2, 81, 0
4, 129404, Note_off_c, 2, 84, 0
4, 129408, Note_on_c, 2, 79, 57
4, 129408, Note_on_c, 2, 83, 57
4, 129500, Note_off_c, 2, 79, 0
4, 129500, Note_off_c, 2, 83, 0
4, 129504, Note_on_c, 2, 77, 57
4, 129504, Note_on_c, 2, 81, 57
4, 129504, Note_on_c, 2, 55, 57
4, 129596, Note_off_c, 2, 77, 0
4, 129596, Note_off_c, 2, 81, 0
4, 129596, Note_off_c, 2, 55, 0
4, 129600, Note_on_c, 2, 76, 57
4, 129600, Note_on_c, 2, 79, 57
4, 129600, Note_on_c, 2, 57, 57
4, 129692, Note_off_c, 2, 76, 0
4, 129692, Note_off_c, 2, 79, 0
4, 129692, Note_off_c, 2, 57, 0
4, 129696, Note_on_c, 2, 74, 57
4, 129696, Note_on_c, 2, 77, 57
4, 129696, Note_on_c, 2, 59, 57
4, 129788, Note_off_c, 2, 74, 0
4, 129788, Note_off_c, 2, 77, 0
4, 129788, Note_off_c, 2, 59, 0
4, 129792, Note_on_c, 2, 76, 57
4, 129792, Note_on_c, 2, 72, 57
4, 129792, Note_on_c, 2, 60, 57
4, 129884, Note_off_c, 2, 76, 0
4, 129884, Note_off_c, 2, 72, 0
4, 129888, Note_on_c, 2, 77, 57
4, 129888, Note_on_c, 2, 74, 57
4, 129980, Note_off_c, 2, 60, 0
4, 129980, Note_off_c, 2, 77, 0
4, 129980, Note_off_c, 2, 74, 0
4, 129984, Note_on_c, 2, 79, 57
4, 129984, Note_on_c, 2, 76, 57
4, 129984, Note_on_c, 2, 60, 57
4, 130076, Note_off_c, 2, 79, 0
4, 130076, Note_off_c, 2, 76, 0
4, 130080, Note_on_c, 2, 80, 57
4, 130080, Note_on_c, 2, 76, 57
4, 130172, Note_off_c, 2, 60, 0
4, 130172, Note_off_c, 2, 80, 0
4, 130172, Note_off_c, 2, 76, 0
4, 130176, Note_on_c, 2, 77, 57
4, 130176, Note_on_c, 2, 81, 57
4, 130176, Note_on_c, 2, 65, 57
4, 130268, Note_off_c, 2, 77, 0
4, 130268, Note_off_c, 2, 81, 0
4, 130272, Note_on_c, 2, 81, 57
4, 130272, Note_on_c, 2, 84, 57
4, 130364, Note_off_c, 2, 65, 0
4, 130364, Note_off_c, 2, 81, 0
4, 130364, Note_off_c, 2, 84, 0
4, 130368, Note_on_c, 2, 83, 57
4, 130368, Note_on_c, 2, 79, 57
4, 130368, Note_on_c, 2, 65, 57
4, 130412, Note_off_c, 2, 83, 0
4, 130412, Note_off_c, 2, 79, 0
4, 130416, Note_on_c, 2, 81, 57
4, 130416, Note_on_c, 2, 77, 57
4, 130460, Note_off_c, 2, 81, 0
4, 130460, Note_off_c, 2, 77, 0
4, 130464, Note_on_c, 2, 79, 57
4, 130464, Note_on_c, 2, 76, 57
4, 130508, Note_off_c, 2, 79, 0
4, 130508, Note_off_c, 2, 76, 0
4, 130512, Note_on_c, 2, 77, 57
4, 130512, Note_on_c, 2, 74, 57
4, 130556, Note_off_c, 2, 65, 0
4, 130556, Note_off_c, 2, 77, 0
4, 130556, Note_off_c, 2, 74, 0
4, 130560, Note_on_c, 2, 76, 57
4, 130560, Note_on_c, 2, 72, 57
4, 130560, Note_on_c, 2, 67, 57
4, 130748, Note_off_c, 2, 67, 0
4, 130752, Note_on_c, 2, 67, 57
4, 130940, Note_off_c, 2, 76, 0
4, 130940, Note_off_c, 2, 72, 0
4, 130940, Note_off_c, 2, 67, 0
4, 130944, Note_on_c, 2, 74, 57
4, 130944, Note_on_c, 2, 71, 57
4, 130944, Note_on_c, 2, 67, 57
4, 130944, Note_on_c, 2, 65, 57
4, 131132, Note_off_c, 2, 67, 0
4, 131132, Note_off_c, 2, 65, 0
4, 131136, Note_on_c, 2, 67, 57
4, 131136, Note_on_c, 2, 65, 57
4, 131324, Note_off_c, 2, 74, 0
4, 131324, Note_off_c, 2, 71, 0
4, 131324, Note_off_c, 2, 67, 0
4, 131324, Note_off_c, 2, 65, 0
4, 131328, Note_on_c, 2, 79, 84
4, 131328, Note_on_c, 2, 72, 84
4, 131328, Note_on_c, 2, 67, 84
4, 131612, Note_off_c, 2, 72, 0
4, 131612, Note_off_c, 2, 67, 0
4, 131712, Note_on_c, 2, 74, 84
4, 131712, Note_on_c, 2, 71, 84
4, 131712, Note_on_c, 2, 67, 84
4, 131900, Note_off_c, 2, 74, 0
4, 131900, Note_off_c, 2, 71, 0
4, 131900, Note_off_c, 2, 67, 0
4, 132096, Note_on_c, 2, 72, 84
4, 132096, Note_on_c, 2, 67, 84
4, 132096, Note_on_c, 2, 76, 84
4, 132284, Note_off_c, 2, 72, 0
4, 132284, Note_off_c, 2, 67, 0
4, 132284, Note_off_c, 2, 76, 0
4, 132476, Note_off_c, 2, 79, 0
4, 132480, Note_on_c, 2, 79, 84
4, 132480, Note_on_c, 2, 77, 84
4, 132480, Note_on_c, 2, 74, 84
4, 132668, Note_off_c, 2, 79, 0
4, 132860, Note_off_c, 2, 77, 0
4, 132860, Note_off_c, 2, 74, 0
4, 133824, Note_on_c, 2, 60, 57
4, 133824, Note_on_c, 2, 57, 57
4, 134204, Note_off_c, 2, 60, 0
4, 134204, Note_off_c, 2, 57, 0
4, 134208, Note_on_c, 2, 57, 57
4, 134208, Note_on_c, 2, 60, 57
4, 134588, Note_off_c, 2, 57, 0
4, 134588, Note_off_c, 2, 60, 0
4, 134592, Note_on_c, 2, 60, 57
4, 134592, Note_on_c, 2, 57, 57
4, 134780, Note_off_c, 2, 60, 0
4, 134780, Note_off_c, 2, 57, 0
4, 134976, Note_on_c, 2, 57, 57
4, 134976, Note_on_c, 2, 62, 57
4, 134976, Note_on_c, 2, 60, 57
4, 135356, Note_off_c, 2, 57, 0
4, 135356, Note_off_c, 2, 62, 0
4, 135356, Note_off_c, 2, 60, 0
4, 135360, Note_on_c, 2, 62, 57
4, 135360, Note_on_c, 2, 60, 57
4, 135360, Note_on_c, 2, 57, 57
4, 135740, Note_off_c, 2, 62, 0
4, 135740, Note_off_c, 2, 60, 0
4, 135740, Note_off_c, 2, 57, 0
4, 135744, Note_on_c, 2, 62, 57
4, 135744, Note_on_c, 2, 60, 57
4, 135744, Note_on_c, 2, 57, 57
4, 135932, Note_off_c, 2, 62, 0
4, 135932, Note_off_c, 2, 60, 0
4, 135932, Note_off_c, 2, 57, 0
4, 135936, Note_on_c, 2, 64, 57
4, 135936, Note_on_c, 2, 60, 57
4, 135936, Note_on_c, 2, 55, 57
4, 136028, Note_off_c, 2, 64, 0
4, 136028, Note_off_c, 2, 60, 0
4, 136028, Note_off_c, 2, 55, 0
4, 136032, Note_on_c, 2, 64, 57
4, 136032, Note_on_c, 2, 60, 57
4, 136032, Note_on_c, 2, 55, 57
4, 136124, Note_off_c, 2, 64, 0
4, 136124, Note_off_c, 2, 60, 0
4, 136124, Note_off_c, 2, 55, 0
4, 136128, Note_on_c, 2, 64, 57
4, 136128, Note_on_c, 2, 60, 57
4, 136128, Note_on_c, 2, 55, 57
4, 136220, Note_off_c, 2, 64, 0
4, 136220, Note_off_c, 2, 60, 0
4, 136220, Note_off_c, 2, 55, 0
4, 136224, Note_on_c, 2, 64, 57
4, 136224, Note_on_c, 2, 60, 57
4, 136224, Note_on_c, 2, 55, 57
4, 136316, Note_off_c, 2, 64, 0
4, 136316, Note_off_c, 2, 60, 0
4, 136316, Note_off_c, 2, 55, 0
4, 136320, Note_on_c, 2, 64, 57
4, 136320, Note_on_c, 2, 60, 57
4, 136320, Note_on_c, 2, 55, 57
4, 136412, Note_off_c, 2, 64, 0
4, 136412, Note_off_c, 2, 60, 0
4, 136412, Note_off_c, 2, 55, 0
4, 136416, Note_on_c, 2, 64, 57
4, 136416, Note_on_c, 2, 60, 57
4, 136416, Note_on_c, 2, 55, 57
4, 136508, Note_off_c, 2, 64, 0
4, 136508, Note_off_c, 2, 60, 0
4, 136508, Note_off_c, 2, 55, 0
4, 136512, Note_on_c, 2, 64, 57
4, 136512, Note_on_c, 2, 60, 57
4, 136512, Note_on_c, 2, 55, 57
4, 136604, Note_off_c, 2, 64, 0
4, 136604, Note_off_c, 2, 60, 0
4, 136604, Note_off_c, 2, 55, 0
4, 136608, Note_on_c, 2, 64, 57
4, 136608, Note_on_c, 2, 60, 57
4, 136608, Note_on_c, 2, 55, 57
4, 136700, Note_off_c, 2, 64, 0
4, 136700, Note_off_c, 2, 60, 0
4, 136700, Note_off_c, 2, 55, 0
4, 136704, Note_on_c, 2, 64, 57
4, 136704, Note_on_c, 2, 60, 57
4, 136704, Note_on_c, 2, 55, 57
4, 136796, Note_off_c, 2, 64, 0
4, 136796, Note_off_c, 2, 60, 0
4, 136796, Note_off_c, 2, 55, 0
4, 136800, Note_on_c, 2, 64, 57
4, 136800, Note_on_c, 2, 60, 57
4, 136800, Note_on_c, 2, 55, 57
4, 136892, Note_off_c, 2, 64, 0
4, 136892, Note_off_c, 2, 60, 0
4, 136892, Note_off_c, 2, 55, 0
4, 136896, Note_on_c, 2, 64, 57
4, 136896, Note_on_c, 2, 60, 57
4, 136896, Note_on_c, 2, 55, 57
4, 136988, Note_off_c, 2, 64, 0
4, 136988, Note_off_c, 2, 60, 0
4, 136988, Note_off_c, 2, 55, 0
4, 136992, Note_on_c, 2, 64, 57
4, 136992, Note_on_c, 2, 60, 57
4, 136992, Note_on_c, 2, 55, 57
4, 137084, Note_off_c, 2, 64, 0
4, 137084, Note_off_c, 2, 60, 0
4, 137084, Note_off_c, 2, 55, 0
4, 137088, Note_on_c, 2, 62, 57
4, 137088, Note_on_c, 2, 59, 57
4, 137088, Note_on_c, 2, 55, 57
4, 137088, Note_on_c, 2, 53, 57
4, 137180, Note_off_c, 2, 62, 0
4, 137180, Note_off_c, 2, 59, 0
4, 137180, Note_off_c, 2, 55, 0
4, 137180, Note_off_c, 2, 53, 0
4, 137184, Note_on_c, 2, 62, 58
4, 137184, Note_on_c, 2, 59, 58
4, 137184, Note_on_c, 2, 55, 58
4, 137184, Note_on_c, 2, 53, 58
4, 137276, Note_off_c, 2, 62, 0
4, 137276, Note_off_c, 2, 59, 0
4, 137276, Note_off_c, 2, 55, 0
4, 137276, Note_off_c, 2, 53, 0
4, 137280, Note_on_c, 2, 62, 60
4, 137280, Note_on_c, 2, 59, 60
4, 137280, Note_on_c, 2, 55, 60
4, 137280, Note_on_c, 2, 53, 60
4, 137372, Note_off_c, 2, 62, 0
4, 137372, Note_off_c, 2, 59, 0
4, 137372, Note_off_c, 2, 55, 0
4, 137372, Note_off_c, 2, 53, 0
4, 137376, Note_on_c, 2, 62, 63
4, 137376, Note_on_c, 2, 59, 63
4, 137376, Note_on_c, 2, 55, 63
4, 137376, Note_on_c, 2, 53, 63
4, 137468, Note_off_c, 2, 62, 0
4, 137468, Note_off_c, 2, 59, 0
4, 137468, Note_off_c, 2, 55, 0
4, 137468, Note_off_c, 2, 53, 0
4, 137472, Note_on_c, 2, 62, 64
4, 137472, Note_on_c, 2, 59, 64
4, 137472, Note_on_c, 2, 55, 64
4, 137472, Note_on_c, 2, 53, 64
4, 137564, Note_off_c, 2, 62, 0
4, 137564, Note_off_c, 2, 59, 0
4, 137564, Note_off_c, 2, 55, 0
4, 137564, Note_off_c, 2, 53, 0
4, 137568, Note_on_c, 2, 62, 66
4, 137568, Note_on_c, 2, 59, 66
4, 137568, Note_on_c, 2, 55, 66
4, 137568, Note_on_c, 2, 53, 66
4, 137660, Note_off_c, 2, 62, 0
4, 137660, Note_off_c, 2, 59, 0
4, 137660, Note_off_c, 2, 55, 0
4, 137660, Note_off_c, 2, 53, 0
4, 137664, Note_on_c, 2, 62, 68
4, 137664, Note_on_c, 2, 59, 68
4, 137664, Note_on_c, 2, 55, 68
4, 137664, Note_on_c, 2, 53, 68
4, 137756, Note_off_c, 2, 62, 0
4, 137756, Note_off_c, 2, 59, 0
4, 137756, Note_off_c, 2, 55, 0
4, 137756, Note_off_c, 2, 53, 0
4, 137760, Note_on_c, 2, 62, 69
4, 137760, Note_on_c, 2, 59, 69
4, 137760, Note_on_c, 2, 55, 69
4, 137760, Note_on_c, 2, 53, 69
4, 137852, Note_off_c, 2, 62, 0
4, 137852, Note_off_c, 2, 59, 0
4, 137852, Note_off_c, 2, 55, 0
4, 137852, Note_off_c, 2, 53, 0
4, 137856, Note_on_c, 2, 62, 71
4, 137856, Note_on_c, 2, 59, 71
4, 137856, Note_on_c, 2, 55, 71
4, 137856, Note_on_c, 2, 53, 71
4, 137948, Note_off_c, 2, 62, 0
4, 137948, Note_off_c, 2, 59, 0
4, 137948, Note_off_c, 2, 55, 0
4, 137948, Note_off_c, 2, 53, 0
4, 137952, Note_on_c, 2, 62, 73
4, 137952, Note_on_c, 2, 59, 73
4, 137952, Note_on_c, 2, 55, 73
4, 137952, Note_on_c, 2, 53, 73
4, 138044, Note_off_c, 2, 62, 0
4, 138044, Note_off_c, 2, 59, 0
4, 138044, Note_off_c, 2, 55, 0
4, 138044, Note_off_c, 2, 53, 0
4, 138048, Note_on_c, 2, 62, 74
4, 138048, Note_on_c, 2, 59, 74
4, 138048, Note_on_c, 2, 55, 74
4, 138048, Note_on_c, 2, 53, 74
4, 138140, Note_off_c, 2, 62, 0
4, 138140, Note_off_c, 2, 59, 0
4, 138140, Note_off_c, 2, 55, 0
4, 138140, Note_off_c, 2, 53, 0
4, 138144, Note_on_c, 2, 62, 76
4, 138144, Note_on_c, 2, 59, 76
4, 138144, Note_on_c, 2, 55, 76
4, 138144, Note_on_c, 2, 53, 76
4, 138236, Note_off_c, 2, 62, 0
4, 138236, Note_off_c, 2, 59, 0
4, 138236, Note_off_c, 2, 55, 0
4, 138236, Note_off_c, 2, 53, 0
4, 138240, Note_on_c, 2, 60, 84
4, 138240, Note_on_c, 2, 55, 84
4, 138240, Note_on_c, 2, 52, 84
4, 138428, Note_off_c, 2, 60, 0
4, 138428, Note_off_c, 2, 55, 0
4, 138428, Note_off_c, 2, 52, 0
4, 138432, Note_on_c, 2, 76, 84
4, 138432, Note_on_c, 2, 64, 84
4, 138620, Note_off_c, 2, 76, 0
4, 138620, Note_off_c, 2, 64, 0
4, 138624, Note_on_c, 2, 77, 84
4, 138624, Note_on_c, 2, 65, 84
4, 138624, Note_on_c, 2, 72, 84
4, 138812, Note_off_c, 2, 77, 0
4, 138812, Note_off_c, 2, 65, 0
4, 138816, Note_on_c, 2, 78, 84
4, 138816, Note_on_c, 2, 66, 84
4, 139004, Note_off_c, 2, 78, 0
4, 139004, Note_off_c, 2, 66, 0
4, 139008, Note_on_c, 2, 79, 84
4, 139008, Note_on_c, 2, 67, 84
4, 139196, Note_off_c, 2, 79, 0
4, 139196, Note_off_c, 2, 67, 0
4, 139200, Note_on_c, 2, 80, 84
4, 139200, Note_on_c, 2, 68, 84
4, 139388, Note_off_c, 2, 72, 0
4, 139388, Note_off_c, 2, 80, 0
4, 139388, Note_off_c, 2, 68, 0
4, 139392, Note_on_c, 2, 81, 81
4, 139392, Note_on_c, 2, 72, 81
4, 139392, Note_on_c, 2, 69, 81
4, 139580, Note_off_c, 2, 81, 0
4, 139580, Note_off_c, 2, 72, 0
4, 139580, Note_off_c, 2, 69, 0
4, 139584, Note_on_c, 2, 72, 78
4, 139584, Note_on_c, 2, 81, 78
4, 139584, Note_on_c, 2, 84, 78
4, 139964, Note_off_c, 2, 72, 0
4, 139964, Note_off_c, 2, 81, 0
4, 139964, Note_off_c, 2, 84, 0
4, 139968, Note_on_c, 2, 79, 70
4, 139968, Note_on_c, 2, 72, 70
4, 139968, Note_on_c, 2, 84, 70
4, 140348, Note_off_c, 2, 79, 0
4, 140348, Note_off_c, 2, 72, 0
4, 140348, Note_off_c, 2, 84, 0
4, 140352, Note_on_c, 2, 84, 61
4, 140352, Note_on_c, 2, 77, 61
4, 140352, Note_on_c, 2, 72, 61
4, 140540, Note_off_c, 2, 84, 0
4, 140540, Note_off_c, 2, 77, 0
4, 140540, Note_off_c, 2, 72, 0
4, 140544, Note_on_c, 2, 84, 57
4, 140544, Note_on_c, 2, 76, 57
4, 140544, Note_on_c, 2, 72, 57
4, 141308, Note_off_c, 2, 84, 0
4, 141308, Note_off_c, 2, 76, 0
4, 141308, Note_off_c, 2, 72, 0
4, 168192, Note_on_c, 2, 79, 57
4, 168192, Note_on_c, 2, 67, 57
4, 168572, Note_off_c, 2, 79, 0
4, 168572, Note_off_c, 2, 67, 0
4, 168576, Note_on_c, 2, 67, 57
4, 168576, Note_on_c, 2, 79, 57
4, 169148, Note_off_c, 2, 67, 0
4, 169148, Note_off_c, 2, 79, 0
4, 169152, Note_on_c, 2, 81, 57
4, 169152, Note_on_c, 2, 69, 57
4, 169340, Note_off_c, 2, 81, 0
4, 169340, Note_off_c, 2, 69, 0
4, 169344, Note_on_c, 2, 81, 57
4, 169344, Note_on_c, 2, 69, 57
4, 169532, Note_off_c, 2, 81, 0
4, 169532, Note_off_c, 2, 69, 0
4, 169536, Note_on_c, 2, 79, 57
4, 169536, Note_on_c, 2, 67, 57
4, 169724, Note_off_c, 2, 79, 0
4, 169724, Note_off_c, 2, 67, 0
4, 169728, Note_on_c, 2, 79, 57
4, 169728, Note_on_c, 2, 67, 57
4, 170300, Note_off_c, 2, 79, 0
4, 170300, Note_off_c, 2, 67, 0
4, 170304, Note_on_c, 2, 79, 57
4, 170304, Note_on_c, 2, 67, 57
4, 170492, Note_off_c, 2, 79, 0
4, 170492, Note_off_c, 2, 67, 0
4, 170496, Note_on_c, 2, 79, 57
4, 170496, Note_on_c, 2, 67, 57
4, 170684, Note_off_c, 2, 79, 0
4, 170684, Note_off_c, 2, 67, 0
4, 170688, Note_on_c, 2, 78, 57
4, 170688, Note_on_c, 2, 66, 57
4, 170876, Note_off_c, 2, 78, 0
4, 170876, Note_off_c, 2, 66, 0
4, 170880, Note_on_c, 2, 87, 57
4, 170880, Note_on_c, 2, 75, 57
4, 171452, Note_off_c, 2, 87, 0
4, 171452, Note_off_c, 2, 75, 0
4, 171456, Note_on_c, 2, 84, 57
4, 171456, Note_on_c, 2, 72, 57
4, 171644, Note_off_c, 2, 84, 0
4, 171648, Note_on_c, 2, 84, 57
4, 171648, Note_on_c, 2, 72, 57
4, 171652, Note_off_c, 2, 72, 0
4, 172028, Note_off_c, 2, 84, 0
4, 172028, Note_off_c, 2, 72, 0
4, 172032, Note_on_c, 2, 83, 57
4, 172032, Note_on_c, 2, 71, 57
4, 172412, Note_off_c, 2, 83, 0
4, 172412, Note_off_c, 2, 71, 0
4, 172416, Note_on_c, 2, 82, 57
4, 172416, Note_on_c, 2, 70, 57
4, 172796, Note_off_c, 2, 82, 0
4, 172796, Note_off_c, 2, 70, 0
4, 172800, Note_on_c, 2, 81, 57
4, 172800, Note_on_c, 2, 69, 57
4, 173180, Note_off_c, 2, 81, 0
4, 173180, Note_off_c, 2, 69, 0
4, 176256, Note_on_c, 2, 76, 57
4, 176256, Note_on_c, 2, 67, 57
4, 177020, Note_off_c, 2, 76, 0
4, 177020, Note_off_c, 2, 67, 0
4, 177024, Note_on_c, 2, 75, 57
4, 177024, Note_on_c, 2, 66, 57
4, 177404, Note_off_c, 2, 75, 0
4, 177404, Note_off_c, 2, 66, 0
4, 177408, Note_on_c, 2, 74, 57
4, 177408, Note_on_c, 2, 65, 57
4, 177696, Note_on_c, 2, 75, 57
4, 177696, Note_on_c, 2, 67, 57
4, 177788, Note_off_c, 2, 75, 0
4, 177788, Note_off_c, 2, 67, 0
4, 177792, Note_on_c, 2, 77, 57
4, 177792, Note_on_c, 2, 68, 57
4, 177980, Note_off_c, 2, 74, 0
4, 177980, Note_off_c, 2, 65, 0
4, 178172, Note_off_c, 2, 77, 0
4, 178172, Note_off_c, 2, 68, 0
4, 178176, Note_on_c, 2, 71, 57
4, 178176, Note_on_c, 2, 62, 57
4, 178556, Note_off_c, 2, 71, 0
4, 178556, Note_off_c, 2, 62, 0
4, 178560, Note_on_c, 2, 72, 57
4, 178576, Note_on_c, 2, 79, 57
4, 178596, Note_on_c, 2, 88, 57
4, 178940, Note_off_c, 2, 72, 0
4, 179328, Note_on_c, 2, 87, 57
4, 179328, Note_on_c, 2, 78, 57
4, 179340, Note_off_c, 2, 79, 0
4, 179360, Note_off_c, 2, 88, 0
4, 179708, Note_off_c, 2, 87, 0
4, 179708, Note_off_c, 2, 78, 0
4, 179712, Note_on_c, 2, 86, 57
4, 179712, Note_on_c, 2, 77, 57
4, 179900, Note_off_c, 2, 86, 0
4, 179900, Note_off_c, 2, 77, 0
4, 180000, Note_on_c, 2, 87, 57
4, 180000, Note_on_c, 2, 79, 57
4, 180092, Note_off_c, 2, 87, 0
4, 180092, Note_off_c, 2, 79, 0
4, 180096, Note_on_c, 2, 89, 57
4, 180096, Note_on_c, 2, 80, 57
4, 180476, Note_off_c, 2, 89, 0
4, 180476, Note_off_c, 2, 80, 0
4, 180480, Note_on_c, 2, 83, 57
4, 180480, Note_on_c, 2, 74, 57
4, 180860, Note_off_c, 2, 83, 0
4, 180860, Note_off_c, 2, 74, 0
4, 180864, Note_on_c, 2, 84, 57
4, 180864, Note_on_c, 2, 76, 57
4, 181052, Note_off_c, 2, 84, 0
4, 181052, Note_off_c, 2, 76, 0
4, 181248, Note_on_c, 2, 81, 48
4, 181248, Note_on_c, 2, 69, 48
4, 181436, Note_off_c, 2, 81, 0
4, 181436, Note_off_c, 2, 69, 0
4, 181632, Note_on_c, 2, 83, 48
4, 181632, Note_on_c, 2, 77, 48
4, 181632, Note_on_c, 2, 74, 48
4, 181820, Note_off_c, 2, 83, 0
4, 181820, Note_off_c, 2, 77, 0
4, 181820, Note_off_c, 2, 74, 0
4, 182016, Note_on_c, 2, 83, 48
4, 182016, Note_on_c, 2, 77, 48
4, 182016, Note_on_c, 2, 74, 48
4, 182396, Note_off_c, 2, 83, 0
4, 182396, Note_off_c, 2, 77, 0
4, 182396, Note_off_c, 2, 74, 0
4, 182400, Note_on_c, 2, 76, 48
4, 182400, Note_on_c, 2, 72, 48
4, 182400, Note_on_c, 2, 84, 48
4, 182780, Note_off_c, 2, 76, 0
4, 182780, Note_off_c, 2, 72, 0
4, 182780, Note_off_c, 2, 84, 0
4, 182780, End_track
5, 0, Start_track
5, 0, Title_t, "Midi by:"
5, 0, Control_c, 3, 0, 0
5, 0, Program_c, 3, 48
5, 0, Control_c, 3, 7, 127
5, 0, Control_c, 3, 10, 93
5, 0, Control_c, 3, 91, 34
5, 0, Control_c, 3, 93, 0
5, 0, Key_signature, 0, "major"
5, 0, Control_c, 3, 121, 0
5, 384, Control_c, 3, 10, 73
5, 480, Control_c, 3, 91, 63
5, 672, Program_c, 3, 48
5, 1152, Note_on_c, 3, 60, 63
5, 1152, Note_on_c, 3, 64, 63
5, 1340, Note_off_c, 3, 60, 0
5, 1340, Note_off_c, 3, 64, 0
5, 1344, Note_on_c, 3, 60, 63
5, 1344, Note_on_c, 3, 64, 63
5, 1532, Note_off_c, 3, 60, 0
5, 1532, Note_off_c, 3, 64, 0
5, 1536, Note_on_c, 3, 60, 63
5, 1536, Note_on_c, 3, 64, 63
5, 1724, Note_off_c, 3, 60, 0
5, 1724, Note_off_c, 3, 64, 0
5, 1728, Note_on_c, 3, 60, 63
5, 1728, Note_on_c, 3, 64, 63
5, 1916, Note_off_c, 3, 60, 0
5, 1916, Note_off_c, 3, 64, 0
5, 1920, Note_on_c, 3, 60, 63
5, 1920, Note_on_c, 3, 64, 63
5, 2108, Note_off_c, 3, 60, 0
5, 2108, Note_off_c, 3, 64, 0
5, 2112, Note_on_c, 3, 60, 63
5, 2112, Note_on_c, 3, 64, 63
5, 2300, Note_off_c, 3, 60, 0
5, 2300, Note_off_c, 3, 64, 0
5, 2304, Note_on_c, 3, 59, 63
5, 2304, Note_on_c, 3, 62, 63
5, 2492, Note_off_c, 3, 59, 0
5, 2492, Note_off_c, 3, 62, 0
5, 2496, Note_on_c, 3, 59, 63
5, 2496, Note_on_c, 3, 62, 63
5, 2684, Note_off_c, 3, 59, 0
5, 2684, Note_off_c, 3, 62, 0
5, 2688, Note_on_c, 3, 59, 63
5, 2688, Note_on_c, 3, 62, 63
5, 2876, Note_off_c, 3, 59, 0
5, 2876, Note_off_c, 3, 62, 0
5, 2880, Note_on_c, 3, 59, 63
5, 2880, Note_on_c, 3, 62, 63
5, 3068, Note_off_c, 3, 59, 0
5, 3068, Note_off_c, 3, 62, 0
5, 3072, Note_on_c, 3, 59, 63
5, 3072, Note_on_c, 3, 62, 63
5, 3260, Note_off_c, 3, 59, 0
5, 3260, Note_off_c, 3, 62, 0
5, 3264, Note_on_c, 3, 59, 63
5, 3264, Note_on_c, 3, 62, 63
5, 3452, Note_off_c, 3, 59, 0
5, 3452, Note_off_c, 3, 62, 0
5, 3456, Note_on_c, 3, 57, 63
5, 3456, Note_on_c, 3, 60, 63
5, 3644, Note_off_c, 3, 57, 0
5, 3644, Note_off_c, 3, 60, 0
5, 3648, Note_on_c, 3, 57, 63
5, 3648, Note_on_c, 3, 60, 63
5, 3836, Note_off_c, 3, 57, 0
5, 3836, Note_off_c, 3, 60, 0
5, 3840, Note_on_c, 3, 57, 63
5, 3840, Note_on_c, 3, 60, 63
5, 4028, Note_off_c, 3, 57, 0
5, 4028, Note_off_c, 3, 60, 0
5, 4032, Note_on_c, 3, 57, 63
5, 4032, Note_on_c, 3, 60, 63
5, 4220, Note_off_c, 3, 57, 0
5, 4220, Note_off_c, 3, 60, 0
5, 4224, Note_on_c, 3, 57, 63
5, 4224, Note_on_c, 3, 60, 63
5, 4412, Note_off_c, 3, 57, 0
5, 4412, Note_off_c, 3, 60, 0
5, 4416, Note_on_c, 3, 57, 63
5, 4416, Note_on_c, 3, 60, 63
5, 4604, Note_off_c, 3, 57, 0
5, 4604, Note_off_c, 3, 60, 0
5, 4608, Note_on_c, 3, 62, 63
5, 4608, Note_on_c, 3, 55, 63
5, 5756, Note_off_c, 3, 62, 0
5, 5756, Note_off_c, 3, 55, 0
5, 5760, Note_on_c, 3, 43, 63
5, 6524, Note_off_c, 3, 43, 0
5, 6912, Note_on_c, 3, 52, 63
5, 6912, Note_on_c, 3, 48, 63
5, 7100, Note_off_c, 3, 52, 0
5, 7100, Note_off_c, 3, 48, 0
5, 7104, Note_on_c, 3, 55, 63
5, 7292, Note_off_c, 3, 55, 0
5, 7296, Note_on_c, 3, 60, 63
5, 7296, Note_on_c, 3, 64, 63
5, 7484, Note_off_c, 3, 60, 0
5, 7484, Note_off_c, 3, 64, 0
5, 7488, Note_on_c, 3, 55, 63
5, 7676, Note_off_c, 3, 55, 0
5, 7680, Note_on_c, 3, 62, 63
5, 7680, Note_on_c, 3, 65, 63
5, 7868, Note_off_c, 3, 62, 0
5, 7868, Note_off_c, 3, 65, 0
5, 7872, Note_on_c, 3, 55, 63
5, 8060, Note_off_c, 3, 55, 0
5, 8064, Note_on_c, 3, 64, 63
5, 8064, Note_on_c, 3, 67, 63
5, 8252, Note_off_c, 3, 64, 0
5, 8252, Note_off_c, 3, 67, 0
5, 8256, Note_on_c, 3, 55, 63
5, 8444, Note_off_c, 3, 55, 0
5, 8448, Note_on_c, 3, 64, 63
5, 8448, Note_on_c, 3, 67, 63
5, 8636, Note_off_c, 3, 64, 0
5, 8636, Note_off_c, 3, 67, 0
5, 8640, Note_on_c, 3, 55, 63
5, 8828, Note_off_c, 3, 55, 0
5, 8832, Note_on_c, 3, 64, 63
5, 8832, Note_on_c, 3, 67, 63
5, 9020, Note_off_c, 3, 64, 0
5, 9020, Note_off_c, 3, 67, 0
5, 9024, Note_on_c, 3, 55, 63
5, 9212, Note_off_c, 3, 55, 0
5, 9216, Note_on_c, 3, 62, 63
5, 9216, Note_on_c, 3, 65, 63
5, 9404, Note_off_c, 3, 62, 0
5, 9404, Note_off_c, 3, 65, 0
5, 9408, Note_on_c, 3, 55, 63
5, 9596, Note_off_c, 3, 55, 0
5, 9600, Note_on_c, 3, 60, 63
5, 9600, Note_on_c, 3, 64, 63
5, 9788, Note_off_c, 3, 60, 0
5, 9788, Note_off_c, 3, 64, 0
5, 9792, Note_on_c, 3, 55, 63
5, 9980, Note_off_c, 3, 55, 0
5, 9984, Note_on_c, 3, 60, 63
5, 9984, Note_on_c, 3, 64, 63
5, 10172, Note_off_c, 3, 60, 0
5, 10172, Note_off_c, 3, 64, 0
5, 10176, Note_on_c, 3, 55, 63
5, 10364, Note_off_c, 3, 55, 0
5, 10368, Note_on_c, 3, 64, 63
5, 10368, Note_on_c, 3, 67, 63
5, 10556, Note_off_c, 3, 64, 0
5, 10556, Note_off_c, 3, 67, 0
5, 10560, Note_on_c, 3, 55, 63
5, 10748, Note_off_c, 3, 55, 0
5, 10752, Note_on_c, 3, 60, 63
5, 10752, Note_on_c, 3, 64, 63
5, 10940, Note_off_c, 3, 60, 0
5, 10940, Note_off_c, 3, 64, 0
5, 10944, Note_on_c, 3, 55, 63
5, 11132, Note_off_c, 3, 55, 0
5, 11136, Note_on_c, 3, 64, 63
5, 11136, Note_on_c, 3, 67, 63
5, 11324, Note_off_c, 3, 64, 0
5, 11324, Note_off_c, 3, 67, 0
5, 11328, Note_on_c, 3, 55, 63
5, 11516, Note_off_c, 3, 55, 0
5, 11520, Note_on_c, 3, 64, 63
5, 11520, Note_on_c, 3, 67, 63
5, 11708, Note_off_c, 3, 64, 0
5, 11708, Note_off_c, 3, 67, 0
5, 11712, Note_on_c, 3, 55, 63
5, 11900, Note_off_c, 3, 55, 0
5, 11904, Note_on_c, 3, 60, 63
5, 11904, Note_on_c, 3, 64, 63
5, 12092, Note_off_c, 3, 60, 0
5, 12092, Note_off_c, 3, 64, 0
5, 12096, Note_on_c, 3, 55, 63
5, 12284, Note_off_c, 3, 55, 0
5, 12288, Note_on_c, 3, 59, 63
5, 12288, Note_on_c, 3, 62, 63
5, 12476, Note_off_c, 3, 59, 0
5, 12476, Note_off_c, 3, 62, 0
5, 12480, Note_on_c, 3, 55, 63
5, 12668, Note_off_c, 3, 55, 0
5, 12672, Note_on_c, 3, 60, 63
5, 12860, Note_off_c, 3, 60, 0
5, 12864, Note_on_c, 3, 55, 63
5, 13052, Note_off_c, 3, 55, 0
5, 13056, Note_on_c, 3, 64, 63
5, 13056, Note_on_c, 3, 67, 63
5, 13244, Note_off_c, 3, 64, 0
5, 13244, Note_off_c, 3, 67, 0
5, 13248, Note_on_c, 3, 55, 63
5, 13436, Note_off_c, 3, 55, 0
5, 13440, Note_on_c, 3, 62, 63
5, 13440, Note_on_c, 3, 65, 63
5, 13628, Note_off_c, 3, 62, 0
5, 13628, Note_off_c, 3, 65, 0
5, 13632, Note_on_c, 3, 55, 63
5, 13820, Note_off_c, 3, 55, 0
5, 13824, Note_on_c, 3, 57, 63
5, 14016, Note_on_c, 3, 60, 63
5, 14016, Note_on_c, 3, 64, 63
5, 14204, Note_off_c, 3, 57, 0
5, 14204, Note_off_c, 3, 60, 0
5, 14204, Note_off_c, 3, 64, 0
5, 14208, Note_on_c, 3, 57, 63
5, 14400, Note_on_c, 3, 60, 63
5, 14400, Note_on_c, 3, 64, 63
5, 14588, Note_off_c, 3, 57, 0
5, 14588, Note_off_c, 3, 60, 0
5, 14588, Note_off_c, 3, 64, 0
5, 14592, Note_on_c, 3, 55, 63
5, 14784, Note_on_c, 3, 60, 63
5, 14784, Note_on_c, 3, 64, 63
5, 14972, Note_off_c, 3, 55, 0
5, 14972, Note_off_c, 3, 60, 0
5, 14972, Note_off_c, 3, 64, 0
5, 14976, Note_on_c, 3, 53, 63
5, 15168, Note_on_c, 3, 60, 63
5, 15168, Note_on_c, 3, 65, 63
5, 15356, Note_off_c, 3, 60, 0
5, 15356, Note_off_c, 3, 65, 0
5, 15360, Note_on_c, 3, 57, 63
5, 15360, Note_on_c, 3, 60, 63
5, 15548, Note_off_c, 3, 57, 0
5, 15548, Note_off_c, 3, 60, 0
5, 15552, Note_on_c, 3, 57, 63
5, 15552, Note_on_c, 3, 60, 63
5, 15740, Note_off_c, 3, 53, 0
5, 15740, Note_off_c, 3, 57, 0
5, 15740, Note_off_c, 3, 60, 0
5, 15744, Note_on_c, 3, 61, 63
5, 15744, Note_on_c, 3, 57, 63
5, 15744, Note_on_c, 3, 55, 63
5, 15744, Note_on_c, 3, 52, 63
5, 15932, Note_off_c, 3, 61, 0
5, 15932, Note_off_c, 3, 57, 0
5, 15932, Note_off_c, 3, 55, 0
5, 15936, Note_on_c, 3, 61, 63
5, 15936, Note_on_c, 3, 57, 63
5, 15936, Note_on_c, 3, 55, 63
5, 16124, Note_off_c, 3, 52, 0
5, 16124, Note_off_c, 3, 61, 0
5, 16124, Note_off_c, 3, 57, 0
5, 16124, Note_off_c, 3, 55, 0
5, 16128, Note_on_c, 3, 61, 63
5, 16128, Note_on_c, 3, 50, 63
5, 16316, Note_off_c, 3, 61, 0
5, 16320, Note_on_c, 3, 62, 63
5, 16508, Note_off_c, 3, 50, 0
5, 16508, Note_off_c, 3, 62, 0
5, 16512, Note_on_c, 3, 50, 63
5, 16704, Note_on_c, 3, 57, 63
5, 16704, Note_on_c, 3, 62, 63
5, 16704, Note_on_c, 3, 65, 63
5, 16892, Note_off_c, 3, 50, 0
5, 16892, Note_off_c, 3, 57, 0
5, 16892, Note_off_c, 3, 62, 0
5, 16892, Note_off_c, 3, 65, 0
5, 16896, Note_on_c, 3, 45, 63
5, 17088, Note_on_c, 3, 57, 63
5, 17088, Note_on_c, 3, 61, 63
5, 17088, Note_on_c, 3, 64, 63
5, 17276, Note_off_c, 3, 45, 0
5, 17276, Note_off_c, 3, 57, 0
5, 17276, Note_off_c, 3, 61, 0
5, 17276, Note_off_c, 3, 64, 0
5, 17280, Note_on_c, 3, 67, 63
5, 17280, Note_on_c, 3, 61, 63
5, 17280, Note_on_c, 3, 57, 63
5, 17468, Note_off_c, 3, 67, 0
5, 17468, Note_off_c, 3, 61, 0
5, 17472, Note_on_c, 3, 65, 63
5, 17472, Note_on_c, 3, 62, 63
5, 17660, Note_off_c, 3, 57, 0
5, 17660, Note_off_c, 3, 65, 0
5, 17660, Note_off_c, 3, 62, 0
5, 17664, Note_on_c, 3, 50, 63
5, 17856, Note_on_c, 3, 57, 63
5, 17856, Note_on_c, 3, 62, 63
5, 17856, Note_on_c, 3, 65, 63
5, 18044, Note_off_c, 3, 50, 0
5, 18044, Note_off_c, 3, 57, 0
5, 18044, Note_off_c, 3, 62, 0
5, 18044, Note_off_c, 3, 65, 0
5, 18048, Note_on_c, 3, 50, 63
5, 18240, Note_on_c, 3, 56, 63
5, 18240, Note_on_c, 3, 53, 63
5, 18240, Note_on_c, 3, 50, 63
5, 18428, Note_off_c, 3, 50, 0
5, 18428, Note_off_c, 3, 56, 0
5, 18428, Note_off_c, 3, 53, 0
5, 18428, Note_off_c, 3, 50, 0
5, 18432, Note_on_c, 3, 47, 63
5, 18624, Note_on_c, 3, 55, 63
5, 18624, Note_on_c, 3, 53, 63
5, 18624, Note_on_c, 3, 50, 63
5, 18812, Note_off_c, 3, 47, 0
5, 18812, Note_off_c, 3, 55, 0
5, 18812, Note_off_c, 3, 53, 0
5, 18812, Note_off_c, 3, 50, 0
5, 18816, Note_on_c, 3, 43, 63
5, 19008, Note_on_c, 3, 59, 63
5, 19008, Note_on_c, 3, 53, 63
5, 19008, Note_on_c, 3, 50, 63
5, 19196, Note_off_c, 3, 43, 0
5, 19196, Note_off_c, 3, 59, 0
5, 19196, Note_off_c, 3, 53, 0
5, 19196, Note_off_c, 3, 50, 0
5, 19200, Note_on_c, 3, 48, 63
5, 19392, Note_on_c, 3, 60, 63
5, 19392, Note_on_c, 3, 52, 63
5, 19580, Note_off_c, 3, 48, 0
5, 19580, Note_off_c, 3, 60, 0
5, 19580, Note_off_c, 3, 52, 0
5, 19584, Note_on_c, 3, 60, 63
5, 19584, Note_on_c, 3, 57, 63
5, 19584, Note_on_c, 3, 53, 63
5, 19964, Note_off_c, 3, 60, 0
5, 19964, Note_off_c, 3, 57, 0
5, 19964, Note_off_c, 3, 53, 0
5, 20160, Note_on_c, 3, 50, 71
5, 20348, Note_off_c, 3, 50, 0
5, 20352, Note_on_c, 3, 52, 77
5, 20540, Note_off_c, 3, 52, 0
5, 20544, Note_on_c, 3, 53, 85
5, 20732, Note_off_c, 3, 53, 0
5, 20736, Note_on_c, 3, 54, 92
5, 20828, Note_off_c, 3, 54, 0
5, 20832, Note_on_c, 3, 55, 92
5, 20924, Note_off_c, 3, 55, 0
5, 20928, Note_on_c, 3, 57, 92
5, 21020, Note_off_c, 3, 57, 0
5, 21024, Note_on_c, 3, 55, 92
5, 21116, Note_off_c, 3, 55, 0
5, 21120, Note_on_c, 3, 55, 92
5, 21212, Note_off_c, 3, 55, 0
5, 21312, Note_on_c, 3, 55, 92
5, 21404, Note_off_c, 3, 55, 0
5, 21504, Note_on_c, 3, 54, 92
5, 21644, Note_off_c, 3, 54, 0
5, 21648, Note_on_c, 3, 55, 92
5, 21692, Note_off_c, 3, 55, 0
5, 21696, Note_on_c, 3, 53, 92
5, 21836, Note_off_c, 3, 53, 0
5, 21840, Note_on_c, 3, 55, 92
5, 21884, Note_off_c, 3, 55, 0
5, 21888, Note_on_c, 3, 52, 92
5, 22076, Note_off_c, 3, 52, 0
5, 22080, Note_on_c, 3, 55, 92
5, 22220, Note_off_c, 3, 55, 0
5, 22224, Note_on_c, 3, 60, 92
5, 22268, Note_off_c, 3, 60, 0
5, 22272, Note_on_c, 3, 50, 92
5, 22460, Note_off_c, 3, 50, 0
5, 22464, Note_on_c, 3, 53, 92
5, 22604, Note_off_c, 3, 53, 0
5, 22608, Note_on_c, 3, 59, 92
5, 22652, Note_off_c, 3, 59, 0
5, 22656, Note_on_c, 3, 48, 92
5, 22832, Note_on_c, 3, 52, 92
5, 22844, Note_off_c, 3, 48, 0
5, 22972, Note_off_c, 3, 52, 0
5, 22992, Note_on_c, 3, 55, 92
5, 23036, Note_off_c, 3, 55, 0
5, 23040, Note_on_c, 3, 47, 92
5, 23420, Note_off_c, 3, 47, 0
5, 25344, Note_on_c, 3, 52, 92
5, 25532, Note_off_c, 3, 52, 0
5, 25536, Note_on_c, 3, 55, 92
5, 25676, Note_off_c, 3, 55, 0
5, 25680, Note_on_c, 3, 60, 92
5, 25724, Note_off_c, 3, 60, 0
5, 25728, Note_on_c, 3, 50, 92
5, 25916, Note_off_c, 3, 50, 0
5, 25920, Note_on_c, 3, 53, 92
5, 26060, Note_off_c, 3, 53, 0
5, 26064, Note_on_c, 3, 59, 92
5, 26108, Note_off_c, 3, 59, 0
5, 26112, Note_on_c, 3, 48, 92
5, 26288, Note_on_c, 3, 52, 92
5, 26300, Note_off_c, 3, 48, 0
5, 26428, Note_off_c, 3, 52, 0
5, 26448, Note_on_c, 3, 55, 92
5, 26492, Note_off_c, 3, 55, 0
5, 26496, Note_on_c, 3, 47, 92
5, 26684, Note_off_c, 3, 47, 0
5, 26688, Note_on_c, 3, 59, 63
5, 26780, Note_off_c, 3, 59, 0
5, 26784, Note_on_c, 3, 60, 63
5, 26876, Note_off_c, 3, 60, 0
5, 26880, Note_on_c, 3, 65, 63
5, 26972, Note_off_c, 3, 65, 0
5, 26976, Note_on_c, 3, 64, 63
5, 27068, Note_off_c, 3, 64, 0
5, 27072, Note_on_c, 3, 62, 63
5, 27164, Note_off_c, 3, 62, 0
5, 27168, Note_on_c, 3, 60, 63
5, 27260, Note_off_c, 3, 60, 0
5, 27264, Note_on_c, 3, 59, 63
5, 27356, Note_off_c, 3, 59, 0
5, 27360, Note_on_c, 3, 57, 63
5, 27452, Note_off_c, 3, 57, 0
5, 27456, Note_on_c, 3, 59, 63
5, 27548, Note_off_c, 3, 59, 0
5, 27552, Note_on_c, 3, 55, 63
5, 27644, Note_off_c, 3, 55, 0
5, 27648, Note_on_c, 3, 57, 63
5, 27836, Note_off_c, 3, 57, 0
5, 27840, Note_on_c, 3, 53, 63
5, 28028, Note_off_c, 3, 53, 0
5, 28032, Note_on_c, 3, 55, 63
5, 28220, Note_off_c, 3, 55, 0
5, 28224, Note_on_c, 3, 55, 63
5, 28412, Note_off_c, 3, 55, 0
5, 28416, Note_on_c, 3, 43, 63
5, 28604, Note_off_c, 3, 43, 0
5, 28608, Note_on_c, 3, 43, 63
5, 28796, Note_off_c, 3, 43, 0
5, 28800, Note_on_c, 3, 52, 63
5, 28800, Note_on_c, 3, 36, 69
5, 28988, Note_off_c, 3, 52, 0
5, 28988, Note_off_c, 3, 36, 0
5, 28992, Note_on_c, 3, 52, 63
5, 28992, Note_on_c, 3, 36, 69
5, 29180, Note_off_c, 3, 52, 0
5, 29180, Note_off_c, 3, 36, 0
5, 29184, Note_on_c, 3, 52, 63
5, 29184, Note_on_c, 3, 36, 69
5, 29372, Note_off_c, 3, 52, 0
5, 29372, Note_off_c, 3, 36, 0
5, 29376, Note_on_c, 3, 52, 63
5, 29376, Note_on_c, 3, 36, 69
5, 29564, Note_off_c, 3, 52, 0
5, 29564, Note_off_c, 3, 36, 0
5, 29568, Note_on_c, 3, 52, 63
5, 29568, Note_on_c, 3, 36, 69
5, 29756, Note_off_c, 3, 52, 0
5, 29756, Note_off_c, 3, 36, 0
5, 29760, Note_on_c, 3, 52, 63
5, 29760, Note_on_c, 3, 36, 69
5, 29948, Note_off_c, 3, 52, 0
5, 29948, Note_off_c, 3, 36, 0
5, 29952, Note_on_c, 3, 48, 63
5, 29952, Note_on_c, 3, 56, 63
5, 30140, Note_off_c, 3, 48, 0
5, 30144, Note_on_c, 3, 48, 63
5, 30332, Note_off_c, 3, 48, 0
5, 30336, Note_on_c, 3, 48, 63
5, 30524, Note_off_c, 3, 48, 0
5, 30528, Note_on_c, 3, 48, 63
5, 30716, Note_off_c, 3, 56, 0
5, 30716, Note_off_c, 3, 48, 0
5, 30720, Note_on_c, 3, 48, 63
5, 30720, Note_on_c, 3, 55, 63
5, 30812, Note_off_c, 3, 55, 0
5, 30816, Note_on_c, 3, 53, 63
5, 30908, Note_off_c, 3, 48, 0
5, 30908, Note_off_c, 3, 53, 0
5, 30912, Note_on_c, 3, 48, 63
5, 30912, Note_on_c, 3, 52, 63
5, 31004, Note_off_c, 3, 52, 0
5, 31008, Note_on_c, 3, 53, 63
5, 31100, Note_off_c, 3, 48, 0
5, 31100, Note_off_c, 3, 53, 0
5, 31104, Note_on_c, 3, 52, 63
5, 31104, Note_on_c, 3, 48, 63
5, 31292, Note_off_c, 3, 48, 0
5, 31296, Note_on_c, 3, 48, 63
5, 31484, Note_off_c, 3, 52, 0
5, 31484, Note_off_c, 3, 48, 0
5, 31488, Note_on_c, 3, 48, 63
5, 31676, Note_off_c, 3, 48, 0
5, 31680, Note_on_c, 3, 48, 63
5, 31868, Note_off_c, 3, 48, 0
5, 31872, Note_on_c, 3, 48, 63
5, 32060, Note_off_c, 3, 48, 0
5, 32064, Note_on_c, 3, 48, 63
5, 32252, Note_off_c, 3, 48, 0
5, 32256, Note_on_c, 3, 48, 63
5, 32256, Note_on_c, 3, 56, 63
5, 32444, Note_off_c, 3, 48, 0
5, 32448, Note_on_c, 3, 48, 63
5, 32636, Note_off_c, 3, 48, 0
5, 32640, Note_on_c, 3, 48, 63
5, 32828, Note_off_c, 3, 48, 0
5, 32832, Note_on_c, 3, 48, 63
5, 33020, Note_off_c, 3, 56, 0
5, 33020, Note_off_c, 3, 48, 0
5, 33024, Note_on_c, 3, 48, 63
5, 33024, Note_on_c, 3, 55, 63
5, 33116, Note_off_c, 3, 55, 0
5, 33120, Note_on_c, 3, 53, 63
5, 33212, Note_off_c, 3, 48, 0
5, 33212, Note_off_c, 3, 53, 0
5, 33216, Note_on_c, 3, 48, 63
5, 33216, Note_on_c, 3, 52, 63
5, 33308, Note_off_c, 3, 52, 0
5, 33312, Note_on_c, 3, 53, 63
5, 33404, Note_off_c, 3, 48, 0
5, 33404, Note_off_c, 3, 53, 0
5, 33408, Note_on_c, 3, 53, 63
5, 33408, Note_on_c, 3, 48, 63
5, 33788, Note_off_c, 3, 53, 0
5, 33792, Note_on_c, 3, 52, 63
5, 34172, Note_off_c, 3, 48, 0
5, 34172, Note_off_c, 3, 52, 0
5, 40320, Note_on_c, 3, 55, 84
5, 40320, Note_on_c, 3, 43, 84
5, 40700, Note_off_c, 3, 55, 0
5, 40700, Note_off_c, 3, 43, 0
5, 41472, Note_on_c, 3, 51, 84
5, 41472, Note_on_c, 3, 43, 84
5, 41852, Note_off_c, 3, 51, 0
5, 41852, Note_off_c, 3, 43, 0
5, 42624, Note_on_c, 3, 42, 84
5, 43004, Note_off_c, 3, 42, 0
5, 43776, Note_on_c, 3, 43, 84
5, 44156, Note_off_c, 3, 43, 0
5, 44928, Note_on_c, 3, 46, 57
5, 44928, Note_on_c, 3, 34, 57
5, 45308, Note_off_c, 3, 46, 0
5, 45308, Note_off_c, 3, 34, 0
5, 46080, Note_on_c, 3, 48, 57
5, 46080, Note_on_c, 3, 36, 57
5, 46460, Note_off_c, 3, 48, 0
5, 46460, Note_off_c, 3, 36, 0
5, 47232, Note_on_c, 3, 49, 57
5, 47232, Note_on_c, 3, 37, 57
5, 47612, Note_off_c, 3, 49, 0
5, 47612, Note_off_c, 3, 37, 0
5, 48384, Note_on_c, 3, 50, 57
5, 48960, Note_on_c, 3, 50, 57
5, 49148, Note_off_c, 3, 50, 0
5, 49152, Note_on_c, 3, 54, 57
5, 49340, Note_off_c, 3, 54, 0
5, 49344, Note_on_c, 3, 57, 57
5, 49532, Note_off_c, 3, 50, 0
5, 49532, Note_off_c, 3, 57, 0
5, 49536, Note_on_c, 3, 62, 57
5, 49536, Note_on_c, 3, 50, 57
5, 50108, Note_off_c, 3, 62, 0
5, 50112, Note_on_c, 3, 59, 57
5, 50252, Note_off_c, 3, 59, 0
5, 50256, Note_on_c, 3, 55, 57
5, 50300, Note_off_c, 3, 55, 0
5, 50304, Note_on_c, 3, 60, 57
5, 50492, Note_off_c, 3, 60, 0
5, 50496, Note_on_c, 3, 60, 57
5, 50684, Note_off_c, 3, 50, 0
5, 50684, Note_off_c, 3, 60, 0
5, 50688, Note_on_c, 3, 58, 57
5, 50688, Note_on_c, 3, 50, 57
5, 50876, Note_off_c, 3, 58, 0
5, 50880, Note_on_c, 3, 59, 57
5, 51260, Note_off_c, 3, 59, 0
5, 51264, Note_on_c, 3, 55, 57
5, 51404, Note_off_c, 3, 55, 0
5, 51408, Note_on_c, 3, 59, 57
5, 51452, Note_off_c, 3, 59, 0
5, 51456, Note_on_c, 3, 57, 57
5, 51644, Note_off_c, 3, 57, 0
5, 51648, Note_on_c, 3, 57, 57
5, 51836, Note_off_c, 3, 50, 0
5, 51836, Note_off_c, 3, 57, 0
5, 51840, Note_on_c, 3, 54, 57
5, 51840, Note_on_c, 3, 50, 57
5, 52028, Note_off_c, 3, 54, 0
5, 52032, Note_on_c, 3, 55, 57
5, 52220, Note_off_c, 3, 55, 0
5, 52224, Note_on_c, 3, 59, 57
5, 52412, Note_off_c, 3, 59, 0
5, 52416, Note_on_c, 3, 50, 57
5, 52604, Note_off_c, 3, 50, 0
5, 52608, Note_on_c, 3, 57, 57
5, 52796, Note_off_c, 3, 57, 0
5, 52800, Note_on_c, 3, 50, 57
5, 52988, Note_off_c, 3, 50, 0
5, 52988, Note_off_c, 3, 50, 0
5, 52992, Note_on_c, 3, 43, 57
5, 53180, Note_off_c, 3, 43, 0
5, 53184, Note_on_c, 3, 55, 57
5, 53184, Note_on_c, 3, 59, 57
5, 53372, Note_off_c, 3, 55, 0
5, 53372, Note_off_c, 3, 59, 0
5, 53376, Note_on_c, 3, 59, 57
5, 53376, Note_on_c, 3, 62, 57
5, 53564, Note_off_c, 3, 59, 0
5, 53564, Note_off_c, 3, 62, 0
5, 53568, Note_on_c, 3, 59, 57
5, 53568, Note_on_c, 3, 55, 57
5, 53756, Note_off_c, 3, 59, 0
5, 53756, Note_off_c, 3, 55, 0
5, 53760, Note_on_c, 3, 59, 57
5, 53760, Note_on_c, 3, 62, 57
5, 53948, Note_off_c, 3, 59, 0
5, 53948, Note_off_c, 3, 62, 0
5, 53952, Note_on_c, 3, 59, 57
5, 53952, Note_on_c, 3, 55, 57
5, 54140, Note_off_c, 3, 59, 0
5, 54140, Note_off_c, 3, 55, 0
5, 54144, Note_on_c, 3, 60, 57
5, 54144, Note_on_c, 3, 60, 57
5, 54524, Note_off_c, 3, 60, 0
5, 54528, Note_on_c, 3, 57, 57
5, 54908, Note_off_c, 3, 57, 0
5, 54912, Note_on_c, 3, 54, 57
5, 55292, Note_off_c, 3, 60, 0
5, 55292, Note_off_c, 3, 54, 0
5, 55296, Note_on_c, 3, 59, 57
5, 55676, Note_off_c, 3, 59, 0
5, 55680, Note_on_c, 3, 56, 57
5, 56060, Note_off_c, 3, 56, 0
5, 56064, Note_on_c, 3, 52, 57
5, 56444, Note_off_c, 3, 52, 0
5, 56448, Note_on_c, 3, 57, 57
5, 56828, Note_off_c, 3, 57, 0
5, 56832, Note_on_c, 3, 54, 57
5, 57212, Note_off_c, 3, 54, 0
5, 57216, Note_on_c, 3, 50, 57
5, 57596, Note_off_c, 3, 50, 0
5, 57600, Note_on_c, 3, 43, 57
5, 57788, Note_off_c, 3, 43, 0
5, 57984, Note_on_c, 3, 45, 57
5, 58172, Note_off_c, 3, 45, 0
5, 58368, Note_on_c, 3, 47, 57
5, 58556, Note_off_c, 3, 47, 0
5, 62208, Note_on_c, 3, 55, 57
5, 62208, Note_on_c, 3, 43, 57
5, 62396, Note_off_c, 3, 55, 0
5, 62396, Note_off_c, 3, 43, 0
5, 62400, Note_on_c, 3, 55, 57
5, 62400, Note_on_c, 3, 43, 57
5, 62588, Note_off_c, 3, 55, 0
5, 62588, Note_off_c, 3, 43, 0
5, 62592, Note_on_c, 3, 55, 57
5, 62592, Note_on_c, 3, 43, 57
5, 62780, Note_off_c, 3, 55, 0
5, 62780, Note_off_c, 3, 43, 0
5, 62784, Note_on_c, 3, 55, 57
5, 62784, Note_on_c, 3, 43, 57
5, 62972, Note_off_c, 3, 55, 0
5, 62972, Note_off_c, 3, 43, 0
5, 62976, Note_on_c, 3, 55, 57
5, 62976, Note_on_c, 3, 43, 57
5, 63164, Note_off_c, 3, 55, 0
5, 63164, Note_off_c, 3, 43, 0
5, 63168, Note_on_c, 3, 55, 57
5, 63168, Note_on_c, 3, 43, 57
5, 63356, Note_off_c, 3, 55, 0
5, 63356, Note_off_c, 3, 43, 0
5, 63360, Note_on_c, 3, 55, 57
5, 63360, Note_on_c, 3, 66, 57
5, 63360, Note_on_c, 3, 63, 57
5, 63548, Note_off_c, 3, 55, 0
5, 63552, Note_on_c, 3, 55, 57
5, 63740, Note_off_c, 3, 55, 0
5, 63744, Note_on_c, 3, 55, 57
5, 63932, Note_off_c, 3, 55, 0
5, 63936, Note_on_c, 3, 55, 57
5, 64124, Note_off_c, 3, 66, 0
5, 64124, Note_off_c, 3, 63, 0
5, 64124, Note_off_c, 3, 55, 0
5, 64128, Note_on_c, 3, 55, 57
5, 64128, Note_on_c, 3, 66, 57
5, 64128, Note_on_c, 3, 57, 57
5, 64316, Note_off_c, 3, 55, 0
5, 64320, Note_on_c, 3, 55, 57
5, 64508, Note_off_c, 3, 66, 0
5, 64508, Note_off_c, 3, 57, 0
5, 64508, Note_off_c, 3, 55, 0
5, 64512, Note_on_c, 3, 67, 57
5, 64512, Note_on_c, 3, 55, 57
5, 64700, Note_off_c, 3, 67, 0
5, 64700, Note_off_c, 3, 55, 0
5, 64704, Note_on_c, 3, 55, 57
5, 64704, Note_on_c, 3, 43, 57
5, 64892, Note_off_c, 3, 55, 0
5, 64892, Note_off_c, 3, 43, 0
5, 64896, Note_on_c, 3, 55, 57
5, 64896, Note_on_c, 3, 43, 57
5, 65084, Note_off_c, 3, 55, 0
5, 65084, Note_off_c, 3, 43, 0
5, 65088, Note_on_c, 3, 55, 57
5, 65088, Note_on_c, 3, 43, 57
5, 65276, Note_off_c, 3, 55, 0
5, 65276, Note_off_c, 3, 43, 0
5, 65280, Note_on_c, 3, 55, 57
5, 65280, Note_on_c, 3, 43, 57
5, 65468, Note_off_c, 3, 55, 0
5, 65468, Note_off_c, 3, 43, 0
5, 65472, Note_on_c, 3, 55, 57
5, 65472, Note_on_c, 3, 43, 57
5, 65660, Note_off_c, 3, 55, 0
5, 65660, Note_off_c, 3, 43, 0
5, 65664, Note_on_c, 3, 55, 57
5, 65664, Note_on_c, 3, 43, 57
5, 65852, Note_off_c, 3, 55, 0
5, 65852, Note_off_c, 3, 43, 0
5, 65856, Note_on_c, 3, 55, 57
5, 65856, Note_on_c, 3, 43, 57
5, 66044, Note_off_c, 3, 55, 0
5, 66044, Note_off_c, 3, 43, 0
5, 66048, Note_on_c, 3, 55, 57
5, 66048, Note_on_c, 3, 43, 57
5, 66236, Note_off_c, 3, 55, 0
5, 66236, Note_off_c, 3, 43, 0
5, 66240, Note_on_c, 3, 55, 57
5, 66240, Note_on_c, 3, 43, 57
5, 66428, Note_off_c, 3, 55, 0
5, 66428, Note_off_c, 3, 43, 0
5, 66432, Note_on_c, 3, 55, 57
5, 66432, Note_on_c, 3, 43, 57
5, 66620, Note_off_c, 3, 55, 0
5, 66620, Note_off_c, 3, 43, 0
5, 66624, Note_on_c, 3, 55, 57
5, 66624, Note_on_c, 3, 43, 57
5, 66812, Note_off_c, 3, 55, 0
5, 66812, Note_off_c, 3, 43, 0
5, 66816, Note_on_c, 3, 55, 57
5, 66816, Note_on_c, 3, 43, 57
5, 67004, Note_off_c, 3, 55, 0
5, 67004, Note_off_c, 3, 43, 0
5, 68160, Note_on_c, 3, 64, 57
5, 68348, Note_off_c, 3, 64, 0
5, 68352, Note_on_c, 3, 65, 57
5, 68540, Note_off_c, 3, 65, 0
5, 68544, Note_on_c, 3, 66, 57
5, 68732, Note_off_c, 3, 66, 0
5, 68736, Note_on_c, 3, 67, 57
5, 68924, Note_off_c, 3, 67, 0
5, 69312, Note_on_c, 3, 56, 57
5, 69500, Note_off_c, 3, 56, 0
5, 69504, Note_on_c, 3, 57, 57
5, 69692, Note_off_c, 3, 57, 0
5, 69696, Note_on_c, 3, 59, 57
5, 69884, Note_off_c, 3, 59, 0
5, 69888, Note_on_c, 3, 60, 57
5, 70076, Note_off_c, 3, 60, 0
5, 70464, Note_on_c, 3, 59, 57
5, 70652, Note_off_c, 3, 59, 0
5, 70656, Note_on_c, 3, 60, 57
5, 70844, Note_off_c, 3, 60, 0
5, 70848, Note_on_c, 3, 62, 57
5, 71036, Note_off_c, 3, 62, 0
5, 71040, Note_on_c, 3, 64, 57
5, 71228, Note_off_c, 3, 64, 0
5, 71232, Note_on_c, 3, 52, 57
5, 71420, Note_off_c, 3, 52, 0
5, 71424, Note_on_c, 3, 50, 57
5, 71612, Note_off_c, 3, 50, 0
5, 71808, Note_on_c, 3, 50, 57
5, 71996, Note_off_c, 3, 50, 0
5, 72192, Note_on_c, 3, 50, 57
5, 72380, Note_off_c, 3, 50, 0
5, 72576, Note_on_c, 3, 50, 57
5, 72764, Note_off_c, 3, 50, 0
5, 72960, Note_on_c, 3, 50, 57
5, 73148, Note_off_c, 3, 50, 0
5, 73344, Note_on_c, 3, 50, 57
5, 73532, Note_off_c, 3, 50, 0
5, 73728, Note_on_c, 3, 59, 57
5, 73728, Note_on_c, 3, 55, 57
5, 74108, Note_off_c, 3, 59, 0
5, 74108, Note_off_c, 3, 55, 0
5, 85248, Note_on_c, 3, 62, 57
5, 85436, Note_off_c, 3, 62, 0
5, 85440, Note_on_c, 3, 62, 57
5, 85628, Note_off_c, 3, 62, 0
5, 85632, Note_on_c, 3, 58, 57
5, 85632, Note_on_c, 3, 62, 57
5, 85632, Note_on_c, 3, 68, 57
5, 85820, Note_off_c, 3, 58, 0
5, 85820, Note_off_c, 3, 62, 0
5, 85824, Note_on_c, 3, 58, 57
5, 85824, Note_on_c, 3, 62, 57
5, 86012, Note_off_c, 3, 68, 0
5, 86012, Note_off_c, 3, 58, 0
5, 86012, Note_off_c, 3, 62, 0
5, 86016, Note_on_c, 3, 57, 57
5, 86016, Note_on_c, 3, 62, 57
5, 86016, Note_on_c, 3, 69, 57
5, 86204, Note_off_c, 3, 57, 0
5, 86204, Note_off_c, 3, 62, 0
5, 86208, Note_on_c, 3, 57, 57
5, 86208, Note_on_c, 3, 62, 57
5, 86396, Note_off_c, 3, 69, 0
5, 86396, Note_off_c, 3, 57, 0
5, 86396, Note_off_c, 3, 62, 0
5, 86400, Note_on_c, 3, 64, 57
5, 86400, Note_on_c, 3, 56, 57
5, 86588, Note_off_c, 3, 56, 0
5, 86592, Note_on_c, 3, 56, 57
5, 86780, Note_off_c, 3, 56, 0
5, 86784, Note_on_c, 3, 56, 57
5, 86972, Note_off_c, 3, 56, 0
5, 86976, Note_on_c, 3, 56, 57
5, 87164, Note_off_c, 3, 56, 0
5, 87168, Note_on_c, 3, 56, 57
5, 87356, Note_off_c, 3, 56, 0
5, 87360, Note_on_c, 3, 56, 57
5, 87548, Note_off_c, 3, 56, 0
5, 87552, Note_on_c, 3, 57, 57
5, 87740, Note_off_c, 3, 57, 0
5, 87744, Note_on_c, 3, 57, 57
5, 87932, Note_off_c, 3, 57, 0
5, 87936, Note_on_c, 3, 57, 57
5, 87936, Note_on_c, 3, 53, 57
5, 87936, Note_on_c, 3, 63, 57
5, 88124, Note_off_c, 3, 57, 0
5, 88124, Note_off_c, 3, 53, 0
5, 88128, Note_on_c, 3, 57, 57
5, 88128, Note_on_c, 3, 53, 57
5, 88316, Note_off_c, 3, 63, 0
5, 88316, Note_off_c, 3, 57, 0
5, 88316, Note_off_c, 3, 53, 0
5, 88320, Note_on_c, 3, 57, 57
5, 88320, Note_on_c, 3, 52, 57
5, 88320, Note_on_c, 3, 64, 57
5, 88508, Note_off_c, 3, 57, 0
5, 88508, Note_off_c, 3, 52, 0
5, 88512, Note_on_c, 3, 57, 57
5, 88512, Note_on_c, 3, 52, 57
5, 88700, Note_off_c, 3, 64, 0
5, 88700, Note_off_c, 3, 64, 0
5, 88700, Note_off_c, 3, 57, 0
5, 88700, Note_off_c, 3, 52, 0
5, 88704, Note_on_c, 3, 51, 57
5, 88892, Note_off_c, 3, 51, 0
5, 88896, Note_on_c, 3, 51, 57
5, 89084, Note_off_c, 3, 51, 0
5, 89088, Note_on_c, 3, 51, 57
5, 89276, Note_off_c, 3, 51, 0
5, 89280, Note_on_c, 3, 51, 57
5, 89468, Note_off_c, 3, 51, 0
5, 89472, Note_on_c, 3, 51, 57
5, 89660, Note_off_c, 3, 51, 0
5, 89664, Note_on_c, 3, 51, 57
5, 89852, Note_off_c, 3, 51, 0
5, 89856, Note_on_c, 3, 52, 57
5, 90044, Note_off_c, 3, 52, 0
5, 90048, Note_on_c, 3, 52, 57
5, 90236, Note_off_c, 3, 52, 0
5, 90240, Note_on_c, 3, 48, 57
5, 90428, Note_off_c, 3, 48, 0
5, 90432, Note_on_c, 3, 48, 57
5, 90620, Note_off_c, 3, 48, 0
5, 90624, Note_on_c, 3, 47, 57
5, 90812, Note_off_c, 3, 47, 0
5, 90816, Note_on_c, 3, 47, 57
5, 91004, Note_off_c, 3, 47, 0
5, 91008, Note_on_c, 3, 46, 57
5, 91196, Note_off_c, 3, 46, 0
5, 91200, Note_on_c, 3, 46, 57
5, 91388, Note_off_c, 3, 46, 0
5, 91392, Note_on_c, 3, 46, 57
5, 91580, Note_off_c, 3, 46, 0
5, 91584, Note_on_c, 3, 46, 57
5, 91772, Note_off_c, 3, 46, 0
5, 91776, Note_on_c, 3, 46, 57
5, 91964, Note_off_c, 3, 46, 0
5, 91968, Note_on_c, 3, 46, 57
5, 92156, Note_off_c, 3, 46, 0
5, 92160, Note_on_c, 3, 47, 57
5, 92348, Note_off_c, 3, 47, 0
5, 92352, Note_on_c, 3, 47, 57
5, 92540, Note_off_c, 3, 47, 0
5, 92544, Note_on_c, 3, 55, 57
5, 92544, Note_on_c, 3, 62, 57
5, 92544, Note_on_c, 3, 65, 57
5, 92732, Note_off_c, 3, 55, 0
5, 92736, Note_on_c, 3, 55, 57
5, 92924, Note_off_c, 3, 62, 0
5, 92924, Note_off_c, 3, 65, 0
5, 92924, Note_off_c, 3, 55, 0
5, 92928, Note_on_c, 3, 54, 57
5, 92928, Note_on_c, 3, 66, 57
5, 92928, Note_on_c, 3, 62, 57
5, 93116, Note_off_c, 3, 54, 0
5, 93120, Note_on_c, 3, 54, 57
5, 93308, Note_off_c, 3, 66, 0
5, 93308, Note_off_c, 3, 62, 0
5, 93308, Note_off_c, 3, 54, 0
5, 93312, Note_on_c, 3, 61, 57
5, 93312, Note_on_c, 3, 53, 57
5, 94076, Note_off_c, 3, 61, 0
5, 94460, Note_off_c, 3, 53, 64
5, 94464, Note_on_c, 3, 54, 57
5, 94652, Note_off_c, 3, 54, 0
5, 99072, Note_on_c, 3, 51, 47
5, 99072, Note_on_c, 3, 48, 47
5, 99072, Note_on_c, 3, 44, 47
5, 99260, Note_off_c, 3, 51, 0
5, 99260, Note_off_c, 3, 48, 0
5, 99260, Note_off_c, 3, 44, 0
5, 99264, Note_on_c, 3, 51, 47
5, 99264, Note_on_c, 3, 48, 47
5, 99264, Note_on_c, 3, 44, 47
5, 99452, Note_off_c, 3, 51, 0
5, 99452, Note_off_c, 3, 48, 0
5, 99452, Note_off_c, 3, 44, 0
5, 99456, Note_on_c, 3, 51, 47
5, 99456, Note_on_c, 3, 48, 47
5, 99456, Note_on_c, 3, 44, 47
5, 99644, Note_off_c, 3, 51, 0
5, 99644, Note_off_c, 3, 48, 0
5, 99644, Note_off_c, 3, 44, 0
5, 99648, Note_on_c, 3, 51, 47
5, 99648, Note_on_c, 3, 48, 47
5, 99648, Note_on_c, 3, 44, 47
5, 99836, Note_off_c, 3, 51, 0
5, 99836, Note_off_c, 3, 48, 0
5, 99836, Note_off_c, 3, 44, 0
5, 99840, Note_on_c, 3, 51, 47
5, 99840, Note_on_c, 3, 48, 47
5, 99840, Note_on_c, 3, 44, 47
5, 100028, Note_off_c, 3, 51, 0
5, 100028, Note_off_c, 3, 48, 0
5, 100028, Note_off_c, 3, 44, 0
5, 100032, Note_on_c, 3, 51, 47
5, 100032, Note_on_c, 3, 48, 47
5, 100032, Note_on_c, 3, 44, 47
5, 100220, Note_off_c, 3, 51, 0
5, 100220, Note_off_c, 3, 48, 0
5, 100220, Note_off_c, 3, 44, 0
5, 100224, Note_on_c, 3, 51, 47
5, 100224, Note_on_c, 3, 47, 47
5, 100224, Note_on_c, 3, 44, 47
5, 100412, Note_off_c, 3, 51, 0
5, 100412, Note_off_c, 3, 47, 0
5, 100412, Note_off_c, 3, 44, 0
5, 100416, Note_on_c, 3, 51, 47
5, 100416, Note_on_c, 3, 47, 47
5, 100416, Note_on_c, 3, 44, 47
5, 100604, Note_off_c, 3, 51, 0
5, 100604, Note_off_c, 3, 47, 0
5, 100604, Note_off_c, 3, 44, 0
5, 100608, Note_on_c, 3, 51, 47
5, 100608, Note_on_c, 3, 47, 47
5, 100608, Note_on_c, 3, 44, 47
5, 100796, Note_off_c, 3, 51, 0
5, 100796, Note_off_c, 3, 47, 0
5, 100796, Note_off_c, 3, 44, 0
5, 100800, Note_on_c, 3, 51, 47
5, 100800, Note_on_c, 3, 47, 47
5, 100800, Note_on_c, 3, 44, 47
5, 100988, Note_off_c, 3, 51, 0
5, 100988, Note_off_c, 3, 47, 0
5, 100988, Note_off_c, 3, 44, 0
5, 100992, Note_on_c, 3, 51, 50
5, 100992, Note_on_c, 3, 47, 50
5, 100992, Note_on_c, 3, 44, 50
5, 101180, Note_off_c, 3, 51, 0
5, 101180, Note_off_c, 3, 47, 0
5, 101180, Note_off_c, 3, 44, 0
5, 101184, Note_on_c, 3, 51, 54
5, 101184, Note_on_c, 3, 47, 54
5, 101184, Note_on_c, 3, 44, 54
5, 101372, Note_off_c, 3, 51, 0
5, 101372, Note_off_c, 3, 47, 0
5, 101372, Note_off_c, 3, 44, 0
5, 101376, Note_on_c, 3, 56, 58
5, 101376, Note_on_c, 3, 59, 58
5, 101376, Note_on_c, 3, 62, 58
5, 101564, Note_off_c, 3, 56, 0
5, 101564, Note_off_c, 3, 59, 0
5, 101564, Note_off_c, 3, 62, 0
5, 101568, Note_on_c, 3, 56, 63
5, 101568, Note_on_c, 3, 59, 63
5, 101568, Note_on_c, 3, 62, 63
5, 101756, Note_off_c, 3, 56, 0
5, 101756, Note_off_c, 3, 59, 0
5, 101756, Note_off_c, 3, 62, 0
5, 101760, Note_on_c, 3, 56, 68
5, 101760, Note_on_c, 3, 59, 68
5, 101760, Note_on_c, 3, 62, 68
5, 101948, Note_off_c, 3, 56, 0
5, 101948, Note_off_c, 3, 59, 0
5, 101948, Note_off_c, 3, 62, 0
5, 101952, Note_on_c, 3, 56, 72
5, 101952, Note_on_c, 3, 59, 72
5, 101952, Note_on_c, 3, 62, 72
5, 102140, Note_off_c, 3, 56, 0
5, 102140, Note_off_c, 3, 59, 0
5, 102140, Note_off_c, 3, 62, 0
5, 102144, Note_on_c, 3, 56, 76
5, 102144, Note_on_c, 3, 59, 76
5, 102144, Note_on_c, 3, 62, 76
5, 102332, Note_off_c, 3, 56, 0
5, 102332, Note_off_c, 3, 59, 0
5, 102332, Note_off_c, 3, 62, 0
5, 102336, Note_on_c, 3, 56, 80
5, 102336, Note_on_c, 3, 59, 80
5, 102336, Note_on_c, 3, 62, 80
5, 102524, Note_off_c, 3, 56, 0
5, 102524, Note_off_c, 3, 59, 0
5, 102524, Note_off_c, 3, 62, 0
5, 102528, Note_on_c, 3, 62, 84
5, 102528, Note_on_c, 3, 65, 84
5, 102528, Note_on_c, 3, 55, 84
5, 102716, Note_off_c, 3, 62, 0
5, 102716, Note_off_c, 3, 65, 0
5, 102716, Note_off_c, 3, 55, 0
5, 102720, Note_on_c, 3, 62, 84
5, 102720, Note_on_c, 3, 65, 84
5, 102720, Note_on_c, 3, 55, 84
5, 102908, Note_off_c, 3, 62, 0
5, 102908, Note_off_c, 3, 65, 0
5, 102908, Note_off_c, 3, 55, 0
5, 102912, Note_on_c, 3, 62, 84
5, 102912, Note_on_c, 3, 59, 84
5, 102912, Note_on_c, 3, 55, 84
5, 103100, Note_off_c, 3, 62, 0
5, 103100, Note_off_c, 3, 59, 0
5, 103100, Note_off_c, 3, 55, 0
5, 103104, Note_on_c, 3, 62, 84
5, 103104, Note_on_c, 3, 59, 84
5, 103104, Note_on_c, 3, 55, 84
5, 103292, Note_off_c, 3, 62, 0
5, 103292, Note_off_c, 3, 59, 0
5, 103292, Note_off_c, 3, 55, 0
5, 103296, Note_on_c, 3, 62, 84
5, 103296, Note_on_c, 3, 59, 84
5, 103296, Note_on_c, 3, 55, 84
5, 103484, Note_off_c, 3, 62, 0
5, 103484, Note_off_c, 3, 59, 0
5, 103484, Note_off_c, 3, 55, 0
5, 103488, Note_on_c, 3, 62, 84
5, 103488, Note_on_c, 3, 59, 84
5, 103488, Note_on_c, 3, 55, 84
5, 103676, Note_off_c, 3, 62, 0
5, 103676, Note_off_c, 3, 59, 0
5, 103676, Note_off_c, 3, 55, 0
5, 103680, Note_on_c, 3, 60, 57
5, 103680, Note_on_c, 3, 55, 57
5, 103680, Note_on_c, 3, 48, 57
5, 104060, Note_off_c, 3, 60, 0
5, 104060, Note_off_c, 3, 55, 0
5, 104060, Note_off_c, 3, 48, 0
5, 109440, Note_on_c, 3, 51, 84
5, 109440, Note_on_c, 3, 39, 84
5, 109820, Note_off_c, 3, 51, 0
5, 109820, Note_off_c, 3, 39, 0
5, 110592, Note_on_c, 3, 51, 84
5, 110592, Note_on_c, 3, 39, 84
5, 110972, Note_off_c, 3, 51, 0
5, 110972, Note_off_c, 3, 39, 0
5, 111744, Note_on_c, 3, 50, 84
5, 111744, Note_on_c, 3, 38, 84
5, 112124, Note_off_c, 3, 50, 0
5, 112124, Note_off_c, 3, 38, 0
5, 112896, Note_on_c, 3, 51, 84
5, 112896, Note_on_c, 3, 39, 84
5, 113276, Note_off_c, 3, 51, 0
5, 113276, Note_off_c, 3, 39, 0
5, 116352, Note_on_c, 3, 56, 57
5, 117116, Note_off_c, 3, 56, 0
5, 117504, Note_on_c, 3, 55, 57
5, 117504, Note_on_c, 3, 43, 57
5, 118652, Note_off_c, 3, 55, 0
5, 118652, Note_off_c, 3, 43, 0
5, 118656, Note_on_c, 3, 43, 57
5, 118844, Note_off_c, 3, 43, 0
5, 118848, Note_on_c, 3, 55, 57
5, 119036, Note_off_c, 3, 55, 0
5, 119040, Note_on_c, 3, 60, 57
5, 119228, Note_off_c, 3, 60, 0
5, 119232, Note_on_c, 3, 55, 57
5, 119420, Note_off_c, 3, 55, 0
5, 119424, Note_on_c, 3, 59, 57
5, 119424, Note_on_c, 3, 62, 57
5, 119612, Note_off_c, 3, 59, 0
5, 119612, Note_off_c, 3, 62, 0
5, 119616, Note_on_c, 3, 55, 57
5, 119804, Note_off_c, 3, 55, 0
5, 119808, Note_on_c, 3, 63, 57
5, 119808, Note_on_c, 3, 55, 57
5, 119996, Note_off_c, 3, 63, 0
5, 120000, Note_on_c, 3, 64, 57
5, 120380, Note_off_c, 3, 64, 0
5, 120384, Note_on_c, 3, 60, 57
5, 120524, Note_off_c, 3, 60, 0
5, 120528, Note_on_c, 3, 64, 57
5, 120572, Note_off_c, 3, 64, 0
5, 120576, Note_on_c, 3, 63, 57
5, 120668, Note_off_c, 3, 63, 0
5, 120752, Note_on_c, 3, 63, 57
5, 120844, Note_off_c, 3, 63, 0
5, 120956, Note_off_c, 3, 55, 0
5, 120960, Note_on_c, 3, 59, 57
5, 120960, Note_on_c, 3, 57, 57
5, 121148, Note_off_c, 3, 59, 0
5, 121152, Note_on_c, 3, 60, 57
5, 121340, Note_off_c, 3, 57, 0
5, 121340, Note_off_c, 3, 60, 0
5, 121344, Note_on_c, 3, 57, 57
5, 121520, Note_on_c, 3, 60, 57
5, 121536, Note_on_c, 3, 64, 57
5, 121724, Note_off_c, 3, 57, 0
5, 121728, Note_on_c, 3, 55, 57
5, 121900, Note_off_c, 3, 60, 0
5, 121916, Note_off_c, 3, 64, 0
5, 121920, Note_on_c, 3, 60, 57
5, 121920, Note_on_c, 3, 64, 57
5, 122108, Note_off_c, 3, 55, 0
5, 122108, Note_off_c, 3, 60, 0
5, 122108, Note_off_c, 3, 64, 0
5, 122112, Note_on_c, 3, 53, 57
5, 122304, Note_on_c, 3, 48, 57
5, 122492, Note_off_c, 3, 48, 0
5, 122496, Note_on_c, 3, 53, 57
5, 122684, Note_off_c, 3, 53, 0
5, 122688, Note_on_c, 3, 57, 57
5, 122876, Note_off_c, 3, 53, 0
5, 122876, Note_off_c, 3, 57, 0
5, 122880, Note_on_c, 3, 60, 57
5, 122880, Note_on_c, 3, 52, 57
5, 122880, Note_on_c, 3, 48, 57
5, 123260, Note_off_c, 3, 60, 0
5, 123260, Note_off_c, 3, 52, 0
5, 123260, Note_off_c, 3, 48, 0
5, 123264, Note_on_c, 3, 53, 57
5, 123456, Note_on_c, 3, 45, 57
5, 123644, Note_off_c, 3, 45, 0
5, 123648, Note_on_c, 3, 48, 57
5, 123836, Note_off_c, 3, 48, 0
5, 123840, Note_on_c, 3, 53, 57
5, 124028, Note_off_c, 3, 53, 0
5, 124028, Note_off_c, 3, 53, 0
5, 124032, Note_on_c, 3, 61, 57
5, 124032, Note_on_c, 3, 57, 57
5, 124412, Note_off_c, 3, 61, 0
5, 124412, Note_off_c, 3, 57, 0
5, 124416, Note_on_c, 3, 62, 57
5, 124416, Note_on_c, 3, 50, 57
5, 124604, Note_off_c, 3, 62, 0
5, 124608, Note_on_c, 3, 56, 57
5, 124796, Note_off_c, 3, 50, 0
5, 124796, Note_off_c, 3, 56, 0
5, 124800, Note_on_c, 3, 55, 57
5, 124800, Note_on_c, 3, 47, 57
5, 125180, Note_off_c, 3, 47, 0
5, 125184, Note_on_c, 3, 48, 57
5, 125564, Note_off_c, 3, 55, 0
5, 125564, Note_off_c, 3, 48, 0
5, 125568, Note_on_c, 3, 53, 57
5, 125568, Note_on_c, 3, 41, 57
5, 125948, Note_off_c, 3, 53, 64
5, 125948, Note_off_c, 3, 41, 64
5, 127872, Note_on_c, 3, 52, 84
5, 128060, Note_off_c, 3, 52, 0
5, 128064, Note_on_c, 3, 55, 84
5, 128204, Note_off_c, 3, 55, 0
5, 128208, Note_on_c, 3, 60, 84
5, 128252, Note_off_c, 3, 60, 0
5, 128256, Note_on_c, 3, 50, 84
5, 128444, Note_off_c, 3, 50, 0
5, 128448, Note_on_c, 3, 53, 84
5, 128588, Note_off_c, 3, 53, 0
5, 128592, Note_on_c, 3, 59, 84
5, 128636, Note_off_c, 3, 59, 0
5, 128640, Note_on_c, 3, 48, 84
5, 128828, Note_off_c, 3, 48, 0
5, 128832, Note_on_c, 3, 52, 84
5, 128972, Note_off_c, 3, 52, 0
5, 128976, Note_on_c, 3, 55, 84
5, 129020, Note_off_c, 3, 55, 0
5, 129024, Note_on_c, 3, 55, 84
5, 129024, Note_on_c, 3, 50, 84
5, 129024, Note_on_c, 3, 47, 84
5, 129308, Note_off_c, 3, 55, 0
5, 129308, Note_off_c, 3, 50, 0
5, 129308, Note_off_c, 3, 47, 0
5, 131328, Note_on_c, 3, 52, 84
5, 131516, Note_off_c, 3, 52, 0
5, 131520, Note_on_c, 3, 55, 84
5, 131660, Note_off_c, 3, 55, 0
5, 131664, Note_on_c, 3, 60, 84
5, 131708, Note_off_c, 3, 60, 0
5, 131712, Note_on_c, 3, 50, 84
5, 131900, Note_off_c, 3, 50, 0
5, 131904, Note_on_c, 3, 53, 84
5, 132044, Note_off_c, 3, 53, 0
5, 132048, Note_on_c, 3, 59, 84
5, 132092, Note_off_c, 3, 59, 0
5, 132096, Note_on_c, 3, 48, 84
5, 132284, Note_off_c, 3, 48, 0
5, 132288, Note_on_c, 3, 52, 84
5, 132428, Note_off_c, 3, 52, 0
5, 132432, Note_on_c, 3, 55, 84
5, 132476, Note_off_c, 3, 55, 0
5, 132480, Note_on_c, 3, 47, 84
5, 132860, Note_off_c, 3, 47, 0
5, 133632, Note_on_c, 3, 53, 57
5, 133632, Note_on_c, 3, 41, 57
5, 134780, Note_off_c, 3, 53, 0
5, 134780, Note_off_c, 3, 41, 0
5, 134784, Note_on_c, 3, 54, 57
5, 134784, Note_on_c, 3, 42, 57
5, 135932, Note_off_c, 3, 54, 0
5, 135932, Note_off_c, 3, 42, 0
5, 135936, Note_on_c, 3, 43, 57
5, 136124, Note_off_c, 3, 43, 0
5, 136320, Note_on_c, 3, 43, 57
5, 136508, Note_off_c, 3, 43, 0
5, 136704, Note_on_c, 3, 43, 57
5, 136892, Note_off_c, 3, 43, 0
5, 137088, Note_on_c, 3, 43, 57
5, 137276, Note_off_c, 3, 43, 0
5, 137472, Note_on_c, 3, 43, 64
5, 137660, Note_off_c, 3, 43, 0
5, 137856, Note_on_c, 3, 43, 71
5, 138044, Note_off_c, 3, 43, 0
5, 138240, Note_on_c, 3, 48, 84
5, 138240, Note_on_c, 3, 36, 84
5, 138620, Note_off_c, 3, 48, 0
5, 138620, Note_off_c, 3, 36, 0
5, 138624, Note_on_c, 3, 50, 84
5, 138624, Note_on_c, 3, 38, 84
5, 139004, Note_off_c, 3, 50, 0
5, 139004, Note_off_c, 3, 38, 0
5, 139008, Note_on_c, 3, 52, 84
5, 139008, Note_on_c, 3, 40, 84
5, 139388, Note_off_c, 3, 52, 0
5, 139388, Note_off_c, 3, 40, 0
5, 139392, Note_on_c, 3, 53, 81
5, 139392, Note_on_c, 3, 41, 81
5, 139580, Note_off_c, 3, 53, 0
5, 139580, Note_off_c, 3, 41, 0
5, 139584, Note_on_c, 3, 53, 78
5, 139584, Note_on_c, 3, 41, 78
5, 139772, Note_off_c, 3, 53, 0
5, 139772, Note_off_c, 3, 41, 0
5, 139776, Note_on_c, 3, 54, 74
5, 139776, Note_on_c, 3, 42, 74
5, 139964, Note_off_c, 3, 54, 0
5, 139964, Note_off_c, 3, 42, 0
5, 139968, Note_on_c, 3, 55, 70
5, 139968, Note_on_c, 3, 43, 70
5, 140156, Note_off_c, 3, 55, 0
5, 140156, Note_off_c, 3, 43, 0
5, 140160, Note_on_c, 3, 56, 66
5, 140160, Note_on_c, 3, 44, 66
5, 140348, Note_off_c, 3, 56, 0
5, 140348, Note_off_c, 3, 44, 0
5, 140352, Note_on_c, 3, 57, 61
5, 140352, Note_on_c, 3, 45, 61
5, 140540, Note_off_c, 3, 57, 0
5, 140540, Note_off_c, 3, 45, 0
5, 140544, Note_on_c, 3, 55, 57
5, 140544, Note_on_c, 3, 43, 57
5, 141308, Note_off_c, 3, 55, 0
5, 141308, Note_off_c, 3, 43, 0
5, 168192, Note_on_c, 3, 64, 57
5, 168192, Note_on_c, 3, 60, 57
5, 168380, Note_off_c, 3, 64, 0
5, 168380, Note_off_c, 3, 60, 0
5, 168384, Note_on_c, 3, 64, 57
5, 168384, Note_on_c, 3, 60, 57
5, 168572, Note_off_c, 3, 64, 0
5, 168572, Note_off_c, 3, 60, 0
5, 168576, Note_on_c, 3, 64, 57
5, 168576, Note_on_c, 3, 60, 57
5, 168764, Note_off_c, 3, 64, 0
5, 168764, Note_off_c, 3, 60, 0
5, 168768, Note_on_c, 3, 64, 57
5, 168768, Note_on_c, 3, 60, 57
5, 168956, Note_off_c, 3, 64, 0
5, 168956, Note_off_c, 3, 60, 0
5, 168960, Note_on_c, 3, 64, 57
5, 168960, Note_on_c, 3, 60, 57
5, 169148, Note_off_c, 3, 64, 0
5, 169148, Note_off_c, 3, 60, 0
5, 169152, Note_on_c, 3, 64, 57
5, 169152, Note_on_c, 3, 60, 57
5, 169340, Note_off_c, 3, 64, 0
5, 169340, Note_off_c, 3, 60, 0
5, 169344, Note_on_c, 3, 59, 57
5, 169344, Note_on_c, 3, 62, 57
5, 169532, Note_off_c, 3, 59, 0
5, 169532, Note_off_c, 3, 62, 0
5, 169536, Note_on_c, 3, 59, 57
5, 169536, Note_on_c, 3, 62, 57
5, 169724, Note_off_c, 3, 59, 0
5, 169724, Note_off_c, 3, 62, 0
5, 169728, Note_on_c, 3, 59, 57
5, 169728, Note_on_c, 3, 62, 57
5, 169916, Note_off_c, 3, 59, 0
5, 169916, Note_off_c, 3, 62, 0
5, 169920, Note_on_c, 3, 59, 57
5, 169920, Note_on_c, 3, 62, 57
5, 170108, Note_off_c, 3, 59, 0
5, 170108, Note_off_c, 3, 62, 0
5, 170112, Note_on_c, 3, 58, 57
5, 170112, Note_on_c, 3, 61, 57
5, 170128, Note_on_c, 3, 64, 57
5, 170300, Note_off_c, 3, 58, 0
5, 170300, Note_off_c, 3, 61, 0
5, 170304, Note_on_c, 3, 58, 57
5, 170304, Note_on_c, 3, 61, 57
5, 170492, Note_off_c, 3, 58, 0
5, 170492, Note_off_c, 3, 61, 0
5, 170496, Note_on_c, 3, 60, 57
5, 170496, Note_on_c, 3, 57, 57
5, 170496, Note_on_c, 3, 63, 57
5, 170508, Note_off_c, 3, 64, 0
5, 170684, Note_off_c, 3, 60, 0
5, 170684, Note_off_c, 3, 57, 0
5, 170688, Note_on_c, 3, 60, 57
5, 170688, Note_on_c, 3, 57, 57
5, 170876, Note_off_c, 3, 63, 0
5, 170876, Note_off_c, 3, 60, 0
5, 170876, Note_off_c, 3, 57, 0
5, 170880, Note_on_c, 3, 60, 57
5, 170880, Note_on_c, 3, 57, 57
5, 170880, Note_on_c, 3, 66, 57
5, 171068, Note_off_c, 3, 60, 0
5, 171068, Note_off_c, 3, 57, 0
5, 171072, Note_on_c, 3, 60, 57
5, 171072, Note_on_c, 3, 57, 57
5, 171260, Note_off_c, 3, 60, 0
5, 171260, Note_off_c, 3, 57, 0
5, 171264, Note_on_c, 3, 60, 57
5, 171264, Note_on_c, 3, 56, 57
5, 171452, Note_off_c, 3, 60, 0
5, 171452, Note_off_c, 3, 56, 0
5, 171456, Note_on_c, 3, 56, 57
5, 171456, Note_on_c, 3, 63, 57
5, 171644, Note_off_c, 3, 66, 0
5, 171644, Note_off_c, 3, 56, 0
5, 171644, Note_off_c, 3, 63, 0
5, 171648, Note_on_c, 3, 55, 57
5, 171648, Note_on_c, 3, 65, 57
5, 171648, Note_on_c, 3, 63, 57
5, 171836, Note_off_c, 3, 55, 0
5, 171840, Note_on_c, 3, 55, 57
5, 172028, Note_off_c, 3, 65, 0
5, 172028, Note_off_c, 3, 63, 0
5, 172028, Note_off_c, 3, 55, 0
5, 172032, Note_on_c, 3, 55, 57
5, 172032, Note_on_c, 3, 62, 57
5, 172032, Note_on_c, 3, 67, 57
5, 172220, Note_off_c, 3, 55, 0
5, 172224, Note_on_c, 3, 55, 57
5, 172412, Note_off_c, 3, 62, 0
5, 172412, Note_off_c, 3, 67, 0
5, 172412, Note_off_c, 3, 55, 0
5, 172416, Note_on_c, 3, 55, 57
5, 172416, Note_on_c, 3, 52, 57
5, 172416, Note_on_c, 3, 43, 57
5, 172604, Note_off_c, 3, 43, 0
5, 172608, Note_on_c, 3, 43, 57
5, 172796, Note_off_c, 3, 55, 0
5, 172796, Note_off_c, 3, 52, 0
5, 172796, Note_off_c, 3, 43, 0
5, 172800, Note_on_c, 3, 53, 57
5, 173180, Note_off_c, 3, 53, 0
5, 176256, Note_on_c, 3, 48, 57
5, 176256, Note_on_c, 3, 36, 57
5, 176444, Note_off_c, 3, 48, 0
5, 176444, Note_off_c, 3, 36, 0
5, 176448, Note_on_c, 3, 48, 57
5, 176448, Note_on_c, 3, 36, 57
5, 176636, Note_off_c, 3, 48, 0
5, 176636, Note_off_c, 3, 36, 0
5, 176640, Note_on_c, 3, 48, 57
5, 176640, Note_on_c, 3, 36, 57
5, 176828, Note_off_c, 3, 48, 0
5, 176828, Note_off_c, 3, 36, 0
5, 176832, Note_on_c, 3, 48, 57
5, 176832, Note_on_c, 3, 36, 57
5, 177020, Note_off_c, 3, 48, 0
5, 177020, Note_off_c, 3, 36, 0
5, 177024, Note_on_c, 3, 48, 57
5, 177024, Note_on_c, 3, 36, 57
5, 177212, Note_off_c, 3, 48, 0
5, 177212, Note_off_c, 3, 36, 0
5, 177216, Note_on_c, 3, 48, 57
5, 177216, Note_on_c, 3, 36, 57
5, 177404, Note_off_c, 3, 48, 0
5, 177404, Note_off_c, 3, 36, 0
5, 177408, Note_on_c, 3, 48, 57
5, 177408, Note_on_c, 3, 36, 57
5, 177596, Note_off_c, 3, 48, 0
5, 177596, Note_off_c, 3, 36, 0
5, 177600, Note_on_c, 3, 48, 57
5, 177600, Note_on_c, 3, 36, 57
5, 177788, Note_off_c, 3, 48, 0
5, 177788, Note_off_c, 3, 36, 0
5, 177792, Note_on_c, 3, 48, 57
5, 177792, Note_on_c, 3, 36, 57
5, 177980, Note_off_c, 3, 48, 0
5, 177980, Note_off_c, 3, 36, 0
5, 177984, Note_on_c, 3, 48, 57
5, 177984, Note_on_c, 3, 36, 57
5, 178172, Note_off_c, 3, 48, 0
5, 178172, Note_off_c, 3, 36, 0
5, 178176, Note_on_c, 3, 48, 57
5, 178176, Note_on_c, 3, 36, 57
5, 178364, Note_off_c, 3, 48, 0
5, 178364, Note_off_c, 3, 36, 0
5, 178368, Note_on_c, 3, 48, 57
5, 178368, Note_on_c, 3, 36, 57
5, 178556, Note_off_c, 3, 48, 0
5, 178556, Note_off_c, 3, 36, 0
5, 178560, Note_on_c, 3, 48, 57
5, 178560, Note_on_c, 3, 36, 57
5, 178748, Note_off_c, 3, 48, 0
5, 178748, Note_off_c, 3, 36, 0
5, 178752, Note_on_c, 3, 48, 57
5, 178752, Note_on_c, 3, 36, 57
5, 178940, Note_off_c, 3, 48, 0
5, 178940, Note_off_c, 3, 36, 0
5, 178944, Note_on_c, 3, 48, 57
5, 178944, Note_on_c, 3, 36, 57
5, 179132, Note_off_c, 3, 48, 0
5, 179132, Note_off_c, 3, 36, 0
5, 179136, Note_on_c, 3, 48, 57
5, 179136, Note_on_c, 3, 36, 57
5, 179324, Note_off_c, 3, 48, 0
5, 179324, Note_off_c, 3, 36, 0
5, 179328, Note_on_c, 3, 48, 57
5, 179328, Note_on_c, 3, 36, 57
5, 179516, Note_off_c, 3, 48, 0
5, 179516, Note_off_c, 3, 36, 0
5, 179520, Note_on_c, 3, 48, 57
5, 179520, Note_on_c, 3, 36, 57
5, 179708, Note_off_c, 3, 48, 0
5, 179708, Note_off_c, 3, 36, 0
5, 179712, Note_on_c, 3, 48, 57
5, 179712, Note_on_c, 3, 56, 57
5, 179900, Note_off_c, 3, 48, 0
5, 179904, Note_on_c, 3, 48, 57
5, 180092, Note_off_c, 3, 48, 0
5, 180096, Note_on_c, 3, 48, 57
5, 180284, Note_off_c, 3, 48, 0
5, 180288, Note_on_c, 3, 48, 57
5, 180476, Note_off_c, 3, 56, 0
5, 180476, Note_off_c, 3, 48, 0
5, 180480, Note_on_c, 3, 48, 57
5, 180480, Note_on_c, 3, 55, 57
5, 180572, Note_off_c, 3, 55, 0
5, 180576, Note_on_c, 3, 53, 57
5, 180668, Note_off_c, 3, 48, 0
5, 180668, Note_off_c, 3, 53, 0
5, 180672, Note_on_c, 3, 48, 57
5, 180672, Note_on_c, 3, 52, 57
5, 180764, Note_off_c, 3, 52, 0
5, 180768, Note_on_c, 3, 53, 57
5, 180860, Note_off_c, 3, 48, 0
5, 180860, Note_off_c, 3, 53, 0
5, 180864, Note_on_c, 3, 52, 57
5, 180864, Note_on_c, 3, 48, 57
5, 181052, Note_off_c, 3, 52, 0
5, 181052, Note_off_c, 3, 48, 0
5, 181248, Note_on_c, 3, 53, 48
5, 181436, Note_off_c, 3, 53, 0
5, 181632, Note_on_c, 3, 65, 48
5, 181632, Note_on_c, 3, 62, 48
5, 181632, Note_on_c, 3, 55, 48
5, 181820, Note_off_c, 3, 65, 0
5, 181820, Note_off_c, 3, 62, 0
5, 181820, Note_off_c, 3, 55, 0
5, 182016, Note_on_c, 3, 62, 48
5, 182016, Note_on_c, 3, 55, 48
5, 182016, Note_on_c, 3, 48, 48
5, 182396, Note_off_c, 3, 62, 0
5, 182396, Note_off_c, 3, 55, 0
5, 182396, Note_off_c, 3, 48, 0
5, 182400, Note_on_c, 3, 60, 48
5, 182400, Note_on_c, 3, 55, 48
5, 182400, Note_on_c, 3, 48, 48
5, 182780, Note_off_c, 3, 60, 0
5, 182780, Note_off_c, 3, 55, 0
5, 182780, Note_off_c, 3, 48, 0
5, 182780, End_track
6, 0, Start_track
6, 0, Title_t, "B.Fisher"
6, 0, Key_signature, 0, "major"
6, 0, End_track
0, 0, End_of_file
