0, 0, Header, 1, 8, 384
1, 0, Start_track
1, 0, Sequencer_specific, 3, 0, 0, 65
1, 0, Time_signature, 3, 2, 24, 8
1, 0, Key_signature, 0, "major"
1, 0, Tempo, 1200000
1, 117504, Tempo, 1363636
1, 118656, Tempo, 1578947
1, 119040, Tempo, 1363636
1, 119808, Tempo, 1200000
1, 134784, Tempo, 1363636
1, 134784, End_track
2, 0, Start_track
2, 0, MIDI_port, 0
2, 0, Title_t, "Mozart"
2, 0, Control_c, 0, 0, 0
2, 0, Control_c, 0, 32, 0
2, 0, Program_c, 0, 73
2, 0, Control_c, 0, 7, 113
2, 0, Control_c, 0, 10, 63
2, 0, Control_c, 0, 91, 72
2, 0, Control_c, 0, 93, 45
2, 0, Control_c, 0, 121, 0
2, 96, Control_c, 0, 10, 63
2, 192, Control_c, 0, 91, 63
2, 240, Control_c, 0, 93, 40
2, 288, Program_c, 0, 73
2, 328, Control_c, 0, 1, 10
2, 14976, Note_on_c, 0, 81, 70
2, 15260, Note_on_c, 0, 81, 0
2, 15360, Note_on_c, 0, 81, 70
2, 15644, Note_on_c, 0, 81, 0
2, 15744, Note_on_c, 0, 81, 70
2, 16028, Note_on_c, 0, 81, 0
2, 16128, Note_on_c, 0, 79, 105
2, 16800, Note_on_c, 0, 79, 0
2, 16800, Note_on_c, 0, 76, 91
2, 16892, Note_on_c, 0, 76, 0
2, 16896, Note_on_c, 0, 77, 77
2, 17084, Note_on_c, 0, 77, 0
2, 17280, Note_on_c, 0, 77, 70
2, 18428, Note_on_c, 0, 77, 0
2, 18432, Note_on_c, 0, 82, 70
2, 19100, Note_on_c, 0, 82, 0
2, 19104, Note_on_c, 0, 84, 70
2, 19148, Note_on_c, 0, 84, 0
2, 19152, Note_on_c, 0, 86, 70
2, 19196, Note_on_c, 0, 86, 0
2, 19200, Note_on_c, 0, 84, 70
2, 19484, Note_on_c, 0, 84, 0
2, 19584, Note_on_c, 0, 69, 115
2, 19704, Note_on_c, 0, 69, 0
2, 19704, Note_on_c, 0, 81, 105
2, 20156, Note_on_c, 0, 81, 0
2, 20160, Note_on_c, 0, 82, 105
2, 20252, Note_on_c, 0, 82, 0
2, 20256, Note_on_c, 0, 84, 105
2, 20348, Note_on_c, 0, 84, 0
2, 20352, Note_on_c, 0, 88, 99
2, 20444, Note_on_c, 0, 88, 0
2, 20448, Note_on_c, 0, 86, 101
2, 20540, Note_on_c, 0, 86, 0
2, 20544, Note_on_c, 0, 84, 103
2, 20636, Note_on_c, 0, 84, 0
2, 20640, Note_on_c, 0, 82, 105
2, 20732, Note_on_c, 0, 82, 0
2, 20736, Note_on_c, 0, 81, 105
2, 20924, Note_on_c, 0, 81, 0
2, 20928, Note_on_c, 0, 79, 105
2, 21308, Note_on_c, 0, 79, 0
2, 21312, Note_on_c, 0, 81, 105
2, 21404, Note_on_c, 0, 81, 0
2, 21408, Note_on_c, 0, 82, 105
2, 21500, Note_on_c, 0, 82, 0
2, 21504, Note_on_c, 0, 86, 105
2, 21596, Note_on_c, 0, 86, 0
2, 21600, Note_on_c, 0, 84, 105
2, 21692, Note_on_c, 0, 84, 0
2, 21696, Note_on_c, 0, 82, 105
2, 21788, Note_on_c, 0, 82, 0
2, 21792, Note_on_c, 0, 81, 105
2, 21884, Note_on_c, 0, 81, 0
2, 21888, Note_on_c, 0, 79, 105
2, 22076, Note_on_c, 0, 79, 0
2, 22080, Note_on_c, 0, 77, 105
2, 22460, Note_on_c, 0, 77, 0
2, 22464, Note_on_c, 0, 79, 105
2, 22556, Note_on_c, 0, 79, 0
2, 22560, Note_on_c, 0, 81, 105
2, 22652, Note_on_c, 0, 81, 0
2, 22656, Note_on_c, 0, 82, 105
2, 22748, Note_on_c, 0, 82, 0
2, 22752, Note_on_c, 0, 84, 105
2, 22844, Note_on_c, 0, 84, 0
2, 22848, Note_on_c, 0, 86, 105
2, 22940, Note_on_c, 0, 86, 0
2, 22944, Note_on_c, 0, 82, 105
2, 23036, Note_on_c, 0, 82, 0
2, 23040, Note_on_c, 0, 81, 105
2, 23420, Note_on_c, 0, 81, 0
2, 23424, Note_on_c, 0, 79, 105
2, 23804, Note_on_c, 0, 79, 0
2, 24192, Note_on_c, 0, 79, 61
2, 24764, Note_on_c, 0, 79, 0
2, 24768, Note_on_c, 0, 81, 61
2, 24860, Note_on_c, 0, 81, 0
2, 24864, Note_on_c, 0, 79, 61
2, 24956, Note_on_c, 0, 79, 0
2, 24960, Note_on_c, 0, 84, 61
2, 25052, Note_on_c, 0, 84, 0
2, 25056, Note_on_c, 0, 83, 61
2, 25148, Note_on_c, 0, 83, 0
2, 25152, Note_on_c, 0, 81, 61
2, 25244, Note_on_c, 0, 81, 0
2, 25248, Note_on_c, 0, 79, 61
2, 25340, Note_on_c, 0, 79, 0
2, 25344, Note_on_c, 0, 79, 61
2, 25628, Note_on_c, 0, 79, 0
2, 25632, Note_on_c, 0, 81, 61
2, 25724, Note_on_c, 0, 81, 0
2, 25728, Note_on_c, 0, 79, 61
2, 26108, Note_on_c, 0, 79, 0
2, 26496, Note_on_c, 0, 74, 85
2, 26612, Note_on_c, 0, 74, 0
2, 26616, Note_on_c, 0, 86, 61
2, 26872, Note_on_c, 0, 86, 0
2, 26880, Note_on_c, 0, 84, 61
2, 26972, Note_on_c, 0, 84, 0
2, 26976, Note_on_c, 0, 83, 61
2, 27068, Note_on_c, 0, 83, 0
2, 27072, Note_on_c, 0, 81, 61
2, 27164, Note_on_c, 0, 81, 0
2, 27168, Note_on_c, 0, 79, 61
2, 27260, Note_on_c, 0, 79, 0
2, 27264, Note_on_c, 0, 79, 61
2, 27452, Note_on_c, 0, 79, 0
2, 27456, Note_on_c, 0, 79, 61
2, 27644, Note_on_c, 0, 79, 0
2, 27648, Note_on_c, 0, 79, 61
2, 27932, Note_on_c, 0, 79, 0
2, 27936, Note_on_c, 0, 76, 61
2, 28028, Note_on_c, 0, 76, 0
2, 28032, Note_on_c, 0, 79, 61
2, 28412, Note_on_c, 0, 79, 0
2, 30336, Note_on_c, 0, 79, 70
2, 30620, Note_on_c, 0, 79, 0
2, 30624, Note_on_c, 0, 81, 70
2, 30716, Note_on_c, 0, 81, 0
2, 30720, Note_on_c, 0, 79, 70
2, 31100, Note_on_c, 0, 79, 0
2, 32640, Note_on_c, 0, 79, 70
2, 32924, Note_on_c, 0, 79, 0
2, 32928, Note_on_c, 0, 76, 70
2, 33020, Note_on_c, 0, 76, 0
2, 33024, Note_on_c, 0, 79, 70
2, 33212, Note_on_c, 0, 79, 0
2, 33216, Note_on_c, 0, 79, 70
2, 33404, Note_on_c, 0, 79, 0
2, 33408, Note_on_c, 0, 84, 78
2, 33788, Note_on_c, 0, 84, 0
2, 33792, Note_on_c, 0, 83, 78
2, 33884, Note_on_c, 0, 83, 0
2, 33888, Note_on_c, 0, 81, 78
2, 33980, Note_on_c, 0, 81, 0
2, 33984, Note_on_c, 0, 79, 78
2, 34076, Note_on_c, 0, 79, 0
2, 34080, Note_on_c, 0, 78, 78
2, 34172, Note_on_c, 0, 78, 0
2, 34176, Note_on_c, 0, 78, 78
2, 34364, Note_on_c, 0, 78, 0
2, 34368, Note_on_c, 0, 78, 78
2, 34556, Note_on_c, 0, 78, 0
2, 34560, Note_on_c, 0, 81, 78
2, 34652, Note_on_c, 0, 81, 0
2, 34656, Note_on_c, 0, 79, 78
2, 34736, Note_on_c, 0, 79, 78
2, 34748, Note_on_c, 0, 79, 0
2, 35116, Note_on_c, 0, 79, 0
2, 35136, Note_on_c, 0, 83, 78
2, 35228, Note_on_c, 0, 83, 0
2, 35232, Note_on_c, 0, 86, 78
2, 35324, Note_on_c, 0, 86, 0
2, 35328, Note_on_c, 0, 84, 78
2, 35420, Note_on_c, 0, 84, 0
2, 35424, Note_on_c, 0, 81, 78
2, 35516, Note_on_c, 0, 81, 0
2, 35520, Note_on_c, 0, 79, 78
2, 35612, Note_on_c, 0, 79, 0
2, 35616, Note_on_c, 0, 78, 78
2, 35708, Note_on_c, 0, 78, 0
2, 35712, Note_on_c, 0, 79, 70
2, 35736, Note_on_c, 0, 79, 0
2, 35736, Note_on_c, 0, 81, 70
2, 35760, Note_on_c, 0, 81, 0
2, 35760, Note_on_c, 0, 79, 70
2, 35784, Note_on_c, 0, 79, 0
2, 35784, Note_on_c, 0, 81, 70
2, 35808, Note_on_c, 0, 81, 0
2, 35808, Note_on_c, 0, 79, 70
2, 35832, Note_on_c, 0, 79, 0
2, 35832, Note_on_c, 0, 81, 70
2, 35856, Note_on_c, 0, 81, 0
2, 35856, Note_on_c, 0, 79, 70
2, 35880, Note_on_c, 0, 79, 0
2, 35880, Note_on_c, 0, 81, 70
2, 35904, Note_on_c, 0, 81, 0
2, 35904, Note_on_c, 0, 79, 70
2, 35928, Note_on_c, 0, 79, 0
2, 35928, Note_on_c, 0, 81, 70
2, 35952, Note_on_c, 0, 81, 0
2, 35952, Note_on_c, 0, 79, 70
2, 35976, Note_on_c, 0, 79, 0
2, 35976, Note_on_c, 0, 81, 70
2, 36000, Note_on_c, 0, 81, 0
2, 36000, Note_on_c, 0, 78, 70
2, 36040, Note_on_c, 0, 78, 0
2, 36048, Note_on_c, 0, 79, 70
2, 36088, Note_on_c, 0, 79, 0
2, 36096, Note_on_c, 0, 67, 87
2, 36668, Note_on_c, 0, 67, 0
2, 40704, Note_on_c, 0, 77, 78
2, 41064, Note_on_c, 0, 77, 0
2, 41088, Note_on_c, 0, 89, 70
2, 41160, Note_on_c, 0, 89, 0
2, 41184, Note_on_c, 0, 86, 70
2, 41256, Note_on_c, 0, 86, 0
2, 41280, Note_on_c, 0, 83, 70
2, 41352, Note_on_c, 0, 83, 0
2, 41376, Note_on_c, 0, 77, 70
2, 41448, Note_on_c, 0, 77, 0
2, 41472, Note_on_c, 0, 76, 70
2, 41756, Note_on_c, 0, 76, 0
2, 41856, Note_on_c, 0, 76, 70
2, 41880, Note_on_c, 0, 76, 0
2, 41880, Note_on_c, 0, 77, 70
2, 41904, Note_on_c, 0, 77, 0
2, 41904, Note_on_c, 0, 76, 70
2, 41928, Note_on_c, 0, 76, 0
2, 41928, Note_on_c, 0, 77, 70
2, 41952, Note_on_c, 0, 77, 0
2, 41952, Note_on_c, 0, 76, 70
2, 41976, Note_on_c, 0, 76, 0
2, 41976, Note_on_c, 0, 77, 70
2, 42000, Note_on_c, 0, 77, 0
2, 42000, Note_on_c, 0, 76, 70
2, 42024, Note_on_c, 0, 76, 0
2, 42024, Note_on_c, 0, 77, 70
2, 42048, Note_on_c, 0, 77, 0
2, 42048, Note_on_c, 0, 76, 70
2, 42072, Note_on_c, 0, 76, 0
2, 42072, Note_on_c, 0, 77, 70
2, 42096, Note_on_c, 0, 77, 0
2, 42096, Note_on_c, 0, 76, 70
2, 42120, Note_on_c, 0, 76, 0
2, 42120, Note_on_c, 0, 77, 70
2, 42144, Note_on_c, 0, 77, 0
2, 42144, Note_on_c, 0, 74, 70
2, 42184, Note_on_c, 0, 74, 0
2, 42192, Note_on_c, 0, 76, 70
2, 42232, Note_on_c, 0, 76, 0
2, 42240, Note_on_c, 0, 77, 70
2, 42264, Note_on_c, 0, 77, 0
2, 42264, Note_on_c, 0, 79, 70
2, 42288, Note_on_c, 0, 79, 0
2, 42288, Note_on_c, 0, 77, 70
2, 42312, Note_on_c, 0, 77, 0
2, 42312, Note_on_c, 0, 79, 70
2, 42336, Note_on_c, 0, 79, 0
2, 42336, Note_on_c, 0, 77, 70
2, 42360, Note_on_c, 0, 77, 0
2, 42360, Note_on_c, 0, 79, 70
2, 42384, Note_on_c, 0, 79, 0
2, 42384, Note_on_c, 0, 77, 70
2, 42408, Note_on_c, 0, 77, 0
2, 42408, Note_on_c, 0, 79, 70
2, 42432, Note_on_c, 0, 79, 0
2, 42432, Note_on_c, 0, 77, 70
2, 42456, Note_on_c, 0, 77, 0
2, 42456, Note_on_c, 0, 79, 70
2, 42480, Note_on_c, 0, 79, 0
2, 42480, Note_on_c, 0, 77, 70
2, 42504, Note_on_c, 0, 77, 0
2, 42504, Note_on_c, 0, 79, 70
2, 42528, Note_on_c, 0, 79, 0
2, 42528, Note_on_c, 0, 76, 70
2, 42568, Note_on_c, 0, 76, 0
2, 42576, Note_on_c, 0, 77, 70
2, 42616, Note_on_c, 0, 77, 0
2, 42624, Note_on_c, 0, 79, 70
2, 42892, Note_on_c, 0, 79, 0
2, 42912, Note_on_c, 0, 76, 70
2, 42992, Note_on_c, 0, 76, 0
2, 43008, Note_on_c, 0, 84, 75
2, 43568, Note_on_c, 0, 84, 0
2, 43584, Note_on_c, 0, 79, 65
2, 43760, Note_on_c, 0, 79, 0
2, 43776, Note_on_c, 0, 79, 61
2, 43868, Note_on_c, 0, 79, 0
2, 43872, Note_on_c, 0, 77, 61
2, 43964, Note_on_c, 0, 77, 0
2, 43968, Note_on_c, 0, 81, 61
2, 44016, Note_on_c, 0, 81, 0
2, 44064, Note_on_c, 0, 77, 61
2, 44112, Note_on_c, 0, 77, 0
2, 44160, Note_on_c, 0, 77, 61
2, 44252, Note_on_c, 0, 77, 0
2, 44256, Note_on_c, 0, 76, 61
2, 44348, Note_on_c, 0, 76, 0
2, 44352, Note_on_c, 0, 79, 61
2, 44400, Note_on_c, 0, 79, 0
2, 44448, Note_on_c, 0, 76, 61
2, 44496, Note_on_c, 0, 76, 0
2, 44544, Note_on_c, 0, 76, 61
2, 44636, Note_on_c, 0, 76, 0
2, 44640, Note_on_c, 0, 74, 61
2, 44732, Note_on_c, 0, 74, 0
2, 44736, Note_on_c, 0, 77, 61
2, 44784, Note_on_c, 0, 77, 0
2, 44832, Note_on_c, 0, 74, 61
2, 44880, Note_on_c, 0, 74, 0
2, 44928, Note_on_c, 0, 72, 87
2, 45500, Note_on_c, 0, 72, 0
2, 48768, Note_on_c, 0, 77, 70
2, 48956, Note_on_c, 0, 77, 0
2, 48960, Note_on_c, 0, 89, 77
2, 49244, Note_on_c, 0, 89, 0
2, 49248, Note_on_c, 0, 86, 73
2, 49340, Note_on_c, 0, 86, 0
2, 49344, Note_on_c, 0, 83, 71
2, 49436, Note_on_c, 0, 83, 0
2, 49440, Note_on_c, 0, 77, 70
2, 49532, Note_on_c, 0, 77, 0
2, 49536, Note_on_c, 0, 76, 70
2, 49820, Note_on_c, 0, 76, 0
2, 49920, Note_on_c, 0, 76, 70
2, 49944, Note_on_c, 0, 76, 0
2, 49944, Note_on_c, 0, 77, 70
2, 49968, Note_on_c, 0, 77, 0
2, 49968, Note_on_c, 0, 76, 70
2, 49992, Note_on_c, 0, 76, 0
2, 49992, Note_on_c, 0, 77, 70
2, 50016, Note_on_c, 0, 77, 0
2, 50016, Note_on_c, 0, 76, 70
2, 50040, Note_on_c, 0, 76, 0
2, 50040, Note_on_c, 0, 77, 70
2, 50064, Note_on_c, 0, 77, 0
2, 50064, Note_on_c, 0, 76, 70
2, 50088, Note_on_c, 0, 76, 0
2, 50088, Note_on_c, 0, 77, 70
2, 50112, Note_on_c, 0, 77, 0
2, 50112, Note_on_c, 0, 76, 70
2, 50136, Note_on_c, 0, 76, 0
2, 50136, Note_on_c, 0, 77, 70
2, 50160, Note_on_c, 0, 77, 0
2, 50160, Note_on_c, 0, 76, 70
2, 50184, Note_on_c, 0, 76, 0
2, 50184, Note_on_c, 0, 77, 70
2, 50208, Note_on_c, 0, 77, 0
2, 50208, Note_on_c, 0, 74, 70
2, 50248, Note_on_c, 0, 74, 0
2, 50256, Note_on_c, 0, 76, 70
2, 50296, Note_on_c, 0, 76, 0
2, 50304, Note_on_c, 0, 77, 70
2, 50328, Note_on_c, 0, 77, 0
2, 50328, Note_on_c, 0, 79, 70
2, 50352, Note_on_c, 0, 79, 0
2, 50352, Note_on_c, 0, 77, 70
2, 50376, Note_on_c, 0, 77, 0
2, 50376, Note_on_c, 0, 79, 70
2, 50400, Note_on_c, 0, 79, 0
2, 50400, Note_on_c, 0, 77, 70
2, 50424, Note_on_c, 0, 77, 0
2, 50424, Note_on_c, 0, 79, 70
2, 50448, Note_on_c, 0, 79, 0
2, 50448, Note_on_c, 0, 77, 70
2, 50472, Note_on_c, 0, 77, 0
2, 50472, Note_on_c, 0, 79, 70
2, 50496, Note_on_c, 0, 79, 0
2, 50496, Note_on_c, 0, 77, 70
2, 50520, Note_on_c, 0, 77, 0
2, 50520, Note_on_c, 0, 79, 70
2, 50544, Note_on_c, 0, 79, 0
2, 50544, Note_on_c, 0, 77, 70
2, 50568, Note_on_c, 0, 77, 0
2, 50568, Note_on_c, 0, 79, 70
2, 50592, Note_on_c, 0, 79, 0
2, 50592, Note_on_c, 0, 76, 70
2, 50632, Note_on_c, 0, 76, 0
2, 50640, Note_on_c, 0, 77, 70
2, 50680, Note_on_c, 0, 77, 0
2, 50688, Note_on_c, 0, 79, 70
2, 50964, Note_on_c, 0, 79, 0
2, 50976, Note_on_c, 0, 76, 70
2, 51060, Note_on_c, 0, 76, 0
2, 51072, Note_on_c, 0, 79, 70
2, 51452, Note_on_c, 0, 79, 0
2, 51840, Note_on_c, 0, 76, 71
2, 52124, Note_on_c, 0, 76, 0
2, 52224, Note_on_c, 0, 76, 73
2, 52248, Note_on_c, 0, 76, 0
2, 52248, Note_on_c, 0, 77, 73
2, 52272, Note_on_c, 0, 77, 0
2, 52272, Note_on_c, 0, 76, 73
2, 52296, Note_on_c, 0, 76, 0
2, 52296, Note_on_c, 0, 77, 73
2, 52320, Note_on_c, 0, 77, 0
2, 52320, Note_on_c, 0, 76, 74
2, 52344, Note_on_c, 0, 76, 0
2, 52344, Note_on_c, 0, 77, 74
2, 52368, Note_on_c, 0, 77, 0
2, 52368, Note_on_c, 0, 76, 74
2, 52392, Note_on_c, 0, 76, 0
2, 52392, Note_on_c, 0, 77, 74
2, 52416, Note_on_c, 0, 77, 0
2, 52416, Note_on_c, 0, 76, 74
2, 52440, Note_on_c, 0, 76, 0
2, 52440, Note_on_c, 0, 77, 74
2, 52464, Note_on_c, 0, 77, 0
2, 52464, Note_on_c, 0, 76, 75
2, 52488, Note_on_c, 0, 76, 0
2, 52488, Note_on_c, 0, 77, 75
2, 52512, Note_on_c, 0, 77, 0
2, 52512, Note_on_c, 0, 74, 75
2, 52552, Note_on_c, 0, 74, 0
2, 52560, Note_on_c, 0, 76, 75
2, 52600, Note_on_c, 0, 76, 0
2, 52608, Note_on_c, 0, 77, 76
2, 52632, Note_on_c, 0, 77, 0
2, 52632, Note_on_c, 0, 79, 76
2, 52640, Note_on_c, 0, 77, 76
2, 52656, Note_on_c, 0, 79, 0
2, 52664, Note_on_c, 0, 77, 0
2, 52680, Note_on_c, 0, 79, 76
2, 52704, Note_on_c, 0, 79, 0
2, 52704, Note_on_c, 0, 77, 76
2, 52728, Note_on_c, 0, 77, 0
2, 52728, Note_on_c, 0, 79, 76
2, 52752, Note_on_c, 0, 79, 0
2, 52752, Note_on_c, 0, 77, 76
2, 52776, Note_on_c, 0, 77, 0
2, 52776, Note_on_c, 0, 79, 77
2, 52800, Note_on_c, 0, 79, 0
2, 52800, Note_on_c, 0, 77, 77
2, 52824, Note_on_c, 0, 77, 0
2, 52824, Note_on_c, 0, 79, 77
2, 52848, Note_on_c, 0, 79, 0
2, 52848, Note_on_c, 0, 77, 77
2, 52872, Note_on_c, 0, 77, 0
2, 52872, Note_on_c, 0, 79, 77
2, 52896, Note_on_c, 0, 79, 0
2, 52896, Note_on_c, 0, 76, 77
2, 52936, Note_on_c, 0, 76, 0
2, 52944, Note_on_c, 0, 77, 78
2, 52984, Note_on_c, 0, 77, 0
2, 52992, Note_on_c, 0, 79, 78
2, 53084, Note_on_c, 0, 79, 0
2, 53088, Note_on_c, 0, 76, 78
2, 53180, Note_on_c, 0, 76, 0
2, 53184, Note_on_c, 0, 79, 78
2, 53232, Note_on_c, 0, 79, 0
2, 53280, Note_on_c, 0, 79, 79
2, 53328, Note_on_c, 0, 79, 0
2, 53376, Note_on_c, 0, 79, 80
2, 53756, Note_on_c, 0, 79, 0
2, 54144, Note_on_c, 0, 84, 84
2, 54332, Note_on_c, 0, 84, 0
2, 54336, Note_on_c, 0, 83, 82
2, 54524, Note_on_c, 0, 83, 0
2, 54528, Note_on_c, 0, 81, 79
2, 54716, Note_on_c, 0, 81, 0
2, 54720, Note_on_c, 0, 79, 78
2, 54908, Note_on_c, 0, 79, 0
2, 54912, Note_on_c, 0, 77, 75
2, 55100, Note_on_c, 0, 77, 0
2, 55104, Note_on_c, 0, 76, 73
2, 55292, Note_on_c, 0, 76, 0
2, 55296, Note_on_c, 0, 74, 71
2, 55336, Note_on_c, 0, 74, 0
2, 55344, Note_on_c, 0, 76, 72
2, 55384, Note_on_c, 0, 76, 0
2, 55392, Note_on_c, 0, 74, 73
2, 55432, Note_on_c, 0, 74, 0
2, 55440, Note_on_c, 0, 73, 74
2, 55480, Note_on_c, 0, 73, 0
2, 55488, Note_on_c, 0, 74, 75
2, 55576, Note_on_c, 0, 74, 0
2, 55584, Note_on_c, 0, 76, 77
2, 55632, Note_on_c, 0, 76, 0
2, 55680, Note_on_c, 0, 77, 78
2, 55720, Note_on_c, 0, 77, 0
2, 55728, Note_on_c, 0, 79, 79
2, 55768, Note_on_c, 0, 79, 0
2, 55776, Note_on_c, 0, 77, 80
2, 55816, Note_on_c, 0, 77, 0
2, 55824, Note_on_c, 0, 76, 81
2, 55864, Note_on_c, 0, 76, 0
2, 55872, Note_on_c, 0, 77, 82
2, 55960, Note_on_c, 0, 77, 0
2, 55968, Note_on_c, 0, 79, 84
2, 56016, Note_on_c, 0, 79, 0
2, 56064, Note_on_c, 0, 81, 86
2, 56104, Note_on_c, 0, 81, 0
2, 56112, Note_on_c, 0, 83, 87
2, 56152, Note_on_c, 0, 83, 0
2, 56160, Note_on_c, 0, 81, 88
2, 56200, Note_on_c, 0, 81, 0
2, 56208, Note_on_c, 0, 79, 89
2, 56248, Note_on_c, 0, 79, 0
2, 56256, Note_on_c, 0, 81, 90
2, 56344, Note_on_c, 0, 81, 0
2, 56352, Note_on_c, 0, 83, 92
2, 56400, Note_on_c, 0, 83, 0
2, 56448, Note_on_c, 0, 84, 94
2, 56536, Note_on_c, 0, 84, 0
2, 56544, Note_on_c, 0, 79, 94
2, 56632, Note_on_c, 0, 79, 0
2, 56640, Note_on_c, 0, 83, 94
2, 56680, Note_on_c, 0, 83, 0
2, 56688, Note_on_c, 0, 81, 94
2, 56728, Note_on_c, 0, 81, 0
2, 56736, Note_on_c, 0, 79, 94
2, 56776, Note_on_c, 0, 79, 0
2, 56784, Note_on_c, 0, 77, 94
2, 56824, Note_on_c, 0, 77, 0
2, 56832, Note_on_c, 0, 76, 94
2, 57212, Note_on_c, 0, 76, 0
2, 57216, Note_on_c, 0, 74, 94
2, 57240, Note_on_c, 0, 74, 0
2, 57240, Note_on_c, 0, 76, 94
2, 57264, Note_on_c, 0, 76, 0
2, 57264, Note_on_c, 0, 74, 94
2, 57288, Note_on_c, 0, 74, 0
2, 57288, Note_on_c, 0, 76, 94
2, 57312, Note_on_c, 0, 76, 0
2, 57312, Note_on_c, 0, 74, 94
2, 57336, Note_on_c, 0, 74, 0
2, 57336, Note_on_c, 0, 76, 94
2, 57360, Note_on_c, 0, 76, 0
2, 57360, Note_on_c, 0, 74, 94
2, 57384, Note_on_c, 0, 74, 0
2, 57384, Note_on_c, 0, 76, 94
2, 57408, Note_on_c, 0, 76, 0
2, 57408, Note_on_c, 0, 72, 94
2, 57500, Note_on_c, 0, 72, 0
2, 57504, Note_on_c, 0, 74, 94
2, 57596, Note_on_c, 0, 74, 0
2, 57600, Note_on_c, 0, 72, 94
2, 57980, Note_on_c, 0, 72, 0
2, 61056, Note_on_c, 0, 84, 84
2, 62204, Note_on_c, 0, 84, 0
2, 62208, Note_on_c, 0, 83, 89
2, 63356, Note_on_c, 0, 83, 0
2, 63360, Note_on_c, 0, 82, 94
2, 64508, Note_on_c, 0, 82, 0
2, 64512, Note_on_c, 0, 81, 95
2, 65660, Note_on_c, 0, 81, 0
2, 65664, Note_on_c, 0, 82, 94
2, 65948, Note_on_c, 0, 82, 0
2, 66048, Note_on_c, 0, 82, 86
2, 66072, Note_on_c, 0, 82, 0
2, 66072, Note_on_c, 0, 84, 85
2, 66096, Note_on_c, 0, 84, 0
2, 66096, Note_on_c, 0, 82, 85
2, 66120, Note_on_c, 0, 82, 0
2, 66120, Note_on_c, 0, 84, 84
2, 66144, Note_on_c, 0, 84, 0
2, 66144, Note_on_c, 0, 82, 84
2, 66168, Note_on_c, 0, 82, 0
2, 66168, Note_on_c, 0, 84, 83
2, 66192, Note_on_c, 0, 84, 0
2, 66192, Note_on_c, 0, 82, 83
2, 66216, Note_on_c, 0, 82, 0
2, 66216, Note_on_c, 0, 84, 82
2, 66240, Note_on_c, 0, 84, 0
2, 66240, Note_on_c, 0, 82, 81
2, 66264, Note_on_c, 0, 82, 0
2, 66264, Note_on_c, 0, 84, 81
2, 66288, Note_on_c, 0, 84, 0
2, 66288, Note_on_c, 0, 82, 80
2, 66312, Note_on_c, 0, 82, 0
2, 66312, Note_on_c, 0, 84, 80
2, 66336, Note_on_c, 0, 84, 0
2, 66336, Note_on_c, 0, 82, 79
2, 66360, Note_on_c, 0, 82, 0
2, 66360, Note_on_c, 0, 84, 79
2, 66384, Note_on_c, 0, 84, 0
2, 66384, Note_on_c, 0, 81, 78
2, 66408, Note_on_c, 0, 81, 0
2, 66408, Note_on_c, 0, 82, 78
2, 66432, Note_on_c, 0, 82, 0
2, 66432, Note_on_c, 0, 82, 78
2, 66716, Note_on_c, 0, 82, 0
2, 66720, Note_on_c, 0, 81, 72
2, 66764, Note_on_c, 0, 81, 0
2, 66768, Note_on_c, 0, 82, 70
2, 66812, Note_on_c, 0, 82, 0
2, 66816, Note_on_c, 0, 81, 70
2, 67100, Note_on_c, 0, 81, 0
2, 67200, Note_on_c, 0, 81, 70
2, 67484, Note_on_c, 0, 81, 0
2, 67584, Note_on_c, 0, 81, 70
2, 67868, Note_on_c, 0, 81, 0
2, 67968, Note_on_c, 0, 79, 94
2, 68632, Note_on_c, 0, 79, 0
2, 68640, Note_on_c, 0, 76, 89
2, 68732, Note_on_c, 0, 76, 0
2, 68736, Note_on_c, 0, 77, 79
2, 68924, Note_on_c, 0, 77, 0
2, 69120, Note_on_c, 0, 77, 70
2, 70268, Note_on_c, 0, 77, 0
2, 70272, Note_on_c, 0, 82, 84
2, 70936, Note_on_c, 0, 82, 0
2, 70944, Note_on_c, 0, 84, 79
2, 70984, Note_on_c, 0, 84, 0
2, 70992, Note_on_c, 0, 86, 75
2, 71032, Note_on_c, 0, 86, 0
2, 71040, Note_on_c, 0, 84, 70
2, 71228, Note_on_c, 0, 84, 0
2, 71424, Note_on_c, 0, 69, 110
2, 71544, Note_on_c, 0, 69, 0
2, 71544, Note_on_c, 0, 81, 94
2, 71996, Note_on_c, 0, 81, 0
2, 72000, Note_on_c, 0, 82, 94
2, 72096, Note_on_c, 0, 84, 94
2, 72188, Note_on_c, 0, 84, 0
2, 72188, Note_on_c, 0, 82, 0
2, 72192, Note_on_c, 0, 88, 94
2, 72284, Note_on_c, 0, 88, 0
2, 72288, Note_on_c, 0, 86, 94
2, 72380, Note_on_c, 0, 86, 0
2, 72384, Note_on_c, 0, 84, 94
2, 72476, Note_on_c, 0, 84, 0
2, 72480, Note_on_c, 0, 82, 94
2, 72572, Note_on_c, 0, 82, 0
2, 72576, Note_on_c, 0, 81, 94
2, 72764, Note_on_c, 0, 81, 0
2, 72768, Note_on_c, 0, 79, 94
2, 73148, Note_on_c, 0, 79, 0
2, 73152, Note_on_c, 0, 81, 94
2, 73244, Note_on_c, 0, 81, 0
2, 73248, Note_on_c, 0, 82, 94
2, 73340, Note_on_c, 0, 82, 0
2, 73344, Note_on_c, 0, 86, 94
2, 73436, Note_on_c, 0, 86, 0
2, 73440, Note_on_c, 0, 84, 94
2, 73532, Note_on_c, 0, 84, 0
2, 73536, Note_on_c, 0, 82, 94
2, 73628, Note_on_c, 0, 82, 0
2, 73632, Note_on_c, 0, 81, 94
2, 73724, Note_on_c, 0, 81, 0
2, 73728, Note_on_c, 0, 79, 94
2, 73916, Note_on_c, 0, 79, 0
2, 73920, Note_on_c, 0, 77, 94
2, 74300, Note_on_c, 0, 77, 0
2, 74304, Note_on_c, 0, 79, 94
2, 74396, Note_on_c, 0, 79, 0
2, 74400, Note_on_c, 0, 81, 94
2, 74492, Note_on_c, 0, 81, 0
2, 74496, Note_on_c, 0, 82, 94
2, 74588, Note_on_c, 0, 82, 0
2, 74592, Note_on_c, 0, 84, 94
2, 74684, Note_on_c, 0, 84, 0
2, 74688, Note_on_c, 0, 86, 94
2, 74780, Note_on_c, 0, 86, 0
2, 74784, Note_on_c, 0, 82, 94
2, 74876, Note_on_c, 0, 82, 0
2, 74880, Note_on_c, 0, 81, 94
2, 75260, Note_on_c, 0, 81, 0
2, 75264, Note_on_c, 0, 79, 94
2, 75836, Note_on_c, 0, 79, 0
2, 76032, Note_on_c, 0, 79, 61
2, 76604, Note_on_c, 0, 79, 0
2, 76608, Note_on_c, 0, 81, 61
2, 76700, Note_on_c, 0, 81, 0
2, 76704, Note_on_c, 0, 79, 61
2, 76796, Note_on_c, 0, 79, 0
2, 76800, Note_on_c, 0, 84, 61
2, 76892, Note_on_c, 0, 84, 0
2, 76896, Note_on_c, 0, 83, 61
2, 76988, Note_on_c, 0, 83, 0
2, 76992, Note_on_c, 0, 81, 61
2, 77084, Note_on_c, 0, 81, 0
2, 77088, Note_on_c, 0, 79, 61
2, 77180, Note_on_c, 0, 79, 0
2, 77184, Note_on_c, 0, 79, 61
2, 77468, Note_on_c, 0, 79, 0
2, 77472, Note_on_c, 0, 81, 61
2, 77564, Note_on_c, 0, 81, 0
2, 77568, Note_on_c, 0, 79, 61
2, 77948, Note_on_c, 0, 79, 0
2, 78336, Note_on_c, 0, 74, 85
2, 78456, Note_on_c, 0, 74, 0
2, 78456, Note_on_c, 0, 86, 61
2, 78712, Note_on_c, 0, 86, 0
2, 78720, Note_on_c, 0, 84, 61
2, 78812, Note_on_c, 0, 84, 0
2, 78816, Note_on_c, 0, 83, 61
2, 78908, Note_on_c, 0, 83, 0
2, 78912, Note_on_c, 0, 81, 61
2, 79004, Note_on_c, 0, 81, 0
2, 79008, Note_on_c, 0, 79, 61
2, 79100, Note_on_c, 0, 79, 0
2, 79104, Note_on_c, 0, 79, 61
2, 79292, Note_on_c, 0, 79, 0
2, 79296, Note_on_c, 0, 79, 61
2, 79484, Note_on_c, 0, 79, 0
2, 79488, Note_on_c, 0, 79, 61
2, 79772, Note_on_c, 0, 79, 0
2, 79776, Note_on_c, 0, 76, 61
2, 79868, Note_on_c, 0, 76, 0
2, 79872, Note_on_c, 0, 79, 61
2, 80252, Note_on_c, 0, 79, 0
2, 82192, Note_on_c, 0, 84, 70
2, 82464, Note_on_c, 0, 86, 70
2, 82476, Note_on_c, 0, 84, 0
2, 82556, Note_on_c, 0, 86, 0
2, 82560, Note_on_c, 0, 84, 70
2, 82940, Note_on_c, 0, 84, 0
2, 84480, Note_on_c, 0, 84, 70
2, 84764, Note_on_c, 0, 84, 0
2, 84768, Note_on_c, 0, 81, 70
2, 84860, Note_on_c, 0, 81, 0
2, 84864, Note_on_c, 0, 84, 75
2, 85052, Note_on_c, 0, 84, 0
2, 85056, Note_on_c, 0, 84, 78
2, 85244, Note_on_c, 0, 84, 0
2, 85248, Note_on_c, 0, 84, 79
2, 85340, Note_on_c, 0, 84, 0
2, 85344, Note_on_c, 0, 83, 79
2, 85436, Note_on_c, 0, 83, 0
2, 85440, Note_on_c, 0, 81, 79
2, 85628, Note_on_c, 0, 81, 0
2, 85632, Note_on_c, 0, 83, 79
2, 85724, Note_on_c, 0, 83, 0
2, 85728, Note_on_c, 0, 84, 79
2, 85820, Note_on_c, 0, 84, 0
2, 85824, Note_on_c, 0, 86, 79
2, 85916, Note_on_c, 0, 86, 0
2, 85920, Note_on_c, 0, 84, 79
2, 86012, Note_on_c, 0, 84, 0
2, 86016, Note_on_c, 0, 83, 79
2, 86108, Note_on_c, 0, 83, 0
2, 86112, Note_on_c, 0, 81, 79
2, 86204, Note_on_c, 0, 81, 0
2, 86208, Note_on_c, 0, 79, 79
2, 86300, Note_on_c, 0, 79, 0
2, 86304, Note_on_c, 0, 77, 79
2, 86396, Note_on_c, 0, 77, 0
2, 86400, Note_on_c, 0, 77, 79
2, 86492, Note_on_c, 0, 77, 0
2, 86496, Note_on_c, 0, 76, 79
2, 86588, Note_on_c, 0, 76, 0
2, 86592, Note_on_c, 0, 81, 79
2, 86684, Note_on_c, 0, 81, 0
2, 86688, Note_on_c, 0, 79, 79
2, 86780, Note_on_c, 0, 79, 0
2, 86784, Note_on_c, 0, 79, 79
2, 87164, Note_on_c, 0, 79, 0
2, 87168, Note_on_c, 0, 89, 79
2, 87260, Note_on_c, 0, 89, 0
2, 87264, Note_on_c, 0, 86, 79
2, 87356, Note_on_c, 0, 86, 0
2, 87360, Note_on_c, 0, 84, 79
2, 87452, Note_on_c, 0, 84, 0
2, 87456, Note_on_c, 0, 83, 79
2, 87548, Note_on_c, 0, 83, 0
2, 87552, Note_on_c, 0, 84, 78
2, 87576, Note_on_c, 0, 84, 0
2, 87576, Note_on_c, 0, 86, 78
2, 87600, Note_on_c, 0, 86, 0
2, 87600, Note_on_c, 0, 84, 78
2, 87624, Note_on_c, 0, 84, 0
2, 87624, Note_on_c, 0, 86, 78
2, 87648, Note_on_c, 0, 86, 0
2, 87648, Note_on_c, 0, 84, 77
2, 87672, Note_on_c, 0, 84, 0
2, 87672, Note_on_c, 0, 86, 77
2, 87696, Note_on_c, 0, 86, 0
2, 87696, Note_on_c, 0, 84, 76
2, 87720, Note_on_c, 0, 84, 0
2, 87720, Note_on_c, 0, 86, 76
2, 87744, Note_on_c, 0, 86, 0
2, 87744, Note_on_c, 0, 84, 75
2, 87768, Note_on_c, 0, 84, 0
2, 87768, Note_on_c, 0, 86, 75
2, 87792, Note_on_c, 0, 86, 0
2, 87792, Note_on_c, 0, 84, 73
2, 87816, Note_on_c, 0, 84, 0
2, 87816, Note_on_c, 0, 86, 73
2, 87840, Note_on_c, 0, 86, 0
2, 87840, Note_on_c, 0, 82, 72
2, 87880, Note_on_c, 0, 82, 0
2, 87888, Note_on_c, 0, 84, 72
2, 87928, Note_on_c, 0, 84, 0
2, 87936, Note_on_c, 0, 72, 70
2, 88316, Note_on_c, 0, 72, 0
2, 92544, Note_on_c, 0, 70, 74
2, 93008, Note_on_c, 0, 70, 0
2, 93024, Note_on_c, 0, 76, 70
2, 93104, Note_on_c, 0, 76, 0
2, 93120, Note_on_c, 0, 79, 70
2, 93200, Note_on_c, 0, 79, 0
2, 93216, Note_on_c, 0, 82, 70
2, 93296, Note_on_c, 0, 82, 0
2, 93312, Note_on_c, 0, 81, 70
2, 93636, Note_on_c, 0, 81, 0
2, 93696, Note_on_c, 0, 81, 70
2, 93720, Note_on_c, 0, 81, 0
2, 93720, Note_on_c, 0, 82, 70
2, 93744, Note_on_c, 0, 82, 0
2, 93744, Note_on_c, 0, 81, 70
2, 93768, Note_on_c, 0, 81, 0
2, 93768, Note_on_c, 0, 82, 70
2, 93792, Note_on_c, 0, 82, 0
2, 93792, Note_on_c, 0, 81, 70
2, 93816, Note_on_c, 0, 81, 0
2, 93816, Note_on_c, 0, 82, 70
2, 93840, Note_on_c, 0, 82, 0
2, 93840, Note_on_c, 0, 81, 70
2, 93864, Note_on_c, 0, 81, 0
2, 93864, Note_on_c, 0, 82, 70
2, 93888, Note_on_c, 0, 82, 0
2, 93888, Note_on_c, 0, 81, 70
2, 93912, Note_on_c, 0, 81, 0
2, 93912, Note_on_c, 0, 82, 70
2, 93936, Note_on_c, 0, 82, 0
2, 93936, Note_on_c, 0, 81, 70
2, 93960, Note_on_c, 0, 81, 0
2, 93960, Note_on_c, 0, 82, 70
2, 93984, Note_on_c, 0, 82, 0
2, 93984, Note_on_c, 0, 79, 70
2, 94024, Note_on_c, 0, 79, 0
2, 94032, Note_on_c, 0, 81, 70
2, 94072, Note_on_c, 0, 81, 0
2, 94080, Note_on_c, 0, 82, 95
2, 94104, Note_on_c, 0, 82, 0
2, 94104, Note_on_c, 0, 84, 95
2, 94128, Note_on_c, 0, 84, 0
2, 94128, Note_on_c, 0, 82, 95
2, 94152, Note_on_c, 0, 82, 0
2, 94152, Note_on_c, 0, 84, 70
2, 94176, Note_on_c, 0, 84, 0
2, 94176, Note_on_c, 0, 82, 70
2, 94200, Note_on_c, 0, 82, 0
2, 94200, Note_on_c, 0, 84, 70
2, 94224, Note_on_c, 0, 84, 0
2, 94224, Note_on_c, 0, 82, 70
2, 94248, Note_on_c, 0, 82, 0
2, 94248, Note_on_c, 0, 84, 70
2, 94272, Note_on_c, 0, 84, 0
2, 94272, Note_on_c, 0, 82, 70
2, 94296, Note_on_c, 0, 82, 0
2, 94296, Note_on_c, 0, 84, 70
2, 94320, Note_on_c, 0, 84, 0
2, 94320, Note_on_c, 0, 82, 70
2, 94344, Note_on_c, 0, 82, 0
2, 94344, Note_on_c, 0, 84, 70
2, 94368, Note_on_c, 0, 84, 0
2, 94368, Note_on_c, 0, 81, 70
2, 94408, Note_on_c, 0, 81, 0
2, 94416, Note_on_c, 0, 82, 70
2, 94456, Note_on_c, 0, 82, 0
2, 94464, Note_on_c, 0, 84, 70
2, 94744, Note_on_c, 0, 84, 0
2, 94752, Note_on_c, 0, 81, 70
2, 94844, Note_on_c, 0, 81, 0
2, 94848, Note_on_c, 0, 89, 70
2, 95416, Note_on_c, 0, 89, 0
2, 95424, Note_on_c, 0, 84, 70
2, 95608, Note_on_c, 0, 84, 0
2, 95616, Note_on_c, 0, 84, 61
2, 95708, Note_on_c, 0, 84, 0
2, 95712, Note_on_c, 0, 82, 61
2, 95804, Note_on_c, 0, 82, 0
2, 95808, Note_on_c, 0, 86, 61
2, 95856, Note_on_c, 0, 86, 0
2, 95904, Note_on_c, 0, 82, 61
2, 95952, Note_on_c, 0, 82, 0
2, 96000, Note_on_c, 0, 82, 61
2, 96092, Note_on_c, 0, 82, 0
2, 96096, Note_on_c, 0, 81, 61
2, 96188, Note_on_c, 0, 81, 0
2, 96192, Note_on_c, 0, 84, 61
2, 96240, Note_on_c, 0, 84, 0
2, 96288, Note_on_c, 0, 81, 61
2, 96336, Note_on_c, 0, 81, 0
2, 96384, Note_on_c, 0, 81, 61
2, 96476, Note_on_c, 0, 81, 0
2, 96480, Note_on_c, 0, 79, 61
2, 96572, Note_on_c, 0, 79, 0
2, 96576, Note_on_c, 0, 82, 61
2, 96624, Note_on_c, 0, 82, 0
2, 96672, Note_on_c, 0, 79, 61
2, 96720, Note_on_c, 0, 79, 0
2, 96768, Note_on_c, 0, 77, 78
2, 97148, Note_on_c, 0, 77, 0
2, 100608, Note_on_c, 0, 82, 87
2, 101080, Note_on_c, 0, 82, 0
2, 101088, Note_on_c, 0, 79, 87
2, 101176, Note_on_c, 0, 79, 0
2, 101184, Note_on_c, 0, 76, 87
2, 101272, Note_on_c, 0, 76, 0
2, 101280, Note_on_c, 0, 70, 87
2, 101368, Note_on_c, 0, 70, 0
2, 101376, Note_on_c, 0, 69, 95
2, 101756, Note_on_c, 0, 69, 0
2, 101760, Note_on_c, 0, 69, 95
2, 101820, Note_on_c, 0, 69, 0
2, 101824, Note_on_c, 0, 72, 95
2, 101884, Note_on_c, 0, 72, 0
2, 101888, Note_on_c, 0, 70, 95
2, 101948, Note_on_c, 0, 70, 0
2, 101952, Note_on_c, 0, 69, 95
2, 102012, Note_on_c, 0, 69, 0
2, 102016, Note_on_c, 0, 70, 95
2, 102076, Note_on_c, 0, 70, 0
2, 102080, Note_on_c, 0, 72, 95
2, 102140, Note_on_c, 0, 72, 0
2, 102144, Note_on_c, 0, 70, 95
2, 102204, Note_on_c, 0, 70, 0
2, 102208, Note_on_c, 0, 74, 95
2, 102268, Note_on_c, 0, 74, 0
2, 102272, Note_on_c, 0, 72, 95
2, 102332, Note_on_c, 0, 72, 0
2, 102336, Note_on_c, 0, 70, 95
2, 102396, Note_on_c, 0, 70, 0
2, 102400, Note_on_c, 0, 72, 95
2, 102460, Note_on_c, 0, 72, 0
2, 102464, Note_on_c, 0, 74, 95
2, 102524, Note_on_c, 0, 74, 0
2, 102528, Note_on_c, 0, 72, 95
2, 103100, Note_on_c, 0, 72, 0
2, 103680, Note_on_c, 0, 69, 110
2, 103772, Note_on_c, 0, 69, 0
2, 103776, Note_on_c, 0, 81, 87
2, 104152, Note_on_c, 0, 81, 0
2, 104160, Note_on_c, 0, 81, 89
2, 104248, Note_on_c, 0, 81, 0
2, 104256, Note_on_c, 0, 82, 89
2, 104296, Note_on_c, 0, 82, 0
2, 104304, Note_on_c, 0, 81, 91
2, 104344, Note_on_c, 0, 81, 0
2, 104352, Note_on_c, 0, 79, 92
2, 104392, Note_on_c, 0, 79, 0
2, 104400, Note_on_c, 0, 81, 92
2, 104440, Note_on_c, 0, 81, 0
2, 104448, Note_on_c, 0, 82, 93
2, 104536, Note_on_c, 0, 82, 0
2, 104544, Note_on_c, 0, 82, 93
2, 104632, Note_on_c, 0, 82, 0
2, 104640, Note_on_c, 0, 84, 94
2, 104680, Note_on_c, 0, 84, 0
2, 104688, Note_on_c, 0, 82, 95
2, 104728, Note_on_c, 0, 82, 0
2, 104736, Note_on_c, 0, 81, 96
2, 104776, Note_on_c, 0, 81, 0
2, 104784, Note_on_c, 0, 82, 97
2, 104824, Note_on_c, 0, 82, 0
2, 104832, Note_on_c, 0, 84, 98
2, 105112, Note_on_c, 0, 84, 0
2, 105120, Note_on_c, 0, 81, 97
2, 105208, Note_on_c, 0, 81, 0
2, 105216, Note_on_c, 0, 77, 97
2, 105784, Note_on_c, 0, 77, 0
2, 105984, Note_on_c, 0, 77, 110
2, 106048, Note_on_c, 0, 77, 0
2, 106048, Note_on_c, 0, 89, 98
2, 106172, Note_on_c, 0, 89, 0
2, 106176, Note_on_c, 0, 88, 96
2, 106364, Note_on_c, 0, 88, 0
2, 106368, Note_on_c, 0, 86, 94
2, 106556, Note_on_c, 0, 86, 0
2, 106560, Note_on_c, 0, 84, 92
2, 106748, Note_on_c, 0, 84, 0
2, 106752, Note_on_c, 0, 82, 90
2, 106940, Note_on_c, 0, 82, 0
2, 106944, Note_on_c, 0, 81, 88
2, 107132, Note_on_c, 0, 81, 0
2, 107136, Note_on_c, 0, 78, 86
2, 107224, Note_on_c, 0, 78, 0
2, 107232, Note_on_c, 0, 79, 93
2, 107320, Note_on_c, 0, 79, 0
2, 107424, Note_on_c, 0, 79, 95
2, 107512, Note_on_c, 0, 79, 0
2, 107520, Note_on_c, 0, 81, 96
2, 107608, Note_on_c, 0, 81, 0
2, 107616, Note_on_c, 0, 82, 97
2, 107704, Note_on_c, 0, 82, 0
2, 107808, Note_on_c, 0, 82, 98
2, 107896, Note_on_c, 0, 82, 0
2, 107904, Note_on_c, 0, 85, 99
2, 107992, Note_on_c, 0, 85, 0
2, 108000, Note_on_c, 0, 86, 101
2, 108088, Note_on_c, 0, 86, 0
2, 108192, Note_on_c, 0, 86, 103
2, 108280, Note_on_c, 0, 86, 0
2, 108288, Note_on_c, 0, 84, 105
2, 108424, Note_on_c, 0, 84, 0
2, 108432, Note_on_c, 0, 81, 105
2, 108472, Note_on_c, 0, 81, 0
2, 108480, Note_on_c, 0, 86, 105
2, 108520, Note_on_c, 0, 86, 0
2, 108528, Note_on_c, 0, 82, 105
2, 108568, Note_on_c, 0, 82, 0
2, 108576, Note_on_c, 0, 86, 105
2, 108616, Note_on_c, 0, 86, 0
2, 108624, Note_on_c, 0, 82, 105
2, 108664, Note_on_c, 0, 82, 0
2, 108672, Note_on_c, 0, 81, 105
2, 109036, Note_on_c, 0, 81, 0
2, 109056, Note_on_c, 0, 79, 95
2, 109080, Note_on_c, 0, 79, 0
2, 109080, Note_on_c, 0, 81, 95
2, 109104, Note_on_c, 0, 81, 0
2, 109104, Note_on_c, 0, 79, 105
2, 109128, Note_on_c, 0, 79, 0
2, 109128, Note_on_c, 0, 81, 105
2, 109152, Note_on_c, 0, 81, 0
2, 109152, Note_on_c, 0, 79, 105
2, 109176, Note_on_c, 0, 79, 0
2, 109176, Note_on_c, 0, 81, 105
2, 109200, Note_on_c, 0, 81, 0
2, 109200, Note_on_c, 0, 79, 105
2, 109224, Note_on_c, 0, 79, 0
2, 109224, Note_on_c, 0, 81, 105
2, 109248, Note_on_c, 0, 81, 0
2, 109248, Note_on_c, 0, 77, 105
2, 109328, Note_on_c, 0, 77, 0
2, 109344, Note_on_c, 0, 79, 105
2, 109424, Note_on_c, 0, 79, 0
2, 109440, Note_on_c, 0, 77, 105
2, 109800, Note_on_c, 0, 77, 0
2, 111744, Note_on_c, 0, 77, 107
2, 112488, Note_on_c, 0, 77, 0
2, 112512, Note_on_c, 0, 86, 105
2, 112872, Note_on_c, 0, 86, 0
2, 112896, Note_on_c, 0, 60, 115
2, 113276, Note_on_c, 0, 60, 0
2, 113280, Note_on_c, 0, 89, 95
2, 113468, Note_on_c, 0, 89, 0
2, 113472, Note_on_c, 0, 84, 95
2, 113660, Note_on_c, 0, 84, 0
2, 113664, Note_on_c, 0, 81, 95
2, 113852, Note_on_c, 0, 81, 0
2, 113856, Note_on_c, 0, 77, 95
2, 114044, Note_on_c, 0, 77, 0
2, 114048, Note_on_c, 0, 79, 95
2, 114072, Note_on_c, 0, 79, 0
2, 114072, Note_on_c, 0, 81, 95
2, 114096, Note_on_c, 0, 81, 0
2, 114096, Note_on_c, 0, 79, 95
2, 114120, Note_on_c, 0, 79, 0
2, 114120, Note_on_c, 0, 81, 95
2, 114144, Note_on_c, 0, 81, 0
2, 114144, Note_on_c, 0, 79, 95
2, 114168, Note_on_c, 0, 79, 0
2, 114168, Note_on_c, 0, 81, 95
2, 114192, Note_on_c, 0, 81, 0
2, 114192, Note_on_c, 0, 79, 95
2, 114216, Note_on_c, 0, 79, 0
2, 114216, Note_on_c, 0, 81, 95
2, 114240, Note_on_c, 0, 81, 0
2, 114240, Note_on_c, 0, 79, 95
2, 114264, Note_on_c, 0, 79, 0
2, 114264, Note_on_c, 0, 81, 95
2, 114288, Note_on_c, 0, 81, 0
2, 114288, Note_on_c, 0, 79, 105
2, 114312, Note_on_c, 0, 79, 0
2, 114312, Note_on_c, 0, 81, 105
2, 114336, Note_on_c, 0, 81, 0
2, 114336, Note_on_c, 0, 79, 105
2, 114360, Note_on_c, 0, 79, 0
2, 114360, Note_on_c, 0, 81, 105
2, 114384, Note_on_c, 0, 81, 0
2, 114384, Note_on_c, 0, 79, 105
2, 114408, Note_on_c, 0, 79, 0
2, 114408, Note_on_c, 0, 81, 105
2, 114432, Note_on_c, 0, 81, 0
2, 114432, Note_on_c, 0, 79, 105
2, 114456, Note_on_c, 0, 79, 0
2, 114456, Note_on_c, 0, 81, 105
2, 114480, Note_on_c, 0, 81, 0
2, 114480, Note_on_c, 0, 79, 105
2, 114504, Note_on_c, 0, 79, 0
2, 114504, Note_on_c, 0, 81, 105
2, 114528, Note_on_c, 0, 81, 0
2, 114528, Note_on_c, 0, 79, 105
2, 114552, Note_on_c, 0, 79, 0
2, 114552, Note_on_c, 0, 81, 105
2, 114576, Note_on_c, 0, 81, 0
2, 114576, Note_on_c, 0, 79, 105
2, 114600, Note_on_c, 0, 79, 0
2, 114600, Note_on_c, 0, 81, 105
2, 114624, Note_on_c, 0, 81, 0
2, 114624, Note_on_c, 0, 79, 105
2, 114648, Note_on_c, 0, 79, 0
2, 114648, Note_on_c, 0, 81, 105
2, 114672, Note_on_c, 0, 81, 0
2, 114672, Note_on_c, 0, 79, 105
2, 114696, Note_on_c, 0, 79, 0
2, 114696, Note_on_c, 0, 81, 105
2, 114720, Note_on_c, 0, 81, 0
2, 114720, Note_on_c, 0, 79, 105
2, 114744, Note_on_c, 0, 79, 0
2, 114744, Note_on_c, 0, 81, 105
2, 114768, Note_on_c, 0, 81, 0
2, 114768, Note_on_c, 0, 79, 105
2, 114792, Note_on_c, 0, 79, 0
2, 114792, Note_on_c, 0, 81, 105
2, 114816, Note_on_c, 0, 81, 0
2, 114816, Note_on_c, 0, 79, 105
2, 114840, Note_on_c, 0, 79, 0
2, 114840, Note_on_c, 0, 81, 105
2, 114864, Note_on_c, 0, 81, 0
2, 114864, Note_on_c, 0, 79, 105
2, 114888, Note_on_c, 0, 79, 0
2, 114888, Note_on_c, 0, 81, 105
2, 114912, Note_on_c, 0, 81, 0
2, 114912, Note_on_c, 0, 79, 105
2, 114936, Note_on_c, 0, 79, 0
2, 114936, Note_on_c, 0, 81, 105
2, 114960, Note_on_c, 0, 81, 0
2, 114960, Note_on_c, 0, 79, 105
2, 114984, Note_on_c, 0, 79, 0
2, 114984, Note_on_c, 0, 81, 105
2, 115008, Note_on_c, 0, 81, 0
2, 115008, Note_on_c, 0, 77, 105
2, 115088, Note_on_c, 0, 77, 0
2, 115104, Note_on_c, 0, 79, 105
2, 115184, Note_on_c, 0, 79, 0
2, 115200, Note_on_c, 0, 77, 105
2, 115772, Note_on_c, 0, 77, 0
2, 117888, Note_on_c, 0, 77, 105
2, 118268, Note_on_c, 0, 77, 0
2, 118272, Note_on_c, 0, 89, 98
2, 118652, Note_on_c, 0, 89, 0
2, 118656, Note_on_c, 0, 84, 101
2, 119036, Note_on_c, 0, 84, 0
2, 119328, Note_on_c, 0, 77, 105
2, 119420, Note_on_c, 0, 77, 0
2, 119424, Note_on_c, 0, 79, 105
2, 119448, Note_on_c, 0, 79, 0
2, 119448, Note_on_c, 0, 81, 105
2, 119472, Note_on_c, 0, 81, 0
2, 119472, Note_on_c, 0, 79, 105
2, 119496, Note_on_c, 0, 79, 0
2, 119496, Note_on_c, 0, 81, 105
2, 119520, Note_on_c, 0, 81, 0
2, 119520, Note_on_c, 0, 79, 105
2, 119544, Note_on_c, 0, 79, 0
2, 119544, Note_on_c, 0, 81, 105
2, 119568, Note_on_c, 0, 81, 0
2, 119568, Note_on_c, 0, 79, 105
2, 119592, Note_on_c, 0, 79, 0
2, 119592, Note_on_c, 0, 81, 105
2, 119616, Note_on_c, 0, 81, 0
2, 119616, Note_on_c, 0, 79, 105
2, 119640, Note_on_c, 0, 79, 0
2, 119640, Note_on_c, 0, 81, 105
2, 119664, Note_on_c, 0, 81, 0
2, 119664, Note_on_c, 0, 79, 105
2, 119688, Note_on_c, 0, 79, 0
2, 119688, Note_on_c, 0, 81, 105
2, 119712, Note_on_c, 0, 81, 0
2, 119712, Note_on_c, 0, 77, 105
2, 119756, Note_on_c, 0, 77, 0
2, 119760, Note_on_c, 0, 79, 105
2, 119804, Note_on_c, 0, 79, 0
2, 119808, Note_on_c, 0, 77, 109
2, 120380, Note_on_c, 0, 77, 0
2, 120960, Note_on_c, 0, 79, 105
2, 121628, Note_on_c, 0, 79, 0
2, 121632, Note_on_c, 0, 76, 105
2, 121724, Note_on_c, 0, 76, 0
2, 121728, Note_on_c, 0, 77, 105
2, 122012, Note_on_c, 0, 77, 0
2, 123168, Note_on_c, 0, 77, 70
2, 123260, Note_on_c, 0, 77, 0
2, 123264, Note_on_c, 0, 82, 70
2, 123932, Note_on_c, 0, 82, 0
2, 123936, Note_on_c, 0, 84, 70
2, 123980, Note_on_c, 0, 84, 0
2, 123984, Note_on_c, 0, 86, 70
2, 124028, Note_on_c, 0, 86, 0
2, 124032, Note_on_c, 0, 84, 70
2, 124316, Note_on_c, 0, 84, 0
2, 124416, Note_on_c, 0, 81, 105
2, 124988, Note_on_c, 0, 81, 0
2, 124992, Note_on_c, 0, 82, 105
2, 125084, Note_on_c, 0, 82, 0
2, 125088, Note_on_c, 0, 84, 105
2, 125180, Note_on_c, 0, 84, 0
2, 125184, Note_on_c, 0, 88, 105
2, 125276, Note_on_c, 0, 88, 0
2, 125280, Note_on_c, 0, 86, 105
2, 125372, Note_on_c, 0, 86, 0
2, 125376, Note_on_c, 0, 84, 105
2, 125468, Note_on_c, 0, 84, 0
2, 125472, Note_on_c, 0, 82, 105
2, 125564, Note_on_c, 0, 82, 0
2, 125568, Note_on_c, 0, 81, 105
2, 125756, Note_on_c, 0, 81, 0
2, 125760, Note_on_c, 0, 79, 105
2, 126140, Note_on_c, 0, 79, 0
2, 126144, Note_on_c, 0, 81, 105
2, 126236, Note_on_c, 0, 81, 0
2, 126240, Note_on_c, 0, 82, 105
2, 126332, Note_on_c, 0, 82, 0
2, 126336, Note_on_c, 0, 86, 105
2, 126428, Note_on_c, 0, 86, 0
2, 126432, Note_on_c, 0, 84, 105
2, 126524, Note_on_c, 0, 84, 0
2, 126528, Note_on_c, 0, 82, 105
2, 126620, Note_on_c, 0, 82, 0
2, 126624, Note_on_c, 0, 81, 105
2, 126716, Note_on_c, 0, 81, 0
2, 126720, Note_on_c, 0, 79, 105
2, 126908, Note_on_c, 0, 79, 0
2, 126912, Note_on_c, 0, 77, 105
2, 127292, Note_on_c, 0, 77, 0
2, 127296, Note_on_c, 0, 79, 105
2, 127388, Note_on_c, 0, 79, 0
2, 127392, Note_on_c, 0, 81, 105
2, 127484, Note_on_c, 0, 81, 0
2, 127488, Note_on_c, 0, 82, 105
2, 127580, Note_on_c, 0, 82, 0
2, 127584, Note_on_c, 0, 84, 105
2, 127676, Note_on_c, 0, 84, 0
2, 127680, Note_on_c, 0, 86, 105
2, 127772, Note_on_c, 0, 86, 0
2, 127776, Note_on_c, 0, 82, 105
2, 127868, Note_on_c, 0, 82, 0
2, 127872, Note_on_c, 0, 81, 105
2, 128156, Note_on_c, 0, 81, 0
2, 128160, Note_on_c, 0, 79, 105
2, 128252, Note_on_c, 0, 79, 0
2, 128256, Note_on_c, 0, 79, 105
2, 128828, Note_on_c, 0, 79, 0
2, 128832, Note_on_c, 0, 81, 105
2, 129020, Note_on_c, 0, 81, 0
2, 129024, Note_on_c, 0, 82, 105
2, 129308, Note_on_c, 0, 82, 0
2, 129312, Note_on_c, 0, 84, 105
2, 129356, Note_on_c, 0, 84, 0
2, 129360, Note_on_c, 0, 86, 105
2, 129404, Note_on_c, 0, 86, 0
2, 129408, Note_on_c, 0, 77, 105
2, 129788, Note_on_c, 0, 77, 0
2, 129792, Note_on_c, 0, 81, 105
2, 129980, Note_on_c, 0, 81, 0
2, 129984, Note_on_c, 0, 79, 105
2, 130172, Note_on_c, 0, 79, 0
2, 130176, Note_on_c, 0, 77, 105
2, 130364, Note_on_c, 0, 77, 0
2, 130368, Note_on_c, 0, 89, 95
2, 130460, Note_on_c, 0, 89, 0
2, 130464, Note_on_c, 0, 88, 95
2, 130544, Note_on_c, 0, 88, 95
2, 130556, Note_on_c, 0, 88, 0
2, 130636, Note_on_c, 0, 88, 0
2, 130656, Note_on_c, 0, 86, 95
2, 130748, Note_on_c, 0, 86, 0
2, 130752, Note_on_c, 0, 86, 95
2, 130844, Note_on_c, 0, 86, 0
2, 130848, Note_on_c, 0, 84, 95
2, 130940, Note_on_c, 0, 84, 0
2, 130944, Note_on_c, 0, 84, 95
2, 131036, Note_on_c, 0, 84, 0
2, 131040, Note_on_c, 0, 83, 95
2, 131132, Note_on_c, 0, 83, 0
2, 131136, Note_on_c, 0, 86, 95
2, 131228, Note_on_c, 0, 86, 0
2, 131232, Note_on_c, 0, 84, 95
2, 131324, Note_on_c, 0, 84, 0
2, 131328, Note_on_c, 0, 82, 95
2, 131612, Note_on_c, 0, 82, 0
2, 131616, Note_on_c, 0, 84, 95
2, 131660, Note_on_c, 0, 84, 0
2, 131664, Note_on_c, 0, 86, 95
2, 131708, Note_on_c, 0, 86, 0
2, 131712, Note_on_c, 0, 77, 105
2, 132092, Note_on_c, 0, 77, 0
2, 132096, Note_on_c, 0, 81, 95
2, 132284, Note_on_c, 0, 81, 0
2, 132288, Note_on_c, 0, 79, 95
2, 132476, Note_on_c, 0, 79, 0
2, 132480, Note_on_c, 0, 77, 70
2, 132668, Note_on_c, 0, 77, 0
2, 132672, Note_on_c, 0, 81, 70
2, 132860, Note_on_c, 0, 81, 0
2, 132864, Note_on_c, 0, 79, 95
2, 132888, Note_on_c, 0, 79, 0
2, 132888, Note_on_c, 0, 81, 95
2, 132912, Note_on_c, 0, 81, 0
2, 132912, Note_on_c, 0, 79, 95
2, 132936, Note_on_c, 0, 79, 0
2, 132936, Note_on_c, 0, 81, 70
2, 132960, Note_on_c, 0, 81, 0
2, 132960, Note_on_c, 0, 79, 70
2, 132984, Note_on_c, 0, 79, 0
2, 132984, Note_on_c, 0, 81, 70
2, 133008, Note_on_c, 0, 81, 0
2, 133008, Note_on_c, 0, 79, 70
2, 133032, Note_on_c, 0, 79, 0
2, 133032, Note_on_c, 0, 81, 70
2, 133056, Note_on_c, 0, 81, 0
2, 133056, Note_on_c, 0, 79, 70
2, 133080, Note_on_c, 0, 79, 0
2, 133080, Note_on_c, 0, 81, 70
2, 133104, Note_on_c, 0, 81, 0
2, 133104, Note_on_c, 0, 79, 70
2, 133128, Note_on_c, 0, 79, 0
2, 133128, Note_on_c, 0, 81, 70
2, 133152, Note_on_c, 0, 81, 0
2, 133152, Note_on_c, 0, 77, 70
2, 133196, Note_on_c, 0, 77, 0
2, 133200, Note_on_c, 0, 79, 70
2, 133244, Note_on_c, 0, 79, 0
2, 133248, Note_on_c, 0, 82, 95
2, 133272, Note_on_c, 0, 82, 0
2, 133272, Note_on_c, 0, 84, 95
2, 133296, Note_on_c, 0, 84, 0
2, 133296, Note_on_c, 0, 82, 95
2, 133320, Note_on_c, 0, 82, 0
2, 133320, Note_on_c, 0, 84, 70
2, 133344, Note_on_c, 0, 84, 0
2, 133344, Note_on_c, 0, 82, 70
2, 133368, Note_on_c, 0, 82, 0
2, 133368, Note_on_c, 0, 84, 70
2, 133392, Note_on_c, 0, 84, 0
2, 133392, Note_on_c, 0, 82, 70
2, 133416, Note_on_c, 0, 82, 0
2, 133416, Note_on_c, 0, 84, 70
2, 133440, Note_on_c, 0, 84, 0
2, 133440, Note_on_c, 0, 82, 70
2, 133464, Note_on_c, 0, 82, 0
2, 133464, Note_on_c, 0, 84, 70
2, 133488, Note_on_c, 0, 84, 0
2, 133488, Note_on_c, 0, 82, 70
2, 133512, Note_on_c, 0, 82, 0
2, 133512, Note_on_c, 0, 84, 70
2, 133536, Note_on_c, 0, 84, 0
2, 133536, Note_on_c, 0, 81, 70
2, 133580, Note_on_c, 0, 81, 0
2, 133584, Note_on_c, 0, 82, 70
2, 133628, Note_on_c, 0, 82, 0
2, 133632, Note_on_c, 0, 84, 78
2, 134012, Note_on_c, 0, 84, 0
2, 135168, Note_on_c, 0, 77, 61
2, 135356, Note_on_c, 0, 77, 0
2, 135552, Note_on_c, 0, 77, 61
2, 135740, Note_on_c, 0, 77, 0
2, 135936, Note_on_c, 0, 77, 61
2, 136316, Note_on_c, 0, 77, 0
2, 136316, End_track
3, 0, Start_track
3, 0, MIDI_port, 0
3, 0, Title_t, "Flute &"
3, 0, Control_c, 1, 0, 0
3, 0, Control_c, 1, 32, 0
3, 0, Program_c, 1, 48
3, 0, Control_c, 1, 7, 113
3, 0, Control_c, 1, 10, 35
3, 0, Control_c, 1, 91, 69
3, 0, Control_c, 1, 93, 45
3, 0, Control_c, 1, 121, 0
3, 96, Control_c, 1, 10, 43
3, 192, Control_c, 1, 91, 63
3, 240, Control_c, 1, 93, 40
3, 288, Program_c, 1, 48
3, 1152, Note_on_c, 1, 69, 75
3, 1152, Note_on_c, 1, 60, 75
3, 1344, Note_on_c, 1, 60, 0
3, 1344, Note_on_c, 1, 69, 0
3, 1536, Note_on_c, 1, 69, 75
3, 1536, Note_on_c, 1, 60, 75
3, 1728, Note_on_c, 1, 60, 0
3, 1728, Note_on_c, 1, 69, 0
3, 1920, Note_on_c, 1, 69, 75
3, 1920, Note_on_c, 1, 60, 75
3, 2112, Note_on_c, 1, 60, 0
3, 2112, Note_on_c, 1, 69, 0
3, 2304, Note_on_c, 1, 67, 100
3, 2304, Note_on_c, 1, 58, 100
3, 2972, Note_on_c, 1, 67, 0
3, 2976, Note_on_c, 1, 64, 100
3, 3068, Note_on_c, 1, 64, 0
3, 3068, Note_on_c, 1, 58, 0
3, 3072, Note_on_c, 1, 65, 100
3, 3072, Note_on_c, 1, 57, 100
3, 3260, Note_on_c, 1, 57, 0
3, 3260, Note_on_c, 1, 65, 0
3, 3456, Note_on_c, 1, 69, 75
3, 3456, Note_on_c, 1, 65, 75
3, 3504, Note_on_c, 1, 65, 0
3, 3504, Note_on_c, 1, 69, 0
3, 3552, Note_on_c, 1, 70, 75
3, 3552, Note_on_c, 1, 67, 75
3, 3600, Note_on_c, 1, 67, 0
3, 3600, Note_on_c, 1, 70, 0
3, 3648, Note_on_c, 1, 72, 75
3, 3648, Note_on_c, 1, 69, 75
3, 3696, Note_on_c, 1, 69, 0
3, 3696, Note_on_c, 1, 72, 0
3, 3744, Note_on_c, 1, 74, 75
3, 3744, Note_on_c, 1, 70, 75
3, 3792, Note_on_c, 1, 70, 0
3, 3792, Note_on_c, 1, 74, 0
3, 3840, Note_on_c, 1, 72, 75
3, 3840, Note_on_c, 1, 69, 75
3, 3888, Note_on_c, 1, 69, 0
3, 3888, Note_on_c, 1, 72, 0
3, 3936, Note_on_c, 1, 74, 75
3, 3936, Note_on_c, 1, 70, 75
3, 3984, Note_on_c, 1, 70, 0
3, 3984, Note_on_c, 1, 74, 0
3, 4032, Note_on_c, 1, 76, 75
3, 4032, Note_on_c, 1, 67, 75
3, 4080, Note_on_c, 1, 67, 0
3, 4080, Note_on_c, 1, 76, 0
3, 4128, Note_on_c, 1, 77, 75
3, 4128, Note_on_c, 1, 69, 75
3, 4176, Note_on_c, 1, 69, 0
3, 4176, Note_on_c, 1, 77, 0
3, 4224, Note_on_c, 1, 76, 75
3, 4224, Note_on_c, 1, 67, 75
3, 4272, Note_on_c, 1, 67, 0
3, 4272, Note_on_c, 1, 76, 0
3, 4320, Note_on_c, 1, 77, 75
3, 4320, Note_on_c, 1, 69, 75
3, 4368, Note_on_c, 1, 69, 0
3, 4368, Note_on_c, 1, 77, 0
3, 4416, Note_on_c, 1, 76, 75
3, 4416, Note_on_c, 1, 67, 75
3, 4464, Note_on_c, 1, 67, 0
3, 4464, Note_on_c, 1, 76, 0
3, 4512, Note_on_c, 1, 77, 75
3, 4512, Note_on_c, 1, 69, 75
3, 4560, Note_on_c, 1, 69, 0
3, 4560, Note_on_c, 1, 77, 0
3, 4608, Note_on_c, 1, 65, 83
3, 4608, Note_on_c, 1, 70, 83
3, 5276, Note_on_c, 1, 70, 0
3, 5280, Note_on_c, 1, 72, 83
3, 5320, Note_on_c, 1, 72, 0
3, 5328, Note_on_c, 1, 74, 83
3, 5368, Note_on_c, 1, 74, 0
3, 5372, Note_on_c, 1, 65, 0
3, 5376, Note_on_c, 1, 72, 83
3, 5376, Note_on_c, 1, 65, 83
3, 5564, Note_on_c, 1, 65, 0
3, 5564, Note_on_c, 1, 72, 0
3, 5760, Note_on_c, 1, 65, 110
3, 5760, Note_on_c, 1, 69, 110
3, 6332, Note_on_c, 1, 69, 0
3, 6336, Note_on_c, 1, 70, 110
3, 6428, Note_on_c, 1, 70, 0
3, 6432, Note_on_c, 1, 72, 110
3, 6524, Note_on_c, 1, 72, 0
3, 6528, Note_on_c, 1, 76, 110
3, 6620, Note_on_c, 1, 76, 0
3, 6624, Note_on_c, 1, 74, 110
3, 6716, Note_on_c, 1, 74, 0
3, 6720, Note_on_c, 1, 72, 110
3, 6812, Note_on_c, 1, 72, 0
3, 6816, Note_on_c, 1, 70, 110
3, 6908, Note_on_c, 1, 70, 0
3, 6908, Note_on_c, 1, 65, 0
3, 6912, Note_on_c, 1, 65, 110
3, 6912, Note_on_c, 1, 69, 110
3, 7088, Note_on_c, 1, 67, 110
3, 7100, Note_on_c, 1, 69, 0
3, 7292, Note_on_c, 1, 65, 0
3, 7468, Note_on_c, 1, 67, 0
3, 7488, Note_on_c, 1, 69, 110
3, 7580, Note_on_c, 1, 69, 0
3, 7584, Note_on_c, 1, 70, 110
3, 7676, Note_on_c, 1, 70, 0
3, 7680, Note_on_c, 1, 74, 110
3, 7772, Note_on_c, 1, 74, 0
3, 7776, Note_on_c, 1, 72, 110
3, 7868, Note_on_c, 1, 72, 0
3, 7872, Note_on_c, 1, 70, 110
3, 7964, Note_on_c, 1, 70, 0
3, 7968, Note_on_c, 1, 69, 110
3, 8060, Note_on_c, 1, 69, 0
3, 8064, Note_on_c, 1, 67, 110
3, 8064, Note_on_c, 1, 64, 110
3, 8252, Note_on_c, 1, 67, 0
3, 8272, Note_on_c, 1, 65, 110
3, 8444, Note_on_c, 1, 64, 0
3, 8448, Note_on_c, 1, 62, 110
3, 8636, Note_on_c, 1, 62, 0
3, 8640, Note_on_c, 1, 67, 110
3, 8640, Note_on_c, 1, 64, 110
3, 8652, Note_on_c, 1, 65, 0
3, 8732, Note_on_c, 1, 64, 0
3, 8732, Note_on_c, 1, 67, 0
3, 8736, Note_on_c, 1, 69, 110
3, 8736, Note_on_c, 1, 65, 110
3, 8828, Note_on_c, 1, 65, 0
3, 8828, Note_on_c, 1, 69, 0
3, 8832, Note_on_c, 1, 70, 110
3, 8832, Note_on_c, 1, 67, 110
3, 8924, Note_on_c, 1, 67, 0
3, 8924, Note_on_c, 1, 70, 0
3, 8928, Note_on_c, 1, 72, 110
3, 8928, Note_on_c, 1, 69, 110
3, 9020, Note_on_c, 1, 69, 0
3, 9020, Note_on_c, 1, 72, 0
3, 9024, Note_on_c, 1, 74, 110
3, 9024, Note_on_c, 1, 70, 110
3, 9116, Note_on_c, 1, 70, 0
3, 9116, Note_on_c, 1, 74, 0
3, 9120, Note_on_c, 1, 70, 110
3, 9120, Note_on_c, 1, 67, 110
3, 9212, Note_on_c, 1, 67, 0
3, 9212, Note_on_c, 1, 70, 0
3, 9216, Note_on_c, 1, 65, 110
3, 9216, Note_on_c, 1, 69, 110
3, 9500, Note_on_c, 1, 69, 0
3, 9504, Note_on_c, 1, 67, 110
3, 9592, Note_on_c, 1, 67, 0
3, 9596, Note_on_c, 1, 65, 0
3, 9600, Note_on_c, 1, 64, 96
3, 9600, Note_on_c, 1, 67, 96
3, 9980, Note_on_c, 1, 64, 0
3, 9984, Note_on_c, 1, 63, 82
3, 10168, Note_on_c, 1, 67, 0
3, 10176, Note_on_c, 1, 69, 82
3, 10360, Note_on_c, 1, 69, 0
3, 10364, Note_on_c, 1, 63, 0
3, 10368, Note_on_c, 1, 70, 82
3, 10368, Note_on_c, 1, 62, 82
3, 10652, Note_on_c, 1, 62, 0
3, 10652, Note_on_c, 1, 70, 0
3, 10656, Note_on_c, 1, 72, 82
3, 10688, Note_on_c, 1, 72, 0
3, 10704, Note_on_c, 1, 74, 82
3, 10736, Note_on_c, 1, 74, 0
3, 10752, Note_on_c, 1, 65, 82
3, 11128, Note_on_c, 1, 65, 0
3, 11136, Note_on_c, 1, 64, 82
3, 11136, Note_on_c, 1, 69, 82
3, 11136, Note_on_c, 1, 60, 82
3, 11324, Note_on_c, 1, 60, 0
3, 11324, Note_on_c, 1, 69, 0
3, 11328, Note_on_c, 1, 58, 82
3, 11328, Note_on_c, 1, 67, 82
3, 11476, Note_on_c, 1, 58, 0
3, 11512, Note_on_c, 1, 64, 0
3, 11516, Note_on_c, 1, 67, 0
3, 11520, Note_on_c, 1, 65, 82
3, 11520, Note_on_c, 1, 57, 82
3, 11708, Note_on_c, 1, 57, 0
3, 11708, Note_on_c, 1, 65, 0
3, 11712, Note_on_c, 1, 77, 82
3, 11804, Note_on_c, 1, 77, 0
3, 11808, Note_on_c, 1, 76, 82
3, 11900, Note_on_c, 1, 76, 0
3, 11904, Note_on_c, 1, 76, 82
3, 11996, Note_on_c, 1, 76, 0
3, 12000, Note_on_c, 1, 74, 82
3, 12092, Note_on_c, 1, 74, 0
3, 12096, Note_on_c, 1, 74, 82
3, 12188, Note_on_c, 1, 74, 0
3, 12192, Note_on_c, 1, 72, 82
3, 12284, Note_on_c, 1, 72, 0
3, 12288, Note_on_c, 1, 72, 82
3, 12380, Note_on_c, 1, 72, 0
3, 12384, Note_on_c, 1, 71, 82
3, 12476, Note_on_c, 1, 71, 0
3, 12480, Note_on_c, 1, 74, 82
3, 12572, Note_on_c, 1, 74, 0
3, 12576, Note_on_c, 1, 72, 82
3, 12668, Note_on_c, 1, 72, 0
3, 12672, Note_on_c, 1, 70, 82
3, 12672, Note_on_c, 1, 65, 82
3, 12956, Note_on_c, 1, 70, 0
3, 12960, Note_on_c, 1, 72, 82
3, 12992, Note_on_c, 1, 72, 0
3, 13008, Note_on_c, 1, 74, 82
3, 13040, Note_on_c, 1, 74, 0
3, 13056, Note_on_c, 1, 65, 82
3, 13436, Note_on_c, 1, 65, 0
3, 13436, Note_on_c, 1, 65, 0
3, 13440, Note_on_c, 1, 64, 82
3, 13440, Note_on_c, 1, 69, 82
3, 13628, Note_on_c, 1, 69, 0
3, 13632, Note_on_c, 1, 67, 82
3, 13820, Note_on_c, 1, 67, 0
3, 13820, Note_on_c, 1, 64, 0
3, 13824, Note_on_c, 1, 65, 110
3, 14012, Note_on_c, 1, 65, 0
3, 14016, Note_on_c, 1, 60, 110
3, 14016, Note_on_c, 1, 57, 110
3, 14204, Note_on_c, 1, 57, 0
3, 14204, Note_on_c, 1, 60, 0
3, 14208, Note_on_c, 1, 62, 110
3, 14208, Note_on_c, 1, 58, 110
3, 14396, Note_on_c, 1, 58, 0
3, 14396, Note_on_c, 1, 62, 0
3, 14400, Note_on_c, 1, 64, 110
3, 14400, Note_on_c, 1, 60, 110
3, 14588, Note_on_c, 1, 60, 0
3, 14588, Note_on_c, 1, 64, 0
3, 14592, Note_on_c, 1, 65, 110
3, 14592, Note_on_c, 1, 62, 110
3, 14780, Note_on_c, 1, 62, 0
3, 14780, Note_on_c, 1, 65, 0
3, 14784, Note_on_c, 1, 67, 110
3, 14784, Note_on_c, 1, 64, 110
3, 14972, Note_on_c, 1, 64, 0
3, 14972, Note_on_c, 1, 67, 0
3, 14976, Note_on_c, 1, 57, 75
3, 14988, Note_on_c, 1, 60, 75
3, 15004, Note_on_c, 1, 65, 75
3, 15020, Note_on_c, 1, 69, 75
3, 15164, Note_on_c, 1, 57, 0
3, 15176, Note_on_c, 1, 60, 0
3, 15192, Note_on_c, 1, 65, 0
3, 15208, Note_on_c, 1, 69, 0
3, 15360, Note_on_c, 1, 57, 75
3, 15372, Note_on_c, 1, 60, 75
3, 15388, Note_on_c, 1, 65, 75
3, 15404, Note_on_c, 1, 69, 75
3, 15548, Note_on_c, 1, 57, 0
3, 15560, Note_on_c, 1, 60, 0
3, 15576, Note_on_c, 1, 65, 0
3, 15592, Note_on_c, 1, 69, 0
3, 15744, Note_on_c, 1, 57, 75
3, 15756, Note_on_c, 1, 60, 75
3, 15772, Note_on_c, 1, 65, 75
3, 15788, Note_on_c, 1, 69, 75
3, 15932, Note_on_c, 1, 57, 0
3, 15944, Note_on_c, 1, 60, 0
3, 15960, Note_on_c, 1, 65, 0
3, 15976, Note_on_c, 1, 69, 0
3, 16128, Note_on_c, 1, 58, 110
3, 16172, Note_on_c, 1, 58, 0
3, 16176, Note_on_c, 1, 60, 105
3, 16220, Note_on_c, 1, 60, 0
3, 16224, Note_on_c, 1, 64, 100
3, 16268, Note_on_c, 1, 64, 0
3, 16272, Note_on_c, 1, 67, 95
3, 16748, Note_on_c, 1, 67, 0
3, 16800, Note_on_c, 1, 64, 90
3, 16896, Note_on_c, 1, 65, 85
3, 16896, Note_on_c, 1, 57, 80
3, 16988, Note_on_c, 1, 64, 0
3, 17084, Note_on_c, 1, 57, 0
3, 17084, Note_on_c, 1, 65, 0
3, 17280, Note_on_c, 1, 69, 75
3, 17280, Note_on_c, 1, 65, 75
3, 17372, Note_on_c, 1, 65, 0
3, 17372, Note_on_c, 1, 69, 0
3, 17376, Note_on_c, 1, 70, 75
3, 17376, Note_on_c, 1, 67, 75
3, 17468, Note_on_c, 1, 67, 0
3, 17468, Note_on_c, 1, 70, 0
3, 17472, Note_on_c, 1, 72, 75
3, 17472, Note_on_c, 1, 69, 75
3, 17564, Note_on_c, 1, 69, 0
3, 17564, Note_on_c, 1, 72, 0
3, 17568, Note_on_c, 1, 74, 75
3, 17568, Note_on_c, 1, 70, 75
3, 17660, Note_on_c, 1, 70, 0
3, 17660, Note_on_c, 1, 74, 0
3, 17664, Note_on_c, 1, 72, 75
3, 17756, Note_on_c, 1, 72, 0
3, 17760, Note_on_c, 1, 74, 75
3, 17852, Note_on_c, 1, 74, 0
3, 17856, Note_on_c, 1, 76, 75
3, 17948, Note_on_c, 1, 76, 0
3, 17952, Note_on_c, 1, 77, 75
3, 18044, Note_on_c, 1, 77, 0
3, 18048, Note_on_c, 1, 76, 75
3, 18140, Note_on_c, 1, 76, 0
3, 18144, Note_on_c, 1, 77, 75
3, 18236, Note_on_c, 1, 77, 0
3, 18240, Note_on_c, 1, 76, 75
3, 18332, Note_on_c, 1, 76, 0
3, 18336, Note_on_c, 1, 77, 75
3, 18428, Note_on_c, 1, 77, 0
3, 18432, Note_on_c, 1, 70, 75
3, 18432, Note_on_c, 1, 65, 100
3, 18688, Note_on_c, 1, 65, 0
3, 19100, Note_on_c, 1, 70, 0
3, 19104, Note_on_c, 1, 72, 75
3, 19148, Note_on_c, 1, 72, 0
3, 19152, Note_on_c, 1, 74, 75
3, 19196, Note_on_c, 1, 74, 0
3, 19200, Note_on_c, 1, 72, 75
3, 19388, Note_on_c, 1, 72, 0
3, 19824, Note_on_c, 1, 69, 105
3, 19868, Note_on_c, 1, 69, 0
3, 20208, Note_on_c, 1, 69, 105
3, 20252, Note_on_c, 1, 69, 0
3, 20592, Note_on_c, 1, 74, 105
3, 20636, Note_on_c, 1, 74, 0
3, 20976, Note_on_c, 1, 72, 105
3, 21020, Note_on_c, 1, 72, 0
3, 21360, Note_on_c, 1, 72, 105
3, 21404, Note_on_c, 1, 72, 0
3, 21744, Note_on_c, 1, 72, 105
3, 21788, Note_on_c, 1, 72, 0
3, 22128, Note_on_c, 1, 70, 105
3, 22172, Note_on_c, 1, 70, 0
3, 22512, Note_on_c, 1, 70, 105
3, 22556, Note_on_c, 1, 70, 0
3, 22896, Note_on_c, 1, 70, 105
3, 22940, Note_on_c, 1, 70, 0
3, 23136, Note_on_c, 1, 57, 105
3, 23180, Note_on_c, 1, 57, 0
3, 23184, Note_on_c, 1, 60, 105
3, 23228, Note_on_c, 1, 60, 0
3, 23232, Note_on_c, 1, 65, 105
3, 23276, Note_on_c, 1, 65, 0
3, 23280, Note_on_c, 1, 69, 105
3, 23324, Note_on_c, 1, 69, 0
3, 23328, Note_on_c, 1, 65, 105
3, 23372, Note_on_c, 1, 65, 0
3, 23376, Note_on_c, 1, 60, 105
3, 23420, Note_on_c, 1, 60, 0
3, 23424, Note_on_c, 1, 67, 100
3, 23424, Note_on_c, 1, 64, 100
3, 23804, Note_on_c, 1, 64, 0
3, 23804, Note_on_c, 1, 67, 0
3, 24192, Note_on_c, 1, 67, 65
3, 24192, Note_on_c, 1, 64, 65
3, 24380, Note_on_c, 1, 64, 0
3, 24380, Note_on_c, 1, 67, 0
3, 24384, Note_on_c, 1, 67, 65
3, 24384, Note_on_c, 1, 64, 65
3, 24572, Note_on_c, 1, 64, 0
3, 24572, Note_on_c, 1, 67, 0
3, 24576, Note_on_c, 1, 67, 65
3, 24576, Note_on_c, 1, 64, 65
3, 24764, Note_on_c, 1, 64, 0
3, 24764, Note_on_c, 1, 67, 0
3, 24768, Note_on_c, 1, 67, 65
3, 24768, Note_on_c, 1, 64, 65
3, 24956, Note_on_c, 1, 64, 0
3, 24956, Note_on_c, 1, 67, 0
3, 24960, Note_on_c, 1, 67, 65
3, 24960, Note_on_c, 1, 64, 65
3, 25148, Note_on_c, 1, 64, 0
3, 25148, Note_on_c, 1, 67, 0
3, 25152, Note_on_c, 1, 67, 65
3, 25152, Note_on_c, 1, 64, 65
3, 25340, Note_on_c, 1, 64, 0
3, 25340, Note_on_c, 1, 67, 0
3, 25344, Note_on_c, 1, 67, 65
3, 25344, Note_on_c, 1, 65, 65
3, 25344, Note_on_c, 1, 62, 65
3, 25532, Note_on_c, 1, 62, 0
3, 25532, Note_on_c, 1, 65, 0
3, 25532, Note_on_c, 1, 67, 0
3, 25536, Note_on_c, 1, 67, 65
3, 25536, Note_on_c, 1, 65, 65
3, 25536, Note_on_c, 1, 62, 65
3, 25724, Note_on_c, 1, 62, 0
3, 25724, Note_on_c, 1, 65, 0
3, 25724, Note_on_c, 1, 67, 0
3, 25728, Note_on_c, 1, 67, 65
3, 25728, Note_on_c, 1, 65, 65
3, 25728, Note_on_c, 1, 62, 65
3, 25916, Note_on_c, 1, 62, 0
3, 25916, Note_on_c, 1, 65, 0
3, 25916, Note_on_c, 1, 67, 0
3, 25920, Note_on_c, 1, 67, 65
3, 25920, Note_on_c, 1, 65, 65
3, 25920, Note_on_c, 1, 62, 65
3, 26108, Note_on_c, 1, 62, 0
3, 26108, Note_on_c, 1, 65, 0
3, 26108, Note_on_c, 1, 67, 0
3, 26112, Note_on_c, 1, 67, 65
3, 26112, Note_on_c, 1, 65, 65
3, 26112, Note_on_c, 1, 62, 65
3, 26300, Note_on_c, 1, 62, 0
3, 26300, Note_on_c, 1, 65, 0
3, 26300, Note_on_c, 1, 67, 0
3, 26304, Note_on_c, 1, 67, 65
3, 26304, Note_on_c, 1, 65, 65
3, 26304, Note_on_c, 1, 62, 65
3, 26492, Note_on_c, 1, 62, 0
3, 26492, Note_on_c, 1, 65, 0
3, 26492, Note_on_c, 1, 67, 0
3, 26496, Note_on_c, 1, 67, 65
3, 26496, Note_on_c, 1, 65, 65
3, 26684, Note_on_c, 1, 65, 0
3, 26684, Note_on_c, 1, 67, 0
3, 26688, Note_on_c, 1, 67, 65
3, 26688, Note_on_c, 1, 65, 65
3, 26876, Note_on_c, 1, 65, 0
3, 26876, Note_on_c, 1, 67, 0
3, 26880, Note_on_c, 1, 67, 65
3, 26880, Note_on_c, 1, 65, 65
3, 27068, Note_on_c, 1, 65, 0
3, 27068, Note_on_c, 1, 67, 0
3, 27072, Note_on_c, 1, 67, 65
3, 27072, Note_on_c, 1, 65, 65
3, 27260, Note_on_c, 1, 65, 0
3, 27260, Note_on_c, 1, 67, 0
3, 27264, Note_on_c, 1, 67, 65
3, 27264, Note_on_c, 1, 65, 65
3, 27452, Note_on_c, 1, 65, 0
3, 27452, Note_on_c, 1, 67, 0
3, 27456, Note_on_c, 1, 67, 65
3, 27456, Note_on_c, 1, 65, 65
3, 27644, Note_on_c, 1, 65, 0
3, 27644, Note_on_c, 1, 67, 0
3, 27648, Note_on_c, 1, 67, 65
3, 27648, Note_on_c, 1, 64, 65
3, 27648, Note_on_c, 1, 60, 65
3, 28412, Note_on_c, 1, 60, 0
3, 28412, Note_on_c, 1, 64, 0
3, 28412, Note_on_c, 1, 67, 0
3, 32256, Note_on_c, 1, 60, 65
3, 32348, Note_on_c, 1, 60, 0
3, 32352, Note_on_c, 1, 67, 65
3, 32444, Note_on_c, 1, 67, 0
3, 32448, Note_on_c, 1, 64, 65
3, 32540, Note_on_c, 1, 64, 0
3, 32544, Note_on_c, 1, 76, 65
3, 32544, Note_on_c, 1, 67, 65
3, 32636, Note_on_c, 1, 67, 0
3, 32636, Note_on_c, 1, 76, 0
3, 32640, Note_on_c, 1, 79, 65
3, 32640, Note_on_c, 1, 60, 65
3, 32732, Note_on_c, 1, 60, 0
3, 32736, Note_on_c, 1, 67, 65
3, 32828, Note_on_c, 1, 67, 0
3, 32832, Note_on_c, 1, 64, 65
3, 32924, Note_on_c, 1, 64, 0
3, 32928, Note_on_c, 1, 67, 65
3, 33020, Note_on_c, 1, 67, 0
3, 33020, Note_on_c, 1, 79, 0
3, 33024, Note_on_c, 1, 60, 65
3, 33116, Note_on_c, 1, 60, 0
3, 33120, Note_on_c, 1, 67, 65
3, 33212, Note_on_c, 1, 67, 0
3, 33216, Note_on_c, 1, 64, 65
3, 33308, Note_on_c, 1, 64, 0
3, 33312, Note_on_c, 1, 67, 65
3, 33404, Note_on_c, 1, 67, 0
3, 33408, Note_on_c, 1, 78, 65
3, 33500, Note_on_c, 1, 78, 0
3, 33504, Note_on_c, 1, 72, 65
3, 33596, Note_on_c, 1, 72, 0
3, 33600, Note_on_c, 1, 74, 65
3, 33692, Note_on_c, 1, 74, 0
3, 33696, Note_on_c, 1, 72, 65
3, 33788, Note_on_c, 1, 72, 0
3, 33792, Note_on_c, 1, 78, 65
3, 33884, Note_on_c, 1, 78, 0
3, 33888, Note_on_c, 1, 72, 65
3, 33980, Note_on_c, 1, 72, 0
3, 33984, Note_on_c, 1, 74, 65
3, 34076, Note_on_c, 1, 74, 0
3, 34080, Note_on_c, 1, 72, 65
3, 34172, Note_on_c, 1, 72, 0
3, 34176, Note_on_c, 1, 78, 65
3, 34268, Note_on_c, 1, 78, 0
3, 34272, Note_on_c, 1, 72, 65
3, 34364, Note_on_c, 1, 72, 0
3, 34368, Note_on_c, 1, 74, 65
3, 34460, Note_on_c, 1, 74, 0
3, 34464, Note_on_c, 1, 72, 65
3, 34556, Note_on_c, 1, 72, 0
3, 34560, Note_on_c, 1, 79, 65
3, 34652, Note_on_c, 1, 79, 0
3, 34656, Note_on_c, 1, 71, 65
3, 34748, Note_on_c, 1, 71, 0
3, 34752, Note_on_c, 1, 74, 65
3, 34844, Note_on_c, 1, 74, 0
3, 34848, Note_on_c, 1, 71, 65
3, 34940, Note_on_c, 1, 71, 0
3, 34944, Note_on_c, 1, 79, 65
3, 35036, Note_on_c, 1, 79, 0
3, 35040, Note_on_c, 1, 71, 65
3, 35132, Note_on_c, 1, 71, 0
3, 35136, Note_on_c, 1, 74, 65
3, 35228, Note_on_c, 1, 74, 0
3, 35232, Note_on_c, 1, 71, 65
3, 35324, Note_on_c, 1, 71, 0
3, 35328, Note_on_c, 1, 78, 65
3, 35420, Note_on_c, 1, 78, 0
3, 35424, Note_on_c, 1, 72, 65
3, 35516, Note_on_c, 1, 72, 0
3, 35520, Note_on_c, 1, 74, 65
3, 35612, Note_on_c, 1, 74, 0
3, 35616, Note_on_c, 1, 72, 65
3, 35708, Note_on_c, 1, 72, 0
3, 35712, Note_on_c, 1, 79, 65
3, 35804, Note_on_c, 1, 79, 0
3, 35808, Note_on_c, 1, 71, 65
3, 35900, Note_on_c, 1, 71, 0
3, 35904, Note_on_c, 1, 74, 65
3, 35996, Note_on_c, 1, 74, 0
3, 36000, Note_on_c, 1, 71, 65
3, 36092, Note_on_c, 1, 71, 0
3, 36288, Note_on_c, 1, 62, 70
3, 36288, Note_on_c, 1, 59, 70
3, 36476, Note_on_c, 1, 59, 0
3, 36476, Note_on_c, 1, 62, 0
3, 36480, Note_on_c, 1, 64, 80
3, 36480, Note_on_c, 1, 60, 80
3, 36668, Note_on_c, 1, 60, 0
3, 36668, Note_on_c, 1, 64, 0
3, 36672, Note_on_c, 1, 65, 90
3, 36672, Note_on_c, 1, 62, 90
3, 36860, Note_on_c, 1, 62, 0
3, 36860, Note_on_c, 1, 65, 0
3, 36864, Note_on_c, 1, 67, 102
3, 36864, Note_on_c, 1, 64, 102
3, 37244, Note_on_c, 1, 64, 0
3, 37244, Note_on_c, 1, 67, 0
3, 37248, Note_on_c, 1, 64, 93
3, 37248, Note_on_c, 1, 60, 93
3, 37436, Note_on_c, 1, 60, 0
3, 37436, Note_on_c, 1, 64, 0
3, 37536, Note_on_c, 1, 76, 75
3, 37536, Note_on_c, 1, 72, 75
3, 37536, Note_on_c, 1, 64, 75
3, 37536, Note_on_c, 1, 60, 75
3, 37628, Note_on_c, 1, 60, 0
3, 37628, Note_on_c, 1, 76, 0
3, 37628, Note_on_c, 1, 72, 0
3, 37628, Note_on_c, 1, 64, 0
3, 37632, Note_on_c, 1, 77, 75
3, 37632, Note_on_c, 1, 74, 75
3, 37632, Note_on_c, 1, 65, 75
3, 37632, Note_on_c, 1, 62, 75
3, 37724, Note_on_c, 1, 62, 0
3, 37724, Note_on_c, 1, 77, 0
3, 37724, Note_on_c, 1, 74, 0
3, 37724, Note_on_c, 1, 65, 0
3, 37728, Note_on_c, 1, 79, 75
3, 37728, Note_on_c, 1, 76, 75
3, 37728, Note_on_c, 1, 67, 75
3, 37728, Note_on_c, 1, 64, 75
3, 37820, Note_on_c, 1, 64, 0
3, 37820, Note_on_c, 1, 79, 0
3, 37820, Note_on_c, 1, 76, 0
3, 37820, Note_on_c, 1, 67, 0
3, 37824, Note_on_c, 1, 81, 75
3, 37824, Note_on_c, 1, 77, 75
3, 37824, Note_on_c, 1, 69, 75
3, 37824, Note_on_c, 1, 65, 75
3, 37916, Note_on_c, 1, 65, 0
3, 37916, Note_on_c, 1, 81, 0
3, 37916, Note_on_c, 1, 77, 0
3, 37916, Note_on_c, 1, 69, 0
3, 37920, Note_on_c, 1, 83, 75
3, 37920, Note_on_c, 1, 79, 75
3, 37920, Note_on_c, 1, 71, 75
3, 37920, Note_on_c, 1, 67, 75
3, 38012, Note_on_c, 1, 67, 0
3, 38012, Note_on_c, 1, 83, 0
3, 38012, Note_on_c, 1, 79, 0
3, 38012, Note_on_c, 1, 71, 0
3, 38016, Note_on_c, 1, 81, 75
3, 38016, Note_on_c, 1, 84, 75
3, 38016, Note_on_c, 1, 72, 75
3, 38016, Note_on_c, 1, 69, 75
3, 38204, Note_on_c, 1, 69, 0
3, 38204, Note_on_c, 1, 81, 0
3, 38204, Note_on_c, 1, 84, 0
3, 38204, Note_on_c, 1, 72, 0
3, 38208, Note_on_c, 1, 79, 75
3, 38208, Note_on_c, 1, 83, 75
3, 38208, Note_on_c, 1, 71, 75
3, 38208, Note_on_c, 1, 67, 75
3, 38396, Note_on_c, 1, 67, 0
3, 38396, Note_on_c, 1, 79, 0
3, 38396, Note_on_c, 1, 83, 0
3, 38396, Note_on_c, 1, 71, 0
3, 38400, Note_on_c, 1, 77, 75
3, 38400, Note_on_c, 1, 81, 75
3, 38400, Note_on_c, 1, 69, 75
3, 38400, Note_on_c, 1, 65, 75
3, 38588, Note_on_c, 1, 65, 0
3, 38588, Note_on_c, 1, 77, 0
3, 38588, Note_on_c, 1, 81, 0
3, 38588, Note_on_c, 1, 69, 0
3, 38592, Note_on_c, 1, 76, 75
3, 38592, Note_on_c, 1, 79, 75
3, 38592, Note_on_c, 1, 67, 75
3, 38592, Note_on_c, 1, 64, 75
3, 38780, Note_on_c, 1, 64, 0
3, 38780, Note_on_c, 1, 76, 0
3, 38780, Note_on_c, 1, 79, 0
3, 38780, Note_on_c, 1, 67, 0
3, 38784, Note_on_c, 1, 77, 75
3, 38784, Note_on_c, 1, 74, 75
3, 38784, Note_on_c, 1, 65, 75
3, 38784, Note_on_c, 1, 62, 75
3, 38972, Note_on_c, 1, 62, 0
3, 38972, Note_on_c, 1, 77, 0
3, 38972, Note_on_c, 1, 74, 0
3, 38972, Note_on_c, 1, 65, 0
3, 38976, Note_on_c, 1, 76, 75
3, 38976, Note_on_c, 1, 72, 75
3, 38976, Note_on_c, 1, 64, 75
3, 38976, Note_on_c, 1, 60, 75
3, 39164, Note_on_c, 1, 60, 0
3, 39164, Note_on_c, 1, 76, 0
3, 39164, Note_on_c, 1, 72, 0
3, 39164, Note_on_c, 1, 64, 0
3, 39168, Note_on_c, 1, 74, 75
3, 39168, Note_on_c, 1, 71, 75
3, 39932, Note_on_c, 1, 71, 0
3, 39932, Note_on_c, 1, 74, 0
3, 39936, Note_on_c, 1, 76, 75
3, 39936, Note_on_c, 1, 73, 75
3, 40316, Note_on_c, 1, 73, 0
3, 40316, Note_on_c, 1, 76, 0
3, 40320, Note_on_c, 1, 76, 75
3, 40320, Note_on_c, 1, 73, 75
3, 40604, Note_on_c, 1, 73, 0
3, 40604, Note_on_c, 1, 76, 0
3, 40608, Note_on_c, 1, 77, 75
3, 40608, Note_on_c, 1, 74, 75
3, 40700, Note_on_c, 1, 74, 0
3, 40700, Note_on_c, 1, 77, 0
3, 40704, Note_on_c, 1, 74, 75
3, 40720, Note_on_c, 1, 77, 75
3, 41276, Note_on_c, 1, 74, 0
3, 41280, Note_on_c, 1, 65, 75
3, 41280, Note_on_c, 1, 62, 75
3, 41292, Note_on_c, 1, 77, 0
3, 41468, Note_on_c, 1, 62, 0
3, 41468, Note_on_c, 1, 65, 0
3, 41472, Note_on_c, 1, 60, 75
3, 41564, Note_on_c, 1, 60, 0
3, 41568, Note_on_c, 1, 67, 75
3, 41660, Note_on_c, 1, 67, 0
3, 41664, Note_on_c, 1, 64, 75
3, 41756, Note_on_c, 1, 64, 0
3, 41760, Note_on_c, 1, 67, 75
3, 41852, Note_on_c, 1, 67, 0
3, 41856, Note_on_c, 1, 60, 75
3, 41948, Note_on_c, 1, 60, 0
3, 41952, Note_on_c, 1, 67, 75
3, 42044, Note_on_c, 1, 67, 0
3, 42048, Note_on_c, 1, 64, 75
3, 42140, Note_on_c, 1, 64, 0
3, 42144, Note_on_c, 1, 67, 75
3, 42236, Note_on_c, 1, 67, 0
3, 42240, Note_on_c, 1, 62, 75
3, 42332, Note_on_c, 1, 62, 0
3, 42336, Note_on_c, 1, 67, 75
3, 42428, Note_on_c, 1, 67, 0
3, 42432, Note_on_c, 1, 65, 75
3, 42524, Note_on_c, 1, 65, 0
3, 42528, Note_on_c, 1, 67, 75
3, 42620, Note_on_c, 1, 67, 0
3, 42624, Note_on_c, 1, 60, 75
3, 42716, Note_on_c, 1, 60, 0
3, 42720, Note_on_c, 1, 67, 75
3, 42812, Note_on_c, 1, 67, 0
3, 42816, Note_on_c, 1, 64, 75
3, 42908, Note_on_c, 1, 64, 0
3, 42912, Note_on_c, 1, 67, 75
3, 43004, Note_on_c, 1, 67, 0
3, 43008, Note_on_c, 1, 60, 75
3, 43100, Note_on_c, 1, 60, 0
3, 43104, Note_on_c, 1, 67, 75
3, 43196, Note_on_c, 1, 67, 0
3, 43200, Note_on_c, 1, 64, 75
3, 43292, Note_on_c, 1, 64, 0
3, 43296, Note_on_c, 1, 67, 75
3, 43388, Note_on_c, 1, 67, 0
3, 43392, Note_on_c, 1, 60, 75
3, 43484, Note_on_c, 1, 60, 0
3, 43488, Note_on_c, 1, 67, 75
3, 43580, Note_on_c, 1, 67, 0
3, 43584, Note_on_c, 1, 64, 75
3, 43676, Note_on_c, 1, 64, 0
3, 43680, Note_on_c, 1, 67, 75
3, 43772, Note_on_c, 1, 67, 0
3, 43872, Note_on_c, 1, 69, 75
3, 43964, Note_on_c, 1, 69, 0
3, 43968, Note_on_c, 1, 77, 75
3, 44060, Note_on_c, 1, 77, 0
3, 44064, Note_on_c, 1, 74, 75
3, 44156, Note_on_c, 1, 74, 0
3, 44256, Note_on_c, 1, 67, 75
3, 44348, Note_on_c, 1, 67, 0
3, 44352, Note_on_c, 1, 76, 75
3, 44444, Note_on_c, 1, 76, 0
3, 44448, Note_on_c, 1, 72, 75
3, 44540, Note_on_c, 1, 72, 0
3, 44640, Note_on_c, 1, 65, 75
3, 44732, Note_on_c, 1, 65, 0
3, 44736, Note_on_c, 1, 74, 75
3, 44828, Note_on_c, 1, 74, 0
3, 44832, Note_on_c, 1, 71, 75
3, 44924, Note_on_c, 1, 71, 0
3, 44928, Note_on_c, 1, 72, 112
3, 44928, Note_on_c, 1, 67, 112
3, 44928, Note_on_c, 1, 64, 112
3, 45308, Note_on_c, 1, 64, 0
3, 45308, Note_on_c, 1, 67, 0
3, 45308, Note_on_c, 1, 72, 0
3, 45312, Note_on_c, 1, 64, 93
3, 45312, Note_on_c, 1, 60, 93
3, 45500, Note_on_c, 1, 60, 0
3, 45500, Note_on_c, 1, 64, 0
3, 45600, Note_on_c, 1, 64, 75
3, 45600, Note_on_c, 1, 60, 75
3, 45692, Note_on_c, 1, 60, 0
3, 45692, Note_on_c, 1, 64, 0
3, 45696, Note_on_c, 1, 65, 75
3, 45696, Note_on_c, 1, 62, 75
3, 45788, Note_on_c, 1, 62, 0
3, 45788, Note_on_c, 1, 65, 0
3, 45792, Note_on_c, 1, 67, 75
3, 45792, Note_on_c, 1, 64, 75
3, 45884, Note_on_c, 1, 64, 0
3, 45884, Note_on_c, 1, 67, 0
3, 45888, Note_on_c, 1, 65, 75
3, 45888, Note_on_c, 1, 69, 75
3, 45980, Note_on_c, 1, 69, 0
3, 45980, Note_on_c, 1, 65, 0
3, 45984, Note_on_c, 1, 71, 75
3, 45984, Note_on_c, 1, 67, 75
3, 46076, Note_on_c, 1, 67, 0
3, 46076, Note_on_c, 1, 71, 0
3, 46080, Note_on_c, 1, 72, 75
3, 46080, Note_on_c, 1, 69, 75
3, 46268, Note_on_c, 1, 69, 0
3, 46268, Note_on_c, 1, 72, 0
3, 46272, Note_on_c, 1, 71, 75
3, 46272, Note_on_c, 1, 67, 75
3, 46460, Note_on_c, 1, 67, 0
3, 46460, Note_on_c, 1, 71, 0
3, 46464, Note_on_c, 1, 69, 75
3, 46464, Note_on_c, 1, 65, 75
3, 46652, Note_on_c, 1, 65, 0
3, 46652, Note_on_c, 1, 69, 0
3, 46656, Note_on_c, 1, 67, 75
3, 46656, Note_on_c, 1, 64, 75
3, 46844, Note_on_c, 1, 64, 0
3, 46844, Note_on_c, 1, 67, 0
3, 46848, Note_on_c, 1, 65, 75
3, 46848, Note_on_c, 1, 62, 75
3, 47036, Note_on_c, 1, 62, 0
3, 47036, Note_on_c, 1, 65, 0
3, 47040, Note_on_c, 1, 64, 75
3, 47040, Note_on_c, 1, 60, 75
3, 47228, Note_on_c, 1, 60, 0
3, 47228, Note_on_c, 1, 64, 0
3, 47232, Note_on_c, 1, 62, 75
3, 47232, Note_on_c, 1, 60, 75
3, 47996, Note_on_c, 1, 62, 0
3, 48000, Note_on_c, 1, 64, 75
3, 48380, Note_on_c, 1, 64, 0
3, 48380, Note_on_c, 1, 60, 0
3, 48384, Note_on_c, 1, 67, 75
3, 48384, Note_on_c, 1, 60, 75
3, 48668, Note_on_c, 1, 67, 0
3, 48672, Note_on_c, 1, 65, 75
3, 48764, Note_on_c, 1, 65, 0
3, 48784, Note_on_c, 1, 65, 75
3, 49148, Note_on_c, 1, 60, 0
3, 49152, Note_on_c, 1, 62, 75
3, 49532, Note_on_c, 1, 62, 0
3, 49536, Note_on_c, 1, 60, 75
3, 49548, Note_on_c, 1, 65, 0
3, 49628, Note_on_c, 1, 60, 0
3, 49632, Note_on_c, 1, 67, 75
3, 49724, Note_on_c, 1, 67, 0
3, 49728, Note_on_c, 1, 64, 75
3, 49820, Note_on_c, 1, 64, 0
3, 49824, Note_on_c, 1, 67, 75
3, 49916, Note_on_c, 1, 67, 0
3, 49920, Note_on_c, 1, 60, 75
3, 50012, Note_on_c, 1, 60, 0
3, 50016, Note_on_c, 1, 67, 75
3, 50108, Note_on_c, 1, 67, 0
3, 50112, Note_on_c, 1, 64, 75
3, 50204, Note_on_c, 1, 64, 0
3, 50208, Note_on_c, 1, 67, 75
3, 50288, Note_on_c, 1, 62, 75
3, 50300, Note_on_c, 1, 67, 0
3, 50380, Note_on_c, 1, 62, 0
3, 50400, Note_on_c, 1, 67, 75
3, 50492, Note_on_c, 1, 67, 0
3, 50496, Note_on_c, 1, 65, 75
3, 50588, Note_on_c, 1, 65, 0
3, 50592, Note_on_c, 1, 67, 75
3, 50684, Note_on_c, 1, 67, 0
3, 50688, Note_on_c, 1, 79, 75
3, 50688, Note_on_c, 1, 60, 75
3, 50780, Note_on_c, 1, 60, 0
3, 50784, Note_on_c, 1, 67, 75
3, 50876, Note_on_c, 1, 67, 0
3, 50880, Note_on_c, 1, 64, 75
3, 50972, Note_on_c, 1, 64, 0
3, 50976, Note_on_c, 1, 67, 75
3, 51068, Note_on_c, 1, 67, 0
3, 51068, Note_on_c, 1, 79, 0
3, 51072, Note_on_c, 1, 60, 75
3, 51072, Note_on_c, 1, 79, 75
3, 51104, Note_on_c, 1, 79, 0
3, 51104, Note_on_c, 1, 81, 75
3, 51136, Note_on_c, 1, 81, 0
3, 51136, Note_on_c, 1, 79, 75
3, 51164, Note_on_c, 1, 60, 0
3, 51168, Note_on_c, 1, 79, 0
3, 51168, Note_on_c, 1, 67, 75
3, 51168, Note_on_c, 1, 81, 75
3, 51200, Note_on_c, 1, 81, 0
3, 51200, Note_on_c, 1, 79, 75
3, 51232, Note_on_c, 1, 79, 0
3, 51232, Note_on_c, 1, 81, 75
3, 51260, Note_on_c, 1, 67, 0
3, 51264, Note_on_c, 1, 81, 0
3, 51264, Note_on_c, 1, 79, 75
3, 51264, Note_on_c, 1, 64, 75
3, 51296, Note_on_c, 1, 79, 0
3, 51296, Note_on_c, 1, 81, 75
3, 51328, Note_on_c, 1, 81, 0
3, 51328, Note_on_c, 1, 79, 75
3, 51356, Note_on_c, 1, 64, 0
3, 51360, Note_on_c, 1, 79, 0
3, 51360, Note_on_c, 1, 77, 75
3, 51360, Note_on_c, 1, 67, 75
3, 51404, Note_on_c, 1, 77, 0
3, 51408, Note_on_c, 1, 79, 75
3, 51452, Note_on_c, 1, 79, 0
3, 51452, Note_on_c, 1, 67, 0
3, 51456, Note_on_c, 1, 62, 75
3, 51456, Note_on_c, 1, 83, 75
3, 51488, Note_on_c, 1, 83, 0
3, 51488, Note_on_c, 1, 84, 75
3, 51520, Note_on_c, 1, 84, 0
3, 51520, Note_on_c, 1, 83, 75
3, 51548, Note_on_c, 1, 62, 0
3, 51552, Note_on_c, 1, 83, 0
3, 51552, Note_on_c, 1, 67, 75
3, 51552, Note_on_c, 1, 84, 75
3, 51584, Note_on_c, 1, 84, 0
3, 51584, Note_on_c, 1, 83, 75
3, 51616, Note_on_c, 1, 83, 0
3, 51616, Note_on_c, 1, 84, 75
3, 51644, Note_on_c, 1, 67, 0
3, 51648, Note_on_c, 1, 84, 0
3, 51648, Note_on_c, 1, 83, 75
3, 51648, Note_on_c, 1, 65, 75
3, 51680, Note_on_c, 1, 83, 0
3, 51680, Note_on_c, 1, 84, 75
3, 51712, Note_on_c, 1, 84, 0
3, 51712, Note_on_c, 1, 83, 75
3, 51740, Note_on_c, 1, 65, 0
3, 51744, Note_on_c, 1, 83, 0
3, 51744, Note_on_c, 1, 81, 75
3, 51744, Note_on_c, 1, 67, 75
3, 51788, Note_on_c, 1, 81, 0
3, 51792, Note_on_c, 1, 83, 75
3, 51836, Note_on_c, 1, 83, 0
3, 51836, Note_on_c, 1, 67, 0
3, 51840, Note_on_c, 1, 60, 75
3, 51840, Note_on_c, 1, 84, 75
3, 51932, Note_on_c, 1, 60, 0
3, 51936, Note_on_c, 1, 67, 75
3, 52028, Note_on_c, 1, 67, 0
3, 52032, Note_on_c, 1, 64, 75
3, 52124, Note_on_c, 1, 64, 0
3, 52124, Note_on_c, 1, 84, 0
3, 52128, Note_on_c, 1, 67, 75
3, 52128, Note_on_c, 1, 79, 75
3, 52220, Note_on_c, 1, 79, 0
3, 52220, Note_on_c, 1, 67, 0
3, 52224, Note_on_c, 1, 60, 75
3, 52240, Note_on_c, 1, 84, 75
3, 52316, Note_on_c, 1, 60, 0
3, 52320, Note_on_c, 1, 67, 75
3, 52412, Note_on_c, 1, 67, 0
3, 52416, Note_on_c, 1, 64, 75
3, 52508, Note_on_c, 1, 64, 0
3, 52512, Note_on_c, 1, 67, 75
3, 52604, Note_on_c, 1, 67, 0
3, 52608, Note_on_c, 1, 62, 75
3, 52700, Note_on_c, 1, 62, 0
3, 52704, Note_on_c, 1, 67, 75
3, 52796, Note_on_c, 1, 67, 0
3, 52800, Note_on_c, 1, 65, 75
3, 52812, Note_on_c, 1, 84, 0
3, 52892, Note_on_c, 1, 65, 0
3, 52896, Note_on_c, 1, 67, 75
3, 52988, Note_on_c, 1, 67, 0
3, 52992, Note_on_c, 1, 79, 75
3, 52992, Note_on_c, 1, 60, 75
3, 53084, Note_on_c, 1, 60, 0
3, 53088, Note_on_c, 1, 67, 75
3, 53180, Note_on_c, 1, 67, 0
3, 53184, Note_on_c, 1, 64, 75
3, 53276, Note_on_c, 1, 64, 0
3, 53280, Note_on_c, 1, 67, 75
3, 53372, Note_on_c, 1, 67, 0
3, 53372, Note_on_c, 1, 79, 0
3, 53376, Note_on_c, 1, 60, 75
3, 53376, Note_on_c, 1, 79, 75
3, 53408, Note_on_c, 1, 79, 0
3, 53408, Note_on_c, 1, 81, 75
3, 53440, Note_on_c, 1, 81, 0
3, 53440, Note_on_c, 1, 79, 75
3, 53468, Note_on_c, 1, 60, 0
3, 53472, Note_on_c, 1, 79, 0
3, 53472, Note_on_c, 1, 67, 75
3, 53472, Note_on_c, 1, 81, 75
3, 53504, Note_on_c, 1, 81, 0
3, 53504, Note_on_c, 1, 79, 75
3, 53536, Note_on_c, 1, 79, 0
3, 53536, Note_on_c, 1, 81, 75
3, 53564, Note_on_c, 1, 67, 0
3, 53568, Note_on_c, 1, 81, 0
3, 53568, Note_on_c, 1, 79, 75
3, 53568, Note_on_c, 1, 64, 75
3, 53600, Note_on_c, 1, 79, 0
3, 53600, Note_on_c, 1, 81, 75
3, 53632, Note_on_c, 1, 81, 0
3, 53632, Note_on_c, 1, 79, 75
3, 53660, Note_on_c, 1, 64, 0
3, 53664, Note_on_c, 1, 79, 0
3, 53664, Note_on_c, 1, 77, 75
3, 53664, Note_on_c, 1, 67, 75
3, 53708, Note_on_c, 1, 77, 0
3, 53712, Note_on_c, 1, 79, 75
3, 53756, Note_on_c, 1, 79, 0
3, 53756, Note_on_c, 1, 67, 0
3, 53760, Note_on_c, 1, 62, 75
3, 53760, Note_on_c, 1, 83, 75
3, 53792, Note_on_c, 1, 83, 0
3, 53792, Note_on_c, 1, 84, 75
3, 53824, Note_on_c, 1, 84, 0
3, 53824, Note_on_c, 1, 83, 75
3, 53852, Note_on_c, 1, 62, 0
3, 53856, Note_on_c, 1, 83, 0
3, 53856, Note_on_c, 1, 67, 75
3, 53856, Note_on_c, 1, 84, 75
3, 53888, Note_on_c, 1, 84, 0
3, 53888, Note_on_c, 1, 83, 75
3, 53920, Note_on_c, 1, 83, 0
3, 53920, Note_on_c, 1, 84, 75
3, 53948, Note_on_c, 1, 67, 0
3, 53952, Note_on_c, 1, 84, 0
3, 53952, Note_on_c, 1, 83, 75
3, 53952, Note_on_c, 1, 65, 75
3, 53984, Note_on_c, 1, 83, 0
3, 53984, Note_on_c, 1, 84, 75
3, 54016, Note_on_c, 1, 84, 0
3, 54016, Note_on_c, 1, 83, 75
3, 54044, Note_on_c, 1, 65, 0
3, 54048, Note_on_c, 1, 83, 0
3, 54048, Note_on_c, 1, 81, 75
3, 54048, Note_on_c, 1, 67, 75
3, 54092, Note_on_c, 1, 81, 0
3, 54096, Note_on_c, 1, 83, 75
3, 54140, Note_on_c, 1, 83, 0
3, 54140, Note_on_c, 1, 67, 0
3, 54144, Note_on_c, 1, 84, 102
3, 54144, Note_on_c, 1, 67, 102
3, 54144, Note_on_c, 1, 64, 102
3, 54144, Note_on_c, 1, 60, 102
3, 54332, Note_on_c, 1, 60, 0
3, 54332, Note_on_c, 1, 84, 0
3, 54332, Note_on_c, 1, 67, 0
3, 54332, Note_on_c, 1, 64, 0
3, 54336, Note_on_c, 1, 77, 102
3, 54336, Note_on_c, 1, 74, 102
3, 54524, Note_on_c, 1, 74, 0
3, 54524, Note_on_c, 1, 77, 0
3, 54528, Note_on_c, 1, 76, 102
3, 54528, Note_on_c, 1, 72, 102
3, 54716, Note_on_c, 1, 72, 0
3, 54716, Note_on_c, 1, 76, 0
3, 54720, Note_on_c, 1, 74, 102
3, 54720, Note_on_c, 1, 71, 102
3, 54908, Note_on_c, 1, 71, 0
3, 54908, Note_on_c, 1, 74, 0
3, 54912, Note_on_c, 1, 72, 102
3, 54912, Note_on_c, 1, 69, 102
3, 55100, Note_on_c, 1, 69, 0
3, 55100, Note_on_c, 1, 72, 0
3, 55104, Note_on_c, 1, 71, 102
3, 55104, Note_on_c, 1, 67, 102
3, 55292, Note_on_c, 1, 67, 0
3, 55292, Note_on_c, 1, 71, 0
3, 55296, Note_on_c, 1, 65, 102
3, 55296, Note_on_c, 1, 69, 102
3, 55484, Note_on_c, 1, 69, 0
3, 55484, Note_on_c, 1, 65, 0
3, 55680, Note_on_c, 1, 65, 102
3, 55680, Note_on_c, 1, 69, 102
3, 55868, Note_on_c, 1, 69, 0
3, 55868, Note_on_c, 1, 65, 0
3, 56064, Note_on_c, 1, 74, 102
3, 56064, Note_on_c, 1, 65, 102
3, 56444, Note_on_c, 1, 65, 0
3, 56444, Note_on_c, 1, 74, 0
3, 56448, Note_on_c, 1, 72, 102
3, 56448, Note_on_c, 1, 64, 102
3, 56624, Note_on_c, 1, 65, 102
3, 56636, Note_on_c, 1, 64, 0
3, 56636, Note_on_c, 1, 72, 0
3, 56640, Note_on_c, 1, 72, 102
3, 56812, Note_on_c, 1, 65, 0
3, 56828, Note_on_c, 1, 72, 0
3, 56832, Note_on_c, 1, 72, 102
3, 56832, Note_on_c, 1, 67, 102
3, 57020, Note_on_c, 1, 67, 0
3, 57020, Note_on_c, 1, 72, 0
3, 57024, Note_on_c, 1, 72, 102
3, 57024, Note_on_c, 1, 67, 102
3, 57212, Note_on_c, 1, 67, 0
3, 57212, Note_on_c, 1, 72, 0
3, 57216, Note_on_c, 1, 71, 102
3, 57216, Note_on_c, 1, 55, 102
3, 57404, Note_on_c, 1, 55, 0
3, 57404, Note_on_c, 1, 71, 0
3, 57408, Note_on_c, 1, 71, 102
3, 57408, Note_on_c, 1, 55, 102
3, 57596, Note_on_c, 1, 55, 0
3, 57596, Note_on_c, 1, 71, 0
3, 57600, Note_on_c, 1, 84, 75
3, 57600, Note_on_c, 1, 79, 75
3, 57600, Note_on_c, 1, 76, 75
3, 57600, Note_on_c, 1, 72, 75
3, 57660, Note_on_c, 1, 84, 0
3, 57664, Note_on_c, 1, 86, 75
3, 57724, Note_on_c, 1, 86, 0
3, 57728, Note_on_c, 1, 84, 75
3, 57788, Note_on_c, 1, 84, 0
3, 57788, Note_on_c, 1, 79, 0
3, 57788, Note_on_c, 1, 76, 0
3, 57788, Note_on_c, 1, 72, 0
3, 57792, Note_on_c, 1, 82, 75
3, 57792, Note_on_c, 1, 77, 75
3, 57792, Note_on_c, 1, 74, 75
3, 57852, Note_on_c, 1, 82, 0
3, 57856, Note_on_c, 1, 84, 75
3, 57916, Note_on_c, 1, 84, 0
3, 57920, Note_on_c, 1, 82, 75
3, 57980, Note_on_c, 1, 82, 0
3, 57980, Note_on_c, 1, 74, 0
3, 57980, Note_on_c, 1, 77, 0
3, 57984, Note_on_c, 1, 81, 75
3, 57984, Note_on_c, 1, 76, 75
3, 57984, Note_on_c, 1, 72, 75
3, 58044, Note_on_c, 1, 81, 0
3, 58048, Note_on_c, 1, 82, 75
3, 58108, Note_on_c, 1, 82, 0
3, 58112, Note_on_c, 1, 81, 75
3, 58172, Note_on_c, 1, 81, 0
3, 58172, Note_on_c, 1, 72, 0
3, 58172, Note_on_c, 1, 76, 0
3, 58176, Note_on_c, 1, 79, 75
3, 58176, Note_on_c, 1, 74, 75
3, 58176, Note_on_c, 1, 71, 75
3, 58236, Note_on_c, 1, 79, 0
3, 58240, Note_on_c, 1, 81, 75
3, 58300, Note_on_c, 1, 81, 0
3, 58304, Note_on_c, 1, 79, 75
3, 58364, Note_on_c, 1, 79, 0
3, 58364, Note_on_c, 1, 71, 0
3, 58364, Note_on_c, 1, 74, 0
3, 58368, Note_on_c, 1, 77, 75
3, 58368, Note_on_c, 1, 72, 75
3, 58368, Note_on_c, 1, 69, 75
3, 58428, Note_on_c, 1, 77, 0
3, 58432, Note_on_c, 1, 79, 75
3, 58492, Note_on_c, 1, 79, 0
3, 58496, Note_on_c, 1, 77, 75
3, 58556, Note_on_c, 1, 77, 0
3, 58556, Note_on_c, 1, 69, 0
3, 58556, Note_on_c, 1, 72, 0
3, 58560, Note_on_c, 1, 76, 75
3, 58560, Note_on_c, 1, 71, 75
3, 58560, Note_on_c, 1, 67, 75
3, 58620, Note_on_c, 1, 76, 0
3, 58624, Note_on_c, 1, 77, 75
3, 58684, Note_on_c, 1, 77, 0
3, 58688, Note_on_c, 1, 76, 75
3, 58748, Note_on_c, 1, 76, 0
3, 58748, Note_on_c, 1, 67, 0
3, 58748, Note_on_c, 1, 71, 0
3, 58752, Note_on_c, 1, 65, 75
3, 58752, Note_on_c, 1, 69, 75
3, 58752, Note_on_c, 1, 74, 75
3, 58796, Note_on_c, 1, 74, 0
3, 58800, Note_on_c, 1, 76, 75
3, 58844, Note_on_c, 1, 76, 0
3, 58848, Note_on_c, 1, 74, 75
3, 58892, Note_on_c, 1, 74, 0
3, 58896, Note_on_c, 1, 73, 75
3, 58940, Note_on_c, 1, 73, 0
3, 58944, Note_on_c, 1, 74, 75
3, 58988, Note_on_c, 1, 74, 0
3, 58992, Note_on_c, 1, 76, 75
3, 59036, Note_on_c, 1, 76, 0
3, 59040, Note_on_c, 1, 74, 75
3, 59084, Note_on_c, 1, 74, 0
3, 59088, Note_on_c, 1, 76, 75
3, 59132, Note_on_c, 1, 76, 0
3, 59132, Note_on_c, 1, 69, 0
3, 59132, Note_on_c, 1, 65, 0
3, 59136, Note_on_c, 1, 65, 75
3, 59136, Note_on_c, 1, 69, 75
3, 59136, Note_on_c, 1, 77, 75
3, 59180, Note_on_c, 1, 77, 0
3, 59184, Note_on_c, 1, 79, 75
3, 59228, Note_on_c, 1, 79, 0
3, 59232, Note_on_c, 1, 77, 75
3, 59276, Note_on_c, 1, 77, 0
3, 59280, Note_on_c, 1, 76, 75
3, 59324, Note_on_c, 1, 76, 0
3, 59328, Note_on_c, 1, 77, 75
3, 59372, Note_on_c, 1, 77, 0
3, 59376, Note_on_c, 1, 79, 75
3, 59420, Note_on_c, 1, 79, 0
3, 59424, Note_on_c, 1, 77, 75
3, 59468, Note_on_c, 1, 77, 0
3, 59472, Note_on_c, 1, 79, 75
3, 59516, Note_on_c, 1, 79, 0
3, 59516, Note_on_c, 1, 69, 0
3, 59516, Note_on_c, 1, 65, 0
3, 59520, Note_on_c, 1, 65, 75
3, 59520, Note_on_c, 1, 69, 75
3, 59520, Note_on_c, 1, 81, 75
3, 59564, Note_on_c, 1, 81, 0
3, 59568, Note_on_c, 1, 83, 75
3, 59612, Note_on_c, 1, 83, 0
3, 59616, Note_on_c, 1, 81, 75
3, 59660, Note_on_c, 1, 81, 0
3, 59664, Note_on_c, 1, 79, 75
3, 59708, Note_on_c, 1, 79, 0
3, 59708, Note_on_c, 1, 69, 0
3, 59708, Note_on_c, 1, 65, 0
3, 59712, Note_on_c, 1, 81, 75
3, 59712, Note_on_c, 1, 65, 75
3, 59712, Note_on_c, 1, 67, 75
3, 59756, Note_on_c, 1, 81, 0
3, 59760, Note_on_c, 1, 83, 75
3, 59804, Note_on_c, 1, 83, 0
3, 59808, Note_on_c, 1, 81, 75
3, 59852, Note_on_c, 1, 81, 0
3, 59856, Note_on_c, 1, 83, 75
3, 59900, Note_on_c, 1, 83, 0
3, 59900, Note_on_c, 1, 67, 0
3, 59900, Note_on_c, 1, 65, 0
3, 59904, Note_on_c, 1, 64, 75
3, 59904, Note_on_c, 1, 67, 75
3, 59904, Note_on_c, 1, 84, 75
3, 59948, Note_on_c, 1, 84, 0
3, 59952, Note_on_c, 1, 83, 75
3, 59996, Note_on_c, 1, 83, 0
3, 60000, Note_on_c, 1, 84, 75
3, 60044, Note_on_c, 1, 84, 0
3, 60048, Note_on_c, 1, 79, 75
3, 60092, Note_on_c, 1, 79, 0
3, 60092, Note_on_c, 1, 67, 0
3, 60092, Note_on_c, 1, 64, 0
3, 60096, Note_on_c, 1, 83, 75
3, 60096, Note_on_c, 1, 65, 75
3, 60096, Note_on_c, 1, 72, 75
3, 60140, Note_on_c, 1, 83, 0
3, 60144, Note_on_c, 1, 81, 75
3, 60188, Note_on_c, 1, 81, 0
3, 60192, Note_on_c, 1, 79, 75
3, 60236, Note_on_c, 1, 79, 0
3, 60240, Note_on_c, 1, 77, 75
3, 60284, Note_on_c, 1, 77, 0
3, 60284, Note_on_c, 1, 72, 0
3, 60284, Note_on_c, 1, 65, 0
3, 60288, Note_on_c, 1, 76, 75
3, 60288, Note_on_c, 1, 67, 75
3, 60288, Note_on_c, 1, 72, 75
3, 60476, Note_on_c, 1, 72, 0
3, 60476, Note_on_c, 1, 67, 0
3, 60480, Note_on_c, 1, 67, 75
3, 60480, Note_on_c, 1, 72, 75
3, 60668, Note_on_c, 1, 72, 0
3, 60668, Note_on_c, 1, 67, 0
3, 60668, Note_on_c, 1, 76, 0
3, 60672, Note_on_c, 1, 71, 75
3, 60672, Note_on_c, 1, 67, 75
3, 60672, Note_on_c, 1, 74, 75
3, 60704, Note_on_c, 1, 74, 0
3, 60704, Note_on_c, 1, 76, 75
3, 60736, Note_on_c, 1, 76, 0
3, 60736, Note_on_c, 1, 74, 75
3, 60768, Note_on_c, 1, 74, 0
3, 60768, Note_on_c, 1, 76, 75
3, 60800, Note_on_c, 1, 76, 0
3, 60800, Note_on_c, 1, 74, 75
3, 60832, Note_on_c, 1, 74, 0
3, 60832, Note_on_c, 1, 76, 75
3, 60860, Note_on_c, 1, 67, 0
3, 60860, Note_on_c, 1, 71, 0
3, 60864, Note_on_c, 1, 76, 0
3, 60864, Note_on_c, 1, 67, 75
3, 60864, Note_on_c, 1, 71, 75
3, 60864, Note_on_c, 1, 74, 75
3, 60896, Note_on_c, 1, 74, 0
3, 60896, Note_on_c, 1, 76, 75
3, 60928, Note_on_c, 1, 76, 0
3, 60928, Note_on_c, 1, 74, 75
3, 60960, Note_on_c, 1, 74, 0
3, 60960, Note_on_c, 1, 72, 75
3, 61000, Note_on_c, 1, 72, 0
3, 61008, Note_on_c, 1, 74, 75
3, 61048, Note_on_c, 1, 74, 0
3, 61052, Note_on_c, 1, 71, 0
3, 61052, Note_on_c, 1, 67, 0
3, 61056, Note_on_c, 1, 72, 93
3, 61244, Note_on_c, 1, 72, 0
3, 61248, Note_on_c, 1, 72, 93
3, 61436, Note_on_c, 1, 72, 0
3, 61536, Note_on_c, 1, 72, 93
3, 61628, Note_on_c, 1, 72, 0
3, 61632, Note_on_c, 1, 71, 93
3, 61724, Note_on_c, 1, 71, 0
3, 61728, Note_on_c, 1, 72, 93
3, 61820, Note_on_c, 1, 72, 0
3, 61824, Note_on_c, 1, 76, 93
3, 61916, Note_on_c, 1, 76, 0
3, 61920, Note_on_c, 1, 72, 93
3, 62012, Note_on_c, 1, 72, 0
3, 62016, Note_on_c, 1, 79, 93
3, 62108, Note_on_c, 1, 79, 0
3, 62112, Note_on_c, 1, 76, 93
3, 62204, Note_on_c, 1, 76, 0
3, 62208, Note_on_c, 1, 74, 93
3, 62396, Note_on_c, 1, 74, 0
3, 62400, Note_on_c, 1, 74, 93
3, 62588, Note_on_c, 1, 74, 0
3, 62688, Note_on_c, 1, 74, 93
3, 62780, Note_on_c, 1, 74, 0
3, 62784, Note_on_c, 1, 73, 93
3, 62876, Note_on_c, 1, 73, 0
3, 62880, Note_on_c, 1, 74, 93
3, 62972, Note_on_c, 1, 74, 0
3, 62976, Note_on_c, 1, 77, 93
3, 63068, Note_on_c, 1, 77, 0
3, 63072, Note_on_c, 1, 74, 93
3, 63164, Note_on_c, 1, 74, 0
3, 63168, Note_on_c, 1, 81, 93
3, 63260, Note_on_c, 1, 81, 0
3, 63264, Note_on_c, 1, 77, 93
3, 63356, Note_on_c, 1, 77, 0
3, 63360, Note_on_c, 1, 77, 93
3, 63452, Note_on_c, 1, 77, 0
3, 63456, Note_on_c, 1, 76, 93
3, 63548, Note_on_c, 1, 76, 0
3, 63552, Note_on_c, 1, 76, 93
3, 63740, Note_on_c, 1, 76, 0
3, 63840, Note_on_c, 1, 76, 93
3, 63932, Note_on_c, 1, 76, 0
3, 63936, Note_on_c, 1, 77, 93
3, 64028, Note_on_c, 1, 77, 0
3, 64032, Note_on_c, 1, 76, 93
3, 64124, Note_on_c, 1, 76, 0
3, 64128, Note_on_c, 1, 79, 93
3, 64220, Note_on_c, 1, 79, 0
3, 64224, Note_on_c, 1, 76, 93
3, 64316, Note_on_c, 1, 76, 0
3, 64320, Note_on_c, 1, 82, 93
3, 64412, Note_on_c, 1, 82, 0
3, 64416, Note_on_c, 1, 79, 93
3, 64508, Note_on_c, 1, 79, 0
3, 64512, Note_on_c, 1, 79, 93
3, 64604, Note_on_c, 1, 79, 0
3, 64608, Note_on_c, 1, 77, 93
3, 64700, Note_on_c, 1, 77, 0
3, 64704, Note_on_c, 1, 77, 93
3, 64892, Note_on_c, 1, 77, 0
3, 64992, Note_on_c, 1, 77, 93
3, 65084, Note_on_c, 1, 77, 0
3, 65088, Note_on_c, 1, 76, 93
3, 65180, Note_on_c, 1, 76, 0
3, 65184, Note_on_c, 1, 77, 93
3, 65276, Note_on_c, 1, 77, 0
3, 65280, Note_on_c, 1, 81, 93
3, 65372, Note_on_c, 1, 81, 0
3, 65376, Note_on_c, 1, 77, 93
3, 65468, Note_on_c, 1, 77, 0
3, 65472, Note_on_c, 1, 84, 93
3, 65564, Note_on_c, 1, 84, 0
3, 65568, Note_on_c, 1, 81, 93
3, 65660, Note_on_c, 1, 81, 0
3, 65664, Note_on_c, 1, 79, 112
3, 65664, Note_on_c, 1, 82, 112
3, 65852, Note_on_c, 1, 82, 0
3, 65852, Note_on_c, 1, 79, 0
3, 65856, Note_on_c, 1, 79, 112
3, 65856, Note_on_c, 1, 82, 112
3, 66044, Note_on_c, 1, 82, 0
3, 66044, Note_on_c, 1, 79, 0
3, 66048, Note_on_c, 1, 79, 112
3, 66048, Note_on_c, 1, 82, 112
3, 66140, Note_on_c, 1, 82, 0
3, 66140, Note_on_c, 1, 79, 0
3, 66144, Note_on_c, 1, 77, 112
3, 66144, Note_on_c, 1, 81, 112
3, 66236, Note_on_c, 1, 81, 0
3, 66236, Note_on_c, 1, 77, 0
3, 66240, Note_on_c, 1, 76, 112
3, 66240, Note_on_c, 1, 79, 112
3, 66332, Note_on_c, 1, 79, 0
3, 66332, Note_on_c, 1, 76, 0
3, 66336, Note_on_c, 1, 74, 112
3, 66336, Note_on_c, 1, 77, 112
3, 66428, Note_on_c, 1, 77, 0
3, 66428, Note_on_c, 1, 74, 0
3, 66432, Note_on_c, 1, 72, 112
3, 66432, Note_on_c, 1, 76, 112
3, 66524, Note_on_c, 1, 76, 0
3, 66524, Note_on_c, 1, 72, 0
3, 66528, Note_on_c, 1, 70, 112
3, 66528, Note_on_c, 1, 74, 112
3, 66620, Note_on_c, 1, 74, 0
3, 66620, Note_on_c, 1, 70, 0
3, 66624, Note_on_c, 1, 72, 112
3, 66624, Note_on_c, 1, 69, 112
3, 66716, Note_on_c, 1, 69, 0
3, 66716, Note_on_c, 1, 72, 0
3, 66720, Note_on_c, 1, 70, 112
3, 66720, Note_on_c, 1, 67, 112
3, 66812, Note_on_c, 1, 67, 0
3, 66812, Note_on_c, 1, 70, 0
3, 66816, Note_on_c, 1, 57, 75
3, 66828, Note_on_c, 1, 60, 75
3, 66844, Note_on_c, 1, 65, 75
3, 66860, Note_on_c, 1, 69, 75
3, 67004, Note_on_c, 1, 57, 0
3, 67016, Note_on_c, 1, 60, 0
3, 67032, Note_on_c, 1, 65, 0
3, 67048, Note_on_c, 1, 69, 0
3, 67200, Note_on_c, 1, 57, 75
3, 67212, Note_on_c, 1, 60, 75
3, 67228, Note_on_c, 1, 65, 75
3, 67244, Note_on_c, 1, 69, 75
3, 67388, Note_on_c, 1, 57, 0
3, 67400, Note_on_c, 1, 60, 0
3, 67416, Note_on_c, 1, 65, 0
3, 67432, Note_on_c, 1, 69, 0
3, 67584, Note_on_c, 1, 57, 75
3, 67596, Note_on_c, 1, 60, 75
3, 67612, Note_on_c, 1, 65, 75
3, 67628, Note_on_c, 1, 69, 75
3, 67772, Note_on_c, 1, 57, 0
3, 67784, Note_on_c, 1, 60, 0
3, 67800, Note_on_c, 1, 65, 0
3, 67816, Note_on_c, 1, 69, 0
3, 67968, Note_on_c, 1, 58, 97
3, 68012, Note_on_c, 1, 58, 0
3, 68016, Note_on_c, 1, 60, 97
3, 68060, Note_on_c, 1, 60, 0
3, 68064, Note_on_c, 1, 64, 97
3, 68108, Note_on_c, 1, 64, 0
3, 68112, Note_on_c, 1, 67, 97
3, 68640, Note_on_c, 1, 64, 97
3, 68720, Note_on_c, 1, 65, 97
3, 68732, Note_on_c, 1, 64, 0
3, 68736, Note_on_c, 1, 57, 97
3, 68780, Note_on_c, 1, 67, 0
3, 69004, Note_on_c, 1, 65, 0
3, 69020, Note_on_c, 1, 57, 0
3, 69120, Note_on_c, 1, 69, 75
3, 69120, Note_on_c, 1, 65, 75
3, 69212, Note_on_c, 1, 65, 0
3, 69212, Note_on_c, 1, 69, 0
3, 69216, Note_on_c, 1, 67, 75
3, 69216, Note_on_c, 1, 70, 75
3, 69308, Note_on_c, 1, 70, 0
3, 69308, Note_on_c, 1, 67, 0
3, 69312, Note_on_c, 1, 69, 75
3, 69312, Note_on_c, 1, 72, 75
3, 69404, Note_on_c, 1, 72, 0
3, 69404, Note_on_c, 1, 69, 0
3, 69408, Note_on_c, 1, 70, 75
3, 69408, Note_on_c, 1, 74, 75
3, 69500, Note_on_c, 1, 74, 0
3, 69500, Note_on_c, 1, 70, 0
3, 69504, Note_on_c, 1, 72, 75
3, 69504, Note_on_c, 1, 69, 75
3, 69596, Note_on_c, 1, 69, 0
3, 69596, Note_on_c, 1, 72, 0
3, 69600, Note_on_c, 1, 74, 75
3, 69600, Note_on_c, 1, 70, 75
3, 69692, Note_on_c, 1, 70, 0
3, 69692, Note_on_c, 1, 74, 0
3, 69696, Note_on_c, 1, 76, 75
3, 69696, Note_on_c, 1, 67, 75
3, 69788, Note_on_c, 1, 67, 0
3, 69788, Note_on_c, 1, 76, 0
3, 69792, Note_on_c, 1, 77, 75
3, 69792, Note_on_c, 1, 69, 75
3, 69884, Note_on_c, 1, 69, 0
3, 69884, Note_on_c, 1, 77, 0
3, 69888, Note_on_c, 1, 76, 75
3, 69888, Note_on_c, 1, 67, 75
3, 69980, Note_on_c, 1, 67, 0
3, 69980, Note_on_c, 1, 76, 0
3, 69984, Note_on_c, 1, 77, 75
3, 69984, Note_on_c, 1, 69, 75
3, 70076, Note_on_c, 1, 69, 0
3, 70076, Note_on_c, 1, 77, 0
3, 70080, Note_on_c, 1, 76, 75
3, 70080, Note_on_c, 1, 67, 75
3, 70172, Note_on_c, 1, 67, 0
3, 70172, Note_on_c, 1, 76, 0
3, 70176, Note_on_c, 1, 77, 75
3, 70176, Note_on_c, 1, 69, 75
3, 70268, Note_on_c, 1, 69, 0
3, 70268, Note_on_c, 1, 77, 0
3, 70272, Note_on_c, 1, 70, 75
3, 70272, Note_on_c, 1, 65, 75
3, 70652, Note_on_c, 1, 65, 0
3, 70940, Note_on_c, 1, 70, 0
3, 70944, Note_on_c, 1, 72, 75
3, 70988, Note_on_c, 1, 72, 0
3, 70992, Note_on_c, 1, 74, 75
3, 71036, Note_on_c, 1, 74, 0
3, 71040, Note_on_c, 1, 72, 75
3, 71324, Note_on_c, 1, 72, 0
3, 71664, Note_on_c, 1, 69, 105
3, 71708, Note_on_c, 1, 69, 0
3, 72048, Note_on_c, 1, 69, 105
3, 72092, Note_on_c, 1, 69, 0
3, 72432, Note_on_c, 1, 74, 105
3, 72476, Note_on_c, 1, 74, 0
3, 72816, Note_on_c, 1, 72, 105
3, 72860, Note_on_c, 1, 72, 0
3, 73200, Note_on_c, 1, 72, 105
3, 73244, Note_on_c, 1, 72, 0
3, 73584, Note_on_c, 1, 72, 105
3, 73628, Note_on_c, 1, 72, 0
3, 73968, Note_on_c, 1, 70, 105
3, 74012, Note_on_c, 1, 70, 0
3, 74352, Note_on_c, 1, 70, 105
3, 74396, Note_on_c, 1, 70, 0
3, 74736, Note_on_c, 1, 70, 105
3, 74780, Note_on_c, 1, 70, 0
3, 75120, Note_on_c, 1, 69, 105
3, 75164, Note_on_c, 1, 69, 0
3, 76032, Note_on_c, 1, 67, 65
3, 76032, Note_on_c, 1, 64, 65
3, 76220, Note_on_c, 1, 64, 0
3, 76220, Note_on_c, 1, 67, 0
3, 76224, Note_on_c, 1, 67, 65
3, 76224, Note_on_c, 1, 64, 65
3, 76412, Note_on_c, 1, 64, 0
3, 76412, Note_on_c, 1, 67, 0
3, 76416, Note_on_c, 1, 67, 65
3, 76416, Note_on_c, 1, 64, 65
3, 76604, Note_on_c, 1, 64, 0
3, 76604, Note_on_c, 1, 67, 0
3, 76608, Note_on_c, 1, 67, 65
3, 76608, Note_on_c, 1, 64, 65
3, 76796, Note_on_c, 1, 64, 0
3, 76796, Note_on_c, 1, 67, 0
3, 76800, Note_on_c, 1, 67, 65
3, 76800, Note_on_c, 1, 64, 65
3, 76988, Note_on_c, 1, 64, 0
3, 76988, Note_on_c, 1, 67, 0
3, 76992, Note_on_c, 1, 67, 65
3, 76992, Note_on_c, 1, 64, 65
3, 77180, Note_on_c, 1, 64, 0
3, 77180, Note_on_c, 1, 67, 0
3, 77184, Note_on_c, 1, 67, 65
3, 77184, Note_on_c, 1, 65, 65
3, 77184, Note_on_c, 1, 62, 65
3, 77372, Note_on_c, 1, 62, 0
3, 77372, Note_on_c, 1, 65, 0
3, 77372, Note_on_c, 1, 67, 0
3, 77376, Note_on_c, 1, 67, 65
3, 77376, Note_on_c, 1, 65, 65
3, 77376, Note_on_c, 1, 62, 65
3, 77564, Note_on_c, 1, 62, 0
3, 77564, Note_on_c, 1, 65, 0
3, 77564, Note_on_c, 1, 67, 0
3, 77568, Note_on_c, 1, 67, 65
3, 77568, Note_on_c, 1, 65, 65
3, 77568, Note_on_c, 1, 62, 65
3, 77756, Note_on_c, 1, 62, 0
3, 77756, Note_on_c, 1, 65, 0
3, 77756, Note_on_c, 1, 67, 0
3, 77760, Note_on_c, 1, 67, 65
3, 77760, Note_on_c, 1, 65, 65
3, 77760, Note_on_c, 1, 62, 65
3, 77948, Note_on_c, 1, 62, 0
3, 77948, Note_on_c, 1, 65, 0
3, 77948, Note_on_c, 1, 67, 0
3, 77952, Note_on_c, 1, 67, 65
3, 77952, Note_on_c, 1, 65, 65
3, 77952, Note_on_c, 1, 62, 65
3, 78140, Note_on_c, 1, 62, 0
3, 78140, Note_on_c, 1, 65, 0
3, 78140, Note_on_c, 1, 67, 0
3, 78144, Note_on_c, 1, 67, 65
3, 78144, Note_on_c, 1, 65, 65
3, 78144, Note_on_c, 1, 62, 65
3, 78332, Note_on_c, 1, 62, 0
3, 78332, Note_on_c, 1, 65, 0
3, 78332, Note_on_c, 1, 67, 0
3, 78336, Note_on_c, 1, 67, 65
3, 78336, Note_on_c, 1, 65, 65
3, 78524, Note_on_c, 1, 65, 0
3, 78524, Note_on_c, 1, 67, 0
3, 78528, Note_on_c, 1, 67, 65
3, 78528, Note_on_c, 1, 65, 65
3, 78716, Note_on_c, 1, 65, 0
3, 78716, Note_on_c, 1, 67, 0
3, 78720, Note_on_c, 1, 67, 65
3, 78720, Note_on_c, 1, 65, 65
3, 78908, Note_on_c, 1, 65, 0
3, 78908, Note_on_c, 1, 67, 0
3, 78912, Note_on_c, 1, 67, 65
3, 78912, Note_on_c, 1, 65, 65
3, 79100, Note_on_c, 1, 65, 0
3, 79100, Note_on_c, 1, 67, 0
3, 79104, Note_on_c, 1, 67, 65
3, 79104, Note_on_c, 1, 65, 65
3, 79292, Note_on_c, 1, 65, 0
3, 79292, Note_on_c, 1, 67, 0
3, 79296, Note_on_c, 1, 67, 65
3, 79296, Note_on_c, 1, 65, 65
3, 79484, Note_on_c, 1, 65, 0
3, 79484, Note_on_c, 1, 67, 0
3, 79488, Note_on_c, 1, 67, 65
3, 79488, Note_on_c, 1, 64, 65
3, 79488, Note_on_c, 1, 60, 65
3, 80060, Note_on_c, 1, 60, 0
3, 80060, Note_on_c, 1, 64, 0
3, 80060, Note_on_c, 1, 67, 0
3, 80064, Note_on_c, 1, 67, 103
3, 80064, Note_on_c, 1, 64, 103
3, 80252, Note_on_c, 1, 64, 0
3, 80252, Note_on_c, 1, 67, 0
3, 80256, Note_on_c, 1, 69, 93
3, 80256, Note_on_c, 1, 65, 93
3, 80444, Note_on_c, 1, 65, 0
3, 80444, Note_on_c, 1, 69, 0
3, 80448, Note_on_c, 1, 70, 83
3, 80448, Note_on_c, 1, 67, 83
3, 80636, Note_on_c, 1, 67, 0
3, 80636, Note_on_c, 1, 70, 0
3, 80640, Note_on_c, 1, 72, 75
3, 80640, Note_on_c, 1, 69, 75
3, 81212, Note_on_c, 1, 69, 0
3, 81212, Note_on_c, 1, 72, 0
3, 81216, Note_on_c, 1, 74, 75
3, 81308, Note_on_c, 1, 74, 0
3, 81312, Note_on_c, 1, 72, 75
3, 81404, Note_on_c, 1, 72, 0
3, 81408, Note_on_c, 1, 77, 75
3, 81500, Note_on_c, 1, 77, 0
3, 81504, Note_on_c, 1, 76, 75
3, 81596, Note_on_c, 1, 76, 0
3, 81600, Note_on_c, 1, 74, 75
3, 81692, Note_on_c, 1, 74, 0
3, 81696, Note_on_c, 1, 72, 75
3, 81788, Note_on_c, 1, 72, 0
3, 81792, Note_on_c, 1, 72, 75
3, 82076, Note_on_c, 1, 72, 0
3, 82080, Note_on_c, 1, 74, 75
3, 82172, Note_on_c, 1, 74, 0
3, 82176, Note_on_c, 1, 72, 75
3, 82556, Note_on_c, 1, 72, 0
3, 82944, Note_on_c, 1, 67, 105
3, 83064, Note_on_c, 1, 67, 0
3, 83064, Note_on_c, 1, 79, 85
3, 83512, Note_on_c, 1, 79, 0
3, 83520, Note_on_c, 1, 77, 75
3, 83560, Note_on_c, 1, 77, 0
3, 83568, Note_on_c, 1, 76, 75
3, 83608, Note_on_c, 1, 76, 0
3, 83616, Note_on_c, 1, 74, 75
3, 83656, Note_on_c, 1, 74, 0
3, 83664, Note_on_c, 1, 72, 75
3, 83704, Note_on_c, 1, 72, 0
3, 83712, Note_on_c, 1, 72, 75
3, 83800, Note_on_c, 1, 72, 0
3, 83808, Note_on_c, 1, 72, 75
3, 83896, Note_on_c, 1, 72, 0
3, 83904, Note_on_c, 1, 72, 75
3, 83992, Note_on_c, 1, 72, 0
3, 84000, Note_on_c, 1, 72, 75
3, 84088, Note_on_c, 1, 72, 0
3, 84096, Note_on_c, 1, 72, 75
3, 84380, Note_on_c, 1, 72, 0
3, 84384, Note_on_c, 1, 69, 75
3, 84476, Note_on_c, 1, 69, 0
3, 84480, Note_on_c, 1, 72, 75
3, 84860, Note_on_c, 1, 72, 0
3, 88128, Note_on_c, 1, 67, 78
3, 88128, Note_on_c, 1, 64, 78
3, 88316, Note_on_c, 1, 64, 0
3, 88316, Note_on_c, 1, 67, 0
3, 88320, Note_on_c, 1, 69, 86
3, 88320, Note_on_c, 1, 65, 86
3, 88508, Note_on_c, 1, 65, 0
3, 88508, Note_on_c, 1, 69, 0
3, 88512, Note_on_c, 1, 70, 95
3, 88512, Note_on_c, 1, 67, 95
3, 88700, Note_on_c, 1, 67, 0
3, 88700, Note_on_c, 1, 70, 0
3, 88704, Note_on_c, 1, 72, 99
3, 88704, Note_on_c, 1, 69, 99
3, 89084, Note_on_c, 1, 69, 0
3, 89084, Note_on_c, 1, 72, 0
3, 89088, Note_on_c, 1, 69, 84
3, 89088, Note_on_c, 1, 65, 84
3, 89276, Note_on_c, 1, 65, 0
3, 89276, Note_on_c, 1, 69, 0
3, 89376, Note_on_c, 1, 69, 75
3, 89376, Note_on_c, 1, 65, 75
3, 89468, Note_on_c, 1, 65, 0
3, 89468, Note_on_c, 1, 69, 0
3, 89472, Note_on_c, 1, 70, 75
3, 89472, Note_on_c, 1, 67, 75
3, 89564, Note_on_c, 1, 67, 0
3, 89564, Note_on_c, 1, 70, 0
3, 89568, Note_on_c, 1, 72, 75
3, 89568, Note_on_c, 1, 69, 75
3, 89660, Note_on_c, 1, 69, 0
3, 89660, Note_on_c, 1, 72, 0
3, 89664, Note_on_c, 1, 74, 75
3, 89664, Note_on_c, 1, 70, 75
3, 89756, Note_on_c, 1, 70, 0
3, 89756, Note_on_c, 1, 74, 0
3, 89760, Note_on_c, 1, 76, 75
3, 89760, Note_on_c, 1, 72, 75
3, 89852, Note_on_c, 1, 72, 0
3, 89852, Note_on_c, 1, 76, 0
3, 89856, Note_on_c, 1, 77, 75
3, 89856, Note_on_c, 1, 74, 75
3, 90044, Note_on_c, 1, 74, 0
3, 90044, Note_on_c, 1, 77, 0
3, 90048, Note_on_c, 1, 76, 75
3, 90048, Note_on_c, 1, 72, 75
3, 90236, Note_on_c, 1, 72, 0
3, 90236, Note_on_c, 1, 76, 0
3, 90240, Note_on_c, 1, 74, 75
3, 90240, Note_on_c, 1, 70, 75
3, 90428, Note_on_c, 1, 70, 0
3, 90428, Note_on_c, 1, 74, 0
3, 90432, Note_on_c, 1, 72, 75
3, 90432, Note_on_c, 1, 69, 75
3, 90620, Note_on_c, 1, 69, 0
3, 90620, Note_on_c, 1, 72, 0
3, 90624, Note_on_c, 1, 70, 75
3, 90624, Note_on_c, 1, 67, 75
3, 90812, Note_on_c, 1, 67, 0
3, 90812, Note_on_c, 1, 70, 0
3, 90816, Note_on_c, 1, 69, 75
3, 90816, Note_on_c, 1, 65, 75
3, 91004, Note_on_c, 1, 65, 0
3, 91004, Note_on_c, 1, 69, 0
3, 91008, Note_on_c, 1, 67, 75
3, 91008, Note_on_c, 1, 64, 75
3, 91008, Note_on_c, 1, 60, 75
3, 91388, Note_on_c, 1, 60, 0
3, 91392, Note_on_c, 1, 58, 84
3, 91392, Note_on_c, 1, 79, 78
3, 91392, Note_on_c, 1, 76, 78
3, 91772, Note_on_c, 1, 58, 0
3, 91772, Note_on_c, 1, 67, 0
3, 91772, Note_on_c, 1, 64, 0
3, 91776, Note_on_c, 1, 57, 85
3, 91776, Note_on_c, 1, 66, 85
3, 91964, Note_on_c, 1, 79, 0
3, 91964, Note_on_c, 1, 76, 0
3, 91968, Note_on_c, 1, 78, 86
3, 91968, Note_on_c, 1, 81, 86
3, 92156, Note_on_c, 1, 81, 0
3, 92156, Note_on_c, 1, 66, 0
3, 92156, Note_on_c, 1, 57, 0
3, 92156, Note_on_c, 1, 78, 0
3, 92160, Note_on_c, 1, 78, 90
3, 92160, Note_on_c, 1, 67, 90
3, 92160, Note_on_c, 1, 55, 90
3, 92160, Note_on_c, 1, 81, 90
3, 92444, Note_on_c, 1, 81, 0
3, 92444, Note_on_c, 1, 78, 0
3, 92448, Note_on_c, 1, 79, 90
3, 92448, Note_on_c, 1, 82, 90
3, 92540, Note_on_c, 1, 82, 0
3, 92540, Note_on_c, 1, 79, 0
3, 92544, Note_on_c, 1, 79, 85
3, 92544, Note_on_c, 1, 82, 85
3, 92732, Note_on_c, 1, 55, 0
3, 92732, Note_on_c, 1, 67, 0
3, 93116, Note_on_c, 1, 79, 0
3, 93116, Note_on_c, 1, 82, 0
3, 93120, Note_on_c, 1, 70, 80
3, 93120, Note_on_c, 1, 67, 80
3, 93308, Note_on_c, 1, 67, 0
3, 93308, Note_on_c, 1, 70, 0
3, 93312, Note_on_c, 1, 65, 75
3, 93404, Note_on_c, 1, 65, 0
3, 93408, Note_on_c, 1, 72, 75
3, 93500, Note_on_c, 1, 72, 0
3, 93504, Note_on_c, 1, 69, 75
3, 93596, Note_on_c, 1, 69, 0
3, 93600, Note_on_c, 1, 72, 75
3, 93692, Note_on_c, 1, 72, 0
3, 93696, Note_on_c, 1, 65, 75
3, 93788, Note_on_c, 1, 65, 0
3, 93792, Note_on_c, 1, 72, 75
3, 93884, Note_on_c, 1, 72, 0
3, 93888, Note_on_c, 1, 69, 75
3, 93980, Note_on_c, 1, 69, 0
3, 93984, Note_on_c, 1, 72, 75
3, 94076, Note_on_c, 1, 72, 0
3, 94080, Note_on_c, 1, 67, 75
3, 94172, Note_on_c, 1, 67, 0
3, 94176, Note_on_c, 1, 72, 75
3, 94268, Note_on_c, 1, 72, 0
3, 94272, Note_on_c, 1, 70, 75
3, 94364, Note_on_c, 1, 70, 0
3, 94368, Note_on_c, 1, 72, 75
3, 94460, Note_on_c, 1, 72, 0
3, 94464, Note_on_c, 1, 65, 75
3, 94556, Note_on_c, 1, 65, 0
3, 94560, Note_on_c, 1, 72, 75
3, 94652, Note_on_c, 1, 72, 0
3, 94656, Note_on_c, 1, 69, 75
3, 94748, Note_on_c, 1, 69, 0
3, 94752, Note_on_c, 1, 72, 75
3, 94844, Note_on_c, 1, 72, 0
3, 94848, Note_on_c, 1, 65, 75
3, 94940, Note_on_c, 1, 65, 0
3, 94944, Note_on_c, 1, 72, 75
3, 95036, Note_on_c, 1, 72, 0
3, 95040, Note_on_c, 1, 69, 75
3, 95132, Note_on_c, 1, 69, 0
3, 95136, Note_on_c, 1, 72, 75
3, 95228, Note_on_c, 1, 72, 0
3, 95232, Note_on_c, 1, 65, 75
3, 95324, Note_on_c, 1, 65, 0
3, 95328, Note_on_c, 1, 72, 75
3, 95420, Note_on_c, 1, 72, 0
3, 95424, Note_on_c, 1, 69, 75
3, 95516, Note_on_c, 1, 69, 0
3, 95520, Note_on_c, 1, 72, 75
3, 95612, Note_on_c, 1, 72, 0
3, 95712, Note_on_c, 1, 74, 75
3, 95804, Note_on_c, 1, 74, 0
3, 95808, Note_on_c, 1, 82, 75
3, 95900, Note_on_c, 1, 82, 0
3, 95904, Note_on_c, 1, 79, 75
3, 95996, Note_on_c, 1, 79, 0
3, 96096, Note_on_c, 1, 72, 75
3, 96188, Note_on_c, 1, 72, 0
3, 96192, Note_on_c, 1, 81, 75
3, 96284, Note_on_c, 1, 81, 0
3, 96288, Note_on_c, 1, 77, 75
3, 96380, Note_on_c, 1, 77, 0
3, 96480, Note_on_c, 1, 70, 75
3, 96572, Note_on_c, 1, 70, 0
3, 96576, Note_on_c, 1, 79, 75
3, 96668, Note_on_c, 1, 79, 0
3, 96672, Note_on_c, 1, 76, 75
3, 96764, Note_on_c, 1, 76, 0
3, 96768, Note_on_c, 1, 77, 110
3, 96768, Note_on_c, 1, 72, 110
3, 96768, Note_on_c, 1, 69, 110
3, 97148, Note_on_c, 1, 69, 0
3, 97148, Note_on_c, 1, 72, 0
3, 97148, Note_on_c, 1, 77, 0
3, 97152, Note_on_c, 1, 69, 93
3, 97152, Note_on_c, 1, 65, 93
3, 97340, Note_on_c, 1, 65, 0
3, 97340, Note_on_c, 1, 69, 0
3, 97440, Note_on_c, 1, 65, 75
3, 97440, Note_on_c, 1, 69, 75
3, 97532, Note_on_c, 1, 69, 0
3, 97532, Note_on_c, 1, 65, 0
3, 97536, Note_on_c, 1, 70, 75
3, 97536, Note_on_c, 1, 67, 75
3, 97628, Note_on_c, 1, 67, 0
3, 97628, Note_on_c, 1, 70, 0
3, 97632, Note_on_c, 1, 72, 75
3, 97632, Note_on_c, 1, 69, 75
3, 97724, Note_on_c, 1, 69, 0
3, 97724, Note_on_c, 1, 72, 0
3, 97728, Note_on_c, 1, 74, 75
3, 97728, Note_on_c, 1, 70, 75
3, 97820, Note_on_c, 1, 70, 0
3, 97820, Note_on_c, 1, 74, 0
3, 97824, Note_on_c, 1, 76, 75
3, 97824, Note_on_c, 1, 72, 75
3, 97916, Note_on_c, 1, 72, 0
3, 97916, Note_on_c, 1, 76, 0
3, 97920, Note_on_c, 1, 77, 75
3, 97920, Note_on_c, 1, 74, 75
3, 98108, Note_on_c, 1, 74, 0
3, 98108, Note_on_c, 1, 77, 0
3, 98112, Note_on_c, 1, 76, 75
3, 98112, Note_on_c, 1, 72, 75
3, 98300, Note_on_c, 1, 72, 0
3, 98300, Note_on_c, 1, 76, 0
3, 98304, Note_on_c, 1, 74, 75
3, 98304, Note_on_c, 1, 70, 75
3, 98492, Note_on_c, 1, 70, 0
3, 98492, Note_on_c, 1, 74, 0
3, 98496, Note_on_c, 1, 72, 75
3, 98496, Note_on_c, 1, 69, 75
3, 98684, Note_on_c, 1, 69, 0
3, 98684, Note_on_c, 1, 72, 0
3, 98688, Note_on_c, 1, 70, 75
3, 98688, Note_on_c, 1, 67, 75
3, 98876, Note_on_c, 1, 67, 0
3, 98876, Note_on_c, 1, 70, 0
3, 98880, Note_on_c, 1, 69, 75
3, 98880, Note_on_c, 1, 65, 75
3, 99068, Note_on_c, 1, 65, 0
3, 99068, Note_on_c, 1, 69, 0
3, 99072, Note_on_c, 1, 65, 75
3, 99072, Note_on_c, 1, 67, 75
3, 99452, Note_on_c, 1, 65, 0
3, 99456, Note_on_c, 1, 64, 78
3, 99836, Note_on_c, 1, 64, 0
3, 99836, Note_on_c, 1, 67, 0
3, 99840, Note_on_c, 1, 63, 85
3, 99840, Note_on_c, 1, 69, 85
3, 100220, Note_on_c, 1, 69, 0
3, 100220, Note_on_c, 1, 63, 0
3, 100224, Note_on_c, 1, 69, 90
3, 100224, Note_on_c, 1, 63, 90
3, 100508, Note_on_c, 1, 63, 0
3, 100508, Note_on_c, 1, 69, 0
3, 100512, Note_on_c, 1, 70, 90
3, 100512, Note_on_c, 1, 62, 90
3, 100604, Note_on_c, 1, 62, 0
3, 100604, Note_on_c, 1, 70, 0
3, 100608, Note_on_c, 1, 62, 84
3, 100608, Note_on_c, 1, 70, 84
3, 100988, Note_on_c, 1, 62, 0
3, 100992, Note_on_c, 1, 64, 78
3, 101372, Note_on_c, 1, 64, 0
3, 101372, Note_on_c, 1, 70, 0
3, 101376, Note_on_c, 1, 65, 75
3, 101376, Note_on_c, 1, 69, 75
3, 101756, Note_on_c, 1, 69, 0
3, 101756, Note_on_c, 1, 65, 0
3, 102528, Note_on_c, 1, 72, 75
3, 102908, Note_on_c, 1, 72, 0
3, 102912, Note_on_c, 1, 72, 75
3, 102972, Note_on_c, 1, 72, 0
3, 102976, Note_on_c, 1, 74, 75
3, 103036, Note_on_c, 1, 74, 0
3, 103040, Note_on_c, 1, 76, 75
3, 103100, Note_on_c, 1, 76, 0
3, 103104, Note_on_c, 1, 77, 75
3, 103164, Note_on_c, 1, 77, 0
3, 103168, Note_on_c, 1, 79, 75
3, 103228, Note_on_c, 1, 79, 0
3, 103232, Note_on_c, 1, 81, 75
3, 103292, Note_on_c, 1, 81, 0
3, 103296, Note_on_c, 1, 82, 75
3, 103356, Note_on_c, 1, 82, 0
3, 103360, Note_on_c, 1, 81, 75
3, 103420, Note_on_c, 1, 81, 0
3, 103424, Note_on_c, 1, 79, 75
3, 103484, Note_on_c, 1, 79, 0
3, 103488, Note_on_c, 1, 77, 75
3, 103548, Note_on_c, 1, 77, 0
3, 103552, Note_on_c, 1, 79, 75
3, 103612, Note_on_c, 1, 79, 0
3, 103616, Note_on_c, 1, 76, 75
3, 103676, Note_on_c, 1, 76, 0
3, 103680, Note_on_c, 1, 77, 75
3, 104064, Note_on_c, 1, 65, 75
3, 104156, Note_on_c, 1, 65, 0
3, 104160, Note_on_c, 1, 72, 75
3, 104252, Note_on_c, 1, 72, 0
3, 104252, Note_on_c, 1, 77, 0
3, 104256, Note_on_c, 1, 69, 75
3, 104348, Note_on_c, 1, 69, 0
3, 104352, Note_on_c, 1, 72, 75
3, 104444, Note_on_c, 1, 72, 0
3, 104448, Note_on_c, 1, 67, 75
3, 104540, Note_on_c, 1, 67, 0
3, 104544, Note_on_c, 1, 72, 75
3, 104636, Note_on_c, 1, 72, 0
3, 104640, Note_on_c, 1, 70, 75
3, 104732, Note_on_c, 1, 70, 0
3, 104736, Note_on_c, 1, 72, 75
3, 104828, Note_on_c, 1, 72, 0
3, 104832, Note_on_c, 1, 72, 75
3, 104832, Note_on_c, 1, 65, 93
3, 104924, Note_on_c, 1, 65, 0
3, 104924, Note_on_c, 1, 72, 0
3, 104928, Note_on_c, 1, 72, 93
3, 105020, Note_on_c, 1, 72, 0
3, 105024, Note_on_c, 1, 69, 93
3, 105116, Note_on_c, 1, 69, 0
3, 105120, Note_on_c, 1, 72, 93
3, 105212, Note_on_c, 1, 72, 0
3, 105216, Note_on_c, 1, 65, 93
3, 105308, Note_on_c, 1, 65, 0
3, 105312, Note_on_c, 1, 72, 93
3, 105404, Note_on_c, 1, 72, 0
3, 105408, Note_on_c, 1, 69, 93
3, 105500, Note_on_c, 1, 69, 0
3, 105504, Note_on_c, 1, 72, 93
3, 105596, Note_on_c, 1, 72, 0
3, 105600, Note_on_c, 1, 67, 93
3, 105692, Note_on_c, 1, 67, 0
3, 105696, Note_on_c, 1, 72, 93
3, 105788, Note_on_c, 1, 72, 0
3, 105792, Note_on_c, 1, 70, 93
3, 105884, Note_on_c, 1, 70, 0
3, 105888, Note_on_c, 1, 72, 93
3, 105980, Note_on_c, 1, 72, 0
3, 105984, Note_on_c, 1, 89, 75
3, 105984, Note_on_c, 1, 72, 75
3, 105984, Note_on_c, 1, 69, 75
3, 105984, Note_on_c, 1, 65, 75
3, 106172, Note_on_c, 1, 65, 0
3, 106172, Note_on_c, 1, 89, 0
3, 106172, Note_on_c, 1, 72, 0
3, 106172, Note_on_c, 1, 69, 0
3, 106176, Note_on_c, 1, 82, 75
3, 106176, Note_on_c, 1, 79, 75
3, 106364, Note_on_c, 1, 79, 0
3, 106364, Note_on_c, 1, 82, 0
3, 106368, Note_on_c, 1, 81, 75
3, 106368, Note_on_c, 1, 77, 75
3, 106556, Note_on_c, 1, 77, 0
3, 106556, Note_on_c, 1, 81, 0
3, 106560, Note_on_c, 1, 79, 75
3, 106560, Note_on_c, 1, 76, 75
3, 106748, Note_on_c, 1, 76, 0
3, 106748, Note_on_c, 1, 79, 0
3, 106752, Note_on_c, 1, 77, 75
3, 106752, Note_on_c, 1, 74, 75
3, 106940, Note_on_c, 1, 74, 0
3, 106940, Note_on_c, 1, 77, 0
3, 106944, Note_on_c, 1, 76, 75
3, 106944, Note_on_c, 1, 72, 75
3, 107132, Note_on_c, 1, 72, 0
3, 107132, Note_on_c, 1, 76, 0
3, 107136, Note_on_c, 1, 74, 75
3, 107136, Note_on_c, 1, 70, 75
3, 107324, Note_on_c, 1, 70, 0
3, 107324, Note_on_c, 1, 74, 0
3, 107328, Note_on_c, 1, 74, 75
3, 107328, Note_on_c, 1, 70, 75
3, 107516, Note_on_c, 1, 70, 0
3, 107516, Note_on_c, 1, 74, 0
3, 107520, Note_on_c, 1, 74, 75
3, 107520, Note_on_c, 1, 70, 75
3, 107708, Note_on_c, 1, 70, 0
3, 107708, Note_on_c, 1, 74, 0
3, 107712, Note_on_c, 1, 74, 75
3, 107712, Note_on_c, 1, 70, 75
3, 107900, Note_on_c, 1, 70, 0
3, 107900, Note_on_c, 1, 74, 0
3, 107904, Note_on_c, 1, 76, 75
3, 107904, Note_on_c, 1, 70, 75
3, 108092, Note_on_c, 1, 70, 0
3, 108092, Note_on_c, 1, 76, 0
3, 108096, Note_on_c, 1, 76, 75
3, 108096, Note_on_c, 1, 70, 75
3, 108284, Note_on_c, 1, 70, 0
3, 108284, Note_on_c, 1, 76, 0
3, 108288, Note_on_c, 1, 77, 75
3, 108288, Note_on_c, 1, 69, 75
3, 108476, Note_on_c, 1, 69, 0
3, 108476, Note_on_c, 1, 77, 0
3, 108480, Note_on_c, 1, 77, 75
3, 108480, Note_on_c, 1, 70, 75
3, 108668, Note_on_c, 1, 70, 0
3, 108668, Note_on_c, 1, 77, 0
3, 108672, Note_on_c, 1, 77, 75
3, 108672, Note_on_c, 1, 72, 75
3, 108860, Note_on_c, 1, 72, 0
3, 108860, Note_on_c, 1, 77, 0
3, 108864, Note_on_c, 1, 77, 75
3, 108864, Note_on_c, 1, 72, 75
3, 109052, Note_on_c, 1, 72, 0
3, 109052, Note_on_c, 1, 77, 0
3, 109056, Note_on_c, 1, 76, 75
3, 109056, Note_on_c, 1, 60, 81
3, 109244, Note_on_c, 1, 60, 0
3, 109244, Note_on_c, 1, 76, 0
3, 109248, Note_on_c, 1, 76, 75
3, 109248, Note_on_c, 1, 60, 81
3, 109436, Note_on_c, 1, 60, 0
3, 109436, Note_on_c, 1, 76, 0
3, 109440, Note_on_c, 1, 72, 81
3, 109440, Note_on_c, 1, 69, 81
3, 109440, Note_on_c, 1, 65, 81
3, 109628, Note_on_c, 1, 65, 0
3, 109628, Note_on_c, 1, 69, 0
3, 109628, Note_on_c, 1, 72, 0
3, 112896, Note_on_c, 1, 72, 90
3, 113084, Note_on_c, 1, 72, 0
3, 113088, Note_on_c, 1, 89, 91
3, 113276, Note_on_c, 1, 89, 0
3, 113280, Note_on_c, 1, 84, 93
3, 113468, Note_on_c, 1, 84, 0
3, 113472, Note_on_c, 1, 81, 95
3, 113660, Note_on_c, 1, 81, 0
3, 113664, Note_on_c, 1, 77, 96
3, 113852, Note_on_c, 1, 77, 0
3, 113856, Note_on_c, 1, 72, 98
3, 114044, Note_on_c, 1, 72, 0
3, 114048, Note_on_c, 1, 76, 100
3, 114072, Note_on_c, 1, 76, 0
3, 114072, Note_on_c, 1, 77, 100
3, 114096, Note_on_c, 1, 77, 0
3, 114096, Note_on_c, 1, 76, 100
3, 114120, Note_on_c, 1, 76, 0
3, 114120, Note_on_c, 1, 77, 100
3, 114144, Note_on_c, 1, 77, 0
3, 114144, Note_on_c, 1, 76, 100
3, 114168, Note_on_c, 1, 76, 0
3, 114168, Note_on_c, 1, 77, 101
3, 114192, Note_on_c, 1, 77, 0
3, 114192, Note_on_c, 1, 76, 101
3, 114216, Note_on_c, 1, 76, 0
3, 114216, Note_on_c, 1, 77, 101
3, 114240, Note_on_c, 1, 77, 0
3, 114240, Note_on_c, 1, 76, 101
3, 114264, Note_on_c, 1, 76, 0
3, 114264, Note_on_c, 1, 77, 101
3, 114288, Note_on_c, 1, 77, 0
3, 114288, Note_on_c, 1, 76, 102
3, 114312, Note_on_c, 1, 76, 0
3, 114312, Note_on_c, 1, 77, 102
3, 114336, Note_on_c, 1, 77, 0
3, 114336, Note_on_c, 1, 76, 102
3, 114360, Note_on_c, 1, 76, 0
3, 114360, Note_on_c, 1, 77, 102
3, 114384, Note_on_c, 1, 77, 0
3, 114384, Note_on_c, 1, 76, 102
3, 114408, Note_on_c, 1, 76, 0
3, 114408, Note_on_c, 1, 77, 103
3, 114432, Note_on_c, 1, 77, 0
3, 114432, Note_on_c, 1, 76, 103
3, 114456, Note_on_c, 1, 76, 0
3, 114456, Note_on_c, 1, 77, 103
3, 114480, Note_on_c, 1, 77, 0
3, 114480, Note_on_c, 1, 76, 103
3, 114504, Note_on_c, 1, 76, 0
3, 114504, Note_on_c, 1, 77, 104
3, 114528, Note_on_c, 1, 77, 0
3, 114528, Note_on_c, 1, 76, 104
3, 114552, Note_on_c, 1, 76, 0
3, 114552, Note_on_c, 1, 77, 104
3, 114576, Note_on_c, 1, 77, 0
3, 114576, Note_on_c, 1, 76, 104
3, 114600, Note_on_c, 1, 76, 0
3, 114600, Note_on_c, 1, 77, 104
3, 114624, Note_on_c, 1, 77, 0
3, 114624, Note_on_c, 1, 76, 105
3, 114648, Note_on_c, 1, 76, 0
3, 114648, Note_on_c, 1, 77, 105
3, 114672, Note_on_c, 1, 77, 0
3, 114672, Note_on_c, 1, 76, 105
3, 114696, Note_on_c, 1, 76, 0
3, 114696, Note_on_c, 1, 77, 105
3, 114720, Note_on_c, 1, 77, 0
3, 114720, Note_on_c, 1, 76, 105
3, 114744, Note_on_c, 1, 76, 0
3, 114744, Note_on_c, 1, 77, 106
3, 114768, Note_on_c, 1, 77, 0
3, 114768, Note_on_c, 1, 76, 106
3, 114792, Note_on_c, 1, 76, 0
3, 114792, Note_on_c, 1, 77, 106
3, 114816, Note_on_c, 1, 77, 0
3, 114816, Note_on_c, 1, 76, 106
3, 114840, Note_on_c, 1, 76, 0
3, 114840, Note_on_c, 1, 77, 106
3, 114864, Note_on_c, 1, 77, 0
3, 114864, Note_on_c, 1, 76, 107
3, 114888, Note_on_c, 1, 76, 0
3, 114888, Note_on_c, 1, 77, 107
3, 114912, Note_on_c, 1, 77, 0
3, 114912, Note_on_c, 1, 76, 107
3, 114936, Note_on_c, 1, 76, 0
3, 114936, Note_on_c, 1, 77, 107
3, 114960, Note_on_c, 1, 77, 0
3, 114960, Note_on_c, 1, 76, 107
3, 114984, Note_on_c, 1, 76, 0
3, 114984, Note_on_c, 1, 77, 108
3, 115008, Note_on_c, 1, 77, 0
3, 115008, Note_on_c, 1, 74, 108
3, 115100, Note_on_c, 1, 74, 0
3, 115104, Note_on_c, 1, 76, 109
3, 115196, Note_on_c, 1, 76, 0
3, 115200, Note_on_c, 1, 77, 110
3, 115388, Note_on_c, 1, 77, 0
3, 115392, Note_on_c, 1, 77, 110
3, 115580, Note_on_c, 1, 77, 0
3, 115584, Note_on_c, 1, 76, 110
3, 115772, Note_on_c, 1, 76, 0
3, 115776, Note_on_c, 1, 74, 110
3, 115776, Note_on_c, 1, 65, 110
3, 115964, Note_on_c, 1, 65, 0
3, 115964, Note_on_c, 1, 74, 0
3, 115968, Note_on_c, 1, 72, 110
3, 115968, Note_on_c, 1, 64, 110
3, 116156, Note_on_c, 1, 64, 0
3, 116156, Note_on_c, 1, 72, 0
3, 116160, Note_on_c, 1, 70, 110
3, 116160, Note_on_c, 1, 62, 110
3, 116348, Note_on_c, 1, 62, 0
3, 116348, Note_on_c, 1, 70, 0
3, 116352, Note_on_c, 1, 69, 110
3, 116352, Note_on_c, 1, 60, 110
3, 116540, Note_on_c, 1, 60, 0
3, 116540, Note_on_c, 1, 69, 0
3, 116544, Note_on_c, 1, 74, 110
3, 116544, Note_on_c, 1, 69, 110
3, 116544, Note_on_c, 1, 65, 110
3, 116732, Note_on_c, 1, 65, 0
3, 116732, Note_on_c, 1, 69, 0
3, 116732, Note_on_c, 1, 74, 0
3, 116736, Note_on_c, 1, 72, 110
3, 116736, Note_on_c, 1, 67, 110
3, 116736, Note_on_c, 1, 64, 110
3, 116924, Note_on_c, 1, 64, 0
3, 116924, Note_on_c, 1, 67, 0
3, 116924, Note_on_c, 1, 72, 0
3, 116928, Note_on_c, 1, 70, 110
3, 116928, Note_on_c, 1, 65, 110
3, 116928, Note_on_c, 1, 62, 110
3, 117116, Note_on_c, 1, 62, 0
3, 117116, Note_on_c, 1, 65, 0
3, 117116, Note_on_c, 1, 70, 0
3, 117120, Note_on_c, 1, 69, 110
3, 117120, Note_on_c, 1, 64, 110
3, 117120, Note_on_c, 1, 60, 110
3, 117308, Note_on_c, 1, 60, 0
3, 117308, Note_on_c, 1, 64, 0
3, 117308, Note_on_c, 1, 69, 0
3, 117312, Note_on_c, 1, 67, 110
3, 117312, Note_on_c, 1, 62, 110
3, 117312, Note_on_c, 1, 58, 110
3, 117500, Note_on_c, 1, 58, 0
3, 117500, Note_on_c, 1, 62, 0
3, 117500, Note_on_c, 1, 67, 0
3, 117504, Note_on_c, 1, 65, 110
3, 117504, Note_on_c, 1, 60, 110
3, 117504, Note_on_c, 1, 57, 110
3, 117692, Note_on_c, 1, 57, 0
3, 117692, Note_on_c, 1, 60, 0
3, 117692, Note_on_c, 1, 65, 0
3, 117888, Note_on_c, 1, 77, 110
3, 117888, Note_on_c, 1, 81, 110
3, 118076, Note_on_c, 1, 81, 0
3, 118076, Note_on_c, 1, 77, 0
3, 118080, Note_on_c, 1, 81, 110
3, 118080, Note_on_c, 1, 77, 110
3, 118268, Note_on_c, 1, 77, 0
3, 118268, Note_on_c, 1, 81, 0
3, 118272, Note_on_c, 1, 81, 110
3, 118272, Note_on_c, 1, 77, 110
3, 118460, Note_on_c, 1, 77, 0
3, 118460, Note_on_c, 1, 81, 0
3, 118464, Note_on_c, 1, 81, 110
3, 118464, Note_on_c, 1, 77, 110
3, 118652, Note_on_c, 1, 77, 0
3, 118652, Note_on_c, 1, 81, 0
3, 118656, Note_on_c, 1, 81, 110
3, 118656, Note_on_c, 1, 77, 110
3, 119036, Note_on_c, 1, 77, 0
3, 119036, Note_on_c, 1, 81, 0
3, 119328, Note_on_c, 1, 77, 110
3, 119420, Note_on_c, 1, 77, 0
3, 119424, Note_on_c, 1, 76, 110
3, 119448, Note_on_c, 1, 76, 0
3, 119448, Note_on_c, 1, 77, 110
3, 119472, Note_on_c, 1, 77, 0
3, 119472, Note_on_c, 1, 76, 110
3, 119496, Note_on_c, 1, 76, 0
3, 119496, Note_on_c, 1, 77, 110
3, 119520, Note_on_c, 1, 77, 0
3, 119520, Note_on_c, 1, 76, 110
3, 119544, Note_on_c, 1, 76, 0
3, 119544, Note_on_c, 1, 77, 110
3, 119568, Note_on_c, 1, 77, 0
3, 119568, Note_on_c, 1, 76, 110
3, 119592, Note_on_c, 1, 76, 0
3, 119592, Note_on_c, 1, 77, 110
3, 119616, Note_on_c, 1, 77, 0
3, 119616, Note_on_c, 1, 76, 110
3, 119640, Note_on_c, 1, 76, 0
3, 119640, Note_on_c, 1, 77, 110
3, 119664, Note_on_c, 1, 77, 0
3, 119664, Note_on_c, 1, 76, 110
3, 119688, Note_on_c, 1, 76, 0
3, 119688, Note_on_c, 1, 77, 110
3, 119712, Note_on_c, 1, 77, 0
3, 119712, Note_on_c, 1, 74, 110
3, 119752, Note_on_c, 1, 74, 0
3, 119760, Note_on_c, 1, 76, 110
3, 119800, Note_on_c, 1, 76, 0
3, 119808, Note_on_c, 1, 77, 75
3, 119808, Note_on_c, 1, 69, 75
3, 119996, Note_on_c, 1, 69, 0
3, 119996, Note_on_c, 1, 77, 0
3, 120192, Note_on_c, 1, 69, 75
3, 120192, Note_on_c, 1, 60, 75
3, 120380, Note_on_c, 1, 60, 0
3, 120380, Note_on_c, 1, 69, 0
3, 120576, Note_on_c, 1, 69, 75
3, 120576, Note_on_c, 1, 60, 75
3, 120764, Note_on_c, 1, 60, 0
3, 120764, Note_on_c, 1, 69, 0
3, 122112, Note_on_c, 1, 65, 75
3, 122112, Note_on_c, 1, 69, 75
3, 122204, Note_on_c, 1, 69, 0
3, 122204, Note_on_c, 1, 65, 0
3, 122208, Note_on_c, 1, 67, 75
3, 122208, Note_on_c, 1, 70, 75
3, 122300, Note_on_c, 1, 70, 0
3, 122300, Note_on_c, 1, 67, 0
3, 122304, Note_on_c, 1, 69, 75
3, 122304, Note_on_c, 1, 72, 75
3, 122396, Note_on_c, 1, 72, 0
3, 122396, Note_on_c, 1, 69, 0
3, 122400, Note_on_c, 1, 70, 75
3, 122400, Note_on_c, 1, 74, 75
3, 122492, Note_on_c, 1, 74, 0
3, 122492, Note_on_c, 1, 70, 0
3, 122496, Note_on_c, 1, 72, 75
3, 122496, Note_on_c, 1, 69, 75
3, 122588, Note_on_c, 1, 69, 0
3, 122588, Note_on_c, 1, 72, 0
3, 122592, Note_on_c, 1, 74, 75
3, 122592, Note_on_c, 1, 70, 75
3, 122684, Note_on_c, 1, 70, 0
3, 122684, Note_on_c, 1, 74, 0
3, 122688, Note_on_c, 1, 76, 75
3, 122688, Note_on_c, 1, 67, 75
3, 122780, Note_on_c, 1, 67, 0
3, 122780, Note_on_c, 1, 76, 0
3, 122784, Note_on_c, 1, 77, 75
3, 122784, Note_on_c, 1, 69, 75
3, 122876, Note_on_c, 1, 69, 0
3, 122876, Note_on_c, 1, 77, 0
3, 122880, Note_on_c, 1, 76, 75
3, 122880, Note_on_c, 1, 67, 75
3, 122972, Note_on_c, 1, 67, 0
3, 122972, Note_on_c, 1, 76, 0
3, 122976, Note_on_c, 1, 77, 75
3, 122976, Note_on_c, 1, 69, 75
3, 123068, Note_on_c, 1, 69, 0
3, 123068, Note_on_c, 1, 77, 0
3, 123072, Note_on_c, 1, 76, 75
3, 123072, Note_on_c, 1, 67, 75
3, 123164, Note_on_c, 1, 67, 0
3, 123164, Note_on_c, 1, 76, 0
3, 123168, Note_on_c, 1, 77, 75
3, 123168, Note_on_c, 1, 69, 75
3, 123260, Note_on_c, 1, 69, 0
3, 123260, Note_on_c, 1, 77, 0
3, 123264, Note_on_c, 1, 70, 75
3, 123264, Note_on_c, 1, 65, 75
3, 123932, Note_on_c, 1, 70, 0
3, 123936, Note_on_c, 1, 72, 75
3, 123980, Note_on_c, 1, 72, 0
3, 123984, Note_on_c, 1, 74, 75
3, 124028, Note_on_c, 1, 74, 0
3, 124028, Note_on_c, 1, 65, 0
3, 124032, Note_on_c, 1, 72, 75
3, 124032, Note_on_c, 1, 65, 75
3, 124316, Note_on_c, 1, 65, 0
3, 124316, Note_on_c, 1, 72, 0
3, 124416, Note_on_c, 1, 69, 112
3, 124416, Note_on_c, 1, 65, 112
3, 124988, Note_on_c, 1, 69, 0
3, 124992, Note_on_c, 1, 70, 112
3, 125084, Note_on_c, 1, 70, 0
3, 125088, Note_on_c, 1, 72, 112
3, 125180, Note_on_c, 1, 72, 0
3, 125184, Note_on_c, 1, 76, 112
3, 125276, Note_on_c, 1, 76, 0
3, 125280, Note_on_c, 1, 74, 112
3, 125372, Note_on_c, 1, 74, 0
3, 125376, Note_on_c, 1, 72, 112
3, 125468, Note_on_c, 1, 72, 0
3, 125472, Note_on_c, 1, 70, 112
3, 125564, Note_on_c, 1, 70, 0
3, 125564, Note_on_c, 1, 65, 0
3, 125568, Note_on_c, 1, 69, 112
3, 125568, Note_on_c, 1, 65, 112
3, 125744, Note_on_c, 1, 67, 112
3, 125756, Note_on_c, 1, 69, 0
3, 125948, Note_on_c, 1, 65, 0
3, 125952, Note_on_c, 1, 64, 112
3, 126124, Note_on_c, 1, 67, 0
3, 126144, Note_on_c, 1, 69, 112
3, 126236, Note_on_c, 1, 69, 0
3, 126240, Note_on_c, 1, 70, 112
3, 126332, Note_on_c, 1, 70, 0
3, 126336, Note_on_c, 1, 74, 112
3, 126428, Note_on_c, 1, 74, 0
3, 126432, Note_on_c, 1, 72, 112
3, 126524, Note_on_c, 1, 72, 0
3, 126528, Note_on_c, 1, 70, 112
3, 126620, Note_on_c, 1, 70, 0
3, 126624, Note_on_c, 1, 69, 112
3, 126716, Note_on_c, 1, 69, 0
3, 126716, Note_on_c, 1, 64, 0
3, 126720, Note_on_c, 1, 67, 112
3, 126720, Note_on_c, 1, 64, 112
3, 126908, Note_on_c, 1, 67, 0
3, 126912, Note_on_c, 1, 65, 112
3, 127100, Note_on_c, 1, 64, 0
3, 127104, Note_on_c, 1, 62, 112
3, 127292, Note_on_c, 1, 62, 0
3, 127292, Note_on_c, 1, 65, 0
3, 127296, Note_on_c, 1, 67, 112
3, 127296, Note_on_c, 1, 64, 112
3, 127388, Note_on_c, 1, 64, 0
3, 127388, Note_on_c, 1, 67, 0
3, 127392, Note_on_c, 1, 69, 112
3, 127392, Note_on_c, 1, 65, 112
3, 127484, Note_on_c, 1, 65, 0
3, 127484, Note_on_c, 1, 69, 0
3, 127488, Note_on_c, 1, 70, 112
3, 127488, Note_on_c, 1, 67, 112
3, 127580, Note_on_c, 1, 67, 0
3, 127580, Note_on_c, 1, 70, 0
3, 127584, Note_on_c, 1, 72, 112
3, 127584, Note_on_c, 1, 69, 112
3, 127676, Note_on_c, 1, 69, 0
3, 127676, Note_on_c, 1, 72, 0
3, 127680, Note_on_c, 1, 74, 112
3, 127680, Note_on_c, 1, 70, 112
3, 127772, Note_on_c, 1, 70, 0
3, 127772, Note_on_c, 1, 74, 0
3, 127776, Note_on_c, 1, 70, 112
3, 127776, Note_on_c, 1, 67, 112
3, 127868, Note_on_c, 1, 67, 0
3, 127868, Note_on_c, 1, 70, 0
3, 127872, Note_on_c, 1, 69, 112
3, 127872, Note_on_c, 1, 65, 112
3, 128156, Note_on_c, 1, 69, 0
3, 128160, Note_on_c, 1, 67, 112
3, 128252, Note_on_c, 1, 67, 0
3, 128252, Note_on_c, 1, 65, 0
3, 128256, Note_on_c, 1, 64, 112
3, 128256, Note_on_c, 1, 67, 112
3, 128636, Note_on_c, 1, 64, 0
3, 128640, Note_on_c, 1, 63, 112
3, 128828, Note_on_c, 1, 67, 0
3, 128832, Note_on_c, 1, 69, 112
3, 129020, Note_on_c, 1, 69, 0
3, 129020, Note_on_c, 1, 63, 0
3, 129024, Note_on_c, 1, 70, 112
3, 129024, Note_on_c, 1, 67, 112
3, 129024, Note_on_c, 1, 65, 112
3, 129024, Note_on_c, 1, 62, 112
3, 129308, Note_on_c, 1, 70, 0
3, 129312, Note_on_c, 1, 72, 112
3, 129356, Note_on_c, 1, 72, 0
3, 129360, Note_on_c, 1, 74, 112
3, 129404, Note_on_c, 1, 74, 0
3, 129404, Note_on_c, 1, 67, 0
3, 129404, Note_on_c, 1, 65, 0
3, 129404, Note_on_c, 1, 62, 0
3, 129408, Note_on_c, 1, 65, 112
3, 129788, Note_on_c, 1, 65, 0
3, 129792, Note_on_c, 1, 64, 112
3, 129792, Note_on_c, 1, 69, 112
3, 129792, Note_on_c, 1, 60, 112
3, 129980, Note_on_c, 1, 60, 0
3, 129980, Note_on_c, 1, 69, 0
3, 129984, Note_on_c, 1, 67, 112
3, 129984, Note_on_c, 1, 58, 112
3, 130172, Note_on_c, 1, 58, 0
3, 130172, Note_on_c, 1, 67, 0
3, 130172, Note_on_c, 1, 64, 0
3, 130176, Note_on_c, 1, 57, 102
3, 130176, Note_on_c, 1, 65, 102
3, 130364, Note_on_c, 1, 65, 0
3, 130364, Note_on_c, 1, 57, 0
3, 130368, Note_on_c, 1, 77, 102
3, 130460, Note_on_c, 1, 77, 0
3, 130464, Note_on_c, 1, 76, 102
3, 130556, Note_on_c, 1, 76, 0
3, 130560, Note_on_c, 1, 76, 102
3, 130652, Note_on_c, 1, 76, 0
3, 130656, Note_on_c, 1, 74, 102
3, 130748, Note_on_c, 1, 74, 0
3, 130752, Note_on_c, 1, 74, 102
3, 130844, Note_on_c, 1, 74, 0
3, 130848, Note_on_c, 1, 72, 102
3, 130940, Note_on_c, 1, 72, 0
3, 130944, Note_on_c, 1, 72, 102
3, 131036, Note_on_c, 1, 72, 0
3, 131040, Note_on_c, 1, 71, 102
3, 131132, Note_on_c, 1, 71, 0
3, 131136, Note_on_c, 1, 74, 102
3, 131228, Note_on_c, 1, 74, 0
3, 131232, Note_on_c, 1, 72, 102
3, 131324, Note_on_c, 1, 72, 0
3, 131328, Note_on_c, 1, 70, 102
3, 131328, Note_on_c, 1, 65, 102
3, 131468, Note_on_c, 1, 65, 0
3, 131468, Note_on_c, 1, 70, 0
3, 131472, Note_on_c, 1, 62, 102
3, 131516, Note_on_c, 1, 62, 0
3, 131520, Note_on_c, 1, 65, 102
3, 131564, Note_on_c, 1, 65, 0
3, 131568, Note_on_c, 1, 70, 102
3, 131612, Note_on_c, 1, 70, 0
3, 131616, Note_on_c, 1, 65, 102
3, 131660, Note_on_c, 1, 65, 0
3, 131664, Note_on_c, 1, 62, 102
3, 131708, Note_on_c, 1, 62, 0
3, 131904, Note_on_c, 1, 65, 102
3, 131948, Note_on_c, 1, 65, 0
3, 131952, Note_on_c, 1, 69, 102
3, 131996, Note_on_c, 1, 69, 0
3, 132000, Note_on_c, 1, 65, 102
3, 132044, Note_on_c, 1, 65, 0
3, 132048, Note_on_c, 1, 60, 102
3, 132092, Note_on_c, 1, 60, 0
3, 132288, Note_on_c, 1, 64, 102
3, 132332, Note_on_c, 1, 64, 0
3, 132336, Note_on_c, 1, 67, 102
3, 132380, Note_on_c, 1, 67, 0
3, 132384, Note_on_c, 1, 64, 102
3, 132428, Note_on_c, 1, 64, 0
3, 132432, Note_on_c, 1, 60, 102
3, 132476, Note_on_c, 1, 60, 0
3, 132480, Note_on_c, 1, 65, 75
3, 132576, Note_on_c, 1, 72, 75
3, 132620, Note_on_c, 1, 65, 0
3, 132668, Note_on_c, 1, 72, 0
3, 132672, Note_on_c, 1, 69, 75
3, 132764, Note_on_c, 1, 69, 0
3, 132768, Note_on_c, 1, 72, 75
3, 132860, Note_on_c, 1, 72, 0
3, 132864, Note_on_c, 1, 65, 75
3, 132956, Note_on_c, 1, 65, 0
3, 132960, Note_on_c, 1, 72, 75
3, 133052, Note_on_c, 1, 72, 0
3, 133056, Note_on_c, 1, 69, 75
3, 133148, Note_on_c, 1, 69, 0
3, 133152, Note_on_c, 1, 72, 75
3, 133244, Note_on_c, 1, 72, 0
3, 133248, Note_on_c, 1, 67, 75
3, 133340, Note_on_c, 1, 67, 0
3, 133344, Note_on_c, 1, 72, 75
3, 133436, Note_on_c, 1, 72, 0
3, 133440, Note_on_c, 1, 70, 75
3, 133532, Note_on_c, 1, 70, 0
3, 133536, Note_on_c, 1, 72, 75
3, 133628, Note_on_c, 1, 72, 0
3, 133632, Note_on_c, 1, 65, 75
3, 133724, Note_on_c, 1, 65, 0
3, 133728, Note_on_c, 1, 72, 75
3, 133820, Note_on_c, 1, 72, 0
3, 133824, Note_on_c, 1, 69, 75
3, 133916, Note_on_c, 1, 69, 0
3, 133920, Note_on_c, 1, 72, 75
3, 134012, Note_on_c, 1, 72, 0
3, 134016, Note_on_c, 1, 65, 75
3, 134108, Note_on_c, 1, 65, 0
3, 134112, Note_on_c, 1, 72, 75
3, 134204, Note_on_c, 1, 72, 0
3, 134208, Note_on_c, 1, 69, 75
3, 134300, Note_on_c, 1, 69, 0
3, 134304, Note_on_c, 1, 72, 75
3, 134396, Note_on_c, 1, 72, 0
3, 134400, Note_on_c, 1, 67, 75
3, 134492, Note_on_c, 1, 67, 0
3, 134496, Note_on_c, 1, 72, 75
3, 134588, Note_on_c, 1, 72, 0
3, 134592, Note_on_c, 1, 70, 75
3, 134684, Note_on_c, 1, 70, 0
3, 134688, Note_on_c, 1, 72, 75
3, 134780, Note_on_c, 1, 72, 0
3, 134784, Note_on_c, 1, 89, 65
3, 134784, Note_on_c, 1, 65, 65
3, 134784, Note_on_c, 1, 69, 65
3, 134784, Note_on_c, 1, 72, 65
3, 134972, Note_on_c, 1, 72, 0
3, 134972, Note_on_c, 1, 89, 0
3, 134972, Note_on_c, 1, 65, 0
3, 134972, Note_on_c, 1, 69, 0
3, 135168, Note_on_c, 1, 60, 65
3, 135180, Note_on_c, 1, 65, 65
3, 135196, Note_on_c, 1, 69, 65
3, 135212, Note_on_c, 1, 72, 65
3, 135356, Note_on_c, 1, 60, 0
3, 135368, Note_on_c, 1, 65, 0
3, 135384, Note_on_c, 1, 69, 0
3, 135400, Note_on_c, 1, 72, 0
3, 135552, Note_on_c, 1, 60, 65
3, 135564, Note_on_c, 1, 65, 65
3, 135580, Note_on_c, 1, 69, 65
3, 135596, Note_on_c, 1, 72, 65
3, 135740, Note_on_c, 1, 60, 0
3, 135752, Note_on_c, 1, 65, 0
3, 135768, Note_on_c, 1, 69, 0
3, 135784, Note_on_c, 1, 72, 0
3, 135936, Note_on_c, 1, 60, 65
3, 135948, Note_on_c, 1, 65, 65
3, 135964, Note_on_c, 1, 69, 65
3, 135980, Note_on_c, 1, 72, 65
3, 136312, Note_on_c, 1, 72, 0
3, 136312, Note_on_c, 1, 69, 0
3, 136312, Note_on_c, 1, 65, 0
3, 136316, Note_on_c, 1, 60, 0
3, 136316, End_track
4, 0, Start_track
4, 0, MIDI_port, 0
4, 0, Title_t, "Harp"
4, 0, Control_c, 2, 0, 0
4, 0, Control_c, 2, 32, 0
4, 0, Program_c, 2, 48
4, 0, Control_c, 2, 7, 113
4, 0, Control_c, 2, 10, 91
4, 0, Control_c, 2, 91, 63
4, 0, Control_c, 2, 93, 45
4, 0, Control_c, 2, 121, 0
4, 96, Control_c, 2, 10, 83
4, 192, Control_c, 2, 91, 63
4, 240, Control_c, 2, 93, 40
4, 288, Program_c, 2, 48
4, 1152, Note_on_c, 2, 57, 75
4, 1152, Note_on_c, 2, 53, 75
4, 1340, Note_on_c, 2, 53, 0
4, 1340, Note_on_c, 2, 57, 0
4, 1536, Note_on_c, 2, 57, 75
4, 1536, Note_on_c, 2, 53, 75
4, 1724, Note_on_c, 2, 53, 0
4, 1724, Note_on_c, 2, 57, 0
4, 1920, Note_on_c, 2, 57, 75
4, 1920, Note_on_c, 2, 53, 75
4, 2108, Note_on_c, 2, 53, 0
4, 2108, Note_on_c, 2, 57, 0
4, 2304, Note_on_c, 2, 52, 100
4, 2304, Note_on_c, 2, 48, 100
4, 2972, Note_on_c, 2, 52, 0
4, 2976, Note_on_c, 2, 55, 100
4, 3068, Note_on_c, 2, 55, 0
4, 3068, Note_on_c, 2, 48, 0
4, 3072, Note_on_c, 2, 53, 100
4, 3072, Note_on_c, 2, 48, 100
4, 3072, Note_on_c, 2, 41, 100
4, 3260, Note_on_c, 2, 41, 0
4, 3260, Note_on_c, 2, 48, 0
4, 3260, Note_on_c, 2, 53, 0
4, 4608, Note_on_c, 2, 53, 75
4, 4608, Note_on_c, 2, 62, 75
4, 4988, Note_on_c, 2, 62, 0
4, 5276, Note_on_c, 2, 53, 0
4, 5280, Note_on_c, 2, 60, 75
4, 5320, Note_on_c, 2, 60, 0
4, 5328, Note_on_c, 2, 58, 75
4, 5368, Note_on_c, 2, 58, 0
4, 5376, Note_on_c, 2, 57, 75
4, 5376, Note_on_c, 2, 53, 75
4, 5564, Note_on_c, 2, 53, 0
4, 5564, Note_on_c, 2, 57, 0
4, 6144, Note_on_c, 2, 62, 100
4, 6524, Note_on_c, 2, 62, 0
4, 6528, Note_on_c, 2, 58, 100
4, 6908, Note_on_c, 2, 58, 0
4, 7296, Note_on_c, 2, 60, 100
4, 7676, Note_on_c, 2, 60, 0
4, 7680, Note_on_c, 2, 57, 100
4, 8060, Note_on_c, 2, 57, 0
4, 8448, Note_on_c, 2, 58, 100
4, 8828, Note_on_c, 2, 58, 0
4, 8832, Note_on_c, 2, 55, 100
4, 9212, Note_on_c, 2, 55, 0
4, 9216, Note_on_c, 2, 60, 96
4, 9980, Note_on_c, 2, 60, 0
4, 9984, Note_on_c, 2, 53, 76
4, 10364, Note_on_c, 2, 53, 0
4, 10368, Note_on_c, 2, 46, 66
4, 10652, Note_on_c, 2, 46, 0
4, 10656, Note_on_c, 2, 60, 66
4, 10688, Note_on_c, 2, 60, 0
4, 10704, Note_on_c, 2, 58, 66
4, 10736, Note_on_c, 2, 58, 0
4, 10752, Note_on_c, 2, 57, 66
4, 10752, Note_on_c, 2, 48, 66
4, 11132, Note_on_c, 2, 48, 0
4, 11132, Note_on_c, 2, 57, 0
4, 11136, Note_on_c, 2, 48, 66
4, 11516, Note_on_c, 2, 48, 0
4, 11520, Note_on_c, 2, 53, 66
4, 11900, Note_on_c, 2, 53, 0
4, 12672, Note_on_c, 2, 53, 66
4, 12672, Note_on_c, 2, 50, 66
4, 13052, Note_on_c, 2, 50, 0
4, 13052, Note_on_c, 2, 53, 0
4, 13056, Note_on_c, 2, 57, 66
4, 13056, Note_on_c, 2, 48, 66
4, 13436, Note_on_c, 2, 48, 0
4, 13436, Note_on_c, 2, 57, 0
4, 13440, Note_on_c, 2, 58, 66
4, 13440, Note_on_c, 2, 48, 66
4, 13820, Note_on_c, 2, 48, 0
4, 13820, Note_on_c, 2, 58, 0
4, 13824, Note_on_c, 2, 57, 100
4, 13824, Note_on_c, 2, 41, 100
4, 14204, Note_on_c, 2, 41, 0
4, 14204, Note_on_c, 2, 57, 0
4, 14400, Note_on_c, 2, 52, 100
4, 14400, Note_on_c, 2, 48, 100
4, 14588, Note_on_c, 2, 48, 0
4, 14588, Note_on_c, 2, 52, 0
4, 14592, Note_on_c, 2, 53, 100
4, 14592, Note_on_c, 2, 50, 100
4, 14780, Note_on_c, 2, 50, 0
4, 14780, Note_on_c, 2, 53, 0
4, 14784, Note_on_c, 2, 55, 100
4, 14784, Note_on_c, 2, 52, 100
4, 14972, Note_on_c, 2, 52, 0
4, 14972, Note_on_c, 2, 55, 0
4, 14976, Note_on_c, 2, 41, 100
4, 15020, Note_on_c, 2, 41, 0
4, 15024, Note_on_c, 2, 53, 100
4, 15212, Note_on_c, 2, 53, 0
4, 15360, Note_on_c, 2, 41, 100
4, 15404, Note_on_c, 2, 41, 0
4, 15408, Note_on_c, 2, 53, 100
4, 15596, Note_on_c, 2, 53, 0
4, 15744, Note_on_c, 2, 41, 100
4, 15788, Note_on_c, 2, 41, 0
4, 15792, Note_on_c, 2, 53, 100
4, 15980, Note_on_c, 2, 53, 0
4, 16128, Note_on_c, 2, 36, 99
4, 16172, Note_on_c, 2, 36, 0
4, 16176, Note_on_c, 2, 40, 96
4, 16220, Note_on_c, 2, 40, 0
4, 16224, Note_on_c, 2, 43, 92
4, 16268, Note_on_c, 2, 43, 0
4, 16272, Note_on_c, 2, 46, 88
4, 16316, Note_on_c, 2, 46, 0
4, 16320, Note_on_c, 2, 48, 84
4, 16832, Note_on_c, 2, 48, 0
4, 16896, Note_on_c, 2, 41, 80
4, 17084, Note_on_c, 2, 41, 0
4, 18432, Note_on_c, 2, 62, 75
4, 18432, Note_on_c, 2, 53, 75
4, 18620, Note_on_c, 2, 53, 0
4, 18620, Note_on_c, 2, 62, 0
4, 18816, Note_on_c, 2, 58, 75
4, 18816, Note_on_c, 2, 53, 75
4, 19004, Note_on_c, 2, 53, 0
4, 19004, Note_on_c, 2, 58, 0
4, 19200, Note_on_c, 2, 57, 75
4, 19200, Note_on_c, 2, 53, 75
4, 19388, Note_on_c, 2, 53, 0
4, 19388, Note_on_c, 2, 57, 0
4, 19584, Note_on_c, 2, 41, 90
4, 19628, Note_on_c, 2, 41, 0
4, 19632, Note_on_c, 2, 53, 90
4, 19676, Note_on_c, 2, 53, 0
4, 19968, Note_on_c, 2, 38, 90
4, 20012, Note_on_c, 2, 38, 0
4, 20016, Note_on_c, 2, 50, 90
4, 20060, Note_on_c, 2, 50, 0
4, 20352, Note_on_c, 2, 46, 90
4, 20396, Note_on_c, 2, 46, 0
4, 20400, Note_on_c, 2, 58, 90
4, 20444, Note_on_c, 2, 58, 0
4, 20736, Note_on_c, 2, 36, 90
4, 20780, Note_on_c, 2, 36, 0
4, 20784, Note_on_c, 2, 48, 90
4, 20828, Note_on_c, 2, 48, 0
4, 21120, Note_on_c, 2, 48, 90
4, 21164, Note_on_c, 2, 48, 0
4, 21168, Note_on_c, 2, 60, 90
4, 21212, Note_on_c, 2, 60, 0
4, 21504, Note_on_c, 2, 45, 90
4, 21548, Note_on_c, 2, 45, 0
4, 21552, Note_on_c, 2, 57, 90
4, 21596, Note_on_c, 2, 57, 0
4, 21888, Note_on_c, 2, 46, 90
4, 21932, Note_on_c, 2, 46, 0
4, 21936, Note_on_c, 2, 58, 90
4, 21980, Note_on_c, 2, 58, 0
4, 22272, Note_on_c, 2, 46, 90
4, 22316, Note_on_c, 2, 46, 0
4, 22320, Note_on_c, 2, 58, 90
4, 22364, Note_on_c, 2, 58, 0
4, 22656, Note_on_c, 2, 43, 90
4, 22700, Note_on_c, 2, 43, 0
4, 22704, Note_on_c, 2, 55, 90
4, 22748, Note_on_c, 2, 55, 0
4, 23040, Note_on_c, 2, 36, 90
4, 23084, Note_on_c, 2, 36, 0
4, 23088, Note_on_c, 2, 48, 90
4, 23132, Note_on_c, 2, 48, 0
4, 23616, Note_on_c, 2, 60, 84
4, 23804, Note_on_c, 2, 60, 0
4, 23808, Note_on_c, 2, 55, 78
4, 23996, Note_on_c, 2, 55, 0
4, 24000, Note_on_c, 2, 52, 72
4, 24188, Note_on_c, 2, 52, 0
4, 24192, Note_on_c, 2, 48, 65
4, 24380, Note_on_c, 2, 48, 0
4, 24384, Note_on_c, 2, 60, 65
4, 24572, Note_on_c, 2, 60, 0
4, 24576, Note_on_c, 2, 60, 65
4, 24764, Note_on_c, 2, 60, 0
4, 24768, Note_on_c, 2, 60, 65
4, 24956, Note_on_c, 2, 60, 0
4, 24960, Note_on_c, 2, 60, 65
4, 25148, Note_on_c, 2, 60, 0
4, 25152, Note_on_c, 2, 60, 65
4, 25340, Note_on_c, 2, 60, 0
4, 25344, Note_on_c, 2, 59, 65
4, 25532, Note_on_c, 2, 59, 0
4, 25536, Note_on_c, 2, 59, 65
4, 25724, Note_on_c, 2, 59, 0
4, 25728, Note_on_c, 2, 59, 65
4, 25916, Note_on_c, 2, 59, 0
4, 25920, Note_on_c, 2, 59, 65
4, 26108, Note_on_c, 2, 59, 0
4, 26112, Note_on_c, 2, 59, 65
4, 26300, Note_on_c, 2, 59, 0
4, 26304, Note_on_c, 2, 59, 65
4, 26492, Note_on_c, 2, 59, 0
4, 26496, Note_on_c, 2, 59, 65
4, 26496, Note_on_c, 2, 55, 65
4, 26684, Note_on_c, 2, 55, 0
4, 26684, Note_on_c, 2, 59, 0
4, 26688, Note_on_c, 2, 59, 65
4, 26688, Note_on_c, 2, 55, 65
4, 26876, Note_on_c, 2, 55, 0
4, 26876, Note_on_c, 2, 59, 0
4, 26880, Note_on_c, 2, 59, 65
4, 26880, Note_on_c, 2, 55, 65
4, 27068, Note_on_c, 2, 55, 0
4, 27068, Note_on_c, 2, 59, 0
4, 27072, Note_on_c, 2, 59, 65
4, 27072, Note_on_c, 2, 55, 65
4, 27260, Note_on_c, 2, 55, 0
4, 27260, Note_on_c, 2, 59, 0
4, 27264, Note_on_c, 2, 59, 65
4, 27264, Note_on_c, 2, 55, 65
4, 27452, Note_on_c, 2, 55, 0
4, 27452, Note_on_c, 2, 59, 0
4, 27456, Note_on_c, 2, 59, 65
4, 27456, Note_on_c, 2, 55, 65
4, 27644, Note_on_c, 2, 55, 0
4, 27644, Note_on_c, 2, 59, 0
4, 27648, Note_on_c, 2, 48, 65
4, 28220, Note_on_c, 2, 48, 0
4, 28224, Note_on_c, 2, 60, 65
4, 28412, Note_on_c, 2, 60, 0
4, 28416, Note_on_c, 2, 55, 65
4, 28604, Note_on_c, 2, 55, 0
4, 28608, Note_on_c, 2, 52, 65
4, 28796, Note_on_c, 2, 52, 0
4, 33408, Note_on_c, 2, 57, 52
4, 33500, Note_on_c, 2, 57, 0
4, 33504, Note_on_c, 2, 62, 52
4, 33596, Note_on_c, 2, 62, 0
4, 33600, Note_on_c, 2, 60, 52
4, 33692, Note_on_c, 2, 60, 0
4, 33696, Note_on_c, 2, 62, 52
4, 33788, Note_on_c, 2, 62, 0
4, 33792, Note_on_c, 2, 57, 52
4, 33884, Note_on_c, 2, 57, 0
4, 33888, Note_on_c, 2, 62, 52
4, 33980, Note_on_c, 2, 62, 0
4, 33984, Note_on_c, 2, 60, 52
4, 34076, Note_on_c, 2, 60, 0
4, 34080, Note_on_c, 2, 62, 52
4, 34172, Note_on_c, 2, 62, 0
4, 34176, Note_on_c, 2, 57, 52
4, 34268, Note_on_c, 2, 57, 0
4, 34272, Note_on_c, 2, 62, 52
4, 34364, Note_on_c, 2, 62, 0
4, 34368, Note_on_c, 2, 60, 52
4, 34460, Note_on_c, 2, 60, 0
4, 34464, Note_on_c, 2, 62, 52
4, 34556, Note_on_c, 2, 62, 0
4, 34560, Note_on_c, 2, 55, 52
4, 34652, Note_on_c, 2, 55, 0
4, 34656, Note_on_c, 2, 62, 52
4, 34748, Note_on_c, 2, 62, 0
4, 34752, Note_on_c, 2, 59, 52
4, 34844, Note_on_c, 2, 59, 0
4, 34848, Note_on_c, 2, 62, 52
4, 34940, Note_on_c, 2, 62, 0
4, 34944, Note_on_c, 2, 55, 52
4, 35036, Note_on_c, 2, 55, 0
4, 35040, Note_on_c, 2, 62, 52
4, 35132, Note_on_c, 2, 62, 0
4, 35136, Note_on_c, 2, 59, 52
4, 35228, Note_on_c, 2, 59, 0
4, 35232, Note_on_c, 2, 62, 52
4, 35324, Note_on_c, 2, 62, 0
4, 35328, Note_on_c, 2, 57, 52
4, 35420, Note_on_c, 2, 57, 0
4, 35424, Note_on_c, 2, 62, 52
4, 35516, Note_on_c, 2, 62, 0
4, 35520, Note_on_c, 2, 60, 52
4, 35612, Note_on_c, 2, 60, 0
4, 35616, Note_on_c, 2, 62, 52
4, 35708, Note_on_c, 2, 62, 0
4, 35712, Note_on_c, 2, 55, 52
4, 35804, Note_on_c, 2, 55, 0
4, 35808, Note_on_c, 2, 62, 52
4, 35900, Note_on_c, 2, 62, 0
4, 35904, Note_on_c, 2, 59, 52
4, 35996, Note_on_c, 2, 59, 0
4, 36000, Note_on_c, 2, 62, 52
4, 36092, Note_on_c, 2, 62, 0
4, 36096, Note_on_c, 2, 55, 65
4, 36284, Note_on_c, 2, 55, 0
4, 36288, Note_on_c, 2, 53, 65
4, 36476, Note_on_c, 2, 53, 0
4, 36480, Note_on_c, 2, 52, 65
4, 36668, Note_on_c, 2, 52, 0
4, 36672, Note_on_c, 2, 50, 65
4, 36860, Note_on_c, 2, 50, 0
4, 36864, Note_on_c, 2, 48, 104
4, 37244, Note_on_c, 2, 48, 0
4, 39168, Note_on_c, 2, 62, 75
4, 39168, Note_on_c, 2, 59, 75
4, 39168, Note_on_c, 2, 55, 75
4, 39548, Note_on_c, 2, 55, 0
4, 39552, Note_on_c, 2, 53, 75
4, 39932, Note_on_c, 2, 53, 0
4, 39932, Note_on_c, 2, 59, 0
4, 39932, Note_on_c, 2, 62, 0
4, 39936, Note_on_c, 2, 52, 75
4, 39936, Note_on_c, 2, 61, 75
4, 40316, Note_on_c, 2, 61, 0
4, 40316, Note_on_c, 2, 52, 0
4, 40320, Note_on_c, 2, 62, 75
4, 40320, Note_on_c, 2, 50, 75
4, 40892, Note_on_c, 2, 50, 0
4, 40892, Note_on_c, 2, 62, 0
4, 40896, Note_on_c, 2, 50, 75
4, 41084, Note_on_c, 2, 50, 0
4, 41088, Note_on_c, 2, 47, 75
4, 41276, Note_on_c, 2, 47, 0
4, 41280, Note_on_c, 2, 43, 75
4, 41468, Note_on_c, 2, 43, 0
4, 41472, Note_on_c, 2, 36, 85
4, 41512, Note_on_c, 2, 36, 0
4, 41520, Note_on_c, 2, 48, 75
4, 41844, Note_on_c, 2, 48, 0
4, 42624, Note_on_c, 2, 36, 85
4, 42664, Note_on_c, 2, 36, 0
4, 42672, Note_on_c, 2, 48, 75
4, 43764, Note_on_c, 2, 48, 0
4, 43776, Note_on_c, 2, 53, 75
4, 43964, Note_on_c, 2, 53, 0
4, 44160, Note_on_c, 2, 55, 75
4, 44348, Note_on_c, 2, 55, 0
4, 44544, Note_on_c, 2, 55, 75
4, 44732, Note_on_c, 2, 55, 0
4, 44928, Note_on_c, 2, 48, 114
4, 45308, Note_on_c, 2, 48, 0
4, 45312, Note_on_c, 2, 48, 94
4, 45500, Note_on_c, 2, 48, 0
4, 45600, Note_on_c, 2, 52, 75
4, 45600, Note_on_c, 2, 48, 75
4, 45680, Note_on_c, 2, 53, 75
4, 45692, Note_on_c, 2, 48, 0
4, 45692, Note_on_c, 2, 52, 0
4, 45696, Note_on_c, 2, 50, 75
4, 45772, Note_on_c, 2, 53, 0
4, 45788, Note_on_c, 2, 50, 0
4, 45792, Note_on_c, 2, 55, 75
4, 45792, Note_on_c, 2, 52, 75
4, 45884, Note_on_c, 2, 52, 0
4, 45884, Note_on_c, 2, 55, 0
4, 45888, Note_on_c, 2, 57, 75
4, 45888, Note_on_c, 2, 53, 75
4, 45980, Note_on_c, 2, 53, 0
4, 45980, Note_on_c, 2, 57, 0
4, 45984, Note_on_c, 2, 59, 75
4, 45984, Note_on_c, 2, 55, 75
4, 46076, Note_on_c, 2, 55, 0
4, 46076, Note_on_c, 2, 59, 0
4, 46080, Note_on_c, 2, 60, 75
4, 46080, Note_on_c, 2, 57, 75
4, 46268, Note_on_c, 2, 57, 0
4, 46268, Note_on_c, 2, 60, 0
4, 46272, Note_on_c, 2, 59, 76
4, 46272, Note_on_c, 2, 55, 76
4, 46460, Note_on_c, 2, 55, 0
4, 46460, Note_on_c, 2, 59, 0
4, 46464, Note_on_c, 2, 57, 76
4, 46464, Note_on_c, 2, 53, 76
4, 46652, Note_on_c, 2, 53, 0
4, 46652, Note_on_c, 2, 57, 0
4, 46656, Note_on_c, 2, 55, 77
4, 46656, Note_on_c, 2, 52, 77
4, 46844, Note_on_c, 2, 52, 0
4, 46844, Note_on_c, 2, 55, 0
4, 46848, Note_on_c, 2, 53, 77
4, 46848, Note_on_c, 2, 50, 77
4, 47036, Note_on_c, 2, 50, 0
4, 47036, Note_on_c, 2, 53, 0
4, 47040, Note_on_c, 2, 52, 78
4, 47040, Note_on_c, 2, 48, 78
4, 47228, Note_on_c, 2, 48, 0
4, 47228, Note_on_c, 2, 52, 0
4, 47232, Note_on_c, 2, 41, 80
4, 47232, Note_on_c, 2, 48, 80
4, 47592, Note_on_c, 2, 41, 0
4, 47616, Note_on_c, 2, 41, 85
4, 47976, Note_on_c, 2, 41, 0
4, 48000, Note_on_c, 2, 43, 80
4, 48360, Note_on_c, 2, 43, 0
4, 48360, Note_on_c, 2, 48, 0
4, 48384, Note_on_c, 2, 48, 80
4, 48384, Note_on_c, 2, 45, 80
4, 49128, Note_on_c, 2, 45, 0
4, 49128, Note_on_c, 2, 48, 0
4, 49152, Note_on_c, 2, 55, 80
4, 49152, Note_on_c, 2, 47, 80
4, 49512, Note_on_c, 2, 47, 0
4, 49512, Note_on_c, 2, 55, 0
4, 49536, Note_on_c, 2, 55, 77
4, 49536, Note_on_c, 2, 48, 77
4, 49896, Note_on_c, 2, 48, 0
4, 49896, Note_on_c, 2, 55, 0
4, 66816, Note_on_c, 2, 41, 75
4, 66856, Note_on_c, 2, 41, 0
4, 66864, Note_on_c, 2, 53, 75
4, 67048, Note_on_c, 2, 53, 0
4, 67200, Note_on_c, 2, 41, 75
4, 67240, Note_on_c, 2, 41, 0
4, 67248, Note_on_c, 2, 53, 75
4, 67432, Note_on_c, 2, 53, 0
4, 67584, Note_on_c, 2, 41, 75
4, 67624, Note_on_c, 2, 41, 0
4, 67632, Note_on_c, 2, 53, 75
4, 67820, Note_on_c, 2, 53, 0
4, 67968, Note_on_c, 2, 36, 98
4, 68012, Note_on_c, 2, 36, 0
4, 68016, Note_on_c, 2, 40, 98
4, 68060, Note_on_c, 2, 40, 0
4, 68064, Note_on_c, 2, 43, 98
4, 68108, Note_on_c, 2, 43, 0
4, 68112, Note_on_c, 2, 46, 98
4, 68156, Note_on_c, 2, 46, 0
4, 68160, Note_on_c, 2, 48, 98
4, 68732, Note_on_c, 2, 48, 0
4, 68736, Note_on_c, 2, 41, 98
4, 69020, Note_on_c, 2, 41, 0
4, 70272, Note_on_c, 2, 62, 75
4, 70272, Note_on_c, 2, 53, 75
4, 70460, Note_on_c, 2, 53, 0
4, 70460, Note_on_c, 2, 62, 0
4, 70656, Note_on_c, 2, 58, 75
4, 70656, Note_on_c, 2, 53, 75
4, 70844, Note_on_c, 2, 53, 0
4, 70844, Note_on_c, 2, 58, 0
4, 71040, Note_on_c, 2, 57, 75
4, 71040, Note_on_c, 2, 53, 75
4, 71228, Note_on_c, 2, 53, 0
4, 71228, Note_on_c, 2, 57, 0
4, 71424, Note_on_c, 2, 41, 105
4, 71468, Note_on_c, 2, 41, 0
4, 71472, Note_on_c, 2, 53, 105
4, 71516, Note_on_c, 2, 53, 0
4, 71808, Note_on_c, 2, 38, 105
4, 71852, Note_on_c, 2, 38, 0
4, 71856, Note_on_c, 2, 50, 105
4, 71900, Note_on_c, 2, 50, 0
4, 72192, Note_on_c, 2, 46, 105
4, 72236, Note_on_c, 2, 46, 0
4, 72240, Note_on_c, 2, 58, 105
4, 72284, Note_on_c, 2, 58, 0
4, 72576, Note_on_c, 2, 36, 105
4, 72620, Note_on_c, 2, 36, 0
4, 72624, Note_on_c, 2, 48, 105
4, 72668, Note_on_c, 2, 48, 0
4, 72960, Note_on_c, 2, 48, 105
4, 73004, Note_on_c, 2, 48, 0
4, 73008, Note_on_c, 2, 60, 105
4, 73052, Note_on_c, 2, 60, 0
4, 73344, Note_on_c, 2, 45, 105
4, 73388, Note_on_c, 2, 45, 0
4, 73392, Note_on_c, 2, 57, 105
4, 73436, Note_on_c, 2, 57, 0
4, 73728, Note_on_c, 2, 46, 105
4, 73772, Note_on_c, 2, 46, 0
4, 73776, Note_on_c, 2, 58, 105
4, 73820, Note_on_c, 2, 58, 0
4, 74112, Note_on_c, 2, 46, 105
4, 74156, Note_on_c, 2, 46, 0
4, 74160, Note_on_c, 2, 58, 105
4, 74204, Note_on_c, 2, 58, 0
4, 74496, Note_on_c, 2, 43, 105
4, 74540, Note_on_c, 2, 43, 0
4, 74544, Note_on_c, 2, 55, 105
4, 74588, Note_on_c, 2, 55, 0
4, 74880, Note_on_c, 2, 36, 105
4, 74924, Note_on_c, 2, 36, 0
4, 74928, Note_on_c, 2, 48, 105
4, 74972, Note_on_c, 2, 48, 0
4, 75456, Note_on_c, 2, 60, 98
4, 75644, Note_on_c, 2, 60, 0
4, 75648, Note_on_c, 2, 55, 85
4, 75836, Note_on_c, 2, 55, 0
4, 75840, Note_on_c, 2, 52, 72
4, 76028, Note_on_c, 2, 52, 0
4, 76032, Note_on_c, 2, 48, 65
4, 76220, Note_on_c, 2, 48, 0
4, 76224, Note_on_c, 2, 60, 65
4, 76412, Note_on_c, 2, 60, 0
4, 76416, Note_on_c, 2, 60, 65
4, 76604, Note_on_c, 2, 60, 0
4, 76608, Note_on_c, 2, 60, 65
4, 76796, Note_on_c, 2, 60, 0
4, 76800, Note_on_c, 2, 60, 65
4, 76988, Note_on_c, 2, 60, 0
4, 76992, Note_on_c, 2, 60, 65
4, 77180, Note_on_c, 2, 60, 0
4, 77184, Note_on_c, 2, 59, 65
4, 77372, Note_on_c, 2, 59, 0
4, 77376, Note_on_c, 2, 59, 65
4, 77564, Note_on_c, 2, 59, 0
4, 77568, Note_on_c, 2, 59, 65
4, 77756, Note_on_c, 2, 59, 0
4, 77760, Note_on_c, 2, 59, 65
4, 77948, Note_on_c, 2, 59, 0
4, 77952, Note_on_c, 2, 59, 65
4, 78140, Note_on_c, 2, 59, 0
4, 78144, Note_on_c, 2, 59, 65
4, 78332, Note_on_c, 2, 59, 0
4, 78336, Note_on_c, 2, 59, 104
4, 78336, Note_on_c, 2, 55, 65
4, 78524, Note_on_c, 2, 55, 0
4, 78524, Note_on_c, 2, 59, 0
4, 78528, Note_on_c, 2, 59, 65
4, 78528, Note_on_c, 2, 55, 65
4, 78716, Note_on_c, 2, 55, 0
4, 78716, Note_on_c, 2, 59, 0
4, 78720, Note_on_c, 2, 59, 65
4, 78720, Note_on_c, 2, 55, 65
4, 78908, Note_on_c, 2, 55, 0
4, 78908, Note_on_c, 2, 59, 0
4, 78912, Note_on_c, 2, 59, 65
4, 78912, Note_on_c, 2, 55, 65
4, 79100, Note_on_c, 2, 55, 0
4, 79100, Note_on_c, 2, 59, 0
4, 79104, Note_on_c, 2, 59, 65
4, 79104, Note_on_c, 2, 55, 65
4, 79292, Note_on_c, 2, 55, 0
4, 79292, Note_on_c, 2, 59, 0
4, 79296, Note_on_c, 2, 59, 65
4, 79296, Note_on_c, 2, 55, 65
4, 79484, Note_on_c, 2, 55, 0
4, 79484, Note_on_c, 2, 59, 0
4, 79488, Note_on_c, 2, 48, 65
4, 80060, Note_on_c, 2, 48, 0
4, 80064, Note_on_c, 2, 58, 104
4, 80252, Note_on_c, 2, 58, 0
4, 80256, Note_on_c, 2, 57, 94
4, 80444, Note_on_c, 2, 57, 0
4, 80448, Note_on_c, 2, 55, 84
4, 80636, Note_on_c, 2, 55, 0
4, 80640, Note_on_c, 2, 53, 75
4, 80732, Note_on_c, 2, 53, 0
4, 80736, Note_on_c, 2, 60, 75
4, 80828, Note_on_c, 2, 60, 0
4, 80832, Note_on_c, 2, 57, 75
4, 80924, Note_on_c, 2, 57, 0
4, 80928, Note_on_c, 2, 60, 75
4, 81020, Note_on_c, 2, 60, 0
4, 81024, Note_on_c, 2, 53, 75
4, 81116, Note_on_c, 2, 53, 0
4, 81120, Note_on_c, 2, 60, 75
4, 81212, Note_on_c, 2, 60, 0
4, 81216, Note_on_c, 2, 57, 75
4, 81308, Note_on_c, 2, 57, 0
4, 81312, Note_on_c, 2, 60, 75
4, 81404, Note_on_c, 2, 60, 0
4, 81408, Note_on_c, 2, 53, 75
4, 81500, Note_on_c, 2, 53, 0
4, 81504, Note_on_c, 2, 60, 75
4, 81596, Note_on_c, 2, 60, 0
4, 81600, Note_on_c, 2, 57, 75
4, 81692, Note_on_c, 2, 57, 0
4, 81696, Note_on_c, 2, 60, 75
4, 81788, Note_on_c, 2, 60, 0
4, 81792, Note_on_c, 2, 52, 75
4, 81884, Note_on_c, 2, 52, 0
4, 81888, Note_on_c, 2, 58, 75
4, 81980, Note_on_c, 2, 58, 0
4, 81984, Note_on_c, 2, 55, 75
4, 82076, Note_on_c, 2, 55, 0
4, 82080, Note_on_c, 2, 58, 75
4, 82172, Note_on_c, 2, 58, 0
4, 82176, Note_on_c, 2, 52, 75
4, 82268, Note_on_c, 2, 52, 0
4, 82272, Note_on_c, 2, 58, 75
4, 82364, Note_on_c, 2, 58, 0
4, 82368, Note_on_c, 2, 55, 75
4, 82460, Note_on_c, 2, 55, 0
4, 82464, Note_on_c, 2, 58, 75
4, 82556, Note_on_c, 2, 58, 0
4, 82560, Note_on_c, 2, 52, 75
4, 82652, Note_on_c, 2, 52, 0
4, 82656, Note_on_c, 2, 58, 75
4, 82748, Note_on_c, 2, 58, 0
4, 82752, Note_on_c, 2, 55, 75
4, 82844, Note_on_c, 2, 55, 0
4, 82848, Note_on_c, 2, 58, 75
4, 82940, Note_on_c, 2, 58, 0
4, 82944, Note_on_c, 2, 48, 75
4, 83036, Note_on_c, 2, 48, 0
4, 83040, Note_on_c, 2, 58, 75
4, 83132, Note_on_c, 2, 58, 0
4, 83136, Note_on_c, 2, 52, 75
4, 83228, Note_on_c, 2, 52, 0
4, 83232, Note_on_c, 2, 58, 75
4, 83324, Note_on_c, 2, 58, 0
4, 83328, Note_on_c, 2, 48, 75
4, 83420, Note_on_c, 2, 48, 0
4, 83424, Note_on_c, 2, 58, 75
4, 83516, Note_on_c, 2, 58, 0
4, 83520, Note_on_c, 2, 52, 75
4, 83612, Note_on_c, 2, 52, 0
4, 83616, Note_on_c, 2, 58, 75
4, 83708, Note_on_c, 2, 58, 0
4, 83712, Note_on_c, 2, 48, 75
4, 83804, Note_on_c, 2, 48, 0
4, 83808, Note_on_c, 2, 58, 75
4, 83900, Note_on_c, 2, 58, 0
4, 83904, Note_on_c, 2, 52, 75
4, 83996, Note_on_c, 2, 52, 0
4, 84000, Note_on_c, 2, 58, 75
4, 84092, Note_on_c, 2, 58, 0
4, 84096, Note_on_c, 2, 53, 75
4, 84188, Note_on_c, 2, 53, 0
4, 84192, Note_on_c, 2, 60, 75
4, 84284, Note_on_c, 2, 60, 0
4, 84288, Note_on_c, 2, 57, 75
4, 84380, Note_on_c, 2, 57, 0
4, 84384, Note_on_c, 2, 60, 75
4, 84476, Note_on_c, 2, 60, 0
4, 84480, Note_on_c, 2, 53, 75
4, 84572, Note_on_c, 2, 53, 0
4, 84576, Note_on_c, 2, 60, 75
4, 84668, Note_on_c, 2, 60, 0
4, 84672, Note_on_c, 2, 57, 75
4, 84764, Note_on_c, 2, 57, 0
4, 84768, Note_on_c, 2, 60, 75
4, 84860, Note_on_c, 2, 60, 0
4, 84864, Note_on_c, 2, 53, 75
4, 84956, Note_on_c, 2, 53, 0
4, 84960, Note_on_c, 2, 60, 75
4, 85052, Note_on_c, 2, 60, 0
4, 85056, Note_on_c, 2, 57, 75
4, 85148, Note_on_c, 2, 57, 0
4, 85152, Note_on_c, 2, 60, 75
4, 85244, Note_on_c, 2, 60, 0
4, 88128, Note_on_c, 2, 58, 75
4, 88316, Note_on_c, 2, 58, 0
4, 88320, Note_on_c, 2, 57, 85
4, 88508, Note_on_c, 2, 57, 0
4, 88512, Note_on_c, 2, 55, 85
4, 88700, Note_on_c, 2, 55, 0
4, 88704, Note_on_c, 2, 53, 104
4, 89084, Note_on_c, 2, 53, 0
4, 89088, Note_on_c, 2, 53, 94
4, 89276, Note_on_c, 2, 53, 0
4, 89376, Note_on_c, 2, 57, 75
4, 89376, Note_on_c, 2, 53, 75
4, 89468, Note_on_c, 2, 53, 0
4, 89468, Note_on_c, 2, 57, 0
4, 89472, Note_on_c, 2, 58, 75
4, 89472, Note_on_c, 2, 55, 75
4, 89564, Note_on_c, 2, 55, 0
4, 89564, Note_on_c, 2, 58, 0
4, 89568, Note_on_c, 2, 60, 75
4, 89568, Note_on_c, 2, 57, 75
4, 89660, Note_on_c, 2, 57, 0
4, 89660, Note_on_c, 2, 60, 0
4, 89664, Note_on_c, 2, 62, 75
4, 89664, Note_on_c, 2, 58, 75
4, 89756, Note_on_c, 2, 58, 0
4, 89756, Note_on_c, 2, 62, 0
4, 89760, Note_on_c, 2, 64, 75
4, 89760, Note_on_c, 2, 60, 75
4, 89852, Note_on_c, 2, 60, 0
4, 89852, Note_on_c, 2, 64, 0
4, 89856, Note_on_c, 2, 65, 75
4, 89856, Note_on_c, 2, 62, 75
4, 90044, Note_on_c, 2, 62, 0
4, 90044, Note_on_c, 2, 65, 0
4, 90048, Note_on_c, 2, 64, 75
4, 90048, Note_on_c, 2, 60, 75
4, 90236, Note_on_c, 2, 60, 0
4, 90236, Note_on_c, 2, 64, 0
4, 90240, Note_on_c, 2, 62, 75
4, 90240, Note_on_c, 2, 58, 75
4, 90428, Note_on_c, 2, 58, 0
4, 90428, Note_on_c, 2, 62, 0
4, 90432, Note_on_c, 2, 60, 75
4, 90432, Note_on_c, 2, 57, 75
4, 90620, Note_on_c, 2, 57, 0
4, 90620, Note_on_c, 2, 60, 0
4, 90624, Note_on_c, 2, 58, 75
4, 90624, Note_on_c, 2, 55, 75
4, 90812, Note_on_c, 2, 55, 0
4, 90812, Note_on_c, 2, 58, 0
4, 90816, Note_on_c, 2, 57, 75
4, 90816, Note_on_c, 2, 53, 75
4, 91004, Note_on_c, 2, 53, 0
4, 91004, Note_on_c, 2, 57, 0
4, 92736, Note_on_c, 2, 55, 87
4, 92924, Note_on_c, 2, 55, 0
4, 92928, Note_on_c, 2, 52, 82
4, 93116, Note_on_c, 2, 52, 0
4, 93120, Note_on_c, 2, 48, 78
4, 93308, Note_on_c, 2, 48, 0
4, 93312, Note_on_c, 2, 41, 75
4, 93404, Note_on_c, 2, 41, 0
4, 93408, Note_on_c, 2, 53, 75
4, 93980, Note_on_c, 2, 53, 0
4, 94464, Note_on_c, 2, 41, 75
4, 94556, Note_on_c, 2, 41, 0
4, 94556, Note_on_c, 2, 53, 75
4, 95608, Note_on_c, 2, 53, 0
4, 95616, Note_on_c, 2, 58, 75
4, 95804, Note_on_c, 2, 58, 0
4, 96000, Note_on_c, 2, 60, 75
4, 96188, Note_on_c, 2, 60, 0
4, 96384, Note_on_c, 2, 48, 75
4, 96572, Note_on_c, 2, 48, 0
4, 96768, Note_on_c, 2, 53, 114
4, 97148, Note_on_c, 2, 53, 0
4, 97152, Note_on_c, 2, 53, 94
4, 97340, Note_on_c, 2, 53, 0
4, 97440, Note_on_c, 2, 57, 75
4, 97440, Note_on_c, 2, 53, 75
4, 97532, Note_on_c, 2, 53, 0
4, 97532, Note_on_c, 2, 57, 0
4, 97536, Note_on_c, 2, 58, 75
4, 97536, Note_on_c, 2, 55, 75
4, 97628, Note_on_c, 2, 55, 0
4, 97628, Note_on_c, 2, 58, 0
4, 97632, Note_on_c, 2, 60, 75
4, 97632, Note_on_c, 2, 57, 75
4, 97724, Note_on_c, 2, 57, 0
4, 97724, Note_on_c, 2, 60, 0
4, 97728, Note_on_c, 2, 62, 75
4, 97728, Note_on_c, 2, 58, 75
4, 97820, Note_on_c, 2, 58, 0
4, 97820, Note_on_c, 2, 62, 0
4, 97824, Note_on_c, 2, 64, 75
4, 97824, Note_on_c, 2, 60, 75
4, 97916, Note_on_c, 2, 60, 0
4, 97916, Note_on_c, 2, 64, 0
4, 97920, Note_on_c, 2, 65, 75
4, 97920, Note_on_c, 2, 62, 75
4, 98108, Note_on_c, 2, 62, 0
4, 98108, Note_on_c, 2, 65, 0
4, 98112, Note_on_c, 2, 64, 75
4, 98112, Note_on_c, 2, 60, 75
4, 98300, Note_on_c, 2, 60, 0
4, 98300, Note_on_c, 2, 64, 0
4, 98304, Note_on_c, 2, 62, 75
4, 98304, Note_on_c, 2, 58, 75
4, 98492, Note_on_c, 2, 58, 0
4, 98492, Note_on_c, 2, 62, 0
4, 98496, Note_on_c, 2, 60, 75
4, 98496, Note_on_c, 2, 57, 75
4, 98684, Note_on_c, 2, 57, 0
4, 98684, Note_on_c, 2, 60, 0
4, 98688, Note_on_c, 2, 58, 75
4, 98688, Note_on_c, 2, 55, 75
4, 98876, Note_on_c, 2, 55, 0
4, 98876, Note_on_c, 2, 58, 0
4, 98880, Note_on_c, 2, 57, 75
4, 98880, Note_on_c, 2, 53, 75
4, 99068, Note_on_c, 2, 53, 0
4, 99068, Note_on_c, 2, 57, 0
4, 99072, Note_on_c, 2, 47, 75
4, 99072, Note_on_c, 2, 55, 75
4, 99452, Note_on_c, 2, 47, 0
4, 99456, Note_on_c, 2, 48, 78
4, 99836, Note_on_c, 2, 48, 0
4, 99836, Note_on_c, 2, 55, 0
4, 99840, Note_on_c, 2, 41, 80
4, 99840, Note_on_c, 2, 53, 80
4, 100220, Note_on_c, 2, 53, 0
4, 100220, Note_on_c, 2, 41, 0
4, 100224, Note_on_c, 2, 53, 80
4, 100224, Note_on_c, 2, 46, 79
4, 100604, Note_on_c, 2, 46, 0
4, 100604, Note_on_c, 2, 53, 0
4, 100608, Note_on_c, 2, 43, 77
4, 100988, Note_on_c, 2, 43, 0
4, 100992, Note_on_c, 2, 48, 75
4, 101372, Note_on_c, 2, 48, 0
4, 114048, Note_on_c, 2, 48, 100
4, 114108, Note_on_c, 2, 48, 0
4, 114112, Note_on_c, 2, 52, 100
4, 114172, Note_on_c, 2, 52, 0
4, 114176, Note_on_c, 2, 55, 101
4, 114236, Note_on_c, 2, 55, 0
4, 114240, Note_on_c, 2, 58, 101
4, 114300, Note_on_c, 2, 58, 0
4, 114304, Note_on_c, 2, 52, 102
4, 114364, Note_on_c, 2, 52, 0
4, 114368, Note_on_c, 2, 55, 102
4, 114428, Note_on_c, 2, 55, 0
4, 114432, Note_on_c, 2, 48, 103
4, 114492, Note_on_c, 2, 48, 0
4, 114496, Note_on_c, 2, 52, 103
4, 114556, Note_on_c, 2, 52, 0
4, 114560, Note_on_c, 2, 55, 104
4, 114620, Note_on_c, 2, 55, 0
4, 114624, Note_on_c, 2, 58, 105
4, 114684, Note_on_c, 2, 58, 0
4, 114688, Note_on_c, 2, 52, 105
4, 114748, Note_on_c, 2, 52, 0
4, 114752, Note_on_c, 2, 55, 106
4, 114812, Note_on_c, 2, 55, 0
4, 114816, Note_on_c, 2, 48, 106
4, 114876, Note_on_c, 2, 48, 0
4, 114880, Note_on_c, 2, 52, 107
4, 114940, Note_on_c, 2, 52, 0
4, 114944, Note_on_c, 2, 55, 107
4, 115004, Note_on_c, 2, 55, 0
4, 115008, Note_on_c, 2, 58, 108
4, 115068, Note_on_c, 2, 58, 0
4, 115072, Note_on_c, 2, 52, 108
4, 115132, Note_on_c, 2, 52, 0
4, 115136, Note_on_c, 2, 55, 109
4, 115196, Note_on_c, 2, 55, 0
4, 115200, Note_on_c, 2, 57, 110
4, 115200, Note_on_c, 2, 53, 110
4, 115580, Note_on_c, 2, 53, 0
4, 115580, Note_on_c, 2, 57, 0
4, 117696, Note_on_c, 2, 57, 110
4, 117696, Note_on_c, 2, 45, 110
4, 117884, Note_on_c, 2, 45, 0
4, 117884, Note_on_c, 2, 57, 0
4, 117888, Note_on_c, 2, 58, 110
4, 117888, Note_on_c, 2, 46, 110
4, 118064, Note_on_c, 2, 48, 110
4, 118076, Note_on_c, 2, 46, 0
4, 118076, Note_on_c, 2, 58, 0
4, 118080, Note_on_c, 2, 60, 110
4, 118252, Note_on_c, 2, 48, 0
4, 118268, Note_on_c, 2, 60, 0
4, 118272, Note_on_c, 2, 62, 110
4, 118272, Note_on_c, 2, 50, 110
4, 118460, Note_on_c, 2, 50, 0
4, 118460, Note_on_c, 2, 62, 0
4, 118464, Note_on_c, 2, 59, 110
4, 118464, Note_on_c, 2, 47, 110
4, 118652, Note_on_c, 2, 47, 0
4, 118652, Note_on_c, 2, 59, 0
4, 118656, Note_on_c, 2, 60, 110
4, 118656, Note_on_c, 2, 48, 110
4, 119036, Note_on_c, 2, 48, 0
4, 119036, Note_on_c, 2, 60, 0
4, 119424, Note_on_c, 2, 58, 110
4, 119424, Note_on_c, 2, 55, 110
4, 119424, Note_on_c, 2, 52, 110
4, 119424, Note_on_c, 2, 48, 110
4, 119804, Note_on_c, 2, 48, 0
4, 119804, Note_on_c, 2, 58, 0
4, 119804, Note_on_c, 2, 55, 0
4, 119804, Note_on_c, 2, 52, 0
4, 119808, Note_on_c, 2, 57, 75
4, 119808, Note_on_c, 2, 53, 75
4, 119996, Note_on_c, 2, 53, 0
4, 119996, Note_on_c, 2, 57, 0
4, 120192, Note_on_c, 2, 57, 75
4, 120192, Note_on_c, 2, 53, 75
4, 120380, Note_on_c, 2, 53, 0
4, 120380, Note_on_c, 2, 57, 0
4, 120576, Note_on_c, 2, 57, 75
4, 120576, Note_on_c, 2, 53, 75
4, 120764, Note_on_c, 2, 53, 0
4, 120764, Note_on_c, 2, 57, 0
4, 123264, Note_on_c, 2, 62, 75
4, 123264, Note_on_c, 2, 53, 75
4, 123644, Note_on_c, 2, 53, 0
4, 123648, Note_on_c, 2, 53, 75
4, 123932, Note_on_c, 2, 62, 0
4, 123936, Note_on_c, 2, 60, 75
4, 123980, Note_on_c, 2, 60, 0
4, 123984, Note_on_c, 2, 58, 75
4, 124028, Note_on_c, 2, 58, 0
4, 124028, Note_on_c, 2, 53, 0
4, 124032, Note_on_c, 2, 57, 75
4, 124032, Note_on_c, 2, 53, 75
4, 124316, Note_on_c, 2, 53, 0
4, 124316, Note_on_c, 2, 57, 0
4, 124800, Note_on_c, 2, 50, 114
4, 124812, Note_on_c, 2, 53, 114
4, 124828, Note_on_c, 2, 57, 114
4, 124844, Note_on_c, 2, 62, 114
4, 125176, Note_on_c, 2, 62, 0
4, 125176, Note_on_c, 2, 57, 0
4, 125176, Note_on_c, 2, 53, 0
4, 125180, Note_on_c, 2, 50, 0
4, 125184, Note_on_c, 2, 46, 114
4, 125192, Note_on_c, 2, 50, 114
4, 125204, Note_on_c, 2, 53, 114
4, 125216, Note_on_c, 2, 55, 114
4, 125228, Note_on_c, 2, 58, 114
4, 125560, Note_on_c, 2, 58, 0
4, 125560, Note_on_c, 2, 53, 0
4, 125560, Note_on_c, 2, 55, 0
4, 125560, Note_on_c, 2, 50, 0
4, 125564, Note_on_c, 2, 46, 0
4, 125952, Note_on_c, 2, 48, 114
4, 125964, Note_on_c, 2, 52, 114
4, 125980, Note_on_c, 2, 55, 114
4, 125996, Note_on_c, 2, 60, 114
4, 126328, Note_on_c, 2, 60, 0
4, 126328, Note_on_c, 2, 55, 0
4, 126328, Note_on_c, 2, 52, 0
4, 126332, Note_on_c, 2, 48, 0
4, 126336, Note_on_c, 2, 45, 114
4, 126344, Note_on_c, 2, 48, 114
4, 126356, Note_on_c, 2, 52, 114
4, 126368, Note_on_c, 2, 53, 114
4, 126380, Note_on_c, 2, 57, 114
4, 126712, Note_on_c, 2, 57, 0
4, 126712, Note_on_c, 2, 52, 0
4, 126712, Note_on_c, 2, 53, 0
4, 126712, Note_on_c, 2, 48, 0
4, 126716, Note_on_c, 2, 45, 0
4, 127104, Note_on_c, 2, 46, 114
4, 127116, Note_on_c, 2, 50, 114
4, 127132, Note_on_c, 2, 53, 114
4, 127148, Note_on_c, 2, 58, 114
4, 127480, Note_on_c, 2, 58, 0
4, 127480, Note_on_c, 2, 53, 0
4, 127480, Note_on_c, 2, 50, 0
4, 127484, Note_on_c, 2, 46, 0
4, 127488, Note_on_c, 2, 43, 114
4, 127500, Note_on_c, 2, 46, 114
4, 127516, Note_on_c, 2, 50, 114
4, 127532, Note_on_c, 2, 55, 114
4, 127864, Note_on_c, 2, 55, 0
4, 127864, Note_on_c, 2, 50, 0
4, 127864, Note_on_c, 2, 46, 0
4, 127868, Note_on_c, 2, 43, 0
4, 127872, Note_on_c, 2, 60, 114
4, 127872, Note_on_c, 2, 48, 114
4, 128636, Note_on_c, 2, 48, 0
4, 128636, Note_on_c, 2, 60, 0
4, 128640, Note_on_c, 2, 53, 114
4, 129020, Note_on_c, 2, 53, 0
4, 129024, Note_on_c, 2, 58, 114
4, 129024, Note_on_c, 2, 46, 114
4, 129308, Note_on_c, 2, 58, 0
4, 129312, Note_on_c, 2, 60, 114
4, 129356, Note_on_c, 2, 60, 0
4, 129360, Note_on_c, 2, 58, 114
4, 129404, Note_on_c, 2, 58, 0
4, 129404, Note_on_c, 2, 46, 0
4, 129408, Note_on_c, 2, 60, 114
4, 129408, Note_on_c, 2, 57, 114
4, 129408, Note_on_c, 2, 53, 114
4, 129408, Note_on_c, 2, 48, 114
4, 129788, Note_on_c, 2, 48, 0
4, 129788, Note_on_c, 2, 60, 0
4, 129788, Note_on_c, 2, 57, 0
4, 129788, Note_on_c, 2, 53, 0
4, 129792, Note_on_c, 2, 48, 114
4, 130172, Note_on_c, 2, 48, 0
4, 130176, Note_on_c, 2, 41, 104
4, 130556, Note_on_c, 2, 41, 0
4, 132480, Note_on_c, 2, 53, 75
4, 132480, Note_on_c, 2, 41, 75
4, 132860, Note_on_c, 2, 41, 0
4, 132860, Note_on_c, 2, 53, 0
4, 135168, Note_on_c, 2, 41, 65
4, 135180, Note_on_c, 2, 45, 65
4, 135196, Note_on_c, 2, 48, 65
4, 135212, Note_on_c, 2, 53, 65
4, 135356, Note_on_c, 2, 41, 0
4, 135368, Note_on_c, 2, 45, 0
4, 135384, Note_on_c, 2, 48, 0
4, 135400, Note_on_c, 2, 53, 0
4, 135552, Note_on_c, 2, 41, 65
4, 135564, Note_on_c, 2, 45, 65
4, 135580, Note_on_c, 2, 48, 65
4, 135596, Note_on_c, 2, 53, 65
4, 135740, Note_on_c, 2, 41, 0
4, 135752, Note_on_c, 2, 45, 0
4, 135768, Note_on_c, 2, 48, 0
4, 135784, Note_on_c, 2, 53, 0
4, 135936, Note_on_c, 2, 41, 65
4, 135948, Note_on_c, 2, 45, 65
4, 135964, Note_on_c, 2, 48, 65
4, 135980, Note_on_c, 2, 53, 65
4, 136312, Note_on_c, 2, 53, 0
4, 136312, Note_on_c, 2, 48, 0
4, 136312, Note_on_c, 2, 45, 0
4, 136316, Note_on_c, 2, 41, 0
4, 136316, End_track
5, 0, Start_track
5, 0, MIDI_port, 0
5, 0, Title_t, "Concerto - 1778"
5, 0, Control_c, 3, 0, 0
5, 0, Control_c, 3, 32, 0
5, 0, Program_c, 3, 46
5, 0, Control_c, 3, 7, 113
5, 0, Control_c, 3, 10, 63
5, 0, Control_c, 3, 91, 70
5, 0, Control_c, 3, 93, 47
5, 0, Control_c, 3, 121, 0
5, 96, Control_c, 3, 10, 63
5, 192, Control_c, 3, 91, 63
5, 240, Control_c, 3, 93, 40
5, 288, Program_c, 3, 46
5, 14976, Note_on_c, 3, 57, 66
5, 14988, Note_on_c, 3, 60, 66
5, 15004, Note_on_c, 3, 65, 66
5, 15020, Note_on_c, 3, 69, 66
5, 15164, Note_on_c, 3, 57, 0
5, 15176, Note_on_c, 3, 60, 0
5, 15192, Note_on_c, 3, 65, 0
5, 15208, Note_on_c, 3, 69, 0
5, 15360, Note_on_c, 3, 57, 66
5, 15372, Note_on_c, 3, 60, 66
5, 15388, Note_on_c, 3, 65, 66
5, 15404, Note_on_c, 3, 69, 66
5, 15548, Note_on_c, 3, 57, 0
5, 15560, Note_on_c, 3, 60, 0
5, 15576, Note_on_c, 3, 65, 0
5, 15592, Note_on_c, 3, 69, 0
5, 15744, Note_on_c, 3, 57, 66
5, 15756, Note_on_c, 3, 60, 66
5, 15772, Note_on_c, 3, 65, 66
5, 15788, Note_on_c, 3, 69, 66
5, 15932, Note_on_c, 3, 57, 0
5, 15944, Note_on_c, 3, 60, 0
5, 15960, Note_on_c, 3, 65, 0
5, 15976, Note_on_c, 3, 69, 0
5, 16128, Note_on_c, 3, 58, 85
5, 16172, Note_on_c, 3, 58, 0
5, 16176, Note_on_c, 3, 60, 85
5, 16220, Note_on_c, 3, 60, 0
5, 16224, Note_on_c, 3, 64, 85
5, 16268, Note_on_c, 3, 64, 0
5, 16272, Note_on_c, 3, 67, 85
5, 16748, Note_on_c, 3, 67, 0
5, 16800, Note_on_c, 3, 64, 85
5, 16896, Note_on_c, 3, 65, 85
5, 16896, Note_on_c, 3, 57, 85
5, 16988, Note_on_c, 3, 64, 0
5, 17084, Note_on_c, 3, 57, 0
5, 17084, Note_on_c, 3, 65, 0
5, 17280, Note_on_c, 3, 69, 66
5, 17280, Note_on_c, 3, 65, 66
5, 17372, Note_on_c, 3, 65, 0
5, 17372, Note_on_c, 3, 69, 0
5, 17376, Note_on_c, 3, 70, 66
5, 17376, Note_on_c, 3, 67, 66
5, 17468, Note_on_c, 3, 67, 0
5, 17468, Note_on_c, 3, 70, 0
5, 17472, Note_on_c, 3, 72, 66
5, 17472, Note_on_c, 3, 69, 66
5, 17564, Note_on_c, 3, 69, 0
5, 17564, Note_on_c, 3, 72, 0
5, 17568, Note_on_c, 3, 74, 66
5, 17568, Note_on_c, 3, 70, 66
5, 17660, Note_on_c, 3, 70, 0
5, 17660, Note_on_c, 3, 74, 0
5, 17664, Note_on_c, 3, 72, 66
5, 17664, Note_on_c, 3, 69, 66
5, 17756, Note_on_c, 3, 69, 0
5, 17756, Note_on_c, 3, 72, 0
5, 17760, Note_on_c, 3, 74, 66
5, 17760, Note_on_c, 3, 70, 66
5, 17852, Note_on_c, 3, 70, 0
5, 17852, Note_on_c, 3, 74, 0
5, 17856, Note_on_c, 3, 76, 66
5, 17856, Note_on_c, 3, 67, 66
5, 17948, Note_on_c, 3, 67, 0
5, 17948, Note_on_c, 3, 76, 0
5, 17952, Note_on_c, 3, 77, 66
5, 17952, Note_on_c, 3, 69, 66
5, 18044, Note_on_c, 3, 69, 0
5, 18044, Note_on_c, 3, 77, 0
5, 18048, Note_on_c, 3, 76, 66
5, 18048, Note_on_c, 3, 67, 66
5, 18140, Note_on_c, 3, 67, 0
5, 18140, Note_on_c, 3, 76, 0
5, 18144, Note_on_c, 3, 77, 66
5, 18144, Note_on_c, 3, 69, 66
5, 18236, Note_on_c, 3, 69, 0
5, 18236, Note_on_c, 3, 77, 0
5, 18240, Note_on_c, 3, 76, 66
5, 18240, Note_on_c, 3, 67, 66
5, 18332, Note_on_c, 3, 67, 0
5, 18332, Note_on_c, 3, 76, 0
5, 18336, Note_on_c, 3, 77, 66
5, 18336, Note_on_c, 3, 69, 66
5, 18428, Note_on_c, 3, 69, 0
5, 18428, Note_on_c, 3, 77, 0
5, 18432, Note_on_c, 3, 65, 66
5, 18432, Note_on_c, 3, 70, 66
5, 18812, Note_on_c, 3, 65, 0
5, 19100, Note_on_c, 3, 70, 0
5, 19104, Note_on_c, 3, 72, 66
5, 19148, Note_on_c, 3, 72, 0
5, 19152, Note_on_c, 3, 74, 66
5, 19196, Note_on_c, 3, 74, 0
5, 19200, Note_on_c, 3, 72, 66
5, 19388, Note_on_c, 3, 72, 0
5, 19680, Note_on_c, 3, 57, 99
5, 19724, Note_on_c, 3, 57, 0
5, 19728, Note_on_c, 3, 60, 99
5, 19772, Note_on_c, 3, 60, 0
5, 19776, Note_on_c, 3, 65, 99
5, 19820, Note_on_c, 3, 65, 0
5, 19824, Note_on_c, 3, 69, 99
5, 19868, Note_on_c, 3, 69, 0
5, 19872, Note_on_c, 3, 65, 99
5, 19916, Note_on_c, 3, 65, 0
5, 19920, Note_on_c, 3, 60, 99
5, 19964, Note_on_c, 3, 60, 0
5, 20064, Note_on_c, 3, 57, 99
5, 20108, Note_on_c, 3, 57, 0
5, 20112, Note_on_c, 3, 62, 99
5, 20156, Note_on_c, 3, 62, 0
5, 20160, Note_on_c, 3, 65, 99
5, 20204, Note_on_c, 3, 65, 0
5, 20208, Note_on_c, 3, 69, 99
5, 20252, Note_on_c, 3, 69, 0
5, 20256, Note_on_c, 3, 65, 99
5, 20300, Note_on_c, 3, 65, 0
5, 20304, Note_on_c, 3, 62, 99
5, 20348, Note_on_c, 3, 62, 0
5, 20448, Note_on_c, 3, 62, 99
5, 20492, Note_on_c, 3, 62, 0
5, 20496, Note_on_c, 3, 65, 99
5, 20540, Note_on_c, 3, 65, 0
5, 20544, Note_on_c, 3, 67, 99
5, 20588, Note_on_c, 3, 67, 0
5, 20592, Note_on_c, 3, 74, 99
5, 20636, Note_on_c, 3, 74, 0
5, 20640, Note_on_c, 3, 67, 99
5, 20684, Note_on_c, 3, 67, 0
5, 20688, Note_on_c, 3, 65, 99
5, 20732, Note_on_c, 3, 65, 0
5, 20832, Note_on_c, 3, 60, 99
5, 20876, Note_on_c, 3, 60, 0
5, 20880, Note_on_c, 3, 65, 99
5, 20924, Note_on_c, 3, 65, 0
5, 20928, Note_on_c, 3, 67, 99
5, 20972, Note_on_c, 3, 67, 0
5, 20976, Note_on_c, 3, 72, 99
5, 21020, Note_on_c, 3, 72, 0
5, 21024, Note_on_c, 3, 67, 99
5, 21068, Note_on_c, 3, 67, 0
5, 21072, Note_on_c, 3, 65, 99
5, 21116, Note_on_c, 3, 65, 0
5, 21216, Note_on_c, 3, 60, 99
5, 21260, Note_on_c, 3, 60, 0
5, 21264, Note_on_c, 3, 64, 99
5, 21308, Note_on_c, 3, 64, 0
5, 21312, Note_on_c, 3, 67, 99
5, 21356, Note_on_c, 3, 67, 0
5, 21360, Note_on_c, 3, 72, 99
5, 21404, Note_on_c, 3, 72, 0
5, 21408, Note_on_c, 3, 67, 99
5, 21452, Note_on_c, 3, 67, 0
5, 21456, Note_on_c, 3, 64, 99
5, 21500, Note_on_c, 3, 64, 0
5, 21600, Note_on_c, 3, 60, 99
5, 21644, Note_on_c, 3, 60, 0
5, 21648, Note_on_c, 3, 64, 99
5, 21692, Note_on_c, 3, 64, 0
5, 21696, Note_on_c, 3, 65, 99
5, 21740, Note_on_c, 3, 65, 0
5, 21744, Note_on_c, 3, 72, 99
5, 21788, Note_on_c, 3, 72, 0
5, 21792, Note_on_c, 3, 65, 99
5, 21836, Note_on_c, 3, 65, 0
5, 21840, Note_on_c, 3, 64, 99
5, 21884, Note_on_c, 3, 64, 0
5, 21984, Note_on_c, 3, 58, 99
5, 22028, Note_on_c, 3, 58, 0
5, 22032, Note_on_c, 3, 62, 99
5, 22076, Note_on_c, 3, 62, 0
5, 22080, Note_on_c, 3, 65, 99
5, 22124, Note_on_c, 3, 65, 0
5, 22128, Note_on_c, 3, 70, 99
5, 22172, Note_on_c, 3, 70, 0
5, 22176, Note_on_c, 3, 65, 99
5, 22220, Note_on_c, 3, 65, 0
5, 22224, Note_on_c, 3, 62, 99
5, 22268, Note_on_c, 3, 62, 0
5, 22368, Note_on_c, 3, 58, 99
5, 22412, Note_on_c, 3, 58, 0
5, 22416, Note_on_c, 3, 62, 99
5, 22460, Note_on_c, 3, 62, 0
5, 22464, Note_on_c, 3, 67, 99
5, 22508, Note_on_c, 3, 67, 0
5, 22512, Note_on_c, 3, 70, 99
5, 22556, Note_on_c, 3, 70, 0
5, 22560, Note_on_c, 3, 67, 99
5, 22604, Note_on_c, 3, 67, 0
5, 22608, Note_on_c, 3, 62, 99
5, 22652, Note_on_c, 3, 62, 0
5, 22752, Note_on_c, 3, 58, 99
5, 22796, Note_on_c, 3, 58, 0
5, 22800, Note_on_c, 3, 62, 99
5, 22844, Note_on_c, 3, 62, 0
5, 22848, Note_on_c, 3, 67, 99
5, 22892, Note_on_c, 3, 67, 0
5, 22896, Note_on_c, 3, 70, 99
5, 22940, Note_on_c, 3, 70, 0
5, 22944, Note_on_c, 3, 67, 99
5, 22988, Note_on_c, 3, 67, 0
5, 22992, Note_on_c, 3, 62, 99
5, 23036, Note_on_c, 3, 62, 0
5, 23136, Note_on_c, 3, 57, 56
5, 23180, Note_on_c, 3, 57, 0
5, 23184, Note_on_c, 3, 60, 56
5, 23228, Note_on_c, 3, 60, 0
5, 23232, Note_on_c, 3, 65, 56
5, 23276, Note_on_c, 3, 65, 0
5, 23280, Note_on_c, 3, 69, 56
5, 23324, Note_on_c, 3, 69, 0
5, 23328, Note_on_c, 3, 65, 56
5, 23372, Note_on_c, 3, 65, 0
5, 23376, Note_on_c, 3, 60, 56
5, 23420, Note_on_c, 3, 60, 0
5, 23424, Note_on_c, 3, 67, 56
5, 23424, Note_on_c, 3, 64, 56
5, 23804, Note_on_c, 3, 64, 0
5, 23804, Note_on_c, 3, 67, 0
5, 28800, Note_on_c, 3, 79, 56
5, 29184, Note_on_c, 3, 60, 56
5, 29276, Note_on_c, 3, 60, 0
5, 29280, Note_on_c, 3, 67, 56
5, 29372, Note_on_c, 3, 67, 0
5, 29372, Note_on_c, 3, 79, 0
5, 29376, Note_on_c, 3, 81, 56
5, 29376, Note_on_c, 3, 64, 56
5, 29468, Note_on_c, 3, 64, 0
5, 29468, Note_on_c, 3, 81, 0
5, 29472, Note_on_c, 3, 79, 56
5, 29472, Note_on_c, 3, 67, 56
5, 29564, Note_on_c, 3, 67, 0
5, 29564, Note_on_c, 3, 79, 0
5, 29568, Note_on_c, 3, 84, 56
5, 29568, Note_on_c, 3, 60, 56
5, 29660, Note_on_c, 3, 60, 0
5, 29660, Note_on_c, 3, 84, 0
5, 29664, Note_on_c, 3, 83, 56
5, 29664, Note_on_c, 3, 67, 56
5, 29756, Note_on_c, 3, 67, 0
5, 29756, Note_on_c, 3, 83, 0
5, 29760, Note_on_c, 3, 81, 56
5, 29760, Note_on_c, 3, 64, 56
5, 29852, Note_on_c, 3, 64, 0
5, 29852, Note_on_c, 3, 81, 0
5, 29856, Note_on_c, 3, 79, 56
5, 29856, Note_on_c, 3, 67, 56
5, 29948, Note_on_c, 3, 67, 0
5, 29948, Note_on_c, 3, 79, 0
5, 29952, Note_on_c, 3, 79, 56
5, 29952, Note_on_c, 3, 59, 56
5, 30044, Note_on_c, 3, 59, 0
5, 30048, Note_on_c, 3, 65, 56
5, 30140, Note_on_c, 3, 65, 0
5, 30144, Note_on_c, 3, 62, 56
5, 30236, Note_on_c, 3, 62, 0
5, 30236, Note_on_c, 3, 79, 0
5, 30240, Note_on_c, 3, 81, 56
5, 30240, Note_on_c, 3, 65, 56
5, 30332, Note_on_c, 3, 65, 0
5, 30332, Note_on_c, 3, 81, 0
5, 30336, Note_on_c, 3, 79, 56
5, 30336, Note_on_c, 3, 59, 56
5, 30428, Note_on_c, 3, 59, 0
5, 30432, Note_on_c, 3, 65, 56
5, 30524, Note_on_c, 3, 65, 0
5, 30528, Note_on_c, 3, 62, 56
5, 30620, Note_on_c, 3, 62, 0
5, 30624, Note_on_c, 3, 65, 56
5, 30716, Note_on_c, 3, 65, 0
5, 30716, Note_on_c, 3, 79, 0
5, 30720, Note_on_c, 3, 59, 56
5, 30812, Note_on_c, 3, 59, 0
5, 30816, Note_on_c, 3, 65, 56
5, 30908, Note_on_c, 3, 65, 0
5, 30912, Note_on_c, 3, 62, 56
5, 31004, Note_on_c, 3, 62, 0
5, 31008, Note_on_c, 3, 65, 56
5, 31100, Note_on_c, 3, 65, 0
5, 31104, Note_on_c, 3, 74, 110
5, 31148, Note_on_c, 3, 74, 0
5, 31152, Note_on_c, 3, 86, 72
5, 31152, Note_on_c, 3, 55, 72
5, 31196, Note_on_c, 3, 55, 0
5, 31200, Note_on_c, 3, 65, 56
5, 31292, Note_on_c, 3, 65, 0
5, 31296, Note_on_c, 3, 59, 56
5, 31388, Note_on_c, 3, 59, 0
5, 31392, Note_on_c, 3, 65, 56
5, 31484, Note_on_c, 3, 65, 0
5, 31488, Note_on_c, 3, 55, 56
5, 31580, Note_on_c, 3, 55, 0
5, 31584, Note_on_c, 3, 65, 56
5, 31676, Note_on_c, 3, 65, 0
5, 31680, Note_on_c, 3, 84, 56
5, 31680, Note_on_c, 3, 59, 56
5, 31724, Note_on_c, 3, 84, 0
5, 31724, Note_on_c, 3, 86, 0
5, 31728, Note_on_c, 3, 83, 56
5, 31772, Note_on_c, 3, 83, 0
5, 31772, Note_on_c, 3, 59, 0
5, 31776, Note_on_c, 3, 81, 56
5, 31776, Note_on_c, 3, 65, 56
5, 31820, Note_on_c, 3, 81, 0
5, 31824, Note_on_c, 3, 79, 56
5, 31868, Note_on_c, 3, 79, 0
5, 31868, Note_on_c, 3, 65, 0
5, 31872, Note_on_c, 3, 79, 56
5, 31872, Note_on_c, 3, 55, 56
5, 31964, Note_on_c, 3, 55, 0
5, 31964, Note_on_c, 3, 79, 0
5, 31968, Note_on_c, 3, 79, 56
5, 31968, Note_on_c, 3, 65, 56
5, 32060, Note_on_c, 3, 65, 0
5, 32060, Note_on_c, 3, 79, 0
5, 32064, Note_on_c, 3, 79, 56
5, 32064, Note_on_c, 3, 59, 56
5, 32156, Note_on_c, 3, 59, 0
5, 32156, Note_on_c, 3, 79, 0
5, 32160, Note_on_c, 3, 79, 56
5, 32160, Note_on_c, 3, 65, 56
5, 32252, Note_on_c, 3, 65, 0
5, 32252, Note_on_c, 3, 79, 0
5, 32256, Note_on_c, 3, 79, 56
5, 32256, Note_on_c, 3, 60, 56
5, 32348, Note_on_c, 3, 60, 0
5, 32352, Note_on_c, 3, 67, 56
5, 32444, Note_on_c, 3, 67, 0
5, 32448, Note_on_c, 3, 64, 56
5, 32540, Note_on_c, 3, 64, 0
5, 32540, Note_on_c, 3, 79, 0
5, 32544, Note_on_c, 3, 76, 56
5, 32544, Note_on_c, 3, 67, 56
5, 32636, Note_on_c, 3, 67, 0
5, 32636, Note_on_c, 3, 76, 0
5, 32640, Note_on_c, 3, 79, 56
5, 32640, Note_on_c, 3, 60, 56
5, 32732, Note_on_c, 3, 60, 0
5, 32736, Note_on_c, 3, 67, 56
5, 32828, Note_on_c, 3, 67, 0
5, 32832, Note_on_c, 3, 64, 56
5, 32924, Note_on_c, 3, 64, 0
5, 32928, Note_on_c, 3, 67, 56
5, 33020, Note_on_c, 3, 67, 0
5, 33020, Note_on_c, 3, 79, 0
5, 33024, Note_on_c, 3, 60, 56
5, 33116, Note_on_c, 3, 60, 0
5, 33120, Note_on_c, 3, 67, 56
5, 33212, Note_on_c, 3, 67, 0
5, 33216, Note_on_c, 3, 64, 56
5, 33308, Note_on_c, 3, 64, 0
5, 33312, Note_on_c, 3, 67, 56
5, 33404, Note_on_c, 3, 67, 0
5, 33408, Note_on_c, 3, 78, 56
5, 33500, Note_on_c, 3, 78, 0
5, 33504, Note_on_c, 3, 72, 56
5, 33596, Note_on_c, 3, 72, 0
5, 33600, Note_on_c, 3, 74, 56
5, 33692, Note_on_c, 3, 74, 0
5, 33696, Note_on_c, 3, 72, 56
5, 33788, Note_on_c, 3, 72, 0
5, 33792, Note_on_c, 3, 78, 56
5, 33884, Note_on_c, 3, 78, 0
5, 33888, Note_on_c, 3, 72, 56
5, 33980, Note_on_c, 3, 72, 0
5, 33984, Note_on_c, 3, 74, 56
5, 34076, Note_on_c, 3, 74, 0
5, 34080, Note_on_c, 3, 72, 56
5, 34172, Note_on_c, 3, 72, 0
5, 34176, Note_on_c, 3, 78, 56
5, 34268, Note_on_c, 3, 78, 0
5, 34272, Note_on_c, 3, 72, 56
5, 34364, Note_on_c, 3, 72, 0
5, 34368, Note_on_c, 3, 74, 56
5, 34460, Note_on_c, 3, 74, 0
5, 34464, Note_on_c, 3, 72, 56
5, 34556, Note_on_c, 3, 72, 0
5, 34560, Note_on_c, 3, 79, 56
5, 34652, Note_on_c, 3, 79, 0
5, 34656, Note_on_c, 3, 71, 56
5, 34748, Note_on_c, 3, 71, 0
5, 34752, Note_on_c, 3, 74, 56
5, 34844, Note_on_c, 3, 74, 0
5, 34848, Note_on_c, 3, 71, 56
5, 34940, Note_on_c, 3, 71, 0
5, 34944, Note_on_c, 3, 79, 56
5, 35036, Note_on_c, 3, 79, 0
5, 35040, Note_on_c, 3, 71, 56
5, 35132, Note_on_c, 3, 71, 0
5, 35136, Note_on_c, 3, 74, 56
5, 35228, Note_on_c, 3, 74, 0
5, 35232, Note_on_c, 3, 71, 56
5, 35324, Note_on_c, 3, 71, 0
5, 35328, Note_on_c, 3, 78, 56
5, 35420, Note_on_c, 3, 78, 0
5, 35424, Note_on_c, 3, 72, 56
5, 35516, Note_on_c, 3, 72, 0
5, 35520, Note_on_c, 3, 74, 56
5, 35612, Note_on_c, 3, 74, 0
5, 35616, Note_on_c, 3, 72, 56
5, 35708, Note_on_c, 3, 72, 0
5, 35712, Note_on_c, 3, 79, 56
5, 35804, Note_on_c, 3, 79, 0
5, 35808, Note_on_c, 3, 71, 56
5, 35900, Note_on_c, 3, 71, 0
5, 35904, Note_on_c, 3, 74, 56
5, 35996, Note_on_c, 3, 74, 0
5, 36000, Note_on_c, 3, 71, 56
5, 36092, Note_on_c, 3, 71, 0
5, 36096, Note_on_c, 3, 79, 56
5, 36284, Note_on_c, 3, 79, 0
5, 36288, Note_on_c, 3, 62, 56
5, 36288, Note_on_c, 3, 59, 56
5, 36476, Note_on_c, 3, 59, 0
5, 36476, Note_on_c, 3, 62, 0
5, 41472, Note_on_c, 3, 60, 66
5, 41564, Note_on_c, 3, 60, 0
5, 41568, Note_on_c, 3, 67, 66
5, 41660, Note_on_c, 3, 67, 0
5, 41664, Note_on_c, 3, 64, 66
5, 41756, Note_on_c, 3, 64, 0
5, 41760, Note_on_c, 3, 67, 66
5, 41852, Note_on_c, 3, 67, 0
5, 41856, Note_on_c, 3, 60, 66
5, 41948, Note_on_c, 3, 60, 0
5, 41952, Note_on_c, 3, 67, 66
5, 42044, Note_on_c, 3, 67, 0
5, 42048, Note_on_c, 3, 64, 66
5, 42140, Note_on_c, 3, 64, 0
5, 42144, Note_on_c, 3, 67, 66
5, 42236, Note_on_c, 3, 67, 0
5, 42240, Note_on_c, 3, 62, 66
5, 42332, Note_on_c, 3, 62, 0
5, 42336, Note_on_c, 3, 67, 66
5, 42428, Note_on_c, 3, 67, 0
5, 42432, Note_on_c, 3, 65, 66
5, 42524, Note_on_c, 3, 65, 0
5, 42528, Note_on_c, 3, 67, 66
5, 42620, Note_on_c, 3, 67, 0
5, 42624, Note_on_c, 3, 60, 66
5, 42716, Note_on_c, 3, 60, 0
5, 42720, Note_on_c, 3, 67, 66
5, 42812, Note_on_c, 3, 67, 0
5, 42816, Note_on_c, 3, 64, 66
5, 42908, Note_on_c, 3, 64, 0
5, 42912, Note_on_c, 3, 67, 66
5, 43004, Note_on_c, 3, 67, 0
5, 43008, Note_on_c, 3, 60, 66
5, 43100, Note_on_c, 3, 60, 0
5, 43104, Note_on_c, 3, 67, 66
5, 43196, Note_on_c, 3, 67, 0
5, 43200, Note_on_c, 3, 64, 66
5, 43292, Note_on_c, 3, 64, 0
5, 43296, Note_on_c, 3, 67, 66
5, 43388, Note_on_c, 3, 67, 0
5, 43392, Note_on_c, 3, 60, 66
5, 43484, Note_on_c, 3, 60, 0
5, 43488, Note_on_c, 3, 67, 66
5, 43580, Note_on_c, 3, 67, 0
5, 43584, Note_on_c, 3, 64, 66
5, 43676, Note_on_c, 3, 64, 0
5, 43680, Note_on_c, 3, 67, 66
5, 43772, Note_on_c, 3, 67, 0
5, 43872, Note_on_c, 3, 69, 66
5, 43964, Note_on_c, 3, 69, 0
5, 43968, Note_on_c, 3, 77, 66
5, 44060, Note_on_c, 3, 77, 0
5, 44064, Note_on_c, 3, 74, 66
5, 44156, Note_on_c, 3, 74, 0
5, 44256, Note_on_c, 3, 67, 66
5, 44348, Note_on_c, 3, 67, 0
5, 44352, Note_on_c, 3, 76, 66
5, 44444, Note_on_c, 3, 76, 0
5, 44448, Note_on_c, 3, 72, 66
5, 44540, Note_on_c, 3, 72, 0
5, 44640, Note_on_c, 3, 65, 66
5, 44732, Note_on_c, 3, 65, 0
5, 44736, Note_on_c, 3, 74, 66
5, 44828, Note_on_c, 3, 74, 0
5, 44832, Note_on_c, 3, 71, 66
5, 44924, Note_on_c, 3, 71, 0
5, 57600, Note_on_c, 3, 84, 66
5, 57600, Note_on_c, 3, 79, 66
5, 57600, Note_on_c, 3, 76, 66
5, 57600, Note_on_c, 3, 72, 66
5, 57660, Note_on_c, 3, 84, 0
5, 57664, Note_on_c, 3, 86, 66
5, 57724, Note_on_c, 3, 86, 0
5, 57728, Note_on_c, 3, 84, 66
5, 57788, Note_on_c, 3, 84, 0
5, 57788, Note_on_c, 3, 79, 0
5, 57788, Note_on_c, 3, 76, 0
5, 57788, Note_on_c, 3, 72, 0
5, 57792, Note_on_c, 3, 82, 66
5, 57792, Note_on_c, 3, 77, 66
5, 57792, Note_on_c, 3, 74, 66
5, 57852, Note_on_c, 3, 82, 0
5, 57856, Note_on_c, 3, 84, 66
5, 57916, Note_on_c, 3, 84, 0
5, 57920, Note_on_c, 3, 82, 66
5, 57980, Note_on_c, 3, 82, 0
5, 57980, Note_on_c, 3, 74, 0
5, 57980, Note_on_c, 3, 77, 0
5, 57984, Note_on_c, 3, 81, 66
5, 57984, Note_on_c, 3, 76, 66
5, 57984, Note_on_c, 3, 72, 66
5, 58044, Note_on_c, 3, 81, 0
5, 58048, Note_on_c, 3, 82, 66
5, 58108, Note_on_c, 3, 82, 0
5, 58112, Note_on_c, 3, 81, 66
5, 58172, Note_on_c, 3, 81, 0
5, 58172, Note_on_c, 3, 72, 0
5, 58172, Note_on_c, 3, 76, 0
5, 58176, Note_on_c, 3, 79, 66
5, 58176, Note_on_c, 3, 74, 66
5, 58176, Note_on_c, 3, 71, 66
5, 58236, Note_on_c, 3, 79, 0
5, 58240, Note_on_c, 3, 81, 66
5, 58300, Note_on_c, 3, 81, 0
5, 58304, Note_on_c, 3, 79, 66
5, 58364, Note_on_c, 3, 79, 0
5, 58364, Note_on_c, 3, 71, 0
5, 58364, Note_on_c, 3, 74, 0
5, 58368, Note_on_c, 3, 77, 66
5, 58368, Note_on_c, 3, 72, 66
5, 58368, Note_on_c, 3, 69, 66
5, 58428, Note_on_c, 3, 77, 0
5, 58432, Note_on_c, 3, 79, 66
5, 58492, Note_on_c, 3, 79, 0
5, 58496, Note_on_c, 3, 77, 66
5, 58556, Note_on_c, 3, 77, 0
5, 58556, Note_on_c, 3, 69, 0
5, 58556, Note_on_c, 3, 72, 0
5, 58560, Note_on_c, 3, 76, 66
5, 58560, Note_on_c, 3, 71, 66
5, 58560, Note_on_c, 3, 67, 66
5, 58620, Note_on_c, 3, 76, 0
5, 58624, Note_on_c, 3, 77, 66
5, 58684, Note_on_c, 3, 77, 0
5, 58688, Note_on_c, 3, 76, 66
5, 58748, Note_on_c, 3, 76, 0
5, 58748, Note_on_c, 3, 67, 0
5, 58748, Note_on_c, 3, 71, 0
5, 58752, Note_on_c, 3, 65, 82
5, 58752, Note_on_c, 3, 69, 82
5, 58752, Note_on_c, 3, 74, 82
5, 58796, Note_on_c, 3, 74, 0
5, 58800, Note_on_c, 3, 76, 82
5, 58844, Note_on_c, 3, 76, 0
5, 58848, Note_on_c, 3, 74, 82
5, 58892, Note_on_c, 3, 74, 0
5, 58896, Note_on_c, 3, 73, 82
5, 58940, Note_on_c, 3, 73, 0
5, 58944, Note_on_c, 3, 74, 82
5, 58988, Note_on_c, 3, 74, 0
5, 58992, Note_on_c, 3, 76, 82
5, 59036, Note_on_c, 3, 76, 0
5, 59040, Note_on_c, 3, 74, 82
5, 59084, Note_on_c, 3, 74, 0
5, 59088, Note_on_c, 3, 76, 82
5, 59132, Note_on_c, 3, 76, 0
5, 59132, Note_on_c, 3, 69, 0
5, 59132, Note_on_c, 3, 65, 0
5, 59136, Note_on_c, 3, 65, 82
5, 59136, Note_on_c, 3, 69, 82
5, 59136, Note_on_c, 3, 77, 82
5, 59180, Note_on_c, 3, 77, 0
5, 59184, Note_on_c, 3, 79, 82
5, 59228, Note_on_c, 3, 79, 0
5, 59232, Note_on_c, 3, 77, 82
5, 59276, Note_on_c, 3, 77, 0
5, 59280, Note_on_c, 3, 76, 82
5, 59324, Note_on_c, 3, 76, 0
5, 59328, Note_on_c, 3, 77, 82
5, 59372, Note_on_c, 3, 77, 0
5, 59376, Note_on_c, 3, 79, 82
5, 59420, Note_on_c, 3, 79, 0
5, 59424, Note_on_c, 3, 77, 82
5, 59468, Note_on_c, 3, 77, 0
5, 59472, Note_on_c, 3, 79, 82
5, 59516, Note_on_c, 3, 79, 0
5, 59516, Note_on_c, 3, 69, 0
5, 59516, Note_on_c, 3, 65, 0
5, 59520, Note_on_c, 3, 65, 82
5, 59520, Note_on_c, 3, 69, 82
5, 59520, Note_on_c, 3, 81, 82
5, 59564, Note_on_c, 3, 81, 0
5, 59568, Note_on_c, 3, 83, 82
5, 59612, Note_on_c, 3, 83, 0
5, 59616, Note_on_c, 3, 81, 82
5, 59660, Note_on_c, 3, 81, 0
5, 59664, Note_on_c, 3, 79, 82
5, 59708, Note_on_c, 3, 79, 0
5, 59708, Note_on_c, 3, 69, 0
5, 59708, Note_on_c, 3, 65, 0
5, 59712, Note_on_c, 3, 81, 82
5, 59712, Note_on_c, 3, 65, 82
5, 59712, Note_on_c, 3, 67, 82
5, 59756, Note_on_c, 3, 81, 0
5, 59760, Note_on_c, 3, 83, 82
5, 59804, Note_on_c, 3, 83, 0
5, 59808, Note_on_c, 3, 81, 82
5, 59852, Note_on_c, 3, 81, 0
5, 59856, Note_on_c, 3, 83, 82
5, 59900, Note_on_c, 3, 83, 0
5, 59900, Note_on_c, 3, 67, 0
5, 59900, Note_on_c, 3, 65, 0
5, 59904, Note_on_c, 3, 64, 82
5, 59904, Note_on_c, 3, 67, 82
5, 59904, Note_on_c, 3, 84, 82
5, 59948, Note_on_c, 3, 84, 0
5, 59952, Note_on_c, 3, 83, 82
5, 59996, Note_on_c, 3, 83, 0
5, 60000, Note_on_c, 3, 84, 82
5, 60044, Note_on_c, 3, 84, 0
5, 60048, Note_on_c, 3, 79, 82
5, 60092, Note_on_c, 3, 79, 0
5, 60092, Note_on_c, 3, 67, 0
5, 60092, Note_on_c, 3, 64, 0
5, 60096, Note_on_c, 3, 83, 82
5, 60096, Note_on_c, 3, 65, 82
5, 60096, Note_on_c, 3, 72, 82
5, 60140, Note_on_c, 3, 83, 0
5, 60144, Note_on_c, 3, 81, 82
5, 60188, Note_on_c, 3, 81, 0
5, 60192, Note_on_c, 3, 79, 82
5, 60236, Note_on_c, 3, 79, 0
5, 60240, Note_on_c, 3, 77, 82
5, 60284, Note_on_c, 3, 77, 0
5, 60284, Note_on_c, 3, 72, 0
5, 60284, Note_on_c, 3, 65, 0
5, 60288, Note_on_c, 3, 76, 82
5, 60288, Note_on_c, 3, 67, 82
5, 60288, Note_on_c, 3, 72, 82
5, 60476, Note_on_c, 3, 72, 0
5, 60476, Note_on_c, 3, 67, 0
5, 60480, Note_on_c, 3, 67, 82
5, 60480, Note_on_c, 3, 72, 82
5, 60668, Note_on_c, 3, 72, 0
5, 60668, Note_on_c, 3, 67, 0
5, 60668, Note_on_c, 3, 76, 0
5, 60672, Note_on_c, 3, 71, 82
5, 60672, Note_on_c, 3, 67, 82
5, 60672, Note_on_c, 3, 74, 82
5, 60704, Note_on_c, 3, 74, 0
5, 60704, Note_on_c, 3, 76, 82
5, 60736, Note_on_c, 3, 76, 0
5, 60736, Note_on_c, 3, 74, 82
5, 60768, Note_on_c, 3, 74, 0
5, 60768, Note_on_c, 3, 76, 82
5, 60800, Note_on_c, 3, 76, 0
5, 60800, Note_on_c, 3, 74, 82
5, 60832, Note_on_c, 3, 74, 0
5, 60832, Note_on_c, 3, 76, 82
5, 60860, Note_on_c, 3, 67, 0
5, 60860, Note_on_c, 3, 71, 0
5, 60864, Note_on_c, 3, 76, 0
5, 60864, Note_on_c, 3, 67, 82
5, 60864, Note_on_c, 3, 71, 82
5, 60864, Note_on_c, 3, 74, 82
5, 60896, Note_on_c, 3, 74, 0
5, 60896, Note_on_c, 3, 76, 82
5, 60928, Note_on_c, 3, 76, 0
5, 60928, Note_on_c, 3, 74, 82
5, 60960, Note_on_c, 3, 74, 0
5, 60960, Note_on_c, 3, 72, 82
5, 60992, Note_on_c, 3, 74, 82
5, 61000, Note_on_c, 3, 72, 0
5, 61032, Note_on_c, 3, 74, 0
5, 61052, Note_on_c, 3, 71, 0
5, 61052, Note_on_c, 3, 67, 0
5, 66816, Note_on_c, 3, 57, 66
5, 66828, Note_on_c, 3, 60, 66
5, 66844, Note_on_c, 3, 65, 66
5, 66860, Note_on_c, 3, 69, 66
5, 67004, Note_on_c, 3, 57, 0
5, 67016, Note_on_c, 3, 60, 0
5, 67032, Note_on_c, 3, 65, 0
5, 67048, Note_on_c, 3, 69, 0
5, 67200, Note_on_c, 3, 57, 66
5, 67212, Note_on_c, 3, 60, 66
5, 67228, Note_on_c, 3, 65, 66
5, 67244, Note_on_c, 3, 69, 66
5, 67388, Note_on_c, 3, 57, 0
5, 67400, Note_on_c, 3, 60, 0
5, 67416, Note_on_c, 3, 65, 0
5, 67432, Note_on_c, 3, 69, 0
5, 67584, Note_on_c, 3, 57, 66
5, 67596, Note_on_c, 3, 60, 66
5, 67612, Note_on_c, 3, 65, 66
5, 67628, Note_on_c, 3, 69, 66
5, 67772, Note_on_c, 3, 57, 0
5, 67784, Note_on_c, 3, 60, 0
5, 67800, Note_on_c, 3, 65, 0
5, 67816, Note_on_c, 3, 69, 0
5, 67968, Note_on_c, 3, 58, 66
5, 68012, Note_on_c, 3, 58, 0
5, 68016, Note_on_c, 3, 60, 66
5, 68060, Note_on_c, 3, 60, 0
5, 68064, Note_on_c, 3, 64, 66
5, 68108, Note_on_c, 3, 64, 0
5, 68112, Note_on_c, 3, 67, 66
5, 68640, Note_on_c, 3, 64, 66
5, 68720, Note_on_c, 3, 65, 66
5, 68732, Note_on_c, 3, 64, 0
5, 68736, Note_on_c, 3, 57, 66
5, 68780, Note_on_c, 3, 67, 0
5, 69004, Note_on_c, 3, 65, 0
5, 69020, Note_on_c, 3, 57, 0
5, 71520, Note_on_c, 3, 57, 99
5, 71564, Note_on_c, 3, 57, 0
5, 71568, Note_on_c, 3, 60, 99
5, 71612, Note_on_c, 3, 60, 0
5, 71616, Note_on_c, 3, 65, 99
5, 71660, Note_on_c, 3, 65, 0
5, 71664, Note_on_c, 3, 69, 99
5, 71708, Note_on_c, 3, 69, 0
5, 71712, Note_on_c, 3, 65, 99
5, 71756, Note_on_c, 3, 65, 0
5, 71760, Note_on_c, 3, 60, 99
5, 71804, Note_on_c, 3, 60, 0
5, 71904, Note_on_c, 3, 57, 99
5, 71948, Note_on_c, 3, 57, 0
5, 71952, Note_on_c, 3, 62, 99
5, 71996, Note_on_c, 3, 62, 0
5, 72000, Note_on_c, 3, 65, 99
5, 72044, Note_on_c, 3, 65, 0
5, 72048, Note_on_c, 3, 69, 99
5, 72092, Note_on_c, 3, 69, 0
5, 72096, Note_on_c, 3, 65, 99
5, 72140, Note_on_c, 3, 65, 0
5, 72144, Note_on_c, 3, 62, 99
5, 72188, Note_on_c, 3, 62, 0
5, 72288, Note_on_c, 3, 62, 99
5, 72332, Note_on_c, 3, 62, 0
5, 72336, Note_on_c, 3, 65, 99
5, 72380, Note_on_c, 3, 65, 0
5, 72384, Note_on_c, 3, 67, 99
5, 72428, Note_on_c, 3, 67, 0
5, 72432, Note_on_c, 3, 74, 99
5, 72476, Note_on_c, 3, 74, 0
5, 72480, Note_on_c, 3, 67, 99
5, 72524, Note_on_c, 3, 67, 0
5, 72528, Note_on_c, 3, 65, 99
5, 72572, Note_on_c, 3, 65, 0
5, 72672, Note_on_c, 3, 60, 99
5, 72716, Note_on_c, 3, 60, 0
5, 72720, Note_on_c, 3, 65, 99
5, 72764, Note_on_c, 3, 65, 0
5, 72768, Note_on_c, 3, 67, 99
5, 72812, Note_on_c, 3, 67, 0
5, 72816, Note_on_c, 3, 72, 99
5, 72860, Note_on_c, 3, 72, 0
5, 72864, Note_on_c, 3, 67, 99
5, 72908, Note_on_c, 3, 67, 0
5, 72912, Note_on_c, 3, 65, 99
5, 72956, Note_on_c, 3, 65, 0
5, 73056, Note_on_c, 3, 60, 99
5, 73100, Note_on_c, 3, 60, 0
5, 73104, Note_on_c, 3, 64, 99
5, 73148, Note_on_c, 3, 64, 0
5, 73152, Note_on_c, 3, 67, 99
5, 73196, Note_on_c, 3, 67, 0
5, 73200, Note_on_c, 3, 72, 99
5, 73244, Note_on_c, 3, 72, 0
5, 73248, Note_on_c, 3, 67, 99
5, 73292, Note_on_c, 3, 67, 0
5, 73296, Note_on_c, 3, 64, 99
5, 73340, Note_on_c, 3, 64, 0
5, 73440, Note_on_c, 3, 60, 99
5, 73484, Note_on_c, 3, 60, 0
5, 73488, Note_on_c, 3, 64, 99
5, 73532, Note_on_c, 3, 64, 0
5, 73536, Note_on_c, 3, 65, 99
5, 73580, Note_on_c, 3, 65, 0
5, 73584, Note_on_c, 3, 72, 99
5, 73628, Note_on_c, 3, 72, 0
5, 73632, Note_on_c, 3, 65, 99
5, 73676, Note_on_c, 3, 65, 0
5, 73680, Note_on_c, 3, 64, 99
5, 73724, Note_on_c, 3, 64, 0
5, 73824, Note_on_c, 3, 58, 99
5, 73868, Note_on_c, 3, 58, 0
5, 73872, Note_on_c, 3, 62, 99
5, 73916, Note_on_c, 3, 62, 0
5, 73920, Note_on_c, 3, 65, 99
5, 73964, Note_on_c, 3, 65, 0
5, 73968, Note_on_c, 3, 70, 99
5, 74012, Note_on_c, 3, 70, 0
5, 74016, Note_on_c, 3, 65, 99
5, 74060, Note_on_c, 3, 65, 0
5, 74064, Note_on_c, 3, 62, 99
5, 74108, Note_on_c, 3, 62, 0
5, 74208, Note_on_c, 3, 58, 99
5, 74252, Note_on_c, 3, 58, 0
5, 74256, Note_on_c, 3, 62, 99
5, 74300, Note_on_c, 3, 62, 0
5, 74304, Note_on_c, 3, 67, 99
5, 74348, Note_on_c, 3, 67, 0
5, 74352, Note_on_c, 3, 70, 99
5, 74396, Note_on_c, 3, 70, 0
5, 74400, Note_on_c, 3, 67, 99
5, 74444, Note_on_c, 3, 67, 0
5, 74448, Note_on_c, 3, 62, 99
5, 74492, Note_on_c, 3, 62, 0
5, 74592, Note_on_c, 3, 58, 99
5, 74636, Note_on_c, 3, 58, 0
5, 74640, Note_on_c, 3, 62, 99
5, 74684, Note_on_c, 3, 62, 0
5, 74688, Note_on_c, 3, 67, 99
5, 74732, Note_on_c, 3, 67, 0
5, 74736, Note_on_c, 3, 70, 99
5, 74780, Note_on_c, 3, 70, 0
5, 74784, Note_on_c, 3, 67, 99
5, 74828, Note_on_c, 3, 67, 0
5, 74832, Note_on_c, 3, 62, 99
5, 74876, Note_on_c, 3, 62, 0
5, 74976, Note_on_c, 3, 57, 99
5, 75020, Note_on_c, 3, 57, 0
5, 75024, Note_on_c, 3, 60, 99
5, 75068, Note_on_c, 3, 60, 0
5, 75072, Note_on_c, 3, 65, 99
5, 75116, Note_on_c, 3, 65, 0
5, 75120, Note_on_c, 3, 69, 99
5, 75164, Note_on_c, 3, 69, 0
5, 75168, Note_on_c, 3, 65, 99
5, 75212, Note_on_c, 3, 65, 0
5, 75216, Note_on_c, 3, 60, 99
5, 75260, Note_on_c, 3, 60, 0
5, 75264, Note_on_c, 3, 67, 99
5, 75264, Note_on_c, 3, 64, 99
5, 75644, Note_on_c, 3, 64, 0
5, 75644, Note_on_c, 3, 67, 0
5, 85248, Note_on_c, 3, 77, 66
5, 85340, Note_on_c, 3, 77, 0
5, 85344, Note_on_c, 3, 67, 66
5, 85436, Note_on_c, 3, 67, 0
5, 85440, Note_on_c, 3, 71, 66
5, 85532, Note_on_c, 3, 71, 0
5, 85536, Note_on_c, 3, 67, 66
5, 85628, Note_on_c, 3, 67, 0
5, 85632, Note_on_c, 3, 77, 66
5, 85724, Note_on_c, 3, 77, 0
5, 85728, Note_on_c, 3, 67, 66
5, 85820, Note_on_c, 3, 67, 0
5, 85824, Note_on_c, 3, 71, 66
5, 85916, Note_on_c, 3, 71, 0
5, 85920, Note_on_c, 3, 67, 66
5, 86012, Note_on_c, 3, 67, 0
5, 86016, Note_on_c, 3, 77, 66
5, 86108, Note_on_c, 3, 77, 0
5, 86112, Note_on_c, 3, 67, 66
5, 86204, Note_on_c, 3, 67, 0
5, 86208, Note_on_c, 3, 71, 66
5, 86300, Note_on_c, 3, 71, 0
5, 86304, Note_on_c, 3, 67, 66
5, 86396, Note_on_c, 3, 67, 0
5, 86400, Note_on_c, 3, 79, 66
5, 86492, Note_on_c, 3, 79, 0
5, 86496, Note_on_c, 3, 67, 66
5, 86588, Note_on_c, 3, 67, 0
5, 86592, Note_on_c, 3, 72, 66
5, 86684, Note_on_c, 3, 72, 0
5, 86688, Note_on_c, 3, 67, 66
5, 86780, Note_on_c, 3, 67, 0
5, 86784, Note_on_c, 3, 76, 66
5, 86876, Note_on_c, 3, 76, 0
5, 86880, Note_on_c, 3, 67, 66
5, 86972, Note_on_c, 3, 67, 0
5, 86976, Note_on_c, 3, 72, 66
5, 87068, Note_on_c, 3, 72, 0
5, 87072, Note_on_c, 3, 67, 66
5, 87164, Note_on_c, 3, 67, 0
5, 87168, Note_on_c, 3, 83, 66
5, 87168, Note_on_c, 3, 62, 66
5, 87260, Note_on_c, 3, 62, 0
5, 87260, Note_on_c, 3, 83, 0
5, 87264, Note_on_c, 3, 77, 66
5, 87264, Note_on_c, 3, 67, 66
5, 87356, Note_on_c, 3, 67, 0
5, 87356, Note_on_c, 3, 77, 0
5, 87360, Note_on_c, 3, 79, 66
5, 87360, Note_on_c, 3, 65, 66
5, 87452, Note_on_c, 3, 65, 0
5, 87452, Note_on_c, 3, 79, 0
5, 87456, Note_on_c, 3, 77, 66
5, 87456, Note_on_c, 3, 67, 66
5, 87548, Note_on_c, 3, 67, 0
5, 87548, Note_on_c, 3, 77, 0
5, 87552, Note_on_c, 3, 84, 66
5, 87552, Note_on_c, 3, 60, 66
5, 87644, Note_on_c, 3, 60, 0
5, 87644, Note_on_c, 3, 84, 0
5, 87648, Note_on_c, 3, 76, 66
5, 87648, Note_on_c, 3, 67, 66
5, 87740, Note_on_c, 3, 67, 0
5, 87740, Note_on_c, 3, 76, 0
5, 87744, Note_on_c, 3, 79, 66
5, 87744, Note_on_c, 3, 64, 66
5, 87836, Note_on_c, 3, 64, 0
5, 87836, Note_on_c, 3, 79, 0
5, 87840, Note_on_c, 3, 76, 66
5, 87840, Note_on_c, 3, 67, 66
5, 87932, Note_on_c, 3, 67, 0
5, 87932, Note_on_c, 3, 76, 0
5, 87936, Note_on_c, 3, 84, 66
5, 87936, Note_on_c, 3, 60, 66
5, 88124, Note_on_c, 3, 60, 0
5, 88124, Note_on_c, 3, 84, 0
5, 88128, Note_on_c, 3, 67, 66
5, 88128, Note_on_c, 3, 64, 66
5, 88316, Note_on_c, 3, 64, 0
5, 88316, Note_on_c, 3, 67, 0
5, 88320, Note_on_c, 3, 69, 77
5, 88320, Note_on_c, 3, 65, 77
5, 88508, Note_on_c, 3, 65, 0
5, 88508, Note_on_c, 3, 69, 0
5, 88512, Note_on_c, 3, 70, 88
5, 88512, Note_on_c, 3, 67, 88
5, 88700, Note_on_c, 3, 67, 0
5, 88700, Note_on_c, 3, 70, 0
5, 93312, Note_on_c, 3, 65, 66
5, 93404, Note_on_c, 3, 65, 0
5, 93408, Note_on_c, 3, 72, 66
5, 93500, Note_on_c, 3, 72, 0
5, 93504, Note_on_c, 3, 69, 66
5, 93596, Note_on_c, 3, 69, 0
5, 93600, Note_on_c, 3, 72, 66
5, 93692, Note_on_c, 3, 72, 0
5, 93696, Note_on_c, 3, 65, 66
5, 93788, Note_on_c, 3, 65, 0
5, 93792, Note_on_c, 3, 72, 66
5, 93884, Note_on_c, 3, 72, 0
5, 93888, Note_on_c, 3, 69, 66
5, 93980, Note_on_c, 3, 69, 0
5, 93984, Note_on_c, 3, 72, 66
5, 94076, Note_on_c, 3, 72, 0
5, 94080, Note_on_c, 3, 67, 66
5, 94172, Note_on_c, 3, 67, 0
5, 94176, Note_on_c, 3, 72, 66
5, 94268, Note_on_c, 3, 72, 0
5, 94272, Note_on_c, 3, 70, 66
5, 94364, Note_on_c, 3, 70, 0
5, 94368, Note_on_c, 3, 72, 66
5, 94460, Note_on_c, 3, 72, 0
5, 94464, Note_on_c, 3, 65, 66
5, 94556, Note_on_c, 3, 65, 0
5, 94560, Note_on_c, 3, 72, 66
5, 94652, Note_on_c, 3, 72, 0
5, 94656, Note_on_c, 3, 69, 66
5, 94748, Note_on_c, 3, 69, 0
5, 94752, Note_on_c, 3, 72, 66
5, 94844, Note_on_c, 3, 72, 0
5, 94848, Note_on_c, 3, 65, 66
5, 94940, Note_on_c, 3, 65, 0
5, 94944, Note_on_c, 3, 72, 66
5, 95036, Note_on_c, 3, 72, 0
5, 95040, Note_on_c, 3, 69, 66
5, 95132, Note_on_c, 3, 69, 0
5, 95136, Note_on_c, 3, 72, 66
5, 95228, Note_on_c, 3, 72, 0
5, 95232, Note_on_c, 3, 65, 66
5, 95324, Note_on_c, 3, 65, 0
5, 95328, Note_on_c, 3, 72, 66
5, 95420, Note_on_c, 3, 72, 0
5, 95424, Note_on_c, 3, 69, 66
5, 95516, Note_on_c, 3, 69, 0
5, 95520, Note_on_c, 3, 72, 66
5, 95612, Note_on_c, 3, 72, 0
5, 95712, Note_on_c, 3, 74, 66
5, 95804, Note_on_c, 3, 74, 0
5, 95808, Note_on_c, 3, 82, 66
5, 95900, Note_on_c, 3, 82, 0
5, 95904, Note_on_c, 3, 79, 66
5, 95996, Note_on_c, 3, 79, 0
5, 96096, Note_on_c, 3, 72, 66
5, 96188, Note_on_c, 3, 72, 0
5, 96192, Note_on_c, 3, 81, 66
5, 96284, Note_on_c, 3, 81, 0
5, 96288, Note_on_c, 3, 77, 66
5, 96380, Note_on_c, 3, 77, 0
5, 96480, Note_on_c, 3, 70, 66
5, 96572, Note_on_c, 3, 70, 0
5, 96576, Note_on_c, 3, 79, 66
5, 96668, Note_on_c, 3, 79, 0
5, 96672, Note_on_c, 3, 76, 66
5, 96764, Note_on_c, 3, 76, 0
5, 96768, Note_on_c, 3, 77, 99
5, 96768, Note_on_c, 3, 72, 99
5, 96768, Note_on_c, 3, 69, 99
5, 97148, Note_on_c, 3, 69, 0
5, 97148, Note_on_c, 3, 72, 0
5, 97148, Note_on_c, 3, 77, 0
5, 97152, Note_on_c, 3, 69, 82
5, 97152, Note_on_c, 3, 65, 82
5, 97340, Note_on_c, 3, 65, 0
5, 97340, Note_on_c, 3, 69, 0
5, 101376, Note_on_c, 3, 65, 69
5, 101376, Note_on_c, 3, 69, 69
5, 101756, Note_on_c, 3, 69, 0
5, 101756, Note_on_c, 3, 65, 0
5, 102528, Note_on_c, 3, 72, 69
5, 102908, Note_on_c, 3, 72, 0
5, 102912, Note_on_c, 3, 72, 69
5, 102972, Note_on_c, 3, 72, 0
5, 102976, Note_on_c, 3, 74, 69
5, 103036, Note_on_c, 3, 74, 0
5, 103040, Note_on_c, 3, 76, 69
5, 103100, Note_on_c, 3, 76, 0
5, 103104, Note_on_c, 3, 77, 69
5, 103164, Note_on_c, 3, 77, 0
5, 103168, Note_on_c, 3, 79, 69
5, 103228, Note_on_c, 3, 79, 0
5, 103232, Note_on_c, 3, 81, 69
5, 103292, Note_on_c, 3, 81, 0
5, 103296, Note_on_c, 3, 82, 69
5, 103356, Note_on_c, 3, 82, 0
5, 103360, Note_on_c, 3, 81, 69
5, 103420, Note_on_c, 3, 81, 0
5, 103424, Note_on_c, 3, 79, 69
5, 103484, Note_on_c, 3, 79, 0
5, 103488, Note_on_c, 3, 77, 69
5, 103548, Note_on_c, 3, 77, 0
5, 103552, Note_on_c, 3, 79, 69
5, 103612, Note_on_c, 3, 79, 0
5, 103616, Note_on_c, 3, 76, 69
5, 103676, Note_on_c, 3, 76, 0
5, 103680, Note_on_c, 3, 77, 75
5, 104064, Note_on_c, 3, 65, 72
5, 104152, Note_on_c, 3, 65, 0
5, 104160, Note_on_c, 3, 72, 72
5, 104248, Note_on_c, 3, 72, 0
5, 104248, Note_on_c, 3, 77, 0
5, 104256, Note_on_c, 3, 69, 72
5, 104344, Note_on_c, 3, 69, 0
5, 104352, Note_on_c, 3, 72, 72
5, 104440, Note_on_c, 3, 72, 0
5, 104448, Note_on_c, 3, 67, 72
5, 104536, Note_on_c, 3, 67, 0
5, 104544, Note_on_c, 3, 72, 72
5, 104632, Note_on_c, 3, 72, 0
5, 104640, Note_on_c, 3, 70, 72
5, 104728, Note_on_c, 3, 70, 0
5, 104736, Note_on_c, 3, 72, 72
5, 104824, Note_on_c, 3, 72, 0
5, 104832, Note_on_c, 3, 72, 82
5, 104832, Note_on_c, 3, 65, 82
5, 104920, Note_on_c, 3, 65, 0
5, 104920, Note_on_c, 3, 72, 0
5, 104928, Note_on_c, 3, 84, 82
5, 104928, Note_on_c, 3, 72, 82
5, 105016, Note_on_c, 3, 72, 0
5, 105024, Note_on_c, 3, 69, 82
5, 105112, Note_on_c, 3, 69, 0
5, 105120, Note_on_c, 3, 72, 82
5, 105208, Note_on_c, 3, 72, 0
5, 105208, Note_on_c, 3, 84, 0
5, 105216, Note_on_c, 3, 84, 82
5, 105216, Note_on_c, 3, 65, 82
5, 105304, Note_on_c, 3, 65, 0
5, 105304, Note_on_c, 3, 84, 0
5, 105312, Note_on_c, 3, 84, 82
5, 105312, Note_on_c, 3, 72, 82
5, 105400, Note_on_c, 3, 72, 0
5, 105400, Note_on_c, 3, 84, 0
5, 105408, Note_on_c, 3, 86, 82
5, 105408, Note_on_c, 3, 69, 82
5, 105448, Note_on_c, 3, 86, 0
5, 105456, Note_on_c, 3, 84, 82
5, 105496, Note_on_c, 3, 84, 0
5, 105500, Note_on_c, 3, 69, 0
5, 105504, Note_on_c, 3, 82, 82
5, 105504, Note_on_c, 3, 72, 82
5, 105544, Note_on_c, 3, 82, 0
5, 105552, Note_on_c, 3, 84, 66
5, 105592, Note_on_c, 3, 84, 0
5, 105592, Note_on_c, 3, 72, 0
5, 105600, Note_on_c, 3, 88, 66
5, 105600, Note_on_c, 3, 67, 82
5, 105688, Note_on_c, 3, 67, 0
5, 105688, Note_on_c, 3, 88, 0
5, 105696, Note_on_c, 3, 88, 66
5, 105696, Note_on_c, 3, 72, 82
5, 105784, Note_on_c, 3, 72, 0
5, 105784, Note_on_c, 3, 88, 0
5, 105792, Note_on_c, 3, 89, 66
5, 105792, Note_on_c, 3, 70, 82
5, 105836, Note_on_c, 3, 89, 0
5, 105840, Note_on_c, 3, 88, 66
5, 105884, Note_on_c, 3, 88, 0
5, 105884, Note_on_c, 3, 70, 0
5, 105888, Note_on_c, 3, 86, 66
5, 105888, Note_on_c, 3, 72, 82
5, 105932, Note_on_c, 3, 86, 0
5, 105936, Note_on_c, 3, 88, 66
5, 105980, Note_on_c, 3, 88, 0
5, 105980, Note_on_c, 3, 72, 0
5, 105984, Note_on_c, 3, 89, 66
5, 105984, Note_on_c, 3, 72, 66
5, 105984, Note_on_c, 3, 69, 66
5, 105984, Note_on_c, 3, 65, 66
5, 106172, Note_on_c, 3, 65, 0
5, 106172, Note_on_c, 3, 89, 0
5, 106172, Note_on_c, 3, 72, 0
5, 106172, Note_on_c, 3, 69, 0
5, 109440, Note_on_c, 3, 72, 89
5, 109440, Note_on_c, 3, 69, 89
5, 109440, Note_on_c, 3, 65, 89
5, 109504, Note_on_c, 3, 77, 89
5, 109564, Note_on_c, 3, 77, 0
5, 109568, Note_on_c, 3, 89, 89
5, 109628, Note_on_c, 3, 89, 0
5, 109628, Note_on_c, 3, 65, 0
5, 109628, Note_on_c, 3, 69, 0
5, 109628, Note_on_c, 3, 72, 0
5, 109632, Note_on_c, 3, 70, 89
5, 109632, Note_on_c, 3, 67, 89
5, 109696, Note_on_c, 3, 76, 89
5, 109756, Note_on_c, 3, 76, 0
5, 109760, Note_on_c, 3, 88, 89
5, 109820, Note_on_c, 3, 88, 0
5, 109820, Note_on_c, 3, 67, 0
5, 109820, Note_on_c, 3, 70, 0
5, 109824, Note_on_c, 3, 69, 89
5, 109824, Note_on_c, 3, 65, 89
5, 109888, Note_on_c, 3, 74, 89
5, 109948, Note_on_c, 3, 74, 0
5, 109952, Note_on_c, 3, 86, 89
5, 110012, Note_on_c, 3, 86, 0
5, 110012, Note_on_c, 3, 65, 0
5, 110012, Note_on_c, 3, 69, 0
5, 110016, Note_on_c, 3, 67, 89
5, 110016, Note_on_c, 3, 64, 89
5, 110080, Note_on_c, 3, 72, 89
5, 110140, Note_on_c, 3, 72, 0
5, 110144, Note_on_c, 3, 84, 89
5, 110204, Note_on_c, 3, 84, 0
5, 110204, Note_on_c, 3, 64, 0
5, 110204, Note_on_c, 3, 67, 0
5, 110208, Note_on_c, 3, 65, 89
5, 110208, Note_on_c, 3, 62, 89
5, 110272, Note_on_c, 3, 70, 89
5, 110332, Note_on_c, 3, 70, 0
5, 110336, Note_on_c, 3, 82, 89
5, 110396, Note_on_c, 3, 82, 0
5, 110396, Note_on_c, 3, 62, 0
5, 110396, Note_on_c, 3, 65, 0
5, 110400, Note_on_c, 3, 64, 89
5, 110400, Note_on_c, 3, 60, 89
5, 110464, Note_on_c, 3, 69, 89
5, 110524, Note_on_c, 3, 69, 0
5, 110528, Note_on_c, 3, 81, 89
5, 110588, Note_on_c, 3, 81, 0
5, 110588, Note_on_c, 3, 60, 0
5, 110588, Note_on_c, 3, 64, 0
5, 110592, Note_on_c, 3, 67, 89
5, 110592, Note_on_c, 3, 62, 89
5, 110592, Note_on_c, 3, 58, 89
5, 110684, Note_on_c, 3, 67, 0
5, 110688, Note_on_c, 3, 69, 89
5, 110732, Note_on_c, 3, 69, 0
5, 110736, Note_on_c, 3, 70, 89
5, 110780, Note_on_c, 3, 70, 0
5, 110784, Note_on_c, 3, 72, 89
5, 110828, Note_on_c, 3, 72, 0
5, 110832, Note_on_c, 3, 74, 89
5, 110876, Note_on_c, 3, 74, 0
5, 110880, Note_on_c, 3, 76, 89
5, 110924, Note_on_c, 3, 76, 0
5, 110928, Note_on_c, 3, 77, 89
5, 110972, Note_on_c, 3, 77, 0
5, 110972, Note_on_c, 3, 58, 0
5, 110972, Note_on_c, 3, 62, 0
5, 110976, Note_on_c, 3, 79, 89
5, 110976, Note_on_c, 3, 62, 89
5, 110976, Note_on_c, 3, 58, 89
5, 111020, Note_on_c, 3, 79, 0
5, 111024, Note_on_c, 3, 74, 89
5, 111068, Note_on_c, 3, 74, 0
5, 111072, Note_on_c, 3, 76, 89
5, 111116, Note_on_c, 3, 76, 0
5, 111120, Note_on_c, 3, 77, 89
5, 111164, Note_on_c, 3, 77, 0
5, 111168, Note_on_c, 3, 79, 89
5, 111212, Note_on_c, 3, 79, 0
5, 111216, Note_on_c, 3, 81, 89
5, 111260, Note_on_c, 3, 81, 0
5, 111264, Note_on_c, 3, 82, 89
5, 111308, Note_on_c, 3, 82, 0
5, 111312, Note_on_c, 3, 84, 89
5, 111356, Note_on_c, 3, 84, 0
5, 111356, Note_on_c, 3, 58, 0
5, 111356, Note_on_c, 3, 62, 0
5, 111360, Note_on_c, 3, 86, 89
5, 111360, Note_on_c, 3, 62, 89
5, 111360, Note_on_c, 3, 58, 89
5, 111420, Note_on_c, 3, 86, 0
5, 111424, Note_on_c, 3, 82, 89
5, 111484, Note_on_c, 3, 82, 0
5, 111488, Note_on_c, 3, 79, 89
5, 111548, Note_on_c, 3, 79, 0
5, 111548, Note_on_c, 3, 58, 0
5, 111548, Note_on_c, 3, 62, 0
5, 111552, Note_on_c, 3, 86, 89
5, 111552, Note_on_c, 3, 64, 89
5, 111552, Note_on_c, 3, 58, 89
5, 111612, Note_on_c, 3, 86, 0
5, 111616, Note_on_c, 3, 82, 89
5, 111676, Note_on_c, 3, 82, 0
5, 111680, Note_on_c, 3, 79, 89
5, 111740, Note_on_c, 3, 79, 0
5, 111740, Note_on_c, 3, 58, 0
5, 111740, Note_on_c, 3, 64, 0
5, 111744, Note_on_c, 3, 65, 81
5, 111744, Note_on_c, 3, 57, 81
5, 111744, Note_on_c, 3, 84, 81
5, 111768, Note_on_c, 3, 84, 0
5, 111768, Note_on_c, 3, 86, 81
5, 111792, Note_on_c, 3, 86, 0
5, 111792, Note_on_c, 3, 84, 81
5, 111816, Note_on_c, 3, 84, 0
5, 111816, Note_on_c, 3, 86, 81
5, 111840, Note_on_c, 3, 86, 0
5, 111840, Note_on_c, 3, 84, 81
5, 111864, Note_on_c, 3, 84, 0
5, 111864, Note_on_c, 3, 86, 81
5, 111888, Note_on_c, 3, 86, 0
5, 111888, Note_on_c, 3, 84, 81
5, 111912, Note_on_c, 3, 84, 0
5, 111912, Note_on_c, 3, 86, 81
5, 111932, Note_on_c, 3, 57, 0
5, 111932, Note_on_c, 3, 65, 0
5, 111936, Note_on_c, 3, 86, 0
5, 111936, Note_on_c, 3, 84, 81
5, 111936, Note_on_c, 3, 65, 81
5, 111936, Note_on_c, 3, 57, 81
5, 111960, Note_on_c, 3, 84, 0
5, 111960, Note_on_c, 3, 86, 81
5, 111984, Note_on_c, 3, 86, 0
5, 111984, Note_on_c, 3, 84, 81
5, 112008, Note_on_c, 3, 84, 0
5, 112008, Note_on_c, 3, 86, 81
5, 112032, Note_on_c, 3, 86, 0
5, 112032, Note_on_c, 3, 82, 81
5, 112076, Note_on_c, 3, 82, 0
5, 112080, Note_on_c, 3, 84, 81
5, 112124, Note_on_c, 3, 84, 0
5, 112124, Note_on_c, 3, 57, 0
5, 112124, Note_on_c, 3, 65, 0
5, 112128, Note_on_c, 3, 86, 81
5, 112128, Note_on_c, 3, 65, 81
5, 112128, Note_on_c, 3, 58, 81
5, 112220, Note_on_c, 3, 86, 0
5, 112224, Note_on_c, 3, 84, 81
5, 112316, Note_on_c, 3, 84, 0
5, 112316, Note_on_c, 3, 58, 0
5, 112316, Note_on_c, 3, 65, 0
5, 112320, Note_on_c, 3, 65, 81
5, 112320, Note_on_c, 3, 58, 81
5, 112320, Note_on_c, 3, 82, 81
5, 112344, Note_on_c, 3, 82, 0
5, 112344, Note_on_c, 3, 84, 81
5, 112368, Note_on_c, 3, 84, 0
5, 112368, Note_on_c, 3, 82, 81
5, 112392, Note_on_c, 3, 82, 0
5, 112392, Note_on_c, 3, 84, 81
5, 112416, Note_on_c, 3, 84, 0
5, 112416, Note_on_c, 3, 81, 81
5, 112508, Note_on_c, 3, 81, 0
5, 112508, Note_on_c, 3, 58, 0
5, 112508, Note_on_c, 3, 65, 0
5, 112512, Note_on_c, 3, 62, 81
5, 112512, Note_on_c, 3, 58, 81
5, 112512, Note_on_c, 3, 79, 81
5, 112536, Note_on_c, 3, 79, 0
5, 112536, Note_on_c, 3, 81, 81
5, 112560, Note_on_c, 3, 81, 0
5, 112560, Note_on_c, 3, 79, 81
5, 112584, Note_on_c, 3, 79, 0
5, 112584, Note_on_c, 3, 81, 81
5, 112608, Note_on_c, 3, 81, 0
5, 112608, Note_on_c, 3, 77, 81
5, 112700, Note_on_c, 3, 77, 0
5, 112700, Note_on_c, 3, 58, 0
5, 112700, Note_on_c, 3, 62, 0
5, 112704, Note_on_c, 3, 62, 81
5, 112704, Note_on_c, 3, 58, 81
5, 112704, Note_on_c, 3, 76, 81
5, 112728, Note_on_c, 3, 76, 0
5, 112728, Note_on_c, 3, 77, 81
5, 112752, Note_on_c, 3, 77, 0
5, 112752, Note_on_c, 3, 76, 81
5, 112776, Note_on_c, 3, 76, 0
5, 112776, Note_on_c, 3, 77, 81
5, 112800, Note_on_c, 3, 77, 0
5, 112800, Note_on_c, 3, 74, 81
5, 112892, Note_on_c, 3, 74, 0
5, 112892, Note_on_c, 3, 58, 0
5, 112892, Note_on_c, 3, 62, 0
5, 112896, Note_on_c, 3, 72, 88
5, 113084, Note_on_c, 3, 72, 0
5, 113088, Note_on_c, 3, 89, 94
5, 113276, Note_on_c, 3, 89, 0
5, 113280, Note_on_c, 3, 84, 92
5, 113468, Note_on_c, 3, 84, 0
5, 113472, Note_on_c, 3, 81, 90
5, 113660, Note_on_c, 3, 81, 0
5, 113664, Note_on_c, 3, 77, 89
5, 113852, Note_on_c, 3, 77, 0
5, 113856, Note_on_c, 3, 72, 89
5, 114044, Note_on_c, 3, 72, 0
5, 119808, Note_on_c, 3, 77, 66
5, 119808, Note_on_c, 3, 69, 66
5, 119996, Note_on_c, 3, 69, 0
5, 119996, Note_on_c, 3, 77, 0
5, 120192, Note_on_c, 3, 69, 66
5, 120192, Note_on_c, 3, 60, 66
5, 120380, Note_on_c, 3, 60, 0
5, 120380, Note_on_c, 3, 69, 0
5, 120576, Note_on_c, 3, 69, 66
5, 120576, Note_on_c, 3, 60, 66
5, 120764, Note_on_c, 3, 60, 0
5, 120764, Note_on_c, 3, 69, 0
5, 120960, Note_on_c, 3, 67, 99
5, 120960, Note_on_c, 3, 60, 99
5, 120960, Note_on_c, 3, 58, 99
5, 121148, Note_on_c, 3, 58, 0
5, 121148, Note_on_c, 3, 60, 0
5, 121148, Note_on_c, 3, 67, 0
5, 121152, Note_on_c, 3, 60, 99
5, 121196, Note_on_c, 3, 60, 0
5, 121200, Note_on_c, 3, 64, 99
5, 121244, Note_on_c, 3, 64, 0
5, 121248, Note_on_c, 3, 67, 99
5, 121292, Note_on_c, 3, 67, 0
5, 121296, Note_on_c, 3, 70, 99
5, 121340, Note_on_c, 3, 70, 0
5, 121536, Note_on_c, 3, 67, 99
5, 121580, Note_on_c, 3, 67, 0
5, 121584, Note_on_c, 3, 70, 99
5, 121628, Note_on_c, 3, 70, 0
5, 121632, Note_on_c, 3, 72, 99
5, 121676, Note_on_c, 3, 72, 0
5, 121680, Note_on_c, 3, 76, 99
5, 121724, Note_on_c, 3, 76, 0
5, 121728, Note_on_c, 3, 77, 99
5, 121728, Note_on_c, 3, 69, 99
5, 122012, Note_on_c, 3, 69, 0
5, 122012, Note_on_c, 3, 77, 0
5, 124416, Note_on_c, 3, 69, 99
5, 124416, Note_on_c, 3, 65, 99
5, 124988, Note_on_c, 3, 69, 0
5, 124992, Note_on_c, 3, 70, 99
5, 125084, Note_on_c, 3, 70, 0
5, 125088, Note_on_c, 3, 72, 99
5, 125180, Note_on_c, 3, 72, 0
5, 125184, Note_on_c, 3, 76, 99
5, 125276, Note_on_c, 3, 76, 0
5, 125280, Note_on_c, 3, 74, 99
5, 125372, Note_on_c, 3, 74, 0
5, 125376, Note_on_c, 3, 72, 99
5, 125468, Note_on_c, 3, 72, 0
5, 125472, Note_on_c, 3, 70, 99
5, 125564, Note_on_c, 3, 70, 0
5, 125564, Note_on_c, 3, 65, 0
5, 125568, Note_on_c, 3, 69, 99
5, 125568, Note_on_c, 3, 65, 99
5, 125744, Note_on_c, 3, 67, 99
5, 125756, Note_on_c, 3, 69, 0
5, 125948, Note_on_c, 3, 65, 0
5, 125952, Note_on_c, 3, 64, 99
5, 126124, Note_on_c, 3, 67, 0
5, 126144, Note_on_c, 3, 69, 99
5, 126236, Note_on_c, 3, 69, 0
5, 126240, Note_on_c, 3, 70, 99
5, 126332, Note_on_c, 3, 70, 0
5, 126336, Note_on_c, 3, 74, 99
5, 126428, Note_on_c, 3, 74, 0
5, 126432, Note_on_c, 3, 72, 99
5, 126524, Note_on_c, 3, 72, 0
5, 126528, Note_on_c, 3, 70, 99
5, 126620, Note_on_c, 3, 70, 0
5, 126624, Note_on_c, 3, 69, 99
5, 126716, Note_on_c, 3, 69, 0
5, 126716, Note_on_c, 3, 64, 0
5, 126720, Note_on_c, 3, 67, 99
5, 126720, Note_on_c, 3, 64, 99
5, 126908, Note_on_c, 3, 67, 0
5, 126912, Note_on_c, 3, 65, 99
5, 127100, Note_on_c, 3, 64, 0
5, 127104, Note_on_c, 3, 62, 99
5, 127292, Note_on_c, 3, 62, 0
5, 127292, Note_on_c, 3, 65, 0
5, 127296, Note_on_c, 3, 67, 99
5, 127296, Note_on_c, 3, 64, 99
5, 127388, Note_on_c, 3, 64, 0
5, 127388, Note_on_c, 3, 67, 0
5, 127392, Note_on_c, 3, 69, 99
5, 127392, Note_on_c, 3, 65, 99
5, 127484, Note_on_c, 3, 65, 0
5, 127484, Note_on_c, 3, 69, 0
5, 127488, Note_on_c, 3, 70, 99
5, 127488, Note_on_c, 3, 67, 99
5, 127580, Note_on_c, 3, 67, 0
5, 127580, Note_on_c, 3, 70, 0
5, 127584, Note_on_c, 3, 72, 99
5, 127584, Note_on_c, 3, 69, 99
5, 127676, Note_on_c, 3, 69, 0
5, 127676, Note_on_c, 3, 72, 0
5, 127680, Note_on_c, 3, 74, 99
5, 127680, Note_on_c, 3, 70, 99
5, 127772, Note_on_c, 3, 70, 0
5, 127772, Note_on_c, 3, 74, 0
5, 127776, Note_on_c, 3, 70, 99
5, 127776, Note_on_c, 3, 67, 99
5, 127868, Note_on_c, 3, 67, 0
5, 127868, Note_on_c, 3, 70, 0
5, 127872, Note_on_c, 3, 69, 99
5, 127872, Note_on_c, 3, 65, 99
5, 128156, Note_on_c, 3, 69, 0
5, 128160, Note_on_c, 3, 67, 99
5, 128252, Note_on_c, 3, 67, 0
5, 128252, Note_on_c, 3, 65, 0
5, 128256, Note_on_c, 3, 64, 99
5, 128256, Note_on_c, 3, 67, 99
5, 128636, Note_on_c, 3, 64, 0
5, 128640, Note_on_c, 3, 63, 99
5, 128828, Note_on_c, 3, 67, 0
5, 128832, Note_on_c, 3, 69, 99
5, 129020, Note_on_c, 3, 69, 0
5, 129020, Note_on_c, 3, 63, 0
5, 129024, Note_on_c, 3, 70, 99
5, 129024, Note_on_c, 3, 67, 99
5, 129024, Note_on_c, 3, 65, 99
5, 129024, Note_on_c, 3, 62, 99
5, 129308, Note_on_c, 3, 70, 0
5, 129312, Note_on_c, 3, 72, 99
5, 129356, Note_on_c, 3, 72, 0
5, 129360, Note_on_c, 3, 74, 99
5, 129404, Note_on_c, 3, 74, 0
5, 129404, Note_on_c, 3, 67, 0
5, 129404, Note_on_c, 3, 65, 0
5, 129404, Note_on_c, 3, 62, 0
5, 129408, Note_on_c, 3, 65, 99
5, 129788, Note_on_c, 3, 65, 0
5, 129792, Note_on_c, 3, 64, 99
5, 129792, Note_on_c, 3, 69, 99
5, 129792, Note_on_c, 3, 60, 99
5, 129980, Note_on_c, 3, 60, 0
5, 129980, Note_on_c, 3, 69, 0
5, 129984, Note_on_c, 3, 67, 99
5, 129984, Note_on_c, 3, 58, 99
5, 130172, Note_on_c, 3, 58, 0
5, 130172, Note_on_c, 3, 67, 0
5, 130172, Note_on_c, 3, 64, 0
5, 130176, Note_on_c, 3, 57, 89
5, 130176, Note_on_c, 3, 65, 89
5, 130364, Note_on_c, 3, 65, 0
5, 130364, Note_on_c, 3, 57, 0
5, 131472, Note_on_c, 3, 62, 89
5, 131516, Note_on_c, 3, 62, 0
5, 131520, Note_on_c, 3, 65, 89
5, 131564, Note_on_c, 3, 65, 0
5, 131568, Note_on_c, 3, 70, 89
5, 131612, Note_on_c, 3, 70, 0
5, 131616, Note_on_c, 3, 65, 89
5, 131660, Note_on_c, 3, 65, 0
5, 131664, Note_on_c, 3, 62, 89
5, 131708, Note_on_c, 3, 62, 0
5, 131904, Note_on_c, 3, 65, 89
5, 131948, Note_on_c, 3, 65, 0
5, 131952, Note_on_c, 3, 69, 89
5, 131996, Note_on_c, 3, 69, 0
5, 132000, Note_on_c, 3, 65, 89
5, 132044, Note_on_c, 3, 65, 0
5, 132048, Note_on_c, 3, 60, 89
5, 132092, Note_on_c, 3, 60, 0
5, 132288, Note_on_c, 3, 64, 89
5, 132332, Note_on_c, 3, 64, 0
5, 132336, Note_on_c, 3, 67, 89
5, 132380, Note_on_c, 3, 67, 0
5, 132384, Note_on_c, 3, 64, 89
5, 132428, Note_on_c, 3, 64, 0
5, 132432, Note_on_c, 3, 60, 89
5, 132476, Note_on_c, 3, 60, 0
5, 132480, Note_on_c, 3, 65, 66
5, 132576, Note_on_c, 3, 72, 66
5, 132620, Note_on_c, 3, 65, 0
5, 132668, Note_on_c, 3, 72, 0
5, 132672, Note_on_c, 3, 69, 66
5, 132764, Note_on_c, 3, 69, 0
5, 132768, Note_on_c, 3, 72, 66
5, 132860, Note_on_c, 3, 72, 0
5, 132864, Note_on_c, 3, 65, 66
5, 132956, Note_on_c, 3, 65, 0
5, 132960, Note_on_c, 3, 72, 66
5, 133052, Note_on_c, 3, 72, 0
5, 133056, Note_on_c, 3, 69, 66
5, 133148, Note_on_c, 3, 69, 0
5, 133152, Note_on_c, 3, 72, 66
5, 133244, Note_on_c, 3, 72, 0
5, 133248, Note_on_c, 3, 67, 66
5, 133340, Note_on_c, 3, 67, 0
5, 133344, Note_on_c, 3, 72, 66
5, 133436, Note_on_c, 3, 72, 0
5, 133440, Note_on_c, 3, 70, 66
5, 133532, Note_on_c, 3, 70, 0
5, 133536, Note_on_c, 3, 72, 66
5, 133628, Note_on_c, 3, 72, 0
5, 133632, Note_on_c, 3, 65, 72
5, 133724, Note_on_c, 3, 65, 0
5, 133728, Note_on_c, 3, 72, 72
5, 133820, Note_on_c, 3, 72, 0
5, 133824, Note_on_c, 3, 84, 72
5, 133824, Note_on_c, 3, 69, 72
5, 133916, Note_on_c, 3, 69, 0
5, 133920, Note_on_c, 3, 72, 72
5, 134012, Note_on_c, 3, 72, 0
5, 134012, Note_on_c, 3, 84, 0
5, 134016, Note_on_c, 3, 84, 72
5, 134016, Note_on_c, 3, 65, 72
5, 134048, Note_on_c, 3, 84, 0
5, 134048, Note_on_c, 3, 86, 72
5, 134080, Note_on_c, 3, 86, 0
5, 134080, Note_on_c, 3, 84, 72
5, 134108, Note_on_c, 3, 65, 0
5, 134112, Note_on_c, 3, 84, 0
5, 134112, Note_on_c, 3, 86, 72
5, 134112, Note_on_c, 3, 72, 72
5, 134144, Note_on_c, 3, 86, 0
5, 134144, Note_on_c, 3, 84, 72
5, 134176, Note_on_c, 3, 84, 0
5, 134176, Note_on_c, 3, 86, 72
5, 134204, Note_on_c, 3, 72, 0
5, 134208, Note_on_c, 3, 86, 0
5, 134208, Note_on_c, 3, 84, 72
5, 134208, Note_on_c, 3, 69, 72
5, 134240, Note_on_c, 3, 84, 0
5, 134240, Note_on_c, 3, 86, 72
5, 134272, Note_on_c, 3, 86, 0
5, 134272, Note_on_c, 3, 84, 72
5, 134300, Note_on_c, 3, 69, 0
5, 134304, Note_on_c, 3, 84, 0
5, 134304, Note_on_c, 3, 82, 72
5, 134304, Note_on_c, 3, 72, 72
5, 134348, Note_on_c, 3, 82, 0
5, 134352, Note_on_c, 3, 84, 72
5, 134396, Note_on_c, 3, 84, 0
5, 134396, Note_on_c, 3, 72, 0
5, 134400, Note_on_c, 3, 88, 72
5, 134400, Note_on_c, 3, 67, 72
5, 134432, Note_on_c, 3, 88, 0
5, 134432, Note_on_c, 3, 89, 72
5, 134464, Note_on_c, 3, 89, 0
5, 134464, Note_on_c, 3, 88, 72
5, 134492, Note_on_c, 3, 67, 0
5, 134496, Note_on_c, 3, 88, 0
5, 134496, Note_on_c, 3, 89, 72
5, 134496, Note_on_c, 3, 72, 72
5, 134528, Note_on_c, 3, 89, 0
5, 134528, Note_on_c, 3, 88, 72
5, 134560, Note_on_c, 3, 88, 0
5, 134560, Note_on_c, 3, 89, 72
5, 134588, Note_on_c, 3, 72, 0
5, 134592, Note_on_c, 3, 89, 0
5, 134592, Note_on_c, 3, 88, 72
5, 134592, Note_on_c, 3, 70, 72
5, 134624, Note_on_c, 3, 88, 0
5, 134624, Note_on_c, 3, 89, 72
5, 134656, Note_on_c, 3, 89, 0
5, 134656, Note_on_c, 3, 88, 72
5, 134684, Note_on_c, 3, 70, 0
5, 134688, Note_on_c, 3, 88, 0
5, 134688, Note_on_c, 3, 86, 72
5, 134688, Note_on_c, 3, 72, 72
5, 134732, Note_on_c, 3, 86, 0
5, 134736, Note_on_c, 3, 88, 72
5, 134780, Note_on_c, 3, 88, 0
5, 134780, Note_on_c, 3, 72, 0
5, 134784, Note_on_c, 3, 89, 60
5, 134784, Note_on_c, 3, 65, 60
5, 134784, Note_on_c, 3, 69, 60
5, 134784, Note_on_c, 3, 72, 60
5, 134972, Note_on_c, 3, 72, 0
5, 134972, Note_on_c, 3, 89, 0
5, 134972, Note_on_c, 3, 65, 0
5, 134972, Note_on_c, 3, 69, 0
5, 135168, Note_on_c, 3, 60, 60
5, 135180, Note_on_c, 3, 65, 60
5, 135196, Note_on_c, 3, 69, 60
5, 135212, Note_on_c, 3, 72, 60
5, 135356, Note_on_c, 3, 60, 0
5, 135368, Note_on_c, 3, 65, 0
5, 135384, Note_on_c, 3, 69, 0
5, 135400, Note_on_c, 3, 72, 0
5, 135552, Note_on_c, 3, 60, 60
5, 135564, Note_on_c, 3, 65, 60
5, 135580, Note_on_c, 3, 69, 60
5, 135596, Note_on_c, 3, 72, 60
5, 135740, Note_on_c, 3, 60, 0
5, 135752, Note_on_c, 3, 65, 0
5, 135768, Note_on_c, 3, 69, 0
5, 135784, Note_on_c, 3, 72, 0
5, 135936, Note_on_c, 3, 60, 60
5, 135948, Note_on_c, 3, 65, 60
5, 135964, Note_on_c, 3, 69, 60
5, 135980, Note_on_c, 3, 72, 60
5, 136312, Note_on_c, 3, 72, 0
5, 136312, Note_on_c, 3, 69, 0
5, 136312, Note_on_c, 3, 65, 0
5, 136316, Note_on_c, 3, 60, 0
5, 136316, End_track
6, 0, Start_track
6, 0, MIDI_port, 0
6, 0, Title_t, "K299 b - Andantino"
6, 0, Control_c, 4, 0, 0
6, 0, Control_c, 4, 32, 0
6, 0, Program_c, 4, 46
6, 0, Control_c, 4, 7, 113
6, 0, Control_c, 4, 10, 63
6, 0, Control_c, 4, 91, 70
6, 0, Control_c, 4, 93, 49
6, 0, Control_c, 4, 121, 0
6, 96, Control_c, 4, 10, 63
6, 192, Control_c, 4, 91, 63
6, 240, Control_c, 4, 93, 40
6, 288, Program_c, 4, 46
6, 14976, Note_on_c, 4, 41, 66
6, 15020, Note_on_c, 4, 41, 0
6, 15024, Note_on_c, 4, 53, 66
6, 15212, Note_on_c, 4, 53, 0
6, 15360, Note_on_c, 4, 41, 66
6, 15404, Note_on_c, 4, 41, 0
6, 15408, Note_on_c, 4, 53, 66
6, 15596, Note_on_c, 4, 53, 0
6, 15744, Note_on_c, 4, 41, 66
6, 15788, Note_on_c, 4, 41, 0
6, 15792, Note_on_c, 4, 53, 66
6, 15980, Note_on_c, 4, 53, 0
6, 16128, Note_on_c, 4, 36, 85
6, 16172, Note_on_c, 4, 36, 0
6, 16176, Note_on_c, 4, 40, 85
6, 16220, Note_on_c, 4, 40, 0
6, 16224, Note_on_c, 4, 43, 85
6, 16268, Note_on_c, 4, 43, 0
6, 16272, Note_on_c, 4, 46, 85
6, 16316, Note_on_c, 4, 46, 0
6, 16320, Note_on_c, 4, 48, 85
6, 16832, Note_on_c, 4, 48, 0
6, 16896, Note_on_c, 4, 41, 85
6, 17084, Note_on_c, 4, 41, 0
6, 18432, Note_on_c, 4, 62, 66
6, 18432, Note_on_c, 4, 53, 66
6, 18620, Note_on_c, 4, 53, 0
6, 18620, Note_on_c, 4, 62, 0
6, 18816, Note_on_c, 4, 58, 66
6, 18816, Note_on_c, 4, 53, 66
6, 19004, Note_on_c, 4, 53, 0
6, 19004, Note_on_c, 4, 58, 0
6, 19200, Note_on_c, 4, 57, 66
6, 19200, Note_on_c, 4, 53, 66
6, 19388, Note_on_c, 4, 53, 0
6, 19388, Note_on_c, 4, 57, 0
6, 19584, Note_on_c, 4, 41, 99
6, 19628, Note_on_c, 4, 41, 0
6, 19632, Note_on_c, 4, 53, 99
6, 19676, Note_on_c, 4, 53, 0
6, 19968, Note_on_c, 4, 38, 99
6, 20012, Note_on_c, 4, 38, 0
6, 20016, Note_on_c, 4, 50, 99
6, 20060, Note_on_c, 4, 50, 0
6, 20352, Note_on_c, 4, 46, 99
6, 20396, Note_on_c, 4, 46, 0
6, 20400, Note_on_c, 4, 58, 99
6, 20444, Note_on_c, 4, 58, 0
6, 20736, Note_on_c, 4, 36, 99
6, 20780, Note_on_c, 4, 36, 0
6, 20784, Note_on_c, 4, 48, 99
6, 20828, Note_on_c, 4, 48, 0
6, 21120, Note_on_c, 4, 48, 99
6, 21164, Note_on_c, 4, 48, 0
6, 21168, Note_on_c, 4, 60, 99
6, 21212, Note_on_c, 4, 60, 0
6, 21504, Note_on_c, 4, 45, 99
6, 21548, Note_on_c, 4, 45, 0
6, 21552, Note_on_c, 4, 57, 99
6, 21596, Note_on_c, 4, 57, 0
6, 21888, Note_on_c, 4, 46, 99
6, 21932, Note_on_c, 4, 46, 0
6, 21936, Note_on_c, 4, 58, 99
6, 21980, Note_on_c, 4, 58, 0
6, 22272, Note_on_c, 4, 46, 99
6, 22316, Note_on_c, 4, 46, 0
6, 22320, Note_on_c, 4, 58, 99
6, 22364, Note_on_c, 4, 58, 0
6, 22656, Note_on_c, 4, 43, 99
6, 22700, Note_on_c, 4, 43, 0
6, 22704, Note_on_c, 4, 55, 99
6, 22748, Note_on_c, 4, 55, 0
6, 23040, Note_on_c, 4, 36, 56
6, 23084, Note_on_c, 4, 36, 0
6, 23088, Note_on_c, 4, 48, 56
6, 23132, Note_on_c, 4, 48, 0
6, 23616, Note_on_c, 4, 60, 56
6, 23804, Note_on_c, 4, 60, 0
6, 23808, Note_on_c, 4, 55, 56
6, 23996, Note_on_c, 4, 55, 0
6, 24000, Note_on_c, 4, 52, 56
6, 24188, Note_on_c, 4, 52, 0
6, 28800, Note_on_c, 4, 60, 56
6, 28800, Note_on_c, 4, 48, 56
6, 28892, Note_on_c, 4, 48, 0
6, 28892, Note_on_c, 4, 60, 0
6, 28896, Note_on_c, 4, 67, 56
6, 28988, Note_on_c, 4, 67, 0
6, 28992, Note_on_c, 4, 64, 56
6, 29084, Note_on_c, 4, 64, 0
6, 29088, Note_on_c, 4, 67, 56
6, 29180, Note_on_c, 4, 67, 0
6, 33408, Note_on_c, 4, 57, 56
6, 33500, Note_on_c, 4, 57, 0
6, 33504, Note_on_c, 4, 62, 56
6, 33596, Note_on_c, 4, 62, 0
6, 33600, Note_on_c, 4, 60, 56
6, 33692, Note_on_c, 4, 60, 0
6, 33696, Note_on_c, 4, 62, 56
6, 33788, Note_on_c, 4, 62, 0
6, 33792, Note_on_c, 4, 57, 56
6, 33884, Note_on_c, 4, 57, 0
6, 33888, Note_on_c, 4, 62, 56
6, 33980, Note_on_c, 4, 62, 0
6, 33984, Note_on_c, 4, 60, 56
6, 34076, Note_on_c, 4, 60, 0
6, 34080, Note_on_c, 4, 62, 56
6, 34172, Note_on_c, 4, 62, 0
6, 34176, Note_on_c, 4, 57, 56
6, 34268, Note_on_c, 4, 57, 0
6, 34272, Note_on_c, 4, 62, 56
6, 34364, Note_on_c, 4, 62, 0
6, 34368, Note_on_c, 4, 60, 56
6, 34460, Note_on_c, 4, 60, 0
6, 34464, Note_on_c, 4, 62, 56
6, 34556, Note_on_c, 4, 62, 0
6, 34560, Note_on_c, 4, 55, 56
6, 34652, Note_on_c, 4, 55, 0
6, 34656, Note_on_c, 4, 62, 56
6, 34748, Note_on_c, 4, 62, 0
6, 34752, Note_on_c, 4, 59, 56
6, 34844, Note_on_c, 4, 59, 0
6, 34848, Note_on_c, 4, 62, 56
6, 34940, Note_on_c, 4, 62, 0
6, 34944, Note_on_c, 4, 55, 56
6, 35036, Note_on_c, 4, 55, 0
6, 35040, Note_on_c, 4, 62, 56
6, 35132, Note_on_c, 4, 62, 0
6, 35136, Note_on_c, 4, 59, 56
6, 35228, Note_on_c, 4, 59, 0
6, 35232, Note_on_c, 4, 62, 56
6, 35324, Note_on_c, 4, 62, 0
6, 35328, Note_on_c, 4, 57, 56
6, 35420, Note_on_c, 4, 57, 0
6, 35424, Note_on_c, 4, 62, 56
6, 35516, Note_on_c, 4, 62, 0
6, 35520, Note_on_c, 4, 60, 56
6, 35612, Note_on_c, 4, 60, 0
6, 35616, Note_on_c, 4, 62, 56
6, 35708, Note_on_c, 4, 62, 0
6, 35712, Note_on_c, 4, 55, 56
6, 35804, Note_on_c, 4, 55, 0
6, 35808, Note_on_c, 4, 62, 56
6, 35900, Note_on_c, 4, 62, 0
6, 35904, Note_on_c, 4, 59, 56
6, 35996, Note_on_c, 4, 59, 0
6, 36000, Note_on_c, 4, 62, 56
6, 36092, Note_on_c, 4, 62, 0
6, 36096, Note_on_c, 4, 55, 56
6, 36284, Note_on_c, 4, 55, 0
6, 36288, Note_on_c, 4, 53, 56
6, 36476, Note_on_c, 4, 53, 0
6, 41472, Note_on_c, 4, 36, 70
6, 41512, Note_on_c, 4, 36, 0
6, 41520, Note_on_c, 4, 48, 66
6, 41844, Note_on_c, 4, 48, 0
6, 42624, Note_on_c, 4, 36, 70
6, 42664, Note_on_c, 4, 36, 0
6, 42672, Note_on_c, 4, 48, 66
6, 43764, Note_on_c, 4, 48, 0
6, 43776, Note_on_c, 4, 53, 66
6, 43964, Note_on_c, 4, 53, 0
6, 44160, Note_on_c, 4, 55, 66
6, 44348, Note_on_c, 4, 55, 0
6, 44544, Note_on_c, 4, 55, 66
6, 44732, Note_on_c, 4, 55, 0
6, 61056, Note_on_c, 4, 48, 66
6, 61116, Note_on_c, 4, 48, 0
6, 61120, Note_on_c, 4, 52, 66
6, 61180, Note_on_c, 4, 52, 0
6, 61184, Note_on_c, 4, 55, 66
6, 61244, Note_on_c, 4, 55, 0
6, 61248, Note_on_c, 4, 60, 66
6, 61308, Note_on_c, 4, 60, 0
6, 61312, Note_on_c, 4, 52, 66
6, 61372, Note_on_c, 4, 52, 0
6, 61376, Note_on_c, 4, 55, 66
6, 61436, Note_on_c, 4, 55, 0
6, 61440, Note_on_c, 4, 48, 66
6, 61500, Note_on_c, 4, 48, 0
6, 61504, Note_on_c, 4, 52, 66
6, 61564, Note_on_c, 4, 52, 0
6, 61568, Note_on_c, 4, 55, 66
6, 61628, Note_on_c, 4, 55, 0
6, 61632, Note_on_c, 4, 60, 66
6, 61692, Note_on_c, 4, 60, 0
6, 61696, Note_on_c, 4, 52, 66
6, 61756, Note_on_c, 4, 52, 0
6, 61760, Note_on_c, 4, 55, 66
6, 61820, Note_on_c, 4, 55, 0
6, 61824, Note_on_c, 4, 48, 66
6, 61884, Note_on_c, 4, 48, 0
6, 61888, Note_on_c, 4, 52, 66
6, 61948, Note_on_c, 4, 52, 0
6, 61952, Note_on_c, 4, 55, 66
6, 62012, Note_on_c, 4, 55, 0
6, 62016, Note_on_c, 4, 60, 66
6, 62076, Note_on_c, 4, 60, 0
6, 62080, Note_on_c, 4, 52, 66
6, 62140, Note_on_c, 4, 52, 0
6, 62144, Note_on_c, 4, 55, 66
6, 62204, Note_on_c, 4, 55, 0
6, 62208, Note_on_c, 4, 48, 66
6, 62268, Note_on_c, 4, 48, 0
6, 62272, Note_on_c, 4, 53, 66
6, 62332, Note_on_c, 4, 53, 0
6, 62336, Note_on_c, 4, 55, 66
6, 62396, Note_on_c, 4, 55, 0
6, 62400, Note_on_c, 4, 59, 66
6, 62460, Note_on_c, 4, 59, 0
6, 62464, Note_on_c, 4, 53, 66
6, 62524, Note_on_c, 4, 53, 0
6, 62528, Note_on_c, 4, 55, 66
6, 62588, Note_on_c, 4, 55, 0
6, 62592, Note_on_c, 4, 48, 66
6, 62652, Note_on_c, 4, 48, 0
6, 62656, Note_on_c, 4, 53, 66
6, 62716, Note_on_c, 4, 53, 0
6, 62720, Note_on_c, 4, 55, 66
6, 62780, Note_on_c, 4, 55, 0
6, 62784, Note_on_c, 4, 59, 66
6, 62844, Note_on_c, 4, 59, 0
6, 62848, Note_on_c, 4, 53, 66
6, 62908, Note_on_c, 4, 53, 0
6, 62912, Note_on_c, 4, 55, 66
6, 62972, Note_on_c, 4, 55, 0
6, 62976, Note_on_c, 4, 48, 66
6, 63036, Note_on_c, 4, 48, 0
6, 63040, Note_on_c, 4, 53, 66
6, 63100, Note_on_c, 4, 53, 0
6, 63104, Note_on_c, 4, 55, 66
6, 63164, Note_on_c, 4, 55, 0
6, 63168, Note_on_c, 4, 59, 66
6, 63228, Note_on_c, 4, 59, 0
6, 63232, Note_on_c, 4, 53, 66
6, 63292, Note_on_c, 4, 53, 0
6, 63296, Note_on_c, 4, 55, 66
6, 63356, Note_on_c, 4, 55, 0
6, 63360, Note_on_c, 4, 48, 66
6, 63420, Note_on_c, 4, 48, 0
6, 63424, Note_on_c, 4, 52, 66
6, 63484, Note_on_c, 4, 52, 0
6, 63488, Note_on_c, 4, 55, 66
6, 63548, Note_on_c, 4, 55, 0
6, 63552, Note_on_c, 4, 58, 66
6, 63612, Note_on_c, 4, 58, 0
6, 63616, Note_on_c, 4, 52, 66
6, 63676, Note_on_c, 4, 52, 0
6, 63680, Note_on_c, 4, 55, 66
6, 63740, Note_on_c, 4, 55, 0
6, 63744, Note_on_c, 4, 48, 66
6, 63804, Note_on_c, 4, 48, 0
6, 63808, Note_on_c, 4, 52, 66
6, 63868, Note_on_c, 4, 52, 0
6, 63872, Note_on_c, 4, 55, 66
6, 63932, Note_on_c, 4, 55, 0
6, 63936, Note_on_c, 4, 58, 66
6, 63996, Note_on_c, 4, 58, 0
6, 64000, Note_on_c, 4, 52, 66
6, 64060, Note_on_c, 4, 52, 0
6, 64064, Note_on_c, 4, 55, 66
6, 64124, Note_on_c, 4, 55, 0
6, 64128, Note_on_c, 4, 48, 66
6, 64188, Note_on_c, 4, 48, 0
6, 64192, Note_on_c, 4, 52, 66
6, 64252, Note_on_c, 4, 52, 0
6, 64256, Note_on_c, 4, 55, 66
6, 64316, Note_on_c, 4, 55, 0
6, 64320, Note_on_c, 4, 58, 66
6, 64380, Note_on_c, 4, 58, 0
6, 64384, Note_on_c, 4, 52, 66
6, 64444, Note_on_c, 4, 52, 0
6, 64448, Note_on_c, 4, 55, 66
6, 64508, Note_on_c, 4, 55, 0
6, 64512, Note_on_c, 4, 48, 66
6, 64572, Note_on_c, 4, 48, 0
6, 64576, Note_on_c, 4, 53, 66
6, 64636, Note_on_c, 4, 53, 0
6, 64640, Note_on_c, 4, 57, 66
6, 64700, Note_on_c, 4, 57, 0
6, 64704, Note_on_c, 4, 60, 66
6, 64764, Note_on_c, 4, 60, 0
6, 64768, Note_on_c, 4, 53, 66
6, 64828, Note_on_c, 4, 53, 0
6, 64832, Note_on_c, 4, 57, 66
6, 64892, Note_on_c, 4, 57, 0
6, 64896, Note_on_c, 4, 48, 66
6, 64944, Note_on_c, 4, 53, 66
6, 64956, Note_on_c, 4, 48, 0
6, 65004, Note_on_c, 4, 53, 0
6, 65024, Note_on_c, 4, 57, 66
6, 65084, Note_on_c, 4, 57, 0
6, 65088, Note_on_c, 4, 60, 66
6, 65148, Note_on_c, 4, 60, 0
6, 65152, Note_on_c, 4, 53, 66
6, 65212, Note_on_c, 4, 53, 0
6, 65216, Note_on_c, 4, 57, 66
6, 65276, Note_on_c, 4, 57, 0
6, 65280, Note_on_c, 4, 48, 66
6, 65340, Note_on_c, 4, 48, 0
6, 65344, Note_on_c, 4, 53, 66
6, 65404, Note_on_c, 4, 53, 0
6, 65408, Note_on_c, 4, 57, 66
6, 65468, Note_on_c, 4, 57, 0
6, 65472, Note_on_c, 4, 60, 66
6, 65532, Note_on_c, 4, 60, 0
6, 65536, Note_on_c, 4, 53, 66
6, 65596, Note_on_c, 4, 53, 0
6, 65600, Note_on_c, 4, 57, 66
6, 65660, Note_on_c, 4, 57, 0
6, 65664, Note_on_c, 4, 48, 66
6, 65724, Note_on_c, 4, 48, 0
6, 65728, Note_on_c, 4, 52, 66
6, 65788, Note_on_c, 4, 52, 0
6, 65792, Note_on_c, 4, 55, 66
6, 65852, Note_on_c, 4, 55, 0
6, 65856, Note_on_c, 4, 60, 66
6, 65916, Note_on_c, 4, 60, 0
6, 65920, Note_on_c, 4, 52, 66
6, 65980, Note_on_c, 4, 52, 0
6, 65984, Note_on_c, 4, 55, 66
6, 66044, Note_on_c, 4, 55, 0
6, 66048, Note_on_c, 4, 48, 66
6, 66428, Note_on_c, 4, 48, 0
6, 66816, Note_on_c, 4, 41, 66
6, 66860, Note_on_c, 4, 41, 0
6, 66864, Note_on_c, 4, 53, 66
6, 67052, Note_on_c, 4, 53, 0
6, 67200, Note_on_c, 4, 41, 66
6, 67244, Note_on_c, 4, 41, 0
6, 67248, Note_on_c, 4, 53, 66
6, 67436, Note_on_c, 4, 53, 0
6, 67584, Note_on_c, 4, 41, 66
6, 67628, Note_on_c, 4, 41, 0
6, 67632, Note_on_c, 4, 53, 66
6, 67820, Note_on_c, 4, 53, 0
6, 67968, Note_on_c, 4, 36, 66
6, 68012, Note_on_c, 4, 36, 0
6, 68016, Note_on_c, 4, 40, 66
6, 68060, Note_on_c, 4, 40, 0
6, 68064, Note_on_c, 4, 43, 66
6, 68108, Note_on_c, 4, 43, 0
6, 68112, Note_on_c, 4, 46, 66
6, 68156, Note_on_c, 4, 46, 0
6, 68160, Note_on_c, 4, 48, 66
6, 68732, Note_on_c, 4, 48, 0
6, 68736, Note_on_c, 4, 41, 66
6, 69020, Note_on_c, 4, 41, 0
6, 71424, Note_on_c, 4, 41, 99
6, 71468, Note_on_c, 4, 41, 0
6, 71472, Note_on_c, 4, 53, 99
6, 71516, Note_on_c, 4, 53, 0
6, 71808, Note_on_c, 4, 38, 99
6, 71852, Note_on_c, 4, 38, 0
6, 71856, Note_on_c, 4, 50, 99
6, 71900, Note_on_c, 4, 50, 0
6, 72192, Note_on_c, 4, 46, 99
6, 72236, Note_on_c, 4, 46, 0
6, 72240, Note_on_c, 4, 58, 99
6, 72284, Note_on_c, 4, 58, 0
6, 72576, Note_on_c, 4, 36, 99
6, 72620, Note_on_c, 4, 36, 0
6, 72624, Note_on_c, 4, 48, 99
6, 72668, Note_on_c, 4, 48, 0
6, 72960, Note_on_c, 4, 48, 99
6, 73004, Note_on_c, 4, 48, 0
6, 73008, Note_on_c, 4, 60, 99
6, 73052, Note_on_c, 4, 60, 0
6, 73344, Note_on_c, 4, 45, 99
6, 73388, Note_on_c, 4, 45, 0
6, 73392, Note_on_c, 4, 57, 99
6, 73436, Note_on_c, 4, 57, 0
6, 73728, Note_on_c, 4, 46, 99
6, 73772, Note_on_c, 4, 46, 0
6, 73776, Note_on_c, 4, 58, 99
6, 73820, Note_on_c, 4, 58, 0
6, 74112, Note_on_c, 4, 46, 99
6, 74156, Note_on_c, 4, 46, 0
6, 74160, Note_on_c, 4, 58, 99
6, 74204, Note_on_c, 4, 58, 0
6, 74496, Note_on_c, 4, 43, 99
6, 74540, Note_on_c, 4, 43, 0
6, 74544, Note_on_c, 4, 55, 99
6, 74588, Note_on_c, 4, 55, 0
6, 74880, Note_on_c, 4, 36, 99
6, 74924, Note_on_c, 4, 36, 0
6, 74928, Note_on_c, 4, 48, 99
6, 74972, Note_on_c, 4, 48, 0
6, 75456, Note_on_c, 4, 60, 88
6, 75644, Note_on_c, 4, 60, 0
6, 75648, Note_on_c, 4, 55, 77
6, 75836, Note_on_c, 4, 55, 0
6, 75840, Note_on_c, 4, 52, 66
6, 76028, Note_on_c, 4, 52, 0
6, 85248, Note_on_c, 4, 50, 66
6, 85340, Note_on_c, 4, 50, 0
6, 85344, Note_on_c, 4, 55, 66
6, 85436, Note_on_c, 4, 55, 0
6, 85440, Note_on_c, 4, 53, 66
6, 85532, Note_on_c, 4, 53, 0
6, 85536, Note_on_c, 4, 55, 66
6, 85628, Note_on_c, 4, 55, 0
6, 85632, Note_on_c, 4, 50, 66
6, 85724, Note_on_c, 4, 50, 0
6, 85728, Note_on_c, 4, 55, 66
6, 85820, Note_on_c, 4, 55, 0
6, 85824, Note_on_c, 4, 53, 66
6, 85916, Note_on_c, 4, 53, 0
6, 85920, Note_on_c, 4, 55, 66
6, 86012, Note_on_c, 4, 55, 0
6, 86016, Note_on_c, 4, 50, 66
6, 86108, Note_on_c, 4, 50, 0
6, 86112, Note_on_c, 4, 55, 66
6, 86204, Note_on_c, 4, 55, 0
6, 86208, Note_on_c, 4, 53, 66
6, 86300, Note_on_c, 4, 53, 0
6, 86304, Note_on_c, 4, 55, 66
6, 86396, Note_on_c, 4, 55, 0
6, 86400, Note_on_c, 4, 48, 66
6, 86492, Note_on_c, 4, 48, 0
6, 86496, Note_on_c, 4, 55, 66
6, 86588, Note_on_c, 4, 55, 0
6, 86592, Note_on_c, 4, 52, 66
6, 86684, Note_on_c, 4, 52, 0
6, 86688, Note_on_c, 4, 55, 66
6, 86780, Note_on_c, 4, 55, 0
6, 86784, Note_on_c, 4, 48, 66
6, 86876, Note_on_c, 4, 48, 0
6, 86880, Note_on_c, 4, 55, 66
6, 86972, Note_on_c, 4, 55, 0
6, 86976, Note_on_c, 4, 52, 66
6, 87068, Note_on_c, 4, 52, 0
6, 87072, Note_on_c, 4, 55, 66
6, 87164, Note_on_c, 4, 55, 0
6, 88128, Note_on_c, 4, 58, 66
6, 88316, Note_on_c, 4, 58, 0
6, 88320, Note_on_c, 4, 57, 77
6, 88508, Note_on_c, 4, 57, 0
6, 88512, Note_on_c, 4, 55, 88
6, 88700, Note_on_c, 4, 55, 0
6, 93312, Note_on_c, 4, 41, 66
6, 93404, Note_on_c, 4, 41, 0
6, 93408, Note_on_c, 4, 53, 66
6, 93980, Note_on_c, 4, 53, 0
6, 94464, Note_on_c, 4, 41, 66
6, 94556, Note_on_c, 4, 41, 0
6, 94556, Note_on_c, 4, 53, 66
6, 95608, Note_on_c, 4, 53, 0
6, 95616, Note_on_c, 4, 58, 66
6, 95804, Note_on_c, 4, 58, 0
6, 96000, Note_on_c, 4, 60, 66
6, 96188, Note_on_c, 4, 60, 0
6, 96384, Note_on_c, 4, 48, 66
6, 96572, Note_on_c, 4, 48, 0
6, 96768, Note_on_c, 4, 53, 99
6, 97148, Note_on_c, 4, 53, 0
6, 97152, Note_on_c, 4, 53, 82
6, 97340, Note_on_c, 4, 53, 0
6, 101376, Note_on_c, 4, 41, 66
6, 101376, Note_on_c, 4, 53, 66
6, 101468, Note_on_c, 4, 53, 0
6, 101468, Note_on_c, 4, 41, 0
6, 101472, Note_on_c, 4, 60, 66
6, 101564, Note_on_c, 4, 60, 0
6, 101568, Note_on_c, 4, 57, 66
6, 101660, Note_on_c, 4, 57, 0
6, 101664, Note_on_c, 4, 60, 66
6, 101756, Note_on_c, 4, 60, 0
6, 101760, Note_on_c, 4, 53, 66
6, 101852, Note_on_c, 4, 53, 0
6, 101856, Note_on_c, 4, 60, 66
6, 101948, Note_on_c, 4, 60, 0
6, 101952, Note_on_c, 4, 57, 66
6, 102044, Note_on_c, 4, 57, 0
6, 102048, Note_on_c, 4, 60, 66
6, 102140, Note_on_c, 4, 60, 0
6, 102144, Note_on_c, 4, 55, 66
6, 102236, Note_on_c, 4, 55, 0
6, 102240, Note_on_c, 4, 60, 66
6, 102332, Note_on_c, 4, 60, 0
6, 102336, Note_on_c, 4, 58, 66
6, 102428, Note_on_c, 4, 58, 0
6, 102432, Note_on_c, 4, 60, 66
6, 102524, Note_on_c, 4, 60, 0
6, 102528, Note_on_c, 4, 53, 66
6, 102620, Note_on_c, 4, 53, 0
6, 102624, Note_on_c, 4, 60, 66
6, 102716, Note_on_c, 4, 60, 0
6, 102720, Note_on_c, 4, 57, 66
6, 102812, Note_on_c, 4, 57, 0
6, 102816, Note_on_c, 4, 60, 66
6, 102908, Note_on_c, 4, 60, 0
6, 102912, Note_on_c, 4, 53, 66
6, 103004, Note_on_c, 4, 53, 0
6, 103008, Note_on_c, 4, 60, 66
6, 103100, Note_on_c, 4, 60, 0
6, 103120, Note_on_c, 4, 57, 66
6, 103200, Note_on_c, 4, 60, 66
6, 103212, Note_on_c, 4, 57, 0
6, 103292, Note_on_c, 4, 60, 0
6, 103296, Note_on_c, 4, 55, 66
6, 103388, Note_on_c, 4, 55, 0
6, 103392, Note_on_c, 4, 60, 66
6, 103484, Note_on_c, 4, 60, 0
6, 103488, Note_on_c, 4, 58, 66
6, 103580, Note_on_c, 4, 58, 0
6, 103584, Note_on_c, 4, 60, 66
6, 103676, Note_on_c, 4, 60, 0
6, 103680, Note_on_c, 4, 53, 66
6, 103772, Note_on_c, 4, 53, 0
6, 103776, Note_on_c, 4, 60, 66
6, 103868, Note_on_c, 4, 60, 0
6, 103872, Note_on_c, 4, 57, 66
6, 103964, Note_on_c, 4, 57, 0
6, 103968, Note_on_c, 4, 60, 66
6, 104060, Note_on_c, 4, 60, 0
6, 112896, Note_on_c, 4, 48, 89
6, 112956, Note_on_c, 4, 48, 0
6, 112960, Note_on_c, 4, 53, 89
6, 113020, Note_on_c, 4, 53, 0
6, 113024, Note_on_c, 4, 57, 89
6, 113084, Note_on_c, 4, 57, 0
6, 113088, Note_on_c, 4, 60, 89
6, 113148, Note_on_c, 4, 60, 0
6, 113152, Note_on_c, 4, 53, 89
6, 113212, Note_on_c, 4, 53, 0
6, 113216, Note_on_c, 4, 57, 89
6, 113276, Note_on_c, 4, 57, 0
6, 113280, Note_on_c, 4, 48, 89
6, 113340, Note_on_c, 4, 48, 0
6, 113344, Note_on_c, 4, 53, 89
6, 113404, Note_on_c, 4, 53, 0
6, 113408, Note_on_c, 4, 57, 89
6, 113468, Note_on_c, 4, 57, 0
6, 113472, Note_on_c, 4, 60, 89
6, 113532, Note_on_c, 4, 60, 0
6, 113536, Note_on_c, 4, 53, 89
6, 113596, Note_on_c, 4, 53, 0
6, 113600, Note_on_c, 4, 57, 89
6, 113660, Note_on_c, 4, 57, 0
6, 113664, Note_on_c, 4, 48, 89
6, 113724, Note_on_c, 4, 48, 0
6, 113728, Note_on_c, 4, 53, 89
6, 113788, Note_on_c, 4, 53, 0
6, 113792, Note_on_c, 4, 57, 89
6, 113852, Note_on_c, 4, 57, 0
6, 113856, Note_on_c, 4, 60, 89
6, 113916, Note_on_c, 4, 60, 0
6, 113920, Note_on_c, 4, 53, 89
6, 113980, Note_on_c, 4, 53, 0
6, 113984, Note_on_c, 4, 57, 89
6, 114044, Note_on_c, 4, 57, 0
6, 114048, Note_on_c, 4, 48, 89
6, 114048, Note_on_c, 4, 62, 89
6, 114048, Note_on_c, 4, 58, 89
6, 114108, Note_on_c, 4, 48, 0
6, 114112, Note_on_c, 4, 52, 89
6, 114172, Note_on_c, 4, 52, 0
6, 114176, Note_on_c, 4, 55, 89
6, 114236, Note_on_c, 4, 55, 0
6, 114240, Note_on_c, 4, 58, 89
6, 114300, Note_on_c, 4, 58, 0
6, 114304, Note_on_c, 4, 52, 89
6, 114364, Note_on_c, 4, 52, 0
6, 114368, Note_on_c, 4, 55, 89
6, 114428, Note_on_c, 4, 55, 0
6, 114428, Note_on_c, 4, 58, 0
6, 114428, Note_on_c, 4, 62, 0
6, 114432, Note_on_c, 4, 48, 89
6, 114432, Note_on_c, 4, 62, 89
6, 114432, Note_on_c, 4, 58, 89
6, 114492, Note_on_c, 4, 48, 0
6, 114496, Note_on_c, 4, 52, 89
6, 114556, Note_on_c, 4, 52, 0
6, 114560, Note_on_c, 4, 55, 89
6, 114620, Note_on_c, 4, 55, 0
6, 114624, Note_on_c, 4, 58, 89
6, 114684, Note_on_c, 4, 58, 0
6, 114688, Note_on_c, 4, 52, 89
6, 114748, Note_on_c, 4, 52, 0
6, 114752, Note_on_c, 4, 55, 89
6, 114812, Note_on_c, 4, 55, 0
6, 114812, Note_on_c, 4, 58, 0
6, 114812, Note_on_c, 4, 62, 0
6, 114816, Note_on_c, 4, 48, 89
6, 114816, Note_on_c, 4, 62, 89
6, 114816, Note_on_c, 4, 58, 89
6, 114876, Note_on_c, 4, 48, 0
6, 114880, Note_on_c, 4, 52, 89
6, 114940, Note_on_c, 4, 52, 0
6, 114944, Note_on_c, 4, 55, 89
6, 115004, Note_on_c, 4, 55, 0
6, 115004, Note_on_c, 4, 58, 0
6, 115004, Note_on_c, 4, 62, 0
6, 115008, Note_on_c, 4, 58, 89
6, 115008, Note_on_c, 4, 64, 89
6, 115008, Note_on_c, 4, 58, 89
6, 115068, Note_on_c, 4, 58, 0
6, 115072, Note_on_c, 4, 52, 89
6, 115132, Note_on_c, 4, 52, 0
6, 115136, Note_on_c, 4, 55, 89
6, 115196, Note_on_c, 4, 55, 0
6, 115196, Note_on_c, 4, 64, 0
6, 115196, Note_on_c, 4, 58, 0
6, 115200, Note_on_c, 4, 57, 99
6, 115200, Note_on_c, 4, 53, 99
6, 115580, Note_on_c, 4, 53, 0
6, 115580, Note_on_c, 4, 57, 0
6, 119808, Note_on_c, 4, 57, 66
6, 119808, Note_on_c, 4, 53, 66
6, 119996, Note_on_c, 4, 53, 0
6, 119996, Note_on_c, 4, 57, 0
6, 120192, Note_on_c, 4, 57, 66
6, 120192, Note_on_c, 4, 53, 66
6, 120380, Note_on_c, 4, 53, 0
6, 120380, Note_on_c, 4, 57, 0
6, 120576, Note_on_c, 4, 57, 66
6, 120576, Note_on_c, 4, 53, 66
6, 120764, Note_on_c, 4, 53, 0
6, 120764, Note_on_c, 4, 57, 0
6, 120960, Note_on_c, 4, 36, 99
6, 121004, Note_on_c, 4, 36, 0
6, 121008, Note_on_c, 4, 40, 99
6, 121052, Note_on_c, 4, 40, 0
6, 121056, Note_on_c, 4, 43, 99
6, 121100, Note_on_c, 4, 43, 0
6, 121104, Note_on_c, 4, 46, 99
6, 121148, Note_on_c, 4, 46, 0
6, 121344, Note_on_c, 4, 48, 99
6, 121388, Note_on_c, 4, 48, 0
6, 121392, Note_on_c, 4, 52, 99
6, 121436, Note_on_c, 4, 52, 0
6, 121440, Note_on_c, 4, 55, 99
6, 121484, Note_on_c, 4, 55, 0
6, 121488, Note_on_c, 4, 58, 99
6, 121532, Note_on_c, 4, 58, 0
6, 121536, Note_on_c, 4, 64, 99
6, 121724, Note_on_c, 4, 64, 0
6, 121728, Note_on_c, 4, 53, 99
6, 121728, Note_on_c, 4, 65, 99
6, 122012, Note_on_c, 4, 65, 0
6, 122012, Note_on_c, 4, 53, 0
6, 124800, Note_on_c, 4, 50, 99
6, 124812, Note_on_c, 4, 53, 99
6, 124828, Note_on_c, 4, 57, 99
6, 124844, Note_on_c, 4, 62, 99
6, 125176, Note_on_c, 4, 62, 0
6, 125176, Note_on_c, 4, 57, 0
6, 125176, Note_on_c, 4, 53, 0
6, 125180, Note_on_c, 4, 50, 0
6, 125184, Note_on_c, 4, 46, 99
6, 125192, Note_on_c, 4, 50, 99
6, 125204, Note_on_c, 4, 53, 99
6, 125216, Note_on_c, 4, 55, 99
6, 125228, Note_on_c, 4, 58, 99
6, 125560, Note_on_c, 4, 58, 0
6, 125560, Note_on_c, 4, 53, 0
6, 125560, Note_on_c, 4, 55, 0
6, 125560, Note_on_c, 4, 50, 0
6, 125564, Note_on_c, 4, 46, 0
6, 125952, Note_on_c, 4, 48, 99
6, 125964, Note_on_c, 4, 52, 99
6, 125980, Note_on_c, 4, 55, 99
6, 125996, Note_on_c, 4, 60, 99
6, 126328, Note_on_c, 4, 60, 0
6, 126328, Note_on_c, 4, 55, 0
6, 126328, Note_on_c, 4, 52, 0
6, 126332, Note_on_c, 4, 48, 0
6, 126336, Note_on_c, 4, 45, 99
6, 126344, Note_on_c, 4, 48, 99
6, 126356, Note_on_c, 4, 52, 99
6, 126368, Note_on_c, 4, 53, 99
6, 126380, Note_on_c, 4, 57, 99
6, 126712, Note_on_c, 4, 57, 0
6, 126712, Note_on_c, 4, 52, 0
6, 126712, Note_on_c, 4, 53, 0
6, 126712, Note_on_c, 4, 48, 0
6, 126716, Note_on_c, 4, 45, 0
6, 127104, Note_on_c, 4, 46, 99
6, 127116, Note_on_c, 4, 50, 99
6, 127132, Note_on_c, 4, 53, 99
6, 127148, Note_on_c, 4, 58, 99
6, 127480, Note_on_c, 4, 58, 0
6, 127480, Note_on_c, 4, 53, 0
6, 127480, Note_on_c, 4, 50, 0
6, 127484, Note_on_c, 4, 46, 0
6, 127488, Note_on_c, 4, 43, 99
6, 127500, Note_on_c, 4, 46, 99
6, 127516, Note_on_c, 4, 50, 99
6, 127532, Note_on_c, 4, 55, 99
6, 127864, Note_on_c, 4, 55, 0
6, 127864, Note_on_c, 4, 50, 0
6, 127864, Note_on_c, 4, 46, 0
6, 127868, Note_on_c, 4, 43, 0
6, 127872, Note_on_c, 4, 60, 99
6, 127872, Note_on_c, 4, 48, 99
6, 128636, Note_on_c, 4, 48, 0
6, 128636, Note_on_c, 4, 60, 0
6, 128640, Note_on_c, 4, 53, 99
6, 129020, Note_on_c, 4, 53, 0
6, 129024, Note_on_c, 4, 58, 99
6, 129024, Note_on_c, 4, 46, 99
6, 129308, Note_on_c, 4, 58, 0
6, 129312, Note_on_c, 4, 60, 99
6, 129356, Note_on_c, 4, 60, 0
6, 129360, Note_on_c, 4, 58, 99
6, 129404, Note_on_c, 4, 58, 0
6, 129404, Note_on_c, 4, 46, 0
6, 129408, Note_on_c, 4, 60, 99
6, 129408, Note_on_c, 4, 57, 99
6, 129408, Note_on_c, 4, 53, 99
6, 129408, Note_on_c, 4, 48, 99
6, 129788, Note_on_c, 4, 48, 0
6, 129788, Note_on_c, 4, 60, 0
6, 129788, Note_on_c, 4, 57, 0
6, 129788, Note_on_c, 4, 53, 0
6, 129792, Note_on_c, 4, 48, 99
6, 130172, Note_on_c, 4, 48, 0
6, 130176, Note_on_c, 4, 41, 89
6, 130556, Note_on_c, 4, 41, 0
6, 131328, Note_on_c, 4, 50, 89
6, 131328, Note_on_c, 4, 50, 89
6, 131372, Note_on_c, 4, 50, 0
6, 131376, Note_on_c, 4, 53, 89
6, 131420, Note_on_c, 4, 53, 0
6, 131424, Note_on_c, 4, 58, 89
6, 131468, Note_on_c, 4, 58, 0
6, 131616, Note_on_c, 4, 48, 89
6, 131660, Note_on_c, 4, 48, 0
6, 131664, Note_on_c, 4, 45, 89
6, 131708, Note_on_c, 4, 45, 0
6, 131712, Note_on_c, 4, 48, 89
6, 131712, Note_on_c, 4, 48, 89
6, 131756, Note_on_c, 4, 48, 0
6, 131760, Note_on_c, 4, 53, 89
6, 131804, Note_on_c, 4, 53, 0
6, 131808, Note_on_c, 4, 57, 89
6, 131852, Note_on_c, 4, 57, 0
6, 131856, Note_on_c, 4, 60, 89
6, 131900, Note_on_c, 4, 60, 0
6, 131900, Note_on_c, 4, 50, 0
6, 132092, Note_on_c, 4, 48, 0
6, 132096, Note_on_c, 4, 48, 89
6, 132096, Note_on_c, 4, 48, 89
6, 132140, Note_on_c, 4, 48, 0
6, 132144, Note_on_c, 4, 55, 89
6, 132188, Note_on_c, 4, 55, 0
6, 132192, Note_on_c, 4, 58, 89
6, 132236, Note_on_c, 4, 58, 0
6, 132240, Note_on_c, 4, 60, 89
6, 132284, Note_on_c, 4, 60, 0
6, 132476, Note_on_c, 4, 48, 0
6, 132480, Note_on_c, 4, 53, 66
6, 132480, Note_on_c, 4, 41, 66
6, 132860, Note_on_c, 4, 41, 0
6, 132860, Note_on_c, 4, 53, 0
6, 135168, Note_on_c, 4, 41, 60
6, 135180, Note_on_c, 4, 45, 60
6, 135196, Note_on_c, 4, 48, 60
6, 135212, Note_on_c, 4, 53, 60
6, 135356, Note_on_c, 4, 41, 0
6, 135368, Note_on_c, 4, 45, 0
6, 135384, Note_on_c, 4, 48, 0
6, 135400, Note_on_c, 4, 53, 0
6, 135552, Note_on_c, 4, 41, 60
6, 135564, Note_on_c, 4, 45, 60
6, 135580, Note_on_c, 4, 48, 60
6, 135596, Note_on_c, 4, 53, 60
6, 135740, Note_on_c, 4, 41, 0
6, 135752, Note_on_c, 4, 45, 0
6, 135768, Note_on_c, 4, 48, 0
6, 135784, Note_on_c, 4, 53, 0
6, 135936, Note_on_c, 4, 41, 60
6, 135948, Note_on_c, 4, 45, 60
6, 135964, Note_on_c, 4, 48, 60
6, 135980, Note_on_c, 4, 53, 60
6, 136312, Note_on_c, 4, 53, 0
6, 136312, Note_on_c, 4, 48, 0
6, 136312, Note_on_c, 4, 45, 0
6, 136316, Note_on_c, 4, 41, 0
6, 136316, End_track
7, 0, Start_track
7, 0, MIDI_port, 0
7, 0, Title_t, "Midi by:"
7, 0, Control_c, 5, 7, 113
7, 0, Control_c, 5, 10, 63
7, 0, Control_c, 5, 91, 0
7, 0, Control_c, 5, 93, 0
7, 0, End_track
8, 0, Start_track
8, 0, MIDI_port, 0
8, 0, Title_t, "B.Fisher"
8, 0, Control_c, 6, 7, 113
8, 0, Control_c, 6, 10, 63
8, 0, Control_c, 6, 91, 0
8, 0, Control_c, 6, 93, 0
8, 0, End_track
0, 0, End_of_file
