0, 0, Header, 1, 16, 384
1, 0, Start_track
1, 0, Time_signature, 2, 2, 96, 8
1, 0, Sequencer_specific, 3, 0, 0, 65
1, 0, Tempo, 1250000
1, 0, End_track
2, 0, Start_track
2, 0, Title_t, "Mozart"
2, 0, Control_c, 0, 0, 0
2, 0, Program_c, 0, 0
2, 0, Control_c, 0, 7, 80
2, 0, Control_c, 0, 10, 81
2, 0, Control_c, 0, 91, 63
2, 0, Control_c, 0, 93, 63
2, 0, Key_signature, 1, "major"
2, 0, Control_c, 0, 121, 0
2, 144, Control_c, 0, 10, 73
2, 192, Control_c, 0, 91, 63
2, 240, Control_c, 0, 93, 40
2, 288, Program_c, 0, 0
2, 768, Note_on_c, 0, 71, 60
2, 896, Note_off_c, 0, 71, 100
2, 912, Note_on_c, 0, 74, 60
2, 944, Note_off_c, 0, 74, 100
2, 960, Note_on_c, 0, 72, 60
2, 1056, Note_off_c, 0, 72, 100
2, 1104, Note_on_c, 0, 71, 60
2, 1136, Note_off_c, 0, 71, 100
2, 1152, Note_on_c, 0, 69, 60
2, 1280, Note_off_c, 0, 69, 100
2, 1344, Note_on_c, 0, 71, 60
2, 1472, Note_off_c, 0, 71, 100
2, 1536, Note_on_c, 0, 72, 60
2, 1664, Note_off_c, 0, 72, 100
2, 1728, Note_on_c, 0, 74, 60
2, 1856, Note_off_c, 0, 74, 100
2, 1920, Note_on_c, 0, 72, 60
2, 1984, Note_off_c, 0, 72, 100
2, 2016, Note_on_c, 0, 71, 60
2, 2080, Note_off_c, 0, 71, 100
2, 2112, Note_on_c, 0, 69, 60
2, 2176, Note_off_c, 0, 69, 100
2, 2208, Note_on_c, 0, 67, 60
2, 2272, Note_off_c, 0, 67, 100
2, 2304, Note_on_c, 0, 67, 90
2, 2304, Note_on_c, 0, 72, 90
2, 2432, Note_off_c, 0, 67, 100
2, 2432, Note_off_c, 0, 72, 100
2, 2496, Note_on_c, 0, 67, 90
2, 2496, Note_on_c, 0, 71, 90
2, 2624, Note_off_c, 0, 67, 100
2, 2624, Note_off_c, 0, 71, 100
2, 2688, Note_on_c, 0, 76, 90
2, 2688, Note_on_c, 0, 67, 90
2, 2816, Note_off_c, 0, 76, 100
2, 2816, Note_off_c, 0, 67, 100
2, 2880, Note_on_c, 0, 74, 60
2, 2880, Note_on_c, 0, 67, 60
2, 2944, Note_off_c, 0, 74, 100
2, 2944, Note_off_c, 0, 67, 100
2, 3072, Note_on_c, 0, 72, 60
2, 3136, Note_off_c, 0, 72, 100
2, 3168, Note_on_c, 0, 69, 60
2, 3232, Note_off_c, 0, 69, 100
2, 3264, Note_on_c, 0, 71, 60
2, 3328, Note_off_c, 0, 71, 100
2, 3360, Note_on_c, 0, 67, 60
2, 3424, Note_off_c, 0, 67, 100
2, 3456, Note_on_c, 0, 71, 60
2, 3456, Note_on_c, 0, 67, 60
2, 3584, Note_off_c, 0, 71, 100
2, 3584, Note_off_c, 0, 67, 100
2, 3648, Note_on_c, 0, 69, 60
2, 3648, Note_on_c, 0, 66, 60
2, 3776, Note_off_c, 0, 69, 100
2, 3776, Note_off_c, 0, 66, 100
2, 3840, Note_on_c, 0, 71, 60
2, 3984, Note_on_c, 0, 74, 60
2, 4016, Note_off_c, 0, 74, 100
2, 4032, Note_on_c, 0, 72, 60
2, 4096, Note_off_c, 0, 71, 100
2, 4128, Note_off_c, 0, 72, 100
2, 4176, Note_on_c, 0, 71, 60
2, 4208, Note_off_c, 0, 71, 100
2, 4224, Note_on_c, 0, 69, 60
2, 4352, Note_off_c, 0, 69, 100
2, 4416, Note_on_c, 0, 71, 60
2, 4544, Note_off_c, 0, 71, 100
2, 4608, Note_on_c, 0, 72, 60
2, 4736, Note_off_c, 0, 72, 100
2, 4800, Note_on_c, 0, 76, 60
2, 4864, Note_off_c, 0, 76, 100
2, 4896, Note_on_c, 0, 74, 60
2, 4960, Note_off_c, 0, 74, 100
2, 4992, Note_on_c, 0, 72, 60
2, 5056, Note_off_c, 0, 72, 100
2, 5088, Note_on_c, 0, 71, 60
2, 5152, Note_off_c, 0, 71, 100
2, 5184, Note_on_c, 0, 69, 60
2, 5248, Note_off_c, 0, 69, 100
2, 5280, Note_on_c, 0, 67, 60
2, 5344, Note_off_c, 0, 67, 100
2, 5376, Note_on_c, 0, 67, 90
2, 5376, Note_on_c, 0, 72, 90
2, 5504, Note_off_c, 0, 67, 100
2, 5504, Note_off_c, 0, 72, 100
2, 5568, Note_on_c, 0, 71, 90
2, 5568, Note_on_c, 0, 67, 90
2, 5696, Note_off_c, 0, 71, 100
2, 5696, Note_off_c, 0, 67, 100
2, 5760, Note_on_c, 0, 67, 90
2, 5760, Note_on_c, 0, 76, 90
2, 5824, Note_off_c, 0, 76, 100
2, 5856, Note_on_c, 0, 78, 60
2, 5888, Note_off_c, 0, 67, 100
2, 5920, Note_off_c, 0, 78, 100
2, 5952, Note_on_c, 0, 79, 60
2, 6016, Note_off_c, 0, 79, 100
2, 6048, Note_on_c, 0, 72, 60
2, 6112, Note_off_c, 0, 72, 100
2, 6144, Note_on_c, 0, 71, 60
2, 6272, Note_off_c, 0, 71, 100
2, 6336, Note_on_c, 0, 69, 60
2, 6464, Note_off_c, 0, 69, 100
2, 6528, Note_on_c, 0, 67, 60
2, 6552, Note_off_c, 0, 67, 100
2, 6552, Note_on_c, 0, 69, 60
2, 6576, Note_off_c, 0, 69, 100
2, 6576, Note_on_c, 0, 67, 60
2, 6600, Note_off_c, 0, 67, 100
2, 6600, Note_on_c, 0, 69, 60
2, 6624, Note_off_c, 0, 69, 100
2, 6624, Note_on_c, 0, 67, 60
2, 6648, Note_off_c, 0, 67, 100
2, 6648, Note_on_c, 0, 69, 60
2, 6672, Note_off_c, 0, 69, 100
2, 6672, Note_on_c, 0, 67, 60
2, 6696, Note_off_c, 0, 67, 100
2, 6696, Note_on_c, 0, 69, 60
2, 6720, Note_off_c, 0, 69, 100
2, 6720, Note_on_c, 0, 67, 60
2, 6744, Note_off_c, 0, 67, 100
2, 6744, Note_on_c, 0, 69, 60
2, 6768, Note_off_c, 0, 69, 100
2, 6768, Note_on_c, 0, 67, 60
2, 6792, Note_off_c, 0, 67, 100
2, 6792, Note_on_c, 0, 69, 60
2, 6816, Note_off_c, 0, 69, 100
2, 6816, Note_on_c, 0, 67, 60
2, 6840, Note_off_c, 0, 67, 100
2, 6840, Note_on_c, 0, 69, 60
2, 6864, Note_off_c, 0, 69, 100
2, 6864, Note_on_c, 0, 67, 60
2, 6888, Note_off_c, 0, 67, 100
2, 6912, Note_on_c, 0, 69, 60
2, 7168, Note_off_c, 0, 69, 100
2, 7296, Note_on_c, 0, 67, 60
2, 7360, Note_off_c, 0, 67, 100
2, 7392, Note_on_c, 0, 66, 60
2, 7456, Note_off_c, 0, 66, 100
2, 7488, Note_on_c, 0, 64, 60
2, 7552, Note_off_c, 0, 64, 100
2, 7584, Note_on_c, 0, 62, 60
2, 7648, Note_off_c, 0, 62, 100
2, 7680, Note_on_c, 0, 71, 60
2, 7936, Note_off_c, 0, 71, 100
2, 8064, Note_on_c, 0, 67, 60
2, 8192, Note_off_c, 0, 67, 100
2, 8232, Note_on_c, 0, 69, 60
2, 8256, Note_off_c, 0, 69, 100
2, 8256, Note_on_c, 0, 67, 60
2, 8280, Note_off_c, 0, 67, 100
2, 8280, Note_on_c, 0, 69, 60
2, 8304, Note_off_c, 0, 69, 100
2, 8304, Note_on_c, 0, 67, 60
2, 8328, Note_off_c, 0, 67, 100
2, 8328, Note_on_c, 0, 69, 60
2, 8352, Note_off_c, 0, 69, 100
2, 8352, Note_on_c, 0, 67, 60
2, 8376, Note_off_c, 0, 67, 100
2, 8376, Note_on_c, 0, 69, 60
2, 8400, Note_off_c, 0, 69, 100
2, 8400, Note_on_c, 0, 66, 60
2, 8424, Note_off_c, 0, 66, 100
2, 8424, Note_on_c, 0, 67, 60
2, 8448, Note_off_c, 0, 67, 100
2, 8448, Note_on_c, 0, 69, 60
2, 8576, Note_off_c, 0, 69, 100
2, 8624, Note_on_c, 0, 69, 60
2, 8752, Note_off_c, 0, 69, 100
2, 8832, Note_on_c, 0, 67, 45
2, 8896, Note_off_c, 0, 67, 100
2, 8928, Note_on_c, 0, 66, 45
2, 8992, Note_off_c, 0, 66, 100
2, 9024, Note_on_c, 0, 64, 45
2, 9088, Note_off_c, 0, 64, 100
2, 9120, Note_on_c, 0, 62, 45
2, 9184, Note_off_c, 0, 62, 100
2, 9216, Note_on_c, 0, 71, 60
2, 9344, Note_off_c, 0, 71, 100
2, 9360, Note_on_c, 0, 74, 60
2, 9392, Note_off_c, 0, 74, 100
2, 9408, Note_on_c, 0, 72, 60
2, 9504, Note_off_c, 0, 72, 100
2, 9552, Note_on_c, 0, 71, 60
2, 9584, Note_off_c, 0, 71, 100
2, 9600, Note_on_c, 0, 69, 60
2, 9728, Note_off_c, 0, 69, 100
2, 9792, Note_on_c, 0, 71, 60
2, 9920, Note_off_c, 0, 71, 100
2, 9984, Note_on_c, 0, 72, 60
2, 10112, Note_off_c, 0, 72, 100
2, 10176, Note_on_c, 0, 74, 60
2, 10304, Note_off_c, 0, 74, 100
2, 10368, Note_on_c, 0, 72, 60
2, 10432, Note_off_c, 0, 72, 100
2, 10464, Note_on_c, 0, 71, 60
2, 10528, Note_off_c, 0, 71, 100
2, 10560, Note_on_c, 0, 69, 60
2, 10624, Note_off_c, 0, 69, 100
2, 10656, Note_on_c, 0, 67, 60
2, 10720, Note_off_c, 0, 67, 100
2, 10752, Note_on_c, 0, 67, 90
2, 10752, Note_on_c, 0, 72, 90
2, 10880, Note_off_c, 0, 67, 100
2, 10880, Note_off_c, 0, 72, 100
2, 10944, Note_on_c, 0, 67, 90
2, 10944, Note_on_c, 0, 71, 90
2, 11072, Note_off_c, 0, 67, 100
2, 11072, Note_off_c, 0, 71, 100
2, 11136, Note_on_c, 0, 76, 90
2, 11136, Note_on_c, 0, 67, 90
2, 11264, Note_off_c, 0, 76, 100
2, 11264, Note_off_c, 0, 67, 100
2, 11328, Note_on_c, 0, 74, 60
2, 11328, Note_on_c, 0, 67, 60
2, 11392, Note_off_c, 0, 74, 100
2, 11392, Note_off_c, 0, 67, 100
2, 11520, Note_on_c, 0, 72, 60
2, 11584, Note_off_c, 0, 72, 100
2, 11616, Note_on_c, 0, 69, 60
2, 11680, Note_off_c, 0, 69, 100
2, 11712, Note_on_c, 0, 71, 60
2, 11776, Note_off_c, 0, 71, 100
2, 11808, Note_on_c, 0, 67, 60
2, 11872, Note_off_c, 0, 67, 100
2, 11904, Note_on_c, 0, 71, 60
2, 11904, Note_on_c, 0, 67, 60
2, 12032, Note_off_c, 0, 71, 100
2, 12032, Note_off_c, 0, 67, 100
2, 12096, Note_on_c, 0, 69, 60
2, 12096, Note_on_c, 0, 66, 60
2, 12224, Note_off_c, 0, 69, 100
2, 12224, Note_off_c, 0, 66, 100
2, 12288, Note_on_c, 0, 71, 60
2, 12432, Note_on_c, 0, 74, 60
2, 12464, Note_off_c, 0, 74, 100
2, 12480, Note_on_c, 0, 72, 60
2, 12544, Note_off_c, 0, 71, 100
2, 12576, Note_off_c, 0, 72, 100
2, 12624, Note_on_c, 0, 71, 60
2, 12656, Note_off_c, 0, 71, 100
2, 12672, Note_on_c, 0, 69, 60
2, 12800, Note_off_c, 0, 69, 100
2, 12864, Note_on_c, 0, 71, 60
2, 12992, Note_off_c, 0, 71, 100
2, 13056, Note_on_c, 0, 72, 60
2, 13184, Note_off_c, 0, 72, 100
2, 13248, Note_on_c, 0, 76, 60
2, 13312, Note_off_c, 0, 76, 100
2, 13344, Note_on_c, 0, 74, 60
2, 13408, Note_off_c, 0, 74, 100
2, 13440, Note_on_c, 0, 72, 60
2, 13504, Note_off_c, 0, 72, 100
2, 13536, Note_on_c, 0, 71, 60
2, 13600, Note_off_c, 0, 71, 100
2, 13632, Note_on_c, 0, 69, 60
2, 13696, Note_off_c, 0, 69, 100
2, 13728, Note_on_c, 0, 67, 60
2, 13792, Note_off_c, 0, 67, 100
2, 13824, Note_on_c, 0, 67, 90
2, 13824, Note_on_c, 0, 72, 90
2, 13952, Note_off_c, 0, 67, 100
2, 13952, Note_off_c, 0, 72, 100
2, 14016, Note_on_c, 0, 71, 90
2, 14016, Note_on_c, 0, 67, 90
2, 14144, Note_off_c, 0, 71, 100
2, 14144, Note_off_c, 0, 67, 100
2, 14208, Note_on_c, 0, 67, 90
2, 14208, Note_on_c, 0, 76, 90
2, 14272, Note_off_c, 0, 76, 100
2, 14304, Note_on_c, 0, 78, 60
2, 14336, Note_off_c, 0, 67, 100
2, 14368, Note_off_c, 0, 78, 100
2, 14400, Note_on_c, 0, 79, 60
2, 14464, Note_off_c, 0, 79, 100
2, 14496, Note_on_c, 0, 72, 60
2, 14560, Note_off_c, 0, 72, 100
2, 14592, Note_on_c, 0, 71, 60
2, 14720, Note_off_c, 0, 71, 100
2, 14784, Note_on_c, 0, 69, 60
2, 14912, Note_off_c, 0, 69, 100
2, 14976, Note_on_c, 0, 67, 60
2, 15000, Note_off_c, 0, 67, 100
2, 15000, Note_on_c, 0, 69, 60
2, 15024, Note_off_c, 0, 69, 100
2, 15024, Note_on_c, 0, 67, 60
2, 15048, Note_off_c, 0, 67, 100
2, 15048, Note_on_c, 0, 69, 60
2, 15072, Note_off_c, 0, 69, 100
2, 15072, Note_on_c, 0, 67, 60
2, 15096, Note_off_c, 0, 67, 100
2, 15096, Note_on_c, 0, 69, 60
2, 15120, Note_off_c, 0, 69, 100
2, 15120, Note_on_c, 0, 67, 60
2, 15144, Note_off_c, 0, 67, 100
2, 15144, Note_on_c, 0, 69, 60
2, 15168, Note_off_c, 0, 69, 100
2, 15168, Note_on_c, 0, 67, 60
2, 15192, Note_off_c, 0, 67, 100
2, 15192, Note_on_c, 0, 69, 60
2, 15216, Note_off_c, 0, 69, 100
2, 15216, Note_on_c, 0, 67, 60
2, 15240, Note_off_c, 0, 67, 100
2, 15240, Note_on_c, 0, 69, 60
2, 15264, Note_off_c, 0, 69, 100
2, 15264, Note_on_c, 0, 67, 60
2, 15288, Note_off_c, 0, 67, 100
2, 15288, Note_on_c, 0, 69, 60
2, 15312, Note_off_c, 0, 69, 100
2, 15312, Note_on_c, 0, 66, 60
2, 15312, Note_on_c, 0, 67, 60
2, 15336, Note_off_c, 0, 66, 100
2, 15336, Note_off_c, 0, 67, 0
2, 15360, Note_on_c, 0, 69, 60
2, 15616, Note_off_c, 0, 69, 100
2, 15744, Note_on_c, 0, 67, 60
2, 15808, Note_off_c, 0, 67, 100
2, 15840, Note_on_c, 0, 66, 60
2, 15904, Note_off_c, 0, 66, 100
2, 15936, Note_on_c, 0, 64, 60
2, 16000, Note_off_c, 0, 64, 100
2, 16032, Note_on_c, 0, 62, 60
2, 16096, Note_off_c, 0, 62, 100
2, 16128, Note_on_c, 0, 71, 60
2, 16384, Note_off_c, 0, 71, 100
2, 16512, Note_on_c, 0, 67, 60
2, 16640, Note_off_c, 0, 67, 100
2, 16656, Note_on_c, 0, 69, 60
2, 16688, Note_off_c, 0, 69, 100
2, 16704, Note_on_c, 0, 67, 60
2, 16728, Note_off_c, 0, 67, 100
2, 16728, Note_on_c, 0, 69, 60
2, 16752, Note_off_c, 0, 69, 100
2, 16752, Note_on_c, 0, 67, 60
2, 16776, Note_off_c, 0, 67, 100
2, 16776, Note_on_c, 0, 69, 60
2, 16800, Note_off_c, 0, 69, 100
2, 16800, Note_on_c, 0, 67, 60
2, 16824, Note_off_c, 0, 67, 100
2, 16824, Note_on_c, 0, 69, 60
2, 16848, Note_off_c, 0, 69, 100
2, 16848, Note_on_c, 0, 66, 60
2, 16872, Note_off_c, 0, 66, 100
2, 16872, Note_on_c, 0, 67, 60
2, 16896, Note_off_c, 0, 67, 100
2, 16896, Note_on_c, 0, 69, 60
2, 17024, Note_off_c, 0, 69, 100
2, 17088, Note_on_c, 0, 69, 60
2, 17216, Note_off_c, 0, 69, 100
2, 17280, Note_on_c, 0, 67, 60
2, 17344, Note_off_c, 0, 67, 100
2, 17376, Note_on_c, 0, 66, 60
2, 17440, Note_off_c, 0, 66, 100
2, 17472, Note_on_c, 0, 64, 60
2, 17536, Note_off_c, 0, 64, 100
2, 17568, Note_on_c, 0, 62, 60
2, 17632, Note_off_c, 0, 62, 100
2, 17664, Note_on_c, 0, 67, 60
2, 17920, Note_off_c, 0, 67, 100
2, 18048, Note_on_c, 0, 63, 60
2, 18176, Note_off_c, 0, 63, 100
2, 18240, Note_on_c, 0, 63, 60
2, 18368, Note_off_c, 0, 63, 100
2, 18432, Note_on_c, 0, 64, 60
2, 18496, Note_off_c, 0, 64, 100
2, 18528, Note_on_c, 0, 66, 60
2, 18592, Note_off_c, 0, 66, 100
2, 18624, Note_on_c, 0, 67, 60
2, 18688, Note_off_c, 0, 67, 100
2, 18720, Note_on_c, 0, 62, 60
2, 18784, Note_off_c, 0, 62, 100
2, 18816, Note_on_c, 0, 62, 60
2, 18880, Note_off_c, 0, 62, 100
2, 18912, Note_on_c, 0, 61, 60
2, 18976, Note_off_c, 0, 61, 100
2, 19008, Note_on_c, 0, 59, 60
2, 19072, Note_off_c, 0, 59, 100
2, 19104, Note_on_c, 0, 57, 60
2, 19168, Note_off_c, 0, 57, 100
2, 19200, Note_on_c, 0, 69, 60
2, 19456, Note_off_c, 0, 69, 100
2, 19584, Note_on_c, 0, 74, 90
2, 19584, Note_on_c, 0, 68, 90
2, 19584, Note_on_c, 0, 62, 90
2, 19712, Note_off_c, 0, 74, 100
2, 19712, Note_off_c, 0, 68, 100
2, 19712, Note_off_c, 0, 62, 100
2, 19776, Note_on_c, 0, 74, 90
2, 19776, Note_on_c, 0, 68, 90
2, 19776, Note_on_c, 0, 62, 90
2, 19904, Note_off_c, 0, 74, 100
2, 19904, Note_off_c, 0, 68, 100
2, 19904, Note_off_c, 0, 62, 100
2, 19968, Note_on_c, 0, 74, 90
2, 19968, Note_on_c, 0, 68, 90
2, 19968, Note_on_c, 0, 62, 90
2, 20224, Note_off_c, 0, 74, 100
2, 20224, Note_off_c, 0, 68, 100
2, 20224, Note_off_c, 0, 62, 100
2, 20352, Note_on_c, 0, 81, 60
2, 20352, Note_on_c, 0, 73, 60
2, 20480, Note_off_c, 0, 81, 100
2, 20480, Note_off_c, 0, 73, 100
2, 20544, Note_on_c, 0, 81, 60
2, 20544, Note_on_c, 0, 73, 60
2, 20672, Note_off_c, 0, 81, 100
2, 20672, Note_off_c, 0, 73, 100
2, 20736, Note_on_c, 0, 81, 60
2, 20736, Note_on_c, 0, 73, 60
2, 20992, Note_off_c, 0, 81, 100
2, 20992, Note_off_c, 0, 73, 100
2, 21312, Note_on_c, 0, 78, 82
2, 21336, Note_off_c, 0, 78, 100
2, 21336, Note_on_c, 0, 79, 82
2, 21360, Note_off_c, 0, 79, 100
2, 21360, Note_on_c, 0, 78, 82
2, 21384, Note_off_c, 0, 78, 100
2, 21384, Note_on_c, 0, 79, 82
2, 21408, Note_off_c, 0, 79, 100
2, 21408, Note_on_c, 0, 78, 82
2, 21432, Note_off_c, 0, 78, 100
2, 21456, Note_on_c, 0, 79, 82
2, 21480, Note_off_c, 0, 79, 100
2, 21504, Note_on_c, 0, 81, 82
2, 21504, Note_on_c, 0, 62, 82
2, 21568, Note_off_c, 0, 62, 100
2, 21600, Note_on_c, 0, 66, 82
2, 21632, Note_off_c, 0, 81, 100
2, 21664, Note_off_c, 0, 66, 100
2, 21696, Note_on_c, 0, 81, 82
2, 21696, Note_on_c, 0, 69, 82
2, 21760, Note_off_c, 0, 69, 100
2, 21792, Note_on_c, 0, 66, 82
2, 21824, Note_off_c, 0, 81, 100
2, 21856, Note_off_c, 0, 66, 100
2, 21888, Note_on_c, 0, 81, 82
2, 21888, Note_on_c, 0, 62, 82
2, 21952, Note_off_c, 0, 81, 100
2, 21952, Note_off_c, 0, 62, 100
2, 21984, Note_on_c, 0, 81, 82
2, 21984, Note_on_c, 0, 66, 82
2, 22048, Note_off_c, 0, 81, 100
2, 22048, Note_off_c, 0, 66, 100
2, 22080, Note_on_c, 0, 81, 82
2, 22080, Note_on_c, 0, 69, 82
2, 22144, Note_off_c, 0, 69, 100
2, 22176, Note_off_c, 0, 81, 100
2, 22176, Note_on_c, 0, 66, 82
2, 22224, Note_on_c, 0, 83, 82
2, 22240, Note_off_c, 0, 66, 100
2, 22256, Note_off_c, 0, 83, 100
2, 22272, Note_on_c, 0, 81, 82
2, 22272, Note_on_c, 0, 62, 82
2, 22336, Note_off_c, 0, 81, 100
2, 22336, Note_off_c, 0, 62, 100
2, 22368, Note_on_c, 0, 79, 82
2, 22368, Note_on_c, 0, 64, 82
2, 22432, Note_off_c, 0, 79, 100
2, 22432, Note_off_c, 0, 64, 100
2, 22464, Note_on_c, 0, 79, 82
2, 22464, Note_on_c, 0, 71, 82
2, 22528, Note_off_c, 0, 71, 100
2, 22560, Note_on_c, 0, 64, 82
2, 22624, Note_off_c, 0, 64, 100
2, 22656, Note_off_c, 0, 79, 100
2, 22656, Note_on_c, 0, 62, 82
2, 22720, Note_off_c, 0, 62, 100
2, 22752, Note_on_c, 0, 64, 82
2, 22768, Note_on_c, 0, 79, 82
2, 22816, Note_off_c, 0, 64, 100
2, 22832, Note_off_c, 0, 79, 100
2, 22848, Note_on_c, 0, 78, 82
2, 22848, Note_on_c, 0, 71, 82
2, 22912, Note_off_c, 0, 78, 100
2, 22912, Note_off_c, 0, 71, 100
2, 22944, Note_on_c, 0, 76, 82
2, 22944, Note_on_c, 0, 64, 82
2, 23008, Note_off_c, 0, 76, 100
2, 23008, Note_off_c, 0, 64, 100
2, 23040, Note_on_c, 0, 76, 82
2, 23040, Note_on_c, 0, 61, 82
2, 23040, Note_on_c, 0, 61, 82
2, 23104, Note_off_c, 0, 76, 100
2, 23104, Note_off_c, 0, 61, 100
2, 23136, Note_on_c, 0, 81, 82
2, 23136, Note_on_c, 0, 64, 82
2, 23168, Note_off_c, 0, 61, 100
2, 23200, Note_off_c, 0, 81, 100
2, 23200, Note_off_c, 0, 64, 100
2, 23232, Note_on_c, 0, 81, 82
2, 23232, Note_on_c, 0, 69, 82
2, 23296, Note_off_c, 0, 69, 100
2, 23328, Note_on_c, 0, 64, 82
2, 23360, Note_off_c, 0, 81, 100
2, 23392, Note_off_c, 0, 64, 100
2, 23424, Note_on_c, 0, 81, 82
2, 23424, Note_on_c, 0, 59, 82
2, 23424, Note_on_c, 0, 59, 82
2, 23488, Note_off_c, 0, 81, 100
2, 23488, Note_off_c, 0, 59, 100
2, 23520, Note_on_c, 0, 83, 82
2, 23520, Note_on_c, 0, 62, 82
2, 23552, Note_off_c, 0, 59, 100
2, 23552, Note_off_c, 0, 83, 100
2, 23568, Note_on_c, 0, 81, 82
2, 23584, Note_off_c, 0, 62, 100
2, 23600, Note_off_c, 0, 81, 100
2, 23616, Note_on_c, 0, 67, 82
2, 23632, Note_on_c, 0, 81, 82
2, 23664, Note_off_c, 0, 81, 100
2, 23664, Note_on_c, 0, 79, 82
2, 23680, Note_off_c, 0, 67, 100
2, 23696, Note_off_c, 0, 79, 100
2, 23712, Note_on_c, 0, 78, 82
2, 23712, Note_on_c, 0, 62, 82
2, 23744, Note_off_c, 0, 78, 100
2, 23760, Note_on_c, 0, 79, 82
2, 23776, Note_off_c, 0, 62, 100
2, 23792, Note_off_c, 0, 79, 100
2, 23808, Note_on_c, 0, 79, 82
2, 23872, Note_off_c, 0, 79, 100
2, 23904, Note_on_c, 0, 78, 82
2, 23968, Note_off_c, 0, 78, 100
2, 24000, Note_on_c, 0, 78, 82
2, 24192, Note_off_c, 0, 78, 100
2, 24192, Note_on_c, 0, 78, 82
2, 24224, Note_off_c, 0, 78, 100
2, 24240, Note_on_c, 0, 79, 82
2, 24272, Note_off_c, 0, 79, 100
2, 24288, Note_on_c, 0, 81, 82
2, 24352, Note_off_c, 0, 81, 100
2, 24384, Note_on_c, 0, 79, 82
2, 24448, Note_off_c, 0, 79, 100
2, 24480, Note_on_c, 0, 78, 82
2, 24544, Note_off_c, 0, 78, 100
2, 24576, Note_on_c, 0, 78, 82
2, 24640, Note_off_c, 0, 78, 100
2, 24672, Note_on_c, 0, 76, 82
2, 24736, Note_off_c, 0, 76, 100
2, 24768, Note_on_c, 0, 76, 82
2, 24832, Note_off_c, 0, 76, 100
2, 24864, Note_on_c, 0, 76, 82
2, 24928, Note_off_c, 0, 76, 100
2, 24960, Note_on_c, 0, 76, 82
2, 25088, Note_off_c, 0, 76, 100
2, 25152, Note_on_c, 0, 76, 82
2, 25280, Note_off_c, 0, 76, 100
2, 25344, Note_on_c, 0, 80, 82
2, 25376, Note_off_c, 0, 80, 100
2, 25392, Note_on_c, 0, 81, 82
2, 25424, Note_off_c, 0, 81, 100
2, 25440, Note_on_c, 0, 83, 82
2, 25472, Note_off_c, 0, 83, 100
2, 25488, Note_on_c, 0, 81, 82
2, 25728, Note_on_c, 0, 81, 82
2, 25744, Note_off_c, 0, 81, 100
2, 25792, Note_off_c, 0, 81, 100
2, 25824, Note_on_c, 0, 83, 82
2, 25856, Note_off_c, 0, 83, 100
2, 25856, Note_on_c, 0, 81, 82
2, 25888, Note_off_c, 0, 81, 100
2, 25920, Note_on_c, 0, 79, 82
2, 25984, Note_off_c, 0, 79, 100
2, 26000, Note_on_c, 0, 78, 82
2, 26064, Note_off_c, 0, 78, 100
2, 26112, Note_on_c, 0, 78, 82
2, 26176, Note_off_c, 0, 78, 100
2, 26208, Note_on_c, 0, 76, 82
2, 26272, Note_off_c, 0, 76, 100
2, 26304, Note_on_c, 0, 75, 82
2, 26368, Note_off_c, 0, 75, 100
2, 26400, Note_on_c, 0, 76, 82
2, 26464, Note_off_c, 0, 76, 100
2, 26496, Note_on_c, 0, 78, 82
2, 26560, Note_off_c, 0, 78, 100
2, 26592, Note_on_c, 0, 79, 82
2, 26656, Note_off_c, 0, 79, 100
2, 26688, Note_on_c, 0, 71, 82
2, 26752, Note_off_c, 0, 71, 100
2, 26784, Note_on_c, 0, 76, 82
2, 26848, Note_off_c, 0, 76, 100
2, 26880, Note_on_c, 0, 74, 82
2, 26944, Note_off_c, 0, 74, 100
2, 26976, Note_on_c, 0, 73, 82
2, 27040, Note_off_c, 0, 73, 100
2, 27072, Note_on_c, 0, 71, 82
2, 27136, Note_off_c, 0, 71, 100
2, 27168, Note_on_c, 0, 69, 82
2, 27232, Note_off_c, 0, 69, 100
2, 27264, Note_on_c, 0, 71, 82
2, 27328, Note_off_c, 0, 71, 100
2, 27360, Note_on_c, 0, 73, 82
2, 27424, Note_off_c, 0, 73, 100
2, 27456, Note_on_c, 0, 74, 82
2, 27520, Note_off_c, 0, 74, 100
2, 27552, Note_on_c, 0, 76, 82
2, 27616, Note_off_c, 0, 76, 100
2, 27648, Note_on_c, 0, 78, 60
2, 27648, Note_on_c, 0, 74, 60
2, 27712, Note_off_c, 0, 74, 100
2, 27744, Note_on_c, 0, 69, 60
2, 27776, Note_off_c, 0, 78, 100
2, 27792, Note_on_c, 0, 81, 60
2, 27808, Note_off_c, 0, 69, 100
2, 27824, Note_off_c, 0, 81, 100
2, 27840, Note_on_c, 0, 79, 60
2, 27840, Note_on_c, 0, 74, 60
2, 27904, Note_off_c, 0, 74, 100
2, 27936, Note_off_c, 0, 79, 100
2, 27936, Note_on_c, 0, 69, 60
2, 27984, Note_on_c, 0, 78, 60
2, 28000, Note_off_c, 0, 69, 100
2, 28016, Note_off_c, 0, 78, 100
2, 28032, Note_on_c, 0, 76, 60
2, 28032, Note_on_c, 0, 73, 60
2, 28096, Note_off_c, 0, 73, 100
2, 28128, Note_on_c, 0, 69, 60
2, 28160, Note_off_c, 0, 76, 100
2, 28192, Note_off_c, 0, 69, 100
2, 28224, Note_on_c, 0, 78, 60
2, 28224, Note_on_c, 0, 74, 60
2, 28288, Note_off_c, 0, 74, 100
2, 28320, Note_on_c, 0, 69, 60
2, 28352, Note_off_c, 0, 78, 100
2, 28384, Note_off_c, 0, 69, 100
2, 28416, Note_on_c, 0, 79, 60
2, 28416, Note_on_c, 0, 76, 60
2, 28480, Note_off_c, 0, 76, 100
2, 28512, Note_on_c, 0, 69, 60
2, 28544, Note_off_c, 0, 79, 100
2, 28576, Note_off_c, 0, 69, 100
2, 28608, Note_on_c, 0, 81, 60
2, 28608, Note_on_c, 0, 73, 60
2, 28672, Note_off_c, 0, 73, 100
2, 28704, Note_on_c, 0, 69, 60
2, 28736, Note_off_c, 0, 81, 100
2, 28768, Note_off_c, 0, 69, 100
2, 28800, Note_on_c, 0, 79, 60
2, 28800, Note_on_c, 0, 74, 60
2, 28864, Note_off_c, 0, 74, 100
2, 28896, Note_on_c, 0, 69, 60
2, 28928, Note_off_c, 0, 79, 100
2, 28960, Note_off_c, 0, 69, 100
2, 28992, Note_on_c, 0, 78, 60
2, 28992, Note_on_c, 0, 74, 60
2, 29056, Note_off_c, 0, 74, 100
2, 29072, Note_on_c, 0, 69, 60
2, 29120, Note_off_c, 0, 78, 100
2, 29136, Note_off_c, 0, 69, 100
2, 29184, Note_on_c, 0, 81, 82
2, 29184, Note_on_c, 0, 66, 82
2, 29184, Note_on_c, 0, 62, 82
2, 29200, Note_off_c, 0, 81, 100
2, 29208, Note_on_c, 0, 83, 82
2, 29232, Note_off_c, 0, 83, 100
2, 29232, Note_on_c, 0, 81, 82
2, 29256, Note_off_c, 0, 81, 100
2, 29256, Note_on_c, 0, 83, 82
2, 29280, Note_off_c, 0, 83, 100
2, 29280, Note_on_c, 0, 81, 82
2, 29304, Note_off_c, 0, 81, 100
2, 29304, Note_on_c, 0, 83, 82
2, 29312, Note_off_c, 0, 66, 100
2, 29312, Note_off_c, 0, 62, 100
2, 29328, Note_off_c, 0, 83, 100
2, 29328, Note_on_c, 0, 81, 82
2, 29352, Note_off_c, 0, 81, 100
2, 29352, Note_on_c, 0, 83, 82
2, 29376, Note_off_c, 0, 83, 100
2, 29376, Note_on_c, 0, 81, 82
2, 29376, Note_on_c, 0, 64, 82
2, 29376, Note_on_c, 0, 67, 82
2, 29400, Note_off_c, 0, 81, 100
2, 29400, Note_on_c, 0, 83, 82
2, 29424, Note_off_c, 0, 83, 100
2, 29424, Note_on_c, 0, 81, 82
2, 29448, Note_off_c, 0, 81, 100
2, 29448, Note_on_c, 0, 83, 82
2, 29472, Note_off_c, 0, 64, 100
2, 29472, Note_off_c, 0, 67, 100
2, 29472, Note_off_c, 0, 83, 100
2, 29472, Note_on_c, 0, 81, 82
2, 29496, Note_off_c, 0, 81, 100
2, 29496, Note_on_c, 0, 83, 82
2, 29520, Note_off_c, 0, 83, 100
2, 29520, Note_on_c, 0, 81, 82
2, 29520, Note_on_c, 0, 66, 82
2, 29520, Note_on_c, 0, 62, 82
2, 29544, Note_off_c, 0, 81, 100
2, 29544, Note_on_c, 0, 83, 82
2, 29552, Note_off_c, 0, 66, 100
2, 29552, Note_off_c, 0, 62, 100
2, 29568, Note_off_c, 0, 83, 100
2, 29568, Note_on_c, 0, 64, 82
2, 29568, Note_on_c, 0, 61, 82
2, 29568, Note_on_c, 0, 81, 82
2, 29592, Note_off_c, 0, 81, 100
2, 29592, Note_on_c, 0, 83, 82
2, 29616, Note_off_c, 0, 83, 100
2, 29616, Note_on_c, 0, 81, 82
2, 29640, Note_off_c, 0, 81, 100
2, 29640, Note_on_c, 0, 83, 82
2, 29664, Note_off_c, 0, 83, 100
2, 29664, Note_on_c, 0, 81, 82
2, 29688, Note_off_c, 0, 81, 100
2, 29688, Note_on_c, 0, 83, 82
2, 29696, Note_off_c, 0, 64, 100
2, 29696, Note_off_c, 0, 61, 100
2, 29712, Note_off_c, 0, 83, 100
2, 29712, Note_on_c, 0, 81, 82
2, 29736, Note_off_c, 0, 81, 100
2, 29736, Note_on_c, 0, 83, 82
2, 29760, Note_off_c, 0, 83, 100
2, 29760, Note_on_c, 0, 81, 82
2, 29760, Note_on_c, 0, 66, 82
2, 29760, Note_on_c, 0, 62, 82
2, 29784, Note_off_c, 0, 81, 100
2, 29784, Note_on_c, 0, 83, 82
2, 29808, Note_off_c, 0, 83, 100
2, 29808, Note_on_c, 0, 81, 82
2, 29832, Note_off_c, 0, 81, 100
2, 29832, Note_on_c, 0, 83, 82
2, 29856, Note_off_c, 0, 83, 100
2, 29856, Note_on_c, 0, 81, 82
2, 29880, Note_off_c, 0, 81, 100
2, 29880, Note_on_c, 0, 83, 82
2, 29888, Note_off_c, 0, 66, 100
2, 29888, Note_off_c, 0, 62, 100
2, 29904, Note_off_c, 0, 83, 100
2, 29904, Note_on_c, 0, 81, 82
2, 29928, Note_off_c, 0, 81, 100
2, 29928, Note_on_c, 0, 83, 82
2, 29952, Note_off_c, 0, 83, 100
2, 29952, Note_on_c, 0, 81, 82
2, 29952, Note_on_c, 0, 64, 82
2, 29952, Note_on_c, 0, 67, 82
2, 29976, Note_off_c, 0, 81, 100
2, 29976, Note_on_c, 0, 83, 82
2, 30000, Note_off_c, 0, 83, 100
2, 30000, Note_on_c, 0, 81, 82
2, 30024, Note_off_c, 0, 81, 100
2, 30024, Note_on_c, 0, 83, 82
2, 30048, Note_off_c, 0, 83, 100
2, 30048, Note_on_c, 0, 81, 82
2, 30072, Note_off_c, 0, 81, 100
2, 30072, Note_on_c, 0, 83, 82
2, 30080, Note_off_c, 0, 64, 100
2, 30080, Note_off_c, 0, 67, 100
2, 30096, Note_off_c, 0, 83, 100
2, 30096, Note_on_c, 0, 81, 82
2, 30120, Note_off_c, 0, 81, 100
2, 30120, Note_on_c, 0, 83, 82
2, 30144, Note_off_c, 0, 83, 100
2, 30144, Note_on_c, 0, 81, 82
2, 30144, Note_on_c, 0, 66, 82
2, 30144, Note_on_c, 0, 69, 82
2, 30168, Note_off_c, 0, 81, 100
2, 30168, Note_on_c, 0, 83, 82
2, 30192, Note_off_c, 0, 83, 100
2, 30192, Note_on_c, 0, 81, 82
2, 30216, Note_off_c, 0, 81, 100
2, 30216, Note_on_c, 0, 83, 82
2, 30240, Note_off_c, 0, 83, 100
2, 30240, Note_on_c, 0, 81, 82
2, 30264, Note_off_c, 0, 81, 100
2, 30264, Note_on_c, 0, 83, 82
2, 30272, Note_off_c, 0, 66, 100
2, 30272, Note_off_c, 0, 69, 100
2, 30288, Note_off_c, 0, 83, 100
2, 30288, Note_on_c, 0, 81, 82
2, 30312, Note_off_c, 0, 81, 100
2, 30312, Note_on_c, 0, 83, 82
2, 30336, Note_off_c, 0, 83, 100
2, 30336, Note_on_c, 0, 81, 82
2, 30336, Note_on_c, 0, 64, 82
2, 30336, Note_on_c, 0, 67, 82
2, 30360, Note_off_c, 0, 81, 100
2, 30360, Note_on_c, 0, 83, 82
2, 30384, Note_off_c, 0, 83, 100
2, 30384, Note_on_c, 0, 81, 82
2, 30408, Note_off_c, 0, 81, 100
2, 30408, Note_on_c, 0, 83, 82
2, 30432, Note_off_c, 0, 83, 100
2, 30432, Note_on_c, 0, 81, 82
2, 30456, Note_off_c, 0, 81, 100
2, 30456, Note_on_c, 0, 83, 82
2, 30464, Note_off_c, 0, 64, 100
2, 30464, Note_off_c, 0, 67, 100
2, 30480, Note_off_c, 0, 83, 100
2, 30480, Note_on_c, 0, 81, 82
2, 30504, Note_off_c, 0, 81, 100
2, 30504, Note_on_c, 0, 83, 82
2, 30528, Note_off_c, 0, 83, 100
2, 30528, Note_on_c, 0, 81, 82
2, 30528, Note_on_c, 0, 66, 82
2, 30528, Note_on_c, 0, 62, 82
2, 30552, Note_off_c, 0, 81, 100
2, 30552, Note_on_c, 0, 83, 82
2, 30576, Note_off_c, 0, 83, 100
2, 30576, Note_on_c, 0, 81, 82
2, 30600, Note_off_c, 0, 81, 100
2, 30600, Note_on_c, 0, 83, 82
2, 30624, Note_off_c, 0, 83, 100
2, 30624, Note_on_c, 0, 81, 82
2, 30648, Note_off_c, 0, 81, 100
2, 30648, Note_on_c, 0, 83, 82
2, 30656, Note_off_c, 0, 66, 100
2, 30656, Note_off_c, 0, 62, 100
2, 30672, Note_off_c, 0, 83, 100
2, 30672, Note_on_c, 0, 80, 82
2, 30696, Note_off_c, 0, 80, 100
2, 30696, Note_on_c, 0, 81, 82
2, 30720, Note_off_c, 0, 81, 100
2, 30720, Note_on_c, 0, 86, 90
2, 30720, Note_on_c, 0, 74, 90
2, 30720, Note_on_c, 0, 69, 90
2, 30720, Note_on_c, 0, 66, 90
2, 30848, Note_off_c, 0, 86, 100
2, 30848, Note_off_c, 0, 74, 100
2, 30848, Note_off_c, 0, 69, 100
2, 30848, Note_off_c, 0, 66, 100
2, 30912, Note_on_c, 0, 85, 90
2, 30912, Note_on_c, 0, 73, 90
2, 30912, Note_on_c, 0, 67, 90
2, 30912, Note_on_c, 0, 64, 90
2, 30912, Note_on_c, 0, 70, 90
2, 31040, Note_off_c, 0, 85, 100
2, 31040, Note_off_c, 0, 73, 100
2, 31040, Note_off_c, 0, 67, 100
2, 31040, Note_off_c, 0, 64, 100
2, 31040, Note_off_c, 0, 70, 100
2, 31104, Note_on_c, 0, 83, 90
2, 31104, Note_on_c, 0, 71, 90
2, 31104, Note_on_c, 0, 66, 90
2, 31104, Note_on_c, 0, 62, 90
2, 31232, Note_off_c, 0, 83, 100
2, 31232, Note_off_c, 0, 71, 100
2, 31232, Note_off_c, 0, 66, 100
2, 31232, Note_off_c, 0, 62, 100
2, 31392, Note_on_c, 0, 78, 60
2, 31456, Note_off_c, 0, 78, 100
2, 31488, Note_on_c, 0, 83, 60
2, 31488, Note_on_c, 0, 71, 60
2, 31488, Note_on_c, 0, 66, 60
2, 31488, Note_on_c, 0, 62, 60
2, 31616, Note_off_c, 0, 83, 100
2, 31616, Note_off_c, 0, 71, 100
2, 31616, Note_off_c, 0, 66, 100
2, 31616, Note_off_c, 0, 62, 100
2, 31680, Note_on_c, 0, 81, 60
2, 31680, Note_on_c, 0, 69, 60
2, 31680, Note_on_c, 0, 60, 60
2, 31680, Note_on_c, 0, 66, 60
2, 31680, Note_on_c, 0, 62, 60
2, 31808, Note_off_c, 0, 81, 100
2, 31808, Note_off_c, 0, 69, 100
2, 31808, Note_off_c, 0, 60, 100
2, 31808, Note_off_c, 0, 66, 100
2, 31808, Note_off_c, 0, 62, 100
2, 31872, Note_on_c, 0, 79, 60
2, 31872, Note_on_c, 0, 67, 60
2, 31872, Note_on_c, 0, 62, 60
2, 31872, Note_on_c, 0, 59, 60
2, 32000, Note_off_c, 0, 79, 100
2, 32000, Note_off_c, 0, 67, 100
2, 32000, Note_off_c, 0, 62, 100
2, 32000, Note_off_c, 0, 59, 100
2, 32160, Note_on_c, 0, 74, 90
2, 32224, Note_off_c, 0, 74, 100
2, 32256, Note_on_c, 0, 79, 90
2, 32256, Note_on_c, 0, 67, 90
2, 32384, Note_off_c, 0, 79, 100
2, 32384, Note_off_c, 0, 67, 100
2, 32448, Note_on_c, 0, 78, 90
2, 32448, Note_on_c, 0, 66, 90
2, 32576, Note_off_c, 0, 78, 100
2, 32576, Note_off_c, 0, 66, 100
2, 32640, Note_on_c, 0, 76, 90
2, 32704, Note_off_c, 0, 76, 100
2, 32736, Note_on_c, 0, 83, 90
2, 32800, Note_off_c, 0, 83, 100
2, 32832, Note_on_c, 0, 81, 90
2, 32864, Note_off_c, 0, 81, 100
2, 32880, Note_on_c, 0, 79, 90
2, 32912, Note_off_c, 0, 79, 100
2, 32928, Note_on_c, 0, 78, 90
2, 32960, Note_off_c, 0, 78, 100
2, 32976, Note_on_c, 0, 76, 90
2, 33008, Note_off_c, 0, 76, 100
2, 33024, Note_on_c, 0, 74, 60
2, 33152, Note_off_c, 0, 74, 100
2, 33216, Note_on_c, 0, 76, 60
2, 33344, Note_off_c, 0, 76, 100
2, 33408, Note_on_c, 0, 77, 60
2, 33536, Note_off_c, 0, 77, 100
2, 33600, Note_on_c, 0, 78, 60
2, 33728, Note_off_c, 0, 78, 100
2, 33792, Note_on_c, 0, 86, 90
2, 33792, Note_on_c, 0, 66, 90
2, 33792, Note_on_c, 0, 69, 90
2, 33920, Note_off_c, 0, 86, 100
2, 33920, Note_off_c, 0, 66, 100
2, 33920, Note_off_c, 0, 69, 100
2, 33984, Note_on_c, 0, 85, 90
2, 33984, Note_on_c, 0, 64, 90
2, 33984, Note_on_c, 0, 70, 90
2, 34000, Note_on_c, 0, 67, 90
2, 34112, Note_off_c, 0, 85, 100
2, 34112, Note_off_c, 0, 64, 100
2, 34112, Note_off_c, 0, 70, 100
2, 34128, Note_off_c, 0, 67, 100
2, 34176, Note_on_c, 0, 83, 90
2, 34176, Note_on_c, 0, 71, 90
2, 34176, Note_on_c, 0, 66, 90
2, 34176, Note_on_c, 0, 62, 90
2, 34192, Note_off_c, 0, 83, 100
2, 34200, Note_on_c, 0, 85, 90
2, 34208, Note_on_c, 0, 83, 90
2, 34224, Note_off_c, 0, 85, 100
2, 34232, Note_off_c, 0, 83, 100
2, 34248, Note_on_c, 0, 85, 90
2, 34272, Note_off_c, 0, 85, 100
2, 34272, Note_on_c, 0, 83, 90
2, 34296, Note_off_c, 0, 83, 100
2, 34296, Note_on_c, 0, 85, 90
2, 34304, Note_off_c, 0, 71, 100
2, 34304, Note_off_c, 0, 66, 100
2, 34304, Note_off_c, 0, 62, 100
2, 34320, Note_off_c, 0, 85, 100
2, 34320, Note_on_c, 0, 83, 90
2, 34344, Note_off_c, 0, 83, 100
2, 34344, Note_on_c, 0, 85, 90
2, 34368, Note_off_c, 0, 85, 100
2, 34368, Note_on_c, 0, 83, 90
2, 34392, Note_off_c, 0, 83, 100
2, 34392, Note_on_c, 0, 85, 90
2, 34416, Note_off_c, 0, 85, 100
2, 34464, Note_on_c, 0, 78, 60
2, 34528, Note_off_c, 0, 78, 100
2, 34560, Note_on_c, 0, 83, 60
2, 34560, Note_on_c, 0, 66, 60
2, 34560, Note_on_c, 0, 62, 60
2, 34688, Note_off_c, 0, 83, 100
2, 34688, Note_off_c, 0, 66, 100
2, 34688, Note_off_c, 0, 62, 100
2, 34752, Note_on_c, 0, 81, 60
2, 34752, Note_on_c, 0, 66, 60
2, 34752, Note_on_c, 0, 60, 60
2, 34752, Note_on_c, 0, 62, 60
2, 34880, Note_off_c, 0, 81, 100
2, 34880, Note_off_c, 0, 66, 100
2, 34880, Note_off_c, 0, 60, 100
2, 34880, Note_off_c, 0, 62, 100
2, 34944, Note_on_c, 0, 67, 60
2, 34944, Note_on_c, 0, 62, 60
2, 34944, Note_on_c, 0, 59, 60
2, 34944, Note_on_c, 0, 79, 60
2, 34968, Note_off_c, 0, 79, 100
2, 34968, Note_on_c, 0, 81, 60
2, 34992, Note_off_c, 0, 81, 100
2, 34992, Note_on_c, 0, 79, 60
2, 35016, Note_off_c, 0, 79, 100
2, 35016, Note_on_c, 0, 81, 60
2, 35040, Note_off_c, 0, 81, 100
2, 35040, Note_on_c, 0, 79, 60
2, 35064, Note_off_c, 0, 79, 100
2, 35064, Note_on_c, 0, 81, 60
2, 35072, Note_off_c, 0, 67, 100
2, 35072, Note_off_c, 0, 62, 100
2, 35072, Note_off_c, 0, 59, 100
2, 35088, Note_off_c, 0, 81, 100
2, 35088, Note_on_c, 0, 79, 60
2, 35112, Note_off_c, 0, 79, 100
2, 35112, Note_on_c, 0, 81, 60
2, 35136, Note_off_c, 0, 81, 100
2, 35136, Note_on_c, 0, 79, 60
2, 35160, Note_off_c, 0, 79, 100
2, 35160, Note_on_c, 0, 81, 60
2, 35184, Note_off_c, 0, 81, 100
2, 35232, Note_on_c, 0, 74, 90
2, 35296, Note_off_c, 0, 74, 100
2, 35328, Note_on_c, 0, 79, 90
2, 35456, Note_off_c, 0, 79, 100
2, 35520, Note_on_c, 0, 78, 90
2, 35648, Note_off_c, 0, 78, 100
2, 35712, Note_on_c, 0, 76, 90
2, 35776, Note_off_c, 0, 76, 100
2, 35808, Note_on_c, 0, 83, 90
2, 35872, Note_off_c, 0, 83, 100
2, 35920, Note_on_c, 0, 81, 90
2, 35952, Note_off_c, 0, 81, 100
2, 35952, Note_on_c, 0, 79, 90
2, 35984, Note_off_c, 0, 79, 100
2, 36000, Note_on_c, 0, 78, 90
2, 36032, Note_off_c, 0, 78, 100
2, 36048, Note_on_c, 0, 76, 90
2, 36080, Note_off_c, 0, 76, 100
2, 36096, Note_on_c, 0, 74, 60
2, 36160, Note_off_c, 0, 74, 100
2, 36192, Note_on_c, 0, 78, 60
2, 36256, Note_off_c, 0, 78, 100
2, 36288, Note_on_c, 0, 81, 60
2, 36416, Note_off_c, 0, 81, 100
2, 36480, Note_on_c, 0, 81, 60
2, 36544, Note_off_c, 0, 81, 100
2, 36576, Note_on_c, 0, 80, 60
2, 36640, Note_off_c, 0, 80, 100
2, 36672, Note_on_c, 0, 79, 60
2, 36736, Note_off_c, 0, 79, 100
2, 36768, Note_on_c, 0, 78, 60
2, 36832, Note_off_c, 0, 78, 100
2, 36864, Note_on_c, 0, 83, 60
2, 36928, Note_off_c, 0, 83, 100
2, 36960, Note_on_c, 0, 79, 60
2, 37024, Note_off_c, 0, 79, 100
2, 37056, Note_on_c, 0, 76, 60
2, 37120, Note_off_c, 0, 76, 100
2, 37200, Note_on_c, 0, 78, 60
2, 37232, Note_off_c, 0, 78, 100
2, 37248, Note_on_c, 0, 76, 60
2, 37272, Note_off_c, 0, 76, 100
2, 37272, Note_on_c, 0, 78, 60
2, 37296, Note_off_c, 0, 78, 100
2, 37296, Note_on_c, 0, 76, 60
2, 37320, Note_off_c, 0, 76, 100
2, 37320, Note_on_c, 0, 78, 60
2, 37344, Note_off_c, 0, 78, 100
2, 37344, Note_on_c, 0, 76, 60
2, 37368, Note_off_c, 0, 76, 100
2, 37368, Note_on_c, 0, 78, 60
2, 37392, Note_off_c, 0, 78, 100
2, 37392, Note_on_c, 0, 76, 60
2, 37416, Note_off_c, 0, 76, 100
2, 37416, Note_on_c, 0, 78, 60
2, 37440, Note_off_c, 0, 78, 100
2, 37440, Note_on_c, 0, 76, 60
2, 37464, Note_off_c, 0, 76, 100
2, 37464, Note_on_c, 0, 78, 60
2, 37488, Note_off_c, 0, 78, 100
2, 37488, Note_on_c, 0, 76, 60
2, 37512, Note_off_c, 0, 76, 100
2, 37512, Note_on_c, 0, 78, 60
2, 37536, Note_off_c, 0, 78, 100
2, 37536, Note_on_c, 0, 76, 60
2, 37560, Note_off_c, 0, 76, 100
2, 37560, Note_on_c, 0, 78, 60
2, 37584, Note_off_c, 0, 78, 100
2, 37584, Note_on_c, 0, 74, 60
2, 37608, Note_off_c, 0, 74, 100
2, 37608, Note_on_c, 0, 76, 60
2, 37632, Note_off_c, 0, 76, 100
2, 37632, Note_on_c, 0, 74, 60
2, 37696, Note_off_c, 0, 74, 100
2, 37728, Note_on_c, 0, 73, 60
2, 37792, Note_off_c, 0, 73, 100
2, 37824, Note_on_c, 0, 74, 60
2, 37888, Note_off_c, 0, 74, 100
2, 37920, Note_on_c, 0, 76, 60
2, 37984, Note_off_c, 0, 76, 100
2, 38016, Note_on_c, 0, 74, 60
2, 38080, Note_off_c, 0, 74, 100
2, 38112, Note_on_c, 0, 72, 60
2, 38176, Note_off_c, 0, 72, 100
2, 38208, Note_on_c, 0, 71, 60
2, 38272, Note_off_c, 0, 71, 100
2, 38304, Note_on_c, 0, 70, 60
2, 38368, Note_off_c, 0, 70, 100
2, 38400, Note_on_c, 0, 71, 60
2, 38528, Note_off_c, 0, 71, 100
2, 38592, Note_on_c, 0, 72, 60
2, 38688, Note_off_c, 0, 72, 100
2, 38736, Note_on_c, 0, 71, 60
2, 38768, Note_off_c, 0, 71, 100
2, 38784, Note_on_c, 0, 69, 60
2, 38912, Note_off_c, 0, 69, 100
2, 38976, Note_on_c, 0, 71, 60
2, 39104, Note_off_c, 0, 71, 100
2, 39168, Note_on_c, 0, 72, 60
2, 39264, Note_on_c, 0, 74, 60
2, 39288, Note_off_c, 0, 74, 100
2, 39288, Note_on_c, 0, 72, 60
2, 39296, Note_off_c, 0, 72, 100
2, 39312, Note_off_c, 0, 72, 100
2, 39312, Note_on_c, 0, 71, 60
2, 39336, Note_off_c, 0, 71, 100
2, 39336, Note_on_c, 0, 72, 60
2, 39360, Note_off_c, 0, 72, 100
2, 39360, Note_on_c, 0, 76, 60
2, 39424, Note_off_c, 0, 76, 100
2, 39456, Note_on_c, 0, 74, 60
2, 39520, Note_off_c, 0, 74, 100
2, 39552, Note_on_c, 0, 72, 60
2, 39680, Note_off_c, 0, 72, 100
2, 39744, Note_on_c, 0, 71, 60
2, 39872, Note_off_c, 0, 71, 100
2, 39936, Note_on_c, 0, 72, 90
2, 39936, Note_on_c, 0, 67, 90
2, 40064, Note_off_c, 0, 72, 100
2, 40064, Note_off_c, 0, 67, 100
2, 40128, Note_on_c, 0, 71, 90
2, 40128, Note_on_c, 0, 67, 90
2, 40256, Note_off_c, 0, 71, 100
2, 40256, Note_off_c, 0, 67, 100
2, 40320, Note_on_c, 0, 76, 90
2, 40320, Note_on_c, 0, 67, 90
2, 40448, Note_off_c, 0, 76, 100
2, 40448, Note_off_c, 0, 67, 100
2, 40608, Note_on_c, 0, 74, 60
2, 40608, Note_on_c, 0, 67, 60
2, 40672, Note_off_c, 0, 74, 100
2, 40672, Note_off_c, 0, 67, 100
2, 40704, Note_on_c, 0, 72, 60
2, 40768, Note_off_c, 0, 72, 100
2, 40800, Note_on_c, 0, 69, 60
2, 40864, Note_off_c, 0, 69, 100
2, 40896, Note_on_c, 0, 71, 60
2, 40960, Note_off_c, 0, 71, 100
2, 40992, Note_on_c, 0, 67, 60
2, 41056, Note_off_c, 0, 67, 100
2, 41088, Note_on_c, 0, 71, 60
2, 41216, Note_off_c, 0, 71, 100
2, 41280, Note_on_c, 0, 69, 60
2, 41408, Note_off_c, 0, 69, 100
2, 41472, Note_on_c, 0, 71, 60
2, 41568, Note_on_c, 0, 72, 60
2, 41592, Note_off_c, 0, 72, 100
2, 41592, Note_on_c, 0, 71, 60
2, 41600, Note_off_c, 0, 71, 100
2, 41616, Note_off_c, 0, 71, 100
2, 41616, Note_on_c, 0, 69, 60
2, 41640, Note_off_c, 0, 69, 100
2, 41640, Note_on_c, 0, 71, 60
2, 41664, Note_off_c, 0, 71, 100
2, 41664, Note_on_c, 0, 72, 60
2, 41760, Note_off_c, 0, 72, 100
2, 41808, Note_on_c, 0, 71, 60
2, 41840, Note_off_c, 0, 71, 100
2, 41856, Note_on_c, 0, 69, 60
2, 41984, Note_off_c, 0, 69, 100
2, 42048, Note_on_c, 0, 71, 60
2, 42176, Note_off_c, 0, 71, 100
2, 42240, Note_on_c, 0, 72, 60
2, 42304, Note_off_c, 0, 72, 100
2, 42336, Note_on_c, 0, 73, 60
2, 42400, Note_off_c, 0, 73, 100
2, 42432, Note_on_c, 0, 76, 60
2, 42496, Note_off_c, 0, 76, 100
2, 42512, Note_on_c, 0, 74, 60
2, 42576, Note_off_c, 0, 74, 100
2, 42624, Note_on_c, 0, 72, 60
2, 42688, Note_off_c, 0, 72, 100
2, 42720, Note_on_c, 0, 74, 60
2, 42752, Note_off_c, 0, 74, 100
2, 42768, Note_on_c, 0, 72, 60
2, 42800, Note_off_c, 0, 72, 100
2, 42816, Note_on_c, 0, 71, 60
2, 42944, Note_off_c, 0, 71, 100
2, 43008, Note_on_c, 0, 72, 90
2, 43008, Note_on_c, 0, 67, 90
2, 43136, Note_off_c, 0, 72, 100
2, 43136, Note_off_c, 0, 67, 100
2, 43184, Note_on_c, 0, 67, 90
2, 43200, Note_on_c, 0, 71, 90
2, 43312, Note_off_c, 0, 67, 100
2, 43328, Note_off_c, 0, 71, 100
2, 43392, Note_on_c, 0, 67, 90
2, 43392, Note_on_c, 0, 76, 90
2, 43456, Note_off_c, 0, 76, 100
2, 43488, Note_on_c, 0, 78, 90
2, 43520, Note_off_c, 0, 67, 100
2, 43552, Note_off_c, 0, 78, 100
2, 43584, Note_on_c, 0, 79, 90
2, 43648, Note_off_c, 0, 79, 100
2, 43680, Note_on_c, 0, 72, 60
2, 43744, Note_off_c, 0, 72, 100
2, 43776, Note_on_c, 0, 71, 60
2, 43904, Note_off_c, 0, 71, 100
2, 43968, Note_on_c, 0, 69, 60
2, 44096, Note_off_c, 0, 69, 100
2, 44160, Note_on_c, 0, 67, 60
2, 44184, Note_off_c, 0, 67, 100
2, 44184, Note_on_c, 0, 69, 60
2, 44208, Note_off_c, 0, 69, 100
2, 44208, Note_on_c, 0, 67, 60
2, 44232, Note_off_c, 0, 67, 100
2, 44232, Note_on_c, 0, 69, 60
2, 44256, Note_off_c, 0, 69, 100
2, 44256, Note_on_c, 0, 67, 60
2, 44280, Note_off_c, 0, 67, 100
2, 44280, Note_on_c, 0, 69, 60
2, 44304, Note_off_c, 0, 69, 100
2, 44304, Note_on_c, 0, 67, 60
2, 44328, Note_off_c, 0, 67, 100
2, 44328, Note_on_c, 0, 69, 60
2, 44352, Note_off_c, 0, 69, 100
2, 44352, Note_on_c, 0, 67, 60
2, 44376, Note_off_c, 0, 67, 100
2, 44376, Note_on_c, 0, 69, 60
2, 44400, Note_off_c, 0, 69, 100
2, 44400, Note_on_c, 0, 67, 60
2, 44424, Note_off_c, 0, 67, 100
2, 44424, Note_on_c, 0, 69, 60
2, 44448, Note_off_c, 0, 69, 100
2, 44448, Note_on_c, 0, 67, 60
2, 44472, Note_off_c, 0, 67, 100
2, 44472, Note_on_c, 0, 69, 60
2, 44496, Note_off_c, 0, 69, 100
2, 44496, Note_on_c, 0, 67, 60
2, 44520, Note_off_c, 0, 67, 100
2, 44520, Note_on_c, 0, 69, 60
2, 44544, Note_off_c, 0, 69, 100
2, 44544, Note_on_c, 0, 71, 60
2, 44672, Note_off_c, 0, 71, 100
2, 44736, Note_on_c, 0, 69, 60
2, 44864, Note_off_c, 0, 69, 100
2, 44928, Note_on_c, 0, 67, 60
2, 44992, Note_off_c, 0, 67, 100
2, 45024, Note_on_c, 0, 66, 60
2, 45088, Note_off_c, 0, 66, 100
2, 45120, Note_on_c, 0, 64, 60
2, 45184, Note_off_c, 0, 64, 100
2, 45216, Note_on_c, 0, 62, 60
2, 45280, Note_off_c, 0, 62, 100
2, 45312, Note_on_c, 0, 71, 60
2, 45568, Note_off_c, 0, 71, 100
2, 45696, Note_on_c, 0, 67, 60
2, 45888, Note_off_c, 0, 67, 100
2, 45984, Note_on_c, 0, 67, 60
2, 46048, Note_off_c, 0, 67, 100
2, 46080, Note_on_c, 0, 71, 60
2, 46144, Note_off_c, 0, 71, 100
2, 46176, Note_on_c, 0, 69, 60
2, 46240, Note_off_c, 0, 69, 100
2, 46272, Note_on_c, 0, 69, 60
2, 46400, Note_off_c, 0, 69, 100
2, 46464, Note_on_c, 0, 67, 60
2, 46528, Note_off_c, 0, 67, 100
2, 46560, Note_on_c, 0, 66, 60
2, 46624, Note_off_c, 0, 66, 100
2, 46656, Note_on_c, 0, 64, 60
2, 46720, Note_off_c, 0, 64, 100
2, 46752, Note_on_c, 0, 62, 60
2, 46816, Note_off_c, 0, 62, 100
2, 46848, Note_on_c, 0, 67, 60
2, 47104, Note_off_c, 0, 67, 100
2, 47232, Note_on_c, 0, 79, 90
2, 47232, Note_on_c, 0, 67, 90
2, 47232, Note_on_c, 0, 73, 90
2, 47360, Note_off_c, 0, 79, 100
2, 47360, Note_off_c, 0, 67, 100
2, 47360, Note_off_c, 0, 73, 100
2, 47424, Note_on_c, 0, 79, 90
2, 47424, Note_on_c, 0, 73, 90
2, 47424, Note_on_c, 0, 67, 90
2, 47552, Note_off_c, 0, 79, 100
2, 47552, Note_off_c, 0, 73, 100
2, 47552, Note_off_c, 0, 67, 100
2, 47616, Note_on_c, 0, 79, 90
2, 47616, Note_on_c, 0, 73, 90
2, 47616, Note_on_c, 0, 67, 90
2, 47872, Note_off_c, 0, 79, 100
2, 47872, Note_off_c, 0, 73, 100
2, 47872, Note_off_c, 0, 67, 100
2, 48000, Note_on_c, 0, 86, 60
2, 48000, Note_on_c, 0, 78, 60
2, 48128, Note_off_c, 0, 86, 100
2, 48128, Note_off_c, 0, 78, 100
2, 48192, Note_on_c, 0, 86, 60
2, 48192, Note_on_c, 0, 78, 60
2, 48320, Note_off_c, 0, 86, 100
2, 48320, Note_off_c, 0, 78, 100
2, 48384, Note_on_c, 0, 78, 60
2, 48384, Note_on_c, 0, 86, 60
2, 48640, Note_off_c, 0, 78, 100
2, 48640, Note_off_c, 0, 86, 100
2, 48960, Note_on_c, 0, 71, 82
2, 49008, Note_on_c, 0, 69, 82
2, 49032, Note_off_c, 0, 69, 100
2, 49032, Note_on_c, 0, 71, 82
2, 49056, Note_off_c, 0, 71, 100
2, 49056, Note_off_c, 0, 71, 100
2, 49056, Note_on_c, 0, 69, 82
2, 49080, Note_off_c, 0, 69, 100
2, 49080, Note_on_c, 0, 71, 82
2, 49104, Note_off_c, 0, 71, 100
2, 49104, Note_on_c, 0, 72, 82
2, 49136, Note_off_c, 0, 72, 100
2, 49152, Note_on_c, 0, 74, 82
2, 49280, Note_off_c, 0, 74, 100
2, 49344, Note_on_c, 0, 74, 82
2, 49472, Note_off_c, 0, 74, 100
2, 49536, Note_on_c, 0, 74, 82
2, 49600, Note_off_c, 0, 74, 100
2, 49632, Note_on_c, 0, 74, 82
2, 49696, Note_off_c, 0, 74, 100
2, 49728, Note_on_c, 0, 74, 75
2, 49752, Note_off_c, 0, 74, 0
2, 49752, Note_on_c, 0, 76, 75
2, 49776, Note_off_c, 0, 76, 0
2, 49776, Note_on_c, 0, 74, 75
2, 49800, Note_off_c, 0, 74, 0
2, 49800, Note_on_c, 0, 76, 75
2, 49824, Note_off_c, 0, 76, 0
2, 49824, Note_on_c, 0, 72, 75
2, 49848, Note_off_c, 0, 72, 0
2, 49848, Note_on_c, 0, 74, 75
2, 49872, Note_off_c, 0, 74, 0
2, 49872, Note_on_c, 0, 76, 82
2, 49904, Note_off_c, 0, 76, 100
2, 49920, Note_on_c, 0, 74, 82
2, 49984, Note_off_c, 0, 74, 100
2, 50016, Note_on_c, 0, 72, 82
2, 50080, Note_off_c, 0, 72, 100
2, 50112, Note_on_c, 0, 72, 82
2, 50304, Note_off_c, 0, 72, 100
2, 50400, Note_on_c, 0, 72, 82
2, 50464, Note_off_c, 0, 72, 100
2, 50496, Note_on_c, 0, 71, 82
2, 50560, Note_off_c, 0, 71, 100
2, 50576, Note_on_c, 0, 69, 82
2, 50640, Note_off_c, 0, 69, 100
2, 50688, Note_on_c, 0, 69, 82
2, 50752, Note_off_c, 0, 69, 100
2, 50784, Note_on_c, 0, 74, 82
2, 50848, Note_off_c, 0, 74, 100
2, 50848, Note_on_c, 0, 74, 82
2, 50976, Note_off_c, 0, 74, 100
2, 51072, Note_on_c, 0, 74, 82
2, 51136, Note_off_c, 0, 74, 100
2, 51168, Note_on_c, 0, 76, 82
2, 51200, Note_off_c, 0, 76, 100
2, 51216, Note_on_c, 0, 74, 82
2, 51248, Note_off_c, 0, 74, 100
2, 51248, Note_on_c, 0, 74, 82
2, 51280, Note_off_c, 0, 74, 100
2, 51312, Note_on_c, 0, 72, 82
2, 51344, Note_off_c, 0, 72, 100
2, 51360, Note_on_c, 0, 71, 82
2, 51392, Note_off_c, 0, 71, 100
2, 51408, Note_on_c, 0, 72, 82
2, 51440, Note_off_c, 0, 72, 100
2, 51456, Note_on_c, 0, 72, 82
2, 51548, Note_off_c, 0, 72, 100
2, 51552, Note_on_c, 0, 71, 82
2, 51644, Note_off_c, 0, 71, 100
2, 51648, Note_on_c, 0, 71, 82
2, 51836, Note_off_c, 0, 71, 100
2, 51840, Note_on_c, 0, 71, 82
2, 51884, Note_off_c, 0, 71, 100
2, 51888, Note_on_c, 0, 72, 82
2, 51932, Note_off_c, 0, 72, 100
2, 51936, Note_on_c, 0, 74, 82
2, 52028, Note_off_c, 0, 74, 100
2, 52032, Note_on_c, 0, 72, 82
2, 52124, Note_off_c, 0, 72, 100
2, 52128, Note_on_c, 0, 71, 82
2, 52220, Note_off_c, 0, 71, 100
2, 52224, Note_on_c, 0, 71, 82
2, 52316, Note_off_c, 0, 71, 100
2, 52320, Note_on_c, 0, 69, 82
2, 52412, Note_off_c, 0, 69, 100
2, 52416, Note_on_c, 0, 69, 82
2, 52508, Note_off_c, 0, 69, 100
2, 52512, Note_on_c, 0, 69, 82
2, 52604, Note_off_c, 0, 69, 100
2, 52608, Note_on_c, 0, 69, 82
2, 52796, Note_off_c, 0, 69, 100
2, 52800, Note_on_c, 0, 69, 82
2, 52988, Note_off_c, 0, 69, 100
2, 52992, Note_on_c, 0, 73, 82
2, 53028, Note_off_c, 0, 73, 100
2, 53040, Note_on_c, 0, 74, 82
2, 53076, Note_off_c, 0, 74, 100
2, 53088, Note_on_c, 0, 76, 82
2, 53124, Note_off_c, 0, 76, 100
2, 53136, Note_on_c, 0, 74, 82
2, 53376, Note_on_c, 0, 74, 82
2, 53456, Note_off_c, 0, 74, 100
2, 53468, Note_off_c, 0, 74, 100
2, 53472, Note_on_c, 0, 76, 82
2, 53516, Note_off_c, 0, 76, 100
2, 53520, Note_on_c, 0, 74, 82
2, 53564, Note_off_c, 0, 74, 100
2, 53568, Note_on_c, 0, 72, 82
2, 53660, Note_off_c, 0, 72, 100
2, 53664, Note_on_c, 0, 71, 82
2, 53756, Note_off_c, 0, 71, 100
2, 53760, Note_on_c, 0, 71, 82
2, 53852, Note_off_c, 0, 71, 100
2, 53856, Note_on_c, 0, 69, 82
2, 53948, Note_off_c, 0, 69, 100
2, 53952, Note_on_c, 0, 68, 82
2, 54044, Note_off_c, 0, 68, 100
2, 54048, Note_on_c, 0, 69, 82
2, 54140, Note_off_c, 0, 69, 100
2, 54144, Note_on_c, 0, 71, 82
2, 54236, Note_off_c, 0, 71, 100
2, 54240, Note_on_c, 0, 72, 82
2, 54332, Note_off_c, 0, 72, 100
2, 54336, Note_on_c, 0, 64, 82
2, 54428, Note_off_c, 0, 64, 100
2, 54432, Note_on_c, 0, 69, 82
2, 54524, Note_off_c, 0, 69, 100
2, 54528, Note_on_c, 0, 67, 82
2, 54620, Note_off_c, 0, 67, 100
2, 54624, Note_on_c, 0, 66, 82
2, 54716, Note_off_c, 0, 66, 100
2, 54720, Note_on_c, 0, 64, 82
2, 54812, Note_off_c, 0, 64, 100
2, 54816, Note_on_c, 0, 62, 82
2, 54908, Note_off_c, 0, 62, 100
2, 54912, Note_on_c, 0, 64, 82
2, 55004, Note_off_c, 0, 64, 100
2, 55008, Note_on_c, 0, 66, 82
2, 55100, Note_off_c, 0, 66, 100
2, 55104, Note_on_c, 0, 67, 82
2, 55196, Note_off_c, 0, 67, 100
2, 55200, Note_on_c, 0, 69, 82
2, 55292, Note_off_c, 0, 69, 100
2, 55296, Note_on_c, 0, 71, 60
2, 55296, Note_on_c, 0, 67, 60
2, 55392, Note_on_c, 0, 62, 60
2, 55424, Note_off_c, 0, 67, 100
2, 55440, Note_on_c, 0, 74, 60
2, 55484, Note_off_c, 0, 71, 100
2, 55484, Note_off_c, 0, 74, 100
2, 55488, Note_on_c, 0, 72, 60
2, 55488, Note_on_c, 0, 67, 60
2, 55520, Note_off_c, 0, 62, 100
2, 55580, Note_off_c, 0, 67, 100
2, 55584, Note_on_c, 0, 62, 60
2, 55616, Note_off_c, 0, 72, 100
2, 55632, Note_on_c, 0, 71, 60
2, 55676, Note_off_c, 0, 62, 100
2, 55676, Note_off_c, 0, 71, 100
2, 55680, Note_on_c, 0, 69, 60
2, 55680, Note_on_c, 0, 66, 60
2, 55772, Note_off_c, 0, 66, 100
2, 55776, Note_on_c, 0, 62, 60
2, 55868, Note_off_c, 0, 69, 100
2, 55868, Note_off_c, 0, 62, 100
2, 55872, Note_on_c, 0, 71, 60
2, 55872, Note_on_c, 0, 67, 60
2, 55964, Note_off_c, 0, 67, 100
2, 55968, Note_on_c, 0, 62, 60
2, 56000, Note_off_c, 0, 71, 100
2, 56060, Note_off_c, 0, 62, 100
2, 56064, Note_on_c, 0, 72, 60
2, 56064, Note_on_c, 0, 69, 60
2, 56156, Note_off_c, 0, 69, 100
2, 56160, Note_on_c, 0, 62, 60
2, 56192, Note_off_c, 0, 72, 100
2, 56252, Note_off_c, 0, 62, 100
2, 56256, Note_on_c, 0, 74, 60
2, 56256, Note_on_c, 0, 66, 60
2, 56348, Note_off_c, 0, 66, 100
2, 56352, Note_on_c, 0, 62, 60
2, 56384, Note_off_c, 0, 74, 100
2, 56444, Note_off_c, 0, 62, 100
2, 56448, Note_on_c, 0, 72, 60
2, 56448, Note_on_c, 0, 67, 60
2, 56540, Note_off_c, 0, 67, 100
2, 56544, Note_on_c, 0, 62, 60
2, 56576, Note_off_c, 0, 72, 100
2, 56636, Note_off_c, 0, 62, 100
2, 56640, Note_on_c, 0, 71, 60
2, 56640, Note_on_c, 0, 67, 60
2, 56732, Note_off_c, 0, 67, 100
2, 56736, Note_on_c, 0, 62, 60
2, 56768, Note_off_c, 0, 71, 100
2, 56828, Note_off_c, 0, 62, 100
2, 56832, Note_on_c, 0, 86, 82
2, 56856, Note_off_c, 0, 86, 100
2, 56856, Note_on_c, 0, 88, 82
2, 56880, Note_off_c, 0, 88, 100
2, 56880, Note_on_c, 0, 86, 82
2, 56904, Note_off_c, 0, 86, 100
2, 56904, Note_on_c, 0, 88, 82
2, 56928, Note_off_c, 0, 88, 100
2, 56928, Note_on_c, 0, 88, 82
2, 56952, Note_off_c, 0, 88, 100
2, 56952, Note_on_c, 0, 86, 82
2, 56976, Note_off_c, 0, 86, 100
2, 56976, Note_on_c, 0, 86, 82
2, 57000, Note_off_c, 0, 86, 100
2, 57000, Note_on_c, 0, 88, 82
2, 57024, Note_off_c, 0, 88, 100
2, 57024, Note_on_c, 0, 86, 82
2, 57048, Note_off_c, 0, 86, 100
2, 57048, Note_on_c, 0, 88, 82
2, 57072, Note_off_c, 0, 88, 100
2, 57072, Note_on_c, 0, 86, 82
2, 57096, Note_off_c, 0, 86, 100
2, 57096, Note_on_c, 0, 88, 82
2, 57120, Note_off_c, 0, 88, 100
2, 57120, Note_on_c, 0, 88, 82
2, 57144, Note_off_c, 0, 88, 100
2, 57144, Note_on_c, 0, 86, 82
2, 57168, Note_off_c, 0, 86, 100
2, 57168, Note_on_c, 0, 86, 82
2, 57192, Note_off_c, 0, 86, 100
2, 57192, Note_on_c, 0, 88, 82
2, 57216, Note_off_c, 0, 88, 100
2, 57216, Note_on_c, 0, 86, 82
2, 57240, Note_off_c, 0, 86, 100
2, 57240, Note_on_c, 0, 88, 82
2, 57264, Note_off_c, 0, 88, 100
2, 57264, Note_on_c, 0, 86, 82
2, 57288, Note_off_c, 0, 86, 100
2, 57288, Note_on_c, 0, 88, 82
2, 57312, Note_off_c, 0, 88, 100
2, 57312, Note_on_c, 0, 86, 82
2, 57336, Note_off_c, 0, 86, 100
2, 57336, Note_on_c, 0, 88, 82
2, 57360, Note_off_c, 0, 88, 100
2, 57360, Note_on_c, 0, 86, 82
2, 57384, Note_off_c, 0, 86, 100
2, 57384, Note_on_c, 0, 88, 82
2, 57408, Note_off_c, 0, 88, 100
2, 57408, Note_on_c, 0, 86, 82
2, 57432, Note_off_c, 0, 86, 100
2, 57432, Note_on_c, 0, 88, 82
2, 57456, Note_off_c, 0, 88, 100
2, 57456, Note_on_c, 0, 86, 82
2, 57480, Note_off_c, 0, 86, 100
2, 57480, Note_on_c, 0, 88, 82
2, 57504, Note_off_c, 0, 88, 100
2, 57504, Note_on_c, 0, 86, 82
2, 57528, Note_off_c, 0, 86, 100
2, 57528, Note_on_c, 0, 88, 82
2, 57552, Note_off_c, 0, 88, 100
2, 57552, Note_on_c, 0, 86, 82
2, 57576, Note_off_c, 0, 86, 100
2, 57576, Note_on_c, 0, 88, 82
2, 57600, Note_off_c, 0, 88, 100
2, 57600, Note_on_c, 0, 86, 82
2, 57624, Note_off_c, 0, 86, 100
2, 57624, Note_on_c, 0, 88, 82
2, 57648, Note_off_c, 0, 88, 100
2, 57648, Note_on_c, 0, 86, 82
2, 57672, Note_off_c, 0, 86, 100
2, 57672, Note_on_c, 0, 88, 82
2, 57696, Note_off_c, 0, 88, 100
2, 57696, Note_on_c, 0, 86, 82
2, 57720, Note_off_c, 0, 86, 100
2, 57720, Note_on_c, 0, 88, 82
2, 57744, Note_off_c, 0, 88, 100
2, 57744, Note_on_c, 0, 86, 82
2, 57768, Note_off_c, 0, 86, 100
2, 57768, Note_on_c, 0, 88, 82
2, 57792, Note_off_c, 0, 88, 100
2, 57792, Note_on_c, 0, 86, 82
2, 57816, Note_off_c, 0, 86, 100
2, 57816, Note_on_c, 0, 88, 82
2, 57840, Note_off_c, 0, 88, 100
2, 57840, Note_on_c, 0, 86, 82
2, 57864, Note_off_c, 0, 86, 100
2, 57864, Note_on_c, 0, 88, 82
2, 57888, Note_off_c, 0, 88, 100
2, 57888, Note_on_c, 0, 86, 82
2, 57912, Note_off_c, 0, 86, 100
2, 57912, Note_on_c, 0, 88, 82
2, 57936, Note_off_c, 0, 88, 100
2, 57936, Note_on_c, 0, 86, 82
2, 57960, Note_off_c, 0, 86, 100
2, 57960, Note_on_c, 0, 88, 82
2, 57984, Note_off_c, 0, 88, 100
2, 57984, Note_on_c, 0, 86, 82
2, 58008, Note_off_c, 0, 86, 100
2, 58008, Note_on_c, 0, 88, 82
2, 58032, Note_off_c, 0, 88, 100
2, 58032, Note_on_c, 0, 86, 82
2, 58056, Note_off_c, 0, 86, 100
2, 58056, Note_on_c, 0, 88, 82
2, 58080, Note_off_c, 0, 88, 100
2, 58080, Note_on_c, 0, 86, 82
2, 58104, Note_off_c, 0, 86, 100
2, 58104, Note_on_c, 0, 88, 82
2, 58128, Note_off_c, 0, 88, 100
2, 58128, Note_on_c, 0, 86, 82
2, 58152, Note_off_c, 0, 86, 100
2, 58152, Note_on_c, 0, 88, 82
2, 58176, Note_off_c, 0, 88, 100
2, 58176, Note_on_c, 0, 86, 82
2, 58200, Note_off_c, 0, 86, 100
2, 58200, Note_on_c, 0, 88, 82
2, 58224, Note_off_c, 0, 88, 100
2, 58224, Note_on_c, 0, 86, 82
2, 58248, Note_off_c, 0, 86, 100
2, 58248, Note_on_c, 0, 88, 82
2, 58272, Note_off_c, 0, 88, 100
2, 58272, Note_on_c, 0, 86, 82
2, 58296, Note_off_c, 0, 86, 100
2, 58296, Note_on_c, 0, 88, 82
2, 58320, Note_off_c, 0, 88, 100
2, 58320, Note_on_c, 0, 84, 82
2, 58344, Note_off_c, 0, 84, 100
2, 58344, Note_on_c, 0, 86, 82
2, 58368, Note_off_c, 0, 86, 100
2, 58368, Note_on_c, 0, 79, 90
2, 58368, Note_on_c, 0, 67, 90
2, 58496, Note_off_c, 0, 79, 100
2, 58496, Note_off_c, 0, 67, 100
2, 58560, Note_on_c, 0, 78, 90
2, 58560, Note_on_c, 0, 66, 90
2, 58688, Note_off_c, 0, 78, 100
2, 58688, Note_off_c, 0, 66, 100
2, 58752, Note_on_c, 0, 64, 90
2, 58752, Note_on_c, 0, 76, 90
2, 58880, Note_off_c, 0, 64, 100
2, 58880, Note_off_c, 0, 76, 100
2, 59040, Note_on_c, 0, 71, 60
2, 59104, Note_off_c, 0, 71, 100
2, 59136, Note_on_c, 0, 76, 60
2, 59136, Note_on_c, 0, 64, 60
2, 59264, Note_off_c, 0, 76, 100
2, 59264, Note_off_c, 0, 64, 100
2, 59328, Note_on_c, 0, 74, 60
2, 59328, Note_on_c, 0, 62, 60
2, 59456, Note_off_c, 0, 74, 100
2, 59456, Note_off_c, 0, 62, 100
2, 59520, Note_on_c, 0, 72, 60
2, 59520, Note_on_c, 0, 60, 60
2, 59648, Note_off_c, 0, 72, 100
2, 59648, Note_off_c, 0, 60, 100
2, 59808, Note_on_c, 0, 67, 90
2, 59872, Note_off_c, 0, 67, 100
2, 59904, Note_on_c, 0, 72, 90
2, 59904, Note_on_c, 0, 60, 90
2, 60032, Note_off_c, 0, 72, 100
2, 60032, Note_off_c, 0, 60, 100
2, 60096, Note_on_c, 0, 71, 90
2, 60096, Note_on_c, 0, 59, 90
2, 60224, Note_off_c, 0, 71, 100
2, 60224, Note_off_c, 0, 59, 100
2, 60288, Note_on_c, 0, 69, 90
2, 60352, Note_off_c, 0, 69, 100
2, 60384, Note_on_c, 0, 76, 90
2, 60448, Note_off_c, 0, 76, 100
2, 60480, Note_on_c, 0, 74, 90
2, 60512, Note_off_c, 0, 74, 100
2, 60528, Note_on_c, 0, 72, 90
2, 60560, Note_off_c, 0, 72, 100
2, 60576, Note_on_c, 0, 71, 90
2, 60608, Note_off_c, 0, 71, 100
2, 60624, Note_on_c, 0, 69, 90
2, 60656, Note_off_c, 0, 69, 100
2, 60672, Note_on_c, 0, 67, 60
2, 60800, Note_off_c, 0, 67, 100
2, 60864, Note_on_c, 0, 69, 60
2, 60992, Note_off_c, 0, 69, 100
2, 61056, Note_on_c, 0, 70, 60
2, 61184, Note_off_c, 0, 70, 100
2, 61248, Note_on_c, 0, 71, 60
2, 61376, Note_off_c, 0, 71, 100
2, 61440, Note_on_c, 0, 79, 90
2, 61568, Note_off_c, 0, 79, 100
2, 61632, Note_on_c, 0, 78, 90
2, 61680, Note_on_c, 0, 76, 90
2, 61704, Note_off_c, 0, 76, 100
2, 61704, Note_on_c, 0, 78, 90
2, 61728, Note_off_c, 0, 78, 100
2, 61728, Note_on_c, 0, 76, 90
2, 61752, Note_off_c, 0, 76, 100
2, 61752, Note_on_c, 0, 78, 90
2, 61760, Note_off_c, 0, 78, 100
2, 61776, Note_off_c, 0, 78, 100
2, 61776, Note_on_c, 0, 76, 90
2, 61800, Note_off_c, 0, 76, 100
2, 61800, Note_on_c, 0, 78, 90
2, 61824, Note_off_c, 0, 78, 100
2, 61824, Note_on_c, 0, 76, 90
2, 61952, Note_off_c, 0, 76, 100
2, 62112, Note_on_c, 0, 83, 60
2, 62176, Note_off_c, 0, 83, 100
2, 62208, Note_on_c, 0, 88, 60
2, 62208, Note_on_c, 0, 71, 60
2, 62208, Note_on_c, 0, 67, 60
2, 62336, Note_off_c, 0, 88, 100
2, 62336, Note_off_c, 0, 71, 100
2, 62336, Note_off_c, 0, 67, 100
2, 62400, Note_on_c, 0, 86, 60
2, 62400, Note_on_c, 0, 71, 60
2, 62400, Note_on_c, 0, 65, 60
2, 62400, Note_on_c, 0, 67, 60
2, 62448, Note_on_c, 0, 84, 60
2, 62472, Note_off_c, 0, 84, 100
2, 62472, Note_on_c, 0, 86, 60
2, 62496, Note_off_c, 0, 86, 100
2, 62496, Note_on_c, 0, 84, 60
2, 62520, Note_off_c, 0, 84, 100
2, 62520, Note_on_c, 0, 86, 60
2, 62528, Note_off_c, 0, 71, 100
2, 62528, Note_off_c, 0, 65, 100
2, 62528, Note_off_c, 0, 67, 100
2, 62528, Note_off_c, 0, 86, 100
2, 62544, Note_off_c, 0, 86, 100
2, 62544, Note_on_c, 0, 84, 60
2, 62568, Note_off_c, 0, 84, 100
2, 62568, Note_on_c, 0, 86, 60
2, 62592, Note_off_c, 0, 86, 100
2, 62592, Note_on_c, 0, 84, 60
2, 62592, Note_on_c, 0, 72, 60
2, 62592, Note_on_c, 0, 67, 60
2, 62592, Note_on_c, 0, 64, 60
2, 62720, Note_off_c, 0, 84, 100
2, 62720, Note_off_c, 0, 72, 100
2, 62720, Note_off_c, 0, 67, 100
2, 62720, Note_off_c, 0, 64, 100
2, 62880, Note_on_c, 0, 79, 90
2, 62944, Note_off_c, 0, 79, 100
2, 62976, Note_on_c, 0, 84, 90
2, 62976, Note_on_c, 0, 64, 90
2, 62976, Note_on_c, 0, 67, 90
2, 63104, Note_off_c, 0, 84, 100
2, 63104, Note_off_c, 0, 64, 100
2, 63104, Note_off_c, 0, 67, 100
2, 63168, Note_on_c, 0, 83, 90
2, 63168, Note_on_c, 0, 62, 90
2, 63168, Note_on_c, 0, 65, 90
2, 63168, Note_on_c, 0, 68, 90
2, 63296, Note_off_c, 0, 83, 100
2, 63296, Note_off_c, 0, 62, 100
2, 63296, Note_off_c, 0, 65, 100
2, 63296, Note_off_c, 0, 68, 100
2, 63360, Note_on_c, 0, 81, 90
2, 63360, Note_on_c, 0, 69, 90
2, 63360, Note_on_c, 0, 64, 90
2, 63360, Note_on_c, 0, 60, 90
2, 63424, Note_off_c, 0, 81, 100
2, 63456, Note_on_c, 0, 88, 90
2, 63488, Note_off_c, 0, 69, 100
2, 63488, Note_off_c, 0, 64, 100
2, 63488, Note_off_c, 0, 60, 100
2, 63520, Note_off_c, 0, 88, 100
2, 63552, Note_on_c, 0, 86, 90
2, 63584, Note_off_c, 0, 86, 100
2, 63600, Note_on_c, 0, 84, 90
2, 63632, Note_off_c, 0, 84, 100
2, 63648, Note_on_c, 0, 83, 90
2, 63680, Note_off_c, 0, 83, 100
2, 63696, Note_on_c, 0, 81, 90
2, 63728, Note_off_c, 0, 81, 100
2, 63744, Note_on_c, 0, 79, 60
2, 63744, Note_on_c, 0, 62, 60
2, 63744, Note_on_c, 0, 67, 60
2, 63744, Note_on_c, 0, 71, 60
2, 63808, Note_off_c, 0, 79, 100
2, 63840, Note_on_c, 0, 81, 60
2, 63872, Note_off_c, 0, 62, 100
2, 63872, Note_off_c, 0, 67, 100
2, 63872, Note_off_c, 0, 71, 100
2, 63904, Note_off_c, 0, 81, 100
2, 63936, Note_on_c, 0, 82, 60
2, 64000, Note_off_c, 0, 82, 100
2, 64032, Note_on_c, 0, 83, 60
2, 64096, Note_off_c, 0, 83, 100
2, 64128, Note_on_c, 0, 84, 60
2, 64128, Note_on_c, 0, 62, 60
2, 64128, Note_on_c, 0, 67, 60
2, 64128, Note_on_c, 0, 71, 60
2, 64192, Note_off_c, 0, 84, 100
2, 64240, Note_on_c, 0, 85, 60
2, 64256, Note_off_c, 0, 62, 100
2, 64256, Note_off_c, 0, 67, 100
2, 64256, Note_off_c, 0, 71, 100
2, 64304, Note_off_c, 0, 85, 100
2, 64320, Note_on_c, 0, 86, 60
2, 64384, Note_off_c, 0, 86, 100
2, 64416, Note_on_c, 0, 87, 60
2, 64480, Note_off_c, 0, 87, 100
2, 64512, Note_on_c, 0, 87, 60
2, 64512, Note_on_c, 0, 72, 60
2, 64512, Note_on_c, 0, 67, 60
2, 64512, Note_on_c, 0, 62, 60
2, 64544, Note_off_c, 0, 87, 100
2, 64560, Note_on_c, 0, 88, 60
2, 64592, Note_off_c, 0, 88, 100
2, 64608, Note_on_c, 0, 87, 60
2, 64640, Note_off_c, 0, 72, 100
2, 64640, Note_off_c, 0, 67, 100
2, 64640, Note_off_c, 0, 62, 100
2, 64640, Note_off_c, 0, 87, 100
2, 64656, Note_on_c, 0, 88, 60
2, 64688, Note_off_c, 0, 88, 100
2, 64704, Note_on_c, 0, 86, 60
2, 64736, Note_off_c, 0, 86, 100
2, 64752, Note_on_c, 0, 84, 60
2, 64784, Note_off_c, 0, 84, 100
2, 64800, Note_on_c, 0, 83, 60
2, 64832, Note_off_c, 0, 83, 100
2, 64848, Note_on_c, 0, 81, 60
2, 64880, Note_off_c, 0, 81, 100
2, 64896, Note_on_c, 0, 83, 90
2, 64920, Note_off_c, 0, 83, 100
2, 64920, Note_on_c, 0, 81, 90
2, 64944, Note_off_c, 0, 81, 100
2, 64944, Note_on_c, 0, 83, 90
2, 64968, Note_off_c, 0, 83, 100
2, 64968, Note_on_c, 0, 81, 90
2, 64992, Note_off_c, 0, 81, 100
2, 64992, Note_on_c, 0, 83, 90
2, 65016, Note_off_c, 0, 83, 100
2, 65016, Note_on_c, 0, 81, 90
2, 65040, Note_off_c, 0, 81, 100
2, 65040, Note_on_c, 0, 83, 90
2, 65064, Note_off_c, 0, 83, 100
2, 65064, Note_on_c, 0, 81, 90
2, 65088, Note_off_c, 0, 81, 100
2, 65088, Note_on_c, 0, 83, 90
2, 65088, Note_on_c, 0, 72, 90
2, 65088, Note_on_c, 0, 66, 90
2, 65088, Note_on_c, 0, 62, 90
2, 65112, Note_off_c, 0, 83, 100
2, 65112, Note_on_c, 0, 81, 90
2, 65136, Note_off_c, 0, 81, 100
2, 65136, Note_on_c, 0, 83, 90
2, 65160, Note_off_c, 0, 83, 100
2, 65160, Note_on_c, 0, 81, 90
2, 65184, Note_off_c, 0, 81, 100
2, 65184, Note_on_c, 0, 83, 90
2, 65208, Note_off_c, 0, 83, 100
2, 65208, Note_on_c, 0, 79, 90
2, 65216, Note_off_c, 0, 72, 100
2, 65216, Note_off_c, 0, 66, 100
2, 65216, Note_off_c, 0, 62, 100
2, 65232, Note_off_c, 0, 79, 100
2, 65232, Note_on_c, 0, 81, 90
2, 65256, Note_off_c, 0, 81, 100
2, 65280, Note_on_c, 0, 79, 90
2, 65280, Note_on_c, 0, 71, 90
2, 65280, Note_on_c, 0, 67, 90
2, 65328, Note_on_c, 0, 79, 90
2, 65344, Note_off_c, 0, 79, 100
2, 65360, Note_off_c, 0, 79, 100
2, 65376, Note_on_c, 0, 78, 90
2, 65408, Note_off_c, 0, 71, 100
2, 65408, Note_off_c, 0, 67, 100
2, 65408, Note_off_c, 0, 78, 100
2, 65424, Note_on_c, 0, 79, 90
2, 65456, Note_off_c, 0, 79, 100
2, 65472, Note_on_c, 0, 81, 90
2, 65504, Note_off_c, 0, 81, 100
2, 65520, Note_on_c, 0, 79, 90
2, 65552, Note_off_c, 0, 79, 100
2, 65568, Note_on_c, 0, 78, 90
2, 65600, Note_off_c, 0, 78, 100
2, 65616, Note_on_c, 0, 76, 90
2, 65648, Note_off_c, 0, 76, 100
2, 65664, Note_on_c, 0, 74, 90
2, 65712, Note_on_c, 0, 76, 90
2, 65728, Note_off_c, 0, 74, 100
2, 65744, Note_off_c, 0, 76, 100
2, 65760, Note_on_c, 0, 75, 90
2, 65792, Note_off_c, 0, 75, 100
2, 65808, Note_on_c, 0, 76, 90
2, 65840, Note_off_c, 0, 76, 100
2, 65856, Note_on_c, 0, 78, 90
2, 65888, Note_off_c, 0, 78, 100
2, 65904, Note_on_c, 0, 76, 90
2, 65936, Note_off_c, 0, 76, 100
2, 65952, Note_on_c, 0, 74, 90
2, 65984, Note_off_c, 0, 74, 100
2, 66000, Note_on_c, 0, 72, 90
2, 66032, Note_off_c, 0, 72, 100
2, 66048, Note_on_c, 0, 71, 60
2, 66112, Note_off_c, 0, 71, 100
2, 66120, Note_on_c, 0, 72, 60
2, 66144, Note_off_c, 0, 72, 100
2, 66144, Note_on_c, 0, 71, 60
2, 66168, Note_off_c, 0, 71, 100
2, 66168, Note_on_c, 0, 69, 60
2, 66192, Note_off_c, 0, 69, 100
2, 66192, Note_on_c, 0, 71, 60
2, 66216, Note_off_c, 0, 71, 100
2, 66216, Note_on_c, 0, 74, 60
2, 66240, Note_off_c, 0, 74, 100
2, 66240, Note_on_c, 0, 72, 60
2, 66336, Note_off_c, 0, 72, 100
2, 66384, Note_on_c, 0, 71, 60
2, 66416, Note_off_c, 0, 71, 100
2, 66432, Note_on_c, 0, 71, 60
2, 66496, Note_off_c, 0, 71, 100
2, 66528, Note_on_c, 0, 69, 60
2, 66656, Note_off_c, 0, 69, 100
2, 66720, Note_on_c, 0, 71, 60
2, 66784, Note_off_c, 0, 71, 100
2, 66816, Note_on_c, 0, 71, 60
2, 66880, Note_off_c, 0, 71, 100
2, 66912, Note_on_c, 0, 72, 60
2, 67040, Note_off_c, 0, 72, 100
2, 67104, Note_on_c, 0, 76, 60
2, 67136, Note_off_c, 0, 76, 100
2, 67152, Note_on_c, 0, 74, 60
2, 67184, Note_off_c, 0, 74, 100
2, 67200, Note_on_c, 0, 72, 60
2, 67328, Note_off_c, 0, 72, 100
2, 67392, Note_on_c, 0, 71, 60
2, 67520, Note_off_c, 0, 71, 100
2, 67584, Note_on_c, 0, 72, 90
2, 67584, Note_on_c, 0, 67, 90
2, 67712, Note_off_c, 0, 72, 100
2, 67712, Note_off_c, 0, 67, 100
2, 67776, Note_on_c, 0, 71, 90
2, 67776, Note_on_c, 0, 67, 90
2, 67904, Note_off_c, 0, 71, 100
2, 67904, Note_off_c, 0, 67, 100
2, 67968, Note_on_c, 0, 76, 90
2, 67968, Note_on_c, 0, 67, 90
2, 68096, Note_off_c, 0, 76, 100
2, 68096, Note_off_c, 0, 67, 100
2, 68256, Note_on_c, 0, 74, 60
2, 68320, Note_off_c, 0, 74, 100
2, 68352, Note_on_c, 0, 74, 60
2, 68384, Note_off_c, 0, 74, 100
2, 68400, Note_on_c, 0, 72, 60
2, 68432, Note_off_c, 0, 72, 100
2, 68448, Note_on_c, 0, 71, 60
2, 68480, Note_off_c, 0, 71, 100
2, 68496, Note_on_c, 0, 69, 60
2, 68528, Note_off_c, 0, 69, 100
2, 68544, Note_on_c, 0, 72, 60
2, 68576, Note_off_c, 0, 72, 100
2, 68592, Note_on_c, 0, 71, 60
2, 68624, Note_off_c, 0, 71, 100
2, 68640, Note_on_c, 0, 69, 60
2, 68672, Note_off_c, 0, 69, 100
2, 68688, Note_on_c, 0, 67, 60
2, 68720, Note_off_c, 0, 67, 100
2, 68736, Note_on_c, 0, 71, 60
2, 68736, Note_on_c, 0, 67, 60
2, 68864, Note_off_c, 0, 71, 100
2, 68864, Note_off_c, 0, 67, 100
2, 68928, Note_on_c, 0, 69, 60
2, 68928, Note_on_c, 0, 66, 60
2, 69056, Note_off_c, 0, 69, 100
2, 69056, Note_off_c, 0, 66, 100
2, 69120, Note_on_c, 0, 70, 60
2, 69184, Note_off_c, 0, 70, 100
2, 69216, Note_on_c, 0, 71, 60
2, 69264, Note_on_c, 0, 74, 60
2, 69280, Note_off_c, 0, 71, 100
2, 69280, Note_off_c, 0, 74, 100
2, 69312, Note_on_c, 0, 72, 60
2, 69376, Note_off_c, 0, 72, 100
2, 69408, Note_on_c, 0, 71, 60
2, 69472, Note_off_c, 0, 71, 100
2, 69488, Note_on_c, 0, 68, 60
2, 69552, Note_off_c, 0, 68, 100
2, 69600, Note_on_c, 0, 69, 60
2, 69664, Note_off_c, 0, 69, 100
2, 69792, Note_on_c, 0, 72, 60
2, 69824, Note_off_c, 0, 72, 100
2, 69840, Note_on_c, 0, 71, 60
2, 69872, Note_off_c, 0, 71, 100
2, 69984, Note_on_c, 0, 74, 60
2, 70016, Note_off_c, 0, 74, 100
2, 70032, Note_on_c, 0, 72, 60
2, 70064, Note_off_c, 0, 72, 100
2, 70176, Note_on_c, 0, 76, 60
2, 70208, Note_off_c, 0, 76, 100
2, 70208, Note_on_c, 0, 74, 60
2, 70240, Note_off_c, 0, 74, 100
2, 70272, Note_on_c, 0, 72, 60
2, 70368, Note_off_c, 0, 72, 100
2, 70368, Note_on_c, 0, 74, 60
2, 70384, Note_off_c, 0, 74, 100
2, 70416, Note_on_c, 0, 72, 60
2, 70432, Note_off_c, 0, 72, 100
2, 70464, Note_on_c, 0, 71, 60
2, 70592, Note_off_c, 0, 71, 100
2, 70656, Note_on_c, 0, 72, 90
2, 70656, Note_on_c, 0, 67, 90
2, 70784, Note_off_c, 0, 72, 100
2, 70784, Note_off_c, 0, 67, 100
2, 70848, Note_on_c, 0, 71, 90
2, 70848, Note_on_c, 0, 67, 90
2, 70976, Note_off_c, 0, 71, 100
2, 70976, Note_off_c, 0, 67, 100
2, 71040, Note_on_c, 0, 76, 90
2, 71136, Note_off_c, 0, 76, 100
2, 71136, Note_on_c, 0, 78, 90
2, 71160, Note_off_c, 0, 78, 100
2, 71160, Note_on_c, 0, 76, 90
2, 71184, Note_off_c, 0, 76, 100
2, 71184, Note_on_c, 0, 74, 90
2, 71208, Note_off_c, 0, 74, 100
2, 71208, Note_on_c, 0, 76, 90
2, 71232, Note_off_c, 0, 76, 100
2, 71232, Note_on_c, 0, 79, 60
2, 71296, Note_off_c, 0, 79, 100
2, 71328, Note_on_c, 0, 72, 60
2, 71392, Note_off_c, 0, 72, 100
2, 71424, Note_on_c, 0, 71, 60
2, 71552, Note_off_c, 0, 71, 100
2, 71616, Note_on_c, 0, 69, 60
2, 71744, Note_off_c, 0, 69, 100
2, 71808, Note_on_c, 0, 67, 60
2, 71832, Note_off_c, 0, 67, 100
2, 71832, Note_on_c, 0, 69, 60
2, 71856, Note_off_c, 0, 69, 100
2, 71856, Note_on_c, 0, 67, 60
2, 71880, Note_off_c, 0, 67, 100
2, 71880, Note_on_c, 0, 69, 60
2, 71904, Note_off_c, 0, 69, 100
2, 71904, Note_on_c, 0, 67, 60
2, 71928, Note_off_c, 0, 67, 100
2, 71928, Note_on_c, 0, 69, 60
2, 71952, Note_off_c, 0, 69, 100
2, 71952, Note_on_c, 0, 67, 60
2, 71976, Note_off_c, 0, 67, 100
2, 71976, Note_on_c, 0, 69, 60
2, 72000, Note_off_c, 0, 69, 100
2, 72000, Note_on_c, 0, 67, 60
2, 72024, Note_off_c, 0, 67, 100
2, 72024, Note_on_c, 0, 69, 60
2, 72048, Note_off_c, 0, 69, 100
2, 72048, Note_on_c, 0, 67, 60
2, 72072, Note_off_c, 0, 67, 100
2, 72072, Note_on_c, 0, 69, 60
2, 72096, Note_off_c, 0, 69, 100
2, 72096, Note_on_c, 0, 67, 60
2, 72120, Note_off_c, 0, 67, 100
2, 72120, Note_on_c, 0, 69, 60
2, 72144, Note_off_c, 0, 69, 100
2, 72144, Note_on_c, 0, 66, 60
2, 72168, Note_off_c, 0, 66, 100
2, 72168, Note_on_c, 0, 67, 60
2, 72192, Note_off_c, 0, 67, 100
2, 72192, Note_on_c, 0, 71, 60
2, 72320, Note_off_c, 0, 71, 100
2, 72384, Note_on_c, 0, 69, 60
2, 72512, Note_off_c, 0, 69, 100
2, 72576, Note_on_c, 0, 67, 60
2, 72640, Note_off_c, 0, 67, 100
2, 72672, Note_on_c, 0, 66, 60
2, 72736, Note_off_c, 0, 66, 100
2, 72768, Note_on_c, 0, 64, 60
2, 72832, Note_off_c, 0, 64, 100
2, 72864, Note_on_c, 0, 62, 60
2, 72928, Note_off_c, 0, 62, 100
2, 72960, Note_on_c, 0, 71, 60
2, 73216, Note_off_c, 0, 71, 100
2, 73344, Note_on_c, 0, 67, 60
2, 73536, Note_off_c, 0, 67, 100
2, 73632, Note_on_c, 0, 67, 60
2, 73696, Note_off_c, 0, 67, 100
2, 73728, Note_on_c, 0, 71, 60
2, 73792, Note_off_c, 0, 71, 100
2, 73824, Note_on_c, 0, 69, 60
2, 73888, Note_off_c, 0, 69, 100
2, 73920, Note_on_c, 0, 69, 60
2, 74048, Note_off_c, 0, 69, 100
2, 74112, Note_on_c, 0, 67, 60
2, 74176, Note_off_c, 0, 67, 100
2, 74208, Note_on_c, 0, 66, 60
2, 74272, Note_off_c, 0, 66, 100
2, 74304, Note_on_c, 0, 64, 60
2, 74368, Note_off_c, 0, 64, 100
2, 74400, Note_on_c, 0, 62, 60
2, 74464, Note_off_c, 0, 62, 100
2, 74496, Note_on_c, 0, 67, 60
2, 74752, Note_off_c, 0, 67, 100
2, 74880, Note_on_c, 0, 79, 60
2, 74880, Note_on_c, 0, 67, 60
2, 75136, Note_off_c, 0, 79, 100
2, 75136, Note_off_c, 0, 67, 100
2, 75264, Note_on_c, 0, 83, 60
2, 75264, Note_on_c, 0, 71, 60
2, 75392, Note_off_c, 0, 83, 100
2, 75392, Note_off_c, 0, 71, 100
2, 75456, Note_on_c, 0, 81, 60
2, 75456, Note_on_c, 0, 69, 60
2, 75584, Note_off_c, 0, 81, 100
2, 75584, Note_off_c, 0, 69, 100
2, 75648, Note_on_c, 0, 79, 60
2, 75648, Note_on_c, 0, 67, 60
2, 75712, Note_off_c, 0, 79, 100
2, 75712, Note_off_c, 0, 67, 100
2, 75744, Note_on_c, 0, 78, 60
2, 75744, Note_on_c, 0, 66, 60
2, 75808, Note_off_c, 0, 78, 100
2, 75808, Note_off_c, 0, 66, 100
2, 75840, Note_on_c, 0, 76, 60
2, 75840, Note_on_c, 0, 64, 60
2, 75904, Note_off_c, 0, 76, 100
2, 75904, Note_off_c, 0, 64, 100
2, 75936, Note_on_c, 0, 74, 60
2, 75936, Note_on_c, 0, 62, 60
2, 76000, Note_off_c, 0, 74, 100
2, 76000, Note_off_c, 0, 62, 100
2, 76032, Note_on_c, 0, 86, 60
2, 76032, Note_on_c, 0, 74, 60
2, 76288, Note_off_c, 0, 86, 100
2, 76288, Note_off_c, 0, 74, 100
2, 76416, Note_on_c, 0, 79, 60
2, 76416, Note_on_c, 0, 67, 60
2, 76544, Note_off_c, 0, 79, 100
2, 76544, Note_off_c, 0, 67, 100
2, 76608, Note_on_c, 0, 79, 90
2, 76608, Note_on_c, 0, 67, 90
2, 76736, Note_off_c, 0, 79, 100
2, 76736, Note_off_c, 0, 67, 100
2, 76800, Note_on_c, 0, 83, 90
2, 76800, Note_on_c, 0, 71, 90
2, 76864, Note_off_c, 0, 83, 100
2, 76864, Note_off_c, 0, 71, 100
2, 76896, Note_on_c, 0, 81, 90
2, 76896, Note_on_c, 0, 69, 90
2, 76960, Note_off_c, 0, 81, 100
2, 76960, Note_off_c, 0, 69, 100
2, 76992, Note_on_c, 0, 81, 90
2, 76992, Note_on_c, 0, 69, 90
2, 77056, Note_off_c, 0, 81, 100
2, 77056, Note_off_c, 0, 69, 100
2, 77088, Note_on_c, 0, 81, 90
2, 77088, Note_on_c, 0, 69, 90
2, 77152, Note_off_c, 0, 81, 100
2, 77152, Note_off_c, 0, 69, 100
2, 77184, Note_on_c, 0, 79, 90
2, 77184, Note_on_c, 0, 67, 90
2, 77248, Note_off_c, 0, 79, 100
2, 77248, Note_off_c, 0, 67, 100
2, 77280, Note_on_c, 0, 78, 90
2, 77280, Note_on_c, 0, 66, 90
2, 77344, Note_off_c, 0, 78, 100
2, 77344, Note_off_c, 0, 66, 100
2, 77376, Note_on_c, 0, 76, 90
2, 77376, Note_on_c, 0, 64, 90
2, 77440, Note_off_c, 0, 76, 100
2, 77440, Note_off_c, 0, 64, 100
2, 77472, Note_on_c, 0, 74, 90
2, 77472, Note_on_c, 0, 62, 90
2, 77536, Note_off_c, 0, 74, 100
2, 77536, Note_off_c, 0, 62, 100
2, 77568, Note_on_c, 0, 79, 90
2, 77568, Note_on_c, 0, 67, 90
2, 77824, Note_off_c, 0, 79, 100
2, 77824, Note_off_c, 0, 67, 100
2, 77952, Note_on_c, 0, 83, 60
2, 78016, Note_off_c, 0, 83, 100
2, 78048, Note_on_c, 0, 81, 60
2, 78112, Note_off_c, 0, 81, 100
2, 78144, Note_on_c, 0, 81, 60
2, 78208, Note_off_c, 0, 81, 100
2, 78240, Note_on_c, 0, 78, 60
2, 78304, Note_off_c, 0, 78, 100
2, 78336, Note_on_c, 0, 79, 60
2, 78400, Note_off_c, 0, 79, 100
2, 78432, Note_on_c, 0, 83, 60
2, 78496, Note_off_c, 0, 83, 100
2, 78528, Note_on_c, 0, 86, 60
2, 78656, Note_off_c, 0, 86, 100
2, 78720, Note_on_c, 0, 83, 60
2, 78784, Note_off_c, 0, 83, 100
2, 78816, Note_on_c, 0, 81, 60
2, 78880, Note_off_c, 0, 81, 100
2, 78912, Note_on_c, 0, 81, 60
2, 78976, Note_off_c, 0, 81, 100
2, 79008, Note_on_c, 0, 78, 60
2, 79072, Note_off_c, 0, 78, 100
2, 79104, Note_on_c, 0, 79, 60
2, 79104, Note_on_c, 0, 67, 60
2, 79168, Note_off_c, 0, 79, 100
2, 79168, Note_off_c, 0, 67, 100
2, 79200, Note_on_c, 0, 83, 57
2, 79200, Note_on_c, 0, 71, 57
2, 79264, Note_off_c, 0, 83, 100
2, 79264, Note_off_c, 0, 71, 100
2, 79296, Note_on_c, 0, 86, 55
2, 79296, Note_on_c, 0, 74, 55
2, 79360, Note_off_c, 0, 86, 100
2, 79360, Note_off_c, 0, 74, 100
2, 79392, Note_on_c, 0, 86, 54
2, 79392, Note_on_c, 0, 74, 54
2, 79456, Note_off_c, 0, 86, 100
2, 79456, Note_off_c, 0, 74, 100
2, 79488, Note_on_c, 0, 79, 52
2, 79488, Note_on_c, 0, 67, 52
2, 79552, Note_off_c, 0, 79, 100
2, 79552, Note_off_c, 0, 67, 100
2, 79584, Note_on_c, 0, 83, 51
2, 79584, Note_on_c, 0, 71, 51
2, 79648, Note_off_c, 0, 83, 100
2, 79648, Note_off_c, 0, 71, 100
2, 79680, Note_on_c, 0, 86, 49
2, 79696, Note_on_c, 0, 74, 48
2, 79744, Note_off_c, 0, 86, 100
2, 79760, Note_off_c, 0, 74, 100
2, 79776, Note_on_c, 0, 86, 46
2, 79776, Note_on_c, 0, 74, 46
2, 79840, Note_off_c, 0, 86, 100
2, 79840, Note_off_c, 0, 74, 100
2, 79872, Note_on_c, 0, 86, 45
2, 79872, Note_on_c, 0, 74, 45
2, 80128, Note_off_c, 0, 86, 100
2, 80128, Note_off_c, 0, 74, 100
2, 80256, Note_on_c, 0, 67, 45
2, 80256, Note_on_c, 0, 79, 45
2, 80384, Note_off_c, 0, 67, 100
2, 80384, Note_off_c, 0, 79, 100
2, 80384, End_track
3, 0, Start_track
3, 0, Title_t, "K311-b-AndanteConEspressione "
3, 0, Control_c, 1, 0, 0
3, 0, Program_c, 1, 0
3, 0, Control_c, 1, 7, 80
3, 0, Control_c, 1, 10, 53
3, 0, Control_c, 1, 91, 105
3, 0, Control_c, 1, 93, 68
3, 0, Key_signature, 1, "major"
3, 0, Control_c, 1, 121, 0
3, 144, Control_c, 1, 10, 43
3, 192, Control_c, 1, 91, 63
3, 240, Control_c, 1, 93, 40
3, 288, Program_c, 1, 0
3, 768, Note_on_c, 1, 55, 60
3, 768, Note_on_c, 1, 62, 60
3, 1024, Note_off_c, 1, 55, 100
3, 1152, Note_on_c, 1, 54, 60
3, 1280, Note_off_c, 1, 62, 100
3, 1280, Note_off_c, 1, 54, 100
3, 1344, Note_on_c, 1, 55, 60
3, 1472, Note_off_c, 1, 55, 100
3, 1536, Note_on_c, 1, 62, 60
3, 1536, Note_on_c, 1, 57, 60
3, 1664, Note_off_c, 1, 57, 100
3, 1728, Note_on_c, 1, 54, 60
3, 1856, Note_off_c, 1, 54, 100
3, 1920, Note_on_c, 1, 55, 60
3, 2048, Note_off_c, 1, 62, 100
3, 2176, Note_off_c, 1, 55, 100
3, 2304, Note_on_c, 1, 64, 90
3, 2304, Note_on_c, 1, 52, 90
3, 2432, Note_off_c, 1, 64, 100
3, 2432, Note_off_c, 1, 52, 100
3, 2496, Note_on_c, 1, 62, 90
3, 2496, Note_on_c, 1, 50, 90
3, 2624, Note_off_c, 1, 62, 100
3, 2624, Note_off_c, 1, 50, 100
3, 2688, Note_on_c, 1, 48, 90
3, 2688, Note_on_c, 1, 60, 90
3, 2816, Note_off_c, 1, 48, 100
3, 2816, Note_off_c, 1, 60, 100
3, 2880, Note_on_c, 1, 59, 60
3, 2944, Note_off_c, 1, 59, 100
3, 3072, Note_on_c, 1, 62, 60
3, 3072, Note_on_c, 1, 54, 60
3, 3200, Note_off_c, 1, 54, 100
3, 3264, Note_on_c, 1, 55, 60
3, 3328, Note_off_c, 1, 62, 100
3, 3392, Note_off_c, 1, 55, 100
3, 3456, Note_on_c, 1, 62, 60
3, 3456, Note_on_c, 1, 50, 60
3, 3712, Note_off_c, 1, 62, 100
3, 3712, Note_off_c, 1, 50, 100
3, 3840, Note_on_c, 1, 62, 60
3, 3840, Note_on_c, 1, 55, 60
3, 4096, Note_off_c, 1, 55, 100
3, 4224, Note_on_c, 1, 54, 60
3, 4352, Note_off_c, 1, 62, 100
3, 4352, Note_off_c, 1, 54, 100
3, 4416, Note_on_c, 1, 55, 60
3, 4544, Note_off_c, 1, 55, 100
3, 4608, Note_on_c, 1, 62, 60
3, 4608, Note_on_c, 1, 57, 60
3, 4736, Note_off_c, 1, 57, 100
3, 4800, Note_on_c, 1, 54, 60
3, 4928, Note_off_c, 1, 54, 100
3, 4992, Note_on_c, 1, 55, 60
3, 5120, Note_off_c, 1, 62, 100
3, 5248, Note_off_c, 1, 55, 100
3, 5376, Note_on_c, 1, 64, 90
3, 5376, Note_on_c, 1, 52, 90
3, 5504, Note_off_c, 1, 64, 100
3, 5504, Note_off_c, 1, 52, 100
3, 5568, Note_on_c, 1, 62, 90
3, 5568, Note_on_c, 1, 50, 90
3, 5696, Note_off_c, 1, 62, 100
3, 5696, Note_off_c, 1, 50, 100
3, 5760, Note_on_c, 1, 60, 90
3, 5760, Note_on_c, 1, 48, 90
3, 5888, Note_off_c, 1, 60, 100
3, 5888, Note_off_c, 1, 48, 100
3, 6048, Note_on_c, 1, 55, 60
3, 6048, Note_on_c, 1, 52, 60
3, 6112, Note_off_c, 1, 55, 100
3, 6144, Note_on_c, 1, 55, 60
3, 6144, Note_on_c, 1, 50, 60
3, 6148, Note_off_c, 1, 52, 100
3, 6272, Note_off_c, 1, 55, 100
3, 6336, Note_on_c, 1, 54, 60
3, 6400, Note_off_c, 1, 50, 100
3, 6464, Note_off_c, 1, 54, 100
3, 6528, Note_on_c, 1, 55, 60
3, 6528, Note_on_c, 1, 55, 60
3, 6592, Note_off_c, 1, 55, 100
3, 6624, Note_on_c, 1, 57, 60
3, 6688, Note_off_c, 1, 57, 100
3, 6720, Note_on_c, 1, 62, 60
3, 6784, Note_off_c, 1, 55, 100
3, 6784, Note_off_c, 1, 62, 100
3, 6816, Note_on_c, 1, 59, 60
3, 6880, Note_off_c, 1, 59, 100
3, 6912, Note_on_c, 1, 48, 60
3, 6912, Note_on_c, 1, 48, 60
3, 6976, Note_off_c, 1, 48, 100
3, 7008, Note_on_c, 1, 52, 60
3, 7072, Note_off_c, 1, 52, 100
3, 7104, Note_on_c, 1, 57, 60
3, 7168, Note_off_c, 1, 48, 100
3, 7168, Note_off_c, 1, 57, 100
3, 7200, Note_on_c, 1, 52, 60
3, 7264, Note_off_c, 1, 52, 100
3, 7296, Note_on_c, 1, 50, 60
3, 7296, Note_on_c, 1, 50, 60
3, 7360, Note_off_c, 1, 50, 100
3, 7392, Note_on_c, 1, 60, 60
3, 7456, Note_off_c, 1, 60, 100
3, 7488, Note_on_c, 1, 57, 60
3, 7552, Note_off_c, 1, 50, 100
3, 7552, Note_off_c, 1, 57, 100
3, 7584, Note_on_c, 1, 60, 60
3, 7648, Note_off_c, 1, 60, 100
3, 7680, Note_on_c, 1, 55, 60
3, 7680, Note_on_c, 1, 55, 60
3, 7744, Note_off_c, 1, 55, 100
3, 7776, Note_on_c, 1, 59, 60
3, 7840, Note_off_c, 1, 59, 100
3, 7872, Note_on_c, 1, 62, 60
3, 7936, Note_off_c, 1, 55, 100
3, 7936, Note_off_c, 1, 62, 100
3, 7968, Note_on_c, 1, 59, 60
3, 8032, Note_off_c, 1, 59, 100
3, 8064, Note_on_c, 1, 52, 60
3, 8064, Note_on_c, 1, 52, 60
3, 8128, Note_off_c, 1, 52, 100
3, 8160, Note_on_c, 1, 55, 60
3, 8224, Note_off_c, 1, 55, 100
3, 8256, Note_on_c, 1, 59, 60
3, 8320, Note_off_c, 1, 52, 100
3, 8320, Note_off_c, 1, 59, 100
3, 8352, Note_on_c, 1, 55, 60
3, 8416, Note_off_c, 1, 55, 100
3, 8448, Note_on_c, 1, 48, 60
3, 8448, Note_on_c, 1, 48, 60
3, 8512, Note_off_c, 1, 48, 100
3, 8544, Note_on_c, 1, 52, 60
3, 8608, Note_off_c, 1, 52, 100
3, 8640, Note_on_c, 1, 57, 60
3, 8704, Note_off_c, 1, 48, 100
3, 8704, Note_off_c, 1, 57, 100
3, 8736, Note_on_c, 1, 52, 60
3, 8800, Note_off_c, 1, 52, 100
3, 8832, Note_on_c, 1, 50, 45
3, 8832, Note_on_c, 1, 50, 45
3, 8896, Note_off_c, 1, 50, 100
3, 8928, Note_on_c, 1, 60, 45
3, 8992, Note_off_c, 1, 60, 100
3, 9024, Note_on_c, 1, 57, 45
3, 9088, Note_off_c, 1, 50, 100
3, 9088, Note_off_c, 1, 57, 100
3, 9120, Note_on_c, 1, 60, 45
3, 9184, Note_off_c, 1, 60, 100
3, 9216, Note_on_c, 1, 55, 60
3, 9216, Note_on_c, 1, 62, 60
3, 9472, Note_off_c, 1, 55, 100
3, 9600, Note_on_c, 1, 54, 60
3, 9728, Note_off_c, 1, 62, 100
3, 9728, Note_off_c, 1, 54, 100
3, 9792, Note_on_c, 1, 55, 60
3, 9920, Note_off_c, 1, 55, 100
3, 9984, Note_on_c, 1, 62, 60
3, 9984, Note_on_c, 1, 57, 60
3, 10112, Note_off_c, 1, 57, 100
3, 10144, Note_on_c, 1, 54, 60
3, 10272, Note_off_c, 1, 54, 100
3, 10368, Note_on_c, 1, 55, 60
3, 10496, Note_off_c, 1, 62, 100
3, 10624, Note_off_c, 1, 55, 100
3, 10752, Note_on_c, 1, 64, 90
3, 10752, Note_on_c, 1, 52, 90
3, 10880, Note_off_c, 1, 64, 100
3, 10880, Note_off_c, 1, 52, 100
3, 10944, Note_on_c, 1, 62, 90
3, 10944, Note_on_c, 1, 50, 90
3, 11072, Note_off_c, 1, 62, 100
3, 11072, Note_off_c, 1, 50, 100
3, 11136, Note_on_c, 1, 48, 90
3, 11136, Note_on_c, 1, 60, 90
3, 11264, Note_off_c, 1, 48, 100
3, 11264, Note_off_c, 1, 60, 100
3, 11328, Note_on_c, 1, 59, 60
3, 11392, Note_off_c, 1, 59, 100
3, 11520, Note_on_c, 1, 62, 60
3, 11520, Note_on_c, 1, 54, 60
3, 11648, Note_off_c, 1, 54, 100
3, 11712, Note_on_c, 1, 55, 60
3, 11776, Note_off_c, 1, 62, 100
3, 11840, Note_off_c, 1, 55, 100
3, 11904, Note_on_c, 1, 62, 60
3, 11904, Note_on_c, 1, 50, 60
3, 12160, Note_off_c, 1, 62, 100
3, 12160, Note_off_c, 1, 50, 100
3, 12288, Note_on_c, 1, 62, 60
3, 12288, Note_on_c, 1, 55, 60
3, 12544, Note_off_c, 1, 55, 100
3, 12672, Note_on_c, 1, 54, 60
3, 12800, Note_off_c, 1, 62, 100
3, 12800, Note_off_c, 1, 54, 100
3, 12864, Note_on_c, 1, 55, 60
3, 12992, Note_off_c, 1, 55, 100
3, 13056, Note_on_c, 1, 62, 60
3, 13056, Note_on_c, 1, 57, 60
3, 13184, Note_off_c, 1, 57, 100
3, 13232, Note_on_c, 1, 54, 60
3, 13360, Note_off_c, 1, 54, 100
3, 13440, Note_on_c, 1, 55, 60
3, 13568, Note_off_c, 1, 62, 100
3, 13696, Note_off_c, 1, 55, 100
3, 13824, Note_on_c, 1, 64, 90
3, 13824, Note_on_c, 1, 52, 90
3, 13952, Note_off_c, 1, 64, 100
3, 13952, Note_off_c, 1, 52, 100
3, 14016, Note_on_c, 1, 62, 90
3, 14016, Note_on_c, 1, 50, 90
3, 14144, Note_off_c, 1, 62, 100
3, 14144, Note_off_c, 1, 50, 100
3, 14208, Note_on_c, 1, 60, 90
3, 14208, Note_on_c, 1, 48, 90
3, 14336, Note_off_c, 1, 60, 100
3, 14336, Note_off_c, 1, 48, 100
3, 14496, Note_on_c, 1, 55, 60
3, 14496, Note_on_c, 1, 52, 60
3, 14560, Note_off_c, 1, 55, 100
3, 14560, Note_off_c, 1, 52, 100
3, 14592, Note_on_c, 1, 55, 60
3, 14592, Note_on_c, 1, 50, 60
3, 14720, Note_off_c, 1, 55, 100
3, 14784, Note_on_c, 1, 54, 60
3, 14848, Note_off_c, 1, 50, 100
3, 14912, Note_off_c, 1, 54, 100
3, 14976, Note_on_c, 1, 55, 60
3, 14976, Note_on_c, 1, 55, 60
3, 15040, Note_off_c, 1, 55, 100
3, 15072, Note_on_c, 1, 57, 60
3, 15136, Note_off_c, 1, 57, 100
3, 15168, Note_on_c, 1, 62, 60
3, 15232, Note_off_c, 1, 55, 100
3, 15232, Note_off_c, 1, 62, 100
3, 15264, Note_on_c, 1, 59, 60
3, 15328, Note_off_c, 1, 59, 100
3, 15360, Note_on_c, 1, 48, 60
3, 15360, Note_on_c, 1, 48, 60
3, 15424, Note_off_c, 1, 48, 100
3, 15456, Note_on_c, 1, 52, 60
3, 15520, Note_off_c, 1, 52, 100
3, 15552, Note_on_c, 1, 57, 60
3, 15616, Note_off_c, 1, 48, 100
3, 15616, Note_off_c, 1, 57, 100
3, 15648, Note_on_c, 1, 52, 60
3, 15712, Note_off_c, 1, 52, 100
3, 15744, Note_on_c, 1, 50, 60
3, 15744, Note_on_c, 1, 50, 60
3, 15808, Note_off_c, 1, 50, 100
3, 15840, Note_on_c, 1, 60, 60
3, 15904, Note_off_c, 1, 60, 100
3, 15936, Note_on_c, 1, 57, 60
3, 16000, Note_off_c, 1, 50, 100
3, 16000, Note_off_c, 1, 57, 100
3, 16032, Note_on_c, 1, 60, 60
3, 16096, Note_off_c, 1, 60, 100
3, 16128, Note_on_c, 1, 55, 60
3, 16128, Note_on_c, 1, 55, 60
3, 16192, Note_off_c, 1, 55, 100
3, 16224, Note_on_c, 1, 59, 60
3, 16288, Note_off_c, 1, 59, 100
3, 16320, Note_on_c, 1, 62, 60
3, 16384, Note_off_c, 1, 55, 100
3, 16384, Note_off_c, 1, 62, 100
3, 16416, Note_on_c, 1, 59, 60
3, 16480, Note_off_c, 1, 59, 100
3, 16512, Note_on_c, 1, 52, 60
3, 16512, Note_on_c, 1, 52, 60
3, 16576, Note_off_c, 1, 52, 100
3, 16608, Note_on_c, 1, 55, 60
3, 16672, Note_off_c, 1, 55, 100
3, 16704, Note_on_c, 1, 59, 60
3, 16768, Note_off_c, 1, 52, 100
3, 16768, Note_off_c, 1, 59, 100
3, 16800, Note_on_c, 1, 55, 60
3, 16864, Note_off_c, 1, 55, 100
3, 16896, Note_on_c, 1, 48, 60
3, 16896, Note_on_c, 1, 48, 60
3, 16960, Note_off_c, 1, 48, 100
3, 16992, Note_on_c, 1, 52, 60
3, 17056, Note_off_c, 1, 52, 100
3, 17088, Note_on_c, 1, 57, 60
3, 17152, Note_off_c, 1, 48, 100
3, 17152, Note_off_c, 1, 57, 100
3, 17184, Note_on_c, 1, 52, 60
3, 17248, Note_off_c, 1, 52, 100
3, 17280, Note_on_c, 1, 50, 60
3, 17280, Note_on_c, 1, 50, 60
3, 17344, Note_off_c, 1, 50, 100
3, 17392, Note_on_c, 1, 60, 60
3, 17456, Note_off_c, 1, 60, 100
3, 17472, Note_on_c, 1, 57, 60
3, 17536, Note_off_c, 1, 50, 100
3, 17536, Note_off_c, 1, 57, 100
3, 17568, Note_on_c, 1, 60, 60
3, 17632, Note_off_c, 1, 60, 100
3, 17664, Note_on_c, 1, 59, 60
3, 17664, Note_on_c, 1, 55, 60
3, 17920, Note_off_c, 1, 59, 100
3, 17920, Note_off_c, 1, 55, 100
3, 18048, Note_on_c, 1, 57, 60
3, 18048, Note_on_c, 1, 54, 60
3, 18048, Note_on_c, 1, 47, 60
3, 18176, Note_off_c, 1, 57, 100
3, 18176, Note_off_c, 1, 54, 100
3, 18176, Note_off_c, 1, 47, 100
3, 18240, Note_on_c, 1, 57, 60
3, 18240, Note_on_c, 1, 54, 60
3, 18240, Note_on_c, 1, 47, 60
3, 18368, Note_off_c, 1, 57, 100
3, 18368, Note_off_c, 1, 54, 100
3, 18368, Note_off_c, 1, 47, 100
3, 18432, Note_on_c, 1, 55, 60
3, 18432, Note_on_c, 1, 52, 60
3, 18688, Note_off_c, 1, 55, 100
3, 18688, Note_off_c, 1, 52, 100
3, 18816, Note_on_c, 1, 55, 60
3, 18816, Note_on_c, 1, 52, 60
3, 18816, Note_on_c, 1, 45, 60
3, 18944, Note_off_c, 1, 55, 100
3, 18944, Note_off_c, 1, 52, 100
3, 18944, Note_off_c, 1, 45, 100
3, 19008, Note_on_c, 1, 55, 60
3, 19008, Note_on_c, 1, 52, 60
3, 19008, Note_on_c, 1, 45, 60
3, 19136, Note_off_c, 1, 55, 100
3, 19136, Note_off_c, 1, 52, 100
3, 19136, Note_off_c, 1, 45, 100
3, 19200, Note_on_c, 1, 54, 60
3, 19200, Note_on_c, 1, 50, 60
3, 19456, Note_off_c, 1, 54, 100
3, 19456, Note_off_c, 1, 50, 100
3, 19584, Note_on_c, 1, 59, 90
3, 19584, Note_on_c, 1, 47, 90
3, 19712, Note_off_c, 1, 59, 100
3, 19712, Note_off_c, 1, 47, 100
3, 19776, Note_on_c, 1, 59, 90
3, 19776, Note_on_c, 1, 47, 90
3, 19904, Note_off_c, 1, 59, 100
3, 19904, Note_off_c, 1, 47, 100
3, 19968, Note_on_c, 1, 59, 90
3, 19968, Note_on_c, 1, 47, 90
3, 20224, Note_off_c, 1, 59, 100
3, 20224, Note_off_c, 1, 47, 100
3, 20352, Note_on_c, 1, 64, 60
3, 20352, Note_on_c, 1, 57, 60
3, 20480, Note_off_c, 1, 64, 100
3, 20480, Note_off_c, 1, 57, 100
3, 20544, Note_on_c, 1, 57, 60
3, 20544, Note_on_c, 1, 64, 60
3, 20672, Note_off_c, 1, 57, 100
3, 20672, Note_off_c, 1, 64, 100
3, 20736, Note_on_c, 1, 64, 60
3, 20736, Note_on_c, 1, 57, 60
3, 20992, Note_off_c, 1, 64, 100
3, 20992, Note_off_c, 1, 57, 100
3, 23808, Note_on_c, 1, 58, 67
3, 23808, Note_on_c, 1, 58, 67
3, 23872, Note_off_c, 1, 58, 100
3, 23904, Note_on_c, 1, 61, 67
3, 23936, Note_off_c, 1, 58, 100
3, 23968, Note_off_c, 1, 61, 100
3, 24000, Note_on_c, 1, 64, 67
3, 24064, Note_off_c, 1, 64, 100
3, 24096, Note_on_c, 1, 58, 67
3, 24160, Note_off_c, 1, 58, 100
3, 24192, Note_on_c, 1, 59, 67
3, 24256, Note_off_c, 1, 59, 100
3, 24288, Note_on_c, 1, 62, 67
3, 24352, Note_off_c, 1, 62, 100
3, 24384, Note_on_c, 1, 57, 67
3, 24448, Note_off_c, 1, 57, 100
3, 24480, Note_on_c, 1, 62, 67
3, 24544, Note_off_c, 1, 62, 100
3, 24576, Note_on_c, 1, 56, 67
3, 24640, Note_off_c, 1, 56, 100
3, 24672, Note_on_c, 1, 59, 67
3, 24736, Note_off_c, 1, 59, 100
3, 24768, Note_on_c, 1, 62, 67
3, 24832, Note_off_c, 1, 62, 100
3, 24864, Note_on_c, 1, 59, 67
3, 24928, Note_off_c, 1, 59, 100
3, 24960, Note_on_c, 1, 56, 67
3, 25024, Note_off_c, 1, 56, 100
3, 25056, Note_on_c, 1, 59, 67
3, 25120, Note_off_c, 1, 59, 100
3, 25152, Note_on_c, 1, 62, 67
3, 25216, Note_off_c, 1, 62, 100
3, 25248, Note_on_c, 1, 59, 67
3, 25312, Note_off_c, 1, 59, 100
3, 25344, Note_on_c, 1, 55, 67
3, 25344, Note_on_c, 1, 55, 67
3, 25408, Note_off_c, 1, 55, 100
3, 25440, Note_on_c, 1, 61, 67
3, 25472, Note_off_c, 1, 55, 100
3, 25504, Note_off_c, 1, 61, 100
3, 25536, Note_on_c, 1, 64, 67
3, 25600, Note_off_c, 1, 64, 100
3, 25632, Note_on_c, 1, 55, 67
3, 25696, Note_off_c, 1, 55, 100
3, 25728, Note_on_c, 1, 54, 67
3, 25728, Note_on_c, 1, 54, 67
3, 25792, Note_off_c, 1, 54, 100
3, 25824, Note_on_c, 1, 62, 67
3, 25856, Note_off_c, 1, 54, 100
3, 25888, Note_off_c, 1, 62, 100
3, 25920, Note_on_c, 1, 59, 67
3, 25984, Note_off_c, 1, 59, 100
3, 26016, Note_on_c, 1, 57, 67
3, 26080, Note_off_c, 1, 57, 100
3, 26112, Note_on_c, 1, 59, 67
3, 26112, Note_on_c, 1, 55, 67
3, 26496, Note_off_c, 1, 59, 100
3, 26496, Note_off_c, 1, 55, 100
3, 26688, Note_on_c, 1, 56, 67
3, 26688, Note_on_c, 1, 64, 67
3, 26816, Note_off_c, 1, 56, 100
3, 26816, Note_off_c, 1, 64, 100
3, 26880, Note_on_c, 1, 64, 67
3, 26880, Note_on_c, 1, 57, 67
3, 27136, Note_off_c, 1, 64, 100
3, 27136, Note_off_c, 1, 57, 100
3, 32256, Note_on_c, 1, 59, 90
3, 32256, Note_on_c, 1, 62, 90
3, 32384, Note_off_c, 1, 59, 100
3, 32384, Note_off_c, 1, 62, 100
3, 32448, Note_on_c, 1, 57, 90
3, 32448, Note_on_c, 1, 62, 90
3, 32448, Note_on_c, 1, 61, 90
3, 32576, Note_off_c, 1, 57, 100
3, 32576, Note_off_c, 1, 62, 100
3, 32576, Note_off_c, 1, 61, 100
3, 32640, Note_on_c, 1, 55, 90
3, 32640, Note_on_c, 1, 59, 90
3, 32640, Note_on_c, 1, 64, 90
3, 32896, Note_off_c, 1, 55, 100
3, 32896, Note_off_c, 1, 59, 100
3, 32896, Note_off_c, 1, 64, 100
3, 33024, Note_on_c, 1, 57, 60
3, 33024, Note_on_c, 1, 66, 60
3, 33152, Note_off_c, 1, 66, 100
3, 33216, Note_on_c, 1, 61, 60
3, 33280, Note_off_c, 1, 57, 100
3, 33344, Note_off_c, 1, 61, 100
3, 33408, Note_on_c, 1, 50, 60
3, 33408, Note_on_c, 1, 61, 60
3, 33536, Note_off_c, 1, 61, 100
3, 33600, Note_on_c, 1, 62, 60
3, 33664, Note_off_c, 1, 50, 100
3, 33728, Note_off_c, 1, 62, 100
3, 35328, Note_on_c, 1, 59, 90
3, 35360, Note_on_c, 1, 62, 90
3, 35456, Note_off_c, 1, 59, 100
3, 35488, Note_off_c, 1, 62, 100
3, 35520, Note_on_c, 1, 62, 90
3, 35520, Note_on_c, 1, 60, 90
3, 35520, Note_on_c, 1, 57, 90
3, 35648, Note_off_c, 1, 62, 100
3, 35648, Note_off_c, 1, 60, 100
3, 35648, Note_off_c, 1, 57, 100
3, 35712, Note_on_c, 1, 59, 90
3, 35712, Note_on_c, 1, 55, 90
3, 35712, Note_on_c, 1, 64, 90
3, 35840, Note_off_c, 1, 59, 100
3, 35840, Note_off_c, 1, 55, 100
3, 35840, Note_off_c, 1, 64, 100
3, 36096, Note_on_c, 1, 66, 60
3, 36096, Note_on_c, 1, 62, 60
3, 36096, Note_on_c, 1, 57, 60
3, 36224, Note_off_c, 1, 66, 100
3, 36224, Note_off_c, 1, 62, 100
3, 36224, Note_off_c, 1, 57, 100
3, 36480, Note_on_c, 1, 66, 60
3, 36480, Note_on_c, 1, 62, 60
3, 36480, Note_on_c, 1, 57, 60
3, 36608, Note_off_c, 1, 66, 100
3, 36608, Note_off_c, 1, 62, 100
3, 36608, Note_off_c, 1, 57, 100
3, 36864, Note_on_c, 1, 64, 60
3, 36864, Note_on_c, 1, 62, 60
3, 36864, Note_on_c, 1, 57, 60
3, 36992, Note_off_c, 1, 64, 100
3, 36992, Note_off_c, 1, 62, 100
3, 36992, Note_off_c, 1, 57, 100
3, 37248, Note_on_c, 1, 67, 60
3, 37248, Note_on_c, 1, 61, 60
3, 37248, Note_on_c, 1, 57, 60
3, 37376, Note_off_c, 1, 67, 100
3, 37376, Note_off_c, 1, 61, 100
3, 37376, Note_off_c, 1, 57, 100
3, 37632, Note_on_c, 1, 62, 60
3, 37632, Note_on_c, 1, 66, 60
3, 37888, Note_off_c, 1, 62, 100
3, 37888, Note_off_c, 1, 66, 100
3, 38400, Note_on_c, 1, 62, 60
3, 38400, Note_on_c, 1, 55, 60
3, 38528, Note_off_c, 1, 55, 100
3, 38592, Note_on_c, 1, 57, 60
3, 38736, Note_on_c, 1, 55, 60
3, 38768, Note_off_c, 1, 55, 100
3, 38784, Note_off_c, 1, 57, 100
3, 38784, Note_on_c, 1, 54, 60
3, 38912, Note_off_c, 1, 62, 100
3, 38912, Note_off_c, 1, 54, 100
3, 38976, Note_on_c, 1, 55, 60
3, 39104, Note_off_c, 1, 55, 100
3, 39168, Note_on_c, 1, 62, 60
3, 39168, Note_on_c, 1, 57, 60
3, 39296, Note_off_c, 1, 57, 100
3, 39360, Note_on_c, 1, 60, 60
3, 39424, Note_off_c, 1, 60, 100
3, 39456, Note_on_c, 1, 59, 60
3, 39520, Note_off_c, 1, 59, 100
3, 39552, Note_on_c, 1, 57, 60
3, 39680, Note_off_c, 1, 62, 100
3, 39680, Note_off_c, 1, 57, 100
3, 39744, Note_on_c, 1, 55, 60
3, 39872, Note_off_c, 1, 55, 100
3, 39936, Note_on_c, 1, 64, 90
3, 39936, Note_on_c, 1, 52, 90
3, 40064, Note_off_c, 1, 64, 100
3, 40064, Note_off_c, 1, 52, 100
3, 40128, Note_on_c, 1, 62, 90
3, 40128, Note_on_c, 1, 50, 90
3, 40256, Note_off_c, 1, 62, 100
3, 40256, Note_off_c, 1, 50, 100
3, 40320, Note_on_c, 1, 60, 90
3, 40320, Note_on_c, 1, 48, 90
3, 40448, Note_off_c, 1, 60, 100
3, 40448, Note_off_c, 1, 48, 100
3, 40608, Note_on_c, 1, 59, 60
3, 40672, Note_off_c, 1, 59, 100
3, 40704, Note_on_c, 1, 54, 60
3, 40832, Note_off_c, 1, 54, 100
3, 40896, Note_on_c, 1, 55, 60
3, 41024, Note_off_c, 1, 55, 100
3, 41088, Note_on_c, 1, 55, 60
3, 41088, Note_on_c, 1, 50, 60
3, 41216, Note_off_c, 1, 55, 100
3, 41280, Note_on_c, 1, 54, 60
3, 41344, Note_off_c, 1, 50, 100
3, 41408, Note_off_c, 1, 54, 100
3, 41472, Note_on_c, 1, 62, 60
3, 41472, Note_on_c, 1, 55, 60
3, 41600, Note_off_c, 1, 55, 100
3, 41664, Note_on_c, 1, 57, 60
3, 41760, Note_off_c, 1, 57, 100
3, 41808, Note_on_c, 1, 55, 60
3, 41840, Note_off_c, 1, 55, 100
3, 41856, Note_on_c, 1, 54, 60
3, 41984, Note_off_c, 1, 62, 100
3, 41984, Note_off_c, 1, 54, 100
3, 42048, Note_on_c, 1, 56, 60
3, 42176, Note_off_c, 1, 56, 100
3, 42240, Note_on_c, 1, 62, 60
3, 42240, Note_on_c, 1, 57, 60
3, 42368, Note_off_c, 1, 57, 100
3, 42432, Note_on_c, 1, 54, 60
3, 42560, Note_off_c, 1, 54, 100
3, 42624, Note_on_c, 1, 55, 60
3, 42752, Note_off_c, 1, 62, 100
3, 42880, Note_off_c, 1, 55, 100
3, 43008, Note_on_c, 1, 64, 90
3, 43008, Note_on_c, 1, 52, 90
3, 43136, Note_off_c, 1, 64, 100
3, 43136, Note_off_c, 1, 52, 100
3, 43200, Note_on_c, 1, 62, 90
3, 43200, Note_on_c, 1, 50, 90
3, 43328, Note_off_c, 1, 62, 100
3, 43328, Note_off_c, 1, 50, 100
3, 43392, Note_on_c, 1, 60, 90
3, 43392, Note_on_c, 1, 48, 90
3, 43520, Note_off_c, 1, 60, 100
3, 43520, Note_off_c, 1, 48, 100
3, 43680, Note_on_c, 1, 55, 90
3, 43680, Note_on_c, 1, 52, 60
3, 43744, Note_off_c, 1, 55, 100
3, 43744, Note_off_c, 1, 52, 100
3, 43776, Note_on_c, 1, 55, 60
3, 43776, Note_on_c, 1, 50, 60
3, 43904, Note_off_c, 1, 55, 100
3, 43968, Note_on_c, 1, 54, 60
3, 44032, Note_off_c, 1, 50, 100
3, 44096, Note_off_c, 1, 54, 100
3, 44160, Note_on_c, 1, 55, 60
3, 44160, Note_on_c, 1, 55, 60
3, 44224, Note_off_c, 1, 55, 100
3, 44256, Note_on_c, 1, 59, 60
3, 44320, Note_off_c, 1, 59, 100
3, 44352, Note_on_c, 1, 62, 60
3, 44416, Note_off_c, 1, 55, 100
3, 44416, Note_off_c, 1, 62, 100
3, 44448, Note_on_c, 1, 59, 60
3, 44512, Note_off_c, 1, 59, 100
3, 44544, Note_on_c, 1, 48, 60
3, 44544, Note_on_c, 1, 48, 60
3, 44608, Note_off_c, 1, 48, 100
3, 44640, Note_on_c, 1, 52, 60
3, 44704, Note_off_c, 1, 52, 100
3, 44736, Note_on_c, 1, 57, 60
3, 44800, Note_off_c, 1, 48, 100
3, 44800, Note_off_c, 1, 57, 100
3, 44832, Note_on_c, 1, 52, 60
3, 44896, Note_off_c, 1, 52, 100
3, 44928, Note_on_c, 1, 50, 60
3, 44928, Note_on_c, 1, 50, 60
3, 44992, Note_off_c, 1, 50, 100
3, 45024, Note_on_c, 1, 60, 60
3, 45088, Note_off_c, 1, 60, 100
3, 45120, Note_on_c, 1, 57, 60
3, 45184, Note_off_c, 1, 50, 100
3, 45184, Note_off_c, 1, 57, 100
3, 45216, Note_on_c, 1, 60, 60
3, 45280, Note_off_c, 1, 60, 100
3, 45312, Note_on_c, 1, 55, 60
3, 45312, Note_on_c, 1, 55, 60
3, 45376, Note_off_c, 1, 55, 100
3, 45408, Note_on_c, 1, 59, 60
3, 45472, Note_off_c, 1, 59, 100
3, 45504, Note_on_c, 1, 62, 60
3, 45568, Note_off_c, 1, 55, 100
3, 45568, Note_off_c, 1, 62, 100
3, 45600, Note_on_c, 1, 59, 60
3, 45664, Note_off_c, 1, 59, 100
3, 45696, Note_on_c, 1, 50, 60
3, 45696, Note_on_c, 1, 50, 60
3, 45760, Note_off_c, 1, 50, 100
3, 45792, Note_on_c, 1, 55, 60
3, 45856, Note_off_c, 1, 55, 100
3, 45888, Note_on_c, 1, 59, 60
3, 45952, Note_off_c, 1, 50, 100
3, 45952, Note_off_c, 1, 59, 100
3, 45984, Note_on_c, 1, 55, 60
3, 46048, Note_off_c, 1, 55, 100
3, 46080, Note_on_c, 1, 48, 60
3, 46080, Note_on_c, 1, 48, 60
3, 46144, Note_off_c, 1, 48, 100
3, 46176, Note_on_c, 1, 52, 60
3, 46240, Note_off_c, 1, 52, 100
3, 46272, Note_on_c, 1, 57, 60
3, 46336, Note_off_c, 1, 48, 100
3, 46336, Note_off_c, 1, 57, 100
3, 46368, Note_on_c, 1, 52, 60
3, 46432, Note_off_c, 1, 52, 100
3, 46464, Note_on_c, 1, 50, 60
3, 46464, Note_on_c, 1, 50, 60
3, 46528, Note_off_c, 1, 50, 100
3, 46560, Note_on_c, 1, 60, 60
3, 46624, Note_off_c, 1, 60, 100
3, 46656, Note_on_c, 1, 57, 60
3, 46720, Note_off_c, 1, 50, 100
3, 46720, Note_off_c, 1, 57, 100
3, 46736, Note_on_c, 1, 60, 60
3, 46800, Note_off_c, 1, 60, 100
3, 46848, Note_on_c, 1, 55, 60
3, 46848, Note_on_c, 1, 59, 60
3, 47104, Note_off_c, 1, 55, 100
3, 47104, Note_off_c, 1, 59, 100
3, 47232, Note_on_c, 1, 63, 90
3, 47232, Note_on_c, 1, 51, 90
3, 47360, Note_off_c, 1, 63, 100
3, 47360, Note_off_c, 1, 51, 100
3, 47424, Note_on_c, 1, 63, 90
3, 47424, Note_on_c, 1, 51, 90
3, 47552, Note_off_c, 1, 63, 100
3, 47552, Note_off_c, 1, 51, 100
3, 47616, Note_on_c, 1, 63, 90
3, 47616, Note_on_c, 1, 51, 90
3, 47872, Note_off_c, 1, 63, 100
3, 47872, Note_off_c, 1, 51, 100
3, 48000, Note_on_c, 1, 57, 60
3, 48000, Note_on_c, 1, 50, 60
3, 48128, Note_off_c, 1, 57, 100
3, 48128, Note_off_c, 1, 50, 100
3, 48192, Note_on_c, 1, 50, 60
3, 48192, Note_on_c, 1, 57, 60
3, 48320, Note_off_c, 1, 50, 100
3, 48320, Note_off_c, 1, 57, 100
3, 48384, Note_on_c, 1, 57, 60
3, 48384, Note_on_c, 1, 50, 60
3, 48640, Note_off_c, 1, 57, 100
3, 48640, Note_off_c, 1, 50, 100
3, 49152, Note_on_c, 1, 55, 67
3, 49216, Note_off_c, 1, 55, 100
3, 49248, Note_on_c, 1, 59, 67
3, 49312, Note_off_c, 1, 59, 100
3, 49344, Note_on_c, 1, 62, 67
3, 49408, Note_off_c, 1, 62, 100
3, 49440, Note_on_c, 1, 59, 67
3, 49504, Note_off_c, 1, 59, 100
3, 49536, Note_on_c, 1, 55, 67
3, 49600, Note_off_c, 1, 55, 100
3, 49632, Note_on_c, 1, 59, 67
3, 49696, Note_off_c, 1, 59, 100
3, 49728, Note_on_c, 1, 62, 67
3, 49792, Note_off_c, 1, 62, 100
3, 49824, Note_on_c, 1, 59, 67
3, 49888, Note_off_c, 1, 59, 100
3, 49920, Note_on_c, 1, 55, 67
3, 49984, Note_off_c, 1, 55, 100
3, 50016, Note_on_c, 1, 57, 67
3, 50080, Note_off_c, 1, 57, 100
3, 50112, Note_on_c, 1, 64, 67
3, 50176, Note_off_c, 1, 64, 100
3, 50208, Note_on_c, 1, 57, 67
3, 50272, Note_off_c, 1, 57, 100
3, 50304, Note_on_c, 1, 55, 67
3, 50368, Note_off_c, 1, 55, 100
3, 50400, Note_on_c, 1, 57, 67
3, 50464, Note_off_c, 1, 57, 100
3, 50496, Note_on_c, 1, 64, 67
3, 50560, Note_off_c, 1, 64, 100
3, 50592, Note_on_c, 1, 57, 67
3, 50656, Note_off_c, 1, 57, 100
3, 50688, Note_on_c, 1, 54, 67
3, 50688, Note_on_c, 1, 54, 67
3, 50752, Note_off_c, 1, 54, 100
3, 50784, Note_on_c, 1, 57, 67
3, 50816, Note_off_c, 1, 54, 100
3, 50848, Note_off_c, 1, 57, 100
3, 50880, Note_on_c, 1, 62, 67
3, 50944, Note_off_c, 1, 62, 100
3, 50976, Note_on_c, 1, 57, 67
3, 51040, Note_off_c, 1, 57, 100
3, 51072, Note_on_c, 1, 52, 67
3, 51072, Note_on_c, 1, 52, 67
3, 51136, Note_off_c, 1, 52, 100
3, 51168, Note_on_c, 1, 55, 67
3, 51200, Note_off_c, 1, 52, 100
3, 51232, Note_off_c, 1, 55, 100
3, 51264, Note_on_c, 1, 60, 67
3, 51328, Note_off_c, 1, 60, 100
3, 51360, Note_on_c, 1, 55, 67
3, 51424, Note_off_c, 1, 55, 100
3, 51456, Note_on_c, 1, 51, 67
3, 51456, Note_on_c, 1, 51, 67
3, 51520, Note_off_c, 1, 51, 100
3, 51552, Note_on_c, 1, 54, 67
3, 51584, Note_off_c, 1, 51, 100
3, 51616, Note_off_c, 1, 54, 100
3, 51648, Note_on_c, 1, 57, 67
3, 51712, Note_off_c, 1, 57, 100
3, 51744, Note_on_c, 1, 51, 67
3, 51808, Note_off_c, 1, 51, 100
3, 51840, Note_on_c, 1, 52, 67
3, 51904, Note_off_c, 1, 52, 100
3, 51936, Note_on_c, 1, 55, 67
3, 52000, Note_off_c, 1, 55, 100
3, 52032, Note_on_c, 1, 50, 67
3, 52096, Note_off_c, 1, 50, 100
3, 52128, Note_on_c, 1, 55, 67
3, 52192, Note_off_c, 1, 55, 100
3, 52224, Note_on_c, 1, 49, 67
3, 52224, Note_on_c, 1, 49, 67
3, 52288, Note_off_c, 1, 49, 100
3, 52320, Note_on_c, 1, 52, 67
3, 52352, Note_off_c, 1, 49, 100
3, 52384, Note_off_c, 1, 52, 100
3, 52416, Note_on_c, 1, 55, 67
3, 52480, Note_off_c, 1, 55, 100
3, 52512, Note_on_c, 1, 52, 67
3, 52576, Note_off_c, 1, 52, 100
3, 52608, Note_on_c, 1, 49, 67
3, 52672, Note_off_c, 1, 49, 100
3, 52704, Note_on_c, 1, 52, 67
3, 52768, Note_off_c, 1, 52, 100
3, 52800, Note_on_c, 1, 55, 67
3, 52864, Note_off_c, 1, 55, 100
3, 52896, Note_on_c, 1, 52, 67
3, 52960, Note_off_c, 1, 52, 100
3, 52992, Note_on_c, 1, 48, 67
3, 52992, Note_on_c, 1, 48, 67
3, 53056, Note_off_c, 1, 48, 100
3, 53088, Note_on_c, 1, 54, 67
3, 53120, Note_off_c, 1, 48, 100
3, 53152, Note_off_c, 1, 54, 100
3, 53184, Note_on_c, 1, 57, 67
3, 53248, Note_off_c, 1, 57, 100
3, 53280, Note_on_c, 1, 48, 67
3, 53344, Note_off_c, 1, 48, 100
3, 53376, Note_on_c, 1, 47, 67
3, 53376, Note_on_c, 1, 47, 67
3, 53440, Note_off_c, 1, 47, 100
3, 53472, Note_on_c, 1, 55, 67
3, 53504, Note_off_c, 1, 47, 100
3, 53536, Note_off_c, 1, 55, 100
3, 53568, Note_on_c, 1, 52, 67
3, 53632, Note_off_c, 1, 52, 100
3, 53664, Note_on_c, 1, 50, 67
3, 53728, Note_off_c, 1, 50, 100
3, 53760, Note_on_c, 1, 52, 67
3, 53760, Note_on_c, 1, 48, 67
3, 54144, Note_off_c, 1, 52, 100
3, 54144, Note_off_c, 1, 48, 100
3, 54336, Note_on_c, 1, 57, 67
3, 54336, Note_on_c, 1, 49, 67
3, 54464, Note_off_c, 1, 57, 100
3, 54464, Note_off_c, 1, 49, 100
3, 54528, Note_on_c, 1, 57, 67
3, 54528, Note_on_c, 1, 50, 67
3, 54784, Note_off_c, 1, 57, 100
3, 54784, Note_off_c, 1, 50, 100
3, 56832, Note_on_c, 1, 59, 82
3, 56832, Note_on_c, 1, 55, 82
3, 56960, Note_off_c, 1, 59, 100
3, 56960, Note_off_c, 1, 55, 100
3, 56976, Note_on_c, 1, 62, 82
3, 57008, Note_off_c, 1, 62, 100
3, 57024, Note_on_c, 1, 57, 82
3, 57024, Note_on_c, 1, 60, 82
3, 57120, Note_off_c, 1, 57, 100
3, 57120, Note_off_c, 1, 60, 100
3, 57168, Note_on_c, 1, 59, 82
3, 57168, Note_on_c, 1, 55, 82
3, 57200, Note_off_c, 1, 59, 100
3, 57200, Note_off_c, 1, 55, 100
3, 57216, Note_on_c, 1, 57, 82
3, 57216, Note_on_c, 1, 54, 82
3, 57344, Note_off_c, 1, 57, 100
3, 57344, Note_off_c, 1, 54, 100
3, 57408, Note_on_c, 1, 59, 82
3, 57408, Note_on_c, 1, 55, 82
3, 57536, Note_off_c, 1, 59, 100
3, 57536, Note_off_c, 1, 55, 100
3, 57600, Note_on_c, 1, 57, 82
3, 57600, Note_on_c, 1, 60, 82
3, 57728, Note_off_c, 1, 57, 100
3, 57728, Note_off_c, 1, 60, 100
3, 57792, Note_on_c, 1, 59, 82
3, 57792, Note_on_c, 1, 62, 82
3, 57920, Note_off_c, 1, 59, 100
3, 57920, Note_off_c, 1, 62, 100
3, 57984, Note_on_c, 1, 57, 82
3, 57984, Note_on_c, 1, 60, 82
3, 58112, Note_off_c, 1, 57, 100
3, 58112, Note_off_c, 1, 60, 100
3, 58176, Note_on_c, 1, 55, 82
3, 58176, Note_on_c, 1, 59, 82
3, 58304, Note_off_c, 1, 55, 100
3, 58304, Note_off_c, 1, 59, 100
3, 58368, Note_on_c, 1, 59, 90
3, 58368, Note_on_c, 1, 62, 90
3, 58496, Note_off_c, 1, 59, 100
3, 58496, Note_off_c, 1, 62, 100
3, 58560, Note_on_c, 1, 57, 90
3, 58560, Note_on_c, 1, 60, 90
3, 58688, Note_off_c, 1, 57, 100
3, 58688, Note_off_c, 1, 60, 100
3, 58752, Note_on_c, 1, 55, 90
3, 58752, Note_on_c, 1, 59, 90
3, 58880, Note_off_c, 1, 55, 100
3, 58880, Note_off_c, 1, 59, 100
3, 59136, Note_on_c, 1, 59, 60
3, 59136, Note_on_c, 1, 55, 60
3, 59264, Note_off_c, 1, 59, 100
3, 59264, Note_off_c, 1, 55, 100
3, 59328, Note_on_c, 1, 59, 60
3, 59328, Note_on_c, 1, 55, 60
3, 59328, Note_on_c, 1, 53, 60
3, 59456, Note_off_c, 1, 59, 100
3, 59456, Note_off_c, 1, 55, 100
3, 59456, Note_off_c, 1, 53, 100
3, 59520, Note_on_c, 1, 55, 60
3, 59520, Note_on_c, 1, 52, 60
3, 59648, Note_off_c, 1, 55, 100
3, 59648, Note_off_c, 1, 52, 100
3, 59904, Note_on_c, 1, 55, 90
3, 59904, Note_on_c, 1, 52, 90
3, 60032, Note_off_c, 1, 55, 100
3, 60032, Note_off_c, 1, 52, 100
3, 60096, Note_on_c, 1, 53, 90
3, 60096, Note_on_c, 1, 50, 90
3, 60096, Note_on_c, 1, 56, 90
3, 60224, Note_off_c, 1, 53, 100
3, 60224, Note_off_c, 1, 50, 100
3, 60224, Note_off_c, 1, 56, 100
3, 60288, Note_on_c, 1, 52, 90
3, 60288, Note_on_c, 1, 48, 90
3, 60288, Note_on_c, 1, 57, 90
3, 60416, Note_off_c, 1, 52, 100
3, 60416, Note_off_c, 1, 48, 100
3, 60416, Note_off_c, 1, 57, 100
3, 60672, Note_on_c, 1, 59, 60
3, 60672, Note_on_c, 1, 50, 60
3, 60800, Note_off_c, 1, 59, 100
3, 60864, Note_on_c, 1, 54, 60
3, 60928, Note_off_c, 1, 50, 100
3, 60992, Note_off_c, 1, 54, 100
3, 61056, Note_on_c, 1, 54, 60
3, 61056, Note_on_c, 1, 43, 60
3, 61184, Note_off_c, 1, 54, 100
3, 61248, Note_on_c, 1, 55, 60
3, 61312, Note_off_c, 1, 43, 100
3, 61376, Note_off_c, 1, 55, 100
3, 61440, Note_on_c, 1, 59, 90
3, 61440, Note_on_c, 1, 62, 90
3, 61568, Note_off_c, 1, 59, 100
3, 61568, Note_off_c, 1, 62, 100
3, 61632, Note_on_c, 1, 57, 90
3, 61632, Note_on_c, 1, 63, 90
3, 61632, Note_on_c, 1, 60, 90
3, 61760, Note_off_c, 1, 57, 100
3, 61760, Note_off_c, 1, 63, 100
3, 61760, Note_off_c, 1, 60, 100
3, 61824, Note_on_c, 1, 64, 90
3, 61824, Note_on_c, 1, 59, 90
3, 61824, Note_on_c, 1, 55, 90
3, 61952, Note_off_c, 1, 64, 100
3, 61952, Note_off_c, 1, 59, 100
3, 61952, Note_off_c, 1, 55, 100
3, 66048, Note_on_c, 1, 62, 60
3, 66048, Note_on_c, 1, 55, 60
3, 66176, Note_off_c, 1, 55, 100
3, 66240, Note_on_c, 1, 57, 60
3, 66304, Note_off_c, 1, 62, 100
3, 66336, Note_off_c, 1, 57, 100
3, 66384, Note_on_c, 1, 55, 60
3, 66416, Note_off_c, 1, 55, 100
3, 66432, Note_on_c, 1, 62, 60
3, 66432, Note_on_c, 1, 54, 60
3, 66560, Note_off_c, 1, 54, 100
3, 66624, Note_on_c, 1, 55, 60
3, 66688, Note_off_c, 1, 62, 100
3, 66752, Note_off_c, 1, 55, 100
3, 66816, Note_on_c, 1, 62, 60
3, 66816, Note_on_c, 1, 57, 60
3, 66944, Note_off_c, 1, 57, 100
3, 67008, Note_on_c, 1, 54, 60
3, 67072, Note_off_c, 1, 62, 100
3, 67136, Note_off_c, 1, 54, 100
3, 67200, Note_on_c, 1, 62, 60
3, 67200, Note_on_c, 1, 55, 60
3, 67456, Note_off_c, 1, 62, 100
3, 67456, Note_off_c, 1, 55, 100
3, 67584, Note_on_c, 1, 64, 90
3, 67584, Note_on_c, 1, 52, 90
3, 67712, Note_off_c, 1, 64, 100
3, 67712, Note_off_c, 1, 52, 100
3, 67776, Note_on_c, 1, 62, 90
3, 67776, Note_on_c, 1, 50, 90
3, 67904, Note_off_c, 1, 62, 100
3, 67904, Note_off_c, 1, 50, 100
3, 67968, Note_on_c, 1, 60, 90
3, 67968, Note_on_c, 1, 48, 90
3, 68096, Note_off_c, 1, 60, 100
3, 68096, Note_off_c, 1, 48, 100
3, 68256, Note_on_c, 1, 59, 60
3, 68320, Note_off_c, 1, 59, 100
3, 68352, Note_on_c, 1, 62, 60
3, 68352, Note_on_c, 1, 54, 60
3, 68480, Note_off_c, 1, 54, 100
3, 68544, Note_on_c, 1, 55, 60
3, 68608, Note_off_c, 1, 62, 100
3, 68672, Note_off_c, 1, 55, 100
3, 68736, Note_on_c, 1, 62, 60
3, 68736, Note_on_c, 1, 50, 60
3, 68992, Note_off_c, 1, 62, 100
3, 68992, Note_off_c, 1, 50, 100
3, 69120, Note_on_c, 1, 55, 60
3, 69120, Note_on_c, 1, 62, 60
3, 69248, Note_off_c, 1, 55, 100
3, 69312, Note_on_c, 1, 57, 60
3, 69376, Note_off_c, 1, 62, 100
3, 69376, Note_off_c, 1, 57, 100
3, 69408, Note_on_c, 1, 55, 60
3, 69472, Note_off_c, 1, 55, 100
3, 69504, Note_on_c, 1, 54, 60
3, 69504, Note_on_c, 1, 62, 60
3, 69632, Note_off_c, 1, 54, 100
3, 69632, Note_off_c, 1, 62, 100
3, 69696, Note_on_c, 1, 55, 60
3, 69696, Note_on_c, 1, 62, 60
3, 69824, Note_off_c, 1, 55, 100
3, 69824, Note_off_c, 1, 62, 100
3, 69888, Note_on_c, 1, 57, 60
3, 69888, Note_on_c, 1, 62, 60
3, 70016, Note_off_c, 1, 57, 100
3, 70016, Note_off_c, 1, 62, 100
3, 70080, Note_on_c, 1, 54, 60
3, 70080, Note_on_c, 1, 62, 60
3, 70208, Note_off_c, 1, 54, 100
3, 70208, Note_off_c, 1, 62, 100
3, 70272, Note_on_c, 1, 55, 60
3, 70272, Note_on_c, 1, 62, 60
3, 70400, Note_off_c, 1, 55, 100
3, 70400, Note_off_c, 1, 62, 100
3, 70656, Note_on_c, 1, 64, 90
3, 70656, Note_on_c, 1, 52, 90
3, 70784, Note_off_c, 1, 64, 100
3, 70784, Note_off_c, 1, 52, 100
3, 70848, Note_on_c, 1, 62, 90
3, 70848, Note_on_c, 1, 50, 90
3, 70976, Note_off_c, 1, 62, 100
3, 70976, Note_off_c, 1, 50, 100
3, 71040, Note_on_c, 1, 60, 90
3, 71040, Note_on_c, 1, 48, 90
3, 71168, Note_off_c, 1, 60, 100
3, 71168, Note_off_c, 1, 48, 100
3, 71328, Note_on_c, 1, 67, 60
3, 71328, Note_on_c, 1, 64, 60
3, 71392, Note_off_c, 1, 67, 100
3, 71392, Note_off_c, 1, 64, 100
3, 71424, Note_on_c, 1, 62, 60
3, 71424, Note_on_c, 1, 67, 60
3, 71552, Note_off_c, 1, 67, 100
3, 71616, Note_on_c, 1, 66, 60
3, 71680, Note_off_c, 1, 62, 100
3, 71744, Note_off_c, 1, 66, 100
3, 71808, Note_on_c, 1, 55, 60
3, 71808, Note_on_c, 1, 55, 60
3, 71872, Note_off_c, 1, 55, 100
3, 71904, Note_on_c, 1, 59, 60
3, 71968, Note_off_c, 1, 59, 100
3, 72000, Note_on_c, 1, 62, 60
3, 72064, Note_off_c, 1, 55, 100
3, 72064, Note_off_c, 1, 62, 100
3, 72096, Note_on_c, 1, 59, 60
3, 72160, Note_off_c, 1, 59, 100
3, 72192, Note_on_c, 1, 48, 60
3, 72192, Note_on_c, 1, 48, 60
3, 72256, Note_off_c, 1, 48, 100
3, 72288, Note_on_c, 1, 52, 60
3, 72352, Note_off_c, 1, 52, 100
3, 72384, Note_on_c, 1, 57, 60
3, 72448, Note_off_c, 1, 48, 100
3, 72448, Note_off_c, 1, 57, 100
3, 72480, Note_on_c, 1, 52, 60
3, 72544, Note_off_c, 1, 52, 100
3, 72576, Note_on_c, 1, 50, 60
3, 72576, Note_on_c, 1, 50, 60
3, 72640, Note_off_c, 1, 50, 100
3, 72672, Note_on_c, 1, 60, 60
3, 72736, Note_off_c, 1, 60, 100
3, 72768, Note_on_c, 1, 57, 60
3, 72832, Note_off_c, 1, 50, 100
3, 72832, Note_off_c, 1, 57, 100
3, 72864, Note_on_c, 1, 60, 60
3, 72928, Note_off_c, 1, 60, 100
3, 72960, Note_on_c, 1, 55, 60
3, 72960, Note_on_c, 1, 55, 60
3, 73024, Note_off_c, 1, 55, 100
3, 73056, Note_on_c, 1, 59, 60
3, 73120, Note_off_c, 1, 59, 100
3, 73152, Note_on_c, 1, 62, 60
3, 73216, Note_off_c, 1, 55, 100
3, 73216, Note_off_c, 1, 62, 100
3, 73248, Note_on_c, 1, 59, 60
3, 73312, Note_off_c, 1, 59, 100
3, 73344, Note_on_c, 1, 52, 60
3, 73344, Note_on_c, 1, 52, 60
3, 73408, Note_off_c, 1, 52, 100
3, 73440, Note_on_c, 1, 55, 60
3, 73504, Note_off_c, 1, 55, 100
3, 73536, Note_on_c, 1, 59, 60
3, 73600, Note_off_c, 1, 52, 100
3, 73600, Note_off_c, 1, 59, 100
3, 73632, Note_on_c, 1, 55, 60
3, 73696, Note_off_c, 1, 55, 100
3, 73728, Note_on_c, 1, 48, 60
3, 73728, Note_on_c, 1, 48, 60
3, 73792, Note_off_c, 1, 48, 100
3, 73840, Note_on_c, 1, 52, 60
3, 73904, Note_off_c, 1, 52, 100
3, 73920, Note_on_c, 1, 57, 60
3, 73984, Note_off_c, 1, 48, 100
3, 73984, Note_off_c, 1, 57, 100
3, 74016, Note_on_c, 1, 52, 60
3, 74080, Note_off_c, 1, 52, 100
3, 74112, Note_on_c, 1, 50, 60
3, 74112, Note_on_c, 1, 50, 60
3, 74176, Note_off_c, 1, 50, 100
3, 74208, Note_on_c, 1, 60, 60
3, 74272, Note_off_c, 1, 60, 100
3, 74304, Note_on_c, 1, 57, 60
3, 74368, Note_off_c, 1, 50, 100
3, 74368, Note_off_c, 1, 57, 100
3, 74400, Note_on_c, 1, 60, 60
3, 74464, Note_off_c, 1, 60, 100
3, 74496, Note_on_c, 1, 43, 60
3, 74560, Note_off_c, 1, 43, 100
3, 74592, Note_on_c, 1, 55, 60
3, 74656, Note_off_c, 1, 55, 100
3, 74688, Note_on_c, 1, 59, 60
3, 74752, Note_off_c, 1, 59, 100
3, 74784, Note_on_c, 1, 62, 60
3, 74848, Note_off_c, 1, 62, 100
3, 74880, Note_on_c, 1, 40, 60
3, 74944, Note_off_c, 1, 40, 100
3, 74976, Note_on_c, 1, 52, 60
3, 75040, Note_off_c, 1, 52, 100
3, 75072, Note_on_c, 1, 55, 60
3, 75136, Note_off_c, 1, 55, 100
3, 75168, Note_on_c, 1, 59, 60
3, 75232, Note_off_c, 1, 59, 100
3, 75264, Note_on_c, 1, 36, 60
3, 75328, Note_off_c, 1, 36, 100
3, 75360, Note_on_c, 1, 48, 60
3, 75424, Note_off_c, 1, 48, 100
3, 75456, Note_on_c, 1, 52, 60
3, 75520, Note_off_c, 1, 52, 100
3, 75552, Note_on_c, 1, 57, 60
3, 75616, Note_off_c, 1, 57, 100
3, 75648, Note_on_c, 1, 40, 60
3, 75712, Note_off_c, 1, 40, 100
3, 75744, Note_on_c, 1, 50, 60
3, 75808, Note_off_c, 1, 50, 100
3, 75840, Note_on_c, 1, 57, 60
3, 75904, Note_off_c, 1, 57, 100
3, 75936, Note_on_c, 1, 60, 60
3, 76000, Note_off_c, 1, 60, 100
3, 76032, Note_on_c, 1, 35, 60
3, 76096, Note_off_c, 1, 35, 100
3, 76128, Note_on_c, 1, 47, 60
3, 76192, Note_off_c, 1, 47, 100
3, 76224, Note_on_c, 1, 50, 60
3, 76288, Note_off_c, 1, 50, 100
3, 76320, Note_on_c, 1, 55, 60
3, 76384, Note_off_c, 1, 55, 100
3, 76416, Note_on_c, 1, 40, 60
3, 76480, Note_off_c, 1, 40, 100
3, 76512, Note_on_c, 1, 52, 67
3, 76576, Note_off_c, 1, 52, 100
3, 76608, Note_on_c, 1, 55, 75
3, 76672, Note_off_c, 1, 55, 100
3, 76704, Note_on_c, 1, 59, 90
3, 76768, Note_off_c, 1, 59, 100
3, 76800, Note_on_c, 1, 36, 90
3, 76864, Note_off_c, 1, 36, 100
3, 76896, Note_on_c, 1, 48, 90
3, 76960, Note_off_c, 1, 48, 100
3, 76992, Note_on_c, 1, 52, 90
3, 77056, Note_off_c, 1, 52, 100
3, 77088, Note_on_c, 1, 57, 90
3, 77152, Note_off_c, 1, 57, 100
3, 77200, Note_on_c, 1, 38, 90
3, 77264, Note_off_c, 1, 38, 100
3, 77280, Note_on_c, 1, 50, 90
3, 77344, Note_off_c, 1, 50, 100
3, 77376, Note_on_c, 1, 57, 90
3, 77440, Note_off_c, 1, 57, 100
3, 77472, Note_on_c, 1, 60, 90
3, 77536, Note_off_c, 1, 60, 100
3, 77568, Note_on_c, 1, 55, 90
3, 77632, Note_off_c, 1, 55, 100
3, 77664, Note_on_c, 1, 59, 90
3, 77664, Note_on_c, 1, 62, 90
3, 77728, Note_off_c, 1, 59, 100
3, 77728, Note_off_c, 1, 62, 100
3, 77760, Note_on_c, 1, 59, 90
3, 77776, Note_on_c, 1, 62, 90
3, 77824, Note_off_c, 1, 59, 100
3, 77840, Note_off_c, 1, 62, 100
3, 77856, Note_on_c, 1, 59, 90
3, 77856, Note_on_c, 1, 62, 90
3, 77920, Note_off_c, 1, 59, 100
3, 77920, Note_off_c, 1, 62, 100
3, 77952, Note_on_c, 1, 50, 60
3, 78016, Note_off_c, 1, 50, 100
3, 78048, Note_on_c, 1, 60, 60
3, 78048, Note_on_c, 1, 62, 60
3, 78112, Note_off_c, 1, 60, 100
3, 78112, Note_off_c, 1, 62, 100
3, 78144, Note_on_c, 1, 60, 60
3, 78144, Note_on_c, 1, 62, 60
3, 78208, Note_off_c, 1, 60, 100
3, 78208, Note_off_c, 1, 62, 100
3, 78240, Note_on_c, 1, 60, 60
3, 78240, Note_on_c, 1, 62, 60
3, 78304, Note_off_c, 1, 60, 100
3, 78304, Note_off_c, 1, 62, 100
3, 78336, Note_on_c, 1, 55, 60
3, 78400, Note_off_c, 1, 55, 100
3, 78432, Note_on_c, 1, 59, 60
3, 78432, Note_on_c, 1, 62, 60
3, 78496, Note_off_c, 1, 59, 100
3, 78496, Note_off_c, 1, 62, 100
3, 78528, Note_on_c, 1, 59, 60
3, 78528, Note_on_c, 1, 62, 60
3, 78592, Note_off_c, 1, 59, 100
3, 78592, Note_off_c, 1, 62, 100
3, 78624, Note_on_c, 1, 59, 60
3, 78624, Note_on_c, 1, 62, 60
3, 78688, Note_off_c, 1, 59, 100
3, 78688, Note_off_c, 1, 62, 100
3, 78720, Note_on_c, 1, 50, 60
3, 78784, Note_off_c, 1, 50, 100
3, 78816, Note_on_c, 1, 60, 60
3, 78816, Note_on_c, 1, 62, 60
3, 78880, Note_off_c, 1, 60, 100
3, 78880, Note_off_c, 1, 62, 100
3, 78912, Note_on_c, 1, 60, 60
3, 78912, Note_on_c, 1, 62, 60
3, 78976, Note_off_c, 1, 60, 100
3, 78976, Note_off_c, 1, 62, 100
3, 79008, Note_on_c, 1, 60, 60
3, 79008, Note_on_c, 1, 62, 60
3, 79072, Note_off_c, 1, 60, 100
3, 79072, Note_off_c, 1, 62, 100
3, 79104, Note_on_c, 1, 62, 60
3, 79104, Note_on_c, 1, 59, 60
3, 79104, Note_on_c, 1, 55, 60
3, 79232, Note_off_c, 1, 62, 100
3, 79232, Note_off_c, 1, 59, 100
3, 79232, Note_off_c, 1, 55, 100
3, 79296, Note_on_c, 1, 60, 55
3, 79296, Note_on_c, 1, 54, 55
3, 79296, Note_on_c, 1, 50, 55
3, 79424, Note_off_c, 1, 60, 100
3, 79424, Note_off_c, 1, 54, 100
3, 79424, Note_off_c, 1, 50, 100
3, 79488, Note_on_c, 1, 59, 52
3, 79488, Note_on_c, 1, 55, 52
3, 79616, Note_off_c, 1, 59, 100
3, 79616, Note_off_c, 1, 55, 100
3, 79680, Note_on_c, 1, 60, 49
3, 79680, Note_on_c, 1, 54, 49
3, 79680, Note_on_c, 1, 50, 49
3, 79808, Note_off_c, 1, 60, 100
3, 79808, Note_off_c, 1, 54, 100
3, 79808, Note_off_c, 1, 50, 100
3, 79872, Note_on_c, 1, 59, 45
3, 79872, Note_on_c, 1, 55, 45
3, 80128, Note_off_c, 1, 59, 100
3, 80128, Note_off_c, 1, 55, 100
3, 80256, Note_on_c, 1, 59, 45
3, 80256, Note_on_c, 1, 55, 45
3, 80384, Note_off_c, 1, 59, 100
3, 80384, Note_off_c, 1, 55, 100
3, 80384, End_track
4, 0, Start_track
4, 0, Title_t, "Sonata # 12"
4, 0, Key_signature, 1, "major"
4, 0, End_track
5, 0, Start_track
5, 0, Title_t, "by Bob"
5, 0, Key_signature, 1, "major"
5, 0, End_track
6, 0, Start_track
6, 0, Title_t, "Fisher"
6, 0, Key_signature, 1, "major"
6, 0, End_track
7, 0, Start_track
7, 0, Key_signature, 1, "major"
7, 0, End_track
8, 0, Start_track
8, 0, Key_signature, 1, "major"
8, 0, End_track
9, 0, Start_track
9, 0, Key_signature, 1, "major"
9, 0, End_track
10, 0, Start_track
10, 0, Key_signature, 1, "major"
10, 0, End_track
11, 0, Start_track
11, 0, Key_signature, 1, "major"
11, 0, End_track
12, 0, Start_track
12, 0, Key_signature, 1, "major"
12, 0, End_track
13, 0, Start_track
13, 0, Key_signature, 1, "major"
13, 0, End_track
14, 0, Start_track
14, 0, Key_signature, 1, "major"
14, 0, End_track
15, 0, Start_track
15, 0, Key_signature, 1, "major"
15, 0, End_track
16, 0, Start_track
16, 0, Key_signature, 1, "major"
16, 0, End_track
0, 0, End_of_file
