0, 0, Header, 1, 6, 384
1, 0, Start_track
1, 0, Time_signature, 4, 2, 96, 8
1, 0, Sequencer_specific, 3, 0, 0, 65
1, 0, Sequencer_specific, 5, 0, 0, 119, 14, 0
1, 0, Tempo, 483870
1, 46848, Tempo, 491803
1, 71040, Tempo, 483870
1, 151680, Tempo, 491803
1, 179712, Tempo, 483870
1, 210432, Tempo, 491803
1, 219648, Tempo, 500000
1, 228864, Tempo, 483870
1, 251904, Tempo, 491803
1, 258048, Tempo, 483870
1, 273408, Tempo, 491803
1, 276480, Tempo, 483870
1, 279552, Tempo, 491803
1, 282624, Tempo, 483870
1, 290304, Tempo, 500000
1, 294912, Tempo, 491803
1, 296448, Tempo, 483870
1, 303360, Tempo, 1000000
1, 304128, Tempo, 491803
1, 322560, Tempo, 483870
1, 351360, Tempo, 491803
1, 374784, Tempo, 483870
1, 400896, Tempo, 500000
1, 410112, Tempo, 483870
1, 445440, Tempo, 500000
1, 453120, Tempo, 545454
1, 454656, Tempo, 600000
1, 456192, Tempo, 666666
1, 457728, Tempo, 483870
1, 467712, Tempo, 600000
1, 468480, Tempo, 857142
1, 470400, Tempo, 750000
1, 472704, Tempo, 500000
1, 479232, Tempo, 461538
1, 488448, Tempo, 491803
1, 492288, Tempo, 750000
1, 495360, Tempo, 526315
1, 500736, Tempo, 416666
1, 502272, Tempo, 526315
1, 503808, Tempo, 483870
1, 522240, Tempo, 491803
1, 525312, Tempo, 517241
1, 526848, Tempo, 545454
1, 526848, End_track
2, 0, Start_track
2, 0, Title_t, "Mozart - Piano Concerto #23"
2, 0, Control_c, 0, 0, 0
2, 0, Program_c, 0, 0
2, 0, Control_c, 0, 7, 127
2, 0, Control_c, 0, 10, 67
2, 0, Control_c, 0, 91, 79
2, 0, Control_c, 0, 93, 47
2, 0, Key_signature, 3, "major"
2, 0, Control_c, 0, 121, 0
2, 384, Control_c, 0, 10, 63
2, 480, Control_c, 0, 91, 63
2, 576, Control_c, 0, 93, 35
2, 672, Program_c, 0, 0
2, 102912, Note_on_c, 0, 76, 70
2, 102912, Note_on_c, 0, 57, 70
2, 103100, Note_off_c, 0, 57, 0
2, 103104, Note_on_c, 0, 66, 70
2, 103292, Note_off_c, 0, 66, 0
2, 103296, Note_on_c, 0, 61, 70
2, 103484, Note_off_c, 0, 61, 0
2, 103488, Note_on_c, 0, 64, 70
2, 103676, Note_off_c, 0, 76, 0
2, 103676, Note_off_c, 0, 64, 0
2, 103680, Note_on_c, 0, 73, 70
2, 103680, Note_on_c, 0, 57, 70
2, 103868, Note_off_c, 0, 57, 0
2, 103872, Note_on_c, 0, 67, 70
2, 104060, Note_off_c, 0, 67, 0
2, 104064, Note_on_c, 0, 64, 70
2, 104252, Note_off_c, 0, 64, 0
2, 104256, Note_on_c, 0, 67, 70
2, 104324, Note_off_c, 0, 73, 0
2, 104448, Note_on_c, 0, 74, 70
2, 104448, Note_on_c, 0, 57, 70
2, 104452, Note_off_c, 0, 67, 0
2, 104636, Note_off_c, 0, 57, 0
2, 104640, Note_on_c, 0, 69, 70
2, 104828, Note_off_c, 0, 69, 0
2, 104832, Note_on_c, 0, 66, 70
2, 105020, Note_off_c, 0, 74, 0
2, 105020, Note_off_c, 0, 66, 0
2, 105024, Note_on_c, 0, 78, 70
2, 105024, Note_on_c, 0, 69, 70
2, 105184, Note_off_c, 0, 78, 0
2, 105212, Note_off_c, 0, 69, 0
2, 105216, Note_on_c, 0, 71, 70
2, 105216, Note_on_c, 0, 62, 70
2, 105404, Note_off_c, 0, 71, 0
2, 105404, Note_off_c, 0, 62, 0
2, 105408, Note_on_c, 0, 74, 70
2, 105408, Note_on_c, 0, 66, 70
2, 105568, Note_off_c, 0, 74, 0
2, 105596, Note_off_c, 0, 66, 0
2, 105600, Note_on_c, 0, 68, 70
2, 105600, Note_on_c, 0, 59, 70
2, 105788, Note_off_c, 0, 68, 0
2, 105788, Note_off_c, 0, 59, 0
2, 105792, Note_on_c, 0, 71, 70
2, 105792, Note_on_c, 0, 62, 70
2, 105980, Note_off_c, 0, 71, 0
2, 105980, Note_off_c, 0, 62, 0
2, 105984, Note_on_c, 0, 69, 70
2, 105984, Note_on_c, 0, 61, 70
2, 106304, Note_off_c, 0, 69, 0
2, 106304, Note_off_c, 0, 61, 0
2, 106368, Note_on_c, 0, 68, 70
2, 106368, Note_on_c, 0, 64, 70
2, 106748, Note_off_c, 0, 68, 0
2, 106748, Note_off_c, 0, 64, 0
2, 106752, Note_on_c, 0, 66, 70
2, 106752, Note_on_c, 0, 62, 70
2, 107132, Note_off_c, 0, 66, 0
2, 107132, Note_off_c, 0, 62, 0
2, 107136, Note_on_c, 0, 64, 70
2, 107136, Note_on_c, 0, 61, 70
2, 107456, Note_off_c, 0, 64, 0
2, 107456, Note_off_c, 0, 61, 0
2, 107520, Note_on_c, 0, 64, 70
2, 107520, Note_on_c, 0, 61, 70
2, 108092, Note_off_c, 0, 64, 0
2, 108092, Note_off_c, 0, 61, 0
2, 108096, Note_on_c, 0, 68, 70
2, 108096, Note_on_c, 0, 64, 70
2, 108188, Note_off_c, 0, 68, 0
2, 108188, Note_off_c, 0, 64, 0
2, 108192, Note_on_c, 0, 66, 70
2, 108192, Note_on_c, 0, 62, 70
2, 108284, Note_off_c, 0, 66, 0
2, 108284, Note_off_c, 0, 62, 0
2, 108288, Note_on_c, 0, 64, 70
2, 108288, Note_on_c, 0, 61, 70
2, 108608, Note_off_c, 0, 64, 0
2, 108608, Note_off_c, 0, 61, 0
2, 109056, Note_on_c, 0, 69, 70
2, 109700, Note_off_c, 0, 69, 0
2, 109824, Note_on_c, 0, 68, 70
2, 109916, Note_off_c, 0, 68, 0
2, 109920, Note_on_c, 0, 69, 70
2, 110012, Note_off_c, 0, 69, 0
2, 110016, Note_on_c, 0, 71, 70
2, 110108, Note_off_c, 0, 71, 0
2, 110112, Note_on_c, 0, 73, 70
2, 110192, Note_off_c, 0, 73, 0
2, 110208, Note_on_c, 0, 74, 70
2, 110288, Note_off_c, 0, 74, 0
2, 110400, Note_on_c, 0, 74, 70
2, 110480, Note_off_c, 0, 74, 0
2, 110592, Note_on_c, 0, 73, 70
2, 110592, Note_on_c, 0, 57, 70
2, 111236, Note_off_c, 0, 73, 0
2, 111236, Note_off_c, 0, 57, 0
2, 111360, Note_on_c, 0, 71, 71
2, 111360, Note_on_c, 0, 56, 71
2, 111452, Note_off_c, 0, 71, 0
2, 111452, Note_off_c, 0, 56, 0
2, 111456, Note_on_c, 0, 73, 73
2, 111456, Note_on_c, 0, 57, 73
2, 111548, Note_off_c, 0, 73, 0
2, 111548, Note_off_c, 0, 57, 0
2, 111552, Note_on_c, 0, 74, 75
2, 111552, Note_on_c, 0, 59, 75
2, 111644, Note_off_c, 0, 74, 0
2, 111644, Note_off_c, 0, 59, 0
2, 111648, Note_on_c, 0, 76, 78
2, 111648, Note_on_c, 0, 61, 78
2, 111728, Note_off_c, 0, 76, 0
2, 111728, Note_off_c, 0, 61, 0
2, 111744, Note_on_c, 0, 78, 80
2, 111744, Note_on_c, 0, 62, 80
2, 111824, Note_off_c, 0, 78, 0
2, 111824, Note_off_c, 0, 62, 0
2, 111936, Note_on_c, 0, 78, 85
2, 111936, Note_on_c, 0, 62, 85
2, 112016, Note_off_c, 0, 78, 0
2, 112016, Note_off_c, 0, 62, 0
2, 112128, Note_on_c, 0, 76, 90
2, 112128, Note_on_c, 0, 61, 90
2, 112316, Note_off_c, 0, 76, 0
2, 112316, Note_off_c, 0, 61, 0
2, 112320, Note_on_c, 0, 78, 90
2, 112320, Note_on_c, 0, 62, 90
2, 112412, Note_off_c, 0, 78, 0
2, 112412, Note_off_c, 0, 62, 0
2, 112416, Note_on_c, 0, 80, 90
2, 112416, Note_on_c, 0, 64, 90
2, 112508, Note_off_c, 0, 80, 0
2, 112508, Note_off_c, 0, 64, 0
2, 112512, Note_on_c, 0, 81, 90
2, 112512, Note_on_c, 0, 66, 90
2, 112604, Note_off_c, 0, 81, 0
2, 112604, Note_off_c, 0, 66, 0
2, 112608, Note_on_c, 0, 83, 90
2, 112608, Note_on_c, 0, 68, 90
2, 112700, Note_off_c, 0, 83, 0
2, 112700, Note_off_c, 0, 68, 0
2, 112704, Note_on_c, 0, 85, 90
2, 112704, Note_on_c, 0, 69, 90
2, 112796, Note_off_c, 0, 85, 0
2, 112796, Note_off_c, 0, 69, 0
2, 112800, Note_on_c, 0, 86, 90
2, 112800, Note_on_c, 0, 71, 90
2, 112892, Note_off_c, 0, 86, 0
2, 112892, Note_off_c, 0, 71, 0
2, 112896, Note_on_c, 0, 88, 100
2, 112896, Note_on_c, 0, 73, 100
2, 112988, Note_off_c, 0, 88, 0
2, 112992, Note_on_c, 0, 85, 90
2, 113084, Note_off_c, 0, 85, 0
2, 113088, Note_on_c, 0, 81, 90
2, 113180, Note_off_c, 0, 81, 0
2, 113184, Note_on_c, 0, 76, 90
2, 113276, Note_off_c, 0, 73, 0
2, 113276, Note_off_c, 0, 76, 0
2, 113280, Note_on_c, 0, 85, 100
2, 113372, Note_off_c, 0, 85, 0
2, 113376, Note_on_c, 0, 81, 90
2, 113468, Note_off_c, 0, 81, 0
2, 113472, Note_on_c, 0, 76, 90
2, 113564, Note_off_c, 0, 76, 0
2, 113568, Note_on_c, 0, 73, 90
2, 113648, Note_off_c, 0, 73, 0
2, 113664, Note_on_c, 0, 76, 89
2, 113852, Note_off_c, 0, 76, 0
2, 113856, Note_on_c, 0, 75, 86
2, 114044, Note_off_c, 0, 75, 0
2, 114048, Note_on_c, 0, 74, 82
2, 114236, Note_off_c, 0, 74, 0
2, 114240, Note_on_c, 0, 73, 79
2, 114428, Note_off_c, 0, 73, 0
2, 114432, Note_on_c, 0, 71, 75
2, 114752, Note_off_c, 0, 71, 0
2, 115200, Note_on_c, 0, 76, 70
2, 115200, Note_on_c, 0, 57, 70
2, 115388, Note_off_c, 0, 57, 0
2, 115392, Note_on_c, 0, 64, 70
2, 115580, Note_off_c, 0, 64, 0
2, 115584, Note_on_c, 0, 61, 70
2, 115772, Note_off_c, 0, 61, 0
2, 115776, Note_on_c, 0, 64, 70
2, 115964, Note_off_c, 0, 76, 0
2, 115964, Note_off_c, 0, 64, 0
2, 115968, Note_on_c, 0, 73, 70
2, 115968, Note_on_c, 0, 57, 70
2, 116156, Note_off_c, 0, 57, 0
2, 116160, Note_on_c, 0, 67, 70
2, 116348, Note_off_c, 0, 67, 0
2, 116352, Note_on_c, 0, 64, 70
2, 116540, Note_off_c, 0, 64, 0
2, 116544, Note_on_c, 0, 67, 70
2, 116612, Note_off_c, 0, 73, 0
2, 116732, Note_off_c, 0, 67, 0
2, 116736, Note_on_c, 0, 74, 70
2, 116736, Note_on_c, 0, 57, 70
2, 116924, Note_off_c, 0, 57, 0
2, 116928, Note_on_c, 0, 69, 70
2, 117116, Note_off_c, 0, 69, 0
2, 117120, Note_on_c, 0, 66, 70
2, 117212, Note_off_c, 0, 74, 0
2, 117216, Note_on_c, 0, 78, 70
2, 117308, Note_off_c, 0, 66, 0
2, 117308, Note_off_c, 0, 78, 0
2, 117312, Note_on_c, 0, 74, 70
2, 117312, Note_on_c, 0, 69, 70
2, 117404, Note_off_c, 0, 74, 0
2, 117408, Note_on_c, 0, 78, 70
2, 117500, Note_off_c, 0, 69, 0
2, 117500, Note_off_c, 0, 78, 0
2, 117504, Note_on_c, 0, 71, 70
2, 117504, Note_on_c, 0, 62, 70
2, 117596, Note_off_c, 0, 71, 0
2, 117600, Note_on_c, 0, 74, 70
2, 117692, Note_off_c, 0, 62, 0
2, 117692, Note_off_c, 0, 74, 0
2, 117696, Note_on_c, 0, 71, 70
2, 117696, Note_on_c, 0, 66, 70
2, 117788, Note_off_c, 0, 71, 0
2, 117792, Note_on_c, 0, 74, 70
2, 117884, Note_off_c, 0, 66, 0
2, 117884, Note_off_c, 0, 74, 0
2, 117888, Note_on_c, 0, 68, 70
2, 117888, Note_on_c, 0, 59, 70
2, 117980, Note_off_c, 0, 68, 0
2, 117984, Note_on_c, 0, 71, 70
2, 118076, Note_off_c, 0, 59, 0
2, 118076, Note_off_c, 0, 71, 0
2, 118080, Note_on_c, 0, 68, 70
2, 118080, Note_on_c, 0, 62, 70
2, 118172, Note_off_c, 0, 68, 0
2, 118176, Note_on_c, 0, 71, 70
2, 118268, Note_off_c, 0, 62, 0
2, 118268, Note_off_c, 0, 71, 0
2, 118272, Note_on_c, 0, 69, 70
2, 118272, Note_on_c, 0, 61, 70
2, 118460, Note_off_c, 0, 69, 0
2, 118464, Note_on_c, 0, 71, 70
2, 118556, Note_off_c, 0, 71, 0
2, 118560, Note_on_c, 0, 73, 70
2, 118592, Note_off_c, 0, 61, 0
2, 118652, Note_off_c, 0, 73, 0
2, 118656, Note_on_c, 0, 74, 70
2, 118748, Note_off_c, 0, 74, 0
2, 118752, Note_on_c, 0, 76, 70
2, 118844, Note_off_c, 0, 76, 0
2, 118848, Note_on_c, 0, 78, 70
2, 118940, Note_off_c, 0, 78, 0
2, 118944, Note_on_c, 0, 80, 70
2, 119036, Note_off_c, 0, 80, 0
2, 119040, Note_on_c, 0, 81, 72
2, 119132, Note_off_c, 0, 81, 0
2, 119136, Note_on_c, 0, 83, 76
2, 119228, Note_off_c, 0, 83, 0
2, 119232, Note_on_c, 0, 85, 81
2, 119324, Note_off_c, 0, 85, 0
2, 119328, Note_on_c, 0, 83, 86
2, 119420, Note_off_c, 0, 83, 0
2, 119424, Note_on_c, 0, 81, 86
2, 119516, Note_off_c, 0, 81, 0
2, 119520, Note_on_c, 0, 80, 81
2, 119612, Note_off_c, 0, 80, 0
2, 119616, Note_on_c, 0, 78, 76
2, 119708, Note_off_c, 0, 78, 0
2, 119712, Note_on_c, 0, 76, 72
2, 119792, Note_off_c, 0, 76, 0
2, 119808, Note_on_c, 0, 76, 70
2, 119808, Note_on_c, 0, 76, 70
2, 120188, Note_off_c, 0, 76, 0
2, 120192, Note_on_c, 0, 68, 70
2, 120380, Note_off_c, 0, 76, 0
2, 120384, Note_on_c, 0, 80, 66
2, 120384, Note_on_c, 0, 74, 66
2, 120476, Note_off_c, 0, 80, 0
2, 120480, Note_on_c, 0, 78, 62
2, 120544, Note_off_c, 0, 74, 0
2, 120572, Note_off_c, 0, 68, 0
2, 120572, Note_off_c, 0, 78, 0
2, 120576, Note_on_c, 0, 76, 58
2, 120576, Note_on_c, 0, 73, 58
2, 120576, Note_on_c, 0, 69, 58
2, 120896, Note_off_c, 0, 76, 0
2, 120896, Note_off_c, 0, 73, 0
2, 120956, Note_off_c, 0, 69, 0
2, 120960, Note_on_c, 0, 57, 54
2, 121280, Note_off_c, 0, 57, 0
2, 121344, Note_on_c, 0, 88, 85
2, 121532, Note_off_c, 0, 88, 0
2, 121536, Note_on_c, 0, 86, 70
2, 121628, Note_off_c, 0, 86, 0
2, 121632, Note_on_c, 0, 85, 70
2, 121724, Note_off_c, 0, 85, 0
2, 121728, Note_on_c, 0, 83, 70
2, 121820, Note_off_c, 0, 83, 0
2, 121824, Note_on_c, 0, 81, 70
2, 121916, Note_off_c, 0, 81, 0
2, 121920, Note_on_c, 0, 80, 70
2, 122012, Note_off_c, 0, 80, 0
2, 122016, Note_on_c, 0, 78, 70
2, 122108, Note_off_c, 0, 78, 0
2, 122112, Note_on_c, 0, 76, 70
2, 122204, Note_off_c, 0, 76, 0
2, 122208, Note_on_c, 0, 74, 70
2, 122300, Note_off_c, 0, 74, 0
2, 122304, Note_on_c, 0, 73, 70
2, 122396, Note_off_c, 0, 73, 0
2, 122400, Note_on_c, 0, 71, 70
2, 122492, Note_off_c, 0, 71, 0
2, 122496, Note_on_c, 0, 69, 70
2, 122588, Note_off_c, 0, 69, 0
2, 122592, Note_on_c, 0, 68, 70
2, 122684, Note_off_c, 0, 68, 0
2, 122688, Note_on_c, 0, 66, 70
2, 122780, Note_off_c, 0, 66, 0
2, 122784, Note_on_c, 0, 64, 70
2, 122876, Note_off_c, 0, 64, 0
2, 122880, Note_on_c, 0, 62, 71
2, 123068, Note_off_c, 0, 62, 0
2, 123072, Note_on_c, 0, 64, 74
2, 123164, Note_off_c, 0, 64, 0
2, 123168, Note_on_c, 0, 66, 75
2, 123260, Note_off_c, 0, 66, 0
2, 123264, Note_on_c, 0, 68, 77
2, 123356, Note_off_c, 0, 68, 0
2, 123360, Note_on_c, 0, 69, 79
2, 123452, Note_off_c, 0, 69, 0
2, 123456, Note_on_c, 0, 71, 80
2, 123548, Note_off_c, 0, 71, 0
2, 123552, Note_on_c, 0, 73, 82
2, 123644, Note_off_c, 0, 73, 0
2, 123648, Note_on_c, 0, 74, 84
2, 123740, Note_off_c, 0, 74, 0
2, 123744, Note_on_c, 0, 76, 85
2, 123836, Note_off_c, 0, 76, 0
2, 123840, Note_on_c, 0, 78, 87
2, 123932, Note_off_c, 0, 78, 0
2, 123936, Note_on_c, 0, 80, 88
2, 124028, Note_off_c, 0, 80, 0
2, 124032, Note_on_c, 0, 81, 90
2, 124124, Note_off_c, 0, 81, 0
2, 124128, Note_on_c, 0, 83, 92
2, 124220, Note_off_c, 0, 83, 0
2, 124224, Note_on_c, 0, 85, 93
2, 124316, Note_off_c, 0, 85, 0
2, 124320, Note_on_c, 0, 86, 95
2, 124412, Note_off_c, 0, 86, 0
2, 124416, Note_on_c, 0, 86, 95
2, 124508, Note_off_c, 0, 86, 0
2, 124512, Note_on_c, 0, 85, 95
2, 124604, Note_off_c, 0, 85, 0
2, 124608, Note_on_c, 0, 83, 95
2, 124700, Note_off_c, 0, 83, 0
2, 124704, Note_on_c, 0, 81, 95
2, 124796, Note_off_c, 0, 81, 0
2, 124800, Note_on_c, 0, 80, 95
2, 124892, Note_off_c, 0, 80, 0
2, 124896, Note_on_c, 0, 78, 95
2, 124988, Note_off_c, 0, 78, 0
2, 124992, Note_on_c, 0, 76, 95
2, 125084, Note_off_c, 0, 76, 0
2, 125088, Note_on_c, 0, 74, 95
2, 125180, Note_off_c, 0, 74, 0
2, 125184, Note_on_c, 0, 73, 95
2, 125276, Note_off_c, 0, 73, 0
2, 125280, Note_on_c, 0, 74, 95
2, 125372, Note_off_c, 0, 74, 0
2, 125376, Note_on_c, 0, 75, 95
2, 125468, Note_off_c, 0, 75, 0
2, 125472, Note_on_c, 0, 76, 95
2, 125564, Note_off_c, 0, 76, 0
2, 125568, Note_on_c, 0, 76, 95
2, 125660, Note_off_c, 0, 76, 0
2, 125664, Note_on_c, 0, 74, 95
2, 125756, Note_off_c, 0, 74, 0
2, 125760, Note_on_c, 0, 73, 95
2, 125852, Note_off_c, 0, 73, 0
2, 125856, Note_on_c, 0, 71, 95
2, 125948, Note_off_c, 0, 71, 0
2, 125952, Note_on_c, 0, 69, 95
2, 126272, Note_off_c, 0, 69, 0
2, 133056, Note_on_c, 0, 74, 70
2, 133136, Note_off_c, 0, 74, 0
2, 133248, Note_on_c, 0, 74, 70
2, 133328, Note_off_c, 0, 74, 0
2, 133440, Note_on_c, 0, 74, 70
2, 133520, Note_off_c, 0, 74, 0
2, 133632, Note_on_c, 0, 80, 70
2, 133724, Note_off_c, 0, 80, 0
2, 133728, Note_on_c, 0, 81, 70
2, 133820, Note_off_c, 0, 81, 0
2, 133824, Note_on_c, 0, 80, 70
2, 133916, Note_off_c, 0, 80, 0
2, 133920, Note_on_c, 0, 78, 70
2, 134012, Note_off_c, 0, 78, 0
2, 134016, Note_on_c, 0, 80, 71
2, 134108, Note_off_c, 0, 80, 0
2, 134112, Note_on_c, 0, 81, 76
2, 134204, Note_off_c, 0, 81, 0
2, 134208, Note_on_c, 0, 83, 81
2, 134300, Note_off_c, 0, 83, 0
2, 134304, Note_on_c, 0, 85, 88
2, 134396, Note_off_c, 0, 85, 0
2, 134400, Note_on_c, 0, 86, 99
2, 134492, Note_off_c, 0, 86, 0
2, 134496, Note_on_c, 0, 88, 94
2, 134588, Note_off_c, 0, 88, 0
2, 134592, Note_on_c, 0, 86, 90
2, 134684, Note_off_c, 0, 86, 0
2, 134688, Note_on_c, 0, 85, 86
2, 134780, Note_off_c, 0, 85, 0
2, 134784, Note_on_c, 0, 83, 82
2, 134876, Note_off_c, 0, 83, 0
2, 134880, Note_on_c, 0, 81, 78
2, 134972, Note_off_c, 0, 81, 0
2, 134976, Note_on_c, 0, 80, 74
2, 135068, Note_off_c, 0, 80, 0
2, 135072, Note_on_c, 0, 78, 70
2, 135164, Note_off_c, 0, 78, 0
2, 135168, Note_on_c, 0, 76, 70
2, 135260, Note_off_c, 0, 76, 0
2, 135264, Note_on_c, 0, 78, 70
2, 135356, Note_off_c, 0, 78, 0
2, 135360, Note_on_c, 0, 76, 70
2, 135452, Note_off_c, 0, 76, 0
2, 135456, Note_on_c, 0, 75, 70
2, 135548, Note_off_c, 0, 75, 0
2, 135552, Note_on_c, 0, 76, 71
2, 135644, Note_off_c, 0, 76, 0
2, 135648, Note_on_c, 0, 78, 76
2, 135740, Note_off_c, 0, 78, 0
2, 135744, Note_on_c, 0, 80, 81
2, 135836, Note_off_c, 0, 80, 0
2, 135840, Note_on_c, 0, 81, 88
2, 135932, Note_off_c, 0, 81, 0
2, 135936, Note_on_c, 0, 83, 99
2, 136028, Note_off_c, 0, 83, 0
2, 136032, Note_on_c, 0, 85, 94
2, 136124, Note_off_c, 0, 85, 0
2, 136128, Note_on_c, 0, 83, 90
2, 136220, Note_off_c, 0, 83, 0
2, 136224, Note_on_c, 0, 81, 86
2, 136316, Note_off_c, 0, 81, 0
2, 136320, Note_on_c, 0, 80, 82
2, 136412, Note_off_c, 0, 80, 0
2, 136416, Note_on_c, 0, 78, 78
2, 136508, Note_off_c, 0, 78, 0
2, 136512, Note_on_c, 0, 76, 74
2, 136604, Note_off_c, 0, 76, 0
2, 136608, Note_on_c, 0, 74, 70
2, 136700, Note_off_c, 0, 74, 0
2, 136704, Note_on_c, 0, 73, 72
2, 136796, Note_off_c, 0, 73, 0
2, 136800, Note_on_c, 0, 76, 75
2, 136892, Note_off_c, 0, 76, 0
2, 136896, Note_on_c, 0, 74, 77
2, 136988, Note_off_c, 0, 74, 0
2, 136992, Note_on_c, 0, 73, 79
2, 137084, Note_off_c, 0, 73, 0
2, 137088, Note_on_c, 0, 74, 82
2, 137180, Note_off_c, 0, 74, 0
2, 137184, Note_on_c, 0, 76, 85
2, 137276, Note_off_c, 0, 76, 0
2, 137280, Note_on_c, 0, 78, 89
2, 137372, Note_off_c, 0, 78, 0
2, 137376, Note_on_c, 0, 80, 92
2, 137468, Note_off_c, 0, 80, 0
2, 137472, Note_on_c, 0, 81, 99
2, 137564, Note_off_c, 0, 81, 0
2, 137568, Note_on_c, 0, 83, 92
2, 137660, Note_off_c, 0, 83, 0
2, 137664, Note_on_c, 0, 81, 89
2, 137756, Note_off_c, 0, 81, 0
2, 137760, Note_on_c, 0, 80, 85
2, 137852, Note_off_c, 0, 80, 0
2, 137856, Note_on_c, 0, 78, 82
2, 137948, Note_off_c, 0, 78, 0
2, 137952, Note_on_c, 0, 76, 79
2, 138044, Note_off_c, 0, 76, 0
2, 138048, Note_on_c, 0, 75, 75
2, 138140, Note_off_c, 0, 75, 0
2, 138144, Note_on_c, 0, 73, 72
2, 138236, Note_off_c, 0, 73, 0
2, 138240, Note_on_c, 0, 71, 72
2, 138332, Note_off_c, 0, 71, 0
2, 138336, Note_on_c, 0, 73, 75
2, 138428, Note_off_c, 0, 73, 0
2, 138432, Note_on_c, 0, 71, 77
2, 138524, Note_off_c, 0, 71, 0
2, 138528, Note_on_c, 0, 70, 79
2, 138620, Note_off_c, 0, 70, 0
2, 138624, Note_on_c, 0, 71, 82
2, 138716, Note_off_c, 0, 71, 0
2, 138720, Note_on_c, 0, 73, 85
2, 138812, Note_off_c, 0, 73, 0
2, 138816, Note_on_c, 0, 75, 89
2, 138908, Note_off_c, 0, 75, 0
2, 138912, Note_on_c, 0, 76, 92
2, 139004, Note_off_c, 0, 76, 0
2, 139008, Note_on_c, 0, 78, 99
2, 139100, Note_off_c, 0, 78, 0
2, 139104, Note_on_c, 0, 80, 92
2, 139196, Note_off_c, 0, 80, 0
2, 139200, Note_on_c, 0, 78, 89
2, 139292, Note_off_c, 0, 78, 0
2, 139296, Note_on_c, 0, 76, 85
2, 139388, Note_off_c, 0, 76, 0
2, 139392, Note_on_c, 0, 75, 82
2, 139484, Note_off_c, 0, 75, 0
2, 139488, Note_on_c, 0, 73, 79
2, 139580, Note_off_c, 0, 73, 0
2, 139584, Note_on_c, 0, 71, 75
2, 139676, Note_off_c, 0, 71, 0
2, 139680, Note_on_c, 0, 69, 72
2, 139772, Note_off_c, 0, 69, 0
2, 139776, Note_on_c, 0, 68, 71
2, 139868, Note_off_c, 0, 68, 0
2, 139872, Note_on_c, 0, 71, 71
2, 139964, Note_off_c, 0, 71, 0
2, 139968, Note_on_c, 0, 69, 72
2, 140060, Note_off_c, 0, 69, 0
2, 140064, Note_on_c, 0, 68, 73
2, 140156, Note_off_c, 0, 68, 0
2, 140160, Note_on_c, 0, 69, 74
2, 140252, Note_off_c, 0, 69, 0
2, 140256, Note_on_c, 0, 71, 75
2, 140348, Note_off_c, 0, 71, 0
2, 140352, Note_on_c, 0, 73, 75
2, 140444, Note_off_c, 0, 73, 0
2, 140448, Note_on_c, 0, 75, 76
2, 140540, Note_off_c, 0, 75, 0
2, 140544, Note_on_c, 0, 76, 77
2, 140636, Note_off_c, 0, 76, 0
2, 140640, Note_on_c, 0, 78, 78
2, 140732, Note_off_c, 0, 78, 0
2, 140736, Note_on_c, 0, 80, 79
2, 140828, Note_off_c, 0, 80, 0
2, 140832, Note_on_c, 0, 81, 79
2, 140924, Note_off_c, 0, 81, 0
2, 140928, Note_on_c, 0, 83, 80
2, 141020, Note_off_c, 0, 83, 0
2, 141024, Note_on_c, 0, 85, 81
2, 141116, Note_off_c, 0, 85, 0
2, 141120, Note_on_c, 0, 87, 82
2, 141212, Note_off_c, 0, 87, 0
2, 141216, Note_on_c, 0, 88, 83
2, 141308, Note_off_c, 0, 88, 0
2, 141312, Note_on_c, 0, 84, 84
2, 141312, Note_on_c, 0, 57, 84
2, 141404, Note_off_c, 0, 84, 0
2, 141408, Note_on_c, 0, 85, 84
2, 141500, Note_off_c, 0, 85, 0
2, 141504, Note_on_c, 0, 88, 85
2, 141596, Note_off_c, 0, 88, 0
2, 141600, Note_on_c, 0, 87, 86
2, 141692, Note_off_c, 0, 87, 0
2, 141696, Note_on_c, 0, 85, 87
2, 141788, Note_off_c, 0, 85, 0
2, 141792, Note_on_c, 0, 83, 88
2, 141884, Note_off_c, 0, 57, 0
2, 141884, Note_off_c, 0, 83, 0
2, 141888, Note_on_c, 0, 81, 88
2, 141888, Note_on_c, 0, 59, 88
2, 141980, Note_off_c, 0, 81, 0
2, 141984, Note_on_c, 0, 80, 89
2, 142076, Note_off_c, 0, 59, 0
2, 142076, Note_off_c, 0, 80, 0
2, 142080, Note_on_c, 0, 83, 90
2, 142080, Note_on_c, 0, 61, 90
2, 142172, Note_off_c, 0, 83, 0
2, 142176, Note_on_c, 0, 81, 91
2, 142268, Note_off_c, 0, 81, 0
2, 142272, Note_on_c, 0, 85, 91
2, 142364, Note_off_c, 0, 85, 0
2, 142368, Note_on_c, 0, 83, 92
2, 142460, Note_off_c, 0, 83, 0
2, 142464, Note_on_c, 0, 81, 92
2, 142556, Note_off_c, 0, 81, 0
2, 142560, Note_on_c, 0, 80, 93
2, 142564, Note_off_c, 0, 61, 0
2, 142652, Note_off_c, 0, 80, 0
2, 142656, Note_on_c, 0, 78, 93
2, 142656, Note_on_c, 0, 58, 93
2, 142748, Note_off_c, 0, 78, 0
2, 142752, Note_on_c, 0, 76, 94
2, 142816, Note_off_c, 0, 58, 0
2, 142844, Note_off_c, 0, 76, 0
2, 142848, Note_on_c, 0, 75, 95
2, 142848, Note_on_c, 0, 59, 95
2, 142940, Note_off_c, 0, 75, 0
2, 142944, Note_on_c, 0, 71, 95
2, 143036, Note_off_c, 0, 71, 0
2, 143040, Note_on_c, 0, 75, 95
2, 143132, Note_off_c, 0, 75, 0
2, 143136, Note_on_c, 0, 78, 95
2, 143228, Note_off_c, 0, 78, 0
2, 143232, Note_on_c, 0, 83, 95
2, 143324, Note_off_c, 0, 83, 0
2, 143328, Note_on_c, 0, 78, 95
2, 143420, Note_off_c, 0, 78, 0
2, 143424, Note_on_c, 0, 75, 95
2, 143516, Note_off_c, 0, 75, 0
2, 143536, Note_on_c, 0, 71, 95
2, 143616, Note_off_c, 0, 71, 0
2, 143616, Note_on_c, 0, 69, 77
2, 143712, Note_on_c, 0, 75, 77
2, 143804, Note_off_c, 0, 75, 0
2, 143808, Note_on_c, 0, 78, 77
2, 143900, Note_off_c, 0, 78, 0
2, 143904, Note_on_c, 0, 85, 77
2, 143984, Note_off_c, 0, 85, 0
2, 143996, Note_off_c, 0, 69, 0
2, 144000, Note_on_c, 0, 68, 77
2, 144096, Note_on_c, 0, 76, 77
2, 144188, Note_off_c, 0, 76, 0
2, 144192, Note_on_c, 0, 80, 77
2, 144284, Note_off_c, 0, 80, 0
2, 144288, Note_on_c, 0, 83, 77
2, 144320, Note_off_c, 0, 68, 0
2, 144368, Note_off_c, 0, 83, 0
2, 144384, Note_on_c, 0, 66, 77
2, 144480, Note_on_c, 0, 75, 77
2, 144572, Note_off_c, 0, 75, 0
2, 144576, Note_on_c, 0, 78, 77
2, 144668, Note_off_c, 0, 78, 0
2, 144672, Note_on_c, 0, 81, 77
2, 144704, Note_off_c, 0, 66, 0
2, 144752, Note_off_c, 0, 81, 0
2, 144768, Note_on_c, 0, 64, 78
2, 144864, Note_on_c, 0, 71, 79
2, 144956, Note_off_c, 0, 71, 0
2, 144960, Note_on_c, 0, 76, 81
2, 145052, Note_off_c, 0, 76, 0
2, 145056, Note_on_c, 0, 80, 82
2, 145088, Note_off_c, 0, 64, 0
2, 145136, Note_off_c, 0, 80, 0
2, 145152, Note_on_c, 0, 63, 84
2, 145248, Note_on_c, 0, 71, 85
2, 145340, Note_off_c, 0, 71, 0
2, 145344, Note_on_c, 0, 75, 87
2, 145436, Note_off_c, 0, 75, 0
2, 145440, Note_on_c, 0, 78, 89
2, 145472, Note_off_c, 0, 63, 0
2, 145520, Note_off_c, 0, 78, 0
2, 145536, Note_on_c, 0, 61, 90
2, 145632, Note_on_c, 0, 70, 92
2, 145724, Note_off_c, 0, 70, 0
2, 145728, Note_on_c, 0, 73, 93
2, 145732, Note_off_c, 0, 59, 0
2, 145820, Note_off_c, 0, 73, 0
2, 145824, Note_on_c, 0, 76, 95
2, 145856, Note_off_c, 0, 61, 0
2, 145916, Note_off_c, 0, 76, 0
2, 145920, Note_on_c, 0, 75, 95
2, 146012, Note_off_c, 0, 75, 0
2, 146016, Note_on_c, 0, 71, 95
2, 146108, Note_off_c, 0, 71, 0
2, 146112, Note_on_c, 0, 75, 95
2, 146204, Note_off_c, 0, 75, 0
2, 146208, Note_on_c, 0, 78, 95
2, 146300, Note_off_c, 0, 78, 0
2, 146304, Note_on_c, 0, 83, 105
2, 146396, Note_off_c, 0, 83, 0
2, 146400, Note_on_c, 0, 78, 95
2, 146492, Note_off_c, 0, 78, 0
2, 146496, Note_on_c, 0, 75, 95
2, 146588, Note_off_c, 0, 75, 0
2, 146592, Note_on_c, 0, 71, 95
2, 146672, Note_off_c, 0, 71, 0
2, 146784, Note_on_c, 0, 75, 70
2, 146876, Note_off_c, 0, 75, 0
2, 146880, Note_on_c, 0, 78, 70
2, 146972, Note_off_c, 0, 78, 0
2, 146976, Note_on_c, 0, 84, 70
2, 147056, Note_off_c, 0, 84, 0
2, 147168, Note_on_c, 0, 76, 70
2, 147260, Note_off_c, 0, 76, 0
2, 147264, Note_on_c, 0, 79, 70
2, 147356, Note_off_c, 0, 79, 0
2, 147360, Note_on_c, 0, 83, 70
2, 147440, Note_off_c, 0, 83, 0
2, 147552, Note_on_c, 0, 69, 72
2, 147644, Note_off_c, 0, 69, 0
2, 147648, Note_on_c, 0, 75, 74
2, 147740, Note_off_c, 0, 75, 0
2, 147744, Note_on_c, 0, 81, 75
2, 147824, Note_off_c, 0, 81, 0
2, 147936, Note_on_c, 0, 72, 79
2, 148028, Note_off_c, 0, 72, 0
2, 148032, Note_on_c, 0, 76, 80
2, 148124, Note_off_c, 0, 76, 0
2, 148128, Note_on_c, 0, 79, 82
2, 148208, Note_off_c, 0, 79, 0
2, 148320, Note_on_c, 0, 66, 85
2, 148412, Note_off_c, 0, 66, 0
2, 148416, Note_on_c, 0, 71, 87
2, 148508, Note_off_c, 0, 71, 0
2, 148512, Note_on_c, 0, 78, 88
2, 148592, Note_off_c, 0, 78, 0
2, 148704, Note_on_c, 0, 64, 92
2, 148796, Note_off_c, 0, 64, 0
2, 148800, Note_on_c, 0, 70, 93
2, 148892, Note_off_c, 0, 70, 0
2, 148896, Note_on_c, 0, 76, 95
2, 148976, Note_off_c, 0, 76, 0
2, 148992, Note_on_c, 0, 75, 95
2, 149084, Note_off_c, 0, 75, 0
2, 149088, Note_on_c, 0, 83, 95
2, 149180, Note_off_c, 0, 83, 0
2, 149184, Note_on_c, 0, 82, 95
2, 149276, Note_off_c, 0, 82, 0
2, 149280, Note_on_c, 0, 80, 95
2, 149372, Note_off_c, 0, 80, 0
2, 149376, Note_on_c, 0, 78, 95
2, 149468, Note_off_c, 0, 78, 0
2, 149472, Note_on_c, 0, 76, 95
2, 149564, Note_off_c, 0, 76, 0
2, 149568, Note_on_c, 0, 75, 95
2, 149660, Note_off_c, 0, 75, 0
2, 149664, Note_on_c, 0, 73, 95
2, 149756, Note_off_c, 0, 73, 0
2, 149760, Note_on_c, 0, 71, 95
2, 149936, Note_on_c, 0, 70, 95
2, 149948, Note_off_c, 0, 71, 0
2, 150028, Note_off_c, 0, 70, 0
2, 150048, Note_on_c, 0, 68, 95
2, 150140, Note_off_c, 0, 68, 0
2, 150144, Note_on_c, 0, 66, 95
2, 150236, Note_off_c, 0, 66, 0
2, 150240, Note_on_c, 0, 64, 95
2, 150332, Note_off_c, 0, 64, 0
2, 150336, Note_on_c, 0, 63, 95
2, 150428, Note_off_c, 0, 63, 0
2, 150432, Note_on_c, 0, 61, 95
2, 150512, Note_off_c, 0, 61, 0
2, 150528, Note_on_c, 0, 59, 105
2, 150688, Note_off_c, 0, 59, 0
2, 150912, Note_on_c, 0, 83, 105
2, 150912, Note_on_c, 0, 78, 105
2, 150912, Note_on_c, 0, 75, 105
2, 151072, Note_off_c, 0, 83, 0
2, 151072, Note_off_c, 0, 78, 0
2, 151072, Note_off_c, 0, 75, 0
2, 151680, Note_on_c, 0, 68, 70
2, 151868, Note_off_c, 0, 68, 0
2, 151872, Note_on_c, 0, 69, 70
2, 152060, Note_off_c, 0, 69, 0
2, 152064, Note_on_c, 0, 73, 70
2, 152252, Note_off_c, 0, 73, 0
2, 152256, Note_on_c, 0, 71, 70
2, 152416, Note_off_c, 0, 71, 0
2, 152448, Note_on_c, 0, 71, 70
2, 152688, Note_off_c, 0, 71, 0
2, 152736, Note_on_c, 0, 71, 70
2, 152816, Note_off_c, 0, 71, 0
2, 152832, Note_on_c, 0, 71, 70
2, 153152, Note_off_c, 0, 71, 0
2, 153216, Note_on_c, 0, 71, 70
2, 153536, Note_off_c, 0, 71, 0
2, 153600, Note_on_c, 0, 71, 70
2, 153788, Note_off_c, 0, 71, 0
2, 153792, Note_on_c, 0, 76, 70
2, 153980, Note_off_c, 0, 76, 0
2, 153984, Note_on_c, 0, 75, 70
2, 154172, Note_off_c, 0, 75, 0
2, 154176, Note_on_c, 0, 73, 70
2, 154364, Note_off_c, 0, 73, 0
2, 154368, Note_on_c, 0, 71, 70
2, 154556, Note_off_c, 0, 71, 0
2, 154576, Note_on_c, 0, 70, 70
2, 154752, Note_on_c, 0, 69, 70
2, 154764, Note_off_c, 0, 70, 0
2, 154940, Note_off_c, 0, 69, 0
2, 154944, Note_on_c, 0, 68, 70
2, 155104, Note_off_c, 0, 68, 0
2, 155136, Note_on_c, 0, 68, 70
2, 155324, Note_off_c, 0, 68, 0
2, 155328, Note_on_c, 0, 66, 70
2, 155488, Note_off_c, 0, 66, 0
2, 155520, Note_on_c, 0, 66, 70
2, 155760, Note_off_c, 0, 66, 0
2, 155808, Note_on_c, 0, 66, 70
2, 155888, Note_off_c, 0, 66, 0
2, 155904, Note_on_c, 0, 66, 70
2, 156224, Note_off_c, 0, 66, 0
2, 156288, Note_on_c, 0, 66, 70
2, 156608, Note_off_c, 0, 66, 0
2, 156672, Note_on_c, 0, 66, 70
2, 156860, Note_off_c, 0, 66, 0
2, 156864, Note_on_c, 0, 71, 70
2, 157040, Note_on_c, 0, 70, 70
2, 157052, Note_off_c, 0, 71, 0
2, 157228, Note_off_c, 0, 70, 0
2, 157248, Note_on_c, 0, 69, 70
2, 157436, Note_off_c, 0, 69, 0
2, 157440, Note_on_c, 0, 68, 70
2, 157628, Note_off_c, 0, 68, 0
2, 157632, Note_on_c, 0, 66, 67
2, 157820, Note_off_c, 0, 66, 0
2, 157824, Note_on_c, 0, 64, 63
2, 158012, Note_off_c, 0, 64, 0
2, 158016, Note_on_c, 0, 63, 59
2, 158204, Note_off_c, 0, 63, 0
2, 158208, Note_on_c, 0, 61, 55
2, 158396, Note_off_c, 0, 61, 0
2, 158400, Note_on_c, 0, 59, 55
2, 158560, Note_off_c, 0, 59, 0
2, 158592, Note_on_c, 0, 59, 55
2, 158832, Note_off_c, 0, 59, 0
2, 158880, Note_on_c, 0, 59, 55
2, 158960, Note_off_c, 0, 59, 0
2, 158976, Note_on_c, 0, 59, 55
2, 159164, Note_off_c, 0, 59, 0
2, 159168, Note_on_c, 0, 68, 55
2, 159356, Note_off_c, 0, 68, 0
2, 159360, Note_on_c, 0, 64, 55
2, 159548, Note_off_c, 0, 64, 0
2, 159552, Note_on_c, 0, 61, 55
2, 159740, Note_off_c, 0, 61, 0
2, 159744, Note_on_c, 0, 59, 55
2, 159932, Note_off_c, 0, 59, 0
2, 159936, Note_on_c, 0, 57, 55
2, 160096, Note_off_c, 0, 57, 0
2, 160128, Note_on_c, 0, 57, 55
2, 160368, Note_off_c, 0, 57, 0
2, 160416, Note_on_c, 0, 57, 55
2, 160496, Note_off_c, 0, 57, 0
2, 160512, Note_on_c, 0, 57, 55
2, 160700, Note_off_c, 0, 57, 0
2, 160704, Note_on_c, 0, 66, 55
2, 160892, Note_off_c, 0, 66, 0
2, 160896, Note_on_c, 0, 63, 55
2, 161084, Note_off_c, 0, 63, 0
2, 161088, Note_on_c, 0, 57, 55
2, 161276, Note_off_c, 0, 57, 0
2, 161280, Note_on_c, 0, 56, 55
2, 161372, Note_off_c, 0, 56, 0
2, 161376, Note_on_c, 0, 59, 55
2, 161468, Note_off_c, 0, 59, 0
2, 161472, Note_on_c, 0, 57, 55
2, 161564, Note_off_c, 0, 57, 0
2, 161568, Note_on_c, 0, 56, 55
2, 161660, Note_off_c, 0, 56, 0
2, 161664, Note_on_c, 0, 57, 56
2, 161756, Note_off_c, 0, 57, 0
2, 161760, Note_on_c, 0, 59, 58
2, 161852, Note_off_c, 0, 59, 0
2, 161856, Note_on_c, 0, 61, 61
2, 161948, Note_off_c, 0, 61, 0
2, 161952, Note_on_c, 0, 63, 63
2, 162044, Note_off_c, 0, 63, 0
2, 162048, Note_on_c, 0, 64, 66
2, 162140, Note_off_c, 0, 64, 0
2, 162144, Note_on_c, 0, 66, 68
2, 162236, Note_off_c, 0, 66, 0
2, 162240, Note_on_c, 0, 68, 71
2, 162332, Note_off_c, 0, 68, 0
2, 162336, Note_on_c, 0, 69, 74
2, 162428, Note_off_c, 0, 69, 0
2, 162432, Note_on_c, 0, 71, 76
2, 162432, Note_on_c, 0, 64, 76
2, 162512, Note_off_c, 0, 71, 0
2, 162512, Note_off_c, 0, 64, 0
2, 162624, Note_on_c, 0, 73, 81
2, 162624, Note_on_c, 0, 64, 81
2, 162704, Note_off_c, 0, 73, 0
2, 162704, Note_off_c, 0, 64, 0
2, 162816, Note_on_c, 0, 68, 85
2, 162816, Note_on_c, 0, 64, 85
2, 163580, Note_off_c, 0, 68, 0
2, 163580, Note_off_c, 0, 64, 0
2, 163584, Note_on_c, 0, 66, 85
2, 163584, Note_on_c, 0, 63, 85
2, 163904, Note_off_c, 0, 66, 0
2, 163904, Note_off_c, 0, 63, 0
2, 166080, Note_on_c, 0, 76, 85
2, 166160, Note_off_c, 0, 76, 0
2, 166176, Note_on_c, 0, 88, 85
2, 166256, Note_off_c, 0, 88, 0
2, 166272, Note_on_c, 0, 75, 85
2, 166352, Note_off_c, 0, 75, 0
2, 166368, Note_on_c, 0, 87, 85
2, 166448, Note_off_c, 0, 87, 0
2, 166464, Note_on_c, 0, 73, 85
2, 166544, Note_off_c, 0, 73, 0
2, 166560, Note_on_c, 0, 85, 85
2, 166640, Note_off_c, 0, 85, 0
2, 166656, Note_on_c, 0, 71, 85
2, 166736, Note_off_c, 0, 71, 0
2, 166752, Note_on_c, 0, 83, 85
2, 166832, Note_off_c, 0, 83, 0
2, 166848, Note_on_c, 0, 70, 85
2, 166928, Note_off_c, 0, 70, 0
2, 166944, Note_on_c, 0, 82, 85
2, 167024, Note_off_c, 0, 82, 0
2, 167040, Note_on_c, 0, 69, 85
2, 167120, Note_off_c, 0, 69, 0
2, 167136, Note_on_c, 0, 81, 85
2, 167216, Note_off_c, 0, 81, 0
2, 167232, Note_on_c, 0, 68, 85
2, 167312, Note_off_c, 0, 68, 0
2, 167328, Note_on_c, 0, 80, 85
2, 167408, Note_off_c, 0, 80, 0
2, 167424, Note_on_c, 0, 80, 85
2, 167612, Note_off_c, 0, 80, 0
2, 167616, Note_on_c, 0, 78, 85
2, 167776, Note_off_c, 0, 78, 0
2, 167808, Note_on_c, 0, 78, 85
2, 168128, Note_off_c, 0, 78, 0
2, 169152, Note_on_c, 0, 71, 85
2, 169232, Note_off_c, 0, 71, 0
2, 169248, Note_on_c, 0, 83, 85
2, 169312, Note_on_c, 0, 70, 85
2, 169328, Note_off_c, 0, 83, 0
2, 169392, Note_off_c, 0, 70, 0
2, 169440, Note_on_c, 0, 82, 85
2, 169520, Note_off_c, 0, 82, 0
2, 169536, Note_on_c, 0, 69, 85
2, 169616, Note_off_c, 0, 69, 0
2, 169632, Note_on_c, 0, 81, 85
2, 169712, Note_off_c, 0, 81, 0
2, 169728, Note_on_c, 0, 68, 85
2, 169808, Note_off_c, 0, 68, 0
2, 169824, Note_on_c, 0, 80, 85
2, 169904, Note_off_c, 0, 80, 0
2, 169920, Note_on_c, 0, 66, 85
2, 170000, Note_off_c, 0, 66, 0
2, 170016, Note_on_c, 0, 78, 85
2, 170096, Note_off_c, 0, 78, 0
2, 170112, Note_on_c, 0, 64, 85
2, 170192, Note_off_c, 0, 64, 0
2, 170208, Note_on_c, 0, 76, 85
2, 170288, Note_off_c, 0, 76, 0
2, 170304, Note_on_c, 0, 63, 85
2, 170384, Note_off_c, 0, 63, 0
2, 170400, Note_on_c, 0, 75, 85
2, 170480, Note_off_c, 0, 75, 0
2, 170496, Note_on_c, 0, 73, 85
2, 170684, Note_off_c, 0, 73, 0
2, 170688, Note_on_c, 0, 71, 85
2, 170848, Note_off_c, 0, 71, 0
2, 170880, Note_on_c, 0, 71, 85
2, 171200, Note_off_c, 0, 71, 0
2, 172224, Note_on_c, 0, 63, 87
2, 172304, Note_off_c, 0, 63, 0
2, 172320, Note_on_c, 0, 75, 88
2, 172400, Note_off_c, 0, 75, 0
2, 172416, Note_on_c, 0, 64, 88
2, 172496, Note_off_c, 0, 64, 0
2, 172512, Note_on_c, 0, 76, 89
2, 172592, Note_off_c, 0, 76, 0
2, 172608, Note_on_c, 0, 65, 90
2, 172688, Note_off_c, 0, 65, 0
2, 172704, Note_on_c, 0, 77, 90
2, 172784, Note_off_c, 0, 77, 0
2, 172800, Note_on_c, 0, 66, 91
2, 172880, Note_off_c, 0, 66, 0
2, 172896, Note_on_c, 0, 78, 92
2, 172976, Note_off_c, 0, 78, 0
2, 172992, Note_on_c, 0, 68, 92
2, 173072, Note_off_c, 0, 68, 0
2, 173088, Note_on_c, 0, 80, 93
2, 173168, Note_off_c, 0, 80, 0
2, 173184, Note_on_c, 0, 69, 94
2, 173264, Note_off_c, 0, 69, 0
2, 173280, Note_on_c, 0, 81, 94
2, 173360, Note_off_c, 0, 81, 0
2, 173376, Note_on_c, 0, 70, 95
2, 173456, Note_off_c, 0, 70, 0
2, 173472, Note_on_c, 0, 82, 96
2, 173552, Note_off_c, 0, 82, 0
2, 173568, Note_on_c, 0, 83, 95
2, 173648, Note_off_c, 0, 83, 0
2, 173664, Note_on_c, 0, 80, 95
2, 173744, Note_off_c, 0, 80, 0
2, 173760, Note_on_c, 0, 83, 95
2, 173840, Note_off_c, 0, 83, 0
2, 173856, Note_on_c, 0, 80, 95
2, 173936, Note_off_c, 0, 80, 0
2, 173952, Note_on_c, 0, 76, 94
2, 174524, Note_off_c, 0, 76, 0
2, 174528, Note_on_c, 0, 80, 81
2, 174716, Note_off_c, 0, 80, 0
2, 174720, Note_on_c, 0, 78, 77
2, 174908, Note_off_c, 0, 78, 0
2, 174912, Note_on_c, 0, 75, 73
2, 175100, Note_off_c, 0, 75, 0
2, 175104, Note_on_c, 0, 76, 70
2, 175424, Note_off_c, 0, 76, 0
2, 176256, Note_on_c, 0, 76, 70
2, 176496, Note_off_c, 0, 76, 0
2, 176544, Note_on_c, 0, 76, 70
2, 176624, Note_off_c, 0, 76, 0
2, 176640, Note_on_c, 0, 81, 70
2, 176640, Note_on_c, 0, 76, 70
2, 176640, Note_on_c, 0, 69, 70
2, 176800, Note_off_c, 0, 81, 0
2, 176800, Note_off_c, 0, 76, 0
2, 176800, Note_off_c, 0, 69, 0
2, 177024, Note_on_c, 0, 80, 70
2, 177024, Note_on_c, 0, 76, 70
2, 177024, Note_on_c, 0, 71, 70
2, 177184, Note_off_c, 0, 80, 0
2, 177184, Note_off_c, 0, 76, 0
2, 177184, Note_off_c, 0, 71, 0
2, 177792, Note_on_c, 0, 76, 70
2, 177912, Note_off_c, 0, 76, 0
2, 178080, Note_on_c, 0, 76, 70
2, 178120, Note_off_c, 0, 76, 0
2, 178176, Note_on_c, 0, 81, 70
2, 178364, Note_off_c, 0, 81, 0
2, 178368, Note_on_c, 0, 83, 70
2, 178452, Note_off_c, 0, 83, 0
2, 178464, Note_on_c, 0, 84, 70
2, 178548, Note_off_c, 0, 84, 0
2, 178560, Note_on_c, 0, 83, 70
2, 178880, Note_off_c, 0, 83, 0
2, 179712, Note_on_c, 0, 85, 105
2, 179712, Note_on_c, 0, 81, 105
2, 179712, Note_on_c, 0, 76, 105
2, 179792, Note_off_c, 0, 85, 0
2, 179792, Note_off_c, 0, 81, 0
2, 179792, Note_off_c, 0, 76, 0
2, 180096, Note_on_c, 0, 85, 105
2, 180668, Note_off_c, 0, 85, 0
2, 180672, Note_on_c, 0, 88, 95
2, 180764, Note_off_c, 0, 88, 0
2, 180768, Note_on_c, 0, 87, 95
2, 180860, Note_off_c, 0, 87, 0
2, 180864, Note_on_c, 0, 88, 95
2, 180956, Note_off_c, 0, 88, 0
2, 180960, Note_on_c, 0, 87, 95
2, 181052, Note_off_c, 0, 87, 0
2, 181056, Note_on_c, 0, 85, 95
2, 181148, Note_off_c, 0, 85, 0
2, 181152, Note_on_c, 0, 83, 95
2, 181232, Note_off_c, 0, 83, 0
2, 181248, Note_on_c, 0, 83, 95
2, 181340, Note_off_c, 0, 83, 0
2, 181344, Note_on_c, 0, 81, 95
2, 181436, Note_off_c, 0, 81, 0
2, 181440, Note_on_c, 0, 85, 95
2, 181532, Note_off_c, 0, 85, 0
2, 181536, Note_on_c, 0, 83, 95
2, 181628, Note_off_c, 0, 83, 0
2, 181632, Note_on_c, 0, 81, 95
2, 181724, Note_off_c, 0, 81, 0
2, 181728, Note_on_c, 0, 80, 95
2, 181820, Note_off_c, 0, 80, 0
2, 181824, Note_on_c, 0, 78, 95
2, 181916, Note_off_c, 0, 78, 0
2, 181920, Note_on_c, 0, 76, 95
2, 182012, Note_off_c, 0, 76, 0
2, 182016, Note_on_c, 0, 75, 95
2, 182108, Note_off_c, 0, 75, 0
2, 182112, Note_on_c, 0, 73, 95
2, 182204, Note_off_c, 0, 73, 0
2, 182208, Note_on_c, 0, 71, 95
2, 182300, Note_off_c, 0, 71, 0
2, 182304, Note_on_c, 0, 69, 95
2, 182396, Note_off_c, 0, 69, 0
2, 182400, Note_on_c, 0, 68, 95
2, 182492, Note_off_c, 0, 68, 0
2, 182496, Note_on_c, 0, 71, 95
2, 182588, Note_off_c, 0, 71, 0
2, 182592, Note_on_c, 0, 76, 95
2, 182684, Note_off_c, 0, 76, 0
2, 182688, Note_on_c, 0, 80, 95
2, 182780, Note_off_c, 0, 80, 0
2, 182784, Note_on_c, 0, 73, 95
2, 182784, Note_on_c, 0, 66, 95
2, 182784, Note_on_c, 0, 57, 95
2, 182876, Note_off_c, 0, 73, 0
2, 182880, Note_on_c, 0, 78, 95
2, 182972, Note_off_c, 0, 78, 0
2, 182976, Note_on_c, 0, 81, 95
2, 183068, Note_off_c, 0, 81, 0
2, 183072, Note_on_c, 0, 85, 95
2, 183164, Note_off_c, 0, 85, 0
2, 183168, Note_on_c, 0, 83, 95
2, 183260, Note_off_c, 0, 83, 0
2, 183264, Note_on_c, 0, 81, 95
2, 183356, Note_off_c, 0, 81, 0
2, 183360, Note_on_c, 0, 80, 95
2, 183428, Note_off_c, 0, 66, 0
2, 183428, Note_off_c, 0, 57, 0
2, 183452, Note_off_c, 0, 80, 0
2, 183456, Note_on_c, 0, 78, 95
2, 183548, Note_off_c, 0, 78, 0
2, 183552, Note_on_c, 0, 76, 95
2, 183552, Note_on_c, 0, 59, 95
2, 183552, Note_on_c, 0, 68, 95
2, 183932, Note_off_c, 0, 76, 0
2, 183932, Note_off_c, 0, 68, 0
2, 183936, Note_on_c, 0, 75, 95
2, 183936, Note_on_c, 0, 80, 95
2, 183936, Note_on_c, 0, 69, 95
2, 184124, Note_off_c, 0, 80, 0
2, 184128, Note_on_c, 0, 78, 95
2, 184196, Note_off_c, 0, 59, 0
2, 184256, Note_off_c, 0, 69, 0
2, 184316, Note_off_c, 0, 75, 0
2, 184316, Note_off_c, 0, 78, 0
2, 184320, Note_on_c, 0, 76, 70
2, 184320, Note_on_c, 0, 68, 70
2, 184320, Note_on_c, 0, 61, 70
2, 184640, Note_off_c, 0, 76, 0
2, 184640, Note_off_c, 0, 68, 0
2, 184640, Note_off_c, 0, 61, 0
2, 185088, Note_on_c, 0, 80, 85
2, 185088, Note_on_c, 0, 68, 70
2, 185088, Note_on_c, 0, 63, 70
2, 185088, Note_on_c, 0, 60, 70
2, 185564, Note_off_c, 0, 80, 0
2, 185568, Note_on_c, 0, 81, 70
2, 185660, Note_off_c, 0, 81, 0
2, 185664, Note_on_c, 0, 80, 70
2, 185756, Note_off_c, 0, 80, 0
2, 185760, Note_on_c, 0, 78, 70
2, 185852, Note_off_c, 0, 68, 0
2, 185852, Note_off_c, 0, 63, 0
2, 185852, Note_off_c, 0, 60, 0
2, 185852, Note_off_c, 0, 78, 0
2, 185856, Note_on_c, 0, 76, 70
2, 185856, Note_on_c, 0, 68, 70
2, 185856, Note_on_c, 0, 64, 70
2, 185856, Note_on_c, 0, 61, 70
2, 186176, Note_off_c, 0, 76, 0
2, 186176, Note_off_c, 0, 68, 0
2, 186176, Note_off_c, 0, 64, 0
2, 186176, Note_off_c, 0, 61, 0
2, 186624, Note_on_c, 0, 80, 105
2, 186624, Note_on_c, 0, 68, 95
2, 186624, Note_on_c, 0, 63, 95
2, 186624, Note_on_c, 0, 60, 95
2, 187100, Note_off_c, 0, 80, 0
2, 187104, Note_on_c, 0, 81, 95
2, 187196, Note_off_c, 0, 81, 0
2, 187200, Note_on_c, 0, 80, 95
2, 187292, Note_off_c, 0, 80, 0
2, 187296, Note_on_c, 0, 78, 95
2, 187388, Note_off_c, 0, 68, 0
2, 187388, Note_off_c, 0, 63, 0
2, 187388, Note_off_c, 0, 60, 0
2, 187388, Note_off_c, 0, 78, 0
2, 187392, Note_on_c, 0, 76, 95
2, 187392, Note_on_c, 0, 68, 95
2, 187392, Note_on_c, 0, 64, 95
2, 187392, Note_on_c, 0, 61, 95
2, 187772, Note_off_c, 0, 76, 0
2, 187772, Note_off_c, 0, 68, 0
2, 187772, Note_off_c, 0, 64, 0
2, 187772, Note_off_c, 0, 61, 0
2, 188160, Note_on_c, 0, 80, 105
2, 188160, Note_on_c, 0, 68, 95
2, 188160, Note_on_c, 0, 63, 95
2, 188160, Note_on_c, 0, 60, 95
2, 188636, Note_off_c, 0, 80, 0
2, 188640, Note_on_c, 0, 81, 95
2, 188732, Note_off_c, 0, 81, 0
2, 188736, Note_on_c, 0, 80, 95
2, 188828, Note_off_c, 0, 80, 0
2, 188832, Note_on_c, 0, 78, 95
2, 188924, Note_off_c, 0, 68, 0
2, 188924, Note_off_c, 0, 63, 0
2, 188924, Note_off_c, 0, 60, 0
2, 188924, Note_off_c, 0, 78, 0
2, 188928, Note_on_c, 0, 76, 95
2, 188928, Note_on_c, 0, 68, 95
2, 188928, Note_on_c, 0, 64, 95
2, 188928, Note_on_c, 0, 61, 95
2, 189020, Note_off_c, 0, 76, 0
2, 189024, Note_on_c, 0, 78, 95
2, 189116, Note_off_c, 0, 78, 0
2, 189120, Note_on_c, 0, 76, 95
2, 189212, Note_off_c, 0, 76, 0
2, 189216, Note_on_c, 0, 75, 95
2, 189296, Note_off_c, 0, 75, 0
2, 189308, Note_off_c, 0, 68, 0
2, 189308, Note_off_c, 0, 64, 0
2, 189308, Note_off_c, 0, 61, 0
2, 189312, Note_on_c, 0, 76, 96
2, 189312, Note_on_c, 0, 61, 96
2, 189312, Note_on_c, 0, 64, 96
2, 189372, Note_off_c, 0, 76, 0
2, 189440, Note_on_c, 0, 77, 97
2, 189500, Note_off_c, 0, 77, 0
2, 189568, Note_on_c, 0, 78, 98
2, 189628, Note_off_c, 0, 78, 0
2, 189696, Note_on_c, 0, 79, 99
2, 189756, Note_off_c, 0, 79, 0
2, 189824, Note_on_c, 0, 80, 100
2, 189884, Note_off_c, 0, 80, 0
2, 189952, Note_on_c, 0, 81, 101
2, 189956, Note_off_c, 0, 61, 0
2, 189956, Note_off_c, 0, 64, 0
2, 190012, Note_off_c, 0, 81, 0
2, 190080, Note_on_c, 0, 82, 102
2, 190080, Note_on_c, 0, 64, 102
2, 190080, Note_on_c, 0, 62, 102
2, 190080, Note_on_c, 0, 59, 102
2, 190140, Note_off_c, 0, 82, 0
2, 190208, Note_on_c, 0, 83, 104
2, 190268, Note_off_c, 0, 83, 0
2, 190336, Note_on_c, 0, 84, 105
2, 190396, Note_off_c, 0, 84, 0
2, 190400, Note_off_c, 0, 64, 0
2, 190400, Note_off_c, 0, 62, 0
2, 190400, Note_off_c, 0, 59, 0
2, 190464, Note_on_c, 0, 85, 95
2, 190624, Note_off_c, 0, 85, 0
2, 190848, Note_on_c, 0, 85, 105
2, 191420, Note_off_c, 0, 85, 0
2, 191424, Note_on_c, 0, 88, 95
2, 191516, Note_off_c, 0, 88, 0
2, 191520, Note_on_c, 0, 86, 95
2, 191612, Note_off_c, 0, 86, 0
2, 191616, Note_on_c, 0, 88, 95
2, 191708, Note_off_c, 0, 88, 0
2, 191712, Note_on_c, 0, 87, 95
2, 191804, Note_off_c, 0, 87, 0
2, 191808, Note_on_c, 0, 85, 95
2, 191900, Note_off_c, 0, 85, 0
2, 191904, Note_on_c, 0, 83, 95
2, 191984, Note_off_c, 0, 83, 0
2, 192000, Note_on_c, 0, 83, 95
2, 192092, Note_off_c, 0, 83, 0
2, 192096, Note_on_c, 0, 81, 95
2, 192188, Note_off_c, 0, 81, 0
2, 192192, Note_on_c, 0, 85, 95
2, 192284, Note_off_c, 0, 85, 0
2, 192288, Note_on_c, 0, 83, 95
2, 192380, Note_off_c, 0, 83, 0
2, 192384, Note_on_c, 0, 81, 95
2, 192476, Note_off_c, 0, 81, 0
2, 192480, Note_on_c, 0, 80, 95
2, 192572, Note_off_c, 0, 80, 0
2, 192576, Note_on_c, 0, 78, 95
2, 192668, Note_off_c, 0, 78, 0
2, 192672, Note_on_c, 0, 76, 95
2, 192764, Note_off_c, 0, 76, 0
2, 192768, Note_on_c, 0, 75, 95
2, 192860, Note_off_c, 0, 75, 0
2, 192864, Note_on_c, 0, 73, 95
2, 192956, Note_off_c, 0, 73, 0
2, 192960, Note_on_c, 0, 71, 95
2, 193052, Note_off_c, 0, 71, 0
2, 193056, Note_on_c, 0, 69, 95
2, 193148, Note_off_c, 0, 69, 0
2, 193152, Note_on_c, 0, 68, 95
2, 193244, Note_off_c, 0, 68, 0
2, 193248, Note_on_c, 0, 71, 95
2, 193340, Note_off_c, 0, 71, 0
2, 193344, Note_on_c, 0, 76, 95
2, 193436, Note_off_c, 0, 76, 0
2, 193440, Note_on_c, 0, 80, 95
2, 193532, Note_off_c, 0, 80, 0
2, 193536, Note_on_c, 0, 73, 95
2, 193628, Note_off_c, 0, 73, 0
2, 193632, Note_on_c, 0, 78, 95
2, 193724, Note_off_c, 0, 78, 0
2, 193728, Note_on_c, 0, 81, 95
2, 193820, Note_off_c, 0, 81, 0
2, 193824, Note_on_c, 0, 85, 95
2, 193916, Note_off_c, 0, 85, 0
2, 193920, Note_on_c, 0, 83, 95
2, 194012, Note_off_c, 0, 83, 0
2, 194016, Note_on_c, 0, 81, 95
2, 194108, Note_off_c, 0, 81, 0
2, 194112, Note_on_c, 0, 80, 95
2, 194204, Note_off_c, 0, 80, 0
2, 194208, Note_on_c, 0, 78, 95
2, 194300, Note_off_c, 0, 78, 0
2, 194304, Note_on_c, 0, 76, 95
2, 194684, Note_off_c, 0, 76, 0
2, 194688, Note_on_c, 0, 75, 95
2, 195008, Note_off_c, 0, 75, 0
2, 195072, Note_on_c, 0, 83, 95
2, 195164, Note_off_c, 0, 83, 0
2, 195168, Note_on_c, 0, 81, 95
2, 195260, Note_off_c, 0, 81, 0
2, 195264, Note_on_c, 0, 85, 95
2, 195356, Note_off_c, 0, 85, 0
2, 195360, Note_on_c, 0, 83, 95
2, 195452, Note_off_c, 0, 83, 0
2, 195456, Note_on_c, 0, 81, 95
2, 195548, Note_off_c, 0, 81, 0
2, 195552, Note_on_c, 0, 80, 95
2, 195644, Note_off_c, 0, 80, 0
2, 195648, Note_on_c, 0, 78, 95
2, 195740, Note_off_c, 0, 78, 0
2, 195744, Note_on_c, 0, 76, 95
2, 195836, Note_off_c, 0, 76, 0
2, 195840, Note_on_c, 0, 75, 95
2, 195932, Note_off_c, 0, 75, 0
2, 195936, Note_on_c, 0, 73, 95
2, 196028, Note_off_c, 0, 73, 0
2, 196032, Note_on_c, 0, 71, 95
2, 196124, Note_off_c, 0, 71, 0
2, 196128, Note_on_c, 0, 69, 95
2, 196220, Note_off_c, 0, 69, 0
2, 196224, Note_on_c, 0, 68, 95
2, 196316, Note_off_c, 0, 68, 0
2, 196320, Note_on_c, 0, 71, 95
2, 196412, Note_off_c, 0, 71, 0
2, 196416, Note_on_c, 0, 76, 95
2, 196508, Note_off_c, 0, 76, 0
2, 196512, Note_on_c, 0, 80, 95
2, 196604, Note_off_c, 0, 80, 0
2, 196608, Note_on_c, 0, 71, 95
2, 196700, Note_off_c, 0, 71, 0
2, 196704, Note_on_c, 0, 69, 95
2, 196796, Note_off_c, 0, 69, 0
2, 196800, Note_on_c, 0, 73, 95
2, 196892, Note_off_c, 0, 73, 0
2, 196896, Note_on_c, 0, 71, 95
2, 196988, Note_off_c, 0, 71, 0
2, 196992, Note_on_c, 0, 69, 95
2, 197084, Note_off_c, 0, 69, 0
2, 197088, Note_on_c, 0, 68, 95
2, 197180, Note_off_c, 0, 68, 0
2, 197184, Note_on_c, 0, 66, 95
2, 197276, Note_off_c, 0, 66, 0
2, 197280, Note_on_c, 0, 64, 95
2, 197372, Note_off_c, 0, 64, 0
2, 197376, Note_on_c, 0, 63, 95
2, 197468, Note_off_c, 0, 63, 0
2, 197472, Note_on_c, 0, 61, 95
2, 197564, Note_off_c, 0, 61, 0
2, 197568, Note_on_c, 0, 59, 95
2, 197660, Note_off_c, 0, 59, 0
2, 197664, Note_on_c, 0, 57, 95
2, 197756, Note_off_c, 0, 57, 0
2, 197760, Note_on_c, 0, 56, 95
2, 197852, Note_off_c, 0, 56, 0
2, 197856, Note_on_c, 0, 59, 95
2, 197948, Note_off_c, 0, 59, 0
2, 197952, Note_on_c, 0, 64, 95
2, 198044, Note_off_c, 0, 64, 0
2, 198048, Note_on_c, 0, 68, 95
2, 198140, Note_off_c, 0, 68, 0
2, 198144, Note_on_c, 0, 61, 95
2, 198332, Note_off_c, 0, 61, 0
2, 198336, Note_on_c, 0, 63, 85
2, 198428, Note_off_c, 0, 63, 0
2, 198432, Note_on_c, 0, 64, 85
2, 198524, Note_off_c, 0, 64, 0
2, 198528, Note_on_c, 0, 66, 85
2, 198620, Note_off_c, 0, 66, 0
2, 198624, Note_on_c, 0, 68, 85
2, 198716, Note_off_c, 0, 68, 0
2, 198720, Note_on_c, 0, 69, 85
2, 198812, Note_off_c, 0, 69, 0
2, 198816, Note_on_c, 0, 71, 85
2, 198908, Note_off_c, 0, 71, 0
2, 198912, Note_on_c, 0, 73, 85
2, 199004, Note_off_c, 0, 73, 0
2, 199008, Note_on_c, 0, 74, 85
2, 199100, Note_off_c, 0, 74, 0
2, 199104, Note_on_c, 0, 72, 85
2, 199196, Note_off_c, 0, 72, 0
2, 199200, Note_on_c, 0, 74, 85
2, 199292, Note_off_c, 0, 74, 0
2, 199296, Note_on_c, 0, 73, 85
2, 199388, Note_off_c, 0, 73, 0
2, 199392, Note_on_c, 0, 74, 85
2, 199484, Note_off_c, 0, 74, 0
2, 199488, Note_on_c, 0, 72, 85
2, 199580, Note_off_c, 0, 72, 0
2, 199584, Note_on_c, 0, 74, 85
2, 199664, Note_off_c, 0, 74, 0
2, 199680, Note_on_c, 0, 73, 95
2, 199868, Note_off_c, 0, 73, 0
2, 199872, Note_on_c, 0, 75, 85
2, 199964, Note_off_c, 0, 75, 0
2, 199968, Note_on_c, 0, 76, 85
2, 200060, Note_off_c, 0, 76, 0
2, 200064, Note_on_c, 0, 78, 85
2, 200156, Note_off_c, 0, 78, 0
2, 200160, Note_on_c, 0, 80, 85
2, 200252, Note_off_c, 0, 80, 0
2, 200256, Note_on_c, 0, 81, 85
2, 200348, Note_off_c, 0, 81, 0
2, 200352, Note_on_c, 0, 83, 85
2, 200444, Note_off_c, 0, 83, 0
2, 200448, Note_on_c, 0, 85, 85
2, 200540, Note_off_c, 0, 85, 0
2, 200544, Note_on_c, 0, 86, 85
2, 200636, Note_off_c, 0, 86, 0
2, 200640, Note_on_c, 0, 84, 85
2, 200732, Note_off_c, 0, 84, 0
2, 200736, Note_on_c, 0, 86, 85
2, 200828, Note_off_c, 0, 86, 0
2, 200832, Note_on_c, 0, 85, 85
2, 200924, Note_off_c, 0, 85, 0
2, 200928, Note_on_c, 0, 86, 85
2, 201020, Note_off_c, 0, 86, 0
2, 201024, Note_on_c, 0, 85, 85
2, 201116, Note_off_c, 0, 85, 0
2, 201120, Note_on_c, 0, 86, 85
2, 201200, Note_off_c, 0, 86, 0
2, 201216, Note_on_c, 0, 85, 95
2, 201308, Note_off_c, 0, 85, 0
2, 201312, Note_on_c, 0, 87, 95
2, 201404, Note_off_c, 0, 87, 0
2, 201408, Note_on_c, 0, 88, 95
2, 201500, Note_off_c, 0, 88, 0
2, 201504, Note_on_c, 0, 80, 95
2, 201596, Note_off_c, 0, 80, 0
2, 201600, Note_on_c, 0, 81, 95
2, 201692, Note_off_c, 0, 81, 0
2, 201696, Note_on_c, 0, 83, 95
2, 201788, Note_off_c, 0, 83, 0
2, 201792, Note_on_c, 0, 85, 95
2, 201884, Note_off_c, 0, 85, 0
2, 201888, Note_on_c, 0, 76, 95
2, 201980, Note_off_c, 0, 76, 0
2, 201984, Note_on_c, 0, 78, 95
2, 202076, Note_off_c, 0, 78, 0
2, 202080, Note_on_c, 0, 80, 95
2, 202172, Note_off_c, 0, 80, 0
2, 202176, Note_on_c, 0, 81, 95
2, 202268, Note_off_c, 0, 81, 0
2, 202272, Note_on_c, 0, 72, 95
2, 202364, Note_off_c, 0, 72, 0
2, 202368, Note_on_c, 0, 73, 95
2, 202460, Note_off_c, 0, 73, 0
2, 202464, Note_on_c, 0, 76, 95
2, 202556, Note_off_c, 0, 76, 0
2, 202560, Note_on_c, 0, 78, 95
2, 202652, Note_off_c, 0, 78, 0
2, 202656, Note_on_c, 0, 68, 95
2, 202748, Note_off_c, 0, 68, 0
2, 202752, Note_on_c, 0, 69, 95
2, 202844, Note_off_c, 0, 69, 0
2, 202848, Note_on_c, 0, 71, 95
2, 202940, Note_off_c, 0, 71, 0
2, 202944, Note_on_c, 0, 73, 95
2, 203036, Note_off_c, 0, 73, 0
2, 203040, Note_on_c, 0, 64, 95
2, 203132, Note_off_c, 0, 64, 0
2, 203136, Note_on_c, 0, 66, 95
2, 203228, Note_off_c, 0, 66, 0
2, 203232, Note_on_c, 0, 68, 95
2, 203324, Note_off_c, 0, 68, 0
2, 203328, Note_on_c, 0, 69, 95
2, 203420, Note_off_c, 0, 69, 0
2, 203424, Note_on_c, 0, 60, 95
2, 203516, Note_off_c, 0, 60, 0
2, 203520, Note_on_c, 0, 61, 95
2, 203612, Note_off_c, 0, 61, 0
2, 203616, Note_on_c, 0, 63, 95
2, 203708, Note_off_c, 0, 63, 0
2, 203712, Note_on_c, 0, 64, 95
2, 203804, Note_off_c, 0, 64, 0
2, 203808, Note_on_c, 0, 61, 95
2, 203900, Note_off_c, 0, 61, 0
2, 203904, Note_on_c, 0, 58, 95
2, 203996, Note_off_c, 0, 58, 0
2, 204000, Note_on_c, 0, 59, 95
2, 204092, Note_off_c, 0, 59, 0
2, 204096, Note_on_c, 0, 61, 95
2, 204188, Note_off_c, 0, 61, 0
2, 204192, Note_on_c, 0, 58, 95
2, 204272, Note_off_c, 0, 58, 0
2, 204384, Note_on_c, 0, 59, 95
2, 204476, Note_off_c, 0, 59, 0
2, 204480, Note_on_c, 0, 61, 95
2, 204572, Note_off_c, 0, 61, 0
2, 204576, Note_on_c, 0, 63, 95
2, 204668, Note_off_c, 0, 63, 0
2, 204672, Note_on_c, 0, 64, 95
2, 204764, Note_off_c, 0, 64, 0
2, 204768, Note_on_c, 0, 66, 95
2, 204860, Note_off_c, 0, 66, 0
2, 204864, Note_on_c, 0, 68, 95
2, 204956, Note_off_c, 0, 68, 0
2, 204960, Note_on_c, 0, 69, 95
2, 205052, Note_off_c, 0, 69, 0
2, 205056, Note_on_c, 0, 73, 105
2, 205148, Note_off_c, 0, 73, 0
2, 205152, Note_on_c, 0, 71, 95
2, 205244, Note_off_c, 0, 71, 0
2, 205248, Note_on_c, 0, 69, 95
2, 205340, Note_off_c, 0, 69, 0
2, 205344, Note_on_c, 0, 68, 95
2, 205436, Note_off_c, 0, 68, 0
2, 205440, Note_on_c, 0, 69, 95
2, 205532, Note_off_c, 0, 69, 0
2, 205536, Note_on_c, 0, 71, 95
2, 205628, Note_off_c, 0, 71, 0
2, 205632, Note_on_c, 0, 73, 95
2, 205724, Note_off_c, 0, 73, 0
2, 205728, Note_on_c, 0, 75, 95
2, 205820, Note_off_c, 0, 75, 0
2, 205824, Note_on_c, 0, 76, 95
2, 205916, Note_off_c, 0, 76, 0
2, 205920, Note_on_c, 0, 75, 95
2, 206012, Note_off_c, 0, 75, 0
2, 206016, Note_on_c, 0, 73, 95
2, 206108, Note_off_c, 0, 73, 0
2, 206112, Note_on_c, 0, 71, 95
2, 206204, Note_off_c, 0, 71, 0
2, 206208, Note_on_c, 0, 73, 95
2, 206300, Note_off_c, 0, 73, 0
2, 206304, Note_on_c, 0, 75, 95
2, 206396, Note_off_c, 0, 75, 0
2, 206400, Note_on_c, 0, 76, 95
2, 206492, Note_off_c, 0, 76, 0
2, 206496, Note_on_c, 0, 78, 95
2, 206588, Note_off_c, 0, 78, 0
2, 206592, Note_on_c, 0, 80, 105
2, 206684, Note_off_c, 0, 80, 0
2, 206688, Note_on_c, 0, 78, 95
2, 206780, Note_off_c, 0, 78, 0
2, 206784, Note_on_c, 0, 76, 95
2, 206876, Note_off_c, 0, 76, 0
2, 206880, Note_on_c, 0, 75, 95
2, 206972, Note_off_c, 0, 75, 0
2, 206976, Note_on_c, 0, 76, 95
2, 207068, Note_off_c, 0, 76, 0
2, 207072, Note_on_c, 0, 78, 95
2, 207164, Note_off_c, 0, 78, 0
2, 207168, Note_on_c, 0, 80, 95
2, 207260, Note_off_c, 0, 80, 0
2, 207264, Note_on_c, 0, 81, 95
2, 207356, Note_off_c, 0, 81, 0
2, 207360, Note_on_c, 0, 85, 95
2, 207452, Note_off_c, 0, 85, 0
2, 207456, Note_on_c, 0, 83, 95
2, 207548, Note_off_c, 0, 83, 0
2, 207552, Note_on_c, 0, 81, 95
2, 207644, Note_off_c, 0, 81, 0
2, 207648, Note_on_c, 0, 80, 95
2, 207740, Note_off_c, 0, 80, 0
2, 207744, Note_on_c, 0, 81, 95
2, 207836, Note_off_c, 0, 81, 0
2, 207840, Note_on_c, 0, 83, 95
2, 207932, Note_off_c, 0, 83, 0
2, 207936, Note_on_c, 0, 85, 95
2, 208028, Note_off_c, 0, 85, 0
2, 208032, Note_on_c, 0, 87, 95
2, 208124, Note_off_c, 0, 87, 0
2, 208128, Note_on_c, 0, 88, 105
2, 208220, Note_off_c, 0, 88, 0
2, 208224, Note_on_c, 0, 87, 98
2, 208316, Note_off_c, 0, 87, 0
2, 208320, Note_on_c, 0, 85, 99
2, 208412, Note_off_c, 0, 85, 0
2, 208416, Note_on_c, 0, 83, 100
2, 208508, Note_off_c, 0, 83, 0
2, 208512, Note_on_c, 0, 81, 101
2, 208604, Note_off_c, 0, 81, 0
2, 208608, Note_on_c, 0, 80, 102
2, 208700, Note_off_c, 0, 80, 0
2, 208704, Note_on_c, 0, 78, 104
2, 208796, Note_off_c, 0, 78, 0
2, 208800, Note_on_c, 0, 76, 105
2, 208880, Note_off_c, 0, 76, 0
2, 208896, Note_on_c, 0, 78, 105
2, 208896, Note_on_c, 0, 59, 105
2, 208940, Note_off_c, 0, 78, 0
2, 208944, Note_on_c, 0, 80, 105
2, 208988, Note_off_c, 0, 59, 0
2, 208988, Note_off_c, 0, 80, 0
2, 208992, Note_on_c, 0, 78, 105
2, 208992, Note_on_c, 0, 69, 105
2, 209036, Note_off_c, 0, 78, 0
2, 209040, Note_on_c, 0, 80, 105
2, 209084, Note_off_c, 0, 69, 0
2, 209084, Note_off_c, 0, 80, 0
2, 209088, Note_on_c, 0, 78, 106
2, 209088, Note_on_c, 0, 63, 106
2, 209132, Note_off_c, 0, 78, 0
2, 209136, Note_on_c, 0, 80, 106
2, 209180, Note_off_c, 0, 63, 0
2, 209180, Note_off_c, 0, 80, 0
2, 209184, Note_on_c, 0, 78, 106
2, 209184, Note_on_c, 0, 69, 106
2, 209228, Note_off_c, 0, 78, 0
2, 209232, Note_on_c, 0, 80, 106
2, 209276, Note_off_c, 0, 69, 0
2, 209276, Note_off_c, 0, 80, 0
2, 209280, Note_on_c, 0, 78, 107
2, 209280, Note_on_c, 0, 59, 107
2, 209324, Note_off_c, 0, 78, 0
2, 209328, Note_on_c, 0, 80, 107
2, 209372, Note_off_c, 0, 59, 0
2, 209372, Note_off_c, 0, 80, 0
2, 209376, Note_on_c, 0, 78, 107
2, 209376, Note_on_c, 0, 69, 107
2, 209420, Note_off_c, 0, 78, 0
2, 209424, Note_on_c, 0, 80, 107
2, 209468, Note_off_c, 0, 69, 0
2, 209468, Note_off_c, 0, 80, 0
2, 209472, Note_on_c, 0, 78, 108
2, 209472, Note_on_c, 0, 63, 108
2, 209516, Note_off_c, 0, 78, 0
2, 209520, Note_on_c, 0, 80, 108
2, 209564, Note_off_c, 0, 63, 0
2, 209564, Note_off_c, 0, 80, 0
2, 209568, Note_on_c, 0, 78, 108
2, 209568, Note_on_c, 0, 69, 108
2, 209612, Note_off_c, 0, 78, 0
2, 209616, Note_on_c, 0, 80, 108
2, 209660, Note_off_c, 0, 69, 0
2, 209660, Note_off_c, 0, 80, 0
2, 209664, Note_on_c, 0, 78, 109
2, 209664, Note_on_c, 0, 59, 109
2, 209708, Note_off_c, 0, 78, 0
2, 209712, Note_on_c, 0, 80, 109
2, 209756, Note_off_c, 0, 59, 0
2, 209756, Note_off_c, 0, 80, 0
2, 209760, Note_on_c, 0, 78, 109
2, 209760, Note_on_c, 0, 69, 109
2, 209804, Note_off_c, 0, 78, 0
2, 209808, Note_on_c, 0, 80, 109
2, 209852, Note_off_c, 0, 69, 0
2, 209852, Note_off_c, 0, 80, 0
2, 209856, Note_on_c, 0, 78, 110
2, 209856, Note_on_c, 0, 63, 110
2, 209900, Note_off_c, 0, 78, 0
2, 209904, Note_on_c, 0, 80, 110
2, 209948, Note_off_c, 0, 63, 0
2, 209948, Note_off_c, 0, 80, 0
2, 209952, Note_on_c, 0, 78, 110
2, 209952, Note_on_c, 0, 69, 110
2, 209996, Note_off_c, 0, 78, 0
2, 210000, Note_on_c, 0, 80, 110
2, 210044, Note_off_c, 0, 69, 0
2, 210044, Note_off_c, 0, 80, 0
2, 210048, Note_on_c, 0, 78, 111
2, 210048, Note_on_c, 0, 59, 111
2, 210092, Note_off_c, 0, 78, 0
2, 210096, Note_on_c, 0, 80, 111
2, 210140, Note_off_c, 0, 59, 0
2, 210140, Note_off_c, 0, 80, 0
2, 210144, Note_on_c, 0, 78, 111
2, 210144, Note_on_c, 0, 69, 111
2, 210188, Note_off_c, 0, 78, 0
2, 210192, Note_on_c, 0, 80, 111
2, 210236, Note_off_c, 0, 69, 0
2, 210236, Note_off_c, 0, 80, 0
2, 210240, Note_on_c, 0, 76, 112
2, 210240, Note_on_c, 0, 63, 112
2, 210332, Note_off_c, 0, 76, 0
2, 210332, Note_off_c, 0, 63, 0
2, 210336, Note_on_c, 0, 78, 112
2, 210336, Note_on_c, 0, 69, 112
2, 210428, Note_off_c, 0, 78, 0
2, 210428, Note_off_c, 0, 69, 0
2, 210432, Note_on_c, 0, 76, 115
2, 210432, Note_on_c, 0, 64, 115
2, 210432, Note_on_c, 0, 68, 115
2, 210812, Note_off_c, 0, 76, 0
2, 210812, Note_off_c, 0, 64, 0
2, 210812, Note_off_c, 0, 68, 0
2, 228960, Note_on_c, 0, 68, 70
2, 229052, Note_off_c, 0, 68, 0
2, 229056, Note_on_c, 0, 69, 70
2, 229148, Note_off_c, 0, 69, 0
2, 229152, Note_on_c, 0, 71, 70
2, 229244, Note_off_c, 0, 71, 0
2, 229248, Note_on_c, 0, 73, 70
2, 229340, Note_off_c, 0, 73, 0
2, 229344, Note_on_c, 0, 75, 70
2, 229436, Note_off_c, 0, 75, 0
2, 229440, Note_on_c, 0, 76, 70
2, 229532, Note_off_c, 0, 76, 0
2, 229536, Note_on_c, 0, 78, 70
2, 229628, Note_off_c, 0, 78, 0
2, 229632, Note_on_c, 0, 80, 70
2, 229632, Note_on_c, 0, 64, 70
2, 229724, Note_off_c, 0, 64, 0
2, 229728, Note_on_c, 0, 66, 70
2, 229820, Note_off_c, 0, 66, 0
2, 229824, Note_on_c, 0, 68, 70
2, 229916, Note_off_c, 0, 68, 0
2, 229920, Note_on_c, 0, 69, 70
2, 230012, Note_off_c, 0, 69, 0
2, 230016, Note_on_c, 0, 71, 70
2, 230108, Note_off_c, 0, 71, 0
2, 230112, Note_on_c, 0, 73, 70
2, 230204, Note_off_c, 0, 73, 0
2, 230208, Note_on_c, 0, 75, 70
2, 230300, Note_off_c, 0, 75, 0
2, 230304, Note_on_c, 0, 76, 70
2, 230384, Note_off_c, 0, 76, 0
2, 230400, Note_on_c, 0, 69, 70
2, 230560, Note_off_c, 0, 80, 0
2, 230592, Note_on_c, 0, 81, 80
2, 230684, Note_off_c, 0, 81, 0
2, 230688, Note_on_c, 0, 80, 70
2, 230780, Note_off_c, 0, 80, 0
2, 230784, Note_on_c, 0, 78, 70
2, 230876, Note_off_c, 0, 78, 0
2, 230880, Note_on_c, 0, 80, 70
2, 230972, Note_off_c, 0, 80, 0
2, 230976, Note_on_c, 0, 78, 70
2, 231068, Note_off_c, 0, 78, 0
2, 231072, Note_on_c, 0, 76, 70
2, 231164, Note_off_c, 0, 76, 0
2, 231168, Note_on_c, 0, 78, 70
2, 231260, Note_off_c, 0, 78, 0
2, 231264, Note_on_c, 0, 80, 70
2, 231356, Note_off_c, 0, 80, 0
2, 231360, Note_on_c, 0, 81, 70
2, 231452, Note_off_c, 0, 81, 0
2, 231456, Note_on_c, 0, 80, 70
2, 231548, Note_off_c, 0, 80, 0
2, 231552, Note_on_c, 0, 83, 70
2, 231644, Note_off_c, 0, 83, 0
2, 231648, Note_on_c, 0, 81, 70
2, 231740, Note_off_c, 0, 81, 0
2, 231744, Note_on_c, 0, 80, 70
2, 231836, Note_off_c, 0, 80, 0
2, 231840, Note_on_c, 0, 78, 70
2, 231932, Note_off_c, 0, 78, 0
2, 231936, Note_on_c, 0, 76, 70
2, 232028, Note_off_c, 0, 76, 0
2, 232032, Note_on_c, 0, 75, 70
2, 232124, Note_off_c, 0, 75, 0
2, 232128, Note_on_c, 0, 73, 70
2, 232220, Note_off_c, 0, 73, 0
2, 232224, Note_on_c, 0, 71, 70
2, 232316, Note_off_c, 0, 71, 0
2, 232320, Note_on_c, 0, 75, 70
2, 232412, Note_off_c, 0, 75, 0
2, 232416, Note_on_c, 0, 71, 70
2, 232508, Note_off_c, 0, 71, 0
2, 232512, Note_on_c, 0, 78, 70
2, 232580, Note_off_c, 0, 69, 0
2, 232604, Note_off_c, 0, 78, 0
2, 232608, Note_on_c, 0, 75, 70
2, 232700, Note_off_c, 0, 75, 0
2, 232704, Note_on_c, 0, 83, 70
2, 232708, Note_on_c, 0, 68, 70
2, 232800, Note_off_c, 0, 68, 0
2, 232800, Note_on_c, 0, 69, 70
2, 232892, Note_off_c, 0, 69, 0
2, 232896, Note_on_c, 0, 71, 70
2, 232988, Note_off_c, 0, 71, 0
2, 232992, Note_on_c, 0, 69, 70
2, 233084, Note_off_c, 0, 69, 0
2, 233088, Note_on_c, 0, 68, 70
2, 233180, Note_off_c, 0, 68, 0
2, 233184, Note_on_c, 0, 66, 70
2, 233276, Note_off_c, 0, 66, 0
2, 233280, Note_on_c, 0, 68, 70
2, 233372, Note_off_c, 0, 68, 0
2, 233376, Note_on_c, 0, 64, 70
2, 233468, Note_off_c, 0, 64, 0
2, 233472, Note_on_c, 0, 73, 70
2, 233632, Note_off_c, 0, 83, 0
2, 233664, Note_on_c, 0, 88, 70
2, 233756, Note_off_c, 0, 88, 0
2, 233760, Note_on_c, 0, 87, 70
2, 233852, Note_off_c, 0, 87, 0
2, 233856, Note_on_c, 0, 88, 70
2, 233948, Note_off_c, 0, 88, 0
2, 233952, Note_on_c, 0, 87, 70
2, 234044, Note_off_c, 0, 87, 0
2, 234048, Note_on_c, 0, 85, 70
2, 234140, Note_off_c, 0, 85, 0
2, 234144, Note_on_c, 0, 83, 70
2, 234236, Note_off_c, 0, 83, 0
2, 234240, Note_on_c, 0, 81, 70
2, 234400, Note_off_c, 0, 73, 0
2, 234432, Note_on_c, 0, 78, 70
2, 234524, Note_off_c, 0, 78, 0
2, 234528, Note_on_c, 0, 76, 70
2, 234620, Note_off_c, 0, 76, 0
2, 234624, Note_on_c, 0, 78, 70
2, 234716, Note_off_c, 0, 78, 0
2, 234720, Note_on_c, 0, 76, 70
2, 234812, Note_off_c, 0, 76, 0
2, 234816, Note_on_c, 0, 75, 70
2, 234908, Note_off_c, 0, 75, 0
2, 234912, Note_on_c, 0, 73, 70
2, 235004, Note_off_c, 0, 73, 0
2, 235008, Note_on_c, 0, 71, 70
2, 235168, Note_off_c, 0, 71, 0
2, 235200, Note_on_c, 0, 76, 70
2, 235292, Note_off_c, 0, 76, 0
2, 235296, Note_on_c, 0, 75, 70
2, 235328, Note_off_c, 0, 81, 0
2, 235388, Note_off_c, 0, 75, 0
2, 235392, Note_on_c, 0, 80, 70
2, 235392, Note_on_c, 0, 76, 70
2, 235484, Note_off_c, 0, 76, 0
2, 235488, Note_on_c, 0, 75, 70
2, 235580, Note_off_c, 0, 75, 0
2, 235584, Note_on_c, 0, 73, 70
2, 235676, Note_off_c, 0, 73, 0
2, 235680, Note_on_c, 0, 71, 70
2, 235772, Note_off_c, 0, 71, 0
2, 235776, Note_on_c, 0, 69, 71
2, 235936, Note_off_c, 0, 80, 0
2, 235968, Note_on_c, 0, 85, 71
2, 236060, Note_off_c, 0, 85, 0
2, 236064, Note_on_c, 0, 83, 72
2, 236156, Note_off_c, 0, 83, 0
2, 236160, Note_on_c, 0, 81, 72
2, 236252, Note_off_c, 0, 81, 0
2, 236256, Note_on_c, 0, 80, 73
2, 236348, Note_off_c, 0, 80, 0
2, 236352, Note_on_c, 0, 78, 73
2, 236444, Note_off_c, 0, 78, 0
2, 236448, Note_on_c, 0, 76, 74
2, 236540, Note_off_c, 0, 76, 0
2, 236544, Note_on_c, 0, 75, 74
2, 236544, Note_on_c, 0, 69, 74
2, 236636, Note_off_c, 0, 75, 0
2, 236640, Note_on_c, 0, 76, 75
2, 236732, Note_off_c, 0, 76, 0
2, 236736, Note_on_c, 0, 78, 75
2, 236828, Note_off_c, 0, 78, 0
2, 236832, Note_on_c, 0, 80, 76
2, 236924, Note_off_c, 0, 80, 0
2, 236928, Note_on_c, 0, 81, 76
2, 237020, Note_off_c, 0, 81, 0
2, 237024, Note_on_c, 0, 78, 77
2, 237116, Note_off_c, 0, 78, 0
2, 237120, Note_on_c, 0, 76, 77
2, 237188, Note_off_c, 0, 69, 0
2, 237212, Note_off_c, 0, 76, 0
2, 237216, Note_on_c, 0, 75, 78
2, 237308, Note_off_c, 0, 69, 0
2, 237308, Note_off_c, 0, 75, 0
2, 237312, Note_on_c, 0, 76, 78
2, 237312, Note_on_c, 0, 68, 78
2, 237404, Note_off_c, 0, 76, 0
2, 237408, Note_on_c, 0, 78, 79
2, 237500, Note_off_c, 0, 78, 0
2, 237504, Note_on_c, 0, 80, 79
2, 237596, Note_off_c, 0, 80, 0
2, 237600, Note_on_c, 0, 78, 80
2, 237632, Note_off_c, 0, 68, 0
2, 237692, Note_off_c, 0, 78, 0
2, 237696, Note_on_c, 0, 76, 80
2, 237788, Note_off_c, 0, 76, 0
2, 237792, Note_on_c, 0, 75, 80
2, 237884, Note_off_c, 0, 75, 0
2, 237888, Note_on_c, 0, 73, 81
2, 237980, Note_off_c, 0, 73, 0
2, 237984, Note_on_c, 0, 71, 81
2, 238076, Note_off_c, 0, 71, 0
2, 238080, Note_on_c, 0, 69, 82
2, 238172, Note_off_c, 0, 69, 0
2, 238176, Note_on_c, 0, 71, 82
2, 238268, Note_off_c, 0, 71, 0
2, 238272, Note_on_c, 0, 73, 83
2, 238364, Note_off_c, 0, 73, 0
2, 238368, Note_on_c, 0, 71, 83
2, 238460, Note_off_c, 0, 71, 0
2, 238464, Note_on_c, 0, 69, 84
2, 238556, Note_off_c, 0, 69, 0
2, 238560, Note_on_c, 0, 68, 84
2, 238652, Note_off_c, 0, 68, 0
2, 238656, Note_on_c, 0, 66, 85
2, 238748, Note_off_c, 0, 66, 0
2, 238752, Note_on_c, 0, 64, 85
2, 238844, Note_off_c, 0, 64, 0
2, 238848, Note_on_c, 0, 63, 86
2, 238940, Note_off_c, 0, 63, 0
2, 238944, Note_on_c, 0, 64, 86
2, 239036, Note_off_c, 0, 64, 0
2, 239040, Note_on_c, 0, 66, 87
2, 239132, Note_off_c, 0, 66, 0
2, 239136, Note_on_c, 0, 64, 87
2, 239228, Note_off_c, 0, 64, 0
2, 239232, Note_on_c, 0, 63, 88
2, 239324, Note_off_c, 0, 63, 0
2, 239328, Note_on_c, 0, 61, 88
2, 239420, Note_off_c, 0, 61, 0
2, 239424, Note_on_c, 0, 59, 89
2, 239516, Note_off_c, 0, 59, 0
2, 239520, Note_on_c, 0, 57, 89
2, 239612, Note_off_c, 0, 57, 0
2, 239616, Note_on_c, 0, 56, 90
2, 239936, Note_off_c, 0, 56, 0
2, 242784, Note_on_c, 0, 71, 70
2, 242876, Note_off_c, 0, 71, 0
2, 242880, Note_on_c, 0, 76, 70
2, 242972, Note_off_c, 0, 76, 0
2, 242976, Note_on_c, 0, 79, 70
2, 243068, Note_off_c, 0, 79, 0
2, 243072, Note_on_c, 0, 83, 70
2, 243072, Note_on_c, 0, 67, 70
2, 243152, Note_off_c, 0, 67, 0
2, 243164, Note_off_c, 0, 83, 0
2, 243168, Note_on_c, 0, 71, 70
2, 243260, Note_off_c, 0, 71, 0
2, 243264, Note_on_c, 0, 82, 70
2, 243264, Note_on_c, 0, 66, 70
2, 243356, Note_off_c, 0, 82, 0
2, 243356, Note_off_c, 0, 66, 0
2, 243360, Note_on_c, 0, 71, 70
2, 243440, Note_off_c, 0, 71, 0
2, 243456, Note_on_c, 0, 83, 71
2, 243456, Note_on_c, 0, 67, 71
2, 243548, Note_off_c, 0, 83, 0
2, 243552, Note_on_c, 0, 71, 73
2, 243644, Note_off_c, 0, 71, 0
2, 243648, Note_on_c, 0, 76, 75
2, 243740, Note_off_c, 0, 76, 0
2, 243744, Note_on_c, 0, 79, 77
2, 243776, Note_off_c, 0, 67, 0
2, 243836, Note_off_c, 0, 79, 0
2, 243840, Note_on_c, 0, 83, 79
2, 243840, Note_on_c, 0, 67, 79
2, 243920, Note_off_c, 0, 67, 0
2, 243932, Note_off_c, 0, 83, 0
2, 243936, Note_on_c, 0, 71, 81
2, 244028, Note_off_c, 0, 71, 0
2, 244032, Note_on_c, 0, 82, 83
2, 244032, Note_on_c, 0, 66, 83
2, 244112, Note_off_c, 0, 66, 0
2, 244124, Note_off_c, 0, 82, 0
2, 244128, Note_on_c, 0, 71, 85
2, 244220, Note_off_c, 0, 71, 0
2, 244224, Note_on_c, 0, 83, 85
2, 244224, Note_on_c, 0, 67, 85
2, 244304, Note_off_c, 0, 67, 0
2, 244316, Note_off_c, 0, 83, 0
2, 244320, Note_on_c, 0, 71, 85
2, 244412, Note_off_c, 0, 71, 0
2, 244416, Note_on_c, 0, 82, 85
2, 244416, Note_on_c, 0, 66, 85
2, 244496, Note_off_c, 0, 66, 0
2, 244508, Note_off_c, 0, 82, 0
2, 244512, Note_on_c, 0, 71, 85
2, 244604, Note_off_c, 0, 71, 0
2, 244608, Note_on_c, 0, 83, 85
2, 244608, Note_on_c, 0, 67, 85
2, 244688, Note_off_c, 0, 67, 0
2, 244700, Note_off_c, 0, 83, 0
2, 244704, Note_on_c, 0, 71, 85
2, 244796, Note_off_c, 0, 71, 0
2, 244800, Note_on_c, 0, 79, 85
2, 244800, Note_on_c, 0, 64, 85
2, 244880, Note_off_c, 0, 64, 0
2, 244892, Note_off_c, 0, 79, 0
2, 244896, Note_on_c, 0, 71, 85
2, 244988, Note_off_c, 0, 71, 0
2, 244992, Note_on_c, 0, 81, 84
2, 244992, Note_on_c, 0, 66, 84
2, 245072, Note_off_c, 0, 66, 0
2, 245084, Note_off_c, 0, 81, 0
2, 245088, Note_on_c, 0, 71, 82
2, 245180, Note_off_c, 0, 71, 0
2, 245184, Note_on_c, 0, 80, 80
2, 245184, Note_on_c, 0, 65, 80
2, 245264, Note_off_c, 0, 65, 0
2, 245276, Note_off_c, 0, 80, 0
2, 245280, Note_on_c, 0, 71, 78
2, 245372, Note_off_c, 0, 71, 0
2, 245376, Note_on_c, 0, 81, 76
2, 245376, Note_on_c, 0, 66, 76
2, 245456, Note_off_c, 0, 66, 0
2, 245468, Note_off_c, 0, 81, 0
2, 245472, Note_on_c, 0, 71, 74
2, 245564, Note_off_c, 0, 71, 0
2, 245568, Note_on_c, 0, 78, 72
2, 245568, Note_on_c, 0, 63, 72
2, 245648, Note_off_c, 0, 63, 0
2, 245660, Note_off_c, 0, 78, 0
2, 245664, Note_on_c, 0, 71, 70
2, 245756, Note_off_c, 0, 71, 0
2, 245760, Note_on_c, 0, 79, 70
2, 245760, Note_on_c, 0, 64, 70
2, 246080, Note_off_c, 0, 79, 0
2, 246080, Note_off_c, 0, 64, 0
2, 248928, Note_on_c, 0, 67, 70
2, 249020, Note_off_c, 0, 67, 0
2, 249024, Note_on_c, 0, 72, 70
2, 249116, Note_off_c, 0, 72, 0
2, 249120, Note_on_c, 0, 76, 70
2, 249212, Note_off_c, 0, 76, 0
2, 249216, Note_on_c, 0, 79, 70
2, 249216, Note_on_c, 0, 64, 70
2, 249308, Note_off_c, 0, 79, 0
2, 249308, Note_off_c, 0, 64, 0
2, 249312, Note_on_c, 0, 67, 70
2, 249404, Note_off_c, 0, 67, 0
2, 249408, Note_on_c, 0, 78, 70
2, 249408, Note_on_c, 0, 63, 70
2, 249500, Note_off_c, 0, 78, 0
2, 249500, Note_off_c, 0, 63, 0
2, 249504, Note_on_c, 0, 67, 70
2, 249596, Note_off_c, 0, 67, 0
2, 249600, Note_on_c, 0, 79, 71
2, 249600, Note_on_c, 0, 64, 71
2, 249692, Note_off_c, 0, 79, 0
2, 249696, Note_on_c, 0, 67, 73
2, 249788, Note_off_c, 0, 67, 0
2, 249792, Note_on_c, 0, 72, 75
2, 249884, Note_off_c, 0, 72, 0
2, 249888, Note_on_c, 0, 76, 77
2, 249920, Note_off_c, 0, 64, 0
2, 249980, Note_off_c, 0, 76, 0
2, 249984, Note_on_c, 0, 79, 79
2, 249984, Note_on_c, 0, 64, 79
2, 250064, Note_off_c, 0, 64, 0
2, 250076, Note_off_c, 0, 79, 0
2, 250080, Note_on_c, 0, 67, 81
2, 250172, Note_off_c, 0, 67, 0
2, 250176, Note_on_c, 0, 78, 82
2, 250176, Note_on_c, 0, 63, 82
2, 250256, Note_off_c, 0, 63, 0
2, 250268, Note_off_c, 0, 78, 0
2, 250272, Note_on_c, 0, 67, 85
2, 250364, Note_off_c, 0, 67, 0
2, 250368, Note_on_c, 0, 79, 85
2, 250368, Note_on_c, 0, 64, 85
2, 250460, Note_off_c, 0, 79, 0
2, 250460, Note_off_c, 0, 64, 0
2, 250464, Note_on_c, 0, 67, 85
2, 250556, Note_off_c, 0, 67, 0
2, 250560, Note_on_c, 0, 78, 85
2, 250560, Note_on_c, 0, 63, 85
2, 250652, Note_off_c, 0, 78, 0
2, 250652, Note_off_c, 0, 63, 0
2, 250656, Note_on_c, 0, 67, 85
2, 250748, Note_off_c, 0, 67, 0
2, 250752, Note_on_c, 0, 64, 85
2, 250752, Note_on_c, 0, 79, 85
2, 250844, Note_off_c, 0, 64, 0
2, 250844, Note_off_c, 0, 79, 0
2, 250848, Note_on_c, 0, 67, 85
2, 250940, Note_off_c, 0, 67, 0
2, 250944, Note_on_c, 0, 76, 85
2, 250944, Note_on_c, 0, 61, 85
2, 251036, Note_off_c, 0, 76, 0
2, 251036, Note_off_c, 0, 61, 0
2, 251040, Note_on_c, 0, 67, 85
2, 251132, Note_off_c, 0, 67, 0
2, 251136, Note_on_c, 0, 78, 84
2, 251136, Note_on_c, 0, 62, 84
2, 251228, Note_off_c, 0, 78, 0
2, 251228, Note_off_c, 0, 62, 0
2, 251232, Note_on_c, 0, 67, 82
2, 251324, Note_off_c, 0, 67, 0
2, 251328, Note_on_c, 0, 76, 80
2, 251328, Note_on_c, 0, 61, 80
2, 251420, Note_off_c, 0, 76, 0
2, 251420, Note_off_c, 0, 61, 0
2, 251424, Note_on_c, 0, 67, 78
2, 251516, Note_off_c, 0, 67, 0
2, 251520, Note_on_c, 0, 62, 76
2, 251520, Note_on_c, 0, 77, 76
2, 251612, Note_off_c, 0, 62, 0
2, 251612, Note_off_c, 0, 77, 0
2, 251616, Note_on_c, 0, 67, 74
2, 251708, Note_off_c, 0, 67, 0
2, 251712, Note_on_c, 0, 75, 72
2, 251712, Note_on_c, 0, 59, 72
2, 251804, Note_off_c, 0, 75, 0
2, 251804, Note_off_c, 0, 59, 0
2, 251808, Note_on_c, 0, 67, 70
2, 251900, Note_off_c, 0, 67, 0
2, 251904, Note_on_c, 0, 76, 70
2, 251904, Note_on_c, 0, 60, 70
2, 252224, Note_off_c, 0, 76, 0
2, 252224, Note_off_c, 0, 60, 0
2, 255360, Note_on_c, 0, 84, 70
2, 255520, Note_off_c, 0, 84, 0
2, 255744, Note_on_c, 0, 77, 70
2, 256128, Note_on_c, 0, 65, 70
2, 256128, Note_on_c, 0, 69, 70
2, 256288, Note_off_c, 0, 65, 0
2, 256288, Note_off_c, 0, 69, 0
2, 256512, Note_on_c, 0, 67, 70
2, 256512, Note_on_c, 0, 60, 70
2, 256512, Note_on_c, 0, 70, 70
2, 256672, Note_off_c, 0, 77, 0
2, 256704, Note_on_c, 0, 79, 70
2, 256796, Note_off_c, 0, 79, 0
2, 256800, Note_on_c, 0, 77, 70
2, 256892, Note_off_c, 0, 77, 0
2, 256896, Note_on_c, 0, 76, 70
2, 257180, Note_off_c, 0, 67, 0
2, 257180, Note_off_c, 0, 70, 0
2, 257180, Note_off_c, 0, 76, 0
2, 257184, Note_on_c, 0, 77, 70
2, 257184, Note_on_c, 0, 69, 70
2, 257184, Note_on_c, 0, 65, 70
2, 257264, Note_off_c, 0, 77, 0
2, 257264, Note_off_c, 0, 69, 0
2, 257264, Note_off_c, 0, 65, 0
2, 257280, Note_on_c, 0, 79, 70
2, 257280, Note_on_c, 0, 67, 70
2, 257280, Note_on_c, 0, 64, 70
2, 257660, Note_off_c, 0, 79, 0
2, 257660, Note_off_c, 0, 67, 0
2, 257660, Note_off_c, 0, 64, 0
2, 257664, Note_on_c, 0, 72, 70
2, 257664, Note_on_c, 0, 64, 70
2, 257664, Note_on_c, 0, 70, 70
2, 257860, Note_off_c, 0, 60, 0
2, 257984, Note_off_c, 0, 72, 0
2, 257984, Note_off_c, 0, 64, 0
2, 257984, Note_off_c, 0, 70, 0
2, 258048, Note_on_c, 0, 65, 70
2, 258048, Note_on_c, 0, 69, 70
2, 258048, Note_on_c, 0, 81, 70
2, 258140, Note_off_c, 0, 81, 0
2, 258144, Note_on_c, 0, 81, 69
2, 258236, Note_off_c, 0, 81, 0
2, 258240, Note_on_c, 0, 80, 68
2, 258332, Note_off_c, 0, 80, 0
2, 258336, Note_on_c, 0, 79, 67
2, 258368, Note_off_c, 0, 65, 0
2, 258368, Note_off_c, 0, 69, 0
2, 258428, Note_off_c, 0, 79, 0
2, 258432, Note_on_c, 0, 78, 66
2, 258524, Note_off_c, 0, 78, 0
2, 258528, Note_on_c, 0, 77, 65
2, 258620, Note_off_c, 0, 77, 0
2, 258624, Note_on_c, 0, 76, 64
2, 258716, Note_off_c, 0, 76, 0
2, 258720, Note_on_c, 0, 75, 63
2, 258812, Note_off_c, 0, 75, 0
2, 258816, Note_on_c, 0, 74, 62
2, 259200, Note_on_c, 0, 65, 58
2, 259200, Note_on_c, 0, 62, 58
2, 259580, Note_off_c, 0, 65, 0
2, 259580, Note_off_c, 0, 62, 0
2, 259584, Note_on_c, 0, 67, 55
2, 259584, Note_on_c, 0, 64, 55
2, 259584, Note_on_c, 0, 57, 55
2, 259744, Note_off_c, 0, 74, 0
2, 259776, Note_on_c, 0, 73, 55
2, 259868, Note_off_c, 0, 73, 0
2, 259872, Note_on_c, 0, 74, 55
2, 259964, Note_off_c, 0, 74, 0
2, 259968, Note_on_c, 0, 76, 56
2, 260060, Note_off_c, 0, 76, 0
2, 260064, Note_on_c, 0, 74, 57
2, 260156, Note_off_c, 0, 74, 0
2, 260160, Note_on_c, 0, 73, 58
2, 260252, Note_off_c, 0, 73, 0
2, 260256, Note_on_c, 0, 71, 60
2, 260348, Note_off_c, 0, 71, 0
2, 260352, Note_on_c, 0, 73, 61
2, 260444, Note_off_c, 0, 73, 0
2, 260448, Note_on_c, 0, 74, 62
2, 260540, Note_off_c, 0, 74, 0
2, 260544, Note_on_c, 0, 76, 64
2, 260636, Note_off_c, 0, 76, 0
2, 260640, Note_on_c, 0, 77, 65
2, 260732, Note_off_c, 0, 77, 0
2, 260736, Note_on_c, 0, 79, 66
2, 260828, Note_off_c, 0, 79, 0
2, 260832, Note_on_c, 0, 81, 68
2, 260924, Note_off_c, 0, 81, 0
2, 260928, Note_on_c, 0, 83, 69
2, 261020, Note_off_c, 0, 83, 0
2, 261024, Note_on_c, 0, 85, 70
2, 261116, Note_off_c, 0, 67, 0
2, 261116, Note_off_c, 0, 64, 0
2, 261116, Note_off_c, 0, 57, 0
2, 261116, Note_off_c, 0, 85, 0
2, 261120, Note_on_c, 0, 65, 70
2, 261120, Note_on_c, 0, 62, 70
2, 261120, Note_on_c, 0, 86, 80
2, 261212, Note_off_c, 0, 86, 0
2, 261216, Note_on_c, 0, 81, 70
2, 261308, Note_off_c, 0, 81, 0
2, 261312, Note_on_c, 0, 79, 70
2, 261404, Note_off_c, 0, 79, 0
2, 261408, Note_on_c, 0, 81, 70
2, 261440, Note_off_c, 0, 65, 0
2, 261440, Note_off_c, 0, 62, 0
2, 261500, Note_off_c, 0, 81, 0
2, 261504, Note_on_c, 0, 77, 70
2, 261596, Note_off_c, 0, 77, 0
2, 261600, Note_on_c, 0, 79, 70
2, 261692, Note_off_c, 0, 79, 0
2, 261696, Note_on_c, 0, 76, 70
2, 261788, Note_off_c, 0, 76, 0
2, 261792, Note_on_c, 0, 78, 70
2, 261884, Note_off_c, 0, 78, 0
2, 261888, Note_on_c, 0, 74, 80
2, 261980, Note_off_c, 0, 74, 0
2, 261984, Note_on_c, 0, 77, 70
2, 262076, Note_off_c, 0, 77, 0
2, 262080, Note_on_c, 0, 76, 70
2, 262172, Note_off_c, 0, 76, 0
2, 262176, Note_on_c, 0, 77, 70
2, 262268, Note_off_c, 0, 77, 0
2, 262272, Note_on_c, 0, 74, 70
2, 262364, Note_off_c, 0, 74, 0
2, 262368, Note_on_c, 0, 76, 70
2, 262460, Note_off_c, 0, 76, 0
2, 262464, Note_on_c, 0, 72, 70
2, 262556, Note_off_c, 0, 72, 0
2, 262560, Note_on_c, 0, 74, 70
2, 262640, Note_off_c, 0, 74, 0
2, 262656, Note_on_c, 0, 71, 80
2, 262748, Note_off_c, 0, 71, 0
2, 262752, Note_on_c, 0, 74, 70
2, 262844, Note_off_c, 0, 74, 0
2, 262848, Note_on_c, 0, 72, 70
2, 262940, Note_off_c, 0, 72, 0
2, 262944, Note_on_c, 0, 74, 70
2, 263036, Note_off_c, 0, 74, 0
2, 263040, Note_on_c, 0, 71, 70
2, 263132, Note_off_c, 0, 71, 0
2, 263136, Note_on_c, 0, 72, 70
2, 263228, Note_off_c, 0, 72, 0
2, 263232, Note_on_c, 0, 69, 70
2, 263324, Note_off_c, 0, 69, 0
2, 263328, Note_on_c, 0, 71, 70
2, 263420, Note_off_c, 0, 71, 0
2, 263424, Note_on_c, 0, 67, 71
2, 263516, Note_off_c, 0, 67, 0
2, 263520, Note_on_c, 0, 69, 72
2, 263612, Note_off_c, 0, 69, 0
2, 263616, Note_on_c, 0, 71, 73
2, 263708, Note_off_c, 0, 71, 0
2, 263712, Note_on_c, 0, 72, 75
2, 263804, Note_off_c, 0, 72, 0
2, 263808, Note_on_c, 0, 74, 76
2, 263900, Note_off_c, 0, 74, 0
2, 263904, Note_on_c, 0, 76, 77
2, 263996, Note_off_c, 0, 76, 0
2, 264000, Note_on_c, 0, 77, 79
2, 264092, Note_off_c, 0, 77, 0
2, 264096, Note_on_c, 0, 79, 80
2, 264188, Note_off_c, 0, 79, 0
2, 264192, Note_on_c, 0, 76, 90
2, 264284, Note_off_c, 0, 76, 0
2, 264288, Note_on_c, 0, 79, 80
2, 264380, Note_off_c, 0, 79, 0
2, 264384, Note_on_c, 0, 77, 80
2, 264476, Note_off_c, 0, 77, 0
2, 264480, Note_on_c, 0, 79, 80
2, 264572, Note_off_c, 0, 79, 0
2, 264576, Note_on_c, 0, 76, 80
2, 264668, Note_off_c, 0, 76, 0
2, 264672, Note_on_c, 0, 77, 80
2, 264764, Note_off_c, 0, 77, 0
2, 264768, Note_on_c, 0, 74, 80
2, 264860, Note_off_c, 0, 74, 0
2, 264864, Note_on_c, 0, 76, 80
2, 264956, Note_off_c, 0, 76, 0
2, 264960, Note_on_c, 0, 72, 90
2, 265052, Note_off_c, 0, 72, 0
2, 265056, Note_on_c, 0, 76, 80
2, 265148, Note_off_c, 0, 76, 0
2, 265152, Note_on_c, 0, 74, 80
2, 265244, Note_off_c, 0, 74, 0
2, 265248, Note_on_c, 0, 76, 80
2, 265340, Note_off_c, 0, 76, 0
2, 265344, Note_on_c, 0, 72, 80
2, 265436, Note_off_c, 0, 72, 0
2, 265440, Note_on_c, 0, 74, 80
2, 265532, Note_off_c, 0, 74, 0
2, 265536, Note_on_c, 0, 71, 80
2, 265628, Note_off_c, 0, 71, 0
2, 265632, Note_on_c, 0, 72, 80
2, 265712, Note_off_c, 0, 72, 0
2, 265728, Note_on_c, 0, 69, 90
2, 265820, Note_off_c, 0, 69, 0
2, 265824, Note_on_c, 0, 72, 80
2, 265916, Note_off_c, 0, 72, 0
2, 265920, Note_on_c, 0, 71, 80
2, 266012, Note_off_c, 0, 71, 0
2, 266016, Note_on_c, 0, 72, 80
2, 266108, Note_off_c, 0, 72, 0
2, 266112, Note_on_c, 0, 69, 80
2, 266204, Note_off_c, 0, 69, 0
2, 266208, Note_on_c, 0, 71, 80
2, 266300, Note_off_c, 0, 71, 0
2, 266304, Note_on_c, 0, 67, 80
2, 266396, Note_off_c, 0, 67, 0
2, 266400, Note_on_c, 0, 69, 80
2, 266492, Note_off_c, 0, 69, 0
2, 266496, Note_on_c, 0, 65, 90
2, 266588, Note_off_c, 0, 65, 0
2, 266592, Note_on_c, 0, 67, 80
2, 266684, Note_off_c, 0, 67, 0
2, 266688, Note_on_c, 0, 69, 80
2, 266780, Note_off_c, 0, 69, 0
2, 266784, Note_on_c, 0, 71, 80
2, 266876, Note_off_c, 0, 71, 0
2, 266880, Note_on_c, 0, 72, 80
2, 266972, Note_off_c, 0, 72, 0
2, 266976, Note_on_c, 0, 74, 80
2, 267068, Note_off_c, 0, 74, 0
2, 267072, Note_on_c, 0, 76, 80
2, 267164, Note_off_c, 0, 76, 0
2, 267168, Note_on_c, 0, 77, 80
2, 267260, Note_off_c, 0, 77, 0
2, 267264, Note_on_c, 0, 74, 90
2, 267356, Note_off_c, 0, 74, 0
2, 267360, Note_on_c, 0, 77, 80
2, 267452, Note_off_c, 0, 77, 0
2, 267456, Note_on_c, 0, 76, 80
2, 267548, Note_off_c, 0, 76, 0
2, 267552, Note_on_c, 0, 77, 80
2, 267644, Note_off_c, 0, 77, 0
2, 267648, Note_on_c, 0, 74, 80
2, 267740, Note_off_c, 0, 74, 0
2, 267744, Note_on_c, 0, 76, 80
2, 267836, Note_off_c, 0, 76, 0
2, 267840, Note_on_c, 0, 72, 80
2, 267932, Note_off_c, 0, 72, 0
2, 267936, Note_on_c, 0, 74, 80
2, 268028, Note_off_c, 0, 74, 0
2, 268032, Note_on_c, 0, 71, 90
2, 268124, Note_off_c, 0, 71, 0
2, 268128, Note_on_c, 0, 74, 80
2, 268220, Note_off_c, 0, 74, 0
2, 268224, Note_on_c, 0, 72, 80
2, 268316, Note_off_c, 0, 72, 0
2, 268320, Note_on_c, 0, 74, 80
2, 268412, Note_off_c, 0, 74, 0
2, 268416, Note_on_c, 0, 71, 80
2, 268508, Note_off_c, 0, 71, 0
2, 268512, Note_on_c, 0, 72, 80
2, 268604, Note_off_c, 0, 72, 0
2, 268608, Note_on_c, 0, 69, 80
2, 268700, Note_off_c, 0, 69, 0
2, 268704, Note_on_c, 0, 71, 80
2, 268784, Note_off_c, 0, 71, 0
2, 268800, Note_on_c, 0, 68, 90
2, 268892, Note_off_c, 0, 68, 0
2, 268896, Note_on_c, 0, 71, 80
2, 268988, Note_off_c, 0, 71, 0
2, 268992, Note_on_c, 0, 69, 80
2, 269084, Note_off_c, 0, 69, 0
2, 269088, Note_on_c, 0, 71, 80
2, 269180, Note_off_c, 0, 71, 0
2, 269184, Note_on_c, 0, 68, 80
2, 269276, Note_off_c, 0, 68, 0
2, 269280, Note_on_c, 0, 69, 80
2, 269372, Note_off_c, 0, 69, 0
2, 269376, Note_on_c, 0, 66, 80
2, 269468, Note_off_c, 0, 66, 0
2, 269472, Note_on_c, 0, 68, 80
2, 269564, Note_off_c, 0, 68, 0
2, 269568, Note_on_c, 0, 64, 90
2, 269660, Note_off_c, 0, 64, 0
2, 269664, Note_on_c, 0, 66, 80
2, 269756, Note_off_c, 0, 66, 0
2, 269760, Note_on_c, 0, 68, 80
2, 269852, Note_off_c, 0, 68, 0
2, 269856, Note_on_c, 0, 69, 80
2, 269948, Note_off_c, 0, 69, 0
2, 269952, Note_on_c, 0, 71, 80
2, 270044, Note_off_c, 0, 71, 0
2, 270048, Note_on_c, 0, 73, 80
2, 270140, Note_off_c, 0, 73, 0
2, 270144, Note_on_c, 0, 74, 80
2, 270236, Note_off_c, 0, 74, 0
2, 270240, Note_on_c, 0, 76, 80
2, 270332, Note_off_c, 0, 76, 0
2, 270336, Note_on_c, 0, 72, 90
2, 270428, Note_off_c, 0, 72, 0
2, 270432, Note_on_c, 0, 76, 80
2, 270524, Note_off_c, 0, 76, 0
2, 270528, Note_on_c, 0, 74, 80
2, 270620, Note_off_c, 0, 74, 0
2, 270624, Note_on_c, 0, 76, 80
2, 270716, Note_off_c, 0, 76, 0
2, 270720, Note_on_c, 0, 72, 80
2, 270812, Note_off_c, 0, 72, 0
2, 270816, Note_on_c, 0, 74, 80
2, 270908, Note_off_c, 0, 74, 0
2, 270912, Note_on_c, 0, 71, 80
2, 271004, Note_off_c, 0, 71, 0
2, 271008, Note_on_c, 0, 72, 80
2, 271100, Note_off_c, 0, 72, 0
2, 271104, Note_on_c, 0, 69, 90
2, 271196, Note_off_c, 0, 69, 0
2, 271200, Note_on_c, 0, 71, 80
2, 271292, Note_off_c, 0, 71, 0
2, 271296, Note_on_c, 0, 72, 80
2, 271388, Note_off_c, 0, 72, 0
2, 271392, Note_on_c, 0, 74, 80
2, 271484, Note_off_c, 0, 74, 0
2, 271488, Note_on_c, 0, 76, 80
2, 271580, Note_off_c, 0, 76, 0
2, 271584, Note_on_c, 0, 78, 80
2, 271676, Note_off_c, 0, 78, 0
2, 271680, Note_on_c, 0, 80, 80
2, 271772, Note_off_c, 0, 80, 0
2, 271776, Note_on_c, 0, 76, 80
2, 271868, Note_off_c, 0, 76, 0
2, 271872, Note_on_c, 0, 81, 80
2, 271964, Note_off_c, 0, 81, 0
2, 271968, Note_on_c, 0, 76, 80
2, 272060, Note_off_c, 0, 76, 0
2, 272064, Note_on_c, 0, 72, 80
2, 272156, Note_off_c, 0, 72, 0
2, 272160, Note_on_c, 0, 69, 80
2, 272252, Note_off_c, 0, 69, 0
2, 272256, Note_on_c, 0, 81, 81
2, 272348, Note_off_c, 0, 81, 0
2, 272352, Note_on_c, 0, 69, 82
2, 272444, Note_off_c, 0, 69, 0
2, 272448, Note_on_c, 0, 81, 83
2, 272540, Note_off_c, 0, 81, 0
2, 272544, Note_on_c, 0, 69, 84
2, 272636, Note_off_c, 0, 69, 0
2, 272640, Note_on_c, 0, 81, 85
2, 272732, Note_off_c, 0, 81, 0
2, 272736, Note_on_c, 0, 69, 86
2, 272828, Note_off_c, 0, 69, 0
2, 272832, Note_on_c, 0, 81, 88
2, 272924, Note_off_c, 0, 81, 0
2, 272928, Note_on_c, 0, 69, 89
2, 273020, Note_off_c, 0, 69, 0
2, 273024, Note_on_c, 0, 81, 90
2, 273116, Note_off_c, 0, 81, 0
2, 273120, Note_on_c, 0, 69, 91
2, 273212, Note_off_c, 0, 69, 0
2, 273216, Note_on_c, 0, 81, 92
2, 273308, Note_off_c, 0, 81, 0
2, 273312, Note_on_c, 0, 69, 93
2, 273392, Note_off_c, 0, 69, 0
2, 273408, Note_on_c, 0, 80, 95
2, 273408, Note_on_c, 0, 76, 95
2, 273408, Note_on_c, 0, 71, 95
2, 273788, Note_off_c, 0, 80, 0
2, 273788, Note_off_c, 0, 76, 0
2, 273788, Note_off_c, 0, 71, 0
2, 276576, Note_on_c, 0, 69, 70
2, 276668, Note_off_c, 0, 69, 0
2, 276672, Note_on_c, 0, 68, 70
2, 276764, Note_off_c, 0, 68, 0
2, 276768, Note_on_c, 0, 69, 70
2, 276860, Note_off_c, 0, 69, 0
2, 276864, Note_on_c, 0, 68, 70
2, 276956, Note_off_c, 0, 68, 0
2, 276960, Note_on_c, 0, 69, 70
2, 277052, Note_off_c, 0, 69, 0
2, 277056, Note_on_c, 0, 71, 80
2, 277148, Note_off_c, 0, 71, 0
2, 277152, Note_on_c, 0, 69, 70
2, 277232, Note_on_c, 0, 72, 80
2, 277244, Note_off_c, 0, 69, 0
2, 277324, Note_off_c, 0, 72, 0
2, 277344, Note_on_c, 0, 69, 70
2, 277436, Note_off_c, 0, 69, 0
2, 277440, Note_on_c, 0, 74, 80
2, 277532, Note_off_c, 0, 74, 0
2, 277536, Note_on_c, 0, 69, 70
2, 277628, Note_off_c, 0, 69, 0
2, 277632, Note_on_c, 0, 75, 80
2, 277724, Note_off_c, 0, 75, 0
2, 277744, Note_on_c, 0, 69, 70
2, 277824, Note_on_c, 0, 76, 80
2, 277836, Note_off_c, 0, 69, 0
2, 277916, Note_off_c, 0, 76, 0
2, 277920, Note_on_c, 0, 69, 70
2, 278012, Note_off_c, 0, 69, 0
2, 278016, Note_on_c, 0, 77, 80
2, 278108, Note_off_c, 0, 77, 0
2, 278112, Note_on_c, 0, 69, 70
2, 278204, Note_off_c, 0, 69, 0
2, 278208, Note_on_c, 0, 78, 80
2, 278300, Note_off_c, 0, 78, 0
2, 278304, Note_on_c, 0, 69, 70
2, 278396, Note_off_c, 0, 69, 0
2, 278400, Note_on_c, 0, 79, 80
2, 278492, Note_off_c, 0, 79, 0
2, 278512, Note_on_c, 0, 69, 70
2, 278592, Note_on_c, 0, 80, 80
2, 278604, Note_off_c, 0, 69, 0
2, 278684, Note_off_c, 0, 80, 0
2, 278688, Note_on_c, 0, 69, 70
2, 278780, Note_off_c, 0, 69, 0
2, 278784, Note_on_c, 0, 81, 80
2, 278876, Note_off_c, 0, 81, 0
2, 278928, Note_on_c, 0, 81, 75
2, 278968, Note_off_c, 0, 81, 0
2, 278976, Note_on_c, 0, 83, 75
2, 279016, Note_off_c, 0, 83, 0
2, 279024, Note_on_c, 0, 81, 75
2, 279064, Note_off_c, 0, 81, 0
2, 279072, Note_on_c, 0, 80, 75
2, 279112, Note_off_c, 0, 80, 0
2, 279120, Note_on_c, 0, 81, 75
2, 279160, Note_off_c, 0, 81, 0
2, 279168, Note_on_c, 0, 84, 72
2, 279248, Note_off_c, 0, 84, 0
2, 279360, Note_on_c, 0, 81, 72
2, 279440, Note_off_c, 0, 81, 0
2, 279552, Note_on_c, 0, 88, 85
2, 279872, Note_off_c, 0, 88, 0
2, 282720, Note_on_c, 0, 69, 70
2, 282812, Note_off_c, 0, 69, 0
2, 282816, Note_on_c, 0, 68, 70
2, 282908, Note_off_c, 0, 68, 0
2, 282912, Note_on_c, 0, 69, 70
2, 283004, Note_off_c, 0, 69, 0
2, 283008, Note_on_c, 0, 68, 70
2, 283100, Note_off_c, 0, 68, 0
2, 283104, Note_on_c, 0, 69, 70
2, 283196, Note_off_c, 0, 69, 0
2, 283200, Note_on_c, 0, 71, 80
2, 283292, Note_off_c, 0, 71, 0
2, 283296, Note_on_c, 0, 69, 70
2, 283388, Note_off_c, 0, 69, 0
2, 283392, Note_on_c, 0, 72, 80
2, 283484, Note_off_c, 0, 72, 0
2, 283488, Note_on_c, 0, 69, 70
2, 283580, Note_off_c, 0, 69, 0
2, 283584, Note_on_c, 0, 74, 80
2, 283676, Note_off_c, 0, 74, 0
2, 283680, Note_on_c, 0, 69, 70
2, 283772, Note_off_c, 0, 69, 0
2, 283776, Note_on_c, 0, 75, 80
2, 283868, Note_off_c, 0, 75, 0
2, 283872, Note_on_c, 0, 69, 70
2, 283964, Note_off_c, 0, 69, 0
2, 283968, Note_on_c, 0, 76, 80
2, 284060, Note_off_c, 0, 76, 0
2, 284064, Note_on_c, 0, 69, 70
2, 284156, Note_off_c, 0, 69, 0
2, 284160, Note_on_c, 0, 77, 80
2, 284252, Note_off_c, 0, 77, 0
2, 284256, Note_on_c, 0, 69, 70
2, 284348, Note_off_c, 0, 69, 0
2, 284352, Note_on_c, 0, 78, 80
2, 284444, Note_off_c, 0, 78, 0
2, 284448, Note_on_c, 0, 69, 70
2, 284540, Note_off_c, 0, 69, 0
2, 284544, Note_on_c, 0, 79, 80
2, 284636, Note_off_c, 0, 79, 0
2, 284640, Note_on_c, 0, 69, 70
2, 284732, Note_off_c, 0, 69, 0
2, 284736, Note_on_c, 0, 80, 80
2, 284828, Note_off_c, 0, 80, 0
2, 284832, Note_on_c, 0, 69, 70
2, 284924, Note_off_c, 0, 69, 0
2, 284928, Note_on_c, 0, 81, 80
2, 285020, Note_off_c, 0, 81, 0
2, 285072, Note_on_c, 0, 81, 75
2, 285112, Note_off_c, 0, 81, 0
2, 285120, Note_on_c, 0, 83, 75
2, 285160, Note_off_c, 0, 83, 0
2, 285168, Note_on_c, 0, 81, 75
2, 285208, Note_off_c, 0, 81, 0
2, 285216, Note_on_c, 0, 80, 75
2, 285256, Note_off_c, 0, 80, 0
2, 285264, Note_on_c, 0, 81, 75
2, 285304, Note_off_c, 0, 81, 0
2, 285312, Note_on_c, 0, 84, 72
2, 285392, Note_off_c, 0, 84, 0
2, 285504, Note_on_c, 0, 81, 72
2, 285584, Note_off_c, 0, 81, 0
2, 285696, Note_on_c, 0, 88, 90
2, 285888, Note_on_c, 0, 71, 70
2, 285888, Note_on_c, 0, 68, 70
2, 285888, Note_on_c, 0, 64, 70
2, 286016, Note_off_c, 0, 88, 0
2, 286048, Note_off_c, 0, 71, 0
2, 286048, Note_off_c, 0, 68, 0
2, 286048, Note_off_c, 0, 64, 0
2, 286080, Note_on_c, 0, 64, 70
2, 286080, Note_on_c, 0, 68, 70
2, 286080, Note_on_c, 0, 71, 70
2, 286272, Note_on_c, 0, 76, 70
2, 286400, Note_off_c, 0, 64, 0
2, 286400, Note_off_c, 0, 68, 0
2, 286400, Note_off_c, 0, 71, 0
2, 286448, Note_on_c, 0, 77, 70
2, 286460, Note_off_c, 0, 76, 0
2, 286656, Note_on_c, 0, 69, 70
2, 286656, Note_on_c, 0, 64, 70
2, 286656, Note_on_c, 0, 72, 70
2, 286768, Note_off_c, 0, 77, 0
2, 286816, Note_off_c, 0, 69, 0
2, 286816, Note_off_c, 0, 64, 0
2, 286816, Note_off_c, 0, 72, 0
2, 286848, Note_on_c, 0, 64, 70
2, 286848, Note_on_c, 0, 72, 70
2, 286848, Note_on_c, 0, 69, 70
2, 287040, Note_on_c, 0, 87, 70
2, 287168, Note_off_c, 0, 64, 0
2, 287168, Note_off_c, 0, 72, 0
2, 287168, Note_off_c, 0, 69, 64
2, 287228, Note_off_c, 0, 87, 0
2, 287232, Note_on_c, 0, 88, 70
2, 287424, Note_on_c, 0, 71, 70
2, 287424, Note_on_c, 0, 68, 70
2, 287424, Note_on_c, 0, 64, 70
2, 287552, Note_off_c, 0, 88, 0
2, 287584, Note_off_c, 0, 71, 0
2, 287584, Note_off_c, 0, 68, 0
2, 287584, Note_off_c, 0, 64, 0
2, 287616, Note_on_c, 0, 71, 70
2, 287616, Note_on_c, 0, 68, 70
2, 287616, Note_on_c, 0, 64, 70
2, 287712, Note_on_c, 0, 76, 70
2, 287804, Note_off_c, 0, 76, 0
2, 287808, Note_on_c, 0, 78, 70
2, 287900, Note_off_c, 0, 78, 0
2, 287904, Note_on_c, 0, 76, 70
2, 287936, Note_off_c, 0, 71, 0
2, 287936, Note_off_c, 0, 68, 0
2, 287936, Note_off_c, 0, 64, 0
2, 287996, Note_off_c, 0, 76, 0
2, 288000, Note_on_c, 0, 77, 70
2, 288192, Note_on_c, 0, 69, 70
2, 288192, Note_on_c, 0, 64, 70
2, 288192, Note_on_c, 0, 72, 70
2, 288320, Note_off_c, 0, 77, 0
2, 288352, Note_off_c, 0, 69, 0
2, 288352, Note_off_c, 0, 64, 0
2, 288352, Note_off_c, 0, 72, 0
2, 288384, Note_on_c, 0, 72, 70
2, 288384, Note_on_c, 0, 69, 70
2, 288384, Note_on_c, 0, 64, 70
2, 288480, Note_on_c, 0, 87, 70
2, 288572, Note_off_c, 0, 87, 0
2, 288576, Note_on_c, 0, 88, 70
2, 288668, Note_off_c, 0, 88, 0
2, 288672, Note_on_c, 0, 87, 70
2, 288704, Note_off_c, 0, 72, 0
2, 288704, Note_off_c, 0, 69, 0
2, 288704, Note_off_c, 0, 64, 0
2, 288764, Note_off_c, 0, 87, 0
2, 288768, Note_on_c, 0, 88, 70
2, 288768, Note_on_c, 0, 64, 70
2, 288768, Note_on_c, 0, 68, 70
2, 288768, Note_on_c, 0, 71, 70
2, 288860, Note_off_c, 0, 88, 0
2, 288864, Note_on_c, 0, 76, 70
2, 288956, Note_off_c, 0, 76, 0
2, 288960, Note_on_c, 0, 88, 70
2, 289052, Note_off_c, 0, 88, 0
2, 289056, Note_on_c, 0, 76, 70
2, 289148, Note_off_c, 0, 68, 0
2, 289148, Note_off_c, 0, 71, 0
2, 289148, Note_off_c, 0, 76, 0
2, 289152, Note_on_c, 0, 78, 70
2, 289152, Note_on_c, 0, 69, 70
2, 289152, Note_on_c, 0, 72, 70
2, 289244, Note_off_c, 0, 78, 0
2, 289248, Note_on_c, 0, 87, 70
2, 289340, Note_off_c, 0, 87, 0
2, 289344, Note_on_c, 0, 77, 70
2, 289436, Note_off_c, 0, 77, 0
2, 289440, Note_on_c, 0, 87, 70
2, 289532, Note_off_c, 0, 64, 0
2, 289532, Note_off_c, 0, 69, 0
2, 289532, Note_off_c, 0, 72, 0
2, 289532, Note_off_c, 0, 87, 0
2, 289536, Note_on_c, 0, 88, 70
2, 289536, Note_on_c, 0, 64, 70
2, 289536, Note_on_c, 0, 68, 70
2, 289536, Note_on_c, 0, 71, 70
2, 289628, Note_off_c, 0, 88, 0
2, 289632, Note_on_c, 0, 76, 70
2, 289724, Note_off_c, 0, 76, 0
2, 289728, Note_on_c, 0, 88, 70
2, 289820, Note_off_c, 0, 88, 0
2, 289824, Note_on_c, 0, 76, 70
2, 289916, Note_off_c, 0, 68, 0
2, 289916, Note_off_c, 0, 71, 0
2, 289916, Note_off_c, 0, 76, 0
2, 289920, Note_on_c, 0, 77, 70
2, 289920, Note_on_c, 0, 69, 70
2, 289920, Note_on_c, 0, 72, 70
2, 290012, Note_off_c, 0, 77, 0
2, 290016, Note_on_c, 0, 87, 75
2, 290108, Note_off_c, 0, 87, 0
2, 290112, Note_on_c, 0, 77, 70
2, 290180, Note_off_c, 0, 64, 0
2, 290204, Note_off_c, 0, 77, 0
2, 290208, Note_on_c, 0, 87, 75
2, 290240, Note_off_c, 0, 69, 0
2, 290240, Note_off_c, 0, 72, 0
2, 290300, Note_off_c, 0, 87, 0
2, 290304, Note_on_c, 0, 88, 80
2, 290304, Note_on_c, 0, 64, 70
2, 290304, Note_on_c, 0, 68, 70
2, 290304, Note_on_c, 0, 71, 70
2, 290624, Note_off_c, 0, 88, 0
2, 290624, Note_off_c, 0, 64, 0
2, 290624, Note_off_c, 0, 68, 0
2, 290624, Note_off_c, 0, 71, 0
2, 290784, Note_on_c, 0, 81, 70
2, 290824, Note_off_c, 0, 81, 0
2, 290880, Note_on_c, 0, 83, 70
2, 290920, Note_off_c, 0, 83, 0
2, 290928, Note_on_c, 0, 81, 70
2, 290968, Note_off_c, 0, 81, 0
2, 290976, Note_on_c, 0, 80, 70
2, 291016, Note_off_c, 0, 80, 0
2, 291024, Note_on_c, 0, 81, 70
2, 291064, Note_off_c, 0, 81, 0
2, 291072, Note_on_c, 0, 88, 75
2, 291600, Note_on_c, 0, 80, 70
2, 291616, Note_off_c, 0, 88, 0
2, 291640, Note_off_c, 0, 80, 0
2, 291648, Note_on_c, 0, 81, 70
2, 291688, Note_off_c, 0, 81, 0
2, 291696, Note_on_c, 0, 80, 70
2, 291736, Note_off_c, 0, 80, 0
2, 291744, Note_on_c, 0, 78, 70
2, 291784, Note_off_c, 0, 78, 0
2, 291792, Note_on_c, 0, 80, 70
2, 291832, Note_off_c, 0, 80, 0
2, 291840, Note_on_c, 0, 83, 75
2, 292368, Note_on_c, 0, 76, 70
2, 292384, Note_off_c, 0, 83, 0
2, 292408, Note_off_c, 0, 76, 0
2, 292416, Note_on_c, 0, 78, 70
2, 292456, Note_off_c, 0, 78, 0
2, 292464, Note_on_c, 0, 76, 70
2, 292504, Note_off_c, 0, 76, 0
2, 292512, Note_on_c, 0, 74, 70
2, 292552, Note_off_c, 0, 74, 0
2, 292560, Note_on_c, 0, 76, 70
2, 292600, Note_off_c, 0, 76, 0
2, 292608, Note_on_c, 0, 80, 75
2, 292688, Note_off_c, 0, 80, 0
2, 292800, Note_on_c, 0, 71, 70
2, 292988, Note_off_c, 0, 71, 0
2, 292992, Note_on_c, 0, 76, 73
2, 293072, Note_off_c, 0, 76, 0
2, 293184, Note_on_c, 0, 68, 70
2, 293372, Note_off_c, 0, 68, 0
2, 293376, Note_on_c, 0, 71, 70
2, 293456, Note_off_c, 0, 71, 0
2, 293568, Note_on_c, 0, 64, 70
2, 293756, Note_off_c, 0, 64, 0
2, 293760, Note_on_c, 0, 68, 70
2, 293840, Note_off_c, 0, 68, 0
2, 293952, Note_on_c, 0, 59, 70
2, 294140, Note_off_c, 0, 59, 0
2, 294144, Note_on_c, 0, 64, 70
2, 294224, Note_off_c, 0, 64, 0
2, 294336, Note_on_c, 0, 56, 70
2, 294524, Note_off_c, 0, 56, 0
2, 294528, Note_on_c, 0, 59, 70
2, 294608, Note_off_c, 0, 59, 0
2, 294720, Note_on_c, 0, 52, 70
2, 294908, Note_off_c, 0, 52, 0
2, 294912, Note_on_c, 0, 51, 90
2, 295036, Note_off_c, 0, 51, 0
2, 295040, Note_on_c, 0, 57, 90
2, 295164, Note_off_c, 0, 57, 0
2, 295168, Note_on_c, 0, 54, 90
2, 295292, Note_off_c, 0, 54, 0
2, 295296, Note_on_c, 0, 63, 91
2, 295420, Note_off_c, 0, 63, 0
2, 295424, Note_on_c, 0, 57, 91
2, 295548, Note_off_c, 0, 57, 0
2, 295552, Note_on_c, 0, 66, 92
2, 295676, Note_off_c, 0, 66, 0
2, 295680, Note_on_c, 0, 63, 92
2, 295804, Note_off_c, 0, 63, 0
2, 295808, Note_on_c, 0, 69, 92
2, 295932, Note_off_c, 0, 69, 0
2, 295936, Note_on_c, 0, 66, 93
2, 296060, Note_off_c, 0, 66, 0
2, 296064, Note_on_c, 0, 75, 93
2, 296188, Note_off_c, 0, 75, 0
2, 296192, Note_on_c, 0, 69, 94
2, 296316, Note_off_c, 0, 69, 0
2, 296320, Note_on_c, 0, 78, 94
2, 296444, Note_off_c, 0, 78, 0
2, 296448, Note_on_c, 0, 75, 95
2, 296572, Note_off_c, 0, 75, 0
2, 296576, Note_on_c, 0, 81, 95
2, 296700, Note_off_c, 0, 81, 0
2, 296704, Note_on_c, 0, 78, 95
2, 296828, Note_off_c, 0, 78, 0
2, 296832, Note_on_c, 0, 85, 95
2, 296912, Note_off_c, 0, 85, 0
2, 296916, Note_on_c, 0, 83, 95
2, 296996, Note_off_c, 0, 83, 0
2, 297000, Note_on_c, 0, 81, 95
2, 297080, Note_off_c, 0, 81, 0
2, 297080, Note_on_c, 0, 80, 95
2, 297160, Note_off_c, 0, 80, 0
2, 297164, Note_on_c, 0, 78, 95
2, 297244, Note_off_c, 0, 78, 0
2, 297248, Note_on_c, 0, 76, 95
2, 297328, Note_off_c, 0, 76, 0
2, 297332, Note_on_c, 0, 75, 95
2, 297412, Note_off_c, 0, 75, 0
2, 297416, Note_on_c, 0, 73, 95
2, 297496, Note_off_c, 0, 73, 0
2, 297500, Note_on_c, 0, 71, 95
2, 297580, Note_off_c, 0, 71, 0
2, 297580, Note_on_c, 0, 69, 95
2, 297660, Note_off_c, 0, 69, 0
2, 297660, Note_on_c, 0, 68, 95
2, 297740, Note_off_c, 0, 68, 0
2, 297740, Note_on_c, 0, 66, 95
2, 297820, Note_off_c, 0, 66, 0
2, 297820, Note_on_c, 0, 64, 95
2, 297900, Note_off_c, 0, 64, 0
2, 297900, Note_on_c, 0, 63, 95
2, 297980, Note_off_c, 0, 63, 0
2, 297984, Note_on_c, 0, 62, 95
2, 298364, Note_off_c, 0, 62, 0
2, 298368, Note_on_c, 0, 62, 95
2, 298460, Note_off_c, 0, 62, 0
2, 298464, Note_on_c, 0, 59, 95
2, 298556, Note_off_c, 0, 59, 0
2, 298560, Note_on_c, 0, 68, 95
2, 298652, Note_off_c, 0, 68, 0
2, 298656, Note_on_c, 0, 66, 95
2, 298748, Note_off_c, 0, 66, 0
2, 298752, Note_on_c, 0, 68, 95
2, 298844, Note_off_c, 0, 68, 0
2, 298848, Note_on_c, 0, 64, 95
2, 298940, Note_off_c, 0, 64, 0
2, 298944, Note_on_c, 0, 71, 95
2, 299036, Note_off_c, 0, 71, 0
2, 299040, Note_on_c, 0, 69, 95
2, 299132, Note_off_c, 0, 69, 0
2, 299136, Note_on_c, 0, 71, 95
2, 299228, Note_off_c, 0, 71, 0
2, 299232, Note_on_c, 0, 68, 95
2, 299324, Note_off_c, 0, 68, 0
2, 299328, Note_on_c, 0, 74, 95
2, 299420, Note_off_c, 0, 74, 0
2, 299424, Note_on_c, 0, 73, 95
2, 299516, Note_off_c, 0, 73, 0
2, 299520, Note_on_c, 0, 74, 96
2, 299612, Note_off_c, 0, 74, 0
2, 299616, Note_on_c, 0, 71, 96
2, 299708, Note_off_c, 0, 71, 0
2, 299712, Note_on_c, 0, 80, 97
2, 299804, Note_off_c, 0, 80, 0
2, 299808, Note_on_c, 0, 78, 97
2, 299900, Note_off_c, 0, 78, 0
2, 299904, Note_on_c, 0, 80, 98
2, 299996, Note_off_c, 0, 80, 0
2, 300000, Note_on_c, 0, 76, 98
2, 300092, Note_off_c, 0, 76, 0
2, 300096, Note_on_c, 0, 83, 99
2, 300188, Note_off_c, 0, 83, 0
2, 300192, Note_on_c, 0, 81, 99
2, 300284, Note_off_c, 0, 81, 0
2, 300288, Note_on_c, 0, 83, 100
2, 300380, Note_off_c, 0, 83, 0
2, 300384, Note_on_c, 0, 80, 101
2, 300476, Note_off_c, 0, 80, 0
2, 300480, Note_on_c, 0, 86, 101
2, 300572, Note_off_c, 0, 86, 0
2, 300576, Note_on_c, 0, 85, 102
2, 300668, Note_off_c, 0, 85, 0
2, 300672, Note_on_c, 0, 86, 102
2, 300764, Note_off_c, 0, 86, 0
2, 300768, Note_on_c, 0, 85, 103
2, 300860, Note_off_c, 0, 85, 0
2, 300864, Note_on_c, 0, 86, 103
2, 300956, Note_off_c, 0, 86, 0
2, 300960, Note_on_c, 0, 85, 104
2, 301052, Note_off_c, 0, 85, 0
2, 301056, Note_on_c, 0, 86, 105
2, 301148, Note_off_c, 0, 86, 0
2, 301152, Note_on_c, 0, 88, 104
2, 301244, Note_off_c, 0, 88, 0
2, 301248, Note_on_c, 0, 86, 103
2, 301340, Note_off_c, 0, 86, 0
2, 301344, Note_on_c, 0, 85, 102
2, 301436, Note_off_c, 0, 85, 0
2, 301440, Note_on_c, 0, 83, 101
2, 301532, Note_off_c, 0, 83, 0
2, 301536, Note_on_c, 0, 81, 100
2, 301628, Note_off_c, 0, 81, 0
2, 301632, Note_on_c, 0, 80, 99
2, 301724, Note_off_c, 0, 80, 0
2, 301728, Note_on_c, 0, 78, 98
2, 301820, Note_off_c, 0, 78, 0
2, 301824, Note_on_c, 0, 76, 97
2, 301916, Note_off_c, 0, 76, 0
2, 301920, Note_on_c, 0, 74, 96
2, 302012, Note_off_c, 0, 74, 0
2, 302016, Note_on_c, 0, 73, 95
2, 302108, Note_off_c, 0, 73, 0
2, 302112, Note_on_c, 0, 71, 93
2, 302204, Note_off_c, 0, 71, 0
2, 302208, Note_on_c, 0, 69, 92
2, 302300, Note_off_c, 0, 69, 0
2, 302304, Note_on_c, 0, 68, 91
2, 302396, Note_off_c, 0, 68, 0
2, 302400, Note_on_c, 0, 66, 90
2, 302492, Note_off_c, 0, 66, 0
2, 302496, Note_on_c, 0, 64, 89
2, 302588, Note_off_c, 0, 64, 0
2, 302592, Note_on_c, 0, 62, 88
2, 302684, Note_off_c, 0, 62, 0
2, 302688, Note_on_c, 0, 64, 87
2, 302780, Note_off_c, 0, 64, 0
2, 302784, Note_on_c, 0, 62, 86
2, 302876, Note_off_c, 0, 62, 0
2, 302880, Note_on_c, 0, 61, 85
2, 302972, Note_off_c, 0, 61, 0
2, 302976, Note_on_c, 0, 62, 84
2, 303056, Note_off_c, 0, 62, 0
2, 303056, Note_on_c, 0, 63, 83
2, 303136, Note_off_c, 0, 63, 0
2, 303136, Note_on_c, 0, 64, 82
2, 303216, Note_off_c, 0, 64, 0
2, 303216, Note_on_c, 0, 65, 81
2, 303296, Note_off_c, 0, 65, 0
2, 303296, Note_on_c, 0, 66, 80
2, 303376, Note_off_c, 0, 66, 0
2, 303380, Note_on_c, 0, 67, 79
2, 303460, Note_off_c, 0, 67, 0
2, 303460, Note_on_c, 0, 68, 78
2, 303540, Note_off_c, 0, 68, 0
2, 303540, Note_on_c, 0, 69, 77
2, 303620, Note_off_c, 0, 69, 0
2, 303620, Note_on_c, 0, 70, 76
2, 303700, Note_off_c, 0, 70, 0
2, 303700, Note_on_c, 0, 71, 75
2, 303780, Note_off_c, 0, 71, 0
2, 303784, Note_on_c, 0, 72, 74
2, 303864, Note_off_c, 0, 72, 0
2, 303868, Note_on_c, 0, 73, 73
2, 303948, Note_off_c, 0, 73, 0
2, 303952, Note_on_c, 0, 74, 72
2, 304032, Note_off_c, 0, 74, 0
2, 304036, Note_on_c, 0, 75, 72
2, 304116, Note_off_c, 0, 75, 0
2, 304128, Note_on_c, 0, 76, 70
2, 304508, Note_off_c, 0, 76, 0
2, 316416, Note_on_c, 0, 76, 75
2, 316416, Note_on_c, 0, 57, 70
2, 316476, Note_off_c, 0, 76, 0
2, 316480, Note_on_c, 0, 88, 80
2, 316604, Note_off_c, 0, 57, 0
2, 316608, Note_on_c, 0, 64, 70
2, 316796, Note_off_c, 0, 64, 0
2, 316800, Note_on_c, 0, 61, 70
2, 316988, Note_off_c, 0, 61, 0
2, 316992, Note_on_c, 0, 64, 70
2, 317064, Note_off_c, 0, 88, 0
2, 317152, Note_off_c, 0, 64, 0
2, 317184, Note_on_c, 0, 73, 75
2, 317184, Note_on_c, 0, 57, 70
2, 317244, Note_off_c, 0, 73, 0
2, 317248, Note_on_c, 0, 85, 80
2, 317372, Note_off_c, 0, 57, 0
2, 317376, Note_on_c, 0, 67, 70
2, 317564, Note_off_c, 0, 67, 0
2, 317568, Note_on_c, 0, 64, 70
2, 317756, Note_off_c, 0, 64, 0
2, 317760, Note_on_c, 0, 67, 70
2, 317832, Note_off_c, 0, 85, 64
2, 317920, Note_off_c, 0, 67, 0
2, 317952, Note_on_c, 0, 74, 70
2, 317952, Note_on_c, 0, 57, 70
2, 318140, Note_off_c, 0, 57, 0
2, 318144, Note_on_c, 0, 69, 70
2, 318332, Note_off_c, 0, 69, 0
2, 318336, Note_on_c, 0, 66, 70
2, 318428, Note_off_c, 0, 74, 0
2, 318432, Note_on_c, 0, 78, 70
2, 318524, Note_off_c, 0, 66, 0
2, 318524, Note_off_c, 0, 78, 0
2, 318528, Note_on_c, 0, 81, 70
2, 318528, Note_on_c, 0, 69, 70
2, 318620, Note_off_c, 0, 81, 0
2, 318624, Note_on_c, 0, 86, 75
2, 318688, Note_off_c, 0, 69, 0
2, 318704, Note_off_c, 0, 86, 0
2, 318720, Note_on_c, 0, 71, 70
2, 318720, Note_on_c, 0, 62, 70
2, 318812, Note_off_c, 0, 71, 0
2, 318816, Note_on_c, 0, 74, 70
2, 318908, Note_off_c, 0, 62, 0
2, 318908, Note_off_c, 0, 74, 0
2, 318912, Note_on_c, 0, 78, 70
2, 318912, Note_on_c, 0, 66, 70
2, 319004, Note_off_c, 0, 78, 0
2, 319008, Note_on_c, 0, 83, 75
2, 319088, Note_off_c, 0, 83, 0
2, 319100, Note_off_c, 0, 66, 0
2, 319104, Note_on_c, 0, 68, 70
2, 319104, Note_on_c, 0, 59, 70
2, 319196, Note_off_c, 0, 68, 0
2, 319200, Note_on_c, 0, 71, 70
2, 319292, Note_off_c, 0, 59, 0
2, 319292, Note_off_c, 0, 71, 0
2, 319296, Note_on_c, 0, 74, 70
2, 319296, Note_on_c, 0, 62, 70
2, 319388, Note_off_c, 0, 74, 0
2, 319392, Note_on_c, 0, 80, 75
2, 319456, Note_off_c, 0, 62, 0
2, 319472, Note_off_c, 0, 80, 0
2, 319488, Note_on_c, 0, 69, 70
2, 319488, Note_on_c, 0, 61, 70
2, 319676, Note_off_c, 0, 69, 0
2, 319680, Note_on_c, 0, 81, 70
2, 319808, Note_off_c, 0, 61, 0
2, 319868, Note_off_c, 0, 81, 0
2, 319872, Note_on_c, 0, 69, 70
2, 320060, Note_off_c, 0, 69, 0
2, 320064, Note_on_c, 0, 76, 70
2, 320064, Note_on_c, 0, 80, 70
2, 320252, Note_off_c, 0, 76, 0
2, 320252, Note_off_c, 0, 80, 0
2, 320256, Note_on_c, 0, 69, 70
2, 320444, Note_off_c, 0, 69, 0
2, 320448, Note_on_c, 0, 78, 70
2, 320448, Note_on_c, 0, 74, 70
2, 320636, Note_off_c, 0, 78, 0
2, 320636, Note_off_c, 0, 74, 0
2, 320640, Note_on_c, 0, 69, 70
2, 320828, Note_off_c, 0, 69, 0
2, 320832, Note_on_c, 0, 76, 70
2, 320832, Note_on_c, 0, 73, 70
2, 320992, Note_off_c, 0, 76, 0
2, 320992, Note_off_c, 0, 73, 0
2, 321024, Note_on_c, 0, 76, 70
2, 321024, Note_on_c, 0, 74, 70
2, 321308, Note_off_c, 0, 76, 0
2, 321408, Note_on_c, 0, 68, 70
2, 321600, Note_on_c, 0, 80, 70
2, 321668, Note_off_c, 0, 74, 0
2, 321692, Note_off_c, 0, 80, 0
2, 321696, Note_on_c, 0, 78, 70
2, 321788, Note_off_c, 0, 68, 0
2, 321788, Note_off_c, 0, 78, 0
2, 321792, Note_on_c, 0, 76, 70
2, 321792, Note_on_c, 0, 73, 70
2, 321792, Note_on_c, 0, 69, 70
2, 322112, Note_off_c, 0, 76, 0
2, 322112, Note_off_c, 0, 73, 0
2, 322112, Note_off_c, 0, 69, 0
2, 322176, Note_on_c, 0, 57, 70
2, 322496, Note_off_c, 0, 57, 0
2, 322560, Note_on_c, 0, 88, 110
2, 322560, Note_on_c, 0, 73, 100
2, 322748, Note_off_c, 0, 88, 0
2, 322748, Note_off_c, 0, 73, 0
2, 322752, Note_on_c, 0, 86, 100
2, 322752, Note_on_c, 0, 71, 97
2, 322844, Note_off_c, 0, 86, 0
2, 322844, Note_off_c, 0, 71, 0
2, 322848, Note_on_c, 0, 85, 99
2, 322848, Note_on_c, 0, 69, 95
2, 322940, Note_off_c, 0, 85, 0
2, 322940, Note_off_c, 0, 69, 0
2, 322944, Note_on_c, 0, 83, 98
2, 322944, Note_on_c, 0, 68, 95
2, 323036, Note_off_c, 0, 83, 0
2, 323036, Note_off_c, 0, 68, 0
2, 323040, Note_on_c, 0, 81, 97
2, 323040, Note_on_c, 0, 66, 95
2, 323132, Note_off_c, 0, 81, 0
2, 323132, Note_off_c, 0, 66, 0
2, 323136, Note_on_c, 0, 80, 96
2, 323136, Note_on_c, 0, 64, 95
2, 323228, Note_off_c, 0, 80, 0
2, 323228, Note_off_c, 0, 64, 0
2, 323232, Note_on_c, 0, 78, 95
2, 323232, Note_on_c, 0, 62, 95
2, 323324, Note_off_c, 0, 78, 0
2, 323324, Note_off_c, 0, 62, 0
2, 323328, Note_on_c, 0, 76, 95
2, 323420, Note_off_c, 0, 76, 0
2, 323424, Note_on_c, 0, 74, 95
2, 323516, Note_off_c, 0, 74, 0
2, 323520, Note_on_c, 0, 73, 95
2, 323612, Note_off_c, 0, 73, 0
2, 323616, Note_on_c, 0, 71, 95
2, 323708, Note_off_c, 0, 71, 0
2, 323712, Note_on_c, 0, 69, 95
2, 323804, Note_off_c, 0, 69, 0
2, 323808, Note_on_c, 0, 68, 95
2, 323900, Note_off_c, 0, 68, 0
2, 323904, Note_on_c, 0, 66, 95
2, 323996, Note_off_c, 0, 66, 0
2, 324000, Note_on_c, 0, 64, 95
2, 324092, Note_off_c, 0, 64, 0
2, 324096, Note_on_c, 0, 62, 95
2, 324284, Note_off_c, 0, 62, 0
2, 324288, Note_on_c, 0, 64, 95
2, 324380, Note_off_c, 0, 64, 0
2, 324384, Note_on_c, 0, 66, 95
2, 324476, Note_off_c, 0, 66, 0
2, 324480, Note_on_c, 0, 68, 95
2, 324572, Note_off_c, 0, 68, 0
2, 324576, Note_on_c, 0, 69, 95
2, 324668, Note_off_c, 0, 69, 0
2, 324672, Note_on_c, 0, 71, 95
2, 324764, Note_off_c, 0, 71, 0
2, 324768, Note_on_c, 0, 73, 95
2, 324860, Note_off_c, 0, 73, 0
2, 324864, Note_on_c, 0, 74, 95
2, 324864, Note_on_c, 0, 59, 95
2, 324956, Note_off_c, 0, 74, 0
2, 324956, Note_off_c, 0, 59, 0
2, 324960, Note_on_c, 0, 76, 95
2, 324960, Note_on_c, 0, 61, 95
2, 325052, Note_off_c, 0, 76, 0
2, 325052, Note_off_c, 0, 61, 0
2, 325056, Note_on_c, 0, 78, 95
2, 325056, Note_on_c, 0, 62, 95
2, 325148, Note_off_c, 0, 78, 0
2, 325148, Note_off_c, 0, 62, 0
2, 325152, Note_on_c, 0, 80, 95
2, 325152, Note_on_c, 0, 64, 95
2, 325244, Note_off_c, 0, 80, 0
2, 325244, Note_off_c, 0, 64, 0
2, 325248, Note_on_c, 0, 81, 95
2, 325248, Note_on_c, 0, 66, 95
2, 325340, Note_off_c, 0, 81, 0
2, 325340, Note_off_c, 0, 66, 0
2, 325344, Note_on_c, 0, 83, 95
2, 325344, Note_on_c, 0, 68, 95
2, 325436, Note_off_c, 0, 83, 0
2, 325436, Note_off_c, 0, 68, 0
2, 325440, Note_on_c, 0, 85, 95
2, 325440, Note_on_c, 0, 69, 95
2, 325532, Note_off_c, 0, 85, 0
2, 325532, Note_off_c, 0, 69, 0
2, 325536, Note_on_c, 0, 86, 95
2, 325536, Note_on_c, 0, 71, 95
2, 325628, Note_off_c, 0, 86, 0
2, 325628, Note_off_c, 0, 71, 0
2, 325632, Note_on_c, 0, 86, 95
2, 325632, Note_on_c, 0, 69, 95
2, 325724, Note_off_c, 0, 86, 0
2, 325728, Note_on_c, 0, 85, 95
2, 325820, Note_off_c, 0, 85, 0
2, 325824, Note_on_c, 0, 83, 95
2, 325916, Note_off_c, 0, 83, 0
2, 325920, Note_on_c, 0, 81, 95
2, 326012, Note_off_c, 0, 69, 0
2, 326012, Note_off_c, 0, 81, 0
2, 326016, Note_on_c, 0, 80, 95
2, 326108, Note_off_c, 0, 80, 0
2, 326112, Note_on_c, 0, 78, 95
2, 326204, Note_off_c, 0, 78, 0
2, 326208, Note_on_c, 0, 76, 95
2, 326300, Note_off_c, 0, 76, 0
2, 326304, Note_on_c, 0, 74, 95
2, 326396, Note_off_c, 0, 74, 0
2, 326400, Note_on_c, 0, 73, 95
2, 326492, Note_off_c, 0, 73, 0
2, 326496, Note_on_c, 0, 74, 95
2, 326588, Note_off_c, 0, 74, 0
2, 326592, Note_on_c, 0, 75, 95
2, 326684, Note_off_c, 0, 75, 0
2, 326688, Note_on_c, 0, 76, 95
2, 326780, Note_off_c, 0, 76, 0
2, 326784, Note_on_c, 0, 76, 95
2, 326876, Note_off_c, 0, 76, 0
2, 326880, Note_on_c, 0, 74, 95
2, 326972, Note_off_c, 0, 74, 0
2, 326976, Note_on_c, 0, 73, 95
2, 327068, Note_off_c, 0, 73, 0
2, 327072, Note_on_c, 0, 71, 95
2, 327164, Note_off_c, 0, 71, 0
2, 327168, Note_on_c, 0, 69, 95
2, 327548, Note_off_c, 0, 69, 0
2, 334080, Note_on_c, 0, 62, 70
2, 334080, Note_on_c, 0, 62, 70
2, 334268, Note_off_c, 0, 62, 0
2, 334272, Note_on_c, 0, 74, 70
2, 334272, Note_on_c, 0, 66, 70
2, 334352, Note_off_c, 0, 74, 0
2, 334400, Note_off_c, 0, 62, 0
2, 334460, Note_off_c, 0, 66, 0
2, 334464, Note_on_c, 0, 74, 70
2, 334464, Note_on_c, 0, 61, 70
2, 334464, Note_on_c, 0, 61, 70
2, 334544, Note_off_c, 0, 74, 0
2, 334652, Note_off_c, 0, 61, 0
2, 334656, Note_on_c, 0, 74, 70
2, 334656, Note_on_c, 0, 66, 70
2, 334736, Note_off_c, 0, 74, 0
2, 334784, Note_off_c, 0, 61, 0
2, 334816, Note_off_c, 0, 66, 0
2, 334848, Note_on_c, 0, 80, 70
2, 334848, Note_on_c, 0, 59, 70
2, 334848, Note_on_c, 0, 59, 70
2, 334940, Note_off_c, 0, 80, 0
2, 334944, Note_on_c, 0, 81, 70
2, 335036, Note_off_c, 0, 59, 0
2, 335036, Note_off_c, 0, 81, 0
2, 335040, Note_on_c, 0, 80, 70
2, 335040, Note_on_c, 0, 62, 70
2, 335132, Note_off_c, 0, 80, 0
2, 335136, Note_on_c, 0, 78, 70
2, 335168, Note_off_c, 0, 59, 0
2, 335228, Note_off_c, 0, 62, 0
2, 335228, Note_off_c, 0, 78, 0
2, 335232, Note_on_c, 0, 80, 70
2, 335232, Note_on_c, 0, 68, 70
2, 335324, Note_off_c, 0, 80, 0
2, 335328, Note_on_c, 0, 81, 70
2, 335420, Note_off_c, 0, 68, 0
2, 335420, Note_off_c, 0, 81, 0
2, 335424, Note_on_c, 0, 83, 70
2, 335424, Note_on_c, 0, 62, 70
2, 335516, Note_off_c, 0, 83, 0
2, 335520, Note_on_c, 0, 85, 70
2, 335584, Note_off_c, 0, 62, 0
2, 335612, Note_off_c, 0, 85, 0
2, 335616, Note_on_c, 0, 86, 70
2, 335616, Note_on_c, 0, 59, 70
2, 335616, Note_on_c, 0, 59, 70
2, 335708, Note_off_c, 0, 86, 0
2, 335712, Note_on_c, 0, 88, 70
2, 335804, Note_off_c, 0, 59, 0
2, 335804, Note_off_c, 0, 88, 0
2, 335808, Note_on_c, 0, 86, 70
2, 335808, Note_on_c, 0, 62, 70
2, 335900, Note_off_c, 0, 86, 0
2, 335904, Note_on_c, 0, 85, 70
2, 335936, Note_off_c, 0, 59, 0
2, 335996, Note_off_c, 0, 62, 0
2, 335996, Note_off_c, 0, 85, 0
2, 336000, Note_on_c, 0, 83, 70
2, 336000, Note_on_c, 0, 57, 70
2, 336000, Note_on_c, 0, 57, 70
2, 336092, Note_off_c, 0, 83, 0
2, 336096, Note_on_c, 0, 81, 70
2, 336188, Note_off_c, 0, 57, 0
2, 336188, Note_off_c, 0, 81, 0
2, 336192, Note_on_c, 0, 80, 70
2, 336192, Note_on_c, 0, 62, 70
2, 336284, Note_off_c, 0, 80, 0
2, 336288, Note_on_c, 0, 78, 70
2, 336320, Note_off_c, 0, 57, 0
2, 336352, Note_off_c, 0, 62, 0
2, 336380, Note_off_c, 0, 78, 0
2, 336384, Note_on_c, 0, 76, 70
2, 336384, Note_on_c, 0, 56, 70
2, 336384, Note_on_c, 0, 56, 70
2, 336476, Note_off_c, 0, 76, 0
2, 336480, Note_on_c, 0, 78, 70
2, 336572, Note_off_c, 0, 56, 0
2, 336572, Note_off_c, 0, 78, 0
2, 336576, Note_on_c, 0, 76, 70
2, 336576, Note_on_c, 0, 59, 70
2, 336668, Note_off_c, 0, 76, 0
2, 336672, Note_on_c, 0, 75, 70
2, 336704, Note_off_c, 0, 56, 0
2, 336764, Note_off_c, 0, 59, 0
2, 336764, Note_off_c, 0, 75, 0
2, 336768, Note_on_c, 0, 76, 70
2, 336768, Note_on_c, 0, 64, 70
2, 336860, Note_off_c, 0, 76, 0
2, 336864, Note_on_c, 0, 78, 70
2, 336956, Note_off_c, 0, 64, 0
2, 336956, Note_off_c, 0, 78, 0
2, 336960, Note_on_c, 0, 80, 70
2, 336960, Note_on_c, 0, 59, 70
2, 337052, Note_off_c, 0, 80, 0
2, 337056, Note_on_c, 0, 81, 70
2, 337120, Note_off_c, 0, 59, 0
2, 337148, Note_off_c, 0, 81, 0
2, 337152, Note_on_c, 0, 83, 70
2, 337244, Note_off_c, 0, 83, 0
2, 337248, Note_on_c, 0, 85, 70
2, 337340, Note_off_c, 0, 85, 0
2, 337344, Note_on_c, 0, 83, 70
2, 337436, Note_off_c, 0, 83, 0
2, 337440, Note_on_c, 0, 81, 70
2, 337532, Note_off_c, 0, 81, 0
2, 337536, Note_on_c, 0, 80, 70
2, 337628, Note_off_c, 0, 80, 0
2, 337632, Note_on_c, 0, 78, 70
2, 337724, Note_off_c, 0, 78, 0
2, 337728, Note_on_c, 0, 76, 70
2, 337820, Note_off_c, 0, 76, 0
2, 337824, Note_on_c, 0, 74, 70
2, 337904, Note_off_c, 0, 74, 0
2, 337920, Note_on_c, 0, 73, 70
2, 338012, Note_off_c, 0, 73, 0
2, 338016, Note_on_c, 0, 76, 70
2, 338108, Note_off_c, 0, 76, 0
2, 338112, Note_on_c, 0, 74, 70
2, 338204, Note_off_c, 0, 74, 0
2, 338208, Note_on_c, 0, 73, 70
2, 338300, Note_off_c, 0, 73, 0
2, 338304, Note_on_c, 0, 74, 70
2, 338396, Note_off_c, 0, 74, 0
2, 338400, Note_on_c, 0, 76, 70
2, 338492, Note_off_c, 0, 76, 0
2, 338496, Note_on_c, 0, 78, 70
2, 338588, Note_off_c, 0, 78, 0
2, 338592, Note_on_c, 0, 80, 70
2, 338684, Note_off_c, 0, 80, 0
2, 338688, Note_on_c, 0, 81, 70
2, 338780, Note_off_c, 0, 81, 0
2, 338784, Note_on_c, 0, 83, 68
2, 338876, Note_off_c, 0, 83, 0
2, 338880, Note_on_c, 0, 81, 66
2, 338972, Note_off_c, 0, 81, 0
2, 338976, Note_on_c, 0, 80, 64
2, 339068, Note_off_c, 0, 80, 0
2, 339072, Note_on_c, 0, 78, 62
2, 339164, Note_off_c, 0, 78, 0
2, 339168, Note_on_c, 0, 76, 60
2, 339260, Note_off_c, 0, 76, 0
2, 339264, Note_on_c, 0, 74, 58
2, 339356, Note_off_c, 0, 74, 0
2, 339360, Note_on_c, 0, 73, 56
2, 339452, Note_off_c, 0, 73, 0
2, 339456, Note_on_c, 0, 71, 70
2, 339548, Note_off_c, 0, 71, 0
2, 339552, Note_on_c, 0, 73, 70
2, 339644, Note_off_c, 0, 73, 0
2, 339648, Note_on_c, 0, 71, 70
2, 339740, Note_off_c, 0, 71, 0
2, 339744, Note_on_c, 0, 70, 70
2, 339836, Note_off_c, 0, 70, 0
2, 339840, Note_on_c, 0, 71, 70
2, 339932, Note_off_c, 0, 71, 0
2, 339936, Note_on_c, 0, 74, 70
2, 340028, Note_off_c, 0, 74, 0
2, 340032, Note_on_c, 0, 73, 70
2, 340124, Note_off_c, 0, 73, 0
2, 340128, Note_on_c, 0, 76, 70
2, 340220, Note_off_c, 0, 76, 0
2, 340224, Note_on_c, 0, 74, 70
2, 340316, Note_off_c, 0, 74, 0
2, 340320, Note_on_c, 0, 76, 70
2, 340412, Note_off_c, 0, 76, 0
2, 340416, Note_on_c, 0, 74, 70
2, 340508, Note_off_c, 0, 74, 0
2, 340512, Note_on_c, 0, 73, 70
2, 340604, Note_off_c, 0, 73, 0
2, 340608, Note_on_c, 0, 74, 70
2, 340700, Note_off_c, 0, 74, 0
2, 340704, Note_on_c, 0, 78, 70
2, 340796, Note_off_c, 0, 78, 0
2, 340800, Note_on_c, 0, 76, 70
2, 340892, Note_off_c, 0, 76, 0
2, 340896, Note_on_c, 0, 79, 70
2, 340976, Note_off_c, 0, 79, 0
2, 340992, Note_on_c, 0, 78, 105
2, 341084, Note_off_c, 0, 78, 0
2, 341088, Note_on_c, 0, 80, 95
2, 341180, Note_off_c, 0, 80, 0
2, 341184, Note_on_c, 0, 81, 95
2, 341276, Note_off_c, 0, 81, 0
2, 341280, Note_on_c, 0, 80, 95
2, 341372, Note_off_c, 0, 80, 0
2, 341376, Note_on_c, 0, 78, 95
2, 341468, Note_off_c, 0, 78, 0
2, 341472, Note_on_c, 0, 76, 95
2, 341564, Note_off_c, 0, 76, 0
2, 341568, Note_on_c, 0, 74, 95
2, 341660, Note_off_c, 0, 74, 0
2, 341664, Note_on_c, 0, 73, 95
2, 341756, Note_off_c, 0, 73, 0
2, 341760, Note_on_c, 0, 74, 106
2, 341852, Note_off_c, 0, 74, 0
2, 341856, Note_on_c, 0, 76, 96
2, 341948, Note_off_c, 0, 76, 0
2, 341952, Note_on_c, 0, 78, 97
2, 342044, Note_off_c, 0, 78, 0
2, 342048, Note_on_c, 0, 76, 98
2, 342140, Note_off_c, 0, 76, 0
2, 342144, Note_on_c, 0, 74, 98
2, 342236, Note_off_c, 0, 74, 0
2, 342240, Note_on_c, 0, 73, 99
2, 342332, Note_off_c, 0, 73, 0
2, 342336, Note_on_c, 0, 71, 99
2, 342428, Note_off_c, 0, 71, 0
2, 342432, Note_on_c, 0, 69, 100
2, 342524, Note_off_c, 0, 69, 0
2, 342528, Note_on_c, 0, 68, 110
2, 342620, Note_off_c, 0, 68, 0
2, 342624, Note_on_c, 0, 64, 100
2, 342716, Note_off_c, 0, 64, 0
2, 342720, Note_on_c, 0, 68, 100
2, 342812, Note_off_c, 0, 68, 0
2, 342816, Note_on_c, 0, 71, 100
2, 342908, Note_off_c, 0, 71, 0
2, 342912, Note_on_c, 0, 76, 100
2, 343004, Note_off_c, 0, 76, 0
2, 343008, Note_on_c, 0, 71, 100
2, 343100, Note_off_c, 0, 71, 0
2, 343104, Note_on_c, 0, 68, 100
2, 343196, Note_off_c, 0, 68, 0
2, 343200, Note_on_c, 0, 64, 100
2, 343280, Note_off_c, 0, 64, 0
2, 343392, Note_on_c, 0, 68, 100
2, 343484, Note_off_c, 0, 68, 0
2, 343488, Note_on_c, 0, 71, 100
2, 343580, Note_off_c, 0, 71, 0
2, 343584, Note_on_c, 0, 78, 100
2, 343664, Note_off_c, 0, 78, 0
2, 343776, Note_on_c, 0, 69, 100
2, 343868, Note_off_c, 0, 69, 0
2, 343872, Note_on_c, 0, 73, 100
2, 343964, Note_off_c, 0, 73, 0
2, 343968, Note_on_c, 0, 76, 100
2, 344048, Note_off_c, 0, 76, 0
2, 344160, Note_on_c, 0, 68, 100
2, 344252, Note_off_c, 0, 68, 0
2, 344256, Note_on_c, 0, 71, 100
2, 344348, Note_off_c, 0, 71, 0
2, 344352, Note_on_c, 0, 74, 100
2, 344432, Note_off_c, 0, 74, 0
2, 344544, Note_on_c, 0, 64, 100
2, 344636, Note_off_c, 0, 64, 0
2, 344640, Note_on_c, 0, 69, 100
2, 344732, Note_off_c, 0, 69, 0
2, 344736, Note_on_c, 0, 73, 100
2, 344816, Note_off_c, 0, 73, 0
2, 344928, Note_on_c, 0, 64, 100
2, 345020, Note_off_c, 0, 64, 0
2, 345024, Note_on_c, 0, 68, 100
2, 345116, Note_off_c, 0, 68, 0
2, 345120, Note_on_c, 0, 71, 100
2, 345200, Note_off_c, 0, 71, 0
2, 345312, Note_on_c, 0, 63, 100
2, 345404, Note_off_c, 0, 63, 0
2, 345408, Note_on_c, 0, 66, 100
2, 345500, Note_off_c, 0, 66, 0
2, 345504, Note_on_c, 0, 69, 100
2, 345584, Note_off_c, 0, 69, 0
2, 345600, Note_on_c, 0, 68, 95
2, 345692, Note_off_c, 0, 68, 0
2, 345696, Note_on_c, 0, 64, 95
2, 345788, Note_off_c, 0, 64, 0
2, 345792, Note_on_c, 0, 68, 95
2, 345884, Note_off_c, 0, 68, 0
2, 345888, Note_on_c, 0, 71, 95
2, 345980, Note_off_c, 0, 71, 0
2, 345984, Note_on_c, 0, 76, 95
2, 346076, Note_off_c, 0, 76, 0
2, 346080, Note_on_c, 0, 71, 95
2, 346172, Note_off_c, 0, 71, 0
2, 346176, Note_on_c, 0, 68, 95
2, 346268, Note_off_c, 0, 68, 0
2, 346272, Note_on_c, 0, 64, 95
2, 346352, Note_off_c, 0, 64, 0
2, 346464, Note_on_c, 0, 68, 91
2, 346556, Note_off_c, 0, 68, 0
2, 346560, Note_on_c, 0, 71, 88
2, 346652, Note_off_c, 0, 71, 0
2, 346656, Note_on_c, 0, 78, 85
2, 346736, Note_off_c, 0, 78, 0
2, 346848, Note_on_c, 0, 69, 78
2, 346940, Note_off_c, 0, 69, 0
2, 346944, Note_on_c, 0, 72, 75
2, 347036, Note_off_c, 0, 72, 0
2, 347040, Note_on_c, 0, 76, 72
2, 347120, Note_off_c, 0, 76, 0
2, 347232, Note_on_c, 0, 62, 70
2, 347324, Note_off_c, 0, 62, 0
2, 347328, Note_on_c, 0, 68, 70
2, 347420, Note_off_c, 0, 68, 0
2, 347424, Note_on_c, 0, 74, 70
2, 347504, Note_off_c, 0, 74, 0
2, 347616, Note_on_c, 0, 65, 70
2, 347708, Note_off_c, 0, 65, 0
2, 347712, Note_on_c, 0, 69, 70
2, 347804, Note_off_c, 0, 69, 0
2, 347808, Note_on_c, 0, 72, 70
2, 347888, Note_off_c, 0, 72, 0
2, 348000, Note_on_c, 0, 59, 70
2, 348092, Note_off_c, 0, 59, 0
2, 348096, Note_on_c, 0, 64, 70
2, 348188, Note_off_c, 0, 64, 0
2, 348192, Note_on_c, 0, 71, 70
2, 348272, Note_off_c, 0, 71, 0
2, 348384, Note_on_c, 0, 57, 70
2, 348476, Note_off_c, 0, 57, 0
2, 348480, Note_on_c, 0, 63, 70
2, 348572, Note_off_c, 0, 63, 0
2, 348576, Note_on_c, 0, 69, 70
2, 348656, Note_off_c, 0, 69, 0
2, 348672, Note_on_c, 0, 68, 70
2, 348764, Note_off_c, 0, 68, 0
2, 348768, Note_on_c, 0, 64, 70
2, 348860, Note_off_c, 0, 64, 0
2, 348864, Note_on_c, 0, 66, 70
2, 348956, Note_off_c, 0, 66, 0
2, 348960, Note_on_c, 0, 68, 70
2, 349052, Note_off_c, 0, 68, 0
2, 349056, Note_on_c, 0, 69, 71
2, 349148, Note_off_c, 0, 69, 0
2, 349152, Note_on_c, 0, 71, 73
2, 349244, Note_off_c, 0, 71, 0
2, 349248, Note_on_c, 0, 73, 75
2, 349340, Note_off_c, 0, 73, 0
2, 349344, Note_on_c, 0, 75, 77
2, 349436, Note_off_c, 0, 75, 0
2, 349440, Note_on_c, 0, 76, 79
2, 349440, Note_on_c, 0, 64, 79
2, 349628, Note_off_c, 0, 76, 0
2, 349628, Note_off_c, 0, 64, 0
2, 349632, Note_on_c, 0, 78, 84
2, 349632, Note_on_c, 0, 66, 84
2, 349724, Note_off_c, 0, 78, 0
2, 349724, Note_off_c, 0, 66, 0
2, 349728, Note_on_c, 0, 80, 86
2, 349728, Note_on_c, 0, 68, 86
2, 349820, Note_off_c, 0, 80, 0
2, 349820, Note_off_c, 0, 68, 0
2, 349824, Note_on_c, 0, 81, 88
2, 349824, Note_on_c, 0, 69, 88
2, 349916, Note_off_c, 0, 81, 0
2, 349916, Note_off_c, 0, 69, 0
2, 349920, Note_on_c, 0, 83, 90
2, 349920, Note_on_c, 0, 71, 90
2, 350012, Note_off_c, 0, 83, 0
2, 350012, Note_off_c, 0, 71, 0
2, 350016, Note_on_c, 0, 85, 92
2, 350016, Note_on_c, 0, 73, 92
2, 350108, Note_off_c, 0, 85, 0
2, 350108, Note_off_c, 0, 73, 0
2, 350112, Note_on_c, 0, 87, 94
2, 350112, Note_on_c, 0, 75, 94
2, 350204, Note_off_c, 0, 87, 0
2, 350204, Note_off_c, 0, 75, 0
2, 350208, Note_on_c, 0, 88, 95
2, 350208, Note_on_c, 0, 76, 95
2, 350368, Note_off_c, 0, 88, 0
2, 350368, Note_off_c, 0, 76, 0
2, 350592, Note_on_c, 0, 76, 95
2, 350592, Note_on_c, 0, 64, 95
2, 350752, Note_off_c, 0, 76, 0
2, 350752, Note_off_c, 0, 64, 0
2, 351360, Note_on_c, 0, 73, 70
2, 351548, Note_off_c, 0, 73, 0
2, 351552, Note_on_c, 0, 74, 70
2, 351712, Note_off_c, 0, 74, 0
2, 351744, Note_on_c, 0, 78, 70
2, 351744, Note_on_c, 0, 73, 70
2, 351744, Note_on_c, 0, 69, 70
2, 351932, Note_off_c, 0, 78, 0
2, 351936, Note_on_c, 0, 76, 70
2, 352124, Note_off_c, 0, 76, 0
2, 352128, Note_on_c, 0, 76, 70
2, 352268, Note_off_c, 0, 76, 0
2, 352416, Note_on_c, 0, 76, 70
2, 352456, Note_off_c, 0, 76, 0
2, 352508, Note_off_c, 0, 73, 0
2, 352508, Note_off_c, 0, 69, 0
2, 352512, Note_on_c, 0, 76, 70
2, 352512, Note_on_c, 0, 71, 70
2, 352512, Note_on_c, 0, 68, 70
2, 352672, Note_off_c, 0, 76, 0
2, 352896, Note_on_c, 0, 76, 70
2, 353056, Note_off_c, 0, 76, 0
2, 353156, Note_off_c, 0, 71, 0
2, 353156, Note_off_c, 0, 68, 0
2, 353280, Note_on_c, 0, 76, 70
2, 353280, Note_on_c, 0, 69, 70
2, 353280, Note_on_c, 0, 66, 70
2, 353468, Note_off_c, 0, 76, 0
2, 353472, Note_on_c, 0, 81, 70
2, 353660, Note_off_c, 0, 81, 0
2, 353664, Note_on_c, 0, 80, 70
2, 353852, Note_off_c, 0, 80, 0
2, 353856, Note_on_c, 0, 78, 70
2, 354044, Note_off_c, 0, 78, 0
2, 354048, Note_on_c, 0, 76, 70
2, 354236, Note_off_c, 0, 76, 0
2, 354240, Note_on_c, 0, 75, 70
2, 354428, Note_off_c, 0, 66, 0
2, 354428, Note_off_c, 0, 75, 0
2, 354432, Note_on_c, 0, 74, 70
2, 354432, Note_on_c, 0, 64, 70
2, 354620, Note_off_c, 0, 74, 0
2, 354624, Note_on_c, 0, 73, 70
2, 354628, Note_off_c, 0, 69, 0
2, 354752, Note_off_c, 0, 64, 0
2, 354784, Note_off_c, 0, 73, 0
2, 354816, Note_on_c, 0, 73, 70
2, 354816, Note_on_c, 0, 69, 70
2, 354816, Note_on_c, 0, 66, 70
2, 354816, Note_on_c, 0, 63, 70
2, 355004, Note_off_c, 0, 73, 0
2, 355008, Note_on_c, 0, 71, 70
2, 355168, Note_off_c, 0, 71, 0
2, 355200, Note_on_c, 0, 71, 70
2, 355340, Note_off_c, 0, 71, 0
2, 355488, Note_on_c, 0, 71, 70
2, 355528, Note_off_c, 0, 71, 0
2, 355584, Note_on_c, 0, 71, 70
2, 355744, Note_off_c, 0, 71, 0
2, 355968, Note_on_c, 0, 71, 70
2, 356128, Note_off_c, 0, 71, 0
2, 356228, Note_off_c, 0, 69, 0
2, 356228, Note_off_c, 0, 66, 0
2, 356228, Note_off_c, 0, 63, 0
2, 356352, Note_on_c, 0, 71, 75
2, 356352, Note_on_c, 0, 68, 70
2, 356352, Note_on_c, 0, 64, 70
2, 356352, Note_on_c, 0, 62, 70
2, 356540, Note_off_c, 0, 71, 0
2, 356544, Note_on_c, 0, 76, 87
2, 356732, Note_off_c, 0, 76, 0
2, 356736, Note_on_c, 0, 75, 83
2, 356924, Note_off_c, 0, 75, 0
2, 356928, Note_on_c, 0, 74, 80
2, 356996, Note_off_c, 0, 68, 0
2, 356996, Note_off_c, 0, 64, 0
2, 356996, Note_off_c, 0, 62, 0
2, 357116, Note_off_c, 0, 74, 0
2, 357120, Note_on_c, 0, 73, 77
2, 357308, Note_off_c, 0, 73, 0
2, 357312, Note_on_c, 0, 71, 74
2, 357500, Note_off_c, 0, 71, 0
2, 357504, Note_on_c, 0, 69, 71
2, 357692, Note_off_c, 0, 69, 0
2, 357696, Note_on_c, 0, 68, 70
2, 357884, Note_off_c, 0, 68, 0
2, 357888, Note_on_c, 0, 66, 70
2, 358076, Note_off_c, 0, 66, 0
2, 358080, Note_on_c, 0, 64, 70
2, 358160, Note_off_c, 0, 64, 0
2, 358272, Note_on_c, 0, 64, 70
2, 358412, Note_off_c, 0, 64, 0
2, 358560, Note_on_c, 0, 64, 70
2, 358600, Note_off_c, 0, 64, 0
2, 358656, Note_on_c, 0, 64, 70
2, 358844, Note_off_c, 0, 64, 0
2, 358848, Note_on_c, 0, 73, 70
2, 359036, Note_off_c, 0, 73, 0
2, 359040, Note_on_c, 0, 69, 70
2, 359228, Note_off_c, 0, 69, 0
2, 359232, Note_on_c, 0, 66, 70
2, 359420, Note_off_c, 0, 66, 0
2, 359424, Note_on_c, 0, 64, 70
2, 359612, Note_off_c, 0, 64, 0
2, 359616, Note_on_c, 0, 62, 70
2, 359696, Note_off_c, 0, 62, 0
2, 359808, Note_on_c, 0, 62, 70
2, 359948, Note_off_c, 0, 62, 0
2, 360096, Note_on_c, 0, 62, 70
2, 360136, Note_off_c, 0, 62, 0
2, 360192, Note_on_c, 0, 62, 70
2, 360380, Note_off_c, 0, 62, 0
2, 360384, Note_on_c, 0, 71, 70
2, 360572, Note_off_c, 0, 71, 0
2, 360576, Note_on_c, 0, 68, 70
2, 360764, Note_off_c, 0, 68, 0
2, 360768, Note_on_c, 0, 62, 70
2, 360956, Note_off_c, 0, 62, 0
2, 360960, Note_on_c, 0, 61, 70
2, 361052, Note_off_c, 0, 61, 0
2, 361056, Note_on_c, 0, 64, 70
2, 361148, Note_off_c, 0, 64, 0
2, 361152, Note_on_c, 0, 62, 71
2, 361244, Note_off_c, 0, 62, 0
2, 361248, Note_on_c, 0, 61, 72
2, 361340, Note_off_c, 0, 61, 0
2, 361344, Note_on_c, 0, 62, 74
2, 361436, Note_off_c, 0, 62, 0
2, 361440, Note_on_c, 0, 64, 76
2, 361532, Note_off_c, 0, 64, 0
2, 361536, Note_on_c, 0, 66, 78
2, 361628, Note_off_c, 0, 66, 0
2, 361632, Note_on_c, 0, 68, 80
2, 361724, Note_off_c, 0, 68, 0
2, 361728, Note_on_c, 0, 69, 82
2, 361820, Note_off_c, 0, 69, 0
2, 361824, Note_on_c, 0, 71, 84
2, 361916, Note_off_c, 0, 71, 0
2, 361920, Note_on_c, 0, 73, 86
2, 362012, Note_off_c, 0, 73, 0
2, 362016, Note_on_c, 0, 74, 88
2, 362108, Note_off_c, 0, 74, 0
2, 362112, Note_on_c, 0, 76, 90
2, 362112, Note_on_c, 0, 69, 90
2, 362192, Note_off_c, 0, 76, 0
2, 362192, Note_off_c, 0, 69, 0
2, 362304, Note_on_c, 0, 78, 80
2, 362304, Note_on_c, 0, 69, 80
2, 362384, Note_off_c, 0, 78, 0
2, 362384, Note_off_c, 0, 69, 0
2, 362496, Note_on_c, 0, 73, 75
2, 362496, Note_on_c, 0, 69, 75
2, 363140, Note_off_c, 0, 73, 0
2, 363140, Note_off_c, 0, 69, 0
2, 363264, Note_on_c, 0, 71, 70
2, 363264, Note_on_c, 0, 68, 70
2, 363584, Note_off_c, 0, 71, 0
2, 363584, Note_off_c, 0, 68, 0
2, 365760, Note_on_c, 0, 69, 85
2, 365852, Note_off_c, 0, 69, 0
2, 365856, Note_on_c, 0, 81, 87
2, 365948, Note_off_c, 0, 81, 0
2, 365952, Note_on_c, 0, 68, 85
2, 366044, Note_off_c, 0, 68, 0
2, 366048, Note_on_c, 0, 80, 87
2, 366140, Note_off_c, 0, 80, 0
2, 366144, Note_on_c, 0, 66, 85
2, 366236, Note_off_c, 0, 66, 0
2, 366240, Note_on_c, 0, 78, 87
2, 366332, Note_off_c, 0, 78, 0
2, 366336, Note_on_c, 0, 64, 83
2, 366428, Note_off_c, 0, 64, 0
2, 366432, Note_on_c, 0, 76, 84
2, 366524, Note_off_c, 0, 76, 0
2, 366528, Note_on_c, 0, 63, 80
2, 366620, Note_off_c, 0, 63, 0
2, 366624, Note_on_c, 0, 75, 78
2, 366716, Note_off_c, 0, 75, 0
2, 366720, Note_on_c, 0, 62, 76
2, 366812, Note_off_c, 0, 62, 0
2, 366816, Note_on_c, 0, 74, 74
2, 366908, Note_off_c, 0, 74, 0
2, 366912, Note_on_c, 0, 61, 72
2, 367004, Note_off_c, 0, 61, 0
2, 367008, Note_on_c, 0, 73, 70
2, 367100, Note_off_c, 0, 73, 0
2, 367104, Note_on_c, 0, 73, 70
2, 367292, Note_off_c, 0, 73, 0
2, 367296, Note_on_c, 0, 71, 70
2, 367456, Note_off_c, 0, 71, 0
2, 367488, Note_on_c, 0, 71, 70
2, 367808, Note_off_c, 0, 71, 0
2, 368832, Note_on_c, 0, 76, 83
2, 368924, Note_off_c, 0, 76, 0
2, 368928, Note_on_c, 0, 88, 82
2, 369020, Note_off_c, 0, 88, 0
2, 369024, Note_on_c, 0, 75, 81
2, 369116, Note_off_c, 0, 75, 0
2, 369120, Note_on_c, 0, 87, 80
2, 369212, Note_off_c, 0, 87, 0
2, 369216, Note_on_c, 0, 74, 79
2, 369308, Note_off_c, 0, 74, 0
2, 369312, Note_on_c, 0, 86, 78
2, 369404, Note_off_c, 0, 86, 0
2, 369408, Note_on_c, 0, 73, 77
2, 369500, Note_off_c, 0, 73, 0
2, 369504, Note_on_c, 0, 85, 76
2, 369596, Note_off_c, 0, 85, 0
2, 369600, Note_on_c, 0, 71, 75
2, 369692, Note_off_c, 0, 71, 0
2, 369696, Note_on_c, 0, 83, 74
2, 369788, Note_off_c, 0, 83, 0
2, 369792, Note_on_c, 0, 69, 73
2, 369884, Note_off_c, 0, 69, 0
2, 369888, Note_on_c, 0, 81, 72
2, 369980, Note_off_c, 0, 81, 0
2, 369984, Note_on_c, 0, 68, 71
2, 370076, Note_off_c, 0, 68, 0
2, 370080, Note_on_c, 0, 80, 70
2, 370160, Note_off_c, 0, 80, 0
2, 370176, Note_on_c, 0, 78, 70
2, 370364, Note_off_c, 0, 78, 0
2, 370368, Note_on_c, 0, 76, 70
2, 370528, Note_off_c, 0, 76, 0
2, 370560, Note_on_c, 0, 76, 70
2, 370880, Note_off_c, 0, 76, 0
2, 371904, Note_on_c, 0, 68, 73
2, 371996, Note_off_c, 0, 68, 0
2, 372000, Note_on_c, 0, 80, 74
2, 372092, Note_off_c, 0, 80, 0
2, 372096, Note_on_c, 0, 69, 75
2, 372188, Note_off_c, 0, 69, 0
2, 372192, Note_on_c, 0, 81, 76
2, 372284, Note_off_c, 0, 81, 0
2, 372288, Note_on_c, 0, 70, 77
2, 372380, Note_off_c, 0, 70, 0
2, 372384, Note_on_c, 0, 82, 78
2, 372476, Note_off_c, 0, 82, 0
2, 372480, Note_on_c, 0, 71, 79
2, 372572, Note_off_c, 0, 71, 0
2, 372576, Note_on_c, 0, 83, 80
2, 372668, Note_off_c, 0, 83, 0
2, 372672, Note_on_c, 0, 73, 81
2, 372764, Note_off_c, 0, 73, 0
2, 372768, Note_on_c, 0, 85, 82
2, 372860, Note_off_c, 0, 85, 0
2, 372864, Note_on_c, 0, 74, 83
2, 372956, Note_off_c, 0, 74, 0
2, 372960, Note_on_c, 0, 86, 84
2, 373052, Note_off_c, 0, 86, 0
2, 373056, Note_on_c, 0, 75, 85
2, 373148, Note_off_c, 0, 75, 0
2, 373152, Note_on_c, 0, 87, 86
2, 373244, Note_off_c, 0, 87, 0
2, 373248, Note_on_c, 0, 88, 95
2, 373340, Note_off_c, 0, 88, 0
2, 373344, Note_on_c, 0, 85, 84
2, 373436, Note_off_c, 0, 85, 0
2, 373440, Note_on_c, 0, 88, 83
2, 373532, Note_off_c, 0, 88, 0
2, 373536, Note_on_c, 0, 85, 82
2, 373628, Note_off_c, 0, 85, 0
2, 373632, Note_on_c, 0, 81, 81
2, 374204, Note_off_c, 0, 81, 0
2, 374208, Note_on_c, 0, 85, 75
2, 374396, Note_off_c, 0, 85, 0
2, 374400, Note_on_c, 0, 83, 73
2, 374588, Note_off_c, 0, 83, 0
2, 374592, Note_on_c, 0, 80, 71
2, 374780, Note_off_c, 0, 80, 0
2, 374784, Note_on_c, 0, 81, 70
2, 375164, Note_off_c, 0, 81, 0
2, 375936, Note_on_c, 0, 69, 70
2, 376076, Note_off_c, 0, 69, 0
2, 376224, Note_on_c, 0, 69, 70
2, 376264, Note_off_c, 0, 69, 0
2, 376320, Note_on_c, 0, 74, 80
2, 376320, Note_on_c, 0, 69, 80
2, 376320, Note_on_c, 0, 62, 80
2, 376640, Note_off_c, 0, 74, 0
2, 376640, Note_off_c, 0, 69, 0
2, 376640, Note_off_c, 0, 62, 0
2, 376704, Note_on_c, 0, 64, 80
2, 376704, Note_on_c, 0, 69, 80
2, 376704, Note_on_c, 0, 73, 80
2, 377024, Note_off_c, 0, 64, 0
2, 377024, Note_off_c, 0, 69, 0
2, 377024, Note_off_c, 0, 73, 0
2, 377472, Note_on_c, 0, 69, 70
2, 377612, Note_off_c, 0, 69, 0
2, 377760, Note_on_c, 0, 69, 70
2, 377800, Note_off_c, 0, 69, 0
2, 377856, Note_on_c, 0, 74, 70
2, 378044, Note_off_c, 0, 74, 0
2, 378048, Note_on_c, 0, 76, 70
2, 378140, Note_off_c, 0, 76, 0
2, 378144, Note_on_c, 0, 77, 70
2, 378236, Note_off_c, 0, 77, 0
2, 378240, Note_on_c, 0, 76, 70
2, 378560, Note_off_c, 0, 76, 0
2, 379392, Note_on_c, 0, 78, 70
2, 379392, Note_on_c, 0, 74, 70
2, 379392, Note_on_c, 0, 69, 70
2, 379472, Note_off_c, 0, 78, 0
2, 379472, Note_off_c, 0, 74, 0
2, 379472, Note_off_c, 0, 69, 0
2, 379776, Note_on_c, 0, 78, 75
2, 380348, Note_off_c, 0, 78, 0
2, 380352, Note_on_c, 0, 81, 70
2, 380444, Note_off_c, 0, 81, 0
2, 380448, Note_on_c, 0, 80, 70
2, 380540, Note_off_c, 0, 80, 0
2, 380544, Note_on_c, 0, 81, 70
2, 380636, Note_off_c, 0, 81, 0
2, 380640, Note_on_c, 0, 80, 70
2, 380732, Note_off_c, 0, 80, 0
2, 380736, Note_on_c, 0, 78, 70
2, 380828, Note_off_c, 0, 78, 0
2, 380832, Note_on_c, 0, 76, 70
2, 380912, Note_off_c, 0, 76, 0
2, 380928, Note_on_c, 0, 76, 70
2, 381020, Note_off_c, 0, 76, 0
2, 381024, Note_on_c, 0, 74, 70
2, 381116, Note_off_c, 0, 74, 0
2, 381120, Note_on_c, 0, 78, 70
2, 381212, Note_off_c, 0, 78, 0
2, 381216, Note_on_c, 0, 76, 70
2, 381308, Note_off_c, 0, 76, 0
2, 381312, Note_on_c, 0, 74, 70
2, 381404, Note_off_c, 0, 74, 0
2, 381408, Note_on_c, 0, 73, 70
2, 381500, Note_off_c, 0, 73, 0
2, 381504, Note_on_c, 0, 71, 70
2, 381596, Note_off_c, 0, 71, 0
2, 381600, Note_on_c, 0, 69, 70
2, 381692, Note_off_c, 0, 69, 0
2, 381696, Note_on_c, 0, 68, 70
2, 381788, Note_off_c, 0, 68, 0
2, 381792, Note_on_c, 0, 66, 70
2, 381884, Note_off_c, 0, 66, 0
2, 381888, Note_on_c, 0, 64, 70
2, 381980, Note_off_c, 0, 64, 0
2, 381984, Note_on_c, 0, 62, 70
2, 382076, Note_off_c, 0, 62, 0
2, 382080, Note_on_c, 0, 61, 70
2, 382172, Note_off_c, 0, 61, 0
2, 382176, Note_on_c, 0, 64, 70
2, 382268, Note_off_c, 0, 64, 0
2, 382272, Note_on_c, 0, 69, 70
2, 382364, Note_off_c, 0, 69, 0
2, 382368, Note_on_c, 0, 73, 70
2, 382460, Note_off_c, 0, 73, 0
2, 382464, Note_on_c, 0, 66, 70
2, 382556, Note_off_c, 0, 66, 0
2, 382560, Note_on_c, 0, 71, 75
2, 382652, Note_off_c, 0, 71, 0
2, 382656, Note_on_c, 0, 74, 80
2, 382748, Note_off_c, 0, 74, 0
2, 382752, Note_on_c, 0, 78, 85
2, 382844, Note_off_c, 0, 78, 0
2, 382848, Note_on_c, 0, 76, 82
2, 382940, Note_off_c, 0, 76, 0
2, 382944, Note_on_c, 0, 74, 79
2, 383036, Note_off_c, 0, 74, 0
2, 383040, Note_on_c, 0, 73, 76
2, 383132, Note_off_c, 0, 73, 0
2, 383136, Note_on_c, 0, 71, 73
2, 383228, Note_off_c, 0, 71, 0
2, 383232, Note_on_c, 0, 69, 70
2, 383612, Note_off_c, 0, 69, 0
2, 383616, Note_on_c, 0, 68, 70
2, 383616, Note_on_c, 0, 73, 70
2, 383804, Note_off_c, 0, 73, 0
2, 383808, Note_on_c, 0, 71, 70
2, 383996, Note_off_c, 0, 68, 0
2, 383996, Note_off_c, 0, 71, 0
2, 384000, Note_on_c, 0, 69, 70
2, 384320, Note_off_c, 0, 69, 0
2, 384768, Note_on_c, 0, 73, 80
2, 385244, Note_off_c, 0, 73, 0
2, 385248, Note_on_c, 0, 74, 70
2, 385340, Note_off_c, 0, 74, 0
2, 385344, Note_on_c, 0, 73, 70
2, 385436, Note_off_c, 0, 73, 0
2, 385440, Note_on_c, 0, 71, 70
2, 385532, Note_off_c, 0, 71, 0
2, 385536, Note_on_c, 0, 69, 70
2, 385856, Note_off_c, 0, 69, 0
2, 386304, Note_on_c, 0, 73, 95
2, 386780, Note_off_c, 0, 73, 0
2, 386784, Note_on_c, 0, 74, 85
2, 386876, Note_off_c, 0, 74, 0
2, 386880, Note_on_c, 0, 73, 85
2, 386972, Note_off_c, 0, 73, 0
2, 386976, Note_on_c, 0, 71, 85
2, 387068, Note_off_c, 0, 71, 0
2, 387072, Note_on_c, 0, 69, 105
2, 387392, Note_off_c, 0, 69, 0
2, 387840, Note_on_c, 0, 73, 95
2, 388316, Note_off_c, 0, 73, 0
2, 388320, Note_on_c, 0, 74, 90
2, 388412, Note_off_c, 0, 74, 0
2, 388416, Note_on_c, 0, 73, 85
2, 388508, Note_off_c, 0, 73, 0
2, 388512, Note_on_c, 0, 71, 80
2, 388604, Note_off_c, 0, 71, 0
2, 388608, Note_on_c, 0, 69, 71
2, 388700, Note_off_c, 0, 69, 0
2, 388704, Note_on_c, 0, 71, 72
2, 388796, Note_off_c, 0, 71, 0
2, 388800, Note_on_c, 0, 69, 74
2, 388892, Note_off_c, 0, 69, 0
2, 388896, Note_on_c, 0, 68, 75
2, 388976, Note_off_c, 0, 68, 0
2, 388992, Note_on_c, 0, 69, 77
2, 389052, Note_off_c, 0, 69, 0
2, 389120, Note_on_c, 0, 70, 79
2, 389180, Note_off_c, 0, 70, 0
2, 389248, Note_on_c, 0, 71, 81
2, 389308, Note_off_c, 0, 71, 0
2, 389376, Note_on_c, 0, 72, 84
2, 389436, Note_off_c, 0, 72, 0
2, 389504, Note_on_c, 0, 73, 86
2, 389564, Note_off_c, 0, 73, 0
2, 389632, Note_on_c, 0, 74, 88
2, 389692, Note_off_c, 0, 74, 0
2, 389760, Note_on_c, 0, 75, 90
2, 389820, Note_off_c, 0, 75, 0
2, 389888, Note_on_c, 0, 76, 92
2, 389948, Note_off_c, 0, 76, 0
2, 390016, Note_on_c, 0, 77, 94
2, 390076, Note_off_c, 0, 77, 0
2, 390144, Note_on_c, 0, 78, 110
2, 390224, Note_off_c, 0, 78, 0
2, 390528, Note_on_c, 0, 78, 105
2, 391100, Note_off_c, 0, 78, 0
2, 391104, Note_on_c, 0, 81, 95
2, 391196, Note_off_c, 0, 81, 0
2, 391200, Note_on_c, 0, 80, 95
2, 391292, Note_off_c, 0, 80, 0
2, 391296, Note_on_c, 0, 81, 95
2, 391388, Note_off_c, 0, 81, 0
2, 391392, Note_on_c, 0, 80, 95
2, 391484, Note_off_c, 0, 80, 0
2, 391488, Note_on_c, 0, 78, 95
2, 391580, Note_off_c, 0, 78, 0
2, 391584, Note_on_c, 0, 76, 95
2, 391676, Note_off_c, 0, 76, 0
2, 391680, Note_on_c, 0, 76, 95
2, 391772, Note_off_c, 0, 76, 0
2, 391776, Note_on_c, 0, 74, 95
2, 391868, Note_off_c, 0, 74, 0
2, 391872, Note_on_c, 0, 78, 95
2, 391964, Note_off_c, 0, 78, 0
2, 391968, Note_on_c, 0, 76, 95
2, 392060, Note_off_c, 0, 76, 0
2, 392064, Note_on_c, 0, 74, 95
2, 392156, Note_off_c, 0, 74, 0
2, 392160, Note_on_c, 0, 73, 95
2, 392252, Note_off_c, 0, 73, 0
2, 392256, Note_on_c, 0, 71, 95
2, 392348, Note_off_c, 0, 71, 0
2, 392352, Note_on_c, 0, 69, 95
2, 392444, Note_off_c, 0, 69, 0
2, 392448, Note_on_c, 0, 68, 95
2, 392540, Note_off_c, 0, 68, 0
2, 392544, Note_on_c, 0, 66, 95
2, 392636, Note_off_c, 0, 66, 0
2, 392640, Note_on_c, 0, 64, 95
2, 392732, Note_off_c, 0, 64, 0
2, 392736, Note_on_c, 0, 62, 95
2, 392828, Note_off_c, 0, 62, 0
2, 392832, Note_on_c, 0, 61, 95
2, 392924, Note_off_c, 0, 61, 0
2, 392928, Note_on_c, 0, 64, 95
2, 393020, Note_off_c, 0, 64, 0
2, 393024, Note_on_c, 0, 69, 95
2, 393116, Note_off_c, 0, 69, 0
2, 393120, Note_on_c, 0, 73, 95
2, 393200, Note_off_c, 0, 73, 0
2, 393216, Note_on_c, 0, 66, 95
2, 393308, Note_off_c, 0, 66, 0
2, 393312, Note_on_c, 0, 71, 95
2, 393404, Note_off_c, 0, 71, 0
2, 393408, Note_on_c, 0, 74, 95
2, 393500, Note_off_c, 0, 74, 0
2, 393504, Note_on_c, 0, 78, 95
2, 393596, Note_off_c, 0, 78, 0
2, 393600, Note_on_c, 0, 76, 92
2, 393692, Note_off_c, 0, 76, 0
2, 393696, Note_on_c, 0, 74, 89
2, 393788, Note_off_c, 0, 74, 0
2, 393792, Note_on_c, 0, 73, 86
2, 393884, Note_off_c, 0, 73, 0
2, 393888, Note_on_c, 0, 71, 83
2, 393980, Note_off_c, 0, 71, 0
2, 393984, Note_on_c, 0, 69, 80
2, 394364, Note_off_c, 0, 69, 0
2, 394368, Note_on_c, 0, 68, 77
2, 394688, Note_off_c, 0, 68, 0
2, 394752, Note_on_c, 0, 83, 105
2, 394844, Note_off_c, 0, 83, 0
2, 394848, Note_on_c, 0, 82, 95
2, 394940, Note_off_c, 0, 82, 0
2, 394944, Note_on_c, 0, 85, 95
2, 395036, Note_off_c, 0, 85, 0
2, 395040, Note_on_c, 0, 83, 95
2, 395132, Note_off_c, 0, 83, 0
2, 395136, Note_on_c, 0, 86, 95
2, 395228, Note_off_c, 0, 86, 0
2, 395232, Note_on_c, 0, 85, 95
2, 395324, Note_off_c, 0, 85, 0
2, 395328, Note_on_c, 0, 83, 95
2, 395420, Note_off_c, 0, 83, 0
2, 395424, Note_on_c, 0, 81, 95
2, 395516, Note_off_c, 0, 81, 0
2, 395520, Note_on_c, 0, 80, 95
2, 395612, Note_off_c, 0, 80, 0
2, 395616, Note_on_c, 0, 78, 95
2, 395708, Note_off_c, 0, 78, 0
2, 395712, Note_on_c, 0, 76, 95
2, 395804, Note_off_c, 0, 76, 0
2, 395808, Note_on_c, 0, 74, 95
2, 395900, Note_off_c, 0, 74, 0
2, 395904, Note_on_c, 0, 73, 95
2, 395996, Note_off_c, 0, 73, 0
2, 396000, Note_on_c, 0, 81, 95
2, 396092, Note_off_c, 0, 81, 0
2, 396096, Note_on_c, 0, 76, 95
2, 396188, Note_off_c, 0, 76, 0
2, 396192, Note_on_c, 0, 73, 95
2, 396284, Note_off_c, 0, 73, 0
2, 396288, Note_on_c, 0, 71, 95
2, 396380, Note_off_c, 0, 71, 0
2, 396384, Note_on_c, 0, 70, 95
2, 396476, Note_off_c, 0, 70, 0
2, 396480, Note_on_c, 0, 73, 95
2, 396572, Note_off_c, 0, 73, 0
2, 396576, Note_on_c, 0, 71, 95
2, 396668, Note_off_c, 0, 71, 0
2, 396672, Note_on_c, 0, 74, 95
2, 396764, Note_off_c, 0, 74, 0
2, 396768, Note_on_c, 0, 72, 95
2, 396860, Note_off_c, 0, 72, 0
2, 396864, Note_on_c, 0, 71, 95
2, 396956, Note_off_c, 0, 71, 0
2, 396960, Note_on_c, 0, 69, 95
2, 397052, Note_off_c, 0, 69, 0
2, 397056, Note_on_c, 0, 68, 95
2, 397148, Note_off_c, 0, 68, 0
2, 397152, Note_on_c, 0, 66, 95
2, 397244, Note_off_c, 0, 66, 0
2, 397248, Note_on_c, 0, 64, 95
2, 397340, Note_off_c, 0, 64, 0
2, 397344, Note_on_c, 0, 62, 95
2, 397436, Note_off_c, 0, 62, 0
2, 397440, Note_on_c, 0, 61, 95
2, 397532, Note_off_c, 0, 61, 0
2, 397536, Note_on_c, 0, 64, 95
2, 397628, Note_off_c, 0, 64, 0
2, 397632, Note_on_c, 0, 69, 95
2, 397724, Note_off_c, 0, 69, 0
2, 397728, Note_on_c, 0, 73, 95
2, 397808, Note_off_c, 0, 73, 0
2, 398016, Note_on_c, 0, 78, 95
2, 398108, Note_off_c, 0, 78, 0
2, 398112, Note_on_c, 0, 76, 95
2, 398204, Note_off_c, 0, 76, 0
2, 398208, Note_on_c, 0, 74, 95
2, 398300, Note_off_c, 0, 74, 0
2, 398304, Note_on_c, 0, 73, 95
2, 398396, Note_off_c, 0, 73, 0
2, 398400, Note_on_c, 0, 71, 95
2, 398492, Note_off_c, 0, 71, 0
2, 398496, Note_on_c, 0, 69, 95
2, 398588, Note_off_c, 0, 69, 0
2, 398592, Note_on_c, 0, 68, 95
2, 398672, Note_off_c, 0, 68, 0
2, 398784, Note_on_c, 0, 80, 95
2, 398876, Note_off_c, 0, 80, 0
2, 398880, Note_on_c, 0, 78, 95
2, 398972, Note_off_c, 0, 78, 0
2, 398976, Note_on_c, 0, 76, 95
2, 399068, Note_off_c, 0, 76, 0
2, 399072, Note_on_c, 0, 74, 95
2, 399164, Note_off_c, 0, 74, 0
2, 399168, Note_on_c, 0, 73, 95
2, 399260, Note_off_c, 0, 73, 0
2, 399264, Note_on_c, 0, 71, 95
2, 399356, Note_off_c, 0, 71, 0
2, 399360, Note_on_c, 0, 69, 96
2, 399440, Note_off_c, 0, 69, 0
2, 399552, Note_on_c, 0, 81, 97
2, 399644, Note_off_c, 0, 81, 0
2, 399648, Note_on_c, 0, 80, 97
2, 399740, Note_off_c, 0, 80, 0
2, 399744, Note_on_c, 0, 78, 98
2, 399836, Note_off_c, 0, 78, 0
2, 399840, Note_on_c, 0, 76, 98
2, 399932, Note_off_c, 0, 76, 0
2, 399936, Note_on_c, 0, 74, 99
2, 400028, Note_off_c, 0, 74, 0
2, 400032, Note_on_c, 0, 73, 99
2, 400124, Note_off_c, 0, 73, 0
2, 400128, Note_on_c, 0, 71, 100
2, 400448, Note_off_c, 0, 71, 0
2, 400512, Note_on_c, 0, 83, 102
2, 400672, Note_off_c, 0, 83, 0
2, 401664, Note_on_c, 0, 73, 70
2, 401664, Note_on_c, 0, 69, 70
2, 402428, Note_off_c, 0, 73, 0
2, 402428, Note_off_c, 0, 69, 0
2, 402432, Note_on_c, 0, 66, 70
2, 402432, Note_on_c, 0, 73, 70
2, 402752, Note_off_c, 0, 73, 0
2, 402816, Note_on_c, 0, 71, 70
2, 403100, Note_off_c, 0, 71, 0
2, 403104, Note_on_c, 0, 73, 70
2, 403196, Note_off_c, 0, 73, 0
2, 403200, Note_on_c, 0, 74, 70
2, 403580, Note_off_c, 0, 74, 0
2, 403584, Note_on_c, 0, 71, 70
2, 403780, Note_off_c, 0, 66, 0
2, 403964, Note_off_c, 0, 71, 0
2, 403968, Note_on_c, 0, 68, 70
2, 403968, Note_on_c, 0, 64, 70
2, 404288, Note_off_c, 0, 68, 0
2, 404288, Note_off_c, 0, 64, 0
2, 404352, Note_on_c, 0, 64, 70
2, 404732, Note_off_c, 0, 64, 0
2, 404736, Note_on_c, 0, 76, 70
2, 405504, Note_on_c, 0, 69, 70
2, 405824, Note_off_c, 0, 76, 0
2, 405888, Note_on_c, 0, 81, 70
2, 406172, Note_off_c, 0, 81, 0
2, 406176, Note_on_c, 0, 78, 70
2, 406268, Note_off_c, 0, 69, 0
2, 406268, Note_off_c, 0, 78, 0
2, 406272, Note_on_c, 0, 74, 70
2, 407360, Note_off_c, 0, 74, 0
2, 407424, Note_on_c, 0, 73, 70
2, 407808, Note_on_c, 0, 66, 70
2, 408068, Note_off_c, 0, 73, 0
2, 408192, Note_on_c, 0, 71, 70
2, 408192, Note_on_c, 0, 62, 70
2, 408432, Note_off_c, 0, 71, 0
2, 408452, Note_off_c, 0, 66, 0
2, 408480, Note_on_c, 0, 69, 70
2, 408560, Note_off_c, 0, 69, 0
2, 408576, Note_on_c, 0, 68, 70
2, 408836, Note_off_c, 0, 62, 0
2, 408896, Note_off_c, 0, 68, 0
2, 408960, Note_on_c, 0, 69, 70
2, 408960, Note_on_c, 0, 61, 70
2, 409280, Note_off_c, 0, 69, 0
2, 409280, Note_off_c, 0, 61, 0
2, 409344, Note_on_c, 0, 59, 70
2, 409344, Note_on_c, 0, 74, 80
2, 409384, Note_off_c, 0, 74, 0
2, 409392, Note_on_c, 0, 76, 79
2, 409432, Note_off_c, 0, 76, 0
2, 409440, Note_on_c, 0, 74, 78
2, 409480, Note_off_c, 0, 74, 0
2, 409488, Note_on_c, 0, 76, 77
2, 409528, Note_off_c, 0, 76, 0
2, 409536, Note_on_c, 0, 74, 76
2, 409576, Note_off_c, 0, 74, 0
2, 409584, Note_on_c, 0, 76, 75
2, 409624, Note_off_c, 0, 76, 0
2, 409632, Note_on_c, 0, 74, 74
2, 409664, Note_off_c, 0, 59, 0
2, 409672, Note_off_c, 0, 74, 0
2, 409680, Note_on_c, 0, 76, 73
2, 409720, Note_off_c, 0, 76, 0
2, 409728, Note_on_c, 0, 64, 70
2, 409728, Note_on_c, 0, 68, 70
2, 409728, Note_on_c, 0, 74, 72
2, 409768, Note_off_c, 0, 74, 0
2, 409776, Note_on_c, 0, 76, 71
2, 409816, Note_off_c, 0, 76, 0
2, 409824, Note_on_c, 0, 74, 69
2, 409864, Note_off_c, 0, 74, 0
2, 409872, Note_on_c, 0, 76, 68
2, 409912, Note_off_c, 0, 76, 0
2, 409920, Note_on_c, 0, 73, 67
2, 410008, Note_off_c, 0, 73, 0
2, 410016, Note_on_c, 0, 74, 65
2, 410104, Note_off_c, 0, 74, 0
2, 410108, Note_off_c, 0, 64, 0
2, 410108, Note_off_c, 0, 68, 0
2, 410112, Note_on_c, 0, 69, 70
2, 410112, Note_on_c, 0, 57, 70
2, 410112, Note_on_c, 0, 73, 70
2, 410204, Note_off_c, 0, 73, 0
2, 410208, Note_on_c, 0, 76, 70
2, 410300, Note_off_c, 0, 76, 0
2, 410304, Note_on_c, 0, 74, 70
2, 410396, Note_off_c, 0, 74, 0
2, 410400, Note_on_c, 0, 73, 70
2, 410432, Note_off_c, 0, 69, 0
2, 410432, Note_off_c, 0, 57, 0
2, 410492, Note_off_c, 0, 73, 0
2, 410496, Note_on_c, 0, 74, 70
2, 410588, Note_off_c, 0, 74, 0
2, 410592, Note_on_c, 0, 76, 70
2, 410684, Note_off_c, 0, 76, 0
2, 410688, Note_on_c, 0, 78, 70
2, 410780, Note_off_c, 0, 78, 0
2, 410784, Note_on_c, 0, 80, 70
2, 410876, Note_off_c, 0, 80, 0
2, 410880, Note_on_c, 0, 81, 70
2, 410972, Note_off_c, 0, 81, 0
2, 410976, Note_on_c, 0, 80, 70
2, 411068, Note_off_c, 0, 80, 0
2, 411072, Note_on_c, 0, 81, 70
2, 411164, Note_off_c, 0, 81, 0
2, 411168, Note_on_c, 0, 83, 70
2, 411260, Note_off_c, 0, 83, 0
2, 411264, Note_on_c, 0, 85, 70
2, 411356, Note_off_c, 0, 85, 0
2, 411360, Note_on_c, 0, 83, 70
2, 411452, Note_off_c, 0, 83, 0
2, 411456, Note_on_c, 0, 81, 70
2, 411548, Note_off_c, 0, 81, 0
2, 411552, Note_on_c, 0, 80, 70
2, 411644, Note_off_c, 0, 80, 0
2, 411648, Note_on_c, 0, 78, 70
2, 411740, Note_off_c, 0, 78, 0
2, 411744, Note_on_c, 0, 76, 70
2, 411836, Note_off_c, 0, 76, 0
2, 411840, Note_on_c, 0, 78, 70
2, 411932, Note_off_c, 0, 78, 0
2, 411936, Note_on_c, 0, 80, 70
2, 412028, Note_off_c, 0, 80, 0
2, 412032, Note_on_c, 0, 81, 70
2, 412124, Note_off_c, 0, 81, 0
2, 412128, Note_on_c, 0, 80, 70
2, 412220, Note_off_c, 0, 80, 0
2, 412224, Note_on_c, 0, 78, 70
2, 412316, Note_off_c, 0, 78, 0
2, 412320, Note_on_c, 0, 76, 70
2, 412412, Note_off_c, 0, 76, 0
2, 412416, Note_on_c, 0, 74, 70
2, 412508, Note_off_c, 0, 74, 0
2, 412512, Note_on_c, 0, 73, 70
2, 412604, Note_off_c, 0, 73, 0
2, 412608, Note_on_c, 0, 74, 70
2, 412700, Note_off_c, 0, 74, 0
2, 412704, Note_on_c, 0, 76, 70
2, 412796, Note_off_c, 0, 76, 0
2, 412800, Note_on_c, 0, 78, 70
2, 412892, Note_off_c, 0, 78, 0
2, 412896, Note_on_c, 0, 76, 70
2, 412988, Note_off_c, 0, 76, 0
2, 412992, Note_on_c, 0, 74, 70
2, 413084, Note_off_c, 0, 74, 0
2, 413088, Note_on_c, 0, 73, 70
2, 413168, Note_off_c, 0, 73, 0
2, 413184, Note_on_c, 0, 71, 70
2, 413276, Note_off_c, 0, 71, 0
2, 413280, Note_on_c, 0, 73, 70
2, 413372, Note_off_c, 0, 73, 0
2, 413376, Note_on_c, 0, 74, 70
2, 413468, Note_off_c, 0, 74, 0
2, 413472, Note_on_c, 0, 73, 70
2, 413564, Note_off_c, 0, 73, 0
2, 413568, Note_on_c, 0, 71, 70
2, 413660, Note_off_c, 0, 71, 0
2, 413664, Note_on_c, 0, 69, 70
2, 413756, Note_off_c, 0, 69, 0
2, 413760, Note_on_c, 0, 68, 70
2, 413852, Note_off_c, 0, 68, 0
2, 413872, Note_on_c, 0, 66, 70
2, 413952, Note_on_c, 0, 64, 70
2, 413964, Note_off_c, 0, 66, 0
2, 414044, Note_off_c, 0, 64, 0
2, 414048, Note_on_c, 0, 66, 70
2, 414140, Note_off_c, 0, 66, 0
2, 414144, Note_on_c, 0, 68, 70
2, 414236, Note_off_c, 0, 68, 0
2, 414240, Note_on_c, 0, 69, 70
2, 414332, Note_off_c, 0, 69, 0
2, 414336, Note_on_c, 0, 71, 70
2, 414428, Note_off_c, 0, 71, 0
2, 414432, Note_on_c, 0, 73, 70
2, 414524, Note_off_c, 0, 73, 0
2, 414528, Note_on_c, 0, 74, 70
2, 414620, Note_off_c, 0, 74, 0
2, 414624, Note_on_c, 0, 76, 70
2, 414704, Note_off_c, 0, 76, 0
2, 414720, Note_on_c, 0, 69, 80
2, 414812, Note_off_c, 0, 69, 0
2, 414816, Note_on_c, 0, 71, 71
2, 414908, Note_off_c, 0, 71, 0
2, 414912, Note_on_c, 0, 73, 73
2, 415004, Note_off_c, 0, 73, 0
2, 415008, Note_on_c, 0, 74, 75
2, 415100, Note_off_c, 0, 74, 0
2, 415104, Note_on_c, 0, 76, 77
2, 415196, Note_off_c, 0, 76, 0
2, 415200, Note_on_c, 0, 78, 79
2, 415292, Note_off_c, 0, 78, 0
2, 415296, Note_on_c, 0, 80, 81
2, 415388, Note_off_c, 0, 80, 0
2, 415392, Note_on_c, 0, 81, 83
2, 415484, Note_off_c, 0, 81, 0
2, 415488, Note_on_c, 0, 74, 80
2, 415580, Note_off_c, 0, 74, 0
2, 415584, Note_on_c, 0, 76, 71
2, 415676, Note_off_c, 0, 76, 0
2, 415680, Note_on_c, 0, 78, 73
2, 415772, Note_off_c, 0, 78, 0
2, 415776, Note_on_c, 0, 80, 75
2, 415868, Note_off_c, 0, 80, 0
2, 415872, Note_on_c, 0, 81, 77
2, 415964, Note_off_c, 0, 81, 0
2, 415968, Note_on_c, 0, 83, 79
2, 416060, Note_off_c, 0, 83, 0
2, 416064, Note_on_c, 0, 85, 81
2, 416156, Note_off_c, 0, 85, 0
2, 416160, Note_on_c, 0, 86, 83
2, 416240, Note_off_c, 0, 86, 0
2, 416256, Note_on_c, 0, 68, 70
2, 416348, Note_off_c, 0, 68, 0
2, 416352, Note_on_c, 0, 71, 70
2, 416444, Note_off_c, 0, 71, 0
2, 416448, Note_on_c, 0, 74, 70
2, 416540, Note_off_c, 0, 74, 0
2, 416544, Note_on_c, 0, 80, 70
2, 416624, Note_off_c, 0, 80, 0
2, 416640, Note_on_c, 0, 69, 70
2, 416732, Note_off_c, 0, 69, 0
2, 416736, Note_on_c, 0, 73, 70
2, 416828, Note_off_c, 0, 73, 0
2, 416832, Note_on_c, 0, 76, 70
2, 416924, Note_off_c, 0, 76, 0
2, 416928, Note_on_c, 0, 81, 70
2, 417008, Note_off_c, 0, 81, 0
2, 417024, Note_on_c, 0, 78, 70
2, 417116, Note_off_c, 0, 78, 0
2, 417120, Note_on_c, 0, 79, 70
2, 417212, Note_off_c, 0, 79, 0
2, 417216, Note_on_c, 0, 78, 70
2, 417308, Note_off_c, 0, 78, 0
2, 417312, Note_on_c, 0, 76, 70
2, 417404, Note_off_c, 0, 76, 0
2, 417408, Note_on_c, 0, 74, 70
2, 417500, Note_off_c, 0, 74, 0
2, 417504, Note_on_c, 0, 76, 70
2, 417596, Note_off_c, 0, 76, 0
2, 417600, Note_on_c, 0, 74, 70
2, 417692, Note_off_c, 0, 74, 0
2, 417696, Note_on_c, 0, 73, 70
2, 417788, Note_off_c, 0, 73, 0
2, 417792, Note_on_c, 0, 71, 71
2, 417884, Note_off_c, 0, 71, 0
2, 417888, Note_on_c, 0, 73, 74
2, 417980, Note_off_c, 0, 73, 0
2, 417984, Note_on_c, 0, 74, 77
2, 418076, Note_off_c, 0, 74, 0
2, 418080, Note_on_c, 0, 76, 80
2, 418172, Note_off_c, 0, 76, 0
2, 418176, Note_on_c, 0, 78, 84
2, 418268, Note_off_c, 0, 78, 0
2, 418272, Note_on_c, 0, 80, 87
2, 418364, Note_off_c, 0, 80, 0
2, 418368, Note_on_c, 0, 81, 90
2, 418460, Note_off_c, 0, 81, 0
2, 418464, Note_on_c, 0, 83, 93
2, 418556, Note_off_c, 0, 83, 0
2, 418560, Note_on_c, 0, 85, 95
2, 418652, Note_off_c, 0, 85, 0
2, 418656, Note_on_c, 0, 83, 92
2, 418748, Note_off_c, 0, 83, 0
2, 418752, Note_on_c, 0, 81, 89
2, 418844, Note_off_c, 0, 81, 0
2, 418848, Note_on_c, 0, 80, 85
2, 418940, Note_off_c, 0, 80, 0
2, 418944, Note_on_c, 0, 78, 82
2, 419036, Note_off_c, 0, 78, 0
2, 419040, Note_on_c, 0, 76, 79
2, 419132, Note_off_c, 0, 76, 0
2, 419136, Note_on_c, 0, 74, 75
2, 419228, Note_off_c, 0, 74, 0
2, 419232, Note_on_c, 0, 73, 72
2, 419312, Note_off_c, 0, 73, 0
2, 419328, Note_on_c, 0, 74, 70
2, 419420, Note_off_c, 0, 74, 0
2, 419424, Note_on_c, 0, 76, 70
2, 419516, Note_off_c, 0, 76, 0
2, 419520, Note_on_c, 0, 78, 70
2, 419612, Note_off_c, 0, 78, 0
2, 419616, Note_on_c, 0, 80, 70
2, 419708, Note_off_c, 0, 80, 0
2, 419712, Note_on_c, 0, 81, 70
2, 419804, Note_off_c, 0, 81, 0
2, 419808, Note_on_c, 0, 83, 70
2, 419900, Note_off_c, 0, 83, 0
2, 419904, Note_on_c, 0, 85, 70
2, 419996, Note_off_c, 0, 85, 0
2, 420000, Note_on_c, 0, 86, 70
2, 420092, Note_off_c, 0, 86, 0
2, 420096, Note_on_c, 0, 88, 70
2, 420188, Note_off_c, 0, 88, 0
2, 420192, Note_on_c, 0, 86, 70
2, 420284, Note_off_c, 0, 86, 0
2, 420288, Note_on_c, 0, 85, 70
2, 420380, Note_off_c, 0, 85, 0
2, 420384, Note_on_c, 0, 83, 70
2, 420476, Note_off_c, 0, 83, 0
2, 420480, Note_on_c, 0, 81, 70
2, 420572, Note_off_c, 0, 81, 0
2, 420576, Note_on_c, 0, 80, 70
2, 420668, Note_off_c, 0, 80, 0
2, 420672, Note_on_c, 0, 78, 70
2, 420764, Note_off_c, 0, 78, 0
2, 420768, Note_on_c, 0, 76, 70
2, 420848, Note_off_c, 0, 76, 0
2, 420864, Note_on_c, 0, 78, 95
2, 420956, Note_off_c, 0, 78, 0
2, 420960, Note_on_c, 0, 79, 95
2, 421052, Note_off_c, 0, 79, 0
2, 421056, Note_on_c, 0, 78, 95
2, 421148, Note_off_c, 0, 78, 0
2, 421152, Note_on_c, 0, 76, 95
2, 421244, Note_off_c, 0, 76, 0
2, 421248, Note_on_c, 0, 74, 95
2, 421340, Note_off_c, 0, 74, 0
2, 421344, Note_on_c, 0, 73, 95
2, 421436, Note_off_c, 0, 73, 0
2, 421440, Note_on_c, 0, 71, 95
2, 421532, Note_off_c, 0, 71, 0
2, 421536, Note_on_c, 0, 69, 95
2, 421628, Note_off_c, 0, 69, 0
2, 421632, Note_on_c, 0, 68, 95
2, 421724, Note_off_c, 0, 68, 0
2, 421728, Note_on_c, 0, 69, 95
2, 421820, Note_off_c, 0, 69, 0
2, 421824, Note_on_c, 0, 68, 95
2, 421916, Note_off_c, 0, 68, 0
2, 421920, Note_on_c, 0, 66, 95
2, 422012, Note_off_c, 0, 66, 0
2, 422016, Note_on_c, 0, 64, 95
2, 422108, Note_off_c, 0, 64, 0
2, 422112, Note_on_c, 0, 62, 95
2, 422204, Note_off_c, 0, 62, 0
2, 422208, Note_on_c, 0, 61, 95
2, 422300, Note_off_c, 0, 61, 0
2, 422304, Note_on_c, 0, 59, 95
2, 422384, Note_off_c, 0, 59, 0
2, 422400, Note_on_c, 0, 57, 96
2, 422588, Note_off_c, 0, 57, 0
2, 422592, Note_on_c, 0, 59, 97
2, 422684, Note_off_c, 0, 59, 0
2, 422688, Note_on_c, 0, 61, 97
2, 422780, Note_off_c, 0, 61, 0
2, 422784, Note_on_c, 0, 62, 98
2, 422876, Note_off_c, 0, 62, 0
2, 422880, Note_on_c, 0, 64, 99
2, 422972, Note_off_c, 0, 64, 0
2, 422976, Note_on_c, 0, 66, 99
2, 423068, Note_off_c, 0, 66, 0
2, 423072, Note_on_c, 0, 68, 100
2, 423164, Note_off_c, 0, 68, 0
2, 423168, Note_on_c, 0, 69, 101
2, 423260, Note_off_c, 0, 69, 0
2, 423264, Note_on_c, 0, 71, 101
2, 423356, Note_off_c, 0, 71, 0
2, 423360, Note_on_c, 0, 73, 102
2, 423452, Note_off_c, 0, 73, 0
2, 423456, Note_on_c, 0, 74, 102
2, 423548, Note_off_c, 0, 74, 0
2, 423552, Note_on_c, 0, 76, 103
2, 423644, Note_off_c, 0, 76, 0
2, 423648, Note_on_c, 0, 78, 104
2, 423740, Note_off_c, 0, 78, 0
2, 423744, Note_on_c, 0, 80, 104
2, 423836, Note_off_c, 0, 80, 0
2, 423840, Note_on_c, 0, 81, 105
2, 423920, Note_off_c, 0, 81, 0
2, 423936, Note_on_c, 0, 79, 110
2, 424028, Note_off_c, 0, 79, 0
2, 424032, Note_on_c, 0, 81, 95
2, 424124, Note_off_c, 0, 81, 0
2, 424128, Note_on_c, 0, 78, 95
2, 424220, Note_off_c, 0, 78, 0
2, 424224, Note_on_c, 0, 78, 95
2, 424316, Note_off_c, 0, 78, 0
2, 424320, Note_on_c, 0, 76, 95
2, 424412, Note_off_c, 0, 76, 0
2, 424416, Note_on_c, 0, 78, 95
2, 424508, Note_off_c, 0, 78, 0
2, 424512, Note_on_c, 0, 74, 95
2, 424604, Note_off_c, 0, 74, 0
2, 424608, Note_on_c, 0, 76, 95
2, 424700, Note_off_c, 0, 76, 0
2, 424704, Note_on_c, 0, 73, 95
2, 424796, Note_off_c, 0, 73, 0
2, 424800, Note_on_c, 0, 74, 95
2, 424892, Note_off_c, 0, 74, 0
2, 424896, Note_on_c, 0, 71, 95
2, 424988, Note_off_c, 0, 71, 0
2, 424992, Note_on_c, 0, 73, 95
2, 425084, Note_off_c, 0, 73, 0
2, 425088, Note_on_c, 0, 69, 95
2, 425180, Note_off_c, 0, 69, 0
2, 425184, Note_on_c, 0, 71, 95
2, 425276, Note_off_c, 0, 71, 0
2, 425280, Note_on_c, 0, 67, 95
2, 425372, Note_off_c, 0, 67, 0
2, 425376, Note_on_c, 0, 69, 95
2, 425456, Note_off_c, 0, 69, 0
2, 425472, Note_on_c, 0, 66, 95
2, 425596, Note_off_c, 0, 66, 0
2, 425600, Note_on_c, 0, 62, 95
2, 425724, Note_off_c, 0, 62, 0
2, 425728, Note_on_c, 0, 69, 95
2, 425852, Note_off_c, 0, 69, 0
2, 425856, Note_on_c, 0, 66, 95
2, 425980, Note_off_c, 0, 66, 0
2, 425984, Note_on_c, 0, 74, 95
2, 426108, Note_off_c, 0, 74, 0
2, 426112, Note_on_c, 0, 69, 95
2, 426236, Note_off_c, 0, 69, 0
2, 426240, Note_on_c, 0, 78, 95
2, 426364, Note_off_c, 0, 78, 0
2, 426368, Note_on_c, 0, 74, 95
2, 426492, Note_off_c, 0, 74, 0
2, 426496, Note_on_c, 0, 81, 95
2, 426620, Note_off_c, 0, 81, 0
2, 426624, Note_on_c, 0, 78, 95
2, 426748, Note_off_c, 0, 78, 0
2, 426752, Note_on_c, 0, 86, 95
2, 426876, Note_off_c, 0, 86, 0
2, 426880, Note_on_c, 0, 81, 95
2, 426980, Note_off_c, 0, 81, 0
2, 427104, Note_on_c, 0, 81, 95
2, 427196, Note_off_c, 0, 81, 0
2, 427200, Note_on_c, 0, 84, 95
2, 427292, Note_off_c, 0, 84, 0
2, 427296, Note_on_c, 0, 81, 95
2, 427388, Note_off_c, 0, 81, 0
2, 427392, Note_on_c, 0, 78, 95
2, 427484, Note_off_c, 0, 78, 0
2, 427488, Note_on_c, 0, 81, 95
2, 427580, Note_off_c, 0, 81, 0
2, 427584, Note_on_c, 0, 75, 95
2, 427676, Note_off_c, 0, 75, 0
2, 427680, Note_on_c, 0, 78, 95
2, 427772, Note_off_c, 0, 78, 0
2, 427776, Note_on_c, 0, 72, 95
2, 427868, Note_off_c, 0, 72, 0
2, 427872, Note_on_c, 0, 75, 95
2, 427964, Note_off_c, 0, 75, 0
2, 427968, Note_on_c, 0, 69, 95
2, 428060, Note_off_c, 0, 69, 0
2, 428064, Note_on_c, 0, 72, 95
2, 428156, Note_off_c, 0, 72, 0
2, 428160, Note_on_c, 0, 66, 95
2, 428252, Note_off_c, 0, 66, 0
2, 428256, Note_on_c, 0, 69, 95
2, 428348, Note_off_c, 0, 69, 0
2, 428352, Note_on_c, 0, 63, 95
2, 428444, Note_off_c, 0, 63, 0
2, 428448, Note_on_c, 0, 66, 95
2, 428528, Note_off_c, 0, 66, 0
2, 428640, Note_on_c, 0, 64, 95
2, 428732, Note_off_c, 0, 64, 0
2, 428736, Note_on_c, 0, 63, 95
2, 428828, Note_off_c, 0, 63, 0
2, 428832, Note_on_c, 0, 64, 95
2, 428924, Note_off_c, 0, 64, 0
2, 428928, Note_on_c, 0, 66, 95
2, 429020, Note_off_c, 0, 66, 0
2, 429024, Note_on_c, 0, 64, 95
2, 429116, Note_off_c, 0, 64, 0
2, 429120, Note_on_c, 0, 68, 95
2, 429212, Note_off_c, 0, 68, 0
2, 429216, Note_on_c, 0, 64, 95
2, 429308, Note_off_c, 0, 64, 0
2, 429312, Note_on_c, 0, 69, 95
2, 429404, Note_off_c, 0, 69, 0
2, 429408, Note_on_c, 0, 64, 95
2, 429500, Note_off_c, 0, 64, 0
2, 429504, Note_on_c, 0, 71, 95
2, 429596, Note_off_c, 0, 71, 0
2, 429600, Note_on_c, 0, 64, 95
2, 429692, Note_off_c, 0, 64, 0
2, 429696, Note_on_c, 0, 73, 95
2, 429788, Note_off_c, 0, 73, 0
2, 429792, Note_on_c, 0, 64, 95
2, 429884, Note_off_c, 0, 64, 0
2, 429888, Note_on_c, 0, 74, 95
2, 429980, Note_off_c, 0, 74, 0
2, 429984, Note_on_c, 0, 64, 95
2, 430064, Note_off_c, 0, 64, 0
2, 430176, Note_on_c, 0, 76, 95
2, 430268, Note_off_c, 0, 76, 0
2, 430272, Note_on_c, 0, 75, 95
2, 430364, Note_off_c, 0, 75, 0
2, 430368, Note_on_c, 0, 76, 95
2, 430460, Note_off_c, 0, 76, 0
2, 430464, Note_on_c, 0, 78, 95
2, 430556, Note_off_c, 0, 78, 0
2, 430560, Note_on_c, 0, 76, 95
2, 430652, Note_off_c, 0, 76, 0
2, 430656, Note_on_c, 0, 80, 95
2, 430748, Note_off_c, 0, 80, 0
2, 430752, Note_on_c, 0, 76, 95
2, 430844, Note_off_c, 0, 76, 0
2, 430848, Note_on_c, 0, 81, 95
2, 430940, Note_off_c, 0, 81, 0
2, 430944, Note_on_c, 0, 76, 95
2, 431036, Note_off_c, 0, 76, 0
2, 431040, Note_on_c, 0, 83, 95
2, 431132, Note_off_c, 0, 83, 0
2, 431136, Note_on_c, 0, 76, 95
2, 431228, Note_off_c, 0, 76, 0
2, 431232, Note_on_c, 0, 85, 95
2, 431324, Note_off_c, 0, 85, 0
2, 431328, Note_on_c, 0, 76, 95
2, 431420, Note_off_c, 0, 76, 0
2, 431424, Note_on_c, 0, 86, 95
2, 431516, Note_off_c, 0, 86, 0
2, 431520, Note_on_c, 0, 76, 95
2, 431612, Note_off_c, 0, 76, 0
2, 431616, Note_on_c, 0, 88, 95
2, 431708, Note_off_c, 0, 88, 0
2, 431712, Note_on_c, 0, 85, 95
2, 431804, Note_off_c, 0, 85, 0
2, 431808, Note_on_c, 0, 80, 95
2, 431900, Note_off_c, 0, 80, 0
2, 431904, Note_on_c, 0, 81, 95
2, 431996, Note_off_c, 0, 81, 0
2, 432000, Note_on_c, 0, 85, 95
2, 432092, Note_off_c, 0, 85, 0
2, 432096, Note_on_c, 0, 81, 95
2, 432188, Note_off_c, 0, 81, 0
2, 432192, Note_on_c, 0, 74, 95
2, 432284, Note_off_c, 0, 74, 0
2, 432288, Note_on_c, 0, 76, 95
2, 432380, Note_off_c, 0, 76, 0
2, 432384, Note_on_c, 0, 81, 95
2, 432476, Note_off_c, 0, 81, 0
2, 432480, Note_on_c, 0, 76, 95
2, 432572, Note_off_c, 0, 76, 0
2, 432576, Note_on_c, 0, 72, 95
2, 432668, Note_off_c, 0, 72, 0
2, 432672, Note_on_c, 0, 73, 95
2, 432764, Note_off_c, 0, 73, 0
2, 432768, Note_on_c, 0, 76, 95
2, 432860, Note_off_c, 0, 76, 0
2, 432864, Note_on_c, 0, 73, 95
2, 432956, Note_off_c, 0, 73, 0
2, 432960, Note_on_c, 0, 68, 95
2, 433052, Note_off_c, 0, 68, 0
2, 433056, Note_on_c, 0, 69, 95
2, 433148, Note_off_c, 0, 69, 0
2, 433248, Note_on_c, 0, 64, 85
2, 433340, Note_off_c, 0, 64, 0
2, 433344, Note_on_c, 0, 66, 86
2, 433436, Note_off_c, 0, 66, 0
2, 433440, Note_on_c, 0, 68, 87
2, 433532, Note_off_c, 0, 68, 0
2, 433536, Note_on_c, 0, 69, 88
2, 433628, Note_off_c, 0, 69, 0
2, 433632, Note_on_c, 0, 71, 89
2, 433724, Note_off_c, 0, 71, 0
2, 433728, Note_on_c, 0, 73, 90
2, 433820, Note_off_c, 0, 73, 0
2, 433824, Note_on_c, 0, 74, 91
2, 433916, Note_off_c, 0, 74, 0
2, 433920, Note_on_c, 0, 76, 92
2, 434012, Note_off_c, 0, 76, 0
2, 434016, Note_on_c, 0, 78, 93
2, 434108, Note_off_c, 0, 78, 0
2, 434112, Note_on_c, 0, 80, 94
2, 434204, Note_off_c, 0, 80, 0
2, 434208, Note_on_c, 0, 81, 95
2, 434300, Note_off_c, 0, 81, 0
2, 434304, Note_on_c, 0, 83, 96
2, 434396, Note_off_c, 0, 83, 0
2, 434400, Note_on_c, 0, 85, 97
2, 434492, Note_off_c, 0, 85, 0
2, 434496, Note_on_c, 0, 86, 98
2, 434588, Note_off_c, 0, 86, 0
2, 434592, Note_on_c, 0, 88, 99
2, 434684, Note_off_c, 0, 88, 0
2, 434688, Note_on_c, 0, 83, 100
2, 434688, Note_on_c, 0, 64, 100
2, 434728, Note_off_c, 0, 83, 0
2, 434736, Note_on_c, 0, 85, 100
2, 434776, Note_off_c, 0, 64, 0
2, 434776, Note_off_c, 0, 85, 0
2, 434784, Note_on_c, 0, 83, 100
2, 434784, Note_on_c, 0, 74, 100
2, 434824, Note_off_c, 0, 83, 0
2, 434832, Note_on_c, 0, 85, 100
2, 434872, Note_off_c, 0, 74, 0
2, 434872, Note_off_c, 0, 85, 0
2, 434880, Note_on_c, 0, 83, 100
2, 434880, Note_on_c, 0, 68, 100
2, 434920, Note_off_c, 0, 83, 0
2, 434928, Note_on_c, 0, 85, 100
2, 434968, Note_off_c, 0, 68, 0
2, 434968, Note_off_c, 0, 85, 0
2, 434976, Note_on_c, 0, 83, 100
2, 434976, Note_on_c, 0, 74, 100
2, 435016, Note_off_c, 0, 83, 0
2, 435024, Note_on_c, 0, 85, 100
2, 435064, Note_off_c, 0, 74, 0
2, 435064, Note_off_c, 0, 85, 0
2, 435072, Note_on_c, 0, 83, 100
2, 435072, Note_on_c, 0, 64, 100
2, 435112, Note_off_c, 0, 83, 0
2, 435120, Note_on_c, 0, 85, 100
2, 435160, Note_off_c, 0, 64, 0
2, 435160, Note_off_c, 0, 85, 0
2, 435168, Note_on_c, 0, 83, 100
2, 435168, Note_on_c, 0, 74, 100
2, 435208, Note_off_c, 0, 83, 0
2, 435216, Note_on_c, 0, 85, 100
2, 435256, Note_off_c, 0, 74, 0
2, 435256, Note_off_c, 0, 85, 0
2, 435264, Note_on_c, 0, 83, 100
2, 435264, Note_on_c, 0, 68, 100
2, 435304, Note_off_c, 0, 83, 0
2, 435312, Note_on_c, 0, 85, 100
2, 435352, Note_off_c, 0, 68, 0
2, 435352, Note_off_c, 0, 85, 0
2, 435360, Note_on_c, 0, 83, 100
2, 435360, Note_on_c, 0, 74, 100
2, 435400, Note_off_c, 0, 83, 0
2, 435408, Note_on_c, 0, 85, 100
2, 435448, Note_off_c, 0, 74, 0
2, 435448, Note_off_c, 0, 85, 0
2, 435456, Note_on_c, 0, 83, 100
2, 435456, Note_on_c, 0, 64, 100
2, 435496, Note_off_c, 0, 83, 0
2, 435504, Note_on_c, 0, 85, 100
2, 435544, Note_off_c, 0, 64, 0
2, 435544, Note_off_c, 0, 85, 0
2, 435552, Note_on_c, 0, 83, 100
2, 435552, Note_on_c, 0, 74, 100
2, 435592, Note_off_c, 0, 83, 0
2, 435600, Note_on_c, 0, 85, 100
2, 435640, Note_off_c, 0, 74, 0
2, 435640, Note_off_c, 0, 85, 0
2, 435648, Note_on_c, 0, 83, 100
2, 435648, Note_on_c, 0, 68, 100
2, 435688, Note_off_c, 0, 83, 0
2, 435696, Note_on_c, 0, 85, 100
2, 435736, Note_off_c, 0, 68, 0
2, 435736, Note_off_c, 0, 85, 0
2, 435744, Note_on_c, 0, 83, 100
2, 435744, Note_on_c, 0, 74, 100
2, 435784, Note_off_c, 0, 83, 0
2, 435792, Note_on_c, 0, 85, 100
2, 435832, Note_off_c, 0, 74, 0
2, 435832, Note_off_c, 0, 85, 0
2, 435840, Note_on_c, 0, 83, 100
2, 435840, Note_on_c, 0, 64, 100
2, 435880, Note_off_c, 0, 83, 0
2, 435888, Note_on_c, 0, 85, 100
2, 435928, Note_off_c, 0, 64, 0
2, 435928, Note_off_c, 0, 85, 0
2, 435936, Note_on_c, 0, 83, 100
2, 435936, Note_on_c, 0, 74, 100
2, 435976, Note_off_c, 0, 83, 0
2, 435984, Note_on_c, 0, 85, 100
2, 436024, Note_off_c, 0, 74, 0
2, 436024, Note_off_c, 0, 85, 0
2, 436032, Note_on_c, 0, 81, 100
2, 436032, Note_on_c, 0, 68, 100
2, 436120, Note_off_c, 0, 81, 0
2, 436120, Note_off_c, 0, 68, 0
2, 436128, Note_on_c, 0, 83, 100
2, 436128, Note_on_c, 0, 74, 100
2, 436216, Note_off_c, 0, 83, 0
2, 436216, Note_off_c, 0, 74, 0
2, 436224, Note_on_c, 0, 81, 95
2, 436224, Note_on_c, 0, 73, 95
2, 436224, Note_on_c, 0, 69, 95
2, 436604, Note_off_c, 0, 81, 0
2, 436604, Note_off_c, 0, 73, 0
2, 436604, Note_off_c, 0, 69, 0
2, 456192, Note_on_c, 0, 64, 110
2, 457916, Note_off_c, 0, 64, 64
2, 457920, Note_on_c, 0, 66, 95
2, 458012, Note_off_c, 0, 66, 0
2, 458016, Note_on_c, 0, 68, 95
2, 458108, Note_off_c, 0, 68, 0
2, 458112, Note_on_c, 0, 69, 95
2, 458204, Note_off_c, 0, 69, 0
2, 458208, Note_on_c, 0, 71, 95
2, 458300, Note_off_c, 0, 71, 0
2, 458304, Note_on_c, 0, 73, 95
2, 458396, Note_off_c, 0, 73, 0
2, 458400, Note_on_c, 0, 74, 95
2, 458492, Note_off_c, 0, 74, 0
2, 458496, Note_on_c, 0, 76, 95
2, 458684, Note_off_c, 0, 76, 0
2, 458688, Note_on_c, 0, 78, 95
2, 458780, Note_off_c, 0, 78, 0
2, 458784, Note_on_c, 0, 80, 95
2, 458876, Note_off_c, 0, 80, 0
2, 458880, Note_on_c, 0, 81, 95
2, 458972, Note_off_c, 0, 81, 0
2, 458976, Note_on_c, 0, 83, 95
2, 459068, Note_off_c, 0, 83, 0
2, 459072, Note_on_c, 0, 85, 95
2, 459164, Note_off_c, 0, 85, 0
2, 459168, Note_on_c, 0, 86, 95
2, 459248, Note_off_c, 0, 86, 0
2, 459264, Note_on_c, 0, 73, 95
2, 459264, Note_on_c, 0, 64, 95
2, 459264, Note_on_c, 0, 88, 95
2, 459356, Note_off_c, 0, 88, 0
2, 459360, Note_on_c, 0, 85, 95
2, 459452, Note_off_c, 0, 85, 0
2, 459456, Note_on_c, 0, 81, 95
2, 459548, Note_off_c, 0, 81, 0
2, 459552, Note_on_c, 0, 76, 95
2, 459584, Note_off_c, 0, 73, 0
2, 459584, Note_off_c, 0, 64, 0
2, 459632, Note_off_c, 0, 76, 0
2, 459648, Note_on_c, 0, 88, 95
2, 459648, Note_on_c, 0, 73, 95
2, 459688, Note_off_c, 0, 88, 0
2, 459728, Note_off_c, 0, 73, 0
2, 459744, Note_on_c, 0, 76, 95
2, 459836, Note_off_c, 0, 76, 0
2, 459840, Note_on_c, 0, 87, 95
2, 459840, Note_on_c, 0, 72, 95
2, 459880, Note_off_c, 0, 87, 0
2, 459920, Note_off_c, 0, 72, 0
2, 459936, Note_on_c, 0, 75, 95
2, 460028, Note_off_c, 0, 75, 0
2, 460032, Note_on_c, 0, 73, 95
2, 460032, Note_on_c, 0, 64, 95
2, 460032, Note_on_c, 0, 88, 95
2, 460124, Note_off_c, 0, 88, 0
2, 460128, Note_on_c, 0, 85, 95
2, 460220, Note_off_c, 0, 85, 0
2, 460224, Note_on_c, 0, 81, 95
2, 460316, Note_off_c, 0, 81, 0
2, 460320, Note_on_c, 0, 76, 95
2, 460352, Note_off_c, 0, 73, 0
2, 460352, Note_off_c, 0, 64, 0
2, 460400, Note_off_c, 0, 76, 0
2, 460416, Note_on_c, 0, 88, 95
2, 460416, Note_on_c, 0, 73, 95
2, 460456, Note_off_c, 0, 88, 0
2, 460496, Note_off_c, 0, 73, 0
2, 460512, Note_on_c, 0, 76, 95
2, 460604, Note_off_c, 0, 76, 0
2, 460608, Note_on_c, 0, 87, 95
2, 460608, Note_on_c, 0, 72, 95
2, 460648, Note_off_c, 0, 87, 0
2, 460688, Note_off_c, 0, 72, 0
2, 460704, Note_on_c, 0, 75, 95
2, 460796, Note_off_c, 0, 75, 0
2, 460800, Note_on_c, 0, 73, 95
2, 460800, Note_on_c, 0, 64, 95
2, 460800, Note_on_c, 0, 88, 95
2, 460892, Note_off_c, 0, 88, 0
2, 460896, Note_on_c, 0, 86, 95
2, 460988, Note_off_c, 0, 86, 0
2, 460992, Note_on_c, 0, 85, 95
2, 461084, Note_off_c, 0, 85, 0
2, 461088, Note_on_c, 0, 83, 95
2, 461120, Note_off_c, 0, 73, 0
2, 461120, Note_off_c, 0, 64, 0
2, 461180, Note_off_c, 0, 83, 0
2, 461184, Note_on_c, 0, 81, 95
2, 461276, Note_off_c, 0, 81, 0
2, 461280, Note_on_c, 0, 80, 95
2, 461372, Note_off_c, 0, 80, 0
2, 461376, Note_on_c, 0, 78, 95
2, 461468, Note_off_c, 0, 78, 0
2, 461472, Note_on_c, 0, 76, 95
2, 461564, Note_off_c, 0, 76, 0
2, 461568, Note_on_c, 0, 74, 95
2, 461660, Note_off_c, 0, 74, 0
2, 461664, Note_on_c, 0, 76, 95
2, 461756, Note_off_c, 0, 76, 0
2, 461760, Note_on_c, 0, 78, 95
2, 461852, Note_off_c, 0, 78, 0
2, 461856, Note_on_c, 0, 76, 95
2, 461948, Note_off_c, 0, 76, 0
2, 461952, Note_on_c, 0, 81, 95
2, 462044, Note_off_c, 0, 81, 0
2, 462048, Note_on_c, 0, 76, 95
2, 462140, Note_off_c, 0, 76, 0
2, 462144, Note_on_c, 0, 85, 95
2, 462236, Note_off_c, 0, 85, 0
2, 462240, Note_on_c, 0, 81, 95
2, 462320, Note_off_c, 0, 81, 0
2, 462336, Note_on_c, 0, 71, 95
2, 462336, Note_on_c, 0, 64, 95
2, 462336, Note_on_c, 0, 86, 95
2, 462428, Note_off_c, 0, 86, 0
2, 462432, Note_on_c, 0, 83, 95
2, 462524, Note_off_c, 0, 83, 0
2, 462528, Note_on_c, 0, 80, 95
2, 462620, Note_off_c, 0, 80, 0
2, 462624, Note_on_c, 0, 74, 95
2, 462656, Note_off_c, 0, 71, 0
2, 462656, Note_off_c, 0, 64, 0
2, 462704, Note_off_c, 0, 74, 0
2, 462720, Note_on_c, 0, 86, 95
2, 462720, Note_on_c, 0, 71, 95
2, 462760, Note_off_c, 0, 86, 0
2, 462800, Note_off_c, 0, 71, 0
2, 462816, Note_on_c, 0, 74, 95
2, 462908, Note_off_c, 0, 74, 0
2, 462912, Note_on_c, 0, 85, 95
2, 462912, Note_on_c, 0, 70, 95
2, 462952, Note_off_c, 0, 85, 0
2, 462992, Note_off_c, 0, 70, 0
2, 463008, Note_on_c, 0, 73, 95
2, 463100, Note_off_c, 0, 73, 0
2, 463104, Note_on_c, 0, 71, 95
2, 463104, Note_on_c, 0, 64, 95
2, 463108, Note_on_c, 0, 86, 95
2, 463200, Note_off_c, 0, 86, 0
2, 463200, Note_on_c, 0, 83, 95
2, 463292, Note_off_c, 0, 83, 0
2, 463296, Note_on_c, 0, 80, 95
2, 463388, Note_off_c, 0, 80, 0
2, 463392, Note_on_c, 0, 74, 95
2, 463424, Note_off_c, 0, 71, 0
2, 463424, Note_off_c, 0, 64, 0
2, 463472, Note_off_c, 0, 74, 0
2, 463488, Note_on_c, 0, 86, 95
2, 463488, Note_on_c, 0, 71, 95
2, 463528, Note_off_c, 0, 86, 0
2, 463568, Note_off_c, 0, 71, 0
2, 463584, Note_on_c, 0, 74, 95
2, 463676, Note_off_c, 0, 74, 0
2, 463680, Note_on_c, 0, 85, 95
2, 463680, Note_on_c, 0, 70, 95
2, 463720, Note_off_c, 0, 85, 0
2, 463760, Note_off_c, 0, 70, 0
2, 463776, Note_on_c, 0, 73, 95
2, 463868, Note_off_c, 0, 73, 0
2, 463872, Note_on_c, 0, 71, 95
2, 463872, Note_on_c, 0, 64, 95
2, 463876, Note_on_c, 0, 86, 95
2, 463968, Note_off_c, 0, 86, 0
2, 463968, Note_on_c, 0, 85, 95
2, 464060, Note_off_c, 0, 85, 0
2, 464064, Note_on_c, 0, 83, 95
2, 464156, Note_off_c, 0, 83, 0
2, 464160, Note_on_c, 0, 81, 95
2, 464192, Note_off_c, 0, 71, 0
2, 464192, Note_off_c, 0, 64, 0
2, 464252, Note_off_c, 0, 81, 0
2, 464256, Note_on_c, 0, 80, 95
2, 464348, Note_off_c, 0, 80, 0
2, 464352, Note_on_c, 0, 78, 95
2, 464444, Note_off_c, 0, 78, 0
2, 464448, Note_on_c, 0, 76, 95
2, 464540, Note_off_c, 0, 76, 0
2, 464544, Note_on_c, 0, 74, 95
2, 464636, Note_off_c, 0, 74, 0
2, 464640, Note_on_c, 0, 73, 95
2, 464732, Note_off_c, 0, 73, 0
2, 464736, Note_on_c, 0, 74, 95
2, 464828, Note_off_c, 0, 74, 0
2, 464832, Note_on_c, 0, 76, 95
2, 464924, Note_off_c, 0, 76, 0
2, 464928, Note_on_c, 0, 74, 95
2, 465020, Note_off_c, 0, 74, 0
2, 465024, Note_on_c, 0, 80, 95
2, 465116, Note_off_c, 0, 80, 0
2, 465120, Note_on_c, 0, 74, 95
2, 465212, Note_off_c, 0, 74, 0
2, 465216, Note_on_c, 0, 83, 95
2, 465308, Note_off_c, 0, 83, 0
2, 465312, Note_on_c, 0, 80, 95
2, 465392, Note_off_c, 0, 80, 0
2, 465408, Note_on_c, 0, 69, 95
2, 465408, Note_on_c, 0, 63, 95
2, 465408, Note_on_c, 0, 84, 95
2, 465500, Note_off_c, 0, 84, 0
2, 465504, Note_on_c, 0, 81, 95
2, 465596, Note_off_c, 0, 81, 0
2, 465600, Note_on_c, 0, 78, 95
2, 465692, Note_off_c, 0, 78, 0
2, 465696, Note_on_c, 0, 72, 95
2, 465728, Note_off_c, 0, 69, 0
2, 465728, Note_off_c, 0, 63, 0
2, 465776, Note_off_c, 0, 72, 0
2, 465792, Note_on_c, 0, 84, 95
2, 465792, Note_on_c, 0, 69, 95
2, 465832, Note_off_c, 0, 84, 0
2, 465872, Note_off_c, 0, 69, 0
2, 465888, Note_on_c, 0, 72, 95
2, 465980, Note_off_c, 0, 72, 0
2, 465984, Note_on_c, 0, 83, 95
2, 465984, Note_on_c, 0, 68, 95
2, 466024, Note_off_c, 0, 83, 0
2, 466064, Note_off_c, 0, 68, 0
2, 466080, Note_on_c, 0, 71, 95
2, 466172, Note_off_c, 0, 71, 0
2, 466176, Note_on_c, 0, 69, 95
2, 466176, Note_on_c, 0, 63, 95
2, 466180, Note_on_c, 0, 84, 95
2, 466272, Note_off_c, 0, 84, 0
2, 466272, Note_on_c, 0, 81, 95
2, 466364, Note_off_c, 0, 81, 0
2, 466368, Note_on_c, 0, 78, 95
2, 466460, Note_off_c, 0, 78, 0
2, 466464, Note_on_c, 0, 72, 95
2, 466496, Note_off_c, 0, 69, 0
2, 466496, Note_off_c, 0, 63, 0
2, 466544, Note_off_c, 0, 72, 0
2, 466560, Note_on_c, 0, 84, 95
2, 466560, Note_on_c, 0, 69, 95
2, 466600, Note_off_c, 0, 84, 0
2, 466640, Note_off_c, 0, 69, 0
2, 466656, Note_on_c, 0, 72, 95
2, 466748, Note_off_c, 0, 72, 0
2, 466752, Note_on_c, 0, 83, 95
2, 466752, Note_on_c, 0, 68, 95
2, 466792, Note_off_c, 0, 83, 0
2, 466832, Note_off_c, 0, 68, 0
2, 466848, Note_on_c, 0, 71, 95
2, 466940, Note_off_c, 0, 71, 0
2, 466944, Note_on_c, 0, 63, 95
2, 466944, Note_on_c, 0, 69, 95
2, 466944, Note_on_c, 0, 84, 95
2, 467036, Note_off_c, 0, 84, 0
2, 467040, Note_on_c, 0, 81, 95
2, 467132, Note_off_c, 0, 81, 0
2, 467136, Note_on_c, 0, 78, 95
2, 467228, Note_off_c, 0, 78, 0
2, 467232, Note_on_c, 0, 75, 95
2, 467264, Note_off_c, 0, 63, 0
2, 467264, Note_off_c, 0, 69, 0
2, 467324, Note_off_c, 0, 75, 0
2, 467328, Note_on_c, 0, 72, 95
2, 467420, Note_off_c, 0, 72, 0
2, 467424, Note_on_c, 0, 69, 95
2, 467516, Note_off_c, 0, 69, 0
2, 467520, Note_on_c, 0, 66, 95
2, 467612, Note_off_c, 0, 66, 0
2, 467616, Note_on_c, 0, 63, 95
2, 467708, Note_off_c, 0, 63, 0
2, 470880, Note_on_c, 0, 64, 95
2, 470920, Note_off_c, 0, 64, 0
2, 470928, Note_on_c, 0, 66, 95
2, 470968, Note_off_c, 0, 66, 0
2, 470976, Note_on_c, 0, 68, 95
2, 471016, Note_off_c, 0, 68, 0
2, 471024, Note_on_c, 0, 69, 95
2, 471064, Note_off_c, 0, 69, 0
2, 471072, Note_on_c, 0, 71, 95
2, 471112, Note_off_c, 0, 71, 0
2, 471120, Note_on_c, 0, 73, 95
2, 471160, Note_off_c, 0, 73, 0
2, 471168, Note_on_c, 0, 74, 95
2, 471208, Note_off_c, 0, 74, 0
2, 471216, Note_on_c, 0, 76, 95
2, 471256, Note_off_c, 0, 76, 0
2, 471264, Note_on_c, 0, 78, 95
2, 471304, Note_off_c, 0, 78, 0
2, 471312, Note_on_c, 0, 80, 95
2, 471352, Note_off_c, 0, 80, 0
2, 471360, Note_on_c, 0, 81, 95
2, 471400, Note_off_c, 0, 81, 0
2, 471408, Note_on_c, 0, 83, 95
2, 471448, Note_off_c, 0, 83, 0
2, 471456, Note_on_c, 0, 85, 95
2, 471496, Note_off_c, 0, 85, 0
2, 471504, Note_on_c, 0, 86, 95
2, 471544, Note_off_c, 0, 86, 0
2, 471552, Note_on_c, 0, 88, 105
2, 471932, Note_off_c, 0, 88, 0
2, 472992, Note_on_c, 0, 69, 70
2, 473076, Note_off_c, 0, 69, 0
2, 473088, Note_on_c, 0, 71, 70
2, 473408, Note_off_c, 0, 71, 0
2, 473760, Note_on_c, 0, 71, 70
2, 473844, Note_off_c, 0, 71, 0
2, 473856, Note_on_c, 0, 73, 70
2, 474016, Note_off_c, 0, 73, 0
2, 474528, Note_on_c, 0, 73, 70
2, 474608, Note_off_c, 0, 73, 0
2, 474624, Note_on_c, 0, 74, 70
2, 474664, Note_off_c, 0, 74, 0
2, 474672, Note_on_c, 0, 76, 70
2, 474712, Note_off_c, 0, 76, 0
2, 474720, Note_on_c, 0, 74, 70
2, 474752, Note_on_c, 0, 76, 70
2, 474760, Note_off_c, 0, 74, 0
2, 474792, Note_off_c, 0, 76, 0
2, 474816, Note_on_c, 0, 74, 70
2, 474896, Note_off_c, 0, 74, 0
2, 474912, Note_on_c, 0, 76, 70
2, 474992, Note_off_c, 0, 76, 0
2, 475008, Note_on_c, 0, 78, 70
2, 475328, Note_off_c, 0, 78, 0
2, 476064, Note_on_c, 0, 68, 70
2, 476144, Note_off_c, 0, 68, 0
2, 476160, Note_on_c, 0, 71, 71
2, 476348, Note_off_c, 0, 71, 0
2, 476352, Note_on_c, 0, 69, 72
2, 476432, Note_off_c, 0, 69, 0
2, 476832, Note_on_c, 0, 69, 76
2, 476916, Note_off_c, 0, 69, 0
2, 476928, Note_on_c, 0, 72, 77
2, 477008, Note_off_c, 0, 72, 0
2, 477120, Note_on_c, 0, 71, 79
2, 477212, Note_off_c, 0, 71, 0
2, 477600, Note_on_c, 0, 71, 83
2, 477680, Note_off_c, 0, 71, 0
2, 477696, Note_on_c, 0, 72, 84
2, 477736, Note_off_c, 0, 72, 0
2, 477744, Note_on_c, 0, 74, 84
2, 477784, Note_off_c, 0, 74, 0
2, 477792, Note_on_c, 0, 72, 84
2, 477832, Note_off_c, 0, 72, 0
2, 477840, Note_on_c, 0, 74, 85
2, 477880, Note_off_c, 0, 74, 0
2, 477888, Note_on_c, 0, 72, 85
2, 477980, Note_off_c, 0, 72, 0
2, 477984, Note_on_c, 0, 74, 86
2, 478076, Note_off_c, 0, 74, 0
2, 478080, Note_on_c, 0, 76, 87
2, 478652, Note_off_c, 0, 76, 0
2, 480096, Note_on_c, 0, 57, 72
2, 480188, Note_off_c, 0, 57, 0
2, 480192, Note_on_c, 0, 60, 72
2, 480284, Note_off_c, 0, 60, 0
2, 480288, Note_on_c, 0, 64, 72
2, 480380, Note_off_c, 0, 64, 0
2, 480384, Note_on_c, 0, 61, 72
2, 480444, Note_off_c, 0, 61, 0
2, 480448, Note_on_c, 0, 57, 73
2, 480508, Note_off_c, 0, 57, 0
2, 480512, Note_on_c, 0, 61, 73
2, 480572, Note_off_c, 0, 61, 0
2, 480576, Note_on_c, 0, 66, 73
2, 480636, Note_off_c, 0, 66, 0
2, 480640, Note_on_c, 0, 69, 73
2, 480700, Note_off_c, 0, 69, 0
2, 480704, Note_on_c, 0, 72, 73
2, 480764, Note_off_c, 0, 72, 0
2, 480768, Note_on_c, 0, 77, 96
2, 480860, Note_off_c, 0, 77, 0
2, 480864, Note_on_c, 0, 72, 96
2, 480956, Note_off_c, 0, 72, 0
2, 480960, Note_on_c, 0, 69, 97
2, 481052, Note_off_c, 0, 69, 0
2, 481056, Note_on_c, 0, 65, 97
2, 481148, Note_off_c, 0, 65, 0
2, 481152, Note_on_c, 0, 69, 98
2, 481244, Note_off_c, 0, 69, 0
2, 481248, Note_on_c, 0, 72, 99
2, 481340, Note_off_c, 0, 72, 0
2, 481344, Note_on_c, 0, 77, 99
2, 481436, Note_off_c, 0, 77, 0
2, 481440, Note_on_c, 0, 81, 100
2, 481484, Note_off_c, 0, 81, 0
2, 481488, Note_on_c, 0, 84, 100
2, 481532, Note_off_c, 0, 84, 0
2, 481536, Note_on_c, 0, 81, 101
2, 481628, Note_off_c, 0, 81, 0
2, 481632, Note_on_c, 0, 77, 101
2, 481724, Note_off_c, 0, 77, 0
2, 481728, Note_on_c, 0, 81, 102
2, 481820, Note_off_c, 0, 81, 0
2, 481824, Note_on_c, 0, 84, 102
2, 481916, Note_off_c, 0, 84, 0
2, 481920, Note_on_c, 0, 89, 103
2, 482240, Note_off_c, 0, 89, 0
2, 483168, Note_on_c, 0, 57, 77
2, 483260, Note_off_c, 0, 57, 0
2, 483264, Note_on_c, 0, 60, 77
2, 483356, Note_off_c, 0, 60, 0
2, 483360, Note_on_c, 0, 64, 77
2, 483452, Note_off_c, 0, 64, 0
2, 483456, Note_on_c, 0, 60, 78
2, 483516, Note_off_c, 0, 60, 0
2, 483520, Note_on_c, 0, 57, 78
2, 483580, Note_off_c, 0, 57, 0
2, 483584, Note_on_c, 0, 60, 78
2, 483644, Note_off_c, 0, 60, 0
2, 483648, Note_on_c, 0, 64, 78
2, 483708, Note_off_c, 0, 64, 0
2, 483712, Note_on_c, 0, 69, 78
2, 483772, Note_off_c, 0, 69, 0
2, 483776, Note_on_c, 0, 72, 78
2, 483836, Note_off_c, 0, 72, 0
2, 483840, Note_on_c, 0, 76, 96
2, 483932, Note_off_c, 0, 76, 0
2, 483936, Note_on_c, 0, 72, 96
2, 484028, Note_off_c, 0, 72, 0
2, 484032, Note_on_c, 0, 69, 97
2, 484124, Note_off_c, 0, 69, 0
2, 484128, Note_on_c, 0, 64, 97
2, 484220, Note_off_c, 0, 64, 0
2, 484224, Note_on_c, 0, 69, 98
2, 484316, Note_off_c, 0, 69, 0
2, 484320, Note_on_c, 0, 72, 99
2, 484412, Note_off_c, 0, 72, 0
2, 484416, Note_on_c, 0, 76, 99
2, 484508, Note_off_c, 0, 76, 0
2, 484512, Note_on_c, 0, 81, 100
2, 484552, Note_off_c, 0, 81, 0
2, 484560, Note_on_c, 0, 84, 100
2, 484600, Note_off_c, 0, 84, 0
2, 484608, Note_on_c, 0, 81, 101
2, 484700, Note_off_c, 0, 81, 0
2, 484704, Note_on_c, 0, 76, 101
2, 484796, Note_off_c, 0, 76, 0
2, 484800, Note_on_c, 0, 81, 102
2, 484892, Note_off_c, 0, 81, 0
2, 484896, Note_on_c, 0, 84, 102
2, 484988, Note_off_c, 0, 84, 0
2, 484992, Note_on_c, 0, 88, 103
2, 485312, Note_off_c, 0, 88, 0
2, 485376, Note_on_c, 0, 72, 81
2, 485696, Note_off_c, 0, 72, 0
2, 486240, Note_on_c, 0, 57, 82
2, 486332, Note_off_c, 0, 57, 0
2, 486336, Note_on_c, 0, 60, 83
2, 486428, Note_off_c, 0, 60, 0
2, 486432, Note_on_c, 0, 63, 83
2, 486524, Note_off_c, 0, 63, 0
2, 486528, Note_on_c, 0, 66, 83
2, 486620, Note_off_c, 0, 66, 0
2, 486624, Note_on_c, 0, 69, 83
2, 486716, Note_off_c, 0, 69, 0
2, 486720, Note_on_c, 0, 72, 83
2, 486812, Note_off_c, 0, 72, 0
2, 486816, Note_on_c, 0, 75, 83
2, 486908, Note_off_c, 0, 75, 0
2, 486912, Note_on_c, 0, 78, 84
2, 487036, Note_off_c, 0, 78, 0
2, 487040, Note_on_c, 0, 81, 84
2, 487164, Note_off_c, 0, 81, 0
2, 487168, Note_on_c, 0, 84, 84
2, 487292, Note_off_c, 0, 84, 0
2, 487296, Note_on_c, 0, 81, 84
2, 487420, Note_off_c, 0, 81, 0
2, 487424, Note_on_c, 0, 78, 84
2, 487548, Note_off_c, 0, 78, 0
2, 487552, Note_on_c, 0, 75, 85
2, 487676, Note_off_c, 0, 75, 0
2, 487680, Note_on_c, 0, 72, 85
2, 487772, Note_off_c, 0, 72, 0
2, 487776, Note_on_c, 0, 69, 85
2, 487868, Note_off_c, 0, 69, 0
2, 487872, Note_on_c, 0, 66, 85
2, 487964, Note_off_c, 0, 66, 0
2, 487968, Note_on_c, 0, 63, 85
2, 488060, Note_off_c, 0, 63, 0
2, 488064, Note_on_c, 0, 60, 85
2, 488144, Note_off_c, 0, 60, 0
2, 489792, Note_on_c, 0, 62, 98
2, 489980, Note_off_c, 0, 62, 0
2, 489984, Note_on_c, 0, 61, 89
2, 490144, Note_off_c, 0, 61, 0
2, 490176, Note_on_c, 0, 66, 99
2, 490364, Note_off_c, 0, 66, 0
2, 490368, Note_on_c, 0, 64, 89
2, 490528, Note_off_c, 0, 64, 0
2, 490560, Note_on_c, 0, 69, 100
2, 490748, Note_off_c, 0, 69, 0
2, 490752, Note_on_c, 0, 68, 90
2, 490912, Note_off_c, 0, 68, 0
2, 490944, Note_on_c, 0, 74, 100
2, 491132, Note_off_c, 0, 74, 0
2, 491136, Note_on_c, 0, 73, 91
2, 491296, Note_off_c, 0, 73, 0
2, 491328, Note_on_c, 0, 78, 101
2, 491516, Note_off_c, 0, 78, 0
2, 491520, Note_on_c, 0, 76, 91
2, 491520, Note_on_c, 0, 64, 91
2, 491680, Note_off_c, 0, 76, 0
2, 491680, Note_off_c, 0, 64, 0
2, 491712, Note_on_c, 0, 69, 92
2, 491712, Note_on_c, 0, 81, 92
2, 491900, Note_off_c, 0, 69, 0
2, 491900, Note_off_c, 0, 81, 0
2, 491904, Note_on_c, 0, 68, 92
2, 491904, Note_on_c, 0, 80, 92
2, 492092, Note_off_c, 0, 68, 0
2, 492092, Note_off_c, 0, 80, 0
2, 492096, Note_on_c, 0, 71, 92
2, 492096, Note_on_c, 0, 83, 92
2, 492284, Note_off_c, 0, 71, 0
2, 492284, Note_off_c, 0, 83, 0
2, 492288, Note_on_c, 0, 74, 93
2, 492288, Note_on_c, 0, 86, 93
2, 492380, Note_off_c, 0, 74, 0
2, 492384, Note_on_c, 0, 71, 93
2, 492476, Note_off_c, 0, 71, 0
2, 492480, Note_on_c, 0, 68, 93
2, 492572, Note_off_c, 0, 68, 0
2, 492576, Note_on_c, 0, 64, 93
2, 492668, Note_off_c, 0, 64, 0
2, 493056, Note_on_c, 0, 86, 95
2, 493376, Note_off_c, 0, 86, 64
2, 493504, Note_on_c, 0, 83, 95
2, 493564, Note_off_c, 0, 83, 0
2, 493568, Note_on_c, 0, 80, 95
2, 493628, Note_off_c, 0, 80, 0
2, 493632, Note_on_c, 0, 76, 95
2, 493692, Note_off_c, 0, 76, 0
2, 493696, Note_on_c, 0, 74, 95
2, 493756, Note_off_c, 0, 74, 0
2, 493760, Note_on_c, 0, 71, 95
2, 493800, Note_off_c, 0, 71, 0
2, 493824, Note_on_c, 0, 86, 95
2, 493884, Note_off_c, 0, 86, 0
2, 494204, Note_off_c, 0, 86, 0
2, 494208, Note_on_c, 0, 86, 96
2, 494268, Note_off_c, 0, 86, 0
2, 494272, Note_on_c, 0, 83, 96
2, 494332, Note_off_c, 0, 83, 0
2, 494336, Note_on_c, 0, 80, 96
2, 494396, Note_off_c, 0, 80, 0
2, 494400, Note_on_c, 0, 76, 96
2, 494460, Note_off_c, 0, 76, 0
2, 494464, Note_on_c, 0, 74, 96
2, 494524, Note_off_c, 0, 74, 0
2, 494528, Note_on_c, 0, 71, 96
2, 494568, Note_off_c, 0, 71, 0
2, 494592, Note_on_c, 0, 86, 94
2, 494632, Note_off_c, 0, 86, 0
2, 494720, Note_on_c, 0, 83, 92
2, 494760, Note_off_c, 0, 83, 0
2, 494848, Note_on_c, 0, 80, 90
2, 494888, Note_off_c, 0, 80, 0
2, 494976, Note_on_c, 0, 76, 88
2, 495016, Note_off_c, 0, 76, 0
2, 495104, Note_on_c, 0, 74, 86
2, 495144, Note_off_c, 0, 74, 0
2, 495232, Note_on_c, 0, 71, 84
2, 495272, Note_off_c, 0, 71, 0
2, 495360, Note_on_c, 0, 70, 81
2, 495440, Note_off_c, 0, 70, 0
2, 495456, Note_on_c, 0, 71, 80
2, 495536, Note_off_c, 0, 71, 0
2, 495552, Note_on_c, 0, 73, 78
2, 495632, Note_off_c, 0, 73, 0
2, 495648, Note_on_c, 0, 71, 77
2, 495688, Note_off_c, 0, 71, 0
2, 495696, Note_on_c, 0, 73, 76
2, 495736, Note_off_c, 0, 73, 0
2, 495744, Note_on_c, 0, 71, 75
2, 495784, Note_off_c, 0, 71, 0
2, 495792, Note_on_c, 0, 73, 74
2, 495832, Note_off_c, 0, 73, 0
2, 495840, Note_on_c, 0, 71, 73
2, 495880, Note_off_c, 0, 71, 0
2, 495888, Note_on_c, 0, 73, 73
2, 495928, Note_off_c, 0, 73, 0
2, 495936, Note_on_c, 0, 71, 72
2, 495976, Note_off_c, 0, 71, 0
2, 495984, Note_on_c, 0, 73, 71
2, 496024, Note_off_c, 0, 73, 0
2, 496032, Note_on_c, 0, 71, 70
2, 496072, Note_off_c, 0, 71, 0
2, 496080, Note_on_c, 0, 73, 70
2, 496120, Note_off_c, 0, 73, 0
2, 496128, Note_on_c, 0, 71, 70
2, 496168, Note_off_c, 0, 71, 0
2, 496176, Note_on_c, 0, 73, 70
2, 496216, Note_off_c, 0, 73, 0
2, 496224, Note_on_c, 0, 71, 70
2, 496264, Note_off_c, 0, 71, 0
2, 496272, Note_on_c, 0, 73, 70
2, 496312, Note_off_c, 0, 73, 0
2, 496320, Note_on_c, 0, 71, 70
2, 496360, Note_off_c, 0, 71, 0
2, 496368, Note_on_c, 0, 73, 71
2, 496408, Note_off_c, 0, 73, 0
2, 496416, Note_on_c, 0, 71, 71
2, 496456, Note_off_c, 0, 71, 0
2, 496464, Note_on_c, 0, 73, 71
2, 496504, Note_off_c, 0, 73, 0
2, 496512, Note_on_c, 0, 71, 71
2, 496552, Note_off_c, 0, 71, 0
2, 496560, Note_on_c, 0, 73, 71
2, 496600, Note_off_c, 0, 73, 0
2, 496608, Note_on_c, 0, 71, 72
2, 496648, Note_off_c, 0, 71, 0
2, 496656, Note_on_c, 0, 73, 72
2, 496696, Note_off_c, 0, 73, 0
2, 496704, Note_on_c, 0, 71, 72
2, 496744, Note_off_c, 0, 71, 0
2, 496752, Note_on_c, 0, 73, 72
2, 496792, Note_off_c, 0, 73, 0
2, 496800, Note_on_c, 0, 71, 72
2, 496840, Note_off_c, 0, 71, 0
2, 496848, Note_on_c, 0, 73, 73
2, 496888, Note_off_c, 0, 73, 0
2, 496896, Note_on_c, 0, 71, 73
2, 496936, Note_off_c, 0, 71, 0
2, 496944, Note_on_c, 0, 73, 73
2, 496984, Note_off_c, 0, 73, 0
2, 496992, Note_on_c, 0, 71, 73
2, 497032, Note_off_c, 0, 71, 0
2, 497040, Note_on_c, 0, 73, 73
2, 497080, Note_off_c, 0, 73, 0
2, 497088, Note_on_c, 0, 71, 74
2, 497128, Note_off_c, 0, 71, 0
2, 497136, Note_on_c, 0, 73, 74
2, 497176, Note_off_c, 0, 73, 0
2, 497184, Note_on_c, 0, 71, 74
2, 497224, Note_off_c, 0, 71, 0
2, 497232, Note_on_c, 0, 73, 74
2, 497272, Note_off_c, 0, 73, 0
2, 497280, Note_on_c, 0, 71, 74
2, 497320, Note_off_c, 0, 71, 0
2, 497328, Note_on_c, 0, 73, 75
2, 497368, Note_off_c, 0, 73, 0
2, 497376, Note_on_c, 0, 71, 75
2, 497416, Note_off_c, 0, 71, 0
2, 497424, Note_on_c, 0, 73, 75
2, 497464, Note_off_c, 0, 73, 0
2, 497472, Note_on_c, 0, 71, 75
2, 497512, Note_off_c, 0, 71, 0
2, 497520, Note_on_c, 0, 73, 75
2, 497560, Note_off_c, 0, 73, 0
2, 497568, Note_on_c, 0, 71, 76
2, 497608, Note_off_c, 0, 71, 0
2, 497616, Note_on_c, 0, 73, 76
2, 497656, Note_off_c, 0, 73, 0
2, 497664, Note_on_c, 0, 71, 76
2, 497704, Note_off_c, 0, 71, 0
2, 497712, Note_on_c, 0, 73, 76
2, 497752, Note_off_c, 0, 73, 0
2, 497760, Note_on_c, 0, 71, 76
2, 497800, Note_off_c, 0, 71, 0
2, 497808, Note_on_c, 0, 73, 77
2, 497848, Note_off_c, 0, 73, 0
2, 497856, Note_on_c, 0, 71, 77
2, 497896, Note_off_c, 0, 71, 0
2, 497904, Note_on_c, 0, 73, 77
2, 497944, Note_off_c, 0, 73, 0
2, 497952, Note_on_c, 0, 71, 77
2, 497992, Note_off_c, 0, 71, 0
2, 498000, Note_on_c, 0, 73, 77
2, 498040, Note_off_c, 0, 73, 0
2, 498048, Note_on_c, 0, 71, 78
2, 498088, Note_off_c, 0, 71, 0
2, 498096, Note_on_c, 0, 73, 78
2, 498136, Note_off_c, 0, 73, 0
2, 498144, Note_on_c, 0, 71, 78
2, 498184, Note_off_c, 0, 71, 0
2, 498192, Note_on_c, 0, 73, 78
2, 498232, Note_off_c, 0, 73, 0
2, 498240, Note_on_c, 0, 71, 78
2, 498280, Note_off_c, 0, 71, 0
2, 498288, Note_on_c, 0, 73, 79
2, 498328, Note_off_c, 0, 73, 0
2, 498336, Note_on_c, 0, 71, 79
2, 498376, Note_off_c, 0, 71, 0
2, 498384, Note_on_c, 0, 73, 79
2, 498424, Note_off_c, 0, 73, 0
2, 498432, Note_on_c, 0, 71, 79
2, 498472, Note_off_c, 0, 71, 0
2, 498480, Note_on_c, 0, 73, 79
2, 498520, Note_off_c, 0, 73, 0
2, 498528, Note_on_c, 0, 71, 80
2, 498568, Note_off_c, 0, 71, 0
2, 498576, Note_on_c, 0, 73, 80
2, 498616, Note_off_c, 0, 73, 0
2, 498624, Note_on_c, 0, 71, 80
2, 498664, Note_off_c, 0, 71, 0
2, 498672, Note_on_c, 0, 73, 80
2, 498712, Note_off_c, 0, 73, 0
2, 498720, Note_on_c, 0, 71, 80
2, 498760, Note_off_c, 0, 71, 0
2, 498768, Note_on_c, 0, 73, 81
2, 498808, Note_off_c, 0, 73, 0
2, 498816, Note_on_c, 0, 71, 81
2, 498856, Note_off_c, 0, 71, 0
2, 498864, Note_on_c, 0, 73, 81
2, 498904, Note_off_c, 0, 73, 0
2, 498912, Note_on_c, 0, 71, 81
2, 498952, Note_off_c, 0, 71, 0
2, 498960, Note_on_c, 0, 73, 81
2, 499000, Note_off_c, 0, 73, 0
2, 499008, Note_on_c, 0, 71, 82
2, 499048, Note_off_c, 0, 71, 0
2, 499056, Note_on_c, 0, 73, 82
2, 499096, Note_off_c, 0, 73, 0
2, 499104, Note_on_c, 0, 71, 82
2, 499144, Note_off_c, 0, 71, 0
2, 499152, Note_on_c, 0, 73, 82
2, 499192, Note_off_c, 0, 73, 64
2, 499200, Note_on_c, 0, 71, 83
2, 499240, Note_off_c, 0, 71, 0
2, 499248, Note_on_c, 0, 73, 83
2, 499288, Note_off_c, 0, 73, 0
2, 499296, Note_on_c, 0, 71, 83
2, 499336, Note_off_c, 0, 71, 0
2, 499344, Note_on_c, 0, 73, 83
2, 499384, Note_off_c, 0, 73, 0
2, 499392, Note_on_c, 0, 71, 83
2, 499432, Note_off_c, 0, 71, 0
2, 499440, Note_on_c, 0, 73, 84
2, 499480, Note_off_c, 0, 73, 0
2, 499488, Note_on_c, 0, 71, 84
2, 499528, Note_off_c, 0, 71, 0
2, 499536, Note_on_c, 0, 73, 84
2, 499576, Note_off_c, 0, 73, 0
2, 499584, Note_on_c, 0, 71, 84
2, 499624, Note_off_c, 0, 71, 0
2, 499632, Note_on_c, 0, 73, 84
2, 499672, Note_off_c, 0, 73, 0
2, 499680, Note_on_c, 0, 71, 85
2, 499720, Note_off_c, 0, 71, 0
2, 499728, Note_on_c, 0, 73, 85
2, 499768, Note_off_c, 0, 73, 0
2, 499776, Note_on_c, 0, 71, 85
2, 499816, Note_off_c, 0, 71, 0
2, 499824, Note_on_c, 0, 73, 85
2, 499864, Note_off_c, 0, 73, 0
2, 499872, Note_on_c, 0, 71, 85
2, 499912, Note_off_c, 0, 71, 0
2, 499920, Note_on_c, 0, 73, 86
2, 499960, Note_off_c, 0, 73, 0
2, 499968, Note_on_c, 0, 71, 86
2, 500008, Note_off_c, 0, 71, 0
2, 500016, Note_on_c, 0, 73, 86
2, 500056, Note_off_c, 0, 73, 0
2, 500064, Note_on_c, 0, 71, 86
2, 500104, Note_off_c, 0, 71, 0
2, 500112, Note_on_c, 0, 73, 86
2, 500152, Note_off_c, 0, 73, 0
2, 500160, Note_on_c, 0, 71, 87
2, 500200, Note_off_c, 0, 71, 0
2, 500208, Note_on_c, 0, 73, 87
2, 500248, Note_off_c, 0, 73, 0
2, 500256, Note_on_c, 0, 71, 87
2, 500296, Note_off_c, 0, 71, 0
2, 500304, Note_on_c, 0, 73, 87
2, 500344, Note_off_c, 0, 73, 0
2, 500352, Note_on_c, 0, 71, 87
2, 500392, Note_off_c, 0, 71, 0
2, 500400, Note_on_c, 0, 73, 88
2, 500440, Note_off_c, 0, 73, 0
2, 500448, Note_on_c, 0, 71, 88
2, 500488, Note_off_c, 0, 71, 0
2, 500496, Note_on_c, 0, 73, 88
2, 500536, Note_off_c, 0, 73, 0
2, 500544, Note_on_c, 0, 71, 88
2, 500584, Note_off_c, 0, 71, 0
2, 500592, Note_on_c, 0, 73, 88
2, 500632, Note_off_c, 0, 73, 0
2, 500640, Note_on_c, 0, 71, 89
2, 500680, Note_off_c, 0, 71, 0
2, 500688, Note_on_c, 0, 73, 89
2, 500728, Note_off_c, 0, 73, 64
2, 500736, Note_on_c, 0, 71, 89
2, 500828, Note_off_c, 0, 71, 0
2, 500832, Note_on_c, 0, 73, 89
2, 500924, Note_off_c, 0, 73, 0
2, 500928, Note_on_c, 0, 71, 90
2, 501020, Note_off_c, 0, 71, 0
2, 501024, Note_on_c, 0, 70, 90
2, 501116, Note_off_c, 0, 70, 0
2, 501120, Note_on_c, 0, 71, 91
2, 501212, Note_off_c, 0, 71, 0
2, 501216, Note_on_c, 0, 72, 91
2, 501308, Note_off_c, 0, 72, 0
2, 501312, Note_on_c, 0, 73, 91
2, 501404, Note_off_c, 0, 73, 0
2, 501408, Note_on_c, 0, 74, 92
2, 501500, Note_off_c, 0, 74, 0
2, 501504, Note_on_c, 0, 75, 96
2, 501596, Note_off_c, 0, 75, 0
2, 501600, Note_on_c, 0, 76, 97
2, 501692, Note_off_c, 0, 76, 0
2, 501696, Note_on_c, 0, 77, 98
2, 501788, Note_off_c, 0, 77, 0
2, 501792, Note_on_c, 0, 78, 99
2, 501884, Note_off_c, 0, 78, 0
2, 501888, Note_on_c, 0, 79, 101
2, 501980, Note_off_c, 0, 79, 0
2, 501984, Note_on_c, 0, 80, 102
2, 502076, Note_off_c, 0, 80, 0
2, 502080, Note_on_c, 0, 81, 103
2, 502172, Note_off_c, 0, 81, 0
2, 502176, Note_on_c, 0, 82, 104
2, 502268, Note_off_c, 0, 82, 0
2, 502272, Note_on_c, 0, 83, 95
2, 502312, Note_off_c, 0, 83, 0
2, 502320, Note_on_c, 0, 85, 95
2, 502360, Note_off_c, 0, 85, 0
2, 502368, Note_on_c, 0, 83, 95
2, 502408, Note_off_c, 0, 83, 0
2, 502416, Note_on_c, 0, 85, 95
2, 502456, Note_off_c, 0, 85, 0
2, 502464, Note_on_c, 0, 83, 95
2, 502504, Note_off_c, 0, 83, 0
2, 502512, Note_on_c, 0, 85, 95
2, 502552, Note_off_c, 0, 85, 0
2, 502560, Note_on_c, 0, 83, 95
2, 502600, Note_off_c, 0, 83, 0
2, 502608, Note_on_c, 0, 85, 95
2, 502648, Note_off_c, 0, 85, 0
2, 502656, Note_on_c, 0, 83, 95
2, 502696, Note_off_c, 0, 83, 0
2, 502704, Note_on_c, 0, 85, 95
2, 502744, Note_off_c, 0, 85, 0
2, 502752, Note_on_c, 0, 83, 95
2, 502792, Note_off_c, 0, 83, 0
2, 502800, Note_on_c, 0, 85, 95
2, 502840, Note_off_c, 0, 85, 0
2, 502848, Note_on_c, 0, 83, 95
2, 502888, Note_off_c, 0, 83, 0
2, 502896, Note_on_c, 0, 85, 95
2, 502936, Note_off_c, 0, 85, 0
2, 502944, Note_on_c, 0, 83, 95
2, 502984, Note_off_c, 0, 83, 0
2, 502992, Note_on_c, 0, 85, 95
2, 503032, Note_off_c, 0, 85, 0
2, 503040, Note_on_c, 0, 83, 95
2, 503040, Note_on_c, 0, 74, 95
2, 503040, Note_on_c, 0, 68, 95
2, 503040, Note_on_c, 0, 64, 95
2, 503084, Note_off_c, 0, 83, 0
2, 503088, Note_on_c, 0, 85, 95
2, 503128, Note_off_c, 0, 85, 0
2, 503136, Note_on_c, 0, 83, 95
2, 503176, Note_off_c, 0, 83, 0
2, 503184, Note_on_c, 0, 85, 95
2, 503224, Note_off_c, 0, 85, 0
2, 503232, Note_on_c, 0, 83, 95
2, 503272, Note_off_c, 0, 83, 0
2, 503280, Note_on_c, 0, 85, 95
2, 503320, Note_off_c, 0, 85, 0
2, 503328, Note_on_c, 0, 83, 95
2, 503368, Note_off_c, 0, 83, 0
2, 503376, Note_on_c, 0, 85, 95
2, 503416, Note_off_c, 0, 85, 0
2, 503424, Note_on_c, 0, 83, 95
2, 503464, Note_off_c, 0, 83, 0
2, 503472, Note_on_c, 0, 85, 95
2, 503512, Note_off_c, 0, 85, 0
2, 503520, Note_on_c, 0, 83, 95
2, 503560, Note_off_c, 0, 83, 0
2, 503568, Note_on_c, 0, 85, 95
2, 503608, Note_off_c, 0, 85, 0
2, 503616, Note_on_c, 0, 81, 95
2, 503696, Note_off_c, 0, 81, 0
2, 503712, Note_on_c, 0, 83, 95
2, 503792, Note_off_c, 0, 83, 0
2, 503804, Note_off_c, 0, 74, 0
2, 503804, Note_off_c, 0, 68, 0
2, 503804, Note_off_c, 0, 64, 0
2, 503808, Note_on_c, 0, 81, 95
2, 503808, Note_on_c, 0, 73, 95
2, 503808, Note_on_c, 0, 69, 95
2, 504188, Note_off_c, 0, 81, 0
2, 504188, Note_off_c, 0, 73, 0
2, 504188, Note_off_c, 0, 69, 0
2, 504188, End_track
3, 0, Start_track
3, 0, Title_t, "K488a - Allegro"
3, 0, Control_c, 1, 0, 0
3, 0, Program_c, 1, 0
3, 0, Control_c, 1, 7, 127
3, 0, Control_c, 1, 10, 59
3, 0, Control_c, 1, 91, 91
3, 0, Control_c, 1, 93, 50
3, 0, Key_signature, 3, "major"
3, 0, Control_c, 1, 121, 0
3, 384, Control_c, 1, 10, 63
3, 480, Control_c, 1, 91, 63
3, 576, Control_c, 1, 93, 35
3, 672, Program_c, 1, 0
3, 107904, Note_on_c, 1, 50, 75
3, 108224, Note_off_c, 1, 50, 0
3, 108288, Note_on_c, 1, 57, 75
3, 108608, Note_off_c, 1, 57, 0
3, 108672, Note_on_c, 1, 45, 75
3, 108992, Note_off_c, 1, 45, 0
3, 113664, Note_on_c, 1, 61, 75
3, 113664, Note_on_c, 1, 52, 75
3, 113852, Note_off_c, 1, 61, 0
3, 113856, Note_on_c, 1, 60, 75
3, 114044, Note_off_c, 1, 60, 0
3, 114048, Note_on_c, 1, 59, 75
3, 114236, Note_off_c, 1, 59, 0
3, 114240, Note_on_c, 1, 57, 75
3, 114428, Note_off_c, 1, 52, 0
3, 114428, Note_off_c, 1, 57, 0
3, 114432, Note_on_c, 1, 56, 75
3, 114432, Note_on_c, 1, 52, 75
3, 114752, Note_off_c, 1, 56, 0
3, 114752, Note_off_c, 1, 52, 0
3, 121344, Note_on_c, 1, 57, 75
3, 121344, Note_on_c, 1, 52, 75
3, 121344, Note_on_c, 1, 49, 75
3, 122692, Note_off_c, 1, 57, 0
3, 122692, Note_off_c, 1, 52, 0
3, 122692, Note_off_c, 1, 49, 0
3, 122880, Note_on_c, 1, 56, 75
3, 122880, Note_on_c, 1, 52, 75
3, 122880, Note_on_c, 1, 50, 75
3, 122880, Note_on_c, 1, 47, 75
3, 124228, Note_off_c, 1, 56, 0
3, 124228, Note_off_c, 1, 52, 0
3, 124228, Note_off_c, 1, 50, 0
3, 124228, Note_off_c, 1, 47, 0
3, 124416, Note_on_c, 1, 45, 100
3, 124576, Note_off_c, 1, 45, 0
3, 124800, Note_on_c, 1, 50, 100
3, 124960, Note_off_c, 1, 50, 0
3, 125184, Note_on_c, 1, 52, 100
3, 125344, Note_off_c, 1, 52, 0
3, 125568, Note_on_c, 1, 40, 100
3, 125728, Note_off_c, 1, 40, 0
3, 125952, Note_on_c, 1, 45, 100
3, 126272, Note_off_c, 1, 45, 0
3, 132864, Note_on_c, 1, 61, 75
3, 133052, Note_off_c, 1, 61, 0
3, 133056, Note_on_c, 1, 66, 75
3, 133244, Note_off_c, 1, 66, 0
3, 133248, Note_on_c, 1, 61, 75
3, 133436, Note_off_c, 1, 61, 0
3, 133440, Note_on_c, 1, 66, 75
3, 133600, Note_off_c, 1, 66, 0
3, 133632, Note_on_c, 1, 59, 75
3, 133820, Note_off_c, 1, 59, 0
3, 133824, Note_on_c, 1, 62, 75
3, 134012, Note_off_c, 1, 62, 0
3, 134016, Note_on_c, 1, 68, 76
3, 134204, Note_off_c, 1, 68, 0
3, 134208, Note_on_c, 1, 62, 84
3, 134396, Note_off_c, 1, 62, 0
3, 134400, Note_on_c, 1, 59, 93
3, 134588, Note_off_c, 1, 59, 0
3, 134592, Note_on_c, 1, 62, 99
3, 134780, Note_off_c, 1, 62, 0
3, 134784, Note_on_c, 1, 57, 89
3, 134972, Note_off_c, 1, 57, 0
3, 134976, Note_on_c, 1, 62, 79
3, 135164, Note_off_c, 1, 62, 0
3, 135168, Note_on_c, 1, 56, 75
3, 135356, Note_off_c, 1, 56, 0
3, 135360, Note_on_c, 1, 59, 75
3, 135548, Note_off_c, 1, 59, 0
3, 135552, Note_on_c, 1, 64, 76
3, 135740, Note_off_c, 1, 64, 0
3, 135744, Note_on_c, 1, 59, 84
3, 135932, Note_off_c, 1, 59, 0
3, 135936, Note_on_c, 1, 56, 93
3, 136124, Note_off_c, 1, 56, 0
3, 136128, Note_on_c, 1, 59, 99
3, 136316, Note_off_c, 1, 59, 0
3, 136320, Note_on_c, 1, 52, 89
3, 136508, Note_off_c, 1, 52, 0
3, 136512, Note_on_c, 1, 56, 79
3, 136672, Note_off_c, 1, 56, 0
3, 136704, Note_on_c, 1, 57, 76
3, 136892, Note_off_c, 1, 57, 0
3, 136896, Note_on_c, 1, 61, 82
3, 137084, Note_off_c, 1, 61, 0
3, 137088, Note_on_c, 1, 57, 89
3, 137276, Note_off_c, 1, 57, 0
3, 137280, Note_on_c, 1, 56, 95
3, 137468, Note_off_c, 1, 56, 0
3, 137472, Note_on_c, 1, 54, 100
3, 137660, Note_off_c, 1, 54, 0
3, 137664, Note_on_c, 1, 57, 94
3, 137852, Note_off_c, 1, 57, 0
3, 137856, Note_on_c, 1, 52, 87
3, 138044, Note_off_c, 1, 52, 0
3, 138048, Note_on_c, 1, 57, 80
3, 138208, Note_off_c, 1, 57, 0
3, 138240, Note_on_c, 1, 51, 76
3, 138428, Note_off_c, 1, 51, 0
3, 138432, Note_on_c, 1, 54, 82
3, 138620, Note_off_c, 1, 54, 0
3, 138624, Note_on_c, 1, 57, 89
3, 138812, Note_off_c, 1, 57, 0
3, 138816, Note_on_c, 1, 54, 95
3, 139004, Note_off_c, 1, 54, 0
3, 139008, Note_on_c, 1, 51, 100
3, 139196, Note_off_c, 1, 51, 0
3, 139200, Note_on_c, 1, 54, 94
3, 139388, Note_off_c, 1, 54, 0
3, 139392, Note_on_c, 1, 47, 87
3, 139580, Note_off_c, 1, 47, 0
3, 139584, Note_on_c, 1, 51, 80
3, 139744, Note_off_c, 1, 51, 0
3, 139776, Note_on_c, 1, 52, 75
3, 140156, Note_off_c, 1, 52, 0
3, 140160, Note_on_c, 1, 54, 75
3, 140540, Note_off_c, 1, 54, 0
3, 140544, Note_on_c, 1, 56, 75
3, 140864, Note_off_c, 1, 56, 0
3, 145920, Note_on_c, 1, 59, 100
3, 145920, Note_on_c, 1, 47, 100
3, 146564, Note_off_c, 1, 59, 0
3, 146564, Note_off_c, 1, 47, 0
3, 146688, Note_on_c, 1, 57, 75
3, 146688, Note_on_c, 1, 45, 75
3, 147008, Note_off_c, 1, 57, 0
3, 147008, Note_off_c, 1, 45, 0
3, 147072, Note_on_c, 1, 55, 75
3, 147072, Note_on_c, 1, 43, 75
3, 147392, Note_off_c, 1, 55, 0
3, 147392, Note_off_c, 1, 43, 0
3, 147456, Note_on_c, 1, 54, 76
3, 147456, Note_on_c, 1, 42, 76
3, 147776, Note_off_c, 1, 54, 0
3, 147776, Note_off_c, 1, 42, 0
3, 147840, Note_on_c, 1, 52, 82
3, 147840, Note_on_c, 1, 40, 82
3, 148160, Note_off_c, 1, 52, 0
3, 148160, Note_off_c, 1, 40, 0
3, 148224, Note_on_c, 1, 50, 89
3, 148224, Note_on_c, 1, 38, 89
3, 148544, Note_off_c, 1, 50, 0
3, 148544, Note_off_c, 1, 38, 0
3, 148608, Note_on_c, 1, 48, 95
3, 148608, Note_on_c, 1, 36, 95
3, 148928, Note_off_c, 1, 48, 0
3, 148928, Note_off_c, 1, 36, 0
3, 148992, Note_on_c, 1, 47, 100
3, 148992, Note_on_c, 1, 35, 100
3, 149312, Note_off_c, 1, 47, 0
3, 149312, Note_off_c, 1, 35, 0
3, 149760, Note_on_c, 1, 59, 100
3, 149948, Note_off_c, 1, 59, 0
3, 149952, Note_on_c, 1, 58, 100
3, 150044, Note_off_c, 1, 58, 0
3, 150048, Note_on_c, 1, 56, 100
3, 150140, Note_off_c, 1, 56, 0
3, 150144, Note_on_c, 1, 54, 100
3, 150236, Note_off_c, 1, 54, 0
3, 150240, Note_on_c, 1, 52, 100
3, 150332, Note_off_c, 1, 52, 0
3, 150336, Note_on_c, 1, 51, 100
3, 150428, Note_off_c, 1, 51, 0
3, 150432, Note_on_c, 1, 49, 100
3, 150512, Note_off_c, 1, 49, 0
3, 150528, Note_on_c, 1, 47, 105
3, 150688, Note_off_c, 1, 47, 0
3, 150912, Note_on_c, 1, 35, 105
3, 151072, Note_off_c, 1, 35, 0
3, 152064, Note_on_c, 1, 68, 75
3, 152064, Note_on_c, 1, 64, 75
3, 152708, Note_off_c, 1, 68, 0
3, 152708, Note_off_c, 1, 64, 0
3, 152832, Note_on_c, 1, 66, 75
3, 152832, Note_on_c, 1, 63, 75
3, 153476, Note_off_c, 1, 66, 0
3, 153476, Note_off_c, 1, 63, 0
3, 153600, Note_on_c, 1, 61, 75
3, 153600, Note_on_c, 1, 64, 75
3, 154564, Note_off_c, 1, 61, 0
3, 154752, Note_on_c, 1, 59, 75
3, 155072, Note_off_c, 1, 59, 0
3, 155136, Note_on_c, 1, 61, 75
3, 155136, Note_on_c, 1, 58, 75
3, 156484, Note_off_c, 1, 61, 0
3, 156484, Note_off_c, 1, 58, 0
3, 156484, Note_off_c, 1, 64, 0
3, 156672, Note_on_c, 1, 63, 75
3, 156672, Note_on_c, 1, 59, 75
3, 156672, Note_on_c, 1, 57, 75
3, 157316, Note_off_c, 1, 63, 0
3, 157316, Note_off_c, 1, 59, 0
3, 157316, Note_off_c, 1, 57, 0
3, 157824, Note_on_c, 1, 51, 68
3, 157824, Note_on_c, 1, 45, 68
3, 158144, Note_off_c, 1, 51, 0
3, 158144, Note_off_c, 1, 45, 0
3, 158208, Note_on_c, 1, 44, 60
3, 158208, Note_on_c, 1, 52, 60
3, 158972, Note_off_c, 1, 44, 0
3, 158976, Note_on_c, 1, 49, 60
3, 159740, Note_off_c, 1, 49, 0
3, 159744, Note_on_c, 1, 42, 60
3, 160388, Note_off_c, 1, 42, 0
3, 160388, Note_off_c, 1, 52, 64
3, 160512, Note_on_c, 1, 51, 60
3, 160512, Note_on_c, 1, 47, 60
3, 161156, Note_off_c, 1, 51, 0
3, 161156, Note_off_c, 1, 47, 0
3, 161280, Note_on_c, 1, 52, 60
3, 161600, Note_off_c, 1, 52, 0
3, 162432, Note_on_c, 1, 44, 81
3, 162512, Note_off_c, 1, 44, 3
3, 162624, Note_on_c, 1, 46, 86
3, 162704, Note_off_c, 1, 46, 0
3, 162816, Note_on_c, 1, 47, 90
3, 163196, Note_off_c, 1, 47, 0
3, 163200, Note_on_c, 1, 59, 90
3, 163580, Note_off_c, 1, 59, 0
3, 163584, Note_on_c, 1, 47, 90
3, 163904, Note_off_c, 1, 47, 0
3, 173568, Note_on_c, 1, 52, 100
3, 173728, Note_off_c, 1, 52, 0
3, 173952, Note_on_c, 1, 56, 99
3, 174112, Note_off_c, 1, 56, 0
3, 174336, Note_on_c, 1, 59, 91
3, 174496, Note_off_c, 1, 59, 0
3, 174720, Note_on_c, 1, 49, 82
3, 174880, Note_off_c, 1, 49, 0
3, 175104, Note_on_c, 1, 52, 75
3, 175196, Note_off_c, 1, 52, 0
3, 175200, Note_on_c, 1, 64, 75
3, 175292, Note_off_c, 1, 64, 0
3, 175296, Note_on_c, 1, 63, 75
3, 175388, Note_off_c, 1, 63, 0
3, 175392, Note_on_c, 1, 64, 75
3, 175484, Note_off_c, 1, 64, 0
3, 175488, Note_on_c, 1, 63, 75
3, 175580, Note_off_c, 1, 63, 0
3, 175584, Note_on_c, 1, 64, 75
3, 175676, Note_off_c, 1, 64, 0
3, 175680, Note_on_c, 1, 63, 75
3, 175772, Note_off_c, 1, 63, 0
3, 175776, Note_on_c, 1, 64, 75
3, 175868, Note_off_c, 1, 64, 0
3, 175872, Note_on_c, 1, 63, 75
3, 175964, Note_off_c, 1, 63, 0
3, 175968, Note_on_c, 1, 64, 75
3, 176060, Note_off_c, 1, 64, 0
3, 176064, Note_on_c, 1, 63, 75
3, 176156, Note_off_c, 1, 63, 0
3, 176160, Note_on_c, 1, 64, 75
3, 176252, Note_off_c, 1, 64, 0
3, 176256, Note_on_c, 1, 62, 75
3, 176348, Note_off_c, 1, 62, 0
3, 176352, Note_on_c, 1, 64, 75
3, 176444, Note_off_c, 1, 64, 0
3, 176448, Note_on_c, 1, 59, 75
3, 176540, Note_off_c, 1, 59, 0
3, 176544, Note_on_c, 1, 64, 75
3, 176636, Note_off_c, 1, 64, 0
3, 176640, Note_on_c, 1, 60, 75
3, 176732, Note_off_c, 1, 60, 0
3, 176736, Note_on_c, 1, 64, 75
3, 176828, Note_off_c, 1, 64, 0
3, 176832, Note_on_c, 1, 63, 75
3, 176924, Note_off_c, 1, 63, 0
3, 176928, Note_on_c, 1, 64, 75
3, 177020, Note_off_c, 1, 64, 0
3, 177024, Note_on_c, 1, 59, 75
3, 177116, Note_off_c, 1, 59, 0
3, 177120, Note_on_c, 1, 64, 75
3, 177212, Note_off_c, 1, 64, 0
3, 177216, Note_on_c, 1, 63, 75
3, 177308, Note_off_c, 1, 63, 0
3, 177312, Note_on_c, 1, 64, 75
3, 177404, Note_off_c, 1, 64, 0
3, 177408, Note_on_c, 1, 63, 75
3, 177500, Note_off_c, 1, 63, 0
3, 177504, Note_on_c, 1, 64, 75
3, 177596, Note_off_c, 1, 64, 0
3, 177600, Note_on_c, 1, 63, 75
3, 177692, Note_off_c, 1, 63, 0
3, 177696, Note_on_c, 1, 64, 75
3, 177788, Note_off_c, 1, 64, 0
3, 177792, Note_on_c, 1, 62, 75
3, 177884, Note_off_c, 1, 62, 0
3, 177888, Note_on_c, 1, 64, 75
3, 177980, Note_off_c, 1, 64, 0
3, 177984, Note_on_c, 1, 59, 75
3, 178076, Note_off_c, 1, 59, 0
3, 178080, Note_on_c, 1, 64, 75
3, 178172, Note_off_c, 1, 64, 0
3, 178176, Note_on_c, 1, 57, 75
3, 178268, Note_off_c, 1, 57, 0
3, 178272, Note_on_c, 1, 64, 75
3, 178364, Note_off_c, 1, 64, 0
3, 178368, Note_on_c, 1, 63, 75
3, 178460, Note_off_c, 1, 63, 0
3, 178464, Note_on_c, 1, 64, 75
3, 178556, Note_off_c, 1, 64, 0
3, 178560, Note_on_c, 1, 56, 75
3, 178652, Note_off_c, 1, 56, 0
3, 178656, Note_on_c, 1, 64, 75
3, 178748, Note_off_c, 1, 64, 0
3, 178752, Note_on_c, 1, 63, 75
3, 178844, Note_off_c, 1, 63, 0
3, 178848, Note_on_c, 1, 64, 75
3, 178940, Note_off_c, 1, 64, 0
3, 178944, Note_on_c, 1, 63, 75
3, 179036, Note_off_c, 1, 63, 0
3, 179040, Note_on_c, 1, 64, 75
3, 179132, Note_off_c, 1, 64, 0
3, 179136, Note_on_c, 1, 63, 75
3, 179228, Note_off_c, 1, 63, 0
3, 179232, Note_on_c, 1, 64, 75
3, 179324, Note_off_c, 1, 64, 0
3, 179328, Note_on_c, 1, 62, 75
3, 179420, Note_off_c, 1, 62, 0
3, 179424, Note_on_c, 1, 64, 75
3, 179516, Note_off_c, 1, 64, 0
3, 179520, Note_on_c, 1, 59, 75
3, 179612, Note_off_c, 1, 59, 0
3, 179616, Note_on_c, 1, 64, 75
3, 179696, Note_off_c, 1, 64, 0
3, 179712, Note_on_c, 1, 57, 100
3, 179804, Note_off_c, 1, 57, 0
3, 179808, Note_on_c, 1, 64, 100
3, 179900, Note_off_c, 1, 64, 0
3, 179904, Note_on_c, 1, 61, 100
3, 179996, Note_off_c, 1, 61, 0
3, 180000, Note_on_c, 1, 64, 100
3, 180092, Note_off_c, 1, 64, 0
3, 180096, Note_on_c, 1, 57, 100
3, 180188, Note_off_c, 1, 57, 0
3, 180192, Note_on_c, 1, 64, 100
3, 180284, Note_off_c, 1, 64, 0
3, 180288, Note_on_c, 1, 61, 100
3, 180380, Note_off_c, 1, 61, 0
3, 180384, Note_on_c, 1, 64, 100
3, 180476, Note_off_c, 1, 64, 0
3, 180480, Note_on_c, 1, 57, 100
3, 180572, Note_off_c, 1, 57, 0
3, 180576, Note_on_c, 1, 64, 100
3, 180668, Note_off_c, 1, 64, 0
3, 180672, Note_on_c, 1, 61, 100
3, 180764, Note_off_c, 1, 61, 0
3, 180768, Note_on_c, 1, 64, 100
3, 180860, Note_off_c, 1, 64, 0
3, 180864, Note_on_c, 1, 56, 100
3, 180956, Note_off_c, 1, 56, 0
3, 180960, Note_on_c, 1, 64, 100
3, 181052, Note_off_c, 1, 64, 0
3, 181056, Note_on_c, 1, 59, 100
3, 181148, Note_off_c, 1, 59, 0
3, 181152, Note_on_c, 1, 64, 100
3, 181244, Note_off_c, 1, 64, 0
3, 181248, Note_on_c, 1, 59, 100
3, 181248, Note_on_c, 1, 54, 100
3, 181248, Note_on_c, 1, 51, 100
3, 182396, Note_off_c, 1, 54, 0
3, 182396, Note_off_c, 1, 51, 0
3, 182400, Note_on_c, 1, 56, 100
3, 182400, Note_on_c, 1, 52, 100
3, 182596, Note_off_c, 1, 59, 0
3, 182720, Note_off_c, 1, 56, 0
3, 182720, Note_off_c, 1, 52, 0
3, 190464, Note_on_c, 1, 57, 100
3, 190556, Note_off_c, 1, 57, 0
3, 190560, Note_on_c, 1, 64, 100
3, 190652, Note_off_c, 1, 64, 0
3, 190656, Note_on_c, 1, 61, 100
3, 190748, Note_off_c, 1, 61, 0
3, 190752, Note_on_c, 1, 64, 100
3, 190844, Note_off_c, 1, 64, 0
3, 190848, Note_on_c, 1, 57, 100
3, 190940, Note_off_c, 1, 57, 0
3, 190944, Note_on_c, 1, 64, 100
3, 191036, Note_off_c, 1, 64, 0
3, 191040, Note_on_c, 1, 61, 100
3, 191132, Note_off_c, 1, 61, 0
3, 191136, Note_on_c, 1, 64, 100
3, 191228, Note_off_c, 1, 64, 0
3, 191232, Note_on_c, 1, 57, 100
3, 191324, Note_off_c, 1, 57, 0
3, 191328, Note_on_c, 1, 64, 100
3, 191420, Note_off_c, 1, 64, 0
3, 191424, Note_on_c, 1, 61, 100
3, 191516, Note_off_c, 1, 61, 0
3, 191520, Note_on_c, 1, 64, 100
3, 191612, Note_off_c, 1, 64, 0
3, 191616, Note_on_c, 1, 56, 100
3, 191708, Note_off_c, 1, 56, 0
3, 191712, Note_on_c, 1, 64, 100
3, 191804, Note_off_c, 1, 64, 0
3, 191808, Note_on_c, 1, 59, 100
3, 191900, Note_off_c, 1, 59, 0
3, 191904, Note_on_c, 1, 64, 100
3, 191996, Note_off_c, 1, 64, 0
3, 192000, Note_on_c, 1, 59, 100
3, 192000, Note_on_c, 1, 54, 100
3, 192000, Note_on_c, 1, 51, 100
3, 193148, Note_off_c, 1, 54, 0
3, 193148, Note_off_c, 1, 51, 0
3, 193152, Note_on_c, 1, 56, 100
3, 193152, Note_on_c, 1, 52, 100
3, 193532, Note_off_c, 1, 59, 0
3, 193532, Note_off_c, 1, 56, 0
3, 193532, Note_off_c, 1, 52, 0
3, 193536, Note_on_c, 1, 57, 100
3, 193536, Note_on_c, 1, 66, 100
3, 194300, Note_off_c, 1, 57, 0
3, 194300, Note_off_c, 1, 66, 0
3, 194304, Note_on_c, 1, 59, 100
3, 194304, Note_on_c, 1, 68, 100
3, 194684, Note_off_c, 1, 68, 0
3, 194688, Note_on_c, 1, 69, 100
3, 195068, Note_off_c, 1, 59, 0
3, 195068, Note_off_c, 1, 69, 0
3, 195072, Note_on_c, 1, 59, 100
3, 195072, Note_on_c, 1, 54, 100
3, 195072, Note_on_c, 1, 51, 100
3, 196220, Note_off_c, 1, 54, 0
3, 196220, Note_off_c, 1, 51, 0
3, 196224, Note_on_c, 1, 56, 100
3, 196224, Note_on_c, 1, 52, 100
3, 196604, Note_off_c, 1, 59, 0
3, 196604, Note_off_c, 1, 56, 0
3, 196604, Note_off_c, 1, 52, 0
3, 196608, Note_on_c, 1, 47, 100
3, 196608, Note_on_c, 1, 42, 100
3, 196608, Note_on_c, 1, 39, 100
3, 197756, Note_off_c, 1, 42, 0
3, 197756, Note_off_c, 1, 39, 0
3, 197760, Note_on_c, 1, 44, 100
3, 197760, Note_on_c, 1, 40, 100
3, 198140, Note_off_c, 1, 47, 0
3, 198140, Note_off_c, 1, 44, 0
3, 198140, Note_off_c, 1, 40, 0
3, 198144, Note_on_c, 1, 54, 90
3, 198144, Note_on_c, 1, 49, 90
3, 198144, Note_on_c, 1, 45, 90
3, 199492, Note_off_c, 1, 54, 0
3, 199492, Note_off_c, 1, 49, 0
3, 199492, Note_off_c, 1, 45, 0
3, 199680, Note_on_c, 1, 66, 90
3, 199680, Note_on_c, 1, 61, 90
3, 199680, Note_on_c, 1, 57, 90
3, 201028, Note_off_c, 1, 66, 0
3, 201028, Note_off_c, 1, 61, 0
3, 201028, Note_off_c, 1, 57, 0
3, 201216, Note_on_c, 1, 57, 100
3, 201216, Note_on_c, 1, 61, 100
3, 201216, Note_on_c, 1, 66, 100
3, 201536, Note_off_c, 1, 57, 0
3, 201536, Note_off_c, 1, 61, 0
3, 201536, Note_off_c, 1, 66, 0
3, 203904, Note_on_c, 1, 49, 100
3, 203904, Note_on_c, 1, 37, 100
3, 204224, Note_off_c, 1, 49, 0
3, 204224, Note_off_c, 1, 37, 0
3, 204288, Note_on_c, 1, 47, 100
3, 204288, Note_on_c, 1, 35, 100
3, 205636, Note_off_c, 1, 47, 0
3, 205636, Note_off_c, 1, 35, 0
3, 238080, Note_on_c, 1, 54, 87
3, 238400, Note_off_c, 1, 54, 0
3, 238848, Note_on_c, 1, 47, 91
3, 239168, Note_off_c, 1, 47, 0
3, 239616, Note_on_c, 1, 52, 95
3, 239936, Note_off_c, 1, 52, 0
3, 262656, Note_on_c, 1, 55, 75
3, 262656, Note_on_c, 1, 43, 75
3, 262976, Note_off_c, 1, 55, 0
3, 262976, Note_off_c, 1, 43, 0
3, 263424, Note_on_c, 1, 59, 75
3, 263424, Note_on_c, 1, 47, 75
3, 263744, Note_off_c, 1, 59, 0
3, 263744, Note_off_c, 1, 47, 0
3, 264192, Note_on_c, 1, 60, 85
3, 264192, Note_on_c, 1, 48, 85
3, 264512, Note_off_c, 1, 60, 0
3, 264512, Note_off_c, 1, 48, 0
3, 265728, Note_on_c, 1, 53, 85
3, 265728, Note_on_c, 1, 41, 85
3, 266048, Note_off_c, 1, 53, 0
3, 266048, Note_off_c, 1, 41, 0
3, 266496, Note_on_c, 1, 57, 85
3, 266496, Note_on_c, 1, 45, 85
3, 266816, Note_off_c, 1, 57, 0
3, 266816, Note_off_c, 1, 45, 0
3, 267264, Note_on_c, 1, 59, 85
3, 267264, Note_on_c, 1, 47, 85
3, 267584, Note_off_c, 1, 59, 0
3, 267584, Note_off_c, 1, 47, 0
3, 268800, Note_on_c, 1, 52, 85
3, 268800, Note_on_c, 1, 40, 85
3, 269120, Note_off_c, 1, 52, 0
3, 269120, Note_off_c, 1, 40, 0
3, 269568, Note_on_c, 1, 56, 85
3, 269568, Note_on_c, 1, 44, 85
3, 269888, Note_off_c, 1, 56, 0
3, 269888, Note_off_c, 1, 44, 0
3, 270336, Note_on_c, 1, 57, 85
3, 270336, Note_on_c, 1, 45, 85
3, 270656, Note_off_c, 1, 57, 0
3, 270656, Note_off_c, 1, 45, 0
3, 271872, Note_on_c, 1, 53, 87
3, 271872, Note_on_c, 1, 41, 87
3, 273404, Note_off_c, 1, 53, 0
3, 273404, Note_off_c, 1, 41, 0
3, 273408, Note_on_c, 1, 40, 100
3, 273408, Note_on_c, 1, 52, 100
3, 273728, Note_off_c, 1, 40, 0
3, 273728, Note_off_c, 1, 52, 0
3, 276480, Note_on_c, 1, 52, 75
3, 276480, Note_on_c, 1, 40, 75
3, 279872, Note_off_c, 1, 52, 0
3, 279872, Note_off_c, 1, 40, 0
3, 282624, Note_on_c, 1, 52, 75
3, 282624, Note_on_c, 1, 40, 75
3, 285508, Note_off_c, 1, 52, 0
3, 285508, Note_off_c, 1, 40, 0
3, 294912, Note_on_c, 1, 45, 95
3, 294912, Note_on_c, 1, 40, 95
3, 294912, Note_on_c, 1, 42, 95
3, 297796, Note_off_c, 1, 45, 0
3, 297796, Note_off_c, 1, 40, 0
3, 297796, Note_off_c, 1, 42, 0
3, 297984, Note_on_c, 1, 40, 100
3, 297984, Note_on_c, 1, 44, 100
3, 297984, Note_on_c, 1, 47, 100
3, 300868, Note_off_c, 1, 40, 0
3, 300868, Note_off_c, 1, 44, 0
3, 300868, Note_off_c, 1, 47, 0
3, 323328, Note_on_c, 1, 61, 100
3, 323420, Note_off_c, 1, 61, 0
3, 323424, Note_on_c, 1, 59, 100
3, 323516, Note_off_c, 1, 59, 0
3, 323520, Note_on_c, 1, 57, 100
3, 323612, Note_off_c, 1, 57, 0
3, 323616, Note_on_c, 1, 56, 100
3, 323708, Note_off_c, 1, 56, 0
3, 323712, Note_on_c, 1, 54, 100
3, 323804, Note_off_c, 1, 54, 0
3, 323808, Note_on_c, 1, 52, 100
3, 323900, Note_off_c, 1, 52, 0
3, 323904, Note_on_c, 1, 50, 100
3, 323996, Note_off_c, 1, 50, 0
3, 324000, Note_on_c, 1, 49, 100
3, 324092, Note_off_c, 1, 49, 0
3, 324096, Note_on_c, 1, 47, 100
3, 324284, Note_off_c, 1, 47, 0
3, 324288, Note_on_c, 1, 49, 100
3, 324380, Note_off_c, 1, 49, 0
3, 324384, Note_on_c, 1, 50, 100
3, 324476, Note_off_c, 1, 50, 0
3, 324480, Note_on_c, 1, 52, 100
3, 324572, Note_off_c, 1, 52, 0
3, 324576, Note_on_c, 1, 54, 100
3, 324668, Note_off_c, 1, 54, 0
3, 324672, Note_on_c, 1, 56, 100
3, 324764, Note_off_c, 1, 56, 0
3, 324768, Note_on_c, 1, 57, 100
3, 324860, Note_off_c, 1, 57, 0
3, 326016, Note_on_c, 1, 50, 100
3, 326396, Note_off_c, 1, 50, 0
3, 326400, Note_on_c, 1, 52, 100
3, 326780, Note_off_c, 1, 52, 0
3, 326784, Note_on_c, 1, 40, 100
3, 327164, Note_off_c, 1, 40, 0
3, 327168, Note_on_c, 1, 45, 100
3, 327548, Note_off_c, 1, 45, 0
3, 337152, Note_on_c, 1, 56, 75
3, 337340, Note_off_c, 1, 56, 0
3, 337344, Note_on_c, 1, 59, 75
3, 337532, Note_off_c, 1, 59, 0
3, 337536, Note_on_c, 1, 52, 75
3, 337724, Note_off_c, 1, 52, 0
3, 337728, Note_on_c, 1, 56, 75
3, 337888, Note_off_c, 1, 56, 0
3, 337920, Note_on_c, 1, 57, 75
3, 338108, Note_off_c, 1, 57, 0
3, 338112, Note_on_c, 1, 61, 75
3, 338300, Note_off_c, 1, 61, 0
3, 338304, Note_on_c, 1, 57, 75
3, 338492, Note_off_c, 1, 57, 0
3, 338496, Note_on_c, 1, 56, 75
3, 338656, Note_off_c, 1, 56, 0
3, 338688, Note_on_c, 1, 54, 75
3, 338876, Note_off_c, 1, 54, 0
3, 338880, Note_on_c, 1, 57, 75
3, 339068, Note_off_c, 1, 57, 0
3, 339072, Note_on_c, 1, 52, 75
3, 339260, Note_off_c, 1, 52, 0
3, 339264, Note_on_c, 1, 57, 75
3, 339424, Note_off_c, 1, 57, 0
3, 339456, Note_on_c, 1, 50, 75
3, 339456, Note_on_c, 1, 54, 75
3, 341636, Note_off_c, 1, 54, 0
3, 341760, Note_on_c, 1, 59, 101
3, 342244, Note_off_c, 1, 50, 0
3, 342336, Note_on_c, 1, 51, 105
3, 342404, Note_off_c, 1, 59, 0
3, 342496, Note_off_c, 1, 51, 0
3, 342528, Note_on_c, 1, 52, 105
3, 343296, Note_on_c, 1, 62, 115
3, 343616, Note_off_c, 1, 62, 0
3, 343680, Note_on_c, 1, 61, 115
3, 344000, Note_off_c, 1, 61, 0
3, 344064, Note_on_c, 1, 59, 115
3, 344384, Note_off_c, 1, 59, 0
3, 344448, Note_on_c, 1, 57, 115
3, 344768, Note_off_c, 1, 57, 0
3, 344832, Note_on_c, 1, 56, 115
3, 345152, Note_off_c, 1, 56, 0
3, 345216, Note_on_c, 1, 54, 115
3, 345476, Note_off_c, 1, 52, 0
3, 345536, Note_off_c, 1, 54, 0
3, 345600, Note_on_c, 1, 52, 110
3, 345600, Note_on_c, 1, 40, 110
3, 346244, Note_off_c, 1, 52, 0
3, 346244, Note_off_c, 1, 40, 0
3, 346368, Note_on_c, 1, 62, 109
3, 346368, Note_on_c, 1, 50, 109
3, 346688, Note_off_c, 1, 62, 0
3, 346688, Note_off_c, 1, 50, 0
3, 346752, Note_on_c, 1, 60, 96
3, 346752, Note_on_c, 1, 48, 96
3, 347072, Note_off_c, 1, 60, 0
3, 347072, Note_off_c, 1, 48, 0
3, 347136, Note_on_c, 1, 59, 85
3, 347136, Note_on_c, 1, 47, 85
3, 347456, Note_off_c, 1, 59, 0
3, 347456, Note_off_c, 1, 47, 0
3, 347520, Note_on_c, 1, 57, 85
3, 347520, Note_on_c, 1, 45, 85
3, 347840, Note_off_c, 1, 57, 0
3, 347840, Note_off_c, 1, 45, 0
3, 347904, Note_on_c, 1, 55, 85
3, 347904, Note_on_c, 1, 43, 85
3, 348224, Note_off_c, 1, 55, 0
3, 348224, Note_off_c, 1, 43, 0
3, 348288, Note_on_c, 1, 53, 85
3, 348288, Note_on_c, 1, 41, 85
3, 348608, Note_off_c, 1, 53, 0
3, 348608, Note_off_c, 1, 41, 0
3, 348672, Note_on_c, 1, 52, 85
3, 348672, Note_on_c, 1, 40, 85
3, 348992, Note_off_c, 1, 52, 0
3, 348992, Note_off_c, 1, 40, 0
3, 357504, Note_on_c, 1, 56, 85
3, 357504, Note_on_c, 1, 50, 85
3, 357824, Note_off_c, 1, 56, 0
3, 357824, Note_off_c, 1, 50, 0
3, 357888, Note_on_c, 1, 49, 75
3, 357888, Note_on_c, 1, 57, 75
3, 358652, Note_off_c, 1, 49, 0
3, 358656, Note_on_c, 1, 54, 75
3, 359420, Note_off_c, 1, 54, 0
3, 359424, Note_on_c, 1, 57, 75
3, 359424, Note_on_c, 1, 47, 75
3, 360068, Note_off_c, 1, 57, 0
3, 360068, Note_off_c, 1, 47, 0
3, 360068, Note_off_c, 1, 57, 0
3, 360192, Note_on_c, 1, 56, 75
3, 360192, Note_on_c, 1, 52, 75
3, 360836, Note_off_c, 1, 56, 0
3, 360836, Note_off_c, 1, 52, 0
3, 360960, Note_on_c, 1, 57, 75
3, 360960, Note_on_c, 1, 45, 75
3, 361280, Note_off_c, 1, 57, 0
3, 361280, Note_off_c, 1, 45, 0
3, 362112, Note_on_c, 1, 49, 95
3, 362192, Note_off_c, 1, 49, 0
3, 362304, Note_on_c, 1, 51, 85
3, 362384, Note_off_c, 1, 51, 0
3, 362496, Note_on_c, 1, 52, 75
3, 362876, Note_off_c, 1, 52, 0
3, 362880, Note_on_c, 1, 64, 75
3, 363260, Note_off_c, 1, 64, 0
3, 363264, Note_on_c, 1, 52, 75
3, 363644, Note_off_c, 1, 52, 0
3, 373248, Note_on_c, 1, 57, 75
3, 373436, Note_off_c, 1, 57, 0
3, 373632, Note_on_c, 1, 61, 75
3, 373820, Note_off_c, 1, 61, 0
3, 374016, Note_on_c, 1, 64, 75
3, 374204, Note_off_c, 1, 64, 0
3, 374400, Note_on_c, 1, 52, 75
3, 374588, Note_off_c, 1, 52, 0
3, 374784, Note_on_c, 1, 45, 75
3, 374876, Note_off_c, 1, 45, 0
3, 374880, Note_on_c, 1, 57, 75
3, 374972, Note_off_c, 1, 57, 0
3, 374976, Note_on_c, 1, 56, 75
3, 375068, Note_off_c, 1, 56, 0
3, 375072, Note_on_c, 1, 57, 75
3, 375164, Note_off_c, 1, 57, 0
3, 375168, Note_on_c, 1, 56, 75
3, 375260, Note_off_c, 1, 56, 0
3, 375264, Note_on_c, 1, 57, 75
3, 375356, Note_off_c, 1, 57, 0
3, 375360, Note_on_c, 1, 56, 75
3, 375452, Note_off_c, 1, 56, 0
3, 375456, Note_on_c, 1, 57, 75
3, 375548, Note_off_c, 1, 57, 0
3, 375552, Note_on_c, 1, 56, 75
3, 375644, Note_off_c, 1, 56, 0
3, 375648, Note_on_c, 1, 57, 75
3, 375740, Note_off_c, 1, 57, 0
3, 375744, Note_on_c, 1, 56, 75
3, 375836, Note_off_c, 1, 56, 0
3, 375840, Note_on_c, 1, 57, 75
3, 375932, Note_off_c, 1, 57, 0
3, 375936, Note_on_c, 1, 55, 75
3, 376028, Note_off_c, 1, 55, 0
3, 376032, Note_on_c, 1, 57, 75
3, 376124, Note_off_c, 1, 57, 0
3, 376128, Note_on_c, 1, 52, 75
3, 376220, Note_off_c, 1, 52, 0
3, 376224, Note_on_c, 1, 57, 75
3, 376316, Note_off_c, 1, 57, 0
3, 376320, Note_on_c, 1, 53, 75
3, 376412, Note_off_c, 1, 53, 0
3, 376416, Note_on_c, 1, 57, 75
3, 376480, Note_on_c, 1, 56, 75
3, 376508, Note_off_c, 1, 57, 0
3, 376572, Note_off_c, 1, 56, 0
3, 376608, Note_on_c, 1, 57, 75
3, 376700, Note_off_c, 1, 57, 0
3, 376704, Note_on_c, 1, 52, 75
3, 376796, Note_off_c, 1, 52, 0
3, 376800, Note_on_c, 1, 57, 75
3, 376892, Note_off_c, 1, 57, 0
3, 376896, Note_on_c, 1, 56, 75
3, 376988, Note_off_c, 1, 56, 0
3, 376992, Note_on_c, 1, 57, 75
3, 377084, Note_off_c, 1, 57, 0
3, 377088, Note_on_c, 1, 56, 75
3, 377180, Note_off_c, 1, 56, 0
3, 377184, Note_on_c, 1, 57, 75
3, 377276, Note_off_c, 1, 57, 0
3, 377280, Note_on_c, 1, 56, 75
3, 377372, Note_off_c, 1, 56, 0
3, 377376, Note_on_c, 1, 57, 75
3, 377468, Note_off_c, 1, 57, 0
3, 377472, Note_on_c, 1, 55, 75
3, 377564, Note_off_c, 1, 55, 0
3, 377568, Note_on_c, 1, 57, 75
3, 377660, Note_off_c, 1, 57, 0
3, 377664, Note_on_c, 1, 52, 75
3, 377756, Note_off_c, 1, 52, 0
3, 377760, Note_on_c, 1, 57, 75
3, 377840, Note_off_c, 1, 57, 0
3, 377856, Note_on_c, 1, 50, 75
3, 377948, Note_off_c, 1, 50, 0
3, 377952, Note_on_c, 1, 57, 75
3, 378044, Note_off_c, 1, 57, 0
3, 378048, Note_on_c, 1, 56, 75
3, 378140, Note_off_c, 1, 56, 0
3, 378144, Note_on_c, 1, 57, 75
3, 378236, Note_off_c, 1, 57, 0
3, 378240, Note_on_c, 1, 49, 75
3, 378332, Note_off_c, 1, 49, 0
3, 378336, Note_on_c, 1, 57, 75
3, 378428, Note_off_c, 1, 57, 0
3, 378432, Note_on_c, 1, 56, 75
3, 378524, Note_off_c, 1, 56, 0
3, 378528, Note_on_c, 1, 57, 75
3, 378620, Note_off_c, 1, 57, 0
3, 378624, Note_on_c, 1, 56, 75
3, 378716, Note_off_c, 1, 56, 0
3, 378720, Note_on_c, 1, 57, 75
3, 378812, Note_off_c, 1, 57, 0
3, 378816, Note_on_c, 1, 56, 75
3, 378908, Note_off_c, 1, 56, 0
3, 378912, Note_on_c, 1, 57, 75
3, 379004, Note_off_c, 1, 57, 0
3, 379008, Note_on_c, 1, 55, 75
3, 379100, Note_off_c, 1, 55, 0
3, 379104, Note_on_c, 1, 57, 75
3, 379196, Note_off_c, 1, 57, 0
3, 379200, Note_on_c, 1, 52, 75
3, 379292, Note_off_c, 1, 52, 0
3, 379296, Note_on_c, 1, 57, 75
3, 379388, Note_off_c, 1, 57, 0
3, 379392, Note_on_c, 1, 50, 75
3, 379484, Note_off_c, 1, 50, 0
3, 379488, Note_on_c, 1, 57, 75
3, 379580, Note_off_c, 1, 57, 0
3, 379584, Note_on_c, 1, 54, 75
3, 379676, Note_off_c, 1, 54, 0
3, 379680, Note_on_c, 1, 57, 75
3, 379772, Note_off_c, 1, 57, 0
3, 379776, Note_on_c, 1, 50, 75
3, 379868, Note_off_c, 1, 50, 0
3, 379872, Note_on_c, 1, 57, 75
3, 379964, Note_off_c, 1, 57, 0
3, 379968, Note_on_c, 1, 54, 75
3, 380060, Note_off_c, 1, 54, 0
3, 380064, Note_on_c, 1, 57, 75
3, 380156, Note_off_c, 1, 57, 0
3, 380160, Note_on_c, 1, 50, 75
3, 380252, Note_off_c, 1, 50, 0
3, 380272, Note_on_c, 1, 57, 75
3, 380352, Note_on_c, 1, 54, 75
3, 380364, Note_off_c, 1, 57, 0
3, 380444, Note_off_c, 1, 54, 0
3, 380464, Note_on_c, 1, 57, 75
3, 380544, Note_on_c, 1, 49, 75
3, 380556, Note_off_c, 1, 57, 0
3, 380636, Note_off_c, 1, 49, 0
3, 380640, Note_on_c, 1, 57, 75
3, 380732, Note_off_c, 1, 57, 0
3, 380736, Note_on_c, 1, 52, 75
3, 380828, Note_off_c, 1, 52, 0
3, 380832, Note_on_c, 1, 57, 75
3, 380912, Note_off_c, 1, 57, 0
3, 380928, Note_on_c, 1, 47, 75
3, 380928, Note_on_c, 1, 44, 75
3, 380928, Note_on_c, 1, 52, 75
3, 382076, Note_off_c, 1, 47, 0
3, 382076, Note_off_c, 1, 44, 0
3, 382080, Note_on_c, 1, 49, 75
3, 382080, Note_on_c, 1, 45, 75
3, 382276, Note_off_c, 1, 52, 0
3, 382400, Note_off_c, 1, 49, 0
3, 382400, Note_off_c, 1, 45, 0
3, 382464, Note_on_c, 1, 59, 75
3, 382464, Note_on_c, 1, 50, 75
3, 383108, Note_off_c, 1, 59, 0
3, 383108, Note_off_c, 1, 50, 0
3, 383232, Note_on_c, 1, 52, 75
3, 383232, Note_on_c, 1, 61, 75
3, 383612, Note_off_c, 1, 61, 0
3, 383616, Note_on_c, 1, 62, 75
3, 383876, Note_off_c, 1, 52, 0
3, 383996, Note_off_c, 1, 62, 0
3, 384000, Note_on_c, 1, 61, 75
3, 384000, Note_on_c, 1, 54, 75
3, 384320, Note_off_c, 1, 61, 0
3, 384320, Note_off_c, 1, 54, 0
3, 384768, Note_on_c, 1, 61, 75
3, 384768, Note_on_c, 1, 56, 75
3, 384768, Note_on_c, 1, 53, 75
3, 385532, Note_off_c, 1, 61, 0
3, 385532, Note_off_c, 1, 56, 0
3, 385532, Note_off_c, 1, 53, 0
3, 385536, Note_on_c, 1, 61, 75
3, 385536, Note_on_c, 1, 57, 75
3, 385536, Note_on_c, 1, 54, 75
3, 385856, Note_off_c, 1, 61, 0
3, 385856, Note_off_c, 1, 57, 0
3, 385856, Note_off_c, 1, 54, 0
3, 386304, Note_on_c, 1, 61, 75
3, 386304, Note_on_c, 1, 56, 75
3, 386304, Note_on_c, 1, 53, 75
3, 387068, Note_off_c, 1, 61, 0
3, 387068, Note_off_c, 1, 56, 0
3, 387068, Note_off_c, 1, 53, 0
3, 387072, Note_on_c, 1, 61, 75
3, 387072, Note_on_c, 1, 57, 75
3, 387072, Note_on_c, 1, 54, 75
3, 387392, Note_off_c, 1, 61, 0
3, 387392, Note_off_c, 1, 57, 0
3, 387392, Note_off_c, 1, 54, 0
3, 387840, Note_on_c, 1, 61, 75
3, 387840, Note_on_c, 1, 56, 75
3, 387840, Note_on_c, 1, 53, 75
3, 388604, Note_off_c, 1, 61, 0
3, 388604, Note_off_c, 1, 56, 0
3, 388604, Note_off_c, 1, 53, 0
3, 388608, Note_on_c, 1, 61, 76
3, 388608, Note_on_c, 1, 57, 76
3, 388608, Note_on_c, 1, 54, 76
3, 388928, Note_off_c, 1, 61, 0
3, 388928, Note_off_c, 1, 57, 0
3, 388928, Note_off_c, 1, 54, 0
3, 388992, Note_on_c, 1, 57, 82
3, 388992, Note_on_c, 1, 54, 82
3, 389636, Note_off_c, 1, 57, 0
3, 389636, Note_off_c, 1, 54, 0
3, 389760, Note_on_c, 1, 57, 95
3, 389760, Note_on_c, 1, 55, 95
3, 389760, Note_on_c, 1, 52, 95
3, 390080, Note_off_c, 1, 57, 0
3, 390080, Note_off_c, 1, 55, 0
3, 390080, Note_off_c, 1, 52, 0
3, 390144, Note_on_c, 1, 50, 100
3, 390236, Note_off_c, 1, 50, 0
3, 390240, Note_on_c, 1, 57, 100
3, 390332, Note_off_c, 1, 57, 0
3, 390336, Note_on_c, 1, 54, 100
3, 390428, Note_off_c, 1, 54, 0
3, 390432, Note_on_c, 1, 57, 100
3, 390524, Note_off_c, 1, 57, 0
3, 390528, Note_on_c, 1, 50, 100
3, 390620, Note_off_c, 1, 50, 0
3, 390624, Note_on_c, 1, 57, 100
3, 390716, Note_off_c, 1, 57, 0
3, 390720, Note_on_c, 1, 54, 100
3, 390812, Note_off_c, 1, 54, 0
3, 390816, Note_on_c, 1, 57, 100
3, 390908, Note_off_c, 1, 57, 0
3, 390912, Note_on_c, 1, 50, 100
3, 391004, Note_off_c, 1, 50, 0
3, 391008, Note_on_c, 1, 57, 100
3, 391100, Note_off_c, 1, 57, 0
3, 391104, Note_on_c, 1, 54, 100
3, 391196, Note_off_c, 1, 54, 0
3, 391200, Note_on_c, 1, 57, 100
3, 391292, Note_off_c, 1, 57, 0
3, 391296, Note_on_c, 1, 49, 100
3, 391388, Note_off_c, 1, 49, 0
3, 391392, Note_on_c, 1, 57, 100
3, 391484, Note_off_c, 1, 57, 0
3, 391488, Note_on_c, 1, 52, 100
3, 391580, Note_off_c, 1, 52, 0
3, 391584, Note_on_c, 1, 57, 100
3, 391664, Note_off_c, 1, 57, 0
3, 391680, Note_on_c, 1, 47, 100
3, 391680, Note_on_c, 1, 44, 100
3, 391680, Note_on_c, 1, 52, 100
3, 392828, Note_off_c, 1, 47, 0
3, 392828, Note_off_c, 1, 44, 0
3, 392832, Note_on_c, 1, 45, 100
3, 392832, Note_on_c, 1, 49, 100
3, 393028, Note_off_c, 1, 52, 0
3, 393152, Note_off_c, 1, 45, 0
3, 393152, Note_off_c, 1, 49, 0
3, 393216, Note_on_c, 1, 59, 100
3, 393216, Note_on_c, 1, 50, 100
3, 393860, Note_off_c, 1, 59, 0
3, 393860, Note_off_c, 1, 50, 0
3, 393984, Note_on_c, 1, 52, 85
3, 393984, Note_on_c, 1, 61, 85
3, 394304, Note_off_c, 1, 61, 0
3, 394368, Note_on_c, 1, 62, 82
3, 394628, Note_off_c, 1, 52, 0
3, 394748, Note_off_c, 1, 62, 0
3, 394752, Note_on_c, 1, 59, 100
3, 394752, Note_on_c, 1, 56, 100
3, 394752, Note_on_c, 1, 64, 100
3, 395900, Note_off_c, 1, 59, 0
3, 395900, Note_off_c, 1, 56, 0
3, 395904, Note_on_c, 1, 57, 100
3, 395904, Note_on_c, 1, 61, 100
3, 396284, Note_off_c, 1, 64, 0
3, 396284, Note_off_c, 1, 57, 0
3, 396284, Note_off_c, 1, 61, 0
3, 396288, Note_on_c, 1, 47, 100
3, 396288, Note_on_c, 1, 44, 100
3, 396288, Note_on_c, 1, 52, 100
3, 397436, Note_off_c, 1, 47, 0
3, 397436, Note_off_c, 1, 44, 0
3, 397440, Note_on_c, 1, 45, 100
3, 397440, Note_on_c, 1, 49, 100
3, 397636, Note_off_c, 1, 52, 0
3, 397760, Note_off_c, 1, 45, 0
3, 397760, Note_off_c, 1, 49, 0
3, 397824, Note_on_c, 1, 54, 100
3, 397824, Note_on_c, 1, 50, 100
3, 398144, Note_off_c, 1, 54, 0
3, 398208, Note_on_c, 1, 59, 100
3, 398588, Note_off_c, 1, 50, 0
3, 398592, Note_on_c, 1, 52, 100
3, 398852, Note_off_c, 1, 59, 0
3, 398976, Note_on_c, 1, 61, 100
3, 399356, Note_off_c, 1, 52, 0
3, 399360, Note_on_c, 1, 54, 101
3, 399680, Note_off_c, 1, 61, 0
3, 399744, Note_on_c, 1, 62, 103
3, 400124, Note_off_c, 1, 54, 0
3, 400128, Note_on_c, 1, 56, 105
3, 400388, Note_off_c, 1, 62, 0
3, 400512, Note_on_c, 1, 64, 107
3, 400772, Note_off_c, 1, 56, 0
3, 400832, Note_off_c, 1, 64, 0
3, 401664, Note_on_c, 1, 64, 75
3, 401664, Note_on_c, 1, 57, 75
3, 402428, Note_off_c, 1, 64, 0
3, 402428, Note_off_c, 1, 57, 0
3, 402432, Note_on_c, 1, 62, 75
3, 402432, Note_on_c, 1, 50, 75
3, 403964, Note_off_c, 1, 62, 0
3, 403964, Note_off_c, 1, 50, 0
3, 403968, Note_on_c, 1, 59, 75
3, 403968, Note_on_c, 1, 50, 75
3, 404288, Note_off_c, 1, 59, 0
3, 404288, Note_off_c, 1, 50, 0
3, 404352, Note_on_c, 1, 52, 75
3, 404636, Note_off_c, 1, 52, 0
3, 404640, Note_on_c, 1, 50, 75
3, 404728, Note_off_c, 1, 50, 0
3, 404736, Note_on_c, 1, 49, 75
3, 405116, Note_off_c, 1, 49, 0
3, 405120, Note_on_c, 1, 45, 75
3, 405440, Note_off_c, 1, 45, 0
3, 405504, Note_on_c, 1, 54, 75
3, 406468, Note_off_c, 1, 54, 0
3, 406656, Note_on_c, 1, 59, 75
3, 406940, Note_off_c, 1, 59, 0
3, 406944, Note_on_c, 1, 56, 75
3, 407036, Note_off_c, 1, 56, 0
3, 407040, Note_on_c, 1, 52, 75
3, 407360, Note_off_c, 1, 52, 0
3, 407424, Note_on_c, 1, 57, 75
3, 407708, Note_off_c, 1, 57, 0
3, 407712, Note_on_c, 1, 54, 75
3, 407796, Note_off_c, 1, 54, 0
3, 407808, Note_on_c, 1, 50, 75
3, 408128, Note_off_c, 1, 50, 0
3, 417792, Note_on_c, 1, 40, 76
3, 417884, Note_off_c, 1, 40, 0
3, 417888, Note_on_c, 1, 52, 79
3, 417980, Note_off_c, 1, 52, 0
3, 417984, Note_on_c, 1, 51, 82
3, 418076, Note_off_c, 1, 51, 0
3, 418080, Note_on_c, 1, 52, 85
3, 418172, Note_off_c, 1, 52, 0
3, 418176, Note_on_c, 1, 40, 89
3, 418268, Note_off_c, 1, 40, 0
3, 418272, Note_on_c, 1, 52, 92
3, 418364, Note_off_c, 1, 52, 0
3, 418368, Note_on_c, 1, 51, 95
3, 418460, Note_off_c, 1, 51, 0
3, 418464, Note_on_c, 1, 52, 98
3, 418556, Note_off_c, 1, 52, 0
3, 418560, Note_on_c, 1, 40, 100
3, 418652, Note_off_c, 1, 40, 0
3, 418656, Note_on_c, 1, 52, 97
3, 418748, Note_off_c, 1, 52, 0
3, 418752, Note_on_c, 1, 51, 94
3, 418844, Note_off_c, 1, 51, 0
3, 418848, Note_on_c, 1, 52, 90
3, 418940, Note_off_c, 1, 52, 0
3, 418944, Note_on_c, 1, 40, 87
3, 419036, Note_off_c, 1, 40, 0
3, 419040, Note_on_c, 1, 52, 84
3, 419132, Note_off_c, 1, 52, 0
3, 419136, Note_on_c, 1, 51, 80
3, 419228, Note_off_c, 1, 51, 0
3, 419232, Note_on_c, 1, 52, 77
3, 419312, Note_off_c, 1, 52, 0
3, 419328, Note_on_c, 1, 40, 75
3, 419420, Note_off_c, 1, 40, 0
3, 419424, Note_on_c, 1, 52, 75
3, 419516, Note_off_c, 1, 52, 0
3, 419520, Note_on_c, 1, 51, 75
3, 419612, Note_off_c, 1, 51, 0
3, 419616, Note_on_c, 1, 52, 75
3, 419708, Note_off_c, 1, 52, 0
3, 419712, Note_on_c, 1, 40, 75
3, 419804, Note_off_c, 1, 40, 0
3, 419808, Note_on_c, 1, 52, 75
3, 419900, Note_off_c, 1, 52, 0
3, 419904, Note_on_c, 1, 51, 75
3, 419996, Note_off_c, 1, 51, 0
3, 420000, Note_on_c, 1, 52, 75
3, 420092, Note_off_c, 1, 52, 0
3, 420096, Note_on_c, 1, 40, 75
3, 420188, Note_off_c, 1, 40, 0
3, 420192, Note_on_c, 1, 52, 75
3, 420284, Note_off_c, 1, 52, 0
3, 420288, Note_on_c, 1, 51, 75
3, 420380, Note_off_c, 1, 51, 0
3, 420384, Note_on_c, 1, 52, 75
3, 420476, Note_off_c, 1, 52, 0
3, 420480, Note_on_c, 1, 40, 75
3, 420572, Note_off_c, 1, 40, 0
3, 420576, Note_on_c, 1, 52, 75
3, 420668, Note_off_c, 1, 52, 0
3, 420672, Note_on_c, 1, 51, 75
3, 420764, Note_off_c, 1, 51, 0
3, 420768, Note_on_c, 1, 52, 75
3, 420848, Note_off_c, 1, 52, 0
3, 420864, Note_on_c, 1, 40, 100
3, 420956, Note_off_c, 1, 40, 0
3, 420960, Note_on_c, 1, 52, 100
3, 421052, Note_off_c, 1, 52, 0
3, 421056, Note_on_c, 1, 51, 100
3, 421148, Note_off_c, 1, 51, 0
3, 421152, Note_on_c, 1, 52, 100
3, 421232, Note_off_c, 1, 52, 0
3, 421248, Note_on_c, 1, 40, 100
3, 421340, Note_off_c, 1, 40, 0
3, 421344, Note_on_c, 1, 52, 100
3, 421436, Note_off_c, 1, 52, 0
3, 421440, Note_on_c, 1, 51, 100
3, 421532, Note_off_c, 1, 51, 0
3, 421536, Note_on_c, 1, 52, 100
3, 421616, Note_off_c, 1, 52, 0
3, 421632, Note_on_c, 1, 40, 100
3, 421724, Note_off_c, 1, 40, 0
3, 421728, Note_on_c, 1, 52, 100
3, 421820, Note_off_c, 1, 52, 0
3, 421824, Note_on_c, 1, 51, 100
3, 421916, Note_off_c, 1, 51, 0
3, 421920, Note_on_c, 1, 52, 100
3, 422000, Note_off_c, 1, 52, 0
3, 422016, Note_on_c, 1, 40, 100
3, 422108, Note_off_c, 1, 40, 0
3, 422112, Note_on_c, 1, 52, 100
3, 422204, Note_off_c, 1, 52, 0
3, 422208, Note_on_c, 1, 51, 100
3, 422300, Note_off_c, 1, 51, 0
3, 422304, Note_on_c, 1, 52, 100
3, 422384, Note_off_c, 1, 52, 0
3, 422400, Note_on_c, 1, 42, 100
3, 422720, Note_off_c, 1, 42, 0
3, 423936, Note_on_c, 1, 57, 100
3, 423936, Note_on_c, 1, 52, 100
3, 423936, Note_on_c, 1, 49, 100
3, 425284, Note_off_c, 1, 57, 0
3, 425284, Note_off_c, 1, 52, 0
3, 425284, Note_off_c, 1, 49, 0
3, 425472, Note_on_c, 1, 57, 110
3, 425472, Note_on_c, 1, 54, 110
3, 425472, Note_on_c, 1, 50, 110
3, 425792, Note_off_c, 1, 57, 0
3, 425792, Note_off_c, 1, 54, 0
3, 425792, Note_off_c, 1, 50, 0
3, 427008, Note_on_c, 1, 60, 110
3, 427008, Note_on_c, 1, 57, 110
3, 427008, Note_on_c, 1, 54, 110
3, 427008, Note_on_c, 1, 51, 110
3, 428356, Note_off_c, 1, 60, 0
3, 428356, Note_off_c, 1, 57, 0
3, 428356, Note_off_c, 1, 54, 0
3, 428356, Note_off_c, 1, 51, 0
3, 428544, Note_on_c, 1, 61, 100
3, 428544, Note_on_c, 1, 52, 100
3, 428864, Note_off_c, 1, 61, 0
3, 428928, Note_on_c, 1, 62, 100
3, 429088, Note_off_c, 1, 62, 0
3, 429120, Note_on_c, 1, 59, 100
3, 429280, Note_off_c, 1, 59, 0
3, 429296, Note_on_c, 1, 61, 100
3, 429456, Note_off_c, 1, 61, 0
3, 429504, Note_on_c, 1, 56, 100
3, 429664, Note_off_c, 1, 56, 0
3, 429696, Note_on_c, 1, 57, 100
3, 429856, Note_off_c, 1, 57, 0
3, 429888, Note_on_c, 1, 59, 100
3, 429892, Note_off_c, 1, 52, 0
3, 430048, Note_off_c, 1, 59, 0
3, 430080, Note_on_c, 1, 52, 100
3, 430080, Note_on_c, 1, 61, 100
3, 430400, Note_off_c, 1, 61, 0
3, 430464, Note_on_c, 1, 62, 100
3, 430624, Note_off_c, 1, 62, 0
3, 430656, Note_on_c, 1, 59, 100
3, 430816, Note_off_c, 1, 59, 0
3, 430848, Note_on_c, 1, 61, 100
3, 431008, Note_off_c, 1, 61, 0
3, 431040, Note_on_c, 1, 56, 100
3, 431200, Note_off_c, 1, 56, 0
3, 431232, Note_on_c, 1, 57, 100
3, 431392, Note_off_c, 1, 57, 0
3, 431424, Note_on_c, 1, 59, 100
3, 431428, Note_off_c, 1, 52, 0
3, 431584, Note_off_c, 1, 59, 0
3, 431616, Note_on_c, 1, 61, 100
3, 431616, Note_on_c, 1, 52, 100
3, 431936, Note_off_c, 1, 61, 0
3, 431936, Note_off_c, 1, 52, 0
3, 433152, Note_on_c, 1, 52, 90
3, 433152, Note_on_c, 1, 40, 90
3, 433472, Note_off_c, 1, 52, 0
3, 433472, Note_off_c, 1, 40, 0
3, 456192, Note_on_c, 1, 52, 110
3, 456192, Note_on_c, 1, 40, 110
3, 458048, Note_off_c, 1, 52, 64
3, 458048, Note_off_c, 1, 40, 64
3, 467712, Note_on_c, 1, 60, 100
3, 467804, Note_off_c, 1, 60, 0
3, 467808, Note_on_c, 1, 57, 100
3, 467900, Note_off_c, 1, 57, 0
3, 467904, Note_on_c, 1, 54, 100
3, 467996, Note_off_c, 1, 54, 0
3, 468000, Note_on_c, 1, 51, 100
3, 468092, Note_off_c, 1, 51, 0
3, 468096, Note_on_c, 1, 48, 100
3, 468188, Note_off_c, 1, 48, 0
3, 468192, Note_on_c, 1, 45, 100
3, 468284, Note_off_c, 1, 45, 0
3, 468288, Note_on_c, 1, 42, 100
3, 468380, Note_off_c, 1, 42, 0
3, 468384, Note_on_c, 1, 39, 100
3, 468464, Note_off_c, 1, 39, 0
3, 468480, Note_on_c, 1, 38, 120
3, 469184, Note_off_c, 1, 38, 0
3, 469248, Note_on_c, 1, 44, 105
3, 469628, Note_off_c, 1, 44, 0
3, 469632, Note_on_c, 1, 47, 105
3, 470012, Note_off_c, 1, 47, 0
3, 470016, Note_on_c, 1, 52, 100
3, 470016, Note_on_c, 1, 50, 100
3, 470400, Note_on_c, 1, 52, 100
3, 470400, Note_on_c, 1, 54, 100
3, 470440, Note_off_c, 1, 52, 0
3, 470440, Note_off_c, 1, 54, 0
3, 470448, Note_on_c, 1, 52, 100
3, 470488, Note_off_c, 1, 52, 0
3, 470492, Note_off_c, 1, 52, 0
3, 470496, Note_on_c, 1, 51, 100
3, 470536, Note_off_c, 1, 51, 0
3, 470544, Note_on_c, 1, 52, 100
3, 470584, Note_off_c, 1, 52, 0
3, 470592, Note_on_c, 1, 54, 100
3, 470632, Note_off_c, 1, 54, 0
3, 470640, Note_on_c, 1, 56, 100
3, 470680, Note_off_c, 1, 56, 0
3, 470688, Note_on_c, 1, 57, 100
3, 470728, Note_off_c, 1, 57, 0
3, 470736, Note_on_c, 1, 59, 100
3, 470776, Note_off_c, 1, 59, 0
3, 470784, Note_on_c, 1, 61, 100
3, 470824, Note_off_c, 1, 61, 0
3, 470832, Note_on_c, 1, 62, 100
3, 470872, Note_off_c, 1, 62, 0
3, 471364, Note_off_c, 1, 50, 0
3, 471552, Note_on_c, 1, 58, 110
3, 471552, Note_on_c, 1, 55, 110
3, 471552, Note_on_c, 1, 52, 110
3, 471552, Note_on_c, 1, 49, 110
3, 471932, Note_off_c, 1, 58, 0
3, 471932, Note_off_c, 1, 55, 0
3, 471932, Note_off_c, 1, 52, 0
3, 471932, Note_off_c, 1, 49, 0
3, 473088, Note_on_c, 1, 62, 75
3, 473088, Note_on_c, 1, 66, 75
3, 473408, Note_off_c, 1, 62, 0
3, 473408, Note_off_c, 1, 66, 0
3, 473856, Note_on_c, 1, 58, 75
3, 473856, Note_on_c, 1, 66, 75
3, 474176, Note_off_c, 1, 58, 0
3, 474176, Note_off_c, 1, 66, 0
3, 474624, Note_on_c, 1, 59, 75
3, 474624, Note_on_c, 1, 66, 75
3, 474944, Note_off_c, 1, 59, 0
3, 474944, Note_off_c, 1, 66, 0
3, 476160, Note_on_c, 1, 61, 79
3, 476160, Note_on_c, 1, 64, 79
3, 476480, Note_off_c, 1, 61, 0
3, 476480, Note_off_c, 1, 64, 0
3, 476928, Note_on_c, 1, 56, 87
3, 476928, Note_on_c, 1, 64, 87
3, 477248, Note_off_c, 1, 56, 0
3, 477248, Note_off_c, 1, 64, 0
3, 477696, Note_on_c, 1, 57, 95
3, 477696, Note_on_c, 1, 64, 95
3, 478016, Note_off_c, 1, 57, 0
3, 478016, Note_off_c, 1, 64, 0
3, 479232, Note_on_c, 1, 53, 101
3, 479232, Note_on_c, 1, 41, 101
3, 482116, Note_off_c, 1, 53, 64
3, 482116, Note_off_c, 1, 41, 64
3, 482304, Note_on_c, 1, 40, 106
3, 482304, Note_on_c, 1, 52, 106
3, 485188, Note_off_c, 1, 40, 64
3, 485188, Note_off_c, 1, 52, 64
3, 485376, Note_on_c, 1, 39, 111
3, 485376, Note_on_c, 1, 51, 111
3, 488160, Note_on_c, 1, 57, 103
3, 488252, Note_off_c, 1, 57, 0
3, 488256, Note_on_c, 1, 54, 103
3, 488260, Note_off_c, 1, 39, 64
3, 488260, Note_off_c, 1, 51, 64
3, 488348, Note_off_c, 1, 54, 0
3, 488352, Note_on_c, 1, 51, 103
3, 488444, Note_off_c, 1, 51, 0
3, 488448, Note_on_c, 1, 52, 101
3, 488448, Note_on_c, 1, 40, 101
3, 489408, Note_on_c, 1, 57, 103
3, 489408, Note_on_c, 1, 45, 103
3, 489596, Note_off_c, 1, 57, 0
3, 489596, Note_off_c, 1, 45, 0
3, 489600, Note_on_c, 1, 56, 93
3, 489600, Note_on_c, 1, 44, 93
3, 489760, Note_off_c, 1, 52, 0
3, 489760, Note_off_c, 1, 40, 0
3, 489760, Note_off_c, 1, 56, 0
3, 489760, Note_off_c, 1, 44, 0
3, 489792, Note_on_c, 1, 50, 103
3, 489980, Note_off_c, 1, 50, 0
3, 489984, Note_on_c, 1, 49, 94
3, 490144, Note_off_c, 1, 49, 0
3, 490176, Note_on_c, 1, 54, 104
3, 490364, Note_off_c, 1, 54, 0
3, 490368, Note_on_c, 1, 52, 94
3, 490528, Note_off_c, 1, 52, 0
3, 490560, Note_on_c, 1, 57, 105
3, 490748, Note_off_c, 1, 57, 0
3, 490752, Note_on_c, 1, 56, 95
3, 490912, Note_off_c, 1, 56, 0
3, 490944, Note_on_c, 1, 62, 105
3, 491132, Note_off_c, 1, 62, 0
3, 491136, Note_on_c, 1, 61, 96
3, 491296, Note_off_c, 1, 61, 0
3, 491328, Note_on_c, 1, 66, 106
3, 491516, Note_off_c, 1, 66, 64
3, 492672, Note_on_c, 1, 62, 98
3, 492764, Note_off_c, 1, 62, 0
3, 492768, Note_on_c, 1, 59, 98
3, 492860, Note_off_c, 1, 59, 0
3, 492864, Note_on_c, 1, 56, 99
3, 492956, Note_off_c, 1, 56, 0
3, 492960, Note_on_c, 1, 52, 99
3, 493052, Note_off_c, 1, 52, 0
3, 493056, Note_on_c, 1, 40, 99
3, 493376, Note_off_c, 1, 40, 0
3, 496128, Note_on_c, 1, 40, 75
3, 496184, Note_off_c, 1, 40, 0
3, 496192, Note_on_c, 1, 39, 75
3, 496248, Note_off_c, 1, 39, 0
3, 496256, Note_on_c, 1, 40, 75
3, 496312, Note_off_c, 1, 40, 0
3, 496320, Note_on_c, 1, 41, 75
3, 496376, Note_off_c, 1, 41, 0
3, 496384, Note_on_c, 1, 42, 76
3, 496440, Note_off_c, 1, 42, 0
3, 496448, Note_on_c, 1, 43, 76
3, 496504, Note_off_c, 1, 43, 0
3, 496512, Note_on_c, 1, 44, 76
3, 496568, Note_off_c, 1, 44, 0
3, 496576, Note_on_c, 1, 45, 76
3, 496632, Note_off_c, 1, 45, 0
3, 496640, Note_on_c, 1, 46, 77
3, 496696, Note_off_c, 1, 46, 0
3, 496704, Note_on_c, 1, 47, 77
3, 496760, Note_off_c, 1, 47, 0
3, 496768, Note_on_c, 1, 48, 77
3, 496824, Note_off_c, 1, 48, 0
3, 496832, Note_on_c, 1, 49, 77
3, 496888, Note_off_c, 1, 49, 0
3, 496896, Note_on_c, 1, 50, 78
3, 496952, Note_off_c, 1, 50, 0
3, 496960, Note_on_c, 1, 51, 78
3, 497016, Note_off_c, 1, 51, 0
3, 497024, Note_on_c, 1, 52, 78
3, 497080, Note_off_c, 1, 52, 0
3, 497088, Note_on_c, 1, 53, 79
3, 497144, Note_off_c, 1, 53, 0
3, 497152, Note_on_c, 1, 55, 79
3, 497208, Note_off_c, 1, 55, 0
3, 497216, Note_on_c, 1, 56, 79
3, 497272, Note_off_c, 1, 56, 0
3, 497280, Note_on_c, 1, 57, 79
3, 497336, Note_off_c, 1, 57, 0
3, 497344, Note_on_c, 1, 58, 80
3, 497400, Note_off_c, 1, 58, 0
3, 497408, Note_on_c, 1, 59, 80
3, 497464, Note_off_c, 1, 59, 0
3, 497472, Note_on_c, 1, 60, 80
3, 497528, Note_off_c, 1, 60, 0
3, 497536, Note_on_c, 1, 60, 80
3, 497592, Note_off_c, 1, 60, 0
3, 497600, Note_on_c, 1, 61, 81
3, 497656, Note_off_c, 1, 61, 0
3, 497664, Note_on_c, 1, 62, 81
3, 497756, Note_off_c, 1, 62, 0
3, 497760, Note_on_c, 1, 61, 81
3, 497852, Note_off_c, 1, 61, 0
3, 497856, Note_on_c, 1, 64, 82
3, 497948, Note_off_c, 1, 64, 0
3, 497952, Note_on_c, 1, 62, 82
3, 498044, Note_off_c, 1, 62, 0
3, 498048, Note_on_c, 1, 61, 83
3, 498140, Note_off_c, 1, 61, 0
3, 498144, Note_on_c, 1, 59, 83
3, 498236, Note_off_c, 1, 59, 0
3, 498240, Note_on_c, 1, 57, 83
3, 498332, Note_off_c, 1, 57, 0
3, 498336, Note_on_c, 1, 56, 84
3, 498428, Note_off_c, 1, 56, 0
3, 498432, Note_on_c, 1, 54, 84
3, 498524, Note_off_c, 1, 54, 0
3, 498528, Note_on_c, 1, 52, 85
3, 498620, Note_off_c, 1, 52, 0
3, 498624, Note_on_c, 1, 51, 85
3, 498716, Note_off_c, 1, 51, 0
3, 498720, Note_on_c, 1, 52, 85
3, 498812, Note_off_c, 1, 52, 0
3, 498816, Note_on_c, 1, 50, 86
3, 498908, Note_off_c, 1, 50, 0
3, 498912, Note_on_c, 1, 52, 86
3, 499004, Note_off_c, 1, 52, 0
3, 499008, Note_on_c, 1, 49, 87
3, 499100, Note_off_c, 1, 49, 0
3, 499104, Note_on_c, 1, 52, 87
3, 499196, Note_off_c, 1, 52, 0
3, 499200, Note_on_c, 1, 48, 88
3, 499292, Note_off_c, 1, 48, 0
3, 499296, Note_on_c, 1, 52, 88
3, 499388, Note_off_c, 1, 52, 0
3, 499392, Note_on_c, 1, 47, 88
3, 499484, Note_off_c, 1, 47, 0
3, 499488, Note_on_c, 1, 52, 89
3, 499580, Note_off_c, 1, 52, 0
3, 499584, Note_on_c, 1, 46, 89
3, 499676, Note_off_c, 1, 46, 0
3, 499680, Note_on_c, 1, 52, 90
3, 499772, Note_off_c, 1, 52, 0
3, 499776, Note_on_c, 1, 45, 90
3, 499868, Note_off_c, 1, 45, 0
3, 499872, Note_on_c, 1, 52, 90
3, 499964, Note_off_c, 1, 52, 0
3, 499968, Note_on_c, 1, 44, 91
3, 500060, Note_off_c, 1, 44, 0
3, 500064, Note_on_c, 1, 52, 91
3, 500156, Note_off_c, 1, 52, 0
3, 500160, Note_on_c, 1, 43, 92
3, 500252, Note_off_c, 1, 43, 0
3, 500256, Note_on_c, 1, 52, 92
3, 500348, Note_off_c, 1, 52, 0
3, 500352, Note_on_c, 1, 42, 92
3, 500444, Note_off_c, 1, 42, 0
3, 500448, Note_on_c, 1, 52, 93
3, 500540, Note_off_c, 1, 52, 0
3, 500544, Note_on_c, 1, 41, 93
3, 500636, Note_off_c, 1, 41, 0
3, 500640, Note_on_c, 1, 52, 94
3, 500732, Note_off_c, 1, 52, 0
3, 500736, Note_on_c, 1, 40, 94
3, 501116, Note_off_c, 1, 40, 0
3, 501116, End_track
4, 0, Start_track
4, 0, Title_t, "Midi by:"
4, 0, Control_c, 2, 0, 0
4, 0, Program_c, 2, 48
4, 0, Control_c, 2, 7, 127
4, 0, Control_c, 2, 10, 35
4, 0, Control_c, 2, 91, 89
4, 0, Control_c, 2, 93, 0
4, 0, Key_signature, 3, "major"
4, 0, Control_c, 2, 121, 0
4, 384, Control_c, 2, 10, 43
4, 480, Control_c, 2, 91, 63
4, 672, Program_c, 2, 48
4, 1536, Note_on_c, 2, 76, 65
4, 1536, Note_on_c, 2, 64, 65
4, 2300, Note_off_c, 2, 76, 0
4, 2300, Note_off_c, 2, 64, 0
4, 2304, Note_on_c, 2, 73, 65
4, 2304, Note_on_c, 2, 67, 65
4, 2948, Note_off_c, 2, 73, 0
4, 2948, Note_off_c, 2, 67, 0
4, 3072, Note_on_c, 2, 74, 65
4, 3072, Note_on_c, 2, 66, 65
4, 3452, Note_off_c, 2, 66, 0
4, 3456, Note_on_c, 2, 69, 65
4, 3644, Note_off_c, 2, 74, 0
4, 3648, Note_on_c, 2, 78, 65
4, 3808, Note_off_c, 2, 78, 0
4, 3836, Note_off_c, 2, 69, 0
4, 3840, Note_on_c, 2, 71, 65
4, 3840, Note_on_c, 2, 66, 65
4, 4028, Note_off_c, 2, 71, 0
4, 4032, Note_on_c, 2, 74, 65
4, 4192, Note_off_c, 2, 74, 0
4, 4220, Note_off_c, 2, 66, 0
4, 4224, Note_on_c, 2, 68, 65
4, 4224, Note_on_c, 2, 62, 65
4, 4412, Note_off_c, 2, 68, 0
4, 4416, Note_on_c, 2, 71, 65
4, 4544, Note_off_c, 2, 62, 0
4, 4576, Note_off_c, 2, 71, 0
4, 4608, Note_on_c, 2, 69, 65
4, 4608, Note_on_c, 2, 61, 65
4, 4988, Note_off_c, 2, 69, 0
4, 4988, Note_off_c, 2, 61, 0
4, 4992, Note_on_c, 2, 68, 65
4, 4992, Note_on_c, 2, 64, 65
4, 5372, Note_off_c, 2, 68, 0
4, 5372, Note_off_c, 2, 64, 0
4, 5376, Note_on_c, 2, 66, 65
4, 5376, Note_on_c, 2, 62, 65
4, 5756, Note_off_c, 2, 66, 0
4, 5756, Note_off_c, 2, 62, 0
4, 5760, Note_on_c, 2, 64, 65
4, 5760, Note_on_c, 2, 61, 65
4, 6080, Note_off_c, 2, 64, 0
4, 6080, Note_off_c, 2, 61, 0
4, 6144, Note_on_c, 2, 64, 65
4, 6144, Note_on_c, 2, 61, 65
4, 6716, Note_off_c, 2, 64, 0
4, 6716, Note_off_c, 2, 61, 0
4, 6720, Note_on_c, 2, 68, 65
4, 6720, Note_on_c, 2, 64, 65
4, 6812, Note_off_c, 2, 68, 0
4, 6812, Note_off_c, 2, 64, 0
4, 6816, Note_on_c, 2, 66, 65
4, 6816, Note_on_c, 2, 62, 65
4, 6908, Note_off_c, 2, 66, 0
4, 6908, Note_off_c, 2, 62, 0
4, 6912, Note_on_c, 2, 64, 65
4, 6912, Note_on_c, 2, 61, 65
4, 7232, Note_off_c, 2, 64, 0
4, 7232, Note_off_c, 2, 61, 0
4, 7680, Note_on_c, 2, 57, 65
4, 8064, Note_on_c, 2, 61, 65
4, 8444, Note_off_c, 2, 57, 0
4, 8448, Note_on_c, 2, 57, 65
4, 8608, Note_off_c, 2, 57, 0
4, 8640, Note_on_c, 2, 56, 65
4, 8800, Note_off_c, 2, 56, 0
4, 8828, Note_off_c, 2, 61, 0
4, 8832, Note_on_c, 2, 56, 65
4, 8832, Note_on_c, 2, 62, 65
4, 8912, Note_off_c, 2, 62, 0
4, 9024, Note_on_c, 2, 62, 65
4, 9104, Note_off_c, 2, 62, 0
4, 9212, Note_off_c, 2, 56, 0
4, 9216, Note_on_c, 2, 61, 65
4, 9216, Note_on_c, 2, 57, 65
4, 9980, Note_off_c, 2, 61, 0
4, 9980, Note_off_c, 2, 57, 0
4, 9984, Note_on_c, 2, 57, 65
4, 9984, Note_on_c, 2, 61, 65
4, 10144, Note_off_c, 2, 57, 0
4, 10144, Note_off_c, 2, 61, 0
4, 10176, Note_on_c, 2, 59, 65
4, 10176, Note_on_c, 2, 56, 65
4, 10364, Note_off_c, 2, 59, 0
4, 10364, Note_off_c, 2, 56, 0
4, 10368, Note_on_c, 2, 66, 65
4, 10368, Note_on_c, 2, 62, 65
4, 10448, Note_off_c, 2, 66, 0
4, 10448, Note_off_c, 2, 62, 0
4, 10560, Note_on_c, 2, 66, 70
4, 10560, Note_on_c, 2, 62, 70
4, 10640, Note_off_c, 2, 66, 0
4, 10640, Note_off_c, 2, 62, 0
4, 10752, Note_on_c, 2, 64, 66
4, 10752, Note_on_c, 2, 61, 66
4, 10832, Note_off_c, 2, 64, 0
4, 10832, Note_off_c, 2, 61, 0
4, 10944, Note_on_c, 2, 66, 69
4, 10944, Note_on_c, 2, 62, 69
4, 11024, Note_off_c, 2, 66, 0
4, 11024, Note_off_c, 2, 62, 0
4, 11136, Note_on_c, 2, 68, 72
4, 11136, Note_on_c, 2, 64, 72
4, 11216, Note_off_c, 2, 68, 0
4, 11216, Note_off_c, 2, 64, 0
4, 11328, Note_on_c, 2, 69, 75
4, 11328, Note_on_c, 2, 66, 75
4, 11408, Note_off_c, 2, 69, 0
4, 11408, Note_off_c, 2, 66, 0
4, 11520, Note_on_c, 2, 71, 79
4, 11520, Note_on_c, 2, 68, 79
4, 11600, Note_off_c, 2, 71, 0
4, 11600, Note_off_c, 2, 68, 0
4, 11712, Note_on_c, 2, 73, 82
4, 11712, Note_on_c, 2, 69, 82
4, 11792, Note_off_c, 2, 73, 0
4, 11792, Note_off_c, 2, 69, 0
4, 11904, Note_on_c, 2, 74, 85
4, 11904, Note_on_c, 2, 71, 85
4, 11984, Note_off_c, 2, 74, 0
4, 11984, Note_off_c, 2, 71, 0
4, 12096, Note_on_c, 2, 76, 88
4, 12096, Note_on_c, 2, 73, 88
4, 12176, Note_off_c, 2, 76, 0
4, 12176, Note_off_c, 2, 73, 0
4, 12288, Note_on_c, 2, 76, 89
4, 12288, Note_on_c, 2, 73, 89
4, 12476, Note_off_c, 2, 76, 0
4, 12476, Note_off_c, 2, 73, 0
4, 12480, Note_on_c, 2, 75, 86
4, 12480, Note_on_c, 2, 73, 86
4, 12668, Note_off_c, 2, 75, 0
4, 12668, Note_off_c, 2, 73, 0
4, 12672, Note_on_c, 2, 74, 83
4, 12672, Note_on_c, 2, 71, 83
4, 12860, Note_off_c, 2, 74, 0
4, 12860, Note_off_c, 2, 71, 0
4, 12864, Note_on_c, 2, 73, 80
4, 12864, Note_on_c, 2, 69, 80
4, 13052, Note_off_c, 2, 73, 0
4, 13052, Note_off_c, 2, 69, 0
4, 13056, Note_on_c, 2, 71, 76
4, 13056, Note_on_c, 2, 68, 76
4, 13376, Note_off_c, 2, 71, 0
4, 13376, Note_off_c, 2, 68, 0
4, 13824, Note_on_c, 2, 79, 65
4, 13824, Note_on_c, 2, 76, 65
4, 13824, Note_on_c, 2, 88, 71
4, 14588, Note_off_c, 2, 79, 0
4, 14588, Note_off_c, 2, 76, 0
4, 14588, Note_off_c, 2, 88, 0
4, 14592, Note_on_c, 2, 76, 65
4, 14592, Note_on_c, 2, 85, 69
4, 15236, Note_off_c, 2, 76, 0
4, 15236, Note_off_c, 2, 85, 0
4, 15360, Note_on_c, 2, 86, 70
4, 15360, Note_on_c, 2, 78, 65
4, 15932, Note_off_c, 2, 86, 0
4, 15936, Note_on_c, 2, 90, 72
4, 16004, Note_off_c, 2, 78, 0
4, 16096, Note_off_c, 2, 90, 0
4, 16128, Note_on_c, 2, 83, 68
4, 16128, Note_on_c, 2, 74, 65
4, 16316, Note_off_c, 2, 83, 0
4, 16320, Note_on_c, 2, 86, 70
4, 16448, Note_off_c, 2, 74, 0
4, 16480, Note_off_c, 2, 86, 0
4, 16512, Note_on_c, 2, 80, 65
4, 16512, Note_on_c, 2, 74, 65
4, 16700, Note_off_c, 2, 80, 0
4, 16704, Note_on_c, 2, 83, 68
4, 16832, Note_off_c, 2, 74, 0
4, 16864, Note_off_c, 2, 83, 0
4, 16896, Note_on_c, 2, 81, 65
4, 16896, Note_on_c, 2, 73, 65
4, 17276, Note_off_c, 2, 81, 0
4, 17276, Note_off_c, 2, 73, 0
4, 17280, Note_on_c, 2, 80, 65
4, 17280, Note_on_c, 2, 76, 65
4, 17660, Note_off_c, 2, 80, 0
4, 17660, Note_off_c, 2, 76, 0
4, 17664, Note_on_c, 2, 78, 65
4, 17664, Note_on_c, 2, 74, 65
4, 18044, Note_off_c, 2, 78, 0
4, 18044, Note_off_c, 2, 74, 0
4, 18048, Note_on_c, 2, 76, 65
4, 18048, Note_on_c, 2, 73, 65
4, 18368, Note_off_c, 2, 76, 0
4, 18368, Note_off_c, 2, 73, 0
4, 18432, Note_on_c, 2, 76, 65
4, 18432, Note_on_c, 2, 73, 65
4, 18432, Note_on_c, 2, 69, 65
4, 19004, Note_off_c, 2, 76, 0
4, 19004, Note_off_c, 2, 73, 0
4, 19008, Note_on_c, 2, 80, 70
4, 19008, Note_on_c, 2, 76, 70
4, 19092, Note_off_c, 2, 80, 0
4, 19092, Note_off_c, 2, 76, 0
4, 19104, Note_on_c, 2, 78, 70
4, 19104, Note_on_c, 2, 74, 70
4, 19188, Note_off_c, 2, 78, 0
4, 19188, Note_off_c, 2, 74, 0
4, 19200, Note_on_c, 2, 76, 65
4, 19200, Note_on_c, 2, 73, 65
4, 19396, Note_off_c, 2, 69, 0
4, 19520, Note_off_c, 2, 76, 0
4, 19520, Note_off_c, 2, 73, 0
4, 19968, Note_on_c, 2, 78, 90
4, 19968, Note_on_c, 2, 71, 90
4, 19968, Note_on_c, 2, 66, 90
4, 20288, Note_off_c, 2, 78, 0
4, 20288, Note_off_c, 2, 71, 0
4, 20288, Note_off_c, 2, 66, 0
4, 20352, Note_on_c, 2, 78, 65
4, 20352, Note_on_c, 2, 66, 65
4, 20352, Note_on_c, 2, 62, 65
4, 20512, Note_off_c, 2, 78, 0
4, 20732, Note_off_c, 2, 66, 0
4, 20732, Note_off_c, 2, 62, 0
4, 20736, Note_on_c, 2, 70, 60
4, 20736, Note_on_c, 2, 67, 60
4, 20736, Note_on_c, 2, 64, 60
4, 21116, Note_off_c, 2, 70, 0
4, 21116, Note_off_c, 2, 67, 0
4, 21116, Note_off_c, 2, 64, 0
4, 21120, Note_on_c, 2, 71, 55
4, 21120, Note_on_c, 2, 66, 55
4, 21120, Note_on_c, 2, 62, 55
4, 21440, Note_off_c, 2, 71, 0
4, 21440, Note_off_c, 2, 66, 0
4, 21440, Note_off_c, 2, 62, 0
4, 21504, Note_on_c, 2, 80, 90
4, 21504, Note_on_c, 2, 74, 90
4, 21504, Note_on_c, 2, 71, 90
4, 21824, Note_off_c, 2, 80, 0
4, 21824, Note_off_c, 2, 74, 0
4, 21824, Note_off_c, 2, 71, 0
4, 21888, Note_on_c, 2, 86, 70
4, 21888, Note_on_c, 2, 71, 65
4, 21888, Note_on_c, 2, 68, 65
4, 22048, Note_off_c, 2, 86, 0
4, 22268, Note_off_c, 2, 71, 0
4, 22268, Note_off_c, 2, 68, 0
4, 22272, Note_on_c, 2, 77, 60
4, 22272, Note_on_c, 2, 72, 60
4, 22272, Note_on_c, 2, 69, 60
4, 22652, Note_off_c, 2, 77, 0
4, 22652, Note_off_c, 2, 72, 0
4, 22652, Note_off_c, 2, 69, 0
4, 22656, Note_on_c, 2, 76, 55
4, 22656, Note_on_c, 2, 71, 55
4, 22656, Note_on_c, 2, 68, 55
4, 22976, Note_off_c, 2, 76, 0
4, 22976, Note_off_c, 2, 71, 0
4, 22976, Note_off_c, 2, 68, 0
4, 23040, Note_on_c, 2, 85, 69
4, 23040, Note_on_c, 2, 76, 65
4, 23040, Note_on_c, 2, 69, 65
4, 23360, Note_off_c, 2, 76, 0
4, 23360, Note_off_c, 2, 69, 0
4, 23424, Note_on_c, 2, 81, 65
4, 23424, Note_on_c, 2, 78, 65
4, 23424, Note_on_c, 2, 66, 65
4, 23612, Note_off_c, 2, 85, 0
4, 23616, Note_on_c, 2, 86, 70
4, 23776, Note_off_c, 2, 86, 0
4, 23804, Note_off_c, 2, 66, 0
4, 23808, Note_on_c, 2, 83, 65
4, 23808, Note_on_c, 2, 62, 65
4, 24068, Note_off_c, 2, 81, 0
4, 24068, Note_off_c, 2, 78, 0
4, 24188, Note_off_c, 2, 62, 0
4, 24192, Note_on_c, 2, 76, 65
4, 24192, Note_on_c, 2, 80, 65
4, 24192, Note_on_c, 2, 64, 65
4, 24380, Note_off_c, 2, 83, 0
4, 24384, Note_on_c, 2, 85, 69
4, 24512, Note_off_c, 2, 76, 0
4, 24512, Note_off_c, 2, 80, 0
4, 24512, Note_off_c, 2, 64, 0
4, 24544, Note_off_c, 2, 85, 0
4, 24576, Note_on_c, 2, 76, 65
4, 24576, Note_on_c, 2, 81, 67
4, 24576, Note_on_c, 2, 69, 65
4, 24576, Note_on_c, 2, 61, 65
4, 24736, Note_off_c, 2, 81, 0
4, 24768, Note_on_c, 2, 76, 70
4, 24896, Note_off_c, 2, 69, 0
4, 24896, Note_off_c, 2, 61, 0
4, 24956, Note_off_c, 2, 76, 0
4, 24960, Note_on_c, 2, 81, 70
4, 25148, Note_off_c, 2, 81, 0
4, 25152, Note_on_c, 2, 85, 67
4, 25220, Note_off_c, 2, 76, 0
4, 25340, Note_off_c, 2, 85, 0
4, 25344, Note_on_c, 2, 76, 65
4, 25344, Note_on_c, 2, 88, 71
4, 25504, Note_off_c, 2, 88, 0
4, 25536, Note_on_c, 2, 88, 71
4, 25664, Note_off_c, 2, 76, 0
4, 25696, Note_off_c, 2, 88, 0
4, 25728, Note_on_c, 2, 76, 65
4, 25728, Note_on_c, 2, 88, 71
4, 25728, Note_on_c, 2, 80, 65
4, 25888, Note_off_c, 2, 88, 0
4, 25920, Note_on_c, 2, 88, 71
4, 26048, Note_off_c, 2, 76, 0
4, 26048, Note_off_c, 2, 80, 0
4, 26080, Note_off_c, 2, 88, 0
4, 26112, Note_on_c, 2, 85, 69
4, 26112, Note_on_c, 2, 76, 65
4, 26432, Note_off_c, 2, 76, 0
4, 26496, Note_on_c, 2, 78, 65
4, 26496, Note_on_c, 2, 81, 65
4, 26684, Note_off_c, 2, 85, 0
4, 26688, Note_on_c, 2, 86, 70
4, 26848, Note_off_c, 2, 86, 0
4, 26880, Note_on_c, 2, 83, 65
4, 27140, Note_off_c, 2, 78, 0
4, 27140, Note_off_c, 2, 81, 0
4, 27264, Note_on_c, 2, 76, 65
4, 27264, Note_on_c, 2, 80, 65
4, 27452, Note_off_c, 2, 83, 0
4, 27456, Note_on_c, 2, 85, 69
4, 27584, Note_off_c, 2, 76, 0
4, 27584, Note_off_c, 2, 80, 0
4, 27616, Note_off_c, 2, 85, 0
4, 27648, Note_on_c, 2, 81, 90
4, 27648, Note_on_c, 2, 76, 90
4, 27648, Note_on_c, 2, 73, 90
4, 27968, Note_off_c, 2, 81, 0
4, 27968, Note_off_c, 2, 76, 0
4, 27968, Note_off_c, 2, 73, 0
4, 28032, Note_on_c, 2, 69, 100
4, 28272, Note_off_c, 2, 69, 0
4, 28320, Note_on_c, 2, 69, 100
4, 28400, Note_off_c, 2, 69, 0
4, 28416, Note_on_c, 2, 69, 100
4, 28576, Note_off_c, 2, 69, 0
4, 28608, Note_on_c, 2, 81, 90
4, 28608, Note_on_c, 2, 69, 90
4, 28768, Note_off_c, 2, 81, 0
4, 28768, Note_off_c, 2, 69, 0
4, 28800, Note_on_c, 2, 81, 90
4, 28800, Note_on_c, 2, 69, 90
4, 28960, Note_off_c, 2, 81, 0
4, 28960, Note_off_c, 2, 69, 0
4, 28992, Note_on_c, 2, 81, 90
4, 28992, Note_on_c, 2, 69, 90
4, 29152, Note_off_c, 2, 81, 0
4, 29152, Note_off_c, 2, 69, 0
4, 29184, Note_on_c, 2, 76, 90
4, 29184, Note_on_c, 2, 88, 96
4, 29372, Note_off_c, 2, 76, 0
4, 29372, Note_off_c, 2, 88, 0
4, 29376, Note_on_c, 2, 86, 95
4, 29376, Note_on_c, 2, 74, 90
4, 29536, Note_off_c, 2, 86, 0
4, 29536, Note_off_c, 2, 74, 0
4, 29568, Note_on_c, 2, 86, 95
4, 29568, Note_on_c, 2, 74, 90
4, 30112, Note_off_c, 2, 86, 0
4, 30112, Note_off_c, 2, 74, 0
4, 30144, Note_on_c, 2, 85, 94
4, 30144, Note_on_c, 2, 74, 90
4, 30332, Note_off_c, 2, 85, 0
4, 30332, Note_off_c, 2, 74, 0
4, 30336, Note_on_c, 2, 83, 90
4, 30336, Note_on_c, 2, 74, 90
4, 30524, Note_off_c, 2, 83, 0
4, 30524, Note_off_c, 2, 74, 0
4, 30528, Note_on_c, 2, 81, 90
4, 30528, Note_on_c, 2, 74, 90
4, 30688, Note_off_c, 2, 81, 0
4, 30688, Note_off_c, 2, 74, 0
4, 30720, Note_on_c, 2, 81, 90
4, 30720, Note_on_c, 2, 76, 90
4, 30908, Note_off_c, 2, 81, 0
4, 30908, Note_off_c, 2, 76, 0
4, 30912, Note_on_c, 2, 79, 90
4, 31100, Note_off_c, 2, 79, 0
4, 31104, Note_on_c, 2, 91, 98
4, 31104, Note_on_c, 2, 79, 90
4, 31648, Note_off_c, 2, 91, 0
4, 31648, Note_off_c, 2, 79, 0
4, 31680, Note_on_c, 2, 90, 97
4, 31680, Note_on_c, 2, 78, 90
4, 31868, Note_off_c, 2, 90, 0
4, 31868, Note_off_c, 2, 78, 0
4, 31872, Note_on_c, 2, 88, 96
4, 31872, Note_on_c, 2, 76, 90
4, 32060, Note_off_c, 2, 88, 0
4, 32060, Note_off_c, 2, 76, 0
4, 32064, Note_on_c, 2, 86, 96
4, 32064, Note_on_c, 2, 74, 90
4, 32224, Note_off_c, 2, 86, 0
4, 32224, Note_off_c, 2, 74, 0
4, 32256, Note_on_c, 2, 86, 96
4, 32256, Note_on_c, 2, 80, 90
4, 32256, Note_on_c, 2, 76, 90
4, 32444, Note_off_c, 2, 86, 0
4, 32448, Note_on_c, 2, 85, 94
4, 32576, Note_off_c, 2, 80, 0
4, 32576, Note_off_c, 2, 76, 0
4, 32608, Note_off_c, 2, 85, 0
4, 32640, Note_on_c, 2, 80, 90
4, 32640, Note_on_c, 2, 76, 90
4, 32640, Note_on_c, 2, 85, 94
4, 33184, Note_off_c, 2, 80, 0
4, 33184, Note_off_c, 2, 76, 0
4, 33184, Note_off_c, 2, 85, 0
4, 33216, Note_on_c, 2, 88, 96
4, 33404, Note_off_c, 2, 88, 0
4, 33408, Note_on_c, 2, 76, 90
4, 33408, Note_on_c, 2, 69, 90
4, 33596, Note_off_c, 2, 76, 0
4, 33600, Note_on_c, 2, 81, 90
4, 33728, Note_off_c, 2, 69, 0
4, 33760, Note_off_c, 2, 81, 0
4, 33792, Note_on_c, 2, 69, 90
4, 33792, Note_on_c, 2, 79, 90
4, 33792, Note_on_c, 2, 73, 90
4, 33980, Note_off_c, 2, 79, 0
4, 33980, Note_off_c, 2, 73, 0
4, 33984, Note_on_c, 2, 78, 90
4, 33984, Note_on_c, 2, 74, 90
4, 34112, Note_off_c, 2, 69, 0
4, 34144, Note_off_c, 2, 78, 0
4, 34144, Note_off_c, 2, 74, 0
4, 34176, Note_on_c, 2, 69, 90
4, 34176, Note_on_c, 2, 78, 90
4, 34176, Note_on_c, 2, 74, 90
4, 34720, Note_off_c, 2, 69, 0
4, 34720, Note_off_c, 2, 78, 0
4, 34720, Note_off_c, 2, 74, 0
4, 34752, Note_on_c, 2, 74, 90
4, 34752, Note_on_c, 2, 66, 90
4, 34912, Note_off_c, 2, 74, 0
4, 34912, Note_off_c, 2, 66, 0
4, 34944, Note_on_c, 2, 74, 90
4, 34944, Note_on_c, 2, 66, 90
4, 35104, Note_off_c, 2, 74, 0
4, 35104, Note_off_c, 2, 66, 0
4, 35136, Note_on_c, 2, 74, 90
4, 35136, Note_on_c, 2, 66, 90
4, 35296, Note_off_c, 2, 74, 0
4, 35296, Note_off_c, 2, 66, 0
4, 35328, Note_on_c, 2, 81, 90
4, 35328, Note_on_c, 2, 74, 90
4, 35328, Note_on_c, 2, 71, 90
4, 35516, Note_off_c, 2, 81, 0
4, 35520, Note_on_c, 2, 80, 90
4, 35680, Note_off_c, 2, 80, 0
4, 35712, Note_on_c, 2, 80, 90
4, 36284, Note_off_c, 2, 80, 0
4, 36288, Note_on_c, 2, 86, 96
4, 36292, Note_off_c, 2, 74, 0
4, 36292, Note_off_c, 2, 71, 0
4, 36448, Note_off_c, 2, 86, 0
4, 36480, Note_on_c, 2, 78, 95
4, 36480, Note_on_c, 2, 74, 90
4, 36480, Note_on_c, 2, 85, 90
4, 36572, Note_off_c, 2, 85, 0
4, 36576, Note_on_c, 2, 83, 90
4, 36656, Note_off_c, 2, 83, 0
4, 36672, Note_on_c, 2, 81, 90
4, 36764, Note_off_c, 2, 81, 0
4, 36768, Note_on_c, 2, 80, 90
4, 36800, Note_off_c, 2, 78, 0
4, 36800, Note_off_c, 2, 74, 0
4, 36848, Note_off_c, 2, 80, 0
4, 36864, Note_on_c, 2, 78, 90
4, 36864, Note_on_c, 2, 74, 90
4, 36864, Note_on_c, 2, 71, 90
4, 37052, Note_off_c, 2, 78, 0
4, 37056, Note_on_c, 2, 76, 90
4, 37184, Note_off_c, 2, 74, 0
4, 37184, Note_off_c, 2, 71, 0
4, 37216, Note_off_c, 2, 76, 0
4, 37248, Note_on_c, 2, 76, 90
4, 37248, Note_on_c, 2, 74, 90
4, 37248, Note_on_c, 2, 71, 90
4, 37820, Note_off_c, 2, 76, 0
4, 37824, Note_on_c, 2, 83, 90
4, 37892, Note_off_c, 2, 74, 0
4, 37892, Note_off_c, 2, 71, 0
4, 37984, Note_off_c, 2, 83, 0
4, 38016, Note_on_c, 2, 74, 90
4, 38016, Note_on_c, 2, 71, 90
4, 38016, Note_on_c, 2, 81, 90
4, 38108, Note_off_c, 2, 81, 0
4, 38112, Note_on_c, 2, 80, 90
4, 38192, Note_off_c, 2, 80, 0
4, 38208, Note_on_c, 2, 78, 90
4, 38300, Note_off_c, 2, 78, 0
4, 38304, Note_on_c, 2, 76, 90
4, 38336, Note_off_c, 2, 74, 0
4, 38336, Note_off_c, 2, 71, 0
4, 38384, Note_off_c, 2, 76, 0
4, 38400, Note_on_c, 2, 74, 90
4, 38400, Note_on_c, 2, 68, 90
4, 38400, Note_on_c, 2, 64, 90
4, 38588, Note_off_c, 2, 74, 0
4, 38588, Note_off_c, 2, 68, 0
4, 38592, Note_on_c, 2, 73, 90
4, 38592, Note_on_c, 2, 69, 90
4, 38720, Note_off_c, 2, 64, 0
4, 38752, Note_off_c, 2, 73, 0
4, 38752, Note_off_c, 2, 69, 0
4, 38784, Note_on_c, 2, 73, 90
4, 38784, Note_on_c, 2, 69, 90
4, 38784, Note_on_c, 2, 64, 90
4, 39328, Note_off_c, 2, 73, 0
4, 39328, Note_off_c, 2, 69, 0
4, 39360, Note_on_c, 2, 69, 90
4, 39452, Note_off_c, 2, 69, 0
4, 39456, Note_on_c, 2, 73, 90
4, 39548, Note_off_c, 2, 73, 0
4, 39552, Note_on_c, 2, 76, 90
4, 39712, Note_off_c, 2, 76, 0
4, 39744, Note_on_c, 2, 76, 90
4, 39748, Note_off_c, 2, 64, 0
4, 39824, Note_off_c, 2, 76, 0
4, 39936, Note_on_c, 2, 69, 90
4, 39936, Note_on_c, 2, 76, 90
4, 40124, Note_off_c, 2, 76, 0
4, 40128, Note_on_c, 2, 75, 90
4, 40256, Note_off_c, 2, 69, 0
4, 40288, Note_off_c, 2, 75, 0
4, 40320, Note_on_c, 2, 75, 90
4, 40320, Note_on_c, 2, 69, 100
4, 40560, Note_off_c, 2, 69, 0
4, 40608, Note_on_c, 2, 69, 100
4, 40688, Note_off_c, 2, 69, 0
4, 40700, Note_off_c, 2, 75, 0
4, 40704, Note_on_c, 2, 69, 100
4, 40704, Note_on_c, 2, 75, 90
4, 40796, Note_off_c, 2, 75, 0
4, 40800, Note_on_c, 2, 78, 90
4, 40864, Note_off_c, 2, 69, 0
4, 40880, Note_off_c, 2, 78, 0
4, 40896, Note_on_c, 2, 71, 90
4, 40896, Note_on_c, 2, 76, 90
4, 40988, Note_off_c, 2, 76, 0
4, 40992, Note_on_c, 2, 80, 90
4, 41056, Note_off_c, 2, 71, 0
4, 41072, Note_off_c, 2, 80, 0
4, 41088, Note_on_c, 2, 75, 90
4, 41088, Note_on_c, 2, 78, 90
4, 41180, Note_off_c, 2, 78, 0
4, 41184, Note_on_c, 2, 81, 90
4, 41248, Note_off_c, 2, 75, 0
4, 41264, Note_off_c, 2, 81, 0
4, 41280, Note_on_c, 2, 76, 90
4, 41280, Note_on_c, 2, 80, 90
4, 41372, Note_off_c, 2, 80, 0
4, 41376, Note_on_c, 2, 83, 90
4, 41440, Note_off_c, 2, 76, 0
4, 41456, Note_off_c, 2, 83, 0
4, 41472, Note_on_c, 2, 81, 90
4, 41472, Note_on_c, 2, 75, 90
4, 41472, Note_on_c, 2, 69, 90
4, 41792, Note_off_c, 2, 75, 0
4, 41792, Note_off_c, 2, 69, 0
4, 41856, Note_on_c, 2, 75, 90
4, 41856, Note_on_c, 2, 69, 90
4, 42016, Note_off_c, 2, 81, 0
4, 42048, Note_on_c, 2, 78, 90
4, 42140, Note_off_c, 2, 78, 0
4, 42144, Note_on_c, 2, 80, 90
4, 42236, Note_off_c, 2, 80, 0
4, 42240, Note_on_c, 2, 81, 90
4, 42400, Note_off_c, 2, 81, 0
4, 42432, Note_on_c, 2, 78, 90
4, 42500, Note_off_c, 2, 75, 0
4, 42500, Note_off_c, 2, 69, 0
4, 42524, Note_off_c, 2, 78, 0
4, 42528, Note_on_c, 2, 80, 90
4, 42620, Note_off_c, 2, 80, 0
4, 42624, Note_on_c, 2, 75, 90
4, 42624, Note_on_c, 2, 69, 90
4, 42624, Note_on_c, 2, 81, 90
4, 42784, Note_off_c, 2, 81, 0
4, 42816, Note_on_c, 2, 75, 90
4, 42944, Note_off_c, 2, 75, 0
4, 42944, Note_off_c, 2, 69, 0
4, 42976, Note_off_c, 2, 75, 0
4, 43008, Note_on_c, 2, 76, 90
4, 43008, Note_on_c, 2, 68, 90
4, 43168, Note_off_c, 2, 76, 0
4, 43168, Note_off_c, 2, 68, 0
4, 43200, Note_on_c, 2, 83, 90
4, 43292, Note_off_c, 2, 83, 0
4, 43296, Note_on_c, 2, 81, 90
4, 43376, Note_off_c, 2, 81, 0
4, 43392, Note_on_c, 2, 80, 90
4, 43472, Note_off_c, 2, 80, 0
4, 43488, Note_on_c, 2, 78, 90
4, 43568, Note_off_c, 2, 78, 0
4, 43584, Note_on_c, 2, 76, 90
4, 43664, Note_off_c, 2, 76, 0
4, 43680, Note_on_c, 2, 74, 90
4, 43760, Note_off_c, 2, 74, 0
4, 43776, Note_on_c, 2, 73, 90
4, 43936, Note_off_c, 2, 73, 0
4, 43968, Note_on_c, 2, 81, 90
4, 44060, Note_off_c, 2, 81, 0
4, 44064, Note_on_c, 2, 80, 90
4, 44144, Note_off_c, 2, 80, 0
4, 44160, Note_on_c, 2, 81, 90
4, 44240, Note_off_c, 2, 81, 0
4, 44256, Note_on_c, 2, 76, 90
4, 44336, Note_off_c, 2, 76, 0
4, 44352, Note_on_c, 2, 73, 90
4, 44432, Note_off_c, 2, 73, 0
4, 44448, Note_on_c, 2, 69, 90
4, 44528, Note_off_c, 2, 69, 0
4, 44544, Note_on_c, 2, 68, 90
4, 44704, Note_off_c, 2, 68, 0
4, 44736, Note_on_c, 2, 83, 90
4, 44828, Note_off_c, 2, 83, 0
4, 44832, Note_on_c, 2, 81, 90
4, 44912, Note_off_c, 2, 81, 0
4, 44928, Note_on_c, 2, 80, 90
4, 45008, Note_off_c, 2, 80, 0
4, 45024, Note_on_c, 2, 78, 90
4, 45104, Note_off_c, 2, 78, 0
4, 45120, Note_on_c, 2, 76, 90
4, 45200, Note_off_c, 2, 76, 0
4, 45216, Note_on_c, 2, 74, 90
4, 45296, Note_off_c, 2, 74, 0
4, 45312, Note_on_c, 2, 73, 90
4, 45472, Note_off_c, 2, 73, 0
4, 45504, Note_on_c, 2, 81, 90
4, 45596, Note_off_c, 2, 81, 0
4, 45600, Note_on_c, 2, 80, 90
4, 45680, Note_off_c, 2, 80, 0
4, 45696, Note_on_c, 2, 81, 90
4, 45776, Note_off_c, 2, 81, 0
4, 45792, Note_on_c, 2, 76, 90
4, 45872, Note_off_c, 2, 76, 0
4, 45888, Note_on_c, 2, 73, 90
4, 45968, Note_off_c, 2, 73, 0
4, 45984, Note_on_c, 2, 69, 90
4, 46064, Note_off_c, 2, 69, 0
4, 46080, Note_on_c, 2, 76, 90
4, 46080, Note_on_c, 2, 71, 90
4, 46080, Note_on_c, 2, 68, 90
4, 46240, Note_off_c, 2, 76, 0
4, 46240, Note_off_c, 2, 71, 0
4, 46240, Note_off_c, 2, 68, 0
4, 46464, Note_on_c, 2, 64, 90
4, 46624, Note_off_c, 2, 64, 0
4, 47232, Note_on_c, 2, 73, 65
4, 47420, Note_off_c, 2, 73, 0
4, 47424, Note_on_c, 2, 74, 65
4, 47584, Note_off_c, 2, 74, 0
4, 47616, Note_on_c, 2, 78, 65
4, 47616, Note_on_c, 2, 73, 65
4, 47616, Note_on_c, 2, 69, 65
4, 47804, Note_off_c, 2, 78, 0
4, 47808, Note_on_c, 2, 76, 65
4, 47968, Note_off_c, 2, 76, 0
4, 48000, Note_on_c, 2, 76, 65
4, 48240, Note_off_c, 2, 76, 0
4, 48288, Note_on_c, 2, 76, 70
4, 48368, Note_off_c, 2, 76, 0
4, 48380, Note_off_c, 2, 73, 0
4, 48380, Note_off_c, 2, 69, 0
4, 48384, Note_on_c, 2, 76, 65
4, 48384, Note_on_c, 2, 68, 65
4, 48384, Note_on_c, 2, 71, 65
4, 48544, Note_off_c, 2, 76, 0
4, 48768, Note_on_c, 2, 76, 65
4, 48928, Note_off_c, 2, 76, 0
4, 49028, Note_off_c, 2, 68, 0
4, 49028, Note_off_c, 2, 71, 0
4, 49152, Note_on_c, 2, 76, 65
4, 49152, Note_on_c, 2, 66, 65
4, 49152, Note_on_c, 2, 69, 65
4, 49340, Note_off_c, 2, 76, 0
4, 49344, Note_on_c, 2, 81, 65
4, 49532, Note_off_c, 2, 81, 0
4, 49536, Note_on_c, 2, 80, 65
4, 49724, Note_off_c, 2, 80, 0
4, 49728, Note_on_c, 2, 78, 65
4, 49916, Note_off_c, 2, 78, 0
4, 49920, Note_on_c, 2, 76, 65
4, 50108, Note_off_c, 2, 76, 0
4, 50112, Note_on_c, 2, 75, 65
4, 50300, Note_off_c, 2, 66, 0
4, 50300, Note_off_c, 2, 75, 0
4, 50304, Note_on_c, 2, 74, 65
4, 50304, Note_on_c, 2, 64, 65
4, 50492, Note_off_c, 2, 74, 0
4, 50496, Note_on_c, 2, 73, 65
4, 50624, Note_off_c, 2, 64, 0
4, 50656, Note_off_c, 2, 73, 0
4, 50688, Note_on_c, 2, 66, 65
4, 50688, Note_on_c, 2, 63, 65
4, 50688, Note_on_c, 2, 73, 65
4, 50876, Note_off_c, 2, 73, 0
4, 50880, Note_on_c, 2, 71, 65
4, 51040, Note_off_c, 2, 71, 0
4, 51072, Note_on_c, 2, 71, 65
4, 51312, Note_off_c, 2, 71, 0
4, 51360, Note_on_c, 2, 71, 70
4, 51440, Note_off_c, 2, 71, 0
4, 51456, Note_on_c, 2, 71, 65
4, 51616, Note_off_c, 2, 71, 0
4, 51840, Note_on_c, 2, 71, 65
4, 51940, Note_off_c, 2, 66, 0
4, 51940, Note_off_c, 2, 69, 0
4, 52000, Note_off_c, 2, 71, 0
4, 52220, Note_off_c, 2, 63, 0
4, 52224, Note_on_c, 2, 71, 65
4, 52224, Note_on_c, 2, 68, 65
4, 52224, Note_on_c, 2, 64, 65
4, 52224, Note_on_c, 2, 62, 65
4, 52412, Note_off_c, 2, 71, 0
4, 52416, Note_on_c, 2, 76, 65
4, 52604, Note_off_c, 2, 76, 0
4, 52608, Note_on_c, 2, 75, 65
4, 52796, Note_off_c, 2, 75, 0
4, 52800, Note_on_c, 2, 74, 65
4, 52988, Note_off_c, 2, 74, 0
4, 52992, Note_on_c, 2, 73, 65
4, 53180, Note_off_c, 2, 73, 0
4, 53184, Note_on_c, 2, 71, 65
4, 53372, Note_off_c, 2, 71, 0
4, 53376, Note_on_c, 2, 69, 65
4, 53476, Note_off_c, 2, 68, 0
4, 53476, Note_off_c, 2, 64, 0
4, 53476, Note_off_c, 2, 62, 0
4, 53564, Note_off_c, 2, 69, 0
4, 53568, Note_on_c, 2, 68, 65
4, 53728, Note_off_c, 2, 68, 0
4, 53760, Note_on_c, 2, 66, 65
4, 53948, Note_off_c, 2, 66, 0
4, 53952, Note_on_c, 2, 64, 65
4, 54112, Note_off_c, 2, 64, 0
4, 54144, Note_on_c, 2, 64, 65
4, 54384, Note_off_c, 2, 64, 0
4, 54432, Note_on_c, 2, 64, 70
4, 54512, Note_off_c, 2, 64, 0
4, 54528, Note_on_c, 2, 57, 65
4, 54528, Note_on_c, 2, 64, 65
4, 54716, Note_off_c, 2, 64, 0
4, 54720, Note_on_c, 2, 73, 65
4, 54848, Note_off_c, 2, 57, 0
4, 54908, Note_off_c, 2, 73, 0
4, 54912, Note_on_c, 2, 69, 65
4, 55100, Note_off_c, 2, 69, 0
4, 55104, Note_on_c, 2, 66, 65
4, 55264, Note_off_c, 2, 66, 0
4, 55296, Note_on_c, 2, 64, 65
4, 55296, Note_on_c, 2, 57, 65
4, 55484, Note_off_c, 2, 64, 0
4, 55488, Note_on_c, 2, 62, 65
4, 55648, Note_off_c, 2, 62, 0
4, 55680, Note_on_c, 2, 62, 65
4, 55920, Note_off_c, 2, 62, 0
4, 55968, Note_on_c, 2, 62, 70
4, 56048, Note_off_c, 2, 62, 0
4, 56060, Note_off_c, 2, 57, 64
4, 56064, Note_on_c, 2, 62, 65
4, 56064, Note_on_c, 2, 56, 65
4, 56252, Note_off_c, 2, 62, 0
4, 56256, Note_on_c, 2, 71, 65
4, 56384, Note_off_c, 2, 56, 64
4, 56444, Note_off_c, 2, 71, 0
4, 56448, Note_on_c, 2, 68, 65
4, 56636, Note_off_c, 2, 68, 0
4, 56640, Note_on_c, 2, 64, 65
4, 56800, Note_off_c, 2, 64, 0
4, 56832, Note_on_c, 2, 62, 65
4, 56832, Note_on_c, 2, 57, 65
4, 57020, Note_off_c, 2, 62, 0
4, 57024, Note_on_c, 2, 61, 65
4, 57184, Note_off_c, 2, 61, 0
4, 57216, Note_on_c, 2, 69, 65
4, 57296, Note_off_c, 2, 69, 0
4, 57408, Note_on_c, 2, 73, 65
4, 57476, Note_off_c, 2, 57, 0
4, 57488, Note_off_c, 2, 73, 0
4, 57600, Note_on_c, 2, 76, 65
4, 57760, Note_off_c, 2, 76, 0
4, 57984, Note_on_c, 2, 78, 65
4, 57984, Note_on_c, 2, 69, 65
4, 58144, Note_off_c, 2, 78, 0
4, 58144, Note_off_c, 2, 69, 0
4, 58368, Note_on_c, 2, 69, 65
4, 58368, Note_on_c, 2, 61, 65
4, 58368, Note_on_c, 2, 64, 65
4, 59132, Note_off_c, 2, 69, 0
4, 59132, Note_off_c, 2, 61, 0
4, 59136, Note_on_c, 2, 68, 65
4, 59136, Note_on_c, 2, 59, 65
4, 59332, Note_off_c, 2, 64, 0
4, 59456, Note_off_c, 2, 68, 0
4, 59456, Note_off_c, 2, 59, 0
4, 59520, Note_on_c, 2, 73, 65
4, 59708, Note_off_c, 2, 73, 0
4, 59712, Note_on_c, 2, 74, 65
4, 59900, Note_off_c, 2, 74, 0
4, 59904, Note_on_c, 2, 78, 65
4, 59904, Note_on_c, 2, 73, 65
4, 60092, Note_off_c, 2, 78, 0
4, 60096, Note_on_c, 2, 76, 65
4, 60256, Note_off_c, 2, 76, 0
4, 60288, Note_on_c, 2, 76, 65
4, 60548, Note_off_c, 2, 73, 0
4, 60572, Note_off_c, 2, 76, 0
4, 60576, Note_on_c, 2, 76, 70
4, 60660, Note_off_c, 2, 76, 0
4, 60672, Note_on_c, 2, 71, 65
4, 60672, Note_on_c, 2, 76, 65
4, 60992, Note_off_c, 2, 76, 0
4, 61056, Note_on_c, 2, 76, 65
4, 61316, Note_off_c, 2, 71, 0
4, 61376, Note_off_c, 2, 76, 0
4, 61440, Note_on_c, 2, 69, 65
4, 61440, Note_on_c, 2, 76, 65
4, 61628, Note_off_c, 2, 76, 0
4, 61632, Note_on_c, 2, 81, 65
4, 61760, Note_off_c, 2, 69, 0
4, 61820, Note_off_c, 2, 81, 0
4, 61824, Note_on_c, 2, 69, 65
4, 61824, Note_on_c, 2, 80, 65
4, 62012, Note_off_c, 2, 80, 0
4, 62016, Note_on_c, 2, 78, 65
4, 62144, Note_off_c, 2, 69, 0
4, 62204, Note_off_c, 2, 78, 0
4, 62208, Note_on_c, 2, 69, 65
4, 62208, Note_on_c, 2, 76, 65
4, 62396, Note_off_c, 2, 76, 0
4, 62400, Note_on_c, 2, 75, 65
4, 62588, Note_off_c, 2, 75, 0
4, 62592, Note_on_c, 2, 74, 65
4, 62780, Note_off_c, 2, 74, 0
4, 62784, Note_on_c, 2, 73, 65
4, 62852, Note_off_c, 2, 69, 0
4, 62944, Note_off_c, 2, 73, 0
4, 62976, Note_on_c, 2, 69, 65
4, 62976, Note_on_c, 2, 73, 65
4, 63164, Note_off_c, 2, 73, 0
4, 63168, Note_on_c, 2, 71, 65
4, 63328, Note_off_c, 2, 71, 0
4, 63360, Note_on_c, 2, 71, 65
4, 63600, Note_off_c, 2, 71, 0
4, 63648, Note_on_c, 2, 71, 70
4, 63728, Note_off_c, 2, 71, 0
4, 63744, Note_on_c, 2, 71, 65
4, 64064, Note_off_c, 2, 71, 0
4, 64128, Note_on_c, 2, 71, 65
4, 64228, Note_off_c, 2, 69, 0
4, 64448, Note_off_c, 2, 71, 0
4, 64512, Note_on_c, 2, 71, 65
4, 64512, Note_on_c, 2, 64, 65
4, 64700, Note_off_c, 2, 71, 0
4, 64700, Note_off_c, 2, 64, 0
4, 64704, Note_on_c, 2, 76, 65
4, 64704, Note_on_c, 2, 64, 65
4, 64892, Note_off_c, 2, 76, 0
4, 64892, Note_off_c, 2, 64, 0
4, 64896, Note_on_c, 2, 75, 65
4, 64896, Note_on_c, 2, 63, 65
4, 65084, Note_off_c, 2, 75, 0
4, 65084, Note_off_c, 2, 63, 0
4, 65088, Note_on_c, 2, 74, 65
4, 65088, Note_on_c, 2, 62, 65
4, 65276, Note_off_c, 2, 74, 0
4, 65276, Note_off_c, 2, 62, 0
4, 65280, Note_on_c, 2, 73, 65
4, 65280, Note_on_c, 2, 61, 65
4, 65468, Note_off_c, 2, 73, 0
4, 65468, Note_off_c, 2, 61, 0
4, 65472, Note_on_c, 2, 71, 65
4, 65660, Note_off_c, 2, 71, 0
4, 65664, Note_on_c, 2, 69, 65
4, 65852, Note_off_c, 2, 69, 0
4, 65856, Note_on_c, 2, 68, 65
4, 66044, Note_off_c, 2, 68, 0
4, 66048, Note_on_c, 2, 66, 65
4, 66048, Note_on_c, 2, 57, 65
4, 66048, Note_on_c, 2, 61, 65
4, 66236, Note_off_c, 2, 66, 0
4, 66240, Note_on_c, 2, 64, 65
4, 66400, Note_off_c, 2, 64, 0
4, 66432, Note_on_c, 2, 64, 65
4, 66672, Note_off_c, 2, 64, 0
4, 66720, Note_on_c, 2, 64, 70
4, 66800, Note_off_c, 2, 64, 0
4, 66816, Note_on_c, 2, 64, 65
4, 67196, Note_off_c, 2, 64, 0
4, 67200, Note_on_c, 2, 65, 65
4, 67300, Note_off_c, 2, 57, 0
4, 67300, Note_off_c, 2, 61, 0
4, 67520, Note_off_c, 2, 65, 0
4, 67584, Note_on_c, 2, 66, 65
4, 67584, Note_on_c, 2, 62, 65
4, 67584, Note_on_c, 2, 57, 65
4, 67772, Note_off_c, 2, 66, 0
4, 67776, Note_on_c, 2, 68, 65
4, 67904, Note_off_c, 2, 62, 0
4, 67904, Note_off_c, 2, 57, 0
4, 67964, Note_off_c, 2, 68, 0
4, 67968, Note_on_c, 2, 69, 65
4, 68156, Note_off_c, 2, 69, 0
4, 68160, Note_on_c, 2, 70, 65
4, 68348, Note_off_c, 2, 70, 0
4, 68352, Note_on_c, 2, 71, 65
4, 68540, Note_off_c, 2, 71, 0
4, 68544, Note_on_c, 2, 73, 65
4, 68544, Note_on_c, 2, 61, 65
4, 68732, Note_off_c, 2, 73, 0
4, 68732, Note_off_c, 2, 61, 0
4, 68736, Note_on_c, 2, 74, 65
4, 68736, Note_on_c, 2, 62, 65
4, 68924, Note_off_c, 2, 74, 0
4, 68924, Note_off_c, 2, 62, 0
4, 68928, Note_on_c, 2, 75, 65
4, 68928, Note_on_c, 2, 63, 65
4, 69088, Note_off_c, 2, 75, 0
4, 69088, Note_off_c, 2, 63, 0
4, 69120, Note_on_c, 2, 76, 65
4, 69120, Note_on_c, 2, 64, 65
4, 69308, Note_off_c, 2, 76, 0
4, 69312, Note_on_c, 2, 73, 65
4, 69440, Note_off_c, 2, 64, 0
4, 69472, Note_off_c, 2, 73, 0
4, 69504, Note_on_c, 2, 64, 65
4, 69504, Note_on_c, 2, 69, 65
4, 69664, Note_off_c, 2, 64, 0
4, 69696, Note_on_c, 2, 64, 65
4, 69856, Note_off_c, 2, 64, 0
4, 69888, Note_on_c, 2, 64, 65
4, 70076, Note_off_c, 2, 69, 0
4, 70080, Note_on_c, 2, 73, 65
4, 70208, Note_off_c, 2, 64, 0
4, 70268, Note_off_c, 2, 73, 0
4, 70272, Note_on_c, 2, 62, 65
4, 70272, Note_on_c, 2, 71, 65
4, 70460, Note_off_c, 2, 71, 0
4, 70464, Note_on_c, 2, 68, 65
4, 70592, Note_off_c, 2, 62, 0
4, 70652, Note_off_c, 2, 68, 0
4, 70656, Note_on_c, 2, 69, 65
4, 70656, Note_on_c, 2, 61, 65
4, 70976, Note_off_c, 2, 61, 0
4, 71040, Note_on_c, 2, 67, 65
4, 71040, Note_on_c, 2, 64, 65
4, 71120, Note_off_c, 2, 67, 0
4, 71120, Note_off_c, 2, 64, 0
4, 71136, Note_on_c, 2, 57, 65
4, 71216, Note_off_c, 2, 57, 0
4, 71232, Note_on_c, 2, 67, 65
4, 71232, Note_on_c, 2, 64, 65
4, 71312, Note_off_c, 2, 67, 0
4, 71312, Note_off_c, 2, 64, 0
4, 71328, Note_on_c, 2, 57, 65
4, 71408, Note_off_c, 2, 57, 0
4, 71424, Note_on_c, 2, 62, 65
4, 71424, Note_on_c, 2, 65, 65
4, 71504, Note_off_c, 2, 62, 0
4, 71504, Note_off_c, 2, 65, 0
4, 71520, Note_on_c, 2, 57, 65
4, 71600, Note_off_c, 2, 57, 0
4, 71616, Note_on_c, 2, 65, 65
4, 71616, Note_on_c, 2, 62, 65
4, 71620, Note_off_c, 2, 69, 0
4, 71696, Note_off_c, 2, 65, 0
4, 71696, Note_off_c, 2, 62, 0
4, 71712, Note_on_c, 2, 57, 65
4, 71792, Note_off_c, 2, 57, 0
4, 71808, Note_on_c, 2, 69, 65
4, 71808, Note_on_c, 2, 64, 65
4, 71808, Note_on_c, 2, 61, 65
4, 71888, Note_off_c, 2, 64, 0
4, 71888, Note_off_c, 2, 61, 0
4, 71904, Note_on_c, 2, 57, 65
4, 71984, Note_off_c, 2, 57, 0
4, 72000, Note_on_c, 2, 64, 65
4, 72000, Note_on_c, 2, 61, 65
4, 72048, Note_off_c, 2, 69, 0
4, 72080, Note_off_c, 2, 64, 0
4, 72080, Note_off_c, 2, 61, 0
4, 72096, Note_on_c, 2, 69, 65
4, 72096, Note_on_c, 2, 57, 65
4, 72176, Note_off_c, 2, 69, 0
4, 72176, Note_off_c, 2, 57, 0
4, 72192, Note_on_c, 2, 74, 65
4, 72192, Note_on_c, 2, 69, 65
4, 72192, Note_on_c, 2, 66, 65
4, 72192, Note_on_c, 2, 69, 65
4, 72272, Note_off_c, 2, 69, 0
4, 72272, Note_off_c, 2, 66, 0
4, 72288, Note_on_c, 2, 57, 65
4, 72368, Note_off_c, 2, 57, 0
4, 72384, Note_on_c, 2, 66, 65
4, 72384, Note_on_c, 2, 69, 65
4, 72464, Note_off_c, 2, 66, 0
4, 72464, Note_off_c, 2, 69, 0
4, 72480, Note_on_c, 2, 57, 65
4, 72560, Note_off_c, 2, 57, 0
4, 72572, Note_off_c, 2, 74, 0
4, 72576, Note_on_c, 2, 73, 65
4, 72576, Note_on_c, 2, 64, 65
4, 72576, Note_on_c, 2, 67, 65
4, 72656, Note_off_c, 2, 64, 0
4, 72656, Note_off_c, 2, 67, 0
4, 72672, Note_on_c, 2, 57, 65
4, 72752, Note_off_c, 2, 57, 0
4, 72768, Note_on_c, 2, 64, 65
4, 72768, Note_on_c, 2, 67, 65
4, 72836, Note_off_c, 2, 69, 0
4, 72848, Note_off_c, 2, 64, 0
4, 72848, Note_off_c, 2, 67, 0
4, 72864, Note_on_c, 2, 57, 65
4, 72896, Note_off_c, 2, 73, 0
4, 72944, Note_off_c, 2, 57, 0
4, 72960, Note_on_c, 2, 86, 70
4, 72960, Note_on_c, 2, 74, 65
4, 72960, Note_on_c, 2, 81, 65
4, 72960, Note_on_c, 2, 66, 65
4, 72960, Note_on_c, 2, 62, 65
4, 72960, Note_on_c, 2, 69, 65
4, 73040, Note_off_c, 2, 66, 0
4, 73040, Note_off_c, 2, 62, 0
4, 73056, Note_on_c, 2, 57, 65
4, 73136, Note_off_c, 2, 57, 0
4, 73152, Note_on_c, 2, 66, 65
4, 73152, Note_on_c, 2, 62, 65
4, 73232, Note_off_c, 2, 66, 0
4, 73232, Note_off_c, 2, 62, 0
4, 73248, Note_on_c, 2, 57, 65
4, 73328, Note_off_c, 2, 57, 0
4, 73340, Note_off_c, 2, 86, 0
4, 73340, Note_off_c, 2, 74, 0
4, 73340, Note_off_c, 2, 81, 0
4, 73344, Note_on_c, 2, 73, 65
4, 73344, Note_on_c, 2, 81, 65
4, 73344, Note_on_c, 2, 85, 69
4, 73344, Note_on_c, 2, 64, 65
4, 73344, Note_on_c, 2, 61, 65
4, 73424, Note_off_c, 2, 64, 0
4, 73424, Note_off_c, 2, 61, 0
4, 73440, Note_on_c, 2, 57, 65
4, 73520, Note_off_c, 2, 57, 0
4, 73536, Note_on_c, 2, 64, 65
4, 73536, Note_on_c, 2, 61, 65
4, 73584, Note_off_c, 2, 73, 0
4, 73584, Note_off_c, 2, 81, 0
4, 73584, Note_off_c, 2, 85, 0
4, 73604, Note_off_c, 2, 69, 0
4, 73616, Note_off_c, 2, 64, 0
4, 73616, Note_off_c, 2, 61, 0
4, 73632, Note_on_c, 2, 69, 65
4, 73632, Note_on_c, 2, 57, 65
4, 73712, Note_off_c, 2, 69, 0
4, 73712, Note_off_c, 2, 57, 0
4, 73728, Note_on_c, 2, 74, 68
4, 73728, Note_on_c, 2, 69, 65
4, 73728, Note_on_c, 2, 65, 65
4, 73728, Note_on_c, 2, 69, 65
4, 73808, Note_off_c, 2, 69, 0
4, 73808, Note_off_c, 2, 65, 0
4, 73824, Note_on_c, 2, 57, 68
4, 73904, Note_off_c, 2, 57, 0
4, 73916, Note_off_c, 2, 74, 0
4, 73920, Note_on_c, 2, 76, 68
4, 73920, Note_on_c, 2, 69, 65
4, 73920, Note_on_c, 2, 65, 65
4, 74000, Note_off_c, 2, 76, 0
4, 74000, Note_off_c, 2, 65, 0
4, 74016, Note_on_c, 2, 78, 68
4, 74016, Note_on_c, 2, 57, 65
4, 74096, Note_off_c, 2, 78, 0
4, 74096, Note_off_c, 2, 57, 0
4, 74112, Note_on_c, 2, 76, 68
4, 74112, Note_on_c, 2, 67, 65
4, 74112, Note_on_c, 2, 64, 65
4, 74192, Note_off_c, 2, 67, 0
4, 74192, Note_off_c, 2, 64, 0
4, 74208, Note_on_c, 2, 57, 65
4, 74288, Note_off_c, 2, 57, 0
4, 74304, Note_on_c, 2, 67, 65
4, 74304, Note_on_c, 2, 64, 65
4, 74372, Note_off_c, 2, 69, 0
4, 74384, Note_off_c, 2, 67, 0
4, 74384, Note_off_c, 2, 64, 0
4, 74400, Note_on_c, 2, 57, 65
4, 74432, Note_off_c, 2, 76, 0
4, 74480, Note_off_c, 2, 57, 0
4, 74492, Note_off_c, 2, 69, 0
4, 74496, Note_on_c, 2, 78, 65
4, 74496, Note_on_c, 2, 89, 72
4, 74496, Note_on_c, 2, 86, 70
4, 74496, Note_on_c, 2, 62, 65
4, 74496, Note_on_c, 2, 69, 65
4, 74496, Note_on_c, 2, 65, 65
4, 74576, Note_off_c, 2, 62, 0
4, 74576, Note_off_c, 2, 65, 0
4, 74592, Note_on_c, 2, 57, 65
4, 74672, Note_off_c, 2, 57, 0
4, 74688, Note_on_c, 2, 65, 65
4, 74688, Note_on_c, 2, 62, 65
4, 74768, Note_off_c, 2, 65, 0
4, 74768, Note_off_c, 2, 62, 0
4, 74784, Note_on_c, 2, 57, 65
4, 74864, Note_off_c, 2, 57, 0
4, 74876, Note_off_c, 2, 78, 0
4, 74876, Note_off_c, 2, 89, 0
4, 74876, Note_off_c, 2, 86, 0
4, 74880, Note_on_c, 2, 88, 65
4, 74880, Note_on_c, 2, 85, 65
4, 74880, Note_on_c, 2, 76, 65
4, 74880, Note_on_c, 2, 64, 65
4, 74880, Note_on_c, 2, 61, 65
4, 74960, Note_off_c, 2, 64, 0
4, 74960, Note_off_c, 2, 61, 0
4, 74976, Note_on_c, 2, 57, 65
4, 75056, Note_off_c, 2, 57, 0
4, 75072, Note_on_c, 2, 64, 65
4, 75072, Note_on_c, 2, 61, 65
4, 75140, Note_off_c, 2, 69, 0
4, 75152, Note_off_c, 2, 64, 0
4, 75152, Note_off_c, 2, 61, 0
4, 75168, Note_on_c, 2, 57, 65
4, 75200, Note_off_c, 2, 88, 0
4, 75200, Note_off_c, 2, 85, 0
4, 75200, Note_off_c, 2, 76, 0
4, 75248, Note_off_c, 2, 57, 0
4, 75264, Note_on_c, 2, 78, 90
4, 75264, Note_on_c, 2, 74, 90
4, 75264, Note_on_c, 2, 69, 90
4, 75452, Note_off_c, 2, 78, 0
4, 75452, Note_off_c, 2, 74, 0
4, 75452, Note_off_c, 2, 69, 0
4, 75648, Note_on_c, 2, 78, 90
4, 75648, Note_on_c, 2, 74, 90
4, 75648, Note_on_c, 2, 69, 90
4, 76192, Note_off_c, 2, 78, 0
4, 76192, Note_off_c, 2, 74, 0
4, 76192, Note_off_c, 2, 69, 0
4, 76224, Note_on_c, 2, 81, 90
4, 76316, Note_off_c, 2, 81, 0
4, 76320, Note_on_c, 2, 80, 90
4, 76400, Note_off_c, 2, 80, 0
4, 76416, Note_on_c, 2, 83, 90
4, 76508, Note_off_c, 2, 83, 0
4, 76512, Note_on_c, 2, 81, 90
4, 76604, Note_off_c, 2, 81, 0
4, 76608, Note_on_c, 2, 80, 90
4, 76700, Note_off_c, 2, 80, 0
4, 76704, Note_on_c, 2, 78, 90
4, 76784, Note_off_c, 2, 78, 0
4, 76800, Note_on_c, 2, 71, 90
4, 76800, Note_on_c, 2, 76, 90
4, 76880, Note_off_c, 2, 76, 0
4, 76992, Note_on_c, 2, 86, 95
4, 77180, Note_off_c, 2, 71, 0
4, 77180, Note_off_c, 2, 86, 0
4, 77184, Note_on_c, 2, 74, 90
4, 77184, Note_on_c, 2, 83, 93
4, 77344, Note_off_c, 2, 83, 0
4, 77376, Note_on_c, 2, 80, 90
4, 77456, Note_off_c, 2, 80, 0
4, 77504, Note_off_c, 2, 74, 0
4, 77568, Note_on_c, 2, 74, 90
4, 77568, Note_on_c, 2, 74, 90
4, 77756, Note_off_c, 2, 74, 64
4, 77760, Note_on_c, 2, 83, 93
4, 77888, Note_off_c, 2, 74, 0
4, 77920, Note_off_c, 2, 83, 0
4, 77952, Note_on_c, 2, 73, 90
4, 77952, Note_on_c, 2, 73, 90
4, 78140, Note_off_c, 2, 73, 64
4, 78144, Note_on_c, 2, 81, 90
4, 78272, Note_off_c, 2, 73, 0
4, 78304, Note_off_c, 2, 81, 0
4, 78336, Note_on_c, 2, 71, 90
4, 78880, Note_off_c, 2, 71, 0
4, 78912, Note_on_c, 2, 74, 90
4, 79004, Note_off_c, 2, 74, 0
4, 79008, Note_on_c, 2, 78, 90
4, 79088, Note_off_c, 2, 78, 0
4, 79104, Note_on_c, 2, 69, 90
4, 79484, Note_off_c, 2, 69, 0
4, 79488, Note_on_c, 2, 68, 90
4, 79808, Note_off_c, 2, 68, 0
4, 79872, Note_on_c, 2, 81, 65
4, 79964, Note_off_c, 2, 81, 0
4, 79968, Note_on_c, 2, 80, 65
4, 80060, Note_off_c, 2, 80, 0
4, 80064, Note_on_c, 2, 81, 65
4, 80156, Note_off_c, 2, 81, 0
4, 80160, Note_on_c, 2, 83, 65
4, 80240, Note_off_c, 2, 83, 0
4, 80256, Note_on_c, 2, 85, 69
4, 80336, Note_off_c, 2, 85, 0
4, 80448, Note_on_c, 2, 85, 69
4, 80528, Note_off_c, 2, 85, 0
4, 80640, Note_on_c, 2, 85, 69
4, 80640, Note_on_c, 2, 73, 65
4, 81020, Note_off_c, 2, 85, 0
4, 81020, Note_off_c, 2, 73, 0
4, 81024, Note_on_c, 2, 73, 65
4, 81116, Note_off_c, 2, 73, 0
4, 81120, Note_on_c, 2, 74, 65
4, 81212, Note_off_c, 2, 74, 0
4, 81216, Note_on_c, 2, 73, 65
4, 81308, Note_off_c, 2, 73, 0
4, 81312, Note_on_c, 2, 71, 65
4, 81392, Note_off_c, 2, 71, 0
4, 81408, Note_on_c, 2, 81, 65
4, 81408, Note_on_c, 2, 69, 65
4, 81500, Note_off_c, 2, 81, 0
4, 81500, Note_off_c, 2, 69, 0
4, 81504, Note_on_c, 2, 80, 65
4, 81596, Note_off_c, 2, 80, 0
4, 81600, Note_on_c, 2, 81, 65
4, 81692, Note_off_c, 2, 81, 0
4, 81696, Note_on_c, 2, 83, 65
4, 81788, Note_off_c, 2, 83, 0
4, 81792, Note_on_c, 2, 85, 69
4, 81872, Note_off_c, 2, 85, 0
4, 81984, Note_on_c, 2, 85, 69
4, 82064, Note_off_c, 2, 85, 0
4, 82176, Note_on_c, 2, 85, 69
4, 82176, Note_on_c, 2, 73, 65
4, 82556, Note_off_c, 2, 85, 0
4, 82556, Note_off_c, 2, 73, 0
4, 82560, Note_on_c, 2, 73, 65
4, 82652, Note_off_c, 2, 73, 0
4, 82656, Note_on_c, 2, 74, 65
4, 82748, Note_off_c, 2, 74, 0
4, 82752, Note_on_c, 2, 73, 65
4, 82844, Note_off_c, 2, 73, 0
4, 82848, Note_on_c, 2, 71, 65
4, 82928, Note_off_c, 2, 71, 0
4, 82944, Note_on_c, 2, 81, 65
4, 82944, Note_on_c, 2, 69, 65
4, 83036, Note_off_c, 2, 81, 0
4, 83036, Note_off_c, 2, 69, 0
4, 83040, Note_on_c, 2, 80, 65
4, 83132, Note_off_c, 2, 80, 0
4, 83136, Note_on_c, 2, 81, 65
4, 83228, Note_off_c, 2, 81, 0
4, 83232, Note_on_c, 2, 83, 65
4, 83324, Note_off_c, 2, 83, 0
4, 83328, Note_on_c, 2, 85, 69
4, 83408, Note_off_c, 2, 85, 0
4, 83520, Note_on_c, 2, 85, 69
4, 83600, Note_off_c, 2, 85, 0
4, 83712, Note_on_c, 2, 73, 65
4, 83712, Note_on_c, 2, 85, 69
4, 84092, Note_off_c, 2, 73, 0
4, 84092, Note_off_c, 2, 85, 0
4, 84096, Note_on_c, 2, 73, 65
4, 84188, Note_off_c, 2, 73, 0
4, 84192, Note_on_c, 2, 74, 65
4, 84284, Note_off_c, 2, 74, 0
4, 84288, Note_on_c, 2, 73, 65
4, 84380, Note_off_c, 2, 73, 0
4, 84384, Note_on_c, 2, 71, 65
4, 84464, Note_off_c, 2, 71, 0
4, 84480, Note_on_c, 2, 69, 66
4, 84640, Note_off_c, 2, 69, 0
4, 84672, Note_on_c, 2, 71, 69
4, 84672, Note_on_c, 2, 83, 69
4, 84860, Note_off_c, 2, 71, 0
4, 84860, Note_off_c, 2, 83, 0
4, 84864, Note_on_c, 2, 84, 72
4, 84864, Note_on_c, 2, 72, 72
4, 85052, Note_off_c, 2, 84, 0
4, 85052, Note_off_c, 2, 72, 0
4, 85056, Note_on_c, 2, 85, 75
4, 85056, Note_on_c, 2, 73, 75
4, 85244, Note_off_c, 2, 85, 0
4, 85244, Note_off_c, 2, 73, 0
4, 85248, Note_on_c, 2, 86, 79
4, 85248, Note_on_c, 2, 74, 79
4, 85436, Note_off_c, 2, 86, 0
4, 85436, Note_off_c, 2, 74, 0
4, 85440, Note_on_c, 2, 87, 82
4, 85440, Note_on_c, 2, 75, 82
4, 85628, Note_off_c, 2, 87, 0
4, 85628, Note_off_c, 2, 75, 0
4, 85632, Note_on_c, 2, 88, 85
4, 85632, Note_on_c, 2, 76, 85
4, 85820, Note_off_c, 2, 88, 0
4, 85820, Note_off_c, 2, 76, 0
4, 85824, Note_on_c, 2, 89, 88
4, 85824, Note_on_c, 2, 77, 88
4, 86012, Note_off_c, 2, 89, 0
4, 86012, Note_off_c, 2, 77, 0
4, 86016, Note_on_c, 2, 90, 90
4, 86016, Note_on_c, 2, 78, 90
4, 86176, Note_off_c, 2, 90, 0
4, 86176, Note_off_c, 2, 78, 0
4, 86400, Note_on_c, 2, 78, 90
4, 86400, Note_on_c, 2, 69, 90
4, 86400, Note_on_c, 2, 74, 90
4, 86944, Note_off_c, 2, 78, 0
4, 86944, Note_off_c, 2, 69, 0
4, 86944, Note_off_c, 2, 74, 0
4, 86976, Note_on_c, 2, 81, 90
4, 87068, Note_off_c, 2, 81, 0
4, 87072, Note_on_c, 2, 80, 90
4, 87152, Note_off_c, 2, 80, 0
4, 87168, Note_on_c, 2, 83, 90
4, 87260, Note_off_c, 2, 83, 0
4, 87264, Note_on_c, 2, 81, 90
4, 87356, Note_off_c, 2, 81, 0
4, 87360, Note_on_c, 2, 80, 90
4, 87452, Note_off_c, 2, 80, 0
4, 87456, Note_on_c, 2, 78, 90
4, 87536, Note_off_c, 2, 78, 0
4, 87552, Note_on_c, 2, 76, 90
4, 87552, Note_on_c, 2, 76, 90
4, 87632, Note_off_c, 2, 76, 64
4, 87744, Note_on_c, 2, 86, 95
4, 87872, Note_off_c, 2, 76, 0
4, 87932, Note_off_c, 2, 86, 0
4, 87936, Note_on_c, 2, 74, 90
4, 87936, Note_on_c, 2, 83, 90
4, 88096, Note_off_c, 2, 83, 0
4, 88128, Note_on_c, 2, 80, 90
4, 88208, Note_off_c, 2, 80, 0
4, 88320, Note_on_c, 2, 74, 90
4, 88508, Note_off_c, 2, 74, 0
4, 88512, Note_on_c, 2, 83, 93
4, 88580, Note_off_c, 2, 74, 0
4, 88672, Note_off_c, 2, 83, 0
4, 88704, Note_on_c, 2, 73, 90
4, 88704, Note_on_c, 2, 73, 90
4, 88892, Note_off_c, 2, 73, 64
4, 88896, Note_on_c, 2, 81, 90
4, 89024, Note_off_c, 2, 73, 0
4, 89056, Note_off_c, 2, 81, 64
4, 89088, Note_on_c, 2, 71, 90
4, 89632, Note_off_c, 2, 71, 0
4, 89664, Note_on_c, 2, 74, 95
4, 89756, Note_off_c, 2, 74, 0
4, 89760, Note_on_c, 2, 78, 95
4, 89840, Note_off_c, 2, 78, 0
4, 89856, Note_on_c, 2, 69, 90
4, 90236, Note_off_c, 2, 69, 0
4, 90240, Note_on_c, 2, 68, 90
4, 90560, Note_off_c, 2, 68, 0
4, 90624, Note_on_c, 2, 76, 90
4, 90624, Note_on_c, 2, 76, 90
4, 90784, Note_off_c, 2, 76, 0
4, 90816, Note_on_c, 2, 86, 95
4, 90944, Note_off_c, 2, 76, 0
4, 91004, Note_off_c, 2, 86, 0
4, 91008, Note_on_c, 2, 74, 90
4, 91008, Note_on_c, 2, 83, 90
4, 91168, Note_off_c, 2, 83, 0
4, 91200, Note_on_c, 2, 80, 90
4, 91280, Note_off_c, 2, 80, 0
4, 91392, Note_on_c, 2, 74, 90
4, 91580, Note_off_c, 2, 74, 0
4, 91584, Note_on_c, 2, 83, 90
4, 91652, Note_off_c, 2, 74, 0
4, 91744, Note_off_c, 2, 83, 0
4, 91776, Note_on_c, 2, 73, 90
4, 91776, Note_on_c, 2, 73, 90
4, 91964, Note_off_c, 2, 73, 0
4, 91968, Note_on_c, 2, 81, 90
4, 92096, Note_off_c, 2, 73, 0
4, 92128, Note_off_c, 2, 81, 0
4, 92160, Note_on_c, 2, 76, 90
4, 92160, Note_on_c, 2, 76, 90
4, 92320, Note_off_c, 2, 76, 0
4, 92352, Note_on_c, 2, 86, 95
4, 92480, Note_off_c, 2, 76, 0
4, 92540, Note_off_c, 2, 86, 0
4, 92544, Note_on_c, 2, 74, 90
4, 92544, Note_on_c, 2, 83, 90
4, 92704, Note_off_c, 2, 83, 0
4, 92736, Note_on_c, 2, 80, 90
4, 92816, Note_off_c, 2, 80, 0
4, 92928, Note_on_c, 2, 74, 90
4, 93116, Note_off_c, 2, 74, 0
4, 93120, Note_on_c, 2, 83, 93
4, 93188, Note_off_c, 2, 74, 0
4, 93280, Note_off_c, 2, 83, 0
4, 93312, Note_on_c, 2, 73, 90
4, 93312, Note_on_c, 2, 73, 90
4, 93500, Note_off_c, 2, 73, 0
4, 93504, Note_on_c, 2, 81, 90
4, 93632, Note_off_c, 2, 73, 0
4, 93664, Note_off_c, 2, 81, 0
4, 93696, Note_on_c, 2, 71, 90
4, 94240, Note_off_c, 2, 71, 0
4, 94272, Note_on_c, 2, 74, 95
4, 94364, Note_off_c, 2, 74, 0
4, 94368, Note_on_c, 2, 78, 95
4, 94448, Note_off_c, 2, 78, 0
4, 94464, Note_on_c, 2, 69, 90
4, 94844, Note_off_c, 2, 69, 0
4, 94848, Note_on_c, 2, 68, 90
4, 95168, Note_off_c, 2, 68, 0
4, 95232, Note_on_c, 2, 69, 90
4, 95232, Note_on_c, 2, 61, 90
4, 95552, Note_off_c, 2, 69, 0
4, 95552, Note_off_c, 2, 61, 0
4, 96000, Note_on_c, 2, 75, 65
4, 96000, Note_on_c, 2, 87, 70
4, 96188, Note_off_c, 2, 75, 0
4, 96188, Note_off_c, 2, 87, 0
4, 96192, Note_on_c, 2, 76, 65
4, 96192, Note_on_c, 2, 88, 71
4, 96380, Note_off_c, 2, 76, 0
4, 96380, Note_off_c, 2, 88, 0
4, 96384, Note_on_c, 2, 78, 65
4, 96384, Note_on_c, 2, 90, 71
4, 96572, Note_off_c, 2, 78, 0
4, 96572, Note_off_c, 2, 90, 0
4, 96576, Note_on_c, 2, 76, 65
4, 96576, Note_on_c, 2, 88, 71
4, 96736, Note_off_c, 2, 76, 0
4, 96736, Note_off_c, 2, 88, 0
4, 96768, Note_on_c, 2, 81, 65
4, 96768, Note_on_c, 2, 69, 65
4, 97088, Note_off_c, 2, 81, 0
4, 97088, Note_off_c, 2, 69, 0
4, 97440, Note_on_c, 2, 69, 70
4, 97440, Note_on_c, 2, 81, 70
4, 97504, Note_off_c, 2, 69, 0
4, 97504, Note_off_c, 2, 81, 0
4, 97536, Note_on_c, 2, 83, 68
4, 97536, Note_on_c, 2, 71, 65
4, 97856, Note_off_c, 2, 83, 0
4, 97856, Note_off_c, 2, 71, 0
4, 98208, Note_on_c, 2, 83, 68
4, 98208, Note_on_c, 2, 71, 65
4, 98272, Note_off_c, 2, 83, 0
4, 98272, Note_off_c, 2, 71, 64
4, 98304, Note_on_c, 2, 86, 70
4, 98304, Note_on_c, 2, 74, 65
4, 98304, Note_on_c, 2, 64, 65
4, 98304, Note_on_c, 2, 57, 65
4, 98304, Note_on_c, 2, 68, 65
4, 98684, Note_off_c, 2, 86, 0
4, 98684, Note_off_c, 2, 74, 0
4, 98684, Note_off_c, 2, 68, 0
4, 98688, Note_on_c, 2, 85, 68
4, 98688, Note_on_c, 2, 73, 65
4, 98688, Note_on_c, 2, 69, 65
4, 98848, Note_off_c, 2, 85, 0
4, 98848, Note_off_c, 2, 73, 0
4, 98848, Note_off_c, 2, 69, 0
4, 98948, Note_off_c, 2, 64, 0
4, 98948, Note_off_c, 2, 57, 0
4, 99072, Note_on_c, 2, 87, 70
4, 99072, Note_on_c, 2, 75, 65
4, 99072, Note_on_c, 2, 63, 65
4, 99260, Note_off_c, 2, 87, 0
4, 99260, Note_off_c, 2, 75, 0
4, 99260, Note_off_c, 2, 63, 0
4, 99264, Note_on_c, 2, 88, 71
4, 99264, Note_on_c, 2, 76, 65
4, 99264, Note_on_c, 2, 64, 65
4, 99452, Note_off_c, 2, 88, 0
4, 99452, Note_off_c, 2, 76, 0
4, 99452, Note_off_c, 2, 64, 0
4, 99456, Note_on_c, 2, 90, 72
4, 99456, Note_on_c, 2, 78, 65
4, 99456, Note_on_c, 2, 66, 65
4, 99644, Note_off_c, 2, 90, 0
4, 99644, Note_off_c, 2, 78, 0
4, 99644, Note_off_c, 2, 66, 0
4, 99648, Note_on_c, 2, 88, 71
4, 99648, Note_on_c, 2, 76, 65
4, 99648, Note_on_c, 2, 64, 65
4, 99808, Note_off_c, 2, 88, 0
4, 99808, Note_off_c, 2, 76, 0
4, 99808, Note_off_c, 2, 64, 0
4, 99840, Note_on_c, 2, 81, 65
4, 99840, Note_on_c, 2, 69, 65
4, 100160, Note_off_c, 2, 81, 0
4, 100160, Note_off_c, 2, 69, 0
4, 100512, Note_on_c, 2, 81, 70
4, 100512, Note_on_c, 2, 69, 70
4, 100592, Note_off_c, 2, 81, 0
4, 100592, Note_off_c, 2, 69, 0
4, 100608, Note_on_c, 2, 73, 65
4, 100608, Note_on_c, 2, 85, 69
4, 100892, Note_off_c, 2, 73, 0
4, 100892, Note_off_c, 2, 85, 0
4, 100896, Note_on_c, 2, 86, 70
4, 100896, Note_on_c, 2, 74, 65
4, 100976, Note_off_c, 2, 86, 0
4, 100976, Note_off_c, 2, 74, 0
4, 100992, Note_on_c, 2, 83, 68
4, 100992, Note_on_c, 2, 71, 65
4, 101276, Note_off_c, 2, 83, 0
4, 101276, Note_off_c, 2, 71, 0
4, 101280, Note_on_c, 2, 85, 74
4, 101280, Note_on_c, 2, 73, 70
4, 101360, Note_off_c, 2, 85, 0
4, 101360, Note_off_c, 2, 73, 0
4, 101376, Note_on_c, 2, 81, 65
4, 101376, Note_on_c, 2, 69, 65
4, 101696, Note_off_c, 2, 81, 0
4, 101696, Note_off_c, 2, 69, 0
4, 101760, Note_on_c, 2, 81, 90
4, 101760, Note_on_c, 2, 69, 90
4, 101760, Note_on_c, 2, 76, 90
4, 101760, Note_on_c, 2, 73, 90
4, 102080, Note_off_c, 2, 81, 0
4, 102080, Note_off_c, 2, 69, 0
4, 102080, Note_off_c, 2, 76, 0
4, 102080, Note_off_c, 2, 73, 0
4, 102144, Note_on_c, 2, 69, 90
4, 102144, Note_on_c, 2, 57, 90
4, 102464, Note_off_c, 2, 69, 0
4, 102464, Note_off_c, 2, 57, 0
4, 114432, Note_on_c, 2, 71, 65
4, 114432, Note_on_c, 2, 68, 65
4, 114620, Note_off_c, 2, 71, 0
4, 114620, Note_off_c, 2, 68, 0
4, 114624, Note_on_c, 2, 73, 65
4, 114624, Note_on_c, 2, 69, 65
4, 114812, Note_off_c, 2, 73, 0
4, 114812, Note_off_c, 2, 69, 0
4, 114816, Note_on_c, 2, 74, 65
4, 114816, Note_on_c, 2, 71, 65
4, 115004, Note_off_c, 2, 74, 0
4, 115004, Note_off_c, 2, 71, 0
4, 115008, Note_on_c, 2, 75, 65
4, 115008, Note_on_c, 2, 72, 65
4, 115168, Note_off_c, 2, 75, 0
4, 115168, Note_off_c, 2, 72, 0
4, 115200, Note_on_c, 2, 76, 65
4, 115200, Note_on_c, 2, 73, 65
4, 115964, Note_off_c, 2, 76, 0
4, 115964, Note_off_c, 2, 73, 0
4, 115968, Note_on_c, 2, 81, 65
4, 115968, Note_on_c, 2, 69, 65
4, 116732, Note_off_c, 2, 81, 0
4, 116732, Note_off_c, 2, 69, 0
4, 116736, Note_on_c, 2, 81, 65
4, 116736, Note_on_c, 2, 69, 65
4, 116896, Note_off_c, 2, 81, 0
4, 116896, Note_off_c, 2, 69, 64
4, 117120, Note_on_c, 2, 78, 65
4, 117120, Note_on_c, 2, 74, 65
4, 117280, Note_off_c, 2, 78, 0
4, 117280, Note_off_c, 2, 74, 0
4, 117504, Note_on_c, 2, 74, 65
4, 117504, Note_on_c, 2, 71, 65
4, 117664, Note_off_c, 2, 74, 0
4, 117664, Note_off_c, 2, 71, 0
4, 117888, Note_on_c, 2, 71, 65
4, 117888, Note_on_c, 2, 68, 65
4, 118048, Note_off_c, 2, 71, 0
4, 118048, Note_off_c, 2, 68, 0
4, 118272, Note_on_c, 2, 69, 65
4, 118592, Note_off_c, 2, 69, 0
4, 121344, Note_on_c, 2, 76, 65
4, 121344, Note_on_c, 2, 69, 65
4, 121344, Note_on_c, 2, 64, 65
4, 122692, Note_off_c, 2, 76, 0
4, 122692, Note_off_c, 2, 69, 0
4, 122880, Note_on_c, 2, 74, 65
4, 122880, Note_on_c, 2, 68, 65
4, 124228, Note_off_c, 2, 64, 0
4, 124412, Note_off_c, 2, 74, 0
4, 124412, Note_off_c, 2, 68, 0
4, 124416, Note_on_c, 2, 73, 65
4, 124416, Note_on_c, 2, 69, 65
4, 124416, Note_on_c, 2, 64, 65
4, 124576, Note_off_c, 2, 73, 0
4, 124576, Note_off_c, 2, 69, 0
4, 124576, Note_off_c, 2, 64, 0
4, 124800, Note_on_c, 2, 74, 65
4, 124800, Note_on_c, 2, 71, 65
4, 124800, Note_on_c, 2, 66, 65
4, 124960, Note_off_c, 2, 74, 0
4, 124960, Note_off_c, 2, 71, 0
4, 124960, Note_off_c, 2, 66, 0
4, 125184, Note_on_c, 2, 73, 65
4, 125184, Note_on_c, 2, 69, 65
4, 125184, Note_on_c, 2, 64, 65
4, 125344, Note_off_c, 2, 73, 0
4, 125344, Note_off_c, 2, 69, 0
4, 125344, Note_off_c, 2, 64, 0
4, 125568, Note_on_c, 2, 71, 65
4, 125568, Note_on_c, 2, 68, 65
4, 125568, Note_on_c, 2, 62, 65
4, 125728, Note_off_c, 2, 71, 0
4, 125728, Note_off_c, 2, 68, 0
4, 125728, Note_off_c, 2, 62, 0
4, 125952, Note_on_c, 2, 81, 90
4, 125952, Note_on_c, 2, 69, 90
4, 126272, Note_off_c, 2, 81, 0
4, 126272, Note_off_c, 2, 69, 0
4, 126336, Note_on_c, 2, 69, 90
4, 126576, Note_off_c, 2, 69, 0
4, 126624, Note_on_c, 2, 69, 90
4, 126704, Note_off_c, 2, 69, 0
4, 126720, Note_on_c, 2, 69, 90
4, 126880, Note_off_c, 2, 69, 0
4, 126912, Note_on_c, 2, 69, 90
4, 127072, Note_off_c, 2, 69, 0
4, 127104, Note_on_c, 2, 69, 90
4, 127264, Note_off_c, 2, 69, 0
4, 127296, Note_on_c, 2, 69, 90
4, 127456, Note_off_c, 2, 69, 0
4, 127488, Note_on_c, 2, 76, 90
4, 127488, Note_on_c, 2, 69, 90
4, 127676, Note_off_c, 2, 76, 0
4, 127680, Note_on_c, 2, 74, 90
4, 127840, Note_off_c, 2, 74, 0
4, 127872, Note_on_c, 2, 74, 90
4, 128356, Note_off_c, 2, 74, 0
4, 128448, Note_on_c, 2, 74, 90
4, 128608, Note_off_c, 2, 74, 0
4, 128640, Note_on_c, 2, 74, 90
4, 128800, Note_off_c, 2, 74, 0
4, 128832, Note_on_c, 2, 74, 90
4, 128992, Note_off_c, 2, 74, 0
4, 129024, Note_on_c, 2, 81, 90
4, 129212, Note_off_c, 2, 81, 0
4, 129216, Note_on_c, 2, 79, 90
4, 129344, Note_off_c, 2, 69, 0
4, 129376, Note_off_c, 2, 79, 0
4, 129408, Note_on_c, 2, 91, 98
4, 129408, Note_on_c, 2, 85, 90
4, 129408, Note_on_c, 2, 79, 90
4, 129892, Note_off_c, 2, 91, 0
4, 129892, Note_off_c, 2, 85, 0
4, 129892, Note_off_c, 2, 79, 0
4, 129984, Note_on_c, 2, 79, 90
4, 129984, Note_on_c, 2, 90, 97
4, 130144, Note_off_c, 2, 79, 0
4, 130144, Note_off_c, 2, 90, 0
4, 130176, Note_on_c, 2, 79, 90
4, 130176, Note_on_c, 2, 88, 96
4, 130336, Note_off_c, 2, 79, 0
4, 130336, Note_off_c, 2, 88, 0
4, 130368, Note_on_c, 2, 79, 90
4, 130368, Note_on_c, 2, 86, 90
4, 130528, Note_off_c, 2, 79, 0
4, 130528, Note_off_c, 2, 86, 0
4, 130560, Note_on_c, 2, 79, 90
4, 130560, Note_on_c, 2, 86, 95
4, 130560, Note_on_c, 2, 76, 90
4, 130748, Note_off_c, 2, 86, 0
4, 130752, Note_on_c, 2, 85, 96
4, 130880, Note_off_c, 2, 79, 0
4, 130880, Note_off_c, 2, 76, 0
4, 130912, Note_off_c, 2, 85, 0
4, 130944, Note_on_c, 2, 85, 90
4, 130944, Note_on_c, 2, 79, 90
4, 130944, Note_on_c, 2, 76, 90
4, 131428, Note_off_c, 2, 85, 0
4, 131520, Note_on_c, 2, 88, 96
4, 131588, Note_off_c, 2, 79, 0
4, 131588, Note_off_c, 2, 76, 0
4, 131680, Note_off_c, 2, 88, 0
4, 131712, Note_on_c, 2, 76, 90
4, 131712, Note_on_c, 2, 69, 90
4, 131900, Note_off_c, 2, 76, 0
4, 131904, Note_on_c, 2, 81, 90
4, 132032, Note_off_c, 2, 69, 0
4, 132064, Note_off_c, 2, 81, 0
4, 132096, Note_on_c, 2, 73, 90
4, 132096, Note_on_c, 2, 69, 90
4, 132096, Note_on_c, 2, 79, 90
4, 132284, Note_off_c, 2, 73, 0
4, 132284, Note_off_c, 2, 79, 0
4, 132288, Note_on_c, 2, 78, 90
4, 132288, Note_on_c, 2, 74, 90
4, 132448, Note_off_c, 2, 78, 0
4, 132448, Note_off_c, 2, 74, 0
4, 132480, Note_on_c, 2, 78, 90
4, 132480, Note_on_c, 2, 74, 90
4, 132740, Note_off_c, 2, 69, 0
4, 132800, Note_off_c, 2, 78, 0
4, 132800, Note_off_c, 2, 74, 0
4, 133632, Note_on_c, 2, 74, 65
4, 133632, Note_on_c, 2, 68, 65
4, 133632, Note_on_c, 2, 62, 65
4, 134780, Note_off_c, 2, 68, 0
4, 134780, Note_off_c, 2, 62, 0
4, 134784, Note_on_c, 2, 69, 65
4, 134784, Note_on_c, 2, 66, 65
4, 134980, Note_off_c, 2, 74, 0
4, 135104, Note_off_c, 2, 69, 0
4, 135104, Note_off_c, 2, 66, 0
4, 135168, Note_on_c, 2, 74, 65
4, 135168, Note_on_c, 2, 71, 65
4, 135168, Note_on_c, 2, 64, 65
4, 136516, Note_off_c, 2, 74, 0
4, 136516, Note_off_c, 2, 71, 0
4, 136704, Note_on_c, 2, 73, 65
4, 136704, Note_on_c, 2, 69, 65
4, 137348, Note_off_c, 2, 64, 0
4, 137472, Note_on_c, 2, 66, 65
4, 138052, Note_off_c, 2, 73, 0
4, 138052, Note_off_c, 2, 69, 0
4, 138116, Note_off_c, 2, 66, 0
4, 138240, Note_on_c, 2, 69, 65
4, 138240, Note_on_c, 2, 66, 65
4, 138240, Note_on_c, 2, 71, 65
4, 139772, Note_off_c, 2, 69, 0
4, 139772, Note_off_c, 2, 66, 0
4, 139776, Note_on_c, 2, 68, 65
4, 139776, Note_on_c, 2, 64, 65
4, 140096, Note_off_c, 2, 68, 0
4, 140096, Note_off_c, 2, 64, 0
4, 140096, Note_off_c, 2, 71, 0
4, 140160, Note_on_c, 2, 75, 75
4, 140204, Note_off_c, 2, 75, 0
4, 140208, Note_on_c, 2, 76, 75
4, 140252, Note_off_c, 2, 76, 0
4, 140256, Note_on_c, 2, 75, 75
4, 140300, Note_off_c, 2, 75, 0
4, 140304, Note_on_c, 2, 76, 75
4, 140348, Note_off_c, 2, 76, 0
4, 140352, Note_on_c, 2, 75, 75
4, 140396, Note_off_c, 2, 75, 0
4, 140400, Note_on_c, 2, 76, 75
4, 140444, Note_off_c, 2, 76, 0
4, 140448, Note_on_c, 2, 73, 75
4, 140492, Note_off_c, 2, 73, 0
4, 140496, Note_on_c, 2, 75, 75
4, 140540, Note_off_c, 2, 75, 0
4, 140544, Note_on_c, 2, 76, 67
4, 140864, Note_off_c, 2, 76, 0
4, 143616, Note_on_c, 2, 85, 76
4, 143616, Note_on_c, 2, 81, 72
4, 143616, Note_on_c, 2, 75, 72
4, 143776, Note_off_c, 2, 85, 0
4, 143776, Note_off_c, 2, 81, 0
4, 143776, Note_off_c, 2, 75, 0
4, 144000, Note_on_c, 2, 80, 75
4, 144000, Note_on_c, 2, 83, 72
4, 144000, Note_on_c, 2, 76, 72
4, 144160, Note_off_c, 2, 80, 0
4, 144160, Note_off_c, 2, 83, 0
4, 144160, Note_off_c, 2, 76, 0
4, 144384, Note_on_c, 2, 81, 72
4, 144384, Note_on_c, 2, 78, 72
4, 144384, Note_on_c, 2, 75, 72
4, 144544, Note_off_c, 2, 81, 0
4, 144544, Note_off_c, 2, 78, 0
4, 144544, Note_off_c, 2, 75, 0
4, 144768, Note_on_c, 2, 80, 73
4, 144768, Note_on_c, 2, 76, 73
4, 144768, Note_on_c, 2, 71, 73
4, 144928, Note_off_c, 2, 80, 0
4, 144928, Note_off_c, 2, 76, 0
4, 144928, Note_off_c, 2, 71, 0
4, 145152, Note_on_c, 2, 78, 79
4, 145152, Note_on_c, 2, 75, 79
4, 145152, Note_on_c, 2, 71, 79
4, 145312, Note_off_c, 2, 78, 0
4, 145312, Note_off_c, 2, 75, 0
4, 145312, Note_off_c, 2, 71, 0
4, 145536, Note_on_c, 2, 76, 85
4, 145536, Note_on_c, 2, 73, 85
4, 145536, Note_on_c, 2, 70, 85
4, 145696, Note_off_c, 2, 76, 0
4, 145696, Note_off_c, 2, 73, 0
4, 145696, Note_off_c, 2, 70, 0
4, 145920, Note_on_c, 2, 75, 90
4, 145920, Note_on_c, 2, 71, 90
4, 145920, Note_on_c, 2, 66, 90
4, 146564, Note_off_c, 2, 75, 0
4, 146564, Note_off_c, 2, 71, 0
4, 146564, Note_off_c, 2, 66, 0
4, 146688, Note_on_c, 2, 84, 69
4, 146688, Note_on_c, 2, 75, 65
4, 146848, Note_off_c, 2, 84, 0
4, 146848, Note_off_c, 2, 75, 0
4, 147072, Note_on_c, 2, 83, 68
4, 147072, Note_on_c, 2, 76, 65
4, 147232, Note_off_c, 2, 83, 0
4, 147232, Note_off_c, 2, 76, 0
4, 147456, Note_on_c, 2, 81, 67
4, 147456, Note_on_c, 2, 75, 65
4, 147456, Note_on_c, 2, 69, 65
4, 147616, Note_off_c, 2, 81, 0
4, 147616, Note_off_c, 2, 75, 0
4, 147616, Note_off_c, 2, 69, 0
4, 147840, Note_on_c, 2, 79, 65
4, 147840, Note_on_c, 2, 76, 65
4, 147840, Note_on_c, 2, 72, 65
4, 148000, Note_off_c, 2, 79, 0
4, 148000, Note_off_c, 2, 76, 0
4, 148000, Note_off_c, 2, 72, 0
4, 148224, Note_on_c, 2, 78, 65
4, 148224, Note_on_c, 2, 71, 65
4, 148224, Note_on_c, 2, 66, 65
4, 148384, Note_off_c, 2, 78, 0
4, 148384, Note_off_c, 2, 71, 0
4, 148384, Note_off_c, 2, 66, 0
4, 148608, Note_on_c, 2, 76, 65
4, 148608, Note_on_c, 2, 66, 65
4, 148608, Note_on_c, 2, 70, 65
4, 148768, Note_off_c, 2, 76, 0
4, 148768, Note_off_c, 2, 66, 0
4, 148768, Note_off_c, 2, 70, 0
4, 148992, Note_on_c, 2, 75, 65
4, 148992, Note_on_c, 2, 71, 65
4, 148992, Note_on_c, 2, 66, 65
4, 149636, Note_off_c, 2, 75, 0
4, 149636, Note_off_c, 2, 71, 0
4, 149636, Note_off_c, 2, 66, 0
4, 149760, Note_on_c, 2, 83, 90
4, 149760, Note_on_c, 2, 71, 90
4, 149760, Note_on_c, 2, 75, 90
4, 150244, Note_off_c, 2, 83, 0
4, 150244, Note_off_c, 2, 71, 0
4, 150244, Note_off_c, 2, 75, 0
4, 150336, Note_on_c, 2, 83, 90
4, 150336, Note_on_c, 2, 75, 90
4, 150336, Note_on_c, 2, 71, 90
4, 150496, Note_off_c, 2, 83, 0
4, 150496, Note_off_c, 2, 75, 0
4, 150496, Note_off_c, 2, 71, 0
4, 150528, Note_on_c, 2, 83, 90
4, 150528, Note_on_c, 2, 75, 90
4, 150528, Note_on_c, 2, 71, 90
4, 150688, Note_off_c, 2, 83, 0
4, 150688, Note_off_c, 2, 75, 0
4, 150688, Note_off_c, 2, 71, 0
4, 150912, Note_on_c, 2, 71, 90
4, 151072, Note_off_c, 2, 71, 0
4, 163968, Note_on_c, 2, 68, 65
4, 164128, Note_off_c, 2, 68, 0
4, 164160, Note_on_c, 2, 69, 65
4, 164320, Note_off_c, 2, 69, 0
4, 164352, Note_on_c, 2, 73, 65
4, 164352, Note_on_c, 2, 68, 65
4, 164540, Note_off_c, 2, 73, 0
4, 164544, Note_on_c, 2, 71, 65
4, 164704, Note_off_c, 2, 71, 0
4, 164736, Note_on_c, 2, 71, 65
4, 164976, Note_off_c, 2, 71, 0
4, 164996, Note_off_c, 2, 68, 0
4, 165024, Note_on_c, 2, 71, 65
4, 165104, Note_off_c, 2, 71, 0
4, 165120, Note_on_c, 2, 71, 65
4, 165120, Note_on_c, 2, 66, 65
4, 165440, Note_off_c, 2, 71, 0
4, 165504, Note_on_c, 2, 71, 65
4, 165764, Note_off_c, 2, 66, 0
4, 165824, Note_off_c, 2, 71, 0
4, 165888, Note_on_c, 2, 64, 65
4, 165888, Note_on_c, 2, 71, 65
4, 166076, Note_off_c, 2, 71, 0
4, 166080, Note_on_c, 2, 76, 65
4, 166268, Note_off_c, 2, 76, 0
4, 166272, Note_on_c, 2, 75, 65
4, 166460, Note_off_c, 2, 75, 0
4, 166464, Note_on_c, 2, 73, 65
4, 166652, Note_off_c, 2, 73, 0
4, 166656, Note_on_c, 2, 71, 65
4, 166844, Note_off_c, 2, 71, 0
4, 166848, Note_on_c, 2, 70, 65
4, 167036, Note_off_c, 2, 70, 0
4, 167040, Note_on_c, 2, 69, 65
4, 167228, Note_off_c, 2, 69, 0
4, 167232, Note_on_c, 2, 68, 65
4, 167392, Note_off_c, 2, 68, 0
4, 167420, Note_off_c, 2, 64, 0
4, 167424, Note_on_c, 2, 68, 65
4, 167612, Note_off_c, 2, 68, 0
4, 167616, Note_on_c, 2, 66, 65
4, 167776, Note_off_c, 2, 66, 0
4, 167808, Note_on_c, 2, 66, 65
4, 168048, Note_off_c, 2, 66, 0
4, 168096, Note_on_c, 2, 66, 65
4, 168176, Note_off_c, 2, 66, 0
4, 168192, Note_on_c, 2, 66, 65
4, 168512, Note_off_c, 2, 66, 0
4, 168576, Note_on_c, 2, 66, 65
4, 168896, Note_off_c, 2, 66, 0
4, 168960, Note_on_c, 2, 66, 65
4, 168960, Note_on_c, 2, 63, 65
4, 168960, Note_on_c, 2, 59, 65
4, 169148, Note_off_c, 2, 66, 0
4, 169152, Note_on_c, 2, 71, 65
4, 169340, Note_off_c, 2, 71, 0
4, 169344, Note_on_c, 2, 70, 65
4, 169532, Note_off_c, 2, 70, 0
4, 169536, Note_on_c, 2, 69, 65
4, 169724, Note_off_c, 2, 69, 0
4, 169728, Note_on_c, 2, 68, 65
4, 169916, Note_off_c, 2, 68, 0
4, 169920, Note_on_c, 2, 66, 65
4, 169924, Note_off_c, 2, 63, 0
4, 169924, Note_off_c, 2, 59, 0
4, 170108, Note_off_c, 2, 66, 0
4, 170112, Note_on_c, 2, 64, 65
4, 170300, Note_off_c, 2, 64, 0
4, 170304, Note_on_c, 2, 63, 65
4, 170492, Note_off_c, 2, 63, 0
4, 170496, Note_on_c, 2, 61, 65
4, 170684, Note_off_c, 2, 61, 0
4, 170688, Note_on_c, 2, 59, 65
4, 170848, Note_off_c, 2, 59, 0
4, 170880, Note_on_c, 2, 59, 65
4, 171120, Note_off_c, 2, 59, 0
4, 171168, Note_on_c, 2, 59, 65
4, 171248, Note_off_c, 2, 59, 0
4, 171264, Note_on_c, 2, 59, 65
4, 171584, Note_off_c, 2, 59, 0
4, 171648, Note_on_c, 2, 60, 65
4, 171968, Note_off_c, 2, 60, 0
4, 172032, Note_on_c, 2, 61, 65
4, 172220, Note_off_c, 2, 61, 0
4, 172224, Note_on_c, 2, 63, 65
4, 172412, Note_off_c, 2, 63, 0
4, 172416, Note_on_c, 2, 64, 65
4, 172604, Note_off_c, 2, 64, 0
4, 172608, Note_on_c, 2, 65, 65
4, 172796, Note_off_c, 2, 65, 0
4, 172800, Note_on_c, 2, 66, 65
4, 172988, Note_off_c, 2, 66, 0
4, 172992, Note_on_c, 2, 68, 65
4, 173180, Note_off_c, 2, 68, 0
4, 173184, Note_on_c, 2, 69, 65
4, 173372, Note_off_c, 2, 69, 0
4, 173376, Note_on_c, 2, 70, 65
4, 173536, Note_off_c, 2, 70, 0
4, 173568, Note_on_c, 2, 71, 65
4, 173756, Note_off_c, 2, 71, 0
4, 173760, Note_on_c, 2, 68, 65
4, 173920, Note_off_c, 2, 68, 0
4, 173952, Note_on_c, 2, 64, 65
4, 174524, Note_off_c, 2, 64, 0
4, 174528, Note_on_c, 2, 68, 65
4, 174716, Note_off_c, 2, 68, 0
4, 174720, Note_on_c, 2, 66, 65
4, 174908, Note_off_c, 2, 66, 0
4, 174912, Note_on_c, 2, 63, 65
4, 175100, Note_off_c, 2, 63, 0
4, 175104, Note_on_c, 2, 64, 65
4, 175104, Note_on_c, 2, 64, 65
4, 175424, Note_off_c, 2, 64, 0
4, 175488, Note_on_c, 2, 74, 65
4, 175488, Note_on_c, 2, 71, 65
4, 175868, Note_off_c, 2, 74, 0
4, 175868, Note_off_c, 2, 71, 0
4, 175872, Note_on_c, 2, 69, 65
4, 175872, Note_on_c, 2, 72, 65
4, 176252, Note_off_c, 2, 69, 0
4, 176252, Note_off_c, 2, 72, 0
4, 176256, Note_on_c, 2, 71, 65
4, 176256, Note_on_c, 2, 68, 65
4, 176576, Note_off_c, 2, 71, 0
4, 176576, Note_off_c, 2, 68, 0
4, 176640, Note_on_c, 2, 76, 65
4, 176640, Note_on_c, 2, 72, 65
4, 177020, Note_off_c, 2, 76, 0
4, 177020, Note_off_c, 2, 72, 0
4, 177024, Note_on_c, 2, 74, 65
4, 177024, Note_on_c, 2, 71, 65
4, 177344, Note_off_c, 2, 74, 0
4, 177344, Note_off_c, 2, 71, 0
4, 177408, Note_on_c, 2, 81, 65
4, 177408, Note_on_c, 2, 73, 65
4, 177788, Note_off_c, 2, 81, 0
4, 177788, Note_off_c, 2, 73, 0
4, 177792, Note_on_c, 2, 80, 65
4, 177792, Note_on_c, 2, 71, 65
4, 178112, Note_off_c, 2, 80, 0
4, 178112, Note_off_c, 2, 71, 0
4, 178176, Note_on_c, 2, 76, 65
4, 178176, Note_on_c, 2, 72, 65
4, 178556, Note_off_c, 2, 76, 0
4, 178556, Note_off_c, 2, 72, 0
4, 178560, Note_on_c, 2, 74, 65
4, 178560, Note_on_c, 2, 71, 65
4, 178880, Note_off_c, 2, 74, 0
4, 178880, Note_off_c, 2, 71, 0
4, 178944, Note_on_c, 2, 72, 65
4, 178944, Note_on_c, 2, 81, 65
4, 178944, Note_on_c, 2, 84, 69
4, 179324, Note_off_c, 2, 72, 0
4, 179324, Note_off_c, 2, 81, 0
4, 179324, Note_off_c, 2, 84, 0
4, 179328, Note_on_c, 2, 71, 65
4, 179328, Note_on_c, 2, 80, 65
4, 179328, Note_on_c, 2, 83, 67
4, 179524, Note_off_c, 2, 64, 0
4, 179648, Note_off_c, 2, 71, 0
4, 179648, Note_off_c, 2, 80, 0
4, 179648, Note_off_c, 2, 83, 0
4, 181248, Note_on_c, 2, 71, 65
4, 181248, Note_on_c, 2, 66, 65
4, 181248, Note_on_c, 2, 59, 65
4, 181628, Note_off_c, 2, 71, 0
4, 181632, Note_on_c, 2, 69, 65
4, 182396, Note_off_c, 2, 66, 0
4, 182396, Note_off_c, 2, 59, 0
4, 182396, Note_off_c, 2, 69, 0
4, 182400, Note_on_c, 2, 68, 65
4, 182400, Note_on_c, 2, 64, 65
4, 182400, Note_on_c, 2, 59, 65
4, 182720, Note_off_c, 2, 68, 0
4, 182720, Note_off_c, 2, 64, 0
4, 182720, Note_off_c, 2, 59, 0
4, 183168, Note_on_c, 2, 78, 65
4, 183168, Note_on_c, 2, 69, 65
4, 183548, Note_off_c, 2, 78, 0
4, 183548, Note_off_c, 2, 69, 0
4, 183552, Note_on_c, 2, 76, 65
4, 183552, Note_on_c, 2, 68, 65
4, 183932, Note_off_c, 2, 76, 0
4, 183932, Note_off_c, 2, 68, 0
4, 183936, Note_on_c, 2, 75, 65
4, 183936, Note_on_c, 2, 66, 65
4, 184256, Note_off_c, 2, 75, 0
4, 184256, Note_off_c, 2, 66, 0
4, 184320, Note_on_c, 2, 76, 65
4, 184412, Note_off_c, 2, 76, 0
4, 184416, Note_on_c, 2, 75, 65
4, 184508, Note_off_c, 2, 75, 0
4, 184512, Note_on_c, 2, 76, 65
4, 184604, Note_off_c, 2, 76, 0
4, 184608, Note_on_c, 2, 78, 65
4, 184700, Note_off_c, 2, 78, 0
4, 184704, Note_on_c, 2, 80, 65
4, 184784, Note_off_c, 2, 80, 0
4, 184896, Note_on_c, 2, 80, 65
4, 184976, Note_off_c, 2, 80, 0
4, 185088, Note_on_c, 2, 80, 65
4, 185408, Note_off_c, 2, 80, 0
4, 185856, Note_on_c, 2, 76, 65
4, 185948, Note_off_c, 2, 76, 0
4, 185952, Note_on_c, 2, 75, 65
4, 186044, Note_off_c, 2, 75, 0
4, 186048, Note_on_c, 2, 76, 65
4, 186140, Note_off_c, 2, 76, 0
4, 186144, Note_on_c, 2, 78, 65
4, 186236, Note_off_c, 2, 78, 0
4, 186240, Note_on_c, 2, 80, 65
4, 186320, Note_off_c, 2, 80, 0
4, 186432, Note_on_c, 2, 80, 65
4, 186512, Note_off_c, 2, 80, 0
4, 186624, Note_on_c, 2, 80, 65
4, 186944, Note_off_c, 2, 80, 0
4, 187392, Note_on_c, 2, 76, 65
4, 187484, Note_off_c, 2, 76, 0
4, 187488, Note_on_c, 2, 75, 65
4, 187580, Note_off_c, 2, 75, 0
4, 187584, Note_on_c, 2, 76, 65
4, 187676, Note_off_c, 2, 76, 0
4, 187680, Note_on_c, 2, 78, 65
4, 187772, Note_off_c, 2, 78, 0
4, 187776, Note_on_c, 2, 80, 65
4, 187856, Note_off_c, 2, 80, 0
4, 187968, Note_on_c, 2, 80, 65
4, 188048, Note_off_c, 2, 80, 0
4, 188160, Note_on_c, 2, 80, 65
4, 188480, Note_off_c, 2, 80, 0
4, 189312, Note_on_c, 2, 76, 65
4, 189312, Note_on_c, 2, 64, 65
4, 189312, Note_on_c, 2, 68, 65
4, 190076, Note_off_c, 2, 76, 0
4, 190076, Note_off_c, 2, 64, 0
4, 190080, Note_on_c, 2, 74, 65
4, 190080, Note_on_c, 2, 64, 65
4, 190460, Note_off_c, 2, 68, 0
4, 190460, Note_off_c, 2, 74, 0
4, 190460, Note_off_c, 2, 64, 0
4, 190464, Note_on_c, 2, 73, 80
4, 190464, Note_on_c, 2, 69, 80
4, 190464, Note_on_c, 2, 64, 80
4, 190784, Note_off_c, 2, 73, 0
4, 190784, Note_off_c, 2, 69, 0
4, 190784, Note_off_c, 2, 64, 0
4, 192000, Note_on_c, 2, 83, 65
4, 192000, Note_on_c, 2, 78, 65
4, 192000, Note_on_c, 2, 71, 65
4, 192380, Note_off_c, 2, 83, 0
4, 192380, Note_off_c, 2, 78, 0
4, 192380, Note_off_c, 2, 71, 0
4, 192384, Note_on_c, 2, 69, 65
4, 192384, Note_on_c, 2, 81, 65
4, 192384, Note_on_c, 2, 78, 65
4, 193148, Note_off_c, 2, 69, 0
4, 193148, Note_off_c, 2, 81, 0
4, 193148, Note_off_c, 2, 78, 0
4, 193152, Note_on_c, 2, 80, 65
4, 193152, Note_on_c, 2, 76, 65
4, 193152, Note_on_c, 2, 68, 65
4, 193472, Note_off_c, 2, 80, 0
4, 193472, Note_off_c, 2, 76, 0
4, 193472, Note_off_c, 2, 68, 0
4, 193920, Note_on_c, 2, 78, 65
4, 193920, Note_on_c, 2, 69, 65
4, 194300, Note_off_c, 2, 78, 0
4, 194300, Note_off_c, 2, 69, 0
4, 194304, Note_on_c, 2, 76, 65
4, 194304, Note_on_c, 2, 68, 65
4, 194684, Note_off_c, 2, 76, 0
4, 194684, Note_off_c, 2, 68, 0
4, 194688, Note_on_c, 2, 75, 65
4, 194688, Note_on_c, 2, 66, 65
4, 195008, Note_off_c, 2, 75, 0
4, 195008, Note_off_c, 2, 66, 0
4, 195072, Note_on_c, 2, 71, 65
4, 195072, Note_on_c, 2, 66, 65
4, 195452, Note_off_c, 2, 71, 0
4, 195840, Note_on_c, 2, 69, 65
4, 196036, Note_off_c, 2, 66, 0
4, 196224, Note_on_c, 2, 68, 65
4, 196224, Note_on_c, 2, 64, 65
4, 196544, Note_off_c, 2, 68, 0
4, 196544, Note_off_c, 2, 64, 0
4, 196604, Note_off_c, 2, 69, 0
4, 196608, Note_on_c, 2, 83, 65
4, 196608, Note_on_c, 2, 71, 65
4, 196988, Note_off_c, 2, 83, 0
4, 196988, Note_off_c, 2, 71, 0
4, 196992, Note_on_c, 2, 81, 65
4, 196992, Note_on_c, 2, 69, 65
4, 197756, Note_off_c, 2, 81, 0
4, 197756, Note_off_c, 2, 69, 0
4, 197760, Note_on_c, 2, 80, 65
4, 197760, Note_on_c, 2, 68, 65
4, 198080, Note_off_c, 2, 80, 0
4, 198080, Note_off_c, 2, 68, 0
4, 198144, Note_on_c, 2, 73, 65
4, 198144, Note_on_c, 2, 69, 65
4, 198144, Note_on_c, 2, 66, 65
4, 199492, Note_off_c, 2, 73, 0
4, 199492, Note_off_c, 2, 69, 0
4, 199492, Note_off_c, 2, 66, 0
4, 199680, Note_on_c, 2, 78, 65
4, 199680, Note_on_c, 2, 73, 65
4, 199680, Note_on_c, 2, 69, 65
4, 201028, Note_off_c, 2, 78, 0
4, 201028, Note_off_c, 2, 73, 0
4, 201028, Note_off_c, 2, 69, 0
4, 201216, Note_on_c, 2, 81, 65
4, 201216, Note_on_c, 2, 78, 65
4, 201216, Note_on_c, 2, 73, 65
4, 201536, Note_off_c, 2, 81, 0
4, 201536, Note_off_c, 2, 78, 0
4, 201536, Note_off_c, 2, 73, 0
4, 201984, Note_on_c, 2, 85, 69
4, 201984, Note_on_c, 2, 81, 65
4, 202304, Note_off_c, 2, 85, 0
4, 202304, Note_off_c, 2, 81, 0
4, 202752, Note_on_c, 2, 85, 65
4, 202752, Note_on_c, 2, 88, 71
4, 203072, Note_off_c, 2, 85, 0
4, 203072, Note_off_c, 2, 88, 0
4, 203904, Note_on_c, 2, 82, 65
4, 203904, Note_on_c, 2, 79, 65
4, 203904, Note_on_c, 2, 76, 65
4, 203904, Note_on_c, 2, 70, 65
4, 204284, Note_off_c, 2, 82, 0
4, 204284, Note_off_c, 2, 79, 0
4, 204284, Note_off_c, 2, 76, 0
4, 204284, Note_off_c, 2, 70, 0
4, 204288, Note_on_c, 2, 83, 75
4, 204288, Note_on_c, 2, 80, 75
4, 204288, Note_on_c, 2, 76, 75
4, 204288, Note_on_c, 2, 71, 75
4, 204608, Note_off_c, 2, 83, 0
4, 204608, Note_off_c, 2, 80, 0
4, 204608, Note_off_c, 2, 76, 0
4, 204608, Note_off_c, 2, 71, 0
4, 206976, Note_on_c, 2, 64, 65
4, 206976, Note_on_c, 2, 59, 65
4, 206976, Note_on_c, 2, 56, 65
4, 207356, Note_off_c, 2, 64, 0
4, 207356, Note_off_c, 2, 59, 0
4, 207356, Note_off_c, 2, 56, 0
4, 207360, Note_on_c, 2, 68, 70
4, 207360, Note_on_c, 2, 64, 70
4, 207360, Note_on_c, 2, 59, 70
4, 207520, Note_off_c, 2, 68, 0
4, 207520, Note_off_c, 2, 64, 0
4, 207520, Note_off_c, 2, 59, 0
4, 207744, Note_on_c, 2, 71, 75
4, 207744, Note_on_c, 2, 68, 75
4, 207744, Note_on_c, 2, 64, 75
4, 207904, Note_off_c, 2, 71, 0
4, 207904, Note_off_c, 2, 68, 0
4, 207904, Note_off_c, 2, 64, 0
4, 208128, Note_on_c, 2, 76, 80
4, 208128, Note_on_c, 2, 71, 80
4, 208128, Note_on_c, 2, 68, 80
4, 208288, Note_off_c, 2, 76, 0
4, 208288, Note_off_c, 2, 71, 0
4, 208288, Note_off_c, 2, 68, 0
4, 208512, Note_on_c, 2, 80, 85
4, 208512, Note_on_c, 2, 76, 85
4, 208512, Note_on_c, 2, 71, 85
4, 208672, Note_off_c, 2, 80, 0
4, 208672, Note_off_c, 2, 76, 0
4, 208672, Note_off_c, 2, 71, 0
4, 209088, Note_on_c, 2, 63, 90
4, 209088, Note_on_c, 2, 57, 90
4, 209088, Note_on_c, 2, 54, 90
4, 209248, Note_off_c, 2, 63, 0
4, 209248, Note_off_c, 2, 57, 0
4, 209248, Note_off_c, 2, 54, 0
4, 209280, Note_on_c, 2, 63, 90
4, 209280, Note_on_c, 2, 57, 90
4, 209280, Note_on_c, 2, 54, 90
4, 209440, Note_off_c, 2, 63, 0
4, 209440, Note_off_c, 2, 57, 0
4, 209440, Note_off_c, 2, 54, 0
4, 209472, Note_on_c, 2, 63, 90
4, 209472, Note_on_c, 2, 57, 90
4, 209472, Note_on_c, 2, 54, 90
4, 209632, Note_off_c, 2, 63, 0
4, 209632, Note_off_c, 2, 57, 0
4, 209632, Note_off_c, 2, 54, 0
4, 209664, Note_on_c, 2, 63, 90
4, 209664, Note_on_c, 2, 57, 90
4, 209664, Note_on_c, 2, 54, 90
4, 209824, Note_off_c, 2, 63, 0
4, 209824, Note_off_c, 2, 57, 0
4, 209824, Note_off_c, 2, 54, 0
4, 209856, Note_on_c, 2, 63, 90
4, 209856, Note_on_c, 2, 57, 90
4, 209856, Note_on_c, 2, 54, 90
4, 210016, Note_off_c, 2, 63, 0
4, 210016, Note_off_c, 2, 57, 0
4, 210016, Note_off_c, 2, 54, 0
4, 210048, Note_on_c, 2, 63, 90
4, 210048, Note_on_c, 2, 57, 90
4, 210048, Note_on_c, 2, 54, 90
4, 210208, Note_off_c, 2, 63, 0
4, 210208, Note_off_c, 2, 57, 0
4, 210208, Note_off_c, 2, 54, 0
4, 210240, Note_on_c, 2, 63, 90
4, 210240, Note_on_c, 2, 57, 90
4, 210240, Note_on_c, 2, 54, 90
4, 210400, Note_off_c, 2, 63, 0
4, 210400, Note_off_c, 2, 57, 0
4, 210400, Note_off_c, 2, 54, 0
4, 210432, Note_on_c, 2, 64, 65
4, 210432, Note_on_c, 2, 59, 65
4, 210432, Note_on_c, 2, 56, 65
4, 210752, Note_off_c, 2, 64, 0
4, 210752, Note_off_c, 2, 59, 0
4, 210752, Note_off_c, 2, 56, 0
4, 210816, Note_on_c, 2, 64, 65
4, 211056, Note_off_c, 2, 64, 0
4, 211104, Note_on_c, 2, 64, 65
4, 211184, Note_off_c, 2, 64, 0
4, 211200, Note_on_c, 2, 64, 65
4, 211360, Note_off_c, 2, 64, 0
4, 211392, Note_on_c, 2, 64, 65
4, 211392, Note_on_c, 2, 68, 65
4, 211392, Note_on_c, 2, 76, 65
4, 211552, Note_off_c, 2, 64, 0
4, 211552, Note_off_c, 2, 68, 0
4, 211552, Note_off_c, 2, 76, 0
4, 211584, Note_on_c, 2, 76, 65
4, 211584, Note_on_c, 2, 68, 65
4, 211584, Note_on_c, 2, 64, 65
4, 211744, Note_off_c, 2, 76, 0
4, 211744, Note_off_c, 2, 68, 0
4, 211744, Note_off_c, 2, 64, 0
4, 211776, Note_on_c, 2, 76, 65
4, 211776, Note_on_c, 2, 68, 65
4, 211776, Note_on_c, 2, 64, 65
4, 211936, Note_off_c, 2, 76, 0
4, 211936, Note_off_c, 2, 68, 0
4, 211936, Note_off_c, 2, 64, 0
4, 211968, Note_on_c, 2, 83, 65
4, 211968, Note_on_c, 2, 76, 65
4, 211968, Note_on_c, 2, 71, 65
4, 212156, Note_off_c, 2, 83, 0
4, 212156, Note_off_c, 2, 76, 0
4, 212156, Note_off_c, 2, 71, 0
4, 212160, Note_on_c, 2, 81, 65
4, 212160, Note_on_c, 2, 69, 65
4, 212320, Note_off_c, 2, 81, 0
4, 212320, Note_off_c, 2, 69, 0
4, 212352, Note_on_c, 2, 76, 65
4, 212352, Note_on_c, 2, 69, 65
4, 212352, Note_on_c, 2, 81, 65
4, 212836, Note_off_c, 2, 81, 0
4, 212928, Note_on_c, 2, 80, 65
4, 212996, Note_off_c, 2, 76, 0
4, 212996, Note_off_c, 2, 69, 0
4, 213088, Note_off_c, 2, 80, 0
4, 213120, Note_on_c, 2, 78, 65
4, 213120, Note_on_c, 2, 73, 65
4, 213120, Note_on_c, 2, 69, 65
4, 213280, Note_off_c, 2, 78, 0
4, 213312, Note_on_c, 2, 76, 65
4, 213440, Note_off_c, 2, 73, 0
4, 213440, Note_off_c, 2, 69, 0
4, 213472, Note_off_c, 2, 76, 0
4, 213504, Note_on_c, 2, 71, 65
4, 213504, Note_on_c, 2, 76, 65
4, 213692, Note_off_c, 2, 76, 0
4, 213696, Note_on_c, 2, 74, 65
4, 213824, Note_off_c, 2, 71, 0
4, 213856, Note_off_c, 2, 74, 0
4, 213888, Note_on_c, 2, 86, 71
4, 213888, Note_on_c, 2, 74, 71
4, 214372, Note_off_c, 2, 86, 0
4, 214372, Note_off_c, 2, 74, 0
4, 214464, Note_on_c, 2, 85, 74
4, 214464, Note_on_c, 2, 76, 65
4, 214464, Note_on_c, 2, 73, 65
4, 214624, Note_off_c, 2, 85, 0
4, 214624, Note_off_c, 2, 76, 0
4, 214624, Note_off_c, 2, 73, 0
4, 214656, Note_on_c, 2, 83, 68
4, 214656, Note_on_c, 2, 76, 65
4, 214656, Note_on_c, 2, 71, 65
4, 214816, Note_off_c, 2, 83, 0
4, 214816, Note_off_c, 2, 76, 0
4, 214816, Note_off_c, 2, 71, 0
4, 214848, Note_on_c, 2, 81, 65
4, 214848, Note_on_c, 2, 76, 65
4, 214848, Note_on_c, 2, 69, 65
4, 215008, Note_off_c, 2, 81, 0
4, 215008, Note_off_c, 2, 76, 0
4, 215008, Note_off_c, 2, 69, 0
4, 215040, Note_on_c, 2, 81, 65
4, 215040, Note_on_c, 2, 74, 65
4, 215040, Note_on_c, 2, 71, 65
4, 215228, Note_off_c, 2, 81, 0
4, 215232, Note_on_c, 2, 80, 65
4, 215360, Note_off_c, 2, 74, 0
4, 215360, Note_off_c, 2, 71, 0
4, 215392, Note_off_c, 2, 80, 0
4, 215424, Note_on_c, 2, 80, 65
4, 215424, Note_on_c, 2, 74, 65
4, 215424, Note_on_c, 2, 71, 65
4, 215908, Note_off_c, 2, 80, 0
4, 215908, Note_off_c, 2, 74, 0
4, 215908, Note_off_c, 2, 71, 0
4, 216000, Note_on_c, 2, 83, 70
4, 216092, Note_off_c, 2, 83, 0
4, 216096, Note_on_c, 2, 81, 69
4, 216188, Note_off_c, 2, 81, 0
4, 216192, Note_on_c, 2, 80, 68
4, 216284, Note_off_c, 2, 80, 0
4, 216288, Note_on_c, 2, 78, 67
4, 216380, Note_off_c, 2, 78, 0
4, 216384, Note_on_c, 2, 76, 66
4, 216476, Note_off_c, 2, 76, 0
4, 216480, Note_on_c, 2, 74, 65
4, 216572, Note_off_c, 2, 74, 0
4, 216576, Note_on_c, 2, 73, 65
4, 216736, Note_off_c, 2, 73, 0
4, 216768, Note_on_c, 2, 73, 65
4, 216860, Note_off_c, 2, 73, 0
4, 216864, Note_on_c, 2, 71, 65
4, 216956, Note_off_c, 2, 71, 0
4, 216960, Note_on_c, 2, 69, 65
4, 217052, Note_off_c, 2, 69, 0
4, 217056, Note_on_c, 2, 68, 65
4, 217148, Note_off_c, 2, 68, 0
4, 217152, Note_on_c, 2, 66, 65
4, 217244, Note_off_c, 2, 66, 0
4, 217248, Note_on_c, 2, 64, 65
4, 217340, Note_off_c, 2, 64, 0
4, 217344, Note_on_c, 2, 63, 65
4, 217504, Note_off_c, 2, 63, 0
4, 217536, Note_on_c, 2, 75, 65
4, 217628, Note_off_c, 2, 75, 0
4, 217632, Note_on_c, 2, 73, 65
4, 217724, Note_off_c, 2, 73, 0
4, 217728, Note_on_c, 2, 71, 65
4, 217820, Note_off_c, 2, 71, 0
4, 217824, Note_on_c, 2, 69, 65
4, 217916, Note_off_c, 2, 69, 0
4, 217920, Note_on_c, 2, 68, 65
4, 218012, Note_off_c, 2, 68, 0
4, 218016, Note_on_c, 2, 66, 65
4, 218108, Note_off_c, 2, 66, 0
4, 218112, Note_on_c, 2, 64, 65
4, 218272, Note_off_c, 2, 64, 0
4, 218304, Note_on_c, 2, 76, 65
4, 218396, Note_off_c, 2, 76, 0
4, 218400, Note_on_c, 2, 75, 65
4, 218492, Note_off_c, 2, 75, 0
4, 218496, Note_on_c, 2, 73, 65
4, 218588, Note_off_c, 2, 73, 0
4, 218592, Note_on_c, 2, 71, 65
4, 218684, Note_off_c, 2, 71, 0
4, 218688, Note_on_c, 2, 69, 65
4, 218780, Note_off_c, 2, 69, 0
4, 218784, Note_on_c, 2, 68, 65
4, 218876, Note_off_c, 2, 68, 0
4, 218880, Note_on_c, 2, 66, 65
4, 219040, Note_off_c, 2, 66, 0
4, 219264, Note_on_c, 2, 78, 65
4, 219424, Note_off_c, 2, 78, 0
4, 220416, Note_on_c, 2, 68, 65
4, 220416, Note_on_c, 2, 59, 65
4, 221180, Note_off_c, 2, 68, 0
4, 221180, Note_off_c, 2, 59, 0
4, 221184, Note_on_c, 2, 59, 65
4, 221184, Note_on_c, 2, 68, 65
4, 221504, Note_off_c, 2, 59, 0
4, 221504, Note_off_c, 2, 68, 0
4, 221568, Note_on_c, 2, 66, 65
4, 221568, Note_on_c, 2, 57, 65
4, 221808, Note_off_c, 2, 66, 0
4, 221808, Note_off_c, 2, 57, 0
4, 221856, Note_on_c, 2, 68, 65
4, 221856, Note_on_c, 2, 59, 65
4, 221936, Note_off_c, 2, 68, 0
4, 221936, Note_off_c, 2, 59, 0
4, 221952, Note_on_c, 2, 69, 65
4, 221952, Note_on_c, 2, 61, 65
4, 222272, Note_off_c, 2, 69, 0
4, 222272, Note_off_c, 2, 61, 0
4, 222336, Note_on_c, 2, 66, 65
4, 222336, Note_on_c, 2, 57, 65
4, 222656, Note_off_c, 2, 66, 0
4, 222656, Note_off_c, 2, 57, 0
4, 223488, Note_on_c, 2, 64, 65
4, 223488, Note_on_c, 2, 71, 65
4, 223868, Note_off_c, 2, 64, 0
4, 223872, Note_on_c, 2, 68, 65
4, 224252, Note_off_c, 2, 68, 0
4, 224256, Note_on_c, 2, 64, 65
4, 224576, Note_off_c, 2, 71, 0
4, 224640, Note_on_c, 2, 76, 65
4, 224924, Note_off_c, 2, 76, 0
4, 224928, Note_on_c, 2, 73, 65
4, 225008, Note_off_c, 2, 73, 0
4, 225024, Note_on_c, 2, 69, 65
4, 225788, Note_off_c, 2, 64, 0
4, 225792, Note_on_c, 2, 63, 65
4, 226112, Note_off_c, 2, 69, 0
4, 226176, Note_on_c, 2, 68, 65
4, 226556, Note_off_c, 2, 63, 0
4, 226560, Note_on_c, 2, 61, 65
4, 226560, Note_on_c, 2, 59, 65
4, 226820, Note_off_c, 2, 68, 0
4, 226880, Note_off_c, 2, 61, 0
4, 226880, Note_off_c, 2, 59, 0
4, 226944, Note_on_c, 2, 61, 65
4, 226944, Note_on_c, 2, 66, 65
4, 226944, Note_on_c, 2, 57, 65
4, 227228, Note_off_c, 2, 66, 0
4, 227228, Note_off_c, 2, 57, 0
4, 227232, Note_on_c, 2, 64, 65
4, 227232, Note_on_c, 2, 56, 65
4, 227264, Note_off_c, 2, 61, 0
4, 227312, Note_off_c, 2, 64, 0
4, 227312, Note_off_c, 2, 56, 0
4, 227328, Note_on_c, 2, 63, 65
4, 227328, Note_on_c, 2, 59, 65
4, 227648, Note_off_c, 2, 63, 0
4, 227712, Note_on_c, 2, 64, 65
4, 227972, Note_off_c, 2, 59, 0
4, 228032, Note_off_c, 2, 64, 0
4, 228096, Note_on_c, 2, 61, 65
4, 228096, Note_on_c, 2, 69, 75
4, 228136, Note_off_c, 2, 69, 0
4, 228144, Note_on_c, 2, 71, 75
4, 228184, Note_off_c, 2, 71, 0
4, 228192, Note_on_c, 2, 69, 75
4, 228232, Note_off_c, 2, 69, 0
4, 228240, Note_on_c, 2, 71, 75
4, 228280, Note_off_c, 2, 71, 0
4, 228288, Note_on_c, 2, 69, 75
4, 228328, Note_off_c, 2, 69, 0
4, 228336, Note_on_c, 2, 71, 75
4, 228376, Note_off_c, 2, 71, 0
4, 228384, Note_on_c, 2, 69, 75
4, 228424, Note_off_c, 2, 69, 0
4, 228432, Note_on_c, 2, 71, 75
4, 228472, Note_off_c, 2, 71, 0
4, 228476, Note_off_c, 2, 61, 0
4, 228480, Note_on_c, 2, 63, 65
4, 228480, Note_on_c, 2, 69, 75
4, 228520, Note_off_c, 2, 69, 0
4, 228528, Note_on_c, 2, 71, 75
4, 228568, Note_off_c, 2, 71, 0
4, 228576, Note_on_c, 2, 69, 75
4, 228616, Note_off_c, 2, 69, 0
4, 228624, Note_on_c, 2, 71, 75
4, 228664, Note_off_c, 2, 71, 0
4, 228672, Note_on_c, 2, 68, 72
4, 228752, Note_off_c, 2, 68, 0
4, 228768, Note_on_c, 2, 69, 72
4, 228800, Note_off_c, 2, 63, 0
4, 228848, Note_off_c, 2, 69, 0
4, 228864, Note_on_c, 2, 68, 65
4, 228864, Note_on_c, 2, 64, 65
4, 229184, Note_off_c, 2, 68, 0
4, 229184, Note_off_c, 2, 64, 0
4, 237312, Note_on_c, 2, 71, 65
4, 237312, Note_on_c, 2, 64, 65
4, 237312, Note_on_c, 2, 76, 65
4, 238076, Note_off_c, 2, 71, 0
4, 238076, Note_off_c, 2, 64, 0
4, 238080, Note_on_c, 2, 69, 65
4, 238080, Note_on_c, 2, 66, 65
4, 238844, Note_off_c, 2, 76, 0
4, 238848, Note_on_c, 2, 75, 65
4, 239492, Note_off_c, 2, 75, 0
4, 239612, Note_off_c, 2, 69, 0
4, 239612, Note_off_c, 2, 66, 0
4, 239616, Note_on_c, 2, 76, 65
4, 239616, Note_on_c, 2, 68, 65
4, 239616, Note_on_c, 2, 64, 65
4, 239936, Note_off_c, 2, 76, 0
4, 239936, Note_off_c, 2, 68, 0
4, 239936, Note_off_c, 2, 64, 0
4, 240000, Note_on_c, 2, 71, 65
4, 240320, Note_off_c, 2, 71, 0
4, 240384, Note_on_c, 2, 76, 65
4, 240768, Note_on_c, 2, 71, 65
4, 240768, Note_on_c, 2, 67, 65
4, 240768, Note_on_c, 2, 64, 65
4, 241088, Note_off_c, 2, 71, 0
4, 241088, Note_off_c, 2, 67, 0
4, 241088, Note_off_c, 2, 64, 0
4, 241152, Note_on_c, 2, 76, 65
4, 241152, Note_on_c, 2, 69, 65
4, 241152, Note_on_c, 2, 66, 65
4, 241152, Note_on_c, 2, 59, 65
4, 241472, Note_off_c, 2, 76, 0
4, 241532, Note_off_c, 2, 76, 0
4, 241536, Note_on_c, 2, 75, 65
4, 241820, Note_off_c, 2, 69, 0
4, 241820, Note_off_c, 2, 66, 0
4, 241820, Note_off_c, 2, 75, 0
4, 241824, Note_on_c, 2, 68, 65
4, 241824, Note_on_c, 2, 76, 65
4, 241824, Note_on_c, 2, 64, 65
4, 241904, Note_off_c, 2, 68, 0
4, 241904, Note_off_c, 2, 76, 0
4, 241904, Note_off_c, 2, 64, 0
4, 241920, Note_on_c, 2, 78, 65
4, 241920, Note_on_c, 2, 66, 65
4, 241920, Note_on_c, 2, 63, 65
4, 242300, Note_off_c, 2, 78, 0
4, 242300, Note_off_c, 2, 66, 0
4, 242304, Note_on_c, 2, 71, 65
4, 242304, Note_on_c, 2, 69, 65
4, 242564, Note_off_c, 2, 59, 0
4, 242564, Note_off_c, 2, 63, 0
4, 242624, Note_off_c, 2, 71, 0
4, 242624, Note_off_c, 2, 69, 0
4, 242688, Note_on_c, 2, 79, 65
4, 242688, Note_on_c, 2, 71, 65
4, 242688, Note_on_c, 2, 67, 65
4, 243008, Note_off_c, 2, 79, 0
4, 243008, Note_off_c, 2, 71, 0
4, 243008, Note_off_c, 2, 67, 0
4, 243072, Note_on_c, 2, 83, 65
4, 243072, Note_on_c, 2, 71, 65
4, 243072, Note_on_c, 2, 67, 65
4, 243152, Note_off_c, 2, 83, 0
4, 243152, Note_off_c, 2, 71, 0
4, 243152, Note_off_c, 2, 67, 0
4, 243264, Note_on_c, 2, 82, 65
4, 243264, Note_on_c, 2, 70, 65
4, 243264, Note_on_c, 2, 66, 65
4, 243344, Note_off_c, 2, 82, 0
4, 243344, Note_off_c, 2, 70, 0
4, 243344, Note_off_c, 2, 66, 0
4, 243456, Note_on_c, 2, 83, 65
4, 243456, Note_on_c, 2, 71, 65
4, 243456, Note_on_c, 2, 67, 65
4, 243776, Note_off_c, 2, 83, 0
4, 243776, Note_off_c, 2, 71, 0
4, 243776, Note_off_c, 2, 67, 0
4, 243840, Note_on_c, 2, 83, 65
4, 243840, Note_on_c, 2, 71, 65
4, 243840, Note_on_c, 2, 67, 65
4, 243920, Note_off_c, 2, 83, 0
4, 243920, Note_off_c, 2, 71, 0
4, 243920, Note_off_c, 2, 67, 0
4, 244032, Note_on_c, 2, 82, 65
4, 244032, Note_on_c, 2, 70, 65
4, 244032, Note_on_c, 2, 66, 65
4, 244112, Note_off_c, 2, 82, 0
4, 244112, Note_off_c, 2, 70, 0
4, 244112, Note_off_c, 2, 66, 0
4, 244224, Note_on_c, 2, 83, 65
4, 244224, Note_on_c, 2, 71, 65
4, 244224, Note_on_c, 2, 67, 65
4, 244304, Note_off_c, 2, 83, 0
4, 244304, Note_off_c, 2, 71, 0
4, 244304, Note_off_c, 2, 67, 0
4, 244416, Note_on_c, 2, 82, 65
4, 244416, Note_on_c, 2, 70, 65
4, 244416, Note_on_c, 2, 66, 65
4, 244496, Note_off_c, 2, 82, 0
4, 244496, Note_off_c, 2, 70, 0
4, 244496, Note_off_c, 2, 66, 0
4, 244592, Note_on_c, 2, 67, 65
4, 244608, Note_on_c, 2, 83, 65
4, 244608, Note_on_c, 2, 71, 65
4, 244672, Note_off_c, 2, 67, 0
4, 244688, Note_off_c, 2, 83, 0
4, 244688, Note_off_c, 2, 71, 0
4, 244800, Note_on_c, 2, 79, 65
4, 244800, Note_on_c, 2, 67, 65
4, 244800, Note_on_c, 2, 64, 65
4, 244880, Note_off_c, 2, 79, 0
4, 244880, Note_off_c, 2, 67, 0
4, 244880, Note_off_c, 2, 64, 0
4, 244992, Note_on_c, 2, 81, 65
4, 244992, Note_on_c, 2, 69, 65
4, 244992, Note_on_c, 2, 66, 65
4, 245072, Note_off_c, 2, 81, 0
4, 245072, Note_off_c, 2, 69, 0
4, 245072, Note_off_c, 2, 66, 0
4, 245184, Note_on_c, 2, 80, 65
4, 245184, Note_on_c, 2, 68, 65
4, 245184, Note_on_c, 2, 65, 65
4, 245264, Note_off_c, 2, 80, 0
4, 245264, Note_off_c, 2, 68, 0
4, 245264, Note_off_c, 2, 65, 0
4, 245376, Note_on_c, 2, 81, 65
4, 245376, Note_on_c, 2, 69, 65
4, 245376, Note_on_c, 2, 66, 65
4, 245456, Note_off_c, 2, 81, 0
4, 245456, Note_off_c, 2, 69, 0
4, 245456, Note_off_c, 2, 66, 0
4, 245568, Note_on_c, 2, 78, 65
4, 245568, Note_on_c, 2, 66, 65
4, 245568, Note_on_c, 2, 63, 65
4, 245648, Note_off_c, 2, 78, 0
4, 245648, Note_off_c, 2, 66, 0
4, 245648, Note_off_c, 2, 63, 0
4, 245760, Note_on_c, 2, 79, 65
4, 245760, Note_on_c, 2, 67, 65
4, 245760, Note_on_c, 2, 64, 65
4, 246080, Note_off_c, 2, 79, 0
4, 246080, Note_off_c, 2, 67, 0
4, 246080, Note_off_c, 2, 64, 0
4, 246144, Note_on_c, 2, 79, 65
4, 246524, Note_off_c, 2, 79, 0
4, 246528, Note_on_c, 2, 84, 71
4, 246912, Note_on_c, 2, 76, 65
4, 246912, Note_on_c, 2, 67, 65
4, 246912, Note_on_c, 2, 60, 65
4, 247232, Note_off_c, 2, 76, 0
4, 247232, Note_off_c, 2, 67, 0
4, 247232, Note_off_c, 2, 60, 0
4, 247296, Note_on_c, 2, 77, 65
4, 247296, Note_on_c, 2, 67, 65
4, 247296, Note_on_c, 2, 55, 65
4, 247296, Note_on_c, 2, 62, 65
4, 247616, Note_off_c, 2, 84, 0
4, 247680, Note_on_c, 2, 83, 65
4, 247964, Note_off_c, 2, 77, 0
4, 247964, Note_off_c, 2, 62, 0
4, 247964, Note_off_c, 2, 83, 0
4, 247968, Note_on_c, 2, 84, 70
4, 247968, Note_on_c, 2, 76, 65
4, 247968, Note_on_c, 2, 60, 65
4, 248048, Note_off_c, 2, 84, 0
4, 248048, Note_off_c, 2, 76, 0
4, 248048, Note_off_c, 2, 60, 0
4, 248064, Note_on_c, 2, 86, 72
4, 248064, Note_on_c, 2, 74, 65
4, 248064, Note_on_c, 2, 59, 65
4, 248444, Note_off_c, 2, 86, 0
4, 248444, Note_off_c, 2, 74, 0
4, 248448, Note_on_c, 2, 79, 65
4, 248448, Note_on_c, 2, 77, 65
4, 248644, Note_off_c, 2, 67, 0
4, 248644, Note_off_c, 2, 55, 0
4, 248768, Note_off_c, 2, 79, 0
4, 248768, Note_off_c, 2, 77, 0
4, 248828, Note_off_c, 2, 59, 0
4, 248832, Note_on_c, 2, 76, 65
4, 248832, Note_on_c, 2, 88, 75
4, 248832, Note_on_c, 2, 67, 65
4, 248832, Note_on_c, 2, 60, 65
4, 249152, Note_off_c, 2, 76, 0
4, 249152, Note_off_c, 2, 88, 0
4, 249152, Note_off_c, 2, 67, 0
4, 249152, Note_off_c, 2, 60, 0
4, 249216, Note_on_c, 2, 79, 65
4, 249216, Note_on_c, 2, 67, 65
4, 249216, Note_on_c, 2, 64, 65
4, 249296, Note_off_c, 2, 79, 0
4, 249296, Note_off_c, 2, 67, 0
4, 249296, Note_off_c, 2, 64, 0
4, 249408, Note_on_c, 2, 78, 65
4, 249408, Note_on_c, 2, 66, 65
4, 249408, Note_on_c, 2, 63, 65
4, 249488, Note_off_c, 2, 78, 0
4, 249488, Note_off_c, 2, 66, 0
4, 249488, Note_off_c, 2, 63, 0
4, 249600, Note_on_c, 2, 79, 65
4, 249600, Note_on_c, 2, 67, 65
4, 249600, Note_on_c, 2, 64, 65
4, 249920, Note_off_c, 2, 79, 0
4, 249920, Note_off_c, 2, 67, 0
4, 249920, Note_off_c, 2, 64, 0
4, 249984, Note_on_c, 2, 79, 65
4, 249984, Note_on_c, 2, 67, 65
4, 249984, Note_on_c, 2, 64, 65
4, 250064, Note_off_c, 2, 79, 0
4, 250064, Note_off_c, 2, 67, 0
4, 250064, Note_off_c, 2, 64, 0
4, 250176, Note_on_c, 2, 78, 65
4, 250176, Note_on_c, 2, 66, 65
4, 250176, Note_on_c, 2, 63, 65
4, 250256, Note_off_c, 2, 78, 0
4, 250256, Note_off_c, 2, 66, 0
4, 250256, Note_off_c, 2, 63, 0
4, 250368, Note_on_c, 2, 79, 65
4, 250368, Note_on_c, 2, 67, 65
4, 250368, Note_on_c, 2, 64, 65
4, 250448, Note_off_c, 2, 79, 0
4, 250448, Note_off_c, 2, 67, 0
4, 250448, Note_off_c, 2, 64, 0
4, 250560, Note_on_c, 2, 78, 65
4, 250560, Note_on_c, 2, 66, 65
4, 250560, Note_on_c, 2, 63, 65
4, 250640, Note_off_c, 2, 78, 0
4, 250640, Note_off_c, 2, 66, 0
4, 250640, Note_off_c, 2, 63, 0
4, 250752, Note_on_c, 2, 67, 65
4, 250752, Note_on_c, 2, 64, 65
4, 250752, Note_on_c, 2, 79, 65
4, 250832, Note_off_c, 2, 67, 0
4, 250832, Note_off_c, 2, 64, 0
4, 250832, Note_off_c, 2, 79, 0
4, 250944, Note_on_c, 2, 76, 65
4, 250944, Note_on_c, 2, 64, 65
4, 250944, Note_on_c, 2, 61, 65
4, 251024, Note_off_c, 2, 76, 0
4, 251024, Note_off_c, 2, 64, 0
4, 251024, Note_off_c, 2, 61, 0
4, 251136, Note_on_c, 2, 77, 65
4, 251136, Note_on_c, 2, 65, 65
4, 251136, Note_on_c, 2, 62, 65
4, 251216, Note_off_c, 2, 77, 0
4, 251216, Note_off_c, 2, 65, 0
4, 251216, Note_off_c, 2, 62, 0
4, 251328, Note_on_c, 2, 76, 65
4, 251328, Note_on_c, 2, 64, 65
4, 251328, Note_on_c, 2, 61, 65
4, 251408, Note_off_c, 2, 76, 0
4, 251408, Note_off_c, 2, 64, 0
4, 251408, Note_off_c, 2, 61, 0
4, 251520, Note_on_c, 2, 62, 65
4, 251520, Note_on_c, 2, 77, 65
4, 251520, Note_on_c, 2, 65, 65
4, 251600, Note_off_c, 2, 62, 0
4, 251600, Note_off_c, 2, 77, 0
4, 251600, Note_off_c, 2, 65, 0
4, 251712, Note_on_c, 2, 75, 65
4, 251712, Note_on_c, 2, 59, 65
4, 251712, Note_on_c, 2, 63, 65
4, 251792, Note_off_c, 2, 75, 0
4, 251792, Note_off_c, 2, 59, 0
4, 251792, Note_off_c, 2, 63, 0
4, 251904, Note_on_c, 2, 76, 65
4, 251904, Note_on_c, 2, 64, 65
4, 251904, Note_on_c, 2, 60, 65
4, 252224, Note_off_c, 2, 76, 0
4, 252224, Note_off_c, 2, 64, 0
4, 252224, Note_off_c, 2, 60, 0
4, 252288, Note_on_c, 2, 88, 73
4, 252288, Note_on_c, 2, 76, 65
4, 252448, Note_off_c, 2, 88, 0
4, 252448, Note_off_c, 2, 76, 0
4, 252672, Note_on_c, 2, 81, 69
4, 252672, Note_on_c, 2, 69, 65
4, 253760, Note_off_c, 2, 81, 0
4, 253760, Note_off_c, 2, 69, 0
4, 253824, Note_on_c, 2, 80, 65
4, 253824, Note_on_c, 2, 68, 65
4, 254108, Note_off_c, 2, 80, 0
4, 254108, Note_off_c, 2, 68, 0
4, 254112, Note_on_c, 2, 81, 65
4, 254112, Note_on_c, 2, 69, 65
4, 254192, Note_off_c, 2, 81, 0
4, 254192, Note_off_c, 2, 69, 0
4, 254208, Note_on_c, 2, 83, 68
4, 254208, Note_on_c, 2, 71, 65
4, 254588, Note_off_c, 2, 83, 0
4, 254588, Note_off_c, 2, 71, 0
4, 254592, Note_on_c, 2, 76, 65
4, 254912, Note_off_c, 2, 76, 0
4, 254976, Note_on_c, 2, 84, 71
4, 254976, Note_on_c, 2, 72, 65
4, 255296, Note_off_c, 2, 84, 0
4, 255296, Note_off_c, 2, 72, 0
4, 258432, Note_on_c, 2, 69, 65
4, 258812, Note_off_c, 2, 69, 0
4, 258816, Note_on_c, 2, 62, 65
4, 259744, Note_off_c, 2, 62, 0
4, 259776, Note_on_c, 2, 64, 65
4, 259868, Note_off_c, 2, 64, 0
4, 259872, Note_on_c, 2, 62, 65
4, 259964, Note_off_c, 2, 62, 0
4, 259968, Note_on_c, 2, 61, 65
4, 260208, Note_off_c, 2, 61, 0
4, 260256, Note_on_c, 2, 62, 65
4, 260336, Note_off_c, 2, 62, 0
4, 260352, Note_on_c, 2, 64, 65
4, 260732, Note_off_c, 2, 64, 0
4, 260736, Note_on_c, 2, 57, 65
4, 261056, Note_off_c, 2, 57, 0
4, 261120, Note_on_c, 2, 65, 65
4, 261440, Note_off_c, 2, 65, 0
4, 261504, Note_on_c, 2, 62, 65
4, 261824, Note_off_c, 2, 62, 0
4, 261888, Note_on_c, 2, 77, 65
4, 262976, Note_off_c, 2, 77, 0
4, 263040, Note_on_c, 2, 67, 65
4, 263040, Note_on_c, 2, 76, 65
4, 263324, Note_off_c, 2, 67, 0
4, 263324, Note_off_c, 2, 76, 0
4, 263328, Note_on_c, 2, 77, 65
4, 263408, Note_off_c, 2, 77, 0
4, 263424, Note_on_c, 2, 79, 65
4, 263424, Note_on_c, 2, 86, 70
4, 263804, Note_off_c, 2, 79, 0
4, 263808, Note_on_c, 2, 74, 65
4, 264128, Note_off_c, 2, 74, 0
4, 264192, Note_on_c, 2, 76, 65
4, 264512, Note_off_c, 2, 76, 0
4, 264512, Note_off_c, 2, 86, 0
4, 264576, Note_on_c, 2, 84, 69
4, 264860, Note_off_c, 2, 84, 0
4, 264864, Note_on_c, 2, 86, 70
4, 264944, Note_off_c, 2, 86, 0
4, 264960, Note_on_c, 2, 88, 72
4, 264960, Note_on_c, 2, 76, 65
4, 265340, Note_off_c, 2, 88, 0
4, 265344, Note_on_c, 2, 83, 65
4, 265664, Note_off_c, 2, 83, 0
4, 265728, Note_on_c, 2, 84, 69
4, 266048, Note_off_c, 2, 84, 0
4, 266048, Note_off_c, 2, 76, 0
4, 266112, Note_on_c, 2, 74, 65
4, 266396, Note_off_c, 2, 74, 0
4, 266400, Note_on_c, 2, 76, 65
4, 266484, Note_off_c, 2, 76, 0
4, 266496, Note_on_c, 2, 77, 65
4, 266496, Note_on_c, 2, 84, 69
4, 266816, Note_off_c, 2, 77, 0
4, 266880, Note_on_c, 2, 72, 65
4, 267200, Note_off_c, 2, 72, 0
4, 267264, Note_on_c, 2, 74, 65
4, 267584, Note_off_c, 2, 74, 0
4, 267584, Note_off_c, 2, 84, 64
4, 267648, Note_on_c, 2, 83, 65
4, 267932, Note_off_c, 2, 83, 0
4, 267936, Note_on_c, 2, 84, 65
4, 268016, Note_off_c, 2, 84, 0
4, 268032, Note_on_c, 2, 86, 71
4, 268032, Note_on_c, 2, 74, 65
4, 268412, Note_off_c, 2, 86, 0
4, 268416, Note_on_c, 2, 81, 65
4, 268736, Note_off_c, 2, 81, 0
4, 268800, Note_on_c, 2, 83, 68
4, 269120, Note_off_c, 2, 83, 0
4, 269120, Note_off_c, 2, 74, 0
4, 269184, Note_on_c, 2, 72, 65
4, 269468, Note_off_c, 2, 72, 0
4, 269472, Note_on_c, 2, 74, 65
4, 269552, Note_off_c, 2, 74, 0
4, 269568, Note_on_c, 2, 76, 65
4, 269568, Note_on_c, 2, 83, 69
4, 269948, Note_off_c, 2, 76, 0
4, 269952, Note_on_c, 2, 71, 65
4, 270272, Note_off_c, 2, 71, 0
4, 270336, Note_on_c, 2, 72, 65
4, 270656, Note_off_c, 2, 72, 0
4, 270656, Note_off_c, 2, 83, 0
4, 270720, Note_on_c, 2, 81, 65
4, 271004, Note_off_c, 2, 81, 0
4, 271008, Note_on_c, 2, 83, 68
4, 271088, Note_off_c, 2, 83, 0
4, 271104, Note_on_c, 2, 84, 68
4, 271104, Note_on_c, 2, 72, 65
4, 271484, Note_off_c, 2, 84, 0
4, 271488, Note_on_c, 2, 80, 65
4, 271808, Note_off_c, 2, 80, 0
4, 271872, Note_on_c, 2, 81, 67
4, 272192, Note_off_c, 2, 72, 0
4, 272256, Note_on_c, 2, 73, 65
4, 272636, Note_off_c, 2, 73, 0
4, 272640, Note_on_c, 2, 74, 65
4, 273020, Note_off_c, 2, 74, 0
4, 273024, Note_on_c, 2, 75, 65
4, 273404, Note_off_c, 2, 81, 0
4, 273404, Note_off_c, 2, 75, 0
4, 273408, Note_on_c, 2, 80, 65
4, 273408, Note_on_c, 2, 76, 65
4, 273728, Note_off_c, 2, 80, 0
4, 273728, Note_off_c, 2, 76, 0
4, 273792, Note_on_c, 2, 76, 65
4, 274172, Note_off_c, 2, 76, 0
4, 274176, Note_on_c, 2, 77, 65
4, 274560, Note_on_c, 2, 72, 65
4, 274560, Note_on_c, 2, 69, 65
4, 274880, Note_off_c, 2, 72, 0
4, 274880, Note_off_c, 2, 69, 0
4, 274944, Note_on_c, 2, 71, 65
4, 274944, Note_on_c, 2, 68, 65
4, 275264, Note_off_c, 2, 71, 0
4, 275264, Note_off_c, 2, 68, 0
4, 275264, Note_off_c, 2, 77, 0
4, 275328, Note_on_c, 2, 65, 65
4, 275328, Note_on_c, 2, 69, 65
4, 275328, Note_on_c, 2, 74, 65
4, 275612, Note_off_c, 2, 69, 0
4, 275612, Note_off_c, 2, 74, 0
4, 275616, Note_on_c, 2, 72, 65
4, 275708, Note_off_c, 2, 72, 0
4, 275712, Note_on_c, 2, 71, 65
4, 275712, Note_on_c, 2, 68, 65
4, 275972, Note_off_c, 2, 65, 0
4, 276092, Note_off_c, 2, 71, 0
4, 276096, Note_on_c, 2, 76, 65
4, 276096, Note_on_c, 2, 64, 65
4, 276380, Note_off_c, 2, 64, 0
4, 276384, Note_on_c, 2, 62, 65
4, 276416, Note_off_c, 2, 68, 0
4, 276416, Note_off_c, 2, 76, 0
4, 276476, Note_off_c, 2, 62, 0
4, 276480, Note_on_c, 2, 69, 65
4, 276480, Note_on_c, 2, 60, 65
4, 276860, Note_off_c, 2, 69, 0
4, 276860, Note_off_c, 2, 60, 0
4, 276864, Note_on_c, 2, 75, 65
4, 276864, Note_on_c, 2, 71, 65
4, 277244, Note_off_c, 2, 75, 0
4, 277244, Note_off_c, 2, 71, 0
4, 277248, Note_on_c, 2, 76, 65
4, 277248, Note_on_c, 2, 72, 65
4, 278336, Note_off_c, 2, 76, 64
4, 278336, Note_off_c, 2, 72, 64
4, 278400, Note_on_c, 2, 76, 65
4, 278780, Note_off_c, 2, 76, 0
4, 278784, Note_on_c, 2, 88, 73
4, 278784, Note_on_c, 2, 76, 65
4, 279428, Note_off_c, 2, 76, 64
4, 279872, Note_off_c, 2, 88, 64
4, 279936, Note_on_c, 2, 76, 65
4, 280316, Note_off_c, 2, 76, 0
4, 280320, Note_on_c, 2, 77, 65
4, 280704, Note_on_c, 2, 72, 65
4, 280704, Note_on_c, 2, 69, 65
4, 281084, Note_off_c, 2, 72, 0
4, 281084, Note_off_c, 2, 69, 0
4, 281088, Note_on_c, 2, 71, 65
4, 281088, Note_on_c, 2, 68, 65
4, 281408, Note_off_c, 2, 71, 0
4, 281408, Note_off_c, 2, 68, 0
4, 281408, Note_off_c, 2, 77, 0
4, 281472, Note_on_c, 2, 65, 65
4, 281472, Note_on_c, 2, 74, 65
4, 281756, Note_off_c, 2, 74, 0
4, 281760, Note_on_c, 2, 72, 65
4, 281840, Note_off_c, 2, 72, 0
4, 281856, Note_on_c, 2, 71, 65
4, 281856, Note_on_c, 2, 68, 65
4, 282116, Note_off_c, 2, 65, 0
4, 282176, Note_off_c, 2, 71, 0
4, 282240, Note_on_c, 2, 76, 65
4, 282240, Note_on_c, 2, 64, 65
4, 282524, Note_off_c, 2, 64, 0
4, 282528, Note_on_c, 2, 62, 65
4, 282560, Note_off_c, 2, 68, 0
4, 282560, Note_off_c, 2, 76, 0
4, 282620, Note_off_c, 2, 62, 0
4, 282624, Note_on_c, 2, 69, 65
4, 282624, Note_on_c, 2, 60, 65
4, 282944, Note_off_c, 2, 69, 0
4, 282944, Note_off_c, 2, 60, 0
4, 283008, Note_on_c, 2, 71, 65
4, 283008, Note_on_c, 2, 75, 65
4, 283388, Note_off_c, 2, 71, 0
4, 283388, Note_off_c, 2, 75, 0
4, 283392, Note_on_c, 2, 76, 65
4, 283392, Note_on_c, 2, 72, 65
4, 284156, Note_off_c, 2, 76, 0
4, 284156, Note_off_c, 2, 72, 0
4, 284160, Note_on_c, 2, 76, 65
4, 284160, Note_on_c, 2, 73, 65
4, 284480, Note_off_c, 2, 76, 0
4, 284480, Note_off_c, 2, 73, 0
4, 284544, Note_on_c, 2, 76, 65
4, 284924, Note_off_c, 2, 76, 0
4, 284928, Note_on_c, 2, 76, 65
4, 284928, Note_on_c, 2, 88, 73
4, 285692, Note_off_c, 2, 76, 0
4, 285696, Note_on_c, 2, 83, 65
4, 285696, Note_on_c, 2, 80, 65
4, 285696, Note_on_c, 2, 76, 65
4, 286016, Note_off_c, 2, 83, 0
4, 286016, Note_off_c, 2, 80, 0
4, 286016, Note_off_c, 2, 76, 0
4, 286016, Note_off_c, 2, 88, 0
4, 288768, Note_on_c, 2, 76, 65
4, 288768, Note_on_c, 2, 80, 65
4, 288768, Note_on_c, 2, 83, 65
4, 288768, Note_on_c, 2, 88, 71
4, 289148, Note_off_c, 2, 76, 0
4, 289148, Note_off_c, 2, 80, 0
4, 289148, Note_off_c, 2, 83, 0
4, 289148, Note_off_c, 2, 88, 0
4, 289152, Note_on_c, 2, 75, 65
4, 289152, Note_on_c, 2, 87, 70
4, 289532, Note_off_c, 2, 75, 0
4, 289532, Note_off_c, 2, 87, 0
4, 289536, Note_on_c, 2, 76, 65
4, 289536, Note_on_c, 2, 80, 65
4, 289536, Note_on_c, 2, 83, 65
4, 289536, Note_on_c, 2, 88, 70
4, 289916, Note_off_c, 2, 76, 0
4, 289916, Note_off_c, 2, 80, 0
4, 289916, Note_off_c, 2, 83, 0
4, 289916, Note_off_c, 2, 88, 0
4, 289920, Note_on_c, 2, 75, 65
4, 289920, Note_on_c, 2, 87, 71
4, 290300, Note_off_c, 2, 75, 0
4, 290300, Note_off_c, 2, 87, 0
4, 290304, Note_on_c, 2, 76, 65
4, 290304, Note_on_c, 2, 80, 65
4, 290304, Note_on_c, 2, 83, 65
4, 290304, Note_on_c, 2, 88, 71
4, 290624, Note_off_c, 2, 76, 0
4, 290624, Note_off_c, 2, 80, 0
4, 290624, Note_off_c, 2, 83, 0
4, 290624, Note_off_c, 2, 88, 0
4, 297984, Note_on_c, 2, 74, 65
4, 297984, Note_on_c, 2, 80, 67
4, 297984, Note_on_c, 2, 86, 71
4, 303940, Note_off_c, 2, 74, 0
4, 303940, Note_off_c, 2, 80, 0
4, 303940, Note_off_c, 2, 86, 0
4, 304128, Note_on_c, 2, 76, 65
4, 304128, Note_on_c, 2, 73, 65
4, 304128, Note_on_c, 2, 64, 65
4, 304892, Note_off_c, 2, 76, 0
4, 304892, Note_off_c, 2, 73, 0
4, 304892, Note_off_c, 2, 64, 0
4, 304896, Note_on_c, 2, 73, 65
4, 304896, Note_on_c, 2, 67, 65
4, 304896, Note_on_c, 2, 64, 65
4, 305540, Note_off_c, 2, 73, 0
4, 305540, Note_off_c, 2, 67, 0
4, 305540, Note_off_c, 2, 64, 0
4, 305664, Note_on_c, 2, 66, 65
4, 305664, Note_on_c, 2, 74, 65
4, 306044, Note_off_c, 2, 66, 0
4, 306048, Note_on_c, 2, 69, 65
4, 306236, Note_off_c, 2, 74, 0
4, 306240, Note_on_c, 2, 78, 65
4, 306368, Note_off_c, 2, 69, 0
4, 306400, Note_off_c, 2, 78, 0
4, 306432, Note_on_c, 2, 66, 65
4, 306432, Note_on_c, 2, 71, 65
4, 306620, Note_off_c, 2, 71, 0
4, 306624, Note_on_c, 2, 74, 65
4, 306752, Note_off_c, 2, 66, 0
4, 306784, Note_off_c, 2, 74, 0
4, 306816, Note_on_c, 2, 62, 65
4, 306816, Note_on_c, 2, 68, 65
4, 307004, Note_off_c, 2, 68, 0
4, 307008, Note_on_c, 2, 71, 65
4, 307136, Note_off_c, 2, 62, 0
4, 307168, Note_off_c, 2, 71, 0
4, 307200, Note_on_c, 2, 69, 65
4, 307200, Note_on_c, 2, 61, 65
4, 307580, Note_off_c, 2, 69, 0
4, 307580, Note_off_c, 2, 61, 0
4, 307584, Note_on_c, 2, 68, 65
4, 307584, Note_on_c, 2, 64, 65
4, 307964, Note_off_c, 2, 68, 0
4, 307964, Note_off_c, 2, 64, 0
4, 307968, Note_on_c, 2, 66, 65
4, 307968, Note_on_c, 2, 62, 65
4, 308348, Note_off_c, 2, 66, 0
4, 308348, Note_off_c, 2, 62, 0
4, 308352, Note_on_c, 2, 64, 65
4, 308352, Note_on_c, 2, 61, 65
4, 308672, Note_off_c, 2, 64, 0
4, 308672, Note_off_c, 2, 61, 0
4, 308736, Note_on_c, 2, 64, 65
4, 308736, Note_on_c, 2, 61, 65
4, 308736, Note_on_c, 2, 57, 65
4, 309308, Note_off_c, 2, 64, 0
4, 309308, Note_off_c, 2, 61, 0
4, 309308, Note_off_c, 2, 57, 0
4, 309312, Note_on_c, 2, 68, 65
4, 309312, Note_on_c, 2, 64, 65
4, 309404, Note_off_c, 2, 68, 0
4, 309404, Note_off_c, 2, 64, 0
4, 309408, Note_on_c, 2, 66, 65
4, 309408, Note_on_c, 2, 62, 65
4, 309500, Note_off_c, 2, 66, 0
4, 309500, Note_off_c, 2, 62, 0
4, 309504, Note_on_c, 2, 64, 65
4, 309504, Note_on_c, 2, 61, 65
4, 309824, Note_off_c, 2, 64, 0
4, 309824, Note_off_c, 2, 61, 0
4, 310272, Note_on_c, 2, 69, 65
4, 311200, Note_off_c, 2, 69, 0
4, 311232, Note_on_c, 2, 68, 65
4, 311392, Note_off_c, 2, 68, 0
4, 311424, Note_on_c, 2, 74, 65
4, 311584, Note_off_c, 2, 74, 0
4, 311616, Note_on_c, 2, 74, 65
4, 311696, Note_off_c, 2, 74, 0
4, 311808, Note_on_c, 2, 73, 65
4, 311808, Note_on_c, 2, 69, 65
4, 312736, Note_off_c, 2, 73, 0
4, 312736, Note_off_c, 2, 69, 0
4, 312768, Note_on_c, 2, 71, 65
4, 312768, Note_on_c, 2, 68, 65
4, 312956, Note_off_c, 2, 71, 0
4, 312956, Note_off_c, 2, 68, 0
4, 312960, Note_on_c, 2, 78, 65
4, 312960, Note_on_c, 2, 74, 65
4, 313120, Note_off_c, 2, 78, 0
4, 313120, Note_off_c, 2, 74, 0
4, 313152, Note_on_c, 2, 78, 65
4, 313152, Note_on_c, 2, 74, 65
4, 313232, Note_off_c, 2, 78, 0
4, 313232, Note_off_c, 2, 74, 0
4, 313344, Note_on_c, 2, 76, 65
4, 313344, Note_on_c, 2, 73, 65
4, 313344, Note_on_c, 2, 61, 65
4, 313344, Note_on_c, 2, 57, 65
4, 313424, Note_off_c, 2, 76, 0
4, 313424, Note_off_c, 2, 73, 0
4, 313424, Note_off_c, 2, 61, 0
4, 313424, Note_off_c, 2, 57, 0
4, 313536, Note_on_c, 2, 76, 65
4, 313536, Note_on_c, 2, 64, 65
4, 313536, Note_on_c, 2, 61, 65
4, 313616, Note_off_c, 2, 76, 0
4, 313616, Note_off_c, 2, 64, 0
4, 313616, Note_off_c, 2, 61, 0
4, 313728, Note_on_c, 2, 78, 65
4, 313728, Note_on_c, 2, 66, 65
4, 313728, Note_on_c, 2, 62, 65
4, 313808, Note_off_c, 2, 78, 0
4, 313808, Note_off_c, 2, 66, 0
4, 313808, Note_off_c, 2, 62, 0
4, 313920, Note_on_c, 2, 80, 65
4, 313920, Note_on_c, 2, 68, 65
4, 313920, Note_on_c, 2, 64, 65
4, 314000, Note_off_c, 2, 80, 0
4, 314000, Note_off_c, 2, 68, 0
4, 314000, Note_off_c, 2, 64, 0
4, 314112, Note_on_c, 2, 81, 65
4, 314112, Note_on_c, 2, 69, 65
4, 314112, Note_on_c, 2, 66, 65
4, 314192, Note_off_c, 2, 81, 0
4, 314192, Note_off_c, 2, 69, 0
4, 314192, Note_off_c, 2, 66, 0
4, 314304, Note_on_c, 2, 83, 65
4, 314304, Note_on_c, 2, 71, 65
4, 314304, Note_on_c, 2, 68, 65
4, 314384, Note_off_c, 2, 83, 0
4, 314384, Note_off_c, 2, 71, 0
4, 314384, Note_off_c, 2, 68, 0
4, 314496, Note_on_c, 2, 85, 69
4, 314496, Note_on_c, 2, 73, 65
4, 314496, Note_on_c, 2, 69, 65
4, 314576, Note_off_c, 2, 85, 0
4, 314576, Note_off_c, 2, 73, 0
4, 314576, Note_off_c, 2, 69, 0
4, 314688, Note_on_c, 2, 86, 70
4, 314688, Note_on_c, 2, 74, 65
4, 314688, Note_on_c, 2, 71, 65
4, 314768, Note_off_c, 2, 86, 0
4, 314768, Note_off_c, 2, 74, 0
4, 314768, Note_off_c, 2, 71, 0
4, 314880, Note_on_c, 2, 88, 71
4, 314880, Note_on_c, 2, 76, 65
4, 314880, Note_on_c, 2, 73, 65
4, 314880, Note_on_c, 2, 64, 65
4, 315068, Note_off_c, 2, 88, 0
4, 315068, Note_off_c, 2, 76, 0
4, 315068, Note_off_c, 2, 73, 64
4, 315072, Note_on_c, 2, 87, 70
4, 315072, Note_on_c, 2, 75, 65
4, 315072, Note_on_c, 2, 72, 65
4, 315260, Note_off_c, 2, 87, 0
4, 315260, Note_off_c, 2, 75, 0
4, 315260, Note_off_c, 2, 72, 64
4, 315264, Note_on_c, 2, 86, 70
4, 315264, Note_on_c, 2, 74, 65
4, 315264, Note_on_c, 2, 71, 65
4, 315452, Note_off_c, 2, 86, 0
4, 315452, Note_off_c, 2, 74, 0
4, 315452, Note_off_c, 2, 71, 64
4, 315456, Note_on_c, 2, 85, 68
4, 315456, Note_on_c, 2, 73, 65
4, 315456, Note_on_c, 2, 69, 65
4, 315524, Note_off_c, 2, 64, 64
4, 315644, Note_off_c, 2, 85, 0
4, 315644, Note_off_c, 2, 73, 0
4, 315644, Note_off_c, 2, 69, 64
4, 315648, Note_on_c, 2, 83, 67
4, 315648, Note_on_c, 2, 71, 65
4, 315648, Note_on_c, 2, 68, 65
4, 315648, Note_on_c, 2, 64, 65
4, 315808, Note_off_c, 2, 68, 64
4, 315808, Note_off_c, 2, 64, 64
4, 315968, Note_off_c, 2, 83, 0
4, 315968, Note_off_c, 2, 71, 0
4, 317952, Note_on_c, 2, 86, 71
4, 317952, Note_on_c, 2, 78, 65
4, 317952, Note_on_c, 2, 74, 65
4, 318716, Note_off_c, 2, 86, 0
4, 318720, Note_on_c, 2, 83, 68
4, 319100, Note_off_c, 2, 78, 0
4, 319100, Note_off_c, 2, 74, 0
4, 319100, Note_off_c, 2, 83, 0
4, 319104, Note_on_c, 2, 80, 65
4, 319104, Note_on_c, 2, 74, 65
4, 319104, Note_on_c, 2, 71, 65
4, 319424, Note_off_c, 2, 80, 0
4, 319424, Note_off_c, 2, 74, 0
4, 319424, Note_off_c, 2, 71, 0
4, 319488, Note_on_c, 2, 81, 65
4, 319488, Note_on_c, 2, 73, 65
4, 319868, Note_off_c, 2, 81, 0
4, 319868, Note_off_c, 2, 73, 0
4, 319872, Note_on_c, 2, 80, 65
4, 319872, Note_on_c, 2, 76, 65
4, 320252, Note_off_c, 2, 80, 0
4, 320252, Note_off_c, 2, 76, 0
4, 320256, Note_on_c, 2, 78, 65
4, 320256, Note_on_c, 2, 74, 65
4, 320636, Note_off_c, 2, 78, 0
4, 320636, Note_off_c, 2, 74, 0
4, 320640, Note_on_c, 2, 76, 65
4, 320640, Note_on_c, 2, 73, 65
4, 320960, Note_off_c, 2, 76, 0
4, 320960, Note_off_c, 2, 73, 0
4, 321024, Note_on_c, 2, 76, 65
4, 321024, Note_on_c, 2, 74, 65
4, 321024, Note_on_c, 2, 71, 65
4, 321024, Note_on_c, 2, 68, 65
4, 321308, Note_off_c, 2, 76, 0
4, 321600, Note_on_c, 2, 80, 65
4, 321692, Note_off_c, 2, 80, 0
4, 321696, Note_on_c, 2, 78, 65
4, 321788, Note_off_c, 2, 74, 0
4, 321788, Note_off_c, 2, 71, 0
4, 321788, Note_off_c, 2, 68, 0
4, 321788, Note_off_c, 2, 78, 0
4, 321792, Note_on_c, 2, 76, 65
4, 321792, Note_on_c, 2, 73, 65
4, 321792, Note_on_c, 2, 69, 65
4, 322112, Note_off_c, 2, 76, 0
4, 322112, Note_off_c, 2, 73, 0
4, 322112, Note_off_c, 2, 69, 0
4, 322560, Note_on_c, 2, 76, 65
4, 322560, Note_on_c, 2, 64, 65
4, 322560, Note_on_c, 2, 69, 65
4, 324092, Note_off_c, 2, 76, 0
4, 324092, Note_off_c, 2, 64, 0
4, 324092, Note_off_c, 2, 69, 0
4, 324096, Note_on_c, 2, 74, 65
4, 324096, Note_on_c, 2, 68, 65
4, 324096, Note_on_c, 2, 64, 65
4, 325444, Note_off_c, 2, 74, 0
4, 325444, Note_off_c, 2, 68, 0
4, 325632, Note_on_c, 2, 73, 65
4, 325632, Note_on_c, 2, 69, 65
4, 325792, Note_off_c, 2, 73, 0
4, 325792, Note_off_c, 2, 69, 0
4, 325792, Note_off_c, 2, 64, 0
4, 326016, Note_on_c, 2, 71, 65
4, 326016, Note_on_c, 2, 66, 65
4, 326016, Note_on_c, 2, 62, 65
4, 326176, Note_off_c, 2, 71, 0
4, 326176, Note_off_c, 2, 66, 0
4, 326176, Note_off_c, 2, 62, 0
4, 326400, Note_on_c, 2, 69, 65
4, 326400, Note_on_c, 2, 64, 65
4, 326400, Note_on_c, 2, 61, 65
4, 326560, Note_off_c, 2, 69, 0
4, 326560, Note_off_c, 2, 64, 0
4, 326560, Note_off_c, 2, 61, 0
4, 326784, Note_on_c, 2, 68, 65
4, 326784, Note_on_c, 2, 62, 65
4, 326784, Note_on_c, 2, 59, 65
4, 326944, Note_off_c, 2, 68, 0
4, 326944, Note_off_c, 2, 62, 0
4, 326944, Note_off_c, 2, 59, 0
4, 327168, Note_on_c, 2, 81, 90
4, 327168, Note_on_c, 2, 69, 90
4, 327488, Note_off_c, 2, 81, 0
4, 327488, Note_off_c, 2, 69, 0
4, 327552, Note_on_c, 2, 69, 100
4, 327836, Note_off_c, 2, 69, 0
4, 327840, Note_on_c, 2, 69, 100
4, 327920, Note_off_c, 2, 69, 0
4, 327936, Note_on_c, 2, 69, 100
4, 328124, Note_off_c, 2, 69, 0
4, 328128, Note_on_c, 2, 69, 90
4, 328128, Note_on_c, 2, 81, 90
4, 328316, Note_off_c, 2, 69, 0
4, 328316, Note_off_c, 2, 81, 0
4, 328320, Note_on_c, 2, 69, 90
4, 328320, Note_on_c, 2, 81, 90
4, 328508, Note_off_c, 2, 69, 0
4, 328508, Note_off_c, 2, 81, 0
4, 328512, Note_on_c, 2, 69, 90
4, 328512, Note_on_c, 2, 81, 90
4, 328700, Note_off_c, 2, 69, 0
4, 328700, Note_off_c, 2, 81, 0
4, 328704, Note_on_c, 2, 88, 96
4, 328704, Note_on_c, 2, 76, 90
4, 328892, Note_off_c, 2, 88, 0
4, 328892, Note_off_c, 2, 76, 0
4, 328896, Note_on_c, 2, 86, 95
4, 328896, Note_on_c, 2, 74, 90
4, 329056, Note_off_c, 2, 86, 0
4, 329056, Note_off_c, 2, 74, 0
4, 329088, Note_on_c, 2, 86, 95
4, 329088, Note_on_c, 2, 74, 90
4, 329572, Note_off_c, 2, 86, 0
4, 329572, Note_off_c, 2, 74, 0
4, 329664, Note_on_c, 2, 85, 94
4, 329664, Note_on_c, 2, 74, 90
4, 329824, Note_off_c, 2, 85, 0
4, 329824, Note_off_c, 2, 74, 0
4, 329856, Note_on_c, 2, 83, 92
4, 329856, Note_on_c, 2, 74, 90
4, 330016, Note_off_c, 2, 83, 0
4, 330016, Note_off_c, 2, 74, 0
4, 330048, Note_on_c, 2, 81, 90
4, 330048, Note_on_c, 2, 74, 90
4, 330208, Note_off_c, 2, 81, 0
4, 330208, Note_off_c, 2, 74, 0
4, 330240, Note_on_c, 2, 81, 90
4, 330240, Note_on_c, 2, 76, 90
4, 330240, Note_on_c, 2, 69, 90
4, 330428, Note_off_c, 2, 81, 0
4, 330428, Note_off_c, 2, 76, 0
4, 330428, Note_off_c, 2, 69, 0
4, 330432, Note_on_c, 2, 79, 90
4, 330620, Note_off_c, 2, 79, 0
4, 330624, Note_on_c, 2, 79, 90
4, 330624, Note_on_c, 2, 91, 98
4, 331108, Note_off_c, 2, 79, 0
4, 331108, Note_off_c, 2, 91, 0
4, 331200, Note_on_c, 2, 90, 97
4, 331200, Note_on_c, 2, 78, 90
4, 331360, Note_off_c, 2, 90, 0
4, 331360, Note_off_c, 2, 78, 0
4, 331392, Note_on_c, 2, 88, 96
4, 331392, Note_on_c, 2, 76, 90
4, 331552, Note_off_c, 2, 88, 0
4, 331552, Note_off_c, 2, 76, 0
4, 331584, Note_on_c, 2, 86, 95
4, 331584, Note_on_c, 2, 74, 90
4, 331744, Note_off_c, 2, 86, 0
4, 331744, Note_off_c, 2, 74, 0
4, 331776, Note_on_c, 2, 79, 90
4, 331776, Note_on_c, 2, 76, 90
4, 331776, Note_on_c, 2, 86, 95
4, 331964, Note_off_c, 2, 86, 0
4, 331968, Note_on_c, 2, 85, 90
4, 332096, Note_off_c, 2, 79, 0
4, 332096, Note_off_c, 2, 76, 0
4, 332128, Note_off_c, 2, 85, 0
4, 332160, Note_on_c, 2, 76, 90
4, 332160, Note_on_c, 2, 85, 90
4, 332160, Note_on_c, 2, 79, 90
4, 332644, Note_off_c, 2, 85, 0
4, 332736, Note_on_c, 2, 88, 96
4, 332804, Note_off_c, 2, 76, 0
4, 332804, Note_off_c, 2, 79, 0
4, 332816, Note_off_c, 2, 88, 0
4, 332928, Note_on_c, 2, 76, 90
4, 332928, Note_on_c, 2, 76, 90
4, 333116, Note_off_c, 2, 76, 64
4, 333120, Note_on_c, 2, 81, 90
4, 333248, Note_off_c, 2, 76, 0
4, 333280, Note_off_c, 2, 81, 0
4, 333312, Note_on_c, 2, 79, 90
4, 333312, Note_on_c, 2, 76, 90
4, 333312, Note_on_c, 2, 69, 90
4, 333500, Note_off_c, 2, 79, 0
4, 333500, Note_off_c, 2, 76, 0
4, 333504, Note_on_c, 2, 78, 90
4, 333504, Note_on_c, 2, 74, 90
4, 333664, Note_off_c, 2, 78, 0
4, 333664, Note_off_c, 2, 74, 0
4, 333696, Note_on_c, 2, 78, 90
4, 333696, Note_on_c, 2, 74, 90
4, 333956, Note_off_c, 2, 69, 0
4, 334016, Note_off_c, 2, 78, 0
4, 334016, Note_off_c, 2, 74, 0
4, 334848, Note_on_c, 2, 68, 65
4, 334848, Note_on_c, 2, 62, 65
4, 334848, Note_on_c, 2, 74, 65
4, 335996, Note_off_c, 2, 68, 0
4, 335996, Note_off_c, 2, 62, 0
4, 336000, Note_on_c, 2, 69, 65
4, 336000, Note_on_c, 2, 66, 65
4, 336320, Note_off_c, 2, 69, 0
4, 336320, Note_off_c, 2, 66, 0
4, 336384, Note_on_c, 2, 64, 65
4, 336384, Note_on_c, 2, 71, 65
4, 337796, Note_off_c, 2, 74, 0
4, 337796, Note_off_c, 2, 71, 0
4, 337920, Note_on_c, 2, 73, 65
4, 337920, Note_on_c, 2, 69, 65
4, 338564, Note_off_c, 2, 64, 0
4, 338688, Note_on_c, 2, 66, 65
4, 339332, Note_off_c, 2, 73, 0
4, 339456, Note_on_c, 2, 71, 65
4, 340992, Note_on_c, 2, 71, 65
4, 341476, Note_off_c, 2, 66, 0
4, 341636, Note_off_c, 2, 69, 0
4, 341756, Note_off_c, 2, 71, 0
4, 341760, Note_on_c, 2, 66, 65
4, 341760, Note_on_c, 2, 57, 65
4, 342244, Note_off_c, 2, 71, 0
4, 342404, Note_off_c, 2, 66, 0
4, 342404, Note_off_c, 2, 57, 0
4, 342528, Note_on_c, 2, 64, 90
4, 342528, Note_on_c, 2, 59, 90
4, 343172, Note_off_c, 2, 64, 0
4, 343172, Note_off_c, 2, 59, 0
4, 343296, Note_on_c, 2, 78, 65
4, 343296, Note_on_c, 2, 68, 65
4, 343456, Note_off_c, 2, 78, 0
4, 343456, Note_off_c, 2, 68, 0
4, 343680, Note_on_c, 2, 76, 65
4, 343680, Note_on_c, 2, 69, 65
4, 343840, Note_off_c, 2, 76, 0
4, 343840, Note_off_c, 2, 69, 0
4, 344064, Note_on_c, 2, 74, 65
4, 344064, Note_on_c, 2, 68, 65
4, 344224, Note_off_c, 2, 74, 0
4, 344224, Note_off_c, 2, 68, 0
4, 344448, Note_on_c, 2, 73, 65
4, 344448, Note_on_c, 2, 69, 65
4, 344608, Note_off_c, 2, 73, 0
4, 344608, Note_off_c, 2, 69, 0
4, 344832, Note_on_c, 2, 71, 65
4, 344832, Note_on_c, 2, 64, 65
4, 344992, Note_off_c, 2, 71, 0
4, 344992, Note_off_c, 2, 64, 0
4, 345216, Note_on_c, 2, 69, 65
4, 345216, Note_on_c, 2, 63, 65
4, 345376, Note_off_c, 2, 69, 0
4, 345376, Note_off_c, 2, 63, 0
4, 345600, Note_on_c, 2, 76, 65
4, 345600, Note_on_c, 2, 71, 65
4, 345600, Note_on_c, 2, 68, 65
4, 345600, Note_on_c, 2, 64, 65
4, 346244, Note_off_c, 2, 76, 0
4, 346244, Note_off_c, 2, 71, 0
4, 346244, Note_off_c, 2, 68, 0
4, 346244, Note_off_c, 2, 64, 0
4, 346368, Note_on_c, 2, 89, 72
4, 346368, Note_on_c, 2, 80, 65
4, 346368, Note_on_c, 2, 78, 65
4, 346528, Note_off_c, 2, 89, 0
4, 346528, Note_off_c, 2, 80, 0
4, 346528, Note_off_c, 2, 78, 0
4, 346752, Note_on_c, 2, 88, 71
4, 346752, Note_on_c, 2, 81, 65
4, 346752, Note_on_c, 2, 76, 65
4, 346912, Note_off_c, 2, 88, 0
4, 346912, Note_off_c, 2, 81, 0
4, 346912, Note_off_c, 2, 76, 0
4, 347136, Note_on_c, 2, 86, 70
4, 347136, Note_on_c, 2, 80, 65
4, 347136, Note_on_c, 2, 74, 65
4, 347296, Note_off_c, 2, 86, 0
4, 347296, Note_off_c, 2, 80, 0
4, 347296, Note_off_c, 2, 74, 0
4, 347520, Note_on_c, 2, 84, 69
4, 347520, Note_on_c, 2, 77, 65
4, 347520, Note_on_c, 2, 72, 65
4, 347680, Note_off_c, 2, 84, 0
4, 347680, Note_off_c, 2, 77, 0
4, 347680, Note_off_c, 2, 72, 0
4, 347904, Note_on_c, 2, 83, 68
4, 347904, Note_on_c, 2, 76, 65
4, 347904, Note_on_c, 2, 71, 65
4, 348064, Note_off_c, 2, 83, 0
4, 348064, Note_off_c, 2, 76, 0
4, 348064, Note_off_c, 2, 71, 0
4, 348288, Note_on_c, 2, 81, 67
4, 348288, Note_on_c, 2, 69, 65
4, 348288, Note_on_c, 2, 75, 65
4, 348448, Note_off_c, 2, 81, 0
4, 348448, Note_off_c, 2, 69, 0
4, 348448, Note_off_c, 2, 75, 0
4, 348672, Note_on_c, 2, 80, 65
4, 348672, Note_on_c, 2, 71, 65
4, 348672, Note_on_c, 2, 68, 65
4, 349436, Note_off_c, 2, 80, 0
4, 349436, Note_off_c, 2, 71, 0
4, 349436, Note_off_c, 2, 68, 0
4, 349440, Note_on_c, 2, 76, 65
4, 349440, Note_on_c, 2, 80, 65
4, 349440, Note_on_c, 2, 88, 71
4, 349924, Note_off_c, 2, 76, 0
4, 349924, Note_off_c, 2, 80, 0
4, 349924, Note_off_c, 2, 88, 0
4, 350016, Note_on_c, 2, 88, 71
4, 350016, Note_on_c, 2, 80, 65
4, 350016, Note_on_c, 2, 76, 65
4, 350176, Note_off_c, 2, 88, 0
4, 350176, Note_off_c, 2, 80, 0
4, 350176, Note_off_c, 2, 76, 0
4, 350208, Note_on_c, 2, 88, 71
4, 350208, Note_on_c, 2, 80, 65
4, 350208, Note_on_c, 2, 76, 65
4, 350368, Note_off_c, 2, 88, 0
4, 350368, Note_off_c, 2, 80, 0
4, 350368, Note_off_c, 2, 76, 0
4, 350592, Note_on_c, 2, 76, 65
4, 350752, Note_off_c, 2, 76, 0
4, 363648, Note_on_c, 2, 73, 65
4, 363836, Note_off_c, 2, 73, 0
4, 363840, Note_on_c, 2, 74, 65
4, 364000, Note_off_c, 2, 74, 0
4, 364032, Note_on_c, 2, 73, 65
4, 364032, Note_on_c, 2, 78, 65
4, 364220, Note_off_c, 2, 78, 0
4, 364224, Note_on_c, 2, 76, 65
4, 364384, Note_off_c, 2, 76, 0
4, 364416, Note_on_c, 2, 76, 65
4, 364656, Note_off_c, 2, 76, 0
4, 364704, Note_on_c, 2, 76, 65
4, 364784, Note_off_c, 2, 76, 0
4, 364796, Note_off_c, 2, 73, 0
4, 364800, Note_on_c, 2, 71, 65
4, 364800, Note_on_c, 2, 76, 65
4, 364960, Note_off_c, 2, 76, 0
4, 365184, Note_on_c, 2, 76, 65
4, 365344, Note_off_c, 2, 76, 0
4, 365444, Note_off_c, 2, 71, 0
4, 365568, Note_on_c, 2, 76, 80
4, 365568, Note_on_c, 2, 69, 80
4, 365756, Note_off_c, 2, 76, 0
4, 365760, Note_on_c, 2, 81, 80
4, 365948, Note_off_c, 2, 81, 0
4, 365952, Note_on_c, 2, 80, 80
4, 366140, Note_off_c, 2, 80, 0
4, 366144, Note_on_c, 2, 78, 80
4, 366332, Note_off_c, 2, 78, 0
4, 366336, Note_on_c, 2, 76, 78
4, 366524, Note_off_c, 2, 76, 0
4, 366528, Note_on_c, 2, 75, 75
4, 366716, Note_off_c, 2, 75, 0
4, 366720, Note_on_c, 2, 74, 71
4, 366908, Note_off_c, 2, 74, 0
4, 366912, Note_on_c, 2, 73, 67
4, 366916, Note_off_c, 2, 69, 0
4, 367072, Note_off_c, 2, 73, 0
4, 367104, Note_on_c, 2, 73, 65
4, 367104, Note_on_c, 2, 69, 65
4, 367292, Note_off_c, 2, 73, 0
4, 367296, Note_on_c, 2, 71, 65
4, 367456, Note_off_c, 2, 71, 0
4, 367488, Note_on_c, 2, 71, 65
4, 367728, Note_off_c, 2, 71, 0
4, 367776, Note_on_c, 2, 71, 65
4, 367856, Note_off_c, 2, 71, 0
4, 367872, Note_on_c, 2, 71, 65
4, 368032, Note_off_c, 2, 71, 0
4, 368256, Note_on_c, 2, 71, 65
4, 368416, Note_off_c, 2, 71, 0
4, 368452, Note_off_c, 2, 69, 0
4, 368640, Note_on_c, 2, 71, 80
4, 368828, Note_off_c, 2, 71, 0
4, 368832, Note_on_c, 2, 76, 78
4, 368832, Note_on_c, 2, 64, 78
4, 369020, Note_off_c, 2, 76, 0
4, 369020, Note_off_c, 2, 64, 0
4, 369024, Note_on_c, 2, 75, 76
4, 369024, Note_on_c, 2, 63, 76
4, 369212, Note_off_c, 2, 75, 0
4, 369212, Note_off_c, 2, 63, 0
4, 369216, Note_on_c, 2, 74, 74
4, 369216, Note_on_c, 2, 62, 74
4, 369404, Note_off_c, 2, 74, 0
4, 369404, Note_off_c, 2, 62, 0
4, 369408, Note_on_c, 2, 73, 72
4, 369408, Note_on_c, 2, 64, 72
4, 369596, Note_off_c, 2, 73, 0
4, 369600, Note_on_c, 2, 71, 70
4, 369788, Note_off_c, 2, 71, 0
4, 369792, Note_on_c, 2, 69, 68
4, 369980, Note_off_c, 2, 69, 0
4, 369984, Note_on_c, 2, 68, 66
4, 370144, Note_off_c, 2, 68, 0
4, 370172, Note_off_c, 2, 64, 0
4, 370176, Note_on_c, 2, 66, 65
4, 370364, Note_off_c, 2, 66, 0
4, 370368, Note_on_c, 2, 64, 65
4, 370528, Note_off_c, 2, 64, 0
4, 370560, Note_on_c, 2, 76, 65
4, 370560, Note_on_c, 2, 64, 65
4, 370800, Note_off_c, 2, 76, 0
4, 370800, Note_off_c, 2, 64, 0
4, 370848, Note_on_c, 2, 76, 65
4, 370848, Note_on_c, 2, 64, 65
4, 370928, Note_off_c, 2, 76, 0
4, 370928, Note_off_c, 2, 64, 0
4, 370944, Note_on_c, 2, 76, 65
4, 370944, Note_on_c, 2, 64, 65
4, 371324, Note_off_c, 2, 76, 0
4, 371324, Note_off_c, 2, 64, 0
4, 371328, Note_on_c, 2, 77, 65
4, 371328, Note_on_c, 2, 65, 65
4, 371648, Note_off_c, 2, 77, 0
4, 371648, Note_off_c, 2, 65, 64
4, 371712, Note_on_c, 2, 78, 65
4, 371712, Note_on_c, 2, 66, 65
4, 371900, Note_off_c, 2, 78, 0
4, 371900, Note_off_c, 2, 66, 0
4, 371904, Note_on_c, 2, 80, 65
4, 371904, Note_on_c, 2, 68, 65
4, 372092, Note_off_c, 2, 80, 0
4, 372092, Note_off_c, 2, 68, 0
4, 372096, Note_on_c, 2, 81, 65
4, 372096, Note_on_c, 2, 69, 65
4, 372284, Note_off_c, 2, 81, 0
4, 372284, Note_off_c, 2, 69, 0
4, 372288, Note_on_c, 2, 82, 65
4, 372288, Note_on_c, 2, 70, 65
4, 372476, Note_off_c, 2, 82, 0
4, 372476, Note_off_c, 2, 70, 0
4, 372480, Note_on_c, 2, 83, 68
4, 372480, Note_on_c, 2, 71, 65
4, 372668, Note_off_c, 2, 83, 0
4, 372668, Note_off_c, 2, 71, 0
4, 372672, Note_on_c, 2, 85, 69
4, 372672, Note_on_c, 2, 73, 65
4, 372860, Note_off_c, 2, 85, 0
4, 372860, Note_off_c, 2, 73, 0
4, 372864, Note_on_c, 2, 86, 70
4, 372864, Note_on_c, 2, 74, 65
4, 373052, Note_off_c, 2, 86, 0
4, 373052, Note_off_c, 2, 74, 0
4, 373056, Note_on_c, 2, 87, 70
4, 373056, Note_on_c, 2, 75, 65
4, 373216, Note_off_c, 2, 87, 0
4, 373216, Note_off_c, 2, 75, 0
4, 373248, Note_on_c, 2, 88, 71
4, 373248, Note_on_c, 2, 76, 65
4, 373436, Note_off_c, 2, 88, 0
4, 373436, Note_off_c, 2, 76, 0
4, 373440, Note_on_c, 2, 85, 69
4, 373440, Note_on_c, 2, 73, 65
4, 373600, Note_off_c, 2, 85, 0
4, 373600, Note_off_c, 2, 73, 0
4, 373632, Note_on_c, 2, 81, 67
4, 373632, Note_on_c, 2, 69, 65
4, 374204, Note_off_c, 2, 81, 0
4, 374204, Note_off_c, 2, 69, 0
4, 374208, Note_on_c, 2, 85, 69
4, 374208, Note_on_c, 2, 73, 65
4, 374396, Note_off_c, 2, 85, 0
4, 374396, Note_off_c, 2, 73, 0
4, 374400, Note_on_c, 2, 83, 68
4, 374400, Note_on_c, 2, 71, 65
4, 374588, Note_off_c, 2, 83, 0
4, 374588, Note_off_c, 2, 71, 0
4, 374592, Note_on_c, 2, 80, 67
4, 374592, Note_on_c, 2, 68, 65
4, 374780, Note_off_c, 2, 80, 0
4, 374780, Note_off_c, 2, 68, 0
4, 374784, Note_on_c, 2, 81, 65
4, 374784, Note_on_c, 2, 69, 65
4, 375164, Note_off_c, 2, 81, 0
4, 375164, Note_off_c, 2, 69, 0
4, 375168, Note_on_c, 2, 67, 65
4, 375168, Note_on_c, 2, 64, 65
4, 375548, Note_off_c, 2, 67, 0
4, 375548, Note_off_c, 2, 64, 0
4, 375552, Note_on_c, 2, 65, 65
4, 375552, Note_on_c, 2, 62, 65
4, 375932, Note_off_c, 2, 65, 0
4, 375932, Note_off_c, 2, 62, 0
4, 375936, Note_on_c, 2, 64, 65
4, 375936, Note_on_c, 2, 61, 65
4, 376256, Note_off_c, 2, 64, 0
4, 376256, Note_off_c, 2, 61, 0
4, 376320, Note_on_c, 2, 69, 65
4, 376320, Note_on_c, 2, 65, 65
4, 376700, Note_off_c, 2, 69, 0
4, 376700, Note_off_c, 2, 65, 0
4, 376704, Note_on_c, 2, 67, 65
4, 376704, Note_on_c, 2, 64, 65
4, 377024, Note_off_c, 2, 67, 0
4, 377024, Note_off_c, 2, 64, 0
4, 377088, Note_on_c, 2, 74, 65
4, 377088, Note_on_c, 2, 69, 65
4, 377088, Note_on_c, 2, 66, 65
4, 377468, Note_off_c, 2, 74, 0
4, 377468, Note_off_c, 2, 69, 0
4, 377468, Note_off_c, 2, 66, 0
4, 377472, Note_on_c, 2, 73, 65
4, 377472, Note_on_c, 2, 69, 65
4, 377472, Note_on_c, 2, 64, 65
4, 377632, Note_off_c, 2, 73, 0
4, 377632, Note_off_c, 2, 69, 0
4, 377632, Note_off_c, 2, 64, 0
4, 377856, Note_on_c, 2, 69, 65
4, 377856, Note_on_c, 2, 65, 65
4, 378236, Note_off_c, 2, 69, 0
4, 378236, Note_off_c, 2, 65, 0
4, 378240, Note_on_c, 2, 67, 65
4, 378240, Note_on_c, 2, 64, 65
4, 378560, Note_off_c, 2, 67, 0
4, 378560, Note_off_c, 2, 64, 0
4, 378624, Note_on_c, 2, 77, 65
4, 378624, Note_on_c, 2, 74, 65
4, 378624, Note_on_c, 2, 65, 65
4, 379004, Note_off_c, 2, 77, 0
4, 379004, Note_off_c, 2, 74, 0
4, 379004, Note_off_c, 2, 65, 0
4, 379008, Note_on_c, 2, 76, 65
4, 379008, Note_on_c, 2, 73, 65
4, 379008, Note_on_c, 2, 64, 65
4, 379168, Note_off_c, 2, 76, 0
4, 379168, Note_off_c, 2, 73, 0
4, 379168, Note_off_c, 2, 64, 0
4, 380928, Note_on_c, 2, 76, 65
4, 380928, Note_on_c, 2, 64, 65
4, 381308, Note_off_c, 2, 76, 0
4, 381308, Note_off_c, 2, 64, 0
4, 381312, Note_on_c, 2, 74, 65
4, 381312, Note_on_c, 2, 62, 65
4, 382076, Note_off_c, 2, 74, 0
4, 382076, Note_off_c, 2, 62, 0
4, 382080, Note_on_c, 2, 73, 65
4, 382080, Note_on_c, 2, 61, 65
4, 382400, Note_off_c, 2, 73, 0
4, 382400, Note_off_c, 2, 61, 0
4, 382848, Note_on_c, 2, 71, 65
4, 382848, Note_on_c, 2, 62, 65
4, 383228, Note_off_c, 2, 71, 0
4, 383228, Note_off_c, 2, 62, 0
4, 383232, Note_on_c, 2, 69, 65
4, 383232, Note_on_c, 2, 61, 65
4, 383612, Note_off_c, 2, 69, 0
4, 383612, Note_off_c, 2, 61, 0
4, 383616, Note_on_c, 2, 68, 65
4, 383616, Note_on_c, 2, 59, 65
4, 383936, Note_off_c, 2, 68, 0
4, 383936, Note_off_c, 2, 59, 0
4, 384000, Note_on_c, 2, 69, 65
4, 384092, Note_off_c, 2, 69, 0
4, 384096, Note_on_c, 2, 68, 65
4, 384188, Note_off_c, 2, 68, 0
4, 384192, Note_on_c, 2, 69, 65
4, 384284, Note_off_c, 2, 69, 0
4, 384288, Note_on_c, 2, 71, 65
4, 384380, Note_off_c, 2, 71, 0
4, 384384, Note_on_c, 2, 73, 65
4, 384464, Note_off_c, 2, 73, 0
4, 384576, Note_on_c, 2, 73, 65
4, 384656, Note_off_c, 2, 73, 0
4, 384768, Note_on_c, 2, 73, 80
4, 385088, Note_off_c, 2, 73, 0
4, 385536, Note_on_c, 2, 69, 65
4, 385628, Note_off_c, 2, 69, 0
4, 385632, Note_on_c, 2, 68, 65
4, 385724, Note_off_c, 2, 68, 0
4, 385728, Note_on_c, 2, 69, 65
4, 385820, Note_off_c, 2, 69, 0
4, 385824, Note_on_c, 2, 71, 65
4, 385916, Note_off_c, 2, 71, 0
4, 385920, Note_on_c, 2, 73, 65
4, 386000, Note_off_c, 2, 73, 0
4, 386112, Note_on_c, 2, 73, 65
4, 386192, Note_off_c, 2, 73, 0
4, 386304, Note_on_c, 2, 73, 80
4, 386624, Note_off_c, 2, 73, 0
4, 387072, Note_on_c, 2, 69, 65
4, 387164, Note_off_c, 2, 69, 0
4, 387168, Note_on_c, 2, 68, 65
4, 387260, Note_off_c, 2, 68, 0
4, 387264, Note_on_c, 2, 69, 65
4, 387356, Note_off_c, 2, 69, 0
4, 387360, Note_on_c, 2, 71, 65
4, 387452, Note_off_c, 2, 71, 0
4, 387456, Note_on_c, 2, 73, 65
4, 387536, Note_off_c, 2, 73, 0
4, 387648, Note_on_c, 2, 73, 65
4, 387728, Note_off_c, 2, 73, 0
4, 387840, Note_on_c, 2, 73, 80
4, 388160, Note_off_c, 2, 73, 0
4, 388608, Note_on_c, 2, 69, 65
4, 388768, Note_off_c, 2, 69, 0
4, 388992, Note_on_c, 2, 69, 65
4, 388992, Note_on_c, 2, 81, 65
4, 389756, Note_off_c, 2, 69, 0
4, 389756, Note_off_c, 2, 81, 0
4, 389760, Note_on_c, 2, 79, 65
4, 389760, Note_on_c, 2, 67, 65
4, 390080, Note_off_c, 2, 79, 0
4, 390080, Note_off_c, 2, 67, 0
4, 390144, Note_on_c, 2, 78, 65
4, 390144, Note_on_c, 2, 66, 65
4, 390464, Note_off_c, 2, 78, 0
4, 390464, Note_off_c, 2, 66, 0
4, 391680, Note_on_c, 2, 76, 65
4, 391680, Note_on_c, 2, 64, 65
4, 392060, Note_off_c, 2, 76, 0
4, 392060, Note_off_c, 2, 64, 0
4, 392064, Note_on_c, 2, 62, 65
4, 392064, Note_on_c, 2, 74, 65
4, 392828, Note_off_c, 2, 62, 0
4, 392828, Note_off_c, 2, 74, 0
4, 392832, Note_on_c, 2, 73, 65
4, 392832, Note_on_c, 2, 61, 65
4, 393152, Note_off_c, 2, 73, 0
4, 393152, Note_off_c, 2, 61, 0
4, 393600, Note_on_c, 2, 71, 65
4, 393600, Note_on_c, 2, 62, 65
4, 393980, Note_off_c, 2, 71, 0
4, 393980, Note_off_c, 2, 62, 0
4, 393984, Note_on_c, 2, 69, 65
4, 393984, Note_on_c, 2, 61, 65
4, 394364, Note_off_c, 2, 69, 0
4, 394364, Note_off_c, 2, 61, 0
4, 394368, Note_on_c, 2, 68, 65
4, 394368, Note_on_c, 2, 59, 65
4, 394688, Note_off_c, 2, 68, 0
4, 394688, Note_off_c, 2, 59, 0
4, 394752, Note_on_c, 2, 76, 90
4, 394752, Note_on_c, 2, 71, 90
4, 394752, Note_on_c, 2, 64, 90
4, 395132, Note_off_c, 2, 76, 0
4, 395132, Note_off_c, 2, 71, 0
4, 395132, Note_off_c, 2, 64, 0
4, 395136, Note_on_c, 2, 74, 90
4, 395136, Note_on_c, 2, 62, 90
4, 395136, Note_on_c, 2, 71, 90
4, 395900, Note_off_c, 2, 74, 0
4, 395900, Note_off_c, 2, 62, 0
4, 395900, Note_off_c, 2, 71, 0
4, 395904, Note_on_c, 2, 61, 90
4, 395904, Note_on_c, 2, 69, 90
4, 395904, Note_on_c, 2, 73, 90
4, 396224, Note_off_c, 2, 61, 0
4, 396224, Note_off_c, 2, 69, 0
4, 396224, Note_off_c, 2, 73, 0
4, 396288, Note_on_c, 2, 88, 96
4, 396288, Note_on_c, 2, 83, 90
4, 396288, Note_on_c, 2, 76, 90
4, 396668, Note_off_c, 2, 88, 0
4, 396668, Note_off_c, 2, 83, 0
4, 396668, Note_off_c, 2, 76, 0
4, 396672, Note_on_c, 2, 83, 90
4, 396672, Note_on_c, 2, 86, 95
4, 396672, Note_on_c, 2, 74, 90
4, 397436, Note_off_c, 2, 83, 0
4, 397436, Note_off_c, 2, 86, 0
4, 397436, Note_off_c, 2, 74, 0
4, 397440, Note_on_c, 2, 81, 90
4, 397440, Note_on_c, 2, 85, 94
4, 397440, Note_on_c, 2, 73, 90
4, 397820, Note_off_c, 2, 81, 0
4, 397820, Note_off_c, 2, 85, 0
4, 397820, Note_off_c, 2, 73, 0
4, 397824, Note_on_c, 2, 66, 91
4, 397824, Note_on_c, 2, 62, 91
4, 398016, Note_on_c, 2, 69, 91
4, 398204, Note_off_c, 2, 69, 0
4, 398208, Note_on_c, 2, 71, 92
4, 398308, Note_off_c, 2, 66, 0
4, 398308, Note_off_c, 2, 62, 0
4, 398400, Note_on_c, 2, 66, 92
4, 398400, Note_on_c, 2, 62, 92
4, 398588, Note_off_c, 2, 66, 0
4, 398588, Note_off_c, 2, 62, 0
4, 398592, Note_on_c, 2, 64, 93
4, 398592, Note_on_c, 2, 68, 93
4, 398692, Note_off_c, 2, 71, 0
4, 398784, Note_on_c, 2, 71, 93
4, 398972, Note_off_c, 2, 71, 0
4, 398976, Note_on_c, 2, 73, 94
4, 399076, Note_off_c, 2, 64, 0
4, 399076, Note_off_c, 2, 68, 0
4, 399168, Note_on_c, 2, 68, 94
4, 399168, Note_on_c, 2, 64, 94
4, 399356, Note_off_c, 2, 73, 0
4, 399356, Note_off_c, 2, 68, 0
4, 399356, Note_off_c, 2, 64, 0
4, 399360, Note_on_c, 2, 69, 95
4, 399360, Note_on_c, 2, 66, 95
4, 399360, Note_on_c, 2, 73, 95
4, 399520, Note_off_c, 2, 73, 0
4, 399552, Note_on_c, 2, 73, 96
4, 399740, Note_off_c, 2, 73, 0
4, 399744, Note_on_c, 2, 74, 96
4, 399844, Note_off_c, 2, 69, 0
4, 399844, Note_off_c, 2, 66, 0
4, 399936, Note_on_c, 2, 69, 97
4, 399936, Note_on_c, 2, 66, 97
4, 400124, Note_off_c, 2, 69, 0
4, 400124, Note_off_c, 2, 66, 0
4, 400128, Note_on_c, 2, 71, 97
4, 400128, Note_on_c, 2, 68, 97
4, 400388, Note_off_c, 2, 74, 0
4, 400512, Note_on_c, 2, 76, 98
4, 400772, Note_off_c, 2, 71, 0
4, 400772, Note_off_c, 2, 68, 0
4, 400832, Note_off_c, 2, 76, 0
4, 410880, Note_on_c, 2, 73, 75
4, 410880, Note_on_c, 2, 64, 75
4, 411968, Note_off_c, 2, 73, 0
4, 411968, Note_off_c, 2, 64, 0
4, 412032, Note_on_c, 2, 62, 65
4, 412032, Note_on_c, 2, 71, 65
4, 412316, Note_off_c, 2, 62, 0
4, 412316, Note_off_c, 2, 71, 0
4, 412320, Note_on_c, 2, 73, 65
4, 412320, Note_on_c, 2, 64, 65
4, 412412, Note_off_c, 2, 73, 0
4, 412412, Note_off_c, 2, 64, 0
4, 412416, Note_on_c, 2, 74, 65
4, 412416, Note_on_c, 2, 66, 65
4, 412796, Note_off_c, 2, 74, 0
4, 412796, Note_off_c, 2, 66, 0
4, 412800, Note_on_c, 2, 71, 65
4, 412800, Note_on_c, 2, 62, 65
4, 413120, Note_off_c, 2, 71, 0
4, 413120, Note_off_c, 2, 62, 0
4, 413184, Note_on_c, 2, 68, 65
4, 413184, Note_on_c, 2, 64, 65
4, 413564, Note_off_c, 2, 68, 0
4, 413564, Note_off_c, 2, 64, 0
4, 413568, Note_on_c, 2, 64, 65
4, 413568, Note_on_c, 2, 59, 65
4, 413888, Note_off_c, 2, 64, 0
4, 413948, Note_off_c, 2, 59, 0
4, 413952, Note_on_c, 2, 64, 65
4, 413952, Note_on_c, 2, 76, 75
4, 414332, Note_off_c, 2, 64, 0
4, 414336, Note_on_c, 2, 73, 65
4, 414656, Note_off_c, 2, 73, 0
4, 414720, Note_on_c, 2, 69, 65
4, 415040, Note_off_c, 2, 76, 0
4, 415104, Note_on_c, 2, 81, 75
4, 415388, Note_off_c, 2, 81, 0
4, 415392, Note_on_c, 2, 78, 65
4, 415472, Note_off_c, 2, 78, 0
4, 415488, Note_on_c, 2, 74, 65
4, 415684, Note_off_c, 2, 69, 0
4, 415872, Note_on_c, 2, 71, 65
4, 416192, Note_off_c, 2, 71, 0
4, 416256, Note_on_c, 2, 68, 65
4, 416576, Note_off_c, 2, 74, 0
4, 416636, Note_off_c, 2, 68, 0
4, 416640, Note_on_c, 2, 69, 65
4, 416640, Note_on_c, 2, 73, 65
4, 416960, Note_off_c, 2, 69, 0
4, 417024, Note_on_c, 2, 66, 65
4, 417404, Note_off_c, 2, 73, 0
4, 417408, Note_on_c, 2, 71, 65
4, 417668, Note_off_c, 2, 66, 0
4, 417692, Note_off_c, 2, 71, 0
4, 417696, Note_on_c, 2, 69, 65
4, 417776, Note_off_c, 2, 69, 0
4, 417792, Note_on_c, 2, 64, 65
4, 417792, Note_on_c, 2, 68, 65
4, 418112, Note_off_c, 2, 64, 0
4, 418112, Note_off_c, 2, 68, 0
4, 418172, Note_on_c, 2, 71, 65
4, 418176, Note_on_c, 2, 71, 65
4, 418456, Note_off_c, 2, 71, 0
4, 418464, Note_on_c, 2, 64, 65
4, 418544, Note_off_c, 2, 64, 0
4, 418556, Note_off_c, 2, 71, 0
4, 418560, Note_on_c, 2, 73, 65
4, 418944, Note_on_c, 2, 69, 65
4, 419204, Note_off_c, 2, 73, 0
4, 419228, Note_off_c, 2, 69, 0
4, 419232, Note_on_c, 2, 64, 65
4, 419312, Note_off_c, 2, 64, 0
4, 419328, Note_on_c, 2, 74, 65
4, 419328, Note_on_c, 2, 73, 65
4, 419648, Note_off_c, 2, 73, 0
4, 419712, Note_on_c, 2, 71, 65
4, 419972, Note_off_c, 2, 74, 0
4, 419996, Note_off_c, 2, 71, 0
4, 420000, Note_on_c, 2, 64, 65
4, 420080, Note_off_c, 2, 64, 0
4, 420096, Note_on_c, 2, 76, 65
4, 420096, Note_on_c, 2, 64, 65
4, 420416, Note_off_c, 2, 64, 0
4, 420480, Note_on_c, 2, 73, 65
4, 420740, Note_off_c, 2, 76, 0
4, 420764, Note_off_c, 2, 73, 0
4, 420768, Note_on_c, 2, 69, 65
4, 420848, Note_off_c, 2, 69, 0
4, 420864, Note_on_c, 2, 78, 65
4, 420864, Note_on_c, 2, 76, 65
4, 421184, Note_off_c, 2, 76, 0
4, 421248, Note_on_c, 2, 74, 65
4, 421532, Note_off_c, 2, 74, 0
4, 421536, Note_on_c, 2, 71, 65
4, 421628, Note_off_c, 2, 78, 0
4, 421628, Note_off_c, 2, 71, 0
4, 421632, Note_on_c, 2, 80, 65
4, 421632, Note_on_c, 2, 68, 65
4, 422016, Note_on_c, 2, 76, 65
4, 422276, Note_off_c, 2, 80, 0
4, 422276, Note_off_c, 2, 68, 0
4, 422300, Note_off_c, 2, 76, 0
4, 422304, Note_on_c, 2, 74, 65
4, 422396, Note_off_c, 2, 74, 0
4, 422400, Note_on_c, 2, 81, 65
4, 422400, Note_on_c, 2, 73, 65
4, 422400, Note_on_c, 2, 69, 65
4, 422720, Note_off_c, 2, 81, 0
4, 422720, Note_off_c, 2, 73, 0
4, 422720, Note_off_c, 2, 69, 0
4, 423936, Note_on_c, 2, 67, 65
4, 423936, Note_on_c, 2, 64, 65
4, 423936, Note_on_c, 2, 57, 65
4, 425468, Note_off_c, 2, 67, 0
4, 425468, Note_off_c, 2, 64, 0
4, 425472, Note_on_c, 2, 66, 65
4, 425472, Note_on_c, 2, 62, 65
4, 425792, Note_off_c, 2, 66, 0
4, 425792, Note_off_c, 2, 62, 0
4, 425792, Note_off_c, 2, 57, 0
4, 427008, Note_on_c, 2, 72, 65
4, 427008, Note_on_c, 2, 69, 65
4, 427008, Note_on_c, 2, 66, 65
4, 428864, Note_off_c, 2, 72, 0
4, 428864, Note_off_c, 2, 69, 0
4, 428864, Note_off_c, 2, 66, 0
4, 428928, Note_on_c, 2, 74, 65
4, 429116, Note_off_c, 2, 74, 0
4, 429120, Note_on_c, 2, 71, 65
4, 429308, Note_off_c, 2, 71, 0
4, 429312, Note_on_c, 2, 73, 65
4, 429500, Note_off_c, 2, 73, 0
4, 429504, Note_on_c, 2, 68, 65
4, 429692, Note_off_c, 2, 68, 0
4, 429696, Note_on_c, 2, 69, 65
4, 429884, Note_off_c, 2, 69, 0
4, 429888, Note_on_c, 2, 71, 65
4, 430076, Note_off_c, 2, 71, 0
4, 430080, Note_on_c, 2, 73, 65
4, 430268, Note_off_c, 2, 73, 0
4, 430464, Note_on_c, 2, 74, 65
4, 430544, Note_off_c, 2, 74, 0
4, 430656, Note_on_c, 2, 71, 65
4, 430736, Note_off_c, 2, 71, 0
4, 430848, Note_on_c, 2, 73, 65
4, 430928, Note_off_c, 2, 73, 0
4, 431040, Note_on_c, 2, 68, 65
4, 431040, Note_on_c, 2, 80, 65
4, 431120, Note_off_c, 2, 68, 0
4, 431120, Note_off_c, 2, 80, 0
4, 431232, Note_on_c, 2, 81, 65
4, 431232, Note_on_c, 2, 69, 65
4, 431312, Note_off_c, 2, 81, 0
4, 431312, Note_off_c, 2, 69, 0
4, 431424, Note_on_c, 2, 83, 68
4, 431424, Note_on_c, 2, 71, 65
4, 431504, Note_off_c, 2, 83, 0
4, 431504, Note_off_c, 2, 71, 0
4, 431616, Note_on_c, 2, 85, 69
4, 431616, Note_on_c, 2, 73, 65
4, 431776, Note_off_c, 2, 85, 0
4, 431776, Note_off_c, 2, 73, 0
4, 433152, Note_on_c, 2, 64, 65
4, 433152, Note_on_c, 2, 69, 65
4, 433152, Note_on_c, 2, 73, 65
4, 433312, Note_off_c, 2, 64, 0
4, 433312, Note_off_c, 2, 69, 0
4, 433312, Note_off_c, 2, 73, 0
4, 433344, Note_on_c, 2, 73, 65
4, 433344, Note_on_c, 2, 69, 65
4, 433344, Note_on_c, 2, 64, 65
4, 433504, Note_off_c, 2, 73, 0
4, 433504, Note_off_c, 2, 69, 0
4, 433504, Note_off_c, 2, 64, 0
4, 433536, Note_on_c, 2, 73, 65
4, 433536, Note_on_c, 2, 69, 65
4, 433536, Note_on_c, 2, 64, 65
4, 433696, Note_off_c, 2, 73, 0
4, 433696, Note_off_c, 2, 69, 0
4, 433696, Note_off_c, 2, 64, 0
4, 433728, Note_on_c, 2, 73, 65
4, 433728, Note_on_c, 2, 64, 65
4, 433728, Note_on_c, 2, 69, 65
4, 433888, Note_off_c, 2, 73, 0
4, 433888, Note_off_c, 2, 64, 0
4, 433888, Note_off_c, 2, 69, 0
4, 433920, Note_on_c, 2, 73, 65
4, 433920, Note_on_c, 2, 69, 65
4, 433920, Note_on_c, 2, 64, 65
4, 434080, Note_off_c, 2, 73, 0
4, 434080, Note_off_c, 2, 69, 0
4, 434080, Note_off_c, 2, 64, 0
4, 434112, Note_on_c, 2, 73, 65
4, 434112, Note_on_c, 2, 69, 65
4, 434112, Note_on_c, 2, 64, 65
4, 434272, Note_off_c, 2, 73, 0
4, 434272, Note_off_c, 2, 69, 0
4, 434272, Note_off_c, 2, 64, 0
4, 434304, Note_on_c, 2, 73, 65
4, 434304, Note_on_c, 2, 69, 65
4, 434304, Note_on_c, 2, 64, 65
4, 434464, Note_off_c, 2, 73, 0
4, 434464, Note_off_c, 2, 69, 0
4, 434464, Note_off_c, 2, 64, 0
4, 434496, Note_on_c, 2, 73, 65
4, 434496, Note_on_c, 2, 69, 65
4, 434496, Note_on_c, 2, 64, 65
4, 434656, Note_off_c, 2, 73, 0
4, 434656, Note_off_c, 2, 69, 0
4, 434656, Note_off_c, 2, 64, 0
4, 434688, Note_on_c, 2, 71, 66
4, 434688, Note_on_c, 2, 68, 66
4, 434768, Note_off_c, 2, 71, 0
4, 434768, Note_off_c, 2, 68, 0
4, 434784, Note_on_c, 2, 64, 67
4, 434864, Note_off_c, 2, 64, 0
4, 434880, Note_on_c, 2, 71, 69
4, 434880, Note_on_c, 2, 68, 69
4, 434960, Note_off_c, 2, 71, 0
4, 434960, Note_off_c, 2, 68, 0
4, 434976, Note_on_c, 2, 64, 70
4, 435056, Note_off_c, 2, 64, 0
4, 435072, Note_on_c, 2, 71, 72
4, 435072, Note_on_c, 2, 68, 72
4, 435152, Note_off_c, 2, 71, 0
4, 435152, Note_off_c, 2, 68, 0
4, 435168, Note_on_c, 2, 64, 74
4, 435248, Note_off_c, 2, 64, 0
4, 435264, Note_on_c, 2, 71, 75
4, 435264, Note_on_c, 2, 68, 75
4, 435344, Note_off_c, 2, 71, 0
4, 435344, Note_off_c, 2, 68, 0
4, 435360, Note_on_c, 2, 64, 77
4, 435440, Note_off_c, 2, 64, 0
4, 435456, Note_on_c, 2, 80, 79
4, 435456, Note_on_c, 2, 76, 79
4, 435536, Note_off_c, 2, 80, 0
4, 435536, Note_off_c, 2, 76, 0
4, 435552, Note_on_c, 2, 71, 80
4, 435632, Note_off_c, 2, 71, 0
4, 435648, Note_on_c, 2, 80, 82
4, 435648, Note_on_c, 2, 76, 82
4, 435728, Note_off_c, 2, 80, 0
4, 435728, Note_off_c, 2, 76, 0
4, 435744, Note_on_c, 2, 71, 83
4, 435824, Note_off_c, 2, 71, 0
4, 435840, Note_on_c, 2, 80, 85
4, 435840, Note_on_c, 2, 76, 85
4, 435920, Note_off_c, 2, 80, 0
4, 435920, Note_off_c, 2, 76, 0
4, 435936, Note_on_c, 2, 71, 87
4, 436016, Note_off_c, 2, 71, 0
4, 436032, Note_on_c, 2, 80, 88
4, 436032, Note_on_c, 2, 76, 88
4, 436112, Note_off_c, 2, 80, 0
4, 436112, Note_off_c, 2, 76, 0
4, 436128, Note_on_c, 2, 71, 90
4, 436208, Note_off_c, 2, 71, 0
4, 436224, Note_on_c, 2, 81, 90
4, 436224, Note_on_c, 2, 73, 90
4, 436224, Note_on_c, 2, 69, 90
4, 436544, Note_off_c, 2, 81, 0
4, 436544, Note_off_c, 2, 73, 0
4, 436544, Note_off_c, 2, 69, 0
4, 436608, Note_on_c, 2, 69, 90
4, 436848, Note_off_c, 2, 69, 0
4, 436896, Note_on_c, 2, 69, 90
4, 436976, Note_off_c, 2, 69, 0
4, 436992, Note_on_c, 2, 69, 90
4, 437152, Note_off_c, 2, 69, 0
4, 437184, Note_on_c, 2, 81, 90
4, 437184, Note_on_c, 2, 69, 90
4, 437344, Note_off_c, 2, 81, 0
4, 437344, Note_off_c, 2, 69, 0
4, 437376, Note_on_c, 2, 81, 90
4, 437376, Note_on_c, 2, 69, 90
4, 437536, Note_off_c, 2, 81, 0
4, 437536, Note_off_c, 2, 69, 0
4, 437568, Note_on_c, 2, 81, 90
4, 437568, Note_on_c, 2, 69, 90
4, 437728, Note_off_c, 2, 81, 0
4, 437728, Note_off_c, 2, 69, 0
4, 437760, Note_on_c, 2, 88, 96
4, 437760, Note_on_c, 2, 76, 90
4, 437948, Note_off_c, 2, 88, 0
4, 437948, Note_off_c, 2, 76, 0
4, 437952, Note_on_c, 2, 86, 95
4, 437952, Note_on_c, 2, 74, 90
4, 438112, Note_off_c, 2, 86, 0
4, 438112, Note_off_c, 2, 74, 0
4, 438144, Note_on_c, 2, 86, 95
4, 438144, Note_on_c, 2, 74, 90
4, 438688, Note_off_c, 2, 86, 0
4, 438688, Note_off_c, 2, 74, 0
4, 438720, Note_on_c, 2, 85, 94
4, 438720, Note_on_c, 2, 74, 90
4, 438908, Note_off_c, 2, 85, 0
4, 438908, Note_off_c, 2, 74, 0
4, 438912, Note_on_c, 2, 83, 90
4, 438912, Note_on_c, 2, 74, 90
4, 439072, Note_off_c, 2, 83, 0
4, 439072, Note_off_c, 2, 74, 0
4, 439104, Note_on_c, 2, 81, 90
4, 439104, Note_on_c, 2, 74, 90
4, 439264, Note_off_c, 2, 81, 0
4, 439264, Note_off_c, 2, 74, 64
4, 439296, Note_on_c, 2, 81, 90
4, 439296, Note_on_c, 2, 73, 90
4, 439296, Note_on_c, 2, 69, 90
4, 439456, Note_off_c, 2, 81, 0
4, 439488, Note_on_c, 2, 79, 90
4, 439616, Note_off_c, 2, 73, 0
4, 439616, Note_off_c, 2, 69, 0
4, 439648, Note_off_c, 2, 79, 0
4, 439680, Note_on_c, 2, 79, 90
4, 439680, Note_on_c, 2, 91, 98
4, 440164, Note_off_c, 2, 79, 0
4, 440164, Note_off_c, 2, 91, 0
4, 440256, Note_on_c, 2, 90, 97
4, 440256, Note_on_c, 2, 79, 90
4, 440444, Note_off_c, 2, 90, 0
4, 440444, Note_off_c, 2, 79, 0
4, 440448, Note_on_c, 2, 88, 96
4, 440448, Note_on_c, 2, 79, 90
4, 440636, Note_off_c, 2, 88, 0
4, 440636, Note_off_c, 2, 79, 0
4, 440640, Note_on_c, 2, 86, 95
4, 440640, Note_on_c, 2, 79, 90
4, 440828, Note_off_c, 2, 86, 0
4, 440828, Note_off_c, 2, 79, 0
4, 440832, Note_on_c, 2, 79, 90
4, 440832, Note_on_c, 2, 76, 90
4, 440832, Note_on_c, 2, 86, 95
4, 441020, Note_off_c, 2, 86, 0
4, 441024, Note_on_c, 2, 85, 94
4, 441212, Note_off_c, 2, 79, 0
4, 441212, Note_off_c, 2, 76, 0
4, 441212, Note_off_c, 2, 85, 0
4, 441216, Note_on_c, 2, 76, 90
4, 441216, Note_on_c, 2, 79, 90
4, 441216, Note_on_c, 2, 85, 90
4, 441700, Note_off_c, 2, 85, 0
4, 441792, Note_on_c, 2, 88, 96
4, 441860, Note_off_c, 2, 76, 0
4, 441860, Note_off_c, 2, 79, 0
4, 441952, Note_off_c, 2, 88, 0
4, 441984, Note_on_c, 2, 76, 91
4, 441984, Note_on_c, 2, 69, 90
4, 442172, Note_off_c, 2, 76, 0
4, 442176, Note_on_c, 2, 79, 90
4, 442304, Note_off_c, 2, 69, 0
4, 442336, Note_off_c, 2, 79, 0
4, 442368, Note_on_c, 2, 78, 90
4, 442368, Note_on_c, 2, 74, 90
4, 442368, Note_on_c, 2, 69, 90
4, 442448, Note_off_c, 2, 78, 0
4, 442448, Note_off_c, 2, 74, 0
4, 442448, Note_off_c, 2, 69, 0
4, 442560, Note_on_c, 2, 78, 90
4, 442652, Note_off_c, 2, 78, 0
4, 442656, Note_on_c, 2, 76, 90
4, 442748, Note_off_c, 2, 76, 0
4, 442752, Note_on_c, 2, 74, 90
4, 442844, Note_off_c, 2, 74, 0
4, 442848, Note_on_c, 2, 73, 90
4, 442940, Note_off_c, 2, 73, 0
4, 442944, Note_on_c, 2, 71, 90
4, 443036, Note_off_c, 2, 71, 0
4, 443040, Note_on_c, 2, 69, 90
4, 443132, Note_off_c, 2, 69, 0
4, 443136, Note_on_c, 2, 68, 90
4, 443296, Note_off_c, 2, 68, 0
4, 443328, Note_on_c, 2, 80, 90
4, 443420, Note_off_c, 2, 80, 0
4, 443424, Note_on_c, 2, 78, 90
4, 443516, Note_off_c, 2, 78, 0
4, 443520, Note_on_c, 2, 76, 90
4, 443612, Note_off_c, 2, 76, 0
4, 443616, Note_on_c, 2, 74, 90
4, 443708, Note_off_c, 2, 74, 0
4, 443712, Note_on_c, 2, 73, 90
4, 443804, Note_off_c, 2, 73, 0
4, 443808, Note_on_c, 2, 71, 90
4, 443900, Note_off_c, 2, 71, 0
4, 443904, Note_on_c, 2, 69, 90
4, 444064, Note_off_c, 2, 69, 0
4, 444096, Note_on_c, 2, 81, 90
4, 444188, Note_off_c, 2, 81, 0
4, 444192, Note_on_c, 2, 80, 90
4, 444284, Note_off_c, 2, 80, 0
4, 444288, Note_on_c, 2, 78, 90
4, 444380, Note_off_c, 2, 78, 0
4, 444384, Note_on_c, 2, 76, 90
4, 444476, Note_off_c, 2, 76, 0
4, 444480, Note_on_c, 2, 74, 90
4, 444572, Note_off_c, 2, 74, 0
4, 444576, Note_on_c, 2, 73, 90
4, 444668, Note_off_c, 2, 73, 0
4, 444672, Note_on_c, 2, 71, 90
4, 444832, Note_off_c, 2, 71, 0
4, 445056, Note_on_c, 2, 83, 90
4, 445216, Note_off_c, 2, 83, 0
4, 446208, Note_on_c, 2, 69, 65
4, 446208, Note_on_c, 2, 73, 65
4, 446208, Note_on_c, 2, 64, 65
4, 446852, Note_off_c, 2, 69, 0
4, 446976, Note_on_c, 2, 66, 65
4, 447296, Note_off_c, 2, 73, 0
4, 447296, Note_off_c, 2, 64, 0
4, 447360, Note_on_c, 2, 62, 65
4, 447360, Note_on_c, 2, 71, 65
4, 447620, Note_off_c, 2, 66, 0
4, 447644, Note_off_c, 2, 62, 0
4, 447644, Note_off_c, 2, 71, 0
4, 447648, Note_on_c, 2, 64, 65
4, 447648, Note_on_c, 2, 73, 65
4, 447740, Note_off_c, 2, 64, 0
4, 447740, Note_off_c, 2, 73, 0
4, 447744, Note_on_c, 2, 74, 65
4, 447744, Note_on_c, 2, 66, 65
4, 448124, Note_off_c, 2, 74, 0
4, 448124, Note_off_c, 2, 66, 0
4, 448128, Note_on_c, 2, 71, 65
4, 448128, Note_on_c, 2, 62, 65
4, 448448, Note_off_c, 2, 71, 0
4, 448448, Note_off_c, 2, 62, 0
4, 448512, Note_on_c, 2, 68, 65
4, 448512, Note_on_c, 2, 64, 65
4, 448512, Note_on_c, 2, 59, 65
4, 448892, Note_off_c, 2, 68, 0
4, 448892, Note_off_c, 2, 64, 0
4, 448892, Note_off_c, 2, 59, 0
4, 448896, Note_on_c, 2, 64, 65
4, 448896, Note_on_c, 2, 59, 65
4, 449216, Note_off_c, 2, 64, 0
4, 449216, Note_off_c, 2, 59, 0
4, 449280, Note_on_c, 2, 69, 65
4, 449280, Note_on_c, 2, 64, 65
4, 449280, Note_on_c, 2, 76, 65
4, 449600, Note_off_c, 2, 69, 0
4, 449664, Note_on_c, 2, 73, 65
4, 449924, Note_off_c, 2, 64, 0
4, 449984, Note_off_c, 2, 73, 0
4, 450048, Note_on_c, 2, 69, 65
4, 450048, Note_on_c, 2, 66, 65
4, 450236, Note_off_c, 2, 76, 0
4, 450240, Note_on_c, 2, 75, 65
4, 450368, Note_off_c, 2, 69, 0
4, 450368, Note_off_c, 2, 66, 0
4, 450400, Note_off_c, 2, 75, 0
4, 450432, Note_on_c, 2, 75, 65
4, 450432, Note_on_c, 2, 66, 65
4, 450432, Note_on_c, 2, 69, 65
4, 450752, Note_off_c, 2, 75, 0
4, 450752, Note_off_c, 2, 66, 0
4, 450752, Note_off_c, 2, 69, 0
4, 451008, Note_on_c, 2, 81, 65
4, 451100, Note_off_c, 2, 81, 0
4, 451104, Note_on_c, 2, 80, 65
4, 451196, Note_off_c, 2, 80, 0
4, 451200, Note_on_c, 2, 81, 65
4, 451292, Note_off_c, 2, 81, 0
4, 451296, Note_on_c, 2, 80, 65
4, 451388, Note_off_c, 2, 80, 0
4, 451392, Note_on_c, 2, 78, 65
4, 451484, Note_off_c, 2, 78, 0
4, 451488, Note_on_c, 2, 76, 65
4, 451580, Note_off_c, 2, 76, 0
4, 451584, Note_on_c, 2, 75, 65
4, 451664, Note_off_c, 2, 75, 0
4, 451776, Note_on_c, 2, 81, 65
4, 451868, Note_off_c, 2, 81, 0
4, 451872, Note_on_c, 2, 80, 65
4, 451964, Note_off_c, 2, 80, 0
4, 451968, Note_on_c, 2, 81, 65
4, 452060, Note_off_c, 2, 81, 0
4, 452064, Note_on_c, 2, 80, 65
4, 452156, Note_off_c, 2, 80, 0
4, 452160, Note_on_c, 2, 78, 65
4, 452252, Note_off_c, 2, 78, 0
4, 452256, Note_on_c, 2, 76, 65
4, 452348, Note_off_c, 2, 76, 0
4, 452352, Note_on_c, 2, 75, 65
4, 452432, Note_off_c, 2, 75, 0
4, 452544, Note_on_c, 2, 81, 65
4, 452636, Note_off_c, 2, 81, 0
4, 452640, Note_on_c, 2, 80, 65
4, 452732, Note_off_c, 2, 80, 0
4, 452736, Note_on_c, 2, 81, 65
4, 452828, Note_off_c, 2, 81, 0
4, 452832, Note_on_c, 2, 80, 65
4, 452924, Note_off_c, 2, 80, 0
4, 452928, Note_on_c, 2, 78, 65
4, 453020, Note_off_c, 2, 78, 0
4, 453024, Note_on_c, 2, 76, 65
4, 453116, Note_off_c, 2, 76, 0
4, 453120, Note_on_c, 2, 75, 65
4, 453280, Note_off_c, 2, 75, 0
4, 453504, Note_on_c, 2, 69, 65
4, 453824, Note_off_c, 2, 69, 0
4, 453888, Note_on_c, 2, 81, 90
4, 453888, Note_on_c, 2, 74, 90
4, 453888, Note_on_c, 2, 69, 90
4, 454208, Note_off_c, 2, 81, 0
4, 454208, Note_off_c, 2, 74, 0
4, 454208, Note_off_c, 2, 69, 0
4, 454272, Note_on_c, 2, 81, 90
4, 454272, Note_on_c, 2, 74, 90
4, 454272, Note_on_c, 2, 69, 90
4, 454512, Note_off_c, 2, 81, 0
4, 454512, Note_off_c, 2, 74, 0
4, 454512, Note_off_c, 2, 69, 0
4, 454560, Note_on_c, 2, 81, 90
4, 454560, Note_on_c, 2, 74, 90
4, 454560, Note_on_c, 2, 69, 90
4, 454640, Note_off_c, 2, 81, 0
4, 454640, Note_off_c, 2, 74, 0
4, 454640, Note_off_c, 2, 69, 0
4, 454656, Note_on_c, 2, 81, 90
4, 454656, Note_on_c, 2, 73, 90
4, 454656, Note_on_c, 2, 69, 90
4, 454976, Note_off_c, 2, 81, 0
4, 454976, Note_off_c, 2, 73, 0
4, 454976, Note_off_c, 2, 69, 0
4, 455040, Note_on_c, 2, 69, 90
4, 455040, Note_on_c, 2, 73, 90
4, 455040, Note_on_c, 2, 81, 90
4, 455280, Note_off_c, 2, 69, 0
4, 455280, Note_off_c, 2, 73, 0
4, 455280, Note_off_c, 2, 81, 0
4, 455328, Note_on_c, 2, 81, 90
4, 455328, Note_on_c, 2, 73, 90
4, 455328, Note_on_c, 2, 69, 90
4, 455408, Note_off_c, 2, 81, 0
4, 455408, Note_off_c, 2, 73, 0
4, 455408, Note_off_c, 2, 69, 0
4, 455424, Note_on_c, 2, 81, 90
4, 455424, Note_on_c, 2, 72, 90
4, 455424, Note_on_c, 2, 69, 90
4, 455744, Note_off_c, 2, 81, 0
4, 455744, Note_off_c, 2, 72, 0
4, 455744, Note_off_c, 2, 69, 0
4, 455808, Note_on_c, 2, 81, 90
4, 455808, Note_on_c, 2, 72, 90
4, 455808, Note_on_c, 2, 69, 90
4, 456048, Note_off_c, 2, 81, 0
4, 456048, Note_off_c, 2, 72, 0
4, 456048, Note_off_c, 2, 69, 0
4, 456096, Note_on_c, 2, 72, 90
4, 456096, Note_on_c, 2, 69, 90
4, 456096, Note_on_c, 2, 81, 90
4, 456176, Note_off_c, 2, 72, 0
4, 456176, Note_off_c, 2, 69, 0
4, 456176, Note_off_c, 2, 81, 64
4, 456192, Note_on_c, 2, 81, 90
4, 456192, Note_on_c, 2, 76, 90
4, 456192, Note_on_c, 2, 73, 90
4, 456192, Note_on_c, 2, 69, 90
4, 456836, Note_off_c, 2, 81, 0
4, 456836, Note_off_c, 2, 76, 0
4, 456836, Note_off_c, 2, 73, 0
4, 456836, Note_off_c, 2, 69, 0
4, 503424, Program_c, 2, 48
4, 504000, Note_on_c, 2, 81, 90
4, 504000, Note_on_c, 2, 69, 90
4, 504188, Note_off_c, 2, 81, 0
4, 504188, Note_off_c, 2, 69, 0
4, 504192, Note_on_c, 2, 83, 90
4, 504192, Note_on_c, 2, 71, 90
4, 504380, Note_off_c, 2, 83, 0
4, 504380, Note_off_c, 2, 71, 0
4, 504384, Note_on_c, 2, 85, 94
4, 504384, Note_on_c, 2, 73, 90
4, 504572, Note_off_c, 2, 85, 0
4, 504572, Note_off_c, 2, 73, 0
4, 504576, Note_on_c, 2, 86, 95
4, 504576, Note_on_c, 2, 74, 90
4, 504764, Note_off_c, 2, 86, 0
4, 504764, Note_off_c, 2, 74, 0
4, 504768, Note_on_c, 2, 87, 95
4, 504768, Note_on_c, 2, 75, 90
4, 504956, Note_off_c, 2, 87, 0
4, 504956, Note_off_c, 2, 75, 0
4, 504960, Note_on_c, 2, 88, 96
4, 504960, Note_on_c, 2, 76, 90
4, 505148, Note_off_c, 2, 88, 0
4, 505148, Note_off_c, 2, 76, 0
4, 505152, Note_on_c, 2, 89, 96
4, 505152, Note_on_c, 2, 77, 90
4, 505340, Note_off_c, 2, 89, 0
4, 505340, Note_off_c, 2, 77, 0
4, 505344, Note_on_c, 2, 90, 97
4, 505344, Note_on_c, 2, 78, 90
4, 505504, Note_off_c, 2, 90, 0
4, 505504, Note_off_c, 2, 78, 0
4, 505728, Note_on_c, 2, 78, 90
4, 505728, Note_on_c, 2, 74, 90
4, 505728, Note_on_c, 2, 69, 90
4, 506212, Note_off_c, 2, 78, 0
4, 506212, Note_off_c, 2, 74, 0
4, 506212, Note_off_c, 2, 69, 0
4, 506304, Note_on_c, 2, 81, 90
4, 506396, Note_off_c, 2, 81, 0
4, 506400, Note_on_c, 2, 80, 90
4, 506480, Note_off_c, 2, 80, 0
4, 506496, Note_on_c, 2, 83, 90
4, 506588, Note_off_c, 2, 83, 0
4, 506592, Note_on_c, 2, 81, 90
4, 506684, Note_off_c, 2, 81, 0
4, 506688, Note_on_c, 2, 80, 90
4, 506780, Note_off_c, 2, 80, 0
4, 506784, Note_on_c, 2, 78, 90
4, 506864, Note_off_c, 2, 78, 0
4, 506880, Note_on_c, 2, 76, 90
4, 506880, Note_on_c, 2, 76, 90
4, 507040, Note_off_c, 2, 76, 0
4, 507072, Note_on_c, 2, 86, 95
4, 507200, Note_off_c, 2, 76, 0
4, 507260, Note_off_c, 2, 86, 0
4, 507264, Note_on_c, 2, 74, 90
4, 507264, Note_on_c, 2, 83, 90
4, 507424, Note_off_c, 2, 83, 0
4, 507456, Note_on_c, 2, 80, 90
4, 507536, Note_off_c, 2, 80, 0
4, 507648, Note_on_c, 2, 74, 90
4, 507748, Note_off_c, 2, 74, 0
4, 507836, Note_off_c, 2, 74, 0
4, 507840, Note_on_c, 2, 83, 90
4, 508000, Note_off_c, 2, 83, 0
4, 508032, Note_on_c, 2, 73, 90
4, 508032, Note_on_c, 2, 73, 90
4, 508220, Note_off_c, 2, 73, 64
4, 508224, Note_on_c, 2, 81, 90
4, 508352, Note_off_c, 2, 73, 0
4, 508384, Note_off_c, 2, 81, 0
4, 508416, Note_on_c, 2, 71, 90
4, 508900, Note_off_c, 2, 71, 0
4, 508992, Note_on_c, 2, 74, 90
4, 509084, Note_off_c, 2, 74, 0
4, 509088, Note_on_c, 2, 78, 90
4, 509168, Note_off_c, 2, 78, 0
4, 509184, Note_on_c, 2, 69, 90
4, 509564, Note_off_c, 2, 69, 0
4, 509568, Note_on_c, 2, 68, 90
4, 509888, Note_off_c, 2, 68, 0
4, 509952, Note_on_c, 2, 76, 90
4, 509952, Note_on_c, 2, 76, 90
4, 510112, Note_off_c, 2, 76, 0
4, 510144, Note_on_c, 2, 86, 95
4, 510332, Note_off_c, 2, 76, 0
4, 510332, Note_off_c, 2, 86, 0
4, 510336, Note_on_c, 2, 74, 90
4, 510336, Note_on_c, 2, 83, 90
4, 510496, Note_off_c, 2, 83, 0
4, 510528, Note_on_c, 2, 80, 90
4, 510608, Note_off_c, 2, 80, 0
4, 510720, Note_on_c, 2, 74, 90
4, 510908, Note_off_c, 2, 74, 0
4, 510912, Note_on_c, 2, 83, 90
4, 511072, Note_off_c, 2, 83, 0
4, 511100, Note_off_c, 2, 74, 0
4, 511104, Note_on_c, 2, 73, 90
4, 511104, Note_on_c, 2, 73, 90
4, 511292, Note_off_c, 2, 73, 64
4, 511296, Note_on_c, 2, 81, 90
4, 511424, Note_off_c, 2, 73, 0
4, 511456, Note_off_c, 2, 81, 0
4, 511488, Note_on_c, 2, 76, 90
4, 511488, Note_on_c, 2, 76, 90
4, 511648, Note_off_c, 2, 76, 0
4, 511680, Note_on_c, 2, 86, 95
4, 511808, Note_off_c, 2, 76, 0
4, 511868, Note_off_c, 2, 86, 0
4, 511872, Note_on_c, 2, 83, 90
4, 511872, Note_on_c, 2, 74, 90
4, 512032, Note_off_c, 2, 83, 0
4, 512064, Note_on_c, 2, 80, 90
4, 512144, Note_off_c, 2, 80, 0
4, 512256, Note_on_c, 2, 74, 90
4, 512444, Note_off_c, 2, 74, 0
4, 512448, Note_on_c, 2, 83, 90
4, 512608, Note_off_c, 2, 83, 0
4, 512636, Note_off_c, 2, 74, 0
4, 512640, Note_on_c, 2, 73, 90
4, 512640, Note_on_c, 2, 73, 90
4, 512828, Note_off_c, 2, 73, 64
4, 512832, Note_on_c, 2, 81, 90
4, 512960, Note_off_c, 2, 73, 0
4, 512992, Note_off_c, 2, 81, 0
4, 513024, Note_on_c, 2, 71, 90
4, 513508, Note_off_c, 2, 71, 0
4, 513600, Note_on_c, 2, 74, 90
4, 513692, Note_off_c, 2, 74, 0
4, 513696, Note_on_c, 2, 78, 90
4, 513776, Note_off_c, 2, 78, 0
4, 513792, Note_on_c, 2, 69, 90
4, 514172, Note_off_c, 2, 69, 0
4, 514176, Note_on_c, 2, 68, 90
4, 514496, Note_off_c, 2, 68, 0
4, 514560, Note_on_c, 2, 69, 90
4, 514560, Note_on_c, 2, 61, 90
4, 514880, Note_off_c, 2, 69, 0
4, 514880, Note_off_c, 2, 61, 0
4, 515328, Note_on_c, 2, 87, 95
4, 515328, Note_on_c, 2, 75, 90
4, 515516, Note_off_c, 2, 87, 0
4, 515516, Note_off_c, 2, 75, 0
4, 515520, Note_on_c, 2, 88, 96
4, 515520, Note_on_c, 2, 76, 90
4, 515708, Note_off_c, 2, 88, 0
4, 515708, Note_off_c, 2, 76, 0
4, 515712, Note_on_c, 2, 90, 97
4, 515712, Note_on_c, 2, 78, 90
4, 515900, Note_off_c, 2, 90, 0
4, 515900, Note_off_c, 2, 78, 0
4, 515904, Note_on_c, 2, 88, 96
4, 515904, Note_on_c, 2, 76, 90
4, 516064, Note_off_c, 2, 88, 0
4, 516064, Note_off_c, 2, 76, 0
4, 516096, Note_on_c, 2, 81, 90
4, 516096, Note_on_c, 2, 69, 90
4, 516416, Note_off_c, 2, 81, 0
4, 516416, Note_off_c, 2, 69, 0
4, 516768, Note_on_c, 2, 81, 90
4, 516768, Note_on_c, 2, 69, 90
4, 516860, Note_off_c, 2, 81, 0
4, 516860, Note_off_c, 2, 69, 0
4, 516864, Note_on_c, 2, 83, 90
4, 516864, Note_on_c, 2, 71, 90
4, 517184, Note_off_c, 2, 83, 0
4, 517184, Note_off_c, 2, 71, 0
4, 517536, Note_on_c, 2, 83, 90
4, 517536, Note_on_c, 2, 71, 90
4, 517616, Note_off_c, 2, 83, 0
4, 517616, Note_off_c, 2, 71, 0
4, 517632, Note_on_c, 2, 83, 90
4, 517632, Note_on_c, 2, 86, 95
4, 517632, Note_on_c, 2, 74, 90
4, 518012, Note_off_c, 2, 83, 0
4, 518012, Note_off_c, 2, 86, 0
4, 518012, Note_off_c, 2, 74, 0
4, 518016, Note_on_c, 2, 73, 90
4, 518016, Note_on_c, 2, 81, 90
4, 518016, Note_on_c, 2, 85, 94
4, 518176, Note_off_c, 2, 73, 0
4, 518176, Note_off_c, 2, 81, 0
4, 518176, Note_off_c, 2, 85, 0
4, 518400, Note_on_c, 2, 87, 95
4, 518400, Note_on_c, 2, 75, 90
4, 518588, Note_off_c, 2, 87, 0
4, 518588, Note_off_c, 2, 75, 0
4, 518592, Note_on_c, 2, 88, 96
4, 518592, Note_on_c, 2, 76, 90
4, 518780, Note_off_c, 2, 88, 0
4, 518780, Note_off_c, 2, 76, 0
4, 518784, Note_on_c, 2, 90, 97
4, 518784, Note_on_c, 2, 78, 90
4, 518972, Note_off_c, 2, 90, 0
4, 518972, Note_off_c, 2, 78, 0
4, 518976, Note_on_c, 2, 88, 96
4, 518976, Note_on_c, 2, 76, 90
4, 519136, Note_off_c, 2, 88, 0
4, 519136, Note_off_c, 2, 76, 0
4, 519168, Note_on_c, 2, 81, 92
4, 519168, Note_on_c, 2, 69, 90
4, 519488, Note_off_c, 2, 81, 0
4, 519488, Note_off_c, 2, 69, 0
4, 519840, Note_on_c, 2, 69, 90
4, 519840, Note_on_c, 2, 81, 90
4, 519920, Note_off_c, 2, 69, 0
4, 519920, Note_off_c, 2, 81, 0
4, 519936, Note_on_c, 2, 85, 90
4, 519936, Note_on_c, 2, 73, 90
4, 520220, Note_off_c, 2, 85, 0
4, 520220, Note_off_c, 2, 73, 0
4, 520224, Note_on_c, 2, 86, 90
4, 520224, Note_on_c, 2, 74, 90
4, 520304, Note_off_c, 2, 86, 0
4, 520304, Note_off_c, 2, 74, 0
4, 520320, Note_on_c, 2, 83, 90
4, 520320, Note_on_c, 2, 71, 90
4, 520604, Note_off_c, 2, 83, 0
4, 520604, Note_off_c, 2, 71, 0
4, 520608, Note_on_c, 2, 85, 90
4, 520608, Note_on_c, 2, 73, 90
4, 520688, Note_off_c, 2, 85, 0
4, 520688, Note_off_c, 2, 73, 0
4, 520704, Note_on_c, 2, 81, 90
4, 520704, Note_on_c, 2, 73, 90
4, 520704, Note_on_c, 2, 69, 90
4, 520892, Note_off_c, 2, 81, 0
4, 520892, Note_off_c, 2, 73, 0
4, 520892, Note_off_c, 2, 69, 0
4, 520896, Note_on_c, 2, 76, 90
4, 520896, Note_on_c, 2, 73, 90
4, 520896, Note_on_c, 2, 69, 90
4, 521056, Note_off_c, 2, 76, 0
4, 521056, Note_off_c, 2, 73, 0
4, 521056, Note_off_c, 2, 69, 0
4, 521088, Note_on_c, 2, 76, 90
4, 521088, Note_on_c, 2, 73, 90
4, 521088, Note_on_c, 2, 69, 90
4, 521248, Note_off_c, 2, 76, 0
4, 521248, Note_off_c, 2, 73, 0
4, 521248, Note_off_c, 2, 69, 0
4, 521280, Note_on_c, 2, 76, 90
4, 521280, Note_on_c, 2, 73, 90
4, 521280, Note_on_c, 2, 69, 90
4, 521440, Note_off_c, 2, 76, 0
4, 521440, Note_off_c, 2, 73, 0
4, 521440, Note_off_c, 2, 69, 0
4, 521472, Note_on_c, 2, 73, 90
4, 521564, Note_off_c, 2, 73, 0
4, 521568, Note_on_c, 2, 76, 90
4, 521660, Note_off_c, 2, 76, 0
4, 521664, Note_on_c, 2, 73, 90
4, 521756, Note_off_c, 2, 73, 0
4, 521760, Note_on_c, 2, 76, 90
4, 521840, Note_off_c, 2, 76, 0
4, 521856, Note_on_c, 2, 73, 90
4, 521948, Note_off_c, 2, 73, 0
4, 521952, Note_on_c, 2, 76, 90
4, 522044, Note_off_c, 2, 76, 0
4, 522048, Note_on_c, 2, 73, 90
4, 522140, Note_off_c, 2, 73, 0
4, 522144, Note_on_c, 2, 76, 90
4, 522224, Note_off_c, 2, 76, 0
4, 522240, Note_on_c, 2, 76, 100
4, 522240, Note_on_c, 2, 81, 100
4, 522240, Note_on_c, 2, 85, 100
4, 522240, Note_on_c, 2, 88, 106
4, 522428, Note_off_c, 2, 76, 0
4, 522428, Note_off_c, 2, 81, 0
4, 522428, Note_off_c, 2, 85, 0
4, 522428, Note_off_c, 2, 88, 0
4, 522432, Note_on_c, 2, 76, 90
4, 522432, Note_on_c, 2, 81, 90
4, 522432, Note_on_c, 2, 85, 94
4, 522592, Note_off_c, 2, 76, 0
4, 522592, Note_off_c, 2, 81, 0
4, 522592, Note_off_c, 2, 85, 0
4, 522624, Note_on_c, 2, 76, 90
4, 522624, Note_on_c, 2, 81, 90
4, 522624, Note_on_c, 2, 85, 94
4, 522784, Note_off_c, 2, 76, 0
4, 522784, Note_off_c, 2, 81, 0
4, 522784, Note_off_c, 2, 85, 0
4, 522816, Note_on_c, 2, 76, 90
4, 522816, Note_on_c, 2, 81, 90
4, 522816, Note_on_c, 2, 85, 94
4, 522976, Note_off_c, 2, 76, 0
4, 522976, Note_off_c, 2, 81, 0
4, 522976, Note_off_c, 2, 85, 0
4, 523008, Note_on_c, 2, 76, 90
4, 523008, Note_on_c, 2, 81, 90
4, 523008, Note_on_c, 2, 85, 94
4, 523100, Note_off_c, 2, 76, 0
4, 523100, Note_off_c, 2, 81, 0
4, 523100, Note_off_c, 2, 85, 0
4, 523104, Note_on_c, 2, 88, 96
4, 523196, Note_off_c, 2, 88, 0
4, 523200, Note_on_c, 2, 76, 90
4, 523200, Note_on_c, 2, 81, 90
4, 523200, Note_on_c, 2, 85, 94
4, 523292, Note_off_c, 2, 76, 0
4, 523292, Note_off_c, 2, 81, 0
4, 523292, Note_off_c, 2, 85, 0
4, 523296, Note_on_c, 2, 88, 96
4, 523376, Note_off_c, 2, 88, 0
4, 523392, Note_on_c, 2, 76, 90
4, 523392, Note_on_c, 2, 81, 90
4, 523392, Note_on_c, 2, 85, 94
4, 523484, Note_off_c, 2, 76, 0
4, 523484, Note_off_c, 2, 81, 0
4, 523484, Note_off_c, 2, 85, 0
4, 523488, Note_on_c, 2, 88, 96
4, 523580, Note_off_c, 2, 88, 0
4, 523584, Note_on_c, 2, 76, 90
4, 523584, Note_on_c, 2, 81, 90
4, 523584, Note_on_c, 2, 85, 94
4, 523676, Note_off_c, 2, 76, 0
4, 523676, Note_off_c, 2, 81, 0
4, 523676, Note_off_c, 2, 85, 0
4, 523680, Note_on_c, 2, 88, 96
4, 523760, Note_off_c, 2, 88, 0
4, 523776, Note_on_c, 2, 76, 90
4, 523776, Note_on_c, 2, 85, 94
4, 523964, Note_off_c, 2, 76, 0
4, 523964, Note_off_c, 2, 85, 0
4, 523968, Note_on_c, 2, 76, 90
4, 523968, Note_on_c, 2, 73, 90
4, 523968, Note_on_c, 2, 81, 90
4, 524128, Note_off_c, 2, 76, 0
4, 524128, Note_off_c, 2, 73, 0
4, 524128, Note_off_c, 2, 81, 0
4, 524160, Note_on_c, 2, 73, 90
4, 524160, Note_on_c, 2, 76, 90
4, 524160, Note_on_c, 2, 81, 90
4, 524320, Note_off_c, 2, 73, 0
4, 524320, Note_off_c, 2, 76, 0
4, 524320, Note_off_c, 2, 81, 0
4, 524352, Note_on_c, 2, 73, 90
4, 524352, Note_on_c, 2, 76, 90
4, 524352, Note_on_c, 2, 81, 90
4, 524512, Note_off_c, 2, 73, 0
4, 524512, Note_off_c, 2, 76, 0
4, 524512, Note_off_c, 2, 81, 0
4, 524544, Note_on_c, 2, 73, 90
4, 524544, Note_on_c, 2, 76, 90
4, 524544, Note_on_c, 2, 81, 90
4, 524636, Note_off_c, 2, 73, 0
4, 524636, Note_off_c, 2, 76, 0
4, 524636, Note_off_c, 2, 81, 0
4, 524640, Note_on_c, 2, 85, 90
4, 524732, Note_off_c, 2, 85, 0
4, 524736, Note_on_c, 2, 73, 90
4, 524736, Note_on_c, 2, 76, 90
4, 524736, Note_on_c, 2, 81, 90
4, 524828, Note_off_c, 2, 73, 0
4, 524828, Note_off_c, 2, 76, 0
4, 524828, Note_off_c, 2, 81, 0
4, 524832, Note_on_c, 2, 85, 90
4, 524912, Note_off_c, 2, 85, 0
4, 524928, Note_on_c, 2, 73, 90
4, 524928, Note_on_c, 2, 76, 90
4, 524928, Note_on_c, 2, 81, 90
4, 525020, Note_off_c, 2, 73, 0
4, 525020, Note_off_c, 2, 76, 0
4, 525020, Note_off_c, 2, 81, 0
4, 525024, Note_on_c, 2, 85, 90
4, 525116, Note_off_c, 2, 85, 0
4, 525120, Note_on_c, 2, 73, 90
4, 525120, Note_on_c, 2, 76, 90
4, 525120, Note_on_c, 2, 81, 90
4, 525212, Note_off_c, 2, 73, 0
4, 525212, Note_off_c, 2, 76, 0
4, 525212, Note_off_c, 2, 81, 0
4, 525216, Note_on_c, 2, 85, 90
4, 525296, Note_off_c, 2, 85, 0
4, 525312, Note_on_c, 2, 81, 90
4, 525312, Note_on_c, 2, 76, 90
4, 525312, Note_on_c, 2, 73, 90
4, 525472, Note_off_c, 2, 81, 0
4, 525472, Note_off_c, 2, 76, 0
4, 525472, Note_off_c, 2, 73, 0
4, 525696, Note_on_c, 2, 80, 90
4, 525696, Note_on_c, 2, 83, 100
4, 525736, Note_off_c, 2, 83, 64
4, 525744, Note_on_c, 2, 85, 100
4, 525784, Note_off_c, 2, 85, 64
4, 525792, Note_on_c, 2, 83, 100
4, 525832, Note_off_c, 2, 83, 64
4, 525840, Note_on_c, 2, 85, 100
4, 525856, Note_off_c, 2, 80, 64
4, 525880, Note_off_c, 2, 85, 64
4, 525888, Note_on_c, 2, 81, 90
4, 525968, Note_off_c, 2, 81, 0
4, 525984, Note_on_c, 2, 83, 90
4, 526064, Note_off_c, 2, 83, 0
4, 526080, Note_on_c, 2, 81, 90
4, 526080, Note_on_c, 2, 73, 90
4, 526400, Note_off_c, 2, 81, 0
4, 526400, Note_off_c, 2, 73, 0
4, 526464, Note_on_c, 2, 80, 90
4, 526464, Note_on_c, 2, 83, 100
4, 526504, Note_off_c, 2, 83, 64
4, 526512, Note_on_c, 2, 85, 100
4, 526552, Note_off_c, 2, 85, 64
4, 526560, Note_on_c, 2, 83, 100
4, 526600, Note_off_c, 2, 83, 64
4, 526608, Note_on_c, 2, 85, 100
4, 526624, Note_off_c, 2, 80, 64
4, 526648, Note_off_c, 2, 85, 64
4, 526656, Note_on_c, 2, 81, 90
4, 526736, Note_off_c, 2, 81, 0
4, 526752, Note_on_c, 2, 83, 90
4, 526832, Note_off_c, 2, 83, 0
4, 526848, Note_on_c, 2, 81, 90
4, 526848, Note_on_c, 2, 73, 90
4, 527168, Note_off_c, 2, 81, 0
4, 527168, Note_off_c, 2, 73, 0
4, 527168, End_track
5, 0, Start_track
5, 0, Title_t, "Bob Fisher"
5, 0, Control_c, 3, 0, 0
5, 0, Program_c, 3, 48
5, 0, Control_c, 3, 7, 127
5, 0, Control_c, 3, 10, 91
5, 0, Control_c, 3, 91, 93
5, 0, Control_c, 3, 93, 2
5, 0, Key_signature, 3, "major"
5, 0, Control_c, 3, 121, 0
5, 384, Control_c, 3, 10, 73
5, 480, Control_c, 3, 91, 63
5, 672, Program_c, 3, 48
5, 1536, Note_on_c, 3, 61, 75
5, 1536, Note_on_c, 3, 57, 75
5, 1856, Note_off_c, 3, 57, 0
5, 1920, Note_on_c, 3, 57, 75
5, 2180, Note_off_c, 3, 61, 0
5, 2240, Note_off_c, 3, 57, 0
5, 2304, Note_on_c, 3, 64, 75
5, 2304, Note_on_c, 3, 57, 75
5, 2624, Note_off_c, 3, 57, 0
5, 2688, Note_on_c, 3, 57, 75
5, 2948, Note_off_c, 3, 64, 0
5, 3008, Note_off_c, 3, 57, 0
5, 3072, Note_on_c, 3, 57, 75
5, 3072, Note_on_c, 3, 62, 75
5, 3452, Note_off_c, 3, 57, 0
5, 3452, Note_off_c, 3, 62, 0
5, 3456, Note_on_c, 3, 57, 75
5, 3456, Note_on_c, 3, 66, 75
5, 3836, Note_off_c, 3, 57, 0
5, 3836, Note_off_c, 3, 66, 0
5, 3840, Note_on_c, 3, 57, 75
5, 3840, Note_on_c, 3, 62, 75
5, 4220, Note_off_c, 3, 57, 0
5, 4220, Note_off_c, 3, 62, 0
5, 4224, Note_on_c, 3, 57, 75
5, 4224, Note_on_c, 3, 59, 75
5, 4544, Note_off_c, 3, 57, 0
5, 4544, Note_off_c, 3, 59, 0
5, 4608, Note_on_c, 3, 57, 75
5, 4608, Note_on_c, 3, 52, 75
5, 4608, Note_on_c, 3, 45, 75
5, 4928, Note_off_c, 3, 57, 0
5, 4928, Note_off_c, 3, 52, 0
5, 4928, Note_off_c, 3, 45, 0
5, 5760, Note_on_c, 3, 57, 75
5, 6080, Note_off_c, 3, 57, 0
5, 6144, Note_on_c, 3, 57, 75
5, 6528, Note_on_c, 3, 50, 75
5, 6788, Note_off_c, 3, 57, 0
5, 6908, Note_off_c, 3, 50, 0
5, 6912, Note_on_c, 3, 57, 75
5, 7292, Note_off_c, 3, 57, 0
5, 7296, Note_on_c, 3, 45, 75
5, 7616, Note_off_c, 3, 45, 0
5, 8064, Note_on_c, 3, 52, 75
5, 8444, Note_off_c, 3, 52, 0
5, 8448, Note_on_c, 3, 50, 75
5, 8828, Note_off_c, 3, 50, 0
5, 8832, Note_on_c, 3, 52, 75
5, 8832, Note_on_c, 3, 40, 75
5, 9152, Note_off_c, 3, 52, 0
5, 9152, Note_off_c, 3, 40, 0
5, 9600, Note_on_c, 3, 52, 75
5, 9600, Note_on_c, 3, 52, 75
5, 9980, Note_off_c, 3, 52, 0
5, 9984, Note_on_c, 3, 50, 75
5, 10364, Note_off_c, 3, 52, 0
5, 10364, Note_off_c, 3, 50, 0
5, 10368, Note_on_c, 3, 56, 75
5, 10368, Note_on_c, 3, 44, 75
5, 10688, Note_off_c, 3, 56, 0
5, 10688, Note_off_c, 3, 44, 0
5, 10752, Note_on_c, 3, 57, 76
5, 10752, Note_on_c, 3, 45, 76
5, 11072, Note_off_c, 3, 57, 0
5, 11072, Note_off_c, 3, 45, 0
5, 12288, Note_on_c, 3, 64, 99
5, 12288, Note_on_c, 3, 52, 99
5, 13052, Note_off_c, 3, 64, 0
5, 13052, Note_off_c, 3, 52, 0
5, 13056, Note_on_c, 3, 64, 86
5, 13056, Note_on_c, 3, 52, 86
5, 13244, Note_off_c, 3, 64, 0
5, 13244, Note_off_c, 3, 52, 0
5, 13248, Note_on_c, 3, 63, 83
5, 13436, Note_off_c, 3, 63, 0
5, 13440, Note_on_c, 3, 62, 80
5, 13628, Note_off_c, 3, 62, 0
5, 13632, Note_on_c, 3, 59, 77
5, 13792, Note_off_c, 3, 59, 0
5, 13824, Note_on_c, 3, 64, 75
5, 13824, Note_on_c, 3, 61, 75
5, 13824, Note_on_c, 3, 57, 75
5, 14144, Note_off_c, 3, 57, 0
5, 14208, Note_on_c, 3, 57, 75
5, 14528, Note_off_c, 3, 57, 0
5, 14588, Note_off_c, 3, 64, 0
5, 14588, Note_off_c, 3, 61, 0
5, 14592, Note_on_c, 3, 67, 75
5, 14592, Note_on_c, 3, 57, 75
5, 14592, Note_on_c, 3, 64, 75
5, 14912, Note_off_c, 3, 57, 0
5, 14976, Note_on_c, 3, 57, 75
5, 15236, Note_off_c, 3, 67, 0
5, 15236, Note_off_c, 3, 64, 0
5, 15296, Note_off_c, 3, 57, 0
5, 15360, Note_on_c, 3, 66, 75
5, 15360, Note_on_c, 3, 62, 75
5, 15360, Note_on_c, 3, 57, 75
5, 15680, Note_off_c, 3, 66, 0
5, 15680, Note_off_c, 3, 62, 0
5, 15680, Note_off_c, 3, 57, 0
5, 15744, Note_on_c, 3, 66, 75
5, 15744, Note_on_c, 3, 62, 75
5, 15744, Note_on_c, 3, 57, 75
5, 16064, Note_off_c, 3, 66, 0
5, 16064, Note_off_c, 3, 62, 0
5, 16064, Note_off_c, 3, 57, 0
5, 16128, Note_on_c, 3, 66, 75
5, 16128, Note_on_c, 3, 62, 75
5, 16128, Note_on_c, 3, 57, 75
5, 16448, Note_off_c, 3, 66, 0
5, 16448, Note_off_c, 3, 62, 0
5, 16448, Note_off_c, 3, 57, 0
5, 16512, Note_on_c, 3, 62, 75
5, 16512, Note_on_c, 3, 57, 75
5, 16512, Note_on_c, 3, 59, 75
5, 16512, Note_on_c, 3, 68, 75
5, 16892, Note_off_c, 3, 62, 0
5, 16892, Note_off_c, 3, 57, 0
5, 16892, Note_off_c, 3, 59, 0
5, 16892, Note_off_c, 3, 68, 0
5, 16896, Note_on_c, 3, 69, 75
5, 16896, Note_on_c, 3, 64, 75
5, 16896, Note_on_c, 3, 57, 75
5, 17216, Note_off_c, 3, 69, 0
5, 17216, Note_off_c, 3, 64, 0
5, 17216, Note_off_c, 3, 57, 0
5, 18048, Note_on_c, 3, 69, 75
5, 18048, Note_on_c, 3, 57, 75
5, 18368, Note_off_c, 3, 69, 0
5, 18368, Note_off_c, 3, 57, 0
5, 18432, Note_on_c, 3, 57, 75
5, 18432, Note_on_c, 3, 57, 75
5, 18752, Note_off_c, 3, 57, 0
5, 18816, Note_on_c, 3, 50, 75
5, 19076, Note_off_c, 3, 57, 0
5, 19136, Note_off_c, 3, 50, 0
5, 19200, Note_on_c, 3, 57, 75
5, 19200, Note_on_c, 3, 57, 75
5, 19520, Note_off_c, 3, 57, 0
5, 19520, Note_off_c, 3, 57, 0
5, 19584, Note_on_c, 3, 45, 75
5, 19904, Note_off_c, 3, 45, 0
5, 19968, Note_on_c, 3, 50, 100
5, 19968, Note_on_c, 3, 38, 100
5, 20288, Note_off_c, 3, 50, 0
5, 20288, Note_off_c, 3, 38, 0
5, 21504, Note_on_c, 3, 52, 100
5, 21504, Note_on_c, 3, 40, 100
5, 21824, Note_off_c, 3, 52, 0
5, 21824, Note_off_c, 3, 40, 0
5, 24960, Note_on_c, 3, 57, 75
5, 24960, Note_on_c, 3, 61, 75
5, 25340, Note_off_c, 3, 57, 0
5, 25340, Note_off_c, 3, 61, 0
5, 25344, Note_on_c, 3, 56, 75
5, 25344, Note_on_c, 3, 59, 75
5, 25724, Note_off_c, 3, 56, 0
5, 25728, Note_on_c, 3, 52, 75
5, 26048, Note_off_c, 3, 52, 0
5, 26108, Note_off_c, 3, 59, 0
5, 26112, Note_on_c, 3, 57, 75
5, 26492, Note_off_c, 3, 57, 0
5, 26496, Note_on_c, 3, 54, 75
5, 26876, Note_off_c, 3, 54, 0
5, 26880, Note_on_c, 3, 50, 75
5, 27260, Note_off_c, 3, 50, 0
5, 27264, Note_on_c, 3, 52, 75
5, 27584, Note_off_c, 3, 52, 0
5, 27648, Note_on_c, 3, 45, 100
5, 27648, Note_on_c, 3, 45, 100
5, 27808, Note_off_c, 3, 45, 0
5, 27840, Note_on_c, 3, 64, 100
5, 27840, Note_on_c, 3, 57, 100
5, 27840, Note_on_c, 3, 61, 100
5, 28000, Note_off_c, 3, 64, 0
5, 28000, Note_off_c, 3, 57, 0
5, 28000, Note_off_c, 3, 61, 0
5, 28032, Note_on_c, 3, 64, 100
5, 28032, Note_on_c, 3, 61, 100
5, 28032, Note_on_c, 3, 57, 100
5, 28192, Note_off_c, 3, 64, 0
5, 28192, Note_off_c, 3, 61, 0
5, 28192, Note_off_c, 3, 57, 0
5, 28224, Note_on_c, 3, 64, 100
5, 28224, Note_on_c, 3, 61, 100
5, 28224, Note_on_c, 3, 57, 100
5, 28384, Note_off_c, 3, 64, 0
5, 28384, Note_off_c, 3, 61, 0
5, 28384, Note_off_c, 3, 57, 0
5, 28416, Note_on_c, 3, 64, 100
5, 28416, Note_on_c, 3, 61, 100
5, 28416, Note_on_c, 3, 57, 100
5, 28576, Note_off_c, 3, 64, 0
5, 28576, Note_off_c, 3, 61, 0
5, 28576, Note_off_c, 3, 57, 0
5, 28608, Note_on_c, 3, 64, 100
5, 28608, Note_on_c, 3, 57, 100
5, 28608, Note_on_c, 3, 61, 100
5, 28768, Note_off_c, 3, 64, 0
5, 28768, Note_off_c, 3, 57, 0
5, 28768, Note_off_c, 3, 61, 0
5, 28800, Note_on_c, 3, 64, 100
5, 28800, Note_on_c, 3, 61, 100
5, 28800, Note_on_c, 3, 57, 100
5, 28800, Note_on_c, 3, 55, 100
5, 28960, Note_off_c, 3, 64, 0
5, 28960, Note_off_c, 3, 61, 0
5, 28960, Note_off_c, 3, 57, 0
5, 28960, Note_off_c, 3, 55, 0
5, 28992, Note_on_c, 3, 64, 100
5, 28992, Note_on_c, 3, 61, 100
5, 28992, Note_on_c, 3, 57, 100
5, 28992, Note_on_c, 3, 55, 100
5, 29152, Note_off_c, 3, 64, 0
5, 29152, Note_off_c, 3, 61, 0
5, 29152, Note_off_c, 3, 57, 0
5, 29152, Note_off_c, 3, 55, 0
5, 29180, Note_off_c, 3, 45, 0
5, 29184, Note_on_c, 3, 62, 100
5, 29184, Note_on_c, 3, 57, 100
5, 29184, Note_on_c, 3, 54, 100
5, 29344, Note_off_c, 3, 62, 0
5, 29344, Note_off_c, 3, 57, 0
5, 29344, Note_off_c, 3, 54, 0
5, 29376, Note_on_c, 3, 62, 100
5, 29376, Note_on_c, 3, 57, 100
5, 29376, Note_on_c, 3, 54, 100
5, 29536, Note_off_c, 3, 62, 0
5, 29536, Note_off_c, 3, 57, 0
5, 29536, Note_off_c, 3, 54, 0
5, 29568, Note_on_c, 3, 62, 100
5, 29568, Note_on_c, 3, 57, 100
5, 29568, Note_on_c, 3, 54, 100
5, 29728, Note_off_c, 3, 62, 0
5, 29728, Note_off_c, 3, 57, 0
5, 29728, Note_off_c, 3, 54, 0
5, 29760, Note_on_c, 3, 62, 100
5, 29760, Note_on_c, 3, 57, 100
5, 29760, Note_on_c, 3, 54, 100
5, 29920, Note_off_c, 3, 62, 0
5, 29920, Note_off_c, 3, 57, 0
5, 29920, Note_off_c, 3, 54, 0
5, 29952, Note_on_c, 3, 57, 100
5, 29952, Note_on_c, 3, 54, 100
5, 29952, Note_on_c, 3, 62, 100
5, 30112, Note_off_c, 3, 57, 0
5, 30112, Note_off_c, 3, 54, 0
5, 30112, Note_off_c, 3, 62, 0
5, 30144, Note_on_c, 3, 62, 100
5, 30144, Note_on_c, 3, 57, 100
5, 30144, Note_on_c, 3, 54, 100
5, 30304, Note_off_c, 3, 62, 0
5, 30304, Note_off_c, 3, 57, 0
5, 30304, Note_off_c, 3, 54, 0
5, 30336, Note_on_c, 3, 62, 100
5, 30336, Note_on_c, 3, 57, 100
5, 30336, Note_on_c, 3, 54, 100
5, 30496, Note_off_c, 3, 62, 0
5, 30496, Note_off_c, 3, 57, 0
5, 30496, Note_off_c, 3, 54, 0
5, 30528, Note_on_c, 3, 62, 100
5, 30528, Note_on_c, 3, 57, 100
5, 30528, Note_on_c, 3, 54, 100
5, 30688, Note_off_c, 3, 62, 0
5, 30688, Note_off_c, 3, 57, 0
5, 30688, Note_off_c, 3, 54, 0
5, 30720, Note_on_c, 3, 61, 100
5, 30720, Note_on_c, 3, 52, 100
5, 30880, Note_off_c, 3, 61, 0
5, 30880, Note_off_c, 3, 52, 0
5, 30912, Note_on_c, 3, 61, 100
5, 30912, Note_on_c, 3, 52, 100
5, 31072, Note_off_c, 3, 61, 0
5, 31072, Note_off_c, 3, 52, 0
5, 31104, Note_on_c, 3, 61, 100
5, 31104, Note_on_c, 3, 52, 100
5, 31264, Note_off_c, 3, 61, 0
5, 31264, Note_off_c, 3, 52, 0
5, 31296, Note_on_c, 3, 61, 100
5, 31296, Note_on_c, 3, 52, 100
5, 31456, Note_off_c, 3, 61, 0
5, 31456, Note_off_c, 3, 52, 0
5, 31488, Note_on_c, 3, 61, 100
5, 31488, Note_on_c, 3, 57, 100
5, 31488, Note_on_c, 3, 52, 100
5, 31648, Note_off_c, 3, 61, 0
5, 31648, Note_off_c, 3, 57, 0
5, 31648, Note_off_c, 3, 52, 0
5, 31680, Note_on_c, 3, 50, 100
5, 31680, Note_on_c, 3, 57, 100
5, 31840, Note_off_c, 3, 50, 0
5, 31840, Note_off_c, 3, 57, 0
5, 31872, Note_on_c, 3, 49, 100
5, 31872, Note_on_c, 3, 57, 100
5, 32032, Note_off_c, 3, 49, 0
5, 32032, Note_off_c, 3, 57, 0
5, 32064, Note_on_c, 3, 47, 100
5, 32064, Note_on_c, 3, 57, 100
5, 32224, Note_off_c, 3, 47, 0
5, 32224, Note_off_c, 3, 57, 0
5, 32256, Note_on_c, 3, 57, 100
5, 32256, Note_on_c, 3, 52, 100
5, 32256, Note_on_c, 3, 45, 100
5, 32416, Note_off_c, 3, 52, 0
5, 32416, Note_off_c, 3, 45, 0
5, 32448, Note_on_c, 3, 52, 100
5, 32448, Note_on_c, 3, 45, 100
5, 32608, Note_off_c, 3, 52, 0
5, 32608, Note_off_c, 3, 45, 0
5, 32640, Note_on_c, 3, 52, 100
5, 32640, Note_on_c, 3, 45, 100
5, 32800, Note_off_c, 3, 52, 0
5, 32800, Note_off_c, 3, 45, 0
5, 32832, Note_on_c, 3, 52, 100
5, 32832, Note_on_c, 3, 45, 100
5, 32992, Note_off_c, 3, 52, 0
5, 32992, Note_off_c, 3, 45, 0
5, 33024, Note_on_c, 3, 52, 100
5, 33024, Note_on_c, 3, 45, 100
5, 33184, Note_off_c, 3, 52, 0
5, 33184, Note_off_c, 3, 45, 0
5, 33216, Note_on_c, 3, 45, 100
5, 33216, Note_on_c, 3, 52, 100
5, 33376, Note_off_c, 3, 45, 0
5, 33376, Note_off_c, 3, 52, 0
5, 33404, Note_off_c, 3, 57, 0
5, 33408, Note_on_c, 3, 57, 100
5, 33408, Note_on_c, 3, 49, 100
5, 33568, Note_off_c, 3, 49, 0
5, 33600, Note_on_c, 3, 49, 100
5, 33760, Note_off_c, 3, 49, 0
5, 33788, Note_off_c, 3, 57, 0
5, 33792, Note_on_c, 3, 57, 100
5, 33792, Note_on_c, 3, 50, 100
5, 33952, Note_off_c, 3, 57, 0
5, 33952, Note_off_c, 3, 50, 0
5, 33984, Note_on_c, 3, 50, 100
5, 33984, Note_on_c, 3, 62, 100
5, 34144, Note_off_c, 3, 50, 0
5, 34144, Note_off_c, 3, 62, 0
5, 34176, Note_on_c, 3, 62, 100
5, 34176, Note_on_c, 3, 50, 100
5, 34336, Note_off_c, 3, 62, 0
5, 34336, Note_off_c, 3, 50, 0
5, 34368, Note_on_c, 3, 62, 100
5, 34368, Note_on_c, 3, 50, 100
5, 34528, Note_off_c, 3, 62, 0
5, 34528, Note_off_c, 3, 50, 0
5, 34560, Note_on_c, 3, 62, 100
5, 34560, Note_on_c, 3, 50, 100
5, 34720, Note_off_c, 3, 62, 0
5, 34720, Note_off_c, 3, 50, 0
5, 34752, Note_on_c, 3, 50, 100
5, 34752, Note_on_c, 3, 57, 100
5, 34912, Note_off_c, 3, 50, 0
5, 34912, Note_off_c, 3, 57, 0
5, 34944, Note_on_c, 3, 49, 100
5, 34944, Note_on_c, 3, 57, 100
5, 35104, Note_off_c, 3, 49, 0
5, 35104, Note_off_c, 3, 57, 0
5, 35136, Note_on_c, 3, 49, 100
5, 35136, Note_on_c, 3, 57, 100
5, 35296, Note_off_c, 3, 49, 0
5, 35296, Note_off_c, 3, 57, 0
5, 35328, Note_on_c, 3, 59, 100
5, 35328, Note_on_c, 3, 47, 100
5, 35488, Note_off_c, 3, 59, 0
5, 35488, Note_off_c, 3, 47, 0
5, 35520, Note_on_c, 3, 59, 100
5, 35520, Note_on_c, 3, 47, 100
5, 35680, Note_off_c, 3, 59, 0
5, 35680, Note_off_c, 3, 47, 0
5, 35712, Note_on_c, 3, 59, 100
5, 35712, Note_on_c, 3, 47, 100
5, 35872, Note_off_c, 3, 59, 0
5, 35872, Note_off_c, 3, 47, 0
5, 35904, Note_on_c, 3, 59, 100
5, 35904, Note_on_c, 3, 47, 100
5, 36064, Note_off_c, 3, 59, 0
5, 36064, Note_off_c, 3, 47, 0
5, 36096, Note_on_c, 3, 59, 100
5, 36096, Note_on_c, 3, 47, 100
5, 36256, Note_off_c, 3, 59, 0
5, 36256, Note_off_c, 3, 47, 0
5, 36288, Note_on_c, 3, 59, 100
5, 36288, Note_on_c, 3, 47, 100
5, 36448, Note_off_c, 3, 59, 0
5, 36448, Note_off_c, 3, 47, 0
5, 36480, Note_on_c, 3, 57, 100
5, 36480, Note_on_c, 3, 45, 100
5, 36640, Note_off_c, 3, 57, 0
5, 36640, Note_off_c, 3, 45, 0
5, 36672, Note_on_c, 3, 57, 100
5, 36672, Note_on_c, 3, 45, 100
5, 36832, Note_off_c, 3, 57, 0
5, 36832, Note_off_c, 3, 45, 0
5, 36864, Note_on_c, 3, 56, 100
5, 36864, Note_on_c, 3, 44, 100
5, 37024, Note_off_c, 3, 56, 0
5, 37024, Note_off_c, 3, 44, 0
5, 37056, Note_on_c, 3, 56, 100
5, 37056, Note_on_c, 3, 44, 100
5, 37216, Note_off_c, 3, 56, 0
5, 37216, Note_off_c, 3, 44, 0
5, 37248, Note_on_c, 3, 56, 100
5, 37248, Note_on_c, 3, 44, 100
5, 37408, Note_off_c, 3, 56, 0
5, 37408, Note_off_c, 3, 44, 0
5, 37440, Note_on_c, 3, 56, 100
5, 37440, Note_on_c, 3, 44, 100
5, 37600, Note_off_c, 3, 56, 0
5, 37600, Note_off_c, 3, 44, 0
5, 37632, Note_on_c, 3, 56, 100
5, 37632, Note_on_c, 3, 44, 100
5, 37792, Note_off_c, 3, 56, 0
5, 37792, Note_off_c, 3, 44, 0
5, 37824, Note_on_c, 3, 56, 100
5, 37824, Note_on_c, 3, 44, 100
5, 37984, Note_off_c, 3, 56, 0
5, 37984, Note_off_c, 3, 44, 0
5, 38016, Note_on_c, 3, 52, 100
5, 38016, Note_on_c, 3, 40, 100
5, 38176, Note_off_c, 3, 52, 0
5, 38176, Note_off_c, 3, 40, 0
5, 38208, Note_on_c, 3, 52, 100
5, 38208, Note_on_c, 3, 40, 100
5, 38368, Note_off_c, 3, 52, 0
5, 38368, Note_off_c, 3, 40, 0
5, 38400, Note_on_c, 3, 57, 100
5, 38400, Note_on_c, 3, 45, 100
5, 38560, Note_off_c, 3, 57, 0
5, 38560, Note_off_c, 3, 45, 0
5, 38592, Note_on_c, 3, 57, 100
5, 38592, Note_on_c, 3, 45, 100
5, 38752, Note_off_c, 3, 57, 0
5, 38752, Note_off_c, 3, 45, 0
5, 38784, Note_on_c, 3, 57, 100
5, 38784, Note_on_c, 3, 45, 100
5, 38944, Note_off_c, 3, 57, 0
5, 38944, Note_off_c, 3, 45, 0
5, 38976, Note_on_c, 3, 57, 100
5, 38976, Note_on_c, 3, 45, 100
5, 39136, Note_off_c, 3, 57, 0
5, 39136, Note_off_c, 3, 45, 0
5, 39168, Note_on_c, 3, 57, 100
5, 39168, Note_on_c, 3, 45, 100
5, 39328, Note_off_c, 3, 57, 0
5, 39328, Note_off_c, 3, 45, 0
5, 39360, Note_on_c, 3, 57, 100
5, 39360, Note_on_c, 3, 45, 100
5, 39520, Note_off_c, 3, 57, 0
5, 39520, Note_off_c, 3, 45, 0
5, 39552, Note_on_c, 3, 44, 100
5, 39552, Note_on_c, 3, 56, 100
5, 39712, Note_off_c, 3, 44, 0
5, 39712, Note_off_c, 3, 56, 0
5, 39744, Note_on_c, 3, 56, 100
5, 39744, Note_on_c, 3, 44, 100
5, 39904, Note_off_c, 3, 56, 0
5, 39904, Note_off_c, 3, 44, 0
5, 39936, Note_on_c, 3, 54, 100
5, 39936, Note_on_c, 3, 42, 100
5, 40096, Note_off_c, 3, 54, 0
5, 40096, Note_off_c, 3, 42, 0
5, 40128, Note_on_c, 3, 54, 100
5, 40128, Note_on_c, 3, 42, 100
5, 40288, Note_off_c, 3, 54, 0
5, 40288, Note_off_c, 3, 42, 0
5, 40320, Note_on_c, 3, 54, 100
5, 40320, Note_on_c, 3, 42, 100
5, 40480, Note_off_c, 3, 54, 0
5, 40480, Note_off_c, 3, 42, 0
5, 40512, Note_on_c, 3, 54, 100
5, 40512, Note_on_c, 3, 42, 100
5, 40672, Note_off_c, 3, 54, 0
5, 40672, Note_off_c, 3, 42, 0
5, 40704, Note_on_c, 3, 54, 100
5, 40704, Note_on_c, 3, 42, 100
5, 40864, Note_off_c, 3, 54, 0
5, 40864, Note_off_c, 3, 42, 0
5, 40896, Note_on_c, 3, 54, 100
5, 40896, Note_on_c, 3, 42, 100
5, 41056, Note_off_c, 3, 54, 0
5, 41056, Note_off_c, 3, 42, 0
5, 41088, Note_on_c, 3, 54, 100
5, 41088, Note_on_c, 3, 42, 100
5, 41248, Note_off_c, 3, 54, 0
5, 41248, Note_off_c, 3, 42, 0
5, 41280, Note_on_c, 3, 54, 100
5, 41280, Note_on_c, 3, 42, 100
5, 41440, Note_off_c, 3, 54, 0
5, 41440, Note_off_c, 3, 42, 0
5, 41472, Note_on_c, 3, 54, 100
5, 41472, Note_on_c, 3, 42, 100
5, 41632, Note_off_c, 3, 54, 0
5, 41632, Note_off_c, 3, 42, 0
5, 41664, Note_on_c, 3, 54, 100
5, 41664, Note_on_c, 3, 42, 100
5, 41824, Note_off_c, 3, 54, 0
5, 41824, Note_off_c, 3, 42, 0
5, 41856, Note_on_c, 3, 54, 100
5, 41856, Note_on_c, 3, 42, 100
5, 42016, Note_off_c, 3, 54, 0
5, 42016, Note_off_c, 3, 42, 0
5, 42048, Note_on_c, 3, 54, 100
5, 42048, Note_on_c, 3, 42, 100
5, 42208, Note_off_c, 3, 54, 0
5, 42208, Note_off_c, 3, 42, 0
5, 42240, Note_on_c, 3, 54, 100
5, 42240, Note_on_c, 3, 42, 100
5, 42400, Note_off_c, 3, 54, 0
5, 42400, Note_off_c, 3, 42, 0
5, 42432, Note_on_c, 3, 54, 100
5, 42432, Note_on_c, 3, 42, 100
5, 42592, Note_off_c, 3, 54, 0
5, 42592, Note_off_c, 3, 42, 0
5, 42624, Note_on_c, 3, 54, 100
5, 42624, Note_on_c, 3, 42, 100
5, 42784, Note_off_c, 3, 54, 0
5, 42784, Note_off_c, 3, 42, 0
5, 42816, Note_on_c, 3, 54, 100
5, 42816, Note_on_c, 3, 42, 100
5, 42976, Note_off_c, 3, 54, 0
5, 42976, Note_off_c, 3, 42, 0
5, 43008, Note_on_c, 3, 52, 100
5, 43008, Note_on_c, 3, 40, 100
5, 43328, Note_off_c, 3, 52, 0
5, 43328, Note_off_c, 3, 40, 0
5, 43392, Note_on_c, 3, 56, 100
5, 43392, Note_on_c, 3, 59, 100
5, 43392, Note_on_c, 3, 52, 100
5, 43632, Note_off_c, 3, 56, 0
5, 43632, Note_off_c, 3, 59, 0
5, 43632, Note_off_c, 3, 52, 0
5, 43680, Note_on_c, 3, 59, 105
5, 43680, Note_on_c, 3, 56, 105
5, 43680, Note_on_c, 3, 52, 105
5, 43760, Note_off_c, 3, 59, 0
5, 43760, Note_off_c, 3, 56, 0
5, 43760, Note_off_c, 3, 52, 0
5, 43776, Note_on_c, 3, 57, 100
5, 43776, Note_on_c, 3, 61, 100
5, 43776, Note_on_c, 3, 52, 100
5, 44096, Note_off_c, 3, 57, 0
5, 44096, Note_off_c, 3, 61, 0
5, 44096, Note_off_c, 3, 52, 0
5, 44160, Note_on_c, 3, 52, 100
5, 44160, Note_on_c, 3, 57, 100
5, 44160, Note_on_c, 3, 61, 100
5, 44400, Note_off_c, 3, 52, 0
5, 44400, Note_off_c, 3, 57, 0
5, 44400, Note_off_c, 3, 61, 0
5, 44448, Note_on_c, 3, 61, 100
5, 44448, Note_on_c, 3, 57, 100
5, 44448, Note_on_c, 3, 52, 100
5, 44528, Note_off_c, 3, 61, 0
5, 44528, Note_off_c, 3, 57, 0
5, 44528, Note_off_c, 3, 52, 0
5, 44544, Note_on_c, 3, 59, 100
5, 44544, Note_on_c, 3, 52, 100
5, 44864, Note_off_c, 3, 59, 0
5, 44864, Note_off_c, 3, 52, 0
5, 44928, Note_on_c, 3, 56, 100
5, 44928, Note_on_c, 3, 52, 100
5, 44928, Note_on_c, 3, 59, 100
5, 45168, Note_off_c, 3, 56, 0
5, 45168, Note_off_c, 3, 52, 0
5, 45168, Note_off_c, 3, 59, 0
5, 45216, Note_on_c, 3, 59, 105
5, 45216, Note_on_c, 3, 56, 105
5, 45216, Note_on_c, 3, 52, 105
5, 45296, Note_off_c, 3, 59, 0
5, 45296, Note_off_c, 3, 56, 0
5, 45296, Note_off_c, 3, 52, 0
5, 45312, Note_on_c, 3, 61, 100
5, 45312, Note_on_c, 3, 57, 100
5, 45312, Note_on_c, 3, 52, 100
5, 45632, Note_off_c, 3, 61, 0
5, 45632, Note_off_c, 3, 57, 0
5, 45632, Note_off_c, 3, 52, 0
5, 45696, Note_on_c, 3, 61, 100
5, 45696, Note_on_c, 3, 57, 100
5, 45696, Note_on_c, 3, 52, 100
5, 45936, Note_off_c, 3, 61, 0
5, 45936, Note_off_c, 3, 57, 0
5, 45936, Note_off_c, 3, 52, 0
5, 45984, Note_on_c, 3, 61, 105
5, 45984, Note_on_c, 3, 57, 105
5, 45984, Note_on_c, 3, 52, 105
5, 46064, Note_off_c, 3, 61, 0
5, 46064, Note_off_c, 3, 57, 0
5, 46064, Note_off_c, 3, 52, 0
5, 46080, Note_on_c, 3, 59, 100
5, 46080, Note_on_c, 3, 56, 100
5, 46080, Note_on_c, 3, 52, 100
5, 46240, Note_off_c, 3, 59, 0
5, 46240, Note_off_c, 3, 56, 0
5, 46240, Note_off_c, 3, 52, 0
5, 46464, Note_on_c, 3, 52, 100
5, 46464, Note_on_c, 3, 40, 100
5, 46624, Note_off_c, 3, 52, 0
5, 46624, Note_off_c, 3, 40, 0
5, 53760, Note_on_c, 3, 57, 75
5, 53760, Note_on_c, 3, 49, 75
5, 54080, Note_off_c, 3, 57, 0
5, 54080, Note_off_c, 3, 49, 0
5, 54528, Note_on_c, 3, 54, 75
5, 54528, Note_on_c, 3, 42, 75
5, 54848, Note_off_c, 3, 54, 0
5, 54848, Note_off_c, 3, 42, 0
5, 55296, Note_on_c, 3, 47, 75
5, 55296, Note_on_c, 3, 35, 75
5, 55616, Note_off_c, 3, 47, 0
5, 55616, Note_off_c, 3, 35, 0
5, 56064, Note_on_c, 3, 52, 75
5, 56064, Note_on_c, 3, 40, 75
5, 56384, Note_off_c, 3, 52, 0
5, 56384, Note_off_c, 3, 40, 0
5, 56832, Note_on_c, 3, 45, 75
5, 56832, Note_on_c, 3, 33, 75
5, 57152, Note_off_c, 3, 45, 0
5, 57152, Note_off_c, 3, 33, 0
5, 57984, Note_on_c, 3, 61, 75
5, 57984, Note_on_c, 3, 51, 75
5, 58144, Note_off_c, 3, 61, 0
5, 58144, Note_off_c, 3, 51, 0
5, 58368, Note_on_c, 3, 52, 75
5, 58688, Note_off_c, 3, 52, 0
5, 58752, Note_on_c, 3, 52, 75
5, 59072, Note_off_c, 3, 52, 0
5, 59136, Note_on_c, 3, 52, 75
5, 59136, Note_on_c, 3, 40, 75
5, 59456, Note_off_c, 3, 52, 0
5, 59456, Note_off_c, 3, 40, 0
5, 59520, Note_on_c, 3, 61, 75
5, 59708, Note_off_c, 3, 61, 0
5, 59712, Note_on_c, 3, 62, 75
5, 59872, Note_off_c, 3, 62, 0
5, 59904, Note_on_c, 3, 66, 75
5, 59904, Note_on_c, 3, 57, 75
5, 60092, Note_off_c, 3, 66, 0
5, 60096, Note_on_c, 3, 64, 75
5, 60256, Note_off_c, 3, 64, 0
5, 60288, Note_on_c, 3, 64, 75
5, 60528, Note_off_c, 3, 64, 0
5, 60548, Note_off_c, 3, 57, 0
5, 60576, Note_on_c, 3, 64, 80
5, 60656, Note_off_c, 3, 64, 0
5, 60672, Note_on_c, 3, 64, 75
5, 60672, Note_on_c, 3, 56, 75
5, 60992, Note_off_c, 3, 64, 0
5, 61056, Note_on_c, 3, 64, 75
5, 61316, Note_off_c, 3, 56, 0
5, 61376, Note_off_c, 3, 64, 0
5, 61440, Note_on_c, 3, 54, 75
5, 61440, Note_on_c, 3, 64, 75
5, 61984, Note_off_c, 3, 64, 0
5, 62016, Note_on_c, 3, 66, 75
5, 62176, Note_off_c, 3, 66, 0
5, 62208, Note_on_c, 3, 64, 75
5, 62368, Note_off_c, 3, 64, 0
5, 62400, Note_on_c, 3, 63, 75
5, 62404, Note_off_c, 3, 54, 0
5, 62560, Note_off_c, 3, 63, 0
5, 62592, Note_on_c, 3, 62, 75
5, 62592, Note_on_c, 3, 52, 75
5, 62752, Note_off_c, 3, 62, 0
5, 62784, Note_on_c, 3, 61, 75
5, 62912, Note_off_c, 3, 52, 0
5, 62944, Note_off_c, 3, 61, 0
5, 62976, Note_on_c, 3, 51, 75
5, 62976, Note_on_c, 3, 61, 75
5, 63164, Note_off_c, 3, 61, 0
5, 63168, Note_on_c, 3, 59, 75
5, 63328, Note_off_c, 3, 59, 0
5, 63360, Note_on_c, 3, 59, 75
5, 63600, Note_off_c, 3, 59, 0
5, 63648, Note_on_c, 3, 59, 80
5, 63728, Note_off_c, 3, 59, 0
5, 63744, Note_on_c, 3, 59, 75
5, 64064, Note_off_c, 3, 59, 0
5, 64128, Note_on_c, 3, 59, 75
5, 64228, Note_off_c, 3, 51, 0
5, 64448, Note_off_c, 3, 59, 0
5, 64512, Note_on_c, 3, 56, 75
5, 64512, Note_on_c, 3, 50, 75
5, 65440, Note_off_c, 3, 56, 0
5, 65472, Note_on_c, 3, 59, 75
5, 65660, Note_off_c, 3, 59, 0
5, 65664, Note_on_c, 3, 57, 75
5, 65764, Note_off_c, 3, 50, 0
5, 65852, Note_off_c, 3, 57, 0
5, 65856, Note_on_c, 3, 56, 75
5, 66044, Note_off_c, 3, 56, 0
5, 66048, Note_on_c, 3, 54, 75
5, 66048, Note_on_c, 3, 49, 75
5, 66236, Note_off_c, 3, 54, 0
5, 66240, Note_on_c, 3, 52, 75
5, 66400, Note_off_c, 3, 52, 0
5, 66432, Note_on_c, 3, 52, 75
5, 66672, Note_off_c, 3, 52, 0
5, 66720, Note_on_c, 3, 52, 80
5, 66800, Note_off_c, 3, 52, 0
5, 66816, Note_on_c, 3, 52, 75
5, 67196, Note_off_c, 3, 52, 0
5, 67200, Note_on_c, 3, 53, 75
5, 67300, Note_off_c, 3, 49, 0
5, 67520, Note_off_c, 3, 53, 0
5, 67584, Note_on_c, 3, 54, 75
5, 67584, Note_on_c, 3, 50, 75
5, 67772, Note_off_c, 3, 54, 0
5, 67776, Note_on_c, 3, 56, 75
5, 67964, Note_off_c, 3, 56, 0
5, 67968, Note_on_c, 3, 57, 75
5, 68156, Note_off_c, 3, 57, 0
5, 68160, Note_on_c, 3, 58, 75
5, 68348, Note_off_c, 3, 58, 0
5, 68352, Note_on_c, 3, 59, 75
5, 68540, Note_off_c, 3, 59, 0
5, 68732, Note_off_c, 3, 50, 0
5, 68736, Note_on_c, 3, 49, 75
5, 68924, Note_off_c, 3, 49, 0
5, 68928, Note_on_c, 3, 47, 75
5, 69088, Note_off_c, 3, 47, 0
5, 69120, Note_on_c, 3, 61, 75
5, 69120, Note_on_c, 3, 52, 75
5, 69120, Note_on_c, 3, 45, 75
5, 69440, Note_off_c, 3, 61, 0
5, 69440, Note_off_c, 3, 52, 0
5, 69440, Note_off_c, 3, 45, 0
5, 69504, Note_on_c, 3, 57, 75
5, 69504, Note_on_c, 3, 49, 75
5, 69824, Note_off_c, 3, 57, 0
5, 69824, Note_off_c, 3, 49, 0
5, 69888, Note_on_c, 3, 52, 75
5, 70208, Note_off_c, 3, 52, 0
5, 70272, Note_on_c, 3, 56, 75
5, 70272, Note_on_c, 3, 52, 75
5, 70460, Note_off_c, 3, 56, 0
5, 70464, Note_on_c, 3, 59, 75
5, 70652, Note_off_c, 3, 59, 0
5, 70656, Note_on_c, 3, 57, 75
5, 70656, Note_on_c, 3, 45, 75
5, 70976, Note_off_c, 3, 57, 0
5, 70976, Note_off_c, 3, 45, 0
5, 70976, Note_off_c, 3, 52, 0
5, 75264, Note_on_c, 3, 62, 100
5, 75264, Note_on_c, 3, 50, 100
5, 75424, Note_off_c, 3, 62, 0
5, 75424, Note_off_c, 3, 50, 0
5, 75456, Note_on_c, 3, 62, 100
5, 75456, Note_on_c, 3, 50, 100
5, 75616, Note_off_c, 3, 62, 0
5, 75616, Note_off_c, 3, 50, 0
5, 75648, Note_on_c, 3, 62, 100
5, 75648, Note_on_c, 3, 50, 100
5, 75808, Note_off_c, 3, 62, 0
5, 75808, Note_off_c, 3, 50, 0
5, 75840, Note_on_c, 3, 62, 100
5, 75840, Note_on_c, 3, 50, 100
5, 76000, Note_off_c, 3, 62, 0
5, 76000, Note_off_c, 3, 50, 0
5, 76032, Note_on_c, 3, 66, 100
5, 76032, Note_on_c, 3, 62, 100
5, 76192, Note_off_c, 3, 66, 0
5, 76192, Note_off_c, 3, 62, 0
5, 76224, Note_on_c, 3, 66, 100
5, 76224, Note_on_c, 3, 62, 100
5, 76384, Note_off_c, 3, 66, 0
5, 76384, Note_off_c, 3, 62, 0
5, 76416, Note_on_c, 3, 66, 100
5, 76416, Note_on_c, 3, 62, 100
5, 76576, Note_off_c, 3, 66, 0
5, 76576, Note_off_c, 3, 62, 0
5, 76608, Note_on_c, 3, 66, 100
5, 76608, Note_on_c, 3, 62, 100
5, 76768, Note_off_c, 3, 66, 0
5, 76768, Note_off_c, 3, 62, 0
5, 76800, Note_on_c, 3, 64, 100
5, 76800, Note_on_c, 3, 59, 100
5, 76800, Note_on_c, 3, 56, 100
5, 77764, Note_off_c, 3, 64, 0
5, 77764, Note_off_c, 3, 59, 0
5, 77764, Note_off_c, 3, 56, 0
5, 77952, Note_on_c, 3, 57, 100
5, 77952, Note_on_c, 3, 61, 100
5, 77952, Note_on_c, 3, 64, 100
5, 78272, Note_off_c, 3, 57, 0
5, 78272, Note_off_c, 3, 61, 0
5, 78272, Note_off_c, 3, 64, 0
5, 78336, Note_on_c, 3, 59, 100
5, 78336, Note_on_c, 3, 54, 100
5, 78336, Note_on_c, 3, 50, 100
5, 78496, Note_off_c, 3, 59, 0
5, 78496, Note_off_c, 3, 54, 0
5, 78496, Note_off_c, 3, 50, 0
5, 78528, Note_on_c, 3, 59, 100
5, 78528, Note_on_c, 3, 54, 100
5, 78528, Note_on_c, 3, 50, 100
5, 78688, Note_off_c, 3, 59, 0
5, 78688, Note_off_c, 3, 54, 0
5, 78688, Note_off_c, 3, 50, 0
5, 78720, Note_on_c, 3, 59, 100
5, 78720, Note_on_c, 3, 54, 100
5, 78720, Note_on_c, 3, 50, 100
5, 78880, Note_off_c, 3, 59, 0
5, 78880, Note_off_c, 3, 54, 0
5, 78880, Note_off_c, 3, 50, 0
5, 78912, Note_on_c, 3, 59, 100
5, 78912, Note_on_c, 3, 54, 100
5, 78912, Note_on_c, 3, 50, 100
5, 79072, Note_off_c, 3, 59, 0
5, 79072, Note_off_c, 3, 54, 0
5, 79072, Note_off_c, 3, 50, 0
5, 79104, Note_on_c, 3, 57, 100
5, 79104, Note_on_c, 3, 61, 100
5, 79104, Note_on_c, 3, 52, 100
5, 79264, Note_off_c, 3, 57, 0
5, 79264, Note_off_c, 3, 61, 0
5, 79264, Note_off_c, 3, 52, 0
5, 79296, Note_on_c, 3, 61, 100
5, 79296, Note_on_c, 3, 52, 100
5, 79296, Note_on_c, 3, 57, 100
5, 79456, Note_off_c, 3, 61, 0
5, 79456, Note_off_c, 3, 52, 0
5, 79456, Note_off_c, 3, 57, 0
5, 79488, Note_on_c, 3, 59, 100
5, 79488, Note_on_c, 3, 52, 100
5, 79488, Note_on_c, 3, 62, 100
5, 79648, Note_off_c, 3, 59, 0
5, 79648, Note_off_c, 3, 52, 0
5, 79648, Note_off_c, 3, 62, 0
5, 79680, Note_on_c, 3, 52, 100
5, 79680, Note_on_c, 3, 59, 100
5, 79680, Note_on_c, 3, 62, 100
5, 79840, Note_off_c, 3, 52, 0
5, 79840, Note_off_c, 3, 59, 0
5, 79840, Note_off_c, 3, 62, 0
5, 79872, Note_on_c, 3, 57, 75
5, 79872, Note_on_c, 3, 54, 75
5, 80060, Note_off_c, 3, 57, 0
5, 80064, Note_on_c, 3, 61, 75
5, 80252, Note_off_c, 3, 61, 0
5, 80256, Note_on_c, 3, 66, 75
5, 80444, Note_off_c, 3, 66, 0
5, 80448, Note_on_c, 3, 61, 75
5, 80608, Note_off_c, 3, 61, 0
5, 80624, Note_on_c, 3, 53, 75
5, 80624, Note_on_c, 3, 53, 75
5, 80636, Note_off_c, 3, 54, 0
5, 80812, Note_off_c, 3, 53, 0
5, 80832, Note_on_c, 3, 61, 75
5, 81020, Note_off_c, 3, 61, 0
5, 81024, Note_on_c, 3, 68, 75
5, 81212, Note_off_c, 3, 68, 0
5, 81216, Note_on_c, 3, 61, 75
5, 81268, Note_off_c, 3, 53, 0
5, 81376, Note_off_c, 3, 61, 0
5, 81408, Note_on_c, 3, 57, 75
5, 81408, Note_on_c, 3, 54, 75
5, 81596, Note_off_c, 3, 57, 0
5, 81600, Note_on_c, 3, 61, 75
5, 81788, Note_off_c, 3, 61, 0
5, 81792, Note_on_c, 3, 66, 75
5, 81980, Note_off_c, 3, 66, 0
5, 81984, Note_on_c, 3, 61, 75
5, 82144, Note_off_c, 3, 61, 0
5, 82160, Note_on_c, 3, 53, 75
5, 82160, Note_on_c, 3, 53, 75
5, 82172, Note_off_c, 3, 54, 0
5, 82348, Note_off_c, 3, 53, 0
5, 82368, Note_on_c, 3, 61, 75
5, 82556, Note_off_c, 3, 61, 0
5, 82560, Note_on_c, 3, 68, 75
5, 82748, Note_off_c, 3, 68, 0
5, 82752, Note_on_c, 3, 61, 75
5, 82804, Note_off_c, 3, 53, 0
5, 82912, Note_off_c, 3, 61, 0
5, 82944, Note_on_c, 3, 57, 75
5, 82944, Note_on_c, 3, 54, 75
5, 83132, Note_off_c, 3, 57, 0
5, 83136, Note_on_c, 3, 61, 75
5, 83324, Note_off_c, 3, 61, 0
5, 83328, Note_on_c, 3, 66, 75
5, 83516, Note_off_c, 3, 66, 0
5, 83520, Note_on_c, 3, 61, 75
5, 83680, Note_off_c, 3, 61, 0
5, 83708, Note_off_c, 3, 54, 0
5, 83712, Note_on_c, 3, 53, 75
5, 83712, Note_on_c, 3, 53, 75
5, 83900, Note_off_c, 3, 53, 0
5, 83904, Note_on_c, 3, 61, 75
5, 84092, Note_off_c, 3, 61, 0
5, 84096, Note_on_c, 3, 68, 75
5, 84284, Note_off_c, 3, 68, 0
5, 84288, Note_on_c, 3, 61, 75
5, 84356, Note_off_c, 3, 53, 0
5, 84448, Note_off_c, 3, 61, 0
5, 84480, Note_on_c, 3, 57, 76
5, 84480, Note_on_c, 3, 54, 76
5, 84800, Note_off_c, 3, 57, 0
5, 84800, Note_off_c, 3, 54, 0
5, 84864, Note_on_c, 3, 57, 82
5, 84864, Note_on_c, 3, 54, 82
5, 85104, Note_off_c, 3, 57, 0
5, 85152, Note_on_c, 3, 57, 92
5, 85232, Note_off_c, 3, 57, 0
5, 85248, Note_on_c, 3, 57, 89
5, 85508, Note_off_c, 3, 54, 0
5, 85568, Note_off_c, 3, 57, 0
5, 85632, Note_on_c, 3, 61, 95
5, 85632, Note_on_c, 3, 57, 95
5, 85632, Note_on_c, 3, 55, 95
5, 85632, Note_on_c, 3, 52, 95
5, 85952, Note_off_c, 3, 61, 0
5, 85952, Note_off_c, 3, 57, 0
5, 85952, Note_off_c, 3, 55, 0
5, 85952, Note_off_c, 3, 52, 0
5, 86016, Note_on_c, 3, 62, 100
5, 86016, Note_on_c, 3, 50, 100
5, 86176, Note_off_c, 3, 62, 0
5, 86176, Note_off_c, 3, 50, 0
5, 86208, Note_on_c, 3, 62, 100
5, 86208, Note_on_c, 3, 50, 100
5, 86368, Note_off_c, 3, 62, 0
5, 86368, Note_off_c, 3, 50, 0
5, 86400, Note_on_c, 3, 62, 100
5, 86400, Note_on_c, 3, 50, 100
5, 86560, Note_off_c, 3, 62, 0
5, 86560, Note_off_c, 3, 50, 0
5, 86592, Note_on_c, 3, 62, 100
5, 86592, Note_on_c, 3, 50, 100
5, 86752, Note_off_c, 3, 62, 0
5, 86752, Note_off_c, 3, 50, 0
5, 86784, Note_on_c, 3, 62, 100
5, 86784, Note_on_c, 3, 66, 100
5, 86944, Note_off_c, 3, 62, 0
5, 86944, Note_off_c, 3, 66, 0
5, 86976, Note_on_c, 3, 62, 100
5, 86976, Note_on_c, 3, 66, 100
5, 87136, Note_off_c, 3, 62, 0
5, 87136, Note_off_c, 3, 66, 0
5, 87168, Note_on_c, 3, 61, 100
5, 87168, Note_on_c, 3, 64, 100
5, 87328, Note_off_c, 3, 61, 0
5, 87328, Note_off_c, 3, 64, 0
5, 87360, Note_on_c, 3, 61, 100
5, 87360, Note_on_c, 3, 64, 100
5, 87520, Note_off_c, 3, 61, 0
5, 87520, Note_off_c, 3, 64, 0
5, 87552, Note_on_c, 3, 59, 100
5, 87552, Note_on_c, 3, 56, 100
5, 87552, Note_on_c, 3, 64, 100
5, 88700, Note_off_c, 3, 59, 0
5, 88700, Note_off_c, 3, 56, 0
5, 88700, Note_off_c, 3, 64, 0
5, 88704, Note_on_c, 3, 64, 100
5, 88704, Note_on_c, 3, 61, 100
5, 88704, Note_on_c, 3, 57, 100
5, 89084, Note_off_c, 3, 64, 0
5, 89084, Note_off_c, 3, 61, 0
5, 89084, Note_off_c, 3, 57, 0
5, 89088, Note_on_c, 3, 59, 100
5, 89088, Note_on_c, 3, 54, 100
5, 89088, Note_on_c, 3, 50, 100
5, 89248, Note_off_c, 3, 59, 0
5, 89248, Note_off_c, 3, 54, 0
5, 89248, Note_off_c, 3, 50, 0
5, 89280, Note_on_c, 3, 59, 100
5, 89280, Note_on_c, 3, 50, 100
5, 89280, Note_on_c, 3, 54, 100
5, 89440, Note_off_c, 3, 59, 0
5, 89440, Note_off_c, 3, 50, 0
5, 89440, Note_off_c, 3, 54, 0
5, 89472, Note_on_c, 3, 59, 100
5, 89472, Note_on_c, 3, 54, 100
5, 89472, Note_on_c, 3, 50, 100
5, 89632, Note_off_c, 3, 59, 0
5, 89632, Note_off_c, 3, 54, 0
5, 89632, Note_off_c, 3, 50, 0
5, 89664, Note_on_c, 3, 59, 100
5, 89664, Note_on_c, 3, 54, 100
5, 89664, Note_on_c, 3, 50, 100
5, 89824, Note_off_c, 3, 59, 0
5, 89824, Note_off_c, 3, 54, 0
5, 89824, Note_off_c, 3, 50, 0
5, 89856, Note_on_c, 3, 57, 100
5, 89856, Note_on_c, 3, 61, 100
5, 89856, Note_on_c, 3, 52, 100
5, 90016, Note_off_c, 3, 57, 0
5, 90016, Note_off_c, 3, 61, 0
5, 90016, Note_off_c, 3, 52, 0
5, 90048, Note_on_c, 3, 57, 100
5, 90048, Note_on_c, 3, 61, 100
5, 90048, Note_on_c, 3, 52, 100
5, 90208, Note_off_c, 3, 57, 0
5, 90208, Note_off_c, 3, 61, 0
5, 90208, Note_off_c, 3, 52, 0
5, 90240, Note_on_c, 3, 59, 100
5, 90240, Note_on_c, 3, 62, 100
5, 90240, Note_on_c, 3, 52, 100
5, 90400, Note_off_c, 3, 59, 0
5, 90400, Note_off_c, 3, 62, 0
5, 90400, Note_off_c, 3, 52, 0
5, 90432, Note_on_c, 3, 59, 100
5, 90432, Note_on_c, 3, 62, 100
5, 90432, Note_on_c, 3, 52, 100
5, 90592, Note_off_c, 3, 59, 0
5, 90592, Note_off_c, 3, 62, 0
5, 90592, Note_off_c, 3, 52, 0
5, 90624, Note_on_c, 3, 64, 100
5, 90624, Note_on_c, 3, 59, 100
5, 90624, Note_on_c, 3, 56, 100
5, 91772, Note_off_c, 3, 64, 0
5, 91772, Note_off_c, 3, 59, 0
5, 91772, Note_off_c, 3, 56, 0
5, 91776, Note_on_c, 3, 61, 100
5, 91776, Note_on_c, 3, 64, 100
5, 91776, Note_on_c, 3, 57, 100
5, 92096, Note_off_c, 3, 61, 0
5, 92096, Note_off_c, 3, 64, 0
5, 92096, Note_off_c, 3, 57, 0
5, 92160, Note_on_c, 3, 59, 100
5, 92160, Note_on_c, 3, 56, 100
5, 92160, Note_on_c, 3, 64, 100
5, 93308, Note_off_c, 3, 59, 0
5, 93308, Note_off_c, 3, 56, 0
5, 93308, Note_off_c, 3, 64, 0
5, 93312, Note_on_c, 3, 64, 100
5, 93312, Note_on_c, 3, 61, 100
5, 93312, Note_on_c, 3, 57, 100
5, 93632, Note_off_c, 3, 64, 0
5, 93632, Note_off_c, 3, 61, 0
5, 93632, Note_off_c, 3, 57, 0
5, 93696, Note_on_c, 3, 50, 100
5, 93696, Note_on_c, 3, 54, 100
5, 93696, Note_on_c, 3, 59, 100
5, 93856, Note_off_c, 3, 50, 0
5, 93856, Note_off_c, 3, 54, 0
5, 93856, Note_off_c, 3, 59, 0
5, 93888, Note_on_c, 3, 59, 100
5, 93888, Note_on_c, 3, 54, 100
5, 93888, Note_on_c, 3, 50, 100
5, 94048, Note_off_c, 3, 59, 0
5, 94048, Note_off_c, 3, 54, 0
5, 94048, Note_off_c, 3, 50, 0
5, 94080, Note_on_c, 3, 59, 100
5, 94080, Note_on_c, 3, 54, 100
5, 94080, Note_on_c, 3, 50, 100
5, 94240, Note_off_c, 3, 59, 0
5, 94240, Note_off_c, 3, 54, 0
5, 94240, Note_off_c, 3, 50, 0
5, 94272, Note_on_c, 3, 59, 100
5, 94272, Note_on_c, 3, 54, 100
5, 94272, Note_on_c, 3, 50, 100
5, 94432, Note_off_c, 3, 59, 0
5, 94432, Note_off_c, 3, 54, 0
5, 94432, Note_off_c, 3, 50, 0
5, 94464, Note_on_c, 3, 61, 100
5, 94464, Note_on_c, 3, 57, 100
5, 94464, Note_on_c, 3, 52, 100
5, 94624, Note_off_c, 3, 61, 0
5, 94624, Note_off_c, 3, 57, 0
5, 94624, Note_off_c, 3, 52, 0
5, 94656, Note_on_c, 3, 61, 100
5, 94656, Note_on_c, 3, 57, 100
5, 94656, Note_on_c, 3, 52, 100
5, 94816, Note_off_c, 3, 61, 0
5, 94816, Note_off_c, 3, 57, 0
5, 94816, Note_off_c, 3, 52, 0
5, 94848, Note_on_c, 3, 62, 100
5, 94848, Note_on_c, 3, 52, 100
5, 94848, Note_on_c, 3, 59, 100
5, 95008, Note_off_c, 3, 62, 0
5, 95008, Note_off_c, 3, 52, 0
5, 95008, Note_off_c, 3, 59, 0
5, 95040, Note_on_c, 3, 62, 100
5, 95040, Note_on_c, 3, 59, 100
5, 95040, Note_on_c, 3, 52, 100
5, 95200, Note_off_c, 3, 62, 0
5, 95200, Note_off_c, 3, 59, 0
5, 95200, Note_off_c, 3, 52, 0
5, 95232, Note_on_c, 3, 57, 100
5, 95232, Note_on_c, 3, 45, 100
5, 95552, Note_off_c, 3, 57, 0
5, 95552, Note_off_c, 3, 45, 0
5, 96000, Note_on_c, 3, 63, 75
5, 96188, Note_off_c, 3, 63, 0
5, 96192, Note_on_c, 3, 64, 75
5, 96380, Note_off_c, 3, 64, 0
5, 96384, Note_on_c, 3, 66, 75
5, 96572, Note_off_c, 3, 66, 0
5, 96576, Note_on_c, 3, 64, 75
5, 96736, Note_off_c, 3, 64, 0
5, 96768, Note_on_c, 3, 61, 75
5, 96768, Note_on_c, 3, 57, 75
5, 96768, Note_on_c, 3, 54, 75
5, 97148, Note_off_c, 3, 61, 0
5, 97148, Note_off_c, 3, 57, 0
5, 97148, Note_off_c, 3, 54, 0
5, 97536, Note_on_c, 3, 64, 75
5, 97536, Note_on_c, 3, 56, 75
5, 97536, Note_on_c, 3, 52, 75
5, 97856, Note_off_c, 3, 64, 0
5, 97856, Note_off_c, 3, 56, 0
5, 97856, Note_off_c, 3, 52, 0
5, 99840, Note_on_c, 3, 63, 75
5, 99840, Note_on_c, 3, 60, 75
5, 99840, Note_on_c, 3, 57, 75
5, 99840, Note_on_c, 3, 54, 75
5, 100484, Note_off_c, 3, 63, 0
5, 100484, Note_off_c, 3, 60, 0
5, 100484, Note_off_c, 3, 57, 0
5, 100484, Note_off_c, 3, 54, 0
5, 100608, Note_on_c, 3, 61, 75
5, 100608, Note_on_c, 3, 64, 75
5, 100608, Note_on_c, 3, 57, 75
5, 100608, Note_on_c, 3, 52, 75
5, 100768, Note_off_c, 3, 61, 0
5, 100768, Note_off_c, 3, 64, 0
5, 100768, Note_off_c, 3, 57, 0
5, 100768, Note_off_c, 3, 52, 0
5, 100992, Note_on_c, 3, 64, 75
5, 100992, Note_on_c, 3, 62, 75
5, 100992, Note_on_c, 3, 56, 75
5, 100992, Note_on_c, 3, 52, 75
5, 101152, Note_off_c, 3, 64, 0
5, 101152, Note_off_c, 3, 62, 0
5, 101152, Note_off_c, 3, 56, 0
5, 101152, Note_off_c, 3, 52, 0
5, 101376, Note_on_c, 3, 64, 75
5, 101376, Note_on_c, 3, 61, 75
5, 101376, Note_on_c, 3, 57, 75
5, 101696, Note_off_c, 3, 64, 0
5, 101696, Note_off_c, 3, 61, 0
5, 101696, Note_off_c, 3, 57, 0
5, 101760, Note_on_c, 3, 57, 100
5, 101760, Note_on_c, 3, 45, 100
5, 102080, Note_off_c, 3, 57, 0
5, 102080, Note_off_c, 3, 45, 0
5, 102144, Note_on_c, 3, 45, 100
5, 102144, Note_on_c, 3, 33, 100
5, 102464, Note_off_c, 3, 45, 0
5, 102464, Note_off_c, 3, 33, 0
5, 109440, Note_on_c, 3, 61, 75
5, 109440, Note_on_c, 3, 49, 75
5, 109820, Note_off_c, 3, 61, 0
5, 109820, Note_off_c, 3, 49, 0
5, 109824, Note_on_c, 3, 59, 75
5, 109824, Note_on_c, 3, 47, 75
5, 110204, Note_off_c, 3, 59, 0
5, 110204, Note_off_c, 3, 47, 0
5, 110208, Note_on_c, 3, 52, 75
5, 110208, Note_on_c, 3, 40, 75
5, 110528, Note_off_c, 3, 52, 0
5, 110528, Note_off_c, 3, 40, 0
5, 110976, Note_on_c, 3, 54, 75
5, 110976, Note_on_c, 3, 42, 75
5, 111356, Note_off_c, 3, 54, 0
5, 111356, Note_off_c, 3, 42, 0
5, 111360, Note_on_c, 3, 50, 75
5, 111360, Note_on_c, 3, 38, 75
5, 111740, Note_off_c, 3, 50, 0
5, 111740, Note_off_c, 3, 38, 0
5, 111744, Note_on_c, 3, 56, 75
5, 111744, Note_on_c, 3, 44, 75
5, 111744, Note_on_c, 3, 32, 75
5, 112124, Note_off_c, 3, 56, 0
5, 112124, Note_off_c, 3, 44, 0
5, 112124, Note_off_c, 3, 32, 0
5, 112128, Note_on_c, 3, 57, 75
5, 112128, Note_on_c, 3, 45, 75
5, 112128, Note_on_c, 3, 33, 75
5, 112448, Note_off_c, 3, 57, 0
5, 112448, Note_off_c, 3, 45, 0
5, 112448, Note_off_c, 3, 33, 0
5, 115200, Note_on_c, 3, 64, 75
5, 115200, Note_on_c, 3, 57, 75
5, 116548, Note_off_c, 3, 64, 0
5, 116736, Note_on_c, 3, 66, 75
5, 117700, Note_off_c, 3, 66, 0
5, 117888, Note_on_c, 3, 62, 75
5, 118208, Note_off_c, 3, 62, 0
5, 118272, Note_on_c, 3, 61, 75
5, 118592, Note_off_c, 3, 61, 0
5, 118592, Note_off_c, 3, 57, 0
5, 121344, Note_on_c, 3, 61, 75
5, 121344, Note_on_c, 3, 49, 75
5, 122876, Note_off_c, 3, 61, 0
5, 122876, Note_off_c, 3, 49, 0
5, 122880, Note_on_c, 3, 59, 75
5, 122880, Note_on_c, 3, 47, 75
5, 124228, Note_off_c, 3, 59, 0
5, 124228, Note_off_c, 3, 47, 0
5, 124416, Note_on_c, 3, 57, 75
5, 124416, Note_on_c, 3, 45, 75
5, 124576, Note_off_c, 3, 57, 0
5, 124576, Note_off_c, 3, 45, 0
5, 124800, Note_on_c, 3, 50, 75
5, 124960, Note_off_c, 3, 50, 0
5, 125184, Note_on_c, 3, 52, 75
5, 125344, Note_off_c, 3, 52, 0
5, 125568, Note_on_c, 3, 52, 75
5, 125728, Note_off_c, 3, 52, 0
5, 125952, Note_on_c, 3, 64, 100
5, 125952, Note_on_c, 3, 61, 100
5, 125952, Note_on_c, 3, 57, 100
5, 126112, Note_off_c, 3, 64, 0
5, 126112, Note_off_c, 3, 61, 0
5, 126112, Note_off_c, 3, 57, 0
5, 126144, Note_on_c, 3, 64, 100
5, 126144, Note_on_c, 3, 61, 100
5, 126144, Note_on_c, 3, 57, 100
5, 126304, Note_off_c, 3, 64, 0
5, 126304, Note_off_c, 3, 61, 0
5, 126304, Note_off_c, 3, 57, 0
5, 126336, Note_on_c, 3, 64, 100
5, 126336, Note_on_c, 3, 61, 100
5, 126336, Note_on_c, 3, 57, 100
5, 126496, Note_off_c, 3, 64, 0
5, 126496, Note_off_c, 3, 61, 0
5, 126496, Note_off_c, 3, 57, 0
5, 126528, Note_on_c, 3, 64, 100
5, 126528, Note_on_c, 3, 61, 100
5, 126528, Note_on_c, 3, 57, 100
5, 126688, Note_off_c, 3, 64, 0
5, 126688, Note_off_c, 3, 61, 0
5, 126688, Note_off_c, 3, 57, 0
5, 126720, Note_on_c, 3, 64, 100
5, 126720, Note_on_c, 3, 57, 100
5, 126720, Note_on_c, 3, 61, 100
5, 126880, Note_off_c, 3, 64, 0
5, 126880, Note_off_c, 3, 57, 0
5, 126880, Note_off_c, 3, 61, 0
5, 126912, Note_on_c, 3, 64, 100
5, 126912, Note_on_c, 3, 61, 100
5, 126912, Note_on_c, 3, 57, 100
5, 127072, Note_off_c, 3, 64, 0
5, 127072, Note_off_c, 3, 61, 0
5, 127072, Note_off_c, 3, 57, 0
5, 127104, Note_on_c, 3, 64, 100
5, 127104, Note_on_c, 3, 61, 100
5, 127104, Note_on_c, 3, 55, 100
5, 127264, Note_off_c, 3, 64, 0
5, 127264, Note_off_c, 3, 61, 0
5, 127264, Note_off_c, 3, 55, 0
5, 127296, Note_on_c, 3, 64, 100
5, 127296, Note_on_c, 3, 61, 100
5, 127296, Note_on_c, 3, 55, 100
5, 127456, Note_off_c, 3, 64, 0
5, 127456, Note_off_c, 3, 61, 0
5, 127456, Note_off_c, 3, 55, 0
5, 127488, Note_on_c, 3, 64, 100
5, 127488, Note_on_c, 3, 57, 100
5, 127488, Note_on_c, 3, 54, 100
5, 127648, Note_off_c, 3, 64, 0
5, 127648, Note_off_c, 3, 57, 0
5, 127648, Note_off_c, 3, 54, 0
5, 127680, Note_on_c, 3, 62, 100
5, 127680, Note_on_c, 3, 57, 100
5, 127680, Note_on_c, 3, 54, 100
5, 127840, Note_off_c, 3, 62, 0
5, 127840, Note_off_c, 3, 57, 0
5, 127840, Note_off_c, 3, 54, 0
5, 127872, Note_on_c, 3, 62, 100
5, 127872, Note_on_c, 3, 57, 100
5, 127872, Note_on_c, 3, 54, 100
5, 128032, Note_off_c, 3, 62, 0
5, 128032, Note_off_c, 3, 57, 0
5, 128032, Note_off_c, 3, 54, 0
5, 128064, Note_on_c, 3, 62, 100
5, 128064, Note_on_c, 3, 57, 100
5, 128064, Note_on_c, 3, 54, 100
5, 128224, Note_off_c, 3, 62, 0
5, 128224, Note_off_c, 3, 57, 0
5, 128224, Note_off_c, 3, 54, 0
5, 128256, Note_on_c, 3, 62, 100
5, 128256, Note_on_c, 3, 57, 100
5, 128256, Note_on_c, 3, 54, 100
5, 128416, Note_off_c, 3, 62, 0
5, 128416, Note_off_c, 3, 57, 0
5, 128416, Note_off_c, 3, 54, 0
5, 128448, Note_on_c, 3, 62, 100
5, 128448, Note_on_c, 3, 57, 100
5, 128448, Note_on_c, 3, 54, 100
5, 128608, Note_off_c, 3, 62, 0
5, 128608, Note_off_c, 3, 57, 0
5, 128608, Note_off_c, 3, 54, 0
5, 128640, Note_on_c, 3, 62, 100
5, 128640, Note_on_c, 3, 54, 100
5, 128640, Note_on_c, 3, 57, 100
5, 128800, Note_off_c, 3, 62, 0
5, 128800, Note_off_c, 3, 54, 0
5, 128800, Note_off_c, 3, 57, 0
5, 128832, Note_on_c, 3, 62, 100
5, 128832, Note_on_c, 3, 57, 100
5, 128832, Note_on_c, 3, 54, 100
5, 128992, Note_off_c, 3, 62, 0
5, 128992, Note_off_c, 3, 57, 0
5, 128992, Note_off_c, 3, 54, 0
5, 129024, Note_on_c, 3, 61, 100
5, 129024, Note_on_c, 3, 52, 100
5, 129024, Note_on_c, 3, 57, 100
5, 129184, Note_off_c, 3, 61, 0
5, 129184, Note_off_c, 3, 52, 0
5, 129184, Note_off_c, 3, 57, 0
5, 129216, Note_on_c, 3, 61, 100
5, 129216, Note_on_c, 3, 57, 100
5, 129216, Note_on_c, 3, 52, 100
5, 129376, Note_off_c, 3, 61, 0
5, 129376, Note_off_c, 3, 57, 0
5, 129376, Note_off_c, 3, 52, 0
5, 129408, Note_on_c, 3, 61, 100
5, 129408, Note_on_c, 3, 57, 100
5, 129408, Note_on_c, 3, 52, 100
5, 129568, Note_off_c, 3, 61, 0
5, 129568, Note_off_c, 3, 57, 0
5, 129568, Note_off_c, 3, 52, 0
5, 129600, Note_on_c, 3, 61, 100
5, 129600, Note_on_c, 3, 57, 100
5, 129600, Note_on_c, 3, 52, 100
5, 129760, Note_off_c, 3, 61, 0
5, 129760, Note_off_c, 3, 57, 0
5, 129760, Note_off_c, 3, 52, 0
5, 129792, Note_on_c, 3, 61, 100
5, 129792, Note_on_c, 3, 57, 100
5, 129792, Note_on_c, 3, 52, 100
5, 129952, Note_off_c, 3, 61, 0
5, 129952, Note_off_c, 3, 57, 0
5, 129952, Note_off_c, 3, 52, 0
5, 129984, Note_on_c, 3, 62, 100
5, 129984, Note_on_c, 3, 50, 100
5, 130144, Note_off_c, 3, 62, 0
5, 130144, Note_off_c, 3, 50, 0
5, 130176, Note_on_c, 3, 61, 100
5, 130176, Note_on_c, 3, 49, 100
5, 130336, Note_off_c, 3, 61, 0
5, 130336, Note_off_c, 3, 49, 0
5, 130368, Note_on_c, 3, 59, 100
5, 130368, Note_on_c, 3, 47, 100
5, 130528, Note_off_c, 3, 59, 0
5, 130528, Note_off_c, 3, 47, 0
5, 130560, Note_on_c, 3, 57, 100
5, 130560, Note_on_c, 3, 45, 100
5, 130720, Note_off_c, 3, 57, 0
5, 130720, Note_off_c, 3, 45, 0
5, 130752, Note_on_c, 3, 57, 100
5, 130752, Note_on_c, 3, 45, 100
5, 130912, Note_off_c, 3, 57, 0
5, 130912, Note_off_c, 3, 45, 0
5, 130944, Note_on_c, 3, 57, 100
5, 130944, Note_on_c, 3, 45, 100
5, 131104, Note_off_c, 3, 57, 0
5, 131104, Note_off_c, 3, 45, 0
5, 131136, Note_on_c, 3, 57, 100
5, 131136, Note_on_c, 3, 45, 100
5, 131296, Note_off_c, 3, 57, 0
5, 131296, Note_off_c, 3, 45, 0
5, 131328, Note_on_c, 3, 57, 100
5, 131328, Note_on_c, 3, 45, 100
5, 131488, Note_off_c, 3, 57, 0
5, 131488, Note_off_c, 3, 45, 0
5, 131520, Note_on_c, 3, 57, 100
5, 131520, Note_on_c, 3, 45, 100
5, 131680, Note_off_c, 3, 57, 0
5, 131680, Note_off_c, 3, 45, 0
5, 131712, Note_on_c, 3, 57, 100
5, 131712, Note_on_c, 3, 49, 100
5, 131872, Note_off_c, 3, 57, 0
5, 131872, Note_off_c, 3, 49, 0
5, 131904, Note_on_c, 3, 57, 100
5, 131904, Note_on_c, 3, 49, 100
5, 132064, Note_off_c, 3, 57, 0
5, 132064, Note_off_c, 3, 49, 0
5, 132096, Note_on_c, 3, 57, 100
5, 132096, Note_on_c, 3, 50, 100
5, 132256, Note_off_c, 3, 57, 0
5, 132256, Note_off_c, 3, 50, 0
5, 132288, Note_on_c, 3, 57, 100
5, 132288, Note_on_c, 3, 50, 100
5, 132448, Note_off_c, 3, 57, 0
5, 132448, Note_off_c, 3, 50, 0
5, 132480, Note_on_c, 3, 57, 100
5, 132480, Note_on_c, 3, 50, 100
5, 132640, Note_off_c, 3, 57, 0
5, 132640, Note_off_c, 3, 50, 0
5, 132672, Note_on_c, 3, 57, 100
5, 132672, Note_on_c, 3, 50, 100
5, 132832, Note_off_c, 3, 57, 0
5, 132832, Note_off_c, 3, 50, 0
5, 132864, Note_on_c, 3, 57, 100
5, 132864, Note_on_c, 3, 50, 100
5, 133184, Note_off_c, 3, 57, 0
5, 133184, Note_off_c, 3, 50, 0
5, 133632, Note_on_c, 3, 59, 75
5, 134780, Note_off_c, 3, 59, 0
5, 134784, Note_on_c, 3, 57, 75
5, 135104, Note_off_c, 3, 57, 0
5, 135168, Note_on_c, 3, 56, 75
5, 136516, Note_off_c, 3, 56, 0
5, 136704, Note_on_c, 3, 57, 75
5, 137468, Note_off_c, 3, 57, 0
5, 137472, Note_on_c, 3, 54, 75
5, 137852, Note_off_c, 3, 54, 0
5, 137856, Note_on_c, 3, 52, 75
5, 138176, Note_off_c, 3, 52, 0
5, 138240, Note_on_c, 3, 51, 75
5, 139588, Note_off_c, 3, 51, 0
5, 139776, Note_on_c, 3, 52, 75
5, 139936, Note_off_c, 3, 52, 0
5, 140160, Note_on_c, 3, 57, 75
5, 140160, Note_on_c, 3, 54, 75
5, 140320, Note_off_c, 3, 57, 0
5, 140320, Note_off_c, 3, 54, 0
5, 140544, Note_on_c, 3, 59, 75
5, 140544, Note_on_c, 3, 56, 75
5, 140704, Note_off_c, 3, 59, 0
5, 140704, Note_off_c, 3, 56, 0
5, 142848, Note_on_c, 3, 47, 100
5, 142848, Note_on_c, 3, 59, 100
5, 145916, Note_off_c, 3, 47, 0
5, 145916, Note_off_c, 3, 59, 0
5, 145920, Note_on_c, 3, 59, 75
5, 145920, Note_on_c, 3, 47, 75
5, 146564, Note_off_c, 3, 59, 0
5, 146564, Note_off_c, 3, 47, 0
5, 146688, Note_on_c, 3, 66, 75
5, 146688, Note_on_c, 3, 57, 75
5, 146848, Note_off_c, 3, 66, 0
5, 146848, Note_off_c, 3, 57, 0
5, 147072, Note_on_c, 3, 67, 75
5, 147072, Note_on_c, 3, 55, 75
5, 147232, Note_off_c, 3, 67, 0
5, 147232, Note_off_c, 3, 55, 0
5, 147456, Note_on_c, 3, 54, 75
5, 147616, Note_off_c, 3, 54, 0
5, 147840, Note_on_c, 3, 52, 75
5, 148000, Note_off_c, 3, 52, 0
5, 148224, Note_on_c, 3, 50, 75
5, 148384, Note_off_c, 3, 50, 0
5, 148608, Note_on_c, 3, 48, 75
5, 148768, Note_off_c, 3, 48, 0
5, 148992, Note_on_c, 3, 47, 75
5, 149636, Note_off_c, 3, 47, 0
5, 149760, Note_on_c, 3, 66, 100
5, 149760, Note_on_c, 3, 59, 100
5, 150244, Note_off_c, 3, 66, 0
5, 150244, Note_off_c, 3, 59, 0
5, 150336, Note_on_c, 3, 66, 100
5, 150336, Note_on_c, 3, 59, 100
5, 150496, Note_off_c, 3, 66, 0
5, 150496, Note_off_c, 3, 59, 0
5, 150528, Note_on_c, 3, 66, 100
5, 150528, Note_on_c, 3, 59, 100
5, 150688, Note_off_c, 3, 66, 0
5, 150688, Note_off_c, 3, 59, 0
5, 150912, Note_on_c, 3, 59, 100
5, 150912, Note_on_c, 3, 47, 100
5, 151072, Note_off_c, 3, 59, 0
5, 151072, Note_off_c, 3, 47, 0
5, 164352, Note_on_c, 3, 64, 75
5, 165116, Note_off_c, 3, 64, 0
5, 165120, Note_on_c, 3, 63, 75
5, 165764, Note_off_c, 3, 63, 0
5, 165888, Note_on_c, 3, 61, 75
5, 167036, Note_off_c, 3, 61, 0
5, 167040, Note_on_c, 3, 59, 75
5, 167360, Note_off_c, 3, 59, 0
5, 167424, Note_on_c, 3, 61, 75
5, 167424, Note_on_c, 3, 58, 75
5, 168772, Note_off_c, 3, 61, 0
5, 168772, Note_off_c, 3, 58, 0
5, 168960, Note_on_c, 3, 57, 75
5, 168960, Note_on_c, 3, 45, 75
5, 170108, Note_off_c, 3, 57, 0
5, 170112, Note_on_c, 3, 54, 75
5, 170112, Note_on_c, 3, 51, 75
5, 170308, Note_off_c, 3, 45, 0
5, 170432, Note_off_c, 3, 54, 0
5, 170432, Note_off_c, 3, 51, 0
5, 170496, Note_on_c, 3, 44, 75
5, 170496, Note_on_c, 3, 52, 75
5, 172032, Note_on_c, 3, 57, 75
5, 172352, Note_off_c, 3, 44, 0
5, 172352, Note_off_c, 3, 52, 0
5, 173180, Note_off_c, 3, 57, 0
5, 173184, Note_on_c, 3, 56, 75
5, 173372, Note_off_c, 3, 56, 64
5, 173376, Note_on_c, 3, 54, 75
5, 173536, Note_off_c, 3, 54, 64
5, 173568, Note_on_c, 3, 56, 75
5, 173568, Note_on_c, 3, 52, 75
5, 173728, Note_off_c, 3, 56, 0
5, 173728, Note_off_c, 3, 52, 0
5, 173760, Note_on_c, 3, 59, 75
5, 173920, Note_off_c, 3, 59, 0
5, 173952, Note_on_c, 3, 56, 75
5, 174112, Note_off_c, 3, 56, 0
5, 174144, Note_on_c, 3, 59, 75
5, 174304, Note_off_c, 3, 59, 0
5, 174336, Note_on_c, 3, 47, 75
5, 174496, Note_off_c, 3, 47, 0
5, 174528, Note_on_c, 3, 59, 75
5, 174688, Note_off_c, 3, 59, 0
5, 174720, Note_on_c, 3, 57, 75
5, 174720, Note_on_c, 3, 47, 75
5, 174880, Note_off_c, 3, 57, 0
5, 174880, Note_off_c, 3, 47, 0
5, 174912, Note_on_c, 3, 54, 75
5, 175072, Note_off_c, 3, 54, 0
5, 175104, Note_on_c, 3, 52, 75
5, 179524, Note_off_c, 3, 52, 0
5, 181248, Note_on_c, 3, 51, 75
5, 181248, Note_on_c, 3, 39, 75
5, 182396, Note_off_c, 3, 51, 0
5, 182396, Note_off_c, 3, 39, 0
5, 182400, Note_on_c, 3, 52, 75
5, 182400, Note_on_c, 3, 40, 75
5, 182720, Note_off_c, 3, 52, 0
5, 182720, Note_off_c, 3, 40, 0
5, 182784, Note_on_c, 3, 57, 75
5, 182784, Note_on_c, 3, 45, 75
5, 183104, Note_off_c, 3, 57, 0
5, 183104, Note_off_c, 3, 45, 0
5, 183552, Note_on_c, 3, 59, 75
5, 183552, Note_on_c, 3, 47, 75
5, 183872, Note_off_c, 3, 59, 0
5, 183872, Note_off_c, 3, 47, 0
5, 184320, Note_on_c, 3, 61, 75
5, 184320, Note_on_c, 3, 49, 75
5, 184320, Note_on_c, 3, 56, 75
5, 185084, Note_off_c, 3, 61, 0
5, 185084, Note_off_c, 3, 49, 0
5, 185088, Note_on_c, 3, 60, 75
5, 185088, Note_on_c, 3, 48, 75
5, 185732, Note_off_c, 3, 60, 0
5, 185732, Note_off_c, 3, 48, 0
5, 185856, Note_on_c, 3, 61, 75
5, 185856, Note_on_c, 3, 49, 75
5, 186620, Note_off_c, 3, 61, 0
5, 186620, Note_off_c, 3, 49, 0
5, 186624, Note_on_c, 3, 60, 75
5, 186624, Note_on_c, 3, 48, 75
5, 187268, Note_off_c, 3, 60, 0
5, 187268, Note_off_c, 3, 48, 0
5, 187392, Note_on_c, 3, 61, 75
5, 187392, Note_on_c, 3, 49, 75
5, 188036, Note_off_c, 3, 61, 0
5, 188036, Note_off_c, 3, 49, 0
5, 188160, Note_on_c, 3, 60, 75
5, 188160, Note_on_c, 3, 48, 75
5, 188804, Note_off_c, 3, 60, 0
5, 188804, Note_off_c, 3, 48, 0
5, 188928, Note_on_c, 3, 61, 75
5, 188928, Note_on_c, 3, 49, 75
5, 189088, Note_off_c, 3, 61, 0
5, 189088, Note_off_c, 3, 49, 0
5, 189088, Note_off_c, 3, 56, 0
5, 189696, Note_on_c, 3, 61, 75
5, 189696, Note_on_c, 3, 49, 75
5, 190080, Note_on_c, 3, 59, 75
5, 190080, Note_on_c, 3, 47, 75
5, 190460, Note_off_c, 3, 61, 0
5, 190460, Note_off_c, 3, 49, 0
5, 190460, Note_off_c, 3, 59, 0
5, 190460, Note_off_c, 3, 47, 0
5, 190464, Note_on_c, 3, 57, 90
5, 190464, Note_on_c, 3, 45, 90
5, 190784, Note_off_c, 3, 57, 0
5, 190784, Note_off_c, 3, 45, 0
5, 192000, Note_on_c, 3, 51, 75
5, 192000, Note_on_c, 3, 39, 75
5, 193148, Note_off_c, 3, 51, 0
5, 193148, Note_off_c, 3, 39, 0
5, 193152, Note_on_c, 3, 52, 75
5, 193152, Note_on_c, 3, 40, 75
5, 193472, Note_off_c, 3, 52, 0
5, 193472, Note_off_c, 3, 40, 0
5, 193536, Note_on_c, 3, 57, 75
5, 193536, Note_on_c, 3, 45, 75
5, 193856, Note_off_c, 3, 57, 0
5, 193856, Note_off_c, 3, 45, 0
5, 194688, Note_on_c, 3, 59, 75
5, 194688, Note_on_c, 3, 47, 75
5, 195008, Note_off_c, 3, 59, 0
5, 195008, Note_off_c, 3, 47, 0
5, 195072, Note_on_c, 3, 51, 75
5, 195072, Note_on_c, 3, 39, 75
5, 196220, Note_off_c, 3, 51, 0
5, 196220, Note_off_c, 3, 39, 0
5, 196224, Note_on_c, 3, 52, 75
5, 196224, Note_on_c, 3, 40, 75
5, 196544, Note_off_c, 3, 52, 0
5, 196544, Note_off_c, 3, 40, 0
5, 196608, Note_on_c, 3, 59, 75
5, 196608, Note_on_c, 3, 54, 75
5, 196608, Note_on_c, 3, 51, 75
5, 197756, Note_off_c, 3, 54, 0
5, 197756, Note_off_c, 3, 51, 0
5, 197760, Note_on_c, 3, 56, 75
5, 197760, Note_on_c, 3, 52, 75
5, 197956, Note_off_c, 3, 59, 0
5, 198080, Note_off_c, 3, 56, 0
5, 198080, Note_off_c, 3, 52, 0
5, 198144, Note_on_c, 3, 57, 75
5, 198144, Note_on_c, 3, 45, 75
5, 201028, Note_off_c, 3, 45, 0
5, 201216, Note_on_c, 3, 57, 75
5, 201216, Note_on_c, 3, 66, 75
5, 201216, Note_on_c, 3, 64, 75
5, 201216, Note_on_c, 3, 61, 75
5, 202748, Note_off_c, 3, 57, 0
5, 203516, Note_off_c, 3, 57, 0
5, 203520, Note_on_c, 3, 58, 75
5, 203520, Note_on_c, 3, 61, 75
5, 203520, Note_on_c, 3, 64, 75
5, 203520, Note_on_c, 3, 67, 75
5, 203900, Note_off_c, 3, 66, 0
5, 203900, Note_off_c, 3, 64, 0
5, 203900, Note_off_c, 3, 61, 0
5, 203900, Note_off_c, 3, 58, 0
5, 203900, Note_off_c, 3, 61, 0
5, 203900, Note_off_c, 3, 64, 0
5, 203900, Note_off_c, 3, 67, 0
5, 203904, Note_on_c, 3, 61, 75
5, 203904, Note_on_c, 3, 49, 75
5, 204284, Note_off_c, 3, 61, 0
5, 204284, Note_off_c, 3, 49, 0
5, 204288, Note_on_c, 3, 59, 85
5, 204288, Note_on_c, 3, 47, 85
5, 204608, Note_off_c, 3, 59, 0
5, 204608, Note_off_c, 3, 47, 0
5, 208896, Note_on_c, 3, 47, 100
5, 208896, Note_on_c, 3, 35, 100
5, 209216, Note_off_c, 3, 47, 0
5, 209216, Note_off_c, 3, 35, 0
5, 209280, Note_on_c, 3, 47, 100
5, 209280, Note_on_c, 3, 35, 100
5, 209600, Note_off_c, 3, 47, 0
5, 209600, Note_off_c, 3, 35, 0
5, 209664, Note_on_c, 3, 47, 100
5, 209664, Note_on_c, 3, 35, 100
5, 209984, Note_off_c, 3, 47, 0
5, 209984, Note_off_c, 3, 35, 0
5, 210048, Note_on_c, 3, 47, 100
5, 210048, Note_on_c, 3, 35, 100
5, 210368, Note_off_c, 3, 47, 0
5, 210368, Note_off_c, 3, 35, 0
5, 210432, Note_on_c, 3, 52, 75
5, 210432, Note_on_c, 3, 40, 75
5, 210592, Note_off_c, 3, 52, 0
5, 210592, Note_off_c, 3, 40, 0
5, 210624, Note_on_c, 3, 52, 75
5, 210624, Note_on_c, 3, 40, 75
5, 210784, Note_off_c, 3, 52, 0
5, 210784, Note_off_c, 3, 40, 0
5, 210816, Note_on_c, 3, 52, 75
5, 210816, Note_on_c, 3, 40, 75
5, 210976, Note_off_c, 3, 52, 0
5, 210976, Note_off_c, 3, 40, 0
5, 211008, Note_on_c, 3, 52, 75
5, 211008, Note_on_c, 3, 40, 75
5, 211168, Note_off_c, 3, 52, 0
5, 211168, Note_off_c, 3, 40, 0
5, 211200, Note_on_c, 3, 52, 75
5, 211360, Note_off_c, 3, 52, 0
5, 211392, Note_on_c, 3, 52, 75
5, 211552, Note_off_c, 3, 52, 0
5, 211584, Note_on_c, 3, 62, 75
5, 211584, Note_on_c, 3, 50, 75
5, 211744, Note_off_c, 3, 62, 0
5, 211744, Note_off_c, 3, 50, 0
5, 211776, Note_on_c, 3, 62, 75
5, 211776, Note_on_c, 3, 50, 75
5, 211936, Note_off_c, 3, 62, 0
5, 211936, Note_off_c, 3, 50, 0
5, 211968, Note_on_c, 3, 61, 75
5, 211968, Note_on_c, 3, 57, 75
5, 211968, Note_on_c, 3, 52, 75
5, 211968, Note_on_c, 3, 49, 75
5, 212128, Note_off_c, 3, 61, 0
5, 212128, Note_off_c, 3, 57, 0
5, 212128, Note_off_c, 3, 52, 0
5, 212128, Note_off_c, 3, 49, 0
5, 212160, Note_on_c, 3, 61, 75
5, 212160, Note_on_c, 3, 57, 75
5, 212160, Note_on_c, 3, 52, 75
5, 212160, Note_on_c, 3, 49, 75
5, 212320, Note_off_c, 3, 61, 0
5, 212320, Note_off_c, 3, 57, 0
5, 212320, Note_off_c, 3, 52, 0
5, 212320, Note_off_c, 3, 49, 0
5, 212352, Note_on_c, 3, 61, 75
5, 212352, Note_on_c, 3, 57, 75
5, 212352, Note_on_c, 3, 52, 75
5, 212352, Note_on_c, 3, 49, 75
5, 212512, Note_off_c, 3, 61, 0
5, 212512, Note_off_c, 3, 57, 0
5, 212512, Note_off_c, 3, 52, 0
5, 212512, Note_off_c, 3, 49, 0
5, 212544, Note_on_c, 3, 61, 75
5, 212544, Note_on_c, 3, 57, 75
5, 212544, Note_on_c, 3, 52, 75
5, 212544, Note_on_c, 3, 49, 75
5, 212704, Note_off_c, 3, 61, 0
5, 212704, Note_off_c, 3, 57, 0
5, 212704, Note_off_c, 3, 52, 0
5, 212704, Note_off_c, 3, 49, 0
5, 212736, Note_on_c, 3, 61, 75
5, 212736, Note_on_c, 3, 57, 75
5, 212736, Note_on_c, 3, 52, 75
5, 212736, Note_on_c, 3, 49, 75
5, 212896, Note_off_c, 3, 61, 0
5, 212896, Note_off_c, 3, 57, 0
5, 212896, Note_off_c, 3, 52, 0
5, 212896, Note_off_c, 3, 49, 0
5, 212928, Note_on_c, 3, 61, 75
5, 212928, Note_on_c, 3, 57, 75
5, 212928, Note_on_c, 3, 52, 75
5, 212928, Note_on_c, 3, 49, 75
5, 213088, Note_off_c, 3, 61, 0
5, 213088, Note_off_c, 3, 57, 0
5, 213088, Note_off_c, 3, 52, 0
5, 213088, Note_off_c, 3, 49, 0
5, 213120, Note_on_c, 3, 61, 75
5, 213120, Note_on_c, 3, 57, 75
5, 213120, Note_on_c, 3, 49, 75
5, 213120, Note_on_c, 3, 52, 75
5, 213280, Note_off_c, 3, 61, 0
5, 213280, Note_off_c, 3, 57, 0
5, 213280, Note_off_c, 3, 49, 0
5, 213280, Note_off_c, 3, 52, 0
5, 213312, Note_on_c, 3, 61, 75
5, 213312, Note_on_c, 3, 52, 75
5, 213312, Note_on_c, 3, 57, 75
5, 213312, Note_on_c, 3, 49, 75
5, 213472, Note_off_c, 3, 61, 0
5, 213472, Note_off_c, 3, 52, 0
5, 213472, Note_off_c, 3, 57, 0
5, 213472, Note_off_c, 3, 49, 0
5, 213504, Note_on_c, 3, 59, 75
5, 213504, Note_on_c, 3, 56, 75
5, 213504, Note_on_c, 3, 52, 75
5, 213504, Note_on_c, 3, 47, 75
5, 213664, Note_off_c, 3, 59, 0
5, 213664, Note_off_c, 3, 56, 0
5, 213664, Note_off_c, 3, 52, 0
5, 213664, Note_off_c, 3, 47, 0
5, 213696, Note_on_c, 3, 59, 75
5, 213696, Note_on_c, 3, 56, 75
5, 213696, Note_on_c, 3, 52, 75
5, 213696, Note_on_c, 3, 47, 75
5, 213856, Note_off_c, 3, 59, 0
5, 213856, Note_off_c, 3, 56, 0
5, 213856, Note_off_c, 3, 52, 0
5, 213856, Note_off_c, 3, 47, 0
5, 213888, Note_on_c, 3, 59, 75
5, 213888, Note_on_c, 3, 56, 75
5, 213888, Note_on_c, 3, 52, 75
5, 213888, Note_on_c, 3, 47, 75
5, 214048, Note_off_c, 3, 59, 0
5, 214048, Note_off_c, 3, 56, 0
5, 214048, Note_off_c, 3, 52, 0
5, 214048, Note_off_c, 3, 47, 0
5, 214080, Note_on_c, 3, 59, 75
5, 214080, Note_on_c, 3, 56, 75
5, 214080, Note_on_c, 3, 52, 75
5, 214080, Note_on_c, 3, 47, 75
5, 214240, Note_off_c, 3, 59, 0
5, 214240, Note_off_c, 3, 56, 0
5, 214240, Note_off_c, 3, 52, 0
5, 214240, Note_off_c, 3, 47, 0
5, 214272, Note_on_c, 3, 59, 75
5, 214272, Note_on_c, 3, 56, 75
5, 214272, Note_on_c, 3, 52, 75
5, 214272, Note_on_c, 3, 47, 75
5, 214432, Note_off_c, 3, 59, 0
5, 214432, Note_off_c, 3, 56, 0
5, 214432, Note_off_c, 3, 52, 0
5, 214432, Note_off_c, 3, 47, 0
5, 214464, Note_on_c, 3, 57, 75
5, 214464, Note_on_c, 3, 45, 75
5, 214624, Note_off_c, 3, 57, 0
5, 214624, Note_off_c, 3, 45, 0
5, 214656, Note_on_c, 3, 56, 75
5, 214656, Note_on_c, 3, 44, 75
5, 214816, Note_off_c, 3, 56, 0
5, 214816, Note_off_c, 3, 44, 0
5, 214848, Note_on_c, 3, 54, 75
5, 214848, Note_on_c, 3, 42, 75
5, 215008, Note_off_c, 3, 54, 0
5, 215008, Note_off_c, 3, 42, 0
5, 215040, Note_on_c, 3, 52, 75
5, 215040, Note_on_c, 3, 40, 75
5, 215200, Note_off_c, 3, 52, 0
5, 215200, Note_off_c, 3, 40, 0
5, 215232, Note_on_c, 3, 52, 75
5, 215232, Note_on_c, 3, 40, 75
5, 215392, Note_off_c, 3, 52, 0
5, 215392, Note_off_c, 3, 40, 0
5, 215424, Note_on_c, 3, 52, 75
5, 215424, Note_on_c, 3, 40, 75
5, 215584, Note_off_c, 3, 52, 0
5, 215584, Note_off_c, 3, 40, 0
5, 215616, Note_on_c, 3, 52, 75
5, 215616, Note_on_c, 3, 40, 75
5, 215776, Note_off_c, 3, 52, 0
5, 215776, Note_off_c, 3, 40, 0
5, 215808, Note_on_c, 3, 52, 75
5, 215808, Note_on_c, 3, 40, 75
5, 215968, Note_off_c, 3, 52, 0
5, 215968, Note_off_c, 3, 40, 0
5, 216000, Note_on_c, 3, 52, 75
5, 216160, Note_off_c, 3, 52, 0
5, 216192, Note_on_c, 3, 59, 75
5, 216192, Note_on_c, 3, 62, 75
5, 216352, Note_off_c, 3, 59, 0
5, 216352, Note_off_c, 3, 62, 0
5, 216384, Note_on_c, 3, 56, 75
5, 216544, Note_off_c, 3, 56, 0
5, 216576, Note_on_c, 3, 57, 75
5, 216576, Note_on_c, 3, 45, 75
5, 216736, Note_off_c, 3, 57, 0
5, 216768, Note_on_c, 3, 52, 75
5, 216928, Note_off_c, 3, 52, 0
5, 216960, Note_on_c, 3, 54, 75
5, 217060, Note_off_c, 3, 45, 0
5, 217152, Note_on_c, 3, 45, 75
5, 217312, Note_off_c, 3, 45, 0
5, 217344, Note_on_c, 3, 47, 75
5, 217444, Note_off_c, 3, 54, 0
5, 217536, Note_on_c, 3, 54, 75
5, 217696, Note_off_c, 3, 54, 0
5, 217728, Note_on_c, 3, 56, 75
5, 217828, Note_off_c, 3, 47, 0
5, 217920, Note_on_c, 3, 47, 75
5, 218080, Note_off_c, 3, 47, 0
5, 218108, Note_off_c, 3, 56, 0
5, 218112, Note_on_c, 3, 56, 75
5, 218112, Note_on_c, 3, 49, 75
5, 218272, Note_off_c, 3, 56, 0
5, 218304, Note_on_c, 3, 56, 75
5, 218464, Note_off_c, 3, 56, 0
5, 218496, Note_on_c, 3, 57, 75
5, 218596, Note_off_c, 3, 49, 0
5, 218688, Note_on_c, 3, 49, 75
5, 218848, Note_off_c, 3, 49, 0
5, 218880, Note_on_c, 3, 51, 75
5, 219040, Note_off_c, 3, 51, 0
5, 219140, Note_off_c, 3, 57, 0
5, 219264, Note_on_c, 3, 59, 75
5, 219424, Note_off_c, 3, 59, 0
5, 220416, Note_on_c, 3, 47, 75
5, 220416, Note_on_c, 3, 40, 75
5, 221060, Note_off_c, 3, 47, 0
5, 221060, Note_off_c, 3, 40, 0
5, 221184, Note_on_c, 3, 49, 75
5, 221184, Note_on_c, 3, 45, 75
5, 222532, Note_off_c, 3, 49, 0
5, 222720, Note_on_c, 3, 59, 75
5, 222720, Note_on_c, 3, 63, 75
5, 222720, Note_on_c, 3, 54, 75
5, 223040, Note_off_c, 3, 45, 0
5, 223100, Note_off_c, 3, 59, 0
5, 223100, Note_off_c, 3, 63, 0
5, 223100, Note_off_c, 3, 54, 0
5, 223104, Note_on_c, 3, 59, 75
5, 223104, Note_on_c, 3, 51, 75
5, 223104, Note_on_c, 3, 47, 75
5, 223388, Note_off_c, 3, 47, 0
5, 223392, Note_on_c, 3, 45, 75
5, 223424, Note_off_c, 3, 59, 0
5, 223424, Note_off_c, 3, 51, 0
5, 223484, Note_off_c, 3, 45, 0
5, 223488, Note_on_c, 3, 44, 75
5, 223488, Note_on_c, 3, 52, 75
5, 223808, Note_off_c, 3, 44, 0
5, 223872, Note_on_c, 3, 40, 75
5, 224132, Note_off_c, 3, 52, 0
5, 224192, Note_off_c, 3, 40, 0
5, 224256, Note_on_c, 3, 61, 75
5, 224256, Note_on_c, 3, 49, 75
5, 225220, Note_off_c, 3, 49, 0
5, 225408, Note_on_c, 3, 54, 75
5, 225604, Note_off_c, 3, 61, 0
5, 225692, Note_off_c, 3, 54, 0
5, 225696, Note_on_c, 3, 57, 75
5, 225788, Note_off_c, 3, 57, 0
5, 225792, Note_on_c, 3, 59, 75
5, 226112, Note_off_c, 3, 59, 0
5, 226176, Note_on_c, 3, 52, 75
5, 226460, Note_off_c, 3, 52, 0
5, 226464, Note_on_c, 3, 56, 75
5, 226556, Note_off_c, 3, 56, 0
5, 226560, Note_on_c, 3, 57, 75
5, 226880, Note_off_c, 3, 57, 0
5, 226944, Note_on_c, 3, 45, 75
5, 227328, Note_on_c, 3, 54, 75
5, 227648, Note_off_c, 3, 45, 0
5, 227708, Note_off_c, 3, 54, 0
5, 227712, Note_on_c, 3, 56, 75
5, 227712, Note_on_c, 3, 44, 75
5, 228092, Note_off_c, 3, 56, 0
5, 228092, Note_off_c, 3, 44, 0
5, 228096, Note_on_c, 3, 42, 75
5, 228096, Note_on_c, 3, 54, 75
5, 228476, Note_off_c, 3, 42, 0
5, 228480, Note_on_c, 3, 47, 75
5, 228740, Note_off_c, 3, 54, 0
5, 228800, Note_off_c, 3, 47, 0
5, 228864, Note_on_c, 3, 52, 75
5, 228864, Note_on_c, 3, 40, 75
5, 228864, Program_c, 3, 48
5, 229184, Note_off_c, 3, 52, 0
5, 229184, Note_off_c, 3, 40, 0
5, 237312, Note_on_c, 3, 56, 75
5, 238076, Note_off_c, 3, 56, 0
5, 238080, Note_on_c, 3, 54, 75
5, 238844, Note_off_c, 3, 54, 0
5, 238848, Note_on_c, 3, 47, 75
5, 239612, Note_off_c, 3, 47, 0
5, 239616, Note_on_c, 3, 52, 75
5, 239996, Note_off_c, 3, 52, 0
5, 242688, Note_on_c, 3, 64, 75
5, 242688, Note_on_c, 3, 52, 75
5, 243068, Note_off_c, 3, 64, 0
5, 243068, Note_off_c, 3, 52, 0
5, 253056, Note_on_c, 3, 64, 75
5, 253056, Note_on_c, 3, 60, 75
5, 253056, Note_on_c, 3, 57, 75
5, 253436, Note_off_c, 3, 64, 0
5, 253436, Note_off_c, 3, 60, 0
5, 253436, Note_off_c, 3, 57, 0
5, 253440, Note_on_c, 3, 59, 75
5, 253440, Note_on_c, 3, 62, 75
5, 253440, Note_on_c, 3, 52, 75
5, 253820, Note_off_c, 3, 59, 0
5, 253820, Note_off_c, 3, 62, 0
5, 253824, Note_on_c, 3, 59, 75
5, 253824, Note_on_c, 3, 62, 75
5, 254108, Note_off_c, 3, 59, 0
5, 254108, Note_off_c, 3, 62, 0
5, 254112, Note_on_c, 3, 57, 75
5, 254112, Note_on_c, 3, 60, 75
5, 254196, Note_off_c, 3, 57, 0
5, 254196, Note_off_c, 3, 60, 0
5, 254208, Note_on_c, 3, 56, 75
5, 254208, Note_on_c, 3, 59, 75
5, 254588, Note_off_c, 3, 56, 0
5, 254588, Note_off_c, 3, 59, 0
5, 254592, Note_on_c, 3, 56, 75
5, 254592, Note_on_c, 3, 62, 75
5, 254972, Note_off_c, 3, 52, 0
5, 254972, Note_off_c, 3, 56, 0
5, 254972, Note_off_c, 3, 62, 0
5, 254976, Note_on_c, 3, 57, 75
5, 254976, Note_on_c, 3, 60, 75
5, 255356, Note_off_c, 3, 57, 0
5, 255356, Note_off_c, 3, 60, 0
5, 259200, Note_on_c, 3, 57, 75
5, 259200, Note_on_c, 3, 53, 75
5, 259200, Note_on_c, 3, 50, 75
5, 259520, Note_off_c, 3, 57, 0
5, 259520, Note_off_c, 3, 53, 0
5, 259520, Note_off_c, 3, 50, 0
5, 259584, Note_on_c, 3, 55, 75
5, 259584, Note_on_c, 3, 52, 75
5, 260252, Note_off_c, 3, 55, 0
5, 260252, Note_off_c, 3, 52, 0
5, 260256, Note_on_c, 3, 53, 75
5, 260256, Note_on_c, 3, 50, 75
5, 260336, Note_off_c, 3, 53, 0
5, 260336, Note_off_c, 3, 50, 0
5, 260352, Note_on_c, 3, 49, 75
5, 260352, Note_on_c, 3, 52, 75
5, 260732, Note_off_c, 3, 49, 0
5, 260732, Note_off_c, 3, 52, 0
5, 260736, Note_on_c, 3, 55, 75
5, 260736, Note_on_c, 3, 49, 75
5, 261056, Note_off_c, 3, 55, 0
5, 261056, Note_off_c, 3, 49, 0
5, 261120, Note_on_c, 3, 53, 75
5, 261120, Note_on_c, 3, 50, 75
5, 261440, Note_off_c, 3, 53, 0
5, 261440, Note_off_c, 3, 50, 0
5, 261888, Note_on_c, 3, 62, 75
5, 262268, Note_off_c, 3, 62, 0
5, 262272, Note_on_c, 3, 57, 75
5, 262592, Note_off_c, 3, 57, 0
5, 262656, Note_on_c, 3, 59, 75
5, 262976, Note_off_c, 3, 59, 0
5, 263040, Note_on_c, 3, 43, 75
5, 263360, Note_off_c, 3, 43, 0
5, 263808, Note_on_c, 3, 47, 75
5, 264128, Note_off_c, 3, 47, 0
5, 264576, Note_on_c, 3, 48, 75
5, 264896, Note_off_c, 3, 48, 0
5, 264960, Note_on_c, 3, 60, 75
5, 265280, Note_off_c, 3, 60, 0
5, 265344, Note_on_c, 3, 56, 75
5, 265664, Note_off_c, 3, 56, 0
5, 265728, Note_on_c, 3, 57, 75
5, 266048, Note_off_c, 3, 57, 0
5, 266112, Note_on_c, 3, 41, 75
5, 266432, Note_off_c, 3, 41, 0
5, 266880, Note_on_c, 3, 45, 75
5, 267200, Note_off_c, 3, 45, 0
5, 267648, Note_on_c, 3, 47, 75
5, 267968, Note_off_c, 3, 47, 0
5, 268032, Note_on_c, 3, 59, 75
5, 268352, Note_off_c, 3, 59, 0
5, 268416, Note_on_c, 3, 54, 75
5, 268736, Note_off_c, 3, 54, 0
5, 268800, Note_on_c, 3, 56, 75
5, 269120, Note_off_c, 3, 56, 0
5, 269184, Note_on_c, 3, 40, 75
5, 269504, Note_off_c, 3, 40, 0
5, 269952, Note_on_c, 3, 44, 75
5, 270272, Note_off_c, 3, 44, 0
5, 270720, Note_on_c, 3, 45, 75
5, 271040, Note_off_c, 3, 45, 0
5, 271104, Note_on_c, 3, 57, 75
5, 271424, Note_off_c, 3, 57, 0
5, 271488, Note_on_c, 3, 52, 75
5, 271808, Note_off_c, 3, 52, 0
5, 271872, Note_on_c, 3, 53, 75
5, 273220, Note_off_c, 3, 53, 0
5, 273408, Note_on_c, 3, 52, 75
5, 273568, Note_off_c, 3, 52, 0
5, 273600, Note_on_c, 3, 52, 75
5, 273760, Note_off_c, 3, 52, 0
5, 273792, Note_on_c, 3, 52, 75
5, 273952, Note_off_c, 3, 52, 0
5, 273984, Note_on_c, 3, 52, 75
5, 274144, Note_off_c, 3, 52, 0
5, 274176, Note_on_c, 3, 52, 75
5, 274336, Note_off_c, 3, 52, 0
5, 274368, Note_on_c, 3, 52, 75
5, 274528, Note_off_c, 3, 52, 0
5, 274560, Note_on_c, 3, 52, 75
5, 274720, Note_off_c, 3, 52, 0
5, 274752, Note_on_c, 3, 52, 75
5, 274912, Note_off_c, 3, 52, 0
5, 274944, Note_on_c, 3, 52, 75
5, 275104, Note_off_c, 3, 52, 0
5, 275136, Note_on_c, 3, 52, 75
5, 275296, Note_off_c, 3, 52, 0
5, 275328, Note_on_c, 3, 52, 75
5, 275488, Note_off_c, 3, 52, 0
5, 275520, Note_on_c, 3, 52, 75
5, 275680, Note_off_c, 3, 52, 0
5, 275712, Note_on_c, 3, 52, 75
5, 275872, Note_off_c, 3, 52, 0
5, 275904, Note_on_c, 3, 52, 75
5, 276064, Note_off_c, 3, 52, 0
5, 276096, Note_on_c, 3, 52, 75
5, 276256, Note_off_c, 3, 52, 0
5, 276288, Note_on_c, 3, 52, 75
5, 276448, Note_off_c, 3, 52, 0
5, 276480, Note_on_c, 3, 52, 75
5, 276640, Note_off_c, 3, 52, 0
5, 276672, Note_on_c, 3, 52, 75
5, 276832, Note_off_c, 3, 52, 0
5, 276864, Note_on_c, 3, 52, 75
5, 277024, Note_off_c, 3, 52, 0
5, 277056, Note_on_c, 3, 52, 75
5, 277216, Note_off_c, 3, 52, 0
5, 277248, Note_on_c, 3, 52, 75
5, 277408, Note_off_c, 3, 52, 0
5, 277440, Note_on_c, 3, 52, 75
5, 277600, Note_off_c, 3, 52, 0
5, 277632, Note_on_c, 3, 52, 75
5, 277632, Note_on_c, 3, 56, 75
5, 277632, Note_on_c, 3, 59, 75
5, 277792, Note_off_c, 3, 52, 0
5, 277824, Note_on_c, 3, 52, 75
5, 277952, Note_off_c, 3, 56, 0
5, 277952, Note_off_c, 3, 59, 0
5, 277984, Note_off_c, 3, 52, 0
5, 278016, Note_on_c, 3, 52, 75
5, 278016, Note_on_c, 3, 57, 75
5, 278016, Note_on_c, 3, 60, 75
5, 278176, Note_off_c, 3, 52, 0
5, 278208, Note_on_c, 3, 52, 75
5, 278336, Note_off_c, 3, 57, 0
5, 278336, Note_off_c, 3, 60, 0
5, 278368, Note_off_c, 3, 52, 0
5, 278400, Note_on_c, 3, 52, 75
5, 278400, Note_on_c, 3, 59, 75
5, 278400, Note_on_c, 3, 62, 75
5, 278560, Note_off_c, 3, 52, 0
5, 278592, Note_on_c, 3, 52, 75
5, 278684, Note_off_c, 3, 59, 0
5, 278684, Note_off_c, 3, 62, 0
5, 278688, Note_on_c, 3, 56, 75
5, 278688, Note_on_c, 3, 59, 75
5, 278752, Note_off_c, 3, 52, 0
5, 278768, Note_off_c, 3, 56, 0
5, 278768, Note_off_c, 3, 59, 0
5, 278784, Note_on_c, 3, 52, 75
5, 278784, Note_on_c, 3, 57, 75
5, 278784, Note_on_c, 3, 60, 75
5, 278944, Note_off_c, 3, 52, 0
5, 278976, Note_on_c, 3, 52, 75
5, 279136, Note_off_c, 3, 52, 0
5, 279164, Note_off_c, 3, 57, 0
5, 279164, Note_off_c, 3, 60, 0
5, 279168, Note_on_c, 3, 52, 75
5, 279168, Note_on_c, 3, 60, 75
5, 279168, Note_on_c, 3, 64, 75
5, 279328, Note_off_c, 3, 52, 0
5, 279360, Note_on_c, 3, 52, 75
5, 279488, Note_off_c, 3, 60, 0
5, 279488, Note_off_c, 3, 64, 0
5, 279520, Note_off_c, 3, 52, 0
5, 279552, Note_on_c, 3, 52, 75
5, 279712, Note_off_c, 3, 52, 0
5, 279744, Note_on_c, 3, 52, 75
5, 279904, Note_off_c, 3, 52, 0
5, 279936, Note_on_c, 3, 52, 75
5, 280096, Note_off_c, 3, 52, 0
5, 280128, Note_on_c, 3, 52, 75
5, 280288, Note_off_c, 3, 52, 0
5, 280320, Note_on_c, 3, 52, 75
5, 280480, Note_off_c, 3, 52, 0
5, 280512, Note_on_c, 3, 52, 75
5, 280672, Note_off_c, 3, 52, 0
5, 280704, Note_on_c, 3, 52, 75
5, 280864, Note_off_c, 3, 52, 0
5, 280896, Note_on_c, 3, 52, 75
5, 281056, Note_off_c, 3, 52, 0
5, 281088, Note_on_c, 3, 52, 75
5, 281248, Note_off_c, 3, 52, 0
5, 281280, Note_on_c, 3, 52, 75
5, 281440, Note_off_c, 3, 52, 0
5, 281472, Note_on_c, 3, 52, 75
5, 281632, Note_off_c, 3, 52, 0
5, 281664, Note_on_c, 3, 52, 75
5, 281824, Note_off_c, 3, 52, 0
5, 281856, Note_on_c, 3, 52, 75
5, 282016, Note_off_c, 3, 52, 0
5, 282048, Note_on_c, 3, 52, 75
5, 282208, Note_off_c, 3, 52, 0
5, 282240, Note_on_c, 3, 52, 75
5, 282400, Note_off_c, 3, 52, 0
5, 282432, Note_on_c, 3, 52, 75
5, 282592, Note_off_c, 3, 52, 0
5, 282624, Note_on_c, 3, 52, 75
5, 282784, Note_off_c, 3, 52, 0
5, 282816, Note_on_c, 3, 52, 75
5, 282976, Note_off_c, 3, 52, 0
5, 283008, Note_on_c, 3, 52, 75
5, 283168, Note_off_c, 3, 52, 0
5, 283200, Note_on_c, 3, 52, 75
5, 283360, Note_off_c, 3, 52, 0
5, 283392, Note_on_c, 3, 52, 75
5, 283552, Note_off_c, 3, 52, 0
5, 283584, Note_on_c, 3, 52, 75
5, 283744, Note_off_c, 3, 52, 0
5, 283776, Note_on_c, 3, 52, 75
5, 283776, Note_on_c, 3, 56, 75
5, 283776, Note_on_c, 3, 59, 75
5, 283936, Note_off_c, 3, 52, 0
5, 283968, Note_on_c, 3, 52, 75
5, 284128, Note_off_c, 3, 52, 0
5, 284156, Note_off_c, 3, 56, 0
5, 284156, Note_off_c, 3, 59, 0
5, 284160, Note_on_c, 3, 57, 75
5, 284160, Note_on_c, 3, 60, 75
5, 284160, Note_on_c, 3, 52, 75
5, 284320, Note_off_c, 3, 52, 0
5, 284352, Note_on_c, 3, 52, 75
5, 284480, Note_off_c, 3, 57, 0
5, 284480, Note_off_c, 3, 60, 0
5, 284512, Note_off_c, 3, 52, 0
5, 284544, Note_on_c, 3, 52, 75
5, 284544, Note_on_c, 3, 62, 75
5, 284544, Note_on_c, 3, 59, 75
5, 284704, Note_off_c, 3, 52, 0
5, 284736, Note_on_c, 3, 52, 75
5, 284828, Note_off_c, 3, 62, 0
5, 284828, Note_off_c, 3, 59, 0
5, 284832, Note_on_c, 3, 59, 75
5, 284832, Note_on_c, 3, 56, 75
5, 284896, Note_off_c, 3, 52, 0
5, 284912, Note_off_c, 3, 59, 0
5, 284912, Note_off_c, 3, 56, 0
5, 284928, Note_on_c, 3, 60, 75
5, 284928, Note_on_c, 3, 57, 75
5, 284928, Note_on_c, 3, 52, 75
5, 285088, Note_off_c, 3, 52, 0
5, 285120, Note_on_c, 3, 52, 75
5, 285280, Note_off_c, 3, 52, 0
5, 285308, Note_off_c, 3, 60, 0
5, 285308, Note_off_c, 3, 57, 0
5, 285312, Note_on_c, 3, 64, 75
5, 285312, Note_on_c, 3, 60, 75
5, 285312, Note_on_c, 3, 52, 75
5, 285472, Note_off_c, 3, 52, 0
5, 285504, Note_on_c, 3, 52, 75
5, 285632, Note_off_c, 3, 64, 0
5, 285632, Note_off_c, 3, 60, 0
5, 285664, Note_off_c, 3, 52, 0
5, 285696, Note_on_c, 3, 59, 75
5, 285696, Note_on_c, 3, 56, 75
5, 285696, Note_on_c, 3, 64, 75
5, 285696, Note_on_c, 3, 52, 75
5, 286016, Note_off_c, 3, 59, 0
5, 286016, Note_off_c, 3, 56, 0
5, 287232, Note_on_c, 3, 64, 75
5, 287232, Note_on_c, 3, 52, 75
5, 288580, Note_off_c, 3, 64, 0
5, 288580, Note_off_c, 3, 52, 0
5, 288764, Note_off_c, 3, 64, 0
5, 288764, Note_off_c, 3, 52, 0
5, 288768, Note_on_c, 3, 59, 75
5, 288768, Note_on_c, 3, 56, 75
5, 288768, Note_on_c, 3, 52, 75
5, 289148, Note_off_c, 3, 59, 0
5, 289148, Note_off_c, 3, 56, 0
5, 289152, Note_on_c, 3, 57, 75
5, 289152, Note_on_c, 3, 60, 75
5, 289532, Note_off_c, 3, 57, 0
5, 289532, Note_off_c, 3, 60, 0
5, 289536, Note_on_c, 3, 56, 75
5, 289536, Note_on_c, 3, 59, 75
5, 289916, Note_off_c, 3, 56, 0
5, 289916, Note_off_c, 3, 59, 0
5, 289920, Note_on_c, 3, 57, 75
5, 289920, Note_on_c, 3, 60, 75
5, 290300, Note_off_c, 3, 52, 0
5, 290300, Note_off_c, 3, 57, 0
5, 290300, Note_off_c, 3, 60, 0
5, 290304, Note_on_c, 3, 52, 75
5, 290304, Note_on_c, 3, 56, 75
5, 290304, Note_on_c, 3, 59, 75
5, 290624, Note_off_c, 3, 52, 0
5, 290624, Note_off_c, 3, 56, 0
5, 290624, Note_off_c, 3, 59, 0
5, 294912, Note_on_c, 3, 54, 75
5, 294912, Note_on_c, 3, 57, 75
5, 294912, Note_on_c, 3, 63, 75
5, 294912, Note_on_c, 3, 40, 75
5, 297796, Note_off_c, 3, 54, 0
5, 297796, Note_off_c, 3, 57, 0
5, 297796, Note_off_c, 3, 63, 0
5, 297796, Note_off_c, 3, 40, 0
5, 297984, Note_on_c, 3, 59, 75
5, 297984, Note_on_c, 3, 52, 75
5, 297984, Note_on_c, 3, 56, 75
5, 303940, Note_off_c, 3, 59, 0
5, 303940, Note_off_c, 3, 52, 0
5, 303940, Note_off_c, 3, 56, 0
5, 304128, Note_on_c, 3, 57, 75
5, 304128, Note_on_c, 3, 45, 75
5, 304448, Note_off_c, 3, 57, 0
5, 304448, Note_off_c, 3, 45, 0
5, 304512, Note_on_c, 3, 57, 75
5, 304512, Note_on_c, 3, 45, 75
5, 304832, Note_off_c, 3, 57, 0
5, 304832, Note_off_c, 3, 45, 0
5, 304896, Note_on_c, 3, 57, 75
5, 304896, Note_on_c, 3, 45, 75
5, 305216, Note_off_c, 3, 57, 0
5, 305216, Note_off_c, 3, 45, 0
5, 305280, Note_on_c, 3, 57, 75
5, 305280, Note_on_c, 3, 45, 75
5, 305600, Note_off_c, 3, 57, 0
5, 305600, Note_off_c, 3, 45, 0
5, 305664, Note_on_c, 3, 57, 75
5, 305664, Note_on_c, 3, 45, 75
5, 305984, Note_off_c, 3, 57, 0
5, 305984, Note_off_c, 3, 45, 0
5, 306048, Note_on_c, 3, 57, 75
5, 306048, Note_on_c, 3, 45, 75
5, 306368, Note_off_c, 3, 57, 0
5, 306368, Note_off_c, 3, 45, 0
5, 306432, Note_on_c, 3, 57, 75
5, 306432, Note_on_c, 3, 45, 75
5, 306752, Note_off_c, 3, 57, 0
5, 306752, Note_off_c, 3, 45, 0
5, 306816, Note_on_c, 3, 57, 75
5, 306816, Note_on_c, 3, 45, 75
5, 307136, Note_off_c, 3, 57, 0
5, 307136, Note_off_c, 3, 45, 0
5, 307200, Note_on_c, 3, 57, 75
5, 307200, Note_on_c, 3, 45, 75
5, 307520, Note_off_c, 3, 57, 0
5, 307520, Note_off_c, 3, 45, 0
5, 308352, Note_on_c, 3, 57, 75
5, 308672, Note_off_c, 3, 57, 0
5, 309120, Note_on_c, 3, 50, 75
5, 309440, Note_off_c, 3, 50, 0
5, 309504, Note_on_c, 3, 57, 75
5, 309824, Note_off_c, 3, 57, 0
5, 309888, Note_on_c, 3, 45, 75
5, 310208, Note_off_c, 3, 45, 0
5, 310656, Note_on_c, 3, 52, 75
5, 310656, Note_on_c, 3, 61, 75
5, 310656, Note_on_c, 3, 64, 75
5, 311036, Note_off_c, 3, 61, 0
5, 311036, Note_off_c, 3, 64, 0
5, 311040, Note_on_c, 3, 59, 75
5, 311040, Note_on_c, 3, 62, 75
5, 311420, Note_off_c, 3, 59, 0
5, 311420, Note_off_c, 3, 62, 0
5, 311424, Note_on_c, 3, 56, 75
5, 311424, Note_on_c, 3, 59, 75
5, 311620, Note_off_c, 3, 52, 0
5, 311744, Note_off_c, 3, 56, 0
5, 311744, Note_off_c, 3, 59, 0
5, 312192, Note_on_c, 3, 57, 75
5, 312192, Note_on_c, 3, 54, 75
5, 312512, Note_off_c, 3, 57, 0
5, 312512, Note_off_c, 3, 54, 0
5, 312576, Note_on_c, 3, 54, 75
5, 312576, Note_on_c, 3, 50, 75
5, 312896, Note_off_c, 3, 54, 0
5, 312896, Note_off_c, 3, 50, 0
5, 312960, Note_on_c, 3, 59, 75
5, 312960, Note_on_c, 3, 56, 75
5, 313280, Note_off_c, 3, 59, 0
5, 313280, Note_off_c, 3, 56, 0
5, 315840, Note_on_c, 3, 63, 75
5, 315840, Note_on_c, 3, 51, 75
5, 316028, Note_off_c, 3, 63, 0
5, 316028, Note_off_c, 3, 51, 0
5, 316032, Note_on_c, 3, 50, 75
5, 316032, Note_on_c, 3, 62, 75
5, 316220, Note_off_c, 3, 50, 0
5, 316220, Note_off_c, 3, 62, 0
5, 316224, Note_on_c, 3, 59, 75
5, 316224, Note_on_c, 3, 47, 75
5, 316412, Note_off_c, 3, 59, 0
5, 316412, Note_off_c, 3, 47, 0
5, 316416, Note_on_c, 3, 57, 75
5, 316416, Note_on_c, 3, 45, 75
5, 316736, Note_off_c, 3, 57, 0
5, 316736, Note_off_c, 3, 45, 0
5, 317952, Note_on_c, 3, 57, 75
5, 319808, Note_off_c, 3, 57, 0
5, 322560, Note_on_c, 3, 61, 75
5, 322560, Note_on_c, 3, 49, 75
5, 324092, Note_off_c, 3, 61, 0
5, 324092, Note_off_c, 3, 49, 0
5, 324096, Note_on_c, 3, 59, 75
5, 324096, Note_on_c, 3, 47, 75
5, 325444, Note_off_c, 3, 59, 0
5, 325444, Note_off_c, 3, 47, 0
5, 325632, Note_on_c, 3, 57, 75
5, 325632, Note_on_c, 3, 45, 75
5, 325792, Note_off_c, 3, 57, 0
5, 325792, Note_off_c, 3, 45, 0
5, 326016, Note_on_c, 3, 50, 75
5, 326176, Note_off_c, 3, 50, 0
5, 326400, Note_on_c, 3, 52, 75
5, 326560, Note_off_c, 3, 52, 0
5, 326784, Note_on_c, 3, 52, 75
5, 326944, Note_off_c, 3, 52, 0
5, 327168, Note_on_c, 3, 64, 100
5, 327168, Note_on_c, 3, 61, 100
5, 327168, Note_on_c, 3, 57, 100
5, 327328, Note_off_c, 3, 64, 0
5, 327328, Note_off_c, 3, 61, 0
5, 327328, Note_off_c, 3, 57, 0
5, 327360, Note_on_c, 3, 64, 100
5, 327360, Note_on_c, 3, 57, 100
5, 327360, Note_on_c, 3, 61, 100
5, 327520, Note_off_c, 3, 64, 0
5, 327520, Note_off_c, 3, 57, 0
5, 327520, Note_off_c, 3, 61, 0
5, 327552, Note_on_c, 3, 64, 100
5, 327552, Note_on_c, 3, 61, 100
5, 327552, Note_on_c, 3, 57, 100
5, 327712, Note_off_c, 3, 64, 0
5, 327712, Note_off_c, 3, 61, 0
5, 327712, Note_off_c, 3, 57, 0
5, 327744, Note_on_c, 3, 64, 100
5, 327744, Note_on_c, 3, 61, 100
5, 327744, Note_on_c, 3, 57, 100
5, 327904, Note_off_c, 3, 64, 0
5, 327904, Note_off_c, 3, 61, 0
5, 327904, Note_off_c, 3, 57, 0
5, 327936, Note_on_c, 3, 64, 100
5, 327936, Note_on_c, 3, 61, 100
5, 327936, Note_on_c, 3, 57, 100
5, 328096, Note_off_c, 3, 64, 0
5, 328096, Note_off_c, 3, 61, 0
5, 328096, Note_off_c, 3, 57, 0
5, 328128, Note_on_c, 3, 64, 100
5, 328128, Note_on_c, 3, 61, 100
5, 328128, Note_on_c, 3, 57, 100
5, 328288, Note_off_c, 3, 64, 0
5, 328288, Note_off_c, 3, 61, 0
5, 328288, Note_off_c, 3, 57, 0
5, 328320, Note_on_c, 3, 64, 100
5, 328320, Note_on_c, 3, 61, 100
5, 328320, Note_on_c, 3, 57, 100
5, 328320, Note_on_c, 3, 55, 100
5, 328480, Note_off_c, 3, 64, 0
5, 328480, Note_off_c, 3, 61, 0
5, 328480, Note_off_c, 3, 57, 0
5, 328480, Note_off_c, 3, 55, 0
5, 328512, Note_on_c, 3, 64, 100
5, 328512, Note_on_c, 3, 61, 100
5, 328512, Note_on_c, 3, 57, 100
5, 328512, Note_on_c, 3, 55, 100
5, 328672, Note_off_c, 3, 64, 0
5, 328672, Note_off_c, 3, 61, 0
5, 328672, Note_off_c, 3, 57, 0
5, 328672, Note_off_c, 3, 55, 0
5, 328704, Note_on_c, 3, 62, 100
5, 328704, Note_on_c, 3, 57, 100
5, 328704, Note_on_c, 3, 54, 100
5, 328864, Note_off_c, 3, 62, 0
5, 328864, Note_off_c, 3, 57, 0
5, 328864, Note_off_c, 3, 54, 0
5, 328896, Note_on_c, 3, 62, 100
5, 328896, Note_on_c, 3, 57, 100
5, 328896, Note_on_c, 3, 54, 100
5, 329056, Note_off_c, 3, 62, 0
5, 329056, Note_off_c, 3, 57, 0
5, 329056, Note_off_c, 3, 54, 0
5, 329088, Note_on_c, 3, 62, 100
5, 329088, Note_on_c, 3, 57, 100
5, 329088, Note_on_c, 3, 54, 100
5, 329248, Note_off_c, 3, 62, 0
5, 329248, Note_off_c, 3, 57, 0
5, 329248, Note_off_c, 3, 54, 0
5, 329280, Note_on_c, 3, 62, 100
5, 329280, Note_on_c, 3, 57, 100
5, 329280, Note_on_c, 3, 54, 100
5, 329440, Note_off_c, 3, 62, 0
5, 329440, Note_off_c, 3, 57, 0
5, 329440, Note_off_c, 3, 54, 0
5, 329472, Note_on_c, 3, 62, 100
5, 329472, Note_on_c, 3, 57, 100
5, 329472, Note_on_c, 3, 54, 100
5, 329632, Note_off_c, 3, 62, 0
5, 329632, Note_off_c, 3, 57, 0
5, 329632, Note_off_c, 3, 54, 0
5, 329664, Note_on_c, 3, 62, 100
5, 329664, Note_on_c, 3, 57, 100
5, 329664, Note_on_c, 3, 54, 100
5, 329824, Note_off_c, 3, 62, 0
5, 329824, Note_off_c, 3, 57, 0
5, 329824, Note_off_c, 3, 54, 0
5, 329856, Note_on_c, 3, 62, 100
5, 329856, Note_on_c, 3, 57, 100
5, 329856, Note_on_c, 3, 54, 100
5, 330016, Note_off_c, 3, 62, 0
5, 330016, Note_off_c, 3, 57, 0
5, 330016, Note_off_c, 3, 54, 0
5, 330048, Note_on_c, 3, 62, 100
5, 330048, Note_on_c, 3, 57, 100
5, 330048, Note_on_c, 3, 54, 100
5, 330208, Note_off_c, 3, 62, 0
5, 330208, Note_off_c, 3, 57, 0
5, 330208, Note_off_c, 3, 54, 64
5, 330240, Note_on_c, 3, 57, 100
5, 330240, Note_on_c, 3, 61, 100
5, 330240, Note_on_c, 3, 52, 100
5, 330400, Note_off_c, 3, 57, 0
5, 330400, Note_off_c, 3, 61, 0
5, 330400, Note_off_c, 3, 52, 0
5, 330432, Note_on_c, 3, 61, 100
5, 330432, Note_on_c, 3, 52, 100
5, 330432, Note_on_c, 3, 57, 100
5, 330592, Note_off_c, 3, 61, 0
5, 330592, Note_off_c, 3, 52, 0
5, 330592, Note_off_c, 3, 57, 0
5, 330624, Note_on_c, 3, 61, 100
5, 330624, Note_on_c, 3, 57, 100
5, 330624, Note_on_c, 3, 52, 100
5, 330784, Note_off_c, 3, 61, 0
5, 330784, Note_off_c, 3, 57, 0
5, 330784, Note_off_c, 3, 52, 0
5, 330816, Note_on_c, 3, 61, 100
5, 330816, Note_on_c, 3, 57, 100
5, 330816, Note_on_c, 3, 52, 100
5, 330976, Note_off_c, 3, 61, 0
5, 330976, Note_off_c, 3, 57, 0
5, 330976, Note_off_c, 3, 52, 0
5, 331008, Note_on_c, 3, 61, 100
5, 331008, Note_on_c, 3, 57, 100
5, 331008, Note_on_c, 3, 52, 100
5, 331168, Note_off_c, 3, 61, 0
5, 331168, Note_off_c, 3, 57, 0
5, 331168, Note_off_c, 3, 52, 0
5, 331200, Note_on_c, 3, 57, 100
5, 331200, Note_on_c, 3, 50, 100
5, 331360, Note_off_c, 3, 57, 0
5, 331360, Note_off_c, 3, 50, 0
5, 331392, Note_on_c, 3, 57, 100
5, 331392, Note_on_c, 3, 49, 100
5, 331552, Note_off_c, 3, 57, 0
5, 331552, Note_off_c, 3, 49, 0
5, 331584, Note_on_c, 3, 57, 100
5, 331584, Note_on_c, 3, 47, 100
5, 331744, Note_off_c, 3, 57, 0
5, 331744, Note_off_c, 3, 47, 0
5, 331776, Note_on_c, 3, 57, 100
5, 331776, Note_on_c, 3, 52, 100
5, 331776, Note_on_c, 3, 45, 100
5, 331936, Note_off_c, 3, 57, 0
5, 331936, Note_off_c, 3, 52, 0
5, 331936, Note_off_c, 3, 45, 0
5, 331968, Note_on_c, 3, 57, 100
5, 331968, Note_on_c, 3, 52, 100
5, 331968, Note_on_c, 3, 45, 100
5, 332128, Note_off_c, 3, 57, 0
5, 332128, Note_off_c, 3, 52, 0
5, 332128, Note_off_c, 3, 45, 0
5, 332160, Note_on_c, 3, 57, 100
5, 332160, Note_on_c, 3, 52, 100
5, 332160, Note_on_c, 3, 45, 100
5, 332320, Note_off_c, 3, 57, 0
5, 332320, Note_off_c, 3, 52, 0
5, 332320, Note_off_c, 3, 45, 0
5, 332352, Note_on_c, 3, 57, 100
5, 332352, Note_on_c, 3, 52, 100
5, 332352, Note_on_c, 3, 45, 100
5, 332512, Note_off_c, 3, 57, 0
5, 332512, Note_off_c, 3, 52, 0
5, 332512, Note_off_c, 3, 45, 0
5, 332544, Note_on_c, 3, 57, 100
5, 332544, Note_on_c, 3, 52, 100
5, 332544, Note_on_c, 3, 45, 100
5, 332704, Note_off_c, 3, 57, 0
5, 332704, Note_off_c, 3, 52, 0
5, 332704, Note_off_c, 3, 45, 0
5, 332736, Note_on_c, 3, 57, 100
5, 332736, Note_on_c, 3, 45, 100
5, 332896, Note_off_c, 3, 57, 0
5, 332896, Note_off_c, 3, 45, 0
5, 332928, Note_on_c, 3, 57, 100
5, 332928, Note_on_c, 3, 49, 100
5, 333088, Note_off_c, 3, 57, 0
5, 333088, Note_off_c, 3, 49, 0
5, 333120, Note_on_c, 3, 57, 100
5, 333120, Note_on_c, 3, 49, 100
5, 333280, Note_off_c, 3, 57, 0
5, 333280, Note_off_c, 3, 49, 0
5, 333312, Note_on_c, 3, 57, 100
5, 333312, Note_on_c, 3, 50, 100
5, 333472, Note_off_c, 3, 57, 0
5, 333472, Note_off_c, 3, 50, 0
5, 333504, Note_on_c, 3, 57, 100
5, 333504, Note_on_c, 3, 50, 100
5, 333664, Note_off_c, 3, 57, 0
5, 333664, Note_off_c, 3, 50, 0
5, 333696, Note_on_c, 3, 57, 100
5, 333696, Note_on_c, 3, 50, 100
5, 333856, Note_off_c, 3, 57, 0
5, 333856, Note_off_c, 3, 50, 0
5, 333888, Note_on_c, 3, 57, 100
5, 333888, Note_on_c, 3, 50, 100
5, 334048, Note_off_c, 3, 57, 0
5, 334048, Note_off_c, 3, 50, 0
5, 334080, Note_on_c, 3, 57, 100
5, 334080, Note_on_c, 3, 50, 100
5, 334400, Note_off_c, 3, 57, 0
5, 334400, Note_off_c, 3, 50, 0
5, 334848, Note_on_c, 3, 59, 75
5, 335996, Note_off_c, 3, 59, 0
5, 336000, Note_on_c, 3, 57, 75
5, 336320, Note_off_c, 3, 57, 0
5, 336384, Note_on_c, 3, 56, 75
5, 337796, Note_off_c, 3, 56, 0
5, 337920, Note_on_c, 3, 57, 75
5, 338684, Note_off_c, 3, 57, 0
5, 338688, Note_on_c, 3, 54, 75
5, 339068, Note_off_c, 3, 54, 0
5, 339072, Note_on_c, 3, 52, 75
5, 339452, Note_off_c, 3, 52, 0
5, 339456, Note_on_c, 3, 50, 75
5, 342244, Note_off_c, 3, 50, 0
5, 342336, Note_on_c, 3, 51, 75
5, 342496, Note_off_c, 3, 51, 0
5, 342528, Note_on_c, 3, 56, 100
5, 342528, Note_on_c, 3, 52, 100
5, 343172, Note_off_c, 3, 56, 0
5, 343296, Note_on_c, 3, 62, 75
5, 343456, Note_off_c, 3, 62, 0
5, 343680, Note_on_c, 3, 61, 75
5, 343840, Note_off_c, 3, 61, 0
5, 344064, Note_on_c, 3, 59, 75
5, 344224, Note_off_c, 3, 59, 0
5, 344448, Note_on_c, 3, 57, 75
5, 344608, Note_off_c, 3, 57, 0
5, 344832, Note_on_c, 3, 56, 75
5, 344992, Note_off_c, 3, 56, 0
5, 345216, Note_on_c, 3, 54, 75
5, 345376, Note_off_c, 3, 54, 0
5, 345476, Note_off_c, 3, 52, 0
5, 345600, Note_on_c, 3, 52, 100
5, 345600, Note_on_c, 3, 40, 100
5, 346244, Note_off_c, 3, 52, 0
5, 346244, Note_off_c, 3, 40, 0
5, 346368, Note_on_c, 3, 59, 100
5, 346368, Note_on_c, 3, 50, 100
5, 346528, Note_off_c, 3, 59, 0
5, 346528, Note_off_c, 3, 50, 0
5, 346752, Note_on_c, 3, 48, 100
5, 346752, Note_on_c, 3, 60, 100
5, 346912, Note_off_c, 3, 48, 0
5, 346912, Note_off_c, 3, 60, 0
5, 347136, Note_on_c, 3, 59, 100
5, 347136, Note_on_c, 3, 47, 100
5, 347296, Note_off_c, 3, 59, 0
5, 347296, Note_off_c, 3, 47, 0
5, 347520, Note_on_c, 3, 57, 100
5, 347520, Note_on_c, 3, 45, 100
5, 347680, Note_off_c, 3, 57, 0
5, 347680, Note_off_c, 3, 45, 0
5, 347904, Note_on_c, 3, 55, 100
5, 347904, Note_on_c, 3, 43, 100
5, 348064, Note_off_c, 3, 55, 0
5, 348064, Note_off_c, 3, 43, 0
5, 348288, Note_on_c, 3, 53, 100
5, 348288, Note_on_c, 3, 41, 100
5, 348448, Note_off_c, 3, 53, 0
5, 348448, Note_off_c, 3, 41, 0
5, 348672, Note_on_c, 3, 52, 100
5, 348672, Note_on_c, 3, 40, 100
5, 349316, Note_off_c, 3, 52, 0
5, 349316, Note_off_c, 3, 40, 0
5, 349440, Note_on_c, 3, 59, 100
5, 349440, Note_on_c, 3, 56, 100
5, 349440, Note_on_c, 3, 52, 100
5, 349924, Note_off_c, 3, 59, 0
5, 349924, Note_off_c, 3, 56, 0
5, 349924, Note_off_c, 3, 52, 0
5, 350016, Note_on_c, 3, 59, 100
5, 350016, Note_on_c, 3, 56, 100
5, 350016, Note_on_c, 3, 52, 100
5, 350176, Note_off_c, 3, 59, 0
5, 350176, Note_off_c, 3, 56, 0
5, 350176, Note_off_c, 3, 52, 0
5, 350208, Note_on_c, 3, 59, 100
5, 350208, Note_on_c, 3, 56, 100
5, 350208, Note_on_c, 3, 52, 100
5, 350368, Note_off_c, 3, 59, 0
5, 350368, Note_off_c, 3, 56, 0
5, 350368, Note_off_c, 3, 52, 0
5, 350592, Note_on_c, 3, 64, 100
5, 350592, Note_on_c, 3, 52, 100
5, 350752, Note_off_c, 3, 64, 0
5, 350752, Note_off_c, 3, 52, 0
5, 363648, Note_on_c, 3, 61, 75
5, 363836, Note_off_c, 3, 61, 0
5, 363840, Note_on_c, 3, 62, 75
5, 364028, Note_off_c, 3, 62, 0
5, 364032, Note_on_c, 3, 57, 75
5, 364032, Note_on_c, 3, 66, 75
5, 364220, Note_off_c, 3, 66, 0
5, 364224, Note_on_c, 3, 64, 75
5, 364384, Note_off_c, 3, 64, 0
5, 364416, Note_on_c, 3, 64, 75
5, 364656, Note_off_c, 3, 64, 0
5, 364704, Note_on_c, 3, 64, 75
5, 364784, Note_off_c, 3, 64, 0
5, 364796, Note_off_c, 3, 57, 0
5, 364800, Note_on_c, 3, 56, 75
5, 364800, Note_on_c, 3, 64, 75
5, 364960, Note_off_c, 3, 64, 0
5, 365184, Note_on_c, 3, 64, 75
5, 365344, Note_off_c, 3, 64, 0
5, 365444, Note_off_c, 3, 56, 0
5, 365568, Note_on_c, 3, 54, 90
5, 365568, Note_on_c, 3, 64, 90
5, 366140, Note_off_c, 3, 64, 0
5, 366144, Note_on_c, 3, 66, 90
5, 366332, Note_off_c, 3, 66, 0
5, 366336, Note_on_c, 3, 64, 88
5, 366524, Note_off_c, 3, 64, 0
5, 366528, Note_on_c, 3, 63, 85
5, 366532, Note_off_c, 3, 54, 0
5, 366716, Note_off_c, 3, 63, 0
5, 366720, Note_on_c, 3, 62, 81
5, 366720, Note_on_c, 3, 52, 81
5, 366908, Note_off_c, 3, 62, 0
5, 366912, Note_on_c, 3, 61, 77
5, 367072, Note_off_c, 3, 61, 0
5, 367100, Note_off_c, 3, 52, 0
5, 367104, Note_on_c, 3, 61, 75
5, 367104, Note_on_c, 3, 54, 75
5, 367104, Note_on_c, 3, 51, 75
5, 367292, Note_off_c, 3, 61, 0
5, 367296, Note_on_c, 3, 59, 75
5, 367456, Note_off_c, 3, 59, 0
5, 367488, Note_on_c, 3, 59, 75
5, 367728, Note_off_c, 3, 59, 0
5, 367776, Note_on_c, 3, 59, 75
5, 367856, Note_off_c, 3, 59, 0
5, 367872, Note_on_c, 3, 59, 75
5, 368032, Note_off_c, 3, 59, 0
5, 368256, Note_on_c, 3, 59, 75
5, 368416, Note_off_c, 3, 59, 0
5, 368452, Note_off_c, 3, 54, 0
5, 368452, Note_off_c, 3, 51, 0
5, 368640, Note_on_c, 3, 59, 90
5, 368640, Note_on_c, 3, 56, 90
5, 368640, Note_on_c, 3, 52, 90
5, 368640, Note_on_c, 3, 51, 90
5, 369988, Note_off_c, 3, 59, 0
5, 369988, Note_off_c, 3, 56, 0
5, 369988, Note_off_c, 3, 52, 0
5, 369988, Note_off_c, 3, 51, 0
5, 370176, Note_on_c, 3, 52, 75
5, 370176, Note_on_c, 3, 49, 75
5, 370176, Note_on_c, 3, 57, 75
5, 371708, Note_off_c, 3, 52, 0
5, 371708, Note_off_c, 3, 49, 0
5, 371712, Note_on_c, 3, 50, 75
5, 372032, Note_off_c, 3, 57, 0
5, 372676, Note_off_c, 3, 50, 0
5, 372864, Note_on_c, 3, 49, 75
5, 373024, Note_off_c, 3, 49, 0
5, 373056, Note_on_c, 3, 47, 75
5, 373216, Note_off_c, 3, 47, 0
5, 373248, Note_on_c, 3, 45, 75
5, 373408, Note_off_c, 3, 45, 0
5, 373632, Note_on_c, 3, 49, 75
5, 373792, Note_off_c, 3, 49, 0
5, 374016, Note_on_c, 3, 52, 75
5, 374208, Note_on_c, 3, 57, 75
5, 374208, Note_on_c, 3, 64, 75
5, 374396, Note_off_c, 3, 57, 0
5, 374396, Note_off_c, 3, 64, 0
5, 374400, Note_on_c, 3, 56, 75
5, 374400, Note_on_c, 3, 62, 75
5, 374588, Note_off_c, 3, 56, 0
5, 374592, Note_on_c, 3, 59, 75
5, 374660, Note_off_c, 3, 52, 0
5, 374720, Note_off_c, 3, 62, 0
5, 374752, Note_off_c, 3, 59, 0
5, 374784, Note_on_c, 3, 61, 75
5, 374784, Note_on_c, 3, 57, 75
5, 375164, Note_off_c, 3, 61, 0
5, 376320, Note_on_c, 3, 45, 75
5, 376320, Note_on_c, 3, 57, 75
5, 376640, Note_off_c, 3, 45, 0
5, 377856, Note_on_c, 3, 45, 75
5, 379004, Note_off_c, 3, 57, 64
5, 379204, Note_off_c, 3, 45, 0
5, 379204, Note_off_c, 3, 57, 64
5, 380928, Note_on_c, 3, 59, 75
5, 380928, Note_on_c, 3, 56, 75
5, 382076, Note_off_c, 3, 59, 0
5, 382076, Note_off_c, 3, 56, 0
5, 382080, Note_on_c, 3, 57, 75
5, 382400, Note_off_c, 3, 57, 0
5, 382464, Note_on_c, 3, 50, 75
5, 382784, Note_off_c, 3, 50, 0
5, 383232, Note_on_c, 3, 52, 75
5, 383552, Note_off_c, 3, 52, 0
5, 384000, Note_on_c, 3, 54, 75
5, 384000, Note_on_c, 3, 61, 75
5, 384764, Note_off_c, 3, 54, 0
5, 384768, Note_on_c, 3, 59, 75
5, 384768, Note_on_c, 3, 56, 75
5, 384768, Note_on_c, 3, 53, 75
5, 385412, Note_off_c, 3, 59, 0
5, 385412, Note_off_c, 3, 56, 0
5, 385412, Note_off_c, 3, 53, 0
5, 385536, Note_on_c, 3, 57, 75
5, 385536, Note_on_c, 3, 54, 75
5, 386300, Note_off_c, 3, 57, 0
5, 386300, Note_off_c, 3, 54, 0
5, 386304, Note_on_c, 3, 59, 75
5, 386304, Note_on_c, 3, 56, 75
5, 386304, Note_on_c, 3, 53, 75
5, 386948, Note_off_c, 3, 59, 0
5, 386948, Note_off_c, 3, 56, 0
5, 386948, Note_off_c, 3, 53, 0
5, 387072, Note_on_c, 3, 57, 75
5, 387072, Note_on_c, 3, 54, 75
5, 387836, Note_off_c, 3, 57, 0
5, 387836, Note_off_c, 3, 54, 0
5, 387840, Note_on_c, 3, 59, 75
5, 387840, Note_on_c, 3, 56, 75
5, 387840, Note_on_c, 3, 53, 75
5, 388484, Note_off_c, 3, 59, 0
5, 388484, Note_off_c, 3, 56, 0
5, 388484, Note_off_c, 3, 53, 0
5, 388608, Note_on_c, 3, 57, 75
5, 388608, Note_on_c, 3, 54, 75
5, 388768, Note_off_c, 3, 57, 0
5, 388768, Note_off_c, 3, 54, 0
5, 388768, Note_off_c, 3, 61, 64
5, 388992, Note_on_c, 3, 61, 75
5, 388992, Note_on_c, 3, 57, 75
5, 388992, Note_on_c, 3, 54, 75
5, 389756, Note_off_c, 3, 61, 0
5, 389756, Note_off_c, 3, 57, 0
5, 389756, Note_off_c, 3, 54, 0
5, 389760, Note_on_c, 3, 61, 75
5, 389760, Note_on_c, 3, 57, 75
5, 389760, Note_on_c, 3, 52, 75
5, 390080, Note_off_c, 3, 61, 0
5, 390080, Note_off_c, 3, 57, 0
5, 390080, Note_off_c, 3, 52, 0
5, 390144, Note_on_c, 3, 62, 75
5, 390144, Note_on_c, 3, 57, 75
5, 390144, Note_on_c, 3, 50, 75
5, 390464, Note_off_c, 3, 62, 0
5, 390464, Note_off_c, 3, 57, 0
5, 390464, Note_off_c, 3, 50, 0
5, 391680, Note_on_c, 3, 59, 75
5, 391680, Note_on_c, 3, 56, 75
5, 392828, Note_off_c, 3, 59, 0
5, 392828, Note_off_c, 3, 56, 0
5, 392832, Note_on_c, 3, 57, 75
5, 393152, Note_off_c, 3, 57, 0
5, 393216, Note_on_c, 3, 50, 75
5, 393216, Note_on_c, 3, 38, 75
5, 393596, Note_off_c, 3, 50, 0
5, 393596, Note_off_c, 3, 38, 0
5, 393984, Note_on_c, 3, 52, 75
5, 393984, Note_on_c, 3, 40, 75
5, 394364, Note_off_c, 3, 52, 0
5, 394364, Note_off_c, 3, 40, 0
5, 394752, Note_on_c, 3, 56, 100
5, 394752, Note_on_c, 3, 44, 100
5, 395900, Note_off_c, 3, 56, 0
5, 395900, Note_off_c, 3, 44, 0
5, 395904, Note_on_c, 3, 57, 100
5, 395904, Note_on_c, 3, 45, 100
5, 396224, Note_off_c, 3, 57, 0
5, 396224, Note_off_c, 3, 45, 0
5, 396288, Note_on_c, 3, 56, 100
5, 396288, Note_on_c, 3, 44, 100
5, 396288, Note_on_c, 3, 52, 100
5, 397436, Note_off_c, 3, 56, 0
5, 397436, Note_off_c, 3, 44, 0
5, 397440, Note_on_c, 3, 57, 100
5, 397440, Note_on_c, 3, 45, 100
5, 397636, Note_off_c, 3, 52, 0
5, 397760, Note_off_c, 3, 57, 0
5, 397760, Note_off_c, 3, 45, 0
5, 397824, Note_on_c, 3, 50, 101
5, 397824, Note_on_c, 3, 38, 101
5, 398308, Note_off_c, 3, 50, 0
5, 398308, Note_off_c, 3, 38, 0
5, 398400, Note_on_c, 3, 50, 102
5, 398400, Note_on_c, 3, 38, 102
5, 398588, Note_off_c, 3, 50, 0
5, 398588, Note_off_c, 3, 38, 0
5, 398592, Note_on_c, 3, 52, 103
5, 398592, Note_on_c, 3, 40, 103
5, 399076, Note_off_c, 3, 52, 0
5, 399076, Note_off_c, 3, 40, 0
5, 399168, Note_on_c, 3, 52, 104
5, 399168, Note_on_c, 3, 40, 104
5, 399356, Note_off_c, 3, 52, 0
5, 399356, Note_off_c, 3, 40, 0
5, 399360, Note_on_c, 3, 54, 105
5, 399360, Note_on_c, 3, 42, 105
5, 399844, Note_off_c, 3, 54, 0
5, 399844, Note_off_c, 3, 42, 0
5, 399936, Note_on_c, 3, 54, 107
5, 399936, Note_on_c, 3, 42, 107
5, 400124, Note_off_c, 3, 54, 0
5, 400124, Note_off_c, 3, 42, 0
5, 400128, Note_on_c, 3, 56, 107
5, 400128, Note_on_c, 3, 44, 107
5, 400772, Note_off_c, 3, 56, 0
5, 400772, Note_off_c, 3, 44, 0
5, 410880, Note_on_c, 3, 57, 75
5, 411524, Note_off_c, 3, 57, 0
5, 411648, Note_on_c, 3, 62, 75
5, 411648, Note_on_c, 3, 50, 75
5, 412996, Note_off_c, 3, 62, 0
5, 413184, Note_on_c, 3, 59, 75
5, 413504, Note_off_c, 3, 50, 0
5, 413564, Note_off_c, 3, 59, 0
5, 413568, Note_on_c, 3, 56, 75
5, 413568, Note_on_c, 3, 52, 75
5, 413852, Note_off_c, 3, 52, 0
5, 413856, Note_on_c, 3, 50, 75
5, 413948, Note_off_c, 3, 56, 0
5, 413948, Note_off_c, 3, 50, 0
5, 413952, Note_on_c, 3, 49, 75
5, 413952, Note_on_c, 3, 57, 75
5, 414272, Note_off_c, 3, 49, 0
5, 414336, Note_on_c, 3, 45, 75
5, 414596, Note_off_c, 3, 57, 0
5, 414656, Note_off_c, 3, 45, 0
5, 414720, Note_on_c, 3, 66, 75
5, 414720, Note_on_c, 3, 54, 75
5, 415868, Note_off_c, 3, 54, 0
5, 415872, Note_on_c, 3, 59, 75
5, 416068, Note_off_c, 3, 66, 0
5, 416156, Note_off_c, 3, 59, 0
5, 416160, Note_on_c, 3, 56, 75
5, 416240, Note_off_c, 3, 56, 0
5, 416256, Note_on_c, 3, 64, 75
5, 416256, Note_on_c, 3, 52, 75
5, 416624, Note_on_c, 3, 57, 75
5, 416624, Note_on_c, 3, 64, 75
5, 416636, Note_off_c, 3, 64, 0
5, 416636, Note_off_c, 3, 52, 0
5, 416908, Note_off_c, 3, 57, 64
5, 416908, Note_off_c, 3, 64, 64
5, 416928, Note_on_c, 3, 57, 75
5, 416928, Note_on_c, 3, 54, 75
5, 417008, Note_off_c, 3, 57, 64
5, 417008, Note_off_c, 3, 54, 64
5, 417024, Note_on_c, 3, 62, 75
5, 417024, Note_on_c, 3, 50, 75
5, 417344, Note_off_c, 3, 62, 0
5, 417344, Note_off_c, 3, 50, 0
5, 417408, Note_on_c, 3, 59, 75
5, 417408, Note_on_c, 3, 51, 75
5, 417788, Note_off_c, 3, 59, 0
5, 417788, Note_off_c, 3, 51, 0
5, 417792, Note_on_c, 3, 59, 75
5, 417792, Note_on_c, 3, 52, 75
5, 418112, Note_off_c, 3, 59, 0
5, 418112, Note_off_c, 3, 52, 0
5, 418176, Note_on_c, 3, 52, 75
5, 418176, Note_on_c, 3, 59, 75
5, 418496, Note_off_c, 3, 52, 0
5, 418560, Note_on_c, 3, 61, 75
5, 418940, Note_off_c, 3, 59, 0
5, 418944, Note_on_c, 3, 57, 75
5, 419264, Note_off_c, 3, 57, 0
5, 419324, Note_off_c, 3, 61, 0
5, 419328, Note_on_c, 3, 40, 75
5, 419328, Note_on_c, 3, 52, 75
5, 421508, Note_off_c, 3, 40, 0
5, 421508, Note_off_c, 3, 52, 0
5, 421632, Note_on_c, 3, 59, 75
5, 421632, Note_on_c, 3, 62, 75
5, 421632, Note_on_c, 3, 52, 75
5, 422396, Note_off_c, 3, 59, 0
5, 422396, Note_off_c, 3, 62, 0
5, 422396, Note_off_c, 3, 52, 0
5, 422400, Note_on_c, 3, 57, 75
5, 422400, Note_on_c, 3, 54, 75
5, 422400, Note_on_c, 3, 61, 75
5, 422720, Note_off_c, 3, 57, 0
5, 422720, Note_off_c, 3, 54, 0
5, 422720, Note_off_c, 3, 61, 0
5, 423936, Note_on_c, 3, 49, 75
5, 423936, Note_on_c, 3, 37, 75
5, 425468, Note_off_c, 3, 49, 0
5, 425468, Note_off_c, 3, 37, 0
5, 425472, Note_on_c, 3, 50, 75
5, 425472, Note_on_c, 3, 38, 75
5, 425792, Note_off_c, 3, 50, 0
5, 425792, Note_off_c, 3, 38, 0
5, 427008, Note_on_c, 3, 39, 75
5, 427008, Note_on_c, 3, 51, 75
5, 428540, Note_off_c, 3, 39, 0
5, 428540, Note_off_c, 3, 51, 0
5, 428544, Note_on_c, 3, 52, 75
5, 428544, Note_on_c, 3, 40, 75
5, 428704, Note_off_c, 3, 52, 64
5, 428704, Note_off_c, 3, 40, 64
5, 428736, Note_on_c, 3, 52, 75
5, 428816, Note_off_c, 3, 52, 0
5, 428928, Note_on_c, 3, 54, 75
5, 429008, Note_off_c, 3, 54, 0
5, 429120, Note_on_c, 3, 56, 75
5, 429200, Note_off_c, 3, 56, 0
5, 429312, Note_on_c, 3, 57, 75
5, 429392, Note_off_c, 3, 57, 0
5, 429504, Note_on_c, 3, 59, 75
5, 429584, Note_off_c, 3, 59, 0
5, 429696, Note_on_c, 3, 61, 75
5, 429776, Note_off_c, 3, 61, 0
5, 429888, Note_on_c, 3, 62, 75
5, 429968, Note_off_c, 3, 62, 0
5, 430080, Note_on_c, 3, 52, 75
5, 430080, Note_on_c, 3, 64, 75
5, 430160, Note_off_c, 3, 64, 0
5, 430272, Note_on_c, 3, 52, 75
5, 430352, Note_off_c, 3, 52, 0
5, 430464, Note_on_c, 3, 54, 75
5, 430544, Note_off_c, 3, 54, 0
5, 430656, Note_on_c, 3, 56, 75
5, 430736, Note_off_c, 3, 56, 0
5, 430848, Note_on_c, 3, 57, 75
5, 430928, Note_off_c, 3, 57, 0
5, 431040, Note_on_c, 3, 59, 75
5, 431120, Note_off_c, 3, 59, 0
5, 431232, Note_on_c, 3, 61, 75
5, 431312, Note_off_c, 3, 61, 0
5, 431392, Note_off_c, 3, 52, 0
5, 431424, Note_on_c, 3, 62, 75
5, 431504, Note_off_c, 3, 62, 0
5, 431616, Note_on_c, 3, 64, 75
5, 431616, Note_on_c, 3, 52, 75
5, 431776, Note_off_c, 3, 64, 0
5, 431776, Note_off_c, 3, 52, 0
5, 433152, Note_on_c, 3, 52, 75
5, 433152, Note_on_c, 3, 40, 75
5, 433920, Note_on_c, 3, 61, 75
5, 433920, Note_on_c, 3, 49, 75
5, 434116, Note_off_c, 3, 52, 0
5, 434116, Note_off_c, 3, 40, 0
5, 434240, Note_off_c, 3, 61, 0
5, 434240, Note_off_c, 3, 49, 0
5, 434304, Note_on_c, 3, 57, 75
5, 434304, Note_on_c, 3, 45, 75
5, 434624, Note_off_c, 3, 57, 0
5, 434624, Note_off_c, 3, 45, 0
5, 434688, Note_on_c, 3, 52, 76
5, 434688, Note_on_c, 3, 40, 76
5, 434848, Note_off_c, 3, 52, 0
5, 434848, Note_off_c, 3, 40, 0
5, 434880, Note_on_c, 3, 52, 79
5, 434880, Note_on_c, 3, 40, 79
5, 435040, Note_off_c, 3, 52, 0
5, 435040, Note_off_c, 3, 40, 0
5, 435072, Note_on_c, 3, 52, 82
5, 435072, Note_on_c, 3, 40, 82
5, 435232, Note_off_c, 3, 52, 0
5, 435232, Note_off_c, 3, 40, 0
5, 435264, Note_on_c, 3, 52, 85
5, 435264, Note_on_c, 3, 40, 85
5, 435424, Note_off_c, 3, 52, 0
5, 435424, Note_off_c, 3, 40, 0
5, 435456, Note_on_c, 3, 52, 89
5, 435456, Note_on_c, 3, 40, 89
5, 435616, Note_off_c, 3, 52, 0
5, 435616, Note_off_c, 3, 40, 0
5, 435648, Note_on_c, 3, 52, 92
5, 435648, Note_on_c, 3, 40, 92
5, 435808, Note_off_c, 3, 52, 0
5, 435808, Note_off_c, 3, 40, 0
5, 435840, Note_on_c, 3, 52, 95
5, 435840, Note_on_c, 3, 40, 95
5, 436000, Note_off_c, 3, 52, 0
5, 436000, Note_off_c, 3, 40, 0
5, 436032, Note_on_c, 3, 52, 98
5, 436032, Note_on_c, 3, 40, 98
5, 436192, Note_off_c, 3, 52, 0
5, 436192, Note_off_c, 3, 40, 0
5, 436224, Note_on_c, 3, 57, 100
5, 436224, Note_on_c, 3, 45, 100
5, 436384, Note_off_c, 3, 57, 0
5, 436384, Note_off_c, 3, 45, 0
5, 436416, Note_on_c, 3, 61, 100
5, 436416, Note_on_c, 3, 64, 100
5, 436416, Note_on_c, 3, 57, 100
5, 436576, Note_off_c, 3, 61, 0
5, 436576, Note_off_c, 3, 64, 0
5, 436576, Note_off_c, 3, 57, 0
5, 436608, Note_on_c, 3, 57, 100
5, 436608, Note_on_c, 3, 61, 100
5, 436608, Note_on_c, 3, 64, 100
5, 436768, Note_off_c, 3, 57, 0
5, 436768, Note_off_c, 3, 61, 0
5, 436768, Note_off_c, 3, 64, 0
5, 436800, Note_on_c, 3, 57, 100
5, 436800, Note_on_c, 3, 61, 100
5, 436800, Note_on_c, 3, 64, 100
5, 436960, Note_off_c, 3, 57, 0
5, 436960, Note_off_c, 3, 61, 0
5, 436960, Note_off_c, 3, 64, 0
5, 436992, Note_on_c, 3, 57, 100
5, 436992, Note_on_c, 3, 61, 100
5, 436992, Note_on_c, 3, 64, 100
5, 437152, Note_off_c, 3, 57, 0
5, 437152, Note_off_c, 3, 61, 0
5, 437152, Note_off_c, 3, 64, 0
5, 437184, Note_on_c, 3, 57, 100
5, 437184, Note_on_c, 3, 61, 100
5, 437184, Note_on_c, 3, 64, 100
5, 437344, Note_off_c, 3, 57, 0
5, 437344, Note_off_c, 3, 61, 0
5, 437344, Note_off_c, 3, 64, 0
5, 437376, Note_on_c, 3, 57, 100
5, 437376, Note_on_c, 3, 61, 100
5, 437376, Note_on_c, 3, 64, 100
5, 437376, Note_on_c, 3, 55, 100
5, 437536, Note_off_c, 3, 57, 0
5, 437536, Note_off_c, 3, 61, 0
5, 437536, Note_off_c, 3, 64, 0
5, 437536, Note_off_c, 3, 55, 0
5, 437568, Note_on_c, 3, 57, 100
5, 437568, Note_on_c, 3, 61, 100
5, 437568, Note_on_c, 3, 64, 100
5, 437568, Note_on_c, 3, 55, 100
5, 437728, Note_off_c, 3, 57, 0
5, 437728, Note_off_c, 3, 61, 0
5, 437728, Note_off_c, 3, 64, 0
5, 437728, Note_off_c, 3, 55, 0
5, 437760, Note_on_c, 3, 62, 100
5, 437760, Note_on_c, 3, 57, 100
5, 437760, Note_on_c, 3, 54, 100
5, 437920, Note_off_c, 3, 62, 0
5, 437920, Note_off_c, 3, 57, 0
5, 437920, Note_off_c, 3, 54, 0
5, 437952, Note_on_c, 3, 62, 100
5, 437952, Note_on_c, 3, 57, 100
5, 437952, Note_on_c, 3, 54, 100
5, 438112, Note_off_c, 3, 62, 0
5, 438112, Note_off_c, 3, 57, 0
5, 438112, Note_off_c, 3, 54, 0
5, 438144, Note_on_c, 3, 62, 100
5, 438144, Note_on_c, 3, 57, 100
5, 438144, Note_on_c, 3, 54, 100
5, 438304, Note_off_c, 3, 62, 0
5, 438304, Note_off_c, 3, 57, 0
5, 438304, Note_off_c, 3, 54, 0
5, 438336, Note_on_c, 3, 62, 100
5, 438336, Note_on_c, 3, 57, 100
5, 438336, Note_on_c, 3, 54, 100
5, 438496, Note_off_c, 3, 62, 0
5, 438496, Note_off_c, 3, 57, 0
5, 438496, Note_off_c, 3, 54, 0
5, 438528, Note_on_c, 3, 62, 100
5, 438528, Note_on_c, 3, 57, 100
5, 438528, Note_on_c, 3, 54, 100
5, 438688, Note_off_c, 3, 62, 0
5, 438688, Note_off_c, 3, 57, 0
5, 438688, Note_off_c, 3, 54, 0
5, 438720, Note_on_c, 3, 62, 100
5, 438720, Note_on_c, 3, 57, 100
5, 438720, Note_on_c, 3, 54, 100
5, 438880, Note_off_c, 3, 62, 0
5, 438880, Note_off_c, 3, 57, 0
5, 438880, Note_off_c, 3, 54, 0
5, 438912, Note_on_c, 3, 62, 100
5, 438912, Note_on_c, 3, 57, 100
5, 438912, Note_on_c, 3, 54, 100
5, 439072, Note_off_c, 3, 62, 0
5, 439072, Note_off_c, 3, 57, 0
5, 439072, Note_off_c, 3, 54, 0
5, 439104, Note_on_c, 3, 62, 100
5, 439104, Note_on_c, 3, 57, 100
5, 439104, Note_on_c, 3, 54, 100
5, 439264, Note_off_c, 3, 62, 0
5, 439264, Note_off_c, 3, 57, 0
5, 439264, Note_off_c, 3, 54, 64
5, 439296, Note_on_c, 3, 61, 100
5, 439296, Note_on_c, 3, 57, 100
5, 439296, Note_on_c, 3, 52, 100
5, 439456, Note_off_c, 3, 61, 0
5, 439456, Note_off_c, 3, 57, 0
5, 439456, Note_off_c, 3, 52, 0
5, 439488, Note_on_c, 3, 61, 100
5, 439488, Note_on_c, 3, 57, 100
5, 439488, Note_on_c, 3, 52, 100
5, 439648, Note_off_c, 3, 61, 0
5, 439648, Note_off_c, 3, 57, 0
5, 439648, Note_off_c, 3, 52, 0
5, 439680, Note_on_c, 3, 61, 100
5, 439680, Note_on_c, 3, 57, 100
5, 439680, Note_on_c, 3, 52, 100
5, 439840, Note_off_c, 3, 61, 0
5, 439840, Note_off_c, 3, 57, 0
5, 439840, Note_off_c, 3, 52, 0
5, 439872, Note_on_c, 3, 61, 100
5, 439872, Note_on_c, 3, 57, 100
5, 439872, Note_on_c, 3, 52, 100
5, 440032, Note_off_c, 3, 61, 0
5, 440032, Note_off_c, 3, 57, 0
5, 440032, Note_off_c, 3, 52, 0
5, 440064, Note_on_c, 3, 61, 100
5, 440064, Note_on_c, 3, 57, 100
5, 440064, Note_on_c, 3, 52, 100
5, 440224, Note_off_c, 3, 61, 0
5, 440224, Note_off_c, 3, 57, 0
5, 440224, Note_off_c, 3, 52, 0
5, 440256, Note_on_c, 3, 57, 100
5, 440256, Note_on_c, 3, 50, 100
5, 440416, Note_off_c, 3, 57, 0
5, 440416, Note_off_c, 3, 50, 0
5, 440448, Note_on_c, 3, 57, 100
5, 440448, Note_on_c, 3, 49, 100
5, 440608, Note_off_c, 3, 57, 0
5, 440608, Note_off_c, 3, 49, 0
5, 440640, Note_on_c, 3, 57, 100
5, 440640, Note_on_c, 3, 47, 100
5, 440800, Note_off_c, 3, 57, 0
5, 440800, Note_off_c, 3, 47, 0
5, 440832, Note_on_c, 3, 57, 100
5, 440832, Note_on_c, 3, 52, 100
5, 440832, Note_on_c, 3, 45, 100
5, 440992, Note_off_c, 3, 52, 0
5, 440992, Note_off_c, 3, 45, 0
5, 441024, Note_on_c, 3, 52, 100
5, 441024, Note_on_c, 3, 45, 100
5, 441184, Note_off_c, 3, 52, 0
5, 441184, Note_off_c, 3, 45, 0
5, 441216, Note_on_c, 3, 52, 100
5, 441216, Note_on_c, 3, 45, 100
5, 441376, Note_off_c, 3, 52, 0
5, 441376, Note_off_c, 3, 45, 0
5, 441408, Note_on_c, 3, 52, 100
5, 441408, Note_on_c, 3, 45, 100
5, 441568, Note_off_c, 3, 52, 0
5, 441568, Note_off_c, 3, 45, 0
5, 441600, Note_on_c, 3, 52, 100
5, 441600, Note_on_c, 3, 45, 100
5, 441760, Note_off_c, 3, 52, 0
5, 441760, Note_off_c, 3, 45, 0
5, 441792, Note_on_c, 3, 52, 100
5, 441792, Note_on_c, 3, 45, 100
5, 441796, Note_off_c, 3, 57, 0
5, 441952, Note_off_c, 3, 52, 0
5, 441952, Note_off_c, 3, 45, 0
5, 441984, Note_on_c, 3, 57, 100
5, 441984, Note_on_c, 3, 49, 100
5, 442144, Note_off_c, 3, 49, 0
5, 442176, Note_on_c, 3, 49, 100
5, 442304, Note_off_c, 3, 57, 0
5, 442336, Note_off_c, 3, 49, 0
5, 442368, Note_on_c, 3, 57, 100
5, 442368, Note_on_c, 3, 50, 100
5, 442528, Note_off_c, 3, 57, 0
5, 442560, Note_on_c, 3, 57, 100
5, 442748, Note_off_c, 3, 57, 0
5, 442752, Note_on_c, 3, 57, 100
5, 442852, Note_off_c, 3, 50, 0
5, 442944, Note_on_c, 3, 50, 100
5, 443132, Note_off_c, 3, 50, 0
5, 443136, Note_on_c, 3, 52, 100
5, 443236, Note_off_c, 3, 57, 0
5, 443328, Note_on_c, 3, 59, 100
5, 443516, Note_off_c, 3, 59, 0
5, 443520, Note_on_c, 3, 61, 100
5, 443620, Note_off_c, 3, 52, 0
5, 443712, Note_on_c, 3, 52, 100
5, 443900, Note_off_c, 3, 61, 0
5, 443900, Note_off_c, 3, 52, 0
5, 443904, Note_on_c, 3, 54, 100
5, 443904, Note_on_c, 3, 61, 100
5, 444064, Note_off_c, 3, 61, 0
5, 444096, Note_on_c, 3, 61, 100
5, 444284, Note_off_c, 3, 61, 0
5, 444288, Note_on_c, 3, 62, 100
5, 444388, Note_off_c, 3, 54, 0
5, 444480, Note_on_c, 3, 54, 100
5, 444668, Note_off_c, 3, 54, 0
5, 444672, Note_on_c, 3, 56, 100
5, 444932, Note_off_c, 3, 62, 0
5, 444992, Note_off_c, 3, 56, 0
5, 445056, Note_on_c, 3, 64, 100
5, 445056, Note_on_c, 3, 56, 100
5, 445376, Note_off_c, 3, 64, 0
5, 445376, Note_off_c, 3, 56, 0
5, 446208, Note_on_c, 3, 45, 75
5, 446208, Note_on_c, 3, 57, 75
5, 446852, Note_off_c, 3, 45, 0
5, 446852, Note_off_c, 3, 57, 0
5, 446976, Note_on_c, 3, 50, 75
5, 446976, Note_on_c, 3, 38, 75
5, 448832, Note_off_c, 3, 50, 0
5, 448832, Note_off_c, 3, 38, 0
5, 448896, Note_on_c, 3, 56, 75
5, 448896, Note_on_c, 3, 52, 75
5, 449180, Note_off_c, 3, 52, 0
5, 449184, Note_on_c, 3, 50, 75
5, 449268, Note_off_c, 3, 50, 0
5, 449276, Note_off_c, 3, 56, 0
5, 449280, Note_on_c, 3, 49, 75
5, 449280, Note_on_c, 3, 57, 75
5, 449660, Note_off_c, 3, 49, 0
5, 449664, Note_on_c, 3, 45, 75
5, 450044, Note_off_c, 3, 57, 0
5, 450044, Note_off_c, 3, 45, 0
5, 450048, Note_on_c, 3, 54, 75
5, 450048, Note_on_c, 3, 42, 75
5, 450368, Note_off_c, 3, 54, 0
5, 450368, Note_off_c, 3, 42, 0
5, 450432, Note_on_c, 3, 54, 75
5, 450432, Note_on_c, 3, 42, 75
5, 450752, Note_off_c, 3, 54, 0
5, 450752, Note_off_c, 3, 42, 0
5, 450816, Note_on_c, 3, 57, 75
5, 450816, Note_on_c, 3, 54, 75
5, 450816, Note_on_c, 3, 63, 75
5, 451136, Note_off_c, 3, 57, 0
5, 451136, Note_off_c, 3, 54, 0
5, 451136, Note_off_c, 3, 63, 0
5, 451200, Note_on_c, 3, 57, 75
5, 451200, Note_on_c, 3, 54, 75
5, 451200, Note_on_c, 3, 63, 75
5, 451520, Note_off_c, 3, 57, 0
5, 451520, Note_off_c, 3, 54, 0
5, 451520, Note_off_c, 3, 63, 0
5, 451584, Note_on_c, 3, 63, 75
5, 451584, Note_on_c, 3, 57, 75
5, 451584, Note_on_c, 3, 54, 75
5, 451904, Note_off_c, 3, 63, 0
5, 451904, Note_off_c, 3, 57, 0
5, 451904, Note_off_c, 3, 54, 0
5, 451968, Note_on_c, 3, 63, 75
5, 451968, Note_on_c, 3, 57, 75
5, 451968, Note_on_c, 3, 54, 75
5, 452288, Note_off_c, 3, 63, 0
5, 452288, Note_off_c, 3, 57, 0
5, 452288, Note_off_c, 3, 54, 0
5, 452352, Note_on_c, 3, 63, 75
5, 452352, Note_on_c, 3, 57, 75
5, 452352, Note_on_c, 3, 54, 75
5, 452672, Note_off_c, 3, 63, 0
5, 452672, Note_off_c, 3, 57, 0
5, 452672, Note_off_c, 3, 54, 0
5, 452736, Note_on_c, 3, 63, 75
5, 452736, Note_on_c, 3, 57, 75
5, 452736, Note_on_c, 3, 54, 75
5, 453056, Note_off_c, 3, 63, 0
5, 453056, Note_off_c, 3, 57, 0
5, 453056, Note_off_c, 3, 54, 0
5, 453120, Note_on_c, 3, 63, 75
5, 453120, Note_on_c, 3, 57, 75
5, 453120, Note_on_c, 3, 54, 75
5, 453440, Note_off_c, 3, 63, 0
5, 453440, Note_off_c, 3, 57, 0
5, 453440, Note_off_c, 3, 54, 0
5, 453504, Note_on_c, 3, 54, 75
5, 453504, Note_on_c, 3, 42, 75
5, 453824, Note_off_c, 3, 54, 0
5, 453824, Note_off_c, 3, 42, 0
5, 453888, Note_on_c, 3, 53, 100
5, 453888, Note_on_c, 3, 41, 100
5, 454208, Note_off_c, 3, 53, 0
5, 454208, Note_off_c, 3, 41, 0
5, 454272, Note_on_c, 3, 53, 100
5, 454272, Note_on_c, 3, 41, 100
5, 454512, Note_off_c, 3, 53, 0
5, 454512, Note_off_c, 3, 41, 0
5, 454560, Note_on_c, 3, 53, 100
5, 454560, Note_on_c, 3, 41, 100
5, 454640, Note_off_c, 3, 53, 0
5, 454640, Note_off_c, 3, 41, 0
5, 454656, Note_on_c, 3, 52, 100
5, 454656, Note_on_c, 3, 40, 100
5, 454976, Note_off_c, 3, 52, 0
5, 454976, Note_off_c, 3, 40, 0
5, 455040, Note_on_c, 3, 52, 100
5, 455040, Note_on_c, 3, 40, 100
5, 455280, Note_off_c, 3, 52, 0
5, 455280, Note_off_c, 3, 40, 0
5, 455328, Note_on_c, 3, 52, 100
5, 455328, Note_on_c, 3, 40, 100
5, 455408, Note_off_c, 3, 52, 0
5, 455408, Note_off_c, 3, 40, 0
5, 455424, Note_on_c, 3, 51, 100
5, 455424, Note_on_c, 3, 39, 100
5, 455744, Note_off_c, 3, 51, 0
5, 455744, Note_off_c, 3, 39, 0
5, 455808, Note_on_c, 3, 51, 100
5, 455808, Note_on_c, 3, 39, 100
5, 456048, Note_off_c, 3, 51, 0
5, 456048, Note_off_c, 3, 39, 0
5, 456096, Note_on_c, 3, 51, 100
5, 456096, Note_on_c, 3, 39, 100
5, 456176, Note_off_c, 3, 51, 0
5, 456176, Note_off_c, 3, 39, 0
5, 456192, Note_on_c, 3, 52, 100
5, 456192, Note_on_c, 3, 40, 100
5, 456836, Note_off_c, 3, 52, 0
5, 456836, Note_off_c, 3, 40, 0
5, 503424, Program_c, 3, 48
5, 503808, Note_on_c, 3, 57, 100
5, 503808, Note_on_c, 3, 45, 100
5, 503968, Note_off_c, 3, 57, 0
5, 503968, Note_off_c, 3, 45, 0
5, 504192, Note_on_c, 3, 45, 100
5, 504192, Note_on_c, 3, 57, 110
5, 504432, Note_off_c, 3, 57, 0
5, 504480, Note_on_c, 3, 57, 110
5, 504512, Note_off_c, 3, 45, 0
5, 504560, Note_off_c, 3, 57, 0
5, 504576, Note_on_c, 3, 47, 100
5, 504576, Note_on_c, 3, 56, 100
5, 504576, Note_on_c, 3, 57, 110
5, 504896, Note_off_c, 3, 47, 0
5, 504896, Note_off_c, 3, 56, 0
5, 504896, Note_off_c, 3, 57, 0
5, 504960, Note_on_c, 3, 49, 100
5, 504960, Note_on_c, 3, 57, 100
5, 504960, Note_on_c, 3, 55, 100
5, 505280, Note_off_c, 3, 49, 0
5, 505280, Note_off_c, 3, 57, 0
5, 505280, Note_off_c, 3, 55, 0
5, 505344, Note_on_c, 3, 62, 100
5, 505344, Note_on_c, 3, 57, 100
5, 505344, Note_on_c, 3, 54, 100
5, 505344, Note_on_c, 3, 50, 100
5, 505504, Note_off_c, 3, 62, 0
5, 505504, Note_off_c, 3, 57, 0
5, 505504, Note_off_c, 3, 54, 0
5, 505504, Note_off_c, 3, 50, 0
5, 505536, Note_on_c, 3, 62, 100
5, 505536, Note_on_c, 3, 50, 100
5, 505696, Note_off_c, 3, 62, 0
5, 505696, Note_off_c, 3, 50, 0
5, 505728, Note_on_c, 3, 50, 100
5, 505728, Note_on_c, 3, 62, 100
5, 505888, Note_off_c, 3, 50, 0
5, 505888, Note_off_c, 3, 62, 0
5, 505920, Note_on_c, 3, 50, 100
5, 505920, Note_on_c, 3, 62, 100
5, 506080, Note_off_c, 3, 50, 0
5, 506080, Note_off_c, 3, 62, 0
5, 506112, Note_on_c, 3, 62, 100
5, 506112, Note_on_c, 3, 66, 100
5, 506272, Note_off_c, 3, 62, 0
5, 506272, Note_off_c, 3, 66, 0
5, 506304, Note_on_c, 3, 62, 100
5, 506304, Note_on_c, 3, 66, 100
5, 506464, Note_off_c, 3, 62, 0
5, 506464, Note_off_c, 3, 66, 0
5, 506496, Note_on_c, 3, 61, 100
5, 506496, Note_on_c, 3, 64, 100
5, 506656, Note_off_c, 3, 61, 0
5, 506656, Note_off_c, 3, 64, 0
5, 506688, Note_on_c, 3, 61, 100
5, 506688, Note_on_c, 3, 64, 100
5, 506848, Note_off_c, 3, 61, 0
5, 506848, Note_off_c, 3, 64, 0
5, 506880, Note_on_c, 3, 64, 100
5, 506880, Note_on_c, 3, 59, 100
5, 506880, Note_on_c, 3, 56, 100
5, 508028, Note_off_c, 3, 64, 0
5, 508028, Note_off_c, 3, 59, 0
5, 508028, Note_off_c, 3, 56, 0
5, 508032, Note_on_c, 3, 57, 100
5, 508032, Note_on_c, 3, 64, 100
5, 508352, Note_off_c, 3, 57, 0
5, 508352, Note_off_c, 3, 64, 0
5, 508416, Note_on_c, 3, 59, 100
5, 508416, Note_on_c, 3, 54, 100
5, 508416, Note_on_c, 3, 50, 100
5, 508576, Note_off_c, 3, 59, 0
5, 508576, Note_off_c, 3, 54, 0
5, 508576, Note_off_c, 3, 50, 0
5, 508608, Note_on_c, 3, 54, 100
5, 508608, Note_on_c, 3, 50, 100
5, 508608, Note_on_c, 3, 59, 100
5, 508768, Note_off_c, 3, 54, 0
5, 508768, Note_off_c, 3, 50, 0
5, 508768, Note_off_c, 3, 59, 0
5, 508800, Note_on_c, 3, 59, 100
5, 508800, Note_on_c, 3, 54, 100
5, 508800, Note_on_c, 3, 50, 100
5, 508960, Note_off_c, 3, 59, 0
5, 508960, Note_off_c, 3, 54, 0
5, 508960, Note_off_c, 3, 50, 0
5, 508992, Note_on_c, 3, 59, 100
5, 508992, Note_on_c, 3, 54, 100
5, 508992, Note_on_c, 3, 50, 100
5, 509152, Note_off_c, 3, 59, 0
5, 509152, Note_off_c, 3, 54, 0
5, 509152, Note_off_c, 3, 50, 0
5, 509184, Note_on_c, 3, 57, 100
5, 509184, Note_on_c, 3, 61, 100
5, 509184, Note_on_c, 3, 52, 100
5, 509344, Note_off_c, 3, 57, 0
5, 509344, Note_off_c, 3, 61, 0
5, 509344, Note_off_c, 3, 52, 0
5, 509376, Note_on_c, 3, 61, 100
5, 509376, Note_on_c, 3, 57, 100
5, 509376, Note_on_c, 3, 52, 100
5, 509536, Note_off_c, 3, 61, 0
5, 509536, Note_off_c, 3, 57, 0
5, 509536, Note_off_c, 3, 52, 0
5, 509568, Note_on_c, 3, 62, 100
5, 509568, Note_on_c, 3, 59, 100
5, 509568, Note_on_c, 3, 52, 100
5, 509728, Note_off_c, 3, 62, 0
5, 509728, Note_off_c, 3, 59, 0
5, 509728, Note_off_c, 3, 52, 0
5, 509760, Note_on_c, 3, 62, 100
5, 509760, Note_on_c, 3, 59, 100
5, 509760, Note_on_c, 3, 52, 100
5, 509920, Note_off_c, 3, 62, 0
5, 509920, Note_off_c, 3, 59, 0
5, 509920, Note_off_c, 3, 52, 0
5, 509952, Note_on_c, 3, 64, 100
5, 509952, Note_on_c, 3, 56, 100
5, 509952, Note_on_c, 3, 59, 100
5, 510716, Note_off_c, 3, 59, 0
5, 510720, Note_on_c, 3, 62, 100
5, 511100, Note_off_c, 3, 64, 0
5, 511100, Note_off_c, 3, 56, 0
5, 511100, Note_off_c, 3, 62, 0
5, 511104, Note_on_c, 3, 61, 100
5, 511104, Note_on_c, 3, 57, 100
5, 511104, Note_on_c, 3, 64, 100
5, 511424, Note_off_c, 3, 61, 0
5, 511424, Note_off_c, 3, 57, 0
5, 511424, Note_off_c, 3, 64, 0
5, 511488, Note_on_c, 3, 64, 100
5, 511488, Note_on_c, 3, 56, 100
5, 511488, Note_on_c, 3, 59, 100
5, 512252, Note_off_c, 3, 59, 0
5, 512256, Note_on_c, 3, 62, 100
5, 512636, Note_off_c, 3, 64, 0
5, 512636, Note_off_c, 3, 56, 0
5, 512636, Note_off_c, 3, 62, 0
5, 512640, Note_on_c, 3, 57, 100
5, 512640, Note_on_c, 3, 61, 100
5, 512640, Note_on_c, 3, 64, 100
5, 512960, Note_off_c, 3, 57, 0
5, 512960, Note_off_c, 3, 61, 0
5, 512960, Note_off_c, 3, 64, 0
5, 513024, Note_on_c, 3, 59, 100
5, 513024, Note_on_c, 3, 54, 100
5, 513024, Note_on_c, 3, 50, 100
5, 513184, Note_off_c, 3, 59, 0
5, 513184, Note_off_c, 3, 54, 0
5, 513184, Note_off_c, 3, 50, 0
5, 513216, Note_on_c, 3, 59, 100
5, 513216, Note_on_c, 3, 54, 100
5, 513216, Note_on_c, 3, 50, 100
5, 513376, Note_off_c, 3, 59, 0
5, 513376, Note_off_c, 3, 54, 0
5, 513376, Note_off_c, 3, 50, 0
5, 513408, Note_on_c, 3, 59, 100
5, 513408, Note_on_c, 3, 54, 100
5, 513408, Note_on_c, 3, 50, 100
5, 513568, Note_off_c, 3, 59, 0
5, 513568, Note_off_c, 3, 54, 0
5, 513568, Note_off_c, 3, 50, 0
5, 513600, Note_on_c, 3, 59, 100
5, 513600, Note_on_c, 3, 54, 100
5, 513600, Note_on_c, 3, 50, 100
5, 513760, Note_off_c, 3, 59, 0
5, 513760, Note_off_c, 3, 54, 0
5, 513760, Note_off_c, 3, 50, 0
5, 513792, Note_on_c, 3, 57, 100
5, 513792, Note_on_c, 3, 61, 100
5, 513792, Note_on_c, 3, 52, 100
5, 513952, Note_off_c, 3, 57, 0
5, 513952, Note_off_c, 3, 61, 0
5, 513952, Note_off_c, 3, 52, 0
5, 513984, Note_on_c, 3, 57, 100
5, 513984, Note_on_c, 3, 61, 100
5, 513984, Note_on_c, 3, 52, 100
5, 514144, Note_off_c, 3, 57, 0
5, 514144, Note_off_c, 3, 61, 0
5, 514144, Note_off_c, 3, 52, 0
5, 514176, Note_on_c, 3, 59, 100
5, 514176, Note_on_c, 3, 62, 100
5, 514176, Note_on_c, 3, 52, 100
5, 514336, Note_off_c, 3, 59, 0
5, 514336, Note_off_c, 3, 62, 0
5, 514336, Note_off_c, 3, 52, 0
5, 514368, Note_on_c, 3, 59, 100
5, 514368, Note_on_c, 3, 62, 100
5, 514368, Note_on_c, 3, 52, 100
5, 514528, Note_off_c, 3, 59, 0
5, 514528, Note_off_c, 3, 62, 0
5, 514528, Note_off_c, 3, 52, 64
5, 514560, Note_on_c, 3, 57, 100
5, 514560, Note_on_c, 3, 45, 100
5, 514880, Note_off_c, 3, 57, 0
5, 514880, Note_off_c, 3, 45, 0
5, 515328, Note_on_c, 3, 63, 100
5, 515516, Note_off_c, 3, 63, 0
5, 515520, Note_on_c, 3, 64, 100
5, 515708, Note_off_c, 3, 64, 0
5, 515712, Note_on_c, 3, 66, 100
5, 515900, Note_off_c, 3, 66, 0
5, 515904, Note_on_c, 3, 64, 100
5, 516064, Note_off_c, 3, 64, 0
5, 516096, Note_on_c, 3, 61, 100
5, 516096, Note_on_c, 3, 57, 100
5, 516096, Note_on_c, 3, 54, 100
5, 516416, Note_off_c, 3, 61, 0
5, 516416, Note_off_c, 3, 57, 0
5, 516416, Note_off_c, 3, 54, 0
5, 516864, Note_on_c, 3, 61, 100
5, 516864, Note_on_c, 3, 56, 100
5, 516864, Note_on_c, 3, 52, 100
5, 517184, Note_off_c, 3, 61, 0
5, 517184, Note_off_c, 3, 56, 0
5, 517184, Note_off_c, 3, 52, 0
5, 517632, Note_on_c, 3, 68, 100
5, 517632, Note_on_c, 3, 64, 100
5, 517632, Note_on_c, 3, 57, 100
5, 517952, Note_off_c, 3, 68, 0
5, 518016, Note_on_c, 3, 69, 100
5, 518204, Note_off_c, 3, 69, 0
5, 518276, Note_off_c, 3, 64, 0
5, 518276, Note_off_c, 3, 57, 0
5, 518400, Note_on_c, 3, 63, 100
5, 518588, Note_off_c, 3, 63, 0
5, 518592, Note_on_c, 3, 64, 100
5, 518780, Note_off_c, 3, 64, 0
5, 518784, Note_on_c, 3, 66, 100
5, 518972, Note_off_c, 3, 66, 0
5, 518976, Note_on_c, 3, 64, 100
5, 519136, Note_off_c, 3, 64, 0
5, 519168, Note_on_c, 3, 63, 100
5, 519168, Note_on_c, 3, 57, 100
5, 519168, Note_on_c, 3, 54, 100
5, 519812, Note_off_c, 3, 63, 0
5, 519812, Note_off_c, 3, 57, 0
5, 519812, Note_off_c, 3, 54, 0
5, 519936, Note_on_c, 3, 64, 100
5, 519936, Note_on_c, 3, 61, 100
5, 519936, Note_on_c, 3, 57, 100
5, 519936, Note_on_c, 3, 52, 100
5, 520096, Note_off_c, 3, 64, 0
5, 520096, Note_off_c, 3, 61, 0
5, 520096, Note_off_c, 3, 57, 0
5, 520096, Note_off_c, 3, 52, 0
5, 520320, Note_on_c, 3, 64, 100
5, 520320, Note_on_c, 3, 62, 100
5, 520320, Note_on_c, 3, 56, 100
5, 520320, Note_on_c, 3, 52, 100
5, 520480, Note_off_c, 3, 64, 0
5, 520480, Note_off_c, 3, 62, 0
5, 520480, Note_off_c, 3, 56, 0
5, 520480, Note_off_c, 3, 52, 0
5, 520704, Note_on_c, 3, 45, 100
5, 520796, Note_off_c, 3, 45, 0
5, 520800, Note_on_c, 3, 57, 100
5, 520892, Note_off_c, 3, 57, 0
5, 520896, Note_on_c, 3, 49, 100
5, 520988, Note_off_c, 3, 49, 0
5, 520992, Note_on_c, 3, 57, 100
5, 521072, Note_off_c, 3, 57, 0
5, 521088, Note_on_c, 3, 52, 100
5, 521180, Note_off_c, 3, 52, 0
5, 521184, Note_on_c, 3, 57, 100
5, 521276, Note_off_c, 3, 57, 0
5, 521280, Note_on_c, 3, 61, 100
5, 521372, Note_off_c, 3, 61, 0
5, 521376, Note_on_c, 3, 64, 100
5, 521456, Note_off_c, 3, 64, 0
5, 521472, Note_on_c, 3, 57, 110
5, 521632, Note_off_c, 3, 57, 0
5, 521664, Note_on_c, 3, 61, 110
5, 521824, Note_off_c, 3, 61, 0
5, 521856, Note_on_c, 3, 64, 110
5, 522016, Note_off_c, 3, 64, 0
5, 522048, Note_on_c, 3, 69, 110
5, 522208, Note_off_c, 3, 69, 0
5, 522240, Note_on_c, 3, 45, 100
5, 522332, Note_off_c, 3, 45, 0
5, 522336, Note_on_c, 3, 57, 100
5, 522428, Note_off_c, 3, 57, 0
5, 522432, Note_on_c, 3, 49, 100
5, 522524, Note_off_c, 3, 49, 0
5, 522528, Note_on_c, 3, 57, 100
5, 522608, Note_off_c, 3, 57, 0
5, 522624, Note_on_c, 3, 52, 100
5, 522716, Note_off_c, 3, 52, 0
5, 522720, Note_on_c, 3, 57, 100
5, 522812, Note_off_c, 3, 57, 0
5, 522816, Note_on_c, 3, 61, 100
5, 522908, Note_off_c, 3, 61, 0
5, 522912, Note_on_c, 3, 64, 100
5, 522992, Note_off_c, 3, 64, 0
5, 523008, Note_on_c, 3, 57, 110
5, 523168, Note_off_c, 3, 57, 0
5, 523200, Note_on_c, 3, 61, 110
5, 523360, Note_off_c, 3, 61, 0
5, 523392, Note_on_c, 3, 64, 110
5, 523552, Note_off_c, 3, 64, 0
5, 523584, Note_on_c, 3, 69, 110
5, 523744, Note_off_c, 3, 69, 0
5, 523776, Note_on_c, 3, 45, 100
5, 523868, Note_off_c, 3, 45, 0
5, 523872, Note_on_c, 3, 57, 100
5, 523964, Note_off_c, 3, 57, 0
5, 523968, Note_on_c, 3, 49, 100
5, 524060, Note_off_c, 3, 49, 0
5, 524064, Note_on_c, 3, 57, 100
5, 524144, Note_off_c, 3, 57, 0
5, 524160, Note_on_c, 3, 52, 100
5, 524252, Note_off_c, 3, 52, 0
5, 524256, Note_on_c, 3, 57, 100
5, 524348, Note_off_c, 3, 57, 0
5, 524352, Note_on_c, 3, 61, 100
5, 524444, Note_off_c, 3, 61, 0
5, 524448, Note_on_c, 3, 64, 100
5, 524528, Note_off_c, 3, 64, 0
5, 524544, Note_on_c, 3, 57, 110
5, 524704, Note_off_c, 3, 57, 0
5, 524736, Note_on_c, 3, 61, 110
5, 524896, Note_off_c, 3, 61, 0
5, 524928, Note_on_c, 3, 64, 110
5, 525088, Note_off_c, 3, 64, 0
5, 525120, Note_on_c, 3, 69, 110
5, 525280, Note_off_c, 3, 69, 0
5, 525312, Note_on_c, 3, 45, 100
5, 525404, Note_off_c, 3, 45, 0
5, 525408, Note_on_c, 3, 52, 100
5, 525500, Note_off_c, 3, 52, 0
5, 525504, Note_on_c, 3, 57, 100
5, 525596, Note_off_c, 3, 57, 0
5, 525600, Note_on_c, 3, 61, 100
5, 525680, Note_off_c, 3, 61, 0
5, 525696, Note_on_c, 3, 52, 100
5, 525788, Note_off_c, 3, 52, 0
5, 525792, Note_on_c, 3, 62, 100
5, 525884, Note_off_c, 3, 62, 0
5, 525888, Note_on_c, 3, 56, 100
5, 525980, Note_off_c, 3, 56, 0
5, 525984, Note_on_c, 3, 62, 100
5, 526064, Note_off_c, 3, 62, 0
5, 526080, Note_on_c, 3, 57, 100
5, 526172, Note_off_c, 3, 57, 0
5, 526176, Note_on_c, 3, 64, 100
5, 526268, Note_off_c, 3, 64, 0
5, 526272, Note_on_c, 3, 61, 100
5, 526364, Note_off_c, 3, 61, 0
5, 526368, Note_on_c, 3, 64, 100
5, 526448, Note_off_c, 3, 64, 0
5, 526464, Note_on_c, 3, 52, 100
5, 526556, Note_off_c, 3, 52, 0
5, 526560, Note_on_c, 3, 62, 100
5, 526652, Note_off_c, 3, 62, 0
5, 526656, Note_on_c, 3, 56, 100
5, 526748, Note_off_c, 3, 56, 0
5, 526752, Note_on_c, 3, 62, 100
5, 526832, Note_off_c, 3, 62, 0
5, 526848, Note_on_c, 3, 64, 100
5, 526848, Note_on_c, 3, 57, 100
5, 527168, Note_off_c, 3, 64, 0
5, 527168, Note_off_c, 3, 57, 0
5, 527168, End_track
6, 0, Start_track
6, 0, Key_signature, 3, "major"
6, 0, End_track
0, 0, End_of_file
