0, 0, Header, 1, 6, 384
1, 0, Start_track
1, 0, Sequencer_specific, 3, 0, 0, 65
1, 0, Time_signature, 6, 3, 12, 8
1, 0, Key_signature, 0, "major"
1, 0, Tempo, 526316
1, 63360, Tempo, 600000
1, 65664, Tempo, 526316
1, 157824, Tempo, 600000
1, 158976, Tempo, 526316
1, 252858, Tempo, 1052632
1, 253440, Tempo, 526316
1, 255162, Tempo, 1052632
1, 255744, Tempo, 526316
1, 323712, Tempo, 600000
1, 324864, Tempo, 526316
1, 405504, Tempo, 600000
1, 405504, End_track
2, 0, Start_track
2, 0, MIDI_port, 0
2, 0, Title_t, "Mozart  Clarinet"
2, 0, Control_c, 0, 0, 0
2, 0, Control_c, 0, 32, 0
2, 0, Program_c, 0, 71
2, 0, Control_c, 0, 10, 63
2, 0, Control_c, 0, 91, 63
2, 0, Control_c, 0, 93, 53
2, 0, Control_c, 0, 121, 0
2, 48, Control_c, 0, 10, 63
2, 96, Control_c, 0, 91, 63
2, 120, Control_c, 0, 93, 40
2, 144, Program_c, 0, 71
2, 960, Note_on_c, 0, 74, 70
2, 1052, Note_on_c, 0, 74, 0
2, 1056, Note_on_c, 0, 75, 70
2, 1148, Note_on_c, 0, 75, 0
2, 1152, Note_on_c, 0, 77, 70
2, 1244, Note_on_c, 0, 77, 0
2, 1344, Note_on_c, 0, 77, 70
2, 1436, Note_on_c, 0, 77, 0
2, 1536, Note_on_c, 0, 77, 70
2, 1628, Note_on_c, 0, 77, 0
2, 1728, Note_on_c, 0, 79, 70
2, 1820, Note_on_c, 0, 79, 0
2, 1824, Note_on_c, 0, 77, 70
2, 1916, Note_on_c, 0, 77, 0
2, 1920, Note_on_c, 0, 76, 69
2, 2012, Note_on_c, 0, 76, 0
2, 2016, Note_on_c, 0, 77, 70
2, 2108, Note_on_c, 0, 77, 0
2, 2112, Note_on_c, 0, 79, 69
2, 2204, Note_on_c, 0, 79, 0
2, 2208, Note_on_c, 0, 77, 70
2, 2300, Note_on_c, 0, 77, 0
2, 2304, Note_on_c, 0, 75, 72
2, 2876, Note_on_c, 0, 75, 0
2, 2880, Note_on_c, 0, 74, 70
2, 3068, Note_on_c, 0, 74, 0
2, 3264, Note_on_c, 0, 82, 66
2, 3356, Note_on_c, 0, 82, 0
2, 3360, Note_on_c, 0, 81, 67
2, 3452, Note_on_c, 0, 81, 0
2, 3456, Note_on_c, 0, 79, 69
2, 3548, Note_on_c, 0, 79, 0
2, 3648, Note_on_c, 0, 79, 69
2, 3740, Note_on_c, 0, 79, 0
2, 3840, Note_on_c, 0, 79, 69
2, 3932, Note_on_c, 0, 79, 0
2, 3936, Note_on_c, 0, 77, 70
2, 4028, Note_on_c, 0, 77, 0
2, 4032, Note_on_c, 0, 75, 72
2, 4124, Note_on_c, 0, 75, 0
2, 4224, Note_on_c, 0, 75, 72
2, 4316, Note_on_c, 0, 75, 0
2, 4320, Note_on_c, 0, 74, 73
2, 4412, Note_on_c, 0, 74, 0
2, 4416, Note_on_c, 0, 72, 75
2, 4508, Note_on_c, 0, 72, 0
2, 4512, Note_on_c, 0, 70, 76
2, 4604, Note_on_c, 0, 70, 0
2, 4608, Note_on_c, 0, 69, 78
2, 4796, Note_on_c, 0, 69, 0
2, 4800, Note_on_c, 0, 70, 76
2, 4988, Note_on_c, 0, 70, 0
2, 4992, Note_on_c, 0, 71, 76
2, 5180, Note_on_c, 0, 71, 0
2, 5184, Note_on_c, 0, 72, 75
2, 5372, Note_on_c, 0, 72, 0
2, 5568, Note_on_c, 0, 74, 73
2, 5660, Note_on_c, 0, 74, 0
2, 5664, Note_on_c, 0, 75, 72
2, 5756, Note_on_c, 0, 75, 0
2, 5760, Note_on_c, 0, 77, 70
2, 5852, Note_on_c, 0, 77, 0
2, 5952, Note_on_c, 0, 77, 70
2, 6044, Note_on_c, 0, 77, 0
2, 6144, Note_on_c, 0, 77, 70
2, 6236, Note_on_c, 0, 77, 0
2, 6336, Note_on_c, 0, 79, 69
2, 6428, Note_on_c, 0, 79, 0
2, 6432, Note_on_c, 0, 77, 70
2, 6524, Note_on_c, 0, 77, 0
2, 6528, Note_on_c, 0, 76, 72
2, 6620, Note_on_c, 0, 76, 0
2, 6624, Note_on_c, 0, 77, 70
2, 6716, Note_on_c, 0, 77, 0
2, 6720, Note_on_c, 0, 79, 69
2, 6812, Note_on_c, 0, 79, 0
2, 6816, Note_on_c, 0, 77, 70
2, 6908, Note_on_c, 0, 77, 0
2, 6912, Note_on_c, 0, 81, 67
2, 7484, Note_on_c, 0, 81, 0
2, 7488, Note_on_c, 0, 82, 66
2, 7676, Note_on_c, 0, 82, 0
2, 7872, Note_on_c, 0, 82, 66
2, 7964, Note_on_c, 0, 82, 0
2, 7968, Note_on_c, 0, 81, 67
2, 8060, Note_on_c, 0, 81, 0
2, 8064, Note_on_c, 0, 79, 69
2, 8108, Note_on_c, 0, 79, 0
2, 8160, Note_on_c, 0, 77, 70
2, 8204, Note_on_c, 0, 77, 0
2, 8256, Note_on_c, 0, 75, 72
2, 8300, Note_on_c, 0, 75, 0
2, 8352, Note_on_c, 0, 74, 73
2, 8396, Note_on_c, 0, 74, 0
2, 8448, Note_on_c, 0, 72, 75
2, 8492, Note_on_c, 0, 72, 0
2, 8544, Note_on_c, 0, 70, 76
2, 8588, Note_on_c, 0, 70, 0
2, 8640, Note_on_c, 0, 69, 78
2, 8684, Note_on_c, 0, 69, 0
2, 8736, Note_on_c, 0, 70, 76
2, 8780, Note_on_c, 0, 70, 0
2, 8832, Note_on_c, 0, 72, 75
2, 8876, Note_on_c, 0, 72, 0
2, 8928, Note_on_c, 0, 74, 73
2, 8972, Note_on_c, 0, 74, 0
2, 9024, Note_on_c, 0, 75, 72
2, 9068, Note_on_c, 0, 75, 0
2, 9120, Note_on_c, 0, 69, 78
2, 9164, Note_on_c, 0, 69, 0
2, 9216, Note_on_c, 0, 70, 76
2, 9596, Note_on_c, 0, 70, 0
2, 9600, Note_on_c, 0, 74, 73
2, 9788, Note_on_c, 0, 74, 0
2, 9792, Note_on_c, 0, 70, 76
2, 10172, Note_on_c, 0, 70, 0
2, 19392, Note_on_c, 0, 65, 81
2, 19484, Note_on_c, 0, 65, 0
2, 19488, Note_on_c, 0, 67, 79
2, 19580, Note_on_c, 0, 67, 0
2, 19584, Note_on_c, 0, 69, 78
2, 19676, Note_on_c, 0, 69, 0
2, 19680, Note_on_c, 0, 70, 76
2, 19772, Note_on_c, 0, 70, 0
2, 19776, Note_on_c, 0, 72, 75
2, 19868, Note_on_c, 0, 72, 0
2, 19872, Note_on_c, 0, 74, 73
2, 19964, Note_on_c, 0, 74, 0
2, 19968, Note_on_c, 0, 75, 72
2, 20060, Note_on_c, 0, 75, 0
2, 20064, Note_on_c, 0, 77, 70
2, 20156, Note_on_c, 0, 77, 0
2, 20160, Note_on_c, 0, 75, 72
2, 20252, Note_on_c, 0, 75, 0
2, 20256, Note_on_c, 0, 74, 73
2, 20348, Note_on_c, 0, 74, 0
2, 20352, Note_on_c, 0, 72, 75
2, 20444, Note_on_c, 0, 72, 0
2, 20448, Note_on_c, 0, 70, 76
2, 20540, Note_on_c, 0, 70, 0
2, 20544, Note_on_c, 0, 69, 78
2, 20636, Note_on_c, 0, 69, 0
2, 20640, Note_on_c, 0, 72, 75
2, 20732, Note_on_c, 0, 72, 0
2, 20736, Note_on_c, 0, 70, 76
2, 20828, Note_on_c, 0, 70, 0
2, 20832, Note_on_c, 0, 72, 75
2, 20924, Note_on_c, 0, 72, 0
2, 20928, Note_on_c, 0, 74, 73
2, 21020, Note_on_c, 0, 74, 0
2, 21024, Note_on_c, 0, 75, 72
2, 21116, Note_on_c, 0, 75, 0
2, 21120, Note_on_c, 0, 77, 70
2, 21212, Note_on_c, 0, 77, 0
2, 21216, Note_on_c, 0, 79, 69
2, 21308, Note_on_c, 0, 79, 0
2, 21312, Note_on_c, 0, 77, 70
2, 21500, Note_on_c, 0, 77, 0
2, 21696, Note_on_c, 0, 72, 75
2, 21788, Note_on_c, 0, 72, 0
2, 21792, Note_on_c, 0, 74, 73
2, 21884, Note_on_c, 0, 74, 0
2, 21888, Note_on_c, 0, 76, 72
2, 21980, Note_on_c, 0, 76, 0
2, 21984, Note_on_c, 0, 77, 70
2, 22076, Note_on_c, 0, 77, 0
2, 22080, Note_on_c, 0, 79, 69
2, 22172, Note_on_c, 0, 79, 0
2, 22176, Note_on_c, 0, 81, 67
2, 22268, Note_on_c, 0, 81, 0
2, 22272, Note_on_c, 0, 82, 66
2, 22364, Note_on_c, 0, 82, 0
2, 22368, Note_on_c, 0, 84, 64
2, 22460, Note_on_c, 0, 84, 0
2, 22464, Note_on_c, 0, 82, 66
2, 22556, Note_on_c, 0, 82, 0
2, 22560, Note_on_c, 0, 81, 67
2, 22652, Note_on_c, 0, 81, 0
2, 22656, Note_on_c, 0, 79, 69
2, 22748, Note_on_c, 0, 79, 0
2, 22752, Note_on_c, 0, 77, 70
2, 22844, Note_on_c, 0, 77, 0
2, 22848, Note_on_c, 0, 76, 72
2, 22940, Note_on_c, 0, 76, 0
2, 22944, Note_on_c, 0, 79, 69
2, 23036, Note_on_c, 0, 79, 0
2, 23040, Note_on_c, 0, 77, 70
2, 23132, Note_on_c, 0, 77, 0
2, 23136, Note_on_c, 0, 81, 67
2, 23228, Note_on_c, 0, 81, 0
2, 23232, Note_on_c, 0, 84, 64
2, 23276, Note_on_c, 0, 84, 0
2, 23328, Note_on_c, 0, 81, 67
2, 23372, Note_on_c, 0, 81, 0
2, 23424, Note_on_c, 0, 77, 70
2, 23468, Note_on_c, 0, 77, 0
2, 23520, Note_on_c, 0, 72, 75
2, 23564, Note_on_c, 0, 72, 0
2, 23616, Note_on_c, 0, 69, 78
2, 23708, Note_on_c, 0, 69, 0
2, 23712, Note_on_c, 0, 72, 75
2, 23804, Note_on_c, 0, 72, 0
2, 23808, Note_on_c, 0, 70, 76
2, 23900, Note_on_c, 0, 70, 0
2, 23904, Note_on_c, 0, 69, 78
2, 23996, Note_on_c, 0, 69, 0
2, 24000, Note_on_c, 0, 70, 76
2, 24092, Note_on_c, 0, 70, 0
2, 24096, Note_on_c, 0, 67, 79
2, 24188, Note_on_c, 0, 67, 0
2, 24192, Note_on_c, 0, 65, 81
2, 24284, Note_on_c, 0, 65, 0
2, 24288, Note_on_c, 0, 69, 78
2, 24380, Note_on_c, 0, 69, 0
2, 24384, Note_on_c, 0, 72, 75
2, 24428, Note_on_c, 0, 72, 0
2, 24480, Note_on_c, 0, 69, 78
2, 24524, Note_on_c, 0, 69, 0
2, 24576, Note_on_c, 0, 65, 81
2, 24620, Note_on_c, 0, 65, 0
2, 24672, Note_on_c, 0, 60, 88
2, 24716, Note_on_c, 0, 60, 0
2, 24768, Note_on_c, 0, 57, 89
2, 24860, Note_on_c, 0, 57, 0
2, 24864, Note_on_c, 0, 60, 86
2, 24956, Note_on_c, 0, 60, 0
2, 24960, Note_on_c, 0, 58, 88
2, 25052, Note_on_c, 0, 58, 0
2, 25056, Note_on_c, 0, 57, 89
2, 25148, Note_on_c, 0, 57, 0
2, 25152, Note_on_c, 0, 58, 88
2, 25244, Note_on_c, 0, 58, 0
2, 25248, Note_on_c, 0, 55, 91
2, 25340, Note_on_c, 0, 55, 0
2, 25344, Note_on_c, 0, 53, 92
2, 25436, Note_on_c, 0, 53, 0
2, 25440, Note_on_c, 0, 57, 89
2, 25532, Note_on_c, 0, 57, 0
2, 25536, Note_on_c, 0, 58, 88
2, 25580, Note_on_c, 0, 58, 0
2, 25632, Note_on_c, 0, 60, 86
2, 25676, Note_on_c, 0, 60, 0
2, 25728, Note_on_c, 0, 62, 82
2, 25772, Note_on_c, 0, 62, 0
2, 25824, Note_on_c, 0, 64, 81
2, 25868, Note_on_c, 0, 64, 0
2, 25920, Note_on_c, 0, 65, 79
2, 26012, Note_on_c, 0, 65, 0
2, 26016, Note_on_c, 0, 69, 78
2, 26108, Note_on_c, 0, 69, 0
2, 26112, Note_on_c, 0, 70, 76
2, 26156, Note_on_c, 0, 70, 0
2, 26208, Note_on_c, 0, 72, 75
2, 26252, Note_on_c, 0, 72, 0
2, 26304, Note_on_c, 0, 74, 73
2, 26348, Note_on_c, 0, 74, 0
2, 26400, Note_on_c, 0, 76, 72
2, 26444, Note_on_c, 0, 76, 0
2, 26496, Note_on_c, 0, 77, 70
2, 27068, Note_on_c, 0, 77, 0
2, 27072, Note_on_c, 0, 77, 70
2, 27452, Note_on_c, 0, 77, 0
2, 27456, Note_on_c, 0, 77, 70
2, 27548, Note_on_c, 0, 77, 0
2, 27648, Note_on_c, 0, 77, 70
2, 27740, Note_on_c, 0, 77, 0
2, 28032, Note_on_c, 0, 77, 70
2, 28124, Note_on_c, 0, 77, 0
2, 28224, Note_on_c, 0, 77, 70
2, 28316, Note_on_c, 0, 77, 0
2, 28416, Note_on_c, 0, 76, 72
2, 28508, Note_on_c, 0, 76, 0
2, 28512, Note_on_c, 0, 77, 70
2, 28604, Note_on_c, 0, 77, 0
2, 28608, Note_on_c, 0, 79, 69
2, 28700, Note_on_c, 0, 79, 0
2, 28704, Note_on_c, 0, 77, 70
2, 28796, Note_on_c, 0, 77, 0
2, 28800, Note_on_c, 0, 75, 70
2, 29372, Note_on_c, 0, 75, 0
2, 29376, Note_on_c, 0, 74, 73
2, 29564, Note_on_c, 0, 74, 0
2, 29760, Note_on_c, 0, 82, 66
2, 29852, Note_on_c, 0, 82, 0
2, 29856, Note_on_c, 0, 81, 67
2, 29948, Note_on_c, 0, 81, 0
2, 29952, Note_on_c, 0, 79, 69
2, 30044, Note_on_c, 0, 79, 0
2, 30144, Note_on_c, 0, 79, 69
2, 30236, Note_on_c, 0, 79, 0
2, 30336, Note_on_c, 0, 79, 69
2, 30428, Note_on_c, 0, 79, 0
2, 30432, Note_on_c, 0, 77, 70
2, 30524, Note_on_c, 0, 77, 0
2, 30528, Note_on_c, 0, 75, 72
2, 30620, Note_on_c, 0, 75, 0
2, 30720, Note_on_c, 0, 75, 72
2, 30812, Note_on_c, 0, 75, 0
2, 30816, Note_on_c, 0, 74, 73
2, 30908, Note_on_c, 0, 74, 0
2, 30912, Note_on_c, 0, 72, 75
2, 31004, Note_on_c, 0, 72, 0
2, 31008, Note_on_c, 0, 70, 76
2, 31100, Note_on_c, 0, 70, 0
2, 31104, Note_on_c, 0, 69, 78
2, 31292, Note_on_c, 0, 69, 0
2, 31296, Note_on_c, 0, 70, 76
2, 31484, Note_on_c, 0, 70, 0
2, 31488, Note_on_c, 0, 71, 76
2, 31676, Note_on_c, 0, 71, 0
2, 31680, Note_on_c, 0, 72, 75
2, 31868, Note_on_c, 0, 72, 0
2, 32064, Note_on_c, 0, 74, 73
2, 32156, Note_on_c, 0, 74, 0
2, 32160, Note_on_c, 0, 75, 72
2, 32252, Note_on_c, 0, 75, 0
2, 32256, Note_on_c, 0, 77, 70
2, 32348, Note_on_c, 0, 77, 0
2, 32448, Note_on_c, 0, 77, 70
2, 32540, Note_on_c, 0, 77, 0
2, 32640, Note_on_c, 0, 77, 70
2, 32732, Note_on_c, 0, 77, 0
2, 32832, Note_on_c, 0, 79, 69
2, 32924, Note_on_c, 0, 79, 0
2, 32928, Note_on_c, 0, 77, 70
2, 33020, Note_on_c, 0, 77, 0
2, 33024, Note_on_c, 0, 76, 72
2, 33116, Note_on_c, 0, 76, 0
2, 33120, Note_on_c, 0, 77, 70
2, 33212, Note_on_c, 0, 77, 0
2, 33216, Note_on_c, 0, 79, 69
2, 33308, Note_on_c, 0, 79, 0
2, 33312, Note_on_c, 0, 77, 70
2, 33404, Note_on_c, 0, 77, 0
2, 33408, Note_on_c, 0, 81, 67
2, 33980, Note_on_c, 0, 81, 0
2, 33984, Note_on_c, 0, 82, 66
2, 34172, Note_on_c, 0, 82, 0
2, 34368, Note_on_c, 0, 82, 66
2, 34460, Note_on_c, 0, 82, 0
2, 34464, Note_on_c, 0, 81, 67
2, 34556, Note_on_c, 0, 81, 0
2, 34560, Note_on_c, 0, 79, 69
2, 34604, Note_on_c, 0, 79, 0
2, 34656, Note_on_c, 0, 77, 70
2, 34700, Note_on_c, 0, 77, 0
2, 34752, Note_on_c, 0, 75, 72
2, 34796, Note_on_c, 0, 75, 0
2, 34848, Note_on_c, 0, 74, 73
2, 34892, Note_on_c, 0, 74, 0
2, 34944, Note_on_c, 0, 72, 75
2, 34988, Note_on_c, 0, 72, 0
2, 35040, Note_on_c, 0, 70, 76
2, 35084, Note_on_c, 0, 70, 0
2, 35136, Note_on_c, 0, 69, 78
2, 35180, Note_on_c, 0, 69, 0
2, 35232, Note_on_c, 0, 70, 76
2, 35276, Note_on_c, 0, 70, 0
2, 35328, Note_on_c, 0, 72, 75
2, 35372, Note_on_c, 0, 72, 0
2, 35424, Note_on_c, 0, 74, 73
2, 35468, Note_on_c, 0, 74, 0
2, 35520, Note_on_c, 0, 75, 72
2, 35564, Note_on_c, 0, 75, 0
2, 35616, Note_on_c, 0, 69, 81
2, 35660, Note_on_c, 0, 69, 0
2, 35712, Note_on_c, 0, 70, 76
2, 36092, Note_on_c, 0, 70, 0
2, 41280, Note_on_c, 0, 77, 70
2, 41468, Note_on_c, 0, 77, 0
2, 41472, Note_on_c, 0, 82, 66
2, 41660, Note_on_c, 0, 82, 0
2, 41664, Note_on_c, 0, 81, 67
2, 41852, Note_on_c, 0, 81, 0
2, 41856, Note_on_c, 0, 79, 69
2, 42044, Note_on_c, 0, 79, 0
2, 42048, Note_on_c, 0, 77, 70
2, 42236, Note_on_c, 0, 77, 0
2, 42240, Note_on_c, 0, 75, 72
2, 42428, Note_on_c, 0, 75, 0
2, 42432, Note_on_c, 0, 74, 73
2, 42620, Note_on_c, 0, 74, 0
2, 42624, Note_on_c, 0, 71, 76
2, 42812, Note_on_c, 0, 71, 0
2, 42816, Note_on_c, 0, 72, 75
2, 43004, Note_on_c, 0, 72, 0
2, 43008, Note_on_c, 0, 74, 73
2, 43196, Note_on_c, 0, 74, 0
2, 43200, Note_on_c, 0, 75, 72
2, 43388, Note_on_c, 0, 75, 0
2, 43392, Note_on_c, 0, 77, 70
2, 43580, Note_on_c, 0, 77, 0
2, 43584, Note_on_c, 0, 79, 69
2, 43772, Note_on_c, 0, 79, 0
2, 43776, Note_on_c, 0, 79, 69
2, 43868, Note_on_c, 0, 79, 0
2, 43872, Note_on_c, 0, 77, 70
2, 43964, Note_on_c, 0, 77, 0
2, 43968, Note_on_c, 0, 75, 72
2, 44060, Note_on_c, 0, 75, 0
2, 44064, Note_on_c, 0, 74, 73
2, 44156, Note_on_c, 0, 74, 0
2, 44160, Note_on_c, 0, 72, 75
2, 44252, Note_on_c, 0, 72, 0
2, 44256, Note_on_c, 0, 70, 76
2, 44348, Note_on_c, 0, 70, 0
2, 44352, Note_on_c, 0, 69, 78
2, 44444, Note_on_c, 0, 69, 0
2, 44448, Note_on_c, 0, 70, 76
2, 44540, Note_on_c, 0, 70, 0
2, 44544, Note_on_c, 0, 72, 75
2, 44636, Note_on_c, 0, 72, 0
2, 44640, Note_on_c, 0, 74, 73
2, 44732, Note_on_c, 0, 74, 0
2, 44736, Note_on_c, 0, 75, 72
2, 44828, Note_on_c, 0, 75, 0
2, 44832, Note_on_c, 0, 77, 70
2, 44924, Note_on_c, 0, 77, 0
2, 44928, Note_on_c, 0, 75, 72
2, 45500, Note_on_c, 0, 75, 0
2, 45504, Note_on_c, 0, 74, 73
2, 45692, Note_on_c, 0, 74, 0
2, 49632, Note_on_c, 0, 62, 85
2, 49678, Note_on_c, 0, 62, 0
2, 49728, Note_on_c, 0, 63, 82
2, 49774, Note_on_c, 0, 63, 0
2, 49824, Note_on_c, 0, 65, 81
2, 49870, Note_on_c, 0, 65, 0
2, 49920, Note_on_c, 0, 67, 79
2, 49966, Note_on_c, 0, 67, 0
2, 50016, Note_on_c, 0, 69, 78
2, 50062, Note_on_c, 0, 69, 0
2, 50112, Note_on_c, 0, 70, 76
2, 50158, Note_on_c, 0, 70, 0
2, 50208, Note_on_c, 0, 72, 75
2, 50254, Note_on_c, 0, 72, 0
2, 50304, Note_on_c, 0, 74, 73
2, 50350, Note_on_c, 0, 74, 0
2, 50400, Note_on_c, 0, 75, 72
2, 50446, Note_on_c, 0, 75, 0
2, 50496, Note_on_c, 0, 77, 70
2, 50542, Note_on_c, 0, 77, 0
2, 50592, Note_on_c, 0, 79, 69
2, 50638, Note_on_c, 0, 79, 0
2, 50688, Note_on_c, 0, 81, 67
2, 51836, Note_on_c, 0, 81, 0
2, 51840, Note_on_c, 0, 82, 66
2, 52220, Note_on_c, 0, 82, 0
2, 52224, Note_on_c, 0, 74, 73
2, 52412, Note_on_c, 0, 74, 0
2, 52416, Note_on_c, 0, 72, 75
2, 52604, Note_on_c, 0, 72, 0
2, 52608, Note_on_c, 0, 75, 72
2, 52796, Note_on_c, 0, 75, 0
2, 52800, Note_on_c, 0, 79, 69
2, 52988, Note_on_c, 0, 79, 0
2, 52992, Note_on_c, 0, 70, 76
2, 53372, Note_on_c, 0, 70, 0
2, 54240, Note_on_c, 0, 65, 81
2, 54286, Note_on_c, 0, 65, 0
2, 54336, Note_on_c, 0, 67, 79
2, 54382, Note_on_c, 0, 67, 0
2, 54432, Note_on_c, 0, 69, 78
2, 54478, Note_on_c, 0, 69, 0
2, 54528, Note_on_c, 0, 70, 76
2, 54574, Note_on_c, 0, 70, 0
2, 54624, Note_on_c, 0, 72, 75
2, 54670, Note_on_c, 0, 72, 0
2, 54720, Note_on_c, 0, 74, 73
2, 54766, Note_on_c, 0, 74, 0
2, 54816, Note_on_c, 0, 75, 72
2, 54862, Note_on_c, 0, 75, 0
2, 54912, Note_on_c, 0, 77, 70
2, 54958, Note_on_c, 0, 77, 0
2, 55008, Note_on_c, 0, 79, 69
2, 55054, Note_on_c, 0, 79, 0
2, 55104, Note_on_c, 0, 81, 67
2, 55150, Note_on_c, 0, 81, 0
2, 55200, Note_on_c, 0, 82, 66
2, 55246, Note_on_c, 0, 82, 0
2, 55296, Note_on_c, 0, 84, 64
2, 56252, Note_on_c, 0, 84, 0
2, 56256, Note_on_c, 0, 85, 67
2, 56444, Note_on_c, 0, 85, 0
2, 56448, Note_on_c, 0, 86, 67
2, 56636, Note_on_c, 0, 86, 0
2, 56640, Note_on_c, 0, 82, 72
2, 56828, Note_on_c, 0, 82, 0
2, 56832, Note_on_c, 0, 77, 78
2, 57020, Note_on_c, 0, 77, 0
2, 57024, Note_on_c, 0, 79, 79
2, 57116, Note_on_c, 0, 79, 0
2, 57120, Note_on_c, 0, 80, 79
2, 57212, Note_on_c, 0, 80, 0
2, 57216, Note_on_c, 0, 81, 81
2, 57308, Note_on_c, 0, 81, 0
2, 57312, Note_on_c, 0, 82, 79
2, 57404, Note_on_c, 0, 82, 0
2, 57408, Note_on_c, 0, 79, 85
2, 57500, Note_on_c, 0, 79, 0
2, 57504, Note_on_c, 0, 75, 86
2, 57596, Note_on_c, 0, 75, 0
2, 57600, Note_on_c, 0, 74, 89
2, 57692, Note_on_c, 0, 74, 0
2, 57696, Note_on_c, 0, 75, 88
2, 57788, Note_on_c, 0, 75, 0
2, 57792, Note_on_c, 0, 76, 89
2, 57884, Note_on_c, 0, 76, 0
2, 57888, Note_on_c, 0, 77, 86
2, 57980, Note_on_c, 0, 77, 0
2, 57984, Note_on_c, 0, 74, 89
2, 58076, Note_on_c, 0, 74, 0
2, 58080, Note_on_c, 0, 70, 92
2, 58172, Note_on_c, 0, 70, 0
2, 58176, Note_on_c, 0, 72, 89
2, 58220, Note_on_c, 0, 72, 0
2, 58224, Note_on_c, 0, 74, 88
2, 58268, Note_on_c, 0, 74, 0
2, 58272, Note_on_c, 0, 72, 89
2, 58316, Note_on_c, 0, 72, 0
2, 58320, Note_on_c, 0, 74, 88
2, 58364, Note_on_c, 0, 74, 0
2, 58368, Note_on_c, 0, 72, 89
2, 58412, Note_on_c, 0, 72, 0
2, 58416, Note_on_c, 0, 74, 88
2, 58460, Note_on_c, 0, 74, 0
2, 58464, Note_on_c, 0, 72, 89
2, 58508, Note_on_c, 0, 72, 0
2, 58512, Note_on_c, 0, 74, 88
2, 58556, Note_on_c, 0, 74, 0
2, 58560, Note_on_c, 0, 70, 91
2, 58652, Note_on_c, 0, 70, 0
2, 58656, Note_on_c, 0, 72, 89
2, 58748, Note_on_c, 0, 72, 0
2, 58752, Note_on_c, 0, 70, 94
2, 59132, Note_on_c, 0, 70, 0
2, 65664, Note_on_c, 0, 74, 73
2, 66236, Note_on_c, 0, 74, 0
2, 66240, Note_on_c, 0, 77, 72
2, 66286, Note_on_c, 0, 77, 0
2, 66288, Note_on_c, 0, 75, 73
2, 66432, Note_on_c, 0, 75, 0
2, 66432, Note_on_c, 0, 74, 72
2, 66620, Note_on_c, 0, 74, 0
2, 66624, Note_on_c, 0, 75, 70
2, 66812, Note_on_c, 0, 75, 0
2, 66816, Note_on_c, 0, 77, 70
2, 67772, Note_on_c, 0, 77, 0
2, 67776, Note_on_c, 0, 78, 70
2, 67964, Note_on_c, 0, 78, 0
2, 67968, Note_on_c, 0, 79, 69
2, 68156, Note_on_c, 0, 79, 0
2, 68160, Note_on_c, 0, 75, 72
2, 68348, Note_on_c, 0, 75, 0
2, 68352, Note_on_c, 0, 70, 76
2, 68540, Note_on_c, 0, 70, 0
2, 68544, Note_on_c, 0, 82, 66
2, 68732, Note_on_c, 0, 82, 0
2, 68736, Note_on_c, 0, 79, 69
2, 68924, Note_on_c, 0, 79, 0
2, 68928, Note_on_c, 0, 75, 72
2, 69116, Note_on_c, 0, 75, 0
2, 69120, Note_on_c, 0, 77, 70
2, 69500, Note_on_c, 0, 77, 0
2, 69504, Note_on_c, 0, 74, 73
2, 69692, Note_on_c, 0, 74, 0
2, 69696, Note_on_c, 0, 70, 76
2, 70076, Note_on_c, 0, 70, 0
2, 70272, Note_on_c, 0, 75, 72
2, 70364, Note_on_c, 0, 75, 0
2, 70368, Note_on_c, 0, 72, 75
2, 70460, Note_on_c, 0, 72, 0
2, 70464, Note_on_c, 0, 69, 78
2, 70556, Note_on_c, 0, 69, 0
2, 70560, Note_on_c, 0, 65, 81
2, 70652, Note_on_c, 0, 65, 0
2, 70656, Note_on_c, 0, 63, 82
2, 70748, Note_on_c, 0, 63, 0
2, 70752, Note_on_c, 0, 60, 86
2, 70844, Note_on_c, 0, 60, 0
2, 70848, Note_on_c, 0, 69, 78
2, 70940, Note_on_c, 0, 69, 0
2, 70944, Note_on_c, 0, 67, 79
2, 71036, Note_on_c, 0, 67, 0
2, 71040, Note_on_c, 0, 65, 81
2, 71132, Note_on_c, 0, 65, 0
2, 71136, Note_on_c, 0, 63, 82
2, 71228, Note_on_c, 0, 63, 0
2, 71232, Note_on_c, 0, 62, 85
2, 71324, Note_on_c, 0, 62, 0
2, 71328, Note_on_c, 0, 60, 86
2, 71420, Note_on_c, 0, 60, 0
2, 71424, Note_on_c, 0, 58, 88
2, 71516, Note_on_c, 0, 58, 0
2, 71520, Note_on_c, 0, 62, 85
2, 71612, Note_on_c, 0, 62, 0
2, 71616, Note_on_c, 0, 65, 81
2, 71708, Note_on_c, 0, 65, 0
2, 71712, Note_on_c, 0, 70, 76
2, 71804, Note_on_c, 0, 70, 0
2, 71808, Note_on_c, 0, 74, 73
2, 71900, Note_on_c, 0, 74, 0
2, 71904, Note_on_c, 0, 77, 70
2, 71996, Note_on_c, 0, 77, 0
2, 72000, Note_on_c, 0, 70, 76
2, 72092, Note_on_c, 0, 70, 0
2, 72096, Note_on_c, 0, 74, 73
2, 72188, Note_on_c, 0, 74, 0
2, 72192, Note_on_c, 0, 77, 70
2, 72284, Note_on_c, 0, 77, 0
2, 72288, Note_on_c, 0, 82, 66
2, 72380, Note_on_c, 0, 82, 0
2, 72384, Note_on_c, 0, 77, 70
2, 72476, Note_on_c, 0, 77, 0
2, 72480, Note_on_c, 0, 74, 73
2, 72572, Note_on_c, 0, 74, 0
2, 72576, Note_on_c, 0, 71, 76
2, 72668, Note_on_c, 0, 71, 0
2, 72768, Note_on_c, 0, 72, 75
2, 72860, Note_on_c, 0, 72, 0
2, 72960, Note_on_c, 0, 74, 73
2, 73052, Note_on_c, 0, 74, 0
2, 73152, Note_on_c, 0, 75, 72
2, 73244, Note_on_c, 0, 75, 0
2, 73344, Note_on_c, 0, 77, 70
2, 73436, Note_on_c, 0, 77, 0
2, 73536, Note_on_c, 0, 79, 69
2, 73628, Note_on_c, 0, 79, 0
2, 73728, Note_on_c, 0, 74, 73
2, 74108, Note_on_c, 0, 74, 0
2, 74112, Note_on_c, 0, 75, 72
2, 74204, Note_on_c, 0, 75, 0
2, 74208, Note_on_c, 0, 74, 73
2, 74300, Note_on_c, 0, 74, 0
2, 74304, Note_on_c, 0, 72, 75
2, 74684, Note_on_c, 0, 72, 0
2, 74880, Note_on_c, 0, 62, 85
2, 75452, Note_on_c, 0, 62, 0
2, 75456, Note_on_c, 0, 65, 81
2, 75500, Note_on_c, 0, 65, 0
2, 75504, Note_on_c, 0, 63, 82
2, 75648, Note_on_c, 0, 63, 0
2, 75648, Note_on_c, 0, 62, 85
2, 75836, Note_on_c, 0, 62, 0
2, 75840, Note_on_c, 0, 63, 82
2, 76028, Note_on_c, 0, 63, 0
2, 76032, Note_on_c, 0, 65, 81
2, 76988, Note_on_c, 0, 65, 0
2, 76992, Note_on_c, 0, 66, 81
2, 77180, Note_on_c, 0, 66, 0
2, 77184, Note_on_c, 0, 67, 79
2, 77372, Note_on_c, 0, 67, 0
2, 77376, Note_on_c, 0, 63, 82
2, 77564, Note_on_c, 0, 63, 0
2, 77568, Note_on_c, 0, 58, 88
2, 77660, Note_on_c, 0, 58, 0
2, 77760, Note_on_c, 0, 70, 76
2, 77948, Note_on_c, 0, 70, 0
2, 77952, Note_on_c, 0, 67, 79
2, 78140, Note_on_c, 0, 67, 0
2, 78144, Note_on_c, 0, 63, 82
2, 78236, Note_on_c, 0, 63, 0
2, 78336, Note_on_c, 0, 65, 81
2, 78716, Note_on_c, 0, 65, 0
2, 78720, Note_on_c, 0, 62, 85
2, 78908, Note_on_c, 0, 62, 0
2, 78912, Note_on_c, 0, 58, 88
2, 79292, Note_on_c, 0, 58, 0
2, 79488, Note_on_c, 0, 60, 86
2, 79580, Note_on_c, 0, 60, 0
2, 79584, Note_on_c, 0, 64, 82
2, 79676, Note_on_c, 0, 64, 0
2, 79680, Note_on_c, 0, 67, 79
2, 79772, Note_on_c, 0, 67, 0
2, 79776, Note_on_c, 0, 70, 76
2, 79868, Note_on_c, 0, 70, 0
2, 79872, Note_on_c, 0, 67, 79
2, 79964, Note_on_c, 0, 67, 0
2, 79968, Note_on_c, 0, 64, 82
2, 80060, Note_on_c, 0, 64, 0
2, 80064, Note_on_c, 0, 72, 75
2, 80156, Note_on_c, 0, 72, 0
2, 80160, Note_on_c, 0, 76, 72
2, 80252, Note_on_c, 0, 76, 0
2, 80256, Note_on_c, 0, 79, 69
2, 80348, Note_on_c, 0, 79, 0
2, 80352, Note_on_c, 0, 82, 66
2, 80444, Note_on_c, 0, 82, 0
2, 80448, Note_on_c, 0, 79, 69
2, 80540, Note_on_c, 0, 79, 0
2, 80544, Note_on_c, 0, 76, 72
2, 80636, Note_on_c, 0, 76, 0
2, 80640, Note_on_c, 0, 77, 70
2, 80732, Note_on_c, 0, 77, 0
2, 80736, Note_on_c, 0, 81, 67
2, 80828, Note_on_c, 0, 81, 0
2, 80832, Note_on_c, 0, 84, 64
2, 80924, Note_on_c, 0, 84, 0
2, 80928, Note_on_c, 0, 82, 66
2, 81020, Note_on_c, 0, 82, 0
2, 81024, Note_on_c, 0, 81, 67
2, 81116, Note_on_c, 0, 81, 0
2, 81120, Note_on_c, 0, 79, 69
2, 81212, Note_on_c, 0, 79, 0
2, 81216, Note_on_c, 0, 77, 70
2, 81308, Note_on_c, 0, 77, 0
2, 81312, Note_on_c, 0, 76, 72
2, 81404, Note_on_c, 0, 76, 0
2, 81408, Note_on_c, 0, 74, 73
2, 81500, Note_on_c, 0, 74, 0
2, 81504, Note_on_c, 0, 72, 75
2, 81596, Note_on_c, 0, 72, 0
2, 81600, Note_on_c, 0, 70, 76
2, 81692, Note_on_c, 0, 70, 0
2, 81696, Note_on_c, 0, 69, 78
2, 81788, Note_on_c, 0, 69, 0
2, 81792, Note_on_c, 0, 67, 79
2, 81884, Note_on_c, 0, 67, 0
2, 81984, Note_on_c, 0, 70, 76
2, 82076, Note_on_c, 0, 70, 0
2, 82176, Note_on_c, 0, 74, 73
2, 82268, Note_on_c, 0, 74, 0
2, 82368, Note_on_c, 0, 79, 69
2, 82460, Note_on_c, 0, 79, 0
2, 82560, Note_on_c, 0, 82, 66
2, 82652, Note_on_c, 0, 82, 0
2, 82752, Note_on_c, 0, 76, 72
2, 82844, Note_on_c, 0, 76, 0
2, 82944, Note_on_c, 0, 79, 69
2, 83516, Note_on_c, 0, 79, 0
2, 83520, Note_on_c, 0, 77, 70
2, 83804, Note_on_c, 0, 77, 0
2, 88704, Note_on_c, 0, 65, 81
2, 89084, Note_on_c, 0, 65, 0
2, 89088, Note_on_c, 0, 68, 78
2, 89276, Note_on_c, 0, 68, 0
2, 89280, Note_on_c, 0, 73, 73
2, 89660, Note_on_c, 0, 73, 0
2, 89664, Note_on_c, 0, 65, 81
2, 89852, Note_on_c, 0, 65, 0
2, 89856, Note_on_c, 0, 64, 82
2, 90236, Note_on_c, 0, 64, 0
2, 90240, Note_on_c, 0, 67, 79
2, 90428, Note_on_c, 0, 67, 0
2, 90432, Note_on_c, 0, 72, 75
2, 90812, Note_on_c, 0, 72, 0
2, 90816, Note_on_c, 0, 63, 82
2, 91004, Note_on_c, 0, 63, 0
2, 91008, Note_on_c, 0, 62, 85
2, 91388, Note_on_c, 0, 62, 0
2, 91392, Note_on_c, 0, 65, 81
2, 91580, Note_on_c, 0, 65, 0
2, 91584, Note_on_c, 0, 70, 76
2, 91964, Note_on_c, 0, 70, 0
2, 91968, Note_on_c, 0, 61, 85
2, 92156, Note_on_c, 0, 61, 0
2, 92160, Note_on_c, 0, 60, 86
2, 92540, Note_on_c, 0, 60, 0
2, 92544, Note_on_c, 0, 63, 82
2, 92732, Note_on_c, 0, 63, 0
2, 92736, Note_on_c, 0, 68, 78
2, 93116, Note_on_c, 0, 68, 0
2, 93120, Note_on_c, 0, 60, 86
2, 93308, Note_on_c, 0, 60, 0
2, 93312, Note_on_c, 0, 58, 88
2, 93692, Note_on_c, 0, 58, 0
2, 93696, Note_on_c, 0, 73, 73
2, 93884, Note_on_c, 0, 73, 0
2, 93888, Note_on_c, 0, 75, 72
2, 93932, Note_on_c, 0, 75, 0
2, 93936, Note_on_c, 0, 73, 73
2, 94028, Note_on_c, 0, 73, 0
2, 94080, Note_on_c, 0, 72, 75
2, 94172, Note_on_c, 0, 72, 0
2, 94272, Note_on_c, 0, 73, 73
2, 94364, Note_on_c, 0, 73, 0
2, 94464, Note_on_c, 0, 72, 75
2, 94844, Note_on_c, 0, 72, 0
2, 94848, Note_on_c, 0, 74, 73
2, 94940, Note_on_c, 0, 74, 0
2, 94944, Note_on_c, 0, 76, 72
2, 95036, Note_on_c, 0, 76, 0
2, 95040, Note_on_c, 0, 77, 70
2, 95132, Note_on_c, 0, 77, 0
2, 95136, Note_on_c, 0, 76, 72
2, 95228, Note_on_c, 0, 76, 0
2, 95232, Note_on_c, 0, 74, 73
2, 95324, Note_on_c, 0, 74, 0
2, 95328, Note_on_c, 0, 72, 75
2, 95420, Note_on_c, 0, 72, 0
2, 95424, Note_on_c, 0, 70, 76
2, 95516, Note_on_c, 0, 70, 0
2, 95520, Note_on_c, 0, 69, 78
2, 95612, Note_on_c, 0, 69, 0
2, 95616, Note_on_c, 0, 67, 79
2, 95804, Note_on_c, 0, 67, 0
2, 96192, Note_on_c, 0, 72, 75
2, 96380, Note_on_c, 0, 72, 0
2, 96768, Note_on_c, 0, 53, 108
2, 96860, Note_on_c, 0, 53, 0
2, 96864, Note_on_c, 0, 57, 105
2, 96956, Note_on_c, 0, 57, 0
2, 96960, Note_on_c, 0, 60, 101
2, 97052, Note_on_c, 0, 60, 0
2, 97056, Note_on_c, 0, 65, 97
2, 97148, Note_on_c, 0, 65, 0
2, 97152, Note_on_c, 0, 69, 94
2, 97244, Note_on_c, 0, 69, 0
2, 97248, Note_on_c, 0, 72, 91
2, 97340, Note_on_c, 0, 72, 0
2, 97344, Note_on_c, 0, 65, 97
2, 97436, Note_on_c, 0, 65, 0
2, 97440, Note_on_c, 0, 69, 94
2, 97532, Note_on_c, 0, 69, 0
2, 97536, Note_on_c, 0, 72, 91
2, 97628, Note_on_c, 0, 72, 0
2, 97632, Note_on_c, 0, 77, 86
2, 97724, Note_on_c, 0, 77, 0
2, 97728, Note_on_c, 0, 81, 82
2, 97820, Note_on_c, 0, 81, 0
2, 97824, Note_on_c, 0, 84, 79
2, 97916, Note_on_c, 0, 84, 0
2, 97920, Note_on_c, 0, 83, 81
2, 98012, Note_on_c, 0, 83, 0
2, 98016, Note_on_c, 0, 82, 81
2, 98108, Note_on_c, 0, 82, 0
2, 98112, Note_on_c, 0, 81, 82
2, 98204, Note_on_c, 0, 81, 0
2, 98208, Note_on_c, 0, 79, 85
2, 98300, Note_on_c, 0, 79, 0
2, 98304, Note_on_c, 0, 77, 86
2, 98396, Note_on_c, 0, 77, 0
2, 98400, Note_on_c, 0, 76, 88
2, 98492, Note_on_c, 0, 76, 0
2, 98496, Note_on_c, 0, 74, 89
2, 98588, Note_on_c, 0, 74, 0
2, 98592, Note_on_c, 0, 72, 91
2, 98684, Note_on_c, 0, 72, 0
2, 98688, Note_on_c, 0, 70, 92
2, 98780, Note_on_c, 0, 70, 0
2, 98784, Note_on_c, 0, 69, 94
2, 98876, Note_on_c, 0, 69, 0
2, 98880, Note_on_c, 0, 70, 92
2, 98972, Note_on_c, 0, 70, 0
2, 98976, Note_on_c, 0, 67, 95
2, 99068, Note_on_c, 0, 67, 0
2, 99072, Note_on_c, 0, 53, 108
2, 99164, Note_on_c, 0, 53, 0
2, 99168, Note_on_c, 0, 57, 105
2, 99260, Note_on_c, 0, 57, 0
2, 99264, Note_on_c, 0, 60, 101
2, 99356, Note_on_c, 0, 60, 0
2, 99360, Note_on_c, 0, 65, 97
2, 99452, Note_on_c, 0, 65, 0
2, 99456, Note_on_c, 0, 69, 94
2, 99548, Note_on_c, 0, 69, 0
2, 99552, Note_on_c, 0, 72, 91
2, 99644, Note_on_c, 0, 72, 0
2, 99648, Note_on_c, 0, 65, 97
2, 99740, Note_on_c, 0, 65, 0
2, 99744, Note_on_c, 0, 69, 94
2, 99836, Note_on_c, 0, 69, 0
2, 99840, Note_on_c, 0, 72, 91
2, 99932, Note_on_c, 0, 72, 0
2, 99936, Note_on_c, 0, 77, 86
2, 100028, Note_on_c, 0, 77, 0
2, 100032, Note_on_c, 0, 81, 82
2, 100124, Note_on_c, 0, 81, 0
2, 100128, Note_on_c, 0, 84, 79
2, 100220, Note_on_c, 0, 84, 0
2, 100224, Note_on_c, 0, 83, 81
2, 100316, Note_on_c, 0, 83, 0
2, 100320, Note_on_c, 0, 82, 81
2, 100412, Note_on_c, 0, 82, 0
2, 100416, Note_on_c, 0, 81, 82
2, 100508, Note_on_c, 0, 81, 0
2, 100512, Note_on_c, 0, 79, 85
2, 100604, Note_on_c, 0, 79, 0
2, 100608, Note_on_c, 0, 77, 86
2, 100700, Note_on_c, 0, 77, 0
2, 100704, Note_on_c, 0, 76, 88
2, 100796, Note_on_c, 0, 76, 0
2, 100800, Note_on_c, 0, 74, 89
2, 100892, Note_on_c, 0, 74, 0
2, 100896, Note_on_c, 0, 72, 91
2, 100988, Note_on_c, 0, 72, 0
2, 100992, Note_on_c, 0, 70, 92
2, 101084, Note_on_c, 0, 70, 0
2, 101088, Note_on_c, 0, 69, 94
2, 101180, Note_on_c, 0, 69, 0
2, 101184, Note_on_c, 0, 70, 92
2, 101276, Note_on_c, 0, 70, 0
2, 101280, Note_on_c, 0, 67, 95
2, 101372, Note_on_c, 0, 67, 0
2, 101376, Note_on_c, 0, 65, 97
2, 101468, Note_on_c, 0, 65, 0
2, 101472, Note_on_c, 0, 69, 94
2, 101564, Note_on_c, 0, 69, 0
2, 101568, Note_on_c, 0, 72, 91
2, 101648, Note_on_c, 0, 76, 88
2, 101660, Note_on_c, 0, 72, 0
2, 101740, Note_on_c, 0, 76, 0
2, 101760, Note_on_c, 0, 77, 86
2, 101852, Note_on_c, 0, 77, 0
2, 101856, Note_on_c, 0, 81, 82
2, 101948, Note_on_c, 0, 81, 0
2, 101952, Note_on_c, 0, 84, 79
2, 102140, Note_on_c, 0, 84, 0
2, 102528, Note_on_c, 0, 67, 95
2, 102620, Note_on_c, 0, 67, 0
2, 102624, Note_on_c, 0, 70, 92
2, 102718, Note_on_c, 0, 70, 0
2, 102720, Note_on_c, 0, 74, 89
2, 102814, Note_on_c, 0, 74, 0
2, 102816, Note_on_c, 0, 78, 86
2, 102910, Note_on_c, 0, 78, 0
2, 102912, Note_on_c, 0, 79, 85
2, 103006, Note_on_c, 0, 79, 0
2, 103008, Note_on_c, 0, 82, 81
2, 103102, Note_on_c, 0, 82, 0
2, 103104, Note_on_c, 0, 86, 78
2, 103292, Note_on_c, 0, 86, 0
2, 103680, Note_on_c, 0, 72, 91
2, 104252, Note_on_c, 0, 72, 0
2, 104256, Note_on_c, 0, 79, 85
2, 104300, Note_on_c, 0, 79, 0
2, 104304, Note_on_c, 0, 81, 82
2, 104348, Note_on_c, 0, 81, 0
2, 104352, Note_on_c, 0, 79, 85
2, 104396, Note_on_c, 0, 79, 0
2, 104400, Note_on_c, 0, 81, 82
2, 104444, Note_on_c, 0, 81, 0
2, 104448, Note_on_c, 0, 79, 85
2, 104492, Note_on_c, 0, 79, 0
2, 104496, Note_on_c, 0, 81, 82
2, 104540, Note_on_c, 0, 81, 0
2, 104544, Note_on_c, 0, 79, 85
2, 104588, Note_on_c, 0, 79, 0
2, 104592, Note_on_c, 0, 81, 82
2, 104636, Note_on_c, 0, 81, 0
2, 104640, Note_on_c, 0, 77, 86
2, 104732, Note_on_c, 0, 77, 0
2, 104736, Note_on_c, 0, 79, 85
2, 104828, Note_on_c, 0, 79, 0
2, 104928, Note_on_c, 0, 60, 101
2, 105020, Note_on_c, 0, 60, 0
2, 105024, Note_on_c, 0, 65, 97
2, 105116, Note_on_c, 0, 65, 0
2, 105120, Note_on_c, 0, 69, 94
2, 105212, Note_on_c, 0, 69, 0
2, 105216, Note_on_c, 0, 72, 91
2, 105308, Note_on_c, 0, 72, 0
2, 105312, Note_on_c, 0, 77, 86
2, 105404, Note_on_c, 0, 77, 0
2, 105408, Note_on_c, 0, 81, 82
2, 105500, Note_on_c, 0, 81, 0
2, 105600, Note_on_c, 0, 84, 79
2, 105692, Note_on_c, 0, 84, 0
2, 106080, Note_on_c, 0, 67, 95
2, 106172, Note_on_c, 0, 67, 0
2, 106176, Note_on_c, 0, 70, 92
2, 106268, Note_on_c, 0, 70, 0
2, 106272, Note_on_c, 0, 74, 89
2, 106364, Note_on_c, 0, 74, 0
2, 106368, Note_on_c, 0, 79, 85
2, 106460, Note_on_c, 0, 79, 0
2, 106464, Note_on_c, 0, 82, 81
2, 106556, Note_on_c, 0, 82, 0
2, 106560, Note_on_c, 0, 86, 78
2, 106652, Note_on_c, 0, 86, 0
2, 106752, Note_on_c, 0, 89, 75
2, 106844, Note_on_c, 0, 89, 0
2, 107328, Note_on_c, 0, 76, 88
2, 107516, Note_on_c, 0, 76, 0
2, 107520, Note_on_c, 0, 77, 86
2, 107708, Note_on_c, 0, 77, 0
2, 107712, Note_on_c, 0, 80, 82
2, 107900, Note_on_c, 0, 80, 0
2, 107904, Note_on_c, 0, 76, 88
2, 108092, Note_on_c, 0, 76, 0
2, 108096, Note_on_c, 0, 77, 86
2, 108284, Note_on_c, 0, 77, 0
2, 108288, Note_on_c, 0, 80, 82
2, 108860, Note_on_c, 0, 80, 0
2, 108864, Note_on_c, 0, 71, 92
2, 109148, Note_on_c, 0, 71, 0
2, 109440, Note_on_c, 0, 72, 91
2, 109532, Note_on_c, 0, 72, 0
2, 109536, Note_on_c, 0, 74, 89
2, 109628, Note_on_c, 0, 74, 0
2, 109632, Note_on_c, 0, 76, 88
2, 109724, Note_on_c, 0, 76, 0
2, 109728, Note_on_c, 0, 77, 86
2, 109820, Note_on_c, 0, 77, 0
2, 109824, Note_on_c, 0, 79, 85
2, 109916, Note_on_c, 0, 79, 0
2, 109920, Note_on_c, 0, 80, 82
2, 110012, Note_on_c, 0, 80, 0
2, 110016, Note_on_c, 0, 81, 82
2, 110108, Note_on_c, 0, 81, 0
2, 110112, Note_on_c, 0, 82, 81
2, 110204, Note_on_c, 0, 82, 0
2, 110208, Note_on_c, 0, 83, 81
2, 110300, Note_on_c, 0, 83, 0
2, 110304, Note_on_c, 0, 84, 79
2, 110396, Note_on_c, 0, 84, 0
2, 110400, Note_on_c, 0, 83, 81
2, 110492, Note_on_c, 0, 83, 0
2, 110496, Note_on_c, 0, 84, 79
2, 110588, Note_on_c, 0, 84, 0
2, 110592, Note_on_c, 0, 79, 85
2, 110636, Note_on_c, 0, 79, 0
2, 110640, Note_on_c, 0, 81, 82
2, 110684, Note_on_c, 0, 81, 0
2, 110688, Note_on_c, 0, 79, 85
2, 110732, Note_on_c, 0, 79, 0
2, 110736, Note_on_c, 0, 81, 82
2, 110780, Note_on_c, 0, 81, 0
2, 110784, Note_on_c, 0, 79, 85
2, 110828, Note_on_c, 0, 79, 0
2, 110832, Note_on_c, 0, 81, 82
2, 110876, Note_on_c, 0, 81, 0
2, 110880, Note_on_c, 0, 79, 85
2, 110924, Note_on_c, 0, 79, 0
2, 110928, Note_on_c, 0, 81, 82
2, 110972, Note_on_c, 0, 81, 0
2, 110976, Note_on_c, 0, 79, 85
2, 111020, Note_on_c, 0, 79, 0
2, 111024, Note_on_c, 0, 81, 82
2, 111068, Note_on_c, 0, 81, 0
2, 111072, Note_on_c, 0, 79, 85
2, 111116, Note_on_c, 0, 79, 0
2, 111120, Note_on_c, 0, 81, 82
2, 111164, Note_on_c, 0, 81, 0
2, 111168, Note_on_c, 0, 79, 85
2, 111212, Note_on_c, 0, 79, 0
2, 111216, Note_on_c, 0, 81, 82
2, 111260, Note_on_c, 0, 81, 0
2, 111264, Note_on_c, 0, 79, 85
2, 111308, Note_on_c, 0, 79, 0
2, 111312, Note_on_c, 0, 81, 82
2, 111356, Note_on_c, 0, 81, 0
2, 111360, Note_on_c, 0, 79, 85
2, 111404, Note_on_c, 0, 79, 0
2, 111408, Note_on_c, 0, 81, 82
2, 111452, Note_on_c, 0, 81, 0
2, 111456, Note_on_c, 0, 79, 85
2, 111500, Note_on_c, 0, 79, 0
2, 111504, Note_on_c, 0, 81, 82
2, 111548, Note_on_c, 0, 81, 0
2, 111552, Note_on_c, 0, 77, 86
2, 111644, Note_on_c, 0, 77, 0
2, 111648, Note_on_c, 0, 79, 85
2, 111740, Note_on_c, 0, 79, 0
2, 111744, Note_on_c, 0, 77, 86
2, 112124, Note_on_c, 0, 77, 0
2, 114240, Note_on_c, 0, 77, 70
2, 114428, Note_on_c, 0, 77, 0
2, 114432, Note_on_c, 0, 75, 72
2, 114620, Note_on_c, 0, 75, 0
2, 114624, Note_on_c, 0, 73, 73
2, 114812, Note_on_c, 0, 73, 0
2, 114816, Note_on_c, 0, 72, 75
2, 115004, Note_on_c, 0, 72, 0
2, 115008, Note_on_c, 0, 70, 76
2, 115196, Note_on_c, 0, 70, 0
2, 115200, Note_on_c, 0, 69, 78
2, 115580, Note_on_c, 0, 69, 0
2, 115584, Note_on_c, 0, 69, 78
2, 115772, Note_on_c, 0, 69, 0
2, 115776, Note_on_c, 0, 72, 76
2, 115820, Note_on_c, 0, 72, 0
2, 115824, Note_on_c, 0, 70, 78
2, 115968, Note_on_c, 0, 70, 0
2, 115968, Note_on_c, 0, 69, 79
2, 116156, Note_on_c, 0, 69, 0
2, 116160, Note_on_c, 0, 70, 76
2, 116348, Note_on_c, 0, 70, 0
2, 116352, Note_on_c, 0, 72, 75
2, 116732, Note_on_c, 0, 72, 0
2, 118848, Note_on_c, 0, 65, 81
2, 119036, Note_on_c, 0, 65, 0
2, 119040, Note_on_c, 0, 63, 82
2, 119228, Note_on_c, 0, 63, 0
2, 119232, Note_on_c, 0, 61, 85
2, 119420, Note_on_c, 0, 61, 0
2, 119424, Note_on_c, 0, 60, 86
2, 119612, Note_on_c, 0, 60, 0
2, 119616, Note_on_c, 0, 58, 88
2, 119804, Note_on_c, 0, 58, 0
2, 119808, Note_on_c, 0, 70, 76
2, 120380, Note_on_c, 0, 70, 0
2, 120384, Note_on_c, 0, 64, 82
2, 120956, Note_on_c, 0, 64, 0
2, 120960, Note_on_c, 0, 65, 81
2, 121148, Note_on_c, 0, 65, 0
2, 121536, Note_on_c, 0, 76, 72
2, 121628, Note_on_c, 0, 76, 0
2, 121632, Note_on_c, 0, 77, 70
2, 121724, Note_on_c, 0, 77, 0
2, 121728, Note_on_c, 0, 78, 69
2, 121820, Note_on_c, 0, 78, 0
2, 121824, Note_on_c, 0, 79, 69
2, 121916, Note_on_c, 0, 79, 0
2, 121920, Note_on_c, 0, 80, 67
2, 122012, Note_on_c, 0, 80, 0
2, 122016, Note_on_c, 0, 81, 67
2, 122108, Note_on_c, 0, 81, 0
2, 122112, Note_on_c, 0, 82, 66
2, 122300, Note_on_c, 0, 82, 0
2, 123840, Note_on_c, 0, 64, 82
2, 123932, Note_on_c, 0, 64, 0
2, 123936, Note_on_c, 0, 65, 81
2, 124028, Note_on_c, 0, 65, 0
2, 124032, Note_on_c, 0, 66, 79
2, 124124, Note_on_c, 0, 66, 0
2, 124128, Note_on_c, 0, 67, 79
2, 124220, Note_on_c, 0, 67, 0
2, 124224, Note_on_c, 0, 68, 78
2, 124316, Note_on_c, 0, 68, 0
2, 124320, Note_on_c, 0, 69, 78
2, 124412, Note_on_c, 0, 69, 0
2, 124416, Note_on_c, 0, 70, 76
2, 124604, Note_on_c, 0, 70, 0
2, 126144, Note_on_c, 0, 52, 86
2, 126236, Note_on_c, 0, 52, 0
2, 126240, Note_on_c, 0, 53, 84
2, 126332, Note_on_c, 0, 53, 0
2, 126336, Note_on_c, 0, 54, 83
2, 126428, Note_on_c, 0, 54, 0
2, 126432, Note_on_c, 0, 55, 83
2, 126524, Note_on_c, 0, 55, 0
2, 126528, Note_on_c, 0, 56, 81
2, 126620, Note_on_c, 0, 56, 0
2, 126624, Note_on_c, 0, 57, 81
2, 126716, Note_on_c, 0, 57, 0
2, 126720, Note_on_c, 0, 58, 84
2, 127292, Note_on_c, 0, 58, 0
2, 127296, Note_on_c, 0, 70, 82
2, 127868, Note_on_c, 0, 70, 0
2, 127872, Note_on_c, 0, 85, 72
2, 128444, Note_on_c, 0, 85, 0
2, 128448, Note_on_c, 0, 76, 85
2, 129020, Note_on_c, 0, 76, 0
2, 129024, Note_on_c, 0, 77, 72
2, 131516, Note_on_c, 0, 77, 0
2, 131712, Note_on_c, 0, 77, 70
2, 131804, Note_on_c, 0, 77, 0
2, 131904, Note_on_c, 0, 77, 70
2, 131996, Note_on_c, 0, 77, 0
2, 132096, Note_on_c, 0, 76, 72
2, 132188, Note_on_c, 0, 76, 0
2, 132192, Note_on_c, 0, 77, 70
2, 132284, Note_on_c, 0, 77, 0
2, 132288, Note_on_c, 0, 79, 69
2, 132380, Note_on_c, 0, 79, 0
2, 132384, Note_on_c, 0, 77, 70
2, 132476, Note_on_c, 0, 77, 0
2, 132480, Note_on_c, 0, 75, 72
2, 133052, Note_on_c, 0, 75, 0
2, 133056, Note_on_c, 0, 74, 73
2, 133244, Note_on_c, 0, 74, 0
2, 133440, Note_on_c, 0, 82, 66
2, 133532, Note_on_c, 0, 82, 0
2, 133536, Note_on_c, 0, 81, 67
2, 133628, Note_on_c, 0, 81, 0
2, 133632, Note_on_c, 0, 79, 69
2, 133724, Note_on_c, 0, 79, 0
2, 133824, Note_on_c, 0, 79, 69
2, 133916, Note_on_c, 0, 79, 0
2, 134016, Note_on_c, 0, 79, 69
2, 134108, Note_on_c, 0, 79, 0
2, 134112, Note_on_c, 0, 77, 70
2, 134204, Note_on_c, 0, 77, 0
2, 134208, Note_on_c, 0, 75, 72
2, 134300, Note_on_c, 0, 75, 0
2, 134400, Note_on_c, 0, 75, 72
2, 134492, Note_on_c, 0, 75, 0
2, 134496, Note_on_c, 0, 74, 73
2, 134588, Note_on_c, 0, 74, 0
2, 134592, Note_on_c, 0, 72, 75
2, 134684, Note_on_c, 0, 72, 0
2, 134688, Note_on_c, 0, 70, 76
2, 134780, Note_on_c, 0, 70, 0
2, 134784, Note_on_c, 0, 69, 78
2, 134972, Note_on_c, 0, 69, 0
2, 134976, Note_on_c, 0, 70, 76
2, 135164, Note_on_c, 0, 70, 0
2, 135168, Note_on_c, 0, 71, 76
2, 135356, Note_on_c, 0, 71, 0
2, 135360, Note_on_c, 0, 72, 75
2, 135548, Note_on_c, 0, 72, 0
2, 135744, Note_on_c, 0, 74, 73
2, 135836, Note_on_c, 0, 74, 0
2, 135840, Note_on_c, 0, 75, 72
2, 135932, Note_on_c, 0, 75, 0
2, 135936, Note_on_c, 0, 77, 70
2, 136028, Note_on_c, 0, 77, 0
2, 136128, Note_on_c, 0, 77, 70
2, 136220, Note_on_c, 0, 77, 0
2, 136320, Note_on_c, 0, 77, 70
2, 136412, Note_on_c, 0, 77, 0
2, 136512, Note_on_c, 0, 79, 69
2, 136604, Note_on_c, 0, 79, 0
2, 136608, Note_on_c, 0, 77, 70
2, 136700, Note_on_c, 0, 77, 0
2, 136704, Note_on_c, 0, 76, 69
2, 136796, Note_on_c, 0, 76, 0
2, 136800, Note_on_c, 0, 77, 72
2, 136892, Note_on_c, 0, 77, 0
2, 136896, Note_on_c, 0, 79, 69
2, 136988, Note_on_c, 0, 79, 0
2, 136992, Note_on_c, 0, 77, 70
2, 137084, Note_on_c, 0, 77, 0
2, 137088, Note_on_c, 0, 81, 67
2, 137660, Note_on_c, 0, 81, 0
2, 137664, Note_on_c, 0, 82, 66
2, 137852, Note_on_c, 0, 82, 0
2, 138048, Note_on_c, 0, 82, 66
2, 138140, Note_on_c, 0, 82, 0
2, 138144, Note_on_c, 0, 81, 67
2, 138236, Note_on_c, 0, 81, 0
2, 138240, Note_on_c, 0, 79, 69
2, 138284, Note_on_c, 0, 79, 0
2, 138336, Note_on_c, 0, 77, 70
2, 138380, Note_on_c, 0, 77, 0
2, 138432, Note_on_c, 0, 75, 72
2, 138476, Note_on_c, 0, 75, 0
2, 138528, Note_on_c, 0, 74, 73
2, 138572, Note_on_c, 0, 74, 0
2, 138624, Note_on_c, 0, 72, 75
2, 138668, Note_on_c, 0, 72, 0
2, 138720, Note_on_c, 0, 70, 76
2, 138764, Note_on_c, 0, 70, 0
2, 138816, Note_on_c, 0, 69, 78
2, 138860, Note_on_c, 0, 69, 0
2, 138912, Note_on_c, 0, 70, 76
2, 138956, Note_on_c, 0, 70, 0
2, 139008, Note_on_c, 0, 72, 75
2, 139052, Note_on_c, 0, 72, 0
2, 139104, Note_on_c, 0, 74, 73
2, 139148, Note_on_c, 0, 74, 0
2, 139200, Note_on_c, 0, 75, 72
2, 139244, Note_on_c, 0, 75, 0
2, 139296, Note_on_c, 0, 69, 78
2, 139340, Note_on_c, 0, 69, 0
2, 139392, Note_on_c, 0, 70, 76
2, 139772, Note_on_c, 0, 70, 0
2, 158784, Note_on_c, 0, 74, 73
2, 158972, Note_on_c, 0, 74, 0
2, 158976, Note_on_c, 0, 79, 70
2, 159548, Note_on_c, 0, 79, 0
2, 159552, Note_on_c, 0, 74, 73
2, 159932, Note_on_c, 0, 74, 0
2, 159936, Note_on_c, 0, 70, 76
2, 160124, Note_on_c, 0, 70, 0
2, 160128, Note_on_c, 0, 75, 72
2, 160508, Note_on_c, 0, 75, 0
2, 160512, Note_on_c, 0, 72, 75
2, 160700, Note_on_c, 0, 72, 0
2, 160704, Note_on_c, 0, 69, 78
2, 161084, Note_on_c, 0, 69, 0
2, 161088, Note_on_c, 0, 69, 78
2, 161276, Note_on_c, 0, 69, 0
2, 161280, Note_on_c, 0, 81, 67
2, 161660, Note_on_c, 0, 81, 0
2, 161664, Note_on_c, 0, 78, 70
2, 161852, Note_on_c, 0, 78, 0
2, 161856, Note_on_c, 0, 74, 73
2, 162236, Note_on_c, 0, 74, 0
2, 162240, Note_on_c, 0, 72, 75
2, 162428, Note_on_c, 0, 72, 0
2, 162432, Note_on_c, 0, 70, 76
2, 162812, Note_on_c, 0, 70, 0
2, 162816, Note_on_c, 0, 75, 72
2, 163004, Note_on_c, 0, 75, 0
2, 163008, Note_on_c, 0, 74, 73
2, 163388, Note_on_c, 0, 74, 0
2, 163392, Note_on_c, 0, 82, 66
2, 163580, Note_on_c, 0, 82, 0
2, 163584, Note_on_c, 0, 81, 67
2, 163964, Note_on_c, 0, 81, 0
2, 163968, Note_on_c, 0, 78, 70
2, 164156, Note_on_c, 0, 78, 0
2, 164160, Note_on_c, 0, 79, 69
2, 164540, Note_on_c, 0, 79, 0
2, 164544, Note_on_c, 0, 82, 66
2, 164732, Note_on_c, 0, 82, 0
2, 164736, Note_on_c, 0, 81, 67
2, 165116, Note_on_c, 0, 81, 0
2, 165120, Note_on_c, 0, 78, 70
2, 165308, Note_on_c, 0, 78, 0
2, 165312, Note_on_c, 0, 79, 69
2, 165692, Note_on_c, 0, 79, 0
2, 165696, Note_on_c, 0, 82, 66
2, 165884, Note_on_c, 0, 82, 0
2, 165888, Note_on_c, 0, 79, 69
2, 166076, Note_on_c, 0, 79, 0
2, 166080, Note_on_c, 0, 77, 70
2, 166268, Note_on_c, 0, 77, 0
2, 166272, Note_on_c, 0, 75, 72
2, 166460, Note_on_c, 0, 75, 0
2, 166464, Note_on_c, 0, 77, 70
2, 166508, Note_on_c, 0, 77, 0
2, 166512, Note_on_c, 0, 75, 72
2, 166656, Note_on_c, 0, 75, 0
2, 166656, Note_on_c, 0, 74, 73
2, 166844, Note_on_c, 0, 74, 0
2, 166848, Note_on_c, 0, 73, 75
2, 167036, Note_on_c, 0, 73, 0
2, 167040, Note_on_c, 0, 74, 81
2, 167420, Note_on_c, 0, 74, 0
2, 168000, Note_on_c, 0, 62, 92
2, 168188, Note_on_c, 0, 62, 0
2, 168192, Note_on_c, 0, 67, 83
2, 168764, Note_on_c, 0, 67, 0
2, 168768, Note_on_c, 0, 62, 87
2, 169148, Note_on_c, 0, 62, 0
2, 169152, Note_on_c, 0, 58, 90
2, 169340, Note_on_c, 0, 58, 0
2, 169344, Note_on_c, 0, 63, 86
2, 169724, Note_on_c, 0, 63, 0
2, 169728, Note_on_c, 0, 60, 89
2, 169916, Note_on_c, 0, 60, 0
2, 169920, Note_on_c, 0, 57, 91
2, 170300, Note_on_c, 0, 57, 0
2, 170304, Note_on_c, 0, 57, 92
2, 170492, Note_on_c, 0, 57, 0
2, 170496, Note_on_c, 0, 69, 81
2, 170876, Note_on_c, 0, 69, 0
2, 170880, Note_on_c, 0, 66, 84
2, 171068, Note_on_c, 0, 66, 0
2, 171072, Note_on_c, 0, 62, 87
2, 171452, Note_on_c, 0, 62, 0
2, 171456, Note_on_c, 0, 60, 89
2, 171644, Note_on_c, 0, 60, 0
2, 171648, Note_on_c, 0, 58, 90
2, 172028, Note_on_c, 0, 58, 0
2, 172032, Note_on_c, 0, 63, 86
2, 172220, Note_on_c, 0, 63, 0
2, 172224, Note_on_c, 0, 62, 86
2, 172604, Note_on_c, 0, 62, 0
2, 172608, Note_on_c, 0, 62, 87
2, 172796, Note_on_c, 0, 62, 0
2, 172800, Note_on_c, 0, 63, 86
2, 173180, Note_on_c, 0, 63, 0
2, 173184, Note_on_c, 0, 64, 86
2, 173372, Note_on_c, 0, 64, 0
2, 173376, Note_on_c, 0, 65, 84
2, 173756, Note_on_c, 0, 65, 0
2, 173760, Note_on_c, 0, 66, 84
2, 173948, Note_on_c, 0, 66, 0
2, 173952, Note_on_c, 0, 67, 83
2, 174524, Note_on_c, 0, 67, 0
2, 174528, Note_on_c, 0, 59, 90
2, 175100, Note_on_c, 0, 59, 0
2, 175104, Note_on_c, 0, 60, 89
2, 175676, Note_on_c, 0, 60, 0
2, 175680, Note_on_c, 0, 61, 89
2, 176252, Note_on_c, 0, 61, 0
2, 176256, Note_on_c, 0, 62, 87
2, 176636, Note_on_c, 0, 62, 0
2, 177216, Note_on_c, 0, 62, 87
2, 177404, Note_on_c, 0, 62, 0
2, 177408, Note_on_c, 0, 61, 88
2, 177788, Note_on_c, 0, 61, 0
2, 177792, Note_on_c, 0, 64, 86
2, 177980, Note_on_c, 0, 64, 0
2, 177984, Note_on_c, 0, 67, 82
2, 178364, Note_on_c, 0, 67, 0
2, 178368, Note_on_c, 0, 61, 88
2, 178556, Note_on_c, 0, 61, 0
2, 178560, Note_on_c, 0, 62, 86
2, 178940, Note_on_c, 0, 62, 0
2, 179520, Note_on_c, 0, 62, 87
2, 179708, Note_on_c, 0, 62, 0
2, 179712, Note_on_c, 0, 63, 81
2, 180092, Note_on_c, 0, 63, 0
2, 180096, Note_on_c, 0, 67, 83
2, 180284, Note_on_c, 0, 67, 0
2, 180288, Note_on_c, 0, 70, 80
2, 180668, Note_on_c, 0, 70, 0
2, 180672, Note_on_c, 0, 63, 86
2, 180860, Note_on_c, 0, 63, 0
2, 180864, Note_on_c, 0, 62, 87
2, 181244, Note_on_c, 0, 62, 0
2, 183168, Note_on_c, 0, 58, 103
2, 183740, Note_on_c, 0, 58, 0
2, 183744, Note_on_c, 0, 80, 84
2, 184316, Note_on_c, 0, 80, 0
2, 184320, Note_on_c, 0, 80, 84
2, 184412, Note_on_c, 0, 80, 0
2, 184416, Note_on_c, 0, 82, 82
2, 184508, Note_on_c, 0, 82, 0
2, 184512, Note_on_c, 0, 80, 84
2, 184556, Note_on_c, 0, 80, 0
2, 184608, Note_on_c, 0, 79, 84
2, 184652, Note_on_c, 0, 79, 0
2, 184704, Note_on_c, 0, 77, 86
2, 184748, Note_on_c, 0, 77, 0
2, 184800, Note_on_c, 0, 75, 87
2, 184844, Note_on_c, 0, 75, 0
2, 184896, Note_on_c, 0, 74, 88
2, 184940, Note_on_c, 0, 74, 0
2, 184992, Note_on_c, 0, 72, 89
2, 185036, Note_on_c, 0, 72, 0
2, 185088, Note_on_c, 0, 70, 90
2, 185132, Note_on_c, 0, 70, 0
2, 185184, Note_on_c, 0, 68, 94
2, 185228, Note_on_c, 0, 68, 0
2, 185280, Note_on_c, 0, 67, 95
2, 185324, Note_on_c, 0, 67, 0
2, 185376, Note_on_c, 0, 65, 97
2, 185420, Note_on_c, 0, 65, 0
2, 185472, Note_on_c, 0, 63, 98
2, 186044, Note_on_c, 0, 63, 0
2, 186048, Note_on_c, 0, 51, 100
2, 186620, Note_on_c, 0, 51, 0
2, 186624, Note_on_c, 0, 79, 85
2, 187196, Note_on_c, 0, 79, 0
2, 187200, Note_on_c, 0, 51, 100
2, 187772, Note_on_c, 0, 51, 0
2, 187776, Note_on_c, 0, 82, 66
2, 188540, Note_on_c, 0, 82, 0
2, 188544, Note_on_c, 0, 79, 69
2, 188732, Note_on_c, 0, 79, 0
2, 188736, Note_on_c, 0, 75, 72
2, 188924, Note_on_c, 0, 75, 0
2, 188928, Note_on_c, 0, 74, 73
2, 189116, Note_on_c, 0, 74, 0
2, 189120, Note_on_c, 0, 75, 72
2, 189308, Note_on_c, 0, 75, 0
2, 189312, Note_on_c, 0, 76, 72
2, 189500, Note_on_c, 0, 76, 0
2, 189504, Note_on_c, 0, 77, 70
2, 189692, Note_on_c, 0, 77, 0
2, 190080, Note_on_c, 0, 70, 92
2, 190652, Note_on_c, 0, 70, 0
2, 190656, Note_on_c, 0, 58, 100
2, 191228, Note_on_c, 0, 58, 0
2, 191232, Note_on_c, 0, 77, 86
2, 191804, Note_on_c, 0, 77, 0
2, 191808, Note_on_c, 0, 58, 100
2, 192380, Note_on_c, 0, 58, 0
2, 192384, Note_on_c, 0, 80, 67
2, 192956, Note_on_c, 0, 80, 0
2, 192960, Note_on_c, 0, 82, 66
2, 193052, Note_on_c, 0, 82, 0
2, 193056, Note_on_c, 0, 80, 67
2, 193148, Note_on_c, 0, 80, 0
2, 193152, Note_on_c, 0, 79, 69
2, 193244, Note_on_c, 0, 79, 0
2, 193248, Note_on_c, 0, 77, 70
2, 193340, Note_on_c, 0, 77, 0
2, 193344, Note_on_c, 0, 75, 72
2, 193436, Note_on_c, 0, 75, 0
2, 193440, Note_on_c, 0, 74, 73
2, 193532, Note_on_c, 0, 74, 0
2, 193536, Note_on_c, 0, 75, 72
2, 193724, Note_on_c, 0, 75, 0
2, 193728, Note_on_c, 0, 77, 70
2, 193916, Note_on_c, 0, 77, 0
2, 193920, Note_on_c, 0, 78, 70
2, 194108, Note_on_c, 0, 78, 0
2, 194112, Note_on_c, 0, 79, 69
2, 194300, Note_on_c, 0, 79, 0
2, 194880, Note_on_c, 0, 56, 90
2, 194972, Note_on_c, 0, 56, 0
2, 195072, Note_on_c, 0, 55, 92
2, 195164, Note_on_c, 0, 55, 0
2, 195264, Note_on_c, 0, 53, 93
2, 195356, Note_on_c, 0, 53, 0
2, 195456, Note_on_c, 0, 56, 90
2, 195548, Note_on_c, 0, 56, 0
2, 195648, Note_on_c, 0, 51, 93
2, 195740, Note_on_c, 0, 51, 0
2, 195840, Note_on_c, 0, 50, 94
2, 195932, Note_on_c, 0, 50, 0
2, 196416, Note_on_c, 0, 77, 74
2, 196508, Note_on_c, 0, 77, 0
2, 196512, Note_on_c, 0, 79, 73
2, 196604, Note_on_c, 0, 79, 0
2, 196608, Note_on_c, 0, 80, 71
2, 196700, Note_on_c, 0, 80, 0
2, 196704, Note_on_c, 0, 82, 70
2, 196796, Note_on_c, 0, 82, 0
2, 196800, Note_on_c, 0, 84, 68
2, 196988, Note_on_c, 0, 84, 0
2, 197184, Note_on_c, 0, 67, 90
2, 197276, Note_on_c, 0, 67, 0
2, 197376, Note_on_c, 0, 65, 91
2, 197468, Note_on_c, 0, 65, 0
2, 197568, Note_on_c, 0, 63, 92
2, 197660, Note_on_c, 0, 63, 0
2, 197760, Note_on_c, 0, 67, 89
2, 197852, Note_on_c, 0, 67, 0
2, 197952, Note_on_c, 0, 62, 95
2, 198044, Note_on_c, 0, 62, 0
2, 198144, Note_on_c, 0, 60, 96
2, 198332, Note_on_c, 0, 60, 0
2, 198720, Note_on_c, 0, 75, 76
2, 198812, Note_on_c, 0, 75, 0
2, 198816, Note_on_c, 0, 77, 75
2, 198908, Note_on_c, 0, 77, 0
2, 198912, Note_on_c, 0, 79, 74
2, 199004, Note_on_c, 0, 79, 0
2, 199008, Note_on_c, 0, 80, 72
2, 199100, Note_on_c, 0, 80, 0
2, 199104, Note_on_c, 0, 82, 71
2, 199292, Note_on_c, 0, 82, 0
2, 199488, Note_on_c, 0, 65, 92
2, 199580, Note_on_c, 0, 65, 0
2, 199680, Note_on_c, 0, 63, 93
2, 199772, Note_on_c, 0, 63, 0
2, 199872, Note_on_c, 0, 62, 95
2, 199964, Note_on_c, 0, 62, 0
2, 200064, Note_on_c, 0, 65, 92
2, 200156, Note_on_c, 0, 65, 0
2, 200256, Note_on_c, 0, 60, 96
2, 200348, Note_on_c, 0, 60, 0
2, 200448, Note_on_c, 0, 58, 97
2, 200636, Note_on_c, 0, 58, 0
2, 201024, Note_on_c, 0, 74, 76
2, 201116, Note_on_c, 0, 74, 0
2, 201120, Note_on_c, 0, 75, 75
2, 201212, Note_on_c, 0, 75, 0
2, 201216, Note_on_c, 0, 77, 73
2, 201308, Note_on_c, 0, 77, 0
2, 201312, Note_on_c, 0, 79, 72
2, 201404, Note_on_c, 0, 79, 0
2, 201408, Note_on_c, 0, 80, 70
2, 201500, Note_on_c, 0, 80, 0
2, 201504, Note_on_c, 0, 77, 73
2, 201596, Note_on_c, 0, 77, 0
2, 201600, Note_on_c, 0, 79, 71
2, 201692, Note_on_c, 0, 79, 0
2, 201696, Note_on_c, 0, 75, 74
2, 201788, Note_on_c, 0, 75, 0
2, 201792, Note_on_c, 0, 74, 75
2, 201884, Note_on_c, 0, 74, 0
2, 201888, Note_on_c, 0, 75, 74
2, 201980, Note_on_c, 0, 75, 0
2, 201984, Note_on_c, 0, 77, 72
2, 202076, Note_on_c, 0, 77, 0
2, 202080, Note_on_c, 0, 79, 71
2, 202172, Note_on_c, 0, 79, 0
2, 202176, Note_on_c, 0, 80, 70
2, 202268, Note_on_c, 0, 80, 0
2, 202272, Note_on_c, 0, 77, 72
2, 202364, Note_on_c, 0, 77, 0
2, 202368, Note_on_c, 0, 75, 74
2, 202460, Note_on_c, 0, 75, 0
2, 202464, Note_on_c, 0, 77, 72
2, 202556, Note_on_c, 0, 77, 0
2, 202560, Note_on_c, 0, 79, 71
2, 202652, Note_on_c, 0, 79, 0
2, 202656, Note_on_c, 0, 80, 69
2, 202748, Note_on_c, 0, 80, 0
2, 202752, Note_on_c, 0, 82, 68
2, 202844, Note_on_c, 0, 82, 0
2, 202848, Note_on_c, 0, 79, 71
2, 202940, Note_on_c, 0, 79, 0
2, 202944, Note_on_c, 0, 75, 74
2, 203036, Note_on_c, 0, 75, 0
2, 203040, Note_on_c, 0, 70, 78
2, 203132, Note_on_c, 0, 70, 0
2, 203136, Note_on_c, 0, 67, 80
2, 203228, Note_on_c, 0, 67, 0
2, 203232, Note_on_c, 0, 63, 83
2, 203324, Note_on_c, 0, 63, 0
2, 203328, Note_on_c, 0, 65, 82
2, 203420, Note_on_c, 0, 65, 0
2, 203424, Note_on_c, 0, 68, 79
2, 203516, Note_on_c, 0, 68, 0
2, 203520, Note_on_c, 0, 72, 76
2, 203612, Note_on_c, 0, 72, 0
2, 203616, Note_on_c, 0, 77, 71
2, 203708, Note_on_c, 0, 77, 0
2, 203712, Note_on_c, 0, 80, 68
2, 203804, Note_on_c, 0, 80, 0
2, 203808, Note_on_c, 0, 84, 65
2, 203900, Note_on_c, 0, 84, 0
2, 203904, Note_on_c, 0, 70, 90
2, 203996, Note_on_c, 0, 70, 0
2, 204000, Note_on_c, 0, 75, 88
2, 204092, Note_on_c, 0, 75, 0
2, 204096, Note_on_c, 0, 79, 85
2, 204188, Note_on_c, 0, 79, 0
2, 204192, Note_on_c, 0, 82, 81
2, 204284, Note_on_c, 0, 82, 0
2, 204288, Note_on_c, 0, 79, 85
2, 204380, Note_on_c, 0, 79, 0
2, 204384, Note_on_c, 0, 75, 88
2, 204476, Note_on_c, 0, 75, 0
2, 204480, Note_on_c, 0, 77, 85
2, 204524, Note_on_c, 0, 77, 0
2, 204528, Note_on_c, 0, 79, 86
2, 204572, Note_on_c, 0, 79, 0
2, 204576, Note_on_c, 0, 77, 85
2, 204620, Note_on_c, 0, 77, 0
2, 204624, Note_on_c, 0, 79, 86
2, 204668, Note_on_c, 0, 79, 0
2, 204672, Note_on_c, 0, 77, 85
2, 204716, Note_on_c, 0, 77, 0
2, 204720, Note_on_c, 0, 79, 86
2, 204764, Note_on_c, 0, 79, 0
2, 204768, Note_on_c, 0, 77, 85
2, 204812, Note_on_c, 0, 77, 0
2, 204816, Note_on_c, 0, 79, 86
2, 204860, Note_on_c, 0, 79, 0
2, 204864, Note_on_c, 0, 75, 88
2, 204956, Note_on_c, 0, 75, 0
2, 204960, Note_on_c, 0, 77, 86
2, 205052, Note_on_c, 0, 77, 0
2, 205056, Note_on_c, 0, 75, 72
2, 205438, Note_on_c, 0, 75, 0
2, 207168, Note_on_c, 0, 70, 76
2, 207356, Note_on_c, 0, 70, 0
2, 207360, Note_on_c, 0, 79, 69
2, 207452, Note_on_c, 0, 79, 0
2, 207744, Note_on_c, 0, 79, 69
2, 207836, Note_on_c, 0, 79, 0
2, 207936, Note_on_c, 0, 80, 67
2, 208028, Note_on_c, 0, 80, 0
2, 208032, Note_on_c, 0, 79, 69
2, 208124, Note_on_c, 0, 79, 0
2, 208128, Note_on_c, 0, 78, 70
2, 208220, Note_on_c, 0, 78, 0
2, 208224, Note_on_c, 0, 79, 69
2, 208316, Note_on_c, 0, 79, 0
2, 208320, Note_on_c, 0, 80, 67
2, 208412, Note_on_c, 0, 80, 0
2, 208416, Note_on_c, 0, 79, 69
2, 208508, Note_on_c, 0, 79, 0
2, 208512, Note_on_c, 0, 77, 70
2, 209660, Note_on_c, 0, 77, 0
2, 209664, Note_on_c, 0, 75, 72
2, 210044, Note_on_c, 0, 75, 0
2, 211008, Note_on_c, 0, 53, 90
2, 211196, Note_on_c, 0, 53, 0
2, 211200, Note_on_c, 0, 54, 88
2, 211388, Note_on_c, 0, 54, 0
2, 211392, Note_on_c, 0, 55, 88
2, 211580, Note_on_c, 0, 55, 0
2, 211584, Note_on_c, 0, 56, 87
2, 211772, Note_on_c, 0, 56, 0
2, 211776, Note_on_c, 0, 57, 87
2, 211964, Note_on_c, 0, 57, 0
2, 211968, Note_on_c, 0, 58, 85
2, 212348, Note_on_c, 0, 58, 0
2, 212352, Note_on_c, 0, 56, 86
2, 212540, Note_on_c, 0, 56, 0
2, 212544, Note_on_c, 0, 54, 88
2, 212732, Note_on_c, 0, 54, 0
2, 212928, Note_on_c, 0, 53, 90
2, 213116, Note_on_c, 0, 53, 0
2, 213120, Note_on_c, 0, 51, 91
2, 213692, Note_on_c, 0, 51, 0
2, 213696, Note_on_c, 0, 52, 91
2, 214268, Note_on_c, 0, 52, 0
2, 214272, Note_on_c, 0, 53, 90
2, 214652, Note_on_c, 0, 53, 0
2, 215616, Note_on_c, 0, 77, 75
2, 215708, Note_on_c, 0, 77, 0
2, 215808, Note_on_c, 0, 77, 75
2, 215900, Note_on_c, 0, 77, 0
2, 216000, Note_on_c, 0, 77, 75
2, 216188, Note_on_c, 0, 77, 0
2, 216192, Note_on_c, 0, 76, 75
2, 216380, Note_on_c, 0, 76, 0
2, 216384, Note_on_c, 0, 75, 75
2, 216572, Note_on_c, 0, 75, 0
2, 216576, Note_on_c, 0, 74, 75
2, 217148, Note_on_c, 0, 74, 0
2, 217152, Note_on_c, 0, 77, 75
2, 217196, Note_on_c, 0, 77, 0
2, 217200, Note_on_c, 0, 75, 75
2, 217342, Note_on_c, 0, 75, 0
2, 217344, Note_on_c, 0, 74, 75
2, 217532, Note_on_c, 0, 74, 0
2, 217536, Note_on_c, 0, 75, 75
2, 217724, Note_on_c, 0, 75, 0
2, 217728, Note_on_c, 0, 77, 75
2, 218684, Note_on_c, 0, 77, 0
2, 218688, Note_on_c, 0, 78, 75
2, 218876, Note_on_c, 0, 78, 0
2, 218880, Note_on_c, 0, 79, 75
2, 219068, Note_on_c, 0, 79, 0
2, 219072, Note_on_c, 0, 75, 75
2, 219260, Note_on_c, 0, 75, 0
2, 219264, Note_on_c, 0, 70, 75
2, 219452, Note_on_c, 0, 70, 0
2, 219456, Note_on_c, 0, 82, 75
2, 219644, Note_on_c, 0, 82, 0
2, 219648, Note_on_c, 0, 79, 75
2, 219836, Note_on_c, 0, 79, 0
2, 219840, Note_on_c, 0, 75, 75
2, 220028, Note_on_c, 0, 75, 0
2, 220032, Note_on_c, 0, 77, 75
2, 220412, Note_on_c, 0, 77, 0
2, 220416, Note_on_c, 0, 74, 75
2, 220604, Note_on_c, 0, 74, 0
2, 220608, Note_on_c, 0, 70, 75
2, 220988, Note_on_c, 0, 70, 0
2, 221184, Note_on_c, 0, 75, 75
2, 221276, Note_on_c, 0, 75, 0
2, 221280, Note_on_c, 0, 72, 76
2, 221372, Note_on_c, 0, 72, 0
2, 221376, Note_on_c, 0, 69, 77
2, 221468, Note_on_c, 0, 69, 0
2, 221472, Note_on_c, 0, 65, 81
2, 221564, Note_on_c, 0, 65, 0
2, 221568, Note_on_c, 0, 63, 82
2, 221660, Note_on_c, 0, 63, 0
2, 221664, Note_on_c, 0, 60, 86
2, 221756, Note_on_c, 0, 60, 0
2, 221760, Note_on_c, 0, 69, 77
2, 221852, Note_on_c, 0, 69, 0
2, 221856, Note_on_c, 0, 67, 78
2, 221948, Note_on_c, 0, 67, 0
2, 221952, Note_on_c, 0, 65, 81
2, 222044, Note_on_c, 0, 65, 0
2, 222048, Note_on_c, 0, 63, 82
2, 222140, Note_on_c, 0, 63, 0
2, 222144, Note_on_c, 0, 62, 85
2, 222236, Note_on_c, 0, 62, 0
2, 222240, Note_on_c, 0, 60, 86
2, 222332, Note_on_c, 0, 60, 0
2, 222336, Note_on_c, 0, 58, 88
2, 222428, Note_on_c, 0, 58, 0
2, 222432, Note_on_c, 0, 62, 85
2, 222524, Note_on_c, 0, 62, 0
2, 222528, Note_on_c, 0, 65, 81
2, 222620, Note_on_c, 0, 65, 0
2, 222624, Note_on_c, 0, 70, 76
2, 222716, Note_on_c, 0, 70, 0
2, 222720, Note_on_c, 0, 74, 73
2, 222812, Note_on_c, 0, 74, 0
2, 222816, Note_on_c, 0, 77, 70
2, 222908, Note_on_c, 0, 77, 0
2, 222912, Note_on_c, 0, 70, 76
2, 223004, Note_on_c, 0, 70, 0
2, 223008, Note_on_c, 0, 74, 73
2, 223100, Note_on_c, 0, 74, 0
2, 223104, Note_on_c, 0, 77, 66
2, 223196, Note_on_c, 0, 77, 0
2, 223200, Note_on_c, 0, 82, 70
2, 223292, Note_on_c, 0, 82, 0
2, 223296, Note_on_c, 0, 77, 70
2, 223388, Note_on_c, 0, 77, 0
2, 223392, Note_on_c, 0, 74, 73
2, 223484, Note_on_c, 0, 74, 0
2, 223488, Note_on_c, 0, 71, 76
2, 223676, Note_on_c, 0, 71, 0
2, 223680, Note_on_c, 0, 72, 75
2, 223868, Note_on_c, 0, 72, 0
2, 223872, Note_on_c, 0, 74, 73
2, 224060, Note_on_c, 0, 74, 0
2, 224064, Note_on_c, 0, 75, 72
2, 224252, Note_on_c, 0, 75, 0
2, 224256, Note_on_c, 0, 77, 70
2, 224444, Note_on_c, 0, 77, 0
2, 224448, Note_on_c, 0, 79, 69
2, 224636, Note_on_c, 0, 79, 0
2, 224640, Note_on_c, 0, 74, 73
2, 225020, Note_on_c, 0, 74, 0
2, 225024, Note_on_c, 0, 75, 72
2, 225116, Note_on_c, 0, 75, 0
2, 225120, Note_on_c, 0, 74, 73
2, 225212, Note_on_c, 0, 74, 0
2, 225216, Note_on_c, 0, 72, 75
2, 225596, Note_on_c, 0, 72, 0
2, 226944, Note_on_c, 0, 58, 88
2, 227516, Note_on_c, 0, 58, 0
2, 227520, Note_on_c, 0, 61, 85
2, 227566, Note_on_c, 0, 61, 0
2, 227568, Note_on_c, 0, 60, 86
2, 227710, Note_on_c, 0, 60, 0
2, 227712, Note_on_c, 0, 58, 88
2, 227900, Note_on_c, 0, 58, 0
2, 227904, Note_on_c, 0, 60, 86
2, 228092, Note_on_c, 0, 60, 0
2, 228096, Note_on_c, 0, 61, 85
2, 228668, Note_on_c, 0, 61, 0
2, 228672, Note_on_c, 0, 63, 82
2, 229052, Note_on_c, 0, 63, 0
2, 229056, Note_on_c, 0, 64, 82
2, 229244, Note_on_c, 0, 64, 0
2, 229248, Note_on_c, 0, 65, 81
2, 229628, Note_on_c, 0, 65, 0
2, 230400, Note_on_c, 0, 77, 70
2, 230972, Note_on_c, 0, 77, 0
2, 230976, Note_on_c, 0, 80, 67
2, 231020, Note_on_c, 0, 80, 0
2, 231024, Note_on_c, 0, 78, 69
2, 231166, Note_on_c, 0, 78, 0
2, 231168, Note_on_c, 0, 77, 70
2, 231356, Note_on_c, 0, 77, 0
2, 231360, Note_on_c, 0, 78, 69
2, 231548, Note_on_c, 0, 78, 0
2, 231552, Note_on_c, 0, 80, 67
2, 232988, Note_on_c, 0, 80, 0
2, 232992, Note_on_c, 0, 82, 66
2, 233084, Note_on_c, 0, 82, 0
2, 233088, Note_on_c, 0, 80, 67
2, 233276, Note_on_c, 0, 80, 0
2, 233280, Note_on_c, 0, 78, 69
2, 233660, Note_on_c, 0, 78, 0
2, 233664, Note_on_c, 0, 77, 70
2, 233852, Note_on_c, 0, 77, 0
2, 233856, Note_on_c, 0, 75, 72
2, 234236, Note_on_c, 0, 75, 0
2, 236160, Note_on_c, 0, 51, 81
2, 236732, Note_on_c, 0, 51, 0
2, 236736, Note_on_c, 0, 54, 80
2, 236780, Note_on_c, 0, 54, 0
2, 236784, Note_on_c, 0, 53, 80
2, 236926, Note_on_c, 0, 53, 0
2, 236928, Note_on_c, 0, 51, 83
2, 237116, Note_on_c, 0, 51, 0
2, 237120, Note_on_c, 0, 53, 81
2, 237308, Note_on_c, 0, 53, 0
2, 237312, Note_on_c, 0, 54, 80
2, 237884, Note_on_c, 0, 54, 0
2, 237888, Note_on_c, 0, 56, 78
2, 238268, Note_on_c, 0, 56, 0
2, 238272, Note_on_c, 0, 57, 78
2, 238460, Note_on_c, 0, 57, 0
2, 238464, Note_on_c, 0, 58, 77
2, 238652, Note_on_c, 0, 58, 0
2, 238848, Note_on_c, 0, 70, 76
2, 239036, Note_on_c, 0, 70, 0
2, 239040, Note_on_c, 0, 82, 66
2, 239420, Note_on_c, 0, 82, 0
2, 239424, Note_on_c, 0, 80, 67
2, 239612, Note_on_c, 0, 80, 0
2, 239616, Note_on_c, 0, 78, 69
2, 239708, Note_on_c, 0, 78, 0
2, 239712, Note_on_c, 0, 80, 67
2, 239804, Note_on_c, 0, 80, 0
2, 239808, Note_on_c, 0, 82, 66
2, 239900, Note_on_c, 0, 82, 0
2, 239904, Note_on_c, 0, 80, 67
2, 239996, Note_on_c, 0, 80, 0
2, 240000, Note_on_c, 0, 78, 69
2, 240092, Note_on_c, 0, 78, 0
2, 240096, Note_on_c, 0, 77, 70
2, 240188, Note_on_c, 0, 77, 0
2, 240192, Note_on_c, 0, 75, 72
2, 240284, Note_on_c, 0, 75, 0
2, 240288, Note_on_c, 0, 77, 70
2, 240380, Note_on_c, 0, 77, 0
2, 240384, Note_on_c, 0, 78, 69
2, 240476, Note_on_c, 0, 78, 0
2, 240480, Note_on_c, 0, 77, 70
2, 240572, Note_on_c, 0, 77, 0
2, 240576, Note_on_c, 0, 75, 72
2, 240668, Note_on_c, 0, 75, 0
2, 240672, Note_on_c, 0, 73, 73
2, 240764, Note_on_c, 0, 73, 0
2, 240768, Note_on_c, 0, 72, 75
2, 240860, Note_on_c, 0, 72, 0
2, 240864, Note_on_c, 0, 73, 73
2, 240956, Note_on_c, 0, 73, 0
2, 240960, Note_on_c, 0, 75, 72
2, 241052, Note_on_c, 0, 75, 0
2, 241056, Note_on_c, 0, 77, 70
2, 241148, Note_on_c, 0, 77, 0
2, 241152, Note_on_c, 0, 78, 69
2, 241244, Note_on_c, 0, 78, 0
2, 241248, Note_on_c, 0, 79, 69
2, 241340, Note_on_c, 0, 79, 0
2, 241344, Note_on_c, 0, 80, 67
2, 241532, Note_on_c, 0, 80, 0
2, 241536, Note_on_c, 0, 79, 69
2, 241724, Note_on_c, 0, 79, 0
2, 241728, Note_on_c, 0, 78, 69
2, 241916, Note_on_c, 0, 78, 0
2, 241920, Note_on_c, 0, 77, 70
2, 242012, Note_on_c, 0, 77, 0
2, 242016, Note_on_c, 0, 78, 69
2, 242108, Note_on_c, 0, 78, 0
2, 242112, Note_on_c, 0, 80, 67
2, 242204, Note_on_c, 0, 80, 0
2, 242208, Note_on_c, 0, 78, 69
2, 242300, Note_on_c, 0, 78, 0
2, 242304, Note_on_c, 0, 77, 70
2, 242396, Note_on_c, 0, 77, 0
2, 242400, Note_on_c, 0, 75, 72
2, 242492, Note_on_c, 0, 75, 0
2, 242496, Note_on_c, 0, 73, 73
2, 242588, Note_on_c, 0, 73, 0
2, 242592, Note_on_c, 0, 75, 72
2, 242684, Note_on_c, 0, 75, 0
2, 242688, Note_on_c, 0, 77, 70
2, 242780, Note_on_c, 0, 77, 0
2, 242784, Note_on_c, 0, 75, 72
2, 242876, Note_on_c, 0, 75, 0
2, 242880, Note_on_c, 0, 73, 73
2, 242972, Note_on_c, 0, 73, 0
2, 242976, Note_on_c, 0, 72, 75
2, 243068, Note_on_c, 0, 72, 0
2, 243072, Note_on_c, 0, 70, 76
2, 243164, Note_on_c, 0, 70, 0
2, 243168, Note_on_c, 0, 72, 75
2, 243260, Note_on_c, 0, 72, 0
2, 243264, Note_on_c, 0, 73, 73
2, 243356, Note_on_c, 0, 73, 0
2, 243360, Note_on_c, 0, 74, 73
2, 243452, Note_on_c, 0, 74, 0
2, 243456, Note_on_c, 0, 75, 72
2, 243548, Note_on_c, 0, 75, 0
2, 243552, Note_on_c, 0, 76, 72
2, 243644, Note_on_c, 0, 76, 0
2, 243648, Note_on_c, 0, 77, 70
2, 243836, Note_on_c, 0, 77, 0
2, 243840, Note_on_c, 0, 78, 69
2, 244028, Note_on_c, 0, 78, 0
2, 244032, Note_on_c, 0, 77, 70
2, 244220, Note_on_c, 0, 77, 0
2, 244224, Note_on_c, 0, 75, 72
2, 244316, Note_on_c, 0, 75, 0
2, 244320, Note_on_c, 0, 77, 70
2, 244412, Note_on_c, 0, 77, 0
2, 244416, Note_on_c, 0, 78, 69
2, 244508, Note_on_c, 0, 78, 0
2, 244512, Note_on_c, 0, 77, 70
2, 244604, Note_on_c, 0, 77, 0
2, 244608, Note_on_c, 0, 75, 72
2, 244700, Note_on_c, 0, 75, 0
2, 244704, Note_on_c, 0, 73, 73
2, 244796, Note_on_c, 0, 73, 0
2, 244800, Note_on_c, 0, 72, 75
2, 244892, Note_on_c, 0, 72, 0
2, 244896, Note_on_c, 0, 73, 73
2, 244988, Note_on_c, 0, 73, 0
2, 244992, Note_on_c, 0, 75, 72
2, 245084, Note_on_c, 0, 75, 0
2, 245088, Note_on_c, 0, 73, 73
2, 245180, Note_on_c, 0, 73, 0
2, 245184, Note_on_c, 0, 72, 75
2, 245276, Note_on_c, 0, 72, 0
2, 245280, Note_on_c, 0, 70, 76
2, 245372, Note_on_c, 0, 70, 0
2, 245376, Note_on_c, 0, 69, 78
2, 245468, Note_on_c, 0, 69, 0
2, 245472, Note_on_c, 0, 70, 76
2, 245564, Note_on_c, 0, 70, 0
2, 245568, Note_on_c, 0, 72, 75
2, 245660, Note_on_c, 0, 72, 0
2, 245664, Note_on_c, 0, 73, 73
2, 245756, Note_on_c, 0, 73, 0
2, 245760, Note_on_c, 0, 74, 73
2, 245852, Note_on_c, 0, 74, 0
2, 245856, Note_on_c, 0, 75, 72
2, 245948, Note_on_c, 0, 75, 0
2, 245952, Note_on_c, 0, 77, 70
2, 246140, Note_on_c, 0, 77, 0
2, 246144, Note_on_c, 0, 76, 72
2, 246332, Note_on_c, 0, 76, 0
2, 246336, Note_on_c, 0, 75, 72
2, 246524, Note_on_c, 0, 75, 0
2, 246528, Note_on_c, 0, 73, 73
2, 246908, Note_on_c, 0, 73, 0
2, 246912, Note_on_c, 0, 73, 73
2, 247100, Note_on_c, 0, 73, 0
2, 247104, Note_on_c, 0, 75, 72
2, 247148, Note_on_c, 0, 75, 0
2, 247152, Note_on_c, 0, 73, 73
2, 247294, Note_on_c, 0, 73, 0
2, 247296, Note_on_c, 0, 72, 75
2, 247484, Note_on_c, 0, 72, 0
2, 247488, Note_on_c, 0, 73, 73
2, 247676, Note_on_c, 0, 73, 0
2, 247680, Note_on_c, 0, 72, 75
2, 248060, Note_on_c, 0, 72, 0
2, 248064, Note_on_c, 0, 77, 70
2, 248252, Note_on_c, 0, 77, 0
2, 248256, Note_on_c, 0, 77, 70
2, 248540, Note_on_c, 0, 77, 0
2, 248544, Note_on_c, 0, 75, 72
2, 248636, Note_on_c, 0, 75, 0
2, 248640, Note_on_c, 0, 73, 73
2, 248732, Note_on_c, 0, 73, 0
2, 248736, Note_on_c, 0, 72, 75
2, 248828, Note_on_c, 0, 72, 0
2, 248832, Note_on_c, 0, 70, 76
2, 249212, Note_on_c, 0, 70, 0
2, 249216, Note_on_c, 0, 70, 76
2, 249404, Note_on_c, 0, 70, 0
2, 249408, Note_on_c, 0, 72, 75
2, 249452, Note_on_c, 0, 72, 0
2, 249456, Note_on_c, 0, 70, 76
2, 249598, Note_on_c, 0, 70, 0
2, 249600, Note_on_c, 0, 69, 78
2, 249788, Note_on_c, 0, 69, 0
2, 249792, Note_on_c, 0, 70, 76
2, 249980, Note_on_c, 0, 70, 0
2, 249984, Note_on_c, 0, 69, 78
2, 250364, Note_on_c, 0, 69, 0
2, 250368, Note_on_c, 0, 72, 75
2, 250556, Note_on_c, 0, 72, 0
2, 250560, Note_on_c, 0, 65, 81
2, 250940, Note_on_c, 0, 65, 0
2, 253440, Note_on_c, 0, 70, 76
2, 253820, Note_on_c, 0, 70, 0
2, 253824, Note_on_c, 0, 70, 76
2, 254012, Note_on_c, 0, 70, 0
2, 254016, Note_on_c, 0, 72, 75
2, 254060, Note_on_c, 0, 72, 0
2, 254064, Note_on_c, 0, 70, 76
2, 254206, Note_on_c, 0, 70, 0
2, 254208, Note_on_c, 0, 68, 78
2, 254396, Note_on_c, 0, 68, 0
2, 254400, Note_on_c, 0, 70, 76
2, 254588, Note_on_c, 0, 70, 0
2, 254592, Note_on_c, 0, 68, 78
2, 254972, Note_on_c, 0, 68, 0
2, 254976, Note_on_c, 0, 73, 73
2, 255164, Note_on_c, 0, 73, 0
2, 255168, Note_on_c, 0, 73, 73
2, 255356, Note_on_c, 0, 73, 0
2, 255744, Note_on_c, 0, 51, 86
2, 256124, Note_on_c, 0, 51, 0
2, 256128, Note_on_c, 0, 54, 83
2, 256316, Note_on_c, 0, 54, 0
2, 256320, Note_on_c, 0, 59, 79
2, 256700, Note_on_c, 0, 59, 0
2, 256704, Note_on_c, 0, 51, 85
2, 256892, Note_on_c, 0, 51, 0
2, 256896, Note_on_c, 0, 50, 85
2, 257276, Note_on_c, 0, 50, 0
2, 257280, Note_on_c, 0, 53, 83
2, 257468, Note_on_c, 0, 53, 0
2, 257472, Note_on_c, 0, 58, 82
2, 257852, Note_on_c, 0, 58, 0
2, 257856, Note_on_c, 0, 61, 79
2, 258044, Note_on_c, 0, 61, 0
2, 258048, Note_on_c, 0, 60, 78
2, 258236, Note_on_c, 0, 60, 0
2, 258624, Note_on_c, 0, 82, 81
2, 259196, Note_on_c, 0, 82, 0
2, 259200, Note_on_c, 0, 82, 81
2, 259292, Note_on_c, 0, 82, 0
2, 259296, Note_on_c, 0, 81, 82
2, 259388, Note_on_c, 0, 81, 0
2, 259392, Note_on_c, 0, 79, 85
2, 259436, Note_on_c, 0, 79, 0
2, 259488, Note_on_c, 0, 77, 86
2, 259532, Note_on_c, 0, 77, 0
2, 259584, Note_on_c, 0, 76, 88
2, 259628, Note_on_c, 0, 76, 0
2, 259680, Note_on_c, 0, 74, 89
2, 259724, Note_on_c, 0, 74, 0
2, 259776, Note_on_c, 0, 72, 91
2, 259868, Note_on_c, 0, 72, 0
2, 259872, Note_on_c, 0, 74, 89
2, 259964, Note_on_c, 0, 74, 0
2, 259968, Note_on_c, 0, 72, 91
2, 260012, Note_on_c, 0, 72, 0
2, 260064, Note_on_c, 0, 70, 92
2, 260108, Note_on_c, 0, 70, 0
2, 260160, Note_on_c, 0, 69, 94
2, 260204, Note_on_c, 0, 69, 0
2, 260256, Note_on_c, 0, 67, 95
2, 260300, Note_on_c, 0, 67, 0
2, 260352, Note_on_c, 0, 65, 97
2, 260444, Note_on_c, 0, 65, 0
2, 260448, Note_on_c, 0, 67, 95
2, 260540, Note_on_c, 0, 67, 0
2, 260544, Note_on_c, 0, 69, 94
2, 260636, Note_on_c, 0, 69, 0
2, 260640, Note_on_c, 0, 70, 92
2, 260732, Note_on_c, 0, 70, 0
2, 260736, Note_on_c, 0, 72, 91
2, 260828, Note_on_c, 0, 72, 0
2, 260832, Note_on_c, 0, 74, 89
2, 260924, Note_on_c, 0, 74, 0
2, 260928, Note_on_c, 0, 76, 88
2, 261020, Note_on_c, 0, 76, 0
2, 261024, Note_on_c, 0, 77, 86
2, 261116, Note_on_c, 0, 77, 0
2, 261120, Note_on_c, 0, 79, 85
2, 261212, Note_on_c, 0, 79, 0
2, 261216, Note_on_c, 0, 81, 82
2, 261308, Note_on_c, 0, 81, 0
2, 261312, Note_on_c, 0, 82, 81
2, 261404, Note_on_c, 0, 82, 0
2, 261408, Note_on_c, 0, 84, 79
2, 261500, Note_on_c, 0, 84, 0
2, 261504, Note_on_c, 0, 83, 81
2, 261596, Note_on_c, 0, 83, 0
2, 261600, Note_on_c, 0, 82, 81
2, 261692, Note_on_c, 0, 82, 0
2, 261696, Note_on_c, 0, 81, 82
2, 261788, Note_on_c, 0, 81, 0
2, 261792, Note_on_c, 0, 79, 85
2, 261884, Note_on_c, 0, 79, 0
2, 261888, Note_on_c, 0, 77, 86
2, 261980, Note_on_c, 0, 77, 0
2, 261984, Note_on_c, 0, 76, 88
2, 262076, Note_on_c, 0, 76, 0
2, 262080, Note_on_c, 0, 74, 89
2, 262172, Note_on_c, 0, 74, 0
2, 262176, Note_on_c, 0, 72, 91
2, 262268, Note_on_c, 0, 72, 0
2, 262272, Note_on_c, 0, 70, 92
2, 262364, Note_on_c, 0, 70, 0
2, 262368, Note_on_c, 0, 69, 94
2, 262460, Note_on_c, 0, 69, 0
2, 262464, Note_on_c, 0, 70, 92
2, 262556, Note_on_c, 0, 70, 0
2, 262560, Note_on_c, 0, 67, 95
2, 262652, Note_on_c, 0, 67, 0
2, 262656, Note_on_c, 0, 65, 97
2, 262748, Note_on_c, 0, 65, 0
2, 262752, Note_on_c, 0, 67, 95
2, 262844, Note_on_c, 0, 67, 0
2, 262848, Note_on_c, 0, 69, 94
2, 262940, Note_on_c, 0, 69, 0
2, 262944, Note_on_c, 0, 70, 92
2, 263036, Note_on_c, 0, 70, 0
2, 263040, Note_on_c, 0, 72, 91
2, 263132, Note_on_c, 0, 72, 0
2, 263136, Note_on_c, 0, 74, 89
2, 263228, Note_on_c, 0, 74, 0
2, 263232, Note_on_c, 0, 76, 88
2, 263324, Note_on_c, 0, 76, 0
2, 263328, Note_on_c, 0, 77, 86
2, 263420, Note_on_c, 0, 77, 0
2, 263424, Note_on_c, 0, 79, 85
2, 263516, Note_on_c, 0, 79, 0
2, 263520, Note_on_c, 0, 81, 82
2, 263612, Note_on_c, 0, 81, 0
2, 263616, Note_on_c, 0, 82, 81
2, 263708, Note_on_c, 0, 82, 0
2, 263712, Note_on_c, 0, 84, 79
2, 263804, Note_on_c, 0, 84, 0
2, 263808, Note_on_c, 0, 83, 81
2, 263900, Note_on_c, 0, 83, 0
2, 263904, Note_on_c, 0, 82, 81
2, 263996, Note_on_c, 0, 82, 0
2, 264000, Note_on_c, 0, 81, 82
2, 264092, Note_on_c, 0, 81, 0
2, 264096, Note_on_c, 0, 79, 85
2, 264188, Note_on_c, 0, 79, 0
2, 264192, Note_on_c, 0, 77, 86
2, 264284, Note_on_c, 0, 77, 0
2, 264288, Note_on_c, 0, 76, 88
2, 264380, Note_on_c, 0, 76, 0
2, 264384, Note_on_c, 0, 74, 89
2, 264476, Note_on_c, 0, 74, 0
2, 264480, Note_on_c, 0, 72, 91
2, 264572, Note_on_c, 0, 72, 0
2, 264576, Note_on_c, 0, 70, 92
2, 264668, Note_on_c, 0, 70, 0
2, 264672, Note_on_c, 0, 69, 94
2, 264764, Note_on_c, 0, 69, 0
2, 264768, Note_on_c, 0, 70, 92
2, 264860, Note_on_c, 0, 70, 0
2, 264864, Note_on_c, 0, 67, 95
2, 264956, Note_on_c, 0, 67, 0
2, 264960, Note_on_c, 0, 65, 97
2, 265340, Note_on_c, 0, 65, 0
2, 267456, Note_on_c, 0, 77, 70
2, 267644, Note_on_c, 0, 77, 0
2, 267648, Note_on_c, 0, 75, 72
2, 267836, Note_on_c, 0, 75, 0
2, 267840, Note_on_c, 0, 73, 73
2, 268028, Note_on_c, 0, 73, 0
2, 268032, Note_on_c, 0, 72, 75
2, 268220, Note_on_c, 0, 72, 0
2, 268224, Note_on_c, 0, 70, 76
2, 268412, Note_on_c, 0, 70, 0
2, 268416, Note_on_c, 0, 69, 78
2, 268796, Note_on_c, 0, 69, 0
2, 268800, Note_on_c, 0, 69, 78
2, 268988, Note_on_c, 0, 69, 0
2, 268992, Note_on_c, 0, 72, 75
2, 269036, Note_on_c, 0, 72, 0
2, 269040, Note_on_c, 0, 70, 76
2, 269132, Note_on_c, 0, 70, 0
2, 269184, Note_on_c, 0, 69, 78
2, 269276, Note_on_c, 0, 69, 0
2, 269376, Note_on_c, 0, 70, 76
2, 269468, Note_on_c, 0, 70, 0
2, 269568, Note_on_c, 0, 72, 75
2, 269948, Note_on_c, 0, 72, 0
2, 272064, Note_on_c, 0, 65, 81
2, 272252, Note_on_c, 0, 65, 0
2, 272256, Note_on_c, 0, 63, 82
2, 272444, Note_on_c, 0, 63, 0
2, 272448, Note_on_c, 0, 61, 85
2, 272636, Note_on_c, 0, 61, 0
2, 272640, Note_on_c, 0, 60, 86
2, 272828, Note_on_c, 0, 60, 0
2, 272832, Note_on_c, 0, 58, 88
2, 273020, Note_on_c, 0, 58, 0
2, 273024, Note_on_c, 0, 70, 76
2, 273596, Note_on_c, 0, 70, 0
2, 273600, Note_on_c, 0, 64, 82
2, 274172, Note_on_c, 0, 64, 0
2, 274176, Note_on_c, 0, 65, 81
2, 274364, Note_on_c, 0, 65, 0
2, 274752, Note_on_c, 0, 76, 72
2, 274844, Note_on_c, 0, 76, 0
2, 274848, Note_on_c, 0, 77, 70
2, 274940, Note_on_c, 0, 77, 0
2, 274944, Note_on_c, 0, 78, 69
2, 275036, Note_on_c, 0, 78, 0
2, 275040, Note_on_c, 0, 79, 69
2, 275132, Note_on_c, 0, 79, 0
2, 275136, Note_on_c, 0, 80, 67
2, 275228, Note_on_c, 0, 80, 0
2, 275232, Note_on_c, 0, 81, 67
2, 275324, Note_on_c, 0, 81, 0
2, 275328, Note_on_c, 0, 82, 66
2, 275516, Note_on_c, 0, 82, 0
2, 277056, Note_on_c, 0, 64, 82
2, 277148, Note_on_c, 0, 64, 0
2, 277152, Note_on_c, 0, 65, 81
2, 277244, Note_on_c, 0, 65, 0
2, 277248, Note_on_c, 0, 66, 79
2, 277340, Note_on_c, 0, 66, 0
2, 277344, Note_on_c, 0, 67, 79
2, 277436, Note_on_c, 0, 67, 0
2, 277440, Note_on_c, 0, 68, 78
2, 277532, Note_on_c, 0, 68, 0
2, 277536, Note_on_c, 0, 69, 78
2, 277628, Note_on_c, 0, 69, 0
2, 277632, Note_on_c, 0, 70, 76
2, 277820, Note_on_c, 0, 70, 0
2, 279360, Note_on_c, 0, 52, 94
2, 279452, Note_on_c, 0, 52, 0
2, 279456, Note_on_c, 0, 53, 92
2, 279548, Note_on_c, 0, 53, 0
2, 279552, Note_on_c, 0, 54, 91
2, 279644, Note_on_c, 0, 54, 0
2, 279648, Note_on_c, 0, 55, 91
2, 279740, Note_on_c, 0, 55, 0
2, 279744, Note_on_c, 0, 56, 89
2, 279836, Note_on_c, 0, 56, 0
2, 279840, Note_on_c, 0, 57, 89
2, 279932, Note_on_c, 0, 57, 0
2, 279936, Note_on_c, 0, 58, 91
2, 280508, Note_on_c, 0, 58, 0
2, 280512, Note_on_c, 0, 70, 82
2, 281084, Note_on_c, 0, 70, 0
2, 281088, Note_on_c, 0, 85, 72
2, 281660, Note_on_c, 0, 85, 0
2, 281664, Note_on_c, 0, 76, 85
2, 282236, Note_on_c, 0, 76, 0
2, 282240, Note_on_c, 0, 77, 72
2, 284732, Note_on_c, 0, 77, 0
2, 284928, Note_on_c, 0, 77, 73
2, 285020, Note_on_c, 0, 77, 0
2, 285120, Note_on_c, 0, 77, 73
2, 285212, Note_on_c, 0, 77, 0
2, 285312, Note_on_c, 0, 76, 73
2, 285404, Note_on_c, 0, 76, 0
2, 285408, Note_on_c, 0, 77, 73
2, 285500, Note_on_c, 0, 77, 0
2, 285504, Note_on_c, 0, 79, 69
2, 285596, Note_on_c, 0, 79, 0
2, 285600, Note_on_c, 0, 77, 70
2, 285692, Note_on_c, 0, 77, 0
2, 285696, Note_on_c, 0, 75, 72
2, 286268, Note_on_c, 0, 75, 0
2, 286272, Note_on_c, 0, 74, 73
2, 286460, Note_on_c, 0, 74, 0
2, 286656, Note_on_c, 0, 82, 66
2, 286748, Note_on_c, 0, 82, 0
2, 286752, Note_on_c, 0, 81, 67
2, 286844, Note_on_c, 0, 81, 0
2, 286848, Note_on_c, 0, 79, 69
2, 287036, Note_on_c, 0, 79, 0
2, 287040, Note_on_c, 0, 79, 69
2, 287228, Note_on_c, 0, 79, 0
2, 287232, Note_on_c, 0, 79, 69
2, 287324, Note_on_c, 0, 79, 0
2, 287328, Note_on_c, 0, 77, 70
2, 287420, Note_on_c, 0, 77, 0
2, 287424, Note_on_c, 0, 75, 72
2, 287612, Note_on_c, 0, 75, 0
2, 287616, Note_on_c, 0, 75, 72
2, 287708, Note_on_c, 0, 75, 0
2, 287712, Note_on_c, 0, 74, 73
2, 287804, Note_on_c, 0, 74, 0
2, 287808, Note_on_c, 0, 72, 75
2, 287900, Note_on_c, 0, 72, 0
2, 287904, Note_on_c, 0, 70, 76
2, 287996, Note_on_c, 0, 70, 0
2, 288000, Note_on_c, 0, 69, 78
2, 288188, Note_on_c, 0, 69, 0
2, 288192, Note_on_c, 0, 70, 76
2, 288380, Note_on_c, 0, 70, 0
2, 288384, Note_on_c, 0, 71, 76
2, 288572, Note_on_c, 0, 71, 0
2, 288576, Note_on_c, 0, 72, 75
2, 288764, Note_on_c, 0, 72, 0
2, 288960, Note_on_c, 0, 74, 73
2, 289052, Note_on_c, 0, 74, 0
2, 289056, Note_on_c, 0, 75, 72
2, 289148, Note_on_c, 0, 75, 0
2, 289152, Note_on_c, 0, 77, 70
2, 289244, Note_on_c, 0, 77, 0
2, 289344, Note_on_c, 0, 77, 70
2, 289436, Note_on_c, 0, 77, 0
2, 289536, Note_on_c, 0, 77, 70
2, 289628, Note_on_c, 0, 77, 0
2, 289728, Note_on_c, 0, 79, 69
2, 289820, Note_on_c, 0, 79, 0
2, 289824, Note_on_c, 0, 77, 70
2, 289916, Note_on_c, 0, 77, 0
2, 289920, Note_on_c, 0, 76, 72
2, 290012, Note_on_c, 0, 76, 0
2, 290016, Note_on_c, 0, 77, 70
2, 290108, Note_on_c, 0, 77, 0
2, 290112, Note_on_c, 0, 79, 69
2, 290204, Note_on_c, 0, 79, 0
2, 290208, Note_on_c, 0, 77, 70
2, 290300, Note_on_c, 0, 77, 0
2, 290304, Note_on_c, 0, 81, 67
2, 290876, Note_on_c, 0, 81, 0
2, 290880, Note_on_c, 0, 82, 66
2, 291068, Note_on_c, 0, 82, 0
2, 291264, Note_on_c, 0, 82, 66
2, 291356, Note_on_c, 0, 82, 0
2, 291360, Note_on_c, 0, 81, 67
2, 291452, Note_on_c, 0, 81, 0
2, 291456, Note_on_c, 0, 79, 69
2, 291500, Note_on_c, 0, 79, 0
2, 291552, Note_on_c, 0, 77, 70
2, 291596, Note_on_c, 0, 77, 0
2, 291648, Note_on_c, 0, 75, 72
2, 291692, Note_on_c, 0, 75, 0
2, 291744, Note_on_c, 0, 74, 73
2, 291788, Note_on_c, 0, 74, 0
2, 291840, Note_on_c, 0, 72, 75
2, 291884, Note_on_c, 0, 72, 0
2, 291936, Note_on_c, 0, 70, 76
2, 291980, Note_on_c, 0, 70, 0
2, 292032, Note_on_c, 0, 69, 78
2, 292076, Note_on_c, 0, 69, 0
2, 292128, Note_on_c, 0, 70, 76
2, 292172, Note_on_c, 0, 70, 0
2, 292224, Note_on_c, 0, 72, 75
2, 292268, Note_on_c, 0, 72, 0
2, 292320, Note_on_c, 0, 74, 73
2, 292364, Note_on_c, 0, 74, 0
2, 292416, Note_on_c, 0, 75, 72
2, 292460, Note_on_c, 0, 75, 0
2, 292512, Note_on_c, 0, 69, 78
2, 292556, Note_on_c, 0, 69, 0
2, 292608, Note_on_c, 0, 70, 76
2, 292988, Note_on_c, 0, 70, 0
2, 292992, Note_on_c, 0, 74, 73
2, 293180, Note_on_c, 0, 74, 0
2, 293184, Note_on_c, 0, 70, 76
2, 293564, Note_on_c, 0, 70, 0
2, 302784, Note_on_c, 0, 65, 81
2, 302876, Note_on_c, 0, 65, 0
2, 302880, Note_on_c, 0, 67, 79
2, 302972, Note_on_c, 0, 67, 0
2, 302976, Note_on_c, 0, 69, 78
2, 303068, Note_on_c, 0, 69, 0
2, 303072, Note_on_c, 0, 70, 76
2, 303164, Note_on_c, 0, 70, 0
2, 303168, Note_on_c, 0, 72, 75
2, 303260, Note_on_c, 0, 72, 0
2, 303264, Note_on_c, 0, 74, 73
2, 303356, Note_on_c, 0, 74, 0
2, 303360, Note_on_c, 0, 75, 72
2, 303452, Note_on_c, 0, 75, 0
2, 303456, Note_on_c, 0, 77, 70
2, 303548, Note_on_c, 0, 77, 0
2, 303552, Note_on_c, 0, 75, 72
2, 303644, Note_on_c, 0, 75, 0
2, 303648, Note_on_c, 0, 74, 73
2, 303740, Note_on_c, 0, 74, 0
2, 303744, Note_on_c, 0, 72, 75
2, 303836, Note_on_c, 0, 72, 0
2, 303840, Note_on_c, 0, 70, 76
2, 303932, Note_on_c, 0, 70, 0
2, 303936, Note_on_c, 0, 69, 78
2, 304028, Note_on_c, 0, 69, 0
2, 304032, Note_on_c, 0, 72, 75
2, 304124, Note_on_c, 0, 72, 0
2, 304128, Note_on_c, 0, 70, 76
2, 304220, Note_on_c, 0, 70, 0
2, 304224, Note_on_c, 0, 72, 75
2, 304316, Note_on_c, 0, 72, 0
2, 304320, Note_on_c, 0, 74, 73
2, 304412, Note_on_c, 0, 74, 0
2, 304416, Note_on_c, 0, 75, 72
2, 304508, Note_on_c, 0, 75, 0
2, 304512, Note_on_c, 0, 77, 70
2, 304604, Note_on_c, 0, 77, 0
2, 304608, Note_on_c, 0, 79, 69
2, 304700, Note_on_c, 0, 79, 0
2, 304704, Note_on_c, 0, 77, 70
2, 304892, Note_on_c, 0, 77, 0
2, 305088, Note_on_c, 0, 72, 75
2, 305180, Note_on_c, 0, 72, 0
2, 305184, Note_on_c, 0, 74, 73
2, 305276, Note_on_c, 0, 74, 0
2, 305280, Note_on_c, 0, 76, 72
2, 305372, Note_on_c, 0, 76, 0
2, 305376, Note_on_c, 0, 77, 70
2, 305468, Note_on_c, 0, 77, 0
2, 305472, Note_on_c, 0, 79, 69
2, 305564, Note_on_c, 0, 79, 0
2, 305568, Note_on_c, 0, 81, 67
2, 305660, Note_on_c, 0, 81, 0
2, 305664, Note_on_c, 0, 82, 66
2, 305756, Note_on_c, 0, 82, 0
2, 305760, Note_on_c, 0, 84, 64
2, 305852, Note_on_c, 0, 84, 0
2, 305856, Note_on_c, 0, 82, 66
2, 305948, Note_on_c, 0, 82, 0
2, 305952, Note_on_c, 0, 81, 67
2, 306044, Note_on_c, 0, 81, 0
2, 306048, Note_on_c, 0, 79, 69
2, 306140, Note_on_c, 0, 79, 0
2, 306144, Note_on_c, 0, 77, 70
2, 306236, Note_on_c, 0, 77, 0
2, 306240, Note_on_c, 0, 76, 72
2, 306332, Note_on_c, 0, 76, 0
2, 306336, Note_on_c, 0, 79, 69
2, 306428, Note_on_c, 0, 79, 0
2, 306432, Note_on_c, 0, 77, 70
2, 306524, Note_on_c, 0, 77, 0
2, 306528, Note_on_c, 0, 81, 67
2, 306620, Note_on_c, 0, 81, 0
2, 306624, Note_on_c, 0, 84, 64
2, 306668, Note_on_c, 0, 84, 0
2, 306720, Note_on_c, 0, 81, 67
2, 306764, Note_on_c, 0, 81, 0
2, 306816, Note_on_c, 0, 77, 70
2, 306860, Note_on_c, 0, 77, 0
2, 306912, Note_on_c, 0, 72, 75
2, 306956, Note_on_c, 0, 72, 0
2, 307008, Note_on_c, 0, 69, 78
2, 307100, Note_on_c, 0, 69, 0
2, 307104, Note_on_c, 0, 72, 75
2, 307196, Note_on_c, 0, 72, 0
2, 307200, Note_on_c, 0, 70, 76
2, 307292, Note_on_c, 0, 70, 0
2, 307296, Note_on_c, 0, 69, 78
2, 307388, Note_on_c, 0, 69, 0
2, 307392, Note_on_c, 0, 70, 76
2, 307484, Note_on_c, 0, 70, 0
2, 307488, Note_on_c, 0, 67, 79
2, 307580, Note_on_c, 0, 67, 0
2, 307584, Note_on_c, 0, 65, 81
2, 307676, Note_on_c, 0, 65, 0
2, 307680, Note_on_c, 0, 69, 78
2, 307772, Note_on_c, 0, 69, 0
2, 307776, Note_on_c, 0, 72, 75
2, 307820, Note_on_c, 0, 72, 0
2, 307872, Note_on_c, 0, 69, 78
2, 307916, Note_on_c, 0, 69, 0
2, 307968, Note_on_c, 0, 65, 81
2, 308012, Note_on_c, 0, 65, 0
2, 308064, Note_on_c, 0, 60, 86
2, 308108, Note_on_c, 0, 60, 0
2, 308160, Note_on_c, 0, 57, 89
2, 308252, Note_on_c, 0, 57, 0
2, 308256, Note_on_c, 0, 60, 86
2, 308348, Note_on_c, 0, 60, 0
2, 308352, Note_on_c, 0, 58, 88
2, 308444, Note_on_c, 0, 58, 0
2, 308448, Note_on_c, 0, 57, 89
2, 308540, Note_on_c, 0, 57, 0
2, 308544, Note_on_c, 0, 58, 88
2, 308636, Note_on_c, 0, 58, 0
2, 308640, Note_on_c, 0, 55, 91
2, 308732, Note_on_c, 0, 55, 0
2, 308736, Note_on_c, 0, 53, 92
2, 308828, Note_on_c, 0, 53, 0
2, 308832, Note_on_c, 0, 57, 89
2, 308924, Note_on_c, 0, 57, 0
2, 308928, Note_on_c, 0, 58, 88
2, 308972, Note_on_c, 0, 58, 0
2, 309024, Note_on_c, 0, 60, 86
2, 309068, Note_on_c, 0, 60, 0
2, 309120, Note_on_c, 0, 62, 85
2, 309164, Note_on_c, 0, 62, 0
2, 309216, Note_on_c, 0, 64, 82
2, 309260, Note_on_c, 0, 64, 0
2, 309312, Note_on_c, 0, 65, 81
2, 309404, Note_on_c, 0, 65, 0
2, 309408, Note_on_c, 0, 69, 78
2, 309500, Note_on_c, 0, 69, 0
2, 309504, Note_on_c, 0, 70, 76
2, 309548, Note_on_c, 0, 70, 0
2, 309600, Note_on_c, 0, 72, 75
2, 309644, Note_on_c, 0, 72, 0
2, 309696, Note_on_c, 0, 74, 73
2, 309740, Note_on_c, 0, 74, 0
2, 309792, Note_on_c, 0, 76, 72
2, 309836, Note_on_c, 0, 76, 0
2, 309888, Note_on_c, 0, 77, 70
2, 310460, Note_on_c, 0, 77, 0
2, 310464, Note_on_c, 0, 77, 70
2, 310844, Note_on_c, 0, 77, 0
2, 310848, Note_on_c, 0, 77, 70
2, 311036, Note_on_c, 0, 77, 0
2, 311040, Note_on_c, 0, 77, 70
2, 311132, Note_on_c, 0, 77, 0
2, 311424, Note_on_c, 0, 77, 70
2, 311516, Note_on_c, 0, 77, 0
2, 311616, Note_on_c, 0, 77, 70
2, 311804, Note_on_c, 0, 77, 0
2, 311808, Note_on_c, 0, 76, 72
2, 311900, Note_on_c, 0, 76, 0
2, 311904, Note_on_c, 0, 77, 70
2, 311996, Note_on_c, 0, 77, 0
2, 312000, Note_on_c, 0, 79, 69
2, 312092, Note_on_c, 0, 79, 0
2, 312096, Note_on_c, 0, 77, 70
2, 312188, Note_on_c, 0, 77, 0
2, 312192, Note_on_c, 0, 75, 72
2, 312764, Note_on_c, 0, 75, 0
2, 312768, Note_on_c, 0, 74, 73
2, 312956, Note_on_c, 0, 74, 0
2, 313152, Note_on_c, 0, 82, 66
2, 313244, Note_on_c, 0, 82, 0
2, 313248, Note_on_c, 0, 81, 67
2, 313340, Note_on_c, 0, 81, 0
2, 313344, Note_on_c, 0, 79, 69
2, 313436, Note_on_c, 0, 79, 0
2, 313536, Note_on_c, 0, 79, 69
2, 313628, Note_on_c, 0, 79, 0
2, 313728, Note_on_c, 0, 79, 69
2, 313820, Note_on_c, 0, 79, 0
2, 313824, Note_on_c, 0, 77, 70
2, 313916, Note_on_c, 0, 77, 0
2, 313920, Note_on_c, 0, 75, 72
2, 314012, Note_on_c, 0, 75, 0
2, 314112, Note_on_c, 0, 75, 72
2, 314204, Note_on_c, 0, 75, 0
2, 314208, Note_on_c, 0, 74, 73
2, 314300, Note_on_c, 0, 74, 0
2, 314304, Note_on_c, 0, 72, 75
2, 314396, Note_on_c, 0, 72, 0
2, 314400, Note_on_c, 0, 70, 76
2, 314492, Note_on_c, 0, 70, 0
2, 314496, Note_on_c, 0, 69, 78
2, 314684, Note_on_c, 0, 69, 0
2, 314688, Note_on_c, 0, 70, 76
2, 314876, Note_on_c, 0, 70, 0
2, 314880, Note_on_c, 0, 71, 76
2, 315068, Note_on_c, 0, 71, 0
2, 315072, Note_on_c, 0, 72, 75
2, 315260, Note_on_c, 0, 72, 0
2, 315456, Note_on_c, 0, 74, 73
2, 315548, Note_on_c, 0, 74, 0
2, 315552, Note_on_c, 0, 75, 72
2, 315644, Note_on_c, 0, 75, 0
2, 315648, Note_on_c, 0, 77, 70
2, 315740, Note_on_c, 0, 77, 0
2, 315840, Note_on_c, 0, 77, 70
2, 315932, Note_on_c, 0, 77, 0
2, 316032, Note_on_c, 0, 77, 70
2, 316124, Note_on_c, 0, 77, 0
2, 316224, Note_on_c, 0, 79, 69
2, 316316, Note_on_c, 0, 79, 0
2, 316320, Note_on_c, 0, 77, 70
2, 316412, Note_on_c, 0, 77, 0
2, 316416, Note_on_c, 0, 76, 72
2, 316508, Note_on_c, 0, 76, 0
2, 316512, Note_on_c, 0, 77, 70
2, 316604, Note_on_c, 0, 77, 0
2, 316608, Note_on_c, 0, 79, 69
2, 316700, Note_on_c, 0, 79, 0
2, 316704, Note_on_c, 0, 77, 70
2, 316796, Note_on_c, 0, 77, 0
2, 316800, Note_on_c, 0, 81, 67
2, 317372, Note_on_c, 0, 81, 0
2, 317376, Note_on_c, 0, 82, 66
2, 317564, Note_on_c, 0, 82, 0
2, 317760, Note_on_c, 0, 82, 66
2, 317854, Note_on_c, 0, 82, 0
2, 317856, Note_on_c, 0, 81, 67
2, 317950, Note_on_c, 0, 81, 0
2, 317952, Note_on_c, 0, 79, 69
2, 317996, Note_on_c, 0, 79, 0
2, 318048, Note_on_c, 0, 77, 70
2, 318092, Note_on_c, 0, 77, 0
2, 318144, Note_on_c, 0, 75, 72
2, 318188, Note_on_c, 0, 75, 0
2, 318240, Note_on_c, 0, 74, 73
2, 318284, Note_on_c, 0, 74, 0
2, 318336, Note_on_c, 0, 72, 75
2, 318380, Note_on_c, 0, 72, 0
2, 318432, Note_on_c, 0, 70, 76
2, 318476, Note_on_c, 0, 70, 0
2, 318528, Note_on_c, 0, 69, 78
2, 318572, Note_on_c, 0, 69, 0
2, 318624, Note_on_c, 0, 70, 76
2, 318668, Note_on_c, 0, 70, 0
2, 318720, Note_on_c, 0, 72, 75
2, 318764, Note_on_c, 0, 72, 0
2, 318816, Note_on_c, 0, 74, 73
2, 318860, Note_on_c, 0, 74, 0
2, 318912, Note_on_c, 0, 75, 72
2, 318956, Note_on_c, 0, 75, 0
2, 319008, Note_on_c, 0, 69, 78
2, 319052, Note_on_c, 0, 69, 0
2, 319104, Note_on_c, 0, 70, 76
2, 319484, Note_on_c, 0, 70, 0
2, 324672, Note_on_c, 0, 77, 70
2, 324860, Note_on_c, 0, 77, 0
2, 324864, Note_on_c, 0, 82, 66
2, 325052, Note_on_c, 0, 82, 0
2, 325056, Note_on_c, 0, 81, 67
2, 325244, Note_on_c, 0, 81, 0
2, 325248, Note_on_c, 0, 79, 69
2, 325436, Note_on_c, 0, 79, 0
2, 325440, Note_on_c, 0, 77, 70
2, 325628, Note_on_c, 0, 77, 0
2, 325632, Note_on_c, 0, 75, 72
2, 325820, Note_on_c, 0, 75, 0
2, 325824, Note_on_c, 0, 74, 73
2, 326012, Note_on_c, 0, 74, 0
2, 326016, Note_on_c, 0, 71, 76
2, 326204, Note_on_c, 0, 71, 0
2, 326208, Note_on_c, 0, 72, 75
2, 326396, Note_on_c, 0, 72, 0
2, 326400, Note_on_c, 0, 74, 73
2, 326588, Note_on_c, 0, 74, 0
2, 326592, Note_on_c, 0, 75, 72
2, 326780, Note_on_c, 0, 75, 0
2, 326784, Note_on_c, 0, 77, 70
2, 326972, Note_on_c, 0, 77, 0
2, 326976, Note_on_c, 0, 79, 69
2, 327164, Note_on_c, 0, 79, 0
2, 327168, Note_on_c, 0, 79, 69
2, 327260, Note_on_c, 0, 79, 0
2, 327264, Note_on_c, 0, 77, 70
2, 327356, Note_on_c, 0, 77, 0
2, 327360, Note_on_c, 0, 75, 72
2, 327452, Note_on_c, 0, 75, 0
2, 327456, Note_on_c, 0, 74, 73
2, 327548, Note_on_c, 0, 74, 0
2, 327552, Note_on_c, 0, 72, 75
2, 327644, Note_on_c, 0, 72, 0
2, 327648, Note_on_c, 0, 70, 76
2, 327740, Note_on_c, 0, 70, 0
2, 327744, Note_on_c, 0, 69, 78
2, 327836, Note_on_c, 0, 69, 0
2, 327840, Note_on_c, 0, 70, 76
2, 327932, Note_on_c, 0, 70, 0
2, 327936, Note_on_c, 0, 72, 75
2, 328028, Note_on_c, 0, 72, 0
2, 328032, Note_on_c, 0, 74, 73
2, 328124, Note_on_c, 0, 74, 0
2, 328128, Note_on_c, 0, 75, 72
2, 328220, Note_on_c, 0, 75, 0
2, 328224, Note_on_c, 0, 77, 70
2, 328316, Note_on_c, 0, 77, 0
2, 328320, Note_on_c, 0, 75, 72
2, 328892, Note_on_c, 0, 75, 0
2, 328896, Note_on_c, 0, 74, 73
2, 329084, Note_on_c, 0, 74, 0
2, 333024, Note_on_c, 0, 62, 85
2, 333068, Note_on_c, 0, 62, 0
2, 333120, Note_on_c, 0, 63, 82
2, 333164, Note_on_c, 0, 63, 0
2, 333216, Note_on_c, 0, 65, 81
2, 333260, Note_on_c, 0, 65, 0
2, 333296, Note_on_c, 0, 67, 79
2, 333340, Note_on_c, 0, 67, 0
2, 333408, Note_on_c, 0, 69, 78
2, 333452, Note_on_c, 0, 69, 0
2, 333504, Note_on_c, 0, 70, 76
2, 333548, Note_on_c, 0, 70, 0
2, 333600, Note_on_c, 0, 72, 75
2, 333644, Note_on_c, 0, 72, 0
2, 333696, Note_on_c, 0, 74, 73
2, 333740, Note_on_c, 0, 74, 0
2, 333792, Note_on_c, 0, 75, 72
2, 333836, Note_on_c, 0, 75, 0
2, 333888, Note_on_c, 0, 77, 70
2, 333932, Note_on_c, 0, 77, 0
2, 333984, Note_on_c, 0, 79, 69
2, 334028, Note_on_c, 0, 79, 0
2, 334080, Note_on_c, 0, 81, 67
2, 335228, Note_on_c, 0, 81, 0
2, 335232, Note_on_c, 0, 82, 66
2, 335612, Note_on_c, 0, 82, 0
2, 335616, Note_on_c, 0, 74, 73
2, 335804, Note_on_c, 0, 74, 0
2, 335808, Note_on_c, 0, 72, 75
2, 335996, Note_on_c, 0, 72, 0
2, 336000, Note_on_c, 0, 75, 72
2, 336188, Note_on_c, 0, 75, 0
2, 336192, Note_on_c, 0, 79, 69
2, 336380, Note_on_c, 0, 79, 0
2, 336384, Note_on_c, 0, 70, 76
2, 336764, Note_on_c, 0, 70, 0
2, 337632, Note_on_c, 0, 65, 81
2, 337676, Note_on_c, 0, 65, 0
2, 337728, Note_on_c, 0, 67, 79
2, 337772, Note_on_c, 0, 67, 0
2, 337824, Note_on_c, 0, 69, 78
2, 337868, Note_on_c, 0, 69, 0
2, 337920, Note_on_c, 0, 70, 76
2, 337964, Note_on_c, 0, 70, 0
2, 338016, Note_on_c, 0, 72, 75
2, 338060, Note_on_c, 0, 72, 0
2, 338112, Note_on_c, 0, 74, 73
2, 338156, Note_on_c, 0, 74, 0
2, 338208, Note_on_c, 0, 75, 72
2, 338252, Note_on_c, 0, 75, 0
2, 338304, Note_on_c, 0, 77, 70
2, 338348, Note_on_c, 0, 77, 0
2, 338400, Note_on_c, 0, 79, 69
2, 338444, Note_on_c, 0, 79, 0
2, 338496, Note_on_c, 0, 81, 67
2, 338540, Note_on_c, 0, 81, 0
2, 338592, Note_on_c, 0, 82, 66
2, 338636, Note_on_c, 0, 82, 0
2, 338688, Note_on_c, 0, 84, 64
2, 339644, Note_on_c, 0, 84, 0
2, 339648, Note_on_c, 0, 85, 64
2, 339836, Note_on_c, 0, 85, 0
2, 339840, Note_on_c, 0, 86, 63
2, 340028, Note_on_c, 0, 86, 0
2, 340032, Note_on_c, 0, 82, 66
2, 340220, Note_on_c, 0, 82, 0
2, 340224, Note_on_c, 0, 77, 70
2, 340412, Note_on_c, 0, 77, 0
2, 340416, Note_on_c, 0, 79, 69
2, 340508, Note_on_c, 0, 79, 0
2, 340512, Note_on_c, 0, 80, 67
2, 340604, Note_on_c, 0, 80, 0
2, 340608, Note_on_c, 0, 81, 67
2, 340700, Note_on_c, 0, 81, 0
2, 340704, Note_on_c, 0, 82, 66
2, 340796, Note_on_c, 0, 82, 0
2, 340800, Note_on_c, 0, 79, 69
2, 340892, Note_on_c, 0, 79, 0
2, 340896, Note_on_c, 0, 75, 72
2, 340988, Note_on_c, 0, 75, 0
2, 340992, Note_on_c, 0, 74, 73
2, 341084, Note_on_c, 0, 74, 0
2, 341088, Note_on_c, 0, 75, 72
2, 341180, Note_on_c, 0, 75, 0
2, 341184, Note_on_c, 0, 76, 72
2, 341276, Note_on_c, 0, 76, 0
2, 341280, Note_on_c, 0, 77, 70
2, 341372, Note_on_c, 0, 77, 0
2, 341376, Note_on_c, 0, 74, 73
2, 341468, Note_on_c, 0, 74, 0
2, 341472, Note_on_c, 0, 70, 76
2, 341564, Note_on_c, 0, 70, 0
2, 341568, Note_on_c, 0, 72, 75
2, 341612, Note_on_c, 0, 72, 0
2, 341616, Note_on_c, 0, 74, 73
2, 341660, Note_on_c, 0, 74, 0
2, 341664, Note_on_c, 0, 72, 75
2, 341708, Note_on_c, 0, 72, 0
2, 341712, Note_on_c, 0, 74, 73
2, 341756, Note_on_c, 0, 74, 0
2, 341760, Note_on_c, 0, 72, 75
2, 341804, Note_on_c, 0, 72, 0
2, 341808, Note_on_c, 0, 74, 73
2, 341852, Note_on_c, 0, 74, 0
2, 341856, Note_on_c, 0, 72, 75
2, 341900, Note_on_c, 0, 72, 0
2, 341904, Note_on_c, 0, 74, 73
2, 341948, Note_on_c, 0, 74, 0
2, 341952, Note_on_c, 0, 70, 76
2, 342044, Note_on_c, 0, 70, 0
2, 342048, Note_on_c, 0, 72, 75
2, 342140, Note_on_c, 0, 72, 0
2, 342144, Note_on_c, 0, 70, 76
2, 342524, Note_on_c, 0, 70, 0
2, 346752, Note_on_c, 0, 58, 88
2, 346844, Note_on_c, 0, 58, 0
2, 346848, Note_on_c, 0, 62, 85
2, 346940, Note_on_c, 0, 62, 0
2, 346944, Note_on_c, 0, 65, 81
2, 347036, Note_on_c, 0, 65, 0
2, 347040, Note_on_c, 0, 70, 76
2, 347132, Note_on_c, 0, 70, 0
2, 347136, Note_on_c, 0, 74, 73
2, 347324, Note_on_c, 0, 74, 0
2, 347328, Note_on_c, 0, 60, 86
2, 347420, Note_on_c, 0, 60, 0
2, 347424, Note_on_c, 0, 63, 82
2, 347516, Note_on_c, 0, 63, 0
2, 347520, Note_on_c, 0, 69, 78
2, 347612, Note_on_c, 0, 69, 0
2, 347616, Note_on_c, 0, 72, 75
2, 347708, Note_on_c, 0, 72, 0
2, 347712, Note_on_c, 0, 75, 72
2, 347900, Note_on_c, 0, 75, 0
2, 347904, Note_on_c, 0, 62, 85
2, 347996, Note_on_c, 0, 62, 0
2, 348000, Note_on_c, 0, 65, 81
2, 348092, Note_on_c, 0, 65, 0
2, 348096, Note_on_c, 0, 70, 76
2, 348188, Note_on_c, 0, 70, 0
2, 348192, Note_on_c, 0, 74, 73
2, 348284, Note_on_c, 0, 74, 0
2, 348288, Note_on_c, 0, 77, 70
2, 348476, Note_on_c, 0, 77, 0
2, 348480, Note_on_c, 0, 75, 72
2, 348572, Note_on_c, 0, 75, 0
2, 348576, Note_on_c, 0, 79, 69
2, 348668, Note_on_c, 0, 79, 0
2, 348672, Note_on_c, 0, 75, 72
2, 348764, Note_on_c, 0, 75, 0
2, 348768, Note_on_c, 0, 72, 75
2, 348860, Note_on_c, 0, 72, 0
2, 348864, Note_on_c, 0, 69, 78
2, 348956, Note_on_c, 0, 69, 0
2, 348960, Note_on_c, 0, 65, 81
2, 349052, Note_on_c, 0, 65, 0
2, 349056, Note_on_c, 0, 58, 88
2, 349148, Note_on_c, 0, 58, 0
2, 349152, Note_on_c, 0, 62, 85
2, 349244, Note_on_c, 0, 62, 0
2, 349248, Note_on_c, 0, 65, 81
2, 349340, Note_on_c, 0, 65, 0
2, 349344, Note_on_c, 0, 70, 76
2, 349436, Note_on_c, 0, 70, 0
2, 349440, Note_on_c, 0, 74, 73
2, 349628, Note_on_c, 0, 74, 0
2, 349632, Note_on_c, 0, 60, 86
2, 349724, Note_on_c, 0, 60, 0
2, 349728, Note_on_c, 0, 63, 82
2, 349820, Note_on_c, 0, 63, 0
2, 349824, Note_on_c, 0, 69, 78
2, 349916, Note_on_c, 0, 69, 0
2, 349920, Note_on_c, 0, 72, 75
2, 350012, Note_on_c, 0, 72, 0
2, 350016, Note_on_c, 0, 75, 72
2, 350204, Note_on_c, 0, 75, 0
2, 350208, Note_on_c, 0, 62, 85
2, 350300, Note_on_c, 0, 62, 0
2, 350304, Note_on_c, 0, 65, 81
2, 350396, Note_on_c, 0, 65, 0
2, 350400, Note_on_c, 0, 70, 76
2, 350492, Note_on_c, 0, 70, 0
2, 350496, Note_on_c, 0, 74, 73
2, 350588, Note_on_c, 0, 74, 0
2, 350592, Note_on_c, 0, 77, 70
2, 350780, Note_on_c, 0, 77, 0
2, 350784, Note_on_c, 0, 75, 72
2, 350876, Note_on_c, 0, 75, 0
2, 350880, Note_on_c, 0, 79, 69
2, 350972, Note_on_c, 0, 79, 0
2, 350976, Note_on_c, 0, 75, 72
2, 351068, Note_on_c, 0, 75, 0
2, 351072, Note_on_c, 0, 72, 75
2, 351164, Note_on_c, 0, 72, 0
2, 351168, Note_on_c, 0, 69, 78
2, 351260, Note_on_c, 0, 69, 0
2, 351264, Note_on_c, 0, 72, 75
2, 351356, Note_on_c, 0, 72, 0
2, 351360, Note_on_c, 0, 65, 81
2, 351452, Note_on_c, 0, 65, 0
2, 351456, Note_on_c, 0, 70, 76
2, 351548, Note_on_c, 0, 70, 0
2, 351552, Note_on_c, 0, 74, 73
2, 351644, Note_on_c, 0, 74, 0
2, 351648, Note_on_c, 0, 77, 70
2, 351740, Note_on_c, 0, 77, 0
2, 351744, Note_on_c, 0, 82, 66
2, 351932, Note_on_c, 0, 82, 0
2, 351936, Note_on_c, 0, 69, 78
2, 352028, Note_on_c, 0, 69, 0
2, 352032, Note_on_c, 0, 72, 75
2, 352124, Note_on_c, 0, 72, 0
2, 352128, Note_on_c, 0, 77, 70
2, 352220, Note_on_c, 0, 77, 0
2, 352224, Note_on_c, 0, 81, 67
2, 352316, Note_on_c, 0, 81, 0
2, 352320, Note_on_c, 0, 84, 64
2, 352508, Note_on_c, 0, 84, 0
2, 352512, Note_on_c, 0, 70, 76
2, 352604, Note_on_c, 0, 70, 0
2, 352608, Note_on_c, 0, 74, 73
2, 352700, Note_on_c, 0, 74, 0
2, 352704, Note_on_c, 0, 77, 70
2, 352796, Note_on_c, 0, 77, 0
2, 352800, Note_on_c, 0, 82, 66
2, 352892, Note_on_c, 0, 82, 0
2, 352896, Note_on_c, 0, 86, 63
2, 353084, Note_on_c, 0, 86, 0
2, 353088, Note_on_c, 0, 84, 64
2, 353180, Note_on_c, 0, 84, 0
2, 353184, Note_on_c, 0, 82, 66
2, 353276, Note_on_c, 0, 82, 0
2, 353280, Note_on_c, 0, 81, 67
2, 353372, Note_on_c, 0, 81, 0
2, 353376, Note_on_c, 0, 79, 69
2, 353468, Note_on_c, 0, 79, 0
2, 353472, Note_on_c, 0, 77, 70
2, 353564, Note_on_c, 0, 77, 0
2, 353568, Note_on_c, 0, 75, 72
2, 353660, Note_on_c, 0, 75, 0
2, 353664, Note_on_c, 0, 74, 73
2, 353852, Note_on_c, 0, 74, 0
2, 354240, Note_on_c, 0, 74, 73
2, 354332, Note_on_c, 0, 74, 0
2, 354336, Note_on_c, 0, 77, 70
2, 354428, Note_on_c, 0, 77, 0
2, 354432, Note_on_c, 0, 76, 72
2, 354476, Note_on_c, 0, 76, 0
2, 354528, Note_on_c, 0, 77, 70
2, 354572, Note_on_c, 0, 77, 0
2, 354624, Note_on_c, 0, 79, 69
2, 354668, Note_on_c, 0, 79, 0
2, 354720, Note_on_c, 0, 77, 70
2, 354764, Note_on_c, 0, 77, 0
2, 354816, Note_on_c, 0, 75, 72
2, 354908, Note_on_c, 0, 75, 0
2, 354912, Note_on_c, 0, 77, 70
2, 355004, Note_on_c, 0, 77, 0
2, 355008, Note_on_c, 0, 75, 72
2, 355052, Note_on_c, 0, 75, 0
2, 355104, Note_on_c, 0, 74, 73
2, 355148, Note_on_c, 0, 74, 0
2, 355200, Note_on_c, 0, 72, 75
2, 355244, Note_on_c, 0, 72, 0
2, 355296, Note_on_c, 0, 70, 76
2, 355340, Note_on_c, 0, 70, 0
2, 355392, Note_on_c, 0, 69, 78
2, 355484, Note_on_c, 0, 69, 0
2, 355488, Note_on_c, 0, 70, 76
2, 355580, Note_on_c, 0, 70, 0
2, 355584, Note_on_c, 0, 69, 78
2, 355628, Note_on_c, 0, 69, 0
2, 355680, Note_on_c, 0, 67, 79
2, 355724, Note_on_c, 0, 67, 0
2, 355776, Note_on_c, 0, 65, 81
2, 355820, Note_on_c, 0, 65, 0
2, 355872, Note_on_c, 0, 63, 82
2, 355916, Note_on_c, 0, 63, 0
2, 355968, Note_on_c, 0, 62, 85
2, 356156, Note_on_c, 0, 62, 0
2, 356544, Note_on_c, 0, 62, 85
2, 356636, Note_on_c, 0, 62, 0
2, 356640, Note_on_c, 0, 65, 81
2, 356732, Note_on_c, 0, 65, 0
2, 356736, Note_on_c, 0, 64, 82
2, 356780, Note_on_c, 0, 64, 0
2, 356832, Note_on_c, 0, 65, 81
2, 356876, Note_on_c, 0, 65, 0
2, 356928, Note_on_c, 0, 67, 79
2, 356972, Note_on_c, 0, 67, 0
2, 357024, Note_on_c, 0, 65, 81
2, 357068, Note_on_c, 0, 65, 0
2, 357120, Note_on_c, 0, 63, 82
2, 357212, Note_on_c, 0, 63, 0
2, 357216, Note_on_c, 0, 65, 81
2, 357308, Note_on_c, 0, 65, 0
2, 357312, Note_on_c, 0, 63, 82
2, 357356, Note_on_c, 0, 63, 0
2, 357408, Note_on_c, 0, 62, 85
2, 357452, Note_on_c, 0, 62, 0
2, 357504, Note_on_c, 0, 60, 86
2, 357548, Note_on_c, 0, 60, 0
2, 357600, Note_on_c, 0, 58, 88
2, 357644, Note_on_c, 0, 58, 0
2, 357696, Note_on_c, 0, 57, 89
2, 357788, Note_on_c, 0, 57, 0
2, 357792, Note_on_c, 0, 58, 88
2, 357884, Note_on_c, 0, 58, 0
2, 357888, Note_on_c, 0, 57, 89
2, 357932, Note_on_c, 0, 57, 0
2, 357984, Note_on_c, 0, 55, 91
2, 358028, Note_on_c, 0, 55, 0
2, 358080, Note_on_c, 0, 53, 92
2, 358124, Note_on_c, 0, 53, 0
2, 358176, Note_on_c, 0, 51, 94
2, 358220, Note_on_c, 0, 51, 0
2, 358272, Note_on_c, 0, 50, 95
2, 358652, Note_on_c, 0, 50, 0
2, 358848, Note_on_c, 0, 67, 79
2, 358940, Note_on_c, 0, 67, 0
2, 358944, Note_on_c, 0, 70, 76
2, 359036, Note_on_c, 0, 70, 0
2, 359040, Note_on_c, 0, 65, 81
2, 359132, Note_on_c, 0, 65, 0
2, 359136, Note_on_c, 0, 70, 76
2, 359228, Note_on_c, 0, 70, 0
2, 359232, Note_on_c, 0, 63, 82
2, 359324, Note_on_c, 0, 63, 0
2, 359328, Note_on_c, 0, 70, 76
2, 359420, Note_on_c, 0, 70, 0
2, 359424, Note_on_c, 0, 62, 85
2, 359516, Note_on_c, 0, 62, 0
2, 359520, Note_on_c, 0, 70, 76
2, 359612, Note_on_c, 0, 70, 0
2, 359616, Note_on_c, 0, 58, 88
2, 359708, Note_on_c, 0, 58, 0
2, 359712, Note_on_c, 0, 70, 76
2, 359804, Note_on_c, 0, 70, 0
2, 359808, Note_on_c, 0, 65, 81
2, 359900, Note_on_c, 0, 65, 0
2, 359904, Note_on_c, 0, 70, 76
2, 359996, Note_on_c, 0, 70, 0
2, 360000, Note_on_c, 0, 67, 79
2, 360092, Note_on_c, 0, 67, 0
2, 360096, Note_on_c, 0, 70, 76
2, 360188, Note_on_c, 0, 70, 0
2, 360192, Note_on_c, 0, 65, 81
2, 360284, Note_on_c, 0, 65, 0
2, 360288, Note_on_c, 0, 70, 76
2, 360380, Note_on_c, 0, 70, 0
2, 360384, Note_on_c, 0, 63, 82
2, 360476, Note_on_c, 0, 63, 0
2, 360480, Note_on_c, 0, 70, 76
2, 360572, Note_on_c, 0, 70, 0
2, 360576, Note_on_c, 0, 62, 85
2, 360668, Note_on_c, 0, 62, 0
2, 360672, Note_on_c, 0, 70, 76
2, 360764, Note_on_c, 0, 70, 0
2, 360768, Note_on_c, 0, 58, 88
2, 360860, Note_on_c, 0, 58, 0
2, 360864, Note_on_c, 0, 70, 76
2, 360956, Note_on_c, 0, 70, 0
2, 360960, Note_on_c, 0, 65, 81
2, 361052, Note_on_c, 0, 65, 0
2, 361056, Note_on_c, 0, 70, 76
2, 361148, Note_on_c, 0, 70, 0
2, 361152, Note_on_c, 0, 67, 79
2, 361244, Note_on_c, 0, 67, 0
2, 361248, Note_on_c, 0, 70, 76
2, 361340, Note_on_c, 0, 70, 0
2, 361344, Note_on_c, 0, 65, 81
2, 361436, Note_on_c, 0, 65, 0
2, 361440, Note_on_c, 0, 70, 76
2, 361532, Note_on_c, 0, 70, 0
2, 361536, Note_on_c, 0, 63, 82
2, 361628, Note_on_c, 0, 63, 0
2, 361632, Note_on_c, 0, 70, 76
2, 361724, Note_on_c, 0, 70, 0
2, 361728, Note_on_c, 0, 62, 94
2, 362300, Note_on_c, 0, 62, 0
2, 362304, Note_on_c, 0, 77, 80
2, 362876, Note_on_c, 0, 77, 0
2, 362880, Note_on_c, 0, 80, 82
2, 363452, Note_on_c, 0, 80, 0
2, 363456, Note_on_c, 0, 62, 95
2, 363500, Note_on_c, 0, 62, 0
2, 363504, Note_on_c, 0, 63, 94
2, 363548, Note_on_c, 0, 63, 0
2, 363552, Note_on_c, 0, 62, 95
2, 363596, Note_on_c, 0, 62, 0
2, 363600, Note_on_c, 0, 63, 94
2, 363644, Note_on_c, 0, 63, 0
2, 363648, Note_on_c, 0, 62, 95
2, 363692, Note_on_c, 0, 62, 0
2, 363696, Note_on_c, 0, 63, 94
2, 363740, Note_on_c, 0, 63, 0
2, 363744, Note_on_c, 0, 62, 95
2, 363788, Note_on_c, 0, 62, 0
2, 363792, Note_on_c, 0, 63, 94
2, 363836, Note_on_c, 0, 63, 0
2, 363840, Note_on_c, 0, 60, 97
2, 363932, Note_on_c, 0, 60, 0
2, 363936, Note_on_c, 0, 62, 95
2, 364028, Note_on_c, 0, 62, 0
2, 364032, Note_on_c, 0, 63, 94
2, 364604, Note_on_c, 0, 63, 0
2, 364608, Note_on_c, 0, 79, 82
2, 365180, Note_on_c, 0, 79, 0
2, 365184, Note_on_c, 0, 82, 84
2, 365756, Note_on_c, 0, 82, 0
2, 365760, Note_on_c, 0, 64, 94
2, 365804, Note_on_c, 0, 64, 0
2, 365808, Note_on_c, 0, 65, 92
2, 365852, Note_on_c, 0, 65, 0
2, 365856, Note_on_c, 0, 64, 94
2, 365900, Note_on_c, 0, 64, 0
2, 365904, Note_on_c, 0, 65, 92
2, 365948, Note_on_c, 0, 65, 0
2, 365952, Note_on_c, 0, 64, 94
2, 365996, Note_on_c, 0, 64, 0
2, 366000, Note_on_c, 0, 65, 92
2, 366044, Note_on_c, 0, 65, 0
2, 366048, Note_on_c, 0, 64, 94
2, 366092, Note_on_c, 0, 64, 0
2, 366096, Note_on_c, 0, 65, 92
2, 366140, Note_on_c, 0, 65, 0
2, 366144, Note_on_c, 0, 62, 95
2, 366236, Note_on_c, 0, 62, 0
2, 366240, Note_on_c, 0, 64, 94
2, 366332, Note_on_c, 0, 64, 0
2, 366336, Note_on_c, 0, 65, 97
2, 366908, Note_on_c, 0, 65, 0
2, 367008, Note_on_c, 0, 65, 97
2, 367100, Note_on_c, 0, 65, 0
2, 367104, Note_on_c, 0, 67, 95
2, 367196, Note_on_c, 0, 67, 0
2, 367200, Note_on_c, 0, 69, 94
2, 367292, Note_on_c, 0, 69, 0
2, 367296, Note_on_c, 0, 70, 92
2, 367388, Note_on_c, 0, 70, 0
2, 367392, Note_on_c, 0, 72, 91
2, 367484, Note_on_c, 0, 72, 0
2, 367488, Note_on_c, 0, 74, 89
2, 367580, Note_on_c, 0, 74, 0
2, 367584, Note_on_c, 0, 69, 94
2, 367676, Note_on_c, 0, 69, 0
2, 367680, Note_on_c, 0, 70, 92
2, 367772, Note_on_c, 0, 70, 0
2, 367776, Note_on_c, 0, 72, 91
2, 367868, Note_on_c, 0, 72, 0
2, 367872, Note_on_c, 0, 74, 89
2, 367964, Note_on_c, 0, 74, 0
2, 367968, Note_on_c, 0, 75, 88
2, 368060, Note_on_c, 0, 75, 0
2, 368064, Note_on_c, 0, 77, 86
2, 368156, Note_on_c, 0, 77, 0
2, 368160, Note_on_c, 0, 74, 89
2, 368252, Note_on_c, 0, 74, 0
2, 368256, Note_on_c, 0, 75, 88
2, 368348, Note_on_c, 0, 75, 0
2, 368352, Note_on_c, 0, 77, 86
2, 368444, Note_on_c, 0, 77, 0
2, 368448, Note_on_c, 0, 79, 85
2, 368540, Note_on_c, 0, 79, 0
2, 368544, Note_on_c, 0, 81, 82
2, 368636, Note_on_c, 0, 81, 0
2, 368640, Note_on_c, 0, 82, 81
2, 368732, Note_on_c, 0, 82, 0
2, 368736, Note_on_c, 0, 81, 82
2, 368828, Note_on_c, 0, 81, 0
2, 368832, Note_on_c, 0, 79, 85
2, 368924, Note_on_c, 0, 79, 0
2, 368928, Note_on_c, 0, 77, 86
2, 369020, Note_on_c, 0, 77, 0
2, 369024, Note_on_c, 0, 76, 88
2, 369116, Note_on_c, 0, 76, 0
2, 369120, Note_on_c, 0, 77, 86
2, 369212, Note_on_c, 0, 77, 0
2, 369216, Note_on_c, 0, 75, 88
2, 369308, Note_on_c, 0, 75, 0
2, 369312, Note_on_c, 0, 74, 89
2, 369404, Note_on_c, 0, 74, 0
2, 369408, Note_on_c, 0, 72, 91
2, 369500, Note_on_c, 0, 72, 0
2, 369504, Note_on_c, 0, 70, 92
2, 369596, Note_on_c, 0, 70, 0
2, 369600, Note_on_c, 0, 69, 94
2, 369692, Note_on_c, 0, 69, 0
2, 369696, Note_on_c, 0, 70, 92
2, 369788, Note_on_c, 0, 70, 0
2, 369792, Note_on_c, 0, 72, 91
2, 369836, Note_on_c, 0, 72, 0
2, 369840, Note_on_c, 0, 74, 89
2, 369884, Note_on_c, 0, 74, 0
2, 369888, Note_on_c, 0, 72, 91
2, 369932, Note_on_c, 0, 72, 0
2, 369936, Note_on_c, 0, 74, 89
2, 369980, Note_on_c, 0, 74, 0
2, 369984, Note_on_c, 0, 72, 91
2, 370028, Note_on_c, 0, 72, 0
2, 370032, Note_on_c, 0, 74, 89
2, 370076, Note_on_c, 0, 74, 0
2, 370080, Note_on_c, 0, 72, 91
2, 370124, Note_on_c, 0, 72, 0
2, 370128, Note_on_c, 0, 74, 89
2, 370172, Note_on_c, 0, 74, 0
2, 370176, Note_on_c, 0, 72, 91
2, 370220, Note_on_c, 0, 72, 0
2, 370224, Note_on_c, 0, 74, 89
2, 370268, Note_on_c, 0, 74, 0
2, 370272, Note_on_c, 0, 72, 91
2, 370316, Note_on_c, 0, 72, 0
2, 370320, Note_on_c, 0, 74, 89
2, 370364, Note_on_c, 0, 74, 0
2, 370368, Note_on_c, 0, 72, 91
2, 370412, Note_on_c, 0, 72, 0
2, 370416, Note_on_c, 0, 74, 89
2, 370460, Note_on_c, 0, 74, 0
2, 370464, Note_on_c, 0, 72, 91
2, 370508, Note_on_c, 0, 72, 0
2, 370512, Note_on_c, 0, 74, 89
2, 370556, Note_on_c, 0, 74, 0
2, 370560, Note_on_c, 0, 72, 91
2, 370604, Note_on_c, 0, 72, 0
2, 370608, Note_on_c, 0, 74, 89
2, 370652, Note_on_c, 0, 74, 0
2, 370656, Note_on_c, 0, 72, 91
2, 370700, Note_on_c, 0, 72, 0
2, 370704, Note_on_c, 0, 74, 89
2, 370748, Note_on_c, 0, 74, 0
2, 370752, Note_on_c, 0, 70, 92
2, 370844, Note_on_c, 0, 70, 0
2, 370848, Note_on_c, 0, 72, 91
2, 370940, Note_on_c, 0, 72, 0
2, 370944, Note_on_c, 0, 70, 92
2, 371324, Note_on_c, 0, 70, 0
2, 373056, Note_on_c, 0, 65, 81
2, 373244, Note_on_c, 0, 65, 0
2, 373248, Note_on_c, 0, 74, 73
2, 373340, Note_on_c, 0, 74, 0
2, 373632, Note_on_c, 0, 74, 73
2, 373724, Note_on_c, 0, 74, 0
2, 373824, Note_on_c, 0, 75, 72
2, 373916, Note_on_c, 0, 75, 0
2, 373920, Note_on_c, 0, 74, 73
2, 374012, Note_on_c, 0, 74, 0
2, 374016, Note_on_c, 0, 73, 75
2, 374108, Note_on_c, 0, 73, 0
2, 374112, Note_on_c, 0, 74, 73
2, 374204, Note_on_c, 0, 74, 0
2, 374208, Note_on_c, 0, 75, 72
2, 374300, Note_on_c, 0, 75, 0
2, 374304, Note_on_c, 0, 74, 73
2, 374396, Note_on_c, 0, 74, 0
2, 374400, Note_on_c, 0, 72, 75
2, 375548, Note_on_c, 0, 72, 0
2, 375552, Note_on_c, 0, 70, 76
2, 375932, Note_on_c, 0, 70, 0
2, 376896, Note_on_c, 0, 58, 88
2, 377084, Note_on_c, 0, 58, 0
2, 377088, Note_on_c, 0, 59, 88
2, 377276, Note_on_c, 0, 59, 0
2, 377280, Note_on_c, 0, 60, 86
2, 377468, Note_on_c, 0, 60, 0
2, 377472, Note_on_c, 0, 61, 85
2, 377660, Note_on_c, 0, 61, 0
2, 377664, Note_on_c, 0, 62, 85
2, 377852, Note_on_c, 0, 62, 0
2, 377856, Note_on_c, 0, 63, 82
2, 378428, Note_on_c, 0, 63, 0
2, 378432, Note_on_c, 0, 79, 80
2, 379100, Note_on_c, 0, 79, 0
2, 379104, Note_on_c, 0, 81, 79
2, 379196, Note_on_c, 0, 81, 0
2, 379200, Note_on_c, 0, 82, 78
2, 379244, Note_on_c, 0, 82, 0
2, 379296, Note_on_c, 0, 81, 77
2, 379340, Note_on_c, 0, 81, 0
2, 379392, Note_on_c, 0, 79, 78
2, 379436, Note_on_c, 0, 79, 0
2, 379488, Note_on_c, 0, 77, 79
2, 379532, Note_on_c, 0, 77, 0
2, 379584, Note_on_c, 0, 75, 78
2, 379676, Note_on_c, 0, 75, 0
2, 379680, Note_on_c, 0, 77, 77
2, 379772, Note_on_c, 0, 77, 0
2, 379776, Note_on_c, 0, 75, 78
2, 379820, Note_on_c, 0, 75, 0
2, 379872, Note_on_c, 0, 74, 79
2, 379916, Note_on_c, 0, 74, 0
2, 379968, Note_on_c, 0, 72, 80
2, 380012, Note_on_c, 0, 72, 0
2, 380064, Note_on_c, 0, 70, 81
2, 380108, Note_on_c, 0, 70, 0
2, 380160, Note_on_c, 0, 69, 80
2, 380252, Note_on_c, 0, 69, 0
2, 380544, Note_on_c, 0, 72, 77
2, 380636, Note_on_c, 0, 72, 0
2, 380736, Note_on_c, 0, 74, 75
2, 380828, Note_on_c, 0, 74, 0
2, 380832, Note_on_c, 0, 72, 77
2, 380924, Note_on_c, 0, 72, 0
2, 380928, Note_on_c, 0, 70, 78
2, 381020, Note_on_c, 0, 70, 0
2, 381024, Note_on_c, 0, 72, 77
2, 381116, Note_on_c, 0, 72, 0
2, 381120, Note_on_c, 0, 74, 75
2, 381212, Note_on_c, 0, 74, 0
2, 381216, Note_on_c, 0, 72, 77
2, 381308, Note_on_c, 0, 72, 0
2, 381312, Note_on_c, 0, 74, 74
2, 381404, Note_on_c, 0, 74, 0
2, 381696, Note_on_c, 0, 74, 74
2, 381788, Note_on_c, 0, 74, 0
2, 381888, Note_on_c, 0, 75, 73
2, 381980, Note_on_c, 0, 75, 0
2, 381984, Note_on_c, 0, 74, 74
2, 382076, Note_on_c, 0, 74, 0
2, 382080, Note_on_c, 0, 72, 77
2, 382172, Note_on_c, 0, 72, 0
2, 382176, Note_on_c, 0, 74, 75
2, 382268, Note_on_c, 0, 74, 0
2, 382272, Note_on_c, 0, 75, 73
2, 382364, Note_on_c, 0, 75, 0
2, 382368, Note_on_c, 0, 74, 74
2, 382460, Note_on_c, 0, 74, 0
2, 382464, Note_on_c, 0, 75, 73
2, 382556, Note_on_c, 0, 75, 0
2, 382656, Note_on_c, 0, 71, 76
2, 382844, Note_on_c, 0, 71, 0
2, 382848, Note_on_c, 0, 72, 74
2, 383036, Note_on_c, 0, 72, 0
2, 383040, Note_on_c, 0, 75, 73
2, 383132, Note_on_c, 0, 75, 0
2, 383232, Note_on_c, 0, 71, 77
2, 383420, Note_on_c, 0, 71, 0
2, 383424, Note_on_c, 0, 72, 76
2, 383612, Note_on_c, 0, 72, 0
2, 383616, Note_on_c, 0, 75, 73
2, 383708, Note_on_c, 0, 75, 0
2, 383808, Note_on_c, 0, 72, 76
2, 383996, Note_on_c, 0, 72, 0
2, 384000, Note_on_c, 0, 73, 74
2, 384188, Note_on_c, 0, 73, 0
2, 384192, Note_on_c, 0, 74, 74
2, 384380, Note_on_c, 0, 74, 0
2, 384384, Note_on_c, 0, 75, 73
2, 384572, Note_on_c, 0, 75, 0
2, 384576, Note_on_c, 0, 76, 73
2, 384764, Note_on_c, 0, 76, 0
2, 384768, Note_on_c, 0, 77, 71
2, 384860, Note_on_c, 0, 77, 0
2, 385152, Note_on_c, 0, 77, 71
2, 385244, Note_on_c, 0, 77, 0
2, 385344, Note_on_c, 0, 79, 70
2, 385436, Note_on_c, 0, 79, 0
2, 385440, Note_on_c, 0, 77, 71
2, 385532, Note_on_c, 0, 77, 0
2, 385536, Note_on_c, 0, 76, 73
2, 385628, Note_on_c, 0, 76, 0
2, 385632, Note_on_c, 0, 77, 71
2, 385724, Note_on_c, 0, 77, 0
2, 385728, Note_on_c, 0, 79, 70
2, 385820, Note_on_c, 0, 79, 0
2, 385824, Note_on_c, 0, 77, 71
2, 385916, Note_on_c, 0, 77, 0
2, 385920, Note_on_c, 0, 75, 72
2, 386492, Note_on_c, 0, 75, 0
2, 386496, Note_on_c, 0, 74, 73
2, 386684, Note_on_c, 0, 74, 0
2, 386880, Note_on_c, 0, 82, 66
2, 386972, Note_on_c, 0, 82, 0
2, 386976, Note_on_c, 0, 81, 67
2, 387068, Note_on_c, 0, 81, 0
2, 387072, Note_on_c, 0, 79, 69
2, 387164, Note_on_c, 0, 79, 0
2, 387264, Note_on_c, 0, 79, 69
2, 387356, Note_on_c, 0, 79, 0
2, 387456, Note_on_c, 0, 79, 69
2, 387548, Note_on_c, 0, 79, 0
2, 387552, Note_on_c, 0, 77, 70
2, 387644, Note_on_c, 0, 77, 0
2, 387648, Note_on_c, 0, 75, 72
2, 387740, Note_on_c, 0, 75, 0
2, 387840, Note_on_c, 0, 75, 72
2, 387932, Note_on_c, 0, 75, 0
2, 387936, Note_on_c, 0, 74, 73
2, 388028, Note_on_c, 0, 74, 0
2, 388032, Note_on_c, 0, 72, 75
2, 388124, Note_on_c, 0, 72, 0
2, 388128, Note_on_c, 0, 70, 76
2, 388220, Note_on_c, 0, 70, 0
2, 388224, Note_on_c, 0, 69, 78
2, 388412, Note_on_c, 0, 69, 0
2, 388416, Note_on_c, 0, 70, 76
2, 388604, Note_on_c, 0, 70, 0
2, 388608, Note_on_c, 0, 71, 76
2, 388796, Note_on_c, 0, 71, 0
2, 388800, Note_on_c, 0, 72, 75
2, 388988, Note_on_c, 0, 72, 0
2, 389184, Note_on_c, 0, 74, 73
2, 389276, Note_on_c, 0, 74, 0
2, 389280, Note_on_c, 0, 75, 72
2, 389372, Note_on_c, 0, 75, 0
2, 389376, Note_on_c, 0, 77, 70
2, 389468, Note_on_c, 0, 77, 0
2, 389568, Note_on_c, 0, 77, 70
2, 389660, Note_on_c, 0, 77, 0
2, 389760, Note_on_c, 0, 77, 70
2, 389852, Note_on_c, 0, 77, 0
2, 389952, Note_on_c, 0, 79, 72
2, 390044, Note_on_c, 0, 79, 0
2, 390048, Note_on_c, 0, 77, 70
2, 390140, Note_on_c, 0, 77, 0
2, 390144, Note_on_c, 0, 76, 69
2, 390236, Note_on_c, 0, 76, 0
2, 390240, Note_on_c, 0, 77, 70
2, 390332, Note_on_c, 0, 77, 0
2, 390336, Note_on_c, 0, 79, 72
2, 390428, Note_on_c, 0, 79, 0
2, 390432, Note_on_c, 0, 77, 70
2, 390524, Note_on_c, 0, 77, 0
2, 390528, Note_on_c, 0, 81, 67
2, 391100, Note_on_c, 0, 81, 0
2, 391104, Note_on_c, 0, 82, 66
2, 391292, Note_on_c, 0, 82, 0
2, 391488, Note_on_c, 0, 82, 66
2, 391580, Note_on_c, 0, 82, 0
2, 391584, Note_on_c, 0, 81, 67
2, 391676, Note_on_c, 0, 81, 0
2, 391680, Note_on_c, 0, 79, 69
2, 391724, Note_on_c, 0, 79, 0
2, 391776, Note_on_c, 0, 77, 70
2, 391820, Note_on_c, 0, 77, 0
2, 391872, Note_on_c, 0, 75, 72
2, 391916, Note_on_c, 0, 75, 0
2, 391968, Note_on_c, 0, 74, 73
2, 392012, Note_on_c, 0, 74, 0
2, 392064, Note_on_c, 0, 72, 75
2, 392108, Note_on_c, 0, 72, 0
2, 392160, Note_on_c, 0, 70, 76
2, 392204, Note_on_c, 0, 70, 0
2, 392256, Note_on_c, 0, 69, 78
2, 392300, Note_on_c, 0, 69, 0
2, 392352, Note_on_c, 0, 70, 76
2, 392396, Note_on_c, 0, 70, 0
2, 392448, Note_on_c, 0, 72, 75
2, 392492, Note_on_c, 0, 72, 0
2, 392544, Note_on_c, 0, 74, 73
2, 392588, Note_on_c, 0, 74, 0
2, 392640, Note_on_c, 0, 75, 72
2, 392684, Note_on_c, 0, 75, 0
2, 392736, Note_on_c, 0, 69, 78
2, 392780, Note_on_c, 0, 69, 0
2, 392832, Note_on_c, 0, 70, 76
2, 393212, Note_on_c, 0, 70, 0
2, 393216, Note_on_c, 0, 74, 73
2, 393404, Note_on_c, 0, 74, 0
2, 393408, Note_on_c, 0, 77, 72
2, 393500, Note_on_c, 0, 77, 0
2, 393792, Note_on_c, 0, 82, 76
2, 393884, Note_on_c, 0, 82, 0
2, 393888, Note_on_c, 0, 81, 76
2, 393980, Note_on_c, 0, 81, 0
2, 393984, Note_on_c, 0, 79, 77
2, 394028, Note_on_c, 0, 79, 0
2, 394080, Note_on_c, 0, 77, 77
2, 394124, Note_on_c, 0, 77, 0
2, 394176, Note_on_c, 0, 75, 78
2, 394220, Note_on_c, 0, 75, 0
2, 394272, Note_on_c, 0, 74, 79
2, 394316, Note_on_c, 0, 74, 0
2, 394368, Note_on_c, 0, 72, 79
2, 394412, Note_on_c, 0, 72, 0
2, 394464, Note_on_c, 0, 70, 80
2, 394508, Note_on_c, 0, 70, 0
2, 394560, Note_on_c, 0, 69, 80
2, 394604, Note_on_c, 0, 69, 0
2, 394656, Note_on_c, 0, 70, 81
2, 394700, Note_on_c, 0, 70, 0
2, 394752, Note_on_c, 0, 72, 82
2, 394796, Note_on_c, 0, 72, 0
2, 394848, Note_on_c, 0, 74, 82
2, 394892, Note_on_c, 0, 74, 0
2, 394944, Note_on_c, 0, 75, 83
2, 394988, Note_on_c, 0, 75, 0
2, 395040, Note_on_c, 0, 69, 84
2, 395084, Note_on_c, 0, 69, 0
2, 395136, Note_on_c, 0, 70, 84
2, 395516, Note_on_c, 0, 70, 0
2, 395520, Note_on_c, 0, 74, 87
2, 395708, Note_on_c, 0, 74, 0
2, 395712, Note_on_c, 0, 77, 88
2, 395900, Note_on_c, 0, 77, 0
2, 396096, Note_on_c, 0, 82, 90
2, 396188, Note_on_c, 0, 82, 0
2, 396192, Note_on_c, 0, 81, 91
2, 396284, Note_on_c, 0, 81, 0
2, 396288, Note_on_c, 0, 79, 90
2, 396860, Note_on_c, 0, 79, 0
2, 396864, Note_on_c, 0, 51, 104
2, 397436, Note_on_c, 0, 51, 0
2, 397440, Note_on_c, 0, 53, 102
2, 398012, Note_on_c, 0, 53, 0
2, 398016, Note_on_c, 0, 81, 90
2, 398060, Note_on_c, 0, 81, 0
2, 398064, Note_on_c, 0, 82, 89
2, 398108, Note_on_c, 0, 82, 0
2, 398112, Note_on_c, 0, 81, 90
2, 398156, Note_on_c, 0, 81, 0
2, 398160, Note_on_c, 0, 82, 89
2, 398204, Note_on_c, 0, 82, 0
2, 398208, Note_on_c, 0, 81, 90
2, 398252, Note_on_c, 0, 81, 0
2, 398256, Note_on_c, 0, 82, 89
2, 398300, Note_on_c, 0, 82, 0
2, 398304, Note_on_c, 0, 81, 90
2, 398348, Note_on_c, 0, 81, 0
2, 398352, Note_on_c, 0, 82, 89
2, 398396, Note_on_c, 0, 82, 0
2, 398400, Note_on_c, 0, 79, 91
2, 398492, Note_on_c, 0, 79, 0
2, 398496, Note_on_c, 0, 81, 90
2, 398588, Note_on_c, 0, 81, 0
2, 398592, Note_on_c, 0, 82, 89
2, 398972, Note_on_c, 0, 82, 0
2, 398972, End_track
3, 0, Start_track
3, 0, MIDI_port, 0
3, 0, Title_t, "Concerto"
3, 0, Control_c, 1, 0, 0
3, 0, Control_c, 1, 32, 0
3, 0, Program_c, 1, 48
3, 0, Control_c, 1, 10, 35
3, 0, Control_c, 1, 91, 63
3, 0, Control_c, 1, 93, 55
3, 0, Control_c, 1, 121, 0
3, 48, Control_c, 1, 10, 43
3, 96, Control_c, 1, 91, 63
3, 120, Control_c, 1, 93, 40
3, 144, Program_c, 1, 48
3, 1152, Note_on_c, 1, 74, 80
3, 1152, Note_on_c, 1, 70, 80
3, 1340, Note_on_c, 1, 70, 0
3, 1340, Note_on_c, 1, 74, 0
3, 1536, Note_on_c, 1, 70, 80
3, 1536, Note_on_c, 1, 74, 80
3, 1724, Note_on_c, 1, 74, 0
3, 1724, Note_on_c, 1, 70, 0
3, 1728, Note_on_c, 1, 74, 80
3, 1728, Note_on_c, 1, 70, 80
3, 1820, Note_on_c, 1, 70, 0
3, 1820, Note_on_c, 1, 74, 0
3, 1920, Note_on_c, 1, 74, 80
3, 1920, Note_on_c, 1, 70, 80
3, 2012, Note_on_c, 1, 70, 0
3, 2012, Note_on_c, 1, 74, 0
3, 2112, Note_on_c, 1, 74, 80
3, 2112, Note_on_c, 1, 70, 80
3, 2204, Note_on_c, 1, 70, 0
3, 2204, Note_on_c, 1, 74, 0
3, 2304, Note_on_c, 1, 72, 80
3, 2304, Note_on_c, 1, 69, 80
3, 2304, Note_on_c, 1, 65, 80
3, 2876, Note_on_c, 1, 65, 0
3, 2876, Note_on_c, 1, 69, 0
3, 2876, Note_on_c, 1, 72, 0
3, 2880, Note_on_c, 1, 74, 80
3, 2880, Note_on_c, 1, 70, 80
3, 3068, Note_on_c, 1, 70, 0
3, 3068, Note_on_c, 1, 74, 0
3, 3456, Note_on_c, 1, 70, 80
3, 3456, Note_on_c, 1, 63, 80
3, 3548, Note_on_c, 1, 63, 0
3, 3548, Note_on_c, 1, 70, 0
3, 3648, Note_on_c, 1, 70, 80
3, 3648, Note_on_c, 1, 63, 80
3, 3740, Note_on_c, 1, 63, 0
3, 3740, Note_on_c, 1, 70, 0
3, 4032, Note_on_c, 1, 70, 80
3, 4032, Note_on_c, 1, 67, 80
3, 4124, Note_on_c, 1, 67, 0
3, 4124, Note_on_c, 1, 70, 0
3, 4224, Note_on_c, 1, 70, 80
3, 4224, Note_on_c, 1, 67, 80
3, 4316, Note_on_c, 1, 67, 0
3, 4316, Note_on_c, 1, 70, 0
3, 4608, Note_on_c, 1, 65, 80
3, 4796, Note_on_c, 1, 65, 0
3, 4800, Note_on_c, 1, 67, 80
3, 4800, Note_on_c, 1, 65, 80
3, 4892, Note_on_c, 1, 65, 0
3, 4988, Note_on_c, 1, 67, 0
3, 4992, Note_on_c, 1, 68, 80
3, 4992, Note_on_c, 1, 65, 80
3, 5084, Note_on_c, 1, 65, 0
3, 5180, Note_on_c, 1, 68, 0
3, 5184, Note_on_c, 1, 69, 80
3, 5184, Note_on_c, 1, 65, 80
3, 5372, Note_on_c, 1, 65, 0
3, 5372, Note_on_c, 1, 69, 0
3, 5568, Note_on_c, 1, 70, 80
3, 5660, Note_on_c, 1, 70, 0
3, 5664, Note_on_c, 1, 72, 80
3, 5756, Note_on_c, 1, 72, 0
3, 5760, Note_on_c, 1, 74, 80
3, 5760, Note_on_c, 1, 70, 80
3, 5948, Note_on_c, 1, 70, 0
3, 5948, Note_on_c, 1, 74, 0
3, 6144, Note_on_c, 1, 74, 80
3, 6144, Note_on_c, 1, 70, 80
3, 6332, Note_on_c, 1, 70, 0
3, 6332, Note_on_c, 1, 74, 0
3, 6336, Note_on_c, 1, 74, 80
3, 6336, Note_on_c, 1, 70, 80
3, 6428, Note_on_c, 1, 70, 0
3, 6428, Note_on_c, 1, 74, 0
3, 6528, Note_on_c, 1, 74, 80
3, 6528, Note_on_c, 1, 70, 80
3, 6620, Note_on_c, 1, 70, 0
3, 6620, Note_on_c, 1, 74, 0
3, 6720, Note_on_c, 1, 74, 80
3, 6720, Note_on_c, 1, 70, 80
3, 6812, Note_on_c, 1, 70, 0
3, 6812, Note_on_c, 1, 74, 0
3, 6912, Note_on_c, 1, 75, 80
3, 6912, Note_on_c, 1, 72, 80
3, 6912, Note_on_c, 1, 65, 80
3, 7292, Note_on_c, 1, 65, 0
3, 7296, Note_on_c, 1, 66, 80
3, 7484, Note_on_c, 1, 66, 0
3, 7484, Note_on_c, 1, 72, 0
3, 7484, Note_on_c, 1, 75, 0
3, 7488, Note_on_c, 1, 74, 80
3, 7488, Note_on_c, 1, 70, 80
3, 7488, Note_on_c, 1, 67, 80
3, 7676, Note_on_c, 1, 67, 0
3, 7676, Note_on_c, 1, 70, 0
3, 7676, Note_on_c, 1, 74, 0
3, 8064, Note_on_c, 1, 72, 80
3, 8064, Note_on_c, 1, 67, 80
3, 8064, Note_on_c, 1, 63, 80
3, 8252, Note_on_c, 1, 63, 0
3, 8252, Note_on_c, 1, 67, 0
3, 8252, Note_on_c, 1, 72, 0
3, 8640, Note_on_c, 1, 63, 80
3, 8640, Note_on_c, 1, 60, 80
3, 8640, Note_on_c, 1, 53, 80
3, 8828, Note_on_c, 1, 53, 0
3, 8828, Note_on_c, 1, 60, 0
3, 8828, Note_on_c, 1, 63, 0
3, 9216, Note_on_c, 1, 62, 80
3, 9216, Note_on_c, 1, 58, 80
3, 9404, Note_on_c, 1, 58, 0
3, 9408, Note_on_c, 1, 58, 80
3, 9596, Note_on_c, 1, 58, 0
3, 9596, Note_on_c, 1, 62, 0
3, 9600, Note_on_c, 1, 58, 80
3, 9600, Note_on_c, 1, 65, 80
3, 9788, Note_on_c, 1, 65, 0
3, 9788, Note_on_c, 1, 58, 0
3, 9792, Note_on_c, 1, 62, 80
3, 9792, Note_on_c, 1, 58, 80
3, 9980, Note_on_c, 1, 58, 0
3, 10172, Note_on_c, 1, 62, 0
3, 10176, Note_on_c, 1, 74, 80
3, 10176, Note_on_c, 1, 70, 80
3, 10268, Note_on_c, 1, 70, 0
3, 10268, Note_on_c, 1, 74, 0
3, 10272, Note_on_c, 1, 75, 80
3, 10272, Note_on_c, 1, 72, 80
3, 10364, Note_on_c, 1, 72, 0
3, 10364, Note_on_c, 1, 75, 0
3, 10368, Note_on_c, 1, 77, 81
3, 10368, Note_on_c, 1, 74, 81
3, 10460, Note_on_c, 1, 74, 0
3, 10460, Note_on_c, 1, 77, 0
3, 10560, Note_on_c, 1, 77, 87
3, 10560, Note_on_c, 1, 74, 87
3, 10560, Note_on_c, 1, 70, 87
3, 10652, Note_on_c, 1, 70, 0
3, 10652, Note_on_c, 1, 74, 0
3, 10652, Note_on_c, 1, 77, 0
3, 10752, Note_on_c, 1, 77, 91
3, 10752, Note_on_c, 1, 74, 91
3, 10752, Note_on_c, 1, 70, 91
3, 10844, Note_on_c, 1, 70, 0
3, 10844, Note_on_c, 1, 74, 0
3, 10844, Note_on_c, 1, 77, 0
3, 10944, Note_on_c, 1, 77, 96
3, 10944, Note_on_c, 1, 74, 96
3, 10944, Note_on_c, 1, 70, 96
3, 11036, Note_on_c, 1, 70, 0
3, 11036, Note_on_c, 1, 74, 0
3, 11036, Note_on_c, 1, 77, 0
3, 11136, Note_on_c, 1, 77, 99
3, 11136, Note_on_c, 1, 74, 99
3, 11136, Note_on_c, 1, 70, 99
3, 11228, Note_on_c, 1, 70, 0
3, 11228, Note_on_c, 1, 74, 0
3, 11228, Note_on_c, 1, 77, 0
3, 11328, Note_on_c, 1, 77, 104
3, 11328, Note_on_c, 1, 74, 104
3, 11328, Note_on_c, 1, 70, 104
3, 11420, Note_on_c, 1, 70, 0
3, 11420, Note_on_c, 1, 74, 0
3, 11420, Note_on_c, 1, 77, 0
3, 11520, Note_on_c, 1, 81, 108
3, 11520, Note_on_c, 1, 75, 108
3, 11520, Note_on_c, 1, 72, 108
3, 12092, Note_on_c, 1, 72, 0
3, 12092, Note_on_c, 1, 75, 0
3, 12092, Note_on_c, 1, 81, 0
3, 12096, Note_on_c, 1, 82, 108
3, 12096, Note_on_c, 1, 74, 108
3, 12096, Note_on_c, 1, 70, 108
3, 12284, Note_on_c, 1, 70, 0
3, 12284, Note_on_c, 1, 74, 0
3, 12284, Note_on_c, 1, 82, 0
3, 12480, Note_on_c, 1, 82, 80
3, 12480, Note_on_c, 1, 79, 80
3, 12572, Note_on_c, 1, 79, 0
3, 12572, Note_on_c, 1, 82, 0
3, 12576, Note_on_c, 1, 81, 80
3, 12576, Note_on_c, 1, 77, 80
3, 12668, Note_on_c, 1, 77, 0
3, 12668, Note_on_c, 1, 81, 0
3, 12672, Note_on_c, 1, 79, 80
3, 12672, Note_on_c, 1, 75, 80
3, 12764, Note_on_c, 1, 75, 0
3, 12764, Note_on_c, 1, 79, 0
3, 13056, Note_on_c, 1, 79, 80
3, 13056, Note_on_c, 1, 75, 80
3, 13148, Note_on_c, 1, 75, 0
3, 13148, Note_on_c, 1, 79, 0
3, 13152, Note_on_c, 1, 77, 80
3, 13152, Note_on_c, 1, 74, 80
3, 13244, Note_on_c, 1, 74, 0
3, 13244, Note_on_c, 1, 77, 0
3, 13248, Note_on_c, 1, 75, 80
3, 13248, Note_on_c, 1, 72, 80
3, 13340, Note_on_c, 1, 72, 0
3, 13340, Note_on_c, 1, 75, 0
3, 13632, Note_on_c, 1, 75, 80
3, 13632, Note_on_c, 1, 72, 80
3, 13724, Note_on_c, 1, 72, 0
3, 13724, Note_on_c, 1, 75, 0
3, 13728, Note_on_c, 1, 74, 80
3, 13728, Note_on_c, 1, 70, 80
3, 13820, Note_on_c, 1, 70, 0
3, 13820, Note_on_c, 1, 74, 0
3, 13824, Note_on_c, 1, 72, 80
3, 13824, Note_on_c, 1, 69, 80
3, 13916, Note_on_c, 1, 69, 0
3, 13916, Note_on_c, 1, 72, 0
3, 14016, Note_on_c, 1, 72, 80
3, 14016, Note_on_c, 1, 69, 80
3, 14108, Note_on_c, 1, 69, 0
3, 14108, Note_on_c, 1, 72, 0
3, 14112, Note_on_c, 1, 74, 80
3, 14204, Note_on_c, 1, 74, 0
3, 14208, Note_on_c, 1, 72, 80
3, 14208, Note_on_c, 1, 69, 80
3, 14300, Note_on_c, 1, 69, 0
3, 14300, Note_on_c, 1, 72, 0
3, 14304, Note_on_c, 1, 74, 80
3, 14396, Note_on_c, 1, 74, 0
3, 14400, Note_on_c, 1, 72, 80
3, 14400, Note_on_c, 1, 69, 80
3, 14588, Note_on_c, 1, 69, 0
3, 14588, Note_on_c, 1, 72, 0
3, 14784, Note_on_c, 1, 74, 80
3, 14784, Note_on_c, 1, 70, 80
3, 14876, Note_on_c, 1, 70, 0
3, 14876, Note_on_c, 1, 74, 0
3, 14880, Note_on_c, 1, 75, 80
3, 14880, Note_on_c, 1, 72, 80
3, 14972, Note_on_c, 1, 72, 0
3, 14972, Note_on_c, 1, 75, 0
3, 14976, Note_on_c, 1, 77, 81
3, 14976, Note_on_c, 1, 74, 81
3, 15164, Note_on_c, 1, 74, 0
3, 15164, Note_on_c, 1, 77, 0
3, 15168, Note_on_c, 1, 77, 87
3, 15168, Note_on_c, 1, 74, 87
3, 15168, Note_on_c, 1, 70, 87
3, 15260, Note_on_c, 1, 70, 0
3, 15260, Note_on_c, 1, 74, 0
3, 15260, Note_on_c, 1, 77, 0
3, 15360, Note_on_c, 1, 77, 91
3, 15360, Note_on_c, 1, 74, 91
3, 15360, Note_on_c, 1, 70, 91
3, 15452, Note_on_c, 1, 70, 0
3, 15452, Note_on_c, 1, 74, 0
3, 15452, Note_on_c, 1, 77, 0
3, 15552, Note_on_c, 1, 77, 96
3, 15552, Note_on_c, 1, 74, 96
3, 15552, Note_on_c, 1, 70, 96
3, 15644, Note_on_c, 1, 70, 0
3, 15644, Note_on_c, 1, 74, 0
3, 15644, Note_on_c, 1, 77, 0
3, 15744, Note_on_c, 1, 77, 99
3, 15744, Note_on_c, 1, 74, 99
3, 15744, Note_on_c, 1, 70, 99
3, 15836, Note_on_c, 1, 70, 0
3, 15836, Note_on_c, 1, 74, 0
3, 15836, Note_on_c, 1, 77, 0
3, 15936, Note_on_c, 1, 77, 100
3, 15936, Note_on_c, 1, 74, 100
3, 15936, Note_on_c, 1, 70, 100
3, 16028, Note_on_c, 1, 70, 0
3, 16028, Note_on_c, 1, 74, 0
3, 16028, Note_on_c, 1, 77, 0
3, 16128, Note_on_c, 1, 87, 104
3, 16128, Note_on_c, 1, 84, 104
3, 16128, Note_on_c, 1, 81, 104
3, 16700, Note_on_c, 1, 81, 0
3, 16700, Note_on_c, 1, 84, 0
3, 16700, Note_on_c, 1, 87, 0
3, 16704, Note_on_c, 1, 82, 104
3, 16704, Note_on_c, 1, 86, 104
3, 16892, Note_on_c, 1, 86, 0
3, 16892, Note_on_c, 1, 82, 0
3, 17088, Note_on_c, 1, 82, 80
3, 17088, Note_on_c, 1, 74, 80
3, 17180, Note_on_c, 1, 74, 0
3, 17180, Note_on_c, 1, 82, 0
3, 17184, Note_on_c, 1, 81, 80
3, 17184, Note_on_c, 1, 77, 80
3, 17276, Note_on_c, 1, 77, 0
3, 17276, Note_on_c, 1, 81, 0
3, 17280, Note_on_c, 1, 79, 80
3, 17280, Note_on_c, 1, 75, 80
3, 17372, Note_on_c, 1, 75, 0
3, 17372, Note_on_c, 1, 79, 0
3, 17664, Note_on_c, 1, 75, 80
3, 17664, Note_on_c, 1, 67, 80
3, 17756, Note_on_c, 1, 67, 0
3, 17756, Note_on_c, 1, 75, 0
3, 17760, Note_on_c, 1, 74, 80
3, 17760, Note_on_c, 1, 70, 80
3, 17852, Note_on_c, 1, 70, 0
3, 17852, Note_on_c, 1, 74, 0
3, 17856, Note_on_c, 1, 72, 80
3, 17856, Note_on_c, 1, 69, 80
3, 17948, Note_on_c, 1, 69, 0
3, 17948, Note_on_c, 1, 72, 0
3, 18240, Note_on_c, 1, 77, 80
3, 18332, Note_on_c, 1, 77, 0
3, 18336, Note_on_c, 1, 69, 80
3, 18428, Note_on_c, 1, 69, 0
3, 18432, Note_on_c, 1, 70, 80
3, 18432, Note_on_c, 1, 62, 80
3, 18812, Note_on_c, 1, 62, 0
3, 18812, Note_on_c, 1, 70, 0
3, 18816, Note_on_c, 1, 74, 80
3, 18816, Note_on_c, 1, 65, 80
3, 19004, Note_on_c, 1, 65, 0
3, 19004, Note_on_c, 1, 74, 0
3, 19008, Note_on_c, 1, 70, 80
3, 19008, Note_on_c, 1, 62, 80
3, 19388, Note_on_c, 1, 62, 0
3, 19388, Note_on_c, 1, 70, 0
3, 19776, Note_on_c, 1, 65, 80
3, 19776, Note_on_c, 1, 63, 80
3, 19776, Note_on_c, 1, 60, 80
3, 19776, Note_on_c, 1, 57, 80
3, 19964, Note_on_c, 1, 57, 0
3, 19964, Note_on_c, 1, 65, 0
3, 19964, Note_on_c, 1, 63, 0
3, 19964, Note_on_c, 1, 60, 0
3, 19968, Note_on_c, 1, 65, 80
3, 19968, Note_on_c, 1, 63, 80
3, 19968, Note_on_c, 1, 60, 80
3, 19968, Note_on_c, 1, 57, 80
3, 20156, Note_on_c, 1, 57, 0
3, 20156, Note_on_c, 1, 65, 0
3, 20156, Note_on_c, 1, 63, 0
3, 20156, Note_on_c, 1, 60, 0
3, 20160, Note_on_c, 1, 65, 80
3, 20160, Note_on_c, 1, 63, 80
3, 20160, Note_on_c, 1, 60, 80
3, 20160, Note_on_c, 1, 57, 80
3, 20348, Note_on_c, 1, 57, 0
3, 20348, Note_on_c, 1, 65, 0
3, 20348, Note_on_c, 1, 63, 0
3, 20348, Note_on_c, 1, 60, 0
3, 20352, Note_on_c, 1, 65, 80
3, 20352, Note_on_c, 1, 63, 80
3, 20352, Note_on_c, 1, 60, 80
3, 20352, Note_on_c, 1, 57, 80
3, 20540, Note_on_c, 1, 57, 0
3, 20540, Note_on_c, 1, 65, 0
3, 20540, Note_on_c, 1, 63, 0
3, 20540, Note_on_c, 1, 60, 0
3, 20544, Note_on_c, 1, 65, 80
3, 20544, Note_on_c, 1, 63, 80
3, 20544, Note_on_c, 1, 60, 80
3, 20544, Note_on_c, 1, 57, 80
3, 20732, Note_on_c, 1, 57, 0
3, 20732, Note_on_c, 1, 65, 0
3, 20732, Note_on_c, 1, 63, 0
3, 20732, Note_on_c, 1, 60, 0
3, 20928, Note_on_c, 1, 65, 80
3, 20928, Note_on_c, 1, 62, 80
3, 20928, Note_on_c, 1, 58, 80
3, 21116, Note_on_c, 1, 58, 0
3, 21116, Note_on_c, 1, 62, 0
3, 21116, Note_on_c, 1, 65, 0
3, 21120, Note_on_c, 1, 65, 80
3, 21120, Note_on_c, 1, 62, 80
3, 21120, Note_on_c, 1, 58, 80
3, 21308, Note_on_c, 1, 58, 0
3, 21308, Note_on_c, 1, 62, 0
3, 21308, Note_on_c, 1, 65, 0
3, 21312, Note_on_c, 1, 65, 80
3, 21312, Note_on_c, 1, 62, 80
3, 21312, Note_on_c, 1, 58, 80
3, 21500, Note_on_c, 1, 58, 0
3, 21500, Note_on_c, 1, 62, 0
3, 21500, Note_on_c, 1, 65, 0
3, 21504, Note_on_c, 1, 65, 80
3, 21504, Note_on_c, 1, 62, 80
3, 21504, Note_on_c, 1, 58, 80
3, 21692, Note_on_c, 1, 58, 0
3, 21692, Note_on_c, 1, 62, 0
3, 21692, Note_on_c, 1, 65, 0
3, 21696, Note_on_c, 1, 65, 80
3, 21696, Note_on_c, 1, 62, 80
3, 21696, Note_on_c, 1, 58, 80
3, 21884, Note_on_c, 1, 58, 0
3, 21884, Note_on_c, 1, 62, 0
3, 21884, Note_on_c, 1, 65, 0
3, 22080, Note_on_c, 1, 72, 80
3, 22080, Note_on_c, 1, 70, 80
3, 22080, Note_on_c, 1, 67, 80
3, 22080, Note_on_c, 1, 64, 80
3, 22268, Note_on_c, 1, 64, 0
3, 22268, Note_on_c, 1, 72, 0
3, 22268, Note_on_c, 1, 70, 0
3, 22268, Note_on_c, 1, 67, 0
3, 22272, Note_on_c, 1, 72, 80
3, 22272, Note_on_c, 1, 70, 80
3, 22272, Note_on_c, 1, 67, 80
3, 22272, Note_on_c, 1, 64, 80
3, 22460, Note_on_c, 1, 64, 0
3, 22460, Note_on_c, 1, 72, 0
3, 22460, Note_on_c, 1, 70, 0
3, 22460, Note_on_c, 1, 67, 0
3, 22464, Note_on_c, 1, 72, 80
3, 22464, Note_on_c, 1, 70, 80
3, 22464, Note_on_c, 1, 67, 80
3, 22464, Note_on_c, 1, 64, 80
3, 22652, Note_on_c, 1, 64, 0
3, 22652, Note_on_c, 1, 72, 0
3, 22652, Note_on_c, 1, 70, 0
3, 22652, Note_on_c, 1, 67, 0
3, 22656, Note_on_c, 1, 72, 80
3, 22656, Note_on_c, 1, 70, 80
3, 22656, Note_on_c, 1, 67, 80
3, 22656, Note_on_c, 1, 64, 80
3, 22844, Note_on_c, 1, 64, 0
3, 22844, Note_on_c, 1, 72, 0
3, 22844, Note_on_c, 1, 70, 0
3, 22844, Note_on_c, 1, 67, 0
3, 22848, Note_on_c, 1, 72, 80
3, 22848, Note_on_c, 1, 70, 80
3, 22848, Note_on_c, 1, 67, 80
3, 22848, Note_on_c, 1, 64, 80
3, 23036, Note_on_c, 1, 64, 0
3, 23036, Note_on_c, 1, 72, 0
3, 23036, Note_on_c, 1, 70, 0
3, 23036, Note_on_c, 1, 67, 0
3, 23040, Note_on_c, 1, 72, 80
3, 23040, Note_on_c, 1, 69, 80
3, 23040, Note_on_c, 1, 65, 80
3, 23420, Note_on_c, 1, 65, 0
3, 23420, Note_on_c, 1, 69, 0
3, 23420, Note_on_c, 1, 72, 0
3, 24000, Note_on_c, 1, 64, 80
3, 24000, Note_on_c, 1, 60, 80
3, 24000, Note_on_c, 1, 58, 80
3, 24188, Note_on_c, 1, 58, 0
3, 24188, Note_on_c, 1, 60, 0
3, 24188, Note_on_c, 1, 64, 0
3, 24192, Note_on_c, 1, 65, 80
3, 24192, Note_on_c, 1, 60, 80
3, 24192, Note_on_c, 1, 57, 80
3, 24572, Note_on_c, 1, 57, 0
3, 24572, Note_on_c, 1, 60, 0
3, 24572, Note_on_c, 1, 65, 0
3, 25152, Note_on_c, 1, 64, 80
3, 25152, Note_on_c, 1, 60, 80
3, 25152, Note_on_c, 1, 58, 80
3, 25340, Note_on_c, 1, 58, 0
3, 25340, Note_on_c, 1, 60, 0
3, 25340, Note_on_c, 1, 64, 0
3, 25344, Note_on_c, 1, 65, 80
3, 25344, Note_on_c, 1, 60, 80
3, 25344, Note_on_c, 1, 57, 80
3, 25724, Note_on_c, 1, 57, 0
3, 25724, Note_on_c, 1, 60, 0
3, 25724, Note_on_c, 1, 65, 0
3, 26688, Note_on_c, 1, 69, 80
3, 26688, Note_on_c, 1, 65, 80
3, 26876, Note_on_c, 1, 65, 0
3, 26876, Note_on_c, 1, 69, 0
3, 26880, Note_on_c, 1, 70, 80
3, 26880, Note_on_c, 1, 67, 80
3, 27068, Note_on_c, 1, 67, 0
3, 27068, Note_on_c, 1, 70, 0
3, 27072, Note_on_c, 1, 72, 80
3, 27072, Note_on_c, 1, 69, 80
3, 27260, Note_on_c, 1, 69, 0
3, 27260, Note_on_c, 1, 72, 0
3, 27264, Note_on_c, 1, 74, 80
3, 27264, Note_on_c, 1, 70, 80
3, 27452, Note_on_c, 1, 70, 0
3, 27452, Note_on_c, 1, 74, 0
3, 27456, Note_on_c, 1, 75, 80
3, 27456, Note_on_c, 1, 72, 80
3, 27644, Note_on_c, 1, 72, 0
3, 27644, Note_on_c, 1, 75, 0
3, 27648, Note_on_c, 1, 74, 80
3, 27648, Note_on_c, 1, 70, 80
3, 27740, Note_on_c, 1, 70, 0
3, 27740, Note_on_c, 1, 74, 0
3, 28032, Note_on_c, 1, 74, 80
3, 28032, Note_on_c, 1, 70, 80
3, 28124, Note_on_c, 1, 70, 0
3, 28124, Note_on_c, 1, 74, 0
3, 28224, Note_on_c, 1, 74, 80
3, 28224, Note_on_c, 1, 70, 80
3, 28316, Note_on_c, 1, 70, 0
3, 28316, Note_on_c, 1, 74, 0
3, 28416, Note_on_c, 1, 74, 80
3, 28416, Note_on_c, 1, 70, 80
3, 28508, Note_on_c, 1, 70, 0
3, 28508, Note_on_c, 1, 74, 0
3, 28608, Note_on_c, 1, 74, 80
3, 28608, Note_on_c, 1, 70, 80
3, 28700, Note_on_c, 1, 70, 0
3, 28700, Note_on_c, 1, 74, 0
3, 28800, Note_on_c, 1, 72, 80
3, 28800, Note_on_c, 1, 69, 80
3, 29372, Note_on_c, 1, 69, 0
3, 29372, Note_on_c, 1, 72, 0
3, 29376, Note_on_c, 1, 70, 80
3, 29564, Note_on_c, 1, 70, 0
3, 29952, Note_on_c, 1, 70, 80
3, 29952, Note_on_c, 1, 67, 80
3, 30044, Note_on_c, 1, 67, 0
3, 30044, Note_on_c, 1, 70, 0
3, 30144, Note_on_c, 1, 70, 80
3, 30144, Note_on_c, 1, 67, 80
3, 30236, Note_on_c, 1, 67, 0
3, 30236, Note_on_c, 1, 70, 0
3, 30528, Note_on_c, 1, 72, 80
3, 30528, Note_on_c, 1, 67, 80
3, 30620, Note_on_c, 1, 67, 0
3, 30620, Note_on_c, 1, 72, 0
3, 30720, Note_on_c, 1, 72, 80
3, 30720, Note_on_c, 1, 67, 80
3, 30812, Note_on_c, 1, 67, 0
3, 30812, Note_on_c, 1, 72, 0
3, 31104, Note_on_c, 1, 65, 80
3, 31292, Note_on_c, 1, 65, 0
3, 31296, Note_on_c, 1, 67, 80
3, 31484, Note_on_c, 1, 67, 0
3, 31488, Note_on_c, 1, 68, 80
3, 31676, Note_on_c, 1, 68, 0
3, 31680, Note_on_c, 1, 69, 80
3, 31868, Note_on_c, 1, 69, 0
3, 32064, Note_on_c, 1, 70, 80
3, 32156, Note_on_c, 1, 70, 0
3, 32160, Note_on_c, 1, 72, 80
3, 32252, Note_on_c, 1, 72, 0
3, 32256, Note_on_c, 1, 74, 80
3, 32256, Note_on_c, 1, 70, 80
3, 32348, Note_on_c, 1, 70, 0
3, 32348, Note_on_c, 1, 74, 0
3, 32640, Note_on_c, 1, 74, 80
3, 32640, Note_on_c, 1, 70, 80
3, 32732, Note_on_c, 1, 70, 0
3, 32732, Note_on_c, 1, 74, 0
3, 32832, Note_on_c, 1, 74, 80
3, 32832, Note_on_c, 1, 70, 80
3, 32924, Note_on_c, 1, 70, 0
3, 32924, Note_on_c, 1, 74, 0
3, 33024, Note_on_c, 1, 74, 80
3, 33024, Note_on_c, 1, 70, 80
3, 33116, Note_on_c, 1, 70, 0
3, 33116, Note_on_c, 1, 74, 0
3, 33216, Note_on_c, 1, 74, 80
3, 33216, Note_on_c, 1, 70, 80
3, 33308, Note_on_c, 1, 70, 0
3, 33308, Note_on_c, 1, 74, 0
3, 33408, Note_on_c, 1, 75, 80
3, 33408, Note_on_c, 1, 72, 80
3, 33980, Note_on_c, 1, 72, 0
3, 33980, Note_on_c, 1, 75, 0
3, 33984, Note_on_c, 1, 74, 80
3, 33984, Note_on_c, 1, 70, 80
3, 34172, Note_on_c, 1, 70, 0
3, 34172, Note_on_c, 1, 74, 0
3, 34560, Note_on_c, 1, 72, 80
3, 34560, Note_on_c, 1, 67, 80
3, 34748, Note_on_c, 1, 67, 0
3, 34748, Note_on_c, 1, 72, 0
3, 35136, Note_on_c, 1, 63, 80
3, 35136, Note_on_c, 1, 60, 80
3, 35324, Note_on_c, 1, 60, 0
3, 35324, Note_on_c, 1, 63, 0
3, 35712, Note_on_c, 1, 62, 80
3, 35900, Note_on_c, 1, 62, 0
3, 35904, Note_on_c, 1, 70, 80
3, 35996, Note_on_c, 1, 70, 0
3, 36000, Note_on_c, 1, 69, 80
3, 36092, Note_on_c, 1, 69, 0
3, 36096, Note_on_c, 1, 67, 80
3, 36188, Note_on_c, 1, 67, 0
3, 36192, Note_on_c, 1, 65, 80
3, 36284, Note_on_c, 1, 65, 0
3, 36288, Note_on_c, 1, 63, 80
3, 36380, Note_on_c, 1, 63, 0
3, 36384, Note_on_c, 1, 62, 80
3, 36476, Note_on_c, 1, 62, 0
3, 36480, Note_on_c, 1, 60, 80
3, 36572, Note_on_c, 1, 60, 0
3, 36576, Note_on_c, 1, 58, 80
3, 36668, Note_on_c, 1, 58, 0
3, 36672, Note_on_c, 1, 57, 80
3, 36764, Note_on_c, 1, 57, 0
3, 36768, Note_on_c, 1, 58, 80
3, 36860, Note_on_c, 1, 58, 0
3, 36864, Note_on_c, 1, 60, 80
3, 37052, Note_on_c, 1, 60, 0
3, 37056, Note_on_c, 1, 72, 80
3, 37148, Note_on_c, 1, 72, 0
3, 37152, Note_on_c, 1, 70, 80
3, 37244, Note_on_c, 1, 70, 0
3, 37248, Note_on_c, 1, 69, 80
3, 37340, Note_on_c, 1, 69, 0
3, 37344, Note_on_c, 1, 67, 80
3, 37436, Note_on_c, 1, 67, 0
3, 37440, Note_on_c, 1, 65, 80
3, 37532, Note_on_c, 1, 65, 0
3, 37536, Note_on_c, 1, 63, 80
3, 37628, Note_on_c, 1, 63, 0
3, 37632, Note_on_c, 1, 62, 80
3, 37724, Note_on_c, 1, 62, 0
3, 37728, Note_on_c, 1, 60, 80
3, 37820, Note_on_c, 1, 60, 0
3, 37824, Note_on_c, 1, 58, 80
3, 37916, Note_on_c, 1, 58, 0
3, 37920, Note_on_c, 1, 60, 80
3, 38012, Note_on_c, 1, 60, 0
3, 38016, Note_on_c, 1, 62, 88
3, 38204, Note_on_c, 1, 62, 0
3, 38208, Note_on_c, 1, 74, 89
3, 38300, Note_on_c, 1, 74, 0
3, 38304, Note_on_c, 1, 72, 89
3, 38396, Note_on_c, 1, 72, 0
3, 38400, Note_on_c, 1, 70, 90
3, 38492, Note_on_c, 1, 70, 0
3, 38496, Note_on_c, 1, 69, 90
3, 38588, Note_on_c, 1, 69, 0
3, 38592, Note_on_c, 1, 67, 91
3, 38684, Note_on_c, 1, 67, 0
3, 38688, Note_on_c, 1, 65, 92
3, 38780, Note_on_c, 1, 65, 0
3, 38784, Note_on_c, 1, 63, 92
3, 38876, Note_on_c, 1, 63, 0
3, 38880, Note_on_c, 1, 62, 93
3, 38972, Note_on_c, 1, 62, 0
3, 38976, Note_on_c, 1, 60, 93
3, 39068, Note_on_c, 1, 60, 0
3, 39072, Note_on_c, 1, 62, 94
3, 39164, Note_on_c, 1, 62, 0
3, 39168, Note_on_c, 1, 63, 95
3, 39356, Note_on_c, 1, 63, 0
3, 39360, Note_on_c, 1, 75, 96
3, 39452, Note_on_c, 1, 75, 0
3, 39456, Note_on_c, 1, 74, 96
3, 39548, Note_on_c, 1, 74, 0
3, 39552, Note_on_c, 1, 72, 97
3, 39644, Note_on_c, 1, 72, 0
3, 39648, Note_on_c, 1, 70, 97
3, 39740, Note_on_c, 1, 70, 0
3, 39744, Note_on_c, 1, 69, 98
3, 39836, Note_on_c, 1, 69, 0
3, 39840, Note_on_c, 1, 67, 99
3, 39932, Note_on_c, 1, 67, 0
3, 39936, Note_on_c, 1, 65, 99
3, 40028, Note_on_c, 1, 65, 0
3, 40032, Note_on_c, 1, 63, 99
3, 40124, Note_on_c, 1, 63, 0
3, 40128, Note_on_c, 1, 62, 99
3, 40220, Note_on_c, 1, 62, 0
3, 40224, Note_on_c, 1, 63, 100
3, 40316, Note_on_c, 1, 63, 0
3, 40320, Note_on_c, 1, 65, 101
3, 40700, Note_on_c, 1, 65, 0
3, 41472, Note_on_c, 1, 70, 80
3, 42620, Note_on_c, 1, 70, 0
3, 42624, Note_on_c, 1, 67, 80
3, 43004, Note_on_c, 1, 67, 0
3, 43008, Note_on_c, 1, 71, 80
3, 43196, Note_on_c, 1, 71, 0
3, 43200, Note_on_c, 1, 72, 80
3, 43388, Note_on_c, 1, 72, 0
3, 43392, Note_on_c, 1, 74, 80
3, 43580, Note_on_c, 1, 74, 0
3, 43584, Note_on_c, 1, 75, 80
3, 43772, Note_on_c, 1, 75, 0
3, 43776, Note_on_c, 1, 74, 80
3, 44156, Note_on_c, 1, 74, 0
3, 44352, Note_on_c, 1, 75, 80
3, 44732, Note_on_c, 1, 75, 0
3, 44928, Note_on_c, 1, 69, 80
3, 45020, Note_on_c, 1, 69, 0
3, 45120, Note_on_c, 1, 69, 80
3, 45212, Note_on_c, 1, 69, 0
3, 45312, Note_on_c, 1, 69, 80
3, 45404, Note_on_c, 1, 69, 0
3, 45504, Note_on_c, 1, 70, 80
3, 45692, Note_on_c, 1, 70, 0
3, 45888, Note_on_c, 1, 70, 108
3, 46076, Note_on_c, 1, 70, 0
3, 46080, Note_on_c, 1, 82, 108
3, 46268, Note_on_c, 1, 82, 0
3, 46272, Note_on_c, 1, 86, 108
3, 46460, Note_on_c, 1, 86, 0
3, 46464, Note_on_c, 1, 86, 108
3, 46844, Note_on_c, 1, 86, 0
3, 46848, Note_on_c, 1, 82, 108
3, 47036, Note_on_c, 1, 82, 0
3, 47040, Note_on_c, 1, 77, 108
3, 47228, Note_on_c, 1, 77, 0
3, 47232, Note_on_c, 1, 79, 108
3, 47420, Note_on_c, 1, 79, 0
3, 47424, Note_on_c, 1, 82, 108
3, 47612, Note_on_c, 1, 82, 0
3, 47616, Note_on_c, 1, 82, 108
3, 47996, Note_on_c, 1, 82, 0
3, 48000, Note_on_c, 1, 79, 108
3, 48188, Note_on_c, 1, 79, 0
3, 48192, Note_on_c, 1, 75, 108
3, 48380, Note_on_c, 1, 75, 0
3, 48384, Note_on_c, 1, 74, 108
3, 48384, Note_on_c, 1, 70, 108
3, 48572, Note_on_c, 1, 70, 0
3, 48572, Note_on_c, 1, 74, 0
3, 48576, Note_on_c, 1, 77, 108
3, 48668, Note_on_c, 1, 77, 0
3, 48672, Note_on_c, 1, 75, 108
3, 48764, Note_on_c, 1, 75, 0
3, 48768, Note_on_c, 1, 77, 108
3, 48860, Note_on_c, 1, 77, 0
3, 48864, Note_on_c, 1, 74, 108
3, 48956, Note_on_c, 1, 74, 0
3, 48960, Note_on_c, 1, 72, 108
3, 48960, Note_on_c, 1, 69, 108
3, 49148, Note_on_c, 1, 69, 0
3, 49148, Note_on_c, 1, 72, 0
3, 49152, Note_on_c, 1, 75, 108
3, 49244, Note_on_c, 1, 75, 0
3, 49248, Note_on_c, 1, 74, 108
3, 49340, Note_on_c, 1, 74, 0
3, 49344, Note_on_c, 1, 75, 108
3, 49436, Note_on_c, 1, 75, 0
3, 49440, Note_on_c, 1, 72, 108
3, 49532, Note_on_c, 1, 72, 0
3, 49536, Note_on_c, 1, 70, 108
3, 49916, Note_on_c, 1, 70, 0
3, 50688, Note_on_c, 1, 75, 80
3, 50688, Note_on_c, 1, 72, 80
3, 51836, Note_on_c, 1, 72, 0
3, 51836, Note_on_c, 1, 75, 0
3, 51840, Note_on_c, 1, 74, 80
3, 51840, Note_on_c, 1, 70, 80
3, 52028, Note_on_c, 1, 70, 0
3, 52028, Note_on_c, 1, 74, 0
3, 52416, Note_on_c, 1, 72, 80
3, 52416, Note_on_c, 1, 67, 80
3, 52604, Note_on_c, 1, 67, 0
3, 52604, Note_on_c, 1, 72, 0
3, 52992, Note_on_c, 1, 70, 80
3, 52992, Note_on_c, 1, 62, 80
3, 53180, Note_on_c, 1, 62, 0
3, 53180, Note_on_c, 1, 70, 0
3, 53184, Note_on_c, 1, 70, 80
3, 53184, Note_on_c, 1, 62, 80
3, 53372, Note_on_c, 1, 62, 0
3, 53372, Note_on_c, 1, 70, 0
3, 53376, Note_on_c, 1, 70, 80
3, 53376, Note_on_c, 1, 62, 80
3, 53564, Note_on_c, 1, 62, 0
3, 53564, Note_on_c, 1, 70, 0
3, 53568, Note_on_c, 1, 74, 80
3, 53612, Note_on_c, 1, 74, 0
3, 53616, Note_on_c, 1, 72, 80
3, 53616, Note_on_c, 1, 65, 80
3, 53760, Note_on_c, 1, 70, 80
3, 53760, Note_on_c, 1, 62, 80
3, 53804, Note_on_c, 1, 65, 0
3, 53804, Note_on_c, 1, 72, 0
3, 53948, Note_on_c, 1, 70, 0
3, 53948, Note_on_c, 1, 62, 0
3, 53952, Note_on_c, 1, 72, 80
3, 53952, Note_on_c, 1, 65, 80
3, 54140, Note_on_c, 1, 65, 0
3, 54140, Note_on_c, 1, 72, 0
3, 54144, Note_on_c, 1, 74, 80
3, 54144, Note_on_c, 1, 70, 80
3, 54524, Note_on_c, 1, 70, 0
3, 54524, Note_on_c, 1, 74, 0
3, 55296, Note_on_c, 1, 69, 80
3, 55868, Note_on_c, 1, 69, 0
3, 55872, Note_on_c, 1, 77, 80
3, 55872, Note_on_c, 1, 69, 80
3, 56444, Note_on_c, 1, 69, 0
3, 56444, Note_on_c, 1, 77, 0
3, 56448, Note_on_c, 1, 77, 80
3, 56448, Note_on_c, 1, 70, 80
3, 56636, Note_on_c, 1, 70, 0
3, 56636, Note_on_c, 1, 77, 0
3, 57024, Note_on_c, 1, 75, 80
3, 57024, Note_on_c, 1, 72, 80
3, 57212, Note_on_c, 1, 72, 0
3, 57212, Note_on_c, 1, 75, 0
3, 57600, Note_on_c, 1, 74, 80
3, 57600, Note_on_c, 1, 70, 80
3, 57788, Note_on_c, 1, 70, 0
3, 57788, Note_on_c, 1, 74, 0
3, 58176, Note_on_c, 1, 69, 80
3, 58176, Note_on_c, 1, 63, 80
3, 58364, Note_on_c, 1, 63, 0
3, 58364, Note_on_c, 1, 69, 0
3, 58368, Note_on_c, 1, 69, 80
3, 58368, Note_on_c, 1, 63, 80
3, 58556, Note_on_c, 1, 63, 0
3, 58556, Note_on_c, 1, 69, 0
3, 58560, Note_on_c, 1, 69, 80
3, 58560, Note_on_c, 1, 63, 80
3, 58748, Note_on_c, 1, 63, 0
3, 58748, Note_on_c, 1, 69, 0
3, 58752, Note_on_c, 1, 82, 108
3, 58752, Note_on_c, 1, 74, 108
3, 60092, Note_on_c, 1, 74, 0
3, 60092, Note_on_c, 1, 82, 0
3, 60096, Note_on_c, 1, 77, 108
3, 60096, Note_on_c, 1, 74, 108
3, 60188, Note_on_c, 1, 74, 0
3, 60188, Note_on_c, 1, 77, 0
3, 60288, Note_on_c, 1, 86, 108
3, 60288, Note_on_c, 1, 82, 108
3, 60380, Note_on_c, 1, 82, 0
3, 60380, Note_on_c, 1, 86, 0
3, 60480, Note_on_c, 1, 87, 108
3, 60480, Note_on_c, 1, 84, 108
3, 60572, Note_on_c, 1, 84, 0
3, 60572, Note_on_c, 1, 87, 0
3, 60672, Note_on_c, 1, 84, 108
3, 60672, Note_on_c, 1, 81, 108
3, 60764, Note_on_c, 1, 81, 0
3, 60764, Note_on_c, 1, 84, 0
3, 60864, Note_on_c, 1, 81, 108
3, 60864, Note_on_c, 1, 75, 108
3, 60956, Note_on_c, 1, 75, 0
3, 60956, Note_on_c, 1, 81, 0
3, 61056, Note_on_c, 1, 82, 108
3, 61056, Note_on_c, 1, 74, 108
3, 62208, Note_on_c, 1, 82, 108
3, 62208, Note_on_c, 1, 74, 108
3, 62300, Note_on_c, 1, 74, 0
3, 62300, Note_on_c, 1, 82, 0
3, 62396, Note_on_c, 1, 74, 0
3, 62396, Note_on_c, 1, 82, 0
3, 62400, Note_on_c, 1, 77, 108
3, 62400, Note_on_c, 1, 74, 108
3, 62492, Note_on_c, 1, 74, 0
3, 62492, Note_on_c, 1, 77, 0
3, 62592, Note_on_c, 1, 82, 108
3, 62592, Note_on_c, 1, 86, 108
3, 62684, Note_on_c, 1, 86, 0
3, 62684, Note_on_c, 1, 82, 0
3, 62784, Note_on_c, 1, 87, 108
3, 62784, Note_on_c, 1, 84, 108
3, 62876, Note_on_c, 1, 84, 0
3, 62876, Note_on_c, 1, 87, 0
3, 62976, Note_on_c, 1, 84, 108
3, 62976, Note_on_c, 1, 81, 108
3, 63068, Note_on_c, 1, 81, 0
3, 63068, Note_on_c, 1, 84, 0
3, 63168, Note_on_c, 1, 81, 108
3, 63168, Note_on_c, 1, 75, 108
3, 63260, Note_on_c, 1, 75, 0
3, 63260, Note_on_c, 1, 81, 0
3, 63360, Note_on_c, 1, 82, 108
3, 63360, Note_on_c, 1, 74, 108
3, 63740, Note_on_c, 1, 74, 0
3, 63740, Note_on_c, 1, 82, 0
3, 63936, Note_on_c, 1, 86, 108
3, 63936, Note_on_c, 1, 82, 108
3, 63936, Note_on_c, 1, 77, 108
3, 64316, Note_on_c, 1, 77, 0
3, 64316, Note_on_c, 1, 82, 0
3, 64316, Note_on_c, 1, 86, 0
3, 64512, Note_on_c, 1, 77, 108
3, 64512, Note_on_c, 1, 74, 108
3, 64512, Note_on_c, 1, 82, 108
3, 64892, Note_on_c, 1, 82, 0
3, 64892, Note_on_c, 1, 74, 0
3, 64892, Note_on_c, 1, 77, 0
3, 65664, Note_on_c, 1, 70, 80
3, 66236, Note_on_c, 1, 70, 0
3, 66240, Note_on_c, 1, 74, 80
3, 66284, Note_on_c, 1, 74, 0
3, 66288, Note_on_c, 1, 72, 80
3, 66430, Note_on_c, 1, 72, 0
3, 66432, Note_on_c, 1, 70, 80
3, 66620, Note_on_c, 1, 70, 0
3, 66624, Note_on_c, 1, 74, 80
3, 66812, Note_on_c, 1, 74, 0
3, 66816, Note_on_c, 1, 74, 80
3, 66816, Note_on_c, 1, 70, 80
3, 67004, Note_on_c, 1, 70, 0
3, 67008, Note_on_c, 1, 70, 80
3, 67196, Note_on_c, 1, 70, 0
3, 67200, Note_on_c, 1, 70, 80
3, 67388, Note_on_c, 1, 70, 0
3, 67392, Note_on_c, 1, 70, 80
3, 67580, Note_on_c, 1, 70, 0
3, 67584, Note_on_c, 1, 70, 80
3, 67772, Note_on_c, 1, 70, 0
3, 67776, Note_on_c, 1, 70, 80
3, 67964, Note_on_c, 1, 70, 0
3, 67964, Note_on_c, 1, 74, 0
3, 67968, Note_on_c, 1, 75, 80
3, 67968, Note_on_c, 1, 70, 80
3, 68156, Note_on_c, 1, 70, 0
3, 68156, Note_on_c, 1, 75, 0
3, 68544, Note_on_c, 1, 79, 80
3, 68544, Note_on_c, 1, 70, 80
3, 68732, Note_on_c, 1, 70, 0
3, 68732, Note_on_c, 1, 79, 0
3, 69120, Note_on_c, 1, 74, 80
3, 69120, Note_on_c, 1, 70, 80
3, 69500, Note_on_c, 1, 70, 0
3, 69500, Note_on_c, 1, 74, 0
3, 69504, Note_on_c, 1, 65, 80
3, 69692, Note_on_c, 1, 65, 0
3, 69696, Note_on_c, 1, 62, 80
3, 69696, Note_on_c, 1, 58, 80
3, 69884, Note_on_c, 1, 58, 0
3, 69884, Note_on_c, 1, 62, 0
3, 69888, Note_on_c, 1, 62, 80
3, 70076, Note_on_c, 1, 62, 0
3, 70080, Note_on_c, 1, 58, 80
3, 70268, Note_on_c, 1, 58, 0
3, 70272, Note_on_c, 1, 69, 80
3, 70272, Note_on_c, 1, 65, 80
3, 70272, Note_on_c, 1, 60, 80
3, 70652, Note_on_c, 1, 60, 0
3, 70652, Note_on_c, 1, 65, 0
3, 70652, Note_on_c, 1, 69, 0
3, 71040, Note_on_c, 1, 69, 80
3, 71040, Note_on_c, 1, 65, 80
3, 71040, Note_on_c, 1, 60, 80
3, 71228, Note_on_c, 1, 60, 0
3, 71228, Note_on_c, 1, 65, 0
3, 71228, Note_on_c, 1, 69, 0
3, 71232, Note_on_c, 1, 69, 80
3, 71232, Note_on_c, 1, 65, 80
3, 71232, Note_on_c, 1, 60, 80
3, 71420, Note_on_c, 1, 60, 0
3, 71420, Note_on_c, 1, 65, 0
3, 71420, Note_on_c, 1, 69, 0
3, 71424, Note_on_c, 1, 70, 80
3, 71424, Note_on_c, 1, 67, 80
3, 71424, Note_on_c, 1, 62, 80
3, 71804, Note_on_c, 1, 62, 0
3, 71804, Note_on_c, 1, 67, 0
3, 71804, Note_on_c, 1, 70, 0
3, 72192, Note_on_c, 1, 70, 80
3, 72284, Note_on_c, 1, 70, 0
3, 72384, Note_on_c, 1, 74, 80
3, 72476, Note_on_c, 1, 74, 0
3, 72576, Note_on_c, 1, 67, 80
3, 72956, Note_on_c, 1, 67, 0
3, 72960, Note_on_c, 1, 71, 80
3, 73148, Note_on_c, 1, 71, 0
3, 73152, Note_on_c, 1, 72, 80
3, 73340, Note_on_c, 1, 72, 0
3, 73344, Note_on_c, 1, 74, 80
3, 73532, Note_on_c, 1, 74, 0
3, 73536, Note_on_c, 1, 75, 80
3, 73724, Note_on_c, 1, 75, 0
3, 73728, Note_on_c, 1, 70, 80
3, 74108, Note_on_c, 1, 70, 0
3, 74112, Note_on_c, 1, 72, 80
3, 74204, Note_on_c, 1, 72, 0
3, 74208, Note_on_c, 1, 70, 80
3, 74300, Note_on_c, 1, 70, 0
3, 74304, Note_on_c, 1, 69, 80
3, 74492, Note_on_c, 1, 69, 0
3, 74880, Note_on_c, 1, 58, 80
3, 75452, Note_on_c, 1, 58, 0
3, 75456, Note_on_c, 1, 62, 80
3, 75500, Note_on_c, 1, 62, 0
3, 75504, Note_on_c, 1, 60, 80
3, 75648, Note_on_c, 1, 58, 80
3, 75692, Note_on_c, 1, 60, 0
3, 75836, Note_on_c, 1, 58, 0
3, 75840, Note_on_c, 1, 60, 80
3, 76028, Note_on_c, 1, 60, 0
3, 76032, Note_on_c, 1, 62, 80
3, 77180, Note_on_c, 1, 62, 0
3, 77184, Note_on_c, 1, 63, 80
3, 77372, Note_on_c, 1, 63, 0
3, 77760, Note_on_c, 1, 67, 80
3, 77948, Note_on_c, 1, 67, 0
3, 78336, Note_on_c, 1, 65, 80
3, 78336, Note_on_c, 1, 62, 80
3, 78716, Note_on_c, 1, 62, 0
3, 78716, Note_on_c, 1, 65, 0
3, 79104, Note_on_c, 1, 74, 80
3, 79104, Note_on_c, 1, 82, 80
3, 79292, Note_on_c, 1, 82, 0
3, 79292, Note_on_c, 1, 74, 0
3, 79296, Note_on_c, 1, 82, 80
3, 79296, Note_on_c, 1, 74, 80
3, 79484, Note_on_c, 1, 74, 0
3, 79484, Note_on_c, 1, 82, 0
3, 79488, Note_on_c, 1, 82, 80
3, 79488, Note_on_c, 1, 72, 80
3, 79868, Note_on_c, 1, 72, 0
3, 79868, Note_on_c, 1, 82, 0
3, 80064, Note_on_c, 1, 67, 80
3, 80064, Note_on_c, 1, 64, 80
3, 80064, Note_on_c, 1, 60, 80
3, 80636, Note_on_c, 1, 60, 0
3, 80636, Note_on_c, 1, 64, 0
3, 80636, Note_on_c, 1, 67, 0
3, 80640, Note_on_c, 1, 69, 80
3, 80640, Note_on_c, 1, 65, 80
3, 80640, Note_on_c, 1, 60, 80
3, 81020, Note_on_c, 1, 60, 0
3, 81020, Note_on_c, 1, 65, 0
3, 81020, Note_on_c, 1, 69, 0
3, 81792, Note_on_c, 1, 67, 80
3, 82172, Note_on_c, 1, 67, 0
3, 82752, Note_on_c, 1, 67, 80
3, 82940, Note_on_c, 1, 67, 0
3, 82944, Note_on_c, 1, 70, 80
3, 83516, Note_on_c, 1, 70, 0
3, 83520, Note_on_c, 1, 69, 80
3, 83612, Note_on_c, 1, 69, 0
3, 83616, Note_on_c, 1, 72, 80
3, 83708, Note_on_c, 1, 72, 0
3, 83712, Note_on_c, 1, 74, 80
3, 83804, Note_on_c, 1, 74, 0
3, 83808, Note_on_c, 1, 76, 80
3, 83900, Note_on_c, 1, 76, 0
3, 83904, Note_on_c, 1, 77, 80
3, 83996, Note_on_c, 1, 77, 0
3, 84000, Note_on_c, 1, 79, 80
3, 84092, Note_on_c, 1, 79, 0
3, 84096, Note_on_c, 1, 80, 80
3, 84096, Note_on_c, 1, 65, 80
3, 84476, Note_on_c, 1, 65, 0
3, 84476, Note_on_c, 1, 80, 0
3, 84480, Note_on_c, 1, 80, 80
3, 84480, Note_on_c, 1, 68, 80
3, 84668, Note_on_c, 1, 68, 0
3, 84668, Note_on_c, 1, 80, 0
3, 84672, Note_on_c, 1, 82, 80
3, 84716, Note_on_c, 1, 82, 0
3, 84720, Note_on_c, 1, 80, 80
3, 84720, Note_on_c, 1, 73, 80
3, 84812, Note_on_c, 1, 80, 0
3, 84864, Note_on_c, 1, 79, 80
3, 84956, Note_on_c, 1, 79, 0
3, 85056, Note_on_c, 1, 65, 80
3, 85056, Note_on_c, 1, 80, 80
3, 85100, Note_on_c, 1, 73, 0
3, 85148, Note_on_c, 1, 80, 0
3, 85244, Note_on_c, 1, 65, 0
3, 85248, Note_on_c, 1, 79, 80
3, 85248, Note_on_c, 1, 64, 80
3, 85628, Note_on_c, 1, 64, 0
3, 85628, Note_on_c, 1, 79, 0
3, 85632, Note_on_c, 1, 84, 80
3, 85632, Note_on_c, 1, 67, 80
3, 85820, Note_on_c, 1, 67, 0
3, 85820, Note_on_c, 1, 84, 0
3, 85824, Note_on_c, 1, 84, 80
3, 85824, Note_on_c, 1, 72, 80
3, 86108, Note_on_c, 1, 84, 0
3, 86112, Note_on_c, 1, 80, 80
3, 86204, Note_on_c, 1, 80, 0
3, 86204, Note_on_c, 1, 72, 0
3, 86208, Note_on_c, 1, 82, 80
3, 86208, Note_on_c, 1, 63, 80
3, 86300, Note_on_c, 1, 82, 0
3, 86304, Note_on_c, 1, 79, 80
3, 86396, Note_on_c, 1, 79, 0
3, 86396, Note_on_c, 1, 63, 0
3, 86400, Note_on_c, 1, 77, 80
3, 86400, Note_on_c, 1, 62, 80
3, 86780, Note_on_c, 1, 62, 0
3, 86780, Note_on_c, 1, 77, 0
3, 86784, Note_on_c, 1, 77, 80
3, 86784, Note_on_c, 1, 65, 80
3, 86972, Note_on_c, 1, 65, 0
3, 86972, Note_on_c, 1, 77, 0
3, 86976, Note_on_c, 1, 79, 80
3, 87020, Note_on_c, 1, 79, 0
3, 87024, Note_on_c, 1, 71, 80
3, 87024, Note_on_c, 1, 77, 80
3, 87116, Note_on_c, 1, 77, 0
3, 87116, Note_on_c, 1, 71, 0
3, 87168, Note_on_c, 1, 76, 80
3, 87260, Note_on_c, 1, 76, 0
3, 87360, Note_on_c, 1, 77, 80
3, 87360, Note_on_c, 1, 61, 80
3, 87452, Note_on_c, 1, 77, 0
3, 87548, Note_on_c, 1, 61, 0
3, 87552, Note_on_c, 1, 76, 80
3, 87552, Note_on_c, 1, 60, 80
3, 87932, Note_on_c, 1, 60, 0
3, 87932, Note_on_c, 1, 76, 0
3, 87936, Note_on_c, 1, 79, 80
3, 88124, Note_on_c, 1, 79, 0
3, 88128, Note_on_c, 1, 72, 80
3, 88316, Note_on_c, 1, 72, 0
3, 88320, Note_on_c, 1, 71, 80
3, 88508, Note_on_c, 1, 71, 0
3, 88512, Note_on_c, 1, 70, 80
3, 88700, Note_on_c, 1, 70, 0
3, 88704, Note_on_c, 1, 80, 80
3, 88704, Note_on_c, 1, 68, 80
3, 89084, Note_on_c, 1, 68, 0
3, 89084, Note_on_c, 1, 80, 0
3, 89088, Note_on_c, 1, 80, 80
3, 89276, Note_on_c, 1, 80, 0
3, 89280, Note_on_c, 1, 82, 80
3, 89324, Note_on_c, 1, 82, 0
3, 89328, Note_on_c, 1, 80, 80
3, 89420, Note_on_c, 1, 80, 0
3, 89472, Note_on_c, 1, 79, 80
3, 89564, Note_on_c, 1, 79, 0
3, 89664, Note_on_c, 1, 80, 80
3, 89756, Note_on_c, 1, 80, 0
3, 89856, Note_on_c, 1, 79, 80
3, 90236, Note_on_c, 1, 79, 0
3, 90240, Note_on_c, 1, 84, 80
3, 90428, Note_on_c, 1, 84, 0
3, 90432, Note_on_c, 1, 84, 80
3, 90716, Note_on_c, 1, 84, 0
3, 90720, Note_on_c, 1, 80, 80
3, 90816, Note_on_c, 1, 82, 80
3, 90860, Note_on_c, 1, 80, 0
3, 90908, Note_on_c, 1, 82, 0
3, 90912, Note_on_c, 1, 79, 80
3, 91004, Note_on_c, 1, 79, 0
3, 91008, Note_on_c, 1, 77, 80
3, 91008, Note_on_c, 1, 69, 80
3, 91388, Note_on_c, 1, 77, 0
3, 91392, Note_on_c, 1, 77, 80
3, 91580, Note_on_c, 1, 77, 0
3, 91580, Note_on_c, 1, 69, 0
3, 91584, Note_on_c, 1, 79, 80
3, 91628, Note_on_c, 1, 79, 0
3, 91632, Note_on_c, 1, 77, 80
3, 91724, Note_on_c, 1, 77, 0
3, 91776, Note_on_c, 1, 75, 80
3, 91868, Note_on_c, 1, 75, 0
3, 91968, Note_on_c, 1, 77, 80
3, 92060, Note_on_c, 1, 77, 0
3, 92160, Note_on_c, 1, 75, 80
3, 92540, Note_on_c, 1, 75, 0
3, 92544, Note_on_c, 1, 80, 80
3, 92732, Note_on_c, 1, 80, 0
3, 92736, Note_on_c, 1, 80, 80
3, 93020, Note_on_c, 1, 80, 0
3, 93024, Note_on_c, 1, 77, 80
3, 93116, Note_on_c, 1, 77, 0
3, 93120, Note_on_c, 1, 78, 80
3, 93212, Note_on_c, 1, 78, 0
3, 93216, Note_on_c, 1, 75, 80
3, 93308, Note_on_c, 1, 75, 0
3, 93312, Note_on_c, 1, 73, 80
3, 93692, Note_on_c, 1, 73, 0
3, 93696, Note_on_c, 1, 68, 80
3, 93696, Note_on_c, 1, 60, 80
3, 93884, Note_on_c, 1, 60, 0
3, 93884, Note_on_c, 1, 68, 0
3, 93888, Note_on_c, 1, 58, 80
3, 93888, Note_on_c, 1, 66, 80
3, 94268, Note_on_c, 1, 66, 0
3, 94268, Note_on_c, 1, 58, 0
3, 94272, Note_on_c, 1, 65, 80
3, 94272, Note_on_c, 1, 56, 80
3, 94460, Note_on_c, 1, 56, 0
3, 94460, Note_on_c, 1, 65, 0
3, 94464, Note_on_c, 1, 64, 80
3, 94464, Note_on_c, 1, 55, 80
3, 94844, Note_on_c, 1, 55, 0
3, 94844, Note_on_c, 1, 64, 0
3, 94848, Note_on_c, 1, 65, 80
3, 94848, Note_on_c, 1, 60, 80
3, 94940, Note_on_c, 1, 60, 0
3, 94940, Note_on_c, 1, 65, 0
3, 94944, Note_on_c, 1, 67, 80
3, 95036, Note_on_c, 1, 67, 0
3, 95040, Note_on_c, 1, 69, 80
3, 95040, Note_on_c, 1, 60, 80
3, 95228, Note_on_c, 1, 60, 0
3, 95228, Note_on_c, 1, 69, 0
3, 95808, Note_on_c, 1, 67, 80
3, 95808, Note_on_c, 1, 65, 80
3, 95808, Note_on_c, 1, 62, 80
3, 95996, Note_on_c, 1, 62, 0
3, 95996, Note_on_c, 1, 65, 0
3, 95996, Note_on_c, 1, 67, 0
3, 96000, Note_on_c, 1, 67, 80
3, 96000, Note_on_c, 1, 65, 80
3, 96000, Note_on_c, 1, 62, 80
3, 96188, Note_on_c, 1, 62, 0
3, 96188, Note_on_c, 1, 65, 0
3, 96188, Note_on_c, 1, 67, 0
3, 96384, Note_on_c, 1, 67, 80
3, 96384, Note_on_c, 1, 64, 80
3, 96384, Note_on_c, 1, 58, 80
3, 96572, Note_on_c, 1, 58, 0
3, 96572, Note_on_c, 1, 64, 0
3, 96572, Note_on_c, 1, 67, 0
3, 96576, Note_on_c, 1, 67, 80
3, 96576, Note_on_c, 1, 64, 80
3, 96576, Note_on_c, 1, 58, 80
3, 96764, Note_on_c, 1, 58, 0
3, 96764, Note_on_c, 1, 64, 0
3, 96764, Note_on_c, 1, 67, 0
3, 96960, Note_on_c, 1, 65, 80
3, 96960, Note_on_c, 1, 60, 80
3, 96960, Note_on_c, 1, 57, 80
3, 97148, Note_on_c, 1, 57, 0
3, 97148, Note_on_c, 1, 60, 0
3, 97148, Note_on_c, 1, 65, 0
3, 97152, Note_on_c, 1, 65, 80
3, 97152, Note_on_c, 1, 60, 80
3, 97152, Note_on_c, 1, 57, 80
3, 97340, Note_on_c, 1, 57, 0
3, 97340, Note_on_c, 1, 60, 0
3, 97340, Note_on_c, 1, 65, 0
3, 97536, Note_on_c, 1, 72, 80
3, 97536, Note_on_c, 1, 65, 80
3, 97536, Note_on_c, 1, 60, 80
3, 97724, Note_on_c, 1, 60, 0
3, 97724, Note_on_c, 1, 65, 0
3, 97724, Note_on_c, 1, 72, 0
3, 97728, Note_on_c, 1, 72, 80
3, 97728, Note_on_c, 1, 65, 80
3, 97728, Note_on_c, 1, 60, 80
3, 97916, Note_on_c, 1, 60, 0
3, 97916, Note_on_c, 1, 65, 0
3, 97916, Note_on_c, 1, 72, 0
3, 98112, Note_on_c, 1, 70, 80
3, 98112, Note_on_c, 1, 64, 80
3, 98112, Note_on_c, 1, 60, 80
3, 98300, Note_on_c, 1, 60, 0
3, 98300, Note_on_c, 1, 64, 0
3, 98300, Note_on_c, 1, 70, 0
3, 98304, Note_on_c, 1, 70, 80
3, 98304, Note_on_c, 1, 64, 80
3, 98304, Note_on_c, 1, 60, 80
3, 98492, Note_on_c, 1, 60, 0
3, 98492, Note_on_c, 1, 64, 0
3, 98492, Note_on_c, 1, 70, 0
3, 98688, Note_on_c, 1, 67, 80
3, 98688, Note_on_c, 1, 64, 80
3, 98688, Note_on_c, 1, 60, 80
3, 98876, Note_on_c, 1, 60, 0
3, 98876, Note_on_c, 1, 64, 0
3, 98876, Note_on_c, 1, 67, 0
3, 98880, Note_on_c, 1, 67, 80
3, 98880, Note_on_c, 1, 64, 80
3, 98880, Note_on_c, 1, 60, 80
3, 99068, Note_on_c, 1, 60, 0
3, 99068, Note_on_c, 1, 64, 0
3, 99068, Note_on_c, 1, 67, 0
3, 99264, Note_on_c, 1, 60, 80
3, 99264, Note_on_c, 1, 65, 80
3, 99264, Note_on_c, 1, 57, 80
3, 99452, Note_on_c, 1, 57, 0
3, 99452, Note_on_c, 1, 65, 0
3, 99452, Note_on_c, 1, 60, 0
3, 99456, Note_on_c, 1, 60, 80
3, 99456, Note_on_c, 1, 65, 80
3, 99456, Note_on_c, 1, 57, 80
3, 99644, Note_on_c, 1, 57, 0
3, 99644, Note_on_c, 1, 65, 0
3, 99644, Note_on_c, 1, 60, 0
3, 99840, Note_on_c, 1, 72, 80
3, 99840, Note_on_c, 1, 65, 80
3, 99840, Note_on_c, 1, 60, 80
3, 100028, Note_on_c, 1, 60, 0
3, 100028, Note_on_c, 1, 65, 0
3, 100028, Note_on_c, 1, 72, 0
3, 100032, Note_on_c, 1, 72, 80
3, 100032, Note_on_c, 1, 65, 80
3, 100032, Note_on_c, 1, 60, 80
3, 100220, Note_on_c, 1, 60, 0
3, 100220, Note_on_c, 1, 65, 0
3, 100220, Note_on_c, 1, 72, 0
3, 100416, Note_on_c, 1, 70, 80
3, 100416, Note_on_c, 1, 64, 80
3, 100416, Note_on_c, 1, 60, 80
3, 100604, Note_on_c, 1, 60, 0
3, 100604, Note_on_c, 1, 64, 0
3, 100604, Note_on_c, 1, 70, 0
3, 100608, Note_on_c, 1, 70, 80
3, 100608, Note_on_c, 1, 64, 80
3, 100608, Note_on_c, 1, 60, 80
3, 100796, Note_on_c, 1, 60, 0
3, 100796, Note_on_c, 1, 64, 0
3, 100796, Note_on_c, 1, 70, 0
3, 100992, Note_on_c, 1, 67, 80
3, 100992, Note_on_c, 1, 64, 80
3, 100992, Note_on_c, 1, 60, 80
3, 101180, Note_on_c, 1, 60, 0
3, 101180, Note_on_c, 1, 64, 0
3, 101180, Note_on_c, 1, 67, 0
3, 101184, Note_on_c, 1, 67, 80
3, 101184, Note_on_c, 1, 64, 80
3, 101184, Note_on_c, 1, 60, 80
3, 101372, Note_on_c, 1, 60, 0
3, 101372, Note_on_c, 1, 64, 0
3, 101372, Note_on_c, 1, 67, 0
3, 101376, Note_on_c, 1, 69, 80
3, 101376, Note_on_c, 1, 65, 80
3, 101376, Note_on_c, 1, 60, 80
3, 101756, Note_on_c, 1, 60, 0
3, 101756, Note_on_c, 1, 65, 0
3, 101756, Note_on_c, 1, 69, 0
3, 102144, Note_on_c, 1, 72, 80
3, 102144, Note_on_c, 1, 65, 80
3, 102144, Note_on_c, 1, 60, 80
3, 102332, Note_on_c, 1, 60, 0
3, 102332, Note_on_c, 1, 65, 0
3, 102332, Note_on_c, 1, 72, 0
3, 102336, Note_on_c, 1, 65, 80
3, 102336, Note_on_c, 1, 72, 80
3, 102336, Note_on_c, 1, 60, 80
3, 102524, Note_on_c, 1, 60, 0
3, 102524, Note_on_c, 1, 72, 0
3, 102524, Note_on_c, 1, 65, 0
3, 102528, Note_on_c, 1, 67, 80
3, 102528, Note_on_c, 1, 62, 80
3, 102908, Note_on_c, 1, 62, 0
3, 102908, Note_on_c, 1, 67, 0
3, 103296, Note_on_c, 1, 74, 80
3, 103296, Note_on_c, 1, 67, 80
3, 103296, Note_on_c, 1, 65, 80
3, 103484, Note_on_c, 1, 65, 0
3, 103484, Note_on_c, 1, 67, 0
3, 103484, Note_on_c, 1, 74, 0
3, 103488, Note_on_c, 1, 74, 80
3, 103488, Note_on_c, 1, 67, 80
3, 103488, Note_on_c, 1, 65, 80
3, 103676, Note_on_c, 1, 65, 0
3, 103676, Note_on_c, 1, 67, 0
3, 103676, Note_on_c, 1, 74, 0
3, 103680, Note_on_c, 1, 69, 80
3, 103680, Note_on_c, 1, 65, 80
3, 103868, Note_on_c, 1, 65, 0
3, 103868, Note_on_c, 1, 69, 0
3, 103872, Note_on_c, 1, 69, 80
3, 103872, Note_on_c, 1, 65, 80
3, 104060, Note_on_c, 1, 65, 0
3, 104060, Note_on_c, 1, 69, 0
3, 104064, Note_on_c, 1, 69, 80
3, 104064, Note_on_c, 1, 65, 80
3, 104252, Note_on_c, 1, 65, 0
3, 104252, Note_on_c, 1, 69, 0
3, 104256, Note_on_c, 1, 67, 80
3, 104256, Note_on_c, 1, 64, 80
3, 104256, Note_on_c, 1, 60, 80
3, 104444, Note_on_c, 1, 60, 0
3, 104444, Note_on_c, 1, 64, 0
3, 104444, Note_on_c, 1, 67, 0
3, 104448, Note_on_c, 1, 67, 80
3, 104448, Note_on_c, 1, 64, 80
3, 104448, Note_on_c, 1, 60, 80
3, 104636, Note_on_c, 1, 60, 0
3, 104636, Note_on_c, 1, 64, 0
3, 104636, Note_on_c, 1, 67, 0
3, 104640, Note_on_c, 1, 67, 80
3, 104640, Note_on_c, 1, 64, 80
3, 104640, Note_on_c, 1, 60, 80
3, 104828, Note_on_c, 1, 60, 0
3, 104828, Note_on_c, 1, 64, 0
3, 104828, Note_on_c, 1, 67, 0
3, 104832, Note_on_c, 1, 72, 80
3, 104832, Note_on_c, 1, 65, 80
3, 104832, Note_on_c, 1, 60, 80
3, 105212, Note_on_c, 1, 60, 0
3, 105212, Note_on_c, 1, 65, 0
3, 105212, Note_on_c, 1, 72, 0
3, 105600, Note_on_c, 1, 69, 80
3, 105600, Note_on_c, 1, 65, 80
3, 105600, Note_on_c, 1, 60, 80
3, 105692, Note_on_c, 1, 60, 0
3, 105692, Note_on_c, 1, 65, 0
3, 105692, Note_on_c, 1, 69, 0
3, 105792, Note_on_c, 1, 72, 80
3, 105792, Note_on_c, 1, 65, 80
3, 105792, Note_on_c, 1, 60, 80
3, 105884, Note_on_c, 1, 60, 0
3, 105884, Note_on_c, 1, 65, 0
3, 105884, Note_on_c, 1, 72, 0
3, 105984, Note_on_c, 1, 74, 80
3, 105984, Note_on_c, 1, 65, 80
3, 105984, Note_on_c, 1, 62, 80
3, 106364, Note_on_c, 1, 62, 0
3, 106364, Note_on_c, 1, 65, 0
3, 106364, Note_on_c, 1, 74, 0
3, 106752, Note_on_c, 1, 74, 80
3, 106752, Note_on_c, 1, 65, 80
3, 106844, Note_on_c, 1, 65, 0
3, 106844, Note_on_c, 1, 74, 0
3, 106944, Note_on_c, 1, 77, 80
3, 106944, Note_on_c, 1, 65, 80
3, 107036, Note_on_c, 1, 65, 0
3, 107036, Note_on_c, 1, 77, 0
3, 107136, Note_on_c, 1, 68, 80
3, 107136, Note_on_c, 1, 65, 80
3, 107136, Note_on_c, 1, 62, 80
3, 108284, Note_on_c, 1, 62, 0
3, 108284, Note_on_c, 1, 65, 0
3, 108284, Note_on_c, 1, 68, 0
3, 108288, Note_on_c, 1, 69, 80
3, 108288, Note_on_c, 1, 65, 80
3, 108288, Note_on_c, 1, 62, 80
3, 108476, Note_on_c, 1, 62, 0
3, 108476, Note_on_c, 1, 65, 0
3, 108476, Note_on_c, 1, 69, 0
3, 108480, Note_on_c, 1, 76, 80
3, 108668, Note_on_c, 1, 76, 0
3, 108672, Note_on_c, 1, 77, 80
3, 108860, Note_on_c, 1, 77, 0
3, 108864, Note_on_c, 1, 80, 80
3, 109052, Note_on_c, 1, 80, 0
3, 109056, Note_on_c, 1, 76, 80
3, 109244, Note_on_c, 1, 76, 0
3, 109248, Note_on_c, 1, 77, 80
3, 109436, Note_on_c, 1, 77, 0
3, 109440, Note_on_c, 1, 81, 80
3, 109628, Note_on_c, 1, 81, 0
3, 109632, Note_on_c, 1, 69, 80
3, 109632, Note_on_c, 1, 65, 80
3, 109632, Note_on_c, 1, 60, 80
3, 109820, Note_on_c, 1, 60, 0
3, 109820, Note_on_c, 1, 65, 0
3, 109820, Note_on_c, 1, 69, 0
3, 109824, Note_on_c, 1, 69, 80
3, 109824, Note_on_c, 1, 65, 80
3, 109824, Note_on_c, 1, 60, 80
3, 110012, Note_on_c, 1, 60, 0
3, 110012, Note_on_c, 1, 65, 0
3, 110012, Note_on_c, 1, 69, 0
3, 110016, Note_on_c, 1, 69, 80
3, 110016, Note_on_c, 1, 65, 80
3, 110016, Note_on_c, 1, 60, 80
3, 110204, Note_on_c, 1, 60, 0
3, 110204, Note_on_c, 1, 65, 0
3, 110204, Note_on_c, 1, 69, 0
3, 110208, Note_on_c, 1, 69, 80
3, 110208, Note_on_c, 1, 65, 80
3, 110208, Note_on_c, 1, 60, 80
3, 110396, Note_on_c, 1, 60, 0
3, 110396, Note_on_c, 1, 65, 0
3, 110396, Note_on_c, 1, 69, 0
3, 110400, Note_on_c, 1, 69, 80
3, 110400, Note_on_c, 1, 65, 80
3, 110400, Note_on_c, 1, 60, 80
3, 110588, Note_on_c, 1, 60, 0
3, 110588, Note_on_c, 1, 65, 0
3, 110588, Note_on_c, 1, 69, 0
3, 110592, Note_on_c, 1, 67, 80
3, 110592, Note_on_c, 1, 65, 80
3, 110592, Note_on_c, 1, 60, 80
3, 110780, Note_on_c, 1, 60, 0
3, 110780, Note_on_c, 1, 65, 0
3, 110780, Note_on_c, 1, 67, 0
3, 110784, Note_on_c, 1, 67, 80
3, 110784, Note_on_c, 1, 65, 80
3, 110784, Note_on_c, 1, 60, 80
3, 110972, Note_on_c, 1, 60, 0
3, 110972, Note_on_c, 1, 65, 0
3, 110972, Note_on_c, 1, 67, 0
3, 110976, Note_on_c, 1, 67, 80
3, 110976, Note_on_c, 1, 65, 80
3, 110976, Note_on_c, 1, 60, 80
3, 111164, Note_on_c, 1, 60, 0
3, 111164, Note_on_c, 1, 65, 0
3, 111164, Note_on_c, 1, 67, 0
3, 111168, Note_on_c, 1, 67, 80
3, 111168, Note_on_c, 1, 64, 80
3, 111168, Note_on_c, 1, 58, 80
3, 111356, Note_on_c, 1, 58, 0
3, 111356, Note_on_c, 1, 64, 0
3, 111356, Note_on_c, 1, 67, 0
3, 111360, Note_on_c, 1, 67, 80
3, 111360, Note_on_c, 1, 64, 80
3, 111360, Note_on_c, 1, 58, 80
3, 111548, Note_on_c, 1, 58, 0
3, 111548, Note_on_c, 1, 64, 0
3, 111548, Note_on_c, 1, 67, 0
3, 111552, Note_on_c, 1, 67, 80
3, 111552, Note_on_c, 1, 64, 80
3, 111552, Note_on_c, 1, 58, 80
3, 111740, Note_on_c, 1, 58, 0
3, 111740, Note_on_c, 1, 64, 0
3, 111740, Note_on_c, 1, 67, 0
3, 111744, Note_on_c, 1, 65, 80
3, 111744, Note_on_c, 1, 60, 80
3, 111744, Note_on_c, 1, 57, 80
3, 111932, Note_on_c, 1, 57, 0
3, 111932, Note_on_c, 1, 60, 0
3, 111932, Note_on_c, 1, 65, 0
3, 111936, Note_on_c, 1, 65, 80
3, 112124, Note_on_c, 1, 65, 0
3, 112128, Note_on_c, 1, 65, 80
3, 112316, Note_on_c, 1, 65, 0
3, 112320, Note_on_c, 1, 65, 80
3, 112508, Note_on_c, 1, 65, 0
3, 112512, Note_on_c, 1, 65, 80
3, 112700, Note_on_c, 1, 65, 0
3, 112704, Note_on_c, 1, 65, 80
3, 112892, Note_on_c, 1, 65, 0
3, 112896, Note_on_c, 1, 78, 108
3, 112896, Note_on_c, 1, 75, 108
3, 112896, Note_on_c, 1, 72, 108
3, 112896, Note_on_c, 1, 69, 108
3, 113468, Note_on_c, 1, 69, 0
3, 113468, Note_on_c, 1, 78, 0
3, 113468, Note_on_c, 1, 75, 0
3, 113468, Note_on_c, 1, 72, 0
3, 113472, Note_on_c, 1, 78, 80
3, 113472, Note_on_c, 1, 75, 80
3, 113472, Note_on_c, 1, 72, 80
3, 113472, Note_on_c, 1, 69, 80
3, 113660, Note_on_c, 1, 69, 0
3, 113660, Note_on_c, 1, 78, 0
3, 113660, Note_on_c, 1, 75, 0
3, 113660, Note_on_c, 1, 72, 0
3, 113664, Note_on_c, 1, 77, 80
3, 113852, Note_on_c, 1, 77, 0
3, 113856, Note_on_c, 1, 75, 80
3, 114044, Note_on_c, 1, 75, 0
3, 114048, Note_on_c, 1, 73, 80
3, 114048, Note_on_c, 1, 70, 80
3, 114048, Note_on_c, 1, 65, 80
3, 114428, Note_on_c, 1, 65, 0
3, 114428, Note_on_c, 1, 70, 0
3, 114428, Note_on_c, 1, 73, 0
3, 115200, Note_on_c, 1, 60, 80
3, 115388, Note_on_c, 1, 60, 0
3, 115392, Note_on_c, 1, 63, 80
3, 115580, Note_on_c, 1, 63, 0
3, 115584, Note_on_c, 1, 65, 80
3, 115772, Note_on_c, 1, 65, 0
3, 115776, Note_on_c, 1, 58, 80
3, 115964, Note_on_c, 1, 58, 0
3, 115968, Note_on_c, 1, 61, 80
3, 116156, Note_on_c, 1, 61, 0
3, 116160, Note_on_c, 1, 65, 80
3, 116348, Note_on_c, 1, 65, 0
3, 116352, Note_on_c, 1, 57, 80
3, 116540, Note_on_c, 1, 57, 0
3, 116544, Note_on_c, 1, 65, 80
3, 116732, Note_on_c, 1, 65, 0
3, 116736, Note_on_c, 1, 65, 80
3, 116924, Note_on_c, 1, 65, 0
3, 116928, Note_on_c, 1, 65, 80
3, 117116, Note_on_c, 1, 65, 0
3, 117120, Note_on_c, 1, 65, 80
3, 117308, Note_on_c, 1, 65, 0
3, 117312, Note_on_c, 1, 65, 80
3, 117500, Note_on_c, 1, 65, 0
3, 117504, Note_on_c, 1, 81, 108
3, 117504, Note_on_c, 1, 78, 108
3, 117504, Note_on_c, 1, 75, 108
3, 117504, Note_on_c, 1, 72, 108
3, 118076, Note_on_c, 1, 72, 0
3, 118076, Note_on_c, 1, 81, 0
3, 118076, Note_on_c, 1, 78, 0
3, 118076, Note_on_c, 1, 75, 0
3, 118080, Note_on_c, 1, 81, 80
3, 118080, Note_on_c, 1, 78, 80
3, 118080, Note_on_c, 1, 75, 80
3, 118080, Note_on_c, 1, 72, 80
3, 118268, Note_on_c, 1, 72, 0
3, 118268, Note_on_c, 1, 81, 0
3, 118268, Note_on_c, 1, 78, 0
3, 118268, Note_on_c, 1, 75, 0
3, 118272, Note_on_c, 1, 77, 80
3, 118460, Note_on_c, 1, 77, 0
3, 118464, Note_on_c, 1, 75, 80
3, 118652, Note_on_c, 1, 75, 0
3, 118656, Note_on_c, 1, 82, 80
3, 118656, Note_on_c, 1, 77, 80
3, 118656, Note_on_c, 1, 73, 80
3, 119036, Note_on_c, 1, 73, 0
3, 119036, Note_on_c, 1, 77, 0
3, 119036, Note_on_c, 1, 82, 0
3, 120000, Note_on_c, 1, 69, 80
3, 120188, Note_on_c, 1, 69, 0
3, 120192, Note_on_c, 1, 70, 80
3, 120380, Note_on_c, 1, 70, 0
3, 120384, Note_on_c, 1, 73, 80
3, 120572, Note_on_c, 1, 73, 0
3, 120576, Note_on_c, 1, 72, 80
3, 120764, Note_on_c, 1, 72, 0
3, 120768, Note_on_c, 1, 70, 80
3, 120956, Note_on_c, 1, 70, 0
3, 120960, Note_on_c, 1, 69, 80
3, 121340, Note_on_c, 1, 69, 0
3, 122688, Note_on_c, 1, 76, 80
3, 122688, Note_on_c, 1, 73, 80
3, 122876, Note_on_c, 1, 73, 0
3, 122876, Note_on_c, 1, 76, 0
3, 122880, Note_on_c, 1, 72, 80
3, 123068, Note_on_c, 1, 72, 0
3, 123072, Note_on_c, 1, 70, 80
3, 123260, Note_on_c, 1, 70, 0
3, 123264, Note_on_c, 1, 77, 80
3, 123264, Note_on_c, 1, 69, 80
3, 123452, Note_on_c, 1, 69, 0
3, 123452, Note_on_c, 1, 77, 0
3, 124992, Note_on_c, 1, 64, 80
3, 124992, Note_on_c, 1, 61, 80
3, 125180, Note_on_c, 1, 61, 0
3, 125180, Note_on_c, 1, 64, 0
3, 125184, Note_on_c, 1, 60, 80
3, 125372, Note_on_c, 1, 60, 0
3, 125376, Note_on_c, 1, 58, 80
3, 125564, Note_on_c, 1, 58, 0
3, 125568, Note_on_c, 1, 65, 80
3, 125568, Note_on_c, 1, 57, 80
3, 125756, Note_on_c, 1, 57, 0
3, 125756, Note_on_c, 1, 65, 0
3, 126912, Note_on_c, 1, 70, 80
3, 127100, Note_on_c, 1, 70, 0
3, 127104, Note_on_c, 1, 68, 80
3, 127292, Note_on_c, 1, 68, 0
3, 127296, Note_on_c, 1, 66, 80
3, 127388, Note_on_c, 1, 66, 0
3, 127488, Note_on_c, 1, 66, 80
3, 127676, Note_on_c, 1, 66, 0
3, 127680, Note_on_c, 1, 65, 80
3, 127868, Note_on_c, 1, 65, 0
3, 127872, Note_on_c, 1, 64, 80
3, 127964, Note_on_c, 1, 64, 0
3, 128064, Note_on_c, 1, 69, 80
3, 128252, Note_on_c, 1, 69, 0
3, 128256, Note_on_c, 1, 70, 80
3, 128444, Note_on_c, 1, 70, 0
3, 128448, Note_on_c, 1, 73, 80
3, 128636, Note_on_c, 1, 73, 0
3, 128640, Note_on_c, 1, 72, 80
3, 128828, Note_on_c, 1, 72, 0
3, 128832, Note_on_c, 1, 70, 80
3, 129020, Note_on_c, 1, 70, 0
3, 129024, Note_on_c, 1, 69, 80
3, 129116, Note_on_c, 1, 69, 0
3, 129216, Note_on_c, 1, 69, 80
3, 129216, Note_on_c, 1, 65, 80
3, 129404, Note_on_c, 1, 65, 0
3, 129404, Note_on_c, 1, 69, 0
3, 129408, Note_on_c, 1, 70, 80
3, 129408, Note_on_c, 1, 67, 80
3, 129596, Note_on_c, 1, 67, 0
3, 129596, Note_on_c, 1, 70, 0
3, 129600, Note_on_c, 1, 72, 80
3, 129600, Note_on_c, 1, 69, 80
3, 129692, Note_on_c, 1, 69, 0
3, 129692, Note_on_c, 1, 72, 0
3, 129792, Note_on_c, 1, 72, 80
3, 129792, Note_on_c, 1, 69, 80
3, 129980, Note_on_c, 1, 69, 0
3, 129980, Note_on_c, 1, 72, 0
3, 129984, Note_on_c, 1, 74, 80
3, 129984, Note_on_c, 1, 70, 80
3, 130172, Note_on_c, 1, 70, 0
3, 130172, Note_on_c, 1, 74, 0
3, 130176, Note_on_c, 1, 75, 80
3, 130176, Note_on_c, 1, 72, 80
3, 131324, Note_on_c, 1, 72, 0
3, 131324, Note_on_c, 1, 75, 0
3, 131328, Note_on_c, 1, 74, 80
3, 131328, Note_on_c, 1, 70, 80
3, 131516, Note_on_c, 1, 70, 0
3, 131516, Note_on_c, 1, 74, 0
3, 131712, Note_on_c, 1, 74, 80
3, 131712, Note_on_c, 1, 70, 80
3, 131804, Note_on_c, 1, 70, 0
3, 131804, Note_on_c, 1, 74, 0
3, 131904, Note_on_c, 1, 74, 80
3, 131904, Note_on_c, 1, 70, 80
3, 131996, Note_on_c, 1, 70, 0
3, 131996, Note_on_c, 1, 74, 0
3, 132096, Note_on_c, 1, 74, 80
3, 132096, Note_on_c, 1, 70, 80
3, 132188, Note_on_c, 1, 70, 0
3, 132188, Note_on_c, 1, 74, 0
3, 132288, Note_on_c, 1, 74, 80
3, 132288, Note_on_c, 1, 70, 80
3, 132380, Note_on_c, 1, 70, 0
3, 132380, Note_on_c, 1, 74, 0
3, 132480, Note_on_c, 1, 72, 80
3, 132480, Note_on_c, 1, 69, 80
3, 133052, Note_on_c, 1, 69, 0
3, 133052, Note_on_c, 1, 72, 0
3, 133056, Note_on_c, 1, 70, 80
3, 133244, Note_on_c, 1, 70, 0
3, 133824, Note_on_c, 1, 70, 80
3, 133824, Note_on_c, 1, 67, 80
3, 133916, Note_on_c, 1, 67, 0
3, 133916, Note_on_c, 1, 70, 0
3, 134016, Note_on_c, 1, 70, 80
3, 134016, Note_on_c, 1, 67, 80
3, 134108, Note_on_c, 1, 67, 0
3, 134108, Note_on_c, 1, 70, 0
3, 134400, Note_on_c, 1, 72, 80
3, 134400, Note_on_c, 1, 67, 80
3, 134492, Note_on_c, 1, 67, 0
3, 134492, Note_on_c, 1, 72, 0
3, 134592, Note_on_c, 1, 72, 80
3, 134592, Note_on_c, 1, 67, 80
3, 134684, Note_on_c, 1, 67, 0
3, 134684, Note_on_c, 1, 72, 0
3, 134784, Note_on_c, 1, 65, 80
3, 134972, Note_on_c, 1, 65, 0
3, 134976, Note_on_c, 1, 67, 80
3, 135164, Note_on_c, 1, 67, 0
3, 135168, Note_on_c, 1, 68, 80
3, 135356, Note_on_c, 1, 68, 0
3, 135360, Note_on_c, 1, 69, 80
3, 135548, Note_on_c, 1, 69, 0
3, 135744, Note_on_c, 1, 70, 80
3, 135836, Note_on_c, 1, 70, 0
3, 135840, Note_on_c, 1, 72, 80
3, 135932, Note_on_c, 1, 72, 0
3, 135936, Note_on_c, 1, 74, 80
3, 135936, Note_on_c, 1, 70, 80
3, 136028, Note_on_c, 1, 70, 0
3, 136028, Note_on_c, 1, 74, 0
3, 136320, Note_on_c, 1, 74, 80
3, 136320, Note_on_c, 1, 70, 80
3, 136412, Note_on_c, 1, 70, 0
3, 136412, Note_on_c, 1, 74, 0
3, 136512, Note_on_c, 1, 74, 80
3, 136512, Note_on_c, 1, 70, 80
3, 136604, Note_on_c, 1, 70, 0
3, 136604, Note_on_c, 1, 74, 0
3, 136704, Note_on_c, 1, 74, 80
3, 136704, Note_on_c, 1, 70, 80
3, 136796, Note_on_c, 1, 70, 0
3, 136796, Note_on_c, 1, 74, 0
3, 136896, Note_on_c, 1, 74, 80
3, 136896, Note_on_c, 1, 70, 80
3, 136988, Note_on_c, 1, 70, 0
3, 136988, Note_on_c, 1, 74, 0
3, 137088, Note_on_c, 1, 75, 80
3, 137088, Note_on_c, 1, 72, 80
3, 137660, Note_on_c, 1, 72, 0
3, 137660, Note_on_c, 1, 75, 0
3, 137664, Note_on_c, 1, 74, 80
3, 137664, Note_on_c, 1, 70, 80
3, 137852, Note_on_c, 1, 70, 0
3, 137852, Note_on_c, 1, 74, 0
3, 138240, Note_on_c, 1, 72, 80
3, 138240, Note_on_c, 1, 67, 80
3, 138428, Note_on_c, 1, 67, 0
3, 138428, Note_on_c, 1, 72, 0
3, 138816, Note_on_c, 1, 63, 80
3, 138816, Note_on_c, 1, 60, 80
3, 139004, Note_on_c, 1, 60, 0
3, 139004, Note_on_c, 1, 63, 0
3, 139392, Note_on_c, 1, 82, 108
3, 139392, Note_on_c, 1, 74, 108
3, 140732, Note_on_c, 1, 74, 0
3, 140732, Note_on_c, 1, 82, 0
3, 140736, Note_on_c, 1, 77, 108
3, 140736, Note_on_c, 1, 74, 108
3, 140828, Note_on_c, 1, 74, 0
3, 140828, Note_on_c, 1, 77, 0
3, 140928, Note_on_c, 1, 86, 108
3, 140928, Note_on_c, 1, 82, 108
3, 141020, Note_on_c, 1, 82, 0
3, 141020, Note_on_c, 1, 86, 0
3, 141120, Note_on_c, 1, 87, 108
3, 141120, Note_on_c, 1, 84, 108
3, 141212, Note_on_c, 1, 84, 0
3, 141212, Note_on_c, 1, 87, 0
3, 141312, Note_on_c, 1, 84, 108
3, 141312, Note_on_c, 1, 81, 108
3, 141404, Note_on_c, 1, 81, 0
3, 141404, Note_on_c, 1, 84, 0
3, 141504, Note_on_c, 1, 81, 108
3, 141504, Note_on_c, 1, 75, 108
3, 141596, Note_on_c, 1, 75, 0
3, 141596, Note_on_c, 1, 81, 0
3, 141696, Note_on_c, 1, 82, 108
3, 141696, Note_on_c, 1, 74, 108
3, 143036, Note_on_c, 1, 74, 0
3, 143036, Note_on_c, 1, 82, 0
3, 143040, Note_on_c, 1, 77, 108
3, 143040, Note_on_c, 1, 74, 108
3, 143132, Note_on_c, 1, 74, 0
3, 143132, Note_on_c, 1, 77, 0
3, 143232, Note_on_c, 1, 86, 108
3, 143232, Note_on_c, 1, 82, 108
3, 143324, Note_on_c, 1, 82, 0
3, 143324, Note_on_c, 1, 86, 0
3, 143424, Note_on_c, 1, 87, 108
3, 143424, Note_on_c, 1, 84, 108
3, 143516, Note_on_c, 1, 84, 0
3, 143516, Note_on_c, 1, 87, 0
3, 143616, Note_on_c, 1, 84, 108
3, 143616, Note_on_c, 1, 81, 108
3, 143708, Note_on_c, 1, 81, 0
3, 143708, Note_on_c, 1, 84, 0
3, 143808, Note_on_c, 1, 81, 108
3, 143808, Note_on_c, 1, 75, 108
3, 143900, Note_on_c, 1, 75, 0
3, 143900, Note_on_c, 1, 81, 0
3, 144000, Note_on_c, 1, 82, 108
3, 144000, Note_on_c, 1, 74, 108
3, 144188, Note_on_c, 1, 74, 0
3, 144188, Note_on_c, 1, 82, 0
3, 144192, Note_on_c, 1, 77, 108
3, 144284, Note_on_c, 1, 77, 0
3, 144384, Note_on_c, 1, 86, 108
3, 144476, Note_on_c, 1, 86, 0
3, 144576, Note_on_c, 1, 87, 108
3, 144576, Note_on_c, 1, 72, 108
3, 144668, Note_on_c, 1, 72, 0
3, 144668, Note_on_c, 1, 87, 0
3, 144768, Note_on_c, 1, 84, 108
3, 144768, Note_on_c, 1, 65, 108
3, 144860, Note_on_c, 1, 65, 0
3, 144860, Note_on_c, 1, 84, 0
3, 144960, Note_on_c, 1, 81, 108
3, 144960, Note_on_c, 1, 75, 108
3, 145052, Note_on_c, 1, 75, 0
3, 145052, Note_on_c, 1, 81, 0
3, 145152, Note_on_c, 1, 82, 108
3, 145152, Note_on_c, 1, 74, 108
3, 145340, Note_on_c, 1, 74, 0
3, 145340, Note_on_c, 1, 82, 0
3, 145344, Note_on_c, 1, 77, 108
3, 145344, Note_on_c, 1, 70, 108
3, 145436, Note_on_c, 1, 70, 0
3, 145436, Note_on_c, 1, 77, 0
3, 145536, Note_on_c, 1, 86, 108
3, 145536, Note_on_c, 1, 65, 108
3, 145628, Note_on_c, 1, 65, 0
3, 145628, Note_on_c, 1, 86, 0
3, 145728, Note_on_c, 1, 87, 108
3, 145728, Note_on_c, 1, 72, 108
3, 145820, Note_on_c, 1, 72, 0
3, 145820, Note_on_c, 1, 87, 0
3, 145920, Note_on_c, 1, 84, 108
3, 145920, Note_on_c, 1, 65, 108
3, 146012, Note_on_c, 1, 65, 0
3, 146012, Note_on_c, 1, 84, 0
3, 146112, Note_on_c, 1, 81, 108
3, 146112, Note_on_c, 1, 75, 108
3, 146204, Note_on_c, 1, 75, 0
3, 146204, Note_on_c, 1, 81, 0
3, 146304, Note_on_c, 1, 82, 108
3, 146304, Note_on_c, 1, 74, 108
3, 146492, Note_on_c, 1, 74, 0
3, 146492, Note_on_c, 1, 82, 0
3, 146496, Note_on_c, 1, 77, 108
3, 146496, Note_on_c, 1, 70, 108
3, 146588, Note_on_c, 1, 70, 0
3, 146588, Note_on_c, 1, 77, 0
3, 146688, Note_on_c, 1, 86, 108
3, 146688, Note_on_c, 1, 65, 108
3, 146780, Note_on_c, 1, 65, 0
3, 146780, Note_on_c, 1, 86, 0
3, 146880, Note_on_c, 1, 84, 108
3, 146880, Note_on_c, 1, 69, 108
3, 146972, Note_on_c, 1, 69, 0
3, 146972, Note_on_c, 1, 84, 0
3, 147072, Note_on_c, 1, 81, 108
3, 147072, Note_on_c, 1, 62, 108
3, 147164, Note_on_c, 1, 62, 0
3, 147164, Note_on_c, 1, 81, 0
3, 147264, Note_on_c, 1, 78, 108
3, 147264, Note_on_c, 1, 72, 108
3, 147356, Note_on_c, 1, 72, 0
3, 147356, Note_on_c, 1, 78, 0
3, 147456, Note_on_c, 1, 79, 108
3, 147456, Note_on_c, 1, 70, 108
3, 147644, Note_on_c, 1, 70, 0
3, 147644, Note_on_c, 1, 79, 0
3, 147648, Note_on_c, 1, 74, 108
3, 147648, Note_on_c, 1, 67, 108
3, 147740, Note_on_c, 1, 67, 0
3, 147740, Note_on_c, 1, 74, 0
3, 147840, Note_on_c, 1, 82, 108
3, 147840, Note_on_c, 1, 62, 108
3, 147932, Note_on_c, 1, 62, 0
3, 147932, Note_on_c, 1, 82, 0
3, 148032, Note_on_c, 1, 84, 108
3, 148032, Note_on_c, 1, 69, 108
3, 148124, Note_on_c, 1, 69, 0
3, 148124, Note_on_c, 1, 84, 0
3, 148224, Note_on_c, 1, 81, 108
3, 148224, Note_on_c, 1, 62, 108
3, 148316, Note_on_c, 1, 62, 0
3, 148316, Note_on_c, 1, 81, 0
3, 148416, Note_on_c, 1, 78, 108
3, 148416, Note_on_c, 1, 72, 108
3, 148508, Note_on_c, 1, 72, 0
3, 148508, Note_on_c, 1, 78, 0
3, 148608, Note_on_c, 1, 79, 108
3, 148796, Note_on_c, 1, 79, 0
3, 148800, Note_on_c, 1, 82, 108
3, 148892, Note_on_c, 1, 82, 0
3, 148992, Note_on_c, 1, 70, 108
3, 149084, Note_on_c, 1, 70, 0
3, 149184, Note_on_c, 1, 62, 108
3, 149276, Note_on_c, 1, 62, 0
3, 149376, Note_on_c, 1, 70, 108
3, 149468, Note_on_c, 1, 70, 0
3, 149568, Note_on_c, 1, 80, 108
3, 149660, Note_on_c, 1, 80, 0
3, 149760, Note_on_c, 1, 79, 108
3, 149948, Note_on_c, 1, 79, 0
3, 149952, Note_on_c, 1, 82, 108
3, 150044, Note_on_c, 1, 82, 0
3, 150144, Note_on_c, 1, 70, 108
3, 150236, Note_on_c, 1, 70, 0
3, 150336, Note_on_c, 1, 62, 108
3, 150428, Note_on_c, 1, 62, 0
3, 150528, Note_on_c, 1, 70, 108
3, 150620, Note_on_c, 1, 70, 0
3, 150720, Note_on_c, 1, 80, 108
3, 150812, Note_on_c, 1, 80, 0
3, 150912, Note_on_c, 1, 79, 108
3, 151100, Note_on_c, 1, 79, 0
3, 151104, Note_on_c, 1, 87, 108
3, 151104, Note_on_c, 1, 81, 108
3, 151196, Note_on_c, 1, 81, 0
3, 151196, Note_on_c, 1, 87, 0
3, 151296, Note_on_c, 1, 77, 108
3, 151388, Note_on_c, 1, 77, 0
3, 151488, Note_on_c, 1, 86, 108
3, 151488, Note_on_c, 1, 79, 108
3, 151580, Note_on_c, 1, 79, 0
3, 151580, Note_on_c, 1, 86, 0
3, 151680, Note_on_c, 1, 75, 108
3, 151772, Note_on_c, 1, 75, 0
3, 151872, Note_on_c, 1, 77, 108
3, 151872, Note_on_c, 1, 84, 108
3, 151964, Note_on_c, 1, 84, 0
3, 151964, Note_on_c, 1, 77, 0
3, 152064, Note_on_c, 1, 74, 108
3, 152252, Note_on_c, 1, 74, 0
3, 152256, Note_on_c, 1, 75, 108
3, 152256, Note_on_c, 1, 82, 108
3, 152348, Note_on_c, 1, 82, 0
3, 152348, Note_on_c, 1, 75, 0
3, 152448, Note_on_c, 1, 72, 108
3, 152540, Note_on_c, 1, 72, 0
3, 152640, Note_on_c, 1, 81, 108
3, 152640, Note_on_c, 1, 74, 108
3, 152732, Note_on_c, 1, 74, 0
3, 152732, Note_on_c, 1, 81, 0
3, 152832, Note_on_c, 1, 70, 108
3, 152924, Note_on_c, 1, 70, 0
3, 153024, Note_on_c, 1, 74, 108
3, 153024, Note_on_c, 1, 79, 108
3, 153116, Note_on_c, 1, 79, 0
3, 153116, Note_on_c, 1, 74, 0
3, 153216, Note_on_c, 1, 84, 108
3, 153216, Note_on_c, 1, 79, 108
3, 153404, Note_on_c, 1, 79, 0
3, 153404, Note_on_c, 1, 84, 0
3, 153408, Note_on_c, 1, 78, 108
3, 153500, Note_on_c, 1, 78, 0
3, 153600, Note_on_c, 1, 79, 108
3, 153692, Note_on_c, 1, 79, 0
3, 153792, Note_on_c, 1, 85, 108
3, 153792, Note_on_c, 1, 82, 108
3, 153884, Note_on_c, 1, 82, 0
3, 153884, Note_on_c, 1, 85, 0
3, 153984, Note_on_c, 1, 81, 108
3, 154076, Note_on_c, 1, 81, 0
3, 154176, Note_on_c, 1, 79, 108
3, 154268, Note_on_c, 1, 79, 0
3, 154368, Note_on_c, 1, 86, 108
3, 154368, Note_on_c, 1, 78, 108
3, 154556, Note_on_c, 1, 78, 0
3, 154556, Note_on_c, 1, 86, 0
3, 154560, Note_on_c, 1, 81, 108
3, 154652, Note_on_c, 1, 81, 0
3, 154752, Note_on_c, 1, 74, 108
3, 154844, Note_on_c, 1, 74, 0
3, 154944, Note_on_c, 1, 85, 108
3, 154944, Note_on_c, 1, 82, 108
3, 155036, Note_on_c, 1, 82, 0
3, 155036, Note_on_c, 1, 85, 0
3, 155136, Note_on_c, 1, 79, 108
3, 155228, Note_on_c, 1, 79, 0
3, 155328, Note_on_c, 1, 81, 108
3, 155420, Note_on_c, 1, 81, 0
3, 155520, Note_on_c, 1, 86, 108
3, 155520, Note_on_c, 1, 78, 108
3, 155708, Note_on_c, 1, 78, 0
3, 155708, Note_on_c, 1, 86, 0
3, 155712, Note_on_c, 1, 81, 108
3, 155804, Note_on_c, 1, 81, 0
3, 155904, Note_on_c, 1, 74, 108
3, 155996, Note_on_c, 1, 74, 0
3, 156096, Note_on_c, 1, 85, 108
3, 156096, Note_on_c, 1, 82, 108
3, 156188, Note_on_c, 1, 82, 0
3, 156188, Note_on_c, 1, 85, 0
3, 156288, Note_on_c, 1, 79, 108
3, 156380, Note_on_c, 1, 79, 0
3, 156480, Note_on_c, 1, 81, 108
3, 156572, Note_on_c, 1, 81, 0
3, 156672, Note_on_c, 1, 86, 108
3, 156672, Note_on_c, 1, 77, 108
3, 156860, Note_on_c, 1, 77, 0
3, 156860, Note_on_c, 1, 86, 0
3, 156864, Note_on_c, 1, 62, 108
3, 156956, Note_on_c, 1, 62, 0
3, 157056, Note_on_c, 1, 62, 108
3, 157148, Note_on_c, 1, 62, 0
3, 157248, Note_on_c, 1, 62, 108
3, 157340, Note_on_c, 1, 62, 0
3, 157440, Note_on_c, 1, 62, 108
3, 157532, Note_on_c, 1, 62, 0
3, 157632, Note_on_c, 1, 62, 108
3, 157724, Note_on_c, 1, 62, 0
3, 157824, Note_on_c, 1, 62, 108
3, 158204, Note_on_c, 1, 62, 0
3, 159168, Note_on_c, 1, 67, 80
3, 159356, Note_on_c, 1, 67, 0
3, 159360, Note_on_c, 1, 70, 80
3, 159548, Note_on_c, 1, 70, 0
3, 159552, Note_on_c, 1, 74, 80
3, 159740, Note_on_c, 1, 74, 0
3, 159744, Note_on_c, 1, 74, 80
3, 159744, Note_on_c, 1, 70, 80
3, 159836, Note_on_c, 1, 70, 0
3, 159836, Note_on_c, 1, 74, 0
3, 159936, Note_on_c, 1, 74, 80
3, 159936, Note_on_c, 1, 70, 80
3, 160028, Note_on_c, 1, 70, 0
3, 160028, Note_on_c, 1, 74, 0
3, 160320, Note_on_c, 1, 69, 80
3, 160508, Note_on_c, 1, 69, 0
3, 160512, Note_on_c, 1, 72, 80
3, 160700, Note_on_c, 1, 72, 0
3, 160704, Note_on_c, 1, 75, 80
3, 160892, Note_on_c, 1, 75, 0
3, 160896, Note_on_c, 1, 75, 80
3, 160896, Note_on_c, 1, 72, 80
3, 160988, Note_on_c, 1, 72, 0
3, 160988, Note_on_c, 1, 75, 0
3, 161088, Note_on_c, 1, 75, 80
3, 161088, Note_on_c, 1, 72, 80
3, 161180, Note_on_c, 1, 72, 0
3, 161180, Note_on_c, 1, 75, 0
3, 161472, Note_on_c, 1, 66, 80
3, 161660, Note_on_c, 1, 66, 0
3, 161664, Note_on_c, 1, 69, 80
3, 161852, Note_on_c, 1, 69, 0
3, 161856, Note_on_c, 1, 74, 80
3, 162044, Note_on_c, 1, 74, 0
3, 162048, Note_on_c, 1, 74, 80
3, 162048, Note_on_c, 1, 70, 80
3, 162140, Note_on_c, 1, 70, 0
3, 162140, Note_on_c, 1, 74, 0
3, 162240, Note_on_c, 1, 74, 80
3, 162240, Note_on_c, 1, 70, 80
3, 162332, Note_on_c, 1, 70, 0
3, 162332, Note_on_c, 1, 74, 0
3, 162624, Note_on_c, 1, 70, 80
3, 162624, Note_on_c, 1, 67, 80
3, 162812, Note_on_c, 1, 67, 0
3, 162812, Note_on_c, 1, 70, 0
3, 162816, Note_on_c, 1, 75, 80
3, 162816, Note_on_c, 1, 72, 80
3, 163004, Note_on_c, 1, 72, 0
3, 163004, Note_on_c, 1, 75, 0
3, 163008, Note_on_c, 1, 74, 80
3, 163008, Note_on_c, 1, 70, 80
3, 163196, Note_on_c, 1, 70, 0
3, 163196, Note_on_c, 1, 74, 0
3, 163200, Note_on_c, 1, 74, 80
3, 163200, Note_on_c, 1, 70, 80
3, 163292, Note_on_c, 1, 70, 0
3, 163292, Note_on_c, 1, 74, 0
3, 163392, Note_on_c, 1, 74, 80
3, 163392, Note_on_c, 1, 70, 80
3, 163484, Note_on_c, 1, 70, 0
3, 163484, Note_on_c, 1, 74, 0
3, 163584, Note_on_c, 1, 72, 80
3, 163772, Note_on_c, 1, 72, 0
3, 163776, Note_on_c, 1, 74, 80
3, 163964, Note_on_c, 1, 74, 0
3, 163968, Note_on_c, 1, 72, 80
3, 164156, Note_on_c, 1, 72, 0
3, 164160, Note_on_c, 1, 70, 80
3, 164348, Note_on_c, 1, 70, 0
3, 164352, Note_on_c, 1, 74, 80
3, 164540, Note_on_c, 1, 74, 0
3, 164544, Note_on_c, 1, 70, 80
3, 164732, Note_on_c, 1, 70, 0
3, 164736, Note_on_c, 1, 72, 80
3, 164924, Note_on_c, 1, 72, 0
3, 164928, Note_on_c, 1, 74, 80
3, 165116, Note_on_c, 1, 74, 0
3, 165120, Note_on_c, 1, 72, 80
3, 165308, Note_on_c, 1, 72, 0
3, 165312, Note_on_c, 1, 70, 80
3, 165500, Note_on_c, 1, 70, 0
3, 165504, Note_on_c, 1, 74, 80
3, 165692, Note_on_c, 1, 74, 0
3, 165696, Note_on_c, 1, 70, 80
3, 165884, Note_on_c, 1, 70, 0
3, 165888, Note_on_c, 1, 67, 80
3, 165888, Note_on_c, 1, 63, 80
3, 167036, Note_on_c, 1, 63, 0
3, 167036, Note_on_c, 1, 67, 0
3, 167040, Note_on_c, 1, 66, 80
3, 167040, Note_on_c, 1, 62, 80
3, 167420, Note_on_c, 1, 62, 0
3, 167420, Note_on_c, 1, 66, 0
3, 167424, Note_on_c, 1, 69, 80
3, 167612, Note_on_c, 1, 69, 0
3, 167616, Note_on_c, 1, 74, 80
3, 167616, Note_on_c, 1, 67, 80
3, 167996, Note_on_c, 1, 67, 0
3, 167996, Note_on_c, 1, 74, 0
3, 168000, Note_on_c, 1, 66, 80
3, 168000, Note_on_c, 1, 62, 80
3, 168000, Note_on_c, 1, 60, 80
3, 168188, Note_on_c, 1, 60, 0
3, 168188, Note_on_c, 1, 62, 0
3, 168188, Note_on_c, 1, 66, 0
3, 168192, Note_on_c, 1, 67, 80
3, 168192, Note_on_c, 1, 62, 80
3, 168192, Note_on_c, 1, 58, 80
3, 168380, Note_on_c, 1, 58, 0
3, 168380, Note_on_c, 1, 62, 0
3, 168380, Note_on_c, 1, 67, 0
3, 168384, Note_on_c, 1, 62, 80
3, 168384, Note_on_c, 1, 55, 80
3, 168384, Note_on_c, 1, 58, 80
3, 168572, Note_on_c, 1, 58, 0
3, 168572, Note_on_c, 1, 55, 0
3, 168572, Note_on_c, 1, 62, 0
3, 168576, Note_on_c, 1, 62, 80
3, 168576, Note_on_c, 1, 58, 80
3, 168576, Note_on_c, 1, 55, 80
3, 168764, Note_on_c, 1, 55, 0
3, 168764, Note_on_c, 1, 58, 0
3, 168764, Note_on_c, 1, 62, 0
3, 168768, Note_on_c, 1, 62, 80
3, 168768, Note_on_c, 1, 58, 80
3, 168768, Note_on_c, 1, 55, 80
3, 168956, Note_on_c, 1, 55, 0
3, 168956, Note_on_c, 1, 58, 0
3, 168956, Note_on_c, 1, 62, 0
3, 168960, Note_on_c, 1, 62, 80
3, 168960, Note_on_c, 1, 58, 80
3, 168960, Note_on_c, 1, 55, 80
3, 169148, Note_on_c, 1, 55, 0
3, 169148, Note_on_c, 1, 58, 0
3, 169148, Note_on_c, 1, 62, 0
3, 169152, Note_on_c, 1, 62, 80
3, 169152, Note_on_c, 1, 58, 80
3, 169152, Note_on_c, 1, 55, 80
3, 169340, Note_on_c, 1, 55, 0
3, 169340, Note_on_c, 1, 58, 0
3, 169340, Note_on_c, 1, 62, 0
3, 174144, Note_on_c, 1, 67, 80
3, 174144, Note_on_c, 1, 58, 80
3, 174332, Note_on_c, 1, 58, 0
3, 174332, Note_on_c, 1, 67, 0
3, 174336, Note_on_c, 1, 67, 80
3, 174336, Note_on_c, 1, 58, 80
3, 174524, Note_on_c, 1, 58, 0
3, 174524, Note_on_c, 1, 67, 0
3, 174720, Note_on_c, 1, 67, 80
3, 174720, Note_on_c, 1, 59, 80
3, 174908, Note_on_c, 1, 59, 0
3, 174908, Note_on_c, 1, 67, 0
3, 174912, Note_on_c, 1, 67, 80
3, 174912, Note_on_c, 1, 59, 80
3, 175100, Note_on_c, 1, 59, 0
3, 175100, Note_on_c, 1, 67, 0
3, 175296, Note_on_c, 1, 67, 80
3, 175296, Note_on_c, 1, 60, 80
3, 175484, Note_on_c, 1, 60, 0
3, 175484, Note_on_c, 1, 67, 0
3, 175488, Note_on_c, 1, 67, 80
3, 175488, Note_on_c, 1, 60, 80
3, 175676, Note_on_c, 1, 60, 0
3, 175676, Note_on_c, 1, 67, 0
3, 175872, Note_on_c, 1, 67, 80
3, 175872, Note_on_c, 1, 61, 80
3, 176060, Note_on_c, 1, 61, 0
3, 176060, Note_on_c, 1, 67, 0
3, 176064, Note_on_c, 1, 67, 80
3, 176064, Note_on_c, 1, 61, 80
3, 176252, Note_on_c, 1, 61, 0
3, 176252, Note_on_c, 1, 67, 0
3, 176256, Note_on_c, 1, 66, 80
3, 176256, Note_on_c, 1, 62, 80
3, 176444, Note_on_c, 1, 62, 0
3, 176444, Note_on_c, 1, 66, 0
3, 176448, Note_on_c, 1, 81, 80
3, 176448, Note_on_c, 1, 78, 80
3, 176448, Note_on_c, 1, 74, 80
3, 176636, Note_on_c, 1, 74, 0
3, 176636, Note_on_c, 1, 78, 0
3, 176636, Note_on_c, 1, 81, 0
3, 176640, Note_on_c, 1, 81, 80
3, 176640, Note_on_c, 1, 78, 80
3, 176640, Note_on_c, 1, 74, 80
3, 176828, Note_on_c, 1, 74, 0
3, 176828, Note_on_c, 1, 78, 0
3, 176828, Note_on_c, 1, 81, 0
3, 176832, Note_on_c, 1, 81, 80
3, 176832, Note_on_c, 1, 78, 80
3, 176832, Note_on_c, 1, 74, 80
3, 177020, Note_on_c, 1, 74, 0
3, 177020, Note_on_c, 1, 78, 0
3, 177020, Note_on_c, 1, 81, 0
3, 177024, Note_on_c, 1, 81, 80
3, 177024, Note_on_c, 1, 78, 80
3, 177024, Note_on_c, 1, 74, 80
3, 177212, Note_on_c, 1, 74, 0
3, 177212, Note_on_c, 1, 78, 0
3, 177212, Note_on_c, 1, 81, 0
3, 177216, Note_on_c, 1, 81, 80
3, 177216, Note_on_c, 1, 78, 80
3, 177216, Note_on_c, 1, 74, 80
3, 177404, Note_on_c, 1, 74, 0
3, 177404, Note_on_c, 1, 78, 0
3, 177404, Note_on_c, 1, 81, 0
3, 177408, Note_on_c, 1, 82, 80
3, 177408, Note_on_c, 1, 79, 80
3, 177408, Note_on_c, 1, 73, 80
3, 178556, Note_on_c, 1, 73, 0
3, 178556, Note_on_c, 1, 79, 0
3, 178556, Note_on_c, 1, 82, 0
3, 178560, Note_on_c, 1, 81, 80
3, 178560, Note_on_c, 1, 78, 80
3, 178560, Note_on_c, 1, 74, 80
3, 178748, Note_on_c, 1, 74, 0
3, 178748, Note_on_c, 1, 78, 0
3, 178748, Note_on_c, 1, 81, 0
3, 178752, Note_on_c, 1, 81, 80
3, 178752, Note_on_c, 1, 78, 80
3, 178752, Note_on_c, 1, 74, 80
3, 178940, Note_on_c, 1, 74, 0
3, 178940, Note_on_c, 1, 78, 0
3, 178940, Note_on_c, 1, 81, 0
3, 178944, Note_on_c, 1, 81, 80
3, 178944, Note_on_c, 1, 78, 80
3, 178944, Note_on_c, 1, 74, 80
3, 179132, Note_on_c, 1, 74, 0
3, 179132, Note_on_c, 1, 78, 0
3, 179132, Note_on_c, 1, 81, 0
3, 179136, Note_on_c, 1, 81, 80
3, 179136, Note_on_c, 1, 78, 80
3, 179136, Note_on_c, 1, 74, 80
3, 179324, Note_on_c, 1, 74, 0
3, 179324, Note_on_c, 1, 78, 0
3, 179324, Note_on_c, 1, 81, 0
3, 179328, Note_on_c, 1, 81, 80
3, 179328, Note_on_c, 1, 78, 80
3, 179328, Note_on_c, 1, 74, 80
3, 179516, Note_on_c, 1, 74, 0
3, 179516, Note_on_c, 1, 78, 0
3, 179516, Note_on_c, 1, 81, 0
3, 179520, Note_on_c, 1, 86, 80
3, 179708, Note_on_c, 1, 86, 0
3, 179712, Note_on_c, 1, 85, 80
3, 179712, Note_on_c, 1, 79, 80
3, 179712, Note_on_c, 1, 75, 80
3, 180860, Note_on_c, 1, 75, 0
3, 180860, Note_on_c, 1, 79, 0
3, 180860, Note_on_c, 1, 85, 0
3, 180864, Note_on_c, 1, 86, 80
3, 180864, Note_on_c, 1, 78, 80
3, 180864, Note_on_c, 1, 74, 80
3, 181052, Note_on_c, 1, 74, 0
3, 181052, Note_on_c, 1, 78, 0
3, 181052, Note_on_c, 1, 86, 0
3, 181248, Note_on_c, 1, 62, 80
3, 181436, Note_on_c, 1, 62, 0
3, 181440, Note_on_c, 1, 62, 80
3, 181628, Note_on_c, 1, 62, 0
3, 181632, Note_on_c, 1, 62, 80
3, 181820, Note_on_c, 1, 62, 0
3, 181824, Note_on_c, 1, 62, 80
3, 182012, Note_on_c, 1, 62, 0
3, 182016, Note_on_c, 1, 62, 108
3, 182204, Note_on_c, 1, 62, 0
3, 182400, Note_on_c, 1, 80, 108
3, 182400, Note_on_c, 1, 77, 108
3, 182400, Note_on_c, 1, 70, 108
3, 182588, Note_on_c, 1, 70, 0
3, 182588, Note_on_c, 1, 77, 0
3, 182588, Note_on_c, 1, 80, 0
3, 182592, Note_on_c, 1, 80, 108
3, 182592, Note_on_c, 1, 77, 108
3, 182592, Note_on_c, 1, 70, 108
3, 182780, Note_on_c, 1, 70, 0
3, 182780, Note_on_c, 1, 77, 0
3, 182780, Note_on_c, 1, 80, 0
3, 182784, Note_on_c, 1, 80, 108
3, 182784, Note_on_c, 1, 77, 108
3, 182784, Note_on_c, 1, 70, 108
3, 182972, Note_on_c, 1, 70, 0
3, 182972, Note_on_c, 1, 77, 0
3, 182972, Note_on_c, 1, 80, 0
3, 182976, Note_on_c, 1, 80, 108
3, 182976, Note_on_c, 1, 77, 108
3, 182976, Note_on_c, 1, 70, 108
3, 183164, Note_on_c, 1, 70, 0
3, 183164, Note_on_c, 1, 77, 0
3, 183164, Note_on_c, 1, 80, 0
3, 183168, Note_on_c, 1, 80, 108
3, 183168, Note_on_c, 1, 77, 108
3, 183168, Note_on_c, 1, 70, 108
3, 183548, Note_on_c, 1, 70, 0
3, 183548, Note_on_c, 1, 77, 0
3, 183548, Note_on_c, 1, 80, 0
3, 184320, Note_on_c, 1, 68, 80
3, 184320, Note_on_c, 1, 65, 80
3, 184320, Note_on_c, 1, 62, 80
3, 184320, Note_on_c, 1, 58, 80
3, 185468, Note_on_c, 1, 58, 0
3, 185468, Note_on_c, 1, 68, 0
3, 185468, Note_on_c, 1, 65, 0
3, 185468, Note_on_c, 1, 62, 0
3, 185664, Note_on_c, 1, 67, 80
3, 185664, Note_on_c, 1, 63, 80
3, 185852, Note_on_c, 1, 63, 0
3, 185852, Note_on_c, 1, 67, 0
3, 185856, Note_on_c, 1, 68, 80
3, 185856, Note_on_c, 1, 65, 80
3, 186044, Note_on_c, 1, 65, 0
3, 186044, Note_on_c, 1, 68, 0
3, 186048, Note_on_c, 1, 70, 80
3, 186048, Note_on_c, 1, 67, 80
3, 186236, Note_on_c, 1, 67, 0
3, 186236, Note_on_c, 1, 70, 0
3, 186240, Note_on_c, 1, 70, 80
3, 186240, Note_on_c, 1, 67, 80
3, 186332, Note_on_c, 1, 67, 0
3, 186332, Note_on_c, 1, 70, 0
3, 186432, Note_on_c, 1, 70, 80
3, 186432, Note_on_c, 1, 67, 80
3, 186524, Note_on_c, 1, 67, 0
3, 186524, Note_on_c, 1, 70, 0
3, 186816, Note_on_c, 1, 75, 80
3, 186816, Note_on_c, 1, 67, 80
3, 187004, Note_on_c, 1, 67, 0
3, 187004, Note_on_c, 1, 75, 0
3, 187008, Note_on_c, 1, 77, 80
3, 187008, Note_on_c, 1, 68, 80
3, 187196, Note_on_c, 1, 68, 0
3, 187196, Note_on_c, 1, 77, 0
3, 187200, Note_on_c, 1, 79, 80
3, 187200, Note_on_c, 1, 70, 80
3, 187388, Note_on_c, 1, 70, 0
3, 187388, Note_on_c, 1, 79, 0
3, 187392, Note_on_c, 1, 79, 80
3, 187392, Note_on_c, 1, 70, 80
3, 187484, Note_on_c, 1, 70, 0
3, 187484, Note_on_c, 1, 79, 0
3, 187584, Note_on_c, 1, 79, 80
3, 187584, Note_on_c, 1, 70, 80
3, 187676, Note_on_c, 1, 70, 0
3, 187676, Note_on_c, 1, 79, 0
3, 187968, Note_on_c, 1, 79, 80
3, 187968, Note_on_c, 1, 75, 80
3, 188156, Note_on_c, 1, 75, 0
3, 188156, Note_on_c, 1, 79, 0
3, 188160, Note_on_c, 1, 81, 80
3, 188160, Note_on_c, 1, 77, 80
3, 188348, Note_on_c, 1, 77, 0
3, 188348, Note_on_c, 1, 81, 0
3, 188352, Note_on_c, 1, 82, 80
3, 188352, Note_on_c, 1, 79, 80
3, 188540, Note_on_c, 1, 79, 0
3, 188540, Note_on_c, 1, 82, 0
3, 188736, Note_on_c, 1, 67, 80
3, 188736, Note_on_c, 1, 63, 80
3, 188924, Note_on_c, 1, 63, 0
3, 188924, Note_on_c, 1, 67, 0
3, 188928, Note_on_c, 1, 65, 80
3, 188928, Note_on_c, 1, 62, 80
3, 189116, Note_on_c, 1, 62, 0
3, 189116, Note_on_c, 1, 65, 0
3, 189504, Note_on_c, 1, 74, 80
3, 189504, Note_on_c, 1, 70, 80
3, 189692, Note_on_c, 1, 70, 0
3, 189692, Note_on_c, 1, 74, 0
3, 189696, Note_on_c, 1, 75, 80
3, 189696, Note_on_c, 1, 72, 80
3, 189884, Note_on_c, 1, 72, 0
3, 189884, Note_on_c, 1, 75, 0
3, 189888, Note_on_c, 1, 76, 80
3, 189888, Note_on_c, 1, 73, 80
3, 190076, Note_on_c, 1, 73, 0
3, 190076, Note_on_c, 1, 76, 0
3, 190080, Note_on_c, 1, 77, 80
3, 190080, Note_on_c, 1, 74, 80
3, 190268, Note_on_c, 1, 74, 0
3, 190268, Note_on_c, 1, 77, 0
3, 190272, Note_on_c, 1, 70, 80
3, 190272, Note_on_c, 1, 62, 80
3, 190460, Note_on_c, 1, 62, 0
3, 190460, Note_on_c, 1, 70, 0
3, 190464, Note_on_c, 1, 72, 80
3, 190464, Note_on_c, 1, 63, 80
3, 190652, Note_on_c, 1, 63, 0
3, 190652, Note_on_c, 1, 72, 0
3, 190656, Note_on_c, 1, 74, 80
3, 190656, Note_on_c, 1, 65, 80
3, 190844, Note_on_c, 1, 65, 0
3, 190844, Note_on_c, 1, 74, 0
3, 190848, Note_on_c, 1, 74, 80
3, 190848, Note_on_c, 1, 65, 80
3, 191036, Note_on_c, 1, 65, 0
3, 191036, Note_on_c, 1, 74, 0
3, 191040, Note_on_c, 1, 74, 80
3, 191040, Note_on_c, 1, 65, 80
3, 191228, Note_on_c, 1, 65, 0
3, 191228, Note_on_c, 1, 74, 0
3, 191424, Note_on_c, 1, 74, 80
3, 191424, Note_on_c, 1, 70, 80
3, 191612, Note_on_c, 1, 70, 0
3, 191612, Note_on_c, 1, 74, 0
3, 191616, Note_on_c, 1, 75, 80
3, 191616, Note_on_c, 1, 72, 80
3, 191804, Note_on_c, 1, 72, 0
3, 191804, Note_on_c, 1, 75, 0
3, 191808, Note_on_c, 1, 77, 80
3, 191808, Note_on_c, 1, 74, 80
3, 191996, Note_on_c, 1, 74, 0
3, 191996, Note_on_c, 1, 77, 0
3, 192000, Note_on_c, 1, 77, 80
3, 192000, Note_on_c, 1, 74, 80
3, 192092, Note_on_c, 1, 74, 0
3, 192092, Note_on_c, 1, 77, 0
3, 192192, Note_on_c, 1, 77, 80
3, 192192, Note_on_c, 1, 74, 80
3, 192284, Note_on_c, 1, 74, 0
3, 192284, Note_on_c, 1, 77, 0
3, 192576, Note_on_c, 1, 77, 80
3, 192576, Note_on_c, 1, 74, 80
3, 192764, Note_on_c, 1, 74, 0
3, 192764, Note_on_c, 1, 77, 0
3, 192768, Note_on_c, 1, 79, 80
3, 192768, Note_on_c, 1, 75, 80
3, 192956, Note_on_c, 1, 75, 0
3, 192956, Note_on_c, 1, 79, 0
3, 192960, Note_on_c, 1, 80, 80
3, 192960, Note_on_c, 1, 77, 80
3, 193148, Note_on_c, 1, 77, 0
3, 193148, Note_on_c, 1, 80, 0
3, 193344, Note_on_c, 1, 65, 80
3, 193344, Note_on_c, 1, 62, 80
3, 193532, Note_on_c, 1, 62, 0
3, 193532, Note_on_c, 1, 65, 0
3, 193536, Note_on_c, 1, 67, 80
3, 193536, Note_on_c, 1, 63, 80
3, 193724, Note_on_c, 1, 63, 0
3, 193724, Note_on_c, 1, 67, 0
3, 194112, Note_on_c, 1, 79, 80
3, 194112, Note_on_c, 1, 75, 80
3, 194204, Note_on_c, 1, 75, 0
3, 194204, Note_on_c, 1, 79, 0
3, 194304, Note_on_c, 1, 80, 80
3, 194304, Note_on_c, 1, 77, 80
3, 194396, Note_on_c, 1, 77, 0
3, 194396, Note_on_c, 1, 80, 0
3, 194496, Note_on_c, 1, 82, 80
3, 194496, Note_on_c, 1, 79, 80
3, 194588, Note_on_c, 1, 79, 0
3, 194588, Note_on_c, 1, 82, 0
3, 194688, Note_on_c, 1, 84, 80
3, 194688, Note_on_c, 1, 80, 80
3, 195836, Note_on_c, 1, 80, 0
3, 195836, Note_on_c, 1, 84, 0
3, 196032, Note_on_c, 1, 84, 80
3, 196032, Note_on_c, 1, 80, 80
3, 196032, Note_on_c, 1, 77, 80
3, 196220, Note_on_c, 1, 77, 0
3, 196220, Note_on_c, 1, 80, 0
3, 196220, Note_on_c, 1, 84, 0
3, 196224, Note_on_c, 1, 84, 80
3, 196224, Note_on_c, 1, 80, 80
3, 196224, Note_on_c, 1, 77, 80
3, 196412, Note_on_c, 1, 77, 0
3, 196412, Note_on_c, 1, 80, 0
3, 196412, Note_on_c, 1, 84, 0
3, 196416, Note_on_c, 1, 84, 80
3, 196416, Note_on_c, 1, 80, 80
3, 196416, Note_on_c, 1, 77, 80
3, 196604, Note_on_c, 1, 77, 0
3, 196604, Note_on_c, 1, 80, 0
3, 196604, Note_on_c, 1, 84, 0
3, 196608, Note_on_c, 1, 84, 80
3, 196608, Note_on_c, 1, 77, 80
3, 196608, Note_on_c, 1, 80, 80
3, 196796, Note_on_c, 1, 80, 0
3, 196796, Note_on_c, 1, 77, 0
3, 196796, Note_on_c, 1, 84, 0
3, 196800, Note_on_c, 1, 84, 80
3, 196800, Note_on_c, 1, 80, 80
3, 196800, Note_on_c, 1, 77, 80
3, 196988, Note_on_c, 1, 77, 0
3, 196988, Note_on_c, 1, 80, 0
3, 196988, Note_on_c, 1, 84, 0
3, 196992, Note_on_c, 1, 82, 80
3, 196992, Note_on_c, 1, 79, 80
3, 198140, Note_on_c, 1, 79, 0
3, 198140, Note_on_c, 1, 82, 0
3, 198336, Note_on_c, 1, 82, 80
3, 198336, Note_on_c, 1, 79, 80
3, 198336, Note_on_c, 1, 75, 80
3, 198524, Note_on_c, 1, 75, 0
3, 198524, Note_on_c, 1, 79, 0
3, 198524, Note_on_c, 1, 82, 0
3, 198528, Note_on_c, 1, 82, 80
3, 198528, Note_on_c, 1, 79, 80
3, 198528, Note_on_c, 1, 75, 80
3, 198716, Note_on_c, 1, 75, 0
3, 198716, Note_on_c, 1, 79, 0
3, 198716, Note_on_c, 1, 82, 0
3, 198720, Note_on_c, 1, 82, 80
3, 198720, Note_on_c, 1, 79, 80
3, 198720, Note_on_c, 1, 75, 80
3, 198908, Note_on_c, 1, 75, 0
3, 198908, Note_on_c, 1, 79, 0
3, 198908, Note_on_c, 1, 82, 0
3, 198912, Note_on_c, 1, 82, 80
3, 198912, Note_on_c, 1, 79, 80
3, 198912, Note_on_c, 1, 75, 80
3, 199100, Note_on_c, 1, 75, 0
3, 199100, Note_on_c, 1, 79, 0
3, 199100, Note_on_c, 1, 82, 0
3, 199104, Note_on_c, 1, 82, 80
3, 199104, Note_on_c, 1, 79, 80
3, 199104, Note_on_c, 1, 75, 80
3, 199292, Note_on_c, 1, 75, 0
3, 199292, Note_on_c, 1, 79, 0
3, 199292, Note_on_c, 1, 82, 0
3, 199296, Note_on_c, 1, 80, 80
3, 199296, Note_on_c, 1, 77, 80
3, 200444, Note_on_c, 1, 77, 0
3, 200444, Note_on_c, 1, 80, 0
3, 200640, Note_on_c, 1, 80, 80
3, 200640, Note_on_c, 1, 77, 80
3, 200640, Note_on_c, 1, 74, 80
3, 200828, Note_on_c, 1, 74, 0
3, 200828, Note_on_c, 1, 77, 0
3, 200828, Note_on_c, 1, 80, 0
3, 200832, Note_on_c, 1, 80, 80
3, 200832, Note_on_c, 1, 77, 80
3, 200832, Note_on_c, 1, 74, 80
3, 201020, Note_on_c, 1, 74, 0
3, 201020, Note_on_c, 1, 77, 0
3, 201020, Note_on_c, 1, 80, 0
3, 201024, Note_on_c, 1, 80, 80
3, 201024, Note_on_c, 1, 77, 80
3, 201024, Note_on_c, 1, 74, 80
3, 201212, Note_on_c, 1, 74, 0
3, 201212, Note_on_c, 1, 77, 0
3, 201212, Note_on_c, 1, 80, 0
3, 201216, Note_on_c, 1, 80, 80
3, 201216, Note_on_c, 1, 77, 80
3, 201216, Note_on_c, 1, 74, 80
3, 201404, Note_on_c, 1, 74, 0
3, 201404, Note_on_c, 1, 77, 0
3, 201404, Note_on_c, 1, 80, 0
3, 201408, Note_on_c, 1, 80, 80
3, 201408, Note_on_c, 1, 77, 80
3, 201408, Note_on_c, 1, 74, 80
3, 201596, Note_on_c, 1, 74, 0
3, 201596, Note_on_c, 1, 77, 0
3, 201596, Note_on_c, 1, 80, 0
3, 201600, Note_on_c, 1, 79, 80
3, 201600, Note_on_c, 1, 75, 80
3, 201788, Note_on_c, 1, 75, 0
3, 201788, Note_on_c, 1, 79, 0
3, 201792, Note_on_c, 1, 67, 80
3, 201792, Note_on_c, 1, 63, 80
3, 201980, Note_on_c, 1, 63, 0
3, 201980, Note_on_c, 1, 67, 0
3, 201984, Note_on_c, 1, 67, 80
3, 201984, Note_on_c, 1, 63, 80
3, 202172, Note_on_c, 1, 63, 0
3, 202172, Note_on_c, 1, 67, 0
3, 202368, Note_on_c, 1, 68, 80
3, 202368, Note_on_c, 1, 65, 80
3, 202556, Note_on_c, 1, 65, 0
3, 202556, Note_on_c, 1, 68, 0
3, 202560, Note_on_c, 1, 68, 80
3, 202560, Note_on_c, 1, 65, 80
3, 202748, Note_on_c, 1, 65, 0
3, 202748, Note_on_c, 1, 68, 0
3, 202944, Note_on_c, 1, 70, 80
3, 202944, Note_on_c, 1, 67, 80
3, 203132, Note_on_c, 1, 67, 0
3, 203132, Note_on_c, 1, 70, 0
3, 203136, Note_on_c, 1, 70, 80
3, 203136, Note_on_c, 1, 67, 80
3, 203324, Note_on_c, 1, 67, 0
3, 203324, Note_on_c, 1, 70, 0
3, 203520, Note_on_c, 1, 68, 80
3, 203520, Note_on_c, 1, 65, 80
3, 203708, Note_on_c, 1, 65, 0
3, 203708, Note_on_c, 1, 68, 0
3, 203712, Note_on_c, 1, 68, 80
3, 203712, Note_on_c, 1, 65, 80
3, 203900, Note_on_c, 1, 65, 0
3, 203900, Note_on_c, 1, 68, 0
3, 204096, Note_on_c, 1, 67, 80
3, 204096, Note_on_c, 1, 63, 80
3, 204284, Note_on_c, 1, 63, 0
3, 204284, Note_on_c, 1, 67, 0
3, 204288, Note_on_c, 1, 67, 80
3, 204288, Note_on_c, 1, 63, 80
3, 204476, Note_on_c, 1, 63, 0
3, 204476, Note_on_c, 1, 67, 0
3, 204480, Note_on_c, 1, 65, 80
3, 204480, Note_on_c, 1, 62, 80
3, 204668, Note_on_c, 1, 62, 0
3, 204668, Note_on_c, 1, 65, 0
3, 204864, Note_on_c, 1, 70, 80
3, 205052, Note_on_c, 1, 70, 0
3, 205056, Note_on_c, 1, 82, 80
3, 205056, Note_on_c, 1, 79, 80
3, 205148, Note_on_c, 1, 79, 0
3, 205148, Note_on_c, 1, 82, 0
3, 205440, Note_on_c, 1, 82, 80
3, 205440, Note_on_c, 1, 79, 80
3, 205532, Note_on_c, 1, 79, 0
3, 205532, Note_on_c, 1, 82, 0
3, 205632, Note_on_c, 1, 84, 80
3, 205632, Note_on_c, 1, 80, 80
3, 205724, Note_on_c, 1, 80, 0
3, 205724, Note_on_c, 1, 84, 0
3, 205728, Note_on_c, 1, 82, 80
3, 205728, Note_on_c, 1, 79, 80
3, 205820, Note_on_c, 1, 79, 0
3, 205820, Note_on_c, 1, 82, 0
3, 205824, Note_on_c, 1, 81, 80
3, 205824, Note_on_c, 1, 78, 80
3, 205916, Note_on_c, 1, 78, 0
3, 205916, Note_on_c, 1, 81, 0
3, 205920, Note_on_c, 1, 82, 80
3, 205920, Note_on_c, 1, 79, 80
3, 206012, Note_on_c, 1, 79, 0
3, 206012, Note_on_c, 1, 82, 0
3, 206016, Note_on_c, 1, 84, 80
3, 206016, Note_on_c, 1, 81, 80
3, 206108, Note_on_c, 1, 81, 0
3, 206108, Note_on_c, 1, 84, 0
3, 206112, Note_on_c, 1, 82, 80
3, 206112, Note_on_c, 1, 79, 80
3, 206204, Note_on_c, 1, 79, 0
3, 206204, Note_on_c, 1, 82, 0
3, 206208, Note_on_c, 1, 80, 80
3, 206208, Note_on_c, 1, 79, 80
3, 206400, Note_on_c, 1, 70, 80
3, 206588, Note_on_c, 1, 70, 0
3, 206592, Note_on_c, 1, 71, 80
3, 206780, Note_on_c, 1, 71, 0
3, 206780, Note_on_c, 1, 79, 0
3, 206784, Note_on_c, 1, 77, 80
3, 206784, Note_on_c, 1, 72, 80
3, 206972, Note_on_c, 1, 72, 0
3, 206976, Note_on_c, 1, 73, 80
3, 207164, Note_on_c, 1, 73, 0
3, 207168, Note_on_c, 1, 74, 80
3, 207356, Note_on_c, 1, 74, 0
3, 207356, Note_on_c, 1, 77, 0
3, 207356, Note_on_c, 1, 80, 0
3, 207360, Note_on_c, 1, 75, 80
3, 207360, Note_on_c, 1, 79, 80
3, 207548, Note_on_c, 1, 79, 0
3, 207740, Note_on_c, 1, 75, 0
3, 207744, Note_on_c, 1, 75, 80
3, 207932, Note_on_c, 1, 75, 0
3, 207936, Note_on_c, 1, 77, 80
3, 208028, Note_on_c, 1, 77, 0
3, 208032, Note_on_c, 1, 75, 80
3, 208124, Note_on_c, 1, 75, 0
3, 208128, Note_on_c, 1, 74, 80
3, 208220, Note_on_c, 1, 74, 0
3, 208224, Note_on_c, 1, 75, 80
3, 208316, Note_on_c, 1, 75, 0
3, 208320, Note_on_c, 1, 77, 80
3, 208412, Note_on_c, 1, 77, 0
3, 208416, Note_on_c, 1, 75, 80
3, 208508, Note_on_c, 1, 75, 0
3, 208512, Note_on_c, 1, 75, 80
3, 208704, Note_on_c, 1, 67, 80
3, 208892, Note_on_c, 1, 67, 0
3, 208896, Note_on_c, 1, 68, 80
3, 209084, Note_on_c, 1, 68, 0
3, 209084, Note_on_c, 1, 75, 0
3, 209088, Note_on_c, 1, 74, 80
3, 209088, Note_on_c, 1, 69, 80
3, 209276, Note_on_c, 1, 69, 0
3, 209280, Note_on_c, 1, 70, 80
3, 209468, Note_on_c, 1, 70, 0
3, 209472, Note_on_c, 1, 71, 80
3, 209660, Note_on_c, 1, 71, 0
3, 209660, Note_on_c, 1, 74, 0
3, 209664, Note_on_c, 1, 72, 80
3, 209756, Note_on_c, 1, 72, 0
3, 210048, Note_on_c, 1, 75, 80
3, 210048, Note_on_c, 1, 72, 80
3, 210140, Note_on_c, 1, 72, 0
3, 210140, Note_on_c, 1, 75, 0
3, 210240, Note_on_c, 1, 77, 80
3, 210240, Note_on_c, 1, 74, 80
3, 210332, Note_on_c, 1, 74, 0
3, 210332, Note_on_c, 1, 77, 0
3, 210336, Note_on_c, 1, 75, 80
3, 210336, Note_on_c, 1, 72, 80
3, 210428, Note_on_c, 1, 72, 0
3, 210428, Note_on_c, 1, 75, 0
3, 210432, Note_on_c, 1, 74, 80
3, 210432, Note_on_c, 1, 71, 80
3, 210524, Note_on_c, 1, 71, 0
3, 210524, Note_on_c, 1, 74, 0
3, 210528, Note_on_c, 1, 75, 80
3, 210528, Note_on_c, 1, 72, 80
3, 210620, Note_on_c, 1, 72, 0
3, 210620, Note_on_c, 1, 75, 0
3, 210624, Note_on_c, 1, 79, 80
3, 210624, Note_on_c, 1, 75, 80
3, 210716, Note_on_c, 1, 75, 0
3, 210716, Note_on_c, 1, 79, 0
3, 210720, Note_on_c, 1, 77, 80
3, 210720, Note_on_c, 1, 74, 80
3, 210812, Note_on_c, 1, 74, 0
3, 210812, Note_on_c, 1, 77, 0
3, 210816, Note_on_c, 1, 74, 80
3, 210816, Note_on_c, 1, 75, 80
3, 211388, Note_on_c, 1, 74, 0
3, 211392, Note_on_c, 1, 72, 80
3, 211964, Note_on_c, 1, 72, 0
3, 211964, Note_on_c, 1, 75, 0
3, 211968, Note_on_c, 1, 72, 80
3, 211968, Note_on_c, 1, 73, 80
3, 212060, Note_on_c, 1, 73, 0
3, 212352, Note_on_c, 1, 73, 80
3, 212444, Note_on_c, 1, 73, 0
3, 212540, Note_on_c, 1, 72, 0
3, 212544, Note_on_c, 1, 70, 80
3, 212544, Note_on_c, 1, 75, 80
3, 212636, Note_on_c, 1, 75, 0
3, 212640, Note_on_c, 1, 73, 80
3, 212732, Note_on_c, 1, 73, 0
3, 212736, Note_on_c, 1, 72, 80
3, 212828, Note_on_c, 1, 72, 0
3, 212832, Note_on_c, 1, 73, 80
3, 212924, Note_on_c, 1, 73, 0
3, 212928, Note_on_c, 1, 75, 80
3, 213020, Note_on_c, 1, 75, 0
3, 213024, Note_on_c, 1, 73, 80
3, 213116, Note_on_c, 1, 73, 0
3, 213116, Note_on_c, 1, 70, 0
3, 213120, Note_on_c, 1, 72, 80
3, 213120, Note_on_c, 1, 70, 80
3, 213212, Note_on_c, 1, 70, 0
3, 213504, Note_on_c, 1, 70, 80
3, 213596, Note_on_c, 1, 70, 0
3, 213696, Note_on_c, 1, 72, 80
3, 213788, Note_on_c, 1, 72, 0
3, 213792, Note_on_c, 1, 70, 80
3, 213884, Note_on_c, 1, 70, 0
3, 213888, Note_on_c, 1, 69, 80
3, 213980, Note_on_c, 1, 69, 0
3, 213984, Note_on_c, 1, 70, 80
3, 214076, Note_on_c, 1, 70, 0
3, 214080, Note_on_c, 1, 72, 80
3, 214172, Note_on_c, 1, 72, 0
3, 214176, Note_on_c, 1, 70, 80
3, 214268, Note_on_c, 1, 70, 0
3, 214272, Note_on_c, 1, 72, 80
3, 214272, Note_on_c, 1, 69, 80
3, 214364, Note_on_c, 1, 72, 0
3, 214460, Note_on_c, 1, 69, 0
3, 214460, Note_on_c, 1, 72, 0
3, 214464, Note_on_c, 1, 69, 108
3, 214556, Note_on_c, 1, 69, 0
3, 214656, Note_on_c, 1, 72, 108
3, 214748, Note_on_c, 1, 72, 0
3, 214848, Note_on_c, 1, 77, 108
3, 214940, Note_on_c, 1, 77, 0
3, 215040, Note_on_c, 1, 81, 108
3, 215132, Note_on_c, 1, 81, 0
3, 215232, Note_on_c, 1, 84, 108
3, 215324, Note_on_c, 1, 84, 0
3, 215424, Note_on_c, 1, 77, 108
3, 215424, Note_on_c, 1, 72, 108
3, 215424, Note_on_c, 1, 69, 108
3, 215804, Note_on_c, 1, 69, 0
3, 215804, Note_on_c, 1, 72, 0
3, 215804, Note_on_c, 1, 77, 0
3, 216576, Note_on_c, 1, 70, 80
3, 217148, Note_on_c, 1, 70, 0
3, 217152, Note_on_c, 1, 74, 80
3, 217196, Note_on_c, 1, 74, 0
3, 217200, Note_on_c, 1, 72, 80
3, 217342, Note_on_c, 1, 72, 0
3, 217344, Note_on_c, 1, 70, 80
3, 217532, Note_on_c, 1, 70, 0
3, 217536, Note_on_c, 1, 72, 80
3, 217724, Note_on_c, 1, 72, 0
3, 217728, Note_on_c, 1, 70, 80
3, 217728, Note_on_c, 1, 74, 80
3, 217820, Note_on_c, 1, 70, 0
3, 217920, Note_on_c, 1, 70, 80
3, 218012, Note_on_c, 1, 70, 0
3, 218112, Note_on_c, 1, 70, 80
3, 218204, Note_on_c, 1, 70, 0
3, 218304, Note_on_c, 1, 70, 80
3, 218396, Note_on_c, 1, 70, 0
3, 218496, Note_on_c, 1, 70, 80
3, 218588, Note_on_c, 1, 70, 0
3, 218688, Note_on_c, 1, 70, 80
3, 218780, Note_on_c, 1, 70, 0
3, 218876, Note_on_c, 1, 74, 0
3, 218880, Note_on_c, 1, 75, 80
3, 218880, Note_on_c, 1, 70, 80
3, 219068, Note_on_c, 1, 70, 0
3, 219068, Note_on_c, 1, 75, 0
3, 219456, Note_on_c, 1, 79, 80
3, 219456, Note_on_c, 1, 70, 80
3, 219644, Note_on_c, 1, 70, 0
3, 219644, Note_on_c, 1, 79, 0
3, 220032, Note_on_c, 1, 74, 80
3, 220032, Note_on_c, 1, 70, 80
3, 220412, Note_on_c, 1, 70, 0
3, 220412, Note_on_c, 1, 74, 0
3, 220416, Note_on_c, 1, 65, 80
3, 220604, Note_on_c, 1, 65, 0
3, 220608, Note_on_c, 1, 62, 80
3, 220608, Note_on_c, 1, 58, 80
3, 220700, Note_on_c, 1, 58, 0
3, 220796, Note_on_c, 1, 62, 0
3, 220800, Note_on_c, 1, 62, 80
3, 220892, Note_on_c, 1, 62, 0
3, 220992, Note_on_c, 1, 58, 80
3, 221084, Note_on_c, 1, 58, 0
3, 221184, Note_on_c, 1, 69, 80
3, 221184, Note_on_c, 1, 65, 80
3, 221184, Note_on_c, 1, 60, 80
3, 221564, Note_on_c, 1, 60, 0
3, 221564, Note_on_c, 1, 65, 0
3, 221564, Note_on_c, 1, 69, 0
3, 221952, Note_on_c, 1, 69, 80
3, 221952, Note_on_c, 1, 65, 80
3, 221952, Note_on_c, 1, 60, 80
3, 222044, Note_on_c, 1, 60, 0
3, 222044, Note_on_c, 1, 65, 0
3, 222044, Note_on_c, 1, 69, 0
3, 222144, Note_on_c, 1, 69, 80
3, 222144, Note_on_c, 1, 65, 80
3, 222144, Note_on_c, 1, 60, 80
3, 222236, Note_on_c, 1, 60, 0
3, 222236, Note_on_c, 1, 65, 0
3, 222236, Note_on_c, 1, 69, 0
3, 222336, Note_on_c, 1, 70, 80
3, 222336, Note_on_c, 1, 65, 80
3, 222336, Note_on_c, 1, 62, 80
3, 222716, Note_on_c, 1, 62, 0
3, 222716, Note_on_c, 1, 65, 0
3, 222716, Note_on_c, 1, 70, 0
3, 223104, Note_on_c, 1, 70, 80
3, 223196, Note_on_c, 1, 70, 0
3, 223296, Note_on_c, 1, 74, 80
3, 223388, Note_on_c, 1, 74, 0
3, 223488, Note_on_c, 1, 67, 80
3, 223868, Note_on_c, 1, 67, 0
3, 223872, Note_on_c, 1, 71, 80
3, 224060, Note_on_c, 1, 71, 0
3, 224064, Note_on_c, 1, 72, 80
3, 224252, Note_on_c, 1, 72, 0
3, 224256, Note_on_c, 1, 74, 80
3, 224444, Note_on_c, 1, 74, 0
3, 224448, Note_on_c, 1, 75, 80
3, 224636, Note_on_c, 1, 75, 0
3, 224640, Note_on_c, 1, 70, 80
3, 225020, Note_on_c, 1, 70, 0
3, 225024, Note_on_c, 1, 72, 80
3, 225116, Note_on_c, 1, 72, 0
3, 225120, Note_on_c, 1, 70, 80
3, 225212, Note_on_c, 1, 70, 0
3, 225216, Note_on_c, 1, 69, 80
3, 225404, Note_on_c, 1, 69, 0
3, 225792, Note_on_c, 1, 73, 80
3, 226176, Note_on_c, 1, 70, 80
3, 226364, Note_on_c, 1, 70, 0
3, 226364, Note_on_c, 1, 73, 0
3, 226368, Note_on_c, 1, 77, 80
3, 226368, Note_on_c, 1, 73, 80
3, 226412, Note_on_c, 1, 73, 0
3, 226412, Note_on_c, 1, 77, 0
3, 226416, Note_on_c, 1, 75, 80
3, 226416, Note_on_c, 1, 72, 80
3, 226558, Note_on_c, 1, 72, 0
3, 226558, Note_on_c, 1, 75, 0
3, 226560, Note_on_c, 1, 73, 80
3, 226560, Note_on_c, 1, 70, 80
3, 226748, Note_on_c, 1, 70, 0
3, 226748, Note_on_c, 1, 73, 0
3, 226752, Note_on_c, 1, 75, 80
3, 226752, Note_on_c, 1, 72, 80
3, 226940, Note_on_c, 1, 72, 0
3, 226940, Note_on_c, 1, 75, 0
3, 226944, Note_on_c, 1, 77, 80
3, 226944, Note_on_c, 1, 73, 80
3, 228092, Note_on_c, 1, 73, 0
3, 228092, Note_on_c, 1, 77, 0
3, 228096, Note_on_c, 1, 77, 80
3, 228096, Note_on_c, 1, 74, 80
3, 228380, Note_on_c, 1, 74, 0
3, 228380, Note_on_c, 1, 77, 0
3, 228384, Note_on_c, 1, 78, 80
3, 228384, Note_on_c, 1, 75, 80
3, 228476, Note_on_c, 1, 75, 0
3, 228476, Note_on_c, 1, 78, 0
3, 228480, Note_on_c, 1, 77, 80
3, 228480, Note_on_c, 1, 73, 80
3, 228668, Note_on_c, 1, 73, 0
3, 228668, Note_on_c, 1, 77, 0
3, 228672, Note_on_c, 1, 75, 80
3, 228672, Note_on_c, 1, 72, 80
3, 229052, Note_on_c, 1, 72, 0
3, 229052, Note_on_c, 1, 75, 0
3, 229056, Note_on_c, 1, 73, 80
3, 229056, Note_on_c, 1, 70, 80
3, 229244, Note_on_c, 1, 70, 0
3, 229244, Note_on_c, 1, 73, 0
3, 229248, Note_on_c, 1, 72, 80
3, 229248, Note_on_c, 1, 65, 80
3, 229248, Note_on_c, 1, 69, 80
3, 229628, Note_on_c, 1, 69, 0
3, 229632, Note_on_c, 1, 68, 80
3, 229820, Note_on_c, 1, 68, 0
3, 229820, Note_on_c, 1, 65, 0
3, 229824, Note_on_c, 1, 64, 80
3, 229824, Note_on_c, 1, 67, 80
3, 230204, Note_on_c, 1, 67, 0
3, 230204, Note_on_c, 1, 64, 0
3, 230208, Note_on_c, 1, 66, 80
3, 230208, Note_on_c, 1, 63, 80
3, 230396, Note_on_c, 1, 63, 0
3, 230396, Note_on_c, 1, 66, 0
3, 230396, Note_on_c, 1, 72, 0
3, 230400, Note_on_c, 1, 65, 80
3, 230400, Note_on_c, 1, 61, 80
3, 230400, Note_on_c, 1, 73, 80
3, 230780, Note_on_c, 1, 61, 0
3, 230780, Note_on_c, 1, 65, 0
3, 230972, Note_on_c, 1, 73, 0
3, 230976, Note_on_c, 1, 77, 80
3, 231020, Note_on_c, 1, 77, 0
3, 231024, Note_on_c, 1, 75, 80
3, 231166, Note_on_c, 1, 75, 0
3, 231168, Note_on_c, 1, 73, 80
3, 231356, Note_on_c, 1, 73, 0
3, 231360, Note_on_c, 1, 75, 80
3, 231548, Note_on_c, 1, 75, 0
3, 231552, Note_on_c, 1, 77, 80
3, 231552, Note_on_c, 1, 65, 80
3, 231552, Note_on_c, 1, 61, 80
3, 232124, Note_on_c, 1, 61, 0
3, 232124, Note_on_c, 1, 65, 0
3, 232128, Note_on_c, 1, 68, 80
3, 232172, Note_on_c, 1, 68, 0
3, 232176, Note_on_c, 1, 63, 80
3, 232176, Note_on_c, 1, 66, 80
3, 232318, Note_on_c, 1, 66, 0
3, 232318, Note_on_c, 1, 63, 0
3, 232320, Note_on_c, 1, 65, 80
3, 232320, Note_on_c, 1, 61, 80
3, 232508, Note_on_c, 1, 61, 0
3, 232508, Note_on_c, 1, 65, 0
3, 232512, Note_on_c, 1, 66, 80
3, 232512, Note_on_c, 1, 63, 80
3, 232700, Note_on_c, 1, 63, 0
3, 232700, Note_on_c, 1, 66, 0
3, 232700, Note_on_c, 1, 77, 0
3, 232704, Note_on_c, 1, 77, 80
3, 232704, Note_on_c, 1, 68, 80
3, 232704, Note_on_c, 1, 65, 80
3, 232988, Note_on_c, 1, 77, 0
3, 232992, Note_on_c, 1, 78, 80
3, 233084, Note_on_c, 1, 78, 0
3, 233088, Note_on_c, 1, 77, 80
3, 233276, Note_on_c, 1, 77, 0
3, 233276, Note_on_c, 1, 65, 0
3, 233276, Note_on_c, 1, 68, 0
3, 233280, Note_on_c, 1, 75, 80
3, 233280, Note_on_c, 1, 70, 80
3, 233280, Note_on_c, 1, 66, 80
3, 233660, Note_on_c, 1, 66, 0
3, 233660, Note_on_c, 1, 75, 0
3, 233664, Note_on_c, 1, 73, 80
3, 233664, Note_on_c, 1, 67, 80
3, 233852, Note_on_c, 1, 67, 0
3, 233852, Note_on_c, 1, 73, 0
3, 233852, Note_on_c, 1, 70, 0
3, 233856, Note_on_c, 1, 72, 80
3, 233856, Note_on_c, 1, 68, 80
3, 234236, Note_on_c, 1, 68, 0
3, 234236, Note_on_c, 1, 72, 0
3, 234240, Note_on_c, 1, 75, 80
3, 234240, Note_on_c, 1, 68, 80
3, 234428, Note_on_c, 1, 68, 0
3, 234428, Note_on_c, 1, 75, 0
3, 234432, Note_on_c, 1, 75, 80
3, 234432, Note_on_c, 1, 66, 80
3, 234812, Note_on_c, 1, 66, 0
3, 234812, Note_on_c, 1, 75, 0
3, 234816, Note_on_c, 1, 77, 80
3, 234816, Note_on_c, 1, 74, 80
3, 234816, Note_on_c, 1, 68, 80
3, 234816, Note_on_c, 1, 65, 80
3, 235004, Note_on_c, 1, 65, 0
3, 235004, Note_on_c, 1, 77, 0
3, 235004, Note_on_c, 1, 74, 0
3, 235004, Note_on_c, 1, 68, 0
3, 235008, Note_on_c, 1, 78, 80
3, 235008, Note_on_c, 1, 75, 80
3, 235008, Note_on_c, 1, 66, 80
3, 235008, Note_on_c, 1, 63, 80
3, 235580, Note_on_c, 1, 63, 0
3, 235580, Note_on_c, 1, 78, 0
3, 235580, Note_on_c, 1, 75, 0
3, 235580, Note_on_c, 1, 66, 0
3, 235584, Note_on_c, 1, 82, 80
3, 235628, Note_on_c, 1, 82, 0
3, 235632, Note_on_c, 1, 80, 80
3, 235632, Note_on_c, 1, 77, 80
3, 235774, Note_on_c, 1, 77, 0
3, 235774, Note_on_c, 1, 80, 0
3, 235776, Note_on_c, 1, 78, 80
3, 235776, Note_on_c, 1, 75, 80
3, 235964, Note_on_c, 1, 75, 0
3, 235964, Note_on_c, 1, 78, 0
3, 235968, Note_on_c, 1, 80, 80
3, 235968, Note_on_c, 1, 77, 80
3, 236156, Note_on_c, 1, 77, 0
3, 236156, Note_on_c, 1, 80, 0
3, 236160, Note_on_c, 1, 82, 80
3, 236160, Note_on_c, 1, 79, 80
3, 237308, Note_on_c, 1, 79, 0
3, 237308, Note_on_c, 1, 82, 0
3, 237312, Note_on_c, 1, 82, 80
3, 237312, Note_on_c, 1, 79, 80
3, 237596, Note_on_c, 1, 79, 0
3, 237596, Note_on_c, 1, 82, 0
3, 237600, Note_on_c, 1, 80, 80
3, 237600, Note_on_c, 1, 83, 80
3, 237692, Note_on_c, 1, 83, 0
3, 237692, Note_on_c, 1, 80, 0
3, 237696, Note_on_c, 1, 78, 80
3, 237696, Note_on_c, 1, 82, 80
3, 237884, Note_on_c, 1, 82, 0
3, 237884, Note_on_c, 1, 78, 0
3, 237888, Note_on_c, 1, 80, 80
3, 237888, Note_on_c, 1, 77, 80
3, 238268, Note_on_c, 1, 77, 0
3, 238268, Note_on_c, 1, 80, 0
3, 238272, Note_on_c, 1, 78, 80
3, 238272, Note_on_c, 1, 75, 80
3, 238460, Note_on_c, 1, 75, 0
3, 238460, Note_on_c, 1, 78, 0
3, 238464, Note_on_c, 1, 77, 80
3, 238464, Note_on_c, 1, 74, 80
3, 238844, Note_on_c, 1, 74, 0
3, 238844, Note_on_c, 1, 77, 0
3, 239808, Note_on_c, 1, 63, 80
3, 239808, Note_on_c, 1, 66, 80
3, 239808, Note_on_c, 1, 70, 80
3, 239900, Note_on_c, 1, 70, 0
3, 239900, Note_on_c, 1, 66, 0
3, 239900, Note_on_c, 1, 63, 0
3, 240000, Note_on_c, 1, 70, 80
3, 240000, Note_on_c, 1, 66, 80
3, 240000, Note_on_c, 1, 63, 80
3, 240092, Note_on_c, 1, 63, 0
3, 240092, Note_on_c, 1, 66, 0
3, 240092, Note_on_c, 1, 70, 0
3, 240384, Note_on_c, 1, 63, 80
3, 240384, Note_on_c, 1, 66, 80
3, 240384, Note_on_c, 1, 58, 80
3, 240476, Note_on_c, 1, 58, 0
3, 240476, Note_on_c, 1, 66, 0
3, 240476, Note_on_c, 1, 63, 0
3, 240576, Note_on_c, 1, 66, 80
3, 240576, Note_on_c, 1, 63, 80
3, 240576, Note_on_c, 1, 58, 80
3, 240668, Note_on_c, 1, 58, 0
3, 240668, Note_on_c, 1, 63, 0
3, 240668, Note_on_c, 1, 66, 0
3, 240768, Note_on_c, 1, 63, 80
3, 240768, Note_on_c, 1, 60, 80
3, 240956, Note_on_c, 1, 60, 0
3, 240956, Note_on_c, 1, 63, 0
3, 241344, Note_on_c, 1, 72, 80
3, 241344, Note_on_c, 1, 68, 80
3, 241532, Note_on_c, 1, 68, 0
3, 241532, Note_on_c, 1, 72, 0
3, 241536, Note_on_c, 1, 73, 80
3, 241536, Note_on_c, 1, 70, 80
3, 241724, Note_on_c, 1, 70, 0
3, 241724, Note_on_c, 1, 73, 0
3, 241728, Note_on_c, 1, 75, 80
3, 241728, Note_on_c, 1, 72, 80
3, 241916, Note_on_c, 1, 72, 0
3, 241916, Note_on_c, 1, 75, 0
3, 242112, Note_on_c, 1, 68, 80
3, 242112, Note_on_c, 1, 65, 80
3, 242112, Note_on_c, 1, 61, 80
3, 242204, Note_on_c, 1, 61, 0
3, 242204, Note_on_c, 1, 65, 0
3, 242204, Note_on_c, 1, 68, 0
3, 242304, Note_on_c, 1, 68, 80
3, 242304, Note_on_c, 1, 65, 80
3, 242304, Note_on_c, 1, 61, 80
3, 242396, Note_on_c, 1, 61, 0
3, 242396, Note_on_c, 1, 65, 0
3, 242396, Note_on_c, 1, 68, 0
3, 242688, Note_on_c, 1, 65, 80
3, 242688, Note_on_c, 1, 61, 80
3, 242688, Note_on_c, 1, 56, 80
3, 242780, Note_on_c, 1, 56, 0
3, 242780, Note_on_c, 1, 61, 0
3, 242780, Note_on_c, 1, 65, 0
3, 242880, Note_on_c, 1, 65, 80
3, 242880, Note_on_c, 1, 61, 80
3, 242880, Note_on_c, 1, 56, 80
3, 242972, Note_on_c, 1, 56, 0
3, 242972, Note_on_c, 1, 61, 0
3, 242972, Note_on_c, 1, 65, 0
3, 243072, Note_on_c, 1, 61, 80
3, 243072, Note_on_c, 1, 58, 80
3, 243260, Note_on_c, 1, 58, 0
3, 243260, Note_on_c, 1, 61, 0
3, 243648, Note_on_c, 1, 73, 80
3, 243648, Note_on_c, 1, 70, 80
3, 243648, Note_on_c, 1, 66, 80
3, 244220, Note_on_c, 1, 66, 0
3, 244220, Note_on_c, 1, 70, 0
3, 244220, Note_on_c, 1, 73, 0
3, 244416, Note_on_c, 1, 75, 80
3, 244416, Note_on_c, 1, 72, 80
3, 244416, Note_on_c, 1, 66, 80
3, 244508, Note_on_c, 1, 66, 0
3, 244508, Note_on_c, 1, 72, 0
3, 244508, Note_on_c, 1, 75, 0
3, 244608, Note_on_c, 1, 75, 80
3, 244608, Note_on_c, 1, 72, 80
3, 244608, Note_on_c, 1, 66, 80
3, 244700, Note_on_c, 1, 66, 0
3, 244700, Note_on_c, 1, 72, 0
3, 244700, Note_on_c, 1, 75, 0
3, 244992, Note_on_c, 1, 72, 80
3, 244992, Note_on_c, 1, 66, 80
3, 244992, Note_on_c, 1, 63, 80
3, 245084, Note_on_c, 1, 63, 0
3, 245084, Note_on_c, 1, 66, 0
3, 245084, Note_on_c, 1, 72, 0
3, 245184, Note_on_c, 1, 72, 80
3, 245184, Note_on_c, 1, 66, 80
3, 245184, Note_on_c, 1, 63, 80
3, 245276, Note_on_c, 1, 63, 0
3, 245276, Note_on_c, 1, 66, 0
3, 245276, Note_on_c, 1, 72, 0
3, 245376, Note_on_c, 1, 69, 80
3, 245376, Note_on_c, 1, 65, 80
3, 245376, Note_on_c, 1, 60, 80
3, 245564, Note_on_c, 1, 60, 0
3, 245564, Note_on_c, 1, 65, 0
3, 245564, Note_on_c, 1, 69, 0
3, 245952, Note_on_c, 1, 69, 80
3, 245952, Note_on_c, 1, 65, 80
3, 246140, Note_on_c, 1, 65, 0
3, 246140, Note_on_c, 1, 69, 0
3, 246144, Note_on_c, 1, 70, 80
3, 246144, Note_on_c, 1, 67, 80
3, 246332, Note_on_c, 1, 67, 0
3, 246332, Note_on_c, 1, 70, 0
3, 246336, Note_on_c, 1, 72, 80
3, 246336, Note_on_c, 1, 69, 80
3, 246524, Note_on_c, 1, 69, 0
3, 246524, Note_on_c, 1, 72, 0
3, 250656, Note_on_c, 1, 77, 80
3, 250748, Note_on_c, 1, 77, 0
3, 250752, Note_on_c, 1, 79, 80
3, 250844, Note_on_c, 1, 79, 0
3, 250848, Note_on_c, 1, 81, 80
3, 250940, Note_on_c, 1, 81, 0
3, 250944, Note_on_c, 1, 82, 80
3, 251036, Note_on_c, 1, 82, 0
3, 251040, Note_on_c, 1, 84, 80
3, 251132, Note_on_c, 1, 84, 0
3, 251136, Note_on_c, 1, 85, 80
3, 251136, Note_on_c, 1, 70, 80
3, 251516, Note_on_c, 1, 70, 0
3, 251516, Note_on_c, 1, 85, 0
3, 251520, Note_on_c, 1, 85, 80
3, 251520, Note_on_c, 1, 73, 80
3, 251708, Note_on_c, 1, 73, 0
3, 251708, Note_on_c, 1, 85, 0
3, 251712, Note_on_c, 1, 87, 80
3, 251712, Note_on_c, 1, 78, 80
3, 251756, Note_on_c, 1, 87, 0
3, 251760, Note_on_c, 1, 85, 80
3, 251902, Note_on_c, 1, 85, 0
3, 251904, Note_on_c, 1, 84, 80
3, 252092, Note_on_c, 1, 84, 0
3, 252092, Note_on_c, 1, 78, 0
3, 252096, Note_on_c, 1, 85, 80
3, 252096, Note_on_c, 1, 70, 80
3, 252284, Note_on_c, 1, 70, 0
3, 252284, Note_on_c, 1, 85, 0
3, 252288, Note_on_c, 1, 84, 80
3, 252288, Note_on_c, 1, 69, 80
3, 252476, Note_on_c, 1, 69, 0
3, 252668, Note_on_c, 1, 84, 0
3, 252672, Note_on_c, 1, 89, 80
3, 252860, Note_on_c, 1, 89, 0
3, 252864, Note_on_c, 1, 89, 80
3, 252864, Note_on_c, 1, 68, 80
3, 253052, Note_on_c, 1, 68, 0
3, 253052, Note_on_c, 1, 89, 0
3, 255168, Note_on_c, 1, 68, 80
3, 255168, Note_on_c, 1, 65, 80
3, 255356, Note_on_c, 1, 65, 0
3, 255356, Note_on_c, 1, 68, 0
3, 255744, Note_on_c, 1, 66, 80
3, 256124, Note_on_c, 1, 66, 0
3, 256128, Note_on_c, 1, 66, 80
3, 256316, Note_on_c, 1, 66, 0
3, 256320, Note_on_c, 1, 68, 80
3, 256364, Note_on_c, 1, 68, 0
3, 256368, Note_on_c, 1, 66, 80
3, 256510, Note_on_c, 1, 66, 0
3, 256512, Note_on_c, 1, 65, 80
3, 256700, Note_on_c, 1, 65, 0
3, 256704, Note_on_c, 1, 66, 80
3, 256892, Note_on_c, 1, 66, 0
3, 256896, Note_on_c, 1, 65, 80
3, 257276, Note_on_c, 1, 65, 0
3, 257280, Note_on_c, 1, 70, 80
3, 257468, Note_on_c, 1, 70, 0
3, 257472, Note_on_c, 1, 70, 80
3, 257756, Note_on_c, 1, 70, 0
3, 257760, Note_on_c, 1, 68, 80
3, 257852, Note_on_c, 1, 68, 0
3, 257856, Note_on_c, 1, 66, 80
3, 257948, Note_on_c, 1, 66, 0
3, 257952, Note_on_c, 1, 65, 80
3, 258044, Note_on_c, 1, 65, 0
3, 258048, Note_on_c, 1, 64, 80
3, 258048, Note_on_c, 1, 58, 80
3, 258048, Note_on_c, 1, 55, 80
3, 258236, Note_on_c, 1, 55, 0
3, 258236, Note_on_c, 1, 58, 0
3, 258236, Note_on_c, 1, 64, 0
3, 258240, Note_on_c, 1, 70, 80
3, 258240, Note_on_c, 1, 67, 80
3, 258240, Note_on_c, 1, 64, 80
3, 258428, Note_on_c, 1, 64, 0
3, 258428, Note_on_c, 1, 67, 0
3, 258428, Note_on_c, 1, 70, 0
3, 258432, Note_on_c, 1, 70, 80
3, 258432, Note_on_c, 1, 67, 80
3, 258432, Note_on_c, 1, 64, 80
3, 258620, Note_on_c, 1, 64, 0
3, 258620, Note_on_c, 1, 67, 0
3, 258620, Note_on_c, 1, 70, 0
3, 258624, Note_on_c, 1, 70, 80
3, 258624, Note_on_c, 1, 67, 80
3, 258624, Note_on_c, 1, 64, 80
3, 258812, Note_on_c, 1, 64, 0
3, 258812, Note_on_c, 1, 67, 0
3, 258812, Note_on_c, 1, 70, 0
3, 258816, Note_on_c, 1, 70, 80
3, 258816, Note_on_c, 1, 67, 80
3, 258816, Note_on_c, 1, 64, 80
3, 259004, Note_on_c, 1, 64, 0
3, 259004, Note_on_c, 1, 67, 0
3, 259004, Note_on_c, 1, 70, 0
3, 259008, Note_on_c, 1, 70, 80
3, 259008, Note_on_c, 1, 67, 80
3, 259008, Note_on_c, 1, 64, 80
3, 259196, Note_on_c, 1, 64, 0
3, 259196, Note_on_c, 1, 67, 0
3, 259196, Note_on_c, 1, 70, 0
3, 259200, Note_on_c, 1, 70, 80
3, 259200, Note_on_c, 1, 67, 80
3, 259200, Note_on_c, 1, 64, 80
3, 259388, Note_on_c, 1, 64, 0
3, 259388, Note_on_c, 1, 67, 0
3, 259388, Note_on_c, 1, 70, 0
3, 259776, Note_on_c, 1, 64, 80
3, 259776, Note_on_c, 1, 58, 80
3, 259776, Note_on_c, 1, 55, 80
3, 259964, Note_on_c, 1, 55, 0
3, 259964, Note_on_c, 1, 58, 0
3, 259964, Note_on_c, 1, 64, 0
3, 260352, Note_on_c, 1, 65, 80
3, 260352, Note_on_c, 1, 57, 80
3, 260540, Note_on_c, 1, 57, 0
3, 260540, Note_on_c, 1, 65, 0
3, 260544, Note_on_c, 1, 69, 80
3, 260544, Note_on_c, 1, 65, 80
3, 260544, Note_on_c, 1, 60, 80
3, 260732, Note_on_c, 1, 60, 0
3, 260732, Note_on_c, 1, 65, 0
3, 260732, Note_on_c, 1, 69, 0
3, 260736, Note_on_c, 1, 69, 80
3, 260736, Note_on_c, 1, 65, 80
3, 260736, Note_on_c, 1, 60, 80
3, 260924, Note_on_c, 1, 60, 0
3, 260924, Note_on_c, 1, 65, 0
3, 260924, Note_on_c, 1, 69, 0
3, 261120, Note_on_c, 1, 72, 80
3, 261120, Note_on_c, 1, 65, 80
3, 261120, Note_on_c, 1, 60, 80
3, 261308, Note_on_c, 1, 60, 0
3, 261308, Note_on_c, 1, 65, 0
3, 261308, Note_on_c, 1, 72, 0
3, 261312, Note_on_c, 1, 72, 80
3, 261312, Note_on_c, 1, 65, 80
3, 261312, Note_on_c, 1, 60, 80
3, 261500, Note_on_c, 1, 60, 0
3, 261500, Note_on_c, 1, 65, 0
3, 261500, Note_on_c, 1, 72, 0
3, 261696, Note_on_c, 1, 70, 80
3, 261696, Note_on_c, 1, 64, 80
3, 261696, Note_on_c, 1, 60, 80
3, 261884, Note_on_c, 1, 60, 0
3, 261884, Note_on_c, 1, 64, 0
3, 261884, Note_on_c, 1, 70, 0
3, 261888, Note_on_c, 1, 70, 80
3, 261888, Note_on_c, 1, 64, 80
3, 261888, Note_on_c, 1, 60, 80
3, 262076, Note_on_c, 1, 60, 0
3, 262076, Note_on_c, 1, 64, 0
3, 262076, Note_on_c, 1, 70, 0
3, 262272, Note_on_c, 1, 67, 80
3, 262272, Note_on_c, 1, 64, 80
3, 262272, Note_on_c, 1, 60, 80
3, 262460, Note_on_c, 1, 60, 0
3, 262460, Note_on_c, 1, 64, 0
3, 262460, Note_on_c, 1, 67, 0
3, 262464, Note_on_c, 1, 67, 80
3, 262464, Note_on_c, 1, 64, 80
3, 262464, Note_on_c, 1, 60, 80
3, 262652, Note_on_c, 1, 60, 0
3, 262652, Note_on_c, 1, 64, 0
3, 262652, Note_on_c, 1, 67, 0
3, 262848, Note_on_c, 1, 69, 80
3, 262848, Note_on_c, 1, 65, 80
3, 262848, Note_on_c, 1, 60, 80
3, 263036, Note_on_c, 1, 60, 0
3, 263036, Note_on_c, 1, 65, 0
3, 263036, Note_on_c, 1, 69, 0
3, 263040, Note_on_c, 1, 69, 80
3, 263040, Note_on_c, 1, 65, 80
3, 263040, Note_on_c, 1, 60, 80
3, 263228, Note_on_c, 1, 60, 0
3, 263228, Note_on_c, 1, 65, 0
3, 263228, Note_on_c, 1, 69, 0
3, 263424, Note_on_c, 1, 72, 80
3, 263424, Note_on_c, 1, 65, 80
3, 263424, Note_on_c, 1, 60, 80
3, 263612, Note_on_c, 1, 60, 0
3, 263612, Note_on_c, 1, 65, 0
3, 263612, Note_on_c, 1, 72, 0
3, 263616, Note_on_c, 1, 72, 80
3, 263616, Note_on_c, 1, 65, 80
3, 263616, Note_on_c, 1, 60, 80
3, 263804, Note_on_c, 1, 60, 0
3, 263804, Note_on_c, 1, 65, 0
3, 263804, Note_on_c, 1, 72, 0
3, 264000, Note_on_c, 1, 70, 80
3, 264000, Note_on_c, 1, 64, 80
3, 264000, Note_on_c, 1, 60, 80
3, 264188, Note_on_c, 1, 60, 0
3, 264188, Note_on_c, 1, 64, 0
3, 264188, Note_on_c, 1, 70, 0
3, 264192, Note_on_c, 1, 70, 80
3, 264192, Note_on_c, 1, 64, 80
3, 264192, Note_on_c, 1, 60, 80
3, 264380, Note_on_c, 1, 60, 0
3, 264380, Note_on_c, 1, 64, 0
3, 264380, Note_on_c, 1, 70, 0
3, 264576, Note_on_c, 1, 67, 80
3, 264576, Note_on_c, 1, 64, 80
3, 264576, Note_on_c, 1, 60, 80
3, 264764, Note_on_c, 1, 60, 0
3, 264764, Note_on_c, 1, 64, 0
3, 264764, Note_on_c, 1, 67, 0
3, 264768, Note_on_c, 1, 67, 80
3, 264768, Note_on_c, 1, 64, 80
3, 264768, Note_on_c, 1, 60, 80
3, 264956, Note_on_c, 1, 60, 0
3, 264956, Note_on_c, 1, 64, 0
3, 264956, Note_on_c, 1, 67, 0
3, 264960, Note_on_c, 1, 65, 80
3, 264960, Note_on_c, 1, 60, 80
3, 265148, Note_on_c, 1, 60, 0
3, 265148, Note_on_c, 1, 65, 0
3, 265152, Note_on_c, 1, 65, 80
3, 265340, Note_on_c, 1, 65, 0
3, 265344, Note_on_c, 1, 65, 80
3, 265532, Note_on_c, 1, 65, 0
3, 265536, Note_on_c, 1, 65, 80
3, 265724, Note_on_c, 1, 65, 0
3, 265728, Note_on_c, 1, 65, 80
3, 265916, Note_on_c, 1, 65, 0
3, 265920, Note_on_c, 1, 65, 80
3, 266108, Note_on_c, 1, 65, 0
3, 266112, Note_on_c, 1, 78, 108
3, 266112, Note_on_c, 1, 75, 108
3, 266112, Note_on_c, 1, 72, 108
3, 266112, Note_on_c, 1, 69, 108
3, 266684, Note_on_c, 1, 69, 0
3, 266684, Note_on_c, 1, 78, 0
3, 266684, Note_on_c, 1, 75, 0
3, 266684, Note_on_c, 1, 72, 0
3, 266688, Note_on_c, 1, 78, 80
3, 266688, Note_on_c, 1, 75, 80
3, 266688, Note_on_c, 1, 72, 80
3, 266688, Note_on_c, 1, 69, 80
3, 266876, Note_on_c, 1, 69, 0
3, 266876, Note_on_c, 1, 78, 0
3, 266876, Note_on_c, 1, 75, 0
3, 266876, Note_on_c, 1, 72, 0
3, 266880, Note_on_c, 1, 77, 80
3, 267068, Note_on_c, 1, 77, 0
3, 267072, Note_on_c, 1, 75, 80
3, 267260, Note_on_c, 1, 75, 0
3, 267264, Note_on_c, 1, 73, 80
3, 267264, Note_on_c, 1, 70, 80
3, 267264, Note_on_c, 1, 65, 80
3, 267644, Note_on_c, 1, 65, 0
3, 267644, Note_on_c, 1, 70, 0
3, 267644, Note_on_c, 1, 73, 0
3, 268416, Note_on_c, 1, 60, 80
3, 268604, Note_on_c, 1, 60, 0
3, 268608, Note_on_c, 1, 63, 80
3, 268796, Note_on_c, 1, 63, 0
3, 268800, Note_on_c, 1, 65, 80
3, 268988, Note_on_c, 1, 65, 0
3, 268992, Note_on_c, 1, 58, 80
3, 269180, Note_on_c, 1, 58, 0
3, 269184, Note_on_c, 1, 61, 80
3, 269372, Note_on_c, 1, 61, 0
3, 269376, Note_on_c, 1, 65, 80
3, 269564, Note_on_c, 1, 65, 0
3, 269568, Note_on_c, 1, 57, 80
3, 269756, Note_on_c, 1, 57, 0
3, 269760, Note_on_c, 1, 65, 80
3, 269948, Note_on_c, 1, 65, 0
3, 269952, Note_on_c, 1, 65, 80
3, 270140, Note_on_c, 1, 65, 0
3, 270144, Note_on_c, 1, 65, 80
3, 270332, Note_on_c, 1, 65, 0
3, 270336, Note_on_c, 1, 65, 80
3, 270524, Note_on_c, 1, 65, 0
3, 270528, Note_on_c, 1, 65, 80
3, 270716, Note_on_c, 1, 65, 0
3, 270720, Note_on_c, 1, 81, 108
3, 270720, Note_on_c, 1, 78, 108
3, 270720, Note_on_c, 1, 75, 108
3, 270720, Note_on_c, 1, 72, 108
3, 271292, Note_on_c, 1, 72, 0
3, 271292, Note_on_c, 1, 81, 0
3, 271292, Note_on_c, 1, 78, 0
3, 271292, Note_on_c, 1, 75, 0
3, 271296, Note_on_c, 1, 81, 80
3, 271296, Note_on_c, 1, 78, 80
3, 271296, Note_on_c, 1, 75, 80
3, 271296, Note_on_c, 1, 72, 80
3, 271484, Note_on_c, 1, 72, 0
3, 271484, Note_on_c, 1, 81, 0
3, 271484, Note_on_c, 1, 78, 0
3, 271484, Note_on_c, 1, 75, 0
3, 271488, Note_on_c, 1, 77, 80
3, 271676, Note_on_c, 1, 77, 0
3, 271680, Note_on_c, 1, 75, 80
3, 271868, Note_on_c, 1, 75, 0
3, 271872, Note_on_c, 1, 82, 80
3, 271872, Note_on_c, 1, 77, 80
3, 271872, Note_on_c, 1, 73, 80
3, 272252, Note_on_c, 1, 73, 0
3, 272252, Note_on_c, 1, 77, 0
3, 272252, Note_on_c, 1, 82, 0
3, 273216, Note_on_c, 1, 69, 80
3, 273404, Note_on_c, 1, 69, 0
3, 273408, Note_on_c, 1, 70, 80
3, 273596, Note_on_c, 1, 70, 0
3, 273600, Note_on_c, 1, 73, 80
3, 273788, Note_on_c, 1, 73, 0
3, 273792, Note_on_c, 1, 72, 80
3, 273980, Note_on_c, 1, 72, 0
3, 273984, Note_on_c, 1, 70, 80
3, 274172, Note_on_c, 1, 70, 0
3, 274176, Note_on_c, 1, 69, 80
3, 274556, Note_on_c, 1, 69, 0
3, 275904, Note_on_c, 1, 76, 80
3, 275904, Note_on_c, 1, 73, 80
3, 276092, Note_on_c, 1, 73, 0
3, 276092, Note_on_c, 1, 76, 0
3, 276096, Note_on_c, 1, 72, 80
3, 276284, Note_on_c, 1, 72, 0
3, 276288, Note_on_c, 1, 70, 80
3, 276476, Note_on_c, 1, 70, 0
3, 276480, Note_on_c, 1, 77, 80
3, 276480, Note_on_c, 1, 69, 80
3, 276668, Note_on_c, 1, 69, 0
3, 276668, Note_on_c, 1, 77, 0
3, 278208, Note_on_c, 1, 64, 80
3, 278208, Note_on_c, 1, 61, 80
3, 278396, Note_on_c, 1, 61, 0
3, 278396, Note_on_c, 1, 64, 0
3, 278400, Note_on_c, 1, 60, 80
3, 278588, Note_on_c, 1, 60, 0
3, 278592, Note_on_c, 1, 58, 80
3, 278780, Note_on_c, 1, 58, 0
3, 278784, Note_on_c, 1, 65, 80
3, 278784, Note_on_c, 1, 57, 80
3, 278972, Note_on_c, 1, 57, 0
3, 278972, Note_on_c, 1, 65, 0
3, 280128, Note_on_c, 1, 70, 80
3, 280316, Note_on_c, 1, 70, 0
3, 280320, Note_on_c, 1, 68, 80
3, 280508, Note_on_c, 1, 68, 0
3, 280512, Note_on_c, 1, 66, 80
3, 280700, Note_on_c, 1, 66, 0
3, 280704, Note_on_c, 1, 66, 80
3, 280892, Note_on_c, 1, 66, 0
3, 280896, Note_on_c, 1, 65, 80
3, 281084, Note_on_c, 1, 65, 0
3, 281088, Note_on_c, 1, 64, 80
3, 281276, Note_on_c, 1, 64, 0
3, 281280, Note_on_c, 1, 69, 80
3, 281468, Note_on_c, 1, 69, 0
3, 281472, Note_on_c, 1, 70, 80
3, 281660, Note_on_c, 1, 70, 0
3, 281664, Note_on_c, 1, 73, 80
3, 281852, Note_on_c, 1, 73, 0
3, 281856, Note_on_c, 1, 72, 80
3, 282044, Note_on_c, 1, 72, 0
3, 282048, Note_on_c, 1, 70, 80
3, 282236, Note_on_c, 1, 70, 0
3, 282240, Note_on_c, 1, 69, 80
3, 282428, Note_on_c, 1, 69, 0
3, 282432, Note_on_c, 1, 69, 80
3, 282432, Note_on_c, 1, 65, 80
3, 282620, Note_on_c, 1, 65, 0
3, 282620, Note_on_c, 1, 69, 0
3, 282624, Note_on_c, 1, 70, 80
3, 282624, Note_on_c, 1, 67, 80
3, 282812, Note_on_c, 1, 67, 0
3, 282812, Note_on_c, 1, 70, 0
3, 282816, Note_on_c, 1, 72, 80
3, 282816, Note_on_c, 1, 69, 80
3, 283004, Note_on_c, 1, 69, 0
3, 283004, Note_on_c, 1, 72, 0
3, 283008, Note_on_c, 1, 72, 80
3, 283008, Note_on_c, 1, 69, 80
3, 283196, Note_on_c, 1, 69, 0
3, 283196, Note_on_c, 1, 72, 0
3, 283200, Note_on_c, 1, 74, 80
3, 283200, Note_on_c, 1, 70, 80
3, 283388, Note_on_c, 1, 70, 0
3, 283388, Note_on_c, 1, 74, 0
3, 283392, Note_on_c, 1, 75, 80
3, 283392, Note_on_c, 1, 72, 80
3, 284540, Note_on_c, 1, 72, 0
3, 284540, Note_on_c, 1, 75, 0
3, 284544, Note_on_c, 1, 74, 80
3, 284544, Note_on_c, 1, 70, 80
3, 284732, Note_on_c, 1, 70, 0
3, 284732, Note_on_c, 1, 74, 0
3, 284928, Note_on_c, 1, 74, 80
3, 284928, Note_on_c, 1, 70, 80
3, 285020, Note_on_c, 1, 70, 0
3, 285020, Note_on_c, 1, 74, 0
3, 285120, Note_on_c, 1, 70, 80
3, 285120, Note_on_c, 1, 74, 80
3, 285212, Note_on_c, 1, 74, 0
3, 285212, Note_on_c, 1, 70, 0
3, 285312, Note_on_c, 1, 74, 80
3, 285312, Note_on_c, 1, 70, 80
3, 285404, Note_on_c, 1, 70, 0
3, 285404, Note_on_c, 1, 74, 0
3, 285504, Note_on_c, 1, 74, 80
3, 285504, Note_on_c, 1, 70, 80
3, 285596, Note_on_c, 1, 70, 0
3, 285596, Note_on_c, 1, 74, 0
3, 285696, Note_on_c, 1, 72, 80
3, 285696, Note_on_c, 1, 69, 80
3, 286080, Note_on_c, 1, 70, 80
3, 286268, Note_on_c, 1, 70, 0
3, 286268, Note_on_c, 1, 69, 0
3, 286268, Note_on_c, 1, 72, 0
3, 286848, Note_on_c, 1, 70, 80
3, 286848, Note_on_c, 1, 67, 80
3, 286940, Note_on_c, 1, 67, 0
3, 286940, Note_on_c, 1, 70, 0
3, 287040, Note_on_c, 1, 70, 80
3, 287040, Note_on_c, 1, 67, 80
3, 287132, Note_on_c, 1, 67, 0
3, 287132, Note_on_c, 1, 70, 0
3, 287424, Note_on_c, 1, 72, 80
3, 287424, Note_on_c, 1, 67, 80
3, 287516, Note_on_c, 1, 67, 0
3, 287516, Note_on_c, 1, 72, 0
3, 287616, Note_on_c, 1, 72, 80
3, 287616, Note_on_c, 1, 67, 80
3, 287708, Note_on_c, 1, 67, 0
3, 287708, Note_on_c, 1, 72, 0
3, 288000, Note_on_c, 1, 65, 80
3, 288188, Note_on_c, 1, 65, 0
3, 288192, Note_on_c, 1, 67, 80
3, 288380, Note_on_c, 1, 67, 0
3, 288384, Note_on_c, 1, 68, 80
3, 288572, Note_on_c, 1, 68, 0
3, 288576, Note_on_c, 1, 69, 80
3, 288764, Note_on_c, 1, 69, 0
3, 288960, Note_on_c, 1, 70, 80
3, 289052, Note_on_c, 1, 70, 0
3, 289056, Note_on_c, 1, 72, 80
3, 289148, Note_on_c, 1, 72, 0
3, 289152, Note_on_c, 1, 74, 80
3, 289152, Note_on_c, 1, 70, 80
3, 289244, Note_on_c, 1, 70, 0
3, 289244, Note_on_c, 1, 74, 0
3, 289536, Note_on_c, 1, 74, 80
3, 289536, Note_on_c, 1, 70, 80
3, 289628, Note_on_c, 1, 70, 0
3, 289628, Note_on_c, 1, 74, 0
3, 289728, Note_on_c, 1, 74, 80
3, 289728, Note_on_c, 1, 70, 80
3, 289820, Note_on_c, 1, 70, 0
3, 289820, Note_on_c, 1, 74, 0
3, 289920, Note_on_c, 1, 74, 80
3, 289920, Note_on_c, 1, 70, 80
3, 290012, Note_on_c, 1, 70, 0
3, 290012, Note_on_c, 1, 74, 0
3, 290112, Note_on_c, 1, 74, 80
3, 290112, Note_on_c, 1, 70, 80
3, 290204, Note_on_c, 1, 70, 0
3, 290204, Note_on_c, 1, 74, 0
3, 290304, Note_on_c, 1, 75, 80
3, 290304, Note_on_c, 1, 72, 80
3, 290876, Note_on_c, 1, 72, 0
3, 290876, Note_on_c, 1, 75, 0
3, 290880, Note_on_c, 1, 74, 80
3, 290880, Note_on_c, 1, 70, 80
3, 291068, Note_on_c, 1, 70, 0
3, 291068, Note_on_c, 1, 74, 0
3, 291456, Note_on_c, 1, 72, 80
3, 291456, Note_on_c, 1, 67, 80
3, 291644, Note_on_c, 1, 67, 0
3, 291644, Note_on_c, 1, 72, 0
3, 292032, Note_on_c, 1, 63, 80
3, 292032, Note_on_c, 1, 60, 80
3, 292220, Note_on_c, 1, 60, 0
3, 292220, Note_on_c, 1, 63, 0
3, 292608, Note_on_c, 1, 62, 80
3, 292988, Note_on_c, 1, 62, 0
3, 292992, Note_on_c, 1, 65, 80
3, 293180, Note_on_c, 1, 65, 0
3, 293184, Note_on_c, 1, 62, 80
3, 293564, Note_on_c, 1, 62, 0
3, 293568, Note_on_c, 1, 74, 80
3, 293568, Note_on_c, 1, 70, 80
3, 293660, Note_on_c, 1, 70, 0
3, 293660, Note_on_c, 1, 74, 0
3, 293664, Note_on_c, 1, 75, 80
3, 293664, Note_on_c, 1, 72, 80
3, 293756, Note_on_c, 1, 72, 0
3, 293756, Note_on_c, 1, 75, 0
3, 293760, Note_on_c, 1, 77, 81
3, 293760, Note_on_c, 1, 74, 81
3, 293852, Note_on_c, 1, 74, 0
3, 293852, Note_on_c, 1, 77, 0
3, 293952, Note_on_c, 1, 77, 87
3, 293952, Note_on_c, 1, 74, 87
3, 293952, Note_on_c, 1, 70, 87
3, 294044, Note_on_c, 1, 70, 0
3, 294044, Note_on_c, 1, 74, 0
3, 294044, Note_on_c, 1, 77, 0
3, 294144, Note_on_c, 1, 77, 91
3, 294144, Note_on_c, 1, 74, 91
3, 294144, Note_on_c, 1, 70, 91
3, 294236, Note_on_c, 1, 70, 0
3, 294236, Note_on_c, 1, 74, 0
3, 294236, Note_on_c, 1, 77, 0
3, 294336, Note_on_c, 1, 77, 96
3, 294336, Note_on_c, 1, 74, 96
3, 294336, Note_on_c, 1, 70, 96
3, 294428, Note_on_c, 1, 70, 0
3, 294428, Note_on_c, 1, 74, 0
3, 294428, Note_on_c, 1, 77, 0
3, 294528, Note_on_c, 1, 77, 99
3, 294528, Note_on_c, 1, 70, 99
3, 294528, Note_on_c, 1, 74, 99
3, 294620, Note_on_c, 1, 74, 0
3, 294620, Note_on_c, 1, 70, 0
3, 294620, Note_on_c, 1, 77, 0
3, 294720, Note_on_c, 1, 77, 104
3, 294720, Note_on_c, 1, 74, 104
3, 294720, Note_on_c, 1, 70, 104
3, 294812, Note_on_c, 1, 70, 0
3, 294812, Note_on_c, 1, 74, 0
3, 294812, Note_on_c, 1, 77, 0
3, 294912, Note_on_c, 1, 81, 108
3, 294912, Note_on_c, 1, 75, 108
3, 294912, Note_on_c, 1, 72, 108
3, 295484, Note_on_c, 1, 72, 0
3, 295484, Note_on_c, 1, 75, 0
3, 295484, Note_on_c, 1, 81, 0
3, 295488, Note_on_c, 1, 82, 108
3, 295488, Note_on_c, 1, 74, 108
3, 295488, Note_on_c, 1, 70, 108
3, 295676, Note_on_c, 1, 70, 0
3, 295676, Note_on_c, 1, 74, 0
3, 295676, Note_on_c, 1, 82, 0
3, 295872, Note_on_c, 1, 79, 80
3, 295872, Note_on_c, 1, 82, 80
3, 295964, Note_on_c, 1, 82, 0
3, 295964, Note_on_c, 1, 79, 0
3, 295968, Note_on_c, 1, 77, 80
3, 295968, Note_on_c, 1, 81, 80
3, 296060, Note_on_c, 1, 81, 0
3, 296060, Note_on_c, 1, 77, 0
3, 296064, Note_on_c, 1, 79, 80
3, 296064, Note_on_c, 1, 75, 80
3, 296156, Note_on_c, 1, 75, 0
3, 296156, Note_on_c, 1, 79, 0
3, 296448, Note_on_c, 1, 79, 80
3, 296448, Note_on_c, 1, 75, 80
3, 296540, Note_on_c, 1, 75, 0
3, 296540, Note_on_c, 1, 79, 0
3, 296544, Note_on_c, 1, 77, 80
3, 296544, Note_on_c, 1, 74, 80
3, 296636, Note_on_c, 1, 74, 0
3, 296636, Note_on_c, 1, 77, 0
3, 296640, Note_on_c, 1, 75, 80
3, 296640, Note_on_c, 1, 72, 80
3, 296732, Note_on_c, 1, 72, 0
3, 296732, Note_on_c, 1, 75, 0
3, 297024, Note_on_c, 1, 75, 80
3, 297024, Note_on_c, 1, 72, 80
3, 297116, Note_on_c, 1, 72, 0
3, 297116, Note_on_c, 1, 75, 0
3, 297120, Note_on_c, 1, 74, 80
3, 297120, Note_on_c, 1, 70, 80
3, 297212, Note_on_c, 1, 70, 0
3, 297212, Note_on_c, 1, 74, 0
3, 297216, Note_on_c, 1, 72, 80
3, 297216, Note_on_c, 1, 69, 80
3, 297404, Note_on_c, 1, 69, 0
3, 297404, Note_on_c, 1, 72, 0
3, 297408, Note_on_c, 1, 72, 80
3, 297408, Note_on_c, 1, 69, 80
3, 297500, Note_on_c, 1, 69, 0
3, 297500, Note_on_c, 1, 72, 0
3, 297504, Note_on_c, 1, 74, 80
3, 297596, Note_on_c, 1, 74, 0
3, 297600, Note_on_c, 1, 70, 80
3, 297600, Note_on_c, 1, 67, 80
3, 297692, Note_on_c, 1, 67, 0
3, 297692, Note_on_c, 1, 70, 0
3, 297696, Note_on_c, 1, 74, 80
3, 297788, Note_on_c, 1, 74, 0
3, 297792, Note_on_c, 1, 72, 80
3, 297792, Note_on_c, 1, 69, 80
3, 297980, Note_on_c, 1, 69, 0
3, 297980, Note_on_c, 1, 72, 0
3, 298176, Note_on_c, 1, 74, 80
3, 298176, Note_on_c, 1, 70, 80
3, 298268, Note_on_c, 1, 70, 0
3, 298268, Note_on_c, 1, 74, 0
3, 298272, Note_on_c, 1, 75, 80
3, 298272, Note_on_c, 1, 72, 80
3, 298364, Note_on_c, 1, 72, 0
3, 298364, Note_on_c, 1, 75, 0
3, 298368, Note_on_c, 1, 77, 81
3, 298368, Note_on_c, 1, 74, 81
3, 298460, Note_on_c, 1, 74, 0
3, 298460, Note_on_c, 1, 77, 0
3, 298560, Note_on_c, 1, 77, 91
3, 298560, Note_on_c, 1, 74, 91
3, 298560, Note_on_c, 1, 70, 91
3, 298652, Note_on_c, 1, 70, 0
3, 298652, Note_on_c, 1, 74, 0
3, 298652, Note_on_c, 1, 77, 0
3, 298752, Note_on_c, 1, 77, 95
3, 298752, Note_on_c, 1, 74, 95
3, 298752, Note_on_c, 1, 70, 95
3, 298844, Note_on_c, 1, 70, 0
3, 298844, Note_on_c, 1, 74, 0
3, 298844, Note_on_c, 1, 77, 0
3, 298944, Note_on_c, 1, 77, 98
3, 298944, Note_on_c, 1, 74, 98
3, 298944, Note_on_c, 1, 70, 98
3, 299036, Note_on_c, 1, 70, 0
3, 299036, Note_on_c, 1, 74, 0
3, 299036, Note_on_c, 1, 77, 0
3, 299136, Note_on_c, 1, 77, 101
3, 299136, Note_on_c, 1, 74, 101
3, 299136, Note_on_c, 1, 70, 101
3, 299228, Note_on_c, 1, 70, 0
3, 299228, Note_on_c, 1, 74, 0
3, 299228, Note_on_c, 1, 77, 0
3, 299328, Note_on_c, 1, 77, 105
3, 299328, Note_on_c, 1, 74, 105
3, 299328, Note_on_c, 1, 70, 105
3, 299420, Note_on_c, 1, 70, 0
3, 299420, Note_on_c, 1, 74, 0
3, 299420, Note_on_c, 1, 77, 0
3, 299520, Note_on_c, 1, 87, 108
3, 299520, Note_on_c, 1, 84, 108
3, 299520, Note_on_c, 1, 81, 108
3, 300092, Note_on_c, 1, 81, 0
3, 300092, Note_on_c, 1, 84, 0
3, 300092, Note_on_c, 1, 87, 0
3, 300096, Note_on_c, 1, 86, 108
3, 300096, Note_on_c, 1, 82, 108
3, 300284, Note_on_c, 1, 82, 0
3, 300284, Note_on_c, 1, 86, 0
3, 300480, Note_on_c, 1, 82, 80
3, 300480, Note_on_c, 1, 74, 80
3, 300572, Note_on_c, 1, 74, 0
3, 300572, Note_on_c, 1, 82, 0
3, 300576, Note_on_c, 1, 81, 80
3, 300576, Note_on_c, 1, 77, 80
3, 300668, Note_on_c, 1, 77, 0
3, 300668, Note_on_c, 1, 81, 0
3, 300672, Note_on_c, 1, 79, 80
3, 300672, Note_on_c, 1, 75, 80
3, 300764, Note_on_c, 1, 75, 0
3, 300764, Note_on_c, 1, 79, 0
3, 301056, Note_on_c, 1, 75, 80
3, 301056, Note_on_c, 1, 67, 80
3, 301148, Note_on_c, 1, 67, 0
3, 301148, Note_on_c, 1, 75, 0
3, 301152, Note_on_c, 1, 74, 80
3, 301152, Note_on_c, 1, 70, 80
3, 301244, Note_on_c, 1, 70, 0
3, 301244, Note_on_c, 1, 74, 0
3, 301248, Note_on_c, 1, 72, 80
3, 301248, Note_on_c, 1, 69, 80
3, 301340, Note_on_c, 1, 69, 0
3, 301340, Note_on_c, 1, 72, 0
3, 301632, Note_on_c, 1, 77, 80
3, 301724, Note_on_c, 1, 77, 0
3, 301728, Note_on_c, 1, 69, 80
3, 301820, Note_on_c, 1, 69, 0
3, 301824, Note_on_c, 1, 70, 80
3, 301824, Note_on_c, 1, 62, 80
3, 302204, Note_on_c, 1, 62, 0
3, 302204, Note_on_c, 1, 70, 0
3, 302208, Note_on_c, 1, 74, 80
3, 302208, Note_on_c, 1, 65, 80
3, 302396, Note_on_c, 1, 65, 0
3, 302396, Note_on_c, 1, 74, 0
3, 302400, Note_on_c, 1, 70, 80
3, 302400, Note_on_c, 1, 62, 80
3, 302780, Note_on_c, 1, 62, 0
3, 302780, Note_on_c, 1, 70, 0
3, 303168, Note_on_c, 1, 65, 80
3, 303168, Note_on_c, 1, 63, 80
3, 303168, Note_on_c, 1, 60, 80
3, 303168, Note_on_c, 1, 57, 80
3, 303356, Note_on_c, 1, 57, 0
3, 303356, Note_on_c, 1, 65, 0
3, 303356, Note_on_c, 1, 63, 0
3, 303356, Note_on_c, 1, 60, 0
3, 303360, Note_on_c, 1, 65, 80
3, 303360, Note_on_c, 1, 63, 80
3, 303360, Note_on_c, 1, 60, 80
3, 303360, Note_on_c, 1, 57, 80
3, 303548, Note_on_c, 1, 57, 0
3, 303548, Note_on_c, 1, 65, 0
3, 303548, Note_on_c, 1, 63, 0
3, 303548, Note_on_c, 1, 60, 0
3, 303552, Note_on_c, 1, 65, 80
3, 303552, Note_on_c, 1, 63, 80
3, 303552, Note_on_c, 1, 60, 80
3, 303552, Note_on_c, 1, 57, 80
3, 303740, Note_on_c, 1, 57, 0
3, 303740, Note_on_c, 1, 65, 0
3, 303740, Note_on_c, 1, 63, 0
3, 303740, Note_on_c, 1, 60, 0
3, 303744, Note_on_c, 1, 65, 80
3, 303744, Note_on_c, 1, 63, 80
3, 303744, Note_on_c, 1, 60, 80
3, 303744, Note_on_c, 1, 57, 80
3, 303932, Note_on_c, 1, 57, 0
3, 303932, Note_on_c, 1, 65, 0
3, 303932, Note_on_c, 1, 63, 0
3, 303932, Note_on_c, 1, 60, 0
3, 303936, Note_on_c, 1, 65, 80
3, 303936, Note_on_c, 1, 63, 80
3, 303936, Note_on_c, 1, 60, 80
3, 303936, Note_on_c, 1, 57, 80
3, 304124, Note_on_c, 1, 57, 0
3, 304124, Note_on_c, 1, 65, 0
3, 304124, Note_on_c, 1, 63, 0
3, 304124, Note_on_c, 1, 60, 0
3, 304320, Note_on_c, 1, 65, 80
3, 304320, Note_on_c, 1, 62, 80
3, 304320, Note_on_c, 1, 58, 80
3, 304508, Note_on_c, 1, 58, 0
3, 304508, Note_on_c, 1, 62, 0
3, 304508, Note_on_c, 1, 65, 0
3, 304512, Note_on_c, 1, 65, 80
3, 304512, Note_on_c, 1, 62, 80
3, 304512, Note_on_c, 1, 58, 80
3, 304700, Note_on_c, 1, 58, 0
3, 304700, Note_on_c, 1, 62, 0
3, 304700, Note_on_c, 1, 65, 0
3, 304704, Note_on_c, 1, 65, 80
3, 304704, Note_on_c, 1, 62, 80
3, 304704, Note_on_c, 1, 58, 80
3, 304892, Note_on_c, 1, 58, 0
3, 304892, Note_on_c, 1, 62, 0
3, 304892, Note_on_c, 1, 65, 0
3, 304896, Note_on_c, 1, 65, 80
3, 304896, Note_on_c, 1, 62, 80
3, 304896, Note_on_c, 1, 58, 80
3, 305084, Note_on_c, 1, 58, 0
3, 305084, Note_on_c, 1, 62, 0
3, 305084, Note_on_c, 1, 65, 0
3, 305088, Note_on_c, 1, 65, 80
3, 305088, Note_on_c, 1, 62, 80
3, 305088, Note_on_c, 1, 58, 80
3, 305276, Note_on_c, 1, 58, 0
3, 305276, Note_on_c, 1, 62, 0
3, 305276, Note_on_c, 1, 65, 0
3, 305472, Note_on_c, 1, 72, 80
3, 305472, Note_on_c, 1, 70, 80
3, 305472, Note_on_c, 1, 67, 80
3, 305472, Note_on_c, 1, 64, 80
3, 305660, Note_on_c, 1, 64, 0
3, 305660, Note_on_c, 1, 72, 0
3, 305660, Note_on_c, 1, 70, 0
3, 305660, Note_on_c, 1, 67, 0
3, 305664, Note_on_c, 1, 72, 80
3, 305664, Note_on_c, 1, 69, 80
3, 305664, Note_on_c, 1, 64, 80
3, 305664, Note_on_c, 1, 70, 80
3, 305852, Note_on_c, 1, 70, 0
3, 305852, Note_on_c, 1, 72, 0
3, 305852, Note_on_c, 1, 69, 0
3, 305852, Note_on_c, 1, 64, 0
3, 305856, Note_on_c, 1, 72, 80
3, 305856, Note_on_c, 1, 70, 80
3, 305856, Note_on_c, 1, 67, 80
3, 305856, Note_on_c, 1, 64, 80
3, 306044, Note_on_c, 1, 64, 0
3, 306044, Note_on_c, 1, 72, 0
3, 306044, Note_on_c, 1, 70, 0
3, 306044, Note_on_c, 1, 67, 0
3, 306048, Note_on_c, 1, 70, 80
3, 306048, Note_on_c, 1, 67, 80
3, 306048, Note_on_c, 1, 64, 80
3, 306048, Note_on_c, 1, 72, 80
3, 306236, Note_on_c, 1, 72, 0
3, 306236, Note_on_c, 1, 70, 0
3, 306236, Note_on_c, 1, 67, 0
3, 306236, Note_on_c, 1, 64, 0
3, 306240, Note_on_c, 1, 70, 80
3, 306240, Note_on_c, 1, 67, 80
3, 306240, Note_on_c, 1, 64, 80
3, 306240, Note_on_c, 1, 72, 80
3, 306428, Note_on_c, 1, 72, 0
3, 306428, Note_on_c, 1, 70, 0
3, 306428, Note_on_c, 1, 67, 0
3, 306428, Note_on_c, 1, 64, 0
3, 306432, Note_on_c, 1, 72, 80
3, 306432, Note_on_c, 1, 69, 80
3, 306432, Note_on_c, 1, 65, 80
3, 306812, Note_on_c, 1, 65, 0
3, 306812, Note_on_c, 1, 69, 0
3, 306812, Note_on_c, 1, 72, 0
3, 307392, Note_on_c, 1, 64, 80
3, 307392, Note_on_c, 1, 60, 80
3, 307392, Note_on_c, 1, 58, 80
3, 307484, Note_on_c, 1, 58, 0
3, 307484, Note_on_c, 1, 60, 0
3, 307484, Note_on_c, 1, 64, 0
3, 307584, Note_on_c, 1, 65, 80
3, 307584, Note_on_c, 1, 60, 80
3, 307584, Note_on_c, 1, 57, 80
3, 307964, Note_on_c, 1, 57, 0
3, 307964, Note_on_c, 1, 60, 0
3, 307964, Note_on_c, 1, 65, 0
3, 308544, Note_on_c, 1, 64, 80
3, 308544, Note_on_c, 1, 60, 80
3, 308544, Note_on_c, 1, 58, 80
3, 308636, Note_on_c, 1, 58, 0
3, 308636, Note_on_c, 1, 60, 0
3, 308636, Note_on_c, 1, 64, 0
3, 308736, Note_on_c, 1, 65, 80
3, 308736, Note_on_c, 1, 60, 80
3, 308736, Note_on_c, 1, 57, 80
3, 309116, Note_on_c, 1, 57, 0
3, 309116, Note_on_c, 1, 60, 0
3, 309116, Note_on_c, 1, 65, 0
3, 310080, Note_on_c, 1, 69, 80
3, 310080, Note_on_c, 1, 65, 80
3, 310268, Note_on_c, 1, 65, 0
3, 310268, Note_on_c, 1, 69, 0
3, 310272, Note_on_c, 1, 70, 80
3, 310272, Note_on_c, 1, 67, 80
3, 310460, Note_on_c, 1, 67, 0
3, 310460, Note_on_c, 1, 70, 0
3, 310464, Note_on_c, 1, 72, 80
3, 310464, Note_on_c, 1, 69, 80
3, 310652, Note_on_c, 1, 69, 0
3, 310652, Note_on_c, 1, 72, 0
3, 310656, Note_on_c, 1, 74, 80
3, 310656, Note_on_c, 1, 70, 80
3, 310844, Note_on_c, 1, 70, 0
3, 310844, Note_on_c, 1, 74, 0
3, 310848, Note_on_c, 1, 75, 80
3, 310848, Note_on_c, 1, 72, 80
3, 311036, Note_on_c, 1, 72, 0
3, 311036, Note_on_c, 1, 75, 0
3, 311040, Note_on_c, 1, 74, 80
3, 311040, Note_on_c, 1, 70, 80
3, 311132, Note_on_c, 1, 70, 0
3, 311132, Note_on_c, 1, 74, 0
3, 311424, Note_on_c, 1, 74, 80
3, 311424, Note_on_c, 1, 70, 80
3, 311516, Note_on_c, 1, 70, 0
3, 311516, Note_on_c, 1, 74, 0
3, 311616, Note_on_c, 1, 74, 80
3, 311616, Note_on_c, 1, 70, 80
3, 311708, Note_on_c, 1, 70, 0
3, 311708, Note_on_c, 1, 74, 0
3, 311808, Note_on_c, 1, 74, 80
3, 311808, Note_on_c, 1, 70, 80
3, 311900, Note_on_c, 1, 70, 0
3, 311900, Note_on_c, 1, 74, 0
3, 312000, Note_on_c, 1, 74, 80
3, 312000, Note_on_c, 1, 70, 80
3, 312092, Note_on_c, 1, 70, 0
3, 312092, Note_on_c, 1, 74, 0
3, 312192, Note_on_c, 1, 72, 80
3, 312192, Note_on_c, 1, 69, 80
3, 312764, Note_on_c, 1, 69, 0
3, 312764, Note_on_c, 1, 72, 0
3, 312768, Note_on_c, 1, 70, 80
3, 313052, Note_on_c, 1, 70, 0
3, 313344, Note_on_c, 1, 70, 80
3, 313344, Note_on_c, 1, 67, 80
3, 313436, Note_on_c, 1, 67, 0
3, 313436, Note_on_c, 1, 70, 0
3, 313536, Note_on_c, 1, 70, 80
3, 313536, Note_on_c, 1, 67, 80
3, 313628, Note_on_c, 1, 67, 0
3, 313628, Note_on_c, 1, 70, 0
3, 313920, Note_on_c, 1, 70, 80
3, 313920, Note_on_c, 1, 67, 80
3, 314012, Note_on_c, 1, 67, 0
3, 314012, Note_on_c, 1, 70, 0
3, 314112, Note_on_c, 1, 70, 80
3, 314112, Note_on_c, 1, 67, 80
3, 314204, Note_on_c, 1, 67, 0
3, 314204, Note_on_c, 1, 70, 0
3, 314496, Note_on_c, 1, 65, 80
3, 314684, Note_on_c, 1, 65, 0
3, 314688, Note_on_c, 1, 67, 80
3, 314876, Note_on_c, 1, 67, 0
3, 314880, Note_on_c, 1, 68, 80
3, 315068, Note_on_c, 1, 68, 0
3, 315072, Note_on_c, 1, 69, 80
3, 315260, Note_on_c, 1, 69, 0
3, 315456, Note_on_c, 1, 70, 80
3, 315548, Note_on_c, 1, 70, 0
3, 315552, Note_on_c, 1, 72, 80
3, 315644, Note_on_c, 1, 72, 0
3, 315648, Note_on_c, 1, 74, 80
3, 315648, Note_on_c, 1, 70, 80
3, 315740, Note_on_c, 1, 70, 0
3, 315740, Note_on_c, 1, 74, 0
3, 316032, Note_on_c, 1, 74, 80
3, 316032, Note_on_c, 1, 70, 80
3, 316124, Note_on_c, 1, 70, 0
3, 316124, Note_on_c, 1, 74, 0
3, 316224, Note_on_c, 1, 74, 80
3, 316224, Note_on_c, 1, 70, 80
3, 316316, Note_on_c, 1, 70, 0
3, 316316, Note_on_c, 1, 74, 0
3, 316416, Note_on_c, 1, 74, 80
3, 316416, Note_on_c, 1, 70, 80
3, 316508, Note_on_c, 1, 70, 0
3, 316508, Note_on_c, 1, 74, 0
3, 316608, Note_on_c, 1, 74, 80
3, 316608, Note_on_c, 1, 70, 80
3, 316700, Note_on_c, 1, 70, 0
3, 316700, Note_on_c, 1, 74, 0
3, 316800, Note_on_c, 1, 75, 80
3, 316800, Note_on_c, 1, 72, 80
3, 317372, Note_on_c, 1, 72, 0
3, 317372, Note_on_c, 1, 75, 0
3, 317376, Note_on_c, 1, 74, 80
3, 317376, Note_on_c, 1, 70, 80
3, 317564, Note_on_c, 1, 70, 0
3, 317564, Note_on_c, 1, 74, 0
3, 317952, Note_on_c, 1, 72, 80
3, 317952, Note_on_c, 1, 67, 80
3, 318140, Note_on_c, 1, 67, 0
3, 318140, Note_on_c, 1, 72, 0
3, 318528, Note_on_c, 1, 63, 80
3, 318528, Note_on_c, 1, 60, 80
3, 318716, Note_on_c, 1, 60, 0
3, 318716, Note_on_c, 1, 63, 0
3, 319104, Note_on_c, 1, 62, 80
3, 319292, Note_on_c, 1, 62, 0
3, 319296, Note_on_c, 1, 70, 80
3, 319388, Note_on_c, 1, 70, 0
3, 319392, Note_on_c, 1, 69, 80
3, 319484, Note_on_c, 1, 69, 0
3, 319488, Note_on_c, 1, 67, 80
3, 319580, Note_on_c, 1, 67, 0
3, 319584, Note_on_c, 1, 65, 80
3, 319676, Note_on_c, 1, 65, 0
3, 319680, Note_on_c, 1, 63, 80
3, 319772, Note_on_c, 1, 63, 0
3, 319776, Note_on_c, 1, 62, 80
3, 319868, Note_on_c, 1, 62, 0
3, 319872, Note_on_c, 1, 60, 80
3, 319964, Note_on_c, 1, 60, 0
3, 319968, Note_on_c, 1, 58, 80
3, 320060, Note_on_c, 1, 58, 0
3, 320064, Note_on_c, 1, 57, 80
3, 320156, Note_on_c, 1, 57, 0
3, 320160, Note_on_c, 1, 58, 80
3, 320252, Note_on_c, 1, 58, 0
3, 320256, Note_on_c, 1, 60, 80
3, 320444, Note_on_c, 1, 60, 0
3, 320448, Note_on_c, 1, 72, 80
3, 320540, Note_on_c, 1, 72, 0
3, 320544, Note_on_c, 1, 70, 80
3, 320636, Note_on_c, 1, 70, 0
3, 320640, Note_on_c, 1, 69, 80
3, 320732, Note_on_c, 1, 69, 0
3, 320736, Note_on_c, 1, 67, 80
3, 320828, Note_on_c, 1, 67, 0
3, 320832, Note_on_c, 1, 65, 80
3, 320924, Note_on_c, 1, 65, 0
3, 320928, Note_on_c, 1, 63, 80
3, 321020, Note_on_c, 1, 63, 0
3, 321024, Note_on_c, 1, 62, 80
3, 321116, Note_on_c, 1, 62, 0
3, 321120, Note_on_c, 1, 60, 80
3, 321212, Note_on_c, 1, 60, 0
3, 321216, Note_on_c, 1, 58, 80
3, 321308, Note_on_c, 1, 58, 0
3, 321312, Note_on_c, 1, 60, 80
3, 321404, Note_on_c, 1, 60, 0
3, 321408, Note_on_c, 1, 62, 81
3, 321596, Note_on_c, 1, 62, 0
3, 321600, Note_on_c, 1, 74, 83
3, 321692, Note_on_c, 1, 74, 0
3, 321696, Note_on_c, 1, 72, 84
3, 321788, Note_on_c, 1, 72, 0
3, 321792, Note_on_c, 1, 70, 85
3, 321884, Note_on_c, 1, 70, 0
3, 321888, Note_on_c, 1, 69, 87
3, 321980, Note_on_c, 1, 69, 0
3, 321984, Note_on_c, 1, 67, 87
3, 322076, Note_on_c, 1, 67, 0
3, 322080, Note_on_c, 1, 65, 88
3, 322172, Note_on_c, 1, 65, 0
3, 322176, Note_on_c, 1, 63, 89
3, 322268, Note_on_c, 1, 63, 0
3, 322272, Note_on_c, 1, 62, 90
3, 322364, Note_on_c, 1, 62, 0
3, 322368, Note_on_c, 1, 60, 91
3, 322460, Note_on_c, 1, 60, 0
3, 322464, Note_on_c, 1, 62, 91
3, 322556, Note_on_c, 1, 62, 0
3, 322560, Note_on_c, 1, 63, 92
3, 322748, Note_on_c, 1, 63, 0
3, 322752, Note_on_c, 1, 75, 94
3, 322844, Note_on_c, 1, 75, 0
3, 322848, Note_on_c, 1, 74, 95
3, 322940, Note_on_c, 1, 74, 0
3, 322944, Note_on_c, 1, 72, 95
3, 323036, Note_on_c, 1, 72, 0
3, 323040, Note_on_c, 1, 70, 96
3, 323132, Note_on_c, 1, 70, 0
3, 323136, Note_on_c, 1, 69, 97
3, 323228, Note_on_c, 1, 69, 0
3, 323232, Note_on_c, 1, 67, 98
3, 323324, Note_on_c, 1, 67, 0
3, 323328, Note_on_c, 1, 65, 99
3, 323420, Note_on_c, 1, 65, 0
3, 323424, Note_on_c, 1, 63, 99
3, 323516, Note_on_c, 1, 63, 0
3, 323520, Note_on_c, 1, 62, 99
3, 323612, Note_on_c, 1, 62, 0
3, 323616, Note_on_c, 1, 63, 100
3, 323708, Note_on_c, 1, 63, 0
3, 323712, Note_on_c, 1, 65, 101
3, 324092, Note_on_c, 1, 65, 0
3, 324864, Note_on_c, 1, 70, 80
3, 326012, Note_on_c, 1, 70, 0
3, 326016, Note_on_c, 1, 67, 80
3, 326396, Note_on_c, 1, 67, 0
3, 326400, Note_on_c, 1, 71, 80
3, 326588, Note_on_c, 1, 71, 0
3, 326592, Note_on_c, 1, 72, 80
3, 326780, Note_on_c, 1, 72, 0
3, 326784, Note_on_c, 1, 74, 80
3, 326972, Note_on_c, 1, 74, 0
3, 326976, Note_on_c, 1, 75, 80
3, 327164, Note_on_c, 1, 75, 0
3, 327168, Note_on_c, 1, 74, 80
3, 327548, Note_on_c, 1, 74, 0
3, 327744, Note_on_c, 1, 75, 80
3, 328124, Note_on_c, 1, 75, 0
3, 328320, Note_on_c, 1, 69, 80
3, 328412, Note_on_c, 1, 69, 0
3, 328512, Note_on_c, 1, 69, 80
3, 328604, Note_on_c, 1, 69, 0
3, 328704, Note_on_c, 1, 69, 80
3, 328796, Note_on_c, 1, 69, 0
3, 328896, Note_on_c, 1, 70, 80
3, 329084, Note_on_c, 1, 70, 0
3, 329280, Note_on_c, 1, 70, 108
3, 329468, Note_on_c, 1, 70, 0
3, 329472, Note_on_c, 1, 82, 108
3, 329660, Note_on_c, 1, 82, 0
3, 329664, Note_on_c, 1, 86, 108
3, 329852, Note_on_c, 1, 86, 0
3, 329856, Note_on_c, 1, 86, 108
3, 330236, Note_on_c, 1, 86, 0
3, 330240, Note_on_c, 1, 82, 108
3, 330332, Note_on_c, 1, 82, 0
3, 330432, Note_on_c, 1, 77, 108
3, 330524, Note_on_c, 1, 77, 0
3, 330624, Note_on_c, 1, 79, 108
3, 330812, Note_on_c, 1, 79, 0
3, 330816, Note_on_c, 1, 82, 108
3, 331004, Note_on_c, 1, 82, 0
3, 331008, Note_on_c, 1, 82, 108
3, 331388, Note_on_c, 1, 82, 0
3, 331392, Note_on_c, 1, 79, 108
3, 331484, Note_on_c, 1, 79, 0
3, 331584, Note_on_c, 1, 75, 108
3, 331676, Note_on_c, 1, 75, 0
3, 331776, Note_on_c, 1, 74, 108
3, 331776, Note_on_c, 1, 70, 108
3, 331868, Note_on_c, 1, 70, 0
3, 331868, Note_on_c, 1, 74, 0
3, 331968, Note_on_c, 1, 77, 108
3, 332060, Note_on_c, 1, 77, 0
3, 332064, Note_on_c, 1, 75, 108
3, 332156, Note_on_c, 1, 75, 0
3, 332160, Note_on_c, 1, 77, 108
3, 332252, Note_on_c, 1, 77, 0
3, 332256, Note_on_c, 1, 74, 108
3, 332348, Note_on_c, 1, 74, 0
3, 332352, Note_on_c, 1, 72, 108
3, 332352, Note_on_c, 1, 69, 108
3, 332444, Note_on_c, 1, 69, 0
3, 332444, Note_on_c, 1, 72, 0
3, 332544, Note_on_c, 1, 75, 108
3, 332636, Note_on_c, 1, 75, 0
3, 332640, Note_on_c, 1, 74, 108
3, 332732, Note_on_c, 1, 74, 0
3, 332736, Note_on_c, 1, 75, 108
3, 332828, Note_on_c, 1, 75, 0
3, 332832, Note_on_c, 1, 72, 108
3, 332924, Note_on_c, 1, 72, 0
3, 332928, Note_on_c, 1, 70, 108
3, 333308, Note_on_c, 1, 70, 0
3, 334080, Note_on_c, 1, 75, 80
3, 334080, Note_on_c, 1, 72, 80
3, 335228, Note_on_c, 1, 72, 0
3, 335228, Note_on_c, 1, 75, 0
3, 335232, Note_on_c, 1, 74, 80
3, 335232, Note_on_c, 1, 70, 80
3, 335420, Note_on_c, 1, 70, 0
3, 335420, Note_on_c, 1, 74, 0
3, 335808, Note_on_c, 1, 72, 80
3, 335808, Note_on_c, 1, 67, 80
3, 335996, Note_on_c, 1, 67, 0
3, 335996, Note_on_c, 1, 72, 0
3, 336384, Note_on_c, 1, 70, 80
3, 336384, Note_on_c, 1, 62, 80
3, 336572, Note_on_c, 1, 62, 0
3, 336572, Note_on_c, 1, 70, 0
3, 336576, Note_on_c, 1, 70, 80
3, 336576, Note_on_c, 1, 62, 80
3, 336764, Note_on_c, 1, 62, 0
3, 336764, Note_on_c, 1, 70, 0
3, 336768, Note_on_c, 1, 70, 80
3, 336768, Note_on_c, 1, 62, 80
3, 336956, Note_on_c, 1, 62, 0
3, 336956, Note_on_c, 1, 70, 0
3, 336960, Note_on_c, 1, 74, 80
3, 337004, Note_on_c, 1, 74, 0
3, 337008, Note_on_c, 1, 65, 80
3, 337008, Note_on_c, 1, 72, 80
3, 337152, Note_on_c, 1, 70, 80
3, 337152, Note_on_c, 1, 62, 80
3, 337196, Note_on_c, 1, 72, 0
3, 337196, Note_on_c, 1, 65, 0
3, 337340, Note_on_c, 1, 70, 0
3, 337340, Note_on_c, 1, 62, 0
3, 337344, Note_on_c, 1, 72, 80
3, 337344, Note_on_c, 1, 65, 80
3, 337532, Note_on_c, 1, 65, 0
3, 337532, Note_on_c, 1, 72, 0
3, 337536, Note_on_c, 1, 74, 80
3, 337536, Note_on_c, 1, 70, 80
3, 337916, Note_on_c, 1, 70, 0
3, 337916, Note_on_c, 1, 74, 0
3, 338688, Note_on_c, 1, 69, 80
3, 339260, Note_on_c, 1, 69, 0
3, 339264, Note_on_c, 1, 77, 80
3, 339264, Note_on_c, 1, 69, 80
3, 339836, Note_on_c, 1, 69, 0
3, 339836, Note_on_c, 1, 77, 0
3, 339840, Note_on_c, 1, 77, 80
3, 339840, Note_on_c, 1, 70, 80
3, 340028, Note_on_c, 1, 70, 0
3, 340028, Note_on_c, 1, 77, 0
3, 340416, Note_on_c, 1, 75, 80
3, 340416, Note_on_c, 1, 72, 80
3, 340604, Note_on_c, 1, 72, 0
3, 340604, Note_on_c, 1, 75, 0
3, 340992, Note_on_c, 1, 74, 80
3, 340992, Note_on_c, 1, 70, 80
3, 341180, Note_on_c, 1, 70, 0
3, 341180, Note_on_c, 1, 74, 0
3, 341568, Note_on_c, 1, 69, 80
3, 341568, Note_on_c, 1, 63, 80
3, 341756, Note_on_c, 1, 63, 0
3, 341756, Note_on_c, 1, 69, 0
3, 341760, Note_on_c, 1, 69, 80
3, 341760, Note_on_c, 1, 63, 80
3, 341948, Note_on_c, 1, 63, 0
3, 341948, Note_on_c, 1, 69, 0
3, 341952, Note_on_c, 1, 69, 80
3, 341952, Note_on_c, 1, 63, 80
3, 342140, Note_on_c, 1, 63, 0
3, 342140, Note_on_c, 1, 69, 0
3, 342144, Note_on_c, 1, 82, 108
3, 342144, Note_on_c, 1, 74, 108
3, 343484, Note_on_c, 1, 74, 0
3, 343484, Note_on_c, 1, 82, 0
3, 343488, Note_on_c, 1, 77, 108
3, 343488, Note_on_c, 1, 74, 108
3, 343580, Note_on_c, 1, 74, 0
3, 343580, Note_on_c, 1, 77, 0
3, 343680, Note_on_c, 1, 86, 108
3, 343680, Note_on_c, 1, 82, 108
3, 343772, Note_on_c, 1, 82, 0
3, 343772, Note_on_c, 1, 86, 0
3, 343872, Note_on_c, 1, 87, 108
3, 343872, Note_on_c, 1, 84, 108
3, 343964, Note_on_c, 1, 84, 0
3, 343964, Note_on_c, 1, 87, 0
3, 344064, Note_on_c, 1, 84, 108
3, 344064, Note_on_c, 1, 81, 108
3, 344156, Note_on_c, 1, 81, 0
3, 344156, Note_on_c, 1, 84, 0
3, 344256, Note_on_c, 1, 81, 108
3, 344256, Note_on_c, 1, 75, 108
3, 344348, Note_on_c, 1, 75, 0
3, 344348, Note_on_c, 1, 81, 0
3, 344448, Note_on_c, 1, 82, 108
3, 344448, Note_on_c, 1, 74, 108
3, 345788, Note_on_c, 1, 74, 0
3, 345788, Note_on_c, 1, 82, 0
3, 345792, Note_on_c, 1, 77, 116
3, 345792, Note_on_c, 1, 74, 116
3, 345884, Note_on_c, 1, 74, 0
3, 345884, Note_on_c, 1, 77, 0
3, 345984, Note_on_c, 1, 82, 116
3, 345984, Note_on_c, 1, 86, 116
3, 346076, Note_on_c, 1, 86, 0
3, 346076, Note_on_c, 1, 82, 0
3, 346176, Note_on_c, 1, 87, 116
3, 346176, Note_on_c, 1, 84, 116
3, 346268, Note_on_c, 1, 84, 0
3, 346268, Note_on_c, 1, 87, 0
3, 346368, Note_on_c, 1, 84, 116
3, 346368, Note_on_c, 1, 81, 116
3, 346460, Note_on_c, 1, 81, 0
3, 346460, Note_on_c, 1, 84, 0
3, 346560, Note_on_c, 1, 81, 116
3, 346560, Note_on_c, 1, 75, 116
3, 346652, Note_on_c, 1, 75, 0
3, 346652, Note_on_c, 1, 81, 0
3, 346752, Note_on_c, 1, 82, 80
3, 346752, Note_on_c, 1, 74, 80
3, 346940, Note_on_c, 1, 74, 0
3, 346940, Note_on_c, 1, 82, 0
3, 346944, Note_on_c, 1, 62, 80
3, 346944, Note_on_c, 1, 58, 80
3, 347132, Note_on_c, 1, 58, 0
3, 347132, Note_on_c, 1, 62, 0
3, 347136, Note_on_c, 1, 62, 80
3, 347136, Note_on_c, 1, 58, 80
3, 347324, Note_on_c, 1, 58, 0
3, 347324, Note_on_c, 1, 62, 0
3, 347520, Note_on_c, 1, 63, 80
3, 347520, Note_on_c, 1, 60, 80
3, 347708, Note_on_c, 1, 60, 0
3, 347708, Note_on_c, 1, 63, 0
3, 347712, Note_on_c, 1, 63, 80
3, 347712, Note_on_c, 1, 60, 80
3, 347900, Note_on_c, 1, 60, 0
3, 347900, Note_on_c, 1, 63, 0
3, 348096, Note_on_c, 1, 65, 80
3, 348096, Note_on_c, 1, 62, 80
3, 348284, Note_on_c, 1, 62, 0
3, 348284, Note_on_c, 1, 65, 0
3, 348288, Note_on_c, 1, 65, 80
3, 348288, Note_on_c, 1, 62, 80
3, 348476, Note_on_c, 1, 62, 0
3, 348476, Note_on_c, 1, 65, 0
3, 348672, Note_on_c, 1, 63, 80
3, 348672, Note_on_c, 1, 60, 80
3, 348860, Note_on_c, 1, 60, 0
3, 348860, Note_on_c, 1, 63, 0
3, 348864, Note_on_c, 1, 57, 80
3, 349052, Note_on_c, 1, 57, 0
3, 349248, Note_on_c, 1, 70, 80
3, 349248, Note_on_c, 1, 62, 80
3, 349436, Note_on_c, 1, 62, 0
3, 349436, Note_on_c, 1, 70, 0
3, 349440, Note_on_c, 1, 70, 80
3, 349440, Note_on_c, 1, 62, 80
3, 349628, Note_on_c, 1, 62, 0
3, 349628, Note_on_c, 1, 70, 0
3, 349824, Note_on_c, 1, 72, 80
3, 349824, Note_on_c, 1, 63, 80
3, 350012, Note_on_c, 1, 63, 0
3, 350012, Note_on_c, 1, 72, 0
3, 350016, Note_on_c, 1, 72, 80
3, 350016, Note_on_c, 1, 63, 80
3, 350204, Note_on_c, 1, 63, 0
3, 350204, Note_on_c, 1, 72, 0
3, 350400, Note_on_c, 1, 74, 80
3, 350400, Note_on_c, 1, 65, 80
3, 350588, Note_on_c, 1, 65, 0
3, 350588, Note_on_c, 1, 74, 0
3, 350592, Note_on_c, 1, 74, 80
3, 350592, Note_on_c, 1, 65, 80
3, 350780, Note_on_c, 1, 65, 0
3, 350780, Note_on_c, 1, 74, 0
3, 350976, Note_on_c, 1, 72, 80
3, 350976, Note_on_c, 1, 63, 80
3, 351164, Note_on_c, 1, 63, 0
3, 351164, Note_on_c, 1, 72, 0
3, 351168, Note_on_c, 1, 69, 80
3, 351356, Note_on_c, 1, 69, 0
3, 351552, Note_on_c, 1, 74, 80
3, 351552, Note_on_c, 1, 70, 80
3, 351740, Note_on_c, 1, 70, 0
3, 351740, Note_on_c, 1, 74, 0
3, 351744, Note_on_c, 1, 74, 80
3, 351744, Note_on_c, 1, 70, 80
3, 351932, Note_on_c, 1, 70, 0
3, 351932, Note_on_c, 1, 74, 0
3, 352128, Note_on_c, 1, 75, 80
3, 352128, Note_on_c, 1, 72, 80
3, 352316, Note_on_c, 1, 72, 0
3, 352316, Note_on_c, 1, 75, 0
3, 352320, Note_on_c, 1, 75, 80
3, 352320, Note_on_c, 1, 72, 80
3, 352508, Note_on_c, 1, 72, 0
3, 352508, Note_on_c, 1, 75, 0
3, 352704, Note_on_c, 1, 77, 80
3, 352704, Note_on_c, 1, 74, 80
3, 352892, Note_on_c, 1, 74, 0
3, 352892, Note_on_c, 1, 77, 0
3, 352896, Note_on_c, 1, 77, 80
3, 352896, Note_on_c, 1, 74, 80
3, 353084, Note_on_c, 1, 74, 0
3, 353084, Note_on_c, 1, 77, 0
3, 353280, Note_on_c, 1, 75, 80
3, 353280, Note_on_c, 1, 72, 80
3, 353468, Note_on_c, 1, 72, 0
3, 353468, Note_on_c, 1, 75, 0
3, 353472, Note_on_c, 1, 69, 80
3, 353660, Note_on_c, 1, 69, 0
3, 353664, Note_on_c, 1, 74, 108
3, 353756, Note_on_c, 1, 74, 0
3, 353760, Note_on_c, 1, 77, 108
3, 353852, Note_on_c, 1, 77, 0
3, 353856, Note_on_c, 1, 76, 108
3, 353948, Note_on_c, 1, 76, 0
3, 353952, Note_on_c, 1, 77, 108
3, 354044, Note_on_c, 1, 77, 0
3, 354048, Note_on_c, 1, 79, 108
3, 354140, Note_on_c, 1, 79, 0
3, 354144, Note_on_c, 1, 77, 108
3, 354236, Note_on_c, 1, 77, 0
3, 354240, Note_on_c, 1, 82, 108
3, 354428, Note_on_c, 1, 82, 0
3, 355008, Note_on_c, 1, 69, 80
3, 355008, Note_on_c, 1, 63, 80
3, 355008, Note_on_c, 1, 60, 80
3, 355196, Note_on_c, 1, 60, 0
3, 355196, Note_on_c, 1, 63, 0
3, 355196, Note_on_c, 1, 69, 0
3, 355200, Note_on_c, 1, 69, 80
3, 355200, Note_on_c, 1, 63, 80
3, 355200, Note_on_c, 1, 60, 80
3, 355388, Note_on_c, 1, 60, 0
3, 355388, Note_on_c, 1, 63, 0
3, 355388, Note_on_c, 1, 69, 0
3, 355584, Note_on_c, 1, 63, 80
3, 355584, Note_on_c, 1, 60, 80
3, 355584, Note_on_c, 1, 57, 80
3, 355772, Note_on_c, 1, 57, 0
3, 355772, Note_on_c, 1, 60, 0
3, 355772, Note_on_c, 1, 63, 0
3, 355776, Note_on_c, 1, 63, 80
3, 355776, Note_on_c, 1, 60, 80
3, 355776, Note_on_c, 1, 57, 80
3, 355964, Note_on_c, 1, 57, 0
3, 355964, Note_on_c, 1, 60, 0
3, 355964, Note_on_c, 1, 63, 0
3, 355968, Note_on_c, 1, 62, 108
3, 356060, Note_on_c, 1, 62, 0
3, 356064, Note_on_c, 1, 65, 108
3, 356156, Note_on_c, 1, 65, 0
3, 356160, Note_on_c, 1, 64, 108
3, 356252, Note_on_c, 1, 64, 0
3, 356256, Note_on_c, 1, 65, 108
3, 356348, Note_on_c, 1, 65, 0
3, 356352, Note_on_c, 1, 67, 108
3, 356444, Note_on_c, 1, 67, 0
3, 356448, Note_on_c, 1, 65, 108
3, 356540, Note_on_c, 1, 65, 0
3, 356544, Note_on_c, 1, 70, 108
3, 356732, Note_on_c, 1, 70, 0
3, 357312, Note_on_c, 1, 63, 108
3, 357312, Note_on_c, 1, 58, 108
3, 357312, Note_on_c, 1, 55, 108
3, 357500, Note_on_c, 1, 55, 0
3, 357500, Note_on_c, 1, 58, 0
3, 357500, Note_on_c, 1, 63, 0
3, 357504, Note_on_c, 1, 63, 108
3, 357504, Note_on_c, 1, 58, 108
3, 357504, Note_on_c, 1, 55, 108
3, 357692, Note_on_c, 1, 55, 0
3, 357692, Note_on_c, 1, 58, 0
3, 357692, Note_on_c, 1, 63, 0
3, 357888, Note_on_c, 1, 63, 108
3, 357888, Note_on_c, 1, 57, 108
3, 357888, Note_on_c, 1, 53, 108
3, 358076, Note_on_c, 1, 53, 0
3, 358076, Note_on_c, 1, 57, 0
3, 358076, Note_on_c, 1, 63, 0
3, 358080, Note_on_c, 1, 63, 108
3, 358080, Note_on_c, 1, 57, 108
3, 358080, Note_on_c, 1, 53, 108
3, 358268, Note_on_c, 1, 53, 0
3, 358268, Note_on_c, 1, 57, 0
3, 358268, Note_on_c, 1, 63, 0
3, 358272, Note_on_c, 1, 62, 108
3, 358364, Note_on_c, 1, 62, 0
3, 358464, Note_on_c, 1, 70, 108
3, 358556, Note_on_c, 1, 70, 0
3, 358656, Note_on_c, 1, 68, 108
3, 358656, Note_on_c, 1, 75, 108
3, 358700, Note_on_c, 1, 75, 0
3, 358704, Note_on_c, 1, 74, 108
3, 358748, Note_on_c, 1, 74, 0
3, 358748, Note_on_c, 1, 68, 0
3, 358752, Note_on_c, 1, 72, 108
3, 358796, Note_on_c, 1, 72, 0
3, 358800, Note_on_c, 1, 74, 108
3, 358844, Note_on_c, 1, 74, 0
3, 358848, Note_on_c, 1, 75, 108
3, 358848, Note_on_c, 1, 67, 108
3, 358940, Note_on_c, 1, 67, 0
3, 359036, Note_on_c, 1, 75, 0
3, 359040, Note_on_c, 1, 77, 108
3, 359040, Note_on_c, 1, 65, 108
3, 359132, Note_on_c, 1, 65, 0
3, 359132, Note_on_c, 1, 77, 0
3, 359232, Note_on_c, 1, 79, 108
3, 359232, Note_on_c, 1, 63, 108
3, 359324, Note_on_c, 1, 63, 0
3, 359324, Note_on_c, 1, 79, 0
3, 359424, Note_on_c, 1, 77, 108
3, 359424, Note_on_c, 1, 62, 108
3, 359516, Note_on_c, 1, 62, 0
3, 359612, Note_on_c, 1, 77, 0
3, 359616, Note_on_c, 1, 82, 108
3, 359616, Note_on_c, 1, 58, 108
3, 359708, Note_on_c, 1, 58, 0
3, 359804, Note_on_c, 1, 82, 0
3, 359808, Note_on_c, 1, 65, 108
3, 359808, Note_on_c, 1, 75, 108
3, 359852, Note_on_c, 1, 75, 0
3, 359856, Note_on_c, 1, 74, 108
3, 359900, Note_on_c, 1, 74, 0
3, 359900, Note_on_c, 1, 65, 0
3, 359904, Note_on_c, 1, 72, 108
3, 359948, Note_on_c, 1, 72, 0
3, 359952, Note_on_c, 1, 74, 108
3, 359996, Note_on_c, 1, 74, 0
3, 360000, Note_on_c, 1, 75, 108
3, 360000, Note_on_c, 1, 67, 108
3, 360092, Note_on_c, 1, 67, 0
3, 360188, Note_on_c, 1, 75, 0
3, 360192, Note_on_c, 1, 77, 108
3, 360192, Note_on_c, 1, 65, 108
3, 360284, Note_on_c, 1, 65, 0
3, 360284, Note_on_c, 1, 77, 0
3, 360384, Note_on_c, 1, 79, 108
3, 360384, Note_on_c, 1, 63, 108
3, 360476, Note_on_c, 1, 63, 0
3, 360476, Note_on_c, 1, 79, 0
3, 360576, Note_on_c, 1, 77, 108
3, 360576, Note_on_c, 1, 62, 108
3, 360668, Note_on_c, 1, 62, 0
3, 360764, Note_on_c, 1, 77, 0
3, 360768, Note_on_c, 1, 82, 108
3, 360768, Note_on_c, 1, 58, 108
3, 360860, Note_on_c, 1, 58, 0
3, 360956, Note_on_c, 1, 82, 0
3, 360960, Note_on_c, 1, 75, 108
3, 360960, Note_on_c, 1, 65, 108
3, 361004, Note_on_c, 1, 75, 0
3, 361008, Note_on_c, 1, 74, 108
3, 361052, Note_on_c, 1, 74, 0
3, 361052, Note_on_c, 1, 65, 0
3, 361056, Note_on_c, 1, 72, 108
3, 361100, Note_on_c, 1, 72, 0
3, 361104, Note_on_c, 1, 74, 108
3, 361148, Note_on_c, 1, 74, 0
3, 361152, Note_on_c, 1, 75, 108
3, 361152, Note_on_c, 1, 67, 108
3, 361244, Note_on_c, 1, 67, 0
3, 361340, Note_on_c, 1, 75, 0
3, 361344, Note_on_c, 1, 77, 108
3, 361344, Note_on_c, 1, 65, 108
3, 361436, Note_on_c, 1, 65, 0
3, 361436, Note_on_c, 1, 77, 0
3, 361536, Note_on_c, 1, 79, 108
3, 361536, Note_on_c, 1, 63, 108
3, 361628, Note_on_c, 1, 63, 0
3, 361628, Note_on_c, 1, 79, 0
3, 361728, Note_on_c, 1, 65, 108
3, 361728, Note_on_c, 1, 80, 108
3, 361916, Note_on_c, 1, 80, 0
3, 361916, Note_on_c, 1, 65, 0
3, 361920, Note_on_c, 1, 68, 108
3, 361920, Note_on_c, 1, 65, 108
3, 361920, Note_on_c, 1, 58, 108
3, 362108, Note_on_c, 1, 58, 0
3, 362108, Note_on_c, 1, 65, 0
3, 362108, Note_on_c, 1, 68, 0
3, 362112, Note_on_c, 1, 68, 108
3, 362112, Note_on_c, 1, 65, 108
3, 362112, Note_on_c, 1, 58, 108
3, 362300, Note_on_c, 1, 58, 0
3, 362300, Note_on_c, 1, 65, 0
3, 362300, Note_on_c, 1, 68, 0
3, 362304, Note_on_c, 1, 68, 108
3, 362304, Note_on_c, 1, 65, 108
3, 362304, Note_on_c, 1, 58, 108
3, 362492, Note_on_c, 1, 58, 0
3, 362492, Note_on_c, 1, 65, 0
3, 362492, Note_on_c, 1, 68, 0
3, 362496, Note_on_c, 1, 68, 108
3, 362496, Note_on_c, 1, 65, 108
3, 362496, Note_on_c, 1, 58, 108
3, 362684, Note_on_c, 1, 58, 0
3, 362684, Note_on_c, 1, 65, 0
3, 362684, Note_on_c, 1, 68, 0
3, 362688, Note_on_c, 1, 68, 108
3, 362688, Note_on_c, 1, 65, 108
3, 362688, Note_on_c, 1, 58, 108
3, 362876, Note_on_c, 1, 58, 0
3, 362876, Note_on_c, 1, 65, 0
3, 362876, Note_on_c, 1, 68, 0
3, 362880, Note_on_c, 1, 68, 108
3, 362880, Note_on_c, 1, 65, 108
3, 362880, Note_on_c, 1, 62, 108
3, 362880, Note_on_c, 1, 58, 108
3, 363068, Note_on_c, 1, 58, 0
3, 363068, Note_on_c, 1, 68, 0
3, 363068, Note_on_c, 1, 65, 0
3, 363068, Note_on_c, 1, 62, 0
3, 363072, Note_on_c, 1, 68, 108
3, 363072, Note_on_c, 1, 65, 108
3, 363072, Note_on_c, 1, 62, 108
3, 363072, Note_on_c, 1, 58, 108
3, 363260, Note_on_c, 1, 58, 0
3, 363260, Note_on_c, 1, 68, 0
3, 363260, Note_on_c, 1, 65, 0
3, 363260, Note_on_c, 1, 62, 0
3, 363264, Note_on_c, 1, 68, 108
3, 363264, Note_on_c, 1, 65, 108
3, 363264, Note_on_c, 1, 62, 108
3, 363264, Note_on_c, 1, 58, 108
3, 363452, Note_on_c, 1, 58, 0
3, 363452, Note_on_c, 1, 68, 0
3, 363452, Note_on_c, 1, 65, 0
3, 363452, Note_on_c, 1, 62, 0
3, 363456, Note_on_c, 1, 68, 108
3, 363456, Note_on_c, 1, 65, 108
3, 363456, Note_on_c, 1, 62, 108
3, 363456, Note_on_c, 1, 58, 108
3, 363644, Note_on_c, 1, 58, 0
3, 363644, Note_on_c, 1, 68, 0
3, 363644, Note_on_c, 1, 65, 0
3, 363644, Note_on_c, 1, 62, 0
3, 363648, Note_on_c, 1, 68, 108
3, 363648, Note_on_c, 1, 65, 108
3, 363648, Note_on_c, 1, 62, 108
3, 363648, Note_on_c, 1, 58, 108
3, 363836, Note_on_c, 1, 58, 0
3, 363836, Note_on_c, 1, 68, 0
3, 363836, Note_on_c, 1, 65, 0
3, 363836, Note_on_c, 1, 62, 0
3, 363840, Note_on_c, 1, 68, 108
3, 363840, Note_on_c, 1, 65, 108
3, 363840, Note_on_c, 1, 62, 108
3, 363840, Note_on_c, 1, 58, 108
3, 364028, Note_on_c, 1, 58, 0
3, 364028, Note_on_c, 1, 68, 0
3, 364028, Note_on_c, 1, 65, 0
3, 364028, Note_on_c, 1, 62, 0
3, 364032, Note_on_c, 1, 67, 108
3, 364032, Note_on_c, 1, 63, 108
3, 364032, Note_on_c, 1, 58, 108
3, 364220, Note_on_c, 1, 58, 0
3, 364220, Note_on_c, 1, 63, 0
3, 364220, Note_on_c, 1, 67, 0
3, 364224, Note_on_c, 1, 67, 108
3, 364224, Note_on_c, 1, 63, 108
3, 364224, Note_on_c, 1, 58, 108
3, 364412, Note_on_c, 1, 58, 0
3, 364412, Note_on_c, 1, 63, 0
3, 364412, Note_on_c, 1, 67, 0
3, 364416, Note_on_c, 1, 67, 108
3, 364416, Note_on_c, 1, 63, 108
3, 364416, Note_on_c, 1, 58, 108
3, 364604, Note_on_c, 1, 58, 0
3, 364604, Note_on_c, 1, 63, 0
3, 364604, Note_on_c, 1, 67, 0
3, 364608, Note_on_c, 1, 67, 108
3, 364608, Note_on_c, 1, 63, 108
3, 364608, Note_on_c, 1, 58, 108
3, 364796, Note_on_c, 1, 58, 0
3, 364796, Note_on_c, 1, 63, 0
3, 364796, Note_on_c, 1, 67, 0
3, 364800, Note_on_c, 1, 67, 108
3, 364800, Note_on_c, 1, 63, 108
3, 364800, Note_on_c, 1, 58, 108
3, 364988, Note_on_c, 1, 58, 0
3, 364988, Note_on_c, 1, 63, 0
3, 364988, Note_on_c, 1, 67, 0
3, 364992, Note_on_c, 1, 67, 108
3, 364992, Note_on_c, 1, 63, 108
3, 364992, Note_on_c, 1, 58, 108
3, 365180, Note_on_c, 1, 58, 0
3, 365180, Note_on_c, 1, 63, 0
3, 365180, Note_on_c, 1, 67, 0
3, 365184, Note_on_c, 1, 67, 108
3, 365184, Note_on_c, 1, 61, 108
3, 365184, Note_on_c, 1, 58, 108
3, 365372, Note_on_c, 1, 58, 0
3, 365372, Note_on_c, 1, 61, 0
3, 365372, Note_on_c, 1, 67, 0
3, 365376, Note_on_c, 1, 67, 108
3, 365376, Note_on_c, 1, 61, 108
3, 365376, Note_on_c, 1, 58, 108
3, 365564, Note_on_c, 1, 58, 0
3, 365564, Note_on_c, 1, 61, 0
3, 365564, Note_on_c, 1, 67, 0
3, 365568, Note_on_c, 1, 67, 108
3, 365568, Note_on_c, 1, 61, 108
3, 365568, Note_on_c, 1, 58, 108
3, 365756, Note_on_c, 1, 58, 0
3, 365756, Note_on_c, 1, 61, 0
3, 365756, Note_on_c, 1, 67, 0
3, 365760, Note_on_c, 1, 64, 108
3, 365760, Note_on_c, 1, 61, 108
3, 365760, Note_on_c, 1, 58, 108
3, 365948, Note_on_c, 1, 58, 0
3, 365948, Note_on_c, 1, 61, 0
3, 365948, Note_on_c, 1, 64, 0
3, 365952, Note_on_c, 1, 64, 108
3, 365952, Note_on_c, 1, 61, 108
3, 365952, Note_on_c, 1, 58, 108
3, 366140, Note_on_c, 1, 58, 0
3, 366140, Note_on_c, 1, 61, 0
3, 366140, Note_on_c, 1, 64, 0
3, 366144, Note_on_c, 1, 64, 108
3, 366144, Note_on_c, 1, 61, 108
3, 366144, Note_on_c, 1, 58, 108
3, 366332, Note_on_c, 1, 58, 0
3, 366332, Note_on_c, 1, 61, 0
3, 366332, Note_on_c, 1, 64, 0
3, 366336, Note_on_c, 1, 65, 108
3, 366336, Note_on_c, 1, 62, 108
3, 366336, Note_on_c, 1, 58, 108
3, 366524, Note_on_c, 1, 58, 0
3, 366524, Note_on_c, 1, 62, 0
3, 366524, Note_on_c, 1, 65, 0
3, 366528, Note_on_c, 1, 65, 108
3, 366528, Note_on_c, 1, 62, 108
3, 366528, Note_on_c, 1, 58, 108
3, 366716, Note_on_c, 1, 58, 0
3, 366716, Note_on_c, 1, 62, 0
3, 366716, Note_on_c, 1, 65, 0
3, 366720, Note_on_c, 1, 65, 108
3, 366720, Note_on_c, 1, 62, 108
3, 366720, Note_on_c, 1, 58, 108
3, 366908, Note_on_c, 1, 58, 0
3, 366908, Note_on_c, 1, 62, 0
3, 366908, Note_on_c, 1, 65, 0
3, 366912, Note_on_c, 1, 65, 108
3, 366912, Note_on_c, 1, 62, 108
3, 366912, Note_on_c, 1, 58, 108
3, 367100, Note_on_c, 1, 58, 0
3, 367100, Note_on_c, 1, 62, 0
3, 367100, Note_on_c, 1, 65, 0
3, 367488, Note_on_c, 1, 65, 108
3, 367488, Note_on_c, 1, 62, 108
3, 367488, Note_on_c, 1, 58, 108
3, 367676, Note_on_c, 1, 58, 0
3, 367676, Note_on_c, 1, 62, 0
3, 367676, Note_on_c, 1, 65, 0
3, 368064, Note_on_c, 1, 65, 108
3, 368064, Note_on_c, 1, 62, 108
3, 368064, Note_on_c, 1, 58, 108
3, 368252, Note_on_c, 1, 58, 0
3, 368252, Note_on_c, 1, 62, 0
3, 368252, Note_on_c, 1, 65, 0
3, 368640, Note_on_c, 1, 62, 108
3, 368732, Note_on_c, 1, 62, 0
3, 368832, Note_on_c, 1, 65, 108
3, 368924, Note_on_c, 1, 65, 0
3, 369024, Note_on_c, 1, 70, 108
3, 369116, Note_on_c, 1, 70, 0
3, 369216, Note_on_c, 1, 74, 108
3, 369308, Note_on_c, 1, 74, 0
3, 369408, Note_on_c, 1, 77, 108
3, 369500, Note_on_c, 1, 77, 0
3, 369600, Note_on_c, 1, 82, 108
3, 369692, Note_on_c, 1, 82, 0
3, 369792, Note_on_c, 1, 65, 108
3, 370172, Note_on_c, 1, 65, 0
3, 370752, Note_on_c, 1, 65, 108
3, 370940, Note_on_c, 1, 65, 0
3, 370944, Note_on_c, 1, 77, 108
3, 371036, Note_on_c, 1, 77, 0
3, 371328, Note_on_c, 1, 77, 108
3, 371328, Note_on_c, 1, 74, 108
3, 371420, Note_on_c, 1, 74, 0
3, 371420, Note_on_c, 1, 77, 0
3, 371520, Note_on_c, 1, 79, 108
3, 371520, Note_on_c, 1, 75, 108
3, 371612, Note_on_c, 1, 75, 0
3, 371612, Note_on_c, 1, 79, 0
3, 371616, Note_on_c, 1, 77, 108
3, 371616, Note_on_c, 1, 74, 108
3, 371708, Note_on_c, 1, 74, 0
3, 371708, Note_on_c, 1, 77, 0
3, 371712, Note_on_c, 1, 76, 108
3, 371712, Note_on_c, 1, 73, 108
3, 371804, Note_on_c, 1, 73, 0
3, 371804, Note_on_c, 1, 76, 0
3, 371808, Note_on_c, 1, 77, 108
3, 371808, Note_on_c, 1, 74, 108
3, 371900, Note_on_c, 1, 74, 0
3, 371900, Note_on_c, 1, 77, 0
3, 371904, Note_on_c, 1, 79, 108
3, 371904, Note_on_c, 1, 76, 108
3, 371996, Note_on_c, 1, 76, 0
3, 371996, Note_on_c, 1, 79, 0
3, 372000, Note_on_c, 1, 77, 108
3, 372000, Note_on_c, 1, 74, 108
3, 372092, Note_on_c, 1, 74, 0
3, 372092, Note_on_c, 1, 77, 0
3, 372096, Note_on_c, 1, 74, 108
3, 372096, Note_on_c, 1, 75, 108
3, 372288, Note_on_c, 1, 64, 108
3, 372476, Note_on_c, 1, 64, 0
3, 372480, Note_on_c, 1, 65, 108
3, 372668, Note_on_c, 1, 65, 0
3, 372668, Note_on_c, 1, 74, 0
3, 372672, Note_on_c, 1, 72, 108
3, 372672, Note_on_c, 1, 66, 108
3, 372860, Note_on_c, 1, 66, 0
3, 372864, Note_on_c, 1, 67, 108
3, 373052, Note_on_c, 1, 67, 0
3, 373056, Note_on_c, 1, 69, 108
3, 373244, Note_on_c, 1, 69, 0
3, 373244, Note_on_c, 1, 72, 0
3, 373244, Note_on_c, 1, 75, 0
3, 373248, Note_on_c, 1, 70, 108
3, 373248, Note_on_c, 1, 74, 108
3, 373340, Note_on_c, 1, 74, 0
3, 373628, Note_on_c, 1, 70, 0
3, 373632, Note_on_c, 1, 70, 108
3, 373724, Note_on_c, 1, 70, 0
3, 373824, Note_on_c, 1, 72, 108
3, 373916, Note_on_c, 1, 72, 0
3, 373920, Note_on_c, 1, 70, 108
3, 374012, Note_on_c, 1, 70, 0
3, 374016, Note_on_c, 1, 69, 108
3, 374108, Note_on_c, 1, 69, 0
3, 374112, Note_on_c, 1, 70, 108
3, 374204, Note_on_c, 1, 70, 0
3, 374208, Note_on_c, 1, 72, 108
3, 374300, Note_on_c, 1, 72, 0
3, 374304, Note_on_c, 1, 70, 108
3, 374396, Note_on_c, 1, 70, 0
3, 374400, Note_on_c, 1, 70, 108
3, 374592, Note_on_c, 1, 62, 108
3, 374780, Note_on_c, 1, 62, 0
3, 374784, Note_on_c, 1, 63, 108
3, 374972, Note_on_c, 1, 63, 0
3, 374972, Note_on_c, 1, 70, 0
3, 374976, Note_on_c, 1, 64, 108
3, 374976, Note_on_c, 1, 69, 108
3, 375164, Note_on_c, 1, 64, 0
3, 375168, Note_on_c, 1, 65, 108
3, 375356, Note_on_c, 1, 65, 0
3, 375356, Note_on_c, 1, 69, 0
3, 375360, Note_on_c, 1, 74, 108
3, 375360, Note_on_c, 1, 66, 108
3, 375548, Note_on_c, 1, 66, 0
3, 375548, Note_on_c, 1, 74, 0
3, 375552, Note_on_c, 1, 82, 108
3, 375552, Note_on_c, 1, 67, 108
3, 375644, Note_on_c, 1, 67, 0
3, 375644, Note_on_c, 1, 82, 0
3, 375936, Note_on_c, 1, 82, 108
3, 375936, Note_on_c, 1, 79, 108
3, 376028, Note_on_c, 1, 79, 0
3, 376028, Note_on_c, 1, 82, 0
3, 376128, Note_on_c, 1, 84, 108
3, 376128, Note_on_c, 1, 80, 108
3, 376220, Note_on_c, 1, 80, 0
3, 376220, Note_on_c, 1, 84, 0
3, 376224, Note_on_c, 1, 82, 108
3, 376224, Note_on_c, 1, 79, 108
3, 376316, Note_on_c, 1, 79, 0
3, 376316, Note_on_c, 1, 82, 0
3, 376320, Note_on_c, 1, 81, 108
3, 376320, Note_on_c, 1, 78, 108
3, 376412, Note_on_c, 1, 78, 0
3, 376412, Note_on_c, 1, 81, 0
3, 376416, Note_on_c, 1, 82, 108
3, 376416, Note_on_c, 1, 79, 108
3, 376508, Note_on_c, 1, 79, 0
3, 376508, Note_on_c, 1, 82, 0
3, 376512, Note_on_c, 1, 84, 108
3, 376512, Note_on_c, 1, 81, 108
3, 376604, Note_on_c, 1, 81, 0
3, 376604, Note_on_c, 1, 84, 0
3, 376608, Note_on_c, 1, 82, 108
3, 376608, Note_on_c, 1, 79, 108
3, 376700, Note_on_c, 1, 79, 0
3, 376700, Note_on_c, 1, 82, 0
3, 376704, Note_on_c, 1, 80, 108
3, 376704, Note_on_c, 1, 79, 108
3, 377276, Note_on_c, 1, 79, 0
3, 377280, Note_on_c, 1, 77, 108
3, 377852, Note_on_c, 1, 77, 0
3, 377852, Note_on_c, 1, 80, 0
3, 377856, Note_on_c, 1, 79, 108
3, 377856, Note_on_c, 1, 75, 108
3, 377856, Note_on_c, 1, 70, 108
3, 378044, Note_on_c, 1, 70, 0
3, 378044, Note_on_c, 1, 75, 0
3, 378044, Note_on_c, 1, 79, 0
3, 378048, Note_on_c, 1, 67, 108
3, 378048, Note_on_c, 1, 63, 108
3, 378048, Note_on_c, 1, 58, 108
3, 378236, Note_on_c, 1, 58, 0
3, 378236, Note_on_c, 1, 63, 0
3, 378236, Note_on_c, 1, 67, 0
3, 378240, Note_on_c, 1, 67, 108
3, 378240, Note_on_c, 1, 63, 108
3, 378240, Note_on_c, 1, 58, 108
3, 378428, Note_on_c, 1, 58, 0
3, 378428, Note_on_c, 1, 63, 0
3, 378428, Note_on_c, 1, 67, 0
3, 378432, Note_on_c, 1, 67, 108
3, 378432, Note_on_c, 1, 63, 108
3, 378432, Note_on_c, 1, 58, 108
3, 378620, Note_on_c, 1, 58, 0
3, 378620, Note_on_c, 1, 63, 0
3, 378620, Note_on_c, 1, 67, 0
3, 378624, Note_on_c, 1, 67, 108
3, 378624, Note_on_c, 1, 63, 108
3, 378624, Note_on_c, 1, 58, 108
3, 378812, Note_on_c, 1, 58, 0
3, 378812, Note_on_c, 1, 63, 0
3, 378812, Note_on_c, 1, 67, 0
3, 378816, Note_on_c, 1, 67, 108
3, 378816, Note_on_c, 1, 63, 108
3, 378816, Note_on_c, 1, 58, 108
3, 379004, Note_on_c, 1, 58, 0
3, 379004, Note_on_c, 1, 63, 0
3, 379004, Note_on_c, 1, 67, 0
3, 379008, Note_on_c, 1, 67, 108
3, 379008, Note_on_c, 1, 63, 108
3, 379008, Note_on_c, 1, 58, 108
3, 379100, Note_on_c, 1, 58, 0
3, 379100, Note_on_c, 1, 63, 0
3, 379100, Note_on_c, 1, 67, 0
3, 379392, Note_on_c, 1, 70, 108
3, 379392, Note_on_c, 1, 65, 108
3, 379392, Note_on_c, 1, 62, 108
3, 379484, Note_on_c, 1, 62, 0
3, 379484, Note_on_c, 1, 65, 0
3, 379484, Note_on_c, 1, 70, 0
3, 379584, Note_on_c, 1, 70, 108
3, 379584, Note_on_c, 1, 65, 108
3, 379584, Note_on_c, 1, 58, 108
3, 379676, Note_on_c, 1, 58, 0
3, 379676, Note_on_c, 1, 65, 0
3, 379676, Note_on_c, 1, 70, 0
3, 379968, Note_on_c, 1, 67, 108
3, 379968, Note_on_c, 1, 60, 108
3, 380060, Note_on_c, 1, 60, 0
3, 380060, Note_on_c, 1, 67, 0
3, 380160, Note_on_c, 1, 65, 108
3, 380160, Note_on_c, 1, 60, 108
3, 380252, Note_on_c, 1, 60, 0
3, 380252, Note_on_c, 1, 65, 0
3, 380544, Note_on_c, 1, 69, 108
3, 380544, Note_on_c, 1, 65, 108
3, 380636, Note_on_c, 1, 65, 0
3, 380636, Note_on_c, 1, 69, 0
3, 380736, Note_on_c, 1, 69, 108
3, 380736, Note_on_c, 1, 65, 108
3, 380924, Note_on_c, 1, 65, 0
3, 380924, Note_on_c, 1, 69, 0
3, 380928, Note_on_c, 1, 69, 108
3, 380928, Note_on_c, 1, 65, 108
3, 381116, Note_on_c, 1, 65, 0
3, 381116, Note_on_c, 1, 69, 0
3, 381120, Note_on_c, 1, 69, 108
3, 381120, Note_on_c, 1, 65, 108
3, 381308, Note_on_c, 1, 65, 0
3, 381308, Note_on_c, 1, 69, 0
3, 381312, Note_on_c, 1, 70, 108
3, 381312, Note_on_c, 1, 65, 108
3, 381404, Note_on_c, 1, 65, 0
3, 381404, Note_on_c, 1, 70, 0
3, 381696, Note_on_c, 1, 70, 108
3, 381696, Note_on_c, 1, 65, 108
3, 381788, Note_on_c, 1, 65, 0
3, 381788, Note_on_c, 1, 70, 0
3, 381888, Note_on_c, 1, 70, 108
3, 381888, Note_on_c, 1, 65, 108
3, 382076, Note_on_c, 1, 65, 0
3, 382076, Note_on_c, 1, 70, 0
3, 382080, Note_on_c, 1, 70, 108
3, 382080, Note_on_c, 1, 65, 108
3, 382268, Note_on_c, 1, 65, 0
3, 382268, Note_on_c, 1, 70, 0
3, 382272, Note_on_c, 1, 70, 108
3, 382272, Note_on_c, 1, 65, 108
3, 382460, Note_on_c, 1, 65, 0
3, 382460, Note_on_c, 1, 70, 0
3, 382464, Note_on_c, 1, 72, 108
3, 382464, Note_on_c, 1, 69, 108
3, 382464, Note_on_c, 1, 65, 108
3, 382652, Note_on_c, 1, 65, 0
3, 382652, Note_on_c, 1, 69, 0
3, 382652, Note_on_c, 1, 72, 0
3, 383040, Note_on_c, 1, 72, 108
3, 383040, Note_on_c, 1, 69, 108
3, 383040, Note_on_c, 1, 65, 108
3, 383228, Note_on_c, 1, 65, 0
3, 383228, Note_on_c, 1, 69, 0
3, 383228, Note_on_c, 1, 72, 0
3, 383616, Note_on_c, 1, 72, 108
3, 383616, Note_on_c, 1, 69, 108
3, 383616, Note_on_c, 1, 65, 108
3, 383996, Note_on_c, 1, 65, 0
3, 383996, Note_on_c, 1, 69, 0
3, 383996, Note_on_c, 1, 72, 0
3, 384768, Note_on_c, 1, 74, 80
3, 384768, Note_on_c, 1, 70, 80
3, 384956, Note_on_c, 1, 70, 0
3, 384956, Note_on_c, 1, 74, 0
3, 385152, Note_on_c, 1, 74, 80
3, 385152, Note_on_c, 1, 70, 80
3, 385340, Note_on_c, 1, 70, 0
3, 385340, Note_on_c, 1, 74, 0
3, 385344, Note_on_c, 1, 74, 80
3, 385344, Note_on_c, 1, 70, 80
3, 385532, Note_on_c, 1, 70, 0
3, 385532, Note_on_c, 1, 74, 0
3, 385536, Note_on_c, 1, 74, 80
3, 385536, Note_on_c, 1, 70, 80
3, 385724, Note_on_c, 1, 70, 0
3, 385724, Note_on_c, 1, 74, 0
3, 385728, Note_on_c, 1, 74, 80
3, 385728, Note_on_c, 1, 70, 80
3, 385916, Note_on_c, 1, 70, 0
3, 385916, Note_on_c, 1, 74, 0
3, 385920, Note_on_c, 1, 72, 80
3, 385920, Note_on_c, 1, 69, 80
3, 385920, Note_on_c, 1, 65, 80
3, 386492, Note_on_c, 1, 65, 0
3, 386492, Note_on_c, 1, 69, 0
3, 386492, Note_on_c, 1, 72, 0
3, 386496, Note_on_c, 1, 74, 80
3, 386496, Note_on_c, 1, 70, 80
3, 386684, Note_on_c, 1, 70, 0
3, 386684, Note_on_c, 1, 74, 0
3, 387072, Note_on_c, 1, 70, 80
3, 387072, Note_on_c, 1, 63, 80
3, 387260, Note_on_c, 1, 63, 0
3, 387260, Note_on_c, 1, 70, 0
3, 387264, Note_on_c, 1, 70, 80
3, 387264, Note_on_c, 1, 63, 80
3, 387452, Note_on_c, 1, 63, 0
3, 387452, Note_on_c, 1, 70, 0
3, 387648, Note_on_c, 1, 70, 80
3, 387648, Note_on_c, 1, 67, 80
3, 387836, Note_on_c, 1, 67, 0
3, 387836, Note_on_c, 1, 70, 0
3, 387840, Note_on_c, 1, 67, 80
3, 387840, Note_on_c, 1, 70, 80
3, 388028, Note_on_c, 1, 70, 0
3, 388028, Note_on_c, 1, 67, 0
3, 388224, Note_on_c, 1, 65, 80
3, 388412, Note_on_c, 1, 65, 0
3, 388416, Note_on_c, 1, 67, 80
3, 388416, Note_on_c, 1, 65, 80
3, 388604, Note_on_c, 1, 65, 0
3, 388604, Note_on_c, 1, 67, 0
3, 388608, Note_on_c, 1, 68, 80
3, 388608, Note_on_c, 1, 65, 80
3, 388796, Note_on_c, 1, 65, 0
3, 388796, Note_on_c, 1, 68, 0
3, 388800, Note_on_c, 1, 69, 80
3, 388800, Note_on_c, 1, 65, 80
3, 388988, Note_on_c, 1, 65, 0
3, 388988, Note_on_c, 1, 69, 0
3, 389184, Note_on_c, 1, 70, 80
3, 389276, Note_on_c, 1, 70, 0
3, 389280, Note_on_c, 1, 72, 80
3, 389372, Note_on_c, 1, 72, 0
3, 389376, Note_on_c, 1, 74, 80
3, 389376, Note_on_c, 1, 70, 80
3, 389564, Note_on_c, 1, 70, 0
3, 389564, Note_on_c, 1, 74, 0
3, 389760, Note_on_c, 1, 74, 80
3, 389760, Note_on_c, 1, 70, 80
3, 389948, Note_on_c, 1, 70, 0
3, 389948, Note_on_c, 1, 74, 0
3, 389952, Note_on_c, 1, 74, 80
3, 389952, Note_on_c, 1, 70, 80
3, 390044, Note_on_c, 1, 70, 0
3, 390044, Note_on_c, 1, 74, 0
3, 390144, Note_on_c, 1, 74, 80
3, 390144, Note_on_c, 1, 70, 80
3, 390236, Note_on_c, 1, 70, 0
3, 390236, Note_on_c, 1, 74, 0
3, 390336, Note_on_c, 1, 74, 80
3, 390336, Note_on_c, 1, 70, 80
3, 390428, Note_on_c, 1, 70, 0
3, 390428, Note_on_c, 1, 74, 0
3, 390528, Note_on_c, 1, 75, 80
3, 390528, Note_on_c, 1, 72, 80
3, 390528, Note_on_c, 1, 65, 80
3, 390908, Note_on_c, 1, 65, 0
3, 390912, Note_on_c, 1, 66, 80
3, 391100, Note_on_c, 1, 66, 0
3, 391100, Note_on_c, 1, 72, 0
3, 391100, Note_on_c, 1, 75, 0
3, 391104, Note_on_c, 1, 74, 80
3, 391104, Note_on_c, 1, 70, 80
3, 391104, Note_on_c, 1, 67, 80
3, 391292, Note_on_c, 1, 67, 0
3, 391292, Note_on_c, 1, 70, 0
3, 391292, Note_on_c, 1, 74, 0
3, 391680, Note_on_c, 1, 72, 80
3, 391680, Note_on_c, 1, 67, 80
3, 391680, Note_on_c, 1, 63, 80
3, 391868, Note_on_c, 1, 63, 0
3, 391868, Note_on_c, 1, 67, 0
3, 391868, Note_on_c, 1, 72, 0
3, 392256, Note_on_c, 1, 63, 80
3, 392256, Note_on_c, 1, 60, 80
3, 392256, Note_on_c, 1, 53, 80
3, 392444, Note_on_c, 1, 53, 0
3, 392444, Note_on_c, 1, 60, 0
3, 392444, Note_on_c, 1, 63, 0
3, 393024, Note_on_c, 1, 65, 80
3, 393116, Note_on_c, 1, 65, 0
3, 393216, Note_on_c, 1, 70, 80
3, 393308, Note_on_c, 1, 70, 0
3, 393408, Note_on_c, 1, 74, 80
3, 393500, Note_on_c, 1, 74, 0
3, 393600, Note_on_c, 1, 77, 80
3, 393692, Note_on_c, 1, 77, 0
3, 393792, Note_on_c, 1, 82, 78
3, 393884, Note_on_c, 1, 82, 0
3, 394176, Note_on_c, 1, 75, 81
3, 394176, Note_on_c, 1, 72, 81
3, 394176, Note_on_c, 1, 67, 81
3, 394268, Note_on_c, 1, 67, 0
3, 394268, Note_on_c, 1, 72, 0
3, 394268, Note_on_c, 1, 75, 0
3, 394368, Note_on_c, 1, 75, 82
3, 394368, Note_on_c, 1, 72, 82
3, 394368, Note_on_c, 1, 67, 82
3, 394460, Note_on_c, 1, 67, 0
3, 394460, Note_on_c, 1, 72, 0
3, 394460, Note_on_c, 1, 75, 0
3, 394752, Note_on_c, 1, 72, 85
3, 394752, Note_on_c, 1, 69, 85
3, 394752, Note_on_c, 1, 65, 85
3, 394844, Note_on_c, 1, 65, 0
3, 394844, Note_on_c, 1, 69, 0
3, 394844, Note_on_c, 1, 72, 0
3, 394944, Note_on_c, 1, 72, 87
3, 394944, Note_on_c, 1, 69, 87
3, 394944, Note_on_c, 1, 65, 87
3, 395036, Note_on_c, 1, 65, 0
3, 395036, Note_on_c, 1, 69, 0
3, 395036, Note_on_c, 1, 72, 0
3, 395328, Note_on_c, 1, 65, 90
3, 395420, Note_on_c, 1, 65, 0
3, 395520, Note_on_c, 1, 70, 91
3, 395612, Note_on_c, 1, 70, 0
3, 395712, Note_on_c, 1, 74, 93
3, 395804, Note_on_c, 1, 74, 0
3, 395904, Note_on_c, 1, 77, 94
3, 395996, Note_on_c, 1, 77, 0
3, 396096, Note_on_c, 1, 82, 96
3, 396188, Note_on_c, 1, 82, 0
3, 396288, Note_on_c, 1, 79, 81
3, 396288, Note_on_c, 1, 75, 81
3, 396288, Note_on_c, 1, 70, 81
3, 396860, Note_on_c, 1, 70, 0
3, 396860, Note_on_c, 1, 75, 0
3, 396860, Note_on_c, 1, 79, 0
3, 396864, Note_on_c, 1, 75, 89
3, 396864, Note_on_c, 1, 70, 89
3, 396864, Note_on_c, 1, 67, 89
3, 397436, Note_on_c, 1, 67, 0
3, 397436, Note_on_c, 1, 70, 0
3, 397436, Note_on_c, 1, 75, 0
3, 397440, Note_on_c, 1, 72, 96
3, 397440, Note_on_c, 1, 70, 96
3, 397440, Note_on_c, 1, 65, 96
3, 398012, Note_on_c, 1, 65, 0
3, 398012, Note_on_c, 1, 70, 0
3, 398012, Note_on_c, 1, 72, 0
3, 398016, Note_on_c, 1, 77, 101
3, 398016, Note_on_c, 1, 72, 101
3, 398016, Note_on_c, 1, 69, 101
3, 398588, Note_on_c, 1, 69, 0
3, 398588, Note_on_c, 1, 72, 0
3, 398588, Note_on_c, 1, 77, 0
3, 398592, Note_on_c, 1, 82, 108
3, 398592, Note_on_c, 1, 74, 108
3, 399932, Note_on_c, 1, 74, 0
3, 399932, Note_on_c, 1, 82, 0
3, 399936, Note_on_c, 1, 77, 108
3, 399936, Note_on_c, 1, 74, 108
3, 400028, Note_on_c, 1, 74, 0
3, 400028, Note_on_c, 1, 77, 0
3, 400128, Note_on_c, 1, 82, 108
3, 400128, Note_on_c, 1, 86, 108
3, 400220, Note_on_c, 1, 86, 0
3, 400220, Note_on_c, 1, 82, 0
3, 400320, Note_on_c, 1, 87, 108
3, 400320, Note_on_c, 1, 84, 108
3, 400412, Note_on_c, 1, 84, 0
3, 400412, Note_on_c, 1, 87, 0
3, 400512, Note_on_c, 1, 84, 108
3, 400512, Note_on_c, 1, 81, 108
3, 400604, Note_on_c, 1, 81, 0
3, 400604, Note_on_c, 1, 84, 0
3, 400704, Note_on_c, 1, 81, 108
3, 400704, Note_on_c, 1, 75, 108
3, 400796, Note_on_c, 1, 75, 0
3, 400796, Note_on_c, 1, 81, 0
3, 400896, Note_on_c, 1, 82, 108
3, 400896, Note_on_c, 1, 74, 108
3, 402236, Note_on_c, 1, 74, 0
3, 402236, Note_on_c, 1, 82, 0
3, 402240, Note_on_c, 1, 77, 108
3, 402240, Note_on_c, 1, 74, 108
3, 402332, Note_on_c, 1, 74, 0
3, 402332, Note_on_c, 1, 77, 0
3, 402432, Note_on_c, 1, 86, 108
3, 402432, Note_on_c, 1, 82, 108
3, 402524, Note_on_c, 1, 82, 0
3, 402524, Note_on_c, 1, 86, 0
3, 402624, Note_on_c, 1, 87, 108
3, 402624, Note_on_c, 1, 84, 108
3, 402716, Note_on_c, 1, 84, 0
3, 402716, Note_on_c, 1, 87, 0
3, 402816, Note_on_c, 1, 84, 108
3, 402816, Note_on_c, 1, 81, 108
3, 402908, Note_on_c, 1, 81, 0
3, 402908, Note_on_c, 1, 84, 0
3, 403008, Note_on_c, 1, 81, 108
3, 403008, Note_on_c, 1, 75, 108
3, 403100, Note_on_c, 1, 75, 0
3, 403100, Note_on_c, 1, 81, 0
3, 403200, Note_on_c, 1, 82, 108
3, 403200, Note_on_c, 1, 74, 108
3, 403292, Note_on_c, 1, 74, 0
3, 403292, Note_on_c, 1, 82, 0
3, 403392, Note_on_c, 1, 86, 108
3, 403484, Note_on_c, 1, 86, 0
3, 403584, Note_on_c, 1, 77, 108
3, 403676, Note_on_c, 1, 77, 0
3, 403776, Note_on_c, 1, 82, 108
3, 403868, Note_on_c, 1, 82, 0
3, 403968, Note_on_c, 1, 74, 108
3, 404060, Note_on_c, 1, 74, 0
3, 404160, Note_on_c, 1, 77, 108
3, 404252, Note_on_c, 1, 77, 0
3, 404352, Note_on_c, 1, 70, 108
3, 404444, Note_on_c, 1, 70, 0
3, 404544, Note_on_c, 1, 74, 108
3, 404636, Note_on_c, 1, 74, 0
3, 404736, Note_on_c, 1, 65, 108
3, 404828, Note_on_c, 1, 65, 0
3, 404928, Note_on_c, 1, 70, 108
3, 405020, Note_on_c, 1, 70, 0
3, 405120, Note_on_c, 1, 62, 108
3, 405212, Note_on_c, 1, 62, 0
3, 405312, Note_on_c, 1, 65, 108
3, 405404, Note_on_c, 1, 65, 0
3, 405504, Note_on_c, 1, 58, 108
3, 405884, Note_on_c, 1, 58, 0
3, 406080, Note_on_c, 1, 77, 108
3, 406080, Note_on_c, 1, 74, 108
3, 406080, Note_on_c, 1, 70, 108
3, 406460, Note_on_c, 1, 70, 0
3, 406460, Note_on_c, 1, 74, 0
3, 406460, Note_on_c, 1, 77, 0
3, 406656, Note_on_c, 1, 82, 108
3, 406656, Note_on_c, 1, 77, 108
3, 406656, Note_on_c, 1, 74, 108
3, 406656, Note_on_c, 1, 70, 108
3, 407036, Note_on_c, 1, 70, 0
3, 407036, Note_on_c, 1, 82, 0
3, 407036, Note_on_c, 1, 77, 0
3, 407036, Note_on_c, 1, 74, 0
3, 407036, End_track
4, 0, Start_track
4, 0, MIDI_port, 0
4, 0, Title_t, "K622-c-Rondo-Allegro"
4, 0, Control_c, 2, 0, 0
4, 0, Control_c, 2, 32, 0
4, 0, Program_c, 2, 48
4, 0, Control_c, 2, 10, 94
4, 0, Control_c, 2, 91, 66
4, 0, Control_c, 2, 93, 55
4, 0, Control_c, 2, 121, 0
4, 48, Control_c, 2, 10, 83
4, 96, Control_c, 2, 91, 63
4, 120, Control_c, 2, 93, 40
4, 144, Program_c, 2, 48
4, 10560, Note_on_c, 2, 58, 69
4, 10560, Note_on_c, 2, 46, 69
4, 10652, Note_on_c, 2, 46, 0
4, 10652, Note_on_c, 2, 58, 0
4, 10752, Note_on_c, 2, 58, 73
4, 10752, Note_on_c, 2, 46, 73
4, 10844, Note_on_c, 2, 46, 0
4, 10844, Note_on_c, 2, 58, 0
4, 10944, Note_on_c, 2, 58, 76
4, 10944, Note_on_c, 2, 46, 76
4, 11036, Note_on_c, 2, 46, 0
4, 11036, Note_on_c, 2, 58, 0
4, 11136, Note_on_c, 2, 58, 80
4, 11136, Note_on_c, 2, 46, 80
4, 11228, Note_on_c, 2, 46, 0
4, 11228, Note_on_c, 2, 58, 0
4, 11328, Note_on_c, 2, 58, 83
4, 11328, Note_on_c, 2, 46, 83
4, 11420, Note_on_c, 2, 46, 0
4, 11420, Note_on_c, 2, 58, 0
4, 11520, Note_on_c, 2, 53, 96
4, 11520, Note_on_c, 2, 41, 96
4, 12092, Note_on_c, 2, 41, 0
4, 12092, Note_on_c, 2, 53, 0
4, 12096, Note_on_c, 2, 55, 96
4, 12096, Note_on_c, 2, 43, 96
4, 12284, Note_on_c, 2, 43, 0
4, 12284, Note_on_c, 2, 55, 0
4, 12864, Note_on_c, 2, 63, 64
4, 12864, Note_on_c, 2, 51, 64
4, 12956, Note_on_c, 2, 51, 0
4, 12956, Note_on_c, 2, 63, 0
4, 13440, Note_on_c, 2, 63, 64
4, 13440, Note_on_c, 2, 51, 64
4, 13532, Note_on_c, 2, 51, 0
4, 13532, Note_on_c, 2, 63, 0
4, 13824, Note_on_c, 2, 65, 64
4, 13824, Note_on_c, 2, 53, 64
4, 14012, Note_on_c, 2, 53, 0
4, 14012, Note_on_c, 2, 65, 0
4, 14016, Note_on_c, 2, 65, 64
4, 14016, Note_on_c, 2, 53, 64
4, 14204, Note_on_c, 2, 53, 0
4, 14204, Note_on_c, 2, 65, 0
4, 14208, Note_on_c, 2, 65, 64
4, 14208, Note_on_c, 2, 53, 64
4, 14396, Note_on_c, 2, 53, 0
4, 14396, Note_on_c, 2, 65, 0
4, 14400, Note_on_c, 2, 65, 64
4, 14400, Note_on_c, 2, 53, 64
4, 14588, Note_on_c, 2, 53, 0
4, 14588, Note_on_c, 2, 65, 0
4, 15168, Note_on_c, 2, 58, 69
4, 15168, Note_on_c, 2, 46, 69
4, 15260, Note_on_c, 2, 46, 0
4, 15260, Note_on_c, 2, 58, 0
4, 15360, Note_on_c, 2, 58, 73
4, 15360, Note_on_c, 2, 46, 73
4, 15452, Note_on_c, 2, 46, 0
4, 15452, Note_on_c, 2, 58, 0
4, 15552, Note_on_c, 2, 58, 76
4, 15552, Note_on_c, 2, 46, 76
4, 15644, Note_on_c, 2, 46, 0
4, 15644, Note_on_c, 2, 58, 0
4, 15744, Note_on_c, 2, 58, 80
4, 15744, Note_on_c, 2, 46, 80
4, 15836, Note_on_c, 2, 46, 0
4, 15836, Note_on_c, 2, 58, 0
4, 15936, Note_on_c, 2, 58, 83
4, 15936, Note_on_c, 2, 46, 83
4, 16028, Note_on_c, 2, 46, 0
4, 16028, Note_on_c, 2, 58, 0
4, 16128, Note_on_c, 2, 53, 86
4, 16128, Note_on_c, 2, 41, 86
4, 16508, Note_on_c, 2, 41, 0
4, 16508, Note_on_c, 2, 53, 0
4, 16512, Note_on_c, 2, 54, 86
4, 16512, Note_on_c, 2, 42, 86
4, 16700, Note_on_c, 2, 42, 0
4, 16700, Note_on_c, 2, 54, 0
4, 16704, Note_on_c, 2, 55, 86
4, 16704, Note_on_c, 2, 43, 86
4, 16892, Note_on_c, 2, 43, 0
4, 16892, Note_on_c, 2, 55, 0
4, 17472, Note_on_c, 2, 51, 64
4, 17472, Note_on_c, 2, 39, 64
4, 17660, Note_on_c, 2, 39, 0
4, 17660, Note_on_c, 2, 51, 0
4, 18048, Note_on_c, 2, 53, 64
4, 18048, Note_on_c, 2, 41, 64
4, 18236, Note_on_c, 2, 41, 0
4, 18236, Note_on_c, 2, 53, 0
4, 18432, Note_on_c, 2, 46, 64
4, 18432, Note_on_c, 2, 34, 64
4, 18620, Note_on_c, 2, 34, 0
4, 18620, Note_on_c, 2, 46, 0
4, 18624, Note_on_c, 2, 46, 64
4, 18624, Note_on_c, 2, 34, 64
4, 18812, Note_on_c, 2, 34, 0
4, 18812, Note_on_c, 2, 46, 0
4, 18816, Note_on_c, 2, 46, 64
4, 18816, Note_on_c, 2, 34, 64
4, 19004, Note_on_c, 2, 34, 0
4, 19004, Note_on_c, 2, 46, 0
4, 19008, Note_on_c, 2, 46, 64
4, 19008, Note_on_c, 2, 34, 64
4, 19196, Note_on_c, 2, 34, 0
4, 19196, Note_on_c, 2, 46, 0
4, 19584, Note_on_c, 2, 53, 64
4, 19584, Note_on_c, 2, 41, 64
4, 20732, Note_on_c, 2, 41, 0
4, 20732, Note_on_c, 2, 53, 0
4, 20736, Note_on_c, 2, 46, 64
4, 21116, Note_on_c, 2, 46, 0
4, 21888, Note_on_c, 2, 60, 64
4, 21888, Note_on_c, 2, 48, 64
4, 23036, Note_on_c, 2, 48, 0
4, 23036, Note_on_c, 2, 60, 0
4, 23040, Note_on_c, 2, 53, 64
4, 23040, Note_on_c, 2, 41, 64
4, 23420, Note_on_c, 2, 41, 0
4, 23420, Note_on_c, 2, 53, 0
4, 24000, Note_on_c, 2, 48, 64
4, 24000, Note_on_c, 2, 36, 64
4, 24188, Note_on_c, 2, 36, 0
4, 24188, Note_on_c, 2, 48, 0
4, 24192, Note_on_c, 2, 53, 64
4, 24192, Note_on_c, 2, 41, 64
4, 24572, Note_on_c, 2, 41, 0
4, 24572, Note_on_c, 2, 53, 0
4, 25152, Note_on_c, 2, 48, 64
4, 25152, Note_on_c, 2, 36, 64
4, 25340, Note_on_c, 2, 36, 0
4, 25340, Note_on_c, 2, 48, 0
4, 25344, Note_on_c, 2, 53, 64
4, 25344, Note_on_c, 2, 41, 64
4, 25724, Note_on_c, 2, 41, 0
4, 25724, Note_on_c, 2, 53, 0
4, 26688, Note_on_c, 2, 63, 64
4, 26876, Note_on_c, 2, 63, 0
4, 26880, Note_on_c, 2, 62, 64
4, 27068, Note_on_c, 2, 62, 0
4, 27072, Note_on_c, 2, 60, 64
4, 27260, Note_on_c, 2, 60, 0
4, 27264, Note_on_c, 2, 58, 64
4, 27452, Note_on_c, 2, 58, 0
4, 27456, Note_on_c, 2, 57, 64
4, 27644, Note_on_c, 2, 57, 0
4, 27648, Note_on_c, 2, 58, 64
4, 28028, Note_on_c, 2, 58, 0
4, 28800, Note_on_c, 2, 65, 64
4, 29372, Note_on_c, 2, 65, 0
4, 29376, Note_on_c, 2, 67, 64
4, 29564, Note_on_c, 2, 67, 0
4, 29952, Note_on_c, 2, 63, 64
4, 30044, Note_on_c, 2, 63, 0
4, 30144, Note_on_c, 2, 63, 64
4, 30236, Note_on_c, 2, 63, 0
4, 30528, Note_on_c, 2, 63, 64
4, 30620, Note_on_c, 2, 63, 0
4, 30720, Note_on_c, 2, 63, 64
4, 30812, Note_on_c, 2, 63, 0
4, 31296, Note_on_c, 2, 65, 64
4, 31388, Note_on_c, 2, 65, 0
4, 31488, Note_on_c, 2, 65, 64
4, 31580, Note_on_c, 2, 65, 0
4, 31680, Note_on_c, 2, 65, 64
4, 31868, Note_on_c, 2, 65, 0
4, 33408, Note_on_c, 2, 65, 64
4, 33788, Note_on_c, 2, 65, 0
4, 33792, Note_on_c, 2, 66, 64
4, 33980, Note_on_c, 2, 66, 0
4, 33984, Note_on_c, 2, 67, 64
4, 34364, Note_on_c, 2, 67, 0
4, 34560, Note_on_c, 2, 63, 64
4, 34748, Note_on_c, 2, 63, 0
4, 35136, Note_on_c, 2, 53, 64
4, 35324, Note_on_c, 2, 53, 0
4, 35712, Note_on_c, 2, 58, 64
4, 36092, Note_on_c, 2, 58, 0
4, 36864, Note_on_c, 2, 57, 64
4, 36864, Note_on_c, 2, 53, 64
4, 37244, Note_on_c, 2, 53, 0
4, 37244, Note_on_c, 2, 57, 0
4, 38016, Note_on_c, 2, 58, 65
4, 38396, Note_on_c, 2, 58, 0
4, 39168, Note_on_c, 2, 60, 73
4, 39168, Note_on_c, 2, 58, 73
4, 39548, Note_on_c, 2, 58, 0
4, 39548, Note_on_c, 2, 60, 0
4, 40320, Note_on_c, 2, 62, 80
4, 40320, Note_on_c, 2, 58, 80
4, 40700, Note_on_c, 2, 58, 0
4, 40700, Note_on_c, 2, 62, 0
4, 41472, Note_on_c, 2, 62, 64
4, 42620, Note_on_c, 2, 62, 0
4, 42624, Note_on_c, 2, 63, 64
4, 43772, Note_on_c, 2, 63, 0
4, 43776, Note_on_c, 2, 65, 64
4, 44156, Note_on_c, 2, 65, 0
4, 44352, Note_on_c, 2, 65, 64
4, 44732, Note_on_c, 2, 65, 0
4, 44928, Note_on_c, 2, 66, 64
4, 45020, Note_on_c, 2, 66, 0
4, 45120, Note_on_c, 2, 66, 64
4, 45212, Note_on_c, 2, 66, 0
4, 45312, Note_on_c, 2, 66, 64
4, 45404, Note_on_c, 2, 66, 0
4, 45504, Note_on_c, 2, 67, 64
4, 45596, Note_on_c, 2, 67, 0
4, 46080, Note_on_c, 2, 50, 86
4, 46172, Note_on_c, 2, 50, 0
4, 46176, Note_on_c, 2, 58, 86
4, 46268, Note_on_c, 2, 58, 0
4, 46272, Note_on_c, 2, 53, 86
4, 46364, Note_on_c, 2, 53, 0
4, 46368, Note_on_c, 2, 58, 86
4, 46460, Note_on_c, 2, 58, 0
4, 46464, Note_on_c, 2, 53, 86
4, 46556, Note_on_c, 2, 53, 0
4, 46560, Note_on_c, 2, 58, 86
4, 46652, Note_on_c, 2, 58, 0
4, 46656, Note_on_c, 2, 50, 86
4, 46748, Note_on_c, 2, 50, 0
4, 46752, Note_on_c, 2, 58, 86
4, 46844, Note_on_c, 2, 58, 0
4, 46848, Note_on_c, 2, 53, 86
4, 46940, Note_on_c, 2, 53, 0
4, 46944, Note_on_c, 2, 58, 86
4, 47036, Note_on_c, 2, 58, 0
4, 47040, Note_on_c, 2, 53, 86
4, 47132, Note_on_c, 2, 53, 0
4, 47136, Note_on_c, 2, 58, 86
4, 47228, Note_on_c, 2, 58, 0
4, 47232, Note_on_c, 2, 51, 86
4, 47324, Note_on_c, 2, 51, 0
4, 47328, Note_on_c, 2, 58, 86
4, 47420, Note_on_c, 2, 58, 0
4, 47424, Note_on_c, 2, 55, 86
4, 47516, Note_on_c, 2, 55, 0
4, 47520, Note_on_c, 2, 58, 86
4, 47612, Note_on_c, 2, 58, 0
4, 47616, Note_on_c, 2, 55, 86
4, 47708, Note_on_c, 2, 55, 0
4, 47712, Note_on_c, 2, 58, 86
4, 47804, Note_on_c, 2, 58, 0
4, 47808, Note_on_c, 2, 51, 86
4, 47900, Note_on_c, 2, 51, 0
4, 47904, Note_on_c, 2, 58, 86
4, 47996, Note_on_c, 2, 58, 0
4, 48000, Note_on_c, 2, 55, 86
4, 48092, Note_on_c, 2, 55, 0
4, 48096, Note_on_c, 2, 58, 86
4, 48188, Note_on_c, 2, 58, 0
4, 48192, Note_on_c, 2, 55, 86
4, 48284, Note_on_c, 2, 55, 0
4, 48288, Note_on_c, 2, 58, 86
4, 48380, Note_on_c, 2, 58, 0
4, 48384, Note_on_c, 2, 65, 86
4, 48384, Note_on_c, 2, 53, 86
4, 48572, Note_on_c, 2, 53, 0
4, 48572, Note_on_c, 2, 65, 0
4, 48576, Note_on_c, 2, 65, 86
4, 48576, Note_on_c, 2, 53, 86
4, 48764, Note_on_c, 2, 53, 0
4, 48764, Note_on_c, 2, 65, 0
4, 48768, Note_on_c, 2, 65, 86
4, 48768, Note_on_c, 2, 53, 86
4, 48956, Note_on_c, 2, 53, 0
4, 48956, Note_on_c, 2, 65, 0
4, 48960, Note_on_c, 2, 63, 86
4, 48960, Note_on_c, 2, 53, 86
4, 49148, Note_on_c, 2, 53, 0
4, 49148, Note_on_c, 2, 63, 0
4, 49152, Note_on_c, 2, 63, 86
4, 49152, Note_on_c, 2, 53, 86
4, 49340, Note_on_c, 2, 53, 0
4, 49340, Note_on_c, 2, 63, 0
4, 49344, Note_on_c, 2, 63, 86
4, 49344, Note_on_c, 2, 53, 86
4, 49532, Note_on_c, 2, 53, 0
4, 49532, Note_on_c, 2, 63, 0
4, 49536, Note_on_c, 2, 62, 86
4, 49536, Note_on_c, 2, 58, 86
4, 49916, Note_on_c, 2, 58, 0
4, 49916, Note_on_c, 2, 62, 0
4, 50688, Note_on_c, 2, 65, 64
4, 51260, Note_on_c, 2, 65, 0
4, 51264, Note_on_c, 2, 66, 64
4, 51836, Note_on_c, 2, 66, 0
4, 51840, Note_on_c, 2, 67, 64
4, 52028, Note_on_c, 2, 67, 0
4, 52416, Note_on_c, 2, 63, 64
4, 52604, Note_on_c, 2, 63, 0
4, 52992, Note_on_c, 2, 53, 64
4, 54140, Note_on_c, 2, 53, 0
4, 54144, Note_on_c, 2, 58, 64
4, 54524, Note_on_c, 2, 58, 0
4, 55296, Note_on_c, 2, 65, 64
4, 56444, Note_on_c, 2, 65, 0
4, 56448, Note_on_c, 2, 58, 64
4, 56636, Note_on_c, 2, 58, 0
4, 57024, Note_on_c, 2, 63, 64
4, 57212, Note_on_c, 2, 63, 0
4, 57600, Note_on_c, 2, 65, 64
4, 57788, Note_on_c, 2, 65, 0
4, 58176, Note_on_c, 2, 53, 64
4, 58364, Note_on_c, 2, 53, 0
4, 58368, Note_on_c, 2, 53, 64
4, 58556, Note_on_c, 2, 53, 0
4, 58560, Note_on_c, 2, 53, 64
4, 58748, Note_on_c, 2, 53, 0
4, 58752, Note_on_c, 2, 46, 86
4, 58752, Note_on_c, 2, 34, 86
4, 58940, Note_on_c, 2, 34, 0
4, 58940, Note_on_c, 2, 46, 0
4, 58944, Note_on_c, 2, 58, 86
4, 58944, Note_on_c, 2, 46, 86
4, 59132, Note_on_c, 2, 46, 0
4, 59132, Note_on_c, 2, 58, 0
4, 59136, Note_on_c, 2, 58, 86
4, 59136, Note_on_c, 2, 46, 86
4, 59324, Note_on_c, 2, 46, 0
4, 59324, Note_on_c, 2, 58, 0
4, 59328, Note_on_c, 2, 50, 86
4, 59328, Note_on_c, 2, 62, 86
4, 59708, Note_on_c, 2, 62, 0
4, 59708, Note_on_c, 2, 50, 0
4, 59712, Note_on_c, 2, 58, 86
4, 59712, Note_on_c, 2, 46, 86
4, 59900, Note_on_c, 2, 46, 0
4, 59900, Note_on_c, 2, 58, 0
4, 59904, Note_on_c, 2, 53, 86
4, 59904, Note_on_c, 2, 41, 86
4, 60092, Note_on_c, 2, 41, 0
4, 60092, Note_on_c, 2, 53, 0
4, 60096, Note_on_c, 2, 53, 86
4, 60096, Note_on_c, 2, 41, 86
4, 60284, Note_on_c, 2, 41, 0
4, 60284, Note_on_c, 2, 53, 0
4, 60288, Note_on_c, 2, 53, 86
4, 60288, Note_on_c, 2, 41, 86
4, 60476, Note_on_c, 2, 41, 0
4, 60476, Note_on_c, 2, 53, 0
4, 60480, Note_on_c, 2, 53, 86
4, 60480, Note_on_c, 2, 41, 86
4, 60668, Note_on_c, 2, 41, 0
4, 60668, Note_on_c, 2, 53, 0
4, 60672, Note_on_c, 2, 53, 86
4, 60672, Note_on_c, 2, 41, 86
4, 60860, Note_on_c, 2, 41, 0
4, 60860, Note_on_c, 2, 53, 0
4, 60864, Note_on_c, 2, 53, 86
4, 60864, Note_on_c, 2, 41, 86
4, 61052, Note_on_c, 2, 41, 0
4, 61052, Note_on_c, 2, 53, 0
4, 61056, Note_on_c, 2, 46, 86
4, 61056, Note_on_c, 2, 34, 86
4, 61244, Note_on_c, 2, 34, 0
4, 61244, Note_on_c, 2, 46, 0
4, 61248, Note_on_c, 2, 58, 86
4, 61248, Note_on_c, 2, 46, 86
4, 61436, Note_on_c, 2, 46, 0
4, 61436, Note_on_c, 2, 58, 0
4, 61440, Note_on_c, 2, 58, 86
4, 61440, Note_on_c, 2, 46, 86
4, 61628, Note_on_c, 2, 46, 0
4, 61628, Note_on_c, 2, 58, 0
4, 61632, Note_on_c, 2, 62, 86
4, 61632, Note_on_c, 2, 50, 86
4, 62012, Note_on_c, 2, 50, 0
4, 62012, Note_on_c, 2, 62, 0
4, 62016, Note_on_c, 2, 58, 86
4, 62016, Note_on_c, 2, 46, 86
4, 62204, Note_on_c, 2, 46, 0
4, 62204, Note_on_c, 2, 58, 0
4, 62208, Note_on_c, 2, 53, 86
4, 62208, Note_on_c, 2, 41, 86
4, 62396, Note_on_c, 2, 41, 0
4, 62396, Note_on_c, 2, 53, 0
4, 62400, Note_on_c, 2, 53, 86
4, 62400, Note_on_c, 2, 41, 86
4, 62588, Note_on_c, 2, 41, 0
4, 62588, Note_on_c, 2, 53, 0
4, 62592, Note_on_c, 2, 53, 86
4, 62592, Note_on_c, 2, 41, 86
4, 62780, Note_on_c, 2, 41, 0
4, 62780, Note_on_c, 2, 53, 0
4, 62784, Note_on_c, 2, 53, 86
4, 62784, Note_on_c, 2, 41, 86
4, 62972, Note_on_c, 2, 41, 0
4, 62972, Note_on_c, 2, 53, 0
4, 62976, Note_on_c, 2, 53, 86
4, 62976, Note_on_c, 2, 41, 86
4, 63164, Note_on_c, 2, 41, 0
4, 63164, Note_on_c, 2, 53, 0
4, 63168, Note_on_c, 2, 53, 86
4, 63168, Note_on_c, 2, 41, 86
4, 63356, Note_on_c, 2, 41, 0
4, 63356, Note_on_c, 2, 53, 0
4, 63360, Note_on_c, 2, 46, 86
4, 63360, Note_on_c, 2, 34, 86
4, 63740, Note_on_c, 2, 34, 0
4, 63740, Note_on_c, 2, 46, 0
4, 63936, Note_on_c, 2, 58, 86
4, 63936, Note_on_c, 2, 46, 86
4, 64316, Note_on_c, 2, 46, 0
4, 64316, Note_on_c, 2, 58, 0
4, 64512, Note_on_c, 2, 46, 86
4, 64512, Note_on_c, 2, 34, 86
4, 64892, Note_on_c, 2, 34, 0
4, 64892, Note_on_c, 2, 46, 0
4, 70272, Note_on_c, 2, 53, 64
4, 70652, Note_on_c, 2, 53, 0
4, 71040, Note_on_c, 2, 53, 64
4, 71228, Note_on_c, 2, 53, 0
4, 71232, Note_on_c, 2, 51, 64
4, 71420, Note_on_c, 2, 51, 0
4, 71424, Note_on_c, 2, 50, 64
4, 71804, Note_on_c, 2, 50, 0
4, 72192, Note_on_c, 2, 62, 64
4, 72284, Note_on_c, 2, 62, 0
4, 72384, Note_on_c, 2, 58, 64
4, 72476, Note_on_c, 2, 58, 0
4, 72576, Note_on_c, 2, 63, 64
4, 73148, Note_on_c, 2, 63, 0
4, 73152, Note_on_c, 2, 63, 64
4, 73340, Note_on_c, 2, 63, 0
4, 73344, Note_on_c, 2, 62, 64
4, 73532, Note_on_c, 2, 62, 0
4, 73536, Note_on_c, 2, 60, 64
4, 73724, Note_on_c, 2, 60, 0
4, 73728, Note_on_c, 2, 65, 64
4, 73916, Note_on_c, 2, 65, 0
4, 73920, Note_on_c, 2, 65, 64
4, 74108, Note_on_c, 2, 65, 0
4, 74112, Note_on_c, 2, 65, 64
4, 74300, Note_on_c, 2, 65, 0
4, 74304, Note_on_c, 2, 65, 64
4, 74492, Note_on_c, 2, 65, 0
4, 74496, Note_on_c, 2, 63, 64
4, 74684, Note_on_c, 2, 63, 0
4, 74688, Note_on_c, 2, 60, 64
4, 74876, Note_on_c, 2, 60, 0
4, 74880, Note_on_c, 2, 46, 64
4, 75452, Note_on_c, 2, 46, 0
4, 76032, Note_on_c, 2, 46, 64
4, 76220, Note_on_c, 2, 46, 0
4, 76224, Note_on_c, 2, 58, 64
4, 76412, Note_on_c, 2, 58, 0
4, 76416, Note_on_c, 2, 58, 64
4, 76604, Note_on_c, 2, 58, 0
4, 76608, Note_on_c, 2, 58, 64
4, 76796, Note_on_c, 2, 58, 0
4, 76800, Note_on_c, 2, 58, 64
4, 76988, Note_on_c, 2, 58, 0
4, 76992, Note_on_c, 2, 58, 64
4, 77180, Note_on_c, 2, 58, 0
4, 77184, Note_on_c, 2, 58, 64
4, 77184, Note_on_c, 2, 46, 64
4, 77372, Note_on_c, 2, 46, 0
4, 77372, Note_on_c, 2, 58, 0
4, 77760, Note_on_c, 2, 58, 64
4, 77760, Note_on_c, 2, 46, 64
4, 77948, Note_on_c, 2, 46, 0
4, 77948, Note_on_c, 2, 58, 0
4, 78336, Note_on_c, 2, 58, 64
4, 78336, Note_on_c, 2, 46, 64
4, 78716, Note_on_c, 2, 46, 0
4, 78716, Note_on_c, 2, 58, 0
4, 79104, Note_on_c, 2, 67, 64
4, 79292, Note_on_c, 2, 67, 0
4, 79296, Note_on_c, 2, 65, 64
4, 79484, Note_on_c, 2, 65, 0
4, 79488, Note_on_c, 2, 64, 64
4, 79868, Note_on_c, 2, 64, 0
4, 80064, Note_on_c, 2, 58, 64
4, 80636, Note_on_c, 2, 58, 0
4, 80640, Note_on_c, 2, 57, 64
4, 81020, Note_on_c, 2, 57, 0
4, 81792, Note_on_c, 2, 58, 64
4, 81792, Note_on_c, 2, 62, 64
4, 82172, Note_on_c, 2, 62, 0
4, 82172, Note_on_c, 2, 58, 0
4, 82752, Note_on_c, 2, 60, 64
4, 82940, Note_on_c, 2, 60, 0
4, 82944, Note_on_c, 2, 64, 64
4, 82944, Note_on_c, 2, 60, 64
4, 83132, Note_on_c, 2, 60, 0
4, 83132, Note_on_c, 2, 64, 0
4, 83136, Note_on_c, 2, 64, 64
4, 83136, Note_on_c, 2, 60, 64
4, 83324, Note_on_c, 2, 60, 0
4, 83324, Note_on_c, 2, 64, 0
4, 83328, Note_on_c, 2, 64, 64
4, 83328, Note_on_c, 2, 60, 64
4, 83516, Note_on_c, 2, 60, 0
4, 83516, Note_on_c, 2, 64, 0
4, 83520, Note_on_c, 2, 65, 64
4, 83520, Note_on_c, 2, 53, 64
4, 83708, Note_on_c, 2, 53, 0
4, 83708, Note_on_c, 2, 65, 0
4, 88704, Note_on_c, 2, 53, 64
4, 89280, Note_on_c, 2, 61, 64
4, 89852, Note_on_c, 2, 61, 0
4, 89852, Note_on_c, 2, 53, 0
4, 89856, Note_on_c, 2, 52, 64
4, 89856, Note_on_c, 2, 61, 64
4, 90140, Note_on_c, 2, 52, 0
4, 90236, Note_on_c, 2, 61, 0
4, 90240, Note_on_c, 2, 60, 64
4, 90428, Note_on_c, 2, 60, 0
4, 90432, Note_on_c, 2, 51, 64
4, 90432, Note_on_c, 2, 60, 64
4, 90716, Note_on_c, 2, 60, 0
4, 90716, Note_on_c, 2, 51, 0
4, 91008, Note_on_c, 2, 50, 64
4, 91008, Note_on_c, 2, 60, 64
4, 91388, Note_on_c, 2, 60, 0
4, 91392, Note_on_c, 2, 58, 64
4, 91580, Note_on_c, 2, 58, 0
4, 91580, Note_on_c, 2, 50, 0
4, 91584, Note_on_c, 2, 49, 64
4, 91584, Note_on_c, 2, 58, 64
4, 92156, Note_on_c, 2, 58, 0
4, 92156, Note_on_c, 2, 49, 0
4, 92160, Note_on_c, 2, 58, 64
4, 92160, Note_on_c, 2, 48, 64
4, 92540, Note_on_c, 2, 58, 0
4, 92544, Note_on_c, 2, 56, 64
4, 92732, Note_on_c, 2, 56, 0
4, 92736, Note_on_c, 2, 56, 64
4, 93308, Note_on_c, 2, 56, 0
4, 93308, Note_on_c, 2, 48, 0
4, 93312, Note_on_c, 2, 46, 64
4, 94460, Note_on_c, 2, 46, 0
4, 94464, Note_on_c, 2, 46, 64
4, 95036, Note_on_c, 2, 46, 0
4, 95040, Note_on_c, 2, 45, 64
4, 95228, Note_on_c, 2, 45, 0
4, 95808, Note_on_c, 2, 46, 64
4, 95996, Note_on_c, 2, 46, 0
4, 96000, Note_on_c, 2, 46, 64
4, 96188, Note_on_c, 2, 46, 0
4, 96384, Note_on_c, 2, 46, 64
4, 96572, Note_on_c, 2, 46, 0
4, 96576, Note_on_c, 2, 46, 64
4, 96764, Note_on_c, 2, 46, 0
4, 96768, Note_on_c, 2, 53, 64
4, 96768, Note_on_c, 2, 41, 64
4, 96956, Note_on_c, 2, 41, 0
4, 96956, Note_on_c, 2, 53, 0
4, 97344, Note_on_c, 2, 57, 64
4, 97344, Note_on_c, 2, 45, 64
4, 97532, Note_on_c, 2, 45, 0
4, 97532, Note_on_c, 2, 57, 0
4, 97920, Note_on_c, 2, 55, 64
4, 97920, Note_on_c, 2, 43, 64
4, 98108, Note_on_c, 2, 43, 0
4, 98108, Note_on_c, 2, 55, 0
4, 98496, Note_on_c, 2, 48, 64
4, 98496, Note_on_c, 2, 36, 64
4, 98684, Note_on_c, 2, 36, 0
4, 98684, Note_on_c, 2, 48, 0
4, 99072, Note_on_c, 2, 53, 64
4, 99072, Note_on_c, 2, 41, 64
4, 99260, Note_on_c, 2, 41, 0
4, 99260, Note_on_c, 2, 53, 0
4, 99648, Note_on_c, 2, 57, 64
4, 99648, Note_on_c, 2, 45, 64
4, 99836, Note_on_c, 2, 45, 0
4, 99836, Note_on_c, 2, 57, 0
4, 100224, Note_on_c, 2, 55, 64
4, 100224, Note_on_c, 2, 43, 64
4, 100412, Note_on_c, 2, 43, 0
4, 100412, Note_on_c, 2, 55, 0
4, 100800, Note_on_c, 2, 48, 64
4, 100800, Note_on_c, 2, 36, 64
4, 100988, Note_on_c, 2, 36, 0
4, 100988, Note_on_c, 2, 48, 0
4, 101376, Note_on_c, 2, 53, 64
4, 101376, Note_on_c, 2, 41, 64
4, 101756, Note_on_c, 2, 41, 0
4, 101756, Note_on_c, 2, 53, 0
4, 102144, Note_on_c, 2, 57, 64
4, 102144, Note_on_c, 2, 45, 64
4, 102332, Note_on_c, 2, 45, 0
4, 102332, Note_on_c, 2, 57, 0
4, 102336, Note_on_c, 2, 57, 64
4, 102336, Note_on_c, 2, 45, 64
4, 102524, Note_on_c, 2, 45, 0
4, 102524, Note_on_c, 2, 57, 0
4, 102528, Note_on_c, 2, 58, 64
4, 102528, Note_on_c, 2, 46, 64
4, 102908, Note_on_c, 2, 46, 0
4, 102908, Note_on_c, 2, 58, 0
4, 103296, Note_on_c, 2, 58, 64
4, 103296, Note_on_c, 2, 46, 64
4, 103484, Note_on_c, 2, 46, 0
4, 103484, Note_on_c, 2, 58, 0
4, 103488, Note_on_c, 2, 58, 64
4, 103488, Note_on_c, 2, 46, 64
4, 103676, Note_on_c, 2, 46, 0
4, 103676, Note_on_c, 2, 58, 0
4, 103680, Note_on_c, 2, 60, 64
4, 103680, Note_on_c, 2, 48, 64
4, 104252, Note_on_c, 2, 48, 0
4, 104252, Note_on_c, 2, 60, 0
4, 104256, Note_on_c, 2, 58, 64
4, 104256, Note_on_c, 2, 46, 64
4, 104828, Note_on_c, 2, 46, 0
4, 104828, Note_on_c, 2, 58, 0
4, 104832, Note_on_c, 2, 57, 64
4, 104832, Note_on_c, 2, 45, 64
4, 105212, Note_on_c, 2, 45, 0
4, 105212, Note_on_c, 2, 57, 0
4, 105600, Note_on_c, 2, 53, 64
4, 105600, Note_on_c, 2, 41, 64
4, 105692, Note_on_c, 2, 41, 0
4, 105692, Note_on_c, 2, 53, 0
4, 105792, Note_on_c, 2, 57, 64
4, 105792, Note_on_c, 2, 45, 64
4, 105884, Note_on_c, 2, 45, 0
4, 105884, Note_on_c, 2, 57, 0
4, 105984, Note_on_c, 2, 58, 64
4, 105984, Note_on_c, 2, 46, 64
4, 106364, Note_on_c, 2, 46, 0
4, 106364, Note_on_c, 2, 58, 0
4, 106752, Note_on_c, 2, 46, 64
4, 106752, Note_on_c, 2, 34, 64
4, 106844, Note_on_c, 2, 34, 0
4, 106844, Note_on_c, 2, 46, 0
4, 106944, Note_on_c, 2, 50, 64
4, 106944, Note_on_c, 2, 38, 64
4, 107036, Note_on_c, 2, 38, 0
4, 107036, Note_on_c, 2, 50, 0
4, 107136, Note_on_c, 2, 47, 64
4, 107136, Note_on_c, 2, 35, 64
4, 108284, Note_on_c, 2, 35, 0
4, 108284, Note_on_c, 2, 47, 0
4, 108288, Note_on_c, 2, 46, 64
4, 108288, Note_on_c, 2, 34, 64
4, 108860, Note_on_c, 2, 34, 0
4, 108860, Note_on_c, 2, 46, 0
4, 108864, Note_on_c, 2, 49, 64
4, 108864, Note_on_c, 2, 37, 64
4, 109436, Note_on_c, 2, 37, 0
4, 109436, Note_on_c, 2, 49, 0
4, 109440, Note_on_c, 2, 48, 64
4, 109440, Note_on_c, 2, 36, 64
4, 109820, Note_on_c, 2, 36, 0
4, 109820, Note_on_c, 2, 48, 0
4, 110592, Note_on_c, 2, 48, 64
4, 110592, Note_on_c, 2, 36, 64
4, 110972, Note_on_c, 2, 36, 0
4, 110972, Note_on_c, 2, 48, 0
4, 111168, Note_on_c, 2, 48, 64
4, 111168, Note_on_c, 2, 36, 64
4, 111548, Note_on_c, 2, 36, 0
4, 111548, Note_on_c, 2, 48, 0
4, 111744, Note_on_c, 2, 53, 64
4, 111744, Note_on_c, 2, 41, 64
4, 111932, Note_on_c, 2, 41, 0
4, 111932, Note_on_c, 2, 53, 0
4, 111936, Note_on_c, 2, 53, 64
4, 112124, Note_on_c, 2, 53, 0
4, 112128, Note_on_c, 2, 53, 64
4, 112316, Note_on_c, 2, 53, 0
4, 112320, Note_on_c, 2, 53, 64
4, 112508, Note_on_c, 2, 53, 0
4, 112512, Note_on_c, 2, 53, 64
4, 112700, Note_on_c, 2, 53, 0
4, 112704, Note_on_c, 2, 53, 64
4, 112892, Note_on_c, 2, 53, 0
4, 112896, Note_on_c, 2, 53, 64
4, 112896, Note_on_c, 2, 41, 64
4, 113084, Note_on_c, 2, 41, 0
4, 113084, Note_on_c, 2, 53, 0
4, 113088, Note_on_c, 2, 53, 64
4, 113088, Note_on_c, 2, 41, 64
4, 113276, Note_on_c, 2, 41, 0
4, 113276, Note_on_c, 2, 53, 0
4, 113280, Note_on_c, 2, 53, 64
4, 113280, Note_on_c, 2, 41, 64
4, 113468, Note_on_c, 2, 41, 0
4, 113468, Note_on_c, 2, 53, 0
4, 113472, Note_on_c, 2, 53, 64
4, 113472, Note_on_c, 2, 41, 64
4, 113660, Note_on_c, 2, 41, 0
4, 113660, Note_on_c, 2, 53, 0
4, 113664, Note_on_c, 2, 53, 64
4, 113664, Note_on_c, 2, 41, 64
4, 113852, Note_on_c, 2, 41, 0
4, 113852, Note_on_c, 2, 53, 0
4, 113856, Note_on_c, 2, 53, 64
4, 113856, Note_on_c, 2, 41, 64
4, 114044, Note_on_c, 2, 41, 0
4, 114044, Note_on_c, 2, 53, 0
4, 114048, Note_on_c, 2, 53, 64
4, 114048, Note_on_c, 2, 41, 64
4, 114428, Note_on_c, 2, 41, 0
4, 114428, Note_on_c, 2, 53, 0
4, 115200, Note_on_c, 2, 53, 64
4, 115580, Note_on_c, 2, 53, 0
4, 115776, Note_on_c, 2, 53, 64
4, 116156, Note_on_c, 2, 53, 0
4, 116352, Note_on_c, 2, 53, 64
4, 116540, Note_on_c, 2, 53, 0
4, 116544, Note_on_c, 2, 53, 64
4, 116732, Note_on_c, 2, 53, 0
4, 116736, Note_on_c, 2, 53, 64
4, 116924, Note_on_c, 2, 53, 0
4, 116928, Note_on_c, 2, 53, 64
4, 117116, Note_on_c, 2, 53, 0
4, 117120, Note_on_c, 2, 53, 64
4, 117308, Note_on_c, 2, 53, 0
4, 117312, Note_on_c, 2, 53, 64
4, 117500, Note_on_c, 2, 53, 0
4, 117504, Note_on_c, 2, 53, 64
4, 117504, Note_on_c, 2, 41, 64
4, 117692, Note_on_c, 2, 41, 0
4, 117692, Note_on_c, 2, 53, 0
4, 117696, Note_on_c, 2, 53, 64
4, 117696, Note_on_c, 2, 41, 64
4, 117884, Note_on_c, 2, 41, 0
4, 117884, Note_on_c, 2, 53, 0
4, 117888, Note_on_c, 2, 53, 64
4, 117888, Note_on_c, 2, 41, 64
4, 118076, Note_on_c, 2, 41, 0
4, 118076, Note_on_c, 2, 53, 0
4, 118080, Note_on_c, 2, 53, 64
4, 118080, Note_on_c, 2, 41, 64
4, 118268, Note_on_c, 2, 41, 0
4, 118268, Note_on_c, 2, 53, 0
4, 118272, Note_on_c, 2, 53, 64
4, 118272, Note_on_c, 2, 41, 64
4, 118460, Note_on_c, 2, 41, 0
4, 118460, Note_on_c, 2, 53, 0
4, 118464, Note_on_c, 2, 53, 64
4, 118464, Note_on_c, 2, 41, 64
4, 118652, Note_on_c, 2, 41, 0
4, 118652, Note_on_c, 2, 53, 0
4, 118656, Note_on_c, 2, 53, 64
4, 118656, Note_on_c, 2, 41, 64
4, 119036, Note_on_c, 2, 41, 0
4, 119036, Note_on_c, 2, 53, 0
4, 119808, Note_on_c, 2, 54, 64
4, 119808, Note_on_c, 2, 42, 64
4, 120956, Note_on_c, 2, 42, 0
4, 120956, Note_on_c, 2, 54, 0
4, 120960, Note_on_c, 2, 53, 64
4, 120960, Note_on_c, 2, 41, 64
4, 121340, Note_on_c, 2, 41, 0
4, 121340, Note_on_c, 2, 53, 0
4, 122688, Note_on_c, 2, 66, 64
4, 123260, Note_on_c, 2, 66, 0
4, 123264, Note_on_c, 2, 65, 64
4, 123452, Note_on_c, 2, 65, 0
4, 124992, Note_on_c, 2, 54, 64
4, 125564, Note_on_c, 2, 54, 0
4, 125568, Note_on_c, 2, 53, 64
4, 125756, Note_on_c, 2, 53, 0
4, 126720, Note_on_c, 2, 42, 64
4, 126720, Note_on_c, 2, 54, 64
4, 129020, Note_on_c, 2, 54, 0
4, 129020, Note_on_c, 2, 42, 0
4, 129024, Note_on_c, 2, 53, 64
4, 129024, Note_on_c, 2, 41, 64
4, 129404, Note_on_c, 2, 41, 0
4, 129404, Note_on_c, 2, 53, 0
4, 130368, Note_on_c, 2, 52, 64
4, 130556, Note_on_c, 2, 52, 0
4, 130560, Note_on_c, 2, 53, 64
4, 130748, Note_on_c, 2, 53, 0
4, 130752, Note_on_c, 2, 54, 64
4, 130940, Note_on_c, 2, 54, 0
4, 130944, Note_on_c, 2, 55, 64
4, 131132, Note_on_c, 2, 55, 0
4, 131136, Note_on_c, 2, 57, 64
4, 131324, Note_on_c, 2, 57, 0
4, 131328, Note_on_c, 2, 58, 64
4, 131708, Note_on_c, 2, 58, 0
4, 132480, Note_on_c, 2, 65, 64
4, 133052, Note_on_c, 2, 65, 0
4, 133056, Note_on_c, 2, 67, 64
4, 133244, Note_on_c, 2, 67, 0
4, 133824, Note_on_c, 2, 63, 64
4, 133916, Note_on_c, 2, 63, 0
4, 134016, Note_on_c, 2, 63, 64
4, 134108, Note_on_c, 2, 63, 0
4, 134400, Note_on_c, 2, 63, 64
4, 134492, Note_on_c, 2, 63, 0
4, 134592, Note_on_c, 2, 63, 64
4, 134684, Note_on_c, 2, 63, 0
4, 134976, Note_on_c, 2, 65, 64
4, 135068, Note_on_c, 2, 65, 0
4, 135168, Note_on_c, 2, 65, 64
4, 135260, Note_on_c, 2, 65, 0
4, 135360, Note_on_c, 2, 65, 64
4, 135548, Note_on_c, 2, 65, 0
4, 137088, Note_on_c, 2, 65, 64
4, 137468, Note_on_c, 2, 65, 0
4, 137472, Note_on_c, 2, 66, 64
4, 137660, Note_on_c, 2, 66, 0
4, 137664, Note_on_c, 2, 67, 64
4, 137852, Note_on_c, 2, 67, 0
4, 138240, Note_on_c, 2, 63, 64
4, 138428, Note_on_c, 2, 63, 0
4, 138816, Note_on_c, 2, 53, 64
4, 139004, Note_on_c, 2, 53, 0
4, 139392, Note_on_c, 2, 46, 93
4, 139392, Note_on_c, 2, 34, 93
4, 139580, Note_on_c, 2, 34, 0
4, 139580, Note_on_c, 2, 46, 0
4, 139584, Note_on_c, 2, 58, 93
4, 139584, Note_on_c, 2, 46, 93
4, 139772, Note_on_c, 2, 46, 0
4, 139772, Note_on_c, 2, 58, 0
4, 139776, Note_on_c, 2, 58, 93
4, 139776, Note_on_c, 2, 46, 93
4, 139964, Note_on_c, 2, 46, 0
4, 139964, Note_on_c, 2, 58, 0
4, 139968, Note_on_c, 2, 62, 93
4, 139968, Note_on_c, 2, 50, 93
4, 140348, Note_on_c, 2, 50, 0
4, 140348, Note_on_c, 2, 62, 0
4, 140352, Note_on_c, 2, 58, 93
4, 140352, Note_on_c, 2, 46, 93
4, 140540, Note_on_c, 2, 46, 0
4, 140540, Note_on_c, 2, 58, 0
4, 140544, Note_on_c, 2, 53, 93
4, 140544, Note_on_c, 2, 41, 93
4, 140732, Note_on_c, 2, 41, 0
4, 140732, Note_on_c, 2, 53, 0
4, 140736, Note_on_c, 2, 53, 93
4, 140736, Note_on_c, 2, 41, 93
4, 140924, Note_on_c, 2, 41, 0
4, 140924, Note_on_c, 2, 53, 0
4, 140928, Note_on_c, 2, 53, 93
4, 140928, Note_on_c, 2, 41, 93
4, 141116, Note_on_c, 2, 41, 0
4, 141116, Note_on_c, 2, 53, 0
4, 141120, Note_on_c, 2, 53, 93
4, 141120, Note_on_c, 2, 41, 93
4, 141308, Note_on_c, 2, 41, 0
4, 141308, Note_on_c, 2, 53, 0
4, 141312, Note_on_c, 2, 53, 93
4, 141312, Note_on_c, 2, 41, 93
4, 141500, Note_on_c, 2, 41, 0
4, 141500, Note_on_c, 2, 53, 0
4, 141504, Note_on_c, 2, 53, 93
4, 141504, Note_on_c, 2, 41, 93
4, 141692, Note_on_c, 2, 41, 0
4, 141692, Note_on_c, 2, 53, 0
4, 141696, Note_on_c, 2, 46, 93
4, 141696, Note_on_c, 2, 34, 93
4, 141884, Note_on_c, 2, 34, 0
4, 141884, Note_on_c, 2, 46, 0
4, 141888, Note_on_c, 2, 46, 93
4, 141888, Note_on_c, 2, 58, 93
4, 142076, Note_on_c, 2, 58, 0
4, 142076, Note_on_c, 2, 46, 0
4, 142080, Note_on_c, 2, 58, 93
4, 142080, Note_on_c, 2, 46, 93
4, 142268, Note_on_c, 2, 46, 0
4, 142268, Note_on_c, 2, 58, 0
4, 142272, Note_on_c, 2, 62, 93
4, 142272, Note_on_c, 2, 50, 93
4, 142652, Note_on_c, 2, 50, 0
4, 142652, Note_on_c, 2, 62, 0
4, 142656, Note_on_c, 2, 58, 93
4, 142656, Note_on_c, 2, 46, 93
4, 142844, Note_on_c, 2, 46, 0
4, 142844, Note_on_c, 2, 58, 0
4, 142848, Note_on_c, 2, 53, 93
4, 142848, Note_on_c, 2, 41, 93
4, 143036, Note_on_c, 2, 41, 0
4, 143036, Note_on_c, 2, 53, 0
4, 143040, Note_on_c, 2, 53, 93
4, 143040, Note_on_c, 2, 41, 93
4, 143228, Note_on_c, 2, 41, 0
4, 143228, Note_on_c, 2, 53, 0
4, 143232, Note_on_c, 2, 53, 93
4, 143232, Note_on_c, 2, 41, 93
4, 143420, Note_on_c, 2, 41, 0
4, 143420, Note_on_c, 2, 53, 0
4, 143424, Note_on_c, 2, 53, 93
4, 143424, Note_on_c, 2, 41, 93
4, 143612, Note_on_c, 2, 41, 0
4, 143612, Note_on_c, 2, 53, 0
4, 143616, Note_on_c, 2, 53, 93
4, 143616, Note_on_c, 2, 41, 93
4, 143804, Note_on_c, 2, 41, 0
4, 143804, Note_on_c, 2, 53, 0
4, 143808, Note_on_c, 2, 53, 93
4, 143808, Note_on_c, 2, 41, 93
4, 143996, Note_on_c, 2, 41, 0
4, 143996, Note_on_c, 2, 53, 0
4, 144000, Note_on_c, 2, 46, 93
4, 144000, Note_on_c, 2, 34, 93
4, 144380, Note_on_c, 2, 34, 0
4, 144380, Note_on_c, 2, 46, 0
4, 148608, Note_on_c, 2, 51, 93
4, 148796, Note_on_c, 2, 51, 0
4, 148800, Note_on_c, 2, 46, 93
4, 148892, Note_on_c, 2, 46, 0
4, 148992, Note_on_c, 2, 55, 93
4, 149084, Note_on_c, 2, 55, 0
4, 149184, Note_on_c, 2, 56, 93
4, 149276, Note_on_c, 2, 56, 0
4, 149376, Note_on_c, 2, 53, 93
4, 149468, Note_on_c, 2, 53, 0
4, 149568, Note_on_c, 2, 50, 93
4, 149660, Note_on_c, 2, 50, 0
4, 149760, Note_on_c, 2, 51, 93
4, 149948, Note_on_c, 2, 51, 0
4, 149952, Note_on_c, 2, 46, 93
4, 150044, Note_on_c, 2, 46, 0
4, 150144, Note_on_c, 2, 55, 93
4, 150236, Note_on_c, 2, 55, 0
4, 150336, Note_on_c, 2, 56, 93
4, 150428, Note_on_c, 2, 56, 0
4, 150528, Note_on_c, 2, 53, 93
4, 150620, Note_on_c, 2, 53, 0
4, 150720, Note_on_c, 2, 50, 93
4, 150812, Note_on_c, 2, 50, 0
4, 150912, Note_on_c, 2, 51, 93
4, 151100, Note_on_c, 2, 51, 0
4, 151104, Note_on_c, 2, 60, 93
4, 151196, Note_on_c, 2, 60, 0
4, 151296, Note_on_c, 2, 62, 93
4, 151388, Note_on_c, 2, 62, 0
4, 151488, Note_on_c, 2, 59, 93
4, 151580, Note_on_c, 2, 59, 0
4, 151680, Note_on_c, 2, 60, 93
4, 151772, Note_on_c, 2, 60, 0
4, 151872, Note_on_c, 2, 57, 93
4, 151964, Note_on_c, 2, 57, 0
4, 152064, Note_on_c, 2, 58, 93
4, 152252, Note_on_c, 2, 58, 0
4, 152256, Note_on_c, 2, 55, 93
4, 152348, Note_on_c, 2, 55, 0
4, 152448, Note_on_c, 2, 57, 93
4, 152540, Note_on_c, 2, 57, 0
4, 152640, Note_on_c, 2, 54, 93
4, 152732, Note_on_c, 2, 54, 0
4, 152832, Note_on_c, 2, 55, 93
4, 152924, Note_on_c, 2, 55, 0
4, 153024, Note_on_c, 2, 58, 93
4, 153116, Note_on_c, 2, 58, 0
4, 153216, Note_on_c, 2, 64, 93
4, 153216, Note_on_c, 2, 52, 93
4, 153404, Note_on_c, 2, 52, 0
4, 153404, Note_on_c, 2, 64, 0
4, 153408, Note_on_c, 2, 64, 93
4, 153408, Note_on_c, 2, 52, 93
4, 153500, Note_on_c, 2, 52, 0
4, 153500, Note_on_c, 2, 64, 0
4, 153600, Note_on_c, 2, 64, 93
4, 153600, Note_on_c, 2, 52, 93
4, 153692, Note_on_c, 2, 52, 0
4, 153692, Note_on_c, 2, 64, 0
4, 153792, Note_on_c, 2, 63, 93
4, 153792, Note_on_c, 2, 51, 93
4, 153884, Note_on_c, 2, 51, 0
4, 153884, Note_on_c, 2, 63, 0
4, 153984, Note_on_c, 2, 51, 93
4, 153984, Note_on_c, 2, 63, 93
4, 154076, Note_on_c, 2, 63, 0
4, 154076, Note_on_c, 2, 51, 0
4, 154176, Note_on_c, 2, 63, 93
4, 154176, Note_on_c, 2, 51, 93
4, 154268, Note_on_c, 2, 51, 0
4, 154268, Note_on_c, 2, 63, 0
4, 154368, Note_on_c, 2, 62, 93
4, 154368, Note_on_c, 2, 50, 93
4, 154556, Note_on_c, 2, 50, 0
4, 154556, Note_on_c, 2, 62, 0
4, 154560, Note_on_c, 2, 62, 93
4, 154560, Note_on_c, 2, 50, 93
4, 154652, Note_on_c, 2, 50, 0
4, 154652, Note_on_c, 2, 62, 0
4, 154752, Note_on_c, 2, 62, 93
4, 154752, Note_on_c, 2, 50, 93
4, 154844, Note_on_c, 2, 50, 0
4, 154844, Note_on_c, 2, 62, 0
4, 154944, Note_on_c, 2, 62, 93
4, 154944, Note_on_c, 2, 50, 93
4, 155036, Note_on_c, 2, 50, 0
4, 155036, Note_on_c, 2, 62, 0
4, 155136, Note_on_c, 2, 62, 93
4, 155136, Note_on_c, 2, 50, 93
4, 155228, Note_on_c, 2, 50, 0
4, 155228, Note_on_c, 2, 62, 0
4, 155328, Note_on_c, 2, 62, 93
4, 155328, Note_on_c, 2, 50, 93
4, 155420, Note_on_c, 2, 50, 0
4, 155420, Note_on_c, 2, 62, 0
4, 155520, Note_on_c, 2, 62, 93
4, 155520, Note_on_c, 2, 50, 93
4, 155708, Note_on_c, 2, 50, 0
4, 155708, Note_on_c, 2, 62, 0
4, 155712, Note_on_c, 2, 62, 93
4, 155712, Note_on_c, 2, 50, 93
4, 155804, Note_on_c, 2, 50, 0
4, 155804, Note_on_c, 2, 62, 0
4, 155904, Note_on_c, 2, 62, 93
4, 155904, Note_on_c, 2, 50, 93
4, 155996, Note_on_c, 2, 50, 0
4, 155996, Note_on_c, 2, 62, 0
4, 156096, Note_on_c, 2, 62, 93
4, 156096, Note_on_c, 2, 50, 93
4, 156188, Note_on_c, 2, 50, 0
4, 156188, Note_on_c, 2, 62, 0
4, 156288, Note_on_c, 2, 62, 93
4, 156288, Note_on_c, 2, 50, 93
4, 156380, Note_on_c, 2, 50, 0
4, 156380, Note_on_c, 2, 62, 0
4, 156480, Note_on_c, 2, 62, 93
4, 156480, Note_on_c, 2, 50, 93
4, 156572, Note_on_c, 2, 50, 0
4, 156572, Note_on_c, 2, 62, 0
4, 156672, Note_on_c, 2, 62, 93
4, 156672, Note_on_c, 2, 50, 93
4, 156860, Note_on_c, 2, 50, 0
4, 156860, Note_on_c, 2, 62, 0
4, 156864, Note_on_c, 2, 50, 93
4, 156864, Note_on_c, 2, 38, 93
4, 156956, Note_on_c, 2, 38, 0
4, 156956, Note_on_c, 2, 50, 0
4, 157056, Note_on_c, 2, 50, 93
4, 157056, Note_on_c, 2, 38, 93
4, 157148, Note_on_c, 2, 38, 0
4, 157148, Note_on_c, 2, 50, 0
4, 157248, Note_on_c, 2, 50, 93
4, 157248, Note_on_c, 2, 38, 93
4, 157340, Note_on_c, 2, 38, 0
4, 157340, Note_on_c, 2, 50, 0
4, 157440, Note_on_c, 2, 50, 93
4, 157440, Note_on_c, 2, 38, 93
4, 157532, Note_on_c, 2, 38, 0
4, 157532, Note_on_c, 2, 50, 0
4, 157632, Note_on_c, 2, 50, 93
4, 157632, Note_on_c, 2, 38, 93
4, 157724, Note_on_c, 2, 38, 0
4, 157724, Note_on_c, 2, 50, 0
4, 157824, Note_on_c, 2, 50, 93
4, 157824, Note_on_c, 2, 38, 93
4, 158204, Note_on_c, 2, 38, 0
4, 158204, Note_on_c, 2, 50, 0
4, 158976, Note_on_c, 2, 55, 64
4, 159548, Note_on_c, 2, 55, 0
4, 159552, Note_on_c, 2, 67, 64
4, 160124, Note_on_c, 2, 67, 0
4, 160128, Note_on_c, 2, 55, 64
4, 160700, Note_on_c, 2, 55, 0
4, 160704, Note_on_c, 2, 67, 64
4, 161276, Note_on_c, 2, 67, 0
4, 161280, Note_on_c, 2, 54, 64
4, 161852, Note_on_c, 2, 54, 0
4, 161856, Note_on_c, 2, 66, 64
4, 162428, Note_on_c, 2, 66, 0
4, 162432, Note_on_c, 2, 55, 64
4, 163004, Note_on_c, 2, 55, 0
4, 163008, Note_on_c, 2, 67, 64
4, 163580, Note_on_c, 2, 67, 0
4, 167424, Note_on_c, 2, 60, 64
4, 167612, Note_on_c, 2, 60, 0
4, 167616, Note_on_c, 2, 58, 64
4, 167996, Note_on_c, 2, 58, 0
4, 168000, Note_on_c, 2, 57, 64
4, 168188, Note_on_c, 2, 57, 0
4, 168192, Note_on_c, 2, 43, 64
4, 168572, Note_on_c, 2, 43, 0
4, 169344, Note_on_c, 2, 43, 64
4, 169536, Note_on_c, 2, 60, 64
4, 169536, Note_on_c, 2, 57, 64
4, 169536, Note_on_c, 2, 51, 64
4, 169724, Note_on_c, 2, 51, 0
4, 169724, Note_on_c, 2, 43, 0
4, 169724, Note_on_c, 2, 60, 0
4, 169724, Note_on_c, 2, 57, 0
4, 169728, Note_on_c, 2, 57, 64
4, 169728, Note_on_c, 2, 51, 64
4, 169728, Note_on_c, 2, 60, 64
4, 169916, Note_on_c, 2, 60, 0
4, 169916, Note_on_c, 2, 51, 0
4, 169916, Note_on_c, 2, 57, 0
4, 169920, Note_on_c, 2, 60, 64
4, 169920, Note_on_c, 2, 57, 64
4, 169920, Note_on_c, 2, 51, 64
4, 170108, Note_on_c, 2, 51, 0
4, 170108, Note_on_c, 2, 57, 0
4, 170108, Note_on_c, 2, 60, 0
4, 170112, Note_on_c, 2, 60, 64
4, 170112, Note_on_c, 2, 57, 64
4, 170112, Note_on_c, 2, 51, 64
4, 170300, Note_on_c, 2, 51, 0
4, 170300, Note_on_c, 2, 57, 0
4, 170300, Note_on_c, 2, 60, 0
4, 170304, Note_on_c, 2, 60, 64
4, 170304, Note_on_c, 2, 57, 64
4, 170304, Note_on_c, 2, 51, 64
4, 170492, Note_on_c, 2, 51, 0
4, 170492, Note_on_c, 2, 57, 0
4, 170492, Note_on_c, 2, 60, 0
4, 170496, Note_on_c, 2, 42, 64
4, 170688, Note_on_c, 2, 60, 64
4, 170688, Note_on_c, 2, 57, 64
4, 170688, Note_on_c, 2, 50, 64
4, 170876, Note_on_c, 2, 50, 0
4, 170876, Note_on_c, 2, 42, 0
4, 170876, Note_on_c, 2, 60, 0
4, 170876, Note_on_c, 2, 57, 0
4, 170880, Note_on_c, 2, 60, 64
4, 170880, Note_on_c, 2, 57, 64
4, 170880, Note_on_c, 2, 50, 64
4, 171068, Note_on_c, 2, 50, 0
4, 171068, Note_on_c, 2, 57, 0
4, 171068, Note_on_c, 2, 60, 0
4, 171072, Note_on_c, 2, 60, 64
4, 171072, Note_on_c, 2, 57, 64
4, 171072, Note_on_c, 2, 50, 64
4, 171260, Note_on_c, 2, 50, 0
4, 171260, Note_on_c, 2, 57, 0
4, 171260, Note_on_c, 2, 60, 0
4, 171264, Note_on_c, 2, 57, 64
4, 171264, Note_on_c, 2, 50, 64
4, 171264, Note_on_c, 2, 60, 64
4, 171452, Note_on_c, 2, 60, 0
4, 171452, Note_on_c, 2, 50, 0
4, 171452, Note_on_c, 2, 57, 0
4, 171456, Note_on_c, 2, 60, 64
4, 171456, Note_on_c, 2, 57, 64
4, 171456, Note_on_c, 2, 50, 64
4, 171644, Note_on_c, 2, 50, 0
4, 171644, Note_on_c, 2, 57, 0
4, 171644, Note_on_c, 2, 60, 0
4, 171648, Note_on_c, 2, 43, 64
4, 171840, Note_on_c, 2, 58, 64
4, 172028, Note_on_c, 2, 58, 0
4, 172028, Note_on_c, 2, 43, 0
4, 172032, Note_on_c, 2, 63, 64
4, 172032, Note_on_c, 2, 60, 64
4, 172220, Note_on_c, 2, 60, 0
4, 172220, Note_on_c, 2, 63, 0
4, 172224, Note_on_c, 2, 62, 64
4, 172224, Note_on_c, 2, 58, 64
4, 172412, Note_on_c, 2, 58, 0
4, 172412, Note_on_c, 2, 62, 0
4, 172416, Note_on_c, 2, 62, 64
4, 172416, Note_on_c, 2, 58, 64
4, 172508, Note_on_c, 2, 58, 0
4, 172508, Note_on_c, 2, 62, 0
4, 172608, Note_on_c, 2, 62, 64
4, 172608, Note_on_c, 2, 58, 64
4, 172700, Note_on_c, 2, 58, 0
4, 172700, Note_on_c, 2, 62, 0
4, 172992, Note_on_c, 2, 48, 64
4, 173180, Note_on_c, 2, 48, 0
4, 173184, Note_on_c, 2, 46, 64
4, 173372, Note_on_c, 2, 46, 0
4, 173376, Note_on_c, 2, 45, 64
4, 173564, Note_on_c, 2, 45, 0
4, 173568, Note_on_c, 2, 50, 64
4, 173756, Note_on_c, 2, 50, 0
4, 173760, Note_on_c, 2, 48, 64
4, 173948, Note_on_c, 2, 48, 0
4, 173952, Note_on_c, 2, 46, 64
4, 174524, Note_on_c, 2, 46, 0
4, 174528, Note_on_c, 2, 41, 64
4, 175100, Note_on_c, 2, 41, 0
4, 175104, Note_on_c, 2, 40, 64
4, 175676, Note_on_c, 2, 40, 0
4, 175680, Note_on_c, 2, 39, 64
4, 176252, Note_on_c, 2, 39, 0
4, 176256, Note_on_c, 2, 38, 64
4, 176636, Note_on_c, 2, 38, 0
4, 176640, Note_on_c, 2, 42, 64
4, 176828, Note_on_c, 2, 42, 0
4, 176832, Note_on_c, 2, 45, 64
4, 177212, Note_on_c, 2, 45, 0
4, 177216, Note_on_c, 2, 38, 64
4, 177404, Note_on_c, 2, 38, 0
4, 177408, Note_on_c, 2, 37, 64
4, 177788, Note_on_c, 2, 37, 0
4, 178368, Note_on_c, 2, 37, 64
4, 178556, Note_on_c, 2, 37, 0
4, 178560, Note_on_c, 2, 38, 64
4, 178940, Note_on_c, 2, 38, 0
4, 178944, Note_on_c, 2, 42, 64
4, 179132, Note_on_c, 2, 42, 0
4, 179136, Note_on_c, 2, 45, 64
4, 179516, Note_on_c, 2, 45, 0
4, 179520, Note_on_c, 2, 38, 64
4, 179708, Note_on_c, 2, 38, 0
4, 179712, Note_on_c, 2, 39, 64
4, 180092, Note_on_c, 2, 39, 0
4, 180672, Note_on_c, 2, 51, 64
4, 180672, Note_on_c, 2, 39, 64
4, 180860, Note_on_c, 2, 39, 0
4, 180860, Note_on_c, 2, 51, 0
4, 180864, Note_on_c, 2, 50, 64
4, 180864, Note_on_c, 2, 38, 64
4, 181052, Note_on_c, 2, 38, 0
4, 181052, Note_on_c, 2, 50, 0
4, 181248, Note_on_c, 2, 50, 64
4, 181248, Note_on_c, 2, 38, 64
4, 181436, Note_on_c, 2, 38, 0
4, 181436, Note_on_c, 2, 50, 0
4, 181440, Note_on_c, 2, 50, 64
4, 181440, Note_on_c, 2, 38, 64
4, 181628, Note_on_c, 2, 38, 0
4, 181628, Note_on_c, 2, 50, 0
4, 181632, Note_on_c, 2, 50, 64
4, 181632, Note_on_c, 2, 38, 64
4, 181820, Note_on_c, 2, 38, 0
4, 181820, Note_on_c, 2, 50, 0
4, 181824, Note_on_c, 2, 50, 64
4, 181824, Note_on_c, 2, 38, 64
4, 182012, Note_on_c, 2, 38, 0
4, 182012, Note_on_c, 2, 50, 0
4, 182016, Note_on_c, 2, 50, 64
4, 182016, Note_on_c, 2, 38, 64
4, 182204, Note_on_c, 2, 38, 0
4, 182204, Note_on_c, 2, 50, 0
4, 182400, Note_on_c, 2, 62, 93
4, 182400, Note_on_c, 2, 50, 93
4, 182588, Note_on_c, 2, 50, 0
4, 182588, Note_on_c, 2, 62, 0
4, 182592, Note_on_c, 2, 62, 93
4, 182592, Note_on_c, 2, 50, 93
4, 182780, Note_on_c, 2, 50, 0
4, 182780, Note_on_c, 2, 62, 0
4, 182784, Note_on_c, 2, 62, 93
4, 182784, Note_on_c, 2, 50, 93
4, 182972, Note_on_c, 2, 50, 0
4, 182972, Note_on_c, 2, 62, 0
4, 182976, Note_on_c, 2, 62, 93
4, 182976, Note_on_c, 2, 50, 93
4, 183164, Note_on_c, 2, 50, 0
4, 183164, Note_on_c, 2, 62, 0
4, 183168, Note_on_c, 2, 62, 93
4, 183168, Note_on_c, 2, 50, 93
4, 183548, Note_on_c, 2, 50, 0
4, 183548, Note_on_c, 2, 62, 0
4, 184320, Note_on_c, 2, 46, 64
4, 184320, Note_on_c, 2, 34, 64
4, 185468, Note_on_c, 2, 34, 0
4, 185468, Note_on_c, 2, 46, 0
4, 185472, Note_on_c, 2, 51, 64
4, 185472, Note_on_c, 2, 39, 64
4, 185852, Note_on_c, 2, 39, 0
4, 185852, Note_on_c, 2, 51, 0
4, 186624, Note_on_c, 2, 51, 64
4, 186624, Note_on_c, 2, 39, 64
4, 187004, Note_on_c, 2, 39, 0
4, 187004, Note_on_c, 2, 51, 0
4, 187776, Note_on_c, 2, 51, 64
4, 187776, Note_on_c, 2, 39, 64
4, 188156, Note_on_c, 2, 39, 0
4, 188156, Note_on_c, 2, 51, 0
4, 188928, Note_on_c, 2, 46, 64
4, 188928, Note_on_c, 2, 34, 64
4, 189308, Note_on_c, 2, 34, 0
4, 189308, Note_on_c, 2, 46, 0
4, 190080, Note_on_c, 2, 46, 64
4, 190080, Note_on_c, 2, 34, 64
4, 190460, Note_on_c, 2, 34, 0
4, 190460, Note_on_c, 2, 46, 0
4, 191232, Note_on_c, 2, 46, 64
4, 191232, Note_on_c, 2, 34, 64
4, 191612, Note_on_c, 2, 34, 0
4, 191612, Note_on_c, 2, 46, 0
4, 192384, Note_on_c, 2, 46, 64
4, 192384, Note_on_c, 2, 34, 64
4, 192764, Note_on_c, 2, 34, 0
4, 192764, Note_on_c, 2, 46, 0
4, 193536, Note_on_c, 2, 51, 64
4, 193536, Note_on_c, 2, 39, 64
4, 193916, Note_on_c, 2, 39, 0
4, 193916, Note_on_c, 2, 51, 0
4, 194688, Note_on_c, 2, 56, 64
4, 194688, Note_on_c, 2, 44, 64
4, 195068, Note_on_c, 2, 44, 0
4, 195068, Note_on_c, 2, 56, 0
4, 195840, Note_on_c, 2, 62, 64
4, 195840, Note_on_c, 2, 50, 64
4, 196220, Note_on_c, 2, 50, 0
4, 196220, Note_on_c, 2, 62, 0
4, 196992, Note_on_c, 2, 55, 64
4, 196992, Note_on_c, 2, 43, 64
4, 197372, Note_on_c, 2, 43, 0
4, 197372, Note_on_c, 2, 55, 0
4, 198144, Note_on_c, 2, 60, 64
4, 198144, Note_on_c, 2, 48, 64
4, 198524, Note_on_c, 2, 48, 0
4, 198524, Note_on_c, 2, 60, 0
4, 199296, Note_on_c, 2, 53, 64
4, 199296, Note_on_c, 2, 41, 64
4, 199676, Note_on_c, 2, 41, 0
4, 199676, Note_on_c, 2, 53, 0
4, 200448, Note_on_c, 2, 58, 64
4, 200448, Note_on_c, 2, 46, 64
4, 200828, Note_on_c, 2, 46, 0
4, 200828, Note_on_c, 2, 58, 0
4, 201600, Note_on_c, 2, 51, 64
4, 201600, Note_on_c, 2, 39, 64
4, 201788, Note_on_c, 2, 39, 0
4, 201788, Note_on_c, 2, 51, 0
4, 202176, Note_on_c, 2, 51, 64
4, 202176, Note_on_c, 2, 39, 64
4, 202364, Note_on_c, 2, 39, 0
4, 202364, Note_on_c, 2, 51, 0
4, 202752, Note_on_c, 2, 51, 64
4, 202752, Note_on_c, 2, 39, 64
4, 202940, Note_on_c, 2, 39, 0
4, 202940, Note_on_c, 2, 51, 0
4, 203328, Note_on_c, 2, 56, 64
4, 203328, Note_on_c, 2, 44, 64
4, 203516, Note_on_c, 2, 44, 0
4, 203516, Note_on_c, 2, 56, 0
4, 203904, Note_on_c, 2, 58, 64
4, 203904, Note_on_c, 2, 46, 64
4, 204092, Note_on_c, 2, 46, 0
4, 204092, Note_on_c, 2, 58, 0
4, 204480, Note_on_c, 2, 46, 64
4, 204480, Note_on_c, 2, 34, 64
4, 204668, Note_on_c, 2, 34, 0
4, 204668, Note_on_c, 2, 46, 0
4, 205056, Note_on_c, 2, 51, 64
4, 205056, Note_on_c, 2, 39, 64
4, 205244, Note_on_c, 2, 39, 0
4, 205244, Note_on_c, 2, 51, 0
4, 214848, Note_on_c, 2, 53, 93
4, 214848, Note_on_c, 2, 41, 93
4, 214940, Note_on_c, 2, 41, 0
4, 214940, Note_on_c, 2, 53, 0
4, 215040, Note_on_c, 2, 57, 93
4, 215040, Note_on_c, 2, 45, 93
4, 215132, Note_on_c, 2, 45, 0
4, 215132, Note_on_c, 2, 57, 0
4, 215232, Note_on_c, 2, 60, 93
4, 215232, Note_on_c, 2, 48, 93
4, 215324, Note_on_c, 2, 48, 0
4, 215324, Note_on_c, 2, 60, 0
4, 215424, Note_on_c, 2, 53, 93
4, 215424, Note_on_c, 2, 41, 93
4, 215804, Note_on_c, 2, 41, 0
4, 215804, Note_on_c, 2, 53, 0
4, 221184, Note_on_c, 2, 53, 64
4, 221564, Note_on_c, 2, 53, 0
4, 221952, Note_on_c, 2, 53, 64
4, 222044, Note_on_c, 2, 53, 0
4, 222144, Note_on_c, 2, 51, 64
4, 222236, Note_on_c, 2, 51, 0
4, 222336, Note_on_c, 2, 50, 64
4, 222716, Note_on_c, 2, 50, 0
4, 223104, Note_on_c, 2, 62, 64
4, 223196, Note_on_c, 2, 62, 0
4, 223296, Note_on_c, 2, 58, 64
4, 223388, Note_on_c, 2, 58, 0
4, 223488, Note_on_c, 2, 63, 64
4, 223868, Note_on_c, 2, 63, 0
4, 224064, Note_on_c, 2, 63, 64
4, 224252, Note_on_c, 2, 63, 0
4, 224256, Note_on_c, 2, 62, 64
4, 224444, Note_on_c, 2, 62, 0
4, 224448, Note_on_c, 2, 60, 64
4, 224636, Note_on_c, 2, 60, 0
4, 224640, Note_on_c, 2, 65, 64
4, 224828, Note_on_c, 2, 65, 0
4, 224832, Note_on_c, 2, 65, 64
4, 225020, Note_on_c, 2, 65, 0
4, 225024, Note_on_c, 2, 65, 64
4, 225212, Note_on_c, 2, 65, 0
4, 225216, Note_on_c, 2, 65, 64
4, 225404, Note_on_c, 2, 65, 0
4, 225408, Note_on_c, 2, 63, 64
4, 225596, Note_on_c, 2, 63, 0
4, 225600, Note_on_c, 2, 60, 64
4, 225788, Note_on_c, 2, 60, 0
4, 225792, Note_on_c, 2, 58, 64
4, 226172, Note_on_c, 2, 58, 0
4, 236160, Note_on_c, 2, 54, 64
4, 236160, Note_on_c, 2, 51, 64
4, 236732, Note_on_c, 2, 51, 0
4, 236732, Note_on_c, 2, 54, 0
4, 236736, Note_on_c, 2, 58, 64
4, 236780, Note_on_c, 2, 58, 0
4, 236784, Note_on_c, 2, 56, 64
4, 236784, Note_on_c, 2, 53, 64
4, 236928, Note_on_c, 2, 54, 64
4, 236928, Note_on_c, 2, 51, 64
4, 236972, Note_on_c, 2, 53, 0
4, 236972, Note_on_c, 2, 56, 0
4, 237116, Note_on_c, 2, 54, 0
4, 237116, Note_on_c, 2, 51, 0
4, 237120, Note_on_c, 2, 56, 64
4, 237120, Note_on_c, 2, 53, 64
4, 237308, Note_on_c, 2, 53, 0
4, 237308, Note_on_c, 2, 56, 0
4, 237312, Note_on_c, 2, 58, 64
4, 237312, Note_on_c, 2, 54, 64
4, 237884, Note_on_c, 2, 54, 0
4, 237884, Note_on_c, 2, 58, 0
4, 237888, Note_on_c, 2, 56, 64
4, 237888, Note_on_c, 2, 59, 64
4, 238268, Note_on_c, 2, 59, 0
4, 238268, Note_on_c, 2, 56, 0
4, 238272, Note_on_c, 2, 60, 64
4, 238272, Note_on_c, 2, 57, 64
4, 238460, Note_on_c, 2, 57, 0
4, 238460, Note_on_c, 2, 60, 0
4, 238464, Note_on_c, 2, 62, 64
4, 238464, Note_on_c, 2, 58, 64
4, 238844, Note_on_c, 2, 58, 0
4, 238844, Note_on_c, 2, 62, 0
4, 239616, Note_on_c, 2, 51, 64
4, 239616, Note_on_c, 2, 39, 64
4, 239804, Note_on_c, 2, 39, 0
4, 239804, Note_on_c, 2, 51, 0
4, 240192, Note_on_c, 2, 54, 64
4, 240192, Note_on_c, 2, 42, 64
4, 240380, Note_on_c, 2, 42, 0
4, 240380, Note_on_c, 2, 54, 0
4, 240768, Note_on_c, 2, 56, 64
4, 240768, Note_on_c, 2, 44, 64
4, 240956, Note_on_c, 2, 44, 0
4, 240956, Note_on_c, 2, 56, 0
4, 241920, Note_on_c, 2, 49, 64
4, 241920, Note_on_c, 2, 37, 64
4, 242108, Note_on_c, 2, 37, 0
4, 242108, Note_on_c, 2, 49, 0
4, 242496, Note_on_c, 2, 53, 64
4, 242496, Note_on_c, 2, 41, 64
4, 242684, Note_on_c, 2, 41, 0
4, 242684, Note_on_c, 2, 53, 0
4, 243072, Note_on_c, 2, 54, 64
4, 243072, Note_on_c, 2, 42, 64
4, 243260, Note_on_c, 2, 42, 0
4, 243260, Note_on_c, 2, 54, 0
4, 244224, Note_on_c, 2, 48, 64
4, 244224, Note_on_c, 2, 36, 64
4, 244412, Note_on_c, 2, 36, 0
4, 244412, Note_on_c, 2, 48, 0
4, 244800, Note_on_c, 2, 51, 64
4, 244800, Note_on_c, 2, 39, 64
4, 244988, Note_on_c, 2, 39, 0
4, 244988, Note_on_c, 2, 51, 0
4, 245376, Note_on_c, 2, 53, 64
4, 245376, Note_on_c, 2, 41, 64
4, 245564, Note_on_c, 2, 41, 0
4, 245564, Note_on_c, 2, 53, 0
4, 246528, Note_on_c, 2, 58, 64
4, 246908, Note_on_c, 2, 58, 0
4, 246912, Note_on_c, 2, 61, 64
4, 247100, Note_on_c, 2, 61, 0
4, 247104, Note_on_c, 2, 66, 64
4, 247484, Note_on_c, 2, 66, 0
4, 247488, Note_on_c, 2, 58, 64
4, 247676, Note_on_c, 2, 58, 0
4, 247680, Note_on_c, 2, 57, 64
4, 248060, Note_on_c, 2, 57, 0
4, 248064, Note_on_c, 2, 60, 64
4, 248252, Note_on_c, 2, 60, 0
4, 248256, Note_on_c, 2, 65, 64
4, 248636, Note_on_c, 2, 65, 0
4, 248640, Note_on_c, 2, 56, 64
4, 248828, Note_on_c, 2, 56, 0
4, 248832, Note_on_c, 2, 55, 64
4, 249212, Note_on_c, 2, 55, 0
4, 249216, Note_on_c, 2, 58, 64
4, 249404, Note_on_c, 2, 58, 0
4, 249408, Note_on_c, 2, 63, 64
4, 249788, Note_on_c, 2, 63, 0
4, 249792, Note_on_c, 2, 54, 64
4, 249980, Note_on_c, 2, 54, 0
4, 249984, Note_on_c, 2, 53, 64
4, 250364, Note_on_c, 2, 53, 0
4, 253440, Note_on_c, 2, 54, 64
4, 253820, Note_on_c, 2, 54, 0
4, 253824, Note_on_c, 2, 58, 64
4, 254012, Note_on_c, 2, 58, 0
4, 254016, Note_on_c, 2, 63, 64
4, 254396, Note_on_c, 2, 63, 0
4, 254400, Note_on_c, 2, 54, 64
4, 254588, Note_on_c, 2, 54, 0
4, 254592, Note_on_c, 2, 53, 64
4, 254780, Note_on_c, 2, 53, 0
4, 255744, Note_on_c, 2, 51, 64
4, 256320, Note_on_c, 2, 59, 64
4, 256892, Note_on_c, 2, 59, 0
4, 256892, Note_on_c, 2, 51, 0
4, 256896, Note_on_c, 2, 59, 64
4, 256896, Note_on_c, 2, 53, 64
4, 256896, Note_on_c, 2, 50, 64
4, 257276, Note_on_c, 2, 59, 0
4, 257280, Note_on_c, 2, 58, 64
4, 257468, Note_on_c, 2, 58, 0
4, 257468, Note_on_c, 2, 50, 0
4, 257468, Note_on_c, 2, 53, 0
4, 257472, Note_on_c, 2, 53, 64
4, 257472, Note_on_c, 2, 49, 64
4, 257472, Note_on_c, 2, 58, 64
4, 258044, Note_on_c, 2, 58, 0
4, 258044, Note_on_c, 2, 49, 0
4, 258044, Note_on_c, 2, 53, 0
4, 258048, Note_on_c, 2, 36, 64
4, 258428, Note_on_c, 2, 36, 0
4, 258432, Note_on_c, 2, 40, 64
4, 258620, Note_on_c, 2, 40, 0
4, 258624, Note_on_c, 2, 43, 64
4, 259004, Note_on_c, 2, 43, 0
4, 259008, Note_on_c, 2, 40, 64
4, 259196, Note_on_c, 2, 40, 0
4, 259200, Note_on_c, 2, 48, 64
4, 259200, Note_on_c, 2, 36, 64
4, 259388, Note_on_c, 2, 36, 0
4, 259388, Note_on_c, 2, 48, 0
4, 259776, Note_on_c, 2, 48, 64
4, 259776, Note_on_c, 2, 36, 64
4, 259964, Note_on_c, 2, 36, 0
4, 259964, Note_on_c, 2, 48, 0
4, 260352, Note_on_c, 2, 53, 64
4, 260352, Note_on_c, 2, 41, 64
4, 260540, Note_on_c, 2, 41, 0
4, 260540, Note_on_c, 2, 53, 0
4, 260928, Note_on_c, 2, 57, 64
4, 260928, Note_on_c, 2, 45, 64
4, 261116, Note_on_c, 2, 45, 0
4, 261116, Note_on_c, 2, 57, 0
4, 261504, Note_on_c, 2, 55, 64
4, 261504, Note_on_c, 2, 43, 64
4, 261692, Note_on_c, 2, 43, 0
4, 261692, Note_on_c, 2, 55, 0
4, 262080, Note_on_c, 2, 48, 64
4, 262080, Note_on_c, 2, 36, 64
4, 262268, Note_on_c, 2, 36, 0
4, 262268, Note_on_c, 2, 48, 0
4, 262656, Note_on_c, 2, 53, 64
4, 262656, Note_on_c, 2, 41, 64
4, 262844, Note_on_c, 2, 41, 0
4, 262844, Note_on_c, 2, 53, 0
4, 263232, Note_on_c, 2, 57, 64
4, 263232, Note_on_c, 2, 45, 64
4, 263420, Note_on_c, 2, 45, 0
4, 263420, Note_on_c, 2, 57, 0
4, 263808, Note_on_c, 2, 55, 64
4, 263808, Note_on_c, 2, 43, 64
4, 263996, Note_on_c, 2, 43, 0
4, 263996, Note_on_c, 2, 55, 0
4, 264384, Note_on_c, 2, 48, 64
4, 264384, Note_on_c, 2, 36, 64
4, 264572, Note_on_c, 2, 36, 0
4, 264572, Note_on_c, 2, 48, 0
4, 264960, Note_on_c, 2, 53, 64
4, 264960, Note_on_c, 2, 41, 64
4, 265148, Note_on_c, 2, 41, 0
4, 265148, Note_on_c, 2, 53, 0
4, 265152, Note_on_c, 2, 53, 64
4, 265340, Note_on_c, 2, 53, 0
4, 265344, Note_on_c, 2, 53, 64
4, 265532, Note_on_c, 2, 53, 0
4, 265536, Note_on_c, 2, 53, 64
4, 265724, Note_on_c, 2, 53, 0
4, 265728, Note_on_c, 2, 53, 64
4, 265916, Note_on_c, 2, 53, 0
4, 265920, Note_on_c, 2, 53, 64
4, 266108, Note_on_c, 2, 53, 0
4, 266112, Note_on_c, 2, 53, 64
4, 266112, Note_on_c, 2, 41, 64
4, 266300, Note_on_c, 2, 41, 0
4, 266300, Note_on_c, 2, 53, 0
4, 266304, Note_on_c, 2, 53, 64
4, 266304, Note_on_c, 2, 41, 64
4, 266492, Note_on_c, 2, 41, 0
4, 266492, Note_on_c, 2, 53, 0
4, 266496, Note_on_c, 2, 53, 64
4, 266496, Note_on_c, 2, 41, 64
4, 266684, Note_on_c, 2, 41, 0
4, 266684, Note_on_c, 2, 53, 0
4, 266688, Note_on_c, 2, 53, 64
4, 266688, Note_on_c, 2, 41, 64
4, 266876, Note_on_c, 2, 41, 0
4, 266876, Note_on_c, 2, 53, 0
4, 266880, Note_on_c, 2, 53, 64
4, 266880, Note_on_c, 2, 41, 64
4, 267068, Note_on_c, 2, 41, 0
4, 267068, Note_on_c, 2, 53, 0
4, 267072, Note_on_c, 2, 53, 64
4, 267072, Note_on_c, 2, 41, 64
4, 267260, Note_on_c, 2, 41, 0
4, 267260, Note_on_c, 2, 53, 0
4, 267264, Note_on_c, 2, 53, 64
4, 267264, Note_on_c, 2, 41, 64
4, 267644, Note_on_c, 2, 41, 0
4, 267644, Note_on_c, 2, 53, 0
4, 268416, Note_on_c, 2, 53, 64
4, 268796, Note_on_c, 2, 53, 0
4, 268992, Note_on_c, 2, 53, 64
4, 269372, Note_on_c, 2, 53, 0
4, 269568, Note_on_c, 2, 53, 64
4, 269756, Note_on_c, 2, 53, 0
4, 269760, Note_on_c, 2, 53, 64
4, 269948, Note_on_c, 2, 53, 0
4, 269952, Note_on_c, 2, 53, 64
4, 270140, Note_on_c, 2, 53, 0
4, 270144, Note_on_c, 2, 53, 64
4, 270332, Note_on_c, 2, 53, 0
4, 270336, Note_on_c, 2, 53, 64
4, 270524, Note_on_c, 2, 53, 0
4, 270528, Note_on_c, 2, 53, 64
4, 270716, Note_on_c, 2, 53, 0
4, 270720, Note_on_c, 2, 53, 64
4, 270720, Note_on_c, 2, 41, 64
4, 270908, Note_on_c, 2, 41, 0
4, 270908, Note_on_c, 2, 53, 0
4, 270912, Note_on_c, 2, 53, 64
4, 270912, Note_on_c, 2, 41, 64
4, 271100, Note_on_c, 2, 41, 0
4, 271100, Note_on_c, 2, 53, 0
4, 271104, Note_on_c, 2, 53, 64
4, 271104, Note_on_c, 2, 41, 64
4, 271292, Note_on_c, 2, 41, 0
4, 271292, Note_on_c, 2, 53, 0
4, 271296, Note_on_c, 2, 53, 64
4, 271296, Note_on_c, 2, 41, 64
4, 271484, Note_on_c, 2, 41, 0
4, 271484, Note_on_c, 2, 53, 0
4, 271488, Note_on_c, 2, 53, 64
4, 271488, Note_on_c, 2, 41, 64
4, 271676, Note_on_c, 2, 41, 0
4, 271676, Note_on_c, 2, 53, 0
4, 271680, Note_on_c, 2, 53, 64
4, 271680, Note_on_c, 2, 41, 64
4, 271868, Note_on_c, 2, 41, 0
4, 271868, Note_on_c, 2, 53, 0
4, 271872, Note_on_c, 2, 53, 64
4, 271872, Note_on_c, 2, 41, 64
4, 272252, Note_on_c, 2, 41, 0
4, 272252, Note_on_c, 2, 53, 0
4, 273024, Note_on_c, 2, 54, 64
4, 273024, Note_on_c, 2, 42, 64
4, 274172, Note_on_c, 2, 42, 0
4, 274172, Note_on_c, 2, 54, 0
4, 274176, Note_on_c, 2, 53, 64
4, 274176, Note_on_c, 2, 41, 64
4, 274556, Note_on_c, 2, 41, 0
4, 274556, Note_on_c, 2, 53, 0
4, 275904, Note_on_c, 2, 66, 64
4, 276476, Note_on_c, 2, 66, 0
4, 276480, Note_on_c, 2, 65, 64
4, 276668, Note_on_c, 2, 65, 0
4, 278208, Note_on_c, 2, 54, 64
4, 278780, Note_on_c, 2, 54, 0
4, 278784, Note_on_c, 2, 53, 64
4, 278972, Note_on_c, 2, 53, 0
4, 279936, Note_on_c, 2, 54, 64
4, 279936, Note_on_c, 2, 42, 64
4, 282236, Note_on_c, 2, 42, 0
4, 282236, Note_on_c, 2, 54, 0
4, 282240, Note_on_c, 2, 53, 64
4, 282240, Note_on_c, 2, 41, 64
4, 282620, Note_on_c, 2, 41, 0
4, 282620, Note_on_c, 2, 53, 0
4, 283584, Note_on_c, 2, 52, 64
4, 283772, Note_on_c, 2, 52, 0
4, 283776, Note_on_c, 2, 53, 64
4, 283964, Note_on_c, 2, 53, 0
4, 283968, Note_on_c, 2, 54, 64
4, 284156, Note_on_c, 2, 54, 0
4, 284160, Note_on_c, 2, 55, 64
4, 284348, Note_on_c, 2, 55, 0
4, 284352, Note_on_c, 2, 57, 64
4, 284540, Note_on_c, 2, 57, 0
4, 284544, Note_on_c, 2, 58, 64
4, 284924, Note_on_c, 2, 58, 0
4, 285696, Note_on_c, 2, 65, 64
4, 286268, Note_on_c, 2, 65, 0
4, 286272, Note_on_c, 2, 67, 64
4, 286460, Note_on_c, 2, 67, 0
4, 286848, Note_on_c, 2, 63, 64
4, 286940, Note_on_c, 2, 63, 0
4, 287040, Note_on_c, 2, 63, 64
4, 287132, Note_on_c, 2, 63, 0
4, 287424, Note_on_c, 2, 63, 64
4, 287516, Note_on_c, 2, 63, 0
4, 287616, Note_on_c, 2, 63, 64
4, 287708, Note_on_c, 2, 63, 0
4, 288192, Note_on_c, 2, 65, 64
4, 288284, Note_on_c, 2, 65, 0
4, 288384, Note_on_c, 2, 65, 64
4, 288476, Note_on_c, 2, 65, 0
4, 288576, Note_on_c, 2, 65, 64
4, 288764, Note_on_c, 2, 65, 0
4, 290304, Note_on_c, 2, 65, 64
4, 290684, Note_on_c, 2, 65, 0
4, 290688, Note_on_c, 2, 66, 64
4, 290876, Note_on_c, 2, 66, 0
4, 290880, Note_on_c, 2, 67, 64
4, 291068, Note_on_c, 2, 67, 0
4, 291456, Note_on_c, 2, 63, 64
4, 291644, Note_on_c, 2, 63, 0
4, 292608, Note_on_c, 2, 58, 64
4, 292796, Note_on_c, 2, 58, 0
4, 292800, Note_on_c, 2, 58, 64
4, 292988, Note_on_c, 2, 58, 0
4, 292992, Note_on_c, 2, 58, 64
4, 293180, Note_on_c, 2, 58, 0
4, 293184, Note_on_c, 2, 58, 64
4, 293372, Note_on_c, 2, 58, 0
4, 293952, Note_on_c, 2, 58, 69
4, 293952, Note_on_c, 2, 46, 69
4, 294044, Note_on_c, 2, 46, 0
4, 294044, Note_on_c, 2, 58, 0
4, 294144, Note_on_c, 2, 58, 73
4, 294144, Note_on_c, 2, 46, 73
4, 294236, Note_on_c, 2, 46, 0
4, 294236, Note_on_c, 2, 58, 0
4, 294336, Note_on_c, 2, 58, 76
4, 294336, Note_on_c, 2, 46, 76
4, 294428, Note_on_c, 2, 46, 0
4, 294428, Note_on_c, 2, 58, 0
4, 294528, Note_on_c, 2, 58, 80
4, 294528, Note_on_c, 2, 46, 80
4, 294620, Note_on_c, 2, 46, 0
4, 294620, Note_on_c, 2, 58, 0
4, 294720, Note_on_c, 2, 58, 83
4, 294720, Note_on_c, 2, 46, 83
4, 294812, Note_on_c, 2, 46, 0
4, 294812, Note_on_c, 2, 58, 0
4, 294912, Note_on_c, 2, 53, 86
4, 294912, Note_on_c, 2, 41, 86
4, 295484, Note_on_c, 2, 41, 0
4, 295484, Note_on_c, 2, 53, 0
4, 295488, Note_on_c, 2, 55, 86
4, 295488, Note_on_c, 2, 43, 86
4, 295676, Note_on_c, 2, 43, 0
4, 295676, Note_on_c, 2, 55, 0
4, 296256, Note_on_c, 2, 63, 64
4, 296256, Note_on_c, 2, 51, 64
4, 296348, Note_on_c, 2, 51, 0
4, 296348, Note_on_c, 2, 63, 0
4, 296832, Note_on_c, 2, 63, 64
4, 296832, Note_on_c, 2, 51, 64
4, 296924, Note_on_c, 2, 51, 0
4, 296924, Note_on_c, 2, 63, 0
4, 297216, Note_on_c, 2, 65, 64
4, 297216, Note_on_c, 2, 53, 64
4, 297404, Note_on_c, 2, 53, 0
4, 297404, Note_on_c, 2, 65, 0
4, 297408, Note_on_c, 2, 65, 64
4, 297408, Note_on_c, 2, 53, 64
4, 297596, Note_on_c, 2, 53, 0
4, 297596, Note_on_c, 2, 65, 0
4, 297600, Note_on_c, 2, 65, 64
4, 297600, Note_on_c, 2, 53, 64
4, 297788, Note_on_c, 2, 53, 0
4, 297788, Note_on_c, 2, 65, 0
4, 297792, Note_on_c, 2, 65, 64
4, 297792, Note_on_c, 2, 53, 64
4, 297980, Note_on_c, 2, 53, 0
4, 297980, Note_on_c, 2, 65, 0
4, 298560, Note_on_c, 2, 58, 69
4, 298560, Note_on_c, 2, 46, 69
4, 298652, Note_on_c, 2, 46, 0
4, 298652, Note_on_c, 2, 58, 0
4, 298752, Note_on_c, 2, 58, 73
4, 298752, Note_on_c, 2, 46, 73
4, 298844, Note_on_c, 2, 46, 0
4, 298844, Note_on_c, 2, 58, 0
4, 298944, Note_on_c, 2, 58, 76
4, 298944, Note_on_c, 2, 46, 76
4, 299036, Note_on_c, 2, 46, 0
4, 299036, Note_on_c, 2, 58, 0
4, 299136, Note_on_c, 2, 58, 80
4, 299136, Note_on_c, 2, 46, 80
4, 299228, Note_on_c, 2, 46, 0
4, 299228, Note_on_c, 2, 58, 0
4, 299328, Note_on_c, 2, 58, 83
4, 299328, Note_on_c, 2, 46, 83
4, 299420, Note_on_c, 2, 46, 0
4, 299420, Note_on_c, 2, 58, 0
4, 299520, Note_on_c, 2, 53, 86
4, 299520, Note_on_c, 2, 41, 86
4, 299900, Note_on_c, 2, 41, 0
4, 299900, Note_on_c, 2, 53, 0
4, 299904, Note_on_c, 2, 54, 86
4, 299904, Note_on_c, 2, 42, 86
4, 300092, Note_on_c, 2, 42, 0
4, 300092, Note_on_c, 2, 54, 0
4, 300096, Note_on_c, 2, 55, 86
4, 300096, Note_on_c, 2, 43, 86
4, 300284, Note_on_c, 2, 43, 0
4, 300284, Note_on_c, 2, 55, 0
4, 300864, Note_on_c, 2, 51, 64
4, 300864, Note_on_c, 2, 39, 64
4, 300956, Note_on_c, 2, 39, 0
4, 300956, Note_on_c, 2, 51, 0
4, 301440, Note_on_c, 2, 53, 64
4, 301440, Note_on_c, 2, 41, 64
4, 301532, Note_on_c, 2, 41, 0
4, 301532, Note_on_c, 2, 53, 0
4, 301824, Note_on_c, 2, 46, 64
4, 301824, Note_on_c, 2, 34, 64
4, 302012, Note_on_c, 2, 34, 0
4, 302012, Note_on_c, 2, 46, 0
4, 302016, Note_on_c, 2, 46, 64
4, 302016, Note_on_c, 2, 34, 64
4, 302204, Note_on_c, 2, 34, 0
4, 302204, Note_on_c, 2, 46, 0
4, 302208, Note_on_c, 2, 46, 64
4, 302208, Note_on_c, 2, 34, 64
4, 302396, Note_on_c, 2, 34, 0
4, 302396, Note_on_c, 2, 46, 0
4, 302400, Note_on_c, 2, 46, 64
4, 302400, Note_on_c, 2, 34, 64
4, 302588, Note_on_c, 2, 34, 0
4, 302588, Note_on_c, 2, 46, 0
4, 302976, Note_on_c, 2, 53, 64
4, 302976, Note_on_c, 2, 41, 64
4, 304124, Note_on_c, 2, 41, 0
4, 304124, Note_on_c, 2, 53, 0
4, 304128, Note_on_c, 2, 46, 64
4, 304508, Note_on_c, 2, 46, 0
4, 305280, Note_on_c, 2, 60, 64
4, 305280, Note_on_c, 2, 48, 64
4, 306428, Note_on_c, 2, 48, 0
4, 306428, Note_on_c, 2, 60, 0
4, 306432, Note_on_c, 2, 53, 64
4, 306432, Note_on_c, 2, 41, 64
4, 306812, Note_on_c, 2, 41, 0
4, 306812, Note_on_c, 2, 53, 0
4, 307392, Note_on_c, 2, 48, 64
4, 307392, Note_on_c, 2, 36, 64
4, 307484, Note_on_c, 2, 36, 0
4, 307484, Note_on_c, 2, 48, 0
4, 307584, Note_on_c, 2, 53, 64
4, 307584, Note_on_c, 2, 41, 64
4, 307964, Note_on_c, 2, 41, 0
4, 307964, Note_on_c, 2, 53, 0
4, 308544, Note_on_c, 2, 48, 64
4, 308544, Note_on_c, 2, 36, 64
4, 308636, Note_on_c, 2, 36, 0
4, 308636, Note_on_c, 2, 48, 0
4, 308736, Note_on_c, 2, 53, 64
4, 308736, Note_on_c, 2, 41, 64
4, 309116, Note_on_c, 2, 41, 0
4, 309116, Note_on_c, 2, 53, 0
4, 310080, Note_on_c, 2, 63, 64
4, 310268, Note_on_c, 2, 63, 0
4, 310272, Note_on_c, 2, 62, 64
4, 310460, Note_on_c, 2, 62, 0
4, 310464, Note_on_c, 2, 60, 64
4, 310652, Note_on_c, 2, 60, 0
4, 310656, Note_on_c, 2, 58, 64
4, 310844, Note_on_c, 2, 58, 0
4, 310848, Note_on_c, 2, 57, 64
4, 311036, Note_on_c, 2, 57, 0
4, 311040, Note_on_c, 2, 58, 64
4, 311420, Note_on_c, 2, 58, 0
4, 312192, Note_on_c, 2, 65, 64
4, 312764, Note_on_c, 2, 65, 0
4, 312768, Note_on_c, 2, 67, 64
4, 312956, Note_on_c, 2, 67, 0
4, 313344, Note_on_c, 2, 63, 64
4, 313436, Note_on_c, 2, 63, 0
4, 313536, Note_on_c, 2, 63, 64
4, 313628, Note_on_c, 2, 63, 0
4, 313920, Note_on_c, 2, 63, 64
4, 314012, Note_on_c, 2, 63, 0
4, 314112, Note_on_c, 2, 63, 64
4, 314204, Note_on_c, 2, 63, 0
4, 314688, Note_on_c, 2, 65, 64
4, 314780, Note_on_c, 2, 65, 0
4, 314880, Note_on_c, 2, 65, 64
4, 314972, Note_on_c, 2, 65, 0
4, 315072, Note_on_c, 2, 65, 64
4, 315260, Note_on_c, 2, 65, 0
4, 316800, Note_on_c, 2, 65, 64
4, 317180, Note_on_c, 2, 65, 0
4, 317184, Note_on_c, 2, 66, 64
4, 317372, Note_on_c, 2, 66, 0
4, 317376, Note_on_c, 2, 67, 64
4, 317564, Note_on_c, 2, 67, 0
4, 317952, Note_on_c, 2, 63, 64
4, 318140, Note_on_c, 2, 63, 0
4, 318528, Note_on_c, 2, 53, 64
4, 318716, Note_on_c, 2, 53, 0
4, 319104, Note_on_c, 2, 58, 69
4, 319484, Note_on_c, 2, 58, 0
4, 320256, Note_on_c, 2, 57, 72
4, 320256, Note_on_c, 2, 53, 72
4, 320636, Note_on_c, 2, 53, 0
4, 320636, Note_on_c, 2, 57, 0
4, 321408, Note_on_c, 2, 58, 65
4, 321788, Note_on_c, 2, 58, 0
4, 322560, Note_on_c, 2, 58, 76
4, 322560, Note_on_c, 2, 60, 76
4, 322940, Note_on_c, 2, 60, 0
4, 322940, Note_on_c, 2, 58, 0
4, 323712, Note_on_c, 2, 62, 87
4, 323712, Note_on_c, 2, 58, 87
4, 324092, Note_on_c, 2, 58, 0
4, 324092, Note_on_c, 2, 62, 0
4, 324864, Note_on_c, 2, 62, 64
4, 326012, Note_on_c, 2, 62, 0
4, 326016, Note_on_c, 2, 63, 64
4, 327164, Note_on_c, 2, 63, 0
4, 327168, Note_on_c, 2, 65, 64
4, 327548, Note_on_c, 2, 65, 0
4, 327744, Note_on_c, 2, 65, 64
4, 328124, Note_on_c, 2, 65, 0
4, 328320, Note_on_c, 2, 66, 64
4, 328412, Note_on_c, 2, 66, 0
4, 328512, Note_on_c, 2, 66, 64
4, 328604, Note_on_c, 2, 66, 0
4, 328704, Note_on_c, 2, 66, 64
4, 328796, Note_on_c, 2, 66, 0
4, 328896, Note_on_c, 2, 67, 64
4, 329084, Note_on_c, 2, 67, 0
4, 329472, Note_on_c, 2, 50, 86
4, 329564, Note_on_c, 2, 50, 0
4, 329568, Note_on_c, 2, 58, 86
4, 329660, Note_on_c, 2, 58, 0
4, 329664, Note_on_c, 2, 53, 86
4, 329756, Note_on_c, 2, 53, 0
4, 329760, Note_on_c, 2, 58, 86
4, 329852, Note_on_c, 2, 58, 0
4, 329856, Note_on_c, 2, 53, 86
4, 329948, Note_on_c, 2, 53, 0
4, 329952, Note_on_c, 2, 58, 86
4, 330044, Note_on_c, 2, 58, 0
4, 330048, Note_on_c, 2, 50, 86
4, 330140, Note_on_c, 2, 50, 0
4, 330144, Note_on_c, 2, 58, 86
4, 330236, Note_on_c, 2, 58, 0
4, 330240, Note_on_c, 2, 53, 86
4, 330332, Note_on_c, 2, 53, 0
4, 330336, Note_on_c, 2, 58, 86
4, 330428, Note_on_c, 2, 58, 0
4, 330432, Note_on_c, 2, 53, 86
4, 330524, Note_on_c, 2, 53, 0
4, 330528, Note_on_c, 2, 58, 86
4, 330620, Note_on_c, 2, 58, 0
4, 330624, Note_on_c, 2, 51, 86
4, 330716, Note_on_c, 2, 51, 0
4, 330720, Note_on_c, 2, 58, 86
4, 330812, Note_on_c, 2, 58, 0
4, 330816, Note_on_c, 2, 55, 86
4, 330908, Note_on_c, 2, 55, 0
4, 330912, Note_on_c, 2, 58, 86
4, 331004, Note_on_c, 2, 58, 0
4, 331008, Note_on_c, 2, 55, 86
4, 331100, Note_on_c, 2, 55, 0
4, 331104, Note_on_c, 2, 58, 86
4, 331196, Note_on_c, 2, 58, 0
4, 331200, Note_on_c, 2, 51, 86
4, 331292, Note_on_c, 2, 51, 0
4, 331296, Note_on_c, 2, 58, 86
4, 331388, Note_on_c, 2, 58, 0
4, 331392, Note_on_c, 2, 55, 86
4, 331484, Note_on_c, 2, 55, 0
4, 331488, Note_on_c, 2, 58, 86
4, 331580, Note_on_c, 2, 58, 0
4, 331584, Note_on_c, 2, 55, 86
4, 331676, Note_on_c, 2, 55, 0
4, 331680, Note_on_c, 2, 58, 86
4, 331772, Note_on_c, 2, 58, 0
4, 331776, Note_on_c, 2, 65, 86
4, 331776, Note_on_c, 2, 53, 86
4, 331964, Note_on_c, 2, 53, 0
4, 331964, Note_on_c, 2, 65, 0
4, 331968, Note_on_c, 2, 65, 86
4, 331968, Note_on_c, 2, 53, 86
4, 332156, Note_on_c, 2, 53, 0
4, 332156, Note_on_c, 2, 65, 0
4, 332160, Note_on_c, 2, 65, 86
4, 332160, Note_on_c, 2, 53, 86
4, 332348, Note_on_c, 2, 53, 0
4, 332348, Note_on_c, 2, 65, 0
4, 332352, Note_on_c, 2, 65, 86
4, 332352, Note_on_c, 2, 53, 86
4, 332540, Note_on_c, 2, 53, 0
4, 332540, Note_on_c, 2, 65, 0
4, 332544, Note_on_c, 2, 65, 86
4, 332544, Note_on_c, 2, 53, 86
4, 332732, Note_on_c, 2, 53, 0
4, 332732, Note_on_c, 2, 65, 0
4, 332736, Note_on_c, 2, 65, 86
4, 332736, Note_on_c, 2, 53, 86
4, 332924, Note_on_c, 2, 53, 0
4, 332924, Note_on_c, 2, 65, 0
4, 332928, Note_on_c, 2, 58, 86
4, 332928, Note_on_c, 2, 62, 86
4, 333308, Note_on_c, 2, 62, 0
4, 333308, Note_on_c, 2, 58, 0
4, 334080, Note_on_c, 2, 65, 64
4, 334652, Note_on_c, 2, 65, 0
4, 334656, Note_on_c, 2, 66, 64
4, 335228, Note_on_c, 2, 66, 0
4, 335232, Note_on_c, 2, 67, 64
4, 335420, Note_on_c, 2, 67, 0
4, 335808, Note_on_c, 2, 63, 64
4, 335996, Note_on_c, 2, 63, 0
4, 336384, Note_on_c, 2, 53, 64
4, 337532, Note_on_c, 2, 53, 0
4, 337536, Note_on_c, 2, 58, 64
4, 337916, Note_on_c, 2, 58, 0
4, 338688, Note_on_c, 2, 65, 64
4, 339836, Note_on_c, 2, 65, 0
4, 339840, Note_on_c, 2, 58, 64
4, 340028, Note_on_c, 2, 58, 0
4, 340416, Note_on_c, 2, 63, 64
4, 340604, Note_on_c, 2, 63, 0
4, 340992, Note_on_c, 2, 65, 64
4, 341180, Note_on_c, 2, 65, 0
4, 341568, Note_on_c, 2, 53, 64
4, 341756, Note_on_c, 2, 53, 0
4, 341760, Note_on_c, 2, 53, 64
4, 341948, Note_on_c, 2, 53, 0
4, 341952, Note_on_c, 2, 53, 64
4, 342140, Note_on_c, 2, 53, 0
4, 342144, Note_on_c, 2, 46, 86
4, 342144, Note_on_c, 2, 34, 86
4, 342332, Note_on_c, 2, 34, 0
4, 342332, Note_on_c, 2, 46, 0
4, 342336, Note_on_c, 2, 58, 86
4, 342336, Note_on_c, 2, 46, 86
4, 342524, Note_on_c, 2, 46, 0
4, 342524, Note_on_c, 2, 58, 0
4, 342528, Note_on_c, 2, 58, 86
4, 342528, Note_on_c, 2, 46, 86
4, 342716, Note_on_c, 2, 46, 0
4, 342716, Note_on_c, 2, 58, 0
4, 342720, Note_on_c, 2, 50, 86
4, 342720, Note_on_c, 2, 62, 86
4, 343100, Note_on_c, 2, 62, 0
4, 343100, Note_on_c, 2, 50, 0
4, 343104, Note_on_c, 2, 58, 86
4, 343104, Note_on_c, 2, 46, 86
4, 343292, Note_on_c, 2, 46, 0
4, 343292, Note_on_c, 2, 58, 0
4, 343296, Note_on_c, 2, 53, 86
4, 343296, Note_on_c, 2, 41, 86
4, 343484, Note_on_c, 2, 41, 0
4, 343484, Note_on_c, 2, 53, 0
4, 343488, Note_on_c, 2, 53, 86
4, 343488, Note_on_c, 2, 41, 86
4, 343676, Note_on_c, 2, 41, 0
4, 343676, Note_on_c, 2, 53, 0
4, 343680, Note_on_c, 2, 53, 86
4, 343680, Note_on_c, 2, 41, 86
4, 343868, Note_on_c, 2, 41, 0
4, 343868, Note_on_c, 2, 53, 0
4, 343872, Note_on_c, 2, 53, 86
4, 343872, Note_on_c, 2, 41, 86
4, 344060, Note_on_c, 2, 41, 0
4, 344060, Note_on_c, 2, 53, 0
4, 344064, Note_on_c, 2, 53, 86
4, 344064, Note_on_c, 2, 41, 86
4, 344252, Note_on_c, 2, 41, 0
4, 344252, Note_on_c, 2, 53, 0
4, 344256, Note_on_c, 2, 53, 86
4, 344256, Note_on_c, 2, 41, 86
4, 344444, Note_on_c, 2, 41, 0
4, 344444, Note_on_c, 2, 53, 0
4, 344448, Note_on_c, 2, 46, 86
4, 344448, Note_on_c, 2, 34, 86
4, 344636, Note_on_c, 2, 34, 0
4, 344636, Note_on_c, 2, 46, 0
4, 344640, Note_on_c, 2, 58, 86
4, 344640, Note_on_c, 2, 46, 86
4, 344828, Note_on_c, 2, 46, 0
4, 344828, Note_on_c, 2, 58, 0
4, 344832, Note_on_c, 2, 58, 86
4, 344832, Note_on_c, 2, 46, 86
4, 345020, Note_on_c, 2, 46, 0
4, 345020, Note_on_c, 2, 58, 0
4, 345024, Note_on_c, 2, 62, 86
4, 345024, Note_on_c, 2, 50, 86
4, 345404, Note_on_c, 2, 50, 0
4, 345404, Note_on_c, 2, 62, 0
4, 345408, Note_on_c, 2, 58, 86
4, 345408, Note_on_c, 2, 46, 86
4, 345596, Note_on_c, 2, 46, 0
4, 345596, Note_on_c, 2, 58, 0
4, 345600, Note_on_c, 2, 53, 86
4, 345600, Note_on_c, 2, 41, 86
4, 345788, Note_on_c, 2, 41, 0
4, 345788, Note_on_c, 2, 53, 0
4, 345792, Note_on_c, 2, 53, 86
4, 345792, Note_on_c, 2, 41, 86
4, 345980, Note_on_c, 2, 41, 0
4, 345980, Note_on_c, 2, 53, 0
4, 345984, Note_on_c, 2, 53, 86
4, 345984, Note_on_c, 2, 41, 86
4, 346172, Note_on_c, 2, 41, 0
4, 346172, Note_on_c, 2, 53, 0
4, 346176, Note_on_c, 2, 53, 86
4, 346176, Note_on_c, 2, 41, 86
4, 346364, Note_on_c, 2, 41, 0
4, 346364, Note_on_c, 2, 53, 0
4, 346368, Note_on_c, 2, 53, 86
4, 346368, Note_on_c, 2, 41, 86
4, 346556, Note_on_c, 2, 41, 0
4, 346556, Note_on_c, 2, 53, 0
4, 346560, Note_on_c, 2, 53, 86
4, 346560, Note_on_c, 2, 41, 86
4, 346748, Note_on_c, 2, 41, 0
4, 346748, Note_on_c, 2, 53, 0
4, 346752, Note_on_c, 2, 46, 64
4, 346752, Note_on_c, 2, 34, 64
4, 347132, Note_on_c, 2, 34, 0
4, 347132, Note_on_c, 2, 46, 0
4, 347328, Note_on_c, 2, 46, 64
4, 347328, Note_on_c, 2, 34, 64
4, 347708, Note_on_c, 2, 34, 0
4, 347708, Note_on_c, 2, 46, 0
4, 347904, Note_on_c, 2, 46, 64
4, 347904, Note_on_c, 2, 34, 64
4, 348284, Note_on_c, 2, 34, 0
4, 348284, Note_on_c, 2, 46, 0
4, 348480, Note_on_c, 2, 34, 64
4, 348480, Note_on_c, 2, 46, 64
4, 348860, Note_on_c, 2, 46, 0
4, 348860, Note_on_c, 2, 34, 0
4, 349056, Note_on_c, 2, 46, 64
4, 349056, Note_on_c, 2, 34, 64
4, 349436, Note_on_c, 2, 34, 0
4, 349436, Note_on_c, 2, 46, 0
4, 349632, Note_on_c, 2, 46, 64
4, 349632, Note_on_c, 2, 34, 64
4, 350012, Note_on_c, 2, 34, 0
4, 350012, Note_on_c, 2, 46, 0
4, 350208, Note_on_c, 2, 46, 64
4, 350208, Note_on_c, 2, 34, 64
4, 350588, Note_on_c, 2, 34, 0
4, 350588, Note_on_c, 2, 46, 0
4, 350784, Note_on_c, 2, 34, 64
4, 350784, Note_on_c, 2, 46, 64
4, 351164, Note_on_c, 2, 46, 0
4, 351164, Note_on_c, 2, 34, 0
4, 351360, Note_on_c, 2, 46, 64
4, 351360, Note_on_c, 2, 34, 64
4, 351740, Note_on_c, 2, 34, 0
4, 351740, Note_on_c, 2, 46, 0
4, 351936, Note_on_c, 2, 46, 64
4, 351936, Note_on_c, 2, 58, 64
4, 352316, Note_on_c, 2, 58, 0
4, 352316, Note_on_c, 2, 46, 0
4, 352512, Note_on_c, 2, 58, 64
4, 352512, Note_on_c, 2, 46, 64
4, 352892, Note_on_c, 2, 46, 0
4, 352892, Note_on_c, 2, 58, 0
4, 353088, Note_on_c, 2, 58, 64
4, 353088, Note_on_c, 2, 46, 64
4, 353468, Note_on_c, 2, 46, 0
4, 353468, Note_on_c, 2, 58, 0
4, 353664, Note_on_c, 2, 58, 86
4, 353664, Note_on_c, 2, 46, 86
4, 353756, Note_on_c, 2, 46, 0
4, 353756, Note_on_c, 2, 58, 0
4, 353856, Note_on_c, 2, 58, 86
4, 353856, Note_on_c, 2, 53, 86
4, 353856, Note_on_c, 2, 50, 86
4, 353948, Note_on_c, 2, 50, 0
4, 353948, Note_on_c, 2, 53, 0
4, 353948, Note_on_c, 2, 58, 0
4, 354048, Note_on_c, 2, 57, 86
4, 354048, Note_on_c, 2, 51, 86
4, 354048, Note_on_c, 2, 48, 86
4, 354140, Note_on_c, 2, 48, 0
4, 354140, Note_on_c, 2, 51, 0
4, 354140, Note_on_c, 2, 57, 0
4, 354240, Note_on_c, 2, 58, 86
4, 354240, Note_on_c, 2, 50, 86
4, 354240, Note_on_c, 2, 46, 86
4, 354332, Note_on_c, 2, 46, 0
4, 354332, Note_on_c, 2, 50, 0
4, 354332, Note_on_c, 2, 58, 0
4, 354816, Note_on_c, 2, 48, 64
4, 355196, Note_on_c, 2, 48, 0
4, 355392, Note_on_c, 2, 41, 64
4, 355772, Note_on_c, 2, 41, 0
4, 355968, Note_on_c, 2, 58, 86
4, 355968, Note_on_c, 2, 46, 86
4, 356156, Note_on_c, 2, 46, 0
4, 356156, Note_on_c, 2, 58, 0
4, 356160, Note_on_c, 2, 58, 86
4, 356160, Note_on_c, 2, 53, 86
4, 356160, Note_on_c, 2, 50, 86
4, 356348, Note_on_c, 2, 50, 0
4, 356348, Note_on_c, 2, 53, 0
4, 356348, Note_on_c, 2, 58, 0
4, 356352, Note_on_c, 2, 57, 86
4, 356352, Note_on_c, 2, 51, 86
4, 356352, Note_on_c, 2, 48, 86
4, 356540, Note_on_c, 2, 48, 0
4, 356540, Note_on_c, 2, 51, 0
4, 356540, Note_on_c, 2, 57, 0
4, 356544, Note_on_c, 2, 58, 86
4, 356544, Note_on_c, 2, 50, 86
4, 356544, Note_on_c, 2, 46, 86
4, 356732, Note_on_c, 2, 46, 0
4, 356732, Note_on_c, 2, 50, 0
4, 356732, Note_on_c, 2, 58, 0
4, 357120, Note_on_c, 2, 53, 86
4, 357500, Note_on_c, 2, 53, 0
4, 357696, Note_on_c, 2, 41, 86
4, 358076, Note_on_c, 2, 41, 0
4, 358272, Note_on_c, 2, 58, 86
4, 358272, Note_on_c, 2, 53, 86
4, 358272, Note_on_c, 2, 46, 86
4, 358460, Note_on_c, 2, 46, 0
4, 358460, Note_on_c, 2, 53, 0
4, 358460, Note_on_c, 2, 58, 0
4, 362880, Note_on_c, 2, 46, 86
4, 363260, Note_on_c, 2, 46, 0
4, 364032, Note_on_c, 2, 51, 86
4, 364412, Note_on_c, 2, 51, 0
4, 365184, Note_on_c, 2, 52, 86
4, 365756, Note_on_c, 2, 52, 0
4, 365760, Note_on_c, 2, 55, 86
4, 366332, Note_on_c, 2, 55, 0
4, 366336, Note_on_c, 2, 53, 86
4, 366524, Note_on_c, 2, 53, 0
4, 366528, Note_on_c, 2, 53, 86
4, 366716, Note_on_c, 2, 53, 0
4, 366720, Note_on_c, 2, 53, 86
4, 366908, Note_on_c, 2, 53, 0
4, 366912, Note_on_c, 2, 53, 86
4, 367100, Note_on_c, 2, 53, 0
4, 367488, Note_on_c, 2, 53, 86
4, 367676, Note_on_c, 2, 53, 0
4, 368064, Note_on_c, 2, 53, 86
4, 368252, Note_on_c, 2, 53, 0
4, 368640, Note_on_c, 2, 53, 86
4, 369020, Note_on_c, 2, 53, 0
4, 369792, Note_on_c, 2, 57, 86
4, 369792, Note_on_c, 2, 53, 86
4, 369980, Note_on_c, 2, 53, 0
4, 369980, Note_on_c, 2, 57, 0
4, 369984, Note_on_c, 2, 57, 86
4, 369984, Note_on_c, 2, 53, 86
4, 370172, Note_on_c, 2, 53, 0
4, 370172, Note_on_c, 2, 57, 0
4, 370176, Note_on_c, 2, 57, 86
4, 370176, Note_on_c, 2, 53, 86
4, 370364, Note_on_c, 2, 53, 0
4, 370364, Note_on_c, 2, 57, 0
4, 370368, Note_on_c, 2, 57, 86
4, 370368, Note_on_c, 2, 53, 86
4, 370556, Note_on_c, 2, 53, 0
4, 370556, Note_on_c, 2, 57, 0
4, 370560, Note_on_c, 2, 57, 86
4, 370560, Note_on_c, 2, 53, 86
4, 370748, Note_on_c, 2, 53, 0
4, 370748, Note_on_c, 2, 57, 0
4, 370752, Note_on_c, 2, 57, 86
4, 370752, Note_on_c, 2, 53, 86
4, 370940, Note_on_c, 2, 53, 0
4, 370940, Note_on_c, 2, 57, 0
4, 370944, Note_on_c, 2, 58, 86
4, 370944, Note_on_c, 2, 46, 86
4, 371324, Note_on_c, 2, 46, 0
4, 371324, Note_on_c, 2, 58, 0
4, 376704, Note_on_c, 2, 50, 86
4, 377852, Note_on_c, 2, 50, 0
4, 378048, Note_on_c, 2, 51, 86
4, 378236, Note_on_c, 2, 51, 0
4, 378240, Note_on_c, 2, 51, 86
4, 378428, Note_on_c, 2, 51, 0
4, 378432, Note_on_c, 2, 51, 86
4, 378620, Note_on_c, 2, 51, 0
4, 378624, Note_on_c, 2, 51, 86
4, 378812, Note_on_c, 2, 51, 0
4, 378816, Note_on_c, 2, 51, 86
4, 379004, Note_on_c, 2, 51, 0
4, 379008, Note_on_c, 2, 51, 86
4, 379100, Note_on_c, 2, 51, 0
4, 379392, Note_on_c, 2, 53, 86
4, 379484, Note_on_c, 2, 53, 0
4, 379584, Note_on_c, 2, 55, 86
4, 379676, Note_on_c, 2, 55, 0
4, 379968, Note_on_c, 2, 52, 86
4, 380060, Note_on_c, 2, 52, 0
4, 380160, Note_on_c, 2, 53, 86
4, 380348, Note_on_c, 2, 53, 0
4, 380352, Note_on_c, 2, 53, 86
4, 380540, Note_on_c, 2, 53, 0
4, 380544, Note_on_c, 2, 53, 86
4, 380732, Note_on_c, 2, 53, 0
4, 380736, Note_on_c, 2, 53, 86
4, 380924, Note_on_c, 2, 53, 0
4, 381312, Note_on_c, 2, 53, 86
4, 381500, Note_on_c, 2, 53, 0
4, 381504, Note_on_c, 2, 53, 86
4, 381692, Note_on_c, 2, 53, 0
4, 381696, Note_on_c, 2, 53, 86
4, 381884, Note_on_c, 2, 53, 0
4, 381888, Note_on_c, 2, 53, 86
4, 382076, Note_on_c, 2, 53, 0
4, 382464, Note_on_c, 2, 53, 86
4, 382652, Note_on_c, 2, 53, 0
4, 383040, Note_on_c, 2, 53, 86
4, 383228, Note_on_c, 2, 53, 0
4, 383616, Note_on_c, 2, 53, 86
4, 383996, Note_on_c, 2, 53, 0
4, 392832, Note_on_c, 2, 58, 64
4, 392832, Note_on_c, 2, 50, 64
4, 393980, Note_on_c, 2, 50, 0
4, 393980, Note_on_c, 2, 58, 0
4, 393984, Note_on_c, 2, 51, 64
4, 394172, Note_on_c, 2, 51, 0
4, 394560, Note_on_c, 2, 53, 64
4, 394748, Note_on_c, 2, 53, 0
4, 395136, Note_on_c, 2, 58, 64
4, 395136, Note_on_c, 2, 50, 64
4, 396284, Note_on_c, 2, 50, 0
4, 396284, Note_on_c, 2, 58, 0
4, 396288, Note_on_c, 2, 51, 65
4, 396288, Note_on_c, 2, 39, 65
4, 396476, Note_on_c, 2, 39, 0
4, 396476, Note_on_c, 2, 51, 0
4, 396480, Note_on_c, 2, 51, 66
4, 396480, Note_on_c, 2, 39, 66
4, 396668, Note_on_c, 2, 39, 0
4, 396668, Note_on_c, 2, 51, 0
4, 396672, Note_on_c, 2, 51, 69
4, 396672, Note_on_c, 2, 39, 69
4, 396860, Note_on_c, 2, 39, 0
4, 396860, Note_on_c, 2, 51, 0
4, 396864, Note_on_c, 2, 51, 71
4, 396864, Note_on_c, 2, 39, 71
4, 397052, Note_on_c, 2, 39, 0
4, 397052, Note_on_c, 2, 51, 0
4, 397056, Note_on_c, 2, 51, 73
4, 397056, Note_on_c, 2, 39, 73
4, 397244, Note_on_c, 2, 39, 0
4, 397244, Note_on_c, 2, 51, 0
4, 397248, Note_on_c, 2, 51, 74
4, 397248, Note_on_c, 2, 39, 74
4, 397436, Note_on_c, 2, 39, 0
4, 397436, Note_on_c, 2, 51, 0
4, 397440, Note_on_c, 2, 53, 76
4, 397440, Note_on_c, 2, 41, 76
4, 397628, Note_on_c, 2, 41, 0
4, 397628, Note_on_c, 2, 53, 0
4, 397632, Note_on_c, 2, 53, 78
4, 397632, Note_on_c, 2, 41, 78
4, 397820, Note_on_c, 2, 41, 0
4, 397820, Note_on_c, 2, 53, 0
4, 397824, Note_on_c, 2, 53, 80
4, 397824, Note_on_c, 2, 41, 80
4, 398012, Note_on_c, 2, 41, 0
4, 398012, Note_on_c, 2, 53, 0
4, 398016, Note_on_c, 2, 53, 81
4, 398016, Note_on_c, 2, 41, 81
4, 398204, Note_on_c, 2, 41, 0
4, 398204, Note_on_c, 2, 53, 0
4, 398208, Note_on_c, 2, 53, 83
4, 398208, Note_on_c, 2, 41, 83
4, 398396, Note_on_c, 2, 41, 0
4, 398396, Note_on_c, 2, 53, 0
4, 398400, Note_on_c, 2, 53, 84
4, 398400, Note_on_c, 2, 41, 84
4, 398588, Note_on_c, 2, 41, 0
4, 398588, Note_on_c, 2, 53, 0
4, 398592, Note_on_c, 2, 46, 86
4, 398592, Note_on_c, 2, 34, 86
4, 398780, Note_on_c, 2, 34, 0
4, 398780, Note_on_c, 2, 46, 0
4, 398784, Note_on_c, 2, 58, 86
4, 398784, Note_on_c, 2, 46, 86
4, 398972, Note_on_c, 2, 46, 0
4, 398972, Note_on_c, 2, 58, 0
4, 398976, Note_on_c, 2, 58, 86
4, 398976, Note_on_c, 2, 46, 86
4, 399164, Note_on_c, 2, 46, 0
4, 399164, Note_on_c, 2, 58, 0
4, 399168, Note_on_c, 2, 62, 86
4, 399168, Note_on_c, 2, 50, 86
4, 399548, Note_on_c, 2, 50, 0
4, 399548, Note_on_c, 2, 62, 0
4, 399552, Note_on_c, 2, 58, 86
4, 399552, Note_on_c, 2, 46, 86
4, 399740, Note_on_c, 2, 46, 0
4, 399740, Note_on_c, 2, 58, 0
4, 399744, Note_on_c, 2, 53, 86
4, 399744, Note_on_c, 2, 41, 86
4, 399932, Note_on_c, 2, 41, 0
4, 399932, Note_on_c, 2, 53, 0
4, 399936, Note_on_c, 2, 53, 86
4, 399936, Note_on_c, 2, 41, 86
4, 400124, Note_on_c, 2, 41, 0
4, 400124, Note_on_c, 2, 53, 0
4, 400128, Note_on_c, 2, 41, 86
4, 400128, Note_on_c, 2, 53, 86
4, 400316, Note_on_c, 2, 53, 0
4, 400316, Note_on_c, 2, 41, 0
4, 400320, Note_on_c, 2, 53, 86
4, 400320, Note_on_c, 2, 41, 86
4, 400508, Note_on_c, 2, 41, 0
4, 400508, Note_on_c, 2, 53, 0
4, 400512, Note_on_c, 2, 53, 86
4, 400512, Note_on_c, 2, 41, 86
4, 400700, Note_on_c, 2, 41, 0
4, 400700, Note_on_c, 2, 53, 0
4, 400704, Note_on_c, 2, 53, 86
4, 400704, Note_on_c, 2, 41, 86
4, 400892, Note_on_c, 2, 41, 0
4, 400892, Note_on_c, 2, 53, 0
4, 400896, Note_on_c, 2, 46, 86
4, 400896, Note_on_c, 2, 34, 86
4, 401084, Note_on_c, 2, 34, 0
4, 401084, Note_on_c, 2, 46, 0
4, 401088, Note_on_c, 2, 58, 86
4, 401088, Note_on_c, 2, 46, 86
4, 401276, Note_on_c, 2, 46, 0
4, 401276, Note_on_c, 2, 58, 0
4, 401280, Note_on_c, 2, 58, 86
4, 401280, Note_on_c, 2, 46, 86
4, 401468, Note_on_c, 2, 46, 0
4, 401468, Note_on_c, 2, 58, 0
4, 401472, Note_on_c, 2, 62, 86
4, 401472, Note_on_c, 2, 50, 86
4, 401852, Note_on_c, 2, 50, 0
4, 401852, Note_on_c, 2, 62, 0
4, 401856, Note_on_c, 2, 58, 86
4, 401856, Note_on_c, 2, 46, 86
4, 402044, Note_on_c, 2, 46, 0
4, 402044, Note_on_c, 2, 58, 0
4, 402048, Note_on_c, 2, 53, 86
4, 402048, Note_on_c, 2, 41, 86
4, 402236, Note_on_c, 2, 41, 0
4, 402236, Note_on_c, 2, 53, 0
4, 402240, Note_on_c, 2, 53, 86
4, 402240, Note_on_c, 2, 41, 86
4, 402428, Note_on_c, 2, 41, 0
4, 402428, Note_on_c, 2, 53, 0
4, 402432, Note_on_c, 2, 53, 86
4, 402432, Note_on_c, 2, 41, 86
4, 402620, Note_on_c, 2, 41, 0
4, 402620, Note_on_c, 2, 53, 0
4, 402624, Note_on_c, 2, 53, 86
4, 402624, Note_on_c, 2, 41, 86
4, 402812, Note_on_c, 2, 41, 0
4, 402812, Note_on_c, 2, 53, 0
4, 402816, Note_on_c, 2, 53, 86
4, 402816, Note_on_c, 2, 41, 86
4, 403004, Note_on_c, 2, 41, 0
4, 403004, Note_on_c, 2, 53, 0
4, 403008, Note_on_c, 2, 53, 86
4, 403008, Note_on_c, 2, 41, 86
4, 403196, Note_on_c, 2, 41, 0
4, 403196, Note_on_c, 2, 53, 0
4, 403200, Note_on_c, 2, 46, 86
4, 403200, Note_on_c, 2, 34, 86
4, 403580, Note_on_c, 2, 34, 0
4, 403580, Note_on_c, 2, 46, 0
4, 404160, Note_on_c, 2, 65, 86
4, 404252, Note_on_c, 2, 65, 0
4, 404352, Note_on_c, 2, 58, 86
4, 404444, Note_on_c, 2, 58, 0
4, 404544, Note_on_c, 2, 62, 86
4, 404636, Note_on_c, 2, 62, 0
4, 404736, Note_on_c, 2, 53, 86
4, 404828, Note_on_c, 2, 53, 0
4, 404928, Note_on_c, 2, 58, 86
4, 405020, Note_on_c, 2, 58, 0
4, 405120, Note_on_c, 2, 50, 86
4, 405212, Note_on_c, 2, 50, 0
4, 405312, Note_on_c, 2, 53, 86
4, 405404, Note_on_c, 2, 53, 0
4, 405504, Note_on_c, 2, 46, 86
4, 405884, Note_on_c, 2, 46, 0
4, 406080, Note_on_c, 2, 58, 86
4, 406080, Note_on_c, 2, 46, 86
4, 406460, Note_on_c, 2, 46, 0
4, 406460, Note_on_c, 2, 58, 0
4, 406656, Note_on_c, 2, 46, 86
4, 406656, Note_on_c, 2, 34, 86
4, 407036, Note_on_c, 2, 34, 0
4, 407036, Note_on_c, 2, 46, 0
4, 407036, End_track
5, 0, Start_track
5, 0, MIDI_port, 0
5, 0, Title_t, "Midi by:"
5, 0, End_track
6, 0, Start_track
6, 0, MIDI_port, 0
6, 0, Title_t, "B.Fisher"
6, 0, End_track
0, 0, End_of_file
