0, 0, Header, 1, 15, 384
1, 0, Start_track
1, 0, Time_signature, 4, 2, 96, 8
1, 0, Sequencer_specific, 3, 0, 0, 65
1, 0, Tempo, 477326
1, 0, End_track
2, 0, Start_track
2, 0, Title_t, "Mozart"
2, 0, Control_c, 0, 0, 0
2, 0, Program_c, 0, 0
2, 0, Control_c, 0, 7, 80
2, 0, Control_c, 0, 10, 75
2, 0, Control_c, 0, 91, 55
2, 0, Control_c, 0, 93, 55
2, 0, Key_signature, 0, "major"
2, 0, Control_c, 0, 121, 0
2, 96, Control_c, 0, 10, 73
2, 192, Control_c, 0, 91, 63
2, 240, Control_c, 0, 93, 40
2, 288, Program_c, 0, 0
2, 1536, Note_on_c, 0, 72, 67
2, 1536, Note_on_c, 0, 60, 67
2, 1724, Note_off_c, 0, 60, 0
2, 1728, Note_on_c, 0, 67, 67
2, 1916, Note_off_c, 0, 67, 0
2, 1920, Note_on_c, 0, 64, 67
2, 2108, Note_off_c, 0, 64, 0
2, 2112, Note_on_c, 0, 67, 67
2, 2300, Note_off_c, 0, 72, 0
2, 2300, Note_off_c, 0, 67, 0
2, 2304, Note_on_c, 0, 76, 67
2, 2304, Note_on_c, 0, 60, 67
2, 2492, Note_off_c, 0, 60, 0
2, 2496, Note_on_c, 0, 67, 67
2, 2684, Note_off_c, 0, 76, 0
2, 2684, Note_off_c, 0, 67, 0
2, 2688, Note_on_c, 0, 79, 67
2, 2688, Note_on_c, 0, 64, 67
2, 2876, Note_off_c, 0, 64, 0
2, 2880, Note_on_c, 0, 67, 67
2, 3068, Note_off_c, 0, 79, 0
2, 3068, Note_off_c, 0, 67, 0
2, 3072, Note_on_c, 0, 71, 67
2, 3072, Note_on_c, 0, 62, 67
2, 3260, Note_off_c, 0, 62, 0
2, 3280, Note_on_c, 0, 67, 67
2, 3456, Note_on_c, 0, 65, 67
2, 3468, Note_off_c, 0, 67, 0
2, 3644, Note_off_c, 0, 71, 0
2, 3644, Note_off_c, 0, 65, 0
2, 3648, Note_on_c, 0, 72, 67
2, 3648, Note_on_c, 0, 67, 67
2, 3740, Note_off_c, 0, 72, 0
2, 3744, Note_on_c, 0, 74, 67
2, 3836, Note_off_c, 0, 67, 0
2, 3836, Note_off_c, 0, 74, 0
2, 3840, Note_on_c, 0, 72, 67
2, 3840, Note_on_c, 0, 60, 67
2, 4028, Note_off_c, 0, 60, 0
2, 4032, Note_on_c, 0, 67, 67
2, 4208, Note_on_c, 0, 64, 67
2, 4220, Note_off_c, 0, 72, 0
2, 4220, Note_off_c, 0, 67, 0
2, 4396, Note_off_c, 0, 64, 0
2, 4416, Note_on_c, 0, 67, 67
2, 4604, Note_off_c, 0, 67, 0
2, 4608, Note_on_c, 0, 81, 67
2, 4608, Note_on_c, 0, 60, 67
2, 4796, Note_off_c, 0, 60, 0
2, 4800, Note_on_c, 0, 69, 67
2, 4988, Note_off_c, 0, 69, 0
2, 4992, Note_on_c, 0, 65, 67
2, 5180, Note_off_c, 0, 65, 0
2, 5184, Note_on_c, 0, 69, 67
2, 5372, Note_off_c, 0, 81, 0
2, 5372, Note_off_c, 0, 69, 0
2, 5376, Note_on_c, 0, 79, 67
2, 5376, Note_on_c, 0, 60, 67
2, 5564, Note_off_c, 0, 60, 0
2, 5568, Note_on_c, 0, 67, 67
2, 5756, Note_off_c, 0, 79, 0
2, 5756, Note_off_c, 0, 67, 0
2, 5760, Note_on_c, 0, 84, 67
2, 5760, Note_on_c, 0, 64, 67
2, 5948, Note_off_c, 0, 64, 0
2, 5952, Note_on_c, 0, 67, 67
2, 6140, Note_off_c, 0, 84, 0
2, 6140, Note_off_c, 0, 67, 0
2, 6144, Note_on_c, 0, 79, 67
2, 6144, Note_on_c, 0, 59, 67
2, 6332, Note_off_c, 0, 59, 0
2, 6336, Note_on_c, 0, 67, 67
2, 6524, Note_off_c, 0, 79, 0
2, 6524, Note_off_c, 0, 67, 0
2, 6528, Note_on_c, 0, 77, 67
2, 6528, Note_on_c, 0, 62, 67
2, 6572, Note_off_c, 0, 77, 0
2, 6576, Note_on_c, 0, 79, 67
2, 6620, Note_off_c, 0, 79, 0
2, 6624, Note_on_c, 0, 76, 67
2, 6668, Note_off_c, 0, 76, 0
2, 6672, Note_on_c, 0, 77, 67
2, 6716, Note_off_c, 0, 62, 0
2, 6716, Note_off_c, 0, 77, 0
2, 6720, Note_on_c, 0, 76, 67
2, 6720, Note_on_c, 0, 67, 67
2, 6812, Note_off_c, 0, 76, 0
2, 6816, Note_on_c, 0, 77, 67
2, 6908, Note_off_c, 0, 67, 0
2, 6908, Note_off_c, 0, 77, 0
2, 6912, Note_on_c, 0, 76, 67
2, 6912, Note_on_c, 0, 60, 67
2, 7100, Note_off_c, 0, 60, 0
2, 7104, Note_on_c, 0, 67, 67
2, 7292, Note_off_c, 0, 76, 0
2, 7292, Note_off_c, 0, 67, 0
2, 7296, Note_on_c, 0, 64, 67
2, 7484, Note_off_c, 0, 64, 0
2, 7488, Note_on_c, 0, 67, 67
2, 7676, Note_off_c, 0, 67, 0
2, 7680, Note_on_c, 0, 69, 60
2, 7680, Note_on_c, 0, 65, 60
2, 7868, Note_off_c, 0, 69, 0
2, 7872, Note_on_c, 0, 71, 60
2, 7964, Note_off_c, 0, 71, 0
2, 7968, Note_on_c, 0, 72, 60
2, 8060, Note_off_c, 0, 65, 0
2, 8060, Note_off_c, 0, 72, 0
2, 8064, Note_on_c, 0, 74, 60
2, 8156, Note_off_c, 0, 74, 0
2, 8160, Note_on_c, 0, 76, 60
2, 8252, Note_off_c, 0, 76, 0
2, 8256, Note_on_c, 0, 77, 60
2, 8348, Note_off_c, 0, 77, 0
2, 8352, Note_on_c, 0, 79, 60
2, 8444, Note_off_c, 0, 79, 0
2, 8448, Note_on_c, 0, 81, 60
2, 8540, Note_off_c, 0, 81, 0
2, 8544, Note_on_c, 0, 79, 60
2, 8636, Note_off_c, 0, 79, 0
2, 8640, Note_on_c, 0, 77, 60
2, 8732, Note_off_c, 0, 77, 0
2, 8736, Note_on_c, 0, 76, 60
2, 8828, Note_off_c, 0, 76, 0
2, 8832, Note_on_c, 0, 74, 60
2, 8924, Note_off_c, 0, 74, 0
2, 8928, Note_on_c, 0, 72, 60
2, 9020, Note_off_c, 0, 72, 0
2, 9024, Note_on_c, 0, 71, 60
2, 9116, Note_off_c, 0, 71, 0
2, 9120, Note_on_c, 0, 69, 60
2, 9212, Note_off_c, 0, 69, 0
2, 9216, Note_on_c, 0, 67, 60
2, 9404, Note_off_c, 0, 67, 0
2, 9408, Note_on_c, 0, 69, 60
2, 9500, Note_off_c, 0, 69, 0
2, 9504, Note_on_c, 0, 71, 60
2, 9596, Note_off_c, 0, 71, 0
2, 9600, Note_on_c, 0, 72, 60
2, 9692, Note_off_c, 0, 72, 0
2, 9696, Note_on_c, 0, 74, 60
2, 9788, Note_off_c, 0, 74, 0
2, 9792, Note_on_c, 0, 76, 60
2, 9884, Note_off_c, 0, 76, 0
2, 9888, Note_on_c, 0, 77, 60
2, 9980, Note_off_c, 0, 77, 0
2, 9984, Note_on_c, 0, 79, 60
2, 10076, Note_off_c, 0, 79, 0
2, 10080, Note_on_c, 0, 77, 60
2, 10172, Note_off_c, 0, 77, 0
2, 10176, Note_on_c, 0, 76, 60
2, 10268, Note_off_c, 0, 76, 0
2, 10272, Note_on_c, 0, 74, 60
2, 10364, Note_off_c, 0, 74, 0
2, 10368, Note_on_c, 0, 72, 60
2, 10460, Note_off_c, 0, 72, 0
2, 10464, Note_on_c, 0, 71, 60
2, 10556, Note_off_c, 0, 71, 0
2, 10560, Note_on_c, 0, 69, 60
2, 10652, Note_off_c, 0, 69, 0
2, 10656, Note_on_c, 0, 67, 60
2, 10748, Note_off_c, 0, 67, 0
2, 10752, Note_on_c, 0, 65, 60
2, 10940, Note_off_c, 0, 65, 0
2, 10944, Note_on_c, 0, 67, 60
2, 11036, Note_off_c, 0, 67, 0
2, 11040, Note_on_c, 0, 69, 60
2, 11132, Note_off_c, 0, 69, 0
2, 11136, Note_on_c, 0, 71, 60
2, 11228, Note_off_c, 0, 71, 0
2, 11232, Note_on_c, 0, 72, 60
2, 11324, Note_off_c, 0, 72, 0
2, 11328, Note_on_c, 0, 74, 60
2, 11420, Note_off_c, 0, 74, 0
2, 11424, Note_on_c, 0, 76, 60
2, 11516, Note_off_c, 0, 76, 0
2, 11520, Note_on_c, 0, 77, 60
2, 11612, Note_off_c, 0, 77, 0
2, 11616, Note_on_c, 0, 76, 60
2, 11708, Note_off_c, 0, 76, 0
2, 11712, Note_on_c, 0, 74, 60
2, 11804, Note_off_c, 0, 74, 0
2, 11808, Note_on_c, 0, 72, 60
2, 11900, Note_off_c, 0, 72, 0
2, 11904, Note_on_c, 0, 71, 60
2, 11996, Note_off_c, 0, 71, 0
2, 12000, Note_on_c, 0, 69, 60
2, 12092, Note_off_c, 0, 69, 0
2, 12096, Note_on_c, 0, 67, 60
2, 12188, Note_off_c, 0, 67, 0
2, 12192, Note_on_c, 0, 65, 60
2, 12284, Note_off_c, 0, 65, 0
2, 12288, Note_on_c, 0, 64, 60
2, 12476, Note_off_c, 0, 64, 0
2, 12480, Note_on_c, 0, 65, 60
2, 12572, Note_off_c, 0, 65, 0
2, 12576, Note_on_c, 0, 67, 60
2, 12668, Note_off_c, 0, 67, 0
2, 12672, Note_on_c, 0, 69, 60
2, 12764, Note_off_c, 0, 69, 0
2, 12768, Note_on_c, 0, 71, 60
2, 12860, Note_off_c, 0, 71, 0
2, 12864, Note_on_c, 0, 72, 60
2, 12956, Note_off_c, 0, 72, 0
2, 12960, Note_on_c, 0, 74, 60
2, 13052, Note_off_c, 0, 74, 0
2, 13056, Note_on_c, 0, 76, 60
2, 13148, Note_off_c, 0, 76, 0
2, 13152, Note_on_c, 0, 74, 60
2, 13244, Note_off_c, 0, 74, 0
2, 13248, Note_on_c, 0, 72, 60
2, 13340, Note_off_c, 0, 72, 0
2, 13344, Note_on_c, 0, 71, 60
2, 13436, Note_off_c, 0, 71, 0
2, 13440, Note_on_c, 0, 69, 60
2, 13532, Note_off_c, 0, 69, 0
2, 13552, Note_on_c, 0, 67, 60
2, 13632, Note_on_c, 0, 65, 60
2, 13644, Note_off_c, 0, 67, 0
2, 13724, Note_off_c, 0, 65, 0
2, 13728, Note_on_c, 0, 64, 60
2, 13820, Note_off_c, 0, 64, 0
2, 13824, Note_on_c, 0, 62, 60
2, 14012, Note_off_c, 0, 62, 0
2, 14016, Note_on_c, 0, 64, 60
2, 14108, Note_off_c, 0, 64, 0
2, 14128, Note_on_c, 0, 65, 60
2, 14208, Note_on_c, 0, 67, 60
2, 14220, Note_off_c, 0, 65, 0
2, 14300, Note_off_c, 0, 67, 0
2, 14304, Note_on_c, 0, 69, 60
2, 14396, Note_off_c, 0, 69, 0
2, 14400, Note_on_c, 0, 71, 60
2, 14492, Note_off_c, 0, 71, 0
2, 14496, Note_on_c, 0, 72, 60
2, 14588, Note_off_c, 0, 72, 0
2, 14592, Note_on_c, 0, 74, 60
2, 14684, Note_off_c, 0, 74, 0
2, 14688, Note_on_c, 0, 69, 61
2, 14780, Note_off_c, 0, 69, 0
2, 14784, Note_on_c, 0, 71, 63
2, 14876, Note_off_c, 0, 71, 0
2, 14880, Note_on_c, 0, 72, 64
2, 14972, Note_off_c, 0, 72, 0
2, 14976, Note_on_c, 0, 74, 66
2, 15068, Note_off_c, 0, 74, 0
2, 15072, Note_on_c, 0, 76, 67
2, 15164, Note_off_c, 0, 76, 0
2, 15168, Note_on_c, 0, 77, 69
2, 15260, Note_off_c, 0, 77, 0
2, 15264, Note_on_c, 0, 79, 70
2, 15356, Note_off_c, 0, 79, 0
2, 15360, Note_on_c, 0, 81, 72
2, 15452, Note_off_c, 0, 81, 0
2, 15456, Note_on_c, 0, 83, 73
2, 15548, Note_off_c, 0, 83, 0
2, 15552, Note_on_c, 0, 84, 75
2, 15644, Note_off_c, 0, 84, 0
2, 15648, Note_on_c, 0, 83, 76
2, 15740, Note_off_c, 0, 83, 0
2, 15744, Note_on_c, 0, 81, 78
2, 15836, Note_off_c, 0, 81, 0
2, 15840, Note_on_c, 0, 79, 79
2, 15932, Note_off_c, 0, 79, 0
2, 15936, Note_on_c, 0, 77, 81
2, 16028, Note_off_c, 0, 77, 0
2, 16032, Note_on_c, 0, 76, 82
2, 16124, Note_off_c, 0, 76, 0
2, 16128, Note_on_c, 0, 77, 84
2, 16220, Note_off_c, 0, 77, 0
2, 16224, Note_on_c, 0, 79, 84
2, 16316, Note_off_c, 0, 79, 0
2, 16320, Note_on_c, 0, 81, 85
2, 16412, Note_off_c, 0, 81, 0
2, 16416, Note_on_c, 0, 79, 85
2, 16508, Note_off_c, 0, 79, 0
2, 16512, Note_on_c, 0, 77, 87
2, 16604, Note_off_c, 0, 77, 0
2, 16608, Note_on_c, 0, 76, 87
2, 16700, Note_off_c, 0, 76, 0
2, 16704, Note_on_c, 0, 74, 88
2, 16796, Note_off_c, 0, 74, 0
2, 16800, Note_on_c, 0, 72, 88
2, 16892, Note_off_c, 0, 72, 0
2, 16896, Note_on_c, 0, 71, 90
2, 17084, Note_off_c, 0, 71, 0
2, 17088, Note_on_c, 0, 79, 90
2, 17276, Note_off_c, 0, 79, 0
2, 17280, Note_on_c, 0, 76, 90
2, 17468, Note_off_c, 0, 76, 0
2, 17472, Note_on_c, 0, 72, 90
2, 17660, Note_off_c, 0, 72, 0
2, 17664, Note_on_c, 0, 74, 90
2, 17852, Note_off_c, 0, 74, 0
2, 17856, Note_on_c, 0, 79, 90
2, 18044, Note_off_c, 0, 79, 0
2, 18064, Note_on_c, 0, 76, 90
2, 18240, Note_on_c, 0, 72, 90
2, 18252, Note_off_c, 0, 76, 0
2, 18428, Note_off_c, 0, 72, 0
2, 18432, Note_on_c, 0, 74, 90
2, 18812, Note_off_c, 0, 74, 0
2, 18816, Note_on_c, 0, 79, 90
2, 18816, Note_on_c, 0, 74, 90
2, 18816, Note_on_c, 0, 71, 90
2, 19196, Note_off_c, 0, 79, 0
2, 19196, Note_off_c, 0, 74, 0
2, 19196, Note_off_c, 0, 71, 0
2, 19200, Note_on_c, 0, 67, 90
2, 19580, Note_off_c, 0, 67, 0
2, 21504, Note_on_c, 0, 86, 67
2, 21692, Note_off_c, 0, 86, 0
2, 21696, Note_on_c, 0, 83, 67
2, 21884, Note_off_c, 0, 83, 0
2, 21888, Note_on_c, 0, 79, 67
2, 22460, Note_off_c, 0, 79, 0
2, 22464, Note_on_c, 0, 81, 67
2, 22556, Note_off_c, 0, 81, 0
2, 22560, Note_on_c, 0, 83, 67
2, 22652, Note_off_c, 0, 83, 0
2, 22656, Note_on_c, 0, 81, 67
2, 22844, Note_off_c, 0, 81, 0
2, 22848, Note_on_c, 0, 79, 67
2, 23036, Note_off_c, 0, 79, 0
2, 23040, Note_on_c, 0, 79, 67
2, 23084, Note_off_c, 0, 79, 0
2, 23088, Note_on_c, 0, 81, 67
2, 23132, Note_off_c, 0, 81, 0
2, 23136, Note_on_c, 0, 79, 67
2, 23180, Note_off_c, 0, 79, 0
2, 23184, Note_on_c, 0, 81, 67
2, 23228, Note_off_c, 0, 81, 0
2, 23232, Note_on_c, 0, 79, 67
2, 23276, Note_off_c, 0, 79, 0
2, 23280, Note_on_c, 0, 81, 67
2, 23296, Note_on_c, 0, 78, 67
2, 23324, Note_off_c, 0, 81, 0
2, 23340, Note_off_c, 0, 78, 0
2, 23424, Note_on_c, 0, 78, 67
2, 23804, Note_off_c, 0, 78, 0
2, 24576, Note_on_c, 0, 86, 67
2, 24764, Note_off_c, 0, 86, 0
2, 24768, Note_on_c, 0, 83, 67
2, 24956, Note_off_c, 0, 83, 0
2, 24960, Note_on_c, 0, 79, 67
2, 25532, Note_off_c, 0, 79, 0
2, 25536, Note_on_c, 0, 81, 67
2, 25628, Note_off_c, 0, 81, 0
2, 25632, Note_on_c, 0, 83, 67
2, 25724, Note_off_c, 0, 83, 0
2, 25728, Note_on_c, 0, 81, 67
2, 25916, Note_off_c, 0, 81, 0
2, 25920, Note_on_c, 0, 79, 67
2, 26108, Note_off_c, 0, 79, 0
2, 26112, Note_on_c, 0, 79, 67
2, 26144, Note_on_c, 0, 81, 67
2, 26156, Note_off_c, 0, 79, 0
2, 26188, Note_off_c, 0, 81, 0
2, 26192, Note_on_c, 0, 79, 67
2, 26236, Note_off_c, 0, 79, 0
2, 26256, Note_on_c, 0, 81, 67
2, 26300, Note_off_c, 0, 81, 0
2, 26304, Note_on_c, 0, 79, 67
2, 26348, Note_off_c, 0, 79, 0
2, 26352, Note_on_c, 0, 81, 67
2, 26396, Note_off_c, 0, 81, 0
2, 26400, Note_on_c, 0, 78, 67
2, 26492, Note_off_c, 0, 78, 0
2, 26496, Note_on_c, 0, 78, 67
2, 26876, Note_off_c, 0, 78, 0
2, 27648, Note_on_c, 0, 86, 82
2, 27744, Note_on_c, 0, 59, 82
2, 27836, Note_off_c, 0, 59, 0
2, 27840, Note_on_c, 0, 62, 82
2, 27932, Note_off_c, 0, 62, 0
2, 27936, Note_on_c, 0, 67, 82
2, 28028, Note_off_c, 0, 86, 0
2, 28028, Note_off_c, 0, 67, 0
2, 28032, Note_on_c, 0, 71, 82
2, 28128, Note_on_c, 0, 86, 82
2, 28220, Note_off_c, 0, 86, 0
2, 28224, Note_on_c, 0, 83, 82
2, 28316, Note_off_c, 0, 83, 0
2, 28320, Note_on_c, 0, 79, 82
2, 28412, Note_off_c, 0, 71, 0
2, 28412, Note_off_c, 0, 79, 0
2, 28416, Note_on_c, 0, 76, 82
2, 28512, Note_on_c, 0, 60, 82
2, 28604, Note_off_c, 0, 60, 0
2, 28608, Note_on_c, 0, 64, 82
2, 28700, Note_off_c, 0, 64, 0
2, 28704, Note_on_c, 0, 67, 82
2, 28796, Note_off_c, 0, 76, 0
2, 28796, Note_off_c, 0, 67, 0
2, 28816, Note_on_c, 0, 71, 82
2, 28896, Note_on_c, 0, 76, 82
2, 28988, Note_off_c, 0, 76, 0
2, 28992, Note_on_c, 0, 79, 82
2, 29084, Note_off_c, 0, 79, 0
2, 29088, Note_on_c, 0, 76, 82
2, 29180, Note_off_c, 0, 76, 0
2, 29184, Note_on_c, 0, 84, 82
2, 29196, Note_off_c, 0, 71, 0
2, 29280, Note_on_c, 0, 57, 82
2, 29372, Note_off_c, 0, 57, 0
2, 29376, Note_on_c, 0, 60, 82
2, 29468, Note_off_c, 0, 60, 0
2, 29472, Note_on_c, 0, 66, 82
2, 29564, Note_off_c, 0, 84, 0
2, 29564, Note_off_c, 0, 66, 0
2, 29568, Note_on_c, 0, 69, 82
2, 29664, Note_on_c, 0, 84, 82
2, 29756, Note_off_c, 0, 84, 0
2, 29760, Note_on_c, 0, 81, 82
2, 29852, Note_off_c, 0, 81, 0
2, 29856, Note_on_c, 0, 78, 82
2, 29948, Note_off_c, 0, 69, 0
2, 29948, Note_off_c, 0, 78, 0
2, 29952, Note_on_c, 0, 74, 82
2, 30048, Note_on_c, 0, 59, 82
2, 30140, Note_off_c, 0, 59, 0
2, 30144, Note_on_c, 0, 62, 82
2, 30236, Note_off_c, 0, 62, 0
2, 30240, Note_on_c, 0, 66, 82
2, 30332, Note_off_c, 0, 74, 0
2, 30332, Note_off_c, 0, 66, 0
2, 30336, Note_on_c, 0, 71, 82
2, 30432, Note_on_c, 0, 74, 82
2, 30524, Note_off_c, 0, 74, 0
2, 30528, Note_on_c, 0, 78, 82
2, 30620, Note_off_c, 0, 78, 0
2, 30624, Note_on_c, 0, 74, 82
2, 30716, Note_off_c, 0, 71, 0
2, 30716, Note_off_c, 0, 74, 0
2, 30720, Note_on_c, 0, 83, 82
2, 30816, Note_on_c, 0, 55, 82
2, 30908, Note_off_c, 0, 55, 0
2, 30912, Note_on_c, 0, 59, 82
2, 31004, Note_off_c, 0, 59, 0
2, 31008, Note_on_c, 0, 64, 82
2, 31100, Note_off_c, 0, 83, 0
2, 31100, Note_off_c, 0, 64, 0
2, 31104, Note_on_c, 0, 67, 82
2, 31200, Note_on_c, 0, 83, 82
2, 31292, Note_off_c, 0, 83, 0
2, 31296, Note_on_c, 0, 79, 82
2, 31388, Note_off_c, 0, 79, 0
2, 31392, Note_on_c, 0, 76, 82
2, 31484, Note_off_c, 0, 67, 0
2, 31484, Note_off_c, 0, 76, 0
2, 31488, Note_on_c, 0, 72, 82
2, 31584, Note_on_c, 0, 57, 82
2, 31676, Note_off_c, 0, 57, 0
2, 31680, Note_on_c, 0, 60, 82
2, 31772, Note_off_c, 0, 60, 0
2, 31776, Note_on_c, 0, 64, 82
2, 31868, Note_off_c, 0, 72, 0
2, 31868, Note_off_c, 0, 64, 0
2, 31872, Note_on_c, 0, 69, 82
2, 31968, Note_on_c, 0, 72, 82
2, 32060, Note_off_c, 0, 72, 0
2, 32064, Note_on_c, 0, 76, 82
2, 32156, Note_off_c, 0, 76, 0
2, 32160, Note_on_c, 0, 72, 82
2, 32252, Note_off_c, 0, 69, 0
2, 32252, Note_off_c, 0, 72, 0
2, 32256, Note_on_c, 0, 81, 82
2, 32352, Note_on_c, 0, 54, 82
2, 32444, Note_off_c, 0, 54, 0
2, 32448, Note_on_c, 0, 57, 82
2, 32540, Note_off_c, 0, 57, 0
2, 32544, Note_on_c, 0, 62, 82
2, 32636, Note_off_c, 0, 81, 0
2, 32636, Note_off_c, 0, 62, 0
2, 32640, Note_on_c, 0, 66, 82
2, 32736, Note_on_c, 0, 81, 82
2, 32828, Note_off_c, 0, 81, 0
2, 32832, Note_on_c, 0, 78, 82
2, 32924, Note_off_c, 0, 78, 0
2, 32928, Note_on_c, 0, 74, 82
2, 33020, Note_off_c, 0, 66, 0
2, 33020, Note_off_c, 0, 74, 0
2, 33024, Note_on_c, 0, 71, 82
2, 33120, Note_on_c, 0, 55, 82
2, 33212, Note_off_c, 0, 55, 0
2, 33216, Note_on_c, 0, 59, 82
2, 33308, Note_off_c, 0, 59, 0
2, 33312, Note_on_c, 0, 62, 82
2, 33404, Note_off_c, 0, 71, 0
2, 33404, Note_off_c, 0, 62, 0
2, 33408, Note_on_c, 0, 67, 82
2, 33504, Note_on_c, 0, 79, 82
2, 33596, Note_off_c, 0, 79, 0
2, 33600, Note_on_c, 0, 74, 82
2, 33692, Note_off_c, 0, 74, 0
2, 33696, Note_on_c, 0, 71, 82
2, 33788, Note_off_c, 0, 67, 0
2, 33788, Note_off_c, 0, 71, 0
2, 33792, Note_on_c, 0, 69, 60
2, 33792, Note_on_c, 0, 64, 60
2, 33792, Note_on_c, 0, 60, 60
2, 33980, Note_off_c, 0, 64, 0
2, 33980, Note_off_c, 0, 60, 0
2, 33984, Note_on_c, 0, 64, 60
2, 33984, Note_on_c, 0, 60, 60
2, 34172, Note_off_c, 0, 64, 0
2, 34172, Note_off_c, 0, 60, 0
2, 34176, Note_on_c, 0, 64, 60
2, 34176, Note_on_c, 0, 60, 60
2, 34364, Note_off_c, 0, 64, 0
2, 34364, Note_off_c, 0, 60, 0
2, 34368, Note_on_c, 0, 64, 60
2, 34368, Note_on_c, 0, 60, 60
2, 34556, Note_off_c, 0, 69, 0
2, 34556, Note_off_c, 0, 64, 0
2, 34556, Note_off_c, 0, 60, 0
2, 34560, Note_on_c, 0, 71, 60
2, 34560, Note_on_c, 0, 64, 60
2, 34560, Note_on_c, 0, 60, 60
2, 34608, Note_off_c, 0, 71, 0
2, 34608, Note_on_c, 0, 72, 60
2, 34748, Note_off_c, 0, 64, 0
2, 34748, Note_off_c, 0, 60, 0
2, 34752, Note_on_c, 0, 64, 60
2, 34752, Note_on_c, 0, 60, 60
2, 34940, Note_off_c, 0, 64, 0
2, 34940, Note_off_c, 0, 60, 0
2, 34944, Note_on_c, 0, 75, 60
2, 34944, Note_on_c, 0, 64, 60
2, 34944, Note_on_c, 0, 60, 60
2, 34956, Note_off_c, 0, 72, 0
2, 34992, Note_off_c, 0, 75, 0
2, 34992, Note_on_c, 0, 76, 60
2, 35132, Note_off_c, 0, 64, 0
2, 35132, Note_off_c, 0, 60, 0
2, 35136, Note_on_c, 0, 64, 60
2, 35136, Note_on_c, 0, 60, 60
2, 35324, Note_off_c, 0, 64, 0
2, 35324, Note_off_c, 0, 60, 0
2, 35328, Note_on_c, 0, 80, 60
2, 35328, Note_on_c, 0, 64, 60
2, 35328, Note_on_c, 0, 60, 60
2, 35340, Note_off_c, 0, 76, 0
2, 35376, Note_off_c, 0, 80, 0
2, 35376, Note_on_c, 0, 81, 60
2, 35516, Note_off_c, 0, 64, 0
2, 35516, Note_off_c, 0, 60, 0
2, 35520, Note_on_c, 0, 64, 60
2, 35520, Note_on_c, 0, 60, 60
2, 35708, Note_off_c, 0, 64, 0
2, 35708, Note_off_c, 0, 60, 0
2, 35712, Note_on_c, 0, 64, 60
2, 35712, Note_on_c, 0, 60, 60
2, 35900, Note_off_c, 0, 64, 0
2, 35900, Note_off_c, 0, 60, 0
2, 35904, Note_on_c, 0, 83, 60
2, 35904, Note_on_c, 0, 64, 60
2, 35904, Note_on_c, 0, 60, 60
2, 35948, Note_off_c, 0, 81, 0
2, 35948, Note_off_c, 0, 83, 0
2, 35952, Note_on_c, 0, 81, 60
2, 35996, Note_off_c, 0, 81, 0
2, 36000, Note_on_c, 0, 80, 60
2, 36044, Note_off_c, 0, 80, 0
2, 36048, Note_on_c, 0, 81, 60
2, 36092, Note_off_c, 0, 64, 0
2, 36092, Note_off_c, 0, 60, 0
2, 36092, Note_off_c, 0, 81, 0
2, 36096, Note_on_c, 0, 84, 60
2, 36096, Note_on_c, 0, 64, 60
2, 36096, Note_on_c, 0, 60, 60
2, 36284, Note_off_c, 0, 84, 0
2, 36284, Note_off_c, 0, 64, 0
2, 36284, Note_off_c, 0, 60, 0
2, 36288, Note_on_c, 0, 81, 60
2, 36288, Note_on_c, 0, 64, 60
2, 36288, Note_on_c, 0, 60, 60
2, 36476, Note_off_c, 0, 81, 0
2, 36476, Note_off_c, 0, 64, 0
2, 36476, Note_off_c, 0, 60, 0
2, 36480, Note_on_c, 0, 84, 60
2, 36480, Note_on_c, 0, 64, 60
2, 36480, Note_on_c, 0, 60, 60
2, 36668, Note_off_c, 0, 84, 0
2, 36668, Note_off_c, 0, 64, 0
2, 36668, Note_off_c, 0, 60, 0
2, 36672, Note_on_c, 0, 81, 60
2, 36672, Note_on_c, 0, 64, 60
2, 36672, Note_on_c, 0, 60, 60
2, 36860, Note_off_c, 0, 81, 0
2, 36860, Note_off_c, 0, 64, 0
2, 36860, Note_off_c, 0, 60, 0
2, 36864, Note_on_c, 0, 83, 90
2, 36864, Note_on_c, 0, 62, 90
2, 36956, Note_off_c, 0, 62, 0
2, 36960, Note_on_c, 0, 71, 90
2, 37052, Note_off_c, 0, 83, 0
2, 37052, Note_off_c, 0, 71, 0
2, 37056, Note_on_c, 0, 79, 90
2, 37056, Note_on_c, 0, 67, 90
2, 37148, Note_off_c, 0, 67, 0
2, 37152, Note_on_c, 0, 71, 90
2, 37244, Note_off_c, 0, 79, 0
2, 37244, Note_off_c, 0, 71, 0
2, 37248, Note_on_c, 0, 86, 90
2, 37248, Note_on_c, 0, 62, 90
2, 37340, Note_off_c, 0, 62, 0
2, 37344, Note_on_c, 0, 71, 90
2, 37436, Note_off_c, 0, 71, 0
2, 37440, Note_on_c, 0, 67, 90
2, 37532, Note_off_c, 0, 67, 0
2, 37536, Note_on_c, 0, 71, 90
2, 37628, Note_off_c, 0, 71, 0
2, 37632, Note_on_c, 0, 62, 90
2, 37724, Note_off_c, 0, 62, 0
2, 37728, Note_on_c, 0, 71, 90
2, 37820, Note_off_c, 0, 71, 0
2, 37824, Note_on_c, 0, 67, 90
2, 37916, Note_off_c, 0, 67, 0
2, 37920, Note_on_c, 0, 71, 90
2, 38012, Note_off_c, 0, 86, 0
2, 38012, Note_off_c, 0, 71, 0
2, 38016, Note_on_c, 0, 84, 90
2, 38016, Note_on_c, 0, 62, 90
2, 38108, Note_off_c, 0, 84, 0
2, 38108, Note_off_c, 0, 62, 0
2, 38112, Note_on_c, 0, 83, 90
2, 38112, Note_on_c, 0, 71, 90
2, 38204, Note_off_c, 0, 83, 0
2, 38204, Note_off_c, 0, 71, 0
2, 38208, Note_on_c, 0, 81, 90
2, 38208, Note_on_c, 0, 67, 90
2, 38300, Note_off_c, 0, 81, 0
2, 38300, Note_off_c, 0, 67, 0
2, 38304, Note_on_c, 0, 79, 90
2, 38304, Note_on_c, 0, 71, 90
2, 38396, Note_off_c, 0, 79, 0
2, 38396, Note_off_c, 0, 71, 0
2, 38400, Note_on_c, 0, 81, 90
2, 38400, Note_on_c, 0, 62, 90
2, 38444, Note_off_c, 0, 81, 0
2, 38448, Note_on_c, 0, 83, 90
2, 38492, Note_off_c, 0, 62, 0
2, 38492, Note_off_c, 0, 83, 0
2, 38496, Note_on_c, 0, 81, 90
2, 38496, Note_on_c, 0, 72, 90
2, 38540, Note_off_c, 0, 81, 0
2, 38544, Note_on_c, 0, 83, 90
2, 38588, Note_off_c, 0, 72, 0
2, 38588, Note_off_c, 0, 83, 0
2, 38592, Note_on_c, 0, 81, 90
2, 38592, Note_on_c, 0, 66, 90
2, 38636, Note_off_c, 0, 81, 0
2, 38640, Note_on_c, 0, 83, 90
2, 38684, Note_off_c, 0, 66, 0
2, 38684, Note_off_c, 0, 83, 0
2, 38688, Note_on_c, 0, 81, 90
2, 38688, Note_on_c, 0, 72, 90
2, 38732, Note_off_c, 0, 81, 0
2, 38736, Note_on_c, 0, 83, 90
2, 38780, Note_off_c, 0, 72, 0
2, 38780, Note_off_c, 0, 83, 0
2, 38784, Note_on_c, 0, 81, 90
2, 38784, Note_on_c, 0, 62, 90
2, 38828, Note_off_c, 0, 81, 0
2, 38832, Note_on_c, 0, 83, 90
2, 38876, Note_off_c, 0, 62, 0
2, 38876, Note_off_c, 0, 83, 0
2, 38880, Note_on_c, 0, 81, 90
2, 38880, Note_on_c, 0, 72, 90
2, 38924, Note_off_c, 0, 81, 0
2, 38928, Note_on_c, 0, 83, 90
2, 38972, Note_off_c, 0, 72, 0
2, 38972, Note_off_c, 0, 83, 0
2, 38976, Note_on_c, 0, 81, 90
2, 38976, Note_on_c, 0, 66, 90
2, 39020, Note_off_c, 0, 81, 0
2, 39024, Note_on_c, 0, 83, 90
2, 39068, Note_off_c, 0, 66, 0
2, 39068, Note_off_c, 0, 83, 0
2, 39072, Note_on_c, 0, 81, 90
2, 39072, Note_on_c, 0, 72, 90
2, 39116, Note_off_c, 0, 81, 0
2, 39120, Note_on_c, 0, 83, 90
2, 39164, Note_off_c, 0, 72, 0
2, 39164, Note_off_c, 0, 83, 0
2, 39168, Note_on_c, 0, 81, 90
2, 39168, Note_on_c, 0, 62, 90
2, 39212, Note_off_c, 0, 81, 0
2, 39216, Note_on_c, 0, 83, 90
2, 39260, Note_off_c, 0, 62, 0
2, 39260, Note_off_c, 0, 83, 0
2, 39264, Note_on_c, 0, 81, 90
2, 39264, Note_on_c, 0, 72, 90
2, 39308, Note_off_c, 0, 81, 0
2, 39312, Note_on_c, 0, 83, 90
2, 39356, Note_off_c, 0, 72, 0
2, 39356, Note_off_c, 0, 83, 0
2, 39360, Note_on_c, 0, 81, 90
2, 39360, Note_on_c, 0, 66, 90
2, 39404, Note_off_c, 0, 81, 0
2, 39408, Note_on_c, 0, 83, 90
2, 39452, Note_off_c, 0, 66, 0
2, 39452, Note_off_c, 0, 83, 0
2, 39456, Note_on_c, 0, 81, 90
2, 39456, Note_on_c, 0, 72, 90
2, 39500, Note_off_c, 0, 81, 0
2, 39504, Note_on_c, 0, 83, 90
2, 39548, Note_off_c, 0, 72, 0
2, 39548, Note_off_c, 0, 83, 0
2, 39552, Note_on_c, 0, 81, 90
2, 39552, Note_on_c, 0, 62, 90
2, 39596, Note_off_c, 0, 81, 0
2, 39600, Note_on_c, 0, 83, 90
2, 39644, Note_off_c, 0, 62, 0
2, 39644, Note_off_c, 0, 83, 0
2, 39648, Note_on_c, 0, 81, 90
2, 39648, Note_on_c, 0, 72, 90
2, 39692, Note_off_c, 0, 81, 0
2, 39696, Note_on_c, 0, 83, 90
2, 39740, Note_off_c, 0, 72, 0
2, 39740, Note_off_c, 0, 83, 0
2, 39744, Note_on_c, 0, 79, 90
2, 39744, Note_on_c, 0, 66, 90
2, 39836, Note_off_c, 0, 79, 0
2, 39836, Note_off_c, 0, 66, 0
2, 39840, Note_on_c, 0, 81, 90
2, 39840, Note_on_c, 0, 72, 90
2, 39932, Note_off_c, 0, 81, 0
2, 39932, Note_off_c, 0, 72, 0
2, 39936, Note_on_c, 0, 79, 90
2, 39936, Note_on_c, 0, 71, 90
2, 39936, Note_on_c, 0, 67, 90
2, 40316, Note_off_c, 0, 79, 0
2, 40316, Note_off_c, 0, 71, 0
2, 40316, Note_off_c, 0, 67, 0
2, 40320, Note_on_c, 0, 79, 90
2, 40412, Note_off_c, 0, 79, 0
2, 40416, Note_on_c, 0, 74, 90
2, 40508, Note_off_c, 0, 74, 0
2, 40512, Note_on_c, 0, 79, 90
2, 40604, Note_off_c, 0, 79, 0
2, 40608, Note_on_c, 0, 83, 90
2, 40700, Note_off_c, 0, 83, 0
2, 40704, Note_on_c, 0, 86, 90
2, 40796, Note_off_c, 0, 86, 0
2, 40800, Note_on_c, 0, 83, 90
2, 40892, Note_off_c, 0, 83, 0
2, 40896, Note_on_c, 0, 79, 90
2, 40988, Note_off_c, 0, 79, 0
2, 40992, Note_on_c, 0, 83, 90
2, 41084, Note_off_c, 0, 83, 0
2, 41088, Note_on_c, 0, 84, 90
2, 41088, Note_on_c, 0, 72, 90
2, 41088, Note_on_c, 0, 69, 90
2, 41088, Note_on_c, 0, 62, 90
2, 41180, Note_off_c, 0, 84, 0
2, 41184, Note_on_c, 0, 81, 90
2, 41276, Note_off_c, 0, 81, 0
2, 41280, Note_on_c, 0, 78, 90
2, 41372, Note_off_c, 0, 78, 0
2, 41376, Note_on_c, 0, 81, 90
2, 41468, Note_off_c, 0, 72, 0
2, 41468, Note_off_c, 0, 69, 0
2, 41468, Note_off_c, 0, 62, 0
2, 41468, Note_off_c, 0, 81, 0
2, 41472, Note_on_c, 0, 79, 90
2, 41472, Note_on_c, 0, 67, 90
2, 41472, Note_on_c, 0, 71, 90
2, 41852, Note_off_c, 0, 79, 0
2, 41852, Note_off_c, 0, 67, 0
2, 41852, Note_off_c, 0, 71, 0
2, 41856, Note_on_c, 0, 67, 90
2, 41936, Note_on_c, 0, 62, 90
2, 41948, Note_off_c, 0, 67, 0
2, 42028, Note_off_c, 0, 62, 0
2, 42048, Note_on_c, 0, 67, 90
2, 42140, Note_off_c, 0, 67, 0
2, 42144, Note_on_c, 0, 71, 90
2, 42236, Note_off_c, 0, 71, 0
2, 42240, Note_on_c, 0, 74, 90
2, 42332, Note_off_c, 0, 74, 0
2, 42336, Note_on_c, 0, 71, 90
2, 42428, Note_off_c, 0, 71, 0
2, 42432, Note_on_c, 0, 67, 90
2, 42524, Note_off_c, 0, 67, 0
2, 42528, Note_on_c, 0, 71, 90
2, 42620, Note_off_c, 0, 71, 0
2, 42624, Note_on_c, 0, 72, 90
2, 42716, Note_off_c, 0, 72, 0
2, 42720, Note_on_c, 0, 69, 90
2, 42812, Note_off_c, 0, 69, 0
2, 42816, Note_on_c, 0, 66, 90
2, 42908, Note_off_c, 0, 66, 0
2, 42912, Note_on_c, 0, 69, 90
2, 43004, Note_off_c, 0, 69, 0
2, 43008, Note_on_c, 0, 67, 60
2, 43388, Note_off_c, 0, 67, 0
2, 43392, Note_on_c, 0, 83, 60
2, 43392, Note_on_c, 0, 74, 60
2, 43772, Note_off_c, 0, 83, 0
2, 43772, Note_off_c, 0, 74, 0
2, 43776, Note_on_c, 0, 79, 60
2, 43776, Note_on_c, 0, 71, 60
2, 44156, Note_off_c, 0, 79, 0
2, 44156, Note_off_c, 0, 71, 0
2, 44544, Note_on_c, 0, 72, 67
2, 44544, Note_on_c, 0, 60, 67
2, 44732, Note_off_c, 0, 60, 0
2, 44736, Note_on_c, 0, 67, 67
2, 44924, Note_off_c, 0, 67, 0
2, 44928, Note_on_c, 0, 64, 67
2, 45116, Note_off_c, 0, 64, 0
2, 45120, Note_on_c, 0, 67, 67
2, 45308, Note_off_c, 0, 72, 0
2, 45308, Note_off_c, 0, 67, 0
2, 45312, Note_on_c, 0, 76, 67
2, 45312, Note_on_c, 0, 60, 67
2, 45500, Note_off_c, 0, 60, 0
2, 45504, Note_on_c, 0, 67, 67
2, 45692, Note_off_c, 0, 76, 0
2, 45692, Note_off_c, 0, 67, 0
2, 45696, Note_on_c, 0, 79, 67
2, 45696, Note_on_c, 0, 64, 67
2, 45884, Note_off_c, 0, 64, 0
2, 45888, Note_on_c, 0, 67, 67
2, 46076, Note_off_c, 0, 79, 0
2, 46076, Note_off_c, 0, 67, 0
2, 46080, Note_on_c, 0, 71, 67
2, 46080, Note_on_c, 0, 62, 67
2, 46268, Note_off_c, 0, 62, 0
2, 46288, Note_on_c, 0, 67, 67
2, 46464, Note_on_c, 0, 65, 67
2, 46476, Note_off_c, 0, 67, 0
2, 46652, Note_off_c, 0, 71, 0
2, 46652, Note_off_c, 0, 65, 0
2, 46656, Note_on_c, 0, 67, 67
2, 46672, Note_on_c, 0, 72, 67
2, 46752, Note_on_c, 0, 74, 67
2, 46764, Note_off_c, 0, 72, 0
2, 46844, Note_off_c, 0, 67, 0
2, 46844, Note_off_c, 0, 74, 0
2, 46848, Note_on_c, 0, 72, 67
2, 46848, Note_on_c, 0, 60, 67
2, 47036, Note_off_c, 0, 60, 0
2, 47040, Note_on_c, 0, 67, 67
2, 47228, Note_off_c, 0, 72, 0
2, 47228, Note_off_c, 0, 67, 0
2, 47232, Note_on_c, 0, 64, 67
2, 47420, Note_off_c, 0, 64, 0
2, 47424, Note_on_c, 0, 67, 67
2, 47612, Note_off_c, 0, 67, 0
2, 47616, Note_on_c, 0, 81, 67
2, 47616, Note_on_c, 0, 60, 67
2, 47804, Note_off_c, 0, 60, 0
2, 47808, Note_on_c, 0, 69, 67
2, 47996, Note_off_c, 0, 69, 0
2, 48000, Note_on_c, 0, 65, 67
2, 48188, Note_off_c, 0, 65, 0
2, 48192, Note_on_c, 0, 69, 67
2, 48380, Note_off_c, 0, 81, 0
2, 48380, Note_off_c, 0, 69, 0
2, 48384, Note_on_c, 0, 79, 67
2, 48384, Note_on_c, 0, 60, 67
2, 48572, Note_off_c, 0, 60, 0
2, 48576, Note_on_c, 0, 67, 67
2, 48764, Note_off_c, 0, 79, 0
2, 48764, Note_off_c, 0, 67, 0
2, 48768, Note_on_c, 0, 84, 67
2, 48768, Note_on_c, 0, 64, 67
2, 48956, Note_off_c, 0, 64, 0
2, 48960, Note_on_c, 0, 67, 67
2, 49148, Note_off_c, 0, 84, 0
2, 49148, Note_off_c, 0, 67, 0
2, 49152, Note_on_c, 0, 79, 67
2, 49152, Note_on_c, 0, 59, 67
2, 49340, Note_off_c, 0, 59, 0
2, 49344, Note_on_c, 0, 67, 67
2, 49532, Note_off_c, 0, 79, 0
2, 49532, Note_off_c, 0, 67, 0
2, 49536, Note_on_c, 0, 77, 67
2, 49536, Note_on_c, 0, 62, 67
2, 49580, Note_off_c, 0, 77, 0
2, 49584, Note_on_c, 0, 79, 67
2, 49628, Note_off_c, 0, 79, 0
2, 49632, Note_on_c, 0, 76, 67
2, 49676, Note_off_c, 0, 76, 0
2, 49680, Note_on_c, 0, 77, 67
2, 49724, Note_off_c, 0, 62, 0
2, 49724, Note_off_c, 0, 77, 0
2, 49728, Note_on_c, 0, 76, 67
2, 49728, Note_on_c, 0, 67, 67
2, 49820, Note_off_c, 0, 76, 0
2, 49824, Note_on_c, 0, 77, 67
2, 49916, Note_off_c, 0, 67, 0
2, 49916, Note_off_c, 0, 77, 0
2, 49920, Note_on_c, 0, 76, 67
2, 49920, Note_on_c, 0, 60, 67
2, 50108, Note_off_c, 0, 60, 0
2, 50112, Note_on_c, 0, 67, 67
2, 50300, Note_off_c, 0, 76, 0
2, 50300, Note_off_c, 0, 67, 0
2, 50304, Note_on_c, 0, 64, 67
2, 50492, Note_off_c, 0, 64, 0
2, 50496, Note_on_c, 0, 67, 67
2, 50684, Note_off_c, 0, 67, 0
2, 50688, Note_on_c, 0, 69, 60
2, 50688, Note_on_c, 0, 65, 60
2, 50876, Note_off_c, 0, 69, 0
2, 50880, Note_on_c, 0, 71, 60
2, 50972, Note_off_c, 0, 71, 0
2, 50976, Note_on_c, 0, 72, 60
2, 51068, Note_off_c, 0, 65, 0
2, 51068, Note_off_c, 0, 72, 0
2, 51072, Note_on_c, 0, 74, 60
2, 51164, Note_off_c, 0, 74, 0
2, 51168, Note_on_c, 0, 76, 60
2, 51260, Note_off_c, 0, 76, 0
2, 51264, Note_on_c, 0, 77, 60
2, 51356, Note_off_c, 0, 77, 0
2, 51360, Note_on_c, 0, 79, 60
2, 51452, Note_off_c, 0, 79, 0
2, 51456, Note_on_c, 0, 81, 60
2, 51548, Note_off_c, 0, 81, 0
2, 51552, Note_on_c, 0, 79, 60
2, 51644, Note_off_c, 0, 79, 0
2, 51648, Note_on_c, 0, 77, 60
2, 51740, Note_off_c, 0, 77, 0
2, 51744, Note_on_c, 0, 76, 60
2, 51836, Note_off_c, 0, 76, 0
2, 51840, Note_on_c, 0, 74, 60
2, 51932, Note_off_c, 0, 74, 0
2, 51936, Note_on_c, 0, 72, 60
2, 52028, Note_off_c, 0, 72, 0
2, 52032, Note_on_c, 0, 71, 60
2, 52124, Note_off_c, 0, 71, 0
2, 52128, Note_on_c, 0, 69, 60
2, 52220, Note_off_c, 0, 69, 0
2, 52224, Note_on_c, 0, 67, 60
2, 52412, Note_off_c, 0, 67, 0
2, 52416, Note_on_c, 0, 69, 60
2, 52508, Note_off_c, 0, 69, 0
2, 52512, Note_on_c, 0, 71, 60
2, 52604, Note_off_c, 0, 71, 0
2, 52608, Note_on_c, 0, 72, 60
2, 52700, Note_off_c, 0, 72, 0
2, 52704, Note_on_c, 0, 74, 60
2, 52796, Note_off_c, 0, 74, 0
2, 52800, Note_on_c, 0, 76, 60
2, 52892, Note_off_c, 0, 76, 0
2, 52896, Note_on_c, 0, 77, 60
2, 52988, Note_off_c, 0, 77, 0
2, 52992, Note_on_c, 0, 79, 60
2, 53084, Note_off_c, 0, 79, 0
2, 53088, Note_on_c, 0, 77, 60
2, 53180, Note_off_c, 0, 77, 0
2, 53184, Note_on_c, 0, 76, 60
2, 53276, Note_off_c, 0, 76, 0
2, 53280, Note_on_c, 0, 74, 60
2, 53372, Note_off_c, 0, 74, 0
2, 53376, Note_on_c, 0, 72, 60
2, 53468, Note_off_c, 0, 72, 0
2, 53472, Note_on_c, 0, 71, 60
2, 53564, Note_off_c, 0, 71, 0
2, 53568, Note_on_c, 0, 69, 60
2, 53660, Note_off_c, 0, 69, 0
2, 53664, Note_on_c, 0, 67, 60
2, 53756, Note_off_c, 0, 67, 0
2, 53760, Note_on_c, 0, 65, 60
2, 53948, Note_off_c, 0, 65, 0
2, 53952, Note_on_c, 0, 67, 60
2, 54044, Note_off_c, 0, 67, 0
2, 54048, Note_on_c, 0, 69, 60
2, 54140, Note_off_c, 0, 69, 0
2, 54144, Note_on_c, 0, 71, 60
2, 54236, Note_off_c, 0, 71, 0
2, 54240, Note_on_c, 0, 72, 60
2, 54332, Note_off_c, 0, 72, 0
2, 54336, Note_on_c, 0, 74, 60
2, 54428, Note_off_c, 0, 74, 0
2, 54432, Note_on_c, 0, 76, 60
2, 54524, Note_off_c, 0, 76, 0
2, 54528, Note_on_c, 0, 77, 60
2, 54620, Note_off_c, 0, 77, 0
2, 54624, Note_on_c, 0, 76, 60
2, 54716, Note_off_c, 0, 76, 0
2, 54720, Note_on_c, 0, 74, 60
2, 54812, Note_off_c, 0, 74, 0
2, 54816, Note_on_c, 0, 72, 60
2, 54908, Note_off_c, 0, 72, 0
2, 54912, Note_on_c, 0, 71, 60
2, 55004, Note_off_c, 0, 71, 0
2, 55008, Note_on_c, 0, 69, 60
2, 55100, Note_off_c, 0, 69, 0
2, 55104, Note_on_c, 0, 67, 60
2, 55196, Note_off_c, 0, 67, 0
2, 55200, Note_on_c, 0, 65, 60
2, 55292, Note_off_c, 0, 65, 0
2, 55296, Note_on_c, 0, 64, 60
2, 55484, Note_off_c, 0, 64, 0
2, 55488, Note_on_c, 0, 65, 60
2, 55580, Note_off_c, 0, 65, 0
2, 55584, Note_on_c, 0, 67, 60
2, 55676, Note_off_c, 0, 67, 0
2, 55680, Note_on_c, 0, 69, 60
2, 55772, Note_off_c, 0, 69, 0
2, 55776, Note_on_c, 0, 71, 60
2, 55868, Note_off_c, 0, 71, 0
2, 55872, Note_on_c, 0, 72, 60
2, 55964, Note_off_c, 0, 72, 0
2, 55968, Note_on_c, 0, 74, 60
2, 56060, Note_off_c, 0, 74, 0
2, 56064, Note_on_c, 0, 76, 60
2, 56156, Note_off_c, 0, 76, 0
2, 56160, Note_on_c, 0, 74, 60
2, 56252, Note_off_c, 0, 74, 0
2, 56256, Note_on_c, 0, 72, 60
2, 56348, Note_off_c, 0, 72, 0
2, 56352, Note_on_c, 0, 71, 60
2, 56444, Note_off_c, 0, 71, 0
2, 56448, Note_on_c, 0, 69, 60
2, 56540, Note_off_c, 0, 69, 0
2, 56560, Note_on_c, 0, 67, 60
2, 56640, Note_on_c, 0, 65, 60
2, 56652, Note_off_c, 0, 67, 0
2, 56732, Note_off_c, 0, 65, 0
2, 56736, Note_on_c, 0, 64, 60
2, 56828, Note_off_c, 0, 64, 0
2, 56832, Note_on_c, 0, 62, 60
2, 57020, Note_off_c, 0, 62, 0
2, 57024, Note_on_c, 0, 64, 60
2, 57116, Note_off_c, 0, 64, 0
2, 57136, Note_on_c, 0, 65, 60
2, 57216, Note_on_c, 0, 67, 60
2, 57228, Note_off_c, 0, 65, 0
2, 57308, Note_off_c, 0, 67, 0
2, 57312, Note_on_c, 0, 69, 60
2, 57404, Note_off_c, 0, 69, 0
2, 57408, Note_on_c, 0, 71, 60
2, 57500, Note_off_c, 0, 71, 0
2, 57504, Note_on_c, 0, 72, 60
2, 57596, Note_off_c, 0, 72, 0
2, 57600, Note_on_c, 0, 74, 60
2, 57692, Note_off_c, 0, 74, 0
2, 57696, Note_on_c, 0, 69, 61
2, 57788, Note_off_c, 0, 69, 0
2, 57792, Note_on_c, 0, 71, 63
2, 57884, Note_off_c, 0, 71, 0
2, 57888, Note_on_c, 0, 72, 64
2, 57980, Note_off_c, 0, 72, 0
2, 57984, Note_on_c, 0, 74, 66
2, 58076, Note_off_c, 0, 74, 0
2, 58080, Note_on_c, 0, 76, 67
2, 58172, Note_off_c, 0, 76, 0
2, 58176, Note_on_c, 0, 77, 69
2, 58268, Note_off_c, 0, 77, 0
2, 58272, Note_on_c, 0, 79, 70
2, 58364, Note_off_c, 0, 79, 0
2, 58368, Note_on_c, 0, 81, 72
2, 58460, Note_off_c, 0, 81, 0
2, 58464, Note_on_c, 0, 83, 73
2, 58556, Note_off_c, 0, 83, 0
2, 58560, Note_on_c, 0, 84, 75
2, 58652, Note_off_c, 0, 84, 0
2, 58656, Note_on_c, 0, 83, 76
2, 58748, Note_off_c, 0, 83, 0
2, 58752, Note_on_c, 0, 81, 78
2, 58844, Note_off_c, 0, 81, 0
2, 58848, Note_on_c, 0, 79, 79
2, 58940, Note_off_c, 0, 79, 0
2, 58944, Note_on_c, 0, 77, 81
2, 59036, Note_off_c, 0, 77, 0
2, 59040, Note_on_c, 0, 76, 82
2, 59132, Note_off_c, 0, 76, 0
2, 59136, Note_on_c, 0, 77, 84
2, 59228, Note_off_c, 0, 77, 0
2, 59232, Note_on_c, 0, 79, 84
2, 59324, Note_off_c, 0, 79, 0
2, 59328, Note_on_c, 0, 81, 85
2, 59420, Note_off_c, 0, 81, 0
2, 59424, Note_on_c, 0, 79, 85
2, 59516, Note_off_c, 0, 79, 0
2, 59520, Note_on_c, 0, 77, 87
2, 59612, Note_off_c, 0, 77, 0
2, 59616, Note_on_c, 0, 76, 87
2, 59708, Note_off_c, 0, 76, 0
2, 59712, Note_on_c, 0, 74, 88
2, 59804, Note_off_c, 0, 74, 0
2, 59808, Note_on_c, 0, 72, 88
2, 59900, Note_off_c, 0, 72, 0
2, 59904, Note_on_c, 0, 71, 90
2, 60092, Note_off_c, 0, 71, 0
2, 60096, Note_on_c, 0, 79, 90
2, 60284, Note_off_c, 0, 79, 0
2, 60288, Note_on_c, 0, 76, 90
2, 60476, Note_off_c, 0, 76, 0
2, 60480, Note_on_c, 0, 72, 90
2, 60668, Note_off_c, 0, 72, 0
2, 60672, Note_on_c, 0, 74, 90
2, 60860, Note_off_c, 0, 74, 0
2, 60864, Note_on_c, 0, 79, 90
2, 61052, Note_off_c, 0, 79, 0
2, 61072, Note_on_c, 0, 76, 90
2, 61248, Note_on_c, 0, 72, 90
2, 61260, Note_off_c, 0, 76, 0
2, 61436, Note_off_c, 0, 72, 0
2, 61440, Note_on_c, 0, 74, 90
2, 61820, Note_off_c, 0, 74, 0
2, 61824, Note_on_c, 0, 79, 90
2, 61840, Note_on_c, 0, 74, 90
2, 61840, Note_on_c, 0, 71, 90
2, 62204, Note_off_c, 0, 79, 0
2, 62208, Note_on_c, 0, 67, 90
2, 62220, Note_off_c, 0, 74, 0
2, 62220, Note_off_c, 0, 71, 0
2, 62588, Note_off_c, 0, 67, 0
2, 64512, Note_on_c, 0, 86, 60
2, 64700, Note_off_c, 0, 86, 0
2, 64704, Note_on_c, 0, 83, 60
2, 64892, Note_off_c, 0, 83, 0
2, 64896, Note_on_c, 0, 79, 60
2, 65468, Note_off_c, 0, 79, 0
2, 65472, Note_on_c, 0, 81, 60
2, 65564, Note_off_c, 0, 81, 0
2, 65568, Note_on_c, 0, 83, 60
2, 65660, Note_off_c, 0, 83, 0
2, 65664, Note_on_c, 0, 81, 60
2, 65852, Note_off_c, 0, 81, 0
2, 65856, Note_on_c, 0, 79, 60
2, 66044, Note_off_c, 0, 79, 0
2, 66048, Note_on_c, 0, 79, 60
2, 66092, Note_off_c, 0, 79, 0
2, 66096, Note_on_c, 0, 81, 60
2, 66140, Note_off_c, 0, 81, 0
2, 66144, Note_on_c, 0, 79, 60
2, 66188, Note_off_c, 0, 79, 0
2, 66192, Note_on_c, 0, 81, 60
2, 66236, Note_off_c, 0, 81, 0
2, 66240, Note_on_c, 0, 79, 60
2, 66284, Note_off_c, 0, 79, 0
2, 66288, Note_on_c, 0, 81, 60
2, 66304, Note_on_c, 0, 78, 60
2, 66332, Note_off_c, 0, 81, 0
2, 66348, Note_off_c, 0, 78, 0
2, 66432, Note_on_c, 0, 78, 60
2, 66812, Note_off_c, 0, 78, 0
2, 67584, Note_on_c, 0, 86, 60
2, 67772, Note_off_c, 0, 86, 0
2, 67776, Note_on_c, 0, 83, 60
2, 67964, Note_off_c, 0, 83, 0
2, 67968, Note_on_c, 0, 79, 60
2, 68540, Note_off_c, 0, 79, 0
2, 68544, Note_on_c, 0, 81, 60
2, 68636, Note_off_c, 0, 81, 0
2, 68640, Note_on_c, 0, 83, 60
2, 68732, Note_off_c, 0, 83, 0
2, 68736, Note_on_c, 0, 81, 60
2, 68924, Note_off_c, 0, 81, 0
2, 68928, Note_on_c, 0, 79, 60
2, 69116, Note_off_c, 0, 79, 0
2, 69120, Note_on_c, 0, 79, 60
2, 69152, Note_on_c, 0, 81, 60
2, 69164, Note_off_c, 0, 79, 0
2, 69196, Note_off_c, 0, 81, 0
2, 69200, Note_on_c, 0, 79, 60
2, 69244, Note_off_c, 0, 79, 0
2, 69264, Note_on_c, 0, 81, 60
2, 69308, Note_off_c, 0, 81, 0
2, 69312, Note_on_c, 0, 79, 60
2, 69356, Note_off_c, 0, 79, 0
2, 69360, Note_on_c, 0, 81, 60
2, 69404, Note_off_c, 0, 81, 0
2, 69408, Note_on_c, 0, 78, 60
2, 69500, Note_off_c, 0, 78, 0
2, 69504, Note_on_c, 0, 78, 60
2, 69884, Note_off_c, 0, 78, 0
2, 70656, Note_on_c, 0, 86, 82
2, 70752, Note_on_c, 0, 59, 82
2, 70844, Note_off_c, 0, 59, 0
2, 70848, Note_on_c, 0, 62, 82
2, 70940, Note_off_c, 0, 62, 0
2, 70944, Note_on_c, 0, 67, 82
2, 71036, Note_off_c, 0, 86, 0
2, 71036, Note_off_c, 0, 67, 0
2, 71040, Note_on_c, 0, 71, 82
2, 71136, Note_on_c, 0, 86, 82
2, 71228, Note_off_c, 0, 86, 0
2, 71232, Note_on_c, 0, 83, 82
2, 71324, Note_off_c, 0, 83, 0
2, 71328, Note_on_c, 0, 79, 82
2, 71420, Note_off_c, 0, 71, 0
2, 71420, Note_off_c, 0, 79, 0
2, 71424, Note_on_c, 0, 76, 82
2, 71520, Note_on_c, 0, 60, 82
2, 71612, Note_off_c, 0, 60, 0
2, 71616, Note_on_c, 0, 64, 82
2, 71708, Note_off_c, 0, 64, 0
2, 71712, Note_on_c, 0, 67, 82
2, 71804, Note_off_c, 0, 76, 0
2, 71804, Note_off_c, 0, 67, 0
2, 71824, Note_on_c, 0, 71, 82
2, 71904, Note_on_c, 0, 76, 82
2, 71996, Note_off_c, 0, 76, 0
2, 72000, Note_on_c, 0, 79, 82
2, 72092, Note_off_c, 0, 79, 0
2, 72096, Note_on_c, 0, 76, 82
2, 72188, Note_off_c, 0, 76, 0
2, 72192, Note_on_c, 0, 84, 82
2, 72204, Note_off_c, 0, 71, 0
2, 72288, Note_on_c, 0, 57, 82
2, 72380, Note_off_c, 0, 57, 0
2, 72384, Note_on_c, 0, 60, 82
2, 72476, Note_off_c, 0, 60, 0
2, 72480, Note_on_c, 0, 66, 82
2, 72572, Note_off_c, 0, 84, 0
2, 72572, Note_off_c, 0, 66, 0
2, 72576, Note_on_c, 0, 69, 82
2, 72672, Note_on_c, 0, 84, 82
2, 72764, Note_off_c, 0, 84, 0
2, 72768, Note_on_c, 0, 81, 82
2, 72860, Note_off_c, 0, 81, 0
2, 72864, Note_on_c, 0, 78, 82
2, 72956, Note_off_c, 0, 69, 0
2, 72956, Note_off_c, 0, 78, 0
2, 72960, Note_on_c, 0, 74, 82
2, 73056, Note_on_c, 0, 59, 82
2, 73148, Note_off_c, 0, 59, 0
2, 73152, Note_on_c, 0, 62, 82
2, 73244, Note_off_c, 0, 62, 0
2, 73248, Note_on_c, 0, 66, 82
2, 73340, Note_off_c, 0, 74, 0
2, 73340, Note_off_c, 0, 66, 0
2, 73344, Note_on_c, 0, 71, 82
2, 73440, Note_on_c, 0, 74, 82
2, 73532, Note_off_c, 0, 74, 0
2, 73536, Note_on_c, 0, 78, 82
2, 73628, Note_off_c, 0, 78, 0
2, 73632, Note_on_c, 0, 74, 82
2, 73724, Note_off_c, 0, 71, 0
2, 73724, Note_off_c, 0, 74, 0
2, 73728, Note_on_c, 0, 83, 82
2, 73824, Note_on_c, 0, 55, 82
2, 73916, Note_off_c, 0, 55, 0
2, 73920, Note_on_c, 0, 59, 82
2, 74012, Note_off_c, 0, 59, 0
2, 74016, Note_on_c, 0, 64, 82
2, 74108, Note_off_c, 0, 83, 0
2, 74108, Note_off_c, 0, 64, 0
2, 74112, Note_on_c, 0, 67, 82
2, 74208, Note_on_c, 0, 83, 82
2, 74300, Note_off_c, 0, 83, 0
2, 74304, Note_on_c, 0, 79, 82
2, 74396, Note_off_c, 0, 79, 0
2, 74400, Note_on_c, 0, 76, 82
2, 74492, Note_off_c, 0, 67, 0
2, 74492, Note_off_c, 0, 76, 0
2, 74496, Note_on_c, 0, 72, 82
2, 74592, Note_on_c, 0, 57, 82
2, 74684, Note_off_c, 0, 57, 0
2, 74688, Note_on_c, 0, 60, 82
2, 74780, Note_off_c, 0, 60, 0
2, 74784, Note_on_c, 0, 64, 82
2, 74876, Note_off_c, 0, 72, 0
2, 74876, Note_off_c, 0, 64, 0
2, 74880, Note_on_c, 0, 69, 82
2, 74976, Note_on_c, 0, 72, 82
2, 75068, Note_off_c, 0, 72, 0
2, 75072, Note_on_c, 0, 76, 82
2, 75164, Note_off_c, 0, 76, 0
2, 75168, Note_on_c, 0, 72, 82
2, 75260, Note_off_c, 0, 69, 0
2, 75260, Note_off_c, 0, 72, 0
2, 75264, Note_on_c, 0, 81, 82
2, 75360, Note_on_c, 0, 54, 82
2, 75452, Note_off_c, 0, 54, 0
2, 75456, Note_on_c, 0, 57, 82
2, 75548, Note_off_c, 0, 57, 0
2, 75552, Note_on_c, 0, 62, 82
2, 75644, Note_off_c, 0, 81, 0
2, 75644, Note_off_c, 0, 62, 0
2, 75648, Note_on_c, 0, 66, 82
2, 75744, Note_on_c, 0, 81, 82
2, 75836, Note_off_c, 0, 81, 0
2, 75840, Note_on_c, 0, 78, 82
2, 75932, Note_off_c, 0, 78, 0
2, 75936, Note_on_c, 0, 74, 82
2, 76028, Note_off_c, 0, 66, 0
2, 76028, Note_off_c, 0, 74, 0
2, 76032, Note_on_c, 0, 71, 82
2, 76128, Note_on_c, 0, 55, 82
2, 76220, Note_off_c, 0, 55, 0
2, 76224, Note_on_c, 0, 59, 82
2, 76316, Note_off_c, 0, 59, 0
2, 76320, Note_on_c, 0, 62, 82
2, 76412, Note_off_c, 0, 71, 0
2, 76412, Note_off_c, 0, 62, 0
2, 76416, Note_on_c, 0, 67, 82
2, 76512, Note_on_c, 0, 79, 82
2, 76604, Note_off_c, 0, 79, 0
2, 76608, Note_on_c, 0, 74, 82
2, 76700, Note_off_c, 0, 74, 0
2, 76704, Note_on_c, 0, 71, 82
2, 76796, Note_off_c, 0, 67, 0
2, 76796, Note_off_c, 0, 71, 0
2, 76800, Note_on_c, 0, 69, 60
2, 76800, Note_on_c, 0, 64, 60
2, 76800, Note_on_c, 0, 60, 60
2, 76988, Note_off_c, 0, 64, 0
2, 76988, Note_off_c, 0, 60, 0
2, 76992, Note_on_c, 0, 64, 60
2, 76992, Note_on_c, 0, 60, 60
2, 77180, Note_off_c, 0, 64, 0
2, 77180, Note_off_c, 0, 60, 0
2, 77184, Note_on_c, 0, 64, 60
2, 77184, Note_on_c, 0, 60, 60
2, 77372, Note_off_c, 0, 64, 0
2, 77372, Note_off_c, 0, 60, 0
2, 77376, Note_on_c, 0, 64, 60
2, 77376, Note_on_c, 0, 60, 60
2, 77564, Note_off_c, 0, 69, 0
2, 77564, Note_off_c, 0, 64, 0
2, 77564, Note_off_c, 0, 60, 0
2, 77568, Note_on_c, 0, 71, 60
2, 77568, Note_on_c, 0, 64, 60
2, 77568, Note_on_c, 0, 60, 60
2, 77616, Note_off_c, 0, 71, 0
2, 77616, Note_on_c, 0, 72, 60
2, 77756, Note_off_c, 0, 64, 0
2, 77756, Note_off_c, 0, 60, 0
2, 77760, Note_on_c, 0, 64, 60
2, 77760, Note_on_c, 0, 60, 60
2, 77948, Note_off_c, 0, 64, 0
2, 77948, Note_off_c, 0, 60, 0
2, 77952, Note_on_c, 0, 75, 60
2, 77952, Note_on_c, 0, 64, 60
2, 77952, Note_on_c, 0, 60, 60
2, 77964, Note_off_c, 0, 72, 0
2, 78000, Note_off_c, 0, 75, 0
2, 78000, Note_on_c, 0, 76, 60
2, 78140, Note_off_c, 0, 64, 0
2, 78140, Note_off_c, 0, 60, 0
2, 78144, Note_on_c, 0, 64, 60
2, 78144, Note_on_c, 0, 60, 60
2, 78332, Note_off_c, 0, 64, 0
2, 78332, Note_off_c, 0, 60, 0
2, 78336, Note_on_c, 0, 80, 60
2, 78336, Note_on_c, 0, 64, 60
2, 78336, Note_on_c, 0, 60, 60
2, 78348, Note_off_c, 0, 76, 0
2, 78384, Note_off_c, 0, 80, 0
2, 78384, Note_on_c, 0, 81, 60
2, 78524, Note_off_c, 0, 64, 0
2, 78524, Note_off_c, 0, 60, 0
2, 78528, Note_on_c, 0, 64, 60
2, 78528, Note_on_c, 0, 60, 60
2, 78716, Note_off_c, 0, 64, 0
2, 78716, Note_off_c, 0, 60, 0
2, 78720, Note_on_c, 0, 64, 60
2, 78720, Note_on_c, 0, 60, 60
2, 78908, Note_off_c, 0, 64, 0
2, 78908, Note_off_c, 0, 60, 0
2, 78912, Note_on_c, 0, 83, 60
2, 78912, Note_on_c, 0, 64, 60
2, 78912, Note_on_c, 0, 60, 60
2, 78956, Note_off_c, 0, 81, 0
2, 78956, Note_off_c, 0, 83, 0
2, 78960, Note_on_c, 0, 81, 60
2, 79004, Note_off_c, 0, 81, 0
2, 79008, Note_on_c, 0, 80, 60
2, 79052, Note_off_c, 0, 80, 0
2, 79056, Note_on_c, 0, 81, 60
2, 79100, Note_off_c, 0, 64, 0
2, 79100, Note_off_c, 0, 60, 0
2, 79100, Note_off_c, 0, 81, 0
2, 79104, Note_on_c, 0, 84, 60
2, 79104, Note_on_c, 0, 64, 60
2, 79104, Note_on_c, 0, 60, 60
2, 79292, Note_off_c, 0, 84, 0
2, 79292, Note_off_c, 0, 64, 0
2, 79292, Note_off_c, 0, 60, 0
2, 79296, Note_on_c, 0, 81, 60
2, 79296, Note_on_c, 0, 64, 60
2, 79296, Note_on_c, 0, 60, 60
2, 79484, Note_off_c, 0, 81, 0
2, 79484, Note_off_c, 0, 64, 0
2, 79484, Note_off_c, 0, 60, 0
2, 79488, Note_on_c, 0, 84, 60
2, 79488, Note_on_c, 0, 64, 60
2, 79488, Note_on_c, 0, 60, 60
2, 79676, Note_off_c, 0, 84, 0
2, 79676, Note_off_c, 0, 64, 0
2, 79676, Note_off_c, 0, 60, 0
2, 79680, Note_on_c, 0, 81, 60
2, 79680, Note_on_c, 0, 64, 60
2, 79680, Note_on_c, 0, 60, 60
2, 79868, Note_off_c, 0, 81, 0
2, 79868, Note_off_c, 0, 64, 0
2, 79868, Note_off_c, 0, 60, 0
2, 79872, Note_on_c, 0, 83, 90
2, 79872, Note_on_c, 0, 62, 90
2, 79964, Note_off_c, 0, 62, 0
2, 79968, Note_on_c, 0, 71, 90
2, 80060, Note_off_c, 0, 83, 0
2, 80060, Note_off_c, 0, 71, 0
2, 80064, Note_on_c, 0, 79, 90
2, 80064, Note_on_c, 0, 67, 90
2, 80156, Note_off_c, 0, 67, 0
2, 80160, Note_on_c, 0, 71, 90
2, 80252, Note_off_c, 0, 79, 0
2, 80252, Note_off_c, 0, 71, 0
2, 80256, Note_on_c, 0, 62, 90
2, 80272, Note_on_c, 0, 86, 90
2, 80348, Note_off_c, 0, 62, 0
2, 80352, Note_on_c, 0, 71, 90
2, 80444, Note_off_c, 0, 71, 0
2, 80448, Note_on_c, 0, 67, 90
2, 80540, Note_off_c, 0, 67, 0
2, 80544, Note_on_c, 0, 71, 90
2, 80636, Note_off_c, 0, 71, 0
2, 80640, Note_on_c, 0, 62, 90
2, 80732, Note_off_c, 0, 62, 0
2, 80736, Note_on_c, 0, 71, 90
2, 80828, Note_off_c, 0, 71, 0
2, 80832, Note_on_c, 0, 67, 90
2, 80924, Note_off_c, 0, 67, 0
2, 80928, Note_on_c, 0, 71, 90
2, 81020, Note_off_c, 0, 71, 0
2, 81024, Note_on_c, 0, 84, 90
2, 81024, Note_on_c, 0, 62, 90
2, 81036, Note_off_c, 0, 86, 0
2, 81116, Note_off_c, 0, 84, 0
2, 81116, Note_off_c, 0, 62, 0
2, 81120, Note_on_c, 0, 83, 90
2, 81120, Note_on_c, 0, 71, 90
2, 81212, Note_off_c, 0, 83, 0
2, 81212, Note_off_c, 0, 71, 0
2, 81216, Note_on_c, 0, 81, 90
2, 81216, Note_on_c, 0, 67, 90
2, 81308, Note_off_c, 0, 81, 0
2, 81308, Note_off_c, 0, 67, 0
2, 81312, Note_on_c, 0, 79, 90
2, 81312, Note_on_c, 0, 71, 90
2, 81404, Note_off_c, 0, 79, 0
2, 81404, Note_off_c, 0, 71, 0
2, 81408, Note_on_c, 0, 81, 90
2, 81408, Note_on_c, 0, 62, 90
2, 81452, Note_off_c, 0, 81, 0
2, 81456, Note_on_c, 0, 83, 90
2, 81500, Note_off_c, 0, 62, 0
2, 81500, Note_off_c, 0, 83, 0
2, 81504, Note_on_c, 0, 81, 90
2, 81504, Note_on_c, 0, 72, 90
2, 81548, Note_off_c, 0, 81, 0
2, 81552, Note_on_c, 0, 83, 90
2, 81596, Note_off_c, 0, 72, 0
2, 81596, Note_off_c, 0, 83, 0
2, 81600, Note_on_c, 0, 81, 90
2, 81600, Note_on_c, 0, 66, 90
2, 81644, Note_off_c, 0, 81, 0
2, 81648, Note_on_c, 0, 83, 90
2, 81692, Note_off_c, 0, 66, 0
2, 81692, Note_off_c, 0, 83, 0
2, 81696, Note_on_c, 0, 81, 90
2, 81696, Note_on_c, 0, 72, 90
2, 81740, Note_off_c, 0, 81, 0
2, 81744, Note_on_c, 0, 83, 90
2, 81788, Note_off_c, 0, 72, 0
2, 81788, Note_off_c, 0, 83, 0
2, 81792, Note_on_c, 0, 81, 90
2, 81808, Note_on_c, 0, 62, 90
2, 81836, Note_off_c, 0, 81, 0
2, 81840, Note_on_c, 0, 83, 90
2, 81884, Note_off_c, 0, 83, 0
2, 81888, Note_on_c, 0, 81, 90
2, 81888, Note_on_c, 0, 72, 90
2, 81900, Note_off_c, 0, 62, 0
2, 81932, Note_off_c, 0, 81, 0
2, 81936, Note_on_c, 0, 83, 90
2, 81980, Note_off_c, 0, 72, 0
2, 81980, Note_off_c, 0, 83, 0
2, 81984, Note_on_c, 0, 81, 90
2, 81984, Note_on_c, 0, 66, 90
2, 82028, Note_off_c, 0, 81, 0
2, 82032, Note_on_c, 0, 83, 90
2, 82076, Note_off_c, 0, 66, 0
2, 82076, Note_off_c, 0, 83, 0
2, 82080, Note_on_c, 0, 81, 90
2, 82080, Note_on_c, 0, 72, 90
2, 82124, Note_off_c, 0, 81, 0
2, 82128, Note_on_c, 0, 83, 90
2, 82172, Note_off_c, 0, 72, 0
2, 82172, Note_off_c, 0, 83, 0
2, 82176, Note_on_c, 0, 81, 90
2, 82176, Note_on_c, 0, 62, 90
2, 82220, Note_off_c, 0, 81, 0
2, 82224, Note_on_c, 0, 83, 90
2, 82268, Note_off_c, 0, 62, 0
2, 82268, Note_off_c, 0, 83, 0
2, 82272, Note_on_c, 0, 81, 90
2, 82272, Note_on_c, 0, 72, 90
2, 82316, Note_off_c, 0, 81, 0
2, 82320, Note_on_c, 0, 83, 90
2, 82364, Note_off_c, 0, 72, 0
2, 82364, Note_off_c, 0, 83, 0
2, 82368, Note_on_c, 0, 81, 90
2, 82368, Note_on_c, 0, 66, 90
2, 82412, Note_off_c, 0, 81, 0
2, 82416, Note_on_c, 0, 83, 90
2, 82460, Note_off_c, 0, 66, 0
2, 82460, Note_off_c, 0, 83, 0
2, 82464, Note_on_c, 0, 81, 90
2, 82464, Note_on_c, 0, 72, 90
2, 82508, Note_off_c, 0, 81, 0
2, 82512, Note_on_c, 0, 83, 90
2, 82556, Note_off_c, 0, 72, 0
2, 82556, Note_off_c, 0, 83, 0
2, 82560, Note_on_c, 0, 81, 90
2, 82560, Note_on_c, 0, 62, 90
2, 82604, Note_off_c, 0, 81, 0
2, 82608, Note_on_c, 0, 83, 90
2, 82652, Note_off_c, 0, 62, 0
2, 82652, Note_off_c, 0, 83, 0
2, 82656, Note_on_c, 0, 81, 90
2, 82656, Note_on_c, 0, 72, 90
2, 82700, Note_off_c, 0, 81, 0
2, 82704, Note_on_c, 0, 83, 90
2, 82748, Note_off_c, 0, 72, 0
2, 82748, Note_off_c, 0, 83, 0
2, 82752, Note_on_c, 0, 79, 90
2, 82752, Note_on_c, 0, 66, 90
2, 82844, Note_off_c, 0, 79, 0
2, 82844, Note_off_c, 0, 66, 0
2, 82848, Note_on_c, 0, 81, 90
2, 82848, Note_on_c, 0, 72, 90
2, 82940, Note_off_c, 0, 81, 0
2, 82940, Note_off_c, 0, 72, 0
2, 82944, Note_on_c, 0, 79, 90
2, 82944, Note_on_c, 0, 71, 90
2, 82944, Note_on_c, 0, 67, 90
2, 83324, Note_off_c, 0, 79, 0
2, 83324, Note_off_c, 0, 71, 0
2, 83324, Note_off_c, 0, 67, 0
2, 83328, Note_on_c, 0, 79, 90
2, 83420, Note_off_c, 0, 79, 0
2, 83424, Note_on_c, 0, 74, 90
2, 83516, Note_off_c, 0, 74, 0
2, 83520, Note_on_c, 0, 79, 90
2, 83612, Note_off_c, 0, 79, 0
2, 83616, Note_on_c, 0, 83, 90
2, 83708, Note_off_c, 0, 83, 0
2, 83712, Note_on_c, 0, 86, 90
2, 83804, Note_off_c, 0, 86, 0
2, 83808, Note_on_c, 0, 83, 90
2, 83900, Note_off_c, 0, 83, 0
2, 83904, Note_on_c, 0, 79, 90
2, 83996, Note_off_c, 0, 79, 0
2, 84000, Note_on_c, 0, 83, 90
2, 84092, Note_off_c, 0, 83, 0
2, 84096, Note_on_c, 0, 84, 90
2, 84096, Note_on_c, 0, 72, 90
2, 84096, Note_on_c, 0, 69, 90
2, 84096, Note_on_c, 0, 62, 90
2, 84188, Note_off_c, 0, 84, 0
2, 84192, Note_on_c, 0, 81, 90
2, 84284, Note_off_c, 0, 81, 0
2, 84288, Note_on_c, 0, 78, 90
2, 84380, Note_off_c, 0, 78, 0
2, 84384, Note_on_c, 0, 81, 90
2, 84476, Note_off_c, 0, 72, 0
2, 84476, Note_off_c, 0, 69, 0
2, 84476, Note_off_c, 0, 62, 0
2, 84476, Note_off_c, 0, 81, 0
2, 84480, Note_on_c, 0, 79, 90
2, 84480, Note_on_c, 0, 67, 90
2, 84480, Note_on_c, 0, 71, 90
2, 84860, Note_off_c, 0, 79, 0
2, 84860, Note_off_c, 0, 67, 0
2, 84860, Note_off_c, 0, 71, 0
2, 84864, Note_on_c, 0, 67, 90
2, 84944, Note_on_c, 0, 62, 90
2, 84956, Note_off_c, 0, 67, 0
2, 85036, Note_off_c, 0, 62, 0
2, 85056, Note_on_c, 0, 67, 90
2, 85148, Note_off_c, 0, 67, 0
2, 85152, Note_on_c, 0, 71, 90
2, 85244, Note_off_c, 0, 71, 0
2, 85248, Note_on_c, 0, 74, 90
2, 85340, Note_off_c, 0, 74, 0
2, 85344, Note_on_c, 0, 71, 90
2, 85436, Note_off_c, 0, 71, 0
2, 85440, Note_on_c, 0, 67, 90
2, 85532, Note_off_c, 0, 67, 0
2, 85536, Note_on_c, 0, 71, 90
2, 85628, Note_off_c, 0, 71, 0
2, 85632, Note_on_c, 0, 72, 90
2, 85724, Note_off_c, 0, 72, 0
2, 85728, Note_on_c, 0, 69, 90
2, 85820, Note_off_c, 0, 69, 0
2, 85824, Note_on_c, 0, 66, 90
2, 85916, Note_off_c, 0, 66, 0
2, 85920, Note_on_c, 0, 69, 90
2, 86012, Note_off_c, 0, 69, 0
2, 86016, Note_on_c, 0, 67, 90
2, 86396, Note_off_c, 0, 67, 0
2, 86400, Note_on_c, 0, 83, 90
2, 86400, Note_on_c, 0, 74, 90
2, 86780, Note_off_c, 0, 83, 0
2, 86780, Note_off_c, 0, 74, 0
2, 86784, Note_on_c, 0, 79, 90
2, 86784, Note_on_c, 0, 71, 90
2, 87164, Note_off_c, 0, 79, 0
2, 87164, Note_off_c, 0, 71, 0
2, 87552, Note_on_c, 0, 67, 90
2, 87932, Note_off_c, 0, 67, 0
2, 87936, Note_on_c, 0, 79, 82
2, 88016, Note_on_c, 0, 74, 82
2, 88028, Note_off_c, 0, 79, 0
2, 88108, Note_off_c, 0, 74, 0
2, 88128, Note_on_c, 0, 79, 82
2, 88220, Note_off_c, 0, 79, 0
2, 88224, Note_on_c, 0, 82, 82
2, 88316, Note_off_c, 0, 82, 0
2, 88320, Note_on_c, 0, 86, 82
2, 88412, Note_off_c, 0, 86, 0
2, 88416, Note_on_c, 0, 82, 82
2, 88508, Note_off_c, 0, 82, 0
2, 88512, Note_on_c, 0, 79, 82
2, 88604, Note_off_c, 0, 79, 0
2, 88608, Note_on_c, 0, 82, 82
2, 88700, Note_off_c, 0, 82, 0
2, 88704, Note_on_c, 0, 84, 82
2, 88704, Note_on_c, 0, 72, 82
2, 88704, Note_on_c, 0, 69, 82
2, 88704, Note_on_c, 0, 62, 82
2, 88796, Note_off_c, 0, 84, 0
2, 88800, Note_on_c, 0, 81, 82
2, 88892, Note_off_c, 0, 81, 0
2, 88896, Note_on_c, 0, 78, 82
2, 88988, Note_off_c, 0, 78, 0
2, 88992, Note_on_c, 0, 81, 82
2, 89084, Note_off_c, 0, 72, 0
2, 89084, Note_off_c, 0, 69, 0
2, 89084, Note_off_c, 0, 62, 0
2, 89084, Note_off_c, 0, 81, 0
2, 89088, Note_on_c, 0, 79, 82
2, 89088, Note_on_c, 0, 70, 82
2, 89088, Note_on_c, 0, 67, 82
2, 89456, Note_on_c, 0, 67, 82
2, 89468, Note_off_c, 0, 79, 0
2, 89468, Note_off_c, 0, 70, 0
2, 89468, Note_off_c, 0, 67, 0
2, 89548, Note_off_c, 0, 67, 0
2, 89568, Note_on_c, 0, 62, 82
2, 89660, Note_off_c, 0, 62, 0
2, 89664, Note_on_c, 0, 67, 82
2, 89756, Note_off_c, 0, 67, 0
2, 89760, Note_on_c, 0, 70, 82
2, 89852, Note_off_c, 0, 70, 0
2, 89856, Note_on_c, 0, 74, 82
2, 89948, Note_off_c, 0, 74, 0
2, 89952, Note_on_c, 0, 70, 82
2, 90044, Note_off_c, 0, 70, 0
2, 90048, Note_on_c, 0, 67, 82
2, 90140, Note_off_c, 0, 67, 0
2, 90144, Note_on_c, 0, 70, 82
2, 90236, Note_off_c, 0, 70, 0
2, 90240, Note_on_c, 0, 74, 82
2, 90332, Note_off_c, 0, 74, 0
2, 90336, Note_on_c, 0, 69, 82
2, 90428, Note_off_c, 0, 69, 0
2, 90432, Note_on_c, 0, 66, 82
2, 90524, Note_off_c, 0, 66, 0
2, 90528, Note_on_c, 0, 69, 82
2, 90620, Note_off_c, 0, 69, 0
2, 90624, Note_on_c, 0, 67, 82
2, 91004, Note_off_c, 0, 67, 0
2, 91488, Note_on_c, 0, 79, 82
2, 91580, Note_off_c, 0, 79, 0
2, 91584, Note_on_c, 0, 82, 82
2, 91676, Note_off_c, 0, 82, 0
2, 91680, Note_on_c, 0, 81, 82
2, 91772, Note_off_c, 0, 81, 0
2, 91776, Note_on_c, 0, 79, 82
2, 91868, Note_off_c, 0, 79, 0
2, 91872, Note_on_c, 0, 77, 82
2, 91964, Note_off_c, 0, 77, 0
2, 91968, Note_on_c, 0, 76, 82
2, 92060, Note_off_c, 0, 76, 0
2, 92064, Note_on_c, 0, 74, 82
2, 92156, Note_off_c, 0, 74, 0
2, 92160, Note_on_c, 0, 73, 90
2, 92540, Note_off_c, 0, 73, 0
2, 93024, Note_on_c, 0, 85, 82
2, 93116, Note_off_c, 0, 85, 0
2, 93120, Note_on_c, 0, 88, 82
2, 93212, Note_off_c, 0, 88, 0
2, 93216, Note_on_c, 0, 86, 82
2, 93308, Note_off_c, 0, 86, 0
2, 93312, Note_on_c, 0, 85, 82
2, 93404, Note_off_c, 0, 85, 0
2, 93408, Note_on_c, 0, 82, 82
2, 93500, Note_off_c, 0, 82, 0
2, 93504, Note_on_c, 0, 81, 82
2, 93596, Note_off_c, 0, 81, 0
2, 93600, Note_on_c, 0, 79, 82
2, 93692, Note_off_c, 0, 79, 0
2, 93696, Note_on_c, 0, 77, 90
2, 94076, Note_off_c, 0, 77, 0
2, 94080, Note_on_c, 0, 74, 82
2, 94172, Note_off_c, 0, 74, 0
2, 94176, Note_on_c, 0, 69, 82
2, 94268, Note_off_c, 0, 69, 0
2, 94272, Note_on_c, 0, 74, 82
2, 94364, Note_off_c, 0, 74, 0
2, 94368, Note_on_c, 0, 77, 82
2, 94460, Note_off_c, 0, 77, 0
2, 94464, Note_on_c, 0, 81, 82
2, 94556, Note_off_c, 0, 81, 0
2, 94560, Note_on_c, 0, 77, 82
2, 94652, Note_off_c, 0, 77, 0
2, 94656, Note_on_c, 0, 74, 82
2, 94748, Note_off_c, 0, 74, 0
2, 94752, Note_on_c, 0, 77, 82
2, 94844, Note_off_c, 0, 77, 0
2, 94848, Note_on_c, 0, 79, 82
2, 94848, Note_on_c, 0, 64, 82
2, 94848, Note_on_c, 0, 67, 82
2, 94848, Note_on_c, 0, 57, 82
2, 94940, Note_off_c, 0, 79, 0
2, 94944, Note_on_c, 0, 76, 82
2, 95036, Note_off_c, 0, 76, 0
2, 95040, Note_on_c, 0, 73, 82
2, 95132, Note_off_c, 0, 73, 0
2, 95136, Note_on_c, 0, 76, 82
2, 95228, Note_off_c, 0, 64, 0
2, 95228, Note_off_c, 0, 67, 0
2, 95228, Note_off_c, 0, 57, 0
2, 95228, Note_off_c, 0, 76, 0
2, 95232, Note_on_c, 0, 74, 90
2, 95232, Note_on_c, 0, 62, 82
2, 95232, Note_on_c, 0, 65, 82
2, 95612, Note_off_c, 0, 74, 0
2, 95612, Note_off_c, 0, 62, 0
2, 95612, Note_off_c, 0, 65, 0
2, 95616, Note_on_c, 0, 62, 82
2, 95708, Note_off_c, 0, 62, 0
2, 95712, Note_on_c, 0, 57, 82
2, 95804, Note_off_c, 0, 57, 0
2, 95808, Note_on_c, 0, 62, 82
2, 95900, Note_off_c, 0, 62, 0
2, 95904, Note_on_c, 0, 65, 82
2, 95996, Note_off_c, 0, 65, 0
2, 96000, Note_on_c, 0, 69, 82
2, 96092, Note_off_c, 0, 69, 0
2, 96096, Note_on_c, 0, 65, 82
2, 96188, Note_off_c, 0, 65, 0
2, 96192, Note_on_c, 0, 62, 82
2, 96284, Note_off_c, 0, 62, 0
2, 96288, Note_on_c, 0, 65, 82
2, 96380, Note_off_c, 0, 65, 0
2, 96384, Note_on_c, 0, 67, 82
2, 96476, Note_off_c, 0, 67, 0
2, 96480, Note_on_c, 0, 64, 82
2, 96572, Note_off_c, 0, 64, 0
2, 96576, Note_on_c, 0, 61, 82
2, 96668, Note_off_c, 0, 61, 0
2, 96672, Note_on_c, 0, 64, 82
2, 96764, Note_off_c, 0, 64, 0
2, 96864, Note_on_c, 0, 62, 82
2, 96956, Note_off_c, 0, 62, 0
2, 96960, Note_on_c, 0, 64, 82
2, 97052, Note_off_c, 0, 64, 0
2, 97056, Note_on_c, 0, 65, 82
2, 97148, Note_off_c, 0, 65, 0
2, 97152, Note_on_c, 0, 67, 82
2, 97244, Note_off_c, 0, 67, 0
2, 97248, Note_on_c, 0, 69, 82
2, 97340, Note_off_c, 0, 69, 0
2, 97344, Note_on_c, 0, 71, 82
2, 97436, Note_off_c, 0, 71, 0
2, 97440, Note_on_c, 0, 73, 82
2, 97532, Note_off_c, 0, 73, 0
2, 97536, Note_on_c, 0, 74, 90
2, 97916, Note_off_c, 0, 74, 0
2, 98400, Note_on_c, 0, 71, 82
2, 98492, Note_off_c, 0, 71, 0
2, 98496, Note_on_c, 0, 72, 82
2, 98588, Note_off_c, 0, 72, 0
2, 98592, Note_on_c, 0, 74, 82
2, 98684, Note_off_c, 0, 74, 0
2, 98688, Note_on_c, 0, 76, 82
2, 98780, Note_off_c, 0, 76, 0
2, 98784, Note_on_c, 0, 78, 82
2, 98876, Note_off_c, 0, 78, 0
2, 98880, Note_on_c, 0, 80, 82
2, 98972, Note_off_c, 0, 80, 0
2, 98976, Note_on_c, 0, 81, 82
2, 99068, Note_off_c, 0, 81, 0
2, 99072, Note_on_c, 0, 83, 90
2, 99452, Note_off_c, 0, 83, 0
2, 99936, Note_on_c, 0, 81, 82
2, 100028, Note_off_c, 0, 81, 0
2, 100032, Note_on_c, 0, 88, 82
2, 100124, Note_off_c, 0, 88, 0
2, 100128, Note_on_c, 0, 86, 82
2, 100220, Note_off_c, 0, 86, 0
2, 100224, Note_on_c, 0, 84, 82
2, 100316, Note_off_c, 0, 84, 0
2, 100320, Note_on_c, 0, 83, 82
2, 100412, Note_off_c, 0, 83, 0
2, 100416, Note_on_c, 0, 81, 82
2, 100508, Note_off_c, 0, 81, 0
2, 100512, Note_on_c, 0, 79, 82
2, 100604, Note_off_c, 0, 79, 0
2, 100608, Note_on_c, 0, 77, 90
2, 100704, Note_on_c, 0, 62, 82
2, 100796, Note_off_c, 0, 62, 0
2, 100800, Note_on_c, 0, 69, 82
2, 100892, Note_off_c, 0, 69, 0
2, 100896, Note_on_c, 0, 67, 82
2, 100988, Note_off_c, 0, 77, 0
2, 100988, Note_off_c, 0, 67, 0
2, 100992, Note_on_c, 0, 65, 82
2, 101084, Note_off_c, 0, 65, 0
2, 101088, Note_on_c, 0, 64, 82
2, 101180, Note_off_c, 0, 64, 0
2, 101184, Note_on_c, 0, 62, 82
2, 101276, Note_off_c, 0, 62, 0
2, 101296, Note_on_c, 0, 60, 82
2, 101376, Note_on_c, 0, 59, 90
2, 101388, Note_off_c, 0, 60, 0
2, 101488, Note_on_c, 0, 79, 82
2, 101568, Note_on_c, 0, 86, 82
2, 101580, Note_off_c, 0, 79, 0
2, 101660, Note_off_c, 0, 86, 0
2, 101664, Note_on_c, 0, 84, 82
2, 101756, Note_off_c, 0, 59, 0
2, 101756, Note_off_c, 0, 84, 0
2, 101760, Note_on_c, 0, 83, 82
2, 101852, Note_off_c, 0, 83, 0
2, 101856, Note_on_c, 0, 81, 82
2, 101948, Note_off_c, 0, 81, 0
2, 101952, Note_on_c, 0, 79, 82
2, 102044, Note_off_c, 0, 79, 0
2, 102048, Note_on_c, 0, 77, 82
2, 102140, Note_off_c, 0, 77, 0
2, 102144, Note_on_c, 0, 76, 90
2, 102240, Note_on_c, 0, 60, 82
2, 102332, Note_off_c, 0, 60, 0
2, 102336, Note_on_c, 0, 67, 82
2, 102428, Note_off_c, 0, 67, 0
2, 102432, Note_on_c, 0, 65, 82
2, 102524, Note_off_c, 0, 76, 0
2, 102524, Note_off_c, 0, 65, 0
2, 102528, Note_on_c, 0, 64, 82
2, 102620, Note_off_c, 0, 64, 0
2, 102624, Note_on_c, 0, 62, 82
2, 102716, Note_off_c, 0, 62, 0
2, 102720, Note_on_c, 0, 60, 82
2, 102812, Note_off_c, 0, 60, 0
2, 102816, Note_on_c, 0, 59, 82
2, 102908, Note_off_c, 0, 59, 0
2, 102912, Note_on_c, 0, 57, 90
2, 103008, Note_on_c, 0, 77, 82
2, 103100, Note_off_c, 0, 77, 0
2, 103104, Note_on_c, 0, 84, 82
2, 103196, Note_off_c, 0, 84, 0
2, 103200, Note_on_c, 0, 83, 82
2, 103292, Note_off_c, 0, 57, 0
2, 103292, Note_off_c, 0, 83, 0
2, 103296, Note_on_c, 0, 81, 82
2, 103388, Note_off_c, 0, 81, 0
2, 103392, Note_on_c, 0, 79, 82
2, 103484, Note_off_c, 0, 79, 0
2, 103488, Note_on_c, 0, 77, 82
2, 103580, Note_off_c, 0, 77, 0
2, 103584, Note_on_c, 0, 76, 82
2, 103676, Note_off_c, 0, 76, 0
2, 103680, Note_on_c, 0, 74, 90
2, 104060, Note_off_c, 0, 74, 0
2, 104544, Note_on_c, 0, 76, 82
2, 104636, Note_off_c, 0, 76, 0
2, 104640, Note_on_c, 0, 83, 82
2, 104732, Note_off_c, 0, 83, 0
2, 104736, Note_on_c, 0, 81, 82
2, 104828, Note_off_c, 0, 81, 0
2, 104832, Note_on_c, 0, 80, 82
2, 104924, Note_off_c, 0, 80, 0
2, 104928, Note_on_c, 0, 77, 82
2, 105020, Note_off_c, 0, 77, 0
2, 105024, Note_on_c, 0, 76, 82
2, 105116, Note_off_c, 0, 76, 0
2, 105120, Note_on_c, 0, 74, 82
2, 105212, Note_off_c, 0, 74, 0
2, 105216, Note_on_c, 0, 72, 90
2, 105596, Note_off_c, 0, 72, 0
2, 106080, Note_on_c, 0, 70, 82
2, 106172, Note_off_c, 0, 70, 0
2, 106176, Note_on_c, 0, 74, 82
2, 106268, Note_off_c, 0, 74, 0
2, 106272, Note_on_c, 0, 72, 82
2, 106364, Note_off_c, 0, 72, 0
2, 106368, Note_on_c, 0, 70, 82
2, 106460, Note_off_c, 0, 70, 0
2, 106464, Note_on_c, 0, 69, 82
2, 106556, Note_off_c, 0, 69, 0
2, 106560, Note_on_c, 0, 67, 82
2, 106652, Note_off_c, 0, 67, 0
2, 106656, Note_on_c, 0, 65, 82
2, 106748, Note_off_c, 0, 65, 0
2, 106752, Note_on_c, 0, 64, 82
2, 106844, Note_off_c, 0, 64, 0
2, 106848, Note_on_c, 0, 65, 82
2, 106940, Note_off_c, 0, 65, 0
2, 106944, Note_on_c, 0, 67, 82
2, 107036, Note_off_c, 0, 67, 0
2, 107040, Note_on_c, 0, 69, 82
2, 107132, Note_off_c, 0, 69, 0
2, 107136, Note_on_c, 0, 70, 82
2, 107228, Note_off_c, 0, 70, 0
2, 107232, Note_on_c, 0, 72, 82
2, 107324, Note_off_c, 0, 72, 0
2, 107328, Note_on_c, 0, 74, 82
2, 107420, Note_off_c, 0, 74, 0
2, 107424, Note_on_c, 0, 76, 82
2, 107516, Note_off_c, 0, 76, 0
2, 107520, Note_on_c, 0, 77, 60
2, 107520, Note_on_c, 0, 65, 60
2, 107708, Note_off_c, 0, 65, 0
2, 107712, Note_on_c, 0, 72, 60
2, 107900, Note_off_c, 0, 72, 0
2, 107904, Note_on_c, 0, 69, 60
2, 108092, Note_off_c, 0, 69, 0
2, 108096, Note_on_c, 0, 72, 60
2, 108284, Note_off_c, 0, 77, 0
2, 108284, Note_off_c, 0, 72, 0
2, 108288, Note_on_c, 0, 81, 60
2, 108288, Note_on_c, 0, 65, 60
2, 108476, Note_off_c, 0, 65, 0
2, 108480, Note_on_c, 0, 72, 60
2, 108668, Note_off_c, 0, 81, 0
2, 108668, Note_off_c, 0, 72, 0
2, 108672, Note_on_c, 0, 84, 60
2, 108672, Note_on_c, 0, 69, 60
2, 108860, Note_off_c, 0, 69, 0
2, 108864, Note_on_c, 0, 72, 60
2, 109052, Note_off_c, 0, 84, 0
2, 109052, Note_off_c, 0, 72, 0
2, 109056, Note_on_c, 0, 76, 60
2, 109056, Note_on_c, 0, 67, 60
2, 109244, Note_off_c, 0, 67, 0
2, 109248, Note_on_c, 0, 72, 60
2, 109436, Note_off_c, 0, 72, 0
2, 109440, Note_on_c, 0, 70, 60
2, 109628, Note_off_c, 0, 76, 0
2, 109628, Note_off_c, 0, 70, 0
2, 109632, Note_on_c, 0, 77, 60
2, 109632, Note_on_c, 0, 72, 60
2, 109724, Note_off_c, 0, 77, 0
2, 109728, Note_on_c, 0, 79, 60
2, 109820, Note_off_c, 0, 72, 0
2, 109820, Note_off_c, 0, 79, 0
2, 109824, Note_on_c, 0, 77, 60
2, 109824, Note_on_c, 0, 65, 60
2, 110012, Note_off_c, 0, 65, 0
2, 110016, Note_on_c, 0, 72, 60
2, 110204, Note_off_c, 0, 77, 0
2, 110204, Note_off_c, 0, 72, 0
2, 110208, Note_on_c, 0, 69, 60
2, 110396, Note_off_c, 0, 69, 0
2, 110416, Note_on_c, 0, 72, 60
2, 110592, Note_on_c, 0, 86, 60
2, 110592, Note_on_c, 0, 65, 60
2, 110604, Note_off_c, 0, 72, 0
2, 110780, Note_off_c, 0, 65, 0
2, 110784, Note_on_c, 0, 74, 60
2, 110972, Note_off_c, 0, 74, 0
2, 110976, Note_on_c, 0, 70, 60
2, 111164, Note_off_c, 0, 70, 0
2, 111168, Note_on_c, 0, 74, 60
2, 111356, Note_off_c, 0, 86, 0
2, 111356, Note_off_c, 0, 74, 0
2, 111360, Note_on_c, 0, 84, 60
2, 111360, Note_on_c, 0, 65, 60
2, 111548, Note_off_c, 0, 65, 0
2, 111552, Note_on_c, 0, 72, 60
2, 111740, Note_off_c, 0, 84, 0
2, 111740, Note_off_c, 0, 72, 0
2, 111744, Note_on_c, 0, 89, 60
2, 111744, Note_on_c, 0, 69, 60
2, 111932, Note_off_c, 0, 69, 0
2, 111936, Note_on_c, 0, 72, 60
2, 112124, Note_off_c, 0, 89, 0
2, 112124, Note_off_c, 0, 72, 0
2, 112128, Note_on_c, 0, 84, 60
2, 112128, Note_on_c, 0, 64, 60
2, 112316, Note_off_c, 0, 64, 0
2, 112320, Note_on_c, 0, 72, 60
2, 112508, Note_off_c, 0, 84, 0
2, 112508, Note_off_c, 0, 72, 0
2, 112512, Note_on_c, 0, 82, 60
2, 112512, Note_on_c, 0, 67, 60
2, 112556, Note_off_c, 0, 82, 0
2, 112560, Note_on_c, 0, 84, 60
2, 112604, Note_off_c, 0, 84, 0
2, 112608, Note_on_c, 0, 81, 60
2, 112652, Note_off_c, 0, 81, 0
2, 112656, Note_on_c, 0, 82, 60
2, 112700, Note_off_c, 0, 67, 0
2, 112700, Note_off_c, 0, 82, 0
2, 112704, Note_on_c, 0, 81, 60
2, 112704, Note_on_c, 0, 72, 60
2, 112796, Note_off_c, 0, 81, 0
2, 112800, Note_on_c, 0, 82, 60
2, 112892, Note_off_c, 0, 72, 0
2, 112892, Note_off_c, 0, 82, 0
2, 112896, Note_on_c, 0, 81, 60
2, 112896, Note_on_c, 0, 65, 60
2, 113084, Note_off_c, 0, 65, 0
2, 113088, Note_on_c, 0, 72, 60
2, 113276, Note_off_c, 0, 81, 0
2, 113276, Note_off_c, 0, 72, 0
2, 113280, Note_on_c, 0, 69, 60
2, 113468, Note_off_c, 0, 69, 0
2, 113472, Note_on_c, 0, 72, 60
2, 113660, Note_off_c, 0, 72, 0
2, 113664, Note_on_c, 0, 74, 60
2, 113664, Note_on_c, 0, 70, 60
2, 113852, Note_off_c, 0, 74, 0
2, 113856, Note_on_c, 0, 76, 60
2, 113948, Note_off_c, 0, 76, 0
2, 113952, Note_on_c, 0, 77, 60
2, 114044, Note_off_c, 0, 70, 0
2, 114044, Note_off_c, 0, 77, 0
2, 114048, Note_on_c, 0, 79, 60
2, 114140, Note_off_c, 0, 79, 0
2, 114144, Note_on_c, 0, 81, 60
2, 114236, Note_off_c, 0, 81, 0
2, 114256, Note_on_c, 0, 82, 60
2, 114336, Note_on_c, 0, 84, 60
2, 114348, Note_off_c, 0, 82, 0
2, 114428, Note_off_c, 0, 84, 0
2, 114432, Note_on_c, 0, 86, 60
2, 114524, Note_off_c, 0, 86, 0
2, 114528, Note_on_c, 0, 84, 60
2, 114620, Note_off_c, 0, 84, 0
2, 114624, Note_on_c, 0, 82, 60
2, 114716, Note_off_c, 0, 82, 0
2, 114720, Note_on_c, 0, 81, 60
2, 114812, Note_off_c, 0, 81, 0
2, 114816, Note_on_c, 0, 79, 60
2, 114908, Note_off_c, 0, 79, 0
2, 114912, Note_on_c, 0, 77, 60
2, 115004, Note_off_c, 0, 77, 0
2, 115008, Note_on_c, 0, 76, 60
2, 115100, Note_off_c, 0, 76, 0
2, 115104, Note_on_c, 0, 74, 60
2, 115196, Note_off_c, 0, 74, 0
2, 115200, Note_on_c, 0, 72, 60
2, 115388, Note_off_c, 0, 72, 0
2, 115392, Note_on_c, 0, 74, 60
2, 115484, Note_off_c, 0, 74, 0
2, 115488, Note_on_c, 0, 76, 60
2, 115580, Note_off_c, 0, 76, 0
2, 115584, Note_on_c, 0, 77, 60
2, 115676, Note_off_c, 0, 77, 0
2, 115680, Note_on_c, 0, 79, 60
2, 115772, Note_off_c, 0, 79, 0
2, 115776, Note_on_c, 0, 81, 60
2, 115868, Note_off_c, 0, 81, 0
2, 115872, Note_on_c, 0, 82, 60
2, 115964, Note_off_c, 0, 82, 0
2, 115968, Note_on_c, 0, 84, 60
2, 116060, Note_off_c, 0, 84, 0
2, 116064, Note_on_c, 0, 82, 60
2, 116156, Note_off_c, 0, 82, 0
2, 116160, Note_on_c, 0, 81, 60
2, 116252, Note_off_c, 0, 81, 0
2, 116256, Note_on_c, 0, 79, 60
2, 116348, Note_off_c, 0, 79, 0
2, 116352, Note_on_c, 0, 77, 60
2, 116444, Note_off_c, 0, 77, 0
2, 116448, Note_on_c, 0, 76, 60
2, 116540, Note_off_c, 0, 76, 0
2, 116544, Note_on_c, 0, 74, 60
2, 116636, Note_off_c, 0, 74, 0
2, 116640, Note_on_c, 0, 72, 60
2, 116732, Note_off_c, 0, 72, 0
2, 116736, Note_on_c, 0, 70, 60
2, 116924, Note_off_c, 0, 70, 0
2, 116928, Note_on_c, 0, 72, 60
2, 117020, Note_off_c, 0, 72, 0
2, 117024, Note_on_c, 0, 74, 60
2, 117116, Note_off_c, 0, 74, 0
2, 117120, Note_on_c, 0, 76, 60
2, 117212, Note_off_c, 0, 76, 0
2, 117216, Note_on_c, 0, 77, 60
2, 117308, Note_off_c, 0, 77, 0
2, 117312, Note_on_c, 0, 79, 60
2, 117404, Note_off_c, 0, 79, 0
2, 117408, Note_on_c, 0, 81, 60
2, 117500, Note_off_c, 0, 81, 0
2, 117504, Note_on_c, 0, 82, 60
2, 117596, Note_off_c, 0, 82, 0
2, 117600, Note_on_c, 0, 81, 60
2, 117692, Note_off_c, 0, 81, 0
2, 117696, Note_on_c, 0, 79, 60
2, 117788, Note_off_c, 0, 79, 0
2, 117792, Note_on_c, 0, 77, 60
2, 117884, Note_off_c, 0, 77, 0
2, 117888, Note_on_c, 0, 76, 60
2, 117980, Note_off_c, 0, 76, 0
2, 117984, Note_on_c, 0, 74, 60
2, 118076, Note_off_c, 0, 74, 0
2, 118080, Note_on_c, 0, 72, 60
2, 118172, Note_off_c, 0, 72, 0
2, 118176, Note_on_c, 0, 70, 60
2, 118268, Note_off_c, 0, 70, 0
2, 118272, Note_on_c, 0, 69, 60
2, 118460, Note_off_c, 0, 69, 0
2, 118464, Note_on_c, 0, 70, 60
2, 118556, Note_off_c, 0, 70, 0
2, 118560, Note_on_c, 0, 72, 60
2, 118652, Note_off_c, 0, 72, 0
2, 118656, Note_on_c, 0, 74, 60
2, 118748, Note_off_c, 0, 74, 0
2, 118752, Note_on_c, 0, 76, 60
2, 118844, Note_off_c, 0, 76, 0
2, 118848, Note_on_c, 0, 77, 60
2, 118940, Note_off_c, 0, 77, 0
2, 118944, Note_on_c, 0, 79, 60
2, 119036, Note_off_c, 0, 79, 0
2, 119040, Note_on_c, 0, 81, 60
2, 119132, Note_off_c, 0, 81, 0
2, 119136, Note_on_c, 0, 79, 60
2, 119228, Note_off_c, 0, 79, 0
2, 119232, Note_on_c, 0, 77, 60
2, 119324, Note_off_c, 0, 77, 0
2, 119328, Note_on_c, 0, 76, 60
2, 119420, Note_off_c, 0, 76, 0
2, 119440, Note_on_c, 0, 74, 60
2, 119520, Note_on_c, 0, 72, 60
2, 119532, Note_off_c, 0, 74, 0
2, 119612, Note_off_c, 0, 72, 0
2, 119616, Note_on_c, 0, 70, 60
2, 119708, Note_off_c, 0, 70, 0
2, 119712, Note_on_c, 0, 69, 60
2, 119804, Note_off_c, 0, 69, 0
2, 119808, Note_on_c, 0, 81, 60
2, 120188, Note_off_c, 0, 81, 0
2, 120960, Note_on_c, 0, 81, 60
2, 120960, Note_on_c, 0, 72, 60
2, 121340, Note_off_c, 0, 81, 0
2, 121340, Note_off_c, 0, 72, 0
2, 121344, Note_on_c, 0, 79, 60
2, 121344, Note_on_c, 0, 72, 60
2, 121724, Note_off_c, 0, 79, 0
2, 121724, Note_off_c, 0, 72, 0
2, 122496, Note_on_c, 0, 79, 60
2, 122512, Note_on_c, 0, 72, 60
2, 122876, Note_off_c, 0, 79, 0
2, 122880, Note_on_c, 0, 77, 60
2, 122880, Note_on_c, 0, 72, 60
2, 122892, Note_off_c, 0, 72, 0
2, 123260, Note_off_c, 0, 77, 0
2, 123260, Note_off_c, 0, 72, 0
2, 124032, Note_on_c, 0, 77, 60
2, 124032, Note_on_c, 0, 71, 60
2, 124412, Note_off_c, 0, 77, 0
2, 124412, Note_off_c, 0, 71, 0
2, 124416, Note_on_c, 0, 76, 60
2, 124432, Note_on_c, 0, 72, 60
2, 124796, Note_off_c, 0, 76, 0
2, 124812, Note_off_c, 0, 72, 0
2, 125952, Note_on_c, 0, 74, 60
2, 126044, Note_off_c, 0, 74, 0
2, 126048, Note_on_c, 0, 62, 60
2, 126140, Note_off_c, 0, 62, 0
2, 126144, Note_on_c, 0, 64, 60
2, 126236, Note_off_c, 0, 64, 0
2, 126240, Note_on_c, 0, 65, 60
2, 126332, Note_off_c, 0, 65, 0
2, 126336, Note_on_c, 0, 67, 60
2, 126428, Note_off_c, 0, 67, 0
2, 126432, Note_on_c, 0, 69, 60
2, 126524, Note_off_c, 0, 69, 0
2, 126528, Note_on_c, 0, 71, 60
2, 126620, Note_off_c, 0, 71, 0
2, 126624, Note_on_c, 0, 73, 60
2, 126716, Note_off_c, 0, 73, 0
2, 126720, Note_on_c, 0, 74, 60
2, 126812, Note_off_c, 0, 74, 0
2, 126816, Note_on_c, 0, 69, 60
2, 126908, Note_off_c, 0, 69, 0
2, 126912, Note_on_c, 0, 71, 60
2, 127004, Note_off_c, 0, 71, 0
2, 127008, Note_on_c, 0, 73, 60
2, 127100, Note_off_c, 0, 73, 0
2, 127104, Note_on_c, 0, 74, 60
2, 127196, Note_off_c, 0, 74, 0
2, 127200, Note_on_c, 0, 76, 60
2, 127292, Note_off_c, 0, 76, 0
2, 127296, Note_on_c, 0, 77, 61
2, 127388, Note_off_c, 0, 77, 0
2, 127392, Note_on_c, 0, 79, 63
2, 127484, Note_off_c, 0, 79, 0
2, 127488, Note_on_c, 0, 81, 64
2, 127580, Note_off_c, 0, 81, 0
2, 127584, Note_on_c, 0, 83, 66
2, 127676, Note_off_c, 0, 83, 0
2, 127680, Note_on_c, 0, 84, 67
2, 127772, Note_off_c, 0, 84, 0
2, 127776, Note_on_c, 0, 83, 69
2, 127868, Note_off_c, 0, 83, 0
2, 127872, Note_on_c, 0, 81, 70
2, 127964, Note_off_c, 0, 81, 0
2, 127968, Note_on_c, 0, 79, 72
2, 128060, Note_off_c, 0, 79, 0
2, 128064, Note_on_c, 0, 77, 73
2, 128156, Note_off_c, 0, 77, 0
2, 128160, Note_on_c, 0, 76, 75
2, 128252, Note_off_c, 0, 76, 0
2, 128256, Note_on_c, 0, 77, 76
2, 128348, Note_off_c, 0, 77, 0
2, 128352, Note_on_c, 0, 79, 78
2, 128444, Note_off_c, 0, 79, 0
2, 128448, Note_on_c, 0, 81, 79
2, 128540, Note_off_c, 0, 81, 0
2, 128544, Note_on_c, 0, 79, 81
2, 128636, Note_off_c, 0, 79, 0
2, 128640, Note_on_c, 0, 77, 82
2, 128732, Note_off_c, 0, 77, 0
2, 128736, Note_on_c, 0, 76, 84
2, 128828, Note_off_c, 0, 76, 0
2, 128832, Note_on_c, 0, 74, 85
2, 128924, Note_off_c, 0, 74, 0
2, 128928, Note_on_c, 0, 72, 87
2, 129020, Note_off_c, 0, 72, 0
2, 129024, Note_on_c, 0, 71, 90
2, 129212, Note_off_c, 0, 71, 0
2, 129216, Note_on_c, 0, 79, 90
2, 129404, Note_off_c, 0, 79, 0
2, 129408, Note_on_c, 0, 76, 90
2, 129596, Note_off_c, 0, 76, 0
2, 129600, Note_on_c, 0, 72, 90
2, 129788, Note_off_c, 0, 72, 0
2, 129792, Note_on_c, 0, 74, 90
2, 129980, Note_off_c, 0, 74, 0
2, 129984, Note_on_c, 0, 79, 90
2, 130172, Note_off_c, 0, 79, 0
2, 130176, Note_on_c, 0, 76, 90
2, 130364, Note_off_c, 0, 76, 0
2, 130368, Note_on_c, 0, 72, 90
2, 130556, Note_off_c, 0, 72, 0
2, 130560, Note_on_c, 0, 74, 90
2, 130940, Note_off_c, 0, 74, 0
2, 130944, Note_on_c, 0, 79, 90
2, 130944, Note_on_c, 0, 74, 90
2, 130944, Note_on_c, 0, 71, 90
2, 131324, Note_off_c, 0, 79, 0
2, 131324, Note_off_c, 0, 74, 0
2, 131324, Note_off_c, 0, 71, 0
2, 131328, Note_on_c, 0, 67, 90
2, 131708, Note_off_c, 0, 67, 0
2, 132096, Note_on_c, 0, 66, 60
2, 132188, Note_off_c, 0, 66, 0
2, 132192, Note_on_c, 0, 67, 60
2, 132284, Note_off_c, 0, 67, 0
2, 132288, Note_on_c, 0, 66, 60
2, 132380, Note_off_c, 0, 66, 0
2, 132384, Note_on_c, 0, 67, 60
2, 132476, Note_off_c, 0, 67, 0
2, 132480, Note_on_c, 0, 66, 60
2, 132572, Note_off_c, 0, 66, 0
2, 132576, Note_on_c, 0, 67, 60
2, 132668, Note_off_c, 0, 67, 0
2, 132672, Note_on_c, 0, 66, 60
2, 132764, Note_off_c, 0, 66, 0
2, 132768, Note_on_c, 0, 67, 60
2, 132860, Note_off_c, 0, 67, 0
2, 132864, Note_on_c, 0, 65, 60
2, 132956, Note_off_c, 0, 65, 0
2, 132960, Note_on_c, 0, 67, 60
2, 133052, Note_off_c, 0, 67, 0
2, 133056, Note_on_c, 0, 65, 60
2, 133148, Note_off_c, 0, 65, 0
2, 133152, Note_on_c, 0, 67, 60
2, 133244, Note_off_c, 0, 67, 0
2, 133248, Note_on_c, 0, 65, 60
2, 133340, Note_off_c, 0, 65, 0
2, 133344, Note_on_c, 0, 67, 60
2, 133436, Note_off_c, 0, 67, 0
2, 133440, Note_on_c, 0, 65, 60
2, 133532, Note_off_c, 0, 65, 0
2, 133536, Note_on_c, 0, 67, 60
2, 133628, Note_off_c, 0, 67, 0
2, 133632, Note_on_c, 0, 79, 66
2, 133632, Note_on_c, 0, 65, 60
2, 133724, Note_off_c, 0, 65, 0
2, 133728, Note_on_c, 0, 67, 60
2, 133820, Note_off_c, 0, 79, 0
2, 133820, Note_off_c, 0, 67, 0
2, 133824, Note_on_c, 0, 76, 60
2, 133824, Note_on_c, 0, 65, 60
2, 133916, Note_off_c, 0, 65, 0
2, 133920, Note_on_c, 0, 67, 60
2, 134012, Note_off_c, 0, 76, 0
2, 134012, Note_off_c, 0, 67, 0
2, 134016, Note_on_c, 0, 72, 60
2, 134016, Note_on_c, 0, 65, 60
2, 134108, Note_off_c, 0, 65, 0
2, 134112, Note_on_c, 0, 67, 60
2, 134204, Note_off_c, 0, 67, 0
2, 134208, Note_on_c, 0, 65, 60
2, 134300, Note_off_c, 0, 65, 0
2, 134304, Note_on_c, 0, 67, 60
2, 134396, Note_off_c, 0, 67, 0
2, 134400, Note_on_c, 0, 65, 60
2, 134492, Note_off_c, 0, 65, 0
2, 134496, Note_on_c, 0, 67, 60
2, 134588, Note_off_c, 0, 72, 0
2, 134588, Note_off_c, 0, 67, 0
2, 134592, Note_on_c, 0, 65, 60
2, 134608, Note_on_c, 0, 74, 60
2, 134684, Note_off_c, 0, 65, 0
2, 134688, Note_on_c, 0, 76, 60
2, 134688, Note_on_c, 0, 67, 60
2, 134700, Note_off_c, 0, 74, 0
2, 134780, Note_off_c, 0, 76, 0
2, 134780, Note_off_c, 0, 67, 0
2, 134784, Note_on_c, 0, 74, 60
2, 134784, Note_on_c, 0, 65, 60
2, 134876, Note_off_c, 0, 65, 0
2, 134880, Note_on_c, 0, 67, 60
2, 134972, Note_off_c, 0, 74, 0
2, 134972, Note_off_c, 0, 67, 0
2, 134976, Note_on_c, 0, 72, 60
2, 134976, Note_on_c, 0, 65, 60
2, 135068, Note_off_c, 0, 65, 0
2, 135072, Note_on_c, 0, 67, 60
2, 135164, Note_off_c, 0, 72, 0
2, 135164, Note_off_c, 0, 67, 0
2, 135168, Note_on_c, 0, 72, 60
2, 135168, Note_on_c, 0, 65, 60
2, 135212, Note_off_c, 0, 72, 0
2, 135216, Note_on_c, 0, 74, 60
2, 135260, Note_off_c, 0, 65, 0
2, 135260, Note_off_c, 0, 74, 0
2, 135264, Note_on_c, 0, 72, 60
2, 135264, Note_on_c, 0, 67, 60
2, 135308, Note_off_c, 0, 72, 0
2, 135312, Note_on_c, 0, 74, 60
2, 135356, Note_off_c, 0, 67, 0
2, 135356, Note_off_c, 0, 74, 0
2, 135360, Note_on_c, 0, 71, 60
2, 135360, Note_on_c, 0, 64, 60
2, 135404, Note_off_c, 0, 71, 0
2, 135408, Note_on_c, 0, 72, 60
2, 135452, Note_off_c, 0, 64, 0
2, 135452, Note_off_c, 0, 72, 0
2, 135456, Note_on_c, 0, 71, 60
2, 135456, Note_on_c, 0, 67, 60
2, 135548, Note_off_c, 0, 71, 0
2, 135548, Note_off_c, 0, 67, 0
2, 135552, Note_on_c, 0, 71, 60
2, 135552, Note_on_c, 0, 62, 60
2, 135644, Note_off_c, 0, 62, 0
2, 135648, Note_on_c, 0, 67, 60
2, 135740, Note_off_c, 0, 67, 0
2, 135744, Note_on_c, 0, 64, 60
2, 135836, Note_off_c, 0, 64, 0
2, 135840, Note_on_c, 0, 67, 60
2, 135932, Note_off_c, 0, 71, 0
2, 135932, Note_off_c, 0, 67, 0
2, 135936, Note_on_c, 0, 65, 60
2, 136028, Note_off_c, 0, 65, 0
2, 136032, Note_on_c, 0, 67, 60
2, 136124, Note_off_c, 0, 67, 0
2, 136128, Note_on_c, 0, 64, 60
2, 136220, Note_off_c, 0, 64, 0
2, 136224, Note_on_c, 0, 67, 60
2, 136316, Note_off_c, 0, 67, 0
2, 136320, Note_on_c, 0, 65, 60
2, 136412, Note_off_c, 0, 65, 0
2, 136416, Note_on_c, 0, 67, 60
2, 136508, Note_off_c, 0, 67, 0
2, 136512, Note_on_c, 0, 62, 60
2, 136604, Note_off_c, 0, 62, 0
2, 136608, Note_on_c, 0, 67, 60
2, 136700, Note_off_c, 0, 67, 0
2, 136704, Note_on_c, 0, 79, 66
2, 136704, Note_on_c, 0, 64, 60
2, 136796, Note_off_c, 0, 64, 0
2, 136800, Note_on_c, 0, 67, 60
2, 136892, Note_off_c, 0, 79, 0
2, 136892, Note_off_c, 0, 67, 0
2, 136896, Note_on_c, 0, 76, 60
2, 136896, Note_on_c, 0, 64, 60
2, 136988, Note_off_c, 0, 64, 0
2, 136992, Note_on_c, 0, 67, 60
2, 137084, Note_off_c, 0, 76, 0
2, 137084, Note_off_c, 0, 67, 0
2, 137088, Note_on_c, 0, 72, 60
2, 137088, Note_on_c, 0, 64, 60
2, 137180, Note_off_c, 0, 64, 0
2, 137184, Note_on_c, 0, 67, 60
2, 137276, Note_off_c, 0, 67, 0
2, 137280, Note_on_c, 0, 64, 60
2, 137372, Note_off_c, 0, 64, 0
2, 137376, Note_on_c, 0, 67, 60
2, 137468, Note_off_c, 0, 67, 0
2, 137472, Note_on_c, 0, 64, 60
2, 137564, Note_off_c, 0, 64, 0
2, 137568, Note_on_c, 0, 67, 60
2, 137660, Note_off_c, 0, 72, 0
2, 137660, Note_off_c, 0, 67, 0
2, 137664, Note_on_c, 0, 74, 60
2, 137664, Note_on_c, 0, 64, 60
2, 137756, Note_off_c, 0, 74, 0
2, 137756, Note_off_c, 0, 64, 0
2, 137760, Note_on_c, 0, 76, 60
2, 137760, Note_on_c, 0, 67, 60
2, 137852, Note_off_c, 0, 76, 0
2, 137852, Note_off_c, 0, 67, 0
2, 137856, Note_on_c, 0, 74, 60
2, 137856, Note_on_c, 0, 64, 60
2, 137948, Note_off_c, 0, 64, 0
2, 137952, Note_on_c, 0, 67, 60
2, 138044, Note_off_c, 0, 74, 0
2, 138044, Note_off_c, 0, 67, 0
2, 138048, Note_on_c, 0, 72, 60
2, 138064, Note_on_c, 0, 64, 60
2, 138144, Note_on_c, 0, 67, 60
2, 138156, Note_off_c, 0, 64, 0
2, 138236, Note_off_c, 0, 72, 0
2, 138236, Note_off_c, 0, 67, 0
2, 138240, Note_on_c, 0, 72, 60
2, 138240, Note_on_c, 0, 65, 60
2, 138284, Note_off_c, 0, 72, 0
2, 138288, Note_on_c, 0, 74, 60
2, 138332, Note_off_c, 0, 65, 0
2, 138332, Note_off_c, 0, 74, 0
2, 138336, Note_on_c, 0, 72, 60
2, 138336, Note_on_c, 0, 67, 60
2, 138380, Note_off_c, 0, 72, 0
2, 138384, Note_on_c, 0, 74, 60
2, 138428, Note_off_c, 0, 67, 0
2, 138428, Note_off_c, 0, 74, 0
2, 138432, Note_on_c, 0, 71, 60
2, 138432, Note_on_c, 0, 64, 60
2, 138476, Note_off_c, 0, 71, 0
2, 138480, Note_on_c, 0, 72, 60
2, 138524, Note_off_c, 0, 64, 0
2, 138524, Note_off_c, 0, 72, 0
2, 138528, Note_on_c, 0, 71, 60
2, 138528, Note_on_c, 0, 67, 60
2, 138620, Note_off_c, 0, 71, 0
2, 138620, Note_off_c, 0, 67, 0
2, 138624, Note_on_c, 0, 71, 60
2, 138624, Note_on_c, 0, 62, 60
2, 138716, Note_off_c, 0, 62, 0
2, 138720, Note_on_c, 0, 67, 60
2, 138812, Note_off_c, 0, 67, 0
2, 138816, Note_on_c, 0, 64, 60
2, 138908, Note_off_c, 0, 64, 0
2, 138912, Note_on_c, 0, 67, 60
2, 139004, Note_off_c, 0, 71, 0
2, 139004, Note_off_c, 0, 67, 0
2, 139008, Note_on_c, 0, 65, 60
2, 139100, Note_off_c, 0, 65, 0
2, 139104, Note_on_c, 0, 67, 60
2, 139196, Note_off_c, 0, 67, 0
2, 139200, Note_on_c, 0, 64, 60
2, 139292, Note_off_c, 0, 64, 0
2, 139296, Note_on_c, 0, 67, 60
2, 139388, Note_off_c, 0, 67, 0
2, 139392, Note_on_c, 0, 65, 60
2, 139484, Note_off_c, 0, 65, 0
2, 139488, Note_on_c, 0, 67, 60
2, 139580, Note_off_c, 0, 67, 0
2, 139584, Note_on_c, 0, 62, 60
2, 139676, Note_off_c, 0, 62, 0
2, 139680, Note_on_c, 0, 67, 60
2, 139772, Note_off_c, 0, 67, 0
2, 139776, Note_on_c, 0, 79, 88
2, 140156, Note_off_c, 0, 79, 0
2, 140256, Note_on_c, 0, 79, 82
2, 140348, Note_off_c, 0, 79, 0
2, 140352, Note_on_c, 0, 76, 82
2, 140444, Note_off_c, 0, 76, 0
2, 140448, Note_on_c, 0, 72, 82
2, 140540, Note_off_c, 0, 72, 0
2, 140544, Note_on_c, 0, 69, 82
2, 140924, Note_off_c, 0, 69, 0
2, 141024, Note_on_c, 0, 69, 82
2, 141116, Note_off_c, 0, 69, 0
2, 141120, Note_on_c, 0, 72, 82
2, 141212, Note_off_c, 0, 72, 0
2, 141216, Note_on_c, 0, 69, 82
2, 141308, Note_off_c, 0, 69, 0
2, 141312, Note_on_c, 0, 77, 88
2, 141692, Note_off_c, 0, 77, 0
2, 141792, Note_on_c, 0, 77, 82
2, 141884, Note_off_c, 0, 77, 0
2, 141888, Note_on_c, 0, 74, 82
2, 141980, Note_off_c, 0, 74, 0
2, 141984, Note_on_c, 0, 71, 82
2, 142076, Note_off_c, 0, 71, 0
2, 142080, Note_on_c, 0, 67, 82
2, 142460, Note_off_c, 0, 67, 0
2, 142560, Note_on_c, 0, 79, 82
2, 142652, Note_off_c, 0, 79, 0
2, 142656, Note_on_c, 0, 83, 82
2, 142748, Note_off_c, 0, 83, 0
2, 142752, Note_on_c, 0, 79, 82
2, 142844, Note_off_c, 0, 79, 0
2, 142848, Note_on_c, 0, 88, 88
2, 142944, Note_on_c, 0, 60, 82
2, 143036, Note_off_c, 0, 60, 0
2, 143040, Note_on_c, 0, 64, 82
2, 143132, Note_off_c, 0, 64, 0
2, 143136, Note_on_c, 0, 69, 82
2, 143228, Note_off_c, 0, 88, 0
2, 143228, Note_off_c, 0, 69, 0
2, 143232, Note_on_c, 0, 72, 82
2, 143328, Note_on_c, 0, 88, 82
2, 143420, Note_off_c, 0, 88, 0
2, 143424, Note_on_c, 0, 84, 82
2, 143516, Note_off_c, 0, 84, 0
2, 143520, Note_on_c, 0, 81, 82
2, 143612, Note_off_c, 0, 72, 0
2, 143612, Note_off_c, 0, 81, 0
2, 143616, Note_on_c, 0, 77, 82
2, 143712, Note_on_c, 0, 62, 82
2, 143804, Note_off_c, 0, 62, 0
2, 143808, Note_on_c, 0, 65, 82
2, 143900, Note_off_c, 0, 65, 0
2, 143904, Note_on_c, 0, 69, 82
2, 143996, Note_off_c, 0, 77, 0
2, 143996, Note_off_c, 0, 69, 0
2, 144000, Note_on_c, 0, 74, 82
2, 144096, Note_on_c, 0, 77, 82
2, 144188, Note_off_c, 0, 77, 0
2, 144192, Note_on_c, 0, 81, 82
2, 144284, Note_off_c, 0, 81, 0
2, 144288, Note_on_c, 0, 77, 82
2, 144380, Note_off_c, 0, 74, 0
2, 144380, Note_off_c, 0, 77, 0
2, 144384, Note_on_c, 0, 86, 82
2, 144480, Note_on_c, 0, 59, 82
2, 144572, Note_off_c, 0, 59, 0
2, 144576, Note_on_c, 0, 62, 82
2, 144668, Note_off_c, 0, 62, 0
2, 144672, Note_on_c, 0, 67, 82
2, 144764, Note_off_c, 0, 86, 0
2, 144764, Note_off_c, 0, 67, 0
2, 144768, Note_on_c, 0, 71, 82
2, 144864, Note_on_c, 0, 86, 82
2, 144956, Note_off_c, 0, 86, 0
2, 144960, Note_on_c, 0, 83, 82
2, 145052, Note_off_c, 0, 83, 0
2, 145056, Note_on_c, 0, 79, 82
2, 145148, Note_off_c, 0, 71, 0
2, 145148, Note_off_c, 0, 79, 0
2, 145152, Note_on_c, 0, 76, 82
2, 145248, Note_on_c, 0, 60, 82
2, 145340, Note_off_c, 0, 60, 0
2, 145344, Note_on_c, 0, 64, 82
2, 145436, Note_off_c, 0, 64, 0
2, 145440, Note_on_c, 0, 67, 82
2, 145532, Note_off_c, 0, 76, 0
2, 145532, Note_off_c, 0, 67, 0
2, 145536, Note_on_c, 0, 72, 82
2, 145632, Note_on_c, 0, 84, 82
2, 145724, Note_off_c, 0, 84, 0
2, 145728, Note_on_c, 0, 79, 82
2, 145820, Note_off_c, 0, 79, 0
2, 145824, Note_on_c, 0, 76, 82
2, 145916, Note_off_c, 0, 72, 0
2, 145916, Note_off_c, 0, 76, 0
2, 145920, Note_on_c, 0, 74, 60
2, 146112, Note_on_c, 0, 65, 60
2, 146112, Note_on_c, 0, 69, 60
2, 146300, Note_off_c, 0, 65, 0
2, 146300, Note_off_c, 0, 69, 0
2, 146304, Note_on_c, 0, 65, 60
2, 146304, Note_on_c, 0, 69, 60
2, 146492, Note_off_c, 0, 65, 0
2, 146492, Note_off_c, 0, 69, 0
2, 146496, Note_on_c, 0, 65, 60
2, 146496, Note_on_c, 0, 69, 60
2, 146684, Note_off_c, 0, 74, 0
2, 146684, Note_off_c, 0, 65, 0
2, 146684, Note_off_c, 0, 69, 0
2, 146688, Note_on_c, 0, 73, 60
2, 146688, Note_on_c, 0, 65, 60
2, 146688, Note_on_c, 0, 69, 60
2, 146736, Note_off_c, 0, 73, 0
2, 146736, Note_on_c, 0, 74, 60
2, 146876, Note_off_c, 0, 65, 0
2, 146876, Note_off_c, 0, 69, 0
2, 146880, Note_on_c, 0, 65, 60
2, 146880, Note_on_c, 0, 69, 60
2, 147068, Note_off_c, 0, 65, 0
2, 147068, Note_off_c, 0, 69, 0
2, 147072, Note_on_c, 0, 73, 60
2, 147072, Note_on_c, 0, 69, 60
2, 147088, Note_on_c, 0, 65, 60
2, 147100, Note_off_c, 0, 74, 0
2, 147120, Note_off_c, 0, 73, 0
2, 147120, Note_on_c, 0, 74, 60
2, 147260, Note_off_c, 0, 69, 0
2, 147264, Note_on_c, 0, 65, 60
2, 147264, Note_on_c, 0, 69, 60
2, 147276, Note_off_c, 0, 65, 0
2, 147452, Note_off_c, 0, 65, 0
2, 147452, Note_off_c, 0, 69, 0
2, 147456, Note_on_c, 0, 81, 60
2, 147484, Note_off_c, 0, 74, 0
2, 148220, Note_off_c, 0, 81, 0
2, 148224, Note_on_c, 0, 80, 60
2, 148272, Note_off_c, 0, 80, 0
2, 148272, Note_on_c, 0, 81, 60
2, 148608, Note_on_c, 0, 80, 60
2, 148636, Note_off_c, 0, 81, 0
2, 148656, Note_off_c, 0, 80, 0
2, 148656, Note_on_c, 0, 81, 60
2, 148992, Note_on_c, 0, 79, 90
2, 149020, Note_off_c, 0, 81, 0
2, 149180, Note_off_c, 0, 79, 0
2, 149184, Note_on_c, 0, 81, 90
2, 149276, Note_off_c, 0, 81, 0
2, 149280, Note_on_c, 0, 83, 90
2, 149372, Note_off_c, 0, 83, 0
2, 149376, Note_on_c, 0, 84, 90
2, 149468, Note_off_c, 0, 84, 0
2, 149472, Note_on_c, 0, 86, 90
2, 149564, Note_off_c, 0, 86, 0
2, 149568, Note_on_c, 0, 88, 90
2, 149660, Note_off_c, 0, 88, 0
2, 149664, Note_on_c, 0, 86, 90
2, 149756, Note_off_c, 0, 86, 0
2, 149760, Note_on_c, 0, 84, 90
2, 149852, Note_off_c, 0, 84, 0
2, 149856, Note_on_c, 0, 83, 90
2, 149948, Note_off_c, 0, 83, 0
2, 149952, Note_on_c, 0, 81, 90
2, 150044, Note_off_c, 0, 81, 0
2, 150048, Note_on_c, 0, 79, 90
2, 150140, Note_off_c, 0, 79, 0
2, 150144, Note_on_c, 0, 77, 90
2, 150236, Note_off_c, 0, 77, 0
2, 150240, Note_on_c, 0, 76, 90
2, 150332, Note_off_c, 0, 76, 0
2, 150336, Note_on_c, 0, 74, 90
2, 150428, Note_off_c, 0, 74, 0
2, 150432, Note_on_c, 0, 72, 90
2, 150524, Note_off_c, 0, 72, 0
2, 150528, Note_on_c, 0, 74, 90
2, 150572, Note_off_c, 0, 74, 0
2, 150576, Note_on_c, 0, 76, 90
2, 150620, Note_off_c, 0, 76, 0
2, 150624, Note_on_c, 0, 74, 90
2, 150668, Note_off_c, 0, 74, 0
2, 150672, Note_on_c, 0, 76, 90
2, 150716, Note_off_c, 0, 76, 0
2, 150720, Note_on_c, 0, 74, 90
2, 150764, Note_off_c, 0, 74, 0
2, 150768, Note_on_c, 0, 76, 90
2, 150812, Note_off_c, 0, 76, 0
2, 150816, Note_on_c, 0, 74, 90
2, 150860, Note_off_c, 0, 74, 0
2, 150864, Note_on_c, 0, 76, 90
2, 150908, Note_off_c, 0, 76, 0
2, 150912, Note_on_c, 0, 74, 90
2, 150956, Note_off_c, 0, 74, 0
2, 150960, Note_on_c, 0, 76, 90
2, 151004, Note_off_c, 0, 76, 0
2, 151008, Note_on_c, 0, 74, 90
2, 151052, Note_off_c, 0, 74, 0
2, 151056, Note_on_c, 0, 76, 90
2, 151100, Note_off_c, 0, 76, 0
2, 151104, Note_on_c, 0, 74, 90
2, 151148, Note_off_c, 0, 74, 0
2, 151152, Note_on_c, 0, 76, 90
2, 151196, Note_off_c, 0, 76, 0
2, 151200, Note_on_c, 0, 74, 90
2, 151244, Note_off_c, 0, 74, 0
2, 151248, Note_on_c, 0, 76, 90
2, 151292, Note_off_c, 0, 76, 0
2, 151296, Note_on_c, 0, 74, 90
2, 151340, Note_off_c, 0, 74, 0
2, 151344, Note_on_c, 0, 76, 90
2, 151388, Note_off_c, 0, 76, 0
2, 151392, Note_on_c, 0, 74, 90
2, 151436, Note_off_c, 0, 74, 0
2, 151440, Note_on_c, 0, 76, 90
2, 151484, Note_off_c, 0, 76, 0
2, 151488, Note_on_c, 0, 74, 90
2, 151532, Note_off_c, 0, 74, 0
2, 151536, Note_on_c, 0, 76, 90
2, 151580, Note_off_c, 0, 76, 0
2, 151584, Note_on_c, 0, 74, 90
2, 151628, Note_off_c, 0, 74, 0
2, 151632, Note_on_c, 0, 76, 90
2, 151676, Note_off_c, 0, 76, 0
2, 151680, Note_on_c, 0, 74, 90
2, 151724, Note_off_c, 0, 74, 0
2, 151728, Note_on_c, 0, 76, 90
2, 151772, Note_off_c, 0, 76, 0
2, 151776, Note_on_c, 0, 74, 90
2, 151820, Note_off_c, 0, 74, 0
2, 151824, Note_on_c, 0, 76, 90
2, 151868, Note_off_c, 0, 76, 0
2, 151872, Note_on_c, 0, 72, 90
2, 151964, Note_off_c, 0, 72, 0
2, 151968, Note_on_c, 0, 74, 90
2, 152060, Note_off_c, 0, 74, 0
2, 152064, Note_on_c, 0, 72, 90
2, 152444, Note_off_c, 0, 72, 0
2, 152448, Note_on_c, 0, 72, 90
2, 152540, Note_off_c, 0, 72, 0
2, 152544, Note_on_c, 0, 67, 90
2, 152636, Note_off_c, 0, 67, 0
2, 152640, Note_on_c, 0, 72, 90
2, 152732, Note_off_c, 0, 72, 0
2, 152736, Note_on_c, 0, 76, 90
2, 152828, Note_off_c, 0, 76, 0
2, 152832, Note_on_c, 0, 79, 90
2, 152924, Note_off_c, 0, 79, 0
2, 152928, Note_on_c, 0, 76, 90
2, 153020, Note_off_c, 0, 76, 0
2, 153024, Note_on_c, 0, 72, 90
2, 153116, Note_off_c, 0, 72, 0
2, 153120, Note_on_c, 0, 76, 90
2, 153212, Note_off_c, 0, 76, 0
2, 153216, Note_on_c, 0, 77, 90
2, 153308, Note_off_c, 0, 77, 0
2, 153312, Note_on_c, 0, 74, 90
2, 153404, Note_off_c, 0, 74, 0
2, 153408, Note_on_c, 0, 71, 90
2, 153500, Note_off_c, 0, 71, 0
2, 153504, Note_on_c, 0, 74, 90
2, 153596, Note_off_c, 0, 74, 0
2, 153600, Note_on_c, 0, 72, 90
2, 153980, Note_off_c, 0, 72, 0
2, 153984, Note_on_c, 0, 60, 90
2, 154076, Note_off_c, 0, 60, 0
2, 154080, Note_on_c, 0, 55, 90
2, 154172, Note_off_c, 0, 55, 0
2, 154176, Note_on_c, 0, 60, 90
2, 154268, Note_off_c, 0, 60, 0
2, 154272, Note_on_c, 0, 64, 90
2, 154364, Note_off_c, 0, 64, 0
2, 154368, Note_on_c, 0, 67, 90
2, 154460, Note_off_c, 0, 67, 0
2, 154464, Note_on_c, 0, 64, 90
2, 154556, Note_off_c, 0, 64, 0
2, 154560, Note_on_c, 0, 60, 90
2, 154652, Note_off_c, 0, 60, 0
2, 154656, Note_on_c, 0, 64, 90
2, 154748, Note_off_c, 0, 64, 0
2, 154752, Note_on_c, 0, 65, 90
2, 154844, Note_off_c, 0, 65, 0
2, 154848, Note_on_c, 0, 62, 90
2, 154940, Note_off_c, 0, 62, 0
2, 154944, Note_on_c, 0, 59, 90
2, 155036, Note_off_c, 0, 59, 0
2, 155040, Note_on_c, 0, 62, 90
2, 155132, Note_off_c, 0, 62, 0
2, 155136, Note_on_c, 0, 60, 90
2, 155516, Note_off_c, 0, 60, 0
2, 155520, Note_on_c, 0, 84, 90
2, 155520, Note_on_c, 0, 76, 90
2, 155520, Note_on_c, 0, 79, 90
2, 155900, Note_off_c, 0, 84, 0
2, 155900, Note_off_c, 0, 76, 0
2, 155900, Note_off_c, 0, 79, 0
2, 155904, Note_on_c, 0, 72, 90
2, 156284, Note_off_c, 0, 72, 0
2, 156672, Note_on_c, 0, 67, 90
2, 157052, Note_off_c, 0, 67, 0
2, 157056, Note_on_c, 0, 79, 82
2, 157136, Note_on_c, 0, 74, 82
2, 157148, Note_off_c, 0, 79, 0
2, 157228, Note_off_c, 0, 74, 0
2, 157248, Note_on_c, 0, 79, 82
2, 157340, Note_off_c, 0, 79, 0
2, 157344, Note_on_c, 0, 82, 82
2, 157436, Note_off_c, 0, 82, 0
2, 157440, Note_on_c, 0, 86, 82
2, 157532, Note_off_c, 0, 86, 0
2, 157536, Note_on_c, 0, 82, 82
2, 157628, Note_off_c, 0, 82, 0
2, 157632, Note_on_c, 0, 79, 82
2, 157724, Note_off_c, 0, 79, 0
2, 157728, Note_on_c, 0, 82, 82
2, 157820, Note_off_c, 0, 82, 0
2, 157824, Note_on_c, 0, 84, 82
2, 157824, Note_on_c, 0, 72, 82
2, 157824, Note_on_c, 0, 69, 82
2, 157824, Note_on_c, 0, 62, 82
2, 157916, Note_off_c, 0, 84, 0
2, 157920, Note_on_c, 0, 81, 82
2, 158012, Note_off_c, 0, 81, 0
2, 158016, Note_on_c, 0, 78, 82
2, 158108, Note_off_c, 0, 78, 0
2, 158112, Note_on_c, 0, 81, 82
2, 158204, Note_off_c, 0, 72, 0
2, 158204, Note_off_c, 0, 69, 0
2, 158204, Note_off_c, 0, 62, 0
2, 158204, Note_off_c, 0, 81, 0
2, 158208, Note_on_c, 0, 79, 82
2, 158208, Note_on_c, 0, 70, 82
2, 158208, Note_on_c, 0, 67, 82
2, 158576, Note_on_c, 0, 67, 82
2, 158588, Note_off_c, 0, 79, 0
2, 158588, Note_off_c, 0, 70, 0
2, 158588, Note_off_c, 0, 67, 0
2, 158668, Note_off_c, 0, 67, 0
2, 158688, Note_on_c, 0, 62, 82
2, 158780, Note_off_c, 0, 62, 0
2, 158784, Note_on_c, 0, 67, 82
2, 158876, Note_off_c, 0, 67, 0
2, 158880, Note_on_c, 0, 70, 82
2, 158972, Note_off_c, 0, 70, 0
2, 158976, Note_on_c, 0, 74, 82
2, 159068, Note_off_c, 0, 74, 0
2, 159072, Note_on_c, 0, 70, 82
2, 159164, Note_off_c, 0, 70, 0
2, 159168, Note_on_c, 0, 67, 82
2, 159260, Note_off_c, 0, 67, 0
2, 159264, Note_on_c, 0, 70, 82
2, 159356, Note_off_c, 0, 70, 0
2, 159360, Note_on_c, 0, 74, 82
2, 159452, Note_off_c, 0, 74, 0
2, 159456, Note_on_c, 0, 69, 82
2, 159548, Note_off_c, 0, 69, 0
2, 159552, Note_on_c, 0, 66, 82
2, 159644, Note_off_c, 0, 66, 0
2, 159648, Note_on_c, 0, 69, 82
2, 159740, Note_off_c, 0, 69, 0
2, 159744, Note_on_c, 0, 67, 90
2, 160124, Note_off_c, 0, 67, 0
2, 160608, Note_on_c, 0, 79, 82
2, 160700, Note_off_c, 0, 79, 0
2, 160704, Note_on_c, 0, 82, 82
2, 160796, Note_off_c, 0, 82, 0
2, 160800, Note_on_c, 0, 81, 82
2, 160892, Note_off_c, 0, 81, 0
2, 160896, Note_on_c, 0, 79, 82
2, 160988, Note_off_c, 0, 79, 0
2, 160992, Note_on_c, 0, 77, 82
2, 161084, Note_off_c, 0, 77, 0
2, 161088, Note_on_c, 0, 76, 82
2, 161180, Note_off_c, 0, 76, 0
2, 161184, Note_on_c, 0, 74, 82
2, 161276, Note_off_c, 0, 74, 0
2, 161280, Note_on_c, 0, 73, 90
2, 161660, Note_off_c, 0, 73, 0
2, 162144, Note_on_c, 0, 85, 82
2, 162236, Note_off_c, 0, 85, 0
2, 162240, Note_on_c, 0, 88, 82
2, 162332, Note_off_c, 0, 88, 0
2, 162336, Note_on_c, 0, 86, 82
2, 162428, Note_off_c, 0, 86, 0
2, 162432, Note_on_c, 0, 85, 82
2, 162524, Note_off_c, 0, 85, 0
2, 162528, Note_on_c, 0, 82, 82
2, 162620, Note_off_c, 0, 82, 0
2, 162624, Note_on_c, 0, 81, 82
2, 162716, Note_off_c, 0, 81, 0
2, 162720, Note_on_c, 0, 79, 82
2, 162812, Note_off_c, 0, 79, 0
2, 162816, Note_on_c, 0, 77, 90
2, 163196, Note_off_c, 0, 77, 0
2, 163200, Note_on_c, 0, 74, 82
2, 163292, Note_off_c, 0, 74, 0
2, 163296, Note_on_c, 0, 69, 82
2, 163388, Note_off_c, 0, 69, 0
2, 163392, Note_on_c, 0, 74, 82
2, 163484, Note_off_c, 0, 74, 0
2, 163488, Note_on_c, 0, 77, 82
2, 163580, Note_off_c, 0, 77, 0
2, 163584, Note_on_c, 0, 81, 82
2, 163676, Note_off_c, 0, 81, 0
2, 163680, Note_on_c, 0, 77, 82
2, 163772, Note_off_c, 0, 77, 0
2, 163776, Note_on_c, 0, 74, 82
2, 163868, Note_off_c, 0, 74, 0
2, 163872, Note_on_c, 0, 77, 82
2, 163964, Note_off_c, 0, 77, 0
2, 163968, Note_on_c, 0, 79, 82
2, 163968, Note_on_c, 0, 64, 82
2, 163968, Note_on_c, 0, 67, 82
2, 163968, Note_on_c, 0, 57, 82
2, 164060, Note_off_c, 0, 79, 0
2, 164064, Note_on_c, 0, 76, 82
2, 164156, Note_off_c, 0, 76, 0
2, 164160, Note_on_c, 0, 73, 82
2, 164252, Note_off_c, 0, 73, 0
2, 164256, Note_on_c, 0, 76, 82
2, 164348, Note_off_c, 0, 64, 0
2, 164348, Note_off_c, 0, 67, 0
2, 164348, Note_off_c, 0, 57, 0
2, 164348, Note_off_c, 0, 76, 0
2, 164352, Note_on_c, 0, 74, 90
2, 164352, Note_on_c, 0, 62, 82
2, 164352, Note_on_c, 0, 65, 82
2, 164732, Note_off_c, 0, 74, 0
2, 164732, Note_off_c, 0, 62, 0
2, 164732, Note_off_c, 0, 65, 0
2, 164736, Note_on_c, 0, 62, 82
2, 164828, Note_off_c, 0, 62, 0
2, 164832, Note_on_c, 0, 57, 82
2, 164924, Note_off_c, 0, 57, 0
2, 164928, Note_on_c, 0, 62, 82
2, 165020, Note_off_c, 0, 62, 0
2, 165024, Note_on_c, 0, 65, 82
2, 165116, Note_off_c, 0, 65, 0
2, 165120, Note_on_c, 0, 69, 82
2, 165212, Note_off_c, 0, 69, 0
2, 165216, Note_on_c, 0, 65, 82
2, 165308, Note_off_c, 0, 65, 0
2, 165312, Note_on_c, 0, 62, 82
2, 165404, Note_off_c, 0, 62, 0
2, 165408, Note_on_c, 0, 65, 82
2, 165500, Note_off_c, 0, 65, 0
2, 165504, Note_on_c, 0, 67, 82
2, 165596, Note_off_c, 0, 67, 0
2, 165600, Note_on_c, 0, 64, 82
2, 165692, Note_off_c, 0, 64, 0
2, 165696, Note_on_c, 0, 61, 82
2, 165788, Note_off_c, 0, 61, 0
2, 165792, Note_on_c, 0, 64, 82
2, 165884, Note_off_c, 0, 64, 0
2, 165984, Note_on_c, 0, 62, 82
2, 166076, Note_off_c, 0, 62, 0
2, 166080, Note_on_c, 0, 64, 82
2, 166172, Note_off_c, 0, 64, 0
2, 166176, Note_on_c, 0, 65, 82
2, 166268, Note_off_c, 0, 65, 0
2, 166272, Note_on_c, 0, 67, 82
2, 166364, Note_off_c, 0, 67, 0
2, 166368, Note_on_c, 0, 69, 82
2, 166460, Note_off_c, 0, 69, 0
2, 166464, Note_on_c, 0, 71, 82
2, 166556, Note_off_c, 0, 71, 0
2, 166560, Note_on_c, 0, 73, 82
2, 166652, Note_off_c, 0, 73, 0
2, 166656, Note_on_c, 0, 74, 90
2, 167036, Note_off_c, 0, 74, 0
2, 167520, Note_on_c, 0, 71, 82
2, 167612, Note_off_c, 0, 71, 0
2, 167616, Note_on_c, 0, 72, 82
2, 167708, Note_off_c, 0, 72, 0
2, 167712, Note_on_c, 0, 74, 82
2, 167804, Note_off_c, 0, 74, 0
2, 167808, Note_on_c, 0, 76, 82
2, 167900, Note_off_c, 0, 76, 0
2, 167904, Note_on_c, 0, 78, 82
2, 167996, Note_off_c, 0, 78, 0
2, 168000, Note_on_c, 0, 80, 82
2, 168092, Note_off_c, 0, 80, 0
2, 168096, Note_on_c, 0, 81, 82
2, 168188, Note_off_c, 0, 81, 0
2, 168192, Note_on_c, 0, 83, 90
2, 168572, Note_off_c, 0, 83, 0
2, 169056, Note_on_c, 0, 81, 82
2, 169148, Note_off_c, 0, 81, 0
2, 169152, Note_on_c, 0, 88, 82
2, 169244, Note_off_c, 0, 88, 0
2, 169248, Note_on_c, 0, 86, 82
2, 169340, Note_off_c, 0, 86, 0
2, 169344, Note_on_c, 0, 84, 82
2, 169436, Note_off_c, 0, 84, 0
2, 169440, Note_on_c, 0, 83, 82
2, 169532, Note_off_c, 0, 83, 0
2, 169536, Note_on_c, 0, 81, 82
2, 169628, Note_off_c, 0, 81, 0
2, 169632, Note_on_c, 0, 79, 82
2, 169724, Note_off_c, 0, 79, 0
2, 169728, Note_on_c, 0, 77, 90
2, 169824, Note_on_c, 0, 62, 82
2, 169916, Note_off_c, 0, 62, 0
2, 169920, Note_on_c, 0, 69, 82
2, 170012, Note_off_c, 0, 69, 0
2, 170016, Note_on_c, 0, 67, 82
2, 170108, Note_off_c, 0, 77, 0
2, 170108, Note_off_c, 0, 67, 0
2, 170112, Note_on_c, 0, 65, 82
2, 170204, Note_off_c, 0, 65, 0
2, 170208, Note_on_c, 0, 64, 82
2, 170300, Note_off_c, 0, 64, 0
2, 170304, Note_on_c, 0, 62, 82
2, 170396, Note_off_c, 0, 62, 0
2, 170416, Note_on_c, 0, 60, 82
2, 170496, Note_on_c, 0, 59, 90
2, 170508, Note_off_c, 0, 60, 0
2, 170608, Note_on_c, 0, 79, 82
2, 170688, Note_on_c, 0, 86, 82
2, 170700, Note_off_c, 0, 79, 0
2, 170780, Note_off_c, 0, 86, 0
2, 170784, Note_on_c, 0, 84, 82
2, 170876, Note_off_c, 0, 59, 0
2, 170876, Note_off_c, 0, 84, 0
2, 170880, Note_on_c, 0, 83, 82
2, 170972, Note_off_c, 0, 83, 0
2, 170976, Note_on_c, 0, 81, 82
2, 171068, Note_off_c, 0, 81, 0
2, 171072, Note_on_c, 0, 79, 82
2, 171164, Note_off_c, 0, 79, 0
2, 171168, Note_on_c, 0, 77, 82
2, 171260, Note_off_c, 0, 77, 0
2, 171264, Note_on_c, 0, 76, 90
2, 171360, Note_on_c, 0, 60, 82
2, 171452, Note_off_c, 0, 60, 0
2, 171456, Note_on_c, 0, 67, 82
2, 171548, Note_off_c, 0, 67, 0
2, 171552, Note_on_c, 0, 65, 82
2, 171644, Note_off_c, 0, 76, 0
2, 171644, Note_off_c, 0, 65, 0
2, 171648, Note_on_c, 0, 64, 82
2, 171740, Note_off_c, 0, 64, 0
2, 171744, Note_on_c, 0, 62, 82
2, 171836, Note_off_c, 0, 62, 0
2, 171840, Note_on_c, 0, 60, 82
2, 171932, Note_off_c, 0, 60, 0
2, 171936, Note_on_c, 0, 59, 82
2, 172028, Note_off_c, 0, 59, 0
2, 172032, Note_on_c, 0, 57, 90
2, 172128, Note_on_c, 0, 77, 82
2, 172220, Note_off_c, 0, 77, 0
2, 172224, Note_on_c, 0, 84, 82
2, 172316, Note_off_c, 0, 84, 0
2, 172320, Note_on_c, 0, 83, 82
2, 172412, Note_off_c, 0, 57, 0
2, 172412, Note_off_c, 0, 83, 0
2, 172416, Note_on_c, 0, 81, 82
2, 172508, Note_off_c, 0, 81, 0
2, 172512, Note_on_c, 0, 79, 82
2, 172604, Note_off_c, 0, 79, 0
2, 172608, Note_on_c, 0, 77, 82
2, 172700, Note_off_c, 0, 77, 0
2, 172704, Note_on_c, 0, 76, 82
2, 172796, Note_off_c, 0, 76, 0
2, 172800, Note_on_c, 0, 74, 90
2, 173180, Note_off_c, 0, 74, 0
2, 173664, Note_on_c, 0, 76, 82
2, 173756, Note_off_c, 0, 76, 0
2, 173760, Note_on_c, 0, 83, 82
2, 173852, Note_off_c, 0, 83, 0
2, 173856, Note_on_c, 0, 81, 82
2, 173948, Note_off_c, 0, 81, 0
2, 173952, Note_on_c, 0, 80, 82
2, 174044, Note_off_c, 0, 80, 0
2, 174048, Note_on_c, 0, 77, 82
2, 174140, Note_off_c, 0, 77, 0
2, 174144, Note_on_c, 0, 76, 82
2, 174236, Note_off_c, 0, 76, 0
2, 174240, Note_on_c, 0, 74, 82
2, 174332, Note_off_c, 0, 74, 0
2, 174336, Note_on_c, 0, 72, 90
2, 174716, Note_off_c, 0, 72, 0
2, 175200, Note_on_c, 0, 70, 82
2, 175292, Note_off_c, 0, 70, 0
2, 175296, Note_on_c, 0, 74, 82
2, 175388, Note_off_c, 0, 74, 0
2, 175392, Note_on_c, 0, 72, 82
2, 175484, Note_off_c, 0, 72, 0
2, 175488, Note_on_c, 0, 70, 82
2, 175580, Note_off_c, 0, 70, 0
2, 175584, Note_on_c, 0, 69, 82
2, 175676, Note_off_c, 0, 69, 0
2, 175680, Note_on_c, 0, 67, 82
2, 175772, Note_off_c, 0, 67, 0
2, 175776, Note_on_c, 0, 65, 82
2, 175868, Note_off_c, 0, 65, 0
2, 175872, Note_on_c, 0, 64, 82
2, 175964, Note_off_c, 0, 64, 0
2, 175968, Note_on_c, 0, 65, 82
2, 176060, Note_off_c, 0, 65, 0
2, 176064, Note_on_c, 0, 67, 82
2, 176156, Note_off_c, 0, 67, 0
2, 176160, Note_on_c, 0, 69, 82
2, 176252, Note_off_c, 0, 69, 0
2, 176256, Note_on_c, 0, 70, 82
2, 176348, Note_off_c, 0, 70, 0
2, 176352, Note_on_c, 0, 72, 82
2, 176444, Note_off_c, 0, 72, 0
2, 176448, Note_on_c, 0, 74, 82
2, 176540, Note_off_c, 0, 74, 0
2, 176544, Note_on_c, 0, 76, 82
2, 176636, Note_off_c, 0, 76, 0
2, 176640, Note_on_c, 0, 77, 82
2, 176640, Note_on_c, 0, 65, 82
2, 176828, Note_off_c, 0, 65, 0
2, 176832, Note_on_c, 0, 72, 82
2, 177020, Note_off_c, 0, 72, 0
2, 177024, Note_on_c, 0, 69, 82
2, 177212, Note_off_c, 0, 69, 0
2, 177216, Note_on_c, 0, 72, 82
2, 177404, Note_off_c, 0, 77, 0
2, 177404, Note_off_c, 0, 72, 0
2, 177408, Note_on_c, 0, 81, 82
2, 177408, Note_on_c, 0, 65, 82
2, 177596, Note_off_c, 0, 65, 0
2, 177600, Note_on_c, 0, 72, 82
2, 177788, Note_off_c, 0, 81, 0
2, 177788, Note_off_c, 0, 72, 0
2, 177792, Note_on_c, 0, 84, 82
2, 177792, Note_on_c, 0, 69, 82
2, 177980, Note_off_c, 0, 69, 0
2, 177984, Note_on_c, 0, 72, 82
2, 178172, Note_off_c, 0, 84, 0
2, 178172, Note_off_c, 0, 72, 0
2, 178176, Note_on_c, 0, 76, 82
2, 178176, Note_on_c, 0, 67, 82
2, 178364, Note_off_c, 0, 67, 0
2, 178368, Note_on_c, 0, 72, 82
2, 178556, Note_off_c, 0, 72, 0
2, 178560, Note_on_c, 0, 70, 82
2, 178748, Note_off_c, 0, 76, 0
2, 178748, Note_off_c, 0, 70, 0
2, 178752, Note_on_c, 0, 77, 82
2, 178752, Note_on_c, 0, 72, 82
2, 178844, Note_off_c, 0, 77, 0
2, 178848, Note_on_c, 0, 79, 82
2, 178940, Note_off_c, 0, 72, 0
2, 178940, Note_off_c, 0, 79, 0
2, 178944, Note_on_c, 0, 77, 82
2, 178944, Note_on_c, 0, 65, 82
2, 179132, Note_off_c, 0, 65, 0
2, 179136, Note_on_c, 0, 72, 82
2, 179324, Note_off_c, 0, 77, 0
2, 179324, Note_off_c, 0, 72, 0
2, 179328, Note_on_c, 0, 69, 82
2, 179516, Note_off_c, 0, 69, 0
2, 179536, Note_on_c, 0, 72, 82
2, 179712, Note_on_c, 0, 86, 82
2, 179712, Note_on_c, 0, 65, 82
2, 179724, Note_off_c, 0, 72, 0
2, 179900, Note_off_c, 0, 65, 0
2, 179904, Note_on_c, 0, 74, 82
2, 180092, Note_off_c, 0, 74, 0
2, 180096, Note_on_c, 0, 70, 82
2, 180284, Note_off_c, 0, 70, 0
2, 180288, Note_on_c, 0, 74, 82
2, 180476, Note_off_c, 0, 86, 0
2, 180476, Note_off_c, 0, 74, 0
2, 180480, Note_on_c, 0, 84, 82
2, 180480, Note_on_c, 0, 65, 82
2, 180668, Note_off_c, 0, 65, 0
2, 180672, Note_on_c, 0, 72, 82
2, 180860, Note_off_c, 0, 84, 0
2, 180860, Note_off_c, 0, 72, 0
2, 180864, Note_on_c, 0, 89, 82
2, 180864, Note_on_c, 0, 69, 82
2, 181052, Note_off_c, 0, 69, 0
2, 181056, Note_on_c, 0, 72, 82
2, 181244, Note_off_c, 0, 89, 0
2, 181244, Note_off_c, 0, 72, 0
2, 181248, Note_on_c, 0, 84, 82
2, 181248, Note_on_c, 0, 64, 82
2, 181436, Note_off_c, 0, 64, 0
2, 181440, Note_on_c, 0, 72, 82
2, 181628, Note_off_c, 0, 84, 0
2, 181628, Note_off_c, 0, 72, 0
2, 181632, Note_on_c, 0, 82, 82
2, 181632, Note_on_c, 0, 67, 82
2, 181676, Note_off_c, 0, 82, 0
2, 181680, Note_on_c, 0, 84, 82
2, 181724, Note_off_c, 0, 84, 0
2, 181728, Note_on_c, 0, 81, 82
2, 181772, Note_off_c, 0, 81, 0
2, 181776, Note_on_c, 0, 82, 82
2, 181820, Note_off_c, 0, 67, 0
2, 181820, Note_off_c, 0, 82, 0
2, 181824, Note_on_c, 0, 81, 82
2, 181824, Note_on_c, 0, 72, 82
2, 181916, Note_off_c, 0, 81, 0
2, 181920, Note_on_c, 0, 82, 82
2, 182012, Note_off_c, 0, 72, 0
2, 182012, Note_off_c, 0, 82, 0
2, 182016, Note_on_c, 0, 81, 82
2, 182016, Note_on_c, 0, 65, 82
2, 182204, Note_off_c, 0, 65, 0
2, 182208, Note_on_c, 0, 72, 82
2, 182396, Note_off_c, 0, 81, 0
2, 182396, Note_off_c, 0, 72, 0
2, 182400, Note_on_c, 0, 69, 82
2, 182588, Note_off_c, 0, 69, 0
2, 182592, Note_on_c, 0, 72, 82
2, 182780, Note_off_c, 0, 72, 0
2, 182784, Note_on_c, 0, 74, 82
2, 182784, Note_on_c, 0, 70, 82
2, 182972, Note_off_c, 0, 74, 0
2, 182976, Note_on_c, 0, 76, 82
2, 183068, Note_off_c, 0, 76, 0
2, 183072, Note_on_c, 0, 77, 82
2, 183164, Note_off_c, 0, 70, 0
2, 183164, Note_off_c, 0, 77, 0
2, 183168, Note_on_c, 0, 79, 82
2, 183260, Note_off_c, 0, 79, 0
2, 183264, Note_on_c, 0, 81, 82
2, 183356, Note_off_c, 0, 81, 0
2, 183376, Note_on_c, 0, 82, 82
2, 183456, Note_on_c, 0, 84, 82
2, 183468, Note_off_c, 0, 82, 0
2, 183548, Note_off_c, 0, 84, 0
2, 183552, Note_on_c, 0, 86, 82
2, 183644, Note_off_c, 0, 86, 0
2, 183648, Note_on_c, 0, 84, 82
2, 183740, Note_off_c, 0, 84, 0
2, 183744, Note_on_c, 0, 82, 82
2, 183836, Note_off_c, 0, 82, 0
2, 183840, Note_on_c, 0, 81, 82
2, 183932, Note_off_c, 0, 81, 0
2, 183936, Note_on_c, 0, 79, 82
2, 184028, Note_off_c, 0, 79, 0
2, 184032, Note_on_c, 0, 77, 82
2, 184124, Note_off_c, 0, 77, 0
2, 184128, Note_on_c, 0, 76, 82
2, 184220, Note_off_c, 0, 76, 0
2, 184224, Note_on_c, 0, 74, 82
2, 184316, Note_off_c, 0, 74, 0
2, 184320, Note_on_c, 0, 72, 82
2, 184508, Note_off_c, 0, 72, 0
2, 184512, Note_on_c, 0, 74, 82
2, 184604, Note_off_c, 0, 74, 0
2, 184608, Note_on_c, 0, 76, 82
2, 184700, Note_off_c, 0, 76, 0
2, 184704, Note_on_c, 0, 77, 82
2, 184796, Note_off_c, 0, 77, 0
2, 184800, Note_on_c, 0, 79, 82
2, 184892, Note_off_c, 0, 79, 0
2, 184896, Note_on_c, 0, 81, 82
2, 184988, Note_off_c, 0, 81, 0
2, 184992, Note_on_c, 0, 82, 82
2, 185084, Note_off_c, 0, 82, 0
2, 185088, Note_on_c, 0, 84, 82
2, 185180, Note_off_c, 0, 84, 0
2, 185184, Note_on_c, 0, 82, 82
2, 185276, Note_off_c, 0, 82, 0
2, 185280, Note_on_c, 0, 81, 82
2, 185372, Note_off_c, 0, 81, 0
2, 185376, Note_on_c, 0, 79, 82
2, 185468, Note_off_c, 0, 79, 0
2, 185472, Note_on_c, 0, 77, 82
2, 185564, Note_off_c, 0, 77, 0
2, 185568, Note_on_c, 0, 76, 82
2, 185660, Note_off_c, 0, 76, 0
2, 185664, Note_on_c, 0, 74, 82
2, 185756, Note_off_c, 0, 74, 0
2, 185760, Note_on_c, 0, 72, 82
2, 185852, Note_off_c, 0, 72, 0
2, 185856, Note_on_c, 0, 70, 82
2, 186044, Note_off_c, 0, 70, 0
2, 186048, Note_on_c, 0, 72, 82
2, 186140, Note_off_c, 0, 72, 0
2, 186144, Note_on_c, 0, 74, 82
2, 186236, Note_off_c, 0, 74, 0
2, 186240, Note_on_c, 0, 76, 82
2, 186332, Note_off_c, 0, 76, 0
2, 186336, Note_on_c, 0, 77, 82
2, 186428, Note_off_c, 0, 77, 0
2, 186432, Note_on_c, 0, 79, 82
2, 186524, Note_off_c, 0, 79, 0
2, 186528, Note_on_c, 0, 81, 82
2, 186620, Note_off_c, 0, 81, 0
2, 186624, Note_on_c, 0, 82, 82
2, 186716, Note_off_c, 0, 82, 0
2, 186720, Note_on_c, 0, 81, 82
2, 186812, Note_off_c, 0, 81, 0
2, 186816, Note_on_c, 0, 79, 82
2, 186908, Note_off_c, 0, 79, 0
2, 186912, Note_on_c, 0, 77, 82
2, 187004, Note_off_c, 0, 77, 0
2, 187008, Note_on_c, 0, 76, 82
2, 187100, Note_off_c, 0, 76, 0
2, 187104, Note_on_c, 0, 74, 82
2, 187196, Note_off_c, 0, 74, 0
2, 187200, Note_on_c, 0, 72, 82
2, 187292, Note_off_c, 0, 72, 0
2, 187296, Note_on_c, 0, 70, 82
2, 187388, Note_off_c, 0, 70, 0
2, 187392, Note_on_c, 0, 69, 82
2, 187580, Note_off_c, 0, 69, 0
2, 187584, Note_on_c, 0, 70, 82
2, 187676, Note_off_c, 0, 70, 0
2, 187680, Note_on_c, 0, 72, 82
2, 187772, Note_off_c, 0, 72, 0
2, 187776, Note_on_c, 0, 74, 82
2, 187868, Note_off_c, 0, 74, 0
2, 187872, Note_on_c, 0, 76, 82
2, 187964, Note_off_c, 0, 76, 0
2, 187968, Note_on_c, 0, 77, 82
2, 188060, Note_off_c, 0, 77, 0
2, 188064, Note_on_c, 0, 79, 82
2, 188156, Note_off_c, 0, 79, 0
2, 188160, Note_on_c, 0, 81, 82
2, 188252, Note_off_c, 0, 81, 0
2, 188256, Note_on_c, 0, 79, 82
2, 188348, Note_off_c, 0, 79, 0
2, 188352, Note_on_c, 0, 77, 82
2, 188444, Note_off_c, 0, 77, 0
2, 188448, Note_on_c, 0, 76, 82
2, 188540, Note_off_c, 0, 76, 0
2, 188560, Note_on_c, 0, 74, 82
2, 188640, Note_on_c, 0, 72, 82
2, 188652, Note_off_c, 0, 74, 0
2, 188732, Note_off_c, 0, 72, 0
2, 188736, Note_on_c, 0, 70, 82
2, 188828, Note_off_c, 0, 70, 0
2, 188832, Note_on_c, 0, 69, 82
2, 188924, Note_off_c, 0, 69, 0
2, 188928, Note_on_c, 0, 81, 60
2, 189308, Note_off_c, 0, 81, 0
2, 190080, Note_on_c, 0, 81, 60
2, 190080, Note_on_c, 0, 72, 60
2, 190460, Note_off_c, 0, 81, 0
2, 190460, Note_off_c, 0, 72, 0
2, 190464, Note_on_c, 0, 79, 60
2, 190464, Note_on_c, 0, 72, 60
2, 190844, Note_off_c, 0, 79, 0
2, 190844, Note_off_c, 0, 72, 0
2, 191616, Note_on_c, 0, 79, 60
2, 191632, Note_on_c, 0, 72, 60
2, 191996, Note_off_c, 0, 79, 0
2, 192000, Note_on_c, 0, 77, 60
2, 192000, Note_on_c, 0, 72, 60
2, 192012, Note_off_c, 0, 72, 0
2, 192380, Note_off_c, 0, 77, 0
2, 192380, Note_off_c, 0, 72, 0
2, 193152, Note_on_c, 0, 77, 60
2, 193152, Note_on_c, 0, 71, 60
2, 193532, Note_off_c, 0, 77, 0
2, 193532, Note_off_c, 0, 71, 0
2, 193536, Note_on_c, 0, 76, 60
2, 193552, Note_on_c, 0, 72, 60
2, 193916, Note_off_c, 0, 76, 0
2, 193932, Note_off_c, 0, 72, 0
2, 195072, Note_on_c, 0, 74, 60
2, 195164, Note_off_c, 0, 74, 0
2, 195168, Note_on_c, 0, 62, 60
2, 195260, Note_off_c, 0, 62, 0
2, 195264, Note_on_c, 0, 64, 60
2, 195356, Note_off_c, 0, 64, 0
2, 195360, Note_on_c, 0, 65, 60
2, 195452, Note_off_c, 0, 65, 0
2, 195456, Note_on_c, 0, 67, 60
2, 195548, Note_off_c, 0, 67, 0
2, 195552, Note_on_c, 0, 69, 60
2, 195644, Note_off_c, 0, 69, 0
2, 195648, Note_on_c, 0, 71, 60
2, 195740, Note_off_c, 0, 71, 0
2, 195744, Note_on_c, 0, 73, 60
2, 195836, Note_off_c, 0, 73, 0
2, 195840, Note_on_c, 0, 74, 60
2, 195932, Note_off_c, 0, 74, 0
2, 195936, Note_on_c, 0, 69, 60
2, 196028, Note_off_c, 0, 69, 0
2, 196032, Note_on_c, 0, 71, 60
2, 196124, Note_off_c, 0, 71, 0
2, 196128, Note_on_c, 0, 73, 60
2, 196220, Note_off_c, 0, 73, 0
2, 196224, Note_on_c, 0, 74, 60
2, 196316, Note_off_c, 0, 74, 0
2, 196320, Note_on_c, 0, 76, 60
2, 196412, Note_off_c, 0, 76, 0
2, 196416, Note_on_c, 0, 77, 61
2, 196508, Note_off_c, 0, 77, 0
2, 196512, Note_on_c, 0, 79, 63
2, 196604, Note_off_c, 0, 79, 0
2, 196608, Note_on_c, 0, 81, 64
2, 196700, Note_off_c, 0, 81, 0
2, 196704, Note_on_c, 0, 83, 66
2, 196796, Note_off_c, 0, 83, 0
2, 196800, Note_on_c, 0, 84, 67
2, 196892, Note_off_c, 0, 84, 0
2, 196896, Note_on_c, 0, 83, 69
2, 196988, Note_off_c, 0, 83, 0
2, 196992, Note_on_c, 0, 81, 70
2, 197084, Note_off_c, 0, 81, 0
2, 197088, Note_on_c, 0, 79, 72
2, 197180, Note_off_c, 0, 79, 0
2, 197184, Note_on_c, 0, 77, 73
2, 197276, Note_off_c, 0, 77, 0
2, 197280, Note_on_c, 0, 76, 75
2, 197372, Note_off_c, 0, 76, 0
2, 197376, Note_on_c, 0, 77, 76
2, 197468, Note_off_c, 0, 77, 0
2, 197472, Note_on_c, 0, 79, 78
2, 197564, Note_off_c, 0, 79, 0
2, 197568, Note_on_c, 0, 81, 79
2, 197660, Note_off_c, 0, 81, 0
2, 197664, Note_on_c, 0, 79, 81
2, 197756, Note_off_c, 0, 79, 0
2, 197760, Note_on_c, 0, 77, 82
2, 197852, Note_off_c, 0, 77, 0
2, 197856, Note_on_c, 0, 76, 84
2, 197948, Note_off_c, 0, 76, 0
2, 197952, Note_on_c, 0, 74, 85
2, 198044, Note_off_c, 0, 74, 0
2, 198048, Note_on_c, 0, 72, 87
2, 198140, Note_off_c, 0, 72, 0
2, 198144, Note_on_c, 0, 71, 90
2, 198332, Note_off_c, 0, 71, 0
2, 198336, Note_on_c, 0, 79, 90
2, 198524, Note_off_c, 0, 79, 0
2, 198528, Note_on_c, 0, 76, 90
2, 198716, Note_off_c, 0, 76, 0
2, 198720, Note_on_c, 0, 72, 90
2, 198908, Note_off_c, 0, 72, 0
2, 198912, Note_on_c, 0, 74, 90
2, 199100, Note_off_c, 0, 74, 0
2, 199104, Note_on_c, 0, 79, 90
2, 199292, Note_off_c, 0, 79, 0
2, 199296, Note_on_c, 0, 76, 90
2, 199484, Note_off_c, 0, 76, 0
2, 199488, Note_on_c, 0, 72, 90
2, 199676, Note_off_c, 0, 72, 0
2, 199680, Note_on_c, 0, 74, 90
2, 200060, Note_off_c, 0, 74, 0
2, 200064, Note_on_c, 0, 79, 90
2, 200064, Note_on_c, 0, 74, 90
2, 200080, Note_on_c, 0, 71, 90
2, 200444, Note_off_c, 0, 79, 0
2, 200444, Note_off_c, 0, 74, 0
2, 200448, Note_on_c, 0, 67, 90
2, 200460, Note_off_c, 0, 71, 0
2, 200828, Note_off_c, 0, 67, 0
2, 201216, Note_on_c, 0, 66, 60
2, 201308, Note_off_c, 0, 66, 0
2, 201312, Note_on_c, 0, 67, 60
2, 201404, Note_off_c, 0, 67, 0
2, 201408, Note_on_c, 0, 66, 60
2, 201500, Note_off_c, 0, 66, 0
2, 201504, Note_on_c, 0, 67, 60
2, 201596, Note_off_c, 0, 67, 0
2, 201600, Note_on_c, 0, 66, 60
2, 201692, Note_off_c, 0, 66, 0
2, 201696, Note_on_c, 0, 67, 60
2, 201788, Note_off_c, 0, 67, 0
2, 201792, Note_on_c, 0, 66, 60
2, 201884, Note_off_c, 0, 66, 0
2, 201888, Note_on_c, 0, 67, 60
2, 201980, Note_off_c, 0, 67, 0
2, 201984, Note_on_c, 0, 65, 60
2, 202076, Note_off_c, 0, 65, 0
2, 202080, Note_on_c, 0, 67, 60
2, 202172, Note_off_c, 0, 67, 0
2, 202176, Note_on_c, 0, 65, 60
2, 202268, Note_off_c, 0, 65, 0
2, 202272, Note_on_c, 0, 67, 60
2, 202364, Note_off_c, 0, 67, 0
2, 202368, Note_on_c, 0, 65, 60
2, 202460, Note_off_c, 0, 65, 0
2, 202464, Note_on_c, 0, 67, 60
2, 202556, Note_off_c, 0, 67, 0
2, 202560, Note_on_c, 0, 65, 60
2, 202652, Note_off_c, 0, 65, 0
2, 202656, Note_on_c, 0, 67, 60
2, 202748, Note_off_c, 0, 67, 0
2, 202752, Note_on_c, 0, 79, 66
2, 202752, Note_on_c, 0, 65, 60
2, 202844, Note_off_c, 0, 65, 0
2, 202848, Note_on_c, 0, 67, 60
2, 202940, Note_off_c, 0, 79, 0
2, 202940, Note_off_c, 0, 67, 0
2, 202944, Note_on_c, 0, 76, 60
2, 202944, Note_on_c, 0, 65, 60
2, 203036, Note_off_c, 0, 65, 0
2, 203040, Note_on_c, 0, 67, 60
2, 203132, Note_off_c, 0, 76, 0
2, 203132, Note_off_c, 0, 67, 0
2, 203136, Note_on_c, 0, 72, 60
2, 203136, Note_on_c, 0, 65, 60
2, 203228, Note_off_c, 0, 65, 0
2, 203232, Note_on_c, 0, 67, 60
2, 203324, Note_off_c, 0, 67, 0
2, 203328, Note_on_c, 0, 65, 60
2, 203420, Note_off_c, 0, 65, 0
2, 203424, Note_on_c, 0, 67, 60
2, 203516, Note_off_c, 0, 67, 0
2, 203520, Note_on_c, 0, 65, 60
2, 203612, Note_off_c, 0, 65, 0
2, 203616, Note_on_c, 0, 67, 60
2, 203708, Note_off_c, 0, 72, 0
2, 203708, Note_off_c, 0, 67, 0
2, 203712, Note_on_c, 0, 65, 60
2, 203728, Note_on_c, 0, 74, 60
2, 203804, Note_off_c, 0, 65, 0
2, 203808, Note_on_c, 0, 76, 60
2, 203808, Note_on_c, 0, 67, 60
2, 203820, Note_off_c, 0, 74, 0
2, 203900, Note_off_c, 0, 76, 0
2, 203900, Note_off_c, 0, 67, 0
2, 203904, Note_on_c, 0, 74, 60
2, 203904, Note_on_c, 0, 65, 60
2, 203996, Note_off_c, 0, 65, 0
2, 204000, Note_on_c, 0, 67, 60
2, 204092, Note_off_c, 0, 74, 0
2, 204092, Note_off_c, 0, 67, 0
2, 204096, Note_on_c, 0, 72, 60
2, 204096, Note_on_c, 0, 65, 60
2, 204188, Note_off_c, 0, 65, 0
2, 204192, Note_on_c, 0, 67, 60
2, 204284, Note_off_c, 0, 72, 0
2, 204284, Note_off_c, 0, 67, 0
2, 204288, Note_on_c, 0, 72, 60
2, 204288, Note_on_c, 0, 65, 60
2, 204332, Note_off_c, 0, 72, 0
2, 204336, Note_on_c, 0, 74, 60
2, 204380, Note_off_c, 0, 65, 0
2, 204380, Note_off_c, 0, 74, 0
2, 204384, Note_on_c, 0, 72, 60
2, 204384, Note_on_c, 0, 67, 60
2, 204428, Note_off_c, 0, 72, 0
2, 204432, Note_on_c, 0, 74, 60
2, 204476, Note_off_c, 0, 67, 0
2, 204476, Note_off_c, 0, 74, 0
2, 204480, Note_on_c, 0, 71, 60
2, 204480, Note_on_c, 0, 64, 60
2, 204524, Note_off_c, 0, 71, 0
2, 204528, Note_on_c, 0, 72, 60
2, 204572, Note_off_c, 0, 64, 0
2, 204572, Note_off_c, 0, 72, 0
2, 204576, Note_on_c, 0, 71, 60
2, 204576, Note_on_c, 0, 67, 60
2, 204668, Note_off_c, 0, 71, 0
2, 204668, Note_off_c, 0, 67, 0
2, 204672, Note_on_c, 0, 71, 60
2, 204672, Note_on_c, 0, 62, 60
2, 204764, Note_off_c, 0, 62, 0
2, 204768, Note_on_c, 0, 67, 60
2, 204860, Note_off_c, 0, 67, 0
2, 204864, Note_on_c, 0, 64, 60
2, 204956, Note_off_c, 0, 64, 0
2, 204960, Note_on_c, 0, 67, 60
2, 205052, Note_off_c, 0, 71, 0
2, 205052, Note_off_c, 0, 67, 0
2, 205056, Note_on_c, 0, 65, 60
2, 205148, Note_off_c, 0, 65, 0
2, 205152, Note_on_c, 0, 67, 60
2, 205244, Note_off_c, 0, 67, 0
2, 205248, Note_on_c, 0, 64, 60
2, 205340, Note_off_c, 0, 64, 0
2, 205344, Note_on_c, 0, 67, 60
2, 205436, Note_off_c, 0, 67, 0
2, 205440, Note_on_c, 0, 65, 60
2, 205532, Note_off_c, 0, 65, 0
2, 205536, Note_on_c, 0, 67, 60
2, 205628, Note_off_c, 0, 67, 0
2, 205632, Note_on_c, 0, 62, 60
2, 205724, Note_off_c, 0, 62, 0
2, 205728, Note_on_c, 0, 67, 60
2, 205820, Note_off_c, 0, 67, 0
2, 205824, Note_on_c, 0, 79, 66
2, 205824, Note_on_c, 0, 64, 60
2, 205916, Note_off_c, 0, 64, 0
2, 205920, Note_on_c, 0, 67, 60
2, 206012, Note_off_c, 0, 79, 0
2, 206012, Note_off_c, 0, 67, 0
2, 206016, Note_on_c, 0, 76, 60
2, 206016, Note_on_c, 0, 64, 60
2, 206108, Note_off_c, 0, 64, 0
2, 206112, Note_on_c, 0, 67, 60
2, 206204, Note_off_c, 0, 76, 0
2, 206204, Note_off_c, 0, 67, 0
2, 206208, Note_on_c, 0, 72, 60
2, 206208, Note_on_c, 0, 64, 60
2, 206300, Note_off_c, 0, 64, 0
2, 206304, Note_on_c, 0, 67, 60
2, 206396, Note_off_c, 0, 67, 0
2, 206400, Note_on_c, 0, 64, 60
2, 206492, Note_off_c, 0, 64, 0
2, 206496, Note_on_c, 0, 67, 60
2, 206588, Note_off_c, 0, 67, 0
2, 206592, Note_on_c, 0, 64, 60
2, 206684, Note_off_c, 0, 64, 0
2, 206688, Note_on_c, 0, 67, 60
2, 206780, Note_off_c, 0, 72, 0
2, 206780, Note_off_c, 0, 67, 0
2, 206784, Note_on_c, 0, 74, 60
2, 206784, Note_on_c, 0, 64, 60
2, 206876, Note_off_c, 0, 74, 0
2, 206876, Note_off_c, 0, 64, 0
2, 206880, Note_on_c, 0, 76, 60
2, 206880, Note_on_c, 0, 67, 60
2, 206972, Note_off_c, 0, 76, 0
2, 206972, Note_off_c, 0, 67, 0
2, 206976, Note_on_c, 0, 74, 60
2, 206976, Note_on_c, 0, 64, 60
2, 207068, Note_off_c, 0, 64, 0
2, 207072, Note_on_c, 0, 67, 60
2, 207164, Note_off_c, 0, 74, 0
2, 207164, Note_off_c, 0, 67, 0
2, 207168, Note_on_c, 0, 72, 60
2, 207184, Note_on_c, 0, 64, 60
2, 207264, Note_on_c, 0, 67, 60
2, 207276, Note_off_c, 0, 64, 0
2, 207356, Note_off_c, 0, 72, 0
2, 207356, Note_off_c, 0, 67, 0
2, 207360, Note_on_c, 0, 72, 60
2, 207360, Note_on_c, 0, 65, 60
2, 207404, Note_off_c, 0, 72, 0
2, 207408, Note_on_c, 0, 74, 60
2, 207452, Note_off_c, 0, 65, 0
2, 207452, Note_off_c, 0, 74, 0
2, 207456, Note_on_c, 0, 72, 60
2, 207456, Note_on_c, 0, 67, 60
2, 207500, Note_off_c, 0, 72, 0
2, 207504, Note_on_c, 0, 74, 60
2, 207548, Note_off_c, 0, 67, 0
2, 207548, Note_off_c, 0, 74, 0
2, 207552, Note_on_c, 0, 71, 60
2, 207552, Note_on_c, 0, 64, 60
2, 207596, Note_off_c, 0, 71, 0
2, 207600, Note_on_c, 0, 72, 60
2, 207644, Note_off_c, 0, 64, 0
2, 207644, Note_off_c, 0, 72, 0
2, 207648, Note_on_c, 0, 71, 60
2, 207648, Note_on_c, 0, 67, 60
2, 207740, Note_off_c, 0, 71, 0
2, 207740, Note_off_c, 0, 67, 0
2, 207744, Note_on_c, 0, 71, 60
2, 207744, Note_on_c, 0, 62, 60
2, 207836, Note_off_c, 0, 62, 0
2, 207840, Note_on_c, 0, 67, 60
2, 207932, Note_off_c, 0, 67, 0
2, 207936, Note_on_c, 0, 64, 60
2, 208028, Note_off_c, 0, 64, 0
2, 208032, Note_on_c, 0, 67, 60
2, 208124, Note_off_c, 0, 71, 0
2, 208124, Note_off_c, 0, 67, 0
2, 208128, Note_on_c, 0, 65, 60
2, 208220, Note_off_c, 0, 65, 0
2, 208224, Note_on_c, 0, 67, 60
2, 208316, Note_off_c, 0, 67, 0
2, 208320, Note_on_c, 0, 64, 60
2, 208412, Note_off_c, 0, 64, 0
2, 208416, Note_on_c, 0, 67, 60
2, 208508, Note_off_c, 0, 67, 0
2, 208512, Note_on_c, 0, 65, 60
2, 208604, Note_off_c, 0, 65, 0
2, 208608, Note_on_c, 0, 67, 60
2, 208700, Note_off_c, 0, 67, 0
2, 208704, Note_on_c, 0, 62, 60
2, 208796, Note_off_c, 0, 62, 0
2, 208800, Note_on_c, 0, 67, 60
2, 208892, Note_off_c, 0, 67, 0
2, 208896, Note_on_c, 0, 79, 88
2, 209276, Note_off_c, 0, 79, 0
2, 209376, Note_on_c, 0, 79, 82
2, 209468, Note_off_c, 0, 79, 0
2, 209472, Note_on_c, 0, 76, 82
2, 209564, Note_off_c, 0, 76, 0
2, 209568, Note_on_c, 0, 72, 82
2, 209660, Note_off_c, 0, 72, 0
2, 209664, Note_on_c, 0, 69, 82
2, 210044, Note_off_c, 0, 69, 0
2, 210144, Note_on_c, 0, 69, 82
2, 210236, Note_off_c, 0, 69, 0
2, 210240, Note_on_c, 0, 72, 82
2, 210332, Note_off_c, 0, 72, 0
2, 210336, Note_on_c, 0, 69, 82
2, 210428, Note_off_c, 0, 69, 0
2, 210432, Note_on_c, 0, 77, 88
2, 210812, Note_off_c, 0, 77, 0
2, 210912, Note_on_c, 0, 77, 82
2, 211004, Note_off_c, 0, 77, 0
2, 211008, Note_on_c, 0, 74, 82
2, 211100, Note_off_c, 0, 74, 0
2, 211104, Note_on_c, 0, 71, 82
2, 211196, Note_off_c, 0, 71, 0
2, 211200, Note_on_c, 0, 67, 82
2, 211580, Note_off_c, 0, 67, 0
2, 211680, Note_on_c, 0, 79, 82
2, 211772, Note_off_c, 0, 79, 0
2, 211776, Note_on_c, 0, 83, 82
2, 211868, Note_off_c, 0, 83, 0
2, 211872, Note_on_c, 0, 79, 82
2, 211964, Note_off_c, 0, 79, 0
2, 211968, Note_on_c, 0, 88, 88
2, 212064, Note_on_c, 0, 60, 82
2, 212156, Note_off_c, 0, 60, 0
2, 212160, Note_on_c, 0, 64, 82
2, 212252, Note_off_c, 0, 64, 0
2, 212256, Note_on_c, 0, 69, 82
2, 212348, Note_off_c, 0, 88, 0
2, 212348, Note_off_c, 0, 69, 0
2, 212352, Note_on_c, 0, 72, 82
2, 212448, Note_on_c, 0, 88, 82
2, 212540, Note_off_c, 0, 88, 0
2, 212544, Note_on_c, 0, 84, 82
2, 212636, Note_off_c, 0, 84, 0
2, 212640, Note_on_c, 0, 81, 82
2, 212732, Note_off_c, 0, 72, 0
2, 212732, Note_off_c, 0, 81, 0
2, 212736, Note_on_c, 0, 77, 82
2, 212832, Note_on_c, 0, 62, 82
2, 212924, Note_off_c, 0, 62, 0
2, 212928, Note_on_c, 0, 65, 82
2, 213020, Note_off_c, 0, 65, 0
2, 213024, Note_on_c, 0, 69, 82
2, 213116, Note_off_c, 0, 77, 0
2, 213116, Note_off_c, 0, 69, 0
2, 213120, Note_on_c, 0, 74, 82
2, 213216, Note_on_c, 0, 77, 82
2, 213308, Note_off_c, 0, 77, 0
2, 213312, Note_on_c, 0, 81, 82
2, 213404, Note_off_c, 0, 81, 0
2, 213408, Note_on_c, 0, 77, 82
2, 213500, Note_off_c, 0, 74, 0
2, 213500, Note_off_c, 0, 77, 0
2, 213504, Note_on_c, 0, 86, 82
2, 213600, Note_on_c, 0, 59, 82
2, 213692, Note_off_c, 0, 59, 0
2, 213696, Note_on_c, 0, 62, 82
2, 213788, Note_off_c, 0, 62, 0
2, 213792, Note_on_c, 0, 67, 82
2, 213884, Note_off_c, 0, 86, 0
2, 213884, Note_off_c, 0, 67, 0
2, 213888, Note_on_c, 0, 71, 82
2, 213984, Note_on_c, 0, 86, 82
2, 214076, Note_off_c, 0, 86, 0
2, 214080, Note_on_c, 0, 83, 82
2, 214172, Note_off_c, 0, 83, 0
2, 214176, Note_on_c, 0, 79, 82
2, 214268, Note_off_c, 0, 71, 0
2, 214268, Note_off_c, 0, 79, 0
2, 214272, Note_on_c, 0, 76, 82
2, 214368, Note_on_c, 0, 60, 82
2, 214460, Note_off_c, 0, 60, 0
2, 214464, Note_on_c, 0, 64, 82
2, 214556, Note_off_c, 0, 64, 0
2, 214560, Note_on_c, 0, 67, 82
2, 214652, Note_off_c, 0, 76, 0
2, 214652, Note_off_c, 0, 67, 0
2, 214656, Note_on_c, 0, 72, 82
2, 214752, Note_on_c, 0, 84, 82
2, 214844, Note_off_c, 0, 84, 0
2, 214848, Note_on_c, 0, 79, 82
2, 214940, Note_off_c, 0, 79, 0
2, 214944, Note_on_c, 0, 76, 82
2, 215036, Note_off_c, 0, 72, 0
2, 215036, Note_off_c, 0, 76, 0
2, 215040, Note_on_c, 0, 74, 60
2, 215232, Note_on_c, 0, 65, 60
2, 215232, Note_on_c, 0, 69, 60
2, 215420, Note_off_c, 0, 65, 0
2, 215420, Note_off_c, 0, 69, 0
2, 215424, Note_on_c, 0, 65, 60
2, 215424, Note_on_c, 0, 69, 60
2, 215612, Note_off_c, 0, 65, 0
2, 215612, Note_off_c, 0, 69, 0
2, 215616, Note_on_c, 0, 65, 60
2, 215616, Note_on_c, 0, 69, 60
2, 215804, Note_off_c, 0, 74, 0
2, 215804, Note_off_c, 0, 65, 0
2, 215804, Note_off_c, 0, 69, 0
2, 215808, Note_on_c, 0, 73, 60
2, 215808, Note_on_c, 0, 65, 60
2, 215808, Note_on_c, 0, 69, 60
2, 215856, Note_off_c, 0, 73, 0
2, 215856, Note_on_c, 0, 74, 60
2, 215996, Note_off_c, 0, 65, 0
2, 215996, Note_off_c, 0, 69, 0
2, 216000, Note_on_c, 0, 65, 60
2, 216000, Note_on_c, 0, 69, 60
2, 216188, Note_off_c, 0, 65, 0
2, 216188, Note_off_c, 0, 69, 0
2, 216192, Note_on_c, 0, 73, 60
2, 216192, Note_on_c, 0, 69, 60
2, 216208, Note_on_c, 0, 65, 60
2, 216220, Note_off_c, 0, 74, 0
2, 216240, Note_off_c, 0, 73, 0
2, 216240, Note_on_c, 0, 74, 60
2, 216380, Note_off_c, 0, 69, 0
2, 216384, Note_on_c, 0, 65, 60
2, 216384, Note_on_c, 0, 69, 60
2, 216396, Note_off_c, 0, 65, 0
2, 216572, Note_off_c, 0, 65, 0
2, 216572, Note_off_c, 0, 69, 0
2, 216576, Note_on_c, 0, 81, 60
2, 216604, Note_off_c, 0, 74, 0
2, 217340, Note_off_c, 0, 81, 0
2, 217344, Note_on_c, 0, 80, 60
2, 217392, Note_off_c, 0, 80, 0
2, 217392, Note_on_c, 0, 81, 60
2, 217728, Note_on_c, 0, 80, 60
2, 217756, Note_off_c, 0, 81, 0
2, 217776, Note_off_c, 0, 80, 0
2, 217776, Note_on_c, 0, 81, 60
2, 218112, Note_on_c, 0, 79, 90
2, 218140, Note_off_c, 0, 81, 0
2, 218300, Note_off_c, 0, 79, 0
2, 218304, Note_on_c, 0, 81, 90
2, 218396, Note_off_c, 0, 81, 0
2, 218400, Note_on_c, 0, 83, 90
2, 218492, Note_off_c, 0, 83, 0
2, 218496, Note_on_c, 0, 84, 90
2, 218588, Note_off_c, 0, 84, 0
2, 218592, Note_on_c, 0, 86, 90
2, 218684, Note_off_c, 0, 86, 0
2, 218688, Note_on_c, 0, 88, 90
2, 218780, Note_off_c, 0, 88, 0
2, 218784, Note_on_c, 0, 86, 90
2, 218876, Note_off_c, 0, 86, 0
2, 218880, Note_on_c, 0, 84, 90
2, 218972, Note_off_c, 0, 84, 0
2, 218976, Note_on_c, 0, 83, 90
2, 219068, Note_off_c, 0, 83, 0
2, 219072, Note_on_c, 0, 81, 90
2, 219164, Note_off_c, 0, 81, 0
2, 219168, Note_on_c, 0, 79, 90
2, 219260, Note_off_c, 0, 79, 0
2, 219264, Note_on_c, 0, 77, 90
2, 219356, Note_off_c, 0, 77, 0
2, 219360, Note_on_c, 0, 76, 90
2, 219452, Note_off_c, 0, 76, 0
2, 219456, Note_on_c, 0, 74, 90
2, 219548, Note_off_c, 0, 74, 0
2, 219552, Note_on_c, 0, 72, 90
2, 219644, Note_off_c, 0, 72, 0
2, 219648, Note_on_c, 0, 74, 90
2, 219692, Note_off_c, 0, 74, 0
2, 219696, Note_on_c, 0, 76, 90
2, 219740, Note_off_c, 0, 76, 0
2, 219744, Note_on_c, 0, 74, 90
2, 219788, Note_off_c, 0, 74, 0
2, 219792, Note_on_c, 0, 76, 90
2, 219836, Note_off_c, 0, 76, 0
2, 219840, Note_on_c, 0, 74, 90
2, 219884, Note_off_c, 0, 74, 0
2, 219888, Note_on_c, 0, 76, 90
2, 219932, Note_off_c, 0, 76, 0
2, 219936, Note_on_c, 0, 74, 90
2, 219980, Note_off_c, 0, 74, 0
2, 219984, Note_on_c, 0, 76, 90
2, 220028, Note_off_c, 0, 76, 0
2, 220032, Note_on_c, 0, 74, 90
2, 220076, Note_off_c, 0, 74, 0
2, 220080, Note_on_c, 0, 76, 90
2, 220124, Note_off_c, 0, 76, 0
2, 220128, Note_on_c, 0, 74, 90
2, 220172, Note_off_c, 0, 74, 0
2, 220176, Note_on_c, 0, 76, 90
2, 220220, Note_off_c, 0, 76, 0
2, 220224, Note_on_c, 0, 74, 90
2, 220268, Note_off_c, 0, 74, 0
2, 220272, Note_on_c, 0, 76, 90
2, 220316, Note_off_c, 0, 76, 0
2, 220320, Note_on_c, 0, 74, 90
2, 220364, Note_off_c, 0, 74, 0
2, 220368, Note_on_c, 0, 76, 90
2, 220412, Note_off_c, 0, 76, 0
2, 220416, Note_on_c, 0, 74, 90
2, 220460, Note_off_c, 0, 74, 0
2, 220464, Note_on_c, 0, 76, 90
2, 220508, Note_off_c, 0, 76, 0
2, 220512, Note_on_c, 0, 74, 90
2, 220556, Note_off_c, 0, 74, 0
2, 220560, Note_on_c, 0, 76, 90
2, 220604, Note_off_c, 0, 76, 0
2, 220608, Note_on_c, 0, 74, 90
2, 220652, Note_off_c, 0, 74, 0
2, 220656, Note_on_c, 0, 76, 90
2, 220700, Note_off_c, 0, 76, 0
2, 220704, Note_on_c, 0, 74, 90
2, 220748, Note_off_c, 0, 74, 0
2, 220752, Note_on_c, 0, 76, 90
2, 220796, Note_off_c, 0, 76, 0
2, 220800, Note_on_c, 0, 74, 90
2, 220844, Note_off_c, 0, 74, 0
2, 220848, Note_on_c, 0, 76, 90
2, 220892, Note_off_c, 0, 76, 0
2, 220896, Note_on_c, 0, 74, 90
2, 220940, Note_off_c, 0, 74, 0
2, 220944, Note_on_c, 0, 76, 90
2, 220988, Note_off_c, 0, 76, 0
2, 220992, Note_on_c, 0, 72, 90
2, 221084, Note_off_c, 0, 72, 0
2, 221088, Note_on_c, 0, 74, 90
2, 221180, Note_off_c, 0, 74, 0
2, 221184, Note_on_c, 0, 72, 90
2, 221564, Note_off_c, 0, 72, 0
2, 221568, Note_on_c, 0, 72, 90
2, 221660, Note_off_c, 0, 72, 0
2, 221664, Note_on_c, 0, 67, 90
2, 221756, Note_off_c, 0, 67, 0
2, 221760, Note_on_c, 0, 72, 90
2, 221852, Note_off_c, 0, 72, 0
2, 221856, Note_on_c, 0, 76, 90
2, 221948, Note_off_c, 0, 76, 0
2, 221952, Note_on_c, 0, 79, 90
2, 222044, Note_off_c, 0, 79, 0
2, 222048, Note_on_c, 0, 76, 90
2, 222140, Note_off_c, 0, 76, 0
2, 222144, Note_on_c, 0, 72, 90
2, 222236, Note_off_c, 0, 72, 0
2, 222240, Note_on_c, 0, 76, 90
2, 222332, Note_off_c, 0, 76, 0
2, 222336, Note_on_c, 0, 77, 90
2, 222428, Note_off_c, 0, 77, 0
2, 222432, Note_on_c, 0, 74, 90
2, 222524, Note_off_c, 0, 74, 0
2, 222528, Note_on_c, 0, 71, 90
2, 222620, Note_off_c, 0, 71, 0
2, 222624, Note_on_c, 0, 74, 90
2, 222716, Note_off_c, 0, 74, 0
2, 222720, Note_on_c, 0, 72, 90
2, 223100, Note_off_c, 0, 72, 0
2, 223104, Note_on_c, 0, 60, 90
2, 223196, Note_off_c, 0, 60, 0
2, 223200, Note_on_c, 0, 55, 90
2, 223292, Note_off_c, 0, 55, 0
2, 223296, Note_on_c, 0, 60, 90
2, 223388, Note_off_c, 0, 60, 0
2, 223392, Note_on_c, 0, 64, 90
2, 223484, Note_off_c, 0, 64, 0
2, 223488, Note_on_c, 0, 67, 90
2, 223580, Note_off_c, 0, 67, 0
2, 223584, Note_on_c, 0, 64, 90
2, 223676, Note_off_c, 0, 64, 0
2, 223680, Note_on_c, 0, 60, 90
2, 223772, Note_off_c, 0, 60, 0
2, 223776, Note_on_c, 0, 64, 90
2, 223868, Note_off_c, 0, 64, 0
2, 223872, Note_on_c, 0, 65, 90
2, 223964, Note_off_c, 0, 65, 0
2, 223968, Note_on_c, 0, 62, 90
2, 224060, Note_off_c, 0, 62, 0
2, 224064, Note_on_c, 0, 59, 90
2, 224156, Note_off_c, 0, 59, 0
2, 224160, Note_on_c, 0, 62, 90
2, 224252, Note_off_c, 0, 62, 0
2, 224256, Note_on_c, 0, 60, 90
2, 224636, Note_off_c, 0, 60, 0
2, 224640, Note_on_c, 0, 84, 90
2, 224640, Note_on_c, 0, 76, 90
2, 224640, Note_on_c, 0, 79, 90
2, 225020, Note_off_c, 0, 84, 0
2, 225020, Note_off_c, 0, 76, 0
2, 225020, Note_off_c, 0, 79, 0
2, 225024, Note_on_c, 0, 72, 90
2, 225404, Note_off_c, 0, 72, 0
2, 225404, End_track
3, 0, Start_track
3, 0, Title_t, "Sonata # 3"
3, 0, Control_c, 1, 0, 0
3, 0, Program_c, 1, 0
3, 0, Control_c, 1, 7, 80
3, 0, Control_c, 1, 10, 54
3, 0, Control_c, 1, 91, 87
3, 0, Control_c, 1, 93, 58
3, 0, Key_signature, 0, "major"
3, 0, Control_c, 1, 121, 0
3, 96, Control_c, 1, 10, 53
3, 192, Control_c, 1, 91, 63
3, 240, Control_c, 1, 93, 40
3, 288, Program_c, 1, 0
3, 8832, Note_on_c, 1, 60, 66
3, 8832, Note_on_c, 1, 53, 66
3, 9212, Note_off_c, 1, 60, 0
3, 9212, Note_off_c, 1, 53, 0
3, 9216, Note_on_c, 1, 60, 66
3, 9216, Note_on_c, 1, 52, 66
3, 9596, Note_off_c, 1, 60, 0
3, 9596, Note_off_c, 1, 52, 0
3, 10368, Note_on_c, 1, 60, 66
3, 10368, Note_on_c, 1, 52, 66
3, 10748, Note_off_c, 1, 60, 0
3, 10748, Note_off_c, 1, 52, 0
3, 10752, Note_on_c, 1, 60, 66
3, 10752, Note_on_c, 1, 50, 66
3, 11132, Note_off_c, 1, 60, 0
3, 11132, Note_off_c, 1, 50, 0
3, 11904, Note_on_c, 1, 59, 66
3, 11904, Note_on_c, 1, 50, 66
3, 12284, Note_off_c, 1, 59, 0
3, 12284, Note_off_c, 1, 50, 0
3, 12288, Note_on_c, 1, 60, 66
3, 12288, Note_on_c, 1, 48, 66
3, 12668, Note_off_c, 1, 60, 0
3, 12668, Note_off_c, 1, 48, 0
3, 13424, Note_on_c, 1, 52, 66
3, 13440, Note_on_c, 1, 48, 66
3, 13804, Note_off_c, 1, 52, 0
3, 13820, Note_off_c, 1, 48, 0
3, 13824, Note_on_c, 1, 57, 66
3, 13824, Note_on_c, 1, 53, 66
3, 15356, Note_off_c, 1, 57, 0
3, 15356, Note_off_c, 1, 53, 0
3, 15360, Note_on_c, 1, 53, 66
3, 15932, Note_off_c, 1, 53, 0
3, 15936, Note_on_c, 1, 55, 73
3, 16124, Note_off_c, 1, 55, 0
3, 16128, Note_on_c, 1, 57, 82
3, 16700, Note_off_c, 1, 57, 0
3, 16704, Note_on_c, 1, 54, 95
3, 16892, Note_off_c, 1, 54, 0
3, 16896, Note_on_c, 1, 43, 99
3, 16988, Note_off_c, 1, 43, 0
3, 16992, Note_on_c, 1, 47, 99
3, 17084, Note_off_c, 1, 47, 0
3, 17088, Note_on_c, 1, 50, 99
3, 17180, Note_off_c, 1, 50, 0
3, 17184, Note_on_c, 1, 55, 99
3, 17276, Note_off_c, 1, 55, 0
3, 17280, Note_on_c, 1, 43, 99
3, 17372, Note_off_c, 1, 43, 0
3, 17376, Note_on_c, 1, 48, 99
3, 17468, Note_off_c, 1, 48, 0
3, 17472, Note_on_c, 1, 52, 99
3, 17564, Note_off_c, 1, 52, 0
3, 17568, Note_on_c, 1, 55, 99
3, 17660, Note_off_c, 1, 55, 0
3, 17664, Note_on_c, 1, 43, 99
3, 17756, Note_off_c, 1, 43, 0
3, 17760, Note_on_c, 1, 47, 99
3, 17852, Note_off_c, 1, 47, 0
3, 17856, Note_on_c, 1, 50, 99
3, 17948, Note_off_c, 1, 50, 0
3, 17952, Note_on_c, 1, 55, 99
3, 18044, Note_off_c, 1, 55, 0
3, 18048, Note_on_c, 1, 43, 99
3, 18140, Note_off_c, 1, 43, 0
3, 18144, Note_on_c, 1, 48, 99
3, 18236, Note_off_c, 1, 48, 0
3, 18240, Note_on_c, 1, 52, 99
3, 18332, Note_off_c, 1, 52, 0
3, 18336, Note_on_c, 1, 55, 99
3, 18428, Note_off_c, 1, 55, 0
3, 18432, Note_on_c, 1, 43, 99
3, 18812, Note_off_c, 1, 43, 0
3, 18816, Note_on_c, 1, 55, 99
3, 19196, Note_off_c, 1, 55, 0
3, 19200, Note_on_c, 1, 43, 99
3, 19580, Note_off_c, 1, 43, 0
3, 19968, Note_on_c, 1, 61, 66
3, 20060, Note_off_c, 1, 61, 0
3, 20080, Note_on_c, 1, 62, 66
3, 20160, Note_on_c, 1, 61, 66
3, 20172, Note_off_c, 1, 62, 0
3, 20252, Note_off_c, 1, 61, 0
3, 20256, Note_on_c, 1, 62, 66
3, 20348, Note_off_c, 1, 62, 0
3, 20352, Note_on_c, 1, 61, 66
3, 20444, Note_off_c, 1, 61, 0
3, 20448, Note_on_c, 1, 62, 66
3, 20540, Note_off_c, 1, 62, 0
3, 20544, Note_on_c, 1, 61, 66
3, 20636, Note_off_c, 1, 61, 0
3, 20640, Note_on_c, 1, 62, 66
3, 20732, Note_off_c, 1, 62, 0
3, 20736, Note_on_c, 1, 60, 66
3, 20828, Note_off_c, 1, 60, 0
3, 20832, Note_on_c, 1, 62, 66
3, 20924, Note_off_c, 1, 62, 0
3, 20928, Note_on_c, 1, 60, 66
3, 21020, Note_off_c, 1, 60, 0
3, 21024, Note_on_c, 1, 62, 66
3, 21116, Note_off_c, 1, 62, 0
3, 21120, Note_on_c, 1, 60, 66
3, 21200, Note_on_c, 1, 62, 66
3, 21212, Note_off_c, 1, 60, 0
3, 21292, Note_off_c, 1, 62, 0
3, 21312, Note_on_c, 1, 60, 66
3, 21404, Note_off_c, 1, 60, 0
3, 21408, Note_on_c, 1, 62, 66
3, 21500, Note_off_c, 1, 62, 0
3, 21504, Note_on_c, 1, 59, 66
3, 21596, Note_off_c, 1, 59, 0
3, 21600, Note_on_c, 1, 62, 66
3, 21692, Note_off_c, 1, 62, 0
3, 21696, Note_on_c, 1, 59, 66
3, 21788, Note_off_c, 1, 59, 0
3, 21792, Note_on_c, 1, 62, 66
3, 21884, Note_off_c, 1, 62, 0
3, 21888, Note_on_c, 1, 59, 66
3, 21980, Note_off_c, 1, 59, 0
3, 21984, Note_on_c, 1, 62, 66
3, 22076, Note_off_c, 1, 62, 0
3, 22080, Note_on_c, 1, 59, 66
3, 22172, Note_off_c, 1, 59, 0
3, 22176, Note_on_c, 1, 62, 66
3, 22268, Note_off_c, 1, 62, 0
3, 22288, Note_on_c, 1, 59, 66
3, 22368, Note_on_c, 1, 62, 66
3, 22380, Note_off_c, 1, 59, 0
3, 22460, Note_off_c, 1, 62, 0
3, 22464, Note_on_c, 1, 59, 66
3, 22556, Note_off_c, 1, 59, 0
3, 22560, Note_on_c, 1, 62, 66
3, 22652, Note_off_c, 1, 62, 0
3, 22656, Note_on_c, 1, 59, 66
3, 22748, Note_off_c, 1, 59, 0
3, 22752, Note_on_c, 1, 62, 66
3, 22844, Note_off_c, 1, 62, 0
3, 22848, Note_on_c, 1, 59, 66
3, 22940, Note_off_c, 1, 59, 0
3, 22944, Note_on_c, 1, 62, 66
3, 23036, Note_off_c, 1, 62, 0
3, 23040, Note_on_c, 1, 60, 73
3, 23132, Note_off_c, 1, 60, 0
3, 23136, Note_on_c, 1, 62, 73
3, 23228, Note_off_c, 1, 62, 0
3, 23232, Note_on_c, 1, 59, 73
3, 23324, Note_off_c, 1, 59, 0
3, 23328, Note_on_c, 1, 62, 73
3, 23420, Note_off_c, 1, 62, 0
3, 23424, Note_on_c, 1, 57, 73
3, 23516, Note_off_c, 1, 57, 0
3, 23520, Note_on_c, 1, 62, 73
3, 23612, Note_off_c, 1, 62, 0
3, 23616, Note_on_c, 1, 59, 73
3, 23708, Note_off_c, 1, 59, 0
3, 23712, Note_on_c, 1, 62, 73
3, 23804, Note_off_c, 1, 62, 0
3, 23808, Note_on_c, 1, 60, 73
3, 23900, Note_off_c, 1, 60, 0
3, 23904, Note_on_c, 1, 62, 73
3, 23996, Note_off_c, 1, 62, 0
3, 24000, Note_on_c, 1, 59, 73
3, 24092, Note_off_c, 1, 59, 0
3, 24096, Note_on_c, 1, 62, 73
3, 24188, Note_off_c, 1, 62, 0
3, 24192, Note_on_c, 1, 60, 73
3, 24284, Note_off_c, 1, 60, 0
3, 24288, Note_on_c, 1, 62, 73
3, 24380, Note_off_c, 1, 62, 0
3, 24384, Note_on_c, 1, 57, 73
3, 24476, Note_off_c, 1, 57, 0
3, 24480, Note_on_c, 1, 62, 73
3, 24572, Note_off_c, 1, 62, 0
3, 24576, Note_on_c, 1, 59, 66
3, 24668, Note_off_c, 1, 59, 0
3, 24672, Note_on_c, 1, 62, 66
3, 24764, Note_off_c, 1, 62, 0
3, 24768, Note_on_c, 1, 59, 66
3, 24860, Note_off_c, 1, 59, 0
3, 24864, Note_on_c, 1, 62, 66
3, 24956, Note_off_c, 1, 62, 0
3, 24960, Note_on_c, 1, 59, 66
3, 25052, Note_off_c, 1, 59, 0
3, 25056, Note_on_c, 1, 62, 66
3, 25148, Note_off_c, 1, 62, 0
3, 25152, Note_on_c, 1, 59, 66
3, 25232, Note_on_c, 1, 62, 66
3, 25244, Note_off_c, 1, 59, 0
3, 25324, Note_off_c, 1, 62, 0
3, 25344, Note_on_c, 1, 59, 66
3, 25436, Note_off_c, 1, 59, 0
3, 25440, Note_on_c, 1, 62, 66
3, 25532, Note_off_c, 1, 62, 0
3, 25536, Note_on_c, 1, 59, 66
3, 25616, Note_on_c, 1, 62, 66
3, 25628, Note_off_c, 1, 59, 0
3, 25708, Note_off_c, 1, 62, 0
3, 25728, Note_on_c, 1, 59, 66
3, 25820, Note_off_c, 1, 59, 0
3, 25824, Note_on_c, 1, 62, 66
3, 25916, Note_off_c, 1, 62, 0
3, 25920, Note_on_c, 1, 59, 66
3, 26012, Note_off_c, 1, 59, 0
3, 26016, Note_on_c, 1, 62, 66
3, 26108, Note_off_c, 1, 62, 0
3, 26112, Note_on_c, 1, 60, 73
3, 26204, Note_off_c, 1, 60, 0
3, 26208, Note_on_c, 1, 62, 73
3, 26300, Note_off_c, 1, 62, 0
3, 26304, Note_on_c, 1, 59, 73
3, 26396, Note_off_c, 1, 59, 0
3, 26400, Note_on_c, 1, 62, 73
3, 26492, Note_off_c, 1, 62, 0
3, 26496, Note_on_c, 1, 57, 73
3, 26588, Note_off_c, 1, 57, 0
3, 26592, Note_on_c, 1, 62, 73
3, 26684, Note_off_c, 1, 62, 0
3, 26688, Note_on_c, 1, 59, 73
3, 26780, Note_off_c, 1, 59, 0
3, 26784, Note_on_c, 1, 62, 73
3, 26876, Note_off_c, 1, 62, 0
3, 26880, Note_on_c, 1, 60, 73
3, 26972, Note_off_c, 1, 60, 0
3, 26976, Note_on_c, 1, 62, 73
3, 27068, Note_off_c, 1, 62, 0
3, 27072, Note_on_c, 1, 59, 73
3, 27164, Note_off_c, 1, 59, 0
3, 27168, Note_on_c, 1, 62, 73
3, 27260, Note_off_c, 1, 62, 0
3, 27264, Note_on_c, 1, 60, 73
3, 27356, Note_off_c, 1, 60, 0
3, 27360, Note_on_c, 1, 62, 73
3, 27452, Note_off_c, 1, 62, 0
3, 27456, Note_on_c, 1, 57, 73
3, 27548, Note_off_c, 1, 57, 0
3, 27552, Note_on_c, 1, 62, 73
3, 27644, Note_off_c, 1, 62, 0
3, 42624, Note_on_c, 1, 60, 99
3, 42624, Note_on_c, 1, 57, 99
3, 42640, Note_on_c, 1, 50, 99
3, 43004, Note_off_c, 1, 60, 0
3, 43004, Note_off_c, 1, 57, 0
3, 43008, Note_on_c, 1, 59, 99
3, 43008, Note_on_c, 1, 55, 99
3, 43020, Note_off_c, 1, 50, 0
3, 43388, Note_off_c, 1, 59, 0
3, 43388, Note_off_c, 1, 55, 0
3, 43392, Note_on_c, 1, 55, 99
3, 43392, Note_on_c, 1, 43, 99
3, 43772, Note_off_c, 1, 55, 0
3, 43772, Note_off_c, 1, 43, 0
3, 43776, Note_on_c, 1, 55, 99
3, 43776, Note_on_c, 1, 43, 99
3, 44156, Note_off_c, 1, 55, 0
3, 44156, Note_off_c, 1, 43, 0
3, 51840, Note_on_c, 1, 60, 66
3, 51840, Note_on_c, 1, 53, 66
3, 52220, Note_off_c, 1, 60, 0
3, 52220, Note_off_c, 1, 53, 0
3, 52224, Note_on_c, 1, 60, 66
3, 52224, Note_on_c, 1, 52, 66
3, 52604, Note_off_c, 1, 60, 0
3, 52604, Note_off_c, 1, 52, 0
3, 53376, Note_on_c, 1, 60, 66
3, 53376, Note_on_c, 1, 52, 66
3, 53756, Note_off_c, 1, 60, 0
3, 53756, Note_off_c, 1, 52, 0
3, 53760, Note_on_c, 1, 60, 66
3, 53760, Note_on_c, 1, 50, 66
3, 54140, Note_off_c, 1, 60, 0
3, 54140, Note_off_c, 1, 50, 0
3, 54912, Note_on_c, 1, 59, 66
3, 54912, Note_on_c, 1, 50, 66
3, 55292, Note_off_c, 1, 59, 0
3, 55292, Note_off_c, 1, 50, 0
3, 55296, Note_on_c, 1, 60, 66
3, 55296, Note_on_c, 1, 48, 66
3, 55676, Note_off_c, 1, 60, 0
3, 55676, Note_off_c, 1, 48, 0
3, 56432, Note_on_c, 1, 52, 66
3, 56448, Note_on_c, 1, 48, 66
3, 56812, Note_off_c, 1, 52, 0
3, 56828, Note_off_c, 1, 48, 0
3, 56832, Note_on_c, 1, 57, 66
3, 56832, Note_on_c, 1, 53, 66
3, 58364, Note_off_c, 1, 57, 0
3, 58364, Note_off_c, 1, 53, 0
3, 58368, Note_on_c, 1, 53, 73
3, 58940, Note_off_c, 1, 53, 0
3, 58944, Note_on_c, 1, 55, 82
3, 59132, Note_off_c, 1, 55, 0
3, 59136, Note_on_c, 1, 57, 90
3, 59708, Note_off_c, 1, 57, 0
3, 59712, Note_on_c, 1, 54, 95
3, 59900, Note_off_c, 1, 54, 0
3, 59904, Note_on_c, 1, 43, 99
3, 59996, Note_off_c, 1, 43, 0
3, 60000, Note_on_c, 1, 47, 99
3, 60092, Note_off_c, 1, 47, 0
3, 60096, Note_on_c, 1, 50, 99
3, 60188, Note_off_c, 1, 50, 0
3, 60192, Note_on_c, 1, 55, 99
3, 60284, Note_off_c, 1, 55, 0
3, 60288, Note_on_c, 1, 43, 99
3, 60380, Note_off_c, 1, 43, 0
3, 60384, Note_on_c, 1, 48, 99
3, 60476, Note_off_c, 1, 48, 0
3, 60480, Note_on_c, 1, 52, 99
3, 60572, Note_off_c, 1, 52, 0
3, 60576, Note_on_c, 1, 55, 99
3, 60668, Note_off_c, 1, 55, 0
3, 60672, Note_on_c, 1, 43, 99
3, 60764, Note_off_c, 1, 43, 0
3, 60768, Note_on_c, 1, 47, 99
3, 60860, Note_off_c, 1, 47, 0
3, 60864, Note_on_c, 1, 50, 99
3, 60956, Note_off_c, 1, 50, 0
3, 60960, Note_on_c, 1, 55, 99
3, 61052, Note_off_c, 1, 55, 0
3, 61056, Note_on_c, 1, 43, 99
3, 61148, Note_off_c, 1, 43, 0
3, 61152, Note_on_c, 1, 48, 99
3, 61244, Note_off_c, 1, 48, 0
3, 61248, Note_on_c, 1, 52, 99
3, 61340, Note_off_c, 1, 52, 0
3, 61344, Note_on_c, 1, 55, 99
3, 61436, Note_off_c, 1, 55, 0
3, 61440, Note_on_c, 1, 43, 99
3, 61820, Note_off_c, 1, 43, 0
3, 61824, Note_on_c, 1, 55, 99
3, 62204, Note_off_c, 1, 55, 0
3, 62208, Note_on_c, 1, 43, 99
3, 62588, Note_off_c, 1, 43, 0
3, 62976, Note_on_c, 1, 61, 66
3, 63068, Note_off_c, 1, 61, 0
3, 63088, Note_on_c, 1, 62, 66
3, 63168, Note_on_c, 1, 61, 66
3, 63180, Note_off_c, 1, 62, 0
3, 63260, Note_off_c, 1, 61, 0
3, 63264, Note_on_c, 1, 62, 66
3, 63356, Note_off_c, 1, 62, 0
3, 63360, Note_on_c, 1, 61, 66
3, 63452, Note_off_c, 1, 61, 0
3, 63456, Note_on_c, 1, 62, 66
3, 63548, Note_off_c, 1, 62, 0
3, 63552, Note_on_c, 1, 61, 66
3, 63644, Note_off_c, 1, 61, 0
3, 63648, Note_on_c, 1, 62, 66
3, 63740, Note_off_c, 1, 62, 0
3, 63744, Note_on_c, 1, 60, 66
3, 63836, Note_off_c, 1, 60, 0
3, 63840, Note_on_c, 1, 62, 66
3, 63932, Note_off_c, 1, 62, 0
3, 63936, Note_on_c, 1, 60, 66
3, 64028, Note_off_c, 1, 60, 0
3, 64032, Note_on_c, 1, 62, 66
3, 64124, Note_off_c, 1, 62, 0
3, 64128, Note_on_c, 1, 60, 66
3, 64208, Note_on_c, 1, 62, 66
3, 64220, Note_off_c, 1, 60, 0
3, 64300, Note_off_c, 1, 62, 0
3, 64320, Note_on_c, 1, 60, 66
3, 64412, Note_off_c, 1, 60, 0
3, 64416, Note_on_c, 1, 62, 66
3, 64508, Note_off_c, 1, 62, 0
3, 64512, Note_on_c, 1, 59, 66
3, 64604, Note_off_c, 1, 59, 0
3, 64608, Note_on_c, 1, 62, 66
3, 64700, Note_off_c, 1, 62, 0
3, 64704, Note_on_c, 1, 59, 66
3, 64796, Note_off_c, 1, 59, 0
3, 64800, Note_on_c, 1, 62, 66
3, 64892, Note_off_c, 1, 62, 0
3, 64896, Note_on_c, 1, 59, 66
3, 64988, Note_off_c, 1, 59, 0
3, 64992, Note_on_c, 1, 62, 66
3, 65084, Note_off_c, 1, 62, 0
3, 65088, Note_on_c, 1, 59, 66
3, 65180, Note_off_c, 1, 59, 0
3, 65184, Note_on_c, 1, 62, 66
3, 65276, Note_off_c, 1, 62, 0
3, 65296, Note_on_c, 1, 59, 66
3, 65376, Note_on_c, 1, 62, 66
3, 65388, Note_off_c, 1, 59, 0
3, 65468, Note_off_c, 1, 62, 0
3, 65472, Note_on_c, 1, 59, 66
3, 65564, Note_off_c, 1, 59, 0
3, 65568, Note_on_c, 1, 62, 66
3, 65660, Note_off_c, 1, 62, 0
3, 65664, Note_on_c, 1, 59, 66
3, 65756, Note_off_c, 1, 59, 0
3, 65760, Note_on_c, 1, 62, 66
3, 65852, Note_off_c, 1, 62, 0
3, 65856, Note_on_c, 1, 59, 66
3, 65948, Note_off_c, 1, 59, 0
3, 65952, Note_on_c, 1, 62, 66
3, 66044, Note_off_c, 1, 62, 0
3, 66048, Note_on_c, 1, 60, 73
3, 66140, Note_off_c, 1, 60, 0
3, 66144, Note_on_c, 1, 62, 73
3, 66236, Note_off_c, 1, 62, 0
3, 66240, Note_on_c, 1, 59, 73
3, 66332, Note_off_c, 1, 59, 0
3, 66336, Note_on_c, 1, 62, 73
3, 66428, Note_off_c, 1, 62, 0
3, 66432, Note_on_c, 1, 57, 73
3, 66524, Note_off_c, 1, 57, 0
3, 66528, Note_on_c, 1, 62, 73
3, 66620, Note_off_c, 1, 62, 0
3, 66624, Note_on_c, 1, 59, 73
3, 66716, Note_off_c, 1, 59, 0
3, 66720, Note_on_c, 1, 62, 73
3, 66812, Note_off_c, 1, 62, 0
3, 66816, Note_on_c, 1, 60, 73
3, 66908, Note_off_c, 1, 60, 0
3, 66912, Note_on_c, 1, 62, 73
3, 67004, Note_off_c, 1, 62, 0
3, 67008, Note_on_c, 1, 59, 73
3, 67100, Note_off_c, 1, 59, 0
3, 67104, Note_on_c, 1, 62, 73
3, 67196, Note_off_c, 1, 62, 0
3, 67200, Note_on_c, 1, 60, 73
3, 67292, Note_off_c, 1, 60, 0
3, 67296, Note_on_c, 1, 62, 73
3, 67388, Note_off_c, 1, 62, 0
3, 67392, Note_on_c, 1, 57, 73
3, 67484, Note_off_c, 1, 57, 0
3, 67488, Note_on_c, 1, 62, 73
3, 67580, Note_off_c, 1, 62, 0
3, 67584, Note_on_c, 1, 59, 66
3, 67676, Note_off_c, 1, 59, 0
3, 67680, Note_on_c, 1, 62, 66
3, 67772, Note_off_c, 1, 62, 0
3, 67776, Note_on_c, 1, 59, 66
3, 67868, Note_off_c, 1, 59, 0
3, 67872, Note_on_c, 1, 62, 66
3, 67964, Note_off_c, 1, 62, 0
3, 67968, Note_on_c, 1, 59, 66
3, 68060, Note_off_c, 1, 59, 0
3, 68064, Note_on_c, 1, 62, 66
3, 68156, Note_off_c, 1, 62, 0
3, 68160, Note_on_c, 1, 59, 66
3, 68240, Note_on_c, 1, 62, 66
3, 68252, Note_off_c, 1, 59, 0
3, 68332, Note_off_c, 1, 62, 0
3, 68352, Note_on_c, 1, 59, 66
3, 68444, Note_off_c, 1, 59, 0
3, 68448, Note_on_c, 1, 62, 66
3, 68540, Note_off_c, 1, 62, 0
3, 68544, Note_on_c, 1, 59, 66
3, 68624, Note_on_c, 1, 62, 66
3, 68636, Note_off_c, 1, 59, 0
3, 68716, Note_off_c, 1, 62, 0
3, 68736, Note_on_c, 1, 59, 66
3, 68828, Note_off_c, 1, 59, 0
3, 68832, Note_on_c, 1, 62, 66
3, 68924, Note_off_c, 1, 62, 0
3, 68928, Note_on_c, 1, 59, 66
3, 69020, Note_off_c, 1, 59, 0
3, 69024, Note_on_c, 1, 62, 66
3, 69116, Note_off_c, 1, 62, 0
3, 69120, Note_on_c, 1, 60, 73
3, 69212, Note_off_c, 1, 60, 0
3, 69216, Note_on_c, 1, 62, 73
3, 69308, Note_off_c, 1, 62, 0
3, 69312, Note_on_c, 1, 59, 73
3, 69404, Note_off_c, 1, 59, 0
3, 69408, Note_on_c, 1, 62, 73
3, 69500, Note_off_c, 1, 62, 0
3, 69504, Note_on_c, 1, 57, 73
3, 69596, Note_off_c, 1, 57, 0
3, 69600, Note_on_c, 1, 62, 73
3, 69692, Note_off_c, 1, 62, 0
3, 69696, Note_on_c, 1, 59, 73
3, 69788, Note_off_c, 1, 59, 0
3, 69792, Note_on_c, 1, 62, 73
3, 69884, Note_off_c, 1, 62, 0
3, 69888, Note_on_c, 1, 60, 73
3, 69980, Note_off_c, 1, 60, 0
3, 69984, Note_on_c, 1, 62, 73
3, 70076, Note_off_c, 1, 62, 0
3, 70080, Note_on_c, 1, 59, 73
3, 70172, Note_off_c, 1, 59, 0
3, 70176, Note_on_c, 1, 62, 73
3, 70268, Note_off_c, 1, 62, 0
3, 70272, Note_on_c, 1, 60, 73
3, 70364, Note_off_c, 1, 60, 0
3, 70368, Note_on_c, 1, 62, 73
3, 70460, Note_off_c, 1, 62, 0
3, 70464, Note_on_c, 1, 57, 73
3, 70556, Note_off_c, 1, 57, 0
3, 70560, Note_on_c, 1, 62, 73
3, 70652, Note_off_c, 1, 62, 0
3, 85632, Note_on_c, 1, 60, 99
3, 85632, Note_on_c, 1, 57, 99
3, 85648, Note_on_c, 1, 50, 99
3, 86012, Note_off_c, 1, 60, 0
3, 86012, Note_off_c, 1, 57, 0
3, 86016, Note_on_c, 1, 59, 99
3, 86016, Note_on_c, 1, 55, 99
3, 86028, Note_off_c, 1, 50, 0
3, 86396, Note_off_c, 1, 59, 0
3, 86396, Note_off_c, 1, 55, 0
3, 86400, Note_on_c, 1, 55, 99
3, 86400, Note_on_c, 1, 43, 99
3, 86780, Note_off_c, 1, 55, 0
3, 86780, Note_off_c, 1, 43, 0
3, 86784, Note_on_c, 1, 55, 99
3, 86784, Note_on_c, 1, 43, 99
3, 87164, Note_off_c, 1, 55, 0
3, 87164, Note_off_c, 1, 43, 0
3, 87552, Note_on_c, 1, 55, 99
3, 87552, Note_on_c, 1, 43, 99
3, 87932, Note_off_c, 1, 55, 0
3, 87932, Note_off_c, 1, 43, 0
3, 90240, Note_on_c, 1, 57, 90
3, 90240, Note_on_c, 1, 60, 90
3, 90240, Note_on_c, 1, 50, 90
3, 90620, Note_off_c, 1, 57, 0
3, 90620, Note_off_c, 1, 60, 0
3, 90620, Note_off_c, 1, 50, 0
3, 90720, Note_on_c, 1, 43, 90
3, 90812, Note_off_c, 1, 43, 0
3, 90816, Note_on_c, 1, 45, 90
3, 90908, Note_off_c, 1, 45, 0
3, 90912, Note_on_c, 1, 46, 90
3, 91004, Note_off_c, 1, 46, 0
3, 91008, Note_on_c, 1, 48, 90
3, 91100, Note_off_c, 1, 48, 0
3, 91104, Note_on_c, 1, 50, 90
3, 91196, Note_off_c, 1, 50, 0
3, 91200, Note_on_c, 1, 52, 90
3, 91292, Note_off_c, 1, 52, 0
3, 91296, Note_on_c, 1, 54, 90
3, 91388, Note_off_c, 1, 54, 0
3, 91392, Note_on_c, 1, 55, 99
3, 91772, Note_off_c, 1, 55, 0
3, 92256, Note_on_c, 1, 45, 90
3, 92348, Note_off_c, 1, 45, 0
3, 92352, Note_on_c, 1, 47, 90
3, 92444, Note_off_c, 1, 47, 0
3, 92448, Note_on_c, 1, 49, 90
3, 92540, Note_off_c, 1, 49, 0
3, 92544, Note_on_c, 1, 50, 90
3, 92636, Note_off_c, 1, 50, 0
3, 92640, Note_on_c, 1, 52, 90
3, 92732, Note_off_c, 1, 52, 0
3, 92736, Note_on_c, 1, 54, 90
3, 92828, Note_off_c, 1, 54, 0
3, 92832, Note_on_c, 1, 56, 90
3, 92924, Note_off_c, 1, 56, 0
3, 92928, Note_on_c, 1, 57, 99
3, 93308, Note_off_c, 1, 57, 0
3, 93696, Note_on_c, 1, 50, 99
3, 93696, Note_on_c, 1, 38, 99
3, 94076, Note_off_c, 1, 50, 0
3, 94076, Note_off_c, 1, 38, 0
3, 96384, Note_on_c, 1, 55, 90
3, 96384, Note_on_c, 1, 52, 90
3, 96384, Note_on_c, 1, 45, 90
3, 96764, Note_off_c, 1, 55, 0
3, 96764, Note_off_c, 1, 52, 0
3, 96764, Note_off_c, 1, 45, 0
3, 96768, Note_on_c, 1, 53, 90
3, 96768, Note_on_c, 1, 50, 90
3, 97148, Note_off_c, 1, 53, 0
3, 97148, Note_off_c, 1, 50, 0
3, 97632, Note_on_c, 1, 62, 90
3, 97724, Note_off_c, 1, 62, 0
3, 97728, Note_on_c, 1, 65, 90
3, 97820, Note_off_c, 1, 65, 0
3, 97824, Note_on_c, 1, 64, 90
3, 97916, Note_off_c, 1, 64, 0
3, 97920, Note_on_c, 1, 62, 90
3, 98012, Note_off_c, 1, 62, 0
3, 98016, Note_on_c, 1, 60, 90
3, 98108, Note_off_c, 1, 60, 0
3, 98112, Note_on_c, 1, 59, 90
3, 98204, Note_off_c, 1, 59, 0
3, 98208, Note_on_c, 1, 57, 90
3, 98300, Note_off_c, 1, 57, 0
3, 98304, Note_on_c, 1, 56, 99
3, 98684, Note_off_c, 1, 56, 0
3, 99168, Note_on_c, 1, 55, 90
3, 99260, Note_off_c, 1, 55, 0
3, 99264, Note_on_c, 1, 59, 90
3, 99356, Note_off_c, 1, 59, 0
3, 99360, Note_on_c, 1, 57, 90
3, 99452, Note_off_c, 1, 57, 0
3, 99456, Note_on_c, 1, 55, 90
3, 99548, Note_off_c, 1, 55, 0
3, 99552, Note_on_c, 1, 53, 90
3, 99644, Note_off_c, 1, 53, 0
3, 99648, Note_on_c, 1, 52, 90
3, 99740, Note_off_c, 1, 52, 0
3, 99744, Note_on_c, 1, 50, 90
3, 99836, Note_off_c, 1, 50, 0
3, 99840, Note_on_c, 1, 48, 99
3, 100220, Note_off_c, 1, 48, 0
3, 103776, Note_on_c, 1, 59, 90
3, 103868, Note_off_c, 1, 59, 0
3, 103872, Note_on_c, 1, 65, 90
3, 103964, Note_off_c, 1, 65, 0
3, 103968, Note_on_c, 1, 64, 90
3, 104060, Note_off_c, 1, 64, 0
3, 104064, Note_on_c, 1, 62, 90
3, 104156, Note_off_c, 1, 62, 0
3, 104160, Note_on_c, 1, 60, 90
3, 104252, Note_off_c, 1, 60, 0
3, 104256, Note_on_c, 1, 59, 90
3, 104348, Note_off_c, 1, 59, 0
3, 104352, Note_on_c, 1, 57, 90
3, 104444, Note_off_c, 1, 57, 0
3, 104448, Note_on_c, 1, 56, 99
3, 104828, Note_off_c, 1, 56, 0
3, 105312, Note_on_c, 1, 57, 90
3, 105404, Note_off_c, 1, 57, 0
3, 105408, Note_on_c, 1, 60, 90
3, 105500, Note_off_c, 1, 60, 0
3, 105504, Note_on_c, 1, 59, 90
3, 105596, Note_off_c, 1, 59, 0
3, 105600, Note_on_c, 1, 57, 90
3, 105692, Note_off_c, 1, 57, 0
3, 105696, Note_on_c, 1, 55, 90
3, 105788, Note_off_c, 1, 55, 0
3, 105792, Note_on_c, 1, 53, 90
3, 105884, Note_off_c, 1, 53, 0
3, 105888, Note_on_c, 1, 52, 90
3, 105980, Note_off_c, 1, 52, 0
3, 105984, Note_on_c, 1, 50, 99
3, 106748, Note_off_c, 1, 50, 0
3, 106752, Note_on_c, 1, 55, 99
3, 106752, Note_on_c, 1, 58, 99
3, 106752, Note_on_c, 1, 48, 99
3, 107516, Note_off_c, 1, 55, 0
3, 107516, Note_off_c, 1, 58, 0
3, 107516, Note_off_c, 1, 48, 0
3, 114816, Note_on_c, 1, 58, 66
3, 114816, Note_on_c, 1, 65, 66
3, 115196, Note_off_c, 1, 58, 0
3, 115196, Note_off_c, 1, 65, 0
3, 115200, Note_on_c, 1, 57, 66
3, 115200, Note_on_c, 1, 65, 66
3, 115580, Note_off_c, 1, 57, 0
3, 115580, Note_off_c, 1, 65, 0
3, 116352, Note_on_c, 1, 57, 66
3, 116352, Note_on_c, 1, 65, 66
3, 116732, Note_off_c, 1, 57, 0
3, 116732, Note_off_c, 1, 65, 0
3, 116736, Note_on_c, 1, 55, 66
3, 116736, Note_on_c, 1, 65, 66
3, 117116, Note_off_c, 1, 55, 0
3, 117116, Note_off_c, 1, 65, 0
3, 117888, Note_on_c, 1, 55, 66
3, 117888, Note_on_c, 1, 64, 66
3, 118268, Note_off_c, 1, 55, 0
3, 118268, Note_off_c, 1, 64, 0
3, 118272, Note_on_c, 1, 53, 66
3, 118272, Note_on_c, 1, 65, 66
3, 118652, Note_off_c, 1, 53, 0
3, 118652, Note_off_c, 1, 65, 0
3, 119808, Note_on_c, 1, 53, 66
3, 119996, Note_off_c, 1, 53, 0
3, 120000, Note_on_c, 1, 55, 66
3, 120092, Note_off_c, 1, 55, 0
3, 120096, Note_on_c, 1, 57, 66
3, 120188, Note_off_c, 1, 57, 0
3, 120192, Note_on_c, 1, 58, 66
3, 120284, Note_off_c, 1, 58, 0
3, 120288, Note_on_c, 1, 60, 66
3, 120380, Note_off_c, 1, 60, 0
3, 120384, Note_on_c, 1, 62, 66
3, 120476, Note_off_c, 1, 62, 0
3, 120480, Note_on_c, 1, 64, 66
3, 120572, Note_off_c, 1, 64, 0
3, 120576, Note_on_c, 1, 65, 66
3, 120668, Note_off_c, 1, 65, 0
3, 120672, Note_on_c, 1, 64, 66
3, 120764, Note_off_c, 1, 64, 0
3, 120768, Note_on_c, 1, 62, 66
3, 120860, Note_off_c, 1, 62, 0
3, 120864, Note_on_c, 1, 60, 66
3, 120956, Note_off_c, 1, 60, 0
3, 120960, Note_on_c, 1, 58, 66
3, 121052, Note_off_c, 1, 58, 0
3, 121056, Note_on_c, 1, 57, 66
3, 121148, Note_off_c, 1, 57, 0
3, 121152, Note_on_c, 1, 55, 66
3, 121244, Note_off_c, 1, 55, 0
3, 121248, Note_on_c, 1, 53, 66
3, 121340, Note_off_c, 1, 53, 0
3, 121344, Note_on_c, 1, 52, 66
3, 121532, Note_off_c, 1, 52, 0
3, 121536, Note_on_c, 1, 53, 66
3, 121628, Note_off_c, 1, 53, 0
3, 121632, Note_on_c, 1, 55, 66
3, 121724, Note_off_c, 1, 55, 0
3, 121728, Note_on_c, 1, 57, 66
3, 121820, Note_off_c, 1, 57, 0
3, 121824, Note_on_c, 1, 59, 66
3, 121916, Note_off_c, 1, 59, 0
3, 121920, Note_on_c, 1, 60, 66
3, 122012, Note_off_c, 1, 60, 0
3, 122016, Note_on_c, 1, 62, 66
3, 122108, Note_off_c, 1, 62, 0
3, 122112, Note_on_c, 1, 64, 66
3, 122204, Note_off_c, 1, 64, 0
3, 122208, Note_on_c, 1, 62, 66
3, 122300, Note_off_c, 1, 62, 0
3, 122304, Note_on_c, 1, 60, 66
3, 122396, Note_off_c, 1, 60, 0
3, 122400, Note_on_c, 1, 59, 66
3, 122492, Note_off_c, 1, 59, 0
3, 122496, Note_on_c, 1, 57, 66
3, 122588, Note_off_c, 1, 57, 0
3, 122592, Note_on_c, 1, 55, 66
3, 122684, Note_off_c, 1, 55, 0
3, 122688, Note_on_c, 1, 53, 66
3, 122780, Note_off_c, 1, 53, 0
3, 122784, Note_on_c, 1, 52, 66
3, 122876, Note_off_c, 1, 52, 0
3, 122880, Note_on_c, 1, 50, 66
3, 123068, Note_off_c, 1, 50, 0
3, 123072, Note_on_c, 1, 52, 66
3, 123164, Note_off_c, 1, 52, 0
3, 123168, Note_on_c, 1, 53, 66
3, 123260, Note_off_c, 1, 53, 0
3, 123264, Note_on_c, 1, 55, 66
3, 123356, Note_off_c, 1, 55, 0
3, 123360, Note_on_c, 1, 57, 66
3, 123452, Note_off_c, 1, 57, 0
3, 123456, Note_on_c, 1, 59, 66
3, 123548, Note_off_c, 1, 59, 0
3, 123552, Note_on_c, 1, 60, 66
3, 123644, Note_off_c, 1, 60, 0
3, 123648, Note_on_c, 1, 62, 66
3, 123740, Note_off_c, 1, 62, 0
3, 123744, Note_on_c, 1, 60, 66
3, 123836, Note_off_c, 1, 60, 0
3, 123840, Note_on_c, 1, 59, 66
3, 123932, Note_off_c, 1, 59, 0
3, 123936, Note_on_c, 1, 57, 66
3, 124028, Note_off_c, 1, 57, 0
3, 124032, Note_on_c, 1, 55, 66
3, 124124, Note_off_c, 1, 55, 0
3, 124128, Note_on_c, 1, 53, 66
3, 124220, Note_off_c, 1, 53, 0
3, 124224, Note_on_c, 1, 52, 66
3, 124316, Note_off_c, 1, 52, 0
3, 124320, Note_on_c, 1, 50, 66
3, 124412, Note_off_c, 1, 50, 0
3, 124416, Note_on_c, 1, 48, 66
3, 124604, Note_off_c, 1, 48, 0
3, 124608, Note_on_c, 1, 50, 66
3, 124700, Note_off_c, 1, 50, 0
3, 124704, Note_on_c, 1, 52, 66
3, 124796, Note_off_c, 1, 52, 0
3, 124800, Note_on_c, 1, 53, 66
3, 124892, Note_off_c, 1, 53, 0
3, 124896, Note_on_c, 1, 55, 66
3, 124988, Note_off_c, 1, 55, 0
3, 124992, Note_on_c, 1, 57, 66
3, 125084, Note_off_c, 1, 57, 0
3, 125088, Note_on_c, 1, 59, 66
3, 125180, Note_off_c, 1, 59, 0
3, 125184, Note_on_c, 1, 60, 66
3, 125276, Note_off_c, 1, 60, 0
3, 125280, Note_on_c, 1, 59, 66
3, 125372, Note_off_c, 1, 59, 0
3, 125376, Note_on_c, 1, 57, 66
3, 125468, Note_off_c, 1, 57, 0
3, 125472, Note_on_c, 1, 55, 66
3, 125564, Note_off_c, 1, 55, 0
3, 125568, Note_on_c, 1, 53, 66
3, 125660, Note_off_c, 1, 53, 0
3, 125680, Note_on_c, 1, 52, 66
3, 125760, Note_on_c, 1, 50, 66
3, 125772, Note_off_c, 1, 52, 0
3, 125852, Note_off_c, 1, 50, 0
3, 125856, Note_on_c, 1, 48, 66
3, 125948, Note_off_c, 1, 48, 0
3, 125952, Note_on_c, 1, 57, 66
3, 125952, Note_on_c, 1, 53, 66
3, 127484, Note_off_c, 1, 57, 0
3, 127484, Note_off_c, 1, 53, 0
3, 127488, Note_on_c, 1, 53, 66
3, 128060, Note_off_c, 1, 53, 0
3, 128064, Note_on_c, 1, 55, 66
3, 128252, Note_off_c, 1, 55, 0
3, 128256, Note_on_c, 1, 57, 66
3, 128828, Note_off_c, 1, 57, 0
3, 128832, Note_on_c, 1, 54, 66
3, 129020, Note_off_c, 1, 54, 0
3, 129024, Note_on_c, 1, 43, 99
3, 129116, Note_off_c, 1, 43, 0
3, 129120, Note_on_c, 1, 47, 99
3, 129212, Note_off_c, 1, 47, 0
3, 129216, Note_on_c, 1, 50, 99
3, 129308, Note_off_c, 1, 50, 0
3, 129312, Note_on_c, 1, 55, 99
3, 129404, Note_off_c, 1, 55, 0
3, 129408, Note_on_c, 1, 43, 99
3, 129500, Note_off_c, 1, 43, 0
3, 129504, Note_on_c, 1, 48, 99
3, 129596, Note_off_c, 1, 48, 0
3, 129600, Note_on_c, 1, 52, 99
3, 129692, Note_off_c, 1, 52, 0
3, 129696, Note_on_c, 1, 55, 99
3, 129788, Note_off_c, 1, 55, 0
3, 129792, Note_on_c, 1, 43, 99
3, 129884, Note_off_c, 1, 43, 0
3, 129888, Note_on_c, 1, 47, 99
3, 129980, Note_off_c, 1, 47, 0
3, 129984, Note_on_c, 1, 50, 99
3, 130076, Note_off_c, 1, 50, 0
3, 130080, Note_on_c, 1, 55, 99
3, 130172, Note_off_c, 1, 55, 0
3, 130176, Note_on_c, 1, 43, 99
3, 130268, Note_off_c, 1, 43, 0
3, 130272, Note_on_c, 1, 48, 99
3, 130364, Note_off_c, 1, 48, 0
3, 130368, Note_on_c, 1, 52, 99
3, 130460, Note_off_c, 1, 52, 0
3, 130464, Note_on_c, 1, 55, 99
3, 130556, Note_off_c, 1, 55, 0
3, 130560, Note_on_c, 1, 43, 99
3, 130940, Note_off_c, 1, 43, 0
3, 130944, Note_on_c, 1, 55, 99
3, 131324, Note_off_c, 1, 55, 0
3, 131328, Note_on_c, 1, 43, 99
3, 131708, Note_off_c, 1, 43, 0
3, 139872, Note_on_c, 1, 52, 90
3, 139964, Note_off_c, 1, 52, 0
3, 139968, Note_on_c, 1, 55, 90
3, 140060, Note_off_c, 1, 55, 0
3, 140064, Note_on_c, 1, 60, 90
3, 140156, Note_off_c, 1, 60, 0
3, 140160, Note_on_c, 1, 64, 90
3, 140540, Note_off_c, 1, 64, 0
3, 140640, Note_on_c, 1, 53, 90
3, 140732, Note_off_c, 1, 53, 0
3, 140736, Note_on_c, 1, 57, 90
3, 140828, Note_off_c, 1, 57, 0
3, 140832, Note_on_c, 1, 60, 90
3, 140924, Note_off_c, 1, 60, 0
3, 140928, Note_on_c, 1, 65, 90
3, 141308, Note_off_c, 1, 65, 0
3, 141408, Note_on_c, 1, 50, 90
3, 141500, Note_off_c, 1, 50, 0
3, 141504, Note_on_c, 1, 53, 90
3, 141596, Note_off_c, 1, 53, 0
3, 141600, Note_on_c, 1, 59, 90
3, 141692, Note_off_c, 1, 59, 0
3, 141696, Note_on_c, 1, 62, 90
3, 142076, Note_off_c, 1, 62, 0
3, 142176, Note_on_c, 1, 52, 90
3, 142268, Note_off_c, 1, 52, 0
3, 142272, Note_on_c, 1, 55, 90
3, 142364, Note_off_c, 1, 55, 0
3, 142368, Note_on_c, 1, 59, 90
3, 142460, Note_off_c, 1, 59, 0
3, 142464, Note_on_c, 1, 64, 90
3, 142844, Note_off_c, 1, 64, 0
3, 147456, Note_on_c, 1, 54, 66
3, 147456, Note_on_c, 1, 63, 66
3, 147456, Note_on_c, 1, 60, 66
3, 147644, Note_off_c, 1, 54, 0
3, 147644, Note_off_c, 1, 63, 0
3, 147644, Note_off_c, 1, 60, 0
3, 147648, Note_on_c, 1, 54, 66
3, 147648, Note_on_c, 1, 60, 66
3, 147648, Note_on_c, 1, 63, 66
3, 147836, Note_off_c, 1, 54, 0
3, 147836, Note_off_c, 1, 60, 0
3, 147836, Note_off_c, 1, 63, 0
3, 147840, Note_on_c, 1, 54, 66
3, 147840, Note_on_c, 1, 60, 66
3, 147840, Note_on_c, 1, 63, 66
3, 148028, Note_off_c, 1, 54, 0
3, 148028, Note_off_c, 1, 60, 0
3, 148028, Note_off_c, 1, 63, 0
3, 148032, Note_on_c, 1, 54, 66
3, 148032, Note_on_c, 1, 60, 66
3, 148032, Note_on_c, 1, 63, 66
3, 148220, Note_off_c, 1, 54, 0
3, 148220, Note_off_c, 1, 60, 0
3, 148220, Note_off_c, 1, 63, 0
3, 148224, Note_on_c, 1, 54, 66
3, 148224, Note_on_c, 1, 60, 66
3, 148224, Note_on_c, 1, 63, 66
3, 148412, Note_off_c, 1, 54, 0
3, 148412, Note_off_c, 1, 60, 0
3, 148412, Note_off_c, 1, 63, 0
3, 148416, Note_on_c, 1, 54, 66
3, 148416, Note_on_c, 1, 60, 66
3, 148416, Note_on_c, 1, 63, 66
3, 148604, Note_off_c, 1, 54, 0
3, 148604, Note_off_c, 1, 60, 0
3, 148604, Note_off_c, 1, 63, 0
3, 148608, Note_on_c, 1, 54, 66
3, 148608, Note_on_c, 1, 60, 66
3, 148608, Note_on_c, 1, 63, 66
3, 148796, Note_off_c, 1, 54, 0
3, 148796, Note_off_c, 1, 60, 0
3, 148796, Note_off_c, 1, 63, 0
3, 148800, Note_on_c, 1, 54, 66
3, 148800, Note_on_c, 1, 60, 66
3, 148800, Note_on_c, 1, 63, 66
3, 148988, Note_off_c, 1, 54, 0
3, 148988, Note_off_c, 1, 60, 0
3, 148988, Note_off_c, 1, 63, 0
3, 148992, Note_on_c, 1, 55, 99
3, 149084, Note_off_c, 1, 55, 0
3, 149088, Note_on_c, 1, 64, 99
3, 149180, Note_off_c, 1, 64, 0
3, 149184, Note_on_c, 1, 60, 99
3, 149276, Note_off_c, 1, 60, 0
3, 149280, Note_on_c, 1, 64, 99
3, 149372, Note_off_c, 1, 64, 0
3, 149376, Note_on_c, 1, 55, 99
3, 149468, Note_off_c, 1, 55, 0
3, 149472, Note_on_c, 1, 64, 99
3, 149564, Note_off_c, 1, 64, 0
3, 149568, Note_on_c, 1, 60, 99
3, 149660, Note_off_c, 1, 60, 0
3, 149664, Note_on_c, 1, 64, 99
3, 149756, Note_off_c, 1, 64, 0
3, 149760, Note_on_c, 1, 55, 99
3, 149852, Note_off_c, 1, 55, 0
3, 149856, Note_on_c, 1, 64, 99
3, 149948, Note_off_c, 1, 64, 0
3, 149952, Note_on_c, 1, 60, 99
3, 150044, Note_off_c, 1, 60, 0
3, 150048, Note_on_c, 1, 64, 99
3, 150140, Note_off_c, 1, 64, 0
3, 150144, Note_on_c, 1, 55, 99
3, 150236, Note_off_c, 1, 55, 0
3, 150240, Note_on_c, 1, 64, 99
3, 150332, Note_off_c, 1, 64, 0
3, 150336, Note_on_c, 1, 60, 99
3, 150428, Note_off_c, 1, 60, 0
3, 150432, Note_on_c, 1, 64, 99
3, 150524, Note_off_c, 1, 64, 0
3, 150528, Note_on_c, 1, 55, 99
3, 150620, Note_off_c, 1, 55, 0
3, 150624, Note_on_c, 1, 65, 99
3, 150716, Note_off_c, 1, 65, 0
3, 150720, Note_on_c, 1, 59, 99
3, 150812, Note_off_c, 1, 59, 0
3, 150816, Note_on_c, 1, 65, 99
3, 150908, Note_off_c, 1, 65, 0
3, 150912, Note_on_c, 1, 55, 99
3, 151004, Note_off_c, 1, 55, 0
3, 151008, Note_on_c, 1, 65, 99
3, 151100, Note_off_c, 1, 65, 0
3, 151104, Note_on_c, 1, 59, 99
3, 151196, Note_off_c, 1, 59, 0
3, 151200, Note_on_c, 1, 65, 99
3, 151292, Note_off_c, 1, 65, 0
3, 151296, Note_on_c, 1, 55, 99
3, 151388, Note_off_c, 1, 55, 0
3, 151392, Note_on_c, 1, 65, 99
3, 151484, Note_off_c, 1, 65, 0
3, 151488, Note_on_c, 1, 59, 99
3, 151580, Note_off_c, 1, 59, 0
3, 151584, Note_on_c, 1, 65, 99
3, 151676, Note_off_c, 1, 65, 0
3, 151680, Note_on_c, 1, 55, 99
3, 151772, Note_off_c, 1, 55, 0
3, 151776, Note_on_c, 1, 65, 99
3, 151868, Note_off_c, 1, 65, 0
3, 151872, Note_on_c, 1, 59, 99
3, 151964, Note_off_c, 1, 59, 0
3, 151968, Note_on_c, 1, 65, 99
3, 152060, Note_off_c, 1, 65, 0
3, 152064, Note_on_c, 1, 60, 99
3, 152064, Note_on_c, 1, 64, 99
3, 152444, Note_off_c, 1, 60, 0
3, 152444, Note_off_c, 1, 64, 0
3, 153216, Note_on_c, 1, 62, 99
3, 153216, Note_on_c, 1, 65, 99
3, 153216, Note_on_c, 1, 55, 99
3, 153596, Note_off_c, 1, 62, 0
3, 153596, Note_off_c, 1, 65, 0
3, 153600, Note_on_c, 1, 60, 99
3, 153600, Note_on_c, 1, 64, 99
3, 153604, Note_off_c, 1, 55, 0
3, 153980, Note_off_c, 1, 60, 0
3, 153980, Note_off_c, 1, 64, 0
3, 154752, Note_on_c, 1, 53, 99
3, 154752, Note_on_c, 1, 50, 99
3, 154752, Note_on_c, 1, 43, 99
3, 155132, Note_off_c, 1, 53, 0
3, 155132, Note_off_c, 1, 50, 0
3, 155132, Note_off_c, 1, 43, 0
3, 155136, Note_on_c, 1, 52, 99
3, 155136, Note_on_c, 1, 48, 99
3, 155516, Note_off_c, 1, 52, 0
3, 155516, Note_off_c, 1, 48, 0
3, 155520, Note_on_c, 1, 60, 99
3, 155520, Note_on_c, 1, 48, 99
3, 155900, Note_off_c, 1, 60, 0
3, 155900, Note_off_c, 1, 48, 0
3, 155904, Note_on_c, 1, 48, 99
3, 155904, Note_on_c, 1, 36, 99
3, 156284, Note_off_c, 1, 48, 0
3, 156284, Note_off_c, 1, 36, 0
3, 156672, Note_on_c, 1, 55, 99
3, 156672, Note_on_c, 1, 43, 99
3, 157052, Note_off_c, 1, 55, 0
3, 157052, Note_off_c, 1, 43, 0
3, 159360, Note_on_c, 1, 57, 90
3, 159360, Note_on_c, 1, 60, 90
3, 159360, Note_on_c, 1, 50, 90
3, 159740, Note_off_c, 1, 57, 0
3, 159740, Note_off_c, 1, 60, 0
3, 159740, Note_off_c, 1, 50, 0
3, 159840, Note_on_c, 1, 43, 90
3, 159932, Note_off_c, 1, 43, 0
3, 159936, Note_on_c, 1, 45, 90
3, 160028, Note_off_c, 1, 45, 0
3, 160032, Note_on_c, 1, 46, 90
3, 160124, Note_off_c, 1, 46, 0
3, 160128, Note_on_c, 1, 48, 90
3, 160220, Note_off_c, 1, 48, 0
3, 160224, Note_on_c, 1, 50, 90
3, 160316, Note_off_c, 1, 50, 0
3, 160320, Note_on_c, 1, 52, 90
3, 160412, Note_off_c, 1, 52, 0
3, 160416, Note_on_c, 1, 54, 90
3, 160508, Note_off_c, 1, 54, 0
3, 160512, Note_on_c, 1, 55, 99
3, 160892, Note_off_c, 1, 55, 0
3, 161376, Note_on_c, 1, 45, 90
3, 161468, Note_off_c, 1, 45, 0
3, 161472, Note_on_c, 1, 47, 90
3, 161564, Note_off_c, 1, 47, 0
3, 161568, Note_on_c, 1, 49, 90
3, 161660, Note_off_c, 1, 49, 0
3, 161664, Note_on_c, 1, 50, 90
3, 161756, Note_off_c, 1, 50, 0
3, 161760, Note_on_c, 1, 52, 90
3, 161852, Note_off_c, 1, 52, 0
3, 161856, Note_on_c, 1, 54, 90
3, 161948, Note_off_c, 1, 54, 0
3, 161952, Note_on_c, 1, 56, 90
3, 162044, Note_off_c, 1, 56, 0
3, 162048, Note_on_c, 1, 57, 99
3, 162428, Note_off_c, 1, 57, 0
3, 162816, Note_on_c, 1, 50, 90
3, 162816, Note_on_c, 1, 38, 90
3, 163196, Note_off_c, 1, 50, 0
3, 163196, Note_off_c, 1, 38, 0
3, 165504, Note_on_c, 1, 55, 90
3, 165504, Note_on_c, 1, 52, 90
3, 165504, Note_on_c, 1, 45, 90
3, 165884, Note_off_c, 1, 55, 0
3, 165884, Note_off_c, 1, 52, 0
3, 165884, Note_off_c, 1, 45, 0
3, 165888, Note_on_c, 1, 53, 90
3, 165888, Note_on_c, 1, 50, 90
3, 166268, Note_off_c, 1, 53, 0
3, 166268, Note_off_c, 1, 50, 0
3, 166752, Note_on_c, 1, 62, 90
3, 166844, Note_off_c, 1, 62, 0
3, 166848, Note_on_c, 1, 65, 90
3, 166940, Note_off_c, 1, 65, 0
3, 166944, Note_on_c, 1, 64, 90
3, 167036, Note_off_c, 1, 64, 0
3, 167040, Note_on_c, 1, 62, 90
3, 167132, Note_off_c, 1, 62, 0
3, 167136, Note_on_c, 1, 60, 90
3, 167228, Note_off_c, 1, 60, 0
3, 167232, Note_on_c, 1, 59, 90
3, 167324, Note_off_c, 1, 59, 0
3, 167328, Note_on_c, 1, 57, 90
3, 167420, Note_off_c, 1, 57, 0
3, 167424, Note_on_c, 1, 56, 99
3, 167804, Note_off_c, 1, 56, 0
3, 168288, Note_on_c, 1, 55, 90
3, 168380, Note_off_c, 1, 55, 0
3, 168384, Note_on_c, 1, 59, 90
3, 168476, Note_off_c, 1, 59, 0
3, 168480, Note_on_c, 1, 57, 90
3, 168572, Note_off_c, 1, 57, 0
3, 168576, Note_on_c, 1, 55, 90
3, 168668, Note_off_c, 1, 55, 0
3, 168672, Note_on_c, 1, 53, 90
3, 168764, Note_off_c, 1, 53, 0
3, 168768, Note_on_c, 1, 52, 90
3, 168860, Note_off_c, 1, 52, 0
3, 168864, Note_on_c, 1, 50, 90
3, 168956, Note_off_c, 1, 50, 0
3, 168960, Note_on_c, 1, 48, 99
3, 169340, Note_off_c, 1, 48, 0
3, 172896, Note_on_c, 1, 59, 90
3, 172988, Note_off_c, 1, 59, 0
3, 172992, Note_on_c, 1, 65, 90
3, 173084, Note_off_c, 1, 65, 0
3, 173088, Note_on_c, 1, 64, 90
3, 173180, Note_off_c, 1, 64, 0
3, 173184, Note_on_c, 1, 62, 90
3, 173276, Note_off_c, 1, 62, 0
3, 173280, Note_on_c, 1, 60, 90
3, 173372, Note_off_c, 1, 60, 0
3, 173376, Note_on_c, 1, 59, 90
3, 173468, Note_off_c, 1, 59, 0
3, 173472, Note_on_c, 1, 57, 90
3, 173564, Note_off_c, 1, 57, 0
3, 173568, Note_on_c, 1, 56, 99
3, 173948, Note_off_c, 1, 56, 0
3, 174432, Note_on_c, 1, 57, 90
3, 174524, Note_off_c, 1, 57, 0
3, 174528, Note_on_c, 1, 60, 90
3, 174620, Note_off_c, 1, 60, 0
3, 174624, Note_on_c, 1, 59, 90
3, 174716, Note_off_c, 1, 59, 0
3, 174720, Note_on_c, 1, 57, 90
3, 174812, Note_off_c, 1, 57, 0
3, 174816, Note_on_c, 1, 55, 90
3, 174908, Note_off_c, 1, 55, 0
3, 174912, Note_on_c, 1, 53, 90
3, 175004, Note_off_c, 1, 53, 0
3, 175008, Note_on_c, 1, 52, 90
3, 175100, Note_off_c, 1, 52, 0
3, 175104, Note_on_c, 1, 50, 99
3, 175868, Note_off_c, 1, 50, 0
3, 175872, Note_on_c, 1, 55, 99
3, 175872, Note_on_c, 1, 58, 99
3, 175872, Note_on_c, 1, 48, 99
3, 176636, Note_off_c, 1, 55, 0
3, 176636, Note_off_c, 1, 58, 0
3, 176636, Note_off_c, 1, 48, 0
3, 183936, Note_on_c, 1, 58, 90
3, 183936, Note_on_c, 1, 65, 90
3, 184316, Note_off_c, 1, 58, 0
3, 184316, Note_off_c, 1, 65, 0
3, 184320, Note_on_c, 1, 57, 90
3, 184320, Note_on_c, 1, 65, 90
3, 184700, Note_off_c, 1, 57, 0
3, 184700, Note_off_c, 1, 65, 0
3, 185472, Note_on_c, 1, 57, 90
3, 185472, Note_on_c, 1, 65, 90
3, 185852, Note_off_c, 1, 57, 0
3, 185852, Note_off_c, 1, 65, 0
3, 185856, Note_on_c, 1, 55, 90
3, 185856, Note_on_c, 1, 65, 90
3, 186236, Note_off_c, 1, 55, 0
3, 186236, Note_off_c, 1, 65, 0
3, 187008, Note_on_c, 1, 55, 90
3, 187008, Note_on_c, 1, 64, 90
3, 187388, Note_off_c, 1, 55, 0
3, 187388, Note_off_c, 1, 64, 0
3, 187392, Note_on_c, 1, 53, 90
3, 187392, Note_on_c, 1, 65, 90
3, 187772, Note_off_c, 1, 53, 0
3, 187772, Note_off_c, 1, 65, 0
3, 188928, Note_on_c, 1, 53, 66
3, 189116, Note_off_c, 1, 53, 0
3, 189120, Note_on_c, 1, 55, 66
3, 189212, Note_off_c, 1, 55, 0
3, 189216, Note_on_c, 1, 57, 66
3, 189308, Note_off_c, 1, 57, 0
3, 189312, Note_on_c, 1, 58, 66
3, 189404, Note_off_c, 1, 58, 0
3, 189408, Note_on_c, 1, 60, 66
3, 189500, Note_off_c, 1, 60, 0
3, 189504, Note_on_c, 1, 62, 66
3, 189596, Note_off_c, 1, 62, 0
3, 189600, Note_on_c, 1, 64, 66
3, 189692, Note_off_c, 1, 64, 0
3, 189696, Note_on_c, 1, 65, 66
3, 189788, Note_off_c, 1, 65, 0
3, 189792, Note_on_c, 1, 64, 66
3, 189884, Note_off_c, 1, 64, 0
3, 189888, Note_on_c, 1, 62, 66
3, 189980, Note_off_c, 1, 62, 0
3, 189984, Note_on_c, 1, 60, 66
3, 190076, Note_off_c, 1, 60, 0
3, 190080, Note_on_c, 1, 58, 66
3, 190172, Note_off_c, 1, 58, 0
3, 190176, Note_on_c, 1, 57, 66
3, 190268, Note_off_c, 1, 57, 0
3, 190272, Note_on_c, 1, 55, 66
3, 190364, Note_off_c, 1, 55, 0
3, 190368, Note_on_c, 1, 53, 66
3, 190460, Note_off_c, 1, 53, 0
3, 190464, Note_on_c, 1, 52, 66
3, 190652, Note_off_c, 1, 52, 0
3, 190656, Note_on_c, 1, 53, 66
3, 190748, Note_off_c, 1, 53, 0
3, 190752, Note_on_c, 1, 55, 66
3, 190844, Note_off_c, 1, 55, 0
3, 190848, Note_on_c, 1, 57, 66
3, 190940, Note_off_c, 1, 57, 0
3, 190944, Note_on_c, 1, 59, 66
3, 191036, Note_off_c, 1, 59, 0
3, 191040, Note_on_c, 1, 60, 66
3, 191132, Note_off_c, 1, 60, 0
3, 191136, Note_on_c, 1, 62, 66
3, 191228, Note_off_c, 1, 62, 0
3, 191232, Note_on_c, 1, 64, 66
3, 191324, Note_off_c, 1, 64, 0
3, 191328, Note_on_c, 1, 62, 66
3, 191420, Note_off_c, 1, 62, 0
3, 191424, Note_on_c, 1, 60, 66
3, 191516, Note_off_c, 1, 60, 0
3, 191520, Note_on_c, 1, 59, 66
3, 191612, Note_off_c, 1, 59, 0
3, 191616, Note_on_c, 1, 57, 66
3, 191708, Note_off_c, 1, 57, 0
3, 191712, Note_on_c, 1, 55, 66
3, 191804, Note_off_c, 1, 55, 0
3, 191808, Note_on_c, 1, 53, 66
3, 191900, Note_off_c, 1, 53, 0
3, 191904, Note_on_c, 1, 52, 66
3, 191996, Note_off_c, 1, 52, 0
3, 192000, Note_on_c, 1, 50, 66
3, 192188, Note_off_c, 1, 50, 0
3, 192192, Note_on_c, 1, 52, 66
3, 192284, Note_off_c, 1, 52, 0
3, 192288, Note_on_c, 1, 53, 66
3, 192380, Note_off_c, 1, 53, 0
3, 192384, Note_on_c, 1, 55, 66
3, 192476, Note_off_c, 1, 55, 0
3, 192480, Note_on_c, 1, 57, 66
3, 192572, Note_off_c, 1, 57, 0
3, 192576, Note_on_c, 1, 59, 66
3, 192668, Note_off_c, 1, 59, 0
3, 192672, Note_on_c, 1, 60, 66
3, 192764, Note_off_c, 1, 60, 0
3, 192768, Note_on_c, 1, 62, 66
3, 192860, Note_off_c, 1, 62, 0
3, 192864, Note_on_c, 1, 60, 66
3, 192956, Note_off_c, 1, 60, 0
3, 192960, Note_on_c, 1, 59, 66
3, 193052, Note_off_c, 1, 59, 0
3, 193056, Note_on_c, 1, 57, 66
3, 193148, Note_off_c, 1, 57, 0
3, 193152, Note_on_c, 1, 55, 66
3, 193244, Note_off_c, 1, 55, 0
3, 193248, Note_on_c, 1, 53, 66
3, 193340, Note_off_c, 1, 53, 0
3, 193344, Note_on_c, 1, 52, 66
3, 193436, Note_off_c, 1, 52, 0
3, 193440, Note_on_c, 1, 50, 66
3, 193532, Note_off_c, 1, 50, 0
3, 193536, Note_on_c, 1, 48, 66
3, 193724, Note_off_c, 1, 48, 0
3, 193728, Note_on_c, 1, 50, 66
3, 193820, Note_off_c, 1, 50, 0
3, 193824, Note_on_c, 1, 52, 66
3, 193916, Note_off_c, 1, 52, 0
3, 193920, Note_on_c, 1, 53, 66
3, 194012, Note_off_c, 1, 53, 0
3, 194016, Note_on_c, 1, 55, 66
3, 194108, Note_off_c, 1, 55, 0
3, 194112, Note_on_c, 1, 57, 66
3, 194204, Note_off_c, 1, 57, 0
3, 194208, Note_on_c, 1, 59, 66
3, 194300, Note_off_c, 1, 59, 0
3, 194304, Note_on_c, 1, 60, 66
3, 194396, Note_off_c, 1, 60, 0
3, 194400, Note_on_c, 1, 59, 66
3, 194492, Note_off_c, 1, 59, 0
3, 194496, Note_on_c, 1, 57, 66
3, 194588, Note_off_c, 1, 57, 0
3, 194592, Note_on_c, 1, 55, 66
3, 194684, Note_off_c, 1, 55, 0
3, 194688, Note_on_c, 1, 53, 66
3, 194780, Note_off_c, 1, 53, 0
3, 194800, Note_on_c, 1, 52, 66
3, 194880, Note_on_c, 1, 50, 66
3, 194892, Note_off_c, 1, 52, 0
3, 194972, Note_off_c, 1, 50, 0
3, 194976, Note_on_c, 1, 48, 66
3, 195068, Note_off_c, 1, 48, 0
3, 195072, Note_on_c, 1, 57, 66
3, 195072, Note_on_c, 1, 53, 66
3, 196604, Note_off_c, 1, 57, 0
3, 196604, Note_off_c, 1, 53, 0
3, 196608, Note_on_c, 1, 53, 66
3, 197180, Note_off_c, 1, 53, 0
3, 197184, Note_on_c, 1, 55, 66
3, 197372, Note_off_c, 1, 55, 0
3, 197376, Note_on_c, 1, 57, 66
3, 197948, Note_off_c, 1, 57, 0
3, 197952, Note_on_c, 1, 54, 66
3, 198140, Note_off_c, 1, 54, 0
3, 198144, Note_on_c, 1, 43, 99
3, 198236, Note_off_c, 1, 43, 0
3, 198240, Note_on_c, 1, 47, 99
3, 198332, Note_off_c, 1, 47, 0
3, 198336, Note_on_c, 1, 50, 99
3, 198428, Note_off_c, 1, 50, 0
3, 198432, Note_on_c, 1, 55, 99
3, 198524, Note_off_c, 1, 55, 0
3, 198528, Note_on_c, 1, 43, 99
3, 198620, Note_off_c, 1, 43, 0
3, 198624, Note_on_c, 1, 48, 99
3, 198716, Note_off_c, 1, 48, 0
3, 198720, Note_on_c, 1, 52, 99
3, 198812, Note_off_c, 1, 52, 0
3, 198816, Note_on_c, 1, 55, 99
3, 198908, Note_off_c, 1, 55, 0
3, 198912, Note_on_c, 1, 43, 99
3, 199004, Note_off_c, 1, 43, 0
3, 199008, Note_on_c, 1, 47, 99
3, 199100, Note_off_c, 1, 47, 0
3, 199104, Note_on_c, 1, 50, 99
3, 199196, Note_off_c, 1, 50, 0
3, 199200, Note_on_c, 1, 55, 99
3, 199292, Note_off_c, 1, 55, 0
3, 199296, Note_on_c, 1, 43, 99
3, 199388, Note_off_c, 1, 43, 0
3, 199392, Note_on_c, 1, 48, 99
3, 199484, Note_off_c, 1, 48, 0
3, 199488, Note_on_c, 1, 52, 99
3, 199580, Note_off_c, 1, 52, 0
3, 199584, Note_on_c, 1, 55, 99
3, 199676, Note_off_c, 1, 55, 0
3, 199680, Note_on_c, 1, 43, 99
3, 200060, Note_off_c, 1, 43, 0
3, 200064, Note_on_c, 1, 55, 99
3, 200444, Note_off_c, 1, 55, 0
3, 200448, Note_on_c, 1, 43, 99
3, 200828, Note_off_c, 1, 43, 0
3, 208992, Note_on_c, 1, 52, 90
3, 209084, Note_off_c, 1, 52, 0
3, 209088, Note_on_c, 1, 55, 90
3, 209180, Note_off_c, 1, 55, 0
3, 209184, Note_on_c, 1, 60, 90
3, 209276, Note_off_c, 1, 60, 0
3, 209280, Note_on_c, 1, 64, 90
3, 209660, Note_off_c, 1, 64, 0
3, 209760, Note_on_c, 1, 53, 90
3, 209852, Note_off_c, 1, 53, 0
3, 209856, Note_on_c, 1, 57, 90
3, 209948, Note_off_c, 1, 57, 0
3, 209952, Note_on_c, 1, 60, 90
3, 210044, Note_off_c, 1, 60, 0
3, 210048, Note_on_c, 1, 65, 90
3, 210428, Note_off_c, 1, 65, 0
3, 210528, Note_on_c, 1, 50, 90
3, 210620, Note_off_c, 1, 50, 0
3, 210624, Note_on_c, 1, 53, 90
3, 210716, Note_off_c, 1, 53, 0
3, 210720, Note_on_c, 1, 59, 90
3, 210812, Note_off_c, 1, 59, 0
3, 210816, Note_on_c, 1, 62, 90
3, 211196, Note_off_c, 1, 62, 0
3, 211296, Note_on_c, 1, 52, 90
3, 211388, Note_off_c, 1, 52, 0
3, 211392, Note_on_c, 1, 55, 90
3, 211484, Note_off_c, 1, 55, 0
3, 211488, Note_on_c, 1, 59, 90
3, 211580, Note_off_c, 1, 59, 0
3, 211584, Note_on_c, 1, 64, 90
3, 211964, Note_off_c, 1, 64, 0
3, 216576, Note_on_c, 1, 54, 66
3, 216576, Note_on_c, 1, 63, 66
3, 216576, Note_on_c, 1, 60, 66
3, 216764, Note_off_c, 1, 54, 0
3, 216764, Note_off_c, 1, 63, 0
3, 216764, Note_off_c, 1, 60, 0
3, 216768, Note_on_c, 1, 54, 66
3, 216768, Note_on_c, 1, 60, 66
3, 216768, Note_on_c, 1, 63, 66
3, 216956, Note_off_c, 1, 54, 0
3, 216956, Note_off_c, 1, 60, 0
3, 216956, Note_off_c, 1, 63, 0
3, 216960, Note_on_c, 1, 54, 66
3, 216960, Note_on_c, 1, 60, 66
3, 216960, Note_on_c, 1, 63, 66
3, 217148, Note_off_c, 1, 54, 0
3, 217148, Note_off_c, 1, 60, 0
3, 217148, Note_off_c, 1, 63, 0
3, 217152, Note_on_c, 1, 54, 66
3, 217152, Note_on_c, 1, 60, 66
3, 217152, Note_on_c, 1, 63, 66
3, 217340, Note_off_c, 1, 54, 0
3, 217340, Note_off_c, 1, 60, 0
3, 217340, Note_off_c, 1, 63, 0
3, 217344, Note_on_c, 1, 54, 66
3, 217344, Note_on_c, 1, 60, 66
3, 217344, Note_on_c, 1, 63, 66
3, 217532, Note_off_c, 1, 54, 0
3, 217532, Note_off_c, 1, 60, 0
3, 217532, Note_off_c, 1, 63, 0
3, 217536, Note_on_c, 1, 54, 66
3, 217536, Note_on_c, 1, 60, 66
3, 217536, Note_on_c, 1, 63, 66
3, 217724, Note_off_c, 1, 54, 0
3, 217724, Note_off_c, 1, 60, 0
3, 217724, Note_off_c, 1, 63, 0
3, 217728, Note_on_c, 1, 54, 66
3, 217728, Note_on_c, 1, 60, 66
3, 217728, Note_on_c, 1, 63, 66
3, 217916, Note_off_c, 1, 54, 0
3, 217916, Note_off_c, 1, 60, 0
3, 217916, Note_off_c, 1, 63, 0
3, 217920, Note_on_c, 1, 54, 66
3, 217920, Note_on_c, 1, 60, 66
3, 217920, Note_on_c, 1, 63, 66
3, 218108, Note_off_c, 1, 54, 0
3, 218108, Note_off_c, 1, 60, 0
3, 218108, Note_off_c, 1, 63, 0
3, 218112, Note_on_c, 1, 55, 99
3, 218204, Note_off_c, 1, 55, 0
3, 218208, Note_on_c, 1, 64, 99
3, 218300, Note_off_c, 1, 64, 0
3, 218304, Note_on_c, 1, 60, 99
3, 218396, Note_off_c, 1, 60, 0
3, 218400, Note_on_c, 1, 64, 99
3, 218492, Note_off_c, 1, 64, 0
3, 218496, Note_on_c, 1, 55, 99
3, 218588, Note_off_c, 1, 55, 0
3, 218592, Note_on_c, 1, 64, 99
3, 218684, Note_off_c, 1, 64, 0
3, 218688, Note_on_c, 1, 60, 99
3, 218780, Note_off_c, 1, 60, 0
3, 218784, Note_on_c, 1, 64, 99
3, 218876, Note_off_c, 1, 64, 0
3, 218880, Note_on_c, 1, 55, 99
3, 218972, Note_off_c, 1, 55, 0
3, 218976, Note_on_c, 1, 64, 99
3, 219068, Note_off_c, 1, 64, 0
3, 219072, Note_on_c, 1, 60, 99
3, 219164, Note_off_c, 1, 60, 0
3, 219168, Note_on_c, 1, 64, 99
3, 219260, Note_off_c, 1, 64, 0
3, 219264, Note_on_c, 1, 55, 99
3, 219356, Note_off_c, 1, 55, 0
3, 219360, Note_on_c, 1, 64, 99
3, 219452, Note_off_c, 1, 64, 0
3, 219456, Note_on_c, 1, 60, 99
3, 219548, Note_off_c, 1, 60, 0
3, 219552, Note_on_c, 1, 64, 99
3, 219644, Note_off_c, 1, 64, 0
3, 219648, Note_on_c, 1, 55, 99
3, 219740, Note_off_c, 1, 55, 0
3, 219744, Note_on_c, 1, 65, 99
3, 219836, Note_off_c, 1, 65, 0
3, 219840, Note_on_c, 1, 59, 99
3, 219932, Note_off_c, 1, 59, 0
3, 219936, Note_on_c, 1, 65, 99
3, 220028, Note_off_c, 1, 65, 0
3, 220032, Note_on_c, 1, 55, 99
3, 220124, Note_off_c, 1, 55, 0
3, 220128, Note_on_c, 1, 65, 99
3, 220220, Note_off_c, 1, 65, 0
3, 220224, Note_on_c, 1, 59, 99
3, 220316, Note_off_c, 1, 59, 0
3, 220320, Note_on_c, 1, 65, 99
3, 220412, Note_off_c, 1, 65, 0
3, 220416, Note_on_c, 1, 55, 99
3, 220508, Note_off_c, 1, 55, 0
3, 220512, Note_on_c, 1, 65, 99
3, 220604, Note_off_c, 1, 65, 0
3, 220608, Note_on_c, 1, 59, 99
3, 220700, Note_off_c, 1, 59, 0
3, 220704, Note_on_c, 1, 65, 99
3, 220796, Note_off_c, 1, 65, 0
3, 220800, Note_on_c, 1, 55, 99
3, 220892, Note_off_c, 1, 55, 0
3, 220896, Note_on_c, 1, 65, 99
3, 220988, Note_off_c, 1, 65, 0
3, 220992, Note_on_c, 1, 59, 99
3, 221084, Note_off_c, 1, 59, 0
3, 221088, Note_on_c, 1, 65, 99
3, 221180, Note_off_c, 1, 65, 0
3, 221184, Note_on_c, 1, 60, 99
3, 221184, Note_on_c, 1, 64, 99
3, 221564, Note_off_c, 1, 60, 0
3, 221564, Note_off_c, 1, 64, 0
3, 222336, Note_on_c, 1, 62, 99
3, 222336, Note_on_c, 1, 65, 99
3, 222336, Note_on_c, 1, 55, 99
3, 222716, Note_off_c, 1, 62, 0
3, 222716, Note_off_c, 1, 65, 0
3, 222720, Note_on_c, 1, 60, 99
3, 222720, Note_on_c, 1, 64, 99
3, 222724, Note_off_c, 1, 55, 0
3, 223100, Note_off_c, 1, 60, 0
3, 223100, Note_off_c, 1, 64, 0
3, 223872, Note_on_c, 1, 53, 99
3, 223872, Note_on_c, 1, 50, 99
3, 223872, Note_on_c, 1, 43, 99
3, 224252, Note_off_c, 1, 53, 0
3, 224252, Note_off_c, 1, 50, 0
3, 224252, Note_off_c, 1, 43, 0
3, 224256, Note_on_c, 1, 52, 99
3, 224256, Note_on_c, 1, 48, 99
3, 224636, Note_off_c, 1, 52, 0
3, 224636, Note_off_c, 1, 48, 0
3, 224640, Note_on_c, 1, 60, 99
3, 224640, Note_on_c, 1, 48, 99
3, 225020, Note_off_c, 1, 60, 0
3, 225020, Note_off_c, 1, 48, 0
3, 225024, Note_on_c, 1, 48, 99
3, 225024, Note_on_c, 1, 36, 99
3, 225404, Note_off_c, 1, 48, 0
3, 225404, Note_off_c, 1, 36, 0
3, 225404, End_track
4, 0, Start_track
4, 0, Title_t, "K545-a -Allegro"
4, 0, Key_signature, 0, "major"
4, 0, End_track
5, 0, Start_track
5, 0, Title_t, "by Bob"
5, 0, Key_signature, 0, "major"
5, 0, End_track
6, 0, Start_track
6, 0, Title_t, "Fisher"
6, 0, Key_signature, 0, "major"
6, 0, End_track
7, 0, Start_track
7, 0, Key_signature, 0, "major"
7, 0, End_track
8, 0, Start_track
8, 0, Key_signature, 0, "major"
8, 0, End_track
9, 0, Start_track
9, 0, Key_signature, 0, "major"
9, 0, End_track
10, 0, Start_track
10, 0, Key_signature, 0, "major"
10, 0, End_track
11, 0, Start_track
11, 0, Key_signature, 0, "major"
11, 0, End_track
12, 0, Start_track
12, 0, Key_signature, 0, "major"
12, 0, End_track
13, 0, Start_track
13, 0, Key_signature, 0, "major"
13, 0, End_track
14, 0, Start_track
14, 0, Key_signature, 0, "major"
14, 0, End_track
15, 0, Start_track
15, 0, Key_signature, 0, "major"
15, 0, End_track
0, 0, End_of_file
