0, 0, Header, 1, 16, 384
1, 0, Start_track
1, 0, Time_signature, 3, 2, 96, 8
1, 0, Sequencer_specific, 3, 0, 0, 65
1, 0, Tempo, 1000000
1, 0, End_track
2, 0, Start_track
2, 0, Title_t, "Mozart"
2, 0, Control_c, 0, 0, 0
2, 0, Program_c, 0, 0
2, 0, Control_c, 0, 7, 93
2, 0, Control_c, 0, 10, 79
2, 0, Control_c, 0, 91, 61
2, 0, Control_c, 0, 93, 65
2, 0, Key_signature, 1, "major"
2, 0, Control_c, 0, 121, 0
2, 96, Control_c, 0, 10, 73
2, 192, Control_c, 0, 91, 63
2, 240, Control_c, 0, 93, 40
2, 288, Program_c, 0, 0
2, 1156, Note_on_c, 0, 71, 60
2, 1920, Note_off_c, 0, 71, 0
2, 1920, Note_on_c, 0, 74, 60
2, 2012, Note_off_c, 0, 74, 0
2, 2016, Note_on_c, 0, 72, 60
2, 2108, Note_off_c, 0, 72, 0
2, 2112, Note_on_c, 0, 71, 60
2, 2204, Note_off_c, 0, 71, 0
2, 2208, Note_on_c, 0, 72, 60
2, 2300, Note_off_c, 0, 72, 0
2, 2304, Note_on_c, 0, 74, 60
2, 2308, Note_on_c, 0, 74, 60
2, 2588, Note_off_c, 0, 74, 0
2, 2592, Note_on_c, 0, 71, 60
2, 2684, Note_off_c, 0, 71, 0
2, 2688, Note_off_c, 0, 74, 0
2, 2688, Note_on_c, 0, 67, 60
2, 3068, Note_off_c, 0, 67, 0
2, 3456, Note_on_c, 0, 79, 60
2, 4028, Note_off_c, 0, 79, 0
2, 4032, Note_on_c, 0, 81, 60
2, 4124, Note_off_c, 0, 81, 0
2, 4128, Note_on_c, 0, 79, 60
2, 4220, Note_off_c, 0, 79, 0
2, 4224, Note_on_c, 0, 78, 60
2, 4316, Note_off_c, 0, 78, 0
2, 4320, Note_on_c, 0, 76, 60
2, 4412, Note_off_c, 0, 76, 0
2, 4416, Note_on_c, 0, 74, 60
2, 4508, Note_off_c, 0, 74, 0
2, 4512, Note_on_c, 0, 73, 60
2, 4604, Note_off_c, 0, 73, 0
2, 4608, Note_on_c, 0, 74, 60
2, 4892, Note_off_c, 0, 74, 0
2, 4896, Note_on_c, 0, 71, 60
2, 4988, Note_off_c, 0, 71, 0
2, 4992, Note_on_c, 0, 67, 60
2, 5372, Note_off_c, 0, 67, 0
2, 5760, Note_on_c, 0, 72, 60
2, 6044, Note_off_c, 0, 72, 0
2, 6048, Note_on_c, 0, 69, 60
2, 6140, Note_off_c, 0, 69, 0
2, 6144, Note_on_c, 0, 66, 60
2, 6332, Note_off_c, 0, 66, 0
2, 6336, Note_on_c, 0, 69, 66
2, 6524, Note_off_c, 0, 69, 0
2, 6528, Note_on_c, 0, 71, 72
2, 6716, Note_off_c, 0, 71, 0
2, 6720, Note_on_c, 0, 72, 78
2, 6908, Note_off_c, 0, 72, 0
2, 6912, Note_on_c, 0, 74, 84
2, 7196, Note_off_c, 0, 74, 0
2, 7200, Note_on_c, 0, 71, 84
2, 7292, Note_off_c, 0, 71, 0
2, 7296, Note_on_c, 0, 79, 78
2, 7676, Note_off_c, 0, 79, 0
2, 8064, Note_on_c, 0, 81, 72
2, 8156, Note_off_c, 0, 81, 0
2, 8160, Note_on_c, 0, 79, 66
2, 8252, Note_off_c, 0, 79, 0
2, 8256, Note_on_c, 0, 78, 63
2, 8348, Note_off_c, 0, 78, 0
2, 8352, Note_on_c, 0, 79, 60
2, 8444, Note_off_c, 0, 79, 0
2, 8448, Note_on_c, 0, 78, 60
2, 8540, Note_off_c, 0, 78, 0
2, 8544, Note_on_c, 0, 76, 60
2, 8636, Note_off_c, 0, 76, 0
2, 8640, Note_on_c, 0, 75, 60
2, 8732, Note_off_c, 0, 75, 0
2, 8736, Note_on_c, 0, 76, 60
2, 8828, Note_off_c, 0, 76, 0
2, 8832, Note_on_c, 0, 74, 60
2, 8924, Note_off_c, 0, 74, 0
2, 8928, Note_on_c, 0, 72, 60
2, 9020, Note_off_c, 0, 72, 0
2, 9024, Note_on_c, 0, 71, 60
2, 9116, Note_off_c, 0, 71, 0
2, 9120, Note_on_c, 0, 72, 60
2, 9212, Note_off_c, 0, 72, 0
2, 9216, Note_on_c, 0, 71, 60
2, 9500, Note_off_c, 0, 71, 0
2, 9504, Note_on_c, 0, 72, 60
2, 9548, Note_off_c, 0, 72, 0
2, 9552, Note_on_c, 0, 71, 60
2, 9596, Note_off_c, 0, 71, 0
2, 9600, Note_on_c, 0, 69, 60
2, 9788, Note_off_c, 0, 69, 0
2, 9792, Note_on_c, 0, 74, 60
2, 9980, Note_off_c, 0, 74, 0
2, 9984, Note_on_c, 0, 73, 60
2, 10172, Note_off_c, 0, 73, 0
2, 10176, Note_on_c, 0, 72, 60
2, 10364, Note_off_c, 0, 72, 0
2, 10368, Note_on_c, 0, 71, 67
2, 10748, Note_off_c, 0, 71, 0
2, 10752, Note_on_c, 0, 71, 67
2, 10844, Note_off_c, 0, 71, 0
2, 10848, Note_on_c, 0, 67, 67
2, 10940, Note_off_c, 0, 67, 0
2, 10944, Note_on_c, 0, 71, 67
2, 11036, Note_off_c, 0, 71, 0
2, 11040, Note_on_c, 0, 74, 67
2, 11132, Note_off_c, 0, 74, 0
2, 11136, Note_on_c, 0, 72, 67
2, 11228, Note_off_c, 0, 72, 0
2, 11232, Note_on_c, 0, 69, 67
2, 11324, Note_off_c, 0, 69, 0
2, 11328, Note_on_c, 0, 72, 67
2, 11420, Note_off_c, 0, 72, 0
2, 11424, Note_on_c, 0, 76, 67
2, 11516, Note_off_c, 0, 76, 0
2, 11520, Note_on_c, 0, 74, 67
2, 11804, Note_off_c, 0, 74, 0
2, 11808, Note_on_c, 0, 71, 67
2, 11900, Note_off_c, 0, 71, 0
2, 11904, Note_on_c, 0, 67, 67
2, 11996, Note_off_c, 0, 67, 0
2, 12000, Note_on_c, 0, 67, 67
2, 12092, Note_off_c, 0, 67, 0
2, 12096, Note_on_c, 0, 69, 67
2, 12188, Note_off_c, 0, 69, 0
2, 12192, Note_on_c, 0, 71, 67
2, 12284, Note_off_c, 0, 71, 0
2, 12288, Note_on_c, 0, 72, 67
2, 12380, Note_off_c, 0, 72, 0
2, 12384, Note_on_c, 0, 74, 67
2, 12476, Note_off_c, 0, 74, 0
2, 12480, Note_on_c, 0, 76, 67
2, 12572, Note_off_c, 0, 76, 0
2, 12576, Note_on_c, 0, 78, 67
2, 12668, Note_off_c, 0, 78, 0
2, 12672, Note_on_c, 0, 79, 82
2, 12764, Note_off_c, 0, 79, 0
2, 12768, Note_on_c, 0, 78, 82
2, 12860, Note_off_c, 0, 78, 0
2, 12864, Note_on_c, 0, 79, 82
2, 12956, Note_off_c, 0, 79, 0
2, 12960, Note_on_c, 0, 78, 82
2, 13052, Note_off_c, 0, 78, 0
2, 13056, Note_on_c, 0, 81, 82
2, 13148, Note_off_c, 0, 81, 0
2, 13152, Note_on_c, 0, 79, 82
2, 13244, Note_off_c, 0, 79, 0
2, 13248, Note_on_c, 0, 78, 82
2, 13340, Note_off_c, 0, 78, 0
2, 13344, Note_on_c, 0, 79, 82
2, 13436, Note_off_c, 0, 79, 0
2, 13440, Note_on_c, 0, 78, 82
2, 13532, Note_off_c, 0, 78, 0
2, 13536, Note_on_c, 0, 76, 82
2, 13628, Note_off_c, 0, 76, 0
2, 13632, Note_on_c, 0, 74, 82
2, 13724, Note_off_c, 0, 74, 0
2, 13728, Note_on_c, 0, 73, 82
2, 13820, Note_off_c, 0, 73, 0
2, 13824, Note_on_c, 0, 74, 67
2, 13916, Note_off_c, 0, 74, 0
2, 13920, Note_on_c, 0, 71, 67
2, 14012, Note_off_c, 0, 71, 0
2, 14016, Note_on_c, 0, 74, 67
2, 14108, Note_off_c, 0, 74, 0
2, 14112, Note_on_c, 0, 71, 67
2, 14204, Note_off_c, 0, 71, 0
2, 14208, Note_on_c, 0, 67, 67
2, 14588, Note_off_c, 0, 67, 0
2, 14976, Note_on_c, 0, 72, 67
2, 15068, Note_off_c, 0, 72, 0
2, 15072, Note_on_c, 0, 69, 67
2, 15164, Note_off_c, 0, 69, 0
2, 15168, Note_on_c, 0, 72, 67
2, 15260, Note_off_c, 0, 72, 0
2, 15264, Note_on_c, 0, 69, 69
2, 15356, Note_off_c, 0, 69, 0
2, 15360, Note_on_c, 0, 66, 70
2, 15452, Note_off_c, 0, 66, 0
2, 15456, Note_on_c, 0, 69, 72
2, 15548, Note_off_c, 0, 69, 0
2, 15552, Note_on_c, 0, 68, 73
2, 15644, Note_off_c, 0, 68, 0
2, 15648, Note_on_c, 0, 69, 75
2, 15740, Note_off_c, 0, 69, 0
2, 15744, Note_on_c, 0, 70, 76
2, 15836, Note_off_c, 0, 70, 0
2, 15840, Note_on_c, 0, 71, 78
2, 15932, Note_off_c, 0, 71, 0
2, 15936, Note_on_c, 0, 72, 79
2, 16028, Note_off_c, 0, 72, 0
2, 16032, Note_on_c, 0, 73, 81
2, 16124, Note_off_c, 0, 73, 0
2, 16128, Note_on_c, 0, 74, 82
2, 16220, Note_off_c, 0, 74, 0
2, 16224, Note_on_c, 0, 71, 84
2, 16316, Note_off_c, 0, 71, 0
2, 16320, Note_on_c, 0, 74, 85
2, 16412, Note_off_c, 0, 74, 0
2, 16416, Note_on_c, 0, 71, 87
2, 16508, Note_off_c, 0, 71, 0
2, 16512, Note_on_c, 0, 79, 88
2, 16892, Note_off_c, 0, 79, 0
2, 16992, Note_on_c, 0, 83, 90
2, 17084, Note_off_c, 0, 83, 0
2, 17088, Note_on_c, 0, 78, 90
2, 17180, Note_off_c, 0, 78, 0
2, 17184, Note_on_c, 0, 79, 90
2, 17276, Note_off_c, 0, 79, 0
2, 17280, Note_on_c, 0, 75, 90
2, 17372, Note_off_c, 0, 75, 0
2, 17376, Note_on_c, 0, 76, 90
2, 17468, Note_off_c, 0, 76, 0
2, 17472, Note_on_c, 0, 72, 90
2, 17564, Note_off_c, 0, 72, 0
2, 17568, Note_on_c, 0, 69, 90
2, 17660, Note_off_c, 0, 69, 0
2, 17664, Note_on_c, 0, 67, 67
2, 17948, Note_off_c, 0, 67, 0
2, 17952, Note_on_c, 0, 67, 67
2, 18044, Note_off_c, 0, 67, 0
2, 18048, Note_on_c, 0, 71, 67
2, 18048, Note_on_c, 0, 66, 67
2, 18140, Note_off_c, 0, 71, 0
2, 18144, Note_on_c, 0, 69, 67
2, 18236, Note_off_c, 0, 69, 0
2, 18240, Note_on_c, 0, 67, 67
2, 18332, Note_off_c, 0, 67, 0
2, 18336, Note_on_c, 0, 69, 67
2, 18428, Note_off_c, 0, 66, 0
2, 18428, Note_off_c, 0, 69, 0
2, 18432, Note_on_c, 0, 66, 67
2, 18432, Note_on_c, 0, 69, 67
2, 18432, Note_on_c, 0, 69, 67
2, 18432, Note_on_c, 0, 66, 67
2, 18812, Note_off_c, 0, 66, 0
2, 18812, Note_off_c, 0, 69, 0
2, 18812, Note_off_c, 0, 69, 0
2, 18812, Note_off_c, 0, 66, 0
2, 18816, Note_on_c, 0, 67, 67
2, 18816, Note_on_c, 0, 67, 67
2, 19196, Note_off_c, 0, 67, 0
2, 19196, Note_off_c, 0, 67, 0
2, 19584, Note_on_c, 0, 71, 60
2, 19584, Note_on_c, 0, 71, 60
2, 19964, Note_off_c, 0, 71, 0
2, 20348, Note_off_c, 0, 71, 0
2, 20352, Note_on_c, 0, 74, 60
2, 20444, Note_off_c, 0, 74, 0
2, 20448, Note_on_c, 0, 72, 60
2, 20540, Note_off_c, 0, 72, 0
2, 20544, Note_on_c, 0, 71, 60
2, 20636, Note_off_c, 0, 71, 0
2, 20640, Note_on_c, 0, 72, 60
2, 20732, Note_off_c, 0, 72, 0
2, 20736, Note_on_c, 0, 74, 60
2, 20736, Note_on_c, 0, 74, 60
2, 20924, Note_off_c, 0, 74, 0
2, 21020, Note_off_c, 0, 74, 0
2, 21024, Note_on_c, 0, 71, 60
2, 21024, Note_on_c, 0, 71, 60
2, 21116, Note_off_c, 0, 71, 0
2, 21116, Note_off_c, 0, 71, 0
2, 21120, Note_on_c, 0, 67, 60
2, 21120, Note_on_c, 0, 67, 60
2, 21500, Note_off_c, 0, 67, 0
2, 21500, Note_off_c, 0, 67, 0
2, 21888, Note_on_c, 0, 79, 60
2, 21888, Note_on_c, 0, 79, 60
2, 22268, Note_off_c, 0, 79, 0
2, 22460, Note_off_c, 0, 79, 0
2, 22464, Note_on_c, 0, 81, 60
2, 22556, Note_off_c, 0, 81, 0
2, 22560, Note_on_c, 0, 79, 60
2, 22652, Note_off_c, 0, 79, 0
2, 22656, Note_on_c, 0, 78, 60
2, 22748, Note_off_c, 0, 78, 0
2, 22752, Note_on_c, 0, 76, 60
2, 22844, Note_off_c, 0, 76, 0
2, 22848, Note_on_c, 0, 74, 60
2, 22940, Note_off_c, 0, 74, 0
2, 22944, Note_on_c, 0, 73, 60
2, 23036, Note_off_c, 0, 73, 0
2, 23040, Note_on_c, 0, 74, 60
2, 23040, Note_on_c, 0, 74, 60
2, 23228, Note_off_c, 0, 74, 0
2, 23324, Note_off_c, 0, 74, 0
2, 23328, Note_on_c, 0, 71, 60
2, 23420, Note_off_c, 0, 71, 0
2, 23424, Note_on_c, 0, 67, 60
2, 23804, Note_off_c, 0, 67, 0
2, 24192, Note_on_c, 0, 72, 60
2, 24476, Note_off_c, 0, 72, 0
2, 24480, Note_on_c, 0, 69, 60
2, 24572, Note_off_c, 0, 69, 0
2, 24576, Note_on_c, 0, 66, 63
2, 24764, Note_off_c, 0, 66, 0
2, 24768, Note_on_c, 0, 69, 66
2, 24956, Note_off_c, 0, 69, 0
2, 24960, Note_on_c, 0, 71, 72
2, 25148, Note_off_c, 0, 71, 0
2, 25152, Note_on_c, 0, 72, 78
2, 25340, Note_off_c, 0, 72, 0
2, 25344, Note_on_c, 0, 74, 84
2, 25628, Note_off_c, 0, 74, 0
2, 25632, Note_on_c, 0, 71, 84
2, 25724, Note_off_c, 0, 71, 0
2, 25728, Note_on_c, 0, 79, 78
2, 26108, Note_off_c, 0, 79, 0
2, 26496, Note_on_c, 0, 81, 72
2, 26588, Note_off_c, 0, 81, 0
2, 26592, Note_on_c, 0, 79, 66
2, 26684, Note_off_c, 0, 79, 0
2, 26688, Note_on_c, 0, 78, 63
2, 26780, Note_off_c, 0, 78, 0
2, 26784, Note_on_c, 0, 79, 60
2, 26876, Note_off_c, 0, 79, 0
2, 26880, Note_on_c, 0, 78, 60
2, 26972, Note_off_c, 0, 78, 0
2, 26976, Note_on_c, 0, 76, 60
2, 27068, Note_off_c, 0, 76, 0
2, 27072, Note_on_c, 0, 75, 60
2, 27164, Note_off_c, 0, 75, 0
2, 27168, Note_on_c, 0, 76, 60
2, 27260, Note_off_c, 0, 76, 0
2, 27264, Note_on_c, 0, 74, 60
2, 27356, Note_off_c, 0, 74, 0
2, 27360, Note_on_c, 0, 72, 60
2, 27452, Note_off_c, 0, 72, 0
2, 27456, Note_on_c, 0, 71, 60
2, 27548, Note_off_c, 0, 71, 0
2, 27552, Note_on_c, 0, 72, 60
2, 27644, Note_off_c, 0, 72, 0
2, 27648, Note_on_c, 0, 71, 60
2, 27932, Note_off_c, 0, 71, 0
2, 27936, Note_on_c, 0, 72, 60
2, 27980, Note_off_c, 0, 72, 0
2, 27984, Note_on_c, 0, 71, 60
2, 28028, Note_off_c, 0, 71, 0
2, 28032, Note_on_c, 0, 69, 60
2, 28220, Note_off_c, 0, 69, 0
2, 28224, Note_on_c, 0, 74, 60
2, 28412, Note_off_c, 0, 74, 0
2, 28416, Note_on_c, 0, 73, 60
2, 28604, Note_off_c, 0, 73, 0
2, 28608, Note_on_c, 0, 72, 60
2, 28796, Note_off_c, 0, 72, 0
2, 28800, Note_on_c, 0, 71, 67
2, 29180, Note_off_c, 0, 71, 0
2, 29184, Note_on_c, 0, 71, 67
2, 29276, Note_off_c, 0, 71, 0
2, 29280, Note_on_c, 0, 67, 67
2, 29372, Note_off_c, 0, 67, 0
2, 29376, Note_on_c, 0, 71, 67
2, 29468, Note_off_c, 0, 71, 0
2, 29472, Note_on_c, 0, 74, 67
2, 29564, Note_off_c, 0, 74, 0
2, 29568, Note_on_c, 0, 72, 67
2, 29660, Note_off_c, 0, 72, 0
2, 29664, Note_on_c, 0, 69, 67
2, 29756, Note_off_c, 0, 69, 0
2, 29760, Note_on_c, 0, 72, 67
2, 29852, Note_off_c, 0, 72, 0
2, 29856, Note_on_c, 0, 76, 67
2, 29948, Note_off_c, 0, 76, 0
2, 29952, Note_on_c, 0, 74, 67
2, 30236, Note_off_c, 0, 74, 0
2, 30240, Note_on_c, 0, 71, 67
2, 30332, Note_off_c, 0, 71, 0
2, 30336, Note_on_c, 0, 67, 67
2, 30428, Note_off_c, 0, 67, 0
2, 30432, Note_on_c, 0, 67, 67
2, 30524, Note_off_c, 0, 67, 0
2, 30528, Note_on_c, 0, 69, 67
2, 30620, Note_off_c, 0, 69, 0
2, 30624, Note_on_c, 0, 71, 67
2, 30716, Note_off_c, 0, 71, 0
2, 30720, Note_on_c, 0, 72, 67
2, 30812, Note_off_c, 0, 72, 0
2, 30816, Note_on_c, 0, 74, 67
2, 30908, Note_off_c, 0, 74, 0
2, 30912, Note_on_c, 0, 76, 67
2, 31004, Note_off_c, 0, 76, 0
2, 31008, Note_on_c, 0, 78, 67
2, 31100, Note_off_c, 0, 78, 0
2, 31104, Note_on_c, 0, 79, 82
2, 31196, Note_off_c, 0, 79, 0
2, 31200, Note_on_c, 0, 78, 82
2, 31292, Note_off_c, 0, 78, 0
2, 31296, Note_on_c, 0, 79, 82
2, 31388, Note_off_c, 0, 79, 0
2, 31392, Note_on_c, 0, 78, 82
2, 31484, Note_off_c, 0, 78, 0
2, 31488, Note_on_c, 0, 81, 82
2, 31580, Note_off_c, 0, 81, 0
2, 31584, Note_on_c, 0, 79, 82
2, 31676, Note_off_c, 0, 79, 0
2, 31680, Note_on_c, 0, 78, 82
2, 31772, Note_off_c, 0, 78, 0
2, 31776, Note_on_c, 0, 79, 82
2, 31868, Note_off_c, 0, 79, 0
2, 31872, Note_on_c, 0, 78, 82
2, 31964, Note_off_c, 0, 78, 0
2, 31968, Note_on_c, 0, 76, 82
2, 32060, Note_off_c, 0, 76, 0
2, 32064, Note_on_c, 0, 74, 82
2, 32156, Note_off_c, 0, 74, 0
2, 32160, Note_on_c, 0, 73, 82
2, 32252, Note_off_c, 0, 73, 0
2, 32256, Note_on_c, 0, 74, 67
2, 32348, Note_off_c, 0, 74, 0
2, 32352, Note_on_c, 0, 71, 67
2, 32444, Note_off_c, 0, 71, 0
2, 32448, Note_on_c, 0, 74, 67
2, 32540, Note_off_c, 0, 74, 0
2, 32544, Note_on_c, 0, 71, 67
2, 32636, Note_off_c, 0, 71, 0
2, 32640, Note_on_c, 0, 67, 67
2, 32640, Note_on_c, 0, 67, 67
2, 33020, Note_off_c, 0, 67, 0
2, 33020, Note_off_c, 0, 67, 0
2, 33408, Note_on_c, 0, 72, 67
2, 33500, Note_off_c, 0, 72, 0
2, 33504, Note_on_c, 0, 69, 67
2, 33596, Note_off_c, 0, 69, 0
2, 33600, Note_on_c, 0, 72, 67
2, 33692, Note_off_c, 0, 72, 0
2, 33696, Note_on_c, 0, 69, 69
2, 33788, Note_off_c, 0, 69, 0
2, 33792, Note_on_c, 0, 66, 70
2, 33884, Note_off_c, 0, 66, 0
2, 33888, Note_on_c, 0, 69, 72
2, 33980, Note_off_c, 0, 69, 0
2, 33984, Note_on_c, 0, 68, 73
2, 34076, Note_off_c, 0, 68, 0
2, 34080, Note_on_c, 0, 69, 75
2, 34172, Note_off_c, 0, 69, 0
2, 34176, Note_on_c, 0, 70, 76
2, 34268, Note_off_c, 0, 70, 0
2, 34272, Note_on_c, 0, 71, 78
2, 34364, Note_off_c, 0, 71, 0
2, 34368, Note_on_c, 0, 72, 79
2, 34460, Note_off_c, 0, 72, 0
2, 34464, Note_on_c, 0, 73, 81
2, 34556, Note_off_c, 0, 73, 0
2, 34560, Note_on_c, 0, 74, 82
2, 34652, Note_off_c, 0, 74, 0
2, 34656, Note_on_c, 0, 71, 84
2, 34748, Note_off_c, 0, 71, 0
2, 34752, Note_on_c, 0, 74, 85
2, 34844, Note_off_c, 0, 74, 0
2, 34848, Note_on_c, 0, 71, 87
2, 34940, Note_off_c, 0, 71, 0
2, 34944, Note_on_c, 0, 79, 88
2, 35324, Note_off_c, 0, 79, 0
2, 35424, Note_on_c, 0, 83, 90
2, 35516, Note_off_c, 0, 83, 0
2, 35520, Note_on_c, 0, 78, 90
2, 35612, Note_off_c, 0, 78, 0
2, 35616, Note_on_c, 0, 79, 90
2, 35708, Note_off_c, 0, 79, 0
2, 35712, Note_on_c, 0, 75, 90
2, 35804, Note_off_c, 0, 75, 0
2, 35808, Note_on_c, 0, 76, 90
2, 35900, Note_off_c, 0, 76, 0
2, 35904, Note_on_c, 0, 72, 90
2, 35996, Note_off_c, 0, 72, 0
2, 36000, Note_on_c, 0, 69, 90
2, 36092, Note_off_c, 0, 69, 0
2, 36096, Note_on_c, 0, 67, 60
2, 36096, Note_on_c, 0, 67, 60
2, 36188, Note_off_c, 0, 67, 0
2, 36380, Note_off_c, 0, 67, 0
2, 36384, Note_on_c, 0, 67, 60
2, 36384, Note_on_c, 0, 67, 60
2, 36476, Note_off_c, 0, 67, 0
2, 36476, Note_off_c, 0, 67, 0
2, 36480, Note_on_c, 0, 71, 60
2, 36480, Note_on_c, 0, 66, 60
2, 36572, Note_off_c, 0, 71, 0
2, 36576, Note_on_c, 0, 69, 60
2, 36668, Note_off_c, 0, 69, 0
2, 36672, Note_on_c, 0, 67, 60
2, 36764, Note_off_c, 0, 67, 0
2, 36768, Note_on_c, 0, 69, 60
2, 36860, Note_off_c, 0, 66, 0
2, 36860, Note_off_c, 0, 69, 0
2, 36864, Note_on_c, 0, 66, 60
2, 36864, Note_on_c, 0, 69, 60
2, 36864, Note_on_c, 0, 69, 60
2, 36864, Note_on_c, 0, 66, 60
2, 37244, Note_off_c, 0, 66, 0
2, 37244, Note_off_c, 0, 69, 0
2, 37244, Note_off_c, 0, 69, 0
2, 37244, Note_off_c, 0, 66, 0
2, 37248, Note_on_c, 0, 67, 60
2, 37248, Note_on_c, 0, 67, 60
2, 37628, Note_off_c, 0, 67, 0
2, 37628, Note_off_c, 0, 67, 0
2, 38016, Note_on_c, 0, 74, 60
2, 38016, Note_on_c, 0, 62, 60
2, 38016, Note_on_c, 0, 74, 60
2, 38108, Note_off_c, 0, 62, 0
2, 38112, Note_on_c, 0, 69, 60
2, 38204, Note_off_c, 0, 69, 0
2, 38208, Note_on_c, 0, 66, 60
2, 38300, Note_off_c, 0, 66, 0
2, 38304, Note_on_c, 0, 69, 60
2, 38396, Note_off_c, 0, 74, 0
2, 38396, Note_off_c, 0, 74, 0
2, 38396, Note_off_c, 0, 69, 0
2, 38400, Note_on_c, 0, 74, 60
2, 38400, Note_on_c, 0, 62, 60
2, 38492, Note_off_c, 0, 74, 0
2, 38492, Note_off_c, 0, 62, 0
2, 38496, Note_on_c, 0, 73, 60
2, 38496, Note_on_c, 0, 69, 60
2, 38588, Note_off_c, 0, 73, 0
2, 38588, Note_off_c, 0, 69, 0
2, 38592, Note_on_c, 0, 76, 60
2, 38592, Note_on_c, 0, 66, 60
2, 38684, Note_off_c, 0, 76, 0
2, 38684, Note_off_c, 0, 66, 0
2, 38688, Note_on_c, 0, 74, 60
2, 38688, Note_on_c, 0, 69, 60
2, 38780, Note_off_c, 0, 74, 0
2, 38780, Note_off_c, 0, 69, 0
2, 38784, Note_on_c, 0, 79, 60
2, 38784, Note_on_c, 0, 62, 60
2, 38876, Note_off_c, 0, 79, 0
2, 38876, Note_off_c, 0, 62, 0
2, 38880, Note_on_c, 0, 78, 60
2, 38880, Note_on_c, 0, 69, 60
2, 38972, Note_off_c, 0, 78, 0
2, 38972, Note_off_c, 0, 69, 0
2, 38976, Note_on_c, 0, 76, 60
2, 38976, Note_on_c, 0, 66, 60
2, 39068, Note_off_c, 0, 76, 0
2, 39068, Note_off_c, 0, 66, 0
2, 39072, Note_on_c, 0, 74, 60
2, 39072, Note_on_c, 0, 69, 60
2, 39164, Note_off_c, 0, 74, 0
2, 39164, Note_off_c, 0, 69, 0
2, 39168, Note_on_c, 0, 73, 60
2, 39168, Note_on_c, 0, 64, 60
2, 39260, Note_off_c, 0, 64, 0
2, 39264, Note_on_c, 0, 69, 60
2, 39356, Note_off_c, 0, 69, 0
2, 39360, Note_on_c, 0, 67, 60
2, 39452, Note_off_c, 0, 67, 0
2, 39456, Note_on_c, 0, 74, 60
2, 39456, Note_on_c, 0, 69, 60
2, 39548, Note_off_c, 0, 74, 0
2, 39548, Note_off_c, 0, 69, 0
2, 39552, Note_on_c, 0, 76, 60
2, 39552, Note_on_c, 0, 64, 60
2, 39644, Note_off_c, 0, 64, 0
2, 39648, Note_on_c, 0, 69, 60
2, 39740, Note_off_c, 0, 73, 0
2, 39740, Note_off_c, 0, 69, 0
2, 39744, Note_on_c, 0, 67, 60
2, 39836, Note_off_c, 0, 67, 0
2, 39840, Note_on_c, 0, 69, 60
2, 39932, Note_off_c, 0, 76, 0
2, 39932, Note_off_c, 0, 69, 0
2, 39936, Note_on_c, 0, 64, 60
2, 40028, Note_off_c, 0, 64, 0
2, 40032, Note_on_c, 0, 69, 60
2, 40124, Note_off_c, 0, 69, 0
2, 40128, Note_on_c, 0, 67, 60
2, 40220, Note_off_c, 0, 67, 0
2, 40224, Note_on_c, 0, 69, 60
2, 40316, Note_off_c, 0, 69, 0
2, 40320, Note_on_c, 0, 76, 60
2, 40320, Note_on_c, 0, 61, 60
2, 40320, Note_on_c, 0, 76, 60
2, 40412, Note_off_c, 0, 61, 0
2, 40416, Note_on_c, 0, 69, 60
2, 40508, Note_off_c, 0, 69, 0
2, 40512, Note_on_c, 0, 67, 60
2, 40604, Note_off_c, 0, 67, 0
2, 40608, Note_on_c, 0, 69, 60
2, 40700, Note_off_c, 0, 76, 0
2, 40700, Note_off_c, 0, 76, 0
2, 40700, Note_off_c, 0, 69, 0
2, 40704, Note_on_c, 0, 76, 60
2, 40704, Note_on_c, 0, 61, 60
2, 40796, Note_off_c, 0, 76, 0
2, 40796, Note_off_c, 0, 61, 0
2, 40800, Note_on_c, 0, 75, 60
2, 40800, Note_on_c, 0, 69, 60
2, 40892, Note_off_c, 0, 75, 0
2, 40892, Note_off_c, 0, 69, 0
2, 40896, Note_on_c, 0, 78, 60
2, 40896, Note_on_c, 0, 67, 60
2, 40988, Note_off_c, 0, 78, 0
2, 40988, Note_off_c, 0, 67, 0
2, 40992, Note_on_c, 0, 76, 60
2, 40992, Note_on_c, 0, 69, 60
2, 41084, Note_off_c, 0, 76, 0
2, 41084, Note_off_c, 0, 69, 0
2, 41088, Note_on_c, 0, 81, 60
2, 41088, Note_on_c, 0, 61, 60
2, 41180, Note_off_c, 0, 81, 0
2, 41180, Note_off_c, 0, 61, 0
2, 41184, Note_on_c, 0, 69, 60
2, 41200, Note_on_c, 0, 79, 60
2, 41276, Note_off_c, 0, 69, 0
2, 41280, Note_on_c, 0, 78, 60
2, 41280, Note_on_c, 0, 67, 60
2, 41292, Note_off_c, 0, 79, 0
2, 41372, Note_off_c, 0, 78, 0
2, 41372, Note_off_c, 0, 67, 0
2, 41376, Note_on_c, 0, 76, 60
2, 41376, Note_on_c, 0, 69, 60
2, 41468, Note_off_c, 0, 76, 0
2, 41468, Note_off_c, 0, 69, 0
2, 41472, Note_on_c, 0, 74, 60
2, 41472, Note_on_c, 0, 62, 60
2, 41564, Note_off_c, 0, 62, 0
2, 41568, Note_on_c, 0, 69, 60
2, 41660, Note_off_c, 0, 69, 0
2, 41664, Note_on_c, 0, 66, 60
2, 41756, Note_off_c, 0, 74, 0
2, 41756, Note_off_c, 0, 66, 0
2, 41760, Note_on_c, 0, 76, 60
2, 41760, Note_on_c, 0, 69, 60
2, 41852, Note_off_c, 0, 76, 0
2, 41852, Note_off_c, 0, 69, 0
2, 41856, Note_on_c, 0, 78, 60
2, 41856, Note_on_c, 0, 61, 60
2, 41856, Note_on_c, 0, 78, 60
2, 41948, Note_off_c, 0, 61, 0
2, 41952, Note_on_c, 0, 69, 60
2, 42044, Note_off_c, 0, 69, 0
2, 42048, Note_on_c, 0, 62, 60
2, 42140, Note_off_c, 0, 62, 0
2, 42144, Note_on_c, 0, 69, 60
2, 42236, Note_off_c, 0, 78, 0
2, 42236, Note_off_c, 0, 78, 0
2, 42236, Note_off_c, 0, 69, 0
2, 42240, Note_on_c, 0, 59, 60
2, 42332, Note_off_c, 0, 59, 0
2, 42336, Note_on_c, 0, 67, 60
2, 42428, Note_off_c, 0, 67, 0
2, 42432, Note_on_c, 0, 62, 60
2, 42524, Note_off_c, 0, 62, 0
2, 42528, Note_on_c, 0, 67, 60
2, 42620, Note_off_c, 0, 67, 0
2, 42624, Note_on_c, 0, 78, 60
2, 43004, Note_off_c, 0, 78, 0
2, 43008, Note_on_c, 0, 78, 60
2, 43100, Note_off_c, 0, 78, 0
2, 43104, Note_on_c, 0, 76, 60
2, 43196, Note_off_c, 0, 76, 0
2, 43200, Note_on_c, 0, 79, 60
2, 43292, Note_off_c, 0, 79, 0
2, 43296, Note_on_c, 0, 78, 60
2, 43388, Note_off_c, 0, 78, 0
2, 43392, Note_on_c, 0, 83, 63
2, 43484, Note_off_c, 0, 83, 0
2, 43488, Note_on_c, 0, 81, 66
2, 43580, Note_off_c, 0, 81, 0
2, 43584, Note_on_c, 0, 79, 69
2, 43676, Note_off_c, 0, 79, 0
2, 43680, Note_on_c, 0, 78, 72
2, 43772, Note_off_c, 0, 78, 0
2, 43776, Note_on_c, 0, 76, 75
2, 44156, Note_off_c, 0, 76, 0
2, 44160, Note_on_c, 0, 76, 78
2, 44252, Note_off_c, 0, 76, 0
2, 44256, Note_on_c, 0, 75, 79
2, 44348, Note_off_c, 0, 75, 0
2, 44352, Note_on_c, 0, 78, 81
2, 44444, Note_off_c, 0, 78, 0
2, 44448, Note_on_c, 0, 76, 82
2, 44540, Note_off_c, 0, 76, 0
2, 44544, Note_on_c, 0, 81, 84
2, 44636, Note_off_c, 0, 81, 0
2, 44640, Note_on_c, 0, 79, 85
2, 44732, Note_off_c, 0, 79, 0
2, 44736, Note_on_c, 0, 78, 87
2, 44828, Note_off_c, 0, 78, 0
2, 44832, Note_on_c, 0, 76, 88
2, 44924, Note_off_c, 0, 76, 0
2, 44928, Note_on_c, 0, 76, 90
2, 44928, Note_on_c, 0, 57, 90
2, 45020, Note_off_c, 0, 76, 0
2, 45020, Note_off_c, 0, 57, 0
2, 45024, Note_on_c, 0, 74, 90
2, 45024, Note_on_c, 0, 66, 90
2, 45116, Note_off_c, 0, 74, 0
2, 45116, Note_off_c, 0, 66, 0
2, 45120, Note_on_c, 0, 74, 90
2, 45120, Note_on_c, 0, 62, 90
2, 45212, Note_off_c, 0, 62, 0
2, 45216, Note_on_c, 0, 66, 90
2, 45308, Note_off_c, 0, 74, 0
2, 45308, Note_off_c, 0, 66, 0
2, 45312, Note_on_c, 0, 74, 90
2, 45312, Note_on_c, 0, 57, 90
2, 45404, Note_off_c, 0, 74, 0
2, 45404, Note_off_c, 0, 57, 0
2, 45408, Note_on_c, 0, 69, 90
2, 45408, Note_on_c, 0, 66, 90
2, 45500, Note_off_c, 0, 69, 0
2, 45500, Note_off_c, 0, 66, 0
2, 45504, Note_on_c, 0, 74, 90
2, 45504, Note_on_c, 0, 62, 90
2, 45596, Note_off_c, 0, 74, 0
2, 45596, Note_off_c, 0, 62, 0
2, 45600, Note_on_c, 0, 78, 90
2, 45600, Note_on_c, 0, 66, 90
2, 45692, Note_off_c, 0, 78, 0
2, 45692, Note_off_c, 0, 66, 0
2, 45696, Note_on_c, 0, 78, 90
2, 45696, Note_on_c, 0, 73, 90
2, 45696, Note_on_c, 0, 57, 90
2, 45788, Note_off_c, 0, 78, 0
2, 45788, Note_off_c, 0, 57, 0
2, 45792, Note_on_c, 0, 76, 90
2, 45792, Note_on_c, 0, 67, 90
2, 45884, Note_off_c, 0, 76, 0
2, 45884, Note_off_c, 0, 67, 0
2, 45888, Note_on_c, 0, 74, 90
2, 45888, Note_on_c, 0, 64, 90
2, 45980, Note_off_c, 0, 74, 0
2, 45980, Note_off_c, 0, 64, 0
2, 45984, Note_on_c, 0, 76, 90
2, 45984, Note_on_c, 0, 67, 90
2, 46076, Note_off_c, 0, 73, 0
2, 46076, Note_off_c, 0, 76, 0
2, 46076, Note_off_c, 0, 67, 0
2, 46080, Note_on_c, 0, 76, 90
2, 46080, Note_on_c, 0, 73, 90
2, 46080, Note_on_c, 0, 62, 90
2, 46080, Note_on_c, 0, 67, 90
2, 46460, Note_off_c, 0, 76, 0
2, 46460, Note_off_c, 0, 73, 0
2, 46460, Note_off_c, 0, 67, 0
2, 46464, Note_on_c, 0, 74, 60
2, 46464, Note_on_c, 0, 66, 60
2, 46556, Note_off_c, 0, 74, 0
2, 46560, Note_on_c, 0, 75, 60
2, 46652, Note_off_c, 0, 75, 0
2, 46656, Note_on_c, 0, 76, 60
2, 46748, Note_off_c, 0, 76, 0
2, 46752, Note_on_c, 0, 75, 60
2, 46844, Note_off_c, 0, 62, 0
2, 46844, Note_off_c, 0, 66, 0
2, 46844, Note_off_c, 0, 75, 0
2, 46848, Note_on_c, 0, 78, 60
2, 46940, Note_off_c, 0, 78, 0
2, 46944, Note_on_c, 0, 76, 60
2, 47036, Note_off_c, 0, 76, 0
2, 47040, Note_on_c, 0, 74, 60
2, 47132, Note_off_c, 0, 74, 0
2, 47136, Note_on_c, 0, 72, 60
2, 47228, Note_off_c, 0, 72, 0
2, 47232, Note_on_c, 0, 71, 60
2, 47612, Note_off_c, 0, 71, 0
2, 47616, Note_on_c, 0, 71, 60
2, 47708, Note_off_c, 0, 71, 0
2, 47712, Note_on_c, 0, 67, 60
2, 47804, Note_off_c, 0, 67, 0
2, 47808, Note_on_c, 0, 71, 60
2, 47900, Note_off_c, 0, 71, 0
2, 47904, Note_on_c, 0, 74, 60
2, 47996, Note_off_c, 0, 74, 0
2, 48000, Note_on_c, 0, 72, 60
2, 48092, Note_off_c, 0, 72, 0
2, 48096, Note_on_c, 0, 69, 60
2, 48188, Note_off_c, 0, 69, 0
2, 48192, Note_on_c, 0, 72, 60
2, 48284, Note_off_c, 0, 72, 0
2, 48288, Note_on_c, 0, 76, 60
2, 48380, Note_off_c, 0, 76, 0
2, 48384, Note_on_c, 0, 74, 60
2, 48668, Note_off_c, 0, 74, 0
2, 48672, Note_on_c, 0, 71, 60
2, 48764, Note_off_c, 0, 71, 0
2, 48768, Note_on_c, 0, 67, 60
2, 48860, Note_off_c, 0, 67, 0
2, 48864, Note_on_c, 0, 67, 60
2, 48956, Note_off_c, 0, 67, 0
2, 48960, Note_on_c, 0, 69, 60
2, 49052, Note_off_c, 0, 69, 0
2, 49056, Note_on_c, 0, 71, 60
2, 49148, Note_off_c, 0, 71, 0
2, 49152, Note_on_c, 0, 72, 60
2, 49244, Note_off_c, 0, 72, 0
2, 49248, Note_on_c, 0, 74, 60
2, 49340, Note_off_c, 0, 74, 0
2, 49344, Note_on_c, 0, 76, 60
2, 49436, Note_off_c, 0, 76, 0
2, 49440, Note_on_c, 0, 78, 60
2, 49532, Note_off_c, 0, 78, 0
2, 49536, Note_on_c, 0, 79, 60
2, 49628, Note_off_c, 0, 79, 0
2, 49632, Note_on_c, 0, 78, 60
2, 49724, Note_off_c, 0, 78, 0
2, 49728, Note_on_c, 0, 79, 60
2, 49820, Note_off_c, 0, 79, 0
2, 49824, Note_on_c, 0, 78, 60
2, 49916, Note_off_c, 0, 78, 0
2, 49920, Note_on_c, 0, 81, 60
2, 50012, Note_off_c, 0, 81, 0
2, 50016, Note_on_c, 0, 79, 60
2, 50108, Note_off_c, 0, 79, 0
2, 50112, Note_on_c, 0, 78, 60
2, 50204, Note_off_c, 0, 78, 0
2, 50208, Note_on_c, 0, 79, 60
2, 50300, Note_off_c, 0, 79, 0
2, 50304, Note_on_c, 0, 78, 60
2, 50396, Note_off_c, 0, 78, 0
2, 50400, Note_on_c, 0, 76, 60
2, 50492, Note_off_c, 0, 76, 0
2, 50496, Note_on_c, 0, 74, 60
2, 50588, Note_off_c, 0, 74, 0
2, 50592, Note_on_c, 0, 73, 60
2, 50684, Note_off_c, 0, 73, 0
2, 50688, Note_on_c, 0, 74, 60
2, 50780, Note_off_c, 0, 74, 0
2, 50784, Note_on_c, 0, 71, 60
2, 50876, Note_off_c, 0, 71, 0
2, 50880, Note_on_c, 0, 74, 60
2, 50972, Note_off_c, 0, 74, 0
2, 50976, Note_on_c, 0, 71, 60
2, 51068, Note_off_c, 0, 71, 0
2, 51072, Note_on_c, 0, 67, 60
2, 51452, Note_off_c, 0, 67, 0
2, 51840, Note_on_c, 0, 72, 60
2, 51932, Note_off_c, 0, 72, 0
2, 51936, Note_on_c, 0, 69, 60
2, 52028, Note_off_c, 0, 69, 0
2, 52032, Note_on_c, 0, 72, 60
2, 52124, Note_off_c, 0, 72, 0
2, 52128, Note_on_c, 0, 69, 60
2, 52220, Note_off_c, 0, 69, 0
2, 52224, Note_on_c, 0, 66, 60
2, 52316, Note_off_c, 0, 66, 0
2, 52320, Note_on_c, 0, 69, 60
2, 52412, Note_off_c, 0, 69, 0
2, 52416, Note_on_c, 0, 68, 60
2, 52508, Note_off_c, 0, 68, 0
2, 52512, Note_on_c, 0, 69, 60
2, 52604, Note_off_c, 0, 69, 0
2, 52608, Note_on_c, 0, 70, 60
2, 52700, Note_off_c, 0, 70, 0
2, 52704, Note_on_c, 0, 71, 60
2, 52796, Note_off_c, 0, 71, 0
2, 52800, Note_on_c, 0, 72, 60
2, 52892, Note_off_c, 0, 72, 0
2, 52896, Note_on_c, 0, 73, 60
2, 52988, Note_off_c, 0, 73, 0
2, 52992, Note_on_c, 0, 74, 60
2, 53084, Note_off_c, 0, 74, 0
2, 53088, Note_on_c, 0, 71, 60
2, 53180, Note_off_c, 0, 71, 0
2, 53184, Note_on_c, 0, 74, 60
2, 53276, Note_off_c, 0, 74, 0
2, 53280, Note_on_c, 0, 71, 60
2, 53372, Note_off_c, 0, 71, 0
2, 53376, Note_on_c, 0, 79, 60
2, 53756, Note_off_c, 0, 79, 0
2, 53856, Note_on_c, 0, 83, 90
2, 53948, Note_off_c, 0, 83, 0
2, 53952, Note_on_c, 0, 78, 90
2, 54044, Note_off_c, 0, 78, 0
2, 54048, Note_on_c, 0, 79, 90
2, 54140, Note_off_c, 0, 79, 0
2, 54144, Note_on_c, 0, 74, 90
2, 54236, Note_off_c, 0, 74, 0
2, 54240, Note_on_c, 0, 76, 90
2, 54332, Note_off_c, 0, 76, 0
2, 54336, Note_on_c, 0, 72, 90
2, 54428, Note_off_c, 0, 72, 0
2, 54432, Note_on_c, 0, 69, 90
2, 54524, Note_off_c, 0, 69, 0
2, 54528, Note_on_c, 0, 67, 67
2, 54812, Note_off_c, 0, 67, 0
2, 54816, Note_on_c, 0, 67, 67
2, 54908, Note_off_c, 0, 67, 0
2, 54912, Note_on_c, 0, 71, 67
2, 54912, Note_on_c, 0, 66, 67
2, 55004, Note_off_c, 0, 71, 0
2, 55008, Note_on_c, 0, 69, 67
2, 55100, Note_off_c, 0, 69, 0
2, 55104, Note_on_c, 0, 67, 67
2, 55196, Note_off_c, 0, 67, 0
2, 55200, Note_on_c, 0, 69, 67
2, 55292, Note_off_c, 0, 66, 0
2, 55292, Note_off_c, 0, 69, 0
2, 55296, Note_on_c, 0, 69, 67
2, 55296, Note_on_c, 0, 66, 67
2, 55676, Note_off_c, 0, 69, 0
2, 55676, Note_off_c, 0, 66, 0
2, 55680, Note_on_c, 0, 67, 67
2, 56060, Note_off_c, 0, 67, 0
2, 56448, Note_on_c, 0, 74, 60
2, 56448, Note_on_c, 0, 62, 60
2, 56540, Note_off_c, 0, 62, 0
2, 56544, Note_on_c, 0, 69, 60
2, 56636, Note_off_c, 0, 69, 0
2, 56640, Note_on_c, 0, 66, 60
2, 56732, Note_off_c, 0, 66, 0
2, 56736, Note_on_c, 0, 69, 60
2, 56828, Note_off_c, 0, 74, 0
2, 56828, Note_off_c, 0, 69, 0
2, 56832, Note_on_c, 0, 74, 60
2, 56832, Note_on_c, 0, 62, 60
2, 56924, Note_off_c, 0, 74, 0
2, 56924, Note_off_c, 0, 62, 0
2, 56928, Note_on_c, 0, 73, 60
2, 56928, Note_on_c, 0, 69, 60
2, 57020, Note_off_c, 0, 73, 0
2, 57020, Note_off_c, 0, 69, 0
2, 57024, Note_on_c, 0, 76, 60
2, 57024, Note_on_c, 0, 66, 60
2, 57116, Note_off_c, 0, 76, 0
2, 57116, Note_off_c, 0, 66, 0
2, 57120, Note_on_c, 0, 74, 60
2, 57120, Note_on_c, 0, 69, 60
2, 57212, Note_off_c, 0, 74, 0
2, 57212, Note_off_c, 0, 69, 0
2, 57216, Note_on_c, 0, 79, 60
2, 57216, Note_on_c, 0, 62, 60
2, 57308, Note_off_c, 0, 79, 0
2, 57308, Note_off_c, 0, 62, 0
2, 57312, Note_on_c, 0, 78, 60
2, 57312, Note_on_c, 0, 69, 60
2, 57404, Note_off_c, 0, 78, 0
2, 57404, Note_off_c, 0, 69, 0
2, 57408, Note_on_c, 0, 76, 60
2, 57408, Note_on_c, 0, 66, 60
2, 57500, Note_off_c, 0, 76, 0
2, 57500, Note_off_c, 0, 66, 0
2, 57504, Note_on_c, 0, 74, 60
2, 57504, Note_on_c, 0, 69, 60
2, 57596, Note_off_c, 0, 74, 0
2, 57596, Note_off_c, 0, 69, 0
2, 57600, Note_on_c, 0, 73, 60
2, 57600, Note_on_c, 0, 64, 60
2, 57692, Note_off_c, 0, 64, 0
2, 57696, Note_on_c, 0, 69, 60
2, 57788, Note_off_c, 0, 69, 0
2, 57792, Note_on_c, 0, 67, 60
2, 57884, Note_off_c, 0, 67, 0
2, 57888, Note_on_c, 0, 74, 60
2, 57888, Note_on_c, 0, 69, 60
2, 57980, Note_off_c, 0, 74, 0
2, 57980, Note_off_c, 0, 69, 0
2, 57984, Note_on_c, 0, 76, 60
2, 57984, Note_on_c, 0, 64, 60
2, 58076, Note_off_c, 0, 64, 0
2, 58080, Note_on_c, 0, 69, 60
2, 58172, Note_off_c, 0, 73, 0
2, 58172, Note_off_c, 0, 69, 0
2, 58176, Note_on_c, 0, 67, 60
2, 58268, Note_off_c, 0, 67, 0
2, 58272, Note_on_c, 0, 69, 60
2, 58364, Note_off_c, 0, 76, 0
2, 58364, Note_off_c, 0, 69, 0
2, 58368, Note_on_c, 0, 64, 60
2, 58460, Note_off_c, 0, 64, 0
2, 58464, Note_on_c, 0, 69, 60
2, 58556, Note_off_c, 0, 69, 0
2, 58560, Note_on_c, 0, 67, 60
2, 58652, Note_off_c, 0, 67, 0
2, 58656, Note_on_c, 0, 69, 60
2, 58748, Note_off_c, 0, 69, 0
2, 58752, Note_on_c, 0, 76, 60
2, 58752, Note_on_c, 0, 61, 60
2, 58844, Note_off_c, 0, 61, 0
2, 58848, Note_on_c, 0, 69, 60
2, 58940, Note_off_c, 0, 69, 0
2, 58944, Note_on_c, 0, 67, 60
2, 59036, Note_off_c, 0, 67, 0
2, 59040, Note_on_c, 0, 69, 60
2, 59132, Note_off_c, 0, 76, 0
2, 59132, Note_off_c, 0, 69, 0
2, 59136, Note_on_c, 0, 76, 60
2, 59136, Note_on_c, 0, 61, 60
2, 59228, Note_off_c, 0, 76, 0
2, 59228, Note_off_c, 0, 61, 0
2, 59232, Note_on_c, 0, 75, 60
2, 59232, Note_on_c, 0, 69, 60
2, 59324, Note_off_c, 0, 75, 0
2, 59324, Note_off_c, 0, 69, 0
2, 59328, Note_on_c, 0, 78, 60
2, 59328, Note_on_c, 0, 67, 60
2, 59420, Note_off_c, 0, 78, 0
2, 59420, Note_off_c, 0, 67, 0
2, 59424, Note_on_c, 0, 76, 60
2, 59424, Note_on_c, 0, 69, 60
2, 59516, Note_off_c, 0, 76, 0
2, 59516, Note_off_c, 0, 69, 0
2, 59520, Note_on_c, 0, 81, 60
2, 59520, Note_on_c, 0, 61, 60
2, 59612, Note_off_c, 0, 81, 0
2, 59612, Note_off_c, 0, 61, 0
2, 59616, Note_on_c, 0, 69, 60
2, 59632, Note_on_c, 0, 79, 60
2, 59708, Note_off_c, 0, 69, 0
2, 59712, Note_on_c, 0, 78, 60
2, 59712, Note_on_c, 0, 67, 60
2, 59724, Note_off_c, 0, 79, 0
2, 59804, Note_off_c, 0, 78, 0
2, 59804, Note_off_c, 0, 67, 0
2, 59808, Note_on_c, 0, 76, 60
2, 59808, Note_on_c, 0, 69, 60
2, 59900, Note_off_c, 0, 76, 0
2, 59900, Note_off_c, 0, 69, 0
2, 59904, Note_on_c, 0, 74, 60
2, 59904, Note_on_c, 0, 62, 60
2, 59996, Note_off_c, 0, 62, 0
2, 60000, Note_on_c, 0, 69, 60
2, 60092, Note_off_c, 0, 69, 0
2, 60096, Note_on_c, 0, 66, 60
2, 60188, Note_off_c, 0, 74, 0
2, 60188, Note_off_c, 0, 66, 0
2, 60192, Note_on_c, 0, 76, 60
2, 60192, Note_on_c, 0, 69, 60
2, 60284, Note_off_c, 0, 76, 0
2, 60284, Note_off_c, 0, 69, 0
2, 60288, Note_on_c, 0, 78, 60
2, 60288, Note_on_c, 0, 61, 60
2, 60380, Note_off_c, 0, 61, 0
2, 60384, Note_on_c, 0, 69, 60
2, 60476, Note_off_c, 0, 69, 0
2, 60480, Note_on_c, 0, 62, 60
2, 60572, Note_off_c, 0, 62, 0
2, 60576, Note_on_c, 0, 69, 60
2, 60668, Note_off_c, 0, 78, 0
2, 60668, Note_off_c, 0, 69, 0
2, 60672, Note_on_c, 0, 59, 60
2, 60764, Note_off_c, 0, 59, 0
2, 60768, Note_on_c, 0, 67, 60
2, 60860, Note_off_c, 0, 67, 0
2, 60864, Note_on_c, 0, 62, 60
2, 60956, Note_off_c, 0, 62, 0
2, 60960, Note_on_c, 0, 67, 60
2, 61052, Note_off_c, 0, 67, 0
2, 61056, Note_on_c, 0, 78, 60
2, 61436, Note_off_c, 0, 78, 0
2, 61440, Note_on_c, 0, 78, 60
2, 61532, Note_off_c, 0, 78, 0
2, 61536, Note_on_c, 0, 76, 60
2, 61628, Note_off_c, 0, 76, 0
2, 61632, Note_on_c, 0, 79, 60
2, 61724, Note_off_c, 0, 79, 0
2, 61728, Note_on_c, 0, 78, 61
2, 61820, Note_off_c, 0, 78, 0
2, 61824, Note_on_c, 0, 83, 63
2, 61916, Note_off_c, 0, 83, 0
2, 61920, Note_on_c, 0, 81, 64
2, 62012, Note_off_c, 0, 81, 0
2, 62016, Note_on_c, 0, 79, 66
2, 62108, Note_off_c, 0, 79, 0
2, 62112, Note_on_c, 0, 78, 67
2, 62204, Note_off_c, 0, 78, 0
2, 62208, Note_on_c, 0, 76, 69
2, 62588, Note_off_c, 0, 76, 0
2, 62592, Note_on_c, 0, 76, 70
2, 62684, Note_off_c, 0, 76, 0
2, 62688, Note_on_c, 0, 75, 72
2, 62780, Note_off_c, 0, 75, 0
2, 62784, Note_on_c, 0, 78, 73
2, 62876, Note_off_c, 0, 78, 0
2, 62880, Note_on_c, 0, 76, 75
2, 62972, Note_off_c, 0, 76, 0
2, 62976, Note_on_c, 0, 81, 76
2, 63068, Note_off_c, 0, 81, 0
2, 63072, Note_on_c, 0, 79, 78
2, 63164, Note_off_c, 0, 79, 0
2, 63168, Note_on_c, 0, 78, 79
2, 63260, Note_off_c, 0, 78, 0
2, 63264, Note_on_c, 0, 76, 81
2, 63356, Note_off_c, 0, 76, 0
2, 63360, Note_on_c, 0, 76, 82
2, 63360, Note_on_c, 0, 57, 82
2, 63452, Note_off_c, 0, 76, 0
2, 63452, Note_off_c, 0, 57, 0
2, 63456, Note_on_c, 0, 74, 82
2, 63456, Note_on_c, 0, 66, 82
2, 63548, Note_off_c, 0, 74, 0
2, 63548, Note_off_c, 0, 66, 0
2, 63552, Note_on_c, 0, 74, 82
2, 63552, Note_on_c, 0, 62, 82
2, 63644, Note_off_c, 0, 62, 0
2, 63648, Note_on_c, 0, 66, 82
2, 63740, Note_off_c, 0, 74, 0
2, 63740, Note_off_c, 0, 66, 0
2, 63744, Note_on_c, 0, 74, 82
2, 63744, Note_on_c, 0, 57, 82
2, 63836, Note_off_c, 0, 74, 0
2, 63836, Note_off_c, 0, 57, 0
2, 63840, Note_on_c, 0, 69, 82
2, 63840, Note_on_c, 0, 66, 82
2, 63932, Note_off_c, 0, 69, 0
2, 63932, Note_off_c, 0, 66, 0
2, 63936, Note_on_c, 0, 74, 82
2, 63936, Note_on_c, 0, 62, 82
2, 64028, Note_off_c, 0, 74, 0
2, 64028, Note_off_c, 0, 62, 0
2, 64032, Note_on_c, 0, 78, 82
2, 64032, Note_on_c, 0, 66, 82
2, 64124, Note_off_c, 0, 78, 0
2, 64124, Note_off_c, 0, 66, 0
2, 64128, Note_on_c, 0, 78, 82
2, 64128, Note_on_c, 0, 73, 82
2, 64128, Note_on_c, 0, 57, 82
2, 64220, Note_off_c, 0, 78, 0
2, 64220, Note_off_c, 0, 57, 0
2, 64224, Note_on_c, 0, 76, 82
2, 64224, Note_on_c, 0, 67, 82
2, 64316, Note_off_c, 0, 76, 0
2, 64316, Note_off_c, 0, 67, 0
2, 64320, Note_on_c, 0, 74, 82
2, 64320, Note_on_c, 0, 64, 82
2, 64412, Note_off_c, 0, 74, 0
2, 64412, Note_off_c, 0, 64, 0
2, 64416, Note_on_c, 0, 76, 82
2, 64416, Note_on_c, 0, 67, 82
2, 64508, Note_off_c, 0, 73, 0
2, 64508, Note_off_c, 0, 76, 0
2, 64508, Note_off_c, 0, 67, 0
2, 64512, Note_on_c, 0, 76, 60
2, 64512, Note_on_c, 0, 73, 60
2, 64512, Note_on_c, 0, 62, 60
2, 64512, Note_on_c, 0, 67, 60
2, 64892, Note_off_c, 0, 76, 0
2, 64892, Note_off_c, 0, 73, 0
2, 64892, Note_off_c, 0, 67, 0
2, 64896, Note_on_c, 0, 74, 60
2, 64896, Note_on_c, 0, 66, 60
2, 64988, Note_off_c, 0, 74, 0
2, 64992, Note_on_c, 0, 75, 60
2, 65084, Note_off_c, 0, 75, 0
2, 65088, Note_on_c, 0, 76, 60
2, 65180, Note_off_c, 0, 76, 0
2, 65184, Note_on_c, 0, 75, 60
2, 65276, Note_off_c, 0, 62, 0
2, 65276, Note_off_c, 0, 66, 0
2, 65276, Note_off_c, 0, 75, 0
2, 65280, Note_on_c, 0, 78, 60
2, 65372, Note_off_c, 0, 78, 0
2, 65376, Note_on_c, 0, 76, 60
2, 65468, Note_off_c, 0, 76, 0
2, 65472, Note_on_c, 0, 74, 60
2, 65564, Note_off_c, 0, 74, 0
2, 65568, Note_on_c, 0, 72, 60
2, 65660, Note_off_c, 0, 72, 0
2, 65664, Note_on_c, 0, 71, 60
2, 66044, Note_off_c, 0, 71, 0
2, 66048, Note_on_c, 0, 71, 60
2, 66140, Note_off_c, 0, 71, 0
2, 66144, Note_on_c, 0, 67, 60
2, 66236, Note_off_c, 0, 67, 0
2, 66240, Note_on_c, 0, 71, 60
2, 66332, Note_off_c, 0, 71, 0
2, 66336, Note_on_c, 0, 74, 60
2, 66428, Note_off_c, 0, 74, 0
2, 66432, Note_on_c, 0, 72, 60
2, 66524, Note_off_c, 0, 72, 0
2, 66528, Note_on_c, 0, 69, 60
2, 66620, Note_off_c, 0, 69, 0
2, 66624, Note_on_c, 0, 72, 60
2, 66716, Note_off_c, 0, 72, 0
2, 66720, Note_on_c, 0, 76, 60
2, 66812, Note_off_c, 0, 76, 0
2, 66816, Note_on_c, 0, 74, 60
2, 67100, Note_off_c, 0, 74, 0
2, 67104, Note_on_c, 0, 71, 60
2, 67196, Note_off_c, 0, 71, 0
2, 67200, Note_on_c, 0, 67, 60
2, 67292, Note_off_c, 0, 67, 0
2, 67296, Note_on_c, 0, 67, 60
2, 67388, Note_off_c, 0, 67, 0
2, 67392, Note_on_c, 0, 69, 60
2, 67484, Note_off_c, 0, 69, 0
2, 67488, Note_on_c, 0, 71, 60
2, 67580, Note_off_c, 0, 71, 0
2, 67584, Note_on_c, 0, 72, 60
2, 67676, Note_off_c, 0, 72, 0
2, 67680, Note_on_c, 0, 74, 60
2, 67772, Note_off_c, 0, 74, 0
2, 67776, Note_on_c, 0, 76, 60
2, 67868, Note_off_c, 0, 76, 0
2, 67872, Note_on_c, 0, 78, 60
2, 67964, Note_off_c, 0, 78, 0
2, 67968, Note_on_c, 0, 79, 60
2, 68060, Note_off_c, 0, 79, 0
2, 68064, Note_on_c, 0, 78, 60
2, 68156, Note_off_c, 0, 78, 0
2, 68160, Note_on_c, 0, 79, 60
2, 68252, Note_off_c, 0, 79, 0
2, 68256, Note_on_c, 0, 78, 60
2, 68348, Note_off_c, 0, 78, 0
2, 68352, Note_on_c, 0, 81, 60
2, 68444, Note_off_c, 0, 81, 0
2, 68448, Note_on_c, 0, 79, 60
2, 68540, Note_off_c, 0, 79, 0
2, 68544, Note_on_c, 0, 78, 60
2, 68636, Note_off_c, 0, 78, 0
2, 68640, Note_on_c, 0, 79, 60
2, 68732, Note_off_c, 0, 79, 0
2, 68736, Note_on_c, 0, 78, 60
2, 68828, Note_off_c, 0, 78, 0
2, 68832, Note_on_c, 0, 76, 60
2, 68924, Note_off_c, 0, 76, 0
2, 68928, Note_on_c, 0, 74, 60
2, 69020, Note_off_c, 0, 74, 0
2, 69024, Note_on_c, 0, 73, 60
2, 69116, Note_off_c, 0, 73, 0
2, 69120, Note_on_c, 0, 74, 60
2, 69212, Note_off_c, 0, 74, 0
2, 69216, Note_on_c, 0, 71, 60
2, 69308, Note_off_c, 0, 71, 0
2, 69312, Note_on_c, 0, 74, 60
2, 69404, Note_off_c, 0, 74, 0
2, 69408, Note_on_c, 0, 71, 60
2, 69500, Note_off_c, 0, 71, 0
2, 69504, Note_on_c, 0, 67, 60
2, 69884, Note_off_c, 0, 67, 0
2, 70272, Note_on_c, 0, 72, 60
2, 70364, Note_off_c, 0, 72, 0
2, 70368, Note_on_c, 0, 69, 60
2, 70460, Note_off_c, 0, 69, 0
2, 70464, Note_on_c, 0, 72, 60
2, 70556, Note_off_c, 0, 72, 0
2, 70560, Note_on_c, 0, 69, 60
2, 70652, Note_off_c, 0, 69, 0
2, 70656, Note_on_c, 0, 66, 60
2, 70748, Note_off_c, 0, 66, 0
2, 70752, Note_on_c, 0, 69, 60
2, 70844, Note_off_c, 0, 69, 0
2, 70848, Note_on_c, 0, 68, 67
2, 70940, Note_off_c, 0, 68, 0
2, 70944, Note_on_c, 0, 69, 69
2, 71036, Note_off_c, 0, 69, 0
2, 71040, Note_on_c, 0, 70, 72
2, 71132, Note_off_c, 0, 70, 0
2, 71136, Note_on_c, 0, 71, 73
2, 71228, Note_off_c, 0, 71, 0
2, 71232, Note_on_c, 0, 72, 76
2, 71324, Note_off_c, 0, 72, 0
2, 71328, Note_on_c, 0, 73, 78
2, 71420, Note_off_c, 0, 73, 0
2, 71424, Note_on_c, 0, 74, 81
2, 71516, Note_off_c, 0, 74, 0
2, 71520, Note_on_c, 0, 71, 82
2, 71612, Note_off_c, 0, 71, 0
2, 71616, Note_on_c, 0, 74, 84
2, 71708, Note_off_c, 0, 74, 0
2, 71712, Note_on_c, 0, 71, 85
2, 71804, Note_off_c, 0, 71, 0
2, 71808, Note_on_c, 0, 79, 87
2, 72188, Note_off_c, 0, 79, 0
2, 72288, Note_on_c, 0, 83, 90
2, 72380, Note_off_c, 0, 83, 0
2, 72384, Note_on_c, 0, 78, 90
2, 72476, Note_off_c, 0, 78, 0
2, 72480, Note_on_c, 0, 79, 90
2, 72572, Note_off_c, 0, 79, 0
2, 72576, Note_on_c, 0, 75, 90
2, 72668, Note_off_c, 0, 75, 0
2, 72672, Note_on_c, 0, 76, 90
2, 72764, Note_off_c, 0, 76, 0
2, 72768, Note_on_c, 0, 72, 90
2, 72860, Note_off_c, 0, 72, 0
2, 72864, Note_on_c, 0, 69, 90
2, 72956, Note_off_c, 0, 69, 0
2, 72960, Note_on_c, 0, 67, 60
2, 73244, Note_off_c, 0, 67, 0
2, 73248, Note_on_c, 0, 67, 60
2, 73340, Note_off_c, 0, 67, 0
2, 73344, Note_on_c, 0, 71, 60
2, 73344, Note_on_c, 0, 66, 60
2, 73436, Note_off_c, 0, 71, 0
2, 73440, Note_on_c, 0, 69, 60
2, 73532, Note_off_c, 0, 69, 0
2, 73536, Note_on_c, 0, 67, 60
2, 73628, Note_off_c, 0, 67, 0
2, 73632, Note_on_c, 0, 69, 60
2, 73724, Note_off_c, 0, 66, 0
2, 73724, Note_off_c, 0, 69, 0
2, 73728, Note_on_c, 0, 69, 60
2, 73728, Note_on_c, 0, 66, 60
2, 74108, Note_off_c, 0, 69, 0
2, 74108, Note_off_c, 0, 66, 0
2, 74112, Note_on_c, 0, 67, 60
2, 74492, Note_off_c, 0, 67, 0
2, 74880, Note_on_c, 0, 70, 60
2, 75260, Note_off_c, 0, 70, 0
2, 75264, Note_on_c, 0, 70, 60
2, 75356, Note_off_c, 0, 70, 0
2, 75360, Note_on_c, 0, 69, 60
2, 75452, Note_off_c, 0, 69, 0
2, 75456, Note_on_c, 0, 72, 60
2, 75548, Note_off_c, 0, 72, 0
2, 75552, Note_on_c, 0, 70, 60
2, 75644, Note_off_c, 0, 70, 0
2, 75648, Note_on_c, 0, 70, 60
2, 75740, Note_off_c, 0, 70, 0
2, 75744, Note_on_c, 0, 69, 60
2, 75836, Note_off_c, 0, 69, 0
2, 75840, Note_on_c, 0, 67, 60
2, 75932, Note_off_c, 0, 67, 0
2, 75936, Note_on_c, 0, 66, 60
2, 76028, Note_off_c, 0, 66, 0
2, 76032, Note_on_c, 0, 67, 60
2, 76316, Note_off_c, 0, 67, 0
2, 76320, Note_on_c, 0, 70, 60
2, 76412, Note_off_c, 0, 70, 0
2, 76416, Note_on_c, 0, 74, 60
2, 76796, Note_off_c, 0, 74, 0
2, 77184, Note_on_c, 0, 74, 60
2, 77564, Note_off_c, 0, 74, 0
2, 77568, Note_on_c, 0, 74, 64
2, 77660, Note_off_c, 0, 74, 0
2, 77664, Note_on_c, 0, 73, 67
2, 77756, Note_off_c, 0, 73, 0
2, 77760, Note_on_c, 0, 75, 70
2, 77852, Note_off_c, 0, 75, 0
2, 77856, Note_on_c, 0, 74, 73
2, 77948, Note_off_c, 0, 74, 0
2, 77952, Note_on_c, 0, 74, 75
2, 78044, Note_off_c, 0, 74, 0
2, 78048, Note_on_c, 0, 72, 78
2, 78140, Note_off_c, 0, 72, 0
2, 78144, Note_on_c, 0, 70, 79
2, 78236, Note_off_c, 0, 70, 0
2, 78240, Note_on_c, 0, 69, 81
2, 78332, Note_off_c, 0, 69, 0
2, 78336, Note_on_c, 0, 70, 82
2, 78620, Note_off_c, 0, 70, 0
2, 78624, Note_on_c, 0, 74, 85
2, 78716, Note_off_c, 0, 74, 0
2, 78720, Note_on_c, 0, 79, 88
2, 79100, Note_off_c, 0, 79, 0
2, 79488, Note_on_c, 0, 77, 90
2, 79868, Note_off_c, 0, 77, 0
2, 79872, Note_on_c, 0, 77, 90
2, 79964, Note_off_c, 0, 77, 0
2, 79968, Note_on_c, 0, 81, 90
2, 80060, Note_off_c, 0, 81, 0
2, 80064, Note_on_c, 0, 84, 90
2, 80156, Note_off_c, 0, 84, 0
2, 80160, Note_on_c, 0, 82, 90
2, 80252, Note_off_c, 0, 82, 0
2, 80256, Note_on_c, 0, 81, 90
2, 80348, Note_off_c, 0, 81, 0
2, 80352, Note_on_c, 0, 79, 90
2, 80444, Note_off_c, 0, 79, 0
2, 80448, Note_on_c, 0, 77, 90
2, 80540, Note_off_c, 0, 77, 0
2, 80544, Note_on_c, 0, 75, 90
2, 80636, Note_off_c, 0, 75, 0
2, 80640, Note_on_c, 0, 74, 90
2, 81020, Note_off_c, 0, 74, 0
2, 81024, Note_on_c, 0, 74, 90
2, 81116, Note_off_c, 0, 74, 0
2, 81120, Note_on_c, 0, 79, 90
2, 81212, Note_off_c, 0, 79, 0
2, 81216, Note_on_c, 0, 82, 90
2, 81308, Note_off_c, 0, 82, 0
2, 81312, Note_on_c, 0, 81, 90
2, 81404, Note_off_c, 0, 81, 0
2, 81408, Note_on_c, 0, 79, 90
2, 81500, Note_off_c, 0, 79, 0
2, 81504, Note_on_c, 0, 77, 90
2, 81596, Note_off_c, 0, 77, 0
2, 81600, Note_on_c, 0, 75, 90
2, 81692, Note_off_c, 0, 75, 0
2, 81696, Note_on_c, 0, 74, 90
2, 81788, Note_off_c, 0, 74, 0
2, 81792, Note_on_c, 0, 71, 67
2, 81884, Note_off_c, 0, 71, 0
2, 81888, Note_on_c, 0, 72, 67
2, 81980, Note_off_c, 0, 72, 0
2, 81984, Note_on_c, 0, 75, 67
2, 82076, Note_off_c, 0, 75, 0
2, 82080, Note_on_c, 0, 79, 67
2, 82172, Note_off_c, 0, 79, 0
2, 82176, Note_on_c, 0, 70, 67
2, 82460, Note_off_c, 0, 70, 0
2, 82464, Note_on_c, 0, 70, 67
2, 82556, Note_off_c, 0, 70, 0
2, 82560, Note_on_c, 0, 74, 67
2, 82652, Note_off_c, 0, 74, 0
2, 82656, Note_on_c, 0, 72, 67
2, 82748, Note_off_c, 0, 72, 0
2, 82752, Note_on_c, 0, 70, 67
2, 82844, Note_off_c, 0, 70, 0
2, 82848, Note_on_c, 0, 72, 67
2, 82940, Note_off_c, 0, 72, 0
2, 82944, Note_on_c, 0, 72, 60
2, 82944, Note_on_c, 0, 69, 60
2, 83324, Note_off_c, 0, 72, 0
2, 83324, Note_off_c, 0, 69, 0
2, 83328, Note_on_c, 0, 70, 60
2, 83420, Note_off_c, 0, 70, 0
2, 83424, Note_on_c, 0, 69, 60
2, 83516, Note_off_c, 0, 69, 0
2, 83520, Note_on_c, 0, 72, 60
2, 83612, Note_off_c, 0, 72, 0
2, 83616, Note_on_c, 0, 70, 60
2, 83708, Note_off_c, 0, 70, 0
2, 83712, Note_on_c, 0, 74, 60
2, 83804, Note_off_c, 0, 74, 0
2, 83808, Note_on_c, 0, 72, 60
2, 83900, Note_off_c, 0, 72, 0
2, 83904, Note_on_c, 0, 75, 60
2, 83996, Note_off_c, 0, 75, 0
2, 84000, Note_on_c, 0, 74, 60
2, 84092, Note_off_c, 0, 74, 0
2, 84096, Note_on_c, 0, 77, 90
2, 84476, Note_off_c, 0, 77, 0
2, 84480, Note_on_c, 0, 77, 60
2, 84572, Note_off_c, 0, 77, 0
2, 84576, Note_on_c, 0, 80, 60
2, 84668, Note_off_c, 0, 80, 0
2, 84672, Note_on_c, 0, 79, 60
2, 84764, Note_off_c, 0, 79, 0
2, 84768, Note_on_c, 0, 77, 60
2, 84860, Note_off_c, 0, 77, 0
2, 84864, Note_on_c, 0, 75, 60
2, 84956, Note_off_c, 0, 75, 0
2, 84976, Note_on_c, 0, 74, 60
2, 85056, Note_on_c, 0, 72, 60
2, 85068, Note_off_c, 0, 74, 0
2, 85148, Note_off_c, 0, 72, 0
2, 85152, Note_on_c, 0, 71, 60
2, 85244, Note_off_c, 0, 71, 0
2, 85248, Note_on_c, 0, 72, 60
2, 85532, Note_off_c, 0, 72, 0
2, 85536, Note_on_c, 0, 75, 60
2, 85628, Note_off_c, 0, 75, 0
2, 85632, Note_on_c, 0, 79, 60
2, 86012, Note_off_c, 0, 79, 0
2, 86400, Note_on_c, 0, 79, 90
2, 86780, Note_off_c, 0, 79, 0
2, 86784, Note_on_c, 0, 79, 82
2, 86876, Note_off_c, 0, 79, 0
2, 86880, Note_on_c, 0, 78, 82
2, 86972, Note_off_c, 0, 78, 0
2, 86976, Note_on_c, 0, 81, 82
2, 87068, Note_off_c, 0, 81, 0
2, 87072, Note_on_c, 0, 79, 82
2, 87164, Note_off_c, 0, 79, 0
2, 87168, Note_on_c, 0, 82, 90
2, 87260, Note_off_c, 0, 82, 0
2, 87264, Note_on_c, 0, 73, 82
2, 87356, Note_off_c, 0, 73, 0
2, 87360, Note_on_c, 0, 82, 82
2, 87452, Note_off_c, 0, 82, 0
2, 87456, Note_on_c, 0, 73, 82
2, 87548, Note_off_c, 0, 73, 0
2, 87552, Note_on_c, 0, 73, 90
2, 87932, Note_off_c, 0, 73, 0
2, 87936, Note_on_c, 0, 74, 60
2, 88316, Note_off_c, 0, 74, 0
2, 88704, Note_on_c, 0, 75, 60
2, 89084, Note_off_c, 0, 75, 0
2, 89088, Note_on_c, 0, 75, 60
2, 89180, Note_off_c, 0, 75, 0
2, 89184, Note_on_c, 0, 72, 60
2, 89276, Note_off_c, 0, 72, 0
2, 89280, Note_on_c, 0, 81, 60
2, 89372, Note_off_c, 0, 81, 0
2, 89376, Note_on_c, 0, 78, 60
2, 89468, Note_off_c, 0, 78, 0
2, 89472, Note_on_c, 0, 84, 60
2, 89564, Note_off_c, 0, 84, 0
2, 89568, Note_on_c, 0, 81, 60
2, 89660, Note_off_c, 0, 81, 0
2, 89664, Note_on_c, 0, 87, 60
2, 89756, Note_off_c, 0, 87, 0
2, 89760, Note_on_c, 0, 78, 60
2, 89852, Note_off_c, 0, 78, 0
2, 89856, Note_on_c, 0, 86, 90
2, 89948, Note_off_c, 0, 86, 0
2, 90240, Note_on_c, 0, 86, 60
2, 90332, Note_off_c, 0, 86, 0
2, 90336, Note_on_c, 0, 81, 60
2, 90428, Note_off_c, 0, 81, 0
2, 90432, Note_on_c, 0, 82, 60
2, 90524, Note_off_c, 0, 82, 0
2, 90528, Note_on_c, 0, 78, 60
2, 90620, Note_off_c, 0, 78, 0
2, 90624, Note_on_c, 0, 79, 60
2, 90716, Note_off_c, 0, 79, 0
2, 90720, Note_on_c, 0, 73, 60
2, 90812, Note_off_c, 0, 73, 0
2, 90816, Note_on_c, 0, 74, 60
2, 90908, Note_off_c, 0, 74, 0
2, 90912, Note_on_c, 0, 70, 60
2, 91004, Note_off_c, 0, 70, 0
2, 91008, Note_on_c, 0, 70, 60
2, 91100, Note_off_c, 0, 70, 0
2, 91104, Note_on_c, 0, 69, 60
2, 91196, Note_off_c, 0, 69, 0
2, 91200, Note_on_c, 0, 72, 60
2, 91292, Note_off_c, 0, 72, 0
2, 91296, Note_on_c, 0, 75, 60
2, 91388, Note_off_c, 0, 75, 0
2, 91392, Note_on_c, 0, 67, 60
2, 91676, Note_off_c, 0, 67, 0
2, 91680, Note_on_c, 0, 67, 60
2, 91772, Note_off_c, 0, 67, 0
2, 91776, Note_on_c, 0, 70, 60
2, 91868, Note_off_c, 0, 70, 0
2, 91872, Note_on_c, 0, 69, 60
2, 91964, Note_off_c, 0, 69, 0
2, 91968, Note_on_c, 0, 67, 60
2, 92060, Note_off_c, 0, 67, 0
2, 92064, Note_on_c, 0, 69, 60
2, 92156, Note_off_c, 0, 69, 0
2, 92160, Note_on_c, 0, 69, 60
2, 92160, Note_on_c, 0, 66, 60
2, 92540, Note_off_c, 0, 69, 0
2, 92540, Note_off_c, 0, 66, 0
2, 92544, Note_on_c, 0, 67, 60
2, 92636, Note_off_c, 0, 67, 0
2, 92640, Note_on_c, 0, 66, 60
2, 92732, Note_off_c, 0, 66, 0
2, 92736, Note_on_c, 0, 67, 60
2, 92828, Note_off_c, 0, 67, 0
2, 92832, Note_on_c, 0, 68, 60
2, 92924, Note_off_c, 0, 68, 0
2, 92928, Note_on_c, 0, 69, 60
2, 93020, Note_off_c, 0, 69, 0
2, 93024, Note_on_c, 0, 68, 60
2, 93116, Note_off_c, 0, 68, 0
2, 93120, Note_on_c, 0, 69, 60
2, 93212, Note_off_c, 0, 69, 0
2, 93216, Note_on_c, 0, 70, 60
2, 93308, Note_off_c, 0, 70, 0
2, 93312, Note_on_c, 0, 71, 60
2, 94076, Note_off_c, 0, 71, 0
2, 94080, Note_on_c, 0, 74, 60
2, 94172, Note_off_c, 0, 74, 0
2, 94176, Note_on_c, 0, 72, 60
2, 94268, Note_off_c, 0, 72, 0
2, 94272, Note_on_c, 0, 71, 60
2, 94364, Note_off_c, 0, 71, 0
2, 94368, Note_on_c, 0, 72, 60
2, 94460, Note_off_c, 0, 72, 0
2, 94464, Note_on_c, 0, 74, 60
2, 94748, Note_off_c, 0, 74, 0
2, 94752, Note_on_c, 0, 71, 60
2, 94844, Note_off_c, 0, 71, 0
2, 94848, Note_on_c, 0, 67, 60
2, 95228, Note_off_c, 0, 67, 0
2, 95616, Note_on_c, 0, 79, 60
2, 96188, Note_off_c, 0, 79, 0
2, 96192, Note_on_c, 0, 81, 60
2, 96284, Note_off_c, 0, 81, 0
2, 96288, Note_on_c, 0, 79, 60
2, 96380, Note_off_c, 0, 79, 0
2, 96384, Note_on_c, 0, 78, 60
2, 96476, Note_off_c, 0, 78, 0
2, 96480, Note_on_c, 0, 76, 60
2, 96572, Note_off_c, 0, 76, 0
2, 96576, Note_on_c, 0, 74, 60
2, 96668, Note_off_c, 0, 74, 0
2, 96672, Note_on_c, 0, 73, 60
2, 96764, Note_off_c, 0, 73, 0
2, 96768, Note_on_c, 0, 74, 60
2, 97052, Note_off_c, 0, 74, 0
2, 97056, Note_on_c, 0, 71, 60
2, 97148, Note_off_c, 0, 71, 0
2, 97152, Note_on_c, 0, 67, 60
2, 97532, Note_off_c, 0, 67, 0
2, 97920, Note_on_c, 0, 72, 60
2, 98204, Note_off_c, 0, 72, 0
2, 98208, Note_on_c, 0, 69, 60
2, 98300, Note_off_c, 0, 69, 0
2, 98304, Note_on_c, 0, 66, 60
2, 98492, Note_off_c, 0, 66, 0
2, 98496, Note_on_c, 0, 69, 60
2, 98684, Note_off_c, 0, 69, 0
2, 98688, Note_on_c, 0, 71, 60
2, 98876, Note_off_c, 0, 71, 0
2, 98880, Note_on_c, 0, 72, 60
2, 99068, Note_off_c, 0, 72, 0
2, 99072, Note_on_c, 0, 74, 60
2, 99360, Note_on_c, 0, 71, 60
2, 99452, Note_off_c, 0, 71, 0
2, 99456, Note_on_c, 0, 79, 60
2, 99644, Note_off_c, 0, 74, 0
2, 99836, Note_off_c, 0, 79, 0
2, 100224, Note_on_c, 0, 81, 60
2, 100316, Note_off_c, 0, 81, 0
2, 100320, Note_on_c, 0, 79, 60
2, 100412, Note_off_c, 0, 79, 0
2, 100416, Note_on_c, 0, 78, 60
2, 100508, Note_off_c, 0, 78, 0
2, 100512, Note_on_c, 0, 79, 60
2, 100604, Note_off_c, 0, 79, 0
2, 100608, Note_on_c, 0, 78, 60
2, 100700, Note_off_c, 0, 78, 0
2, 100704, Note_on_c, 0, 76, 60
2, 100796, Note_off_c, 0, 76, 0
2, 100800, Note_on_c, 0, 75, 60
2, 100892, Note_off_c, 0, 75, 0
2, 100896, Note_on_c, 0, 76, 60
2, 100988, Note_off_c, 0, 76, 0
2, 100992, Note_on_c, 0, 74, 60
2, 101084, Note_off_c, 0, 74, 0
2, 101088, Note_on_c, 0, 72, 60
2, 101180, Note_off_c, 0, 72, 0
2, 101184, Note_on_c, 0, 71, 60
2, 101276, Note_off_c, 0, 71, 0
2, 101280, Note_on_c, 0, 72, 60
2, 101372, Note_off_c, 0, 72, 0
2, 101376, Note_on_c, 0, 71, 60
2, 101660, Note_off_c, 0, 71, 0
2, 101664, Note_on_c, 0, 72, 60
2, 101708, Note_off_c, 0, 72, 0
2, 101712, Note_on_c, 0, 71, 60
2, 101756, Note_off_c, 0, 71, 0
2, 101760, Note_on_c, 0, 69, 67
2, 101948, Note_off_c, 0, 69, 0
2, 101952, Note_on_c, 0, 74, 67
2, 102140, Note_off_c, 0, 74, 0
2, 102144, Note_on_c, 0, 73, 67
2, 102332, Note_off_c, 0, 73, 0
2, 102336, Note_on_c, 0, 72, 67
2, 102524, Note_off_c, 0, 72, 0
2, 102528, Note_on_c, 0, 71, 67
2, 102908, Note_off_c, 0, 71, 0
2, 102912, Note_on_c, 0, 71, 67
2, 103004, Note_off_c, 0, 71, 0
2, 103008, Note_on_c, 0, 67, 67
2, 103100, Note_off_c, 0, 67, 0
2, 103104, Note_on_c, 0, 71, 67
2, 103196, Note_off_c, 0, 71, 0
2, 103200, Note_on_c, 0, 74, 67
2, 103292, Note_off_c, 0, 74, 0
2, 103296, Note_on_c, 0, 72, 67
2, 103388, Note_off_c, 0, 72, 0
2, 103392, Note_on_c, 0, 69, 67
2, 103484, Note_off_c, 0, 69, 0
2, 103488, Note_on_c, 0, 72, 67
2, 103580, Note_off_c, 0, 72, 0
2, 103584, Note_on_c, 0, 76, 67
2, 103676, Note_off_c, 0, 76, 0
2, 103680, Note_on_c, 0, 74, 67
2, 103964, Note_off_c, 0, 74, 0
2, 103968, Note_on_c, 0, 71, 67
2, 104060, Note_off_c, 0, 71, 0
2, 104064, Note_on_c, 0, 67, 67
2, 104156, Note_off_c, 0, 67, 0
2, 104160, Note_on_c, 0, 67, 67
2, 104252, Note_off_c, 0, 67, 0
2, 104256, Note_on_c, 0, 69, 67
2, 104348, Note_off_c, 0, 69, 0
2, 104352, Note_on_c, 0, 71, 67
2, 104444, Note_off_c, 0, 71, 0
2, 104448, Note_on_c, 0, 72, 75
2, 104540, Note_off_c, 0, 72, 0
2, 104544, Note_on_c, 0, 74, 76
2, 104636, Note_off_c, 0, 74, 0
2, 104640, Note_on_c, 0, 76, 78
2, 104732, Note_off_c, 0, 76, 0
2, 104736, Note_on_c, 0, 78, 81
2, 104828, Note_off_c, 0, 78, 0
2, 104832, Note_on_c, 0, 79, 82
2, 104924, Note_off_c, 0, 79, 0
2, 104928, Note_on_c, 0, 78, 82
2, 105020, Note_off_c, 0, 78, 0
2, 105024, Note_on_c, 0, 79, 82
2, 105116, Note_off_c, 0, 79, 0
2, 105120, Note_on_c, 0, 78, 82
2, 105212, Note_off_c, 0, 78, 0
2, 105216, Note_on_c, 0, 81, 82
2, 105308, Note_off_c, 0, 81, 0
2, 105312, Note_on_c, 0, 79, 82
2, 105404, Note_off_c, 0, 79, 0
2, 105408, Note_on_c, 0, 78, 82
2, 105500, Note_off_c, 0, 78, 0
2, 105504, Note_on_c, 0, 79, 82
2, 105596, Note_off_c, 0, 79, 0
2, 105600, Note_on_c, 0, 78, 82
2, 105692, Note_off_c, 0, 78, 0
2, 105696, Note_on_c, 0, 76, 82
2, 105788, Note_off_c, 0, 76, 0
2, 105792, Note_on_c, 0, 74, 82
2, 105884, Note_off_c, 0, 74, 0
2, 105888, Note_on_c, 0, 73, 82
2, 105980, Note_off_c, 0, 73, 0
2, 105984, Note_on_c, 0, 74, 67
2, 106076, Note_off_c, 0, 74, 0
2, 106080, Note_on_c, 0, 71, 67
2, 106172, Note_off_c, 0, 71, 0
2, 106176, Note_on_c, 0, 74, 67
2, 106268, Note_off_c, 0, 74, 0
2, 106272, Note_on_c, 0, 71, 67
2, 106364, Note_off_c, 0, 71, 0
2, 106368, Note_on_c, 0, 67, 67
2, 106748, Note_off_c, 0, 67, 0
2, 107136, Note_on_c, 0, 72, 60
2, 107228, Note_off_c, 0, 72, 0
2, 107232, Note_on_c, 0, 69, 60
2, 107324, Note_off_c, 0, 69, 0
2, 107328, Note_on_c, 0, 72, 60
2, 107420, Note_off_c, 0, 72, 0
2, 107424, Note_on_c, 0, 69, 60
2, 107516, Note_off_c, 0, 69, 0
2, 107520, Note_on_c, 0, 66, 64
2, 107612, Note_off_c, 0, 66, 0
2, 107616, Note_on_c, 0, 69, 67
2, 107708, Note_off_c, 0, 69, 0
2, 107712, Note_on_c, 0, 68, 70
2, 107804, Note_off_c, 0, 68, 0
2, 107808, Note_on_c, 0, 69, 73
2, 107900, Note_off_c, 0, 69, 0
2, 107904, Note_on_c, 0, 70, 76
2, 107996, Note_off_c, 0, 70, 0
2, 108000, Note_on_c, 0, 71, 79
2, 108092, Note_off_c, 0, 71, 0
2, 108096, Note_on_c, 0, 72, 82
2, 108188, Note_off_c, 0, 72, 0
2, 108192, Note_on_c, 0, 73, 85
2, 108284, Note_off_c, 0, 73, 0
2, 108288, Note_on_c, 0, 74, 60
2, 108380, Note_off_c, 0, 74, 0
2, 108384, Note_on_c, 0, 71, 60
2, 108476, Note_off_c, 0, 71, 0
2, 108480, Note_on_c, 0, 74, 60
2, 108572, Note_off_c, 0, 74, 0
2, 108576, Note_on_c, 0, 71, 60
2, 108668, Note_off_c, 0, 71, 0
2, 108672, Note_on_c, 0, 79, 60
2, 109052, Note_off_c, 0, 79, 0
2, 109152, Note_on_c, 0, 83, 90
2, 109244, Note_off_c, 0, 83, 0
2, 109248, Note_on_c, 0, 78, 90
2, 109340, Note_off_c, 0, 78, 0
2, 109344, Note_on_c, 0, 79, 90
2, 109436, Note_off_c, 0, 79, 0
2, 109440, Note_on_c, 0, 75, 60
2, 109532, Note_off_c, 0, 75, 0
2, 109536, Note_on_c, 0, 76, 60
2, 109628, Note_off_c, 0, 76, 0
2, 109632, Note_on_c, 0, 72, 60
2, 109724, Note_off_c, 0, 72, 0
2, 109728, Note_on_c, 0, 69, 60
2, 109820, Note_off_c, 0, 69, 0
2, 109824, Note_on_c, 0, 67, 60
2, 110108, Note_off_c, 0, 67, 0
2, 110112, Note_on_c, 0, 67, 60
2, 110204, Note_off_c, 0, 67, 0
2, 110208, Note_on_c, 0, 71, 60
2, 110208, Note_on_c, 0, 66, 60
2, 110300, Note_off_c, 0, 71, 0
2, 110304, Note_on_c, 0, 69, 60
2, 110396, Note_off_c, 0, 69, 0
2, 110400, Note_on_c, 0, 67, 60
2, 110492, Note_off_c, 0, 67, 0
2, 110496, Note_on_c, 0, 69, 60
2, 110588, Note_off_c, 0, 66, 0
2, 110588, Note_off_c, 0, 69, 0
2, 110592, Note_on_c, 0, 67, 60
2, 110684, Note_off_c, 0, 67, 0
2, 110688, Note_on_c, 0, 66, 60
2, 110780, Note_off_c, 0, 66, 0
2, 110784, Note_on_c, 0, 69, 60
2, 110876, Note_off_c, 0, 69, 0
2, 110880, Note_on_c, 0, 67, 60
2, 110972, Note_off_c, 0, 67, 0
2, 110976, Note_on_c, 0, 71, 60
2, 111068, Note_off_c, 0, 71, 0
2, 111072, Note_on_c, 0, 69, 60
2, 111164, Note_off_c, 0, 69, 0
2, 111168, Note_on_c, 0, 72, 60
2, 111260, Note_off_c, 0, 72, 0
2, 111264, Note_on_c, 0, 71, 60
2, 111356, Note_off_c, 0, 71, 0
2, 111360, Note_on_c, 0, 74, 60
2, 111452, Note_off_c, 0, 74, 0
2, 111456, Note_on_c, 0, 72, 60
2, 111548, Note_off_c, 0, 72, 0
2, 111552, Note_on_c, 0, 76, 60
2, 111644, Note_off_c, 0, 76, 0
2, 111648, Note_on_c, 0, 74, 60
2, 111740, Note_off_c, 0, 74, 0
2, 111744, Note_on_c, 0, 77, 82
2, 111744, Note_on_c, 0, 57, 82
2, 111836, Note_off_c, 0, 57, 0
2, 111840, Note_on_c, 0, 65, 82
2, 111932, Note_off_c, 0, 65, 0
2, 111936, Note_on_c, 0, 60, 82
2, 112028, Note_off_c, 0, 60, 0
2, 112032, Note_on_c, 0, 65, 82
2, 112124, Note_off_c, 0, 65, 0
2, 112128, Note_on_c, 0, 57, 82
2, 112220, Note_off_c, 0, 57, 0
2, 112224, Note_on_c, 0, 65, 82
2, 112316, Note_off_c, 0, 77, 0
2, 112316, Note_off_c, 0, 65, 0
2, 112320, Note_on_c, 0, 79, 82
2, 112320, Note_on_c, 0, 60, 82
2, 112412, Note_off_c, 0, 79, 0
2, 112412, Note_off_c, 0, 60, 0
2, 112416, Note_on_c, 0, 81, 82
2, 112416, Note_on_c, 0, 65, 82
2, 112508, Note_off_c, 0, 81, 0
2, 112508, Note_off_c, 0, 65, 0
2, 112512, Note_on_c, 0, 79, 82
2, 112512, Note_on_c, 0, 59, 82
2, 112604, Note_off_c, 0, 79, 0
2, 112604, Note_off_c, 0, 59, 0
2, 112608, Note_on_c, 0, 77, 82
2, 112608, Note_on_c, 0, 67, 82
2, 112700, Note_off_c, 0, 77, 0
2, 112700, Note_off_c, 0, 67, 0
2, 112704, Note_on_c, 0, 76, 82
2, 112704, Note_on_c, 0, 62, 82
2, 112796, Note_off_c, 0, 76, 0
2, 112796, Note_off_c, 0, 62, 0
2, 112800, Note_on_c, 0, 74, 82
2, 112800, Note_on_c, 0, 67, 82
2, 112892, Note_off_c, 0, 74, 0
2, 112892, Note_off_c, 0, 67, 0
2, 112896, Note_on_c, 0, 75, 82
2, 112896, Note_on_c, 0, 60, 82
2, 112988, Note_off_c, 0, 60, 0
2, 112992, Note_on_c, 0, 67, 82
2, 113084, Note_off_c, 0, 67, 0
2, 113088, Note_on_c, 0, 64, 82
2, 113180, Note_off_c, 0, 64, 0
2, 113184, Note_on_c, 0, 67, 82
2, 113276, Note_off_c, 0, 75, 0
2, 113276, Note_off_c, 0, 67, 0
2, 113280, Note_on_c, 0, 76, 82
2, 113280, Note_on_c, 0, 60, 82
2, 113372, Note_off_c, 0, 60, 0
2, 113376, Note_on_c, 0, 67, 82
2, 113468, Note_off_c, 0, 67, 0
2, 113472, Note_on_c, 0, 64, 82
2, 113564, Note_off_c, 0, 64, 0
2, 113568, Note_on_c, 0, 67, 82
2, 113660, Note_off_c, 0, 76, 0
2, 113660, Note_off_c, 0, 67, 0
2, 113664, Note_on_c, 0, 60, 82
2, 113756, Note_off_c, 0, 60, 0
2, 113760, Note_on_c, 0, 79, 82
2, 113760, Note_on_c, 0, 67, 82
2, 113852, Note_off_c, 0, 79, 0
2, 113852, Note_off_c, 0, 67, 0
2, 113856, Note_on_c, 0, 78, 82
2, 113856, Note_on_c, 0, 64, 82
2, 113948, Note_off_c, 0, 78, 0
2, 113948, Note_off_c, 0, 64, 0
2, 113952, Note_on_c, 0, 76, 82
2, 113952, Note_on_c, 0, 67, 82
2, 114044, Note_off_c, 0, 76, 0
2, 114044, Note_off_c, 0, 67, 0
2, 114048, Note_on_c, 0, 74, 75
2, 114048, Note_on_c, 0, 59, 75
2, 114140, Note_off_c, 0, 74, 0
2, 114140, Note_off_c, 0, 59, 0
2, 114144, Note_on_c, 0, 71, 70
2, 114144, Note_on_c, 0, 62, 70
2, 114236, Note_off_c, 0, 71, 0
2, 114236, Note_off_c, 0, 62, 0
2, 114240, Note_on_c, 0, 69, 67
2, 114240, Note_on_c, 0, 60, 67
2, 114332, Note_off_c, 0, 69, 0
2, 114332, Note_off_c, 0, 60, 0
2, 114336, Note_on_c, 0, 76, 63
2, 114336, Note_on_c, 0, 64, 63
2, 114428, Note_off_c, 0, 76, 0
2, 114428, Note_off_c, 0, 64, 0
2, 114432, Note_on_c, 0, 67, 60
2, 114720, Note_on_c, 0, 67, 60
2, 114812, Note_off_c, 0, 67, 0
2, 114816, Note_on_c, 0, 71, 60
2, 114816, Note_on_c, 0, 66, 60
2, 114908, Note_off_c, 0, 71, 0
2, 114912, Note_on_c, 0, 69, 60
2, 115004, Note_off_c, 0, 67, 0
2, 115004, Note_off_c, 0, 69, 0
2, 115008, Note_on_c, 0, 67, 60
2, 115100, Note_off_c, 0, 67, 0
2, 115104, Note_on_c, 0, 69, 60
2, 115196, Note_off_c, 0, 66, 0
2, 115196, Note_off_c, 0, 69, 0
2, 115200, Note_on_c, 0, 67, 60
2, 115292, Note_off_c, 0, 67, 0
2, 115296, Note_on_c, 0, 66, 60
2, 115388, Note_off_c, 0, 66, 0
2, 115392, Note_on_c, 0, 69, 60
2, 115484, Note_off_c, 0, 69, 0
2, 115488, Note_on_c, 0, 67, 60
2, 115580, Note_off_c, 0, 67, 0
2, 115584, Note_on_c, 0, 71, 60
2, 115676, Note_off_c, 0, 71, 0
2, 115680, Note_on_c, 0, 69, 60
2, 115772, Note_off_c, 0, 69, 0
2, 115776, Note_on_c, 0, 72, 60
2, 115868, Note_off_c, 0, 72, 0
2, 115872, Note_on_c, 0, 71, 60
2, 115964, Note_off_c, 0, 71, 0
2, 115968, Note_on_c, 0, 74, 60
2, 116060, Note_off_c, 0, 74, 0
2, 116064, Note_on_c, 0, 72, 60
2, 116156, Note_off_c, 0, 72, 0
2, 116160, Note_on_c, 0, 76, 60
2, 116252, Note_off_c, 0, 76, 0
2, 116256, Note_on_c, 0, 74, 60
2, 116348, Note_off_c, 0, 74, 0
2, 116352, Note_on_c, 0, 77, 90
2, 116924, Note_off_c, 0, 77, 0
2, 116928, Note_on_c, 0, 79, 90
2, 117020, Note_off_c, 0, 79, 0
2, 117024, Note_on_c, 0, 81, 90
2, 117116, Note_off_c, 0, 81, 0
2, 117120, Note_on_c, 0, 79, 90
2, 117212, Note_off_c, 0, 79, 0
2, 117216, Note_on_c, 0, 77, 90
2, 117308, Note_off_c, 0, 77, 0
2, 117312, Note_on_c, 0, 76, 90
2, 117404, Note_off_c, 0, 76, 0
2, 117408, Note_on_c, 0, 74, 90
2, 117500, Note_off_c, 0, 74, 0
2, 117504, Note_on_c, 0, 76, 90
2, 117884, Note_off_c, 0, 76, 0
2, 117888, Note_on_c, 0, 78, 90
2, 118268, Note_off_c, 0, 78, 0
2, 118272, Note_on_c, 0, 79, 90
2, 118652, Note_off_c, 0, 79, 0
2, 118656, Note_on_c, 0, 67, 60
2, 119228, Note_off_c, 0, 67, 0
2, 119232, Note_on_c, 0, 69, 60
2, 119276, Note_off_c, 0, 69, 0
2, 119280, Note_on_c, 0, 67, 60
2, 119324, Note_off_c, 0, 67, 0
2, 119328, Note_on_c, 0, 66, 60
2, 119372, Note_off_c, 0, 66, 0
2, 119376, Note_on_c, 0, 67, 60
2, 119420, Note_off_c, 0, 67, 0
2, 119424, Note_on_c, 0, 71, 60
2, 119424, Note_on_c, 0, 66, 60
2, 119612, Note_off_c, 0, 71, 0
2, 119616, Note_on_c, 0, 69, 60
2, 119804, Note_off_c, 0, 66, 0
2, 119804, Note_off_c, 0, 69, 0
2, 119808, Note_on_c, 0, 67, 45
2, 119900, Note_off_c, 0, 67, 0
2, 119904, Note_on_c, 0, 62, 45
2, 119996, Note_off_c, 0, 62, 0
2, 120000, Note_on_c, 0, 71, 45
2, 120092, Note_off_c, 0, 71, 0
2, 120096, Note_on_c, 0, 71, 45
2, 120188, Note_off_c, 0, 71, 0
2, 120192, Note_on_c, 0, 71, 45
2, 120284, Note_off_c, 0, 71, 0
2, 120288, Note_on_c, 0, 67, 45
2, 120380, Note_off_c, 0, 67, 0
2, 120384, Note_on_c, 0, 74, 45
2, 120476, Note_off_c, 0, 74, 0
2, 120480, Note_on_c, 0, 74, 45
2, 120572, Note_off_c, 0, 74, 0
2, 120576, Note_on_c, 0, 74, 45
2, 120668, Note_off_c, 0, 74, 0
2, 120672, Note_on_c, 0, 71, 45
2, 120764, Note_off_c, 0, 71, 0
2, 120768, Note_on_c, 0, 69, 45
2, 120860, Note_off_c, 0, 69, 0
2, 120864, Note_on_c, 0, 71, 45
2, 120956, Note_off_c, 0, 71, 0
2, 120960, Note_on_c, 0, 67, 45
2, 121052, Note_off_c, 0, 67, 0
2, 121056, Note_on_c, 0, 62, 45
2, 121148, Note_off_c, 0, 62, 0
2, 121152, Note_on_c, 0, 71, 45
2, 121244, Note_off_c, 0, 71, 0
2, 121248, Note_on_c, 0, 71, 45
2, 121340, Note_off_c, 0, 71, 0
2, 121344, Note_on_c, 0, 71, 45
2, 121436, Note_off_c, 0, 71, 0
2, 121440, Note_on_c, 0, 67, 45
2, 121532, Note_off_c, 0, 67, 0
2, 121536, Note_on_c, 0, 74, 45
2, 121628, Note_off_c, 0, 74, 0
2, 121632, Note_on_c, 0, 74, 45
2, 121724, Note_off_c, 0, 74, 0
2, 121728, Note_on_c, 0, 74, 45
2, 121820, Note_off_c, 0, 74, 0
2, 121824, Note_on_c, 0, 71, 45
2, 121916, Note_off_c, 0, 71, 0
2, 121920, Note_on_c, 0, 69, 45
2, 122012, Note_off_c, 0, 69, 0
2, 122016, Note_on_c, 0, 71, 45
2, 122108, Note_off_c, 0, 71, 0
2, 122112, Note_on_c, 0, 67, 60
2, 122300, Note_off_c, 0, 67, 0
2, 122496, Note_on_c, 0, 67, 60
2, 122496, Note_on_c, 0, 59, 60
2, 122684, Note_off_c, 0, 67, 0
2, 122684, Note_off_c, 0, 59, 0
2, 122684, End_track
3, 0, Start_track
3, 0, Title_t, "Sonata # 3"
3, 0, Control_c, 1, 0, 0
3, 0, Program_c, 1, 0
3, 0, Control_c, 1, 7, 93
3, 0, Control_c, 1, 10, 55
3, 0, Control_c, 1, 91, 100
3, 0, Control_c, 1, 93, 61
3, 0, Key_signature, 1, "major"
3, 0, Control_c, 1, 121, 0
3, 96, Control_c, 1, 10, 53
3, 192, Control_c, 1, 91, 63
3, 240, Control_c, 1, 93, 40
3, 288, Program_c, 1, 0
3, 1156, Note_on_c, 1, 55, 45
3, 1248, Note_off_c, 1, 55, 0
3, 1248, Note_on_c, 1, 62, 45
3, 1340, Note_off_c, 1, 62, 0
3, 1344, Note_on_c, 1, 59, 45
3, 1436, Note_off_c, 1, 59, 0
3, 1440, Note_on_c, 1, 62, 45
3, 1532, Note_off_c, 1, 62, 0
3, 1536, Note_on_c, 1, 55, 45
3, 1628, Note_off_c, 1, 55, 0
3, 1632, Note_on_c, 1, 62, 45
3, 1724, Note_off_c, 1, 62, 0
3, 1728, Note_on_c, 1, 59, 45
3, 1820, Note_off_c, 1, 59, 0
3, 1824, Note_on_c, 1, 62, 45
3, 1916, Note_off_c, 1, 62, 0
3, 1920, Note_on_c, 1, 55, 45
3, 2012, Note_off_c, 1, 55, 0
3, 2016, Note_on_c, 1, 62, 45
3, 2108, Note_off_c, 1, 62, 0
3, 2112, Note_on_c, 1, 60, 45
3, 2204, Note_off_c, 1, 60, 0
3, 2208, Note_on_c, 1, 62, 45
3, 2300, Note_off_c, 1, 62, 0
3, 2304, Note_on_c, 1, 55, 45
3, 2396, Note_off_c, 1, 55, 0
3, 2400, Note_on_c, 1, 62, 45
3, 2492, Note_off_c, 1, 62, 0
3, 2496, Note_on_c, 1, 59, 45
3, 2588, Note_off_c, 1, 59, 0
3, 2592, Note_on_c, 1, 62, 45
3, 2684, Note_off_c, 1, 62, 0
3, 2688, Note_on_c, 1, 55, 45
3, 2780, Note_off_c, 1, 55, 0
3, 2784, Note_on_c, 1, 62, 45
3, 2876, Note_off_c, 1, 62, 0
3, 2880, Note_on_c, 1, 59, 45
3, 2972, Note_off_c, 1, 59, 0
3, 2976, Note_on_c, 1, 62, 45
3, 3068, Note_off_c, 1, 62, 0
3, 3072, Note_on_c, 1, 55, 45
3, 3164, Note_off_c, 1, 55, 0
3, 3168, Note_on_c, 1, 62, 45
3, 3260, Note_off_c, 1, 62, 0
3, 3264, Note_on_c, 1, 59, 45
3, 3356, Note_off_c, 1, 59, 0
3, 3360, Note_on_c, 1, 62, 45
3, 3452, Note_off_c, 1, 62, 0
3, 3456, Note_on_c, 1, 55, 45
3, 3548, Note_off_c, 1, 55, 0
3, 3552, Note_on_c, 1, 64, 45
3, 3644, Note_off_c, 1, 64, 0
3, 3648, Note_on_c, 1, 60, 45
3, 3740, Note_off_c, 1, 60, 0
3, 3744, Note_on_c, 1, 64, 45
3, 3836, Note_off_c, 1, 64, 0
3, 3840, Note_on_c, 1, 55, 45
3, 3932, Note_off_c, 1, 55, 0
3, 3936, Note_on_c, 1, 64, 45
3, 4028, Note_off_c, 1, 64, 0
3, 4032, Note_on_c, 1, 60, 45
3, 4124, Note_off_c, 1, 60, 0
3, 4128, Note_on_c, 1, 64, 45
3, 4220, Note_off_c, 1, 64, 0
3, 4224, Note_on_c, 1, 55, 45
3, 4316, Note_off_c, 1, 55, 0
3, 4320, Note_on_c, 1, 61, 45
3, 4412, Note_off_c, 1, 61, 0
3, 4416, Note_on_c, 1, 58, 45
3, 4508, Note_off_c, 1, 58, 0
3, 4512, Note_on_c, 1, 61, 45
3, 4604, Note_off_c, 1, 61, 0
3, 4608, Note_on_c, 1, 55, 45
3, 4700, Note_off_c, 1, 55, 0
3, 4704, Note_on_c, 1, 62, 45
3, 4796, Note_off_c, 1, 62, 0
3, 4800, Note_on_c, 1, 59, 45
3, 4892, Note_off_c, 1, 59, 0
3, 4896, Note_on_c, 1, 62, 45
3, 4988, Note_off_c, 1, 62, 0
3, 4992, Note_on_c, 1, 55, 45
3, 5084, Note_off_c, 1, 55, 0
3, 5088, Note_on_c, 1, 62, 45
3, 5180, Note_off_c, 1, 62, 0
3, 5184, Note_on_c, 1, 59, 45
3, 5276, Note_off_c, 1, 59, 0
3, 5280, Note_on_c, 1, 62, 45
3, 5372, Note_off_c, 1, 62, 0
3, 5376, Note_on_c, 1, 55, 45
3, 5468, Note_off_c, 1, 55, 0
3, 5472, Note_on_c, 1, 62, 45
3, 5564, Note_off_c, 1, 62, 0
3, 5568, Note_on_c, 1, 59, 45
3, 5660, Note_off_c, 1, 59, 0
3, 5664, Note_on_c, 1, 62, 45
3, 5756, Note_off_c, 1, 62, 0
3, 5760, Note_on_c, 1, 57, 45
3, 5852, Note_off_c, 1, 57, 0
3, 5856, Note_on_c, 1, 62, 45
3, 5948, Note_off_c, 1, 62, 0
3, 5952, Note_on_c, 1, 60, 45
3, 6044, Note_off_c, 1, 60, 0
3, 6048, Note_on_c, 1, 62, 45
3, 6140, Note_off_c, 1, 62, 0
3, 6144, Note_on_c, 1, 57, 45
3, 6236, Note_off_c, 1, 57, 0
3, 6240, Note_on_c, 1, 62, 45
3, 6332, Note_off_c, 1, 62, 0
3, 6336, Note_on_c, 1, 60, 45
3, 6428, Note_off_c, 1, 60, 0
3, 6432, Note_on_c, 1, 62, 45
3, 6524, Note_off_c, 1, 62, 0
3, 6528, Note_on_c, 1, 57, 45
3, 6620, Note_off_c, 1, 57, 0
3, 6624, Note_on_c, 1, 62, 45
3, 6716, Note_off_c, 1, 62, 0
3, 6720, Note_on_c, 1, 60, 45
3, 6812, Note_off_c, 1, 60, 0
3, 6816, Note_on_c, 1, 62, 45
3, 6908, Note_off_c, 1, 62, 0
3, 6912, Note_on_c, 1, 55, 45
3, 7004, Note_off_c, 1, 55, 0
3, 7008, Note_on_c, 1, 62, 45
3, 7100, Note_off_c, 1, 62, 0
3, 7104, Note_on_c, 1, 59, 45
3, 7196, Note_off_c, 1, 59, 0
3, 7200, Note_on_c, 1, 62, 45
3, 7292, Note_off_c, 1, 62, 0
3, 7296, Note_on_c, 1, 52, 45
3, 7388, Note_off_c, 1, 52, 0
3, 7392, Note_on_c, 1, 59, 45
3, 7484, Note_off_c, 1, 59, 0
3, 7488, Note_on_c, 1, 55, 45
3, 7580, Note_off_c, 1, 55, 0
3, 7584, Note_on_c, 1, 59, 45
3, 7676, Note_off_c, 1, 59, 0
3, 7680, Note_on_c, 1, 47, 45
3, 7772, Note_off_c, 1, 47, 0
3, 7776, Note_on_c, 1, 55, 45
3, 7868, Note_off_c, 1, 55, 0
3, 7872, Note_on_c, 1, 50, 45
3, 7964, Note_off_c, 1, 50, 0
3, 7968, Note_on_c, 1, 55, 45
3, 8060, Note_off_c, 1, 55, 0
3, 8064, Note_on_c, 1, 52, 45
3, 8064, Note_on_c, 1, 48, 45
3, 8444, Note_off_c, 1, 52, 0
3, 8448, Note_on_c, 1, 55, 45
3, 8828, Note_off_c, 1, 48, 0
3, 8832, Note_on_c, 1, 52, 45
3, 9212, Note_off_c, 1, 55, 0
3, 9212, Note_off_c, 1, 52, 0
3, 9216, Note_on_c, 1, 50, 45
3, 9216, Note_on_c, 1, 55, 45
3, 9596, Note_off_c, 1, 55, 0
3, 9600, Note_on_c, 1, 54, 45
3, 9980, Note_off_c, 1, 50, 0
3, 9980, Note_off_c, 1, 54, 0
3, 10368, Note_on_c, 1, 55, 60
3, 10460, Note_off_c, 1, 55, 0
3, 10464, Note_on_c, 1, 62, 60
3, 10556, Note_off_c, 1, 62, 0
3, 10560, Note_on_c, 1, 59, 60
3, 10652, Note_off_c, 1, 59, 0
3, 10656, Note_on_c, 1, 62, 60
3, 10748, Note_off_c, 1, 62, 0
3, 10752, Note_on_c, 1, 55, 60
3, 10844, Note_off_c, 1, 55, 0
3, 10848, Note_on_c, 1, 62, 60
3, 10940, Note_off_c, 1, 62, 0
3, 10944, Note_on_c, 1, 59, 60
3, 11036, Note_off_c, 1, 59, 0
3, 11040, Note_on_c, 1, 62, 60
3, 11132, Note_off_c, 1, 62, 0
3, 11136, Note_on_c, 1, 55, 60
3, 11228, Note_off_c, 1, 55, 0
3, 11232, Note_on_c, 1, 62, 60
3, 11324, Note_off_c, 1, 62, 0
3, 11328, Note_on_c, 1, 60, 60
3, 11420, Note_off_c, 1, 60, 0
3, 11424, Note_on_c, 1, 62, 60
3, 11516, Note_off_c, 1, 62, 0
3, 11520, Note_on_c, 1, 55, 60
3, 11612, Note_off_c, 1, 55, 0
3, 11616, Note_on_c, 1, 62, 60
3, 11708, Note_off_c, 1, 62, 0
3, 11712, Note_on_c, 1, 59, 60
3, 11804, Note_off_c, 1, 59, 0
3, 11808, Note_on_c, 1, 62, 60
3, 11900, Note_off_c, 1, 62, 0
3, 11904, Note_on_c, 1, 55, 60
3, 11996, Note_off_c, 1, 55, 0
3, 12000, Note_on_c, 1, 62, 60
3, 12092, Note_off_c, 1, 62, 0
3, 12096, Note_on_c, 1, 59, 60
3, 12188, Note_off_c, 1, 59, 0
3, 12192, Note_on_c, 1, 62, 60
3, 12284, Note_off_c, 1, 62, 0
3, 12288, Note_on_c, 1, 55, 60
3, 12380, Note_off_c, 1, 55, 0
3, 12384, Note_on_c, 1, 62, 60
3, 12476, Note_off_c, 1, 62, 0
3, 12480, Note_on_c, 1, 59, 60
3, 12572, Note_off_c, 1, 59, 0
3, 12576, Note_on_c, 1, 62, 60
3, 12668, Note_off_c, 1, 62, 0
3, 12672, Note_on_c, 1, 55, 67
3, 12764, Note_off_c, 1, 55, 0
3, 12768, Note_on_c, 1, 64, 67
3, 12860, Note_off_c, 1, 64, 0
3, 12864, Note_on_c, 1, 60, 67
3, 12956, Note_off_c, 1, 60, 0
3, 12960, Note_on_c, 1, 64, 67
3, 13052, Note_off_c, 1, 64, 0
3, 13056, Note_on_c, 1, 55, 67
3, 13148, Note_off_c, 1, 55, 0
3, 13152, Note_on_c, 1, 64, 67
3, 13244, Note_off_c, 1, 64, 0
3, 13248, Note_on_c, 1, 60, 67
3, 13340, Note_off_c, 1, 60, 0
3, 13344, Note_on_c, 1, 64, 67
3, 13436, Note_off_c, 1, 64, 0
3, 13440, Note_on_c, 1, 55, 67
3, 13532, Note_off_c, 1, 55, 0
3, 13536, Note_on_c, 1, 61, 67
3, 13628, Note_off_c, 1, 61, 0
3, 13632, Note_on_c, 1, 58, 67
3, 13724, Note_off_c, 1, 58, 0
3, 13728, Note_on_c, 1, 61, 67
3, 13820, Note_off_c, 1, 61, 0
3, 13824, Note_on_c, 1, 55, 60
3, 13916, Note_off_c, 1, 55, 0
3, 13920, Note_on_c, 1, 62, 60
3, 14012, Note_off_c, 1, 62, 0
3, 14016, Note_on_c, 1, 59, 60
3, 14108, Note_off_c, 1, 59, 0
3, 14112, Note_on_c, 1, 62, 60
3, 14204, Note_off_c, 1, 62, 0
3, 14208, Note_on_c, 1, 55, 60
3, 14300, Note_off_c, 1, 55, 0
3, 14304, Note_on_c, 1, 62, 60
3, 14396, Note_off_c, 1, 62, 0
3, 14400, Note_on_c, 1, 59, 60
3, 14492, Note_off_c, 1, 59, 0
3, 14496, Note_on_c, 1, 62, 60
3, 14588, Note_off_c, 1, 62, 0
3, 14592, Note_on_c, 1, 55, 60
3, 14684, Note_off_c, 1, 55, 0
3, 14688, Note_on_c, 1, 62, 60
3, 14780, Note_off_c, 1, 62, 0
3, 14784, Note_on_c, 1, 59, 60
3, 14876, Note_off_c, 1, 59, 0
3, 14880, Note_on_c, 1, 62, 60
3, 14972, Note_off_c, 1, 62, 0
3, 14976, Note_on_c, 1, 57, 60
3, 15068, Note_off_c, 1, 57, 0
3, 15072, Note_on_c, 1, 62, 60
3, 15164, Note_off_c, 1, 62, 0
3, 15168, Note_on_c, 1, 60, 60
3, 15260, Note_off_c, 1, 60, 0
3, 15264, Note_on_c, 1, 62, 60
3, 15356, Note_off_c, 1, 62, 0
3, 15360, Note_on_c, 1, 57, 60
3, 15452, Note_off_c, 1, 57, 0
3, 15456, Note_on_c, 1, 62, 60
3, 15548, Note_off_c, 1, 62, 0
3, 15552, Note_on_c, 1, 60, 61
3, 15644, Note_off_c, 1, 60, 0
3, 15648, Note_on_c, 1, 62, 63
3, 15740, Note_off_c, 1, 62, 0
3, 15744, Note_on_c, 1, 57, 64
3, 15836, Note_off_c, 1, 57, 0
3, 15840, Note_on_c, 1, 62, 66
3, 15932, Note_off_c, 1, 62, 0
3, 15936, Note_on_c, 1, 60, 67
3, 16028, Note_off_c, 1, 60, 0
3, 16032, Note_on_c, 1, 62, 69
3, 16124, Note_off_c, 1, 62, 0
3, 16128, Note_on_c, 1, 55, 70
3, 16220, Note_off_c, 1, 55, 0
3, 16224, Note_on_c, 1, 62, 72
3, 16316, Note_off_c, 1, 62, 0
3, 16320, Note_on_c, 1, 59, 73
3, 16412, Note_off_c, 1, 59, 0
3, 16416, Note_on_c, 1, 62, 75
3, 16508, Note_off_c, 1, 62, 0
3, 16512, Note_on_c, 1, 52, 76
3, 16604, Note_off_c, 1, 52, 0
3, 16608, Note_on_c, 1, 59, 78
3, 16700, Note_off_c, 1, 59, 0
3, 16704, Note_on_c, 1, 55, 79
3, 16796, Note_off_c, 1, 55, 0
3, 16800, Note_on_c, 1, 59, 81
3, 16892, Note_off_c, 1, 59, 0
3, 16896, Note_on_c, 1, 47, 82
3, 16988, Note_off_c, 1, 47, 0
3, 16992, Note_on_c, 1, 55, 82
3, 17084, Note_off_c, 1, 55, 0
3, 17088, Note_on_c, 1, 50, 82
3, 17180, Note_off_c, 1, 50, 0
3, 17184, Note_on_c, 1, 55, 82
3, 17276, Note_off_c, 1, 55, 0
3, 17280, Note_on_c, 1, 48, 82
3, 17372, Note_off_c, 1, 48, 0
3, 17376, Note_on_c, 1, 57, 82
3, 17468, Note_off_c, 1, 57, 0
3, 17472, Note_on_c, 1, 52, 82
3, 17564, Note_off_c, 1, 52, 0
3, 17568, Note_on_c, 1, 57, 82
3, 17660, Note_off_c, 1, 57, 0
3, 17664, Note_on_c, 1, 50, 60
3, 17756, Note_off_c, 1, 50, 0
3, 17760, Note_on_c, 1, 59, 60
3, 17852, Note_off_c, 1, 59, 0
3, 17856, Note_on_c, 1, 55, 60
3, 17948, Note_off_c, 1, 55, 0
3, 17952, Note_on_c, 1, 59, 60
3, 18044, Note_off_c, 1, 59, 0
3, 18048, Note_on_c, 1, 50, 60
3, 18140, Note_off_c, 1, 50, 0
3, 18144, Note_on_c, 1, 60, 60
3, 18236, Note_off_c, 1, 60, 0
3, 18240, Note_on_c, 1, 57, 60
3, 18332, Note_off_c, 1, 57, 0
3, 18336, Note_on_c, 1, 60, 60
3, 18428, Note_off_c, 1, 60, 0
3, 18432, Note_on_c, 1, 60, 60
3, 18432, Note_on_c, 1, 55, 60
3, 18812, Note_off_c, 1, 60, 0
3, 18816, Note_on_c, 1, 59, 60
3, 19196, Note_off_c, 1, 55, 0
3, 19196, Note_off_c, 1, 59, 0
3, 19584, Note_on_c, 1, 55, 45
3, 19676, Note_off_c, 1, 55, 0
3, 19680, Note_on_c, 1, 62, 45
3, 19772, Note_off_c, 1, 62, 0
3, 19776, Note_on_c, 1, 59, 45
3, 19868, Note_off_c, 1, 59, 0
3, 19872, Note_on_c, 1, 62, 45
3, 19964, Note_off_c, 1, 62, 0
3, 19968, Note_on_c, 1, 55, 45
3, 20060, Note_off_c, 1, 55, 0
3, 20064, Note_on_c, 1, 62, 45
3, 20156, Note_off_c, 1, 62, 0
3, 20160, Note_on_c, 1, 59, 45
3, 20252, Note_off_c, 1, 59, 0
3, 20256, Note_on_c, 1, 62, 45
3, 20348, Note_off_c, 1, 62, 0
3, 20352, Note_on_c, 1, 55, 45
3, 20444, Note_off_c, 1, 55, 0
3, 20448, Note_on_c, 1, 62, 45
3, 20540, Note_off_c, 1, 62, 0
3, 20544, Note_on_c, 1, 60, 45
3, 20636, Note_off_c, 1, 60, 0
3, 20640, Note_on_c, 1, 62, 45
3, 20732, Note_off_c, 1, 62, 0
3, 20736, Note_on_c, 1, 55, 45
3, 20828, Note_off_c, 1, 55, 0
3, 20832, Note_on_c, 1, 62, 45
3, 20924, Note_off_c, 1, 62, 0
3, 20928, Note_on_c, 1, 59, 45
3, 21020, Note_off_c, 1, 59, 0
3, 21024, Note_on_c, 1, 62, 45
3, 21116, Note_off_c, 1, 62, 0
3, 21120, Note_on_c, 1, 55, 45
3, 21212, Note_off_c, 1, 55, 0
3, 21216, Note_on_c, 1, 62, 45
3, 21308, Note_off_c, 1, 62, 0
3, 21312, Note_on_c, 1, 59, 45
3, 21404, Note_off_c, 1, 59, 0
3, 21408, Note_on_c, 1, 62, 45
3, 21500, Note_off_c, 1, 62, 0
3, 21504, Note_on_c, 1, 55, 45
3, 21596, Note_off_c, 1, 55, 0
3, 21600, Note_on_c, 1, 62, 45
3, 21692, Note_off_c, 1, 62, 0
3, 21696, Note_on_c, 1, 59, 45
3, 21788, Note_off_c, 1, 59, 0
3, 21792, Note_on_c, 1, 62, 45
3, 21884, Note_off_c, 1, 62, 0
3, 21888, Note_on_c, 1, 55, 45
3, 21980, Note_off_c, 1, 55, 0
3, 21984, Note_on_c, 1, 64, 45
3, 22076, Note_off_c, 1, 64, 0
3, 22080, Note_on_c, 1, 60, 45
3, 22172, Note_off_c, 1, 60, 0
3, 22176, Note_on_c, 1, 64, 45
3, 22268, Note_off_c, 1, 64, 0
3, 22272, Note_on_c, 1, 55, 45
3, 22364, Note_off_c, 1, 55, 0
3, 22368, Note_on_c, 1, 64, 45
3, 22460, Note_off_c, 1, 64, 0
3, 22464, Note_on_c, 1, 60, 45
3, 22556, Note_off_c, 1, 60, 0
3, 22560, Note_on_c, 1, 64, 45
3, 22652, Note_off_c, 1, 64, 0
3, 22656, Note_on_c, 1, 55, 45
3, 22748, Note_off_c, 1, 55, 0
3, 22752, Note_on_c, 1, 61, 45
3, 22844, Note_off_c, 1, 61, 0
3, 22848, Note_on_c, 1, 58, 45
3, 22940, Note_off_c, 1, 58, 0
3, 22944, Note_on_c, 1, 61, 45
3, 23036, Note_off_c, 1, 61, 0
3, 23040, Note_on_c, 1, 55, 45
3, 23132, Note_off_c, 1, 55, 0
3, 23136, Note_on_c, 1, 62, 45
3, 23228, Note_off_c, 1, 62, 0
3, 23232, Note_on_c, 1, 59, 45
3, 23324, Note_off_c, 1, 59, 0
3, 23328, Note_on_c, 1, 62, 45
3, 23420, Note_off_c, 1, 62, 0
3, 23424, Note_on_c, 1, 55, 45
3, 23516, Note_off_c, 1, 55, 0
3, 23520, Note_on_c, 1, 62, 45
3, 23612, Note_off_c, 1, 62, 0
3, 23616, Note_on_c, 1, 59, 45
3, 23708, Note_off_c, 1, 59, 0
3, 23712, Note_on_c, 1, 62, 45
3, 23804, Note_off_c, 1, 62, 0
3, 23808, Note_on_c, 1, 55, 45
3, 23900, Note_off_c, 1, 55, 0
3, 23904, Note_on_c, 1, 62, 45
3, 23996, Note_off_c, 1, 62, 0
3, 24000, Note_on_c, 1, 59, 45
3, 24092, Note_off_c, 1, 59, 0
3, 24096, Note_on_c, 1, 62, 45
3, 24188, Note_off_c, 1, 62, 0
3, 24192, Note_on_c, 1, 57, 45
3, 24284, Note_off_c, 1, 57, 0
3, 24288, Note_on_c, 1, 62, 45
3, 24380, Note_off_c, 1, 62, 0
3, 24384, Note_on_c, 1, 60, 45
3, 24476, Note_off_c, 1, 60, 0
3, 24480, Note_on_c, 1, 62, 45
3, 24572, Note_off_c, 1, 62, 0
3, 24576, Note_on_c, 1, 57, 45
3, 24668, Note_off_c, 1, 57, 0
3, 24672, Note_on_c, 1, 62, 45
3, 24764, Note_off_c, 1, 62, 0
3, 24768, Note_on_c, 1, 60, 45
3, 24860, Note_off_c, 1, 60, 0
3, 24864, Note_on_c, 1, 62, 45
3, 24956, Note_off_c, 1, 62, 0
3, 24960, Note_on_c, 1, 57, 45
3, 25052, Note_off_c, 1, 57, 0
3, 25056, Note_on_c, 1, 62, 45
3, 25148, Note_off_c, 1, 62, 0
3, 25152, Note_on_c, 1, 60, 45
3, 25244, Note_off_c, 1, 60, 0
3, 25248, Note_on_c, 1, 62, 45
3, 25340, Note_off_c, 1, 62, 0
3, 25344, Note_on_c, 1, 55, 45
3, 25436, Note_off_c, 1, 55, 0
3, 25440, Note_on_c, 1, 62, 45
3, 25532, Note_off_c, 1, 62, 0
3, 25536, Note_on_c, 1, 59, 45
3, 25628, Note_off_c, 1, 59, 0
3, 25632, Note_on_c, 1, 62, 45
3, 25724, Note_off_c, 1, 62, 0
3, 25728, Note_on_c, 1, 52, 45
3, 25820, Note_off_c, 1, 52, 0
3, 25824, Note_on_c, 1, 59, 45
3, 25916, Note_off_c, 1, 59, 0
3, 25920, Note_on_c, 1, 55, 45
3, 26012, Note_off_c, 1, 55, 0
3, 26016, Note_on_c, 1, 59, 45
3, 26108, Note_off_c, 1, 59, 0
3, 26112, Note_on_c, 1, 47, 45
3, 26204, Note_off_c, 1, 47, 0
3, 26208, Note_on_c, 1, 55, 45
3, 26300, Note_off_c, 1, 55, 0
3, 26304, Note_on_c, 1, 50, 45
3, 26396, Note_off_c, 1, 50, 0
3, 26400, Note_on_c, 1, 55, 45
3, 26492, Note_off_c, 1, 55, 0
3, 26496, Note_on_c, 1, 52, 45
3, 26496, Note_on_c, 1, 48, 45
3, 26876, Note_off_c, 1, 52, 0
3, 26880, Note_on_c, 1, 55, 45
3, 27260, Note_off_c, 1, 48, 0
3, 27264, Note_on_c, 1, 52, 45
3, 27644, Note_off_c, 1, 55, 0
3, 27644, Note_off_c, 1, 52, 0
3, 27648, Note_on_c, 1, 50, 45
3, 27648, Note_on_c, 1, 55, 45
3, 28028, Note_off_c, 1, 55, 0
3, 28032, Note_on_c, 1, 54, 45
3, 28412, Note_off_c, 1, 50, 0
3, 28412, Note_off_c, 1, 54, 0
3, 28800, Note_on_c, 1, 55, 60
3, 28892, Note_off_c, 1, 55, 0
3, 28896, Note_on_c, 1, 62, 60
3, 28988, Note_off_c, 1, 62, 0
3, 28992, Note_on_c, 1, 59, 60
3, 29084, Note_off_c, 1, 59, 0
3, 29088, Note_on_c, 1, 62, 60
3, 29180, Note_off_c, 1, 62, 0
3, 29184, Note_on_c, 1, 55, 60
3, 29276, Note_off_c, 1, 55, 0
3, 29280, Note_on_c, 1, 62, 60
3, 29372, Note_off_c, 1, 62, 0
3, 29376, Note_on_c, 1, 59, 60
3, 29468, Note_off_c, 1, 59, 0
3, 29472, Note_on_c, 1, 62, 60
3, 29564, Note_off_c, 1, 62, 0
3, 29568, Note_on_c, 1, 55, 60
3, 29660, Note_off_c, 1, 55, 0
3, 29664, Note_on_c, 1, 62, 60
3, 29756, Note_off_c, 1, 62, 0
3, 29760, Note_on_c, 1, 60, 60
3, 29852, Note_off_c, 1, 60, 0
3, 29856, Note_on_c, 1, 62, 60
3, 29948, Note_off_c, 1, 62, 0
3, 29952, Note_on_c, 1, 55, 60
3, 30044, Note_off_c, 1, 55, 0
3, 30048, Note_on_c, 1, 62, 60
3, 30140, Note_off_c, 1, 62, 0
3, 30144, Note_on_c, 1, 59, 60
3, 30236, Note_off_c, 1, 59, 0
3, 30240, Note_on_c, 1, 62, 60
3, 30332, Note_off_c, 1, 62, 0
3, 30336, Note_on_c, 1, 55, 60
3, 30428, Note_off_c, 1, 55, 0
3, 30432, Note_on_c, 1, 62, 60
3, 30524, Note_off_c, 1, 62, 0
3, 30528, Note_on_c, 1, 59, 60
3, 30620, Note_off_c, 1, 59, 0
3, 30624, Note_on_c, 1, 62, 60
3, 30716, Note_off_c, 1, 62, 0
3, 30720, Note_on_c, 1, 55, 60
3, 30812, Note_off_c, 1, 55, 0
3, 30816, Note_on_c, 1, 62, 60
3, 30908, Note_off_c, 1, 62, 0
3, 30912, Note_on_c, 1, 59, 60
3, 31004, Note_off_c, 1, 59, 0
3, 31008, Note_on_c, 1, 62, 60
3, 31100, Note_off_c, 1, 62, 0
3, 31104, Note_on_c, 1, 55, 67
3, 31196, Note_off_c, 1, 55, 0
3, 31200, Note_on_c, 1, 64, 67
3, 31292, Note_off_c, 1, 64, 0
3, 31296, Note_on_c, 1, 60, 67
3, 31388, Note_off_c, 1, 60, 0
3, 31392, Note_on_c, 1, 64, 67
3, 31484, Note_off_c, 1, 64, 0
3, 31488, Note_on_c, 1, 55, 67
3, 31580, Note_off_c, 1, 55, 0
3, 31584, Note_on_c, 1, 64, 67
3, 31676, Note_off_c, 1, 64, 0
3, 31680, Note_on_c, 1, 60, 67
3, 31772, Note_off_c, 1, 60, 0
3, 31776, Note_on_c, 1, 64, 67
3, 31868, Note_off_c, 1, 64, 0
3, 31872, Note_on_c, 1, 55, 67
3, 31964, Note_off_c, 1, 55, 0
3, 31968, Note_on_c, 1, 61, 67
3, 32060, Note_off_c, 1, 61, 0
3, 32064, Note_on_c, 1, 58, 67
3, 32156, Note_off_c, 1, 58, 0
3, 32160, Note_on_c, 1, 61, 67
3, 32252, Note_off_c, 1, 61, 0
3, 32256, Note_on_c, 1, 55, 60
3, 32348, Note_off_c, 1, 55, 0
3, 32352, Note_on_c, 1, 62, 60
3, 32444, Note_off_c, 1, 62, 0
3, 32448, Note_on_c, 1, 59, 60
3, 32540, Note_off_c, 1, 59, 0
3, 32544, Note_on_c, 1, 62, 60
3, 32636, Note_off_c, 1, 62, 0
3, 32640, Note_on_c, 1, 55, 60
3, 32732, Note_off_c, 1, 55, 0
3, 32736, Note_on_c, 1, 62, 60
3, 32828, Note_off_c, 1, 62, 0
3, 32832, Note_on_c, 1, 59, 60
3, 32924, Note_off_c, 1, 59, 0
3, 32928, Note_on_c, 1, 62, 60
3, 33020, Note_off_c, 1, 62, 0
3, 33024, Note_on_c, 1, 55, 60
3, 33116, Note_off_c, 1, 55, 0
3, 33120, Note_on_c, 1, 62, 60
3, 33212, Note_off_c, 1, 62, 0
3, 33216, Note_on_c, 1, 59, 60
3, 33308, Note_off_c, 1, 59, 0
3, 33312, Note_on_c, 1, 62, 60
3, 33404, Note_off_c, 1, 62, 0
3, 33408, Note_on_c, 1, 57, 60
3, 33500, Note_off_c, 1, 57, 0
3, 33504, Note_on_c, 1, 62, 60
3, 33596, Note_off_c, 1, 62, 0
3, 33600, Note_on_c, 1, 60, 60
3, 33692, Note_off_c, 1, 60, 0
3, 33696, Note_on_c, 1, 62, 60
3, 33788, Note_off_c, 1, 62, 0
3, 33792, Note_on_c, 1, 57, 60
3, 33884, Note_off_c, 1, 57, 0
3, 33888, Note_on_c, 1, 62, 60
3, 33980, Note_off_c, 1, 62, 0
3, 33984, Note_on_c, 1, 60, 61
3, 34076, Note_off_c, 1, 60, 0
3, 34080, Note_on_c, 1, 62, 63
3, 34172, Note_off_c, 1, 62, 0
3, 34176, Note_on_c, 1, 57, 64
3, 34268, Note_off_c, 1, 57, 0
3, 34272, Note_on_c, 1, 62, 66
3, 34364, Note_off_c, 1, 62, 0
3, 34368, Note_on_c, 1, 60, 67
3, 34460, Note_off_c, 1, 60, 0
3, 34464, Note_on_c, 1, 62, 69
3, 34556, Note_off_c, 1, 62, 0
3, 34560, Note_on_c, 1, 55, 70
3, 34652, Note_off_c, 1, 55, 0
3, 34656, Note_on_c, 1, 62, 72
3, 34748, Note_off_c, 1, 62, 0
3, 34752, Note_on_c, 1, 59, 73
3, 34844, Note_off_c, 1, 59, 0
3, 34848, Note_on_c, 1, 62, 75
3, 34940, Note_off_c, 1, 62, 0
3, 34944, Note_on_c, 1, 52, 76
3, 35036, Note_off_c, 1, 52, 0
3, 35040, Note_on_c, 1, 59, 78
3, 35132, Note_off_c, 1, 59, 0
3, 35136, Note_on_c, 1, 55, 79
3, 35228, Note_off_c, 1, 55, 0
3, 35232, Note_on_c, 1, 59, 81
3, 35324, Note_off_c, 1, 59, 0
3, 35328, Note_on_c, 1, 47, 82
3, 35420, Note_off_c, 1, 47, 0
3, 35424, Note_on_c, 1, 55, 82
3, 35516, Note_off_c, 1, 55, 0
3, 35520, Note_on_c, 1, 50, 82
3, 35612, Note_off_c, 1, 50, 0
3, 35616, Note_on_c, 1, 55, 82
3, 35708, Note_off_c, 1, 55, 0
3, 35712, Note_on_c, 1, 48, 82
3, 35804, Note_off_c, 1, 48, 0
3, 35808, Note_on_c, 1, 57, 82
3, 35900, Note_off_c, 1, 57, 0
3, 35904, Note_on_c, 1, 52, 82
3, 35996, Note_off_c, 1, 52, 0
3, 36000, Note_on_c, 1, 57, 82
3, 36092, Note_off_c, 1, 57, 0
3, 36096, Note_on_c, 1, 50, 67
3, 36188, Note_off_c, 1, 50, 0
3, 36192, Note_on_c, 1, 59, 67
3, 36284, Note_off_c, 1, 59, 0
3, 36288, Note_on_c, 1, 55, 67
3, 36380, Note_off_c, 1, 55, 0
3, 36384, Note_on_c, 1, 59, 67
3, 36476, Note_off_c, 1, 59, 0
3, 36480, Note_on_c, 1, 50, 67
3, 36572, Note_off_c, 1, 50, 0
3, 36576, Note_on_c, 1, 60, 67
3, 36668, Note_off_c, 1, 60, 0
3, 36672, Note_on_c, 1, 57, 67
3, 36764, Note_off_c, 1, 57, 0
3, 36768, Note_on_c, 1, 60, 67
3, 36860, Note_off_c, 1, 60, 0
3, 36864, Note_on_c, 1, 60, 67
3, 36864, Note_on_c, 1, 55, 67
3, 37244, Note_off_c, 1, 60, 0
3, 37248, Note_on_c, 1, 59, 67
3, 37628, Note_off_c, 1, 55, 0
3, 37628, Note_off_c, 1, 59, 0
3, 42624, Note_on_c, 1, 57, 60
3, 42716, Note_off_c, 1, 57, 0
3, 42720, Note_on_c, 1, 66, 60
3, 42812, Note_off_c, 1, 66, 0
3, 42816, Note_on_c, 1, 62, 60
3, 42908, Note_off_c, 1, 62, 0
3, 42912, Note_on_c, 1, 66, 60
3, 43004, Note_off_c, 1, 66, 0
3, 43008, Note_on_c, 1, 55, 60
3, 43072, Note_on_c, 1, 64, 61
3, 43100, Note_off_c, 1, 55, 0
3, 43164, Note_off_c, 1, 64, 0
3, 43200, Note_on_c, 1, 61, 63
3, 43292, Note_off_c, 1, 61, 0
3, 43296, Note_on_c, 1, 64, 64
3, 43388, Note_off_c, 1, 64, 0
3, 43392, Note_on_c, 1, 54, 66
3, 43484, Note_off_c, 1, 54, 0
3, 43488, Note_on_c, 1, 62, 67
3, 43580, Note_off_c, 1, 62, 0
3, 43584, Note_on_c, 1, 57, 69
3, 43676, Note_off_c, 1, 57, 0
3, 43680, Note_on_c, 1, 62, 70
3, 43772, Note_off_c, 1, 62, 0
3, 43776, Note_on_c, 1, 59, 72
3, 43868, Note_off_c, 1, 59, 0
3, 43872, Note_on_c, 1, 67, 73
3, 43964, Note_off_c, 1, 67, 0
3, 43968, Note_on_c, 1, 64, 75
3, 44060, Note_off_c, 1, 64, 0
3, 44064, Note_on_c, 1, 67, 76
3, 44156, Note_off_c, 1, 67, 0
3, 44160, Note_on_c, 1, 57, 78
3, 44252, Note_off_c, 1, 57, 0
3, 44256, Note_on_c, 1, 66, 79
3, 44348, Note_off_c, 1, 66, 0
3, 44352, Note_on_c, 1, 63, 81
3, 44444, Note_off_c, 1, 63, 0
3, 44448, Note_on_c, 1, 66, 82
3, 44540, Note_off_c, 1, 66, 0
3, 44544, Note_on_c, 1, 55, 84
3, 44636, Note_off_c, 1, 55, 0
3, 44640, Note_on_c, 1, 64, 85
3, 44732, Note_off_c, 1, 64, 0
3, 44736, Note_on_c, 1, 59, 87
3, 44828, Note_off_c, 1, 59, 0
3, 44832, Note_on_c, 1, 64, 88
3, 44924, Note_off_c, 1, 64, 0
3, 47232, Note_on_c, 1, 55, 45
3, 47324, Note_off_c, 1, 55, 0
3, 47328, Note_on_c, 1, 62, 45
3, 47420, Note_off_c, 1, 62, 0
3, 47424, Note_on_c, 1, 59, 45
3, 47516, Note_off_c, 1, 59, 0
3, 47520, Note_on_c, 1, 62, 45
3, 47612, Note_off_c, 1, 62, 0
3, 47616, Note_on_c, 1, 55, 45
3, 47708, Note_off_c, 1, 55, 0
3, 47712, Note_on_c, 1, 62, 45
3, 47804, Note_off_c, 1, 62, 0
3, 47808, Note_on_c, 1, 59, 45
3, 47900, Note_off_c, 1, 59, 0
3, 47904, Note_on_c, 1, 62, 45
3, 47996, Note_off_c, 1, 62, 0
3, 48000, Note_on_c, 1, 57, 45
3, 48092, Note_off_c, 1, 57, 0
3, 48096, Note_on_c, 1, 62, 45
3, 48188, Note_off_c, 1, 62, 0
3, 48192, Note_on_c, 1, 60, 45
3, 48284, Note_off_c, 1, 60, 0
3, 48288, Note_on_c, 1, 62, 45
3, 48380, Note_off_c, 1, 62, 0
3, 48384, Note_on_c, 1, 55, 45
3, 48476, Note_off_c, 1, 55, 0
3, 48480, Note_on_c, 1, 62, 45
3, 48572, Note_off_c, 1, 62, 0
3, 48576, Note_on_c, 1, 59, 45
3, 48668, Note_off_c, 1, 59, 0
3, 48672, Note_on_c, 1, 62, 45
3, 48764, Note_off_c, 1, 62, 0
3, 48768, Note_on_c, 1, 55, 45
3, 48860, Note_off_c, 1, 55, 0
3, 48864, Note_on_c, 1, 62, 45
3, 48956, Note_off_c, 1, 62, 0
3, 48960, Note_on_c, 1, 59, 45
3, 49052, Note_off_c, 1, 59, 0
3, 49056, Note_on_c, 1, 62, 45
3, 49148, Note_off_c, 1, 62, 0
3, 49152, Note_on_c, 1, 55, 45
3, 49244, Note_off_c, 1, 55, 0
3, 49264, Note_on_c, 1, 62, 45
3, 49344, Note_on_c, 1, 59, 45
3, 49356, Note_off_c, 1, 62, 0
3, 49436, Note_off_c, 1, 59, 0
3, 49440, Note_on_c, 1, 62, 45
3, 49532, Note_off_c, 1, 62, 0
3, 49536, Note_on_c, 1, 55, 45
3, 49628, Note_off_c, 1, 55, 0
3, 49632, Note_on_c, 1, 64, 45
3, 49724, Note_off_c, 1, 64, 0
3, 49728, Note_on_c, 1, 60, 45
3, 49820, Note_off_c, 1, 60, 0
3, 49824, Note_on_c, 1, 64, 45
3, 49916, Note_off_c, 1, 64, 0
3, 49920, Note_on_c, 1, 55, 45
3, 50012, Note_off_c, 1, 55, 0
3, 50016, Note_on_c, 1, 64, 45
3, 50108, Note_off_c, 1, 64, 0
3, 50112, Note_on_c, 1, 60, 45
3, 50204, Note_off_c, 1, 60, 0
3, 50208, Note_on_c, 1, 64, 45
3, 50300, Note_off_c, 1, 64, 0
3, 50304, Note_on_c, 1, 55, 45
3, 50396, Note_off_c, 1, 55, 0
3, 50400, Note_on_c, 1, 60, 45
3, 50492, Note_off_c, 1, 60, 0
3, 50496, Note_on_c, 1, 57, 45
3, 50588, Note_off_c, 1, 57, 0
3, 50592, Note_on_c, 1, 60, 45
3, 50684, Note_off_c, 1, 60, 0
3, 50688, Note_on_c, 1, 55, 45
3, 50780, Note_off_c, 1, 55, 0
3, 50784, Note_on_c, 1, 62, 45
3, 50876, Note_off_c, 1, 62, 0
3, 50880, Note_on_c, 1, 57, 45
3, 50972, Note_off_c, 1, 57, 0
3, 50976, Note_on_c, 1, 62, 45
3, 51068, Note_off_c, 1, 62, 0
3, 51072, Note_on_c, 1, 55, 45
3, 51164, Note_off_c, 1, 55, 0
3, 51168, Note_on_c, 1, 62, 45
3, 51260, Note_off_c, 1, 62, 0
3, 51264, Note_on_c, 1, 59, 45
3, 51356, Note_off_c, 1, 59, 0
3, 51360, Note_on_c, 1, 62, 45
3, 51452, Note_off_c, 1, 62, 0
3, 51456, Note_on_c, 1, 55, 45
3, 51548, Note_off_c, 1, 55, 0
3, 51552, Note_on_c, 1, 62, 45
3, 51644, Note_off_c, 1, 62, 0
3, 51648, Note_on_c, 1, 59, 45
3, 51740, Note_off_c, 1, 59, 0
3, 51744, Note_on_c, 1, 62, 45
3, 51836, Note_off_c, 1, 62, 0
3, 51840, Note_on_c, 1, 57, 60
3, 51932, Note_off_c, 1, 57, 0
3, 51936, Note_on_c, 1, 62, 60
3, 52028, Note_off_c, 1, 62, 0
3, 52032, Note_on_c, 1, 60, 60
3, 52124, Note_off_c, 1, 60, 0
3, 52144, Note_on_c, 1, 62, 60
3, 52224, Note_on_c, 1, 57, 60
3, 52236, Note_off_c, 1, 62, 0
3, 52316, Note_off_c, 1, 57, 0
3, 52320, Note_on_c, 1, 62, 60
3, 52412, Note_off_c, 1, 62, 0
3, 52416, Note_on_c, 1, 60, 61
3, 52508, Note_off_c, 1, 60, 0
3, 52512, Note_on_c, 1, 62, 63
3, 52604, Note_off_c, 1, 62, 0
3, 52608, Note_on_c, 1, 57, 64
3, 52700, Note_off_c, 1, 57, 0
3, 52704, Note_on_c, 1, 62, 66
3, 52796, Note_off_c, 1, 62, 0
3, 52800, Note_on_c, 1, 60, 67
3, 52892, Note_off_c, 1, 60, 0
3, 52896, Note_on_c, 1, 62, 69
3, 52988, Note_off_c, 1, 62, 0
3, 52992, Note_on_c, 1, 55, 70
3, 53084, Note_off_c, 1, 55, 0
3, 53088, Note_on_c, 1, 62, 72
3, 53180, Note_off_c, 1, 62, 0
3, 53184, Note_on_c, 1, 59, 73
3, 53276, Note_off_c, 1, 59, 0
3, 53280, Note_on_c, 1, 62, 75
3, 53372, Note_off_c, 1, 62, 0
3, 53376, Note_on_c, 1, 52, 76
3, 53468, Note_off_c, 1, 52, 0
3, 53472, Note_on_c, 1, 59, 78
3, 53564, Note_off_c, 1, 59, 0
3, 53568, Note_on_c, 1, 55, 79
3, 53660, Note_off_c, 1, 55, 0
3, 53664, Note_on_c, 1, 59, 81
3, 53756, Note_off_c, 1, 59, 0
3, 53760, Note_on_c, 1, 47, 82
3, 53852, Note_off_c, 1, 47, 0
3, 53856, Note_on_c, 1, 55, 82
3, 53948, Note_off_c, 1, 55, 0
3, 53952, Note_on_c, 1, 50, 82
3, 54044, Note_off_c, 1, 50, 0
3, 54048, Note_on_c, 1, 55, 82
3, 54140, Note_off_c, 1, 55, 0
3, 54144, Note_on_c, 1, 48, 82
3, 54236, Note_off_c, 1, 48, 0
3, 54240, Note_on_c, 1, 57, 82
3, 54332, Note_off_c, 1, 57, 0
3, 54336, Note_on_c, 1, 52, 82
3, 54428, Note_off_c, 1, 52, 0
3, 54432, Note_on_c, 1, 57, 82
3, 54524, Note_off_c, 1, 57, 0
3, 54528, Note_on_c, 1, 50, 60
3, 54620, Note_off_c, 1, 50, 0
3, 54624, Note_on_c, 1, 59, 60
3, 54716, Note_off_c, 1, 59, 0
3, 54720, Note_on_c, 1, 55, 60
3, 54812, Note_off_c, 1, 55, 0
3, 54816, Note_on_c, 1, 59, 60
3, 54908, Note_off_c, 1, 59, 0
3, 54912, Note_on_c, 1, 50, 60
3, 55004, Note_off_c, 1, 50, 0
3, 55008, Note_on_c, 1, 60, 60
3, 55100, Note_off_c, 1, 60, 0
3, 55104, Note_on_c, 1, 57, 60
3, 55196, Note_off_c, 1, 57, 0
3, 55200, Note_on_c, 1, 60, 60
3, 55292, Note_off_c, 1, 60, 0
3, 55296, Note_on_c, 1, 60, 60
3, 55296, Note_on_c, 1, 55, 60
3, 55676, Note_off_c, 1, 60, 0
3, 55680, Note_on_c, 1, 59, 60
3, 56060, Note_off_c, 1, 55, 0
3, 56060, Note_off_c, 1, 59, 0
3, 61056, Note_on_c, 1, 57, 60
3, 61148, Note_off_c, 1, 57, 0
3, 61152, Note_on_c, 1, 66, 60
3, 61244, Note_off_c, 1, 66, 0
3, 61248, Note_on_c, 1, 62, 60
3, 61340, Note_off_c, 1, 62, 0
3, 61344, Note_on_c, 1, 66, 60
3, 61436, Note_off_c, 1, 66, 0
3, 61440, Note_on_c, 1, 55, 60
3, 61504, Note_on_c, 1, 64, 61
3, 61532, Note_off_c, 1, 55, 0
3, 61596, Note_off_c, 1, 64, 0
3, 61632, Note_on_c, 1, 61, 63
3, 61724, Note_off_c, 1, 61, 0
3, 61728, Note_on_c, 1, 64, 64
3, 61820, Note_off_c, 1, 64, 0
3, 61824, Note_on_c, 1, 54, 66
3, 61916, Note_off_c, 1, 54, 0
3, 61920, Note_on_c, 1, 62, 67
3, 62012, Note_off_c, 1, 62, 0
3, 62016, Note_on_c, 1, 57, 69
3, 62108, Note_off_c, 1, 57, 0
3, 62112, Note_on_c, 1, 62, 70
3, 62204, Note_off_c, 1, 62, 0
3, 62208, Note_on_c, 1, 59, 72
3, 62300, Note_off_c, 1, 59, 0
3, 62304, Note_on_c, 1, 67, 73
3, 62396, Note_off_c, 1, 67, 0
3, 62400, Note_on_c, 1, 64, 75
3, 62492, Note_off_c, 1, 64, 0
3, 62496, Note_on_c, 1, 67, 76
3, 62588, Note_off_c, 1, 67, 0
3, 62592, Note_on_c, 1, 57, 78
3, 62684, Note_off_c, 1, 57, 0
3, 62688, Note_on_c, 1, 66, 79
3, 62780, Note_off_c, 1, 66, 0
3, 62784, Note_on_c, 1, 63, 81
3, 62876, Note_off_c, 1, 63, 0
3, 62880, Note_on_c, 1, 66, 82
3, 62972, Note_off_c, 1, 66, 0
3, 62976, Note_on_c, 1, 55, 84
3, 63068, Note_off_c, 1, 55, 0
3, 63072, Note_on_c, 1, 64, 85
3, 63164, Note_off_c, 1, 64, 0
3, 63168, Note_on_c, 1, 59, 87
3, 63260, Note_off_c, 1, 59, 0
3, 63264, Note_on_c, 1, 64, 88
3, 63356, Note_off_c, 1, 64, 0
3, 65664, Note_on_c, 1, 55, 45
3, 65756, Note_off_c, 1, 55, 0
3, 65760, Note_on_c, 1, 62, 45
3, 65852, Note_off_c, 1, 62, 0
3, 65856, Note_on_c, 1, 59, 45
3, 65948, Note_off_c, 1, 59, 0
3, 65952, Note_on_c, 1, 62, 45
3, 66044, Note_off_c, 1, 62, 0
3, 66048, Note_on_c, 1, 55, 45
3, 66140, Note_off_c, 1, 55, 0
3, 66144, Note_on_c, 1, 62, 45
3, 66236, Note_off_c, 1, 62, 0
3, 66240, Note_on_c, 1, 59, 45
3, 66332, Note_off_c, 1, 59, 0
3, 66336, Note_on_c, 1, 62, 45
3, 66428, Note_off_c, 1, 62, 0
3, 66432, Note_on_c, 1, 57, 45
3, 66524, Note_off_c, 1, 57, 0
3, 66528, Note_on_c, 1, 62, 45
3, 66620, Note_off_c, 1, 62, 0
3, 66624, Note_on_c, 1, 60, 45
3, 66716, Note_off_c, 1, 60, 0
3, 66720, Note_on_c, 1, 62, 45
3, 66812, Note_off_c, 1, 62, 0
3, 66816, Note_on_c, 1, 55, 45
3, 66908, Note_off_c, 1, 55, 0
3, 66912, Note_on_c, 1, 62, 45
3, 67004, Note_off_c, 1, 62, 0
3, 67008, Note_on_c, 1, 59, 45
3, 67100, Note_off_c, 1, 59, 0
3, 67104, Note_on_c, 1, 62, 45
3, 67196, Note_off_c, 1, 62, 0
3, 67200, Note_on_c, 1, 55, 45
3, 67292, Note_off_c, 1, 55, 0
3, 67296, Note_on_c, 1, 62, 45
3, 67388, Note_off_c, 1, 62, 0
3, 67392, Note_on_c, 1, 59, 45
3, 67484, Note_off_c, 1, 59, 0
3, 67488, Note_on_c, 1, 62, 45
3, 67580, Note_off_c, 1, 62, 0
3, 67584, Note_on_c, 1, 55, 45
3, 67676, Note_off_c, 1, 55, 0
3, 67696, Note_on_c, 1, 62, 45
3, 67776, Note_on_c, 1, 59, 45
3, 67788, Note_off_c, 1, 62, 0
3, 67868, Note_off_c, 1, 59, 0
3, 67872, Note_on_c, 1, 62, 45
3, 67964, Note_off_c, 1, 62, 0
3, 67968, Note_on_c, 1, 55, 45
3, 68060, Note_off_c, 1, 55, 0
3, 68064, Note_on_c, 1, 64, 45
3, 68156, Note_off_c, 1, 64, 0
3, 68160, Note_on_c, 1, 60, 45
3, 68252, Note_off_c, 1, 60, 0
3, 68256, Note_on_c, 1, 64, 45
3, 68348, Note_off_c, 1, 64, 0
3, 68352, Note_on_c, 1, 55, 45
3, 68444, Note_off_c, 1, 55, 0
3, 68448, Note_on_c, 1, 64, 45
3, 68540, Note_off_c, 1, 64, 0
3, 68544, Note_on_c, 1, 60, 45
3, 68636, Note_off_c, 1, 60, 0
3, 68640, Note_on_c, 1, 64, 45
3, 68732, Note_off_c, 1, 64, 0
3, 68736, Note_on_c, 1, 55, 45
3, 68828, Note_off_c, 1, 55, 0
3, 68832, Note_on_c, 1, 60, 45
3, 68924, Note_off_c, 1, 60, 0
3, 68928, Note_on_c, 1, 57, 45
3, 69020, Note_off_c, 1, 57, 0
3, 69024, Note_on_c, 1, 60, 45
3, 69116, Note_off_c, 1, 60, 0
3, 69120, Note_on_c, 1, 55, 45
3, 69212, Note_off_c, 1, 55, 0
3, 69216, Note_on_c, 1, 62, 45
3, 69308, Note_off_c, 1, 62, 0
3, 69312, Note_on_c, 1, 57, 45
3, 69404, Note_off_c, 1, 57, 0
3, 69408, Note_on_c, 1, 62, 45
3, 69500, Note_off_c, 1, 62, 0
3, 69504, Note_on_c, 1, 55, 45
3, 69596, Note_off_c, 1, 55, 0
3, 69600, Note_on_c, 1, 62, 45
3, 69692, Note_off_c, 1, 62, 0
3, 69696, Note_on_c, 1, 59, 45
3, 69788, Note_off_c, 1, 59, 0
3, 69792, Note_on_c, 1, 62, 45
3, 69884, Note_off_c, 1, 62, 0
3, 69888, Note_on_c, 1, 55, 45
3, 69980, Note_off_c, 1, 55, 0
3, 69984, Note_on_c, 1, 62, 45
3, 70076, Note_off_c, 1, 62, 0
3, 70080, Note_on_c, 1, 59, 45
3, 70172, Note_off_c, 1, 59, 0
3, 70176, Note_on_c, 1, 62, 45
3, 70268, Note_off_c, 1, 62, 0
3, 70272, Note_on_c, 1, 57, 60
3, 70364, Note_off_c, 1, 57, 0
3, 70368, Note_on_c, 1, 62, 60
3, 70460, Note_off_c, 1, 62, 0
3, 70464, Note_on_c, 1, 60, 60
3, 70556, Note_off_c, 1, 60, 0
3, 70576, Note_on_c, 1, 62, 60
3, 70656, Note_on_c, 1, 57, 60
3, 70668, Note_off_c, 1, 62, 0
3, 70748, Note_off_c, 1, 57, 0
3, 70752, Note_on_c, 1, 62, 60
3, 70844, Note_off_c, 1, 62, 0
3, 70848, Note_on_c, 1, 60, 61
3, 70940, Note_off_c, 1, 60, 0
3, 70944, Note_on_c, 1, 62, 63
3, 71036, Note_off_c, 1, 62, 0
3, 71040, Note_on_c, 1, 57, 64
3, 71132, Note_off_c, 1, 57, 0
3, 71136, Note_on_c, 1, 62, 66
3, 71228, Note_off_c, 1, 62, 0
3, 71232, Note_on_c, 1, 60, 67
3, 71324, Note_off_c, 1, 60, 0
3, 71328, Note_on_c, 1, 62, 69
3, 71420, Note_off_c, 1, 62, 0
3, 71424, Note_on_c, 1, 55, 70
3, 71516, Note_off_c, 1, 55, 0
3, 71520, Note_on_c, 1, 62, 72
3, 71612, Note_off_c, 1, 62, 0
3, 71616, Note_on_c, 1, 59, 73
3, 71708, Note_off_c, 1, 59, 0
3, 71712, Note_on_c, 1, 62, 73
3, 71804, Note_off_c, 1, 62, 0
3, 71808, Note_on_c, 1, 52, 76
3, 71900, Note_off_c, 1, 52, 0
3, 71904, Note_on_c, 1, 59, 78
3, 71996, Note_off_c, 1, 59, 0
3, 72000, Note_on_c, 1, 55, 79
3, 72092, Note_off_c, 1, 55, 0
3, 72096, Note_on_c, 1, 59, 81
3, 72188, Note_off_c, 1, 59, 0
3, 72192, Note_on_c, 1, 47, 82
3, 72284, Note_off_c, 1, 47, 0
3, 72288, Note_on_c, 1, 55, 82
3, 72380, Note_off_c, 1, 55, 0
3, 72384, Note_on_c, 1, 50, 82
3, 72476, Note_off_c, 1, 50, 0
3, 72480, Note_on_c, 1, 55, 82
3, 72572, Note_off_c, 1, 55, 0
3, 72576, Note_on_c, 1, 48, 60
3, 72668, Note_off_c, 1, 48, 0
3, 72672, Note_on_c, 1, 57, 60
3, 72764, Note_off_c, 1, 57, 0
3, 72768, Note_on_c, 1, 52, 60
3, 72860, Note_off_c, 1, 52, 0
3, 72864, Note_on_c, 1, 57, 60
3, 72956, Note_off_c, 1, 57, 0
3, 72960, Note_on_c, 1, 50, 60
3, 73052, Note_off_c, 1, 50, 0
3, 73056, Note_on_c, 1, 59, 60
3, 73148, Note_off_c, 1, 59, 0
3, 73152, Note_on_c, 1, 55, 60
3, 73244, Note_off_c, 1, 55, 0
3, 73248, Note_on_c, 1, 59, 60
3, 73340, Note_off_c, 1, 59, 0
3, 73344, Note_on_c, 1, 50, 60
3, 73436, Note_off_c, 1, 50, 0
3, 73440, Note_on_c, 1, 60, 60
3, 73532, Note_off_c, 1, 60, 0
3, 73536, Note_on_c, 1, 57, 60
3, 73628, Note_off_c, 1, 57, 0
3, 73632, Note_on_c, 1, 60, 60
3, 73724, Note_off_c, 1, 60, 0
3, 73728, Note_on_c, 1, 60, 60
3, 73728, Note_on_c, 1, 55, 60
3, 74108, Note_off_c, 1, 60, 0
3, 74112, Note_on_c, 1, 59, 60
3, 74492, Note_off_c, 1, 55, 0
3, 74492, Note_off_c, 1, 59, 0
3, 74880, Note_on_c, 1, 55, 45
3, 74972, Note_off_c, 1, 55, 0
3, 74976, Note_on_c, 1, 62, 45
3, 75068, Note_off_c, 1, 62, 0
3, 75072, Note_on_c, 1, 58, 45
3, 75164, Note_off_c, 1, 58, 0
3, 75168, Note_on_c, 1, 62, 45
3, 75260, Note_off_c, 1, 62, 0
3, 75264, Note_on_c, 1, 55, 45
3, 75356, Note_off_c, 1, 55, 0
3, 75360, Note_on_c, 1, 62, 45
3, 75452, Note_off_c, 1, 62, 0
3, 75456, Note_on_c, 1, 58, 45
3, 75548, Note_off_c, 1, 58, 0
3, 75552, Note_on_c, 1, 62, 45
3, 75644, Note_off_c, 1, 62, 0
3, 75648, Note_on_c, 1, 57, 45
3, 75740, Note_off_c, 1, 57, 0
3, 75744, Note_on_c, 1, 62, 45
3, 75836, Note_off_c, 1, 62, 0
3, 75840, Note_on_c, 1, 60, 45
3, 75932, Note_off_c, 1, 60, 0
3, 75936, Note_on_c, 1, 62, 45
3, 76028, Note_off_c, 1, 62, 0
3, 76032, Note_on_c, 1, 55, 45
3, 76124, Note_off_c, 1, 55, 0
3, 76128, Note_on_c, 1, 62, 45
3, 76220, Note_off_c, 1, 62, 0
3, 76224, Note_on_c, 1, 58, 45
3, 76316, Note_off_c, 1, 58, 0
3, 76320, Note_on_c, 1, 62, 45
3, 76412, Note_off_c, 1, 62, 0
3, 76416, Note_on_c, 1, 55, 45
3, 76508, Note_off_c, 1, 55, 0
3, 76512, Note_on_c, 1, 62, 45
3, 76604, Note_off_c, 1, 62, 0
3, 76608, Note_on_c, 1, 58, 45
3, 76700, Note_off_c, 1, 58, 0
3, 76704, Note_on_c, 1, 62, 45
3, 76796, Note_off_c, 1, 62, 0
3, 76800, Note_on_c, 1, 55, 45
3, 76892, Note_off_c, 1, 55, 0
3, 76896, Note_on_c, 1, 62, 45
3, 76988, Note_off_c, 1, 62, 0
3, 76992, Note_on_c, 1, 58, 45
3, 77084, Note_off_c, 1, 58, 0
3, 77088, Note_on_c, 1, 62, 45
3, 77180, Note_off_c, 1, 62, 0
3, 77184, Note_on_c, 1, 54, 46
3, 77276, Note_off_c, 1, 54, 0
3, 77280, Note_on_c, 1, 62, 48
3, 77372, Note_off_c, 1, 62, 0
3, 77376, Note_on_c, 1, 57, 49
3, 77468, Note_off_c, 1, 57, 0
3, 77472, Note_on_c, 1, 62, 51
3, 77564, Note_off_c, 1, 62, 0
3, 77568, Note_on_c, 1, 54, 52
3, 77660, Note_off_c, 1, 54, 0
3, 77664, Note_on_c, 1, 62, 54
3, 77756, Note_off_c, 1, 62, 0
3, 77760, Note_on_c, 1, 57, 55
3, 77852, Note_off_c, 1, 57, 0
3, 77856, Note_on_c, 1, 62, 57
3, 77948, Note_off_c, 1, 62, 0
3, 77952, Note_on_c, 1, 50, 58
3, 78044, Note_off_c, 1, 50, 0
3, 78048, Note_on_c, 1, 62, 60
3, 78140, Note_off_c, 1, 62, 0
3, 78144, Note_on_c, 1, 54, 61
3, 78236, Note_off_c, 1, 54, 0
3, 78240, Note_on_c, 1, 62, 63
3, 78332, Note_off_c, 1, 62, 0
3, 78336, Note_on_c, 1, 55, 64
3, 78428, Note_off_c, 1, 55, 0
3, 78432, Note_on_c, 1, 62, 66
3, 78524, Note_off_c, 1, 62, 0
3, 78528, Note_on_c, 1, 58, 67
3, 78620, Note_off_c, 1, 58, 0
3, 78624, Note_on_c, 1, 62, 69
3, 78716, Note_off_c, 1, 62, 0
3, 78720, Note_on_c, 1, 55, 70
3, 78812, Note_off_c, 1, 55, 0
3, 78816, Note_on_c, 1, 62, 72
3, 78908, Note_off_c, 1, 62, 0
3, 78912, Note_on_c, 1, 58, 73
3, 79004, Note_off_c, 1, 58, 0
3, 79008, Note_on_c, 1, 62, 75
3, 79100, Note_off_c, 1, 62, 0
3, 79104, Note_on_c, 1, 55, 76
3, 79196, Note_off_c, 1, 55, 0
3, 79200, Note_on_c, 1, 63, 78
3, 79292, Note_off_c, 1, 63, 0
3, 79296, Note_on_c, 1, 58, 79
3, 79388, Note_off_c, 1, 58, 0
3, 79392, Note_on_c, 1, 63, 81
3, 79484, Note_off_c, 1, 63, 0
3, 79488, Note_on_c, 1, 57, 82
3, 79580, Note_off_c, 1, 57, 0
3, 79584, Note_on_c, 1, 65, 82
3, 79676, Note_off_c, 1, 65, 0
3, 79680, Note_on_c, 1, 60, 82
3, 79772, Note_off_c, 1, 60, 0
3, 79776, Note_on_c, 1, 65, 82
3, 79868, Note_off_c, 1, 65, 0
3, 79872, Note_on_c, 1, 57, 82
3, 79964, Note_off_c, 1, 57, 0
3, 79968, Note_on_c, 1, 65, 82
3, 80060, Note_off_c, 1, 65, 0
3, 80064, Note_on_c, 1, 60, 82
3, 80156, Note_off_c, 1, 60, 0
3, 80160, Note_on_c, 1, 65, 82
3, 80252, Note_off_c, 1, 65, 0
3, 80256, Note_on_c, 1, 57, 82
3, 80348, Note_off_c, 1, 57, 0
3, 80352, Note_on_c, 1, 65, 82
3, 80444, Note_off_c, 1, 65, 0
3, 80448, Note_on_c, 1, 60, 82
3, 80540, Note_off_c, 1, 60, 0
3, 80544, Note_on_c, 1, 65, 82
3, 80636, Note_off_c, 1, 65, 0
3, 80640, Note_on_c, 1, 58, 82
3, 80732, Note_off_c, 1, 58, 0
3, 80736, Note_on_c, 1, 65, 82
3, 80828, Note_off_c, 1, 65, 0
3, 80832, Note_on_c, 1, 62, 82
3, 80924, Note_off_c, 1, 62, 0
3, 80928, Note_on_c, 1, 65, 82
3, 81020, Note_off_c, 1, 65, 0
3, 81024, Note_on_c, 1, 55, 82
3, 81116, Note_off_c, 1, 55, 0
3, 81120, Note_on_c, 1, 62, 82
3, 81212, Note_off_c, 1, 62, 0
3, 81216, Note_on_c, 1, 58, 82
3, 81308, Note_off_c, 1, 58, 0
3, 81312, Note_on_c, 1, 62, 82
3, 81404, Note_off_c, 1, 62, 0
3, 81408, Note_on_c, 1, 50, 82
3, 81500, Note_off_c, 1, 50, 0
3, 81504, Note_on_c, 1, 58, 82
3, 81596, Note_off_c, 1, 58, 0
3, 81600, Note_on_c, 1, 53, 82
3, 81692, Note_off_c, 1, 53, 0
3, 81696, Note_on_c, 1, 58, 82
3, 81788, Note_off_c, 1, 58, 0
3, 81792, Note_on_c, 1, 51, 60
3, 81884, Note_off_c, 1, 51, 0
3, 81888, Note_on_c, 1, 60, 60
3, 81980, Note_off_c, 1, 60, 0
3, 81984, Note_on_c, 1, 55, 60
3, 82076, Note_off_c, 1, 55, 0
3, 82080, Note_on_c, 1, 60, 60
3, 82172, Note_off_c, 1, 60, 0
3, 82176, Note_on_c, 1, 53, 60
3, 82268, Note_off_c, 1, 53, 0
3, 82272, Note_on_c, 1, 62, 60
3, 82364, Note_off_c, 1, 62, 0
3, 82368, Note_on_c, 1, 58, 60
3, 82460, Note_off_c, 1, 58, 0
3, 82464, Note_on_c, 1, 62, 60
3, 82556, Note_off_c, 1, 62, 0
3, 82560, Note_on_c, 1, 53, 60
3, 82652, Note_off_c, 1, 53, 0
3, 82656, Note_on_c, 1, 63, 60
3, 82748, Note_off_c, 1, 63, 0
3, 82752, Note_on_c, 1, 60, 60
3, 82844, Note_off_c, 1, 60, 0
3, 82848, Note_on_c, 1, 63, 60
3, 82940, Note_off_c, 1, 63, 0
3, 82944, Note_on_c, 1, 63, 60
3, 82944, Note_on_c, 1, 58, 60
3, 83324, Note_off_c, 1, 63, 0
3, 83328, Note_on_c, 1, 62, 60
3, 83708, Note_off_c, 1, 58, 0
3, 83708, Note_off_c, 1, 62, 0
3, 84096, Note_on_c, 1, 56, 60
3, 84188, Note_off_c, 1, 56, 0
3, 84192, Note_on_c, 1, 65, 60
3, 84284, Note_off_c, 1, 65, 0
3, 84288, Note_on_c, 1, 60, 60
3, 84380, Note_off_c, 1, 60, 0
3, 84384, Note_on_c, 1, 65, 60
3, 84476, Note_off_c, 1, 65, 0
3, 84480, Note_on_c, 1, 55, 60
3, 84572, Note_off_c, 1, 55, 0
3, 84576, Note_on_c, 1, 62, 60
3, 84668, Note_off_c, 1, 62, 0
3, 84672, Note_on_c, 1, 59, 60
3, 84764, Note_off_c, 1, 59, 0
3, 84768, Note_on_c, 1, 62, 60
3, 84860, Note_off_c, 1, 62, 0
3, 84864, Note_on_c, 1, 53, 60
3, 84956, Note_off_c, 1, 53, 0
3, 84960, Note_on_c, 1, 62, 60
3, 85052, Note_off_c, 1, 62, 0
3, 85056, Note_on_c, 1, 55, 60
3, 85148, Note_off_c, 1, 55, 0
3, 85152, Note_on_c, 1, 62, 60
3, 85244, Note_off_c, 1, 62, 0
3, 85248, Note_on_c, 1, 51, 60
3, 85340, Note_off_c, 1, 51, 0
3, 85344, Note_on_c, 1, 60, 60
3, 85436, Note_off_c, 1, 60, 0
3, 85440, Note_on_c, 1, 55, 60
3, 85532, Note_off_c, 1, 55, 0
3, 85536, Note_on_c, 1, 60, 60
3, 85628, Note_off_c, 1, 60, 0
3, 85632, Note_on_c, 1, 50, 60
3, 85724, Note_off_c, 1, 50, 0
3, 85728, Note_on_c, 1, 59, 60
3, 85820, Note_off_c, 1, 59, 0
3, 85824, Note_on_c, 1, 53, 60
3, 85916, Note_off_c, 1, 53, 0
3, 85920, Note_on_c, 1, 59, 60
3, 86012, Note_off_c, 1, 59, 0
3, 86016, Note_on_c, 1, 48, 60
3, 86108, Note_off_c, 1, 48, 0
3, 86112, Note_on_c, 1, 60, 60
3, 86204, Note_off_c, 1, 60, 0
3, 86208, Note_on_c, 1, 51, 60
3, 86300, Note_off_c, 1, 51, 0
3, 86304, Note_on_c, 1, 60, 60
3, 86396, Note_off_c, 1, 60, 0
3, 86400, Note_on_c, 1, 49, 82
3, 86492, Note_off_c, 1, 49, 0
3, 86496, Note_on_c, 1, 58, 82
3, 86588, Note_off_c, 1, 58, 0
3, 86592, Note_on_c, 1, 52, 82
3, 86684, Note_off_c, 1, 52, 0
3, 86688, Note_on_c, 1, 58, 82
3, 86780, Note_off_c, 1, 58, 0
3, 86784, Note_on_c, 1, 50, 82
3, 86876, Note_off_c, 1, 50, 0
3, 86880, Note_on_c, 1, 58, 82
3, 86972, Note_off_c, 1, 58, 0
3, 86976, Note_on_c, 1, 55, 82
3, 87068, Note_off_c, 1, 55, 0
3, 87072, Note_on_c, 1, 58, 82
3, 87164, Note_off_c, 1, 58, 0
3, 87168, Note_on_c, 1, 51, 82
3, 87260, Note_off_c, 1, 51, 0
3, 87264, Note_on_c, 1, 58, 82
3, 87356, Note_off_c, 1, 58, 0
3, 87360, Note_on_c, 1, 55, 82
3, 87452, Note_off_c, 1, 55, 0
3, 87456, Note_on_c, 1, 58, 82
3, 87548, Note_off_c, 1, 58, 0
3, 87552, Note_on_c, 1, 50, 60
3, 87644, Note_off_c, 1, 50, 0
3, 87648, Note_on_c, 1, 58, 60
3, 87740, Note_off_c, 1, 58, 0
3, 87744, Note_on_c, 1, 55, 60
3, 87836, Note_off_c, 1, 55, 0
3, 87840, Note_on_c, 1, 58, 60
3, 87932, Note_off_c, 1, 58, 0
3, 87936, Note_on_c, 1, 50, 60
3, 88028, Note_off_c, 1, 50, 0
3, 88032, Note_on_c, 1, 57, 60
3, 88124, Note_off_c, 1, 57, 0
3, 88128, Note_on_c, 1, 54, 60
3, 88220, Note_off_c, 1, 54, 0
3, 88224, Note_on_c, 1, 57, 60
3, 88316, Note_off_c, 1, 57, 0
3, 88320, Note_on_c, 1, 50, 60
3, 88412, Note_off_c, 1, 50, 0
3, 88416, Note_on_c, 1, 57, 60
3, 88508, Note_off_c, 1, 57, 0
3, 88512, Note_on_c, 1, 54, 60
3, 88604, Note_off_c, 1, 54, 0
3, 88608, Note_on_c, 1, 57, 60
3, 88700, Note_off_c, 1, 57, 0
3, 88704, Note_on_c, 1, 48, 60
3, 88796, Note_off_c, 1, 48, 0
3, 88800, Note_on_c, 1, 57, 60
3, 88892, Note_off_c, 1, 57, 0
3, 88896, Note_on_c, 1, 54, 60
3, 88988, Note_off_c, 1, 54, 0
3, 88992, Note_on_c, 1, 57, 60
3, 89084, Note_off_c, 1, 57, 0
3, 89088, Note_on_c, 1, 48, 60
3, 89180, Note_off_c, 1, 48, 0
3, 89184, Note_on_c, 1, 57, 60
3, 89276, Note_off_c, 1, 57, 0
3, 89280, Note_on_c, 1, 54, 60
3, 89372, Note_off_c, 1, 54, 0
3, 89376, Note_on_c, 1, 57, 60
3, 89468, Note_off_c, 1, 57, 0
3, 89472, Note_on_c, 1, 48, 60
3, 89564, Note_off_c, 1, 48, 0
3, 89568, Note_on_c, 1, 57, 60
3, 89660, Note_off_c, 1, 57, 0
3, 89664, Note_on_c, 1, 54, 60
3, 89756, Note_off_c, 1, 54, 0
3, 89760, Note_on_c, 1, 57, 60
3, 89852, Note_off_c, 1, 57, 0
3, 89856, Note_on_c, 1, 46, 60
3, 89948, Note_off_c, 1, 46, 0
3, 89952, Note_on_c, 1, 55, 60
3, 90044, Note_off_c, 1, 55, 0
3, 90048, Note_on_c, 1, 50, 60
3, 90140, Note_off_c, 1, 50, 0
3, 90144, Note_on_c, 1, 55, 60
3, 90236, Note_off_c, 1, 55, 0
3, 90240, Note_on_c, 1, 46, 60
3, 90332, Note_off_c, 1, 46, 0
3, 90336, Note_on_c, 1, 55, 60
3, 90428, Note_off_c, 1, 55, 0
3, 90432, Note_on_c, 1, 50, 60
3, 90524, Note_off_c, 1, 50, 0
3, 90528, Note_on_c, 1, 55, 60
3, 90620, Note_off_c, 1, 55, 0
3, 90624, Note_on_c, 1, 46, 60
3, 90716, Note_off_c, 1, 46, 0
3, 90720, Note_on_c, 1, 55, 60
3, 90812, Note_off_c, 1, 55, 0
3, 90816, Note_on_c, 1, 50, 60
3, 90908, Note_off_c, 1, 50, 0
3, 90912, Note_on_c, 1, 55, 60
3, 91004, Note_off_c, 1, 55, 0
3, 91008, Note_on_c, 1, 48, 45
3, 91100, Note_off_c, 1, 48, 0
3, 91104, Note_on_c, 1, 57, 45
3, 91196, Note_off_c, 1, 57, 0
3, 91200, Note_on_c, 1, 52, 45
3, 91292, Note_off_c, 1, 52, 0
3, 91296, Note_on_c, 1, 57, 45
3, 91388, Note_off_c, 1, 57, 0
3, 91392, Note_on_c, 1, 50, 45
3, 91484, Note_off_c, 1, 50, 0
3, 91488, Note_on_c, 1, 59, 45
3, 91580, Note_off_c, 1, 59, 0
3, 91584, Note_on_c, 1, 55, 45
3, 91676, Note_off_c, 1, 55, 0
3, 91680, Note_on_c, 1, 59, 45
3, 91772, Note_off_c, 1, 59, 0
3, 91776, Note_on_c, 1, 50, 45
3, 91868, Note_off_c, 1, 50, 0
3, 91872, Note_on_c, 1, 60, 45
3, 91964, Note_off_c, 1, 60, 0
3, 91968, Note_on_c, 1, 57, 45
3, 92060, Note_off_c, 1, 57, 0
3, 92064, Note_on_c, 1, 60, 45
3, 92156, Note_off_c, 1, 60, 0
3, 92160, Note_on_c, 1, 60, 45
3, 92160, Note_on_c, 1, 55, 45
3, 92540, Note_off_c, 1, 60, 0
3, 92544, Note_on_c, 1, 58, 45
3, 92924, Note_off_c, 1, 55, 0
3, 92924, Note_off_c, 1, 58, 0
3, 93312, Note_on_c, 1, 55, 45
3, 93404, Note_off_c, 1, 55, 0
3, 93408, Note_on_c, 1, 62, 45
3, 93500, Note_off_c, 1, 62, 0
3, 93504, Note_on_c, 1, 59, 45
3, 93596, Note_off_c, 1, 59, 0
3, 93600, Note_on_c, 1, 62, 45
3, 93692, Note_off_c, 1, 62, 0
3, 93696, Note_on_c, 1, 55, 45
3, 93788, Note_off_c, 1, 55, 0
3, 93792, Note_on_c, 1, 62, 45
3, 93884, Note_off_c, 1, 62, 0
3, 93888, Note_on_c, 1, 59, 45
3, 93980, Note_off_c, 1, 59, 0
3, 93984, Note_on_c, 1, 62, 45
3, 94076, Note_off_c, 1, 62, 0
3, 94080, Note_on_c, 1, 57, 45
3, 94172, Note_off_c, 1, 57, 0
3, 94176, Note_on_c, 1, 62, 45
3, 94268, Note_off_c, 1, 62, 0
3, 94272, Note_on_c, 1, 60, 45
3, 94364, Note_off_c, 1, 60, 0
3, 94368, Note_on_c, 1, 62, 45
3, 94460, Note_off_c, 1, 62, 0
3, 94464, Note_on_c, 1, 55, 45
3, 94556, Note_off_c, 1, 55, 0
3, 94560, Note_on_c, 1, 62, 45
3, 94652, Note_off_c, 1, 62, 0
3, 94656, Note_on_c, 1, 59, 45
3, 94748, Note_off_c, 1, 59, 0
3, 94752, Note_on_c, 1, 62, 45
3, 94844, Note_off_c, 1, 62, 0
3, 94848, Note_on_c, 1, 55, 45
3, 94940, Note_off_c, 1, 55, 0
3, 94944, Note_on_c, 1, 62, 45
3, 95036, Note_off_c, 1, 62, 0
3, 95040, Note_on_c, 1, 59, 45
3, 95132, Note_off_c, 1, 59, 0
3, 95136, Note_on_c, 1, 62, 45
3, 95228, Note_off_c, 1, 62, 0
3, 95232, Note_on_c, 1, 55, 45
3, 95324, Note_off_c, 1, 55, 0
3, 95328, Note_on_c, 1, 62, 45
3, 95420, Note_off_c, 1, 62, 0
3, 95424, Note_on_c, 1, 59, 45
3, 95516, Note_off_c, 1, 59, 0
3, 95520, Note_on_c, 1, 62, 45
3, 95612, Note_off_c, 1, 62, 0
3, 95616, Note_on_c, 1, 55, 45
3, 95708, Note_off_c, 1, 55, 0
3, 95712, Note_on_c, 1, 64, 45
3, 95804, Note_off_c, 1, 64, 0
3, 95808, Note_on_c, 1, 60, 45
3, 95900, Note_off_c, 1, 60, 0
3, 95904, Note_on_c, 1, 64, 45
3, 95996, Note_off_c, 1, 64, 0
3, 96000, Note_on_c, 1, 55, 45
3, 96092, Note_off_c, 1, 55, 0
3, 96096, Note_on_c, 1, 64, 45
3, 96188, Note_off_c, 1, 64, 0
3, 96192, Note_on_c, 1, 60, 45
3, 96284, Note_off_c, 1, 60, 0
3, 96288, Note_on_c, 1, 64, 45
3, 96380, Note_off_c, 1, 64, 0
3, 96384, Note_on_c, 1, 55, 45
3, 96476, Note_off_c, 1, 55, 0
3, 96480, Note_on_c, 1, 61, 45
3, 96572, Note_off_c, 1, 61, 0
3, 96576, Note_on_c, 1, 58, 45
3, 96668, Note_off_c, 1, 58, 0
3, 96672, Note_on_c, 1, 61, 45
3, 96764, Note_off_c, 1, 61, 0
3, 96768, Note_on_c, 1, 55, 45
3, 96860, Note_off_c, 1, 55, 0
3, 96864, Note_on_c, 1, 62, 45
3, 96956, Note_off_c, 1, 62, 0
3, 96960, Note_on_c, 1, 59, 45
3, 97052, Note_off_c, 1, 59, 0
3, 97056, Note_on_c, 1, 62, 45
3, 97148, Note_off_c, 1, 62, 0
3, 97152, Note_on_c, 1, 55, 45
3, 97244, Note_off_c, 1, 55, 0
3, 97248, Note_on_c, 1, 62, 45
3, 97340, Note_off_c, 1, 62, 0
3, 97344, Note_on_c, 1, 59, 45
3, 97436, Note_off_c, 1, 59, 0
3, 97440, Note_on_c, 1, 62, 45
3, 97532, Note_off_c, 1, 62, 0
3, 97536, Note_on_c, 1, 55, 45
3, 97628, Note_off_c, 1, 55, 0
3, 97632, Note_on_c, 1, 62, 45
3, 97724, Note_off_c, 1, 62, 0
3, 97728, Note_on_c, 1, 59, 45
3, 97820, Note_off_c, 1, 59, 0
3, 97824, Note_on_c, 1, 62, 45
3, 97916, Note_off_c, 1, 62, 0
3, 97920, Note_on_c, 1, 57, 45
3, 98012, Note_off_c, 1, 57, 0
3, 98016, Note_on_c, 1, 62, 45
3, 98108, Note_off_c, 1, 62, 0
3, 98112, Note_on_c, 1, 60, 45
3, 98204, Note_off_c, 1, 60, 0
3, 98208, Note_on_c, 1, 62, 45
3, 98300, Note_off_c, 1, 62, 0
3, 98304, Note_on_c, 1, 57, 45
3, 98384, Note_on_c, 1, 62, 45
3, 98396, Note_off_c, 1, 57, 0
3, 98476, Note_off_c, 1, 62, 0
3, 98496, Note_on_c, 1, 60, 45
3, 98588, Note_off_c, 1, 60, 0
3, 98592, Note_on_c, 1, 62, 45
3, 98684, Note_off_c, 1, 62, 0
3, 98688, Note_on_c, 1, 57, 45
3, 98768, Note_on_c, 1, 62, 45
3, 98780, Note_off_c, 1, 57, 0
3, 98860, Note_off_c, 1, 62, 0
3, 98880, Note_on_c, 1, 60, 45
3, 98972, Note_off_c, 1, 60, 0
3, 98976, Note_on_c, 1, 62, 45
3, 99068, Note_off_c, 1, 62, 0
3, 99072, Note_on_c, 1, 55, 45
3, 99164, Note_off_c, 1, 55, 0
3, 99168, Note_on_c, 1, 62, 45
3, 99260, Note_off_c, 1, 62, 0
3, 99264, Note_on_c, 1, 59, 45
3, 99356, Note_off_c, 1, 59, 0
3, 99360, Note_on_c, 1, 62, 45
3, 99452, Note_off_c, 1, 62, 0
3, 99456, Note_on_c, 1, 52, 45
3, 99548, Note_off_c, 1, 52, 0
3, 99552, Note_on_c, 1, 59, 45
3, 99644, Note_off_c, 1, 59, 0
3, 99648, Note_on_c, 1, 55, 45
3, 99740, Note_off_c, 1, 55, 0
3, 99744, Note_on_c, 1, 59, 45
3, 99836, Note_off_c, 1, 59, 0
3, 99840, Note_on_c, 1, 47, 45
3, 99932, Note_off_c, 1, 47, 0
3, 99936, Note_on_c, 1, 55, 45
3, 100028, Note_off_c, 1, 55, 0
3, 100032, Note_on_c, 1, 50, 45
3, 100124, Note_off_c, 1, 50, 0
3, 100128, Note_on_c, 1, 55, 45
3, 100220, Note_off_c, 1, 55, 0
3, 100224, Note_on_c, 1, 52, 45
3, 100224, Note_on_c, 1, 48, 45
3, 100604, Note_off_c, 1, 52, 0
3, 100608, Note_on_c, 1, 55, 45
3, 100988, Note_off_c, 1, 48, 0
3, 100992, Note_on_c, 1, 52, 45
3, 101372, Note_off_c, 1, 55, 0
3, 101372, Note_off_c, 1, 52, 0
3, 101376, Note_on_c, 1, 55, 45
3, 101376, Note_on_c, 1, 50, 45
3, 101756, Note_off_c, 1, 55, 0
3, 101760, Note_on_c, 1, 54, 45
3, 102140, Note_off_c, 1, 50, 0
3, 102140, Note_off_c, 1, 54, 0
3, 102528, Note_on_c, 1, 55, 60
3, 102620, Note_off_c, 1, 55, 0
3, 102624, Note_on_c, 1, 62, 60
3, 102716, Note_off_c, 1, 62, 0
3, 102720, Note_on_c, 1, 59, 60
3, 102812, Note_off_c, 1, 59, 0
3, 102816, Note_on_c, 1, 62, 60
3, 102908, Note_off_c, 1, 62, 0
3, 102912, Note_on_c, 1, 55, 60
3, 103004, Note_off_c, 1, 55, 0
3, 103008, Note_on_c, 1, 62, 60
3, 103100, Note_off_c, 1, 62, 0
3, 103104, Note_on_c, 1, 59, 60
3, 103196, Note_off_c, 1, 59, 0
3, 103200, Note_on_c, 1, 62, 60
3, 103292, Note_off_c, 1, 62, 0
3, 103296, Note_on_c, 1, 57, 60
3, 103388, Note_off_c, 1, 57, 0
3, 103392, Note_on_c, 1, 62, 60
3, 103484, Note_off_c, 1, 62, 0
3, 103488, Note_on_c, 1, 60, 60
3, 103580, Note_off_c, 1, 60, 0
3, 103584, Note_on_c, 1, 62, 60
3, 103676, Note_off_c, 1, 62, 0
3, 103680, Note_on_c, 1, 55, 60
3, 103772, Note_off_c, 1, 55, 0
3, 103776, Note_on_c, 1, 62, 60
3, 103868, Note_off_c, 1, 62, 0
3, 103872, Note_on_c, 1, 59, 60
3, 103964, Note_off_c, 1, 59, 0
3, 103968, Note_on_c, 1, 62, 60
3, 104060, Note_off_c, 1, 62, 0
3, 104064, Note_on_c, 1, 55, 60
3, 104156, Note_off_c, 1, 55, 0
3, 104160, Note_on_c, 1, 62, 60
3, 104252, Note_off_c, 1, 62, 0
3, 104256, Note_on_c, 1, 59, 60
3, 104348, Note_off_c, 1, 59, 0
3, 104352, Note_on_c, 1, 62, 60
3, 104444, Note_off_c, 1, 62, 0
3, 104448, Note_on_c, 1, 55, 60
3, 104540, Note_off_c, 1, 55, 0
3, 104544, Note_on_c, 1, 62, 60
3, 104636, Note_off_c, 1, 62, 0
3, 104640, Note_on_c, 1, 59, 60
3, 104732, Note_off_c, 1, 59, 0
3, 104736, Note_on_c, 1, 62, 60
3, 104828, Note_off_c, 1, 62, 0
3, 104832, Note_on_c, 1, 55, 67
3, 104924, Note_off_c, 1, 55, 0
3, 104928, Note_on_c, 1, 64, 67
3, 105020, Note_off_c, 1, 64, 0
3, 105024, Note_on_c, 1, 60, 67
3, 105116, Note_off_c, 1, 60, 0
3, 105120, Note_on_c, 1, 64, 67
3, 105212, Note_off_c, 1, 64, 0
3, 105216, Note_on_c, 1, 55, 67
3, 105308, Note_off_c, 1, 55, 0
3, 105312, Note_on_c, 1, 64, 67
3, 105404, Note_off_c, 1, 64, 0
3, 105408, Note_on_c, 1, 60, 67
3, 105500, Note_off_c, 1, 60, 0
3, 105504, Note_on_c, 1, 64, 67
3, 105596, Note_off_c, 1, 64, 0
3, 105600, Note_on_c, 1, 55, 67
3, 105692, Note_off_c, 1, 55, 0
3, 105696, Note_on_c, 1, 61, 67
3, 105788, Note_off_c, 1, 61, 0
3, 105792, Note_on_c, 1, 58, 67
3, 105884, Note_off_c, 1, 58, 0
3, 105888, Note_on_c, 1, 61, 67
3, 105980, Note_off_c, 1, 61, 0
3, 105984, Note_on_c, 1, 55, 60
3, 106076, Note_off_c, 1, 55, 0
3, 106080, Note_on_c, 1, 62, 60
3, 106172, Note_off_c, 1, 62, 0
3, 106176, Note_on_c, 1, 59, 60
3, 106268, Note_off_c, 1, 59, 0
3, 106272, Note_on_c, 1, 62, 60
3, 106364, Note_off_c, 1, 62, 0
3, 106368, Note_on_c, 1, 55, 60
3, 106460, Note_off_c, 1, 55, 0
3, 106464, Note_on_c, 1, 62, 60
3, 106556, Note_off_c, 1, 62, 0
3, 106560, Note_on_c, 1, 59, 60
3, 106652, Note_off_c, 1, 59, 0
3, 106656, Note_on_c, 1, 62, 60
3, 106748, Note_off_c, 1, 62, 0
3, 106752, Note_on_c, 1, 55, 60
3, 106844, Note_off_c, 1, 55, 0
3, 106848, Note_on_c, 1, 62, 60
3, 106940, Note_off_c, 1, 62, 0
3, 106944, Note_on_c, 1, 59, 60
3, 107036, Note_off_c, 1, 59, 0
3, 107040, Note_on_c, 1, 62, 60
3, 107132, Note_off_c, 1, 62, 0
3, 107136, Note_on_c, 1, 57, 60
3, 107228, Note_off_c, 1, 57, 0
3, 107232, Note_on_c, 1, 62, 60
3, 107324, Note_off_c, 1, 62, 0
3, 107328, Note_on_c, 1, 60, 60
3, 107420, Note_off_c, 1, 60, 0
3, 107424, Note_on_c, 1, 62, 60
3, 107516, Note_off_c, 1, 62, 0
3, 107520, Note_on_c, 1, 57, 64
3, 107612, Note_off_c, 1, 57, 0
3, 107616, Note_on_c, 1, 62, 67
3, 107708, Note_off_c, 1, 62, 0
3, 107712, Note_on_c, 1, 60, 70
3, 107804, Note_off_c, 1, 60, 0
3, 107808, Note_on_c, 1, 62, 73
3, 107900, Note_off_c, 1, 62, 0
3, 107904, Note_on_c, 1, 57, 76
3, 107996, Note_off_c, 1, 57, 0
3, 108000, Note_on_c, 1, 62, 79
3, 108092, Note_off_c, 1, 62, 0
3, 108096, Note_on_c, 1, 60, 82
3, 108188, Note_off_c, 1, 60, 0
3, 108192, Note_on_c, 1, 62, 85
3, 108284, Note_off_c, 1, 62, 0
3, 108288, Note_on_c, 1, 55, 60
3, 108380, Note_off_c, 1, 55, 0
3, 108384, Note_on_c, 1, 62, 60
3, 108476, Note_off_c, 1, 62, 0
3, 108480, Note_on_c, 1, 59, 60
3, 108572, Note_off_c, 1, 59, 0
3, 108576, Note_on_c, 1, 62, 60
3, 108668, Note_off_c, 1, 62, 0
3, 108672, Note_on_c, 1, 48, 60
3, 108764, Note_off_c, 1, 48, 0
3, 108768, Note_on_c, 1, 59, 60
3, 108860, Note_off_c, 1, 59, 0
3, 108864, Note_on_c, 1, 55, 60
3, 108956, Note_off_c, 1, 55, 0
3, 108960, Note_on_c, 1, 59, 60
3, 109052, Note_off_c, 1, 59, 0
3, 109056, Note_on_c, 1, 47, 82
3, 109148, Note_off_c, 1, 47, 0
3, 109152, Note_on_c, 1, 55, 82
3, 109244, Note_off_c, 1, 55, 0
3, 109248, Note_on_c, 1, 50, 82
3, 109340, Note_off_c, 1, 50, 0
3, 109344, Note_on_c, 1, 55, 82
3, 109436, Note_off_c, 1, 55, 0
3, 109440, Note_on_c, 1, 48, 60
3, 109532, Note_off_c, 1, 48, 0
3, 109536, Note_on_c, 1, 57, 60
3, 109628, Note_off_c, 1, 57, 0
3, 109632, Note_on_c, 1, 52, 60
3, 109724, Note_off_c, 1, 52, 0
3, 109728, Note_on_c, 1, 57, 60
3, 109820, Note_off_c, 1, 57, 0
3, 109824, Note_on_c, 1, 50, 60
3, 109916, Note_off_c, 1, 50, 0
3, 109920, Note_on_c, 1, 59, 60
3, 110012, Note_off_c, 1, 59, 0
3, 110016, Note_on_c, 1, 55, 60
3, 110108, Note_off_c, 1, 55, 0
3, 110112, Note_on_c, 1, 59, 60
3, 110204, Note_off_c, 1, 59, 0
3, 110208, Note_on_c, 1, 50, 60
3, 110300, Note_off_c, 1, 50, 0
3, 110304, Note_on_c, 1, 60, 60
3, 110396, Note_off_c, 1, 60, 0
3, 110400, Note_on_c, 1, 57, 60
3, 110492, Note_off_c, 1, 57, 0
3, 110496, Note_on_c, 1, 60, 60
3, 110588, Note_off_c, 1, 60, 0
3, 110592, Note_on_c, 1, 59, 45
3, 110592, Note_on_c, 1, 55, 45
3, 110972, Note_off_c, 1, 59, 0
3, 110972, Note_off_c, 1, 55, 0
3, 114432, Note_on_c, 1, 50, 45
3, 114524, Note_off_c, 1, 50, 0
3, 114528, Note_on_c, 1, 59, 45
3, 114620, Note_off_c, 1, 59, 0
3, 114624, Note_on_c, 1, 55, 45
3, 114716, Note_off_c, 1, 55, 0
3, 114720, Note_on_c, 1, 59, 45
3, 114812, Note_off_c, 1, 59, 0
3, 114816, Note_on_c, 1, 50, 45
3, 114908, Note_off_c, 1, 50, 0
3, 114912, Note_on_c, 1, 60, 45
3, 115004, Note_off_c, 1, 60, 0
3, 115008, Note_on_c, 1, 57, 45
3, 115100, Note_off_c, 1, 57, 0
3, 115104, Note_on_c, 1, 60, 45
3, 115196, Note_off_c, 1, 60, 0
3, 115200, Note_on_c, 1, 59, 60
3, 115200, Note_on_c, 1, 55, 60
3, 115580, Note_off_c, 1, 59, 0
3, 115580, Note_off_c, 1, 55, 0
3, 116352, Note_on_c, 1, 45, 82
3, 116444, Note_off_c, 1, 45, 0
3, 116448, Note_on_c, 1, 53, 82
3, 116540, Note_off_c, 1, 53, 0
3, 116544, Note_on_c, 1, 48, 82
3, 116636, Note_off_c, 1, 48, 0
3, 116640, Note_on_c, 1, 53, 82
3, 116732, Note_off_c, 1, 53, 0
3, 116736, Note_on_c, 1, 47, 82
3, 116828, Note_off_c, 1, 47, 0
3, 116832, Note_on_c, 1, 55, 82
3, 116924, Note_off_c, 1, 55, 0
3, 116928, Note_on_c, 1, 50, 82
3, 117020, Note_off_c, 1, 50, 0
3, 117024, Note_on_c, 1, 55, 82
3, 117116, Note_off_c, 1, 55, 0
3, 117120, Note_on_c, 1, 43, 82
3, 117212, Note_off_c, 1, 43, 0
3, 117216, Note_on_c, 1, 55, 82
3, 117308, Note_off_c, 1, 55, 0
3, 117312, Note_on_c, 1, 47, 82
3, 117404, Note_off_c, 1, 47, 0
3, 117408, Note_on_c, 1, 55, 82
3, 117500, Note_off_c, 1, 55, 0
3, 117504, Note_on_c, 1, 48, 67
3, 117596, Note_off_c, 1, 48, 0
3, 117600, Note_on_c, 1, 55, 67
3, 117692, Note_off_c, 1, 55, 0
3, 117696, Note_on_c, 1, 52, 67
3, 117788, Note_off_c, 1, 52, 0
3, 117792, Note_on_c, 1, 55, 67
3, 117884, Note_off_c, 1, 55, 0
3, 117888, Note_on_c, 1, 48, 67
3, 117980, Note_off_c, 1, 48, 0
3, 117984, Note_on_c, 1, 57, 67
3, 118076, Note_off_c, 1, 57, 0
3, 118080, Note_on_c, 1, 51, 67
3, 118172, Note_off_c, 1, 51, 0
3, 118176, Note_on_c, 1, 57, 67
3, 118268, Note_off_c, 1, 57, 0
3, 118272, Note_on_c, 1, 49, 67
3, 118364, Note_off_c, 1, 49, 0
3, 118368, Note_on_c, 1, 58, 67
3, 118460, Note_off_c, 1, 58, 0
3, 118464, Note_on_c, 1, 52, 67
3, 118556, Note_off_c, 1, 52, 0
3, 118560, Note_on_c, 1, 58, 67
3, 118652, Note_off_c, 1, 58, 0
3, 118656, Note_on_c, 1, 50, 67
3, 118748, Note_off_c, 1, 50, 0
3, 118752, Note_on_c, 1, 59, 67
3, 118844, Note_off_c, 1, 59, 0
3, 118848, Note_on_c, 1, 55, 67
3, 118940, Note_off_c, 1, 55, 0
3, 118944, Note_on_c, 1, 59, 67
3, 119036, Note_off_c, 1, 59, 0
3, 119040, Note_on_c, 1, 50, 67
3, 119132, Note_off_c, 1, 50, 0
3, 119136, Note_on_c, 1, 59, 67
3, 119228, Note_off_c, 1, 59, 0
3, 119232, Note_on_c, 1, 55, 67
3, 119324, Note_off_c, 1, 55, 0
3, 119328, Note_on_c, 1, 59, 67
3, 119420, Note_off_c, 1, 59, 0
3, 119424, Note_on_c, 1, 50, 67
3, 119516, Note_off_c, 1, 50, 0
3, 119520, Note_on_c, 1, 60, 67
3, 119612, Note_off_c, 1, 60, 0
3, 119616, Note_on_c, 1, 57, 67
3, 119708, Note_off_c, 1, 57, 0
3, 119712, Note_on_c, 1, 60, 67
3, 119804, Note_off_c, 1, 60, 0
3, 119808, Note_on_c, 1, 59, 60
3, 119808, Note_on_c, 1, 55, 60
3, 120188, Note_off_c, 1, 59, 0
3, 120188, Note_off_c, 1, 55, 0
3, 120768, Note_on_c, 1, 60, 60
3, 120768, Note_on_c, 1, 50, 60
3, 120956, Note_off_c, 1, 60, 0
3, 120956, Note_off_c, 1, 50, 0
3, 120960, Note_on_c, 1, 59, 45
3, 120960, Note_on_c, 1, 55, 45
3, 121340, Note_off_c, 1, 59, 0
3, 121340, Note_off_c, 1, 55, 0
3, 121728, Note_on_c, 1, 60, 45
3, 121728, Note_on_c, 1, 50, 45
3, 122108, Note_off_c, 1, 60, 0
3, 122108, Note_off_c, 1, 50, 0
3, 122112, Note_on_c, 1, 59, 45
3, 122112, Note_on_c, 1, 55, 45
3, 122300, Note_off_c, 1, 59, 0
3, 122300, Note_off_c, 1, 55, 0
3, 122496, Note_on_c, 1, 43, 45
3, 122684, Note_off_c, 1, 43, 0
3, 122684, End_track
4, 0, Start_track
4, 0, Title_t, "K545-b -Andante"
4, 0, Key_signature, 1, "major"
4, 0, End_track
5, 0, Start_track
5, 0, Title_t, "by Bob"
5, 0, Key_signature, 1, "major"
5, 0, End_track
6, 0, Start_track
6, 0, Title_t, "Fisher"
6, 0, Key_signature, 1, "major"
6, 0, End_track
7, 0, Start_track
7, 0, Key_signature, 1, "major"
7, 0, End_track
8, 0, Start_track
8, 0, Key_signature, 1, "major"
8, 0, End_track
9, 0, Start_track
9, 0, Key_signature, 1, "major"
9, 0, End_track
10, 0, Start_track
10, 0, Key_signature, 1, "major"
10, 0, End_track
11, 0, Start_track
11, 0, Key_signature, 1, "major"
11, 0, End_track
12, 0, Start_track
12, 0, Key_signature, 1, "major"
12, 0, End_track
13, 0, Start_track
13, 0, Key_signature, 1, "major"
13, 0, End_track
14, 0, Start_track
14, 0, Key_signature, 1, "major"
14, 0, End_track
15, 0, Start_track
15, 0, Key_signature, 1, "major"
15, 0, End_track
16, 0, Start_track
16, 0, Key_signature, 1, "major"
16, 0, End_track
0, 0, End_of_file
