0, 0, Header, 1, 17, 384
1, 0, Start_track
1, 0, Time_signature, 3, 3, 96, 8
1, 0, Sequencer_specific, 3, 0, 0, 65
1, 0, Tempo, 923076
1, 0, End_track
2, 0, Start_track
2, 0, Title_t, "Mozart - Piano"
2, 0, Control_c, 0, 0, 0
2, 0, Program_c, 0, 0
2, 0, Control_c, 0, 7, 115
2, 0, Control_c, 0, 10, 79
2, 0, Control_c, 0, 91, 35
2, 0, Control_c, 0, 93, 36
2, 0, Key_signature, -1, "minor"
2, 0, Control_c, 0, 121, 0
2, 48, Control_c, 0, 10, 73
2, 72, Control_c, 0, 91, 63
2, 96, Control_c, 0, 93, 40
2, 144, Program_c, 0, 0
2, 624, Note_on_c, 0, 84, 90
2, 670, Note_off_c, 0, 84, 0
2, 672, Note_on_c, 0, 83, 90
2, 718, Note_off_c, 0, 83, 0
2, 720, Note_on_c, 0, 84, 90
2, 766, Note_off_c, 0, 84, 0
2, 768, Note_on_c, 0, 89, 90
2, 814, Note_off_c, 0, 89, 0
2, 816, Note_on_c, 0, 84, 90
2, 862, Note_off_c, 0, 84, 0
2, 864, Note_on_c, 0, 82, 90
2, 910, Note_off_c, 0, 82, 0
2, 912, Note_on_c, 0, 81, 90
2, 958, Note_off_c, 0, 81, 0
2, 960, Note_on_c, 0, 80, 90
2, 1006, Note_off_c, 0, 80, 0
2, 1008, Note_on_c, 0, 81, 90
2, 1054, Note_off_c, 0, 81, 0
2, 1056, Note_on_c, 0, 84, 90
2, 1102, Note_off_c, 0, 84, 0
2, 1104, Note_on_c, 0, 81, 90
2, 1150, Note_off_c, 0, 81, 0
2, 1152, Note_on_c, 0, 79, 90
2, 1198, Note_off_c, 0, 79, 0
2, 1200, Note_on_c, 0, 77, 90
2, 1246, Note_off_c, 0, 77, 0
2, 1248, Note_on_c, 0, 76, 90
2, 1294, Note_off_c, 0, 76, 0
2, 1296, Note_on_c, 0, 77, 90
2, 1342, Note_off_c, 0, 77, 0
2, 1344, Note_on_c, 0, 81, 90
2, 1390, Note_off_c, 0, 81, 0
2, 1392, Note_on_c, 0, 77, 90
2, 1438, Note_off_c, 0, 77, 0
2, 1440, Note_on_c, 0, 74, 90
2, 1486, Note_off_c, 0, 74, 0
2, 1488, Note_on_c, 0, 72, 90
2, 1534, Note_off_c, 0, 72, 0
2, 1536, Note_on_c, 0, 71, 90
2, 1582, Note_off_c, 0, 71, 0
2, 1584, Note_on_c, 0, 72, 90
2, 1630, Note_off_c, 0, 72, 0
2, 1632, Note_on_c, 0, 77, 90
2, 1678, Note_off_c, 0, 77, 0
2, 1680, Note_on_c, 0, 72, 90
2, 1726, Note_off_c, 0, 72, 0
2, 1728, Note_on_c, 0, 70, 90
2, 1774, Note_off_c, 0, 70, 0
2, 1776, Note_on_c, 0, 69, 90
2, 1822, Note_off_c, 0, 69, 0
2, 1824, Note_on_c, 0, 68, 90
2, 1870, Note_off_c, 0, 68, 0
2, 1872, Note_on_c, 0, 69, 90
2, 1918, Note_off_c, 0, 69, 0
2, 1920, Note_on_c, 0, 72, 90
2, 1966, Note_off_c, 0, 72, 0
2, 1968, Note_on_c, 0, 69, 90
2, 2014, Note_off_c, 0, 69, 0
2, 2016, Note_on_c, 0, 65, 90
2, 2062, Note_off_c, 0, 65, 0
2, 2064, Note_on_c, 0, 77, 90
2, 2110, Note_off_c, 0, 77, 0
2, 2112, Note_on_c, 0, 64, 90
2, 2158, Note_off_c, 0, 64, 0
2, 2160, Note_on_c, 0, 77, 90
2, 2206, Note_off_c, 0, 77, 0
2, 2208, Note_on_c, 0, 65, 90
2, 2254, Note_off_c, 0, 65, 0
2, 2256, Note_on_c, 0, 77, 90
2, 2302, Note_off_c, 0, 77, 0
2, 2304, Note_on_c, 0, 67, 90
2, 2350, Note_off_c, 0, 67, 0
2, 2352, Note_on_c, 0, 77, 90
2, 2398, Note_off_c, 0, 77, 0
2, 2400, Note_on_c, 0, 65, 90
2, 2446, Note_off_c, 0, 65, 0
2, 2448, Note_on_c, 0, 77, 90
2, 2494, Note_off_c, 0, 77, 0
2, 2496, Note_on_c, 0, 67, 90
2, 2542, Note_off_c, 0, 67, 0
2, 2544, Note_on_c, 0, 77, 90
2, 2590, Note_off_c, 0, 77, 0
2, 2592, Note_on_c, 0, 69, 90
2, 2638, Note_off_c, 0, 69, 0
2, 2640, Note_on_c, 0, 77, 90
2, 2686, Note_off_c, 0, 77, 0
2, 2688, Note_on_c, 0, 67, 90
2, 2734, Note_off_c, 0, 67, 0
2, 2736, Note_on_c, 0, 77, 90
2, 2782, Note_off_c, 0, 77, 0
2, 2784, Note_on_c, 0, 69, 90
2, 2830, Note_off_c, 0, 69, 0
2, 2832, Note_on_c, 0, 77, 90
2, 2878, Note_off_c, 0, 77, 0
2, 2880, Note_on_c, 0, 70, 99
2, 2926, Note_off_c, 0, 70, 0
2, 2928, Note_on_c, 0, 77, 93
2, 2974, Note_off_c, 0, 77, 0
2, 2976, Note_on_c, 0, 70, 87
2, 3022, Note_off_c, 0, 70, 0
2, 3024, Note_on_c, 0, 77, 84
2, 3070, Note_off_c, 0, 77, 0
2, 3072, Note_on_c, 0, 69, 81
2, 3118, Note_off_c, 0, 69, 0
2, 3120, Note_on_c, 0, 77, 78
2, 3166, Note_off_c, 0, 77, 0
2, 3168, Note_on_c, 0, 70, 99
2, 3214, Note_off_c, 0, 70, 0
2, 3216, Note_on_c, 0, 77, 93
2, 3262, Note_off_c, 0, 77, 0
2, 3264, Note_on_c, 0, 70, 87
2, 3310, Note_off_c, 0, 70, 0
2, 3312, Note_on_c, 0, 77, 84
2, 3358, Note_off_c, 0, 77, 0
2, 3360, Note_on_c, 0, 69, 81
2, 3406, Note_off_c, 0, 69, 0
2, 3408, Note_on_c, 0, 77, 78
2, 3454, Note_off_c, 0, 77, 0
2, 3456, Note_on_c, 0, 69, 60
2, 3502, Note_off_c, 0, 69, 0
2, 3504, Note_on_c, 0, 77, 60
2, 3550, Note_off_c, 0, 77, 0
2, 3552, Note_on_c, 0, 69, 60
2, 3598, Note_off_c, 0, 69, 0
2, 3600, Note_on_c, 0, 77, 60
2, 3646, Note_off_c, 0, 77, 0
2, 3648, Note_on_c, 0, 69, 60
2, 3694, Note_off_c, 0, 69, 0
2, 3696, Note_on_c, 0, 77, 60
2, 3742, Note_off_c, 0, 77, 0
2, 3744, Note_on_c, 0, 76, 60
2, 3744, Note_on_c, 0, 67, 60
2, 3838, Note_off_c, 0, 76, 0
2, 3838, Note_off_c, 0, 67, 0
2, 4080, Note_on_c, 0, 84, 90
2, 4126, Note_off_c, 0, 84, 0
2, 4128, Note_on_c, 0, 83, 90
2, 4174, Note_off_c, 0, 83, 0
2, 4176, Note_on_c, 0, 84, 90
2, 4222, Note_off_c, 0, 84, 0
2, 4224, Note_on_c, 0, 89, 90
2, 4270, Note_off_c, 0, 89, 0
2, 4272, Note_on_c, 0, 84, 90
2, 4318, Note_off_c, 0, 84, 0
2, 4320, Note_on_c, 0, 82, 90
2, 4366, Note_off_c, 0, 82, 0
2, 4368, Note_on_c, 0, 81, 90
2, 4414, Note_off_c, 0, 81, 0
2, 4416, Note_on_c, 0, 80, 90
2, 4462, Note_off_c, 0, 80, 0
2, 4464, Note_on_c, 0, 81, 90
2, 4510, Note_off_c, 0, 81, 0
2, 4512, Note_on_c, 0, 84, 90
2, 4558, Note_off_c, 0, 84, 0
2, 4560, Note_on_c, 0, 81, 90
2, 4606, Note_off_c, 0, 81, 0
2, 4608, Note_on_c, 0, 79, 90
2, 4654, Note_off_c, 0, 79, 0
2, 4656, Note_on_c, 0, 77, 90
2, 4702, Note_off_c, 0, 77, 0
2, 4704, Note_on_c, 0, 76, 90
2, 4750, Note_off_c, 0, 76, 0
2, 4752, Note_on_c, 0, 77, 90
2, 4798, Note_off_c, 0, 77, 0
2, 4800, Note_on_c, 0, 81, 90
2, 4846, Note_off_c, 0, 81, 0
2, 4848, Note_on_c, 0, 77, 90
2, 4894, Note_off_c, 0, 77, 0
2, 4896, Note_on_c, 0, 74, 90
2, 4942, Note_off_c, 0, 74, 0
2, 4944, Note_on_c, 0, 72, 90
2, 4990, Note_off_c, 0, 72, 0
2, 4992, Note_on_c, 0, 71, 90
2, 5038, Note_off_c, 0, 71, 0
2, 5040, Note_on_c, 0, 72, 90
2, 5086, Note_off_c, 0, 72, 0
2, 5088, Note_on_c, 0, 77, 90
2, 5134, Note_off_c, 0, 77, 0
2, 5136, Note_on_c, 0, 72, 90
2, 5182, Note_off_c, 0, 72, 0
2, 5184, Note_on_c, 0, 70, 90
2, 5230, Note_off_c, 0, 70, 0
2, 5232, Note_on_c, 0, 69, 90
2, 5278, Note_off_c, 0, 69, 0
2, 5280, Note_on_c, 0, 68, 90
2, 5326, Note_off_c, 0, 68, 0
2, 5328, Note_on_c, 0, 69, 90
2, 5374, Note_off_c, 0, 69, 0
2, 5376, Note_on_c, 0, 72, 90
2, 5422, Note_off_c, 0, 72, 0
2, 5424, Note_on_c, 0, 69, 90
2, 5470, Note_off_c, 0, 69, 0
2, 5472, Note_on_c, 0, 65, 90
2, 5518, Note_off_c, 0, 65, 0
2, 5520, Note_on_c, 0, 77, 90
2, 5566, Note_off_c, 0, 77, 0
2, 5568, Note_on_c, 0, 64, 90
2, 5614, Note_off_c, 0, 64, 0
2, 5616, Note_on_c, 0, 77, 90
2, 5662, Note_off_c, 0, 77, 0
2, 5664, Note_on_c, 0, 65, 90
2, 5710, Note_off_c, 0, 65, 0
2, 5712, Note_on_c, 0, 77, 90
2, 5758, Note_off_c, 0, 77, 0
2, 5760, Note_on_c, 0, 67, 90
2, 5806, Note_off_c, 0, 67, 0
2, 5808, Note_on_c, 0, 77, 90
2, 5854, Note_off_c, 0, 77, 0
2, 5856, Note_on_c, 0, 65, 90
2, 5902, Note_off_c, 0, 65, 0
2, 5904, Note_on_c, 0, 77, 90
2, 5950, Note_off_c, 0, 77, 0
2, 5952, Note_on_c, 0, 67, 90
2, 5998, Note_off_c, 0, 67, 0
2, 6000, Note_on_c, 0, 77, 90
2, 6046, Note_off_c, 0, 77, 0
2, 6048, Note_on_c, 0, 69, 90
2, 6094, Note_off_c, 0, 69, 0
2, 6096, Note_on_c, 0, 77, 90
2, 6142, Note_off_c, 0, 77, 0
2, 6144, Note_on_c, 0, 67, 90
2, 6190, Note_off_c, 0, 67, 0
2, 6192, Note_on_c, 0, 77, 90
2, 6238, Note_off_c, 0, 77, 0
2, 6240, Note_on_c, 0, 69, 90
2, 6286, Note_off_c, 0, 69, 0
2, 6288, Note_on_c, 0, 77, 90
2, 6334, Note_off_c, 0, 77, 0
2, 6336, Note_on_c, 0, 70, 99
2, 6382, Note_off_c, 0, 70, 0
2, 6384, Note_on_c, 0, 77, 93
2, 6430, Note_off_c, 0, 77, 0
2, 6432, Note_on_c, 0, 70, 87
2, 6478, Note_off_c, 0, 70, 0
2, 6480, Note_on_c, 0, 77, 84
2, 6526, Note_off_c, 0, 77, 0
2, 6528, Note_on_c, 0, 69, 81
2, 6574, Note_off_c, 0, 69, 0
2, 6576, Note_on_c, 0, 77, 78
2, 6622, Note_off_c, 0, 77, 0
2, 6624, Note_on_c, 0, 70, 99
2, 6670, Note_off_c, 0, 70, 0
2, 6672, Note_on_c, 0, 77, 93
2, 6718, Note_off_c, 0, 77, 0
2, 6720, Note_on_c, 0, 70, 87
2, 6766, Note_off_c, 0, 70, 0
2, 6768, Note_on_c, 0, 77, 84
2, 6814, Note_off_c, 0, 77, 0
2, 6816, Note_on_c, 0, 69, 81
2, 6862, Note_off_c, 0, 69, 0
2, 6864, Note_on_c, 0, 77, 78
2, 6910, Note_off_c, 0, 77, 0
2, 6912, Note_on_c, 0, 68, 60
2, 6958, Note_off_c, 0, 68, 0
2, 6960, Note_on_c, 0, 77, 60
2, 7006, Note_off_c, 0, 77, 0
2, 7200, Note_on_c, 0, 67, 60
2, 7246, Note_off_c, 0, 67, 0
2, 7248, Note_on_c, 0, 76, 60
2, 7294, Note_off_c, 0, 76, 0
2, 7488, Note_on_c, 0, 66, 60
2, 7534, Note_off_c, 0, 66, 0
2, 7536, Note_on_c, 0, 75, 60
2, 7582, Note_off_c, 0, 75, 0
2, 7872, Note_on_c, 0, 62, 90
2, 7918, Note_off_c, 0, 62, 0
2, 7920, Note_on_c, 0, 67, 90
2, 7966, Note_off_c, 0, 67, 0
2, 7968, Note_on_c, 0, 70, 90
2, 8014, Note_off_c, 0, 70, 0
2, 8016, Note_on_c, 0, 74, 90
2, 8062, Note_off_c, 0, 74, 0
2, 8064, Note_on_c, 0, 72, 90
2, 8110, Note_off_c, 0, 72, 0
2, 8112, Note_on_c, 0, 70, 90
2, 8158, Note_off_c, 0, 70, 0
2, 8160, Note_on_c, 0, 69, 90
2, 8206, Note_off_c, 0, 69, 0
2, 8208, Note_on_c, 0, 67, 90
2, 8254, Note_off_c, 0, 67, 0
2, 8256, Note_on_c, 0, 65, 90
2, 8302, Note_off_c, 0, 65, 0
2, 8304, Note_on_c, 0, 64, 90
2, 8350, Note_off_c, 0, 64, 0
2, 8352, Note_on_c, 0, 65, 90
2, 8446, Note_off_c, 0, 65, 0
2, 8448, Note_on_c, 0, 60, 60
2, 8542, Note_off_c, 0, 60, 0
2, 8544, Note_on_c, 0, 60, 60
2, 8638, Note_off_c, 0, 60, 0
2, 8640, Note_on_c, 0, 64, 60
2, 8662, Note_off_c, 0, 64, 0
2, 8664, Note_on_c, 0, 70, 60
2, 8928, Note_on_c, 0, 70, 60
2, 8950, Note_off_c, 0, 70, 0
2, 9022, Note_off_c, 0, 70, 0
2, 9024, Note_on_c, 0, 69, 60
2, 9118, Note_off_c, 0, 69, 0
2, 9120, Note_on_c, 0, 67, 60
2, 9214, Note_off_c, 0, 67, 0
2, 9216, Note_on_c, 0, 67, 60
2, 9238, Note_off_c, 0, 67, 0
2, 9240, Note_on_c, 0, 65, 60
2, 9504, Note_on_c, 0, 65, 60
2, 9526, Note_off_c, 0, 65, 0
2, 9790, Note_off_c, 0, 65, 0
2, 9792, Note_on_c, 0, 64, 60
2, 9814, Note_off_c, 0, 64, 0
2, 9816, Note_on_c, 0, 70, 60
2, 10080, Note_on_c, 0, 70, 60
2, 10102, Note_off_c, 0, 70, 0
2, 10174, Note_off_c, 0, 70, 0
2, 10176, Note_on_c, 0, 69, 60
2, 10270, Note_off_c, 0, 69, 0
2, 10272, Note_on_c, 0, 67, 60
2, 10366, Note_off_c, 0, 67, 0
2, 10368, Note_on_c, 0, 71, 90
2, 10654, Note_off_c, 0, 71, 0
2, 10656, Note_on_c, 0, 72, 60
2, 10750, Note_off_c, 0, 72, 0
2, 10944, Note_on_c, 0, 64, 60
2, 10966, Note_off_c, 0, 64, 0
2, 10968, Note_on_c, 0, 70, 60
2, 11232, Note_on_c, 0, 70, 60
2, 11254, Note_off_c, 0, 70, 0
2, 11326, Note_off_c, 0, 70, 0
2, 11328, Note_on_c, 0, 69, 60
2, 11422, Note_off_c, 0, 69, 0
2, 11424, Note_on_c, 0, 67, 60
2, 11518, Note_off_c, 0, 67, 0
2, 11520, Note_on_c, 0, 65, 60
2, 11710, Note_off_c, 0, 65, 0
2, 11712, Note_on_c, 0, 69, 90
2, 11806, Note_off_c, 0, 69, 0
2, 11808, Note_on_c, 0, 69, 60
2, 11998, Note_off_c, 0, 69, 0
2, 12000, Note_on_c, 0, 72, 90
2, 12094, Note_off_c, 0, 72, 0
2, 12096, Note_on_c, 0, 72, 60
2, 12286, Note_off_c, 0, 72, 0
2, 12288, Note_on_c, 0, 72, 90
2, 12382, Note_off_c, 0, 72, 0
2, 12384, Note_on_c, 0, 72, 60
2, 12574, Note_off_c, 0, 72, 0
2, 12576, Note_on_c, 0, 70, 60
2, 12670, Note_off_c, 0, 70, 0
2, 12672, Note_on_c, 0, 65, 60
2, 12766, Note_off_c, 0, 65, 0
2, 12876, Note_on_c, 0, 57, 90
2, 12960, Note_on_c, 0, 58, 90
2, 12970, Note_off_c, 0, 57, 0
2, 13054, Note_off_c, 0, 58, 0
2, 13056, Note_on_c, 0, 67, 90
2, 13150, Note_off_c, 0, 67, 0
2, 13152, Note_on_c, 0, 59, 90
2, 13246, Note_off_c, 0, 59, 0
2, 13248, Note_on_c, 0, 60, 90
2, 13342, Note_off_c, 0, 60, 0
2, 13344, Note_on_c, 0, 69, 90
2, 13438, Note_off_c, 0, 69, 0
2, 13440, Note_on_c, 0, 61, 90
2, 13534, Note_off_c, 0, 61, 0
2, 13536, Note_on_c, 0, 62, 90
2, 13630, Note_off_c, 0, 62, 0
2, 13632, Note_on_c, 0, 70, 90
2, 13726, Note_off_c, 0, 70, 0
2, 13728, Note_on_c, 0, 64, 90
2, 13822, Note_off_c, 0, 64, 0
2, 13824, Note_on_c, 0, 82, 90
2, 14110, Note_off_c, 0, 82, 0
2, 14112, Note_on_c, 0, 82, 90
2, 14112, Note_on_c, 0, 67, 90
2, 14112, Note_on_c, 0, 64, 90
2, 14112, Note_on_c, 0, 58, 90
2, 14112, Note_on_c, 0, 60, 90
2, 14206, Note_off_c, 0, 82, 0
2, 14208, Note_on_c, 0, 81, 90
2, 14254, Note_off_c, 0, 81, 0
2, 14256, Note_on_c, 0, 79, 90
2, 14302, Note_off_c, 0, 79, 0
2, 14304, Note_on_c, 0, 77, 90
2, 14350, Note_off_c, 0, 77, 0
2, 14352, Note_on_c, 0, 76, 90
2, 14398, Note_off_c, 0, 67, 0
2, 14398, Note_off_c, 0, 64, 0
2, 14398, Note_off_c, 0, 58, 0
2, 14398, Note_off_c, 0, 60, 0
2, 14398, Note_off_c, 0, 76, 0
2, 14400, Note_on_c, 0, 77, 90
2, 14400, Note_on_c, 0, 65, 90
2, 14400, Note_on_c, 0, 60, 90
2, 14400, Note_on_c, 0, 57, 90
2, 14494, Note_off_c, 0, 77, 0
2, 14494, Note_off_c, 0, 65, 0
2, 14494, Note_off_c, 0, 60, 0
2, 14494, Note_off_c, 0, 57, 0
2, 14496, Note_on_c, 0, 79, 90
2, 14590, Note_off_c, 0, 79, 0
2, 14592, Note_on_c, 0, 81, 90
2, 14686, Note_off_c, 0, 81, 0
2, 14688, Note_on_c, 0, 72, 60
2, 14688, Note_on_c, 0, 69, 60
2, 14688, Note_on_c, 0, 60, 60
2, 14878, Note_off_c, 0, 72, 0
2, 14878, Note_off_c, 0, 69, 0
2, 14878, Note_off_c, 0, 60, 0
2, 14880, Note_on_c, 0, 67, 60
2, 14880, Note_on_c, 0, 70, 60
2, 14880, Note_on_c, 0, 61, 60
2, 14974, Note_off_c, 0, 67, 0
2, 14974, Note_off_c, 0, 70, 0
2, 14974, Note_off_c, 0, 61, 0
2, 14976, Note_on_c, 0, 70, 60
2, 14976, Note_on_c, 0, 67, 60
2, 14976, Note_on_c, 0, 62, 60
2, 15262, Note_off_c, 0, 70, 0
2, 15262, Note_off_c, 0, 67, 0
2, 15262, Note_off_c, 0, 62, 0
2, 15264, Note_on_c, 0, 69, 60
2, 15264, Note_on_c, 0, 65, 60
2, 15264, Note_on_c, 0, 62, 60
2, 15358, Note_off_c, 0, 69, 0
2, 15358, Note_off_c, 0, 65, 0
2, 15358, Note_off_c, 0, 62, 0
2, 15744, Note_on_c, 0, 57, 90
2, 15838, Note_off_c, 0, 57, 0
2, 15840, Note_on_c, 0, 58, 90
2, 15934, Note_off_c, 0, 58, 0
2, 15936, Note_on_c, 0, 67, 90
2, 16030, Note_off_c, 0, 67, 0
2, 16032, Note_on_c, 0, 59, 90
2, 16126, Note_off_c, 0, 59, 0
2, 16128, Note_on_c, 0, 60, 90
2, 16222, Note_off_c, 0, 60, 0
2, 16224, Note_on_c, 0, 69, 90
2, 16318, Note_off_c, 0, 69, 0
2, 16320, Note_on_c, 0, 61, 90
2, 16414, Note_off_c, 0, 61, 0
2, 16416, Note_on_c, 0, 62, 90
2, 16510, Note_off_c, 0, 62, 0
2, 16512, Note_on_c, 0, 70, 90
2, 16606, Note_off_c, 0, 70, 0
2, 16608, Note_on_c, 0, 62, 90
2, 16702, Note_off_c, 0, 62, 0
2, 16704, Note_on_c, 0, 82, 90
2, 16990, Note_off_c, 0, 82, 0
2, 16992, Note_on_c, 0, 82, 90
2, 16992, Note_on_c, 0, 67, 90
2, 16992, Note_on_c, 0, 64, 90
2, 16992, Note_on_c, 0, 58, 90
2, 16992, Note_on_c, 0, 60, 90
2, 17086, Note_off_c, 0, 82, 0
2, 17088, Note_on_c, 0, 81, 90
2, 17134, Note_off_c, 0, 81, 0
2, 17136, Note_on_c, 0, 79, 90
2, 17182, Note_off_c, 0, 79, 0
2, 17184, Note_on_c, 0, 77, 90
2, 17230, Note_off_c, 0, 77, 0
2, 17232, Note_on_c, 0, 76, 90
2, 17278, Note_off_c, 0, 67, 0
2, 17278, Note_off_c, 0, 64, 0
2, 17278, Note_off_c, 0, 58, 0
2, 17278, Note_off_c, 0, 60, 0
2, 17278, Note_off_c, 0, 76, 0
2, 17280, Note_on_c, 0, 77, 90
2, 17280, Note_on_c, 0, 65, 90
2, 17280, Note_on_c, 0, 60, 90
2, 17280, Note_on_c, 0, 57, 90
2, 17302, Note_off_c, 0, 77, 0
2, 17304, Note_on_c, 0, 79, 90
2, 17326, Note_off_c, 0, 79, 0
2, 17328, Note_on_c, 0, 81, 90
2, 17374, Note_off_c, 0, 65, 0
2, 17374, Note_off_c, 0, 60, 0
2, 17374, Note_off_c, 0, 57, 0
2, 17374, Note_off_c, 0, 81, 0
2, 17568, Note_on_c, 0, 74, 90
2, 17568, Note_on_c, 0, 65, 90
2, 17568, Note_on_c, 0, 62, 90
2, 17568, Note_on_c, 0, 58, 90
2, 17590, Note_off_c, 0, 74, 0
2, 17592, Note_on_c, 0, 76, 90
2, 17614, Note_off_c, 0, 76, 0
2, 17616, Note_on_c, 0, 77, 90
2, 17662, Note_off_c, 0, 65, 0
2, 17662, Note_off_c, 0, 62, 0
2, 17662, Note_off_c, 0, 58, 0
2, 17662, Note_off_c, 0, 77, 0
2, 17856, Note_on_c, 0, 65, 60
2, 18046, Note_off_c, 0, 65, 0
2, 18144, Note_on_c, 0, 69, 60
2, 18166, Note_off_c, 0, 69, 0
2, 18168, Note_on_c, 0, 67, 60
2, 18168, Note_on_c, 0, 64, 60
2, 18336, Note_on_c, 0, 65, 60
2, 18358, Note_off_c, 0, 67, 0
2, 18358, Note_off_c, 0, 64, 0
2, 18430, Note_off_c, 0, 65, 0
2, 18432, Note_on_c, 0, 65, 60
2, 18432, Note_on_c, 0, 65, 60
2, 18624, Note_on_c, 0, 69, 60
2, 18718, Note_off_c, 0, 65, 0
2, 18718, Note_off_c, 0, 65, 0
2, 18718, Note_off_c, 0, 69, 0
2, 18720, Note_on_c, 0, 72, 60
2, 18720, Note_on_c, 0, 64, 60
2, 18814, Note_off_c, 0, 72, 0
2, 18816, Note_on_c, 0, 70, 60
2, 18910, Note_off_c, 0, 70, 0
2, 18912, Note_on_c, 0, 67, 60
2, 19006, Note_off_c, 0, 64, 0
2, 19006, Note_off_c, 0, 67, 0
2, 19008, Note_on_c, 0, 65, 60
2, 19020, Note_on_c, 0, 65, 60
2, 19104, Note_on_c, 0, 60, 60
2, 19114, Note_off_c, 0, 65, 0
2, 19198, Note_off_c, 0, 60, 0
2, 19200, Note_on_c, 0, 69, 60
2, 19294, Note_off_c, 0, 65, 0
2, 19294, Note_off_c, 0, 69, 0
2, 19296, Note_on_c, 0, 64, 60
2, 19296, Note_on_c, 0, 72, 60
2, 19390, Note_off_c, 0, 72, 0
2, 19392, Note_on_c, 0, 70, 60
2, 19486, Note_off_c, 0, 70, 0
2, 19488, Note_on_c, 0, 67, 60
2, 19582, Note_off_c, 0, 64, 0
2, 19582, Note_off_c, 0, 67, 0
2, 19584, Note_on_c, 0, 65, 45
2, 19678, Note_off_c, 0, 65, 0
2, 19680, Note_on_c, 0, 60, 45
2, 19774, Note_off_c, 0, 60, 0
2, 19776, Note_on_c, 0, 69, 45
2, 19870, Note_off_c, 0, 69, 0
2, 19872, Note_on_c, 0, 65, 45
2, 19966, Note_off_c, 0, 65, 0
2, 19968, Note_on_c, 0, 60, 45
2, 20062, Note_off_c, 0, 60, 0
2, 20064, Note_on_c, 0, 69, 45
2, 20158, Note_off_c, 0, 69, 0
2, 20160, Note_on_c, 0, 67, 45
2, 20160, Note_on_c, 0, 58, 45
2, 20446, Note_off_c, 0, 67, 0
2, 20446, Note_off_c, 0, 58, 0
2, 20448, Note_on_c, 0, 65, 45
2, 20448, Note_on_c, 0, 57, 45
2, 20542, Note_off_c, 0, 65, 0
2, 20542, Note_off_c, 0, 57, 0
2, 20736, Note_on_c, 0, 81, 90
2, 20736, Note_on_c, 0, 69, 90
2, 21022, Note_off_c, 0, 81, 0
2, 21022, Note_off_c, 0, 69, 0
2, 21024, Note_on_c, 0, 79, 90
2, 21024, Note_on_c, 0, 69, 90
2, 21310, Note_off_c, 0, 79, 0
2, 21310, Note_off_c, 0, 69, 0
2, 21312, Note_on_c, 0, 77, 90
2, 21312, Note_on_c, 0, 69, 90
2, 21598, Note_off_c, 0, 77, 0
2, 21598, Note_off_c, 0, 69, 0
2, 21600, Note_on_c, 0, 76, 90
2, 21600, Note_on_c, 0, 69, 90
2, 21886, Note_off_c, 0, 76, 0
2, 21886, Note_off_c, 0, 69, 0
2, 21888, Note_on_c, 0, 74, 90
2, 21888, Note_on_c, 0, 69, 90
2, 22174, Note_off_c, 0, 74, 0
2, 22174, Note_off_c, 0, 69, 0
2, 22176, Note_on_c, 0, 73, 90
2, 22176, Note_on_c, 0, 67, 90
2, 22176, Note_on_c, 0, 69, 90
2, 22462, Note_off_c, 0, 73, 0
2, 22462, Note_off_c, 0, 67, 0
2, 22462, Note_off_c, 0, 69, 0
2, 22464, Note_on_c, 0, 74, 90
2, 22510, Note_off_c, 0, 74, 0
2, 22512, Note_on_c, 0, 69, 90
2, 22558, Note_off_c, 0, 69, 0
2, 22560, Note_on_c, 0, 65, 90
2, 22606, Note_off_c, 0, 65, 0
2, 22608, Note_on_c, 0, 69, 90
2, 22654, Note_off_c, 0, 69, 0
2, 22656, Note_on_c, 0, 74, 90
2, 22702, Note_off_c, 0, 74, 0
2, 22704, Note_on_c, 0, 69, 90
2, 22750, Note_off_c, 0, 69, 0
2, 22752, Note_on_c, 0, 76, 90
2, 22798, Note_off_c, 0, 76, 0
2, 22800, Note_on_c, 0, 69, 90
2, 22846, Note_off_c, 0, 69, 0
2, 22848, Note_on_c, 0, 67, 90
2, 22894, Note_off_c, 0, 67, 0
2, 22896, Note_on_c, 0, 69, 90
2, 22942, Note_off_c, 0, 69, 0
2, 22944, Note_on_c, 0, 76, 90
2, 22990, Note_off_c, 0, 76, 0
2, 22992, Note_on_c, 0, 69, 90
2, 23038, Note_off_c, 0, 69, 0
2, 23040, Note_on_c, 0, 77, 90
2, 23086, Note_off_c, 0, 77, 0
2, 23088, Note_on_c, 0, 74, 90
2, 23134, Note_off_c, 0, 74, 0
2, 23136, Note_on_c, 0, 69, 90
2, 23182, Note_off_c, 0, 69, 0
2, 23184, Note_on_c, 0, 74, 90
2, 23230, Note_off_c, 0, 74, 0
2, 23232, Note_on_c, 0, 77, 90
2, 23278, Note_off_c, 0, 77, 0
2, 23280, Note_on_c, 0, 74, 90
2, 23326, Note_off_c, 0, 74, 0
2, 23328, Note_on_c, 0, 78, 90
2, 23374, Note_off_c, 0, 78, 0
2, 23376, Note_on_c, 0, 74, 90
2, 23422, Note_off_c, 0, 74, 0
2, 23424, Note_on_c, 0, 69, 90
2, 23470, Note_off_c, 0, 69, 0
2, 23472, Note_on_c, 0, 74, 90
2, 23518, Note_off_c, 0, 74, 0
2, 23520, Note_on_c, 0, 78, 90
2, 23566, Note_off_c, 0, 78, 0
2, 23568, Note_on_c, 0, 74, 90
2, 23614, Note_off_c, 0, 74, 0
2, 23616, Note_on_c, 0, 79, 90
2, 23806, Note_off_c, 0, 79, 0
2, 23808, Note_on_c, 0, 81, 90
2, 23854, Note_off_c, 0, 81, 0
2, 23856, Note_on_c, 0, 79, 90
2, 23902, Note_off_c, 0, 79, 0
2, 23904, Note_on_c, 0, 77, 90
2, 24094, Note_off_c, 0, 77, 0
2, 24096, Note_on_c, 0, 79, 90
2, 24142, Note_off_c, 0, 79, 0
2, 24144, Note_on_c, 0, 77, 90
2, 24190, Note_off_c, 0, 77, 0
2, 24192, Note_on_c, 0, 76, 90
2, 24192, Note_on_c, 0, 67, 90
2, 24382, Note_off_c, 0, 76, 0
2, 24384, Note_on_c, 0, 77, 90
2, 24430, Note_off_c, 0, 77, 0
2, 24432, Note_on_c, 0, 76, 90
2, 24478, Note_off_c, 0, 67, 0
2, 24478, Note_off_c, 0, 76, 0
2, 24480, Note_on_c, 0, 74, 90
2, 24480, Note_on_c, 0, 67, 90
2, 24480, Note_on_c, 0, 65, 90
2, 24670, Note_off_c, 0, 74, 0
2, 24672, Note_on_c, 0, 76, 90
2, 24718, Note_off_c, 0, 76, 0
2, 24720, Note_on_c, 0, 74, 90
2, 24766, Note_off_c, 0, 67, 0
2, 24766, Note_off_c, 0, 65, 0
2, 24766, Note_off_c, 0, 74, 0
2, 24768, Note_on_c, 0, 72, 90
2, 24768, Note_on_c, 0, 64, 90
2, 24768, Note_on_c, 0, 67, 90
2, 24958, Note_off_c, 0, 72, 0
2, 24960, Note_on_c, 0, 74, 90
2, 25006, Note_off_c, 0, 74, 0
2, 25008, Note_on_c, 0, 72, 90
2, 25054, Note_off_c, 0, 64, 0
2, 25054, Note_off_c, 0, 67, 0
2, 25054, Note_off_c, 0, 72, 0
2, 25056, Note_on_c, 0, 71, 90
2, 25056, Note_on_c, 0, 67, 90
2, 25056, Note_on_c, 0, 65, 90
2, 25056, Note_on_c, 0, 62, 90
2, 25246, Note_off_c, 0, 71, 0
2, 25248, Note_on_c, 0, 72, 90
2, 25294, Note_off_c, 0, 72, 0
2, 25296, Note_on_c, 0, 71, 90
2, 25342, Note_off_c, 0, 67, 0
2, 25342, Note_off_c, 0, 65, 0
2, 25342, Note_off_c, 0, 62, 0
2, 25342, Note_off_c, 0, 71, 0
2, 25344, Note_on_c, 0, 74, 90
2, 25344, Note_on_c, 0, 60, 90
2, 25390, Note_off_c, 0, 74, 0
2, 25392, Note_on_c, 0, 72, 90
2, 25438, Note_off_c, 0, 60, 0
2, 25438, Note_off_c, 0, 72, 0
2, 25440, Note_on_c, 0, 71, 90
2, 25440, Note_on_c, 0, 64, 90
2, 25486, Note_off_c, 0, 71, 0
2, 25488, Note_on_c, 0, 72, 90
2, 25534, Note_off_c, 0, 64, 0
2, 25534, Note_off_c, 0, 72, 0
2, 25536, Note_on_c, 0, 71, 90
2, 25536, Note_on_c, 0, 67, 90
2, 25582, Note_off_c, 0, 71, 0
2, 25584, Note_on_c, 0, 72, 90
2, 25630, Note_off_c, 0, 67, 0
2, 25630, Note_off_c, 0, 72, 0
2, 25632, Note_on_c, 0, 76, 90
2, 25632, Note_on_c, 0, 58, 90
2, 25678, Note_off_c, 0, 76, 0
2, 25680, Note_on_c, 0, 74, 90
2, 25726, Note_off_c, 0, 58, 0
2, 25726, Note_off_c, 0, 74, 0
2, 25728, Note_on_c, 0, 73, 90
2, 25728, Note_on_c, 0, 65, 90
2, 25774, Note_off_c, 0, 73, 0
2, 25776, Note_on_c, 0, 74, 90
2, 25822, Note_off_c, 0, 65, 0
2, 25822, Note_off_c, 0, 74, 0
2, 25824, Note_on_c, 0, 73, 90
2, 25824, Note_on_c, 0, 67, 90
2, 25870, Note_off_c, 0, 73, 0
2, 25872, Note_on_c, 0, 74, 90
2, 25918, Note_off_c, 0, 67, 0
2, 25918, Note_off_c, 0, 74, 0
2, 25920, Note_on_c, 0, 76, 90
2, 25920, Note_on_c, 0, 67, 90
2, 25920, Note_on_c, 0, 64, 90
2, 25920, Note_on_c, 0, 60, 75
2, 25966, Note_off_c, 0, 76, 0
2, 25968, Note_on_c, 0, 74, 90
2, 26014, Note_off_c, 0, 67, 0
2, 26014, Note_off_c, 0, 64, 0
2, 26014, Note_off_c, 0, 74, 0
2, 26016, Note_on_c, 0, 72, 90
2, 26062, Note_off_c, 0, 72, 0
2, 26064, Note_on_c, 0, 74, 90
2, 26108, Note_off_c, 0, 60, 0
2, 26110, Note_off_c, 0, 74, 0
2, 26112, Note_on_c, 0, 76, 90
2, 26158, Note_off_c, 0, 76, 0
2, 26160, Note_on_c, 0, 77, 90
2, 26206, Note_off_c, 0, 77, 0
2, 26208, Note_on_c, 0, 79, 90
2, 26254, Note_off_c, 0, 79, 0
2, 26256, Note_on_c, 0, 77, 90
2, 26302, Note_off_c, 0, 77, 0
2, 26304, Note_on_c, 0, 76, 90
2, 26350, Note_off_c, 0, 76, 0
2, 26352, Note_on_c, 0, 77, 90
2, 26398, Note_off_c, 0, 77, 0
2, 26400, Note_on_c, 0, 79, 90
2, 26446, Note_off_c, 0, 79, 0
2, 26448, Note_on_c, 0, 80, 90
2, 26494, Note_off_c, 0, 80, 0
2, 26496, Note_on_c, 0, 81, 90
2, 26542, Note_off_c, 0, 81, 0
2, 26544, Note_on_c, 0, 82, 90
2, 26590, Note_off_c, 0, 82, 0
2, 26592, Note_on_c, 0, 81, 90
2, 26638, Note_off_c, 0, 81, 0
2, 26640, Note_on_c, 0, 79, 90
2, 26686, Note_off_c, 0, 79, 0
2, 26688, Note_on_c, 0, 77, 90
2, 26734, Note_off_c, 0, 77, 0
2, 26736, Note_on_c, 0, 76, 90
2, 26782, Note_off_c, 0, 76, 0
2, 26784, Note_on_c, 0, 74, 90
2, 26830, Note_off_c, 0, 74, 0
2, 26832, Note_on_c, 0, 85, 90
2, 26878, Note_off_c, 0, 85, 0
2, 26880, Note_on_c, 0, 86, 90
2, 26926, Note_off_c, 0, 86, 0
2, 26928, Note_on_c, 0, 84, 90
2, 26974, Note_off_c, 0, 84, 0
2, 26976, Note_on_c, 0, 83, 90
2, 27022, Note_off_c, 0, 83, 0
2, 27024, Note_on_c, 0, 81, 90
2, 27070, Note_off_c, 0, 81, 0
2, 27072, Note_on_c, 0, 79, 90
2, 27118, Note_off_c, 0, 79, 0
2, 27120, Note_on_c, 0, 81, 90
2, 27166, Note_off_c, 0, 81, 0
2, 27168, Note_on_c, 0, 79, 90
2, 27214, Note_off_c, 0, 79, 0
2, 27216, Note_on_c, 0, 77, 90
2, 27262, Note_off_c, 0, 77, 0
2, 27264, Note_on_c, 0, 76, 90
2, 27310, Note_off_c, 0, 76, 0
2, 27312, Note_on_c, 0, 74, 90
2, 27358, Note_off_c, 0, 74, 0
2, 27360, Note_on_c, 0, 72, 90
2, 27406, Note_off_c, 0, 72, 0
2, 27408, Note_on_c, 0, 83, 90
2, 27454, Note_off_c, 0, 83, 0
2, 27456, Note_on_c, 0, 84, 90
2, 27502, Note_off_c, 0, 84, 0
2, 27504, Note_on_c, 0, 82, 90
2, 27550, Note_off_c, 0, 82, 0
2, 27552, Note_on_c, 0, 81, 90
2, 27598, Note_off_c, 0, 81, 0
2, 27600, Note_on_c, 0, 79, 90
2, 27646, Note_off_c, 0, 79, 0
2, 27648, Note_on_c, 0, 77, 90
2, 27694, Note_off_c, 0, 77, 0
2, 27696, Note_on_c, 0, 85, 90
2, 27742, Note_off_c, 0, 85, 0
2, 27744, Note_on_c, 0, 86, 90
2, 27790, Note_off_c, 0, 86, 0
2, 27792, Note_on_c, 0, 83, 90
2, 27838, Note_off_c, 0, 83, 0
2, 27840, Note_on_c, 0, 79, 90
2, 27886, Note_off_c, 0, 79, 0
2, 27888, Note_on_c, 0, 77, 90
2, 27934, Note_off_c, 0, 77, 0
2, 27936, Note_on_c, 0, 76, 90
2, 27982, Note_off_c, 0, 76, 0
2, 27984, Note_on_c, 0, 83, 90
2, 28030, Note_off_c, 0, 83, 0
2, 28032, Note_on_c, 0, 84, 90
2, 28078, Note_off_c, 0, 84, 0
2, 28080, Note_on_c, 0, 79, 90
2, 28126, Note_off_c, 0, 79, 0
2, 28128, Note_on_c, 0, 77, 90
2, 28174, Note_off_c, 0, 77, 0
2, 28176, Note_on_c, 0, 76, 90
2, 28222, Note_off_c, 0, 76, 0
2, 28224, Note_on_c, 0, 74, 90
2, 28270, Note_off_c, 0, 74, 0
2, 28272, Note_on_c, 0, 76, 90
2, 28318, Note_off_c, 0, 76, 0
2, 28320, Note_on_c, 0, 74, 90
2, 28366, Note_off_c, 0, 74, 0
2, 28368, Note_on_c, 0, 72, 90
2, 28414, Note_off_c, 0, 72, 0
2, 28416, Note_on_c, 0, 71, 90
2, 28462, Note_off_c, 0, 71, 0
2, 28464, Note_on_c, 0, 69, 90
2, 28510, Note_off_c, 0, 69, 0
2, 28512, Note_on_c, 0, 67, 90
2, 28560, Note_on_c, 0, 69, 90
2, 28606, Note_off_c, 0, 67, 0
2, 28606, Note_off_c, 0, 69, 0
2, 28608, Note_on_c, 0, 67, 90
2, 28654, Note_off_c, 0, 67, 0
2, 28656, Note_on_c, 0, 65, 90
2, 28702, Note_off_c, 0, 65, 0
2, 28704, Note_on_c, 0, 64, 90
2, 28750, Note_off_c, 0, 64, 0
2, 28752, Note_on_c, 0, 62, 90
2, 28798, Note_off_c, 0, 62, 0
2, 28800, Note_on_c, 0, 75, 60
2, 28800, Note_on_c, 0, 60, 60
2, 28894, Note_off_c, 0, 60, 0
2, 28896, Note_on_c, 0, 63, 60
2, 28990, Note_off_c, 0, 63, 0
2, 28992, Note_on_c, 0, 67, 60
2, 29086, Note_off_c, 0, 75, 0
2, 29086, Note_off_c, 0, 67, 0
2, 29088, Note_on_c, 0, 75, 60
2, 29088, Note_on_c, 0, 60, 60
2, 29182, Note_off_c, 0, 75, 0
2, 29182, Note_off_c, 0, 60, 0
2, 29196, Note_on_c, 0, 74, 60
2, 29196, Note_on_c, 0, 63, 60
2, 29280, Note_on_c, 0, 72, 60
2, 29280, Note_on_c, 0, 67, 60
2, 29290, Note_off_c, 0, 74, 0
2, 29290, Note_off_c, 0, 63, 0
2, 29374, Note_off_c, 0, 72, 0
2, 29374, Note_off_c, 0, 67, 0
2, 29376, Note_on_c, 0, 78, 60
2, 29376, Note_on_c, 0, 59, 60
2, 29470, Note_off_c, 0, 59, 0
2, 29472, Note_on_c, 0, 62, 60
2, 29566, Note_off_c, 0, 78, 0
2, 29566, Note_off_c, 0, 62, 0
2, 29568, Note_on_c, 0, 79, 60
2, 29568, Note_on_c, 0, 67, 60
2, 29662, Note_off_c, 0, 79, 0
2, 29662, Note_off_c, 0, 67, 0
2, 29664, Note_on_c, 0, 74, 60
2, 29664, Note_on_c, 0, 59, 60
2, 29758, Note_off_c, 0, 59, 0
2, 29760, Note_on_c, 0, 62, 60
2, 29854, Note_off_c, 0, 74, 0
2, 29854, Note_off_c, 0, 62, 0
2, 29856, Note_on_c, 0, 67, 60
2, 29950, Note_off_c, 0, 67, 0
2, 29952, Note_on_c, 0, 80, 60
2, 29952, Note_on_c, 0, 59, 60
2, 30046, Note_off_c, 0, 59, 0
2, 30048, Note_on_c, 0, 62, 60
2, 30142, Note_off_c, 0, 62, 0
2, 30144, Note_on_c, 0, 65, 60
2, 30238, Note_off_c, 0, 80, 0
2, 30238, Note_off_c, 0, 65, 0
2, 30240, Note_on_c, 0, 80, 60
2, 30240, Note_on_c, 0, 59, 60
2, 30334, Note_off_c, 0, 80, 0
2, 30334, Note_off_c, 0, 59, 0
2, 30336, Note_on_c, 0, 79, 60
2, 30336, Note_on_c, 0, 62, 60
2, 30430, Note_off_c, 0, 79, 0
2, 30430, Note_off_c, 0, 62, 0
2, 30432, Note_on_c, 0, 77, 60
2, 30432, Note_on_c, 0, 67, 60
2, 30526, Note_off_c, 0, 77, 0
2, 30526, Note_off_c, 0, 67, 0
2, 30528, Note_on_c, 0, 75, 60
2, 30528, Note_on_c, 0, 60, 60
2, 30540, Note_on_c, 0, 77, 60
2, 30550, Note_off_c, 0, 75, 0
2, 30562, Note_off_c, 0, 77, 0
2, 30564, Note_on_c, 0, 75, 60
2, 30586, Note_off_c, 0, 75, 0
2, 30600, Note_on_c, 0, 77, 60
2, 30622, Note_off_c, 0, 60, 0
2, 30622, Note_off_c, 0, 77, 0
2, 30624, Note_on_c, 0, 75, 60
2, 30624, Note_on_c, 0, 63, 60
2, 30646, Note_off_c, 0, 75, 0
2, 30648, Note_on_c, 0, 77, 60
2, 30670, Note_off_c, 0, 77, 0
2, 30672, Note_on_c, 0, 75, 60
2, 30694, Note_off_c, 0, 75, 0
2, 30696, Note_on_c, 0, 77, 60
2, 30718, Note_off_c, 0, 63, 0
2, 30718, Note_off_c, 0, 77, 0
2, 30720, Note_on_c, 0, 75, 60
2, 30720, Note_on_c, 0, 67, 60
2, 30766, Note_off_c, 0, 75, 0
2, 30768, Note_on_c, 0, 77, 60
2, 30814, Note_off_c, 0, 67, 0
2, 30814, Note_off_c, 0, 77, 0
2, 30816, Note_on_c, 0, 79, 60
2, 30816, Note_on_c, 0, 60, 60
2, 30910, Note_off_c, 0, 60, 0
2, 30912, Note_on_c, 0, 63, 60
2, 31006, Note_off_c, 0, 79, 0
2, 31006, Note_off_c, 0, 63, 0
2, 31008, Note_on_c, 0, 67, 60
2, 31102, Note_off_c, 0, 67, 0
2, 31104, Note_on_c, 0, 84, 90
2, 31104, Note_on_c, 0, 63, 90
2, 31198, Note_off_c, 0, 63, 0
2, 31200, Note_on_c, 0, 67, 90
2, 31294, Note_off_c, 0, 67, 0
2, 31296, Note_on_c, 0, 72, 90
2, 31390, Note_off_c, 0, 84, 0
2, 31390, Note_off_c, 0, 72, 0
2, 31392, Note_on_c, 0, 82, 90
2, 31392, Note_on_c, 0, 62, 90
2, 31486, Note_off_c, 0, 62, 0
2, 31488, Note_on_c, 0, 65, 90
2, 31582, Note_off_c, 0, 82, 0
2, 31582, Note_off_c, 0, 65, 0
2, 31584, Note_on_c, 0, 84, 90
2, 31584, Note_on_c, 0, 70, 90
2, 31678, Note_off_c, 0, 84, 0
2, 31678, Note_off_c, 0, 70, 0
2, 31680, Note_on_c, 0, 82, 90
2, 31680, Note_on_c, 0, 60, 90
2, 31774, Note_off_c, 0, 60, 0
2, 31776, Note_on_c, 0, 63, 90
2, 31870, Note_off_c, 0, 82, 0
2, 31870, Note_off_c, 0, 63, 0
2, 31872, Note_on_c, 0, 80, 90
2, 31872, Note_on_c, 0, 68, 90
2, 31966, Note_off_c, 0, 80, 0
2, 31966, Note_off_c, 0, 68, 0
2, 31968, Note_on_c, 0, 79, 90
2, 31968, Note_on_c, 0, 58, 90
2, 32062, Note_off_c, 0, 58, 0
2, 32064, Note_on_c, 0, 62, 90
2, 32158, Note_off_c, 0, 62, 0
2, 32160, Note_on_c, 0, 67, 90
2, 32254, Note_off_c, 0, 79, 0
2, 32254, Note_off_c, 0, 67, 0
2, 32256, Note_on_c, 0, 77, 82
2, 32256, Note_on_c, 0, 56, 82
2, 32350, Note_off_c, 0, 56, 0
2, 32352, Note_on_c, 0, 60, 82
2, 32446, Note_off_c, 0, 77, 0
2, 32446, Note_off_c, 0, 60, 0
2, 32448, Note_on_c, 0, 75, 82
2, 32448, Note_on_c, 0, 65, 82
2, 32542, Note_off_c, 0, 75, 0
2, 32542, Note_off_c, 0, 65, 0
2, 32544, Note_on_c, 0, 74, 82
2, 32544, Note_on_c, 0, 56, 82
2, 32638, Note_off_c, 0, 56, 0
2, 32640, Note_on_c, 0, 60, 82
2, 32734, Note_off_c, 0, 74, 0
2, 32734, Note_off_c, 0, 60, 0
2, 32736, Note_on_c, 0, 72, 82
2, 32736, Note_on_c, 0, 66, 82
2, 32830, Note_off_c, 0, 72, 0
2, 32830, Note_off_c, 0, 66, 0
2, 32832, Note_on_c, 0, 75, 82
2, 32832, Note_on_c, 0, 55, 82
2, 32926, Note_off_c, 0, 55, 0
2, 32928, Note_on_c, 0, 58, 82
2, 33022, Note_off_c, 0, 58, 0
2, 33024, Note_on_c, 0, 67, 82
2, 33118, Note_off_c, 0, 75, 0
2, 33118, Note_off_c, 0, 67, 0
2, 33120, Note_on_c, 0, 74, 82
2, 33120, Note_on_c, 0, 55, 82
2, 33214, Note_off_c, 0, 74, 0
2, 33214, Note_off_c, 0, 55, 0
2, 33216, Note_on_c, 0, 59, 82
2, 33310, Note_off_c, 0, 59, 0
2, 33312, Note_on_c, 0, 67, 82
2, 33406, Note_off_c, 0, 67, 0
2, 33408, Note_on_c, 0, 75, 60
2, 33408, Note_on_c, 0, 60, 60
2, 33502, Note_off_c, 0, 60, 0
2, 33504, Note_on_c, 0, 63, 60
2, 33598, Note_off_c, 0, 63, 0
2, 33600, Note_on_c, 0, 67, 60
2, 33694, Note_off_c, 0, 75, 0
2, 33694, Note_off_c, 0, 67, 0
2, 33696, Note_on_c, 0, 75, 60
2, 33696, Note_on_c, 0, 60, 60
2, 33790, Note_off_c, 0, 75, 0
2, 33790, Note_off_c, 0, 60, 0
2, 33792, Note_on_c, 0, 74, 60
2, 33792, Note_on_c, 0, 63, 60
2, 33886, Note_off_c, 0, 74, 0
2, 33886, Note_off_c, 0, 63, 0
2, 33888, Note_on_c, 0, 72, 60
2, 33888, Note_on_c, 0, 67, 60
2, 33982, Note_off_c, 0, 72, 0
2, 33982, Note_off_c, 0, 67, 0
2, 33984, Note_on_c, 0, 77, 60
2, 33984, Note_on_c, 0, 59, 60
2, 34078, Note_off_c, 0, 59, 0
2, 34080, Note_on_c, 0, 62, 60
2, 34174, Note_off_c, 0, 77, 0
2, 34174, Note_off_c, 0, 62, 0
2, 34176, Note_on_c, 0, 79, 60
2, 34176, Note_on_c, 0, 67, 60
2, 34270, Note_off_c, 0, 79, 0
2, 34270, Note_off_c, 0, 67, 0
2, 34272, Note_on_c, 0, 74, 60
2, 34272, Note_on_c, 0, 59, 60
2, 34366, Note_off_c, 0, 59, 0
2, 34368, Note_on_c, 0, 62, 60
2, 34462, Note_off_c, 0, 74, 0
2, 34462, Note_off_c, 0, 62, 0
2, 34464, Note_on_c, 0, 67, 60
2, 34558, Note_off_c, 0, 67, 0
2, 34560, Note_on_c, 0, 80, 60
2, 34560, Note_on_c, 0, 59, 60
2, 34654, Note_off_c, 0, 59, 0
2, 34656, Note_on_c, 0, 62, 60
2, 34750, Note_off_c, 0, 62, 0
2, 34752, Note_on_c, 0, 65, 60
2, 34846, Note_off_c, 0, 80, 0
2, 34846, Note_off_c, 0, 65, 0
2, 34848, Note_on_c, 0, 80, 60
2, 34848, Note_on_c, 0, 59, 60
2, 34942, Note_off_c, 0, 80, 0
2, 34942, Note_off_c, 0, 59, 0
2, 34944, Note_on_c, 0, 79, 60
2, 34944, Note_on_c, 0, 62, 60
2, 35038, Note_off_c, 0, 79, 0
2, 35038, Note_off_c, 0, 62, 0
2, 35040, Note_on_c, 0, 77, 60
2, 35040, Note_on_c, 0, 67, 60
2, 35134, Note_off_c, 0, 77, 0
2, 35134, Note_off_c, 0, 67, 0
2, 35136, Note_on_c, 0, 76, 60
2, 35136, Note_on_c, 0, 58, 60
2, 35230, Note_off_c, 0, 58, 0
2, 35232, Note_on_c, 0, 61, 60
2, 35326, Note_off_c, 0, 76, 0
2, 35326, Note_off_c, 0, 61, 0
2, 35328, Note_on_c, 0, 77, 60
2, 35328, Note_on_c, 0, 67, 60
2, 35374, Note_off_c, 0, 77, 0
2, 35376, Note_on_c, 0, 79, 60
2, 35422, Note_off_c, 0, 67, 0
2, 35422, Note_off_c, 0, 79, 0
2, 35424, Note_on_c, 0, 77, 60
2, 35424, Note_on_c, 0, 57, 60
2, 35518, Note_off_c, 0, 57, 0
2, 35520, Note_on_c, 0, 60, 60
2, 35614, Note_off_c, 0, 77, 0
2, 35614, Note_off_c, 0, 60, 0
2, 35616, Note_on_c, 0, 65, 60
2, 35710, Note_off_c, 0, 65, 0
2, 35712, Note_on_c, 0, 87, 90
2, 35712, Note_on_c, 0, 56, 90
2, 35806, Note_off_c, 0, 56, 0
2, 35808, Note_on_c, 0, 60, 90
2, 35902, Note_off_c, 0, 60, 0
2, 35904, Note_on_c, 0, 66, 90
2, 35998, Note_off_c, 0, 87, 0
2, 35998, Note_off_c, 0, 66, 0
2, 36000, Note_on_c, 0, 87, 90
2, 36000, Note_on_c, 0, 55, 90
2, 36094, Note_off_c, 0, 87, 0
2, 36094, Note_off_c, 0, 55, 0
2, 36096, Note_on_c, 0, 86, 90
2, 36096, Note_on_c, 0, 60, 90
2, 36190, Note_off_c, 0, 86, 0
2, 36190, Note_off_c, 0, 60, 0
2, 36192, Note_on_c, 0, 84, 90
2, 36192, Note_on_c, 0, 67, 90
2, 36286, Note_off_c, 0, 84, 0
2, 36286, Note_off_c, 0, 67, 0
2, 36288, Note_on_c, 0, 83, 90
2, 36574, Note_off_c, 0, 83, 0
2, 36576, Note_on_c, 0, 84, 90
2, 36766, Note_off_c, 0, 84, 0
2, 36768, Note_on_c, 0, 80, 90
2, 36862, Note_off_c, 0, 80, 0
2, 36864, Note_on_c, 0, 72, 60
2, 37150, Note_off_c, 0, 72, 0
2, 37152, Note_on_c, 0, 76, 60
2, 37174, Note_off_c, 0, 76, 0
2, 37176, Note_on_c, 0, 74, 60
2, 37176, Note_on_c, 0, 71, 60
2, 37440, Note_on_c, 0, 72, 90
2, 37446, Note_off_c, 0, 71, 0
2, 37446, Note_off_c, 0, 74, 0
2, 37486, Note_off_c, 0, 72, 0
2, 37488, Note_on_c, 0, 79, 90
2, 37534, Note_off_c, 0, 79, 0
2, 37536, Note_on_c, 0, 78, 90
2, 37582, Note_off_c, 0, 78, 0
2, 37584, Note_on_c, 0, 79, 90
2, 37630, Note_off_c, 0, 79, 0
2, 37632, Note_on_c, 0, 81, 90
2, 37678, Note_off_c, 0, 81, 0
2, 37680, Note_on_c, 0, 79, 90
2, 37726, Note_off_c, 0, 79, 0
2, 37728, Note_on_c, 0, 77, 90
2, 37774, Note_off_c, 0, 77, 0
2, 37776, Note_on_c, 0, 79, 90
2, 37822, Note_off_c, 0, 79, 0
2, 37824, Note_on_c, 0, 77, 90
2, 37870, Note_off_c, 0, 77, 0
2, 37872, Note_on_c, 0, 79, 90
2, 37918, Note_off_c, 0, 79, 0
2, 37920, Note_on_c, 0, 77, 90
2, 37966, Note_off_c, 0, 77, 0
2, 37968, Note_on_c, 0, 79, 90
2, 38014, Note_off_c, 0, 79, 0
2, 38016, Note_on_c, 0, 76, 105
2, 38062, Note_off_c, 0, 76, 0
2, 38064, Note_on_c, 0, 79, 105
2, 38110, Note_off_c, 0, 79, 0
2, 38112, Note_on_c, 0, 78, 105
2, 38158, Note_off_c, 0, 78, 0
2, 38160, Note_on_c, 0, 79, 105
2, 38206, Note_off_c, 0, 79, 0
2, 38208, Note_on_c, 0, 84, 105
2, 38254, Note_off_c, 0, 84, 0
2, 38256, Note_on_c, 0, 79, 105
2, 38302, Note_off_c, 0, 79, 0
2, 38304, Note_on_c, 0, 77, 105
2, 38350, Note_off_c, 0, 77, 0
2, 38352, Note_on_c, 0, 79, 105
2, 38398, Note_off_c, 0, 79, 0
2, 38400, Note_on_c, 0, 77, 105
2, 38446, Note_off_c, 0, 77, 0
2, 38448, Note_on_c, 0, 79, 105
2, 38494, Note_off_c, 0, 79, 0
2, 38496, Note_on_c, 0, 77, 105
2, 38542, Note_off_c, 0, 77, 0
2, 38544, Note_on_c, 0, 79, 105
2, 38590, Note_off_c, 0, 79, 0
2, 38592, Note_on_c, 0, 76, 105
2, 38638, Note_off_c, 0, 76, 0
2, 38640, Note_on_c, 0, 79, 105
2, 38686, Note_off_c, 0, 79, 0
2, 38688, Note_on_c, 0, 78, 105
2, 38734, Note_off_c, 0, 78, 0
2, 38736, Note_on_c, 0, 79, 105
2, 38782, Note_off_c, 0, 79, 0
2, 38784, Note_on_c, 0, 84, 105
2, 38830, Note_off_c, 0, 84, 0
2, 38832, Note_on_c, 0, 79, 105
2, 38878, Note_off_c, 0, 79, 0
2, 38880, Note_on_c, 0, 77, 105
2, 38926, Note_off_c, 0, 77, 0
2, 38928, Note_on_c, 0, 79, 105
2, 38974, Note_off_c, 0, 79, 0
2, 38976, Note_on_c, 0, 77, 105
2, 39022, Note_off_c, 0, 77, 0
2, 39024, Note_on_c, 0, 79, 105
2, 39070, Note_off_c, 0, 79, 0
2, 39072, Note_on_c, 0, 77, 105
2, 39118, Note_off_c, 0, 77, 0
2, 39120, Note_on_c, 0, 79, 105
2, 39166, Note_off_c, 0, 79, 0
2, 39168, Note_on_c, 0, 76, 105
2, 39214, Note_off_c, 0, 76, 0
2, 39216, Note_on_c, 0, 79, 105
2, 39262, Note_off_c, 0, 79, 0
2, 39264, Note_on_c, 0, 84, 105
2, 39310, Note_off_c, 0, 84, 0
2, 39312, Note_on_c, 0, 76, 105
2, 39358, Note_off_c, 0, 76, 0
2, 39360, Note_on_c, 0, 74, 105
2, 39406, Note_off_c, 0, 74, 0
2, 39408, Note_on_c, 0, 83, 105
2, 39454, Note_off_c, 0, 83, 0
2, 39456, Note_on_c, 0, 72, 105
2, 39502, Note_off_c, 0, 72, 0
2, 39504, Note_on_c, 0, 81, 105
2, 39550, Note_off_c, 0, 81, 0
2, 39552, Note_on_c, 0, 71, 105
2, 39598, Note_off_c, 0, 71, 0
2, 39600, Note_on_c, 0, 79, 105
2, 39646, Note_off_c, 0, 79, 0
2, 39648, Note_on_c, 0, 69, 105
2, 39694, Note_off_c, 0, 69, 0
2, 39696, Note_on_c, 0, 77, 105
2, 39742, Note_off_c, 0, 77, 0
2, 39744, Note_on_c, 0, 67, 105
2, 39790, Note_off_c, 0, 67, 0
2, 39792, Note_on_c, 0, 76, 105
2, 39838, Note_off_c, 0, 76, 0
2, 39840, Note_on_c, 0, 65, 105
2, 39886, Note_off_c, 0, 65, 0
2, 39888, Note_on_c, 0, 74, 105
2, 39934, Note_off_c, 0, 74, 0
2, 39936, Note_on_c, 0, 64, 105
2, 39982, Note_off_c, 0, 64, 0
2, 39984, Note_on_c, 0, 72, 105
2, 40030, Note_off_c, 0, 72, 0
2, 40032, Note_on_c, 0, 62, 105
2, 40078, Note_off_c, 0, 62, 0
2, 40080, Note_on_c, 0, 71, 105
2, 40126, Note_off_c, 0, 71, 0
2, 40128, Note_on_c, 0, 60, 105
2, 40174, Note_off_c, 0, 60, 0
2, 40176, Note_on_c, 0, 69, 105
2, 40222, Note_off_c, 0, 69, 0
2, 40224, Note_on_c, 0, 59, 105
2, 40270, Note_off_c, 0, 59, 0
2, 40272, Note_on_c, 0, 67, 105
2, 40318, Note_off_c, 0, 67, 0
2, 40320, Note_on_c, 0, 66, 105
2, 40320, Note_on_c, 0, 57, 105
2, 40606, Note_off_c, 0, 66, 0
2, 40606, Note_off_c, 0, 57, 0
2, 40608, Note_on_c, 0, 65, 105
2, 40608, Note_on_c, 0, 56, 105
2, 40894, Note_off_c, 0, 65, 0
2, 40894, Note_off_c, 0, 56, 0
2, 40896, Note_on_c, 0, 77, 105
2, 40896, Note_on_c, 0, 68, 105
2, 41182, Note_off_c, 0, 77, 0
2, 41182, Note_off_c, 0, 68, 0
2, 41184, Note_on_c, 0, 71, 105
2, 41184, Note_on_c, 0, 62, 105
2, 41470, Note_off_c, 0, 71, 0
2, 41470, Note_off_c, 0, 62, 0
2, 41568, Note_on_c, 0, 79, 60
2, 41662, Note_off_c, 0, 79, 0
2, 41664, Note_on_c, 0, 79, 60
2, 41758, Note_off_c, 0, 79, 0
2, 41856, Note_on_c, 0, 81, 60
2, 41950, Note_off_c, 0, 81, 0
2, 41952, Note_on_c, 0, 81, 60
2, 42046, Note_off_c, 0, 81, 0
2, 42048, Note_on_c, 0, 72, 60
2, 42048, Note_on_c, 0, 67, 60
2, 42334, Note_off_c, 0, 72, 0
2, 42334, Note_off_c, 0, 67, 0
2, 42336, Note_on_c, 0, 76, 60
2, 42360, Note_on_c, 0, 71, 60
2, 42360, Note_on_c, 0, 74, 60
2, 42370, Note_off_c, 0, 76, 0
2, 42624, Note_on_c, 0, 72, 90
2, 42630, Note_off_c, 0, 71, 0
2, 42630, Note_off_c, 0, 74, 0
2, 42670, Note_off_c, 0, 72, 0
2, 42672, Note_on_c, 0, 79, 90
2, 42718, Note_off_c, 0, 79, 0
2, 42720, Note_on_c, 0, 78, 90
2, 42766, Note_off_c, 0, 78, 0
2, 42768, Note_on_c, 0, 79, 90
2, 42814, Note_off_c, 0, 79, 0
2, 42816, Note_on_c, 0, 81, 90
2, 42862, Note_off_c, 0, 81, 0
2, 42864, Note_on_c, 0, 79, 90
2, 42910, Note_off_c, 0, 79, 0
2, 42912, Note_on_c, 0, 77, 90
2, 42958, Note_off_c, 0, 77, 0
2, 42960, Note_on_c, 0, 79, 90
2, 43006, Note_off_c, 0, 79, 0
2, 43020, Note_on_c, 0, 77, 90
2, 43056, Note_on_c, 0, 79, 90
2, 43066, Note_off_c, 0, 77, 0
2, 43102, Note_off_c, 0, 79, 0
2, 43104, Note_on_c, 0, 77, 90
2, 43150, Note_off_c, 0, 77, 0
2, 43152, Note_on_c, 0, 79, 90
2, 43198, Note_off_c, 0, 79, 0
2, 43200, Note_on_c, 0, 76, 105
2, 43246, Note_off_c, 0, 76, 0
2, 43248, Note_on_c, 0, 79, 105
2, 43294, Note_off_c, 0, 79, 0
2, 43296, Note_on_c, 0, 78, 105
2, 43342, Note_off_c, 0, 78, 0
2, 43344, Note_on_c, 0, 79, 105
2, 43390, Note_off_c, 0, 79, 0
2, 43392, Note_on_c, 0, 84, 105
2, 43438, Note_off_c, 0, 84, 0
2, 43440, Note_on_c, 0, 79, 105
2, 43486, Note_off_c, 0, 79, 0
2, 43488, Note_on_c, 0, 77, 105
2, 43534, Note_off_c, 0, 77, 0
2, 43536, Note_on_c, 0, 79, 105
2, 43582, Note_off_c, 0, 79, 0
2, 43584, Note_on_c, 0, 77, 105
2, 43630, Note_off_c, 0, 77, 0
2, 43632, Note_on_c, 0, 79, 105
2, 43678, Note_off_c, 0, 79, 0
2, 43680, Note_on_c, 0, 77, 105
2, 43726, Note_off_c, 0, 77, 0
2, 43728, Note_on_c, 0, 79, 105
2, 43774, Note_off_c, 0, 79, 0
2, 43776, Note_on_c, 0, 76, 105
2, 43822, Note_off_c, 0, 76, 0
2, 43824, Note_on_c, 0, 79, 105
2, 43870, Note_off_c, 0, 79, 0
2, 43872, Note_on_c, 0, 78, 105
2, 43918, Note_off_c, 0, 78, 0
2, 43920, Note_on_c, 0, 79, 105
2, 43966, Note_off_c, 0, 79, 0
2, 43968, Note_on_c, 0, 84, 105
2, 44014, Note_off_c, 0, 84, 0
2, 44016, Note_on_c, 0, 79, 105
2, 44062, Note_off_c, 0, 79, 0
2, 44064, Note_on_c, 0, 77, 105
2, 44110, Note_off_c, 0, 77, 0
2, 44112, Note_on_c, 0, 79, 105
2, 44158, Note_off_c, 0, 79, 0
2, 44160, Note_on_c, 0, 77, 105
2, 44206, Note_off_c, 0, 77, 0
2, 44208, Note_on_c, 0, 79, 105
2, 44254, Note_off_c, 0, 79, 0
2, 44256, Note_on_c, 0, 77, 105
2, 44302, Note_off_c, 0, 77, 0
2, 44304, Note_on_c, 0, 79, 105
2, 44350, Note_off_c, 0, 79, 0
2, 44352, Note_on_c, 0, 76, 105
2, 44398, Note_off_c, 0, 76, 0
2, 44400, Note_on_c, 0, 79, 105
2, 44446, Note_off_c, 0, 79, 0
2, 44448, Note_on_c, 0, 84, 105
2, 44494, Note_off_c, 0, 84, 0
2, 44496, Note_on_c, 0, 76, 105
2, 44542, Note_off_c, 0, 76, 0
2, 44544, Note_on_c, 0, 74, 105
2, 44590, Note_off_c, 0, 74, 0
2, 44592, Note_on_c, 0, 83, 105
2, 44638, Note_off_c, 0, 83, 0
2, 44640, Note_on_c, 0, 72, 105
2, 44686, Note_off_c, 0, 72, 0
2, 44688, Note_on_c, 0, 81, 105
2, 44734, Note_off_c, 0, 81, 0
2, 44736, Note_on_c, 0, 71, 105
2, 44782, Note_off_c, 0, 71, 0
2, 44784, Note_on_c, 0, 79, 105
2, 44830, Note_off_c, 0, 79, 0
2, 44832, Note_on_c, 0, 69, 105
2, 44878, Note_off_c, 0, 69, 0
2, 44880, Note_on_c, 0, 77, 105
2, 44926, Note_off_c, 0, 77, 0
2, 44928, Note_on_c, 0, 67, 105
2, 44974, Note_off_c, 0, 67, 0
2, 44976, Note_on_c, 0, 76, 105
2, 45022, Note_off_c, 0, 76, 0
2, 45024, Note_on_c, 0, 65, 105
2, 45070, Note_off_c, 0, 65, 0
2, 45072, Note_on_c, 0, 74, 105
2, 45118, Note_off_c, 0, 74, 0
2, 45120, Note_on_c, 0, 64, 105
2, 45166, Note_off_c, 0, 64, 0
2, 45168, Note_on_c, 0, 72, 105
2, 45214, Note_off_c, 0, 72, 0
2, 45216, Note_on_c, 0, 62, 105
2, 45264, Note_on_c, 0, 71, 105
2, 45308, Note_off_c, 0, 62, 0
2, 45312, Note_on_c, 0, 60, 105
2, 45356, Note_off_c, 0, 71, 0
2, 45360, Note_on_c, 0, 69, 105
2, 45404, Note_off_c, 0, 60, 0
2, 45406, Note_off_c, 0, 69, 0
2, 45408, Note_on_c, 0, 58, 105
2, 45454, Note_off_c, 0, 58, 0
2, 45456, Note_on_c, 0, 67, 105
2, 45502, Note_off_c, 0, 67, 0
2, 45504, Note_on_c, 0, 66, 105
2, 45504, Note_on_c, 0, 57, 105
2, 45790, Note_off_c, 0, 66, 0
2, 45790, Note_off_c, 0, 57, 0
2, 45792, Note_on_c, 0, 65, 105
2, 45792, Note_on_c, 0, 56, 105
2, 46078, Note_off_c, 0, 65, 0
2, 46078, Note_off_c, 0, 56, 0
2, 46080, Note_on_c, 0, 77, 105
2, 46080, Note_on_c, 0, 68, 105
2, 46366, Note_off_c, 0, 77, 0
2, 46366, Note_off_c, 0, 68, 0
2, 46368, Note_on_c, 0, 71, 105
2, 46368, Note_on_c, 0, 62, 105
2, 46654, Note_off_c, 0, 71, 0
2, 46654, Note_off_c, 0, 62, 0
2, 46752, Note_on_c, 0, 79, 60
2, 46846, Note_off_c, 0, 79, 0
2, 46848, Note_on_c, 0, 79, 60
2, 46942, Note_off_c, 0, 79, 0
2, 47028, Note_on_c, 0, 81, 60
2, 47122, Note_off_c, 0, 81, 0
2, 47136, Note_on_c, 0, 81, 60
2, 47230, Note_off_c, 0, 81, 0
2, 47232, Note_on_c, 0, 72, 60
2, 47232, Note_on_c, 0, 67, 60
2, 47518, Note_off_c, 0, 72, 0
2, 47520, Note_on_c, 0, 71, 60
2, 47806, Note_off_c, 0, 67, 0
2, 47806, Note_off_c, 0, 71, 0
2, 47808, Note_on_c, 0, 78, 90
2, 47854, Note_off_c, 0, 78, 0
2, 47856, Note_on_c, 0, 79, 90
2, 47902, Note_off_c, 0, 79, 0
2, 47904, Note_on_c, 0, 78, 90
2, 47950, Note_off_c, 0, 78, 0
2, 47952, Note_on_c, 0, 79, 90
2, 47998, Note_off_c, 0, 79, 0
2, 48000, Note_on_c, 0, 78, 90
2, 48046, Note_off_c, 0, 78, 0
2, 48048, Note_on_c, 0, 79, 90
2, 48094, Note_off_c, 0, 79, 0
2, 48096, Note_on_c, 0, 80, 90
2, 48142, Note_off_c, 0, 80, 0
2, 48144, Note_on_c, 0, 81, 90
2, 48190, Note_off_c, 0, 81, 0
2, 48192, Note_on_c, 0, 80, 90
2, 48238, Note_off_c, 0, 80, 0
2, 48240, Note_on_c, 0, 81, 90
2, 48286, Note_off_c, 0, 81, 0
2, 48288, Note_on_c, 0, 83, 90
2, 48334, Note_off_c, 0, 83, 0
2, 48336, Note_on_c, 0, 84, 90
2, 48382, Note_off_c, 0, 84, 0
2, 48384, Note_on_c, 0, 72, 60
2, 48670, Note_off_c, 0, 72, 0
2, 48672, Note_on_c, 0, 76, 60
2, 48694, Note_off_c, 0, 76, 0
2, 48696, Note_on_c, 0, 74, 60
2, 48696, Note_on_c, 0, 71, 60
2, 48864, Note_on_c, 0, 74, 60
2, 48886, Note_off_c, 0, 74, 0
2, 48910, Note_off_c, 0, 74, 0
2, 48912, Note_on_c, 0, 72, 60
2, 48958, Note_off_c, 0, 72, 0
2, 48960, Note_on_c, 0, 72, 90
2, 48966, Note_off_c, 0, 71, 0
2, 49006, Note_off_c, 0, 72, 0
2, 49008, Note_on_c, 0, 76, 90
2, 49054, Note_off_c, 0, 76, 0
2, 49056, Note_on_c, 0, 79, 90
2, 49102, Note_off_c, 0, 79, 0
2, 49104, Note_on_c, 0, 84, 90
2, 49150, Note_off_c, 0, 84, 0
2, 49152, Note_on_c, 0, 83, 90
2, 49198, Note_off_c, 0, 83, 0
2, 49200, Note_on_c, 0, 81, 90
2, 49246, Note_off_c, 0, 81, 0
2, 49248, Note_on_c, 0, 79, 90
2, 49294, Note_off_c, 0, 79, 0
2, 49296, Note_on_c, 0, 81, 90
2, 49342, Note_off_c, 0, 81, 0
2, 49344, Note_on_c, 0, 79, 90
2, 49390, Note_off_c, 0, 79, 0
2, 49392, Note_on_c, 0, 77, 90
2, 49438, Note_off_c, 0, 77, 0
2, 49440, Note_on_c, 0, 76, 90
2, 49486, Note_off_c, 0, 76, 0
2, 49488, Note_on_c, 0, 74, 90
2, 49534, Note_off_c, 0, 74, 0
2, 49536, Note_on_c, 0, 72, 90
2, 49582, Note_off_c, 0, 72, 0
2, 49584, Note_on_c, 0, 76, 90
2, 49630, Note_off_c, 0, 76, 0
2, 49632, Note_on_c, 0, 74, 90
2, 49678, Note_off_c, 0, 74, 0
2, 49680, Note_on_c, 0, 72, 90
2, 49726, Note_off_c, 0, 72, 0
2, 49728, Note_on_c, 0, 71, 90
2, 49774, Note_off_c, 0, 71, 0
2, 49776, Note_on_c, 0, 69, 90
2, 49822, Note_off_c, 0, 69, 0
2, 49824, Note_on_c, 0, 67, 90
2, 49870, Note_off_c, 0, 67, 0
2, 49872, Note_on_c, 0, 69, 90
2, 49918, Note_off_c, 0, 69, 0
2, 49920, Note_on_c, 0, 67, 90
2, 49966, Note_off_c, 0, 67, 0
2, 49968, Note_on_c, 0, 65, 90
2, 50014, Note_off_c, 0, 65, 0
2, 50016, Note_on_c, 0, 64, 90
2, 50062, Note_off_c, 0, 64, 0
2, 50064, Note_on_c, 0, 62, 90
2, 50110, Note_off_c, 0, 62, 0
2, 50112, Note_on_c, 0, 60, 90
2, 50158, Note_off_c, 0, 60, 0
2, 50160, Note_on_c, 0, 64, 90
2, 50206, Note_off_c, 0, 64, 0
2, 50208, Note_on_c, 0, 62, 90
2, 50254, Note_off_c, 0, 62, 0
2, 50256, Note_on_c, 0, 60, 90
2, 50302, Note_off_c, 0, 60, 0
2, 50304, Note_on_c, 0, 59, 90
2, 50350, Note_off_c, 0, 59, 0
2, 50352, Note_on_c, 0, 57, 90
2, 50398, Note_off_c, 0, 57, 0
2, 50976, Note_on_c, 0, 60, 90
2, 51070, Note_off_c, 0, 60, 0
2, 51072, Note_on_c, 0, 64, 90
2, 51166, Note_off_c, 0, 64, 0
2, 51168, Note_on_c, 0, 67, 90
2, 51262, Note_off_c, 0, 67, 0
2, 51264, Note_on_c, 0, 72, 99
2, 51454, Note_off_c, 0, 72, 0
2, 51552, Note_on_c, 0, 79, 99
2, 51552, Note_on_c, 0, 76, 99
2, 51552, Note_on_c, 0, 72, 99
2, 51552, Note_on_c, 0, 67, 99
2, 51742, Note_off_c, 0, 79, 0
2, 51742, Note_off_c, 0, 76, 0
2, 51742, Note_off_c, 0, 72, 0
2, 51742, Note_off_c, 0, 67, 0
2, 51840, Note_on_c, 0, 84, 99
2, 51840, Note_on_c, 0, 79, 99
2, 51840, Note_on_c, 0, 76, 99
2, 51840, Note_on_c, 0, 72, 99
2, 52030, Note_off_c, 0, 84, 0
2, 52030, Note_off_c, 0, 79, 0
2, 52030, Note_off_c, 0, 76, 0
2, 52030, Note_off_c, 0, 72, 0
2, 52464, Note_on_c, 0, 84, 90
2, 52510, Note_off_c, 0, 84, 0
2, 52512, Note_on_c, 0, 83, 90
2, 52558, Note_off_c, 0, 83, 0
2, 52560, Note_on_c, 0, 84, 90
2, 52606, Note_off_c, 0, 84, 0
2, 52608, Note_on_c, 0, 89, 90
2, 52654, Note_off_c, 0, 89, 0
2, 52656, Note_on_c, 0, 84, 90
2, 52702, Note_off_c, 0, 84, 0
2, 52704, Note_on_c, 0, 82, 90
2, 52750, Note_off_c, 0, 82, 0
2, 52752, Note_on_c, 0, 81, 90
2, 52798, Note_off_c, 0, 81, 0
2, 52800, Note_on_c, 0, 80, 90
2, 52846, Note_off_c, 0, 80, 0
2, 52848, Note_on_c, 0, 81, 90
2, 52894, Note_off_c, 0, 81, 0
2, 52896, Note_on_c, 0, 84, 90
2, 52942, Note_off_c, 0, 84, 0
2, 52944, Note_on_c, 0, 81, 90
2, 52990, Note_off_c, 0, 81, 0
2, 52992, Note_on_c, 0, 79, 90
2, 53038, Note_off_c, 0, 79, 0
2, 53040, Note_on_c, 0, 77, 90
2, 53086, Note_off_c, 0, 77, 0
2, 53088, Note_on_c, 0, 76, 90
2, 53134, Note_off_c, 0, 76, 0
2, 53136, Note_on_c, 0, 77, 90
2, 53182, Note_off_c, 0, 77, 0
2, 53184, Note_on_c, 0, 81, 90
2, 53230, Note_off_c, 0, 81, 0
2, 53232, Note_on_c, 0, 77, 90
2, 53278, Note_off_c, 0, 77, 0
2, 53280, Note_on_c, 0, 74, 90
2, 53326, Note_off_c, 0, 74, 0
2, 53328, Note_on_c, 0, 72, 90
2, 53374, Note_off_c, 0, 72, 0
2, 53376, Note_on_c, 0, 71, 90
2, 53422, Note_off_c, 0, 71, 0
2, 53424, Note_on_c, 0, 72, 90
2, 53470, Note_off_c, 0, 72, 0
2, 53472, Note_on_c, 0, 77, 90
2, 53518, Note_off_c, 0, 77, 0
2, 53520, Note_on_c, 0, 72, 90
2, 53566, Note_off_c, 0, 72, 0
2, 53568, Note_on_c, 0, 70, 90
2, 53614, Note_off_c, 0, 70, 0
2, 53616, Note_on_c, 0, 69, 90
2, 53662, Note_off_c, 0, 69, 0
2, 53664, Note_on_c, 0, 68, 90
2, 53710, Note_off_c, 0, 68, 0
2, 53712, Note_on_c, 0, 69, 90
2, 53758, Note_off_c, 0, 69, 0
2, 53760, Note_on_c, 0, 72, 90
2, 53806, Note_off_c, 0, 72, 0
2, 53808, Note_on_c, 0, 69, 90
2, 53854, Note_off_c, 0, 69, 0
2, 53856, Note_on_c, 0, 65, 90
2, 53902, Note_off_c, 0, 65, 0
2, 53904, Note_on_c, 0, 77, 90
2, 53950, Note_off_c, 0, 77, 0
2, 53952, Note_on_c, 0, 64, 90
2, 53998, Note_off_c, 0, 64, 0
2, 54000, Note_on_c, 0, 77, 90
2, 54046, Note_off_c, 0, 77, 0
2, 54048, Note_on_c, 0, 65, 90
2, 54094, Note_off_c, 0, 65, 0
2, 54096, Note_on_c, 0, 77, 90
2, 54142, Note_off_c, 0, 77, 0
2, 54144, Note_on_c, 0, 67, 90
2, 54190, Note_off_c, 0, 67, 0
2, 54192, Note_on_c, 0, 77, 90
2, 54238, Note_off_c, 0, 77, 0
2, 54240, Note_on_c, 0, 65, 90
2, 54286, Note_off_c, 0, 65, 0
2, 54288, Note_on_c, 0, 77, 90
2, 54334, Note_off_c, 0, 77, 0
2, 54336, Note_on_c, 0, 67, 90
2, 54382, Note_off_c, 0, 67, 0
2, 54384, Note_on_c, 0, 77, 90
2, 54430, Note_off_c, 0, 77, 0
2, 54432, Note_on_c, 0, 69, 90
2, 54478, Note_off_c, 0, 69, 0
2, 54480, Note_on_c, 0, 77, 90
2, 54526, Note_off_c, 0, 77, 0
2, 54528, Note_on_c, 0, 67, 90
2, 54574, Note_off_c, 0, 67, 0
2, 54576, Note_on_c, 0, 77, 90
2, 54622, Note_off_c, 0, 77, 0
2, 54624, Note_on_c, 0, 69, 90
2, 54670, Note_off_c, 0, 69, 0
2, 54672, Note_on_c, 0, 77, 90
2, 54718, Note_off_c, 0, 77, 0
2, 54720, Note_on_c, 0, 70, 99
2, 54766, Note_off_c, 0, 70, 0
2, 54768, Note_on_c, 0, 77, 93
2, 54814, Note_off_c, 0, 77, 0
2, 54816, Note_on_c, 0, 70, 87
2, 54862, Note_off_c, 0, 70, 0
2, 54864, Note_on_c, 0, 77, 84
2, 54910, Note_off_c, 0, 77, 0
2, 54912, Note_on_c, 0, 69, 81
2, 54958, Note_off_c, 0, 69, 0
2, 54960, Note_on_c, 0, 77, 78
2, 55006, Note_off_c, 0, 77, 0
2, 55008, Note_on_c, 0, 70, 99
2, 55054, Note_off_c, 0, 70, 0
2, 55056, Note_on_c, 0, 77, 93
2, 55102, Note_off_c, 0, 77, 0
2, 55104, Note_on_c, 0, 70, 87
2, 55150, Note_off_c, 0, 70, 0
2, 55152, Note_on_c, 0, 77, 84
2, 55198, Note_off_c, 0, 77, 0
2, 55200, Note_on_c, 0, 69, 81
2, 55246, Note_off_c, 0, 69, 0
2, 55248, Note_on_c, 0, 77, 78
2, 55294, Note_off_c, 0, 77, 0
2, 55296, Note_on_c, 0, 69, 60
2, 55342, Note_off_c, 0, 69, 0
2, 55344, Note_on_c, 0, 77, 60
2, 55390, Note_off_c, 0, 77, 0
2, 55392, Note_on_c, 0, 69, 60
2, 55438, Note_off_c, 0, 69, 0
2, 55440, Note_on_c, 0, 77, 60
2, 55486, Note_off_c, 0, 77, 0
2, 55488, Note_on_c, 0, 69, 60
2, 55534, Note_off_c, 0, 69, 0
2, 55536, Note_on_c, 0, 77, 60
2, 55582, Note_off_c, 0, 77, 0
2, 55584, Note_on_c, 0, 76, 60
2, 55584, Note_on_c, 0, 67, 60
2, 55678, Note_off_c, 0, 76, 0
2, 55678, Note_off_c, 0, 67, 0
2, 55920, Note_on_c, 0, 84, 90
2, 55966, Note_off_c, 0, 84, 0
2, 55968, Note_on_c, 0, 83, 90
2, 56014, Note_off_c, 0, 83, 0
2, 56016, Note_on_c, 0, 84, 90
2, 56062, Note_off_c, 0, 84, 0
2, 56064, Note_on_c, 0, 89, 90
2, 56110, Note_off_c, 0, 89, 0
2, 56112, Note_on_c, 0, 84, 90
2, 56158, Note_off_c, 0, 84, 0
2, 56160, Note_on_c, 0, 82, 90
2, 56206, Note_off_c, 0, 82, 0
2, 56208, Note_on_c, 0, 81, 90
2, 56254, Note_off_c, 0, 81, 0
2, 56256, Note_on_c, 0, 80, 90
2, 56302, Note_off_c, 0, 80, 0
2, 56304, Note_on_c, 0, 81, 90
2, 56350, Note_off_c, 0, 81, 0
2, 56352, Note_on_c, 0, 84, 90
2, 56398, Note_off_c, 0, 84, 0
2, 56400, Note_on_c, 0, 81, 90
2, 56446, Note_off_c, 0, 81, 0
2, 56448, Note_on_c, 0, 79, 90
2, 56494, Note_off_c, 0, 79, 0
2, 56496, Note_on_c, 0, 77, 90
2, 56542, Note_off_c, 0, 77, 0
2, 56544, Note_on_c, 0, 76, 90
2, 56590, Note_off_c, 0, 76, 0
2, 56592, Note_on_c, 0, 77, 90
2, 56638, Note_off_c, 0, 77, 0
2, 56640, Note_on_c, 0, 81, 90
2, 56686, Note_off_c, 0, 81, 0
2, 56688, Note_on_c, 0, 77, 90
2, 56734, Note_off_c, 0, 77, 0
2, 56736, Note_on_c, 0, 74, 90
2, 56782, Note_off_c, 0, 74, 0
2, 56784, Note_on_c, 0, 72, 90
2, 56830, Note_off_c, 0, 72, 0
2, 56832, Note_on_c, 0, 71, 90
2, 56878, Note_off_c, 0, 71, 0
2, 56880, Note_on_c, 0, 72, 90
2, 56926, Note_off_c, 0, 72, 0
2, 56928, Note_on_c, 0, 77, 90
2, 56974, Note_off_c, 0, 77, 0
2, 56976, Note_on_c, 0, 72, 90
2, 57022, Note_off_c, 0, 72, 0
2, 57024, Note_on_c, 0, 70, 90
2, 57070, Note_off_c, 0, 70, 0
2, 57072, Note_on_c, 0, 69, 90
2, 57118, Note_off_c, 0, 69, 0
2, 57120, Note_on_c, 0, 68, 90
2, 57166, Note_off_c, 0, 68, 0
2, 57168, Note_on_c, 0, 69, 90
2, 57214, Note_off_c, 0, 69, 0
2, 57216, Note_on_c, 0, 72, 90
2, 57262, Note_off_c, 0, 72, 0
2, 57264, Note_on_c, 0, 69, 90
2, 57310, Note_off_c, 0, 69, 0
2, 57312, Note_on_c, 0, 65, 90
2, 57358, Note_off_c, 0, 65, 0
2, 57360, Note_on_c, 0, 77, 90
2, 57406, Note_off_c, 0, 77, 0
2, 57408, Note_on_c, 0, 64, 90
2, 57454, Note_off_c, 0, 64, 0
2, 57456, Note_on_c, 0, 77, 90
2, 57502, Note_off_c, 0, 77, 0
2, 57504, Note_on_c, 0, 65, 90
2, 57550, Note_off_c, 0, 65, 0
2, 57552, Note_on_c, 0, 77, 90
2, 57598, Note_off_c, 0, 77, 0
2, 57600, Note_on_c, 0, 67, 90
2, 57646, Note_off_c, 0, 67, 0
2, 57648, Note_on_c, 0, 77, 90
2, 57694, Note_off_c, 0, 77, 0
2, 57696, Note_on_c, 0, 65, 90
2, 57742, Note_off_c, 0, 65, 0
2, 57744, Note_on_c, 0, 77, 90
2, 57790, Note_off_c, 0, 77, 0
2, 57792, Note_on_c, 0, 67, 90
2, 57838, Note_off_c, 0, 67, 0
2, 57840, Note_on_c, 0, 77, 90
2, 57886, Note_off_c, 0, 77, 0
2, 57888, Note_on_c, 0, 69, 90
2, 57934, Note_off_c, 0, 69, 0
2, 57936, Note_on_c, 0, 77, 90
2, 57982, Note_off_c, 0, 77, 0
2, 57984, Note_on_c, 0, 67, 90
2, 58030, Note_off_c, 0, 67, 0
2, 58032, Note_on_c, 0, 77, 90
2, 58078, Note_off_c, 0, 77, 0
2, 58080, Note_on_c, 0, 69, 90
2, 58126, Note_off_c, 0, 69, 0
2, 58128, Note_on_c, 0, 77, 90
2, 58174, Note_off_c, 0, 77, 0
2, 58176, Note_on_c, 0, 70, 99
2, 58222, Note_off_c, 0, 70, 0
2, 58224, Note_on_c, 0, 77, 93
2, 58270, Note_off_c, 0, 77, 0
2, 58272, Note_on_c, 0, 70, 87
2, 58318, Note_off_c, 0, 70, 0
2, 58320, Note_on_c, 0, 77, 84
2, 58366, Note_off_c, 0, 77, 0
2, 58368, Note_on_c, 0, 69, 81
2, 58414, Note_off_c, 0, 69, 0
2, 58416, Note_on_c, 0, 77, 78
2, 58462, Note_off_c, 0, 77, 0
2, 58464, Note_on_c, 0, 70, 99
2, 58510, Note_off_c, 0, 70, 0
2, 58512, Note_on_c, 0, 77, 93
2, 58558, Note_off_c, 0, 77, 0
2, 58560, Note_on_c, 0, 70, 87
2, 58606, Note_off_c, 0, 70, 0
2, 58608, Note_on_c, 0, 77, 84
2, 58654, Note_off_c, 0, 77, 0
2, 58656, Note_on_c, 0, 69, 81
2, 58702, Note_off_c, 0, 69, 0
2, 58704, Note_on_c, 0, 77, 78
2, 58750, Note_off_c, 0, 77, 0
2, 58752, Note_on_c, 0, 68, 60
2, 58798, Note_off_c, 0, 68, 0
2, 58800, Note_on_c, 0, 77, 60
2, 58846, Note_off_c, 0, 77, 0
2, 59040, Note_on_c, 0, 67, 60
2, 59086, Note_off_c, 0, 67, 0
2, 59088, Note_on_c, 0, 76, 60
2, 59134, Note_off_c, 0, 76, 0
2, 59328, Note_on_c, 0, 66, 60
2, 59374, Note_off_c, 0, 66, 0
2, 59376, Note_on_c, 0, 75, 60
2, 59422, Note_off_c, 0, 75, 0
2, 59712, Note_on_c, 0, 62, 90
2, 59758, Note_off_c, 0, 62, 0
2, 59760, Note_on_c, 0, 67, 90
2, 59806, Note_off_c, 0, 67, 0
2, 59808, Note_on_c, 0, 70, 90
2, 59854, Note_off_c, 0, 70, 0
2, 59856, Note_on_c, 0, 74, 90
2, 59902, Note_off_c, 0, 74, 0
2, 59904, Note_on_c, 0, 72, 90
2, 59950, Note_off_c, 0, 72, 0
2, 59952, Note_on_c, 0, 70, 90
2, 59998, Note_off_c, 0, 70, 0
2, 60000, Note_on_c, 0, 69, 90
2, 60046, Note_off_c, 0, 69, 0
2, 60048, Note_on_c, 0, 67, 90
2, 60094, Note_off_c, 0, 67, 0
2, 60096, Note_on_c, 0, 65, 90
2, 60142, Note_off_c, 0, 65, 0
2, 60144, Note_on_c, 0, 64, 90
2, 60190, Note_off_c, 0, 64, 0
2, 60192, Note_on_c, 0, 65, 90
2, 60286, Note_off_c, 0, 65, 0
2, 60288, Note_on_c, 0, 60, 60
2, 60382, Note_off_c, 0, 60, 0
2, 60384, Note_on_c, 0, 60, 60
2, 60478, Note_off_c, 0, 60, 0
2, 60480, Note_on_c, 0, 64, 60
2, 60502, Note_off_c, 0, 64, 0
2, 60504, Note_on_c, 0, 70, 60
2, 60768, Note_on_c, 0, 70, 60
2, 60790, Note_off_c, 0, 70, 0
2, 60862, Note_off_c, 0, 70, 0
2, 60864, Note_on_c, 0, 69, 60
2, 60958, Note_off_c, 0, 69, 0
2, 60960, Note_on_c, 0, 67, 60
2, 61054, Note_off_c, 0, 67, 0
2, 61056, Note_on_c, 0, 67, 60
2, 61078, Note_off_c, 0, 67, 0
2, 61080, Note_on_c, 0, 65, 60
2, 61344, Note_on_c, 0, 65, 60
2, 61366, Note_off_c, 0, 65, 0
2, 61630, Note_off_c, 0, 65, 0
2, 61632, Note_on_c, 0, 64, 60
2, 61654, Note_off_c, 0, 64, 0
2, 61656, Note_on_c, 0, 70, 60
2, 61920, Note_on_c, 0, 70, 60
2, 61942, Note_off_c, 0, 70, 0
2, 62014, Note_off_c, 0, 70, 0
2, 62016, Note_on_c, 0, 69, 60
2, 62110, Note_off_c, 0, 69, 0
2, 62112, Note_on_c, 0, 67, 60
2, 62206, Note_off_c, 0, 67, 0
2, 62208, Note_on_c, 0, 71, 90
2, 62494, Note_off_c, 0, 71, 0
2, 62496, Note_on_c, 0, 72, 60
2, 62590, Note_off_c, 0, 72, 0
2, 62784, Note_on_c, 0, 64, 60
2, 62806, Note_off_c, 0, 64, 0
2, 62808, Note_on_c, 0, 70, 60
2, 63072, Note_on_c, 0, 70, 60
2, 63094, Note_off_c, 0, 70, 0
2, 63166, Note_off_c, 0, 70, 0
2, 63168, Note_on_c, 0, 69, 60
2, 63262, Note_off_c, 0, 69, 0
2, 63264, Note_on_c, 0, 67, 60
2, 63358, Note_off_c, 0, 67, 0
2, 63360, Note_on_c, 0, 65, 60
2, 63550, Note_off_c, 0, 65, 0
2, 63552, Note_on_c, 0, 69, 90
2, 63646, Note_off_c, 0, 69, 0
2, 63648, Note_on_c, 0, 69, 60
2, 63838, Note_off_c, 0, 69, 0
2, 63840, Note_on_c, 0, 72, 90
2, 63934, Note_off_c, 0, 72, 0
2, 63936, Note_on_c, 0, 72, 60
2, 64126, Note_off_c, 0, 72, 0
2, 64128, Note_on_c, 0, 72, 90
2, 64222, Note_off_c, 0, 72, 0
2, 64224, Note_on_c, 0, 72, 60
2, 64414, Note_off_c, 0, 72, 0
2, 64416, Note_on_c, 0, 70, 60
2, 64510, Note_off_c, 0, 70, 0
2, 64512, Note_on_c, 0, 65, 60
2, 64606, Note_off_c, 0, 65, 0
2, 64716, Note_on_c, 0, 57, 90
2, 64800, Note_on_c, 0, 58, 90
2, 64810, Note_off_c, 0, 57, 0
2, 64894, Note_off_c, 0, 58, 0
2, 64896, Note_on_c, 0, 67, 90
2, 64990, Note_off_c, 0, 67, 0
2, 64992, Note_on_c, 0, 59, 90
2, 65086, Note_off_c, 0, 59, 0
2, 65088, Note_on_c, 0, 60, 90
2, 65182, Note_off_c, 0, 60, 0
2, 65184, Note_on_c, 0, 69, 90
2, 65278, Note_off_c, 0, 69, 0
2, 65280, Note_on_c, 0, 61, 90
2, 65374, Note_off_c, 0, 61, 0
2, 65376, Note_on_c, 0, 62, 90
2, 65470, Note_off_c, 0, 62, 0
2, 65472, Note_on_c, 0, 70, 90
2, 65566, Note_off_c, 0, 70, 0
2, 65568, Note_on_c, 0, 64, 90
2, 65662, Note_off_c, 0, 64, 0
2, 65664, Note_on_c, 0, 82, 90
2, 65950, Note_off_c, 0, 82, 0
2, 65952, Note_on_c, 0, 82, 90
2, 65952, Note_on_c, 0, 67, 90
2, 65952, Note_on_c, 0, 64, 90
2, 65952, Note_on_c, 0, 58, 90
2, 65952, Note_on_c, 0, 60, 90
2, 66046, Note_off_c, 0, 82, 0
2, 66048, Note_on_c, 0, 81, 90
2, 66094, Note_off_c, 0, 81, 0
2, 66096, Note_on_c, 0, 79, 90
2, 66142, Note_off_c, 0, 79, 0
2, 66144, Note_on_c, 0, 77, 90
2, 66190, Note_off_c, 0, 77, 0
2, 66192, Note_on_c, 0, 76, 90
2, 66238, Note_off_c, 0, 67, 0
2, 66238, Note_off_c, 0, 64, 0
2, 66238, Note_off_c, 0, 58, 0
2, 66238, Note_off_c, 0, 60, 0
2, 66238, Note_off_c, 0, 76, 0
2, 66240, Note_on_c, 0, 77, 90
2, 66240, Note_on_c, 0, 65, 90
2, 66240, Note_on_c, 0, 60, 90
2, 66240, Note_on_c, 0, 57, 90
2, 66334, Note_off_c, 0, 77, 0
2, 66334, Note_off_c, 0, 65, 0
2, 66334, Note_off_c, 0, 60, 0
2, 66334, Note_off_c, 0, 57, 0
2, 66336, Note_on_c, 0, 79, 90
2, 66430, Note_off_c, 0, 79, 0
2, 66432, Note_on_c, 0, 81, 90
2, 66526, Note_off_c, 0, 81, 0
2, 66528, Note_on_c, 0, 72, 60
2, 66528, Note_on_c, 0, 69, 60
2, 66528, Note_on_c, 0, 60, 60
2, 66718, Note_off_c, 0, 72, 0
2, 66718, Note_off_c, 0, 69, 0
2, 66718, Note_off_c, 0, 60, 0
2, 66720, Note_on_c, 0, 67, 60
2, 66720, Note_on_c, 0, 70, 60
2, 66720, Note_on_c, 0, 61, 60
2, 66814, Note_off_c, 0, 67, 0
2, 66814, Note_off_c, 0, 70, 0
2, 66814, Note_off_c, 0, 61, 0
2, 66816, Note_on_c, 0, 70, 60
2, 66816, Note_on_c, 0, 67, 60
2, 66816, Note_on_c, 0, 62, 60
2, 67102, Note_off_c, 0, 70, 0
2, 67102, Note_off_c, 0, 67, 0
2, 67102, Note_off_c, 0, 62, 0
2, 67104, Note_on_c, 0, 69, 60
2, 67104, Note_on_c, 0, 65, 60
2, 67104, Note_on_c, 0, 62, 60
2, 67198, Note_off_c, 0, 69, 0
2, 67198, Note_off_c, 0, 65, 0
2, 67198, Note_off_c, 0, 62, 0
2, 67584, Note_on_c, 0, 57, 90
2, 67678, Note_off_c, 0, 57, 0
2, 67680, Note_on_c, 0, 58, 90
2, 67774, Note_off_c, 0, 58, 0
2, 67776, Note_on_c, 0, 67, 90
2, 67870, Note_off_c, 0, 67, 0
2, 67872, Note_on_c, 0, 59, 90
2, 67966, Note_off_c, 0, 59, 0
2, 67968, Note_on_c, 0, 60, 90
2, 68062, Note_off_c, 0, 60, 0
2, 68064, Note_on_c, 0, 69, 90
2, 68158, Note_off_c, 0, 69, 0
2, 68160, Note_on_c, 0, 61, 90
2, 68254, Note_off_c, 0, 61, 0
2, 68256, Note_on_c, 0, 62, 90
2, 68350, Note_off_c, 0, 62, 0
2, 68352, Note_on_c, 0, 70, 90
2, 68446, Note_off_c, 0, 70, 0
2, 68448, Note_on_c, 0, 62, 90
2, 68542, Note_off_c, 0, 62, 0
2, 68544, Note_on_c, 0, 82, 90
2, 68830, Note_off_c, 0, 82, 0
2, 68832, Note_on_c, 0, 82, 90
2, 68832, Note_on_c, 0, 67, 90
2, 68832, Note_on_c, 0, 64, 90
2, 68832, Note_on_c, 0, 58, 90
2, 68832, Note_on_c, 0, 60, 90
2, 68926, Note_off_c, 0, 82, 0
2, 68928, Note_on_c, 0, 81, 90
2, 68974, Note_off_c, 0, 81, 0
2, 68976, Note_on_c, 0, 79, 90
2, 69022, Note_off_c, 0, 79, 0
2, 69024, Note_on_c, 0, 77, 90
2, 69070, Note_off_c, 0, 77, 0
2, 69072, Note_on_c, 0, 76, 90
2, 69118, Note_off_c, 0, 67, 0
2, 69118, Note_off_c, 0, 64, 0
2, 69118, Note_off_c, 0, 58, 0
2, 69118, Note_off_c, 0, 60, 0
2, 69118, Note_off_c, 0, 76, 0
2, 69120, Note_on_c, 0, 77, 90
2, 69120, Note_on_c, 0, 65, 90
2, 69120, Note_on_c, 0, 60, 90
2, 69120, Note_on_c, 0, 57, 90
2, 69142, Note_off_c, 0, 77, 0
2, 69144, Note_on_c, 0, 79, 90
2, 69166, Note_off_c, 0, 79, 0
2, 69168, Note_on_c, 0, 81, 90
2, 69214, Note_off_c, 0, 65, 0
2, 69214, Note_off_c, 0, 60, 0
2, 69214, Note_off_c, 0, 57, 0
2, 69214, Note_off_c, 0, 81, 0
2, 69408, Note_on_c, 0, 74, 90
2, 69408, Note_on_c, 0, 65, 90
2, 69408, Note_on_c, 0, 62, 90
2, 69408, Note_on_c, 0, 58, 90
2, 69430, Note_off_c, 0, 74, 0
2, 69432, Note_on_c, 0, 76, 90
2, 69454, Note_off_c, 0, 76, 0
2, 69456, Note_on_c, 0, 77, 90
2, 69502, Note_off_c, 0, 65, 0
2, 69502, Note_off_c, 0, 62, 0
2, 69502, Note_off_c, 0, 58, 0
2, 69502, Note_off_c, 0, 77, 0
2, 69696, Note_on_c, 0, 65, 60
2, 69886, Note_off_c, 0, 65, 0
2, 69984, Note_on_c, 0, 69, 60
2, 70006, Note_off_c, 0, 69, 0
2, 70008, Note_on_c, 0, 67, 60
2, 70008, Note_on_c, 0, 64, 60
2, 70176, Note_on_c, 0, 65, 60
2, 70198, Note_off_c, 0, 67, 0
2, 70198, Note_off_c, 0, 64, 0
2, 70270, Note_off_c, 0, 65, 0
2, 70272, Note_on_c, 0, 65, 60
2, 70272, Note_on_c, 0, 65, 60
2, 70464, Note_on_c, 0, 69, 60
2, 70558, Note_off_c, 0, 65, 0
2, 70558, Note_off_c, 0, 65, 0
2, 70558, Note_off_c, 0, 69, 0
2, 70560, Note_on_c, 0, 72, 60
2, 70560, Note_on_c, 0, 64, 60
2, 70654, Note_off_c, 0, 72, 0
2, 70656, Note_on_c, 0, 70, 60
2, 70750, Note_off_c, 0, 70, 0
2, 70752, Note_on_c, 0, 67, 60
2, 70846, Note_off_c, 0, 64, 0
2, 70846, Note_off_c, 0, 67, 0
2, 70848, Note_on_c, 0, 65, 60
2, 70860, Note_on_c, 0, 65, 60
2, 70944, Note_on_c, 0, 60, 60
2, 70954, Note_off_c, 0, 65, 0
2, 71038, Note_off_c, 0, 60, 0
2, 71040, Note_on_c, 0, 69, 60
2, 71134, Note_off_c, 0, 65, 0
2, 71134, Note_off_c, 0, 69, 0
2, 71136, Note_on_c, 0, 64, 60
2, 71136, Note_on_c, 0, 72, 60
2, 71230, Note_off_c, 0, 72, 0
2, 71232, Note_on_c, 0, 70, 60
2, 71326, Note_off_c, 0, 70, 0
2, 71328, Note_on_c, 0, 67, 60
2, 71422, Note_off_c, 0, 64, 0
2, 71422, Note_off_c, 0, 67, 0
2, 71424, Note_on_c, 0, 65, 45
2, 71518, Note_off_c, 0, 65, 0
2, 71520, Note_on_c, 0, 60, 45
2, 71614, Note_off_c, 0, 60, 0
2, 71616, Note_on_c, 0, 69, 45
2, 71710, Note_off_c, 0, 69, 0
2, 71712, Note_on_c, 0, 65, 45
2, 71806, Note_off_c, 0, 65, 0
2, 71808, Note_on_c, 0, 60, 45
2, 71902, Note_off_c, 0, 60, 0
2, 71904, Note_on_c, 0, 69, 45
2, 71998, Note_off_c, 0, 69, 0
2, 72000, Note_on_c, 0, 67, 45
2, 72000, Note_on_c, 0, 58, 45
2, 72286, Note_off_c, 0, 67, 0
2, 72286, Note_off_c, 0, 58, 0
2, 72288, Note_on_c, 0, 65, 45
2, 72288, Note_on_c, 0, 57, 45
2, 72382, Note_off_c, 0, 65, 0
2, 72382, Note_off_c, 0, 57, 0
2, 72576, Note_on_c, 0, 81, 90
2, 72576, Note_on_c, 0, 69, 90
2, 72862, Note_off_c, 0, 81, 0
2, 72862, Note_off_c, 0, 69, 0
2, 72864, Note_on_c, 0, 79, 90
2, 72864, Note_on_c, 0, 69, 90
2, 73150, Note_off_c, 0, 79, 0
2, 73150, Note_off_c, 0, 69, 0
2, 73152, Note_on_c, 0, 77, 90
2, 73152, Note_on_c, 0, 69, 90
2, 73438, Note_off_c, 0, 77, 0
2, 73438, Note_off_c, 0, 69, 0
2, 73440, Note_on_c, 0, 76, 90
2, 73440, Note_on_c, 0, 69, 90
2, 73726, Note_off_c, 0, 76, 0
2, 73726, Note_off_c, 0, 69, 0
2, 73728, Note_on_c, 0, 74, 90
2, 73728, Note_on_c, 0, 69, 90
2, 74014, Note_off_c, 0, 74, 0
2, 74014, Note_off_c, 0, 69, 0
2, 74016, Note_on_c, 0, 73, 90
2, 74016, Note_on_c, 0, 67, 90
2, 74016, Note_on_c, 0, 69, 90
2, 74302, Note_off_c, 0, 73, 0
2, 74302, Note_off_c, 0, 67, 0
2, 74302, Note_off_c, 0, 69, 0
2, 74304, Note_on_c, 0, 74, 90
2, 74350, Note_off_c, 0, 74, 0
2, 74352, Note_on_c, 0, 69, 90
2, 74398, Note_off_c, 0, 69, 0
2, 74400, Note_on_c, 0, 65, 90
2, 74446, Note_off_c, 0, 65, 0
2, 74448, Note_on_c, 0, 69, 90
2, 74494, Note_off_c, 0, 69, 0
2, 74496, Note_on_c, 0, 74, 90
2, 74542, Note_off_c, 0, 74, 0
2, 74544, Note_on_c, 0, 69, 90
2, 74590, Note_off_c, 0, 69, 0
2, 74592, Note_on_c, 0, 76, 90
2, 74638, Note_off_c, 0, 76, 0
2, 74640, Note_on_c, 0, 69, 90
2, 74686, Note_off_c, 0, 69, 0
2, 74688, Note_on_c, 0, 67, 90
2, 74734, Note_off_c, 0, 67, 0
2, 74736, Note_on_c, 0, 69, 90
2, 74782, Note_off_c, 0, 69, 0
2, 74784, Note_on_c, 0, 76, 90
2, 74830, Note_off_c, 0, 76, 0
2, 74832, Note_on_c, 0, 69, 90
2, 74878, Note_off_c, 0, 69, 0
2, 74880, Note_on_c, 0, 77, 90
2, 74926, Note_off_c, 0, 77, 0
2, 74928, Note_on_c, 0, 74, 90
2, 74974, Note_off_c, 0, 74, 0
2, 74976, Note_on_c, 0, 69, 90
2, 75022, Note_off_c, 0, 69, 0
2, 75024, Note_on_c, 0, 74, 90
2, 75070, Note_off_c, 0, 74, 0
2, 75072, Note_on_c, 0, 77, 90
2, 75118, Note_off_c, 0, 77, 0
2, 75120, Note_on_c, 0, 74, 90
2, 75166, Note_off_c, 0, 74, 0
2, 75168, Note_on_c, 0, 78, 90
2, 75214, Note_off_c, 0, 78, 0
2, 75216, Note_on_c, 0, 74, 90
2, 75262, Note_off_c, 0, 74, 0
2, 75264, Note_on_c, 0, 69, 90
2, 75310, Note_off_c, 0, 69, 0
2, 75312, Note_on_c, 0, 74, 90
2, 75358, Note_off_c, 0, 74, 0
2, 75360, Note_on_c, 0, 78, 90
2, 75406, Note_off_c, 0, 78, 0
2, 75408, Note_on_c, 0, 74, 90
2, 75454, Note_off_c, 0, 74, 0
2, 75456, Note_on_c, 0, 79, 90
2, 75646, Note_off_c, 0, 79, 0
2, 75648, Note_on_c, 0, 81, 90
2, 75694, Note_off_c, 0, 81, 0
2, 75696, Note_on_c, 0, 79, 90
2, 75742, Note_off_c, 0, 79, 0
2, 75744, Note_on_c, 0, 77, 90
2, 75934, Note_off_c, 0, 77, 0
2, 75936, Note_on_c, 0, 79, 90
2, 75982, Note_off_c, 0, 79, 0
2, 75984, Note_on_c, 0, 77, 90
2, 76030, Note_off_c, 0, 77, 0
2, 76032, Note_on_c, 0, 76, 90
2, 76032, Note_on_c, 0, 67, 90
2, 76222, Note_off_c, 0, 76, 0
2, 76224, Note_on_c, 0, 77, 90
2, 76270, Note_off_c, 0, 77, 0
2, 76272, Note_on_c, 0, 76, 90
2, 76318, Note_off_c, 0, 67, 0
2, 76318, Note_off_c, 0, 76, 0
2, 76320, Note_on_c, 0, 74, 90
2, 76320, Note_on_c, 0, 67, 90
2, 76320, Note_on_c, 0, 65, 90
2, 76510, Note_off_c, 0, 74, 0
2, 76512, Note_on_c, 0, 76, 90
2, 76558, Note_off_c, 0, 76, 0
2, 76560, Note_on_c, 0, 74, 90
2, 76606, Note_off_c, 0, 67, 0
2, 76606, Note_off_c, 0, 65, 0
2, 76606, Note_off_c, 0, 74, 0
2, 76608, Note_on_c, 0, 72, 90
2, 76608, Note_on_c, 0, 64, 90
2, 76608, Note_on_c, 0, 67, 90
2, 76798, Note_off_c, 0, 72, 0
2, 76800, Note_on_c, 0, 74, 90
2, 76846, Note_off_c, 0, 74, 0
2, 76848, Note_on_c, 0, 72, 90
2, 76894, Note_off_c, 0, 64, 0
2, 76894, Note_off_c, 0, 67, 0
2, 76894, Note_off_c, 0, 72, 0
2, 76896, Note_on_c, 0, 71, 90
2, 76896, Note_on_c, 0, 67, 90
2, 76896, Note_on_c, 0, 65, 90
2, 76896, Note_on_c, 0, 62, 90
2, 77086, Note_off_c, 0, 71, 0
2, 77088, Note_on_c, 0, 72, 90
2, 77134, Note_off_c, 0, 72, 0
2, 77136, Note_on_c, 0, 71, 90
2, 77182, Note_off_c, 0, 67, 0
2, 77182, Note_off_c, 0, 65, 0
2, 77182, Note_off_c, 0, 62, 0
2, 77182, Note_off_c, 0, 71, 0
2, 77184, Note_on_c, 0, 74, 90
2, 77184, Note_on_c, 0, 60, 90
2, 77230, Note_off_c, 0, 74, 0
2, 77232, Note_on_c, 0, 72, 90
2, 77278, Note_off_c, 0, 60, 0
2, 77278, Note_off_c, 0, 72, 0
2, 77280, Note_on_c, 0, 71, 90
2, 77280, Note_on_c, 0, 64, 90
2, 77326, Note_off_c, 0, 71, 0
2, 77328, Note_on_c, 0, 72, 90
2, 77374, Note_off_c, 0, 64, 0
2, 77374, Note_off_c, 0, 72, 0
2, 77376, Note_on_c, 0, 71, 90
2, 77376, Note_on_c, 0, 67, 90
2, 77422, Note_off_c, 0, 71, 0
2, 77424, Note_on_c, 0, 72, 90
2, 77470, Note_off_c, 0, 67, 0
2, 77470, Note_off_c, 0, 72, 0
2, 77472, Note_on_c, 0, 76, 90
2, 77472, Note_on_c, 0, 58, 90
2, 77518, Note_off_c, 0, 76, 0
2, 77520, Note_on_c, 0, 74, 90
2, 77566, Note_off_c, 0, 58, 0
2, 77566, Note_off_c, 0, 74, 0
2, 77568, Note_on_c, 0, 73, 90
2, 77568, Note_on_c, 0, 65, 90
2, 77614, Note_off_c, 0, 73, 0
2, 77616, Note_on_c, 0, 74, 90
2, 77662, Note_off_c, 0, 65, 0
2, 77662, Note_off_c, 0, 74, 0
2, 77664, Note_on_c, 0, 73, 90
2, 77664, Note_on_c, 0, 67, 90
2, 77710, Note_off_c, 0, 73, 0
2, 77712, Note_on_c, 0, 74, 90
2, 77758, Note_off_c, 0, 67, 0
2, 77758, Note_off_c, 0, 74, 0
2, 77760, Note_on_c, 0, 76, 90
2, 77760, Note_on_c, 0, 67, 90
2, 77760, Note_on_c, 0, 64, 90
2, 77760, Note_on_c, 0, 60, 75
2, 77806, Note_off_c, 0, 76, 0
2, 77808, Note_on_c, 0, 74, 90
2, 77854, Note_off_c, 0, 67, 0
2, 77854, Note_off_c, 0, 64, 0
2, 77854, Note_off_c, 0, 74, 0
2, 77856, Note_on_c, 0, 72, 90
2, 77902, Note_off_c, 0, 72, 0
2, 77904, Note_on_c, 0, 74, 90
2, 77948, Note_off_c, 0, 60, 0
2, 77950, Note_off_c, 0, 74, 0
2, 77952, Note_on_c, 0, 76, 90
2, 77998, Note_off_c, 0, 76, 0
2, 78000, Note_on_c, 0, 77, 90
2, 78046, Note_off_c, 0, 77, 0
2, 78048, Note_on_c, 0, 79, 90
2, 78094, Note_off_c, 0, 79, 0
2, 78096, Note_on_c, 0, 77, 90
2, 78142, Note_off_c, 0, 77, 0
2, 78144, Note_on_c, 0, 76, 90
2, 78190, Note_off_c, 0, 76, 0
2, 78192, Note_on_c, 0, 77, 90
2, 78238, Note_off_c, 0, 77, 0
2, 78240, Note_on_c, 0, 79, 90
2, 78286, Note_off_c, 0, 79, 0
2, 78288, Note_on_c, 0, 80, 90
2, 78334, Note_off_c, 0, 80, 0
2, 78336, Note_on_c, 0, 81, 90
2, 78382, Note_off_c, 0, 81, 0
2, 78384, Note_on_c, 0, 82, 90
2, 78430, Note_off_c, 0, 82, 0
2, 78432, Note_on_c, 0, 81, 90
2, 78478, Note_off_c, 0, 81, 0
2, 78480, Note_on_c, 0, 79, 90
2, 78526, Note_off_c, 0, 79, 0
2, 78528, Note_on_c, 0, 77, 90
2, 78574, Note_off_c, 0, 77, 0
2, 78576, Note_on_c, 0, 76, 90
2, 78622, Note_off_c, 0, 76, 0
2, 78624, Note_on_c, 0, 74, 90
2, 78670, Note_off_c, 0, 74, 0
2, 78672, Note_on_c, 0, 85, 90
2, 78718, Note_off_c, 0, 85, 0
2, 78720, Note_on_c, 0, 86, 90
2, 78766, Note_off_c, 0, 86, 0
2, 78768, Note_on_c, 0, 84, 90
2, 78814, Note_off_c, 0, 84, 0
2, 78816, Note_on_c, 0, 83, 90
2, 78862, Note_off_c, 0, 83, 0
2, 78864, Note_on_c, 0, 81, 90
2, 78910, Note_off_c, 0, 81, 0
2, 78912, Note_on_c, 0, 79, 90
2, 78958, Note_off_c, 0, 79, 0
2, 78960, Note_on_c, 0, 81, 90
2, 79006, Note_off_c, 0, 81, 0
2, 79008, Note_on_c, 0, 79, 90
2, 79054, Note_off_c, 0, 79, 0
2, 79056, Note_on_c, 0, 77, 90
2, 79102, Note_off_c, 0, 77, 0
2, 79104, Note_on_c, 0, 76, 90
2, 79150, Note_off_c, 0, 76, 0
2, 79152, Note_on_c, 0, 74, 90
2, 79198, Note_off_c, 0, 74, 0
2, 79200, Note_on_c, 0, 72, 90
2, 79246, Note_off_c, 0, 72, 0
2, 79248, Note_on_c, 0, 83, 90
2, 79294, Note_off_c, 0, 83, 0
2, 79296, Note_on_c, 0, 84, 90
2, 79342, Note_off_c, 0, 84, 0
2, 79344, Note_on_c, 0, 82, 90
2, 79390, Note_off_c, 0, 82, 0
2, 79392, Note_on_c, 0, 81, 90
2, 79438, Note_off_c, 0, 81, 0
2, 79440, Note_on_c, 0, 79, 90
2, 79486, Note_off_c, 0, 79, 0
2, 79488, Note_on_c, 0, 77, 90
2, 79534, Note_off_c, 0, 77, 0
2, 79536, Note_on_c, 0, 85, 90
2, 79582, Note_off_c, 0, 85, 0
2, 79584, Note_on_c, 0, 86, 90
2, 79630, Note_off_c, 0, 86, 0
2, 79632, Note_on_c, 0, 83, 90
2, 79678, Note_off_c, 0, 83, 0
2, 79680, Note_on_c, 0, 79, 90
2, 79726, Note_off_c, 0, 79, 0
2, 79728, Note_on_c, 0, 77, 90
2, 79774, Note_off_c, 0, 77, 0
2, 79776, Note_on_c, 0, 76, 90
2, 79822, Note_off_c, 0, 76, 0
2, 79824, Note_on_c, 0, 83, 90
2, 79870, Note_off_c, 0, 83, 0
2, 79872, Note_on_c, 0, 84, 90
2, 79918, Note_off_c, 0, 84, 0
2, 79920, Note_on_c, 0, 79, 90
2, 79966, Note_off_c, 0, 79, 0
2, 79968, Note_on_c, 0, 77, 90
2, 80014, Note_off_c, 0, 77, 0
2, 80016, Note_on_c, 0, 76, 90
2, 80062, Note_off_c, 0, 76, 0
2, 80064, Note_on_c, 0, 74, 90
2, 80110, Note_off_c, 0, 74, 0
2, 80112, Note_on_c, 0, 76, 90
2, 80158, Note_off_c, 0, 76, 0
2, 80160, Note_on_c, 0, 74, 90
2, 80206, Note_off_c, 0, 74, 0
2, 80208, Note_on_c, 0, 72, 90
2, 80254, Note_off_c, 0, 72, 0
2, 80256, Note_on_c, 0, 71, 90
2, 80302, Note_off_c, 0, 71, 0
2, 80304, Note_on_c, 0, 69, 90
2, 80350, Note_off_c, 0, 69, 0
2, 80352, Note_on_c, 0, 67, 90
2, 80400, Note_on_c, 0, 69, 90
2, 80446, Note_off_c, 0, 67, 0
2, 80446, Note_off_c, 0, 69, 0
2, 80448, Note_on_c, 0, 67, 90
2, 80494, Note_off_c, 0, 67, 0
2, 80496, Note_on_c, 0, 65, 90
2, 80542, Note_off_c, 0, 65, 0
2, 80544, Note_on_c, 0, 64, 90
2, 80590, Note_off_c, 0, 64, 0
2, 80592, Note_on_c, 0, 62, 90
2, 80638, Note_off_c, 0, 62, 0
2, 80640, Note_on_c, 0, 75, 60
2, 80640, Note_on_c, 0, 60, 60
2, 80734, Note_off_c, 0, 60, 0
2, 80736, Note_on_c, 0, 63, 60
2, 80830, Note_off_c, 0, 63, 0
2, 80832, Note_on_c, 0, 67, 60
2, 80926, Note_off_c, 0, 75, 0
2, 80926, Note_off_c, 0, 67, 0
2, 80928, Note_on_c, 0, 75, 60
2, 80928, Note_on_c, 0, 60, 60
2, 81022, Note_off_c, 0, 75, 0
2, 81022, Note_off_c, 0, 60, 0
2, 81036, Note_on_c, 0, 74, 60
2, 81036, Note_on_c, 0, 63, 60
2, 81120, Note_on_c, 0, 72, 60
2, 81120, Note_on_c, 0, 67, 60
2, 81130, Note_off_c, 0, 74, 0
2, 81130, Note_off_c, 0, 63, 0
2, 81214, Note_off_c, 0, 72, 0
2, 81214, Note_off_c, 0, 67, 0
2, 81216, Note_on_c, 0, 78, 60
2, 81216, Note_on_c, 0, 59, 60
2, 81310, Note_off_c, 0, 59, 0
2, 81312, Note_on_c, 0, 62, 60
2, 81406, Note_off_c, 0, 78, 0
2, 81406, Note_off_c, 0, 62, 0
2, 81408, Note_on_c, 0, 79, 60
2, 81408, Note_on_c, 0, 67, 60
2, 81502, Note_off_c, 0, 79, 0
2, 81502, Note_off_c, 0, 67, 0
2, 81504, Note_on_c, 0, 74, 60
2, 81504, Note_on_c, 0, 59, 60
2, 81598, Note_off_c, 0, 59, 0
2, 81600, Note_on_c, 0, 62, 60
2, 81694, Note_off_c, 0, 74, 0
2, 81694, Note_off_c, 0, 62, 0
2, 81696, Note_on_c, 0, 67, 60
2, 81790, Note_off_c, 0, 67, 0
2, 81792, Note_on_c, 0, 80, 60
2, 81792, Note_on_c, 0, 59, 60
2, 81886, Note_off_c, 0, 59, 0
2, 81888, Note_on_c, 0, 62, 60
2, 81982, Note_off_c, 0, 62, 0
2, 81984, Note_on_c, 0, 65, 60
2, 82078, Note_off_c, 0, 80, 0
2, 82078, Note_off_c, 0, 65, 0
2, 82080, Note_on_c, 0, 80, 60
2, 82080, Note_on_c, 0, 59, 60
2, 82174, Note_off_c, 0, 80, 0
2, 82174, Note_off_c, 0, 59, 0
2, 82176, Note_on_c, 0, 79, 60
2, 82176, Note_on_c, 0, 62, 60
2, 82270, Note_off_c, 0, 79, 0
2, 82270, Note_off_c, 0, 62, 0
2, 82272, Note_on_c, 0, 77, 60
2, 82272, Note_on_c, 0, 67, 60
2, 82366, Note_off_c, 0, 77, 0
2, 82366, Note_off_c, 0, 67, 0
2, 82368, Note_on_c, 0, 75, 60
2, 82368, Note_on_c, 0, 60, 60
2, 82380, Note_on_c, 0, 77, 60
2, 82390, Note_off_c, 0, 75, 0
2, 82402, Note_off_c, 0, 77, 0
2, 82404, Note_on_c, 0, 75, 60
2, 82426, Note_off_c, 0, 75, 0
2, 82440, Note_on_c, 0, 77, 60
2, 82462, Note_off_c, 0, 60, 0
2, 82462, Note_off_c, 0, 77, 0
2, 82464, Note_on_c, 0, 75, 60
2, 82464, Note_on_c, 0, 63, 60
2, 82486, Note_off_c, 0, 75, 0
2, 82488, Note_on_c, 0, 77, 60
2, 82510, Note_off_c, 0, 77, 0
2, 82512, Note_on_c, 0, 75, 60
2, 82534, Note_off_c, 0, 75, 0
2, 82536, Note_on_c, 0, 77, 60
2, 82558, Note_off_c, 0, 63, 0
2, 82558, Note_off_c, 0, 77, 0
2, 82560, Note_on_c, 0, 75, 60
2, 82560, Note_on_c, 0, 67, 60
2, 82606, Note_off_c, 0, 75, 0
2, 82608, Note_on_c, 0, 77, 60
2, 82654, Note_off_c, 0, 67, 0
2, 82654, Note_off_c, 0, 77, 0
2, 82656, Note_on_c, 0, 79, 60
2, 82656, Note_on_c, 0, 60, 60
2, 82750, Note_off_c, 0, 60, 0
2, 82752, Note_on_c, 0, 63, 60
2, 82846, Note_off_c, 0, 79, 0
2, 82846, Note_off_c, 0, 63, 0
2, 82848, Note_on_c, 0, 67, 60
2, 82942, Note_off_c, 0, 67, 0
2, 82944, Note_on_c, 0, 84, 90
2, 82944, Note_on_c, 0, 63, 90
2, 83038, Note_off_c, 0, 63, 0
2, 83040, Note_on_c, 0, 67, 90
2, 83134, Note_off_c, 0, 67, 0
2, 83136, Note_on_c, 0, 72, 90
2, 83230, Note_off_c, 0, 84, 0
2, 83230, Note_off_c, 0, 72, 0
2, 83232, Note_on_c, 0, 82, 90
2, 83232, Note_on_c, 0, 62, 90
2, 83326, Note_off_c, 0, 62, 0
2, 83328, Note_on_c, 0, 65, 90
2, 83422, Note_off_c, 0, 82, 0
2, 83422, Note_off_c, 0, 65, 0
2, 83424, Note_on_c, 0, 84, 90
2, 83424, Note_on_c, 0, 70, 90
2, 83518, Note_off_c, 0, 84, 0
2, 83518, Note_off_c, 0, 70, 0
2, 83520, Note_on_c, 0, 82, 90
2, 83520, Note_on_c, 0, 60, 90
2, 83614, Note_off_c, 0, 60, 0
2, 83616, Note_on_c, 0, 63, 90
2, 83710, Note_off_c, 0, 82, 0
2, 83710, Note_off_c, 0, 63, 0
2, 83712, Note_on_c, 0, 80, 90
2, 83712, Note_on_c, 0, 68, 90
2, 83806, Note_off_c, 0, 80, 0
2, 83806, Note_off_c, 0, 68, 0
2, 83808, Note_on_c, 0, 79, 90
2, 83808, Note_on_c, 0, 58, 90
2, 83902, Note_off_c, 0, 58, 0
2, 83904, Note_on_c, 0, 62, 90
2, 83998, Note_off_c, 0, 62, 0
2, 84000, Note_on_c, 0, 67, 90
2, 84094, Note_off_c, 0, 79, 0
2, 84094, Note_off_c, 0, 67, 0
2, 84096, Note_on_c, 0, 77, 82
2, 84096, Note_on_c, 0, 56, 82
2, 84190, Note_off_c, 0, 56, 0
2, 84192, Note_on_c, 0, 60, 82
2, 84286, Note_off_c, 0, 77, 0
2, 84286, Note_off_c, 0, 60, 0
2, 84288, Note_on_c, 0, 75, 82
2, 84288, Note_on_c, 0, 65, 82
2, 84382, Note_off_c, 0, 75, 0
2, 84382, Note_off_c, 0, 65, 0
2, 84384, Note_on_c, 0, 74, 82
2, 84384, Note_on_c, 0, 56, 82
2, 84478, Note_off_c, 0, 56, 0
2, 84480, Note_on_c, 0, 60, 82
2, 84574, Note_off_c, 0, 74, 0
2, 84574, Note_off_c, 0, 60, 0
2, 84576, Note_on_c, 0, 72, 82
2, 84576, Note_on_c, 0, 66, 82
2, 84670, Note_off_c, 0, 72, 0
2, 84670, Note_off_c, 0, 66, 0
2, 84672, Note_on_c, 0, 75, 82
2, 84672, Note_on_c, 0, 55, 82
2, 84766, Note_off_c, 0, 55, 0
2, 84768, Note_on_c, 0, 58, 82
2, 84862, Note_off_c, 0, 58, 0
2, 84864, Note_on_c, 0, 67, 82
2, 84958, Note_off_c, 0, 75, 0
2, 84958, Note_off_c, 0, 67, 0
2, 84960, Note_on_c, 0, 74, 82
2, 84960, Note_on_c, 0, 55, 82
2, 85054, Note_off_c, 0, 74, 0
2, 85054, Note_off_c, 0, 55, 0
2, 85056, Note_on_c, 0, 59, 82
2, 85150, Note_off_c, 0, 59, 0
2, 85152, Note_on_c, 0, 67, 82
2, 85246, Note_off_c, 0, 67, 0
2, 85248, Note_on_c, 0, 75, 60
2, 85248, Note_on_c, 0, 60, 60
2, 85342, Note_off_c, 0, 60, 0
2, 85344, Note_on_c, 0, 63, 60
2, 85438, Note_off_c, 0, 63, 0
2, 85440, Note_on_c, 0, 67, 60
2, 85534, Note_off_c, 0, 75, 0
2, 85534, Note_off_c, 0, 67, 0
2, 85536, Note_on_c, 0, 75, 60
2, 85536, Note_on_c, 0, 60, 60
2, 85630, Note_off_c, 0, 75, 0
2, 85630, Note_off_c, 0, 60, 0
2, 85632, Note_on_c, 0, 74, 60
2, 85632, Note_on_c, 0, 63, 60
2, 85726, Note_off_c, 0, 74, 0
2, 85726, Note_off_c, 0, 63, 0
2, 85728, Note_on_c, 0, 72, 60
2, 85728, Note_on_c, 0, 67, 60
2, 85822, Note_off_c, 0, 72, 0
2, 85822, Note_off_c, 0, 67, 0
2, 85824, Note_on_c, 0, 77, 60
2, 85824, Note_on_c, 0, 59, 60
2, 85918, Note_off_c, 0, 59, 0
2, 85920, Note_on_c, 0, 62, 60
2, 86014, Note_off_c, 0, 77, 0
2, 86014, Note_off_c, 0, 62, 0
2, 86016, Note_on_c, 0, 79, 60
2, 86016, Note_on_c, 0, 67, 60
2, 86110, Note_off_c, 0, 79, 0
2, 86110, Note_off_c, 0, 67, 0
2, 86112, Note_on_c, 0, 74, 60
2, 86112, Note_on_c, 0, 59, 60
2, 86206, Note_off_c, 0, 59, 0
2, 86208, Note_on_c, 0, 62, 60
2, 86302, Note_off_c, 0, 74, 0
2, 86302, Note_off_c, 0, 62, 0
2, 86304, Note_on_c, 0, 67, 60
2, 86398, Note_off_c, 0, 67, 0
2, 86400, Note_on_c, 0, 80, 60
2, 86400, Note_on_c, 0, 59, 60
2, 86494, Note_off_c, 0, 59, 0
2, 86496, Note_on_c, 0, 62, 60
2, 86590, Note_off_c, 0, 62, 0
2, 86592, Note_on_c, 0, 65, 60
2, 86686, Note_off_c, 0, 80, 0
2, 86686, Note_off_c, 0, 65, 0
2, 86688, Note_on_c, 0, 80, 60
2, 86688, Note_on_c, 0, 59, 60
2, 86782, Note_off_c, 0, 80, 0
2, 86782, Note_off_c, 0, 59, 0
2, 86784, Note_on_c, 0, 79, 60
2, 86784, Note_on_c, 0, 62, 60
2, 86878, Note_off_c, 0, 79, 0
2, 86878, Note_off_c, 0, 62, 0
2, 86880, Note_on_c, 0, 77, 60
2, 86880, Note_on_c, 0, 67, 60
2, 86974, Note_off_c, 0, 77, 0
2, 86974, Note_off_c, 0, 67, 0
2, 86976, Note_on_c, 0, 76, 60
2, 86976, Note_on_c, 0, 58, 60
2, 87070, Note_off_c, 0, 58, 0
2, 87072, Note_on_c, 0, 61, 60
2, 87166, Note_off_c, 0, 76, 0
2, 87166, Note_off_c, 0, 61, 0
2, 87168, Note_on_c, 0, 77, 60
2, 87168, Note_on_c, 0, 67, 60
2, 87214, Note_off_c, 0, 77, 0
2, 87216, Note_on_c, 0, 79, 60
2, 87262, Note_off_c, 0, 67, 0
2, 87262, Note_off_c, 0, 79, 0
2, 87264, Note_on_c, 0, 77, 60
2, 87264, Note_on_c, 0, 57, 60
2, 87358, Note_off_c, 0, 57, 0
2, 87360, Note_on_c, 0, 60, 60
2, 87454, Note_off_c, 0, 77, 0
2, 87454, Note_off_c, 0, 60, 0
2, 87456, Note_on_c, 0, 65, 60
2, 87550, Note_off_c, 0, 65, 0
2, 87552, Note_on_c, 0, 87, 90
2, 87552, Note_on_c, 0, 56, 90
2, 87646, Note_off_c, 0, 56, 0
2, 87648, Note_on_c, 0, 60, 90
2, 87742, Note_off_c, 0, 60, 0
2, 87744, Note_on_c, 0, 66, 90
2, 87838, Note_off_c, 0, 87, 0
2, 87838, Note_off_c, 0, 66, 0
2, 87840, Note_on_c, 0, 87, 90
2, 87840, Note_on_c, 0, 55, 90
2, 87934, Note_off_c, 0, 87, 0
2, 87934, Note_off_c, 0, 55, 0
2, 87936, Note_on_c, 0, 86, 90
2, 87936, Note_on_c, 0, 60, 90
2, 88030, Note_off_c, 0, 86, 0
2, 88030, Note_off_c, 0, 60, 0
2, 88032, Note_on_c, 0, 84, 90
2, 88032, Note_on_c, 0, 67, 90
2, 88126, Note_off_c, 0, 84, 0
2, 88126, Note_off_c, 0, 67, 0
2, 88128, Note_on_c, 0, 83, 90
2, 88414, Note_off_c, 0, 83, 0
2, 88416, Note_on_c, 0, 84, 90
2, 88606, Note_off_c, 0, 84, 0
2, 88608, Note_on_c, 0, 80, 90
2, 88702, Note_off_c, 0, 80, 0
2, 88704, Note_on_c, 0, 72, 60
2, 88990, Note_off_c, 0, 72, 0
2, 88992, Note_on_c, 0, 76, 60
2, 89014, Note_off_c, 0, 76, 0
2, 89016, Note_on_c, 0, 74, 60
2, 89016, Note_on_c, 0, 71, 60
2, 89280, Note_on_c, 0, 72, 90
2, 89286, Note_off_c, 0, 71, 0
2, 89286, Note_off_c, 0, 74, 0
2, 89326, Note_off_c, 0, 72, 0
2, 89328, Note_on_c, 0, 79, 90
2, 89374, Note_off_c, 0, 79, 0
2, 89376, Note_on_c, 0, 78, 90
2, 89422, Note_off_c, 0, 78, 0
2, 89424, Note_on_c, 0, 79, 90
2, 89470, Note_off_c, 0, 79, 0
2, 89472, Note_on_c, 0, 81, 90
2, 89518, Note_off_c, 0, 81, 0
2, 89520, Note_on_c, 0, 79, 90
2, 89566, Note_off_c, 0, 79, 0
2, 89568, Note_on_c, 0, 77, 90
2, 89614, Note_off_c, 0, 77, 0
2, 89616, Note_on_c, 0, 79, 90
2, 89662, Note_off_c, 0, 79, 0
2, 89664, Note_on_c, 0, 77, 90
2, 89710, Note_off_c, 0, 77, 0
2, 89712, Note_on_c, 0, 79, 90
2, 89758, Note_off_c, 0, 79, 0
2, 89760, Note_on_c, 0, 77, 90
2, 89806, Note_off_c, 0, 77, 0
2, 89808, Note_on_c, 0, 79, 90
2, 89854, Note_off_c, 0, 79, 0
2, 89856, Note_on_c, 0, 76, 105
2, 89902, Note_off_c, 0, 76, 0
2, 89904, Note_on_c, 0, 79, 105
2, 89950, Note_off_c, 0, 79, 0
2, 89952, Note_on_c, 0, 78, 105
2, 89998, Note_off_c, 0, 78, 0
2, 90000, Note_on_c, 0, 79, 105
2, 90046, Note_off_c, 0, 79, 0
2, 90048, Note_on_c, 0, 84, 105
2, 90094, Note_off_c, 0, 84, 0
2, 90096, Note_on_c, 0, 79, 105
2, 90142, Note_off_c, 0, 79, 0
2, 90144, Note_on_c, 0, 77, 105
2, 90190, Note_off_c, 0, 77, 0
2, 90192, Note_on_c, 0, 79, 105
2, 90238, Note_off_c, 0, 79, 0
2, 90240, Note_on_c, 0, 77, 105
2, 90286, Note_off_c, 0, 77, 0
2, 90288, Note_on_c, 0, 79, 105
2, 90334, Note_off_c, 0, 79, 0
2, 90336, Note_on_c, 0, 77, 105
2, 90382, Note_off_c, 0, 77, 0
2, 90384, Note_on_c, 0, 79, 105
2, 90430, Note_off_c, 0, 79, 0
2, 90432, Note_on_c, 0, 76, 105
2, 90478, Note_off_c, 0, 76, 0
2, 90480, Note_on_c, 0, 79, 105
2, 90526, Note_off_c, 0, 79, 0
2, 90528, Note_on_c, 0, 78, 105
2, 90574, Note_off_c, 0, 78, 0
2, 90576, Note_on_c, 0, 79, 105
2, 90622, Note_off_c, 0, 79, 0
2, 90624, Note_on_c, 0, 84, 105
2, 90670, Note_off_c, 0, 84, 0
2, 90672, Note_on_c, 0, 79, 105
2, 90718, Note_off_c, 0, 79, 0
2, 90720, Note_on_c, 0, 77, 105
2, 90766, Note_off_c, 0, 77, 0
2, 90768, Note_on_c, 0, 79, 105
2, 90814, Note_off_c, 0, 79, 0
2, 90816, Note_on_c, 0, 77, 105
2, 90862, Note_off_c, 0, 77, 0
2, 90864, Note_on_c, 0, 79, 105
2, 90910, Note_off_c, 0, 79, 0
2, 90912, Note_on_c, 0, 77, 105
2, 90958, Note_off_c, 0, 77, 0
2, 90960, Note_on_c, 0, 79, 105
2, 91006, Note_off_c, 0, 79, 0
2, 91008, Note_on_c, 0, 76, 105
2, 91054, Note_off_c, 0, 76, 0
2, 91056, Note_on_c, 0, 79, 105
2, 91102, Note_off_c, 0, 79, 0
2, 91104, Note_on_c, 0, 84, 105
2, 91150, Note_off_c, 0, 84, 0
2, 91152, Note_on_c, 0, 76, 105
2, 91198, Note_off_c, 0, 76, 0
2, 91200, Note_on_c, 0, 74, 105
2, 91246, Note_off_c, 0, 74, 0
2, 91248, Note_on_c, 0, 83, 105
2, 91294, Note_off_c, 0, 83, 0
2, 91296, Note_on_c, 0, 72, 105
2, 91342, Note_off_c, 0, 72, 0
2, 91344, Note_on_c, 0, 81, 105
2, 91390, Note_off_c, 0, 81, 0
2, 91392, Note_on_c, 0, 71, 105
2, 91438, Note_off_c, 0, 71, 0
2, 91440, Note_on_c, 0, 79, 105
2, 91486, Note_off_c, 0, 79, 0
2, 91488, Note_on_c, 0, 69, 105
2, 91534, Note_off_c, 0, 69, 0
2, 91536, Note_on_c, 0, 77, 105
2, 91582, Note_off_c, 0, 77, 0
2, 91584, Note_on_c, 0, 67, 105
2, 91630, Note_off_c, 0, 67, 0
2, 91632, Note_on_c, 0, 76, 105
2, 91678, Note_off_c, 0, 76, 0
2, 91680, Note_on_c, 0, 65, 105
2, 91726, Note_off_c, 0, 65, 0
2, 91728, Note_on_c, 0, 74, 105
2, 91774, Note_off_c, 0, 74, 0
2, 91776, Note_on_c, 0, 64, 105
2, 91822, Note_off_c, 0, 64, 0
2, 91824, Note_on_c, 0, 72, 105
2, 91870, Note_off_c, 0, 72, 0
2, 91872, Note_on_c, 0, 62, 105
2, 91918, Note_off_c, 0, 62, 0
2, 91920, Note_on_c, 0, 71, 105
2, 91966, Note_off_c, 0, 71, 0
2, 91968, Note_on_c, 0, 60, 105
2, 92014, Note_off_c, 0, 60, 0
2, 92016, Note_on_c, 0, 69, 105
2, 92062, Note_off_c, 0, 69, 0
2, 92064, Note_on_c, 0, 59, 105
2, 92110, Note_off_c, 0, 59, 0
2, 92112, Note_on_c, 0, 67, 105
2, 92158, Note_off_c, 0, 67, 0
2, 92160, Note_on_c, 0, 66, 105
2, 92160, Note_on_c, 0, 57, 105
2, 92446, Note_off_c, 0, 66, 0
2, 92446, Note_off_c, 0, 57, 0
2, 92448, Note_on_c, 0, 65, 105
2, 92448, Note_on_c, 0, 56, 105
2, 92734, Note_off_c, 0, 65, 0
2, 92734, Note_off_c, 0, 56, 0
2, 92736, Note_on_c, 0, 77, 105
2, 92736, Note_on_c, 0, 68, 105
2, 93022, Note_off_c, 0, 77, 0
2, 93022, Note_off_c, 0, 68, 0
2, 93024, Note_on_c, 0, 71, 105
2, 93024, Note_on_c, 0, 62, 105
2, 93310, Note_off_c, 0, 71, 0
2, 93310, Note_off_c, 0, 62, 0
2, 93408, Note_on_c, 0, 79, 60
2, 93502, Note_off_c, 0, 79, 0
2, 93504, Note_on_c, 0, 79, 60
2, 93598, Note_off_c, 0, 79, 0
2, 93696, Note_on_c, 0, 81, 60
2, 93790, Note_off_c, 0, 81, 0
2, 93792, Note_on_c, 0, 81, 60
2, 93886, Note_off_c, 0, 81, 0
2, 93888, Note_on_c, 0, 72, 60
2, 93888, Note_on_c, 0, 67, 60
2, 94174, Note_off_c, 0, 72, 0
2, 94174, Note_off_c, 0, 67, 0
2, 94176, Note_on_c, 0, 76, 60
2, 94200, Note_on_c, 0, 71, 60
2, 94200, Note_on_c, 0, 74, 60
2, 94210, Note_off_c, 0, 76, 0
2, 94464, Note_on_c, 0, 72, 90
2, 94470, Note_off_c, 0, 71, 0
2, 94470, Note_off_c, 0, 74, 0
2, 94510, Note_off_c, 0, 72, 0
2, 94512, Note_on_c, 0, 79, 90
2, 94558, Note_off_c, 0, 79, 0
2, 94560, Note_on_c, 0, 78, 90
2, 94606, Note_off_c, 0, 78, 0
2, 94608, Note_on_c, 0, 79, 90
2, 94654, Note_off_c, 0, 79, 0
2, 94656, Note_on_c, 0, 81, 90
2, 94702, Note_off_c, 0, 81, 0
2, 94704, Note_on_c, 0, 79, 90
2, 94750, Note_off_c, 0, 79, 0
2, 94752, Note_on_c, 0, 77, 90
2, 94798, Note_off_c, 0, 77, 0
2, 94800, Note_on_c, 0, 79, 90
2, 94846, Note_off_c, 0, 79, 0
2, 94860, Note_on_c, 0, 77, 90
2, 94896, Note_on_c, 0, 79, 90
2, 94906, Note_off_c, 0, 77, 0
2, 94942, Note_off_c, 0, 79, 0
2, 94944, Note_on_c, 0, 77, 90
2, 94990, Note_off_c, 0, 77, 0
2, 94992, Note_on_c, 0, 79, 90
2, 95038, Note_off_c, 0, 79, 0
2, 95040, Note_on_c, 0, 76, 105
2, 95086, Note_off_c, 0, 76, 0
2, 95088, Note_on_c, 0, 79, 105
2, 95134, Note_off_c, 0, 79, 0
2, 95136, Note_on_c, 0, 78, 105
2, 95182, Note_off_c, 0, 78, 0
2, 95184, Note_on_c, 0, 79, 105
2, 95230, Note_off_c, 0, 79, 0
2, 95232, Note_on_c, 0, 84, 105
2, 95278, Note_off_c, 0, 84, 0
2, 95280, Note_on_c, 0, 79, 105
2, 95326, Note_off_c, 0, 79, 0
2, 95328, Note_on_c, 0, 77, 105
2, 95374, Note_off_c, 0, 77, 0
2, 95376, Note_on_c, 0, 79, 105
2, 95422, Note_off_c, 0, 79, 0
2, 95424, Note_on_c, 0, 77, 105
2, 95470, Note_off_c, 0, 77, 0
2, 95472, Note_on_c, 0, 79, 105
2, 95518, Note_off_c, 0, 79, 0
2, 95520, Note_on_c, 0, 77, 105
2, 95566, Note_off_c, 0, 77, 0
2, 95568, Note_on_c, 0, 79, 105
2, 95614, Note_off_c, 0, 79, 0
2, 95616, Note_on_c, 0, 76, 105
2, 95662, Note_off_c, 0, 76, 0
2, 95664, Note_on_c, 0, 79, 105
2, 95710, Note_off_c, 0, 79, 0
2, 95712, Note_on_c, 0, 78, 105
2, 95758, Note_off_c, 0, 78, 0
2, 95760, Note_on_c, 0, 79, 105
2, 95806, Note_off_c, 0, 79, 0
2, 95808, Note_on_c, 0, 84, 105
2, 95854, Note_off_c, 0, 84, 0
2, 95856, Note_on_c, 0, 79, 105
2, 95902, Note_off_c, 0, 79, 0
2, 95904, Note_on_c, 0, 77, 105
2, 95950, Note_off_c, 0, 77, 0
2, 95952, Note_on_c, 0, 79, 105
2, 95998, Note_off_c, 0, 79, 0
2, 96000, Note_on_c, 0, 77, 105
2, 96046, Note_off_c, 0, 77, 0
2, 96048, Note_on_c, 0, 79, 105
2, 96094, Note_off_c, 0, 79, 0
2, 96096, Note_on_c, 0, 77, 105
2, 96142, Note_off_c, 0, 77, 0
2, 96144, Note_on_c, 0, 79, 105
2, 96190, Note_off_c, 0, 79, 0
2, 96192, Note_on_c, 0, 76, 105
2, 96238, Note_off_c, 0, 76, 0
2, 96240, Note_on_c, 0, 79, 105
2, 96286, Note_off_c, 0, 79, 0
2, 96288, Note_on_c, 0, 84, 105
2, 96334, Note_off_c, 0, 84, 0
2, 96336, Note_on_c, 0, 76, 105
2, 96382, Note_off_c, 0, 76, 0
2, 96384, Note_on_c, 0, 74, 105
2, 96430, Note_off_c, 0, 74, 0
2, 96432, Note_on_c, 0, 83, 105
2, 96478, Note_off_c, 0, 83, 0
2, 96480, Note_on_c, 0, 72, 105
2, 96526, Note_off_c, 0, 72, 0
2, 96528, Note_on_c, 0, 81, 105
2, 96574, Note_off_c, 0, 81, 0
2, 96576, Note_on_c, 0, 71, 105
2, 96622, Note_off_c, 0, 71, 0
2, 96624, Note_on_c, 0, 79, 105
2, 96670, Note_off_c, 0, 79, 0
2, 96672, Note_on_c, 0, 69, 105
2, 96718, Note_off_c, 0, 69, 0
2, 96720, Note_on_c, 0, 77, 105
2, 96766, Note_off_c, 0, 77, 0
2, 96768, Note_on_c, 0, 67, 105
2, 96814, Note_off_c, 0, 67, 0
2, 96816, Note_on_c, 0, 76, 105
2, 96862, Note_off_c, 0, 76, 0
2, 96864, Note_on_c, 0, 65, 105
2, 96910, Note_off_c, 0, 65, 0
2, 96912, Note_on_c, 0, 74, 105
2, 96958, Note_off_c, 0, 74, 0
2, 96960, Note_on_c, 0, 64, 105
2, 97006, Note_off_c, 0, 64, 0
2, 97008, Note_on_c, 0, 72, 105
2, 97054, Note_off_c, 0, 72, 0
2, 97056, Note_on_c, 0, 62, 105
2, 97104, Note_on_c, 0, 71, 105
2, 97148, Note_off_c, 0, 62, 0
2, 97152, Note_on_c, 0, 60, 105
2, 97196, Note_off_c, 0, 71, 0
2, 97200, Note_on_c, 0, 69, 105
2, 97244, Note_off_c, 0, 60, 0
2, 97246, Note_off_c, 0, 69, 0
2, 97248, Note_on_c, 0, 58, 105
2, 97294, Note_off_c, 0, 58, 0
2, 97296, Note_on_c, 0, 67, 105
2, 97342, Note_off_c, 0, 67, 0
2, 97344, Note_on_c, 0, 66, 105
2, 97344, Note_on_c, 0, 57, 105
2, 97630, Note_off_c, 0, 66, 0
2, 97630, Note_off_c, 0, 57, 0
2, 97632, Note_on_c, 0, 65, 105
2, 97632, Note_on_c, 0, 56, 105
2, 97918, Note_off_c, 0, 65, 0
2, 97918, Note_off_c, 0, 56, 0
2, 97920, Note_on_c, 0, 77, 105
2, 97920, Note_on_c, 0, 68, 105
2, 98206, Note_off_c, 0, 77, 0
2, 98206, Note_off_c, 0, 68, 0
2, 98208, Note_on_c, 0, 71, 105
2, 98208, Note_on_c, 0, 62, 105
2, 98494, Note_off_c, 0, 71, 0
2, 98494, Note_off_c, 0, 62, 0
2, 98592, Note_on_c, 0, 79, 60
2, 98686, Note_off_c, 0, 79, 0
2, 98688, Note_on_c, 0, 79, 60
2, 98782, Note_off_c, 0, 79, 0
2, 98868, Note_on_c, 0, 81, 60
2, 98962, Note_off_c, 0, 81, 0
2, 98976, Note_on_c, 0, 81, 60
2, 99070, Note_off_c, 0, 81, 0
2, 99072, Note_on_c, 0, 72, 60
2, 99072, Note_on_c, 0, 67, 60
2, 99358, Note_off_c, 0, 72, 0
2, 99360, Note_on_c, 0, 71, 60
2, 99646, Note_off_c, 0, 67, 0
2, 99646, Note_off_c, 0, 71, 0
2, 99648, Note_on_c, 0, 78, 90
2, 99694, Note_off_c, 0, 78, 0
2, 99696, Note_on_c, 0, 79, 90
2, 99742, Note_off_c, 0, 79, 0
2, 99744, Note_on_c, 0, 78, 90
2, 99790, Note_off_c, 0, 78, 0
2, 99792, Note_on_c, 0, 79, 90
2, 99838, Note_off_c, 0, 79, 0
2, 99840, Note_on_c, 0, 78, 90
2, 99886, Note_off_c, 0, 78, 0
2, 99888, Note_on_c, 0, 79, 90
2, 99934, Note_off_c, 0, 79, 0
2, 99936, Note_on_c, 0, 80, 90
2, 99982, Note_off_c, 0, 80, 0
2, 99984, Note_on_c, 0, 81, 90
2, 100030, Note_off_c, 0, 81, 0
2, 100032, Note_on_c, 0, 80, 90
2, 100078, Note_off_c, 0, 80, 0
2, 100080, Note_on_c, 0, 81, 90
2, 100126, Note_off_c, 0, 81, 0
2, 100128, Note_on_c, 0, 83, 90
2, 100174, Note_off_c, 0, 83, 0
2, 100176, Note_on_c, 0, 84, 90
2, 100222, Note_off_c, 0, 84, 0
2, 100224, Note_on_c, 0, 72, 60
2, 100510, Note_off_c, 0, 72, 0
2, 100512, Note_on_c, 0, 76, 60
2, 100534, Note_off_c, 0, 76, 0
2, 100536, Note_on_c, 0, 74, 60
2, 100536, Note_on_c, 0, 71, 60
2, 100704, Note_on_c, 0, 74, 60
2, 100726, Note_off_c, 0, 74, 0
2, 100750, Note_off_c, 0, 74, 0
2, 100752, Note_on_c, 0, 72, 60
2, 100798, Note_off_c, 0, 72, 0
2, 100800, Note_on_c, 0, 72, 90
2, 100806, Note_off_c, 0, 71, 0
2, 100846, Note_off_c, 0, 72, 0
2, 100848, Note_on_c, 0, 76, 90
2, 100894, Note_off_c, 0, 76, 0
2, 100896, Note_on_c, 0, 79, 90
2, 100942, Note_off_c, 0, 79, 0
2, 100944, Note_on_c, 0, 84, 90
2, 100990, Note_off_c, 0, 84, 0
2, 100992, Note_on_c, 0, 83, 90
2, 101038, Note_off_c, 0, 83, 0
2, 101040, Note_on_c, 0, 81, 90
2, 101086, Note_off_c, 0, 81, 0
2, 101088, Note_on_c, 0, 79, 90
2, 101134, Note_off_c, 0, 79, 0
2, 101136, Note_on_c, 0, 81, 90
2, 101182, Note_off_c, 0, 81, 0
2, 101184, Note_on_c, 0, 79, 90
2, 101230, Note_off_c, 0, 79, 0
2, 101232, Note_on_c, 0, 77, 90
2, 101278, Note_off_c, 0, 77, 0
2, 101280, Note_on_c, 0, 76, 90
2, 101326, Note_off_c, 0, 76, 0
2, 101328, Note_on_c, 0, 74, 90
2, 101374, Note_off_c, 0, 74, 0
2, 101376, Note_on_c, 0, 72, 90
2, 101422, Note_off_c, 0, 72, 0
2, 101424, Note_on_c, 0, 76, 90
2, 101470, Note_off_c, 0, 76, 0
2, 101472, Note_on_c, 0, 74, 90
2, 101518, Note_off_c, 0, 74, 0
2, 101520, Note_on_c, 0, 72, 90
2, 101566, Note_off_c, 0, 72, 0
2, 101568, Note_on_c, 0, 71, 90
2, 101614, Note_off_c, 0, 71, 0
2, 101616, Note_on_c, 0, 69, 90
2, 101662, Note_off_c, 0, 69, 0
2, 101664, Note_on_c, 0, 67, 90
2, 101710, Note_off_c, 0, 67, 0
2, 101712, Note_on_c, 0, 69, 90
2, 101758, Note_off_c, 0, 69, 0
2, 101760, Note_on_c, 0, 67, 90
2, 101806, Note_off_c, 0, 67, 0
2, 101808, Note_on_c, 0, 65, 90
2, 101854, Note_off_c, 0, 65, 0
2, 101856, Note_on_c, 0, 64, 90
2, 101902, Note_off_c, 0, 64, 0
2, 101904, Note_on_c, 0, 62, 90
2, 101950, Note_off_c, 0, 62, 0
2, 101952, Note_on_c, 0, 60, 90
2, 101998, Note_off_c, 0, 60, 0
2, 102000, Note_on_c, 0, 64, 90
2, 102046, Note_off_c, 0, 64, 0
2, 102048, Note_on_c, 0, 62, 90
2, 102094, Note_off_c, 0, 62, 0
2, 102096, Note_on_c, 0, 60, 90
2, 102142, Note_off_c, 0, 60, 0
2, 102144, Note_on_c, 0, 59, 90
2, 102190, Note_off_c, 0, 59, 0
2, 102192, Note_on_c, 0, 57, 90
2, 102238, Note_off_c, 0, 57, 0
2, 102816, Note_on_c, 0, 60, 90
2, 102910, Note_off_c, 0, 60, 0
2, 102912, Note_on_c, 0, 64, 90
2, 103006, Note_off_c, 0, 64, 0
2, 103008, Note_on_c, 0, 67, 90
2, 103102, Note_off_c, 0, 67, 0
2, 103104, Note_on_c, 0, 72, 99
2, 103294, Note_off_c, 0, 72, 0
2, 103392, Note_on_c, 0, 79, 99
2, 103392, Note_on_c, 0, 76, 99
2, 103392, Note_on_c, 0, 72, 99
2, 103392, Note_on_c, 0, 67, 99
2, 103582, Note_off_c, 0, 79, 0
2, 103582, Note_off_c, 0, 76, 0
2, 103582, Note_off_c, 0, 72, 0
2, 103582, Note_off_c, 0, 67, 0
2, 103680, Note_on_c, 0, 84, 99
2, 103680, Note_on_c, 0, 79, 99
2, 103680, Note_on_c, 0, 76, 99
2, 103680, Note_on_c, 0, 72, 99
2, 103870, Note_off_c, 0, 84, 0
2, 103870, Note_off_c, 0, 79, 0
2, 103870, Note_off_c, 0, 76, 0
2, 103870, Note_off_c, 0, 72, 0
2, 104304, Note_on_c, 0, 79, 90
2, 104350, Note_off_c, 0, 79, 0
2, 104352, Note_on_c, 0, 78, 90
2, 104398, Note_off_c, 0, 78, 0
2, 104400, Note_on_c, 0, 79, 90
2, 104446, Note_off_c, 0, 79, 0
2, 104448, Note_on_c, 0, 84, 90
2, 104494, Note_off_c, 0, 84, 0
2, 104496, Note_on_c, 0, 79, 90
2, 104542, Note_off_c, 0, 79, 0
2, 104544, Note_on_c, 0, 77, 90
2, 104590, Note_off_c, 0, 77, 0
2, 104592, Note_on_c, 0, 75, 90
2, 104638, Note_off_c, 0, 75, 0
2, 104640, Note_on_c, 0, 74, 90
2, 104686, Note_off_c, 0, 74, 0
2, 104688, Note_on_c, 0, 75, 90
2, 104734, Note_off_c, 0, 75, 0
2, 104736, Note_on_c, 0, 79, 90
2, 104782, Note_off_c, 0, 79, 0
2, 104784, Note_on_c, 0, 75, 90
2, 104830, Note_off_c, 0, 75, 0
2, 104832, Note_on_c, 0, 74, 90
2, 104878, Note_off_c, 0, 74, 0
2, 104880, Note_on_c, 0, 72, 90
2, 104926, Note_off_c, 0, 72, 0
2, 104928, Note_on_c, 0, 71, 90
2, 104974, Note_off_c, 0, 71, 0
2, 104976, Note_on_c, 0, 72, 90
2, 105022, Note_off_c, 0, 72, 0
2, 105024, Note_on_c, 0, 75, 90
2, 105070, Note_off_c, 0, 75, 0
2, 105072, Note_on_c, 0, 72, 90
2, 105118, Note_off_c, 0, 72, 0
2, 105120, Note_on_c, 0, 68, 90
2, 105166, Note_off_c, 0, 68, 0
2, 105168, Note_on_c, 0, 67, 90
2, 105214, Note_off_c, 0, 67, 0
2, 105216, Note_on_c, 0, 66, 90
2, 105262, Note_off_c, 0, 66, 0
2, 105264, Note_on_c, 0, 67, 90
2, 105310, Note_off_c, 0, 67, 0
2, 105312, Note_on_c, 0, 72, 90
2, 105358, Note_off_c, 0, 72, 0
2, 105360, Note_on_c, 0, 67, 90
2, 105406, Note_off_c, 0, 67, 0
2, 105408, Note_on_c, 0, 65, 90
2, 105454, Note_off_c, 0, 65, 0
2, 105456, Note_on_c, 0, 63, 90
2, 105502, Note_off_c, 0, 63, 0
2, 105504, Note_on_c, 0, 62, 90
2, 105550, Note_off_c, 0, 62, 0
2, 105552, Note_on_c, 0, 63, 90
2, 105598, Note_off_c, 0, 63, 0
2, 105600, Note_on_c, 0, 67, 90
2, 105646, Note_off_c, 0, 67, 0
2, 105648, Note_on_c, 0, 63, 90
2, 105694, Note_off_c, 0, 63, 0
2, 105696, Note_on_c, 0, 60, 90
2, 105742, Note_off_c, 0, 60, 0
2, 105744, Note_on_c, 0, 72, 90
2, 105790, Note_off_c, 0, 72, 0
2, 105792, Note_on_c, 0, 59, 90
2, 105838, Note_off_c, 0, 59, 0
2, 105840, Note_on_c, 0, 72, 90
2, 105886, Note_off_c, 0, 72, 0
2, 105888, Note_on_c, 0, 60, 90
2, 105934, Note_off_c, 0, 60, 0
2, 105936, Note_on_c, 0, 72, 90
2, 105982, Note_off_c, 0, 72, 0
2, 105984, Note_on_c, 0, 62, 90
2, 106030, Note_off_c, 0, 62, 0
2, 106032, Note_on_c, 0, 72, 90
2, 106078, Note_off_c, 0, 72, 0
2, 106080, Note_on_c, 0, 60, 90
2, 106126, Note_off_c, 0, 60, 0
2, 106128, Note_on_c, 0, 72, 90
2, 106174, Note_off_c, 0, 72, 0
2, 106176, Note_on_c, 0, 62, 90
2, 106222, Note_off_c, 0, 62, 0
2, 106224, Note_on_c, 0, 72, 90
2, 106270, Note_off_c, 0, 72, 0
2, 106272, Note_on_c, 0, 64, 90
2, 106318, Note_off_c, 0, 64, 0
2, 106320, Note_on_c, 0, 72, 90
2, 106366, Note_off_c, 0, 72, 0
2, 106368, Note_on_c, 0, 62, 90
2, 106414, Note_off_c, 0, 62, 0
2, 106416, Note_on_c, 0, 72, 90
2, 106462, Note_off_c, 0, 72, 0
2, 106464, Note_on_c, 0, 64, 90
2, 106510, Note_off_c, 0, 64, 0
2, 106512, Note_on_c, 0, 72, 90
2, 106558, Note_off_c, 0, 72, 0
2, 106560, Note_on_c, 0, 65, 99
2, 106606, Note_off_c, 0, 65, 0
2, 106608, Note_on_c, 0, 72, 90
2, 106654, Note_off_c, 0, 72, 0
2, 106656, Note_on_c, 0, 65, 87
2, 106702, Note_off_c, 0, 65, 0
2, 106704, Note_on_c, 0, 72, 84
2, 106750, Note_off_c, 0, 72, 0
2, 106752, Note_on_c, 0, 63, 81
2, 106798, Note_off_c, 0, 63, 0
2, 106800, Note_on_c, 0, 72, 78
2, 106846, Note_off_c, 0, 72, 0
2, 106848, Note_on_c, 0, 65, 99
2, 106894, Note_off_c, 0, 65, 0
2, 106896, Note_on_c, 0, 72, 90
2, 106942, Note_off_c, 0, 72, 0
2, 106944, Note_on_c, 0, 65, 87
2, 106990, Note_off_c, 0, 65, 0
2, 106992, Note_on_c, 0, 72, 84
2, 107038, Note_off_c, 0, 72, 0
2, 107040, Note_on_c, 0, 63, 81
2, 107086, Note_off_c, 0, 63, 0
2, 107088, Note_on_c, 0, 72, 78
2, 107134, Note_off_c, 0, 72, 0
2, 107136, Note_on_c, 0, 62, 90
2, 107182, Note_off_c, 0, 62, 0
2, 107184, Note_on_c, 0, 72, 90
2, 107230, Note_off_c, 0, 72, 0
2, 107232, Note_on_c, 0, 63, 90
2, 107278, Note_off_c, 0, 63, 0
2, 107280, Note_on_c, 0, 72, 90
2, 107326, Note_off_c, 0, 72, 0
2, 107328, Note_on_c, 0, 62, 90
2, 107374, Note_off_c, 0, 62, 0
2, 107376, Note_on_c, 0, 72, 90
2, 107422, Note_off_c, 0, 72, 0
2, 107424, Note_on_c, 0, 63, 90
2, 107470, Note_off_c, 0, 63, 0
2, 107472, Note_on_c, 0, 72, 90
2, 107518, Note_off_c, 0, 72, 0
2, 107520, Note_on_c, 0, 65, 90
2, 107566, Note_off_c, 0, 65, 0
2, 107568, Note_on_c, 0, 72, 90
2, 107614, Note_off_c, 0, 72, 0
2, 107616, Note_on_c, 0, 63, 90
2, 107662, Note_off_c, 0, 63, 0
2, 107664, Note_on_c, 0, 72, 90
2, 107710, Note_off_c, 0, 72, 0
2, 107712, Note_on_c, 0, 62, 90
2, 107758, Note_off_c, 0, 62, 0
2, 107760, Note_on_c, 0, 72, 90
2, 107806, Note_off_c, 0, 72, 0
2, 107808, Note_on_c, 0, 63, 90
2, 107854, Note_off_c, 0, 63, 0
2, 107856, Note_on_c, 0, 72, 90
2, 107902, Note_off_c, 0, 72, 0
2, 107904, Note_on_c, 0, 62, 90
2, 107950, Note_off_c, 0, 62, 0
2, 107952, Note_on_c, 0, 72, 90
2, 107998, Note_off_c, 0, 72, 0
2, 108000, Note_on_c, 0, 63, 90
2, 108046, Note_off_c, 0, 63, 0
2, 108048, Note_on_c, 0, 72, 90
2, 108094, Note_off_c, 0, 72, 0
2, 108096, Note_on_c, 0, 65, 90
2, 108142, Note_off_c, 0, 65, 0
2, 108144, Note_on_c, 0, 72, 90
2, 108190, Note_off_c, 0, 72, 0
2, 108192, Note_on_c, 0, 63, 90
2, 108238, Note_off_c, 0, 63, 0
2, 108240, Note_on_c, 0, 72, 90
2, 108286, Note_off_c, 0, 72, 0
2, 108288, Note_on_c, 0, 62, 90
2, 108334, Note_off_c, 0, 62, 0
2, 108528, Note_on_c, 0, 66, 90
2, 108574, Note_off_c, 0, 66, 0
2, 108576, Note_on_c, 0, 72, 90
2, 108622, Note_off_c, 0, 72, 0
2, 108624, Note_on_c, 0, 62, 90
2, 108670, Note_off_c, 0, 62, 0
2, 108672, Note_on_c, 0, 66, 90
2, 108718, Note_off_c, 0, 66, 0
2, 108720, Note_on_c, 0, 69, 90
2, 108766, Note_off_c, 0, 69, 0
2, 108768, Note_on_c, 0, 72, 90
2, 108814, Note_off_c, 0, 72, 0
2, 108816, Note_on_c, 0, 78, 90
2, 108862, Note_off_c, 0, 78, 0
2, 108864, Note_on_c, 0, 84, 99
2, 108910, Note_off_c, 0, 84, 0
2, 108912, Note_on_c, 0, 82, 96
2, 108958, Note_off_c, 0, 82, 0
2, 108960, Note_on_c, 0, 81, 90
2, 109006, Note_off_c, 0, 81, 0
2, 109008, Note_on_c, 0, 79, 90
2, 109054, Note_off_c, 0, 79, 0
2, 109056, Note_on_c, 0, 78, 90
2, 109102, Note_off_c, 0, 78, 0
2, 109104, Note_on_c, 0, 79, 90
2, 109150, Note_off_c, 0, 79, 0
2, 109152, Note_on_c, 0, 78, 90
2, 109198, Note_off_c, 0, 78, 0
2, 109200, Note_on_c, 0, 79, 90
2, 109246, Note_off_c, 0, 79, 0
2, 109248, Note_on_c, 0, 78, 90
2, 109294, Note_off_c, 0, 78, 0
2, 109296, Note_on_c, 0, 75, 90
2, 109342, Note_off_c, 0, 75, 0
2, 109344, Note_on_c, 0, 74, 90
2, 109390, Note_off_c, 0, 74, 0
2, 109392, Note_on_c, 0, 72, 90
2, 109438, Note_off_c, 0, 72, 0
2, 109440, Note_on_c, 0, 71, 90
2, 109486, Note_off_c, 0, 71, 0
2, 109488, Note_on_c, 0, 77, 90
2, 109534, Note_off_c, 0, 77, 0
2, 109536, Note_on_c, 0, 72, 90
2, 109582, Note_off_c, 0, 72, 0
2, 109584, Note_on_c, 0, 77, 90
2, 109630, Note_off_c, 0, 77, 0
2, 109632, Note_on_c, 0, 71, 90
2, 109678, Note_off_c, 0, 71, 0
2, 109680, Note_on_c, 0, 77, 90
2, 109726, Note_off_c, 0, 77, 0
2, 109728, Note_on_c, 0, 72, 90
2, 109774, Note_off_c, 0, 72, 0
2, 109776, Note_on_c, 0, 77, 90
2, 109822, Note_off_c, 0, 77, 0
2, 109824, Note_on_c, 0, 73, 90
2, 109870, Note_off_c, 0, 73, 0
2, 109872, Note_on_c, 0, 77, 90
2, 109918, Note_off_c, 0, 77, 0
2, 109920, Note_on_c, 0, 72, 90
2, 109966, Note_off_c, 0, 72, 0
2, 109968, Note_on_c, 0, 77, 90
2, 110014, Note_off_c, 0, 77, 0
2, 110016, Note_on_c, 0, 71, 90
2, 110062, Note_off_c, 0, 71, 0
2, 110064, Note_on_c, 0, 77, 90
2, 110110, Note_off_c, 0, 77, 0
2, 110112, Note_on_c, 0, 72, 90
2, 110158, Note_off_c, 0, 72, 0
2, 110160, Note_on_c, 0, 77, 90
2, 110206, Note_off_c, 0, 77, 0
2, 110208, Note_on_c, 0, 71, 90
2, 110254, Note_off_c, 0, 71, 0
2, 110256, Note_on_c, 0, 77, 90
2, 110302, Note_off_c, 0, 77, 0
2, 110304, Note_on_c, 0, 72, 90
2, 110350, Note_off_c, 0, 72, 0
2, 110352, Note_on_c, 0, 77, 90
2, 110398, Note_off_c, 0, 77, 0
2, 110412, Note_on_c, 0, 73, 90
2, 110448, Note_on_c, 0, 77, 90
2, 110458, Note_off_c, 0, 73, 0
2, 110494, Note_off_c, 0, 77, 0
2, 110496, Note_on_c, 0, 72, 90
2, 110542, Note_off_c, 0, 72, 0
2, 110544, Note_on_c, 0, 77, 90
2, 110590, Note_off_c, 0, 77, 0
2, 110592, Note_on_c, 0, 71, 90
2, 110638, Note_off_c, 0, 71, 0
2, 110832, Note_on_c, 0, 71, 90
2, 110878, Note_off_c, 0, 71, 0
2, 110880, Note_on_c, 0, 77, 90
2, 110926, Note_off_c, 0, 77, 0
2, 110928, Note_on_c, 0, 67, 90
2, 110974, Note_off_c, 0, 67, 0
2, 110976, Note_on_c, 0, 71, 90
2, 111022, Note_off_c, 0, 71, 0
2, 111024, Note_on_c, 0, 74, 90
2, 111070, Note_off_c, 0, 74, 0
2, 111072, Note_on_c, 0, 77, 90
2, 111118, Note_off_c, 0, 77, 0
2, 111120, Note_on_c, 0, 83, 90
2, 111166, Note_off_c, 0, 83, 0
2, 111168, Note_on_c, 0, 89, 90
2, 111214, Note_off_c, 0, 89, 0
2, 111216, Note_on_c, 0, 87, 90
2, 111262, Note_off_c, 0, 87, 0
2, 111264, Note_on_c, 0, 86, 90
2, 111310, Note_off_c, 0, 86, 0
2, 111312, Note_on_c, 0, 84, 90
2, 111358, Note_off_c, 0, 84, 0
2, 111360, Note_on_c, 0, 83, 90
2, 111406, Note_off_c, 0, 83, 0
2, 111408, Note_on_c, 0, 80, 90
2, 111454, Note_off_c, 0, 80, 0
2, 111456, Note_on_c, 0, 79, 90
2, 111502, Note_off_c, 0, 79, 0
2, 111504, Note_on_c, 0, 78, 90
2, 111550, Note_off_c, 0, 78, 0
2, 111552, Note_on_c, 0, 79, 90
2, 111598, Note_off_c, 0, 79, 0
2, 111600, Note_on_c, 0, 80, 90
2, 111646, Note_off_c, 0, 80, 0
2, 111648, Note_on_c, 0, 79, 90
2, 111694, Note_off_c, 0, 79, 0
2, 111696, Note_on_c, 0, 77, 90
2, 111742, Note_off_c, 0, 77, 0
2, 111744, Note_on_c, 0, 76, 90
2, 111790, Note_off_c, 0, 76, 0
2, 111792, Note_on_c, 0, 67, 90
2, 111838, Note_off_c, 0, 67, 0
2, 111840, Note_on_c, 0, 77, 90
2, 111886, Note_off_c, 0, 77, 0
2, 111888, Note_on_c, 0, 67, 90
2, 111934, Note_off_c, 0, 67, 0
2, 111936, Note_on_c, 0, 76, 90
2, 111982, Note_off_c, 0, 76, 0
2, 111984, Note_on_c, 0, 67, 90
2, 112030, Note_off_c, 0, 67, 0
2, 112032, Note_on_c, 0, 77, 90
2, 112078, Note_off_c, 0, 77, 0
2, 112080, Note_on_c, 0, 67, 90
2, 112126, Note_off_c, 0, 67, 0
2, 112128, Note_on_c, 0, 76, 90
2, 112174, Note_off_c, 0, 76, 0
2, 112176, Note_on_c, 0, 67, 90
2, 112222, Note_off_c, 0, 67, 0
2, 112224, Note_on_c, 0, 77, 90
2, 112270, Note_off_c, 0, 77, 0
2, 112272, Note_on_c, 0, 67, 90
2, 112318, Note_off_c, 0, 67, 0
2, 112320, Note_on_c, 0, 76, 90
2, 112366, Note_off_c, 0, 76, 0
2, 112368, Note_on_c, 0, 67, 90
2, 112414, Note_off_c, 0, 67, 0
2, 112416, Note_on_c, 0, 77, 90
2, 112462, Note_off_c, 0, 77, 0
2, 112464, Note_on_c, 0, 67, 90
2, 112510, Note_off_c, 0, 67, 0
2, 112512, Note_on_c, 0, 76, 90
2, 112558, Note_off_c, 0, 76, 0
2, 112560, Note_on_c, 0, 67, 90
2, 112606, Note_off_c, 0, 67, 0
2, 112608, Note_on_c, 0, 77, 90
2, 112654, Note_off_c, 0, 77, 0
2, 112656, Note_on_c, 0, 67, 90
2, 112702, Note_off_c, 0, 67, 0
2, 112704, Note_on_c, 0, 76, 90
2, 112750, Note_off_c, 0, 76, 0
2, 112752, Note_on_c, 0, 67, 90
2, 112798, Note_off_c, 0, 67, 0
2, 112800, Note_on_c, 0, 77, 90
2, 112846, Note_off_c, 0, 77, 0
2, 112848, Note_on_c, 0, 67, 90
2, 112894, Note_off_c, 0, 67, 0
2, 112896, Note_on_c, 0, 76, 90
2, 112942, Note_off_c, 0, 76, 0
2, 113136, Note_on_c, 0, 64, 90
2, 113182, Note_off_c, 0, 64, 0
2, 113184, Note_on_c, 0, 70, 90
2, 113230, Note_off_c, 0, 70, 0
2, 113232, Note_on_c, 0, 60, 90
2, 113278, Note_off_c, 0, 60, 0
2, 113280, Note_on_c, 0, 64, 90
2, 113326, Note_off_c, 0, 64, 0
2, 113328, Note_on_c, 0, 67, 90
2, 113374, Note_off_c, 0, 67, 0
2, 113376, Note_on_c, 0, 70, 90
2, 113422, Note_off_c, 0, 70, 0
2, 113424, Note_on_c, 0, 76, 90
2, 113470, Note_off_c, 0, 76, 0
2, 113472, Note_on_c, 0, 82, 99
2, 113518, Note_off_c, 0, 82, 0
2, 113520, Note_on_c, 0, 81, 96
2, 113566, Note_off_c, 0, 81, 0
2, 113568, Note_on_c, 0, 79, 90
2, 113614, Note_off_c, 0, 79, 0
2, 113616, Note_on_c, 0, 77, 90
2, 113662, Note_off_c, 0, 77, 0
2, 113664, Note_on_c, 0, 76, 90
2, 113710, Note_off_c, 0, 76, 0
2, 113712, Note_on_c, 0, 74, 90
2, 113758, Note_off_c, 0, 74, 0
2, 113760, Note_on_c, 0, 72, 90
2, 113806, Note_off_c, 0, 72, 0
2, 113808, Note_on_c, 0, 74, 90
2, 113854, Note_off_c, 0, 74, 0
2, 113856, Note_on_c, 0, 72, 90
2, 113902, Note_off_c, 0, 72, 0
2, 113904, Note_on_c, 0, 70, 90
2, 113950, Note_off_c, 0, 70, 0
2, 113952, Note_on_c, 0, 69, 90
2, 113998, Note_off_c, 0, 69, 0
2, 114000, Note_on_c, 0, 67, 90
2, 114046, Note_off_c, 0, 67, 0
2, 114048, Note_on_c, 0, 65, 90
2, 114094, Note_off_c, 0, 65, 0
2, 114096, Note_on_c, 0, 75, 90
2, 114142, Note_off_c, 0, 75, 0
2, 114144, Note_on_c, 0, 66, 90
2, 114190, Note_off_c, 0, 66, 0
2, 114192, Note_on_c, 0, 75, 90
2, 114238, Note_off_c, 0, 75, 0
2, 114240, Note_on_c, 0, 65, 90
2, 114286, Note_off_c, 0, 65, 0
2, 114288, Note_on_c, 0, 75, 90
2, 114334, Note_off_c, 0, 75, 0
2, 114336, Note_on_c, 0, 66, 90
2, 114382, Note_off_c, 0, 66, 0
2, 114384, Note_on_c, 0, 75, 90
2, 114430, Note_off_c, 0, 75, 0
2, 114432, Note_on_c, 0, 68, 90
2, 114478, Note_off_c, 0, 68, 0
2, 114480, Note_on_c, 0, 75, 90
2, 114526, Note_off_c, 0, 75, 0
2, 114528, Note_on_c, 0, 66, 90
2, 114574, Note_off_c, 0, 66, 0
2, 114576, Note_on_c, 0, 75, 90
2, 114622, Note_off_c, 0, 75, 0
2, 114624, Note_on_c, 0, 65, 90
2, 114670, Note_off_c, 0, 65, 0
2, 114672, Note_on_c, 0, 75, 90
2, 114718, Note_off_c, 0, 75, 0
2, 114720, Note_on_c, 0, 66, 90
2, 114766, Note_off_c, 0, 66, 0
2, 114768, Note_on_c, 0, 75, 90
2, 114814, Note_off_c, 0, 75, 0
2, 114816, Note_on_c, 0, 65, 90
2, 114862, Note_off_c, 0, 65, 0
2, 114864, Note_on_c, 0, 75, 90
2, 114900, Note_on_c, 0, 66, 90
2, 114910, Note_off_c, 0, 75, 0
2, 114946, Note_off_c, 0, 66, 0
2, 114960, Note_on_c, 0, 75, 90
2, 115006, Note_off_c, 0, 75, 0
2, 115008, Note_on_c, 0, 68, 90
2, 115054, Note_off_c, 0, 68, 0
2, 115056, Note_on_c, 0, 75, 90
2, 115102, Note_off_c, 0, 75, 0
2, 115104, Note_on_c, 0, 66, 90
2, 115150, Note_off_c, 0, 66, 0
2, 115152, Note_on_c, 0, 75, 90
2, 115198, Note_off_c, 0, 75, 0
2, 115200, Note_on_c, 0, 65, 90
2, 115246, Note_off_c, 0, 65, 0
2, 115440, Note_on_c, 0, 69, 90
2, 115486, Note_off_c, 0, 69, 0
2, 115488, Note_on_c, 0, 75, 90
2, 115534, Note_off_c, 0, 75, 0
2, 115536, Note_on_c, 0, 65, 90
2, 115582, Note_off_c, 0, 65, 0
2, 115584, Note_on_c, 0, 69, 90
2, 115630, Note_off_c, 0, 69, 0
2, 115632, Note_on_c, 0, 72, 90
2, 115678, Note_off_c, 0, 72, 0
2, 115680, Note_on_c, 0, 75, 90
2, 115726, Note_off_c, 0, 75, 0
2, 115728, Note_on_c, 0, 81, 90
2, 115774, Note_off_c, 0, 81, 0
2, 115776, Note_on_c, 0, 87, 99
2, 115822, Note_off_c, 0, 87, 0
2, 115824, Note_on_c, 0, 86, 96
2, 115870, Note_off_c, 0, 86, 0
2, 115872, Note_on_c, 0, 84, 90
2, 115918, Note_off_c, 0, 84, 0
2, 115920, Note_on_c, 0, 82, 90
2, 115966, Note_off_c, 0, 82, 0
2, 115968, Note_on_c, 0, 81, 90
2, 116014, Note_off_c, 0, 81, 0
2, 116016, Note_on_c, 0, 79, 90
2, 116062, Note_off_c, 0, 79, 0
2, 116064, Note_on_c, 0, 77, 90
2, 116110, Note_off_c, 0, 77, 0
2, 116112, Note_on_c, 0, 79, 90
2, 116158, Note_off_c, 0, 79, 0
2, 116160, Note_on_c, 0, 77, 90
2, 116206, Note_off_c, 0, 77, 0
2, 116208, Note_on_c, 0, 75, 90
2, 116254, Note_off_c, 0, 75, 0
2, 116268, Note_on_c, 0, 74, 90
2, 116304, Note_on_c, 0, 72, 90
2, 116314, Note_off_c, 0, 74, 0
2, 116350, Note_off_c, 0, 72, 0
2, 116352, Note_on_c, 0, 74, 60
2, 116446, Note_off_c, 0, 74, 0
2, 116544, Note_on_c, 0, 74, 60
2, 116638, Note_off_c, 0, 74, 0
2, 116640, Note_on_c, 0, 72, 60
2, 116734, Note_off_c, 0, 72, 0
2, 116832, Note_on_c, 0, 72, 60
2, 116926, Note_off_c, 0, 72, 0
2, 116928, Note_on_c, 0, 75, 90
2, 117214, Note_off_c, 0, 75, 0
2, 117216, Note_on_c, 0, 75, 60
2, 117406, Note_off_c, 0, 75, 0
2, 117408, Note_on_c, 0, 74, 60
2, 117502, Note_off_c, 0, 74, 0
2, 117504, Note_on_c, 0, 75, 60
2, 117598, Note_off_c, 0, 75, 0
2, 117696, Note_on_c, 0, 75, 60
2, 117790, Note_off_c, 0, 75, 0
2, 117792, Note_on_c, 0, 74, 60
2, 117886, Note_off_c, 0, 74, 0
2, 117984, Note_on_c, 0, 74, 60
2, 118078, Note_off_c, 0, 74, 0
2, 118080, Note_on_c, 0, 79, 90
2, 118366, Note_off_c, 0, 79, 0
2, 118368, Note_on_c, 0, 79, 60
2, 118558, Note_off_c, 0, 79, 0
2, 118560, Note_on_c, 0, 77, 60
2, 118654, Note_off_c, 0, 77, 0
2, 118656, Note_on_c, 0, 77, 60
2, 118750, Note_off_c, 0, 77, 0
2, 118752, Note_on_c, 0, 76, 60
2, 118846, Note_off_c, 0, 76, 0
2, 118848, Note_on_c, 0, 72, 60
2, 119038, Note_off_c, 0, 72, 0
2, 119040, Note_on_c, 0, 74, 60
2, 119134, Note_off_c, 0, 74, 0
2, 119136, Note_on_c, 0, 75, 60
2, 119230, Note_off_c, 0, 75, 0
2, 119232, Note_on_c, 0, 76, 60
2, 119326, Note_off_c, 0, 76, 0
2, 119328, Note_on_c, 0, 74, 60
2, 119422, Note_off_c, 0, 74, 0
2, 119424, Note_on_c, 0, 70, 60
2, 119614, Note_off_c, 0, 70, 0
2, 119616, Note_on_c, 0, 72, 64
2, 119710, Note_off_c, 0, 72, 0
2, 119712, Note_on_c, 0, 73, 69
2, 119806, Note_off_c, 0, 73, 0
2, 119808, Note_on_c, 0, 74, 75
2, 119902, Note_off_c, 0, 74, 0
2, 119904, Note_on_c, 0, 72, 78
2, 119998, Note_off_c, 0, 72, 0
2, 120000, Note_on_c, 0, 73, 79
2, 120190, Note_off_c, 0, 73, 0
2, 120192, Note_on_c, 0, 72, 82
2, 120286, Note_off_c, 0, 72, 0
2, 120288, Note_on_c, 0, 70, 84
2, 120382, Note_off_c, 0, 70, 0
2, 120384, Note_on_c, 0, 69, 87
2, 120670, Note_off_c, 0, 69, 0
2, 120672, Note_on_c, 0, 72, 88
2, 120766, Note_off_c, 0, 72, 0
2, 120960, Note_on_c, 0, 74, 90
2, 121006, Note_off_c, 0, 74, 0
2, 121008, Note_on_c, 0, 70, 90
2, 121054, Note_off_c, 0, 70, 0
2, 121056, Note_on_c, 0, 65, 90
2, 121102, Note_off_c, 0, 65, 0
2, 121104, Note_on_c, 0, 70, 90
2, 121150, Note_off_c, 0, 70, 0
2, 121152, Note_on_c, 0, 74, 90
2, 121198, Note_off_c, 0, 74, 0
2, 121200, Note_on_c, 0, 70, 90
2, 121246, Note_off_c, 0, 70, 0
2, 121248, Note_on_c, 0, 72, 90
2, 121294, Note_off_c, 0, 72, 0
2, 121296, Note_on_c, 0, 69, 90
2, 121342, Note_off_c, 0, 69, 0
2, 121344, Note_on_c, 0, 65, 90
2, 121390, Note_off_c, 0, 65, 0
2, 121392, Note_on_c, 0, 69, 90
2, 121438, Note_off_c, 0, 69, 0
2, 121440, Note_on_c, 0, 72, 90
2, 121486, Note_off_c, 0, 72, 0
2, 121488, Note_on_c, 0, 69, 90
2, 121534, Note_off_c, 0, 69, 0
2, 121536, Note_on_c, 0, 75, 90
2, 121582, Note_off_c, 0, 75, 0
2, 121584, Note_on_c, 0, 70, 90
2, 121630, Note_off_c, 0, 70, 0
2, 121632, Note_on_c, 0, 67, 90
2, 121678, Note_off_c, 0, 67, 0
2, 121680, Note_on_c, 0, 70, 90
2, 121726, Note_off_c, 0, 70, 0
2, 121728, Note_on_c, 0, 75, 90
2, 121774, Note_off_c, 0, 75, 0
2, 121776, Note_on_c, 0, 70, 90
2, 121822, Note_off_c, 0, 70, 0
2, 121824, Note_on_c, 0, 75, 90
2, 121870, Note_off_c, 0, 75, 0
2, 121872, Note_on_c, 0, 70, 90
2, 121918, Note_off_c, 0, 70, 0
2, 121920, Note_on_c, 0, 75, 90
2, 121966, Note_off_c, 0, 75, 0
2, 121968, Note_on_c, 0, 70, 90
2, 122014, Note_off_c, 0, 70, 0
2, 122016, Note_on_c, 0, 75, 90
2, 122062, Note_off_c, 0, 75, 0
2, 122064, Note_on_c, 0, 69, 90
2, 122110, Note_off_c, 0, 69, 0
2, 122112, Note_on_c, 0, 75, 90
2, 122158, Note_off_c, 0, 75, 0
2, 122160, Note_on_c, 0, 70, 90
2, 122206, Note_off_c, 0, 70, 0
2, 122208, Note_on_c, 0, 67, 90
2, 122254, Note_off_c, 0, 67, 0
2, 122256, Note_on_c, 0, 70, 90
2, 122302, Note_off_c, 0, 70, 0
2, 122304, Note_on_c, 0, 75, 90
2, 122350, Note_off_c, 0, 75, 0
2, 122352, Note_on_c, 0, 70, 90
2, 122398, Note_off_c, 0, 70, 0
2, 122400, Note_on_c, 0, 74, 90
2, 122446, Note_off_c, 0, 74, 0
2, 122448, Note_on_c, 0, 69, 90
2, 122494, Note_off_c, 0, 69, 0
2, 122496, Note_on_c, 0, 65, 90
2, 122542, Note_off_c, 0, 65, 0
2, 122544, Note_on_c, 0, 69, 90
2, 122590, Note_off_c, 0, 69, 0
2, 122592, Note_on_c, 0, 74, 90
2, 122638, Note_off_c, 0, 74, 0
2, 122640, Note_on_c, 0, 69, 90
2, 122686, Note_off_c, 0, 69, 0
2, 122688, Note_on_c, 0, 79, 90
2, 122734, Note_off_c, 0, 79, 0
2, 122736, Note_on_c, 0, 70, 90
2, 122782, Note_off_c, 0, 70, 0
2, 122784, Note_on_c, 0, 67, 90
2, 122830, Note_off_c, 0, 67, 0
2, 122832, Note_on_c, 0, 70, 90
2, 122878, Note_off_c, 0, 70, 0
2, 122880, Note_on_c, 0, 79, 90
2, 122926, Note_off_c, 0, 79, 0
2, 122928, Note_on_c, 0, 70, 90
2, 122974, Note_off_c, 0, 70, 0
2, 122976, Note_on_c, 0, 79, 90
2, 123022, Note_off_c, 0, 79, 0
2, 123024, Note_on_c, 0, 70, 90
2, 123070, Note_off_c, 0, 70, 0
2, 123072, Note_on_c, 0, 79, 90
2, 123118, Note_off_c, 0, 79, 0
2, 123120, Note_on_c, 0, 70, 90
2, 123166, Note_off_c, 0, 70, 0
2, 123168, Note_on_c, 0, 79, 90
2, 123214, Note_off_c, 0, 79, 0
2, 123216, Note_on_c, 0, 70, 90
2, 123262, Note_off_c, 0, 70, 0
2, 123408, Note_on_c, 0, 67, 90
2, 123454, Note_off_c, 0, 67, 0
2, 123456, Note_on_c, 0, 70, 90
2, 123502, Note_off_c, 0, 70, 0
2, 123504, Note_on_c, 0, 76, 90
2, 123550, Note_off_c, 0, 76, 0
2, 123696, Note_on_c, 0, 69, 90
2, 123742, Note_off_c, 0, 69, 0
2, 123744, Note_on_c, 0, 72, 90
2, 123790, Note_off_c, 0, 72, 0
2, 123792, Note_on_c, 0, 75, 90
2, 123838, Note_off_c, 0, 75, 0
2, 123984, Note_on_c, 0, 67, 90
2, 124030, Note_off_c, 0, 67, 0
2, 124032, Note_on_c, 0, 70, 90
2, 124078, Note_off_c, 0, 70, 0
2, 124080, Note_on_c, 0, 74, 90
2, 124126, Note_off_c, 0, 74, 0
2, 124272, Note_on_c, 0, 63, 90
2, 124318, Note_off_c, 0, 63, 0
2, 124320, Note_on_c, 0, 67, 90
2, 124366, Note_off_c, 0, 67, 0
2, 124368, Note_on_c, 0, 72, 90
2, 124414, Note_off_c, 0, 72, 0
2, 124560, Note_on_c, 0, 62, 90
2, 124606, Note_off_c, 0, 62, 0
2, 124608, Note_on_c, 0, 65, 90
2, 124654, Note_off_c, 0, 65, 0
2, 124656, Note_on_c, 0, 70, 90
2, 124702, Note_off_c, 0, 70, 0
2, 124848, Note_on_c, 0, 63, 90
2, 124894, Note_off_c, 0, 63, 0
2, 124896, Note_on_c, 0, 65, 90
2, 124942, Note_off_c, 0, 65, 0
2, 124944, Note_on_c, 0, 69, 90
2, 124990, Note_off_c, 0, 69, 0
2, 125952, Note_on_c, 0, 62, 60
2, 126046, Note_off_c, 0, 62, 0
2, 126048, Note_on_c, 0, 65, 60
2, 126142, Note_off_c, 0, 65, 0
2, 126144, Note_on_c, 0, 66, 60
2, 126238, Note_off_c, 0, 66, 0
2, 126240, Note_on_c, 0, 69, 60
2, 126334, Note_off_c, 0, 69, 0
2, 126336, Note_on_c, 0, 72, 60
2, 126430, Note_off_c, 0, 72, 0
2, 126432, Note_on_c, 0, 75, 60
2, 126526, Note_off_c, 0, 75, 0
2, 126528, Note_on_c, 0, 78, 60
2, 126622, Note_off_c, 0, 78, 0
2, 126624, Note_on_c, 0, 81, 60
2, 126718, Note_off_c, 0, 81, 0
2, 126720, Note_on_c, 0, 84, 60
2, 126814, Note_off_c, 0, 84, 0
2, 126816, Note_on_c, 0, 81, 60
2, 126910, Note_off_c, 0, 81, 0
2, 126912, Note_on_c, 0, 78, 60
2, 127006, Note_off_c, 0, 78, 0
2, 127008, Note_on_c, 0, 75, 60
2, 127102, Note_off_c, 0, 75, 0
2, 127104, Note_on_c, 0, 74, 60
2, 127198, Note_off_c, 0, 74, 0
2, 127200, Note_on_c, 0, 66, 60
2, 127294, Note_off_c, 0, 66, 0
2, 127296, Note_on_c, 0, 69, 60
2, 127390, Note_off_c, 0, 69, 0
2, 127392, Note_on_c, 0, 67, 60
2, 127486, Note_off_c, 0, 67, 0
2, 127488, Note_on_c, 0, 73, 60
2, 127582, Note_off_c, 0, 73, 0
2, 127584, Note_on_c, 0, 74, 60
2, 127678, Note_off_c, 0, 74, 0
2, 127680, Note_on_c, 0, 78, 60
2, 127774, Note_off_c, 0, 78, 0
2, 127776, Note_on_c, 0, 79, 60
2, 127870, Note_off_c, 0, 79, 0
2, 127872, Note_on_c, 0, 85, 60
2, 127966, Note_off_c, 0, 85, 0
2, 127968, Note_on_c, 0, 86, 60
2, 128062, Note_off_c, 0, 86, 0
2, 128064, Note_on_c, 0, 81, 60
2, 128158, Note_off_c, 0, 81, 0
2, 128160, Note_on_c, 0, 82, 60
2, 128254, Note_off_c, 0, 82, 0
2, 128256, Note_on_c, 0, 78, 60
2, 128350, Note_off_c, 0, 78, 0
2, 128352, Note_on_c, 0, 79, 60
2, 128446, Note_off_c, 0, 79, 0
2, 128544, Note_on_c, 0, 77, 45
2, 128638, Note_off_c, 0, 77, 0
2, 128640, Note_on_c, 0, 76, 45
2, 128734, Note_off_c, 0, 76, 0
2, 128844, Note_on_c, 0, 76, 45
2, 128928, Note_on_c, 0, 85, 45
2, 128938, Note_off_c, 0, 76, 0
2, 129022, Note_off_c, 0, 85, 0
2, 129120, Note_on_c, 0, 85, 45
2, 129214, Note_off_c, 0, 85, 0
2, 129216, Note_on_c, 0, 84, 45
2, 129310, Note_off_c, 0, 84, 0
2, 129408, Note_on_c, 0, 84, 45
2, 129502, Note_off_c, 0, 84, 0
2, 129504, Note_on_c, 0, 76, 45
2, 129598, Note_off_c, 0, 76, 0
2, 129696, Note_on_c, 0, 76, 90
2, 129790, Note_off_c, 0, 76, 0
2, 129792, Note_on_c, 0, 77, 90
2, 129886, Note_off_c, 0, 77, 0
2, 129888, Note_on_c, 0, 84, 90
2, 129982, Note_off_c, 0, 84, 0
2, 129996, Note_on_c, 0, 79, 90
2, 130080, Note_on_c, 0, 82, 90
2, 130090, Note_off_c, 0, 79, 0
2, 130174, Note_off_c, 0, 82, 0
2, 130176, Note_on_c, 0, 80, 90
2, 130270, Note_off_c, 0, 80, 0
2, 130272, Note_on_c, 0, 76, 90
2, 130366, Note_off_c, 0, 76, 0
2, 130368, Note_on_c, 0, 79, 90
2, 130462, Note_off_c, 0, 79, 0
2, 130464, Note_on_c, 0, 77, 90
2, 130558, Note_off_c, 0, 77, 0
2, 130560, Note_on_c, 0, 75, 90
2, 130654, Note_off_c, 0, 75, 0
2, 130656, Note_on_c, 0, 73, 90
2, 130750, Note_off_c, 0, 73, 0
2, 130752, Note_on_c, 0, 72, 60
2, 130752, Note_on_c, 0, 62, 60
2, 130848, Note_on_c, 0, 64, 60
2, 130942, Note_off_c, 0, 64, 0
2, 130944, Note_on_c, 0, 65, 60
2, 131038, Note_off_c, 0, 72, 0
2, 131038, Note_off_c, 0, 65, 0
2, 131040, Note_on_c, 0, 71, 60
2, 131040, Note_on_c, 0, 68, 60
2, 131134, Note_off_c, 0, 68, 0
2, 131136, Note_on_c, 0, 64, 60
2, 131230, Note_off_c, 0, 64, 0
2, 131232, Note_on_c, 0, 65, 60
2, 131326, Note_off_c, 0, 62, 0
2, 131326, Note_off_c, 0, 71, 0
2, 131326, Note_off_c, 0, 65, 0
2, 131328, Note_on_c, 0, 77, 60
2, 131328, Note_on_c, 0, 61, 60
2, 131328, Note_on_c, 0, 68, 60
2, 131422, Note_off_c, 0, 68, 0
2, 131424, Note_on_c, 0, 64, 60
2, 131518, Note_off_c, 0, 64, 0
2, 131520, Note_on_c, 0, 65, 60
2, 131614, Note_off_c, 0, 77, 0
2, 131614, Note_off_c, 0, 65, 0
2, 131616, Note_on_c, 0, 71, 60
2, 131616, Note_on_c, 0, 68, 60
2, 131710, Note_off_c, 0, 68, 0
2, 131712, Note_on_c, 0, 67, 60
2, 131806, Note_off_c, 0, 67, 0
2, 131808, Note_on_c, 0, 64, 60
2, 131902, Note_off_c, 0, 61, 0
2, 131902, Note_off_c, 0, 71, 0
2, 131902, Note_off_c, 0, 64, 0
2, 132000, Note_on_c, 0, 72, 90
2, 132000, Note_on_c, 0, 67, 90
2, 132000, Note_on_c, 0, 64, 90
2, 132094, Note_off_c, 0, 72, 0
2, 132094, Note_off_c, 0, 67, 0
2, 132094, Note_off_c, 0, 64, 0
2, 132096, Note_on_c, 0, 74, 90
2, 132096, Note_on_c, 0, 71, 90
2, 132096, Note_on_c, 0, 65, 90
2, 132190, Note_off_c, 0, 74, 0
2, 132190, Note_off_c, 0, 71, 0
2, 132190, Note_off_c, 0, 65, 0
2, 132288, Note_on_c, 0, 74, 90
2, 132288, Note_on_c, 0, 71, 90
2, 132288, Note_on_c, 0, 65, 90
2, 132382, Note_off_c, 0, 74, 0
2, 132382, Note_off_c, 0, 71, 0
2, 132382, Note_off_c, 0, 65, 0
2, 132384, Note_on_c, 0, 76, 90
2, 132384, Note_on_c, 0, 70, 90
2, 132384, Note_on_c, 0, 67, 90
2, 132478, Note_off_c, 0, 76, 0
2, 132478, Note_off_c, 0, 70, 0
2, 132478, Note_off_c, 0, 67, 0
2, 132576, Note_on_c, 0, 76, 90
2, 132576, Note_on_c, 0, 70, 90
2, 132576, Note_on_c, 0, 67, 90
2, 132670, Note_off_c, 0, 76, 0
2, 132670, Note_off_c, 0, 70, 0
2, 132670, Note_off_c, 0, 67, 0
2, 132672, Note_on_c, 0, 77, 90
2, 132672, Note_on_c, 0, 72, 90
2, 132672, Note_on_c, 0, 69, 90
2, 132766, Note_off_c, 0, 77, 0
2, 132766, Note_off_c, 0, 72, 0
2, 132766, Note_off_c, 0, 69, 0
2, 132864, Note_on_c, 0, 78, 93
2, 132864, Note_on_c, 0, 72, 93
2, 132864, Note_on_c, 0, 69, 93
2, 132958, Note_off_c, 0, 78, 0
2, 132958, Note_off_c, 0, 72, 0
2, 132958, Note_off_c, 0, 69, 0
2, 132960, Note_on_c, 0, 79, 96
2, 132960, Note_on_c, 0, 76, 96
2, 132960, Note_on_c, 0, 70, 96
2, 133054, Note_off_c, 0, 79, 0
2, 133054, Note_off_c, 0, 76, 0
2, 133054, Note_off_c, 0, 70, 0
2, 133152, Note_on_c, 0, 79, 96
2, 133152, Note_on_c, 0, 76, 96
2, 133152, Note_on_c, 0, 70, 96
2, 133246, Note_off_c, 0, 79, 0
2, 133246, Note_off_c, 0, 76, 0
2, 133246, Note_off_c, 0, 70, 0
2, 133248, Note_on_c, 0, 81, 99
2, 133248, Note_on_c, 0, 77, 99
2, 133248, Note_on_c, 0, 72, 99
2, 133342, Note_off_c, 0, 81, 0
2, 133342, Note_off_c, 0, 77, 0
2, 133342, Note_off_c, 0, 72, 0
2, 133440, Note_on_c, 0, 81, 99
2, 133440, Note_on_c, 0, 78, 99
2, 133440, Note_on_c, 0, 72, 99
2, 133534, Note_off_c, 0, 81, 0
2, 133534, Note_off_c, 0, 78, 0
2, 133534, Note_off_c, 0, 72, 0
2, 133536, Note_on_c, 0, 82, 102
2, 133536, Note_on_c, 0, 79, 102
2, 133536, Note_on_c, 0, 76, 102
2, 133630, Note_off_c, 0, 82, 0
2, 133630, Note_off_c, 0, 79, 0
2, 133630, Note_off_c, 0, 76, 0
2, 133632, Note_on_c, 0, 82, 105
2, 133632, Note_on_c, 0, 79, 105
2, 133632, Note_on_c, 0, 76, 105
2, 134206, Note_off_c, 0, 82, 0
2, 134206, Note_off_c, 0, 79, 0
2, 134206, Note_off_c, 0, 76, 0
2, 134208, Note_on_c, 0, 82, 90
2, 134254, Note_off_c, 0, 82, 0
2, 134256, Note_on_c, 0, 84, 90
2, 134302, Note_off_c, 0, 84, 0
2, 134304, Note_on_c, 0, 86, 90
2, 134350, Note_off_c, 0, 86, 0
2, 134352, Note_on_c, 0, 84, 90
2, 134398, Note_off_c, 0, 84, 0
2, 134400, Note_on_c, 0, 82, 90
2, 134446, Note_off_c, 0, 82, 0
2, 134448, Note_on_c, 0, 81, 90
2, 134494, Note_off_c, 0, 81, 0
2, 134496, Note_on_c, 0, 79, 90
2, 134542, Note_off_c, 0, 79, 0
2, 134544, Note_on_c, 0, 81, 90
2, 134590, Note_off_c, 0, 81, 0
2, 134592, Note_on_c, 0, 82, 90
2, 134638, Note_off_c, 0, 82, 0
2, 134640, Note_on_c, 0, 81, 90
2, 134686, Note_off_c, 0, 81, 0
2, 134688, Note_on_c, 0, 79, 90
2, 134734, Note_off_c, 0, 79, 0
2, 134736, Note_on_c, 0, 77, 90
2, 134782, Note_off_c, 0, 77, 0
2, 134784, Note_on_c, 0, 76, 90
2, 134830, Note_off_c, 0, 76, 0
2, 134832, Note_on_c, 0, 77, 90
2, 134878, Note_off_c, 0, 77, 0
2, 134880, Note_on_c, 0, 79, 90
2, 134926, Note_off_c, 0, 79, 0
2, 134928, Note_on_c, 0, 77, 90
2, 134974, Note_off_c, 0, 77, 0
2, 134976, Note_on_c, 0, 76, 90
2, 135022, Note_off_c, 0, 76, 0
2, 135024, Note_on_c, 0, 74, 90
2, 135070, Note_off_c, 0, 74, 0
2, 135072, Note_on_c, 0, 72, 90
2, 135118, Note_off_c, 0, 72, 0
2, 135120, Note_on_c, 0, 73, 90
2, 135166, Note_off_c, 0, 73, 0
2, 135168, Note_on_c, 0, 74, 90
2, 135214, Note_off_c, 0, 74, 0
2, 135216, Note_on_c, 0, 72, 90
2, 135262, Note_off_c, 0, 72, 0
2, 135264, Note_on_c, 0, 70, 90
2, 135310, Note_off_c, 0, 70, 0
2, 135312, Note_on_c, 0, 69, 90
2, 135358, Note_off_c, 0, 69, 0
2, 135360, Note_on_c, 0, 67, 90
2, 135406, Note_off_c, 0, 67, 0
2, 135408, Note_on_c, 0, 69, 90
2, 135454, Note_off_c, 0, 69, 0
2, 135456, Note_on_c, 0, 70, 90
2, 135502, Note_off_c, 0, 70, 0
2, 135504, Note_on_c, 0, 69, 90
2, 135550, Note_off_c, 0, 69, 0
2, 135552, Note_on_c, 0, 67, 90
2, 135598, Note_off_c, 0, 67, 0
2, 135600, Note_on_c, 0, 65, 90
2, 135646, Note_off_c, 0, 65, 0
2, 135648, Note_on_c, 0, 64, 90
2, 135694, Note_off_c, 0, 64, 0
2, 135696, Note_on_c, 0, 65, 90
2, 135742, Note_off_c, 0, 65, 0
2, 135744, Note_on_c, 0, 67, 90
2, 135790, Note_off_c, 0, 67, 0
2, 135792, Note_on_c, 0, 65, 90
2, 135838, Note_off_c, 0, 65, 0
2, 135840, Note_on_c, 0, 64, 90
2, 135886, Note_off_c, 0, 64, 0
2, 135888, Note_on_c, 0, 62, 90
2, 135934, Note_off_c, 0, 62, 0
2, 137136, Note_on_c, 0, 84, 90
2, 137182, Note_off_c, 0, 84, 0
2, 137184, Note_on_c, 0, 83, 90
2, 137230, Note_off_c, 0, 83, 0
2, 137232, Note_on_c, 0, 84, 90
2, 137278, Note_off_c, 0, 84, 0
2, 137280, Note_on_c, 0, 89, 90
2, 137326, Note_off_c, 0, 89, 0
2, 137328, Note_on_c, 0, 84, 90
2, 137374, Note_off_c, 0, 84, 0
2, 137376, Note_on_c, 0, 82, 90
2, 137422, Note_off_c, 0, 82, 0
2, 137424, Note_on_c, 0, 81, 90
2, 137470, Note_off_c, 0, 81, 0
2, 137472, Note_on_c, 0, 80, 90
2, 137518, Note_off_c, 0, 80, 0
2, 137520, Note_on_c, 0, 81, 90
2, 137566, Note_off_c, 0, 81, 0
2, 137568, Note_on_c, 0, 84, 90
2, 137614, Note_off_c, 0, 84, 0
2, 137616, Note_on_c, 0, 81, 90
2, 137662, Note_off_c, 0, 81, 0
2, 137664, Note_on_c, 0, 79, 90
2, 137710, Note_off_c, 0, 79, 0
2, 137712, Note_on_c, 0, 77, 90
2, 137758, Note_off_c, 0, 77, 0
2, 137760, Note_on_c, 0, 76, 90
2, 137806, Note_off_c, 0, 76, 0
2, 137808, Note_on_c, 0, 77, 90
2, 137854, Note_off_c, 0, 77, 0
2, 137856, Note_on_c, 0, 81, 90
2, 137902, Note_off_c, 0, 81, 0
2, 137904, Note_on_c, 0, 77, 90
2, 137950, Note_off_c, 0, 77, 0
2, 137952, Note_on_c, 0, 74, 90
2, 137998, Note_off_c, 0, 74, 0
2, 138000, Note_on_c, 0, 72, 90
2, 138046, Note_off_c, 0, 72, 0
2, 138048, Note_on_c, 0, 71, 90
2, 138094, Note_off_c, 0, 71, 0
2, 138096, Note_on_c, 0, 72, 90
2, 138142, Note_off_c, 0, 72, 0
2, 138144, Note_on_c, 0, 77, 90
2, 138190, Note_off_c, 0, 77, 0
2, 138192, Note_on_c, 0, 72, 90
2, 138238, Note_off_c, 0, 72, 0
2, 138240, Note_on_c, 0, 70, 90
2, 138286, Note_off_c, 0, 70, 0
2, 138288, Note_on_c, 0, 69, 90
2, 138334, Note_off_c, 0, 69, 0
2, 138336, Note_on_c, 0, 67, 90
2, 138382, Note_off_c, 0, 67, 0
2, 138384, Note_on_c, 0, 69, 90
2, 138430, Note_off_c, 0, 69, 0
2, 138432, Note_on_c, 0, 72, 90
2, 138478, Note_off_c, 0, 72, 0
2, 138480, Note_on_c, 0, 70, 90
2, 138526, Note_off_c, 0, 70, 0
2, 138528, Note_on_c, 0, 65, 90
2, 138574, Note_off_c, 0, 65, 0
2, 138576, Note_on_c, 0, 77, 90
2, 138622, Note_off_c, 0, 77, 0
2, 138624, Note_on_c, 0, 64, 90
2, 138670, Note_off_c, 0, 64, 0
2, 138672, Note_on_c, 0, 77, 90
2, 138718, Note_off_c, 0, 77, 0
2, 138720, Note_on_c, 0, 65, 90
2, 138766, Note_off_c, 0, 65, 0
2, 138768, Note_on_c, 0, 77, 90
2, 138814, Note_off_c, 0, 77, 0
2, 138816, Note_on_c, 0, 67, 90
2, 138862, Note_off_c, 0, 67, 0
2, 138864, Note_on_c, 0, 77, 90
2, 138910, Note_off_c, 0, 77, 0
2, 138912, Note_on_c, 0, 65, 90
2, 138958, Note_off_c, 0, 65, 0
2, 138960, Note_on_c, 0, 77, 90
2, 139006, Note_off_c, 0, 77, 0
2, 139008, Note_on_c, 0, 67, 90
2, 139054, Note_off_c, 0, 67, 0
2, 139056, Note_on_c, 0, 77, 90
2, 139102, Note_off_c, 0, 77, 0
2, 139104, Note_on_c, 0, 69, 90
2, 139150, Note_off_c, 0, 69, 0
2, 139152, Note_on_c, 0, 77, 90
2, 139198, Note_off_c, 0, 77, 0
2, 139200, Note_on_c, 0, 67, 90
2, 139246, Note_off_c, 0, 67, 0
2, 139248, Note_on_c, 0, 77, 90
2, 139294, Note_off_c, 0, 77, 0
2, 139296, Note_on_c, 0, 69, 90
2, 139342, Note_off_c, 0, 69, 0
2, 139344, Note_on_c, 0, 77, 90
2, 139390, Note_off_c, 0, 77, 0
2, 139392, Note_on_c, 0, 70, 99
2, 139438, Note_off_c, 0, 70, 0
2, 139440, Note_on_c, 0, 77, 90
2, 139486, Note_off_c, 0, 77, 0
2, 139488, Note_on_c, 0, 70, 87
2, 139534, Note_off_c, 0, 70, 0
2, 139536, Note_on_c, 0, 77, 84
2, 139582, Note_off_c, 0, 77, 0
2, 139584, Note_on_c, 0, 69, 81
2, 139630, Note_off_c, 0, 69, 0
2, 139632, Note_on_c, 0, 77, 78
2, 139678, Note_off_c, 0, 77, 0
2, 139680, Note_on_c, 0, 70, 99
2, 139726, Note_off_c, 0, 70, 0
2, 139728, Note_on_c, 0, 77, 90
2, 139774, Note_off_c, 0, 77, 0
2, 139776, Note_on_c, 0, 70, 87
2, 139822, Note_off_c, 0, 70, 0
2, 139824, Note_on_c, 0, 77, 84
2, 139870, Note_off_c, 0, 77, 0
2, 139872, Note_on_c, 0, 69, 81
2, 139918, Note_off_c, 0, 69, 0
2, 139920, Note_on_c, 0, 77, 78
2, 139966, Note_off_c, 0, 77, 0
2, 139968, Note_on_c, 0, 68, 60
2, 140014, Note_off_c, 0, 68, 0
2, 140016, Note_on_c, 0, 77, 60
2, 140062, Note_off_c, 0, 77, 0
2, 140064, Note_on_c, 0, 68, 60
2, 140110, Note_off_c, 0, 68, 0
2, 140112, Note_on_c, 0, 77, 60
2, 140158, Note_off_c, 0, 77, 0
2, 140160, Note_on_c, 0, 68, 60
2, 140206, Note_off_c, 0, 68, 0
2, 140208, Note_on_c, 0, 77, 60
2, 140254, Note_off_c, 0, 77, 0
2, 140256, Note_on_c, 0, 76, 60
2, 140256, Note_on_c, 0, 67, 60
2, 140350, Note_off_c, 0, 76, 0
2, 140350, Note_off_c, 0, 67, 0
2, 140592, Note_on_c, 0, 84, 90
2, 140638, Note_off_c, 0, 84, 0
2, 140640, Note_on_c, 0, 83, 90
2, 140686, Note_off_c, 0, 83, 0
2, 140688, Note_on_c, 0, 84, 90
2, 140734, Note_off_c, 0, 84, 0
2, 140736, Note_on_c, 0, 89, 90
2, 140782, Note_off_c, 0, 89, 0
2, 140784, Note_on_c, 0, 84, 90
2, 140830, Note_off_c, 0, 84, 0
2, 140832, Note_on_c, 0, 82, 90
2, 140878, Note_off_c, 0, 82, 0
2, 140880, Note_on_c, 0, 81, 90
2, 140926, Note_off_c, 0, 81, 0
2, 140928, Note_on_c, 0, 80, 90
2, 140974, Note_off_c, 0, 80, 0
2, 140976, Note_on_c, 0, 81, 90
2, 141022, Note_off_c, 0, 81, 0
2, 141024, Note_on_c, 0, 84, 90
2, 141070, Note_off_c, 0, 84, 0
2, 141072, Note_on_c, 0, 81, 90
2, 141118, Note_off_c, 0, 81, 0
2, 141120, Note_on_c, 0, 79, 90
2, 141166, Note_off_c, 0, 79, 0
2, 141168, Note_on_c, 0, 77, 90
2, 141214, Note_off_c, 0, 77, 0
2, 141216, Note_on_c, 0, 76, 90
2, 141262, Note_off_c, 0, 76, 0
2, 141264, Note_on_c, 0, 77, 90
2, 141310, Note_off_c, 0, 77, 0
2, 141312, Note_on_c, 0, 81, 90
2, 141358, Note_off_c, 0, 81, 0
2, 141360, Note_on_c, 0, 77, 90
2, 141406, Note_off_c, 0, 77, 0
2, 141408, Note_on_c, 0, 74, 90
2, 141454, Note_off_c, 0, 74, 0
2, 141456, Note_on_c, 0, 72, 90
2, 141502, Note_off_c, 0, 72, 0
2, 141504, Note_on_c, 0, 71, 90
2, 141550, Note_off_c, 0, 71, 0
2, 141552, Note_on_c, 0, 72, 90
2, 141598, Note_off_c, 0, 72, 0
2, 141600, Note_on_c, 0, 77, 90
2, 141646, Note_off_c, 0, 77, 0
2, 141648, Note_on_c, 0, 72, 90
2, 141694, Note_off_c, 0, 72, 0
2, 141696, Note_on_c, 0, 70, 90
2, 141742, Note_off_c, 0, 70, 0
2, 141744, Note_on_c, 0, 69, 90
2, 141790, Note_off_c, 0, 69, 0
2, 141792, Note_on_c, 0, 68, 90
2, 141838, Note_off_c, 0, 68, 0
2, 141840, Note_on_c, 0, 69, 90
2, 141886, Note_off_c, 0, 69, 0
2, 141888, Note_on_c, 0, 72, 90
2, 141934, Note_off_c, 0, 72, 0
2, 141936, Note_on_c, 0, 69, 90
2, 141982, Note_off_c, 0, 69, 0
2, 141984, Note_on_c, 0, 65, 90
2, 142030, Note_off_c, 0, 65, 0
2, 142032, Note_on_c, 0, 77, 90
2, 142078, Note_off_c, 0, 77, 0
2, 142080, Note_on_c, 0, 64, 90
2, 142126, Note_off_c, 0, 64, 0
2, 142128, Note_on_c, 0, 77, 90
2, 142174, Note_off_c, 0, 77, 0
2, 142176, Note_on_c, 0, 65, 90
2, 142222, Note_off_c, 0, 65, 0
2, 142224, Note_on_c, 0, 77, 90
2, 142270, Note_off_c, 0, 77, 0
2, 142272, Note_on_c, 0, 67, 90
2, 142318, Note_off_c, 0, 67, 0
2, 142320, Note_on_c, 0, 77, 90
2, 142366, Note_off_c, 0, 77, 0
2, 142368, Note_on_c, 0, 65, 90
2, 142414, Note_off_c, 0, 65, 0
2, 142416, Note_on_c, 0, 77, 90
2, 142462, Note_off_c, 0, 77, 0
2, 142464, Note_on_c, 0, 67, 90
2, 142510, Note_off_c, 0, 67, 0
2, 142512, Note_on_c, 0, 77, 90
2, 142558, Note_off_c, 0, 77, 0
2, 142560, Note_on_c, 0, 69, 90
2, 142606, Note_off_c, 0, 69, 0
2, 142608, Note_on_c, 0, 77, 90
2, 142654, Note_off_c, 0, 77, 0
2, 142656, Note_on_c, 0, 67, 90
2, 142702, Note_off_c, 0, 67, 0
2, 142704, Note_on_c, 0, 77, 90
2, 142750, Note_off_c, 0, 77, 0
2, 142752, Note_on_c, 0, 69, 90
2, 142798, Note_off_c, 0, 69, 0
2, 142800, Note_on_c, 0, 77, 90
2, 142846, Note_off_c, 0, 77, 0
2, 142848, Note_on_c, 0, 70, 99
2, 142894, Note_off_c, 0, 70, 0
2, 142896, Note_on_c, 0, 77, 90
2, 142942, Note_off_c, 0, 77, 0
2, 142944, Note_on_c, 0, 70, 87
2, 142990, Note_off_c, 0, 70, 0
2, 142992, Note_on_c, 0, 77, 84
2, 143038, Note_off_c, 0, 77, 0
2, 143040, Note_on_c, 0, 69, 81
2, 143086, Note_off_c, 0, 69, 0
2, 143088, Note_on_c, 0, 77, 78
2, 143134, Note_off_c, 0, 77, 0
2, 143136, Note_on_c, 0, 70, 99
2, 143182, Note_off_c, 0, 70, 0
2, 143184, Note_on_c, 0, 77, 90
2, 143230, Note_off_c, 0, 77, 0
2, 143232, Note_on_c, 0, 70, 87
2, 143278, Note_off_c, 0, 70, 0
2, 143280, Note_on_c, 0, 77, 84
2, 143326, Note_off_c, 0, 77, 0
2, 143328, Note_on_c, 0, 69, 81
2, 143374, Note_off_c, 0, 69, 0
2, 143376, Note_on_c, 0, 77, 78
2, 143422, Note_off_c, 0, 77, 0
2, 143424, Note_on_c, 0, 68, 60
2, 143470, Note_off_c, 0, 68, 0
2, 143472, Note_on_c, 0, 77, 60
2, 143518, Note_off_c, 0, 77, 0
2, 143712, Note_on_c, 0, 67, 60
2, 143758, Note_off_c, 0, 67, 0
2, 143760, Note_on_c, 0, 76, 60
2, 143806, Note_off_c, 0, 76, 0
2, 144000, Note_on_c, 0, 66, 60
2, 144046, Note_off_c, 0, 66, 0
2, 144048, Note_on_c, 0, 75, 60
2, 144094, Note_off_c, 0, 75, 0
2, 144384, Note_on_c, 0, 62, 90
2, 144430, Note_off_c, 0, 62, 0
2, 144432, Note_on_c, 0, 67, 90
2, 144478, Note_off_c, 0, 67, 0
2, 144480, Note_on_c, 0, 70, 90
2, 144526, Note_off_c, 0, 70, 0
2, 144528, Note_on_c, 0, 74, 90
2, 144574, Note_off_c, 0, 74, 0
2, 144576, Note_on_c, 0, 72, 90
2, 144622, Note_off_c, 0, 72, 0
2, 144624, Note_on_c, 0, 70, 90
2, 144670, Note_off_c, 0, 70, 0
2, 144672, Note_on_c, 0, 69, 90
2, 144718, Note_off_c, 0, 69, 0
2, 144720, Note_on_c, 0, 67, 90
2, 144766, Note_off_c, 0, 67, 0
2, 144768, Note_on_c, 0, 65, 90
2, 144814, Note_off_c, 0, 65, 0
2, 144816, Note_on_c, 0, 64, 90
2, 144862, Note_off_c, 0, 64, 0
2, 144864, Note_on_c, 0, 65, 90
2, 144958, Note_off_c, 0, 65, 0
2, 144960, Note_on_c, 0, 60, 60
2, 145054, Note_off_c, 0, 60, 0
2, 145056, Note_on_c, 0, 60, 60
2, 145150, Note_off_c, 0, 60, 0
2, 145152, Note_on_c, 0, 64, 60
2, 145176, Note_off_c, 0, 64, 0
2, 145176, Note_on_c, 0, 70, 60
2, 145440, Note_on_c, 0, 70, 60
2, 145462, Note_off_c, 0, 70, 0
2, 145534, Note_off_c, 0, 70, 0
2, 145536, Note_on_c, 0, 69, 60
2, 145630, Note_off_c, 0, 69, 0
2, 145632, Note_on_c, 0, 67, 60
2, 145726, Note_off_c, 0, 67, 0
2, 145728, Note_on_c, 0, 67, 60
2, 145752, Note_off_c, 0, 67, 0
2, 145752, Note_on_c, 0, 65, 60
2, 146016, Note_on_c, 0, 65, 60
2, 146038, Note_off_c, 0, 65, 0
2, 146302, Note_off_c, 0, 65, 0
2, 146304, Note_on_c, 0, 64, 60
2, 146328, Note_off_c, 0, 64, 0
2, 146328, Note_on_c, 0, 70, 60
2, 146592, Note_on_c, 0, 70, 60
2, 146614, Note_off_c, 0, 70, 0
2, 146686, Note_off_c, 0, 70, 0
2, 146688, Note_on_c, 0, 69, 60
2, 146782, Note_off_c, 0, 69, 0
2, 146784, Note_on_c, 0, 67, 60
2, 146878, Note_off_c, 0, 67, 0
2, 146880, Note_on_c, 0, 71, 90
2, 147166, Note_off_c, 0, 71, 0
2, 147168, Note_on_c, 0, 72, 60
2, 147262, Note_off_c, 0, 72, 0
2, 147456, Note_on_c, 0, 64, 60
2, 147480, Note_off_c, 0, 64, 0
2, 147480, Note_on_c, 0, 70, 60
2, 147744, Note_on_c, 0, 70, 60
2, 147766, Note_off_c, 0, 70, 0
2, 147838, Note_off_c, 0, 70, 0
2, 147840, Note_on_c, 0, 69, 60
2, 147934, Note_off_c, 0, 69, 0
2, 147936, Note_on_c, 0, 67, 60
2, 148030, Note_off_c, 0, 67, 0
2, 148032, Note_on_c, 0, 65, 60
2, 148222, Note_off_c, 0, 65, 0
2, 148224, Note_on_c, 0, 69, 90
2, 148318, Note_off_c, 0, 69, 0
2, 148320, Note_on_c, 0, 69, 60
2, 148510, Note_off_c, 0, 69, 0
2, 148512, Note_on_c, 0, 72, 90
2, 148606, Note_off_c, 0, 72, 0
2, 148608, Note_on_c, 0, 72, 60
2, 148798, Note_off_c, 0, 72, 0
2, 148800, Note_on_c, 0, 70, 90
2, 148894, Note_off_c, 0, 70, 0
2, 148896, Note_on_c, 0, 70, 60
2, 149086, Note_off_c, 0, 70, 0
2, 149088, Note_on_c, 0, 67, 60
2, 149182, Note_off_c, 0, 67, 0
2, 149184, Note_on_c, 0, 65, 60
2, 149278, Note_off_c, 0, 65, 0
2, 149472, Note_on_c, 0, 85, 90
2, 149472, Note_on_c, 0, 73, 90
2, 149758, Note_off_c, 0, 85, 0
2, 149758, Note_off_c, 0, 73, 0
2, 149760, Note_on_c, 0, 86, 90
2, 149760, Note_on_c, 0, 74, 90
2, 150046, Note_off_c, 0, 86, 0
2, 150046, Note_off_c, 0, 74, 0
2, 150048, Note_on_c, 0, 84, 90
2, 150048, Note_on_c, 0, 74, 90
2, 150334, Note_off_c, 0, 84, 0
2, 150334, Note_off_c, 0, 74, 0
2, 150336, Note_on_c, 0, 82, 90
2, 150336, Note_on_c, 0, 74, 90
2, 150622, Note_off_c, 0, 82, 0
2, 150622, Note_off_c, 0, 74, 0
2, 150624, Note_on_c, 0, 81, 90
2, 150624, Note_on_c, 0, 74, 90
2, 150910, Note_off_c, 0, 81, 0
2, 150910, Note_off_c, 0, 74, 0
2, 150912, Note_on_c, 0, 79, 90
2, 150912, Note_on_c, 0, 74, 90
2, 151198, Note_off_c, 0, 79, 0
2, 151198, Note_off_c, 0, 74, 0
2, 151200, Note_on_c, 0, 78, 90
2, 151200, Note_on_c, 0, 74, 90
2, 151200, Note_on_c, 0, 72, 90
2, 151486, Note_off_c, 0, 78, 0
2, 151486, Note_off_c, 0, 74, 0
2, 151486, Note_off_c, 0, 72, 0
2, 151488, Note_on_c, 0, 79, 90
2, 151534, Note_off_c, 0, 79, 0
2, 151536, Note_on_c, 0, 74, 90
2, 151582, Note_off_c, 0, 74, 0
2, 151584, Note_on_c, 0, 70, 90
2, 151630, Note_off_c, 0, 70, 0
2, 151632, Note_on_c, 0, 74, 90
2, 151678, Note_off_c, 0, 74, 0
2, 151680, Note_on_c, 0, 79, 90
2, 151726, Note_off_c, 0, 79, 0
2, 151728, Note_on_c, 0, 74, 90
2, 151774, Note_off_c, 0, 74, 0
2, 151776, Note_on_c, 0, 81, 90
2, 151822, Note_off_c, 0, 81, 0
2, 151824, Note_on_c, 0, 74, 90
2, 151870, Note_off_c, 0, 74, 0
2, 151872, Note_on_c, 0, 72, 90
2, 151918, Note_off_c, 0, 72, 0
2, 151920, Note_on_c, 0, 74, 90
2, 151966, Note_off_c, 0, 74, 0
2, 151968, Note_on_c, 0, 81, 90
2, 152014, Note_off_c, 0, 81, 0
2, 152016, Note_on_c, 0, 74, 90
2, 152062, Note_off_c, 0, 74, 0
2, 152064, Note_on_c, 0, 82, 90
2, 152110, Note_off_c, 0, 82, 0
2, 152112, Note_on_c, 0, 79, 90
2, 152158, Note_off_c, 0, 79, 0
2, 152160, Note_on_c, 0, 74, 90
2, 152206, Note_off_c, 0, 74, 0
2, 152208, Note_on_c, 0, 79, 90
2, 152254, Note_off_c, 0, 79, 0
2, 152256, Note_on_c, 0, 82, 90
2, 152302, Note_off_c, 0, 82, 0
2, 152304, Note_on_c, 0, 79, 90
2, 152350, Note_off_c, 0, 79, 0
2, 152352, Note_on_c, 0, 83, 90
2, 152398, Note_off_c, 0, 83, 0
2, 152400, Note_on_c, 0, 79, 90
2, 152446, Note_off_c, 0, 79, 0
2, 152448, Note_on_c, 0, 74, 90
2, 152494, Note_off_c, 0, 74, 0
2, 152496, Note_on_c, 0, 79, 90
2, 152542, Note_off_c, 0, 79, 0
2, 152544, Note_on_c, 0, 83, 90
2, 152590, Note_off_c, 0, 83, 0
2, 152592, Note_on_c, 0, 79, 90
2, 152638, Note_off_c, 0, 79, 0
2, 152640, Note_on_c, 0, 84, 90
2, 152830, Note_off_c, 0, 84, 0
2, 152832, Note_on_c, 0, 86, 90
2, 152878, Note_off_c, 0, 86, 0
2, 152880, Note_on_c, 0, 84, 90
2, 152926, Note_off_c, 0, 84, 0
2, 152928, Note_on_c, 0, 82, 90
2, 153118, Note_off_c, 0, 82, 0
2, 153120, Note_on_c, 0, 84, 90
2, 153166, Note_off_c, 0, 84, 0
2, 153168, Note_on_c, 0, 82, 90
2, 153214, Note_off_c, 0, 82, 0
2, 153216, Note_on_c, 0, 81, 90
2, 153216, Note_on_c, 0, 72, 90
2, 153406, Note_off_c, 0, 81, 0
2, 153408, Note_on_c, 0, 82, 90
2, 153454, Note_off_c, 0, 82, 0
2, 153456, Note_on_c, 0, 81, 90
2, 153502, Note_off_c, 0, 72, 0
2, 153502, Note_off_c, 0, 81, 0
2, 153504, Note_on_c, 0, 79, 90
2, 153504, Note_on_c, 0, 72, 90
2, 153504, Note_on_c, 0, 70, 90
2, 153694, Note_off_c, 0, 79, 0
2, 153696, Note_on_c, 0, 81, 90
2, 153742, Note_off_c, 0, 81, 0
2, 153744, Note_on_c, 0, 79, 90
2, 153790, Note_off_c, 0, 72, 0
2, 153790, Note_off_c, 0, 70, 0
2, 153790, Note_off_c, 0, 79, 0
2, 153792, Note_on_c, 0, 77, 90
2, 153792, Note_on_c, 0, 72, 90
2, 153792, Note_on_c, 0, 69, 90
2, 153982, Note_off_c, 0, 77, 0
2, 153984, Note_on_c, 0, 79, 90
2, 154030, Note_off_c, 0, 79, 0
2, 154032, Note_on_c, 0, 77, 90
2, 154078, Note_off_c, 0, 72, 0
2, 154078, Note_off_c, 0, 69, 0
2, 154078, Note_off_c, 0, 77, 0
2, 154080, Note_on_c, 0, 76, 90
2, 154080, Note_on_c, 0, 70, 90
2, 154080, Note_on_c, 0, 67, 90
2, 154080, Note_on_c, 0, 72, 90
2, 154270, Note_off_c, 0, 76, 0
2, 154272, Note_on_c, 0, 77, 90
2, 154318, Note_off_c, 0, 77, 0
2, 154320, Note_on_c, 0, 76, 90
2, 154366, Note_off_c, 0, 70, 0
2, 154366, Note_off_c, 0, 67, 0
2, 154366, Note_off_c, 0, 72, 0
2, 154366, Note_off_c, 0, 76, 0
2, 154368, Note_on_c, 0, 79, 90
2, 154368, Note_on_c, 0, 65, 90
2, 154414, Note_off_c, 0, 79, 0
2, 154416, Note_on_c, 0, 77, 90
2, 154462, Note_off_c, 0, 65, 0
2, 154462, Note_off_c, 0, 77, 0
2, 154464, Note_on_c, 0, 76, 90
2, 154464, Note_on_c, 0, 69, 90
2, 154510, Note_off_c, 0, 76, 0
2, 154512, Note_on_c, 0, 77, 90
2, 154558, Note_off_c, 0, 69, 0
2, 154558, Note_off_c, 0, 77, 0
2, 154560, Note_on_c, 0, 76, 90
2, 154560, Note_on_c, 0, 72, 90
2, 154606, Note_off_c, 0, 76, 0
2, 154608, Note_on_c, 0, 77, 90
2, 154654, Note_off_c, 0, 72, 0
2, 154654, Note_off_c, 0, 77, 0
2, 154656, Note_on_c, 0, 81, 90
2, 154656, Note_on_c, 0, 64, 90
2, 154702, Note_off_c, 0, 81, 0
2, 154704, Note_on_c, 0, 79, 90
2, 154750, Note_off_c, 0, 64, 0
2, 154750, Note_off_c, 0, 79, 0
2, 154752, Note_on_c, 0, 78, 90
2, 154752, Note_on_c, 0, 67, 90
2, 154798, Note_off_c, 0, 78, 0
2, 154800, Note_on_c, 0, 79, 90
2, 154846, Note_off_c, 0, 67, 0
2, 154846, Note_off_c, 0, 79, 0
2, 154848, Note_on_c, 0, 78, 90
2, 154848, Note_on_c, 0, 72, 90
2, 154894, Note_off_c, 0, 78, 0
2, 154896, Note_on_c, 0, 79, 90
2, 154942, Note_off_c, 0, 72, 0
2, 154942, Note_off_c, 0, 79, 0
2, 154944, Note_on_c, 0, 81, 90
2, 154944, Note_on_c, 0, 72, 90
2, 154944, Note_on_c, 0, 69, 90
2, 154944, Note_on_c, 0, 65, 90
2, 154990, Note_off_c, 0, 81, 0
2, 154992, Note_on_c, 0, 79, 90
2, 155038, Note_off_c, 0, 72, 0
2, 155038, Note_off_c, 0, 69, 0
2, 155038, Note_off_c, 0, 65, 0
2, 155038, Note_off_c, 0, 79, 0
2, 155040, Note_on_c, 0, 77, 90
2, 155086, Note_off_c, 0, 77, 0
2, 155088, Note_on_c, 0, 79, 90
2, 155134, Note_off_c, 0, 79, 0
2, 155136, Note_on_c, 0, 81, 90
2, 155182, Note_off_c, 0, 81, 0
2, 155184, Note_on_c, 0, 82, 90
2, 155230, Note_off_c, 0, 82, 0
2, 155232, Note_on_c, 0, 84, 90
2, 155278, Note_off_c, 0, 84, 0
2, 155280, Note_on_c, 0, 82, 90
2, 155326, Note_off_c, 0, 82, 0
2, 155328, Note_on_c, 0, 81, 90
2, 155374, Note_off_c, 0, 81, 0
2, 155376, Note_on_c, 0, 82, 90
2, 155422, Note_off_c, 0, 82, 0
2, 155424, Note_on_c, 0, 84, 90
2, 155470, Note_off_c, 0, 84, 0
2, 155472, Note_on_c, 0, 85, 90
2, 155518, Note_off_c, 0, 85, 0
2, 155520, Note_on_c, 0, 86, 99
2, 155566, Note_off_c, 0, 86, 0
2, 155568, Note_on_c, 0, 74, 96
2, 155614, Note_off_c, 0, 74, 0
2, 155616, Note_on_c, 0, 86, 90
2, 155662, Note_off_c, 0, 86, 0
2, 155664, Note_on_c, 0, 84, 90
2, 155710, Note_off_c, 0, 84, 0
2, 155712, Note_on_c, 0, 82, 90
2, 155758, Note_off_c, 0, 82, 0
2, 155760, Note_on_c, 0, 81, 90
2, 155806, Note_off_c, 0, 81, 0
2, 155808, Note_on_c, 0, 79, 90
2, 155854, Note_off_c, 0, 79, 0
2, 155856, Note_on_c, 0, 78, 90
2, 155902, Note_off_c, 0, 78, 0
2, 155904, Note_on_c, 0, 79, 90
2, 155950, Note_off_c, 0, 79, 0
2, 155952, Note_on_c, 0, 81, 90
2, 155998, Note_off_c, 0, 81, 0
2, 156000, Note_on_c, 0, 82, 90
2, 156046, Note_off_c, 0, 82, 0
2, 156048, Note_on_c, 0, 83, 90
2, 156094, Note_off_c, 0, 83, 0
2, 156096, Note_on_c, 0, 84, 99
2, 156142, Note_off_c, 0, 84, 0
2, 156144, Note_on_c, 0, 72, 96
2, 156190, Note_off_c, 0, 72, 0
2, 156192, Note_on_c, 0, 84, 90
2, 156238, Note_off_c, 0, 84, 0
2, 156240, Note_on_c, 0, 82, 90
2, 156286, Note_off_c, 0, 82, 0
2, 156288, Note_on_c, 0, 81, 90
2, 156334, Note_off_c, 0, 81, 0
2, 156336, Note_on_c, 0, 79, 90
2, 156382, Note_off_c, 0, 79, 0
2, 156384, Note_on_c, 0, 77, 90
2, 156430, Note_off_c, 0, 77, 0
2, 156432, Note_on_c, 0, 76, 90
2, 156478, Note_off_c, 0, 76, 0
2, 156480, Note_on_c, 0, 77, 90
2, 156526, Note_off_c, 0, 77, 0
2, 156528, Note_on_c, 0, 79, 90
2, 156574, Note_off_c, 0, 79, 0
2, 156576, Note_on_c, 0, 80, 90
2, 156622, Note_off_c, 0, 80, 0
2, 156624, Note_on_c, 0, 81, 90
2, 156670, Note_off_c, 0, 81, 0
2, 156672, Note_on_c, 0, 82, 99
2, 156718, Note_off_c, 0, 82, 0
2, 156720, Note_on_c, 0, 84, 96
2, 156766, Note_off_c, 0, 84, 0
2, 156768, Note_on_c, 0, 82, 90
2, 156814, Note_off_c, 0, 82, 0
2, 156816, Note_on_c, 0, 81, 90
2, 156862, Note_off_c, 0, 81, 0
2, 156864, Note_on_c, 0, 79, 90
2, 156910, Note_off_c, 0, 79, 0
2, 156912, Note_on_c, 0, 77, 90
2, 156958, Note_off_c, 0, 77, 0
2, 156960, Note_on_c, 0, 76, 90
2, 157006, Note_off_c, 0, 76, 0
2, 157008, Note_on_c, 0, 77, 90
2, 157054, Note_off_c, 0, 77, 0
2, 157056, Note_on_c, 0, 76, 90
2, 157102, Note_off_c, 0, 76, 0
2, 157104, Note_on_c, 0, 74, 90
2, 157150, Note_off_c, 0, 74, 0
2, 157152, Note_on_c, 0, 72, 90
2, 157198, Note_off_c, 0, 72, 0
2, 157200, Note_on_c, 0, 70, 90
2, 157246, Note_off_c, 0, 70, 0
2, 157248, Note_on_c, 0, 69, 90
2, 157294, Note_off_c, 0, 69, 0
2, 157296, Note_on_c, 0, 72, 90
2, 157342, Note_off_c, 0, 72, 0
2, 157344, Note_on_c, 0, 77, 90
2, 157390, Note_off_c, 0, 77, 0
2, 157392, Note_on_c, 0, 79, 90
2, 157438, Note_off_c, 0, 79, 0
2, 157440, Note_on_c, 0, 77, 90
2, 157486, Note_off_c, 0, 77, 0
2, 157488, Note_on_c, 0, 76, 90
2, 157534, Note_off_c, 0, 76, 0
2, 157536, Note_on_c, 0, 74, 90
2, 157582, Note_off_c, 0, 74, 0
2, 157584, Note_on_c, 0, 72, 90
2, 157630, Note_off_c, 0, 72, 0
2, 157632, Note_on_c, 0, 70, 90
2, 157678, Note_off_c, 0, 70, 0
2, 157680, Note_on_c, 0, 69, 90
2, 157726, Note_off_c, 0, 69, 0
2, 157728, Note_on_c, 0, 67, 90
2, 157774, Note_off_c, 0, 67, 0
2, 157776, Note_on_c, 0, 65, 90
2, 157822, Note_off_c, 0, 65, 0
2, 157824, Note_on_c, 0, 64, 90
2, 157870, Note_off_c, 0, 64, 0
2, 157872, Note_on_c, 0, 65, 90
2, 157918, Note_off_c, 0, 65, 0
2, 157920, Note_on_c, 0, 67, 90
2, 157966, Note_off_c, 0, 67, 0
2, 157968, Note_on_c, 0, 65, 90
2, 158014, Note_off_c, 0, 65, 0
2, 158016, Note_on_c, 0, 64, 90
2, 158062, Note_off_c, 0, 64, 0
2, 158064, Note_on_c, 0, 62, 90
2, 158110, Note_off_c, 0, 62, 0
2, 158112, Note_on_c, 0, 60, 90
2, 158158, Note_off_c, 0, 60, 0
2, 158400, Note_on_c, 0, 68, 60
2, 158686, Note_off_c, 0, 68, 0
2, 158688, Note_on_c, 0, 68, 60
2, 158782, Note_off_c, 0, 68, 0
2, 158784, Note_on_c, 0, 67, 60
2, 158878, Note_off_c, 0, 67, 0
2, 158880, Note_on_c, 0, 65, 60
2, 158974, Note_off_c, 0, 65, 0
2, 158976, Note_on_c, 0, 71, 60
2, 159166, Note_off_c, 0, 71, 0
2, 159168, Note_on_c, 0, 72, 60
2, 159262, Note_off_c, 0, 72, 0
2, 159264, Note_on_c, 0, 67, 60
2, 159454, Note_off_c, 0, 67, 0
2, 159552, Note_on_c, 0, 73, 60
2, 159838, Note_off_c, 0, 73, 0
2, 159840, Note_on_c, 0, 73, 60
2, 159934, Note_off_c, 0, 73, 0
2, 159936, Note_on_c, 0, 72, 60
2, 160030, Note_off_c, 0, 72, 0
2, 160032, Note_on_c, 0, 70, 60
2, 160126, Note_off_c, 0, 70, 0
2, 160128, Note_on_c, 0, 68, 60
2, 160150, Note_off_c, 0, 68, 0
2, 160152, Note_on_c, 0, 70, 60
2, 160174, Note_off_c, 0, 70, 0
2, 160176, Note_on_c, 0, 68, 60
2, 160198, Note_off_c, 0, 68, 0
2, 160200, Note_on_c, 0, 70, 60
2, 160222, Note_off_c, 0, 70, 0
2, 160224, Note_on_c, 0, 68, 60
2, 160246, Note_off_c, 0, 68, 0
2, 160248, Note_on_c, 0, 70, 60
2, 160270, Note_off_c, 0, 70, 0
2, 160272, Note_on_c, 0, 68, 60
2, 160294, Note_off_c, 0, 68, 0
2, 160296, Note_on_c, 0, 70, 60
2, 160318, Note_off_c, 0, 70, 0
2, 160320, Note_on_c, 0, 68, 60
2, 160366, Note_off_c, 0, 68, 0
2, 160368, Note_on_c, 0, 70, 60
2, 160414, Note_off_c, 0, 70, 0
2, 160416, Note_on_c, 0, 72, 60
2, 160606, Note_off_c, 0, 72, 0
2, 160704, Note_on_c, 0, 77, 60
2, 160990, Note_off_c, 0, 77, 0
2, 160992, Note_on_c, 0, 75, 60
2, 161182, Note_off_c, 0, 75, 0
2, 161184, Note_on_c, 0, 77, 60
2, 161278, Note_off_c, 0, 77, 0
2, 161280, Note_on_c, 0, 75, 60
2, 161470, Note_off_c, 0, 75, 0
2, 161472, Note_on_c, 0, 73, 60
2, 161566, Note_off_c, 0, 73, 0
2, 161568, Note_on_c, 0, 72, 60
2, 161854, Note_off_c, 0, 72, 0
2, 161856, Note_on_c, 0, 70, 60
2, 162046, Note_off_c, 0, 70, 0
2, 162048, Note_on_c, 0, 68, 60
2, 162142, Note_off_c, 0, 68, 0
2, 162144, Note_on_c, 0, 67, 60
2, 162334, Note_off_c, 0, 67, 0
2, 162336, Note_on_c, 0, 65, 60
2, 162430, Note_off_c, 0, 65, 0
2, 162432, Note_on_c, 0, 68, 60
2, 162718, Note_off_c, 0, 68, 0
2, 162720, Note_on_c, 0, 67, 60
2, 162814, Note_off_c, 0, 67, 0
2, 163008, Note_on_c, 0, 80, 60
2, 163008, Note_on_c, 0, 68, 60
2, 163294, Note_off_c, 0, 80, 0
2, 163294, Note_off_c, 0, 68, 0
2, 163296, Note_on_c, 0, 80, 60
2, 163296, Note_on_c, 0, 68, 60
2, 163390, Note_off_c, 0, 80, 0
2, 163390, Note_off_c, 0, 68, 0
2, 163392, Note_on_c, 0, 79, 60
2, 163392, Note_on_c, 0, 67, 60
2, 163486, Note_off_c, 0, 79, 0
2, 163486, Note_off_c, 0, 67, 0
2, 163488, Note_on_c, 0, 77, 60
2, 163488, Note_on_c, 0, 65, 60
2, 163582, Note_off_c, 0, 77, 0
2, 163582, Note_off_c, 0, 65, 0
2, 163584, Note_on_c, 0, 83, 60
2, 163584, Note_on_c, 0, 71, 60
2, 163774, Note_off_c, 0, 83, 0
2, 163774, Note_off_c, 0, 71, 0
2, 163776, Note_on_c, 0, 84, 60
2, 163776, Note_on_c, 0, 72, 60
2, 163870, Note_off_c, 0, 84, 0
2, 163870, Note_off_c, 0, 72, 0
2, 163872, Note_on_c, 0, 79, 60
2, 163872, Note_on_c, 0, 67, 60
2, 164062, Note_off_c, 0, 79, 0
2, 164062, Note_off_c, 0, 67, 0
2, 164160, Note_on_c, 0, 85, 60
2, 164160, Note_on_c, 0, 73, 60
2, 164446, Note_off_c, 0, 85, 0
2, 164446, Note_off_c, 0, 73, 0
2, 164448, Note_on_c, 0, 85, 60
2, 164448, Note_on_c, 0, 73, 60
2, 164542, Note_off_c, 0, 85, 0
2, 164542, Note_off_c, 0, 73, 0
2, 164544, Note_on_c, 0, 84, 60
2, 164544, Note_on_c, 0, 72, 60
2, 164638, Note_off_c, 0, 84, 0
2, 164638, Note_off_c, 0, 72, 0
2, 164640, Note_on_c, 0, 82, 60
2, 164640, Note_on_c, 0, 70, 60
2, 164734, Note_off_c, 0, 82, 0
2, 164734, Note_off_c, 0, 70, 0
2, 164736, Note_on_c, 0, 81, 60
2, 164736, Note_on_c, 0, 69, 60
2, 164926, Note_off_c, 0, 81, 0
2, 164926, Note_off_c, 0, 69, 0
2, 164928, Note_on_c, 0, 84, 60
2, 164928, Note_on_c, 0, 72, 60
2, 165022, Note_off_c, 0, 84, 0
2, 165022, Note_off_c, 0, 72, 0
2, 165024, Note_on_c, 0, 82, 60
2, 165024, Note_on_c, 0, 70, 60
2, 165214, Note_off_c, 0, 82, 0
2, 165214, Note_off_c, 0, 70, 0
2, 165312, Note_on_c, 0, 82, 90
2, 165312, Note_on_c, 0, 70, 90
2, 165598, Note_off_c, 0, 82, 0
2, 165598, Note_off_c, 0, 70, 0
2, 165600, Note_on_c, 0, 84, 90
2, 165600, Note_on_c, 0, 72, 90
2, 165886, Note_off_c, 0, 84, 0
2, 165886, Note_off_c, 0, 72, 0
2, 165888, Note_on_c, 0, 85, 90
2, 165888, Note_on_c, 0, 73, 90
2, 166174, Note_off_c, 0, 85, 0
2, 166174, Note_off_c, 0, 73, 0
2, 166176, Note_on_c, 0, 84, 90
2, 166176, Note_on_c, 0, 72, 90
2, 166270, Note_off_c, 0, 84, 0
2, 166270, Note_off_c, 0, 72, 0
2, 166416, Note_on_c, 0, 89, 90
2, 166462, Note_off_c, 0, 89, 0
2, 166464, Note_on_c, 0, 77, 60
2, 166464, Note_on_c, 0, 72, 60
2, 166750, Note_off_c, 0, 77, 0
2, 166750, Note_off_c, 0, 72, 0
2, 166752, Note_on_c, 0, 80, 60
2, 166776, Note_off_c, 0, 80, 0
2, 166776, Note_on_c, 0, 76, 60
2, 166776, Note_on_c, 0, 79, 60
2, 167040, Note_on_c, 0, 77, 90
2, 167046, Note_off_c, 0, 76, 0
2, 167046, Note_off_c, 0, 79, 0
2, 167086, Note_off_c, 0, 77, 0
2, 167088, Note_on_c, 0, 72, 90
2, 167134, Note_off_c, 0, 72, 0
2, 167136, Note_on_c, 0, 71, 90
2, 167182, Note_off_c, 0, 71, 0
2, 167184, Note_on_c, 0, 72, 90
2, 167230, Note_off_c, 0, 72, 0
2, 167232, Note_on_c, 0, 74, 90
2, 167278, Note_off_c, 0, 74, 0
2, 167280, Note_on_c, 0, 72, 90
2, 167326, Note_off_c, 0, 72, 0
2, 167328, Note_on_c, 0, 70, 90
2, 167374, Note_off_c, 0, 70, 0
2, 167376, Note_on_c, 0, 72, 90
2, 167422, Note_off_c, 0, 72, 0
2, 167424, Note_on_c, 0, 70, 90
2, 167470, Note_off_c, 0, 70, 0
2, 167472, Note_on_c, 0, 72, 90
2, 167518, Note_off_c, 0, 72, 0
2, 167520, Note_on_c, 0, 70, 90
2, 167566, Note_off_c, 0, 70, 0
2, 167568, Note_on_c, 0, 72, 90
2, 167614, Note_off_c, 0, 72, 0
2, 167616, Note_on_c, 0, 69, 90
2, 167662, Note_off_c, 0, 69, 0
2, 167664, Note_on_c, 0, 72, 90
2, 167710, Note_off_c, 0, 72, 0
2, 167712, Note_on_c, 0, 71, 90
2, 167758, Note_off_c, 0, 71, 0
2, 167760, Note_on_c, 0, 72, 90
2, 167806, Note_off_c, 0, 72, 0
2, 167808, Note_on_c, 0, 77, 90
2, 167854, Note_off_c, 0, 77, 0
2, 167856, Note_on_c, 0, 72, 90
2, 167902, Note_off_c, 0, 72, 0
2, 167904, Note_on_c, 0, 70, 90
2, 167950, Note_off_c, 0, 70, 0
2, 167952, Note_on_c, 0, 72, 90
2, 167998, Note_off_c, 0, 72, 0
2, 168000, Note_on_c, 0, 70, 90
2, 168046, Note_off_c, 0, 70, 0
2, 168048, Note_on_c, 0, 72, 90
2, 168094, Note_off_c, 0, 72, 0
2, 168096, Note_on_c, 0, 70, 90
2, 168142, Note_off_c, 0, 70, 0
2, 168144, Note_on_c, 0, 72, 90
2, 168190, Note_off_c, 0, 72, 0
2, 168192, Note_on_c, 0, 69, 105
2, 168238, Note_off_c, 0, 69, 0
2, 168240, Note_on_c, 0, 84, 105
2, 168286, Note_off_c, 0, 84, 0
2, 168288, Note_on_c, 0, 83, 105
2, 168334, Note_off_c, 0, 83, 0
2, 168336, Note_on_c, 0, 84, 105
2, 168382, Note_off_c, 0, 84, 0
2, 168384, Note_on_c, 0, 86, 105
2, 168430, Note_off_c, 0, 86, 0
2, 168432, Note_on_c, 0, 84, 105
2, 168478, Note_off_c, 0, 84, 0
2, 168480, Note_on_c, 0, 82, 105
2, 168480, Note_on_c, 0, 67, 105
2, 168526, Note_off_c, 0, 82, 0
2, 168528, Note_on_c, 0, 84, 105
2, 168574, Note_off_c, 0, 67, 0
2, 168574, Note_off_c, 0, 84, 0
2, 168576, Note_on_c, 0, 82, 105
2, 168576, Note_on_c, 0, 64, 105
2, 168622, Note_off_c, 0, 82, 0
2, 168624, Note_on_c, 0, 84, 105
2, 168670, Note_off_c, 0, 64, 0
2, 168670, Note_off_c, 0, 84, 0
2, 168672, Note_on_c, 0, 82, 105
2, 168672, Note_on_c, 0, 60, 105
2, 168718, Note_off_c, 0, 82, 0
2, 168720, Note_on_c, 0, 84, 105
2, 168766, Note_off_c, 0, 60, 0
2, 168766, Note_off_c, 0, 84, 0
2, 168768, Note_on_c, 0, 81, 105
2, 168768, Note_on_c, 0, 65, 105
2, 168814, Note_off_c, 0, 81, 0
2, 168816, Note_on_c, 0, 84, 105
2, 168862, Note_off_c, 0, 84, 0
2, 168864, Note_on_c, 0, 82, 105
2, 168910, Note_off_c, 0, 82, 0
2, 168912, Note_on_c, 0, 84, 105
2, 168958, Note_off_c, 0, 65, 0
2, 168958, Note_off_c, 0, 84, 0
2, 168960, Note_on_c, 0, 89, 105
2, 169006, Note_off_c, 0, 89, 0
2, 169008, Note_on_c, 0, 84, 105
2, 169054, Note_off_c, 0, 84, 0
2, 169056, Note_on_c, 0, 82, 105
2, 169056, Note_on_c, 0, 67, 105
2, 169102, Note_off_c, 0, 82, 0
2, 169104, Note_on_c, 0, 84, 105
2, 169150, Note_off_c, 0, 67, 0
2, 169150, Note_off_c, 0, 84, 0
2, 169152, Note_on_c, 0, 82, 105
2, 169152, Note_on_c, 0, 64, 105
2, 169198, Note_off_c, 0, 82, 0
2, 169200, Note_on_c, 0, 84, 105
2, 169246, Note_off_c, 0, 64, 0
2, 169246, Note_off_c, 0, 84, 0
2, 169248, Note_on_c, 0, 82, 105
2, 169248, Note_on_c, 0, 60, 105
2, 169294, Note_off_c, 0, 82, 0
2, 169296, Note_on_c, 0, 84, 105
2, 169342, Note_off_c, 0, 60, 0
2, 169342, Note_off_c, 0, 84, 0
2, 169344, Note_on_c, 0, 81, 105
2, 169344, Note_on_c, 0, 65, 105
2, 169390, Note_off_c, 0, 81, 0
2, 169392, Note_on_c, 0, 84, 105
2, 169438, Note_off_c, 0, 84, 0
2, 169440, Note_on_c, 0, 89, 105
2, 169486, Note_off_c, 0, 89, 0
2, 169488, Note_on_c, 0, 81, 105
2, 169534, Note_off_c, 0, 65, 0
2, 169534, Note_off_c, 0, 81, 0
2, 169536, Note_on_c, 0, 79, 105
2, 169582, Note_off_c, 0, 79, 0
2, 169584, Note_on_c, 0, 88, 105
2, 169630, Note_off_c, 0, 88, 0
2, 169632, Note_on_c, 0, 77, 105
2, 169678, Note_off_c, 0, 77, 0
2, 169680, Note_on_c, 0, 86, 105
2, 169726, Note_off_c, 0, 86, 0
2, 169728, Note_on_c, 0, 76, 105
2, 169774, Note_off_c, 0, 76, 0
2, 169776, Note_on_c, 0, 84, 105
2, 169822, Note_off_c, 0, 84, 0
2, 169824, Note_on_c, 0, 74, 105
2, 169870, Note_off_c, 0, 74, 0
2, 169872, Note_on_c, 0, 82, 105
2, 169918, Note_off_c, 0, 82, 0
2, 169920, Note_on_c, 0, 72, 105
2, 169966, Note_off_c, 0, 72, 0
2, 169968, Note_on_c, 0, 81, 105
2, 170014, Note_off_c, 0, 81, 0
2, 170016, Note_on_c, 0, 70, 105
2, 170062, Note_off_c, 0, 70, 0
2, 170064, Note_on_c, 0, 79, 105
2, 170110, Note_off_c, 0, 79, 0
2, 170112, Note_on_c, 0, 69, 105
2, 170158, Note_off_c, 0, 69, 0
2, 170160, Note_on_c, 0, 77, 105
2, 170206, Note_off_c, 0, 77, 0
2, 170208, Note_on_c, 0, 67, 105
2, 170254, Note_off_c, 0, 67, 0
2, 170256, Note_on_c, 0, 76, 105
2, 170302, Note_off_c, 0, 76, 0
2, 170304, Note_on_c, 0, 65, 105
2, 170350, Note_off_c, 0, 65, 0
2, 170352, Note_on_c, 0, 74, 105
2, 170398, Note_off_c, 0, 74, 0
2, 170400, Note_on_c, 0, 64, 105
2, 170446, Note_off_c, 0, 64, 0
2, 170448, Note_on_c, 0, 72, 105
2, 170494, Note_off_c, 0, 72, 0
2, 170496, Note_on_c, 0, 71, 105
2, 170496, Note_on_c, 0, 62, 105
2, 170782, Note_off_c, 0, 71, 0
2, 170782, Note_off_c, 0, 62, 0
2, 170784, Note_on_c, 0, 70, 105
2, 170784, Note_on_c, 0, 61, 105
2, 171070, Note_off_c, 0, 70, 0
2, 171070, Note_off_c, 0, 61, 0
2, 171072, Note_on_c, 0, 82, 105
2, 171072, Note_on_c, 0, 73, 105
2, 171358, Note_off_c, 0, 82, 0
2, 171358, Note_off_c, 0, 73, 0
2, 171360, Note_on_c, 0, 76, 105
2, 171360, Note_on_c, 0, 67, 105
2, 171646, Note_off_c, 0, 76, 0
2, 171646, Note_off_c, 0, 67, 0
2, 171744, Note_on_c, 0, 84, 105
2, 171838, Note_off_c, 0, 84, 0
2, 171840, Note_on_c, 0, 84, 105
2, 171934, Note_off_c, 0, 84, 0
2, 172032, Note_on_c, 0, 86, 105
2, 172126, Note_off_c, 0, 86, 0
2, 172128, Note_on_c, 0, 86, 105
2, 172222, Note_off_c, 0, 86, 0
2, 172224, Note_on_c, 0, 77, 105
2, 172224, Note_on_c, 0, 72, 105
2, 172224, Note_on_c, 0, 69, 105
2, 172224, Note_on_c, 0, 60, 105
2, 172510, Note_off_c, 0, 77, 0
2, 172510, Note_off_c, 0, 72, 0
2, 172510, Note_off_c, 0, 69, 0
2, 172512, Note_on_c, 0, 81, 105
2, 172512, Note_on_c, 0, 70, 105
2, 172536, Note_off_c, 0, 81, 0
2, 172536, Note_on_c, 0, 79, 105
2, 172536, Note_on_c, 0, 76, 105
2, 172798, Note_off_c, 0, 60, 0
2, 172798, Note_off_c, 0, 70, 0
2, 172800, Note_on_c, 0, 77, 90
2, 172800, Note_on_c, 0, 69, 90
2, 172800, Note_on_c, 0, 65, 90
2, 172806, Note_off_c, 0, 76, 0
2, 172806, Note_off_c, 0, 79, 0
2, 172846, Note_off_c, 0, 77, 0
2, 172848, Note_on_c, 0, 72, 90
2, 172894, Note_off_c, 0, 72, 0
2, 172896, Note_on_c, 0, 71, 90
2, 172942, Note_off_c, 0, 71, 0
2, 172944, Note_on_c, 0, 72, 90
2, 172990, Note_off_c, 0, 69, 0
2, 172990, Note_off_c, 0, 65, 0
2, 172990, Note_off_c, 0, 72, 0
2, 172992, Note_on_c, 0, 74, 90
2, 173038, Note_off_c, 0, 74, 0
2, 173040, Note_on_c, 0, 72, 90
2, 173086, Note_off_c, 0, 72, 0
2, 173088, Note_on_c, 0, 70, 90
2, 173134, Note_off_c, 0, 70, 0
2, 173136, Note_on_c, 0, 72, 90
2, 173182, Note_off_c, 0, 72, 0
2, 173184, Note_on_c, 0, 70, 90
2, 173230, Note_off_c, 0, 70, 0
2, 173232, Note_on_c, 0, 72, 90
2, 173278, Note_off_c, 0, 72, 0
2, 173280, Note_on_c, 0, 70, 90
2, 173326, Note_off_c, 0, 70, 0
2, 173328, Note_on_c, 0, 72, 90
2, 173374, Note_off_c, 0, 72, 0
2, 173376, Note_on_c, 0, 69, 90
2, 173422, Note_off_c, 0, 69, 0
2, 173424, Note_on_c, 0, 72, 90
2, 173470, Note_off_c, 0, 72, 0
2, 173472, Note_on_c, 0, 71, 90
2, 173518, Note_off_c, 0, 71, 0
2, 173520, Note_on_c, 0, 72, 90
2, 173566, Note_off_c, 0, 72, 0
2, 173568, Note_on_c, 0, 77, 90
2, 173614, Note_off_c, 0, 77, 0
2, 173616, Note_on_c, 0, 72, 90
2, 173662, Note_off_c, 0, 72, 0
2, 173664, Note_on_c, 0, 70, 90
2, 173710, Note_off_c, 0, 70, 0
2, 173712, Note_on_c, 0, 72, 90
2, 173758, Note_off_c, 0, 72, 0
2, 173760, Note_on_c, 0, 70, 90
2, 173806, Note_off_c, 0, 70, 0
2, 173808, Note_on_c, 0, 72, 90
2, 173854, Note_off_c, 0, 72, 0
2, 173856, Note_on_c, 0, 70, 90
2, 173902, Note_off_c, 0, 70, 0
2, 173904, Note_on_c, 0, 72, 90
2, 173950, Note_off_c, 0, 72, 0
2, 173952, Note_on_c, 0, 69, 105
2, 173998, Note_off_c, 0, 69, 0
2, 174000, Note_on_c, 0, 84, 105
2, 174046, Note_off_c, 0, 84, 0
2, 174048, Note_on_c, 0, 83, 105
2, 174094, Note_off_c, 0, 83, 0
2, 174096, Note_on_c, 0, 84, 105
2, 174142, Note_off_c, 0, 84, 0
2, 174144, Note_on_c, 0, 86, 105
2, 174190, Note_off_c, 0, 86, 0
2, 174192, Note_on_c, 0, 84, 105
2, 174238, Note_off_c, 0, 84, 0
2, 174240, Note_on_c, 0, 82, 105
2, 174240, Note_on_c, 0, 67, 105
2, 174286, Note_off_c, 0, 82, 0
2, 174288, Note_on_c, 0, 84, 105
2, 174334, Note_off_c, 0, 67, 0
2, 174334, Note_off_c, 0, 84, 0
2, 174336, Note_on_c, 0, 82, 105
2, 174336, Note_on_c, 0, 64, 105
2, 174382, Note_off_c, 0, 82, 0
2, 174384, Note_on_c, 0, 84, 105
2, 174430, Note_off_c, 0, 64, 0
2, 174430, Note_off_c, 0, 84, 0
2, 174432, Note_on_c, 0, 82, 105
2, 174432, Note_on_c, 0, 60, 105
2, 174478, Note_off_c, 0, 82, 0
2, 174480, Note_on_c, 0, 84, 105
2, 174526, Note_off_c, 0, 60, 0
2, 174526, Note_off_c, 0, 84, 0
2, 174528, Note_on_c, 0, 81, 105
2, 174528, Note_on_c, 0, 65, 105
2, 174574, Note_off_c, 0, 81, 0
2, 174576, Note_on_c, 0, 84, 105
2, 174622, Note_off_c, 0, 84, 0
2, 174624, Note_on_c, 0, 83, 105
2, 174670, Note_off_c, 0, 83, 0
2, 174672, Note_on_c, 0, 84, 105
2, 174718, Note_off_c, 0, 65, 0
2, 174718, Note_off_c, 0, 84, 0
2, 174720, Note_on_c, 0, 89, 105
2, 174766, Note_off_c, 0, 89, 0
2, 174768, Note_on_c, 0, 84, 105
2, 174814, Note_off_c, 0, 84, 0
2, 174816, Note_on_c, 0, 82, 105
2, 174816, Note_on_c, 0, 67, 105
2, 174862, Note_off_c, 0, 82, 0
2, 174864, Note_on_c, 0, 84, 105
2, 174910, Note_off_c, 0, 67, 0
2, 174910, Note_off_c, 0, 84, 0
2, 174912, Note_on_c, 0, 82, 105
2, 174912, Note_on_c, 0, 64, 105
2, 174958, Note_off_c, 0, 82, 0
2, 174960, Note_on_c, 0, 84, 105
2, 175006, Note_off_c, 0, 64, 0
2, 175006, Note_off_c, 0, 84, 0
2, 175008, Note_on_c, 0, 82, 105
2, 175008, Note_on_c, 0, 60, 105
2, 175054, Note_off_c, 0, 82, 0
2, 175056, Note_on_c, 0, 84, 105
2, 175102, Note_off_c, 0, 60, 0
2, 175102, Note_off_c, 0, 84, 0
2, 175104, Note_on_c, 0, 81, 105
2, 175104, Note_on_c, 0, 65, 105
2, 175150, Note_off_c, 0, 81, 0
2, 175152, Note_on_c, 0, 84, 105
2, 175198, Note_off_c, 0, 84, 0
2, 175200, Note_on_c, 0, 89, 105
2, 175246, Note_off_c, 0, 89, 0
2, 175248, Note_on_c, 0, 81, 105
2, 175294, Note_off_c, 0, 65, 0
2, 175294, Note_off_c, 0, 81, 0
2, 175296, Note_on_c, 0, 79, 105
2, 175342, Note_off_c, 0, 79, 0
2, 175344, Note_on_c, 0, 88, 105
2, 175390, Note_off_c, 0, 88, 0
2, 175392, Note_on_c, 0, 77, 105
2, 175438, Note_off_c, 0, 77, 0
2, 175440, Note_on_c, 0, 86, 105
2, 175486, Note_off_c, 0, 86, 0
2, 175488, Note_on_c, 0, 76, 105
2, 175534, Note_off_c, 0, 76, 0
2, 175536, Note_on_c, 0, 84, 105
2, 175582, Note_off_c, 0, 84, 0
2, 175584, Note_on_c, 0, 74, 105
2, 175630, Note_off_c, 0, 74, 0
2, 175632, Note_on_c, 0, 82, 105
2, 175678, Note_off_c, 0, 82, 0
2, 175680, Note_on_c, 0, 72, 105
2, 175726, Note_off_c, 0, 72, 0
2, 175728, Note_on_c, 0, 81, 105
2, 175774, Note_off_c, 0, 81, 0
2, 175776, Note_on_c, 0, 70, 105
2, 175822, Note_off_c, 0, 70, 0
2, 175824, Note_on_c, 0, 79, 105
2, 175870, Note_off_c, 0, 79, 0
2, 175872, Note_on_c, 0, 69, 105
2, 175918, Note_off_c, 0, 69, 0
2, 175920, Note_on_c, 0, 77, 105
2, 175966, Note_off_c, 0, 77, 0
2, 175968, Note_on_c, 0, 67, 105
2, 176014, Note_off_c, 0, 67, 0
2, 176016, Note_on_c, 0, 76, 105
2, 176062, Note_off_c, 0, 76, 0
2, 176064, Note_on_c, 0, 65, 105
2, 176110, Note_off_c, 0, 65, 0
2, 176112, Note_on_c, 0, 74, 105
2, 176158, Note_off_c, 0, 74, 0
2, 176160, Note_on_c, 0, 64, 105
2, 176206, Note_off_c, 0, 64, 0
2, 176208, Note_on_c, 0, 72, 105
2, 176254, Note_off_c, 0, 72, 0
2, 176256, Note_on_c, 0, 71, 105
2, 176256, Note_on_c, 0, 62, 105
2, 176542, Note_off_c, 0, 71, 0
2, 176542, Note_off_c, 0, 62, 0
2, 176544, Note_on_c, 0, 70, 105
2, 176544, Note_on_c, 0, 61, 105
2, 176830, Note_off_c, 0, 70, 0
2, 176830, Note_off_c, 0, 61, 0
2, 176832, Note_on_c, 0, 82, 105
2, 176832, Note_on_c, 0, 73, 105
2, 177118, Note_off_c, 0, 82, 0
2, 177118, Note_off_c, 0, 73, 0
2, 177120, Note_on_c, 0, 76, 105
2, 177120, Note_on_c, 0, 67, 105
2, 177406, Note_off_c, 0, 76, 0
2, 177406, Note_off_c, 0, 67, 0
2, 177504, Note_on_c, 0, 84, 60
2, 177598, Note_off_c, 0, 84, 0
2, 177600, Note_on_c, 0, 84, 60
2, 177694, Note_off_c, 0, 84, 0
2, 177792, Note_on_c, 0, 86, 60
2, 177886, Note_off_c, 0, 86, 0
2, 177888, Note_on_c, 0, 86, 60
2, 177982, Note_off_c, 0, 86, 0
2, 177984, Note_on_c, 0, 72, 60
2, 177984, Note_on_c, 0, 77, 60
2, 177984, Note_on_c, 0, 69, 60
2, 177984, Note_on_c, 0, 60, 60
2, 178174, Note_off_c, 0, 77, 0
2, 178174, Note_off_c, 0, 69, 0
2, 178174, Note_off_c, 0, 60, 0
2, 178272, Note_on_c, 0, 76, 60
2, 178272, Note_on_c, 0, 67, 60
2, 178272, Note_on_c, 0, 58, 60
2, 178462, Note_off_c, 0, 76, 0
2, 178462, Note_off_c, 0, 67, 0
2, 178462, Note_off_c, 0, 58, 0
2, 178558, Note_off_c, 0, 72, 0
2, 178560, Note_on_c, 0, 83, 90
2, 178560, Note_on_c, 0, 57, 90
2, 178606, Note_off_c, 0, 83, 0
2, 178608, Note_on_c, 0, 84, 90
2, 178654, Note_off_c, 0, 57, 0
2, 178654, Note_off_c, 0, 84, 0
2, 178656, Note_on_c, 0, 83, 90
2, 178656, Note_on_c, 0, 60, 90
2, 178702, Note_off_c, 0, 83, 0
2, 178704, Note_on_c, 0, 84, 90
2, 178750, Note_off_c, 0, 60, 0
2, 178750, Note_off_c, 0, 84, 0
2, 178752, Note_on_c, 0, 83, 90
2, 178752, Note_on_c, 0, 65, 90
2, 178798, Note_off_c, 0, 83, 0
2, 178800, Note_on_c, 0, 84, 90
2, 178846, Note_off_c, 0, 65, 0
2, 178846, Note_off_c, 0, 84, 0
2, 178848, Note_on_c, 0, 85, 90
2, 178848, Note_on_c, 0, 58, 90
2, 178894, Note_off_c, 0, 85, 0
2, 178896, Note_on_c, 0, 86, 90
2, 178942, Note_off_c, 0, 58, 0
2, 178942, Note_off_c, 0, 86, 0
2, 178944, Note_on_c, 0, 85, 90
2, 178944, Note_on_c, 0, 61, 90
2, 178990, Note_off_c, 0, 85, 0
2, 178992, Note_on_c, 0, 86, 90
2, 179038, Note_off_c, 0, 61, 0
2, 179038, Note_off_c, 0, 86, 0
2, 179040, Note_on_c, 0, 88, 90
2, 179040, Note_on_c, 0, 67, 90
2, 179086, Note_off_c, 0, 88, 0
2, 179088, Note_on_c, 0, 89, 90
2, 179134, Note_off_c, 0, 67, 0
2, 179134, Note_off_c, 0, 89, 0
2, 179136, Note_on_c, 0, 77, 60
2, 179136, Note_on_c, 0, 72, 60
2, 179136, Note_on_c, 0, 60, 60
2, 179230, Note_off_c, 0, 60, 0
2, 179232, Note_on_c, 0, 65, 60
2, 179326, Note_off_c, 0, 65, 0
2, 179328, Note_on_c, 0, 69, 60
2, 179422, Note_off_c, 0, 77, 0
2, 179422, Note_off_c, 0, 72, 0
2, 179422, Note_off_c, 0, 69, 0
2, 179424, Note_on_c, 0, 81, 60
2, 179424, Note_on_c, 0, 60, 60
2, 179448, Note_off_c, 0, 81, 0
2, 179448, Note_on_c, 0, 79, 60
2, 179448, Note_on_c, 0, 76, 60
2, 179518, Note_off_c, 0, 60, 0
2, 179520, Note_on_c, 0, 67, 60
2, 179614, Note_off_c, 0, 67, 0
2, 179616, Note_on_c, 0, 70, 60
2, 179628, Note_on_c, 0, 79, 60
2, 179638, Note_off_c, 0, 79, 0
2, 179664, Note_on_c, 0, 77, 60
2, 179674, Note_off_c, 0, 79, 0
2, 179710, Note_off_c, 0, 70, 0
2, 179710, Note_off_c, 0, 77, 0
2, 179712, Note_on_c, 0, 77, 90
2, 179712, Note_on_c, 0, 69, 90
2, 179712, Note_on_c, 0, 65, 90
2, 179718, Note_off_c, 0, 76, 0
2, 179758, Note_off_c, 0, 77, 0
2, 179760, Note_on_c, 0, 81, 90
2, 179806, Note_off_c, 0, 81, 0
2, 179808, Note_on_c, 0, 84, 90
2, 179854, Note_off_c, 0, 84, 0
2, 179856, Note_on_c, 0, 89, 90
2, 179902, Note_off_c, 0, 69, 0
2, 179902, Note_off_c, 0, 65, 0
2, 179902, Note_off_c, 0, 89, 0
2, 179904, Note_on_c, 0, 88, 90
2, 179950, Note_off_c, 0, 88, 0
2, 179952, Note_on_c, 0, 86, 90
2, 179998, Note_off_c, 0, 86, 0
2, 180000, Note_on_c, 0, 84, 90
2, 180000, Note_on_c, 0, 70, 90
2, 180000, Note_on_c, 0, 64, 90
2, 180000, Note_on_c, 0, 60, 90
2, 180046, Note_off_c, 0, 84, 0
2, 180048, Note_on_c, 0, 86, 90
2, 180094, Note_off_c, 0, 86, 0
2, 180096, Note_on_c, 0, 84, 90
2, 180142, Note_off_c, 0, 84, 0
2, 180144, Note_on_c, 0, 82, 90
2, 180190, Note_off_c, 0, 70, 0
2, 180190, Note_off_c, 0, 64, 0
2, 180190, Note_off_c, 0, 60, 0
2, 180190, Note_off_c, 0, 82, 0
2, 180192, Note_on_c, 0, 81, 90
2, 180238, Note_off_c, 0, 81, 0
2, 180240, Note_on_c, 0, 79, 90
2, 180286, Note_off_c, 0, 79, 0
2, 180288, Note_on_c, 0, 77, 90
2, 180288, Note_on_c, 0, 69, 90
2, 180288, Note_on_c, 0, 65, 90
2, 180334, Note_off_c, 0, 77, 0
2, 180336, Note_on_c, 0, 81, 90
2, 180382, Note_off_c, 0, 81, 0
2, 180384, Note_on_c, 0, 79, 90
2, 180430, Note_off_c, 0, 79, 0
2, 180432, Note_on_c, 0, 77, 90
2, 180478, Note_off_c, 0, 69, 0
2, 180478, Note_off_c, 0, 65, 0
2, 180478, Note_off_c, 0, 77, 0
2, 180480, Note_on_c, 0, 76, 90
2, 180526, Note_off_c, 0, 76, 0
2, 180528, Note_on_c, 0, 74, 90
2, 180574, Note_off_c, 0, 74, 0
2, 180576, Note_on_c, 0, 72, 90
2, 180576, Note_on_c, 0, 70, 90
2, 180576, Note_on_c, 0, 64, 90
2, 180576, Note_on_c, 0, 60, 90
2, 180622, Note_off_c, 0, 72, 0
2, 180624, Note_on_c, 0, 74, 90
2, 180670, Note_off_c, 0, 74, 0
2, 180672, Note_on_c, 0, 72, 90
2, 180718, Note_off_c, 0, 72, 0
2, 180720, Note_on_c, 0, 70, 90
2, 180766, Note_off_c, 0, 70, 0
2, 180766, Note_off_c, 0, 64, 0
2, 180766, Note_off_c, 0, 60, 0
2, 180766, Note_off_c, 0, 70, 0
2, 180768, Note_on_c, 0, 69, 90
2, 180814, Note_off_c, 0, 69, 0
2, 180816, Note_on_c, 0, 67, 90
2, 180862, Note_off_c, 0, 67, 0
2, 180864, Note_on_c, 0, 65, 90
2, 180910, Note_off_c, 0, 65, 0
2, 180912, Note_on_c, 0, 69, 90
2, 180958, Note_off_c, 0, 69, 0
2, 180960, Note_on_c, 0, 67, 90
2, 181006, Note_off_c, 0, 67, 0
2, 181008, Note_on_c, 0, 65, 90
2, 181054, Note_off_c, 0, 65, 0
2, 181056, Note_on_c, 0, 64, 90
2, 181102, Note_off_c, 0, 64, 0
2, 181104, Note_on_c, 0, 62, 90
2, 181150, Note_off_c, 0, 62, 0
2, 181728, Note_on_c, 0, 65, 90
2, 181822, Note_off_c, 0, 65, 0
2, 181824, Note_on_c, 0, 69, 90
2, 181918, Note_off_c, 0, 69, 0
2, 181920, Note_on_c, 0, 72, 90
2, 182014, Note_off_c, 0, 72, 0
2, 182016, Note_on_c, 0, 77, 90
2, 182206, Note_off_c, 0, 77, 0
2, 182304, Note_on_c, 0, 84, 90
2, 182304, Note_on_c, 0, 81, 90
2, 182304, Note_on_c, 0, 72, 90
2, 182494, Note_off_c, 0, 84, 0
2, 182494, Note_off_c, 0, 81, 0
2, 182494, Note_off_c, 0, 72, 0
2, 182592, Note_on_c, 0, 87, 97
2, 182592, Note_on_c, 0, 84, 97
2, 182592, Note_on_c, 0, 77, 97
2, 182782, Note_off_c, 0, 87, 0
2, 182782, Note_off_c, 0, 84, 0
2, 182782, Note_off_c, 0, 77, 0
2, 183168, Note_on_c, 0, 86, 97
2, 183168, Note_on_c, 0, 82, 97
2, 183180, Note_on_c, 0, 77, 97
2, 183358, Note_off_c, 0, 86, 0
2, 183358, Note_off_c, 0, 82, 0
2, 183370, Note_off_c, 0, 77, 0
2, 183744, Note_on_c, 0, 89, 105
2, 183744, Note_on_c, 0, 86, 105
2, 183744, Note_on_c, 0, 80, 105
2, 183744, Note_on_c, 0, 77, 105
2, 183934, Note_off_c, 0, 89, 0
2, 183934, Note_off_c, 0, 86, 0
2, 183934, Note_off_c, 0, 80, 0
2, 183934, Note_off_c, 0, 77, 0
2, 184320, Note_on_c, 0, 65, 60
2, 184320, Note_on_c, 0, 60, 60
2, 184894, Note_off_c, 0, 65, 0
2, 184894, Note_off_c, 0, 60, 0
2, 184896, Note_on_c, 0, 69, 60
2, 184920, Note_off_c, 0, 69, 0
2, 184920, Note_on_c, 0, 67, 60
2, 184920, Note_on_c, 0, 64, 60
2, 184920, Note_on_c, 0, 60, 60
2, 185184, Note_on_c, 0, 67, 60
2, 185190, Note_off_c, 0, 67, 0
2, 185374, Note_off_c, 0, 67, 0
2, 185376, Note_on_c, 0, 65, 60
2, 185470, Note_off_c, 0, 65, 0
2, 185472, Note_on_c, 0, 65, 90
2, 185472, Note_on_c, 0, 60, 90
2, 185478, Note_off_c, 0, 60, 0
2, 185478, Note_off_c, 0, 64, 0
2, 185566, Note_off_c, 0, 65, 0
2, 185566, Note_off_c, 0, 60, 0
2, 185664, Note_on_c, 0, 57, 90
2, 185758, Note_off_c, 0, 57, 0
2, 185760, Note_on_c, 0, 60, 90
2, 185854, Note_off_c, 0, 60, 0
2, 185856, Note_on_c, 0, 67, 90
2, 185950, Note_off_c, 0, 67, 0
2, 185952, Note_on_c, 0, 59, 90
2, 186046, Note_off_c, 0, 59, 0
2, 186048, Note_on_c, 0, 60, 90
2, 186142, Note_off_c, 0, 60, 0
2, 186144, Note_on_c, 0, 69, 90
2, 186238, Note_off_c, 0, 69, 0
2, 186240, Note_on_c, 0, 61, 90
2, 186334, Note_off_c, 0, 61, 0
2, 186336, Note_on_c, 0, 62, 90
2, 186430, Note_off_c, 0, 62, 0
2, 186432, Note_on_c, 0, 70, 90
2, 186526, Note_off_c, 0, 70, 0
2, 186528, Note_on_c, 0, 64, 90
2, 186622, Note_off_c, 0, 64, 0
2, 186624, Note_on_c, 0, 82, 90
2, 186910, Note_off_c, 0, 82, 0
2, 186912, Note_on_c, 0, 82, 90
2, 186912, Note_on_c, 0, 64, 90
2, 186912, Note_on_c, 0, 67, 90
2, 186912, Note_on_c, 0, 58, 90
2, 186912, Note_on_c, 0, 60, 90
2, 187006, Note_off_c, 0, 82, 0
2, 187008, Note_on_c, 0, 81, 90
2, 187054, Note_off_c, 0, 81, 0
2, 187056, Note_on_c, 0, 79, 90
2, 187102, Note_off_c, 0, 79, 0
2, 187104, Note_on_c, 0, 77, 90
2, 187150, Note_off_c, 0, 77, 0
2, 187152, Note_on_c, 0, 76, 90
2, 187198, Note_off_c, 0, 64, 0
2, 187198, Note_off_c, 0, 67, 0
2, 187198, Note_off_c, 0, 58, 0
2, 187198, Note_off_c, 0, 60, 0
2, 187198, Note_off_c, 0, 76, 0
2, 187200, Note_on_c, 0, 77, 60
2, 187200, Note_on_c, 0, 65, 60
2, 187200, Note_on_c, 0, 60, 60
2, 187200, Note_on_c, 0, 57, 60
2, 187294, Note_off_c, 0, 77, 0
2, 187294, Note_off_c, 0, 65, 0
2, 187294, Note_off_c, 0, 60, 0
2, 187294, Note_off_c, 0, 57, 0
2, 187296, Note_on_c, 0, 79, 60
2, 187390, Note_off_c, 0, 79, 0
2, 187392, Note_on_c, 0, 81, 60
2, 187486, Note_off_c, 0, 81, 0
2, 187488, Note_on_c, 0, 72, 60
2, 187488, Note_on_c, 0, 69, 60
2, 187488, Note_on_c, 0, 60, 60
2, 187678, Note_off_c, 0, 72, 0
2, 187678, Note_off_c, 0, 69, 0
2, 187678, Note_off_c, 0, 60, 0
2, 187680, Note_on_c, 0, 70, 60
2, 187680, Note_on_c, 0, 67, 60
2, 187680, Note_on_c, 0, 61, 60
2, 187774, Note_off_c, 0, 70, 0
2, 187774, Note_off_c, 0, 67, 0
2, 187774, Note_off_c, 0, 61, 0
2, 187776, Note_on_c, 0, 70, 60
2, 187776, Note_on_c, 0, 67, 60
2, 187776, Note_on_c, 0, 62, 60
2, 188062, Note_off_c, 0, 70, 0
2, 188062, Note_off_c, 0, 67, 0
2, 188062, Note_off_c, 0, 62, 0
2, 188064, Note_on_c, 0, 69, 60
2, 188064, Note_on_c, 0, 65, 60
2, 188064, Note_on_c, 0, 62, 60
2, 188158, Note_off_c, 0, 69, 0
2, 188158, Note_off_c, 0, 65, 0
2, 188158, Note_off_c, 0, 62, 0
2, 188544, Note_on_c, 0, 57, 90
2, 188638, Note_off_c, 0, 57, 0
2, 188640, Note_on_c, 0, 58, 90
2, 188734, Note_off_c, 0, 58, 0
2, 188736, Note_on_c, 0, 67, 90
2, 188830, Note_off_c, 0, 67, 0
2, 188832, Note_on_c, 0, 59, 90
2, 188926, Note_off_c, 0, 59, 0
2, 188928, Note_on_c, 0, 60, 90
2, 189022, Note_off_c, 0, 60, 0
2, 189024, Note_on_c, 0, 69, 90
2, 189118, Note_off_c, 0, 69, 0
2, 189120, Note_on_c, 0, 61, 90
2, 189214, Note_off_c, 0, 61, 0
2, 189216, Note_on_c, 0, 62, 90
2, 189310, Note_off_c, 0, 62, 0
2, 189312, Note_on_c, 0, 70, 90
2, 189406, Note_off_c, 0, 70, 0
2, 189408, Note_on_c, 0, 64, 90
2, 189502, Note_off_c, 0, 64, 0
2, 189504, Note_on_c, 0, 82, 90
2, 189790, Note_off_c, 0, 82, 0
2, 189792, Note_on_c, 0, 82, 90
2, 189792, Note_on_c, 0, 67, 90
2, 189792, Note_on_c, 0, 64, 90
2, 189792, Note_on_c, 0, 58, 90
2, 189792, Note_on_c, 0, 60, 90
2, 189886, Note_off_c, 0, 82, 0
2, 189888, Note_on_c, 0, 81, 90
2, 189934, Note_off_c, 0, 81, 0
2, 189936, Note_on_c, 0, 79, 90
2, 189982, Note_off_c, 0, 79, 0
2, 189984, Note_on_c, 0, 77, 90
2, 190030, Note_off_c, 0, 77, 0
2, 190032, Note_on_c, 0, 76, 90
2, 190078, Note_off_c, 0, 67, 0
2, 190078, Note_off_c, 0, 64, 0
2, 190078, Note_off_c, 0, 58, 0
2, 190078, Note_off_c, 0, 60, 0
2, 190078, Note_off_c, 0, 76, 0
2, 190080, Note_on_c, 0, 77, 90
2, 190080, Note_on_c, 0, 65, 90
2, 190080, Note_on_c, 0, 60, 90
2, 190080, Note_on_c, 0, 57, 90
2, 190126, Note_off_c, 0, 77, 0
2, 190128, Note_on_c, 0, 79, 90
2, 190174, Note_off_c, 0, 65, 0
2, 190174, Note_off_c, 0, 60, 0
2, 190174, Note_off_c, 0, 57, 0
2, 190174, Note_off_c, 0, 79, 0
2, 190176, Note_on_c, 0, 81, 90
2, 190270, Note_off_c, 0, 81, 0
2, 190368, Note_on_c, 0, 74, 90
2, 190368, Note_on_c, 0, 65, 90
2, 190368, Note_on_c, 0, 62, 90
2, 190368, Note_on_c, 0, 58, 90
2, 190414, Note_off_c, 0, 74, 0
2, 190416, Note_on_c, 0, 76, 90
2, 190462, Note_off_c, 0, 65, 0
2, 190462, Note_off_c, 0, 62, 0
2, 190462, Note_off_c, 0, 58, 0
2, 190462, Note_off_c, 0, 76, 0
2, 190464, Note_on_c, 0, 77, 90
2, 190558, Note_off_c, 0, 77, 0
2, 190656, Note_on_c, 0, 65, 60
2, 190656, Note_on_c, 0, 60, 60
2, 190942, Note_off_c, 0, 65, 0
2, 190944, Note_on_c, 0, 69, 60
2, 190968, Note_off_c, 0, 69, 0
2, 190968, Note_on_c, 0, 67, 60
2, 190968, Note_on_c, 0, 64, 60
2, 191136, Note_on_c, 0, 65, 60
2, 191158, Note_off_c, 0, 67, 0
2, 191158, Note_off_c, 0, 64, 0
2, 191230, Note_off_c, 0, 60, 0
2, 191230, Note_off_c, 0, 65, 0
2, 191232, Note_on_c, 0, 65, 60
2, 191232, Note_on_c, 0, 65, 60
2, 191422, Note_off_c, 0, 65, 0
2, 191424, Note_on_c, 0, 69, 60
2, 191518, Note_off_c, 0, 65, 0
2, 191518, Note_off_c, 0, 69, 0
2, 191520, Note_on_c, 0, 65, 60
2, 191520, Note_on_c, 0, 72, 60
2, 191614, Note_off_c, 0, 72, 0
2, 191616, Note_on_c, 0, 70, 60
2, 191710, Note_off_c, 0, 70, 0
2, 191712, Note_on_c, 0, 67, 60
2, 191806, Note_off_c, 0, 65, 0
2, 191806, Note_off_c, 0, 67, 0
2, 191808, Note_on_c, 0, 65, 60
2, 191808, Note_on_c, 0, 65, 60
2, 191902, Note_off_c, 0, 65, 0
2, 191904, Note_on_c, 0, 60, 60
2, 191998, Note_off_c, 0, 60, 0
2, 192000, Note_on_c, 0, 69, 60
2, 192094, Note_off_c, 0, 65, 0
2, 192094, Note_off_c, 0, 69, 0
2, 192096, Note_on_c, 0, 64, 60
2, 192096, Note_on_c, 0, 72, 60
2, 192190, Note_off_c, 0, 72, 0
2, 192192, Note_on_c, 0, 70, 60
2, 192286, Note_off_c, 0, 70, 0
2, 192288, Note_on_c, 0, 67, 60
2, 192382, Note_off_c, 0, 64, 0
2, 192382, Note_off_c, 0, 67, 0
2, 192384, Note_on_c, 0, 65, 45
2, 192478, Note_off_c, 0, 65, 0
2, 192480, Note_on_c, 0, 60, 45
2, 192574, Note_off_c, 0, 60, 0
2, 192576, Note_on_c, 0, 69, 45
2, 192670, Note_off_c, 0, 69, 0
2, 192672, Note_on_c, 0, 65, 45
2, 192766, Note_off_c, 0, 65, 0
2, 192768, Note_on_c, 0, 60, 45
2, 192862, Note_off_c, 0, 60, 0
2, 192864, Note_on_c, 0, 69, 45
2, 192958, Note_off_c, 0, 69, 0
2, 192960, Note_on_c, 0, 67, 45
2, 192960, Note_on_c, 0, 58, 45
2, 193246, Note_off_c, 0, 67, 0
2, 193246, Note_off_c, 0, 58, 0
2, 193248, Note_on_c, 0, 65, 45
2, 193248, Note_on_c, 0, 57, 45
2, 193342, Note_off_c, 0, 65, 0
2, 193342, Note_off_c, 0, 57, 0
2, 193342, End_track
3, 0, Start_track
3, 0, Title_t, "Sonata  # 1"
3, 0, Control_c, 1, 0, 0
3, 0, Program_c, 1, 0
3, 0, Control_c, 1, 7, 115
3, 0, Control_c, 1, 10, 54
3, 0, Control_c, 1, 91, 58
3, 0, Control_c, 1, 93, 36
3, 0, Key_signature, -1, "minor"
3, 0, Control_c, 1, 121, 0
3, 48, Control_c, 1, 10, 53
3, 72, Control_c, 1, 91, 63
3, 96, Control_c, 1, 93, 40
3, 144, Program_c, 1, 0
3, 588, Note_on_c, 1, 53, 90
3, 588, Note_on_c, 1, 41, 90
3, 588, Note_on_c, 1, 45, 90
3, 588, Note_on_c, 1, 48, 90
3, 970, Note_off_c, 1, 53, 0
3, 970, Note_off_c, 1, 41, 0
3, 970, Note_off_c, 1, 45, 0
3, 970, Note_off_c, 1, 48, 0
3, 2016, Note_on_c, 1, 57, 90
3, 2110, Note_off_c, 1, 57, 0
3, 2112, Note_on_c, 1, 55, 90
3, 2206, Note_off_c, 1, 55, 0
3, 2208, Note_on_c, 1, 57, 90
3, 2302, Note_off_c, 1, 57, 0
3, 2304, Note_on_c, 1, 58, 90
3, 2398, Note_off_c, 1, 58, 0
3, 2400, Note_on_c, 1, 57, 90
3, 2484, Note_on_c, 1, 58, 90
3, 2494, Note_off_c, 1, 57, 0
3, 2578, Note_off_c, 1, 58, 0
3, 2592, Note_on_c, 1, 60, 90
3, 2686, Note_off_c, 1, 60, 0
3, 2688, Note_on_c, 1, 58, 90
3, 2782, Note_off_c, 1, 58, 0
3, 2784, Note_on_c, 1, 60, 90
3, 2878, Note_off_c, 1, 60, 0
3, 2880, Note_on_c, 1, 61, 99
3, 3070, Note_off_c, 1, 61, 0
3, 3072, Note_on_c, 1, 60, 82
3, 3166, Note_off_c, 1, 60, 0
3, 3168, Note_on_c, 1, 61, 99
3, 3358, Note_off_c, 1, 61, 0
3, 3360, Note_on_c, 1, 60, 82
3, 3454, Note_off_c, 1, 60, 0
3, 3456, Note_on_c, 1, 59, 60
3, 3550, Note_off_c, 1, 59, 0
3, 3552, Note_on_c, 1, 59, 60
3, 3646, Note_off_c, 1, 59, 0
3, 3648, Note_on_c, 1, 59, 60
3, 3742, Note_off_c, 1, 59, 0
3, 3744, Note_on_c, 1, 60, 60
3, 3838, Note_off_c, 1, 60, 0
3, 4032, Note_on_c, 1, 53, 90
3, 4032, Note_on_c, 1, 48, 90
3, 4032, Note_on_c, 1, 45, 90
3, 4032, Note_on_c, 1, 41, 90
3, 4414, Note_off_c, 1, 53, 0
3, 4414, Note_off_c, 1, 48, 0
3, 4414, Note_off_c, 1, 45, 0
3, 4414, Note_off_c, 1, 41, 0
3, 5472, Note_on_c, 1, 57, 90
3, 5566, Note_off_c, 1, 57, 0
3, 5568, Note_on_c, 1, 55, 90
3, 5662, Note_off_c, 1, 55, 0
3, 5664, Note_on_c, 1, 57, 90
3, 5758, Note_off_c, 1, 57, 0
3, 5760, Note_on_c, 1, 58, 90
3, 5854, Note_off_c, 1, 58, 0
3, 5856, Note_on_c, 1, 57, 90
3, 5950, Note_off_c, 1, 57, 0
3, 5964, Note_on_c, 1, 58, 90
3, 6048, Note_on_c, 1, 60, 90
3, 6058, Note_off_c, 1, 58, 0
3, 6142, Note_off_c, 1, 60, 0
3, 6144, Note_on_c, 1, 58, 90
3, 6238, Note_off_c, 1, 58, 0
3, 6240, Note_on_c, 1, 60, 90
3, 6334, Note_off_c, 1, 60, 0
3, 6336, Note_on_c, 1, 61, 99
3, 6526, Note_off_c, 1, 61, 0
3, 6528, Note_on_c, 1, 60, 82
3, 6622, Note_off_c, 1, 60, 0
3, 6624, Note_on_c, 1, 61, 99
3, 6814, Note_off_c, 1, 61, 0
3, 6816, Note_on_c, 1, 60, 82
3, 6910, Note_off_c, 1, 60, 0
3, 6912, Note_on_c, 1, 59, 60
3, 7006, Note_off_c, 1, 59, 0
3, 7200, Note_on_c, 1, 58, 60
3, 7294, Note_off_c, 1, 58, 0
3, 7488, Note_on_c, 1, 57, 60
3, 7582, Note_off_c, 1, 57, 0
3, 7776, Note_on_c, 1, 46, 90
3, 7822, Note_off_c, 1, 46, 0
3, 7824, Note_on_c, 1, 58, 90
3, 7870, Note_off_c, 1, 58, 0
3, 8064, Note_on_c, 1, 58, 90
3, 8064, Note_on_c, 1, 55, 90
3, 8064, Note_on_c, 1, 48, 90
3, 8350, Note_off_c, 1, 58, 0
3, 8350, Note_off_c, 1, 55, 0
3, 8350, Note_off_c, 1, 48, 0
3, 8352, Note_on_c, 1, 57, 90
3, 8352, Note_on_c, 1, 53, 90
3, 8446, Note_off_c, 1, 57, 0
3, 8446, Note_off_c, 1, 53, 0
3, 8640, Note_on_c, 1, 48, 45
3, 8734, Note_off_c, 1, 48, 0
3, 8736, Note_on_c, 1, 58, 45
3, 8736, Note_on_c, 1, 60, 45
3, 8830, Note_off_c, 1, 58, 0
3, 8830, Note_off_c, 1, 60, 0
3, 8832, Note_on_c, 1, 58, 45
3, 8832, Note_on_c, 1, 60, 45
3, 8926, Note_off_c, 1, 58, 0
3, 8926, Note_off_c, 1, 60, 0
3, 8928, Note_on_c, 1, 58, 45
3, 8928, Note_on_c, 1, 60, 45
3, 9022, Note_off_c, 1, 58, 0
3, 9022, Note_off_c, 1, 60, 0
3, 9024, Note_on_c, 1, 58, 45
3, 9024, Note_on_c, 1, 60, 45
3, 9118, Note_off_c, 1, 58, 0
3, 9118, Note_off_c, 1, 60, 0
3, 9120, Note_on_c, 1, 58, 45
3, 9120, Note_on_c, 1, 60, 45
3, 9214, Note_off_c, 1, 58, 0
3, 9214, Note_off_c, 1, 60, 0
3, 9216, Note_on_c, 1, 53, 45
3, 9310, Note_off_c, 1, 53, 0
3, 9312, Note_on_c, 1, 57, 45
3, 9312, Note_on_c, 1, 60, 45
3, 9406, Note_off_c, 1, 57, 0
3, 9406, Note_off_c, 1, 60, 0
3, 9408, Note_on_c, 1, 57, 45
3, 9408, Note_on_c, 1, 60, 45
3, 9502, Note_off_c, 1, 57, 0
3, 9502, Note_off_c, 1, 60, 0
3, 9504, Note_on_c, 1, 57, 45
3, 9504, Note_on_c, 1, 60, 45
3, 9598, Note_off_c, 1, 57, 0
3, 9598, Note_off_c, 1, 60, 0
3, 9600, Note_on_c, 1, 57, 45
3, 9600, Note_on_c, 1, 60, 45
3, 9694, Note_off_c, 1, 57, 0
3, 9694, Note_off_c, 1, 60, 0
3, 9696, Note_on_c, 1, 57, 45
3, 9696, Note_on_c, 1, 60, 45
3, 9790, Note_off_c, 1, 57, 0
3, 9790, Note_off_c, 1, 60, 0
3, 9792, Note_on_c, 1, 48, 45
3, 9886, Note_off_c, 1, 48, 0
3, 9888, Note_on_c, 1, 55, 45
3, 9888, Note_on_c, 1, 60, 45
3, 9982, Note_off_c, 1, 55, 0
3, 9982, Note_off_c, 1, 60, 0
3, 9984, Note_on_c, 1, 55, 45
3, 9984, Note_on_c, 1, 60, 45
3, 10078, Note_off_c, 1, 55, 0
3, 10078, Note_off_c, 1, 60, 0
3, 10080, Note_on_c, 1, 55, 45
3, 10080, Note_on_c, 1, 60, 45
3, 10174, Note_off_c, 1, 55, 0
3, 10174, Note_off_c, 1, 60, 0
3, 10176, Note_on_c, 1, 55, 45
3, 10176, Note_on_c, 1, 60, 45
3, 10270, Note_off_c, 1, 55, 0
3, 10270, Note_off_c, 1, 60, 0
3, 10272, Note_on_c, 1, 55, 45
3, 10272, Note_on_c, 1, 60, 45
3, 10366, Note_off_c, 1, 55, 0
3, 10366, Note_off_c, 1, 60, 0
3, 10368, Note_on_c, 1, 53, 45
3, 10462, Note_off_c, 1, 53, 0
3, 10464, Note_on_c, 1, 57, 45
3, 10464, Note_on_c, 1, 60, 45
3, 10558, Note_off_c, 1, 57, 0
3, 10558, Note_off_c, 1, 60, 0
3, 10560, Note_on_c, 1, 57, 45
3, 10572, Note_on_c, 1, 60, 45
3, 10654, Note_off_c, 1, 57, 0
3, 10656, Note_on_c, 1, 57, 45
3, 10656, Note_on_c, 1, 60, 45
3, 10666, Note_off_c, 1, 60, 0
3, 10750, Note_off_c, 1, 57, 0
3, 10750, Note_off_c, 1, 60, 0
3, 10752, Note_on_c, 1, 57, 45
3, 10752, Note_on_c, 1, 60, 45
3, 10846, Note_off_c, 1, 57, 0
3, 10846, Note_off_c, 1, 60, 0
3, 10848, Note_on_c, 1, 57, 45
3, 10848, Note_on_c, 1, 60, 45
3, 10942, Note_off_c, 1, 57, 0
3, 10942, Note_off_c, 1, 60, 0
3, 10944, Note_on_c, 1, 48, 45
3, 11038, Note_off_c, 1, 48, 0
3, 11040, Note_on_c, 1, 58, 45
3, 11040, Note_on_c, 1, 60, 45
3, 11134, Note_off_c, 1, 58, 0
3, 11134, Note_off_c, 1, 60, 0
3, 11136, Note_on_c, 1, 58, 45
3, 11136, Note_on_c, 1, 60, 45
3, 11230, Note_off_c, 1, 58, 0
3, 11230, Note_off_c, 1, 60, 0
3, 11232, Note_on_c, 1, 58, 45
3, 11232, Note_on_c, 1, 60, 45
3, 11326, Note_off_c, 1, 58, 0
3, 11326, Note_off_c, 1, 60, 0
3, 11328, Note_on_c, 1, 58, 45
3, 11328, Note_on_c, 1, 60, 45
3, 11422, Note_off_c, 1, 58, 0
3, 11422, Note_off_c, 1, 60, 0
3, 11424, Note_on_c, 1, 58, 45
3, 11424, Note_on_c, 1, 60, 45
3, 11518, Note_off_c, 1, 58, 0
3, 11518, Note_off_c, 1, 60, 0
3, 11520, Note_on_c, 1, 53, 60
3, 11614, Note_off_c, 1, 53, 0
3, 11616, Note_on_c, 1, 57, 60
3, 11616, Note_on_c, 1, 60, 60
3, 11710, Note_off_c, 1, 57, 0
3, 11710, Note_off_c, 1, 60, 0
3, 11712, Note_on_c, 1, 57, 60
3, 11712, Note_on_c, 1, 60, 60
3, 11806, Note_off_c, 1, 57, 0
3, 11806, Note_off_c, 1, 60, 0
3, 11808, Note_on_c, 1, 57, 60
3, 11808, Note_on_c, 1, 60, 60
3, 11902, Note_off_c, 1, 57, 0
3, 11902, Note_off_c, 1, 60, 0
3, 11904, Note_on_c, 1, 57, 60
3, 11904, Note_on_c, 1, 60, 60
3, 11998, Note_off_c, 1, 57, 0
3, 11998, Note_off_c, 1, 60, 0
3, 12000, Note_on_c, 1, 57, 60
3, 12000, Note_on_c, 1, 60, 60
3, 12094, Note_off_c, 1, 57, 0
3, 12094, Note_off_c, 1, 60, 0
3, 12096, Note_on_c, 1, 48, 60
3, 12190, Note_off_c, 1, 48, 0
3, 12192, Note_on_c, 1, 55, 60
3, 12192, Note_on_c, 1, 60, 60
3, 12286, Note_off_c, 1, 55, 0
3, 12286, Note_off_c, 1, 60, 0
3, 12288, Note_on_c, 1, 55, 60
3, 12288, Note_on_c, 1, 60, 60
3, 12382, Note_off_c, 1, 55, 0
3, 12382, Note_off_c, 1, 60, 0
3, 12384, Note_on_c, 1, 58, 60
3, 12384, Note_on_c, 1, 60, 60
3, 12478, Note_off_c, 1, 58, 0
3, 12478, Note_off_c, 1, 60, 0
3, 12480, Note_on_c, 1, 58, 60
3, 12480, Note_on_c, 1, 60, 60
3, 12574, Note_off_c, 1, 58, 0
3, 12574, Note_off_c, 1, 60, 0
3, 12576, Note_on_c, 1, 58, 60
3, 12576, Note_on_c, 1, 60, 60
3, 12670, Note_off_c, 1, 58, 0
3, 12670, Note_off_c, 1, 60, 0
3, 12672, Note_on_c, 1, 60, 60
3, 12672, Note_on_c, 1, 57, 60
3, 12672, Note_on_c, 1, 53, 60
3, 12766, Note_off_c, 1, 60, 0
3, 12766, Note_off_c, 1, 57, 0
3, 12766, Note_off_c, 1, 53, 0
3, 12864, Note_on_c, 1, 45, 90
3, 12958, Note_off_c, 1, 45, 0
3, 12960, Note_on_c, 1, 46, 90
3, 13054, Note_off_c, 1, 46, 0
3, 13056, Note_on_c, 1, 55, 90
3, 13150, Note_off_c, 1, 55, 0
3, 13152, Note_on_c, 1, 47, 90
3, 13246, Note_off_c, 1, 47, 0
3, 13248, Note_on_c, 1, 48, 90
3, 13342, Note_off_c, 1, 48, 0
3, 13344, Note_on_c, 1, 57, 90
3, 13438, Note_off_c, 1, 57, 0
3, 13440, Note_on_c, 1, 49, 90
3, 13534, Note_off_c, 1, 49, 0
3, 13536, Note_on_c, 1, 50, 90
3, 13630, Note_off_c, 1, 50, 0
3, 13632, Note_on_c, 1, 58, 90
3, 13726, Note_off_c, 1, 58, 0
3, 13728, Note_on_c, 1, 52, 90
3, 13822, Note_off_c, 1, 52, 0
3, 15744, Note_on_c, 1, 45, 90
3, 15838, Note_off_c, 1, 45, 0
3, 15840, Note_on_c, 1, 46, 90
3, 15934, Note_off_c, 1, 46, 0
3, 15936, Note_on_c, 1, 55, 90
3, 16030, Note_off_c, 1, 55, 0
3, 16032, Note_on_c, 1, 47, 90
3, 16126, Note_off_c, 1, 47, 0
3, 16128, Note_on_c, 1, 48, 90
3, 16222, Note_off_c, 1, 48, 0
3, 16224, Note_on_c, 1, 57, 90
3, 16318, Note_off_c, 1, 57, 0
3, 16320, Note_on_c, 1, 49, 90
3, 16414, Note_off_c, 1, 49, 0
3, 16416, Note_on_c, 1, 50, 90
3, 16510, Note_off_c, 1, 50, 0
3, 16512, Note_on_c, 1, 58, 90
3, 16606, Note_off_c, 1, 58, 0
3, 16608, Note_on_c, 1, 52, 90
3, 16702, Note_off_c, 1, 52, 0
3, 17856, Note_on_c, 1, 57, 60
3, 17856, Note_on_c, 1, 48, 60
3, 18046, Note_off_c, 1, 57, 0
3, 18144, Note_on_c, 1, 58, 60
3, 18334, Note_off_c, 1, 58, 0
3, 18430, Note_off_c, 1, 48, 0
3, 18432, Note_on_c, 1, 53, 60
3, 18432, Note_on_c, 1, 53, 60
3, 18526, Note_off_c, 1, 53, 0
3, 18528, Note_on_c, 1, 57, 60
3, 18622, Note_off_c, 1, 57, 0
3, 18624, Note_on_c, 1, 60, 60
3, 18718, Note_off_c, 1, 53, 0
3, 18718, Note_off_c, 1, 60, 0
3, 18720, Note_on_c, 1, 53, 60
3, 18720, Note_on_c, 1, 53, 60
3, 18814, Note_off_c, 1, 53, 0
3, 18816, Note_on_c, 1, 55, 60
3, 18910, Note_off_c, 1, 55, 0
3, 18912, Note_on_c, 1, 58, 60
3, 19006, Note_off_c, 1, 53, 0
3, 19006, Note_off_c, 1, 58, 0
3, 19008, Note_on_c, 1, 53, 60
3, 19104, Note_on_c, 1, 57, 60
3, 19198, Note_off_c, 1, 57, 0
3, 19212, Note_on_c, 1, 60, 60
3, 19294, Note_off_c, 1, 53, 0
3, 19296, Note_on_c, 1, 53, 60
3, 19306, Note_off_c, 1, 60, 0
3, 19392, Note_on_c, 1, 55, 60
3, 19486, Note_off_c, 1, 55, 0
3, 19488, Note_on_c, 1, 58, 60
3, 19582, Note_off_c, 1, 53, 0
3, 19582, Note_off_c, 1, 58, 0
3, 19584, Note_on_c, 1, 53, 45
3, 19584, Note_on_c, 1, 53, 45
3, 19678, Note_off_c, 1, 53, 0
3, 19680, Note_on_c, 1, 57, 45
3, 19774, Note_off_c, 1, 57, 0
3, 19776, Note_on_c, 1, 60, 45
3, 19870, Note_off_c, 1, 53, 0
3, 19870, Note_off_c, 1, 60, 0
3, 19872, Note_on_c, 1, 53, 45
3, 19872, Note_on_c, 1, 53, 45
3, 19966, Note_off_c, 1, 53, 0
3, 19968, Note_on_c, 1, 57, 45
3, 20062, Note_off_c, 1, 57, 0
3, 20064, Note_on_c, 1, 60, 45
3, 20158, Note_off_c, 1, 53, 0
3, 20158, Note_off_c, 1, 60, 0
3, 20160, Note_on_c, 1, 53, 45
3, 20160, Note_on_c, 1, 41, 45
3, 20446, Note_off_c, 1, 53, 0
3, 20446, Note_off_c, 1, 41, 0
3, 20448, Note_on_c, 1, 53, 45
3, 20448, Note_on_c, 1, 41, 45
3, 20542, Note_off_c, 1, 53, 0
3, 20542, Note_off_c, 1, 41, 0
3, 21312, Note_on_c, 1, 57, 90
3, 21312, Note_on_c, 1, 45, 90
3, 21598, Note_off_c, 1, 57, 0
3, 21598, Note_off_c, 1, 45, 0
3, 21600, Note_on_c, 1, 55, 90
3, 21600, Note_on_c, 1, 43, 90
3, 21886, Note_off_c, 1, 55, 0
3, 21886, Note_off_c, 1, 43, 0
3, 21888, Note_on_c, 1, 53, 90
3, 21888, Note_on_c, 1, 41, 90
3, 22174, Note_off_c, 1, 53, 0
3, 22174, Note_off_c, 1, 41, 0
3, 22176, Note_on_c, 1, 52, 90
3, 22176, Note_on_c, 1, 40, 90
3, 22462, Note_off_c, 1, 52, 0
3, 22462, Note_off_c, 1, 40, 0
3, 22464, Note_on_c, 1, 50, 90
3, 22558, Note_off_c, 1, 50, 0
3, 22560, Note_on_c, 1, 53, 90
3, 22654, Note_off_c, 1, 53, 0
3, 22656, Note_on_c, 1, 57, 90
3, 22750, Note_off_c, 1, 57, 0
3, 22752, Note_on_c, 1, 49, 90
3, 22846, Note_off_c, 1, 49, 0
3, 22848, Note_on_c, 1, 52, 90
3, 22942, Note_off_c, 1, 52, 0
3, 22944, Note_on_c, 1, 57, 90
3, 23038, Note_off_c, 1, 57, 0
3, 23040, Note_on_c, 1, 50, 90
3, 23134, Note_off_c, 1, 50, 0
3, 23136, Note_on_c, 1, 53, 90
3, 23230, Note_off_c, 1, 53, 0
3, 23232, Note_on_c, 1, 57, 90
3, 23326, Note_off_c, 1, 57, 0
3, 23328, Note_on_c, 1, 48, 90
3, 23422, Note_off_c, 1, 48, 0
3, 23424, Note_on_c, 1, 54, 90
3, 23518, Note_off_c, 1, 54, 0
3, 23520, Note_on_c, 1, 57, 90
3, 23614, Note_off_c, 1, 57, 0
3, 23616, Note_on_c, 1, 47, 90
3, 23806, Note_off_c, 1, 47, 0
3, 26496, Note_on_c, 1, 53, 90
3, 26590, Note_off_c, 1, 53, 0
3, 26592, Note_on_c, 1, 65, 90
3, 26686, Note_off_c, 1, 65, 0
3, 26784, Note_on_c, 1, 47, 90
3, 26878, Note_off_c, 1, 47, 0
3, 26892, Note_on_c, 1, 59, 90
3, 26986, Note_off_c, 1, 59, 0
3, 27072, Note_on_c, 1, 52, 90
3, 27166, Note_off_c, 1, 52, 0
3, 27168, Note_on_c, 1, 64, 90
3, 27262, Note_off_c, 1, 64, 0
3, 27360, Note_on_c, 1, 45, 90
3, 27454, Note_off_c, 1, 45, 0
3, 27456, Note_on_c, 1, 57, 90
3, 27550, Note_off_c, 1, 57, 0
3, 27648, Note_on_c, 1, 50, 90
3, 27742, Note_off_c, 1, 50, 0
3, 27840, Note_on_c, 1, 59, 90
3, 27934, Note_off_c, 1, 59, 0
3, 27936, Note_on_c, 1, 60, 90
3, 28030, Note_off_c, 1, 60, 0
3, 28128, Note_on_c, 1, 48, 90
3, 28222, Note_off_c, 1, 48, 0
3, 28224, Note_on_c, 1, 55, 90
3, 28318, Note_off_c, 1, 55, 0
3, 36288, Note_on_c, 1, 53, 90
3, 36382, Note_off_c, 1, 53, 0
3, 36384, Note_on_c, 1, 56, 90
3, 36478, Note_off_c, 1, 56, 0
3, 36480, Note_on_c, 1, 62, 90
3, 36574, Note_off_c, 1, 62, 0
3, 36576, Note_on_c, 1, 51, 90
3, 36670, Note_off_c, 1, 51, 0
3, 36672, Note_on_c, 1, 60, 90
3, 36766, Note_off_c, 1, 60, 0
3, 36768, Note_on_c, 1, 53, 90
3, 36862, Note_off_c, 1, 53, 0
3, 36864, Note_on_c, 1, 55, 60
3, 36958, Note_off_c, 1, 55, 0
3, 36960, Note_on_c, 1, 60, 60
3, 37054, Note_off_c, 1, 60, 0
3, 37056, Note_on_c, 1, 63, 60
3, 37150, Note_off_c, 1, 63, 0
3, 37152, Note_on_c, 1, 55, 60
3, 37246, Note_off_c, 1, 55, 0
3, 37248, Note_on_c, 1, 62, 60
3, 37342, Note_off_c, 1, 62, 0
3, 37344, Note_on_c, 1, 65, 60
3, 37438, Note_off_c, 1, 65, 0
3, 37440, Note_on_c, 1, 64, 90
3, 37440, Note_on_c, 1, 60, 90
3, 37630, Note_off_c, 1, 64, 0
3, 37630, Note_off_c, 1, 60, 0
3, 37728, Note_on_c, 1, 62, 90
3, 37822, Note_off_c, 1, 62, 0
3, 37824, Note_on_c, 1, 59, 90
3, 37918, Note_off_c, 1, 59, 0
3, 37920, Note_on_c, 1, 55, 90
3, 38014, Note_off_c, 1, 55, 0
3, 38016, Note_on_c, 1, 60, 105
3, 38206, Note_off_c, 1, 60, 0
3, 38304, Note_on_c, 1, 62, 105
3, 38398, Note_off_c, 1, 62, 0
3, 38400, Note_on_c, 1, 59, 105
3, 38494, Note_off_c, 1, 59, 0
3, 38496, Note_on_c, 1, 55, 105
3, 38590, Note_off_c, 1, 55, 0
3, 38592, Note_on_c, 1, 60, 105
3, 38782, Note_off_c, 1, 60, 0
3, 38880, Note_on_c, 1, 62, 105
3, 38974, Note_off_c, 1, 62, 0
3, 38976, Note_on_c, 1, 59, 105
3, 39070, Note_off_c, 1, 59, 0
3, 39072, Note_on_c, 1, 55, 105
3, 39166, Note_off_c, 1, 55, 0
3, 39168, Note_on_c, 1, 60, 105
3, 39358, Note_off_c, 1, 60, 0
3, 40416, Note_on_c, 1, 45, 105
3, 40510, Note_off_c, 1, 45, 0
3, 40512, Note_on_c, 1, 48, 105
3, 40606, Note_off_c, 1, 48, 0
3, 40608, Note_on_c, 1, 51, 105
3, 40702, Note_off_c, 1, 51, 0
3, 40704, Note_on_c, 1, 50, 105
3, 40798, Note_off_c, 1, 50, 0
3, 40800, Note_on_c, 1, 48, 105
3, 40894, Note_off_c, 1, 48, 0
3, 40896, Note_on_c, 1, 48, 105
3, 40990, Note_off_c, 1, 48, 0
3, 40992, Note_on_c, 1, 47, 105
3, 41086, Note_off_c, 1, 47, 0
3, 41088, Note_on_c, 1, 50, 105
3, 41182, Note_off_c, 1, 50, 0
3, 41184, Note_on_c, 1, 56, 105
3, 41278, Note_off_c, 1, 56, 0
3, 41280, Note_on_c, 1, 55, 105
3, 41374, Note_off_c, 1, 55, 0
3, 41376, Note_on_c, 1, 53, 105
3, 41470, Note_off_c, 1, 53, 0
3, 41472, Note_on_c, 1, 52, 60
3, 41566, Note_off_c, 1, 52, 0
3, 41760, Note_on_c, 1, 53, 60
3, 41854, Note_off_c, 1, 53, 0
3, 42048, Note_on_c, 1, 64, 60
3, 42048, Note_on_c, 1, 55, 60
3, 42334, Note_off_c, 1, 64, 0
3, 42334, Note_off_c, 1, 55, 0
3, 42336, Note_on_c, 1, 65, 60
3, 42622, Note_off_c, 1, 65, 0
3, 42624, Note_on_c, 1, 64, 90
3, 42624, Note_on_c, 1, 60, 90
3, 42814, Note_off_c, 1, 64, 0
3, 42814, Note_off_c, 1, 60, 0
3, 42912, Note_on_c, 1, 62, 90
3, 43006, Note_off_c, 1, 62, 0
3, 43008, Note_on_c, 1, 59, 90
3, 43102, Note_off_c, 1, 59, 0
3, 43104, Note_on_c, 1, 55, 90
3, 43198, Note_off_c, 1, 55, 0
3, 43200, Note_on_c, 1, 60, 105
3, 43390, Note_off_c, 1, 60, 0
3, 43488, Note_on_c, 1, 62, 105
3, 43582, Note_off_c, 1, 62, 0
3, 43584, Note_on_c, 1, 59, 105
3, 43678, Note_off_c, 1, 59, 0
3, 43680, Note_on_c, 1, 55, 105
3, 43774, Note_off_c, 1, 55, 0
3, 43776, Note_on_c, 1, 60, 105
3, 43966, Note_off_c, 1, 60, 0
3, 44064, Note_on_c, 1, 62, 105
3, 44158, Note_off_c, 1, 62, 0
3, 44160, Note_on_c, 1, 59, 105
3, 44254, Note_off_c, 1, 59, 0
3, 44256, Note_on_c, 1, 55, 105
3, 44350, Note_off_c, 1, 55, 0
3, 44352, Note_on_c, 1, 60, 105
3, 44542, Note_off_c, 1, 60, 0
3, 45600, Note_on_c, 1, 45, 105
3, 45694, Note_off_c, 1, 45, 0
3, 45696, Note_on_c, 1, 48, 105
3, 45790, Note_off_c, 1, 48, 0
3, 45792, Note_on_c, 1, 51, 105
3, 45886, Note_off_c, 1, 51, 0
3, 45888, Note_on_c, 1, 50, 105
3, 45982, Note_off_c, 1, 50, 0
3, 45984, Note_on_c, 1, 48, 105
3, 46078, Note_off_c, 1, 48, 0
3, 46080, Note_on_c, 1, 48, 105
3, 46174, Note_off_c, 1, 48, 0
3, 46176, Note_on_c, 1, 47, 105
3, 46270, Note_off_c, 1, 47, 0
3, 46272, Note_on_c, 1, 50, 105
3, 46366, Note_off_c, 1, 50, 0
3, 46368, Note_on_c, 1, 56, 105
3, 46462, Note_off_c, 1, 56, 0
3, 46464, Note_on_c, 1, 55, 105
3, 46558, Note_off_c, 1, 55, 0
3, 46560, Note_on_c, 1, 53, 105
3, 46654, Note_off_c, 1, 53, 0
3, 46656, Note_on_c, 1, 52, 60
3, 46750, Note_off_c, 1, 52, 0
3, 46944, Note_on_c, 1, 53, 60
3, 47038, Note_off_c, 1, 53, 0
3, 47232, Note_on_c, 1, 64, 60
3, 47232, Note_on_c, 1, 55, 60
3, 47518, Note_off_c, 1, 64, 0
3, 47518, Note_off_c, 1, 55, 0
3, 47520, Note_on_c, 1, 62, 60
3, 47520, Note_on_c, 1, 53, 60
3, 47806, Note_off_c, 1, 62, 0
3, 47806, Note_off_c, 1, 53, 0
3, 47808, Note_on_c, 1, 52, 90
3, 47902, Note_off_c, 1, 52, 0
3, 47904, Note_on_c, 1, 55, 90
3, 47998, Note_off_c, 1, 55, 0
3, 48000, Note_on_c, 1, 60, 90
3, 48094, Note_off_c, 1, 60, 0
3, 48096, Note_on_c, 1, 53, 90
3, 48190, Note_off_c, 1, 53, 0
3, 48192, Note_on_c, 1, 57, 90
3, 48286, Note_off_c, 1, 57, 0
3, 48288, Note_on_c, 1, 62, 90
3, 48382, Note_off_c, 1, 62, 0
3, 48384, Note_on_c, 1, 55, 60
3, 48478, Note_off_c, 1, 55, 0
3, 48480, Note_on_c, 1, 60, 60
3, 48574, Note_off_c, 1, 60, 0
3, 48576, Note_on_c, 1, 64, 60
3, 48670, Note_off_c, 1, 64, 0
3, 48672, Note_on_c, 1, 55, 60
3, 48766, Note_off_c, 1, 55, 0
3, 48768, Note_on_c, 1, 62, 60
3, 48862, Note_off_c, 1, 62, 0
3, 48864, Note_on_c, 1, 65, 60
3, 48958, Note_off_c, 1, 65, 0
3, 48960, Note_on_c, 1, 60, 90
3, 48960, Note_on_c, 1, 64, 90
3, 49150, Note_off_c, 1, 60, 0
3, 49150, Note_off_c, 1, 64, 0
3, 49248, Note_on_c, 1, 55, 90
3, 49248, Note_on_c, 1, 59, 90
3, 49248, Note_on_c, 1, 65, 90
3, 49438, Note_off_c, 1, 55, 0
3, 49438, Note_off_c, 1, 59, 0
3, 49438, Note_off_c, 1, 65, 0
3, 49536, Note_on_c, 1, 60, 90
3, 49536, Note_on_c, 1, 64, 90
3, 49726, Note_off_c, 1, 60, 0
3, 49726, Note_off_c, 1, 64, 0
3, 49824, Note_on_c, 1, 59, 90
3, 49824, Note_on_c, 1, 55, 90
3, 49824, Note_on_c, 1, 65, 90
3, 50014, Note_off_c, 1, 59, 0
3, 50014, Note_off_c, 1, 55, 0
3, 50014, Note_off_c, 1, 65, 0
3, 50112, Note_on_c, 1, 52, 90
3, 50112, Note_on_c, 1, 48, 90
3, 50302, Note_off_c, 1, 52, 0
3, 50302, Note_off_c, 1, 48, 0
3, 50400, Note_on_c, 1, 43, 90
3, 50400, Note_on_c, 1, 47, 90
3, 50400, Note_on_c, 1, 53, 90
3, 50400, Note_on_c, 1, 55, 90
3, 50446, Note_off_c, 1, 55, 0
3, 50448, Note_on_c, 1, 57, 90
3, 50494, Note_off_c, 1, 57, 0
3, 50496, Note_on_c, 1, 55, 90
3, 50542, Note_off_c, 1, 55, 0
3, 50544, Note_on_c, 1, 53, 90
3, 50590, Note_off_c, 1, 43, 0
3, 50590, Note_off_c, 1, 47, 0
3, 50590, Note_off_c, 1, 53, 0
3, 50590, Note_off_c, 1, 53, 0
3, 50592, Note_on_c, 1, 52, 90
3, 50638, Note_off_c, 1, 52, 0
3, 50640, Note_on_c, 1, 50, 90
3, 50686, Note_off_c, 1, 50, 0
3, 50688, Note_on_c, 1, 48, 90
3, 50688, Note_on_c, 1, 36, 90
3, 50782, Note_off_c, 1, 48, 0
3, 50782, Note_off_c, 1, 36, 0
3, 50784, Note_on_c, 1, 52, 90
3, 50784, Note_on_c, 1, 40, 90
3, 50878, Note_off_c, 1, 52, 0
3, 50878, Note_off_c, 1, 40, 0
3, 50880, Note_on_c, 1, 55, 90
3, 50880, Note_on_c, 1, 43, 90
3, 50974, Note_off_c, 1, 55, 0
3, 50974, Note_off_c, 1, 43, 0
3, 50976, Note_on_c, 1, 48, 90
3, 51070, Note_off_c, 1, 48, 0
3, 51072, Note_on_c, 1, 52, 90
3, 51166, Note_off_c, 1, 52, 0
3, 51168, Note_on_c, 1, 55, 90
3, 51262, Note_off_c, 1, 55, 0
3, 51264, Note_on_c, 1, 60, 105
3, 51454, Note_off_c, 1, 60, 0
3, 51552, Note_on_c, 1, 60, 105
3, 51552, Note_on_c, 1, 55, 105
3, 51552, Note_on_c, 1, 52, 105
3, 51552, Note_on_c, 1, 48, 105
3, 51742, Note_off_c, 1, 60, 0
3, 51742, Note_off_c, 1, 55, 0
3, 51742, Note_off_c, 1, 52, 0
3, 51742, Note_off_c, 1, 48, 0
3, 51840, Note_on_c, 1, 60, 105
3, 51840, Note_on_c, 1, 55, 105
3, 51840, Note_on_c, 1, 52, 105
3, 51840, Note_on_c, 1, 48, 105
3, 52030, Note_off_c, 1, 60, 0
3, 52030, Note_off_c, 1, 55, 0
3, 52030, Note_off_c, 1, 52, 0
3, 52030, Note_off_c, 1, 48, 0
3, 52428, Note_on_c, 1, 53, 90
3, 52428, Note_on_c, 1, 41, 90
3, 52428, Note_on_c, 1, 45, 90
3, 52428, Note_on_c, 1, 48, 90
3, 52810, Note_off_c, 1, 53, 0
3, 52810, Note_off_c, 1, 41, 0
3, 52810, Note_off_c, 1, 45, 0
3, 52810, Note_off_c, 1, 48, 0
3, 53856, Note_on_c, 1, 57, 90
3, 53950, Note_off_c, 1, 57, 0
3, 53952, Note_on_c, 1, 55, 90
3, 54046, Note_off_c, 1, 55, 0
3, 54048, Note_on_c, 1, 57, 90
3, 54142, Note_off_c, 1, 57, 0
3, 54144, Note_on_c, 1, 58, 90
3, 54238, Note_off_c, 1, 58, 0
3, 54240, Note_on_c, 1, 57, 90
3, 54324, Note_on_c, 1, 58, 90
3, 54334, Note_off_c, 1, 57, 0
3, 54418, Note_off_c, 1, 58, 0
3, 54432, Note_on_c, 1, 60, 90
3, 54526, Note_off_c, 1, 60, 0
3, 54528, Note_on_c, 1, 58, 90
3, 54622, Note_off_c, 1, 58, 0
3, 54624, Note_on_c, 1, 60, 90
3, 54718, Note_off_c, 1, 60, 0
3, 54720, Note_on_c, 1, 61, 99
3, 54910, Note_off_c, 1, 61, 0
3, 54912, Note_on_c, 1, 60, 82
3, 55006, Note_off_c, 1, 60, 0
3, 55008, Note_on_c, 1, 61, 99
3, 55198, Note_off_c, 1, 61, 0
3, 55200, Note_on_c, 1, 60, 82
3, 55294, Note_off_c, 1, 60, 0
3, 55296, Note_on_c, 1, 59, 60
3, 55390, Note_off_c, 1, 59, 0
3, 55392, Note_on_c, 1, 59, 60
3, 55486, Note_off_c, 1, 59, 0
3, 55488, Note_on_c, 1, 59, 60
3, 55582, Note_off_c, 1, 59, 0
3, 55584, Note_on_c, 1, 60, 60
3, 55678, Note_off_c, 1, 60, 0
3, 55872, Note_on_c, 1, 53, 90
3, 55872, Note_on_c, 1, 48, 90
3, 55872, Note_on_c, 1, 45, 90
3, 55872, Note_on_c, 1, 41, 90
3, 56254, Note_off_c, 1, 53, 0
3, 56254, Note_off_c, 1, 48, 0
3, 56254, Note_off_c, 1, 45, 0
3, 56254, Note_off_c, 1, 41, 0
3, 57312, Note_on_c, 1, 57, 90
3, 57406, Note_off_c, 1, 57, 0
3, 57408, Note_on_c, 1, 55, 90
3, 57502, Note_off_c, 1, 55, 0
3, 57504, Note_on_c, 1, 57, 90
3, 57598, Note_off_c, 1, 57, 0
3, 57600, Note_on_c, 1, 58, 90
3, 57694, Note_off_c, 1, 58, 0
3, 57696, Note_on_c, 1, 57, 90
3, 57790, Note_off_c, 1, 57, 0
3, 57804, Note_on_c, 1, 58, 90
3, 57888, Note_on_c, 1, 60, 90
3, 57898, Note_off_c, 1, 58, 0
3, 57982, Note_off_c, 1, 60, 0
3, 57984, Note_on_c, 1, 58, 90
3, 58078, Note_off_c, 1, 58, 0
3, 58080, Note_on_c, 1, 60, 90
3, 58174, Note_off_c, 1, 60, 0
3, 58176, Note_on_c, 1, 61, 99
3, 58366, Note_off_c, 1, 61, 0
3, 58368, Note_on_c, 1, 60, 82
3, 58462, Note_off_c, 1, 60, 0
3, 58464, Note_on_c, 1, 61, 99
3, 58654, Note_off_c, 1, 61, 0
3, 58656, Note_on_c, 1, 60, 82
3, 58750, Note_off_c, 1, 60, 0
3, 58752, Note_on_c, 1, 59, 60
3, 58846, Note_off_c, 1, 59, 0
3, 59040, Note_on_c, 1, 58, 60
3, 59134, Note_off_c, 1, 58, 0
3, 59328, Note_on_c, 1, 57, 60
3, 59422, Note_off_c, 1, 57, 0
3, 59616, Note_on_c, 1, 46, 90
3, 59662, Note_off_c, 1, 46, 0
3, 59664, Note_on_c, 1, 58, 90
3, 59710, Note_off_c, 1, 58, 0
3, 59904, Note_on_c, 1, 58, 90
3, 59904, Note_on_c, 1, 55, 90
3, 59904, Note_on_c, 1, 48, 90
3, 60190, Note_off_c, 1, 58, 0
3, 60190, Note_off_c, 1, 55, 0
3, 60190, Note_off_c, 1, 48, 0
3, 60192, Note_on_c, 1, 57, 90
3, 60192, Note_on_c, 1, 53, 90
3, 60286, Note_off_c, 1, 57, 0
3, 60286, Note_off_c, 1, 53, 0
3, 60480, Note_on_c, 1, 48, 45
3, 60574, Note_off_c, 1, 48, 0
3, 60576, Note_on_c, 1, 58, 45
3, 60576, Note_on_c, 1, 60, 45
3, 60670, Note_off_c, 1, 58, 0
3, 60670, Note_off_c, 1, 60, 0
3, 60672, Note_on_c, 1, 58, 45
3, 60672, Note_on_c, 1, 60, 45
3, 60766, Note_off_c, 1, 58, 0
3, 60766, Note_off_c, 1, 60, 0
3, 60768, Note_on_c, 1, 58, 45
3, 60768, Note_on_c, 1, 60, 45
3, 60862, Note_off_c, 1, 58, 0
3, 60862, Note_off_c, 1, 60, 0
3, 60864, Note_on_c, 1, 58, 45
3, 60864, Note_on_c, 1, 60, 45
3, 60958, Note_off_c, 1, 58, 0
3, 60958, Note_off_c, 1, 60, 0
3, 60960, Note_on_c, 1, 58, 45
3, 60960, Note_on_c, 1, 60, 45
3, 61054, Note_off_c, 1, 58, 0
3, 61054, Note_off_c, 1, 60, 0
3, 61056, Note_on_c, 1, 53, 45
3, 61150, Note_off_c, 1, 53, 0
3, 61152, Note_on_c, 1, 57, 45
3, 61152, Note_on_c, 1, 60, 45
3, 61246, Note_off_c, 1, 57, 0
3, 61246, Note_off_c, 1, 60, 0
3, 61248, Note_on_c, 1, 57, 45
3, 61248, Note_on_c, 1, 60, 45
3, 61342, Note_off_c, 1, 57, 0
3, 61342, Note_off_c, 1, 60, 0
3, 61344, Note_on_c, 1, 57, 45
3, 61344, Note_on_c, 1, 60, 45
3, 61438, Note_off_c, 1, 57, 0
3, 61438, Note_off_c, 1, 60, 0
3, 61440, Note_on_c, 1, 57, 45
3, 61440, Note_on_c, 1, 60, 45
3, 61534, Note_off_c, 1, 57, 0
3, 61534, Note_off_c, 1, 60, 0
3, 61536, Note_on_c, 1, 57, 45
3, 61536, Note_on_c, 1, 60, 45
3, 61630, Note_off_c, 1, 57, 0
3, 61630, Note_off_c, 1, 60, 0
3, 61632, Note_on_c, 1, 48, 45
3, 61726, Note_off_c, 1, 48, 0
3, 61728, Note_on_c, 1, 55, 45
3, 61728, Note_on_c, 1, 60, 45
3, 61822, Note_off_c, 1, 55, 0
3, 61822, Note_off_c, 1, 60, 0
3, 61824, Note_on_c, 1, 55, 45
3, 61824, Note_on_c, 1, 60, 45
3, 61918, Note_off_c, 1, 55, 0
3, 61918, Note_off_c, 1, 60, 0
3, 61920, Note_on_c, 1, 55, 45
3, 61920, Note_on_c, 1, 60, 45
3, 62014, Note_off_c, 1, 55, 0
3, 62014, Note_off_c, 1, 60, 0
3, 62016, Note_on_c, 1, 55, 45
3, 62016, Note_on_c, 1, 60, 45
3, 62110, Note_off_c, 1, 55, 0
3, 62110, Note_off_c, 1, 60, 0
3, 62112, Note_on_c, 1, 55, 45
3, 62112, Note_on_c, 1, 60, 45
3, 62206, Note_off_c, 1, 55, 0
3, 62206, Note_off_c, 1, 60, 0
3, 62208, Note_on_c, 1, 53, 45
3, 62302, Note_off_c, 1, 53, 0
3, 62304, Note_on_c, 1, 57, 45
3, 62304, Note_on_c, 1, 60, 45
3, 62398, Note_off_c, 1, 57, 0
3, 62398, Note_off_c, 1, 60, 0
3, 62400, Note_on_c, 1, 57, 45
3, 62412, Note_on_c, 1, 60, 45
3, 62494, Note_off_c, 1, 57, 0
3, 62496, Note_on_c, 1, 57, 45
3, 62496, Note_on_c, 1, 60, 45
3, 62506, Note_off_c, 1, 60, 0
3, 62590, Note_off_c, 1, 57, 0
3, 62590, Note_off_c, 1, 60, 0
3, 62592, Note_on_c, 1, 57, 45
3, 62592, Note_on_c, 1, 60, 45
3, 62686, Note_off_c, 1, 57, 0
3, 62686, Note_off_c, 1, 60, 0
3, 62688, Note_on_c, 1, 57, 45
3, 62688, Note_on_c, 1, 60, 45
3, 62782, Note_off_c, 1, 57, 0
3, 62782, Note_off_c, 1, 60, 0
3, 62784, Note_on_c, 1, 48, 45
3, 62878, Note_off_c, 1, 48, 0
3, 62880, Note_on_c, 1, 58, 45
3, 62880, Note_on_c, 1, 60, 45
3, 62974, Note_off_c, 1, 58, 0
3, 62974, Note_off_c, 1, 60, 0
3, 62976, Note_on_c, 1, 58, 45
3, 62976, Note_on_c, 1, 60, 45
3, 63070, Note_off_c, 1, 58, 0
3, 63070, Note_off_c, 1, 60, 0
3, 63072, Note_on_c, 1, 58, 45
3, 63072, Note_on_c, 1, 60, 45
3, 63166, Note_off_c, 1, 58, 0
3, 63166, Note_off_c, 1, 60, 0
3, 63168, Note_on_c, 1, 58, 45
3, 63168, Note_on_c, 1, 60, 45
3, 63262, Note_off_c, 1, 58, 0
3, 63262, Note_off_c, 1, 60, 0
3, 63264, Note_on_c, 1, 58, 45
3, 63264, Note_on_c, 1, 60, 45
3, 63358, Note_off_c, 1, 58, 0
3, 63358, Note_off_c, 1, 60, 0
3, 63360, Note_on_c, 1, 53, 60
3, 63454, Note_off_c, 1, 53, 0
3, 63456, Note_on_c, 1, 57, 60
3, 63456, Note_on_c, 1, 60, 60
3, 63550, Note_off_c, 1, 57, 0
3, 63550, Note_off_c, 1, 60, 0
3, 63552, Note_on_c, 1, 57, 60
3, 63552, Note_on_c, 1, 60, 60
3, 63646, Note_off_c, 1, 57, 0
3, 63646, Note_off_c, 1, 60, 0
3, 63648, Note_on_c, 1, 57, 60
3, 63648, Note_on_c, 1, 60, 60
3, 63742, Note_off_c, 1, 57, 0
3, 63742, Note_off_c, 1, 60, 0
3, 63744, Note_on_c, 1, 57, 60
3, 63744, Note_on_c, 1, 60, 60
3, 63838, Note_off_c, 1, 57, 0
3, 63838, Note_off_c, 1, 60, 0
3, 63840, Note_on_c, 1, 57, 60
3, 63840, Note_on_c, 1, 60, 60
3, 63934, Note_off_c, 1, 57, 0
3, 63934, Note_off_c, 1, 60, 0
3, 63936, Note_on_c, 1, 48, 60
3, 64030, Note_off_c, 1, 48, 0
3, 64032, Note_on_c, 1, 55, 60
3, 64032, Note_on_c, 1, 60, 60
3, 64126, Note_off_c, 1, 55, 0
3, 64126, Note_off_c, 1, 60, 0
3, 64128, Note_on_c, 1, 55, 60
3, 64128, Note_on_c, 1, 60, 60
3, 64222, Note_off_c, 1, 55, 0
3, 64222, Note_off_c, 1, 60, 0
3, 64224, Note_on_c, 1, 58, 60
3, 64224, Note_on_c, 1, 60, 60
3, 64318, Note_off_c, 1, 58, 0
3, 64318, Note_off_c, 1, 60, 0
3, 64320, Note_on_c, 1, 58, 60
3, 64320, Note_on_c, 1, 60, 60
3, 64414, Note_off_c, 1, 58, 0
3, 64414, Note_off_c, 1, 60, 0
3, 64416, Note_on_c, 1, 58, 60
3, 64416, Note_on_c, 1, 60, 60
3, 64510, Note_off_c, 1, 58, 0
3, 64510, Note_off_c, 1, 60, 0
3, 64512, Note_on_c, 1, 60, 60
3, 64512, Note_on_c, 1, 57, 60
3, 64512, Note_on_c, 1, 53, 60
3, 64606, Note_off_c, 1, 60, 0
3, 64606, Note_off_c, 1, 57, 0
3, 64606, Note_off_c, 1, 53, 0
3, 64704, Note_on_c, 1, 45, 90
3, 64798, Note_off_c, 1, 45, 0
3, 64800, Note_on_c, 1, 46, 90
3, 64894, Note_off_c, 1, 46, 0
3, 64896, Note_on_c, 1, 55, 90
3, 64990, Note_off_c, 1, 55, 0
3, 64992, Note_on_c, 1, 47, 90
3, 65086, Note_off_c, 1, 47, 0
3, 65088, Note_on_c, 1, 48, 90
3, 65182, Note_off_c, 1, 48, 0
3, 65184, Note_on_c, 1, 57, 90
3, 65278, Note_off_c, 1, 57, 0
3, 65280, Note_on_c, 1, 49, 90
3, 65374, Note_off_c, 1, 49, 0
3, 65376, Note_on_c, 1, 50, 90
3, 65470, Note_off_c, 1, 50, 0
3, 65472, Note_on_c, 1, 58, 90
3, 65566, Note_off_c, 1, 58, 0
3, 65568, Note_on_c, 1, 52, 90
3, 65662, Note_off_c, 1, 52, 0
3, 67584, Note_on_c, 1, 45, 90
3, 67678, Note_off_c, 1, 45, 0
3, 67680, Note_on_c, 1, 46, 90
3, 67774, Note_off_c, 1, 46, 0
3, 67776, Note_on_c, 1, 55, 90
3, 67870, Note_off_c, 1, 55, 0
3, 67872, Note_on_c, 1, 47, 90
3, 67966, Note_off_c, 1, 47, 0
3, 67968, Note_on_c, 1, 48, 90
3, 68062, Note_off_c, 1, 48, 0
3, 68064, Note_on_c, 1, 57, 90
3, 68158, Note_off_c, 1, 57, 0
3, 68160, Note_on_c, 1, 49, 90
3, 68254, Note_off_c, 1, 49, 0
3, 68256, Note_on_c, 1, 50, 90
3, 68350, Note_off_c, 1, 50, 0
3, 68352, Note_on_c, 1, 58, 90
3, 68446, Note_off_c, 1, 58, 0
3, 68448, Note_on_c, 1, 52, 90
3, 68542, Note_off_c, 1, 52, 0
3, 69696, Note_on_c, 1, 57, 60
3, 69696, Note_on_c, 1, 48, 60
3, 69886, Note_off_c, 1, 57, 0
3, 69984, Note_on_c, 1, 58, 60
3, 70174, Note_off_c, 1, 58, 0
3, 70270, Note_off_c, 1, 48, 0
3, 70272, Note_on_c, 1, 53, 60
3, 70272, Note_on_c, 1, 53, 60
3, 70366, Note_off_c, 1, 53, 0
3, 70368, Note_on_c, 1, 57, 60
3, 70462, Note_off_c, 1, 57, 0
3, 70464, Note_on_c, 1, 60, 60
3, 70558, Note_off_c, 1, 53, 0
3, 70558, Note_off_c, 1, 60, 0
3, 70560, Note_on_c, 1, 53, 60
3, 70560, Note_on_c, 1, 53, 60
3, 70654, Note_off_c, 1, 53, 0
3, 70656, Note_on_c, 1, 55, 60
3, 70750, Note_off_c, 1, 55, 0
3, 70752, Note_on_c, 1, 58, 60
3, 70846, Note_off_c, 1, 53, 0
3, 70846, Note_off_c, 1, 58, 0
3, 70848, Note_on_c, 1, 53, 60
3, 70944, Note_on_c, 1, 57, 60
3, 71038, Note_off_c, 1, 57, 0
3, 71052, Note_on_c, 1, 60, 60
3, 71134, Note_off_c, 1, 53, 0
3, 71136, Note_on_c, 1, 53, 60
3, 71146, Note_off_c, 1, 60, 0
3, 71232, Note_on_c, 1, 55, 60
3, 71326, Note_off_c, 1, 55, 0
3, 71328, Note_on_c, 1, 58, 60
3, 71422, Note_off_c, 1, 53, 0
3, 71422, Note_off_c, 1, 58, 0
3, 71424, Note_on_c, 1, 53, 45
3, 71424, Note_on_c, 1, 53, 45
3, 71518, Note_off_c, 1, 53, 0
3, 71520, Note_on_c, 1, 57, 45
3, 71614, Note_off_c, 1, 57, 0
3, 71616, Note_on_c, 1, 60, 45
3, 71710, Note_off_c, 1, 53, 0
3, 71710, Note_off_c, 1, 60, 0
3, 71712, Note_on_c, 1, 53, 45
3, 71712, Note_on_c, 1, 53, 45
3, 71806, Note_off_c, 1, 53, 0
3, 71808, Note_on_c, 1, 57, 45
3, 71902, Note_off_c, 1, 57, 0
3, 71904, Note_on_c, 1, 60, 45
3, 71998, Note_off_c, 1, 53, 0
3, 71998, Note_off_c, 1, 60, 0
3, 72000, Note_on_c, 1, 53, 45
3, 72000, Note_on_c, 1, 41, 45
3, 72286, Note_off_c, 1, 53, 0
3, 72286, Note_off_c, 1, 41, 0
3, 72288, Note_on_c, 1, 53, 45
3, 72288, Note_on_c, 1, 41, 45
3, 72382, Note_off_c, 1, 53, 0
3, 72382, Note_off_c, 1, 41, 0
3, 73152, Note_on_c, 1, 57, 90
3, 73152, Note_on_c, 1, 45, 90
3, 73438, Note_off_c, 1, 57, 0
3, 73438, Note_off_c, 1, 45, 0
3, 73440, Note_on_c, 1, 55, 90
3, 73440, Note_on_c, 1, 43, 90
3, 73726, Note_off_c, 1, 55, 0
3, 73726, Note_off_c, 1, 43, 0
3, 73728, Note_on_c, 1, 53, 90
3, 73728, Note_on_c, 1, 41, 90
3, 74014, Note_off_c, 1, 53, 0
3, 74014, Note_off_c, 1, 41, 0
3, 74016, Note_on_c, 1, 52, 90
3, 74016, Note_on_c, 1, 40, 90
3, 74302, Note_off_c, 1, 52, 0
3, 74302, Note_off_c, 1, 40, 0
3, 74304, Note_on_c, 1, 50, 90
3, 74398, Note_off_c, 1, 50, 0
3, 74400, Note_on_c, 1, 53, 90
3, 74494, Note_off_c, 1, 53, 0
3, 74496, Note_on_c, 1, 57, 90
3, 74590, Note_off_c, 1, 57, 0
3, 74592, Note_on_c, 1, 49, 90
3, 74686, Note_off_c, 1, 49, 0
3, 74688, Note_on_c, 1, 52, 90
3, 74782, Note_off_c, 1, 52, 0
3, 74784, Note_on_c, 1, 57, 90
3, 74878, Note_off_c, 1, 57, 0
3, 74880, Note_on_c, 1, 50, 90
3, 74974, Note_off_c, 1, 50, 0
3, 74976, Note_on_c, 1, 53, 90
3, 75070, Note_off_c, 1, 53, 0
3, 75072, Note_on_c, 1, 57, 90
3, 75166, Note_off_c, 1, 57, 0
3, 75168, Note_on_c, 1, 48, 90
3, 75262, Note_off_c, 1, 48, 0
3, 75264, Note_on_c, 1, 54, 90
3, 75358, Note_off_c, 1, 54, 0
3, 75360, Note_on_c, 1, 57, 90
3, 75454, Note_off_c, 1, 57, 0
3, 75456, Note_on_c, 1, 47, 90
3, 75646, Note_off_c, 1, 47, 0
3, 78336, Note_on_c, 1, 53, 90
3, 78430, Note_off_c, 1, 53, 0
3, 78432, Note_on_c, 1, 65, 90
3, 78526, Note_off_c, 1, 65, 0
3, 78624, Note_on_c, 1, 47, 90
3, 78718, Note_off_c, 1, 47, 0
3, 78732, Note_on_c, 1, 59, 90
3, 78826, Note_off_c, 1, 59, 0
3, 78912, Note_on_c, 1, 52, 90
3, 79006, Note_off_c, 1, 52, 0
3, 79008, Note_on_c, 1, 64, 90
3, 79102, Note_off_c, 1, 64, 0
3, 79200, Note_on_c, 1, 45, 90
3, 79294, Note_off_c, 1, 45, 0
3, 79296, Note_on_c, 1, 57, 90
3, 79390, Note_off_c, 1, 57, 0
3, 79488, Note_on_c, 1, 50, 90
3, 79582, Note_off_c, 1, 50, 0
3, 79680, Note_on_c, 1, 59, 90
3, 79774, Note_off_c, 1, 59, 0
3, 79776, Note_on_c, 1, 60, 90
3, 79870, Note_off_c, 1, 60, 0
3, 79968, Note_on_c, 1, 48, 90
3, 80062, Note_off_c, 1, 48, 0
3, 80064, Note_on_c, 1, 55, 90
3, 80158, Note_off_c, 1, 55, 0
3, 88128, Note_on_c, 1, 53, 90
3, 88222, Note_off_c, 1, 53, 0
3, 88224, Note_on_c, 1, 56, 90
3, 88318, Note_off_c, 1, 56, 0
3, 88320, Note_on_c, 1, 62, 90
3, 88414, Note_off_c, 1, 62, 0
3, 88416, Note_on_c, 1, 51, 90
3, 88510, Note_off_c, 1, 51, 0
3, 88512, Note_on_c, 1, 60, 90
3, 88606, Note_off_c, 1, 60, 0
3, 88608, Note_on_c, 1, 53, 90
3, 88702, Note_off_c, 1, 53, 0
3, 88704, Note_on_c, 1, 55, 60
3, 88798, Note_off_c, 1, 55, 0
3, 88800, Note_on_c, 1, 60, 60
3, 88894, Note_off_c, 1, 60, 0
3, 88896, Note_on_c, 1, 63, 60
3, 88990, Note_off_c, 1, 63, 0
3, 88992, Note_on_c, 1, 55, 60
3, 89086, Note_off_c, 1, 55, 0
3, 89088, Note_on_c, 1, 62, 60
3, 89182, Note_off_c, 1, 62, 0
3, 89184, Note_on_c, 1, 65, 60
3, 89278, Note_off_c, 1, 65, 0
3, 89280, Note_on_c, 1, 64, 90
3, 89280, Note_on_c, 1, 60, 90
3, 89470, Note_off_c, 1, 64, 0
3, 89470, Note_off_c, 1, 60, 0
3, 89568, Note_on_c, 1, 62, 90
3, 89662, Note_off_c, 1, 62, 0
3, 89664, Note_on_c, 1, 59, 90
3, 89758, Note_off_c, 1, 59, 0
3, 89760, Note_on_c, 1, 55, 90
3, 89854, Note_off_c, 1, 55, 0
3, 89856, Note_on_c, 1, 60, 105
3, 90046, Note_off_c, 1, 60, 0
3, 90144, Note_on_c, 1, 62, 105
3, 90238, Note_off_c, 1, 62, 0
3, 90240, Note_on_c, 1, 59, 105
3, 90334, Note_off_c, 1, 59, 0
3, 90336, Note_on_c, 1, 55, 105
3, 90430, Note_off_c, 1, 55, 0
3, 90432, Note_on_c, 1, 60, 105
3, 90622, Note_off_c, 1, 60, 0
3, 90720, Note_on_c, 1, 62, 105
3, 90814, Note_off_c, 1, 62, 0
3, 90816, Note_on_c, 1, 59, 105
3, 90910, Note_off_c, 1, 59, 0
3, 90912, Note_on_c, 1, 55, 105
3, 91006, Note_off_c, 1, 55, 0
3, 91008, Note_on_c, 1, 60, 105
3, 91198, Note_off_c, 1, 60, 0
3, 92256, Note_on_c, 1, 45, 105
3, 92350, Note_off_c, 1, 45, 0
3, 92352, Note_on_c, 1, 48, 105
3, 92446, Note_off_c, 1, 48, 0
3, 92448, Note_on_c, 1, 51, 105
3, 92542, Note_off_c, 1, 51, 0
3, 92544, Note_on_c, 1, 50, 105
3, 92638, Note_off_c, 1, 50, 0
3, 92640, Note_on_c, 1, 48, 105
3, 92734, Note_off_c, 1, 48, 0
3, 92736, Note_on_c, 1, 48, 105
3, 92830, Note_off_c, 1, 48, 0
3, 92832, Note_on_c, 1, 47, 105
3, 92926, Note_off_c, 1, 47, 0
3, 92928, Note_on_c, 1, 50, 105
3, 93022, Note_off_c, 1, 50, 0
3, 93024, Note_on_c, 1, 56, 105
3, 93118, Note_off_c, 1, 56, 0
3, 93120, Note_on_c, 1, 55, 105
3, 93214, Note_off_c, 1, 55, 0
3, 93216, Note_on_c, 1, 53, 105
3, 93310, Note_off_c, 1, 53, 0
3, 93312, Note_on_c, 1, 52, 60
3, 93406, Note_off_c, 1, 52, 0
3, 93600, Note_on_c, 1, 53, 60
3, 93694, Note_off_c, 1, 53, 0
3, 93888, Note_on_c, 1, 64, 60
3, 93888, Note_on_c, 1, 55, 60
3, 94174, Note_off_c, 1, 64, 0
3, 94174, Note_off_c, 1, 55, 0
3, 94176, Note_on_c, 1, 65, 60
3, 94462, Note_off_c, 1, 65, 0
3, 94464, Note_on_c, 1, 64, 90
3, 94464, Note_on_c, 1, 60, 90
3, 94654, Note_off_c, 1, 64, 0
3, 94654, Note_off_c, 1, 60, 0
3, 94752, Note_on_c, 1, 62, 90
3, 94846, Note_off_c, 1, 62, 0
3, 94848, Note_on_c, 1, 59, 90
3, 94942, Note_off_c, 1, 59, 0
3, 94944, Note_on_c, 1, 55, 90
3, 95038, Note_off_c, 1, 55, 0
3, 95040, Note_on_c, 1, 60, 105
3, 95230, Note_off_c, 1, 60, 0
3, 95328, Note_on_c, 1, 62, 105
3, 95422, Note_off_c, 1, 62, 0
3, 95424, Note_on_c, 1, 59, 105
3, 95518, Note_off_c, 1, 59, 0
3, 95520, Note_on_c, 1, 55, 105
3, 95614, Note_off_c, 1, 55, 0
3, 95616, Note_on_c, 1, 60, 105
3, 95806, Note_off_c, 1, 60, 0
3, 95904, Note_on_c, 1, 62, 105
3, 95998, Note_off_c, 1, 62, 0
3, 96000, Note_on_c, 1, 59, 105
3, 96094, Note_off_c, 1, 59, 0
3, 96096, Note_on_c, 1, 55, 105
3, 96190, Note_off_c, 1, 55, 0
3, 96192, Note_on_c, 1, 60, 105
3, 96382, Note_off_c, 1, 60, 0
3, 97440, Note_on_c, 1, 45, 105
3, 97534, Note_off_c, 1, 45, 0
3, 97536, Note_on_c, 1, 48, 105
3, 97630, Note_off_c, 1, 48, 0
3, 97632, Note_on_c, 1, 51, 105
3, 97726, Note_off_c, 1, 51, 0
3, 97728, Note_on_c, 1, 50, 105
3, 97822, Note_off_c, 1, 50, 0
3, 97824, Note_on_c, 1, 48, 105
3, 97918, Note_off_c, 1, 48, 0
3, 97920, Note_on_c, 1, 48, 105
3, 98014, Note_off_c, 1, 48, 0
3, 98016, Note_on_c, 1, 47, 105
3, 98110, Note_off_c, 1, 47, 0
3, 98112, Note_on_c, 1, 50, 105
3, 98206, Note_off_c, 1, 50, 0
3, 98208, Note_on_c, 1, 56, 105
3, 98302, Note_off_c, 1, 56, 0
3, 98304, Note_on_c, 1, 55, 105
3, 98398, Note_off_c, 1, 55, 0
3, 98400, Note_on_c, 1, 53, 105
3, 98494, Note_off_c, 1, 53, 0
3, 98496, Note_on_c, 1, 52, 60
3, 98590, Note_off_c, 1, 52, 0
3, 98784, Note_on_c, 1, 53, 60
3, 98878, Note_off_c, 1, 53, 0
3, 99072, Note_on_c, 1, 64, 60
3, 99072, Note_on_c, 1, 55, 60
3, 99358, Note_off_c, 1, 64, 0
3, 99358, Note_off_c, 1, 55, 0
3, 99360, Note_on_c, 1, 62, 60
3, 99360, Note_on_c, 1, 53, 60
3, 99646, Note_off_c, 1, 62, 0
3, 99646, Note_off_c, 1, 53, 0
3, 99648, Note_on_c, 1, 52, 90
3, 99742, Note_off_c, 1, 52, 0
3, 99744, Note_on_c, 1, 55, 90
3, 99838, Note_off_c, 1, 55, 0
3, 99840, Note_on_c, 1, 60, 90
3, 99934, Note_off_c, 1, 60, 0
3, 99936, Note_on_c, 1, 53, 90
3, 100030, Note_off_c, 1, 53, 0
3, 100032, Note_on_c, 1, 57, 90
3, 100126, Note_off_c, 1, 57, 0
3, 100128, Note_on_c, 1, 62, 90
3, 100222, Note_off_c, 1, 62, 0
3, 100224, Note_on_c, 1, 55, 60
3, 100318, Note_off_c, 1, 55, 0
3, 100320, Note_on_c, 1, 60, 60
3, 100414, Note_off_c, 1, 60, 0
3, 100416, Note_on_c, 1, 64, 60
3, 100510, Note_off_c, 1, 64, 0
3, 100512, Note_on_c, 1, 55, 60
3, 100606, Note_off_c, 1, 55, 0
3, 100608, Note_on_c, 1, 62, 60
3, 100702, Note_off_c, 1, 62, 0
3, 100704, Note_on_c, 1, 65, 60
3, 100798, Note_off_c, 1, 65, 0
3, 100800, Note_on_c, 1, 60, 90
3, 100800, Note_on_c, 1, 64, 90
3, 100990, Note_off_c, 1, 60, 0
3, 100990, Note_off_c, 1, 64, 0
3, 101088, Note_on_c, 1, 55, 90
3, 101088, Note_on_c, 1, 59, 90
3, 101088, Note_on_c, 1, 65, 90
3, 101278, Note_off_c, 1, 55, 0
3, 101278, Note_off_c, 1, 59, 0
3, 101278, Note_off_c, 1, 65, 0
3, 101376, Note_on_c, 1, 60, 90
3, 101376, Note_on_c, 1, 64, 90
3, 101566, Note_off_c, 1, 60, 0
3, 101566, Note_off_c, 1, 64, 0
3, 101664, Note_on_c, 1, 59, 90
3, 101664, Note_on_c, 1, 55, 90
3, 101664, Note_on_c, 1, 65, 90
3, 101854, Note_off_c, 1, 59, 0
3, 101854, Note_off_c, 1, 55, 0
3, 101854, Note_off_c, 1, 65, 0
3, 101952, Note_on_c, 1, 52, 90
3, 101952, Note_on_c, 1, 48, 90
3, 102142, Note_off_c, 1, 52, 0
3, 102142, Note_off_c, 1, 48, 0
3, 102240, Note_on_c, 1, 43, 90
3, 102240, Note_on_c, 1, 47, 90
3, 102240, Note_on_c, 1, 53, 90
3, 102240, Note_on_c, 1, 55, 90
3, 102286, Note_off_c, 1, 55, 0
3, 102288, Note_on_c, 1, 57, 90
3, 102334, Note_off_c, 1, 57, 0
3, 102336, Note_on_c, 1, 55, 90
3, 102382, Note_off_c, 1, 55, 0
3, 102384, Note_on_c, 1, 53, 90
3, 102430, Note_off_c, 1, 43, 0
3, 102430, Note_off_c, 1, 47, 0
3, 102430, Note_off_c, 1, 53, 0
3, 102430, Note_off_c, 1, 53, 0
3, 102432, Note_on_c, 1, 52, 90
3, 102478, Note_off_c, 1, 52, 0
3, 102480, Note_on_c, 1, 50, 90
3, 102526, Note_off_c, 1, 50, 0
3, 102528, Note_on_c, 1, 48, 90
3, 102528, Note_on_c, 1, 36, 90
3, 102622, Note_off_c, 1, 48, 0
3, 102622, Note_off_c, 1, 36, 0
3, 102624, Note_on_c, 1, 52, 90
3, 102624, Note_on_c, 1, 40, 90
3, 102718, Note_off_c, 1, 52, 0
3, 102718, Note_off_c, 1, 40, 0
3, 102720, Note_on_c, 1, 55, 90
3, 102720, Note_on_c, 1, 43, 90
3, 102814, Note_off_c, 1, 55, 0
3, 102814, Note_off_c, 1, 43, 0
3, 102816, Note_on_c, 1, 48, 90
3, 102910, Note_off_c, 1, 48, 0
3, 102912, Note_on_c, 1, 52, 90
3, 103006, Note_off_c, 1, 52, 0
3, 103008, Note_on_c, 1, 55, 90
3, 103102, Note_off_c, 1, 55, 0
3, 103104, Note_on_c, 1, 60, 105
3, 103294, Note_off_c, 1, 60, 0
3, 103392, Note_on_c, 1, 60, 105
3, 103392, Note_on_c, 1, 55, 105
3, 103392, Note_on_c, 1, 52, 105
3, 103392, Note_on_c, 1, 48, 105
3, 103582, Note_off_c, 1, 60, 0
3, 103582, Note_off_c, 1, 55, 0
3, 103582, Note_off_c, 1, 52, 0
3, 103582, Note_off_c, 1, 48, 0
3, 103680, Note_on_c, 1, 60, 105
3, 103680, Note_on_c, 1, 55, 105
3, 103680, Note_on_c, 1, 52, 105
3, 103680, Note_on_c, 1, 48, 105
3, 103870, Note_off_c, 1, 60, 0
3, 103870, Note_off_c, 1, 55, 0
3, 103870, Note_off_c, 1, 52, 0
3, 103870, Note_off_c, 1, 48, 0
3, 104256, Note_on_c, 1, 48, 90
3, 104256, Note_on_c, 1, 43, 90
3, 104256, Note_on_c, 1, 40, 90
3, 104256, Note_on_c, 1, 36, 90
3, 104638, Note_off_c, 1, 48, 0
3, 104638, Note_off_c, 1, 43, 0
3, 104638, Note_off_c, 1, 40, 0
3, 104638, Note_off_c, 1, 36, 0
3, 105696, Note_on_c, 1, 51, 90
3, 105790, Note_off_c, 1, 51, 0
3, 105792, Note_on_c, 1, 50, 90
3, 105886, Note_off_c, 1, 50, 0
3, 105888, Note_on_c, 1, 51, 90
3, 105982, Note_off_c, 1, 51, 0
3, 105984, Note_on_c, 1, 53, 90
3, 106078, Note_off_c, 1, 53, 0
3, 106080, Note_on_c, 1, 51, 90
3, 106174, Note_off_c, 1, 51, 0
3, 106176, Note_on_c, 1, 53, 90
3, 106270, Note_off_c, 1, 53, 0
3, 106272, Note_on_c, 1, 55, 90
3, 106366, Note_off_c, 1, 55, 0
3, 106368, Note_on_c, 1, 53, 90
3, 106462, Note_off_c, 1, 53, 0
3, 106464, Note_on_c, 1, 55, 90
3, 106558, Note_off_c, 1, 55, 0
3, 106560, Note_on_c, 1, 56, 99
3, 106750, Note_off_c, 1, 56, 0
3, 106752, Note_on_c, 1, 55, 82
3, 106846, Note_off_c, 1, 55, 0
3, 106848, Note_on_c, 1, 56, 99
3, 107038, Note_off_c, 1, 56, 0
3, 107040, Note_on_c, 1, 55, 82
3, 107134, Note_off_c, 1, 55, 0
3, 107136, Note_on_c, 1, 54, 90
3, 107230, Note_off_c, 1, 54, 0
3, 107232, Note_on_c, 1, 55, 90
3, 107326, Note_off_c, 1, 55, 0
3, 107328, Note_on_c, 1, 54, 90
3, 107422, Note_off_c, 1, 54, 0
3, 107424, Note_on_c, 1, 55, 90
3, 107518, Note_off_c, 1, 55, 0
3, 107532, Note_on_c, 1, 56, 90
3, 107616, Note_on_c, 1, 55, 90
3, 107626, Note_off_c, 1, 56, 0
3, 107710, Note_off_c, 1, 55, 0
3, 107712, Note_on_c, 1, 54, 90
3, 107806, Note_off_c, 1, 54, 0
3, 107808, Note_on_c, 1, 55, 90
3, 107902, Note_off_c, 1, 55, 0
3, 107904, Note_on_c, 1, 54, 90
3, 107998, Note_off_c, 1, 54, 0
3, 108000, Note_on_c, 1, 55, 90
3, 108094, Note_off_c, 1, 55, 0
3, 108096, Note_on_c, 1, 56, 90
3, 108190, Note_off_c, 1, 56, 0
3, 108192, Note_on_c, 1, 55, 90
3, 108286, Note_off_c, 1, 55, 0
3, 108336, Note_on_c, 1, 54, 90
3, 108382, Note_off_c, 1, 54, 0
3, 108384, Note_on_c, 1, 57, 90
3, 108430, Note_off_c, 1, 57, 0
3, 108432, Note_on_c, 1, 60, 90
3, 108478, Note_off_c, 1, 60, 0
3, 108480, Note_on_c, 1, 62, 90
3, 108526, Note_off_c, 1, 62, 0
3, 109440, Note_on_c, 1, 55, 90
3, 109534, Note_off_c, 1, 55, 0
3, 109536, Note_on_c, 1, 56, 90
3, 109630, Note_off_c, 1, 56, 0
3, 109632, Note_on_c, 1, 55, 90
3, 109726, Note_off_c, 1, 55, 0
3, 109728, Note_on_c, 1, 56, 90
3, 109822, Note_off_c, 1, 56, 0
3, 109824, Note_on_c, 1, 58, 90
3, 109918, Note_off_c, 1, 58, 0
3, 109920, Note_on_c, 1, 56, 90
3, 110014, Note_off_c, 1, 56, 0
3, 110016, Note_on_c, 1, 55, 90
3, 110110, Note_off_c, 1, 55, 0
3, 110112, Note_on_c, 1, 56, 90
3, 110206, Note_off_c, 1, 56, 0
3, 110208, Note_on_c, 1, 55, 90
3, 110302, Note_off_c, 1, 55, 0
3, 110304, Note_on_c, 1, 56, 90
3, 110398, Note_off_c, 1, 56, 0
3, 110400, Note_on_c, 1, 58, 90
3, 110494, Note_off_c, 1, 58, 0
3, 110496, Note_on_c, 1, 56, 90
3, 110590, Note_off_c, 1, 56, 0
3, 110640, Note_on_c, 1, 55, 90
3, 110686, Note_off_c, 1, 55, 0
3, 110688, Note_on_c, 1, 59, 90
3, 110734, Note_off_c, 1, 59, 0
3, 110736, Note_on_c, 1, 62, 90
3, 110782, Note_off_c, 1, 62, 0
3, 110784, Note_on_c, 1, 65, 90
3, 110830, Note_off_c, 1, 65, 0
3, 111744, Note_on_c, 1, 60, 90
3, 111838, Note_off_c, 1, 60, 0
3, 111840, Note_on_c, 1, 59, 90
3, 111934, Note_off_c, 1, 59, 0
3, 111936, Note_on_c, 1, 60, 90
3, 112030, Note_off_c, 1, 60, 0
3, 112032, Note_on_c, 1, 61, 90
3, 112126, Note_off_c, 1, 61, 0
3, 112128, Note_on_c, 1, 60, 90
3, 112222, Note_off_c, 1, 60, 0
3, 112224, Note_on_c, 1, 59, 90
3, 112318, Note_off_c, 1, 59, 0
3, 112320, Note_on_c, 1, 60, 90
3, 112414, Note_off_c, 1, 60, 0
3, 112416, Note_on_c, 1, 59, 90
3, 112510, Note_off_c, 1, 59, 0
3, 112524, Note_on_c, 1, 60, 90
3, 112608, Note_on_c, 1, 61, 90
3, 112618, Note_off_c, 1, 60, 0
3, 112702, Note_off_c, 1, 61, 0
3, 112704, Note_on_c, 1, 60, 90
3, 112798, Note_off_c, 1, 60, 0
3, 112800, Note_on_c, 1, 59, 90
3, 112894, Note_off_c, 1, 59, 0
3, 112944, Note_on_c, 1, 48, 90
3, 112990, Note_off_c, 1, 48, 0
3, 112992, Note_on_c, 1, 52, 90
3, 113038, Note_off_c, 1, 52, 0
3, 113040, Note_on_c, 1, 55, 90
3, 113086, Note_off_c, 1, 55, 0
3, 113088, Note_on_c, 1, 58, 90
3, 113134, Note_off_c, 1, 58, 0
3, 114048, Note_on_c, 1, 57, 90
3, 114142, Note_off_c, 1, 57, 0
3, 114144, Note_on_c, 1, 58, 90
3, 114238, Note_off_c, 1, 58, 0
3, 114240, Note_on_c, 1, 57, 90
3, 114334, Note_off_c, 1, 57, 0
3, 114336, Note_on_c, 1, 58, 90
3, 114430, Note_off_c, 1, 58, 0
3, 114432, Note_on_c, 1, 59, 90
3, 114526, Note_off_c, 1, 59, 0
3, 114528, Note_on_c, 1, 58, 90
3, 114622, Note_off_c, 1, 58, 0
3, 114624, Note_on_c, 1, 57, 90
3, 114718, Note_off_c, 1, 57, 0
3, 114720, Note_on_c, 1, 58, 90
3, 114814, Note_off_c, 1, 58, 0
3, 114816, Note_on_c, 1, 57, 90
3, 114910, Note_off_c, 1, 57, 0
3, 114912, Note_on_c, 1, 58, 90
3, 115006, Note_off_c, 1, 58, 0
3, 115008, Note_on_c, 1, 59, 90
3, 115102, Note_off_c, 1, 59, 0
3, 115104, Note_on_c, 1, 58, 90
3, 115198, Note_off_c, 1, 58, 0
3, 115248, Note_on_c, 1, 57, 90
3, 115294, Note_off_c, 1, 57, 0
3, 115296, Note_on_c, 1, 60, 90
3, 115342, Note_off_c, 1, 60, 0
3, 115344, Note_on_c, 1, 63, 90
3, 115390, Note_off_c, 1, 63, 0
3, 115392, Note_on_c, 1, 65, 90
3, 115438, Note_off_c, 1, 65, 0
3, 116352, Note_on_c, 1, 58, 60
3, 116446, Note_off_c, 1, 58, 0
3, 116448, Note_on_c, 1, 62, 60
3, 116542, Note_off_c, 1, 62, 0
3, 116544, Note_on_c, 1, 65, 60
3, 116638, Note_off_c, 1, 65, 0
3, 116640, Note_on_c, 1, 57, 60
3, 116734, Note_off_c, 1, 57, 0
3, 116736, Note_on_c, 1, 60, 60
3, 116830, Note_off_c, 1, 60, 0
3, 116832, Note_on_c, 1, 65, 60
3, 116926, Note_off_c, 1, 65, 0
3, 116928, Note_on_c, 1, 55, 90
3, 116928, Note_on_c, 1, 55, 90
3, 117022, Note_off_c, 1, 55, 0
3, 117024, Note_on_c, 1, 58, 60
3, 117118, Note_off_c, 1, 55, 0
3, 117118, Note_off_c, 1, 58, 0
3, 117120, Note_on_c, 1, 63, 60
3, 117214, Note_off_c, 1, 63, 0
3, 117216, Note_on_c, 1, 54, 60
3, 117310, Note_off_c, 1, 54, 0
3, 117312, Note_on_c, 1, 57, 60
3, 117406, Note_off_c, 1, 57, 0
3, 117408, Note_on_c, 1, 62, 60
3, 117502, Note_off_c, 1, 62, 0
3, 117504, Note_on_c, 1, 55, 60
3, 117598, Note_off_c, 1, 55, 0
3, 117600, Note_on_c, 1, 58, 60
3, 117694, Note_off_c, 1, 58, 0
3, 117696, Note_on_c, 1, 63, 60
3, 117790, Note_off_c, 1, 63, 0
3, 117792, Note_on_c, 1, 53, 60
3, 117886, Note_off_c, 1, 53, 0
3, 117888, Note_on_c, 1, 57, 60
3, 117982, Note_off_c, 1, 57, 0
3, 117984, Note_on_c, 1, 62, 60
3, 118078, Note_off_c, 1, 62, 0
3, 118080, Note_on_c, 1, 51, 90
3, 118080, Note_on_c, 1, 51, 90
3, 118174, Note_off_c, 1, 51, 0
3, 118176, Note_on_c, 1, 55, 60
3, 118270, Note_off_c, 1, 51, 0
3, 118270, Note_off_c, 1, 55, 0
3, 118272, Note_on_c, 1, 60, 60
3, 118366, Note_off_c, 1, 60, 0
3, 118368, Note_on_c, 1, 50, 60
3, 118462, Note_off_c, 1, 50, 0
3, 118464, Note_on_c, 1, 53, 60
3, 118558, Note_off_c, 1, 53, 0
3, 118560, Note_on_c, 1, 58, 60
3, 118654, Note_off_c, 1, 58, 0
3, 118656, Note_on_c, 1, 48, 60
3, 118750, Note_off_c, 1, 48, 0
3, 118752, Note_on_c, 1, 55, 60
3, 118846, Note_off_c, 1, 55, 0
3, 118848, Note_on_c, 1, 58, 60
3, 118942, Note_off_c, 1, 58, 0
3, 118944, Note_on_c, 1, 53, 60
3, 119038, Note_off_c, 1, 53, 0
3, 119040, Note_on_c, 1, 57, 60
3, 119134, Note_off_c, 1, 57, 0
3, 119136, Note_on_c, 1, 60, 60
3, 119230, Note_off_c, 1, 60, 0
3, 119232, Note_on_c, 1, 46, 60
3, 119326, Note_off_c, 1, 46, 0
3, 119328, Note_on_c, 1, 53, 60
3, 119422, Note_off_c, 1, 53, 0
3, 119424, Note_on_c, 1, 58, 60
3, 119518, Note_off_c, 1, 58, 0
3, 119520, Note_on_c, 1, 54, 60
3, 119614, Note_off_c, 1, 54, 0
3, 119616, Note_on_c, 1, 58, 64
3, 119710, Note_off_c, 1, 58, 0
3, 119712, Note_on_c, 1, 61, 69
3, 119806, Note_off_c, 1, 61, 0
3, 119808, Note_on_c, 1, 51, 72
3, 119902, Note_off_c, 1, 51, 0
3, 119904, Note_on_c, 1, 54, 73
3, 119998, Note_off_c, 1, 54, 0
3, 120000, Note_on_c, 1, 58, 75
3, 120094, Note_off_c, 1, 58, 0
3, 120096, Note_on_c, 1, 52, 76
3, 120190, Note_off_c, 1, 52, 0
3, 120192, Note_on_c, 1, 55, 78
3, 120286, Note_off_c, 1, 55, 0
3, 120288, Note_on_c, 1, 61, 79
3, 120382, Note_off_c, 1, 61, 0
3, 120384, Note_on_c, 1, 53, 81
3, 120478, Note_off_c, 1, 53, 0
3, 120480, Note_on_c, 1, 57, 82
3, 120574, Note_off_c, 1, 57, 0
3, 120576, Note_on_c, 1, 60, 84
3, 120670, Note_off_c, 1, 60, 0
3, 120672, Note_on_c, 1, 53, 85
3, 120766, Note_off_c, 1, 53, 0
3, 120768, Note_on_c, 1, 51, 87
3, 120862, Note_off_c, 1, 51, 0
3, 120864, Note_on_c, 1, 48, 88
3, 120958, Note_off_c, 1, 48, 0
3, 120960, Note_on_c, 1, 58, 90
3, 120960, Note_on_c, 1, 46, 90
3, 121150, Note_off_c, 1, 58, 0
3, 121150, Note_off_c, 1, 46, 0
3, 121248, Note_on_c, 1, 57, 90
3, 121248, Note_on_c, 1, 45, 90
3, 121438, Note_off_c, 1, 57, 0
3, 121438, Note_off_c, 1, 45, 0
3, 121536, Note_on_c, 1, 55, 90
3, 121536, Note_on_c, 1, 43, 90
3, 121822, Note_off_c, 1, 55, 0
3, 121822, Note_off_c, 1, 43, 0
3, 121824, Note_on_c, 1, 55, 90
3, 121824, Note_on_c, 1, 43, 90
3, 122014, Note_off_c, 1, 55, 0
3, 122014, Note_off_c, 1, 43, 0
3, 122016, Note_on_c, 1, 54, 90
3, 122016, Note_on_c, 1, 42, 90
3, 122110, Note_off_c, 1, 54, 0
3, 122110, Note_off_c, 1, 42, 0
3, 122112, Note_on_c, 1, 55, 90
3, 122112, Note_on_c, 1, 43, 90
3, 122302, Note_off_c, 1, 55, 0
3, 122302, Note_off_c, 1, 43, 0
3, 122400, Note_on_c, 1, 53, 90
3, 122400, Note_on_c, 1, 41, 90
3, 122590, Note_off_c, 1, 53, 0
3, 122590, Note_off_c, 1, 41, 0
3, 122688, Note_on_c, 1, 52, 90
3, 122688, Note_on_c, 1, 40, 90
3, 122974, Note_off_c, 1, 52, 0
3, 122974, Note_off_c, 1, 40, 0
3, 122976, Note_on_c, 1, 52, 90
3, 122976, Note_on_c, 1, 40, 90
3, 123166, Note_off_c, 1, 52, 0
3, 123166, Note_off_c, 1, 40, 0
3, 123168, Note_on_c, 1, 50, 90
3, 123168, Note_on_c, 1, 38, 90
3, 123262, Note_off_c, 1, 50, 0
3, 123262, Note_off_c, 1, 38, 0
3, 123264, Note_on_c, 1, 48, 90
3, 123310, Note_off_c, 1, 48, 0
3, 123312, Note_on_c, 1, 55, 90
3, 123358, Note_off_c, 1, 55, 0
3, 123360, Note_on_c, 1, 58, 90
3, 123406, Note_off_c, 1, 58, 0
3, 123552, Note_on_c, 1, 54, 90
3, 123598, Note_off_c, 1, 54, 0
3, 123600, Note_on_c, 1, 57, 90
3, 123646, Note_off_c, 1, 57, 0
3, 123648, Note_on_c, 1, 60, 90
3, 123694, Note_off_c, 1, 60, 0
3, 123840, Note_on_c, 1, 55, 90
3, 123886, Note_off_c, 1, 55, 0
3, 123888, Note_on_c, 1, 58, 90
3, 123934, Note_off_c, 1, 58, 0
3, 123936, Note_on_c, 1, 62, 90
3, 123982, Note_off_c, 1, 62, 0
3, 124128, Note_on_c, 1, 51, 90
3, 124174, Note_off_c, 1, 51, 0
3, 124176, Note_on_c, 1, 55, 90
3, 124222, Note_off_c, 1, 55, 0
3, 124224, Note_on_c, 1, 60, 90
3, 124270, Note_off_c, 1, 60, 0
3, 124416, Note_on_c, 1, 41, 90
3, 124462, Note_off_c, 1, 41, 0
3, 124464, Note_on_c, 1, 50, 90
3, 124510, Note_off_c, 1, 50, 0
3, 124512, Note_on_c, 1, 53, 90
3, 124558, Note_off_c, 1, 53, 0
3, 124704, Note_on_c, 1, 41, 90
3, 124750, Note_off_c, 1, 41, 0
3, 124752, Note_on_c, 1, 48, 90
3, 124798, Note_off_c, 1, 48, 0
3, 124800, Note_on_c, 1, 53, 90
3, 124846, Note_off_c, 1, 53, 0
3, 124992, Note_on_c, 1, 34, 105
3, 125278, Note_off_c, 1, 34, 0
3, 125280, Note_on_c, 1, 34, 100
3, 125374, Note_off_c, 1, 34, 0
3, 125376, Note_on_c, 1, 38, 97
3, 125470, Note_off_c, 1, 38, 0
3, 125472, Note_on_c, 1, 41, 90
3, 125566, Note_off_c, 1, 41, 0
3, 125568, Note_on_c, 1, 46, 66
3, 125664, Note_on_c, 1, 50, 64
3, 125758, Note_off_c, 1, 50, 0
3, 125760, Note_on_c, 1, 53, 63
3, 125854, Note_off_c, 1, 53, 0
3, 125856, Note_on_c, 1, 58, 61
3, 125950, Note_off_c, 1, 58, 0
3, 126142, Note_off_c, 1, 46, 0
3, 126144, Note_on_c, 1, 51, 60
3, 126144, Note_on_c, 1, 48, 60
3, 126144, Note_on_c, 1, 45, 60
3, 126718, Note_off_c, 1, 51, 0
3, 126718, Note_off_c, 1, 48, 0
3, 126718, Note_off_c, 1, 45, 0
3, 126720, Note_on_c, 1, 54, 60
3, 126720, Note_on_c, 1, 48, 60
3, 126720, Note_on_c, 1, 45, 60
3, 127294, Note_off_c, 1, 54, 0
3, 127294, Note_off_c, 1, 48, 0
3, 127294, Note_off_c, 1, 45, 0
3, 127296, Note_on_c, 1, 55, 60
3, 127296, Note_on_c, 1, 50, 60
3, 127296, Note_on_c, 1, 46, 60
3, 127870, Note_off_c, 1, 55, 0
3, 127870, Note_off_c, 1, 50, 0
3, 127870, Note_off_c, 1, 46, 0
3, 127872, Note_on_c, 1, 55, 60
3, 127872, Note_on_c, 1, 50, 60
3, 127872, Note_on_c, 1, 46, 60
3, 128446, Note_off_c, 1, 55, 0
3, 128446, Note_off_c, 1, 50, 0
3, 128446, Note_off_c, 1, 46, 0
3, 128448, Note_on_c, 1, 58, 45
3, 128448, Note_on_c, 1, 62, 45
3, 128638, Note_off_c, 1, 58, 0
3, 128638, Note_off_c, 1, 62, 0
3, 128736, Note_on_c, 1, 58, 45
3, 128736, Note_on_c, 1, 62, 45
3, 128926, Note_off_c, 1, 58, 0
3, 128926, Note_off_c, 1, 62, 0
3, 129024, Note_on_c, 1, 58, 45
3, 129024, Note_on_c, 1, 60, 45
3, 129214, Note_off_c, 1, 58, 0
3, 129214, Note_off_c, 1, 60, 0
3, 129312, Note_on_c, 1, 58, 45
3, 129312, Note_on_c, 1, 60, 45
3, 129502, Note_off_c, 1, 58, 0
3, 129502, Note_off_c, 1, 60, 0
3, 129600, Note_on_c, 1, 56, 90
3, 129600, Note_on_c, 1, 44, 90
3, 130174, Note_off_c, 1, 56, 0
3, 130174, Note_off_c, 1, 44, 0
3, 130176, Note_on_c, 1, 57, 90
3, 130176, Note_on_c, 1, 45, 90
3, 130750, Note_off_c, 1, 57, 0
3, 130750, Note_off_c, 1, 45, 0
3, 131904, Note_on_c, 1, 60, 90
3, 131904, Note_on_c, 1, 48, 90
3, 132094, Note_off_c, 1, 60, 0
3, 132094, Note_off_c, 1, 48, 0
3, 132168, Note_on_c, 1, 60, 90
3, 132168, Note_on_c, 1, 48, 90
3, 132358, Note_off_c, 1, 60, 0
3, 132358, Note_off_c, 1, 48, 0
3, 132480, Note_on_c, 1, 60, 90
3, 132480, Note_on_c, 1, 48, 90
3, 132670, Note_off_c, 1, 60, 0
3, 132670, Note_off_c, 1, 48, 0
3, 132744, Note_on_c, 1, 60, 93
3, 132744, Note_on_c, 1, 48, 93
3, 132934, Note_off_c, 1, 60, 0
3, 132934, Note_off_c, 1, 48, 0
3, 133056, Note_on_c, 1, 60, 96
3, 133056, Note_on_c, 1, 48, 96
3, 133246, Note_off_c, 1, 60, 0
3, 133246, Note_off_c, 1, 48, 0
3, 133320, Note_on_c, 1, 60, 99
3, 133320, Note_on_c, 1, 48, 99
3, 133510, Note_off_c, 1, 60, 0
3, 133510, Note_off_c, 1, 48, 0
3, 133632, Note_on_c, 1, 36, 105
3, 133726, Note_off_c, 1, 36, 0
3, 133728, Note_on_c, 1, 40, 105
3, 133822, Note_off_c, 1, 40, 0
3, 133824, Note_on_c, 1, 43, 105
3, 133918, Note_off_c, 1, 43, 0
3, 133920, Note_on_c, 1, 48, 105
3, 134014, Note_off_c, 1, 48, 0
3, 134016, Note_on_c, 1, 52, 105
3, 134110, Note_off_c, 1, 52, 0
3, 134112, Note_on_c, 1, 55, 105
3, 134206, Note_off_c, 1, 55, 0
3, 134208, Note_on_c, 1, 60, 90
3, 134302, Note_off_c, 1, 60, 0
3, 135936, Note_on_c, 1, 60, 90
3, 135982, Note_off_c, 1, 60, 0
3, 135984, Note_on_c, 1, 61, 90
3, 136030, Note_off_c, 1, 61, 0
3, 136032, Note_on_c, 1, 62, 90
3, 136078, Note_off_c, 1, 62, 0
3, 136080, Note_on_c, 1, 60, 90
3, 136126, Note_off_c, 1, 60, 0
3, 136128, Note_on_c, 1, 58, 90
3, 136174, Note_off_c, 1, 58, 0
3, 136176, Note_on_c, 1, 57, 90
3, 136222, Note_off_c, 1, 57, 0
3, 136224, Note_on_c, 1, 55, 90
3, 136270, Note_off_c, 1, 55, 0
3, 136272, Note_on_c, 1, 57, 90
3, 136318, Note_off_c, 1, 57, 0
3, 136320, Note_on_c, 1, 58, 90
3, 136366, Note_off_c, 1, 58, 0
3, 136368, Note_on_c, 1, 57, 90
3, 136414, Note_off_c, 1, 57, 0
3, 136416, Note_on_c, 1, 55, 90
3, 136462, Note_off_c, 1, 55, 0
3, 136464, Note_on_c, 1, 53, 90
3, 136510, Note_off_c, 1, 53, 0
3, 136512, Note_on_c, 1, 52, 90
3, 136558, Note_off_c, 1, 52, 0
3, 136560, Note_on_c, 1, 53, 90
3, 136606, Note_off_c, 1, 53, 0
3, 136608, Note_on_c, 1, 55, 90
3, 136654, Note_off_c, 1, 55, 0
3, 136656, Note_on_c, 1, 53, 90
3, 136702, Note_off_c, 1, 53, 0
3, 136704, Note_on_c, 1, 52, 90
3, 136750, Note_off_c, 1, 52, 0
3, 136752, Note_on_c, 1, 50, 90
3, 136798, Note_off_c, 1, 50, 0
3, 136800, Note_on_c, 1, 48, 90
3, 136846, Note_off_c, 1, 48, 0
3, 136848, Note_on_c, 1, 50, 90
3, 136894, Note_off_c, 1, 50, 0
3, 136896, Note_on_c, 1, 48, 90
3, 136942, Note_off_c, 1, 48, 0
3, 136944, Note_on_c, 1, 46, 90
3, 136990, Note_off_c, 1, 46, 0
3, 136992, Note_on_c, 1, 45, 90
3, 137038, Note_off_c, 1, 45, 0
3, 137040, Note_on_c, 1, 43, 90
3, 137086, Note_off_c, 1, 43, 0
3, 137088, Note_on_c, 1, 53, 90
3, 137088, Note_on_c, 1, 48, 90
3, 137088, Note_on_c, 1, 45, 90
3, 137088, Note_on_c, 1, 41, 90
3, 137470, Note_off_c, 1, 53, 0
3, 137470, Note_off_c, 1, 48, 0
3, 137470, Note_off_c, 1, 45, 0
3, 137470, Note_off_c, 1, 41, 0
3, 138528, Note_on_c, 1, 57, 90
3, 138622, Note_off_c, 1, 57, 0
3, 138624, Note_on_c, 1, 55, 90
3, 138718, Note_off_c, 1, 55, 0
3, 138720, Note_on_c, 1, 57, 90
3, 138814, Note_off_c, 1, 57, 0
3, 138816, Note_on_c, 1, 58, 90
3, 138910, Note_off_c, 1, 58, 0
3, 138912, Note_on_c, 1, 57, 90
3, 139006, Note_off_c, 1, 57, 0
3, 139008, Note_on_c, 1, 58, 90
3, 139102, Note_off_c, 1, 58, 0
3, 139104, Note_on_c, 1, 60, 90
3, 139198, Note_off_c, 1, 60, 0
3, 139200, Note_on_c, 1, 58, 90
3, 139294, Note_off_c, 1, 58, 0
3, 139296, Note_on_c, 1, 60, 90
3, 139390, Note_off_c, 1, 60, 0
3, 139392, Note_on_c, 1, 61, 99
3, 139582, Note_off_c, 1, 61, 0
3, 139584, Note_on_c, 1, 60, 82
3, 139678, Note_off_c, 1, 60, 0
3, 139680, Note_on_c, 1, 61, 99
3, 139870, Note_off_c, 1, 61, 0
3, 139872, Note_on_c, 1, 60, 82
3, 139966, Note_off_c, 1, 60, 0
3, 139968, Note_on_c, 1, 59, 60
3, 140062, Note_off_c, 1, 59, 0
3, 140064, Note_on_c, 1, 59, 60
3, 140158, Note_off_c, 1, 59, 0
3, 140160, Note_on_c, 1, 59, 60
3, 140254, Note_off_c, 1, 59, 0
3, 140256, Note_on_c, 1, 60, 60
3, 140350, Note_off_c, 1, 60, 0
3, 140544, Note_on_c, 1, 53, 90
3, 140544, Note_on_c, 1, 48, 90
3, 140544, Note_on_c, 1, 45, 90
3, 140544, Note_on_c, 1, 41, 90
3, 140926, Note_off_c, 1, 53, 0
3, 140926, Note_off_c, 1, 48, 0
3, 140926, Note_off_c, 1, 45, 0
3, 140926, Note_off_c, 1, 41, 0
3, 141984, Note_on_c, 1, 57, 90
3, 142078, Note_off_c, 1, 57, 0
3, 142080, Note_on_c, 1, 55, 90
3, 142174, Note_off_c, 1, 55, 0
3, 142176, Note_on_c, 1, 57, 90
3, 142270, Note_off_c, 1, 57, 0
3, 142272, Note_on_c, 1, 58, 90
3, 142366, Note_off_c, 1, 58, 0
3, 142368, Note_on_c, 1, 57, 90
3, 142462, Note_off_c, 1, 57, 0
3, 142464, Note_on_c, 1, 58, 90
3, 142558, Note_off_c, 1, 58, 0
3, 142560, Note_on_c, 1, 60, 90
3, 142654, Note_off_c, 1, 60, 0
3, 142656, Note_on_c, 1, 58, 90
3, 142750, Note_off_c, 1, 58, 0
3, 142752, Note_on_c, 1, 60, 90
3, 142846, Note_off_c, 1, 60, 0
3, 142848, Note_on_c, 1, 61, 99
3, 143038, Note_off_c, 1, 61, 0
3, 143040, Note_on_c, 1, 60, 82
3, 143134, Note_off_c, 1, 60, 0
3, 143136, Note_on_c, 1, 61, 99
3, 143326, Note_off_c, 1, 61, 0
3, 143328, Note_on_c, 1, 60, 82
3, 143422, Note_off_c, 1, 60, 0
3, 143424, Note_on_c, 1, 59, 60
3, 143518, Note_off_c, 1, 59, 0
3, 143712, Note_on_c, 1, 58, 60
3, 143806, Note_off_c, 1, 58, 0
3, 144000, Note_on_c, 1, 57, 60
3, 144094, Note_off_c, 1, 57, 0
3, 144288, Note_on_c, 1, 46, 90
3, 144334, Note_off_c, 1, 46, 0
3, 144336, Note_on_c, 1, 58, 90
3, 144382, Note_off_c, 1, 58, 0
3, 144576, Note_on_c, 1, 58, 90
3, 144576, Note_on_c, 1, 55, 90
3, 144576, Note_on_c, 1, 48, 90
3, 144862, Note_off_c, 1, 58, 0
3, 144862, Note_off_c, 1, 55, 0
3, 144862, Note_off_c, 1, 48, 0
3, 144864, Note_on_c, 1, 53, 90
3, 144864, Note_on_c, 1, 57, 90
3, 144958, Note_off_c, 1, 53, 0
3, 144958, Note_off_c, 1, 57, 0
3, 145152, Note_on_c, 1, 48, 45
3, 145246, Note_off_c, 1, 48, 0
3, 145248, Note_on_c, 1, 58, 45
3, 145248, Note_on_c, 1, 60, 45
3, 145342, Note_off_c, 1, 58, 0
3, 145342, Note_off_c, 1, 60, 0
3, 145344, Note_on_c, 1, 58, 45
3, 145344, Note_on_c, 1, 60, 45
3, 145438, Note_off_c, 1, 58, 0
3, 145438, Note_off_c, 1, 60, 0
3, 145440, Note_on_c, 1, 58, 45
3, 145440, Note_on_c, 1, 60, 45
3, 145534, Note_off_c, 1, 58, 0
3, 145534, Note_off_c, 1, 60, 0
3, 145536, Note_on_c, 1, 58, 45
3, 145536, Note_on_c, 1, 60, 45
3, 145630, Note_off_c, 1, 58, 0
3, 145630, Note_off_c, 1, 60, 0
3, 145632, Note_on_c, 1, 58, 45
3, 145632, Note_on_c, 1, 60, 45
3, 145726, Note_off_c, 1, 58, 0
3, 145726, Note_off_c, 1, 60, 0
3, 145728, Note_on_c, 1, 53, 45
3, 145822, Note_off_c, 1, 53, 0
3, 145824, Note_on_c, 1, 57, 45
3, 145824, Note_on_c, 1, 60, 45
3, 145918, Note_off_c, 1, 57, 0
3, 145918, Note_off_c, 1, 60, 0
3, 145920, Note_on_c, 1, 57, 45
3, 145920, Note_on_c, 1, 60, 45
3, 146014, Note_off_c, 1, 57, 0
3, 146014, Note_off_c, 1, 60, 0
3, 146016, Note_on_c, 1, 57, 45
3, 146016, Note_on_c, 1, 60, 45
3, 146110, Note_off_c, 1, 57, 0
3, 146110, Note_off_c, 1, 60, 0
3, 146112, Note_on_c, 1, 57, 45
3, 146112, Note_on_c, 1, 60, 45
3, 146206, Note_off_c, 1, 57, 0
3, 146206, Note_off_c, 1, 60, 0
3, 146208, Note_on_c, 1, 57, 45
3, 146208, Note_on_c, 1, 60, 45
3, 146302, Note_off_c, 1, 57, 0
3, 146302, Note_off_c, 1, 60, 0
3, 146304, Note_on_c, 1, 48, 45
3, 146398, Note_off_c, 1, 48, 0
3, 146400, Note_on_c, 1, 55, 45
3, 146400, Note_on_c, 1, 60, 45
3, 146494, Note_off_c, 1, 55, 0
3, 146494, Note_off_c, 1, 60, 0
3, 146496, Note_on_c, 1, 55, 45
3, 146496, Note_on_c, 1, 60, 45
3, 146590, Note_off_c, 1, 55, 0
3, 146590, Note_off_c, 1, 60, 0
3, 146592, Note_on_c, 1, 55, 45
3, 146592, Note_on_c, 1, 60, 45
3, 146686, Note_off_c, 1, 55, 0
3, 146686, Note_off_c, 1, 60, 0
3, 146688, Note_on_c, 1, 55, 45
3, 146688, Note_on_c, 1, 60, 45
3, 146782, Note_off_c, 1, 55, 0
3, 146782, Note_off_c, 1, 60, 0
3, 146784, Note_on_c, 1, 55, 45
3, 146784, Note_on_c, 1, 60, 45
3, 146878, Note_off_c, 1, 55, 0
3, 146878, Note_off_c, 1, 60, 0
3, 146880, Note_on_c, 1, 53, 45
3, 146974, Note_off_c, 1, 53, 0
3, 146976, Note_on_c, 1, 57, 45
3, 146976, Note_on_c, 1, 60, 45
3, 147070, Note_off_c, 1, 57, 0
3, 147070, Note_off_c, 1, 60, 0
3, 147072, Note_on_c, 1, 57, 45
3, 147072, Note_on_c, 1, 60, 45
3, 147166, Note_off_c, 1, 57, 0
3, 147166, Note_off_c, 1, 60, 0
3, 147168, Note_on_c, 1, 57, 45
3, 147168, Note_on_c, 1, 60, 45
3, 147262, Note_off_c, 1, 57, 0
3, 147262, Note_off_c, 1, 60, 0
3, 147264, Note_on_c, 1, 57, 45
3, 147264, Note_on_c, 1, 60, 45
3, 147358, Note_off_c, 1, 57, 0
3, 147358, Note_off_c, 1, 60, 0
3, 147360, Note_on_c, 1, 57, 45
3, 147360, Note_on_c, 1, 60, 45
3, 147454, Note_off_c, 1, 57, 0
3, 147454, Note_off_c, 1, 60, 0
3, 147456, Note_on_c, 1, 48, 45
3, 147550, Note_off_c, 1, 48, 0
3, 147552, Note_on_c, 1, 58, 45
3, 147552, Note_on_c, 1, 60, 45
3, 147646, Note_off_c, 1, 58, 0
3, 147646, Note_off_c, 1, 60, 0
3, 147648, Note_on_c, 1, 58, 45
3, 147648, Note_on_c, 1, 60, 45
3, 147742, Note_off_c, 1, 58, 0
3, 147742, Note_off_c, 1, 60, 0
3, 147744, Note_on_c, 1, 58, 45
3, 147744, Note_on_c, 1, 60, 45
3, 147838, Note_off_c, 1, 58, 0
3, 147838, Note_off_c, 1, 60, 0
3, 147840, Note_on_c, 1, 58, 45
3, 147840, Note_on_c, 1, 60, 45
3, 147934, Note_off_c, 1, 58, 0
3, 147934, Note_off_c, 1, 60, 0
3, 147936, Note_on_c, 1, 58, 45
3, 147936, Note_on_c, 1, 60, 45
3, 148030, Note_off_c, 1, 58, 0
3, 148030, Note_off_c, 1, 60, 0
3, 148032, Note_on_c, 1, 53, 60
3, 148126, Note_off_c, 1, 53, 0
3, 148128, Note_on_c, 1, 57, 60
3, 148128, Note_on_c, 1, 60, 60
3, 148222, Note_off_c, 1, 57, 0
3, 148222, Note_off_c, 1, 60, 0
3, 148224, Note_on_c, 1, 57, 60
3, 148224, Note_on_c, 1, 60, 60
3, 148318, Note_off_c, 1, 57, 0
3, 148318, Note_off_c, 1, 60, 0
3, 148320, Note_on_c, 1, 57, 60
3, 148320, Note_on_c, 1, 60, 60
3, 148414, Note_off_c, 1, 57, 0
3, 148414, Note_off_c, 1, 60, 0
3, 148416, Note_on_c, 1, 57, 60
3, 148416, Note_on_c, 1, 60, 60
3, 148510, Note_off_c, 1, 57, 0
3, 148510, Note_off_c, 1, 60, 0
3, 148512, Note_on_c, 1, 57, 60
3, 148512, Note_on_c, 1, 60, 60
3, 148606, Note_off_c, 1, 57, 0
3, 148606, Note_off_c, 1, 60, 0
3, 148608, Note_on_c, 1, 48, 60
3, 148702, Note_off_c, 1, 48, 0
3, 148704, Note_on_c, 1, 55, 60
3, 148704, Note_on_c, 1, 60, 60
3, 148798, Note_off_c, 1, 55, 0
3, 148798, Note_off_c, 1, 60, 0
3, 148800, Note_on_c, 1, 55, 60
3, 148800, Note_on_c, 1, 60, 60
3, 148894, Note_off_c, 1, 55, 0
3, 148894, Note_off_c, 1, 60, 0
3, 148896, Note_on_c, 1, 58, 60
3, 148896, Note_on_c, 1, 60, 60
3, 148990, Note_off_c, 1, 58, 0
3, 148990, Note_off_c, 1, 60, 0
3, 148992, Note_on_c, 1, 58, 60
3, 148992, Note_on_c, 1, 60, 60
3, 149086, Note_off_c, 1, 58, 0
3, 149086, Note_off_c, 1, 60, 0
3, 149088, Note_on_c, 1, 58, 60
3, 149088, Note_on_c, 1, 60, 60
3, 149182, Note_off_c, 1, 58, 0
3, 149182, Note_off_c, 1, 60, 0
3, 149184, Note_on_c, 1, 60, 60
3, 149184, Note_on_c, 1, 57, 60
3, 149184, Note_on_c, 1, 53, 60
3, 149278, Note_off_c, 1, 60, 0
3, 149278, Note_off_c, 1, 57, 0
3, 149278, Note_off_c, 1, 53, 0
3, 149472, Note_on_c, 1, 61, 90
3, 149472, Note_on_c, 1, 55, 90
3, 149472, Note_on_c, 1, 51, 90
3, 149758, Note_off_c, 1, 61, 0
3, 149758, Note_off_c, 1, 55, 0
3, 149758, Note_off_c, 1, 51, 0
3, 149760, Note_on_c, 1, 62, 90
3, 149760, Note_on_c, 1, 54, 90
3, 149760, Note_on_c, 1, 50, 90
3, 150238, Note_off_c, 1, 62, 0
3, 150238, Note_off_c, 1, 54, 0
3, 150238, Note_off_c, 1, 50, 0
3, 150336, Note_on_c, 1, 62, 90
3, 150336, Note_on_c, 1, 50, 90
3, 150622, Note_off_c, 1, 62, 0
3, 150622, Note_off_c, 1, 50, 0
3, 150624, Note_on_c, 1, 62, 90
3, 150624, Note_on_c, 1, 48, 90
3, 150910, Note_off_c, 1, 62, 0
3, 150910, Note_off_c, 1, 48, 0
3, 150912, Note_on_c, 1, 58, 90
3, 150912, Note_on_c, 1, 46, 90
3, 151198, Note_off_c, 1, 58, 0
3, 151198, Note_off_c, 1, 46, 0
3, 151200, Note_on_c, 1, 57, 90
3, 151200, Note_on_c, 1, 45, 90
3, 151486, Note_off_c, 1, 57, 0
3, 151486, Note_off_c, 1, 45, 0
3, 151488, Note_on_c, 1, 55, 90
3, 151582, Note_off_c, 1, 55, 0
3, 151584, Note_on_c, 1, 58, 90
3, 151678, Note_off_c, 1, 58, 0
3, 151680, Note_on_c, 1, 62, 90
3, 151774, Note_off_c, 1, 62, 0
3, 151776, Note_on_c, 1, 54, 90
3, 151870, Note_off_c, 1, 54, 0
3, 151872, Note_on_c, 1, 57, 90
3, 151966, Note_off_c, 1, 57, 0
3, 151968, Note_on_c, 1, 62, 90
3, 152062, Note_off_c, 1, 62, 0
3, 152064, Note_on_c, 1, 55, 90
3, 152158, Note_off_c, 1, 55, 0
3, 152160, Note_on_c, 1, 58, 90
3, 152254, Note_off_c, 1, 58, 0
3, 152256, Note_on_c, 1, 62, 90
3, 152350, Note_off_c, 1, 62, 0
3, 152352, Note_on_c, 1, 53, 90
3, 152446, Note_off_c, 1, 53, 0
3, 152448, Note_on_c, 1, 59, 90
3, 152542, Note_off_c, 1, 59, 0
3, 152544, Note_on_c, 1, 62, 90
3, 152638, Note_off_c, 1, 62, 0
3, 152640, Note_on_c, 1, 52, 90
3, 152830, Note_off_c, 1, 52, 0
3, 155520, Note_on_c, 1, 46, 90
3, 155614, Note_off_c, 1, 46, 0
3, 155616, Note_on_c, 1, 58, 90
3, 155710, Note_off_c, 1, 58, 0
3, 155808, Note_on_c, 1, 52, 90
3, 155902, Note_off_c, 1, 52, 0
3, 155904, Note_on_c, 1, 64, 90
3, 155998, Note_off_c, 1, 64, 0
3, 156096, Note_on_c, 1, 45, 90
3, 156190, Note_off_c, 1, 45, 0
3, 156192, Note_on_c, 1, 57, 90
3, 156286, Note_off_c, 1, 57, 0
3, 156384, Note_on_c, 1, 50, 90
3, 156478, Note_off_c, 1, 50, 0
3, 156480, Note_on_c, 1, 62, 90
3, 156574, Note_off_c, 1, 62, 0
3, 156672, Note_on_c, 1, 43, 90
3, 156766, Note_off_c, 1, 43, 0
3, 156768, Note_on_c, 1, 45, 90
3, 156862, Note_off_c, 1, 45, 0
3, 156864, Note_on_c, 1, 46, 90
3, 156958, Note_off_c, 1, 46, 0
3, 156960, Note_on_c, 1, 48, 90
3, 157054, Note_off_c, 1, 48, 0
3, 157056, Note_on_c, 1, 50, 90
3, 157150, Note_off_c, 1, 50, 0
3, 157152, Note_on_c, 1, 52, 90
3, 157246, Note_off_c, 1, 52, 0
3, 157248, Note_on_c, 1, 53, 90
3, 157342, Note_off_c, 1, 53, 0
3, 157440, Note_on_c, 1, 45, 90
3, 157534, Note_off_c, 1, 45, 0
3, 157536, Note_on_c, 1, 46, 90
3, 157630, Note_off_c, 1, 46, 0
3, 157728, Note_on_c, 1, 47, 90
3, 157822, Note_off_c, 1, 47, 0
3, 157824, Note_on_c, 1, 48, 90
3, 157918, Note_off_c, 1, 48, 0
3, 158160, Note_on_c, 1, 62, 90
3, 158206, Note_off_c, 1, 62, 0
3, 158208, Note_on_c, 1, 60, 90
3, 158254, Note_off_c, 1, 60, 0
3, 158256, Note_on_c, 1, 58, 90
3, 158302, Note_off_c, 1, 58, 0
3, 158304, Note_on_c, 1, 57, 90
3, 158350, Note_off_c, 1, 57, 0
3, 158352, Note_on_c, 1, 55, 90
3, 158398, Note_off_c, 1, 55, 0
3, 158400, Note_on_c, 1, 53, 60
3, 158494, Note_off_c, 1, 53, 0
3, 158496, Note_on_c, 1, 56, 60
3, 158590, Note_off_c, 1, 56, 0
3, 158592, Note_on_c, 1, 60, 60
3, 158686, Note_off_c, 1, 60, 0
3, 158688, Note_on_c, 1, 53, 60
3, 158782, Note_off_c, 1, 53, 0
3, 158784, Note_on_c, 1, 56, 60
3, 158878, Note_off_c, 1, 56, 0
3, 158880, Note_on_c, 1, 60, 60
3, 158974, Note_off_c, 1, 60, 0
3, 158976, Note_on_c, 1, 52, 60
3, 159070, Note_off_c, 1, 52, 0
3, 159072, Note_on_c, 1, 55, 60
3, 159166, Note_off_c, 1, 55, 0
3, 159168, Note_on_c, 1, 60, 60
3, 159262, Note_off_c, 1, 60, 0
3, 159264, Note_on_c, 1, 52, 60
3, 159358, Note_off_c, 1, 52, 0
3, 159360, Note_on_c, 1, 55, 60
3, 159454, Note_off_c, 1, 55, 0
3, 159456, Note_on_c, 1, 60, 60
3, 159550, Note_off_c, 1, 60, 0
3, 159552, Note_on_c, 1, 52, 60
3, 159646, Note_off_c, 1, 52, 0
3, 159648, Note_on_c, 1, 55, 60
3, 159742, Note_off_c, 1, 55, 0
3, 159744, Note_on_c, 1, 58, 60
3, 159838, Note_off_c, 1, 58, 0
3, 159840, Note_on_c, 1, 52, 60
3, 159934, Note_off_c, 1, 52, 0
3, 159936, Note_on_c, 1, 55, 60
3, 160030, Note_off_c, 1, 55, 0
3, 160032, Note_on_c, 1, 60, 60
3, 160126, Note_off_c, 1, 60, 0
3, 160128, Note_on_c, 1, 53, 60
3, 160222, Note_off_c, 1, 53, 0
3, 160224, Note_on_c, 1, 56, 60
3, 160318, Note_off_c, 1, 56, 0
3, 160320, Note_on_c, 1, 60, 60
3, 160414, Note_off_c, 1, 60, 0
3, 160416, Note_on_c, 1, 53, 60
3, 160510, Note_off_c, 1, 53, 0
3, 160512, Note_on_c, 1, 56, 60
3, 160606, Note_off_c, 1, 56, 0
3, 160608, Note_on_c, 1, 60, 60
3, 160702, Note_off_c, 1, 60, 0
3, 160704, Note_on_c, 1, 56, 60
3, 160798, Note_off_c, 1, 56, 0
3, 160800, Note_on_c, 1, 60, 60
3, 160894, Note_off_c, 1, 60, 0
3, 160896, Note_on_c, 1, 65, 60
3, 160990, Note_off_c, 1, 65, 0
3, 160992, Note_on_c, 1, 55, 60
3, 161086, Note_off_c, 1, 55, 0
3, 161088, Note_on_c, 1, 58, 60
3, 161182, Note_off_c, 1, 58, 0
3, 161184, Note_on_c, 1, 63, 60
3, 161278, Note_off_c, 1, 63, 0
3, 161280, Note_on_c, 1, 53, 60
3, 161374, Note_off_c, 1, 53, 0
3, 161376, Note_on_c, 1, 56, 60
3, 161470, Note_off_c, 1, 56, 0
3, 161472, Note_on_c, 1, 61, 60
3, 161566, Note_off_c, 1, 61, 0
3, 161568, Note_on_c, 1, 51, 60
3, 161662, Note_off_c, 1, 51, 0
3, 161664, Note_on_c, 1, 55, 60
3, 161758, Note_off_c, 1, 55, 0
3, 161760, Note_on_c, 1, 60, 60
3, 161854, Note_off_c, 1, 60, 0
3, 161856, Note_on_c, 1, 50, 60
3, 161950, Note_off_c, 1, 50, 0
3, 161952, Note_on_c, 1, 53, 60
3, 162046, Note_off_c, 1, 53, 0
3, 162048, Note_on_c, 1, 58, 60
3, 162142, Note_off_c, 1, 58, 0
3, 162144, Note_on_c, 1, 50, 60
3, 162238, Note_off_c, 1, 50, 0
3, 162240, Note_on_c, 1, 53, 60
3, 162334, Note_off_c, 1, 53, 0
3, 162336, Note_on_c, 1, 59, 60
3, 162430, Note_off_c, 1, 59, 0
3, 162432, Note_on_c, 1, 48, 60
3, 162526, Note_off_c, 1, 48, 0
3, 162528, Note_on_c, 1, 53, 60
3, 162622, Note_off_c, 1, 53, 0
3, 162624, Note_on_c, 1, 60, 60
3, 162718, Note_off_c, 1, 60, 0
3, 162720, Note_on_c, 1, 48, 60
3, 162814, Note_off_c, 1, 48, 0
3, 162816, Note_on_c, 1, 52, 60
3, 162910, Note_off_c, 1, 52, 0
3, 162912, Note_on_c, 1, 60, 60
3, 163006, Note_off_c, 1, 60, 0
3, 163008, Note_on_c, 1, 53, 60
3, 163102, Note_off_c, 1, 53, 0
3, 163104, Note_on_c, 1, 56, 60
3, 163198, Note_off_c, 1, 56, 0
3, 163200, Note_on_c, 1, 60, 60
3, 163294, Note_off_c, 1, 60, 0
3, 163296, Note_on_c, 1, 53, 60
3, 163390, Note_off_c, 1, 53, 0
3, 163392, Note_on_c, 1, 56, 60
3, 163486, Note_off_c, 1, 56, 0
3, 163488, Note_on_c, 1, 60, 60
3, 163582, Note_off_c, 1, 60, 0
3, 163584, Note_on_c, 1, 52, 60
3, 163678, Note_off_c, 1, 52, 0
3, 163680, Note_on_c, 1, 55, 60
3, 163774, Note_off_c, 1, 55, 0
3, 163776, Note_on_c, 1, 60, 60
3, 163870, Note_off_c, 1, 60, 0
3, 163872, Note_on_c, 1, 52, 60
3, 163966, Note_off_c, 1, 52, 0
3, 163968, Note_on_c, 1, 55, 60
3, 164062, Note_off_c, 1, 55, 0
3, 164064, Note_on_c, 1, 60, 60
3, 164158, Note_off_c, 1, 60, 0
3, 164160, Note_on_c, 1, 52, 60
3, 164254, Note_off_c, 1, 52, 0
3, 164256, Note_on_c, 1, 55, 60
3, 164350, Note_off_c, 1, 55, 0
3, 164352, Note_on_c, 1, 58, 60
3, 164446, Note_off_c, 1, 58, 0
3, 164448, Note_on_c, 1, 52, 60
3, 164542, Note_off_c, 1, 52, 0
3, 164544, Note_on_c, 1, 55, 60
3, 164638, Note_off_c, 1, 55, 0
3, 164640, Note_on_c, 1, 60, 60
3, 164734, Note_off_c, 1, 60, 0
3, 164736, Note_on_c, 1, 51, 60
3, 164830, Note_off_c, 1, 51, 0
3, 164832, Note_on_c, 1, 54, 60
3, 164926, Note_off_c, 1, 54, 0
3, 164928, Note_on_c, 1, 57, 60
3, 165022, Note_off_c, 1, 57, 0
3, 165024, Note_on_c, 1, 50, 60
3, 165118, Note_off_c, 1, 50, 0
3, 165120, Note_on_c, 1, 53, 60
3, 165214, Note_off_c, 1, 53, 0
3, 165216, Note_on_c, 1, 58, 60
3, 165310, Note_off_c, 1, 58, 0
3, 165312, Note_on_c, 1, 49, 90
3, 165406, Note_off_c, 1, 49, 0
3, 165408, Note_on_c, 1, 53, 90
3, 165502, Note_off_c, 1, 53, 0
3, 165504, Note_on_c, 1, 56, 90
3, 165598, Note_off_c, 1, 56, 0
3, 165600, Note_on_c, 1, 48, 90
3, 165694, Note_off_c, 1, 48, 0
3, 165696, Note_on_c, 1, 53, 90
3, 165790, Note_off_c, 1, 53, 0
3, 165792, Note_on_c, 1, 56, 90
3, 165886, Note_off_c, 1, 56, 0
3, 165888, Note_on_c, 1, 46, 90
3, 165982, Note_off_c, 1, 46, 0
3, 165984, Note_on_c, 1, 52, 90
3, 166078, Note_off_c, 1, 52, 0
3, 166080, Note_on_c, 1, 55, 90
3, 166174, Note_off_c, 1, 55, 0
3, 166176, Note_on_c, 1, 44, 90
3, 166270, Note_off_c, 1, 44, 0
3, 166272, Note_on_c, 1, 48, 90
3, 166366, Note_off_c, 1, 48, 0
3, 166368, Note_on_c, 1, 53, 90
3, 166462, Note_off_c, 1, 53, 0
3, 166464, Note_on_c, 1, 48, 60
3, 166558, Note_off_c, 1, 48, 0
3, 166560, Note_on_c, 1, 53, 60
3, 166654, Note_off_c, 1, 53, 0
3, 166656, Note_on_c, 1, 56, 60
3, 166750, Note_off_c, 1, 56, 0
3, 166752, Note_on_c, 1, 48, 60
3, 166846, Note_off_c, 1, 48, 0
3, 166848, Note_on_c, 1, 55, 60
3, 166942, Note_off_c, 1, 55, 0
3, 166944, Note_on_c, 1, 58, 60
3, 167038, Note_off_c, 1, 58, 0
3, 167040, Note_on_c, 1, 57, 90
3, 167040, Note_on_c, 1, 53, 90
3, 167230, Note_off_c, 1, 57, 0
3, 167230, Note_off_c, 1, 53, 0
3, 167328, Note_on_c, 1, 55, 90
3, 167422, Note_off_c, 1, 55, 0
3, 167424, Note_on_c, 1, 52, 90
3, 167518, Note_off_c, 1, 52, 0
3, 167520, Note_on_c, 1, 48, 90
3, 167614, Note_off_c, 1, 48, 0
3, 167616, Note_on_c, 1, 53, 90
3, 167806, Note_off_c, 1, 53, 0
3, 167904, Note_on_c, 1, 55, 90
3, 167998, Note_off_c, 1, 55, 0
3, 168000, Note_on_c, 1, 52, 90
3, 168094, Note_off_c, 1, 52, 0
3, 168096, Note_on_c, 1, 48, 90
3, 168190, Note_off_c, 1, 48, 0
3, 168192, Note_on_c, 1, 53, 105
3, 168382, Note_off_c, 1, 53, 0
3, 170592, Note_on_c, 1, 50, 105
3, 170686, Note_off_c, 1, 50, 0
3, 170688, Note_on_c, 1, 53, 105
3, 170782, Note_off_c, 1, 53, 0
3, 170784, Note_on_c, 1, 57, 105
3, 170878, Note_off_c, 1, 57, 0
3, 170880, Note_on_c, 1, 55, 105
3, 170974, Note_off_c, 1, 55, 0
3, 170976, Note_on_c, 1, 53, 105
3, 171070, Note_off_c, 1, 53, 0
3, 171072, Note_on_c, 1, 53, 105
3, 171166, Note_off_c, 1, 53, 0
3, 171168, Note_on_c, 1, 52, 105
3, 171262, Note_off_c, 1, 52, 0
3, 171264, Note_on_c, 1, 55, 105
3, 171358, Note_off_c, 1, 55, 0
3, 171360, Note_on_c, 1, 61, 105
3, 171454, Note_off_c, 1, 61, 0
3, 171456, Note_on_c, 1, 60, 105
3, 171550, Note_off_c, 1, 60, 0
3, 171552, Note_on_c, 1, 58, 105
3, 171646, Note_off_c, 1, 58, 0
3, 171648, Note_on_c, 1, 57, 105
3, 171742, Note_off_c, 1, 57, 0
3, 171936, Note_on_c, 1, 58, 105
3, 172030, Note_off_c, 1, 58, 0
3, 173088, Note_on_c, 1, 55, 90
3, 173182, Note_off_c, 1, 55, 0
3, 173184, Note_on_c, 1, 52, 90
3, 173278, Note_off_c, 1, 52, 0
3, 173280, Note_on_c, 1, 48, 90
3, 173374, Note_off_c, 1, 48, 0
3, 173376, Note_on_c, 1, 53, 90
3, 173566, Note_off_c, 1, 53, 0
3, 173664, Note_on_c, 1, 55, 90
3, 173758, Note_off_c, 1, 55, 0
3, 173760, Note_on_c, 1, 52, 90
3, 173854, Note_off_c, 1, 52, 0
3, 173856, Note_on_c, 1, 48, 90
3, 173950, Note_off_c, 1, 48, 0
3, 173952, Note_on_c, 1, 53, 105
3, 174142, Note_off_c, 1, 53, 0
3, 176352, Note_on_c, 1, 50, 105
3, 176446, Note_off_c, 1, 50, 0
3, 176448, Note_on_c, 1, 53, 105
3, 176542, Note_off_c, 1, 53, 0
3, 176544, Note_on_c, 1, 56, 105
3, 176638, Note_off_c, 1, 56, 0
3, 176640, Note_on_c, 1, 55, 105
3, 176734, Note_off_c, 1, 55, 0
3, 176736, Note_on_c, 1, 53, 105
3, 176830, Note_off_c, 1, 53, 0
3, 176832, Note_on_c, 1, 53, 105
3, 176926, Note_off_c, 1, 53, 0
3, 176928, Note_on_c, 1, 52, 105
3, 177022, Note_off_c, 1, 52, 0
3, 177024, Note_on_c, 1, 55, 105
3, 177118, Note_off_c, 1, 55, 0
3, 177120, Note_on_c, 1, 61, 105
3, 177214, Note_off_c, 1, 61, 0
3, 177216, Note_on_c, 1, 60, 105
3, 177310, Note_off_c, 1, 60, 0
3, 177312, Note_on_c, 1, 58, 105
3, 177406, Note_off_c, 1, 58, 0
3, 177408, Note_on_c, 1, 57, 60
3, 177502, Note_off_c, 1, 57, 0
3, 177696, Note_on_c, 1, 58, 60
3, 177790, Note_off_c, 1, 58, 0
3, 180864, Note_on_c, 1, 57, 90
3, 180876, Note_on_c, 1, 53, 90
3, 180876, Note_on_c, 1, 53, 90
3, 181054, Note_off_c, 1, 57, 0
3, 181066, Note_off_c, 1, 53, 0
3, 181066, Note_off_c, 1, 53, 0
3, 181152, Note_on_c, 1, 57, 90
3, 181152, Note_on_c, 1, 52, 90
3, 181152, Note_on_c, 1, 48, 90
3, 181152, Note_on_c, 1, 60, 90
3, 181198, Note_off_c, 1, 60, 0
3, 181200, Note_on_c, 1, 62, 90
3, 181246, Note_off_c, 1, 62, 0
3, 181248, Note_on_c, 1, 60, 90
3, 181294, Note_off_c, 1, 60, 0
3, 181296, Note_on_c, 1, 58, 90
3, 181342, Note_off_c, 1, 57, 0
3, 181342, Note_off_c, 1, 52, 0
3, 181342, Note_off_c, 1, 48, 0
3, 181342, Note_off_c, 1, 58, 0
3, 181344, Note_on_c, 1, 57, 90
3, 181390, Note_off_c, 1, 57, 0
3, 181392, Note_on_c, 1, 55, 90
3, 181438, Note_off_c, 1, 55, 0
3, 181440, Note_on_c, 1, 41, 90
3, 181440, Note_on_c, 1, 53, 90
3, 181534, Note_off_c, 1, 41, 0
3, 181534, Note_off_c, 1, 53, 0
3, 181536, Note_on_c, 1, 45, 90
3, 181536, Note_on_c, 1, 57, 90
3, 181630, Note_off_c, 1, 45, 0
3, 181630, Note_off_c, 1, 57, 0
3, 181632, Note_on_c, 1, 48, 90
3, 181632, Note_on_c, 1, 60, 90
3, 181726, Note_off_c, 1, 48, 0
3, 181726, Note_off_c, 1, 60, 0
3, 181728, Note_on_c, 1, 53, 90
3, 181822, Note_off_c, 1, 53, 0
3, 181824, Note_on_c, 1, 57, 90
3, 181918, Note_off_c, 1, 57, 0
3, 181920, Note_on_c, 1, 60, 90
3, 182014, Note_off_c, 1, 60, 0
3, 182016, Note_on_c, 1, 65, 90
3, 182304, Note_on_c, 1, 65, 90
3, 182304, Note_on_c, 1, 53, 90
3, 182398, Note_off_c, 1, 65, 0
3, 182592, Note_on_c, 1, 57, 97
3, 182592, Note_on_c, 1, 45, 97
3, 182604, Note_off_c, 1, 53, 0
3, 182604, Note_off_c, 1, 65, 0
3, 182974, Note_off_c, 1, 57, 0
3, 182974, Note_off_c, 1, 45, 0
3, 183168, Note_on_c, 1, 58, 97
3, 183168, Note_on_c, 1, 46, 97
3, 183550, Note_off_c, 1, 58, 0
3, 183550, Note_off_c, 1, 46, 0
3, 183744, Note_on_c, 1, 59, 105
3, 183744, Note_on_c, 1, 47, 105
3, 184126, Note_off_c, 1, 59, 0
3, 184126, Note_off_c, 1, 47, 0
3, 184320, Note_on_c, 1, 48, 60
3, 184320, Note_on_c, 1, 57, 60
3, 184894, Note_off_c, 1, 48, 0
3, 184894, Note_off_c, 1, 57, 0
3, 184896, Note_on_c, 1, 58, 60
3, 184896, Note_on_c, 1, 48, 60
3, 185470, Note_off_c, 1, 58, 0
3, 185470, Note_off_c, 1, 48, 0
3, 185472, Note_on_c, 1, 57, 90
3, 185472, Note_on_c, 1, 53, 90
3, 185566, Note_off_c, 1, 57, 0
3, 185566, Note_off_c, 1, 53, 0
3, 185664, Note_on_c, 1, 45, 90
3, 185758, Note_off_c, 1, 45, 0
3, 185760, Note_on_c, 1, 46, 90
3, 185854, Note_off_c, 1, 46, 0
3, 185856, Note_on_c, 1, 55, 90
3, 185950, Note_off_c, 1, 55, 0
3, 185952, Note_on_c, 1, 47, 90
3, 186046, Note_off_c, 1, 47, 0
3, 186048, Note_on_c, 1, 48, 90
3, 186142, Note_off_c, 1, 48, 0
3, 186144, Note_on_c, 1, 57, 90
3, 186238, Note_off_c, 1, 57, 0
3, 186240, Note_on_c, 1, 49, 90
3, 186334, Note_off_c, 1, 49, 0
3, 186336, Note_on_c, 1, 50, 90
3, 186430, Note_off_c, 1, 50, 0
3, 186432, Note_on_c, 1, 58, 90
3, 186526, Note_off_c, 1, 58, 0
3, 186528, Note_on_c, 1, 52, 90
3, 186622, Note_off_c, 1, 52, 0
3, 188532, Note_on_c, 1, 45, 90
3, 188626, Note_off_c, 1, 45, 0
3, 188640, Note_on_c, 1, 46, 90
3, 188734, Note_off_c, 1, 46, 0
3, 188736, Note_on_c, 1, 55, 90
3, 188830, Note_off_c, 1, 55, 0
3, 188832, Note_on_c, 1, 47, 90
3, 188926, Note_off_c, 1, 47, 0
3, 188928, Note_on_c, 1, 48, 90
3, 189022, Note_off_c, 1, 48, 0
3, 189024, Note_on_c, 1, 57, 90
3, 189118, Note_off_c, 1, 57, 0
3, 189120, Note_on_c, 1, 49, 90
3, 189214, Note_off_c, 1, 49, 0
3, 189216, Note_on_c, 1, 50, 90
3, 189310, Note_off_c, 1, 50, 0
3, 189312, Note_on_c, 1, 58, 90
3, 189406, Note_off_c, 1, 58, 0
3, 189408, Note_on_c, 1, 52, 90
3, 189502, Note_off_c, 1, 52, 0
3, 190656, Note_on_c, 1, 57, 60
3, 190656, Note_on_c, 1, 48, 60
3, 190942, Note_off_c, 1, 57, 0
3, 190942, Note_off_c, 1, 48, 0
3, 190944, Note_on_c, 1, 57, 60
3, 191230, Note_off_c, 1, 57, 0
3, 191232, Note_on_c, 1, 53, 60
3, 191232, Note_on_c, 1, 53, 60
3, 191326, Note_off_c, 1, 53, 0
3, 191328, Note_on_c, 1, 57, 60
3, 191422, Note_off_c, 1, 57, 0
3, 191424, Note_on_c, 1, 60, 60
3, 191518, Note_off_c, 1, 53, 0
3, 191518, Note_off_c, 1, 60, 0
3, 191520, Note_on_c, 1, 53, 60
3, 191520, Note_on_c, 1, 53, 60
3, 191614, Note_off_c, 1, 53, 0
3, 191616, Note_on_c, 1, 55, 60
3, 191710, Note_off_c, 1, 55, 0
3, 191712, Note_on_c, 1, 58, 60
3, 191806, Note_off_c, 1, 53, 0
3, 191806, Note_off_c, 1, 58, 0
3, 191808, Note_on_c, 1, 53, 60
3, 191808, Note_on_c, 1, 53, 60
3, 191902, Note_off_c, 1, 53, 0
3, 191904, Note_on_c, 1, 57, 60
3, 191998, Note_off_c, 1, 57, 0
3, 192000, Note_on_c, 1, 60, 60
3, 192094, Note_off_c, 1, 53, 0
3, 192094, Note_off_c, 1, 60, 0
3, 192096, Note_on_c, 1, 53, 60
3, 192096, Note_on_c, 1, 53, 60
3, 192190, Note_off_c, 1, 53, 0
3, 192192, Note_on_c, 1, 55, 60
3, 192286, Note_off_c, 1, 55, 0
3, 192288, Note_on_c, 1, 58, 60
3, 192382, Note_off_c, 1, 53, 0
3, 192382, Note_off_c, 1, 58, 0
3, 192384, Note_on_c, 1, 53, 45
3, 192384, Note_on_c, 1, 53, 45
3, 192478, Note_off_c, 1, 53, 0
3, 192480, Note_on_c, 1, 57, 45
3, 192574, Note_off_c, 1, 57, 0
3, 192576, Note_on_c, 1, 60, 45
3, 192670, Note_off_c, 1, 53, 0
3, 192670, Note_off_c, 1, 60, 0
3, 192672, Note_on_c, 1, 53, 45
3, 192672, Note_on_c, 1, 53, 45
3, 192766, Note_off_c, 1, 53, 0
3, 192768, Note_on_c, 1, 57, 45
3, 192862, Note_off_c, 1, 57, 0
3, 192864, Note_on_c, 1, 60, 45
3, 192958, Note_off_c, 1, 53, 0
3, 192958, Note_off_c, 1, 60, 0
3, 192960, Note_on_c, 1, 53, 45
3, 192960, Note_on_c, 1, 41, 45
3, 193246, Note_off_c, 1, 53, 0
3, 193246, Note_off_c, 1, 41, 0
3, 193248, Note_on_c, 1, 53, 45
3, 193248, Note_on_c, 1, 41, 45
3, 193342, Note_off_c, 1, 53, 0
3, 193342, Note_off_c, 1, 41, 0
3, 193342, End_track
4, 0, Start_track
4, 0, Title_t, "K332-c -Allegro Assai"
4, 0, Control_c, 2, 91, 2
4, 0, Control_c, 2, 93, 0
4, 0, Key_signature, -1, "minor"
4, 0, End_track
5, 0, Start_track
5, 0, Title_t, "Midi by:"
5, 0, Key_signature, -1, "minor"
5, 0, End_track
6, 0, Start_track
6, 0, Title_t, "B.Fisher"
6, 0, Key_signature, -1, "minor"
6, 0, End_track
7, 0, Start_track
7, 0, Key_signature, -1, "minor"
7, 0, End_track
8, 0, Start_track
8, 0, Key_signature, -1, "minor"
8, 0, End_track
9, 0, Start_track
9, 0, Key_signature, -1, "minor"
9, 0, End_track
10, 0, Start_track
10, 0, Key_signature, -1, "minor"
10, 0, End_track
11, 0, Start_track
11, 0, Key_signature, -1, "minor"
11, 0, End_track
12, 0, Start_track
12, 0, Key_signature, -1, "minor"
12, 0, End_track
13, 0, Start_track
13, 0, Key_signature, -1, "minor"
13, 0, End_track
14, 0, Start_track
14, 0, Key_signature, -1, "minor"
14, 0, End_track
15, 0, Start_track
15, 0, Key_signature, -1, "minor"
15, 0, End_track
16, 0, Start_track
16, 0, Key_signature, -1, "minor"
16, 0, End_track
17, 0, Start_track
17, 0, Key_signature, 0, "major"
17, 0, End_track
0, 0, End_of_file
