0, 0, Header, 1, 6, 384
1, 0, Start_track
1, 0, Sequencer_specific, 3, 0, 0, 65
1, 0, Time_signature, 3, 2, 24, 8
1, 0, Key_signature, 0, "major"
1, 0, Tempo, 1111111
1, 67968, Tempo, 535714
1, 69120, Tempo, 1111111
1, 114048, Tempo, 1200000
1, 115200, Tempo, 1304348
1, 115200, End_track
2, 0, Start_track
2, 0, MIDI_port, 0
2, 0, Title_t, "Mozart Clarinet"
2, 0, Control_c, 0, 0, 0
2, 0, Control_c, 0, 32, 0
2, 0, Program_c, 0, 71
2, 0, Control_c, 0, 7, 100
2, 0, Control_c, 0, 10, 63
2, 0, Control_c, 0, 91, 84
2, 0, Control_c, 0, 93, 84
2, 0, Control_c, 0, 121, 0
2, 96, Control_c, 0, 10, 63
2, 192, Control_c, 0, 91, 63
2, 240, Control_c, 0, 93, 40
2, 288, Program_c, 0, 71
2, 1152, Note_on_c, 0, 70, 68
2, 1528, Note_on_c, 0, 70, 0
2, 1536, Note_on_c, 0, 75, 70
2, 2104, Note_on_c, 0, 75, 0
2, 2112, Note_on_c, 0, 79, 72
2, 2296, Note_on_c, 0, 79, 0
2, 2304, Note_on_c, 0, 79, 72
2, 2488, Note_on_c, 0, 79, 0
2, 2496, Note_on_c, 0, 77, 73
2, 2680, Note_on_c, 0, 77, 0
2, 2688, Note_on_c, 0, 75, 74
2, 3064, Note_on_c, 0, 75, 0
2, 3456, Note_on_c, 0, 70, 75
2, 4024, Note_on_c, 0, 70, 0
2, 4032, Note_on_c, 0, 75, 74
2, 4216, Note_on_c, 0, 75, 0
2, 4224, Note_on_c, 0, 79, 73
2, 4408, Note_on_c, 0, 79, 0
2, 4416, Note_on_c, 0, 82, 72
2, 4600, Note_on_c, 0, 82, 0
2, 4608, Note_on_c, 0, 82, 72
2, 4792, Note_on_c, 0, 82, 0
2, 4800, Note_on_c, 0, 80, 73
2, 4984, Note_on_c, 0, 80, 0
2, 4992, Note_on_c, 0, 79, 74
2, 5368, Note_on_c, 0, 79, 0
2, 5760, Note_on_c, 0, 77, 74
2, 6328, Note_on_c, 0, 77, 0
2, 6336, Note_on_c, 0, 82, 72
2, 6520, Note_on_c, 0, 82, 0
2, 6528, Note_on_c, 0, 79, 74
2, 6712, Note_on_c, 0, 79, 0
2, 6720, Note_on_c, 0, 82, 72
2, 6904, Note_on_c, 0, 82, 0
2, 6912, Note_on_c, 0, 77, 74
2, 7480, Note_on_c, 0, 77, 0
2, 7488, Note_on_c, 0, 82, 72
2, 7672, Note_on_c, 0, 82, 0
2, 7680, Note_on_c, 0, 72, 74
2, 7864, Note_on_c, 0, 72, 0
2, 7872, Note_on_c, 0, 79, 74
2, 8056, Note_on_c, 0, 79, 0
2, 8064, Note_on_c, 0, 70, 75
2, 8824, Note_on_c, 0, 70, 0
2, 8832, Note_on_c, 0, 74, 74
2, 8920, Note_on_c, 0, 74, 0
2, 8928, Note_on_c, 0, 72, 75
2, 9112, Note_on_c, 0, 72, 0
2, 9120, Note_on_c, 0, 70, 75
2, 9208, Note_on_c, 0, 70, 0
2, 9216, Note_on_c, 0, 70, 75
2, 9592, Note_on_c, 0, 70, 0
2, 19584, Note_on_c, 0, 79, 73
2, 20152, Note_on_c, 0, 79, 0
2, 20160, Note_on_c, 0, 77, 74
2, 20344, Note_on_c, 0, 77, 0
2, 20352, Note_on_c, 0, 75, 75
2, 20536, Note_on_c, 0, 75, 0
2, 20544, Note_on_c, 0, 74, 75
2, 20728, Note_on_c, 0, 74, 0
2, 20736, Note_on_c, 0, 72, 75
2, 21112, Note_on_c, 0, 72, 0
2, 21888, Note_on_c, 0, 80, 73
2, 22456, Note_on_c, 0, 80, 0
2, 22464, Note_on_c, 0, 79, 74
2, 22648, Note_on_c, 0, 79, 0
2, 22656, Note_on_c, 0, 77, 75
2, 22840, Note_on_c, 0, 77, 0
2, 22848, Note_on_c, 0, 75, 75
2, 23032, Note_on_c, 0, 75, 0
2, 23040, Note_on_c, 0, 74, 75
2, 23416, Note_on_c, 0, 74, 0
2, 24192, Note_on_c, 0, 82, 72
2, 24760, Note_on_c, 0, 82, 0
2, 24768, Note_on_c, 0, 80, 73
2, 24952, Note_on_c, 0, 80, 0
2, 24960, Note_on_c, 0, 79, 74
2, 25144, Note_on_c, 0, 79, 0
2, 25152, Note_on_c, 0, 77, 74
2, 25336, Note_on_c, 0, 77, 0
2, 25344, Note_on_c, 0, 75, 74
2, 25528, Note_on_c, 0, 75, 0
2, 25536, Note_on_c, 0, 80, 72
2, 25720, Note_on_c, 0, 80, 0
2, 25728, Note_on_c, 0, 80, 72
2, 26296, Note_on_c, 0, 80, 0
2, 26304, Note_on_c, 0, 79, 73
2, 26488, Note_on_c, 0, 79, 0
2, 26496, Note_on_c, 0, 79, 74
2, 26584, Note_on_c, 0, 79, 0
2, 26592, Note_on_c, 0, 77, 75
2, 26680, Note_on_c, 0, 77, 0
2, 26688, Note_on_c, 0, 80, 72
2, 26776, Note_on_c, 0, 80, 0
2, 26784, Note_on_c, 0, 77, 73
2, 26872, Note_on_c, 0, 77, 0
2, 26880, Note_on_c, 0, 75, 74
2, 27256, Note_on_c, 0, 75, 0
2, 27264, Note_on_c, 0, 79, 75
2, 27352, Note_on_c, 0, 79, 0
2, 27360, Note_on_c, 0, 77, 75
2, 27544, Note_on_c, 0, 77, 0
2, 27552, Note_on_c, 0, 75, 75
2, 27640, Note_on_c, 0, 75, 0
2, 27648, Note_on_c, 0, 75, 75
2, 28024, Note_on_c, 0, 75, 0
2, 38016, Note_on_c, 0, 79, 73
2, 38296, Note_on_c, 0, 79, 0
2, 38304, Note_on_c, 0, 75, 74
2, 38392, Note_on_c, 0, 75, 0
2, 38400, Note_on_c, 0, 82, 72
2, 38968, Note_on_c, 0, 82, 0
2, 38976, Note_on_c, 0, 79, 73
2, 39064, Note_on_c, 0, 79, 0
2, 39072, Note_on_c, 0, 75, 74
2, 39160, Note_on_c, 0, 75, 0
2, 39168, Note_on_c, 0, 74, 74
2, 39544, Note_on_c, 0, 74, 0
2, 39552, Note_on_c, 0, 77, 73
2, 39928, Note_on_c, 0, 77, 0
2, 40320, Note_on_c, 0, 75, 75
2, 40360, Note_on_c, 0, 75, 0
2, 40368, Note_on_c, 0, 72, 75
2, 40408, Note_on_c, 0, 72, 0
2, 40416, Note_on_c, 0, 69, 75
2, 40456, Note_on_c, 0, 69, 0
2, 40464, Note_on_c, 0, 65, 77
2, 40504, Note_on_c, 0, 65, 0
2, 40512, Note_on_c, 0, 63, 79
2, 40552, Note_on_c, 0, 63, 0
2, 40560, Note_on_c, 0, 60, 82
2, 40600, Note_on_c, 0, 60, 0
2, 40608, Note_on_c, 0, 57, 84
2, 40648, Note_on_c, 0, 57, 0
2, 40656, Note_on_c, 0, 53, 86
2, 40696, Note_on_c, 0, 53, 0
2, 40704, Note_on_c, 0, 51, 88
2, 40888, Note_on_c, 0, 51, 0
2, 40896, Note_on_c, 0, 79, 75
2, 41080, Note_on_c, 0, 79, 0
2, 41088, Note_on_c, 0, 77, 75
2, 41272, Note_on_c, 0, 77, 0
2, 41280, Note_on_c, 0, 75, 75
2, 41464, Note_on_c, 0, 75, 0
2, 41472, Note_on_c, 0, 72, 73
2, 41752, Note_on_c, 0, 72, 0
2, 41760, Note_on_c, 0, 73, 74
2, 41848, Note_on_c, 0, 73, 0
2, 41856, Note_on_c, 0, 74, 75
2, 42232, Note_on_c, 0, 74, 0
2, 42624, Note_on_c, 0, 77, 74
2, 43192, Note_on_c, 0, 77, 0
2, 43200, Note_on_c, 0, 82, 78
2, 43288, Note_on_c, 0, 82, 0
2, 43296, Note_on_c, 0, 81, 73
2, 43384, Note_on_c, 0, 81, 0
2, 43392, Note_on_c, 0, 79, 74
2, 43480, Note_on_c, 0, 79, 0
2, 43488, Note_on_c, 0, 77, 75
2, 43576, Note_on_c, 0, 77, 0
2, 43584, Note_on_c, 0, 75, 75
2, 43672, Note_on_c, 0, 75, 0
2, 43680, Note_on_c, 0, 74, 75
2, 43768, Note_on_c, 0, 74, 0
2, 43776, Note_on_c, 0, 74, 75
2, 43864, Note_on_c, 0, 74, 0
2, 43872, Note_on_c, 0, 75, 75
2, 43960, Note_on_c, 0, 75, 0
2, 43968, Note_on_c, 0, 71, 75
2, 44056, Note_on_c, 0, 71, 0
2, 44064, Note_on_c, 0, 72, 75
2, 44152, Note_on_c, 0, 72, 0
2, 44160, Note_on_c, 0, 72, 75
2, 44536, Note_on_c, 0, 72, 0
2, 44928, Note_on_c, 0, 74, 75
2, 45016, Note_on_c, 0, 74, 0
2, 45024, Note_on_c, 0, 75, 75
2, 45056, Note_on_c, 0, 75, 0
2, 45056, Note_on_c, 0, 74, 75
2, 45088, Note_on_c, 0, 74, 0
2, 45088, Note_on_c, 0, 72, 75
2, 45120, Note_on_c, 0, 72, 0
2, 45120, Note_on_c, 0, 74, 75
2, 45208, Note_on_c, 0, 74, 0
2, 45216, Note_on_c, 0, 75, 75
2, 45304, Note_on_c, 0, 75, 0
2, 45312, Note_on_c, 0, 77, 75
2, 45400, Note_on_c, 0, 77, 0
2, 45408, Note_on_c, 0, 79, 75
2, 45440, Note_on_c, 0, 79, 0
2, 45440, Note_on_c, 0, 77, 75
2, 45472, Note_on_c, 0, 77, 0
2, 45472, Note_on_c, 0, 75, 75
2, 45504, Note_on_c, 0, 75, 0
2, 45504, Note_on_c, 0, 77, 75
2, 45592, Note_on_c, 0, 77, 0
2, 45600, Note_on_c, 0, 79, 75
2, 45688, Note_on_c, 0, 79, 0
2, 45696, Note_on_c, 0, 80, 75
2, 45880, Note_on_c, 0, 80, 0
2, 45888, Note_on_c, 0, 74, 75
2, 46072, Note_on_c, 0, 74, 0
2, 46080, Note_on_c, 0, 77, 75
2, 46456, Note_on_c, 0, 77, 0
2, 46464, Note_on_c, 0, 75, 75
2, 46840, Note_on_c, 0, 75, 0
2, 47232, Note_on_c, 0, 53, 90
2, 47608, Note_on_c, 0, 53, 0
2, 47616, Note_on_c, 0, 84, 70
2, 48088, Note_on_c, 0, 84, 0
2, 48096, Note_on_c, 0, 81, 73
2, 48184, Note_on_c, 0, 81, 0
2, 48192, Note_on_c, 0, 77, 73
2, 48280, Note_on_c, 0, 77, 0
2, 48288, Note_on_c, 0, 75, 74
2, 48376, Note_on_c, 0, 75, 0
2, 48384, Note_on_c, 0, 73, 75
2, 48472, Note_on_c, 0, 73, 0
2, 48480, Note_on_c, 0, 74, 75
2, 48568, Note_on_c, 0, 74, 0
2, 48576, Note_on_c, 0, 75, 75
2, 48664, Note_on_c, 0, 75, 0
2, 48672, Note_on_c, 0, 76, 75
2, 48760, Note_on_c, 0, 76, 0
2, 48768, Note_on_c, 0, 77, 75
2, 48856, Note_on_c, 0, 77, 0
2, 48864, Note_on_c, 0, 79, 74
2, 48952, Note_on_c, 0, 79, 0
2, 48960, Note_on_c, 0, 81, 73
2, 49048, Note_on_c, 0, 81, 0
2, 49056, Note_on_c, 0, 82, 72
2, 49144, Note_on_c, 0, 82, 0
2, 49152, Note_on_c, 0, 78, 74
2, 49240, Note_on_c, 0, 78, 0
2, 49248, Note_on_c, 0, 79, 73
2, 49336, Note_on_c, 0, 79, 0
2, 49344, Note_on_c, 0, 75, 74
2, 49432, Note_on_c, 0, 75, 0
2, 49440, Note_on_c, 0, 72, 75
2, 49528, Note_on_c, 0, 72, 0
2, 49536, Note_on_c, 0, 70, 75
2, 50104, Note_on_c, 0, 70, 0
2, 50112, Note_on_c, 0, 71, 75
2, 50296, Note_on_c, 0, 71, 0
2, 50304, Note_on_c, 0, 72, 74
2, 50488, Note_on_c, 0, 72, 0
2, 50496, Note_on_c, 0, 77, 73
2, 50680, Note_on_c, 0, 77, 0
2, 50688, Note_on_c, 0, 75, 74
2, 50968, Note_on_c, 0, 75, 0
2, 50976, Note_on_c, 0, 77, 73
2, 51016, Note_on_c, 0, 77, 0
2, 51024, Note_on_c, 0, 75, 74
2, 51064, Note_on_c, 0, 75, 0
2, 51072, Note_on_c, 0, 74, 74
2, 51448, Note_on_c, 0, 74, 0
2, 51840, Note_on_c, 0, 53, 86
2, 52264, Note_on_c, 0, 53, 0
2, 52320, Note_on_c, 0, 55, 86
2, 52360, Note_on_c, 0, 55, 0
2, 52368, Note_on_c, 0, 57, 85
2, 52408, Note_on_c, 0, 57, 0
2, 52416, Note_on_c, 0, 58, 84
2, 52504, Note_on_c, 0, 58, 0
2, 52512, Note_on_c, 0, 57, 85
2, 52600, Note_on_c, 0, 57, 0
2, 52608, Note_on_c, 0, 55, 85
2, 52696, Note_on_c, 0, 55, 0
2, 52704, Note_on_c, 0, 53, 86
2, 52792, Note_on_c, 0, 53, 0
2, 52800, Note_on_c, 0, 63, 82
2, 52888, Note_on_c, 0, 63, 0
2, 52896, Note_on_c, 0, 62, 83
2, 52984, Note_on_c, 0, 62, 0
2, 52992, Note_on_c, 0, 59, 84
2, 53368, Note_on_c, 0, 59, 0
2, 53376, Note_on_c, 0, 60, 83
2, 53752, Note_on_c, 0, 60, 0
2, 54144, Note_on_c, 0, 62, 81
2, 54200, Note_on_c, 0, 62, 0
2, 54208, Note_on_c, 0, 60, 82
2, 54264, Note_on_c, 0, 60, 0
2, 54272, Note_on_c, 0, 58, 83
2, 54328, Note_on_c, 0, 58, 0
2, 54336, Note_on_c, 0, 60, 82
2, 54392, Note_on_c, 0, 60, 0
2, 54400, Note_on_c, 0, 62, 81
2, 54456, Note_on_c, 0, 62, 0
2, 54464, Note_on_c, 0, 63, 80
2, 54520, Note_on_c, 0, 63, 0
2, 54528, Note_on_c, 0, 65, 81
2, 54584, Note_on_c, 0, 65, 0
2, 54592, Note_on_c, 0, 63, 82
2, 54648, Note_on_c, 0, 63, 0
2, 54656, Note_on_c, 0, 62, 81
2, 54712, Note_on_c, 0, 62, 0
2, 54720, Note_on_c, 0, 63, 80
2, 54776, Note_on_c, 0, 63, 0
2, 54784, Note_on_c, 0, 65, 80
2, 54840, Note_on_c, 0, 65, 0
2, 54848, Note_on_c, 0, 67, 80
2, 54904, Note_on_c, 0, 67, 0
2, 54912, Note_on_c, 0, 68, 79
2, 54968, Note_on_c, 0, 68, 0
2, 55008, Note_on_c, 0, 70, 80
2, 55064, Note_on_c, 0, 70, 0
2, 55104, Note_on_c, 0, 72, 79
2, 55160, Note_on_c, 0, 72, 0
2, 55200, Note_on_c, 0, 62, 82
2, 55256, Note_on_c, 0, 62, 0
2, 55296, Note_on_c, 0, 65, 82
2, 55672, Note_on_c, 0, 65, 0
2, 55680, Note_on_c, 0, 63, 83
2, 56056, Note_on_c, 0, 63, 0
2, 56448, Note_on_c, 0, 63, 82
2, 56872, Note_on_c, 0, 63, 0
2, 56880, Note_on_c, 0, 65, 81
2, 56920, Note_on_c, 0, 65, 0
2, 56928, Note_on_c, 0, 67, 80
2, 56968, Note_on_c, 0, 67, 0
2, 56976, Note_on_c, 0, 65, 81
2, 57016, Note_on_c, 0, 65, 0
2, 57024, Note_on_c, 0, 63, 82
2, 57064, Note_on_c, 0, 63, 0
2, 57072, Note_on_c, 0, 62, 83
2, 57112, Note_on_c, 0, 62, 0
2, 57120, Note_on_c, 0, 60, 84
2, 57160, Note_on_c, 0, 60, 0
2, 57168, Note_on_c, 0, 58, 85
2, 57208, Note_on_c, 0, 58, 0
2, 57216, Note_on_c, 0, 57, 86
2, 57272, Note_on_c, 0, 57, 0
2, 57280, Note_on_c, 0, 55, 87
2, 57336, Note_on_c, 0, 55, 0
2, 57344, Note_on_c, 0, 53, 88
2, 57400, Note_on_c, 0, 53, 0
2, 57408, Note_on_c, 0, 63, 82
2, 57464, Note_on_c, 0, 63, 0
2, 57472, Note_on_c, 0, 62, 83
2, 57528, Note_on_c, 0, 62, 0
2, 57536, Note_on_c, 0, 60, 84
2, 57592, Note_on_c, 0, 60, 0
2, 57600, Note_on_c, 0, 58, 85
2, 57784, Note_on_c, 0, 58, 0
2, 57984, Note_on_c, 0, 77, 74
2, 58744, Note_on_c, 0, 77, 0
2, 58752, Note_on_c, 0, 60, 85
2, 58936, Note_on_c, 0, 60, 0
2, 59136, Note_on_c, 0, 79, 74
2, 59896, Note_on_c, 0, 79, 0
2, 59904, Note_on_c, 0, 65, 85
2, 59960, Note_on_c, 0, 65, 0
2, 59968, Note_on_c, 0, 66, 86
2, 60024, Note_on_c, 0, 66, 0
2, 60032, Note_on_c, 0, 67, 87
2, 60088, Note_on_c, 0, 67, 0
2, 60096, Note_on_c, 0, 68, 88
2, 60152, Note_on_c, 0, 68, 0
2, 60160, Note_on_c, 0, 69, 89
2, 60216, Note_on_c, 0, 69, 0
2, 60224, Note_on_c, 0, 70, 90
2, 60280, Note_on_c, 0, 70, 0
2, 60288, Note_on_c, 0, 71, 91
2, 60344, Note_on_c, 0, 71, 0
2, 60352, Note_on_c, 0, 72, 92
2, 60408, Note_on_c, 0, 72, 0
2, 60416, Note_on_c, 0, 73, 93
2, 60472, Note_on_c, 0, 73, 0
2, 60480, Note_on_c, 0, 74, 93
2, 60536, Note_on_c, 0, 74, 0
2, 60544, Note_on_c, 0, 75, 94
2, 60600, Note_on_c, 0, 75, 0
2, 60608, Note_on_c, 0, 76, 94
2, 60664, Note_on_c, 0, 76, 0
2, 60672, Note_on_c, 0, 77, 95
2, 60728, Note_on_c, 0, 77, 0
2, 60736, Note_on_c, 0, 78, 96
2, 60792, Note_on_c, 0, 78, 0
2, 60800, Note_on_c, 0, 79, 97
2, 60856, Note_on_c, 0, 79, 0
2, 60864, Note_on_c, 0, 80, 98
2, 60920, Note_on_c, 0, 80, 0
2, 60928, Note_on_c, 0, 81, 99
2, 60984, Note_on_c, 0, 81, 0
2, 60992, Note_on_c, 0, 82, 99
2, 61048, Note_on_c, 0, 82, 0
2, 61056, Note_on_c, 0, 72, 100
2, 61080, Note_on_c, 0, 72, 0
2, 61080, Note_on_c, 0, 74, 100
2, 61104, Note_on_c, 0, 74, 0
2, 61104, Note_on_c, 0, 72, 100
2, 61128, Note_on_c, 0, 72, 0
2, 61128, Note_on_c, 0, 74, 100
2, 61152, Note_on_c, 0, 74, 0
2, 61152, Note_on_c, 0, 72, 100
2, 61176, Note_on_c, 0, 72, 0
2, 61176, Note_on_c, 0, 74, 100
2, 61200, Note_on_c, 0, 74, 0
2, 61200, Note_on_c, 0, 72, 100
2, 61224, Note_on_c, 0, 72, 0
2, 61224, Note_on_c, 0, 74, 100
2, 61248, Note_on_c, 0, 74, 0
2, 61248, Note_on_c, 0, 72, 100
2, 61272, Note_on_c, 0, 72, 0
2, 61272, Note_on_c, 0, 74, 100
2, 61296, Note_on_c, 0, 74, 0
2, 61296, Note_on_c, 0, 72, 100
2, 61320, Note_on_c, 0, 72, 0
2, 61320, Note_on_c, 0, 74, 100
2, 61344, Note_on_c, 0, 74, 0
2, 61344, Note_on_c, 0, 72, 100
2, 61368, Note_on_c, 0, 72, 0
2, 61368, Note_on_c, 0, 74, 100
2, 61392, Note_on_c, 0, 74, 0
2, 61392, Note_on_c, 0, 72, 100
2, 61416, Note_on_c, 0, 72, 0
2, 61416, Note_on_c, 0, 74, 100
2, 61440, Note_on_c, 0, 74, 0
2, 61440, Note_on_c, 0, 72, 100
2, 61464, Note_on_c, 0, 72, 0
2, 61464, Note_on_c, 0, 74, 100
2, 61488, Note_on_c, 0, 74, 0
2, 61488, Note_on_c, 0, 72, 100
2, 61512, Note_on_c, 0, 72, 0
2, 61512, Note_on_c, 0, 74, 100
2, 61536, Note_on_c, 0, 74, 0
2, 61536, Note_on_c, 0, 72, 100
2, 61560, Note_on_c, 0, 72, 0
2, 61560, Note_on_c, 0, 74, 100
2, 61584, Note_on_c, 0, 74, 0
2, 61584, Note_on_c, 0, 72, 100
2, 61608, Note_on_c, 0, 72, 0
2, 61608, Note_on_c, 0, 74, 100
2, 61632, Note_on_c, 0, 74, 0
2, 61632, Note_on_c, 0, 72, 100
2, 61656, Note_on_c, 0, 72, 0
2, 61656, Note_on_c, 0, 74, 100
2, 61680, Note_on_c, 0, 74, 0
2, 61680, Note_on_c, 0, 72, 100
2, 61704, Note_on_c, 0, 72, 0
2, 61704, Note_on_c, 0, 74, 100
2, 61728, Note_on_c, 0, 74, 0
2, 61728, Note_on_c, 0, 72, 100
2, 61752, Note_on_c, 0, 72, 0
2, 61752, Note_on_c, 0, 74, 100
2, 61776, Note_on_c, 0, 74, 0
2, 61776, Note_on_c, 0, 72, 100
2, 61800, Note_on_c, 0, 72, 0
2, 61800, Note_on_c, 0, 74, 100
2, 61824, Note_on_c, 0, 74, 0
2, 61824, Note_on_c, 0, 72, 100
2, 61848, Note_on_c, 0, 72, 0
2, 61848, Note_on_c, 0, 74, 100
2, 61872, Note_on_c, 0, 74, 0
2, 61872, Note_on_c, 0, 72, 100
2, 61896, Note_on_c, 0, 72, 0
2, 61896, Note_on_c, 0, 74, 100
2, 61920, Note_on_c, 0, 74, 0
2, 61920, Note_on_c, 0, 72, 100
2, 61944, Note_on_c, 0, 72, 0
2, 61944, Note_on_c, 0, 74, 100
2, 61968, Note_on_c, 0, 74, 0
2, 61968, Note_on_c, 0, 72, 100
2, 61992, Note_on_c, 0, 72, 0
2, 61992, Note_on_c, 0, 74, 100
2, 62016, Note_on_c, 0, 74, 0
2, 62016, Note_on_c, 0, 70, 100
2, 62104, Note_on_c, 0, 70, 0
2, 62112, Note_on_c, 0, 72, 100
2, 62200, Note_on_c, 0, 72, 0
2, 62208, Note_on_c, 0, 70, 100
2, 62584, Note_on_c, 0, 70, 0
2, 63360, Note_on_c, 0, 58, 105
2, 63784, Note_on_c, 0, 58, 0
2, 63792, Note_on_c, 0, 62, 104
2, 63832, Note_on_c, 0, 62, 0
2, 63840, Note_on_c, 0, 65, 103
2, 63880, Note_on_c, 0, 65, 0
2, 63888, Note_on_c, 0, 70, 102
2, 63928, Note_on_c, 0, 70, 0
2, 63936, Note_on_c, 0, 62, 104
2, 63976, Note_on_c, 0, 62, 0
2, 63984, Note_on_c, 0, 65, 103
2, 64024, Note_on_c, 0, 65, 0
2, 64032, Note_on_c, 0, 70, 102
2, 64072, Note_on_c, 0, 70, 0
2, 64080, Note_on_c, 0, 74, 101
2, 64120, Note_on_c, 0, 74, 0
2, 64128, Note_on_c, 0, 70, 100
2, 64168, Note_on_c, 0, 70, 0
2, 64176, Note_on_c, 0, 72, 100
2, 64216, Note_on_c, 0, 72, 0
2, 64224, Note_on_c, 0, 74, 100
2, 64264, Note_on_c, 0, 74, 0
2, 64272, Note_on_c, 0, 75, 100
2, 64312, Note_on_c, 0, 75, 0
2, 64320, Note_on_c, 0, 77, 100
2, 64360, Note_on_c, 0, 77, 0
2, 64368, Note_on_c, 0, 79, 100
2, 64408, Note_on_c, 0, 79, 0
2, 64416, Note_on_c, 0, 81, 99
2, 64456, Note_on_c, 0, 81, 0
2, 64464, Note_on_c, 0, 82, 98
2, 64504, Note_on_c, 0, 82, 0
2, 64512, Note_on_c, 0, 81, 98
2, 64888, Note_on_c, 0, 81, 0
2, 65664, Note_on_c, 0, 60, 105
2, 66088, Note_on_c, 0, 60, 0
2, 66096, Note_on_c, 0, 63, 103
2, 66136, Note_on_c, 0, 63, 0
2, 66144, Note_on_c, 0, 65, 102
2, 66184, Note_on_c, 0, 65, 0
2, 66192, Note_on_c, 0, 69, 101
2, 66232, Note_on_c, 0, 69, 0
2, 66240, Note_on_c, 0, 63, 100
2, 66280, Note_on_c, 0, 63, 0
2, 66288, Note_on_c, 0, 65, 102
2, 66328, Note_on_c, 0, 65, 0
2, 66336, Note_on_c, 0, 69, 101
2, 66376, Note_on_c, 0, 69, 0
2, 66384, Note_on_c, 0, 72, 100
2, 66424, Note_on_c, 0, 72, 0
2, 66432, Note_on_c, 0, 69, 100
2, 66472, Note_on_c, 0, 69, 0
2, 66480, Note_on_c, 0, 70, 100
2, 66520, Note_on_c, 0, 70, 0
2, 66528, Note_on_c, 0, 72, 100
2, 66568, Note_on_c, 0, 72, 0
2, 66576, Note_on_c, 0, 74, 100
2, 66616, Note_on_c, 0, 74, 0
2, 66624, Note_on_c, 0, 75, 100
2, 66664, Note_on_c, 0, 75, 0
2, 66672, Note_on_c, 0, 77, 100
2, 66712, Note_on_c, 0, 77, 0
2, 66720, Note_on_c, 0, 79, 99
2, 66760, Note_on_c, 0, 79, 0
2, 66768, Note_on_c, 0, 81, 98
2, 66808, Note_on_c, 0, 81, 0
2, 66816, Note_on_c, 0, 80, 98
2, 67192, Note_on_c, 0, 80, 0
2, 67968, Note_on_c, 0, 80, 98
2, 69592, Note_on_c, 0, 80, 0
2, 69600, Note_on_c, 0, 79, 99
2, 69688, Note_on_c, 0, 79, 0
2, 69696, Note_on_c, 0, 82, 98
2, 69784, Note_on_c, 0, 82, 0
2, 69792, Note_on_c, 0, 80, 99
2, 69880, Note_on_c, 0, 80, 0
2, 69888, Note_on_c, 0, 79, 100
2, 69976, Note_on_c, 0, 79, 0
2, 69984, Note_on_c, 0, 77, 100
2, 70072, Note_on_c, 0, 77, 0
2, 70080, Note_on_c, 0, 75, 100
2, 70168, Note_on_c, 0, 75, 0
2, 70176, Note_on_c, 0, 74, 100
2, 70264, Note_on_c, 0, 74, 0
2, 70272, Note_on_c, 0, 77, 100
2, 70360, Note_on_c, 0, 77, 0
2, 70368, Note_on_c, 0, 76, 100
2, 70456, Note_on_c, 0, 76, 0
2, 70464, Note_on_c, 0, 79, 100
2, 70552, Note_on_c, 0, 79, 0
2, 70560, Note_on_c, 0, 77, 100
2, 70648, Note_on_c, 0, 77, 0
2, 70656, Note_on_c, 0, 75, 100
2, 70744, Note_on_c, 0, 75, 0
2, 70752, Note_on_c, 0, 74, 100
2, 70840, Note_on_c, 0, 74, 0
2, 70848, Note_on_c, 0, 72, 100
2, 70936, Note_on_c, 0, 72, 0
2, 70944, Note_on_c, 0, 70, 100
2, 71032, Note_on_c, 0, 70, 0
2, 71040, Note_on_c, 0, 69, 100
2, 71128, Note_on_c, 0, 69, 0
2, 71136, Note_on_c, 0, 70, 100
2, 71224, Note_on_c, 0, 70, 0
2, 71232, Note_on_c, 0, 72, 100
2, 71320, Note_on_c, 0, 72, 0
2, 71328, Note_on_c, 0, 70, 100
2, 71416, Note_on_c, 0, 70, 0
2, 71424, Note_on_c, 0, 70, 75
2, 71800, Note_on_c, 0, 70, 0
2, 71808, Note_on_c, 0, 75, 75
2, 72376, Note_on_c, 0, 75, 0
2, 72384, Note_on_c, 0, 79, 74
2, 72568, Note_on_c, 0, 79, 0
2, 72576, Note_on_c, 0, 79, 74
2, 72760, Note_on_c, 0, 79, 0
2, 72768, Note_on_c, 0, 77, 75
2, 72952, Note_on_c, 0, 77, 0
2, 72960, Note_on_c, 0, 75, 75
2, 73336, Note_on_c, 0, 75, 0
2, 73728, Note_on_c, 0, 70, 75
2, 74296, Note_on_c, 0, 70, 0
2, 74304, Note_on_c, 0, 75, 75
2, 74488, Note_on_c, 0, 75, 0
2, 74496, Note_on_c, 0, 79, 74
2, 74680, Note_on_c, 0, 79, 0
2, 74688, Note_on_c, 0, 82, 72
2, 74872, Note_on_c, 0, 82, 0
2, 74880, Note_on_c, 0, 82, 72
2, 75064, Note_on_c, 0, 82, 0
2, 75072, Note_on_c, 0, 80, 74
2, 75256, Note_on_c, 0, 80, 0
2, 75264, Note_on_c, 0, 79, 75
2, 75640, Note_on_c, 0, 79, 0
2, 76032, Note_on_c, 0, 77, 75
2, 76600, Note_on_c, 0, 77, 0
2, 76608, Note_on_c, 0, 82, 73
2, 76792, Note_on_c, 0, 82, 0
2, 76800, Note_on_c, 0, 79, 75
2, 76984, Note_on_c, 0, 79, 0
2, 76992, Note_on_c, 0, 82, 72
2, 77176, Note_on_c, 0, 82, 0
2, 77184, Note_on_c, 0, 77, 75
2, 77752, Note_on_c, 0, 77, 0
2, 77760, Note_on_c, 0, 82, 72
2, 77944, Note_on_c, 0, 82, 0
2, 77952, Note_on_c, 0, 72, 75
2, 78136, Note_on_c, 0, 72, 0
2, 78144, Note_on_c, 0, 79, 73
2, 78328, Note_on_c, 0, 79, 0
2, 78336, Note_on_c, 0, 70, 75
2, 79096, Note_on_c, 0, 70, 0
2, 79104, Note_on_c, 0, 74, 75
2, 79192, Note_on_c, 0, 74, 0
2, 79200, Note_on_c, 0, 72, 75
2, 79384, Note_on_c, 0, 72, 0
2, 79392, Note_on_c, 0, 70, 75
2, 79480, Note_on_c, 0, 70, 0
2, 79488, Note_on_c, 0, 70, 75
2, 79864, Note_on_c, 0, 70, 0
2, 80640, Note_on_c, 0, 79, 74
2, 81208, Note_on_c, 0, 79, 0
2, 81216, Note_on_c, 0, 77, 74
2, 81400, Note_on_c, 0, 77, 0
2, 81408, Note_on_c, 0, 75, 75
2, 81592, Note_on_c, 0, 75, 0
2, 81600, Note_on_c, 0, 74, 75
2, 81784, Note_on_c, 0, 74, 0
2, 81792, Note_on_c, 0, 72, 75
2, 82168, Note_on_c, 0, 72, 0
2, 82944, Note_on_c, 0, 80, 73
2, 83512, Note_on_c, 0, 80, 0
2, 83520, Note_on_c, 0, 79, 74
2, 83704, Note_on_c, 0, 79, 0
2, 83712, Note_on_c, 0, 77, 75
2, 83896, Note_on_c, 0, 77, 0
2, 83904, Note_on_c, 0, 75, 75
2, 84088, Note_on_c, 0, 75, 0
2, 84096, Note_on_c, 0, 74, 75
2, 84472, Note_on_c, 0, 74, 0
2, 85248, Note_on_c, 0, 82, 72
2, 85816, Note_on_c, 0, 82, 0
2, 85824, Note_on_c, 0, 80, 73
2, 86008, Note_on_c, 0, 80, 0
2, 86016, Note_on_c, 0, 79, 74
2, 86200, Note_on_c, 0, 79, 0
2, 86208, Note_on_c, 0, 77, 75
2, 86392, Note_on_c, 0, 77, 0
2, 86400, Note_on_c, 0, 75, 75
2, 86776, Note_on_c, 0, 75, 0
2, 86784, Note_on_c, 0, 80, 73
2, 87352, Note_on_c, 0, 80, 0
2, 87360, Note_on_c, 0, 79, 74
2, 87544, Note_on_c, 0, 79, 0
2, 87552, Note_on_c, 0, 79, 74
2, 87640, Note_on_c, 0, 79, 0
2, 87648, Note_on_c, 0, 77, 75
2, 87736, Note_on_c, 0, 77, 0
2, 87744, Note_on_c, 0, 79, 74
2, 87832, Note_on_c, 0, 79, 0
2, 87840, Note_on_c, 0, 80, 73
2, 87928, Note_on_c, 0, 80, 0
2, 87936, Note_on_c, 0, 75, 75
2, 88312, Note_on_c, 0, 75, 0
2, 88320, Note_on_c, 0, 79, 73
2, 88408, Note_on_c, 0, 79, 0
2, 88416, Note_on_c, 0, 77, 74
2, 88600, Note_on_c, 0, 77, 0
2, 88608, Note_on_c, 0, 75, 75
2, 88696, Note_on_c, 0, 75, 0
2, 88704, Note_on_c, 0, 75, 75
2, 89080, Note_on_c, 0, 75, 0
2, 98688, Note_on_c, 0, 70, 75
2, 98776, Note_on_c, 0, 70, 0
2, 98784, Note_on_c, 0, 74, 75
2, 98872, Note_on_c, 0, 74, 0
2, 98880, Note_on_c, 0, 75, 74
2, 98960, Note_on_c, 0, 79, 73
2, 98968, Note_on_c, 0, 75, 0
2, 99048, Note_on_c, 0, 79, 0
2, 99072, Note_on_c, 0, 82, 72
2, 99544, Note_on_c, 0, 82, 0
2, 99552, Note_on_c, 0, 81, 73
2, 99640, Note_on_c, 0, 81, 0
2, 99648, Note_on_c, 0, 80, 73
2, 99736, Note_on_c, 0, 80, 0
2, 99744, Note_on_c, 0, 77, 74
2, 99832, Note_on_c, 0, 77, 0
2, 99840, Note_on_c, 0, 80, 73
2, 99928, Note_on_c, 0, 80, 0
2, 99936, Note_on_c, 0, 79, 74
2, 100024, Note_on_c, 0, 79, 0
2, 100032, Note_on_c, 0, 79, 72
2, 100120, Note_on_c, 0, 79, 0
2, 100128, Note_on_c, 0, 75, 75
2, 100216, Note_on_c, 0, 75, 0
2, 100224, Note_on_c, 0, 82, 72
2, 100696, Note_on_c, 0, 82, 0
2, 100704, Note_on_c, 0, 81, 73
2, 100792, Note_on_c, 0, 81, 0
2, 100800, Note_on_c, 0, 80, 73
2, 100888, Note_on_c, 0, 80, 0
2, 100896, Note_on_c, 0, 77, 74
2, 100984, Note_on_c, 0, 77, 0
2, 100992, Note_on_c, 0, 80, 73
2, 101080, Note_on_c, 0, 80, 0
2, 101088, Note_on_c, 0, 79, 74
2, 101176, Note_on_c, 0, 79, 0
2, 101184, Note_on_c, 0, 79, 74
2, 101272, Note_on_c, 0, 79, 0
2, 101280, Note_on_c, 0, 75, 75
2, 101368, Note_on_c, 0, 75, 0
2, 101376, Note_on_c, 0, 72, 75
2, 101416, Note_on_c, 0, 72, 0
2, 101424, Note_on_c, 0, 76, 75
2, 101464, Note_on_c, 0, 76, 0
2, 101472, Note_on_c, 0, 77, 74
2, 101512, Note_on_c, 0, 77, 0
2, 101520, Note_on_c, 0, 80, 73
2, 101560, Note_on_c, 0, 80, 0
2, 101568, Note_on_c, 0, 83, 72
2, 101608, Note_on_c, 0, 83, 0
2, 101616, Note_on_c, 0, 84, 71
2, 101656, Note_on_c, 0, 84, 0
2, 101664, Note_on_c, 0, 80, 72
2, 101704, Note_on_c, 0, 80, 0
2, 101712, Note_on_c, 0, 77, 74
2, 101752, Note_on_c, 0, 77, 0
2, 101760, Note_on_c, 0, 75, 74
2, 102136, Note_on_c, 0, 75, 0
2, 102144, Note_on_c, 0, 79, 74
2, 102232, Note_on_c, 0, 79, 0
2, 102240, Note_on_c, 0, 77, 74
2, 102424, Note_on_c, 0, 77, 0
2, 102432, Note_on_c, 0, 75, 75
2, 102520, Note_on_c, 0, 75, 0
2, 102528, Note_on_c, 0, 75, 75
2, 102904, Note_on_c, 0, 75, 0
2, 103296, Note_on_c, 0, 51, 87
2, 103352, Note_on_c, 0, 51, 0
2, 103360, Note_on_c, 0, 55, 86
2, 103416, Note_on_c, 0, 55, 0
2, 103424, Note_on_c, 0, 58, 84
2, 103480, Note_on_c, 0, 58, 0
2, 103488, Note_on_c, 0, 63, 81
2, 103544, Note_on_c, 0, 63, 0
2, 103552, Note_on_c, 0, 67, 79
2, 103608, Note_on_c, 0, 67, 0
2, 103616, Note_on_c, 0, 70, 77
2, 103672, Note_on_c, 0, 70, 0
2, 103680, Note_on_c, 0, 70, 77
2, 104152, Note_on_c, 0, 70, 0
2, 104160, Note_on_c, 0, 69, 75
2, 104248, Note_on_c, 0, 69, 0
2, 104256, Note_on_c, 0, 68, 75
2, 104344, Note_on_c, 0, 68, 0
2, 104352, Note_on_c, 0, 65, 74
2, 104440, Note_on_c, 0, 65, 0
2, 104448, Note_on_c, 0, 68, 75
2, 104536, Note_on_c, 0, 68, 0
2, 104544, Note_on_c, 0, 67, 75
2, 104632, Note_on_c, 0, 67, 0
2, 104640, Note_on_c, 0, 67, 75
2, 104728, Note_on_c, 0, 67, 0
2, 104736, Note_on_c, 0, 63, 74
2, 104824, Note_on_c, 0, 63, 0
2, 104832, Note_on_c, 0, 58, 83
2, 105304, Note_on_c, 0, 58, 0
2, 105312, Note_on_c, 0, 57, 85
2, 105400, Note_on_c, 0, 57, 0
2, 105408, Note_on_c, 0, 56, 85
2, 105496, Note_on_c, 0, 56, 0
2, 105504, Note_on_c, 0, 53, 87
2, 105592, Note_on_c, 0, 53, 0
2, 105600, Note_on_c, 0, 56, 84
2, 105688, Note_on_c, 0, 56, 0
2, 105696, Note_on_c, 0, 55, 85
2, 105784, Note_on_c, 0, 55, 0
2, 105792, Note_on_c, 0, 55, 85
2, 105880, Note_on_c, 0, 55, 0
2, 105888, Note_on_c, 0, 51, 87
2, 105976, Note_on_c, 0, 51, 0
2, 105984, Note_on_c, 0, 53, 86
2, 106168, Note_on_c, 0, 53, 0
2, 106176, Note_on_c, 0, 84, 74
2, 106360, Note_on_c, 0, 84, 0
2, 106368, Note_on_c, 0, 82, 74
2, 106552, Note_on_c, 0, 82, 0
2, 106560, Note_on_c, 0, 80, 75
2, 106744, Note_on_c, 0, 80, 0
2, 106752, Note_on_c, 0, 79, 75
2, 106936, Note_on_c, 0, 79, 0
2, 106944, Note_on_c, 0, 77, 75
2, 107128, Note_on_c, 0, 77, 0
2, 107136, Note_on_c, 0, 75, 75
2, 107192, Note_on_c, 0, 75, 0
2, 107200, Note_on_c, 0, 70, 75
2, 107256, Note_on_c, 0, 70, 0
2, 107264, Note_on_c, 0, 72, 75
2, 107320, Note_on_c, 0, 72, 0
2, 107328, Note_on_c, 0, 73, 75
2, 107384, Note_on_c, 0, 73, 0
2, 107392, Note_on_c, 0, 74, 75
2, 107448, Note_on_c, 0, 74, 0
2, 107456, Note_on_c, 0, 75, 75
2, 107512, Note_on_c, 0, 75, 0
2, 107520, Note_on_c, 0, 76, 75
2, 107576, Note_on_c, 0, 76, 0
2, 107584, Note_on_c, 0, 77, 74
2, 107640, Note_on_c, 0, 77, 0
2, 107648, Note_on_c, 0, 78, 74
2, 107704, Note_on_c, 0, 78, 0
2, 107712, Note_on_c, 0, 79, 73
2, 107768, Note_on_c, 0, 79, 0
2, 107776, Note_on_c, 0, 80, 73
2, 107832, Note_on_c, 0, 80, 0
2, 107840, Note_on_c, 0, 81, 72
2, 107896, Note_on_c, 0, 81, 0
2, 107904, Note_on_c, 0, 82, 73
2, 107992, Note_on_c, 0, 82, 0
2, 108000, Note_on_c, 0, 81, 73
2, 108088, Note_on_c, 0, 81, 0
2, 108096, Note_on_c, 0, 80, 74
2, 108184, Note_on_c, 0, 80, 0
2, 108192, Note_on_c, 0, 79, 74
2, 108280, Note_on_c, 0, 79, 0
2, 108288, Note_on_c, 0, 77, 75
2, 108312, Note_on_c, 0, 77, 0
2, 108312, Note_on_c, 0, 79, 74
2, 108336, Note_on_c, 0, 79, 0
2, 108336, Note_on_c, 0, 77, 75
2, 108360, Note_on_c, 0, 77, 0
2, 108360, Note_on_c, 0, 79, 74
2, 108384, Note_on_c, 0, 79, 0
2, 108384, Note_on_c, 0, 77, 75
2, 108408, Note_on_c, 0, 77, 0
2, 108408, Note_on_c, 0, 79, 74
2, 108432, Note_on_c, 0, 79, 0
2, 108432, Note_on_c, 0, 77, 75
2, 108456, Note_on_c, 0, 77, 0
2, 108456, Note_on_c, 0, 79, 74
2, 108480, Note_on_c, 0, 79, 0
2, 108480, Note_on_c, 0, 77, 75
2, 108504, Note_on_c, 0, 77, 0
2, 108504, Note_on_c, 0, 79, 74
2, 108528, Note_on_c, 0, 79, 0
2, 108528, Note_on_c, 0, 77, 75
2, 108552, Note_on_c, 0, 77, 0
2, 108552, Note_on_c, 0, 79, 74
2, 108576, Note_on_c, 0, 79, 0
2, 108576, Note_on_c, 0, 77, 75
2, 108600, Note_on_c, 0, 77, 0
2, 108600, Note_on_c, 0, 79, 74
2, 108624, Note_on_c, 0, 79, 0
2, 108624, Note_on_c, 0, 77, 75
2, 108648, Note_on_c, 0, 77, 0
2, 108648, Note_on_c, 0, 79, 74
2, 108672, Note_on_c, 0, 79, 0
2, 108672, Note_on_c, 0, 77, 75
2, 108696, Note_on_c, 0, 77, 0
2, 108696, Note_on_c, 0, 79, 74
2, 108720, Note_on_c, 0, 79, 0
2, 108720, Note_on_c, 0, 77, 75
2, 108744, Note_on_c, 0, 77, 0
2, 108744, Note_on_c, 0, 79, 74
2, 108768, Note_on_c, 0, 79, 0
2, 108768, Note_on_c, 0, 77, 75
2, 108792, Note_on_c, 0, 77, 0
2, 108792, Note_on_c, 0, 79, 74
2, 108816, Note_on_c, 0, 79, 0
2, 108816, Note_on_c, 0, 77, 75
2, 108840, Note_on_c, 0, 77, 0
2, 108840, Note_on_c, 0, 79, 74
2, 108864, Note_on_c, 0, 79, 0
2, 108864, Note_on_c, 0, 77, 75
2, 108888, Note_on_c, 0, 77, 0
2, 108888, Note_on_c, 0, 79, 74
2, 108912, Note_on_c, 0, 79, 0
2, 108912, Note_on_c, 0, 77, 75
2, 108936, Note_on_c, 0, 77, 0
2, 108936, Note_on_c, 0, 79, 74
2, 108960, Note_on_c, 0, 79, 0
2, 108960, Note_on_c, 0, 77, 75
2, 108984, Note_on_c, 0, 77, 0
2, 108984, Note_on_c, 0, 79, 74
2, 109008, Note_on_c, 0, 79, 0
2, 109008, Note_on_c, 0, 77, 75
2, 109032, Note_on_c, 0, 77, 0
2, 109032, Note_on_c, 0, 79, 74
2, 109056, Note_on_c, 0, 79, 0
2, 109056, Note_on_c, 0, 77, 75
2, 109080, Note_on_c, 0, 77, 0
2, 109080, Note_on_c, 0, 79, 74
2, 109104, Note_on_c, 0, 79, 0
2, 109104, Note_on_c, 0, 77, 75
2, 109128, Note_on_c, 0, 77, 0
2, 109128, Note_on_c, 0, 79, 74
2, 109152, Note_on_c, 0, 79, 0
2, 109152, Note_on_c, 0, 77, 75
2, 109176, Note_on_c, 0, 77, 0
2, 109176, Note_on_c, 0, 79, 74
2, 109200, Note_on_c, 0, 79, 0
2, 109200, Note_on_c, 0, 77, 75
2, 109224, Note_on_c, 0, 77, 0
2, 109224, Note_on_c, 0, 79, 74
2, 109248, Note_on_c, 0, 79, 0
2, 109248, Note_on_c, 0, 75, 75
2, 109336, Note_on_c, 0, 75, 0
2, 109344, Note_on_c, 0, 77, 75
2, 109432, Note_on_c, 0, 77, 0
2, 109440, Note_on_c, 0, 75, 75
2, 109816, Note_on_c, 0, 75, 0
2, 110208, Note_on_c, 0, 75, 75
2, 110296, Note_on_c, 0, 75, 0
2, 110304, Note_on_c, 0, 74, 75
2, 110392, Note_on_c, 0, 74, 0
2, 110400, Note_on_c, 0, 77, 75
2, 110456, Note_on_c, 0, 77, 0
2, 110464, Note_on_c, 0, 75, 75
2, 110520, Note_on_c, 0, 75, 0
2, 110528, Note_on_c, 0, 72, 75
2, 110584, Note_on_c, 0, 72, 0
2, 110592, Note_on_c, 0, 70, 75
2, 111352, Note_on_c, 0, 70, 0
2, 111360, Note_on_c, 0, 69, 75
2, 111544, Note_on_c, 0, 69, 0
2, 111552, Note_on_c, 0, 68, 75
2, 111736, Note_on_c, 0, 68, 0
2, 111744, Note_on_c, 0, 67, 75
2, 112120, Note_on_c, 0, 67, 0
2, 112512, Note_on_c, 0, 53, 85
2, 112568, Note_on_c, 0, 53, 0
2, 112576, Note_on_c, 0, 56, 83
2, 112632, Note_on_c, 0, 56, 0
2, 112640, Note_on_c, 0, 55, 83
2, 112696, Note_on_c, 0, 55, 0
2, 112704, Note_on_c, 0, 53, 85
2, 112760, Note_on_c, 0, 53, 0
2, 112768, Note_on_c, 0, 56, 82
2, 112824, Note_on_c, 0, 56, 0
2, 112832, Note_on_c, 0, 60, 82
2, 112888, Note_on_c, 0, 60, 0
2, 112896, Note_on_c, 0, 58, 82
2, 113464, Note_on_c, 0, 58, 0
2, 113472, Note_on_c, 0, 58, 81
2, 113656, Note_on_c, 0, 58, 0
2, 113664, Note_on_c, 0, 60, 80
2, 113848, Note_on_c, 0, 60, 0
2, 113856, Note_on_c, 0, 62, 79
2, 114040, Note_on_c, 0, 62, 0
2, 114048, Note_on_c, 0, 63, 78
2, 114424, Note_on_c, 0, 63, 0
2, 114432, Note_on_c, 0, 63, 78
2, 114808, Note_on_c, 0, 63, 0
2, 114816, Note_on_c, 0, 63, 78
2, 115192, Note_on_c, 0, 63, 0
2, 115200, Note_on_c, 0, 63, 76
2, 115960, Note_on_c, 0, 63, 0
2, 115960, End_track
3, 0, Start_track
3, 0, MIDI_port, 0
3, 0, Title_t, "Concerto"
3, 0, Control_c, 1, 0, 0
3, 0, Control_c, 1, 32, 0
3, 0, Program_c, 1, 0
3, 0, Control_c, 1, 7, 100
3, 0, Control_c, 1, 10, 83
3, 0, Control_c, 1, 91, 88
3, 0, Control_c, 1, 93, 93
3, 0, Control_c, 1, 121, 0
3, 96, Control_c, 1, 10, 43
3, 192, Control_c, 1, 91, 63
3, 240, Control_c, 1, 93, 40
3, 288, Program_c, 1, 48
3, 1152, Note_on_c, 1, 67, 70
3, 1152, Note_on_c, 1, 63, 70
3, 1336, Note_on_c, 1, 63, 0
3, 1336, Note_on_c, 1, 67, 0
3, 1344, Note_on_c, 1, 58, 70
3, 1528, Note_on_c, 1, 58, 0
3, 1536, Note_on_c, 1, 67, 70
3, 1536, Note_on_c, 1, 63, 70
3, 1720, Note_on_c, 1, 63, 0
3, 1720, Note_on_c, 1, 67, 0
3, 1728, Note_on_c, 1, 58, 70
3, 1912, Note_on_c, 1, 58, 0
3, 1920, Note_on_c, 1, 67, 70
3, 1920, Note_on_c, 1, 63, 70
3, 2104, Note_on_c, 1, 63, 0
3, 2104, Note_on_c, 1, 67, 0
3, 2112, Note_on_c, 1, 58, 70
3, 2296, Note_on_c, 1, 58, 0
3, 2304, Note_on_c, 1, 68, 70
3, 2304, Note_on_c, 1, 62, 70
3, 2488, Note_on_c, 1, 62, 0
3, 2488, Note_on_c, 1, 68, 0
3, 2496, Note_on_c, 1, 58, 70
3, 2680, Note_on_c, 1, 58, 0
3, 2688, Note_on_c, 1, 67, 70
3, 2688, Note_on_c, 1, 63, 70
3, 2872, Note_on_c, 1, 63, 0
3, 2872, Note_on_c, 1, 67, 0
3, 2880, Note_on_c, 1, 58, 70
3, 3064, Note_on_c, 1, 58, 0
3, 3072, Note_on_c, 1, 67, 70
3, 3072, Note_on_c, 1, 63, 70
3, 3256, Note_on_c, 1, 63, 0
3, 3256, Note_on_c, 1, 67, 0
3, 3264, Note_on_c, 1, 58, 70
3, 3448, Note_on_c, 1, 58, 0
3, 3456, Note_on_c, 1, 67, 70
3, 3456, Note_on_c, 1, 63, 70
3, 3648, Note_on_c, 1, 58, 70
3, 3736, Note_on_c, 1, 63, 0
3, 3736, Note_on_c, 1, 67, 0
3, 3832, Note_on_c, 1, 58, 0
3, 3840, Note_on_c, 1, 67, 70
3, 3840, Note_on_c, 1, 63, 70
3, 4024, Note_on_c, 1, 63, 0
3, 4024, Note_on_c, 1, 67, 0
3, 4032, Note_on_c, 1, 58, 70
3, 4216, Note_on_c, 1, 58, 0
3, 4224, Note_on_c, 1, 67, 70
3, 4224, Note_on_c, 1, 63, 70
3, 4408, Note_on_c, 1, 63, 0
3, 4408, Note_on_c, 1, 67, 0
3, 4416, Note_on_c, 1, 58, 70
3, 4600, Note_on_c, 1, 58, 0
3, 4608, Note_on_c, 1, 65, 70
3, 4608, Note_on_c, 1, 62, 70
3, 4792, Note_on_c, 1, 62, 0
3, 4792, Note_on_c, 1, 65, 0
3, 4800, Note_on_c, 1, 58, 70
3, 4984, Note_on_c, 1, 58, 0
3, 4992, Note_on_c, 1, 67, 70
3, 4992, Note_on_c, 1, 63, 70
3, 5176, Note_on_c, 1, 63, 0
3, 5176, Note_on_c, 1, 67, 0
3, 5184, Note_on_c, 1, 58, 70
3, 5368, Note_on_c, 1, 58, 0
3, 5376, Note_on_c, 1, 67, 70
3, 5376, Note_on_c, 1, 63, 70
3, 5560, Note_on_c, 1, 63, 0
3, 5560, Note_on_c, 1, 67, 0
3, 5568, Note_on_c, 1, 58, 70
3, 5752, Note_on_c, 1, 58, 0
3, 5760, Note_on_c, 1, 65, 70
3, 5760, Note_on_c, 1, 62, 70
3, 5944, Note_on_c, 1, 62, 0
3, 5944, Note_on_c, 1, 65, 0
3, 5952, Note_on_c, 1, 58, 70
3, 6136, Note_on_c, 1, 58, 0
3, 6144, Note_on_c, 1, 65, 70
3, 6144, Note_on_c, 1, 62, 70
3, 6328, Note_on_c, 1, 62, 0
3, 6328, Note_on_c, 1, 65, 0
3, 6336, Note_on_c, 1, 58, 70
3, 6520, Note_on_c, 1, 58, 0
3, 6528, Note_on_c, 1, 67, 70
3, 6528, Note_on_c, 1, 63, 70
3, 6712, Note_on_c, 1, 63, 0
3, 6712, Note_on_c, 1, 67, 0
3, 6720, Note_on_c, 1, 58, 70
3, 6904, Note_on_c, 1, 58, 0
3, 6912, Note_on_c, 1, 65, 70
3, 6912, Note_on_c, 1, 62, 70
3, 7096, Note_on_c, 1, 62, 0
3, 7096, Note_on_c, 1, 65, 0
3, 7104, Note_on_c, 1, 58, 70
3, 7288, Note_on_c, 1, 58, 0
3, 7296, Note_on_c, 1, 65, 70
3, 7296, Note_on_c, 1, 62, 70
3, 7480, Note_on_c, 1, 62, 0
3, 7480, Note_on_c, 1, 65, 0
3, 7488, Note_on_c, 1, 58, 70
3, 7672, Note_on_c, 1, 58, 0
3, 7680, Note_on_c, 1, 63, 70
3, 7680, Note_on_c, 1, 60, 70
3, 7864, Note_on_c, 1, 60, 0
3, 7864, Note_on_c, 1, 63, 0
3, 7872, Note_on_c, 1, 67, 70
3, 8056, Note_on_c, 1, 67, 0
3, 8064, Note_on_c, 1, 62, 70
3, 8064, Note_on_c, 1, 58, 70
3, 8248, Note_on_c, 1, 58, 0
3, 8248, Note_on_c, 1, 62, 0
3, 8256, Note_on_c, 1, 65, 70
3, 8440, Note_on_c, 1, 65, 0
3, 8448, Note_on_c, 1, 62, 70
3, 8448, Note_on_c, 1, 58, 70
3, 8632, Note_on_c, 1, 58, 0
3, 8632, Note_on_c, 1, 62, 0
3, 8640, Note_on_c, 1, 65, 70
3, 8824, Note_on_c, 1, 65, 0
3, 8832, Note_on_c, 1, 63, 70
3, 8832, Note_on_c, 1, 56, 70
3, 9016, Note_on_c, 1, 56, 0
3, 9016, Note_on_c, 1, 63, 0
3, 9024, Note_on_c, 1, 65, 70
3, 9208, Note_on_c, 1, 65, 0
3, 9216, Note_on_c, 1, 62, 70
3, 9216, Note_on_c, 1, 58, 70
3, 9400, Note_on_c, 1, 58, 0
3, 9400, Note_on_c, 1, 62, 0
3, 9408, Note_on_c, 1, 72, 100
3, 9408, Note_on_c, 1, 68, 100
3, 9592, Note_on_c, 1, 68, 0
3, 9592, Note_on_c, 1, 72, 0
3, 9600, Note_on_c, 1, 70, 100
3, 9600, Note_on_c, 1, 67, 100
3, 9784, Note_on_c, 1, 67, 0
3, 9784, Note_on_c, 1, 70, 0
3, 9792, Note_on_c, 1, 68, 100
3, 9792, Note_on_c, 1, 65, 100
3, 9976, Note_on_c, 1, 65, 0
3, 9976, Note_on_c, 1, 68, 0
3, 9984, Note_on_c, 1, 67, 100
3, 9984, Note_on_c, 1, 63, 100
3, 10168, Note_on_c, 1, 63, 0
3, 10168, Note_on_c, 1, 67, 0
3, 10176, Note_on_c, 1, 65, 100
3, 10176, Note_on_c, 1, 62, 100
3, 10360, Note_on_c, 1, 62, 0
3, 10360, Note_on_c, 1, 65, 0
3, 10368, Note_on_c, 1, 70, 100
3, 10368, Note_on_c, 1, 67, 100
3, 10744, Note_on_c, 1, 67, 0
3, 10744, Note_on_c, 1, 70, 0
3, 10752, Note_on_c, 1, 67, 100
3, 10752, Note_on_c, 1, 75, 100
3, 11320, Note_on_c, 1, 75, 0
3, 11320, Note_on_c, 1, 67, 0
3, 11328, Note_on_c, 1, 79, 100
3, 11328, Note_on_c, 1, 70, 100
3, 11512, Note_on_c, 1, 70, 0
3, 11512, Note_on_c, 1, 79, 0
3, 11520, Note_on_c, 1, 79, 100
3, 11520, Note_on_c, 1, 70, 100
3, 11704, Note_on_c, 1, 70, 0
3, 11704, Note_on_c, 1, 79, 0
3, 11712, Note_on_c, 1, 77, 100
3, 11896, Note_on_c, 1, 77, 0
3, 11904, Note_on_c, 1, 75, 100
3, 11904, Note_on_c, 1, 67, 100
3, 12280, Note_on_c, 1, 67, 0
3, 12280, Note_on_c, 1, 75, 0
3, 12672, Note_on_c, 1, 70, 100
3, 12672, Note_on_c, 1, 67, 100
3, 13240, Note_on_c, 1, 67, 0
3, 13240, Note_on_c, 1, 70, 0
3, 13248, Note_on_c, 1, 75, 100
3, 13248, Note_on_c, 1, 70, 100
3, 13432, Note_on_c, 1, 70, 0
3, 13432, Note_on_c, 1, 75, 0
3, 13440, Note_on_c, 1, 79, 100
3, 13440, Note_on_c, 1, 75, 100
3, 13624, Note_on_c, 1, 75, 0
3, 13624, Note_on_c, 1, 79, 0
3, 13632, Note_on_c, 1, 82, 105
3, 13632, Note_on_c, 1, 79, 100
3, 13816, Note_on_c, 1, 79, 0
3, 13816, Note_on_c, 1, 82, 0
3, 13824, Note_on_c, 1, 82, 105
3, 13824, Note_on_c, 1, 77, 100
3, 14008, Note_on_c, 1, 77, 0
3, 14008, Note_on_c, 1, 82, 0
3, 14016, Note_on_c, 1, 80, 100
3, 14200, Note_on_c, 1, 80, 0
3, 14208, Note_on_c, 1, 79, 100
3, 14208, Note_on_c, 1, 75, 100
3, 14584, Note_on_c, 1, 75, 0
3, 14584, Note_on_c, 1, 79, 0
3, 14976, Note_on_c, 1, 77, 100
3, 14976, Note_on_c, 1, 74, 100
3, 15544, Note_on_c, 1, 74, 0
3, 15544, Note_on_c, 1, 77, 0
3, 15552, Note_on_c, 1, 82, 100
3, 15552, Note_on_c, 1, 70, 100
3, 15736, Note_on_c, 1, 70, 0
3, 15736, Note_on_c, 1, 82, 0
3, 15744, Note_on_c, 1, 79, 100
3, 15744, Note_on_c, 1, 75, 100
3, 15928, Note_on_c, 1, 75, 0
3, 15928, Note_on_c, 1, 79, 0
3, 15936, Note_on_c, 1, 82, 100
3, 15936, Note_on_c, 1, 70, 100
3, 16120, Note_on_c, 1, 70, 0
3, 16120, Note_on_c, 1, 82, 0
3, 16128, Note_on_c, 1, 77, 100
3, 16128, Note_on_c, 1, 74, 100
3, 16696, Note_on_c, 1, 74, 0
3, 16696, Note_on_c, 1, 77, 0
3, 16704, Note_on_c, 1, 82, 100
3, 16704, Note_on_c, 1, 70, 100
3, 16888, Note_on_c, 1, 70, 0
3, 16888, Note_on_c, 1, 82, 0
3, 16896, Note_on_c, 1, 72, 100
3, 17080, Note_on_c, 1, 72, 0
3, 17088, Note_on_c, 1, 75, 100
3, 17088, Note_on_c, 1, 79, 100
3, 17272, Note_on_c, 1, 79, 0
3, 17272, Note_on_c, 1, 75, 0
3, 17280, Note_on_c, 1, 70, 100
3, 17280, Note_on_c, 1, 62, 100
3, 18040, Note_on_c, 1, 62, 0
3, 18040, Note_on_c, 1, 70, 0
3, 18048, Note_on_c, 1, 74, 100
3, 18048, Note_on_c, 1, 65, 100
3, 18136, Note_on_c, 1, 65, 0
3, 18136, Note_on_c, 1, 74, 0
3, 18144, Note_on_c, 1, 63, 100
3, 18144, Note_on_c, 1, 72, 100
3, 18328, Note_on_c, 1, 72, 0
3, 18328, Note_on_c, 1, 63, 0
3, 18336, Note_on_c, 1, 70, 100
3, 18336, Note_on_c, 1, 63, 100
3, 18424, Note_on_c, 1, 63, 0
3, 18424, Note_on_c, 1, 70, 0
3, 18432, Note_on_c, 1, 70, 100
3, 18432, Note_on_c, 1, 62, 100
3, 18616, Note_on_c, 1, 62, 0
3, 18616, Note_on_c, 1, 70, 0
3, 18624, Note_on_c, 1, 72, 80
3, 18624, Note_on_c, 1, 68, 78
3, 18808, Note_on_c, 1, 68, 0
3, 18808, Note_on_c, 1, 72, 0
3, 18816, Note_on_c, 1, 70, 75
3, 18816, Note_on_c, 1, 67, 75
3, 19000, Note_on_c, 1, 67, 0
3, 19000, Note_on_c, 1, 70, 0
3, 19008, Note_on_c, 1, 68, 75
3, 19008, Note_on_c, 1, 65, 75
3, 19192, Note_on_c, 1, 65, 0
3, 19192, Note_on_c, 1, 68, 0
3, 19200, Note_on_c, 1, 67, 75
3, 19200, Note_on_c, 1, 63, 75
3, 19384, Note_on_c, 1, 63, 0
3, 19384, Note_on_c, 1, 67, 0
3, 19392, Note_on_c, 1, 65, 75
3, 19392, Note_on_c, 1, 62, 75
3, 19576, Note_on_c, 1, 62, 0
3, 19576, Note_on_c, 1, 65, 0
3, 19584, Note_on_c, 1, 67, 75
3, 19584, Note_on_c, 1, 63, 75
3, 19768, Note_on_c, 1, 63, 0
3, 19768, Note_on_c, 1, 67, 0
3, 19776, Note_on_c, 1, 58, 75
3, 19960, Note_on_c, 1, 58, 0
3, 19968, Note_on_c, 1, 67, 75
3, 19968, Note_on_c, 1, 63, 75
3, 20152, Note_on_c, 1, 63, 0
3, 20152, Note_on_c, 1, 67, 0
3, 20160, Note_on_c, 1, 58, 75
3, 20344, Note_on_c, 1, 58, 0
3, 20352, Note_on_c, 1, 67, 75
3, 20352, Note_on_c, 1, 63, 75
3, 20536, Note_on_c, 1, 63, 0
3, 20536, Note_on_c, 1, 67, 0
3, 20544, Note_on_c, 1, 58, 75
3, 20728, Note_on_c, 1, 58, 0
3, 20736, Note_on_c, 1, 63, 75
3, 20736, Note_on_c, 1, 60, 75
3, 20928, Note_on_c, 1, 72, 80
3, 20928, Note_on_c, 1, 68, 78
3, 21016, Note_on_c, 1, 60, 0
3, 21016, Note_on_c, 1, 63, 0
3, 21304, Note_on_c, 1, 72, 0
3, 21304, Note_on_c, 1, 68, 0
3, 21312, Note_on_c, 1, 70, 75
3, 21312, Note_on_c, 1, 67, 75
3, 21496, Note_on_c, 1, 67, 0
3, 21496, Note_on_c, 1, 70, 0
3, 21504, Note_on_c, 1, 68, 75
3, 21504, Note_on_c, 1, 65, 75
3, 21688, Note_on_c, 1, 65, 0
3, 21688, Note_on_c, 1, 68, 0
3, 21696, Note_on_c, 1, 67, 75
3, 21696, Note_on_c, 1, 64, 75
3, 21880, Note_on_c, 1, 64, 0
3, 21880, Note_on_c, 1, 67, 0
3, 21888, Note_on_c, 1, 68, 75
3, 21888, Note_on_c, 1, 65, 75
3, 22072, Note_on_c, 1, 65, 0
3, 22072, Note_on_c, 1, 68, 0
3, 22080, Note_on_c, 1, 60, 75
3, 22264, Note_on_c, 1, 60, 0
3, 22272, Note_on_c, 1, 68, 75
3, 22272, Note_on_c, 1, 65, 75
3, 22456, Note_on_c, 1, 65, 0
3, 22456, Note_on_c, 1, 68, 0
3, 22464, Note_on_c, 1, 60, 75
3, 22648, Note_on_c, 1, 60, 0
3, 22656, Note_on_c, 1, 68, 75
3, 22656, Note_on_c, 1, 65, 75
3, 22840, Note_on_c, 1, 65, 0
3, 22840, Note_on_c, 1, 68, 0
3, 22848, Note_on_c, 1, 60, 75
3, 23032, Note_on_c, 1, 60, 0
3, 23040, Note_on_c, 1, 65, 75
3, 23040, Note_on_c, 1, 62, 75
3, 23224, Note_on_c, 1, 62, 0
3, 23224, Note_on_c, 1, 65, 0
3, 23232, Note_on_c, 1, 74, 80
3, 23232, Note_on_c, 1, 70, 78
3, 23608, Note_on_c, 1, 70, 0
3, 23608, Note_on_c, 1, 74, 0
3, 23616, Note_on_c, 1, 72, 75
3, 23616, Note_on_c, 1, 69, 75
3, 23800, Note_on_c, 1, 69, 0
3, 23800, Note_on_c, 1, 72, 0
3, 23808, Note_on_c, 1, 70, 75
3, 23808, Note_on_c, 1, 67, 75
3, 23992, Note_on_c, 1, 67, 0
3, 23992, Note_on_c, 1, 70, 0
3, 24000, Note_on_c, 1, 69, 75
3, 24000, Note_on_c, 1, 66, 75
3, 24184, Note_on_c, 1, 66, 0
3, 24184, Note_on_c, 1, 69, 0
3, 24192, Note_on_c, 1, 74, 75
3, 24192, Note_on_c, 1, 67, 75
3, 24376, Note_on_c, 1, 67, 0
3, 24376, Note_on_c, 1, 74, 0
3, 24384, Note_on_c, 1, 62, 75
3, 24568, Note_on_c, 1, 62, 0
3, 24576, Note_on_c, 1, 60, 75
3, 24760, Note_on_c, 1, 60, 0
3, 24768, Note_on_c, 1, 65, 75
3, 24952, Note_on_c, 1, 65, 0
3, 24960, Note_on_c, 1, 62, 75
3, 25144, Note_on_c, 1, 62, 0
3, 25152, Note_on_c, 1, 68, 75
3, 25336, Note_on_c, 1, 68, 0
3, 25344, Note_on_c, 1, 67, 75
3, 25528, Note_on_c, 1, 67, 0
3, 25536, Note_on_c, 1, 63, 75
3, 25720, Note_on_c, 1, 63, 0
3, 25728, Note_on_c, 1, 65, 75
3, 25728, Note_on_c, 1, 62, 75
3, 25912, Note_on_c, 1, 62, 0
3, 25912, Note_on_c, 1, 65, 0
3, 25920, Note_on_c, 1, 70, 75
3, 26104, Note_on_c, 1, 70, 0
3, 26112, Note_on_c, 1, 63, 75
3, 26296, Note_on_c, 1, 63, 0
3, 26304, Note_on_c, 1, 70, 75
3, 26488, Note_on_c, 1, 70, 0
3, 26496, Note_on_c, 1, 65, 75
3, 26496, Note_on_c, 1, 60, 75
3, 26680, Note_on_c, 1, 60, 0
3, 26680, Note_on_c, 1, 65, 0
3, 26688, Note_on_c, 1, 68, 75
3, 26872, Note_on_c, 1, 68, 0
3, 26880, Note_on_c, 1, 67, 75
3, 26880, Note_on_c, 1, 63, 75
3, 27064, Note_on_c, 1, 63, 0
3, 27064, Note_on_c, 1, 67, 0
3, 27072, Note_on_c, 1, 70, 75
3, 27256, Note_on_c, 1, 70, 0
3, 27264, Note_on_c, 1, 62, 75
3, 27264, Note_on_c, 1, 58, 75
3, 27448, Note_on_c, 1, 58, 0
3, 27448, Note_on_c, 1, 62, 0
3, 27456, Note_on_c, 1, 65, 75
3, 27456, Note_on_c, 1, 56, 75
3, 27640, Note_on_c, 1, 56, 0
3, 27640, Note_on_c, 1, 65, 0
3, 27648, Note_on_c, 1, 63, 75
3, 27648, Note_on_c, 1, 55, 75
3, 27832, Note_on_c, 1, 55, 0
3, 27832, Note_on_c, 1, 63, 0
3, 27840, Note_on_c, 1, 72, 100
3, 27840, Note_on_c, 1, 68, 100
3, 28024, Note_on_c, 1, 68, 0
3, 28024, Note_on_c, 1, 72, 0
3, 28032, Note_on_c, 1, 70, 100
3, 28032, Note_on_c, 1, 67, 100
3, 28216, Note_on_c, 1, 67, 0
3, 28216, Note_on_c, 1, 70, 0
3, 28224, Note_on_c, 1, 68, 100
3, 28224, Note_on_c, 1, 65, 100
3, 28408, Note_on_c, 1, 65, 0
3, 28408, Note_on_c, 1, 68, 0
3, 28416, Note_on_c, 1, 67, 100
3, 28416, Note_on_c, 1, 63, 100
3, 28600, Note_on_c, 1, 63, 0
3, 28600, Note_on_c, 1, 67, 0
3, 28608, Note_on_c, 1, 65, 100
3, 28608, Note_on_c, 1, 62, 100
3, 28792, Note_on_c, 1, 62, 0
3, 28792, Note_on_c, 1, 65, 0
3, 28800, Note_on_c, 1, 79, 110
3, 28800, Note_on_c, 1, 75, 105
3, 28984, Note_on_c, 1, 75, 0
3, 28992, Note_on_c, 1, 67, 100
3, 29176, Note_on_c, 1, 67, 0
3, 29184, Note_on_c, 1, 75, 100
3, 29368, Note_on_c, 1, 75, 0
3, 29368, Note_on_c, 1, 79, 0
3, 29376, Note_on_c, 1, 77, 105
3, 29376, Note_on_c, 1, 74, 100
3, 29560, Note_on_c, 1, 74, 0
3, 29560, Note_on_c, 1, 77, 0
3, 29568, Note_on_c, 1, 75, 100
3, 29568, Note_on_c, 1, 72, 100
3, 29752, Note_on_c, 1, 72, 0
3, 29752, Note_on_c, 1, 75, 0
3, 29760, Note_on_c, 1, 74, 100
3, 29760, Note_on_c, 1, 70, 100
3, 29944, Note_on_c, 1, 70, 0
3, 29944, Note_on_c, 1, 74, 0
3, 29952, Note_on_c, 1, 72, 100
3, 29952, Note_on_c, 1, 68, 100
3, 30136, Note_on_c, 1, 68, 0
3, 30136, Note_on_c, 1, 72, 0
3, 30144, Note_on_c, 1, 68, 100
3, 30144, Note_on_c, 1, 72, 100
3, 30336, Note_on_c, 1, 61, 100
3, 30520, Note_on_c, 1, 72, 0
3, 30520, Note_on_c, 1, 68, 0
3, 30528, Note_on_c, 1, 70, 100
3, 30528, Note_on_c, 1, 67, 100
3, 30712, Note_on_c, 1, 67, 0
3, 30712, Note_on_c, 1, 70, 0
3, 30712, Note_on_c, 1, 61, 0
3, 30720, Note_on_c, 1, 68, 100
3, 30720, Note_on_c, 1, 65, 100
3, 30720, Note_on_c, 1, 60, 100
3, 30904, Note_on_c, 1, 60, 0
3, 30904, Note_on_c, 1, 65, 0
3, 30904, Note_on_c, 1, 68, 0
3, 30912, Note_on_c, 1, 67, 100
3, 30912, Note_on_c, 1, 64, 100
3, 30912, Note_on_c, 1, 58, 100
3, 31096, Note_on_c, 1, 58, 0
3, 31096, Note_on_c, 1, 64, 0
3, 31096, Note_on_c, 1, 67, 0
3, 31104, Note_on_c, 1, 80, 105
3, 31104, Note_on_c, 1, 77, 100
3, 31288, Note_on_c, 1, 77, 0
3, 31296, Note_on_c, 1, 68, 100
3, 31480, Note_on_c, 1, 68, 0
3, 31488, Note_on_c, 1, 72, 100
3, 31672, Note_on_c, 1, 72, 0
3, 31672, Note_on_c, 1, 80, 0
3, 31680, Note_on_c, 1, 79, 105
3, 31680, Note_on_c, 1, 70, 100
3, 31864, Note_on_c, 1, 70, 0
3, 31864, Note_on_c, 1, 79, 0
3, 31872, Note_on_c, 1, 77, 100
3, 31872, Note_on_c, 1, 68, 100
3, 32056, Note_on_c, 1, 68, 0
3, 32056, Note_on_c, 1, 77, 0
3, 32064, Note_on_c, 1, 75, 100
3, 32064, Note_on_c, 1, 67, 100
3, 32248, Note_on_c, 1, 67, 0
3, 32248, Note_on_c, 1, 75, 0
3, 32256, Note_on_c, 1, 74, 100
3, 32256, Note_on_c, 1, 65, 100
3, 32440, Note_on_c, 1, 65, 0
3, 32440, Note_on_c, 1, 74, 0
3, 32448, Note_on_c, 1, 70, 100
3, 32448, Note_on_c, 1, 74, 100
3, 32824, Note_on_c, 1, 74, 0
3, 32824, Note_on_c, 1, 70, 0
3, 32832, Note_on_c, 1, 72, 100
3, 32832, Note_on_c, 1, 69, 100
3, 33016, Note_on_c, 1, 69, 0
3, 33016, Note_on_c, 1, 72, 0
3, 33024, Note_on_c, 1, 70, 100
3, 33024, Note_on_c, 1, 67, 100
3, 33024, Note_on_c, 1, 62, 100
3, 33208, Note_on_c, 1, 62, 0
3, 33208, Note_on_c, 1, 67, 0
3, 33208, Note_on_c, 1, 70, 0
3, 33216, Note_on_c, 1, 69, 100
3, 33216, Note_on_c, 1, 66, 100
3, 33216, Note_on_c, 1, 60, 100
3, 33400, Note_on_c, 1, 60, 0
3, 33400, Note_on_c, 1, 66, 0
3, 33400, Note_on_c, 1, 69, 0
3, 33408, Note_on_c, 1, 82, 110
3, 33408, Note_on_c, 1, 79, 105
3, 33592, Note_on_c, 1, 79, 0
3, 33600, Note_on_c, 1, 70, 100
3, 33784, Note_on_c, 1, 70, 0
3, 33792, Note_on_c, 1, 74, 100
3, 33976, Note_on_c, 1, 74, 0
3, 33976, Note_on_c, 1, 82, 0
3, 33984, Note_on_c, 1, 80, 105
3, 33984, Note_on_c, 1, 77, 100
3, 33984, Note_on_c, 1, 72, 100
3, 34168, Note_on_c, 1, 72, 0
3, 34168, Note_on_c, 1, 77, 0
3, 34168, Note_on_c, 1, 80, 0
3, 34176, Note_on_c, 1, 79, 100
3, 34176, Note_on_c, 1, 75, 100
3, 34176, Note_on_c, 1, 70, 100
3, 34360, Note_on_c, 1, 70, 0
3, 34360, Note_on_c, 1, 75, 0
3, 34360, Note_on_c, 1, 79, 0
3, 34368, Note_on_c, 1, 77, 100
3, 34368, Note_on_c, 1, 68, 100
3, 34552, Note_on_c, 1, 68, 0
3, 34552, Note_on_c, 1, 77, 0
3, 34560, Note_on_c, 1, 75, 100
3, 34560, Note_on_c, 1, 67, 100
3, 34648, Note_on_c, 1, 67, 0
3, 34752, Note_on_c, 1, 72, 100
3, 34840, Note_on_c, 1, 72, 0
3, 34840, Note_on_c, 1, 75, 0
3, 34848, Note_on_c, 1, 80, 105
3, 34936, Note_on_c, 1, 80, 0
3, 34944, Note_on_c, 1, 80, 100
3, 34944, Note_on_c, 1, 70, 100
3, 35032, Note_on_c, 1, 70, 0
3, 35136, Note_on_c, 1, 77, 100
3, 35224, Note_on_c, 1, 77, 0
3, 35328, Note_on_c, 1, 70, 100
3, 35416, Note_on_c, 1, 70, 0
3, 35512, Note_on_c, 1, 80, 0
3, 35520, Note_on_c, 1, 79, 100
3, 35520, Note_on_c, 1, 75, 100
3, 35608, Note_on_c, 1, 75, 0
3, 35608, Note_on_c, 1, 79, 0
3, 35712, Note_on_c, 1, 77, 100
3, 35712, Note_on_c, 1, 72, 100
3, 35800, Note_on_c, 1, 77, 0
3, 35808, Note_on_c, 1, 84, 105
3, 35896, Note_on_c, 1, 84, 0
3, 35904, Note_on_c, 1, 80, 100
3, 35992, Note_on_c, 1, 80, 0
3, 36000, Note_on_c, 1, 77, 100
3, 36088, Note_on_c, 1, 77, 0
3, 36088, Note_on_c, 1, 72, 0
3, 36096, Note_on_c, 1, 75, 100
3, 36096, Note_on_c, 1, 67, 100
3, 36280, Note_on_c, 1, 67, 0
3, 36288, Note_on_c, 1, 70, 100
3, 36472, Note_on_c, 1, 70, 0
3, 36472, Note_on_c, 1, 75, 0
3, 36480, Note_on_c, 1, 68, 100
3, 36480, Note_on_c, 1, 79, 105
3, 36480, Note_on_c, 1, 74, 100
3, 36560, Note_on_c, 1, 77, 100
3, 36568, Note_on_c, 1, 79, 0
3, 36664, Note_on_c, 1, 68, 0
3, 36672, Note_on_c, 1, 70, 100
3, 36744, Note_on_c, 1, 77, 0
3, 36768, Note_on_c, 1, 75, 100
3, 36856, Note_on_c, 1, 75, 0
3, 36856, Note_on_c, 1, 70, 0
3, 36856, Note_on_c, 1, 74, 0
3, 36864, Note_on_c, 1, 75, 105
3, 36864, Note_on_c, 1, 67, 100
3, 37048, Note_on_c, 1, 67, 0
3, 37048, Note_on_c, 1, 75, 0
3, 37056, Note_on_c, 1, 72, 75
3, 37056, Note_on_c, 1, 68, 75
3, 37240, Note_on_c, 1, 68, 0
3, 37240, Note_on_c, 1, 72, 0
3, 37248, Note_on_c, 1, 70, 75
3, 37248, Note_on_c, 1, 67, 75
3, 37432, Note_on_c, 1, 67, 0
3, 37432, Note_on_c, 1, 70, 0
3, 37440, Note_on_c, 1, 68, 75
3, 37440, Note_on_c, 1, 65, 75
3, 37624, Note_on_c, 1, 65, 0
3, 37624, Note_on_c, 1, 68, 0
3, 37632, Note_on_c, 1, 67, 75
3, 37632, Note_on_c, 1, 63, 75
3, 37816, Note_on_c, 1, 63, 0
3, 37816, Note_on_c, 1, 67, 0
3, 37824, Note_on_c, 1, 65, 75
3, 37824, Note_on_c, 1, 62, 75
3, 38008, Note_on_c, 1, 62, 0
3, 38008, Note_on_c, 1, 65, 0
3, 38208, Note_on_c, 1, 67, 75
3, 38208, Note_on_c, 1, 63, 75
3, 38208, Note_on_c, 1, 58, 75
3, 38392, Note_on_c, 1, 58, 0
3, 38392, Note_on_c, 1, 63, 0
3, 38392, Note_on_c, 1, 67, 0
3, 38400, Note_on_c, 1, 67, 75
3, 38400, Note_on_c, 1, 63, 75
3, 38400, Note_on_c, 1, 58, 75
3, 38584, Note_on_c, 1, 58, 0
3, 38584, Note_on_c, 1, 63, 0
3, 38584, Note_on_c, 1, 67, 0
3, 38592, Note_on_c, 1, 67, 80
3, 38592, Note_on_c, 1, 63, 75
3, 38592, Note_on_c, 1, 58, 78
3, 38776, Note_on_c, 1, 58, 0
3, 38776, Note_on_c, 1, 63, 0
3, 38776, Note_on_c, 1, 67, 0
3, 38784, Note_on_c, 1, 67, 75
3, 38784, Note_on_c, 1, 63, 75
3, 38784, Note_on_c, 1, 58, 75
3, 38968, Note_on_c, 1, 58, 0
3, 38968, Note_on_c, 1, 63, 0
3, 38968, Note_on_c, 1, 67, 0
3, 38976, Note_on_c, 1, 67, 75
3, 38976, Note_on_c, 1, 63, 75
3, 38976, Note_on_c, 1, 58, 75
3, 39160, Note_on_c, 1, 58, 0
3, 39160, Note_on_c, 1, 63, 0
3, 39160, Note_on_c, 1, 67, 0
3, 39360, Note_on_c, 1, 65, 75
3, 39360, Note_on_c, 1, 62, 75
3, 39360, Note_on_c, 1, 58, 75
3, 39544, Note_on_c, 1, 58, 0
3, 39544, Note_on_c, 1, 62, 0
3, 39544, Note_on_c, 1, 65, 0
3, 39552, Note_on_c, 1, 65, 75
3, 39552, Note_on_c, 1, 62, 75
3, 39552, Note_on_c, 1, 58, 75
3, 39736, Note_on_c, 1, 58, 0
3, 39736, Note_on_c, 1, 62, 0
3, 39736, Note_on_c, 1, 65, 0
3, 39744, Note_on_c, 1, 65, 75
3, 39744, Note_on_c, 1, 62, 75
3, 39744, Note_on_c, 1, 58, 75
3, 39928, Note_on_c, 1, 58, 0
3, 39928, Note_on_c, 1, 62, 0
3, 39928, Note_on_c, 1, 65, 0
3, 39936, Note_on_c, 1, 65, 75
3, 39936, Note_on_c, 1, 62, 75
3, 39936, Note_on_c, 1, 58, 75
3, 40120, Note_on_c, 1, 58, 0
3, 40120, Note_on_c, 1, 62, 0
3, 40120, Note_on_c, 1, 65, 0
3, 40128, Note_on_c, 1, 65, 75
3, 40128, Note_on_c, 1, 62, 75
3, 40128, Note_on_c, 1, 58, 75
3, 40312, Note_on_c, 1, 58, 0
3, 40312, Note_on_c, 1, 62, 0
3, 40312, Note_on_c, 1, 65, 0
3, 40512, Note_on_c, 1, 63, 75
3, 40512, Note_on_c, 1, 60, 75
3, 40512, Note_on_c, 1, 57, 75
3, 40888, Note_on_c, 1, 57, 0
3, 40888, Note_on_c, 1, 60, 0
3, 40888, Note_on_c, 1, 63, 0
3, 40896, Note_on_c, 1, 67, 75
3, 40896, Note_on_c, 1, 63, 75
3, 40896, Note_on_c, 1, 57, 75
3, 41080, Note_on_c, 1, 63, 0
3, 41080, Note_on_c, 1, 67, 0
3, 41088, Note_on_c, 1, 65, 75
3, 41088, Note_on_c, 1, 62, 75
3, 41272, Note_on_c, 1, 62, 0
3, 41272, Note_on_c, 1, 65, 0
3, 41280, Note_on_c, 1, 63, 75
3, 41280, Note_on_c, 1, 60, 75
3, 41464, Note_on_c, 1, 60, 0
3, 41464, Note_on_c, 1, 63, 0
3, 41464, Note_on_c, 1, 57, 0
3, 41472, Note_on_c, 1, 60, 75
3, 41472, Note_on_c, 1, 56, 75
3, 41752, Note_on_c, 1, 60, 0
3, 41760, Note_on_c, 1, 61, 75
3, 41848, Note_on_c, 1, 61, 0
3, 41848, Note_on_c, 1, 56, 0
3, 41856, Note_on_c, 1, 62, 75
3, 41856, Note_on_c, 1, 58, 75
3, 42232, Note_on_c, 1, 58, 0
3, 42232, Note_on_c, 1, 62, 0
3, 42816, Note_on_c, 1, 70, 75
3, 42816, Note_on_c, 1, 65, 75
3, 43000, Note_on_c, 1, 65, 0
3, 43000, Note_on_c, 1, 70, 0
3, 43008, Note_on_c, 1, 65, 75
3, 43008, Note_on_c, 1, 62, 75
3, 43192, Note_on_c, 1, 62, 0
3, 43192, Note_on_c, 1, 65, 0
3, 43200, Note_on_c, 1, 70, 75
3, 43200, Note_on_c, 1, 65, 75
3, 43384, Note_on_c, 1, 65, 0
3, 43384, Note_on_c, 1, 70, 0
3, 43392, Note_on_c, 1, 65, 75
3, 43392, Note_on_c, 1, 62, 75
3, 43576, Note_on_c, 1, 62, 0
3, 43576, Note_on_c, 1, 65, 0
3, 43584, Note_on_c, 1, 70, 75
3, 43584, Note_on_c, 1, 65, 75
3, 43768, Note_on_c, 1, 65, 0
3, 43768, Note_on_c, 1, 70, 0
3, 43968, Note_on_c, 1, 67, 75
3, 43968, Note_on_c, 1, 63, 75
3, 44056, Note_on_c, 1, 63, 0
3, 44056, Note_on_c, 1, 67, 0
3, 44160, Note_on_c, 1, 63, 75
3, 44160, Note_on_c, 1, 60, 75
3, 44248, Note_on_c, 1, 60, 0
3, 44248, Note_on_c, 1, 63, 0
3, 44352, Note_on_c, 1, 67, 75
3, 44352, Note_on_c, 1, 63, 75
3, 44440, Note_on_c, 1, 63, 0
3, 44440, Note_on_c, 1, 67, 0
3, 44544, Note_on_c, 1, 63, 75
3, 44544, Note_on_c, 1, 60, 75
3, 44632, Note_on_c, 1, 60, 0
3, 44632, Note_on_c, 1, 63, 0
3, 44736, Note_on_c, 1, 67, 75
3, 44736, Note_on_c, 1, 63, 75
3, 44824, Note_on_c, 1, 63, 0
3, 44824, Note_on_c, 1, 67, 0
3, 45120, Note_on_c, 1, 68, 75
3, 45208, Note_on_c, 1, 68, 0
3, 45312, Note_on_c, 1, 65, 75
3, 45312, Note_on_c, 1, 62, 75
3, 45400, Note_on_c, 1, 62, 0
3, 45400, Note_on_c, 1, 65, 0
3, 45504, Note_on_c, 1, 68, 75
3, 45592, Note_on_c, 1, 68, 0
3, 45696, Note_on_c, 1, 65, 75
3, 45696, Note_on_c, 1, 62, 75
3, 45784, Note_on_c, 1, 62, 0
3, 45784, Note_on_c, 1, 65, 0
3, 45888, Note_on_c, 1, 68, 75
3, 45976, Note_on_c, 1, 68, 0
3, 46272, Note_on_c, 1, 70, 75
3, 46272, Note_on_c, 1, 67, 75
3, 46360, Note_on_c, 1, 67, 0
3, 46360, Note_on_c, 1, 70, 0
3, 46464, Note_on_c, 1, 67, 75
3, 46464, Note_on_c, 1, 63, 75
3, 46552, Note_on_c, 1, 63, 0
3, 46552, Note_on_c, 1, 67, 0
3, 46656, Note_on_c, 1, 70, 75
3, 46656, Note_on_c, 1, 67, 75
3, 46744, Note_on_c, 1, 67, 0
3, 46744, Note_on_c, 1, 70, 0
3, 46848, Note_on_c, 1, 67, 75
3, 46848, Note_on_c, 1, 63, 75
3, 46936, Note_on_c, 1, 63, 0
3, 46936, Note_on_c, 1, 67, 0
3, 47040, Note_on_c, 1, 70, 75
3, 47040, Note_on_c, 1, 67, 75
3, 47128, Note_on_c, 1, 67, 0
3, 47128, Note_on_c, 1, 70, 0
3, 47424, Note_on_c, 1, 72, 75
3, 47424, Note_on_c, 1, 63, 75
3, 47512, Note_on_c, 1, 63, 0
3, 47512, Note_on_c, 1, 72, 0
3, 47616, Note_on_c, 1, 63, 75
3, 47616, Note_on_c, 1, 60, 75
3, 47704, Note_on_c, 1, 60, 0
3, 47704, Note_on_c, 1, 63, 0
3, 47808, Note_on_c, 1, 63, 75
3, 47808, Note_on_c, 1, 72, 75
3, 47896, Note_on_c, 1, 72, 0
3, 47896, Note_on_c, 1, 63, 0
3, 48000, Note_on_c, 1, 63, 75
3, 48000, Note_on_c, 1, 60, 75
3, 48088, Note_on_c, 1, 60, 0
3, 48088, Note_on_c, 1, 63, 0
3, 48192, Note_on_c, 1, 72, 75
3, 48192, Note_on_c, 1, 63, 75
3, 48280, Note_on_c, 1, 63, 0
3, 48280, Note_on_c, 1, 72, 0
3, 48384, Note_on_c, 1, 62, 75
3, 48384, Note_on_c, 1, 58, 75
3, 48384, Note_on_c, 1, 53, 75
3, 48568, Note_on_c, 1, 53, 0
3, 48568, Note_on_c, 1, 58, 0
3, 48568, Note_on_c, 1, 62, 0
3, 48768, Note_on_c, 1, 70, 75
3, 48768, Note_on_c, 1, 65, 75
3, 48768, Note_on_c, 1, 58, 75
3, 48952, Note_on_c, 1, 58, 0
3, 48952, Note_on_c, 1, 65, 0
3, 48952, Note_on_c, 1, 70, 0
3, 49152, Note_on_c, 1, 67, 75
3, 49152, Note_on_c, 1, 63, 75
3, 49152, Note_on_c, 1, 60, 75
3, 49336, Note_on_c, 1, 60, 0
3, 49336, Note_on_c, 1, 63, 0
3, 49336, Note_on_c, 1, 67, 0
3, 49728, Note_on_c, 1, 65, 75
3, 49728, Note_on_c, 1, 62, 75
3, 49912, Note_on_c, 1, 62, 0
3, 49912, Note_on_c, 1, 65, 0
3, 49920, Note_on_c, 1, 62, 75
3, 49920, Note_on_c, 1, 58, 75
3, 50104, Note_on_c, 1, 58, 0
3, 50104, Note_on_c, 1, 62, 0
3, 50112, Note_on_c, 1, 65, 75
3, 50112, Note_on_c, 1, 62, 75
3, 50296, Note_on_c, 1, 62, 0
3, 50296, Note_on_c, 1, 65, 0
3, 50304, Note_on_c, 1, 63, 75
3, 50304, Note_on_c, 1, 60, 75
3, 50488, Note_on_c, 1, 60, 0
3, 50488, Note_on_c, 1, 63, 0
3, 50496, Note_on_c, 1, 60, 75
3, 50496, Note_on_c, 1, 57, 75
3, 50680, Note_on_c, 1, 57, 0
3, 50680, Note_on_c, 1, 60, 0
3, 50688, Note_on_c, 1, 68, 75
3, 50688, Note_on_c, 1, 63, 75
3, 50688, Note_on_c, 1, 60, 75
3, 51064, Note_on_c, 1, 60, 0
3, 51064, Note_on_c, 1, 63, 0
3, 51064, Note_on_c, 1, 68, 0
3, 51072, Note_on_c, 1, 70, 75
3, 51072, Note_on_c, 1, 62, 75
3, 51072, Note_on_c, 1, 58, 75
3, 51256, Note_on_c, 1, 58, 0
3, 51256, Note_on_c, 1, 62, 0
3, 51256, Note_on_c, 1, 70, 0
3, 51264, Note_on_c, 1, 62, 75
3, 51640, Note_on_c, 1, 62, 0
3, 51648, Note_on_c, 1, 63, 75
3, 51648, Note_on_c, 1, 60, 75
3, 51832, Note_on_c, 1, 60, 0
3, 51832, Note_on_c, 1, 63, 0
3, 51840, Note_on_c, 1, 65, 75
3, 51840, Note_on_c, 1, 62, 75
3, 51928, Note_on_c, 1, 62, 0
3, 51928, Note_on_c, 1, 65, 0
3, 52032, Note_on_c, 1, 65, 75
3, 52120, Note_on_c, 1, 65, 0
3, 52224, Note_on_c, 1, 77, 75
3, 52224, Note_on_c, 1, 74, 75
3, 52224, Note_on_c, 1, 70, 75
3, 52312, Note_on_c, 1, 70, 0
3, 52312, Note_on_c, 1, 74, 0
3, 52312, Note_on_c, 1, 77, 0
3, 52416, Note_on_c, 1, 70, 75
3, 52504, Note_on_c, 1, 70, 0
3, 52608, Note_on_c, 1, 82, 75
3, 52608, Note_on_c, 1, 77, 75
3, 52608, Note_on_c, 1, 74, 75
3, 52696, Note_on_c, 1, 74, 0
3, 52696, Note_on_c, 1, 77, 0
3, 52696, Note_on_c, 1, 82, 0
3, 52800, Note_on_c, 1, 70, 75
3, 52888, Note_on_c, 1, 70, 0
3, 53184, Note_on_c, 1, 67, 75
3, 53272, Note_on_c, 1, 67, 0
3, 53376, Note_on_c, 1, 79, 75
3, 53376, Note_on_c, 1, 75, 75
3, 53376, Note_on_c, 1, 72, 75
3, 53464, Note_on_c, 1, 72, 0
3, 53464, Note_on_c, 1, 75, 0
3, 53464, Note_on_c, 1, 79, 0
3, 53568, Note_on_c, 1, 72, 75
3, 53656, Note_on_c, 1, 72, 0
3, 53760, Note_on_c, 1, 84, 75
3, 53760, Note_on_c, 1, 79, 75
3, 53760, Note_on_c, 1, 75, 75
3, 53848, Note_on_c, 1, 75, 0
3, 53848, Note_on_c, 1, 79, 0
3, 53848, Note_on_c, 1, 84, 0
3, 53952, Note_on_c, 1, 72, 75
3, 54040, Note_on_c, 1, 72, 0
3, 54336, Note_on_c, 1, 68, 75
3, 54424, Note_on_c, 1, 68, 0
3, 54528, Note_on_c, 1, 80, 75
3, 54528, Note_on_c, 1, 77, 75
3, 54528, Note_on_c, 1, 74, 75
3, 54616, Note_on_c, 1, 74, 0
3, 54616, Note_on_c, 1, 77, 0
3, 54616, Note_on_c, 1, 80, 0
3, 54720, Note_on_c, 1, 74, 75
3, 54808, Note_on_c, 1, 74, 0
3, 54912, Note_on_c, 1, 86, 75
3, 54912, Note_on_c, 1, 80, 75
3, 54912, Note_on_c, 1, 77, 75
3, 55000, Note_on_c, 1, 77, 0
3, 55000, Note_on_c, 1, 80, 0
3, 55000, Note_on_c, 1, 86, 0
3, 55104, Note_on_c, 1, 74, 75
3, 55192, Note_on_c, 1, 74, 0
3, 55488, Note_on_c, 1, 70, 75
3, 55576, Note_on_c, 1, 70, 0
3, 55680, Note_on_c, 1, 82, 75
3, 55680, Note_on_c, 1, 79, 75
3, 55680, Note_on_c, 1, 75, 75
3, 55768, Note_on_c, 1, 75, 0
3, 55768, Note_on_c, 1, 79, 0
3, 55768, Note_on_c, 1, 82, 0
3, 55872, Note_on_c, 1, 75, 75
3, 55960, Note_on_c, 1, 75, 0
3, 56064, Note_on_c, 1, 87, 75
3, 56064, Note_on_c, 1, 82, 75
3, 56064, Note_on_c, 1, 79, 75
3, 56152, Note_on_c, 1, 79, 0
3, 56152, Note_on_c, 1, 82, 0
3, 56152, Note_on_c, 1, 87, 0
3, 56256, Note_on_c, 1, 75, 75
3, 56344, Note_on_c, 1, 75, 0
3, 56640, Note_on_c, 1, 65, 75
3, 56728, Note_on_c, 1, 65, 0
3, 56832, Note_on_c, 1, 75, 75
3, 56832, Note_on_c, 1, 72, 75
3, 56920, Note_on_c, 1, 72, 0
3, 56920, Note_on_c, 1, 75, 0
3, 57024, Note_on_c, 1, 72, 75
3, 57112, Note_on_c, 1, 72, 0
3, 57216, Note_on_c, 1, 77, 75
3, 57216, Note_on_c, 1, 84, 75
3, 57304, Note_on_c, 1, 84, 0
3, 57304, Note_on_c, 1, 77, 0
3, 57408, Note_on_c, 1, 75, 75
3, 57408, Note_on_c, 1, 72, 75
3, 57496, Note_on_c, 1, 72, 0
3, 57496, Note_on_c, 1, 75, 0
3, 57792, Note_on_c, 1, 62, 75
3, 57792, Note_on_c, 1, 58, 75
3, 57976, Note_on_c, 1, 58, 0
3, 57976, Note_on_c, 1, 62, 0
3, 57984, Note_on_c, 1, 65, 75
3, 57984, Note_on_c, 1, 62, 75
3, 58168, Note_on_c, 1, 62, 0
3, 58168, Note_on_c, 1, 65, 0
3, 58176, Note_on_c, 1, 65, 75
3, 58176, Note_on_c, 1, 70, 75
3, 58360, Note_on_c, 1, 70, 0
3, 58360, Note_on_c, 1, 65, 0
3, 58368, Note_on_c, 1, 70, 75
3, 58368, Note_on_c, 1, 74, 75
3, 58552, Note_on_c, 1, 74, 0
3, 58552, Note_on_c, 1, 70, 0
3, 58560, Note_on_c, 1, 74, 75
3, 58560, Note_on_c, 1, 77, 75
3, 58744, Note_on_c, 1, 77, 0
3, 58744, Note_on_c, 1, 74, 0
3, 58944, Note_on_c, 1, 63, 75
3, 58944, Note_on_c, 1, 60, 75
3, 59128, Note_on_c, 1, 60, 0
3, 59128, Note_on_c, 1, 63, 0
3, 59136, Note_on_c, 1, 63, 75
3, 59136, Note_on_c, 1, 67, 75
3, 59320, Note_on_c, 1, 67, 0
3, 59320, Note_on_c, 1, 63, 0
3, 59328, Note_on_c, 1, 67, 75
3, 59328, Note_on_c, 1, 72, 75
3, 59512, Note_on_c, 1, 72, 0
3, 59512, Note_on_c, 1, 67, 0
3, 59520, Note_on_c, 1, 75, 75
3, 59520, Note_on_c, 1, 72, 75
3, 59704, Note_on_c, 1, 72, 0
3, 59704, Note_on_c, 1, 75, 0
3, 59712, Note_on_c, 1, 79, 75
3, 59712, Note_on_c, 1, 75, 75
3, 59896, Note_on_c, 1, 75, 0
3, 59896, Note_on_c, 1, 79, 0
3, 60096, Note_on_c, 1, 62, 75
3, 60096, Note_on_c, 1, 58, 75
3, 60096, Note_on_c, 1, 53, 75
3, 60280, Note_on_c, 1, 53, 0
3, 60280, Note_on_c, 1, 58, 0
3, 60280, Note_on_c, 1, 62, 0
3, 60288, Note_on_c, 1, 62, 75
3, 60288, Note_on_c, 1, 58, 75
3, 60288, Note_on_c, 1, 53, 75
3, 60472, Note_on_c, 1, 53, 0
3, 60472, Note_on_c, 1, 58, 0
3, 60472, Note_on_c, 1, 62, 0
3, 60480, Note_on_c, 1, 62, 75
3, 60480, Note_on_c, 1, 58, 75
3, 60480, Note_on_c, 1, 53, 75
3, 60664, Note_on_c, 1, 53, 0
3, 60664, Note_on_c, 1, 58, 0
3, 60664, Note_on_c, 1, 62, 0
3, 60672, Note_on_c, 1, 62, 75
3, 60672, Note_on_c, 1, 58, 75
3, 60672, Note_on_c, 1, 53, 75
3, 60856, Note_on_c, 1, 53, 0
3, 60856, Note_on_c, 1, 58, 0
3, 60856, Note_on_c, 1, 62, 0
3, 60864, Note_on_c, 1, 62, 75
3, 60864, Note_on_c, 1, 58, 75
3, 60864, Note_on_c, 1, 53, 75
3, 61048, Note_on_c, 1, 53, 0
3, 61048, Note_on_c, 1, 58, 0
3, 61048, Note_on_c, 1, 62, 0
3, 61056, Note_on_c, 1, 60, 76
3, 61056, Note_on_c, 1, 58, 76
3, 61056, Note_on_c, 1, 53, 76
3, 61240, Note_on_c, 1, 53, 0
3, 61240, Note_on_c, 1, 58, 0
3, 61240, Note_on_c, 1, 60, 0
3, 61248, Note_on_c, 1, 60, 80
3, 61248, Note_on_c, 1, 58, 80
3, 61248, Note_on_c, 1, 53, 80
3, 61432, Note_on_c, 1, 53, 0
3, 61432, Note_on_c, 1, 58, 0
3, 61432, Note_on_c, 1, 60, 0
3, 61440, Note_on_c, 1, 60, 84
3, 61440, Note_on_c, 1, 57, 84
3, 61440, Note_on_c, 1, 53, 84
3, 61624, Note_on_c, 1, 53, 0
3, 61624, Note_on_c, 1, 57, 0
3, 61624, Note_on_c, 1, 60, 0
3, 61632, Note_on_c, 1, 60, 89
3, 61632, Note_on_c, 1, 57, 89
3, 61632, Note_on_c, 1, 53, 89
3, 61816, Note_on_c, 1, 53, 0
3, 61816, Note_on_c, 1, 57, 0
3, 61816, Note_on_c, 1, 60, 0
3, 61824, Note_on_c, 1, 60, 93
3, 61824, Note_on_c, 1, 57, 93
3, 61824, Note_on_c, 1, 51, 93
3, 62008, Note_on_c, 1, 51, 0
3, 62008, Note_on_c, 1, 57, 0
3, 62008, Note_on_c, 1, 60, 0
3, 62016, Note_on_c, 1, 60, 97
3, 62016, Note_on_c, 1, 57, 97
3, 62016, Note_on_c, 1, 51, 97
3, 62200, Note_on_c, 1, 51, 0
3, 62200, Note_on_c, 1, 57, 0
3, 62200, Note_on_c, 1, 60, 0
3, 62208, Note_on_c, 1, 58, 100
3, 62208, Note_on_c, 1, 50, 100
3, 62392, Note_on_c, 1, 50, 0
3, 62392, Note_on_c, 1, 58, 0
3, 62400, Note_on_c, 1, 70, 100
3, 62400, Note_on_c, 1, 65, 100
3, 62400, Note_on_c, 1, 62, 100
3, 62776, Note_on_c, 1, 62, 0
3, 62776, Note_on_c, 1, 65, 0
3, 62776, Note_on_c, 1, 70, 0
3, 62784, Note_on_c, 1, 70, 100
3, 62784, Note_on_c, 1, 65, 100
3, 62784, Note_on_c, 1, 74, 100
3, 63160, Note_on_c, 1, 74, 0
3, 63160, Note_on_c, 1, 65, 0
3, 63160, Note_on_c, 1, 70, 0
3, 63168, Note_on_c, 1, 77, 100
3, 63168, Note_on_c, 1, 74, 100
3, 63168, Note_on_c, 1, 70, 100
3, 63352, Note_on_c, 1, 70, 0
3, 63352, Note_on_c, 1, 74, 0
3, 63352, Note_on_c, 1, 77, 0
3, 63360, Note_on_c, 1, 82, 100
3, 63360, Note_on_c, 1, 77, 100
3, 63360, Note_on_c, 1, 74, 100
3, 63544, Note_on_c, 1, 74, 0
3, 63544, Note_on_c, 1, 77, 0
3, 63544, Note_on_c, 1, 82, 0
3, 63552, Note_on_c, 1, 62, 100
3, 63552, Note_on_c, 1, 58, 100
3, 63736, Note_on_c, 1, 58, 0
3, 63736, Note_on_c, 1, 62, 0
3, 63744, Note_on_c, 1, 62, 75
3, 63744, Note_on_c, 1, 58, 75
3, 63928, Note_on_c, 1, 58, 0
3, 63928, Note_on_c, 1, 62, 0
3, 63936, Note_on_c, 1, 62, 75
3, 63936, Note_on_c, 1, 58, 75
3, 64120, Note_on_c, 1, 58, 0
3, 64120, Note_on_c, 1, 62, 0
3, 64128, Note_on_c, 1, 62, 75
3, 64128, Note_on_c, 1, 58, 75
3, 64312, Note_on_c, 1, 58, 0
3, 64312, Note_on_c, 1, 62, 0
3, 64320, Note_on_c, 1, 62, 75
3, 64320, Note_on_c, 1, 58, 75
3, 64504, Note_on_c, 1, 58, 0
3, 64504, Note_on_c, 1, 62, 0
3, 64512, Note_on_c, 1, 63, 100
3, 64512, Note_on_c, 1, 60, 100
3, 64512, Note_on_c, 1, 57, 100
3, 64696, Note_on_c, 1, 57, 0
3, 64696, Note_on_c, 1, 60, 0
3, 64696, Note_on_c, 1, 63, 0
3, 64704, Note_on_c, 1, 69, 100
3, 64704, Note_on_c, 1, 63, 100
3, 64704, Note_on_c, 1, 60, 100
3, 65080, Note_on_c, 1, 60, 0
3, 65080, Note_on_c, 1, 63, 0
3, 65080, Note_on_c, 1, 69, 0
3, 65088, Note_on_c, 1, 69, 100
3, 65088, Note_on_c, 1, 72, 100
3, 65088, Note_on_c, 1, 63, 100
3, 65464, Note_on_c, 1, 63, 0
3, 65464, Note_on_c, 1, 72, 0
3, 65464, Note_on_c, 1, 69, 0
3, 65472, Note_on_c, 1, 75, 100
3, 65472, Note_on_c, 1, 72, 100
3, 65472, Note_on_c, 1, 69, 100
3, 65656, Note_on_c, 1, 69, 0
3, 65656, Note_on_c, 1, 72, 0
3, 65656, Note_on_c, 1, 75, 0
3, 65664, Note_on_c, 1, 81, 100
3, 65664, Note_on_c, 1, 75, 100
3, 65664, Note_on_c, 1, 72, 100
3, 65848, Note_on_c, 1, 72, 0
3, 65848, Note_on_c, 1, 75, 0
3, 65848, Note_on_c, 1, 81, 0
3, 65856, Note_on_c, 1, 63, 75
3, 65856, Note_on_c, 1, 57, 75
3, 66040, Note_on_c, 1, 57, 0
3, 66040, Note_on_c, 1, 63, 0
3, 66048, Note_on_c, 1, 63, 75
3, 66048, Note_on_c, 1, 57, 75
3, 66232, Note_on_c, 1, 57, 0
3, 66232, Note_on_c, 1, 63, 0
3, 66240, Note_on_c, 1, 63, 75
3, 66240, Note_on_c, 1, 57, 75
3, 66424, Note_on_c, 1, 57, 0
3, 66424, Note_on_c, 1, 63, 0
3, 66432, Note_on_c, 1, 63, 75
3, 66432, Note_on_c, 1, 57, 75
3, 66616, Note_on_c, 1, 57, 0
3, 66616, Note_on_c, 1, 63, 0
3, 66624, Note_on_c, 1, 63, 75
3, 66624, Note_on_c, 1, 57, 75
3, 66808, Note_on_c, 1, 57, 0
3, 66808, Note_on_c, 1, 63, 0
3, 66816, Note_on_c, 1, 62, 100
3, 66816, Note_on_c, 1, 56, 100
3, 66816, Note_on_c, 1, 53, 100
3, 67000, Note_on_c, 1, 53, 0
3, 67000, Note_on_c, 1, 56, 0
3, 67000, Note_on_c, 1, 62, 0
3, 67008, Note_on_c, 1, 68, 100
3, 67008, Note_on_c, 1, 65, 100
3, 67008, Note_on_c, 1, 62, 100
3, 67384, Note_on_c, 1, 62, 0
3, 67384, Note_on_c, 1, 65, 0
3, 67384, Note_on_c, 1, 68, 0
3, 67392, Note_on_c, 1, 74, 100
3, 67392, Note_on_c, 1, 68, 100
3, 67392, Note_on_c, 1, 65, 100
3, 67768, Note_on_c, 1, 65, 0
3, 67768, Note_on_c, 1, 68, 0
3, 67768, Note_on_c, 1, 74, 0
3, 67776, Note_on_c, 1, 77, 100
3, 67776, Note_on_c, 1, 74, 100
3, 67776, Note_on_c, 1, 68, 100
3, 67960, Note_on_c, 1, 68, 0
3, 67960, Note_on_c, 1, 74, 0
3, 67960, Note_on_c, 1, 77, 0
3, 67968, Note_on_c, 1, 80, 100
3, 67968, Note_on_c, 1, 77, 100
3, 67968, Note_on_c, 1, 74, 100
3, 68344, Note_on_c, 1, 74, 0
3, 68344, Note_on_c, 1, 77, 0
3, 68344, Note_on_c, 1, 80, 0
3, 71424, Note_on_c, 1, 67, 75
3, 71424, Note_on_c, 1, 63, 75
3, 71608, Note_on_c, 1, 63, 0
3, 71608, Note_on_c, 1, 67, 0
3, 71616, Note_on_c, 1, 58, 75
3, 71800, Note_on_c, 1, 58, 0
3, 71808, Note_on_c, 1, 67, 75
3, 71808, Note_on_c, 1, 63, 75
3, 71992, Note_on_c, 1, 63, 0
3, 71992, Note_on_c, 1, 67, 0
3, 72000, Note_on_c, 1, 58, 75
3, 72184, Note_on_c, 1, 58, 0
3, 72192, Note_on_c, 1, 67, 75
3, 72192, Note_on_c, 1, 63, 75
3, 72376, Note_on_c, 1, 63, 0
3, 72376, Note_on_c, 1, 67, 0
3, 72384, Note_on_c, 1, 58, 75
3, 72568, Note_on_c, 1, 58, 0
3, 72576, Note_on_c, 1, 68, 75
3, 72576, Note_on_c, 1, 62, 75
3, 72760, Note_on_c, 1, 62, 0
3, 72760, Note_on_c, 1, 68, 0
3, 72768, Note_on_c, 1, 58, 75
3, 72952, Note_on_c, 1, 58, 0
3, 72960, Note_on_c, 1, 67, 75
3, 72960, Note_on_c, 1, 63, 75
3, 73144, Note_on_c, 1, 63, 0
3, 73144, Note_on_c, 1, 67, 0
3, 73152, Note_on_c, 1, 58, 75
3, 73336, Note_on_c, 1, 58, 0
3, 73344, Note_on_c, 1, 67, 75
3, 73344, Note_on_c, 1, 63, 75
3, 73528, Note_on_c, 1, 63, 0
3, 73528, Note_on_c, 1, 67, 0
3, 73536, Note_on_c, 1, 58, 75
3, 73720, Note_on_c, 1, 58, 0
3, 73728, Note_on_c, 1, 67, 75
3, 73728, Note_on_c, 1, 63, 75
3, 73912, Note_on_c, 1, 63, 0
3, 73912, Note_on_c, 1, 67, 0
3, 73920, Note_on_c, 1, 58, 75
3, 74104, Note_on_c, 1, 58, 0
3, 74112, Note_on_c, 1, 67, 75
3, 74112, Note_on_c, 1, 63, 75
3, 74296, Note_on_c, 1, 63, 0
3, 74296, Note_on_c, 1, 67, 0
3, 74304, Note_on_c, 1, 58, 75
3, 74488, Note_on_c, 1, 58, 0
3, 74496, Note_on_c, 1, 67, 75
3, 74496, Note_on_c, 1, 63, 75
3, 74680, Note_on_c, 1, 63, 0
3, 74680, Note_on_c, 1, 67, 0
3, 74688, Note_on_c, 1, 58, 75
3, 74872, Note_on_c, 1, 58, 0
3, 74880, Note_on_c, 1, 65, 75
3, 74880, Note_on_c, 1, 62, 75
3, 75064, Note_on_c, 1, 62, 0
3, 75064, Note_on_c, 1, 65, 0
3, 75072, Note_on_c, 1, 58, 75
3, 75256, Note_on_c, 1, 58, 0
3, 75264, Note_on_c, 1, 63, 75
3, 75264, Note_on_c, 1, 67, 75
3, 75448, Note_on_c, 1, 67, 0
3, 75448, Note_on_c, 1, 63, 0
3, 75456, Note_on_c, 1, 58, 75
3, 75640, Note_on_c, 1, 58, 0
3, 75648, Note_on_c, 1, 63, 75
3, 75648, Note_on_c, 1, 67, 75
3, 75832, Note_on_c, 1, 67, 0
3, 75832, Note_on_c, 1, 63, 0
3, 75840, Note_on_c, 1, 58, 75
3, 76024, Note_on_c, 1, 58, 0
3, 76032, Note_on_c, 1, 65, 75
3, 76032, Note_on_c, 1, 62, 75
3, 76216, Note_on_c, 1, 62, 0
3, 76216, Note_on_c, 1, 65, 0
3, 76224, Note_on_c, 1, 58, 75
3, 76408, Note_on_c, 1, 58, 0
3, 76416, Note_on_c, 1, 65, 75
3, 76416, Note_on_c, 1, 62, 75
3, 76600, Note_on_c, 1, 62, 0
3, 76600, Note_on_c, 1, 65, 0
3, 76608, Note_on_c, 1, 58, 75
3, 76792, Note_on_c, 1, 58, 0
3, 76800, Note_on_c, 1, 67, 75
3, 76800, Note_on_c, 1, 63, 75
3, 76984, Note_on_c, 1, 63, 0
3, 76984, Note_on_c, 1, 67, 0
3, 76992, Note_on_c, 1, 58, 75
3, 77176, Note_on_c, 1, 58, 0
3, 77184, Note_on_c, 1, 65, 75
3, 77184, Note_on_c, 1, 62, 75
3, 77368, Note_on_c, 1, 62, 0
3, 77368, Note_on_c, 1, 65, 0
3, 77376, Note_on_c, 1, 58, 75
3, 77560, Note_on_c, 1, 58, 0
3, 77568, Note_on_c, 1, 65, 75
3, 77568, Note_on_c, 1, 62, 75
3, 77752, Note_on_c, 1, 62, 0
3, 77752, Note_on_c, 1, 65, 0
3, 77760, Note_on_c, 1, 58, 75
3, 77944, Note_on_c, 1, 58, 0
3, 77952, Note_on_c, 1, 63, 75
3, 77952, Note_on_c, 1, 60, 75
3, 78136, Note_on_c, 1, 60, 0
3, 78136, Note_on_c, 1, 63, 0
3, 78144, Note_on_c, 1, 67, 75
3, 78328, Note_on_c, 1, 67, 0
3, 78336, Note_on_c, 1, 62, 75
3, 78336, Note_on_c, 1, 58, 75
3, 78520, Note_on_c, 1, 58, 0
3, 78520, Note_on_c, 1, 62, 0
3, 78528, Note_on_c, 1, 65, 75
3, 78712, Note_on_c, 1, 65, 0
3, 78720, Note_on_c, 1, 62, 75
3, 78720, Note_on_c, 1, 58, 75
3, 78904, Note_on_c, 1, 58, 0
3, 78904, Note_on_c, 1, 62, 0
3, 78912, Note_on_c, 1, 65, 75
3, 79096, Note_on_c, 1, 65, 0
3, 79104, Note_on_c, 1, 63, 75
3, 79104, Note_on_c, 1, 57, 75
3, 79288, Note_on_c, 1, 57, 0
3, 79288, Note_on_c, 1, 63, 0
3, 79296, Note_on_c, 1, 65, 75
3, 79480, Note_on_c, 1, 65, 0
3, 79488, Note_on_c, 1, 62, 75
3, 79488, Note_on_c, 1, 58, 75
3, 79672, Note_on_c, 1, 58, 0
3, 79672, Note_on_c, 1, 62, 0
3, 79680, Note_on_c, 1, 72, 80
3, 79680, Note_on_c, 1, 68, 78
3, 79864, Note_on_c, 1, 68, 0
3, 79864, Note_on_c, 1, 72, 0
3, 79872, Note_on_c, 1, 70, 75
3, 79872, Note_on_c, 1, 67, 75
3, 80056, Note_on_c, 1, 67, 0
3, 80056, Note_on_c, 1, 70, 0
3, 80064, Note_on_c, 1, 68, 75
3, 80064, Note_on_c, 1, 65, 75
3, 80248, Note_on_c, 1, 65, 0
3, 80248, Note_on_c, 1, 68, 0
3, 80256, Note_on_c, 1, 67, 75
3, 80256, Note_on_c, 1, 63, 75
3, 80440, Note_on_c, 1, 63, 0
3, 80440, Note_on_c, 1, 67, 0
3, 80448, Note_on_c, 1, 65, 75
3, 80448, Note_on_c, 1, 62, 75
3, 80632, Note_on_c, 1, 62, 0
3, 80632, Note_on_c, 1, 65, 0
3, 80640, Note_on_c, 1, 67, 75
3, 80640, Note_on_c, 1, 63, 75
3, 80824, Note_on_c, 1, 63, 0
3, 80824, Note_on_c, 1, 67, 0
3, 80832, Note_on_c, 1, 58, 75
3, 81016, Note_on_c, 1, 58, 0
3, 81024, Note_on_c, 1, 67, 75
3, 81024, Note_on_c, 1, 63, 75
3, 81208, Note_on_c, 1, 63, 0
3, 81208, Note_on_c, 1, 67, 0
3, 81216, Note_on_c, 1, 58, 75
3, 81400, Note_on_c, 1, 58, 0
3, 81408, Note_on_c, 1, 67, 75
3, 81408, Note_on_c, 1, 63, 75
3, 81592, Note_on_c, 1, 63, 0
3, 81592, Note_on_c, 1, 67, 0
3, 81600, Note_on_c, 1, 58, 75
3, 81784, Note_on_c, 1, 58, 0
3, 81792, Note_on_c, 1, 63, 75
3, 81792, Note_on_c, 1, 60, 75
3, 81976, Note_on_c, 1, 60, 0
3, 81976, Note_on_c, 1, 63, 0
3, 81984, Note_on_c, 1, 72, 80
3, 81984, Note_on_c, 1, 68, 78
3, 82360, Note_on_c, 1, 68, 0
3, 82360, Note_on_c, 1, 72, 0
3, 82368, Note_on_c, 1, 70, 75
3, 82368, Note_on_c, 1, 67, 75
3, 82552, Note_on_c, 1, 67, 0
3, 82552, Note_on_c, 1, 70, 0
3, 82560, Note_on_c, 1, 68, 75
3, 82560, Note_on_c, 1, 65, 75
3, 82744, Note_on_c, 1, 65, 0
3, 82744, Note_on_c, 1, 68, 0
3, 82752, Note_on_c, 1, 67, 75
3, 82752, Note_on_c, 1, 64, 75
3, 82936, Note_on_c, 1, 64, 0
3, 82936, Note_on_c, 1, 67, 0
3, 82944, Note_on_c, 1, 68, 75
3, 82944, Note_on_c, 1, 65, 75
3, 83128, Note_on_c, 1, 65, 0
3, 83128, Note_on_c, 1, 68, 0
3, 83136, Note_on_c, 1, 60, 75
3, 83320, Note_on_c, 1, 60, 0
3, 83328, Note_on_c, 1, 68, 75
3, 83328, Note_on_c, 1, 65, 75
3, 83512, Note_on_c, 1, 65, 0
3, 83512, Note_on_c, 1, 68, 0
3, 83520, Note_on_c, 1, 60, 75
3, 83704, Note_on_c, 1, 60, 0
3, 83712, Note_on_c, 1, 68, 75
3, 83712, Note_on_c, 1, 65, 75
3, 83896, Note_on_c, 1, 65, 0
3, 83896, Note_on_c, 1, 68, 0
3, 83904, Note_on_c, 1, 60, 75
3, 84088, Note_on_c, 1, 60, 0
3, 84096, Note_on_c, 1, 65, 75
3, 84096, Note_on_c, 1, 62, 75
3, 84280, Note_on_c, 1, 62, 0
3, 84280, Note_on_c, 1, 65, 0
3, 84288, Note_on_c, 1, 74, 80
3, 84288, Note_on_c, 1, 70, 78
3, 84664, Note_on_c, 1, 70, 0
3, 84664, Note_on_c, 1, 74, 0
3, 84672, Note_on_c, 1, 72, 75
3, 84672, Note_on_c, 1, 69, 75
3, 84856, Note_on_c, 1, 69, 0
3, 84856, Note_on_c, 1, 72, 0
3, 84864, Note_on_c, 1, 70, 75
3, 84864, Note_on_c, 1, 67, 75
3, 85048, Note_on_c, 1, 67, 0
3, 85048, Note_on_c, 1, 70, 0
3, 85056, Note_on_c, 1, 69, 75
3, 85056, Note_on_c, 1, 66, 75
3, 85240, Note_on_c, 1, 66, 0
3, 85240, Note_on_c, 1, 69, 0
3, 85248, Note_on_c, 1, 74, 75
3, 85248, Note_on_c, 1, 67, 75
3, 85432, Note_on_c, 1, 67, 0
3, 85432, Note_on_c, 1, 74, 0
3, 85440, Note_on_c, 1, 62, 75
3, 85624, Note_on_c, 1, 62, 0
3, 85632, Note_on_c, 1, 60, 75
3, 85816, Note_on_c, 1, 60, 0
3, 85824, Note_on_c, 1, 65, 75
3, 86008, Note_on_c, 1, 65, 0
3, 86016, Note_on_c, 1, 62, 75
3, 86200, Note_on_c, 1, 62, 0
3, 86208, Note_on_c, 1, 68, 75
3, 86392, Note_on_c, 1, 68, 0
3, 86400, Note_on_c, 1, 67, 75
3, 86584, Note_on_c, 1, 67, 0
3, 86592, Note_on_c, 1, 63, 75
3, 86776, Note_on_c, 1, 63, 0
3, 86784, Note_on_c, 1, 65, 75
3, 86784, Note_on_c, 1, 62, 75
3, 86968, Note_on_c, 1, 62, 0
3, 86968, Note_on_c, 1, 65, 0
3, 86976, Note_on_c, 1, 70, 75
3, 87160, Note_on_c, 1, 70, 0
3, 87168, Note_on_c, 1, 63, 75
3, 87352, Note_on_c, 1, 63, 0
3, 87360, Note_on_c, 1, 70, 75
3, 87544, Note_on_c, 1, 70, 0
3, 87552, Note_on_c, 1, 65, 75
3, 87552, Note_on_c, 1, 60, 75
3, 87736, Note_on_c, 1, 60, 0
3, 87736, Note_on_c, 1, 65, 0
3, 87744, Note_on_c, 1, 68, 75
3, 87928, Note_on_c, 1, 68, 0
3, 87936, Note_on_c, 1, 67, 75
3, 87936, Note_on_c, 1, 63, 75
3, 88120, Note_on_c, 1, 63, 0
3, 88120, Note_on_c, 1, 67, 0
3, 88128, Note_on_c, 1, 70, 75
3, 88312, Note_on_c, 1, 70, 0
3, 88320, Note_on_c, 1, 62, 75
3, 88320, Note_on_c, 1, 58, 75
3, 88504, Note_on_c, 1, 58, 0
3, 88504, Note_on_c, 1, 62, 0
3, 88512, Note_on_c, 1, 65, 75
3, 88512, Note_on_c, 1, 56, 75
3, 88696, Note_on_c, 1, 56, 0
3, 88696, Note_on_c, 1, 65, 0
3, 88704, Note_on_c, 1, 63, 75
3, 88704, Note_on_c, 1, 55, 75
3, 88888, Note_on_c, 1, 55, 0
3, 88888, Note_on_c, 1, 63, 0
3, 88896, Note_on_c, 1, 72, 105
3, 88896, Note_on_c, 1, 68, 103
3, 89080, Note_on_c, 1, 68, 0
3, 89080, Note_on_c, 1, 72, 0
3, 89088, Note_on_c, 1, 70, 100
3, 89088, Note_on_c, 1, 67, 100
3, 89272, Note_on_c, 1, 67, 0
3, 89272, Note_on_c, 1, 70, 0
3, 89280, Note_on_c, 1, 68, 100
3, 89280, Note_on_c, 1, 65, 100
3, 89464, Note_on_c, 1, 65, 0
3, 89464, Note_on_c, 1, 68, 0
3, 89472, Note_on_c, 1, 67, 100
3, 89472, Note_on_c, 1, 63, 100
3, 89656, Note_on_c, 1, 63, 0
3, 89656, Note_on_c, 1, 67, 0
3, 89664, Note_on_c, 1, 65, 100
3, 89664, Note_on_c, 1, 62, 100
3, 89848, Note_on_c, 1, 62, 0
3, 89848, Note_on_c, 1, 65, 0
3, 89856, Note_on_c, 1, 79, 105
3, 89856, Note_on_c, 1, 70, 100
3, 90040, Note_on_c, 1, 70, 0
3, 90048, Note_on_c, 1, 70, 100
3, 90424, Note_on_c, 1, 70, 0
3, 90424, Note_on_c, 1, 79, 0
3, 90432, Note_on_c, 1, 77, 105
3, 90432, Note_on_c, 1, 70, 100
3, 90616, Note_on_c, 1, 70, 0
3, 90616, Note_on_c, 1, 77, 0
3, 90624, Note_on_c, 1, 75, 100
3, 90624, Note_on_c, 1, 72, 100
3, 90808, Note_on_c, 1, 72, 0
3, 90808, Note_on_c, 1, 75, 0
3, 90816, Note_on_c, 1, 74, 100
3, 90816, Note_on_c, 1, 74, 100
3, 91000, Note_on_c, 1, 74, 0
3, 91000, Note_on_c, 1, 74, 0
3, 91008, Note_on_c, 1, 72, 100
3, 91008, Note_on_c, 1, 63, 100
3, 91192, Note_on_c, 1, 63, 0
3, 91192, Note_on_c, 1, 72, 0
3, 91200, Note_on_c, 1, 72, 100
3, 91200, Note_on_c, 1, 68, 100
3, 91392, Note_on_c, 1, 61, 100
3, 91576, Note_on_c, 1, 68, 0
3, 91576, Note_on_c, 1, 72, 0
3, 91584, Note_on_c, 1, 70, 100
3, 91584, Note_on_c, 1, 67, 100
3, 91768, Note_on_c, 1, 67, 0
3, 91768, Note_on_c, 1, 70, 0
3, 91768, Note_on_c, 1, 61, 0
3, 91776, Note_on_c, 1, 68, 100
3, 91776, Note_on_c, 1, 65, 100
3, 91776, Note_on_c, 1, 60, 100
3, 91960, Note_on_c, 1, 60, 0
3, 91960, Note_on_c, 1, 65, 0
3, 91960, Note_on_c, 1, 68, 0
3, 91968, Note_on_c, 1, 67, 100
3, 91968, Note_on_c, 1, 64, 100
3, 91968, Note_on_c, 1, 58, 100
3, 92152, Note_on_c, 1, 58, 0
3, 92152, Note_on_c, 1, 64, 0
3, 92152, Note_on_c, 1, 67, 0
3, 92160, Note_on_c, 1, 80, 105
3, 92160, Note_on_c, 1, 77, 100
3, 92344, Note_on_c, 1, 77, 0
3, 92352, Note_on_c, 1, 72, 103
3, 92728, Note_on_c, 1, 72, 0
3, 92728, Note_on_c, 1, 80, 0
3, 92736, Note_on_c, 1, 79, 103
3, 92736, Note_on_c, 1, 72, 100
3, 92920, Note_on_c, 1, 72, 0
3, 92920, Note_on_c, 1, 79, 0
3, 92928, Note_on_c, 1, 77, 100
3, 92928, Note_on_c, 1, 74, 100
3, 93112, Note_on_c, 1, 74, 0
3, 93112, Note_on_c, 1, 77, 0
3, 93120, Note_on_c, 1, 75, 100
3, 93120, Note_on_c, 1, 69, 100
3, 93304, Note_on_c, 1, 69, 0
3, 93304, Note_on_c, 1, 75, 0
3, 93312, Note_on_c, 1, 74, 100
3, 93312, Note_on_c, 1, 65, 100
3, 93496, Note_on_c, 1, 65, 0
3, 93496, Note_on_c, 1, 74, 0
3, 93504, Note_on_c, 1, 70, 100
3, 93504, Note_on_c, 1, 74, 100
3, 93696, Note_on_c, 1, 63, 100
3, 93880, Note_on_c, 1, 74, 0
3, 93880, Note_on_c, 1, 70, 0
3, 93888, Note_on_c, 1, 72, 100
3, 93888, Note_on_c, 1, 69, 100
3, 94072, Note_on_c, 1, 69, 0
3, 94072, Note_on_c, 1, 72, 0
3, 94072, Note_on_c, 1, 63, 0
3, 94080, Note_on_c, 1, 70, 100
3, 94080, Note_on_c, 1, 67, 100
3, 94080, Note_on_c, 1, 62, 100
3, 94264, Note_on_c, 1, 62, 0
3, 94264, Note_on_c, 1, 67, 0
3, 94264, Note_on_c, 1, 70, 0
3, 94272, Note_on_c, 1, 69, 100
3, 94272, Note_on_c, 1, 66, 100
3, 94272, Note_on_c, 1, 60, 100
3, 94456, Note_on_c, 1, 60, 0
3, 94456, Note_on_c, 1, 66, 0
3, 94456, Note_on_c, 1, 69, 0
3, 94464, Note_on_c, 1, 82, 105
3, 94464, Note_on_c, 1, 79, 100
3, 94648, Note_on_c, 1, 79, 0
3, 94656, Note_on_c, 1, 74, 103
3, 95032, Note_on_c, 1, 74, 0
3, 95032, Note_on_c, 1, 82, 0
3, 95040, Note_on_c, 1, 80, 103
3, 95040, Note_on_c, 1, 74, 100
3, 95224, Note_on_c, 1, 74, 0
3, 95224, Note_on_c, 1, 80, 0
3, 95232, Note_on_c, 1, 79, 100
3, 95232, Note_on_c, 1, 75, 100
3, 95416, Note_on_c, 1, 75, 0
3, 95416, Note_on_c, 1, 79, 0
3, 95424, Note_on_c, 1, 77, 100
3, 95424, Note_on_c, 1, 70, 100
3, 95608, Note_on_c, 1, 70, 0
3, 95608, Note_on_c, 1, 77, 0
3, 95616, Note_on_c, 1, 70, 100
3, 95616, Note_on_c, 1, 67, 100
3, 95616, Note_on_c, 1, 75, 100
3, 95800, Note_on_c, 1, 67, 0
3, 95800, Note_on_c, 1, 70, 0
3, 95808, Note_on_c, 1, 68, 100
3, 95896, Note_on_c, 1, 75, 0
3, 95904, Note_on_c, 1, 80, 100
3, 95992, Note_on_c, 1, 80, 0
3, 95992, Note_on_c, 1, 68, 0
3, 96000, Note_on_c, 1, 75, 100
3, 96000, Note_on_c, 1, 80, 100
3, 96184, Note_on_c, 1, 75, 0
3, 96192, Note_on_c, 1, 71, 100
3, 96376, Note_on_c, 1, 71, 0
3, 96384, Note_on_c, 1, 76, 100
3, 96568, Note_on_c, 1, 76, 0
3, 96568, Note_on_c, 1, 80, 0
3, 96576, Note_on_c, 1, 73, 100
3, 96576, Note_on_c, 1, 79, 100
3, 96760, Note_on_c, 1, 79, 0
3, 96760, Note_on_c, 1, 73, 0
3, 96768, Note_on_c, 1, 77, 103
3, 96856, Note_on_c, 1, 77, 0
3, 96864, Note_on_c, 1, 84, 105
3, 96952, Note_on_c, 1, 84, 0
3, 96960, Note_on_c, 1, 80, 100
3, 97048, Note_on_c, 1, 80, 0
3, 97056, Note_on_c, 1, 77, 100
3, 97144, Note_on_c, 1, 77, 0
3, 97152, Note_on_c, 1, 75, 100
3, 97152, Note_on_c, 1, 67, 100
3, 97336, Note_on_c, 1, 67, 0
3, 97344, Note_on_c, 1, 70, 100
3, 97528, Note_on_c, 1, 70, 0
3, 97528, Note_on_c, 1, 75, 0
3, 97536, Note_on_c, 1, 79, 105
3, 97536, Note_on_c, 1, 68, 100
3, 97536, Note_on_c, 1, 74, 100
3, 97624, Note_on_c, 1, 79, 0
3, 97632, Note_on_c, 1, 77, 100
3, 97720, Note_on_c, 1, 74, 0
3, 97720, Note_on_c, 1, 68, 0
3, 97728, Note_on_c, 1, 70, 100
3, 97816, Note_on_c, 1, 77, 0
3, 97824, Note_on_c, 1, 75, 100
3, 97912, Note_on_c, 1, 75, 0
3, 97912, Note_on_c, 1, 70, 0
3, 97920, Note_on_c, 1, 75, 100
3, 97920, Note_on_c, 1, 67, 100
3, 98104, Note_on_c, 1, 67, 0
3, 98104, Note_on_c, 1, 75, 0
3, 98112, Note_on_c, 1, 70, 100
3, 98112, Note_on_c, 1, 67, 100
3, 98112, Note_on_c, 1, 63, 100
3, 98296, Note_on_c, 1, 63, 0
3, 98296, Note_on_c, 1, 67, 0
3, 98296, Note_on_c, 1, 70, 0
3, 98304, Note_on_c, 1, 70, 75
3, 98304, Note_on_c, 1, 67, 75
3, 98304, Note_on_c, 1, 63, 75
3, 98488, Note_on_c, 1, 63, 0
3, 98488, Note_on_c, 1, 67, 0
3, 98488, Note_on_c, 1, 70, 0
3, 98496, Note_on_c, 1, 70, 75
3, 98496, Note_on_c, 1, 67, 75
3, 98496, Note_on_c, 1, 63, 75
3, 98680, Note_on_c, 1, 63, 0
3, 98680, Note_on_c, 1, 67, 0
3, 98680, Note_on_c, 1, 70, 0
3, 98688, Note_on_c, 1, 70, 75
3, 98688, Note_on_c, 1, 67, 75
3, 98688, Note_on_c, 1, 63, 75
3, 98872, Note_on_c, 1, 63, 0
3, 98872, Note_on_c, 1, 67, 0
3, 98872, Note_on_c, 1, 70, 0
3, 98880, Note_on_c, 1, 70, 75
3, 98880, Note_on_c, 1, 67, 75
3, 98880, Note_on_c, 1, 63, 75
3, 99064, Note_on_c, 1, 63, 0
3, 99064, Note_on_c, 1, 67, 0
3, 99064, Note_on_c, 1, 70, 0
3, 99264, Note_on_c, 1, 70, 75
3, 99264, Note_on_c, 1, 68, 75
3, 99264, Note_on_c, 1, 65, 75
3, 99448, Note_on_c, 1, 65, 0
3, 99448, Note_on_c, 1, 68, 0
3, 99448, Note_on_c, 1, 70, 0
3, 99456, Note_on_c, 1, 70, 75
3, 99456, Note_on_c, 1, 68, 75
3, 99456, Note_on_c, 1, 65, 75
3, 99640, Note_on_c, 1, 65, 0
3, 99640, Note_on_c, 1, 68, 0
3, 99640, Note_on_c, 1, 70, 0
3, 99648, Note_on_c, 1, 70, 75
3, 99648, Note_on_c, 1, 68, 75
3, 99648, Note_on_c, 1, 65, 75
3, 99832, Note_on_c, 1, 65, 0
3, 99832, Note_on_c, 1, 68, 0
3, 99832, Note_on_c, 1, 70, 0
3, 99840, Note_on_c, 1, 70, 75
3, 99840, Note_on_c, 1, 67, 75
3, 100024, Note_on_c, 1, 67, 0
3, 100024, Note_on_c, 1, 70, 0
3, 100032, Note_on_c, 1, 70, 75
3, 100032, Note_on_c, 1, 67, 75
3, 100216, Note_on_c, 1, 67, 0
3, 100216, Note_on_c, 1, 70, 0
3, 100416, Note_on_c, 1, 70, 75
3, 100416, Note_on_c, 1, 68, 75
3, 100416, Note_on_c, 1, 65, 75
3, 100600, Note_on_c, 1, 65, 0
3, 100600, Note_on_c, 1, 68, 0
3, 100600, Note_on_c, 1, 70, 0
3, 100608, Note_on_c, 1, 70, 75
3, 100608, Note_on_c, 1, 68, 75
3, 100608, Note_on_c, 1, 65, 75
3, 100792, Note_on_c, 1, 65, 0
3, 100792, Note_on_c, 1, 68, 0
3, 100792, Note_on_c, 1, 70, 0
3, 100800, Note_on_c, 1, 70, 75
3, 100800, Note_on_c, 1, 65, 75
3, 100800, Note_on_c, 1, 68, 75
3, 100984, Note_on_c, 1, 68, 0
3, 100984, Note_on_c, 1, 65, 0
3, 100984, Note_on_c, 1, 70, 0
3, 100992, Note_on_c, 1, 70, 75
3, 100992, Note_on_c, 1, 67, 75
3, 101176, Note_on_c, 1, 67, 0
3, 101176, Note_on_c, 1, 70, 0
3, 101184, Note_on_c, 1, 70, 75
3, 101184, Note_on_c, 1, 67, 75
3, 101368, Note_on_c, 1, 67, 0
3, 101368, Note_on_c, 1, 70, 0
3, 101568, Note_on_c, 1, 68, 75
3, 101568, Note_on_c, 1, 65, 75
3, 101568, Note_on_c, 1, 60, 75
3, 101752, Note_on_c, 1, 60, 0
3, 101752, Note_on_c, 1, 65, 0
3, 101752, Note_on_c, 1, 68, 0
3, 101760, Note_on_c, 1, 67, 75
3, 101760, Note_on_c, 1, 63, 75
3, 101944, Note_on_c, 1, 63, 0
3, 101944, Note_on_c, 1, 67, 0
3, 101952, Note_on_c, 1, 67, 75
3, 101952, Note_on_c, 1, 63, 75
3, 102136, Note_on_c, 1, 63, 0
3, 102136, Note_on_c, 1, 67, 0
3, 102144, Note_on_c, 1, 62, 75
3, 102144, Note_on_c, 1, 58, 75
3, 102144, Note_on_c, 1, 56, 75
3, 102328, Note_on_c, 1, 56, 0
3, 102328, Note_on_c, 1, 58, 0
3, 102328, Note_on_c, 1, 62, 0
3, 102336, Note_on_c, 1, 62, 75
3, 102336, Note_on_c, 1, 58, 75
3, 102336, Note_on_c, 1, 56, 75
3, 102520, Note_on_c, 1, 56, 0
3, 102520, Note_on_c, 1, 58, 0
3, 102520, Note_on_c, 1, 62, 0
3, 102528, Note_on_c, 1, 63, 75
3, 102528, Note_on_c, 1, 58, 75
3, 102528, Note_on_c, 1, 55, 75
3, 102712, Note_on_c, 1, 55, 0
3, 102712, Note_on_c, 1, 58, 0
3, 102712, Note_on_c, 1, 63, 0
3, 102720, Note_on_c, 1, 63, 75
3, 102720, Note_on_c, 1, 58, 75
3, 102720, Note_on_c, 1, 55, 75
3, 102904, Note_on_c, 1, 55, 0
3, 102904, Note_on_c, 1, 58, 0
3, 102904, Note_on_c, 1, 63, 0
3, 102912, Note_on_c, 1, 63, 75
3, 102912, Note_on_c, 1, 58, 75
3, 102912, Note_on_c, 1, 55, 75
3, 103096, Note_on_c, 1, 55, 0
3, 103096, Note_on_c, 1, 58, 0
3, 103096, Note_on_c, 1, 63, 0
3, 103104, Note_on_c, 1, 63, 75
3, 103104, Note_on_c, 1, 58, 75
3, 103104, Note_on_c, 1, 55, 75
3, 103288, Note_on_c, 1, 55, 0
3, 103288, Note_on_c, 1, 58, 0
3, 103288, Note_on_c, 1, 63, 0
3, 103296, Note_on_c, 1, 63, 75
3, 103296, Note_on_c, 1, 58, 75
3, 103296, Note_on_c, 1, 55, 75
3, 103480, Note_on_c, 1, 55, 0
3, 103480, Note_on_c, 1, 58, 0
3, 103480, Note_on_c, 1, 63, 0
3, 103488, Note_on_c, 1, 63, 75
3, 103488, Note_on_c, 1, 58, 75
3, 103488, Note_on_c, 1, 55, 75
3, 103672, Note_on_c, 1, 55, 0
3, 103672, Note_on_c, 1, 58, 0
3, 103672, Note_on_c, 1, 63, 0
3, 103872, Note_on_c, 1, 65, 75
3, 103872, Note_on_c, 1, 58, 75
3, 103872, Note_on_c, 1, 56, 75
3, 104056, Note_on_c, 1, 56, 0
3, 104056, Note_on_c, 1, 58, 0
3, 104056, Note_on_c, 1, 65, 0
3, 104064, Note_on_c, 1, 65, 75
3, 104064, Note_on_c, 1, 58, 75
3, 104064, Note_on_c, 1, 56, 75
3, 104248, Note_on_c, 1, 56, 0
3, 104248, Note_on_c, 1, 58, 0
3, 104248, Note_on_c, 1, 65, 0
3, 104256, Note_on_c, 1, 65, 75
3, 104256, Note_on_c, 1, 58, 75
3, 104256, Note_on_c, 1, 56, 75
3, 104440, Note_on_c, 1, 56, 0
3, 104440, Note_on_c, 1, 58, 0
3, 104440, Note_on_c, 1, 65, 0
3, 104448, Note_on_c, 1, 63, 75
3, 104448, Note_on_c, 1, 58, 75
3, 104448, Note_on_c, 1, 55, 75
3, 104632, Note_on_c, 1, 55, 0
3, 104632, Note_on_c, 1, 58, 0
3, 104632, Note_on_c, 1, 63, 0
3, 104640, Note_on_c, 1, 63, 75
3, 104640, Note_on_c, 1, 58, 75
3, 104640, Note_on_c, 1, 55, 75
3, 104824, Note_on_c, 1, 55, 0
3, 104824, Note_on_c, 1, 58, 0
3, 104824, Note_on_c, 1, 63, 0
3, 105024, Note_on_c, 1, 80, 75
3, 105024, Note_on_c, 1, 77, 75
3, 105024, Note_on_c, 1, 70, 75
3, 105208, Note_on_c, 1, 70, 0
3, 105208, Note_on_c, 1, 77, 0
3, 105208, Note_on_c, 1, 80, 0
3, 105216, Note_on_c, 1, 80, 75
3, 105216, Note_on_c, 1, 77, 75
3, 105216, Note_on_c, 1, 70, 75
3, 105400, Note_on_c, 1, 70, 0
3, 105400, Note_on_c, 1, 77, 0
3, 105400, Note_on_c, 1, 80, 0
3, 105408, Note_on_c, 1, 80, 75
3, 105408, Note_on_c, 1, 77, 75
3, 105408, Note_on_c, 1, 70, 75
3, 105592, Note_on_c, 1, 70, 0
3, 105592, Note_on_c, 1, 77, 0
3, 105592, Note_on_c, 1, 80, 0
3, 105600, Note_on_c, 1, 79, 75
3, 105600, Note_on_c, 1, 75, 75
3, 105600, Note_on_c, 1, 70, 75
3, 105784, Note_on_c, 1, 70, 0
3, 105784, Note_on_c, 1, 75, 0
3, 105784, Note_on_c, 1, 79, 0
3, 105792, Note_on_c, 1, 79, 75
3, 105792, Note_on_c, 1, 75, 75
3, 105792, Note_on_c, 1, 70, 75
3, 105976, Note_on_c, 1, 70, 0
3, 105976, Note_on_c, 1, 75, 0
3, 105976, Note_on_c, 1, 79, 0
3, 105984, Note_on_c, 1, 77, 75
3, 105984, Note_on_c, 1, 72, 75
3, 105984, Note_on_c, 1, 68, 75
3, 106360, Note_on_c, 1, 68, 0
3, 106360, Note_on_c, 1, 72, 0
3, 106360, Note_on_c, 1, 77, 0
3, 106560, Note_on_c, 1, 68, 75
3, 106560, Note_on_c, 1, 65, 75
3, 106744, Note_on_c, 1, 65, 0
3, 106744, Note_on_c, 1, 68, 0
3, 106752, Note_on_c, 1, 70, 75
3, 106752, Note_on_c, 1, 67, 75
3, 106936, Note_on_c, 1, 67, 0
3, 106936, Note_on_c, 1, 70, 0
3, 106944, Note_on_c, 1, 72, 75
3, 106944, Note_on_c, 1, 68, 75
3, 107128, Note_on_c, 1, 68, 0
3, 107128, Note_on_c, 1, 72, 0
3, 107328, Note_on_c, 1, 67, 75
3, 107328, Note_on_c, 1, 63, 75
3, 107328, Note_on_c, 1, 58, 75
3, 107512, Note_on_c, 1, 58, 0
3, 107512, Note_on_c, 1, 63, 0
3, 107512, Note_on_c, 1, 67, 0
3, 107520, Note_on_c, 1, 67, 75
3, 107520, Note_on_c, 1, 63, 75
3, 107520, Note_on_c, 1, 58, 75
3, 107704, Note_on_c, 1, 58, 0
3, 107704, Note_on_c, 1, 63, 0
3, 107704, Note_on_c, 1, 67, 0
3, 107712, Note_on_c, 1, 67, 75
3, 107712, Note_on_c, 1, 63, 75
3, 107712, Note_on_c, 1, 58, 75
3, 107896, Note_on_c, 1, 58, 0
3, 107896, Note_on_c, 1, 63, 0
3, 107896, Note_on_c, 1, 67, 0
3, 107904, Note_on_c, 1, 67, 75
3, 107904, Note_on_c, 1, 63, 75
3, 107904, Note_on_c, 1, 58, 75
3, 108088, Note_on_c, 1, 58, 0
3, 108088, Note_on_c, 1, 63, 0
3, 108088, Note_on_c, 1, 67, 0
3, 108096, Note_on_c, 1, 67, 75
3, 108096, Note_on_c, 1, 63, 75
3, 108096, Note_on_c, 1, 58, 75
3, 108280, Note_on_c, 1, 58, 0
3, 108280, Note_on_c, 1, 63, 0
3, 108280, Note_on_c, 1, 67, 0
3, 108288, Note_on_c, 1, 65, 75
3, 108288, Note_on_c, 1, 63, 75
3, 108288, Note_on_c, 1, 58, 75
3, 108472, Note_on_c, 1, 58, 0
3, 108472, Note_on_c, 1, 63, 0
3, 108472, Note_on_c, 1, 65, 0
3, 108480, Note_on_c, 1, 65, 75
3, 108480, Note_on_c, 1, 63, 75
3, 108480, Note_on_c, 1, 58, 75
3, 108664, Note_on_c, 1, 58, 0
3, 108664, Note_on_c, 1, 63, 0
3, 108664, Note_on_c, 1, 65, 0
3, 108672, Note_on_c, 1, 65, 75
3, 108672, Note_on_c, 1, 62, 75
3, 108672, Note_on_c, 1, 58, 75
3, 108856, Note_on_c, 1, 58, 0
3, 108856, Note_on_c, 1, 62, 0
3, 108856, Note_on_c, 1, 65, 0
3, 108864, Note_on_c, 1, 65, 75
3, 108864, Note_on_c, 1, 62, 75
3, 108864, Note_on_c, 1, 58, 75
3, 109048, Note_on_c, 1, 58, 0
3, 109048, Note_on_c, 1, 62, 0
3, 109048, Note_on_c, 1, 65, 0
3, 109056, Note_on_c, 1, 65, 75
3, 109056, Note_on_c, 1, 62, 75
3, 109056, Note_on_c, 1, 56, 75
3, 109240, Note_on_c, 1, 56, 0
3, 109240, Note_on_c, 1, 62, 0
3, 109240, Note_on_c, 1, 65, 0
3, 109248, Note_on_c, 1, 65, 75
3, 109248, Note_on_c, 1, 62, 75
3, 109248, Note_on_c, 1, 56, 75
3, 109432, Note_on_c, 1, 56, 0
3, 109432, Note_on_c, 1, 62, 0
3, 109432, Note_on_c, 1, 65, 0
3, 109440, Note_on_c, 1, 63, 75
3, 109440, Note_on_c, 1, 55, 75
3, 109816, Note_on_c, 1, 55, 0
3, 109816, Note_on_c, 1, 63, 0
3, 110208, Note_on_c, 1, 60, 75
3, 110488, Note_on_c, 1, 60, 0
3, 110496, Note_on_c, 1, 68, 75
3, 110584, Note_on_c, 1, 68, 0
3, 110592, Note_on_c, 1, 67, 75
3, 111352, Note_on_c, 1, 67, 0
3, 111360, Note_on_c, 1, 66, 75
3, 111640, Note_on_c, 1, 66, 0
3, 111648, Note_on_c, 1, 65, 75
3, 111736, Note_on_c, 1, 65, 0
3, 111744, Note_on_c, 1, 63, 75
3, 112120, Note_on_c, 1, 63, 0
3, 112512, Note_on_c, 1, 84, 75
3, 112512, Note_on_c, 1, 80, 75
3, 112512, Note_on_c, 1, 77, 75
3, 112696, Note_on_c, 1, 77, 0
3, 112696, Note_on_c, 1, 80, 0
3, 112696, Note_on_c, 1, 84, 0
3, 112896, Note_on_c, 1, 82, 75
3, 112896, Note_on_c, 1, 79, 75
3, 113080, Note_on_c, 1, 79, 0
3, 113080, Note_on_c, 1, 82, 0
3, 113280, Note_on_c, 1, 79, 75
3, 113280, Note_on_c, 1, 75, 75
3, 113280, Note_on_c, 1, 70, 75
3, 113464, Note_on_c, 1, 70, 0
3, 113464, Note_on_c, 1, 75, 0
3, 113464, Note_on_c, 1, 79, 0
3, 113664, Note_on_c, 1, 77, 75
3, 113664, Note_on_c, 1, 70, 75
3, 113664, Note_on_c, 1, 68, 75
3, 113848, Note_on_c, 1, 68, 0
3, 113848, Note_on_c, 1, 70, 0
3, 113848, Note_on_c, 1, 77, 0
3, 114048, Note_on_c, 1, 75, 75
3, 114048, Note_on_c, 1, 70, 75
3, 114048, Note_on_c, 1, 67, 75
3, 114232, Note_on_c, 1, 67, 0
3, 114232, Note_on_c, 1, 70, 0
3, 114232, Note_on_c, 1, 75, 0
3, 114432, Note_on_c, 1, 63, 75
3, 114432, Note_on_c, 1, 58, 75
3, 114432, Note_on_c, 1, 55, 75
3, 114616, Note_on_c, 1, 55, 0
3, 114616, Note_on_c, 1, 58, 0
3, 114616, Note_on_c, 1, 63, 0
3, 114816, Note_on_c, 1, 63, 75
3, 114816, Note_on_c, 1, 58, 75
3, 114816, Note_on_c, 1, 55, 75
3, 115000, Note_on_c, 1, 55, 0
3, 115000, Note_on_c, 1, 58, 0
3, 115000, Note_on_c, 1, 63, 0
3, 115200, Note_on_c, 1, 63, 75
3, 115200, Note_on_c, 1, 58, 75
3, 115200, Note_on_c, 1, 55, 75
3, 115576, Note_on_c, 1, 55, 0
3, 115576, Note_on_c, 1, 58, 0
3, 115576, Note_on_c, 1, 63, 0
3, 115576, End_track
4, 0, Start_track
4, 0, MIDI_port, 0
4, 0, Title_t, "K622-b-Adagio"
4, 0, Control_c, 2, 0, 0
4, 0, Control_c, 2, 32, 0
4, 0, Program_c, 2, 0
4, 0, Control_c, 2, 7, 100
4, 0, Control_c, 2, 10, 48
4, 0, Control_c, 2, 91, 127
4, 0, Control_c, 2, 93, 87
4, 0, Control_c, 2, 121, 0
4, 96, Control_c, 2, 10, 83
4, 192, Control_c, 2, 91, 63
4, 240, Control_c, 2, 93, 40
4, 288, Program_c, 2, 48
4, 1152, Note_on_c, 2, 51, 60
4, 2296, Note_on_c, 2, 51, 0
4, 2304, Note_on_c, 2, 46, 60
4, 2680, Note_on_c, 2, 46, 0
4, 2688, Note_on_c, 2, 51, 60
4, 3064, Note_on_c, 2, 51, 0
4, 3456, Note_on_c, 2, 51, 60
4, 4600, Note_on_c, 2, 51, 0
4, 4608, Note_on_c, 2, 46, 60
4, 4984, Note_on_c, 2, 46, 0
4, 4992, Note_on_c, 2, 51, 60
4, 5368, Note_on_c, 2, 51, 0
4, 5760, Note_on_c, 2, 46, 60
4, 6904, Note_on_c, 2, 46, 0
4, 6912, Note_on_c, 2, 46, 60
4, 7672, Note_on_c, 2, 46, 0
4, 7680, Note_on_c, 2, 51, 60
4, 8056, Note_on_c, 2, 51, 0
4, 8064, Note_on_c, 2, 53, 60
4, 8440, Note_on_c, 2, 53, 0
4, 8448, Note_on_c, 2, 53, 60
4, 8824, Note_on_c, 2, 53, 0
4, 8832, Note_on_c, 2, 53, 60
4, 9208, Note_on_c, 2, 53, 0
4, 9216, Note_on_c, 2, 46, 60
4, 9592, Note_on_c, 2, 46, 0
4, 10368, Note_on_c, 2, 55, 80
4, 10368, Note_on_c, 2, 51, 80
4, 10552, Note_on_c, 2, 51, 0
4, 10552, Note_on_c, 2, 55, 0
4, 10560, Note_on_c, 2, 58, 80
4, 10744, Note_on_c, 2, 58, 0
4, 10752, Note_on_c, 2, 55, 80
4, 10752, Note_on_c, 2, 51, 80
4, 10936, Note_on_c, 2, 51, 0
4, 10936, Note_on_c, 2, 55, 0
4, 10944, Note_on_c, 2, 58, 80
4, 11128, Note_on_c, 2, 58, 0
4, 11136, Note_on_c, 2, 55, 80
4, 11136, Note_on_c, 2, 51, 80
4, 11320, Note_on_c, 2, 51, 0
4, 11320, Note_on_c, 2, 55, 0
4, 11328, Note_on_c, 2, 58, 80
4, 11512, Note_on_c, 2, 58, 0
4, 11520, Note_on_c, 2, 56, 80
4, 11520, Note_on_c, 2, 46, 80
4, 11704, Note_on_c, 2, 46, 0
4, 11704, Note_on_c, 2, 56, 0
4, 11712, Note_on_c, 2, 58, 80
4, 11896, Note_on_c, 2, 58, 0
4, 11904, Note_on_c, 2, 55, 80
4, 11904, Note_on_c, 2, 51, 80
4, 12088, Note_on_c, 2, 51, 0
4, 12088, Note_on_c, 2, 55, 0
4, 12096, Note_on_c, 2, 58, 80
4, 12280, Note_on_c, 2, 58, 0
4, 12288, Note_on_c, 2, 55, 80
4, 12288, Note_on_c, 2, 51, 80
4, 12472, Note_on_c, 2, 51, 0
4, 12472, Note_on_c, 2, 55, 0
4, 12480, Note_on_c, 2, 58, 80
4, 12664, Note_on_c, 2, 58, 0
4, 12672, Note_on_c, 2, 55, 80
4, 12672, Note_on_c, 2, 51, 80
4, 12856, Note_on_c, 2, 51, 0
4, 12856, Note_on_c, 2, 55, 0
4, 12864, Note_on_c, 2, 58, 80
4, 13048, Note_on_c, 2, 58, 0
4, 13056, Note_on_c, 2, 55, 80
4, 13056, Note_on_c, 2, 51, 80
4, 13240, Note_on_c, 2, 51, 0
4, 13240, Note_on_c, 2, 55, 0
4, 13248, Note_on_c, 2, 58, 80
4, 13432, Note_on_c, 2, 58, 0
4, 13440, Note_on_c, 2, 55, 80
4, 13440, Note_on_c, 2, 51, 80
4, 13624, Note_on_c, 2, 51, 0
4, 13624, Note_on_c, 2, 55, 0
4, 13632, Note_on_c, 2, 58, 80
4, 13816, Note_on_c, 2, 58, 0
4, 13824, Note_on_c, 2, 50, 80
4, 13824, Note_on_c, 2, 46, 80
4, 14008, Note_on_c, 2, 46, 0
4, 14008, Note_on_c, 2, 50, 0
4, 14016, Note_on_c, 2, 58, 80
4, 14200, Note_on_c, 2, 58, 0
4, 14208, Note_on_c, 2, 55, 80
4, 14208, Note_on_c, 2, 51, 80
4, 14392, Note_on_c, 2, 51, 0
4, 14392, Note_on_c, 2, 55, 0
4, 14400, Note_on_c, 2, 58, 80
4, 14584, Note_on_c, 2, 58, 0
4, 14592, Note_on_c, 2, 55, 80
4, 14592, Note_on_c, 2, 51, 80
4, 14776, Note_on_c, 2, 51, 0
4, 14776, Note_on_c, 2, 55, 0
4, 14784, Note_on_c, 2, 58, 80
4, 14968, Note_on_c, 2, 58, 0
4, 14976, Note_on_c, 2, 53, 80
4, 14976, Note_on_c, 2, 50, 80
4, 14976, Note_on_c, 2, 46, 80
4, 15160, Note_on_c, 2, 46, 0
4, 15160, Note_on_c, 2, 50, 0
4, 15160, Note_on_c, 2, 53, 0
4, 15168, Note_on_c, 2, 58, 80
4, 15352, Note_on_c, 2, 58, 0
4, 15360, Note_on_c, 2, 53, 80
4, 15360, Note_on_c, 2, 50, 80
4, 15360, Note_on_c, 2, 46, 80
4, 15544, Note_on_c, 2, 46, 0
4, 15544, Note_on_c, 2, 50, 0
4, 15544, Note_on_c, 2, 53, 0
4, 15552, Note_on_c, 2, 58, 80
4, 15736, Note_on_c, 2, 58, 0
4, 15744, Note_on_c, 2, 55, 80
4, 15744, Note_on_c, 2, 51, 80
4, 15928, Note_on_c, 2, 51, 0
4, 15928, Note_on_c, 2, 55, 0
4, 15936, Note_on_c, 2, 58, 80
4, 16120, Note_on_c, 2, 58, 0
4, 16128, Note_on_c, 2, 53, 80
4, 16128, Note_on_c, 2, 50, 80
4, 16128, Note_on_c, 2, 46, 80
4, 16312, Note_on_c, 2, 46, 0
4, 16312, Note_on_c, 2, 50, 0
4, 16312, Note_on_c, 2, 53, 0
4, 16320, Note_on_c, 2, 58, 80
4, 16504, Note_on_c, 2, 58, 0
4, 16512, Note_on_c, 2, 53, 80
4, 16512, Note_on_c, 2, 50, 80
4, 16512, Note_on_c, 2, 46, 80
4, 16696, Note_on_c, 2, 46, 0
4, 16696, Note_on_c, 2, 50, 0
4, 16696, Note_on_c, 2, 53, 0
4, 16704, Note_on_c, 2, 58, 80
4, 16888, Note_on_c, 2, 58, 0
4, 16896, Note_on_c, 2, 43, 80
4, 16896, Note_on_c, 2, 39, 80
4, 17080, Note_on_c, 2, 39, 0
4, 17080, Note_on_c, 2, 43, 0
4, 17088, Note_on_c, 2, 48, 80
4, 17272, Note_on_c, 2, 48, 0
4, 17280, Note_on_c, 2, 50, 80
4, 17280, Note_on_c, 2, 46, 80
4, 17280, Note_on_c, 2, 41, 80
4, 17464, Note_on_c, 2, 41, 0
4, 17464, Note_on_c, 2, 46, 0
4, 17464, Note_on_c, 2, 50, 0
4, 17472, Note_on_c, 2, 53, 80
4, 17656, Note_on_c, 2, 53, 0
4, 17664, Note_on_c, 2, 50, 80
4, 17664, Note_on_c, 2, 46, 80
4, 17664, Note_on_c, 2, 41, 80
4, 17848, Note_on_c, 2, 41, 0
4, 17848, Note_on_c, 2, 46, 0
4, 17848, Note_on_c, 2, 50, 0
4, 17856, Note_on_c, 2, 53, 80
4, 18040, Note_on_c, 2, 53, 0
4, 18048, Note_on_c, 2, 51, 80
4, 18048, Note_on_c, 2, 45, 80
4, 18048, Note_on_c, 2, 41, 80
4, 18232, Note_on_c, 2, 41, 0
4, 18232, Note_on_c, 2, 45, 0
4, 18232, Note_on_c, 2, 51, 0
4, 18240, Note_on_c, 2, 53, 80
4, 18424, Note_on_c, 2, 53, 0
4, 18432, Note_on_c, 2, 50, 80
4, 18432, Note_on_c, 2, 46, 80
4, 18808, Note_on_c, 2, 46, 0
4, 18808, Note_on_c, 2, 50, 0
4, 19584, Note_on_c, 2, 55, 60
4, 19584, Note_on_c, 2, 51, 60
4, 20728, Note_on_c, 2, 51, 0
4, 20728, Note_on_c, 2, 55, 0
4, 20736, Note_on_c, 2, 56, 60
4, 21112, Note_on_c, 2, 56, 0
4, 21120, Note_on_c, 2, 58, 60
4, 21120, Note_on_c, 2, 61, 60
4, 21496, Note_on_c, 2, 61, 0
4, 21496, Note_on_c, 2, 58, 0
4, 21504, Note_on_c, 2, 60, 60
4, 21688, Note_on_c, 2, 60, 0
4, 21696, Note_on_c, 2, 58, 60
4, 21880, Note_on_c, 2, 58, 0
4, 21888, Note_on_c, 2, 56, 60
4, 21888, Note_on_c, 2, 53, 60
4, 23032, Note_on_c, 2, 53, 0
4, 23032, Note_on_c, 2, 56, 0
4, 23040, Note_on_c, 2, 58, 60
4, 23416, Note_on_c, 2, 58, 0
4, 23424, Note_on_c, 2, 60, 60
4, 23424, Note_on_c, 2, 63, 60
4, 23800, Note_on_c, 2, 63, 0
4, 23800, Note_on_c, 2, 60, 0
4, 23808, Note_on_c, 2, 62, 60
4, 23992, Note_on_c, 2, 62, 0
4, 24000, Note_on_c, 2, 60, 60
4, 24184, Note_on_c, 2, 60, 0
4, 24192, Note_on_c, 2, 58, 60
4, 24192, Note_on_c, 2, 55, 60
4, 24568, Note_on_c, 2, 55, 0
4, 24568, Note_on_c, 2, 58, 0
4, 24576, Note_on_c, 2, 56, 60
4, 24952, Note_on_c, 2, 56, 0
4, 24960, Note_on_c, 2, 58, 60
4, 25336, Note_on_c, 2, 58, 0
4, 25344, Note_on_c, 2, 60, 60
4, 25720, Note_on_c, 2, 60, 0
4, 25728, Note_on_c, 2, 58, 60
4, 26488, Note_on_c, 2, 58, 0
4, 26496, Note_on_c, 2, 56, 60
4, 26872, Note_on_c, 2, 56, 0
4, 26880, Note_on_c, 2, 58, 60
4, 27256, Note_on_c, 2, 58, 0
4, 27264, Note_on_c, 2, 46, 60
4, 27640, Note_on_c, 2, 46, 0
4, 27648, Note_on_c, 2, 51, 60
4, 28024, Note_on_c, 2, 51, 0
4, 28800, Note_on_c, 2, 51, 80
4, 28800, Note_on_c, 2, 39, 80
4, 29368, Note_on_c, 2, 39, 0
4, 29368, Note_on_c, 2, 51, 0
4, 29376, Note_on_c, 2, 53, 80
4, 29376, Note_on_c, 2, 41, 80
4, 29560, Note_on_c, 2, 41, 0
4, 29560, Note_on_c, 2, 53, 0
4, 29568, Note_on_c, 2, 55, 80
4, 29568, Note_on_c, 2, 43, 80
4, 29944, Note_on_c, 2, 43, 0
4, 29944, Note_on_c, 2, 55, 0
4, 29952, Note_on_c, 2, 56, 80
4, 29952, Note_on_c, 2, 44, 80
4, 30328, Note_on_c, 2, 44, 0
4, 30328, Note_on_c, 2, 56, 0
4, 30336, Note_on_c, 2, 58, 80
4, 30336, Note_on_c, 2, 46, 80
4, 30712, Note_on_c, 2, 46, 0
4, 30712, Note_on_c, 2, 58, 0
4, 30720, Note_on_c, 2, 48, 80
4, 31096, Note_on_c, 2, 48, 0
4, 31104, Note_on_c, 2, 53, 80
4, 31104, Note_on_c, 2, 41, 80
4, 31480, Note_on_c, 2, 41, 0
4, 31480, Note_on_c, 2, 53, 0
4, 31488, Note_on_c, 2, 41, 80
4, 31488, Note_on_c, 2, 29, 80
4, 31672, Note_on_c, 2, 29, 0
4, 31672, Note_on_c, 2, 41, 0
4, 31680, Note_on_c, 2, 43, 80
4, 31680, Note_on_c, 2, 31, 80
4, 31864, Note_on_c, 2, 31, 0
4, 31864, Note_on_c, 2, 43, 0
4, 31872, Note_on_c, 2, 44, 80
4, 31872, Note_on_c, 2, 32, 80
4, 32056, Note_on_c, 2, 32, 0
4, 32056, Note_on_c, 2, 44, 0
4, 32064, Note_on_c, 2, 45, 80
4, 32064, Note_on_c, 2, 33, 80
4, 32248, Note_on_c, 2, 33, 0
4, 32248, Note_on_c, 2, 45, 0
4, 32256, Note_on_c, 2, 46, 80
4, 32256, Note_on_c, 2, 34, 80
4, 32632, Note_on_c, 2, 34, 0
4, 32632, Note_on_c, 2, 46, 0
4, 32640, Note_on_c, 2, 48, 80
4, 32640, Note_on_c, 2, 36, 80
4, 33016, Note_on_c, 2, 36, 0
4, 33016, Note_on_c, 2, 48, 0
4, 33024, Note_on_c, 2, 50, 80
4, 33024, Note_on_c, 2, 38, 80
4, 33400, Note_on_c, 2, 38, 0
4, 33400, Note_on_c, 2, 50, 0
4, 33408, Note_on_c, 2, 43, 80
4, 33408, Note_on_c, 2, 31, 80
4, 33976, Note_on_c, 2, 31, 0
4, 33976, Note_on_c, 2, 43, 0
4, 33984, Note_on_c, 2, 44, 80
4, 33984, Note_on_c, 2, 32, 80
4, 34168, Note_on_c, 2, 32, 0
4, 34168, Note_on_c, 2, 44, 0
4, 34176, Note_on_c, 2, 46, 80
4, 34176, Note_on_c, 2, 34, 80
4, 34360, Note_on_c, 2, 34, 0
4, 34360, Note_on_c, 2, 46, 0
4, 34368, Note_on_c, 2, 47, 80
4, 34368, Note_on_c, 2, 35, 80
4, 34552, Note_on_c, 2, 35, 0
4, 34552, Note_on_c, 2, 47, 0
4, 34560, Note_on_c, 2, 48, 80
4, 34560, Note_on_c, 2, 36, 80
4, 34936, Note_on_c, 2, 36, 0
4, 34936, Note_on_c, 2, 48, 0
4, 34944, Note_on_c, 2, 50, 80
4, 34944, Note_on_c, 2, 38, 80
4, 35320, Note_on_c, 2, 38, 0
4, 35320, Note_on_c, 2, 50, 0
4, 35328, Note_on_c, 2, 51, 80
4, 35328, Note_on_c, 2, 39, 80
4, 35704, Note_on_c, 2, 39, 0
4, 35704, Note_on_c, 2, 51, 0
4, 35712, Note_on_c, 2, 44, 80
4, 35712, Note_on_c, 2, 32, 80
4, 36088, Note_on_c, 2, 32, 0
4, 36088, Note_on_c, 2, 44, 0
4, 36096, Note_on_c, 2, 46, 80
4, 36096, Note_on_c, 2, 34, 80
4, 36472, Note_on_c, 2, 34, 0
4, 36472, Note_on_c, 2, 46, 0
4, 36480, Note_on_c, 2, 46, 80
4, 36480, Note_on_c, 2, 34, 80
4, 36856, Note_on_c, 2, 34, 0
4, 36856, Note_on_c, 2, 46, 0
4, 36864, Note_on_c, 2, 51, 80
4, 36864, Note_on_c, 2, 39, 80
4, 37240, Note_on_c, 2, 39, 0
4, 37240, Note_on_c, 2, 51, 0
4, 38016, Note_on_c, 2, 51, 60
4, 38016, Note_on_c, 2, 39, 60
4, 38392, Note_on_c, 2, 39, 0
4, 38392, Note_on_c, 2, 51, 0
4, 39168, Note_on_c, 2, 46, 60
4, 39168, Note_on_c, 2, 34, 60
4, 39544, Note_on_c, 2, 34, 0
4, 39544, Note_on_c, 2, 46, 0
4, 40320, Note_on_c, 2, 41, 60
4, 40320, Note_on_c, 2, 53, 60
4, 41844, Note_on_c, 2, 53, 0
4, 41852, Note_on_c, 2, 41, 0
4, 41856, Note_on_c, 2, 46, 60
4, 42040, Note_on_c, 2, 46, 0
4, 42048, Note_on_c, 2, 58, 60
4, 42232, Note_on_c, 2, 58, 0
4, 42240, Note_on_c, 2, 53, 60
4, 42424, Note_on_c, 2, 53, 0
4, 42432, Note_on_c, 2, 51, 60
4, 42616, Note_on_c, 2, 51, 0
4, 42624, Note_on_c, 2, 58, 60
4, 42624, Note_on_c, 2, 50, 60
4, 43000, Note_on_c, 2, 50, 0
4, 43768, Note_on_c, 2, 58, 0
4, 43776, Note_on_c, 2, 58, 60
4, 43776, Note_on_c, 2, 51, 60
4, 44152, Note_on_c, 2, 51, 0
4, 44920, Note_on_c, 2, 58, 0
4, 44928, Note_on_c, 2, 58, 60
4, 44928, Note_on_c, 2, 53, 60
4, 45304, Note_on_c, 2, 53, 0
4, 46072, Note_on_c, 2, 58, 0
4, 46080, Note_on_c, 2, 58, 60
4, 46080, Note_on_c, 2, 55, 60
4, 46456, Note_on_c, 2, 55, 0
4, 47224, Note_on_c, 2, 58, 0
4, 47232, Note_on_c, 2, 53, 60
4, 47232, Note_on_c, 2, 45, 60
4, 48376, Note_on_c, 2, 45, 0
4, 48376, Note_on_c, 2, 53, 0
4, 48384, Note_on_c, 2, 46, 60
4, 48384, Note_on_c, 2, 34, 60
4, 48568, Note_on_c, 2, 34, 0
4, 48568, Note_on_c, 2, 46, 0
4, 48768, Note_on_c, 2, 50, 60
4, 48768, Note_on_c, 2, 38, 60
4, 48952, Note_on_c, 2, 38, 0
4, 48952, Note_on_c, 2, 50, 0
4, 49152, Note_on_c, 2, 51, 60
4, 49152, Note_on_c, 2, 39, 60
4, 49336, Note_on_c, 2, 39, 0
4, 49336, Note_on_c, 2, 51, 0
4, 49536, Note_on_c, 2, 53, 60
4, 49536, Note_on_c, 2, 41, 60
4, 50680, Note_on_c, 2, 41, 0
4, 50680, Note_on_c, 2, 53, 0
4, 50688, Note_on_c, 2, 54, 60
4, 50688, Note_on_c, 2, 42, 60
4, 51064, Note_on_c, 2, 42, 0
4, 51064, Note_on_c, 2, 54, 0
4, 51072, Note_on_c, 2, 55, 60
4, 51072, Note_on_c, 2, 43, 60
4, 51256, Note_on_c, 2, 43, 0
4, 51256, Note_on_c, 2, 55, 0
4, 51264, Note_on_c, 2, 58, 60
4, 51264, Note_on_c, 2, 55, 60
4, 51448, Note_on_c, 2, 55, 0
4, 51448, Note_on_c, 2, 58, 0
4, 51456, Note_on_c, 2, 57, 60
4, 51456, Note_on_c, 2, 53, 60
4, 51640, Note_on_c, 2, 53, 0
4, 51640, Note_on_c, 2, 57, 0
4, 51648, Note_on_c, 2, 55, 60
4, 51648, Note_on_c, 2, 51, 60
4, 51832, Note_on_c, 2, 51, 0
4, 51832, Note_on_c, 2, 55, 0
4, 51840, Note_on_c, 2, 58, 60
4, 51840, Note_on_c, 2, 50, 60
4, 52216, Note_on_c, 2, 50, 0
4, 52984, Note_on_c, 2, 58, 0
4, 52992, Note_on_c, 2, 58, 60
4, 52992, Note_on_c, 2, 51, 60
4, 53368, Note_on_c, 2, 51, 0
4, 54136, Note_on_c, 2, 58, 0
4, 54144, Note_on_c, 2, 58, 60
4, 54144, Note_on_c, 2, 53, 60
4, 54520, Note_on_c, 2, 53, 0
4, 55288, Note_on_c, 2, 58, 0
4, 55296, Note_on_c, 2, 58, 60
4, 55296, Note_on_c, 2, 55, 60
4, 55672, Note_on_c, 2, 55, 0
4, 56440, Note_on_c, 2, 58, 0
4, 56448, Note_on_c, 2, 57, 60
4, 56448, Note_on_c, 2, 45, 60
4, 57592, Note_on_c, 2, 45, 0
4, 57592, Note_on_c, 2, 57, 0
4, 57600, Note_on_c, 2, 58, 60
4, 57600, Note_on_c, 2, 46, 60
4, 57976, Note_on_c, 2, 46, 0
4, 57976, Note_on_c, 2, 58, 0
4, 58752, Note_on_c, 2, 51, 60
4, 58752, Note_on_c, 2, 39, 60
4, 59128, Note_on_c, 2, 39, 0
4, 59128, Note_on_c, 2, 51, 0
4, 59904, Note_on_c, 2, 53, 60
4, 59904, Note_on_c, 2, 41, 60
4, 60280, Note_on_c, 2, 41, 0
4, 60280, Note_on_c, 2, 53, 0
4, 61056, Note_on_c, 2, 41, 66
4, 61432, Note_on_c, 2, 41, 0
4, 61440, Note_on_c, 2, 41, 72
4, 61816, Note_on_c, 2, 41, 0
4, 61824, Note_on_c, 2, 41, 78
4, 62200, Note_on_c, 2, 41, 0
4, 62208, Note_on_c, 2, 46, 80
4, 62584, Note_on_c, 2, 46, 0
4, 62592, Note_on_c, 2, 53, 80
4, 62592, Note_on_c, 2, 41, 80
4, 62968, Note_on_c, 2, 41, 0
4, 62968, Note_on_c, 2, 53, 0
4, 62976, Note_on_c, 2, 50, 80
4, 62976, Note_on_c, 2, 38, 80
4, 63352, Note_on_c, 2, 38, 0
4, 63352, Note_on_c, 2, 50, 0
4, 63360, Note_on_c, 2, 46, 80
4, 63360, Note_on_c, 2, 34, 80
4, 63736, Note_on_c, 2, 34, 0
4, 63736, Note_on_c, 2, 46, 0
4, 64512, Note_on_c, 2, 58, 80
4, 64512, Note_on_c, 2, 46, 80
4, 64888, Note_on_c, 2, 46, 0
4, 64888, Note_on_c, 2, 58, 0
4, 64896, Note_on_c, 2, 46, 80
4, 64896, Note_on_c, 2, 34, 80
4, 65272, Note_on_c, 2, 34, 0
4, 65272, Note_on_c, 2, 46, 0
4, 65280, Note_on_c, 2, 58, 80
4, 65280, Note_on_c, 2, 46, 80
4, 65656, Note_on_c, 2, 46, 0
4, 65656, Note_on_c, 2, 58, 0
4, 65664, Note_on_c, 2, 46, 80
4, 65664, Note_on_c, 2, 34, 80
4, 66040, Note_on_c, 2, 34, 0
4, 66040, Note_on_c, 2, 46, 0
4, 66816, Note_on_c, 2, 58, 80
4, 66816, Note_on_c, 2, 46, 80
4, 67192, Note_on_c, 2, 46, 0
4, 67192, Note_on_c, 2, 58, 0
4, 67200, Note_on_c, 2, 53, 80
4, 67200, Note_on_c, 2, 41, 80
4, 67576, Note_on_c, 2, 41, 0
4, 67576, Note_on_c, 2, 53, 0
4, 67584, Note_on_c, 2, 50, 80
4, 67584, Note_on_c, 2, 38, 80
4, 67960, Note_on_c, 2, 38, 0
4, 67960, Note_on_c, 2, 50, 0
4, 67968, Note_on_c, 2, 46, 80
4, 67968, Note_on_c, 2, 34, 80
4, 68344, Note_on_c, 2, 34, 0
4, 68344, Note_on_c, 2, 46, 0
4, 71424, Note_on_c, 2, 51, 60
4, 72568, Note_on_c, 2, 51, 0
4, 72576, Note_on_c, 2, 46, 60
4, 72952, Note_on_c, 2, 46, 0
4, 72960, Note_on_c, 2, 51, 60
4, 73336, Note_on_c, 2, 51, 0
4, 73728, Note_on_c, 2, 51, 60
4, 74872, Note_on_c, 2, 51, 0
4, 74880, Note_on_c, 2, 46, 60
4, 75256, Note_on_c, 2, 46, 0
4, 75264, Note_on_c, 2, 51, 60
4, 75640, Note_on_c, 2, 51, 0
4, 76032, Note_on_c, 2, 46, 60
4, 77176, Note_on_c, 2, 46, 0
4, 77184, Note_on_c, 2, 46, 60
4, 77944, Note_on_c, 2, 46, 0
4, 77952, Note_on_c, 2, 51, 60
4, 78328, Note_on_c, 2, 51, 0
4, 78336, Note_on_c, 2, 53, 60
4, 78712, Note_on_c, 2, 53, 0
4, 78720, Note_on_c, 2, 53, 60
4, 79096, Note_on_c, 2, 53, 0
4, 79104, Note_on_c, 2, 53, 60
4, 79480, Note_on_c, 2, 53, 0
4, 79488, Note_on_c, 2, 46, 60
4, 79864, Note_on_c, 2, 46, 0
4, 80640, Note_on_c, 2, 55, 60
4, 80640, Note_on_c, 2, 51, 60
4, 81784, Note_on_c, 2, 51, 0
4, 81784, Note_on_c, 2, 55, 0
4, 81792, Note_on_c, 2, 56, 60
4, 82168, Note_on_c, 2, 56, 0
4, 82176, Note_on_c, 2, 61, 60
4, 82176, Note_on_c, 2, 58, 60
4, 82552, Note_on_c, 2, 58, 0
4, 82552, Note_on_c, 2, 61, 0
4, 82560, Note_on_c, 2, 60, 60
4, 82744, Note_on_c, 2, 60, 0
4, 82752, Note_on_c, 2, 58, 60
4, 82936, Note_on_c, 2, 58, 0
4, 82944, Note_on_c, 2, 56, 60
4, 82944, Note_on_c, 2, 53, 60
4, 84088, Note_on_c, 2, 53, 0
4, 84088, Note_on_c, 2, 56, 0
4, 84096, Note_on_c, 2, 58, 60
4, 84472, Note_on_c, 2, 58, 0
4, 84480, Note_on_c, 2, 60, 60
4, 84480, Note_on_c, 2, 63, 60
4, 84856, Note_on_c, 2, 63, 0
4, 84856, Note_on_c, 2, 60, 0
4, 84864, Note_on_c, 2, 62, 60
4, 85048, Note_on_c, 2, 62, 0
4, 85056, Note_on_c, 2, 60, 60
4, 85240, Note_on_c, 2, 60, 0
4, 85248, Note_on_c, 2, 58, 60
4, 85248, Note_on_c, 2, 55, 60
4, 85624, Note_on_c, 2, 55, 0
4, 85624, Note_on_c, 2, 58, 0
4, 85632, Note_on_c, 2, 56, 60
4, 86008, Note_on_c, 2, 56, 0
4, 86016, Note_on_c, 2, 58, 60
4, 86392, Note_on_c, 2, 58, 0
4, 86400, Note_on_c, 2, 60, 60
4, 86776, Note_on_c, 2, 60, 0
4, 86784, Note_on_c, 2, 58, 60
4, 87544, Note_on_c, 2, 58, 0
4, 87552, Note_on_c, 2, 56, 60
4, 87928, Note_on_c, 2, 56, 0
4, 87936, Note_on_c, 2, 58, 60
4, 88312, Note_on_c, 2, 58, 0
4, 88320, Note_on_c, 2, 46, 60
4, 88696, Note_on_c, 2, 46, 0
4, 88704, Note_on_c, 2, 51, 60
4, 89080, Note_on_c, 2, 51, 0
4, 89856, Note_on_c, 2, 51, 80
4, 89856, Note_on_c, 2, 39, 80
4, 90424, Note_on_c, 2, 39, 0
4, 90424, Note_on_c, 2, 51, 0
4, 90432, Note_on_c, 2, 50, 80
4, 90432, Note_on_c, 2, 38, 80
4, 90616, Note_on_c, 2, 38, 0
4, 90616, Note_on_c, 2, 50, 0
4, 90624, Note_on_c, 2, 48, 80
4, 90624, Note_on_c, 2, 36, 80
4, 90808, Note_on_c, 2, 36, 0
4, 90808, Note_on_c, 2, 48, 0
4, 90816, Note_on_c, 2, 46, 80
4, 90816, Note_on_c, 2, 34, 80
4, 91000, Note_on_c, 2, 34, 0
4, 91000, Note_on_c, 2, 46, 0
4, 91008, Note_on_c, 2, 44, 80
4, 91008, Note_on_c, 2, 32, 80
4, 91384, Note_on_c, 2, 32, 0
4, 91384, Note_on_c, 2, 44, 0
4, 91392, Note_on_c, 2, 46, 80
4, 91392, Note_on_c, 2, 34, 80
4, 91768, Note_on_c, 2, 34, 0
4, 91768, Note_on_c, 2, 46, 0
4, 91776, Note_on_c, 2, 48, 80
4, 91776, Note_on_c, 2, 36, 80
4, 92152, Note_on_c, 2, 36, 0
4, 92152, Note_on_c, 2, 48, 0
4, 92160, Note_on_c, 2, 53, 80
4, 92160, Note_on_c, 2, 41, 80
4, 92728, Note_on_c, 2, 41, 0
4, 92728, Note_on_c, 2, 53, 0
4, 92736, Note_on_c, 2, 51, 80
4, 92736, Note_on_c, 2, 39, 80
4, 92920, Note_on_c, 2, 39, 0
4, 92920, Note_on_c, 2, 51, 0
4, 92928, Note_on_c, 2, 50, 80
4, 92928, Note_on_c, 2, 38, 80
4, 93112, Note_on_c, 2, 38, 0
4, 93112, Note_on_c, 2, 50, 0
4, 93120, Note_on_c, 2, 48, 80
4, 93120, Note_on_c, 2, 36, 80
4, 93304, Note_on_c, 2, 36, 0
4, 93304, Note_on_c, 2, 48, 0
4, 93312, Note_on_c, 2, 46, 80
4, 93312, Note_on_c, 2, 34, 80
4, 93688, Note_on_c, 2, 34, 0
4, 93688, Note_on_c, 2, 46, 0
4, 93696, Note_on_c, 2, 48, 80
4, 93696, Note_on_c, 2, 36, 80
4, 94072, Note_on_c, 2, 36, 0
4, 94072, Note_on_c, 2, 48, 0
4, 94080, Note_on_c, 2, 50, 80
4, 94080, Note_on_c, 2, 38, 80
4, 94456, Note_on_c, 2, 38, 0
4, 94456, Note_on_c, 2, 50, 0
4, 94464, Note_on_c, 2, 55, 80
4, 94464, Note_on_c, 2, 43, 80
4, 95032, Note_on_c, 2, 43, 0
4, 95032, Note_on_c, 2, 55, 0
4, 95040, Note_on_c, 2, 53, 80
4, 95040, Note_on_c, 2, 41, 80
4, 95224, Note_on_c, 2, 41, 0
4, 95224, Note_on_c, 2, 53, 0
4, 95232, Note_on_c, 2, 51, 80
4, 95232, Note_on_c, 2, 39, 80
4, 95416, Note_on_c, 2, 39, 0
4, 95416, Note_on_c, 2, 51, 0
4, 95424, Note_on_c, 2, 50, 80
4, 95424, Note_on_c, 2, 38, 80
4, 95608, Note_on_c, 2, 38, 0
4, 95608, Note_on_c, 2, 50, 0
4, 95616, Note_on_c, 2, 48, 80
4, 95616, Note_on_c, 2, 36, 80
4, 95992, Note_on_c, 2, 36, 0
4, 95992, Note_on_c, 2, 48, 0
4, 96000, Note_on_c, 2, 47, 80
4, 96000, Note_on_c, 2, 35, 80
4, 96376, Note_on_c, 2, 35, 0
4, 96376, Note_on_c, 2, 47, 0
4, 96384, Note_on_c, 2, 46, 80
4, 96384, Note_on_c, 2, 34, 80
4, 96760, Note_on_c, 2, 34, 0
4, 96760, Note_on_c, 2, 46, 0
4, 96768, Note_on_c, 2, 44, 80
4, 96768, Note_on_c, 2, 32, 80
4, 97144, Note_on_c, 2, 32, 0
4, 97144, Note_on_c, 2, 44, 0
4, 97152, Note_on_c, 2, 46, 80
4, 97152, Note_on_c, 2, 34, 80
4, 97528, Note_on_c, 2, 34, 0
4, 97528, Note_on_c, 2, 46, 0
4, 97536, Note_on_c, 2, 46, 80
4, 97536, Note_on_c, 2, 34, 80
4, 97912, Note_on_c, 2, 34, 0
4, 97912, Note_on_c, 2, 46, 0
4, 97920, Note_on_c, 2, 51, 80
4, 97920, Note_on_c, 2, 39, 80
4, 98296, Note_on_c, 2, 39, 0
4, 98296, Note_on_c, 2, 51, 0
4, 99072, Note_on_c, 2, 62, 60
4, 99832, Note_on_c, 2, 62, 0
4, 99840, Note_on_c, 2, 63, 60
4, 100216, Note_on_c, 2, 63, 0
4, 100224, Note_on_c, 2, 62, 60
4, 100984, Note_on_c, 2, 62, 0
4, 100992, Note_on_c, 2, 63, 60
4, 101368, Note_on_c, 2, 63, 0
4, 101376, Note_on_c, 2, 56, 60
4, 101752, Note_on_c, 2, 56, 0
4, 101760, Note_on_c, 2, 58, 60
4, 102136, Note_on_c, 2, 58, 0
4, 102144, Note_on_c, 2, 46, 60
4, 102520, Note_on_c, 2, 46, 0
4, 102528, Note_on_c, 2, 51, 60
4, 102904, Note_on_c, 2, 51, 0
4, 103680, Note_on_c, 2, 50, 60
4, 104440, Note_on_c, 2, 50, 0
4, 104448, Note_on_c, 2, 51, 60
4, 104824, Note_on_c, 2, 51, 0
4, 104832, Note_on_c, 2, 50, 60
4, 105592, Note_on_c, 2, 50, 0
4, 105600, Note_on_c, 2, 51, 60
4, 105976, Note_on_c, 2, 51, 0
4, 105984, Note_on_c, 2, 44, 60
4, 106360, Note_on_c, 2, 44, 0
4, 107136, Note_on_c, 2, 46, 60
4, 107512, Note_on_c, 2, 46, 0
4, 108288, Note_on_c, 2, 46, 60
4, 108664, Note_on_c, 2, 46, 0
4, 108672, Note_on_c, 2, 46, 60
4, 109048, Note_on_c, 2, 46, 0
4, 109056, Note_on_c, 2, 46, 60
4, 109432, Note_on_c, 2, 46, 0
4, 109440, Note_on_c, 2, 48, 60
4, 109816, Note_on_c, 2, 48, 0
4, 110208, Note_on_c, 2, 56, 60
4, 110584, Note_on_c, 2, 56, 0
4, 110592, Note_on_c, 2, 58, 60
4, 111352, Note_on_c, 2, 58, 0
4, 111360, Note_on_c, 2, 58, 60
4, 111544, Note_on_c, 2, 58, 0
4, 111552, Note_on_c, 2, 58, 60
4, 111736, Note_on_c, 2, 58, 0
4, 111744, Note_on_c, 2, 60, 60
4, 112120, Note_on_c, 2, 60, 0
4, 112512, Note_on_c, 2, 44, 60
4, 112512, Note_on_c, 2, 32, 60
4, 112888, Note_on_c, 2, 32, 0
4, 112888, Note_on_c, 2, 44, 0
4, 112896, Note_on_c, 2, 46, 60
4, 112896, Note_on_c, 2, 34, 60
4, 114040, Note_on_c, 2, 34, 0
4, 114040, Note_on_c, 2, 46, 0
4, 114048, Note_on_c, 2, 51, 60
4, 114048, Note_on_c, 2, 39, 60
4, 114232, Note_on_c, 2, 39, 0
4, 114232, Note_on_c, 2, 51, 0
4, 114432, Note_on_c, 2, 46, 60
4, 114616, Note_on_c, 2, 46, 0
4, 114816, Note_on_c, 2, 43, 60
4, 115000, Note_on_c, 2, 43, 0
4, 115200, Note_on_c, 2, 51, 60
4, 115200, Note_on_c, 2, 39, 60
4, 115576, Note_on_c, 2, 39, 0
4, 115576, Note_on_c, 2, 51, 0
4, 115576, End_track
5, 0, Start_track
5, 0, MIDI_port, 0
5, 0, Title_t, "Midi by:"
5, 0, End_track
6, 0, Start_track
6, 0, MIDI_port, 0
6, 0, Title_t, "B.Fisher"
6, 0, End_track
0, 0, End_of_file
