0, 0, Header, 1, 6, 384
1, 0, Start_track
1, 0, Time_signature, 3, 3, 96, 8
1, 0, Sequencer_specific, 3, 0, 0, 65
1, 0, Sequencer_specific, 5, 0, 0, 119, 14, 0
1, 0, Tempo, 1578947
1, 64512, Tempo, 1818181
1, 65088, Tempo, 2142857
1, 65088, End_track
2, 0, Start_track
2, 0, Title_t, "Mozart - Piano"
2, 0, Control_c, 0, 0, 0
2, 0, Program_c, 0, 0
2, 0, Control_c, 0, 7, 127
2, 0, Control_c, 0, 10, 67
2, 0, Control_c, 0, 91, 67
2, 0, Control_c, 0, 93, 48
2, 0, Key_signature, -3, "minor"
2, 0, Control_c, 0, 121, 0
2, 48, Control_c, 0, 10, 63
2, 96, Control_c, 0, 91, 63
2, 120, Control_c, 0, 93, 35
2, 144, Program_c, 0, 0
2, 5184, Note_on_c, 0, 70, 66
2, 5374, Note_off_c, 0, 70, 0
2, 5376, Note_on_c, 0, 67, 66
2, 5662, Note_off_c, 0, 67, 0
2, 5664, Note_on_c, 0, 68, 66
2, 5710, Note_off_c, 0, 68, 0
2, 5712, Note_on_c, 0, 65, 66
2, 5758, Note_off_c, 0, 65, 0
2, 5760, Note_on_c, 0, 63, 66
2, 5854, Note_off_c, 0, 63, 64
2, 5856, Note_on_c, 0, 65, 66
2, 5876, Note_off_c, 0, 65, 64
2, 5880, Note_on_c, 0, 63, 66
2, 5900, Note_off_c, 0, 63, 64
2, 5904, Note_on_c, 0, 62, 66
2, 5924, Note_off_c, 0, 62, 64
2, 5928, Note_on_c, 0, 63, 66
2, 5948, Note_off_c, 0, 63, 64
2, 5952, Note_on_c, 0, 72, 66
2, 6140, Note_off_c, 0, 72, 64
2, 6336, Note_on_c, 0, 68, 66
2, 6430, Note_off_c, 0, 68, 0
2, 6528, Note_on_c, 0, 67, 66
2, 6574, Note_off_c, 0, 67, 0
2, 6592, Note_on_c, 0, 68, 66
2, 6612, Note_off_c, 0, 68, 0
2, 6656, Note_on_c, 0, 70, 66
2, 6676, Note_off_c, 0, 70, 0
2, 6720, Note_on_c, 0, 72, 66
2, 6766, Note_off_c, 0, 72, 0
2, 6784, Note_on_c, 0, 68, 66
2, 6830, Note_off_c, 0, 68, 0
2, 6848, Note_on_c, 0, 65, 66
2, 6894, Note_off_c, 0, 65, 0
2, 6912, Note_on_c, 0, 63, 66
2, 7056, Note_off_c, 0, 63, 0
2, 7056, Note_on_c, 0, 65, 66
2, 7076, Note_off_c, 0, 65, 0
2, 7080, Note_on_c, 0, 63, 66
2, 7100, Note_off_c, 0, 63, 0
2, 7104, Note_on_c, 0, 62, 66
2, 7294, Note_off_c, 0, 62, 0
2, 7488, Note_on_c, 0, 62, 66
2, 7534, Note_off_c, 0, 62, 0
2, 7584, Note_on_c, 0, 60, 66
2, 7630, Note_off_c, 0, 60, 0
2, 7680, Note_on_c, 0, 60, 66
2, 7726, Note_off_c, 0, 60, 0
2, 7872, Note_on_c, 0, 60, 66
2, 7966, Note_off_c, 0, 60, 0
2, 8064, Note_on_c, 0, 75, 66
2, 8206, Note_off_c, 0, 75, 0
2, 8208, Note_on_c, 0, 72, 66
2, 8254, Note_off_c, 0, 72, 0
2, 8256, Note_on_c, 0, 69, 66
2, 8446, Note_off_c, 0, 69, 0
2, 8544, Note_on_c, 0, 70, 66
2, 8638, Note_off_c, 0, 70, 0
2, 8640, Note_on_c, 0, 62, 66
2, 8640, Note_on_c, 0, 58, 66
2, 8734, Note_off_c, 0, 62, 0
2, 8734, Note_off_c, 0, 58, 0
2, 8736, Note_on_c, 0, 65, 66
2, 8736, Note_on_c, 0, 62, 66
2, 8830, Note_off_c, 0, 65, 0
2, 8830, Note_off_c, 0, 62, 0
2, 8832, Note_on_c, 0, 63, 66
2, 8832, Note_on_c, 0, 60, 66
2, 9118, Note_off_c, 0, 63, 0
2, 9118, Note_off_c, 0, 60, 0
2, 9120, Note_on_c, 0, 57, 66
2, 9120, Note_on_c, 0, 60, 66
2, 9166, Note_off_c, 0, 57, 0
2, 9166, Note_off_c, 0, 60, 0
2, 9216, Note_on_c, 0, 60, 66
2, 9216, Note_on_c, 0, 57, 66
2, 9310, Note_off_c, 0, 60, 0
2, 9310, Note_off_c, 0, 57, 0
2, 9312, Note_on_c, 0, 58, 66
2, 9406, Note_off_c, 0, 58, 0
2, 9408, Note_on_c, 0, 58, 66
2, 9598, Note_off_c, 0, 58, 0
2, 14400, Note_on_c, 0, 70, 66
2, 14400, Note_on_c, 0, 67, 66
2, 14590, Note_off_c, 0, 70, 0
2, 14590, Note_off_c, 0, 67, 0
2, 14592, Note_on_c, 0, 65, 66
2, 14592, Note_on_c, 0, 68, 66
2, 14782, Note_off_c, 0, 65, 0
2, 14782, Note_off_c, 0, 68, 0
2, 14784, Note_on_c, 0, 67, 66
2, 14784, Note_on_c, 0, 63, 66
2, 14784, Note_on_c, 0, 60, 66
2, 14974, Note_off_c, 0, 67, 0
2, 14974, Note_off_c, 0, 63, 0
2, 14974, Note_off_c, 0, 60, 0
2, 14976, Note_on_c, 0, 63, 66
2, 14976, Note_on_c, 0, 72, 66
2, 15070, Note_off_c, 0, 72, 0
2, 15072, Note_on_c, 0, 65, 66
2, 15166, Note_off_c, 0, 63, 0
2, 15166, Note_off_c, 0, 65, 0
2, 15168, Note_on_c, 0, 65, 66
2, 15168, Note_on_c, 0, 62, 66
2, 15454, Note_off_c, 0, 65, 0
2, 15456, Note_on_c, 0, 67, 66
2, 15502, Note_off_c, 0, 67, 0
2, 15504, Note_on_c, 0, 68, 66
2, 15550, Note_off_c, 0, 62, 0
2, 15550, Note_off_c, 0, 68, 0
2, 15552, Note_on_c, 0, 70, 66
2, 15742, Note_off_c, 0, 70, 0
2, 15744, Note_on_c, 0, 62, 66
2, 15934, Note_off_c, 0, 62, 0
2, 15936, Note_on_c, 0, 63, 66
2, 16126, Note_off_c, 0, 63, 0
2, 16128, Note_on_c, 0, 63, 66
2, 16128, Note_on_c, 0, 67, 66
2, 16318, Note_off_c, 0, 63, 0
2, 16318, Note_off_c, 0, 67, 0
2, 16320, Note_on_c, 0, 65, 66
2, 16320, Note_on_c, 0, 62, 66
2, 16510, Note_off_c, 0, 65, 64
2, 16510, Note_off_c, 0, 62, 64
2, 16512, Note_on_c, 0, 66, 66
2, 16512, Note_on_c, 0, 60, 66
2, 16608, Note_on_c, 0, 75, 66
2, 16702, Note_off_c, 0, 75, 0
2, 16704, Note_on_c, 0, 74, 66
2, 16766, Note_off_c, 0, 74, 0
2, 16768, Note_on_c, 0, 70, 66
2, 16830, Note_off_c, 0, 70, 0
2, 16832, Note_on_c, 0, 67, 66
2, 16894, Note_off_c, 0, 60, 0
2, 16894, Note_off_c, 0, 66, 0
2, 16894, Note_off_c, 0, 67, 0
2, 16896, Note_on_c, 0, 67, 66
2, 17086, Note_off_c, 0, 67, 0
2, 17184, Note_on_c, 0, 72, 66
2, 17278, Note_off_c, 0, 72, 0
2, 17280, Note_on_c, 0, 70, 66
2, 17326, Note_off_c, 0, 70, 0
2, 17344, Note_on_c, 0, 75, 66
2, 17390, Note_off_c, 0, 75, 0
2, 17408, Note_on_c, 0, 67, 66
2, 17454, Note_off_c, 0, 67, 0
2, 17472, Note_on_c, 0, 70, 66
2, 17520, Note_on_c, 0, 68, 66
2, 17566, Note_off_c, 0, 70, 0
2, 17760, Note_on_c, 0, 67, 66
2, 17806, Note_off_c, 0, 68, 0
2, 17854, Note_off_c, 0, 67, 0
2, 17856, Note_on_c, 0, 67, 66
2, 17902, Note_off_c, 0, 67, 0
2, 17904, Note_on_c, 0, 65, 66
2, 17950, Note_off_c, 0, 65, 0
2, 17952, Note_on_c, 0, 68, 66
2, 17998, Note_off_c, 0, 68, 0
2, 18000, Note_on_c, 0, 72, 66
2, 18046, Note_off_c, 0, 72, 0
2, 18048, Note_on_c, 0, 63, 66
2, 18240, Note_on_c, 0, 62, 66
2, 18334, Note_off_c, 0, 63, 0
2, 18336, Note_on_c, 0, 67, 66
2, 18382, Note_off_c, 0, 67, 0
2, 18384, Note_on_c, 0, 65, 66
2, 18430, Note_off_c, 0, 62, 0
2, 18430, Note_off_c, 0, 65, 0
2, 18432, Note_on_c, 0, 63, 66
2, 18622, Note_off_c, 0, 63, 0
2, 18624, Note_on_c, 0, 63, 66
2, 18624, Note_on_c, 0, 55, 66
2, 18814, Note_off_c, 0, 63, 0
2, 18814, Note_off_c, 0, 55, 0
2, 19056, Note_on_c, 0, 55, 66
2, 19102, Note_off_c, 0, 55, 0
2, 19104, Note_on_c, 0, 58, 66
2, 19150, Note_off_c, 0, 58, 0
2, 19152, Note_on_c, 0, 63, 66
2, 19198, Note_off_c, 0, 63, 0
2, 19200, Note_on_c, 0, 67, 66
2, 19246, Note_off_c, 0, 67, 0
2, 19248, Note_on_c, 0, 70, 66
2, 19294, Note_off_c, 0, 70, 0
2, 19296, Note_on_c, 0, 63, 66
2, 19342, Note_off_c, 0, 63, 0
2, 19344, Note_on_c, 0, 67, 66
2, 19390, Note_off_c, 0, 67, 0
2, 19392, Note_on_c, 0, 68, 66
2, 19438, Note_off_c, 0, 68, 0
2, 19440, Note_on_c, 0, 65, 66
2, 19486, Note_off_c, 0, 65, 0
2, 19488, Note_on_c, 0, 62, 66
2, 19534, Note_off_c, 0, 62, 0
2, 19536, Note_on_c, 0, 65, 66
2, 19582, Note_off_c, 0, 65, 0
2, 19632, Note_on_c, 0, 63, 66
2, 19678, Note_off_c, 0, 63, 0
2, 19680, Note_on_c, 0, 67, 66
2, 19726, Note_off_c, 0, 67, 0
2, 19728, Note_on_c, 0, 59, 66
2, 19774, Note_off_c, 0, 59, 0
2, 19776, Note_on_c, 0, 60, 66
2, 19822, Note_off_c, 0, 60, 0
2, 19824, Note_on_c, 0, 63, 66
2, 19870, Note_off_c, 0, 63, 0
2, 19872, Note_on_c, 0, 68, 66
2, 19918, Note_off_c, 0, 68, 0
2, 19920, Note_on_c, 0, 71, 66
2, 19966, Note_off_c, 0, 71, 0
2, 19968, Note_on_c, 0, 72, 66
2, 20014, Note_off_c, 0, 72, 0
2, 20016, Note_on_c, 0, 75, 66
2, 20062, Note_off_c, 0, 75, 0
2, 20064, Note_on_c, 0, 80, 66
2, 20110, Note_off_c, 0, 80, 0
2, 20112, Note_on_c, 0, 84, 66
2, 20158, Note_off_c, 0, 84, 0
2, 20208, Note_on_c, 0, 58, 66
2, 20254, Note_off_c, 0, 58, 0
2, 20256, Note_on_c, 0, 65, 66
2, 20302, Note_off_c, 0, 65, 0
2, 20304, Note_on_c, 0, 68, 66
2, 20350, Note_off_c, 0, 68, 0
2, 20352, Note_on_c, 0, 67, 66
2, 20398, Note_off_c, 0, 67, 0
2, 20400, Note_on_c, 0, 63, 66
2, 20446, Note_off_c, 0, 63, 0
2, 20448, Note_on_c, 0, 58, 66
2, 20494, Note_off_c, 0, 58, 0
2, 20496, Note_on_c, 0, 59, 66
2, 20542, Note_off_c, 0, 59, 0
2, 20544, Note_on_c, 0, 60, 66
2, 20590, Note_off_c, 0, 60, 0
2, 20592, Note_on_c, 0, 64, 66
2, 20638, Note_off_c, 0, 64, 0
2, 20640, Note_on_c, 0, 65, 66
2, 20686, Note_off_c, 0, 65, 0
2, 20688, Note_on_c, 0, 72, 66
2, 20734, Note_off_c, 0, 72, 0
2, 20736, Note_on_c, 0, 63, 66
2, 20782, Note_off_c, 0, 63, 0
2, 20784, Note_on_c, 0, 67, 66
2, 20830, Note_off_c, 0, 67, 0
2, 20832, Note_on_c, 0, 65, 66
2, 20878, Note_off_c, 0, 65, 0
2, 20880, Note_on_c, 0, 63, 66
2, 20926, Note_off_c, 0, 63, 0
2, 20928, Note_on_c, 0, 62, 66
2, 20974, Note_off_c, 0, 62, 0
2, 20976, Note_on_c, 0, 65, 66
2, 21022, Note_off_c, 0, 65, 0
2, 21024, Note_on_c, 0, 69, 66
2, 21070, Note_off_c, 0, 69, 0
2, 21072, Note_on_c, 0, 70, 66
2, 21118, Note_off_c, 0, 70, 0
2, 21120, Note_on_c, 0, 74, 66
2, 21166, Note_off_c, 0, 74, 0
2, 21168, Note_on_c, 0, 77, 66
2, 21214, Note_off_c, 0, 77, 0
2, 21216, Note_on_c, 0, 81, 66
2, 21262, Note_off_c, 0, 81, 0
2, 21264, Note_on_c, 0, 82, 66
2, 21310, Note_off_c, 0, 82, 0
2, 21360, Note_on_c, 0, 78, 66
2, 21406, Note_off_c, 0, 78, 0
2, 21408, Note_on_c, 0, 79, 66
2, 21454, Note_off_c, 0, 79, 0
2, 21456, Note_on_c, 0, 74, 66
2, 21502, Note_off_c, 0, 74, 0
2, 21504, Note_on_c, 0, 75, 66
2, 21550, Note_off_c, 0, 75, 0
2, 21552, Note_on_c, 0, 71, 66
2, 21598, Note_off_c, 0, 71, 0
2, 21600, Note_on_c, 0, 72, 66
2, 21646, Note_off_c, 0, 72, 0
2, 21648, Note_on_c, 0, 66, 66
2, 21694, Note_off_c, 0, 66, 0
2, 21696, Note_on_c, 0, 67, 66
2, 21742, Note_off_c, 0, 67, 0
2, 21744, Note_on_c, 0, 60, 66
2, 21790, Note_off_c, 0, 60, 0
2, 21792, Note_on_c, 0, 72, 66
2, 21838, Note_off_c, 0, 72, 0
2, 21840, Note_on_c, 0, 70, 66
2, 21886, Note_off_c, 0, 70, 0
2, 21888, Note_on_c, 0, 69, 66
2, 21934, Note_off_c, 0, 69, 0
2, 21936, Note_on_c, 0, 72, 66
2, 21982, Note_off_c, 0, 72, 0
2, 21984, Note_on_c, 0, 75, 66
2, 22030, Note_off_c, 0, 75, 0
2, 22032, Note_on_c, 0, 81, 66
2, 22078, Note_off_c, 0, 81, 0
2, 22080, Note_on_c, 0, 84, 66
2, 22126, Note_off_c, 0, 84, 0
2, 22128, Note_on_c, 0, 86, 66
2, 22174, Note_off_c, 0, 86, 0
2, 22176, Note_on_c, 0, 87, 66
2, 22222, Note_off_c, 0, 87, 0
2, 22224, Note_on_c, 0, 81, 66
2, 22270, Note_off_c, 0, 81, 0
2, 22272, Note_on_c, 0, 82, 66
2, 22318, Note_off_c, 0, 82, 0
2, 22320, Note_on_c, 0, 84, 66
2, 22366, Note_off_c, 0, 84, 0
2, 22368, Note_on_c, 0, 86, 66
2, 22414, Note_off_c, 0, 86, 0
2, 22416, Note_on_c, 0, 76, 66
2, 22462, Note_off_c, 0, 76, 0
2, 22464, Note_on_c, 0, 77, 66
2, 22510, Note_off_c, 0, 77, 0
2, 22512, Note_on_c, 0, 89, 66
2, 22558, Note_off_c, 0, 89, 0
2, 22560, Note_on_c, 0, 86, 66
2, 22606, Note_off_c, 0, 86, 0
2, 22608, Note_on_c, 0, 82, 66
2, 22654, Note_off_c, 0, 82, 0
2, 22656, Note_on_c, 0, 81, 66
2, 22702, Note_off_c, 0, 81, 0
2, 22704, Note_on_c, 0, 87, 66
2, 22750, Note_off_c, 0, 87, 0
2, 22752, Note_on_c, 0, 84, 66
2, 22798, Note_off_c, 0, 84, 0
2, 22800, Note_on_c, 0, 81, 66
2, 22846, Note_off_c, 0, 81, 0
2, 22848, Note_on_c, 0, 77, 66
2, 22894, Note_off_c, 0, 77, 0
2, 22896, Note_on_c, 0, 75, 66
2, 22942, Note_off_c, 0, 75, 0
2, 22944, Note_on_c, 0, 72, 66
2, 22990, Note_off_c, 0, 72, 0
2, 22992, Note_on_c, 0, 69, 66
2, 23038, Note_off_c, 0, 69, 0
2, 23040, Note_on_c, 0, 70, 66
2, 23086, Note_off_c, 0, 70, 0
2, 23088, Note_on_c, 0, 77, 66
2, 23134, Note_off_c, 0, 77, 0
2, 23136, Note_on_c, 0, 74, 66
2, 23182, Note_off_c, 0, 74, 0
2, 23184, Note_on_c, 0, 70, 66
2, 23230, Note_off_c, 0, 70, 0
2, 23232, Note_on_c, 0, 65, 66
2, 23278, Note_off_c, 0, 65, 0
2, 23280, Note_on_c, 0, 70, 66
2, 23326, Note_off_c, 0, 70, 0
2, 23328, Note_on_c, 0, 65, 66
2, 23374, Note_off_c, 0, 65, 0
2, 23376, Note_on_c, 0, 62, 66
2, 23422, Note_off_c, 0, 62, 0
2, 23424, Note_on_c, 0, 58, 66
2, 23470, Note_off_c, 0, 58, 0
2, 23616, Note_on_c, 0, 82, 66
2, 23616, Note_on_c, 0, 79, 66
2, 23616, Note_on_c, 0, 75, 66
2, 23616, Note_on_c, 0, 70, 66
2, 23806, Note_off_c, 0, 82, 0
2, 23806, Note_off_c, 0, 79, 0
2, 23806, Note_off_c, 0, 75, 0
2, 23806, Note_off_c, 0, 70, 0
2, 23808, Note_on_c, 0, 79, 66
2, 23808, Note_on_c, 0, 75, 66
2, 23808, Note_on_c, 0, 70, 66
2, 23998, Note_off_c, 0, 79, 0
2, 23998, Note_off_c, 0, 75, 0
2, 23998, Note_off_c, 0, 70, 0
2, 24000, Note_on_c, 0, 77, 66
2, 24000, Note_on_c, 0, 74, 66
2, 24000, Note_on_c, 0, 70, 66
2, 24000, Note_on_c, 0, 68, 66
2, 24190, Note_off_c, 0, 77, 0
2, 24190, Note_off_c, 0, 74, 0
2, 24190, Note_off_c, 0, 70, 0
2, 24190, Note_off_c, 0, 68, 0
2, 24192, Note_on_c, 0, 75, 66
2, 24192, Note_on_c, 0, 67, 66
2, 24382, Note_off_c, 0, 75, 0
2, 24382, Note_off_c, 0, 67, 0
2, 24384, Note_on_c, 0, 84, 66
2, 24384, Note_on_c, 0, 80, 66
2, 24384, Note_on_c, 0, 75, 66
2, 24384, Note_on_c, 0, 72, 66
2, 24574, Note_off_c, 0, 84, 0
2, 24574, Note_off_c, 0, 80, 0
2, 24574, Note_off_c, 0, 75, 0
2, 24574, Note_off_c, 0, 72, 0
2, 24576, Note_on_c, 0, 56, 66
2, 24622, Note_off_c, 0, 56, 0
2, 24624, Note_on_c, 0, 60, 66
2, 24670, Note_off_c, 0, 60, 0
2, 24672, Note_on_c, 0, 63, 66
2, 24718, Note_off_c, 0, 63, 0
2, 24720, Note_on_c, 0, 68, 66
2, 24766, Note_off_c, 0, 68, 0
2, 24768, Note_on_c, 0, 80, 66
2, 24768, Note_on_c, 0, 77, 66
2, 24768, Note_on_c, 0, 70, 66
2, 24958, Note_off_c, 0, 80, 0
2, 24958, Note_off_c, 0, 77, 0
2, 24960, Note_on_c, 0, 79, 66
2, 24960, Note_on_c, 0, 75, 66
2, 25150, Note_off_c, 0, 70, 0
2, 25150, Note_off_c, 0, 79, 0
2, 25150, Note_off_c, 0, 75, 0
2, 25152, Note_on_c, 0, 77, 66
2, 25152, Note_on_c, 0, 72, 66
2, 25152, Note_on_c, 0, 68, 66
2, 25342, Note_off_c, 0, 77, 0
2, 25342, Note_off_c, 0, 72, 0
2, 25342, Note_off_c, 0, 68, 0
2, 25344, Note_on_c, 0, 75, 66
2, 25344, Note_on_c, 0, 70, 66
2, 25344, Note_on_c, 0, 67, 66
2, 25486, Note_off_c, 0, 75, 0
2, 25488, Note_on_c, 0, 77, 66
2, 25508, Note_off_c, 0, 77, 0
2, 25512, Note_on_c, 0, 75, 66
2, 25532, Note_off_c, 0, 75, 0
2, 25534, Note_off_c, 0, 70, 0
2, 25534, Note_off_c, 0, 67, 0
2, 25536, Note_on_c, 0, 65, 66
2, 25536, Note_on_c, 0, 74, 66
2, 25726, Note_off_c, 0, 65, 0
2, 25726, Note_off_c, 0, 74, 0
2, 25728, Note_on_c, 0, 58, 66
2, 25774, Note_off_c, 0, 58, 0
2, 25776, Note_on_c, 0, 62, 66
2, 25822, Note_off_c, 0, 62, 0
2, 25824, Note_on_c, 0, 65, 66
2, 25870, Note_off_c, 0, 65, 0
2, 25872, Note_on_c, 0, 70, 66
2, 25918, Note_off_c, 0, 70, 0
2, 25920, Note_on_c, 0, 72, 66
2, 25966, Note_off_c, 0, 72, 0
2, 25968, Note_on_c, 0, 63, 66
2, 26014, Note_off_c, 0, 63, 0
2, 26016, Note_on_c, 0, 70, 66
2, 26062, Note_off_c, 0, 70, 0
2, 26064, Note_on_c, 0, 67, 66
2, 26110, Note_off_c, 0, 67, 0
2, 26112, Note_on_c, 0, 63, 66
2, 26112, Note_on_c, 0, 70, 66
2, 26112, Note_on_c, 0, 72, 66
2, 26158, Note_off_c, 0, 63, 0
2, 26158, Note_off_c, 0, 70, 0
2, 26158, Note_off_c, 0, 72, 0
2, 26304, Note_on_c, 0, 70, 66
2, 26304, Note_on_c, 0, 67, 66
2, 26304, Note_on_c, 0, 72, 66
2, 26350, Note_off_c, 0, 70, 0
2, 26350, Note_off_c, 0, 67, 0
2, 26350, Note_off_c, 0, 72, 0
2, 26496, Note_on_c, 0, 84, 66
2, 26496, Note_on_c, 0, 81, 66
2, 26496, Note_on_c, 0, 75, 66
2, 26496, Note_on_c, 0, 72, 66
2, 26686, Note_off_c, 0, 84, 0
2, 26686, Note_off_c, 0, 81, 0
2, 26686, Note_off_c, 0, 75, 0
2, 26686, Note_off_c, 0, 72, 0
2, 26688, Note_on_c, 0, 75, 66
2, 26688, Note_on_c, 0, 72, 66
2, 26688, Note_on_c, 0, 81, 66
2, 26876, Note_off_c, 0, 72, 0
2, 26876, Note_off_c, 0, 81, 0
2, 26878, Note_off_c, 0, 75, 0
2, 26976, Note_on_c, 0, 82, 66
2, 27070, Note_off_c, 0, 82, 0
2, 27072, Note_on_c, 0, 74, 66
2, 27072, Note_on_c, 0, 70, 66
2, 27166, Note_off_c, 0, 74, 0
2, 27166, Note_off_c, 0, 70, 0
2, 27168, Note_on_c, 0, 77, 66
2, 27168, Note_on_c, 0, 74, 66
2, 27262, Note_off_c, 0, 77, 0
2, 27262, Note_off_c, 0, 74, 0
2, 27264, Note_on_c, 0, 75, 66
2, 27264, Note_on_c, 0, 72, 66
2, 27550, Note_off_c, 0, 75, 0
2, 27550, Note_off_c, 0, 72, 0
2, 27552, Note_on_c, 0, 72, 66
2, 27552, Note_on_c, 0, 69, 66
2, 27646, Note_off_c, 0, 72, 0
2, 27646, Note_off_c, 0, 69, 0
2, 27648, Note_on_c, 0, 72, 66
2, 27648, Note_on_c, 0, 69, 66
2, 27742, Note_off_c, 0, 72, 0
2, 27742, Note_off_c, 0, 69, 0
2, 27744, Note_on_c, 0, 70, 66
2, 27838, Note_off_c, 0, 70, 0
2, 27840, Note_on_c, 0, 70, 66
2, 28030, Note_off_c, 0, 70, 0
2, 28272, Note_on_c, 0, 73, 66
2, 28318, Note_off_c, 0, 73, 0
2, 28320, Note_on_c, 0, 79, 66
2, 28366, Note_off_c, 0, 79, 0
2, 28368, Note_on_c, 0, 82, 66
2, 28414, Note_off_c, 0, 82, 0
2, 28416, Note_on_c, 0, 80, 66
2, 28462, Note_off_c, 0, 80, 0
2, 28464, Note_on_c, 0, 72, 66
2, 28510, Note_off_c, 0, 72, 0
2, 28512, Note_on_c, 0, 77, 66
2, 28558, Note_off_c, 0, 77, 0
2, 28560, Note_on_c, 0, 80, 66
2, 28606, Note_off_c, 0, 80, 0
2, 28608, Note_on_c, 0, 79, 66
2, 28654, Note_off_c, 0, 79, 0
2, 28656, Note_on_c, 0, 73, 66
2, 28702, Note_off_c, 0, 73, 0
2, 28704, Note_on_c, 0, 76, 66
2, 28750, Note_off_c, 0, 76, 0
2, 28752, Note_on_c, 0, 79, 66
2, 28798, Note_off_c, 0, 79, 0
2, 28800, Note_on_c, 0, 78, 66
2, 28846, Note_off_c, 0, 78, 0
2, 28848, Note_on_c, 0, 84, 66
2, 28894, Note_off_c, 0, 84, 0
2, 28896, Note_on_c, 0, 75, 66
2, 28942, Note_off_c, 0, 75, 0
2, 28944, Note_on_c, 0, 78, 66
2, 28990, Note_off_c, 0, 78, 0
2, 28992, Note_on_c, 0, 77, 66
2, 29038, Note_off_c, 0, 77, 0
2, 29040, Note_on_c, 0, 89, 66
2, 29086, Note_off_c, 0, 89, 0
2, 29088, Note_on_c, 0, 86, 66
2, 29134, Note_off_c, 0, 86, 0
2, 29136, Note_on_c, 0, 81, 66
2, 29182, Note_off_c, 0, 81, 0
2, 29184, Note_on_c, 0, 82, 66
2, 29230, Note_off_c, 0, 82, 0
2, 29232, Note_on_c, 0, 77, 66
2, 29278, Note_off_c, 0, 77, 0
2, 29280, Note_on_c, 0, 74, 66
2, 29326, Note_off_c, 0, 74, 0
2, 29328, Note_on_c, 0, 70, 66
2, 29374, Note_off_c, 0, 70, 0
2, 29376, Note_on_c, 0, 75, 66
2, 29422, Note_off_c, 0, 75, 0
2, 29424, Note_on_c, 0, 87, 66
2, 29470, Note_off_c, 0, 87, 0
2, 29472, Note_on_c, 0, 82, 66
2, 29518, Note_off_c, 0, 82, 0
2, 29520, Note_on_c, 0, 79, 66
2, 29566, Note_off_c, 0, 79, 0
2, 29568, Note_on_c, 0, 80, 66
2, 29614, Note_off_c, 0, 80, 0
2, 29616, Note_on_c, 0, 77, 66
2, 29662, Note_off_c, 0, 77, 0
2, 29664, Note_on_c, 0, 74, 66
2, 29710, Note_off_c, 0, 74, 0
2, 29712, Note_on_c, 0, 68, 66
2, 29758, Note_off_c, 0, 68, 0
2, 29760, Note_on_c, 0, 67, 66
2, 29806, Note_off_c, 0, 67, 0
2, 29808, Note_on_c, 0, 70, 66
2, 29854, Note_off_c, 0, 70, 0
2, 29856, Note_on_c, 0, 75, 66
2, 29902, Note_off_c, 0, 75, 0
2, 29904, Note_on_c, 0, 79, 66
2, 29950, Note_off_c, 0, 79, 0
2, 29952, Note_on_c, 0, 70, 66
2, 29998, Note_off_c, 0, 70, 0
2, 30000, Note_on_c, 0, 82, 66
2, 30046, Note_off_c, 0, 82, 0
2, 30048, Note_on_c, 0, 79, 66
2, 30094, Note_off_c, 0, 79, 0
2, 30096, Note_on_c, 0, 75, 66
2, 30142, Note_off_c, 0, 75, 0
2, 30144, Note_on_c, 0, 74, 66
2, 30190, Note_off_c, 0, 74, 0
2, 30192, Note_on_c, 0, 77, 66
2, 30238, Note_off_c, 0, 77, 0
2, 30240, Note_on_c, 0, 81, 66
2, 30286, Note_off_c, 0, 81, 0
2, 30288, Note_on_c, 0, 82, 66
2, 30334, Note_off_c, 0, 82, 0
2, 30336, Note_on_c, 0, 75, 66
2, 30382, Note_off_c, 0, 75, 0
2, 30384, Note_on_c, 0, 78, 66
2, 30430, Note_off_c, 0, 78, 0
2, 30432, Note_on_c, 0, 81, 66
2, 30478, Note_off_c, 0, 81, 0
2, 30480, Note_on_c, 0, 87, 66
2, 30526, Note_off_c, 0, 87, 0
2, 30528, Note_on_c, 0, 86, 66
2, 30574, Note_off_c, 0, 86, 0
2, 30576, Note_on_c, 0, 82, 66
2, 30622, Note_off_c, 0, 82, 0
2, 30624, Note_on_c, 0, 78, 66
2, 30670, Note_off_c, 0, 78, 0
2, 30672, Note_on_c, 0, 79, 66
2, 30718, Note_off_c, 0, 79, 0
2, 30720, Note_on_c, 0, 73, 66
2, 30766, Note_off_c, 0, 73, 0
2, 30768, Note_on_c, 0, 74, 66
2, 30814, Note_off_c, 0, 74, 0
2, 30816, Note_on_c, 0, 70, 66
2, 30862, Note_off_c, 0, 70, 0
2, 30864, Note_on_c, 0, 67, 66
2, 30910, Note_off_c, 0, 67, 0
2, 30912, Note_on_c, 0, 74, 66
2, 30958, Note_off_c, 0, 74, 0
2, 30960, Note_on_c, 0, 77, 66
2, 31006, Note_off_c, 0, 77, 0
2, 31008, Note_on_c, 0, 80, 66
2, 31054, Note_off_c, 0, 80, 0
2, 31056, Note_on_c, 0, 84, 66
2, 31102, Note_off_c, 0, 84, 0
2, 31104, Note_on_c, 0, 82, 66
2, 31150, Note_off_c, 0, 82, 0
2, 31152, Note_on_c, 0, 79, 66
2, 31198, Note_off_c, 0, 79, 0
2, 31200, Note_on_c, 0, 74, 66
2, 31246, Note_off_c, 0, 74, 0
2, 31248, Note_on_c, 0, 75, 66
2, 31294, Note_off_c, 0, 75, 0
2, 31296, Note_on_c, 0, 80, 66
2, 31342, Note_off_c, 0, 80, 0
2, 31344, Note_on_c, 0, 77, 66
2, 31390, Note_off_c, 0, 77, 0
2, 31392, Note_on_c, 0, 74, 66
2, 31438, Note_off_c, 0, 74, 0
2, 31440, Note_on_c, 0, 70, 66
2, 31486, Note_off_c, 0, 70, 0
2, 31488, Note_on_c, 0, 68, 66
2, 31534, Note_off_c, 0, 68, 0
2, 31536, Note_on_c, 0, 77, 66
2, 31582, Note_off_c, 0, 77, 0
2, 31584, Note_on_c, 0, 67, 66
2, 31630, Note_off_c, 0, 67, 0
2, 31632, Note_on_c, 0, 75, 66
2, 31678, Note_off_c, 0, 75, 0
2, 31680, Note_on_c, 0, 65, 66
2, 31726, Note_off_c, 0, 65, 0
2, 31728, Note_on_c, 0, 84, 66
2, 31774, Note_off_c, 0, 84, 0
2, 31776, Note_on_c, 0, 80, 66
2, 31822, Note_off_c, 0, 80, 0
2, 31824, Note_on_c, 0, 77, 66
2, 31870, Note_off_c, 0, 77, 0
2, 31872, Note_on_c, 0, 75, 66
2, 31918, Note_off_c, 0, 75, 0
2, 31920, Note_on_c, 0, 82, 66
2, 31966, Note_off_c, 0, 82, 0
2, 31968, Note_on_c, 0, 79, 66
2, 32014, Note_off_c, 0, 79, 0
2, 32016, Note_on_c, 0, 75, 66
2, 32062, Note_off_c, 0, 75, 0
2, 32064, Note_on_c, 0, 70, 66
2, 32110, Note_off_c, 0, 70, 0
2, 32112, Note_on_c, 0, 79, 66
2, 32158, Note_off_c, 0, 79, 0
2, 32160, Note_on_c, 0, 80, 66
2, 32206, Note_off_c, 0, 80, 0
2, 32208, Note_on_c, 0, 74, 66
2, 32254, Note_off_c, 0, 74, 0
2, 32256, Note_on_c, 0, 75, 66
2, 32302, Note_off_c, 0, 75, 0
2, 32304, Note_on_c, 0, 82, 66
2, 32350, Note_off_c, 0, 82, 0
2, 32352, Note_on_c, 0, 79, 66
2, 32398, Note_off_c, 0, 79, 0
2, 32400, Note_on_c, 0, 75, 66
2, 32446, Note_off_c, 0, 75, 0
2, 32448, Note_on_c, 0, 70, 66
2, 32494, Note_off_c, 0, 70, 0
2, 32496, Note_on_c, 0, 67, 66
2, 32542, Note_off_c, 0, 67, 0
2, 32544, Note_on_c, 0, 63, 66
2, 32590, Note_off_c, 0, 63, 0
2, 32592, Note_on_c, 0, 58, 66
2, 32638, Note_off_c, 0, 58, 0
2, 32640, Note_on_c, 0, 55, 66
2, 32686, Note_off_c, 0, 55, 0
2, 32832, Note_on_c, 0, 82, 66
2, 32832, Note_on_c, 0, 78, 66
2, 32832, Note_on_c, 0, 73, 66
2, 32832, Note_on_c, 0, 70, 66
2, 33022, Note_off_c, 0, 82, 0
2, 33022, Note_off_c, 0, 78, 0
2, 33022, Note_off_c, 0, 73, 0
2, 33022, Note_off_c, 0, 70, 0
2, 33024, Note_on_c, 0, 80, 66
2, 33024, Note_on_c, 0, 77, 66
2, 33024, Note_on_c, 0, 72, 66
2, 33024, Note_on_c, 0, 68, 66
2, 33214, Note_off_c, 0, 80, 0
2, 33214, Note_off_c, 0, 77, 0
2, 33214, Note_off_c, 0, 72, 0
2, 33214, Note_off_c, 0, 68, 0
2, 33216, Note_on_c, 0, 79, 66
2, 33216, Note_on_c, 0, 76, 66
2, 33216, Note_on_c, 0, 74, 66
2, 33216, Note_on_c, 0, 67, 66
2, 33406, Note_off_c, 0, 79, 0
2, 33406, Note_off_c, 0, 76, 0
2, 33406, Note_off_c, 0, 74, 0
2, 33406, Note_off_c, 0, 67, 0
2, 33408, Note_on_c, 0, 84, 66
2, 33408, Note_on_c, 0, 77, 66
2, 33408, Note_on_c, 0, 75, 66
2, 33408, Note_on_c, 0, 72, 66
2, 33598, Note_off_c, 0, 84, 0
2, 33598, Note_off_c, 0, 77, 0
2, 33598, Note_off_c, 0, 75, 0
2, 33598, Note_off_c, 0, 72, 0
2, 33600, Note_on_c, 0, 77, 66
2, 33600, Note_on_c, 0, 74, 66
2, 33600, Note_on_c, 0, 70, 66
2, 33600, Note_on_c, 0, 65, 66
2, 33790, Note_off_c, 0, 77, 0
2, 33790, Note_off_c, 0, 74, 0
2, 33790, Note_off_c, 0, 70, 0
2, 33790, Note_off_c, 0, 65, 0
2, 33984, Note_on_c, 0, 82, 66
2, 33984, Note_on_c, 0, 75, 66
2, 33984, Note_on_c, 0, 70, 66
2, 34174, Note_off_c, 0, 82, 0
2, 34174, Note_off_c, 0, 75, 0
2, 34174, Note_off_c, 0, 70, 0
2, 34176, Note_on_c, 0, 70, 66
2, 34176, Note_on_c, 0, 74, 66
2, 34176, Note_on_c, 0, 68, 66
2, 34366, Note_off_c, 0, 70, 0
2, 34366, Note_off_c, 0, 74, 0
2, 34366, Note_off_c, 0, 68, 0
2, 34368, Note_on_c, 0, 75, 66
2, 34368, Note_on_c, 0, 70, 66
2, 34368, Note_on_c, 0, 67, 66
2, 34558, Note_off_c, 0, 75, 0
2, 34558, Note_off_c, 0, 70, 0
2, 34558, Note_off_c, 0, 67, 0
2, 34560, Note_on_c, 0, 79, 66
2, 34560, Note_on_c, 0, 75, 66
2, 34750, Note_off_c, 0, 79, 0
2, 34750, Note_off_c, 0, 75, 0
2, 34752, Note_on_c, 0, 77, 66
2, 34752, Note_on_c, 0, 74, 66
2, 34942, Note_off_c, 0, 77, 0
2, 34942, Note_off_c, 0, 74, 0
2, 34944, Note_on_c, 0, 87, 66
2, 34944, Note_on_c, 0, 75, 66
2, 34944, Note_on_c, 0, 81, 66
2, 35134, Note_off_c, 0, 87, 0
2, 35134, Note_off_c, 0, 75, 0
2, 35134, Note_off_c, 0, 81, 0
2, 35136, Note_on_c, 0, 86, 66
2, 35136, Note_on_c, 0, 82, 66
2, 35136, Note_on_c, 0, 77, 66
2, 35326, Note_off_c, 0, 86, 0
2, 35326, Note_off_c, 0, 82, 0
2, 35326, Note_off_c, 0, 77, 0
2, 35520, Note_on_c, 0, 84, 66
2, 35520, Note_on_c, 0, 77, 66
2, 35520, Note_on_c, 0, 74, 66
2, 35710, Note_off_c, 0, 84, 0
2, 35710, Note_off_c, 0, 77, 0
2, 35710, Note_off_c, 0, 74, 0
2, 35712, Note_on_c, 0, 75, 66
2, 35712, Note_on_c, 0, 82, 66
2, 35806, Note_off_c, 0, 82, 64
2, 35808, Note_on_c, 0, 84, 66
2, 35828, Note_off_c, 0, 84, 64
2, 35832, Note_on_c, 0, 82, 66
2, 35852, Note_off_c, 0, 82, 64
2, 35856, Note_on_c, 0, 81, 66
2, 35876, Note_off_c, 0, 81, 64
2, 35880, Note_on_c, 0, 82, 66
2, 35900, Note_off_c, 0, 82, 64
2, 35902, Note_off_c, 0, 75, 0
2, 35904, Note_on_c, 0, 77, 66
2, 35904, Note_on_c, 0, 82, 66
2, 35998, Note_off_c, 0, 82, 64
2, 36000, Note_on_c, 0, 80, 66
2, 36094, Note_off_c, 0, 77, 64
2, 36096, Note_on_c, 0, 70, 66
2, 36190, Note_off_c, 0, 80, 64
2, 36192, Note_on_c, 0, 79, 66
2, 36286, Note_off_c, 0, 70, 0
2, 36288, Note_on_c, 0, 72, 66
2, 36334, Note_off_c, 0, 79, 0
2, 36336, Note_on_c, 0, 77, 66
2, 36382, Note_off_c, 0, 77, 0
2, 36384, Note_on_c, 0, 80, 66
2, 36430, Note_off_c, 0, 80, 0
2, 36432, Note_on_c, 0, 77, 66
2, 36478, Note_off_c, 0, 72, 0
2, 36478, Note_off_c, 0, 77, 0
2, 36480, Note_on_c, 0, 70, 66
2, 36480, Note_on_c, 0, 75, 66
2, 36670, Note_off_c, 0, 75, 64
2, 36672, Note_on_c, 0, 77, 66
2, 36692, Note_off_c, 0, 77, 64
2, 36696, Note_on_c, 0, 75, 66
2, 36716, Note_off_c, 0, 75, 64
2, 36720, Note_on_c, 0, 72, 66
2, 36740, Note_off_c, 0, 72, 64
2, 36744, Note_on_c, 0, 75, 66
2, 36764, Note_off_c, 0, 75, 64
2, 36766, Note_off_c, 0, 70, 64
2, 36768, Note_on_c, 0, 74, 66
2, 36768, Note_on_c, 0, 79, 66
2, 36814, Note_off_c, 0, 79, 0
2, 36816, Note_on_c, 0, 77, 66
2, 36862, Note_off_c, 0, 74, 0
2, 36862, Note_off_c, 0, 77, 0
2, 36864, Note_on_c, 0, 75, 66
2, 36958, Note_off_c, 0, 75, 0
2, 37056, Note_on_c, 0, 75, 66
2, 37150, Note_off_c, 0, 75, 0
2, 37536, Note_on_c, 0, 70, 66
2, 37726, Note_off_c, 0, 70, 0
2, 37728, Note_on_c, 0, 67, 66
2, 37918, Note_off_c, 0, 67, 0
2, 37920, Note_on_c, 0, 65, 66
2, 38110, Note_off_c, 0, 65, 64
2, 38112, Note_on_c, 0, 63, 66
2, 38302, Note_off_c, 0, 63, 0
2, 38304, Note_on_c, 0, 71, 66
2, 38398, Note_off_c, 0, 71, 0
2, 38400, Note_on_c, 0, 72, 66
2, 38420, Note_off_c, 0, 72, 64
2, 38424, Note_on_c, 0, 71, 66
2, 38444, Note_off_c, 0, 71, 64
2, 38448, Note_on_c, 0, 68, 66
2, 38468, Note_off_c, 0, 68, 64
2, 38472, Note_on_c, 0, 71, 66
2, 38492, Note_off_c, 0, 71, 64
2, 38496, Note_on_c, 0, 72, 66
2, 38590, Note_off_c, 0, 72, 0
2, 38688, Note_on_c, 0, 68, 66
2, 38876, Note_off_c, 0, 68, 0
2, 38880, Note_on_c, 0, 67, 66
2, 39068, Note_off_c, 0, 67, 0
2, 39072, Note_on_c, 0, 72, 66
2, 39166, Note_off_c, 0, 72, 0
2, 39168, Note_on_c, 0, 63, 66
2, 39360, Note_on_c, 0, 62, 66
2, 39406, Note_off_c, 0, 62, 0
2, 39408, Note_on_c, 0, 63, 66
2, 39454, Note_off_c, 0, 63, 0
2, 39454, Note_off_c, 0, 63, 0
2, 39456, Note_on_c, 0, 65, 66
2, 39502, Note_off_c, 0, 65, 0
2, 39504, Note_on_c, 0, 63, 66
2, 39550, Note_off_c, 0, 63, 0
2, 39552, Note_on_c, 0, 62, 66
2, 39646, Note_off_c, 0, 62, 0
2, 39744, Note_on_c, 0, 72, 66
2, 39760, Note_off_c, 0, 72, 0
2, 39760, Note_on_c, 0, 74, 66
2, 39776, Note_off_c, 0, 74, 0
2, 39776, Note_on_c, 0, 72, 66
2, 39792, Note_off_c, 0, 72, 0
2, 39792, Note_on_c, 0, 74, 66
2, 39808, Note_off_c, 0, 74, 0
2, 39808, Note_on_c, 0, 72, 66
2, 39824, Note_off_c, 0, 72, 0
2, 39824, Note_on_c, 0, 74, 66
2, 39840, Note_off_c, 0, 74, 0
2, 39840, Note_on_c, 0, 72, 66
2, 39856, Note_off_c, 0, 72, 0
2, 39856, Note_on_c, 0, 74, 66
2, 39872, Note_off_c, 0, 74, 0
2, 39872, Note_on_c, 0, 72, 66
2, 39888, Note_off_c, 0, 72, 0
2, 39888, Note_on_c, 0, 74, 66
2, 39904, Note_off_c, 0, 74, 0
2, 39904, Note_on_c, 0, 72, 66
2, 39920, Note_off_c, 0, 72, 0
2, 39920, Note_on_c, 0, 74, 66
2, 39936, Note_off_c, 0, 74, 0
2, 39936, Note_on_c, 0, 72, 66
2, 39952, Note_off_c, 0, 72, 0
2, 39952, Note_on_c, 0, 74, 66
2, 39968, Note_off_c, 0, 74, 0
2, 39968, Note_on_c, 0, 72, 66
2, 39984, Note_off_c, 0, 72, 0
2, 39984, Note_on_c, 0, 74, 66
2, 40000, Note_off_c, 0, 74, 0
2, 40000, Note_on_c, 0, 72, 66
2, 40016, Note_off_c, 0, 72, 0
2, 40016, Note_on_c, 0, 74, 66
2, 40032, Note_off_c, 0, 74, 0
2, 40032, Note_on_c, 0, 72, 66
2, 40048, Note_off_c, 0, 72, 0
2, 40048, Note_on_c, 0, 74, 66
2, 40064, Note_off_c, 0, 74, 0
2, 40064, Note_on_c, 0, 72, 66
2, 40080, Note_off_c, 0, 72, 0
2, 40080, Note_on_c, 0, 74, 66
2, 40096, Note_off_c, 0, 74, 0
2, 40096, Note_on_c, 0, 72, 66
2, 40112, Note_off_c, 0, 72, 0
2, 40112, Note_on_c, 0, 74, 66
2, 40128, Note_off_c, 0, 74, 0
2, 40128, Note_on_c, 0, 72, 66
2, 40144, Note_off_c, 0, 72, 0
2, 40144, Note_on_c, 0, 74, 66
2, 40160, Note_off_c, 0, 74, 0
2, 40160, Note_on_c, 0, 72, 66
2, 40176, Note_off_c, 0, 72, 0
2, 40176, Note_on_c, 0, 74, 66
2, 40192, Note_off_c, 0, 74, 0
2, 40192, Note_on_c, 0, 72, 66
2, 40208, Note_off_c, 0, 72, 0
2, 40208, Note_on_c, 0, 74, 66
2, 40224, Note_off_c, 0, 74, 0
2, 40224, Note_on_c, 0, 72, 66
2, 40240, Note_off_c, 0, 72, 0
2, 40240, Note_on_c, 0, 74, 66
2, 40256, Note_off_c, 0, 74, 0
2, 40256, Note_on_c, 0, 72, 66
2, 40272, Note_off_c, 0, 72, 0
2, 40272, Note_on_c, 0, 74, 66
2, 40288, Note_off_c, 0, 74, 0
2, 40288, Note_on_c, 0, 72, 66
2, 40304, Note_off_c, 0, 72, 0
2, 40304, Note_on_c, 0, 74, 66
2, 40320, Note_off_c, 0, 74, 64
2, 40320, Note_on_c, 0, 72, 66
2, 40336, Note_off_c, 0, 72, 0
2, 40336, Note_on_c, 0, 74, 66
2, 40352, Note_off_c, 0, 74, 0
2, 40352, Note_on_c, 0, 72, 66
2, 40368, Note_off_c, 0, 72, 0
2, 40368, Note_on_c, 0, 74, 66
2, 40384, Note_off_c, 0, 74, 0
2, 40384, Note_on_c, 0, 72, 66
2, 40400, Note_off_c, 0, 72, 0
2, 40400, Note_on_c, 0, 74, 66
2, 40416, Note_off_c, 0, 74, 0
2, 40416, Note_on_c, 0, 72, 66
2, 40432, Note_off_c, 0, 72, 0
2, 40432, Note_on_c, 0, 74, 66
2, 40448, Note_off_c, 0, 74, 0
2, 40448, Note_on_c, 0, 72, 66
2, 40464, Note_off_c, 0, 72, 0
2, 40464, Note_on_c, 0, 74, 66
2, 40480, Note_off_c, 0, 74, 0
2, 40480, Note_on_c, 0, 72, 66
2, 40496, Note_off_c, 0, 72, 0
2, 40496, Note_on_c, 0, 74, 66
2, 40512, Note_off_c, 0, 74, 0
2, 40512, Note_on_c, 0, 72, 66
2, 40528, Note_off_c, 0, 72, 0
2, 40528, Note_on_c, 0, 74, 66
2, 40544, Note_off_c, 0, 74, 0
2, 40544, Note_on_c, 0, 72, 66
2, 40560, Note_off_c, 0, 72, 0
2, 40560, Note_on_c, 0, 74, 66
2, 40576, Note_off_c, 0, 74, 0
2, 40576, Note_on_c, 0, 72, 66
2, 40592, Note_off_c, 0, 72, 0
2, 40592, Note_on_c, 0, 74, 66
2, 40608, Note_off_c, 0, 74, 0
2, 40608, Note_on_c, 0, 87, 66
2, 40724, Note_off_c, 0, 87, 0
2, 40728, Note_on_c, 0, 86, 66
2, 40750, Note_off_c, 0, 86, 0
2, 40752, Note_on_c, 0, 85, 66
2, 40774, Note_off_c, 0, 85, 0
2, 40776, Note_on_c, 0, 86, 66
2, 40798, Note_off_c, 0, 86, 0
2, 40800, Note_on_c, 0, 84, 66
2, 40822, Note_off_c, 0, 84, 0
2, 40824, Note_on_c, 0, 82, 66
2, 40846, Note_off_c, 0, 82, 0
2, 40848, Note_on_c, 0, 81, 66
2, 40870, Note_off_c, 0, 81, 0
2, 40872, Note_on_c, 0, 82, 66
2, 40894, Note_off_c, 0, 82, 0
2, 40896, Note_on_c, 0, 81, 66
2, 40918, Note_off_c, 0, 81, 0
2, 40920, Note_on_c, 0, 79, 66
2, 40942, Note_off_c, 0, 79, 0
2, 40944, Note_on_c, 0, 78, 66
2, 40966, Note_off_c, 0, 78, 0
2, 40968, Note_on_c, 0, 79, 66
2, 40990, Note_off_c, 0, 79, 0
2, 40992, Note_on_c, 0, 77, 66
2, 41014, Note_off_c, 0, 77, 0
2, 41016, Note_on_c, 0, 75, 66
2, 41038, Note_off_c, 0, 75, 0
2, 41040, Note_on_c, 0, 74, 66
2, 41062, Note_off_c, 0, 74, 0
2, 41064, Note_on_c, 0, 75, 66
2, 41086, Note_off_c, 0, 75, 0
2, 41088, Note_on_c, 0, 74, 66
2, 41134, Note_off_c, 0, 74, 0
2, 41136, Note_on_c, 0, 77, 66
2, 41182, Note_off_c, 0, 77, 0
2, 41184, Note_on_c, 0, 82, 66
2, 41230, Note_off_c, 0, 82, 0
2, 41232, Note_on_c, 0, 77, 66
2, 41278, Note_off_c, 0, 77, 0
2, 41280, Note_on_c, 0, 77, 66
2, 41326, Note_off_c, 0, 77, 0
2, 41328, Note_on_c, 0, 75, 66
2, 41374, Note_off_c, 0, 75, 0
2, 41376, Note_on_c, 0, 74, 66
2, 41422, Note_off_c, 0, 74, 0
2, 41424, Note_on_c, 0, 72, 66
2, 41470, Note_off_c, 0, 72, 0
2, 41472, Note_on_c, 0, 72, 66
2, 41566, Note_off_c, 0, 72, 0
2, 41568, Note_on_c, 0, 70, 66
2, 41662, Note_off_c, 0, 70, 0
2, 41664, Note_on_c, 0, 70, 66
2, 41710, Note_off_c, 0, 70, 0
2, 41712, Note_on_c, 0, 69, 66
2, 41758, Note_off_c, 0, 69, 0
2, 41760, Note_on_c, 0, 70, 66
2, 41806, Note_off_c, 0, 70, 0
2, 41808, Note_on_c, 0, 68, 66
2, 41854, Note_off_c, 0, 68, 0
2, 41856, Note_on_c, 0, 70, 66
2, 41902, Note_off_c, 0, 70, 0
2, 41904, Note_on_c, 0, 67, 66
2, 41950, Note_off_c, 0, 67, 0
2, 41952, Note_on_c, 0, 70, 66
2, 41998, Note_off_c, 0, 70, 0
2, 42000, Note_on_c, 0, 65, 66
2, 42046, Note_off_c, 0, 65, 0
2, 42080, Note_on_c, 0, 70, 66
2, 42102, Note_off_c, 0, 70, 0
2, 42112, Note_on_c, 0, 75, 66
2, 42134, Note_off_c, 0, 75, 0
2, 42144, Note_on_c, 0, 79, 66
2, 42166, Note_off_c, 0, 79, 0
2, 42176, Note_on_c, 0, 82, 66
2, 42198, Note_off_c, 0, 82, 0
2, 42208, Note_on_c, 0, 79, 66
2, 42230, Note_off_c, 0, 79, 0
2, 42272, Note_on_c, 0, 67, 66
2, 42294, Note_off_c, 0, 67, 0
2, 42304, Note_on_c, 0, 70, 66
2, 42326, Note_off_c, 0, 70, 0
2, 42336, Note_on_c, 0, 75, 66
2, 42358, Note_off_c, 0, 75, 0
2, 42368, Note_on_c, 0, 79, 66
2, 42390, Note_off_c, 0, 79, 0
2, 42400, Note_on_c, 0, 75, 66
2, 42422, Note_off_c, 0, 75, 0
2, 42464, Note_on_c, 0, 65, 66
2, 42486, Note_off_c, 0, 65, 0
2, 42496, Note_on_c, 0, 68, 66
2, 42518, Note_off_c, 0, 68, 0
2, 42528, Note_on_c, 0, 74, 66
2, 42550, Note_off_c, 0, 74, 0
2, 42560, Note_on_c, 0, 77, 66
2, 42582, Note_off_c, 0, 77, 0
2, 42592, Note_on_c, 0, 74, 66
2, 42614, Note_off_c, 0, 74, 0
2, 42656, Note_on_c, 0, 63, 66
2, 42678, Note_off_c, 0, 63, 0
2, 42688, Note_on_c, 0, 67, 66
2, 42710, Note_off_c, 0, 67, 0
2, 42720, Note_on_c, 0, 72, 66
2, 42742, Note_off_c, 0, 72, 0
2, 42752, Note_on_c, 0, 67, 66
2, 42774, Note_off_c, 0, 67, 0
2, 42784, Note_on_c, 0, 72, 66
2, 42806, Note_off_c, 0, 72, 0
2, 42816, Note_on_c, 0, 75, 66
2, 42838, Note_off_c, 0, 75, 0
2, 42848, Note_on_c, 0, 72, 66
2, 42870, Note_off_c, 0, 72, 0
2, 42880, Note_on_c, 0, 75, 66
2, 42902, Note_off_c, 0, 75, 0
2, 42912, Note_on_c, 0, 80, 66
2, 42934, Note_off_c, 0, 80, 0
2, 42944, Note_on_c, 0, 75, 66
2, 42966, Note_off_c, 0, 75, 0
2, 42976, Note_on_c, 0, 80, 66
2, 42998, Note_off_c, 0, 80, 0
2, 43008, Note_on_c, 0, 84, 66
2, 43030, Note_off_c, 0, 84, 0
2, 43040, Note_on_c, 0, 80, 66
2, 43062, Note_off_c, 0, 80, 0
2, 43072, Note_on_c, 0, 84, 66
2, 43094, Note_off_c, 0, 84, 0
2, 43104, Note_on_c, 0, 87, 66
2, 43126, Note_off_c, 0, 87, 0
2, 43136, Note_on_c, 0, 84, 66
2, 43158, Note_off_c, 0, 84, 0
2, 43168, Note_on_c, 0, 87, 66
2, 43190, Note_off_c, 0, 87, 0
2, 43232, Note_on_c, 0, 80, 66
2, 43254, Note_off_c, 0, 80, 0
2, 43264, Note_on_c, 0, 77, 66
2, 43286, Note_off_c, 0, 77, 0
2, 43296, Note_on_c, 0, 74, 66
2, 43318, Note_off_c, 0, 74, 0
2, 43328, Note_on_c, 0, 70, 66
2, 43350, Note_off_c, 0, 70, 0
2, 43360, Note_on_c, 0, 68, 66
2, 43382, Note_off_c, 0, 68, 0
2, 43392, Note_on_c, 0, 65, 66
2, 43414, Note_off_c, 0, 65, 0
2, 43424, Note_on_c, 0, 82, 66
2, 43446, Note_off_c, 0, 82, 0
2, 43456, Note_on_c, 0, 79, 66
2, 43478, Note_off_c, 0, 79, 0
2, 43488, Note_on_c, 0, 75, 66
2, 43510, Note_off_c, 0, 75, 0
2, 43520, Note_on_c, 0, 70, 66
2, 43542, Note_off_c, 0, 70, 0
2, 43552, Note_on_c, 0, 67, 66
2, 43574, Note_off_c, 0, 67, 0
2, 43584, Note_on_c, 0, 65, 66
2, 43606, Note_off_c, 0, 65, 0
2, 43616, Note_on_c, 0, 68, 66
2, 43638, Note_off_c, 0, 68, 0
2, 43648, Note_on_c, 0, 72, 66
2, 43670, Note_off_c, 0, 72, 0
2, 43680, Note_on_c, 0, 77, 66
2, 43702, Note_off_c, 0, 77, 0
2, 43712, Note_on_c, 0, 80, 66
2, 43734, Note_off_c, 0, 80, 0
2, 43744, Note_on_c, 0, 84, 66
2, 43766, Note_off_c, 0, 84, 0
2, 43808, Note_on_c, 0, 70, 66
2, 43830, Note_off_c, 0, 70, 0
2, 43840, Note_on_c, 0, 75, 66
2, 43862, Note_off_c, 0, 75, 0
2, 43872, Note_on_c, 0, 79, 66
2, 43894, Note_off_c, 0, 79, 0
2, 43904, Note_on_c, 0, 82, 66
2, 43926, Note_off_c, 0, 82, 0
2, 43936, Note_on_c, 0, 79, 66
2, 43958, Note_off_c, 0, 79, 0
2, 43968, Note_on_c, 0, 77, 66
2, 43990, Note_off_c, 0, 77, 0
2, 44000, Note_on_c, 0, 82, 66
2, 44022, Note_off_c, 0, 82, 0
2, 44032, Note_on_c, 0, 77, 66
2, 44054, Note_off_c, 0, 77, 0
2, 44064, Note_on_c, 0, 74, 66
2, 44086, Note_off_c, 0, 74, 0
2, 44096, Note_on_c, 0, 77, 66
2, 44118, Note_off_c, 0, 77, 0
2, 44128, Note_on_c, 0, 74, 66
2, 44150, Note_off_c, 0, 74, 0
2, 44160, Note_on_c, 0, 70, 66
2, 44182, Note_off_c, 0, 70, 0
2, 44192, Note_on_c, 0, 74, 66
2, 44214, Note_off_c, 0, 74, 0
2, 44224, Note_on_c, 0, 70, 66
2, 44246, Note_off_c, 0, 70, 0
2, 44256, Note_on_c, 0, 65, 66
2, 44278, Note_off_c, 0, 65, 0
2, 44288, Note_on_c, 0, 70, 66
2, 44310, Note_off_c, 0, 70, 0
2, 44320, Note_on_c, 0, 65, 66
2, 44342, Note_off_c, 0, 65, 0
2, 44384, Note_on_c, 0, 58, 66
2, 44406, Note_off_c, 0, 58, 0
2, 44416, Note_on_c, 0, 60, 66
2, 44438, Note_off_c, 0, 60, 0
2, 44448, Note_on_c, 0, 63, 66
2, 44470, Note_off_c, 0, 63, 0
2, 44480, Note_on_c, 0, 60, 66
2, 44502, Note_off_c, 0, 60, 0
2, 44512, Note_on_c, 0, 67, 66
2, 44534, Note_off_c, 0, 67, 0
2, 44544, Note_on_c, 0, 63, 66
2, 44566, Note_off_c, 0, 63, 0
2, 44576, Note_on_c, 0, 70, 66
2, 44598, Note_off_c, 0, 70, 0
2, 44608, Note_on_c, 0, 67, 66
2, 44630, Note_off_c, 0, 67, 0
2, 44640, Note_on_c, 0, 72, 66
2, 44662, Note_off_c, 0, 72, 0
2, 44672, Note_on_c, 0, 67, 66
2, 44694, Note_off_c, 0, 67, 0
2, 44704, Note_on_c, 0, 75, 66
2, 44726, Note_off_c, 0, 75, 0
2, 44736, Note_on_c, 0, 72, 66
2, 44758, Note_off_c, 0, 72, 0
2, 44768, Note_on_c, 0, 79, 66
2, 44790, Note_off_c, 0, 79, 0
2, 44800, Note_on_c, 0, 76, 66
2, 44822, Note_off_c, 0, 76, 0
2, 44832, Note_on_c, 0, 82, 66
2, 44854, Note_off_c, 0, 82, 0
2, 44864, Note_on_c, 0, 79, 66
2, 44886, Note_off_c, 0, 79, 0
2, 44896, Note_on_c, 0, 84, 66
2, 44918, Note_off_c, 0, 84, 0
2, 44928, Note_on_c, 0, 81, 66
2, 44950, Note_off_c, 0, 81, 0
2, 44960, Note_on_c, 0, 84, 66
2, 44982, Note_off_c, 0, 84, 0
2, 44992, Note_on_c, 0, 87, 66
2, 45014, Note_off_c, 0, 87, 0
2, 45024, Note_on_c, 0, 84, 66
2, 45046, Note_off_c, 0, 84, 0
2, 45056, Note_on_c, 0, 81, 66
2, 45078, Note_off_c, 0, 81, 0
2, 45088, Note_on_c, 0, 77, 66
2, 45110, Note_off_c, 0, 77, 0
2, 45120, Note_on_c, 0, 75, 66
2, 45142, Note_off_c, 0, 75, 0
2, 45152, Note_on_c, 0, 72, 66
2, 45174, Note_off_c, 0, 72, 0
2, 45184, Note_on_c, 0, 69, 66
2, 45206, Note_off_c, 0, 69, 0
2, 45216, Note_on_c, 0, 66, 66
2, 45238, Note_off_c, 0, 66, 0
2, 45248, Note_on_c, 0, 69, 66
2, 45270, Note_off_c, 0, 69, 0
2, 45280, Note_on_c, 0, 72, 66
2, 45302, Note_off_c, 0, 72, 0
2, 45312, Note_on_c, 0, 73, 66
2, 45334, Note_off_c, 0, 73, 0
2, 45344, Note_on_c, 0, 76, 66
2, 45366, Note_off_c, 0, 76, 0
2, 45376, Note_on_c, 0, 79, 66
2, 45398, Note_off_c, 0, 79, 0
2, 45408, Note_on_c, 0, 82, 66
2, 45430, Note_off_c, 0, 82, 0
2, 45440, Note_on_c, 0, 85, 66
2, 45462, Note_off_c, 0, 85, 0
2, 45472, Note_on_c, 0, 89, 66
2, 45494, Note_off_c, 0, 89, 0
2, 45504, Note_on_c, 0, 89, 66
2, 45526, Note_off_c, 0, 89, 0
2, 45536, Note_on_c, 0, 86, 66
2, 45558, Note_off_c, 0, 86, 0
2, 45568, Note_on_c, 0, 81, 66
2, 45590, Note_off_c, 0, 81, 0
2, 45600, Note_on_c, 0, 82, 66
2, 45622, Note_off_c, 0, 82, 0
2, 45632, Note_on_c, 0, 86, 66
2, 45654, Note_off_c, 0, 86, 0
2, 45664, Note_on_c, 0, 76, 66
2, 45686, Note_off_c, 0, 76, 0
2, 45696, Note_on_c, 0, 77, 66
2, 45718, Note_off_c, 0, 77, 0
2, 45728, Note_on_c, 0, 82, 66
2, 45750, Note_off_c, 0, 82, 0
2, 45760, Note_on_c, 0, 73, 66
2, 45782, Note_off_c, 0, 73, 0
2, 45792, Note_on_c, 0, 74, 66
2, 45814, Note_off_c, 0, 74, 0
2, 45824, Note_on_c, 0, 77, 66
2, 45846, Note_off_c, 0, 77, 0
2, 45856, Note_on_c, 0, 70, 66
2, 45878, Note_off_c, 0, 70, 0
2, 45888, Note_on_c, 0, 75, 66
2, 45910, Note_off_c, 0, 75, 0
2, 45920, Note_on_c, 0, 72, 66
2, 45942, Note_off_c, 0, 72, 0
2, 45952, Note_on_c, 0, 69, 66
2, 45974, Note_off_c, 0, 69, 0
2, 45984, Note_on_c, 0, 65, 66
2, 46006, Note_off_c, 0, 65, 0
2, 46016, Note_on_c, 0, 63, 66
2, 46038, Note_off_c, 0, 63, 0
2, 46048, Note_on_c, 0, 60, 66
2, 46070, Note_off_c, 0, 60, 0
2, 46112, Note_on_c, 0, 82, 66
2, 46134, Note_off_c, 0, 82, 0
2, 46144, Note_on_c, 0, 77, 66
2, 46166, Note_off_c, 0, 77, 0
2, 46176, Note_on_c, 0, 74, 66
2, 46198, Note_off_c, 0, 74, 0
2, 46208, Note_on_c, 0, 70, 66
2, 46230, Note_off_c, 0, 70, 0
2, 46240, Note_on_c, 0, 65, 66
2, 46262, Note_off_c, 0, 65, 0
2, 46272, Note_on_c, 0, 62, 66
2, 46294, Note_off_c, 0, 62, 0
2, 46304, Note_on_c, 0, 77, 66
2, 46326, Note_off_c, 0, 77, 0
2, 46336, Note_on_c, 0, 74, 66
2, 46358, Note_off_c, 0, 74, 0
2, 46368, Note_on_c, 0, 70, 66
2, 46390, Note_off_c, 0, 70, 0
2, 46400, Note_on_c, 0, 65, 66
2, 46422, Note_off_c, 0, 65, 0
2, 46432, Note_on_c, 0, 62, 66
2, 46454, Note_off_c, 0, 62, 0
2, 46752, Note_on_c, 0, 82, 66
2, 46752, Note_on_c, 0, 70, 66
2, 46942, Note_off_c, 0, 82, 0
2, 46942, Note_off_c, 0, 70, 0
2, 46944, Note_on_c, 0, 80, 66
2, 46944, Note_on_c, 0, 68, 66
2, 47134, Note_off_c, 0, 80, 0
2, 47134, Note_off_c, 0, 68, 0
2, 47136, Note_on_c, 0, 79, 66
2, 47136, Note_on_c, 0, 67, 66
2, 47326, Note_off_c, 0, 67, 0
2, 47326, Note_off_c, 0, 79, 0
2, 47328, Note_on_c, 0, 84, 66
2, 47328, Note_on_c, 0, 72, 66
2, 47518, Note_off_c, 0, 84, 0
2, 47518, Note_off_c, 0, 72, 0
2, 47520, Note_on_c, 0, 77, 66
2, 47520, Note_on_c, 0, 65, 66
2, 47710, Note_off_c, 0, 77, 0
2, 47710, Note_off_c, 0, 65, 0
2, 47712, Note_on_c, 0, 82, 66
2, 47712, Note_on_c, 0, 70, 66
2, 47902, Note_off_c, 0, 70, 0
2, 47902, Note_off_c, 0, 82, 0
2, 47904, Note_on_c, 0, 75, 66
2, 47904, Note_on_c, 0, 63, 66
2, 48094, Note_off_c, 0, 75, 0
2, 48094, Note_off_c, 0, 63, 0
2, 48096, Note_on_c, 0, 80, 66
2, 48096, Note_on_c, 0, 68, 66
2, 48286, Note_off_c, 0, 80, 0
2, 48286, Note_off_c, 0, 68, 0
2, 48288, Note_on_c, 0, 79, 66
2, 48288, Note_on_c, 0, 67, 66
2, 48382, Note_off_c, 0, 79, 0
2, 48382, Note_off_c, 0, 67, 0
2, 48384, Note_on_c, 0, 82, 66
2, 48384, Note_on_c, 0, 70, 66
2, 48526, Note_off_c, 0, 82, 0
2, 48528, Note_on_c, 0, 79, 66
2, 48574, Note_off_c, 0, 70, 0
2, 48574, Note_off_c, 0, 79, 0
2, 48576, Note_on_c, 0, 77, 66
2, 48766, Note_off_c, 0, 77, 0
2, 48768, Note_on_c, 0, 87, 66
2, 48782, Note_off_c, 0, 87, 0
2, 48784, Note_on_c, 0, 89, 66
2, 48798, Note_off_c, 0, 89, 0
2, 48800, Note_on_c, 0, 87, 66
2, 48814, Note_off_c, 0, 87, 0
2, 48816, Note_on_c, 0, 89, 66
2, 48830, Note_off_c, 0, 89, 0
2, 48832, Note_on_c, 0, 87, 66
2, 48846, Note_off_c, 0, 87, 0
2, 48848, Note_on_c, 0, 89, 66
2, 48862, Note_off_c, 0, 89, 0
2, 48864, Note_on_c, 0, 87, 66
2, 48878, Note_off_c, 0, 87, 0
2, 48880, Note_on_c, 0, 89, 66
2, 48894, Note_off_c, 0, 89, 0
2, 48896, Note_on_c, 0, 87, 66
2, 48910, Note_off_c, 0, 87, 0
2, 48912, Note_on_c, 0, 89, 66
2, 48926, Note_off_c, 0, 89, 0
2, 48928, Note_on_c, 0, 87, 66
2, 48942, Note_off_c, 0, 87, 0
2, 48944, Note_on_c, 0, 89, 66
2, 48958, Note_off_c, 0, 89, 0
2, 48960, Note_on_c, 0, 86, 66
2, 48960, Note_on_c, 0, 87, 66
2, 48974, Note_off_c, 0, 87, 0
2, 48976, Note_on_c, 0, 89, 66
2, 48990, Note_off_c, 0, 89, 0
2, 48992, Note_on_c, 0, 87, 66
2, 49006, Note_off_c, 0, 87, 0
2, 49008, Note_on_c, 0, 89, 66
2, 49022, Note_off_c, 0, 89, 0
2, 49024, Note_on_c, 0, 87, 66
2, 49038, Note_off_c, 0, 87, 0
2, 49040, Note_on_c, 0, 89, 66
2, 49054, Note_off_c, 0, 89, 0
2, 49056, Note_on_c, 0, 87, 66
2, 49070, Note_off_c, 0, 87, 0
2, 49072, Note_on_c, 0, 89, 66
2, 49086, Note_off_c, 0, 89, 0
2, 49088, Note_on_c, 0, 87, 66
2, 49102, Note_off_c, 0, 87, 0
2, 49104, Note_on_c, 0, 89, 66
2, 49118, Note_off_c, 0, 89, 0
2, 49120, Note_on_c, 0, 87, 66
2, 49134, Note_off_c, 0, 87, 0
2, 49136, Note_on_c, 0, 89, 66
2, 49150, Note_off_c, 0, 86, 0
2, 49150, Note_off_c, 0, 89, 0
2, 49152, Note_on_c, 0, 85, 66
2, 49152, Note_on_c, 0, 87, 66
2, 49166, Note_off_c, 0, 87, 0
2, 49168, Note_on_c, 0, 89, 66
2, 49182, Note_off_c, 0, 89, 0
2, 49184, Note_on_c, 0, 87, 66
2, 49198, Note_off_c, 0, 87, 0
2, 49200, Note_on_c, 0, 89, 66
2, 49214, Note_off_c, 0, 89, 0
2, 49216, Note_on_c, 0, 87, 66
2, 49230, Note_off_c, 0, 87, 0
2, 49232, Note_on_c, 0, 89, 66
2, 49246, Note_off_c, 0, 89, 0
2, 49248, Note_on_c, 0, 87, 66
2, 49262, Note_off_c, 0, 87, 0
2, 49264, Note_on_c, 0, 89, 66
2, 49278, Note_off_c, 0, 89, 0
2, 49280, Note_on_c, 0, 87, 66
2, 49294, Note_off_c, 0, 87, 0
2, 49296, Note_on_c, 0, 89, 66
2, 49310, Note_off_c, 0, 89, 0
2, 49312, Note_on_c, 0, 87, 66
2, 49326, Note_off_c, 0, 87, 0
2, 49328, Note_on_c, 0, 89, 66
2, 49342, Note_off_c, 0, 85, 0
2, 49342, Note_off_c, 0, 89, 0
2, 49344, Note_on_c, 0, 84, 66
2, 49344, Note_on_c, 0, 87, 66
2, 49358, Note_off_c, 0, 87, 0
2, 49360, Note_on_c, 0, 89, 66
2, 49374, Note_off_c, 0, 89, 0
2, 49376, Note_on_c, 0, 87, 66
2, 49390, Note_off_c, 0, 87, 0
2, 49392, Note_on_c, 0, 89, 66
2, 49406, Note_off_c, 0, 89, 0
2, 49408, Note_on_c, 0, 87, 66
2, 49422, Note_off_c, 0, 87, 0
2, 49424, Note_on_c, 0, 89, 66
2, 49438, Note_off_c, 0, 89, 0
2, 49440, Note_on_c, 0, 87, 66
2, 49454, Note_off_c, 0, 87, 0
2, 49456, Note_on_c, 0, 89, 66
2, 49470, Note_off_c, 0, 89, 0
2, 49472, Note_on_c, 0, 87, 66
2, 49486, Note_off_c, 0, 87, 0
2, 49488, Note_on_c, 0, 89, 66
2, 49502, Note_off_c, 0, 89, 0
2, 49504, Note_on_c, 0, 87, 66
2, 49518, Note_off_c, 0, 87, 0
2, 49520, Note_on_c, 0, 89, 66
2, 49534, Note_off_c, 0, 84, 0
2, 49534, Note_off_c, 0, 89, 0
2, 49536, Note_on_c, 0, 83, 66
2, 49536, Note_on_c, 0, 87, 66
2, 49550, Note_off_c, 0, 87, 0
2, 49552, Note_on_c, 0, 89, 66
2, 49566, Note_off_c, 0, 89, 0
2, 49568, Note_on_c, 0, 87, 66
2, 49582, Note_off_c, 0, 87, 0
2, 49584, Note_on_c, 0, 89, 66
2, 49598, Note_off_c, 0, 89, 0
2, 49600, Note_on_c, 0, 87, 66
2, 49614, Note_off_c, 0, 87, 0
2, 49616, Note_on_c, 0, 89, 66
2, 49630, Note_off_c, 0, 89, 0
2, 49632, Note_on_c, 0, 87, 66
2, 49646, Note_off_c, 0, 87, 0
2, 49648, Note_on_c, 0, 89, 66
2, 49662, Note_off_c, 0, 89, 0
2, 49664, Note_on_c, 0, 87, 66
2, 49678, Note_off_c, 0, 87, 0
2, 49680, Note_on_c, 0, 89, 66
2, 49694, Note_off_c, 0, 89, 0
2, 49696, Note_on_c, 0, 87, 66
2, 49710, Note_off_c, 0, 87, 0
2, 49712, Note_on_c, 0, 89, 66
2, 49726, Note_off_c, 0, 83, 0
2, 49726, Note_off_c, 0, 89, 0
2, 49728, Note_on_c, 0, 82, 66
2, 49728, Note_on_c, 0, 87, 66
2, 49742, Note_off_c, 0, 87, 0
2, 49744, Note_on_c, 0, 89, 66
2, 49758, Note_off_c, 0, 89, 0
2, 49760, Note_on_c, 0, 87, 66
2, 49774, Note_off_c, 0, 87, 0
2, 49776, Note_on_c, 0, 89, 66
2, 49790, Note_off_c, 0, 89, 0
2, 49792, Note_on_c, 0, 87, 66
2, 49806, Note_off_c, 0, 87, 0
2, 49808, Note_on_c, 0, 89, 66
2, 49822, Note_off_c, 0, 89, 0
2, 49824, Note_on_c, 0, 87, 66
2, 49838, Note_off_c, 0, 87, 0
2, 49840, Note_on_c, 0, 89, 66
2, 49854, Note_off_c, 0, 89, 0
2, 49856, Note_on_c, 0, 87, 66
2, 49870, Note_off_c, 0, 87, 0
2, 49872, Note_on_c, 0, 89, 66
2, 49886, Note_off_c, 0, 89, 0
2, 49888, Note_on_c, 0, 87, 66
2, 49902, Note_off_c, 0, 87, 0
2, 49904, Note_on_c, 0, 89, 66
2, 49918, Note_off_c, 0, 82, 0
2, 49918, Note_off_c, 0, 89, 0
2, 49920, Note_on_c, 0, 83, 66
2, 49920, Note_on_c, 0, 87, 66
2, 49934, Note_off_c, 0, 87, 0
2, 49936, Note_on_c, 0, 89, 66
2, 49950, Note_off_c, 0, 89, 0
2, 49952, Note_on_c, 0, 87, 66
2, 49966, Note_off_c, 0, 87, 0
2, 49968, Note_on_c, 0, 89, 66
2, 49982, Note_off_c, 0, 89, 0
2, 49984, Note_on_c, 0, 87, 66
2, 49998, Note_off_c, 0, 87, 0
2, 50000, Note_on_c, 0, 89, 66
2, 50014, Note_off_c, 0, 89, 0
2, 50016, Note_on_c, 0, 81, 66
2, 50062, Note_off_c, 0, 81, 0
2, 50064, Note_on_c, 0, 83, 66
2, 50110, Note_off_c, 0, 83, 0
2, 50110, Note_off_c, 0, 83, 0
2, 50112, Note_on_c, 0, 83, 66
2, 50158, Note_off_c, 0, 83, 0
2, 50160, Note_on_c, 0, 84, 66
2, 50206, Note_off_c, 0, 84, 0
2, 50208, Note_on_c, 0, 80, 66
2, 50254, Note_off_c, 0, 80, 0
2, 50256, Note_on_c, 0, 77, 66
2, 50302, Note_off_c, 0, 77, 0
2, 50304, Note_on_c, 0, 75, 66
2, 50494, Note_off_c, 0, 75, 64
2, 50496, Note_on_c, 0, 77, 66
2, 50518, Note_off_c, 0, 77, 64
2, 50520, Note_on_c, 0, 75, 66
2, 50542, Note_off_c, 0, 75, 64
2, 50544, Note_on_c, 0, 74, 66
2, 50566, Note_off_c, 0, 74, 64
2, 50568, Note_on_c, 0, 75, 66
2, 50590, Note_off_c, 0, 75, 64
2, 50592, Note_on_c, 0, 79, 66
2, 50636, Note_off_c, 0, 79, 0
2, 50640, Note_on_c, 0, 77, 66
2, 50684, Note_off_c, 0, 77, 0
2, 50688, Note_on_c, 0, 63, 66
2, 50688, Note_on_c, 0, 67, 66
2, 50688, Note_on_c, 0, 75, 66
2, 50828, Note_off_c, 0, 75, 0
2, 50832, Note_on_c, 0, 70, 66
2, 50876, Note_off_c, 0, 63, 0
2, 50876, Note_off_c, 0, 67, 0
2, 50876, Note_off_c, 0, 70, 0
2, 50880, Note_on_c, 0, 75, 66
2, 50948, Note_off_c, 0, 75, 0
2, 50952, Note_on_c, 0, 74, 66
2, 50972, Note_off_c, 0, 74, 0
2, 50976, Note_on_c, 0, 77, 66
2, 51044, Note_off_c, 0, 77, 0
2, 51048, Note_on_c, 0, 75, 66
2, 51068, Note_off_c, 0, 75, 0
2, 51072, Note_on_c, 0, 79, 66
2, 51140, Note_off_c, 0, 79, 0
2, 51144, Note_on_c, 0, 77, 66
2, 51164, Note_off_c, 0, 77, 0
2, 51168, Note_on_c, 0, 80, 66
2, 51236, Note_off_c, 0, 80, 0
2, 51240, Note_on_c, 0, 79, 66
2, 51260, Note_off_c, 0, 79, 0
2, 51264, Note_on_c, 0, 82, 66
2, 51284, Note_off_c, 0, 82, 0
2, 51288, Note_on_c, 0, 55, 66
2, 51308, Note_off_c, 0, 55, 0
2, 51312, Note_on_c, 0, 58, 66
2, 51332, Note_off_c, 0, 58, 0
2, 51336, Note_on_c, 0, 63, 66
2, 51356, Note_off_c, 0, 63, 0
2, 51360, Note_on_c, 0, 67, 66
2, 51380, Note_off_c, 0, 67, 0
2, 51384, Note_on_c, 0, 75, 66
2, 51404, Note_off_c, 0, 75, 0
2, 51408, Note_on_c, 0, 79, 66
2, 51428, Note_off_c, 0, 79, 0
2, 51432, Note_on_c, 0, 82, 66
2, 51452, Note_off_c, 0, 82, 0
2, 51456, Note_on_c, 0, 80, 66
2, 51476, Note_off_c, 0, 80, 0
2, 51480, Note_on_c, 0, 58, 66
2, 51500, Note_off_c, 0, 58, 0
2, 51504, Note_on_c, 0, 60, 66
2, 51524, Note_off_c, 0, 60, 0
2, 51528, Note_on_c, 0, 65, 66
2, 51548, Note_off_c, 0, 65, 0
2, 51552, Note_on_c, 0, 68, 66
2, 51572, Note_off_c, 0, 68, 0
2, 51576, Note_on_c, 0, 72, 66
2, 51596, Note_off_c, 0, 72, 0
2, 51600, Note_on_c, 0, 77, 66
2, 51620, Note_off_c, 0, 77, 0
2, 51624, Note_on_c, 0, 80, 66
2, 51644, Note_off_c, 0, 80, 0
2, 51648, Note_on_c, 0, 79, 66
2, 51668, Note_off_c, 0, 79, 0
2, 51672, Note_on_c, 0, 58, 66
2, 51692, Note_off_c, 0, 58, 0
2, 51696, Note_on_c, 0, 61, 66
2, 51716, Note_off_c, 0, 61, 0
2, 51720, Note_on_c, 0, 64, 66
2, 51740, Note_off_c, 0, 64, 0
2, 51744, Note_on_c, 0, 67, 66
2, 51764, Note_off_c, 0, 67, 0
2, 51768, Note_on_c, 0, 73, 66
2, 51788, Note_off_c, 0, 73, 0
2, 51792, Note_on_c, 0, 76, 66
2, 51812, Note_off_c, 0, 76, 0
2, 51816, Note_on_c, 0, 79, 66
2, 51836, Note_off_c, 0, 79, 0
2, 51864, Note_on_c, 0, 72, 66
2, 51884, Note_off_c, 0, 72, 0
2, 51888, Note_on_c, 0, 75, 66
2, 51908, Note_off_c, 0, 75, 0
2, 51912, Note_on_c, 0, 77, 66
2, 51932, Note_off_c, 0, 77, 0
2, 51936, Note_on_c, 0, 84, 66
2, 51956, Note_off_c, 0, 84, 0
2, 51960, Note_on_c, 0, 77, 66
2, 51980, Note_off_c, 0, 77, 0
2, 51984, Note_on_c, 0, 75, 66
2, 52004, Note_off_c, 0, 75, 0
2, 52008, Note_on_c, 0, 72, 66
2, 52028, Note_off_c, 0, 72, 0
2, 52032, Note_on_c, 0, 74, 66
2, 52052, Note_off_c, 0, 74, 0
2, 52056, Note_on_c, 0, 72, 66
2, 52076, Note_off_c, 0, 72, 0
2, 52080, Note_on_c, 0, 70, 66
2, 52100, Note_off_c, 0, 70, 0
2, 52104, Note_on_c, 0, 69, 66
2, 52124, Note_off_c, 0, 69, 0
2, 52128, Note_on_c, 0, 70, 66
2, 52148, Note_off_c, 0, 70, 0
2, 52152, Note_on_c, 0, 72, 66
2, 52172, Note_off_c, 0, 72, 0
2, 52176, Note_on_c, 0, 74, 66
2, 52196, Note_off_c, 0, 74, 0
2, 52200, Note_on_c, 0, 75, 66
2, 52220, Note_off_c, 0, 75, 0
2, 52224, Note_on_c, 0, 77, 66
2, 52244, Note_off_c, 0, 77, 0
2, 52248, Note_on_c, 0, 75, 66
2, 52268, Note_off_c, 0, 75, 0
2, 52272, Note_on_c, 0, 74, 66
2, 52292, Note_off_c, 0, 74, 0
2, 52296, Note_on_c, 0, 75, 66
2, 52316, Note_off_c, 0, 75, 0
2, 52320, Note_on_c, 0, 77, 66
2, 52340, Note_off_c, 0, 77, 0
2, 52344, Note_on_c, 0, 79, 66
2, 52364, Note_off_c, 0, 79, 0
2, 52368, Note_on_c, 0, 80, 66
2, 52388, Note_off_c, 0, 80, 0
2, 52392, Note_on_c, 0, 81, 66
2, 52412, Note_off_c, 0, 81, 0
2, 52416, Note_on_c, 0, 82, 66
2, 52436, Note_off_c, 0, 82, 0
2, 52440, Note_on_c, 0, 80, 66
2, 52460, Note_off_c, 0, 80, 0
2, 52464, Note_on_c, 0, 79, 66
2, 52484, Note_off_c, 0, 79, 0
2, 52488, Note_on_c, 0, 77, 66
2, 52508, Note_off_c, 0, 77, 0
2, 52512, Note_on_c, 0, 75, 66
2, 52532, Note_off_c, 0, 75, 0
2, 52536, Note_on_c, 0, 74, 66
2, 52556, Note_off_c, 0, 74, 0
2, 52560, Note_on_c, 0, 72, 66
2, 52580, Note_off_c, 0, 72, 0
2, 52584, Note_on_c, 0, 70, 66
2, 52604, Note_off_c, 0, 70, 0
2, 52608, Note_on_c, 0, 68, 66
2, 52628, Note_off_c, 0, 68, 0
2, 52632, Note_on_c, 0, 67, 66
2, 52652, Note_off_c, 0, 67, 0
2, 52656, Note_on_c, 0, 65, 66
2, 52676, Note_off_c, 0, 65, 0
2, 52680, Note_on_c, 0, 63, 66
2, 52700, Note_off_c, 0, 63, 0
2, 52704, Note_on_c, 0, 62, 66
2, 52724, Note_off_c, 0, 62, 0
2, 52728, Note_on_c, 0, 60, 66
2, 52748, Note_off_c, 0, 60, 0
2, 52752, Note_on_c, 0, 58, 66
2, 52772, Note_off_c, 0, 58, 0
2, 52776, Note_on_c, 0, 56, 66
2, 52796, Note_off_c, 0, 56, 0
2, 52800, Note_on_c, 0, 55, 66
2, 52820, Note_off_c, 0, 55, 0
2, 52832, Note_on_c, 0, 58, 66
2, 52852, Note_off_c, 0, 58, 0
2, 52864, Note_on_c, 0, 63, 66
2, 52884, Note_off_c, 0, 63, 0
2, 52896, Note_on_c, 0, 67, 66
2, 52916, Note_off_c, 0, 67, 0
2, 52920, Note_on_c, 0, 70, 66
2, 52940, Note_off_c, 0, 70, 0
2, 52944, Note_on_c, 0, 75, 66
2, 52964, Note_off_c, 0, 75, 0
2, 52968, Note_on_c, 0, 79, 66
2, 52988, Note_off_c, 0, 79, 0
2, 52992, Note_on_c, 0, 82, 66
2, 53132, Note_off_c, 0, 82, 0
2, 53136, Note_on_c, 0, 79, 66
2, 53180, Note_off_c, 0, 79, 0
2, 53184, Note_on_c, 0, 77, 66
2, 53276, Note_off_c, 0, 77, 0
2, 53472, Note_on_c, 0, 78, 66
2, 53492, Note_off_c, 0, 78, 0
2, 53496, Note_on_c, 0, 81, 66
2, 53516, Note_off_c, 0, 81, 0
2, 53520, Note_on_c, 0, 84, 66
2, 53540, Note_off_c, 0, 84, 0
2, 53544, Note_on_c, 0, 87, 66
2, 53564, Note_off_c, 0, 87, 0
2, 53616, Note_on_c, 0, 86, 66
2, 53660, Note_off_c, 0, 86, 0
2, 53664, Note_on_c, 0, 84, 66
2, 53708, Note_off_c, 0, 84, 0
2, 53712, Note_on_c, 0, 82, 66
2, 53756, Note_off_c, 0, 82, 0
2, 53760, Note_on_c, 0, 81, 66
2, 53804, Note_off_c, 0, 81, 0
2, 53808, Note_on_c, 0, 79, 66
2, 53852, Note_off_c, 0, 79, 0
2, 53856, Note_on_c, 0, 78, 66
2, 53900, Note_off_c, 0, 78, 0
2, 53904, Note_on_c, 0, 79, 66
2, 53948, Note_off_c, 0, 79, 0
2, 54048, Note_on_c, 0, 74, 66
2, 54068, Note_off_c, 0, 74, 0
2, 54072, Note_on_c, 0, 77, 66
2, 54092, Note_off_c, 0, 77, 0
2, 54096, Note_on_c, 0, 80, 66
2, 54116, Note_off_c, 0, 80, 0
2, 54120, Note_on_c, 0, 84, 66
2, 54140, Note_off_c, 0, 84, 0
2, 54240, Note_on_c, 0, 70, 66
2, 54260, Note_off_c, 0, 70, 0
2, 54264, Note_on_c, 0, 75, 66
2, 54284, Note_off_c, 0, 75, 0
2, 54288, Note_on_c, 0, 79, 66
2, 54308, Note_off_c, 0, 79, 0
2, 54312, Note_on_c, 0, 82, 66
2, 54332, Note_off_c, 0, 82, 0
2, 54432, Note_on_c, 0, 68, 66
2, 54452, Note_off_c, 0, 68, 0
2, 54456, Note_on_c, 0, 74, 66
2, 54476, Note_off_c, 0, 74, 0
2, 54480, Note_on_c, 0, 77, 66
2, 54500, Note_off_c, 0, 77, 0
2, 54504, Note_on_c, 0, 80, 66
2, 54524, Note_off_c, 0, 80, 0
2, 54624, Note_on_c, 0, 67, 66
2, 54644, Note_off_c, 0, 67, 0
2, 54648, Note_on_c, 0, 70, 66
2, 54668, Note_off_c, 0, 70, 0
2, 54672, Note_on_c, 0, 75, 66
2, 54692, Note_off_c, 0, 75, 0
2, 54696, Note_on_c, 0, 79, 66
2, 54716, Note_off_c, 0, 79, 0
2, 54912, Note_on_c, 0, 65, 96
2, 54920, Note_on_c, 0, 72, 96
2, 54930, Note_on_c, 0, 75, 96
2, 54940, Note_on_c, 0, 77, 96
2, 55006, Note_off_c, 0, 65, 0
2, 55014, Note_off_c, 0, 72, 0
2, 55024, Note_off_c, 0, 75, 0
2, 55034, Note_off_c, 0, 77, 0
2, 55104, Note_on_c, 0, 75, 66
2, 55104, Note_on_c, 0, 77, 66
2, 55198, Note_off_c, 0, 75, 0
2, 55198, Note_off_c, 0, 77, 0
2, 55488, Note_on_c, 0, 66, 96
2, 55496, Note_on_c, 0, 72, 96
2, 55506, Note_on_c, 0, 75, 96
2, 55516, Note_on_c, 0, 78, 96
2, 55582, Note_off_c, 0, 66, 0
2, 55590, Note_off_c, 0, 72, 0
2, 55600, Note_off_c, 0, 75, 0
2, 55610, Note_off_c, 0, 78, 0
2, 55680, Note_on_c, 0, 78, 66
2, 55680, Note_on_c, 0, 75, 66
2, 55774, Note_off_c, 0, 78, 0
2, 55774, Note_off_c, 0, 75, 0
2, 56064, Note_on_c, 0, 67, 96
2, 56072, Note_on_c, 0, 73, 96
2, 56082, Note_on_c, 0, 76, 96
2, 56092, Note_on_c, 0, 79, 96
2, 56158, Note_off_c, 0, 67, 0
2, 56166, Note_off_c, 0, 73, 0
2, 56176, Note_off_c, 0, 76, 0
2, 56186, Note_off_c, 0, 79, 0
2, 56256, Note_on_c, 0, 76, 66
2, 56256, Note_on_c, 0, 79, 66
2, 56350, Note_off_c, 0, 76, 0
2, 56350, Note_off_c, 0, 79, 0
2, 56640, Note_on_c, 0, 69, 96
2, 56648, Note_on_c, 0, 75, 96
2, 56658, Note_on_c, 0, 78, 96
2, 56668, Note_on_c, 0, 81, 96
2, 56734, Note_off_c, 0, 69, 0
2, 56742, Note_off_c, 0, 75, 0
2, 56752, Note_off_c, 0, 78, 0
2, 56762, Note_off_c, 0, 81, 0
2, 56832, Note_on_c, 0, 78, 66
2, 56832, Note_on_c, 0, 81, 66
2, 56926, Note_off_c, 0, 78, 0
2, 56926, Note_off_c, 0, 81, 0
2, 57024, Note_on_c, 0, 67, 66
2, 57024, Note_on_c, 0, 63, 66
2, 57024, Note_on_c, 0, 58, 66
2, 57024, Note_on_c, 0, 82, 66
2, 57116, Note_off_c, 0, 67, 0
2, 57116, Note_off_c, 0, 63, 0
2, 57116, Note_off_c, 0, 58, 0
2, 57216, Note_on_c, 0, 67, 66
2, 57216, Note_on_c, 0, 63, 66
2, 57216, Note_on_c, 0, 58, 66
2, 57308, Note_off_c, 0, 82, 0
2, 57308, Note_off_c, 0, 67, 0
2, 57308, Note_off_c, 0, 63, 0
2, 57308, Note_off_c, 0, 58, 0
2, 57312, Note_on_c, 0, 84, 66
2, 57404, Note_off_c, 0, 84, 0
2, 57408, Note_on_c, 0, 67, 66
2, 57408, Note_on_c, 0, 63, 66
2, 57408, Note_on_c, 0, 58, 66
2, 57408, Note_on_c, 0, 86, 66
2, 57500, Note_off_c, 0, 67, 0
2, 57500, Note_off_c, 0, 63, 0
2, 57500, Note_off_c, 0, 58, 0
2, 57500, Note_off_c, 0, 86, 0
2, 57504, Note_on_c, 0, 87, 66
2, 57596, Note_off_c, 0, 87, 0
2, 57600, Note_on_c, 0, 63, 66
2, 57600, Note_on_c, 0, 58, 66
2, 57600, Note_on_c, 0, 65, 66
2, 57600, Note_on_c, 0, 75, 66
2, 57614, Note_off_c, 0, 75, 0
2, 57616, Note_on_c, 0, 79, 66
2, 57630, Note_off_c, 0, 79, 0
2, 57632, Note_on_c, 0, 77, 66
2, 57646, Note_off_c, 0, 77, 0
2, 57648, Note_on_c, 0, 79, 66
2, 57662, Note_off_c, 0, 79, 0
2, 57664, Note_on_c, 0, 77, 66
2, 57678, Note_off_c, 0, 77, 0
2, 57680, Note_on_c, 0, 79, 66
2, 57694, Note_off_c, 0, 63, 0
2, 57694, Note_off_c, 0, 58, 0
2, 57694, Note_off_c, 0, 65, 0
2, 57694, Note_off_c, 0, 79, 0
2, 57696, Note_on_c, 0, 77, 66
2, 57710, Note_off_c, 0, 77, 0
2, 57712, Note_on_c, 0, 79, 66
2, 57726, Note_off_c, 0, 79, 0
2, 57728, Note_on_c, 0, 77, 66
2, 57742, Note_off_c, 0, 77, 0
2, 57744, Note_on_c, 0, 79, 66
2, 57758, Note_off_c, 0, 79, 0
2, 57760, Note_on_c, 0, 77, 66
2, 57774, Note_off_c, 0, 77, 0
2, 57776, Note_on_c, 0, 79, 66
2, 57790, Note_off_c, 0, 79, 0
2, 57792, Note_on_c, 0, 63, 66
2, 57792, Note_on_c, 0, 65, 66
2, 57792, Note_on_c, 0, 58, 66
2, 57792, Note_on_c, 0, 77, 66
2, 57806, Note_off_c, 0, 77, 0
2, 57808, Note_on_c, 0, 79, 66
2, 57822, Note_off_c, 0, 79, 0
2, 57824, Note_on_c, 0, 77, 66
2, 57838, Note_off_c, 0, 77, 0
2, 57840, Note_on_c, 0, 79, 66
2, 57854, Note_off_c, 0, 79, 0
2, 57856, Note_on_c, 0, 77, 66
2, 57870, Note_off_c, 0, 77, 0
2, 57872, Note_on_c, 0, 79, 66
2, 57886, Note_off_c, 0, 63, 0
2, 57886, Note_off_c, 0, 65, 0
2, 57886, Note_off_c, 0, 58, 0
2, 57886, Note_off_c, 0, 79, 0
2, 57888, Note_on_c, 0, 77, 66
2, 57902, Note_off_c, 0, 77, 0
2, 57904, Note_on_c, 0, 79, 66
2, 57918, Note_off_c, 0, 79, 0
2, 57920, Note_on_c, 0, 77, 66
2, 57934, Note_off_c, 0, 77, 0
2, 57936, Note_on_c, 0, 79, 66
2, 57950, Note_off_c, 0, 79, 0
2, 57952, Note_on_c, 0, 77, 66
2, 57966, Note_off_c, 0, 77, 0
2, 57968, Note_on_c, 0, 79, 66
2, 57982, Note_off_c, 0, 79, 0
2, 57984, Note_on_c, 0, 58, 66
2, 57984, Note_on_c, 0, 68, 66
2, 57984, Note_on_c, 0, 62, 66
2, 57984, Note_on_c, 0, 77, 66
2, 57998, Note_off_c, 0, 77, 0
2, 58000, Note_on_c, 0, 79, 66
2, 58014, Note_off_c, 0, 79, 0
2, 58016, Note_on_c, 0, 77, 66
2, 58030, Note_off_c, 0, 77, 0
2, 58032, Note_on_c, 0, 79, 66
2, 58046, Note_off_c, 0, 79, 0
2, 58048, Note_on_c, 0, 77, 66
2, 58062, Note_off_c, 0, 77, 0
2, 58064, Note_on_c, 0, 79, 66
2, 58078, Note_off_c, 0, 58, 0
2, 58078, Note_off_c, 0, 68, 0
2, 58078, Note_off_c, 0, 62, 0
2, 58078, Note_off_c, 0, 79, 0
2, 58080, Note_on_c, 0, 75, 66
2, 58126, Note_off_c, 0, 75, 0
2, 58128, Note_on_c, 0, 77, 66
2, 58174, Note_off_c, 0, 77, 0
2, 58176, Note_on_c, 0, 63, 66
2, 58176, Note_on_c, 0, 67, 66
2, 58176, Note_on_c, 0, 75, 66
2, 58558, Note_off_c, 0, 63, 0
2, 58558, Note_off_c, 0, 67, 0
2, 58558, Note_off_c, 0, 75, 0
2, 59040, Note_on_c, 0, 72, 66
2, 59134, Note_off_c, 0, 72, 0
2, 59136, Note_on_c, 0, 84, 66
2, 59230, Note_off_c, 0, 84, 0
2, 59232, Note_on_c, 0, 84, 66
2, 59278, Note_off_c, 0, 84, 0
2, 59328, Note_on_c, 0, 65, 66
2, 59328, Note_on_c, 0, 60, 66
2, 59328, Note_on_c, 0, 56, 66
2, 59328, Note_on_c, 0, 83, 66
2, 59374, Note_off_c, 0, 83, 0
2, 59376, Note_on_c, 0, 84, 66
2, 59518, Note_off_c, 0, 65, 0
2, 59518, Note_off_c, 0, 60, 0
2, 59518, Note_off_c, 0, 56, 0
2, 59518, Note_off_c, 0, 84, 0
2, 59520, Note_on_c, 0, 65, 66
2, 59520, Note_on_c, 0, 60, 66
2, 59520, Note_on_c, 0, 56, 66
2, 59616, Note_on_c, 0, 82, 66
2, 59662, Note_off_c, 0, 82, 0
2, 59664, Note_on_c, 0, 80, 66
2, 59710, Note_off_c, 0, 65, 0
2, 59710, Note_off_c, 0, 60, 0
2, 59710, Note_off_c, 0, 56, 0
2, 59710, Note_off_c, 0, 80, 0
2, 59712, Note_on_c, 0, 65, 66
2, 59712, Note_on_c, 0, 60, 66
2, 59712, Note_on_c, 0, 56, 66
2, 59712, Note_on_c, 0, 79, 66
2, 59758, Note_off_c, 0, 79, 0
2, 59760, Note_on_c, 0, 77, 66
2, 59806, Note_off_c, 0, 77, 0
2, 59808, Note_on_c, 0, 80, 66
2, 59854, Note_off_c, 0, 80, 0
2, 59856, Note_on_c, 0, 77, 66
2, 59902, Note_off_c, 0, 65, 0
2, 59902, Note_off_c, 0, 60, 0
2, 59902, Note_off_c, 0, 56, 0
2, 59902, Note_off_c, 0, 77, 0
2, 59904, Note_on_c, 0, 68, 66
2, 59904, Note_on_c, 0, 65, 66
2, 59904, Note_on_c, 0, 58, 66
2, 59904, Note_on_c, 0, 75, 66
2, 59972, Note_off_c, 0, 75, 0
2, 59976, Note_on_c, 0, 74, 66
2, 59996, Note_off_c, 0, 74, 0
2, 60000, Note_on_c, 0, 77, 66
2, 60068, Note_off_c, 0, 77, 0
2, 60072, Note_on_c, 0, 75, 66
2, 60092, Note_off_c, 0, 75, 0
2, 60096, Note_on_c, 0, 79, 66
2, 60164, Note_off_c, 0, 79, 0
2, 60168, Note_on_c, 0, 77, 66
2, 60188, Note_off_c, 0, 77, 0
2, 60192, Note_on_c, 0, 80, 66
2, 60260, Note_off_c, 0, 80, 0
2, 60264, Note_on_c, 0, 79, 66
2, 60284, Note_off_c, 0, 79, 0
2, 60288, Note_on_c, 0, 82, 66
2, 60356, Note_off_c, 0, 82, 0
2, 60360, Note_on_c, 0, 80, 66
2, 60380, Note_off_c, 0, 80, 0
2, 60384, Note_on_c, 0, 77, 66
2, 60452, Note_off_c, 0, 77, 0
2, 60456, Note_on_c, 0, 74, 66
2, 60476, Note_off_c, 0, 74, 0
2, 60478, Note_off_c, 0, 68, 0
2, 60478, Note_off_c, 0, 65, 0
2, 60478, Note_off_c, 0, 58, 0
2, 60480, Note_on_c, 0, 67, 66
2, 60480, Note_on_c, 0, 63, 66
2, 60480, Note_on_c, 0, 77, 66
2, 60526, Note_off_c, 0, 77, 0
2, 60528, Note_on_c, 0, 75, 66
2, 60574, Note_off_c, 0, 75, 0
2, 60670, Note_off_c, 0, 67, 0
2, 60670, Note_off_c, 0, 63, 0
2, 61344, Note_on_c, 0, 60, 66
2, 61438, Note_off_c, 0, 60, 0
2, 61440, Note_on_c, 0, 72, 66
2, 61534, Note_off_c, 0, 72, 0
2, 61536, Note_on_c, 0, 72, 66
2, 61582, Note_off_c, 0, 72, 0
2, 61632, Note_on_c, 0, 65, 66
2, 61632, Note_on_c, 0, 60, 66
2, 61632, Note_on_c, 0, 56, 66
2, 61632, Note_on_c, 0, 72, 66
2, 61822, Note_off_c, 0, 65, 0
2, 61822, Note_off_c, 0, 60, 0
2, 61822, Note_off_c, 0, 56, 0
2, 61824, Note_on_c, 0, 65, 66
2, 61824, Note_on_c, 0, 60, 66
2, 61824, Note_on_c, 0, 56, 66
2, 61868, Note_off_c, 0, 72, 0
2, 61872, Note_on_c, 0, 74, 66
2, 61892, Note_off_c, 0, 74, 0
2, 61896, Note_on_c, 0, 76, 66
2, 61916, Note_off_c, 0, 76, 0
2, 61920, Note_on_c, 0, 77, 66
2, 61940, Note_off_c, 0, 77, 0
2, 61944, Note_on_c, 0, 79, 66
2, 61964, Note_off_c, 0, 79, 0
2, 61968, Note_on_c, 0, 80, 66
2, 61988, Note_off_c, 0, 80, 0
2, 61992, Note_on_c, 0, 82, 66
2, 62012, Note_off_c, 0, 82, 0
2, 62014, Note_off_c, 0, 65, 0
2, 62014, Note_off_c, 0, 60, 0
2, 62014, Note_off_c, 0, 56, 0
2, 62016, Note_on_c, 0, 65, 66
2, 62016, Note_on_c, 0, 60, 66
2, 62016, Note_on_c, 0, 56, 66
2, 62016, Note_on_c, 0, 83, 66
2, 62060, Note_off_c, 0, 83, 0
2, 62064, Note_on_c, 0, 84, 66
2, 62108, Note_off_c, 0, 84, 0
2, 62112, Note_on_c, 0, 82, 66
2, 62132, Note_off_c, 0, 82, 0
2, 62136, Note_on_c, 0, 80, 66
2, 62156, Note_off_c, 0, 80, 0
2, 62160, Note_on_c, 0, 79, 66
2, 62180, Note_off_c, 0, 79, 0
2, 62184, Note_on_c, 0, 77, 66
2, 62204, Note_off_c, 0, 77, 0
2, 62206, Note_off_c, 0, 65, 0
2, 62206, Note_off_c, 0, 60, 0
2, 62206, Note_off_c, 0, 56, 0
2, 62208, Note_on_c, 0, 68, 66
2, 62208, Note_on_c, 0, 65, 66
2, 62208, Note_on_c, 0, 58, 66
2, 62208, Note_on_c, 0, 75, 66
2, 62276, Note_off_c, 0, 75, 0
2, 62280, Note_on_c, 0, 74, 66
2, 62300, Note_off_c, 0, 74, 0
2, 62304, Note_on_c, 0, 77, 66
2, 62372, Note_off_c, 0, 77, 0
2, 62376, Note_on_c, 0, 76, 66
2, 62396, Note_off_c, 0, 76, 0
2, 62400, Note_on_c, 0, 79, 66
2, 62468, Note_off_c, 0, 79, 0
2, 62472, Note_on_c, 0, 77, 66
2, 62492, Note_off_c, 0, 77, 0
2, 62496, Note_on_c, 0, 80, 66
2, 62564, Note_off_c, 0, 80, 0
2, 62568, Note_on_c, 0, 79, 66
2, 62588, Note_off_c, 0, 79, 0
2, 62592, Note_on_c, 0, 82, 66
2, 62612, Note_off_c, 0, 82, 0
2, 62616, Note_on_c, 0, 80, 66
2, 62636, Note_off_c, 0, 80, 0
2, 62640, Note_on_c, 0, 79, 66
2, 62660, Note_off_c, 0, 79, 0
2, 62664, Note_on_c, 0, 80, 66
2, 62684, Note_off_c, 0, 80, 0
2, 62688, Note_on_c, 0, 79, 66
2, 62708, Note_off_c, 0, 79, 0
2, 62712, Note_on_c, 0, 77, 66
2, 62732, Note_off_c, 0, 77, 0
2, 62736, Note_on_c, 0, 75, 66
2, 62756, Note_off_c, 0, 75, 0
2, 62760, Note_on_c, 0, 74, 66
2, 62780, Note_off_c, 0, 74, 0
2, 62782, Note_off_c, 0, 68, 0
2, 62782, Note_off_c, 0, 65, 0
2, 62782, Note_off_c, 0, 58, 0
2, 62784, Note_on_c, 0, 67, 66
2, 62784, Note_on_c, 0, 63, 66
2, 62784, Note_on_c, 0, 75, 66
2, 62974, Note_off_c, 0, 67, 0
2, 62974, Note_off_c, 0, 63, 0
2, 62974, Note_off_c, 0, 75, 0
2, 63168, Note_on_c, 0, 68, 66
2, 63168, Note_on_c, 0, 58, 66
2, 63168, Note_on_c, 0, 70, 66
2, 63188, Note_off_c, 0, 70, 0
2, 63192, Note_on_c, 0, 72, 66
2, 63208, Note_off_c, 0, 72, 0
2, 63212, Note_on_c, 0, 70, 66
2, 63228, Note_off_c, 0, 70, 0
2, 63232, Note_on_c, 0, 69, 66
2, 63248, Note_off_c, 0, 69, 0
2, 63252, Note_on_c, 0, 70, 66
2, 63268, Note_off_c, 0, 70, 0
2, 63272, Note_on_c, 0, 72, 66
2, 63312, Note_off_c, 0, 72, 0
2, 63316, Note_on_c, 0, 74, 66
2, 63356, Note_off_c, 0, 74, 0
2, 63358, Note_off_c, 0, 68, 0
2, 63358, Note_off_c, 0, 58, 0
2, 63360, Note_on_c, 0, 67, 66
2, 63360, Note_on_c, 0, 63, 66
2, 63360, Note_on_c, 0, 77, 66
2, 63406, Note_off_c, 0, 77, 0
2, 63408, Note_on_c, 0, 75, 66
2, 63454, Note_off_c, 0, 75, 0
2, 63550, Note_off_c, 0, 67, 0
2, 63550, Note_off_c, 0, 63, 0
2, 63744, Note_on_c, 0, 62, 66
2, 63744, Note_on_c, 0, 58, 66
2, 63744, Note_on_c, 0, 77, 66
2, 63764, Note_off_c, 0, 77, 0
2, 63768, Note_on_c, 0, 79, 66
2, 63784, Note_off_c, 0, 79, 64
2, 63788, Note_on_c, 0, 77, 66
2, 63804, Note_off_c, 0, 77, 64
2, 63808, Note_on_c, 0, 76, 66
2, 63824, Note_off_c, 0, 76, 64
2, 63828, Note_on_c, 0, 77, 66
2, 63844, Note_off_c, 0, 77, 64
2, 63848, Note_on_c, 0, 84, 66
2, 63888, Note_off_c, 0, 84, 0
2, 63892, Note_on_c, 0, 82, 66
2, 63932, Note_off_c, 0, 82, 0
2, 63934, Note_off_c, 0, 62, 0
2, 63934, Note_off_c, 0, 58, 0
2, 63936, Note_on_c, 0, 63, 66
2, 63936, Note_on_c, 0, 80, 66
2, 63982, Note_off_c, 0, 80, 0
2, 63984, Note_on_c, 0, 79, 66
2, 64030, Note_off_c, 0, 79, 0
2, 64126, Note_off_c, 0, 63, 0
2, 64320, Note_on_c, 0, 68, 66
2, 64320, Note_on_c, 0, 58, 66
2, 64320, Note_on_c, 0, 82, 66
2, 64340, Note_off_c, 0, 82, 0
2, 64344, Note_on_c, 0, 84, 66
2, 64360, Note_off_c, 0, 84, 64
2, 64364, Note_on_c, 0, 82, 66
2, 64380, Note_off_c, 0, 82, 64
2, 64384, Note_on_c, 0, 81, 66
2, 64396, Note_on_c, 0, 82, 66
2, 64400, Note_off_c, 0, 81, 64
2, 64412, Note_off_c, 0, 82, 64
2, 64424, Note_on_c, 0, 84, 66
2, 64464, Note_off_c, 0, 84, 0
2, 64464, Note_on_c, 0, 86, 66
2, 64504, Note_off_c, 0, 86, 0
2, 64510, Note_off_c, 0, 68, 0
2, 64510, Note_off_c, 0, 58, 0
2, 64512, Note_on_c, 0, 67, 66
2, 64512, Note_on_c, 0, 63, 66
2, 64512, Note_on_c, 0, 89, 66
2, 64556, Note_off_c, 0, 89, 0
2, 64560, Note_on_c, 0, 87, 66
2, 64604, Note_off_c, 0, 87, 0
2, 64608, Note_on_c, 0, 87, 66
2, 64702, Note_off_c, 0, 67, 0
2, 64702, Note_off_c, 0, 63, 0
2, 64702, Note_off_c, 0, 87, 0
2, 64704, Note_on_c, 0, 67, 66
2, 64704, Note_on_c, 0, 63, 66
2, 64800, Note_on_c, 0, 87, 66
2, 64894, Note_off_c, 0, 67, 0
2, 64894, Note_off_c, 0, 63, 0
2, 64894, Note_off_c, 0, 87, 0
2, 64896, Note_on_c, 0, 67, 66
2, 64896, Note_on_c, 0, 63, 66
2, 64992, Note_on_c, 0, 87, 66
2, 65086, Note_off_c, 0, 67, 0
2, 65086, Note_off_c, 0, 63, 0
2, 65086, Note_off_c, 0, 87, 0
2, 65088, Note_on_c, 0, 67, 66
2, 65088, Note_on_c, 0, 63, 66
2, 65088, Note_on_c, 0, 86, 66
2, 65108, Note_off_c, 0, 86, 0
2, 65112, Note_on_c, 0, 87, 66
2, 65132, Note_off_c, 0, 87, 0
2, 65136, Note_on_c, 0, 89, 66
2, 65156, Note_off_c, 0, 89, 0
2, 65160, Note_on_c, 0, 87, 66
2, 65278, Note_off_c, 0, 67, 0
2, 65278, Note_off_c, 0, 63, 0
2, 65350, Note_off_c, 0, 87, 0
2, 65350, End_track
3, 0, Start_track
3, 0, Title_t, "Concerto  #15"
3, 0, Control_c, 1, 0, 0
3, 0, Program_c, 1, 0
3, 0, Control_c, 1, 7, 127
3, 0, Control_c, 1, 10, 67
3, 0, Control_c, 1, 91, 66
3, 0, Control_c, 1, 93, 51
3, 0, Key_signature, -3, "minor"
3, 0, Control_c, 1, 121, 0
3, 48, Control_c, 1, 10, 63
3, 96, Control_c, 1, 91, 63
3, 120, Control_c, 1, 93, 35
3, 144, Program_c, 1, 0
3, 576, Note_on_c, 1, 39, 66
3, 956, Note_off_c, 1, 39, 64
3, 960, Note_on_c, 1, 46, 66
3, 1148, Note_off_c, 1, 46, 64
3, 1152, Note_on_c, 1, 48, 66
3, 1340, Note_off_c, 1, 48, 64
3, 1344, Note_on_c, 1, 44, 66
3, 1532, Note_off_c, 1, 44, 64
3, 1728, Note_on_c, 1, 50, 66
3, 1916, Note_off_c, 1, 50, 64
3, 1920, Note_on_c, 1, 51, 66
3, 2108, Note_off_c, 1, 51, 64
3, 2112, Note_on_c, 1, 44, 66
3, 2300, Note_off_c, 1, 44, 64
3, 2304, Note_on_c, 1, 46, 66
3, 2684, Note_off_c, 1, 46, 64
3, 2880, Note_on_c, 1, 51, 66
3, 3260, Note_off_c, 1, 51, 64
3, 3264, Note_on_c, 1, 52, 66
3, 3452, Note_off_c, 1, 52, 64
3, 3456, Note_on_c, 1, 53, 66
3, 3644, Note_off_c, 1, 53, 64
3, 3648, Note_on_c, 1, 54, 66
3, 3836, Note_off_c, 1, 54, 64
3, 3840, Note_on_c, 1, 55, 66
3, 4028, Note_off_c, 1, 55, 64
3, 4032, Note_on_c, 1, 53, 66
3, 4412, Note_off_c, 1, 53, 64
3, 4416, Note_on_c, 1, 41, 66
3, 4604, Note_off_c, 1, 41, 64
3, 4608, Note_on_c, 1, 46, 66
3, 4796, Note_off_c, 1, 46, 64
3, 4800, Note_on_c, 1, 46, 66
3, 4894, Note_off_c, 1, 46, 64
3, 5184, Note_on_c, 1, 55, 66
3, 5184, Note_on_c, 1, 51, 66
3, 5374, Note_off_c, 1, 55, 0
3, 5376, Note_on_c, 1, 58, 66
3, 5566, Note_off_c, 1, 51, 0
3, 5566, Note_off_c, 1, 58, 0
3, 5568, Note_on_c, 1, 56, 66
3, 5568, Note_on_c, 1, 46, 66
3, 5758, Note_off_c, 1, 56, 0
3, 5758, Note_off_c, 1, 46, 0
3, 5760, Note_on_c, 1, 55, 66
3, 5760, Note_on_c, 1, 48, 66
3, 5950, Note_off_c, 1, 55, 0
3, 5950, Note_off_c, 1, 48, 0
3, 5952, Note_on_c, 1, 56, 66
3, 5952, Note_on_c, 1, 44, 66
3, 6142, Note_off_c, 1, 56, 0
3, 6142, Note_off_c, 1, 44, 0
3, 6336, Note_on_c, 1, 50, 66
3, 6336, Note_on_c, 1, 58, 66
3, 6526, Note_off_c, 1, 50, 0
3, 6528, Note_on_c, 1, 51, 66
3, 6718, Note_off_c, 1, 58, 0
3, 6718, Note_off_c, 1, 51, 0
3, 6720, Note_on_c, 1, 44, 66
3, 6720, Note_on_c, 1, 56, 66
3, 6910, Note_off_c, 1, 44, 0
3, 6910, Note_off_c, 1, 56, 0
3, 6912, Note_on_c, 1, 46, 66
3, 6912, Note_on_c, 1, 55, 66
3, 7102, Note_off_c, 1, 55, 0
3, 7104, Note_on_c, 1, 53, 66
3, 7294, Note_off_c, 1, 46, 0
3, 7294, Note_off_c, 1, 53, 0
3, 7488, Note_on_c, 1, 58, 66
3, 7488, Note_on_c, 1, 55, 66
3, 7488, Note_on_c, 1, 51, 66
3, 7870, Note_off_c, 1, 51, 0
3, 7872, Note_on_c, 1, 52, 66
3, 8062, Note_off_c, 1, 58, 0
3, 8062, Note_off_c, 1, 55, 0
3, 8062, Note_off_c, 1, 52, 0
3, 8064, Note_on_c, 1, 53, 66
3, 8064, Note_on_c, 1, 56, 66
3, 8254, Note_off_c, 1, 53, 0
3, 8254, Note_off_c, 1, 56, 0
3, 8256, Note_on_c, 1, 54, 66
3, 8256, Note_on_c, 1, 63, 66
3, 8446, Note_off_c, 1, 54, 0
3, 8446, Note_off_c, 1, 63, 0
3, 8448, Note_on_c, 1, 55, 66
3, 8448, Note_on_c, 1, 62, 66
3, 8638, Note_off_c, 1, 55, 0
3, 8638, Note_off_c, 1, 62, 0
3, 8640, Note_on_c, 1, 53, 66
3, 8928, Note_off_c, 1, 53, 0
3, 9024, Note_on_c, 1, 51, 66
3, 9024, Note_on_c, 1, 41, 66
3, 9214, Note_off_c, 1, 51, 0
3, 9214, Note_off_c, 1, 41, 0
3, 9216, Note_on_c, 1, 50, 66
3, 9232, Note_on_c, 1, 46, 66
3, 9406, Note_off_c, 1, 50, 0
3, 9408, Note_on_c, 1, 50, 66
3, 9408, Note_on_c, 1, 46, 66
3, 9422, Note_off_c, 1, 46, 0
3, 9598, Note_off_c, 1, 50, 0
3, 9598, Note_off_c, 1, 46, 0
3, 9984, Note_on_c, 1, 60, 66
3, 10172, Note_off_c, 1, 60, 64
3, 10176, Note_on_c, 1, 58, 66
3, 10364, Note_off_c, 1, 58, 64
3, 10368, Note_on_c, 1, 57, 66
3, 10556, Note_off_c, 1, 57, 64
3, 10560, Note_on_c, 1, 56, 66
3, 10940, Note_off_c, 1, 56, 64
3, 10944, Note_on_c, 1, 55, 66
3, 11132, Note_off_c, 1, 55, 64
3, 11136, Note_on_c, 1, 50, 66
3, 11324, Note_off_c, 1, 50, 64
3, 11328, Note_on_c, 1, 48, 66
3, 11516, Note_off_c, 1, 48, 64
3, 11520, Note_on_c, 1, 46, 66
3, 11900, Note_off_c, 1, 46, 64
3, 11904, Note_on_c, 1, 60, 66
3, 12092, Note_off_c, 1, 60, 64
3, 12096, Note_on_c, 1, 58, 66
3, 12476, Note_off_c, 1, 58, 64
3, 12480, Note_on_c, 1, 56, 66
3, 12668, Note_off_c, 1, 56, 64
3, 12672, Note_on_c, 1, 55, 66
3, 12860, Note_off_c, 1, 55, 64
3, 12864, Note_on_c, 1, 50, 66
3, 13148, Note_off_c, 1, 50, 64
3, 13152, Note_on_c, 1, 51, 66
3, 13244, Note_off_c, 1, 51, 64
3, 13248, Note_on_c, 1, 44, 66
3, 13436, Note_off_c, 1, 44, 64
3, 13440, Note_on_c, 1, 50, 66
3, 13628, Note_off_c, 1, 50, 64
3, 13632, Note_on_c, 1, 50, 66
3, 13820, Note_off_c, 1, 50, 64
3, 13824, Note_on_c, 1, 39, 66
3, 14012, Note_off_c, 1, 39, 64
3, 14016, Note_on_c, 1, 51, 66
3, 14204, Note_off_c, 1, 51, 64
3, 14592, Note_on_c, 1, 60, 66
3, 14592, Note_on_c, 1, 48, 66
3, 14782, Note_off_c, 1, 60, 0
3, 14782, Note_off_c, 1, 48, 0
3, 14784, Note_on_c, 1, 58, 66
3, 14784, Note_on_c, 1, 46, 66
3, 14974, Note_off_c, 1, 58, 0
3, 14974, Note_off_c, 1, 46, 0
3, 14976, Note_on_c, 1, 57, 66
3, 15166, Note_off_c, 1, 57, 0
3, 15168, Note_on_c, 1, 56, 66
3, 15168, Note_on_c, 1, 58, 66
3, 15550, Note_off_c, 1, 56, 0
3, 15550, Note_off_c, 1, 58, 0
3, 15552, Note_on_c, 1, 55, 66
3, 15552, Note_on_c, 1, 58, 66
3, 15742, Note_off_c, 1, 55, 0
3, 15742, Note_off_c, 1, 58, 0
3, 15744, Note_on_c, 1, 53, 66
3, 15744, Note_on_c, 1, 56, 66
3, 15934, Note_off_c, 1, 53, 0
3, 15934, Note_off_c, 1, 56, 0
3, 15936, Note_on_c, 1, 55, 66
3, 15936, Note_on_c, 1, 51, 66
3, 16126, Note_off_c, 1, 55, 0
3, 16126, Note_off_c, 1, 51, 0
3, 16128, Note_on_c, 1, 58, 66
3, 16128, Note_on_c, 1, 46, 66
3, 16416, Note_off_c, 1, 58, 0
3, 16510, Note_off_c, 1, 46, 0
3, 17088, Note_on_c, 1, 56, 66
3, 17088, Note_on_c, 1, 62, 66
3, 17278, Note_off_c, 1, 56, 0
3, 17278, Note_off_c, 1, 62, 0
3, 17280, Note_on_c, 1, 55, 66
3, 17280, Note_on_c, 1, 63, 66
3, 17456, Note_on_c, 1, 58, 66
3, 17470, Note_off_c, 1, 55, 0
3, 17470, Note_off_c, 1, 63, 0
3, 17472, Note_on_c, 1, 50, 66
3, 17744, Note_off_c, 1, 58, 0
3, 17760, Note_off_c, 1, 50, 0
3, 17760, Note_on_c, 1, 51, 66
3, 17856, Note_off_c, 1, 51, 0
3, 17856, Note_on_c, 1, 44, 66
3, 18046, Note_off_c, 1, 44, 0
3, 18048, Note_on_c, 1, 55, 66
3, 18048, Note_on_c, 1, 46, 66
3, 18238, Note_off_c, 1, 55, 0
3, 18240, Note_on_c, 1, 56, 66
3, 18430, Note_off_c, 1, 46, 0
3, 18430, Note_off_c, 1, 56, 0
3, 18432, Note_on_c, 1, 55, 66
3, 18432, Note_on_c, 1, 51, 66
3, 18622, Note_off_c, 1, 55, 0
3, 18622, Note_off_c, 1, 51, 0
3, 18624, Note_on_c, 1, 39, 66
3, 18814, Note_off_c, 1, 39, 0
3, 19008, Note_on_c, 1, 39, 66
3, 19388, Note_off_c, 1, 39, 0
3, 19392, Note_on_c, 1, 46, 66
3, 19580, Note_off_c, 1, 46, 0
3, 19584, Note_on_c, 1, 48, 66
3, 19772, Note_off_c, 1, 48, 0
3, 19776, Note_on_c, 1, 44, 66
3, 19964, Note_off_c, 1, 44, 0
3, 20160, Note_on_c, 1, 50, 66
3, 20348, Note_off_c, 1, 50, 0
3, 20352, Note_on_c, 1, 51, 66
3, 20540, Note_off_c, 1, 51, 0
3, 20544, Note_on_c, 1, 45, 66
3, 20732, Note_off_c, 1, 45, 0
3, 20736, Note_on_c, 1, 46, 66
3, 21116, Note_off_c, 1, 46, 0
3, 21312, Note_on_c, 1, 51, 66
3, 21692, Note_off_c, 1, 51, 0
3, 21696, Note_on_c, 1, 52, 66
3, 21884, Note_off_c, 1, 52, 0
3, 21888, Note_on_c, 1, 53, 66
3, 22076, Note_off_c, 1, 53, 0
3, 22080, Note_on_c, 1, 54, 66
3, 22268, Note_off_c, 1, 54, 0
3, 22288, Note_on_c, 1, 55, 66
3, 22464, Note_on_c, 1, 53, 66
3, 22476, Note_off_c, 1, 55, 0
3, 22844, Note_off_c, 1, 53, 0
3, 22848, Note_on_c, 1, 41, 66
3, 23036, Note_off_c, 1, 41, 0
3, 23040, Note_on_c, 1, 46, 66
3, 23228, Note_off_c, 1, 46, 0
3, 23472, Note_on_c, 1, 56, 66
3, 23516, Note_off_c, 1, 56, 0
3, 23520, Note_on_c, 1, 55, 66
3, 23564, Note_off_c, 1, 55, 0
3, 23568, Note_on_c, 1, 53, 66
3, 23612, Note_off_c, 1, 53, 0
3, 23616, Note_on_c, 1, 51, 66
3, 23660, Note_off_c, 1, 51, 0
3, 23664, Note_on_c, 1, 39, 66
3, 23708, Note_off_c, 1, 39, 0
3, 23712, Note_on_c, 1, 43, 66
3, 23756, Note_off_c, 1, 43, 0
3, 23760, Note_on_c, 1, 46, 66
3, 23804, Note_off_c, 1, 46, 0
3, 23808, Note_on_c, 1, 51, 66
3, 23852, Note_off_c, 1, 51, 0
3, 23856, Note_on_c, 1, 55, 66
3, 23900, Note_off_c, 1, 55, 0
3, 23904, Note_on_c, 1, 58, 66
3, 23948, Note_off_c, 1, 58, 0
3, 23952, Note_on_c, 1, 55, 66
3, 23996, Note_off_c, 1, 55, 0
3, 24000, Note_on_c, 1, 56, 66
3, 24044, Note_off_c, 1, 56, 0
3, 24048, Note_on_c, 1, 53, 66
3, 24092, Note_off_c, 1, 53, 0
3, 24096, Note_on_c, 1, 50, 66
3, 24140, Note_off_c, 1, 50, 0
3, 24144, Note_on_c, 1, 46, 66
3, 24188, Note_off_c, 1, 46, 0
3, 24240, Note_on_c, 1, 48, 66
3, 24284, Note_off_c, 1, 48, 0
3, 24288, Note_on_c, 1, 51, 66
3, 24332, Note_off_c, 1, 51, 0
3, 24336, Note_on_c, 1, 48, 66
3, 24380, Note_off_c, 1, 48, 0
3, 24384, Note_on_c, 1, 44, 66
3, 24428, Note_off_c, 1, 44, 0
3, 24432, Note_on_c, 1, 48, 66
3, 24476, Note_off_c, 1, 48, 0
3, 24480, Note_on_c, 1, 51, 66
3, 24524, Note_off_c, 1, 51, 0
3, 24528, Note_on_c, 1, 55, 66
3, 24572, Note_off_c, 1, 55, 0
3, 24816, Note_on_c, 1, 58, 66
3, 24860, Note_off_c, 1, 58, 0
3, 24864, Note_on_c, 1, 53, 66
3, 24908, Note_off_c, 1, 53, 0
3, 24912, Note_on_c, 1, 50, 66
3, 24956, Note_off_c, 1, 50, 0
3, 24960, Note_on_c, 1, 51, 66
3, 25004, Note_off_c, 1, 51, 0
3, 25008, Note_on_c, 1, 46, 66
3, 25052, Note_off_c, 1, 46, 0
3, 25056, Note_on_c, 1, 43, 66
3, 25100, Note_off_c, 1, 43, 0
3, 25104, Note_on_c, 1, 39, 66
3, 25148, Note_off_c, 1, 39, 0
3, 25152, Note_on_c, 1, 44, 66
3, 25196, Note_off_c, 1, 44, 0
3, 25200, Note_on_c, 1, 41, 66
3, 25244, Note_off_c, 1, 41, 0
3, 25248, Note_on_c, 1, 43, 66
3, 25292, Note_off_c, 1, 43, 0
3, 25296, Note_on_c, 1, 44, 66
3, 25344, Note_on_c, 1, 46, 66
3, 25346, Note_off_c, 1, 44, 0
3, 25388, Note_off_c, 1, 46, 0
3, 25392, Note_on_c, 1, 34, 66
3, 25436, Note_off_c, 1, 34, 0
3, 25440, Note_on_c, 1, 39, 66
3, 25484, Note_off_c, 1, 39, 0
3, 25488, Note_on_c, 1, 43, 66
3, 25532, Note_off_c, 1, 43, 0
3, 25536, Note_on_c, 1, 45, 66
3, 25580, Note_off_c, 1, 45, 0
3, 25584, Note_on_c, 1, 46, 66
3, 25628, Note_off_c, 1, 46, 0
3, 25632, Note_on_c, 1, 50, 66
3, 25676, Note_off_c, 1, 50, 0
3, 25680, Note_on_c, 1, 53, 66
3, 25724, Note_off_c, 1, 53, 0
3, 26160, Note_on_c, 1, 58, 66
3, 26204, Note_off_c, 1, 58, 0
3, 26208, Note_on_c, 1, 55, 66
3, 26252, Note_off_c, 1, 55, 0
3, 26256, Note_on_c, 1, 51, 66
3, 26300, Note_off_c, 1, 51, 0
3, 26304, Note_on_c, 1, 46, 66
3, 26348, Note_off_c, 1, 46, 0
3, 26352, Note_on_c, 1, 43, 66
3, 26396, Note_off_c, 1, 43, 0
3, 26400, Note_on_c, 1, 40, 66
3, 26444, Note_off_c, 1, 40, 0
3, 26448, Note_on_c, 1, 43, 66
3, 26492, Note_off_c, 1, 43, 0
3, 26496, Note_on_c, 1, 41, 66
3, 26540, Note_off_c, 1, 41, 0
3, 26544, Note_on_c, 1, 45, 66
3, 26588, Note_off_c, 1, 45, 0
3, 26592, Note_on_c, 1, 48, 66
3, 26636, Note_off_c, 1, 48, 0
3, 26640, Note_on_c, 1, 53, 66
3, 26684, Note_off_c, 1, 53, 0
3, 26688, Note_on_c, 1, 54, 66
3, 26732, Note_off_c, 1, 54, 0
3, 26736, Note_on_c, 1, 57, 66
3, 26780, Note_off_c, 1, 57, 0
3, 26784, Note_on_c, 1, 60, 66
3, 26828, Note_off_c, 1, 60, 0
3, 26832, Note_on_c, 1, 63, 66
3, 26876, Note_off_c, 1, 63, 0
3, 26880, Note_on_c, 1, 55, 66
3, 26924, Note_off_c, 1, 55, 0
3, 26928, Note_on_c, 1, 58, 66
3, 26972, Note_off_c, 1, 58, 0
3, 26976, Note_on_c, 1, 61, 66
3, 27020, Note_off_c, 1, 61, 0
3, 27024, Note_on_c, 1, 63, 66
3, 27068, Note_off_c, 1, 63, 0
3, 27120, Note_on_c, 1, 65, 66
3, 27164, Note_off_c, 1, 65, 0
3, 27168, Note_on_c, 1, 62, 66
3, 27212, Note_off_c, 1, 62, 0
3, 27216, Note_on_c, 1, 58, 66
3, 27260, Note_off_c, 1, 58, 0
3, 27264, Note_on_c, 1, 57, 66
3, 27308, Note_off_c, 1, 57, 0
3, 27312, Note_on_c, 1, 60, 66
3, 27356, Note_off_c, 1, 60, 0
3, 27360, Note_on_c, 1, 57, 66
3, 27404, Note_off_c, 1, 57, 0
3, 27408, Note_on_c, 1, 53, 66
3, 27452, Note_off_c, 1, 53, 0
3, 27456, Note_on_c, 1, 51, 66
3, 27500, Note_off_c, 1, 51, 0
3, 27504, Note_on_c, 1, 48, 66
3, 27548, Note_off_c, 1, 48, 0
3, 27552, Note_on_c, 1, 45, 66
3, 27596, Note_off_c, 1, 45, 0
3, 27600, Note_on_c, 1, 41, 66
3, 27644, Note_off_c, 1, 41, 0
3, 27696, Note_on_c, 1, 46, 66
3, 27740, Note_off_c, 1, 46, 0
3, 27744, Note_on_c, 1, 50, 66
3, 27788, Note_off_c, 1, 50, 0
3, 27792, Note_on_c, 1, 53, 66
3, 27836, Note_off_c, 1, 53, 0
3, 27840, Note_on_c, 1, 58, 66
3, 27884, Note_off_c, 1, 58, 0
3, 27888, Note_on_c, 1, 62, 66
3, 27932, Note_off_c, 1, 62, 0
3, 27936, Note_on_c, 1, 65, 66
3, 27980, Note_off_c, 1, 65, 0
3, 27984, Note_on_c, 1, 62, 66
3, 28028, Note_off_c, 1, 62, 0
3, 28032, Note_on_c, 1, 58, 66
3, 28076, Note_off_c, 1, 58, 0
3, 28080, Note_on_c, 1, 53, 66
3, 28124, Note_off_c, 1, 53, 0
3, 28128, Note_on_c, 1, 50, 66
3, 28172, Note_off_c, 1, 50, 0
3, 28176, Note_on_c, 1, 53, 66
3, 28220, Note_off_c, 1, 53, 0
3, 28224, Note_on_c, 1, 46, 66
3, 28412, Note_off_c, 1, 46, 0
3, 28416, Note_on_c, 1, 48, 66
3, 28604, Note_off_c, 1, 48, 0
3, 28608, Note_on_c, 1, 46, 66
3, 28796, Note_off_c, 1, 46, 0
3, 28800, Note_on_c, 1, 45, 66
3, 28988, Note_off_c, 1, 45, 0
3, 28992, Note_on_c, 1, 44, 66
3, 29372, Note_off_c, 1, 44, 0
3, 29376, Note_on_c, 1, 43, 66
3, 29564, Note_off_c, 1, 43, 0
3, 29568, Note_on_c, 1, 41, 66
3, 29756, Note_off_c, 1, 41, 0
3, 29760, Note_on_c, 1, 39, 66
3, 29948, Note_off_c, 1, 39, 0
3, 29952, Note_on_c, 1, 46, 66
3, 30332, Note_off_c, 1, 46, 0
3, 30336, Note_on_c, 1, 60, 66
3, 30524, Note_off_c, 1, 60, 0
3, 30528, Note_on_c, 1, 58, 66
3, 30908, Note_off_c, 1, 58, 0
3, 30912, Note_on_c, 1, 56, 66
3, 31100, Note_off_c, 1, 56, 0
3, 31104, Note_on_c, 1, 55, 66
3, 31292, Note_off_c, 1, 55, 0
3, 31296, Note_on_c, 1, 50, 66
3, 31580, Note_off_c, 1, 50, 0
3, 31584, Note_on_c, 1, 51, 66
3, 31676, Note_off_c, 1, 51, 0
3, 31680, Note_on_c, 1, 56, 66
3, 31868, Note_off_c, 1, 56, 0
3, 31872, Note_on_c, 1, 58, 66
3, 32060, Note_off_c, 1, 58, 0
3, 32064, Note_on_c, 1, 46, 66
3, 32252, Note_off_c, 1, 46, 0
3, 32256, Note_on_c, 1, 51, 66
3, 32444, Note_off_c, 1, 51, 0
3, 32688, Note_on_c, 1, 51, 66
3, 32732, Note_off_c, 1, 51, 0
3, 32736, Note_on_c, 1, 49, 66
3, 32780, Note_off_c, 1, 49, 0
3, 32784, Note_on_c, 1, 48, 66
3, 32828, Note_off_c, 1, 48, 0
3, 32832, Note_on_c, 1, 46, 66
3, 32876, Note_off_c, 1, 46, 0
3, 32880, Note_on_c, 1, 49, 66
3, 32924, Note_off_c, 1, 49, 0
3, 32928, Note_on_c, 1, 54, 66
3, 32972, Note_off_c, 1, 54, 0
3, 32976, Note_on_c, 1, 58, 66
3, 33020, Note_off_c, 1, 58, 0
3, 33024, Note_on_c, 1, 48, 66
3, 33068, Note_off_c, 1, 48, 0
3, 33072, Note_on_c, 1, 53, 66
3, 33116, Note_off_c, 1, 53, 0
3, 33120, Note_on_c, 1, 56, 66
3, 33164, Note_off_c, 1, 56, 0
3, 33168, Note_on_c, 1, 60, 66
3, 33212, Note_off_c, 1, 60, 0
3, 33216, Note_on_c, 1, 46, 66
3, 33260, Note_off_c, 1, 46, 0
3, 33264, Note_on_c, 1, 52, 66
3, 33308, Note_off_c, 1, 52, 0
3, 33312, Note_on_c, 1, 55, 66
3, 33356, Note_off_c, 1, 55, 0
3, 33360, Note_on_c, 1, 58, 66
3, 33404, Note_off_c, 1, 58, 0
3, 33408, Note_on_c, 1, 45, 66
3, 33452, Note_off_c, 1, 45, 0
3, 33456, Note_on_c, 1, 48, 66
3, 33500, Note_off_c, 1, 48, 0
3, 33504, Note_on_c, 1, 53, 66
3, 33548, Note_off_c, 1, 53, 0
3, 33552, Note_on_c, 1, 57, 66
3, 33596, Note_off_c, 1, 57, 0
3, 33600, Note_on_c, 1, 56, 66
3, 33644, Note_off_c, 1, 56, 0
3, 33648, Note_on_c, 1, 55, 66
3, 33692, Note_off_c, 1, 55, 0
3, 33696, Note_on_c, 1, 53, 66
3, 33740, Note_off_c, 1, 53, 0
3, 33744, Note_on_c, 1, 51, 66
3, 33788, Note_off_c, 1, 51, 0
3, 33792, Note_on_c, 1, 50, 66
3, 33836, Note_off_c, 1, 50, 0
3, 33840, Note_on_c, 1, 48, 66
3, 33884, Note_off_c, 1, 48, 0
3, 33888, Note_on_c, 1, 46, 66
3, 33932, Note_off_c, 1, 46, 0
3, 33936, Note_on_c, 1, 44, 66
3, 33980, Note_off_c, 1, 44, 0
3, 33984, Note_on_c, 1, 43, 66
3, 34028, Note_off_c, 1, 43, 0
3, 34032, Note_on_c, 1, 46, 66
3, 34076, Note_off_c, 1, 46, 0
3, 34080, Note_on_c, 1, 51, 66
3, 34124, Note_off_c, 1, 51, 0
3, 34128, Note_on_c, 1, 55, 66
3, 34172, Note_off_c, 1, 55, 0
3, 34176, Note_on_c, 1, 41, 66
3, 34220, Note_off_c, 1, 41, 0
3, 34224, Note_on_c, 1, 44, 66
3, 34268, Note_off_c, 1, 44, 0
3, 34272, Note_on_c, 1, 50, 66
3, 34316, Note_off_c, 1, 50, 0
3, 34320, Note_on_c, 1, 53, 66
3, 34364, Note_off_c, 1, 53, 0
3, 34368, Note_on_c, 1, 39, 66
3, 34412, Note_off_c, 1, 39, 0
3, 34416, Note_on_c, 1, 43, 66
3, 34460, Note_off_c, 1, 43, 0
3, 34464, Note_on_c, 1, 46, 66
3, 34508, Note_off_c, 1, 46, 0
3, 34512, Note_on_c, 1, 51, 66
3, 34556, Note_off_c, 1, 51, 0
3, 34560, Note_on_c, 1, 46, 66
3, 34604, Note_off_c, 1, 46, 0
3, 34608, Note_on_c, 1, 51, 66
3, 34652, Note_off_c, 1, 51, 0
3, 34656, Note_on_c, 1, 55, 66
3, 34700, Note_off_c, 1, 55, 0
3, 34704, Note_on_c, 1, 57, 66
3, 34748, Note_off_c, 1, 57, 0
3, 34752, Note_on_c, 1, 58, 66
3, 34796, Note_off_c, 1, 58, 0
3, 34800, Note_on_c, 1, 53, 66
3, 34844, Note_off_c, 1, 53, 0
3, 34848, Note_on_c, 1, 50, 66
3, 34892, Note_off_c, 1, 50, 0
3, 34896, Note_on_c, 1, 46, 66
3, 34940, Note_off_c, 1, 46, 0
3, 34944, Note_on_c, 1, 48, 66
3, 34988, Note_off_c, 1, 48, 0
3, 34992, Note_on_c, 1, 53, 66
3, 35036, Note_off_c, 1, 53, 0
3, 35040, Note_on_c, 1, 56, 66
3, 35084, Note_off_c, 1, 56, 0
3, 35088, Note_on_c, 1, 60, 66
3, 35132, Note_off_c, 1, 60, 0
3, 35136, Note_on_c, 1, 58, 66
3, 35180, Note_off_c, 1, 58, 0
3, 35184, Note_on_c, 1, 57, 66
3, 35228, Note_off_c, 1, 57, 0
3, 35232, Note_on_c, 1, 58, 66
3, 35276, Note_off_c, 1, 58, 0
3, 35280, Note_on_c, 1, 53, 66
3, 35324, Note_off_c, 1, 53, 0
3, 35328, Note_on_c, 1, 51, 66
3, 35372, Note_off_c, 1, 51, 0
3, 35376, Note_on_c, 1, 50, 66
3, 35420, Note_off_c, 1, 50, 0
3, 35424, Note_on_c, 1, 48, 66
3, 35468, Note_off_c, 1, 48, 0
3, 35472, Note_on_c, 1, 46, 66
3, 35516, Note_off_c, 1, 46, 0
3, 35520, Note_on_c, 1, 44, 66
3, 35564, Note_off_c, 1, 44, 0
3, 35568, Note_on_c, 1, 50, 66
3, 35612, Note_off_c, 1, 50, 0
3, 35616, Note_on_c, 1, 53, 66
3, 35660, Note_off_c, 1, 53, 0
3, 35664, Note_on_c, 1, 56, 66
3, 35708, Note_off_c, 1, 56, 0
3, 35712, Note_on_c, 1, 43, 66
3, 35756, Note_off_c, 1, 43, 0
3, 35760, Note_on_c, 1, 46, 66
3, 35804, Note_off_c, 1, 46, 0
3, 35808, Note_on_c, 1, 51, 66
3, 35852, Note_off_c, 1, 51, 0
3, 35856, Note_on_c, 1, 55, 66
3, 35900, Note_off_c, 1, 55, 0
3, 35904, Note_on_c, 1, 39, 66
3, 35948, Note_off_c, 1, 39, 0
3, 35952, Note_on_c, 1, 41, 66
3, 35996, Note_off_c, 1, 41, 0
3, 36000, Note_on_c, 1, 46, 66
3, 36044, Note_off_c, 1, 46, 0
3, 36048, Note_on_c, 1, 50, 66
3, 36092, Note_off_c, 1, 50, 0
3, 36096, Note_on_c, 1, 39, 66
3, 36140, Note_off_c, 1, 39, 0
3, 36144, Note_on_c, 1, 43, 66
3, 36188, Note_off_c, 1, 43, 0
3, 36192, Note_on_c, 1, 46, 66
3, 36236, Note_off_c, 1, 46, 0
3, 36240, Note_on_c, 1, 51, 66
3, 36284, Note_off_c, 1, 51, 0
3, 36288, Note_on_c, 1, 44, 66
3, 36332, Note_off_c, 1, 44, 0
3, 36336, Note_on_c, 1, 48, 66
3, 36380, Note_off_c, 1, 48, 0
3, 36384, Note_on_c, 1, 53, 66
3, 36428, Note_off_c, 1, 53, 0
3, 36432, Note_on_c, 1, 56, 66
3, 36476, Note_off_c, 1, 56, 0
3, 36480, Note_on_c, 1, 46, 66
3, 36524, Note_off_c, 1, 46, 0
3, 36528, Note_on_c, 1, 51, 66
3, 36572, Note_off_c, 1, 51, 0
3, 36576, Note_on_c, 1, 55, 66
3, 36620, Note_off_c, 1, 55, 0
3, 36624, Note_on_c, 1, 58, 66
3, 36668, Note_off_c, 1, 58, 0
3, 36672, Note_on_c, 1, 46, 66
3, 36716, Note_off_c, 1, 46, 0
3, 36720, Note_on_c, 1, 53, 66
3, 36764, Note_off_c, 1, 53, 0
3, 36768, Note_on_c, 1, 56, 66
3, 36812, Note_off_c, 1, 56, 0
3, 36816, Note_on_c, 1, 58, 66
3, 36860, Note_off_c, 1, 58, 0
3, 36864, Note_on_c, 1, 55, 66
3, 36908, Note_off_c, 1, 55, 0
3, 36912, Note_on_c, 1, 58, 66
3, 36956, Note_off_c, 1, 58, 0
3, 36960, Note_on_c, 1, 55, 66
3, 37004, Note_off_c, 1, 55, 0
3, 37008, Note_on_c, 1, 51, 66
3, 37052, Note_off_c, 1, 51, 0
3, 37056, Note_on_c, 1, 46, 66
3, 37100, Note_off_c, 1, 46, 0
3, 37104, Note_on_c, 1, 51, 66
3, 37148, Note_off_c, 1, 51, 0
3, 37152, Note_on_c, 1, 46, 66
3, 37196, Note_off_c, 1, 46, 0
3, 37200, Note_on_c, 1, 43, 66
3, 37244, Note_off_c, 1, 43, 0
3, 37248, Note_on_c, 1, 39, 66
3, 37436, Note_off_c, 1, 39, 0
3, 37440, Note_on_c, 1, 55, 66
3, 37440, Note_on_c, 1, 51, 66
3, 37628, Note_off_c, 1, 55, 0
3, 37632, Note_on_c, 1, 58, 66
3, 37820, Note_off_c, 1, 51, 0
3, 37820, Note_off_c, 1, 58, 0
3, 37824, Note_on_c, 1, 56, 66
3, 37824, Note_on_c, 1, 46, 66
3, 38012, Note_off_c, 1, 56, 0
3, 38012, Note_off_c, 1, 46, 0
3, 38016, Note_on_c, 1, 55, 66
3, 38016, Note_on_c, 1, 48, 66
3, 38204, Note_off_c, 1, 55, 0
3, 38204, Note_off_c, 1, 48, 0
3, 38208, Note_on_c, 1, 56, 66
3, 38208, Note_on_c, 1, 44, 66
3, 38396, Note_off_c, 1, 56, 0
3, 38396, Note_off_c, 1, 44, 0
3, 38592, Note_on_c, 1, 50, 66
3, 38592, Note_on_c, 1, 58, 66
3, 38780, Note_off_c, 1, 50, 0
3, 38784, Note_on_c, 1, 51, 66
3, 38972, Note_off_c, 1, 58, 0
3, 38972, Note_off_c, 1, 51, 0
3, 38976, Note_on_c, 1, 56, 66
3, 38976, Note_on_c, 1, 44, 66
3, 39164, Note_off_c, 1, 56, 0
3, 39164, Note_off_c, 1, 44, 0
3, 39168, Note_on_c, 1, 55, 66
3, 39168, Note_on_c, 1, 46, 66
3, 39260, Note_off_c, 1, 55, 0
3, 39264, Note_on_c, 1, 56, 66
3, 39356, Note_off_c, 1, 56, 0
3, 39360, Note_on_c, 1, 57, 66
3, 39452, Note_off_c, 1, 57, 0
3, 39548, Note_off_c, 1, 46, 0
3, 39552, Note_on_c, 1, 46, 66
3, 39644, Note_off_c, 1, 46, 0
3, 41088, Note_on_c, 1, 53, 66
3, 41276, Note_off_c, 1, 53, 0
3, 41280, Note_on_c, 1, 53, 66
3, 41468, Note_off_c, 1, 53, 0
3, 41472, Note_on_c, 1, 58, 66
3, 41660, Note_off_c, 1, 58, 0
3, 41664, Note_on_c, 1, 46, 66
3, 41852, Note_off_c, 1, 46, 0
3, 42048, Note_on_c, 1, 51, 66
3, 42236, Note_off_c, 1, 51, 0
3, 42240, Note_on_c, 1, 63, 66
3, 42428, Note_off_c, 1, 63, 0
3, 42432, Note_on_c, 1, 58, 66
3, 42620, Note_off_c, 1, 58, 0
3, 42624, Note_on_c, 1, 60, 66
3, 42812, Note_off_c, 1, 60, 0
3, 42816, Note_on_c, 1, 56, 66
3, 43004, Note_off_c, 1, 56, 0
3, 43200, Note_on_c, 1, 50, 66
3, 43388, Note_off_c, 1, 50, 0
3, 43392, Note_on_c, 1, 51, 66
3, 43580, Note_off_c, 1, 51, 0
3, 43584, Note_on_c, 1, 44, 66
3, 43772, Note_off_c, 1, 44, 0
3, 43776, Note_on_c, 1, 58, 66
3, 43964, Note_off_c, 1, 58, 0
3, 43968, Note_on_c, 1, 46, 66
3, 44156, Note_off_c, 1, 46, 0
3, 44352, Note_on_c, 1, 51, 66
3, 44732, Note_off_c, 1, 51, 0
3, 44736, Note_on_c, 1, 52, 66
3, 44924, Note_off_c, 1, 52, 0
3, 44928, Note_on_c, 1, 53, 66
3, 45116, Note_off_c, 1, 53, 0
3, 45120, Note_on_c, 1, 54, 66
3, 45308, Note_off_c, 1, 54, 0
3, 45312, Note_on_c, 1, 55, 66
3, 45500, Note_off_c, 1, 55, 0
3, 45504, Note_on_c, 1, 53, 66
3, 45884, Note_off_c, 1, 53, 0
3, 45888, Note_on_c, 1, 41, 66
3, 46076, Note_off_c, 1, 41, 0
3, 46080, Note_on_c, 1, 58, 66
3, 46172, Note_off_c, 1, 58, 0
3, 46464, Note_on_c, 1, 58, 66
3, 46652, Note_off_c, 1, 58, 0
3, 46656, Note_on_c, 1, 58, 66
3, 46656, Note_on_c, 1, 67, 66
3, 46844, Note_off_c, 1, 58, 0
3, 46844, Note_off_c, 1, 67, 0
3, 46848, Note_on_c, 1, 60, 66
3, 46848, Note_on_c, 1, 65, 66
3, 47036, Note_off_c, 1, 60, 0
3, 47036, Note_off_c, 1, 65, 0
3, 47040, Note_on_c, 1, 58, 66
3, 47040, Note_on_c, 1, 64, 66
3, 47228, Note_off_c, 1, 58, 0
3, 47228, Note_off_c, 1, 64, 0
3, 47232, Note_on_c, 1, 63, 66
3, 47232, Note_on_c, 1, 57, 66
3, 47420, Note_off_c, 1, 63, 0
3, 47420, Note_off_c, 1, 57, 0
3, 47424, Note_on_c, 1, 56, 66
3, 47424, Note_on_c, 1, 62, 66
3, 47612, Note_off_c, 1, 56, 0
3, 47612, Note_off_c, 1, 62, 0
3, 47616, Note_on_c, 1, 55, 66
3, 47616, Note_on_c, 1, 61, 66
3, 47804, Note_off_c, 1, 55, 0
3, 47804, Note_off_c, 1, 61, 0
3, 47808, Note_on_c, 1, 60, 66
3, 47808, Note_on_c, 1, 56, 66
3, 47996, Note_off_c, 1, 56, 0
3, 48000, Note_on_c, 1, 53, 66
3, 48092, Note_off_c, 1, 60, 0
3, 48096, Note_on_c, 1, 62, 66
3, 48188, Note_off_c, 1, 53, 0
3, 48188, Note_off_c, 1, 62, 0
3, 48192, Note_on_c, 1, 63, 66
3, 48192, Note_on_c, 1, 51, 66
3, 48380, Note_off_c, 1, 63, 0
3, 48380, Note_off_c, 1, 51, 0
3, 48384, Note_on_c, 1, 63, 66
3, 48384, Note_on_c, 1, 58, 66
3, 48572, Note_off_c, 1, 63, 0
3, 48576, Note_on_c, 1, 62, 66
3, 48764, Note_off_c, 1, 58, 0
3, 48764, Note_off_c, 1, 62, 0
3, 51840, Note_on_c, 1, 57, 66
3, 51840, Note_on_c, 1, 60, 66
3, 51840, Note_on_c, 1, 65, 66
3, 51840, Note_on_c, 1, 63, 66
3, 52028, Note_off_c, 1, 57, 0
3, 52028, Note_off_c, 1, 60, 0
3, 52028, Note_off_c, 1, 65, 0
3, 52028, Note_off_c, 1, 63, 0
3, 52032, Note_on_c, 1, 58, 66
3, 52032, Note_on_c, 1, 62, 66
3, 52032, Note_on_c, 1, 65, 66
3, 52032, Note_on_c, 1, 56, 66
3, 52412, Note_off_c, 1, 58, 0
3, 52412, Note_off_c, 1, 62, 0
3, 52412, Note_off_c, 1, 65, 0
3, 52412, Note_off_c, 1, 56, 0
3, 52416, Note_on_c, 1, 55, 66
3, 52416, Note_on_c, 1, 58, 66
3, 52416, Note_on_c, 1, 63, 66
3, 52604, Note_off_c, 1, 55, 0
3, 52604, Note_off_c, 1, 58, 0
3, 52604, Note_off_c, 1, 63, 0
3, 52608, Note_on_c, 1, 56, 66
3, 52608, Note_on_c, 1, 58, 66
3, 52608, Note_on_c, 1, 53, 66
3, 52700, Note_off_c, 1, 56, 0
3, 52700, Note_off_c, 1, 58, 0
3, 52700, Note_off_c, 1, 53, 0
3, 52800, Note_on_c, 1, 51, 66
3, 52892, Note_off_c, 1, 51, 0
3, 52992, Note_on_c, 1, 58, 66
3, 52992, Note_on_c, 1, 46, 66
3, 53372, Note_off_c, 1, 58, 0
3, 53372, Note_off_c, 1, 46, 0
3, 53376, Note_on_c, 1, 48, 66
3, 53396, Note_off_c, 1, 48, 0
3, 53400, Note_on_c, 1, 51, 66
3, 53420, Note_off_c, 1, 51, 0
3, 53424, Note_on_c, 1, 57, 66
3, 53444, Note_off_c, 1, 57, 0
3, 53448, Note_on_c, 1, 60, 66
3, 53468, Note_off_c, 1, 60, 0
3, 53568, Note_on_c, 1, 58, 66
3, 53756, Note_off_c, 1, 58, 0
3, 53952, Note_on_c, 1, 44, 66
3, 53972, Note_off_c, 1, 44, 0
3, 53976, Note_on_c, 1, 50, 66
3, 53996, Note_off_c, 1, 50, 0
3, 54000, Note_on_c, 1, 53, 66
3, 54020, Note_off_c, 1, 53, 0
3, 54024, Note_on_c, 1, 56, 66
3, 54044, Note_off_c, 1, 56, 0
3, 54144, Note_on_c, 1, 43, 66
3, 54164, Note_off_c, 1, 43, 0
3, 54168, Note_on_c, 1, 46, 66
3, 54188, Note_off_c, 1, 46, 0
3, 54192, Note_on_c, 1, 51, 66
3, 54212, Note_off_c, 1, 51, 0
3, 54216, Note_on_c, 1, 55, 66
3, 54236, Note_off_c, 1, 55, 0
3, 54336, Note_on_c, 1, 41, 66
3, 54356, Note_off_c, 1, 41, 0
3, 54360, Note_on_c, 1, 44, 66
3, 54380, Note_off_c, 1, 44, 0
3, 54384, Note_on_c, 1, 50, 66
3, 54404, Note_off_c, 1, 50, 0
3, 54408, Note_on_c, 1, 53, 66
3, 54428, Note_off_c, 1, 53, 0
3, 54528, Note_on_c, 1, 39, 66
3, 54548, Note_off_c, 1, 39, 0
3, 54552, Note_on_c, 1, 43, 66
3, 54572, Note_off_c, 1, 43, 0
3, 54576, Note_on_c, 1, 46, 66
3, 54596, Note_off_c, 1, 46, 0
3, 54600, Note_on_c, 1, 51, 66
3, 54620, Note_off_c, 1, 51, 0
3, 54720, Note_on_c, 1, 44, 96
3, 54720, Note_on_c, 1, 32, 96
3, 55292, Note_off_c, 1, 44, 0
3, 55292, Note_off_c, 1, 32, 0
3, 55296, Note_on_c, 1, 45, 96
3, 55296, Note_on_c, 1, 33, 96
3, 55868, Note_off_c, 1, 45, 0
3, 55868, Note_off_c, 1, 33, 0
3, 55872, Note_on_c, 1, 46, 96
3, 55872, Note_on_c, 1, 34, 96
3, 56444, Note_off_c, 1, 46, 0
3, 56444, Note_off_c, 1, 34, 0
3, 56448, Note_on_c, 1, 48, 96
3, 56448, Note_on_c, 1, 36, 96
3, 57020, Note_off_c, 1, 48, 0
3, 57020, Note_off_c, 1, 36, 0
3, 57020, End_track
4, 0, Start_track
4, 0, Title_t, "K450 -b -Andante"
4, 0, Control_c, 2, 0, 0
4, 0, Program_c, 2, 48
4, 0, Control_c, 2, 7, 127
4, 0, Control_c, 2, 10, 37
4, 0, Control_c, 2, 91, 67
4, 0, Control_c, 2, 93, 0
4, 0, Key_signature, -3, "minor"
4, 0, Control_c, 2, 121, 0
4, 48, Control_c, 2, 10, 53
4, 96, Control_c, 2, 91, 63
4, 144, Program_c, 2, 48
4, 588, Note_on_c, 2, 67, 60
4, 588, Note_on_c, 2, 70, 60
4, 768, Note_on_c, 2, 67, 60
4, 768, Note_on_c, 2, 63, 60
4, 768, Note_on_c, 2, 58, 60
4, 778, Note_off_c, 2, 67, 0
4, 778, Note_off_c, 2, 70, 0
4, 958, Note_off_c, 2, 67, 0
4, 958, Note_off_c, 2, 63, 0
4, 960, Note_on_c, 2, 65, 60
4, 960, Note_on_c, 2, 62, 60
4, 960, Note_on_c, 2, 56, 60
4, 1056, Note_off_c, 2, 58, 0
4, 1150, Note_off_c, 2, 65, 0
4, 1150, Note_off_c, 2, 62, 0
4, 1150, Note_off_c, 2, 56, 0
4, 1152, Note_on_c, 2, 63, 60
4, 1152, Note_on_c, 2, 60, 60
4, 1152, Note_on_c, 2, 55, 60
4, 1342, Note_off_c, 2, 63, 0
4, 1342, Note_off_c, 2, 60, 0
4, 1342, Note_off_c, 2, 55, 0
4, 1344, Note_on_c, 2, 63, 60
4, 1344, Note_on_c, 2, 60, 60
4, 1344, Note_on_c, 2, 72, 60
4, 1534, Note_off_c, 2, 63, 0
4, 1534, Note_off_c, 2, 60, 0
4, 1534, Note_off_c, 2, 72, 0
4, 1728, Note_on_c, 2, 68, 60
4, 1728, Note_on_c, 2, 65, 60
4, 1728, Note_on_c, 2, 58, 60
4, 1918, Note_off_c, 2, 68, 0
4, 1918, Note_off_c, 2, 65, 0
4, 1918, Note_off_c, 2, 58, 0
4, 1920, Note_on_c, 2, 67, 60
4, 1920, Note_on_c, 2, 63, 60
4, 2110, Note_off_c, 2, 67, 0
4, 2110, Note_off_c, 2, 63, 0
4, 2112, Note_on_c, 2, 65, 60
4, 2112, Note_on_c, 2, 60, 60
4, 2302, Note_off_c, 2, 65, 0
4, 2302, Note_off_c, 2, 60, 0
4, 2304, Note_on_c, 2, 63, 60
4, 2304, Note_on_c, 2, 58, 60
4, 2304, Note_on_c, 2, 55, 60
4, 2494, Note_off_c, 2, 63, 0
4, 2494, Note_off_c, 2, 58, 0
4, 2494, Note_off_c, 2, 55, 0
4, 2496, Note_on_c, 2, 62, 60
4, 2496, Note_on_c, 2, 58, 60
4, 2496, Note_on_c, 2, 53, 60
4, 2686, Note_off_c, 2, 62, 0
4, 2686, Note_off_c, 2, 58, 0
4, 2686, Note_off_c, 2, 53, 0
4, 2880, Note_on_c, 2, 58, 60
4, 2880, Note_on_c, 2, 55, 60
4, 2880, Note_on_c, 2, 60, 60
4, 2994, Note_off_c, 2, 58, 0
4, 2994, Note_off_c, 2, 55, 0
4, 2994, Note_off_c, 2, 60, 0
4, 3072, Note_on_c, 2, 60, 60
4, 3072, Note_on_c, 2, 58, 60
4, 3072, Note_on_c, 2, 55, 60
4, 3186, Note_off_c, 2, 60, 0
4, 3186, Note_off_c, 2, 58, 0
4, 3186, Note_off_c, 2, 55, 0
4, 3264, Note_on_c, 2, 60, 60
4, 3264, Note_on_c, 2, 58, 60
4, 3264, Note_on_c, 2, 55, 60
4, 3378, Note_off_c, 2, 60, 0
4, 3378, Note_off_c, 2, 58, 0
4, 3378, Note_off_c, 2, 55, 0
4, 3456, Note_on_c, 2, 72, 60
4, 3456, Note_on_c, 2, 69, 60
4, 3456, Note_on_c, 2, 63, 60
4, 3646, Note_off_c, 2, 72, 0
4, 3646, Note_off_c, 2, 69, 0
4, 3646, Note_off_c, 2, 63, 0
4, 3648, Note_on_c, 2, 69, 60
4, 3648, Note_on_c, 2, 63, 60
4, 3648, Note_on_c, 2, 60, 60
4, 3838, Note_off_c, 2, 69, 0
4, 3838, Note_off_c, 2, 63, 0
4, 3838, Note_off_c, 2, 60, 0
4, 3936, Note_on_c, 2, 58, 60
4, 3936, Note_on_c, 2, 62, 60
4, 3936, Note_on_c, 2, 70, 60
4, 4030, Note_off_c, 2, 58, 0
4, 4030, Note_off_c, 2, 62, 0
4, 4030, Note_off_c, 2, 70, 0
4, 4032, Note_on_c, 2, 62, 60
4, 4032, Note_on_c, 2, 58, 60
4, 4222, Note_off_c, 2, 62, 0
4, 4222, Note_off_c, 2, 58, 0
4, 4224, Note_on_c, 2, 62, 60
4, 4224, Note_on_c, 2, 65, 60
4, 4318, Note_off_c, 2, 62, 0
4, 4318, Note_off_c, 2, 65, 0
4, 4320, Note_on_c, 2, 60, 60
4, 4320, Note_on_c, 2, 63, 60
4, 4510, Note_off_c, 2, 60, 0
4, 4510, Note_off_c, 2, 63, 0
4, 4512, Note_on_c, 2, 57, 60
4, 4512, Note_on_c, 2, 60, 60
4, 4606, Note_off_c, 2, 57, 0
4, 4606, Note_off_c, 2, 60, 0
4, 4608, Note_on_c, 2, 60, 60
4, 4608, Note_on_c, 2, 57, 60
4, 4702, Note_off_c, 2, 60, 0
4, 4702, Note_off_c, 2, 57, 0
4, 4704, Note_on_c, 2, 58, 60
4, 4798, Note_off_c, 2, 58, 0
4, 4800, Note_on_c, 2, 58, 60
4, 4894, Note_off_c, 2, 58, 0
4, 9792, Note_on_c, 2, 70, 60
4, 9792, Note_on_c, 2, 67, 60
4, 9982, Note_off_c, 2, 70, 0
4, 9982, Note_off_c, 2, 67, 0
4, 9984, Note_on_c, 2, 65, 60
4, 9984, Note_on_c, 2, 68, 60
4, 10174, Note_off_c, 2, 65, 0
4, 10174, Note_off_c, 2, 68, 0
4, 10176, Note_on_c, 2, 67, 60
4, 10176, Note_on_c, 2, 60, 60
4, 10176, Note_on_c, 2, 64, 60
4, 10366, Note_off_c, 2, 67, 0
4, 10366, Note_off_c, 2, 60, 0
4, 10366, Note_off_c, 2, 64, 0
4, 10368, Note_on_c, 2, 72, 60
4, 10368, Note_on_c, 2, 65, 60
4, 10368, Note_on_c, 2, 65, 60
4, 10368, Note_on_c, 2, 63, 60
4, 10558, Note_off_c, 2, 72, 0
4, 10558, Note_off_c, 2, 65, 0
4, 10558, Note_off_c, 2, 65, 0
4, 10558, Note_off_c, 2, 63, 0
4, 10560, Note_on_c, 2, 62, 60
4, 10560, Note_on_c, 2, 65, 60
4, 10560, Note_on_c, 2, 58, 60
4, 10940, Note_off_c, 2, 58, 0
4, 10942, Note_off_c, 2, 62, 0
4, 10942, Note_off_c, 2, 65, 0
4, 10944, Note_on_c, 2, 70, 60
4, 10944, Note_on_c, 2, 63, 60
4, 10944, Note_on_c, 2, 58, 60
4, 11134, Note_off_c, 2, 70, 0
4, 11134, Note_off_c, 2, 63, 0
4, 11134, Note_off_c, 2, 58, 0
4, 11136, Note_on_c, 2, 62, 60
4, 11136, Note_on_c, 2, 58, 60
4, 11136, Note_on_c, 2, 56, 60
4, 11326, Note_off_c, 2, 62, 0
4, 11326, Note_off_c, 2, 58, 0
4, 11326, Note_off_c, 2, 56, 0
4, 11328, Note_on_c, 2, 63, 60
4, 11328, Note_on_c, 2, 55, 60
4, 11328, Note_on_c, 2, 58, 60
4, 11518, Note_off_c, 2, 63, 0
4, 11518, Note_off_c, 2, 55, 0
4, 11518, Note_off_c, 2, 58, 0
4, 11520, Note_on_c, 2, 67, 60
4, 11520, Note_on_c, 2, 63, 60
4, 11520, Note_on_c, 2, 58, 60
4, 11710, Note_off_c, 2, 67, 0
4, 11710, Note_off_c, 2, 63, 0
4, 11710, Note_off_c, 2, 58, 0
4, 11712, Note_on_c, 2, 65, 60
4, 11712, Note_on_c, 2, 62, 60
4, 11902, Note_off_c, 2, 65, 0
4, 11902, Note_off_c, 2, 62, 0
4, 11904, Note_on_c, 2, 69, 60
4, 11904, Note_on_c, 2, 63, 60
4, 12000, Note_on_c, 2, 75, 60
4, 12094, Note_off_c, 2, 69, 0
4, 12094, Note_off_c, 2, 63, 0
4, 12096, Note_off_c, 2, 75, 0
4, 12096, Note_on_c, 2, 74, 60
4, 12096, Note_on_c, 2, 70, 60
4, 12096, Note_on_c, 2, 65, 60
4, 12286, Note_off_c, 2, 74, 0
4, 12286, Note_off_c, 2, 70, 0
4, 12286, Note_off_c, 2, 65, 0
4, 12288, Note_on_c, 2, 67, 60
4, 12288, Note_on_c, 2, 62, 60
4, 12478, Note_off_c, 2, 67, 0
4, 12478, Note_off_c, 2, 62, 0
4, 12576, Note_on_c, 2, 65, 60
4, 12576, Note_on_c, 2, 72, 60
4, 12672, Note_off_c, 2, 65, 0
4, 12672, Note_off_c, 2, 72, 0
4, 12672, Note_on_c, 2, 70, 60
4, 12672, Note_on_c, 2, 63, 60
4, 12768, Note_off_c, 2, 70, 0
4, 12768, Note_on_c, 2, 63, 60
4, 12862, Note_off_c, 2, 63, 0
4, 12864, Note_off_c, 2, 63, 0
4, 12864, Note_on_c, 2, 68, 60
4, 12864, Note_on_c, 2, 65, 60
4, 12864, Note_on_c, 2, 58, 60
4, 13152, Note_off_c, 2, 68, 0
4, 13152, Note_off_c, 2, 65, 0
4, 13152, Note_on_c, 2, 63, 60
4, 13152, Note_on_c, 2, 67, 60
4, 13246, Note_off_c, 2, 58, 0
4, 13248, Note_off_c, 2, 63, 0
4, 13248, Note_off_c, 2, 67, 0
4, 13248, Note_on_c, 2, 65, 60
4, 13248, Note_on_c, 2, 60, 60
4, 13312, Note_on_c, 2, 68, 60
4, 13320, Note_off_c, 2, 65, 0
4, 13376, Note_on_c, 2, 72, 60
4, 13384, Note_off_c, 2, 68, 0
4, 13438, Note_off_c, 2, 60, 0
4, 13440, Note_on_c, 2, 63, 60
4, 13440, Note_on_c, 2, 58, 60
4, 13448, Note_off_c, 2, 72, 0
4, 13630, Note_off_c, 2, 58, 0
4, 13632, Note_on_c, 2, 58, 60
4, 13728, Note_off_c, 2, 63, 0
4, 13728, Note_off_c, 2, 58, 0
4, 13728, Note_on_c, 2, 67, 60
4, 13728, Note_on_c, 2, 56, 60
4, 13776, Note_off_c, 2, 67, 0
4, 13776, Note_on_c, 2, 65, 60
4, 13824, Note_off_c, 2, 56, 0
4, 13824, Note_off_c, 2, 65, 0
4, 13824, Note_on_c, 2, 63, 60
4, 13824, Note_on_c, 2, 58, 60
4, 13824, Note_on_c, 2, 55, 60
4, 13918, Note_off_c, 2, 63, 0
4, 13918, Note_off_c, 2, 58, 0
4, 13918, Note_off_c, 2, 55, 0
4, 14016, Note_on_c, 2, 63, 60
4, 14016, Note_on_c, 2, 58, 60
4, 14016, Note_on_c, 2, 55, 60
4, 14206, Note_off_c, 2, 63, 0
4, 14206, Note_off_c, 2, 58, 0
4, 14206, Note_off_c, 2, 55, 0
4, 19008, Note_on_c, 2, 70, 60
4, 19008, Note_on_c, 2, 67, 60
4, 19008, Note_on_c, 2, 58, 60
4, 19196, Note_off_c, 2, 70, 0
4, 19196, Note_off_c, 2, 67, 0
4, 19200, Note_on_c, 2, 67, 60
4, 19200, Note_on_c, 2, 63, 60
4, 19388, Note_off_c, 2, 58, 0
4, 19388, Note_off_c, 2, 67, 0
4, 19388, Note_off_c, 2, 63, 0
4, 19392, Note_on_c, 2, 65, 60
4, 19392, Note_on_c, 2, 62, 60
4, 19392, Note_on_c, 2, 56, 60
4, 19580, Note_off_c, 2, 65, 0
4, 19580, Note_off_c, 2, 62, 0
4, 19580, Note_off_c, 2, 56, 0
4, 19584, Note_on_c, 2, 63, 60
4, 19584, Note_on_c, 2, 60, 60
4, 19584, Note_on_c, 2, 55, 60
4, 19772, Note_off_c, 2, 63, 0
4, 19772, Note_off_c, 2, 60, 0
4, 19772, Note_off_c, 2, 55, 0
4, 19776, Note_on_c, 2, 72, 60
4, 19776, Note_on_c, 2, 63, 60
4, 19776, Note_on_c, 2, 60, 60
4, 19964, Note_off_c, 2, 72, 0
4, 19964, Note_off_c, 2, 63, 0
4, 19964, Note_off_c, 2, 60, 0
4, 20160, Note_on_c, 2, 68, 60
4, 20160, Note_on_c, 2, 65, 60
4, 20160, Note_on_c, 2, 58, 60
4, 20348, Note_off_c, 2, 68, 0
4, 20348, Note_off_c, 2, 65, 0
4, 20352, Note_on_c, 2, 67, 60
4, 20352, Note_on_c, 2, 63, 60
4, 20540, Note_off_c, 2, 58, 0
4, 20540, Note_off_c, 2, 67, 0
4, 20540, Note_off_c, 2, 63, 0
4, 20544, Note_on_c, 2, 65, 60
4, 20544, Note_on_c, 2, 60, 60
4, 20732, Note_off_c, 2, 65, 0
4, 20732, Note_off_c, 2, 60, 0
4, 20736, Note_on_c, 2, 63, 60
4, 20736, Note_on_c, 2, 58, 60
4, 20736, Note_on_c, 2, 55, 60
4, 20924, Note_off_c, 2, 63, 0
4, 20924, Note_off_c, 2, 58, 0
4, 20924, Note_off_c, 2, 55, 0
4, 20928, Note_on_c, 2, 62, 60
4, 20928, Note_on_c, 2, 58, 60
4, 20928, Note_on_c, 2, 53, 60
4, 21116, Note_off_c, 2, 62, 0
4, 21116, Note_off_c, 2, 58, 0
4, 21116, Note_off_c, 2, 53, 0
4, 21312, Note_on_c, 2, 58, 60
4, 21312, Note_on_c, 2, 55, 60
4, 21312, Note_on_c, 2, 60, 60
4, 21426, Note_off_c, 2, 58, 0
4, 21426, Note_off_c, 2, 55, 0
4, 21426, Note_off_c, 2, 60, 0
4, 21504, Note_on_c, 2, 58, 60
4, 21504, Note_on_c, 2, 60, 60
4, 21504, Note_on_c, 2, 55, 60
4, 21618, Note_off_c, 2, 58, 0
4, 21618, Note_off_c, 2, 60, 0
4, 21618, Note_off_c, 2, 55, 0
4, 21696, Note_on_c, 2, 60, 60
4, 21696, Note_on_c, 2, 58, 60
4, 21696, Note_on_c, 2, 55, 60
4, 21810, Note_off_c, 2, 60, 0
4, 21810, Note_off_c, 2, 58, 0
4, 21810, Note_off_c, 2, 55, 0
4, 21888, Note_on_c, 2, 72, 60
4, 21888, Note_on_c, 2, 69, 60
4, 21888, Note_on_c, 2, 63, 60
4, 22076, Note_off_c, 2, 72, 0
4, 22076, Note_off_c, 2, 69, 0
4, 22076, Note_off_c, 2, 63, 0
4, 22080, Note_on_c, 2, 69, 60
4, 22080, Note_on_c, 2, 63, 60
4, 22080, Note_on_c, 2, 60, 60
4, 22268, Note_off_c, 2, 69, 0
4, 22268, Note_off_c, 2, 63, 0
4, 22268, Note_off_c, 2, 60, 0
4, 22272, Note_on_c, 2, 64, 60
4, 22272, Note_on_c, 2, 61, 60
4, 22460, Note_off_c, 2, 64, 0
4, 22460, Note_off_c, 2, 61, 0
4, 22464, Note_on_c, 2, 62, 60
4, 22556, Note_off_c, 2, 62, 0
4, 22560, Note_on_c, 2, 65, 60
4, 22560, Note_on_c, 2, 62, 60
4, 22560, Note_on_c, 2, 58, 60
4, 22652, Note_off_c, 2, 65, 0
4, 22652, Note_off_c, 2, 62, 0
4, 22652, Note_off_c, 2, 58, 0
4, 22656, Note_on_c, 2, 63, 60
4, 22656, Note_on_c, 2, 60, 60
4, 22940, Note_off_c, 2, 63, 0
4, 22940, Note_off_c, 2, 60, 0
4, 22944, Note_on_c, 2, 60, 60
4, 22944, Note_on_c, 2, 57, 60
4, 23036, Note_off_c, 2, 60, 0
4, 23036, Note_off_c, 2, 57, 0
4, 23040, Note_on_c, 2, 60, 60
4, 23040, Note_on_c, 2, 55, 60
4, 23040, Note_on_c, 2, 50, 60
4, 23132, Note_off_c, 2, 60, 64
4, 23132, Note_off_c, 2, 55, 64
4, 23132, Note_off_c, 2, 50, 64
4, 23136, Note_on_c, 2, 58, 60
4, 23136, Note_on_c, 2, 50, 60
4, 23228, Note_off_c, 2, 58, 64
4, 23228, Note_off_c, 2, 50, 64
4, 23232, Note_on_c, 2, 62, 60
4, 23232, Note_on_c, 2, 50, 60
4, 23324, Note_off_c, 2, 62, 64
4, 23324, Note_off_c, 2, 50, 64
4, 28224, Note_on_c, 2, 70, 60
4, 28224, Note_on_c, 2, 67, 60
4, 28224, Note_on_c, 2, 61, 60
4, 28412, Note_off_c, 2, 70, 0
4, 28412, Note_off_c, 2, 67, 0
4, 28412, Note_off_c, 2, 61, 0
4, 28416, Note_on_c, 2, 68, 60
4, 28416, Note_on_c, 2, 65, 60
4, 28416, Note_on_c, 2, 60, 60
4, 28604, Note_off_c, 2, 68, 0
4, 28604, Note_off_c, 2, 65, 0
4, 28604, Note_off_c, 2, 60, 0
4, 28608, Note_on_c, 2, 67, 60
4, 28608, Note_on_c, 2, 64, 60
4, 28796, Note_off_c, 2, 67, 0
4, 28796, Note_off_c, 2, 64, 0
4, 28800, Note_on_c, 2, 72, 60
4, 28800, Note_on_c, 2, 63, 60
4, 28988, Note_off_c, 2, 72, 0
4, 28988, Note_off_c, 2, 63, 0
4, 28992, Note_on_c, 2, 65, 60
4, 28992, Note_on_c, 2, 62, 60
4, 28992, Note_on_c, 2, 58, 60
4, 29372, Note_off_c, 2, 65, 0
4, 29372, Note_off_c, 2, 62, 0
4, 29372, Note_off_c, 2, 58, 0
4, 29376, Note_on_c, 2, 70, 60
4, 29376, Note_on_c, 2, 63, 60
4, 29376, Note_on_c, 2, 58, 60
4, 29564, Note_off_c, 2, 70, 0
4, 29564, Note_off_c, 2, 63, 0
4, 29564, Note_off_c, 2, 58, 0
4, 29568, Note_on_c, 2, 62, 60
4, 29568, Note_on_c, 2, 62, 60
4, 29568, Note_on_c, 2, 58, 60
4, 29568, Note_on_c, 2, 56, 60
4, 29756, Note_off_c, 2, 62, 0
4, 29756, Note_off_c, 2, 62, 0
4, 29756, Note_off_c, 2, 58, 0
4, 29756, Note_off_c, 2, 56, 0
4, 29760, Note_on_c, 2, 63, 60
4, 29760, Note_on_c, 2, 58, 60
4, 29760, Note_on_c, 2, 55, 60
4, 29948, Note_off_c, 2, 63, 0
4, 29948, Note_off_c, 2, 58, 0
4, 29948, Note_off_c, 2, 55, 0
4, 29952, Note_on_c, 2, 67, 60
4, 29952, Note_on_c, 2, 63, 60
4, 29952, Note_on_c, 2, 58, 60
4, 30140, Note_off_c, 2, 67, 0
4, 30140, Note_off_c, 2, 63, 0
4, 30140, Note_off_c, 2, 58, 0
4, 30144, Note_on_c, 2, 65, 60
4, 30144, Note_on_c, 2, 62, 60
4, 30332, Note_off_c, 2, 65, 0
4, 30332, Note_off_c, 2, 62, 0
4, 30432, Note_on_c, 2, 75, 60
4, 30432, Note_on_c, 2, 69, 60
4, 30432, Note_on_c, 2, 66, 60
4, 30524, Note_off_c, 2, 75, 0
4, 30524, Note_off_c, 2, 69, 0
4, 30524, Note_off_c, 2, 66, 0
4, 30528, Note_on_c, 2, 74, 60
4, 30528, Note_on_c, 2, 70, 60
4, 30528, Note_on_c, 2, 67, 60
4, 30716, Note_off_c, 2, 74, 0
4, 30716, Note_off_c, 2, 70, 0
4, 30716, Note_off_c, 2, 67, 0
4, 30720, Note_on_c, 2, 67, 60
4, 30720, Note_on_c, 2, 62, 60
4, 30720, Note_on_c, 2, 58, 60
4, 30908, Note_off_c, 2, 67, 0
4, 30908, Note_off_c, 2, 62, 0
4, 30908, Note_off_c, 2, 58, 0
4, 31008, Note_on_c, 2, 72, 60
4, 31008, Note_on_c, 2, 65, 60
4, 31008, Note_on_c, 2, 62, 60
4, 31100, Note_off_c, 2, 72, 0
4, 31100, Note_off_c, 2, 65, 0
4, 31100, Note_off_c, 2, 62, 0
4, 31104, Note_on_c, 2, 70, 60
4, 31104, Note_on_c, 2, 63, 60
4, 31196, Note_off_c, 2, 70, 0
4, 31200, Note_on_c, 2, 63, 60
4, 31292, Note_off_c, 2, 63, 0
4, 31292, Note_off_c, 2, 63, 0
4, 31296, Note_on_c, 2, 68, 60
4, 31296, Note_on_c, 2, 65, 60
4, 31296, Note_on_c, 2, 58, 60
4, 31580, Note_off_c, 2, 68, 0
4, 31580, Note_off_c, 2, 65, 0
4, 31584, Note_on_c, 2, 67, 60
4, 31584, Note_on_c, 2, 63, 60
4, 31676, Note_off_c, 2, 58, 0
4, 31676, Note_off_c, 2, 67, 0
4, 31676, Note_off_c, 2, 63, 0
4, 31680, Note_on_c, 2, 65, 60
4, 31680, Note_on_c, 2, 60, 60
4, 31776, Note_on_c, 2, 68, 60
4, 31820, Note_off_c, 2, 65, 0
4, 31820, Note_off_c, 2, 68, 0
4, 31824, Note_on_c, 2, 72, 60
4, 31868, Note_off_c, 2, 60, 0
4, 31868, Note_off_c, 2, 72, 0
4, 31872, Note_on_c, 2, 63, 60
4, 31872, Note_on_c, 2, 58, 60
4, 32156, Note_off_c, 2, 63, 0
4, 32156, Note_off_c, 2, 58, 0
4, 32160, Note_on_c, 2, 67, 60
4, 32160, Note_on_c, 2, 56, 60
4, 32204, Note_off_c, 2, 67, 0
4, 32208, Note_on_c, 2, 65, 60
4, 32252, Note_off_c, 2, 56, 0
4, 32252, Note_off_c, 2, 65, 0
4, 32256, Note_on_c, 2, 63, 60
4, 32256, Note_on_c, 2, 55, 60
4, 32444, Note_off_c, 2, 63, 0
4, 32444, Note_off_c, 2, 55, 0
4, 32448, Note_on_c, 2, 63, 60
4, 32448, Note_on_c, 2, 55, 60
4, 32636, Note_off_c, 2, 63, 0
4, 32636, Note_off_c, 2, 55, 0
4, 40416, Note_on_c, 2, 72, 60
4, 40512, Note_on_c, 2, 69, 60
4, 40604, Note_off_c, 2, 72, 0
4, 40608, Note_on_c, 2, 75, 60
4, 40700, Note_off_c, 2, 69, 0
4, 40704, Note_on_c, 2, 70, 60
4, 40796, Note_off_c, 2, 75, 0
4, 40800, Note_on_c, 2, 74, 60
4, 40892, Note_off_c, 2, 70, 0
4, 40892, Note_off_c, 2, 74, 0
4, 40896, Note_on_c, 2, 74, 60
4, 40896, Note_on_c, 2, 67, 60
4, 40988, Note_off_c, 2, 74, 0
4, 40992, Note_on_c, 2, 72, 60
4, 41084, Note_off_c, 2, 67, 0
4, 41088, Note_on_c, 2, 65, 60
4, 41088, Note_on_c, 2, 62, 60
4, 41180, Note_off_c, 2, 72, 0
4, 41184, Note_on_c, 2, 70, 60
4, 41276, Note_off_c, 2, 65, 0
4, 41276, Note_off_c, 2, 62, 0
4, 41280, Note_on_c, 2, 63, 60
4, 41280, Note_on_c, 2, 60, 60
4, 41372, Note_off_c, 2, 70, 0
4, 41376, Note_on_c, 2, 69, 60
4, 41468, Note_off_c, 2, 63, 0
4, 41468, Note_off_c, 2, 60, 0
4, 41468, Note_off_c, 2, 69, 0
4, 41472, Note_on_c, 2, 62, 60
4, 41472, Note_on_c, 2, 58, 60
4, 41472, Note_on_c, 2, 68, 60
4, 41564, Note_off_c, 2, 68, 0
4, 41568, Note_on_c, 2, 70, 60
4, 41660, Note_off_c, 2, 62, 0
4, 41660, Note_off_c, 2, 58, 0
4, 41660, Note_off_c, 2, 70, 0
4, 42048, Note_on_c, 2, 75, 60
4, 42048, Note_on_c, 2, 79, 60
4, 42048, Note_on_c, 2, 82, 60
4, 42144, Note_on_c, 2, 70, 60
4, 42236, Note_off_c, 2, 75, 0
4, 42236, Note_off_c, 2, 79, 0
4, 42236, Note_off_c, 2, 82, 0
4, 42236, Note_off_c, 2, 70, 0
4, 42240, Note_on_c, 2, 75, 60
4, 42240, Note_on_c, 2, 79, 60
4, 42240, Note_on_c, 2, 70, 60
4, 42332, Note_off_c, 2, 70, 0
4, 42336, Note_on_c, 2, 67, 60
4, 42428, Note_off_c, 2, 75, 0
4, 42428, Note_off_c, 2, 79, 0
4, 42428, Note_off_c, 2, 67, 0
4, 42432, Note_on_c, 2, 77, 60
4, 42432, Note_on_c, 2, 74, 60
4, 42432, Note_on_c, 2, 68, 60
4, 42524, Note_off_c, 2, 68, 0
4, 42528, Note_on_c, 2, 65, 60
4, 42620, Note_off_c, 2, 77, 0
4, 42620, Note_off_c, 2, 74, 0
4, 42620, Note_off_c, 2, 65, 0
4, 42624, Note_on_c, 2, 75, 60
4, 42720, Note_on_c, 2, 72, 60
4, 42812, Note_off_c, 2, 75, 0
4, 42812, Note_off_c, 2, 72, 0
4, 42816, Note_on_c, 2, 84, 60
4, 42816, Note_on_c, 2, 75, 60
4, 42816, Note_on_c, 2, 72, 60
4, 42908, Note_off_c, 2, 75, 0
4, 42908, Note_off_c, 2, 72, 0
4, 42912, Note_on_c, 2, 75, 60
4, 42912, Note_on_c, 2, 72, 60
4, 43004, Note_off_c, 2, 84, 0
4, 43004, Note_off_c, 2, 75, 0
4, 43004, Note_off_c, 2, 72, 0
4, 43008, Note_on_c, 2, 75, 60
4, 43008, Note_on_c, 2, 80, 60
4, 43100, Note_off_c, 2, 75, 0
4, 43100, Note_off_c, 2, 80, 0
4, 43104, Note_on_c, 2, 80, 60
4, 43104, Note_on_c, 2, 84, 60
4, 43196, Note_off_c, 2, 80, 0
4, 43196, Note_off_c, 2, 84, 0
4, 43200, Note_on_c, 2, 77, 60
4, 43200, Note_on_c, 2, 80, 60
4, 43296, Note_on_c, 2, 68, 60
4, 43388, Note_off_c, 2, 77, 0
4, 43388, Note_off_c, 2, 80, 0
4, 43388, Note_off_c, 2, 68, 0
4, 43392, Note_on_c, 2, 79, 60
4, 43392, Note_on_c, 2, 75, 60
4, 43484, Note_off_c, 2, 75, 0
4, 43488, Note_on_c, 2, 67, 60
4, 43580, Note_off_c, 2, 79, 0
4, 43580, Note_off_c, 2, 67, 0
4, 43584, Note_on_c, 2, 77, 60
4, 43584, Note_on_c, 2, 72, 60
4, 43676, Note_off_c, 2, 72, 0
4, 43680, Note_on_c, 2, 65, 60
4, 43772, Note_off_c, 2, 77, 0
4, 43772, Note_off_c, 2, 65, 0
4, 43776, Note_on_c, 2, 75, 60
4, 43776, Note_on_c, 2, 70, 60
4, 43872, Note_on_c, 2, 63, 60
4, 43964, Note_off_c, 2, 75, 0
4, 43964, Note_off_c, 2, 70, 0
4, 43964, Note_off_c, 2, 63, 0
4, 43968, Note_on_c, 2, 74, 60
4, 43968, Note_on_c, 2, 70, 60
4, 43968, Note_on_c, 2, 62, 60
4, 44060, Note_off_c, 2, 62, 0
4, 44064, Note_on_c, 2, 65, 60
4, 44156, Note_off_c, 2, 74, 0
4, 44156, Note_off_c, 2, 70, 0
4, 44156, Note_off_c, 2, 65, 0
4, 44160, Note_on_c, 2, 74, 60
4, 44160, Note_on_c, 2, 77, 60
4, 44252, Note_off_c, 2, 74, 0
4, 44252, Note_off_c, 2, 77, 0
4, 44256, Note_on_c, 2, 74, 60
4, 44256, Note_on_c, 2, 82, 60
4, 44348, Note_off_c, 2, 74, 0
4, 44348, Note_off_c, 2, 82, 0
4, 44352, Note_on_c, 2, 70, 60
4, 44352, Note_on_c, 2, 72, 60
4, 44444, Note_off_c, 2, 70, 0
4, 44444, Note_off_c, 2, 72, 0
4, 44448, Note_on_c, 2, 79, 60
4, 44540, Note_off_c, 2, 79, 0
4, 44544, Note_on_c, 2, 70, 60
4, 44544, Note_on_c, 2, 72, 60
4, 44636, Note_off_c, 2, 70, 0
4, 44636, Note_off_c, 2, 72, 0
4, 44640, Note_on_c, 2, 75, 60
4, 44732, Note_off_c, 2, 75, 0
4, 44736, Note_on_c, 2, 70, 60
4, 44736, Note_on_c, 2, 72, 60
4, 44832, Note_on_c, 2, 67, 60
4, 44924, Note_off_c, 2, 70, 0
4, 44924, Note_off_c, 2, 72, 0
4, 44924, Note_off_c, 2, 67, 0
4, 44928, Note_on_c, 2, 69, 60
4, 44928, Note_on_c, 2, 84, 60
4, 45020, Note_off_c, 2, 69, 0
4, 45024, Note_on_c, 2, 72, 60
4, 45116, Note_off_c, 2, 84, 0
4, 45116, Note_off_c, 2, 72, 0
4, 45120, Note_on_c, 2, 75, 60
4, 45120, Note_on_c, 2, 81, 60
4, 45212, Note_off_c, 2, 75, 0
4, 45216, Note_on_c, 2, 75, 60
4, 45308, Note_off_c, 2, 81, 0
4, 45308, Note_off_c, 2, 75, 0
4, 45312, Note_on_c, 2, 76, 60
4, 45312, Note_on_c, 2, 82, 60
4, 45404, Note_off_c, 2, 76, 0
4, 45408, Note_on_c, 2, 73, 60
4, 45500, Note_off_c, 2, 82, 0
4, 45500, Note_off_c, 2, 73, 0
4, 45504, Note_on_c, 2, 82, 60
4, 45504, Note_on_c, 2, 77, 60
4, 45596, Note_off_c, 2, 82, 0
4, 45596, Note_off_c, 2, 77, 0
4, 45600, Note_on_c, 2, 77, 60
4, 45600, Note_on_c, 2, 74, 60
4, 45692, Note_off_c, 2, 77, 0
4, 45692, Note_off_c, 2, 74, 0
4, 45696, Note_on_c, 2, 74, 60
4, 45696, Note_on_c, 2, 70, 60
4, 45788, Note_off_c, 2, 74, 0
4, 45788, Note_off_c, 2, 70, 0
4, 45792, Note_on_c, 2, 77, 60
4, 45792, Note_on_c, 2, 74, 60
4, 45884, Note_off_c, 2, 77, 0
4, 45884, Note_off_c, 2, 74, 0
4, 45888, Note_on_c, 2, 75, 60
4, 45888, Note_on_c, 2, 72, 60
4, 45980, Note_off_c, 2, 75, 0
4, 45980, Note_off_c, 2, 72, 0
4, 45984, Note_on_c, 2, 72, 60
4, 45984, Note_on_c, 2, 69, 60
4, 46076, Note_off_c, 2, 72, 0
4, 46076, Note_off_c, 2, 69, 0
4, 46080, Note_on_c, 2, 72, 60
4, 46080, Note_on_c, 2, 68, 60
4, 46080, Note_on_c, 2, 63, 60
4, 46172, Note_off_c, 2, 72, 0
4, 46172, Note_off_c, 2, 68, 0
4, 46172, Note_off_c, 2, 63, 0
4, 46176, Note_on_c, 2, 70, 60
4, 46176, Note_on_c, 2, 62, 60
4, 46268, Note_off_c, 2, 70, 0
4, 46268, Note_off_c, 2, 62, 0
4, 46272, Note_on_c, 2, 70, 60
4, 46272, Note_on_c, 2, 62, 60
4, 46364, Note_off_c, 2, 70, 0
4, 46364, Note_off_c, 2, 62, 0
4, 46368, Note_on_c, 2, 77, 60
4, 46460, Note_off_c, 2, 77, 0
4, 46464, Note_on_c, 2, 82, 60
4, 46464, Note_on_c, 2, 70, 60
4, 46652, Note_off_c, 2, 82, 0
4, 46652, Note_off_c, 2, 70, 0
4, 48768, Note_on_c, 2, 75, 60
4, 48864, Note_on_c, 2, 68, 60
4, 48956, Note_off_c, 2, 75, 0
4, 48956, Note_off_c, 2, 68, 0
4, 48960, Note_on_c, 2, 74, 60
4, 48960, Note_on_c, 2, 70, 60
4, 49052, Note_off_c, 2, 70, 0
4, 49056, Note_on_c, 2, 67, 60
4, 49148, Note_off_c, 2, 74, 0
4, 49152, Note_on_c, 2, 73, 60
4, 49244, Note_off_c, 2, 67, 0
4, 49248, Note_on_c, 2, 66, 60
4, 49340, Note_off_c, 2, 73, 0
4, 49344, Note_on_c, 2, 72, 60
4, 49436, Note_off_c, 2, 66, 0
4, 49440, Note_on_c, 2, 66, 60
4, 49532, Note_off_c, 2, 72, 0
4, 49536, Note_on_c, 2, 71, 60
4, 49628, Note_off_c, 2, 66, 0
4, 49632, Note_on_c, 2, 65, 60
4, 49724, Note_off_c, 2, 71, 0
4, 49728, Note_on_c, 2, 70, 60
4, 49820, Note_off_c, 2, 65, 0
4, 49824, Note_on_c, 2, 63, 60
4, 49916, Note_off_c, 2, 70, 0
4, 49920, Note_on_c, 2, 71, 60
4, 50012, Note_off_c, 2, 63, 0
4, 50016, Note_on_c, 2, 61, 60
4, 50040, Note_on_c, 2, 63, 60
4, 50108, Note_off_c, 2, 71, 0
4, 50108, Note_off_c, 2, 61, 0
4, 50112, Note_on_c, 2, 60, 60
4, 50112, Note_on_c, 2, 70, 60
4, 50156, Note_off_c, 2, 70, 0
4, 50160, Note_on_c, 2, 72, 60
4, 50204, Note_off_c, 2, 60, 0
4, 50204, Note_off_c, 2, 72, 0
4, 50208, Note_on_c, 2, 60, 60
4, 50208, Note_on_c, 2, 68, 60
4, 50228, Note_off_c, 2, 63, 0
4, 50252, Note_off_c, 2, 68, 0
4, 50256, Note_on_c, 2, 65, 60
4, 50300, Note_off_c, 2, 60, 0
4, 50300, Note_off_c, 2, 65, 0
4, 50304, Note_on_c, 2, 63, 60
4, 50304, Note_on_c, 2, 58, 60
4, 50492, Note_off_c, 2, 58, 0
4, 50496, Note_on_c, 2, 56, 60
4, 50588, Note_off_c, 2, 63, 0
4, 50592, Note_on_c, 2, 67, 60
4, 50636, Note_off_c, 2, 67, 0
4, 50640, Note_on_c, 2, 65, 60
4, 50684, Note_off_c, 2, 56, 0
4, 50684, Note_off_c, 2, 65, 0
4, 50688, Note_on_c, 2, 63, 60
4, 50688, Note_on_c, 2, 55, 60
4, 50876, Note_off_c, 2, 63, 0
4, 50876, Note_off_c, 2, 55, 0
4, 50880, Note_on_c, 2, 63, 60
4, 50880, Note_on_c, 2, 58, 60
4, 50880, Note_on_c, 2, 55, 60
4, 51068, Note_off_c, 2, 63, 0
4, 51068, Note_off_c, 2, 58, 0
4, 51068, Note_off_c, 2, 55, 0
4, 51262, Program_c, 2, 45
4, 51264, Note_on_c, 2, 79, 48
4, 51264, Note_on_c, 2, 82, 48
4, 51360, Note_on_c, 2, 70, 48
4, 51452, Note_off_c, 2, 79, 0
4, 51452, Note_off_c, 2, 82, 0
4, 51452, Note_off_c, 2, 70, 0
4, 51456, Note_on_c, 2, 80, 48
4, 51456, Note_on_c, 2, 77, 48
4, 51552, Note_on_c, 2, 68, 48
4, 51644, Note_off_c, 2, 80, 0
4, 51644, Note_off_c, 2, 77, 0
4, 51644, Note_off_c, 2, 68, 0
4, 51648, Note_on_c, 2, 79, 48
4, 51648, Note_on_c, 2, 76, 48
4, 51744, Note_on_c, 2, 67, 48
4, 51836, Note_off_c, 2, 79, 0
4, 51836, Note_off_c, 2, 76, 0
4, 51836, Note_off_c, 2, 67, 0
4, 51838, Program_c, 2, 48
4, 51840, Note_on_c, 2, 75, 54
4, 51840, Note_on_c, 2, 84, 54
4, 51936, Note_on_c, 2, 72, 60
4, 52028, Note_off_c, 2, 72, 0
4, 52032, Note_on_c, 2, 77, 72
4, 52032, Note_on_c, 2, 77, 72
4, 52124, Note_off_c, 2, 77, 0
4, 52128, Note_on_c, 2, 74, 60
4, 52220, Note_off_c, 2, 75, 0
4, 52220, Note_off_c, 2, 84, 0
4, 52220, Note_off_c, 2, 74, 0
4, 52224, Note_on_c, 2, 70, 60
4, 52316, Note_off_c, 2, 70, 0
4, 52320, Note_on_c, 2, 65, 60
4, 52412, Note_off_c, 2, 77, 0
4, 52412, Note_off_c, 2, 65, 0
4, 52416, Note_on_c, 2, 75, 60
4, 52416, Note_on_c, 2, 82, 60
4, 52512, Note_on_c, 2, 70, 60
4, 52604, Note_off_c, 2, 75, 0
4, 52604, Note_off_c, 2, 82, 0
4, 52604, Note_off_c, 2, 70, 0
4, 52608, Note_on_c, 2, 68, 60
4, 52608, Note_on_c, 2, 74, 60
4, 52704, Note_on_c, 2, 80, 60
4, 52796, Note_off_c, 2, 68, 0
4, 52796, Note_off_c, 2, 74, 0
4, 52796, Note_off_c, 2, 80, 0
4, 52800, Note_on_c, 2, 75, 60
4, 52800, Note_on_c, 2, 67, 60
4, 52892, Note_off_c, 2, 75, 0
4, 52892, Note_off_c, 2, 67, 0
4, 52896, Note_on_c, 2, 79, 60
4, 52896, Note_on_c, 2, 82, 60
4, 52988, Note_off_c, 2, 79, 0
4, 52988, Note_off_c, 2, 82, 0
4, 52992, Note_on_c, 2, 75, 60
4, 52992, Note_on_c, 2, 79, 60
4, 52992, Note_on_c, 2, 67, 60
4, 53180, Note_off_c, 2, 75, 0
4, 53180, Note_off_c, 2, 79, 0
4, 53180, Note_off_c, 2, 67, 0
4, 53184, Note_on_c, 2, 74, 60
4, 53184, Note_on_c, 2, 77, 60
4, 53184, Note_on_c, 2, 65, 60
4, 53372, Note_off_c, 2, 74, 0
4, 53372, Note_off_c, 2, 77, 0
4, 53372, Note_off_c, 2, 65, 0
4, 53520, Note_on_c, 2, 75, 60
4, 53520, Note_on_c, 2, 63, 60
4, 53564, Note_off_c, 2, 75, 64
4, 53564, Note_off_c, 2, 63, 64
4, 53568, Note_on_c, 2, 74, 60
4, 53568, Note_on_c, 2, 62, 60
4, 53756, Note_off_c, 2, 74, 0
4, 53756, Note_off_c, 2, 62, 0
4, 53760, Note_on_c, 2, 67, 60
4, 53760, Note_on_c, 2, 55, 60
4, 53948, Note_off_c, 2, 67, 0
4, 53948, Note_off_c, 2, 55, 0
4, 54096, Note_on_c, 2, 84, 60
4, 54096, Note_on_c, 2, 72, 60
4, 54140, Note_off_c, 2, 84, 0
4, 54140, Note_off_c, 2, 72, 0
4, 54144, Note_on_c, 2, 82, 60
4, 54144, Note_on_c, 2, 70, 60
4, 54236, Note_off_c, 2, 82, 0
4, 54236, Note_off_c, 2, 70, 0
4, 54240, Note_on_c, 2, 75, 60
4, 54240, Note_on_c, 2, 63, 60
4, 54332, Note_off_c, 2, 75, 0
4, 54332, Note_off_c, 2, 63, 0
4, 54336, Note_on_c, 2, 80, 60
4, 54336, Note_on_c, 2, 74, 60
4, 54336, Note_on_c, 2, 68, 60
4, 54524, Note_off_c, 2, 80, 0
4, 54524, Note_off_c, 2, 74, 0
4, 54524, Note_off_c, 2, 68, 0
4, 54528, Note_on_c, 2, 79, 60
4, 54528, Note_on_c, 2, 75, 60
4, 54528, Note_on_c, 2, 67, 60
4, 54716, Note_off_c, 2, 79, 0
4, 54716, Note_off_c, 2, 75, 0
4, 54716, Note_off_c, 2, 67, 0
4, 54720, Note_on_c, 2, 75, 79
4, 54720, Note_on_c, 2, 72, 79
4, 54720, Note_on_c, 2, 77, 79
4, 54720, Note_on_c, 2, 65, 79
4, 54908, Note_off_c, 2, 75, 0
4, 54908, Note_off_c, 2, 72, 0
4, 54908, Note_off_c, 2, 77, 0
4, 54912, Note_on_c, 2, 75, 60
4, 54912, Note_on_c, 2, 72, 60
4, 54912, Note_on_c, 2, 77, 60
4, 55100, Note_off_c, 2, 75, 0
4, 55100, Note_off_c, 2, 72, 0
4, 55100, Note_off_c, 2, 77, 0
4, 55292, Note_off_c, 2, 65, 0
4, 55296, Note_on_c, 2, 72, 79
4, 55296, Note_on_c, 2, 75, 79
4, 55296, Note_on_c, 2, 78, 79
4, 55296, Note_on_c, 2, 66, 79
4, 55484, Note_off_c, 2, 72, 0
4, 55484, Note_off_c, 2, 75, 0
4, 55484, Note_off_c, 2, 78, 0
4, 55488, Note_on_c, 2, 78, 60
4, 55488, Note_on_c, 2, 75, 60
4, 55488, Note_on_c, 2, 72, 60
4, 55676, Note_off_c, 2, 78, 0
4, 55676, Note_off_c, 2, 75, 0
4, 55676, Note_off_c, 2, 72, 0
4, 55868, Note_off_c, 2, 66, 0
4, 55872, Note_on_c, 2, 79, 79
4, 55872, Note_on_c, 2, 73, 79
4, 55872, Note_on_c, 2, 76, 79
4, 55872, Note_on_c, 2, 67, 79
4, 56060, Note_off_c, 2, 79, 0
4, 56060, Note_off_c, 2, 73, 0
4, 56060, Note_off_c, 2, 76, 0
4, 56064, Note_on_c, 2, 79, 60
4, 56064, Note_on_c, 2, 76, 60
4, 56064, Note_on_c, 2, 73, 60
4, 56252, Note_off_c, 2, 79, 0
4, 56252, Note_off_c, 2, 76, 0
4, 56252, Note_off_c, 2, 73, 0
4, 56444, Note_off_c, 2, 67, 0
4, 56448, Note_on_c, 2, 81, 79
4, 56448, Note_on_c, 2, 75, 79
4, 56448, Note_on_c, 2, 78, 79
4, 56448, Note_on_c, 2, 69, 79
4, 56636, Note_off_c, 2, 81, 0
4, 56636, Note_off_c, 2, 75, 0
4, 56636, Note_off_c, 2, 78, 0
4, 56640, Note_on_c, 2, 81, 60
4, 56640, Note_on_c, 2, 75, 60
4, 56640, Note_on_c, 2, 78, 60
4, 56828, Note_off_c, 2, 81, 0
4, 56828, Note_off_c, 2, 75, 0
4, 56828, Note_off_c, 2, 78, 0
4, 57020, Note_off_c, 2, 69, 0
4, 57024, Note_on_c, 2, 82, 60
4, 57024, Note_on_c, 2, 79, 60
4, 57024, Note_on_c, 2, 75, 60
4, 57024, Note_on_c, 2, 70, 60
4, 57212, Note_off_c, 2, 82, 0
4, 57212, Note_off_c, 2, 79, 0
4, 57212, Note_off_c, 2, 75, 0
4, 57212, Note_off_c, 2, 70, 0
4, 58176, Note_on_c, 2, 75, 62
4, 58176, Note_on_c, 2, 67, 62
4, 58176, Note_on_c, 2, 63, 62
4, 58748, Note_off_c, 2, 75, 0
4, 58748, Note_off_c, 2, 67, 0
4, 58748, Note_off_c, 2, 63, 0
4, 58752, Note_on_c, 2, 76, 79
4, 58752, Note_on_c, 2, 73, 79
4, 58752, Note_on_c, 2, 64, 79
4, 58940, Note_off_c, 2, 76, 0
4, 58940, Note_off_c, 2, 73, 0
4, 58940, Note_off_c, 2, 64, 0
4, 58944, Note_on_c, 2, 77, 79
4, 58944, Note_on_c, 2, 72, 79
4, 58944, Note_on_c, 2, 65, 79
4, 59132, Note_off_c, 2, 77, 0
4, 59132, Note_off_c, 2, 72, 0
4, 59132, Note_off_c, 2, 65, 0
4, 60480, Note_on_c, 2, 75, 62
4, 60480, Note_on_c, 2, 67, 62
4, 60480, Note_on_c, 2, 63, 62
4, 61052, Note_off_c, 2, 75, 0
4, 61052, Note_off_c, 2, 67, 0
4, 61052, Note_off_c, 2, 63, 0
4, 61056, Note_on_c, 2, 76, 79
4, 61056, Note_on_c, 2, 73, 79
4, 61056, Note_on_c, 2, 64, 79
4, 61244, Note_off_c, 2, 76, 0
4, 61244, Note_off_c, 2, 73, 0
4, 61244, Note_off_c, 2, 64, 0
4, 61248, Note_on_c, 2, 77, 79
4, 61248, Note_on_c, 2, 72, 79
4, 61248, Note_on_c, 2, 65, 79
4, 61436, Note_off_c, 2, 77, 0
4, 61436, Note_off_c, 2, 72, 0
4, 61436, Note_off_c, 2, 65, 0
4, 62880, Note_on_c, 2, 82, 60
4, 62880, Note_on_c, 2, 70, 60
4, 62974, Note_off_c, 2, 82, 0
4, 62974, Note_off_c, 2, 70, 0
4, 62976, Note_on_c, 2, 82, 60
4, 62976, Note_on_c, 2, 70, 60
4, 63070, Note_off_c, 2, 82, 0
4, 63070, Note_off_c, 2, 70, 0
4, 63072, Note_on_c, 2, 82, 60
4, 63072, Note_on_c, 2, 70, 60
4, 63166, Note_off_c, 2, 82, 0
4, 63166, Note_off_c, 2, 70, 0
4, 63456, Note_on_c, 2, 82, 60
4, 63456, Note_on_c, 2, 70, 60
4, 63550, Note_off_c, 2, 82, 0
4, 63550, Note_off_c, 2, 70, 0
4, 63552, Note_on_c, 2, 82, 60
4, 63552, Note_on_c, 2, 70, 60
4, 63646, Note_off_c, 2, 82, 0
4, 63646, Note_off_c, 2, 70, 0
4, 63648, Note_on_c, 2, 82, 60
4, 63648, Note_on_c, 2, 70, 60
4, 63742, Note_off_c, 2, 82, 0
4, 63742, Note_off_c, 2, 70, 0
4, 64032, Note_on_c, 2, 82, 60
4, 64032, Note_on_c, 2, 70, 60
4, 64126, Note_off_c, 2, 82, 0
4, 64126, Note_off_c, 2, 70, 0
4, 64128, Note_on_c, 2, 82, 60
4, 64128, Note_on_c, 2, 70, 60
4, 64222, Note_off_c, 2, 82, 0
4, 64222, Note_off_c, 2, 70, 0
4, 64224, Note_on_c, 2, 82, 60
4, 64224, Note_on_c, 2, 70, 60
4, 64318, Note_off_c, 2, 82, 0
4, 64318, Note_off_c, 2, 70, 0
4, 64512, Note_on_c, 2, 67, 53
4, 64512, Note_on_c, 2, 58, 53
4, 64512, Note_on_c, 2, 63, 53
4, 64606, Note_off_c, 2, 67, 0
4, 64606, Note_off_c, 2, 58, 0
4, 64702, Note_off_c, 2, 63, 0
4, 64704, Note_on_c, 2, 67, 53
4, 64704, Note_on_c, 2, 63, 53
4, 64704, Note_on_c, 2, 58, 53
4, 64798, Note_off_c, 2, 67, 0
4, 64798, Note_off_c, 2, 63, 0
4, 64894, Note_off_c, 2, 58, 0
4, 64896, Note_on_c, 2, 67, 53
4, 64896, Note_on_c, 2, 63, 53
4, 64896, Note_on_c, 2, 58, 53
4, 64896, Note_on_c, 2, 55, 53
4, 64990, Note_off_c, 2, 67, 0
4, 64990, Note_off_c, 2, 63, 0
4, 64990, Note_off_c, 2, 58, 0
4, 65086, Note_off_c, 2, 55, 0
4, 65088, Note_on_c, 2, 67, 53
4, 65088, Note_on_c, 2, 63, 53
4, 65088, Note_on_c, 2, 58, 53
4, 65278, Note_off_c, 2, 67, 0
4, 65278, Note_off_c, 2, 63, 0
4, 65278, Note_off_c, 2, 58, 0
4, 65278, End_track
5, 0, Start_track
5, 0, Title_t, "Midi by: "
5, 0, Control_c, 3, 0, 0
5, 0, Program_c, 3, 48
5, 0, Control_c, 3, 7, 127
5, 0, Control_c, 3, 10, 96
5, 0, Control_c, 3, 91, 66
5, 0, Control_c, 3, 93, 0
5, 0, Key_signature, -3, "minor"
5, 0, Control_c, 3, 121, 0
5, 48, Control_c, 3, 10, 53
5, 96, Control_c, 3, 91, 63
5, 144, Program_c, 3, 48
5, 588, Note_on_c, 3, 39, 60
5, 588, Note_on_c, 3, 27, 60
5, 960, Note_on_c, 3, 46, 60
5, 960, Note_on_c, 3, 34, 60
5, 970, Note_off_c, 3, 39, 0
5, 970, Note_off_c, 3, 27, 0
5, 1150, Note_off_c, 3, 46, 0
5, 1150, Note_off_c, 3, 34, 0
5, 1152, Note_on_c, 3, 48, 60
5, 1152, Note_on_c, 3, 36, 60
5, 1342, Note_off_c, 3, 48, 0
5, 1342, Note_off_c, 3, 36, 0
5, 1344, Note_on_c, 3, 44, 60
5, 1344, Note_on_c, 3, 32, 60
5, 1534, Note_off_c, 3, 44, 0
5, 1534, Note_off_c, 3, 32, 0
5, 1728, Note_on_c, 3, 50, 60
5, 1728, Note_on_c, 3, 38, 60
5, 1918, Note_off_c, 3, 50, 0
5, 1918, Note_off_c, 3, 38, 0
5, 1920, Note_on_c, 3, 51, 60
5, 1920, Note_on_c, 3, 39, 60
5, 2110, Note_off_c, 3, 51, 0
5, 2110, Note_off_c, 3, 39, 0
5, 2112, Note_on_c, 3, 45, 60
5, 2112, Note_on_c, 3, 33, 60
5, 2302, Note_off_c, 3, 45, 0
5, 2302, Note_off_c, 3, 33, 0
5, 2304, Note_on_c, 3, 46, 60
5, 2304, Note_on_c, 3, 34, 60
5, 2494, Note_off_c, 3, 46, 0
5, 2494, Note_off_c, 3, 34, 0
5, 2880, Note_on_c, 3, 51, 60
5, 2880, Note_on_c, 3, 39, 60
5, 3070, Note_off_c, 3, 51, 0
5, 3070, Note_off_c, 3, 39, 0
5, 3264, Note_on_c, 3, 52, 60
5, 3264, Note_on_c, 3, 40, 60
5, 3454, Note_off_c, 3, 52, 0
5, 3454, Note_off_c, 3, 40, 0
5, 3456, Note_on_c, 3, 53, 60
5, 3456, Note_on_c, 3, 41, 60
5, 3646, Note_off_c, 3, 53, 0
5, 3646, Note_off_c, 3, 41, 0
5, 3648, Note_on_c, 3, 54, 60
5, 3648, Note_on_c, 3, 42, 60
5, 3838, Note_off_c, 3, 54, 0
5, 3838, Note_off_c, 3, 42, 0
5, 3840, Note_on_c, 3, 55, 60
5, 3840, Note_on_c, 3, 43, 60
5, 4030, Note_off_c, 3, 55, 0
5, 4030, Note_off_c, 3, 43, 0
5, 4032, Note_on_c, 3, 53, 60
5, 4032, Note_on_c, 3, 41, 60
5, 4222, Note_off_c, 3, 53, 0
5, 4222, Note_off_c, 3, 41, 0
5, 4416, Note_on_c, 3, 41, 60
5, 4416, Note_on_c, 3, 51, 60
5, 4606, Note_off_c, 3, 41, 0
5, 4606, Note_off_c, 3, 51, 0
5, 4608, Note_on_c, 3, 51, 60
5, 4608, Note_on_c, 3, 46, 60
5, 4702, Note_off_c, 3, 51, 0
5, 4704, Note_on_c, 3, 50, 60
5, 4798, Note_off_c, 3, 46, 0
5, 4798, Note_off_c, 3, 50, 0
5, 4800, Note_on_c, 3, 50, 60
5, 4800, Note_on_c, 3, 46, 60
5, 4894, Note_off_c, 3, 50, 0
5, 4894, Note_off_c, 3, 46, 0
5, 9984, Note_on_c, 3, 60, 60
5, 9984, Note_on_c, 3, 48, 60
5, 10174, Note_off_c, 3, 60, 0
5, 10174, Note_off_c, 3, 48, 0
5, 10176, Note_on_c, 3, 58, 60
5, 10176, Note_on_c, 3, 46, 60
5, 10366, Note_off_c, 3, 58, 0
5, 10366, Note_off_c, 3, 46, 0
5, 10368, Note_on_c, 3, 57, 60
5, 10368, Note_on_c, 3, 45, 60
5, 10558, Note_off_c, 3, 57, 0
5, 10558, Note_off_c, 3, 45, 0
5, 10560, Note_on_c, 3, 56, 60
5, 10560, Note_on_c, 3, 44, 60
5, 10942, Note_off_c, 3, 56, 0
5, 10942, Note_off_c, 3, 44, 0
5, 10944, Note_on_c, 3, 55, 60
5, 10944, Note_on_c, 3, 43, 60
5, 11134, Note_off_c, 3, 55, 0
5, 11134, Note_off_c, 3, 43, 0
5, 11136, Note_on_c, 3, 53, 60
5, 11136, Note_on_c, 3, 41, 60
5, 11326, Note_off_c, 3, 53, 0
5, 11326, Note_off_c, 3, 41, 0
5, 11328, Note_on_c, 3, 39, 60
5, 11328, Note_on_c, 3, 51, 60
5, 11518, Note_off_c, 3, 39, 0
5, 11518, Note_off_c, 3, 51, 0
5, 11520, Note_on_c, 3, 46, 60
5, 11520, Note_on_c, 3, 34, 60
5, 11888, Note_on_c, 3, 48, 60
5, 11902, Note_off_c, 3, 46, 0
5, 11902, Note_off_c, 3, 34, 0
5, 11904, Note_on_c, 3, 60, 60
5, 12078, Note_off_c, 3, 48, 0
5, 12094, Note_off_c, 3, 60, 0
5, 12096, Note_on_c, 3, 58, 60
5, 12096, Note_on_c, 3, 46, 60
5, 12478, Note_off_c, 3, 58, 0
5, 12478, Note_off_c, 3, 46, 0
5, 12480, Note_on_c, 3, 56, 60
5, 12480, Note_on_c, 3, 44, 60
5, 12670, Note_off_c, 3, 56, 0
5, 12670, Note_off_c, 3, 44, 0
5, 12672, Note_on_c, 3, 55, 60
5, 12672, Note_on_c, 3, 43, 60
5, 12862, Note_off_c, 3, 55, 0
5, 12862, Note_off_c, 3, 43, 0
5, 12864, Note_on_c, 3, 50, 60
5, 12864, Note_on_c, 3, 38, 60
5, 13152, Note_off_c, 3, 50, 0
5, 13152, Note_off_c, 3, 38, 0
5, 13152, Note_on_c, 3, 39, 60
5, 13152, Note_on_c, 3, 51, 60
5, 13248, Note_off_c, 3, 39, 0
5, 13248, Note_off_c, 3, 51, 0
5, 13248, Note_on_c, 3, 56, 60
5, 13248, Note_on_c, 3, 44, 60
5, 13438, Note_off_c, 3, 56, 0
5, 13438, Note_off_c, 3, 44, 0
5, 13440, Note_on_c, 3, 55, 60
5, 13440, Note_on_c, 3, 46, 60
5, 13630, Note_off_c, 3, 55, 0
5, 13630, Note_off_c, 3, 46, 0
5, 13632, Note_on_c, 3, 46, 60
5, 13822, Note_off_c, 3, 46, 0
5, 13824, Note_on_c, 3, 39, 60
5, 14014, Note_off_c, 3, 39, 0
5, 14016, Note_on_c, 3, 51, 60
5, 14206, Note_off_c, 3, 51, 0
5, 19008, Note_on_c, 3, 39, 60
5, 19008, Note_on_c, 3, 27, 60
5, 19388, Note_off_c, 3, 39, 0
5, 19388, Note_off_c, 3, 27, 0
5, 19392, Note_on_c, 3, 46, 60
5, 19392, Note_on_c, 3, 34, 60
5, 19580, Note_off_c, 3, 46, 0
5, 19580, Note_off_c, 3, 34, 0
5, 19584, Note_on_c, 3, 48, 60
5, 19584, Note_on_c, 3, 36, 60
5, 19772, Note_off_c, 3, 48, 0
5, 19772, Note_off_c, 3, 36, 0
5, 19776, Note_on_c, 3, 44, 60
5, 19776, Note_on_c, 3, 32, 60
5, 19964, Note_off_c, 3, 44, 0
5, 19964, Note_off_c, 3, 32, 0
5, 20160, Note_on_c, 3, 50, 60
5, 20160, Note_on_c, 3, 38, 60
5, 20348, Note_off_c, 3, 50, 0
5, 20348, Note_off_c, 3, 38, 0
5, 20352, Note_on_c, 3, 51, 60
5, 20352, Note_on_c, 3, 39, 60
5, 20540, Note_off_c, 3, 51, 0
5, 20540, Note_off_c, 3, 39, 0
5, 20544, Note_on_c, 3, 45, 60
5, 20544, Note_on_c, 3, 33, 60
5, 20732, Note_off_c, 3, 45, 0
5, 20732, Note_off_c, 3, 33, 0
5, 20736, Note_on_c, 3, 46, 60
5, 20736, Note_on_c, 3, 34, 60
5, 21116, Note_off_c, 3, 46, 0
5, 21116, Note_off_c, 3, 34, 0
5, 21312, Note_on_c, 3, 51, 60
5, 21312, Note_on_c, 3, 39, 60
5, 21500, Note_off_c, 3, 51, 0
5, 21500, Note_off_c, 3, 39, 0
5, 21696, Note_on_c, 3, 52, 60
5, 21696, Note_on_c, 3, 40, 60
5, 21884, Note_off_c, 3, 52, 0
5, 21884, Note_off_c, 3, 40, 0
5, 21888, Note_on_c, 3, 53, 60
5, 21888, Note_on_c, 3, 41, 60
5, 22076, Note_off_c, 3, 53, 0
5, 22076, Note_off_c, 3, 41, 0
5, 22080, Note_on_c, 3, 54, 60
5, 22080, Note_on_c, 3, 42, 60
5, 22268, Note_off_c, 3, 54, 0
5, 22268, Note_off_c, 3, 42, 0
5, 22272, Note_on_c, 3, 55, 60
5, 22272, Note_on_c, 3, 43, 60
5, 22460, Note_off_c, 3, 55, 0
5, 22460, Note_off_c, 3, 43, 0
5, 22464, Note_on_c, 3, 53, 60
5, 22464, Note_on_c, 3, 41, 60
5, 22652, Note_off_c, 3, 53, 0
5, 22656, Note_on_c, 3, 53, 60
5, 22844, Note_off_c, 3, 41, 0
5, 22844, Note_off_c, 3, 53, 0
5, 22848, Note_on_c, 3, 51, 60
5, 22848, Note_on_c, 3, 41, 60
5, 23036, Note_off_c, 3, 51, 0
5, 23036, Note_off_c, 3, 41, 0
5, 23040, Note_on_c, 3, 46, 60
5, 23040, Note_on_c, 3, 34, 60
5, 23228, Note_off_c, 3, 46, 0
5, 23228, Note_off_c, 3, 34, 0
5, 23232, Note_on_c, 3, 34, 60
5, 23232, Note_on_c, 3, 46, 60
5, 23420, Note_off_c, 3, 34, 0
5, 23420, Note_off_c, 3, 46, 64
5, 28224, Note_on_c, 3, 46, 60
5, 28224, Note_on_c, 3, 34, 60
5, 28412, Note_off_c, 3, 46, 0
5, 28412, Note_off_c, 3, 34, 0
5, 28416, Note_on_c, 3, 48, 60
5, 28416, Note_on_c, 3, 36, 60
5, 28604, Note_off_c, 3, 48, 0
5, 28604, Note_off_c, 3, 36, 0
5, 28608, Note_on_c, 3, 46, 60
5, 28608, Note_on_c, 3, 34, 60
5, 28796, Note_off_c, 3, 46, 0
5, 28796, Note_off_c, 3, 34, 0
5, 28800, Note_on_c, 3, 33, 60
5, 28800, Note_on_c, 3, 45, 60
5, 28988, Note_off_c, 3, 33, 0
5, 28988, Note_off_c, 3, 45, 0
5, 28992, Note_on_c, 3, 44, 60
5, 28992, Note_on_c, 3, 32, 60
5, 29372, Note_off_c, 3, 44, 0
5, 29372, Note_off_c, 3, 32, 0
5, 29376, Note_on_c, 3, 43, 60
5, 29376, Note_on_c, 3, 31, 60
5, 29564, Note_off_c, 3, 43, 0
5, 29564, Note_off_c, 3, 31, 0
5, 29568, Note_on_c, 3, 41, 60
5, 29568, Note_on_c, 3, 29, 60
5, 29756, Note_off_c, 3, 41, 0
5, 29756, Note_off_c, 3, 29, 0
5, 29760, Note_on_c, 3, 39, 60
5, 29760, Note_on_c, 3, 27, 60
5, 29948, Note_off_c, 3, 39, 0
5, 29948, Note_off_c, 3, 27, 0
5, 29952, Note_on_c, 3, 46, 60
5, 29952, Note_on_c, 3, 34, 60
5, 30332, Note_off_c, 3, 46, 0
5, 30332, Note_off_c, 3, 34, 0
5, 30336, Note_on_c, 3, 60, 60
5, 30336, Note_on_c, 3, 48, 60
5, 30524, Note_off_c, 3, 60, 0
5, 30524, Note_off_c, 3, 48, 0
5, 30528, Note_on_c, 3, 58, 60
5, 30528, Note_on_c, 3, 46, 60
5, 30908, Note_off_c, 3, 58, 0
5, 30908, Note_off_c, 3, 46, 0
5, 30912, Note_on_c, 3, 56, 60
5, 30912, Note_on_c, 3, 44, 60
5, 31100, Note_off_c, 3, 56, 0
5, 31100, Note_off_c, 3, 44, 0
5, 31104, Note_on_c, 3, 55, 60
5, 31104, Note_on_c, 3, 43, 60
5, 31292, Note_off_c, 3, 55, 0
5, 31292, Note_off_c, 3, 43, 0
5, 31296, Note_on_c, 3, 50, 60
5, 31296, Note_on_c, 3, 38, 60
5, 31580, Note_off_c, 3, 50, 0
5, 31580, Note_off_c, 3, 38, 0
5, 31584, Note_on_c, 3, 51, 60
5, 31584, Note_on_c, 3, 39, 60
5, 31676, Note_off_c, 3, 51, 0
5, 31676, Note_off_c, 3, 39, 0
5, 31680, Note_on_c, 3, 56, 60
5, 31680, Note_on_c, 3, 44, 60
5, 31868, Note_off_c, 3, 56, 0
5, 31868, Note_off_c, 3, 44, 0
5, 31872, Note_on_c, 3, 55, 60
5, 31872, Note_on_c, 3, 46, 60
5, 32060, Note_off_c, 3, 55, 0
5, 32060, Note_off_c, 3, 46, 0
5, 32064, Note_on_c, 3, 58, 60
5, 32064, Note_on_c, 3, 46, 60
5, 32252, Note_off_c, 3, 58, 0
5, 32252, Note_off_c, 3, 46, 0
5, 32256, Note_on_c, 3, 58, 60
5, 32256, Note_on_c, 3, 51, 60
5, 32444, Note_off_c, 3, 58, 0
5, 32444, Note_off_c, 3, 51, 0
5, 32448, Note_on_c, 3, 58, 60
5, 32448, Note_on_c, 3, 51, 60
5, 32636, Note_off_c, 3, 58, 0
5, 32636, Note_off_c, 3, 51, 0
5, 39744, Note_on_c, 3, 58, 60
5, 39744, Note_on_c, 3, 55, 60
5, 39744, Note_on_c, 3, 39, 60
5, 39840, Note_on_c, 3, 60, 60
5, 39932, Note_off_c, 3, 58, 0
5, 39932, Note_off_c, 3, 55, 0
5, 39932, Note_off_c, 3, 39, 0
5, 39936, Note_on_c, 3, 58, 60
5, 39936, Note_on_c, 3, 51, 60
5, 39936, Note_on_c, 3, 43, 60
5, 40028, Note_off_c, 3, 60, 0
5, 40032, Note_on_c, 3, 60, 60
5, 40124, Note_off_c, 3, 58, 0
5, 40124, Note_off_c, 3, 51, 0
5, 40124, Note_off_c, 3, 43, 0
5, 40128, Note_on_c, 3, 58, 60
5, 40128, Note_on_c, 3, 55, 60
5, 40128, Note_on_c, 3, 39, 60
5, 40220, Note_off_c, 3, 60, 0
5, 40224, Note_on_c, 3, 60, 60
5, 40316, Note_off_c, 3, 58, 0
5, 40316, Note_off_c, 3, 55, 0
5, 40316, Note_off_c, 3, 39, 0
5, 40316, Note_off_c, 3, 60, 0
5, 40320, Note_on_c, 3, 60, 60
5, 40320, Note_on_c, 3, 57, 60
5, 40320, Note_on_c, 3, 41, 60
5, 40412, Note_off_c, 3, 60, 0
5, 40412, Note_off_c, 3, 57, 0
5, 40508, Note_off_c, 3, 41, 0
5, 40512, Note_on_c, 3, 54, 60
5, 40512, Note_on_c, 3, 60, 60
5, 40700, Note_off_c, 3, 54, 0
5, 40700, Note_off_c, 3, 60, 0
5, 40704, Note_on_c, 3, 58, 60
5, 40704, Note_on_c, 3, 55, 60
5, 40892, Note_off_c, 3, 58, 0
5, 40892, Note_off_c, 3, 55, 0
5, 40896, Note_on_c, 3, 51, 60
5, 40896, Note_on_c, 3, 63, 60
5, 41084, Note_off_c, 3, 51, 0
5, 41084, Note_off_c, 3, 63, 0
5, 41088, Note_on_c, 3, 53, 60
5, 41276, Note_off_c, 3, 53, 0
5, 41280, Note_on_c, 3, 41, 60
5, 41468, Note_off_c, 3, 41, 0
5, 41472, Note_on_c, 3, 46, 60
5, 41852, Note_off_c, 3, 46, 0
5, 42046, Program_c, 3, 45
5, 42048, Note_on_c, 3, 58, 42
5, 42048, Note_on_c, 3, 51, 42
5, 42236, Note_off_c, 3, 58, 0
5, 42236, Note_off_c, 3, 51, 0
5, 42432, Note_on_c, 3, 56, 42
5, 42432, Note_on_c, 3, 46, 42
5, 42620, Note_off_c, 3, 56, 0
5, 42620, Note_off_c, 3, 46, 0
5, 42624, Note_on_c, 3, 55, 42
5, 42624, Note_on_c, 3, 48, 42
5, 42812, Note_off_c, 3, 55, 0
5, 42812, Note_off_c, 3, 48, 0
5, 42816, Note_on_c, 3, 56, 42
5, 42816, Note_on_c, 3, 44, 42
5, 43004, Note_off_c, 3, 56, 0
5, 43004, Note_off_c, 3, 44, 0
5, 43200, Note_on_c, 3, 58, 42
5, 43200, Note_on_c, 3, 50, 42
5, 43388, Note_off_c, 3, 58, 0
5, 43388, Note_off_c, 3, 50, 0
5, 43392, Note_on_c, 3, 58, 42
5, 43392, Note_on_c, 3, 51, 42
5, 43580, Note_off_c, 3, 58, 0
5, 43580, Note_off_c, 3, 51, 0
5, 43584, Note_on_c, 3, 56, 42
5, 43584, Note_on_c, 3, 44, 42
5, 43772, Note_off_c, 3, 56, 0
5, 43772, Note_off_c, 3, 44, 0
5, 43776, Note_on_c, 3, 55, 42
5, 43776, Note_on_c, 3, 46, 42
5, 43964, Note_off_c, 3, 55, 0
5, 43964, Note_off_c, 3, 46, 0
5, 43968, Note_on_c, 3, 53, 42
5, 43968, Note_on_c, 3, 46, 42
5, 44156, Note_off_c, 3, 53, 0
5, 44156, Note_off_c, 3, 46, 0
5, 44352, Note_on_c, 3, 60, 42
5, 44352, Note_on_c, 3, 51, 42
5, 44540, Note_off_c, 3, 60, 0
5, 44540, Note_off_c, 3, 51, 0
5, 44544, Note_on_c, 3, 55, 42
5, 44544, Note_on_c, 3, 51, 42
5, 44732, Note_off_c, 3, 55, 0
5, 44732, Note_off_c, 3, 51, 0
5, 44736, Note_on_c, 3, 55, 42
5, 44736, Note_on_c, 3, 52, 42
5, 44924, Note_off_c, 3, 55, 0
5, 44924, Note_off_c, 3, 52, 0
5, 44928, Note_on_c, 3, 63, 42
5, 44928, Note_on_c, 3, 53, 42
5, 45116, Note_off_c, 3, 63, 0
5, 45116, Note_off_c, 3, 53, 0
5, 45120, Note_on_c, 3, 60, 42
5, 45120, Note_on_c, 3, 54, 42
5, 45308, Note_off_c, 3, 60, 0
5, 45308, Note_off_c, 3, 54, 0
5, 45312, Note_on_c, 3, 55, 42
5, 45312, Note_on_c, 3, 61, 42
5, 45500, Note_off_c, 3, 55, 0
5, 45500, Note_off_c, 3, 61, 0
5, 45504, Note_on_c, 3, 62, 42
5, 45504, Note_on_c, 3, 53, 42
5, 45692, Note_off_c, 3, 62, 0
5, 45692, Note_off_c, 3, 53, 0
5, 45696, Note_on_c, 3, 65, 42
5, 45888, Note_on_c, 3, 53, 42
5, 45980, Note_off_c, 3, 65, 0
5, 45984, Note_on_c, 3, 63, 42
5, 46076, Note_off_c, 3, 53, 0
5, 46076, Note_off_c, 3, 63, 0
5, 46080, Note_on_c, 3, 53, 42
5, 46080, Note_on_c, 3, 46, 42
5, 46268, Note_off_c, 3, 53, 0
5, 46268, Note_off_c, 3, 46, 0
5, 46272, Note_on_c, 3, 58, 42
5, 46272, Note_on_c, 3, 53, 42
5, 46272, Note_on_c, 3, 46, 42
5, 46460, Note_off_c, 3, 58, 0
5, 46460, Note_off_c, 3, 53, 0
5, 46460, Note_off_c, 3, 46, 0
5, 46654, Program_c, 3, 48
5, 48768, Note_on_c, 3, 60, 60
5, 48768, Note_on_c, 3, 63, 60
5, 48956, Note_off_c, 3, 60, 0
5, 48956, Note_off_c, 3, 63, 0
5, 48960, Note_on_c, 3, 65, 60
5, 48960, Note_on_c, 3, 58, 60
5, 49148, Note_off_c, 3, 65, 0
5, 49148, Note_off_c, 3, 58, 0
5, 49152, Note_on_c, 3, 51, 60
5, 49152, Note_on_c, 3, 63, 60
5, 49340, Note_off_c, 3, 51, 0
5, 49344, Note_on_c, 3, 56, 60
5, 49532, Note_off_c, 3, 63, 0
5, 49532, Note_off_c, 3, 56, 0
5, 49536, Note_on_c, 3, 61, 60
5, 49536, Note_on_c, 3, 49, 60
5, 49724, Note_off_c, 3, 61, 0
5, 49724, Note_off_c, 3, 49, 0
5, 49728, Note_on_c, 3, 54, 60
5, 49728, Note_on_c, 3, 58, 60
5, 49916, Note_off_c, 3, 54, 0
5, 49916, Note_off_c, 3, 58, 0
5, 49920, Note_on_c, 3, 55, 60
5, 50108, Note_off_c, 3, 55, 0
5, 50112, Note_on_c, 3, 56, 60
5, 50252, Note_off_c, 3, 56, 0
5, 50256, Note_on_c, 3, 56, 60
5, 50300, Note_off_c, 3, 56, 0
5, 50304, Note_on_c, 3, 55, 60
5, 50304, Note_on_c, 3, 46, 60
5, 50492, Note_off_c, 3, 55, 0
5, 50492, Note_off_c, 3, 46, 0
5, 50496, Note_on_c, 3, 58, 60
5, 50496, Note_on_c, 3, 46, 60
5, 50684, Note_off_c, 3, 58, 0
5, 50684, Note_off_c, 3, 46, 0
5, 50688, Note_on_c, 3, 58, 60
5, 50688, Note_on_c, 3, 51, 60
5, 50876, Note_off_c, 3, 58, 0
5, 50876, Note_off_c, 3, 51, 0
5, 50880, Note_on_c, 3, 51, 60
5, 50880, Note_on_c, 3, 39, 60
5, 51068, Note_off_c, 3, 51, 0
5, 51068, Note_off_c, 3, 39, 0
5, 51264, Note_on_c, 3, 55, 60
5, 51264, Note_on_c, 3, 58, 60
5, 51452, Note_off_c, 3, 55, 0
5, 51452, Note_off_c, 3, 58, 0
5, 51456, Note_on_c, 3, 56, 60
5, 51456, Note_on_c, 3, 60, 60
5, 51644, Note_off_c, 3, 56, 0
5, 51644, Note_off_c, 3, 60, 0
5, 51648, Note_on_c, 3, 58, 60
5, 51648, Note_on_c, 3, 61, 60
5, 51836, Note_off_c, 3, 58, 0
5, 51836, Note_off_c, 3, 61, 0
5, 51840, Note_on_c, 3, 57, 60
5, 51840, Note_on_c, 3, 60, 60
5, 52028, Note_off_c, 3, 57, 0
5, 52028, Note_off_c, 3, 60, 0
5, 52032, Note_on_c, 3, 56, 72
5, 52032, Note_on_c, 3, 58, 72
5, 52032, Note_on_c, 3, 62, 72
5, 52412, Note_off_c, 3, 56, 0
5, 52412, Note_off_c, 3, 58, 0
5, 52412, Note_off_c, 3, 62, 0
5, 52416, Note_on_c, 3, 55, 60
5, 52416, Note_on_c, 3, 58, 60
5, 52604, Note_off_c, 3, 55, 0
5, 52604, Note_off_c, 3, 58, 0
5, 52608, Note_on_c, 3, 58, 60
5, 52608, Note_on_c, 3, 53, 60
5, 52796, Note_off_c, 3, 58, 0
5, 52796, Note_off_c, 3, 53, 0
5, 52800, Note_on_c, 3, 58, 60
5, 52800, Note_on_c, 3, 51, 60
5, 52988, Note_off_c, 3, 58, 0
5, 52988, Note_off_c, 3, 51, 0
5, 52992, Note_on_c, 3, 58, 60
5, 53086, Note_off_c, 3, 58, 0
5, 53184, Note_on_c, 3, 46, 60
5, 53184, Note_on_c, 3, 58, 60
5, 53276, Note_off_c, 3, 58, 64
5, 53278, Note_off_c, 3, 46, 0
5, 53568, Note_on_c, 3, 46, 60
5, 53948, Note_off_c, 3, 46, 0
5, 53952, Note_on_c, 3, 44, 60
5, 54140, Note_off_c, 3, 44, 0
5, 54144, Note_on_c, 3, 55, 60
5, 54144, Note_on_c, 3, 46, 60
5, 54144, Note_on_c, 3, 43, 60
5, 54332, Note_off_c, 3, 55, 0
5, 54332, Note_off_c, 3, 46, 0
5, 54332, Note_off_c, 3, 43, 0
5, 54336, Note_on_c, 3, 53, 60
5, 54336, Note_on_c, 3, 46, 60
5, 54336, Note_on_c, 3, 41, 60
5, 54524, Note_off_c, 3, 53, 0
5, 54524, Note_off_c, 3, 46, 0
5, 54524, Note_off_c, 3, 41, 0
5, 54528, Note_on_c, 3, 51, 60
5, 54528, Note_on_c, 3, 46, 60
5, 54528, Note_on_c, 3, 39, 60
5, 54716, Note_off_c, 3, 51, 0
5, 54716, Note_off_c, 3, 46, 0
5, 54716, Note_off_c, 3, 39, 0
5, 54720, Note_on_c, 3, 56, 78
5, 54720, Note_on_c, 3, 44, 78
5, 54720, Note_on_c, 3, 51, 78
5, 54908, Note_off_c, 3, 51, 0
5, 54912, Note_on_c, 3, 51, 60
5, 55100, Note_off_c, 3, 51, 0
5, 55292, Note_off_c, 3, 56, 0
5, 55292, Note_off_c, 3, 44, 0
5, 55296, Note_on_c, 3, 57, 78
5, 55296, Note_on_c, 3, 45, 78
5, 55296, Note_on_c, 3, 51, 78
5, 55484, Note_off_c, 3, 51, 0
5, 55488, Note_on_c, 3, 50, 60
5, 55676, Note_off_c, 3, 50, 0
5, 55868, Note_off_c, 3, 57, 0
5, 55868, Note_off_c, 3, 45, 0
5, 55872, Note_on_c, 3, 58, 78
5, 55872, Note_on_c, 3, 46, 78
5, 55872, Note_on_c, 3, 51, 78
5, 56060, Note_off_c, 3, 51, 0
5, 56064, Note_on_c, 3, 51, 60
5, 56252, Note_off_c, 3, 51, 0
5, 56444, Note_off_c, 3, 58, 0
5, 56444, Note_off_c, 3, 46, 0
5, 56448, Note_on_c, 3, 60, 78
5, 56448, Note_on_c, 3, 48, 78
5, 56448, Note_on_c, 3, 54, 78
5, 56448, Note_on_c, 3, 51, 78
5, 56636, Note_off_c, 3, 54, 0
5, 56636, Note_off_c, 3, 51, 0
5, 56640, Note_on_c, 3, 51, 60
5, 56640, Note_on_c, 3, 54, 60
5, 56828, Note_off_c, 3, 51, 0
5, 56828, Note_off_c, 3, 54, 0
5, 57020, Note_off_c, 3, 60, 0
5, 57020, Note_off_c, 3, 48, 0
5, 57024, Note_on_c, 3, 58, 60
5, 57024, Note_on_c, 3, 55, 60
5, 57024, Note_on_c, 3, 51, 60
5, 57024, Note_on_c, 3, 46, 60
5, 57212, Note_off_c, 3, 58, 0
5, 57212, Note_off_c, 3, 55, 0
5, 57212, Note_off_c, 3, 51, 0
5, 57212, Note_off_c, 3, 46, 0
5, 58176, Note_on_c, 3, 51, 62
5, 58368, Note_on_c, 3, 61, 69
5, 58368, Note_on_c, 3, 49, 69
5, 58556, Note_off_c, 3, 61, 0
5, 58556, Note_off_c, 3, 49, 0
5, 58560, Note_on_c, 3, 60, 73
5, 58560, Note_on_c, 3, 48, 73
5, 58748, Note_off_c, 3, 51, 0
5, 58748, Note_off_c, 3, 60, 0
5, 58748, Note_off_c, 3, 48, 0
5, 58752, Note_on_c, 3, 58, 78
5, 58752, Note_on_c, 3, 55, 78
5, 58752, Note_on_c, 3, 46, 78
5, 58940, Note_off_c, 3, 58, 0
5, 58940, Note_off_c, 3, 55, 0
5, 58940, Note_off_c, 3, 46, 0
5, 58944, Note_on_c, 3, 56, 85
5, 58944, Note_on_c, 3, 44, 85
5, 59132, Note_off_c, 3, 56, 0
5, 59132, Note_off_c, 3, 44, 0
5, 60480, Note_on_c, 3, 51, 62
5, 60672, Note_on_c, 3, 61, 69
5, 60672, Note_on_c, 3, 49, 69
5, 60860, Note_off_c, 3, 61, 0
5, 60860, Note_off_c, 3, 49, 0
5, 60864, Note_on_c, 3, 60, 73
5, 60864, Note_on_c, 3, 48, 73
5, 61052, Note_off_c, 3, 51, 0
5, 61052, Note_off_c, 3, 60, 0
5, 61052, Note_off_c, 3, 48, 0
5, 61056, Note_on_c, 3, 58, 78
5, 61056, Note_on_c, 3, 55, 78
5, 61056, Note_on_c, 3, 46, 78
5, 61244, Note_off_c, 3, 58, 0
5, 61244, Note_off_c, 3, 55, 0
5, 61244, Note_off_c, 3, 46, 0
5, 61248, Note_on_c, 3, 56, 78
5, 61248, Note_on_c, 3, 44, 78
5, 61436, Note_off_c, 3, 56, 0
5, 61436, Note_off_c, 3, 44, 0
5, 62880, Note_on_c, 3, 58, 60
5, 62880, Note_on_c, 3, 46, 60
5, 62972, Note_off_c, 3, 58, 0
5, 62972, Note_off_c, 3, 46, 0
5, 62976, Note_on_c, 3, 58, 60
5, 62976, Note_on_c, 3, 46, 60
5, 63068, Note_off_c, 3, 58, 0
5, 63068, Note_off_c, 3, 46, 0
5, 63072, Note_on_c, 3, 58, 60
5, 63072, Note_on_c, 3, 46, 60
5, 63164, Note_off_c, 3, 58, 0
5, 63164, Note_off_c, 3, 46, 0
5, 63456, Note_on_c, 3, 58, 60
5, 63456, Note_on_c, 3, 46, 60
5, 63548, Note_off_c, 3, 58, 0
5, 63548, Note_off_c, 3, 46, 0
5, 63552, Note_on_c, 3, 58, 60
5, 63552, Note_on_c, 3, 46, 60
5, 63644, Note_off_c, 3, 58, 0
5, 63644, Note_off_c, 3, 46, 0
5, 63648, Note_on_c, 3, 58, 60
5, 63648, Note_on_c, 3, 46, 60
5, 63740, Note_off_c, 3, 58, 0
5, 63740, Note_off_c, 3, 46, 0
5, 64032, Note_on_c, 3, 58, 60
5, 64032, Note_on_c, 3, 46, 60
5, 64124, Note_off_c, 3, 58, 0
5, 64124, Note_off_c, 3, 46, 0
5, 64128, Note_on_c, 3, 58, 60
5, 64128, Note_on_c, 3, 46, 60
5, 64220, Note_off_c, 3, 58, 0
5, 64220, Note_off_c, 3, 46, 0
5, 64224, Note_on_c, 3, 58, 60
5, 64224, Note_on_c, 3, 46, 60
5, 64316, Note_off_c, 3, 58, 0
5, 64316, Note_off_c, 3, 46, 0
5, 64512, Note_on_c, 3, 51, 52
5, 64512, Note_on_c, 3, 39, 52
5, 64604, Note_off_c, 3, 51, 0
5, 64604, Note_off_c, 3, 39, 0
5, 64704, Note_on_c, 3, 51, 52
5, 64704, Note_on_c, 3, 39, 52
5, 64796, Note_off_c, 3, 51, 0
5, 64796, Note_off_c, 3, 39, 0
5, 64896, Note_on_c, 3, 51, 52
5, 64896, Note_on_c, 3, 39, 52
5, 64988, Note_off_c, 3, 51, 0
5, 64988, Note_off_c, 3, 39, 0
5, 65088, Note_on_c, 3, 39, 52
5, 65088, Note_on_c, 3, 51, 52
5, 65276, Note_off_c, 3, 39, 0
5, 65276, Note_off_c, 3, 51, 0
5, 65276, End_track
6, 0, Start_track
6, 0, Title_t, "B.Fisher"
6, 0, Control_c, 4, 7, 100
6, 0, Control_c, 4, 10, 63
6, 0, Control_c, 4, 91, 63
6, 0, Control_c, 4, 93, 2
6, 0, Key_signature, -3, "minor"
6, 0, End_track
0, 0, End_of_file
