0, 0, Header, 1, 16, 384
1, 0, Start_track
1, 0, Time_signature, 4, 2, 96, 8
1, 0, Sequencer_specific, 3, 0, 0, 65
1, 0, Tempo, 517241
1, 0, End_track
2, 0, Start_track
2, 0, Title_t, "Mozart"
2, 0, Control_c, 0, 0, 0
2, 0, Program_c, 0, 0
2, 0, Control_c, 0, 7, 80
2, 0, Control_c, 0, 10, 77
2, 0, Control_c, 0, 91, 73
2, 0, Control_c, 0, 93, 59
2, 0, Key_signature, -2, "minor"
2, 0, Control_c, 0, 121, 0
2, 96, Control_c, 0, 10, 73
2, 144, Control_c, 0, 91, 73
2, 192, Control_c, 0, 93, 50
2, 288, Program_c, 0, 0
2, 2688, Note_on_c, 0, 79, 82
2, 2752, Note_off_c, 0, 79, 100
2, 2784, Note_on_c, 0, 77, 82
2, 2848, Note_off_c, 0, 77, 100
2, 2880, Note_on_c, 0, 75, 82
2, 2944, Note_off_c, 0, 75, 100
2, 2976, Note_on_c, 0, 74, 82
2, 3040, Note_off_c, 0, 74, 100
2, 3072, Note_on_c, 0, 72, 82
2, 3200, Note_off_c, 0, 72, 100
2, 3264, Note_on_c, 0, 70, 82
2, 3264, Note_on_c, 0, 60, 60
2, 3384, Note_off_c, 0, 60, 100
2, 3392, Note_off_c, 0, 70, 100
2, 3456, Note_on_c, 0, 70, 82
2, 3456, Note_on_c, 0, 62, 60
2, 3576, Note_off_c, 0, 62, 100
2, 3648, Note_on_c, 0, 65, 60
2, 3768, Note_off_c, 0, 65, 100
2, 3836, Note_off_c, 0, 70, 100
2, 3840, Note_on_c, 0, 62, 60
2, 3960, Note_off_c, 0, 62, 100
2, 4032, Note_on_c, 0, 74, 82
2, 4032, Note_on_c, 0, 58, 60
2, 4152, Note_off_c, 0, 58, 100
2, 4160, Note_off_c, 0, 74, 100
2, 4224, Note_on_c, 0, 79, 82
2, 4224, Note_on_c, 0, 62, 60
2, 4344, Note_off_c, 0, 62, 100
2, 4352, Note_off_c, 0, 79, 100
2, 4416, Note_on_c, 0, 74, 82
2, 4416, Note_on_c, 0, 67, 60
2, 4536, Note_off_c, 0, 67, 100
2, 4544, Note_off_c, 0, 74, 100
2, 4608, Note_on_c, 0, 77, 82
2, 4800, Note_on_c, 0, 60, 60
2, 4864, Note_off_c, 0, 77, 100
2, 4920, Note_off_c, 0, 60, 100
2, 4992, Note_on_c, 0, 75, 82
2, 4992, Note_on_c, 0, 63, 60
2, 5112, Note_off_c, 0, 63, 100
2, 5184, Note_on_c, 0, 65, 60
2, 5304, Note_off_c, 0, 65, 100
2, 5376, Note_off_c, 0, 75, 100
2, 5376, Note_on_c, 0, 63, 60
2, 5496, Note_off_c, 0, 63, 100
2, 5568, Note_on_c, 0, 77, 82
2, 5568, Note_on_c, 0, 58, 60
2, 5632, Note_off_c, 0, 77, 100
2, 5664, Note_on_c, 0, 79, 82
2, 5688, Note_off_c, 0, 58, 100
2, 5728, Note_off_c, 0, 79, 100
2, 5760, Note_on_c, 0, 77, 82
2, 5760, Note_on_c, 0, 63, 60
2, 5824, Note_off_c, 0, 77, 100
2, 5856, Note_on_c, 0, 75, 82
2, 5880, Note_off_c, 0, 63, 100
2, 5920, Note_off_c, 0, 75, 100
2, 5952, Note_on_c, 0, 74, 82
2, 5952, Note_on_c, 0, 67, 60
2, 6016, Note_off_c, 0, 74, 100
2, 6048, Note_on_c, 0, 72, 82
2, 6072, Note_off_c, 0, 67, 100
2, 6112, Note_off_c, 0, 72, 100
2, 6144, Note_on_c, 0, 70, 82
2, 6400, Note_off_c, 0, 70, 100
2, 6528, Note_on_c, 0, 69, 82
2, 6908, Note_off_c, 0, 69, 100
2, 7104, Note_on_c, 0, 69, 82
2, 7232, Note_off_c, 0, 69, 100
2, 7296, Note_on_c, 0, 70, 82
2, 7424, Note_off_c, 0, 70, 100
2, 7488, Note_on_c, 0, 72, 82
2, 7616, Note_off_c, 0, 72, 100
2, 7680, Note_on_c, 0, 72, 82
2, 7680, Note_on_c, 0, 69, 82
2, 7872, Note_on_c, 0, 58, 60
2, 7936, Note_off_c, 0, 72, 100
2, 7936, Note_off_c, 0, 69, 100
2, 7992, Note_off_c, 0, 58, 100
2, 8064, Note_on_c, 0, 74, 82
2, 8064, Note_on_c, 0, 70, 82
2, 8064, Note_on_c, 0, 62, 60
2, 8184, Note_off_c, 0, 62, 100
2, 8256, Note_on_c, 0, 65, 60
2, 8320, Note_off_c, 0, 74, 100
2, 8320, Note_off_c, 0, 70, 100
2, 8376, Note_off_c, 0, 65, 100
2, 8448, Note_on_c, 0, 62, 60
2, 8568, Note_off_c, 0, 62, 100
2, 8640, Note_on_c, 0, 77, 82
2, 8640, Note_on_c, 0, 58, 60
2, 8704, Note_off_c, 0, 77, 100
2, 8736, Note_on_c, 0, 76, 82
2, 8760, Note_off_c, 0, 58, 100
2, 8800, Note_off_c, 0, 76, 100
2, 8832, Note_on_c, 0, 79, 82
2, 8832, Note_on_c, 0, 62, 60
2, 8896, Note_off_c, 0, 79, 100
2, 8928, Note_on_c, 0, 77, 82
2, 8952, Note_off_c, 0, 62, 100
2, 8992, Note_off_c, 0, 77, 100
2, 9024, Note_on_c, 0, 75, 82
2, 9024, Note_on_c, 0, 65, 60
2, 9088, Note_off_c, 0, 75, 100
2, 9120, Note_on_c, 0, 74, 82
2, 9144, Note_off_c, 0, 65, 100
2, 9184, Note_off_c, 0, 74, 100
2, 9216, Note_on_c, 0, 74, 82
2, 9216, Note_on_c, 0, 63, 60
2, 9336, Note_off_c, 0, 63, 100
2, 9344, Note_off_c, 0, 74, 100
2, 9408, Note_on_c, 0, 72, 82
2, 9408, Note_on_c, 0, 67, 60
2, 9528, Note_off_c, 0, 67, 100
2, 9600, Note_on_c, 0, 62, 60
2, 9664, Note_off_c, 0, 72, 100
2, 9720, Note_off_c, 0, 62, 100
2, 9792, Note_on_c, 0, 70, 82
2, 9792, Note_on_c, 0, 65, 60
2, 9912, Note_off_c, 0, 65, 100
2, 9920, Note_off_c, 0, 70, 100
2, 9984, Note_on_c, 0, 74, 82
2, 9984, Note_on_c, 0, 63, 60
2, 10104, Note_off_c, 0, 63, 100
2, 10112, Note_off_c, 0, 74, 100
2, 10176, Note_on_c, 0, 72, 82
2, 10176, Note_on_c, 0, 67, 60
2, 10296, Note_off_c, 0, 67, 100
2, 10368, Note_on_c, 0, 60, 60
2, 10432, Note_off_c, 0, 72, 100
2, 10488, Note_off_c, 0, 60, 100
2, 10560, Note_on_c, 0, 69, 82
2, 10560, Note_on_c, 0, 63, 60
2, 10680, Note_off_c, 0, 63, 100
2, 10688, Note_off_c, 0, 69, 100
2, 10752, Note_on_c, 0, 70, 82
2, 10752, Note_on_c, 0, 62, 60
2, 10752, Note_on_c, 0, 65, 60
2, 10816, Note_off_c, 0, 70, 100
2, 10848, Note_on_c, 0, 72, 82
2, 10912, Note_off_c, 0, 72, 100
2, 10944, Note_on_c, 0, 70, 82
2, 11008, Note_off_c, 0, 70, 100
2, 11016, Note_off_c, 0, 62, 100
2, 11016, Note_off_c, 0, 65, 100
2, 11040, Note_on_c, 0, 69, 82
2, 11104, Note_off_c, 0, 69, 100
2, 11136, Note_on_c, 0, 70, 82
2, 11200, Note_off_c, 0, 70, 100
2, 11232, Note_on_c, 0, 72, 82
2, 11296, Note_off_c, 0, 72, 100
2, 11328, Note_on_c, 0, 74, 82
2, 11392, Note_off_c, 0, 74, 100
2, 11424, Note_on_c, 0, 75, 82
2, 11488, Note_off_c, 0, 75, 100
2, 11520, Note_on_c, 0, 76, 82
2, 11584, Note_off_c, 0, 76, 100
2, 11616, Note_on_c, 0, 77, 82
2, 11680, Note_off_c, 0, 77, 100
2, 11712, Note_on_c, 0, 76, 82
2, 11776, Note_off_c, 0, 76, 100
2, 11808, Note_on_c, 0, 77, 82
2, 11872, Note_off_c, 0, 77, 100
2, 11904, Note_on_c, 0, 79, 82
2, 11968, Note_off_c, 0, 79, 100
2, 12000, Note_on_c, 0, 77, 82
2, 12064, Note_off_c, 0, 77, 100
2, 12096, Note_on_c, 0, 75, 82
2, 12160, Note_off_c, 0, 75, 100
2, 12192, Note_on_c, 0, 74, 82
2, 12256, Note_off_c, 0, 74, 100
2, 12288, Note_on_c, 0, 74, 82
2, 12288, Note_on_c, 0, 63, 60
2, 12408, Note_off_c, 0, 63, 100
2, 12416, Note_off_c, 0, 74, 100
2, 12480, Note_on_c, 0, 72, 82
2, 12480, Note_on_c, 0, 67, 60
2, 12600, Note_off_c, 0, 67, 100
2, 12608, Note_off_c, 0, 72, 100
2, 12672, Note_on_c, 0, 72, 82
2, 12672, Note_on_c, 0, 62, 60
2, 12792, Note_off_c, 0, 62, 100
2, 12800, Note_off_c, 0, 72, 100
2, 12864, Note_on_c, 0, 70, 82
2, 12864, Note_on_c, 0, 65, 60
2, 12984, Note_off_c, 0, 65, 100
2, 12992, Note_off_c, 0, 70, 100
2, 13056, Note_on_c, 0, 74, 82
2, 13056, Note_on_c, 0, 63, 60
2, 13176, Note_off_c, 0, 63, 100
2, 13184, Note_off_c, 0, 74, 100
2, 13248, Note_on_c, 0, 72, 82
2, 13248, Note_on_c, 0, 67, 60
2, 13368, Note_off_c, 0, 67, 100
2, 13376, Note_off_c, 0, 72, 100
2, 13440, Note_on_c, 0, 72, 82
2, 13440, Note_on_c, 0, 60, 60
2, 13560, Note_off_c, 0, 60, 100
2, 13568, Note_off_c, 0, 72, 100
2, 13632, Note_on_c, 0, 69, 82
2, 13632, Note_on_c, 0, 63, 60
2, 13752, Note_off_c, 0, 63, 100
2, 13760, Note_off_c, 0, 69, 100
2, 13824, Note_on_c, 0, 70, 82
2, 13824, Note_on_c, 0, 62, 60
2, 13824, Note_on_c, 0, 65, 60
2, 13952, Note_off_c, 0, 70, 100
2, 14016, Note_on_c, 0, 72, 82
2, 14080, Note_off_c, 0, 72, 100
2, 14088, Note_off_c, 0, 62, 100
2, 14088, Note_off_c, 0, 65, 100
2, 14112, Note_on_c, 0, 74, 82
2, 14176, Note_off_c, 0, 74, 100
2, 14208, Note_on_c, 0, 75, 82
2, 14272, Note_off_c, 0, 75, 100
2, 14304, Note_on_c, 0, 77, 82
2, 14368, Note_off_c, 0, 77, 100
2, 14400, Note_on_c, 0, 79, 82
2, 14464, Note_off_c, 0, 79, 100
2, 14496, Note_on_c, 0, 81, 82
2, 14560, Note_off_c, 0, 81, 100
2, 14592, Note_on_c, 0, 82, 82
2, 14656, Note_off_c, 0, 82, 100
2, 14688, Note_on_c, 0, 84, 82
2, 14752, Note_off_c, 0, 84, 100
2, 14784, Note_on_c, 0, 86, 82
2, 14848, Note_off_c, 0, 86, 100
2, 14880, Note_on_c, 0, 87, 82
2, 14944, Note_off_c, 0, 87, 100
2, 14976, Note_on_c, 0, 89, 82
2, 15104, Note_off_c, 0, 89, 100
2, 15168, Note_on_c, 0, 89, 82
2, 15296, Note_off_c, 0, 89, 100
2, 15360, Note_on_c, 0, 89, 90
2, 15360, Note_on_c, 0, 77, 90
2, 15488, Note_off_c, 0, 89, 100
2, 15552, Note_on_c, 0, 87, 90
2, 15808, Note_off_c, 0, 87, 100
2, 15872, Note_off_c, 0, 77, 100
2, 15936, Note_on_c, 0, 86, 90
2, 16064, Note_off_c, 0, 86, 100
2, 16128, Note_on_c, 0, 77, 90
2, 16128, Note_on_c, 0, 86, 90
2, 16256, Note_off_c, 0, 77, 100
2, 16256, Note_off_c, 0, 86, 100
2, 16320, Note_on_c, 0, 75, 90
2, 16320, Note_on_c, 0, 84, 90
2, 16448, Note_off_c, 0, 75, 100
2, 16448, Note_off_c, 0, 84, 100
2, 16512, Note_on_c, 0, 82, 90
2, 16512, Note_on_c, 0, 74, 90
2, 16640, Note_off_c, 0, 82, 100
2, 16640, Note_off_c, 0, 74, 100
2, 16704, Note_on_c, 0, 81, 90
2, 16704, Note_on_c, 0, 72, 90
2, 16832, Note_off_c, 0, 81, 100
2, 16832, Note_off_c, 0, 72, 100
2, 16896, Note_on_c, 0, 82, 90
2, 16896, Note_on_c, 0, 74, 90
2, 16896, Note_on_c, 0, 82, 90
2, 17152, Note_off_c, 0, 82, 100
2, 17152, Note_off_c, 0, 74, 100
2, 17152, Note_off_c, 0, 82, 100
2, 17280, Note_on_c, 0, 70, 90
2, 17536, Note_off_c, 0, 70, 100
2, 18048, Note_on_c, 0, 67, 60
2, 18112, Note_off_c, 0, 67, 100
2, 18144, Note_on_c, 0, 65, 60
2, 18208, Note_off_c, 0, 65, 100
2, 18240, Note_on_c, 0, 63, 60
2, 18304, Note_off_c, 0, 63, 100
2, 18336, Note_on_c, 0, 62, 60
2, 18400, Note_off_c, 0, 62, 100
2, 18432, Note_on_c, 0, 60, 60
2, 18560, Note_off_c, 0, 60, 100
2, 18624, Note_on_c, 0, 58, 60
2, 18752, Note_off_c, 0, 58, 100
2, 18816, Note_on_c, 0, 58, 60
2, 19196, Note_off_c, 0, 58, 100
2, 19392, Note_on_c, 0, 70, 60
2, 19520, Note_off_c, 0, 70, 100
2, 19584, Note_on_c, 0, 69, 60
2, 19712, Note_off_c, 0, 69, 100
2, 19776, Note_on_c, 0, 67, 60
2, 19904, Note_off_c, 0, 67, 100
2, 19968, Note_on_c, 0, 65, 60
2, 20224, Note_off_c, 0, 65, 100
2, 20352, Note_on_c, 0, 63, 60
2, 20608, Note_off_c, 0, 63, 100
2, 20736, Note_on_c, 0, 63, 60
2, 20800, Note_off_c, 0, 63, 100
2, 20832, Note_on_c, 0, 67, 60
2, 20896, Note_off_c, 0, 67, 100
2, 20928, Note_on_c, 0, 65, 60
2, 20992, Note_off_c, 0, 65, 100
2, 21024, Note_on_c, 0, 69, 60
2, 21088, Note_off_c, 0, 69, 100
2, 21120, Note_on_c, 0, 67, 60
2, 21184, Note_off_c, 0, 67, 100
2, 21216, Note_on_c, 0, 70, 60
2, 21280, Note_off_c, 0, 70, 100
2, 21312, Note_on_c, 0, 69, 60
2, 21376, Note_off_c, 0, 69, 100
2, 21408, Note_on_c, 0, 72, 60
2, 21472, Note_off_c, 0, 72, 100
2, 21504, Note_on_c, 0, 70, 60
2, 21568, Note_off_c, 0, 70, 100
2, 21600, Note_on_c, 0, 67, 60
2, 21664, Note_off_c, 0, 67, 100
2, 21696, Note_on_c, 0, 76, 60
2, 21760, Note_off_c, 0, 76, 100
2, 21792, Note_on_c, 0, 72, 60
2, 21856, Note_off_c, 0, 72, 100
2, 21888, Note_on_c, 0, 79, 60
2, 21952, Note_off_c, 0, 79, 100
2, 21984, Note_on_c, 0, 76, 60
2, 22048, Note_off_c, 0, 76, 100
2, 22080, Note_on_c, 0, 82, 60
2, 22144, Note_off_c, 0, 82, 100
2, 22176, Note_on_c, 0, 81, 60
2, 22240, Note_off_c, 0, 81, 100
2, 22272, Note_on_c, 0, 82, 60
2, 22336, Note_off_c, 0, 82, 100
2, 22368, Note_on_c, 0, 81, 60
2, 22432, Note_off_c, 0, 81, 100
2, 22464, Note_on_c, 0, 79, 60
2, 22528, Note_off_c, 0, 79, 100
2, 22560, Note_on_c, 0, 77, 60
2, 22624, Note_off_c, 0, 77, 100
2, 22656, Note_on_c, 0, 76, 60
2, 22720, Note_off_c, 0, 76, 100
2, 22752, Note_on_c, 0, 74, 60
2, 22816, Note_off_c, 0, 74, 100
2, 22848, Note_on_c, 0, 72, 60
2, 22912, Note_off_c, 0, 72, 100
2, 22944, Note_on_c, 0, 70, 60
2, 23008, Note_off_c, 0, 70, 100
2, 23040, Note_on_c, 0, 70, 60
2, 23104, Note_off_c, 0, 70, 100
2, 23136, Note_on_c, 0, 69, 60
2, 23200, Note_off_c, 0, 69, 100
2, 23232, Note_on_c, 0, 74, 60
2, 23296, Note_off_c, 0, 74, 100
2, 23328, Note_on_c, 0, 72, 60
2, 23392, Note_off_c, 0, 72, 100
2, 23424, Note_on_c, 0, 72, 60
2, 23680, Note_off_c, 0, 72, 100
2, 24192, Note_on_c, 0, 86, 60
2, 24256, Note_off_c, 0, 86, 100
2, 24288, Note_on_c, 0, 84, 60
2, 24352, Note_off_c, 0, 84, 100
2, 24384, Note_on_c, 0, 82, 60
2, 24448, Note_off_c, 0, 82, 100
2, 24480, Note_on_c, 0, 81, 60
2, 24544, Note_off_c, 0, 81, 100
2, 24576, Note_on_c, 0, 79, 60
2, 24956, Note_off_c, 0, 79, 100
2, 25152, Note_on_c, 0, 76, 60
2, 25280, Note_off_c, 0, 76, 100
2, 25344, Note_on_c, 0, 77, 61
2, 25408, Note_off_c, 0, 77, 100
2, 25440, Note_on_c, 0, 84, 61
2, 25504, Note_off_c, 0, 84, 100
2, 25536, Note_on_c, 0, 83, 63
2, 25600, Note_off_c, 0, 83, 100
2, 25632, Note_on_c, 0, 84, 64
2, 25696, Note_off_c, 0, 84, 100
2, 25728, Note_on_c, 0, 86, 66
2, 25792, Note_off_c, 0, 86, 100
2, 25824, Note_on_c, 0, 84, 66
2, 25888, Note_off_c, 0, 84, 100
2, 25920, Note_on_c, 0, 82, 67
2, 25984, Note_off_c, 0, 82, 100
2, 26016, Note_on_c, 0, 81, 67
2, 26080, Note_off_c, 0, 81, 100
2, 26112, Note_on_c, 0, 79, 69
2, 26240, Note_off_c, 0, 79, 100
2, 26304, Note_on_c, 0, 79, 70
2, 26560, Note_off_c, 0, 79, 100
2, 26688, Note_on_c, 0, 76, 72
2, 26816, Note_off_c, 0, 76, 100
2, 26880, Note_on_c, 0, 77, 73
2, 26944, Note_off_c, 0, 77, 100
2, 26976, Note_on_c, 0, 84, 74
2, 27040, Note_off_c, 0, 84, 100
2, 27072, Note_on_c, 0, 83, 76
2, 27136, Note_off_c, 0, 83, 100
2, 27168, Note_on_c, 0, 84, 78
2, 27232, Note_off_c, 0, 84, 100
2, 27264, Note_on_c, 0, 86, 78
2, 27328, Note_off_c, 0, 86, 100
2, 27360, Note_on_c, 0, 84, 79
2, 27424, Note_off_c, 0, 84, 100
2, 27456, Note_on_c, 0, 82, 80
2, 27520, Note_off_c, 0, 82, 100
2, 27552, Note_on_c, 0, 81, 82
2, 27616, Note_off_c, 0, 81, 100
2, 27648, Note_on_c, 0, 81, 82
2, 27776, Note_off_c, 0, 81, 100
2, 27840, Note_on_c, 0, 79, 84
2, 27968, Note_off_c, 0, 79, 100
2, 28224, Note_on_c, 0, 79, 85
2, 28352, Note_off_c, 0, 79, 100
2, 28416, Note_on_c, 0, 79, 86
2, 28544, Note_off_c, 0, 79, 100
2, 28608, Note_on_c, 0, 77, 86
2, 28736, Note_off_c, 0, 77, 100
2, 28992, Note_on_c, 0, 77, 88
2, 29120, Note_off_c, 0, 77, 100
2, 29184, Note_on_c, 0, 76, 90
2, 29184, Note_on_c, 0, 60, 90
2, 29248, Note_off_c, 0, 76, 100
2, 29280, Note_on_c, 0, 77, 90
2, 29344, Note_off_c, 0, 77, 100
2, 29376, Note_on_c, 0, 76, 90
2, 29440, Note_off_c, 0, 76, 100
2, 29448, Note_off_c, 0, 60, 100
2, 29472, Note_on_c, 0, 72, 90
2, 29536, Note_off_c, 0, 72, 100
2, 29568, Note_on_c, 0, 77, 90
2, 29568, Note_on_c, 0, 62, 90
2, 29632, Note_off_c, 0, 77, 100
2, 29664, Note_on_c, 0, 79, 90
2, 29728, Note_off_c, 0, 79, 100
2, 29760, Note_on_c, 0, 77, 90
2, 29824, Note_off_c, 0, 77, 100
2, 29832, Note_off_c, 0, 62, 100
2, 29856, Note_on_c, 0, 72, 90
2, 29920, Note_off_c, 0, 72, 100
2, 29952, Note_on_c, 0, 79, 90
2, 29952, Note_on_c, 0, 64, 90
2, 30016, Note_off_c, 0, 79, 100
2, 30048, Note_on_c, 0, 81, 90
2, 30112, Note_off_c, 0, 81, 100
2, 30144, Note_on_c, 0, 79, 90
2, 30208, Note_off_c, 0, 79, 100
2, 30216, Note_off_c, 0, 64, 100
2, 30240, Note_on_c, 0, 72, 90
2, 30304, Note_off_c, 0, 72, 100
2, 30336, Note_on_c, 0, 81, 90
2, 30336, Note_on_c, 0, 65, 90
2, 30400, Note_off_c, 0, 81, 100
2, 30432, Note_on_c, 0, 82, 90
2, 30496, Note_off_c, 0, 82, 100
2, 30528, Note_on_c, 0, 81, 90
2, 30592, Note_off_c, 0, 81, 100
2, 30600, Note_off_c, 0, 65, 100
2, 30624, Note_on_c, 0, 72, 90
2, 30688, Note_off_c, 0, 72, 100
2, 30720, Note_on_c, 0, 82, 90
2, 30720, Note_on_c, 0, 67, 90
2, 30840, Note_off_c, 0, 67, 100
2, 30848, Note_off_c, 0, 82, 100
2, 30912, Note_on_c, 0, 82, 90
2, 30912, Note_on_c, 0, 72, 90
2, 31032, Note_off_c, 0, 72, 100
2, 31040, Note_off_c, 0, 82, 100
2, 31104, Note_on_c, 0, 64, 90
2, 31224, Note_off_c, 0, 64, 100
2, 31296, Note_on_c, 0, 79, 90
2, 31296, Note_on_c, 0, 72, 90
2, 31416, Note_off_c, 0, 72, 100
2, 31424, Note_off_c, 0, 79, 100
2, 31488, Note_on_c, 0, 82, 90
2, 31488, Note_on_c, 0, 65, 90
2, 31608, Note_off_c, 0, 65, 100
2, 31616, Note_off_c, 0, 82, 100
2, 31680, Note_on_c, 0, 81, 90
2, 31680, Note_on_c, 0, 72, 90
2, 31800, Note_off_c, 0, 72, 100
2, 31808, Note_off_c, 0, 81, 100
2, 31872, Note_on_c, 0, 79, 90
2, 31872, Note_on_c, 0, 62, 90
2, 31992, Note_off_c, 0, 62, 100
2, 32000, Note_off_c, 0, 79, 100
2, 32064, Note_on_c, 0, 77, 90
2, 32064, Note_on_c, 0, 72, 90
2, 32184, Note_off_c, 0, 72, 100
2, 32192, Note_off_c, 0, 77, 100
2, 32256, Note_on_c, 0, 76, 90
2, 32256, Note_on_c, 0, 60, 90
2, 32320, Note_off_c, 0, 76, 100
2, 32352, Note_on_c, 0, 72, 90
2, 32416, Note_off_c, 0, 72, 100
2, 32448, Note_on_c, 0, 83, 90
2, 32512, Note_off_c, 0, 83, 100
2, 32520, Note_off_c, 0, 60, 100
2, 32544, Note_on_c, 0, 84, 90
2, 32608, Note_off_c, 0, 84, 100
2, 32640, Note_on_c, 0, 77, 90
2, 32640, Note_on_c, 0, 62, 90
2, 32704, Note_off_c, 0, 77, 100
2, 32736, Note_on_c, 0, 72, 90
2, 32800, Note_off_c, 0, 72, 100
2, 32832, Note_on_c, 0, 83, 90
2, 32896, Note_off_c, 0, 83, 100
2, 32904, Note_off_c, 0, 62, 100
2, 32928, Note_on_c, 0, 84, 90
2, 32992, Note_off_c, 0, 84, 100
2, 33024, Note_on_c, 0, 79, 90
2, 33024, Note_on_c, 0, 64, 90
2, 33088, Note_off_c, 0, 79, 100
2, 33120, Note_on_c, 0, 71, 90
2, 33184, Note_off_c, 0, 71, 100
2, 33216, Note_on_c, 0, 83, 90
2, 33280, Note_off_c, 0, 83, 100
2, 33288, Note_off_c, 0, 64, 100
2, 33312, Note_on_c, 0, 84, 90
2, 33376, Note_off_c, 0, 84, 100
2, 33408, Note_on_c, 0, 81, 90
2, 33408, Note_on_c, 0, 65, 90
2, 33472, Note_off_c, 0, 81, 100
2, 33504, Note_on_c, 0, 71, 90
2, 33568, Note_off_c, 0, 71, 100
2, 33600, Note_on_c, 0, 83, 90
2, 33664, Note_off_c, 0, 83, 100
2, 33672, Note_off_c, 0, 65, 100
2, 33696, Note_on_c, 0, 84, 90
2, 33760, Note_off_c, 0, 84, 100
2, 33792, Note_on_c, 0, 82, 90
2, 33792, Note_on_c, 0, 67, 90
2, 33864, Note_off_c, 0, 67, 100
2, 33888, Note_on_c, 0, 72, 90
2, 33920, Note_off_c, 0, 82, 100
2, 33960, Note_off_c, 0, 72, 100
2, 33984, Note_on_c, 0, 82, 90
2, 33984, Note_on_c, 0, 71, 90
2, 34056, Note_off_c, 0, 71, 100
2, 34080, Note_on_c, 0, 72, 90
2, 34112, Note_off_c, 0, 82, 100
2, 34152, Note_off_c, 0, 72, 100
2, 34176, Note_on_c, 0, 64, 90
2, 34248, Note_off_c, 0, 64, 100
2, 34272, Note_on_c, 0, 72, 90
2, 34344, Note_off_c, 0, 72, 100
2, 34368, Note_on_c, 0, 79, 90
2, 34368, Note_on_c, 0, 71, 90
2, 34440, Note_off_c, 0, 71, 100
2, 34464, Note_on_c, 0, 72, 90
2, 34496, Note_off_c, 0, 79, 100
2, 34536, Note_off_c, 0, 72, 100
2, 34560, Note_on_c, 0, 65, 90
2, 34560, Note_on_c, 0, 82, 90
2, 34632, Note_off_c, 0, 65, 100
2, 34656, Note_on_c, 0, 72, 90
2, 34688, Note_off_c, 0, 82, 100
2, 34728, Note_off_c, 0, 72, 100
2, 34752, Note_on_c, 0, 81, 90
2, 34752, Note_on_c, 0, 71, 90
2, 34824, Note_off_c, 0, 71, 100
2, 34848, Note_on_c, 0, 72, 90
2, 34880, Note_off_c, 0, 81, 100
2, 34920, Note_off_c, 0, 72, 100
2, 34944, Note_on_c, 0, 79, 90
2, 34944, Note_on_c, 0, 62, 90
2, 35016, Note_off_c, 0, 62, 100
2, 35040, Note_on_c, 0, 72, 90
2, 35072, Note_off_c, 0, 79, 100
2, 35112, Note_off_c, 0, 72, 100
2, 35136, Note_on_c, 0, 77, 90
2, 35136, Note_on_c, 0, 69, 90
2, 35208, Note_off_c, 0, 69, 100
2, 35232, Note_on_c, 0, 71, 90
2, 35264, Note_off_c, 0, 77, 100
2, 35304, Note_off_c, 0, 71, 100
2, 35328, Note_on_c, 0, 76, 90
2, 35328, Note_on_c, 0, 60, 90
2, 35328, Note_on_c, 0, 72, 90
2, 35392, Note_off_c, 0, 76, 100
2, 35424, Note_on_c, 0, 84, 90
2, 35488, Note_off_c, 0, 84, 100
2, 35520, Note_on_c, 0, 79, 90
2, 35584, Note_off_c, 0, 79, 100
2, 35592, Note_off_c, 0, 60, 100
2, 35592, Note_off_c, 0, 72, 100
2, 35616, Note_on_c, 0, 76, 90
2, 35680, Note_off_c, 0, 76, 100
2, 35712, Note_on_c, 0, 72, 90
2, 35776, Note_off_c, 0, 72, 100
2, 35808, Note_on_c, 0, 67, 90
2, 35872, Note_off_c, 0, 67, 100
2, 35904, Note_on_c, 0, 64, 90
2, 35968, Note_off_c, 0, 64, 100
2, 36000, Note_on_c, 0, 60, 90
2, 36064, Note_off_c, 0, 60, 100
2, 36864, Note_on_c, 0, 60, 97
2, 36876, Note_on_c, 0, 65, 97
2, 36892, Note_on_c, 0, 69, 97
2, 36908, Note_on_c, 0, 72, 97
2, 37244, Note_off_c, 0, 60, 100
2, 37256, Note_off_c, 0, 65, 100
2, 37272, Note_off_c, 0, 69, 100
2, 37288, Note_off_c, 0, 72, 100
2, 37440, Note_on_c, 0, 74, 90
2, 37504, Note_off_c, 0, 74, 100
2, 37536, Note_on_c, 0, 72, 90
2, 37600, Note_off_c, 0, 72, 100
2, 37632, Note_on_c, 0, 70, 90
2, 37760, Note_off_c, 0, 70, 100
2, 37824, Note_on_c, 0, 69, 90
2, 37952, Note_off_c, 0, 69, 100
2, 38016, Note_on_c, 0, 67, 90
2, 38144, Note_off_c, 0, 67, 100
2, 38208, Note_on_c, 0, 65, 90
2, 38336, Note_off_c, 0, 65, 100
2, 38400, Note_on_c, 0, 65, 90
2, 38528, Note_off_c, 0, 65, 100
2, 38592, Note_on_c, 0, 74, 90
2, 38720, Note_off_c, 0, 74, 100
2, 38784, Note_on_c, 0, 65, 97
2, 38784, Note_on_c, 0, 74, 97
2, 39168, Note_off_c, 0, 65, 100
2, 39168, Note_off_c, 0, 74, 100
2, 39360, Note_on_c, 0, 72, 60
2, 39488, Note_off_c, 0, 72, 100
2, 39552, Note_on_c, 0, 76, 60
2, 39680, Note_off_c, 0, 76, 100
2, 39744, Note_on_c, 0, 77, 60
2, 39872, Note_off_c, 0, 77, 100
2, 39936, Note_on_c, 0, 77, 60
2, 40064, Note_off_c, 0, 77, 100
2, 40128, Note_on_c, 0, 67, 60
2, 40384, Note_off_c, 0, 67, 100
2, 40512, Note_on_c, 0, 69, 60
2, 40640, Note_off_c, 0, 69, 100
2, 40704, Note_on_c, 0, 77, 60
2, 40832, Note_off_c, 0, 77, 100
2, 40896, Note_on_c, 0, 67, 60
2, 41152, Note_off_c, 0, 67, 100
2, 41280, Note_on_c, 0, 69, 60
2, 41408, Note_off_c, 0, 69, 100
2, 41472, Note_on_c, 0, 72, 60
2, 41728, Note_off_c, 0, 72, 100
2, 41856, Note_on_c, 0, 70, 60
2, 41984, Note_off_c, 0, 70, 100
2, 42048, Note_on_c, 0, 69, 60
2, 42112, Note_off_c, 0, 69, 100
2, 42144, Note_on_c, 0, 70, 60
2, 42208, Note_off_c, 0, 70, 100
2, 42240, Note_on_c, 0, 69, 60
2, 42368, Note_off_c, 0, 69, 100
2, 42432, Note_on_c, 0, 69, 60
2, 42560, Note_off_c, 0, 69, 100
2, 42624, Note_on_c, 0, 70, 60
2, 42752, Note_off_c, 0, 70, 100
2, 42816, Note_on_c, 0, 72, 60
2, 42944, Note_off_c, 0, 72, 100
2, 43008, Note_on_c, 0, 73, 60
2, 43136, Note_off_c, 0, 73, 100
2, 43200, Note_on_c, 0, 74, 60
2, 43456, Note_off_c, 0, 74, 100
2, 43584, Note_on_c, 0, 72, 60
2, 43648, Note_off_c, 0, 72, 100
2, 43680, Note_on_c, 0, 70, 60
2, 43744, Note_off_c, 0, 70, 100
2, 43776, Note_on_c, 0, 69, 60
2, 43904, Note_off_c, 0, 69, 100
2, 43968, Note_on_c, 0, 67, 60
2, 44096, Note_off_c, 0, 67, 100
2, 44160, Note_on_c, 0, 69, 60
2, 44288, Note_off_c, 0, 69, 100
2, 44352, Note_on_c, 0, 70, 60
2, 44480, Note_off_c, 0, 70, 100
2, 44544, Note_on_c, 0, 74, 60
2, 44672, Note_off_c, 0, 74, 100
2, 44736, Note_on_c, 0, 72, 60
2, 45116, Note_off_c, 0, 72, 100
2, 45120, Note_on_c, 0, 70, 60
2, 45184, Note_off_c, 0, 70, 100
2, 45216, Note_on_c, 0, 69, 60
2, 45280, Note_off_c, 0, 69, 100
2, 45312, Note_on_c, 0, 67, 60
2, 45440, Note_off_c, 0, 67, 100
2, 45504, Note_on_c, 0, 65, 60
2, 45632, Note_off_c, 0, 65, 100
2, 45696, Note_on_c, 0, 67, 60
2, 45824, Note_off_c, 0, 67, 100
2, 45888, Note_on_c, 0, 69, 60
2, 46016, Note_off_c, 0, 69, 100
2, 46080, Note_on_c, 0, 72, 60
2, 46208, Note_off_c, 0, 72, 100
2, 46272, Note_on_c, 0, 70, 60
2, 46528, Note_off_c, 0, 70, 100
2, 46656, Note_on_c, 0, 67, 60
2, 46784, Note_off_c, 0, 67, 100
2, 46848, Note_on_c, 0, 70, 60
2, 46976, Note_off_c, 0, 70, 100
2, 47040, Note_on_c, 0, 69, 60
2, 47296, Note_off_c, 0, 69, 100
2, 47424, Note_on_c, 0, 65, 60
2, 47552, Note_off_c, 0, 65, 100
2, 47616, Note_on_c, 0, 64, 60
2, 47680, Note_off_c, 0, 64, 100
2, 47712, Note_on_c, 0, 65, 60
2, 47776, Note_off_c, 0, 65, 100
2, 47808, Note_on_c, 0, 67, 60
2, 47872, Note_off_c, 0, 67, 100
2, 47904, Note_on_c, 0, 69, 60
2, 47968, Note_off_c, 0, 69, 100
2, 48000, Note_on_c, 0, 71, 60
2, 48064, Note_off_c, 0, 71, 100
2, 48096, Note_on_c, 0, 72, 60
2, 48160, Note_off_c, 0, 72, 100
2, 48192, Note_on_c, 0, 71, 60
2, 48256, Note_off_c, 0, 71, 100
2, 48288, Note_on_c, 0, 72, 60
2, 48360, Note_off_c, 0, 72, 100
2, 48384, Note_on_c, 0, 60, 60
2, 48640, Note_off_c, 0, 60, 100
2, 49152, Note_on_c, 0, 60, 90
2, 49164, Note_on_c, 0, 65, 90
2, 49180, Note_on_c, 0, 69, 90
2, 49196, Note_on_c, 0, 72, 90
2, 49536, Note_off_c, 0, 60, 100
2, 49548, Note_off_c, 0, 65, 100
2, 49564, Note_off_c, 0, 69, 100
2, 49580, Note_off_c, 0, 72, 100
2, 49728, Note_on_c, 0, 74, 60
2, 49824, Note_on_c, 0, 72, 60
2, 49856, Note_off_c, 0, 74, 100
2, 49888, Note_off_c, 0, 72, 100
2, 49920, Note_on_c, 0, 70, 60
2, 50048, Note_off_c, 0, 70, 100
2, 50112, Note_on_c, 0, 69, 60
2, 50240, Note_off_c, 0, 69, 100
2, 50304, Note_on_c, 0, 67, 60
2, 50432, Note_off_c, 0, 67, 100
2, 50496, Note_on_c, 0, 65, 60
2, 50624, Note_off_c, 0, 65, 100
2, 50688, Note_on_c, 0, 63, 60
2, 50816, Note_off_c, 0, 63, 100
2, 50880, Note_on_c, 0, 74, 60
2, 51008, Note_off_c, 0, 74, 100
2, 51072, Note_on_c, 0, 74, 90
2, 51072, Note_on_c, 0, 65, 90
2, 51452, Note_off_c, 0, 74, 100
2, 51452, Note_off_c, 0, 65, 100
2, 51648, Note_on_c, 0, 72, 60
2, 51776, Note_off_c, 0, 72, 100
2, 51840, Note_on_c, 0, 76, 60
2, 51968, Note_off_c, 0, 76, 100
2, 52032, Note_on_c, 0, 77, 60
2, 52160, Note_off_c, 0, 77, 100
2, 52224, Note_on_c, 0, 77, 60
2, 52352, Note_off_c, 0, 77, 100
2, 52416, Note_on_c, 0, 67, 60
2, 52544, Note_off_c, 0, 67, 100
2, 52608, Note_on_c, 0, 69, 60
2, 52736, Note_off_c, 0, 69, 100
2, 52800, Note_on_c, 0, 77, 60
2, 52928, Note_off_c, 0, 77, 100
2, 52992, Note_on_c, 0, 77, 60
2, 53120, Note_off_c, 0, 77, 100
2, 53184, Note_on_c, 0, 67, 60
2, 53312, Note_off_c, 0, 67, 100
2, 53376, Note_on_c, 0, 69, 60
2, 53504, Note_off_c, 0, 69, 100
2, 53568, Note_on_c, 0, 77, 60
2, 53696, Note_off_c, 0, 77, 100
2, 53760, Note_on_c, 0, 72, 60
2, 53760, Note_on_c, 0, 62, 60
2, 53760, Note_on_c, 0, 65, 60
2, 54016, Note_off_c, 0, 72, 100
2, 54024, Note_off_c, 0, 62, 100
2, 54024, Note_off_c, 0, 65, 100
2, 54144, Note_on_c, 0, 70, 60
2, 54144, Note_on_c, 0, 64, 60
2, 54144, Note_on_c, 0, 67, 60
2, 54272, Note_off_c, 0, 70, 100
2, 54336, Note_on_c, 0, 70, 60
2, 54408, Note_off_c, 0, 64, 100
2, 54408, Note_off_c, 0, 67, 100
2, 54464, Note_off_c, 0, 70, 100
2, 54528, Note_on_c, 0, 69, 60
2, 54528, Note_on_c, 0, 65, 60
2, 54656, Note_off_c, 0, 69, 100
2, 54720, Note_on_c, 0, 69, 60
2, 54792, Note_off_c, 0, 65, 100
2, 54848, Note_off_c, 0, 69, 100
2, 54912, Note_on_c, 0, 70, 60
2, 55040, Note_off_c, 0, 70, 100
2, 55104, Note_on_c, 0, 72, 60
2, 55232, Note_off_c, 0, 72, 100
2, 55296, Note_on_c, 0, 73, 90
2, 55424, Note_off_c, 0, 73, 100
2, 55488, Note_on_c, 0, 74, 90
2, 55868, Note_off_c, 0, 74, 100
2, 55872, Note_on_c, 0, 76, 90
2, 55936, Note_off_c, 0, 76, 100
2, 55968, Note_on_c, 0, 78, 90
2, 56032, Note_off_c, 0, 78, 100
2, 56064, Note_on_c, 0, 79, 90
2, 56128, Note_off_c, 0, 79, 100
2, 56160, Note_on_c, 0, 81, 90
2, 56224, Note_off_c, 0, 81, 100
2, 56256, Note_on_c, 0, 82, 90
2, 56320, Note_off_c, 0, 82, 100
2, 56352, Note_on_c, 0, 81, 90
2, 56416, Note_off_c, 0, 81, 100
2, 56448, Note_on_c, 0, 79, 90
2, 56512, Note_off_c, 0, 79, 100
2, 56544, Note_on_c, 0, 81, 90
2, 56608, Note_off_c, 0, 81, 100
2, 56640, Note_on_c, 0, 77, 90
2, 56704, Note_off_c, 0, 77, 100
2, 56736, Note_on_c, 0, 79, 90
2, 56800, Note_off_c, 0, 79, 100
2, 56832, Note_on_c, 0, 76, 90
2, 56896, Note_off_c, 0, 76, 100
2, 56928, Note_on_c, 0, 77, 90
2, 56992, Note_off_c, 0, 77, 100
2, 57024, Note_on_c, 0, 74, 90
2, 57088, Note_off_c, 0, 74, 100
2, 57120, Note_on_c, 0, 76, 90
2, 57184, Note_off_c, 0, 76, 100
2, 57216, Note_on_c, 0, 72, 90
2, 57280, Note_off_c, 0, 72, 100
2, 57312, Note_on_c, 0, 74, 90
2, 57376, Note_off_c, 0, 74, 100
2, 57408, Note_on_c, 0, 70, 90
2, 57472, Note_off_c, 0, 70, 100
2, 57504, Note_on_c, 0, 72, 90
2, 57568, Note_off_c, 0, 72, 100
2, 57600, Note_on_c, 0, 69, 90
2, 57664, Note_off_c, 0, 69, 100
2, 57696, Note_on_c, 0, 70, 90
2, 57760, Note_off_c, 0, 70, 100
2, 57792, Note_on_c, 0, 72, 90
2, 57856, Note_off_c, 0, 72, 100
2, 57888, Note_on_c, 0, 74, 90
2, 57952, Note_off_c, 0, 74, 100
2, 57984, Note_on_c, 0, 76, 90
2, 58048, Note_off_c, 0, 76, 100
2, 58080, Note_on_c, 0, 77, 90
2, 58144, Note_off_c, 0, 77, 100
2, 58176, Note_on_c, 0, 75, 90
2, 58240, Note_off_c, 0, 75, 100
2, 58272, Note_on_c, 0, 77, 90
2, 58336, Note_off_c, 0, 77, 100
2, 58368, Note_on_c, 0, 79, 90
2, 58432, Note_off_c, 0, 79, 100
2, 58464, Note_on_c, 0, 77, 90
2, 58528, Note_off_c, 0, 77, 100
2, 58560, Note_on_c, 0, 76, 90
2, 58624, Note_off_c, 0, 76, 100
2, 58656, Note_on_c, 0, 74, 90
2, 58720, Note_off_c, 0, 74, 100
2, 58752, Note_on_c, 0, 76, 90
2, 58816, Note_off_c, 0, 76, 100
2, 58848, Note_on_c, 0, 74, 90
2, 58912, Note_off_c, 0, 74, 100
2, 58944, Note_on_c, 0, 72, 90
2, 59008, Note_off_c, 0, 72, 100
2, 59040, Note_on_c, 0, 70, 90
2, 59104, Note_off_c, 0, 70, 100
2, 59136, Note_on_c, 0, 69, 90
2, 59392, Note_off_c, 0, 69, 100
2, 59520, Note_on_c, 0, 67, 90
2, 59520, Note_on_c, 0, 64, 60
2, 59712, Note_on_c, 0, 65, 90
2, 59776, Note_off_c, 0, 67, 100
2, 59776, Note_off_c, 0, 64, 100
2, 59776, Note_off_c, 0, 65, 100
2, 59808, Note_on_c, 0, 67, 90
2, 59872, Note_off_c, 0, 67, 100
2, 59904, Note_on_c, 0, 65, 90
2, 60160, Note_off_c, 0, 65, 100
2, 61440, Note_on_c, 0, 82, 97
2, 61568, Note_off_c, 0, 82, 100
2, 61632, Note_on_c, 0, 79, 90
2, 61760, Note_off_c, 0, 79, 100
2, 61824, Note_on_c, 0, 76, 90
2, 61952, Note_off_c, 0, 76, 100
2, 62016, Note_on_c, 0, 76, 90
2, 62144, Note_off_c, 0, 76, 100
2, 62208, Note_on_c, 0, 82, 97
2, 62336, Note_off_c, 0, 82, 100
2, 62400, Note_on_c, 0, 79, 90
2, 62528, Note_off_c, 0, 79, 100
2, 62592, Note_on_c, 0, 76, 90
2, 62720, Note_off_c, 0, 76, 100
2, 62784, Note_on_c, 0, 76, 90
2, 62912, Note_off_c, 0, 76, 100
2, 62976, Note_on_c, 0, 77, 90
2, 63104, Note_off_c, 0, 77, 100
2, 63168, Note_on_c, 0, 79, 90
2, 63296, Note_off_c, 0, 79, 100
2, 63360, Note_on_c, 0, 81, 90
2, 63488, Note_off_c, 0, 81, 100
2, 63552, Note_on_c, 0, 82, 90
2, 63680, Note_off_c, 0, 82, 100
2, 63744, Note_on_c, 0, 83, 97
2, 63872, Note_off_c, 0, 83, 100
2, 63936, Note_on_c, 0, 84, 90
2, 64064, Note_off_c, 0, 84, 100
2, 64128, Note_on_c, 0, 83, 90
2, 64256, Note_off_c, 0, 83, 100
2, 64320, Note_on_c, 0, 84, 90
2, 64448, Note_off_c, 0, 84, 100
2, 64512, Note_on_c, 0, 82, 97
2, 64640, Note_off_c, 0, 82, 100
2, 64704, Note_on_c, 0, 79, 90
2, 64832, Note_off_c, 0, 79, 100
2, 64896, Note_on_c, 0, 76, 90
2, 65024, Note_off_c, 0, 76, 100
2, 65088, Note_on_c, 0, 76, 90
2, 65216, Note_off_c, 0, 76, 100
2, 65280, Note_on_c, 0, 82, 97
2, 65408, Note_off_c, 0, 82, 100
2, 65472, Note_on_c, 0, 79, 90
2, 65600, Note_off_c, 0, 79, 100
2, 65664, Note_on_c, 0, 76, 90
2, 65792, Note_off_c, 0, 76, 100
2, 65856, Note_on_c, 0, 76, 90
2, 65984, Note_off_c, 0, 76, 100
2, 66048, Note_on_c, 0, 77, 78
2, 66176, Note_off_c, 0, 77, 100
2, 66240, Note_on_c, 0, 79, 80
2, 66368, Note_off_c, 0, 79, 100
2, 66432, Note_on_c, 0, 81, 84
2, 66560, Note_off_c, 0, 81, 100
2, 66624, Note_on_c, 0, 82, 86
2, 66752, Note_off_c, 0, 82, 100
2, 66816, Note_on_c, 0, 83, 90
2, 66944, Note_off_c, 0, 83, 100
2, 67008, Note_on_c, 0, 84, 90
2, 67136, Note_off_c, 0, 84, 100
2, 67200, Note_on_c, 0, 83, 90
2, 67328, Note_off_c, 0, 83, 100
2, 67392, Note_on_c, 0, 84, 90
2, 67520, Note_off_c, 0, 84, 100
2, 67584, Note_on_c, 0, 86, 67
2, 67584, Note_on_c, 0, 74, 67
2, 68096, Note_off_c, 0, 86, 100
2, 68096, Note_off_c, 0, 74, 100
2, 68352, Note_on_c, 0, 76, 60
2, 68352, Note_on_c, 0, 64, 60
2, 68864, Note_off_c, 0, 76, 100
2, 68864, Note_off_c, 0, 64, 100
2, 69120, Note_on_c, 0, 82, 60
2, 69120, Note_on_c, 0, 70, 60
2, 69632, Note_off_c, 0, 82, 100
2, 69632, Note_off_c, 0, 70, 100
2, 69888, Note_on_c, 0, 81, 60
2, 69888, Note_on_c, 0, 69, 60
2, 70400, Note_off_c, 0, 81, 100
2, 70400, Note_off_c, 0, 69, 100
2, 70656, Note_on_c, 0, 81, 90
2, 70720, Note_off_c, 0, 81, 100
2, 70752, Note_on_c, 0, 79, 90
2, 70816, Note_off_c, 0, 79, 100
2, 70848, Note_on_c, 0, 82, 90
2, 70912, Note_off_c, 0, 82, 100
2, 70944, Note_on_c, 0, 81, 90
2, 71008, Note_off_c, 0, 81, 100
2, 71040, Note_on_c, 0, 84, 90
2, 71040, Note_on_c, 0, 67, 60
2, 71040, Note_on_c, 0, 59, 60
2, 71104, Note_off_c, 0, 84, 100
2, 71136, Note_on_c, 0, 82, 90
2, 71200, Note_off_c, 0, 82, 100
2, 71232, Note_on_c, 0, 81, 90
2, 71296, Note_off_c, 0, 67, 100
2, 71296, Note_off_c, 0, 59, 100
2, 71296, Note_off_c, 0, 81, 100
2, 71328, Note_on_c, 0, 79, 90
2, 71392, Note_off_c, 0, 79, 100
2, 71424, Note_on_c, 0, 77, 90
2, 71424, Note_on_c, 0, 69, 60
2, 71680, Note_off_c, 0, 77, 100
2, 71680, Note_off_c, 0, 69, 100
2, 71808, Note_on_c, 0, 76, 90
2, 71808, Note_on_c, 0, 70, 60
2, 72064, Note_off_c, 0, 76, 100
2, 72064, Note_off_c, 0, 70, 100
2, 72192, Note_on_c, 0, 65, 60
2, 72192, Note_on_c, 0, 69, 60
2, 72384, Note_on_c, 0, 77, 60
2, 72512, Note_off_c, 0, 77, 100
2, 72576, Note_on_c, 0, 76, 60
2, 72704, Note_off_c, 0, 65, 100
2, 72704, Note_off_c, 0, 69, 100
2, 72704, Note_off_c, 0, 76, 100
2, 72768, Note_on_c, 0, 77, 60
2, 72896, Note_off_c, 0, 77, 100
2, 72960, Note_on_c, 0, 65, 60
2, 72960, Note_on_c, 0, 69, 60
2, 73152, Note_on_c, 0, 75, 60
2, 73280, Note_off_c, 0, 75, 100
2, 73344, Note_on_c, 0, 74, 60
2, 73472, Note_off_c, 0, 65, 100
2, 73472, Note_off_c, 0, 69, 100
2, 73472, Note_off_c, 0, 74, 100
2, 73536, Note_on_c, 0, 75, 60
2, 73664, Note_off_c, 0, 75, 100
2, 73920, Note_on_c, 0, 74, 60
2, 74048, Note_off_c, 0, 74, 100
2, 74112, Note_on_c, 0, 86, 60
2, 74240, Note_off_c, 0, 86, 100
2, 74304, Note_on_c, 0, 86, 60
2, 74432, Note_off_c, 0, 86, 100
2, 74688, Note_on_c, 0, 86, 60
2, 74816, Note_off_c, 0, 86, 100
2, 74880, Note_on_c, 0, 74, 60
2, 75008, Note_off_c, 0, 74, 100
2, 75072, Note_on_c, 0, 74, 60
2, 75200, Note_off_c, 0, 74, 100
2, 75456, Note_on_c, 0, 72, 60
2, 75584, Note_off_c, 0, 72, 100
2, 75648, Note_on_c, 0, 84, 60
2, 75776, Note_off_c, 0, 84, 100
2, 75840, Note_on_c, 0, 84, 60
2, 75968, Note_off_c, 0, 84, 100
2, 76224, Note_on_c, 0, 84, 60
2, 76352, Note_off_c, 0, 84, 100
2, 76416, Note_on_c, 0, 72, 60
2, 76544, Note_off_c, 0, 72, 100
2, 76576, Note_on_c, 0, 72, 60
2, 76704, Note_off_c, 0, 72, 100
2, 76800, Note_on_c, 0, 73, 60
2, 76928, Note_off_c, 0, 73, 100
2, 76992, Note_on_c, 0, 74, 60
2, 77120, Note_off_c, 0, 74, 100
2, 77184, Note_on_c, 0, 76, 60
2, 77312, Note_off_c, 0, 76, 100
2, 77376, Note_on_c, 0, 77, 60
2, 77504, Note_off_c, 0, 77, 100
2, 77568, Note_on_c, 0, 65, 60
2, 77824, Note_off_c, 0, 65, 100
2, 77952, Note_on_c, 0, 69, 60
2, 78080, Note_off_c, 0, 69, 100
2, 78144, Note_on_c, 0, 67, 60
2, 78272, Note_off_c, 0, 67, 100
2, 78336, Note_on_c, 0, 65, 60
2, 78464, Note_off_c, 0, 65, 100
2, 78528, Note_on_c, 0, 65, 60
2, 78592, Note_off_c, 0, 65, 100
2, 78624, Note_on_c, 0, 69, 60
2, 78688, Note_off_c, 0, 69, 100
2, 78720, Note_on_c, 0, 67, 60
2, 78784, Note_off_c, 0, 67, 100
2, 78816, Note_on_c, 0, 70, 60
2, 78880, Note_off_c, 0, 70, 100
2, 78912, Note_on_c, 0, 69, 60
2, 78976, Note_off_c, 0, 69, 100
2, 79008, Note_on_c, 0, 72, 60
2, 79072, Note_off_c, 0, 72, 100
2, 79104, Note_on_c, 0, 70, 60
2, 79232, Note_off_c, 0, 70, 100
2, 79296, Note_on_c, 0, 65, 60
2, 79360, Note_off_c, 0, 65, 100
2, 79392, Note_on_c, 0, 69, 60
2, 79456, Note_off_c, 0, 69, 100
2, 79488, Note_on_c, 0, 67, 60
2, 79552, Note_off_c, 0, 67, 100
2, 79584, Note_on_c, 0, 70, 60
2, 79648, Note_off_c, 0, 70, 100
2, 79680, Note_on_c, 0, 69, 60
2, 79744, Note_off_c, 0, 69, 100
2, 79776, Note_on_c, 0, 72, 60
2, 79840, Note_off_c, 0, 72, 100
2, 79872, Note_on_c, 0, 70, 63
2, 80000, Note_off_c, 0, 70, 100
2, 80064, Note_on_c, 0, 65, 64
2, 80128, Note_off_c, 0, 65, 100
2, 80160, Note_on_c, 0, 69, 66
2, 80224, Note_off_c, 0, 69, 100
2, 80256, Note_on_c, 0, 67, 69
2, 80320, Note_off_c, 0, 67, 100
2, 80352, Note_on_c, 0, 70, 70
2, 80416, Note_off_c, 0, 70, 100
2, 80448, Note_on_c, 0, 69, 72
2, 80512, Note_off_c, 0, 69, 100
2, 80544, Note_on_c, 0, 72, 74
2, 80608, Note_off_c, 0, 72, 100
2, 80640, Note_on_c, 0, 70, 76
2, 80704, Note_off_c, 0, 70, 100
2, 80736, Note_on_c, 0, 74, 78
2, 80800, Note_off_c, 0, 74, 100
2, 80832, Note_on_c, 0, 72, 79
2, 80896, Note_off_c, 0, 72, 100
2, 80928, Note_on_c, 0, 75, 80
2, 80992, Note_off_c, 0, 75, 100
2, 81024, Note_on_c, 0, 74, 82
2, 81088, Note_off_c, 0, 74, 100
2, 81120, Note_on_c, 0, 77, 84
2, 81184, Note_off_c, 0, 77, 100
2, 81216, Note_on_c, 0, 76, 86
2, 81280, Note_off_c, 0, 76, 100
2, 81312, Note_on_c, 0, 79, 88
2, 81376, Note_off_c, 0, 79, 100
2, 81408, Note_on_c, 0, 77, 90
2, 81472, Note_off_c, 0, 77, 100
2, 81504, Note_on_c, 0, 79, 90
2, 81568, Note_off_c, 0, 79, 100
2, 81600, Note_on_c, 0, 81, 90
2, 81664, Note_off_c, 0, 81, 100
2, 81696, Note_on_c, 0, 79, 90
2, 81760, Note_off_c, 0, 79, 100
2, 81792, Note_on_c, 0, 77, 90
2, 81856, Note_off_c, 0, 77, 100
2, 81888, Note_on_c, 0, 75, 90
2, 81952, Note_off_c, 0, 75, 100
2, 81984, Note_on_c, 0, 74, 90
2, 82048, Note_off_c, 0, 74, 100
2, 82080, Note_on_c, 0, 73, 90
2, 82144, Note_off_c, 0, 73, 100
2, 82176, Note_on_c, 0, 74, 90
2, 82240, Note_off_c, 0, 74, 100
2, 82272, Note_on_c, 0, 72, 90
2, 82336, Note_off_c, 0, 72, 100
2, 82368, Note_on_c, 0, 70, 90
2, 82432, Note_off_c, 0, 70, 100
2, 82464, Note_on_c, 0, 69, 90
2, 82528, Note_off_c, 0, 69, 100
2, 82560, Note_on_c, 0, 67, 90
2, 82624, Note_off_c, 0, 67, 100
2, 82656, Note_on_c, 0, 65, 90
2, 82720, Note_off_c, 0, 65, 100
2, 82752, Note_on_c, 0, 64, 90
2, 82816, Note_off_c, 0, 64, 100
2, 82848, Note_on_c, 0, 62, 90
2, 82912, Note_off_c, 0, 62, 100
2, 82944, Note_on_c, 0, 60, 90
2, 83008, Note_off_c, 0, 60, 100
2, 83040, Note_on_c, 0, 65, 90
2, 83104, Note_off_c, 0, 65, 100
2, 83136, Note_on_c, 0, 69, 90
2, 83200, Note_off_c, 0, 69, 100
2, 83232, Note_on_c, 0, 72, 90
2, 83296, Note_off_c, 0, 72, 100
2, 83328, Note_on_c, 0, 77, 90
2, 83456, Note_off_c, 0, 77, 100
2, 83520, Note_on_c, 0, 69, 90
2, 83520, Note_on_c, 0, 65, 90
2, 83648, Note_off_c, 0, 69, 100
2, 83648, Note_off_c, 0, 65, 100
2, 83712, Note_on_c, 0, 72, 90
2, 83712, Note_on_c, 0, 69, 90
2, 83840, Note_off_c, 0, 72, 100
2, 83840, Note_off_c, 0, 69, 100
2, 83904, Note_on_c, 0, 70, 90
2, 83904, Note_on_c, 0, 67, 90
2, 84032, Note_off_c, 0, 70, 100
2, 84032, Note_off_c, 0, 67, 100
2, 84096, Note_on_c, 0, 69, 90
2, 84096, Note_on_c, 0, 65, 90
2, 84224, Note_off_c, 0, 69, 100
2, 84224, Note_off_c, 0, 65, 100
2, 84288, Note_on_c, 0, 67, 90
2, 84288, Note_on_c, 0, 64, 90
2, 84416, Note_off_c, 0, 67, 100
2, 84416, Note_off_c, 0, 64, 100
2, 84480, Note_on_c, 0, 65, 90
2, 84608, Note_off_c, 0, 65, 100
2, 84672, Note_on_c, 0, 77, 90
2, 84736, Note_off_c, 0, 77, 100
2, 84768, Note_on_c, 0, 81, 90
2, 84832, Note_off_c, 0, 81, 100
2, 84864, Note_on_c, 0, 79, 90
2, 84928, Note_off_c, 0, 79, 100
2, 84960, Note_on_c, 0, 82, 90
2, 85024, Note_off_c, 0, 82, 100
2, 85056, Note_on_c, 0, 81, 90
2, 85120, Note_off_c, 0, 81, 100
2, 85152, Note_on_c, 0, 84, 90
2, 85216, Note_off_c, 0, 84, 100
2, 85248, Note_on_c, 0, 82, 90
2, 85376, Note_off_c, 0, 82, 100
2, 85440, Note_on_c, 0, 77, 90
2, 85504, Note_off_c, 0, 77, 100
2, 85536, Note_on_c, 0, 81, 90
2, 85600, Note_off_c, 0, 81, 100
2, 85632, Note_on_c, 0, 79, 90
2, 85696, Note_off_c, 0, 79, 100
2, 85728, Note_on_c, 0, 82, 90
2, 85792, Note_off_c, 0, 82, 100
2, 85824, Note_on_c, 0, 81, 90
2, 85888, Note_off_c, 0, 81, 100
2, 85920, Note_on_c, 0, 84, 90
2, 85984, Note_off_c, 0, 84, 100
2, 86016, Note_on_c, 0, 82, 91
2, 86144, Note_off_c, 0, 82, 100
2, 86208, Note_on_c, 0, 77, 91
2, 86272, Note_off_c, 0, 77, 100
2, 86304, Note_on_c, 0, 81, 91
2, 86368, Note_off_c, 0, 81, 100
2, 86400, Note_on_c, 0, 79, 92
2, 86464, Note_off_c, 0, 79, 100
2, 86496, Note_on_c, 0, 82, 92
2, 86560, Note_off_c, 0, 82, 100
2, 86592, Note_on_c, 0, 81, 92
2, 86656, Note_off_c, 0, 81, 100
2, 86688, Note_on_c, 0, 84, 92
2, 86752, Note_off_c, 0, 84, 100
2, 86784, Note_on_c, 0, 82, 94
2, 86848, Note_off_c, 0, 82, 100
2, 86880, Note_on_c, 0, 77, 94
2, 86944, Note_off_c, 0, 77, 100
2, 86976, Note_on_c, 0, 84, 94
2, 87040, Note_off_c, 0, 84, 100
2, 87072, Note_on_c, 0, 77, 94
2, 87136, Note_off_c, 0, 77, 100
2, 87168, Note_on_c, 0, 86, 96
2, 87232, Note_off_c, 0, 86, 100
2, 87264, Note_on_c, 0, 77, 96
2, 87328, Note_off_c, 0, 77, 100
2, 87360, Note_on_c, 0, 88, 97
2, 87424, Note_off_c, 0, 88, 100
2, 87456, Note_on_c, 0, 77, 97
2, 87520, Note_off_c, 0, 77, 100
2, 87552, Note_on_c, 0, 89, 90
2, 87616, Note_off_c, 0, 89, 100
2, 87648, Note_on_c, 0, 88, 90
2, 87712, Note_off_c, 0, 88, 100
2, 87744, Note_on_c, 0, 86, 90
2, 87808, Note_off_c, 0, 86, 100
2, 87840, Note_on_c, 0, 84, 90
2, 87904, Note_off_c, 0, 84, 100
2, 87936, Note_on_c, 0, 82, 90
2, 88000, Note_off_c, 0, 82, 100
2, 88032, Note_on_c, 0, 81, 90
2, 88096, Note_off_c, 0, 81, 100
2, 88128, Note_on_c, 0, 79, 90
2, 88192, Note_off_c, 0, 79, 100
2, 88224, Note_on_c, 0, 77, 90
2, 88288, Note_off_c, 0, 77, 100
2, 88320, Note_on_c, 0, 86, 90
2, 88384, Note_off_c, 0, 86, 100
2, 88416, Note_on_c, 0, 84, 90
2, 88480, Note_off_c, 0, 84, 100
2, 88512, Note_on_c, 0, 82, 90
2, 88576, Note_off_c, 0, 82, 100
2, 88608, Note_on_c, 0, 81, 90
2, 88672, Note_off_c, 0, 81, 100
2, 88704, Note_on_c, 0, 79, 90
2, 88768, Note_off_c, 0, 79, 100
2, 88800, Note_on_c, 0, 77, 90
2, 88864, Note_off_c, 0, 77, 100
2, 88896, Note_on_c, 0, 76, 90
2, 88960, Note_off_c, 0, 76, 100
2, 88992, Note_on_c, 0, 74, 90
2, 89056, Note_off_c, 0, 74, 100
2, 89088, Note_on_c, 0, 72, 90
2, 89216, Note_off_c, 0, 72, 100
2, 89280, Note_on_c, 0, 84, 90
2, 89408, Note_off_c, 0, 84, 100
2, 89472, Note_on_c, 0, 84, 90
2, 89600, Note_off_c, 0, 84, 100
2, 89664, Note_on_c, 0, 84, 90
2, 89792, Note_off_c, 0, 84, 100
2, 89856, Note_on_c, 0, 84, 90
2, 89920, Note_off_c, 0, 84, 100
2, 89952, Note_on_c, 0, 81, 90
2, 90016, Note_off_c, 0, 81, 100
2, 90048, Note_on_c, 0, 77, 90
2, 90112, Note_off_c, 0, 77, 100
2, 90144, Note_on_c, 0, 72, 90
2, 90208, Note_off_c, 0, 72, 100
2, 90240, Note_on_c, 0, 77, 90
2, 90304, Note_off_c, 0, 77, 100
2, 90336, Note_on_c, 0, 72, 90
2, 90400, Note_off_c, 0, 72, 100
2, 90432, Note_on_c, 0, 69, 90
2, 90496, Note_off_c, 0, 69, 100
2, 90528, Note_on_c, 0, 65, 90
2, 90592, Note_off_c, 0, 65, 100
2, 90624, Note_on_c, 0, 69, 90
2, 90672, Note_on_c, 0, 67, 90
2, 90688, Note_off_c, 0, 69, 100
2, 90688, Note_off_c, 0, 67, 100
2, 90720, Note_on_c, 0, 69, 90
2, 90736, Note_off_c, 0, 69, 100
2, 90768, Note_on_c, 0, 67, 90
2, 90784, Note_off_c, 0, 67, 100
2, 90816, Note_on_c, 0, 69, 90
2, 90832, Note_off_c, 0, 69, 100
2, 90864, Note_on_c, 0, 67, 90
2, 90880, Note_off_c, 0, 67, 100
2, 90912, Note_on_c, 0, 69, 90
2, 90928, Note_off_c, 0, 69, 100
2, 90960, Note_on_c, 0, 67, 90
2, 90976, Note_off_c, 0, 67, 100
2, 91008, Note_on_c, 0, 69, 90
2, 91024, Note_off_c, 0, 69, 100
2, 91056, Note_on_c, 0, 67, 90
2, 91072, Note_off_c, 0, 67, 100
2, 91104, Note_on_c, 0, 69, 90
2, 91120, Note_off_c, 0, 69, 100
2, 91152, Note_on_c, 0, 67, 90
2, 91168, Note_off_c, 0, 67, 100
2, 91200, Note_on_c, 0, 69, 90
2, 91216, Note_off_c, 0, 69, 100
2, 91248, Note_on_c, 0, 67, 90
2, 91264, Note_off_c, 0, 67, 100
2, 91296, Note_on_c, 0, 69, 90
2, 91312, Note_off_c, 0, 69, 100
2, 91344, Note_on_c, 0, 67, 90
2, 91360, Note_off_c, 0, 67, 100
2, 91392, Note_on_c, 0, 69, 90
2, 91408, Note_off_c, 0, 69, 100
2, 91440, Note_on_c, 0, 67, 90
2, 91456, Note_off_c, 0, 67, 100
2, 91488, Note_on_c, 0, 69, 90
2, 91504, Note_off_c, 0, 69, 100
2, 91536, Note_on_c, 0, 67, 90
2, 91552, Note_off_c, 0, 67, 100
2, 91584, Note_on_c, 0, 69, 90
2, 91600, Note_off_c, 0, 69, 100
2, 91632, Note_on_c, 0, 67, 90
2, 91648, Note_off_c, 0, 67, 100
2, 91680, Note_on_c, 0, 69, 90
2, 91696, Note_off_c, 0, 69, 100
2, 91728, Note_on_c, 0, 67, 90
2, 91744, Note_off_c, 0, 67, 100
2, 91776, Note_on_c, 0, 69, 90
2, 91792, Note_off_c, 0, 69, 100
2, 91824, Note_on_c, 0, 67, 90
2, 91840, Note_off_c, 0, 67, 100
2, 91872, Note_on_c, 0, 69, 90
2, 91888, Note_off_c, 0, 69, 100
2, 91920, Note_on_c, 0, 67, 90
2, 91936, Note_off_c, 0, 67, 100
2, 91968, Note_on_c, 0, 65, 90
2, 92060, Note_off_c, 0, 65, 0
2, 92064, Note_on_c, 0, 67, 90
2, 92156, Note_off_c, 0, 67, 0
2, 92160, Note_on_c, 0, 65, 90
2, 92288, Note_off_c, 0, 65, 100
2, 92352, Note_on_c, 0, 77, 60
2, 92480, Note_off_c, 0, 77, 100
2, 92736, Note_on_c, 0, 77, 60
2, 92864, Note_off_c, 0, 77, 100
2, 92928, Note_on_c, 0, 76, 60
2, 93056, Note_off_c, 0, 76, 100
2, 93120, Note_on_c, 0, 77, 60
2, 93248, Note_off_c, 0, 77, 100
2, 93312, Note_on_c, 0, 79, 60
2, 93440, Note_off_c, 0, 79, 100
2, 93504, Note_on_c, 0, 81, 60
2, 93632, Note_off_c, 0, 81, 100
2, 93696, Note_on_c, 0, 82, 60
2, 93760, Note_off_c, 0, 82, 100
2, 93792, Note_on_c, 0, 84, 60
2, 93856, Note_off_c, 0, 84, 100
2, 93888, Note_on_c, 0, 86, 60
2, 93952, Note_off_c, 0, 86, 100
2, 93984, Note_on_c, 0, 84, 60
2, 94048, Note_off_c, 0, 84, 100
2, 94080, Note_on_c, 0, 81, 60
2, 94144, Note_off_c, 0, 81, 100
2, 94176, Note_on_c, 0, 81, 60
2, 94240, Note_off_c, 0, 81, 100
2, 94272, Note_on_c, 0, 79, 60
2, 94336, Note_off_c, 0, 79, 100
2, 94368, Note_on_c, 0, 77, 60
2, 94432, Note_off_c, 0, 77, 100
2, 94464, Note_on_c, 0, 76, 60
2, 94528, Note_off_c, 0, 76, 100
2, 94560, Note_on_c, 0, 77, 60
2, 94624, Note_off_c, 0, 77, 100
2, 94656, Note_on_c, 0, 79, 60
2, 94720, Note_off_c, 0, 79, 100
2, 94752, Note_on_c, 0, 77, 60
2, 94816, Note_off_c, 0, 77, 100
2, 94848, Note_on_c, 0, 76, 60
2, 94912, Note_off_c, 0, 76, 100
2, 94944, Note_on_c, 0, 74, 60
2, 95008, Note_off_c, 0, 74, 100
2, 95040, Note_on_c, 0, 72, 60
2, 95104, Note_off_c, 0, 72, 100
2, 95136, Note_on_c, 0, 70, 60
2, 95200, Note_off_c, 0, 70, 100
2, 95232, Note_on_c, 0, 69, 60
2, 95360, Note_off_c, 0, 69, 100
2, 95424, Note_on_c, 0, 69, 60
2, 95552, Note_off_c, 0, 69, 100
2, 95808, Note_on_c, 0, 65, 60
2, 95936, Note_off_c, 0, 65, 100
2, 96000, Note_on_c, 0, 63, 60
2, 96128, Note_off_c, 0, 63, 100
2, 96192, Note_on_c, 0, 65, 60
2, 96320, Note_off_c, 0, 65, 100
2, 96384, Note_on_c, 0, 67, 60
2, 96512, Note_off_c, 0, 67, 100
2, 96576, Note_on_c, 0, 69, 60
2, 96704, Note_off_c, 0, 69, 100
2, 96768, Note_on_c, 0, 70, 60
2, 96896, Note_off_c, 0, 70, 100
2, 96960, Note_on_c, 0, 70, 60
2, 97056, Note_on_c, 0, 69, 60
2, 97088, Note_off_c, 0, 70, 100
2, 97104, Note_on_c, 0, 70, 60
2, 97120, Note_off_c, 0, 69, 100
2, 97152, Note_on_c, 0, 72, 60
2, 97168, Note_off_c, 0, 70, 100
2, 97280, Note_off_c, 0, 72, 100
2, 97344, Note_on_c, 0, 74, 60
2, 97472, Note_off_c, 0, 74, 100
2, 97536, Note_on_c, 0, 74, 60
2, 97536, Note_on_c, 0, 70, 60
2, 97664, Note_off_c, 0, 74, 100
2, 97664, Note_off_c, 0, 70, 100
2, 97728, Note_on_c, 0, 72, 60
2, 97728, Note_on_c, 0, 69, 60
2, 97856, Note_off_c, 0, 72, 100
2, 97856, Note_off_c, 0, 69, 100
2, 98112, Note_on_c, 0, 64, 60
2, 98112, Note_on_c, 0, 58, 60
2, 98240, Note_off_c, 0, 64, 100
2, 98240, Note_off_c, 0, 58, 100
2, 98304, Note_on_c, 0, 67, 60
2, 98304, Note_on_c, 0, 58, 60
2, 98816, Note_off_c, 0, 67, 100
2, 98816, Note_off_c, 0, 58, 100
2, 99072, Note_on_c, 0, 65, 60
2, 99072, Note_on_c, 0, 57, 60
2, 99328, Note_off_c, 0, 65, 100
2, 99328, Note_off_c, 0, 57, 100
2, 99456, Note_on_c, 0, 79, 60
2, 99520, Note_off_c, 0, 79, 100
2, 99552, Note_on_c, 0, 77, 60
2, 99616, Note_off_c, 0, 77, 100
2, 99648, Note_on_c, 0, 75, 60
2, 99712, Note_off_c, 0, 75, 100
2, 99744, Note_on_c, 0, 74, 60
2, 99808, Note_off_c, 0, 74, 100
2, 99840, Note_on_c, 0, 72, 82
2, 99968, Note_off_c, 0, 72, 100
2, 100032, Note_on_c, 0, 70, 82
2, 100032, Note_on_c, 0, 60, 60
2, 100152, Note_off_c, 0, 60, 100
2, 100160, Note_off_c, 0, 70, 100
2, 100224, Note_on_c, 0, 70, 82
2, 100224, Note_on_c, 0, 62, 60
2, 100344, Note_off_c, 0, 62, 100
2, 100416, Note_on_c, 0, 65, 60
2, 100536, Note_off_c, 0, 65, 100
2, 100604, Note_off_c, 0, 70, 100
2, 100608, Note_on_c, 0, 62, 60
2, 100728, Note_off_c, 0, 62, 100
2, 100800, Note_on_c, 0, 74, 82
2, 100800, Note_on_c, 0, 58, 60
2, 100920, Note_off_c, 0, 58, 100
2, 100928, Note_off_c, 0, 74, 100
2, 100992, Note_on_c, 0, 79, 82
2, 100992, Note_on_c, 0, 62, 60
2, 101112, Note_off_c, 0, 62, 100
2, 101120, Note_off_c, 0, 79, 100
2, 101184, Note_on_c, 0, 74, 82
2, 101184, Note_on_c, 0, 67, 60
2, 101304, Note_off_c, 0, 67, 100
2, 101312, Note_off_c, 0, 74, 100
2, 101376, Note_on_c, 0, 77, 82
2, 101568, Note_on_c, 0, 60, 60
2, 101632, Note_off_c, 0, 77, 100
2, 101688, Note_off_c, 0, 60, 100
2, 101760, Note_on_c, 0, 75, 82
2, 101760, Note_on_c, 0, 63, 60
2, 101880, Note_off_c, 0, 63, 100
2, 101952, Note_on_c, 0, 65, 60
2, 102072, Note_off_c, 0, 65, 100
2, 102144, Note_off_c, 0, 75, 100
2, 102144, Note_on_c, 0, 63, 60
2, 102264, Note_off_c, 0, 63, 100
2, 102336, Note_on_c, 0, 77, 82
2, 102336, Note_on_c, 0, 58, 60
2, 102400, Note_off_c, 0, 77, 100
2, 102432, Note_on_c, 0, 79, 82
2, 102456, Note_off_c, 0, 58, 100
2, 102496, Note_off_c, 0, 79, 100
2, 102528, Note_on_c, 0, 77, 82
2, 102528, Note_on_c, 0, 63, 60
2, 102592, Note_off_c, 0, 77, 100
2, 102624, Note_on_c, 0, 75, 82
2, 102648, Note_off_c, 0, 63, 100
2, 102688, Note_off_c, 0, 75, 100
2, 102720, Note_on_c, 0, 74, 82
2, 102720, Note_on_c, 0, 67, 60
2, 102784, Note_off_c, 0, 74, 100
2, 102816, Note_on_c, 0, 72, 82
2, 102840, Note_off_c, 0, 67, 100
2, 102880, Note_off_c, 0, 72, 100
2, 102912, Note_on_c, 0, 70, 82
2, 103168, Note_off_c, 0, 70, 100
2, 103296, Note_on_c, 0, 69, 82
2, 103676, Note_off_c, 0, 69, 100
2, 103872, Note_on_c, 0, 69, 82
2, 104000, Note_off_c, 0, 69, 100
2, 104064, Note_on_c, 0, 70, 82
2, 104192, Note_off_c, 0, 70, 100
2, 104256, Note_on_c, 0, 72, 82
2, 104384, Note_off_c, 0, 72, 100
2, 104448, Note_on_c, 0, 72, 82
2, 104448, Note_on_c, 0, 69, 82
2, 104640, Note_on_c, 0, 58, 60
2, 104704, Note_off_c, 0, 72, 100
2, 104704, Note_off_c, 0, 69, 100
2, 104760, Note_off_c, 0, 58, 100
2, 104832, Note_on_c, 0, 74, 82
2, 104832, Note_on_c, 0, 70, 82
2, 104832, Note_on_c, 0, 62, 60
2, 104952, Note_off_c, 0, 62, 100
2, 105024, Note_on_c, 0, 65, 60
2, 105088, Note_off_c, 0, 74, 100
2, 105088, Note_off_c, 0, 70, 100
2, 105144, Note_off_c, 0, 65, 100
2, 105216, Note_on_c, 0, 62, 60
2, 105336, Note_off_c, 0, 62, 100
2, 105408, Note_on_c, 0, 77, 82
2, 105408, Note_on_c, 0, 58, 60
2, 105472, Note_off_c, 0, 77, 100
2, 105504, Note_on_c, 0, 76, 82
2, 105528, Note_off_c, 0, 58, 100
2, 105568, Note_off_c, 0, 76, 100
2, 105600, Note_on_c, 0, 79, 82
2, 105600, Note_on_c, 0, 62, 60
2, 105664, Note_off_c, 0, 79, 100
2, 105696, Note_on_c, 0, 77, 82
2, 105720, Note_off_c, 0, 62, 100
2, 105760, Note_off_c, 0, 77, 100
2, 105792, Note_on_c, 0, 75, 82
2, 105792, Note_on_c, 0, 65, 60
2, 105856, Note_off_c, 0, 75, 100
2, 105888, Note_on_c, 0, 74, 82
2, 105912, Note_off_c, 0, 65, 100
2, 105952, Note_off_c, 0, 74, 100
2, 105984, Note_on_c, 0, 74, 82
2, 105984, Note_on_c, 0, 63, 60
2, 106104, Note_off_c, 0, 63, 100
2, 106112, Note_off_c, 0, 74, 100
2, 106176, Note_on_c, 0, 72, 82
2, 106176, Note_on_c, 0, 67, 60
2, 106296, Note_off_c, 0, 67, 100
2, 106368, Note_on_c, 0, 62, 60
2, 106432, Note_off_c, 0, 72, 100
2, 106488, Note_off_c, 0, 62, 100
2, 106560, Note_on_c, 0, 70, 82
2, 106560, Note_on_c, 0, 65, 60
2, 106680, Note_off_c, 0, 65, 100
2, 106688, Note_off_c, 0, 70, 100
2, 106752, Note_on_c, 0, 74, 82
2, 106752, Note_on_c, 0, 63, 60
2, 106872, Note_off_c, 0, 63, 100
2, 106880, Note_off_c, 0, 74, 100
2, 106944, Note_on_c, 0, 72, 82
2, 106944, Note_on_c, 0, 67, 60
2, 107064, Note_off_c, 0, 67, 100
2, 107136, Note_on_c, 0, 60, 60
2, 107200, Note_off_c, 0, 72, 100
2, 107256, Note_off_c, 0, 60, 100
2, 107328, Note_on_c, 0, 69, 82
2, 107328, Note_on_c, 0, 63, 60
2, 107448, Note_off_c, 0, 63, 100
2, 107456, Note_off_c, 0, 69, 100
2, 107520, Note_on_c, 0, 70, 82
2, 107520, Note_on_c, 0, 62, 60
2, 107520, Note_on_c, 0, 65, 60
2, 107584, Note_off_c, 0, 70, 100
2, 107616, Note_on_c, 0, 72, 82
2, 107680, Note_off_c, 0, 72, 100
2, 107712, Note_on_c, 0, 70, 82
2, 107776, Note_off_c, 0, 70, 100
2, 107784, Note_off_c, 0, 62, 100
2, 107784, Note_off_c, 0, 65, 100
2, 107808, Note_on_c, 0, 69, 82
2, 107872, Note_off_c, 0, 69, 100
2, 107904, Note_on_c, 0, 70, 82
2, 107968, Note_off_c, 0, 70, 100
2, 108000, Note_on_c, 0, 72, 82
2, 108064, Note_off_c, 0, 72, 100
2, 108096, Note_on_c, 0, 74, 82
2, 108160, Note_off_c, 0, 74, 100
2, 108192, Note_on_c, 0, 75, 82
2, 108256, Note_off_c, 0, 75, 100
2, 108288, Note_on_c, 0, 76, 82
2, 108352, Note_off_c, 0, 76, 100
2, 108384, Note_on_c, 0, 77, 82
2, 108448, Note_off_c, 0, 77, 100
2, 108480, Note_on_c, 0, 76, 82
2, 108544, Note_off_c, 0, 76, 100
2, 108576, Note_on_c, 0, 77, 82
2, 108640, Note_off_c, 0, 77, 100
2, 108672, Note_on_c, 0, 79, 82
2, 108736, Note_off_c, 0, 79, 100
2, 108768, Note_on_c, 0, 77, 82
2, 108832, Note_off_c, 0, 77, 100
2, 108864, Note_on_c, 0, 75, 82
2, 108928, Note_off_c, 0, 75, 100
2, 108960, Note_on_c, 0, 74, 82
2, 109024, Note_off_c, 0, 74, 100
2, 109056, Note_on_c, 0, 74, 82
2, 109056, Note_on_c, 0, 63, 60
2, 109176, Note_off_c, 0, 63, 100
2, 109184, Note_off_c, 0, 74, 100
2, 109248, Note_on_c, 0, 72, 82
2, 109248, Note_on_c, 0, 67, 60
2, 109368, Note_off_c, 0, 67, 100
2, 109376, Note_off_c, 0, 72, 100
2, 109440, Note_on_c, 0, 72, 82
2, 109440, Note_on_c, 0, 62, 60
2, 109560, Note_off_c, 0, 62, 100
2, 109568, Note_off_c, 0, 72, 100
2, 109632, Note_on_c, 0, 70, 82
2, 109632, Note_on_c, 0, 65, 60
2, 109752, Note_off_c, 0, 65, 100
2, 109760, Note_off_c, 0, 70, 100
2, 109824, Note_on_c, 0, 74, 82
2, 109824, Note_on_c, 0, 63, 60
2, 109944, Note_off_c, 0, 63, 100
2, 109952, Note_off_c, 0, 74, 100
2, 110016, Note_on_c, 0, 72, 82
2, 110016, Note_on_c, 0, 67, 60
2, 110136, Note_off_c, 0, 67, 100
2, 110144, Note_off_c, 0, 72, 100
2, 110208, Note_on_c, 0, 72, 82
2, 110208, Note_on_c, 0, 60, 60
2, 110328, Note_off_c, 0, 60, 100
2, 110336, Note_off_c, 0, 72, 100
2, 110400, Note_on_c, 0, 69, 82
2, 110400, Note_on_c, 0, 63, 60
2, 110520, Note_off_c, 0, 63, 100
2, 110528, Note_off_c, 0, 69, 100
2, 110592, Note_on_c, 0, 70, 82
2, 110592, Note_on_c, 0, 62, 60
2, 110592, Note_on_c, 0, 65, 60
2, 110720, Note_off_c, 0, 70, 100
2, 110784, Note_on_c, 0, 72, 82
2, 110848, Note_off_c, 0, 72, 100
2, 110856, Note_off_c, 0, 62, 100
2, 110856, Note_off_c, 0, 65, 100
2, 110880, Note_on_c, 0, 74, 82
2, 110944, Note_off_c, 0, 74, 100
2, 110976, Note_on_c, 0, 75, 82
2, 111040, Note_off_c, 0, 75, 100
2, 111072, Note_on_c, 0, 77, 82
2, 111136, Note_off_c, 0, 77, 100
2, 111168, Note_on_c, 0, 79, 82
2, 111232, Note_off_c, 0, 79, 100
2, 111264, Note_on_c, 0, 81, 82
2, 111328, Note_off_c, 0, 81, 100
2, 111360, Note_on_c, 0, 82, 82
2, 111424, Note_off_c, 0, 82, 100
2, 111456, Note_on_c, 0, 84, 82
2, 111520, Note_off_c, 0, 84, 100
2, 111552, Note_on_c, 0, 86, 82
2, 111616, Note_off_c, 0, 86, 100
2, 111648, Note_on_c, 0, 87, 82
2, 111712, Note_off_c, 0, 87, 100
2, 111744, Note_on_c, 0, 89, 82
2, 111872, Note_off_c, 0, 89, 100
2, 111936, Note_on_c, 0, 89, 82
2, 112064, Note_off_c, 0, 89, 100
2, 112128, Note_on_c, 0, 89, 90
2, 112128, Note_on_c, 0, 77, 90
2, 112256, Note_off_c, 0, 89, 100
2, 112320, Note_on_c, 0, 87, 90
2, 112576, Note_off_c, 0, 87, 100
2, 112640, Note_off_c, 0, 77, 100
2, 112704, Note_on_c, 0, 86, 90
2, 112832, Note_off_c, 0, 86, 100
2, 112896, Note_on_c, 0, 77, 90
2, 112896, Note_on_c, 0, 86, 90
2, 113024, Note_off_c, 0, 77, 100
2, 113024, Note_off_c, 0, 86, 100
2, 113088, Note_on_c, 0, 75, 90
2, 113088, Note_on_c, 0, 84, 90
2, 113216, Note_off_c, 0, 75, 100
2, 113216, Note_off_c, 0, 84, 100
2, 113280, Note_on_c, 0, 82, 90
2, 113280, Note_on_c, 0, 74, 90
2, 113408, Note_off_c, 0, 82, 100
2, 113408, Note_off_c, 0, 74, 100
2, 113472, Note_on_c, 0, 81, 90
2, 113472, Note_on_c, 0, 72, 90
2, 113600, Note_off_c, 0, 81, 100
2, 113600, Note_off_c, 0, 72, 100
2, 113664, Note_on_c, 0, 82, 90
2, 113664, Note_on_c, 0, 74, 90
2, 113664, Note_on_c, 0, 82, 90
2, 113920, Note_off_c, 0, 82, 100
2, 113920, Note_off_c, 0, 74, 100
2, 113920, Note_off_c, 0, 82, 100
2, 114048, Note_on_c, 0, 70, 90
2, 114304, Note_off_c, 0, 70, 100
2, 114816, Note_on_c, 0, 67, 60
2, 114880, Note_off_c, 0, 67, 100
2, 114912, Note_on_c, 0, 65, 60
2, 114976, Note_off_c, 0, 65, 100
2, 115008, Note_on_c, 0, 63, 60
2, 115072, Note_off_c, 0, 63, 100
2, 115104, Note_on_c, 0, 62, 60
2, 115168, Note_off_c, 0, 62, 100
2, 115200, Note_on_c, 0, 60, 60
2, 115328, Note_off_c, 0, 60, 100
2, 115392, Note_on_c, 0, 58, 60
2, 115520, Note_off_c, 0, 58, 100
2, 115584, Note_on_c, 0, 58, 60
2, 115964, Note_off_c, 0, 58, 100
2, 116160, Note_on_c, 0, 70, 60
2, 116288, Note_off_c, 0, 70, 100
2, 116352, Note_on_c, 0, 69, 60
2, 116480, Note_off_c, 0, 69, 100
2, 116544, Note_on_c, 0, 67, 60
2, 116672, Note_off_c, 0, 67, 100
2, 116736, Note_on_c, 0, 65, 60
2, 116992, Note_off_c, 0, 65, 100
2, 117120, Note_on_c, 0, 63, 60
2, 117376, Note_off_c, 0, 63, 100
2, 117504, Note_on_c, 0, 63, 60
2, 117568, Note_off_c, 0, 63, 100
2, 117600, Note_on_c, 0, 67, 60
2, 117664, Note_off_c, 0, 67, 100
2, 117696, Note_on_c, 0, 65, 60
2, 117760, Note_off_c, 0, 65, 100
2, 117792, Note_on_c, 0, 69, 60
2, 117856, Note_off_c, 0, 69, 100
2, 117888, Note_on_c, 0, 67, 60
2, 117952, Note_off_c, 0, 67, 100
2, 117984, Note_on_c, 0, 70, 60
2, 118048, Note_off_c, 0, 70, 100
2, 118080, Note_on_c, 0, 69, 60
2, 118144, Note_off_c, 0, 69, 100
2, 118176, Note_on_c, 0, 72, 60
2, 118240, Note_off_c, 0, 72, 100
2, 118272, Note_on_c, 0, 70, 60
2, 118336, Note_off_c, 0, 70, 100
2, 118368, Note_on_c, 0, 67, 60
2, 118432, Note_off_c, 0, 67, 100
2, 118464, Note_on_c, 0, 76, 60
2, 118528, Note_off_c, 0, 76, 100
2, 118560, Note_on_c, 0, 72, 60
2, 118624, Note_off_c, 0, 72, 100
2, 118656, Note_on_c, 0, 79, 60
2, 118720, Note_off_c, 0, 79, 100
2, 118752, Note_on_c, 0, 76, 60
2, 118816, Note_off_c, 0, 76, 100
2, 118848, Note_on_c, 0, 82, 60
2, 118912, Note_off_c, 0, 82, 100
2, 118944, Note_on_c, 0, 81, 60
2, 119008, Note_off_c, 0, 81, 100
2, 119040, Note_on_c, 0, 82, 60
2, 119104, Note_off_c, 0, 82, 100
2, 119136, Note_on_c, 0, 81, 60
2, 119200, Note_off_c, 0, 81, 100
2, 119232, Note_on_c, 0, 79, 60
2, 119296, Note_off_c, 0, 79, 100
2, 119328, Note_on_c, 0, 77, 60
2, 119392, Note_off_c, 0, 77, 100
2, 119424, Note_on_c, 0, 76, 60
2, 119488, Note_off_c, 0, 76, 100
2, 119520, Note_on_c, 0, 74, 60
2, 119584, Note_off_c, 0, 74, 100
2, 119616, Note_on_c, 0, 72, 60
2, 119680, Note_off_c, 0, 72, 100
2, 119712, Note_on_c, 0, 70, 60
2, 119776, Note_off_c, 0, 70, 100
2, 119808, Note_on_c, 0, 70, 60
2, 119872, Note_off_c, 0, 70, 100
2, 119904, Note_on_c, 0, 69, 60
2, 119968, Note_off_c, 0, 69, 100
2, 120000, Note_on_c, 0, 74, 60
2, 120064, Note_off_c, 0, 74, 100
2, 120096, Note_on_c, 0, 72, 60
2, 120160, Note_off_c, 0, 72, 100
2, 120192, Note_on_c, 0, 72, 60
2, 120448, Note_off_c, 0, 72, 100
2, 120960, Note_on_c, 0, 86, 60
2, 121024, Note_off_c, 0, 86, 100
2, 121056, Note_on_c, 0, 84, 60
2, 121120, Note_off_c, 0, 84, 100
2, 121152, Note_on_c, 0, 82, 60
2, 121216, Note_off_c, 0, 82, 100
2, 121248, Note_on_c, 0, 81, 60
2, 121312, Note_off_c, 0, 81, 100
2, 121344, Note_on_c, 0, 79, 60
2, 121724, Note_off_c, 0, 79, 100
2, 121920, Note_on_c, 0, 76, 60
2, 122048, Note_off_c, 0, 76, 100
2, 122112, Note_on_c, 0, 77, 61
2, 122176, Note_off_c, 0, 77, 100
2, 122208, Note_on_c, 0, 84, 61
2, 122272, Note_off_c, 0, 84, 100
2, 122304, Note_on_c, 0, 83, 63
2, 122368, Note_off_c, 0, 83, 100
2, 122400, Note_on_c, 0, 84, 64
2, 122464, Note_off_c, 0, 84, 100
2, 122496, Note_on_c, 0, 86, 66
2, 122560, Note_off_c, 0, 86, 100
2, 122592, Note_on_c, 0, 84, 66
2, 122656, Note_off_c, 0, 84, 100
2, 122688, Note_on_c, 0, 82, 67
2, 122752, Note_off_c, 0, 82, 100
2, 122784, Note_on_c, 0, 81, 67
2, 122848, Note_off_c, 0, 81, 100
2, 122880, Note_on_c, 0, 79, 69
2, 123008, Note_off_c, 0, 79, 100
2, 123072, Note_on_c, 0, 79, 70
2, 123328, Note_off_c, 0, 79, 100
2, 123456, Note_on_c, 0, 76, 72
2, 123584, Note_off_c, 0, 76, 100
2, 123648, Note_on_c, 0, 77, 73
2, 123712, Note_off_c, 0, 77, 100
2, 123744, Note_on_c, 0, 84, 74
2, 123808, Note_off_c, 0, 84, 100
2, 123840, Note_on_c, 0, 83, 76
2, 123904, Note_off_c, 0, 83, 100
2, 123936, Note_on_c, 0, 84, 78
2, 124000, Note_off_c, 0, 84, 100
2, 124032, Note_on_c, 0, 86, 78
2, 124096, Note_off_c, 0, 86, 100
2, 124128, Note_on_c, 0, 84, 79
2, 124192, Note_off_c, 0, 84, 100
2, 124224, Note_on_c, 0, 82, 80
2, 124288, Note_off_c, 0, 82, 100
2, 124320, Note_on_c, 0, 81, 82
2, 124384, Note_off_c, 0, 81, 100
2, 124416, Note_on_c, 0, 81, 82
2, 124544, Note_off_c, 0, 81, 100
2, 124608, Note_on_c, 0, 79, 84
2, 124736, Note_off_c, 0, 79, 100
2, 124992, Note_on_c, 0, 79, 85
2, 125120, Note_off_c, 0, 79, 100
2, 125184, Note_on_c, 0, 79, 86
2, 125312, Note_off_c, 0, 79, 100
2, 125376, Note_on_c, 0, 77, 86
2, 125504, Note_off_c, 0, 77, 100
2, 125760, Note_on_c, 0, 77, 88
2, 125888, Note_off_c, 0, 77, 100
2, 125952, Note_on_c, 0, 76, 90
2, 125952, Note_on_c, 0, 60, 90
2, 126016, Note_off_c, 0, 76, 100
2, 126048, Note_on_c, 0, 77, 90
2, 126112, Note_off_c, 0, 77, 100
2, 126144, Note_on_c, 0, 76, 90
2, 126208, Note_off_c, 0, 76, 100
2, 126216, Note_off_c, 0, 60, 100
2, 126240, Note_on_c, 0, 72, 90
2, 126304, Note_off_c, 0, 72, 100
2, 126336, Note_on_c, 0, 77, 90
2, 126336, Note_on_c, 0, 62, 90
2, 126400, Note_off_c, 0, 77, 100
2, 126432, Note_on_c, 0, 79, 90
2, 126496, Note_off_c, 0, 79, 100
2, 126528, Note_on_c, 0, 77, 90
2, 126592, Note_off_c, 0, 77, 100
2, 126600, Note_off_c, 0, 62, 100
2, 126624, Note_on_c, 0, 72, 90
2, 126688, Note_off_c, 0, 72, 100
2, 126720, Note_on_c, 0, 79, 90
2, 126720, Note_on_c, 0, 64, 90
2, 126784, Note_off_c, 0, 79, 100
2, 126816, Note_on_c, 0, 81, 90
2, 126880, Note_off_c, 0, 81, 100
2, 126912, Note_on_c, 0, 79, 90
2, 126976, Note_off_c, 0, 79, 100
2, 126984, Note_off_c, 0, 64, 100
2, 127008, Note_on_c, 0, 72, 90
2, 127072, Note_off_c, 0, 72, 100
2, 127104, Note_on_c, 0, 81, 90
2, 127104, Note_on_c, 0, 65, 90
2, 127168, Note_off_c, 0, 81, 100
2, 127200, Note_on_c, 0, 82, 90
2, 127264, Note_off_c, 0, 82, 100
2, 127296, Note_on_c, 0, 81, 90
2, 127360, Note_off_c, 0, 81, 100
2, 127368, Note_off_c, 0, 65, 100
2, 127392, Note_on_c, 0, 72, 90
2, 127456, Note_off_c, 0, 72, 100
2, 127488, Note_on_c, 0, 82, 90
2, 127488, Note_on_c, 0, 67, 90
2, 127608, Note_off_c, 0, 67, 100
2, 127616, Note_off_c, 0, 82, 100
2, 127680, Note_on_c, 0, 82, 90
2, 127680, Note_on_c, 0, 72, 90
2, 127800, Note_off_c, 0, 72, 100
2, 127808, Note_off_c, 0, 82, 100
2, 127872, Note_on_c, 0, 64, 90
2, 127992, Note_off_c, 0, 64, 100
2, 128064, Note_on_c, 0, 79, 90
2, 128064, Note_on_c, 0, 72, 90
2, 128184, Note_off_c, 0, 72, 100
2, 128192, Note_off_c, 0, 79, 100
2, 128256, Note_on_c, 0, 82, 90
2, 128256, Note_on_c, 0, 65, 90
2, 128376, Note_off_c, 0, 65, 100
2, 128384, Note_off_c, 0, 82, 100
2, 128448, Note_on_c, 0, 81, 90
2, 128448, Note_on_c, 0, 72, 90
2, 128568, Note_off_c, 0, 72, 100
2, 128576, Note_off_c, 0, 81, 100
2, 128640, Note_on_c, 0, 79, 90
2, 128640, Note_on_c, 0, 62, 90
2, 128760, Note_off_c, 0, 62, 100
2, 128768, Note_off_c, 0, 79, 100
2, 128832, Note_on_c, 0, 77, 90
2, 128832, Note_on_c, 0, 72, 90
2, 128952, Note_off_c, 0, 72, 100
2, 128960, Note_off_c, 0, 77, 100
2, 129024, Note_on_c, 0, 76, 90
2, 129024, Note_on_c, 0, 60, 90
2, 129088, Note_off_c, 0, 76, 100
2, 129120, Note_on_c, 0, 72, 90
2, 129184, Note_off_c, 0, 72, 100
2, 129216, Note_on_c, 0, 83, 90
2, 129280, Note_off_c, 0, 83, 100
2, 129288, Note_off_c, 0, 60, 100
2, 129312, Note_on_c, 0, 84, 90
2, 129376, Note_off_c, 0, 84, 100
2, 129408, Note_on_c, 0, 77, 90
2, 129408, Note_on_c, 0, 62, 90
2, 129472, Note_off_c, 0, 77, 100
2, 129504, Note_on_c, 0, 72, 90
2, 129568, Note_off_c, 0, 72, 100
2, 129600, Note_on_c, 0, 83, 90
2, 129664, Note_off_c, 0, 83, 100
2, 129672, Note_off_c, 0, 62, 100
2, 129696, Note_on_c, 0, 84, 90
2, 129760, Note_off_c, 0, 84, 100
2, 129792, Note_on_c, 0, 79, 90
2, 129792, Note_on_c, 0, 64, 90
2, 129856, Note_off_c, 0, 79, 100
2, 129888, Note_on_c, 0, 71, 90
2, 129952, Note_off_c, 0, 71, 100
2, 129984, Note_on_c, 0, 83, 90
2, 130048, Note_off_c, 0, 83, 100
2, 130056, Note_off_c, 0, 64, 100
2, 130080, Note_on_c, 0, 84, 90
2, 130144, Note_off_c, 0, 84, 100
2, 130176, Note_on_c, 0, 81, 90
2, 130176, Note_on_c, 0, 65, 90
2, 130240, Note_off_c, 0, 81, 100
2, 130272, Note_on_c, 0, 71, 90
2, 130336, Note_off_c, 0, 71, 100
2, 130368, Note_on_c, 0, 83, 90
2, 130432, Note_off_c, 0, 83, 100
2, 130440, Note_off_c, 0, 65, 100
2, 130464, Note_on_c, 0, 84, 90
2, 130528, Note_off_c, 0, 84, 100
2, 130560, Note_on_c, 0, 82, 90
2, 130560, Note_on_c, 0, 67, 90
2, 130632, Note_off_c, 0, 67, 100
2, 130656, Note_on_c, 0, 72, 90
2, 130688, Note_off_c, 0, 82, 100
2, 130728, Note_off_c, 0, 72, 100
2, 130752, Note_on_c, 0, 82, 90
2, 130752, Note_on_c, 0, 71, 90
2, 130824, Note_off_c, 0, 71, 100
2, 130848, Note_on_c, 0, 72, 90
2, 130880, Note_off_c, 0, 82, 100
2, 130920, Note_off_c, 0, 72, 100
2, 130944, Note_on_c, 0, 64, 90
2, 131016, Note_off_c, 0, 64, 100
2, 131040, Note_on_c, 0, 72, 90
2, 131112, Note_off_c, 0, 72, 100
2, 131136, Note_on_c, 0, 79, 90
2, 131136, Note_on_c, 0, 71, 90
2, 131208, Note_off_c, 0, 71, 100
2, 131232, Note_on_c, 0, 72, 90
2, 131264, Note_off_c, 0, 79, 100
2, 131304, Note_off_c, 0, 72, 100
2, 131328, Note_on_c, 0, 65, 90
2, 131328, Note_on_c, 0, 82, 90
2, 131400, Note_off_c, 0, 65, 100
2, 131424, Note_on_c, 0, 72, 90
2, 131456, Note_off_c, 0, 82, 100
2, 131496, Note_off_c, 0, 72, 100
2, 131520, Note_on_c, 0, 81, 90
2, 131520, Note_on_c, 0, 71, 90
2, 131592, Note_off_c, 0, 71, 100
2, 131616, Note_on_c, 0, 72, 90
2, 131648, Note_off_c, 0, 81, 100
2, 131688, Note_off_c, 0, 72, 100
2, 131712, Note_on_c, 0, 79, 90
2, 131712, Note_on_c, 0, 62, 90
2, 131784, Note_off_c, 0, 62, 100
2, 131808, Note_on_c, 0, 72, 90
2, 131840, Note_off_c, 0, 79, 100
2, 131880, Note_off_c, 0, 72, 100
2, 131904, Note_on_c, 0, 77, 90
2, 131904, Note_on_c, 0, 69, 90
2, 131976, Note_off_c, 0, 69, 100
2, 132000, Note_on_c, 0, 71, 90
2, 132032, Note_off_c, 0, 77, 100
2, 132072, Note_off_c, 0, 71, 100
2, 132096, Note_on_c, 0, 76, 90
2, 132096, Note_on_c, 0, 60, 90
2, 132096, Note_on_c, 0, 72, 90
2, 132160, Note_off_c, 0, 76, 100
2, 132192, Note_on_c, 0, 84, 90
2, 132256, Note_off_c, 0, 84, 100
2, 132288, Note_on_c, 0, 79, 90
2, 132352, Note_off_c, 0, 79, 100
2, 132360, Note_off_c, 0, 60, 100
2, 132360, Note_off_c, 0, 72, 100
2, 132384, Note_on_c, 0, 76, 90
2, 132448, Note_off_c, 0, 76, 100
2, 132480, Note_on_c, 0, 72, 90
2, 132544, Note_off_c, 0, 72, 100
2, 132576, Note_on_c, 0, 67, 90
2, 132640, Note_off_c, 0, 67, 100
2, 132672, Note_on_c, 0, 64, 90
2, 132736, Note_off_c, 0, 64, 100
2, 132768, Note_on_c, 0, 60, 90
2, 132832, Note_off_c, 0, 60, 100
2, 133632, Note_on_c, 0, 60, 97
2, 133644, Note_on_c, 0, 65, 97
2, 133660, Note_on_c, 0, 69, 97
2, 133676, Note_on_c, 0, 72, 97
2, 134012, Note_off_c, 0, 60, 100
2, 134024, Note_off_c, 0, 65, 100
2, 134040, Note_off_c, 0, 69, 100
2, 134056, Note_off_c, 0, 72, 100
2, 134208, Note_on_c, 0, 74, 90
2, 134272, Note_off_c, 0, 74, 100
2, 134304, Note_on_c, 0, 72, 90
2, 134368, Note_off_c, 0, 72, 100
2, 134400, Note_on_c, 0, 70, 90
2, 134528, Note_off_c, 0, 70, 100
2, 134592, Note_on_c, 0, 69, 90
2, 134720, Note_off_c, 0, 69, 100
2, 134784, Note_on_c, 0, 67, 90
2, 134912, Note_off_c, 0, 67, 100
2, 134976, Note_on_c, 0, 65, 90
2, 135104, Note_off_c, 0, 65, 100
2, 135168, Note_on_c, 0, 65, 90
2, 135296, Note_off_c, 0, 65, 100
2, 135360, Note_on_c, 0, 74, 90
2, 135488, Note_off_c, 0, 74, 100
2, 135552, Note_on_c, 0, 65, 97
2, 135552, Note_on_c, 0, 74, 97
2, 135936, Note_off_c, 0, 65, 100
2, 135936, Note_off_c, 0, 74, 100
2, 136128, Note_on_c, 0, 72, 60
2, 136256, Note_off_c, 0, 72, 100
2, 136320, Note_on_c, 0, 76, 60
2, 136448, Note_off_c, 0, 76, 100
2, 136512, Note_on_c, 0, 77, 60
2, 136640, Note_off_c, 0, 77, 100
2, 136704, Note_on_c, 0, 77, 60
2, 136832, Note_off_c, 0, 77, 100
2, 136896, Note_on_c, 0, 67, 60
2, 137152, Note_off_c, 0, 67, 100
2, 137280, Note_on_c, 0, 69, 60
2, 137408, Note_off_c, 0, 69, 100
2, 137472, Note_on_c, 0, 77, 60
2, 137600, Note_off_c, 0, 77, 100
2, 137664, Note_on_c, 0, 67, 60
2, 137920, Note_off_c, 0, 67, 100
2, 138048, Note_on_c, 0, 69, 60
2, 138176, Note_off_c, 0, 69, 100
2, 138240, Note_on_c, 0, 72, 60
2, 138496, Note_off_c, 0, 72, 100
2, 138624, Note_on_c, 0, 70, 60
2, 138752, Note_off_c, 0, 70, 100
2, 138816, Note_on_c, 0, 69, 60
2, 138880, Note_off_c, 0, 69, 100
2, 138912, Note_on_c, 0, 70, 60
2, 138976, Note_off_c, 0, 70, 100
2, 139008, Note_on_c, 0, 69, 60
2, 139136, Note_off_c, 0, 69, 100
2, 139200, Note_on_c, 0, 69, 60
2, 139328, Note_off_c, 0, 69, 100
2, 139392, Note_on_c, 0, 70, 60
2, 139520, Note_off_c, 0, 70, 100
2, 139584, Note_on_c, 0, 72, 60
2, 139712, Note_off_c, 0, 72, 100
2, 139776, Note_on_c, 0, 73, 60
2, 139904, Note_off_c, 0, 73, 100
2, 139968, Note_on_c, 0, 74, 60
2, 140224, Note_off_c, 0, 74, 100
2, 140352, Note_on_c, 0, 72, 60
2, 140416, Note_off_c, 0, 72, 100
2, 140448, Note_on_c, 0, 70, 60
2, 140512, Note_off_c, 0, 70, 100
2, 140544, Note_on_c, 0, 69, 60
2, 140672, Note_off_c, 0, 69, 100
2, 140736, Note_on_c, 0, 67, 60
2, 140864, Note_off_c, 0, 67, 100
2, 140928, Note_on_c, 0, 69, 60
2, 141056, Note_off_c, 0, 69, 100
2, 141120, Note_on_c, 0, 70, 60
2, 141248, Note_off_c, 0, 70, 100
2, 141312, Note_on_c, 0, 74, 60
2, 141440, Note_off_c, 0, 74, 100
2, 141504, Note_on_c, 0, 72, 60
2, 141884, Note_off_c, 0, 72, 100
2, 141888, Note_on_c, 0, 70, 60
2, 141952, Note_off_c, 0, 70, 100
2, 141984, Note_on_c, 0, 69, 60
2, 142048, Note_off_c, 0, 69, 100
2, 142080, Note_on_c, 0, 67, 60
2, 142208, Note_off_c, 0, 67, 100
2, 142272, Note_on_c, 0, 65, 60
2, 142400, Note_off_c, 0, 65, 100
2, 142464, Note_on_c, 0, 67, 60
2, 142592, Note_off_c, 0, 67, 100
2, 142656, Note_on_c, 0, 69, 60
2, 142784, Note_off_c, 0, 69, 100
2, 142848, Note_on_c, 0, 72, 60
2, 142976, Note_off_c, 0, 72, 100
2, 143040, Note_on_c, 0, 70, 60
2, 143296, Note_off_c, 0, 70, 100
2, 143424, Note_on_c, 0, 67, 60
2, 143552, Note_off_c, 0, 67, 100
2, 143616, Note_on_c, 0, 70, 60
2, 143744, Note_off_c, 0, 70, 100
2, 143808, Note_on_c, 0, 69, 60
2, 144064, Note_off_c, 0, 69, 100
2, 144192, Note_on_c, 0, 65, 60
2, 144320, Note_off_c, 0, 65, 100
2, 144384, Note_on_c, 0, 64, 60
2, 144448, Note_off_c, 0, 64, 100
2, 144480, Note_on_c, 0, 65, 60
2, 144544, Note_off_c, 0, 65, 100
2, 144576, Note_on_c, 0, 67, 60
2, 144640, Note_off_c, 0, 67, 100
2, 144672, Note_on_c, 0, 69, 60
2, 144736, Note_off_c, 0, 69, 100
2, 144768, Note_on_c, 0, 71, 60
2, 144832, Note_off_c, 0, 71, 100
2, 144864, Note_on_c, 0, 72, 60
2, 144928, Note_off_c, 0, 72, 100
2, 144960, Note_on_c, 0, 71, 60
2, 145024, Note_off_c, 0, 71, 100
2, 145056, Note_on_c, 0, 72, 60
2, 145128, Note_off_c, 0, 72, 100
2, 145152, Note_on_c, 0, 60, 60
2, 145408, Note_off_c, 0, 60, 100
2, 145920, Note_on_c, 0, 60, 90
2, 145932, Note_on_c, 0, 65, 90
2, 145948, Note_on_c, 0, 69, 90
2, 145964, Note_on_c, 0, 72, 90
2, 146304, Note_off_c, 0, 60, 100
2, 146316, Note_off_c, 0, 65, 100
2, 146328, Note_off_c, 0, 69, 100
2, 146348, Note_off_c, 0, 72, 100
2, 146496, Note_on_c, 0, 74, 60
2, 146592, Note_on_c, 0, 72, 60
2, 146624, Note_off_c, 0, 74, 100
2, 146656, Note_off_c, 0, 72, 100
2, 146688, Note_on_c, 0, 70, 60
2, 146816, Note_off_c, 0, 70, 100
2, 146880, Note_on_c, 0, 69, 60
2, 147008, Note_off_c, 0, 69, 100
2, 147072, Note_on_c, 0, 67, 60
2, 147200, Note_off_c, 0, 67, 100
2, 147264, Note_on_c, 0, 65, 60
2, 147392, Note_off_c, 0, 65, 100
2, 147456, Note_on_c, 0, 63, 60
2, 147584, Note_off_c, 0, 63, 100
2, 147648, Note_on_c, 0, 74, 60
2, 147776, Note_off_c, 0, 74, 100
2, 147840, Note_on_c, 0, 74, 90
2, 147840, Note_on_c, 0, 65, 90
2, 148220, Note_off_c, 0, 74, 100
2, 148220, Note_off_c, 0, 65, 100
2, 148416, Note_on_c, 0, 72, 60
2, 148544, Note_off_c, 0, 72, 100
2, 148608, Note_on_c, 0, 76, 60
2, 148736, Note_off_c, 0, 76, 100
2, 148800, Note_on_c, 0, 77, 60
2, 148928, Note_off_c, 0, 77, 100
2, 148992, Note_on_c, 0, 77, 60
2, 149120, Note_off_c, 0, 77, 100
2, 149184, Note_on_c, 0, 67, 60
2, 149312, Note_off_c, 0, 67, 100
2, 149376, Note_on_c, 0, 69, 60
2, 149504, Note_off_c, 0, 69, 100
2, 149568, Note_on_c, 0, 77, 60
2, 149696, Note_off_c, 0, 77, 100
2, 149760, Note_on_c, 0, 77, 60
2, 149888, Note_off_c, 0, 77, 100
2, 149952, Note_on_c, 0, 67, 60
2, 150080, Note_off_c, 0, 67, 100
2, 150144, Note_on_c, 0, 69, 60
2, 150272, Note_off_c, 0, 69, 100
2, 150336, Note_on_c, 0, 77, 60
2, 150464, Note_off_c, 0, 77, 100
2, 150528, Note_on_c, 0, 72, 60
2, 150528, Note_on_c, 0, 62, 60
2, 150528, Note_on_c, 0, 65, 60
2, 150784, Note_off_c, 0, 72, 100
2, 150792, Note_off_c, 0, 62, 100
2, 150792, Note_off_c, 0, 65, 100
2, 150912, Note_on_c, 0, 70, 60
2, 150912, Note_on_c, 0, 64, 60
2, 150912, Note_on_c, 0, 67, 60
2, 151040, Note_off_c, 0, 70, 100
2, 151104, Note_on_c, 0, 70, 60
2, 151176, Note_off_c, 0, 64, 100
2, 151176, Note_off_c, 0, 67, 100
2, 151232, Note_off_c, 0, 70, 100
2, 151296, Note_on_c, 0, 69, 60
2, 151296, Note_on_c, 0, 65, 60
2, 151424, Note_off_c, 0, 69, 100
2, 151488, Note_on_c, 0, 69, 60
2, 151560, Note_off_c, 0, 65, 100
2, 151616, Note_off_c, 0, 69, 100
2, 151680, Note_on_c, 0, 70, 60
2, 151808, Note_off_c, 0, 70, 100
2, 151872, Note_on_c, 0, 72, 60
2, 152000, Note_off_c, 0, 72, 100
2, 152064, Note_on_c, 0, 73, 90
2, 152192, Note_off_c, 0, 73, 100
2, 152256, Note_on_c, 0, 74, 90
2, 152636, Note_off_c, 0, 74, 100
2, 152640, Note_on_c, 0, 76, 90
2, 152704, Note_off_c, 0, 76, 100
2, 152736, Note_on_c, 0, 78, 90
2, 152800, Note_off_c, 0, 78, 100
2, 152832, Note_on_c, 0, 79, 90
2, 152896, Note_off_c, 0, 79, 100
2, 152928, Note_on_c, 0, 81, 90
2, 152992, Note_off_c, 0, 81, 100
2, 153024, Note_on_c, 0, 82, 90
2, 153088, Note_off_c, 0, 82, 100
2, 153120, Note_on_c, 0, 81, 90
2, 153184, Note_off_c, 0, 81, 100
2, 153216, Note_on_c, 0, 79, 90
2, 153280, Note_off_c, 0, 79, 100
2, 153312, Note_on_c, 0, 81, 90
2, 153376, Note_off_c, 0, 81, 100
2, 153408, Note_on_c, 0, 77, 90
2, 153472, Note_off_c, 0, 77, 100
2, 153504, Note_on_c, 0, 79, 90
2, 153568, Note_off_c, 0, 79, 100
2, 153600, Note_on_c, 0, 76, 90
2, 153664, Note_off_c, 0, 76, 100
2, 153696, Note_on_c, 0, 77, 90
2, 153760, Note_off_c, 0, 77, 100
2, 153792, Note_on_c, 0, 74, 90
2, 153856, Note_off_c, 0, 74, 100
2, 153888, Note_on_c, 0, 76, 90
2, 153952, Note_off_c, 0, 76, 100
2, 153984, Note_on_c, 0, 72, 90
2, 154048, Note_off_c, 0, 72, 100
2, 154080, Note_on_c, 0, 74, 90
2, 154144, Note_off_c, 0, 74, 100
2, 154176, Note_on_c, 0, 70, 90
2, 154240, Note_off_c, 0, 70, 100
2, 154272, Note_on_c, 0, 72, 90
2, 154336, Note_off_c, 0, 72, 100
2, 154368, Note_on_c, 0, 69, 90
2, 154432, Note_off_c, 0, 69, 100
2, 154464, Note_on_c, 0, 70, 90
2, 154528, Note_off_c, 0, 70, 100
2, 154560, Note_on_c, 0, 72, 90
2, 154624, Note_off_c, 0, 72, 100
2, 154656, Note_on_c, 0, 74, 90
2, 154720, Note_off_c, 0, 74, 100
2, 154752, Note_on_c, 0, 76, 90
2, 154816, Note_off_c, 0, 76, 100
2, 154848, Note_on_c, 0, 77, 90
2, 154912, Note_off_c, 0, 77, 100
2, 154944, Note_on_c, 0, 75, 90
2, 155008, Note_off_c, 0, 75, 100
2, 155040, Note_on_c, 0, 77, 90
2, 155104, Note_off_c, 0, 77, 100
2, 155136, Note_on_c, 0, 79, 90
2, 155200, Note_off_c, 0, 79, 100
2, 155232, Note_on_c, 0, 77, 90
2, 155296, Note_off_c, 0, 77, 100
2, 155328, Note_on_c, 0, 76, 90
2, 155392, Note_off_c, 0, 76, 100
2, 155424, Note_on_c, 0, 74, 90
2, 155488, Note_off_c, 0, 74, 100
2, 155520, Note_on_c, 0, 76, 90
2, 155584, Note_off_c, 0, 76, 100
2, 155616, Note_on_c, 0, 74, 90
2, 155680, Note_off_c, 0, 74, 100
2, 155712, Note_on_c, 0, 72, 90
2, 155776, Note_off_c, 0, 72, 100
2, 155808, Note_on_c, 0, 70, 90
2, 155872, Note_off_c, 0, 70, 100
2, 155904, Note_on_c, 0, 69, 90
2, 156160, Note_off_c, 0, 69, 100
2, 156288, Note_on_c, 0, 67, 90
2, 156288, Note_on_c, 0, 64, 60
2, 156480, Note_on_c, 0, 65, 90
2, 156544, Note_off_c, 0, 67, 100
2, 156544, Note_off_c, 0, 64, 100
2, 156544, Note_off_c, 0, 65, 100
2, 156576, Note_on_c, 0, 67, 90
2, 156640, Note_off_c, 0, 67, 100
2, 156672, Note_on_c, 0, 65, 90
2, 156928, Note_off_c, 0, 65, 100
2, 158208, Note_on_c, 0, 82, 97
2, 158336, Note_off_c, 0, 82, 100
2, 158400, Note_on_c, 0, 79, 90
2, 158528, Note_off_c, 0, 79, 100
2, 158592, Note_on_c, 0, 76, 90
2, 158720, Note_off_c, 0, 76, 100
2, 158784, Note_on_c, 0, 76, 90
2, 158912, Note_off_c, 0, 76, 100
2, 158976, Note_on_c, 0, 82, 97
2, 159104, Note_off_c, 0, 82, 100
2, 159168, Note_on_c, 0, 79, 90
2, 159296, Note_off_c, 0, 79, 100
2, 159360, Note_on_c, 0, 76, 90
2, 159488, Note_off_c, 0, 76, 100
2, 159552, Note_on_c, 0, 76, 90
2, 159680, Note_off_c, 0, 76, 100
2, 159744, Note_on_c, 0, 77, 90
2, 159872, Note_off_c, 0, 77, 100
2, 159936, Note_on_c, 0, 79, 90
2, 160064, Note_off_c, 0, 79, 100
2, 160128, Note_on_c, 0, 81, 90
2, 160256, Note_off_c, 0, 81, 100
2, 160320, Note_on_c, 0, 82, 90
2, 160448, Note_off_c, 0, 82, 100
2, 160512, Note_on_c, 0, 83, 97
2, 160640, Note_off_c, 0, 83, 100
2, 160704, Note_on_c, 0, 84, 90
2, 160832, Note_off_c, 0, 84, 100
2, 160896, Note_on_c, 0, 83, 90
2, 161024, Note_off_c, 0, 83, 100
2, 161088, Note_on_c, 0, 84, 90
2, 161216, Note_off_c, 0, 84, 100
2, 161280, Note_on_c, 0, 82, 97
2, 161408, Note_off_c, 0, 82, 100
2, 161472, Note_on_c, 0, 79, 90
2, 161600, Note_off_c, 0, 79, 100
2, 161664, Note_on_c, 0, 76, 90
2, 161792, Note_off_c, 0, 76, 100
2, 161856, Note_on_c, 0, 76, 90
2, 161984, Note_off_c, 0, 76, 100
2, 162048, Note_on_c, 0, 82, 97
2, 162176, Note_off_c, 0, 82, 100
2, 162240, Note_on_c, 0, 79, 90
2, 162368, Note_off_c, 0, 79, 100
2, 162432, Note_on_c, 0, 76, 90
2, 162560, Note_off_c, 0, 76, 100
2, 162624, Note_on_c, 0, 76, 90
2, 162752, Note_off_c, 0, 76, 100
2, 162816, Note_on_c, 0, 77, 78
2, 162944, Note_off_c, 0, 77, 100
2, 163008, Note_on_c, 0, 79, 80
2, 163136, Note_off_c, 0, 79, 100
2, 163200, Note_on_c, 0, 81, 84
2, 163328, Note_off_c, 0, 81, 100
2, 163392, Note_on_c, 0, 82, 86
2, 163520, Note_off_c, 0, 82, 100
2, 163584, Note_on_c, 0, 83, 90
2, 163712, Note_off_c, 0, 83, 100
2, 163776, Note_on_c, 0, 84, 90
2, 163904, Note_off_c, 0, 84, 100
2, 163968, Note_on_c, 0, 83, 90
2, 164096, Note_off_c, 0, 83, 100
2, 164160, Note_on_c, 0, 84, 90
2, 164288, Note_off_c, 0, 84, 100
2, 164352, Note_on_c, 0, 86, 67
2, 164352, Note_on_c, 0, 74, 67
2, 164864, Note_off_c, 0, 86, 100
2, 164864, Note_off_c, 0, 74, 100
2, 165120, Note_on_c, 0, 76, 60
2, 165120, Note_on_c, 0, 64, 60
2, 165632, Note_off_c, 0, 76, 100
2, 165632, Note_off_c, 0, 64, 100
2, 165888, Note_on_c, 0, 82, 60
2, 165888, Note_on_c, 0, 70, 60
2, 166400, Note_off_c, 0, 82, 100
2, 166400, Note_off_c, 0, 70, 100
2, 166656, Note_on_c, 0, 81, 60
2, 166656, Note_on_c, 0, 69, 60
2, 167168, Note_off_c, 0, 81, 100
2, 167168, Note_off_c, 0, 69, 100
2, 167424, Note_on_c, 0, 81, 90
2, 167488, Note_off_c, 0, 81, 100
2, 167520, Note_on_c, 0, 79, 90
2, 167584, Note_off_c, 0, 79, 100
2, 167616, Note_on_c, 0, 82, 90
2, 167680, Note_off_c, 0, 82, 100
2, 167712, Note_on_c, 0, 81, 90
2, 167776, Note_off_c, 0, 81, 100
2, 167808, Note_on_c, 0, 84, 90
2, 167808, Note_on_c, 0, 67, 60
2, 167808, Note_on_c, 0, 59, 60
2, 167872, Note_off_c, 0, 84, 100
2, 167904, Note_on_c, 0, 82, 90
2, 167968, Note_off_c, 0, 82, 100
2, 168000, Note_on_c, 0, 81, 90
2, 168064, Note_off_c, 0, 67, 100
2, 168064, Note_off_c, 0, 59, 100
2, 168064, Note_off_c, 0, 81, 100
2, 168096, Note_on_c, 0, 79, 90
2, 168160, Note_off_c, 0, 79, 100
2, 168192, Note_on_c, 0, 77, 90
2, 168192, Note_on_c, 0, 69, 60
2, 168448, Note_off_c, 0, 77, 100
2, 168448, Note_off_c, 0, 69, 100
2, 168576, Note_on_c, 0, 76, 90
2, 168576, Note_on_c, 0, 70, 60
2, 168832, Note_off_c, 0, 76, 100
2, 168832, Note_off_c, 0, 70, 100
2, 168960, Note_on_c, 0, 65, 60
2, 168960, Note_on_c, 0, 69, 60
2, 169152, Note_on_c, 0, 77, 60
2, 169280, Note_off_c, 0, 77, 100
2, 169344, Note_on_c, 0, 76, 60
2, 169472, Note_off_c, 0, 65, 100
2, 169472, Note_off_c, 0, 69, 100
2, 169472, Note_off_c, 0, 76, 100
2, 169536, Note_on_c, 0, 77, 60
2, 169664, Note_off_c, 0, 77, 100
2, 169728, Note_on_c, 0, 65, 60
2, 169728, Note_on_c, 0, 69, 60
2, 169920, Note_on_c, 0, 75, 60
2, 170048, Note_off_c, 0, 75, 100
2, 170112, Note_on_c, 0, 74, 60
2, 170240, Note_off_c, 0, 65, 100
2, 170240, Note_off_c, 0, 69, 100
2, 170240, Note_off_c, 0, 74, 100
2, 170304, Note_on_c, 0, 75, 60
2, 170432, Note_off_c, 0, 75, 100
2, 170688, Note_on_c, 0, 74, 60
2, 170816, Note_off_c, 0, 74, 100
2, 170880, Note_on_c, 0, 86, 60
2, 171008, Note_off_c, 0, 86, 100
2, 171072, Note_on_c, 0, 86, 60
2, 171200, Note_off_c, 0, 86, 100
2, 171456, Note_on_c, 0, 86, 60
2, 171584, Note_off_c, 0, 86, 100
2, 171648, Note_on_c, 0, 74, 60
2, 171776, Note_off_c, 0, 74, 100
2, 171840, Note_on_c, 0, 74, 60
2, 171968, Note_off_c, 0, 74, 100
2, 172224, Note_on_c, 0, 72, 60
2, 172352, Note_off_c, 0, 72, 100
2, 172416, Note_on_c, 0, 84, 60
2, 172544, Note_off_c, 0, 84, 100
2, 172608, Note_on_c, 0, 84, 60
2, 172736, Note_off_c, 0, 84, 100
2, 172992, Note_on_c, 0, 84, 60
2, 173120, Note_off_c, 0, 84, 100
2, 173184, Note_on_c, 0, 72, 60
2, 173312, Note_off_c, 0, 72, 100
2, 173344, Note_on_c, 0, 72, 60
2, 173472, Note_off_c, 0, 72, 100
2, 173568, Note_on_c, 0, 73, 60
2, 173696, Note_off_c, 0, 73, 100
2, 173760, Note_on_c, 0, 74, 60
2, 173888, Note_off_c, 0, 74, 100
2, 173952, Note_on_c, 0, 76, 60
2, 174080, Note_off_c, 0, 76, 100
2, 174144, Note_on_c, 0, 77, 60
2, 174272, Note_off_c, 0, 77, 100
2, 174336, Note_on_c, 0, 65, 60
2, 174592, Note_off_c, 0, 65, 100
2, 174720, Note_on_c, 0, 69, 60
2, 174848, Note_off_c, 0, 69, 100
2, 174912, Note_on_c, 0, 67, 60
2, 175040, Note_off_c, 0, 67, 100
2, 175104, Note_on_c, 0, 65, 60
2, 175232, Note_off_c, 0, 65, 100
2, 175296, Note_on_c, 0, 65, 60
2, 175360, Note_off_c, 0, 65, 100
2, 175392, Note_on_c, 0, 69, 60
2, 175456, Note_off_c, 0, 69, 100
2, 175488, Note_on_c, 0, 67, 60
2, 175552, Note_off_c, 0, 67, 100
2, 175584, Note_on_c, 0, 70, 60
2, 175648, Note_off_c, 0, 70, 100
2, 175680, Note_on_c, 0, 69, 60
2, 175744, Note_off_c, 0, 69, 100
2, 175776, Note_on_c, 0, 72, 60
2, 175840, Note_off_c, 0, 72, 100
2, 175872, Note_on_c, 0, 70, 60
2, 176000, Note_off_c, 0, 70, 100
2, 176064, Note_on_c, 0, 65, 60
2, 176128, Note_off_c, 0, 65, 100
2, 176160, Note_on_c, 0, 69, 60
2, 176224, Note_off_c, 0, 69, 100
2, 176256, Note_on_c, 0, 67, 60
2, 176320, Note_off_c, 0, 67, 100
2, 176352, Note_on_c, 0, 70, 60
2, 176416, Note_off_c, 0, 70, 100
2, 176448, Note_on_c, 0, 69, 60
2, 176512, Note_off_c, 0, 69, 100
2, 176544, Note_on_c, 0, 72, 60
2, 176608, Note_off_c, 0, 72, 100
2, 176640, Note_on_c, 0, 70, 63
2, 176768, Note_off_c, 0, 70, 100
2, 176832, Note_on_c, 0, 65, 64
2, 176896, Note_off_c, 0, 65, 100
2, 176928, Note_on_c, 0, 69, 66
2, 176992, Note_off_c, 0, 69, 100
2, 177024, Note_on_c, 0, 67, 69
2, 177088, Note_off_c, 0, 67, 100
2, 177120, Note_on_c, 0, 70, 70
2, 177184, Note_off_c, 0, 70, 100
2, 177216, Note_on_c, 0, 69, 72
2, 177280, Note_off_c, 0, 69, 100
2, 177312, Note_on_c, 0, 72, 74
2, 177376, Note_off_c, 0, 72, 100
2, 177408, Note_on_c, 0, 70, 76
2, 177472, Note_off_c, 0, 70, 100
2, 177504, Note_on_c, 0, 74, 78
2, 177568, Note_off_c, 0, 74, 100
2, 177600, Note_on_c, 0, 72, 79
2, 177664, Note_off_c, 0, 72, 100
2, 177696, Note_on_c, 0, 75, 80
2, 177760, Note_off_c, 0, 75, 100
2, 177792, Note_on_c, 0, 74, 82
2, 177856, Note_off_c, 0, 74, 100
2, 177888, Note_on_c, 0, 77, 84
2, 177952, Note_off_c, 0, 77, 100
2, 177984, Note_on_c, 0, 76, 86
2, 178048, Note_off_c, 0, 76, 100
2, 178080, Note_on_c, 0, 79, 88
2, 178144, Note_off_c, 0, 79, 100
2, 178176, Note_on_c, 0, 77, 90
2, 178240, Note_off_c, 0, 77, 100
2, 178272, Note_on_c, 0, 79, 90
2, 178336, Note_off_c, 0, 79, 100
2, 178368, Note_on_c, 0, 81, 90
2, 178432, Note_off_c, 0, 81, 100
2, 178464, Note_on_c, 0, 79, 90
2, 178528, Note_off_c, 0, 79, 100
2, 178560, Note_on_c, 0, 77, 90
2, 178624, Note_off_c, 0, 77, 100
2, 178656, Note_on_c, 0, 75, 90
2, 178720, Note_off_c, 0, 75, 100
2, 178752, Note_on_c, 0, 74, 90
2, 178816, Note_off_c, 0, 74, 100
2, 178848, Note_on_c, 0, 73, 90
2, 178912, Note_off_c, 0, 73, 100
2, 178944, Note_on_c, 0, 74, 90
2, 179008, Note_off_c, 0, 74, 100
2, 179040, Note_on_c, 0, 72, 90
2, 179104, Note_off_c, 0, 72, 100
2, 179136, Note_on_c, 0, 70, 90
2, 179200, Note_off_c, 0, 70, 100
2, 179232, Note_on_c, 0, 69, 90
2, 179296, Note_off_c, 0, 69, 100
2, 179328, Note_on_c, 0, 67, 90
2, 179392, Note_off_c, 0, 67, 100
2, 179424, Note_on_c, 0, 65, 90
2, 179488, Note_off_c, 0, 65, 100
2, 179520, Note_on_c, 0, 64, 90
2, 179584, Note_off_c, 0, 64, 100
2, 179616, Note_on_c, 0, 62, 90
2, 179680, Note_off_c, 0, 62, 100
2, 179712, Note_on_c, 0, 60, 90
2, 179776, Note_off_c, 0, 60, 100
2, 179808, Note_on_c, 0, 65, 90
2, 179872, Note_off_c, 0, 65, 100
2, 179904, Note_on_c, 0, 69, 90
2, 179968, Note_off_c, 0, 69, 100
2, 180000, Note_on_c, 0, 72, 90
2, 180064, Note_off_c, 0, 72, 100
2, 180096, Note_on_c, 0, 77, 90
2, 180224, Note_off_c, 0, 77, 100
2, 180288, Note_on_c, 0, 69, 90
2, 180288, Note_on_c, 0, 65, 90
2, 180416, Note_off_c, 0, 69, 100
2, 180416, Note_off_c, 0, 65, 100
2, 180480, Note_on_c, 0, 72, 90
2, 180480, Note_on_c, 0, 69, 90
2, 180608, Note_off_c, 0, 72, 100
2, 180608, Note_off_c, 0, 69, 100
2, 180672, Note_on_c, 0, 70, 90
2, 180672, Note_on_c, 0, 67, 90
2, 180800, Note_off_c, 0, 70, 100
2, 180800, Note_off_c, 0, 67, 100
2, 180864, Note_on_c, 0, 69, 90
2, 180864, Note_on_c, 0, 65, 90
2, 180992, Note_off_c, 0, 69, 100
2, 180992, Note_off_c, 0, 65, 100
2, 181056, Note_on_c, 0, 67, 90
2, 181056, Note_on_c, 0, 64, 90
2, 181184, Note_off_c, 0, 67, 100
2, 181184, Note_off_c, 0, 64, 100
2, 181248, Note_on_c, 0, 65, 90
2, 181376, Note_off_c, 0, 65, 100
2, 181440, Note_on_c, 0, 77, 90
2, 181504, Note_off_c, 0, 77, 100
2, 181536, Note_on_c, 0, 81, 90
2, 181600, Note_off_c, 0, 81, 100
2, 181632, Note_on_c, 0, 79, 90
2, 181696, Note_off_c, 0, 79, 100
2, 181728, Note_on_c, 0, 82, 90
2, 181792, Note_off_c, 0, 82, 100
2, 181824, Note_on_c, 0, 81, 90
2, 181888, Note_off_c, 0, 81, 100
2, 181920, Note_on_c, 0, 84, 90
2, 181984, Note_off_c, 0, 84, 100
2, 182016, Note_on_c, 0, 82, 90
2, 182144, Note_off_c, 0, 82, 100
2, 182208, Note_on_c, 0, 77, 90
2, 182272, Note_off_c, 0, 77, 100
2, 182304, Note_on_c, 0, 81, 90
2, 182368, Note_off_c, 0, 81, 100
2, 182400, Note_on_c, 0, 79, 90
2, 182464, Note_off_c, 0, 79, 100
2, 182496, Note_on_c, 0, 82, 90
2, 182560, Note_off_c, 0, 82, 100
2, 182592, Note_on_c, 0, 81, 90
2, 182656, Note_off_c, 0, 81, 100
2, 182688, Note_on_c, 0, 84, 90
2, 182752, Note_off_c, 0, 84, 100
2, 182784, Note_on_c, 0, 82, 91
2, 182912, Note_off_c, 0, 82, 100
2, 182976, Note_on_c, 0, 77, 91
2, 183040, Note_off_c, 0, 77, 100
2, 183072, Note_on_c, 0, 81, 91
2, 183136, Note_off_c, 0, 81, 100
2, 183168, Note_on_c, 0, 79, 92
2, 183232, Note_off_c, 0, 79, 100
2, 183264, Note_on_c, 0, 82, 92
2, 183328, Note_off_c, 0, 82, 100
2, 183360, Note_on_c, 0, 81, 92
2, 183424, Note_off_c, 0, 81, 100
2, 183456, Note_on_c, 0, 84, 92
2, 183520, Note_off_c, 0, 84, 100
2, 183552, Note_on_c, 0, 82, 94
2, 183616, Note_off_c, 0, 82, 100
2, 183648, Note_on_c, 0, 77, 94
2, 183712, Note_off_c, 0, 77, 100
2, 183744, Note_on_c, 0, 84, 94
2, 183808, Note_off_c, 0, 84, 100
2, 183840, Note_on_c, 0, 77, 94
2, 183904, Note_off_c, 0, 77, 100
2, 183936, Note_on_c, 0, 86, 96
2, 184000, Note_off_c, 0, 86, 100
2, 184032, Note_on_c, 0, 77, 96
2, 184096, Note_off_c, 0, 77, 100
2, 184128, Note_on_c, 0, 88, 97
2, 184192, Note_off_c, 0, 88, 100
2, 184224, Note_on_c, 0, 77, 97
2, 184288, Note_off_c, 0, 77, 100
2, 184320, Note_on_c, 0, 89, 90
2, 184384, Note_off_c, 0, 89, 100
2, 184416, Note_on_c, 0, 88, 90
2, 184480, Note_off_c, 0, 88, 100
2, 184512, Note_on_c, 0, 86, 90
2, 184576, Note_off_c, 0, 86, 100
2, 184608, Note_on_c, 0, 84, 90
2, 184672, Note_off_c, 0, 84, 100
2, 184704, Note_on_c, 0, 82, 90
2, 184768, Note_off_c, 0, 82, 100
2, 184800, Note_on_c, 0, 81, 90
2, 184864, Note_off_c, 0, 81, 100
2, 184896, Note_on_c, 0, 79, 90
2, 184960, Note_off_c, 0, 79, 100
2, 184992, Note_on_c, 0, 77, 90
2, 185056, Note_off_c, 0, 77, 100
2, 185088, Note_on_c, 0, 86, 90
2, 185152, Note_off_c, 0, 86, 100
2, 185184, Note_on_c, 0, 84, 90
2, 185248, Note_off_c, 0, 84, 100
2, 185280, Note_on_c, 0, 82, 90
2, 185344, Note_off_c, 0, 82, 100
2, 185376, Note_on_c, 0, 81, 90
2, 185440, Note_off_c, 0, 81, 100
2, 185472, Note_on_c, 0, 79, 90
2, 185536, Note_off_c, 0, 79, 100
2, 185568, Note_on_c, 0, 77, 90
2, 185632, Note_off_c, 0, 77, 100
2, 185664, Note_on_c, 0, 76, 90
2, 185728, Note_off_c, 0, 76, 100
2, 185760, Note_on_c, 0, 74, 90
2, 185824, Note_off_c, 0, 74, 100
2, 185856, Note_on_c, 0, 72, 90
2, 185984, Note_off_c, 0, 72, 100
2, 186048, Note_on_c, 0, 84, 90
2, 186176, Note_off_c, 0, 84, 100
2, 186240, Note_on_c, 0, 84, 90
2, 186368, Note_off_c, 0, 84, 100
2, 186432, Note_on_c, 0, 84, 90
2, 186560, Note_off_c, 0, 84, 100
2, 186624, Note_on_c, 0, 84, 90
2, 186688, Note_off_c, 0, 84, 100
2, 186720, Note_on_c, 0, 81, 90
2, 186784, Note_off_c, 0, 81, 100
2, 186816, Note_on_c, 0, 77, 90
2, 186880, Note_off_c, 0, 77, 100
2, 186912, Note_on_c, 0, 72, 90
2, 186976, Note_off_c, 0, 72, 100
2, 187008, Note_on_c, 0, 77, 90
2, 187072, Note_off_c, 0, 77, 100
2, 187104, Note_on_c, 0, 72, 90
2, 187168, Note_off_c, 0, 72, 100
2, 187200, Note_on_c, 0, 69, 90
2, 187264, Note_off_c, 0, 69, 100
2, 187296, Note_on_c, 0, 65, 90
2, 187360, Note_off_c, 0, 65, 100
2, 187392, Note_on_c, 0, 69, 90
2, 187440, Note_on_c, 0, 67, 90
2, 187456, Note_off_c, 0, 69, 100
2, 187456, Note_off_c, 0, 67, 100
2, 187488, Note_on_c, 0, 69, 90
2, 187504, Note_off_c, 0, 69, 100
2, 187536, Note_on_c, 0, 67, 90
2, 187552, Note_off_c, 0, 67, 100
2, 187584, Note_on_c, 0, 69, 90
2, 187600, Note_off_c, 0, 69, 100
2, 187632, Note_on_c, 0, 67, 90
2, 187648, Note_off_c, 0, 67, 100
2, 187680, Note_on_c, 0, 69, 90
2, 187696, Note_off_c, 0, 69, 100
2, 187728, Note_on_c, 0, 67, 90
2, 187744, Note_off_c, 0, 67, 100
2, 187776, Note_on_c, 0, 69, 90
2, 187792, Note_off_c, 0, 69, 100
2, 187824, Note_on_c, 0, 67, 90
2, 187840, Note_off_c, 0, 67, 100
2, 187872, Note_on_c, 0, 69, 90
2, 187888, Note_off_c, 0, 69, 100
2, 187920, Note_on_c, 0, 67, 90
2, 187936, Note_off_c, 0, 67, 100
2, 187968, Note_on_c, 0, 69, 90
2, 187984, Note_off_c, 0, 69, 100
2, 188016, Note_on_c, 0, 67, 90
2, 188032, Note_off_c, 0, 67, 100
2, 188064, Note_on_c, 0, 69, 90
2, 188080, Note_off_c, 0, 69, 100
2, 188112, Note_on_c, 0, 67, 90
2, 188128, Note_off_c, 0, 67, 100
2, 188160, Note_on_c, 0, 69, 90
2, 188176, Note_off_c, 0, 69, 100
2, 188208, Note_on_c, 0, 67, 90
2, 188224, Note_off_c, 0, 67, 100
2, 188256, Note_on_c, 0, 69, 90
2, 188272, Note_off_c, 0, 69, 100
2, 188304, Note_on_c, 0, 67, 90
2, 188320, Note_off_c, 0, 67, 100
2, 188352, Note_on_c, 0, 69, 90
2, 188368, Note_off_c, 0, 69, 100
2, 188400, Note_on_c, 0, 67, 90
2, 188416, Note_off_c, 0, 67, 100
2, 188448, Note_on_c, 0, 69, 90
2, 188464, Note_off_c, 0, 69, 100
2, 188496, Note_on_c, 0, 67, 90
2, 188512, Note_off_c, 0, 67, 100
2, 188544, Note_on_c, 0, 69, 90
2, 188560, Note_off_c, 0, 69, 100
2, 188592, Note_on_c, 0, 67, 90
2, 188608, Note_off_c, 0, 67, 100
2, 188640, Note_on_c, 0, 69, 90
2, 188656, Note_off_c, 0, 69, 100
2, 188688, Note_on_c, 0, 67, 90
2, 188704, Note_off_c, 0, 67, 100
2, 188736, Note_on_c, 0, 65, 90
2, 188828, Note_off_c, 0, 65, 0
2, 188832, Note_on_c, 0, 67, 90
2, 188924, Note_off_c, 0, 67, 0
2, 188928, Note_on_c, 0, 65, 90
2, 189056, Note_off_c, 0, 65, 100
2, 189120, Note_on_c, 0, 77, 60
2, 189248, Note_off_c, 0, 77, 100
2, 189504, Note_on_c, 0, 77, 60
2, 189632, Note_off_c, 0, 77, 100
2, 189696, Note_on_c, 0, 76, 60
2, 189824, Note_off_c, 0, 76, 100
2, 189888, Note_on_c, 0, 77, 60
2, 190016, Note_off_c, 0, 77, 100
2, 190080, Note_on_c, 0, 79, 60
2, 190208, Note_off_c, 0, 79, 100
2, 190272, Note_on_c, 0, 81, 60
2, 190400, Note_off_c, 0, 81, 100
2, 190464, Note_on_c, 0, 82, 60
2, 190528, Note_off_c, 0, 82, 100
2, 190560, Note_on_c, 0, 84, 60
2, 190624, Note_off_c, 0, 84, 100
2, 190656, Note_on_c, 0, 86, 60
2, 190720, Note_off_c, 0, 86, 100
2, 190752, Note_on_c, 0, 84, 60
2, 190816, Note_off_c, 0, 84, 100
2, 190848, Note_on_c, 0, 81, 60
2, 190912, Note_off_c, 0, 81, 100
2, 190944, Note_on_c, 0, 81, 60
2, 191008, Note_off_c, 0, 81, 100
2, 191040, Note_on_c, 0, 79, 60
2, 191104, Note_off_c, 0, 79, 100
2, 191136, Note_on_c, 0, 77, 60
2, 191200, Note_off_c, 0, 77, 100
2, 191232, Note_on_c, 0, 76, 60
2, 191296, Note_off_c, 0, 76, 100
2, 191328, Note_on_c, 0, 77, 60
2, 191392, Note_off_c, 0, 77, 100
2, 191424, Note_on_c, 0, 79, 60
2, 191488, Note_off_c, 0, 79, 100
2, 191520, Note_on_c, 0, 77, 60
2, 191584, Note_off_c, 0, 77, 100
2, 191616, Note_on_c, 0, 76, 60
2, 191680, Note_off_c, 0, 76, 100
2, 191712, Note_on_c, 0, 74, 60
2, 191776, Note_off_c, 0, 74, 100
2, 191808, Note_on_c, 0, 72, 60
2, 191872, Note_off_c, 0, 72, 100
2, 191904, Note_on_c, 0, 70, 60
2, 191968, Note_off_c, 0, 70, 100
2, 192000, Note_on_c, 0, 69, 60
2, 192128, Note_off_c, 0, 69, 100
2, 192192, Note_on_c, 0, 69, 60
2, 192320, Note_off_c, 0, 69, 100
2, 192576, Note_on_c, 0, 65, 60
2, 192704, Note_off_c, 0, 65, 100
2, 192768, Note_on_c, 0, 63, 60
2, 192896, Note_off_c, 0, 63, 100
2, 192960, Note_on_c, 0, 65, 60
2, 193088, Note_off_c, 0, 65, 100
2, 193152, Note_on_c, 0, 67, 60
2, 193280, Note_off_c, 0, 67, 100
2, 193344, Note_on_c, 0, 69, 60
2, 193472, Note_off_c, 0, 69, 100
2, 193536, Note_on_c, 0, 70, 60
2, 193664, Note_off_c, 0, 70, 100
2, 193728, Note_on_c, 0, 70, 60
2, 193824, Note_on_c, 0, 69, 60
2, 193856, Note_off_c, 0, 70, 100
2, 193872, Note_on_c, 0, 70, 60
2, 193888, Note_off_c, 0, 69, 100
2, 193920, Note_on_c, 0, 72, 60
2, 193936, Note_off_c, 0, 70, 100
2, 194048, Note_off_c, 0, 72, 100
2, 194112, Note_on_c, 0, 74, 60
2, 194240, Note_off_c, 0, 74, 100
2, 194304, Note_on_c, 0, 74, 60
2, 194304, Note_on_c, 0, 70, 60
2, 194432, Note_off_c, 0, 74, 100
2, 194432, Note_off_c, 0, 70, 100
2, 194496, Note_on_c, 0, 72, 60
2, 194496, Note_on_c, 0, 69, 60
2, 194624, Note_off_c, 0, 72, 100
2, 194624, Note_off_c, 0, 69, 100
2, 194880, Note_on_c, 0, 64, 60
2, 194880, Note_on_c, 0, 58, 60
2, 195008, Note_off_c, 0, 64, 100
2, 195008, Note_off_c, 0, 58, 100
2, 195072, Note_on_c, 0, 67, 60
2, 195072, Note_on_c, 0, 58, 60
2, 195584, Note_off_c, 0, 67, 100
2, 195584, Note_off_c, 0, 58, 100
2, 195840, Note_on_c, 0, 65, 60
2, 195840, Note_on_c, 0, 57, 60
2, 196096, Note_off_c, 0, 65, 100
2, 196096, Note_off_c, 0, 57, 100
2, 196224, Note_on_c, 0, 74, 60
2, 196316, Note_off_c, 0, 74, 0
2, 196320, Note_on_c, 0, 72, 60
2, 196412, Note_off_c, 0, 72, 0
2, 196416, Note_on_c, 0, 70, 60
2, 196508, Note_off_c, 0, 70, 0
2, 196512, Note_on_c, 0, 69, 60
2, 196604, Note_off_c, 0, 69, 0
2, 196608, Note_on_c, 0, 67, 60
2, 196796, Note_off_c, 0, 67, 0
2, 196800, Note_on_c, 0, 65, 60
2, 196988, Note_off_c, 0, 65, 0
2, 196992, Note_on_c, 0, 65, 60
2, 197564, Note_off_c, 0, 65, 0
2, 197568, Note_on_c, 0, 77, 60
2, 197756, Note_off_c, 0, 77, 0
2, 197760, Note_on_c, 0, 79, 60
2, 197948, Note_off_c, 0, 79, 0
2, 197952, Note_on_c, 0, 81, 60
2, 198140, Note_off_c, 0, 81, 0
2, 198144, Note_on_c, 0, 76, 60
2, 198188, Note_off_c, 0, 76, 0
2, 198192, Note_on_c, 0, 82, 60
2, 198432, Note_on_c, 0, 79, 60
2, 198476, Note_off_c, 0, 82, 0
2, 198524, Note_off_c, 0, 79, 0
2, 198528, Note_on_c, 0, 76, 60
2, 198908, Note_off_c, 0, 76, 0
2, 199296, Note_on_c, 0, 72, 60
2, 199388, Note_off_c, 0, 72, 0
2, 199392, Note_on_c, 0, 70, 60
2, 199484, Note_off_c, 0, 70, 0
2, 199488, Note_on_c, 0, 69, 60
2, 199580, Note_off_c, 0, 69, 0
2, 199584, Note_on_c, 0, 67, 60
2, 199676, Note_off_c, 0, 67, 0
2, 199680, Note_on_c, 0, 65, 60
2, 199808, Note_off_c, 0, 65, 100
2, 199872, Note_on_c, 0, 64, 60
2, 200000, Note_off_c, 0, 64, 100
2, 200064, Note_on_c, 0, 64, 60
2, 200448, Note_off_c, 0, 64, 100
2, 200640, Note_on_c, 0, 79, 60
2, 200768, Note_off_c, 0, 79, 100
2, 200832, Note_on_c, 0, 81, 60
2, 200960, Note_off_c, 0, 81, 100
2, 201024, Note_on_c, 0, 82, 60
2, 201152, Note_off_c, 0, 82, 100
2, 201216, Note_on_c, 0, 84, 60
2, 201408, Note_off_c, 0, 84, 100
2, 201472, Note_on_c, 0, 81, 60
2, 201536, Note_off_c, 0, 81, 100
2, 201600, Note_on_c, 0, 78, 60
2, 201856, Note_off_c, 0, 78, 100
2, 202176, Note_on_c, 0, 79, 60
2, 202304, Note_off_c, 0, 79, 100
2, 202368, Note_on_c, 0, 82, 60
2, 202496, Note_off_c, 0, 82, 100
2, 202560, Note_on_c, 0, 84, 60
2, 202688, Note_off_c, 0, 84, 100
2, 202752, Note_on_c, 0, 86, 82
2, 202944, Note_off_c, 0, 86, 100
2, 203040, Note_on_c, 0, 82, 82
2, 203104, Note_off_c, 0, 82, 100
2, 203136, Note_on_c, 0, 79, 82
2, 203264, Note_off_c, 0, 79, 100
2, 203520, Note_on_c, 0, 82, 82
2, 203712, Note_off_c, 0, 82, 100
2, 203808, Note_on_c, 0, 79, 82
2, 203872, Note_off_c, 0, 79, 100
2, 203904, Note_on_c, 0, 76, 82
2, 204032, Note_off_c, 0, 76, 100
2, 204288, Note_on_c, 0, 77, 82
2, 204480, Note_off_c, 0, 77, 100
2, 204576, Note_on_c, 0, 74, 82
2, 204640, Note_off_c, 0, 74, 100
2, 204672, Note_on_c, 0, 71, 82
2, 204928, Note_off_c, 0, 71, 100
2, 205248, Note_on_c, 0, 71, 82
2, 205376, Note_off_c, 0, 71, 100
2, 205440, Note_on_c, 0, 71, 82
2, 205568, Note_off_c, 0, 71, 100
2, 205632, Note_on_c, 0, 71, 82
2, 205760, Note_off_c, 0, 71, 100
2, 205824, Note_on_c, 0, 72, 90
2, 205888, Note_off_c, 0, 72, 100
2, 205920, Note_on_c, 0, 81, 90
2, 205984, Note_off_c, 0, 81, 100
2, 206016, Note_on_c, 0, 77, 90
2, 206080, Note_off_c, 0, 77, 100
2, 206112, Note_on_c, 0, 72, 90
2, 206176, Note_off_c, 0, 72, 100
2, 206208, Note_on_c, 0, 69, 90
2, 206272, Note_off_c, 0, 69, 100
2, 206304, Note_on_c, 0, 77, 90
2, 206368, Note_off_c, 0, 77, 100
2, 206400, Note_on_c, 0, 72, 90
2, 206464, Note_off_c, 0, 72, 100
2, 206496, Note_on_c, 0, 69, 90
2, 206560, Note_off_c, 0, 69, 100
2, 206592, Note_on_c, 0, 72, 90
2, 206592, Note_on_c, 0, 69, 90
2, 206720, Note_off_c, 0, 72, 100
2, 206720, Note_off_c, 0, 69, 100
2, 206784, Note_on_c, 0, 67, 90
2, 206784, Note_on_c, 0, 70, 90
2, 206912, Note_off_c, 0, 67, 100
2, 206912, Note_off_c, 0, 70, 100
2, 206976, Note_on_c, 0, 69, 90
2, 206976, Note_on_c, 0, 65, 90
2, 207104, Note_off_c, 0, 69, 100
2, 207104, Note_off_c, 0, 65, 100
2, 207168, Note_on_c, 0, 67, 90
2, 207168, Note_on_c, 0, 64, 90
2, 207296, Note_off_c, 0, 67, 100
2, 207296, Note_off_c, 0, 64, 100
2, 207360, Note_on_c, 0, 65, 60
2, 207616, Note_off_c, 0, 65, 100
2, 208224, Note_on_c, 0, 65, 60
2, 208288, Note_off_c, 0, 65, 100
2, 208320, Note_on_c, 0, 67, 60
2, 208384, Note_off_c, 0, 67, 100
2, 208416, Note_on_c, 0, 68, 60
2, 208480, Note_off_c, 0, 68, 100
2, 208512, Note_on_c, 0, 70, 60
2, 208576, Note_off_c, 0, 70, 100
2, 208608, Note_on_c, 0, 72, 60
2, 208672, Note_off_c, 0, 72, 100
2, 208704, Note_on_c, 0, 74, 60
2, 208768, Note_off_c, 0, 74, 100
2, 208800, Note_on_c, 0, 76, 60
2, 208864, Note_off_c, 0, 76, 100
2, 208896, Note_on_c, 0, 77, 90
2, 208960, Note_off_c, 0, 77, 100
2, 208992, Note_on_c, 0, 72, 90
2, 209056, Note_off_c, 0, 72, 100
2, 209088, Note_on_c, 0, 80, 90
2, 209152, Note_off_c, 0, 80, 100
2, 209184, Note_on_c, 0, 79, 90
2, 209248, Note_off_c, 0, 79, 100
2, 209280, Note_on_c, 0, 77, 90
2, 209344, Note_off_c, 0, 77, 100
2, 209376, Note_on_c, 0, 72, 90
2, 209440, Note_off_c, 0, 72, 100
2, 209472, Note_on_c, 0, 80, 90
2, 209536, Note_off_c, 0, 80, 100
2, 209568, Note_on_c, 0, 79, 90
2, 209632, Note_off_c, 0, 79, 100
2, 209664, Note_on_c, 0, 77, 90
2, 209728, Note_off_c, 0, 77, 100
2, 209760, Note_on_c, 0, 79, 90
2, 209824, Note_off_c, 0, 79, 100
2, 209856, Note_on_c, 0, 75, 90
2, 209920, Note_off_c, 0, 75, 100
2, 209952, Note_on_c, 0, 77, 90
2, 210016, Note_off_c, 0, 77, 100
2, 210048, Note_on_c, 0, 74, 90
2, 210112, Note_off_c, 0, 74, 100
2, 210144, Note_on_c, 0, 75, 90
2, 210208, Note_off_c, 0, 75, 100
2, 210240, Note_on_c, 0, 72, 90
2, 210304, Note_off_c, 0, 72, 100
2, 210336, Note_on_c, 0, 74, 90
2, 210400, Note_off_c, 0, 74, 100
2, 210432, Note_on_c, 0, 71, 90
2, 210560, Note_off_c, 0, 71, 100
2, 210624, Note_on_c, 0, 89, 90
2, 210880, Note_off_c, 0, 89, 100
2, 211008, Note_on_c, 0, 89, 90
2, 211264, Note_off_c, 0, 89, 100
2, 211392, Note_on_c, 0, 86, 90
2, 211648, Note_off_c, 0, 86, 100
2, 211776, Note_on_c, 0, 84, 90
2, 211904, Note_off_c, 0, 84, 100
2, 211968, Note_on_c, 0, 84, 90
2, 212096, Note_off_c, 0, 84, 100
2, 212160, Note_on_c, 0, 83, 90
2, 212416, Note_off_c, 0, 83, 100
2, 212544, Note_on_c, 0, 80, 90
2, 212800, Note_off_c, 0, 80, 100
2, 212928, Note_on_c, 0, 79, 90
2, 213184, Note_off_c, 0, 79, 100
2, 213280, Note_on_c, 0, 77, 90
2, 213408, Note_off_c, 0, 77, 100
2, 213504, Note_on_c, 0, 77, 90
2, 213632, Note_off_c, 0, 77, 100
2, 213696, Note_on_c, 0, 76, 90
2, 213824, Note_off_c, 0, 76, 100
2, 213884, Note_on_c, 0, 75, 90
2, 214140, Note_off_c, 0, 75, 100
2, 214368, Note_on_c, 0, 75, 90
2, 214432, Note_off_c, 0, 75, 100
2, 214464, Note_on_c, 0, 74, 90
2, 214528, Note_off_c, 0, 74, 100
2, 214560, Note_on_c, 0, 75, 90
2, 214624, Note_off_c, 0, 75, 100
2, 214656, Note_on_c, 0, 77, 90
2, 214720, Note_off_c, 0, 77, 100
2, 214752, Note_on_c, 0, 75, 90
2, 214816, Note_off_c, 0, 75, 100
2, 214848, Note_on_c, 0, 74, 90
2, 214912, Note_off_c, 0, 74, 100
2, 214944, Note_on_c, 0, 75, 90
2, 215008, Note_off_c, 0, 75, 100
2, 215040, Note_on_c, 0, 78, 90
2, 215232, Note_off_c, 0, 78, 100
2, 215328, Note_on_c, 0, 75, 90
2, 215392, Note_off_c, 0, 75, 100
2, 215424, Note_on_c, 0, 75, 90
2, 215616, Note_off_c, 0, 75, 100
2, 215712, Note_on_c, 0, 74, 90
2, 215744, Note_off_c, 0, 74, 100
2, 215760, Note_on_c, 0, 75, 90
2, 215792, Note_off_c, 0, 75, 100
2, 215808, Note_on_c, 0, 82, 90
2, 216000, Note_off_c, 0, 82, 100
2, 216096, Note_on_c, 0, 75, 90
2, 216160, Note_off_c, 0, 75, 100
2, 216192, Note_on_c, 0, 75, 90
2, 216384, Note_off_c, 0, 75, 100
2, 216480, Note_on_c, 0, 74, 90
2, 216512, Note_off_c, 0, 74, 100
2, 216528, Note_on_c, 0, 75, 90
2, 216560, Note_off_c, 0, 75, 100
2, 216576, Note_on_c, 0, 81, 90
2, 216704, Note_off_c, 0, 81, 100
2, 216768, Note_on_c, 0, 84, 90
2, 216896, Note_off_c, 0, 84, 100
2, 216960, Note_on_c, 0, 87, 90
2, 217088, Note_off_c, 0, 87, 100
2, 217344, Note_on_c, 0, 87, 90
2, 217408, Note_off_c, 0, 87, 100
2, 217440, Note_on_c, 0, 89, 90
2, 217504, Note_off_c, 0, 89, 100
2, 217536, Note_on_c, 0, 86, 90
2, 217600, Note_off_c, 0, 86, 100
2, 217632, Note_on_c, 0, 87, 90
2, 217696, Note_off_c, 0, 87, 100
2, 217728, Note_on_c, 0, 84, 90
2, 217792, Note_off_c, 0, 84, 100
2, 217824, Note_on_c, 0, 86, 90
2, 217888, Note_off_c, 0, 86, 100
2, 217920, Note_on_c, 0, 82, 90
2, 217984, Note_off_c, 0, 82, 100
2, 218016, Note_on_c, 0, 84, 90
2, 218080, Note_off_c, 0, 84, 100
2, 218112, Note_on_c, 0, 81, 90
2, 218176, Note_off_c, 0, 81, 100
2, 218208, Note_on_c, 0, 82, 90
2, 218272, Note_off_c, 0, 82, 100
2, 218304, Note_on_c, 0, 84, 90
2, 218368, Note_off_c, 0, 84, 100
2, 218400, Note_on_c, 0, 82, 90
2, 218464, Note_off_c, 0, 82, 100
2, 218496, Note_on_c, 0, 81, 90
2, 218560, Note_off_c, 0, 81, 100
2, 218592, Note_on_c, 0, 82, 90
2, 218656, Note_off_c, 0, 82, 100
2, 218688, Note_on_c, 0, 84, 90
2, 218752, Note_off_c, 0, 84, 100
2, 218784, Note_on_c, 0, 86, 90
2, 218848, Note_off_c, 0, 86, 100
2, 218880, Note_on_c, 0, 87, 90
2, 218944, Note_off_c, 0, 87, 100
2, 218976, Note_on_c, 0, 86, 90
2, 219040, Note_off_c, 0, 86, 100
2, 219072, Note_on_c, 0, 84, 90
2, 219136, Note_off_c, 0, 84, 100
2, 219168, Note_on_c, 0, 82, 90
2, 219232, Note_off_c, 0, 82, 100
2, 219264, Note_on_c, 0, 81, 90
2, 219328, Note_off_c, 0, 81, 100
2, 219360, Note_on_c, 0, 79, 90
2, 219424, Note_off_c, 0, 79, 100
2, 219456, Note_on_c, 0, 77, 90
2, 219520, Note_off_c, 0, 77, 100
2, 219552, Note_on_c, 0, 75, 90
2, 219616, Note_off_c, 0, 75, 100
2, 219648, Note_on_c, 0, 75, 90
2, 219776, Note_off_c, 0, 75, 100
2, 219840, Note_on_c, 0, 74, 90
2, 219968, Note_off_c, 0, 74, 100
2, 220032, Note_on_c, 0, 74, 90
2, 220412, Note_off_c, 0, 74, 100
2, 220608, Note_on_c, 0, 74, 90
2, 220736, Note_off_c, 0, 74, 100
2, 220800, Note_on_c, 0, 86, 90
2, 220928, Note_off_c, 0, 86, 100
2, 220992, Note_on_c, 0, 84, 90
2, 221120, Note_off_c, 0, 84, 100
2, 221184, Note_on_c, 0, 84, 90
2, 221312, Note_off_c, 0, 84, 100
2, 221376, Note_on_c, 0, 82, 90
2, 221632, Note_off_c, 0, 82, 100
2, 221760, Note_on_c, 0, 81, 90
2, 221888, Note_off_c, 0, 81, 100
2, 221952, Note_on_c, 0, 81, 90
2, 222016, Note_off_c, 0, 81, 100
2, 222048, Note_on_c, 0, 79, 90
2, 222112, Note_off_c, 0, 79, 100
2, 222144, Note_on_c, 0, 82, 90
2, 222208, Note_off_c, 0, 82, 100
2, 222240, Note_on_c, 0, 81, 90
2, 222304, Note_off_c, 0, 81, 100
2, 222336, Note_on_c, 0, 84, 90
2, 222400, Note_off_c, 0, 84, 100
2, 222432, Note_on_c, 0, 82, 90
2, 222496, Note_off_c, 0, 82, 100
2, 222528, Note_on_c, 0, 81, 90
2, 222592, Note_off_c, 0, 81, 100
2, 222624, Note_on_c, 0, 79, 90
2, 222688, Note_off_c, 0, 79, 100
2, 222720, Note_on_c, 0, 78, 60
2, 222784, Note_off_c, 0, 78, 100
2, 222816, Note_on_c, 0, 74, 60
2, 222880, Note_off_c, 0, 74, 100
2, 222912, Note_on_c, 0, 86, 60
2, 222976, Note_off_c, 0, 86, 100
2, 223008, Note_on_c, 0, 85, 60
2, 223072, Note_off_c, 0, 85, 100
2, 223104, Note_on_c, 0, 86, 60
2, 223168, Note_off_c, 0, 86, 100
2, 223200, Note_on_c, 0, 85, 60
2, 223264, Note_off_c, 0, 85, 100
2, 223296, Note_on_c, 0, 86, 60
2, 223360, Note_off_c, 0, 86, 100
2, 223392, Note_on_c, 0, 85, 60
2, 223456, Note_off_c, 0, 85, 100
2, 223488, Note_on_c, 0, 86, 60
2, 223552, Note_off_c, 0, 86, 100
2, 223584, Note_on_c, 0, 87, 60
2, 223648, Note_off_c, 0, 87, 100
2, 223680, Note_on_c, 0, 85, 60
2, 223744, Note_off_c, 0, 85, 100
2, 223776, Note_on_c, 0, 86, 60
2, 223840, Note_off_c, 0, 86, 100
2, 223872, Note_on_c, 0, 82, 60
2, 223872, Note_on_c, 0, 66, 60
2, 223872, Note_on_c, 0, 62, 60
2, 223936, Note_off_c, 0, 82, 100
2, 223968, Note_on_c, 0, 85, 60
2, 224032, Note_off_c, 0, 85, 100
2, 224064, Note_on_c, 0, 81, 60
2, 224128, Note_off_c, 0, 66, 100
2, 224128, Note_off_c, 0, 62, 100
2, 224128, Note_off_c, 0, 81, 100
2, 224160, Note_on_c, 0, 82, 60
2, 224224, Note_off_c, 0, 82, 100
2, 224256, Note_on_c, 0, 79, 60
2, 224256, Note_on_c, 0, 67, 60
2, 224256, Note_on_c, 0, 64, 60
2, 224320, Note_off_c, 0, 79, 100
2, 224352, Note_on_c, 0, 81, 60
2, 224416, Note_off_c, 0, 81, 100
2, 224448, Note_on_c, 0, 77, 60
2, 224512, Note_off_c, 0, 67, 100
2, 224512, Note_off_c, 0, 64, 100
2, 224512, Note_off_c, 0, 77, 100
2, 224544, Note_on_c, 0, 79, 60
2, 224608, Note_off_c, 0, 79, 100
2, 224640, Note_on_c, 0, 75, 60
2, 224704, Note_off_c, 0, 75, 100
2, 224736, Note_on_c, 0, 77, 60
2, 224800, Note_off_c, 0, 77, 100
2, 224832, Note_on_c, 0, 74, 60
2, 224896, Note_off_c, 0, 74, 100
2, 224928, Note_on_c, 0, 75, 60
2, 224992, Note_off_c, 0, 75, 100
2, 225024, Note_on_c, 0, 72, 60
2, 225152, Note_off_c, 0, 72, 100
2, 225216, Note_on_c, 0, 82, 60
2, 225344, Note_off_c, 0, 82, 100
2, 225408, Note_on_c, 0, 81, 60
2, 225536, Note_off_c, 0, 81, 100
2, 225600, Note_on_c, 0, 79, 60
2, 225728, Note_off_c, 0, 79, 100
2, 225792, Note_on_c, 0, 78, 60
2, 225856, Note_off_c, 0, 78, 100
2, 225888, Note_on_c, 0, 73, 60
2, 225952, Note_off_c, 0, 73, 100
2, 225984, Note_on_c, 0, 74, 60
2, 226048, Note_off_c, 0, 74, 100
2, 226080, Note_on_c, 0, 73, 60
2, 226144, Note_off_c, 0, 73, 100
2, 226176, Note_on_c, 0, 74, 60
2, 226240, Note_off_c, 0, 74, 100
2, 226272, Note_on_c, 0, 73, 60
2, 226336, Note_off_c, 0, 73, 100
2, 226368, Note_on_c, 0, 75, 60
2, 226432, Note_off_c, 0, 75, 100
2, 226464, Note_on_c, 0, 73, 60
2, 226528, Note_off_c, 0, 73, 100
2, 226560, Note_on_c, 0, 74, 60
2, 226624, Note_off_c, 0, 74, 100
2, 226656, Note_on_c, 0, 75, 60
2, 226720, Note_off_c, 0, 75, 100
2, 226752, Note_on_c, 0, 72, 60
2, 226816, Note_off_c, 0, 72, 100
2, 226848, Note_on_c, 0, 74, 60
2, 226912, Note_off_c, 0, 74, 100
2, 226944, Note_on_c, 0, 70, 60
2, 227008, Note_off_c, 0, 70, 100
2, 227040, Note_on_c, 0, 72, 60
2, 227104, Note_off_c, 0, 72, 100
2, 227136, Note_on_c, 0, 69, 60
2, 227200, Note_off_c, 0, 69, 100
2, 227232, Note_on_c, 0, 72, 60
2, 227296, Note_off_c, 0, 72, 100
2, 227328, Note_on_c, 0, 67, 60
2, 227392, Note_off_c, 0, 67, 100
2, 227424, Note_on_c, 0, 69, 60
2, 227488, Note_off_c, 0, 69, 100
2, 227520, Note_on_c, 0, 65, 60
2, 227584, Note_off_c, 0, 65, 100
2, 227616, Note_on_c, 0, 67, 60
2, 227680, Note_off_c, 0, 67, 100
2, 227712, Note_on_c, 0, 63, 60
2, 227776, Note_off_c, 0, 63, 100
2, 227808, Note_on_c, 0, 65, 60
2, 227872, Note_off_c, 0, 65, 100
2, 227904, Note_on_c, 0, 62, 60
2, 227968, Note_off_c, 0, 62, 100
2, 228000, Note_on_c, 0, 63, 60
2, 228064, Note_off_c, 0, 63, 100
2, 228096, Note_on_c, 0, 61, 60
2, 228224, Note_off_c, 0, 61, 100
2, 228288, Note_on_c, 0, 67, 60
2, 228416, Note_off_c, 0, 67, 100
2, 228480, Note_on_c, 0, 70, 60
2, 228608, Note_off_c, 0, 70, 100
2, 228672, Note_on_c, 0, 61, 60
2, 228800, Note_off_c, 0, 61, 100
2, 228864, Note_on_c, 0, 62, 44
2, 228992, Note_off_c, 0, 62, 100
2, 229056, Note_on_c, 0, 74, 44
2, 229184, Note_off_c, 0, 74, 100
2, 229440, Note_on_c, 0, 74, 44
2, 229568, Note_off_c, 0, 74, 100
2, 229824, Note_on_c, 0, 74, 44
2, 229952, Note_off_c, 0, 74, 100
2, 230208, Note_on_c, 0, 74, 44
2, 230336, Note_off_c, 0, 74, 100
2, 230592, Note_on_c, 0, 74, 44
2, 230720, Note_off_c, 0, 74, 100
2, 230784, Note_on_c, 0, 73, 44
2, 230912, Note_off_c, 0, 73, 100
2, 230976, Note_on_c, 0, 74, 44
2, 231104, Note_off_c, 0, 74, 100
2, 231168, Note_on_c, 0, 73, 44
2, 231296, Note_off_c, 0, 73, 100
2, 231360, Note_on_c, 0, 74, 44
2, 231488, Note_off_c, 0, 74, 100
2, 231552, Note_on_c, 0, 73, 44
2, 231680, Note_off_c, 0, 73, 100
2, 231744, Note_on_c, 0, 74, 44
2, 231872, Note_off_c, 0, 74, 100
2, 231936, Note_on_c, 0, 77, 44
2, 232128, Note_on_c, 0, 69, 44
2, 232128, Note_on_c, 0, 65, 44
2, 232128, Note_on_c, 0, 60, 44
2, 232192, Note_off_c, 0, 77, 100
2, 232256, Note_off_c, 0, 69, 100
2, 232256, Note_off_c, 0, 65, 100
2, 232256, Note_off_c, 0, 60, 100
2, 232320, Note_on_c, 0, 75, 44
2, 232320, Note_on_c, 0, 69, 44
2, 232320, Note_on_c, 0, 65, 44
2, 232320, Note_on_c, 0, 60, 44
2, 232448, Note_off_c, 0, 69, 100
2, 232448, Note_off_c, 0, 65, 100
2, 232448, Note_off_c, 0, 60, 100
2, 232480, Note_on_c, 0, 69, 44
2, 232512, Note_on_c, 0, 65, 44
2, 232512, Note_on_c, 0, 60, 44
2, 232576, Note_off_c, 0, 75, 100
2, 232608, Note_off_c, 0, 69, 100
2, 232640, Note_off_c, 0, 65, 100
2, 232640, Note_off_c, 0, 60, 100
2, 232704, Note_on_c, 0, 69, 44
2, 232704, Note_on_c, 0, 65, 44
2, 232704, Note_on_c, 0, 60, 44
2, 232800, Note_on_c, 0, 75, 44
2, 232864, Note_off_c, 0, 75, 100
2, 232896, Note_on_c, 0, 74, 44
2, 232960, Note_off_c, 0, 69, 100
2, 232960, Note_off_c, 0, 65, 100
2, 232960, Note_off_c, 0, 60, 100
2, 232960, Note_off_c, 0, 74, 100
2, 232992, Note_on_c, 0, 75, 44
2, 233056, Note_off_c, 0, 75, 100
2, 233088, Note_on_c, 0, 77, 44
2, 233152, Note_off_c, 0, 77, 100
2, 233184, Note_on_c, 0, 75, 44
2, 233248, Note_off_c, 0, 75, 100
2, 233280, Note_on_c, 0, 74, 44
2, 233344, Note_off_c, 0, 74, 100
2, 233376, Note_on_c, 0, 75, 44
2, 233440, Note_off_c, 0, 75, 100
2, 233472, Note_on_c, 0, 82, 44
2, 233664, Note_on_c, 0, 75, 44
2, 233664, Note_on_c, 0, 72, 44
2, 233664, Note_on_c, 0, 65, 44
2, 233728, Note_off_c, 0, 82, 100
2, 233792, Note_off_c, 0, 75, 100
2, 233792, Note_off_c, 0, 72, 100
2, 233792, Note_off_c, 0, 65, 100
2, 233856, Note_on_c, 0, 81, 44
2, 233856, Note_on_c, 0, 75, 44
2, 233856, Note_on_c, 0, 72, 44
2, 233856, Note_on_c, 0, 65, 44
2, 233984, Note_off_c, 0, 75, 100
2, 233984, Note_off_c, 0, 72, 100
2, 233984, Note_off_c, 0, 65, 100
2, 234048, Note_on_c, 0, 75, 44
2, 234048, Note_on_c, 0, 72, 44
2, 234048, Note_on_c, 0, 65, 44
2, 234112, Note_off_c, 0, 81, 100
2, 234176, Note_off_c, 0, 75, 100
2, 234176, Note_off_c, 0, 72, 100
2, 234176, Note_off_c, 0, 65, 100
2, 234240, Note_on_c, 0, 72, 44
2, 234240, Note_on_c, 0, 65, 44
2, 234240, Note_on_c, 0, 75, 44
2, 234336, Note_on_c, 0, 81, 44
2, 234400, Note_off_c, 0, 81, 100
2, 234432, Note_on_c, 0, 79, 44
2, 234496, Note_off_c, 0, 72, 100
2, 234496, Note_off_c, 0, 65, 100
2, 234496, Note_off_c, 0, 75, 100
2, 234496, Note_off_c, 0, 79, 100
2, 234528, Note_on_c, 0, 81, 44
2, 234592, Note_off_c, 0, 81, 100
2, 234624, Note_on_c, 0, 82, 44
2, 234688, Note_off_c, 0, 82, 100
2, 234720, Note_on_c, 0, 81, 44
2, 234784, Note_off_c, 0, 81, 100
2, 234816, Note_on_c, 0, 79, 44
2, 234880, Note_off_c, 0, 79, 100
2, 234912, Note_on_c, 0, 81, 44
2, 234976, Note_off_c, 0, 81, 100
2, 235008, Note_on_c, 0, 89, 44
2, 235200, Note_on_c, 0, 65, 44
2, 235264, Note_off_c, 0, 89, 100
2, 235328, Note_off_c, 0, 65, 100
2, 235392, Note_on_c, 0, 87, 44
2, 235392, Note_on_c, 0, 72, 44
2, 235520, Note_off_c, 0, 72, 100
2, 235584, Note_on_c, 0, 75, 44
2, 235648, Note_off_c, 0, 87, 100
2, 235712, Note_off_c, 0, 75, 100
2, 235776, Note_on_c, 0, 66, 44
2, 235872, Note_on_c, 0, 87, 44
2, 235936, Note_off_c, 0, 87, 100
2, 235968, Note_on_c, 0, 86, 44
2, 236032, Note_off_c, 0, 86, 100
2, 236064, Note_on_c, 0, 87, 44
2, 236128, Note_off_c, 0, 87, 100
2, 236160, Note_on_c, 0, 89, 44
2, 236224, Note_off_c, 0, 89, 100
2, 236256, Note_on_c, 0, 87, 44
2, 236288, Note_off_c, 0, 66, 100
2, 236320, Note_off_c, 0, 87, 100
2, 236352, Note_on_c, 0, 85, 44
2, 236416, Note_off_c, 0, 85, 100
2, 236448, Note_on_c, 0, 84, 44
2, 236512, Note_off_c, 0, 84, 100
2, 236544, Note_on_c, 0, 82, 44
2, 236736, Note_on_c, 0, 65, 44
2, 236800, Note_off_c, 0, 82, 100
2, 236864, Note_off_c, 0, 65, 100
2, 236928, Note_on_c, 0, 81, 44
2, 236928, Note_on_c, 0, 72, 44
2, 237056, Note_off_c, 0, 72, 100
2, 237120, Note_on_c, 0, 75, 44
2, 237184, Note_off_c, 0, 81, 100
2, 237248, Note_off_c, 0, 75, 100
2, 237312, Note_on_c, 0, 66, 44
2, 237408, Note_on_c, 0, 87, 44
2, 237472, Note_off_c, 0, 87, 100
2, 237504, Note_on_c, 0, 86, 44
2, 237568, Note_off_c, 0, 86, 100
2, 237600, Note_on_c, 0, 87, 44
2, 237664, Note_off_c, 0, 87, 100
2, 237696, Note_on_c, 0, 89, 44
2, 237760, Note_off_c, 0, 89, 100
2, 237792, Note_on_c, 0, 87, 44
2, 237824, Note_off_c, 0, 66, 100
2, 237856, Note_off_c, 0, 87, 100
2, 237888, Note_on_c, 0, 85, 44
2, 237952, Note_off_c, 0, 85, 100
2, 237984, Note_on_c, 0, 84, 44
2, 238048, Note_off_c, 0, 84, 100
2, 238080, Note_on_c, 0, 82, 44
2, 238080, Note_on_c, 0, 65, 44
2, 238144, Note_off_c, 0, 82, 100
2, 238176, Note_on_c, 0, 81, 44
2, 238208, Note_off_c, 0, 65, 100
2, 238240, Note_off_c, 0, 81, 100
2, 238272, Note_on_c, 0, 87, 44
2, 238336, Note_off_c, 0, 87, 100
2, 238368, Note_on_c, 0, 85, 44
2, 238432, Note_off_c, 0, 85, 100
2, 238464, Note_on_c, 0, 89, 44
2, 238464, Note_on_c, 0, 75, 90
2, 238464, Note_on_c, 0, 72, 90
2, 238464, Note_on_c, 0, 67, 90
2, 238528, Note_off_c, 0, 89, 100
2, 238560, Note_on_c, 0, 87, 44
2, 238624, Note_off_c, 0, 87, 100
2, 238656, Note_on_c, 0, 85, 44
2, 238720, Note_off_c, 0, 67, 100
2, 238720, Note_off_c, 0, 85, 100
2, 238752, Note_on_c, 0, 84, 44
2, 238816, Note_off_c, 0, 84, 100
2, 238848, Note_on_c, 0, 82, 44
2, 238848, Note_on_c, 0, 65, 44
2, 238912, Note_off_c, 0, 82, 100
2, 238944, Note_on_c, 0, 81, 44
2, 238976, Note_off_c, 0, 75, 100
2, 238976, Note_off_c, 0, 72, 100
2, 239008, Note_off_c, 0, 81, 100
2, 239040, Note_on_c, 0, 87, 44
2, 239104, Note_off_c, 0, 65, 100
2, 239104, Note_off_c, 0, 87, 100
2, 239136, Note_on_c, 0, 86, 44
2, 239200, Note_off_c, 0, 86, 100
2, 239232, Note_on_c, 0, 89, 44
2, 239232, Note_on_c, 0, 66, 90
2, 239232, Note_on_c, 0, 72, 90
2, 239232, Note_on_c, 0, 75, 90
2, 239296, Note_off_c, 0, 89, 100
2, 239328, Note_on_c, 0, 87, 44
2, 239392, Note_off_c, 0, 87, 100
2, 239424, Note_on_c, 0, 85, 44
2, 239488, Note_off_c, 0, 66, 100
2, 239488, Note_off_c, 0, 72, 100
2, 239488, Note_off_c, 0, 75, 100
2, 239488, Note_off_c, 0, 85, 100
2, 239520, Note_on_c, 0, 84, 44
2, 239584, Note_off_c, 0, 84, 100
2, 239616, Note_on_c, 0, 82, 44
2, 239616, Note_on_c, 0, 65, 44
2, 239616, Note_on_c, 0, 72, 44
2, 239616, Note_on_c, 0, 75, 44
2, 239680, Note_off_c, 0, 82, 100
2, 239712, Note_on_c, 0, 81, 44
2, 239776, Note_off_c, 0, 81, 100
2, 239808, Note_on_c, 0, 84, 44
2, 239872, Note_off_c, 0, 65, 100
2, 239872, Note_off_c, 0, 72, 100
2, 239872, Note_off_c, 0, 75, 100
2, 239872, Note_off_c, 0, 84, 100
2, 239904, Note_on_c, 0, 83, 44
2, 239968, Note_off_c, 0, 83, 100
2, 240000, Note_on_c, 0, 86, 44
2, 240064, Note_off_c, 0, 86, 100
2, 240096, Note_on_c, 0, 84, 44
2, 240160, Note_off_c, 0, 84, 100
2, 240192, Note_on_c, 0, 82, 44
2, 240256, Note_off_c, 0, 82, 100
2, 240288, Note_on_c, 0, 81, 44
2, 240352, Note_off_c, 0, 81, 100
2, 240384, Note_on_c, 0, 79, 44
2, 240448, Note_off_c, 0, 79, 100
2, 240480, Note_on_c, 0, 77, 44
2, 240544, Note_off_c, 0, 77, 100
2, 240576, Note_on_c, 0, 79, 44
2, 240640, Note_off_c, 0, 79, 100
2, 240672, Note_on_c, 0, 78, 44
2, 240736, Note_off_c, 0, 78, 100
2, 240768, Note_on_c, 0, 81, 44
2, 240832, Note_off_c, 0, 81, 100
2, 240864, Note_on_c, 0, 79, 44
2, 240928, Note_off_c, 0, 79, 100
2, 240960, Note_on_c, 0, 77, 44
2, 241024, Note_off_c, 0, 77, 100
2, 241056, Note_on_c, 0, 75, 44
2, 241120, Note_off_c, 0, 75, 100
2, 241152, Note_on_c, 0, 74, 60
2, 241216, Note_off_c, 0, 74, 100
2, 241248, Note_on_c, 0, 72, 60
2, 241312, Note_off_c, 0, 72, 100
2, 241344, Note_on_c, 0, 74, 60
2, 241408, Note_off_c, 0, 74, 100
2, 241440, Note_on_c, 0, 75, 60
2, 241504, Note_off_c, 0, 75, 100
2, 241536, Note_on_c, 0, 76, 60
2, 241664, Note_off_c, 0, 76, 100
2, 241728, Note_on_c, 0, 77, 60
2, 241856, Note_off_c, 0, 77, 100
2, 241920, Note_on_c, 0, 79, 60
2, 242048, Note_off_c, 0, 79, 100
2, 242112, Note_on_c, 0, 77, 60
2, 242240, Note_off_c, 0, 77, 100
2, 242304, Note_on_c, 0, 75, 60
2, 242432, Note_off_c, 0, 75, 100
2, 242496, Note_on_c, 0, 74, 60
2, 242624, Note_off_c, 0, 74, 100
2, 242688, Note_on_c, 0, 72, 82
2, 242816, Note_off_c, 0, 72, 100
2, 242880, Note_on_c, 0, 70, 82
2, 242880, Note_on_c, 0, 58, 60
2, 243008, Note_off_c, 0, 70, 100
2, 243008, Note_off_c, 0, 58, 100
2, 243072, Note_on_c, 0, 70, 82
2, 243072, Note_on_c, 0, 62, 60
2, 243200, Note_off_c, 0, 62, 100
2, 243264, Note_on_c, 0, 65, 60
2, 243392, Note_off_c, 0, 65, 100
2, 243456, Note_off_c, 0, 70, 100
2, 243456, Note_on_c, 0, 62, 60
2, 243584, Note_off_c, 0, 62, 100
2, 243648, Note_on_c, 0, 74, 82
2, 243648, Note_on_c, 0, 58, 60
2, 243776, Note_off_c, 0, 74, 100
2, 243776, Note_off_c, 0, 58, 100
2, 243840, Note_on_c, 0, 79, 82
2, 243840, Note_on_c, 0, 62, 60
2, 243968, Note_off_c, 0, 79, 100
2, 243968, Note_off_c, 0, 62, 100
2, 244032, Note_on_c, 0, 74, 82
2, 244032, Note_on_c, 0, 67, 60
2, 244160, Note_off_c, 0, 74, 100
2, 244160, Note_off_c, 0, 67, 100
2, 244224, Note_on_c, 0, 77, 82
2, 244416, Note_on_c, 0, 60, 60
2, 244480, Note_off_c, 0, 77, 100
2, 244544, Note_off_c, 0, 60, 100
2, 244608, Note_on_c, 0, 75, 82
2, 244608, Note_on_c, 0, 63, 60
2, 244736, Note_off_c, 0, 63, 100
2, 244800, Note_on_c, 0, 67, 60
2, 244928, Note_off_c, 0, 67, 100
2, 244992, Note_off_c, 0, 75, 100
2, 244992, Note_on_c, 0, 63, 60
2, 245120, Note_off_c, 0, 63, 100
2, 245180, Note_on_c, 0, 60, 60
2, 245184, Note_on_c, 0, 77, 82
2, 245248, Note_off_c, 0, 77, 100
2, 245280, Note_on_c, 0, 79, 82
2, 245308, Note_off_c, 0, 60, 100
2, 245344, Note_off_c, 0, 79, 100
2, 245344, Note_on_c, 0, 77, 82
2, 245376, Note_on_c, 0, 63, 60
2, 245408, Note_off_c, 0, 77, 100
2, 245472, Note_on_c, 0, 75, 82
2, 245504, Note_off_c, 0, 63, 100
2, 245536, Note_off_c, 0, 75, 100
2, 245568, Note_on_c, 0, 74, 82
2, 245568, Note_on_c, 0, 67, 60
2, 245632, Note_off_c, 0, 74, 100
2, 245664, Note_on_c, 0, 72, 82
2, 245696, Note_off_c, 0, 67, 100
2, 245728, Note_off_c, 0, 72, 100
2, 245760, Note_on_c, 0, 70, 82
2, 246016, Note_off_c, 0, 70, 100
2, 246144, Note_on_c, 0, 69, 82
2, 246528, Note_off_c, 0, 69, 100
2, 246720, Note_on_c, 0, 69, 82
2, 246848, Note_off_c, 0, 69, 100
2, 246912, Note_on_c, 0, 70, 82
2, 247040, Note_off_c, 0, 70, 100
2, 247104, Note_on_c, 0, 72, 82
2, 247232, Note_off_c, 0, 72, 100
2, 247296, Note_on_c, 0, 72, 82
2, 247296, Note_on_c, 0, 69, 82
2, 247488, Note_on_c, 0, 58, 60
2, 247552, Note_off_c, 0, 72, 100
2, 247552, Note_off_c, 0, 69, 100
2, 247616, Note_off_c, 0, 58, 100
2, 247680, Note_on_c, 0, 74, 82
2, 247680, Note_on_c, 0, 70, 82
2, 247680, Note_on_c, 0, 62, 60
2, 247808, Note_off_c, 0, 62, 100
2, 247872, Note_on_c, 0, 65, 60
2, 247936, Note_off_c, 0, 74, 100
2, 247936, Note_off_c, 0, 70, 100
2, 248000, Note_off_c, 0, 65, 100
2, 248064, Note_on_c, 0, 62, 60
2, 248192, Note_off_c, 0, 62, 100
2, 248256, Note_on_c, 0, 77, 82
2, 248256, Note_on_c, 0, 58, 60
2, 248320, Note_off_c, 0, 77, 100
2, 248352, Note_on_c, 0, 76, 82
2, 248384, Note_off_c, 0, 58, 100
2, 248416, Note_off_c, 0, 76, 100
2, 248448, Note_on_c, 0, 79, 82
2, 248448, Note_on_c, 0, 62, 60
2, 248512, Note_off_c, 0, 79, 100
2, 248544, Note_on_c, 0, 77, 82
2, 248576, Note_off_c, 0, 62, 100
2, 248608, Note_off_c, 0, 77, 100
2, 248640, Note_on_c, 0, 75, 82
2, 248640, Note_on_c, 0, 65, 60
2, 248704, Note_off_c, 0, 75, 100
2, 248736, Note_on_c, 0, 74, 82
2, 248768, Note_off_c, 0, 65, 100
2, 248800, Note_off_c, 0, 74, 100
2, 248832, Note_on_c, 0, 74, 82
2, 248832, Note_on_c, 0, 64, 60
2, 248960, Note_off_c, 0, 74, 100
2, 248960, Note_off_c, 0, 64, 100
2, 249024, Note_on_c, 0, 72, 82
2, 249024, Note_on_c, 0, 67, 60
2, 249152, Note_off_c, 0, 67, 100
2, 249216, Note_on_c, 0, 62, 60
2, 249280, Note_off_c, 0, 72, 100
2, 249344, Note_off_c, 0, 62, 100
2, 249408, Note_on_c, 0, 70, 82
2, 249408, Note_on_c, 0, 65, 60
2, 249536, Note_off_c, 0, 70, 100
2, 249536, Note_off_c, 0, 65, 100
2, 249600, Note_on_c, 0, 74, 82
2, 249600, Note_on_c, 0, 64, 60
2, 249728, Note_off_c, 0, 74, 100
2, 249728, Note_off_c, 0, 64, 100
2, 249792, Note_on_c, 0, 72, 82
2, 249792, Note_on_c, 0, 67, 60
2, 249920, Note_off_c, 0, 67, 100
2, 249984, Note_on_c, 0, 60, 60
2, 250048, Note_off_c, 0, 72, 100
2, 250112, Note_off_c, 0, 60, 100
2, 250176, Note_on_c, 0, 69, 82
2, 250176, Note_on_c, 0, 64, 60
2, 250304, Note_off_c, 0, 69, 100
2, 250304, Note_off_c, 0, 64, 100
2, 250368, Note_on_c, 0, 70, 82
2, 250368, Note_on_c, 0, 62, 60
2, 250368, Note_on_c, 0, 65, 60
2, 250432, Note_off_c, 0, 70, 100
2, 250464, Note_on_c, 0, 72, 82
2, 250528, Note_off_c, 0, 72, 100
2, 250560, Note_on_c, 0, 70, 82
2, 250624, Note_off_c, 0, 62, 100
2, 250624, Note_off_c, 0, 65, 100
2, 250624, Note_off_c, 0, 70, 100
2, 250656, Note_on_c, 0, 69, 82
2, 250720, Note_off_c, 0, 69, 100
2, 250752, Note_on_c, 0, 70, 82
2, 250816, Note_off_c, 0, 70, 100
2, 250848, Note_on_c, 0, 72, 82
2, 250912, Note_off_c, 0, 72, 100
2, 250944, Note_on_c, 0, 74, 82
2, 251008, Note_off_c, 0, 74, 100
2, 251040, Note_on_c, 0, 75, 82
2, 251104, Note_off_c, 0, 75, 100
2, 251136, Note_on_c, 0, 76, 82
2, 251200, Note_off_c, 0, 76, 100
2, 251232, Note_on_c, 0, 77, 82
2, 251296, Note_off_c, 0, 77, 100
2, 251328, Note_on_c, 0, 76, 82
2, 251392, Note_off_c, 0, 76, 100
2, 251424, Note_on_c, 0, 77, 82
2, 251488, Note_off_c, 0, 77, 100
2, 251520, Note_on_c, 0, 79, 82
2, 251584, Note_off_c, 0, 79, 100
2, 251616, Note_on_c, 0, 77, 82
2, 251680, Note_off_c, 0, 77, 100
2, 251712, Note_on_c, 0, 75, 82
2, 251776, Note_off_c, 0, 75, 100
2, 251808, Note_on_c, 0, 74, 82
2, 251872, Note_off_c, 0, 74, 100
2, 251904, Note_on_c, 0, 74, 82
2, 251904, Note_on_c, 0, 64, 60
2, 252032, Note_off_c, 0, 74, 100
2, 252032, Note_off_c, 0, 64, 100
2, 252096, Note_on_c, 0, 72, 82
2, 252096, Note_on_c, 0, 67, 60
2, 252224, Note_off_c, 0, 72, 100
2, 252224, Note_off_c, 0, 67, 100
2, 252288, Note_on_c, 0, 72, 82
2, 252288, Note_on_c, 0, 62, 60
2, 252416, Note_off_c, 0, 72, 100
2, 252416, Note_off_c, 0, 62, 100
2, 252480, Note_on_c, 0, 70, 82
2, 252480, Note_on_c, 0, 65, 60
2, 252608, Note_off_c, 0, 70, 100
2, 252608, Note_off_c, 0, 65, 100
2, 252672, Note_on_c, 0, 74, 82
2, 252672, Note_on_c, 0, 64, 60
2, 252800, Note_off_c, 0, 74, 100
2, 252800, Note_off_c, 0, 64, 100
2, 252864, Note_on_c, 0, 72, 82
2, 252864, Note_on_c, 0, 67, 60
2, 252992, Note_off_c, 0, 72, 100
2, 252992, Note_off_c, 0, 67, 100
2, 253056, Note_on_c, 0, 72, 82
2, 253056, Note_on_c, 0, 60, 60
2, 253184, Note_off_c, 0, 72, 100
2, 253184, Note_off_c, 0, 60, 100
2, 253248, Note_on_c, 0, 69, 82
2, 253248, Note_on_c, 0, 64, 60
2, 253376, Note_off_c, 0, 69, 100
2, 253376, Note_off_c, 0, 64, 100
2, 253440, Note_on_c, 0, 70, 82
2, 253440, Note_on_c, 0, 65, 60
2, 253440, Note_on_c, 0, 62, 60
2, 253568, Note_off_c, 0, 70, 100
2, 253632, Note_on_c, 0, 72, 82
2, 253696, Note_off_c, 0, 65, 100
2, 253696, Note_off_c, 0, 62, 100
2, 253696, Note_off_c, 0, 72, 100
2, 253728, Note_on_c, 0, 74, 82
2, 253792, Note_off_c, 0, 74, 100
2, 253824, Note_on_c, 0, 75, 82
2, 253888, Note_off_c, 0, 75, 100
2, 253920, Note_on_c, 0, 77, 82
2, 253984, Note_off_c, 0, 77, 100
2, 254016, Note_on_c, 0, 79, 82
2, 254080, Note_off_c, 0, 79, 100
2, 254112, Note_on_c, 0, 81, 82
2, 254176, Note_off_c, 0, 81, 100
2, 254208, Note_on_c, 0, 82, 82
2, 254272, Note_off_c, 0, 82, 100
2, 254304, Note_on_c, 0, 84, 82
2, 254368, Note_off_c, 0, 84, 100
2, 254400, Note_on_c, 0, 86, 82
2, 254464, Note_off_c, 0, 86, 100
2, 254496, Note_on_c, 0, 87, 82
2, 254560, Note_off_c, 0, 87, 100
2, 254592, Note_on_c, 0, 89, 82
2, 254720, Note_off_c, 0, 89, 100
2, 254784, Note_on_c, 0, 89, 82
2, 254912, Note_off_c, 0, 89, 100
2, 254976, Note_on_c, 0, 89, 90
2, 254976, Note_on_c, 0, 77, 90
2, 255104, Note_off_c, 0, 89, 100
2, 255168, Note_on_c, 0, 87, 90
2, 255424, Note_off_c, 0, 87, 100
2, 255488, Note_off_c, 0, 77, 100
2, 255552, Note_on_c, 0, 86, 90
2, 255680, Note_off_c, 0, 86, 100
2, 255744, Note_on_c, 0, 86, 90
2, 255744, Note_on_c, 0, 77, 90
2, 255872, Note_off_c, 0, 86, 100
2, 255872, Note_off_c, 0, 77, 100
2, 255936, Note_on_c, 0, 84, 90
2, 255936, Note_on_c, 0, 75, 90
2, 256064, Note_off_c, 0, 84, 100
2, 256064, Note_off_c, 0, 75, 100
2, 256128, Note_on_c, 0, 82, 90
2, 256128, Note_on_c, 0, 74, 90
2, 256256, Note_off_c, 0, 82, 100
2, 256256, Note_off_c, 0, 74, 100
2, 256320, Note_on_c, 0, 81, 90
2, 256320, Note_on_c, 0, 72, 90
2, 256448, Note_off_c, 0, 81, 100
2, 256448, Note_off_c, 0, 72, 100
2, 256512, Note_on_c, 0, 82, 90
2, 256512, Note_on_c, 0, 74, 90
2, 256768, Note_off_c, 0, 82, 100
2, 256768, Note_off_c, 0, 74, 100
2, 256896, Note_on_c, 0, 70, 90
2, 257152, Note_off_c, 0, 70, 100
2, 257664, Note_on_c, 0, 67, 60
2, 257728, Note_off_c, 0, 67, 100
2, 257760, Note_on_c, 0, 65, 60
2, 257824, Note_off_c, 0, 65, 100
2, 257856, Note_on_c, 0, 63, 60
2, 257920, Note_off_c, 0, 63, 100
2, 257952, Note_on_c, 0, 62, 60
2, 258016, Note_off_c, 0, 62, 100
2, 258048, Note_on_c, 0, 60, 60
2, 258176, Note_off_c, 0, 60, 100
2, 258240, Note_on_c, 0, 58, 60
2, 258368, Note_off_c, 0, 58, 100
2, 258432, Note_on_c, 0, 58, 60
2, 258816, Note_off_c, 0, 58, 100
2, 259008, Note_on_c, 0, 70, 60
2, 259136, Note_off_c, 0, 70, 100
2, 259200, Note_on_c, 0, 70, 60
2, 259328, Note_off_c, 0, 70, 100
2, 259392, Note_on_c, 0, 72, 60
2, 259520, Note_off_c, 0, 72, 100
2, 259584, Note_on_c, 0, 70, 60
2, 259712, Note_off_c, 0, 70, 100
2, 259776, Note_on_c, 0, 69, 60
2, 259904, Note_off_c, 0, 69, 100
2, 259968, Note_on_c, 0, 68, 60
2, 260352, Note_off_c, 0, 68, 100
2, 260544, Note_on_c, 0, 68, 60
2, 260672, Note_off_c, 0, 68, 100
2, 260736, Note_on_c, 0, 68, 60
2, 260864, Note_off_c, 0, 68, 100
2, 260928, Note_on_c, 0, 68, 60
2, 261056, Note_off_c, 0, 68, 100
2, 261120, Note_on_c, 0, 80, 90
2, 261184, Note_off_c, 0, 80, 100
2, 261216, Note_on_c, 0, 82, 90
2, 261280, Note_off_c, 0, 82, 100
2, 261312, Note_on_c, 0, 79, 90
2, 261376, Note_off_c, 0, 79, 100
2, 261408, Note_on_c, 0, 80, 90
2, 261472, Note_off_c, 0, 80, 100
2, 261504, Note_on_c, 0, 77, 90
2, 261568, Note_off_c, 0, 77, 100
2, 261600, Note_on_c, 0, 79, 90
2, 261664, Note_off_c, 0, 79, 100
2, 261696, Note_on_c, 0, 75, 90
2, 261760, Note_off_c, 0, 75, 100
2, 261792, Note_on_c, 0, 77, 90
2, 261856, Note_off_c, 0, 77, 100
2, 261888, Note_on_c, 0, 74, 90
2, 261952, Note_off_c, 0, 74, 100
2, 261984, Note_on_c, 0, 75, 90
2, 262048, Note_off_c, 0, 75, 100
2, 262080, Note_on_c, 0, 72, 90
2, 262144, Note_off_c, 0, 72, 100
2, 262176, Note_on_c, 0, 74, 90
2, 262240, Note_off_c, 0, 74, 100
2, 262272, Note_on_c, 0, 70, 90
2, 262336, Note_off_c, 0, 70, 100
2, 262368, Note_on_c, 0, 72, 90
2, 262432, Note_off_c, 0, 72, 100
2, 262464, Note_on_c, 0, 68, 90
2, 262528, Note_off_c, 0, 68, 100
2, 262560, Note_on_c, 0, 70, 90
2, 262624, Note_off_c, 0, 70, 100
2, 262656, Note_on_c, 0, 68, 60
2, 262784, Note_off_c, 0, 68, 100
2, 262848, Note_on_c, 0, 67, 60
2, 263036, Note_off_c, 0, 67, 0
2, 263040, Note_on_c, 0, 67, 60
2, 263612, Note_off_c, 0, 67, 0
2, 263616, Note_on_c, 0, 77, 60
2, 263744, Note_off_c, 0, 77, 100
2, 263808, Note_on_c, 0, 79, 60
2, 263936, Note_off_c, 0, 79, 100
2, 264000, Note_on_c, 0, 77, 60
2, 264128, Note_off_c, 0, 77, 100
2, 264192, Note_on_c, 0, 77, 60
2, 264320, Note_off_c, 0, 77, 100
2, 264384, Note_on_c, 0, 76, 60
2, 264384, Note_on_c, 0, 58, 60
2, 264512, Note_off_c, 0, 76, 100
2, 264512, Note_off_c, 0, 58, 100
2, 264576, Note_on_c, 0, 76, 60
2, 264576, Note_on_c, 0, 61, 60
2, 264704, Note_off_c, 0, 61, 100
2, 264768, Note_on_c, 0, 64, 60
2, 264896, Note_off_c, 0, 64, 100
2, 264960, Note_off_c, 0, 76, 100
2, 264960, Note_on_c, 0, 69, 60
2, 265152, Note_on_c, 0, 85, 60
2, 265216, Note_off_c, 0, 69, 100
2, 265280, Note_off_c, 0, 85, 100
2, 265344, Note_on_c, 0, 85, 60
2, 265472, Note_off_c, 0, 85, 100
2, 265536, Note_on_c, 0, 76, 60
2, 265664, Note_off_c, 0, 76, 100
2, 265728, Note_on_c, 0, 79, 60
2, 265856, Note_off_c, 0, 79, 100
2, 265920, Note_on_c, 0, 77, 60
2, 265920, Note_on_c, 0, 57, 60
2, 266048, Note_off_c, 0, 77, 100
2, 266048, Note_off_c, 0, 57, 100
2, 266112, Note_on_c, 0, 77, 60
2, 266112, Note_on_c, 0, 60, 60
2, 266240, Note_off_c, 0, 60, 100
2, 266304, Note_on_c, 0, 65, 60
2, 266432, Note_off_c, 0, 65, 100
2, 266496, Note_off_c, 0, 77, 100
2, 266496, Note_on_c, 0, 69, 60
2, 266688, Note_on_c, 0, 77, 60
2, 266752, Note_off_c, 0, 69, 100
2, 266816, Note_off_c, 0, 77, 100
2, 266880, Note_on_c, 0, 79, 60
2, 267008, Note_off_c, 0, 79, 100
2, 267072, Note_on_c, 0, 75, 60
2, 267200, Note_off_c, 0, 75, 100
2, 267264, Note_on_c, 0, 73, 60
2, 267392, Note_off_c, 0, 73, 100
2, 267456, Note_on_c, 0, 74, 60
2, 267456, Note_on_c, 0, 59, 60
2, 267584, Note_off_c, 0, 74, 100
2, 267584, Note_off_c, 0, 59, 100
2, 267648, Note_on_c, 0, 74, 60
2, 267648, Note_on_c, 0, 62, 60
2, 267776, Note_off_c, 0, 62, 100
2, 267840, Note_on_c, 0, 65, 60
2, 267904, Note_off_c, 0, 74, 100
2, 267968, Note_off_c, 0, 65, 100
2, 268032, Note_on_c, 0, 70, 60
2, 268224, Note_on_c, 0, 77, 60
2, 268288, Note_off_c, 0, 70, 100
2, 268352, Note_off_c, 0, 77, 100
2, 268416, Note_on_c, 0, 79, 60
2, 268480, Note_off_c, 0, 79, 100
2, 268512, Note_on_c, 0, 77, 60
2, 268576, Note_off_c, 0, 77, 100
2, 268608, Note_on_c, 0, 75, 60
2, 268672, Note_off_c, 0, 75, 100
2, 268704, Note_on_c, 0, 74, 60
2, 268768, Note_off_c, 0, 74, 100
2, 268800, Note_on_c, 0, 72, 60
2, 268800, Note_on_c, 0, 64, 60
2, 268928, Note_off_c, 0, 64, 100
2, 268992, Note_on_c, 0, 65, 60
2, 269120, Note_off_c, 0, 65, 100
2, 269184, Note_off_c, 0, 72, 100
2, 269184, Note_on_c, 0, 64, 60
2, 269312, Note_off_c, 0, 64, 100
2, 269376, Note_on_c, 0, 69, 60
2, 269376, Note_on_c, 0, 65, 60
2, 269504, Note_off_c, 0, 69, 100
2, 269504, Note_off_c, 0, 65, 100
2, 269568, Note_on_c, 0, 70, 60
2, 269568, Note_on_c, 0, 62, 60
2, 269632, Note_off_c, 0, 70, 100
2, 269664, Note_on_c, 0, 77, 60
2, 269696, Note_off_c, 0, 62, 100
2, 269728, Note_off_c, 0, 77, 100
2, 269760, Note_on_c, 0, 76, 60
2, 269760, Note_on_c, 0, 65, 60
2, 269824, Note_off_c, 0, 76, 100
2, 269856, Note_on_c, 0, 77, 60
2, 269888, Note_off_c, 0, 65, 100
2, 269920, Note_off_c, 0, 77, 100
2, 269952, Note_on_c, 0, 79, 60
2, 269952, Note_on_c, 0, 62, 60
2, 270016, Note_off_c, 0, 79, 100
2, 270048, Note_on_c, 0, 77, 60
2, 270080, Note_off_c, 0, 62, 100
2, 270112, Note_off_c, 0, 77, 100
2, 270144, Note_on_c, 0, 75, 60
2, 270144, Note_on_c, 0, 65, 60
2, 270208, Note_off_c, 0, 75, 100
2, 270240, Note_on_c, 0, 74, 60
2, 270272, Note_off_c, 0, 65, 100
2, 270304, Note_off_c, 0, 74, 100
2, 270336, Note_on_c, 0, 72, 60
2, 270336, Note_on_c, 0, 64, 60
2, 270464, Note_off_c, 0, 72, 100
2, 270464, Note_off_c, 0, 64, 100
2, 270528, Note_on_c, 0, 72, 60
2, 270528, Note_on_c, 0, 65, 60
2, 270656, Note_off_c, 0, 65, 100
2, 270720, Note_on_c, 0, 64, 60
2, 270784, Note_off_c, 0, 72, 100
2, 270848, Note_off_c, 0, 64, 100
2, 270912, Note_on_c, 0, 69, 60
2, 270912, Note_on_c, 0, 65, 60
2, 271040, Note_off_c, 0, 69, 100
2, 271040, Note_off_c, 0, 65, 100
2, 271104, Note_on_c, 0, 70, 60
2, 271104, Note_on_c, 0, 62, 60
2, 271168, Note_off_c, 0, 70, 100
2, 271200, Note_on_c, 0, 77, 60
2, 271232, Note_off_c, 0, 62, 100
2, 271264, Note_off_c, 0, 77, 100
2, 271296, Note_on_c, 0, 76, 60
2, 271296, Note_on_c, 0, 65, 60
2, 271360, Note_off_c, 0, 76, 100
2, 271392, Note_on_c, 0, 77, 60
2, 271424, Note_off_c, 0, 65, 100
2, 271456, Note_off_c, 0, 77, 100
2, 271488, Note_on_c, 0, 79, 60
2, 271488, Note_on_c, 0, 62, 60
2, 271552, Note_off_c, 0, 79, 100
2, 271584, Note_on_c, 0, 77, 60
2, 271616, Note_off_c, 0, 62, 100
2, 271648, Note_off_c, 0, 77, 100
2, 271680, Note_on_c, 0, 75, 60
2, 271680, Note_on_c, 0, 65, 60
2, 271744, Note_off_c, 0, 75, 100
2, 271776, Note_on_c, 0, 74, 60
2, 271808, Note_off_c, 0, 65, 100
2, 271840, Note_off_c, 0, 74, 100
2, 271872, Note_on_c, 0, 74, 60
2, 271872, Note_on_c, 0, 64, 60
2, 272000, Note_off_c, 0, 74, 100
2, 272000, Note_off_c, 0, 64, 100
2, 272064, Note_on_c, 0, 72, 60
2, 272064, Note_on_c, 0, 67, 60
2, 272192, Note_off_c, 0, 72, 100
2, 272192, Note_off_c, 0, 67, 100
2, 272256, Note_on_c, 0, 64, 60
2, 272384, Note_off_c, 0, 64, 100
2, 272448, Note_on_c, 0, 72, 60
2, 272448, Note_on_c, 0, 67, 60
2, 272576, Note_off_c, 0, 72, 100
2, 272576, Note_off_c, 0, 67, 100
2, 272640, Note_on_c, 0, 72, 60
2, 272640, Note_on_c, 0, 64, 60
2, 272768, Note_off_c, 0, 72, 100
2, 272768, Note_off_c, 0, 64, 100
2, 272832, Note_on_c, 0, 70, 60
2, 272832, Note_on_c, 0, 67, 60
2, 272960, Note_off_c, 0, 70, 100
2, 272960, Note_off_c, 0, 67, 100
2, 273024, Note_on_c, 0, 64, 60
2, 273152, Note_off_c, 0, 64, 100
2, 273216, Note_on_c, 0, 70, 60
2, 273216, Note_on_c, 0, 67, 60
2, 273344, Note_off_c, 0, 70, 100
2, 273344, Note_off_c, 0, 67, 100
2, 273408, Note_on_c, 0, 69, 60
2, 273472, Note_off_c, 0, 69, 100
2, 273504, Note_on_c, 0, 70, 60
2, 273568, Note_off_c, 0, 70, 100
2, 273600, Note_on_c, 0, 69, 60
2, 273664, Note_off_c, 0, 69, 100
2, 273696, Note_on_c, 0, 65, 60
2, 273760, Note_off_c, 0, 65, 100
2, 273792, Note_on_c, 0, 70, 60
2, 273856, Note_off_c, 0, 70, 100
2, 273888, Note_on_c, 0, 72, 60
2, 273952, Note_off_c, 0, 72, 100
2, 273984, Note_on_c, 0, 70, 60
2, 274048, Note_off_c, 0, 70, 100
2, 274080, Note_on_c, 0, 65, 60
2, 274144, Note_off_c, 0, 65, 100
2, 274176, Note_on_c, 0, 72, 60
2, 274240, Note_off_c, 0, 72, 100
2, 274272, Note_on_c, 0, 74, 60
2, 274336, Note_off_c, 0, 74, 100
2, 274368, Note_on_c, 0, 72, 60
2, 274432, Note_off_c, 0, 72, 100
2, 274464, Note_on_c, 0, 65, 60
2, 274528, Note_off_c, 0, 65, 100
2, 274560, Note_on_c, 0, 74, 60
2, 274624, Note_off_c, 0, 74, 100
2, 274656, Note_on_c, 0, 75, 60
2, 274720, Note_off_c, 0, 75, 100
2, 274752, Note_on_c, 0, 74, 60
2, 274816, Note_off_c, 0, 74, 100
2, 274816, Note_on_c, 0, 65, 60
2, 274880, Note_off_c, 0, 65, 100
2, 274944, Note_on_c, 0, 75, 60
2, 275072, Note_off_c, 0, 75, 100
2, 275136, Note_on_c, 0, 75, 60
2, 275264, Note_off_c, 0, 75, 100
2, 275520, Note_on_c, 0, 72, 60
2, 275648, Note_off_c, 0, 72, 100
2, 275712, Note_on_c, 0, 75, 60
2, 275840, Note_off_c, 0, 75, 100
2, 275904, Note_on_c, 0, 74, 60
2, 276032, Note_off_c, 0, 74, 100
2, 276096, Note_on_c, 0, 72, 60
2, 276224, Note_off_c, 0, 72, 100
2, 276288, Note_on_c, 0, 70, 60
2, 276416, Note_off_c, 0, 70, 100
2, 276480, Note_on_c, 0, 69, 60
2, 276544, Note_off_c, 0, 69, 100
2, 276576, Note_on_c, 0, 65, 60
2, 276640, Note_off_c, 0, 65, 100
2, 276672, Note_on_c, 0, 76, 60
2, 276736, Note_off_c, 0, 76, 100
2, 276768, Note_on_c, 0, 77, 60
2, 276832, Note_off_c, 0, 77, 100
2, 276864, Note_on_c, 0, 70, 60
2, 276928, Note_off_c, 0, 70, 100
2, 276960, Note_on_c, 0, 65, 60
2, 277024, Note_off_c, 0, 65, 100
2, 277056, Note_on_c, 0, 76, 60
2, 277120, Note_off_c, 0, 76, 100
2, 277152, Note_on_c, 0, 77, 60
2, 277216, Note_off_c, 0, 77, 100
2, 277248, Note_on_c, 0, 72, 60
2, 277312, Note_off_c, 0, 72, 100
2, 277344, Note_on_c, 0, 65, 60
2, 277408, Note_off_c, 0, 65, 100
2, 277440, Note_on_c, 0, 76, 60
2, 277504, Note_off_c, 0, 76, 100
2, 277536, Note_on_c, 0, 77, 60
2, 277600, Note_off_c, 0, 77, 100
2, 277632, Note_on_c, 0, 74, 60
2, 277696, Note_off_c, 0, 74, 100
2, 277728, Note_on_c, 0, 65, 60
2, 277792, Note_off_c, 0, 65, 100
2, 277824, Note_on_c, 0, 76, 60
2, 277888, Note_off_c, 0, 76, 100
2, 277920, Note_on_c, 0, 77, 60
2, 277984, Note_off_c, 0, 77, 100
2, 278016, Note_on_c, 0, 75, 60
2, 278144, Note_off_c, 0, 75, 100
2, 278208, Note_on_c, 0, 75, 60
2, 278336, Note_off_c, 0, 75, 100
2, 278592, Note_on_c, 0, 72, 60
2, 278720, Note_off_c, 0, 72, 100
2, 278784, Note_on_c, 0, 75, 60
2, 278912, Note_off_c, 0, 75, 100
2, 278976, Note_on_c, 0, 74, 60
2, 279104, Note_off_c, 0, 74, 100
2, 279168, Note_on_c, 0, 72, 60
2, 279296, Note_off_c, 0, 72, 100
2, 279360, Note_on_c, 0, 70, 60
2, 279488, Note_off_c, 0, 70, 100
2, 279552, Note_on_c, 0, 69, 60
2, 279616, Note_off_c, 0, 69, 100
2, 279648, Note_on_c, 0, 77, 60
2, 279712, Note_off_c, 0, 77, 100
2, 279744, Note_on_c, 0, 72, 60
2, 279808, Note_off_c, 0, 72, 100
2, 279840, Note_on_c, 0, 69, 60
2, 279904, Note_off_c, 0, 69, 100
2, 279936, Note_on_c, 0, 65, 60
2, 280000, Note_off_c, 0, 65, 100
2, 281148, Note_on_c, 0, 62, 90
2, 281164, Note_on_c, 0, 65, 90
2, 281532, Note_off_c, 0, 62, 100
2, 281548, Note_off_c, 0, 65, 100
2, 281664, Note_on_c, 0, 67, 60
2, 281728, Note_off_c, 0, 67, 100
2, 281760, Note_on_c, 0, 65, 60
2, 281824, Note_off_c, 0, 65, 100
2, 281856, Note_on_c, 0, 63, 60
2, 281984, Note_off_c, 0, 63, 100
2, 282048, Note_on_c, 0, 62, 60
2, 282176, Note_off_c, 0, 62, 100
2, 282240, Note_on_c, 0, 60, 60
2, 282368, Note_off_c, 0, 60, 100
2, 282432, Note_on_c, 0, 58, 60
2, 282560, Note_off_c, 0, 58, 100
2, 282624, Note_on_c, 0, 58, 60
2, 282752, Note_off_c, 0, 58, 100
2, 282816, Note_on_c, 0, 67, 60
2, 282944, Note_off_c, 0, 67, 100
2, 283008, Note_on_c, 0, 67, 90
2, 283008, Note_on_c, 0, 58, 90
2, 283392, Note_off_c, 0, 67, 100
2, 283392, Note_off_c, 0, 58, 100
2, 283584, Note_on_c, 0, 65, 60
2, 283712, Note_off_c, 0, 65, 100
2, 283776, Note_on_c, 0, 69, 60
2, 283904, Note_off_c, 0, 69, 100
2, 283968, Note_on_c, 0, 70, 60
2, 284096, Note_off_c, 0, 70, 100
2, 284160, Note_on_c, 0, 70, 60
2, 284288, Note_off_c, 0, 70, 100
2, 284352, Note_on_c, 0, 60, 60
2, 284608, Note_off_c, 0, 60, 100
2, 284736, Note_on_c, 0, 62, 60
2, 284864, Note_off_c, 0, 62, 100
2, 284928, Note_on_c, 0, 70, 60
2, 285056, Note_off_c, 0, 70, 100
2, 285120, Note_on_c, 0, 60, 60
2, 285376, Note_off_c, 0, 60, 100
2, 285504, Note_on_c, 0, 62, 60
2, 285632, Note_off_c, 0, 62, 100
2, 285696, Note_on_c, 0, 65, 60
2, 285952, Note_off_c, 0, 65, 100
2, 286080, Note_on_c, 0, 63, 60
2, 286272, Note_off_c, 0, 63, 100
2, 286272, Note_on_c, 0, 62, 60
2, 286336, Note_off_c, 0, 62, 100
2, 286368, Note_on_c, 0, 63, 60
2, 286432, Note_off_c, 0, 63, 100
2, 286464, Note_on_c, 0, 62, 60
2, 286592, Note_off_c, 0, 62, 100
2, 286656, Note_on_c, 0, 62, 60
2, 286784, Note_off_c, 0, 62, 100
2, 286848, Note_on_c, 0, 63, 60
2, 286976, Note_off_c, 0, 63, 100
2, 287040, Note_on_c, 0, 65, 60
2, 287168, Note_off_c, 0, 65, 100
2, 287232, Note_on_c, 0, 66, 60
2, 287360, Note_off_c, 0, 66, 100
2, 287424, Note_on_c, 0, 67, 60
2, 287680, Note_off_c, 0, 67, 100
2, 287808, Note_on_c, 0, 65, 60
2, 287872, Note_off_c, 0, 65, 100
2, 287904, Note_on_c, 0, 63, 60
2, 287968, Note_off_c, 0, 63, 100
2, 288000, Note_on_c, 0, 62, 60
2, 288128, Note_off_c, 0, 62, 100
2, 288192, Note_on_c, 0, 60, 60
2, 288320, Note_off_c, 0, 60, 100
2, 288384, Note_on_c, 0, 62, 60
2, 288512, Note_off_c, 0, 62, 100
2, 288576, Note_on_c, 0, 63, 60
2, 288704, Note_off_c, 0, 63, 100
2, 288768, Note_on_c, 0, 67, 60
2, 288896, Note_off_c, 0, 67, 100
2, 288960, Note_on_c, 0, 65, 60
2, 289344, Note_off_c, 0, 65, 100
2, 289344, Note_on_c, 0, 63, 60
2, 289408, Note_off_c, 0, 63, 100
2, 289440, Note_on_c, 0, 62, 60
2, 289504, Note_off_c, 0, 62, 100
2, 289536, Note_on_c, 0, 60, 60
2, 289664, Note_off_c, 0, 60, 100
2, 289728, Note_on_c, 0, 58, 60
2, 289856, Note_off_c, 0, 58, 100
2, 289920, Note_on_c, 0, 60, 60
2, 290048, Note_off_c, 0, 60, 100
2, 290112, Note_on_c, 0, 62, 60
2, 290240, Note_off_c, 0, 62, 100
2, 290304, Note_on_c, 0, 65, 60
2, 290432, Note_off_c, 0, 65, 100
2, 290496, Note_on_c, 0, 63, 60
2, 290752, Note_off_c, 0, 63, 100
2, 290848, Note_on_c, 0, 60, 60
2, 290976, Note_off_c, 0, 60, 100
2, 291072, Note_on_c, 0, 63, 60
2, 291200, Note_off_c, 0, 63, 100
2, 291264, Note_on_c, 0, 62, 60
2, 291520, Note_off_c, 0, 62, 100
2, 291648, Note_on_c, 0, 58, 60
2, 291776, Note_off_c, 0, 58, 100
2, 291840, Note_on_c, 0, 57, 60
2, 291904, Note_off_c, 0, 57, 100
2, 291936, Note_on_c, 0, 58, 60
2, 292000, Note_off_c, 0, 58, 100
2, 292032, Note_on_c, 0, 59, 60
2, 292096, Note_off_c, 0, 59, 100
2, 292128, Note_on_c, 0, 60, 60
2, 292192, Note_off_c, 0, 60, 100
2, 292224, Note_on_c, 0, 61, 60
2, 292288, Note_off_c, 0, 61, 100
2, 292320, Note_on_c, 0, 62, 60
2, 292384, Note_off_c, 0, 62, 100
2, 292416, Note_on_c, 0, 63, 60
2, 292480, Note_off_c, 0, 63, 100
2, 292512, Note_on_c, 0, 64, 60
2, 292576, Note_off_c, 0, 64, 100
2, 292608, Note_on_c, 0, 65, 60
2, 292864, Note_off_c, 0, 65, 100
2, 293376, Note_on_c, 0, 65, 90
2, 293388, Note_on_c, 0, 70, 90
2, 293404, Note_on_c, 0, 74, 90
2, 293420, Note_on_c, 0, 77, 90
2, 293760, Note_off_c, 0, 65, 100
2, 293772, Note_off_c, 0, 70, 100
2, 293788, Note_off_c, 0, 74, 100
2, 293804, Note_off_c, 0, 77, 100
2, 293952, Note_on_c, 0, 79, 60
2, 294016, Note_off_c, 0, 79, 100
2, 294048, Note_on_c, 0, 77, 60
2, 294112, Note_off_c, 0, 77, 100
2, 294144, Note_on_c, 0, 75, 60
2, 294272, Note_off_c, 0, 75, 100
2, 294336, Note_on_c, 0, 74, 60
2, 294464, Note_off_c, 0, 74, 100
2, 294528, Note_on_c, 0, 72, 60
2, 294656, Note_off_c, 0, 72, 100
2, 294720, Note_on_c, 0, 70, 60
2, 294848, Note_off_c, 0, 70, 100
2, 294912, Note_on_c, 0, 70, 60
2, 295040, Note_off_c, 0, 70, 100
2, 295104, Note_on_c, 0, 79, 60
2, 295232, Note_off_c, 0, 79, 100
2, 295296, Note_on_c, 0, 79, 90
2, 295296, Note_on_c, 0, 70, 90
2, 295680, Note_off_c, 0, 79, 100
2, 295680, Note_off_c, 0, 70, 100
2, 295872, Note_on_c, 0, 77, 60
2, 296000, Note_off_c, 0, 77, 100
2, 296064, Note_on_c, 0, 81, 60
2, 296192, Note_off_c, 0, 81, 100
2, 296256, Note_on_c, 0, 82, 60
2, 296384, Note_off_c, 0, 82, 100
2, 296448, Note_on_c, 0, 82, 60
2, 296448, Note_on_c, 0, 64, 60
2, 296448, Note_on_c, 0, 67, 60
2, 296576, Note_off_c, 0, 82, 100
2, 296640, Note_on_c, 0, 72, 60
2, 296704, Note_off_c, 0, 64, 100
2, 296704, Note_off_c, 0, 67, 100
2, 296768, Note_off_c, 0, 72, 100
2, 296832, Note_on_c, 0, 74, 60
2, 296832, Note_on_c, 0, 65, 60
2, 296960, Note_off_c, 0, 74, 100
2, 297024, Note_on_c, 0, 82, 60
2, 297088, Note_off_c, 0, 65, 100
2, 297152, Note_off_c, 0, 82, 100
2, 297216, Note_on_c, 0, 82, 60
2, 297216, Note_on_c, 0, 64, 60
2, 297216, Note_on_c, 0, 67, 60
2, 297344, Note_off_c, 0, 82, 100
2, 297408, Note_on_c, 0, 72, 60
2, 297472, Note_off_c, 0, 64, 100
2, 297472, Note_off_c, 0, 67, 100
2, 297536, Note_off_c, 0, 72, 100
2, 297600, Note_on_c, 0, 74, 60
2, 297600, Note_on_c, 0, 65, 60
2, 297728, Note_off_c, 0, 74, 100
2, 297792, Note_on_c, 0, 82, 60
2, 297856, Note_off_c, 0, 65, 100
2, 297920, Note_off_c, 0, 82, 100
2, 297984, Note_on_c, 0, 77, 60
2, 297984, Note_on_c, 0, 70, 60
2, 297984, Note_on_c, 0, 67, 60
2, 298240, Note_off_c, 0, 77, 100
2, 298240, Note_off_c, 0, 70, 100
2, 298240, Note_off_c, 0, 67, 100
2, 298368, Note_on_c, 0, 75, 60
2, 298368, Note_on_c, 0, 72, 60
2, 298368, Note_on_c, 0, 69, 60
2, 298496, Note_off_c, 0, 75, 100
2, 298560, Note_on_c, 0, 75, 60
2, 298624, Note_off_c, 0, 72, 100
2, 298624, Note_off_c, 0, 69, 100
2, 298688, Note_off_c, 0, 75, 100
2, 298752, Note_on_c, 0, 74, 60
2, 298752, Note_on_c, 0, 70, 60
2, 298880, Note_off_c, 0, 74, 100
2, 298944, Note_on_c, 0, 74, 60
2, 299008, Note_off_c, 0, 70, 100
2, 299072, Note_off_c, 0, 74, 100
2, 299136, Note_on_c, 0, 75, 60
2, 299264, Note_off_c, 0, 75, 100
2, 299328, Note_on_c, 0, 77, 60
2, 299456, Note_off_c, 0, 77, 100
2, 299520, Note_on_c, 0, 78, 90
2, 299648, Note_off_c, 0, 78, 100
2, 299712, Note_on_c, 0, 79, 90
2, 300096, Note_off_c, 0, 79, 100
2, 300096, Note_on_c, 0, 81, 90
2, 300160, Note_off_c, 0, 81, 100
2, 300192, Note_on_c, 0, 83, 90
2, 300256, Note_off_c, 0, 83, 100
2, 300288, Note_on_c, 0, 84, 90
2, 300352, Note_off_c, 0, 84, 100
2, 300384, Note_on_c, 0, 86, 90
2, 300448, Note_off_c, 0, 86, 100
2, 300480, Note_on_c, 0, 87, 90
2, 300544, Note_off_c, 0, 87, 100
2, 300576, Note_on_c, 0, 86, 90
2, 300640, Note_off_c, 0, 86, 100
2, 300672, Note_on_c, 0, 84, 90
2, 300736, Note_off_c, 0, 84, 100
2, 300768, Note_on_c, 0, 86, 90
2, 300832, Note_off_c, 0, 86, 100
2, 300864, Note_on_c, 0, 82, 90
2, 300928, Note_off_c, 0, 82, 100
2, 300960, Note_on_c, 0, 84, 90
2, 301024, Note_off_c, 0, 84, 100
2, 301056, Note_on_c, 0, 81, 90
2, 301120, Note_off_c, 0, 81, 100
2, 301152, Note_on_c, 0, 82, 90
2, 301216, Note_off_c, 0, 82, 100
2, 301248, Note_on_c, 0, 79, 90
2, 301312, Note_off_c, 0, 79, 100
2, 301344, Note_on_c, 0, 81, 90
2, 301408, Note_off_c, 0, 81, 100
2, 301440, Note_on_c, 0, 77, 90
2, 301504, Note_off_c, 0, 77, 100
2, 301536, Note_on_c, 0, 79, 90
2, 301600, Note_off_c, 0, 79, 100
2, 301632, Note_on_c, 0, 75, 90
2, 301696, Note_off_c, 0, 75, 100
2, 301728, Note_on_c, 0, 77, 90
2, 301792, Note_off_c, 0, 77, 100
2, 301824, Note_on_c, 0, 74, 90
2, 301888, Note_off_c, 0, 74, 100
2, 301920, Note_on_c, 0, 75, 90
2, 301984, Note_off_c, 0, 75, 100
2, 302016, Note_on_c, 0, 77, 90
2, 302080, Note_off_c, 0, 77, 100
2, 302112, Note_on_c, 0, 79, 90
2, 302176, Note_off_c, 0, 79, 100
2, 302208, Note_on_c, 0, 81, 90
2, 302272, Note_off_c, 0, 81, 100
2, 302304, Note_on_c, 0, 82, 90
2, 302368, Note_off_c, 0, 82, 100
2, 302400, Note_on_c, 0, 81, 90
2, 302464, Note_off_c, 0, 81, 100
2, 302496, Note_on_c, 0, 82, 90
2, 302560, Note_off_c, 0, 82, 100
2, 302592, Note_on_c, 0, 84, 90
2, 302656, Note_off_c, 0, 84, 100
2, 302688, Note_on_c, 0, 82, 90
2, 302752, Note_off_c, 0, 82, 100
2, 302784, Note_on_c, 0, 81, 90
2, 302848, Note_off_c, 0, 81, 100
2, 302880, Note_on_c, 0, 79, 90
2, 302944, Note_off_c, 0, 79, 100
2, 302976, Note_on_c, 0, 81, 90
2, 303040, Note_off_c, 0, 81, 100
2, 303072, Note_on_c, 0, 79, 90
2, 303136, Note_off_c, 0, 79, 100
2, 303168, Note_on_c, 0, 77, 90
2, 303232, Note_off_c, 0, 77, 100
2, 303264, Note_on_c, 0, 75, 90
2, 303328, Note_off_c, 0, 75, 100
2, 303360, Note_on_c, 0, 74, 90
2, 303616, Note_off_c, 0, 74, 100
2, 303744, Note_on_c, 0, 72, 90
2, 303744, Note_on_c, 0, 69, 90
2, 303920, Note_off_c, 0, 72, 100
2, 303936, Note_on_c, 0, 70, 90
2, 303976, Note_off_c, 0, 70, 100
2, 304000, Note_off_c, 0, 69, 100
2, 304032, Note_on_c, 0, 72, 90
2, 304072, Note_off_c, 0, 72, 100
2, 304128, Note_on_c, 0, 70, 90
2, 304128, Note_on_c, 0, 58, 90
2, 304192, Note_off_c, 0, 58, 100
2, 304224, Note_on_c, 0, 65, 90
2, 304288, Note_off_c, 0, 65, 100
2, 304320, Note_on_c, 0, 64, 90
2, 304384, Note_off_c, 0, 70, 100
2, 304384, Note_off_c, 0, 64, 100
2, 304416, Note_on_c, 0, 65, 90
2, 304480, Note_off_c, 0, 65, 100
2, 304512, Note_on_c, 0, 67, 90
2, 304576, Note_off_c, 0, 67, 100
2, 304608, Note_on_c, 0, 65, 90
2, 304672, Note_off_c, 0, 65, 100
2, 304704, Note_on_c, 0, 64, 90
2, 304768, Note_off_c, 0, 64, 100
2, 304800, Note_on_c, 0, 65, 90
2, 304864, Note_off_c, 0, 65, 100
2, 304896, Note_on_c, 0, 64, 90
2, 304960, Note_off_c, 0, 64, 100
2, 304992, Note_on_c, 0, 65, 90
2, 305056, Note_off_c, 0, 65, 100
2, 305088, Note_on_c, 0, 62, 90
2, 305152, Note_off_c, 0, 62, 100
2, 305184, Note_on_c, 0, 65, 90
2, 305248, Note_off_c, 0, 65, 100
2, 305280, Note_on_c, 0, 60, 90
2, 305344, Note_off_c, 0, 60, 100
2, 305376, Note_on_c, 0, 65, 90
2, 305440, Note_off_c, 0, 65, 100
2, 305472, Note_on_c, 0, 60, 90
2, 305536, Note_off_c, 0, 60, 100
2, 305568, Note_on_c, 0, 65, 90
2, 305632, Note_off_c, 0, 65, 100
2, 305664, Note_on_c, 0, 75, 90
2, 305664, Note_on_c, 0, 57, 90
2, 305728, Note_off_c, 0, 57, 100
2, 305760, Note_on_c, 0, 65, 90
2, 305792, Note_off_c, 0, 75, 100
2, 305824, Note_off_c, 0, 65, 100
2, 305856, Note_on_c, 0, 72, 90
2, 305856, Note_on_c, 0, 60, 90
2, 305920, Note_off_c, 0, 60, 100
2, 305952, Note_on_c, 0, 65, 90
2, 305984, Note_off_c, 0, 72, 100
2, 306016, Note_off_c, 0, 65, 100
2, 306048, Note_on_c, 0, 69, 90
2, 306048, Note_on_c, 0, 64, 90
2, 306112, Note_off_c, 0, 64, 100
2, 306144, Note_on_c, 0, 65, 90
2, 306176, Note_off_c, 0, 69, 100
2, 306208, Note_off_c, 0, 65, 100
2, 306240, Note_on_c, 0, 69, 90
2, 306240, Note_on_c, 0, 64, 90
2, 306304, Note_off_c, 0, 64, 100
2, 306336, Note_on_c, 0, 65, 90
2, 306368, Note_off_c, 0, 69, 100
2, 306400, Note_off_c, 0, 65, 100
2, 306432, Note_on_c, 0, 75, 90
2, 306432, Note_on_c, 0, 57, 90
2, 306496, Note_off_c, 0, 57, 100
2, 306528, Note_on_c, 0, 65, 90
2, 306560, Note_off_c, 0, 75, 100
2, 306592, Note_off_c, 0, 65, 100
2, 306624, Note_on_c, 0, 72, 90
2, 306624, Note_on_c, 0, 60, 90
2, 306688, Note_off_c, 0, 60, 100
2, 306720, Note_on_c, 0, 65, 90
2, 306752, Note_off_c, 0, 72, 100
2, 306784, Note_off_c, 0, 65, 100
2, 306816, Note_on_c, 0, 69, 90
2, 306816, Note_on_c, 0, 64, 90
2, 306880, Note_off_c, 0, 64, 100
2, 306912, Note_on_c, 0, 65, 90
2, 306944, Note_off_c, 0, 69, 100
2, 306976, Note_off_c, 0, 65, 100
2, 307008, Note_on_c, 0, 69, 90
2, 307008, Note_on_c, 0, 64, 90
2, 307072, Note_off_c, 0, 64, 100
2, 307104, Note_on_c, 0, 65, 90
2, 307136, Note_off_c, 0, 69, 100
2, 307168, Note_off_c, 0, 65, 100
2, 307200, Note_on_c, 0, 70, 90
2, 307200, Note_on_c, 0, 62, 90
2, 307264, Note_off_c, 0, 62, 100
2, 307296, Note_on_c, 0, 65, 90
2, 307328, Note_off_c, 0, 70, 100
2, 307360, Note_off_c, 0, 65, 100
2, 307392, Note_on_c, 0, 72, 90
2, 307392, Note_on_c, 0, 57, 90
2, 307456, Note_off_c, 0, 57, 100
2, 307488, Note_on_c, 0, 65, 90
2, 307520, Note_off_c, 0, 72, 100
2, 307552, Note_off_c, 0, 65, 100
2, 307584, Note_on_c, 0, 74, 90
2, 307584, Note_on_c, 0, 59, 90
2, 307648, Note_off_c, 0, 59, 100
2, 307680, Note_on_c, 0, 65, 90
2, 307712, Note_off_c, 0, 74, 100
2, 307744, Note_off_c, 0, 65, 100
2, 307776, Note_on_c, 0, 75, 90
2, 307776, Note_on_c, 0, 60, 90
2, 307840, Note_off_c, 0, 60, 100
2, 307872, Note_on_c, 0, 65, 90
2, 307904, Note_off_c, 0, 75, 100
2, 307936, Note_off_c, 0, 65, 100
2, 307968, Note_on_c, 0, 76, 90
2, 307968, Note_on_c, 0, 61, 90
2, 308032, Note_off_c, 0, 61, 100
2, 308064, Note_on_c, 0, 65, 90
2, 308096, Note_off_c, 0, 76, 100
2, 308128, Note_off_c, 0, 65, 100
2, 308160, Note_on_c, 0, 77, 90
2, 308160, Note_on_c, 0, 62, 90
2, 308224, Note_off_c, 0, 62, 100
2, 308256, Note_on_c, 0, 65, 90
2, 308288, Note_off_c, 0, 77, 100
2, 308320, Note_off_c, 0, 65, 100
2, 308352, Note_on_c, 0, 76, 90
2, 308352, Note_on_c, 0, 61, 90
2, 308416, Note_off_c, 0, 61, 100
2, 308448, Note_on_c, 0, 65, 90
2, 308480, Note_off_c, 0, 76, 100
2, 308512, Note_off_c, 0, 65, 100
2, 308544, Note_on_c, 0, 77, 90
2, 308544, Note_on_c, 0, 62, 90
2, 308608, Note_off_c, 0, 62, 100
2, 308640, Note_on_c, 0, 65, 90
2, 308672, Note_off_c, 0, 77, 100
2, 308704, Note_off_c, 0, 65, 100
2, 308736, Note_on_c, 0, 87, 90
2, 308736, Note_on_c, 0, 75, 90
2, 308736, Note_on_c, 0, 57, 90
2, 308800, Note_off_c, 0, 57, 100
2, 308832, Note_on_c, 0, 65, 90
2, 308864, Note_off_c, 0, 87, 100
2, 308864, Note_off_c, 0, 75, 100
2, 308896, Note_off_c, 0, 65, 100
2, 308928, Note_on_c, 0, 72, 90
2, 308928, Note_on_c, 0, 84, 90
2, 308928, Note_on_c, 0, 60, 90
2, 308992, Note_off_c, 0, 60, 100
2, 309024, Note_on_c, 0, 65, 90
2, 309056, Note_off_c, 0, 72, 100
2, 309056, Note_off_c, 0, 84, 100
2, 309088, Note_off_c, 0, 65, 100
2, 309120, Note_on_c, 0, 81, 90
2, 309120, Note_on_c, 0, 69, 90
2, 309120, Note_on_c, 0, 64, 90
2, 309184, Note_off_c, 0, 64, 100
2, 309216, Note_on_c, 0, 65, 90
2, 309248, Note_off_c, 0, 81, 100
2, 309248, Note_off_c, 0, 69, 100
2, 309280, Note_off_c, 0, 65, 100
2, 309312, Note_on_c, 0, 81, 90
2, 309312, Note_on_c, 0, 69, 90
2, 309312, Note_on_c, 0, 64, 90
2, 309376, Note_off_c, 0, 64, 100
2, 309408, Note_on_c, 0, 65, 90
2, 309440, Note_off_c, 0, 81, 100
2, 309440, Note_off_c, 0, 69, 100
2, 309472, Note_off_c, 0, 65, 100
2, 309504, Note_on_c, 0, 87, 90
2, 309504, Note_on_c, 0, 75, 90
2, 309504, Note_on_c, 0, 57, 90
2, 309568, Note_off_c, 0, 57, 100
2, 309600, Note_on_c, 0, 65, 90
2, 309632, Note_off_c, 0, 87, 100
2, 309632, Note_off_c, 0, 75, 100
2, 309664, Note_off_c, 0, 65, 100
2, 309696, Note_on_c, 0, 84, 90
2, 309696, Note_on_c, 0, 72, 90
2, 309696, Note_on_c, 0, 60, 90
2, 309760, Note_off_c, 0, 60, 100
2, 309792, Note_on_c, 0, 65, 90
2, 309824, Note_off_c, 0, 84, 100
2, 309824, Note_off_c, 0, 72, 100
2, 309856, Note_off_c, 0, 65, 100
2, 309888, Note_on_c, 0, 81, 90
2, 309888, Note_on_c, 0, 69, 90
2, 309888, Note_on_c, 0, 64, 90
2, 309952, Note_off_c, 0, 64, 100
2, 309984, Note_on_c, 0, 65, 90
2, 310016, Note_off_c, 0, 81, 100
2, 310016, Note_off_c, 0, 69, 100
2, 310048, Note_off_c, 0, 65, 100
2, 310080, Note_on_c, 0, 81, 90
2, 310080, Note_on_c, 0, 69, 90
2, 310080, Note_on_c, 0, 64, 90
2, 310144, Note_off_c, 0, 64, 100
2, 310176, Note_on_c, 0, 65, 90
2, 310208, Note_off_c, 0, 81, 100
2, 310208, Note_off_c, 0, 69, 100
2, 310240, Note_off_c, 0, 65, 100
2, 310272, Note_on_c, 0, 82, 90
2, 310272, Note_on_c, 0, 70, 90
2, 310272, Note_on_c, 0, 62, 90
2, 310336, Note_off_c, 0, 62, 100
2, 310368, Note_on_c, 0, 65, 90
2, 310400, Note_off_c, 0, 82, 100
2, 310400, Note_off_c, 0, 70, 100
2, 310432, Note_off_c, 0, 65, 100
2, 310464, Note_on_c, 0, 84, 90
2, 310464, Note_on_c, 0, 72, 90
2, 310464, Note_on_c, 0, 57, 90
2, 310528, Note_off_c, 0, 57, 100
2, 310560, Note_on_c, 0, 65, 90
2, 310592, Note_off_c, 0, 84, 100
2, 310592, Note_off_c, 0, 72, 100
2, 310624, Note_off_c, 0, 65, 100
2, 310656, Note_on_c, 0, 86, 90
2, 310656, Note_on_c, 0, 74, 90
2, 310656, Note_on_c, 0, 59, 90
2, 310720, Note_off_c, 0, 59, 100
2, 310752, Note_on_c, 0, 65, 90
2, 310784, Note_off_c, 0, 86, 100
2, 310784, Note_off_c, 0, 74, 100
2, 310816, Note_off_c, 0, 65, 100
2, 310816, Note_on_c, 0, 60, 90
2, 310848, Note_on_c, 0, 87, 90
2, 310848, Note_on_c, 0, 75, 90
2, 310880, Note_off_c, 0, 60, 100
2, 310944, Note_on_c, 0, 65, 90
2, 310976, Note_off_c, 0, 87, 100
2, 310976, Note_off_c, 0, 75, 100
2, 311008, Note_off_c, 0, 65, 100
2, 311040, Note_on_c, 0, 88, 90
2, 311040, Note_on_c, 0, 76, 90
2, 311040, Note_on_c, 0, 61, 90
2, 311104, Note_off_c, 0, 61, 100
2, 311136, Note_on_c, 0, 65, 90
2, 311168, Note_off_c, 0, 88, 100
2, 311168, Note_off_c, 0, 76, 100
2, 311200, Note_off_c, 0, 65, 100
2, 311232, Note_on_c, 0, 89, 90
2, 311232, Note_on_c, 0, 77, 90
2, 311232, Note_on_c, 0, 62, 90
2, 311296, Note_off_c, 0, 62, 100
2, 311328, Note_on_c, 0, 65, 90
2, 311360, Note_off_c, 0, 89, 100
2, 311360, Note_off_c, 0, 77, 100
2, 311392, Note_off_c, 0, 65, 100
2, 311424, Note_on_c, 0, 88, 90
2, 311424, Note_on_c, 0, 76, 90
2, 311424, Note_on_c, 0, 61, 90
2, 311488, Note_off_c, 0, 61, 100
2, 311520, Note_on_c, 0, 65, 90
2, 311552, Note_off_c, 0, 88, 100
2, 311552, Note_off_c, 0, 76, 100
2, 311584, Note_off_c, 0, 65, 100
2, 311616, Note_on_c, 0, 89, 90
2, 311616, Note_on_c, 0, 77, 90
2, 311616, Note_on_c, 0, 62, 90
2, 311680, Note_off_c, 0, 62, 100
2, 311712, Note_on_c, 0, 65, 90
2, 311744, Note_off_c, 0, 89, 100
2, 311744, Note_off_c, 0, 77, 100
2, 311776, Note_off_c, 0, 65, 100
2, 311808, Note_on_c, 0, 79, 67
2, 311808, Note_on_c, 0, 67, 67
2, 312320, Note_off_c, 0, 79, 100
2, 312320, Note_off_c, 0, 67, 100
2, 312576, Note_on_c, 0, 69, 60
2, 312576, Note_on_c, 0, 57, 60
2, 313088, Note_off_c, 0, 69, 100
2, 313088, Note_off_c, 0, 57, 100
2, 313344, Note_on_c, 0, 87, 60
2, 313344, Note_on_c, 0, 75, 60
2, 313856, Note_off_c, 0, 87, 100
2, 313856, Note_off_c, 0, 75, 100
2, 314112, Note_on_c, 0, 86, 60
2, 314112, Note_on_c, 0, 74, 60
2, 314624, Note_off_c, 0, 86, 100
2, 314624, Note_off_c, 0, 74, 100
2, 314880, Note_on_c, 0, 86, 90
2, 314944, Note_off_c, 0, 86, 100
2, 314976, Note_on_c, 0, 84, 90
2, 315040, Note_off_c, 0, 84, 100
2, 315072, Note_on_c, 0, 87, 90
2, 315136, Note_off_c, 0, 87, 100
2, 315168, Note_on_c, 0, 86, 90
2, 315232, Note_off_c, 0, 86, 100
2, 315264, Note_on_c, 0, 89, 90
2, 315264, Note_on_c, 0, 72, 90
2, 315264, Note_on_c, 0, 64, 90
2, 315328, Note_off_c, 0, 89, 100
2, 315360, Note_on_c, 0, 87, 90
2, 315424, Note_off_c, 0, 87, 100
2, 315456, Note_on_c, 0, 86, 90
2, 315520, Note_off_c, 0, 72, 100
2, 315520, Note_off_c, 0, 64, 100
2, 315520, Note_off_c, 0, 86, 100
2, 315552, Note_on_c, 0, 84, 90
2, 315616, Note_off_c, 0, 84, 100
2, 315648, Note_on_c, 0, 82, 90
2, 315648, Note_on_c, 0, 74, 90
2, 315648, Note_on_c, 0, 65, 90
2, 315904, Note_off_c, 0, 82, 100
2, 315904, Note_off_c, 0, 74, 100
2, 316032, Note_on_c, 0, 81, 90
2, 316032, Note_on_c, 0, 75, 90
2, 316160, Note_off_c, 0, 65, 100
2, 316288, Note_off_c, 0, 81, 100
2, 316288, Note_off_c, 0, 75, 100
2, 316416, Note_on_c, 0, 74, 60
2, 316416, Note_on_c, 0, 71, 60
2, 316608, Note_on_c, 0, 82, 60
2, 316736, Note_off_c, 0, 82, 100
2, 316800, Note_on_c, 0, 81, 60
2, 316928, Note_off_c, 0, 74, 100
2, 316928, Note_off_c, 0, 71, 100
2, 316928, Note_off_c, 0, 81, 100
2, 316992, Note_on_c, 0, 82, 60
2, 317120, Note_off_c, 0, 82, 100
2, 317184, Note_on_c, 0, 74, 60
2, 317184, Note_on_c, 0, 71, 60
2, 317376, Note_on_c, 0, 80, 60
2, 317504, Note_off_c, 0, 80, 100
2, 317568, Note_on_c, 0, 79, 60
2, 317696, Note_off_c, 0, 74, 100
2, 317696, Note_off_c, 0, 71, 100
2, 317696, Note_off_c, 0, 79, 100
2, 317760, Note_on_c, 0, 80, 60
2, 317888, Note_off_c, 0, 80, 100
2, 317952, Note_on_c, 0, 77, 60
2, 317952, Note_on_c, 0, 74, 60
2, 317952, Note_on_c, 0, 71, 60
2, 318144, Note_on_c, 0, 79, 60
2, 318272, Note_off_c, 0, 79, 100
2, 318336, Note_on_c, 0, 78, 60
2, 318464, Note_off_c, 0, 77, 100
2, 318464, Note_off_c, 0, 74, 100
2, 318464, Note_off_c, 0, 71, 100
2, 318464, Note_off_c, 0, 78, 100
2, 318528, Note_on_c, 0, 79, 60
2, 318656, Note_off_c, 0, 79, 100
2, 318720, Note_on_c, 0, 76, 60
2, 318720, Note_on_c, 0, 72, 60
2, 318912, Note_on_c, 0, 79, 60
2, 319040, Note_off_c, 0, 79, 100
2, 319104, Note_on_c, 0, 87, 60
2, 319232, Note_off_c, 0, 76, 100
2, 319232, Note_off_c, 0, 72, 100
2, 319232, Note_off_c, 0, 87, 100
2, 319296, Note_on_c, 0, 87, 60
2, 319424, Note_off_c, 0, 87, 100
2, 319488, Note_on_c, 0, 76, 60
2, 319488, Note_on_c, 0, 72, 60
2, 319488, Note_on_c, 0, 69, 60
2, 319680, Note_on_c, 0, 87, 60
2, 319808, Note_off_c, 0, 87, 100
2, 319872, Note_on_c, 0, 77, 60
2, 320000, Note_off_c, 0, 76, 100
2, 320000, Note_off_c, 0, 72, 100
2, 320000, Note_off_c, 0, 69, 100
2, 320000, Note_off_c, 0, 77, 100
2, 320064, Note_on_c, 0, 77, 60
2, 320192, Note_off_c, 0, 77, 100
2, 320256, Note_on_c, 0, 74, 60
2, 320256, Note_on_c, 0, 70, 60
2, 320448, Note_on_c, 0, 77, 60
2, 320576, Note_off_c, 0, 77, 100
2, 320640, Note_on_c, 0, 86, 60
2, 320768, Note_off_c, 0, 74, 100
2, 320768, Note_off_c, 0, 70, 100
2, 320768, Note_off_c, 0, 86, 100
2, 320832, Note_on_c, 0, 86, 60
2, 320960, Note_off_c, 0, 86, 100
2, 321024, Note_on_c, 0, 74, 60
2, 321024, Note_on_c, 0, 71, 60
2, 321024, Note_on_c, 0, 67, 60
2, 321216, Note_on_c, 0, 86, 60
2, 321344, Note_off_c, 0, 86, 100
2, 321408, Note_on_c, 0, 75, 60
2, 321536, Note_off_c, 0, 74, 100
2, 321536, Note_off_c, 0, 71, 100
2, 321536, Note_off_c, 0, 67, 100
2, 321536, Note_off_c, 0, 75, 100
2, 321600, Note_on_c, 0, 75, 60
2, 321728, Note_off_c, 0, 75, 100
2, 321792, Note_on_c, 0, 72, 60
2, 321792, Note_on_c, 0, 69, 60
2, 321984, Note_on_c, 0, 75, 60
2, 322112, Note_off_c, 0, 75, 100
2, 322176, Note_on_c, 0, 84, 60
2, 322304, Note_off_c, 0, 72, 100
2, 322304, Note_off_c, 0, 69, 100
2, 322304, Note_off_c, 0, 84, 100
2, 322368, Note_on_c, 0, 84, 60
2, 322496, Note_off_c, 0, 84, 100
2, 322560, Note_on_c, 0, 72, 60
2, 322560, Note_on_c, 0, 69, 60
2, 322560, Note_on_c, 0, 66, 60
2, 322752, Note_on_c, 0, 84, 60
2, 322880, Note_off_c, 0, 84, 100
2, 322944, Note_on_c, 0, 74, 60
2, 323072, Note_off_c, 0, 72, 100
2, 323072, Note_off_c, 0, 69, 100
2, 323072, Note_off_c, 0, 66, 100
2, 323072, Note_off_c, 0, 74, 100
2, 323136, Note_on_c, 0, 74, 60
2, 323264, Note_off_c, 0, 74, 100
2, 323328, Note_on_c, 0, 67, 60
2, 323328, Note_on_c, 0, 71, 60
2, 323520, Note_on_c, 0, 74, 60
2, 323648, Note_off_c, 0, 74, 100
2, 323712, Note_on_c, 0, 82, 60
2, 323840, Note_off_c, 0, 67, 100
2, 323840, Note_off_c, 0, 71, 100
2, 323840, Note_off_c, 0, 82, 100
2, 323904, Note_on_c, 0, 82, 60
2, 324032, Note_off_c, 0, 82, 100
2, 324096, Note_on_c, 0, 82, 60
2, 324224, Note_off_c, 0, 82, 100
2, 324288, Note_on_c, 0, 72, 60
2, 324288, Note_on_c, 0, 64, 60
2, 324288, Note_on_c, 0, 70, 60
2, 324416, Note_off_c, 0, 72, 100
2, 324416, Note_off_c, 0, 64, 100
2, 324416, Note_off_c, 0, 70, 100
2, 324480, Note_on_c, 0, 64, 60
2, 324480, Note_on_c, 0, 70, 60
2, 324608, Note_off_c, 0, 64, 100
2, 324608, Note_off_c, 0, 70, 100
2, 324672, Note_on_c, 0, 64, 60
2, 324672, Note_on_c, 0, 70, 60
2, 324800, Note_off_c, 0, 64, 100
2, 324800, Note_off_c, 0, 70, 100
2, 324864, Note_on_c, 0, 82, 60
2, 324992, Note_off_c, 0, 82, 100
2, 325056, Note_on_c, 0, 74, 60
2, 325056, Note_on_c, 0, 65, 60
2, 325056, Note_on_c, 0, 70, 60
2, 325184, Note_off_c, 0, 74, 100
2, 325184, Note_off_c, 0, 65, 100
2, 325184, Note_off_c, 0, 70, 100
2, 325248, Note_on_c, 0, 65, 60
2, 325248, Note_on_c, 0, 70, 60
2, 325376, Note_off_c, 0, 65, 100
2, 325376, Note_off_c, 0, 70, 100
2, 325440, Note_on_c, 0, 65, 60
2, 325440, Note_on_c, 0, 70, 60
2, 325568, Note_off_c, 0, 65, 100
2, 325568, Note_off_c, 0, 70, 100
2, 325632, Note_on_c, 0, 82, 60
2, 325760, Note_off_c, 0, 82, 100
2, 325824, Note_on_c, 0, 75, 60
2, 325824, Note_on_c, 0, 70, 60
2, 325824, Note_on_c, 0, 67, 60
2, 325952, Note_off_c, 0, 75, 100
2, 325952, Note_off_c, 0, 70, 100
2, 325952, Note_off_c, 0, 67, 100
2, 326016, Note_on_c, 0, 70, 60
2, 326016, Note_on_c, 0, 67, 60
2, 326144, Note_off_c, 0, 70, 100
2, 326144, Note_off_c, 0, 67, 100
2, 326208, Note_on_c, 0, 70, 60
2, 326208, Note_on_c, 0, 67, 60
2, 326336, Note_off_c, 0, 70, 100
2, 326336, Note_off_c, 0, 67, 100
2, 326400, Note_on_c, 0, 82, 60
2, 326528, Note_off_c, 0, 82, 100
2, 326592, Note_on_c, 0, 76, 60
2, 326592, Note_on_c, 0, 70, 60
2, 326592, Note_on_c, 0, 66, 60
2, 326720, Note_off_c, 0, 76, 100
2, 326720, Note_off_c, 0, 70, 100
2, 326720, Note_off_c, 0, 66, 100
2, 326784, Note_on_c, 0, 70, 60
2, 326784, Note_on_c, 0, 66, 60
2, 326912, Note_off_c, 0, 70, 100
2, 326912, Note_off_c, 0, 66, 100
2, 326976, Note_on_c, 0, 70, 60
2, 326976, Note_on_c, 0, 66, 60
2, 327104, Note_off_c, 0, 70, 100
2, 327104, Note_off_c, 0, 66, 100
2, 327168, Note_on_c, 0, 82, 90
2, 327168, Note_on_c, 0, 70, 90
2, 327168, Note_on_c, 0, 66, 90
2, 327296, Note_off_c, 0, 82, 100
2, 327360, Note_on_c, 0, 77, 90
2, 327424, Note_off_c, 0, 70, 100
2, 327424, Note_off_c, 0, 66, 100
2, 327488, Note_off_c, 0, 77, 100
2, 327552, Note_on_c, 0, 82, 90
2, 327552, Note_on_c, 0, 62, 90
2, 327552, Note_on_c, 0, 70, 90
2, 327680, Note_off_c, 0, 82, 100
2, 327744, Note_on_c, 0, 78, 90
2, 327808, Note_off_c, 0, 62, 100
2, 327808, Note_off_c, 0, 70, 100
2, 327872, Note_off_c, 0, 78, 100
2, 327936, Note_on_c, 0, 82, 90
2, 327936, Note_on_c, 0, 70, 90
2, 327936, Note_on_c, 0, 63, 90
2, 328064, Note_off_c, 0, 82, 100
2, 328128, Note_on_c, 0, 79, 90
2, 328192, Note_off_c, 0, 70, 100
2, 328192, Note_off_c, 0, 63, 100
2, 328256, Note_off_c, 0, 79, 100
2, 328320, Note_on_c, 0, 87, 90
2, 328320, Note_on_c, 0, 65, 90
2, 328320, Note_on_c, 0, 60, 90
2, 328448, Note_off_c, 0, 87, 100
2, 328512, Note_on_c, 0, 81, 90
2, 328576, Note_off_c, 0, 65, 100
2, 328576, Note_off_c, 0, 60, 100
2, 328640, Note_off_c, 0, 81, 100
2, 328704, Note_on_c, 0, 86, 90
2, 328704, Note_on_c, 0, 58, 90
2, 328704, Note_on_c, 0, 65, 90
2, 328832, Note_off_c, 0, 86, 100
2, 328896, Note_on_c, 0, 89, 90
2, 328960, Note_off_c, 0, 58, 100
2, 328960, Note_off_c, 0, 65, 100
2, 329024, Note_off_c, 0, 89, 100
2, 329088, Note_on_c, 0, 82, 90
2, 329216, Note_off_c, 0, 82, 100
2, 329280, Note_on_c, 0, 86, 90
2, 329408, Note_off_c, 0, 86, 100
2, 329472, Note_on_c, 0, 79, 90
2, 329600, Note_off_c, 0, 79, 100
2, 329664, Note_on_c, 0, 82, 90
2, 329792, Note_off_c, 0, 82, 100
2, 329856, Note_on_c, 0, 72, 90
2, 329984, Note_off_c, 0, 72, 100
2, 330048, Note_on_c, 0, 75, 90
2, 330176, Note_off_c, 0, 75, 100
2, 330240, Note_on_c, 0, 65, 90
2, 330304, Note_off_c, 0, 65, 100
2, 330336, Note_on_c, 0, 77, 90
2, 330400, Note_off_c, 0, 77, 100
2, 330432, Note_on_c, 0, 79, 90
2, 330496, Note_off_c, 0, 79, 100
2, 330528, Note_on_c, 0, 77, 90
2, 330592, Note_off_c, 0, 77, 100
2, 330624, Note_on_c, 0, 75, 90
2, 330688, Note_off_c, 0, 75, 100
2, 330720, Note_on_c, 0, 74, 90
2, 330784, Note_off_c, 0, 74, 100
2, 330816, Note_on_c, 0, 72, 90
2, 330880, Note_off_c, 0, 72, 100
2, 330912, Note_on_c, 0, 70, 90
2, 330976, Note_off_c, 0, 70, 100
2, 331008, Note_on_c, 0, 74, 90
2, 331136, Note_off_c, 0, 74, 100
2, 331200, Note_on_c, 0, 72, 90
2, 331216, Note_off_c, 0, 72, 100
2, 331248, Note_on_c, 0, 74, 90
2, 331264, Note_off_c, 0, 74, 100
2, 331296, Note_on_c, 0, 72, 90
2, 331312, Note_off_c, 0, 72, 100
2, 331344, Note_on_c, 0, 74, 90
2, 331360, Note_off_c, 0, 74, 100
2, 331392, Note_on_c, 0, 72, 90
2, 331408, Note_off_c, 0, 72, 100
2, 331424, Note_on_c, 0, 74, 90
2, 331440, Note_off_c, 0, 74, 100
2, 331488, Note_on_c, 0, 72, 90
2, 331504, Note_off_c, 0, 72, 100
2, 331536, Note_on_c, 0, 74, 90
2, 331552, Note_off_c, 0, 74, 100
2, 331584, Note_on_c, 0, 70, 74
2, 331676, Note_off_c, 0, 70, 0
2, 331680, Note_on_c, 0, 72, 74
2, 331772, Note_off_c, 0, 72, 0
2, 331776, Note_on_c, 0, 72, 60
2, 331776, Note_on_c, 0, 70, 60
2, 331792, Note_off_c, 0, 72, 100
2, 331904, Note_off_c, 0, 70, 100
2, 331968, Note_on_c, 0, 58, 60
2, 332032, Note_off_c, 0, 58, 100
2, 332064, Note_on_c, 0, 62, 60
2, 332128, Note_off_c, 0, 62, 100
2, 332160, Note_on_c, 0, 60, 60
2, 332224, Note_off_c, 0, 60, 100
2, 332256, Note_on_c, 0, 63, 60
2, 332320, Note_off_c, 0, 63, 100
2, 332352, Note_on_c, 0, 62, 60
2, 332416, Note_off_c, 0, 62, 100
2, 332448, Note_on_c, 0, 65, 60
2, 332512, Note_off_c, 0, 65, 100
2, 332544, Note_on_c, 0, 63, 60
2, 332672, Note_off_c, 0, 63, 100
2, 332736, Note_on_c, 0, 58, 60
2, 332800, Note_off_c, 0, 58, 100
2, 332832, Note_on_c, 0, 62, 60
2, 332896, Note_off_c, 0, 62, 100
2, 332928, Note_on_c, 0, 60, 60
2, 332992, Note_off_c, 0, 60, 100
2, 333024, Note_on_c, 0, 63, 60
2, 333088, Note_off_c, 0, 63, 100
2, 333120, Note_on_c, 0, 62, 60
2, 333184, Note_off_c, 0, 62, 100
2, 333216, Note_on_c, 0, 63, 60
2, 333280, Note_off_c, 0, 63, 100
2, 333312, Note_on_c, 0, 63, 60
2, 333440, Note_off_c, 0, 63, 100
2, 333504, Note_on_c, 0, 58, 60
2, 333568, Note_off_c, 0, 58, 100
2, 333600, Note_on_c, 0, 62, 60
2, 333664, Note_off_c, 0, 62, 100
2, 333696, Note_on_c, 0, 60, 60
2, 333760, Note_off_c, 0, 60, 100
2, 333792, Note_on_c, 0, 63, 60
2, 333856, Note_off_c, 0, 63, 100
2, 333888, Note_on_c, 0, 62, 60
2, 333952, Note_off_c, 0, 62, 100
2, 333984, Note_on_c, 0, 65, 60
2, 334048, Note_off_c, 0, 65, 100
2, 334080, Note_on_c, 0, 63, 60
2, 334144, Note_off_c, 0, 63, 100
2, 334176, Note_on_c, 0, 67, 60
2, 334240, Note_off_c, 0, 67, 100
2, 334272, Note_on_c, 0, 65, 60
2, 334336, Note_off_c, 0, 65, 100
2, 334368, Note_on_c, 0, 69, 60
2, 334432, Note_off_c, 0, 69, 100
2, 334464, Note_on_c, 0, 67, 60
2, 334528, Note_off_c, 0, 67, 100
2, 334560, Note_on_c, 0, 70, 60
2, 334624, Note_off_c, 0, 70, 100
2, 334656, Note_on_c, 0, 69, 60
2, 334720, Note_off_c, 0, 69, 100
2, 334752, Note_on_c, 0, 72, 60
2, 334816, Note_off_c, 0, 72, 100
2, 334848, Note_on_c, 0, 70, 90
2, 334912, Note_off_c, 0, 70, 100
2, 334944, Note_on_c, 0, 72, 90
2, 335008, Note_off_c, 0, 72, 100
2, 335040, Note_on_c, 0, 74, 90
2, 335104, Note_off_c, 0, 74, 100
2, 335136, Note_on_c, 0, 72, 90
2, 335200, Note_off_c, 0, 72, 100
2, 335232, Note_on_c, 0, 70, 90
2, 335296, Note_off_c, 0, 70, 100
2, 335328, Note_on_c, 0, 69, 90
2, 335392, Note_off_c, 0, 69, 100
2, 335424, Note_on_c, 0, 67, 90
2, 335488, Note_off_c, 0, 67, 100
2, 335520, Note_on_c, 0, 66, 90
2, 335584, Note_off_c, 0, 66, 100
2, 335616, Note_on_c, 0, 67, 90
2, 335680, Note_off_c, 0, 67, 100
2, 335712, Note_on_c, 0, 72, 90
2, 335776, Note_off_c, 0, 72, 100
2, 335808, Note_on_c, 0, 75, 90
2, 335872, Note_off_c, 0, 75, 100
2, 335904, Note_on_c, 0, 74, 90
2, 335968, Note_off_c, 0, 74, 100
2, 336000, Note_on_c, 0, 72, 90
2, 336064, Note_off_c, 0, 72, 100
2, 336096, Note_on_c, 0, 70, 90
2, 336160, Note_off_c, 0, 70, 100
2, 336192, Note_on_c, 0, 69, 90
2, 336256, Note_off_c, 0, 69, 100
2, 336288, Note_on_c, 0, 67, 90
2, 336352, Note_off_c, 0, 67, 100
2, 336384, Note_on_c, 0, 65, 60
2, 336448, Note_off_c, 0, 65, 100
2, 336480, Note_on_c, 0, 70, 60
2, 336544, Note_off_c, 0, 70, 100
2, 336576, Note_on_c, 0, 74, 60
2, 336640, Note_off_c, 0, 74, 100
2, 336672, Note_on_c, 0, 77, 60
2, 336736, Note_off_c, 0, 77, 100
2, 336768, Note_on_c, 0, 82, 60
2, 336896, Note_off_c, 0, 82, 100
2, 336960, Note_on_c, 0, 74, 60
2, 336960, Note_on_c, 0, 70, 60
2, 337088, Note_off_c, 0, 74, 100
2, 337088, Note_off_c, 0, 70, 100
2, 337152, Note_on_c, 0, 77, 60
2, 337152, Note_on_c, 0, 74, 60
2, 337280, Note_off_c, 0, 77, 100
2, 337280, Note_off_c, 0, 74, 100
2, 337344, Note_on_c, 0, 75, 60
2, 337344, Note_on_c, 0, 72, 60
2, 337472, Note_off_c, 0, 75, 100
2, 337472, Note_off_c, 0, 72, 100
2, 337536, Note_on_c, 0, 74, 60
2, 337536, Note_on_c, 0, 70, 60
2, 337664, Note_off_c, 0, 74, 100
2, 337664, Note_off_c, 0, 70, 100
2, 337728, Note_on_c, 0, 72, 60
2, 337728, Note_on_c, 0, 69, 60
2, 337856, Note_off_c, 0, 72, 100
2, 337856, Note_off_c, 0, 69, 100
2, 337920, Note_on_c, 0, 70, 60
2, 338048, Note_off_c, 0, 70, 100
2, 338112, Note_on_c, 0, 70, 60
2, 338176, Note_off_c, 0, 70, 100
2, 338208, Note_on_c, 0, 74, 60
2, 338272, Note_off_c, 0, 74, 100
2, 338304, Note_on_c, 0, 72, 60
2, 338304, Note_on_c, 0, 69, 60
2, 338368, Note_off_c, 0, 72, 100
2, 338400, Note_on_c, 0, 75, 60
2, 338432, Note_off_c, 0, 69, 100
2, 338464, Note_off_c, 0, 75, 100
2, 338496, Note_on_c, 0, 74, 60
2, 338496, Note_on_c, 0, 68, 60
2, 338560, Note_off_c, 0, 74, 100
2, 338592, Note_on_c, 0, 77, 60
2, 338624, Note_off_c, 0, 68, 100
2, 338656, Note_off_c, 0, 77, 100
2, 338688, Note_on_c, 0, 75, 60
2, 338688, Note_on_c, 0, 58, 60
2, 338688, Note_on_c, 0, 67, 60
2, 338816, Note_off_c, 0, 75, 100
2, 338816, Note_off_c, 0, 58, 100
2, 338816, Note_off_c, 0, 67, 100
2, 338880, Note_on_c, 0, 82, 60
2, 338944, Note_off_c, 0, 82, 100
2, 338976, Note_on_c, 0, 86, 60
2, 339040, Note_off_c, 0, 86, 100
2, 339072, Note_on_c, 0, 84, 60
2, 339072, Note_on_c, 0, 69, 60
2, 339136, Note_off_c, 0, 84, 100
2, 339168, Note_on_c, 0, 87, 60
2, 339200, Note_off_c, 0, 69, 100
2, 339232, Note_off_c, 0, 87, 100
2, 339264, Note_on_c, 0, 84, 60
2, 339264, Note_on_c, 0, 68, 60
2, 339328, Note_off_c, 0, 84, 100
2, 339360, Note_on_c, 0, 89, 60
2, 339392, Note_off_c, 0, 68, 100
2, 339424, Note_off_c, 0, 89, 100
2, 339456, Note_on_c, 0, 87, 60
2, 339456, Note_on_c, 0, 67, 60
2, 339456, Note_on_c, 0, 58, 60
2, 339584, Note_off_c, 0, 87, 100
2, 339584, Note_off_c, 0, 67, 100
2, 339584, Note_off_c, 0, 58, 100
2, 339648, Note_on_c, 0, 70, 60
2, 339712, Note_off_c, 0, 70, 100
2, 339744, Note_on_c, 0, 74, 60
2, 339808, Note_off_c, 0, 74, 100
2, 339840, Note_on_c, 0, 72, 60
2, 339840, Note_on_c, 0, 69, 60
2, 339904, Note_off_c, 0, 72, 100
2, 339936, Note_on_c, 0, 75, 60
2, 339968, Note_off_c, 0, 69, 100
2, 340000, Note_off_c, 0, 75, 100
2, 340032, Note_on_c, 0, 74, 60
2, 340032, Note_on_c, 0, 68, 60
2, 340096, Note_off_c, 0, 74, 100
2, 340128, Note_on_c, 0, 77, 60
2, 340160, Note_off_c, 0, 68, 100
2, 340192, Note_off_c, 0, 77, 100
2, 340224, Note_on_c, 0, 75, 60
2, 340224, Note_on_c, 0, 67, 60
2, 340288, Note_off_c, 0, 75, 100
2, 340320, Note_on_c, 0, 70, 60
2, 340352, Note_off_c, 0, 67, 100
2, 340384, Note_off_c, 0, 70, 100
2, 340416, Note_on_c, 0, 77, 60
2, 340416, Note_on_c, 0, 62, 60
2, 340480, Note_off_c, 0, 77, 100
2, 340512, Note_on_c, 0, 70, 60
2, 340544, Note_off_c, 0, 62, 100
2, 340576, Note_off_c, 0, 70, 100
2, 340608, Note_on_c, 0, 79, 60
2, 340608, Note_on_c, 0, 64, 60
2, 340672, Note_off_c, 0, 79, 100
2, 340704, Note_on_c, 0, 70, 60
2, 340736, Note_off_c, 0, 64, 100
2, 340768, Note_off_c, 0, 70, 100
2, 340800, Note_on_c, 0, 81, 60
2, 340800, Note_on_c, 0, 60, 60
2, 340864, Note_off_c, 0, 81, 100
2, 340896, Note_on_c, 0, 70, 60
2, 340928, Note_off_c, 0, 60, 100
2, 340960, Note_off_c, 0, 70, 100
2, 340992, Note_on_c, 0, 82, 90
2, 341056, Note_off_c, 0, 82, 100
2, 341088, Note_on_c, 0, 84, 90
2, 341152, Note_off_c, 0, 84, 100
2, 341184, Note_on_c, 0, 86, 90
2, 341248, Note_off_c, 0, 86, 100
2, 341280, Note_on_c, 0, 84, 90
2, 341344, Note_off_c, 0, 84, 100
2, 341376, Note_on_c, 0, 82, 90
2, 341440, Note_off_c, 0, 82, 100
2, 341472, Note_on_c, 0, 81, 90
2, 341536, Note_off_c, 0, 81, 100
2, 341568, Note_on_c, 0, 79, 90
2, 341632, Note_off_c, 0, 79, 100
2, 341664, Note_on_c, 0, 78, 90
2, 341728, Note_off_c, 0, 78, 100
2, 341760, Note_on_c, 0, 79, 90
2, 341824, Note_off_c, 0, 79, 100
2, 341856, Note_on_c, 0, 77, 90
2, 341920, Note_off_c, 0, 77, 100
2, 341952, Note_on_c, 0, 75, 90
2, 342016, Note_off_c, 0, 75, 100
2, 342048, Note_on_c, 0, 74, 90
2, 342112, Note_off_c, 0, 74, 100
2, 342144, Note_on_c, 0, 72, 90
2, 342208, Note_off_c, 0, 72, 100
2, 342240, Note_on_c, 0, 70, 90
2, 342304, Note_off_c, 0, 70, 100
2, 342336, Note_on_c, 0, 69, 90
2, 342400, Note_off_c, 0, 69, 100
2, 342432, Note_on_c, 0, 67, 90
2, 342496, Note_off_c, 0, 67, 100
2, 342528, Note_on_c, 0, 65, 90
2, 342656, Note_off_c, 0, 65, 100
2, 342720, Note_on_c, 0, 86, 90
2, 342848, Note_off_c, 0, 86, 100
2, 342912, Note_on_c, 0, 86, 90
2, 343040, Note_off_c, 0, 86, 100
2, 343104, Note_on_c, 0, 86, 90
2, 343232, Note_off_c, 0, 86, 100
2, 343296, Note_on_c, 0, 86, 90
2, 343360, Note_off_c, 0, 86, 100
2, 343392, Note_on_c, 0, 82, 90
2, 343456, Note_off_c, 0, 82, 100
2, 343488, Note_on_c, 0, 79, 90
2, 343552, Note_off_c, 0, 79, 100
2, 343584, Note_on_c, 0, 74, 90
2, 343648, Note_off_c, 0, 74, 100
2, 343680, Note_on_c, 0, 82, 90
2, 343744, Note_off_c, 0, 82, 100
2, 343776, Note_on_c, 0, 77, 90
2, 343840, Note_off_c, 0, 77, 100
2, 343872, Note_on_c, 0, 74, 90
2, 343936, Note_off_c, 0, 74, 100
2, 343968, Note_on_c, 0, 70, 90
2, 344032, Note_off_c, 0, 70, 100
2, 344064, Note_on_c, 0, 74, 90
2, 344192, Note_off_c, 0, 74, 100
2, 344256, Note_on_c, 0, 72, 90
2, 344272, Note_off_c, 0, 72, 100
2, 344304, Note_on_c, 0, 74, 90
2, 344320, Note_off_c, 0, 74, 100
2, 344352, Note_on_c, 0, 72, 90
2, 344368, Note_off_c, 0, 72, 100
2, 344400, Note_on_c, 0, 74, 90
2, 344416, Note_off_c, 0, 74, 100
2, 344448, Note_on_c, 0, 72, 90
2, 344464, Note_off_c, 0, 72, 100
2, 344496, Note_on_c, 0, 74, 90
2, 344512, Note_off_c, 0, 74, 100
2, 344544, Note_on_c, 0, 72, 90
2, 344560, Note_off_c, 0, 72, 100
2, 344592, Note_on_c, 0, 74, 90
2, 344608, Note_off_c, 0, 74, 100
2, 344640, Note_on_c, 0, 72, 90
2, 344656, Note_off_c, 0, 72, 100
2, 344688, Note_on_c, 0, 74, 90
2, 344704, Note_off_c, 0, 74, 100
2, 344736, Note_on_c, 0, 72, 90
2, 344752, Note_off_c, 0, 72, 100
2, 344784, Note_on_c, 0, 74, 90
2, 344800, Note_off_c, 0, 74, 100
2, 344832, Note_on_c, 0, 72, 90
2, 344848, Note_off_c, 0, 72, 100
2, 344880, Note_on_c, 0, 74, 90
2, 344896, Note_off_c, 0, 74, 100
2, 344928, Note_on_c, 0, 72, 90
2, 344944, Note_off_c, 0, 72, 100
2, 344976, Note_on_c, 0, 74, 90
2, 344992, Note_off_c, 0, 74, 100
2, 345024, Note_on_c, 0, 72, 90
2, 345040, Note_off_c, 0, 72, 100
2, 345072, Note_on_c, 0, 74, 90
2, 345088, Note_off_c, 0, 74, 100
2, 345120, Note_on_c, 0, 72, 90
2, 345136, Note_off_c, 0, 72, 100
2, 345168, Note_on_c, 0, 74, 90
2, 345184, Note_off_c, 0, 74, 100
2, 345216, Note_on_c, 0, 72, 90
2, 345232, Note_off_c, 0, 72, 100
2, 345264, Note_on_c, 0, 74, 90
2, 345280, Note_off_c, 0, 74, 100
2, 345312, Note_on_c, 0, 72, 90
2, 345328, Note_off_c, 0, 72, 100
2, 345408, Note_on_c, 0, 70, 90
2, 345472, Note_off_c, 0, 70, 100
2, 345504, Note_on_c, 0, 72, 90
2, 345568, Note_off_c, 0, 72, 100
2, 345600, Note_on_c, 0, 70, 60
2, 345728, Note_off_c, 0, 70, 100
2, 345792, Note_on_c, 0, 82, 60
2, 345792, Note_on_c, 0, 70, 60
2, 345920, Note_off_c, 0, 82, 100
2, 345920, Note_off_c, 0, 70, 100
2, 345984, Note_on_c, 0, 69, 60
2, 346112, Note_off_c, 0, 69, 100
2, 346176, Note_on_c, 0, 82, 60
2, 346176, Note_on_c, 0, 70, 60
2, 346304, Note_off_c, 0, 82, 100
2, 346304, Note_off_c, 0, 70, 100
2, 346368, Note_on_c, 0, 81, 60
2, 346368, Note_on_c, 0, 72, 60
2, 346496, Note_off_c, 0, 81, 100
2, 346496, Note_off_c, 0, 72, 100
2, 346560, Note_on_c, 0, 82, 60
2, 346560, Note_on_c, 0, 70, 60
2, 346688, Note_off_c, 0, 82, 100
2, 346688, Note_off_c, 0, 70, 100
2, 346752, Note_on_c, 0, 84, 60
2, 346752, Note_on_c, 0, 69, 60
2, 346880, Note_off_c, 0, 84, 100
2, 346880, Note_off_c, 0, 69, 100
2, 346944, Note_on_c, 0, 86, 60
2, 346944, Note_on_c, 0, 68, 60
2, 347072, Note_off_c, 0, 86, 100
2, 347072, Note_off_c, 0, 68, 100
2, 347136, Note_on_c, 0, 87, 60
2, 347136, Note_on_c, 0, 67, 60
2, 347200, Note_off_c, 0, 87, 100
2, 347232, Note_on_c, 0, 86, 60
2, 347264, Note_off_c, 0, 67, 100
2, 347296, Note_off_c, 0, 86, 100
2, 347328, Note_on_c, 0, 87, 60
2, 347328, Note_on_c, 0, 58, 60
2, 347392, Note_off_c, 0, 87, 100
2, 347424, Note_on_c, 0, 86, 60
2, 347456, Note_off_c, 0, 58, 100
2, 347488, Note_off_c, 0, 86, 100
2, 347520, Note_on_c, 0, 87, 60
2, 347520, Note_on_c, 0, 66, 60
2, 347584, Note_off_c, 0, 87, 100
2, 347616, Note_on_c, 0, 85, 60
2, 347648, Note_off_c, 0, 66, 100
2, 347680, Note_off_c, 0, 85, 100
2, 347712, Note_on_c, 0, 84, 60
2, 347712, Note_on_c, 0, 58, 60
2, 347776, Note_off_c, 0, 84, 100
2, 347808, Note_on_c, 0, 82, 60
2, 347840, Note_off_c, 0, 58, 100
2, 347872, Note_off_c, 0, 82, 100
2, 347904, Note_on_c, 0, 81, 60
2, 347904, Note_on_c, 0, 65, 60
2, 347968, Note_off_c, 0, 81, 100
2, 348000, Note_on_c, 0, 82, 60
2, 348032, Note_off_c, 0, 65, 100
2, 348064, Note_off_c, 0, 82, 100
2, 348096, Note_on_c, 0, 84, 60
2, 348096, Note_on_c, 0, 58, 60
2, 348160, Note_off_c, 0, 84, 100
2, 348192, Note_on_c, 0, 82, 60
2, 348224, Note_off_c, 0, 58, 100
2, 348256, Note_off_c, 0, 82, 100
2, 348288, Note_on_c, 0, 81, 60
2, 348288, Note_on_c, 0, 69, 60
2, 348352, Note_off_c, 0, 81, 100
2, 348384, Note_on_c, 0, 79, 60
2, 348416, Note_off_c, 0, 69, 100
2, 348448, Note_off_c, 0, 79, 100
2, 348480, Note_on_c, 0, 77, 60
2, 348480, Note_on_c, 0, 58, 60
2, 348544, Note_off_c, 0, 77, 100
2, 348576, Note_on_c, 0, 75, 60
2, 348608, Note_off_c, 0, 58, 100
2, 348640, Note_off_c, 0, 75, 100
2, 348672, Note_on_c, 0, 74, 60
2, 348672, Note_on_c, 0, 70, 60
2, 348800, Note_off_c, 0, 74, 100
2, 348800, Note_off_c, 0, 70, 100
2, 348864, Note_on_c, 0, 74, 60
2, 348992, Note_off_c, 0, 74, 100
2, 349248, Note_on_c, 0, 70, 60
2, 349376, Note_off_c, 0, 70, 100
2, 349440, Note_on_c, 0, 69, 60
2, 349568, Note_off_c, 0, 69, 100
2, 349632, Note_on_c, 0, 70, 60
2, 349760, Note_off_c, 0, 70, 100
2, 349824, Note_on_c, 0, 72, 60
2, 349952, Note_off_c, 0, 72, 100
2, 350016, Note_on_c, 0, 74, 60
2, 350144, Note_off_c, 0, 74, 100
2, 350208, Note_on_c, 0, 75, 60
2, 350336, Note_off_c, 0, 75, 100
2, 350400, Note_on_c, 0, 77, 74
2, 350444, Note_off_c, 0, 77, 0
2, 350448, Note_on_c, 0, 75, 74
2, 350492, Note_off_c, 0, 75, 0
2, 350496, Note_on_c, 0, 74, 74
2, 350540, Note_off_c, 0, 74, 0
2, 350544, Note_on_c, 0, 75, 74
2, 350588, Note_off_c, 0, 75, 0
2, 350592, Note_on_c, 0, 77, 60
2, 350720, Note_off_c, 0, 77, 100
2, 350752, Note_on_c, 0, 79, 60
2, 350880, Note_off_c, 0, 79, 100
2, 350976, Note_on_c, 0, 79, 60
2, 350976, Note_on_c, 0, 75, 60
2, 351104, Note_off_c, 0, 79, 100
2, 351104, Note_off_c, 0, 75, 100
2, 351168, Note_on_c, 0, 77, 60
2, 351168, Note_on_c, 0, 74, 60
2, 351296, Note_off_c, 0, 77, 100
2, 351296, Note_off_c, 0, 74, 100
2, 351552, Note_on_c, 0, 69, 60
2, 351552, Note_on_c, 0, 63, 60
2, 351680, Note_off_c, 0, 69, 100
2, 351680, Note_off_c, 0, 63, 100
2, 351744, Note_on_c, 0, 72, 60
2, 351744, Note_on_c, 0, 63, 60
2, 352256, Note_off_c, 0, 72, 100
2, 352256, Note_off_c, 0, 63, 100
2, 352512, Note_on_c, 0, 70, 60
2, 352512, Note_on_c, 0, 62, 60
2, 352768, Note_off_c, 0, 70, 100
2, 352768, Note_off_c, 0, 62, 100
2, 352896, Note_on_c, 0, 74, 60
2, 352960, Note_off_c, 0, 74, 100
2, 352992, Note_on_c, 0, 72, 60
2, 353056, Note_off_c, 0, 72, 100
2, 353088, Note_on_c, 0, 70, 60
2, 353152, Note_off_c, 0, 70, 100
2, 353184, Note_on_c, 0, 69, 60
2, 353248, Note_off_c, 0, 69, 100
2, 353280, Note_on_c, 0, 67, 60
2, 353468, Note_off_c, 0, 67, 0
2, 353472, Note_on_c, 0, 65, 60
2, 353660, Note_off_c, 0, 65, 0
2, 353664, Note_on_c, 0, 65, 60
2, 354236, Note_off_c, 0, 65, 0
2, 354240, Note_on_c, 0, 77, 60
2, 354428, Note_off_c, 0, 77, 0
2, 354432, Note_on_c, 0, 79, 60
2, 354620, Note_off_c, 0, 79, 0
2, 354624, Note_on_c, 0, 81, 60
2, 354812, Note_off_c, 0, 81, 0
2, 354816, Note_on_c, 0, 76, 60
2, 354860, Note_off_c, 0, 76, 0
2, 354864, Note_on_c, 0, 82, 60
2, 355104, Note_on_c, 0, 79, 60
2, 355148, Note_off_c, 0, 82, 0
2, 355196, Note_off_c, 0, 79, 0
2, 355200, Note_on_c, 0, 76, 60
2, 355580, Note_off_c, 0, 76, 0
2, 355968, Note_on_c, 0, 72, 60
2, 356060, Note_off_c, 0, 72, 0
2, 356064, Note_on_c, 0, 70, 60
2, 356156, Note_off_c, 0, 70, 0
2, 356160, Note_on_c, 0, 69, 60
2, 356252, Note_off_c, 0, 69, 0
2, 356256, Note_on_c, 0, 67, 60
2, 356348, Note_off_c, 0, 67, 0
2, 356352, Note_on_c, 0, 65, 60
2, 356480, Note_off_c, 0, 65, 100
2, 356544, Note_on_c, 0, 64, 60
2, 356672, Note_off_c, 0, 64, 100
2, 356736, Note_on_c, 0, 64, 60
2, 357120, Note_off_c, 0, 64, 100
2, 357312, Note_on_c, 0, 79, 60
2, 357440, Note_off_c, 0, 79, 100
2, 357504, Note_on_c, 0, 81, 60
2, 357632, Note_off_c, 0, 81, 100
2, 357696, Note_on_c, 0, 82, 60
2, 357824, Note_off_c, 0, 82, 100
2, 357888, Note_on_c, 0, 84, 60
2, 358080, Note_off_c, 0, 84, 100
2, 358144, Note_on_c, 0, 81, 60
2, 358208, Note_off_c, 0, 81, 100
2, 358272, Note_on_c, 0, 78, 60
2, 358528, Note_off_c, 0, 78, 100
2, 358848, Note_on_c, 0, 79, 60
2, 358976, Note_off_c, 0, 79, 100
2, 359040, Note_on_c, 0, 82, 60
2, 359168, Note_off_c, 0, 82, 100
2, 359232, Note_on_c, 0, 84, 60
2, 359360, Note_off_c, 0, 84, 100
2, 359424, Note_on_c, 0, 86, 82
2, 359616, Note_off_c, 0, 86, 100
2, 359712, Note_on_c, 0, 82, 82
2, 359776, Note_off_c, 0, 82, 100
2, 359808, Note_on_c, 0, 79, 82
2, 359936, Note_off_c, 0, 79, 100
2, 360192, Note_on_c, 0, 82, 82
2, 360384, Note_off_c, 0, 82, 100
2, 360480, Note_on_c, 0, 79, 82
2, 360544, Note_off_c, 0, 79, 100
2, 360576, Note_on_c, 0, 76, 82
2, 360704, Note_off_c, 0, 76, 100
2, 360960, Note_on_c, 0, 77, 82
2, 361152, Note_off_c, 0, 77, 100
2, 361248, Note_on_c, 0, 74, 82
2, 361312, Note_off_c, 0, 74, 100
2, 361344, Note_on_c, 0, 71, 82
2, 361600, Note_off_c, 0, 71, 100
2, 361920, Note_on_c, 0, 71, 82
2, 362048, Note_off_c, 0, 71, 100
2, 362112, Note_on_c, 0, 71, 82
2, 362240, Note_off_c, 0, 71, 100
2, 362304, Note_on_c, 0, 71, 82
2, 362432, Note_off_c, 0, 71, 100
2, 362496, Note_on_c, 0, 72, 90
2, 362560, Note_off_c, 0, 72, 100
2, 362592, Note_on_c, 0, 81, 90
2, 362656, Note_off_c, 0, 81, 100
2, 362688, Note_on_c, 0, 77, 90
2, 362752, Note_off_c, 0, 77, 100
2, 362784, Note_on_c, 0, 72, 90
2, 362848, Note_off_c, 0, 72, 100
2, 362880, Note_on_c, 0, 69, 90
2, 362944, Note_off_c, 0, 69, 100
2, 362976, Note_on_c, 0, 77, 90
2, 363040, Note_off_c, 0, 77, 100
2, 363072, Note_on_c, 0, 72, 90
2, 363136, Note_off_c, 0, 72, 100
2, 363168, Note_on_c, 0, 69, 90
2, 363232, Note_off_c, 0, 69, 100
2, 363264, Note_on_c, 0, 72, 90
2, 363264, Note_on_c, 0, 69, 90
2, 363392, Note_off_c, 0, 72, 100
2, 363392, Note_off_c, 0, 69, 100
2, 363456, Note_on_c, 0, 67, 90
2, 363456, Note_on_c, 0, 70, 90
2, 363584, Note_off_c, 0, 67, 100
2, 363584, Note_off_c, 0, 70, 100
2, 363648, Note_on_c, 0, 69, 90
2, 363648, Note_on_c, 0, 65, 90
2, 363776, Note_off_c, 0, 69, 100
2, 363776, Note_off_c, 0, 65, 100
2, 363840, Note_on_c, 0, 67, 90
2, 363840, Note_on_c, 0, 64, 90
2, 363968, Note_off_c, 0, 67, 100
2, 363968, Note_off_c, 0, 64, 100
2, 364032, Note_on_c, 0, 65, 60
2, 364288, Note_off_c, 0, 65, 100
2, 364896, Note_on_c, 0, 65, 60
2, 364960, Note_off_c, 0, 65, 100
2, 364992, Note_on_c, 0, 67, 60
2, 365056, Note_off_c, 0, 67, 100
2, 365088, Note_on_c, 0, 68, 60
2, 365152, Note_off_c, 0, 68, 100
2, 365184, Note_on_c, 0, 70, 60
2, 365248, Note_off_c, 0, 70, 100
2, 365280, Note_on_c, 0, 72, 60
2, 365344, Note_off_c, 0, 72, 100
2, 365376, Note_on_c, 0, 74, 60
2, 365440, Note_off_c, 0, 74, 100
2, 365472, Note_on_c, 0, 76, 60
2, 365536, Note_off_c, 0, 76, 100
2, 365568, Note_on_c, 0, 77, 90
2, 365632, Note_off_c, 0, 77, 100
2, 365664, Note_on_c, 0, 72, 90
2, 365728, Note_off_c, 0, 72, 100
2, 365760, Note_on_c, 0, 80, 90
2, 365824, Note_off_c, 0, 80, 100
2, 365856, Note_on_c, 0, 79, 90
2, 365920, Note_off_c, 0, 79, 100
2, 365952, Note_on_c, 0, 77, 90
2, 366016, Note_off_c, 0, 77, 100
2, 366048, Note_on_c, 0, 72, 90
2, 366112, Note_off_c, 0, 72, 100
2, 366144, Note_on_c, 0, 80, 90
2, 366208, Note_off_c, 0, 80, 100
2, 366240, Note_on_c, 0, 79, 90
2, 366304, Note_off_c, 0, 79, 100
2, 366336, Note_on_c, 0, 77, 90
2, 366400, Note_off_c, 0, 77, 100
2, 366432, Note_on_c, 0, 79, 90
2, 366496, Note_off_c, 0, 79, 100
2, 366528, Note_on_c, 0, 75, 90
2, 366592, Note_off_c, 0, 75, 100
2, 366624, Note_on_c, 0, 77, 90
2, 366688, Note_off_c, 0, 77, 100
2, 366720, Note_on_c, 0, 74, 90
2, 366784, Note_off_c, 0, 74, 100
2, 366816, Note_on_c, 0, 75, 90
2, 366880, Note_off_c, 0, 75, 100
2, 366912, Note_on_c, 0, 72, 90
2, 366976, Note_off_c, 0, 72, 100
2, 367008, Note_on_c, 0, 74, 90
2, 367072, Note_off_c, 0, 74, 100
2, 367104, Note_on_c, 0, 71, 90
2, 367232, Note_off_c, 0, 71, 100
2, 367296, Note_on_c, 0, 89, 90
2, 367552, Note_off_c, 0, 89, 100
2, 367680, Note_on_c, 0, 89, 90
2, 367936, Note_off_c, 0, 89, 100
2, 368064, Note_on_c, 0, 86, 90
2, 368320, Note_off_c, 0, 86, 100
2, 368448, Note_on_c, 0, 84, 90
2, 368576, Note_off_c, 0, 84, 100
2, 368640, Note_on_c, 0, 84, 90
2, 368768, Note_off_c, 0, 84, 100
2, 368832, Note_on_c, 0, 83, 90
2, 369088, Note_off_c, 0, 83, 100
2, 369216, Note_on_c, 0, 80, 90
2, 369472, Note_off_c, 0, 80, 100
2, 369600, Note_on_c, 0, 79, 90
2, 369856, Note_off_c, 0, 79, 100
2, 369952, Note_on_c, 0, 77, 90
2, 370080, Note_off_c, 0, 77, 100
2, 370176, Note_on_c, 0, 77, 90
2, 370304, Note_off_c, 0, 77, 100
2, 370368, Note_on_c, 0, 76, 90
2, 370496, Note_off_c, 0, 76, 100
2, 370556, Note_on_c, 0, 75, 90
2, 370812, Note_off_c, 0, 75, 100
2, 371040, Note_on_c, 0, 75, 90
2, 371104, Note_off_c, 0, 75, 100
2, 371136, Note_on_c, 0, 74, 90
2, 371200, Note_off_c, 0, 74, 100
2, 371232, Note_on_c, 0, 75, 90
2, 371296, Note_off_c, 0, 75, 100
2, 371328, Note_on_c, 0, 77, 90
2, 371392, Note_off_c, 0, 77, 100
2, 371424, Note_on_c, 0, 75, 90
2, 371488, Note_off_c, 0, 75, 100
2, 371520, Note_on_c, 0, 74, 90
2, 371584, Note_off_c, 0, 74, 100
2, 371616, Note_on_c, 0, 75, 90
2, 371680, Note_off_c, 0, 75, 100
2, 371712, Note_on_c, 0, 78, 90
2, 371904, Note_off_c, 0, 78, 100
2, 372000, Note_on_c, 0, 75, 90
2, 372064, Note_off_c, 0, 75, 100
2, 372096, Note_on_c, 0, 75, 90
2, 372288, Note_off_c, 0, 75, 100
2, 372384, Note_on_c, 0, 74, 90
2, 372416, Note_off_c, 0, 74, 100
2, 372432, Note_on_c, 0, 75, 90
2, 372464, Note_off_c, 0, 75, 100
2, 372480, Note_on_c, 0, 82, 90
2, 372672, Note_off_c, 0, 82, 100
2, 372768, Note_on_c, 0, 75, 90
2, 372832, Note_off_c, 0, 75, 100
2, 372864, Note_on_c, 0, 75, 90
2, 373056, Note_off_c, 0, 75, 100
2, 373152, Note_on_c, 0, 74, 90
2, 373184, Note_off_c, 0, 74, 100
2, 373200, Note_on_c, 0, 75, 90
2, 373232, Note_off_c, 0, 75, 100
2, 373248, Note_on_c, 0, 81, 90
2, 373376, Note_off_c, 0, 81, 100
2, 373440, Note_on_c, 0, 84, 90
2, 373568, Note_off_c, 0, 84, 100
2, 373632, Note_on_c, 0, 87, 90
2, 373760, Note_off_c, 0, 87, 100
2, 374016, Note_on_c, 0, 87, 90
2, 374080, Note_off_c, 0, 87, 100
2, 374112, Note_on_c, 0, 89, 90
2, 374176, Note_off_c, 0, 89, 100
2, 374208, Note_on_c, 0, 86, 90
2, 374272, Note_off_c, 0, 86, 100
2, 374304, Note_on_c, 0, 87, 90
2, 374368, Note_off_c, 0, 87, 100
2, 374400, Note_on_c, 0, 84, 90
2, 374464, Note_off_c, 0, 84, 100
2, 374496, Note_on_c, 0, 86, 90
2, 374560, Note_off_c, 0, 86, 100
2, 374592, Note_on_c, 0, 82, 90
2, 374656, Note_off_c, 0, 82, 100
2, 374688, Note_on_c, 0, 84, 90
2, 374752, Note_off_c, 0, 84, 100
2, 374784, Note_on_c, 0, 81, 90
2, 374848, Note_off_c, 0, 81, 100
2, 374880, Note_on_c, 0, 82, 90
2, 374944, Note_off_c, 0, 82, 100
2, 374976, Note_on_c, 0, 84, 90
2, 375040, Note_off_c, 0, 84, 100
2, 375072, Note_on_c, 0, 82, 90
2, 375136, Note_off_c, 0, 82, 100
2, 375168, Note_on_c, 0, 81, 90
2, 375232, Note_off_c, 0, 81, 100
2, 375264, Note_on_c, 0, 82, 90
2, 375328, Note_off_c, 0, 82, 100
2, 375360, Note_on_c, 0, 84, 90
2, 375424, Note_off_c, 0, 84, 100
2, 375456, Note_on_c, 0, 86, 90
2, 375520, Note_off_c, 0, 86, 100
2, 375552, Note_on_c, 0, 87, 90
2, 375616, Note_off_c, 0, 87, 100
2, 375648, Note_on_c, 0, 86, 90
2, 375712, Note_off_c, 0, 86, 100
2, 375744, Note_on_c, 0, 84, 90
2, 375808, Note_off_c, 0, 84, 100
2, 375840, Note_on_c, 0, 82, 90
2, 375904, Note_off_c, 0, 82, 100
2, 375936, Note_on_c, 0, 81, 90
2, 376000, Note_off_c, 0, 81, 100
2, 376032, Note_on_c, 0, 79, 90
2, 376096, Note_off_c, 0, 79, 100
2, 376128, Note_on_c, 0, 77, 90
2, 376192, Note_off_c, 0, 77, 100
2, 376224, Note_on_c, 0, 75, 90
2, 376288, Note_off_c, 0, 75, 100
2, 376320, Note_on_c, 0, 75, 90
2, 376448, Note_off_c, 0, 75, 100
2, 376512, Note_on_c, 0, 74, 90
2, 376640, Note_off_c, 0, 74, 100
2, 376704, Note_on_c, 0, 74, 90
2, 377084, Note_off_c, 0, 74, 100
2, 377280, Note_on_c, 0, 74, 90
2, 377408, Note_off_c, 0, 74, 100
2, 377472, Note_on_c, 0, 86, 90
2, 377600, Note_off_c, 0, 86, 100
2, 377664, Note_on_c, 0, 84, 90
2, 377792, Note_off_c, 0, 84, 100
2, 377856, Note_on_c, 0, 84, 90
2, 377984, Note_off_c, 0, 84, 100
2, 378048, Note_on_c, 0, 82, 90
2, 378304, Note_off_c, 0, 82, 100
2, 378432, Note_on_c, 0, 81, 90
2, 378560, Note_off_c, 0, 81, 100
2, 378624, Note_on_c, 0, 81, 90
2, 378688, Note_off_c, 0, 81, 100
2, 378720, Note_on_c, 0, 79, 90
2, 378784, Note_off_c, 0, 79, 100
2, 378816, Note_on_c, 0, 82, 90
2, 378880, Note_off_c, 0, 82, 100
2, 378912, Note_on_c, 0, 81, 90
2, 378976, Note_off_c, 0, 81, 100
2, 379008, Note_on_c, 0, 84, 90
2, 379072, Note_off_c, 0, 84, 100
2, 379104, Note_on_c, 0, 82, 90
2, 379168, Note_off_c, 0, 82, 100
2, 379200, Note_on_c, 0, 81, 90
2, 379264, Note_off_c, 0, 81, 100
2, 379296, Note_on_c, 0, 79, 90
2, 379360, Note_off_c, 0, 79, 100
2, 379392, Note_on_c, 0, 78, 60
2, 379456, Note_off_c, 0, 78, 100
2, 379488, Note_on_c, 0, 74, 60
2, 379552, Note_off_c, 0, 74, 100
2, 379584, Note_on_c, 0, 86, 60
2, 379648, Note_off_c, 0, 86, 100
2, 379680, Note_on_c, 0, 85, 60
2, 379744, Note_off_c, 0, 85, 100
2, 379776, Note_on_c, 0, 86, 60
2, 379840, Note_off_c, 0, 86, 100
2, 379872, Note_on_c, 0, 85, 60
2, 379936, Note_off_c, 0, 85, 100
2, 379968, Note_on_c, 0, 86, 60
2, 380032, Note_off_c, 0, 86, 100
2, 380064, Note_on_c, 0, 85, 60
2, 380128, Note_off_c, 0, 85, 100
2, 380160, Note_on_c, 0, 86, 60
2, 380224, Note_off_c, 0, 86, 100
2, 380256, Note_on_c, 0, 87, 60
2, 380320, Note_off_c, 0, 87, 100
2, 380352, Note_on_c, 0, 85, 60
2, 380416, Note_off_c, 0, 85, 100
2, 380448, Note_on_c, 0, 86, 60
2, 380512, Note_off_c, 0, 86, 100
2, 380544, Note_on_c, 0, 82, 60
2, 380544, Note_on_c, 0, 66, 60
2, 380544, Note_on_c, 0, 62, 60
2, 380608, Note_off_c, 0, 82, 100
2, 380640, Note_on_c, 0, 85, 60
2, 380704, Note_off_c, 0, 85, 100
2, 380736, Note_on_c, 0, 81, 60
2, 380800, Note_off_c, 0, 66, 100
2, 380800, Note_off_c, 0, 62, 100
2, 380800, Note_off_c, 0, 81, 100
2, 380832, Note_on_c, 0, 82, 60
2, 380896, Note_off_c, 0, 82, 100
2, 380928, Note_on_c, 0, 79, 60
2, 380928, Note_on_c, 0, 67, 60
2, 380928, Note_on_c, 0, 64, 60
2, 380992, Note_off_c, 0, 79, 100
2, 381024, Note_on_c, 0, 81, 60
2, 381088, Note_off_c, 0, 81, 100
2, 381120, Note_on_c, 0, 77, 60
2, 381184, Note_off_c, 0, 67, 100
2, 381184, Note_off_c, 0, 64, 100
2, 381184, Note_off_c, 0, 77, 100
2, 381216, Note_on_c, 0, 79, 60
2, 381280, Note_off_c, 0, 79, 100
2, 381312, Note_on_c, 0, 75, 60
2, 381376, Note_off_c, 0, 75, 100
2, 381408, Note_on_c, 0, 77, 60
2, 381472, Note_off_c, 0, 77, 100
2, 381504, Note_on_c, 0, 74, 60
2, 381568, Note_off_c, 0, 74, 100
2, 381600, Note_on_c, 0, 75, 60
2, 381664, Note_off_c, 0, 75, 100
2, 381696, Note_on_c, 0, 72, 60
2, 381824, Note_off_c, 0, 72, 100
2, 381888, Note_on_c, 0, 82, 60
2, 382016, Note_off_c, 0, 82, 100
2, 382080, Note_on_c, 0, 81, 60
2, 382208, Note_off_c, 0, 81, 100
2, 382272, Note_on_c, 0, 79, 60
2, 382400, Note_off_c, 0, 79, 100
2, 382464, Note_on_c, 0, 78, 60
2, 382528, Note_off_c, 0, 78, 100
2, 382560, Note_on_c, 0, 73, 60
2, 382624, Note_off_c, 0, 73, 100
2, 382656, Note_on_c, 0, 74, 60
2, 382720, Note_off_c, 0, 74, 100
2, 382752, Note_on_c, 0, 73, 60
2, 382816, Note_off_c, 0, 73, 100
2, 382848, Note_on_c, 0, 74, 60
2, 382912, Note_off_c, 0, 74, 100
2, 382944, Note_on_c, 0, 73, 60
2, 383008, Note_off_c, 0, 73, 100
2, 383040, Note_on_c, 0, 75, 60
2, 383104, Note_off_c, 0, 75, 100
2, 383136, Note_on_c, 0, 73, 60
2, 383200, Note_off_c, 0, 73, 100
2, 383232, Note_on_c, 0, 74, 60
2, 383296, Note_off_c, 0, 74, 100
2, 383328, Note_on_c, 0, 75, 60
2, 383392, Note_off_c, 0, 75, 100
2, 383424, Note_on_c, 0, 72, 60
2, 383488, Note_off_c, 0, 72, 100
2, 383520, Note_on_c, 0, 74, 60
2, 383584, Note_off_c, 0, 74, 100
2, 383616, Note_on_c, 0, 70, 60
2, 383680, Note_off_c, 0, 70, 100
2, 383712, Note_on_c, 0, 72, 60
2, 383776, Note_off_c, 0, 72, 100
2, 383808, Note_on_c, 0, 69, 60
2, 383872, Note_off_c, 0, 69, 100
2, 383904, Note_on_c, 0, 72, 60
2, 383968, Note_off_c, 0, 72, 100
2, 384000, Note_on_c, 0, 67, 60
2, 384064, Note_off_c, 0, 67, 100
2, 384096, Note_on_c, 0, 69, 60
2, 384160, Note_off_c, 0, 69, 100
2, 384192, Note_on_c, 0, 65, 60
2, 384256, Note_off_c, 0, 65, 100
2, 384288, Note_on_c, 0, 67, 60
2, 384352, Note_off_c, 0, 67, 100
2, 384384, Note_on_c, 0, 63, 60
2, 384448, Note_off_c, 0, 63, 100
2, 384480, Note_on_c, 0, 65, 60
2, 384544, Note_off_c, 0, 65, 100
2, 384576, Note_on_c, 0, 62, 60
2, 384640, Note_off_c, 0, 62, 100
2, 384672, Note_on_c, 0, 63, 60
2, 384736, Note_off_c, 0, 63, 100
2, 384768, Note_on_c, 0, 61, 60
2, 384896, Note_off_c, 0, 61, 100
2, 384960, Note_on_c, 0, 67, 60
2, 385088, Note_off_c, 0, 67, 100
2, 385152, Note_on_c, 0, 70, 60
2, 385280, Note_off_c, 0, 70, 100
2, 385344, Note_on_c, 0, 61, 60
2, 385472, Note_off_c, 0, 61, 100
2, 385536, Note_on_c, 0, 62, 44
2, 385664, Note_off_c, 0, 62, 100
2, 385728, Note_on_c, 0, 74, 44
2, 385856, Note_off_c, 0, 74, 100
2, 386112, Note_on_c, 0, 74, 44
2, 386240, Note_off_c, 0, 74, 100
2, 386496, Note_on_c, 0, 74, 44
2, 386624, Note_off_c, 0, 74, 100
2, 386880, Note_on_c, 0, 74, 44
2, 387008, Note_off_c, 0, 74, 100
2, 387264, Note_on_c, 0, 74, 44
2, 387392, Note_off_c, 0, 74, 100
2, 387456, Note_on_c, 0, 73, 44
2, 387584, Note_off_c, 0, 73, 100
2, 387648, Note_on_c, 0, 74, 44
2, 387776, Note_off_c, 0, 74, 100
2, 387840, Note_on_c, 0, 73, 44
2, 387968, Note_off_c, 0, 73, 100
2, 388032, Note_on_c, 0, 74, 44
2, 388160, Note_off_c, 0, 74, 100
2, 388224, Note_on_c, 0, 73, 44
2, 388352, Note_off_c, 0, 73, 100
2, 388416, Note_on_c, 0, 74, 44
2, 388544, Note_off_c, 0, 74, 100
2, 388608, Note_on_c, 0, 77, 44
2, 388800, Note_on_c, 0, 69, 44
2, 388800, Note_on_c, 0, 65, 44
2, 388800, Note_on_c, 0, 60, 44
2, 388864, Note_off_c, 0, 77, 100
2, 388928, Note_off_c, 0, 69, 100
2, 388928, Note_off_c, 0, 65, 100
2, 388928, Note_off_c, 0, 60, 100
2, 388992, Note_on_c, 0, 75, 44
2, 388992, Note_on_c, 0, 69, 44
2, 388992, Note_on_c, 0, 65, 44
2, 388992, Note_on_c, 0, 60, 44
2, 389120, Note_off_c, 0, 69, 100
2, 389120, Note_off_c, 0, 65, 100
2, 389120, Note_off_c, 0, 60, 100
2, 389152, Note_on_c, 0, 69, 44
2, 389184, Note_on_c, 0, 65, 44
2, 389184, Note_on_c, 0, 60, 44
2, 389248, Note_off_c, 0, 75, 100
2, 389280, Note_off_c, 0, 69, 100
2, 389312, Note_off_c, 0, 65, 100
2, 389312, Note_off_c, 0, 60, 100
2, 389376, Note_on_c, 0, 69, 44
2, 389376, Note_on_c, 0, 65, 44
2, 389376, Note_on_c, 0, 60, 44
2, 389472, Note_on_c, 0, 75, 44
2, 389536, Note_off_c, 0, 75, 100
2, 389568, Note_on_c, 0, 74, 44
2, 389632, Note_off_c, 0, 69, 100
2, 389632, Note_off_c, 0, 65, 100
2, 389632, Note_off_c, 0, 60, 100
2, 389632, Note_off_c, 0, 74, 100
2, 389664, Note_on_c, 0, 75, 44
2, 389728, Note_off_c, 0, 75, 100
2, 389760, Note_on_c, 0, 77, 44
2, 389824, Note_off_c, 0, 77, 100
2, 389856, Note_on_c, 0, 75, 44
2, 389920, Note_off_c, 0, 75, 100
2, 389952, Note_on_c, 0, 74, 44
2, 390016, Note_off_c, 0, 74, 100
2, 390048, Note_on_c, 0, 75, 44
2, 390112, Note_off_c, 0, 75, 100
2, 390144, Note_on_c, 0, 82, 44
2, 390336, Note_on_c, 0, 75, 44
2, 390336, Note_on_c, 0, 72, 44
2, 390336, Note_on_c, 0, 65, 44
2, 390400, Note_off_c, 0, 82, 100
2, 390464, Note_off_c, 0, 75, 100
2, 390464, Note_off_c, 0, 72, 100
2, 390464, Note_off_c, 0, 65, 100
2, 390528, Note_on_c, 0, 81, 44
2, 390528, Note_on_c, 0, 75, 44
2, 390528, Note_on_c, 0, 72, 44
2, 390528, Note_on_c, 0, 65, 44
2, 390656, Note_off_c, 0, 75, 100
2, 390656, Note_off_c, 0, 72, 100
2, 390656, Note_off_c, 0, 65, 100
2, 390720, Note_on_c, 0, 75, 44
2, 390720, Note_on_c, 0, 72, 44
2, 390720, Note_on_c, 0, 65, 44
2, 390784, Note_off_c, 0, 81, 100
2, 390848, Note_off_c, 0, 75, 100
2, 390848, Note_off_c, 0, 72, 100
2, 390848, Note_off_c, 0, 65, 100
2, 390912, Note_on_c, 0, 72, 44
2, 390912, Note_on_c, 0, 65, 44
2, 390912, Note_on_c, 0, 75, 44
2, 391008, Note_on_c, 0, 81, 44
2, 391072, Note_off_c, 0, 81, 100
2, 391104, Note_on_c, 0, 79, 44
2, 391168, Note_off_c, 0, 72, 100
2, 391168, Note_off_c, 0, 65, 100
2, 391168, Note_off_c, 0, 75, 100
2, 391168, Note_off_c, 0, 79, 100
2, 391200, Note_on_c, 0, 81, 44
2, 391264, Note_off_c, 0, 81, 100
2, 391296, Note_on_c, 0, 82, 44
2, 391360, Note_off_c, 0, 82, 100
2, 391392, Note_on_c, 0, 81, 44
2, 391456, Note_off_c, 0, 81, 100
2, 391488, Note_on_c, 0, 79, 44
2, 391552, Note_off_c, 0, 79, 100
2, 391584, Note_on_c, 0, 81, 44
2, 391648, Note_off_c, 0, 81, 100
2, 391680, Note_on_c, 0, 89, 44
2, 391872, Note_on_c, 0, 65, 44
2, 391936, Note_off_c, 0, 89, 100
2, 392000, Note_off_c, 0, 65, 100
2, 392064, Note_on_c, 0, 87, 44
2, 392064, Note_on_c, 0, 72, 44
2, 392192, Note_off_c, 0, 72, 100
2, 392256, Note_on_c, 0, 75, 44
2, 392320, Note_off_c, 0, 87, 100
2, 392384, Note_off_c, 0, 75, 100
2, 392448, Note_on_c, 0, 66, 44
2, 392544, Note_on_c, 0, 87, 44
2, 392608, Note_off_c, 0, 87, 100
2, 392640, Note_on_c, 0, 86, 44
2, 392704, Note_off_c, 0, 86, 100
2, 392736, Note_on_c, 0, 87, 44
2, 392800, Note_off_c, 0, 87, 100
2, 392832, Note_on_c, 0, 89, 44
2, 392896, Note_off_c, 0, 89, 100
2, 392928, Note_on_c, 0, 87, 44
2, 392960, Note_off_c, 0, 66, 100
2, 392992, Note_off_c, 0, 87, 100
2, 393024, Note_on_c, 0, 85, 44
2, 393088, Note_off_c, 0, 85, 100
2, 393120, Note_on_c, 0, 84, 44
2, 393184, Note_off_c, 0, 84, 100
2, 393216, Note_on_c, 0, 82, 44
2, 393408, Note_on_c, 0, 65, 44
2, 393472, Note_off_c, 0, 82, 100
2, 393536, Note_off_c, 0, 65, 100
2, 393600, Note_on_c, 0, 81, 44
2, 393600, Note_on_c, 0, 72, 44
2, 393728, Note_off_c, 0, 72, 100
2, 393792, Note_on_c, 0, 75, 44
2, 393856, Note_off_c, 0, 81, 100
2, 393920, Note_off_c, 0, 75, 100
2, 393984, Note_on_c, 0, 66, 44
2, 394080, Note_on_c, 0, 87, 44
2, 394144, Note_off_c, 0, 87, 100
2, 394176, Note_on_c, 0, 86, 44
2, 394240, Note_off_c, 0, 86, 100
2, 394272, Note_on_c, 0, 87, 44
2, 394336, Note_off_c, 0, 87, 100
2, 394368, Note_on_c, 0, 89, 44
2, 394432, Note_off_c, 0, 89, 100
2, 394464, Note_on_c, 0, 87, 44
2, 394496, Note_off_c, 0, 66, 100
2, 394528, Note_off_c, 0, 87, 100
2, 394560, Note_on_c, 0, 85, 44
2, 394624, Note_off_c, 0, 85, 100
2, 394656, Note_on_c, 0, 84, 44
2, 394720, Note_off_c, 0, 84, 100
2, 394752, Note_on_c, 0, 82, 44
2, 394752, Note_on_c, 0, 65, 44
2, 394816, Note_off_c, 0, 82, 100
2, 394848, Note_on_c, 0, 81, 44
2, 394880, Note_off_c, 0, 65, 100
2, 394912, Note_off_c, 0, 81, 100
2, 394944, Note_on_c, 0, 87, 44
2, 395008, Note_off_c, 0, 87, 100
2, 395040, Note_on_c, 0, 85, 44
2, 395104, Note_off_c, 0, 85, 100
2, 395136, Note_on_c, 0, 89, 44
2, 395136, Note_on_c, 0, 75, 90
2, 395136, Note_on_c, 0, 72, 90
2, 395136, Note_on_c, 0, 67, 90
2, 395200, Note_off_c, 0, 89, 100
2, 395232, Note_on_c, 0, 87, 44
2, 395296, Note_off_c, 0, 87, 100
2, 395328, Note_on_c, 0, 85, 44
2, 395392, Note_off_c, 0, 67, 100
2, 395392, Note_off_c, 0, 85, 100
2, 395424, Note_on_c, 0, 84, 44
2, 395488, Note_off_c, 0, 84, 100
2, 395520, Note_on_c, 0, 82, 44
2, 395520, Note_on_c, 0, 65, 44
2, 395584, Note_off_c, 0, 82, 100
2, 395616, Note_on_c, 0, 81, 44
2, 395648, Note_off_c, 0, 75, 100
2, 395648, Note_off_c, 0, 72, 100
2, 395680, Note_off_c, 0, 81, 100
2, 395712, Note_on_c, 0, 87, 44
2, 395776, Note_off_c, 0, 65, 100
2, 395776, Note_off_c, 0, 87, 100
2, 395808, Note_on_c, 0, 86, 44
2, 395872, Note_off_c, 0, 86, 100
2, 395904, Note_on_c, 0, 89, 44
2, 395904, Note_on_c, 0, 66, 90
2, 395904, Note_on_c, 0, 72, 90
2, 395904, Note_on_c, 0, 75, 90
2, 395968, Note_off_c, 0, 89, 100
2, 396000, Note_on_c, 0, 87, 44
2, 396064, Note_off_c, 0, 87, 100
2, 396096, Note_on_c, 0, 85, 44
2, 396160, Note_off_c, 0, 66, 100
2, 396160, Note_off_c, 0, 72, 100
2, 396160, Note_off_c, 0, 75, 100
2, 396160, Note_off_c, 0, 85, 100
2, 396192, Note_on_c, 0, 84, 44
2, 396256, Note_off_c, 0, 84, 100
2, 396288, Note_on_c, 0, 82, 44
2, 396288, Note_on_c, 0, 65, 44
2, 396288, Note_on_c, 0, 72, 44
2, 396288, Note_on_c, 0, 75, 44
2, 396352, Note_off_c, 0, 82, 100
2, 396384, Note_on_c, 0, 81, 44
2, 396448, Note_off_c, 0, 81, 100
2, 396480, Note_on_c, 0, 84, 44
2, 396544, Note_off_c, 0, 65, 100
2, 396544, Note_off_c, 0, 72, 100
2, 396544, Note_off_c, 0, 75, 100
2, 396544, Note_off_c, 0, 84, 100
2, 396576, Note_on_c, 0, 83, 44
2, 396640, Note_off_c, 0, 83, 100
2, 396672, Note_on_c, 0, 86, 44
2, 396736, Note_off_c, 0, 86, 100
2, 396768, Note_on_c, 0, 84, 44
2, 396832, Note_off_c, 0, 84, 100
2, 396864, Note_on_c, 0, 82, 44
2, 396928, Note_off_c, 0, 82, 100
2, 396960, Note_on_c, 0, 81, 44
2, 397024, Note_off_c, 0, 81, 100
2, 397056, Note_on_c, 0, 79, 44
2, 397120, Note_off_c, 0, 79, 100
2, 397152, Note_on_c, 0, 77, 44
2, 397216, Note_off_c, 0, 77, 100
2, 397248, Note_on_c, 0, 79, 44
2, 397312, Note_off_c, 0, 79, 100
2, 397344, Note_on_c, 0, 78, 44
2, 397408, Note_off_c, 0, 78, 100
2, 397440, Note_on_c, 0, 81, 44
2, 397504, Note_off_c, 0, 81, 100
2, 397536, Note_on_c, 0, 79, 44
2, 397600, Note_off_c, 0, 79, 100
2, 397632, Note_on_c, 0, 77, 44
2, 397696, Note_off_c, 0, 77, 100
2, 397728, Note_on_c, 0, 75, 44
2, 397792, Note_off_c, 0, 75, 100
2, 397824, Note_on_c, 0, 74, 60
2, 397888, Note_off_c, 0, 74, 100
2, 397920, Note_on_c, 0, 72, 60
2, 397984, Note_off_c, 0, 72, 100
2, 398016, Note_on_c, 0, 74, 60
2, 398080, Note_off_c, 0, 74, 100
2, 398112, Note_on_c, 0, 75, 60
2, 398176, Note_off_c, 0, 75, 100
2, 398208, Note_on_c, 0, 76, 60
2, 398336, Note_off_c, 0, 76, 100
2, 398400, Note_on_c, 0, 77, 60
2, 398528, Note_off_c, 0, 77, 100
2, 398592, Note_on_c, 0, 79, 60
2, 398720, Note_off_c, 0, 79, 100
2, 398784, Note_on_c, 0, 77, 60
2, 398912, Note_off_c, 0, 77, 100
2, 398976, Note_on_c, 0, 75, 60
2, 399104, Note_off_c, 0, 75, 100
2, 399168, Note_on_c, 0, 74, 60
2, 399296, Note_off_c, 0, 74, 100
2, 399360, Note_on_c, 0, 72, 82
2, 399488, Note_off_c, 0, 72, 100
2, 399552, Note_on_c, 0, 70, 82
2, 399552, Note_on_c, 0, 58, 60
2, 399680, Note_off_c, 0, 70, 100
2, 399680, Note_off_c, 0, 58, 100
2, 399744, Note_on_c, 0, 70, 82
2, 399744, Note_on_c, 0, 62, 60
2, 399872, Note_off_c, 0, 62, 100
2, 399936, Note_on_c, 0, 65, 60
2, 400064, Note_off_c, 0, 65, 100
2, 400128, Note_off_c, 0, 70, 100
2, 400128, Note_on_c, 0, 62, 60
2, 400256, Note_off_c, 0, 62, 100
2, 400320, Note_on_c, 0, 74, 82
2, 400320, Note_on_c, 0, 58, 60
2, 400448, Note_off_c, 0, 74, 100
2, 400448, Note_off_c, 0, 58, 100
2, 400512, Note_on_c, 0, 79, 82
2, 400512, Note_on_c, 0, 62, 60
2, 400640, Note_off_c, 0, 79, 100
2, 400640, Note_off_c, 0, 62, 100
2, 400704, Note_on_c, 0, 74, 82
2, 400704, Note_on_c, 0, 67, 60
2, 400832, Note_off_c, 0, 74, 100
2, 400832, Note_off_c, 0, 67, 100
2, 400896, Note_on_c, 0, 77, 82
2, 401088, Note_on_c, 0, 60, 60
2, 401152, Note_off_c, 0, 77, 100
2, 401216, Note_off_c, 0, 60, 100
2, 401280, Note_on_c, 0, 75, 82
2, 401280, Note_on_c, 0, 63, 60
2, 401408, Note_off_c, 0, 63, 100
2, 401472, Note_on_c, 0, 67, 60
2, 401600, Note_off_c, 0, 67, 100
2, 401664, Note_off_c, 0, 75, 100
2, 401664, Note_on_c, 0, 63, 60
2, 401792, Note_off_c, 0, 63, 100
2, 401852, Note_on_c, 0, 60, 60
2, 401856, Note_on_c, 0, 77, 82
2, 401920, Note_off_c, 0, 77, 100
2, 401952, Note_on_c, 0, 79, 82
2, 401980, Note_off_c, 0, 60, 100
2, 402016, Note_off_c, 0, 79, 100
2, 402016, Note_on_c, 0, 77, 82
2, 402048, Note_on_c, 0, 63, 60
2, 402080, Note_off_c, 0, 77, 100
2, 402144, Note_on_c, 0, 75, 82
2, 402176, Note_off_c, 0, 63, 100
2, 402208, Note_off_c, 0, 75, 100
2, 402240, Note_on_c, 0, 74, 82
2, 402240, Note_on_c, 0, 67, 60
2, 402304, Note_off_c, 0, 74, 100
2, 402336, Note_on_c, 0, 72, 82
2, 402368, Note_off_c, 0, 67, 100
2, 402400, Note_off_c, 0, 72, 100
2, 402432, Note_on_c, 0, 70, 82
2, 402688, Note_off_c, 0, 70, 100
2, 402816, Note_on_c, 0, 69, 82
2, 403200, Note_off_c, 0, 69, 100
2, 403392, Note_on_c, 0, 69, 82
2, 403520, Note_off_c, 0, 69, 100
2, 403584, Note_on_c, 0, 70, 82
2, 403712, Note_off_c, 0, 70, 100
2, 403776, Note_on_c, 0, 72, 82
2, 403904, Note_off_c, 0, 72, 100
2, 403968, Note_on_c, 0, 72, 82
2, 403968, Note_on_c, 0, 69, 82
2, 404160, Note_on_c, 0, 58, 60
2, 404224, Note_off_c, 0, 72, 100
2, 404224, Note_off_c, 0, 69, 100
2, 404288, Note_off_c, 0, 58, 100
2, 404352, Note_on_c, 0, 74, 82
2, 404352, Note_on_c, 0, 70, 82
2, 404352, Note_on_c, 0, 62, 60
2, 404480, Note_off_c, 0, 62, 100
2, 404544, Note_on_c, 0, 65, 60
2, 404608, Note_off_c, 0, 74, 100
2, 404608, Note_off_c, 0, 70, 100
2, 404672, Note_off_c, 0, 65, 100
2, 404736, Note_on_c, 0, 62, 60
2, 404864, Note_off_c, 0, 62, 100
2, 404928, Note_on_c, 0, 77, 82
2, 404928, Note_on_c, 0, 58, 60
2, 404992, Note_off_c, 0, 77, 100
2, 405024, Note_on_c, 0, 76, 82
2, 405056, Note_off_c, 0, 58, 100
2, 405088, Note_off_c, 0, 76, 100
2, 405120, Note_on_c, 0, 79, 82
2, 405120, Note_on_c, 0, 62, 60
2, 405184, Note_off_c, 0, 79, 100
2, 405216, Note_on_c, 0, 77, 82
2, 405248, Note_off_c, 0, 62, 100
2, 405280, Note_off_c, 0, 77, 100
2, 405312, Note_on_c, 0, 75, 82
2, 405312, Note_on_c, 0, 65, 60
2, 405376, Note_off_c, 0, 75, 100
2, 405408, Note_on_c, 0, 74, 82
2, 405440, Note_off_c, 0, 65, 100
2, 405472, Note_off_c, 0, 74, 100
2, 405504, Note_on_c, 0, 74, 82
2, 405504, Note_on_c, 0, 64, 60
2, 405632, Note_off_c, 0, 74, 100
2, 405632, Note_off_c, 0, 64, 100
2, 405696, Note_on_c, 0, 72, 82
2, 405696, Note_on_c, 0, 67, 60
2, 405824, Note_off_c, 0, 67, 100
2, 405888, Note_on_c, 0, 62, 60
2, 405952, Note_off_c, 0, 72, 100
2, 406016, Note_off_c, 0, 62, 100
2, 406080, Note_on_c, 0, 70, 82
2, 406080, Note_on_c, 0, 65, 60
2, 406208, Note_off_c, 0, 70, 100
2, 406208, Note_off_c, 0, 65, 100
2, 406272, Note_on_c, 0, 74, 82
2, 406272, Note_on_c, 0, 64, 60
2, 406400, Note_off_c, 0, 74, 100
2, 406400, Note_off_c, 0, 64, 100
2, 406464, Note_on_c, 0, 72, 82
2, 406464, Note_on_c, 0, 67, 60
2, 406592, Note_off_c, 0, 67, 100
2, 406656, Note_on_c, 0, 60, 60
2, 406720, Note_off_c, 0, 72, 100
2, 406784, Note_off_c, 0, 60, 100
2, 406848, Note_on_c, 0, 69, 82
2, 406848, Note_on_c, 0, 64, 60
2, 406976, Note_off_c, 0, 69, 100
2, 406976, Note_off_c, 0, 64, 100
2, 407040, Note_on_c, 0, 70, 82
2, 407040, Note_on_c, 0, 62, 60
2, 407040, Note_on_c, 0, 65, 60
2, 407104, Note_off_c, 0, 70, 100
2, 407136, Note_on_c, 0, 72, 82
2, 407200, Note_off_c, 0, 72, 100
2, 407232, Note_on_c, 0, 70, 82
2, 407296, Note_off_c, 0, 62, 100
2, 407296, Note_off_c, 0, 65, 100
2, 407296, Note_off_c, 0, 70, 100
2, 407328, Note_on_c, 0, 69, 82
2, 407392, Note_off_c, 0, 69, 100
2, 407424, Note_on_c, 0, 70, 82
2, 407488, Note_off_c, 0, 70, 100
2, 407520, Note_on_c, 0, 72, 82
2, 407584, Note_off_c, 0, 72, 100
2, 407616, Note_on_c, 0, 74, 82
2, 407680, Note_off_c, 0, 74, 100
2, 407712, Note_on_c, 0, 75, 82
2, 407776, Note_off_c, 0, 75, 100
2, 407808, Note_on_c, 0, 76, 82
2, 407872, Note_off_c, 0, 76, 100
2, 407904, Note_on_c, 0, 77, 82
2, 407968, Note_off_c, 0, 77, 100
2, 408000, Note_on_c, 0, 76, 82
2, 408064, Note_off_c, 0, 76, 100
2, 408096, Note_on_c, 0, 77, 82
2, 408160, Note_off_c, 0, 77, 100
2, 408192, Note_on_c, 0, 79, 82
2, 408256, Note_off_c, 0, 79, 100
2, 408288, Note_on_c, 0, 77, 82
2, 408352, Note_off_c, 0, 77, 100
2, 408384, Note_on_c, 0, 75, 82
2, 408448, Note_off_c, 0, 75, 100
2, 408480, Note_on_c, 0, 74, 82
2, 408544, Note_off_c, 0, 74, 100
2, 408576, Note_on_c, 0, 74, 82
2, 408576, Note_on_c, 0, 64, 60
2, 408704, Note_off_c, 0, 74, 100
2, 408704, Note_off_c, 0, 64, 100
2, 408768, Note_on_c, 0, 72, 82
2, 408768, Note_on_c, 0, 67, 60
2, 408896, Note_off_c, 0, 72, 100
2, 408896, Note_off_c, 0, 67, 100
2, 408960, Note_on_c, 0, 72, 82
2, 408960, Note_on_c, 0, 62, 60
2, 409088, Note_off_c, 0, 72, 100
2, 409088, Note_off_c, 0, 62, 100
2, 409152, Note_on_c, 0, 70, 82
2, 409152, Note_on_c, 0, 65, 60
2, 409280, Note_off_c, 0, 70, 100
2, 409280, Note_off_c, 0, 65, 100
2, 409344, Note_on_c, 0, 74, 82
2, 409344, Note_on_c, 0, 64, 60
2, 409472, Note_off_c, 0, 74, 100
2, 409472, Note_off_c, 0, 64, 100
2, 409536, Note_on_c, 0, 72, 82
2, 409536, Note_on_c, 0, 67, 60
2, 409664, Note_off_c, 0, 72, 100
2, 409664, Note_off_c, 0, 67, 100
2, 409728, Note_on_c, 0, 72, 82
2, 409728, Note_on_c, 0, 60, 60
2, 409856, Note_off_c, 0, 72, 100
2, 409856, Note_off_c, 0, 60, 100
2, 409920, Note_on_c, 0, 69, 82
2, 409920, Note_on_c, 0, 64, 60
2, 410048, Note_off_c, 0, 69, 100
2, 410048, Note_off_c, 0, 64, 100
2, 410112, Note_on_c, 0, 70, 82
2, 410112, Note_on_c, 0, 65, 60
2, 410112, Note_on_c, 0, 62, 60
2, 410240, Note_off_c, 0, 70, 100
2, 410304, Note_on_c, 0, 72, 82
2, 410368, Note_off_c, 0, 65, 100
2, 410368, Note_off_c, 0, 62, 100
2, 410368, Note_off_c, 0, 72, 100
2, 410400, Note_on_c, 0, 74, 82
2, 410464, Note_off_c, 0, 74, 100
2, 410496, Note_on_c, 0, 75, 82
2, 410560, Note_off_c, 0, 75, 100
2, 410592, Note_on_c, 0, 77, 82
2, 410656, Note_off_c, 0, 77, 100
2, 410688, Note_on_c, 0, 79, 82
2, 410752, Note_off_c, 0, 79, 100
2, 410784, Note_on_c, 0, 81, 82
2, 410848, Note_off_c, 0, 81, 100
2, 410880, Note_on_c, 0, 82, 82
2, 410944, Note_off_c, 0, 82, 100
2, 410976, Note_on_c, 0, 84, 82
2, 411040, Note_off_c, 0, 84, 100
2, 411072, Note_on_c, 0, 86, 82
2, 411136, Note_off_c, 0, 86, 100
2, 411168, Note_on_c, 0, 87, 82
2, 411232, Note_off_c, 0, 87, 100
2, 411264, Note_on_c, 0, 89, 82
2, 411392, Note_off_c, 0, 89, 100
2, 411456, Note_on_c, 0, 89, 82
2, 411584, Note_off_c, 0, 89, 100
2, 411648, Note_on_c, 0, 89, 90
2, 411648, Note_on_c, 0, 77, 90
2, 411776, Note_off_c, 0, 89, 100
2, 411840, Note_on_c, 0, 87, 90
2, 412096, Note_off_c, 0, 87, 100
2, 412160, Note_off_c, 0, 77, 100
2, 412224, Note_on_c, 0, 86, 90
2, 412352, Note_off_c, 0, 86, 100
2, 412416, Note_on_c, 0, 86, 90
2, 412416, Note_on_c, 0, 77, 90
2, 412544, Note_off_c, 0, 86, 100
2, 412544, Note_off_c, 0, 77, 100
2, 412608, Note_on_c, 0, 84, 90
2, 412608, Note_on_c, 0, 75, 90
2, 412736, Note_off_c, 0, 84, 100
2, 412736, Note_off_c, 0, 75, 100
2, 412800, Note_on_c, 0, 82, 90
2, 412800, Note_on_c, 0, 74, 90
2, 412928, Note_off_c, 0, 82, 100
2, 412928, Note_off_c, 0, 74, 100
2, 412992, Note_on_c, 0, 81, 90
2, 412992, Note_on_c, 0, 72, 90
2, 413120, Note_off_c, 0, 81, 100
2, 413120, Note_off_c, 0, 72, 100
2, 413184, Note_on_c, 0, 82, 90
2, 413184, Note_on_c, 0, 74, 90
2, 413440, Note_off_c, 0, 82, 100
2, 413440, Note_off_c, 0, 74, 100
2, 413568, Note_on_c, 0, 70, 90
2, 413824, Note_off_c, 0, 70, 100
2, 414336, Note_on_c, 0, 67, 60
2, 414400, Note_off_c, 0, 67, 100
2, 414432, Note_on_c, 0, 65, 60
2, 414496, Note_off_c, 0, 65, 100
2, 414528, Note_on_c, 0, 63, 60
2, 414592, Note_off_c, 0, 63, 100
2, 414624, Note_on_c, 0, 62, 60
2, 414688, Note_off_c, 0, 62, 100
2, 414720, Note_on_c, 0, 60, 60
2, 414848, Note_off_c, 0, 60, 100
2, 414912, Note_on_c, 0, 58, 60
2, 415040, Note_off_c, 0, 58, 100
2, 415104, Note_on_c, 0, 58, 60
2, 415488, Note_off_c, 0, 58, 100
2, 415680, Note_on_c, 0, 70, 60
2, 415808, Note_off_c, 0, 70, 100
2, 415872, Note_on_c, 0, 70, 60
2, 416000, Note_off_c, 0, 70, 100
2, 416064, Note_on_c, 0, 72, 60
2, 416192, Note_off_c, 0, 72, 100
2, 416256, Note_on_c, 0, 70, 60
2, 416384, Note_off_c, 0, 70, 100
2, 416448, Note_on_c, 0, 69, 60
2, 416576, Note_off_c, 0, 69, 100
2, 416640, Note_on_c, 0, 68, 60
2, 417024, Note_off_c, 0, 68, 100
2, 417216, Note_on_c, 0, 68, 60
2, 417344, Note_off_c, 0, 68, 100
2, 417408, Note_on_c, 0, 68, 60
2, 417536, Note_off_c, 0, 68, 100
2, 417600, Note_on_c, 0, 68, 60
2, 417728, Note_off_c, 0, 68, 100
2, 417792, Note_on_c, 0, 80, 90
2, 417856, Note_off_c, 0, 80, 100
2, 417888, Note_on_c, 0, 82, 90
2, 417952, Note_off_c, 0, 82, 100
2, 417984, Note_on_c, 0, 79, 90
2, 418048, Note_off_c, 0, 79, 100
2, 418080, Note_on_c, 0, 80, 90
2, 418144, Note_off_c, 0, 80, 100
2, 418176, Note_on_c, 0, 77, 90
2, 418240, Note_off_c, 0, 77, 100
2, 418272, Note_on_c, 0, 79, 90
2, 418336, Note_off_c, 0, 79, 100
2, 418368, Note_on_c, 0, 75, 90
2, 418432, Note_off_c, 0, 75, 100
2, 418464, Note_on_c, 0, 77, 90
2, 418528, Note_off_c, 0, 77, 100
2, 418560, Note_on_c, 0, 74, 90
2, 418624, Note_off_c, 0, 74, 100
2, 418656, Note_on_c, 0, 75, 90
2, 418720, Note_off_c, 0, 75, 100
2, 418752, Note_on_c, 0, 72, 90
2, 418816, Note_off_c, 0, 72, 100
2, 418848, Note_on_c, 0, 74, 90
2, 418912, Note_off_c, 0, 74, 100
2, 418944, Note_on_c, 0, 70, 90
2, 419008, Note_off_c, 0, 70, 100
2, 419040, Note_on_c, 0, 72, 90
2, 419104, Note_off_c, 0, 72, 100
2, 419136, Note_on_c, 0, 68, 90
2, 419200, Note_off_c, 0, 68, 100
2, 419232, Note_on_c, 0, 70, 90
2, 419296, Note_off_c, 0, 70, 100
2, 419328, Note_on_c, 0, 68, 60
2, 419456, Note_off_c, 0, 68, 100
2, 419520, Note_on_c, 0, 67, 60
2, 419708, Note_off_c, 0, 67, 0
2, 419712, Note_on_c, 0, 67, 60
2, 420284, Note_off_c, 0, 67, 0
2, 420288, Note_on_c, 0, 77, 60
2, 420416, Note_off_c, 0, 77, 100
2, 420480, Note_on_c, 0, 79, 60
2, 420608, Note_off_c, 0, 79, 100
2, 420672, Note_on_c, 0, 77, 60
2, 420800, Note_off_c, 0, 77, 100
2, 420864, Note_on_c, 0, 77, 60
2, 420992, Note_off_c, 0, 77, 100
2, 421056, Note_on_c, 0, 76, 60
2, 421056, Note_on_c, 0, 58, 60
2, 421184, Note_off_c, 0, 76, 100
2, 421184, Note_off_c, 0, 58, 100
2, 421248, Note_on_c, 0, 76, 60
2, 421248, Note_on_c, 0, 61, 60
2, 421376, Note_off_c, 0, 61, 100
2, 421440, Note_on_c, 0, 64, 60
2, 421568, Note_off_c, 0, 64, 100
2, 421632, Note_off_c, 0, 76, 100
2, 421632, Note_on_c, 0, 69, 60
2, 421824, Note_on_c, 0, 85, 60
2, 421888, Note_off_c, 0, 69, 100
2, 421952, Note_off_c, 0, 85, 100
2, 422016, Note_on_c, 0, 85, 60
2, 422144, Note_off_c, 0, 85, 100
2, 422208, Note_on_c, 0, 76, 60
2, 422336, Note_off_c, 0, 76, 100
2, 422400, Note_on_c, 0, 79, 60
2, 422528, Note_off_c, 0, 79, 100
2, 422592, Note_on_c, 0, 77, 60
2, 422592, Note_on_c, 0, 57, 60
2, 422720, Note_off_c, 0, 77, 100
2, 422720, Note_off_c, 0, 57, 100
2, 422784, Note_on_c, 0, 77, 60
2, 422784, Note_on_c, 0, 60, 60
2, 422912, Note_off_c, 0, 60, 100
2, 422976, Note_on_c, 0, 65, 60
2, 423104, Note_off_c, 0, 65, 100
2, 423168, Note_off_c, 0, 77, 100
2, 423168, Note_on_c, 0, 69, 60
2, 423360, Note_on_c, 0, 77, 60
2, 423424, Note_off_c, 0, 69, 100
2, 423488, Note_off_c, 0, 77, 100
2, 423552, Note_on_c, 0, 79, 60
2, 423680, Note_off_c, 0, 79, 100
2, 423744, Note_on_c, 0, 75, 60
2, 423872, Note_off_c, 0, 75, 100
2, 423936, Note_on_c, 0, 73, 60
2, 424064, Note_off_c, 0, 73, 100
2, 424128, Note_on_c, 0, 74, 60
2, 424128, Note_on_c, 0, 59, 60
2, 424256, Note_off_c, 0, 74, 100
2, 424256, Note_off_c, 0, 59, 100
2, 424320, Note_on_c, 0, 74, 60
2, 424320, Note_on_c, 0, 62, 60
2, 424448, Note_off_c, 0, 62, 100
2, 424512, Note_on_c, 0, 65, 60
2, 424576, Note_off_c, 0, 74, 100
2, 424640, Note_off_c, 0, 65, 100
2, 424704, Note_on_c, 0, 70, 60
2, 424896, Note_on_c, 0, 77, 60
2, 424960, Note_off_c, 0, 70, 100
2, 425024, Note_off_c, 0, 77, 100
2, 425088, Note_on_c, 0, 79, 60
2, 425152, Note_off_c, 0, 79, 100
2, 425184, Note_on_c, 0, 77, 60
2, 425248, Note_off_c, 0, 77, 100
2, 425280, Note_on_c, 0, 75, 60
2, 425344, Note_off_c, 0, 75, 100
2, 425376, Note_on_c, 0, 74, 60
2, 425440, Note_off_c, 0, 74, 100
2, 425472, Note_on_c, 0, 72, 60
2, 425472, Note_on_c, 0, 64, 60
2, 425600, Note_off_c, 0, 64, 100
2, 425664, Note_on_c, 0, 65, 60
2, 425792, Note_off_c, 0, 65, 100
2, 425856, Note_off_c, 0, 72, 100
2, 425856, Note_on_c, 0, 64, 60
2, 425984, Note_off_c, 0, 64, 100
2, 426048, Note_on_c, 0, 69, 60
2, 426048, Note_on_c, 0, 65, 60
2, 426176, Note_off_c, 0, 69, 100
2, 426176, Note_off_c, 0, 65, 100
2, 426240, Note_on_c, 0, 70, 60
2, 426240, Note_on_c, 0, 62, 60
2, 426304, Note_off_c, 0, 70, 100
2, 426336, Note_on_c, 0, 77, 60
2, 426368, Note_off_c, 0, 62, 100
2, 426400, Note_off_c, 0, 77, 100
2, 426432, Note_on_c, 0, 76, 60
2, 426432, Note_on_c, 0, 65, 60
2, 426496, Note_off_c, 0, 76, 100
2, 426528, Note_on_c, 0, 77, 60
2, 426560, Note_off_c, 0, 65, 100
2, 426592, Note_off_c, 0, 77, 100
2, 426624, Note_on_c, 0, 79, 60
2, 426624, Note_on_c, 0, 62, 60
2, 426688, Note_off_c, 0, 79, 100
2, 426720, Note_on_c, 0, 77, 60
2, 426752, Note_off_c, 0, 62, 100
2, 426784, Note_off_c, 0, 77, 100
2, 426816, Note_on_c, 0, 75, 60
2, 426816, Note_on_c, 0, 65, 60
2, 426880, Note_off_c, 0, 75, 100
2, 426912, Note_on_c, 0, 74, 60
2, 426944, Note_off_c, 0, 65, 100
2, 426976, Note_off_c, 0, 74, 100
2, 427008, Note_on_c, 0, 72, 60
2, 427008, Note_on_c, 0, 64, 60
2, 427136, Note_off_c, 0, 72, 100
2, 427136, Note_off_c, 0, 64, 100
2, 427200, Note_on_c, 0, 72, 60
2, 427200, Note_on_c, 0, 65, 60
2, 427328, Note_off_c, 0, 65, 100
2, 427392, Note_on_c, 0, 64, 60
2, 427456, Note_off_c, 0, 72, 100
2, 427520, Note_off_c, 0, 64, 100
2, 427584, Note_on_c, 0, 69, 60
2, 427584, Note_on_c, 0, 65, 60
2, 427712, Note_off_c, 0, 69, 100
2, 427712, Note_off_c, 0, 65, 100
2, 427776, Note_on_c, 0, 70, 60
2, 427776, Note_on_c, 0, 62, 60
2, 427840, Note_off_c, 0, 70, 100
2, 427872, Note_on_c, 0, 77, 60
2, 427904, Note_off_c, 0, 62, 100
2, 427936, Note_off_c, 0, 77, 100
2, 427968, Note_on_c, 0, 76, 60
2, 427968, Note_on_c, 0, 65, 60
2, 428032, Note_off_c, 0, 76, 100
2, 428064, Note_on_c, 0, 77, 60
2, 428096, Note_off_c, 0, 65, 100
2, 428128, Note_off_c, 0, 77, 100
2, 428160, Note_on_c, 0, 79, 60
2, 428160, Note_on_c, 0, 62, 60
2, 428224, Note_off_c, 0, 79, 100
2, 428256, Note_on_c, 0, 77, 60
2, 428288, Note_off_c, 0, 62, 100
2, 428320, Note_off_c, 0, 77, 100
2, 428352, Note_on_c, 0, 75, 60
2, 428352, Note_on_c, 0, 65, 60
2, 428416, Note_off_c, 0, 75, 100
2, 428448, Note_on_c, 0, 74, 60
2, 428480, Note_off_c, 0, 65, 100
2, 428512, Note_off_c, 0, 74, 100
2, 428544, Note_on_c, 0, 74, 60
2, 428544, Note_on_c, 0, 64, 60
2, 428672, Note_off_c, 0, 74, 100
2, 428672, Note_off_c, 0, 64, 100
2, 428736, Note_on_c, 0, 72, 60
2, 428736, Note_on_c, 0, 67, 60
2, 428864, Note_off_c, 0, 72, 100
2, 428864, Note_off_c, 0, 67, 100
2, 428928, Note_on_c, 0, 64, 60
2, 429056, Note_off_c, 0, 64, 100
2, 429120, Note_on_c, 0, 72, 60
2, 429120, Note_on_c, 0, 67, 60
2, 429248, Note_off_c, 0, 72, 100
2, 429248, Note_off_c, 0, 67, 100
2, 429312, Note_on_c, 0, 72, 60
2, 429312, Note_on_c, 0, 64, 60
2, 429440, Note_off_c, 0, 72, 100
2, 429440, Note_off_c, 0, 64, 100
2, 429504, Note_on_c, 0, 70, 60
2, 429504, Note_on_c, 0, 67, 60
2, 429632, Note_off_c, 0, 70, 100
2, 429632, Note_off_c, 0, 67, 100
2, 429696, Note_on_c, 0, 64, 60
2, 429824, Note_off_c, 0, 64, 100
2, 429888, Note_on_c, 0, 70, 60
2, 429888, Note_on_c, 0, 67, 60
2, 430016, Note_off_c, 0, 70, 100
2, 430016, Note_off_c, 0, 67, 100
2, 430080, Note_on_c, 0, 69, 60
2, 430144, Note_off_c, 0, 69, 100
2, 430176, Note_on_c, 0, 70, 60
2, 430240, Note_off_c, 0, 70, 100
2, 430272, Note_on_c, 0, 69, 60
2, 430336, Note_off_c, 0, 69, 100
2, 430368, Note_on_c, 0, 65, 60
2, 430432, Note_off_c, 0, 65, 100
2, 430464, Note_on_c, 0, 70, 60
2, 430528, Note_off_c, 0, 70, 100
2, 430560, Note_on_c, 0, 72, 60
2, 430624, Note_off_c, 0, 72, 100
2, 430656, Note_on_c, 0, 70, 60
2, 430720, Note_off_c, 0, 70, 100
2, 430752, Note_on_c, 0, 65, 60
2, 430816, Note_off_c, 0, 65, 100
2, 430848, Note_on_c, 0, 72, 60
2, 430912, Note_off_c, 0, 72, 100
2, 430944, Note_on_c, 0, 74, 60
2, 431008, Note_off_c, 0, 74, 100
2, 431040, Note_on_c, 0, 72, 60
2, 431104, Note_off_c, 0, 72, 100
2, 431136, Note_on_c, 0, 65, 60
2, 431200, Note_off_c, 0, 65, 100
2, 431232, Note_on_c, 0, 74, 60
2, 431296, Note_off_c, 0, 74, 100
2, 431328, Note_on_c, 0, 75, 60
2, 431392, Note_off_c, 0, 75, 100
2, 431424, Note_on_c, 0, 74, 60
2, 431488, Note_off_c, 0, 74, 100
2, 431488, Note_on_c, 0, 65, 60
2, 431552, Note_off_c, 0, 65, 100
2, 431616, Note_on_c, 0, 75, 60
2, 431744, Note_off_c, 0, 75, 100
2, 431808, Note_on_c, 0, 75, 60
2, 431936, Note_off_c, 0, 75, 100
2, 432192, Note_on_c, 0, 72, 60
2, 432320, Note_off_c, 0, 72, 100
2, 432384, Note_on_c, 0, 75, 60
2, 432512, Note_off_c, 0, 75, 100
2, 432576, Note_on_c, 0, 74, 60
2, 432704, Note_off_c, 0, 74, 100
2, 432768, Note_on_c, 0, 72, 60
2, 432896, Note_off_c, 0, 72, 100
2, 432960, Note_on_c, 0, 70, 60
2, 433088, Note_off_c, 0, 70, 100
2, 433152, Note_on_c, 0, 69, 60
2, 433216, Note_off_c, 0, 69, 100
2, 433248, Note_on_c, 0, 65, 60
2, 433312, Note_off_c, 0, 65, 100
2, 433344, Note_on_c, 0, 76, 60
2, 433408, Note_off_c, 0, 76, 100
2, 433440, Note_on_c, 0, 77, 60
2, 433504, Note_off_c, 0, 77, 100
2, 433536, Note_on_c, 0, 70, 60
2, 433600, Note_off_c, 0, 70, 100
2, 433632, Note_on_c, 0, 65, 60
2, 433696, Note_off_c, 0, 65, 100
2, 433728, Note_on_c, 0, 76, 60
2, 433792, Note_off_c, 0, 76, 100
2, 433824, Note_on_c, 0, 77, 60
2, 433888, Note_off_c, 0, 77, 100
2, 433920, Note_on_c, 0, 72, 60
2, 433984, Note_off_c, 0, 72, 100
2, 434016, Note_on_c, 0, 65, 60
2, 434080, Note_off_c, 0, 65, 100
2, 434112, Note_on_c, 0, 76, 60
2, 434176, Note_off_c, 0, 76, 100
2, 434208, Note_on_c, 0, 77, 60
2, 434272, Note_off_c, 0, 77, 100
2, 434304, Note_on_c, 0, 74, 60
2, 434368, Note_off_c, 0, 74, 100
2, 434400, Note_on_c, 0, 65, 60
2, 434464, Note_off_c, 0, 65, 100
2, 434496, Note_on_c, 0, 76, 60
2, 434560, Note_off_c, 0, 76, 100
2, 434592, Note_on_c, 0, 77, 60
2, 434656, Note_off_c, 0, 77, 100
2, 434688, Note_on_c, 0, 75, 60
2, 434816, Note_off_c, 0, 75, 100
2, 434880, Note_on_c, 0, 75, 60
2, 435008, Note_off_c, 0, 75, 100
2, 435264, Note_on_c, 0, 72, 60
2, 435392, Note_off_c, 0, 72, 100
2, 435456, Note_on_c, 0, 75, 60
2, 435584, Note_off_c, 0, 75, 100
2, 435648, Note_on_c, 0, 74, 60
2, 435776, Note_off_c, 0, 74, 100
2, 435840, Note_on_c, 0, 72, 60
2, 435968, Note_off_c, 0, 72, 100
2, 436032, Note_on_c, 0, 70, 60
2, 436160, Note_off_c, 0, 70, 100
2, 436224, Note_on_c, 0, 69, 60
2, 436288, Note_off_c, 0, 69, 100
2, 436320, Note_on_c, 0, 77, 60
2, 436384, Note_off_c, 0, 77, 100
2, 436416, Note_on_c, 0, 72, 60
2, 436480, Note_off_c, 0, 72, 100
2, 436512, Note_on_c, 0, 69, 60
2, 436576, Note_off_c, 0, 69, 100
2, 436608, Note_on_c, 0, 65, 60
2, 436672, Note_off_c, 0, 65, 100
2, 437820, Note_on_c, 0, 62, 90
2, 437836, Note_on_c, 0, 65, 90
2, 438204, Note_off_c, 0, 62, 100
2, 438220, Note_off_c, 0, 65, 100
2, 438336, Note_on_c, 0, 67, 60
2, 438400, Note_off_c, 0, 67, 100
2, 438432, Note_on_c, 0, 65, 60
2, 438496, Note_off_c, 0, 65, 100
2, 438528, Note_on_c, 0, 63, 60
2, 438656, Note_off_c, 0, 63, 100
2, 438720, Note_on_c, 0, 62, 60
2, 438848, Note_off_c, 0, 62, 100
2, 438912, Note_on_c, 0, 60, 60
2, 439040, Note_off_c, 0, 60, 100
2, 439104, Note_on_c, 0, 58, 60
2, 439232, Note_off_c, 0, 58, 100
2, 439296, Note_on_c, 0, 58, 60
2, 439424, Note_off_c, 0, 58, 100
2, 439488, Note_on_c, 0, 67, 60
2, 439616, Note_off_c, 0, 67, 100
2, 439680, Note_on_c, 0, 67, 90
2, 439680, Note_on_c, 0, 58, 90
2, 440064, Note_off_c, 0, 67, 100
2, 440064, Note_off_c, 0, 58, 100
2, 440256, Note_on_c, 0, 65, 60
2, 440384, Note_off_c, 0, 65, 100
2, 440448, Note_on_c, 0, 69, 60
2, 440576, Note_off_c, 0, 69, 100
2, 440640, Note_on_c, 0, 70, 60
2, 440768, Note_off_c, 0, 70, 100
2, 440832, Note_on_c, 0, 70, 60
2, 440960, Note_off_c, 0, 70, 100
2, 441024, Note_on_c, 0, 60, 60
2, 441280, Note_off_c, 0, 60, 100
2, 441408, Note_on_c, 0, 62, 60
2, 441536, Note_off_c, 0, 62, 100
2, 441600, Note_on_c, 0, 70, 60
2, 441728, Note_off_c, 0, 70, 100
2, 441792, Note_on_c, 0, 60, 60
2, 442048, Note_off_c, 0, 60, 100
2, 442176, Note_on_c, 0, 62, 60
2, 442304, Note_off_c, 0, 62, 100
2, 442368, Note_on_c, 0, 65, 60
2, 442624, Note_off_c, 0, 65, 100
2, 442752, Note_on_c, 0, 63, 60
2, 442944, Note_off_c, 0, 63, 100
2, 442944, Note_on_c, 0, 62, 60
2, 443008, Note_off_c, 0, 62, 100
2, 443040, Note_on_c, 0, 63, 60
2, 443104, Note_off_c, 0, 63, 100
2, 443136, Note_on_c, 0, 62, 60
2, 443264, Note_off_c, 0, 62, 100
2, 443328, Note_on_c, 0, 62, 60
2, 443456, Note_off_c, 0, 62, 100
2, 443520, Note_on_c, 0, 63, 60
2, 443648, Note_off_c, 0, 63, 100
2, 443712, Note_on_c, 0, 65, 60
2, 443840, Note_off_c, 0, 65, 100
2, 443904, Note_on_c, 0, 66, 60
2, 444032, Note_off_c, 0, 66, 100
2, 444096, Note_on_c, 0, 67, 60
2, 444352, Note_off_c, 0, 67, 100
2, 444480, Note_on_c, 0, 65, 60
2, 444544, Note_off_c, 0, 65, 100
2, 444576, Note_on_c, 0, 63, 60
2, 444640, Note_off_c, 0, 63, 100
2, 444672, Note_on_c, 0, 62, 60
2, 444800, Note_off_c, 0, 62, 100
2, 444864, Note_on_c, 0, 60, 60
2, 444992, Note_off_c, 0, 60, 100
2, 445056, Note_on_c, 0, 62, 60
2, 445184, Note_off_c, 0, 62, 100
2, 445248, Note_on_c, 0, 63, 60
2, 445376, Note_off_c, 0, 63, 100
2, 445440, Note_on_c, 0, 67, 60
2, 445568, Note_off_c, 0, 67, 100
2, 445632, Note_on_c, 0, 65, 60
2, 446016, Note_off_c, 0, 65, 100
2, 446016, Note_on_c, 0, 63, 60
2, 446080, Note_off_c, 0, 63, 100
2, 446112, Note_on_c, 0, 62, 60
2, 446176, Note_off_c, 0, 62, 100
2, 446208, Note_on_c, 0, 60, 60
2, 446336, Note_off_c, 0, 60, 100
2, 446400, Note_on_c, 0, 58, 60
2, 446528, Note_off_c, 0, 58, 100
2, 446592, Note_on_c, 0, 60, 60
2, 446720, Note_off_c, 0, 60, 100
2, 446784, Note_on_c, 0, 62, 60
2, 446912, Note_off_c, 0, 62, 100
2, 446976, Note_on_c, 0, 65, 60
2, 447104, Note_off_c, 0, 65, 100
2, 447168, Note_on_c, 0, 63, 60
2, 447424, Note_off_c, 0, 63, 100
2, 447520, Note_on_c, 0, 60, 60
2, 447648, Note_off_c, 0, 60, 100
2, 447744, Note_on_c, 0, 63, 60
2, 447872, Note_off_c, 0, 63, 100
2, 447936, Note_on_c, 0, 62, 60
2, 448192, Note_off_c, 0, 62, 100
2, 448320, Note_on_c, 0, 58, 60
2, 448448, Note_off_c, 0, 58, 100
2, 448512, Note_on_c, 0, 57, 60
2, 448576, Note_off_c, 0, 57, 100
2, 448608, Note_on_c, 0, 58, 60
2, 448672, Note_off_c, 0, 58, 100
2, 448704, Note_on_c, 0, 59, 60
2, 448768, Note_off_c, 0, 59, 100
2, 448800, Note_on_c, 0, 60, 60
2, 448864, Note_off_c, 0, 60, 100
2, 448896, Note_on_c, 0, 61, 60
2, 448960, Note_off_c, 0, 61, 100
2, 448992, Note_on_c, 0, 62, 60
2, 449056, Note_off_c, 0, 62, 100
2, 449088, Note_on_c, 0, 63, 60
2, 449152, Note_off_c, 0, 63, 100
2, 449184, Note_on_c, 0, 64, 60
2, 449248, Note_off_c, 0, 64, 100
2, 449280, Note_on_c, 0, 65, 60
2, 449536, Note_off_c, 0, 65, 100
2, 450048, Note_on_c, 0, 65, 90
2, 450060, Note_on_c, 0, 70, 90
2, 450076, Note_on_c, 0, 74, 90
2, 450092, Note_on_c, 0, 77, 90
2, 450432, Note_off_c, 0, 65, 100
2, 450444, Note_off_c, 0, 70, 100
2, 450460, Note_off_c, 0, 74, 100
2, 450476, Note_off_c, 0, 77, 100
2, 450624, Note_on_c, 0, 79, 60
2, 450688, Note_off_c, 0, 79, 100
2, 450720, Note_on_c, 0, 77, 60
2, 450784, Note_off_c, 0, 77, 100
2, 450816, Note_on_c, 0, 75, 60
2, 450944, Note_off_c, 0, 75, 100
2, 451008, Note_on_c, 0, 74, 60
2, 451136, Note_off_c, 0, 74, 100
2, 451200, Note_on_c, 0, 72, 60
2, 451328, Note_off_c, 0, 72, 100
2, 451392, Note_on_c, 0, 70, 60
2, 451520, Note_off_c, 0, 70, 100
2, 451584, Note_on_c, 0, 70, 60
2, 451712, Note_off_c, 0, 70, 100
2, 451776, Note_on_c, 0, 79, 60
2, 451904, Note_off_c, 0, 79, 100
2, 451968, Note_on_c, 0, 79, 90
2, 451968, Note_on_c, 0, 70, 90
2, 452352, Note_off_c, 0, 79, 100
2, 452352, Note_off_c, 0, 70, 100
2, 452544, Note_on_c, 0, 77, 60
2, 452672, Note_off_c, 0, 77, 100
2, 452736, Note_on_c, 0, 81, 60
2, 452864, Note_off_c, 0, 81, 100
2, 452928, Note_on_c, 0, 82, 60
2, 453056, Note_off_c, 0, 82, 100
2, 453120, Note_on_c, 0, 82, 60
2, 453120, Note_on_c, 0, 64, 60
2, 453120, Note_on_c, 0, 67, 60
2, 453248, Note_off_c, 0, 82, 100
2, 453312, Note_on_c, 0, 72, 60
2, 453376, Note_off_c, 0, 64, 100
2, 453376, Note_off_c, 0, 67, 100
2, 453440, Note_off_c, 0, 72, 100
2, 453504, Note_on_c, 0, 74, 60
2, 453504, Note_on_c, 0, 65, 60
2, 453632, Note_off_c, 0, 74, 100
2, 453696, Note_on_c, 0, 82, 60
2, 453760, Note_off_c, 0, 65, 100
2, 453824, Note_off_c, 0, 82, 100
2, 453888, Note_on_c, 0, 82, 60
2, 453888, Note_on_c, 0, 64, 60
2, 453888, Note_on_c, 0, 67, 60
2, 454016, Note_off_c, 0, 82, 100
2, 454080, Note_on_c, 0, 72, 60
2, 454144, Note_off_c, 0, 64, 100
2, 454144, Note_off_c, 0, 67, 100
2, 454208, Note_off_c, 0, 72, 100
2, 454272, Note_on_c, 0, 74, 60
2, 454272, Note_on_c, 0, 65, 60
2, 454400, Note_off_c, 0, 74, 100
2, 454464, Note_on_c, 0, 82, 60
2, 454528, Note_off_c, 0, 65, 100
2, 454592, Note_off_c, 0, 82, 100
2, 454656, Note_on_c, 0, 77, 60
2, 454656, Note_on_c, 0, 70, 60
2, 454656, Note_on_c, 0, 67, 60
2, 454912, Note_off_c, 0, 77, 100
2, 454912, Note_off_c, 0, 70, 100
2, 454912, Note_off_c, 0, 67, 100
2, 455040, Note_on_c, 0, 75, 60
2, 455040, Note_on_c, 0, 72, 60
2, 455040, Note_on_c, 0, 69, 60
2, 455168, Note_off_c, 0, 75, 100
2, 455232, Note_on_c, 0, 75, 60
2, 455296, Note_off_c, 0, 72, 100
2, 455296, Note_off_c, 0, 69, 100
2, 455360, Note_off_c, 0, 75, 100
2, 455424, Note_on_c, 0, 74, 60
2, 455424, Note_on_c, 0, 70, 60
2, 455552, Note_off_c, 0, 74, 100
2, 455616, Note_on_c, 0, 74, 60
2, 455680, Note_off_c, 0, 70, 100
2, 455744, Note_off_c, 0, 74, 100
2, 455808, Note_on_c, 0, 75, 60
2, 455936, Note_off_c, 0, 75, 100
2, 456000, Note_on_c, 0, 77, 60
2, 456128, Note_off_c, 0, 77, 100
2, 456192, Note_on_c, 0, 78, 90
2, 456320, Note_off_c, 0, 78, 100
2, 456384, Note_on_c, 0, 79, 90
2, 456768, Note_off_c, 0, 79, 100
2, 456768, Note_on_c, 0, 81, 90
2, 456832, Note_off_c, 0, 81, 100
2, 456864, Note_on_c, 0, 83, 90
2, 456928, Note_off_c, 0, 83, 100
2, 456960, Note_on_c, 0, 84, 90
2, 457024, Note_off_c, 0, 84, 100
2, 457056, Note_on_c, 0, 86, 90
2, 457120, Note_off_c, 0, 86, 100
2, 457152, Note_on_c, 0, 87, 90
2, 457216, Note_off_c, 0, 87, 100
2, 457248, Note_on_c, 0, 86, 90
2, 457312, Note_off_c, 0, 86, 100
2, 457344, Note_on_c, 0, 84, 90
2, 457408, Note_off_c, 0, 84, 100
2, 457440, Note_on_c, 0, 86, 90
2, 457504, Note_off_c, 0, 86, 100
2, 457536, Note_on_c, 0, 82, 90
2, 457600, Note_off_c, 0, 82, 100
2, 457632, Note_on_c, 0, 84, 90
2, 457696, Note_off_c, 0, 84, 100
2, 457728, Note_on_c, 0, 81, 90
2, 457792, Note_off_c, 0, 81, 100
2, 457824, Note_on_c, 0, 82, 90
2, 457888, Note_off_c, 0, 82, 100
2, 457920, Note_on_c, 0, 79, 90
2, 457984, Note_off_c, 0, 79, 100
2, 458016, Note_on_c, 0, 81, 90
2, 458080, Note_off_c, 0, 81, 100
2, 458112, Note_on_c, 0, 77, 90
2, 458176, Note_off_c, 0, 77, 100
2, 458208, Note_on_c, 0, 79, 90
2, 458272, Note_off_c, 0, 79, 100
2, 458304, Note_on_c, 0, 75, 90
2, 458368, Note_off_c, 0, 75, 100
2, 458400, Note_on_c, 0, 77, 90
2, 458464, Note_off_c, 0, 77, 100
2, 458496, Note_on_c, 0, 74, 90
2, 458560, Note_off_c, 0, 74, 100
2, 458592, Note_on_c, 0, 75, 90
2, 458656, Note_off_c, 0, 75, 100
2, 458688, Note_on_c, 0, 77, 90
2, 458752, Note_off_c, 0, 77, 100
2, 458784, Note_on_c, 0, 79, 90
2, 458848, Note_off_c, 0, 79, 100
2, 458880, Note_on_c, 0, 81, 90
2, 458944, Note_off_c, 0, 81, 100
2, 458976, Note_on_c, 0, 82, 90
2, 459040, Note_off_c, 0, 82, 100
2, 459072, Note_on_c, 0, 81, 90
2, 459136, Note_off_c, 0, 81, 100
2, 459168, Note_on_c, 0, 82, 90
2, 459232, Note_off_c, 0, 82, 100
2, 459264, Note_on_c, 0, 84, 90
2, 459328, Note_off_c, 0, 84, 100
2, 459360, Note_on_c, 0, 82, 90
2, 459424, Note_off_c, 0, 82, 100
2, 459456, Note_on_c, 0, 81, 90
2, 459520, Note_off_c, 0, 81, 100
2, 459552, Note_on_c, 0, 79, 90
2, 459616, Note_off_c, 0, 79, 100
2, 459648, Note_on_c, 0, 81, 90
2, 459712, Note_off_c, 0, 81, 100
2, 459744, Note_on_c, 0, 79, 90
2, 459808, Note_off_c, 0, 79, 100
2, 459840, Note_on_c, 0, 77, 90
2, 459904, Note_off_c, 0, 77, 100
2, 459936, Note_on_c, 0, 75, 90
2, 460000, Note_off_c, 0, 75, 100
2, 460032, Note_on_c, 0, 74, 90
2, 460288, Note_off_c, 0, 74, 100
2, 460416, Note_on_c, 0, 72, 90
2, 460416, Note_on_c, 0, 69, 90
2, 460592, Note_off_c, 0, 72, 100
2, 460608, Note_on_c, 0, 70, 90
2, 460648, Note_off_c, 0, 70, 100
2, 460672, Note_off_c, 0, 69, 100
2, 460704, Note_on_c, 0, 72, 90
2, 460744, Note_off_c, 0, 72, 100
2, 460800, Note_on_c, 0, 70, 90
2, 460800, Note_on_c, 0, 58, 90
2, 460864, Note_off_c, 0, 58, 100
2, 460896, Note_on_c, 0, 65, 90
2, 460960, Note_off_c, 0, 65, 100
2, 460992, Note_on_c, 0, 64, 90
2, 461056, Note_off_c, 0, 70, 100
2, 461056, Note_off_c, 0, 64, 100
2, 461088, Note_on_c, 0, 65, 90
2, 461152, Note_off_c, 0, 65, 100
2, 461184, Note_on_c, 0, 67, 90
2, 461248, Note_off_c, 0, 67, 100
2, 461280, Note_on_c, 0, 65, 90
2, 461344, Note_off_c, 0, 65, 100
2, 461376, Note_on_c, 0, 64, 90
2, 461440, Note_off_c, 0, 64, 100
2, 461472, Note_on_c, 0, 65, 90
2, 461536, Note_off_c, 0, 65, 100
2, 461568, Note_on_c, 0, 64, 90
2, 461632, Note_off_c, 0, 64, 100
2, 461664, Note_on_c, 0, 65, 90
2, 461728, Note_off_c, 0, 65, 100
2, 461760, Note_on_c, 0, 62, 90
2, 461824, Note_off_c, 0, 62, 100
2, 461856, Note_on_c, 0, 65, 90
2, 461920, Note_off_c, 0, 65, 100
2, 461952, Note_on_c, 0, 60, 90
2, 462016, Note_off_c, 0, 60, 100
2, 462048, Note_on_c, 0, 65, 90
2, 462112, Note_off_c, 0, 65, 100
2, 462144, Note_on_c, 0, 60, 90
2, 462208, Note_off_c, 0, 60, 100
2, 462240, Note_on_c, 0, 65, 90
2, 462304, Note_off_c, 0, 65, 100
2, 462336, Note_on_c, 0, 75, 90
2, 462336, Note_on_c, 0, 57, 90
2, 462400, Note_off_c, 0, 57, 100
2, 462432, Note_on_c, 0, 65, 90
2, 462464, Note_off_c, 0, 75, 100
2, 462496, Note_off_c, 0, 65, 100
2, 462528, Note_on_c, 0, 72, 90
2, 462528, Note_on_c, 0, 60, 90
2, 462592, Note_off_c, 0, 60, 100
2, 462624, Note_on_c, 0, 65, 90
2, 462656, Note_off_c, 0, 72, 100
2, 462688, Note_off_c, 0, 65, 100
2, 462720, Note_on_c, 0, 69, 90
2, 462720, Note_on_c, 0, 64, 90
2, 462784, Note_off_c, 0, 64, 100
2, 462816, Note_on_c, 0, 65, 90
2, 462848, Note_off_c, 0, 69, 100
2, 462880, Note_off_c, 0, 65, 100
2, 462912, Note_on_c, 0, 69, 90
2, 462912, Note_on_c, 0, 64, 90
2, 462976, Note_off_c, 0, 64, 100
2, 463008, Note_on_c, 0, 65, 90
2, 463040, Note_off_c, 0, 69, 100
2, 463072, Note_off_c, 0, 65, 100
2, 463104, Note_on_c, 0, 75, 90
2, 463104, Note_on_c, 0, 57, 90
2, 463168, Note_off_c, 0, 57, 100
2, 463200, Note_on_c, 0, 65, 90
2, 463232, Note_off_c, 0, 75, 100
2, 463264, Note_off_c, 0, 65, 100
2, 463296, Note_on_c, 0, 72, 90
2, 463296, Note_on_c, 0, 60, 90
2, 463360, Note_off_c, 0, 60, 100
2, 463392, Note_on_c, 0, 65, 90
2, 463424, Note_off_c, 0, 72, 100
2, 463456, Note_off_c, 0, 65, 100
2, 463488, Note_on_c, 0, 69, 90
2, 463488, Note_on_c, 0, 64, 90
2, 463552, Note_off_c, 0, 64, 100
2, 463584, Note_on_c, 0, 65, 90
2, 463616, Note_off_c, 0, 69, 100
2, 463648, Note_off_c, 0, 65, 100
2, 463680, Note_on_c, 0, 69, 90
2, 463680, Note_on_c, 0, 64, 90
2, 463744, Note_off_c, 0, 64, 100
2, 463776, Note_on_c, 0, 65, 90
2, 463808, Note_off_c, 0, 69, 100
2, 463840, Note_off_c, 0, 65, 100
2, 463872, Note_on_c, 0, 70, 90
2, 463872, Note_on_c, 0, 62, 90
2, 463936, Note_off_c, 0, 62, 100
2, 463968, Note_on_c, 0, 65, 90
2, 464000, Note_off_c, 0, 70, 100
2, 464032, Note_off_c, 0, 65, 100
2, 464064, Note_on_c, 0, 72, 90
2, 464064, Note_on_c, 0, 57, 90
2, 464128, Note_off_c, 0, 57, 100
2, 464160, Note_on_c, 0, 65, 90
2, 464192, Note_off_c, 0, 72, 100
2, 464224, Note_off_c, 0, 65, 100
2, 464256, Note_on_c, 0, 74, 90
2, 464256, Note_on_c, 0, 59, 90
2, 464320, Note_off_c, 0, 59, 100
2, 464352, Note_on_c, 0, 65, 90
2, 464384, Note_off_c, 0, 74, 100
2, 464416, Note_off_c, 0, 65, 100
2, 464448, Note_on_c, 0, 75, 90
2, 464448, Note_on_c, 0, 60, 90
2, 464512, Note_off_c, 0, 60, 100
2, 464544, Note_on_c, 0, 65, 90
2, 464576, Note_off_c, 0, 75, 100
2, 464608, Note_off_c, 0, 65, 100
2, 464640, Note_on_c, 0, 76, 90
2, 464640, Note_on_c, 0, 61, 90
2, 464704, Note_off_c, 0, 61, 100
2, 464736, Note_on_c, 0, 65, 90
2, 464768, Note_off_c, 0, 76, 100
2, 464800, Note_off_c, 0, 65, 100
2, 464832, Note_on_c, 0, 77, 90
2, 464832, Note_on_c, 0, 62, 90
2, 464896, Note_off_c, 0, 62, 100
2, 464928, Note_on_c, 0, 65, 90
2, 464960, Note_off_c, 0, 77, 100
2, 464992, Note_off_c, 0, 65, 100
2, 465024, Note_on_c, 0, 76, 90
2, 465024, Note_on_c, 0, 61, 90
2, 465088, Note_off_c, 0, 61, 100
2, 465120, Note_on_c, 0, 65, 90
2, 465152, Note_off_c, 0, 76, 100
2, 465184, Note_off_c, 0, 65, 100
2, 465216, Note_on_c, 0, 77, 90
2, 465216, Note_on_c, 0, 62, 90
2, 465280, Note_off_c, 0, 62, 100
2, 465312, Note_on_c, 0, 65, 90
2, 465344, Note_off_c, 0, 77, 100
2, 465376, Note_off_c, 0, 65, 100
2, 465408, Note_on_c, 0, 87, 90
2, 465408, Note_on_c, 0, 75, 90
2, 465408, Note_on_c, 0, 57, 90
2, 465472, Note_off_c, 0, 57, 100
2, 465504, Note_on_c, 0, 65, 90
2, 465536, Note_off_c, 0, 87, 100
2, 465536, Note_off_c, 0, 75, 100
2, 465568, Note_off_c, 0, 65, 100
2, 465600, Note_on_c, 0, 72, 90
2, 465600, Note_on_c, 0, 84, 90
2, 465600, Note_on_c, 0, 60, 90
2, 465664, Note_off_c, 0, 60, 100
2, 465696, Note_on_c, 0, 65, 90
2, 465728, Note_off_c, 0, 72, 100
2, 465728, Note_off_c, 0, 84, 100
2, 465760, Note_off_c, 0, 65, 100
2, 465792, Note_on_c, 0, 81, 90
2, 465792, Note_on_c, 0, 69, 90
2, 465792, Note_on_c, 0, 64, 90
2, 465856, Note_off_c, 0, 64, 100
2, 465888, Note_on_c, 0, 65, 90
2, 465920, Note_off_c, 0, 81, 100
2, 465920, Note_off_c, 0, 69, 100
2, 465952, Note_off_c, 0, 65, 100
2, 465984, Note_on_c, 0, 81, 90
2, 465984, Note_on_c, 0, 69, 90
2, 465984, Note_on_c, 0, 64, 90
2, 466048, Note_off_c, 0, 64, 100
2, 466080, Note_on_c, 0, 65, 90
2, 466112, Note_off_c, 0, 81, 100
2, 466112, Note_off_c, 0, 69, 100
2, 466144, Note_off_c, 0, 65, 100
2, 466176, Note_on_c, 0, 87, 90
2, 466176, Note_on_c, 0, 75, 90
2, 466176, Note_on_c, 0, 57, 90
2, 466240, Note_off_c, 0, 57, 100
2, 466272, Note_on_c, 0, 65, 90
2, 466304, Note_off_c, 0, 87, 100
2, 466304, Note_off_c, 0, 75, 100
2, 466336, Note_off_c, 0, 65, 100
2, 466368, Note_on_c, 0, 84, 90
2, 466368, Note_on_c, 0, 72, 90
2, 466368, Note_on_c, 0, 60, 90
2, 466432, Note_off_c, 0, 60, 100
2, 466464, Note_on_c, 0, 65, 90
2, 466496, Note_off_c, 0, 84, 100
2, 466496, Note_off_c, 0, 72, 100
2, 466528, Note_off_c, 0, 65, 100
2, 466560, Note_on_c, 0, 81, 90
2, 466560, Note_on_c, 0, 69, 90
2, 466560, Note_on_c, 0, 64, 90
2, 466624, Note_off_c, 0, 64, 100
2, 466656, Note_on_c, 0, 65, 90
2, 466688, Note_off_c, 0, 81, 100
2, 466688, Note_off_c, 0, 69, 100
2, 466720, Note_off_c, 0, 65, 100
2, 466752, Note_on_c, 0, 81, 90
2, 466752, Note_on_c, 0, 69, 90
2, 466752, Note_on_c, 0, 64, 90
2, 466816, Note_off_c, 0, 64, 100
2, 466848, Note_on_c, 0, 65, 90
2, 466880, Note_off_c, 0, 81, 100
2, 466880, Note_off_c, 0, 69, 100
2, 466912, Note_off_c, 0, 65, 100
2, 466944, Note_on_c, 0, 82, 90
2, 466944, Note_on_c, 0, 70, 90
2, 466944, Note_on_c, 0, 62, 90
2, 467008, Note_off_c, 0, 62, 100
2, 467040, Note_on_c, 0, 65, 90
2, 467072, Note_off_c, 0, 82, 100
2, 467072, Note_off_c, 0, 70, 100
2, 467104, Note_off_c, 0, 65, 100
2, 467136, Note_on_c, 0, 84, 90
2, 467136, Note_on_c, 0, 72, 90
2, 467136, Note_on_c, 0, 57, 90
2, 467200, Note_off_c, 0, 57, 100
2, 467232, Note_on_c, 0, 65, 90
2, 467264, Note_off_c, 0, 84, 100
2, 467264, Note_off_c, 0, 72, 100
2, 467296, Note_off_c, 0, 65, 100
2, 467328, Note_on_c, 0, 86, 90
2, 467328, Note_on_c, 0, 74, 90
2, 467328, Note_on_c, 0, 59, 90
2, 467392, Note_off_c, 0, 59, 100
2, 467424, Note_on_c, 0, 65, 90
2, 467456, Note_off_c, 0, 86, 100
2, 467456, Note_off_c, 0, 74, 100
2, 467488, Note_off_c, 0, 65, 100
2, 467488, Note_on_c, 0, 60, 90
2, 467520, Note_on_c, 0, 87, 90
2, 467520, Note_on_c, 0, 75, 90
2, 467552, Note_off_c, 0, 60, 100
2, 467616, Note_on_c, 0, 65, 90
2, 467648, Note_off_c, 0, 87, 100
2, 467648, Note_off_c, 0, 75, 100
2, 467680, Note_off_c, 0, 65, 100
2, 467712, Note_on_c, 0, 88, 90
2, 467712, Note_on_c, 0, 76, 90
2, 467712, Note_on_c, 0, 61, 90
2, 467776, Note_off_c, 0, 61, 100
2, 467808, Note_on_c, 0, 65, 90
2, 467840, Note_off_c, 0, 88, 100
2, 467840, Note_off_c, 0, 76, 100
2, 467872, Note_off_c, 0, 65, 100
2, 467904, Note_on_c, 0, 89, 90
2, 467904, Note_on_c, 0, 77, 90
2, 467904, Note_on_c, 0, 62, 90
2, 467968, Note_off_c, 0, 62, 100
2, 468000, Note_on_c, 0, 65, 90
2, 468032, Note_off_c, 0, 89, 100
2, 468032, Note_off_c, 0, 77, 100
2, 468064, Note_off_c, 0, 65, 100
2, 468096, Note_on_c, 0, 88, 90
2, 468096, Note_on_c, 0, 76, 90
2, 468096, Note_on_c, 0, 61, 90
2, 468160, Note_off_c, 0, 61, 100
2, 468192, Note_on_c, 0, 65, 90
2, 468224, Note_off_c, 0, 88, 100
2, 468224, Note_off_c, 0, 76, 100
2, 468256, Note_off_c, 0, 65, 100
2, 468288, Note_on_c, 0, 89, 90
2, 468288, Note_on_c, 0, 77, 90
2, 468288, Note_on_c, 0, 62, 90
2, 468352, Note_off_c, 0, 62, 100
2, 468384, Note_on_c, 0, 65, 90
2, 468416, Note_off_c, 0, 89, 100
2, 468416, Note_off_c, 0, 77, 100
2, 468448, Note_off_c, 0, 65, 100
2, 468480, Note_on_c, 0, 79, 67
2, 468480, Note_on_c, 0, 67, 67
2, 468992, Note_off_c, 0, 79, 100
2, 468992, Note_off_c, 0, 67, 100
2, 469248, Note_on_c, 0, 69, 60
2, 469248, Note_on_c, 0, 57, 60
2, 469760, Note_off_c, 0, 69, 100
2, 469760, Note_off_c, 0, 57, 100
2, 470016, Note_on_c, 0, 87, 60
2, 470016, Note_on_c, 0, 75, 60
2, 470528, Note_off_c, 0, 87, 100
2, 470528, Note_off_c, 0, 75, 100
2, 470784, Note_on_c, 0, 86, 60
2, 470784, Note_on_c, 0, 74, 60
2, 471296, Note_off_c, 0, 86, 100
2, 471296, Note_off_c, 0, 74, 100
2, 471552, Note_on_c, 0, 86, 90
2, 471616, Note_off_c, 0, 86, 100
2, 471648, Note_on_c, 0, 84, 90
2, 471712, Note_off_c, 0, 84, 100
2, 471744, Note_on_c, 0, 87, 90
2, 471808, Note_off_c, 0, 87, 100
2, 471840, Note_on_c, 0, 86, 90
2, 471904, Note_off_c, 0, 86, 100
2, 471936, Note_on_c, 0, 89, 90
2, 471936, Note_on_c, 0, 72, 90
2, 471936, Note_on_c, 0, 64, 90
2, 472000, Note_off_c, 0, 89, 100
2, 472032, Note_on_c, 0, 87, 90
2, 472096, Note_off_c, 0, 87, 100
2, 472128, Note_on_c, 0, 86, 90
2, 472192, Note_off_c, 0, 72, 100
2, 472192, Note_off_c, 0, 64, 100
2, 472192, Note_off_c, 0, 86, 100
2, 472224, Note_on_c, 0, 84, 90
2, 472288, Note_off_c, 0, 84, 100
2, 472320, Note_on_c, 0, 82, 90
2, 472320, Note_on_c, 0, 74, 90
2, 472320, Note_on_c, 0, 65, 90
2, 472576, Note_off_c, 0, 82, 100
2, 472576, Note_off_c, 0, 74, 100
2, 472704, Note_on_c, 0, 81, 90
2, 472704, Note_on_c, 0, 75, 90
2, 472832, Note_off_c, 0, 65, 100
2, 472960, Note_off_c, 0, 81, 100
2, 472960, Note_off_c, 0, 75, 100
2, 473088, Note_on_c, 0, 74, 60
2, 473088, Note_on_c, 0, 71, 60
2, 473280, Note_on_c, 0, 82, 60
2, 473408, Note_off_c, 0, 82, 100
2, 473472, Note_on_c, 0, 81, 60
2, 473600, Note_off_c, 0, 74, 100
2, 473600, Note_off_c, 0, 71, 100
2, 473600, Note_off_c, 0, 81, 100
2, 473664, Note_on_c, 0, 82, 60
2, 473792, Note_off_c, 0, 82, 100
2, 473856, Note_on_c, 0, 74, 60
2, 473856, Note_on_c, 0, 71, 60
2, 474048, Note_on_c, 0, 80, 60
2, 474176, Note_off_c, 0, 80, 100
2, 474240, Note_on_c, 0, 79, 60
2, 474368, Note_off_c, 0, 74, 100
2, 474368, Note_off_c, 0, 71, 100
2, 474368, Note_off_c, 0, 79, 100
2, 474432, Note_on_c, 0, 80, 60
2, 474560, Note_off_c, 0, 80, 100
2, 474624, Note_on_c, 0, 77, 60
2, 474624, Note_on_c, 0, 74, 60
2, 474624, Note_on_c, 0, 71, 60
2, 474816, Note_on_c, 0, 79, 60
2, 474944, Note_off_c, 0, 79, 100
2, 475008, Note_on_c, 0, 78, 60
2, 475136, Note_off_c, 0, 77, 100
2, 475136, Note_off_c, 0, 74, 100
2, 475136, Note_off_c, 0, 71, 100
2, 475136, Note_off_c, 0, 78, 100
2, 475200, Note_on_c, 0, 79, 60
2, 475328, Note_off_c, 0, 79, 100
2, 475392, Note_on_c, 0, 76, 60
2, 475392, Note_on_c, 0, 72, 60
2, 475584, Note_on_c, 0, 79, 60
2, 475712, Note_off_c, 0, 79, 100
2, 475776, Note_on_c, 0, 87, 60
2, 475904, Note_off_c, 0, 76, 100
2, 475904, Note_off_c, 0, 72, 100
2, 475904, Note_off_c, 0, 87, 100
2, 475968, Note_on_c, 0, 87, 60
2, 476096, Note_off_c, 0, 87, 100
2, 476160, Note_on_c, 0, 76, 60
2, 476160, Note_on_c, 0, 72, 60
2, 476160, Note_on_c, 0, 69, 60
2, 476352, Note_on_c, 0, 87, 60
2, 476480, Note_off_c, 0, 87, 100
2, 476544, Note_on_c, 0, 77, 60
2, 476672, Note_off_c, 0, 76, 100
2, 476672, Note_off_c, 0, 72, 100
2, 476672, Note_off_c, 0, 69, 100
2, 476672, Note_off_c, 0, 77, 100
2, 476736, Note_on_c, 0, 77, 60
2, 476864, Note_off_c, 0, 77, 100
2, 476928, Note_on_c, 0, 74, 60
2, 476928, Note_on_c, 0, 70, 60
2, 477120, Note_on_c, 0, 77, 60
2, 477248, Note_off_c, 0, 77, 100
2, 477312, Note_on_c, 0, 86, 60
2, 477440, Note_off_c, 0, 74, 100
2, 477440, Note_off_c, 0, 70, 100
2, 477440, Note_off_c, 0, 86, 100
2, 477504, Note_on_c, 0, 86, 60
2, 477632, Note_off_c, 0, 86, 100
2, 477696, Note_on_c, 0, 74, 60
2, 477696, Note_on_c, 0, 71, 60
2, 477696, Note_on_c, 0, 67, 60
2, 477888, Note_on_c, 0, 86, 60
2, 478016, Note_off_c, 0, 86, 100
2, 478080, Note_on_c, 0, 75, 60
2, 478208, Note_off_c, 0, 74, 100
2, 478208, Note_off_c, 0, 71, 100
2, 478208, Note_off_c, 0, 67, 100
2, 478208, Note_off_c, 0, 75, 100
2, 478272, Note_on_c, 0, 75, 60
2, 478400, Note_off_c, 0, 75, 100
2, 478464, Note_on_c, 0, 72, 60
2, 478464, Note_on_c, 0, 69, 60
2, 478656, Note_on_c, 0, 75, 60
2, 478784, Note_off_c, 0, 75, 100
2, 478848, Note_on_c, 0, 84, 60
2, 478976, Note_off_c, 0, 72, 100
2, 478976, Note_off_c, 0, 69, 100
2, 478976, Note_off_c, 0, 84, 100
2, 479040, Note_on_c, 0, 84, 60
2, 479168, Note_off_c, 0, 84, 100
2, 479232, Note_on_c, 0, 72, 60
2, 479232, Note_on_c, 0, 69, 60
2, 479232, Note_on_c, 0, 66, 60
2, 479424, Note_on_c, 0, 84, 60
2, 479552, Note_off_c, 0, 84, 100
2, 479616, Note_on_c, 0, 74, 60
2, 479744, Note_off_c, 0, 72, 100
2, 479744, Note_off_c, 0, 69, 100
2, 479744, Note_off_c, 0, 66, 100
2, 479744, Note_off_c, 0, 74, 100
2, 479808, Note_on_c, 0, 74, 60
2, 479936, Note_off_c, 0, 74, 100
2, 480000, Note_on_c, 0, 67, 60
2, 480000, Note_on_c, 0, 71, 60
2, 480192, Note_on_c, 0, 74, 60
2, 480320, Note_off_c, 0, 74, 100
2, 480384, Note_on_c, 0, 82, 60
2, 480512, Note_off_c, 0, 67, 100
2, 480512, Note_off_c, 0, 71, 100
2, 480512, Note_off_c, 0, 82, 100
2, 480576, Note_on_c, 0, 82, 60
2, 480704, Note_off_c, 0, 82, 100
2, 480768, Note_on_c, 0, 82, 60
2, 480896, Note_off_c, 0, 82, 100
2, 480960, Note_on_c, 0, 72, 60
2, 480960, Note_on_c, 0, 64, 60
2, 480960, Note_on_c, 0, 70, 60
2, 481088, Note_off_c, 0, 72, 100
2, 481088, Note_off_c, 0, 64, 100
2, 481088, Note_off_c, 0, 70, 100
2, 481152, Note_on_c, 0, 64, 60
2, 481152, Note_on_c, 0, 70, 60
2, 481280, Note_off_c, 0, 64, 100
2, 481280, Note_off_c, 0, 70, 100
2, 481344, Note_on_c, 0, 64, 60
2, 481344, Note_on_c, 0, 70, 60
2, 481472, Note_off_c, 0, 64, 100
2, 481472, Note_off_c, 0, 70, 100
2, 481536, Note_on_c, 0, 82, 60
2, 481664, Note_off_c, 0, 82, 100
2, 481728, Note_on_c, 0, 74, 60
2, 481728, Note_on_c, 0, 65, 60
2, 481728, Note_on_c, 0, 70, 60
2, 481856, Note_off_c, 0, 74, 100
2, 481856, Note_off_c, 0, 65, 100
2, 481856, Note_off_c, 0, 70, 100
2, 481920, Note_on_c, 0, 65, 60
2, 481920, Note_on_c, 0, 70, 60
2, 482048, Note_off_c, 0, 65, 100
2, 482048, Note_off_c, 0, 70, 100
2, 482112, Note_on_c, 0, 65, 60
2, 482112, Note_on_c, 0, 70, 60
2, 482240, Note_off_c, 0, 65, 100
2, 482240, Note_off_c, 0, 70, 100
2, 482304, Note_on_c, 0, 82, 60
2, 482432, Note_off_c, 0, 82, 100
2, 482496, Note_on_c, 0, 75, 60
2, 482496, Note_on_c, 0, 70, 60
2, 482496, Note_on_c, 0, 67, 60
2, 482624, Note_off_c, 0, 75, 100
2, 482624, Note_off_c, 0, 70, 100
2, 482624, Note_off_c, 0, 67, 100
2, 482688, Note_on_c, 0, 70, 60
2, 482688, Note_on_c, 0, 67, 60
2, 482816, Note_off_c, 0, 70, 100
2, 482816, Note_off_c, 0, 67, 100
2, 482880, Note_on_c, 0, 70, 60
2, 482880, Note_on_c, 0, 67, 60
2, 483008, Note_off_c, 0, 70, 100
2, 483008, Note_off_c, 0, 67, 100
2, 483072, Note_on_c, 0, 82, 60
2, 483200, Note_off_c, 0, 82, 100
2, 483264, Note_on_c, 0, 76, 60
2, 483264, Note_on_c, 0, 70, 60
2, 483264, Note_on_c, 0, 66, 60
2, 483392, Note_off_c, 0, 76, 100
2, 483392, Note_off_c, 0, 70, 100
2, 483392, Note_off_c, 0, 66, 100
2, 483456, Note_on_c, 0, 70, 60
2, 483456, Note_on_c, 0, 66, 60
2, 483584, Note_off_c, 0, 70, 100
2, 483584, Note_off_c, 0, 66, 100
2, 483648, Note_on_c, 0, 70, 60
2, 483648, Note_on_c, 0, 66, 60
2, 483776, Note_off_c, 0, 70, 100
2, 483776, Note_off_c, 0, 66, 100
2, 483840, Note_on_c, 0, 82, 90
2, 483840, Note_on_c, 0, 70, 90
2, 483840, Note_on_c, 0, 66, 90
2, 483968, Note_off_c, 0, 82, 100
2, 484032, Note_on_c, 0, 77, 90
2, 484096, Note_off_c, 0, 70, 100
2, 484096, Note_off_c, 0, 66, 100
2, 484160, Note_off_c, 0, 77, 100
2, 484224, Note_on_c, 0, 82, 90
2, 484224, Note_on_c, 0, 62, 90
2, 484224, Note_on_c, 0, 70, 90
2, 484352, Note_off_c, 0, 82, 100
2, 484416, Note_on_c, 0, 78, 90
2, 484480, Note_off_c, 0, 62, 100
2, 484480, Note_off_c, 0, 70, 100
2, 484544, Note_off_c, 0, 78, 100
2, 484608, Note_on_c, 0, 82, 90
2, 484608, Note_on_c, 0, 70, 90
2, 484608, Note_on_c, 0, 63, 90
2, 484736, Note_off_c, 0, 82, 100
2, 484800, Note_on_c, 0, 79, 90
2, 484864, Note_off_c, 0, 70, 100
2, 484864, Note_off_c, 0, 63, 100
2, 484928, Note_off_c, 0, 79, 100
2, 484992, Note_on_c, 0, 87, 90
2, 484992, Note_on_c, 0, 65, 90
2, 484992, Note_on_c, 0, 60, 90
2, 485120, Note_off_c, 0, 87, 100
2, 485184, Note_on_c, 0, 81, 90
2, 485248, Note_off_c, 0, 65, 100
2, 485248, Note_off_c, 0, 60, 100
2, 485312, Note_off_c, 0, 81, 100
2, 485376, Note_on_c, 0, 86, 90
2, 485376, Note_on_c, 0, 58, 90
2, 485376, Note_on_c, 0, 65, 90
2, 485504, Note_off_c, 0, 86, 100
2, 485568, Note_on_c, 0, 89, 90
2, 485632, Note_off_c, 0, 58, 100
2, 485632, Note_off_c, 0, 65, 100
2, 485696, Note_off_c, 0, 89, 100
2, 485760, Note_on_c, 0, 82, 90
2, 485888, Note_off_c, 0, 82, 100
2, 485952, Note_on_c, 0, 86, 90
2, 486080, Note_off_c, 0, 86, 100
2, 486144, Note_on_c, 0, 79, 90
2, 486272, Note_off_c, 0, 79, 100
2, 486336, Note_on_c, 0, 82, 90
2, 486464, Note_off_c, 0, 82, 100
2, 486528, Note_on_c, 0, 72, 90
2, 486656, Note_off_c, 0, 72, 100
2, 486720, Note_on_c, 0, 75, 90
2, 486848, Note_off_c, 0, 75, 100
2, 486912, Note_on_c, 0, 65, 90
2, 486976, Note_off_c, 0, 65, 100
2, 487008, Note_on_c, 0, 77, 90
2, 487072, Note_off_c, 0, 77, 100
2, 487104, Note_on_c, 0, 79, 90
2, 487168, Note_off_c, 0, 79, 100
2, 487200, Note_on_c, 0, 77, 90
2, 487264, Note_off_c, 0, 77, 100
2, 487296, Note_on_c, 0, 75, 90
2, 487360, Note_off_c, 0, 75, 100
2, 487392, Note_on_c, 0, 74, 90
2, 487456, Note_off_c, 0, 74, 100
2, 487488, Note_on_c, 0, 72, 90
2, 487552, Note_off_c, 0, 72, 100
2, 487584, Note_on_c, 0, 70, 90
2, 487648, Note_off_c, 0, 70, 100
2, 487680, Note_on_c, 0, 74, 90
2, 487808, Note_off_c, 0, 74, 100
2, 487872, Note_on_c, 0, 72, 90
2, 487888, Note_off_c, 0, 72, 100
2, 487920, Note_on_c, 0, 74, 90
2, 487936, Note_off_c, 0, 74, 100
2, 487968, Note_on_c, 0, 72, 90
2, 487984, Note_off_c, 0, 72, 100
2, 488016, Note_on_c, 0, 74, 90
2, 488032, Note_off_c, 0, 74, 100
2, 488064, Note_on_c, 0, 72, 90
2, 488080, Note_off_c, 0, 72, 100
2, 488096, Note_on_c, 0, 74, 90
2, 488112, Note_off_c, 0, 74, 100
2, 488160, Note_on_c, 0, 72, 90
2, 488176, Note_off_c, 0, 72, 100
2, 488208, Note_on_c, 0, 74, 90
2, 488224, Note_off_c, 0, 74, 100
2, 488256, Note_on_c, 0, 70, 74
2, 488348, Note_off_c, 0, 70, 0
2, 488352, Note_on_c, 0, 72, 74
2, 488444, Note_off_c, 0, 72, 0
2, 488448, Note_on_c, 0, 72, 60
2, 488448, Note_on_c, 0, 70, 60
2, 488464, Note_off_c, 0, 72, 100
2, 488576, Note_off_c, 0, 70, 100
2, 488640, Note_on_c, 0, 58, 60
2, 488704, Note_off_c, 0, 58, 100
2, 488736, Note_on_c, 0, 62, 60
2, 488800, Note_off_c, 0, 62, 100
2, 488832, Note_on_c, 0, 60, 60
2, 488896, Note_off_c, 0, 60, 100
2, 488928, Note_on_c, 0, 63, 60
2, 488992, Note_off_c, 0, 63, 100
2, 489024, Note_on_c, 0, 62, 60
2, 489088, Note_off_c, 0, 62, 100
2, 489120, Note_on_c, 0, 65, 60
2, 489184, Note_off_c, 0, 65, 100
2, 489216, Note_on_c, 0, 63, 60
2, 489344, Note_off_c, 0, 63, 100
2, 489408, Note_on_c, 0, 58, 60
2, 489472, Note_off_c, 0, 58, 100
2, 489504, Note_on_c, 0, 62, 60
2, 489568, Note_off_c, 0, 62, 100
2, 489600, Note_on_c, 0, 60, 60
2, 489664, Note_off_c, 0, 60, 100
2, 489696, Note_on_c, 0, 63, 60
2, 489760, Note_off_c, 0, 63, 100
2, 489792, Note_on_c, 0, 62, 60
2, 489856, Note_off_c, 0, 62, 100
2, 489888, Note_on_c, 0, 63, 60
2, 489952, Note_off_c, 0, 63, 100
2, 489984, Note_on_c, 0, 63, 60
2, 490112, Note_off_c, 0, 63, 100
2, 490176, Note_on_c, 0, 58, 60
2, 490240, Note_off_c, 0, 58, 100
2, 490272, Note_on_c, 0, 62, 60
2, 490336, Note_off_c, 0, 62, 100
2, 490368, Note_on_c, 0, 60, 60
2, 490432, Note_off_c, 0, 60, 100
2, 490464, Note_on_c, 0, 63, 60
2, 490528, Note_off_c, 0, 63, 100
2, 490560, Note_on_c, 0, 62, 60
2, 490624, Note_off_c, 0, 62, 100
2, 490656, Note_on_c, 0, 65, 60
2, 490720, Note_off_c, 0, 65, 100
2, 490752, Note_on_c, 0, 63, 60
2, 490816, Note_off_c, 0, 63, 100
2, 490848, Note_on_c, 0, 67, 60
2, 490912, Note_off_c, 0, 67, 100
2, 490944, Note_on_c, 0, 65, 60
2, 491008, Note_off_c, 0, 65, 100
2, 491040, Note_on_c, 0, 69, 60
2, 491104, Note_off_c, 0, 69, 100
2, 491136, Note_on_c, 0, 67, 60
2, 491200, Note_off_c, 0, 67, 100
2, 491232, Note_on_c, 0, 70, 60
2, 491296, Note_off_c, 0, 70, 100
2, 491328, Note_on_c, 0, 69, 60
2, 491392, Note_off_c, 0, 69, 100
2, 491424, Note_on_c, 0, 72, 60
2, 491488, Note_off_c, 0, 72, 100
2, 491520, Note_on_c, 0, 70, 90
2, 491584, Note_off_c, 0, 70, 100
2, 491616, Note_on_c, 0, 72, 90
2, 491680, Note_off_c, 0, 72, 100
2, 491712, Note_on_c, 0, 74, 90
2, 491776, Note_off_c, 0, 74, 100
2, 491808, Note_on_c, 0, 72, 90
2, 491872, Note_off_c, 0, 72, 100
2, 491904, Note_on_c, 0, 70, 90
2, 491968, Note_off_c, 0, 70, 100
2, 492000, Note_on_c, 0, 69, 90
2, 492064, Note_off_c, 0, 69, 100
2, 492096, Note_on_c, 0, 67, 90
2, 492160, Note_off_c, 0, 67, 100
2, 492192, Note_on_c, 0, 66, 90
2, 492256, Note_off_c, 0, 66, 100
2, 492288, Note_on_c, 0, 67, 90
2, 492352, Note_off_c, 0, 67, 100
2, 492384, Note_on_c, 0, 72, 90
2, 492448, Note_off_c, 0, 72, 100
2, 492480, Note_on_c, 0, 75, 90
2, 492544, Note_off_c, 0, 75, 100
2, 492576, Note_on_c, 0, 74, 90
2, 492640, Note_off_c, 0, 74, 100
2, 492672, Note_on_c, 0, 72, 90
2, 492736, Note_off_c, 0, 72, 100
2, 492768, Note_on_c, 0, 70, 90
2, 492832, Note_off_c, 0, 70, 100
2, 492864, Note_on_c, 0, 69, 90
2, 492928, Note_off_c, 0, 69, 100
2, 492960, Note_on_c, 0, 67, 90
2, 493024, Note_off_c, 0, 67, 100
2, 493056, Note_on_c, 0, 65, 60
2, 493120, Note_off_c, 0, 65, 100
2, 493152, Note_on_c, 0, 70, 60
2, 493216, Note_off_c, 0, 70, 100
2, 493248, Note_on_c, 0, 74, 60
2, 493312, Note_off_c, 0, 74, 100
2, 493344, Note_on_c, 0, 77, 60
2, 493408, Note_off_c, 0, 77, 100
2, 493440, Note_on_c, 0, 82, 60
2, 493568, Note_off_c, 0, 82, 100
2, 493632, Note_on_c, 0, 74, 60
2, 493632, Note_on_c, 0, 70, 60
2, 493760, Note_off_c, 0, 74, 100
2, 493760, Note_off_c, 0, 70, 100
2, 493824, Note_on_c, 0, 77, 60
2, 493824, Note_on_c, 0, 74, 60
2, 493952, Note_off_c, 0, 77, 100
2, 493952, Note_off_c, 0, 74, 100
2, 494016, Note_on_c, 0, 75, 60
2, 494016, Note_on_c, 0, 72, 60
2, 494144, Note_off_c, 0, 75, 100
2, 494144, Note_off_c, 0, 72, 100
2, 494208, Note_on_c, 0, 74, 60
2, 494208, Note_on_c, 0, 70, 60
2, 494336, Note_off_c, 0, 74, 100
2, 494336, Note_off_c, 0, 70, 100
2, 494400, Note_on_c, 0, 72, 60
2, 494400, Note_on_c, 0, 69, 60
2, 494528, Note_off_c, 0, 72, 100
2, 494528, Note_off_c, 0, 69, 100
2, 494592, Note_on_c, 0, 70, 60
2, 494720, Note_off_c, 0, 70, 100
2, 494784, Note_on_c, 0, 70, 60
2, 494848, Note_off_c, 0, 70, 100
2, 494880, Note_on_c, 0, 74, 60
2, 494944, Note_off_c, 0, 74, 100
2, 494976, Note_on_c, 0, 72, 60
2, 494976, Note_on_c, 0, 69, 60
2, 495040, Note_off_c, 0, 72, 100
2, 495072, Note_on_c, 0, 75, 60
2, 495104, Note_off_c, 0, 69, 100
2, 495136, Note_off_c, 0, 75, 100
2, 495168, Note_on_c, 0, 74, 60
2, 495168, Note_on_c, 0, 68, 60
2, 495232, Note_off_c, 0, 74, 100
2, 495264, Note_on_c, 0, 77, 60
2, 495296, Note_off_c, 0, 68, 100
2, 495328, Note_off_c, 0, 77, 100
2, 495360, Note_on_c, 0, 75, 60
2, 495360, Note_on_c, 0, 58, 60
2, 495360, Note_on_c, 0, 67, 60
2, 495488, Note_off_c, 0, 75, 100
2, 495488, Note_off_c, 0, 58, 100
2, 495488, Note_off_c, 0, 67, 100
2, 495552, Note_on_c, 0, 82, 60
2, 495616, Note_off_c, 0, 82, 100
2, 495648, Note_on_c, 0, 86, 60
2, 495712, Note_off_c, 0, 86, 100
2, 495744, Note_on_c, 0, 84, 60
2, 495744, Note_on_c, 0, 69, 60
2, 495808, Note_off_c, 0, 84, 100
2, 495840, Note_on_c, 0, 87, 60
2, 495872, Note_off_c, 0, 69, 100
2, 495904, Note_off_c, 0, 87, 100
2, 495936, Note_on_c, 0, 84, 60
2, 495936, Note_on_c, 0, 68, 60
2, 496000, Note_off_c, 0, 84, 100
2, 496032, Note_on_c, 0, 89, 60
2, 496064, Note_off_c, 0, 68, 100
2, 496096, Note_off_c, 0, 89, 100
2, 496128, Note_on_c, 0, 87, 60
2, 496128, Note_on_c, 0, 67, 60
2, 496128, Note_on_c, 0, 58, 60
2, 496256, Note_off_c, 0, 87, 100
2, 496256, Note_off_c, 0, 67, 100
2, 496256, Note_off_c, 0, 58, 100
2, 496320, Note_on_c, 0, 70, 60
2, 496384, Note_off_c, 0, 70, 100
2, 496416, Note_on_c, 0, 74, 60
2, 496480, Note_off_c, 0, 74, 100
2, 496512, Note_on_c, 0, 72, 60
2, 496512, Note_on_c, 0, 69, 60
2, 496576, Note_off_c, 0, 72, 100
2, 496608, Note_on_c, 0, 75, 60
2, 496640, Note_off_c, 0, 69, 100
2, 496672, Note_off_c, 0, 75, 100
2, 496704, Note_on_c, 0, 74, 60
2, 496704, Note_on_c, 0, 68, 60
2, 496768, Note_off_c, 0, 74, 100
2, 496800, Note_on_c, 0, 77, 60
2, 496832, Note_off_c, 0, 68, 100
2, 496864, Note_off_c, 0, 77, 100
2, 496896, Note_on_c, 0, 75, 60
2, 496896, Note_on_c, 0, 67, 60
2, 496960, Note_off_c, 0, 75, 100
2, 496992, Note_on_c, 0, 70, 60
2, 497024, Note_off_c, 0, 67, 100
2, 497056, Note_off_c, 0, 70, 100
2, 497088, Note_on_c, 0, 77, 60
2, 497088, Note_on_c, 0, 62, 60
2, 497152, Note_off_c, 0, 77, 100
2, 497184, Note_on_c, 0, 70, 60
2, 497216, Note_off_c, 0, 62, 100
2, 497248, Note_off_c, 0, 70, 100
2, 497280, Note_on_c, 0, 79, 60
2, 497280, Note_on_c, 0, 64, 60
2, 497344, Note_off_c, 0, 79, 100
2, 497376, Note_on_c, 0, 70, 60
2, 497408, Note_off_c, 0, 64, 100
2, 497440, Note_off_c, 0, 70, 100
2, 497472, Note_on_c, 0, 81, 60
2, 497472, Note_on_c, 0, 60, 60
2, 497536, Note_off_c, 0, 81, 100
2, 497568, Note_on_c, 0, 70, 60
2, 497600, Note_off_c, 0, 60, 100
2, 497632, Note_off_c, 0, 70, 100
2, 497664, Note_on_c, 0, 82, 90
2, 497728, Note_off_c, 0, 82, 100
2, 497760, Note_on_c, 0, 84, 90
2, 497824, Note_off_c, 0, 84, 100
2, 497856, Note_on_c, 0, 86, 90
2, 497920, Note_off_c, 0, 86, 100
2, 497952, Note_on_c, 0, 84, 90
2, 498016, Note_off_c, 0, 84, 100
2, 498048, Note_on_c, 0, 82, 90
2, 498112, Note_off_c, 0, 82, 100
2, 498144, Note_on_c, 0, 81, 90
2, 498208, Note_off_c, 0, 81, 100
2, 498240, Note_on_c, 0, 79, 90
2, 498304, Note_off_c, 0, 79, 100
2, 498336, Note_on_c, 0, 78, 90
2, 498400, Note_off_c, 0, 78, 100
2, 498432, Note_on_c, 0, 79, 90
2, 498496, Note_off_c, 0, 79, 100
2, 498528, Note_on_c, 0, 77, 90
2, 498592, Note_off_c, 0, 77, 100
2, 498624, Note_on_c, 0, 75, 90
2, 498688, Note_off_c, 0, 75, 100
2, 498720, Note_on_c, 0, 74, 90
2, 498784, Note_off_c, 0, 74, 100
2, 498816, Note_on_c, 0, 72, 90
2, 498880, Note_off_c, 0, 72, 100
2, 498912, Note_on_c, 0, 70, 90
2, 498976, Note_off_c, 0, 70, 100
2, 499008, Note_on_c, 0, 69, 90
2, 499072, Note_off_c, 0, 69, 100
2, 499104, Note_on_c, 0, 67, 90
2, 499168, Note_off_c, 0, 67, 100
2, 499200, Note_on_c, 0, 65, 90
2, 499328, Note_off_c, 0, 65, 100
2, 499392, Note_on_c, 0, 86, 90
2, 499520, Note_off_c, 0, 86, 100
2, 499584, Note_on_c, 0, 86, 90
2, 499712, Note_off_c, 0, 86, 100
2, 499776, Note_on_c, 0, 86, 90
2, 499904, Note_off_c, 0, 86, 100
2, 499968, Note_on_c, 0, 86, 90
2, 500032, Note_off_c, 0, 86, 100
2, 500064, Note_on_c, 0, 82, 90
2, 500128, Note_off_c, 0, 82, 100
2, 500160, Note_on_c, 0, 79, 90
2, 500224, Note_off_c, 0, 79, 100
2, 500256, Note_on_c, 0, 74, 90
2, 500320, Note_off_c, 0, 74, 100
2, 500352, Note_on_c, 0, 82, 90
2, 500416, Note_off_c, 0, 82, 100
2, 500448, Note_on_c, 0, 77, 90
2, 500512, Note_off_c, 0, 77, 100
2, 500544, Note_on_c, 0, 74, 90
2, 500608, Note_off_c, 0, 74, 100
2, 500640, Note_on_c, 0, 70, 90
2, 500704, Note_off_c, 0, 70, 100
2, 500736, Note_on_c, 0, 74, 90
2, 500864, Note_off_c, 0, 74, 100
2, 500928, Note_on_c, 0, 72, 90
2, 500944, Note_off_c, 0, 72, 100
2, 500976, Note_on_c, 0, 74, 90
2, 500992, Note_off_c, 0, 74, 100
2, 501024, Note_on_c, 0, 72, 90
2, 501040, Note_off_c, 0, 72, 100
2, 501072, Note_on_c, 0, 74, 90
2, 501088, Note_off_c, 0, 74, 100
2, 501120, Note_on_c, 0, 72, 90
2, 501136, Note_off_c, 0, 72, 100
2, 501168, Note_on_c, 0, 74, 90
2, 501184, Note_off_c, 0, 74, 100
2, 501216, Note_on_c, 0, 72, 90
2, 501232, Note_off_c, 0, 72, 100
2, 501264, Note_on_c, 0, 74, 90
2, 501280, Note_off_c, 0, 74, 100
2, 501312, Note_on_c, 0, 72, 90
2, 501328, Note_off_c, 0, 72, 100
2, 501360, Note_on_c, 0, 74, 90
2, 501376, Note_off_c, 0, 74, 100
2, 501408, Note_on_c, 0, 72, 90
2, 501424, Note_off_c, 0, 72, 100
2, 501456, Note_on_c, 0, 74, 90
2, 501472, Note_off_c, 0, 74, 100
2, 501504, Note_on_c, 0, 72, 90
2, 501520, Note_off_c, 0, 72, 100
2, 501552, Note_on_c, 0, 74, 90
2, 501568, Note_off_c, 0, 74, 100
2, 501600, Note_on_c, 0, 72, 90
2, 501616, Note_off_c, 0, 72, 100
2, 501648, Note_on_c, 0, 74, 90
2, 501664, Note_off_c, 0, 74, 100
2, 501696, Note_on_c, 0, 72, 90
2, 501712, Note_off_c, 0, 72, 100
2, 501744, Note_on_c, 0, 74, 90
2, 501760, Note_off_c, 0, 74, 100
2, 501792, Note_on_c, 0, 72, 90
2, 501808, Note_off_c, 0, 72, 100
2, 501840, Note_on_c, 0, 74, 90
2, 501856, Note_off_c, 0, 74, 100
2, 501888, Note_on_c, 0, 72, 90
2, 501904, Note_off_c, 0, 72, 100
2, 501936, Note_on_c, 0, 74, 90
2, 501952, Note_off_c, 0, 74, 100
2, 501984, Note_on_c, 0, 72, 90
2, 502000, Note_off_c, 0, 72, 100
2, 502080, Note_on_c, 0, 70, 90
2, 502144, Note_off_c, 0, 70, 100
2, 502176, Note_on_c, 0, 72, 90
2, 502240, Note_off_c, 0, 72, 100
2, 502272, Note_on_c, 0, 70, 60
2, 502400, Note_off_c, 0, 70, 100
2, 502464, Note_on_c, 0, 82, 60
2, 502464, Note_on_c, 0, 70, 60
2, 502592, Note_off_c, 0, 82, 100
2, 502592, Note_off_c, 0, 70, 100
2, 502656, Note_on_c, 0, 69, 60
2, 502784, Note_off_c, 0, 69, 100
2, 502848, Note_on_c, 0, 82, 60
2, 502848, Note_on_c, 0, 70, 60
2, 502976, Note_off_c, 0, 82, 100
2, 502976, Note_off_c, 0, 70, 100
2, 503040, Note_on_c, 0, 81, 60
2, 503040, Note_on_c, 0, 72, 60
2, 503168, Note_off_c, 0, 81, 100
2, 503168, Note_off_c, 0, 72, 100
2, 503232, Note_on_c, 0, 82, 60
2, 503232, Note_on_c, 0, 70, 60
2, 503360, Note_off_c, 0, 82, 100
2, 503360, Note_off_c, 0, 70, 100
2, 503424, Note_on_c, 0, 84, 60
2, 503424, Note_on_c, 0, 69, 60
2, 503552, Note_off_c, 0, 84, 100
2, 503552, Note_off_c, 0, 69, 100
2, 503616, Note_on_c, 0, 86, 60
2, 503616, Note_on_c, 0, 68, 60
2, 503744, Note_off_c, 0, 86, 100
2, 503744, Note_off_c, 0, 68, 100
2, 503808, Note_on_c, 0, 87, 60
2, 503808, Note_on_c, 0, 67, 60
2, 503872, Note_off_c, 0, 87, 100
2, 503904, Note_on_c, 0, 86, 60
2, 503936, Note_off_c, 0, 67, 100
2, 503968, Note_off_c, 0, 86, 100
2, 504000, Note_on_c, 0, 87, 60
2, 504000, Note_on_c, 0, 58, 60
2, 504064, Note_off_c, 0, 87, 100
2, 504096, Note_on_c, 0, 86, 60
2, 504128, Note_off_c, 0, 58, 100
2, 504160, Note_off_c, 0, 86, 100
2, 504192, Note_on_c, 0, 87, 60
2, 504192, Note_on_c, 0, 66, 60
2, 504256, Note_off_c, 0, 87, 100
2, 504288, Note_on_c, 0, 85, 60
2, 504320, Note_off_c, 0, 66, 100
2, 504352, Note_off_c, 0, 85, 100
2, 504384, Note_on_c, 0, 84, 60
2, 504384, Note_on_c, 0, 58, 60
2, 504448, Note_off_c, 0, 84, 100
2, 504480, Note_on_c, 0, 82, 60
2, 504512, Note_off_c, 0, 58, 100
2, 504544, Note_off_c, 0, 82, 100
2, 504576, Note_on_c, 0, 81, 60
2, 504576, Note_on_c, 0, 65, 60
2, 504640, Note_off_c, 0, 81, 100
2, 504672, Note_on_c, 0, 82, 60
2, 504704, Note_off_c, 0, 65, 100
2, 504736, Note_off_c, 0, 82, 100
2, 504768, Note_on_c, 0, 84, 60
2, 504768, Note_on_c, 0, 58, 60
2, 504832, Note_off_c, 0, 84, 100
2, 504864, Note_on_c, 0, 82, 60
2, 504896, Note_off_c, 0, 58, 100
2, 504928, Note_off_c, 0, 82, 100
2, 504960, Note_on_c, 0, 81, 60
2, 504960, Note_on_c, 0, 69, 60
2, 505024, Note_off_c, 0, 81, 100
2, 505056, Note_on_c, 0, 79, 60
2, 505088, Note_off_c, 0, 69, 100
2, 505120, Note_off_c, 0, 79, 100
2, 505152, Note_on_c, 0, 77, 60
2, 505152, Note_on_c, 0, 58, 60
2, 505216, Note_off_c, 0, 77, 100
2, 505248, Note_on_c, 0, 75, 60
2, 505280, Note_off_c, 0, 58, 100
2, 505312, Note_off_c, 0, 75, 100
2, 505344, Note_on_c, 0, 74, 60
2, 505344, Note_on_c, 0, 70, 60
2, 505472, Note_off_c, 0, 74, 100
2, 505472, Note_off_c, 0, 70, 100
2, 505536, Note_on_c, 0, 74, 60
2, 505664, Note_off_c, 0, 74, 100
2, 505920, Note_on_c, 0, 70, 60
2, 506048, Note_off_c, 0, 70, 100
2, 506112, Note_on_c, 0, 69, 60
2, 506240, Note_off_c, 0, 69, 100
2, 506304, Note_on_c, 0, 70, 60
2, 506432, Note_off_c, 0, 70, 100
2, 506496, Note_on_c, 0, 72, 60
2, 506624, Note_off_c, 0, 72, 100
2, 506688, Note_on_c, 0, 74, 60
2, 506816, Note_off_c, 0, 74, 100
2, 506880, Note_on_c, 0, 75, 60
2, 507008, Note_off_c, 0, 75, 100
2, 507072, Note_on_c, 0, 77, 74
2, 507116, Note_off_c, 0, 77, 0
2, 507120, Note_on_c, 0, 75, 74
2, 507164, Note_off_c, 0, 75, 0
2, 507168, Note_on_c, 0, 74, 74
2, 507212, Note_off_c, 0, 74, 0
2, 507216, Note_on_c, 0, 75, 74
2, 507260, Note_off_c, 0, 75, 0
2, 507264, Note_on_c, 0, 77, 60
2, 507392, Note_off_c, 0, 77, 100
2, 507424, Note_on_c, 0, 79, 60
2, 507552, Note_off_c, 0, 79, 100
2, 507648, Note_on_c, 0, 79, 60
2, 507648, Note_on_c, 0, 75, 60
2, 507776, Note_off_c, 0, 79, 100
2, 507776, Note_off_c, 0, 75, 100
2, 507840, Note_on_c, 0, 77, 60
2, 507840, Note_on_c, 0, 74, 60
2, 507968, Note_off_c, 0, 77, 100
2, 507968, Note_off_c, 0, 74, 100
2, 508224, Note_on_c, 0, 69, 60
2, 508224, Note_on_c, 0, 63, 60
2, 508352, Note_off_c, 0, 69, 100
2, 508352, Note_off_c, 0, 63, 100
2, 508416, Note_on_c, 0, 72, 60
2, 508416, Note_on_c, 0, 63, 60
2, 508928, Note_off_c, 0, 72, 100
2, 508928, Note_off_c, 0, 63, 100
2, 509184, Note_on_c, 0, 70, 60
2, 509184, Note_on_c, 0, 62, 60
2, 509440, Note_off_c, 0, 70, 100
2, 509440, Note_off_c, 0, 62, 100
2, 509440, End_track
3, 0, Start_track
3, 0, Title_t, "K333-a-Allegro"
3, 0, Control_c, 1, 0, 0
3, 0, Program_c, 1, 0
3, 0, Control_c, 1, 7, 80
3, 0, Control_c, 1, 10, 54
3, 0, Control_c, 1, 91, 69
3, 0, Control_c, 1, 93, 60
3, 0, Key_signature, -2, "minor"
3, 0, Control_c, 1, 121, 0
3, 12, Control_c, 1, 10, 53
3, 16, Control_c, 1, 91, 73
3, 20, Control_c, 1, 93, 50
3, 288, Program_c, 1, 0
3, 6336, Note_on_c, 1, 53, 60
3, 6464, Note_off_c, 1, 53, 100
3, 6528, Note_on_c, 1, 60, 60
3, 6656, Note_off_c, 1, 60, 100
3, 6720, Note_on_c, 1, 63, 60
3, 6848, Note_off_c, 1, 63, 100
3, 6912, Note_on_c, 1, 60, 60
3, 7040, Note_off_c, 1, 60, 100
3, 7104, Note_on_c, 1, 53, 60
3, 7232, Note_off_c, 1, 53, 100
3, 7296, Note_on_c, 1, 60, 60
3, 7424, Note_off_c, 1, 60, 100
3, 7488, Note_on_c, 1, 63, 60
3, 7616, Note_off_c, 1, 63, 100
3, 15360, Note_on_c, 1, 57, 90
3, 15616, Note_off_c, 1, 57, 100
3, 15744, Note_on_c, 1, 58, 90
3, 16000, Note_off_c, 1, 58, 100
3, 16128, Note_on_c, 1, 51, 90
3, 16384, Note_off_c, 1, 51, 100
3, 16512, Note_on_c, 1, 53, 90
3, 16768, Note_off_c, 1, 53, 100
3, 17088, Note_on_c, 1, 46, 90
3, 17216, Note_off_c, 1, 46, 100
3, 17280, Note_on_c, 1, 50, 90
3, 17408, Note_off_c, 1, 50, 100
3, 17472, Note_on_c, 1, 53, 90
3, 17600, Note_off_c, 1, 53, 100
3, 17664, Note_on_c, 1, 58, 90
3, 17920, Note_off_c, 1, 58, 100
3, 18624, Note_on_c, 1, 46, 44
3, 18752, Note_off_c, 1, 46, 100
3, 18816, Note_on_c, 1, 50, 44
3, 18944, Note_off_c, 1, 50, 100
3, 19008, Note_on_c, 1, 53, 44
3, 19136, Note_off_c, 1, 53, 100
3, 19200, Note_on_c, 1, 50, 44
3, 19328, Note_off_c, 1, 50, 100
3, 19392, Note_on_c, 1, 46, 44
3, 19520, Note_off_c, 1, 46, 100
3, 19584, Note_on_c, 1, 50, 44
3, 19712, Note_off_c, 1, 50, 100
3, 19776, Note_on_c, 1, 55, 44
3, 19904, Note_off_c, 1, 55, 100
3, 20160, Note_on_c, 1, 48, 44
3, 20288, Note_off_c, 1, 48, 100
3, 20352, Note_on_c, 1, 55, 44
3, 20480, Note_off_c, 1, 55, 100
3, 20544, Note_on_c, 1, 58, 44
3, 20672, Note_off_c, 1, 58, 100
3, 20736, Note_on_c, 1, 55, 44
3, 20864, Note_off_c, 1, 55, 100
3, 20928, Note_on_c, 1, 51, 44
3, 21056, Note_off_c, 1, 51, 100
3, 21120, Note_on_c, 1, 55, 44
3, 21248, Note_off_c, 1, 55, 100
3, 21312, Note_on_c, 1, 58, 44
3, 21440, Note_off_c, 1, 58, 100
3, 21696, Note_on_c, 1, 52, 44
3, 21824, Note_off_c, 1, 52, 100
3, 21888, Note_on_c, 1, 55, 44
3, 22016, Note_off_c, 1, 55, 100
3, 22080, Note_on_c, 1, 60, 44
3, 22208, Note_off_c, 1, 60, 100
3, 22272, Note_on_c, 1, 55, 44
3, 22400, Note_off_c, 1, 55, 100
3, 22464, Note_on_c, 1, 52, 44
3, 22592, Note_off_c, 1, 52, 100
3, 22656, Note_on_c, 1, 55, 44
3, 22784, Note_off_c, 1, 55, 100
3, 22848, Note_on_c, 1, 60, 44
3, 22976, Note_off_c, 1, 60, 100
3, 23232, Note_on_c, 1, 53, 44
3, 23360, Note_off_c, 1, 53, 100
3, 23424, Note_on_c, 1, 57, 44
3, 23552, Note_off_c, 1, 57, 100
3, 23616, Note_on_c, 1, 60, 44
3, 23744, Note_off_c, 1, 60, 100
3, 23808, Note_on_c, 1, 57, 44
3, 23936, Note_off_c, 1, 57, 100
3, 24000, Note_on_c, 1, 53, 44
3, 24128, Note_off_c, 1, 53, 100
3, 24192, Note_on_c, 1, 57, 44
3, 24320, Note_off_c, 1, 57, 100
3, 24384, Note_on_c, 1, 60, 44
3, 24512, Note_off_c, 1, 60, 100
3, 24576, Note_on_c, 1, 58, 48
3, 24704, Note_off_c, 1, 58, 100
3, 24768, Note_on_c, 1, 60, 49
3, 24896, Note_off_c, 1, 60, 100
3, 24960, Note_on_c, 1, 58, 50
3, 25088, Note_off_c, 1, 58, 100
3, 25152, Note_on_c, 1, 60, 52
3, 25280, Note_off_c, 1, 60, 100
3, 25344, Note_on_c, 1, 57, 54
3, 25472, Note_off_c, 1, 57, 100
3, 25536, Note_on_c, 1, 60, 55
3, 25664, Note_off_c, 1, 60, 100
3, 25728, Note_on_c, 1, 57, 56
3, 25856, Note_off_c, 1, 57, 100
3, 25920, Note_on_c, 1, 60, 58
3, 26048, Note_off_c, 1, 60, 100
3, 26112, Note_on_c, 1, 58, 60
3, 26240, Note_off_c, 1, 58, 100
3, 26304, Note_on_c, 1, 60, 62
3, 26432, Note_off_c, 1, 60, 100
3, 26496, Note_on_c, 1, 58, 64
3, 26624, Note_off_c, 1, 58, 100
3, 26688, Note_on_c, 1, 60, 66
3, 26816, Note_off_c, 1, 60, 100
3, 26880, Note_on_c, 1, 57, 67
3, 27008, Note_off_c, 1, 57, 100
3, 27072, Note_on_c, 1, 60, 68
3, 27200, Note_off_c, 1, 60, 100
3, 27264, Note_on_c, 1, 57, 70
3, 27392, Note_off_c, 1, 57, 100
3, 27456, Note_on_c, 1, 60, 73
3, 27584, Note_off_c, 1, 60, 100
3, 27648, Note_on_c, 1, 58, 74
3, 27776, Note_off_c, 1, 58, 100
3, 27840, Note_on_c, 1, 62, 78
3, 27968, Note_off_c, 1, 62, 100
3, 28032, Note_on_c, 1, 58, 79
3, 28160, Note_off_c, 1, 58, 100
3, 28224, Note_on_c, 1, 60, 80
3, 28352, Note_off_c, 1, 60, 100
3, 28416, Note_on_c, 1, 59, 82
3, 28544, Note_off_c, 1, 59, 100
3, 28608, Note_on_c, 1, 60, 84
3, 28736, Note_off_c, 1, 60, 100
3, 28800, Note_on_c, 1, 59, 85
3, 28928, Note_off_c, 1, 59, 100
3, 28992, Note_on_c, 1, 62, 88
3, 29120, Note_off_c, 1, 62, 100
3, 36096, Note_on_c, 1, 48, 90
3, 36096, Note_on_c, 1, 36, 90
3, 36352, Note_off_c, 1, 48, 100
3, 36352, Note_off_c, 1, 36, 100
3, 36864, Note_on_c, 1, 53, 97
3, 36864, Note_on_c, 1, 41, 97
3, 37376, Note_off_c, 1, 53, 100
3, 37376, Note_off_c, 1, 41, 100
3, 38784, Note_on_c, 1, 58, 97
3, 38784, Note_on_c, 1, 46, 97
3, 39296, Note_off_c, 1, 58, 100
3, 39296, Note_off_c, 1, 46, 100
3, 39552, Note_on_c, 1, 57, 90
3, 39808, Note_off_c, 1, 57, 100
3, 39936, Note_on_c, 1, 58, 60
3, 39936, Note_on_c, 1, 62, 60
3, 40192, Note_off_c, 1, 58, 100
3, 40192, Note_off_c, 1, 62, 100
3, 40320, Note_on_c, 1, 60, 60
3, 40576, Note_off_c, 1, 60, 100
3, 40704, Note_on_c, 1, 58, 60
3, 40704, Note_on_c, 1, 62, 60
3, 40960, Note_off_c, 1, 58, 100
3, 40960, Note_off_c, 1, 62, 100
3, 41088, Note_on_c, 1, 60, 60
3, 41344, Note_off_c, 1, 60, 100
3, 41472, Note_on_c, 1, 62, 60
3, 41728, Note_off_c, 1, 62, 100
3, 41856, Note_on_c, 1, 64, 60
3, 42112, Note_off_c, 1, 64, 100
3, 42240, Note_on_c, 1, 65, 60
3, 42496, Note_off_c, 1, 65, 100
3, 43200, Note_on_c, 1, 46, 60
3, 43328, Note_off_c, 1, 46, 100
3, 43392, Note_on_c, 1, 50, 60
3, 43520, Note_off_c, 1, 50, 100
3, 43584, Note_on_c, 1, 55, 60
3, 43712, Note_off_c, 1, 55, 100
3, 43776, Note_on_c, 1, 58, 60
3, 44032, Note_off_c, 1, 58, 100
3, 44736, Note_on_c, 1, 45, 60
3, 44864, Note_off_c, 1, 45, 100
3, 44928, Note_on_c, 1, 48, 60
3, 45056, Note_off_c, 1, 48, 100
3, 45120, Note_on_c, 1, 53, 60
3, 45248, Note_off_c, 1, 53, 100
3, 45312, Note_on_c, 1, 57, 60
3, 45568, Note_off_c, 1, 57, 100
3, 46080, Note_on_c, 1, 55, 60
3, 46336, Note_off_c, 1, 55, 100
3, 46464, Note_on_c, 1, 52, 60
3, 46720, Note_off_c, 1, 52, 100
3, 46848, Note_on_c, 1, 53, 60
3, 47104, Note_off_c, 1, 53, 100
3, 47232, Note_on_c, 1, 50, 60
3, 47488, Note_off_c, 1, 50, 100
3, 47616, Note_on_c, 1, 48, 60
3, 47872, Note_off_c, 1, 48, 100
3, 48384, Note_on_c, 1, 48, 60
3, 48448, Note_off_c, 1, 48, 100
3, 48480, Note_on_c, 1, 50, 60
3, 48544, Note_off_c, 1, 50, 100
3, 48576, Note_on_c, 1, 46, 60
3, 48640, Note_off_c, 1, 46, 100
3, 48672, Note_on_c, 1, 48, 60
3, 48736, Note_off_c, 1, 48, 100
3, 48768, Note_on_c, 1, 45, 60
3, 48832, Note_off_c, 1, 45, 100
3, 48864, Note_on_c, 1, 46, 60
3, 48928, Note_off_c, 1, 46, 100
3, 48960, Note_on_c, 1, 43, 60
3, 49024, Note_off_c, 1, 43, 100
3, 49056, Note_on_c, 1, 45, 60
3, 49120, Note_off_c, 1, 45, 100
3, 49152, Note_on_c, 1, 41, 97
3, 49408, Note_off_c, 1, 41, 100
3, 49536, Note_on_c, 1, 51, 60
3, 49792, Note_off_c, 1, 51, 100
3, 51072, Note_on_c, 1, 46, 97
3, 51072, Note_on_c, 1, 58, 97
3, 51584, Note_off_c, 1, 46, 100
3, 51584, Note_off_c, 1, 58, 100
3, 51840, Note_on_c, 1, 57, 60
3, 52096, Note_off_c, 1, 57, 100
3, 52224, Note_on_c, 1, 59, 60
3, 52224, Note_on_c, 1, 62, 60
3, 52480, Note_off_c, 1, 59, 100
3, 52480, Note_off_c, 1, 62, 100
3, 52608, Note_on_c, 1, 60, 60
3, 52864, Note_off_c, 1, 60, 100
3, 52992, Note_on_c, 1, 59, 60
3, 52992, Note_on_c, 1, 62, 60
3, 53248, Note_off_c, 1, 59, 100
3, 53248, Note_off_c, 1, 62, 100
3, 53376, Note_on_c, 1, 60, 60
3, 53632, Note_off_c, 1, 60, 100
3, 55488, Note_on_c, 1, 50, 90
3, 55616, Note_off_c, 1, 50, 100
3, 55680, Note_on_c, 1, 62, 90
3, 55808, Note_off_c, 1, 62, 100
3, 55872, Note_on_c, 1, 60, 90
3, 56000, Note_off_c, 1, 60, 100
3, 56064, Note_on_c, 1, 58, 90
3, 56192, Note_off_c, 1, 58, 100
3, 56256, Note_on_c, 1, 50, 90
3, 56384, Note_off_c, 1, 50, 100
3, 56448, Note_on_c, 1, 58, 90
3, 56576, Note_off_c, 1, 58, 100
3, 56640, Note_on_c, 1, 57, 90
3, 56768, Note_off_c, 1, 57, 100
3, 56832, Note_on_c, 1, 55, 90
3, 56960, Note_off_c, 1, 55, 100
3, 57024, Note_on_c, 1, 53, 90
3, 57152, Note_off_c, 1, 53, 100
3, 57216, Note_on_c, 1, 52, 90
3, 57344, Note_off_c, 1, 52, 100
3, 57408, Note_on_c, 1, 48, 90
3, 57600, Note_off_c, 1, 48, 100
3, 57600, Note_on_c, 1, 53, 90
3, 57856, Note_off_c, 1, 53, 100
3, 57984, Note_on_c, 1, 45, 90
3, 58240, Note_off_c, 1, 45, 100
3, 58368, Note_on_c, 1, 46, 90
3, 58624, Note_off_c, 1, 46, 100
3, 58752, Note_on_c, 1, 58, 90
3, 59008, Note_off_c, 1, 58, 100
3, 59136, Note_on_c, 1, 60, 90
3, 59392, Note_off_c, 1, 60, 100
3, 59520, Note_on_c, 1, 48, 90
3, 59776, Note_off_c, 1, 48, 100
3, 59904, Note_on_c, 1, 51, 90
3, 59968, Note_off_c, 1, 51, 100
3, 60000, Note_on_c, 1, 60, 90
3, 60064, Note_off_c, 1, 60, 100
3, 60096, Note_on_c, 1, 59, 90
3, 60160, Note_off_c, 1, 59, 100
3, 60192, Note_on_c, 1, 60, 90
3, 60256, Note_off_c, 1, 60, 100
3, 60288, Note_on_c, 1, 62, 90
3, 60352, Note_off_c, 1, 62, 100
3, 60384, Note_on_c, 1, 60, 90
3, 60448, Note_off_c, 1, 60, 100
3, 60480, Note_on_c, 1, 59, 90
3, 60544, Note_off_c, 1, 59, 100
3, 60576, Note_on_c, 1, 60, 90
3, 60640, Note_off_c, 1, 60, 100
3, 60672, Note_on_c, 1, 58, 90
3, 60736, Note_off_c, 1, 58, 100
3, 60768, Note_on_c, 1, 60, 90
3, 60832, Note_off_c, 1, 60, 100
3, 60864, Note_on_c, 1, 57, 90
3, 60928, Note_off_c, 1, 57, 100
3, 60960, Note_on_c, 1, 60, 90
3, 61024, Note_off_c, 1, 60, 100
3, 61056, Note_on_c, 1, 55, 90
3, 61120, Note_off_c, 1, 55, 100
3, 61152, Note_on_c, 1, 60, 90
3, 61216, Note_off_c, 1, 60, 100
3, 61248, Note_on_c, 1, 53, 90
3, 61312, Note_off_c, 1, 53, 100
3, 61344, Note_on_c, 1, 60, 90
3, 61408, Note_off_c, 1, 60, 100
3, 61440, Note_on_c, 1, 52, 90
3, 61504, Note_off_c, 1, 52, 100
3, 61536, Note_on_c, 1, 60, 90
3, 61600, Note_off_c, 1, 60, 100
3, 61632, Note_on_c, 1, 55, 90
3, 61696, Note_off_c, 1, 55, 100
3, 61728, Note_on_c, 1, 60, 90
3, 61792, Note_off_c, 1, 60, 100
3, 61824, Note_on_c, 1, 58, 90
3, 61888, Note_off_c, 1, 58, 100
3, 61920, Note_on_c, 1, 60, 90
3, 61984, Note_off_c, 1, 60, 100
3, 62016, Note_on_c, 1, 58, 90
3, 62080, Note_off_c, 1, 58, 100
3, 62112, Note_on_c, 1, 60, 90
3, 62176, Note_off_c, 1, 60, 100
3, 62208, Note_on_c, 1, 52, 90
3, 62272, Note_off_c, 1, 52, 100
3, 62304, Note_on_c, 1, 60, 90
3, 62368, Note_off_c, 1, 60, 100
3, 62400, Note_on_c, 1, 55, 90
3, 62464, Note_off_c, 1, 55, 100
3, 62496, Note_on_c, 1, 60, 90
3, 62560, Note_off_c, 1, 60, 100
3, 62592, Note_on_c, 1, 58, 90
3, 62656, Note_off_c, 1, 58, 100
3, 62688, Note_on_c, 1, 60, 90
3, 62752, Note_off_c, 1, 60, 100
3, 62784, Note_on_c, 1, 58, 90
3, 62848, Note_off_c, 1, 58, 100
3, 62880, Note_on_c, 1, 60, 90
3, 62944, Note_off_c, 1, 60, 100
3, 62976, Note_on_c, 1, 57, 90
3, 63040, Note_off_c, 1, 57, 100
3, 63072, Note_on_c, 1, 60, 90
3, 63136, Note_off_c, 1, 60, 100
3, 63168, Note_on_c, 1, 52, 90
3, 63232, Note_off_c, 1, 52, 100
3, 63264, Note_on_c, 1, 60, 90
3, 63328, Note_off_c, 1, 60, 100
3, 63360, Note_on_c, 1, 53, 90
3, 63424, Note_off_c, 1, 53, 100
3, 63456, Note_on_c, 1, 60, 90
3, 63520, Note_off_c, 1, 60, 100
3, 63552, Note_on_c, 1, 55, 90
3, 63616, Note_off_c, 1, 55, 100
3, 63648, Note_on_c, 1, 60, 90
3, 63712, Note_off_c, 1, 60, 100
3, 63744, Note_on_c, 1, 56, 90
3, 63808, Note_off_c, 1, 56, 100
3, 63840, Note_on_c, 1, 60, 90
3, 63904, Note_off_c, 1, 60, 100
3, 63936, Note_on_c, 1, 57, 90
3, 64008, Note_off_c, 1, 57, 100
3, 64032, Note_on_c, 1, 60, 90
3, 64096, Note_off_c, 1, 60, 100
3, 64128, Note_on_c, 1, 55, 90
3, 64192, Note_off_c, 1, 55, 100
3, 64224, Note_on_c, 1, 60, 90
3, 64288, Note_off_c, 1, 60, 100
3, 64320, Note_on_c, 1, 57, 90
3, 64384, Note_off_c, 1, 57, 100
3, 64416, Note_on_c, 1, 60, 90
3, 64480, Note_off_c, 1, 60, 100
3, 64512, Note_on_c, 1, 52, 90
3, 64576, Note_off_c, 1, 52, 100
3, 64608, Note_on_c, 1, 60, 90
3, 64672, Note_off_c, 1, 60, 100
3, 64704, Note_on_c, 1, 55, 90
3, 64768, Note_off_c, 1, 55, 100
3, 64800, Note_on_c, 1, 60, 90
3, 64864, Note_off_c, 1, 60, 100
3, 64896, Note_on_c, 1, 58, 90
3, 64960, Note_off_c, 1, 58, 100
3, 64992, Note_on_c, 1, 60, 90
3, 65056, Note_off_c, 1, 60, 100
3, 65088, Note_on_c, 1, 58, 90
3, 65152, Note_off_c, 1, 58, 100
3, 65184, Note_on_c, 1, 60, 90
3, 65248, Note_off_c, 1, 60, 100
3, 65280, Note_on_c, 1, 52, 90
3, 65344, Note_off_c, 1, 52, 100
3, 65376, Note_on_c, 1, 60, 90
3, 65440, Note_off_c, 1, 60, 100
3, 65472, Note_on_c, 1, 55, 90
3, 65536, Note_off_c, 1, 55, 100
3, 65568, Note_on_c, 1, 60, 90
3, 65632, Note_off_c, 1, 60, 100
3, 65664, Note_on_c, 1, 58, 90
3, 65728, Note_off_c, 1, 58, 100
3, 65760, Note_on_c, 1, 60, 90
3, 65824, Note_off_c, 1, 60, 100
3, 65856, Note_on_c, 1, 58, 90
3, 65920, Note_off_c, 1, 58, 100
3, 65952, Note_on_c, 1, 60, 90
3, 66016, Note_off_c, 1, 60, 100
3, 66048, Note_on_c, 1, 57, 90
3, 66112, Note_off_c, 1, 57, 100
3, 66144, Note_on_c, 1, 60, 90
3, 66208, Note_off_c, 1, 60, 100
3, 66240, Note_on_c, 1, 52, 90
3, 66304, Note_off_c, 1, 52, 100
3, 66336, Note_on_c, 1, 60, 90
3, 66400, Note_off_c, 1, 60, 100
3, 66432, Note_on_c, 1, 53, 90
3, 66496, Note_off_c, 1, 53, 100
3, 66528, Note_on_c, 1, 60, 90
3, 66592, Note_off_c, 1, 60, 100
3, 66624, Note_on_c, 1, 55, 90
3, 66688, Note_off_c, 1, 55, 100
3, 66720, Note_on_c, 1, 60, 90
3, 66784, Note_off_c, 1, 60, 100
3, 66816, Note_on_c, 1, 56, 90
3, 66880, Note_off_c, 1, 56, 100
3, 66912, Note_on_c, 1, 60, 90
3, 66976, Note_off_c, 1, 60, 100
3, 67008, Note_on_c, 1, 57, 90
3, 67072, Note_off_c, 1, 57, 100
3, 67104, Note_on_c, 1, 60, 90
3, 67168, Note_off_c, 1, 60, 100
3, 67200, Note_on_c, 1, 56, 90
3, 67264, Note_off_c, 1, 56, 100
3, 67296, Note_on_c, 1, 60, 90
3, 67360, Note_off_c, 1, 60, 100
3, 67392, Note_on_c, 1, 57, 90
3, 67456, Note_off_c, 1, 57, 100
3, 67488, Note_on_c, 1, 60, 90
3, 67552, Note_off_c, 1, 60, 100
3, 67776, Note_on_c, 1, 58, 60
3, 67904, Note_off_c, 1, 58, 100
3, 67968, Note_on_c, 1, 57, 60
3, 68096, Note_off_c, 1, 57, 100
3, 68160, Note_on_c, 1, 58, 60
3, 68288, Note_off_c, 1, 58, 100
3, 68544, Note_on_c, 1, 60, 60
3, 68672, Note_off_c, 1, 60, 100
3, 68736, Note_on_c, 1, 59, 60
3, 68864, Note_off_c, 1, 59, 100
3, 68928, Note_on_c, 1, 60, 60
3, 69056, Note_off_c, 1, 60, 100
3, 69312, Note_on_c, 1, 61, 60
3, 69440, Note_off_c, 1, 61, 100
3, 69504, Note_on_c, 1, 59, 60
3, 69632, Note_off_c, 1, 59, 100
3, 69696, Note_on_c, 1, 61, 60
3, 69824, Note_off_c, 1, 61, 100
3, 70080, Note_on_c, 1, 62, 60
3, 70208, Note_off_c, 1, 62, 100
3, 70272, Note_on_c, 1, 61, 60
3, 70400, Note_off_c, 1, 61, 100
3, 70464, Note_on_c, 1, 62, 60
3, 70592, Note_off_c, 1, 62, 100
3, 73728, Note_on_c, 1, 60, 60
3, 73728, Note_on_c, 1, 57, 60
3, 73728, Note_on_c, 1, 54, 60
3, 74240, Note_off_c, 1, 60, 100
3, 74240, Note_off_c, 1, 57, 100
3, 74240, Note_off_c, 1, 54, 100
3, 74496, Note_on_c, 1, 58, 60
3, 74496, Note_on_c, 1, 55, 60
3, 75008, Note_off_c, 1, 58, 100
3, 75008, Note_off_c, 1, 55, 100
3, 75264, Note_on_c, 1, 58, 60
3, 75264, Note_on_c, 1, 55, 60
3, 75264, Note_on_c, 1, 52, 60
3, 75776, Note_off_c, 1, 58, 100
3, 75776, Note_off_c, 1, 55, 100
3, 75776, Note_off_c, 1, 52, 100
3, 76032, Note_on_c, 1, 57, 60
3, 76032, Note_on_c, 1, 53, 60
3, 76544, Note_off_c, 1, 57, 100
3, 76544, Note_off_c, 1, 53, 100
3, 77184, Note_on_c, 1, 47, 60
3, 77184, Note_on_c, 1, 55, 60
3, 77440, Note_off_c, 1, 47, 100
3, 77440, Note_off_c, 1, 55, 100
3, 77568, Note_on_c, 1, 57, 60
3, 77568, Note_on_c, 1, 48, 60
3, 77824, Note_off_c, 1, 57, 100
3, 77952, Note_on_c, 1, 58, 60
3, 78080, Note_off_c, 1, 48, 100
3, 78208, Note_off_c, 1, 58, 100
3, 78336, Note_on_c, 1, 57, 60
3, 78336, Note_on_c, 1, 53, 60
3, 78464, Note_off_c, 1, 57, 100
3, 78464, Note_off_c, 1, 53, 100
3, 78720, Note_on_c, 1, 64, 60
3, 78848, Note_off_c, 1, 64, 100
3, 78912, Note_on_c, 1, 63, 60
3, 79040, Note_off_c, 1, 63, 100
3, 79104, Note_on_c, 1, 62, 60
3, 79104, Note_on_c, 1, 53, 60
3, 79232, Note_off_c, 1, 62, 100
3, 79232, Note_off_c, 1, 53, 100
3, 79488, Note_on_c, 1, 64, 60
3, 79616, Note_off_c, 1, 64, 100
3, 79680, Note_on_c, 1, 63, 60
3, 79808, Note_off_c, 1, 63, 100
3, 79872, Note_on_c, 1, 62, 62
3, 79872, Note_on_c, 1, 53, 66
3, 80000, Note_off_c, 1, 62, 100
3, 80000, Note_off_c, 1, 53, 100
3, 80256, Note_on_c, 1, 64, 68
3, 80384, Note_off_c, 1, 64, 100
3, 80448, Note_on_c, 1, 63, 72
3, 80576, Note_off_c, 1, 63, 100
3, 80640, Note_on_c, 1, 62, 74
3, 80768, Note_off_c, 1, 62, 100
3, 80832, Note_on_c, 1, 57, 79
3, 80960, Note_off_c, 1, 57, 100
3, 81024, Note_on_c, 1, 58, 84
3, 81152, Note_off_c, 1, 58, 100
3, 81216, Note_on_c, 1, 55, 88
3, 81344, Note_off_c, 1, 55, 100
3, 81408, Note_on_c, 1, 57, 90
3, 81664, Note_off_c, 1, 57, 100
3, 82176, Note_on_c, 1, 58, 90
3, 82432, Note_off_c, 1, 58, 100
3, 82944, Note_on_c, 1, 48, 90
3, 83072, Note_off_c, 1, 48, 100
3, 83136, Note_on_c, 1, 53, 90
3, 83264, Note_off_c, 1, 53, 100
3, 83328, Note_on_c, 1, 57, 90
3, 83456, Note_off_c, 1, 57, 100
3, 83520, Note_on_c, 1, 53, 90
3, 83648, Note_off_c, 1, 53, 100
3, 83712, Note_on_c, 1, 48, 90
3, 83840, Note_off_c, 1, 48, 100
3, 83904, Note_on_c, 1, 55, 90
3, 84032, Note_off_c, 1, 55, 100
3, 84096, Note_on_c, 1, 58, 90
3, 84224, Note_off_c, 1, 58, 100
3, 84288, Note_on_c, 1, 55, 90
3, 84416, Note_off_c, 1, 55, 100
3, 84480, Note_on_c, 1, 57, 90
3, 84480, Note_on_c, 1, 53, 90
3, 84608, Note_off_c, 1, 57, 100
3, 84608, Note_off_c, 1, 53, 100
3, 84672, Note_on_c, 1, 65, 90
3, 84800, Note_off_c, 1, 65, 100
3, 84864, Note_on_c, 1, 64, 90
3, 84992, Note_off_c, 1, 64, 100
3, 85056, Note_on_c, 1, 63, 90
3, 85184, Note_off_c, 1, 63, 100
3, 85248, Note_on_c, 1, 62, 90
3, 85248, Note_on_c, 1, 50, 90
3, 85376, Note_off_c, 1, 62, 100
3, 85376, Note_off_c, 1, 50, 100
3, 85440, Note_on_c, 1, 65, 90
3, 85568, Note_off_c, 1, 65, 100
3, 85632, Note_on_c, 1, 64, 90
3, 85760, Note_off_c, 1, 64, 100
3, 85824, Note_on_c, 1, 63, 90
3, 85952, Note_off_c, 1, 63, 100
3, 86016, Note_on_c, 1, 62, 91
3, 86016, Note_on_c, 1, 53, 91
3, 86144, Note_off_c, 1, 62, 100
3, 86144, Note_off_c, 1, 53, 100
3, 86208, Note_on_c, 1, 65, 92
3, 86336, Note_off_c, 1, 65, 100
3, 86400, Note_on_c, 1, 64, 94
3, 86528, Note_off_c, 1, 64, 100
3, 86592, Note_on_c, 1, 63, 94
3, 86720, Note_off_c, 1, 63, 100
3, 86784, Note_on_c, 1, 62, 96
3, 86912, Note_off_c, 1, 62, 100
3, 86976, Note_on_c, 1, 57, 96
3, 87104, Note_off_c, 1, 57, 100
3, 87168, Note_on_c, 1, 58, 97
3, 87296, Note_off_c, 1, 58, 100
3, 87360, Note_on_c, 1, 55, 97
3, 87488, Note_off_c, 1, 55, 100
3, 87552, Note_on_c, 1, 57, 90
3, 87552, Note_on_c, 1, 45, 90
3, 87808, Note_off_c, 1, 57, 100
3, 87808, Note_off_c, 1, 45, 100
3, 88320, Note_on_c, 1, 58, 90
3, 88320, Note_on_c, 1, 46, 90
3, 88576, Note_off_c, 1, 58, 100
3, 88576, Note_off_c, 1, 46, 100
3, 89088, Note_on_c, 1, 48, 90
3, 89152, Note_off_c, 1, 48, 100
3, 89184, Note_on_c, 1, 57, 90
3, 89248, Note_off_c, 1, 57, 100
3, 89280, Note_on_c, 1, 53, 90
3, 89344, Note_off_c, 1, 53, 100
3, 89376, Note_on_c, 1, 57, 90
3, 89440, Note_off_c, 1, 57, 100
3, 89472, Note_on_c, 1, 48, 90
3, 89536, Note_off_c, 1, 48, 100
3, 89568, Note_on_c, 1, 57, 90
3, 89632, Note_off_c, 1, 57, 100
3, 89664, Note_on_c, 1, 53, 90
3, 89728, Note_off_c, 1, 53, 100
3, 89760, Note_on_c, 1, 57, 90
3, 89824, Note_off_c, 1, 57, 100
3, 89856, Note_on_c, 1, 48, 90
3, 89920, Note_off_c, 1, 48, 100
3, 89952, Note_on_c, 1, 57, 90
3, 90016, Note_off_c, 1, 57, 100
3, 90048, Note_on_c, 1, 53, 90
3, 90112, Note_off_c, 1, 53, 100
3, 90144, Note_on_c, 1, 57, 90
3, 90208, Note_off_c, 1, 57, 100
3, 90240, Note_on_c, 1, 48, 90
3, 90304, Note_off_c, 1, 48, 100
3, 90336, Note_on_c, 1, 57, 90
3, 90400, Note_off_c, 1, 57, 100
3, 90432, Note_on_c, 1, 55, 90
3, 90496, Note_off_c, 1, 55, 100
3, 90528, Note_on_c, 1, 57, 90
3, 90592, Note_off_c, 1, 57, 100
3, 90624, Note_on_c, 1, 48, 90
3, 90688, Note_off_c, 1, 48, 100
3, 90720, Note_on_c, 1, 58, 90
3, 90784, Note_off_c, 1, 58, 100
3, 90816, Note_on_c, 1, 52, 90
3, 90880, Note_off_c, 1, 52, 100
3, 90912, Note_on_c, 1, 58, 90
3, 90976, Note_off_c, 1, 58, 100
3, 91008, Note_on_c, 1, 48, 90
3, 91072, Note_off_c, 1, 48, 100
3, 91104, Note_on_c, 1, 58, 90
3, 91168, Note_off_c, 1, 58, 100
3, 91200, Note_on_c, 1, 52, 90
3, 91264, Note_off_c, 1, 52, 100
3, 91296, Note_on_c, 1, 58, 90
3, 91360, Note_off_c, 1, 58, 100
3, 91392, Note_on_c, 1, 48, 90
3, 91456, Note_off_c, 1, 48, 100
3, 91488, Note_on_c, 1, 58, 90
3, 91552, Note_off_c, 1, 58, 100
3, 91584, Note_on_c, 1, 52, 90
3, 91648, Note_off_c, 1, 52, 100
3, 91680, Note_on_c, 1, 58, 90
3, 91744, Note_off_c, 1, 58, 100
3, 91776, Note_on_c, 1, 48, 90
3, 91840, Note_off_c, 1, 48, 100
3, 91872, Note_on_c, 1, 58, 90
3, 91936, Note_off_c, 1, 58, 100
3, 91968, Note_on_c, 1, 52, 90
3, 92032, Note_off_c, 1, 52, 100
3, 92064, Note_on_c, 1, 58, 90
3, 92128, Note_off_c, 1, 58, 100
3, 92160, Note_on_c, 1, 53, 90
3, 92288, Note_off_c, 1, 53, 100
3, 92352, Note_on_c, 1, 65, 60
3, 92480, Note_off_c, 1, 65, 100
3, 92544, Note_on_c, 1, 64, 60
3, 92672, Note_off_c, 1, 64, 100
3, 92736, Note_on_c, 1, 65, 60
3, 92864, Note_off_c, 1, 65, 100
3, 92928, Note_on_c, 1, 67, 60
3, 93056, Note_off_c, 1, 67, 100
3, 93120, Note_on_c, 1, 65, 60
3, 93248, Note_off_c, 1, 65, 100
3, 93312, Note_on_c, 1, 64, 60
3, 93440, Note_off_c, 1, 64, 100
3, 93504, Note_on_c, 1, 63, 60
3, 93632, Note_off_c, 1, 63, 100
3, 93696, Note_on_c, 1, 62, 60
3, 93824, Note_off_c, 1, 62, 100
3, 93888, Note_on_c, 1, 53, 60
3, 94016, Note_off_c, 1, 53, 100
3, 94080, Note_on_c, 1, 61, 60
3, 94208, Note_off_c, 1, 61, 100
3, 94272, Note_on_c, 1, 53, 60
3, 94400, Note_off_c, 1, 53, 100
3, 94464, Note_on_c, 1, 60, 60
3, 94592, Note_off_c, 1, 60, 100
3, 94656, Note_on_c, 1, 53, 60
3, 94784, Note_off_c, 1, 53, 100
3, 94848, Note_on_c, 1, 64, 60
3, 94976, Note_off_c, 1, 64, 100
3, 95040, Note_on_c, 1, 53, 60
3, 95168, Note_off_c, 1, 53, 100
3, 95232, Note_on_c, 1, 65, 60
3, 95360, Note_off_c, 1, 65, 100
3, 95424, Note_on_c, 1, 53, 60
3, 95552, Note_off_c, 1, 53, 100
3, 95616, Note_on_c, 1, 52, 60
3, 95744, Note_off_c, 1, 52, 100
3, 95808, Note_on_c, 1, 53, 60
3, 95936, Note_off_c, 1, 53, 100
3, 96000, Note_on_c, 1, 55, 60
3, 96128, Note_off_c, 1, 55, 100
3, 96192, Note_on_c, 1, 53, 60
3, 96320, Note_off_c, 1, 53, 100
3, 96384, Note_on_c, 1, 52, 60
3, 96512, Note_off_c, 1, 52, 100
3, 96576, Note_on_c, 1, 51, 60
3, 96704, Note_off_c, 1, 51, 100
3, 96768, Note_on_c, 1, 50, 60
3, 97024, Note_off_c, 1, 50, 100
3, 97152, Note_on_c, 1, 46, 60
3, 97408, Note_off_c, 1, 46, 100
3, 97536, Note_on_c, 1, 48, 60
3, 97792, Note_off_c, 1, 48, 100
3, 97920, Note_on_c, 1, 48, 60
3, 98176, Note_off_c, 1, 48, 100
3, 98304, Note_on_c, 1, 53, 60
3, 98560, Note_off_c, 1, 53, 100
3, 98688, Note_on_c, 1, 48, 60
3, 98944, Note_off_c, 1, 48, 100
3, 99072, Note_on_c, 1, 41, 60
3, 99328, Note_off_c, 1, 41, 100
3, 103104, Note_on_c, 1, 53, 60
3, 103232, Note_off_c, 1, 53, 100
3, 103296, Note_on_c, 1, 60, 60
3, 103424, Note_off_c, 1, 60, 100
3, 103488, Note_on_c, 1, 63, 60
3, 103616, Note_off_c, 1, 63, 100
3, 103680, Note_on_c, 1, 60, 60
3, 103808, Note_off_c, 1, 60, 100
3, 103872, Note_on_c, 1, 53, 60
3, 104000, Note_off_c, 1, 53, 100
3, 104064, Note_on_c, 1, 60, 60
3, 104192, Note_off_c, 1, 60, 100
3, 104256, Note_on_c, 1, 63, 60
3, 104384, Note_off_c, 1, 63, 100
3, 112128, Note_on_c, 1, 57, 90
3, 112384, Note_off_c, 1, 57, 100
3, 112512, Note_on_c, 1, 58, 90
3, 112768, Note_off_c, 1, 58, 100
3, 112896, Note_on_c, 1, 51, 90
3, 113152, Note_off_c, 1, 51, 100
3, 113280, Note_on_c, 1, 53, 90
3, 113536, Note_off_c, 1, 53, 100
3, 113856, Note_on_c, 1, 46, 90
3, 113984, Note_off_c, 1, 46, 100
3, 114048, Note_on_c, 1, 50, 90
3, 114176, Note_off_c, 1, 50, 100
3, 114240, Note_on_c, 1, 53, 90
3, 114368, Note_off_c, 1, 53, 100
3, 114432, Note_on_c, 1, 58, 90
3, 114688, Note_off_c, 1, 58, 100
3, 115392, Note_on_c, 1, 46, 44
3, 115520, Note_off_c, 1, 46, 100
3, 115584, Note_on_c, 1, 50, 44
3, 115712, Note_off_c, 1, 50, 100
3, 115776, Note_on_c, 1, 53, 44
3, 115904, Note_off_c, 1, 53, 100
3, 115968, Note_on_c, 1, 50, 44
3, 116096, Note_off_c, 1, 50, 100
3, 116160, Note_on_c, 1, 46, 44
3, 116288, Note_off_c, 1, 46, 100
3, 116352, Note_on_c, 1, 50, 44
3, 116480, Note_off_c, 1, 50, 100
3, 116544, Note_on_c, 1, 55, 44
3, 116672, Note_off_c, 1, 55, 100
3, 116928, Note_on_c, 1, 48, 44
3, 117056, Note_off_c, 1, 48, 100
3, 117120, Note_on_c, 1, 55, 44
3, 117248, Note_off_c, 1, 55, 100
3, 117312, Note_on_c, 1, 58, 44
3, 117440, Note_off_c, 1, 58, 100
3, 117504, Note_on_c, 1, 55, 44
3, 117632, Note_off_c, 1, 55, 100
3, 117696, Note_on_c, 1, 51, 44
3, 117824, Note_off_c, 1, 51, 100
3, 117888, Note_on_c, 1, 55, 44
3, 118016, Note_off_c, 1, 55, 100
3, 118080, Note_on_c, 1, 58, 44
3, 118208, Note_off_c, 1, 58, 100
3, 118464, Note_on_c, 1, 52, 44
3, 118592, Note_off_c, 1, 52, 100
3, 118656, Note_on_c, 1, 55, 44
3, 118784, Note_off_c, 1, 55, 100
3, 118848, Note_on_c, 1, 60, 44
3, 118976, Note_off_c, 1, 60, 100
3, 119040, Note_on_c, 1, 55, 44
3, 119168, Note_off_c, 1, 55, 100
3, 119232, Note_on_c, 1, 52, 44
3, 119360, Note_off_c, 1, 52, 100
3, 119424, Note_on_c, 1, 55, 44
3, 119552, Note_off_c, 1, 55, 100
3, 119616, Note_on_c, 1, 60, 44
3, 119744, Note_off_c, 1, 60, 100
3, 120000, Note_on_c, 1, 53, 44
3, 120128, Note_off_c, 1, 53, 100
3, 120192, Note_on_c, 1, 57, 44
3, 120320, Note_off_c, 1, 57, 100
3, 120384, Note_on_c, 1, 60, 44
3, 120512, Note_off_c, 1, 60, 100
3, 120576, Note_on_c, 1, 57, 44
3, 120704, Note_off_c, 1, 57, 100
3, 120768, Note_on_c, 1, 53, 44
3, 120896, Note_off_c, 1, 53, 100
3, 120960, Note_on_c, 1, 57, 44
3, 121088, Note_off_c, 1, 57, 100
3, 121152, Note_on_c, 1, 60, 44
3, 121280, Note_off_c, 1, 60, 100
3, 121344, Note_on_c, 1, 58, 48
3, 121472, Note_off_c, 1, 58, 100
3, 121536, Note_on_c, 1, 60, 49
3, 121664, Note_off_c, 1, 60, 100
3, 121728, Note_on_c, 1, 58, 50
3, 121856, Note_off_c, 1, 58, 100
3, 121920, Note_on_c, 1, 60, 52
3, 122048, Note_off_c, 1, 60, 100
3, 122112, Note_on_c, 1, 57, 54
3, 122240, Note_off_c, 1, 57, 100
3, 122304, Note_on_c, 1, 60, 55
3, 122432, Note_off_c, 1, 60, 100
3, 122496, Note_on_c, 1, 57, 56
3, 122624, Note_off_c, 1, 57, 100
3, 122688, Note_on_c, 1, 60, 58
3, 122816, Note_off_c, 1, 60, 100
3, 122880, Note_on_c, 1, 58, 60
3, 123008, Note_off_c, 1, 58, 100
3, 123072, Note_on_c, 1, 60, 62
3, 123200, Note_off_c, 1, 60, 100
3, 123264, Note_on_c, 1, 58, 64
3, 123392, Note_off_c, 1, 58, 100
3, 123456, Note_on_c, 1, 60, 66
3, 123584, Note_off_c, 1, 60, 100
3, 123648, Note_on_c, 1, 57, 67
3, 123776, Note_off_c, 1, 57, 100
3, 123840, Note_on_c, 1, 60, 68
3, 123968, Note_off_c, 1, 60, 100
3, 124032, Note_on_c, 1, 57, 70
3, 124160, Note_off_c, 1, 57, 100
3, 124224, Note_on_c, 1, 60, 73
3, 124352, Note_off_c, 1, 60, 100
3, 124416, Note_on_c, 1, 58, 74
3, 124544, Note_off_c, 1, 58, 100
3, 124608, Note_on_c, 1, 62, 78
3, 124736, Note_off_c, 1, 62, 100
3, 124800, Note_on_c, 1, 58, 79
3, 124928, Note_off_c, 1, 58, 100
3, 124992, Note_on_c, 1, 60, 80
3, 125120, Note_off_c, 1, 60, 100
3, 125184, Note_on_c, 1, 59, 82
3, 125312, Note_off_c, 1, 59, 100
3, 125376, Note_on_c, 1, 60, 84
3, 125504, Note_off_c, 1, 60, 100
3, 125568, Note_on_c, 1, 59, 85
3, 125696, Note_off_c, 1, 59, 100
3, 125760, Note_on_c, 1, 62, 88
3, 125888, Note_off_c, 1, 62, 100
3, 132864, Note_on_c, 1, 48, 90
3, 132864, Note_on_c, 1, 36, 90
3, 133120, Note_off_c, 1, 48, 100
3, 133120, Note_off_c, 1, 36, 100
3, 133632, Note_on_c, 1, 53, 97
3, 133632, Note_on_c, 1, 41, 97
3, 134144, Note_off_c, 1, 53, 100
3, 134144, Note_off_c, 1, 41, 100
3, 135552, Note_on_c, 1, 58, 97
3, 135552, Note_on_c, 1, 46, 97
3, 136064, Note_off_c, 1, 58, 100
3, 136064, Note_off_c, 1, 46, 100
3, 136320, Note_on_c, 1, 57, 90
3, 136576, Note_off_c, 1, 57, 100
3, 136704, Note_on_c, 1, 58, 60
3, 136704, Note_on_c, 1, 62, 60
3, 136960, Note_off_c, 1, 58, 100
3, 136960, Note_off_c, 1, 62, 100
3, 137088, Note_on_c, 1, 60, 60
3, 137344, Note_off_c, 1, 60, 100
3, 137472, Note_on_c, 1, 58, 60
3, 137472, Note_on_c, 1, 62, 60
3, 137728, Note_off_c, 1, 58, 100
3, 137728, Note_off_c, 1, 62, 100
3, 137856, Note_on_c, 1, 60, 60
3, 138112, Note_off_c, 1, 60, 100
3, 138240, Note_on_c, 1, 62, 60
3, 138496, Note_off_c, 1, 62, 100
3, 138624, Note_on_c, 1, 64, 60
3, 138880, Note_off_c, 1, 64, 100
3, 139008, Note_on_c, 1, 65, 60
3, 139264, Note_off_c, 1, 65, 100
3, 139968, Note_on_c, 1, 46, 60
3, 140096, Note_off_c, 1, 46, 100
3, 140160, Note_on_c, 1, 50, 60
3, 140288, Note_off_c, 1, 50, 100
3, 140352, Note_on_c, 1, 55, 60
3, 140480, Note_off_c, 1, 55, 100
3, 140544, Note_on_c, 1, 58, 60
3, 140800, Note_off_c, 1, 58, 100
3, 141504, Note_on_c, 1, 45, 60
3, 141632, Note_off_c, 1, 45, 100
3, 141696, Note_on_c, 1, 48, 60
3, 141824, Note_off_c, 1, 48, 100
3, 141888, Note_on_c, 1, 53, 60
3, 142016, Note_off_c, 1, 53, 100
3, 142080, Note_on_c, 1, 57, 60
3, 142336, Note_off_c, 1, 57, 100
3, 142848, Note_on_c, 1, 55, 60
3, 143104, Note_off_c, 1, 55, 100
3, 143232, Note_on_c, 1, 52, 60
3, 143488, Note_off_c, 1, 52, 100
3, 143616, Note_on_c, 1, 53, 60
3, 143872, Note_off_c, 1, 53, 100
3, 144000, Note_on_c, 1, 50, 60
3, 144256, Note_off_c, 1, 50, 100
3, 144384, Note_on_c, 1, 48, 60
3, 144640, Note_off_c, 1, 48, 100
3, 145152, Note_on_c, 1, 48, 60
3, 145216, Note_off_c, 1, 48, 100
3, 145248, Note_on_c, 1, 50, 60
3, 145312, Note_off_c, 1, 50, 100
3, 145344, Note_on_c, 1, 46, 60
3, 145408, Note_off_c, 1, 46, 100
3, 145440, Note_on_c, 1, 48, 60
3, 145504, Note_off_c, 1, 48, 100
3, 145536, Note_on_c, 1, 45, 60
3, 145600, Note_off_c, 1, 45, 100
3, 145632, Note_on_c, 1, 46, 60
3, 145696, Note_off_c, 1, 46, 100
3, 145728, Note_on_c, 1, 43, 60
3, 145792, Note_off_c, 1, 43, 100
3, 145824, Note_on_c, 1, 45, 60
3, 145888, Note_off_c, 1, 45, 100
3, 145920, Note_on_c, 1, 41, 97
3, 146176, Note_off_c, 1, 41, 100
3, 146304, Note_on_c, 1, 51, 60
3, 146560, Note_off_c, 1, 51, 100
3, 147840, Note_on_c, 1, 46, 97
3, 147840, Note_on_c, 1, 58, 97
3, 148352, Note_off_c, 1, 46, 100
3, 148352, Note_off_c, 1, 58, 100
3, 148608, Note_on_c, 1, 57, 60
3, 148864, Note_off_c, 1, 57, 100
3, 148992, Note_on_c, 1, 59, 60
3, 148992, Note_on_c, 1, 62, 60
3, 149248, Note_off_c, 1, 59, 100
3, 149248, Note_off_c, 1, 62, 100
3, 149376, Note_on_c, 1, 60, 60
3, 149632, Note_off_c, 1, 60, 100
3, 149760, Note_on_c, 1, 59, 60
3, 149760, Note_on_c, 1, 62, 60
3, 150016, Note_off_c, 1, 59, 100
3, 150016, Note_off_c, 1, 62, 100
3, 150144, Note_on_c, 1, 60, 60
3, 150400, Note_off_c, 1, 60, 100
3, 152256, Note_on_c, 1, 50, 90
3, 152384, Note_off_c, 1, 50, 100
3, 152448, Note_on_c, 1, 62, 90
3, 152576, Note_off_c, 1, 62, 100
3, 152640, Note_on_c, 1, 60, 90
3, 152768, Note_off_c, 1, 60, 100
3, 152832, Note_on_c, 1, 58, 90
3, 152960, Note_off_c, 1, 58, 100
3, 153024, Note_on_c, 1, 50, 90
3, 153152, Note_off_c, 1, 50, 100
3, 153216, Note_on_c, 1, 58, 90
3, 153344, Note_off_c, 1, 58, 100
3, 153408, Note_on_c, 1, 57, 90
3, 153536, Note_off_c, 1, 57, 100
3, 153600, Note_on_c, 1, 55, 90
3, 153728, Note_off_c, 1, 55, 100
3, 153792, Note_on_c, 1, 53, 90
3, 153920, Note_off_c, 1, 53, 100
3, 153984, Note_on_c, 1, 52, 90
3, 154112, Note_off_c, 1, 52, 100
3, 154176, Note_on_c, 1, 48, 90
3, 154368, Note_off_c, 1, 48, 100
3, 154368, Note_on_c, 1, 53, 90
3, 154624, Note_off_c, 1, 53, 100
3, 154752, Note_on_c, 1, 45, 90
3, 155008, Note_off_c, 1, 45, 100
3, 155136, Note_on_c, 1, 46, 90
3, 155392, Note_off_c, 1, 46, 100
3, 155520, Note_on_c, 1, 58, 90
3, 155776, Note_off_c, 1, 58, 100
3, 155904, Note_on_c, 1, 60, 90
3, 156160, Note_off_c, 1, 60, 100
3, 156288, Note_on_c, 1, 48, 90
3, 156544, Note_off_c, 1, 48, 100
3, 156672, Note_on_c, 1, 51, 90
3, 156736, Note_off_c, 1, 51, 100
3, 156768, Note_on_c, 1, 60, 90
3, 156832, Note_off_c, 1, 60, 100
3, 156864, Note_on_c, 1, 59, 90
3, 156928, Note_off_c, 1, 59, 100
3, 156960, Note_on_c, 1, 60, 90
3, 157024, Note_off_c, 1, 60, 100
3, 157056, Note_on_c, 1, 62, 90
3, 157120, Note_off_c, 1, 62, 100
3, 157152, Note_on_c, 1, 60, 90
3, 157216, Note_off_c, 1, 60, 100
3, 157248, Note_on_c, 1, 59, 90
3, 157312, Note_off_c, 1, 59, 100
3, 157344, Note_on_c, 1, 60, 90
3, 157408, Note_off_c, 1, 60, 100
3, 157440, Note_on_c, 1, 58, 90
3, 157504, Note_off_c, 1, 58, 100
3, 157536, Note_on_c, 1, 60, 90
3, 157600, Note_off_c, 1, 60, 100
3, 157632, Note_on_c, 1, 57, 90
3, 157696, Note_off_c, 1, 57, 100
3, 157728, Note_on_c, 1, 60, 90
3, 157792, Note_off_c, 1, 60, 100
3, 157824, Note_on_c, 1, 55, 90
3, 157888, Note_off_c, 1, 55, 100
3, 157920, Note_on_c, 1, 60, 90
3, 157984, Note_off_c, 1, 60, 100
3, 158016, Note_on_c, 1, 53, 90
3, 158080, Note_off_c, 1, 53, 100
3, 158112, Note_on_c, 1, 60, 90
3, 158176, Note_off_c, 1, 60, 100
3, 158208, Note_on_c, 1, 52, 90
3, 158272, Note_off_c, 1, 52, 100
3, 158304, Note_on_c, 1, 60, 90
3, 158368, Note_off_c, 1, 60, 100
3, 158400, Note_on_c, 1, 55, 90
3, 158464, Note_off_c, 1, 55, 100
3, 158496, Note_on_c, 1, 60, 90
3, 158560, Note_off_c, 1, 60, 100
3, 158592, Note_on_c, 1, 58, 90
3, 158656, Note_off_c, 1, 58, 100
3, 158688, Note_on_c, 1, 60, 90
3, 158752, Note_off_c, 1, 60, 100
3, 158784, Note_on_c, 1, 58, 90
3, 158848, Note_off_c, 1, 58, 100
3, 158880, Note_on_c, 1, 60, 90
3, 158944, Note_off_c, 1, 60, 100
3, 158976, Note_on_c, 1, 52, 90
3, 159040, Note_off_c, 1, 52, 100
3, 159072, Note_on_c, 1, 60, 90
3, 159136, Note_off_c, 1, 60, 100
3, 159168, Note_on_c, 1, 55, 90
3, 159232, Note_off_c, 1, 55, 100
3, 159264, Note_on_c, 1, 60, 90
3, 159328, Note_off_c, 1, 60, 100
3, 159360, Note_on_c, 1, 58, 90
3, 159424, Note_off_c, 1, 58, 100
3, 159456, Note_on_c, 1, 60, 90
3, 159520, Note_off_c, 1, 60, 100
3, 159552, Note_on_c, 1, 58, 90
3, 159616, Note_off_c, 1, 58, 100
3, 159648, Note_on_c, 1, 60, 90
3, 159712, Note_off_c, 1, 60, 100
3, 159744, Note_on_c, 1, 57, 90
3, 159808, Note_off_c, 1, 57, 100
3, 159840, Note_on_c, 1, 60, 90
3, 159904, Note_off_c, 1, 60, 100
3, 159936, Note_on_c, 1, 52, 90
3, 160000, Note_off_c, 1, 52, 100
3, 160032, Note_on_c, 1, 60, 90
3, 160096, Note_off_c, 1, 60, 100
3, 160128, Note_on_c, 1, 53, 90
3, 160192, Note_off_c, 1, 53, 100
3, 160224, Note_on_c, 1, 60, 90
3, 160288, Note_off_c, 1, 60, 100
3, 160320, Note_on_c, 1, 55, 90
3, 160384, Note_off_c, 1, 55, 100
3, 160416, Note_on_c, 1, 60, 90
3, 160480, Note_off_c, 1, 60, 100
3, 160512, Note_on_c, 1, 56, 90
3, 160576, Note_off_c, 1, 56, 100
3, 160608, Note_on_c, 1, 60, 90
3, 160672, Note_off_c, 1, 60, 100
3, 160704, Note_on_c, 1, 57, 90
3, 160776, Note_off_c, 1, 57, 100
3, 160800, Note_on_c, 1, 60, 90
3, 160864, Note_off_c, 1, 60, 100
3, 160896, Note_on_c, 1, 55, 90
3, 160960, Note_off_c, 1, 55, 100
3, 160992, Note_on_c, 1, 60, 90
3, 161056, Note_off_c, 1, 60, 100
3, 161088, Note_on_c, 1, 57, 90
3, 161152, Note_off_c, 1, 57, 100
3, 161184, Note_on_c, 1, 60, 90
3, 161248, Note_off_c, 1, 60, 100
3, 161280, Note_on_c, 1, 52, 90
3, 161344, Note_off_c, 1, 52, 100
3, 161376, Note_on_c, 1, 60, 90
3, 161440, Note_off_c, 1, 60, 100
3, 161472, Note_on_c, 1, 55, 90
3, 161536, Note_off_c, 1, 55, 100
3, 161568, Note_on_c, 1, 60, 90
3, 161632, Note_off_c, 1, 60, 100
3, 161664, Note_on_c, 1, 58, 90
3, 161728, Note_off_c, 1, 58, 100
3, 161760, Note_on_c, 1, 60, 90
3, 161824, Note_off_c, 1, 60, 100
3, 161856, Note_on_c, 1, 58, 90
3, 161920, Note_off_c, 1, 58, 100
3, 161952, Note_on_c, 1, 60, 90
3, 162016, Note_off_c, 1, 60, 100
3, 162048, Note_on_c, 1, 52, 90
3, 162112, Note_off_c, 1, 52, 100
3, 162144, Note_on_c, 1, 60, 90
3, 162208, Note_off_c, 1, 60, 100
3, 162240, Note_on_c, 1, 55, 90
3, 162304, Note_off_c, 1, 55, 100
3, 162336, Note_on_c, 1, 60, 90
3, 162400, Note_off_c, 1, 60, 100
3, 162432, Note_on_c, 1, 58, 90
3, 162496, Note_off_c, 1, 58, 100
3, 162528, Note_on_c, 1, 60, 90
3, 162592, Note_off_c, 1, 60, 100
3, 162624, Note_on_c, 1, 58, 90
3, 162688, Note_off_c, 1, 58, 100
3, 162720, Note_on_c, 1, 60, 90
3, 162784, Note_off_c, 1, 60, 100
3, 162816, Note_on_c, 1, 57, 90
3, 162880, Note_off_c, 1, 57, 100
3, 162912, Note_on_c, 1, 60, 90
3, 162976, Note_off_c, 1, 60, 100
3, 163008, Note_on_c, 1, 52, 90
3, 163072, Note_off_c, 1, 52, 100
3, 163104, Note_on_c, 1, 60, 90
3, 163168, Note_off_c, 1, 60, 100
3, 163200, Note_on_c, 1, 53, 90
3, 163264, Note_off_c, 1, 53, 100
3, 163296, Note_on_c, 1, 60, 90
3, 163360, Note_off_c, 1, 60, 100
3, 163392, Note_on_c, 1, 55, 90
3, 163456, Note_off_c, 1, 55, 100
3, 163488, Note_on_c, 1, 60, 90
3, 163552, Note_off_c, 1, 60, 100
3, 163584, Note_on_c, 1, 56, 90
3, 163648, Note_off_c, 1, 56, 100
3, 163680, Note_on_c, 1, 60, 90
3, 163744, Note_off_c, 1, 60, 100
3, 163776, Note_on_c, 1, 57, 90
3, 163840, Note_off_c, 1, 57, 100
3, 163872, Note_on_c, 1, 60, 90
3, 163936, Note_off_c, 1, 60, 100
3, 163968, Note_on_c, 1, 56, 90
3, 164032, Note_off_c, 1, 56, 100
3, 164064, Note_on_c, 1, 60, 90
3, 164128, Note_off_c, 1, 60, 100
3, 164160, Note_on_c, 1, 57, 90
3, 164224, Note_off_c, 1, 57, 100
3, 164256, Note_on_c, 1, 60, 90
3, 164320, Note_off_c, 1, 60, 100
3, 164544, Note_on_c, 1, 58, 60
3, 164672, Note_off_c, 1, 58, 100
3, 164736, Note_on_c, 1, 57, 60
3, 164864, Note_off_c, 1, 57, 100
3, 164928, Note_on_c, 1, 58, 60
3, 165056, Note_off_c, 1, 58, 100
3, 165312, Note_on_c, 1, 60, 60
3, 165440, Note_off_c, 1, 60, 100
3, 165504, Note_on_c, 1, 59, 60
3, 165632, Note_off_c, 1, 59, 100
3, 165696, Note_on_c, 1, 60, 60
3, 165824, Note_off_c, 1, 60, 100
3, 166080, Note_on_c, 1, 61, 60
3, 166208, Note_off_c, 1, 61, 100
3, 166272, Note_on_c, 1, 59, 60
3, 166400, Note_off_c, 1, 59, 100
3, 166464, Note_on_c, 1, 61, 60
3, 166592, Note_off_c, 1, 61, 100
3, 166848, Note_on_c, 1, 62, 60
3, 166976, Note_off_c, 1, 62, 100
3, 167040, Note_on_c, 1, 61, 60
3, 167168, Note_off_c, 1, 61, 100
3, 167232, Note_on_c, 1, 62, 60
3, 167360, Note_off_c, 1, 62, 100
3, 170496, Note_on_c, 1, 60, 60
3, 170496, Note_on_c, 1, 57, 60
3, 170496, Note_on_c, 1, 54, 60
3, 171008, Note_off_c, 1, 60, 100
3, 171008, Note_off_c, 1, 57, 100
3, 171008, Note_off_c, 1, 54, 100
3, 171264, Note_on_c, 1, 58, 60
3, 171264, Note_on_c, 1, 55, 60
3, 171776, Note_off_c, 1, 58, 100
3, 171776, Note_off_c, 1, 55, 100
3, 172032, Note_on_c, 1, 58, 60
3, 172032, Note_on_c, 1, 55, 60
3, 172032, Note_on_c, 1, 52, 60
3, 172544, Note_off_c, 1, 58, 100
3, 172544, Note_off_c, 1, 55, 100
3, 172544, Note_off_c, 1, 52, 100
3, 172800, Note_on_c, 1, 57, 60
3, 172800, Note_on_c, 1, 53, 60
3, 173312, Note_off_c, 1, 57, 100
3, 173312, Note_off_c, 1, 53, 100
3, 173952, Note_on_c, 1, 47, 60
3, 173952, Note_on_c, 1, 55, 60
3, 174208, Note_off_c, 1, 47, 100
3, 174208, Note_off_c, 1, 55, 100
3, 174336, Note_on_c, 1, 57, 60
3, 174336, Note_on_c, 1, 48, 60
3, 174592, Note_off_c, 1, 57, 100
3, 174720, Note_on_c, 1, 58, 60
3, 174848, Note_off_c, 1, 48, 100
3, 174976, Note_off_c, 1, 58, 100
3, 175104, Note_on_c, 1, 57, 60
3, 175104, Note_on_c, 1, 53, 60
3, 175232, Note_off_c, 1, 57, 100
3, 175232, Note_off_c, 1, 53, 100
3, 175488, Note_on_c, 1, 64, 60
3, 175616, Note_off_c, 1, 64, 100
3, 175680, Note_on_c, 1, 63, 60
3, 175808, Note_off_c, 1, 63, 100
3, 175872, Note_on_c, 1, 62, 60
3, 175872, Note_on_c, 1, 53, 60
3, 176000, Note_off_c, 1, 62, 100
3, 176000, Note_off_c, 1, 53, 100
3, 176256, Note_on_c, 1, 64, 60
3, 176384, Note_off_c, 1, 64, 100
3, 176448, Note_on_c, 1, 63, 60
3, 176576, Note_off_c, 1, 63, 100
3, 176640, Note_on_c, 1, 62, 62
3, 176640, Note_on_c, 1, 53, 66
3, 176768, Note_off_c, 1, 62, 100
3, 176768, Note_off_c, 1, 53, 100
3, 177024, Note_on_c, 1, 64, 68
3, 177152, Note_off_c, 1, 64, 100
3, 177216, Note_on_c, 1, 63, 72
3, 177344, Note_off_c, 1, 63, 100
3, 177408, Note_on_c, 1, 62, 74
3, 177536, Note_off_c, 1, 62, 100
3, 177600, Note_on_c, 1, 57, 79
3, 177728, Note_off_c, 1, 57, 100
3, 177792, Note_on_c, 1, 58, 84
3, 177920, Note_off_c, 1, 58, 100
3, 177984, Note_on_c, 1, 55, 88
3, 178112, Note_off_c, 1, 55, 100
3, 178176, Note_on_c, 1, 57, 90
3, 178432, Note_off_c, 1, 57, 100
3, 178944, Note_on_c, 1, 58, 90
3, 179200, Note_off_c, 1, 58, 100
3, 179712, Note_on_c, 1, 48, 90
3, 179840, Note_off_c, 1, 48, 100
3, 179904, Note_on_c, 1, 53, 90
3, 180032, Note_off_c, 1, 53, 100
3, 180096, Note_on_c, 1, 57, 90
3, 180224, Note_off_c, 1, 57, 100
3, 180288, Note_on_c, 1, 53, 90
3, 180416, Note_off_c, 1, 53, 100
3, 180480, Note_on_c, 1, 48, 90
3, 180608, Note_off_c, 1, 48, 100
3, 180672, Note_on_c, 1, 55, 90
3, 180800, Note_off_c, 1, 55, 100
3, 180864, Note_on_c, 1, 58, 90
3, 180992, Note_off_c, 1, 58, 100
3, 181056, Note_on_c, 1, 55, 90
3, 181184, Note_off_c, 1, 55, 100
3, 181248, Note_on_c, 1, 57, 90
3, 181248, Note_on_c, 1, 53, 90
3, 181376, Note_off_c, 1, 57, 100
3, 181376, Note_off_c, 1, 53, 100
3, 181440, Note_on_c, 1, 65, 90
3, 181568, Note_off_c, 1, 65, 100
3, 181632, Note_on_c, 1, 64, 90
3, 181760, Note_off_c, 1, 64, 100
3, 181824, Note_on_c, 1, 63, 90
3, 181952, Note_off_c, 1, 63, 100
3, 182016, Note_on_c, 1, 62, 90
3, 182016, Note_on_c, 1, 50, 90
3, 182144, Note_off_c, 1, 62, 100
3, 182144, Note_off_c, 1, 50, 100
3, 182208, Note_on_c, 1, 65, 90
3, 182336, Note_off_c, 1, 65, 100
3, 182400, Note_on_c, 1, 64, 90
3, 182528, Note_off_c, 1, 64, 100
3, 182592, Note_on_c, 1, 63, 90
3, 182720, Note_off_c, 1, 63, 100
3, 182784, Note_on_c, 1, 62, 91
3, 182784, Note_on_c, 1, 53, 91
3, 182912, Note_off_c, 1, 62, 100
3, 182912, Note_off_c, 1, 53, 100
3, 182976, Note_on_c, 1, 65, 92
3, 183104, Note_off_c, 1, 65, 100
3, 183168, Note_on_c, 1, 64, 94
3, 183296, Note_off_c, 1, 64, 100
3, 183360, Note_on_c, 1, 63, 94
3, 183488, Note_off_c, 1, 63, 100
3, 183552, Note_on_c, 1, 62, 96
3, 183680, Note_off_c, 1, 62, 100
3, 183744, Note_on_c, 1, 57, 96
3, 183872, Note_off_c, 1, 57, 100
3, 183936, Note_on_c, 1, 58, 97
3, 184064, Note_off_c, 1, 58, 100
3, 184128, Note_on_c, 1, 55, 97
3, 184256, Note_off_c, 1, 55, 100
3, 184320, Note_on_c, 1, 57, 90
3, 184320, Note_on_c, 1, 45, 90
3, 184576, Note_off_c, 1, 57, 100
3, 184576, Note_off_c, 1, 45, 100
3, 185088, Note_on_c, 1, 58, 90
3, 185088, Note_on_c, 1, 46, 90
3, 185344, Note_off_c, 1, 58, 100
3, 185344, Note_off_c, 1, 46, 100
3, 185856, Note_on_c, 1, 48, 90
3, 185920, Note_off_c, 1, 48, 100
3, 185952, Note_on_c, 1, 57, 90
3, 186016, Note_off_c, 1, 57, 100
3, 186048, Note_on_c, 1, 53, 90
3, 186112, Note_off_c, 1, 53, 100
3, 186144, Note_on_c, 1, 57, 90
3, 186208, Note_off_c, 1, 57, 100
3, 186240, Note_on_c, 1, 48, 90
3, 186304, Note_off_c, 1, 48, 100
3, 186336, Note_on_c, 1, 57, 90
3, 186400, Note_off_c, 1, 57, 100
3, 186432, Note_on_c, 1, 53, 90
3, 186496, Note_off_c, 1, 53, 100
3, 186528, Note_on_c, 1, 57, 90
3, 186592, Note_off_c, 1, 57, 100
3, 186624, Note_on_c, 1, 48, 90
3, 186688, Note_off_c, 1, 48, 100
3, 186720, Note_on_c, 1, 57, 90
3, 186784, Note_off_c, 1, 57, 100
3, 186816, Note_on_c, 1, 53, 90
3, 186880, Note_off_c, 1, 53, 100
3, 186912, Note_on_c, 1, 57, 90
3, 186976, Note_off_c, 1, 57, 100
3, 187008, Note_on_c, 1, 48, 90
3, 187072, Note_off_c, 1, 48, 100
3, 187104, Note_on_c, 1, 57, 90
3, 187168, Note_off_c, 1, 57, 100
3, 187200, Note_on_c, 1, 55, 90
3, 187264, Note_off_c, 1, 55, 100
3, 187296, Note_on_c, 1, 57, 90
3, 187360, Note_off_c, 1, 57, 100
3, 187392, Note_on_c, 1, 48, 90
3, 187456, Note_off_c, 1, 48, 100
3, 187488, Note_on_c, 1, 58, 90
3, 187552, Note_off_c, 1, 58, 100
3, 187584, Note_on_c, 1, 52, 90
3, 187648, Note_off_c, 1, 52, 100
3, 187680, Note_on_c, 1, 58, 90
3, 187744, Note_off_c, 1, 58, 100
3, 187776, Note_on_c, 1, 48, 90
3, 187840, Note_off_c, 1, 48, 100
3, 187872, Note_on_c, 1, 58, 90
3, 187936, Note_off_c, 1, 58, 100
3, 187968, Note_on_c, 1, 52, 90
3, 188032, Note_off_c, 1, 52, 100
3, 188064, Note_on_c, 1, 58, 90
3, 188128, Note_off_c, 1, 58, 100
3, 188160, Note_on_c, 1, 48, 90
3, 188224, Note_off_c, 1, 48, 100
3, 188256, Note_on_c, 1, 58, 90
3, 188320, Note_off_c, 1, 58, 100
3, 188352, Note_on_c, 1, 52, 90
3, 188416, Note_off_c, 1, 52, 100
3, 188448, Note_on_c, 1, 58, 90
3, 188512, Note_off_c, 1, 58, 100
3, 188544, Note_on_c, 1, 48, 90
3, 188608, Note_off_c, 1, 48, 100
3, 188640, Note_on_c, 1, 58, 90
3, 188704, Note_off_c, 1, 58, 100
3, 188736, Note_on_c, 1, 52, 90
3, 188800, Note_off_c, 1, 52, 100
3, 188832, Note_on_c, 1, 58, 90
3, 188896, Note_off_c, 1, 58, 100
3, 188928, Note_on_c, 1, 53, 90
3, 189056, Note_off_c, 1, 53, 100
3, 189120, Note_on_c, 1, 65, 60
3, 189248, Note_off_c, 1, 65, 100
3, 189312, Note_on_c, 1, 64, 60
3, 189440, Note_off_c, 1, 64, 100
3, 189504, Note_on_c, 1, 65, 60
3, 189632, Note_off_c, 1, 65, 100
3, 189696, Note_on_c, 1, 67, 60
3, 189824, Note_off_c, 1, 67, 100
3, 189888, Note_on_c, 1, 65, 60
3, 190016, Note_off_c, 1, 65, 100
3, 190080, Note_on_c, 1, 64, 60
3, 190208, Note_off_c, 1, 64, 100
3, 190272, Note_on_c, 1, 63, 60
3, 190400, Note_off_c, 1, 63, 100
3, 190464, Note_on_c, 1, 62, 60
3, 190592, Note_off_c, 1, 62, 100
3, 190656, Note_on_c, 1, 53, 60
3, 190784, Note_off_c, 1, 53, 100
3, 190848, Note_on_c, 1, 61, 60
3, 190976, Note_off_c, 1, 61, 100
3, 191040, Note_on_c, 1, 53, 60
3, 191168, Note_off_c, 1, 53, 100
3, 191232, Note_on_c, 1, 60, 60
3, 191360, Note_off_c, 1, 60, 100
3, 191424, Note_on_c, 1, 53, 60
3, 191552, Note_off_c, 1, 53, 100
3, 191616, Note_on_c, 1, 64, 60
3, 191744, Note_off_c, 1, 64, 100
3, 191808, Note_on_c, 1, 53, 60
3, 191936, Note_off_c, 1, 53, 100
3, 192000, Note_on_c, 1, 65, 60
3, 192128, Note_off_c, 1, 65, 100
3, 192192, Note_on_c, 1, 53, 60
3, 192320, Note_off_c, 1, 53, 100
3, 192384, Note_on_c, 1, 52, 60
3, 192512, Note_off_c, 1, 52, 100
3, 192576, Note_on_c, 1, 53, 60
3, 192704, Note_off_c, 1, 53, 100
3, 192768, Note_on_c, 1, 55, 60
3, 192896, Note_off_c, 1, 55, 100
3, 192960, Note_on_c, 1, 53, 60
3, 193088, Note_off_c, 1, 53, 100
3, 193152, Note_on_c, 1, 52, 60
3, 193280, Note_off_c, 1, 52, 100
3, 193344, Note_on_c, 1, 51, 60
3, 193472, Note_off_c, 1, 51, 100
3, 193536, Note_on_c, 1, 50, 60
3, 193792, Note_off_c, 1, 50, 100
3, 193920, Note_on_c, 1, 46, 60
3, 194176, Note_off_c, 1, 46, 100
3, 194304, Note_on_c, 1, 48, 60
3, 194560, Note_off_c, 1, 48, 100
3, 194688, Note_on_c, 1, 48, 60
3, 194944, Note_off_c, 1, 48, 100
3, 195072, Note_on_c, 1, 53, 60
3, 195328, Note_off_c, 1, 53, 100
3, 195456, Note_on_c, 1, 48, 60
3, 195712, Note_off_c, 1, 48, 100
3, 195840, Note_on_c, 1, 41, 60
3, 196096, Note_off_c, 1, 41, 100
3, 196800, Note_on_c, 1, 41, 44
3, 196988, Note_off_c, 1, 41, 0
3, 196992, Note_on_c, 1, 45, 44
3, 197180, Note_off_c, 1, 45, 0
3, 197184, Note_on_c, 1, 48, 44
3, 197372, Note_off_c, 1, 48, 0
3, 197376, Note_on_c, 1, 45, 44
3, 197564, Note_off_c, 1, 45, 0
3, 197568, Note_on_c, 1, 41, 44
3, 197756, Note_off_c, 1, 41, 0
3, 197760, Note_on_c, 1, 45, 44
3, 197948, Note_off_c, 1, 45, 0
3, 197952, Note_on_c, 1, 48, 44
3, 198140, Note_off_c, 1, 48, 0
3, 198336, Note_on_c, 1, 55, 44
3, 198524, Note_off_c, 1, 55, 0
3, 198528, Note_on_c, 1, 58, 44
3, 198716, Note_off_c, 1, 58, 0
3, 198720, Note_on_c, 1, 64, 44
3, 198908, Note_off_c, 1, 64, 0
3, 198912, Note_on_c, 1, 58, 44
3, 199100, Note_off_c, 1, 58, 0
3, 199104, Note_on_c, 1, 55, 44
3, 199292, Note_off_c, 1, 55, 0
3, 199296, Note_on_c, 1, 58, 44
3, 199484, Note_off_c, 1, 58, 0
3, 199488, Note_on_c, 1, 64, 44
3, 199676, Note_off_c, 1, 64, 0
3, 199872, Note_on_c, 1, 43, 44
3, 200000, Note_off_c, 1, 43, 100
3, 200064, Note_on_c, 1, 46, 44
3, 200192, Note_off_c, 1, 46, 100
3, 200256, Note_on_c, 1, 52, 44
3, 200384, Note_off_c, 1, 52, 100
3, 200448, Note_on_c, 1, 46, 44
3, 200576, Note_off_c, 1, 46, 100
3, 200640, Note_on_c, 1, 43, 44
3, 200768, Note_off_c, 1, 43, 100
3, 200832, Note_on_c, 1, 46, 44
3, 200960, Note_off_c, 1, 46, 100
3, 201024, Note_on_c, 1, 52, 44
3, 201152, Note_off_c, 1, 52, 100
3, 201408, Note_on_c, 1, 57, 44
3, 201536, Note_off_c, 1, 57, 100
3, 201600, Note_on_c, 1, 60, 44
3, 201728, Note_off_c, 1, 60, 100
3, 201792, Note_on_c, 1, 63, 44
3, 201920, Note_off_c, 1, 63, 100
3, 201984, Note_on_c, 1, 60, 44
3, 202112, Note_off_c, 1, 60, 100
3, 202176, Note_on_c, 1, 57, 44
3, 202304, Note_off_c, 1, 57, 100
3, 202368, Note_on_c, 1, 60, 44
3, 202496, Note_off_c, 1, 60, 100
3, 202560, Note_on_c, 1, 63, 44
3, 202688, Note_off_c, 1, 63, 100
3, 202944, Note_on_c, 1, 46, 82
3, 203072, Note_off_c, 1, 46, 100
3, 203136, Note_on_c, 1, 50, 82
3, 203264, Note_off_c, 1, 50, 100
3, 203328, Note_on_c, 1, 55, 82
3, 203456, Note_off_c, 1, 55, 100
3, 203712, Note_on_c, 1, 51, 82
3, 203840, Note_off_c, 1, 51, 100
3, 203904, Note_on_c, 1, 55, 82
3, 204032, Note_off_c, 1, 55, 100
3, 204096, Note_on_c, 1, 58, 82
3, 204224, Note_off_c, 1, 58, 100
3, 204480, Note_on_c, 1, 50, 82
3, 204608, Note_off_c, 1, 50, 100
3, 204672, Note_on_c, 1, 53, 82
3, 204800, Note_off_c, 1, 53, 100
3, 204864, Note_on_c, 1, 56, 82
3, 204992, Note_off_c, 1, 56, 100
3, 205056, Note_on_c, 1, 53, 82
3, 205184, Note_off_c, 1, 53, 100
3, 205248, Note_on_c, 1, 50, 82
3, 205376, Note_off_c, 1, 50, 100
3, 205440, Note_on_c, 1, 53, 82
3, 205568, Note_off_c, 1, 53, 100
3, 205632, Note_on_c, 1, 56, 82
3, 205760, Note_off_c, 1, 56, 100
3, 205824, Note_on_c, 1, 57, 82
3, 205824, Note_on_c, 1, 48, 82
3, 206336, Note_off_c, 1, 57, 100
3, 206336, Note_off_c, 1, 48, 100
3, 206592, Note_on_c, 1, 60, 82
3, 206848, Note_off_c, 1, 60, 100
3, 206976, Note_on_c, 1, 48, 82
3, 207232, Note_off_c, 1, 48, 100
3, 207360, Note_on_c, 1, 53, 60
3, 207424, Note_off_c, 1, 53, 100
3, 207456, Note_on_c, 1, 60, 60
3, 207520, Note_off_c, 1, 60, 100
3, 207552, Note_on_c, 1, 56, 60
3, 207616, Note_off_c, 1, 56, 100
3, 207648, Note_on_c, 1, 60, 60
3, 207712, Note_off_c, 1, 60, 100
3, 207744, Note_on_c, 1, 53, 60
3, 207808, Note_off_c, 1, 53, 100
3, 207840, Note_on_c, 1, 60, 60
3, 207904, Note_off_c, 1, 60, 100
3, 207936, Note_on_c, 1, 56, 60
3, 208000, Note_off_c, 1, 56, 100
3, 208032, Note_on_c, 1, 60, 60
3, 208096, Note_off_c, 1, 60, 100
3, 208128, Note_on_c, 1, 53, 60
3, 208192, Note_off_c, 1, 53, 100
3, 208224, Note_on_c, 1, 60, 60
3, 208288, Note_off_c, 1, 60, 100
3, 208320, Note_on_c, 1, 56, 60
3, 208384, Note_off_c, 1, 56, 100
3, 208416, Note_on_c, 1, 60, 60
3, 208480, Note_off_c, 1, 60, 100
3, 208512, Note_on_c, 1, 53, 60
3, 208576, Note_off_c, 1, 53, 100
3, 208608, Note_on_c, 1, 60, 60
3, 208672, Note_off_c, 1, 60, 100
3, 208704, Note_on_c, 1, 56, 60
3, 208768, Note_off_c, 1, 56, 100
3, 208800, Note_on_c, 1, 60, 60
3, 208864, Note_off_c, 1, 60, 100
3, 208896, Note_on_c, 1, 53, 90
3, 208960, Note_off_c, 1, 53, 100
3, 208992, Note_on_c, 1, 60, 90
3, 209056, Note_off_c, 1, 60, 100
3, 209088, Note_on_c, 1, 56, 90
3, 209152, Note_off_c, 1, 56, 100
3, 209184, Note_on_c, 1, 60, 90
3, 209248, Note_off_c, 1, 60, 100
3, 209280, Note_on_c, 1, 53, 90
3, 209344, Note_off_c, 1, 53, 100
3, 209376, Note_on_c, 1, 60, 90
3, 209440, Note_off_c, 1, 60, 100
3, 209472, Note_on_c, 1, 56, 90
3, 209536, Note_off_c, 1, 56, 100
3, 209568, Note_on_c, 1, 60, 90
3, 209632, Note_off_c, 1, 60, 100
3, 209664, Note_on_c, 1, 53, 90
3, 209728, Note_off_c, 1, 53, 100
3, 209760, Note_on_c, 1, 60, 90
3, 209824, Note_off_c, 1, 60, 100
3, 209856, Note_on_c, 1, 56, 90
3, 209920, Note_off_c, 1, 56, 100
3, 209952, Note_on_c, 1, 60, 90
3, 210016, Note_off_c, 1, 60, 100
3, 210048, Note_on_c, 1, 53, 90
3, 210112, Note_off_c, 1, 53, 100
3, 210144, Note_on_c, 1, 60, 90
3, 210208, Note_off_c, 1, 60, 100
3, 210240, Note_on_c, 1, 56, 90
3, 210304, Note_off_c, 1, 56, 100
3, 210336, Note_on_c, 1, 60, 90
3, 210400, Note_off_c, 1, 60, 100
3, 210432, Note_on_c, 1, 55, 90
3, 210496, Note_off_c, 1, 55, 100
3, 210528, Note_on_c, 1, 65, 90
3, 210592, Note_off_c, 1, 65, 100
3, 210624, Note_on_c, 1, 62, 90
3, 210688, Note_off_c, 1, 62, 100
3, 210720, Note_on_c, 1, 65, 90
3, 210784, Note_off_c, 1, 65, 100
3, 210816, Note_on_c, 1, 55, 90
3, 210880, Note_off_c, 1, 55, 100
3, 210912, Note_on_c, 1, 65, 90
3, 210976, Note_off_c, 1, 65, 100
3, 211008, Note_on_c, 1, 62, 90
3, 211072, Note_off_c, 1, 62, 100
3, 211104, Note_on_c, 1, 65, 90
3, 211168, Note_off_c, 1, 65, 100
3, 211200, Note_on_c, 1, 55, 90
3, 211264, Note_off_c, 1, 55, 100
3, 211296, Note_on_c, 1, 65, 90
3, 211360, Note_off_c, 1, 65, 100
3, 211392, Note_on_c, 1, 62, 90
3, 211456, Note_off_c, 1, 62, 100
3, 211488, Note_on_c, 1, 65, 90
3, 211552, Note_off_c, 1, 65, 100
3, 211584, Note_on_c, 1, 55, 90
3, 211648, Note_off_c, 1, 55, 100
3, 211680, Note_on_c, 1, 65, 90
3, 211744, Note_off_c, 1, 65, 100
3, 211776, Note_on_c, 1, 62, 90
3, 211840, Note_off_c, 1, 62, 100
3, 211872, Note_on_c, 1, 65, 90
3, 211936, Note_off_c, 1, 65, 100
3, 211968, Note_on_c, 1, 55, 90
3, 212032, Note_off_c, 1, 55, 100
3, 212064, Note_on_c, 1, 65, 90
3, 212128, Note_off_c, 1, 65, 100
3, 212160, Note_on_c, 1, 62, 90
3, 212224, Note_off_c, 1, 62, 100
3, 212256, Note_on_c, 1, 65, 90
3, 212320, Note_off_c, 1, 65, 100
3, 212352, Note_on_c, 1, 55, 90
3, 212416, Note_off_c, 1, 55, 100
3, 212448, Note_on_c, 1, 65, 90
3, 212512, Note_off_c, 1, 65, 100
3, 212544, Note_on_c, 1, 62, 90
3, 212608, Note_off_c, 1, 62, 100
3, 212640, Note_on_c, 1, 65, 90
3, 212704, Note_off_c, 1, 65, 100
3, 212736, Note_on_c, 1, 55, 90
3, 212800, Note_off_c, 1, 55, 100
3, 212832, Note_on_c, 1, 62, 90
3, 212896, Note_off_c, 1, 62, 100
3, 212928, Note_on_c, 1, 59, 90
3, 212992, Note_off_c, 1, 59, 100
3, 213024, Note_on_c, 1, 62, 90
3, 213088, Note_off_c, 1, 62, 100
3, 213120, Note_on_c, 1, 55, 90
3, 213184, Note_off_c, 1, 55, 100
3, 213216, Note_on_c, 1, 62, 90
3, 213280, Note_off_c, 1, 62, 100
3, 213312, Note_on_c, 1, 59, 90
3, 213376, Note_off_c, 1, 59, 100
3, 213408, Note_on_c, 1, 62, 90
3, 213472, Note_off_c, 1, 62, 100
3, 213504, Note_on_c, 1, 55, 90
3, 213568, Note_off_c, 1, 55, 100
3, 213600, Note_on_c, 1, 64, 90
3, 213664, Note_off_c, 1, 64, 100
3, 213696, Note_on_c, 1, 60, 90
3, 213760, Note_off_c, 1, 60, 100
3, 213792, Note_on_c, 1, 64, 90
3, 213856, Note_off_c, 1, 64, 100
3, 213888, Note_on_c, 1, 55, 90
3, 213952, Note_off_c, 1, 55, 100
3, 213984, Note_on_c, 1, 63, 90
3, 214048, Note_off_c, 1, 63, 100
3, 214080, Note_on_c, 1, 60, 90
3, 214144, Note_off_c, 1, 60, 100
3, 214176, Note_on_c, 1, 63, 90
3, 214240, Note_off_c, 1, 63, 100
3, 214272, Note_on_c, 1, 55, 90
3, 214336, Note_off_c, 1, 55, 100
3, 214368, Note_on_c, 1, 63, 90
3, 214432, Note_off_c, 1, 63, 100
3, 214464, Note_on_c, 1, 60, 90
3, 214528, Note_off_c, 1, 60, 100
3, 214560, Note_on_c, 1, 63, 90
3, 214624, Note_off_c, 1, 63, 100
3, 214656, Note_on_c, 1, 55, 90
3, 214720, Note_off_c, 1, 55, 100
3, 214752, Note_on_c, 1, 63, 90
3, 214816, Note_off_c, 1, 63, 100
3, 214848, Note_on_c, 1, 60, 90
3, 214912, Note_off_c, 1, 60, 100
3, 214944, Note_on_c, 1, 63, 90
3, 215008, Note_off_c, 1, 63, 100
3, 215040, Note_on_c, 1, 54, 90
3, 215104, Note_off_c, 1, 54, 100
3, 215136, Note_on_c, 1, 63, 90
3, 215200, Note_off_c, 1, 63, 100
3, 215232, Note_on_c, 1, 58, 90
3, 215296, Note_off_c, 1, 58, 100
3, 215328, Note_on_c, 1, 63, 90
3, 215392, Note_off_c, 1, 63, 100
3, 215424, Note_on_c, 1, 54, 90
3, 215488, Note_off_c, 1, 54, 100
3, 215520, Note_on_c, 1, 63, 90
3, 215584, Note_off_c, 1, 63, 100
3, 215616, Note_on_c, 1, 58, 90
3, 215680, Note_off_c, 1, 58, 100
3, 215712, Note_on_c, 1, 63, 90
3, 215776, Note_off_c, 1, 63, 100
3, 215808, Note_on_c, 1, 54, 90
3, 215872, Note_off_c, 1, 54, 100
3, 215904, Note_on_c, 1, 63, 90
3, 215968, Note_off_c, 1, 63, 100
3, 216000, Note_on_c, 1, 58, 90
3, 216064, Note_off_c, 1, 58, 100
3, 216096, Note_on_c, 1, 63, 90
3, 216160, Note_off_c, 1, 63, 100
3, 216192, Note_on_c, 1, 54, 90
3, 216256, Note_off_c, 1, 54, 100
3, 216288, Note_on_c, 1, 63, 90
3, 216352, Note_off_c, 1, 63, 100
3, 216384, Note_on_c, 1, 58, 90
3, 216448, Note_off_c, 1, 58, 100
3, 216480, Note_on_c, 1, 63, 90
3, 216544, Note_off_c, 1, 63, 100
3, 216576, Note_on_c, 1, 53, 90
3, 216640, Note_off_c, 1, 53, 100
3, 216672, Note_on_c, 1, 63, 90
3, 216736, Note_off_c, 1, 63, 100
3, 216768, Note_on_c, 1, 60, 90
3, 216832, Note_off_c, 1, 60, 100
3, 216864, Note_on_c, 1, 63, 90
3, 216928, Note_off_c, 1, 63, 100
3, 216960, Note_on_c, 1, 53, 90
3, 217024, Note_off_c, 1, 53, 100
3, 217056, Note_on_c, 1, 63, 90
3, 217120, Note_off_c, 1, 63, 100
3, 217152, Note_on_c, 1, 60, 90
3, 217216, Note_off_c, 1, 60, 100
3, 217248, Note_on_c, 1, 63, 90
3, 217312, Note_off_c, 1, 63, 100
3, 217344, Note_on_c, 1, 53, 90
3, 217408, Note_off_c, 1, 53, 100
3, 217440, Note_on_c, 1, 63, 90
3, 217504, Note_off_c, 1, 63, 100
3, 217504, Note_on_c, 1, 60, 90
3, 217568, Note_off_c, 1, 60, 100
3, 217632, Note_on_c, 1, 63, 90
3, 217696, Note_off_c, 1, 63, 100
3, 217728, Note_on_c, 1, 53, 90
3, 217792, Note_off_c, 1, 53, 100
3, 217824, Note_on_c, 1, 63, 90
3, 217888, Note_off_c, 1, 63, 100
3, 217920, Note_on_c, 1, 60, 90
3, 217984, Note_off_c, 1, 60, 100
3, 218016, Note_on_c, 1, 63, 90
3, 218080, Note_off_c, 1, 63, 100
3, 218112, Note_on_c, 1, 53, 90
3, 218176, Note_off_c, 1, 53, 100
3, 218208, Note_on_c, 1, 63, 90
3, 218272, Note_off_c, 1, 63, 100
3, 218304, Note_on_c, 1, 60, 90
3, 218368, Note_off_c, 1, 60, 100
3, 218400, Note_on_c, 1, 63, 90
3, 218464, Note_off_c, 1, 63, 100
3, 218496, Note_on_c, 1, 53, 90
3, 218560, Note_off_c, 1, 53, 100
3, 218592, Note_on_c, 1, 63, 90
3, 218656, Note_off_c, 1, 63, 100
3, 218688, Note_on_c, 1, 60, 90
3, 218752, Note_off_c, 1, 60, 100
3, 218784, Note_on_c, 1, 63, 90
3, 218848, Note_off_c, 1, 63, 100
3, 218880, Note_on_c, 1, 53, 90
3, 218944, Note_off_c, 1, 53, 100
3, 218976, Note_on_c, 1, 60, 90
3, 219040, Note_off_c, 1, 60, 100
3, 219072, Note_on_c, 1, 57, 90
3, 219136, Note_off_c, 1, 57, 100
3, 219168, Note_on_c, 1, 60, 90
3, 219232, Note_off_c, 1, 60, 100
3, 219264, Note_on_c, 1, 53, 90
3, 219328, Note_off_c, 1, 53, 100
3, 219360, Note_on_c, 1, 60, 90
3, 219424, Note_off_c, 1, 60, 100
3, 219456, Note_on_c, 1, 58, 90
3, 219520, Note_off_c, 1, 58, 100
3, 219552, Note_on_c, 1, 60, 90
3, 219616, Note_off_c, 1, 60, 100
3, 219648, Note_on_c, 1, 54, 90
3, 219712, Note_off_c, 1, 54, 100
3, 219744, Note_on_c, 1, 60, 90
3, 219808, Note_off_c, 1, 60, 100
3, 219840, Note_on_c, 1, 57, 90
3, 219904, Note_off_c, 1, 57, 100
3, 219936, Note_on_c, 1, 60, 90
3, 220000, Note_off_c, 1, 60, 100
3, 220032, Note_on_c, 1, 54, 90
3, 220096, Note_off_c, 1, 54, 100
3, 220128, Note_on_c, 1, 60, 90
3, 220192, Note_off_c, 1, 60, 100
3, 220224, Note_on_c, 1, 57, 90
3, 220288, Note_off_c, 1, 57, 100
3, 220320, Note_on_c, 1, 60, 90
3, 220384, Note_off_c, 1, 60, 100
3, 220416, Note_on_c, 1, 54, 90
3, 220480, Note_off_c, 1, 54, 100
3, 220512, Note_on_c, 1, 60, 90
3, 220576, Note_off_c, 1, 60, 100
3, 220608, Note_on_c, 1, 57, 90
3, 220672, Note_off_c, 1, 57, 100
3, 220704, Note_on_c, 1, 60, 90
3, 220768, Note_off_c, 1, 60, 100
3, 220800, Note_on_c, 1, 54, 90
3, 220864, Note_off_c, 1, 54, 100
3, 220896, Note_on_c, 1, 60, 90
3, 220960, Note_off_c, 1, 60, 100
3, 220992, Note_on_c, 1, 57, 90
3, 221056, Note_off_c, 1, 57, 100
3, 221088, Note_on_c, 1, 60, 90
3, 221152, Note_off_c, 1, 60, 100
3, 221184, Note_on_c, 1, 55, 90
3, 221248, Note_off_c, 1, 55, 100
3, 221280, Note_on_c, 1, 62, 90
3, 221344, Note_off_c, 1, 62, 100
3, 221376, Note_on_c, 1, 58, 90
3, 221440, Note_off_c, 1, 58, 100
3, 221472, Note_on_c, 1, 62, 90
3, 221536, Note_off_c, 1, 62, 100
3, 221568, Note_on_c, 1, 53, 90
3, 221632, Note_off_c, 1, 53, 100
3, 221664, Note_on_c, 1, 62, 90
3, 221728, Note_off_c, 1, 62, 100
3, 221760, Note_on_c, 1, 58, 90
3, 221824, Note_off_c, 1, 58, 100
3, 221856, Note_on_c, 1, 62, 90
3, 221920, Note_off_c, 1, 62, 100
3, 221952, Note_on_c, 1, 52, 90
3, 222016, Note_off_c, 1, 52, 100
3, 222048, Note_on_c, 1, 62, 90
3, 222112, Note_off_c, 1, 62, 100
3, 222144, Note_on_c, 1, 58, 90
3, 222208, Note_off_c, 1, 58, 100
3, 222240, Note_on_c, 1, 62, 90
3, 222304, Note_off_c, 1, 62, 100
3, 222336, Note_on_c, 1, 51, 90
3, 222400, Note_off_c, 1, 51, 100
3, 222432, Note_on_c, 1, 63, 90
3, 222496, Note_off_c, 1, 63, 100
3, 222528, Note_on_c, 1, 58, 90
3, 222592, Note_off_c, 1, 58, 100
3, 222624, Note_on_c, 1, 63, 90
3, 222688, Note_off_c, 1, 63, 100
3, 222720, Note_on_c, 1, 62, 60
3, 222720, Note_on_c, 1, 50, 60
3, 222976, Note_off_c, 1, 62, 100
3, 222976, Note_off_c, 1, 50, 100
3, 225408, Note_on_c, 1, 61, 60
3, 225408, Note_on_c, 1, 51, 60
3, 225664, Note_off_c, 1, 61, 100
3, 225664, Note_off_c, 1, 51, 100
3, 225792, Note_on_c, 1, 62, 60
3, 225792, Note_on_c, 1, 50, 60
3, 226048, Note_off_c, 1, 62, 100
3, 226048, Note_off_c, 1, 50, 100
3, 226944, Note_on_c, 1, 60, 60
3, 226944, Note_on_c, 1, 50, 60
3, 227200, Note_off_c, 1, 60, 100
3, 227200, Note_off_c, 1, 50, 100
3, 227328, Note_on_c, 1, 58, 60
3, 227328, Note_on_c, 1, 51, 60
3, 227584, Note_off_c, 1, 58, 100
3, 227584, Note_off_c, 1, 51, 100
3, 228480, Note_on_c, 1, 55, 60
3, 228480, Note_on_c, 1, 51, 60
3, 228736, Note_off_c, 1, 55, 100
3, 228736, Note_off_c, 1, 51, 100
3, 228864, Note_on_c, 1, 54, 44
3, 228864, Note_on_c, 1, 50, 44
3, 229120, Note_off_c, 1, 54, 100
3, 229120, Note_off_c, 1, 50, 100
3, 229248, Note_on_c, 1, 58, 44
3, 229248, Note_on_c, 1, 55, 44
3, 229248, Note_on_c, 1, 50, 44
3, 229376, Note_off_c, 1, 58, 100
3, 229376, Note_off_c, 1, 55, 100
3, 229376, Note_off_c, 1, 50, 100
3, 229632, Note_on_c, 1, 57, 44
3, 229632, Note_on_c, 1, 50, 44
3, 229632, Note_on_c, 1, 54, 44
3, 229760, Note_off_c, 1, 57, 100
3, 229760, Note_off_c, 1, 50, 100
3, 229760, Note_off_c, 1, 54, 100
3, 230016, Note_on_c, 1, 58, 44
3, 230016, Note_on_c, 1, 55, 44
3, 230016, Note_on_c, 1, 50, 44
3, 230144, Note_off_c, 1, 58, 100
3, 230144, Note_off_c, 1, 55, 100
3, 230144, Note_off_c, 1, 50, 100
3, 230400, Note_on_c, 1, 57, 44
3, 230400, Note_on_c, 1, 54, 44
3, 230400, Note_on_c, 1, 50, 44
3, 230656, Note_off_c, 1, 57, 100
3, 230656, Note_off_c, 1, 54, 100
3, 230656, Note_off_c, 1, 50, 100
3, 245952, Note_on_c, 1, 53, 60
3, 246080, Note_off_c, 1, 53, 100
3, 246144, Note_on_c, 1, 60, 60
3, 246272, Note_off_c, 1, 60, 100
3, 246336, Note_on_c, 1, 63, 60
3, 246464, Note_off_c, 1, 63, 100
3, 246528, Note_on_c, 1, 60, 60
3, 246656, Note_off_c, 1, 60, 100
3, 246720, Note_on_c, 1, 53, 60
3, 246848, Note_off_c, 1, 53, 100
3, 246912, Note_on_c, 1, 60, 60
3, 247040, Note_off_c, 1, 60, 100
3, 247104, Note_on_c, 1, 63, 60
3, 247232, Note_off_c, 1, 63, 100
3, 254976, Note_on_c, 1, 57, 90
3, 255232, Note_off_c, 1, 57, 100
3, 255360, Note_on_c, 1, 58, 90
3, 255616, Note_off_c, 1, 58, 100
3, 255744, Note_on_c, 1, 51, 90
3, 256000, Note_off_c, 1, 51, 100
3, 256128, Note_on_c, 1, 53, 90
3, 256384, Note_off_c, 1, 53, 100
3, 256704, Note_on_c, 1, 46, 90
3, 256832, Note_off_c, 1, 46, 100
3, 256896, Note_on_c, 1, 50, 90
3, 257024, Note_off_c, 1, 50, 100
3, 257088, Note_on_c, 1, 53, 90
3, 257216, Note_off_c, 1, 53, 100
3, 257280, Note_on_c, 1, 58, 90
3, 257536, Note_off_c, 1, 58, 100
3, 258240, Note_on_c, 1, 46, 60
3, 258368, Note_off_c, 1, 46, 100
3, 258432, Note_on_c, 1, 50, 60
3, 258560, Note_off_c, 1, 50, 100
3, 258624, Note_on_c, 1, 53, 60
3, 258752, Note_off_c, 1, 53, 100
3, 258816, Note_on_c, 1, 50, 60
3, 258944, Note_off_c, 1, 50, 100
3, 259008, Note_on_c, 1, 46, 60
3, 259136, Note_off_c, 1, 46, 100
3, 259200, Note_on_c, 1, 50, 60
3, 259328, Note_off_c, 1, 50, 100
3, 259392, Note_on_c, 1, 53, 60
3, 259520, Note_off_c, 1, 53, 100
3, 259776, Note_on_c, 1, 46, 60
3, 259904, Note_off_c, 1, 46, 100
3, 259968, Note_on_c, 1, 50, 60
3, 260096, Note_off_c, 1, 50, 100
3, 260160, Note_on_c, 1, 53, 60
3, 260288, Note_off_c, 1, 53, 100
3, 260352, Note_on_c, 1, 50, 60
3, 260480, Note_off_c, 1, 50, 100
3, 260544, Note_on_c, 1, 46, 60
3, 260672, Note_off_c, 1, 46, 100
3, 260736, Note_on_c, 1, 50, 60
3, 260864, Note_off_c, 1, 50, 100
3, 260928, Note_on_c, 1, 53, 60
3, 261056, Note_off_c, 1, 53, 100
3, 261312, Note_on_c, 1, 46, 90
3, 261440, Note_off_c, 1, 46, 100
3, 261504, Note_on_c, 1, 50, 90
3, 261632, Note_off_c, 1, 50, 100
3, 261696, Note_on_c, 1, 53, 90
3, 261824, Note_off_c, 1, 53, 100
3, 261888, Note_on_c, 1, 56, 90
3, 262016, Note_off_c, 1, 56, 100
3, 262080, Note_on_c, 1, 53, 90
3, 262208, Note_off_c, 1, 53, 100
3, 262272, Note_on_c, 1, 50, 90
3, 262400, Note_off_c, 1, 50, 100
3, 262464, Note_on_c, 1, 46, 90
3, 262592, Note_off_c, 1, 46, 100
3, 262848, Note_on_c, 1, 47, 60
3, 262976, Note_off_c, 1, 47, 100
3, 263040, Note_on_c, 1, 50, 60
3, 263168, Note_off_c, 1, 50, 100
3, 263232, Note_on_c, 1, 53, 60
3, 263360, Note_off_c, 1, 53, 100
3, 263424, Note_on_c, 1, 55, 60
3, 263552, Note_off_c, 1, 55, 100
3, 263616, Note_on_c, 1, 53, 60
3, 263744, Note_off_c, 1, 53, 100
3, 263808, Note_on_c, 1, 50, 60
3, 263936, Note_off_c, 1, 50, 100
3, 264000, Note_on_c, 1, 47, 60
3, 264128, Note_off_c, 1, 47, 100
3, 273408, Note_on_c, 1, 53, 60
3, 273664, Note_off_c, 1, 53, 100
3, 273792, Note_on_c, 1, 55, 60
3, 274048, Note_off_c, 1, 55, 100
3, 274176, Note_on_c, 1, 57, 60
3, 274432, Note_off_c, 1, 57, 100
3, 274560, Note_on_c, 1, 58, 60
3, 274816, Note_off_c, 1, 58, 100
3, 274944, Note_on_c, 1, 60, 60
3, 275072, Note_off_c, 1, 60, 100
3, 275136, Note_on_c, 1, 65, 60
3, 275264, Note_off_c, 1, 65, 100
3, 275328, Note_on_c, 1, 57, 60
3, 275456, Note_off_c, 1, 57, 100
3, 275520, Note_on_c, 1, 65, 60
3, 275648, Note_off_c, 1, 65, 100
3, 275712, Note_on_c, 1, 58, 60
3, 275840, Note_off_c, 1, 58, 100
3, 275904, Note_on_c, 1, 65, 60
3, 276032, Note_off_c, 1, 65, 100
3, 276096, Note_on_c, 1, 55, 60
3, 276224, Note_off_c, 1, 55, 100
3, 276288, Note_on_c, 1, 65, 60
3, 276416, Note_off_c, 1, 65, 100
3, 276480, Note_on_c, 1, 53, 60
3, 276736, Note_off_c, 1, 53, 100
3, 276864, Note_on_c, 1, 55, 60
3, 277120, Note_off_c, 1, 55, 100
3, 277248, Note_on_c, 1, 57, 60
3, 277504, Note_off_c, 1, 57, 100
3, 277632, Note_on_c, 1, 58, 60
3, 277888, Note_off_c, 1, 58, 100
3, 278016, Note_on_c, 1, 60, 60
3, 278080, Note_off_c, 1, 60, 100
3, 278112, Note_on_c, 1, 65, 60
3, 278176, Note_off_c, 1, 65, 100
3, 278208, Note_on_c, 1, 63, 60
3, 278272, Note_off_c, 1, 63, 100
3, 278304, Note_on_c, 1, 65, 60
3, 278368, Note_off_c, 1, 65, 100
3, 278400, Note_on_c, 1, 57, 60
3, 278464, Note_off_c, 1, 57, 100
3, 278496, Note_on_c, 1, 65, 60
3, 278560, Note_off_c, 1, 65, 100
3, 278592, Note_on_c, 1, 63, 60
3, 278656, Note_off_c, 1, 63, 100
3, 278688, Note_on_c, 1, 65, 60
3, 278752, Note_off_c, 1, 65, 100
3, 278784, Note_on_c, 1, 58, 60
3, 278848, Note_off_c, 1, 58, 100
3, 278880, Note_on_c, 1, 65, 60
3, 278944, Note_off_c, 1, 65, 100
3, 278976, Note_on_c, 1, 63, 60
3, 279040, Note_off_c, 1, 63, 100
3, 279072, Note_on_c, 1, 65, 60
3, 279136, Note_off_c, 1, 65, 100
3, 279168, Note_on_c, 1, 55, 60
3, 279232, Note_off_c, 1, 55, 100
3, 279264, Note_on_c, 1, 65, 60
3, 279328, Note_off_c, 1, 65, 100
3, 279360, Note_on_c, 1, 63, 60
3, 279424, Note_off_c, 1, 63, 100
3, 279456, Note_on_c, 1, 65, 60
3, 279520, Note_off_c, 1, 65, 100
3, 279552, Note_on_c, 1, 65, 60
3, 279552, Note_on_c, 1, 53, 60
3, 279808, Note_off_c, 1, 65, 100
3, 279808, Note_off_c, 1, 53, 100
3, 280032, Note_on_c, 1, 60, 60
3, 280096, Note_off_c, 1, 60, 100
3, 280128, Note_on_c, 1, 57, 60
3, 280192, Note_off_c, 1, 57, 100
3, 280224, Note_on_c, 1, 53, 60
3, 280288, Note_off_c, 1, 53, 100
3, 280320, Note_on_c, 1, 41, 60
3, 280320, Note_on_c, 1, 29, 60
3, 280576, Note_off_c, 1, 41, 100
3, 280576, Note_off_c, 1, 29, 100
3, 281088, Note_on_c, 1, 34, 90
3, 281100, Note_on_c, 1, 46, 90
3, 281116, Note_on_c, 1, 53, 90
3, 281132, Note_on_c, 1, 58, 90
3, 281500, Note_off_c, 1, 53, 100
3, 281516, Note_off_c, 1, 58, 100
3, 281600, Note_off_c, 1, 34, 100
3, 281612, Note_off_c, 1, 46, 100
3, 283008, Note_on_c, 1, 51, 60
3, 283008, Note_on_c, 1, 39, 60
3, 283520, Note_off_c, 1, 51, 100
3, 283520, Note_off_c, 1, 39, 100
3, 283776, Note_on_c, 1, 50, 60
3, 284032, Note_off_c, 1, 50, 100
3, 284160, Note_on_c, 1, 55, 60
3, 284160, Note_on_c, 1, 52, 60
3, 284416, Note_off_c, 1, 55, 100
3, 284416, Note_off_c, 1, 52, 100
3, 284544, Note_on_c, 1, 53, 60
3, 284800, Note_off_c, 1, 53, 100
3, 284928, Note_on_c, 1, 55, 60
3, 284928, Note_on_c, 1, 52, 60
3, 285184, Note_off_c, 1, 55, 100
3, 285184, Note_off_c, 1, 52, 100
3, 285312, Note_on_c, 1, 53, 60
3, 285568, Note_off_c, 1, 53, 100
3, 285696, Note_on_c, 1, 55, 60
3, 285952, Note_off_c, 1, 55, 100
3, 286080, Note_on_c, 1, 57, 60
3, 286336, Note_off_c, 1, 57, 100
3, 286464, Note_on_c, 1, 58, 60
3, 286720, Note_off_c, 1, 58, 100
3, 287424, Note_on_c, 1, 39, 60
3, 287552, Note_off_c, 1, 39, 100
3, 287616, Note_on_c, 1, 43, 60
3, 287744, Note_off_c, 1, 43, 100
3, 287808, Note_on_c, 1, 48, 60
3, 287936, Note_off_c, 1, 48, 100
3, 288000, Note_on_c, 1, 51, 60
3, 288256, Note_off_c, 1, 51, 100
3, 288960, Note_on_c, 1, 38, 60
3, 289088, Note_off_c, 1, 38, 100
3, 289152, Note_on_c, 1, 41, 60
3, 289280, Note_off_c, 1, 41, 100
3, 289344, Note_on_c, 1, 46, 60
3, 289472, Note_off_c, 1, 46, 100
3, 289536, Note_on_c, 1, 50, 60
3, 289792, Note_off_c, 1, 50, 100
3, 290304, Note_on_c, 1, 48, 60
3, 290560, Note_off_c, 1, 48, 100
3, 290688, Note_on_c, 1, 45, 60
3, 290944, Note_off_c, 1, 45, 100
3, 291072, Note_on_c, 1, 46, 60
3, 291328, Note_off_c, 1, 46, 100
3, 291456, Note_on_c, 1, 43, 60
3, 291712, Note_off_c, 1, 43, 100
3, 291840, Note_on_c, 1, 41, 60
3, 292096, Note_off_c, 1, 41, 100
3, 292608, Note_on_c, 1, 53, 60
3, 292672, Note_off_c, 1, 53, 100
3, 292704, Note_on_c, 1, 55, 60
3, 292768, Note_off_c, 1, 55, 100
3, 292800, Note_on_c, 1, 51, 60
3, 292864, Note_off_c, 1, 51, 100
3, 292896, Note_on_c, 1, 53, 60
3, 292960, Note_off_c, 1, 53, 100
3, 292992, Note_on_c, 1, 50, 60
3, 293056, Note_off_c, 1, 50, 100
3, 293088, Note_on_c, 1, 51, 60
3, 293152, Note_off_c, 1, 51, 100
3, 293184, Note_on_c, 1, 48, 60
3, 293248, Note_off_c, 1, 48, 100
3, 293280, Note_on_c, 1, 50, 60
3, 293344, Note_off_c, 1, 50, 100
3, 293376, Note_on_c, 1, 46, 90
3, 293632, Note_off_c, 1, 46, 100
3, 293760, Note_on_c, 1, 58, 60
3, 294016, Note_off_c, 1, 58, 100
3, 295680, Note_on_c, 1, 63, 90
3, 295680, Note_on_c, 1, 51, 90
3, 296064, Note_on_c, 1, 62, 60
3, 296192, Note_off_c, 1, 63, 100
3, 296192, Note_off_c, 1, 51, 100
3, 296320, Note_off_c, 1, 62, 100
3, 299712, Note_on_c, 1, 55, 90
3, 299840, Note_off_c, 1, 55, 100
3, 299904, Note_on_c, 1, 67, 90
3, 300032, Note_off_c, 1, 67, 100
3, 300096, Note_on_c, 1, 65, 90
3, 300224, Note_off_c, 1, 65, 100
3, 300288, Note_on_c, 1, 63, 90
3, 300416, Note_off_c, 1, 63, 100
3, 300480, Note_on_c, 1, 51, 90
3, 300608, Note_off_c, 1, 51, 100
3, 300672, Note_on_c, 1, 63, 90
3, 300800, Note_off_c, 1, 63, 100
3, 300864, Note_on_c, 1, 62, 90
3, 300992, Note_off_c, 1, 62, 100
3, 301056, Note_on_c, 1, 60, 90
3, 301184, Note_off_c, 1, 60, 100
3, 301248, Note_on_c, 1, 58, 90
3, 301376, Note_off_c, 1, 58, 100
3, 301440, Note_on_c, 1, 57, 90
3, 301568, Note_off_c, 1, 57, 100
3, 301632, Note_on_c, 1, 53, 90
3, 301760, Note_off_c, 1, 53, 100
3, 301824, Note_on_c, 1, 58, 90
3, 302080, Note_off_c, 1, 58, 100
3, 302208, Note_on_c, 1, 50, 90
3, 302464, Note_off_c, 1, 50, 100
3, 302592, Note_on_c, 1, 51, 90
3, 302848, Note_off_c, 1, 51, 100
3, 302976, Note_on_c, 1, 63, 90
3, 303232, Note_off_c, 1, 63, 100
3, 303360, Note_on_c, 1, 65, 90
3, 303616, Note_off_c, 1, 65, 100
3, 303744, Note_on_c, 1, 53, 90
3, 304000, Note_off_c, 1, 53, 100
3, 312000, Note_on_c, 1, 51, 60
3, 312128, Note_off_c, 1, 51, 100
3, 312192, Note_on_c, 1, 50, 60
3, 312320, Note_off_c, 1, 50, 100
3, 312384, Note_on_c, 1, 51, 60
3, 312512, Note_off_c, 1, 51, 100
3, 312768, Note_on_c, 1, 53, 60
3, 312896, Note_off_c, 1, 53, 100
3, 312960, Note_on_c, 1, 52, 60
3, 313088, Note_off_c, 1, 52, 100
3, 313152, Note_on_c, 1, 53, 60
3, 313280, Note_off_c, 1, 53, 100
3, 313536, Note_on_c, 1, 54, 60
3, 313664, Note_off_c, 1, 54, 100
3, 313728, Note_on_c, 1, 52, 60
3, 313856, Note_off_c, 1, 52, 100
3, 313920, Note_on_c, 1, 54, 60
3, 314048, Note_off_c, 1, 54, 100
3, 314304, Note_on_c, 1, 55, 60
3, 314432, Note_off_c, 1, 55, 100
3, 314496, Note_on_c, 1, 54, 60
3, 314624, Note_off_c, 1, 54, 100
3, 314688, Note_on_c, 1, 55, 60
3, 314816, Note_off_c, 1, 55, 100
3, 329088, Note_on_c, 1, 51, 90
3, 329088, Note_on_c, 1, 58, 90
3, 329344, Note_off_c, 1, 51, 100
3, 329344, Note_off_c, 1, 58, 100
3, 329472, Note_on_c, 1, 51, 90
3, 329472, Note_on_c, 1, 58, 90
3, 329728, Note_off_c, 1, 51, 100
3, 329728, Note_off_c, 1, 58, 100
3, 329856, Note_on_c, 1, 51, 90
3, 329856, Note_on_c, 1, 55, 90
3, 330112, Note_off_c, 1, 51, 100
3, 330112, Note_off_c, 1, 55, 100
3, 330624, Note_on_c, 1, 58, 90
3, 330624, Note_on_c, 1, 50, 90
3, 330880, Note_off_c, 1, 50, 100
3, 331008, Note_on_c, 1, 51, 90
3, 331136, Note_off_c, 1, 58, 100
3, 331264, Note_off_c, 1, 51, 100
3, 331392, Note_on_c, 1, 53, 90
3, 331392, Note_on_c, 1, 57, 90
3, 331648, Note_off_c, 1, 53, 100
3, 331648, Note_off_c, 1, 57, 100
3, 331776, Note_on_c, 1, 58, 60
3, 331776, Note_on_c, 1, 46, 60
3, 331904, Note_off_c, 1, 58, 100
3, 331904, Note_off_c, 1, 46, 100
3, 332160, Note_on_c, 1, 57, 60
3, 332288, Note_off_c, 1, 57, 100
3, 332352, Note_on_c, 1, 56, 60
3, 332480, Note_off_c, 1, 56, 100
3, 332544, Note_on_c, 1, 55, 60
3, 332544, Note_on_c, 1, 46, 60
3, 332672, Note_off_c, 1, 55, 100
3, 332672, Note_off_c, 1, 46, 100
3, 332928, Note_on_c, 1, 57, 60
3, 333056, Note_off_c, 1, 57, 100
3, 333120, Note_on_c, 1, 56, 60
3, 333248, Note_off_c, 1, 56, 100
3, 333312, Note_on_c, 1, 55, 60
3, 333312, Note_on_c, 1, 46, 60
3, 333440, Note_off_c, 1, 55, 100
3, 333440, Note_off_c, 1, 46, 100
3, 333696, Note_on_c, 1, 57, 60
3, 333824, Note_off_c, 1, 57, 100
3, 333888, Note_on_c, 1, 56, 60
3, 334016, Note_off_c, 1, 56, 100
3, 334080, Note_on_c, 1, 55, 60
3, 334208, Note_off_c, 1, 55, 100
3, 334272, Note_on_c, 1, 50, 60
3, 334400, Note_off_c, 1, 50, 100
3, 334464, Note_on_c, 1, 51, 60
3, 334592, Note_off_c, 1, 51, 100
3, 334656, Note_on_c, 1, 48, 60
3, 334784, Note_off_c, 1, 48, 100
3, 334848, Note_on_c, 1, 50, 90
3, 335104, Note_off_c, 1, 50, 100
3, 335616, Note_on_c, 1, 51, 90
3, 335872, Note_off_c, 1, 51, 100
3, 336384, Note_on_c, 1, 53, 60
3, 336512, Note_off_c, 1, 53, 100
3, 336576, Note_on_c, 1, 58, 60
3, 336704, Note_off_c, 1, 58, 100
3, 336768, Note_on_c, 1, 62, 60
3, 336896, Note_off_c, 1, 62, 100
3, 336960, Note_on_c, 1, 58, 60
3, 337088, Note_off_c, 1, 58, 100
3, 337152, Note_on_c, 1, 53, 60
3, 337280, Note_off_c, 1, 53, 100
3, 337344, Note_on_c, 1, 60, 60
3, 337472, Note_off_c, 1, 60, 100
3, 337536, Note_on_c, 1, 63, 60
3, 337664, Note_off_c, 1, 63, 100
3, 337728, Note_on_c, 1, 60, 60
3, 337856, Note_off_c, 1, 60, 100
3, 337920, Note_on_c, 1, 58, 60
3, 337920, Note_on_c, 1, 62, 60
3, 338048, Note_off_c, 1, 58, 100
3, 338048, Note_off_c, 1, 62, 100
3, 340992, Note_on_c, 1, 62, 90
3, 340992, Note_on_c, 1, 50, 90
3, 341248, Note_off_c, 1, 62, 100
3, 341248, Note_off_c, 1, 50, 100
3, 341760, Note_on_c, 1, 63, 90
3, 341760, Note_on_c, 1, 51, 90
3, 342016, Note_off_c, 1, 63, 100
3, 342016, Note_off_c, 1, 51, 100
3, 342528, Note_on_c, 1, 53, 90
3, 342592, Note_off_c, 1, 53, 100
3, 342624, Note_on_c, 1, 62, 90
3, 342688, Note_off_c, 1, 62, 100
3, 342720, Note_on_c, 1, 58, 90
3, 342784, Note_off_c, 1, 58, 100
3, 342816, Note_on_c, 1, 62, 90
3, 342880, Note_off_c, 1, 62, 100
3, 342912, Note_on_c, 1, 53, 90
3, 342976, Note_off_c, 1, 53, 100
3, 343008, Note_on_c, 1, 62, 90
3, 343072, Note_off_c, 1, 62, 100
3, 343104, Note_on_c, 1, 58, 90
3, 343168, Note_off_c, 1, 58, 100
3, 343200, Note_on_c, 1, 62, 90
3, 343264, Note_off_c, 1, 62, 100
3, 343296, Note_on_c, 1, 53, 90
3, 343360, Note_off_c, 1, 53, 100
3, 343392, Note_on_c, 1, 62, 90
3, 343456, Note_off_c, 1, 62, 100
3, 343488, Note_on_c, 1, 58, 90
3, 343552, Note_off_c, 1, 58, 100
3, 343584, Note_on_c, 1, 62, 90
3, 343648, Note_off_c, 1, 62, 100
3, 343680, Note_on_c, 1, 53, 90
3, 343744, Note_off_c, 1, 53, 100
3, 343776, Note_on_c, 1, 62, 90
3, 343840, Note_off_c, 1, 62, 100
3, 343872, Note_on_c, 1, 58, 90
3, 343936, Note_off_c, 1, 58, 100
3, 343968, Note_on_c, 1, 62, 90
3, 344032, Note_off_c, 1, 62, 100
3, 344064, Note_on_c, 1, 53, 90
3, 344128, Note_off_c, 1, 53, 100
3, 344160, Note_on_c, 1, 63, 90
3, 344224, Note_off_c, 1, 63, 100
3, 344256, Note_on_c, 1, 58, 90
3, 344320, Note_off_c, 1, 58, 100
3, 344352, Note_on_c, 1, 63, 90
3, 344416, Note_off_c, 1, 63, 100
3, 344448, Note_on_c, 1, 53, 90
3, 344512, Note_off_c, 1, 53, 100
3, 344544, Note_on_c, 1, 63, 90
3, 344608, Note_off_c, 1, 63, 100
3, 344640, Note_on_c, 1, 58, 90
3, 344704, Note_off_c, 1, 58, 100
3, 344736, Note_on_c, 1, 63, 90
3, 344800, Note_off_c, 1, 63, 100
3, 344832, Note_on_c, 1, 53, 90
3, 344896, Note_off_c, 1, 53, 100
3, 344928, Note_on_c, 1, 63, 90
3, 344992, Note_off_c, 1, 63, 100
3, 345024, Note_on_c, 1, 58, 90
3, 345088, Note_off_c, 1, 58, 100
3, 345120, Note_on_c, 1, 63, 90
3, 345184, Note_off_c, 1, 63, 100
3, 345216, Note_on_c, 1, 53, 90
3, 345280, Note_off_c, 1, 53, 100
3, 345312, Note_on_c, 1, 63, 90
3, 345376, Note_off_c, 1, 63, 100
3, 345408, Note_on_c, 1, 60, 90
3, 345472, Note_off_c, 1, 60, 100
3, 345504, Note_on_c, 1, 63, 90
3, 345568, Note_off_c, 1, 63, 100
3, 345600, Note_on_c, 1, 58, 60
3, 345728, Note_off_c, 1, 58, 100
3, 348864, Note_on_c, 1, 58, 60
3, 348992, Note_off_c, 1, 58, 100
3, 349056, Note_on_c, 1, 57, 60
3, 349184, Note_off_c, 1, 57, 100
3, 349248, Note_on_c, 1, 58, 60
3, 349376, Note_off_c, 1, 58, 100
3, 349440, Note_on_c, 1, 60, 60
3, 349568, Note_off_c, 1, 60, 100
3, 349632, Note_on_c, 1, 58, 60
3, 349760, Note_off_c, 1, 58, 100
3, 349824, Note_on_c, 1, 57, 60
3, 349952, Note_off_c, 1, 57, 100
3, 350016, Note_on_c, 1, 56, 60
3, 350144, Note_off_c, 1, 56, 100
3, 350208, Note_on_c, 1, 55, 60
3, 350464, Note_off_c, 1, 55, 100
3, 350592, Note_on_c, 1, 51, 60
3, 350848, Note_off_c, 1, 51, 100
3, 350976, Note_on_c, 1, 53, 60
3, 351232, Note_off_c, 1, 53, 100
3, 351360, Note_on_c, 1, 53, 60
3, 351616, Note_off_c, 1, 53, 100
3, 351744, Note_on_c, 1, 58, 60
3, 352000, Note_off_c, 1, 58, 100
3, 352128, Note_on_c, 1, 53, 60
3, 352384, Note_off_c, 1, 53, 100
3, 352512, Note_on_c, 1, 46, 60
3, 352768, Note_off_c, 1, 46, 100
3, 353472, Note_on_c, 1, 41, 44
3, 353660, Note_off_c, 1, 41, 0
3, 353664, Note_on_c, 1, 45, 44
3, 353852, Note_off_c, 1, 45, 0
3, 353856, Note_on_c, 1, 48, 44
3, 354044, Note_off_c, 1, 48, 0
3, 354048, Note_on_c, 1, 45, 44
3, 354236, Note_off_c, 1, 45, 0
3, 354240, Note_on_c, 1, 41, 44
3, 354428, Note_off_c, 1, 41, 0
3, 354432, Note_on_c, 1, 45, 44
3, 354620, Note_off_c, 1, 45, 0
3, 354624, Note_on_c, 1, 48, 44
3, 354812, Note_off_c, 1, 48, 0
3, 355008, Note_on_c, 1, 55, 44
3, 355196, Note_off_c, 1, 55, 0
3, 355200, Note_on_c, 1, 58, 44
3, 355388, Note_off_c, 1, 58, 0
3, 355392, Note_on_c, 1, 64, 44
3, 355580, Note_off_c, 1, 64, 0
3, 355584, Note_on_c, 1, 58, 44
3, 355772, Note_off_c, 1, 58, 0
3, 355776, Note_on_c, 1, 55, 44
3, 355964, Note_off_c, 1, 55, 0
3, 355968, Note_on_c, 1, 58, 44
3, 356156, Note_off_c, 1, 58, 0
3, 356160, Note_on_c, 1, 64, 44
3, 356348, Note_off_c, 1, 64, 0
3, 356544, Note_on_c, 1, 43, 44
3, 356672, Note_off_c, 1, 43, 100
3, 356736, Note_on_c, 1, 46, 44
3, 356864, Note_off_c, 1, 46, 100
3, 356928, Note_on_c, 1, 52, 44
3, 357056, Note_off_c, 1, 52, 100
3, 357120, Note_on_c, 1, 46, 44
3, 357248, Note_off_c, 1, 46, 100
3, 357312, Note_on_c, 1, 43, 44
3, 357440, Note_off_c, 1, 43, 100
3, 357504, Note_on_c, 1, 46, 44
3, 357632, Note_off_c, 1, 46, 100
3, 357696, Note_on_c, 1, 52, 44
3, 357824, Note_off_c, 1, 52, 100
3, 358080, Note_on_c, 1, 57, 44
3, 358208, Note_off_c, 1, 57, 100
3, 358272, Note_on_c, 1, 60, 44
3, 358400, Note_off_c, 1, 60, 100
3, 358464, Note_on_c, 1, 63, 44
3, 358592, Note_off_c, 1, 63, 100
3, 358656, Note_on_c, 1, 60, 44
3, 358784, Note_off_c, 1, 60, 100
3, 358848, Note_on_c, 1, 57, 44
3, 358976, Note_off_c, 1, 57, 100
3, 359040, Note_on_c, 1, 60, 44
3, 359168, Note_off_c, 1, 60, 100
3, 359232, Note_on_c, 1, 63, 44
3, 359360, Note_off_c, 1, 63, 100
3, 359616, Note_on_c, 1, 46, 82
3, 359744, Note_off_c, 1, 46, 100
3, 359808, Note_on_c, 1, 50, 82
3, 359936, Note_off_c, 1, 50, 100
3, 360000, Note_on_c, 1, 55, 82
3, 360128, Note_off_c, 1, 55, 100
3, 360384, Note_on_c, 1, 51, 82
3, 360512, Note_off_c, 1, 51, 100
3, 360576, Note_on_c, 1, 55, 82
3, 360704, Note_off_c, 1, 55, 100
3, 360768, Note_on_c, 1, 58, 82
3, 360896, Note_off_c, 1, 58, 100
3, 361152, Note_on_c, 1, 50, 82
3, 361280, Note_off_c, 1, 50, 100
3, 361344, Note_on_c, 1, 53, 82
3, 361472, Note_off_c, 1, 53, 100
3, 361536, Note_on_c, 1, 56, 82
3, 361664, Note_off_c, 1, 56, 100
3, 361728, Note_on_c, 1, 53, 82
3, 361856, Note_off_c, 1, 53, 100
3, 361920, Note_on_c, 1, 50, 82
3, 362048, Note_off_c, 1, 50, 100
3, 362112, Note_on_c, 1, 53, 82
3, 362240, Note_off_c, 1, 53, 100
3, 362304, Note_on_c, 1, 56, 82
3, 362432, Note_off_c, 1, 56, 100
3, 362496, Note_on_c, 1, 57, 82
3, 362496, Note_on_c, 1, 48, 82
3, 363008, Note_off_c, 1, 57, 100
3, 363008, Note_off_c, 1, 48, 100
3, 363264, Note_on_c, 1, 60, 82
3, 363520, Note_off_c, 1, 60, 100
3, 363648, Note_on_c, 1, 48, 82
3, 363904, Note_off_c, 1, 48, 100
3, 364032, Note_on_c, 1, 53, 60
3, 364096, Note_off_c, 1, 53, 100
3, 364128, Note_on_c, 1, 60, 60
3, 364192, Note_off_c, 1, 60, 100
3, 364224, Note_on_c, 1, 56, 60
3, 364288, Note_off_c, 1, 56, 100
3, 364320, Note_on_c, 1, 60, 60
3, 364384, Note_off_c, 1, 60, 100
3, 364416, Note_on_c, 1, 53, 60
3, 364480, Note_off_c, 1, 53, 100
3, 364512, Note_on_c, 1, 60, 60
3, 364576, Note_off_c, 1, 60, 100
3, 364608, Note_on_c, 1, 56, 60
3, 364672, Note_off_c, 1, 56, 100
3, 364704, Note_on_c, 1, 60, 60
3, 364768, Note_off_c, 1, 60, 100
3, 364800, Note_on_c, 1, 53, 60
3, 364864, Note_off_c, 1, 53, 100
3, 364896, Note_on_c, 1, 60, 60
3, 364960, Note_off_c, 1, 60, 100
3, 364992, Note_on_c, 1, 56, 60
3, 365056, Note_off_c, 1, 56, 100
3, 365088, Note_on_c, 1, 60, 60
3, 365152, Note_off_c, 1, 60, 100
3, 365184, Note_on_c, 1, 53, 60
3, 365248, Note_off_c, 1, 53, 100
3, 365280, Note_on_c, 1, 60, 60
3, 365344, Note_off_c, 1, 60, 100
3, 365376, Note_on_c, 1, 56, 60
3, 365440, Note_off_c, 1, 56, 100
3, 365472, Note_on_c, 1, 60, 60
3, 365536, Note_off_c, 1, 60, 100
3, 365568, Note_on_c, 1, 53, 90
3, 365632, Note_off_c, 1, 53, 100
3, 365664, Note_on_c, 1, 60, 90
3, 365728, Note_off_c, 1, 60, 100
3, 365760, Note_on_c, 1, 56, 90
3, 365824, Note_off_c, 1, 56, 100
3, 365856, Note_on_c, 1, 60, 90
3, 365920, Note_off_c, 1, 60, 100
3, 365952, Note_on_c, 1, 53, 90
3, 366016, Note_off_c, 1, 53, 100
3, 366048, Note_on_c, 1, 60, 90
3, 366112, Note_off_c, 1, 60, 100
3, 366144, Note_on_c, 1, 56, 90
3, 366208, Note_off_c, 1, 56, 100
3, 366240, Note_on_c, 1, 60, 90
3, 366304, Note_off_c, 1, 60, 100
3, 366336, Note_on_c, 1, 53, 90
3, 366400, Note_off_c, 1, 53, 100
3, 366432, Note_on_c, 1, 60, 90
3, 366496, Note_off_c, 1, 60, 100
3, 366528, Note_on_c, 1, 56, 90
3, 366592, Note_off_c, 1, 56, 100
3, 366624, Note_on_c, 1, 60, 90
3, 366688, Note_off_c, 1, 60, 100
3, 366720, Note_on_c, 1, 53, 90
3, 366784, Note_off_c, 1, 53, 100
3, 366816, Note_on_c, 1, 60, 90
3, 366880, Note_off_c, 1, 60, 100
3, 366912, Note_on_c, 1, 56, 90
3, 366976, Note_off_c, 1, 56, 100
3, 367008, Note_on_c, 1, 60, 90
3, 367072, Note_off_c, 1, 60, 100
3, 367104, Note_on_c, 1, 55, 90
3, 367168, Note_off_c, 1, 55, 100
3, 367200, Note_on_c, 1, 65, 90
3, 367264, Note_off_c, 1, 65, 100
3, 367296, Note_on_c, 1, 62, 90
3, 367360, Note_off_c, 1, 62, 100
3, 367392, Note_on_c, 1, 65, 90
3, 367456, Note_off_c, 1, 65, 100
3, 367488, Note_on_c, 1, 55, 90
3, 367552, Note_off_c, 1, 55, 100
3, 367584, Note_on_c, 1, 65, 90
3, 367648, Note_off_c, 1, 65, 100
3, 367680, Note_on_c, 1, 62, 90
3, 367744, Note_off_c, 1, 62, 100
3, 367776, Note_on_c, 1, 65, 90
3, 367840, Note_off_c, 1, 65, 100
3, 367872, Note_on_c, 1, 55, 90
3, 367936, Note_off_c, 1, 55, 100
3, 367968, Note_on_c, 1, 65, 90
3, 368032, Note_off_c, 1, 65, 100
3, 368064, Note_on_c, 1, 62, 90
3, 368128, Note_off_c, 1, 62, 100
3, 368160, Note_on_c, 1, 65, 90
3, 368224, Note_off_c, 1, 65, 100
3, 368256, Note_on_c, 1, 55, 90
3, 368320, Note_off_c, 1, 55, 100
3, 368352, Note_on_c, 1, 65, 90
3, 368416, Note_off_c, 1, 65, 100
3, 368448, Note_on_c, 1, 62, 90
3, 368512, Note_off_c, 1, 62, 100
3, 368544, Note_on_c, 1, 65, 90
3, 368608, Note_off_c, 1, 65, 100
3, 368640, Note_on_c, 1, 55, 90
3, 368704, Note_off_c, 1, 55, 100
3, 368736, Note_on_c, 1, 65, 90
3, 368800, Note_off_c, 1, 65, 100
3, 368832, Note_on_c, 1, 62, 90
3, 368896, Note_off_c, 1, 62, 100
3, 368928, Note_on_c, 1, 65, 90
3, 368992, Note_off_c, 1, 65, 100
3, 369024, Note_on_c, 1, 55, 90
3, 369088, Note_off_c, 1, 55, 100
3, 369120, Note_on_c, 1, 65, 90
3, 369184, Note_off_c, 1, 65, 100
3, 369216, Note_on_c, 1, 62, 90
3, 369280, Note_off_c, 1, 62, 100
3, 369312, Note_on_c, 1, 65, 90
3, 369376, Note_off_c, 1, 65, 100
3, 369408, Note_on_c, 1, 55, 90
3, 369472, Note_off_c, 1, 55, 100
3, 369504, Note_on_c, 1, 62, 90
3, 369568, Note_off_c, 1, 62, 100
3, 369600, Note_on_c, 1, 59, 90
3, 369664, Note_off_c, 1, 59, 100
3, 369696, Note_on_c, 1, 62, 90
3, 369760, Note_off_c, 1, 62, 100
3, 369792, Note_on_c, 1, 55, 90
3, 369856, Note_off_c, 1, 55, 100
3, 369888, Note_on_c, 1, 62, 90
3, 369952, Note_off_c, 1, 62, 100
3, 369984, Note_on_c, 1, 59, 90
3, 370048, Note_off_c, 1, 59, 100
3, 370080, Note_on_c, 1, 62, 90
3, 370144, Note_off_c, 1, 62, 100
3, 370176, Note_on_c, 1, 55, 90
3, 370240, Note_off_c, 1, 55, 100
3, 370272, Note_on_c, 1, 64, 90
3, 370336, Note_off_c, 1, 64, 100
3, 370368, Note_on_c, 1, 60, 90
3, 370432, Note_off_c, 1, 60, 100
3, 370464, Note_on_c, 1, 64, 90
3, 370528, Note_off_c, 1, 64, 100
3, 370560, Note_on_c, 1, 55, 90
3, 370624, Note_off_c, 1, 55, 100
3, 370656, Note_on_c, 1, 63, 90
3, 370720, Note_off_c, 1, 63, 100
3, 370752, Note_on_c, 1, 60, 90
3, 370816, Note_off_c, 1, 60, 100
3, 370848, Note_on_c, 1, 63, 90
3, 370912, Note_off_c, 1, 63, 100
3, 370944, Note_on_c, 1, 55, 90
3, 371008, Note_off_c, 1, 55, 100
3, 371040, Note_on_c, 1, 63, 90
3, 371104, Note_off_c, 1, 63, 100
3, 371136, Note_on_c, 1, 60, 90
3, 371200, Note_off_c, 1, 60, 100
3, 371232, Note_on_c, 1, 63, 90
3, 371296, Note_off_c, 1, 63, 100
3, 371328, Note_on_c, 1, 55, 90
3, 371392, Note_off_c, 1, 55, 100
3, 371424, Note_on_c, 1, 63, 90
3, 371488, Note_off_c, 1, 63, 100
3, 371520, Note_on_c, 1, 60, 90
3, 371584, Note_off_c, 1, 60, 100
3, 371616, Note_on_c, 1, 63, 90
3, 371680, Note_off_c, 1, 63, 100
3, 371712, Note_on_c, 1, 54, 90
3, 371776, Note_off_c, 1, 54, 100
3, 371808, Note_on_c, 1, 63, 90
3, 371872, Note_off_c, 1, 63, 100
3, 371904, Note_on_c, 1, 58, 90
3, 371968, Note_off_c, 1, 58, 100
3, 372000, Note_on_c, 1, 63, 90
3, 372064, Note_off_c, 1, 63, 100
3, 372096, Note_on_c, 1, 54, 90
3, 372160, Note_off_c, 1, 54, 100
3, 372192, Note_on_c, 1, 63, 90
3, 372256, Note_off_c, 1, 63, 100
3, 372288, Note_on_c, 1, 58, 90
3, 372352, Note_off_c, 1, 58, 100
3, 372384, Note_on_c, 1, 63, 90
3, 372448, Note_off_c, 1, 63, 100
3, 372480, Note_on_c, 1, 54, 90
3, 372544, Note_off_c, 1, 54, 100
3, 372576, Note_on_c, 1, 63, 90
3, 372640, Note_off_c, 1, 63, 100
3, 372672, Note_on_c, 1, 58, 90
3, 372736, Note_off_c, 1, 58, 100
3, 372768, Note_on_c, 1, 63, 90
3, 372832, Note_off_c, 1, 63, 100
3, 372864, Note_on_c, 1, 54, 90
3, 372928, Note_off_c, 1, 54, 100
3, 372960, Note_on_c, 1, 63, 90
3, 373024, Note_off_c, 1, 63, 100
3, 373056, Note_on_c, 1, 58, 90
3, 373120, Note_off_c, 1, 58, 100
3, 373152, Note_on_c, 1, 63, 90
3, 373216, Note_off_c, 1, 63, 100
3, 373248, Note_on_c, 1, 53, 90
3, 373312, Note_off_c, 1, 53, 100
3, 373344, Note_on_c, 1, 63, 90
3, 373408, Note_off_c, 1, 63, 100
3, 373440, Note_on_c, 1, 60, 90
3, 373504, Note_off_c, 1, 60, 100
3, 373536, Note_on_c, 1, 63, 90
3, 373600, Note_off_c, 1, 63, 100
3, 373632, Note_on_c, 1, 53, 90
3, 373696, Note_off_c, 1, 53, 100
3, 373728, Note_on_c, 1, 63, 90
3, 373792, Note_off_c, 1, 63, 100
3, 373824, Note_on_c, 1, 60, 90
3, 373888, Note_off_c, 1, 60, 100
3, 373920, Note_on_c, 1, 63, 90
3, 373984, Note_off_c, 1, 63, 100
3, 374016, Note_on_c, 1, 53, 90
3, 374080, Note_off_c, 1, 53, 100
3, 374112, Note_on_c, 1, 63, 90
3, 374176, Note_off_c, 1, 63, 100
3, 374176, Note_on_c, 1, 60, 90
3, 374240, Note_off_c, 1, 60, 100
3, 374304, Note_on_c, 1, 63, 90
3, 374368, Note_off_c, 1, 63, 100
3, 374400, Note_on_c, 1, 53, 90
3, 374464, Note_off_c, 1, 53, 100
3, 374496, Note_on_c, 1, 63, 90
3, 374560, Note_off_c, 1, 63, 100
3, 374592, Note_on_c, 1, 60, 90
3, 374656, Note_off_c, 1, 60, 100
3, 374688, Note_on_c, 1, 63, 90
3, 374752, Note_off_c, 1, 63, 100
3, 374784, Note_on_c, 1, 53, 90
3, 374848, Note_off_c, 1, 53, 100
3, 374880, Note_on_c, 1, 63, 90
3, 374944, Note_off_c, 1, 63, 100
3, 374976, Note_on_c, 1, 60, 90
3, 375040, Note_off_c, 1, 60, 100
3, 375072, Note_on_c, 1, 63, 90
3, 375136, Note_off_c, 1, 63, 100
3, 375168, Note_on_c, 1, 53, 90
3, 375232, Note_off_c, 1, 53, 100
3, 375264, Note_on_c, 1, 63, 90
3, 375328, Note_off_c, 1, 63, 100
3, 375360, Note_on_c, 1, 60, 90
3, 375424, Note_off_c, 1, 60, 100
3, 375456, Note_on_c, 1, 63, 90
3, 375520, Note_off_c, 1, 63, 100
3, 375552, Note_on_c, 1, 53, 90
3, 375616, Note_off_c, 1, 53, 100
3, 375648, Note_on_c, 1, 60, 90
3, 375712, Note_off_c, 1, 60, 100
3, 375744, Note_on_c, 1, 57, 90
3, 375808, Note_off_c, 1, 57, 100
3, 375840, Note_on_c, 1, 60, 90
3, 375904, Note_off_c, 1, 60, 100
3, 375936, Note_on_c, 1, 53, 90
3, 376000, Note_off_c, 1, 53, 100
3, 376032, Note_on_c, 1, 60, 90
3, 376096, Note_off_c, 1, 60, 100
3, 376128, Note_on_c, 1, 58, 90
3, 376192, Note_off_c, 1, 58, 100
3, 376224, Note_on_c, 1, 60, 90
3, 376288, Note_off_c, 1, 60, 100
3, 376320, Note_on_c, 1, 54, 90
3, 376384, Note_off_c, 1, 54, 100
3, 376416, Note_on_c, 1, 60, 90
3, 376480, Note_off_c, 1, 60, 100
3, 376512, Note_on_c, 1, 57, 90
3, 376576, Note_off_c, 1, 57, 100
3, 376608, Note_on_c, 1, 60, 90
3, 376672, Note_off_c, 1, 60, 100
3, 376704, Note_on_c, 1, 54, 90
3, 376768, Note_off_c, 1, 54, 100
3, 376800, Note_on_c, 1, 60, 90
3, 376864, Note_off_c, 1, 60, 100
3, 376896, Note_on_c, 1, 57, 90
3, 376960, Note_off_c, 1, 57, 100
3, 376992, Note_on_c, 1, 60, 90
3, 377056, Note_off_c, 1, 60, 100
3, 377088, Note_on_c, 1, 54, 90
3, 377152, Note_off_c, 1, 54, 100
3, 377184, Note_on_c, 1, 60, 90
3, 377248, Note_off_c, 1, 60, 100
3, 377280, Note_on_c, 1, 57, 90
3, 377344, Note_off_c, 1, 57, 100
3, 377376, Note_on_c, 1, 60, 90
3, 377440, Note_off_c, 1, 60, 100
3, 377472, Note_on_c, 1, 54, 90
3, 377536, Note_off_c, 1, 54, 100
3, 377568, Note_on_c, 1, 60, 90
3, 377632, Note_off_c, 1, 60, 100
3, 377664, Note_on_c, 1, 57, 90
3, 377728, Note_off_c, 1, 57, 100
3, 377760, Note_on_c, 1, 60, 90
3, 377824, Note_off_c, 1, 60, 100
3, 377856, Note_on_c, 1, 55, 90
3, 377920, Note_off_c, 1, 55, 100
3, 377952, Note_on_c, 1, 62, 90
3, 378016, Note_off_c, 1, 62, 100
3, 378048, Note_on_c, 1, 58, 90
3, 378112, Note_off_c, 1, 58, 100
3, 378144, Note_on_c, 1, 62, 90
3, 378208, Note_off_c, 1, 62, 100
3, 378240, Note_on_c, 1, 53, 90
3, 378304, Note_off_c, 1, 53, 100
3, 378336, Note_on_c, 1, 62, 90
3, 378400, Note_off_c, 1, 62, 100
3, 378432, Note_on_c, 1, 58, 90
3, 378496, Note_off_c, 1, 58, 100
3, 378528, Note_on_c, 1, 62, 90
3, 378592, Note_off_c, 1, 62, 100
3, 378624, Note_on_c, 1, 52, 90
3, 378688, Note_off_c, 1, 52, 100
3, 378720, Note_on_c, 1, 62, 90
3, 378784, Note_off_c, 1, 62, 100
3, 378816, Note_on_c, 1, 58, 90
3, 378880, Note_off_c, 1, 58, 100
3, 378912, Note_on_c, 1, 62, 90
3, 378976, Note_off_c, 1, 62, 100
3, 379008, Note_on_c, 1, 51, 90
3, 379072, Note_off_c, 1, 51, 100
3, 379104, Note_on_c, 1, 63, 90
3, 379168, Note_off_c, 1, 63, 100
3, 379200, Note_on_c, 1, 58, 90
3, 379264, Note_off_c, 1, 58, 100
3, 379296, Note_on_c, 1, 63, 90
3, 379360, Note_off_c, 1, 63, 100
3, 379392, Note_on_c, 1, 62, 60
3, 379392, Note_on_c, 1, 50, 60
3, 379648, Note_off_c, 1, 62, 100
3, 379648, Note_off_c, 1, 50, 100
3, 382080, Note_on_c, 1, 61, 60
3, 382080, Note_on_c, 1, 51, 60
3, 382336, Note_off_c, 1, 61, 100
3, 382336, Note_off_c, 1, 51, 100
3, 382464, Note_on_c, 1, 62, 60
3, 382464, Note_on_c, 1, 50, 60
3, 382720, Note_off_c, 1, 62, 100
3, 382720, Note_off_c, 1, 50, 100
3, 383616, Note_on_c, 1, 60, 60
3, 383616, Note_on_c, 1, 50, 60
3, 383872, Note_off_c, 1, 60, 100
3, 383872, Note_off_c, 1, 50, 100
3, 384000, Note_on_c, 1, 58, 60
3, 384000, Note_on_c, 1, 51, 60
3, 384256, Note_off_c, 1, 58, 100
3, 384256, Note_off_c, 1, 51, 100
3, 385152, Note_on_c, 1, 55, 60
3, 385152, Note_on_c, 1, 51, 60
3, 385408, Note_off_c, 1, 55, 100
3, 385408, Note_off_c, 1, 51, 100
3, 385536, Note_on_c, 1, 54, 44
3, 385536, Note_on_c, 1, 50, 44
3, 385792, Note_off_c, 1, 54, 100
3, 385792, Note_off_c, 1, 50, 100
3, 385920, Note_on_c, 1, 58, 44
3, 385920, Note_on_c, 1, 55, 44
3, 385920, Note_on_c, 1, 50, 44
3, 386048, Note_off_c, 1, 58, 100
3, 386048, Note_off_c, 1, 55, 100
3, 386048, Note_off_c, 1, 50, 100
3, 386304, Note_on_c, 1, 57, 44
3, 386304, Note_on_c, 1, 50, 44
3, 386304, Note_on_c, 1, 54, 44
3, 386432, Note_off_c, 1, 57, 100
3, 386432, Note_off_c, 1, 50, 100
3, 386432, Note_off_c, 1, 54, 100
3, 386688, Note_on_c, 1, 58, 44
3, 386688, Note_on_c, 1, 55, 44
3, 386688, Note_on_c, 1, 50, 44
3, 386816, Note_off_c, 1, 58, 100
3, 386816, Note_off_c, 1, 55, 100
3, 386816, Note_off_c, 1, 50, 100
3, 387072, Note_on_c, 1, 57, 44
3, 387072, Note_on_c, 1, 54, 44
3, 387072, Note_on_c, 1, 50, 44
3, 387328, Note_off_c, 1, 57, 100
3, 387328, Note_off_c, 1, 54, 100
3, 387328, Note_off_c, 1, 50, 100
3, 402624, Note_on_c, 1, 53, 60
3, 402752, Note_off_c, 1, 53, 100
3, 402816, Note_on_c, 1, 60, 60
3, 402944, Note_off_c, 1, 60, 100
3, 403008, Note_on_c, 1, 63, 60
3, 403136, Note_off_c, 1, 63, 100
3, 403200, Note_on_c, 1, 60, 60
3, 403328, Note_off_c, 1, 60, 100
3, 403392, Note_on_c, 1, 53, 60
3, 403520, Note_off_c, 1, 53, 100
3, 403584, Note_on_c, 1, 60, 60
3, 403712, Note_off_c, 1, 60, 100
3, 403776, Note_on_c, 1, 63, 60
3, 403904, Note_off_c, 1, 63, 100
3, 411648, Note_on_c, 1, 57, 90
3, 411904, Note_off_c, 1, 57, 100
3, 412032, Note_on_c, 1, 58, 90
3, 412288, Note_off_c, 1, 58, 100
3, 412416, Note_on_c, 1, 51, 90
3, 412672, Note_off_c, 1, 51, 100
3, 412800, Note_on_c, 1, 53, 90
3, 413056, Note_off_c, 1, 53, 100
3, 413376, Note_on_c, 1, 46, 90
3, 413504, Note_off_c, 1, 46, 100
3, 413568, Note_on_c, 1, 50, 90
3, 413696, Note_off_c, 1, 50, 100
3, 413760, Note_on_c, 1, 53, 90
3, 413888, Note_off_c, 1, 53, 100
3, 413952, Note_on_c, 1, 58, 90
3, 414208, Note_off_c, 1, 58, 100
3, 414912, Note_on_c, 1, 46, 60
3, 415040, Note_off_c, 1, 46, 100
3, 415104, Note_on_c, 1, 50, 60
3, 415232, Note_off_c, 1, 50, 100
3, 415296, Note_on_c, 1, 53, 60
3, 415424, Note_off_c, 1, 53, 100
3, 415488, Note_on_c, 1, 50, 60
3, 415616, Note_off_c, 1, 50, 100
3, 415680, Note_on_c, 1, 46, 60
3, 415808, Note_off_c, 1, 46, 100
3, 415872, Note_on_c, 1, 50, 60
3, 416000, Note_off_c, 1, 50, 100
3, 416064, Note_on_c, 1, 53, 60
3, 416192, Note_off_c, 1, 53, 100
3, 416448, Note_on_c, 1, 46, 60
3, 416576, Note_off_c, 1, 46, 100
3, 416640, Note_on_c, 1, 50, 60
3, 416768, Note_off_c, 1, 50, 100
3, 416832, Note_on_c, 1, 53, 60
3, 416960, Note_off_c, 1, 53, 100
3, 417024, Note_on_c, 1, 50, 60
3, 417152, Note_off_c, 1, 50, 100
3, 417216, Note_on_c, 1, 46, 60
3, 417344, Note_off_c, 1, 46, 100
3, 417408, Note_on_c, 1, 50, 60
3, 417536, Note_off_c, 1, 50, 100
3, 417600, Note_on_c, 1, 53, 60
3, 417728, Note_off_c, 1, 53, 100
3, 417984, Note_on_c, 1, 46, 90
3, 418112, Note_off_c, 1, 46, 100
3, 418176, Note_on_c, 1, 50, 90
3, 418304, Note_off_c, 1, 50, 100
3, 418368, Note_on_c, 1, 53, 90
3, 418496, Note_off_c, 1, 53, 100
3, 418560, Note_on_c, 1, 56, 90
3, 418688, Note_off_c, 1, 56, 100
3, 418752, Note_on_c, 1, 53, 90
3, 418880, Note_off_c, 1, 53, 100
3, 418944, Note_on_c, 1, 50, 90
3, 419072, Note_off_c, 1, 50, 100
3, 419136, Note_on_c, 1, 46, 90
3, 419264, Note_off_c, 1, 46, 100
3, 419520, Note_on_c, 1, 47, 60
3, 419648, Note_off_c, 1, 47, 100
3, 419712, Note_on_c, 1, 50, 60
3, 419840, Note_off_c, 1, 50, 100
3, 419904, Note_on_c, 1, 53, 60
3, 420032, Note_off_c, 1, 53, 100
3, 420096, Note_on_c, 1, 55, 60
3, 420224, Note_off_c, 1, 55, 100
3, 420288, Note_on_c, 1, 53, 60
3, 420416, Note_off_c, 1, 53, 100
3, 420480, Note_on_c, 1, 50, 60
3, 420608, Note_off_c, 1, 50, 100
3, 420672, Note_on_c, 1, 47, 60
3, 420800, Note_off_c, 1, 47, 100
3, 430080, Note_on_c, 1, 53, 60
3, 430336, Note_off_c, 1, 53, 100
3, 430464, Note_on_c, 1, 55, 60
3, 430720, Note_off_c, 1, 55, 100
3, 430848, Note_on_c, 1, 57, 60
3, 431104, Note_off_c, 1, 57, 100
3, 431232, Note_on_c, 1, 58, 60
3, 431488, Note_off_c, 1, 58, 100
3, 431616, Note_on_c, 1, 60, 60
3, 431744, Note_off_c, 1, 60, 100
3, 431808, Note_on_c, 1, 65, 60
3, 431936, Note_off_c, 1, 65, 100
3, 432000, Note_on_c, 1, 57, 60
3, 432128, Note_off_c, 1, 57, 100
3, 432192, Note_on_c, 1, 65, 60
3, 432320, Note_off_c, 1, 65, 100
3, 432384, Note_on_c, 1, 58, 60
3, 432512, Note_off_c, 1, 58, 100
3, 432576, Note_on_c, 1, 65, 60
3, 432704, Note_off_c, 1, 65, 100
3, 432768, Note_on_c, 1, 55, 60
3, 432896, Note_off_c, 1, 55, 100
3, 432960, Note_on_c, 1, 65, 60
3, 433088, Note_off_c, 1, 65, 100
3, 433152, Note_on_c, 1, 53, 60
3, 433408, Note_off_c, 1, 53, 100
3, 433536, Note_on_c, 1, 55, 60
3, 433792, Note_off_c, 1, 55, 100
3, 433920, Note_on_c, 1, 57, 60
3, 434176, Note_off_c, 1, 57, 100
3, 434304, Note_on_c, 1, 58, 60
3, 434560, Note_off_c, 1, 58, 100
3, 434688, Note_on_c, 1, 60, 60
3, 434752, Note_off_c, 1, 60, 100
3, 434784, Note_on_c, 1, 65, 60
3, 434848, Note_off_c, 1, 65, 100
3, 434880, Note_on_c, 1, 63, 60
3, 434944, Note_off_c, 1, 63, 100
3, 434976, Note_on_c, 1, 65, 60
3, 435040, Note_off_c, 1, 65, 100
3, 435072, Note_on_c, 1, 57, 60
3, 435136, Note_off_c, 1, 57, 100
3, 435168, Note_on_c, 1, 65, 60
3, 435232, Note_off_c, 1, 65, 100
3, 435264, Note_on_c, 1, 63, 60
3, 435328, Note_off_c, 1, 63, 100
3, 435360, Note_on_c, 1, 65, 60
3, 435424, Note_off_c, 1, 65, 100
3, 435456, Note_on_c, 1, 58, 60
3, 435520, Note_off_c, 1, 58, 100
3, 435552, Note_on_c, 1, 65, 60
3, 435616, Note_off_c, 1, 65, 100
3, 435648, Note_on_c, 1, 63, 60
3, 435712, Note_off_c, 1, 63, 100
3, 435744, Note_on_c, 1, 65, 60
3, 435808, Note_off_c, 1, 65, 100
3, 435840, Note_on_c, 1, 55, 60
3, 435904, Note_off_c, 1, 55, 100
3, 435936, Note_on_c, 1, 65, 60
3, 436000, Note_off_c, 1, 65, 100
3, 436032, Note_on_c, 1, 63, 60
3, 436096, Note_off_c, 1, 63, 100
3, 436128, Note_on_c, 1, 65, 60
3, 436192, Note_off_c, 1, 65, 100
3, 436224, Note_on_c, 1, 65, 60
3, 436224, Note_on_c, 1, 53, 60
3, 436480, Note_off_c, 1, 65, 100
3, 436480, Note_off_c, 1, 53, 100
3, 436704, Note_on_c, 1, 60, 60
3, 436768, Note_off_c, 1, 60, 100
3, 436800, Note_on_c, 1, 57, 60
3, 436864, Note_off_c, 1, 57, 100
3, 436896, Note_on_c, 1, 53, 60
3, 436960, Note_off_c, 1, 53, 100
3, 436992, Note_on_c, 1, 41, 60
3, 436992, Note_on_c, 1, 29, 60
3, 437248, Note_off_c, 1, 41, 100
3, 437248, Note_off_c, 1, 29, 100
3, 437760, Note_on_c, 1, 34, 90
3, 437772, Note_on_c, 1, 46, 90
3, 437788, Note_on_c, 1, 53, 90
3, 437804, Note_on_c, 1, 58, 90
3, 438172, Note_off_c, 1, 53, 100
3, 438188, Note_off_c, 1, 58, 100
3, 438272, Note_off_c, 1, 34, 100
3, 438284, Note_off_c, 1, 46, 100
3, 439680, Note_on_c, 1, 51, 60
3, 439680, Note_on_c, 1, 39, 60
3, 440192, Note_off_c, 1, 51, 100
3, 440192, Note_off_c, 1, 39, 100
3, 440448, Note_on_c, 1, 50, 60
3, 440704, Note_off_c, 1, 50, 100
3, 440832, Note_on_c, 1, 55, 60
3, 440832, Note_on_c, 1, 52, 60
3, 441088, Note_off_c, 1, 55, 100
3, 441088, Note_off_c, 1, 52, 100
3, 441216, Note_on_c, 1, 53, 60
3, 441472, Note_off_c, 1, 53, 100
3, 441600, Note_on_c, 1, 55, 60
3, 441600, Note_on_c, 1, 52, 60
3, 441856, Note_off_c, 1, 55, 100
3, 441856, Note_off_c, 1, 52, 100
3, 441984, Note_on_c, 1, 53, 60
3, 442240, Note_off_c, 1, 53, 100
3, 442368, Note_on_c, 1, 55, 60
3, 442624, Note_off_c, 1, 55, 100
3, 442752, Note_on_c, 1, 57, 60
3, 443008, Note_off_c, 1, 57, 100
3, 443136, Note_on_c, 1, 58, 60
3, 443392, Note_off_c, 1, 58, 100
3, 444096, Note_on_c, 1, 39, 60
3, 444224, Note_off_c, 1, 39, 100
3, 444288, Note_on_c, 1, 43, 60
3, 444416, Note_off_c, 1, 43, 100
3, 444480, Note_on_c, 1, 48, 60
3, 444608, Note_off_c, 1, 48, 100
3, 444672, Note_on_c, 1, 51, 60
3, 444928, Note_off_c, 1, 51, 100
3, 445632, Note_on_c, 1, 38, 60
3, 445760, Note_off_c, 1, 38, 100
3, 445824, Note_on_c, 1, 41, 60
3, 445952, Note_off_c, 1, 41, 100
3, 446016, Note_on_c, 1, 46, 60
3, 446144, Note_off_c, 1, 46, 100
3, 446208, Note_on_c, 1, 50, 60
3, 446464, Note_off_c, 1, 50, 100
3, 446976, Note_on_c, 1, 48, 60
3, 447232, Note_off_c, 1, 48, 100
3, 447360, Note_on_c, 1, 45, 60
3, 447616, Note_off_c, 1, 45, 100
3, 447744, Note_on_c, 1, 46, 60
3, 448000, Note_off_c, 1, 46, 100
3, 448128, Note_on_c, 1, 43, 60
3, 448384, Note_off_c, 1, 43, 100
3, 448512, Note_on_c, 1, 41, 60
3, 448768, Note_off_c, 1, 41, 100
3, 449280, Note_on_c, 1, 53, 60
3, 449344, Note_off_c, 1, 53, 100
3, 449376, Note_on_c, 1, 55, 60
3, 449440, Note_off_c, 1, 55, 100
3, 449472, Note_on_c, 1, 51, 60
3, 449536, Note_off_c, 1, 51, 100
3, 449568, Note_on_c, 1, 53, 60
3, 449632, Note_off_c, 1, 53, 100
3, 449664, Note_on_c, 1, 50, 60
3, 449728, Note_off_c, 1, 50, 100
3, 449760, Note_on_c, 1, 51, 60
3, 449824, Note_off_c, 1, 51, 100
3, 449856, Note_on_c, 1, 48, 60
3, 449920, Note_off_c, 1, 48, 100
3, 449952, Note_on_c, 1, 50, 60
3, 450016, Note_off_c, 1, 50, 100
3, 450048, Note_on_c, 1, 46, 90
3, 450304, Note_off_c, 1, 46, 100
3, 450432, Note_on_c, 1, 58, 60
3, 450688, Note_off_c, 1, 58, 100
3, 452352, Note_on_c, 1, 63, 90
3, 452352, Note_on_c, 1, 51, 90
3, 452736, Note_on_c, 1, 62, 60
3, 452864, Note_off_c, 1, 63, 100
3, 452864, Note_off_c, 1, 51, 100
3, 452992, Note_off_c, 1, 62, 100
3, 456384, Note_on_c, 1, 55, 90
3, 456512, Note_off_c, 1, 55, 100
3, 456576, Note_on_c, 1, 67, 90
3, 456704, Note_off_c, 1, 67, 100
3, 456768, Note_on_c, 1, 65, 90
3, 456896, Note_off_c, 1, 65, 100
3, 456960, Note_on_c, 1, 63, 90
3, 457088, Note_off_c, 1, 63, 100
3, 457152, Note_on_c, 1, 51, 90
3, 457280, Note_off_c, 1, 51, 100
3, 457344, Note_on_c, 1, 63, 90
3, 457472, Note_off_c, 1, 63, 100
3, 457536, Note_on_c, 1, 62, 90
3, 457664, Note_off_c, 1, 62, 100
3, 457728, Note_on_c, 1, 60, 90
3, 457856, Note_off_c, 1, 60, 100
3, 457920, Note_on_c, 1, 58, 90
3, 458048, Note_off_c, 1, 58, 100
3, 458112, Note_on_c, 1, 57, 90
3, 458240, Note_off_c, 1, 57, 100
3, 458304, Note_on_c, 1, 53, 90
3, 458432, Note_off_c, 1, 53, 100
3, 458496, Note_on_c, 1, 58, 90
3, 458752, Note_off_c, 1, 58, 100
3, 458880, Note_on_c, 1, 50, 90
3, 459136, Note_off_c, 1, 50, 100
3, 459264, Note_on_c, 1, 51, 90
3, 459520, Note_off_c, 1, 51, 100
3, 459648, Note_on_c, 1, 63, 90
3, 459904, Note_off_c, 1, 63, 100
3, 460032, Note_on_c, 1, 65, 90
3, 460288, Note_off_c, 1, 65, 100
3, 460416, Note_on_c, 1, 53, 90
3, 460672, Note_off_c, 1, 53, 100
3, 468672, Note_on_c, 1, 51, 60
3, 468800, Note_off_c, 1, 51, 100
3, 468864, Note_on_c, 1, 50, 60
3, 468992, Note_off_c, 1, 50, 100
3, 469056, Note_on_c, 1, 51, 60
3, 469184, Note_off_c, 1, 51, 100
3, 469440, Note_on_c, 1, 53, 60
3, 469568, Note_off_c, 1, 53, 100
3, 469632, Note_on_c, 1, 52, 60
3, 469760, Note_off_c, 1, 52, 100
3, 469824, Note_on_c, 1, 53, 60
3, 469952, Note_off_c, 1, 53, 100
3, 470208, Note_on_c, 1, 54, 60
3, 470336, Note_off_c, 1, 54, 100
3, 470400, Note_on_c, 1, 52, 60
3, 470528, Note_off_c, 1, 52, 100
3, 470592, Note_on_c, 1, 54, 60
3, 470720, Note_off_c, 1, 54, 100
3, 470976, Note_on_c, 1, 55, 60
3, 471104, Note_off_c, 1, 55, 100
3, 471168, Note_on_c, 1, 54, 60
3, 471296, Note_off_c, 1, 54, 100
3, 471360, Note_on_c, 1, 55, 60
3, 471488, Note_off_c, 1, 55, 100
3, 485760, Note_on_c, 1, 51, 90
3, 485760, Note_on_c, 1, 58, 90
3, 486016, Note_off_c, 1, 51, 100
3, 486016, Note_off_c, 1, 58, 100
3, 486144, Note_on_c, 1, 51, 90
3, 486144, Note_on_c, 1, 58, 90
3, 486400, Note_off_c, 1, 51, 100
3, 486400, Note_off_c, 1, 58, 100
3, 486528, Note_on_c, 1, 51, 90
3, 486528, Note_on_c, 1, 55, 90
3, 486784, Note_off_c, 1, 51, 100
3, 486784, Note_off_c, 1, 55, 100
3, 487296, Note_on_c, 1, 58, 90
3, 487296, Note_on_c, 1, 50, 90
3, 487552, Note_off_c, 1, 50, 100
3, 487680, Note_on_c, 1, 51, 90
3, 487808, Note_off_c, 1, 58, 100
3, 487936, Note_off_c, 1, 51, 100
3, 488064, Note_on_c, 1, 53, 90
3, 488064, Note_on_c, 1, 57, 90
3, 488320, Note_off_c, 1, 53, 100
3, 488320, Note_off_c, 1, 57, 100
3, 488448, Note_on_c, 1, 58, 60
3, 488448, Note_on_c, 1, 46, 60
3, 488576, Note_off_c, 1, 58, 100
3, 488576, Note_off_c, 1, 46, 100
3, 488832, Note_on_c, 1, 57, 60
3, 488960, Note_off_c, 1, 57, 100
3, 489024, Note_on_c, 1, 56, 60
3, 489152, Note_off_c, 1, 56, 100
3, 489216, Note_on_c, 1, 55, 60
3, 489216, Note_on_c, 1, 46, 60
3, 489344, Note_off_c, 1, 55, 100
3, 489344, Note_off_c, 1, 46, 100
3, 489600, Note_on_c, 1, 57, 60
3, 489728, Note_off_c, 1, 57, 100
3, 489792, Note_on_c, 1, 56, 60
3, 489920, Note_off_c, 1, 56, 100
3, 489984, Note_on_c, 1, 55, 60
3, 489984, Note_on_c, 1, 46, 60
3, 490112, Note_off_c, 1, 55, 100
3, 490112, Note_off_c, 1, 46, 100
3, 490368, Note_on_c, 1, 57, 60
3, 490496, Note_off_c, 1, 57, 100
3, 490560, Note_on_c, 1, 56, 60
3, 490688, Note_off_c, 1, 56, 100
3, 490752, Note_on_c, 1, 55, 60
3, 490880, Note_off_c, 1, 55, 100
3, 490944, Note_on_c, 1, 50, 60
3, 491072, Note_off_c, 1, 50, 100
3, 491136, Note_on_c, 1, 51, 60
3, 491264, Note_off_c, 1, 51, 100
3, 491328, Note_on_c, 1, 48, 60
3, 491456, Note_off_c, 1, 48, 100
3, 491520, Note_on_c, 1, 50, 90
3, 491776, Note_off_c, 1, 50, 100
3, 492288, Note_on_c, 1, 51, 90
3, 492544, Note_off_c, 1, 51, 100
3, 493056, Note_on_c, 1, 53, 60
3, 493184, Note_off_c, 1, 53, 100
3, 493248, Note_on_c, 1, 58, 60
3, 493376, Note_off_c, 1, 58, 100
3, 493440, Note_on_c, 1, 62, 60
3, 493568, Note_off_c, 1, 62, 100
3, 493632, Note_on_c, 1, 58, 60
3, 493760, Note_off_c, 1, 58, 100
3, 493824, Note_on_c, 1, 53, 60
3, 493952, Note_off_c, 1, 53, 100
3, 494016, Note_on_c, 1, 60, 60
3, 494144, Note_off_c, 1, 60, 100
3, 494208, Note_on_c, 1, 63, 60
3, 494336, Note_off_c, 1, 63, 100
3, 494400, Note_on_c, 1, 60, 60
3, 494528, Note_off_c, 1, 60, 100
3, 494592, Note_on_c, 1, 58, 60
3, 494592, Note_on_c, 1, 62, 60
3, 494720, Note_off_c, 1, 58, 100
3, 494720, Note_off_c, 1, 62, 100
3, 497664, Note_on_c, 1, 62, 90
3, 497664, Note_on_c, 1, 50, 90
3, 497920, Note_off_c, 1, 62, 100
3, 497920, Note_off_c, 1, 50, 100
3, 498432, Note_on_c, 1, 63, 90
3, 498432, Note_on_c, 1, 51, 90
3, 498688, Note_off_c, 1, 63, 100
3, 498688, Note_off_c, 1, 51, 100
3, 499200, Note_on_c, 1, 53, 90
3, 499264, Note_off_c, 1, 53, 100
3, 499296, Note_on_c, 1, 62, 90
3, 499360, Note_off_c, 1, 62, 100
3, 499392, Note_on_c, 1, 58, 90
3, 499456, Note_off_c, 1, 58, 100
3, 499488, Note_on_c, 1, 62, 90
3, 499552, Note_off_c, 1, 62, 100
3, 499584, Note_on_c, 1, 53, 90
3, 499648, Note_off_c, 1, 53, 100
3, 499680, Note_on_c, 1, 62, 90
3, 499744, Note_off_c, 1, 62, 100
3, 499776, Note_on_c, 1, 58, 90
3, 499840, Note_off_c, 1, 58, 100
3, 499872, Note_on_c, 1, 62, 90
3, 499936, Note_off_c, 1, 62, 100
3, 499968, Note_on_c, 1, 53, 90
3, 500032, Note_off_c, 1, 53, 100
3, 500064, Note_on_c, 1, 62, 90
3, 500128, Note_off_c, 1, 62, 100
3, 500160, Note_on_c, 1, 58, 90
3, 500224, Note_off_c, 1, 58, 100
3, 500256, Note_on_c, 1, 62, 90
3, 500320, Note_off_c, 1, 62, 100
3, 500352, Note_on_c, 1, 53, 90
3, 500416, Note_off_c, 1, 53, 100
3, 500448, Note_on_c, 1, 62, 90
3, 500512, Note_off_c, 1, 62, 100
3, 500544, Note_on_c, 1, 58, 90
3, 500608, Note_off_c, 1, 58, 100
3, 500640, Note_on_c, 1, 62, 90
3, 500704, Note_off_c, 1, 62, 100
3, 500736, Note_on_c, 1, 53, 90
3, 500800, Note_off_c, 1, 53, 100
3, 500832, Note_on_c, 1, 63, 90
3, 500896, Note_off_c, 1, 63, 100
3, 500928, Note_on_c, 1, 58, 90
3, 500992, Note_off_c, 1, 58, 100
3, 501024, Note_on_c, 1, 63, 90
3, 501088, Note_off_c, 1, 63, 100
3, 501120, Note_on_c, 1, 53, 90
3, 501184, Note_off_c, 1, 53, 100
3, 501216, Note_on_c, 1, 63, 90
3, 501280, Note_off_c, 1, 63, 100
3, 501312, Note_on_c, 1, 58, 90
3, 501376, Note_off_c, 1, 58, 100
3, 501408, Note_on_c, 1, 63, 90
3, 501472, Note_off_c, 1, 63, 100
3, 501504, Note_on_c, 1, 53, 90
3, 501568, Note_off_c, 1, 53, 100
3, 501600, Note_on_c, 1, 63, 90
3, 501664, Note_off_c, 1, 63, 100
3, 501696, Note_on_c, 1, 58, 90
3, 501760, Note_off_c, 1, 58, 100
3, 501792, Note_on_c, 1, 63, 90
3, 501856, Note_off_c, 1, 63, 100
3, 501888, Note_on_c, 1, 53, 90
3, 501952, Note_off_c, 1, 53, 100
3, 501984, Note_on_c, 1, 63, 90
3, 502048, Note_off_c, 1, 63, 100
3, 502080, Note_on_c, 1, 60, 90
3, 502144, Note_off_c, 1, 60, 100
3, 502176, Note_on_c, 1, 63, 90
3, 502240, Note_off_c, 1, 63, 100
3, 502272, Note_on_c, 1, 58, 60
3, 502400, Note_off_c, 1, 58, 100
3, 505536, Note_on_c, 1, 58, 60
3, 505664, Note_off_c, 1, 58, 100
3, 505728, Note_on_c, 1, 57, 60
3, 505856, Note_off_c, 1, 57, 100
3, 505920, Note_on_c, 1, 58, 60
3, 506048, Note_off_c, 1, 58, 100
3, 506112, Note_on_c, 1, 60, 60
3, 506240, Note_off_c, 1, 60, 100
3, 506304, Note_on_c, 1, 58, 60
3, 506432, Note_off_c, 1, 58, 100
3, 506496, Note_on_c, 1, 57, 60
3, 506624, Note_off_c, 1, 57, 100
3, 506688, Note_on_c, 1, 56, 60
3, 506816, Note_off_c, 1, 56, 100
3, 506880, Note_on_c, 1, 55, 60
3, 507136, Note_off_c, 1, 55, 100
3, 507264, Note_on_c, 1, 51, 60
3, 507520, Note_off_c, 1, 51, 100
3, 507648, Note_on_c, 1, 53, 60
3, 507904, Note_off_c, 1, 53, 100
3, 508032, Note_on_c, 1, 53, 60
3, 508288, Note_off_c, 1, 53, 100
3, 508416, Note_on_c, 1, 58, 60
3, 508672, Note_off_c, 1, 58, 100
3, 508800, Note_on_c, 1, 53, 60
3, 509056, Note_off_c, 1, 53, 100
3, 509184, Note_on_c, 1, 46, 60
3, 509440, Note_off_c, 1, 46, 100
3, 509440, End_track
4, 0, Start_track
4, 0, Title_t, "Sonata in B flat"
4, 0, Key_signature, -2, "minor"
4, 0, End_track
5, 0, Start_track
5, 0, Title_t, "Midi by:"
5, 0, Key_signature, -2, "minor"
5, 0, End_track
6, 0, Start_track
6, 0, Title_t, "B.Fisher"
6, 0, Key_signature, -2, "minor"
6, 0, End_track
7, 0, Start_track
7, 0, Key_signature, -2, "minor"
7, 0, End_track
8, 0, Start_track
8, 0, Key_signature, -2, "minor"
8, 0, End_track
9, 0, Start_track
9, 0, Key_signature, -2, "minor"
9, 0, End_track
10, 0, Start_track
10, 0, Key_signature, -2, "minor"
10, 0, End_track
11, 0, Start_track
11, 0, Key_signature, -2, "minor"
11, 0, End_track
12, 0, Start_track
12, 0, Key_signature, -2, "minor"
12, 0, End_track
13, 0, Start_track
13, 0, Key_signature, -2, "minor"
13, 0, End_track
14, 0, Start_track
14, 0, Key_signature, -2, "minor"
14, 0, End_track
15, 0, Start_track
15, 0, Key_signature, -2, "minor"
15, 0, End_track
16, 0, Start_track
16, 0, Key_signature, 0, "major"
16, 0, End_track
0, 0, End_of_file
