0, 0, Header, 1, 8, 384
1, 0, Start_track
1, 0, Time_signature, 3, 2, 96, 8
1, 0, Sequencer_specific, 3, 0, 0, 65
1, 0, Tempo, 1071428
1, 86400, Tempo, 1200000
1, 87552, Tempo, 1250000
1, 88704, Tempo, 1304347
1, 89472, Tempo, 1034482
1, 94464, Tempo, 1000000
1, 95616, Tempo, 967741
1, 96768, Tempo, 937500
1, 97536, Tempo, 2000000
1, 97920, Tempo, 937500
1, 98304, Tempo, 909090
1, 101376, Tempo, 750000
1, 102528, Tempo, 600000
1, 103680, Tempo, 2000000
1, 104064, Tempo, 967741
1, 111744, Tempo, 1250000
1, 112896, Tempo, 967741
1, 113856, Tempo, 2727272
1, 114048, Tempo, 1132075
1, 122496, Tempo, 2142857
1, 122688, Tempo, 1111111
1, 127872, Tempo, 1200000
1, 127872, End_track
2, 0, Start_track
2, 0, Title_t, "Mozart  Violin Concerto"
2, 0, Control_c, 0, 0, 0
2, 0, Program_c, 0, 40
2, 0, Control_c, 0, 10, 70
2, 0, Control_c, 0, 91, 72
2, 0, Control_c, 0, 93, 38
2, 0, Key_signature, 3, "major"
2, 0, Control_c, 0, 121, 0
2, 144, Control_c, 0, 10, 63
2, 192, Control_c, 0, 91, 73
2, 240, Control_c, 0, 93, 35
2, 288, Program_c, 0, 40
2, 336, Control_c, 0, 1, 52
2, 12672, Note_on_c, 0, 81, 57
2, 13056, Note_off_c, 0, 81, 0
2, 13056, Note_on_c, 0, 80, 57
2, 13440, Note_off_c, 0, 80, 0
2, 13440, Note_on_c, 0, 78, 57
2, 13824, Note_off_c, 0, 78, 0
2, 13824, Note_on_c, 0, 75, 69
2, 14016, Note_off_c, 0, 75, 0
2, 14016, Note_on_c, 0, 76, 57
2, 14208, Note_off_c, 0, 76, 0
2, 14208, Note_on_c, 0, 76, 57
2, 14976, Note_off_c, 0, 76, 0
2, 14976, Note_on_c, 0, 78, 57
2, 15360, Note_off_c, 0, 78, 0
2, 15360, Note_on_c, 0, 76, 57
2, 15744, Note_off_c, 0, 76, 0
2, 15744, Note_on_c, 0, 74, 57
2, 16128, Note_off_c, 0, 74, 0
2, 16128, Note_on_c, 0, 72, 69
2, 16320, Note_off_c, 0, 72, 0
2, 16320, Note_on_c, 0, 73, 57
2, 16512, Note_off_c, 0, 73, 0
2, 16512, Note_on_c, 0, 73, 57
2, 16896, Note_off_c, 0, 73, 0
2, 16896, Note_on_c, 0, 73, 58
2, 16992, Note_off_c, 0, 73, 0
2, 16992, Note_on_c, 0, 76, 59
2, 17088, Note_off_c, 0, 76, 0
2, 17088, Note_on_c, 0, 81, 60
2, 17184, Note_off_c, 0, 81, 0
2, 17184, Note_on_c, 0, 85, 61
2, 17280, Note_off_c, 0, 85, 0
2, 17280, Note_on_c, 0, 88, 66
2, 19584, Note_on_c, 0, 88, 57
2, 19680, Note_off_c, 0, 88, 0
2, 19680, Note_off_c, 0, 88, 0
2, 19680, Note_on_c, 0, 86, 58
2, 19772, Note_off_c, 0, 86, 0
2, 19776, Note_on_c, 0, 86, 59
2, 19868, Note_off_c, 0, 86, 0
2, 19872, Note_on_c, 0, 85, 60
2, 19964, Note_off_c, 0, 85, 0
2, 19968, Note_on_c, 0, 85, 61
2, 20060, Note_off_c, 0, 85, 0
2, 20064, Note_on_c, 0, 83, 63
2, 20156, Note_off_c, 0, 83, 0
2, 20160, Note_on_c, 0, 83, 64
2, 20252, Note_off_c, 0, 83, 0
2, 20256, Note_on_c, 0, 81, 65
2, 20348, Note_off_c, 0, 81, 0
2, 20352, Note_on_c, 0, 81, 66
2, 20444, Note_off_c, 0, 81, 0
2, 20448, Note_on_c, 0, 80, 67
2, 20540, Note_off_c, 0, 80, 0
2, 20544, Note_on_c, 0, 80, 67
2, 20636, Note_off_c, 0, 80, 0
2, 20640, Note_on_c, 0, 78, 68
2, 20736, Note_off_c, 0, 78, 0
2, 20736, Note_on_c, 0, 76, 69
2, 20832, Note_off_c, 0, 76, 0
2, 20832, Note_on_c, 0, 77, 69
2, 20924, Note_off_c, 0, 77, 0
2, 20928, Note_on_c, 0, 78, 69
2, 21024, Note_off_c, 0, 78, 0
2, 21024, Note_on_c, 0, 69, 69
2, 21112, Note_off_c, 0, 69, 0
2, 21120, Note_on_c, 0, 69, 69
2, 21504, Note_off_c, 0, 69, 0
2, 21504, Note_on_c, 0, 71, 69
2, 21524, Note_off_c, 0, 71, 0
2, 21528, Note_on_c, 0, 73, 69
2, 21548, Note_off_c, 0, 73, 0
2, 21552, Note_on_c, 0, 71, 69
2, 21572, Note_off_c, 0, 71, 0
2, 21576, Note_on_c, 0, 73, 69
2, 21596, Note_off_c, 0, 73, 0
2, 21600, Note_on_c, 0, 71, 69
2, 21620, Note_off_c, 0, 71, 0
2, 21624, Note_on_c, 0, 73, 69
2, 21644, Note_off_c, 0, 73, 0
2, 21648, Note_on_c, 0, 71, 69
2, 21668, Note_off_c, 0, 71, 0
2, 21672, Note_on_c, 0, 73, 69
2, 21692, Note_off_c, 0, 73, 0
2, 21696, Note_on_c, 0, 71, 69
2, 21716, Note_off_c, 0, 71, 0
2, 21720, Note_on_c, 0, 73, 69
2, 21740, Note_off_c, 0, 73, 0
2, 21744, Note_on_c, 0, 71, 69
2, 21764, Note_off_c, 0, 71, 0
2, 21768, Note_on_c, 0, 73, 69
2, 21788, Note_off_c, 0, 73, 0
2, 21792, Note_on_c, 0, 69, 69
2, 21836, Note_off_c, 0, 69, 0
2, 21840, Note_on_c, 0, 71, 69
2, 21884, Note_off_c, 0, 71, 0
2, 21888, Note_on_c, 0, 69, 69
2, 22080, Note_off_c, 0, 69, 0
2, 22080, Note_on_c, 0, 71, 69
2, 22100, Note_off_c, 0, 71, 0
2, 22104, Note_on_c, 0, 69, 69
2, 22124, Note_off_c, 0, 69, 0
2, 22128, Note_on_c, 0, 71, 69
2, 22148, Note_off_c, 0, 71, 0
2, 22152, Note_on_c, 0, 69, 69
2, 22172, Note_off_c, 0, 69, 0
2, 22176, Note_on_c, 0, 71, 69
2, 22196, Note_off_c, 0, 71, 0
2, 22200, Note_on_c, 0, 69, 69
2, 22220, Note_off_c, 0, 69, 0
2, 22224, Note_on_c, 0, 68, 69
2, 22268, Note_off_c, 0, 68, 0
2, 22272, Note_on_c, 0, 69, 66
2, 22464, Note_off_c, 0, 69, 0
2, 22464, Note_on_c, 0, 71, 64
2, 22656, Note_off_c, 0, 71, 0
2, 22656, Note_on_c, 0, 73, 61
2, 22848, Note_off_c, 0, 73, 0
2, 22848, Note_on_c, 0, 75, 59
2, 23040, Note_off_c, 0, 75, 0
2, 23040, Note_on_c, 0, 75, 58
2, 23424, Note_off_c, 0, 75, 0
2, 23424, Note_on_c, 0, 76, 57
2, 23808, Note_off_c, 0, 76, 0
2, 24192, Note_on_c, 0, 64, 60
2, 24384, Note_off_c, 0, 64, 0
2, 24384, Note_on_c, 0, 80, 57
2, 24576, Note_off_c, 0, 80, 0
2, 24576, Note_on_c, 0, 80, 58
2, 24960, Note_off_c, 0, 80, 0
2, 24960, Note_on_c, 0, 81, 60
2, 25056, Note_off_c, 0, 81, 0
2, 25056, Note_on_c, 0, 80, 59
2, 25152, Note_off_c, 0, 80, 0
2, 25152, Note_on_c, 0, 78, 58
2, 25248, Note_off_c, 0, 78, 0
2, 25248, Note_on_c, 0, 76, 57
2, 25344, Note_off_c, 0, 76, 0
2, 25344, Note_on_c, 0, 80, 58
2, 25536, Note_off_c, 0, 80, 0
2, 25536, Note_on_c, 0, 78, 57
2, 25728, Note_off_c, 0, 78, 0
2, 25728, Note_on_c, 0, 78, 57
2, 26112, Note_off_c, 0, 78, 0
2, 26112, Note_on_c, 0, 80, 59
2, 26208, Note_off_c, 0, 80, 0
2, 26208, Note_on_c, 0, 78, 58
2, 26304, Note_off_c, 0, 78, 0
2, 26304, Note_on_c, 0, 76, 57
2, 26400, Note_off_c, 0, 76, 0
2, 26400, Note_on_c, 0, 75, 57
2, 26496, Note_off_c, 0, 75, 0
2, 26496, Note_on_c, 0, 76, 57
2, 27072, Note_off_c, 0, 76, 0
2, 27072, Note_on_c, 0, 75, 57
2, 27216, Note_off_c, 0, 75, 0
2, 27216, Note_on_c, 0, 76, 57
2, 27264, Note_off_c, 0, 76, 0
2, 27264, Note_on_c, 0, 78, 57
2, 27456, Note_off_c, 0, 78, 0
2, 27456, Note_on_c, 0, 76, 57
2, 27648, Note_off_c, 0, 76, 0
2, 27648, Note_on_c, 0, 75, 57
2, 27840, Note_off_c, 0, 75, 0
2, 27840, Note_on_c, 0, 83, 60
2, 28224, Note_off_c, 0, 83, 0
2, 28224, Note_on_c, 0, 82, 59
2, 28608, Note_off_c, 0, 82, 0
2, 28608, Note_on_c, 0, 81, 57
2, 28800, Note_off_c, 0, 81, 0
2, 28800, Note_on_c, 0, 80, 57
2, 28992, Note_off_c, 0, 80, 0
2, 28992, Note_on_c, 0, 68, 67
2, 29172, Note_off_c, 0, 68, 0
2, 29184, Note_on_c, 0, 68, 67
2, 29568, Note_off_c, 0, 68, 0
2, 29568, Note_on_c, 0, 69, 67
2, 29664, Note_off_c, 0, 69, 0
2, 29664, Note_on_c, 0, 68, 68
2, 29760, Note_off_c, 0, 68, 0
2, 29760, Note_on_c, 0, 66, 69
2, 29856, Note_off_c, 0, 66, 0
2, 29856, Note_on_c, 0, 64, 70
2, 29952, Note_off_c, 0, 64, 0
2, 29952, Note_on_c, 0, 68, 69
2, 30144, Note_off_c, 0, 68, 0
2, 30144, Note_on_c, 0, 66, 70
2, 30324, Note_off_c, 0, 66, 0
2, 30336, Note_on_c, 0, 66, 70
2, 30720, Note_off_c, 0, 66, 0
2, 30720, Note_on_c, 0, 68, 68
2, 30816, Note_off_c, 0, 68, 0
2, 30816, Note_on_c, 0, 66, 69
2, 30912, Note_off_c, 0, 66, 0
2, 30912, Note_on_c, 0, 64, 70
2, 31008, Note_off_c, 0, 64, 0
2, 31008, Note_on_c, 0, 63, 71
2, 31104, Note_off_c, 0, 63, 0
2, 31104, Note_on_c, 0, 66, 69
2, 31200, Note_off_c, 0, 66, 0
2, 31200, Note_on_c, 0, 64, 70
2, 31296, Note_off_c, 0, 64, 0
2, 31296, Note_on_c, 0, 64, 70
2, 31680, Note_off_c, 0, 64, 0
2, 31680, Note_on_c, 0, 63, 71
2, 31824, Note_off_c, 0, 63, 0
2, 31824, Note_on_c, 0, 64, 70
2, 31872, Note_off_c, 0, 64, 0
2, 31872, Note_on_c, 0, 66, 69
2, 32064, Note_off_c, 0, 66, 0
2, 32064, Note_on_c, 0, 64, 70
2, 32256, Note_off_c, 0, 64, 0
2, 32256, Note_on_c, 0, 64, 69
2, 32352, Note_off_c, 0, 64, 0
2, 32352, Note_on_c, 0, 63, 70
2, 32448, Note_off_c, 0, 63, 0
2, 32448, Note_on_c, 0, 61, 71
2, 32544, Note_off_c, 0, 61, 0
2, 32544, Note_on_c, 0, 59, 72
2, 32636, Note_off_c, 0, 59, 0
2, 32640, Note_on_c, 0, 59, 72
2, 33024, Note_off_c, 0, 59, 0
2, 33024, Note_on_c, 0, 83, 59
2, 33216, Note_off_c, 0, 83, 0
2, 33216, Note_on_c, 0, 75, 57
2, 33408, Note_off_c, 0, 75, 0
2, 33408, Note_on_c, 0, 76, 57
2, 33504, Note_off_c, 0, 76, 0
2, 33504, Note_on_c, 0, 78, 57
2, 33600, Note_off_c, 0, 78, 0
2, 33600, Note_on_c, 0, 80, 58
2, 33696, Note_off_c, 0, 80, 0
2, 33696, Note_on_c, 0, 81, 59
2, 33792, Note_off_c, 0, 81, 0
2, 33792, Note_on_c, 0, 80, 58
2, 33984, Note_off_c, 0, 80, 0
2, 33984, Note_on_c, 0, 78, 57
2, 34176, Note_off_c, 0, 78, 0
2, 35328, Note_on_c, 0, 83, 58
2, 35516, Note_off_c, 0, 83, 0
2, 35520, Note_on_c, 0, 83, 58
2, 35708, Note_off_c, 0, 83, 0
2, 35712, Note_on_c, 0, 83, 58
2, 36000, Note_off_c, 0, 83, 0
2, 36000, Note_on_c, 0, 85, 59
2, 36048, Note_off_c, 0, 85, 0
2, 36048, Note_on_c, 0, 87, 60
2, 36096, Note_off_c, 0, 87, 0
2, 36096, Note_on_c, 0, 88, 60
2, 36216, Note_off_c, 0, 88, 0
2, 36480, Note_on_c, 0, 83, 59
2, 36624, Note_off_c, 0, 83, 0
2, 36624, Note_on_c, 0, 80, 58
2, 36672, Note_off_c, 0, 80, 0
2, 36672, Note_on_c, 0, 83, 59
2, 36816, Note_off_c, 0, 83, 0
2, 36816, Note_on_c, 0, 80, 58
2, 36864, Note_off_c, 0, 80, 0
2, 36864, Note_on_c, 0, 85, 60
2, 37152, Note_off_c, 0, 85, 0
2, 37152, Note_on_c, 0, 81, 59
2, 37248, Note_off_c, 0, 81, 0
2, 37248, Note_on_c, 0, 78, 57
2, 37440, Note_off_c, 0, 78, 0
2, 37632, Note_on_c, 0, 83, 59
2, 37728, Note_off_c, 0, 83, 0
2, 37728, Note_on_c, 0, 81, 58
2, 37824, Note_off_c, 0, 81, 0
2, 37824, Note_on_c, 0, 80, 57
2, 37920, Note_off_c, 0, 80, 0
2, 37920, Note_on_c, 0, 78, 57
2, 38016, Note_off_c, 0, 78, 0
2, 38016, Note_on_c, 0, 83, 59
2, 38304, Note_off_c, 0, 83, 0
2, 38304, Note_on_c, 0, 80, 58
2, 38400, Note_off_c, 0, 80, 0
2, 38400, Note_on_c, 0, 76, 57
2, 38492, Note_off_c, 0, 76, 0
2, 38592, Note_on_c, 0, 75, 57
2, 38784, Note_off_c, 0, 75, 0
2, 38784, Note_on_c, 0, 76, 57
2, 38976, Note_off_c, 0, 76, 0
2, 38976, Note_on_c, 0, 78, 57
2, 39168, Note_off_c, 0, 78, 0
2, 39168, Note_on_c, 0, 78, 57
2, 39356, Note_off_c, 0, 78, 0
2, 39360, Note_on_c, 0, 79, 57
2, 39552, Note_off_c, 0, 79, 0
2, 39552, Note_on_c, 0, 80, 58
2, 39936, Note_off_c, 0, 80, 0
2, 39936, Note_on_c, 0, 83, 59
2, 39992, Note_off_c, 0, 83, 0
2, 40032, Note_on_c, 0, 83, 59
2, 40088, Note_off_c, 0, 83, 0
2, 40128, Note_on_c, 0, 83, 59
2, 40184, Note_off_c, 0, 83, 0
2, 40224, Note_on_c, 0, 83, 59
2, 40280, Note_off_c, 0, 83, 0
2, 40320, Note_on_c, 0, 83, 58
2, 40608, Note_off_c, 0, 83, 0
2, 40608, Note_on_c, 0, 85, 59
2, 40656, Note_off_c, 0, 85, 0
2, 40656, Note_on_c, 0, 87, 60
2, 40704, Note_off_c, 0, 87, 0
2, 40704, Note_on_c, 0, 88, 61
2, 40824, Note_off_c, 0, 88, 0
2, 41088, Note_on_c, 0, 83, 59
2, 41232, Note_off_c, 0, 83, 0
2, 41232, Note_on_c, 0, 80, 58
2, 41280, Note_off_c, 0, 80, 0
2, 41280, Note_on_c, 0, 83, 59
2, 41344, Note_off_c, 0, 83, 0
2, 41348, Note_on_c, 0, 80, 58
2, 41372, Note_off_c, 0, 80, 0
2, 41376, Note_on_c, 0, 83, 59
2, 41440, Note_off_c, 0, 83, 0
2, 41448, Note_on_c, 0, 80, 56
2, 41472, Note_off_c, 0, 80, 0
2, 41472, Note_on_c, 0, 85, 60
2, 41760, Note_off_c, 0, 85, 0
2, 41760, Note_on_c, 0, 81, 59
2, 41840, Note_off_c, 0, 81, 0
2, 41856, Note_on_c, 0, 78, 57
2, 42240, Note_on_c, 0, 81, 57
2, 42332, Note_off_c, 0, 78, 0
2, 42336, Note_off_c, 0, 81, 3
2, 42336, Note_on_c, 0, 78, 57
2, 42432, Note_off_c, 0, 78, 0
2, 42432, Note_on_c, 0, 81, 57
2, 42528, Note_off_c, 0, 81, 0
2, 42528, Note_on_c, 0, 78, 57
2, 42624, Note_off_c, 0, 78, 0
2, 42624, Note_on_c, 0, 83, 59
2, 42720, Note_off_c, 0, 83, 0
2, 42720, Note_on_c, 0, 75, 57
2, 42812, Note_off_c, 0, 75, 0
2, 42816, Note_on_c, 0, 76, 59
2, 42908, Note_off_c, 0, 76, 0
2, 42912, Note_on_c, 0, 81, 57
2, 42992, Note_off_c, 0, 81, 0
2, 43008, Note_on_c, 0, 80, 66
2, 43032, Note_off_c, 0, 80, 0
2, 43032, Note_on_c, 0, 78, 57
2, 43056, Note_off_c, 0, 78, 0
2, 43056, Note_on_c, 0, 80, 57
2, 43080, Note_off_c, 0, 80, 0
2, 43080, Note_on_c, 0, 78, 57
2, 43104, Note_off_c, 0, 78, 0
2, 43104, Note_on_c, 0, 80, 57
2, 43128, Note_off_c, 0, 80, 0
2, 43128, Note_on_c, 0, 78, 57
2, 43152, Note_off_c, 0, 78, 0
2, 43152, Note_on_c, 0, 80, 57
2, 43176, Note_off_c, 0, 80, 0
2, 43176, Note_on_c, 0, 78, 57
2, 43200, Note_off_c, 0, 78, 0
2, 43200, Note_on_c, 0, 80, 57
2, 43224, Note_off_c, 0, 80, 0
2, 43224, Note_on_c, 0, 78, 57
2, 43248, Note_off_c, 0, 78, 0
2, 43248, Note_on_c, 0, 80, 57
2, 43272, Note_off_c, 0, 80, 0
2, 43272, Note_on_c, 0, 78, 57
2, 43296, Note_off_c, 0, 78, 0
2, 43296, Note_on_c, 0, 80, 57
2, 43320, Note_off_c, 0, 80, 0
2, 43320, Note_on_c, 0, 78, 57
2, 43344, Note_off_c, 0, 78, 0
2, 43344, Note_on_c, 0, 80, 57
2, 43368, Note_off_c, 0, 80, 0
2, 43368, Note_on_c, 0, 78, 57
2, 43392, Note_off_c, 0, 78, 0
2, 43392, Note_on_c, 0, 80, 57
2, 43416, Note_off_c, 0, 80, 0
2, 43416, Note_on_c, 0, 78, 57
2, 43440, Note_off_c, 0, 78, 0
2, 43440, Note_on_c, 0, 80, 57
2, 43464, Note_off_c, 0, 80, 0
2, 43464, Note_on_c, 0, 78, 57
2, 43488, Note_off_c, 0, 78, 0
2, 43488, Note_on_c, 0, 80, 57
2, 43512, Note_off_c, 0, 80, 0
2, 43512, Note_on_c, 0, 78, 57
2, 43536, Note_off_c, 0, 78, 0
2, 43536, Note_on_c, 0, 80, 57
2, 43560, Note_off_c, 0, 80, 0
2, 43584, Note_on_c, 0, 80, 57
2, 43584, Note_on_c, 0, 76, 57
2, 43608, Note_off_c, 0, 80, 0
2, 43672, Note_off_c, 0, 76, 0
2, 43680, Note_on_c, 0, 78, 57
2, 43768, Note_off_c, 0, 78, 0
2, 43776, Note_on_c, 0, 76, 57
2, 44160, Note_off_c, 0, 76, 0
2, 44928, Note_on_c, 0, 76, 66
2, 45308, Note_off_c, 0, 76, 0
2, 45312, Note_on_c, 0, 76, 58
2, 45404, Note_off_c, 0, 76, 0
2, 45408, Note_on_c, 0, 75, 57
2, 45500, Note_off_c, 0, 75, 0
2, 45504, Note_on_c, 0, 74, 57
2, 45596, Note_off_c, 0, 74, 0
2, 45600, Note_on_c, 0, 71, 57
2, 45692, Note_off_c, 0, 71, 0
2, 45696, Note_on_c, 0, 74, 57
2, 45788, Note_off_c, 0, 74, 0
2, 45792, Note_on_c, 0, 73, 57
2, 45884, Note_off_c, 0, 73, 0
2, 45888, Note_on_c, 0, 71, 57
2, 45980, Note_off_c, 0, 71, 0
2, 45984, Note_on_c, 0, 69, 57
2, 46076, Note_off_c, 0, 69, 0
2, 46080, Note_on_c, 0, 68, 66
2, 46176, Note_off_c, 0, 68, 0
2, 46176, Note_on_c, 0, 71, 60
2, 46268, Note_off_c, 0, 71, 0
2, 46272, Note_on_c, 0, 64, 66
2, 46460, Note_off_c, 0, 64, 0
2, 46464, Note_on_c, 0, 64, 66
2, 46544, Note_off_c, 0, 64, 0
2, 46560, Note_on_c, 0, 63, 67
2, 46656, Note_off_c, 0, 63, 0
2, 46656, Note_on_c, 0, 62, 67
2, 46748, Note_off_c, 0, 62, 0
2, 46752, Note_on_c, 0, 59, 69
2, 46844, Note_off_c, 0, 59, 0
2, 46848, Note_on_c, 0, 62, 67
2, 46940, Note_off_c, 0, 62, 0
2, 46944, Note_on_c, 0, 61, 68
2, 47036, Note_off_c, 0, 61, 0
2, 47040, Note_on_c, 0, 59, 69
2, 47132, Note_off_c, 0, 59, 0
2, 47136, Note_on_c, 0, 57, 70
2, 47216, Note_off_c, 0, 57, 0
2, 47232, Note_on_c, 0, 56, 71
2, 47328, Note_off_c, 0, 56, 0
2, 47328, Note_on_c, 0, 57, 70
2, 47424, Note_off_c, 0, 57, 0
2, 47424, Note_on_c, 0, 59, 69
2, 47520, Note_off_c, 0, 59, 0
2, 47520, Note_on_c, 0, 61, 68
2, 47616, Note_off_c, 0, 61, 0
2, 47616, Note_on_c, 0, 62, 67
2, 47712, Note_off_c, 0, 62, 0
2, 47712, Note_on_c, 0, 64, 66
2, 47808, Note_off_c, 0, 64, 0
2, 47808, Note_on_c, 0, 66, 68
2, 47904, Note_off_c, 0, 66, 0
2, 47904, Note_on_c, 0, 62, 69
2, 48000, Note_off_c, 0, 62, 0
2, 48000, Note_on_c, 0, 61, 70
2, 48096, Note_off_c, 0, 61, 0
2, 48096, Note_on_c, 0, 59, 71
2, 48192, Note_off_c, 0, 59, 0
2, 48192, Note_on_c, 0, 57, 71
2, 48288, Note_off_c, 0, 57, 0
2, 48288, Note_on_c, 0, 56, 72
2, 48384, Note_off_c, 0, 56, 0
2, 48384, Note_on_c, 0, 59, 72
2, 48576, Note_off_c, 0, 59, 0
2, 48576, Note_on_c, 0, 57, 72
2, 48764, Note_off_c, 0, 57, 0
2, 48768, Note_on_c, 0, 57, 71
2, 49152, Note_off_c, 0, 57, 0
2, 49152, Note_on_c, 0, 57, 71
2, 49340, Note_off_c, 0, 57, 0
2, 49344, Note_on_c, 0, 69, 73
2, 49536, Note_off_c, 0, 69, 0
2, 49536, Note_on_c, 0, 69, 78
2, 49920, Note_off_c, 0, 69, 0
2, 49920, Note_on_c, 0, 68, 75
2, 50304, Note_off_c, 0, 68, 0
2, 50304, Note_on_c, 0, 66, 66
2, 50688, Note_off_c, 0, 66, 0
2, 50688, Note_on_c, 0, 63, 89
2, 50880, Note_off_c, 0, 63, 0
2, 50880, Note_on_c, 0, 64, 69
2, 51068, Note_off_c, 0, 64, 0
2, 51072, Note_on_c, 0, 64, 69
2, 51840, Note_off_c, 0, 64, 0
2, 51840, Note_on_c, 0, 66, 69
2, 52028, Note_off_c, 0, 66, 0
2, 52032, Note_on_c, 0, 66, 69
2, 52224, Note_off_c, 0, 66, 0
2, 52224, Note_on_c, 0, 64, 69
2, 52404, Note_off_c, 0, 64, 0
2, 52416, Note_on_c, 0, 64, 69
2, 52608, Note_off_c, 0, 64, 0
2, 52608, Note_on_c, 0, 62, 69
2, 52792, Note_off_c, 0, 62, 0
2, 52800, Note_on_c, 0, 62, 69
2, 52992, Note_off_c, 0, 62, 0
2, 52992, Note_on_c, 0, 60, 89
2, 53184, Note_off_c, 0, 60, 0
2, 53184, Note_on_c, 0, 61, 78
2, 53364, Note_off_c, 0, 61, 0
2, 53392, Note_on_c, 0, 61, 73
2, 53952, Note_on_c, 0, 64, 65
2, 53968, Note_off_c, 0, 61, 0
2, 54140, Note_off_c, 0, 64, 0
2, 54240, Note_on_c, 0, 68, 63
2, 54336, Note_off_c, 0, 68, 0
2, 54336, Note_on_c, 0, 69, 63
2, 54432, Note_off_c, 0, 69, 0
2, 54432, Note_on_c, 0, 68, 63
2, 54528, Note_off_c, 0, 68, 0
2, 54528, Note_on_c, 0, 69, 63
2, 54624, Note_off_c, 0, 69, 0
2, 54624, Note_on_c, 0, 71, 63
2, 54720, Note_off_c, 0, 71, 0
2, 54720, Note_on_c, 0, 73, 63
2, 54816, Note_off_c, 0, 73, 0
2, 54816, Note_on_c, 0, 74, 63
2, 54912, Note_off_c, 0, 74, 0
2, 54912, Note_on_c, 0, 73, 63
2, 55104, Note_off_c, 0, 73, 0
2, 55104, Note_on_c, 0, 71, 63
2, 55296, Note_off_c, 0, 71, 0
2, 55392, Note_on_c, 0, 70, 63
2, 55488, Note_off_c, 0, 70, 0
2, 55488, Note_on_c, 0, 71, 63
2, 55584, Note_off_c, 0, 71, 0
2, 55584, Note_on_c, 0, 70, 63
2, 55680, Note_off_c, 0, 70, 0
2, 55680, Note_on_c, 0, 71, 63
2, 55776, Note_off_c, 0, 71, 0
2, 55776, Note_on_c, 0, 73, 63
2, 55872, Note_off_c, 0, 73, 0
2, 55872, Note_on_c, 0, 74, 63
2, 55968, Note_off_c, 0, 74, 0
2, 55968, Note_on_c, 0, 76, 63
2, 56064, Note_off_c, 0, 76, 0
2, 56064, Note_on_c, 0, 74, 63
2, 56256, Note_off_c, 0, 74, 0
2, 56256, Note_on_c, 0, 73, 63
2, 56448, Note_off_c, 0, 73, 0
2, 56448, Note_on_c, 0, 76, 64
2, 56544, Note_off_c, 0, 76, 0
2, 56544, Note_on_c, 0, 74, 65
2, 56636, Note_off_c, 0, 74, 0
2, 56640, Note_on_c, 0, 74, 66
2, 56736, Note_off_c, 0, 74, 0
2, 56736, Note_on_c, 0, 73, 67
2, 56828, Note_off_c, 0, 73, 0
2, 56832, Note_on_c, 0, 73, 69
2, 56928, Note_off_c, 0, 73, 0
2, 56928, Note_on_c, 0, 71, 70
2, 57020, Note_off_c, 0, 71, 0
2, 57024, Note_on_c, 0, 71, 71
2, 57120, Note_off_c, 0, 71, 0
2, 57120, Note_on_c, 0, 69, 72
2, 57212, Note_off_c, 0, 69, 0
2, 57216, Note_on_c, 0, 69, 74
2, 57312, Note_off_c, 0, 69, 0
2, 57312, Note_on_c, 0, 68, 75
2, 57404, Note_off_c, 0, 68, 0
2, 57408, Note_on_c, 0, 68, 76
2, 57504, Note_off_c, 0, 68, 0
2, 57504, Note_on_c, 0, 66, 77
2, 57600, Note_off_c, 0, 66, 0
2, 57600, Note_on_c, 0, 64, 78
2, 57696, Note_off_c, 0, 64, 0
2, 57696, Note_on_c, 0, 65, 78
2, 57792, Note_off_c, 0, 65, 0
2, 57792, Note_on_c, 0, 66, 78
2, 57888, Note_off_c, 0, 66, 0
2, 57888, Note_on_c, 0, 57, 78
2, 57980, Note_off_c, 0, 57, 0
2, 57984, Note_on_c, 0, 57, 78
2, 58368, Note_off_c, 0, 57, 0
2, 58368, Note_on_c, 0, 59, 78
2, 58392, Note_off_c, 0, 59, 0
2, 58392, Note_on_c, 0, 61, 78
2, 58416, Note_off_c, 0, 61, 0
2, 58416, Note_on_c, 0, 59, 78
2, 58440, Note_off_c, 0, 59, 0
2, 58440, Note_on_c, 0, 61, 78
2, 58464, Note_off_c, 0, 61, 0
2, 58464, Note_on_c, 0, 59, 78
2, 58488, Note_off_c, 0, 59, 0
2, 58488, Note_on_c, 0, 61, 78
2, 58512, Note_off_c, 0, 61, 0
2, 58512, Note_on_c, 0, 59, 78
2, 58536, Note_off_c, 0, 59, 0
2, 58536, Note_on_c, 0, 61, 78
2, 58560, Note_off_c, 0, 61, 0
2, 58560, Note_on_c, 0, 59, 78
2, 58584, Note_off_c, 0, 59, 0
2, 58584, Note_on_c, 0, 61, 78
2, 58608, Note_off_c, 0, 61, 0
2, 58608, Note_on_c, 0, 59, 78
2, 58632, Note_off_c, 0, 59, 0
2, 58632, Note_on_c, 0, 61, 78
2, 58656, Note_off_c, 0, 61, 0
2, 58656, Note_on_c, 0, 57, 78
2, 58704, Note_off_c, 0, 57, 0
2, 58704, Note_on_c, 0, 59, 78
2, 58752, Note_off_c, 0, 59, 0
2, 58752, Note_on_c, 0, 57, 78
2, 58920, Note_off_c, 0, 57, 0
2, 58920, Note_on_c, 0, 71, 78
2, 58944, Note_off_c, 0, 71, 0
2, 58944, Note_on_c, 0, 69, 78
2, 59088, Note_off_c, 0, 69, 0
2, 59088, Note_on_c, 0, 68, 78
2, 59136, Note_off_c, 0, 68, 0
2, 59136, Note_on_c, 0, 69, 78
2, 59328, Note_off_c, 0, 69, 0
2, 59328, Note_on_c, 0, 71, 74
2, 59520, Note_off_c, 0, 71, 0
2, 59520, Note_on_c, 0, 73, 70
2, 59712, Note_off_c, 0, 73, 0
2, 59712, Note_on_c, 0, 75, 66
2, 59900, Note_off_c, 0, 75, 0
2, 59904, Note_on_c, 0, 75, 61
2, 60288, Note_off_c, 0, 75, 0
2, 60288, Note_on_c, 0, 76, 57
2, 60672, Note_off_c, 0, 76, 0
2, 61056, Note_on_c, 0, 85, 59
2, 61824, Note_off_c, 0, 85, 0
2, 61824, Note_on_c, 0, 86, 60
2, 61920, Note_off_c, 0, 86, 0
2, 61920, Note_on_c, 0, 85, 59
2, 62016, Note_off_c, 0, 85, 0
2, 62016, Note_on_c, 0, 83, 58
2, 62112, Note_off_c, 0, 83, 0
2, 62112, Note_on_c, 0, 81, 57
2, 62208, Note_off_c, 0, 81, 0
2, 62208, Note_on_c, 0, 85, 59
2, 62400, Note_off_c, 0, 85, 0
2, 62400, Note_on_c, 0, 83, 58
2, 62588, Note_off_c, 0, 83, 0
2, 62592, Note_on_c, 0, 83, 58
2, 62976, Note_off_c, 0, 83, 0
2, 62976, Note_on_c, 0, 85, 59
2, 63072, Note_off_c, 0, 85, 0
2, 63072, Note_on_c, 0, 83, 58
2, 63168, Note_off_c, 0, 83, 0
2, 63168, Note_on_c, 0, 81, 57
2, 63264, Note_off_c, 0, 81, 0
2, 63264, Note_on_c, 0, 80, 56
2, 63360, Note_off_c, 0, 80, 0
2, 63360, Note_on_c, 0, 81, 59
2, 63936, Note_off_c, 0, 81, 0
2, 63936, Note_on_c, 0, 80, 58
2, 64080, Note_off_c, 0, 80, 0
2, 64080, Note_on_c, 0, 81, 59
2, 64128, Note_off_c, 0, 81, 0
2, 64128, Note_on_c, 0, 83, 59
2, 64320, Note_off_c, 0, 83, 0
2, 64320, Note_on_c, 0, 81, 58
2, 64512, Note_off_c, 0, 81, 0
2, 64512, Note_on_c, 0, 80, 57
2, 64704, Note_off_c, 0, 80, 0
2, 64704, Note_on_c, 0, 88, 63
2, 65088, Note_off_c, 0, 88, 0
2, 65088, Note_on_c, 0, 87, 60
2, 65472, Note_off_c, 0, 87, 0
2, 65472, Note_on_c, 0, 86, 60
2, 65664, Note_off_c, 0, 86, 0
2, 65664, Note_on_c, 0, 85, 60
2, 66048, Note_off_c, 0, 85, 0
2, 66048, Note_on_c, 0, 61, 89
2, 66432, Note_off_c, 0, 61, 0
2, 66432, Note_on_c, 0, 62, 89
2, 66528, Note_off_c, 0, 62, 0
2, 66528, Note_on_c, 0, 61, 89
2, 66624, Note_off_c, 0, 61, 0
2, 66624, Note_on_c, 0, 59, 89
2, 66720, Note_off_c, 0, 59, 0
2, 66720, Note_on_c, 0, 57, 89
2, 66816, Note_off_c, 0, 57, 0
2, 66816, Note_on_c, 0, 61, 89
2, 67008, Note_off_c, 0, 61, 0
2, 67008, Note_on_c, 0, 59, 89
2, 67196, Note_off_c, 0, 59, 0
2, 67200, Note_on_c, 0, 59, 89
2, 67580, Note_off_c, 0, 59, 0
2, 67584, Note_on_c, 0, 59, 89
2, 67680, Note_off_c, 0, 59, 0
2, 67680, Note_on_c, 0, 64, 89
2, 67776, Note_off_c, 0, 64, 0
2, 67776, Note_on_c, 0, 68, 89
2, 67872, Note_off_c, 0, 68, 0
2, 67872, Note_on_c, 0, 71, 89
2, 67964, Note_off_c, 0, 71, 0
2, 67968, Note_on_c, 0, 71, 89
2, 68064, Note_off_c, 0, 71, 0
2, 68064, Note_on_c, 0, 69, 89
2, 68156, Note_off_c, 0, 69, 0
2, 68160, Note_on_c, 0, 69, 89
2, 68544, Note_off_c, 0, 69, 0
2, 68544, Note_on_c, 0, 68, 89
2, 68688, Note_off_c, 0, 68, 0
2, 68688, Note_on_c, 0, 69, 89
2, 68736, Note_off_c, 0, 69, 0
2, 68736, Note_on_c, 0, 71, 89
2, 68928, Note_off_c, 0, 71, 0
2, 68928, Note_on_c, 0, 69, 89
2, 69120, Note_off_c, 0, 69, 0
2, 69120, Note_on_c, 0, 69, 89
2, 69216, Note_off_c, 0, 69, 0
2, 69216, Note_on_c, 0, 68, 89
2, 69312, Note_off_c, 0, 68, 0
2, 69312, Note_on_c, 0, 66, 89
2, 69408, Note_off_c, 0, 66, 0
2, 69408, Note_on_c, 0, 64, 89
2, 69500, Note_off_c, 0, 64, 0
2, 69504, Note_on_c, 0, 64, 89
2, 69888, Note_off_c, 0, 64, 0
2, 69888, Note_on_c, 0, 88, 60
2, 70080, Note_off_c, 0, 88, 0
2, 70080, Note_on_c, 0, 80, 57
2, 70272, Note_off_c, 0, 80, 0
2, 70272, Note_on_c, 0, 81, 58
2, 70368, Note_off_c, 0, 81, 0
2, 70368, Note_on_c, 0, 83, 59
2, 70464, Note_off_c, 0, 83, 0
2, 70464, Note_on_c, 0, 85, 60
2, 70560, Note_off_c, 0, 85, 0
2, 70560, Note_on_c, 0, 86, 61
2, 70656, Note_off_c, 0, 86, 0
2, 70656, Note_on_c, 0, 85, 60
2, 70848, Note_off_c, 0, 85, 0
2, 70848, Note_on_c, 0, 83, 59
2, 71040, Note_off_c, 0, 83, 0
2, 72192, Note_on_c, 0, 76, 57
2, 72380, Note_off_c, 0, 76, 0
2, 72384, Note_on_c, 0, 76, 57
2, 72576, Note_off_c, 0, 76, 0
2, 72576, Note_on_c, 0, 76, 57
2, 72864, Note_off_c, 0, 76, 0
2, 72864, Note_on_c, 0, 78, 57
2, 72912, Note_off_c, 0, 78, 0
2, 72912, Note_on_c, 0, 80, 58
2, 72960, Note_off_c, 0, 80, 0
2, 72960, Note_on_c, 0, 81, 60
2, 73152, Note_off_c, 0, 81, 0
2, 73344, Note_on_c, 0, 76, 57
2, 73488, Note_off_c, 0, 76, 0
2, 73488, Note_on_c, 0, 73, 57
2, 73536, Note_off_c, 0, 73, 0
2, 73536, Note_on_c, 0, 76, 57
2, 73680, Note_off_c, 0, 76, 0
2, 73680, Note_on_c, 0, 73, 57
2, 73728, Note_off_c, 0, 73, 0
2, 73728, Note_on_c, 0, 78, 57
2, 74016, Note_off_c, 0, 78, 0
2, 74016, Note_on_c, 0, 74, 57
2, 74112, Note_off_c, 0, 74, 0
2, 74112, Note_on_c, 0, 71, 57
2, 74304, Note_off_c, 0, 71, 0
2, 74496, Note_on_c, 0, 76, 57
2, 74592, Note_off_c, 0, 76, 0
2, 74592, Note_on_c, 0, 74, 57
2, 74688, Note_off_c, 0, 74, 0
2, 74688, Note_on_c, 0, 73, 57
2, 74784, Note_off_c, 0, 73, 0
2, 74784, Note_on_c, 0, 71, 57
2, 74880, Note_off_c, 0, 71, 0
2, 74880, Note_on_c, 0, 76, 57
2, 75168, Note_off_c, 0, 76, 0
2, 75168, Note_on_c, 0, 73, 57
2, 75264, Note_off_c, 0, 73, 0
2, 75264, Note_on_c, 0, 69, 57
2, 75456, Note_off_c, 0, 69, 0
2, 75456, Note_on_c, 0, 68, 63
2, 75648, Note_off_c, 0, 68, 0
2, 75648, Note_on_c, 0, 69, 65
2, 75840, Note_off_c, 0, 69, 0
2, 75840, Note_on_c, 0, 71, 67
2, 76028, Note_off_c, 0, 71, 0
2, 76032, Note_on_c, 0, 71, 67
2, 76224, Note_off_c, 0, 71, 0
2, 76224, Note_on_c, 0, 72, 65
2, 76416, Note_off_c, 0, 72, 0
2, 76416, Note_on_c, 0, 73, 63
2, 76800, Note_off_c, 0, 73, 0
2, 76800, Note_on_c, 0, 88, 60
2, 76856, Note_off_c, 0, 88, 0
2, 76896, Note_on_c, 0, 88, 60
2, 76952, Note_off_c, 0, 88, 0
2, 76992, Note_on_c, 0, 88, 60
2, 77048, Note_off_c, 0, 88, 0
2, 77088, Note_on_c, 0, 88, 60
2, 77144, Note_off_c, 0, 88, 0
2, 77184, Note_on_c, 0, 88, 57
2, 77472, Note_off_c, 0, 88, 0
2, 77472, Note_on_c, 0, 90, 57
2, 77520, Note_off_c, 0, 90, 0
2, 77520, Note_on_c, 0, 92, 57
2, 77568, Note_off_c, 0, 92, 0
2, 77568, Note_on_c, 0, 93, 57
2, 77760, Note_off_c, 0, 93, 0
2, 77952, Note_on_c, 0, 88, 57
2, 78096, Note_off_c, 0, 88, 0
2, 78096, Note_on_c, 0, 85, 57
2, 78144, Note_off_c, 0, 85, 0
2, 78144, Note_on_c, 0, 88, 57
2, 78208, Note_off_c, 0, 88, 0
2, 78216, Note_on_c, 0, 85, 57
2, 78240, Note_off_c, 0, 85, 0
2, 78240, Note_on_c, 0, 88, 57
2, 78304, Note_off_c, 0, 88, 0
2, 78308, Note_on_c, 0, 85, 57
2, 78332, Note_off_c, 0, 85, 0
2, 78336, Note_on_c, 0, 90, 57
2, 78624, Note_off_c, 0, 90, 0
2, 78624, Note_on_c, 0, 86, 57
2, 78720, Note_off_c, 0, 86, 0
2, 78720, Note_on_c, 0, 83, 57
2, 79104, Note_off_c, 0, 83, 0
2, 79104, Note_on_c, 0, 86, 58
2, 79200, Note_off_c, 0, 86, 0
2, 79200, Note_on_c, 0, 83, 58
2, 79296, Note_off_c, 0, 83, 0
2, 79296, Note_on_c, 0, 86, 59
2, 79392, Note_off_c, 0, 86, 0
2, 79392, Note_on_c, 0, 83, 59
2, 79488, Note_off_c, 0, 83, 0
2, 79488, Note_on_c, 0, 88, 60
2, 79584, Note_off_c, 0, 88, 0
2, 79584, Note_on_c, 0, 80, 60
2, 79680, Note_off_c, 0, 80, 0
2, 79680, Note_on_c, 0, 81, 61
2, 79776, Note_off_c, 0, 81, 0
2, 79776, Note_on_c, 0, 86, 61
2, 79872, Note_off_c, 0, 86, 0
2, 79872, Note_on_c, 0, 85, 63
2, 79892, Note_off_c, 0, 85, 0
2, 79896, Note_on_c, 0, 83, 63
2, 79916, Note_off_c, 0, 83, 0
2, 79920, Note_on_c, 0, 85, 63
2, 79940, Note_off_c, 0, 85, 0
2, 79944, Note_on_c, 0, 83, 63
2, 79964, Note_off_c, 0, 83, 0
2, 79968, Note_on_c, 0, 85, 63
2, 79988, Note_off_c, 0, 85, 0
2, 79992, Note_on_c, 0, 83, 64
2, 80012, Note_off_c, 0, 83, 0
2, 80016, Note_on_c, 0, 85, 64
2, 80036, Note_off_c, 0, 85, 0
2, 80040, Note_on_c, 0, 83, 64
2, 80060, Note_off_c, 0, 83, 0
2, 80064, Note_on_c, 0, 85, 64
2, 80084, Note_off_c, 0, 85, 0
2, 80088, Note_on_c, 0, 83, 64
2, 80108, Note_off_c, 0, 83, 0
2, 80112, Note_on_c, 0, 85, 64
2, 80132, Note_off_c, 0, 85, 0
2, 80136, Note_on_c, 0, 83, 64
2, 80156, Note_off_c, 0, 83, 0
2, 80160, Note_on_c, 0, 85, 65
2, 80180, Note_off_c, 0, 85, 0
2, 80184, Note_on_c, 0, 83, 65
2, 80204, Note_off_c, 0, 83, 0
2, 80208, Note_on_c, 0, 85, 65
2, 80228, Note_off_c, 0, 85, 0
2, 80232, Note_on_c, 0, 83, 65
2, 80252, Note_off_c, 0, 83, 0
2, 80256, Note_on_c, 0, 85, 65
2, 80276, Note_off_c, 0, 85, 0
2, 80280, Note_on_c, 0, 83, 65
2, 80300, Note_off_c, 0, 83, 0
2, 80304, Note_on_c, 0, 85, 65
2, 80324, Note_off_c, 0, 85, 0
2, 80328, Note_on_c, 0, 83, 66
2, 80348, Note_off_c, 0, 83, 0
2, 80352, Note_on_c, 0, 85, 66
2, 80372, Note_off_c, 0, 85, 0
2, 80376, Note_on_c, 0, 83, 66
2, 80396, Note_off_c, 0, 83, 0
2, 80400, Note_on_c, 0, 85, 66
2, 80420, Note_off_c, 0, 85, 0
2, 80424, Note_on_c, 0, 83, 66
2, 80444, Note_off_c, 0, 83, 0
2, 80448, Note_on_c, 0, 81, 66
2, 80536, Note_off_c, 0, 81, 0
2, 80544, Note_on_c, 0, 83, 67
2, 80632, Note_off_c, 0, 83, 0
2, 80640, Note_on_c, 0, 81, 69
2, 81024, Note_off_c, 0, 81, 0
2, 81792, Note_on_c, 0, 81, 69
2, 82268, Note_off_c, 0, 81, 0
2, 82272, Note_on_c, 0, 80, 69
2, 82364, Note_off_c, 0, 80, 0
2, 82368, Note_on_c, 0, 79, 69
2, 82460, Note_off_c, 0, 79, 0
2, 82464, Note_on_c, 0, 76, 69
2, 82556, Note_off_c, 0, 76, 0
2, 82560, Note_on_c, 0, 79, 69
2, 82656, Note_off_c, 0, 79, 0
2, 82656, Note_on_c, 0, 78, 69
2, 82748, Note_off_c, 0, 78, 0
2, 82752, Note_on_c, 0, 76, 69
2, 82844, Note_off_c, 0, 76, 0
2, 82848, Note_on_c, 0, 74, 69
2, 82928, Note_off_c, 0, 74, 0
2, 82944, Note_on_c, 0, 73, 69
2, 83040, Note_off_c, 0, 73, 0
2, 83040, Note_on_c, 0, 76, 69
2, 83136, Note_off_c, 0, 76, 0
2, 83136, Note_on_c, 0, 69, 69
2, 83328, Note_off_c, 0, 69, 0
2, 83328, Note_on_c, 0, 69, 69
2, 83408, Note_off_c, 0, 69, 0
2, 83424, Note_on_c, 0, 68, 69
2, 83520, Note_off_c, 0, 68, 0
2, 83520, Note_on_c, 0, 67, 69
2, 83612, Note_off_c, 0, 67, 0
2, 83616, Note_on_c, 0, 64, 69
2, 83696, Note_off_c, 0, 64, 0
2, 83712, Note_on_c, 0, 67, 69
2, 83808, Note_off_c, 0, 67, 0
2, 83808, Note_on_c, 0, 66, 69
2, 83900, Note_off_c, 0, 66, 0
2, 83904, Note_on_c, 0, 64, 69
2, 83996, Note_off_c, 0, 64, 0
2, 84000, Note_on_c, 0, 62, 69
2, 84080, Note_off_c, 0, 62, 0
2, 84096, Note_on_c, 0, 61, 70
2, 84192, Note_off_c, 0, 61, 0
2, 84192, Note_on_c, 0, 62, 70
2, 84284, Note_off_c, 0, 62, 0
2, 84288, Note_on_c, 0, 64, 70
2, 84380, Note_off_c, 0, 64, 0
2, 84384, Note_on_c, 0, 66, 71
2, 84464, Note_off_c, 0, 66, 0
2, 84480, Note_on_c, 0, 67, 71
2, 84576, Note_off_c, 0, 67, 0
2, 84576, Note_on_c, 0, 69, 72
2, 84668, Note_off_c, 0, 69, 0
2, 84672, Note_on_c, 0, 71, 73
2, 84764, Note_off_c, 0, 71, 0
2, 84768, Note_on_c, 0, 67, 74
2, 84848, Note_off_c, 0, 67, 0
2, 84864, Note_on_c, 0, 66, 75
2, 84960, Note_off_c, 0, 66, 0
2, 84960, Note_on_c, 0, 64, 75
2, 85052, Note_off_c, 0, 64, 0
2, 85056, Note_on_c, 0, 62, 76
2, 85148, Note_off_c, 0, 62, 0
2, 85152, Note_on_c, 0, 61, 77
2, 85232, Note_off_c, 0, 61, 0
2, 85248, Note_on_c, 0, 62, 78
2, 85632, Note_off_c, 0, 62, 0
2, 89852, Control_c, 0, 1, 52
2, 89856, Note_on_c, 0, 64, 69
2, 90048, Note_off_c, 0, 64, 0
2, 90048, Note_on_c, 0, 76, 69
2, 90236, Note_off_c, 0, 76, 0
2, 90240, Note_on_c, 0, 76, 69
2, 90624, Note_off_c, 0, 76, 0
2, 90624, Note_on_c, 0, 78, 69
2, 90720, Note_off_c, 0, 78, 0
2, 90720, Note_on_c, 0, 76, 69
2, 90816, Note_off_c, 0, 76, 0
2, 90816, Note_on_c, 0, 74, 69
2, 90912, Note_off_c, 0, 74, 0
2, 90912, Note_on_c, 0, 73, 69
2, 91008, Note_off_c, 0, 73, 0
2, 91008, Note_on_c, 0, 76, 69
2, 91200, Note_off_c, 0, 76, 0
2, 91200, Note_on_c, 0, 74, 69
2, 91392, Note_off_c, 0, 74, 0
2, 91584, Note_on_c, 0, 64, 69
2, 91776, Note_off_c, 0, 64, 0
2, 91776, Note_on_c, 0, 72, 69
2, 91776, Note_on_c, 0, 69, 69
2, 91968, Note_off_c, 0, 72, 0
2, 91968, Note_off_c, 0, 69, 0
2, 91968, Note_on_c, 0, 72, 69
2, 91968, Note_on_c, 0, 69, 69
2, 92160, Note_off_c, 0, 72, 0
2, 92160, Note_off_c, 0, 69, 0
2, 92160, Note_on_c, 0, 72, 69
2, 92160, Note_on_c, 0, 69, 69
2, 92928, Note_off_c, 0, 72, 0
2, 92928, Note_off_c, 0, 69, 0
2, 92928, Note_on_c, 0, 74, 69
2, 92928, Note_on_c, 0, 71, 69
2, 93024, Note_off_c, 0, 74, 0
2, 93024, Note_off_c, 0, 71, 0
2, 93024, Note_on_c, 0, 72, 69
2, 93024, Note_on_c, 0, 69, 69
2, 93120, Note_off_c, 0, 72, 0
2, 93120, Note_off_c, 0, 69, 0
2, 93120, Note_on_c, 0, 71, 69
2, 93120, Note_on_c, 0, 68, 69
2, 93216, Note_off_c, 0, 71, 0
2, 93216, Note_off_c, 0, 68, 0
2, 93216, Note_on_c, 0, 69, 69
2, 93216, Note_on_c, 0, 66, 69
2, 93312, Note_off_c, 0, 69, 0
2, 93312, Note_off_c, 0, 66, 0
2, 93312, Note_on_c, 0, 72, 69
2, 93312, Note_on_c, 0, 69, 69
2, 93504, Note_off_c, 0, 72, 0
2, 93504, Note_off_c, 0, 69, 0
2, 93504, Note_on_c, 0, 71, 69
2, 93504, Note_on_c, 0, 68, 69
2, 93696, Note_off_c, 0, 71, 0
2, 93696, Note_off_c, 0, 68, 0
2, 93888, Note_on_c, 0, 64, 69
2, 94080, Note_off_c, 0, 64, 0
2, 94080, Note_on_c, 0, 69, 69
2, 94272, Note_off_c, 0, 69, 0
2, 94272, Note_on_c, 0, 71, 69
2, 94464, Note_off_c, 0, 71, 0
2, 94464, Note_on_c, 0, 74, 69
2, 94464, Note_on_c, 0, 65, 69
2, 94560, Note_off_c, 0, 74, 0
2, 94560, Note_off_c, 0, 65, 0
2, 94560, Note_on_c, 0, 72, 69
2, 94560, Note_on_c, 0, 64, 69
2, 94656, Note_off_c, 0, 72, 0
2, 94656, Note_off_c, 0, 64, 0
2, 94656, Note_on_c, 0, 71, 69
2, 94656, Note_on_c, 0, 62, 69
2, 94752, Note_off_c, 0, 71, 0
2, 94752, Note_off_c, 0, 62, 0
2, 94752, Note_on_c, 0, 69, 69
2, 94752, Note_on_c, 0, 60, 69
2, 94848, Note_off_c, 0, 69, 0
2, 94848, Note_off_c, 0, 60, 0
2, 94848, Note_on_c, 0, 69, 69
2, 94848, Note_on_c, 0, 60, 69
2, 95040, Note_off_c, 0, 69, 0
2, 95040, Note_off_c, 0, 60, 0
2, 95040, Note_on_c, 0, 72, 69
2, 95040, Note_on_c, 0, 67, 69
2, 95232, Note_off_c, 0, 72, 0
2, 95232, Note_off_c, 0, 67, 0
2, 95232, Note_on_c, 0, 76, 69
2, 95232, Note_on_c, 0, 72, 69
2, 95424, Note_off_c, 0, 76, 0
2, 95424, Note_off_c, 0, 72, 0
2, 95424, Note_on_c, 0, 79, 69
2, 95424, Note_on_c, 0, 76, 69
2, 95616, Note_off_c, 0, 79, 0
2, 95616, Note_off_c, 0, 76, 0
2, 95616, Note_on_c, 0, 81, 69
2, 95616, Note_on_c, 0, 77, 69
2, 95712, Note_off_c, 0, 81, 0
2, 95712, Note_off_c, 0, 77, 0
2, 95712, Note_on_c, 0, 79, 69
2, 95712, Note_on_c, 0, 76, 69
2, 95808, Note_off_c, 0, 79, 0
2, 95808, Note_off_c, 0, 76, 0
2, 95808, Note_on_c, 0, 77, 69
2, 95808, Note_on_c, 0, 74, 69
2, 95904, Note_off_c, 0, 77, 0
2, 95904, Note_off_c, 0, 74, 0
2, 95904, Note_on_c, 0, 76, 69
2, 95904, Note_on_c, 0, 72, 69
2, 96000, Note_off_c, 0, 76, 0
2, 96000, Note_off_c, 0, 72, 0
2, 96000, Note_on_c, 0, 84, 69
2, 96096, Note_off_c, 0, 84, 0
2, 96096, Note_on_c, 0, 83, 69
2, 96192, Note_off_c, 0, 83, 0
2, 96192, Note_on_c, 0, 81, 69
2, 96288, Note_off_c, 0, 81, 0
2, 96288, Note_on_c, 0, 79, 69
2, 96384, Note_off_c, 0, 79, 0
2, 96384, Note_on_c, 0, 89, 69
2, 96480, Note_off_c, 0, 89, 0
2, 96480, Note_on_c, 0, 88, 69
2, 96576, Note_off_c, 0, 88, 0
2, 96576, Note_on_c, 0, 86, 69
2, 96672, Note_off_c, 0, 86, 0
2, 96672, Note_on_c, 0, 84, 69
2, 96768, Note_off_c, 0, 84, 0
2, 96768, Note_on_c, 0, 88, 69
2, 96864, Note_off_c, 0, 88, 0
2, 96864, Note_on_c, 0, 89, 69
2, 96960, Note_off_c, 0, 89, 0
2, 96960, Note_on_c, 0, 90, 69
2, 97056, Note_off_c, 0, 90, 0
2, 97056, Note_on_c, 0, 91, 69
2, 97152, Note_off_c, 0, 91, 0
2, 97152, Note_on_c, 0, 84, 69
2, 97344, Note_off_c, 0, 84, 0
2, 97344, Note_on_c, 0, 86, 69
2, 97536, Note_off_c, 0, 86, 0
2, 97536, Note_on_c, 0, 100, 69
2, 97536, Note_on_c, 0, 88, 69
2, 97792, Note_off_c, 0, 88, 64
2, 97920, Note_off_c, 0, 100, 0
2, 97920, Note_on_c, 0, 76, 69
2, 97920, Note_on_c, 0, 72, 69
2, 98112, Note_off_c, 0, 76, 0
2, 98112, Note_off_c, 0, 72, 0
2, 98112, Note_on_c, 0, 76, 69
2, 98112, Note_on_c, 0, 71, 69
2, 98304, Note_off_c, 0, 76, 0
2, 98304, Note_off_c, 0, 71, 0
2, 98304, Note_on_c, 0, 76, 69
2, 98304, Note_on_c, 0, 69, 69
2, 98400, Note_off_c, 0, 76, 0
2, 98400, Note_off_c, 0, 69, 0
2, 98400, Note_on_c, 0, 84, 69
2, 98496, Note_off_c, 0, 84, 0
2, 98496, Note_on_c, 0, 78, 69
2, 98496, Note_on_c, 0, 66, 69
2, 98592, Note_off_c, 0, 78, 0
2, 98592, Note_off_c, 0, 66, 0
2, 98592, Note_on_c, 0, 76, 69
2, 98592, Note_on_c, 0, 66, 69
2, 98688, Note_off_c, 0, 76, 0
2, 98688, Note_off_c, 0, 66, 0
2, 98688, Note_on_c, 0, 74, 69
2, 98688, Note_on_c, 0, 71, 69
2, 98768, Note_on_c, 0, 83, 69
2, 98784, Note_off_c, 0, 74, 0
2, 98784, Note_off_c, 0, 71, 0
2, 98864, Note_off_c, 0, 83, 0
2, 98880, Note_on_c, 0, 85, 69
2, 98976, Note_off_c, 0, 85, 0
2, 98976, Note_on_c, 0, 83, 69
2, 99072, Note_off_c, 0, 83, 0
2, 99072, Note_on_c, 0, 81, 69
2, 99072, Note_on_c, 0, 72, 69
2, 99168, Note_off_c, 0, 81, 0
2, 99168, Note_off_c, 0, 72, 0
2, 99168, Note_on_c, 0, 90, 69
2, 99264, Note_off_c, 0, 90, 0
2, 99264, Note_on_c, 0, 86, 69
2, 99344, Note_on_c, 0, 81, 69
2, 99360, Note_off_c, 0, 86, 0
2, 99440, Note_off_c, 0, 81, 0
2, 99456, Note_on_c, 0, 80, 69
2, 99456, Note_on_c, 0, 71, 69
2, 99552, Note_off_c, 0, 80, 0
2, 99552, Note_off_c, 0, 71, 0
2, 99552, Note_on_c, 0, 88, 69
2, 99648, Note_off_c, 0, 88, 0
2, 99648, Note_on_c, 0, 89, 69
2, 99744, Note_off_c, 0, 89, 0
2, 99744, Note_on_c, 0, 88, 69
2, 99840, Note_off_c, 0, 88, 0
2, 99840, Note_on_c, 0, 86, 69
2, 99936, Note_off_c, 0, 86, 0
2, 99936, Note_on_c, 0, 95, 69
2, 100032, Note_off_c, 0, 95, 0
2, 100032, Note_on_c, 0, 94, 69
2, 100128, Note_off_c, 0, 94, 0
2, 100128, Note_on_c, 0, 86, 69
2, 100224, Note_off_c, 0, 86, 0
2, 100224, Note_on_c, 0, 84, 69
2, 100320, Note_off_c, 0, 84, 0
2, 100320, Note_on_c, 0, 93, 69
2, 100416, Note_off_c, 0, 93, 0
2, 100416, Note_on_c, 0, 92, 69
2, 100512, Note_off_c, 0, 92, 0
2, 100512, Note_on_c, 0, 83, 69
2, 100608, Note_off_c, 0, 83, 0
2, 100608, Note_on_c, 0, 82, 69
2, 100704, Note_off_c, 0, 82, 0
2, 100704, Note_on_c, 0, 91, 69
2, 100800, Note_off_c, 0, 91, 0
2, 100800, Note_on_c, 0, 90, 69
2, 100896, Note_off_c, 0, 90, 0
2, 100896, Note_on_c, 0, 81, 69
2, 100992, Note_off_c, 0, 81, 0
2, 100992, Note_on_c, 0, 80, 69
2, 100992, Note_on_c, 0, 71, 69
2, 101088, Note_off_c, 0, 80, 0
2, 101088, Note_off_c, 0, 71, 0
2, 101088, Note_on_c, 0, 81, 69
2, 101184, Note_off_c, 0, 81, 0
2, 101184, Note_on_c, 0, 87, 69
2, 101248, Note_off_c, 0, 87, 0
2, 101248, Note_on_c, 0, 78, 69
2, 101312, Note_off_c, 0, 78, 0
2, 101312, Note_on_c, 0, 87, 69
2, 101376, Note_off_c, 0, 87, 0
2, 101376, Note_on_c, 0, 84, 69
2, 101440, Note_off_c, 0, 84, 0
2, 101440, Note_on_c, 0, 75, 69
2, 101504, Note_off_c, 0, 75, 0
2, 101504, Note_on_c, 0, 84, 69
2, 101568, Note_off_c, 0, 84, 0
2, 101568, Note_on_c, 0, 81, 69
2, 101632, Note_off_c, 0, 81, 0
2, 101632, Note_on_c, 0, 72, 69
2, 101696, Note_off_c, 0, 72, 0
2, 101696, Note_on_c, 0, 81, 69
2, 101760, Note_off_c, 0, 81, 0
2, 101760, Note_on_c, 0, 78, 69
2, 101824, Note_off_c, 0, 78, 0
2, 101824, Note_on_c, 0, 69, 69
2, 101888, Note_off_c, 0, 69, 0
2, 101888, Note_on_c, 0, 78, 69
2, 101952, Note_off_c, 0, 78, 0
2, 101952, Note_on_c, 0, 75, 69
2, 102016, Note_off_c, 0, 75, 0
2, 102016, Note_on_c, 0, 66, 69
2, 102080, Note_off_c, 0, 66, 0
2, 102080, Note_on_c, 0, 75, 69
2, 102144, Note_off_c, 0, 75, 0
2, 102144, Note_on_c, 0, 72, 69
2, 102208, Note_off_c, 0, 72, 0
2, 102208, Note_on_c, 0, 63, 69
2, 102272, Note_off_c, 0, 63, 0
2, 102272, Note_on_c, 0, 72, 69
2, 102336, Note_off_c, 0, 72, 0
2, 102336, Note_on_c, 0, 69, 69
2, 102400, Note_off_c, 0, 69, 0
2, 102400, Note_on_c, 0, 60, 69
2, 102464, Note_off_c, 0, 60, 0
2, 102464, Note_on_c, 0, 69, 69
2, 102528, Note_off_c, 0, 69, 0
2, 102528, Note_on_c, 0, 66, 69
2, 102624, Note_off_c, 0, 66, 0
2, 102624, Note_on_c, 0, 57, 69
2, 102720, Note_off_c, 0, 57, 0
2, 102720, Note_on_c, 0, 60, 69
2, 102816, Note_off_c, 0, 60, 0
2, 102816, Note_on_c, 0, 63, 69
2, 102912, Note_off_c, 0, 63, 0
2, 102912, Note_on_c, 0, 66, 69
2, 103008, Note_off_c, 0, 66, 0
2, 103008, Note_on_c, 0, 69, 69
2, 103104, Note_off_c, 0, 69, 0
2, 103104, Note_on_c, 0, 72, 69
2, 103200, Note_off_c, 0, 72, 0
2, 103200, Note_on_c, 0, 75, 69
2, 103292, Note_off_c, 0, 75, 0
2, 103296, Note_on_c, 0, 78, 69
2, 103388, Note_off_c, 0, 78, 0
2, 103392, Note_on_c, 0, 81, 69
2, 103484, Note_off_c, 0, 81, 0
2, 103488, Note_on_c, 0, 84, 69
2, 103580, Note_off_c, 0, 84, 0
2, 103584, Note_on_c, 0, 81, 69
2, 103676, Note_off_c, 0, 81, 0
2, 103680, Note_on_c, 0, 84, 69
2, 103680, Note_on_c, 0, 72, 69
2, 104052, Note_off_c, 0, 84, 0
2, 104052, Note_off_c, 0, 72, 0
2, 104064, Note_on_c, 0, 66, 69
2, 104156, Note_off_c, 0, 66, 0
2, 104160, Note_on_c, 0, 69, 69
2, 104252, Note_off_c, 0, 69, 0
2, 104256, Note_on_c, 0, 73, 69
2, 104348, Note_off_c, 0, 73, 0
2, 104352, Note_on_c, 0, 76, 69
2, 104444, Note_off_c, 0, 76, 0
2, 104448, Note_on_c, 0, 74, 69
2, 104472, Note_off_c, 0, 74, 0
2, 104472, Note_on_c, 0, 76, 69
2, 104496, Note_off_c, 0, 76, 0
2, 104496, Note_on_c, 0, 74, 69
2, 104520, Note_off_c, 0, 74, 0
2, 104520, Note_on_c, 0, 76, 69
2, 104544, Note_off_c, 0, 76, 0
2, 104544, Note_on_c, 0, 74, 69
2, 104568, Note_off_c, 0, 74, 0
2, 104568, Note_on_c, 0, 76, 69
2, 104592, Note_off_c, 0, 76, 0
2, 104592, Note_on_c, 0, 74, 69
2, 104616, Note_off_c, 0, 74, 0
2, 104616, Note_on_c, 0, 76, 69
2, 104640, Note_off_c, 0, 76, 0
2, 104640, Note_on_c, 0, 74, 69
2, 104664, Note_off_c, 0, 74, 0
2, 104664, Note_on_c, 0, 76, 69
2, 104688, Note_off_c, 0, 76, 0
2, 104688, Note_on_c, 0, 74, 69
2, 104712, Note_off_c, 0, 74, 0
2, 104712, Note_on_c, 0, 76, 69
2, 104736, Note_off_c, 0, 76, 0
2, 104736, Note_on_c, 0, 74, 69
2, 104760, Note_off_c, 0, 74, 0
2, 104760, Note_on_c, 0, 76, 69
2, 104784, Note_off_c, 0, 76, 0
2, 104784, Note_on_c, 0, 74, 69
2, 104808, Note_off_c, 0, 74, 0
2, 104808, Note_on_c, 0, 76, 69
2, 104832, Note_on_c, 0, 74, 69
2, 104836, Note_off_c, 0, 76, 0
2, 104856, Note_off_c, 0, 74, 0
2, 104856, Note_on_c, 0, 76, 69
2, 104880, Note_off_c, 0, 76, 0
2, 104880, Note_on_c, 0, 74, 69
2, 104904, Note_off_c, 0, 74, 0
2, 104904, Note_on_c, 0, 76, 69
2, 104928, Note_off_c, 0, 76, 0
2, 104928, Note_on_c, 0, 74, 69
2, 104952, Note_off_c, 0, 74, 0
2, 104952, Note_on_c, 0, 76, 69
2, 104976, Note_off_c, 0, 76, 0
2, 104976, Note_on_c, 0, 74, 69
2, 105000, Note_off_c, 0, 74, 0
2, 105000, Note_on_c, 0, 76, 69
2, 105024, Note_off_c, 0, 76, 0
2, 105024, Note_on_c, 0, 73, 69
2, 105072, Note_off_c, 0, 73, 0
2, 105072, Note_on_c, 0, 74, 69
2, 105120, Note_off_c, 0, 74, 0
2, 105120, Note_on_c, 0, 73, 53
2, 105120, Note_on_c, 0, 64, 53
2, 105216, Note_on_c, 0, 64, 53
2, 105308, Note_off_c, 0, 73, 0
2, 105308, Note_off_c, 0, 64, 0
2, 105308, Note_off_c, 0, 64, 0
2, 105312, Note_on_c, 0, 68, 69
2, 105312, Note_on_c, 0, 64, 53
2, 105404, Note_off_c, 0, 64, 0
2, 105408, Note_off_c, 0, 68, 0
2, 105408, Note_on_c, 0, 69, 69
2, 105408, Note_on_c, 0, 66, 53
2, 105500, Note_off_c, 0, 66, 0
2, 105504, Note_off_c, 0, 69, 0
2, 105504, Note_on_c, 0, 68, 69
2, 105504, Note_on_c, 0, 64, 53
2, 105596, Note_off_c, 0, 64, 0
2, 105600, Note_off_c, 0, 68, 0
2, 105600, Note_on_c, 0, 69, 69
2, 105600, Note_on_c, 0, 64, 69
2, 105696, Note_off_c, 0, 69, 0
2, 105696, Note_on_c, 0, 71, 69
2, 105696, Note_on_c, 0, 68, 53
2, 105788, Note_off_c, 0, 68, 0
2, 105792, Note_off_c, 0, 71, 0
2, 105792, Note_on_c, 0, 73, 69
2, 105792, Note_on_c, 0, 69, 53
2, 105884, Note_off_c, 0, 69, 0
2, 105888, Note_off_c, 0, 73, 0
2, 105888, Note_on_c, 0, 74, 69
2, 105888, Note_on_c, 0, 71, 53
2, 105980, Note_off_c, 0, 71, 0
2, 105984, Note_off_c, 0, 64, 0
2, 105984, Note_off_c, 0, 74, 0
2, 105984, Note_on_c, 0, 73, 69
2, 105984, Note_on_c, 0, 64, 69
2, 106176, Note_off_c, 0, 73, 0
2, 106176, Note_on_c, 0, 71, 69
2, 106368, Note_off_c, 0, 64, 0
2, 106368, Note_off_c, 0, 71, 0
2, 106368, Note_on_c, 0, 64, 69
2, 106464, Note_off_c, 0, 64, 0
2, 106464, Note_on_c, 0, 70, 69
2, 106464, Note_on_c, 0, 67, 69
2, 106560, Note_off_c, 0, 70, 0
2, 106560, Note_off_c, 0, 67, 0
2, 106560, Note_on_c, 0, 71, 69
2, 106560, Note_on_c, 0, 68, 69
2, 106656, Note_off_c, 0, 71, 0
2, 106656, Note_off_c, 0, 68, 0
2, 106656, Note_on_c, 0, 70, 69
2, 106656, Note_on_c, 0, 67, 69
2, 106752, Note_off_c, 0, 70, 0
2, 106752, Note_off_c, 0, 67, 0
2, 106752, Note_on_c, 0, 71, 69
2, 106752, Note_on_c, 0, 68, 69
2, 106848, Note_off_c, 0, 71, 0
2, 106848, Note_off_c, 0, 68, 0
2, 106848, Note_on_c, 0, 73, 69
2, 106848, Note_on_c, 0, 70, 69
2, 106944, Note_off_c, 0, 73, 0
2, 106944, Note_off_c, 0, 70, 0
2, 106944, Note_on_c, 0, 74, 69
2, 106944, Note_on_c, 0, 71, 69
2, 107040, Note_off_c, 0, 74, 0
2, 107040, Note_off_c, 0, 71, 0
2, 107040, Note_on_c, 0, 76, 69
2, 107040, Note_on_c, 0, 73, 69
2, 107136, Note_off_c, 0, 76, 0
2, 107136, Note_off_c, 0, 73, 0
2, 107136, Note_on_c, 0, 74, 69
2, 107136, Note_on_c, 0, 71, 69
2, 107328, Note_off_c, 0, 74, 0
2, 107328, Note_off_c, 0, 71, 0
2, 107328, Note_on_c, 0, 73, 69
2, 107328, Note_on_c, 0, 69, 69
2, 107520, Note_off_c, 0, 73, 0
2, 107520, Note_off_c, 0, 69, 0
2, 107520, Note_on_c, 0, 73, 69
2, 107520, Note_on_c, 0, 69, 69
2, 107616, Note_off_c, 0, 73, 0
2, 107616, Note_off_c, 0, 69, 0
2, 107616, Note_on_c, 0, 64, 69
2, 107712, Note_off_c, 0, 64, 0
2, 107712, Note_on_c, 0, 69, 69
2, 107808, Note_off_c, 0, 69, 0
2, 107808, Note_on_c, 0, 73, 69
2, 107904, Note_off_c, 0, 73, 0
2, 107904, Note_on_c, 0, 76, 69
2, 108000, Note_off_c, 0, 76, 0
2, 108000, Note_on_c, 0, 81, 69
2, 108096, Note_off_c, 0, 81, 0
2, 108096, Note_on_c, 0, 85, 69
2, 108192, Note_off_c, 0, 85, 0
2, 108192, Note_on_c, 0, 86, 69
2, 108288, Note_off_c, 0, 86, 0
2, 108288, Note_on_c, 0, 88, 69
2, 108384, Note_off_c, 0, 88, 0
2, 108384, Note_on_c, 0, 86, 69
2, 108480, Note_off_c, 0, 86, 0
2, 108480, Note_on_c, 0, 86, 69
2, 108480, Note_on_c, 0, 83, 69
2, 108576, Note_off_c, 0, 86, 0
2, 108576, Note_off_c, 0, 83, 0
2, 108576, Note_on_c, 0, 85, 69
2, 108576, Note_on_c, 0, 81, 69
2, 108672, Note_off_c, 0, 85, 0
2, 108672, Note_off_c, 0, 81, 0
2, 108672, Note_on_c, 0, 85, 69
2, 108672, Note_on_c, 0, 81, 69
2, 108768, Note_off_c, 0, 85, 0
2, 108768, Note_off_c, 0, 81, 0
2, 108768, Note_on_c, 0, 83, 69
2, 108768, Note_on_c, 0, 80, 69
2, 108864, Note_off_c, 0, 83, 0
2, 108864, Note_off_c, 0, 80, 0
2, 108864, Note_on_c, 0, 83, 69
2, 108864, Note_on_c, 0, 80, 69
2, 108960, Note_off_c, 0, 83, 0
2, 108960, Note_off_c, 0, 80, 0
2, 108960, Note_on_c, 0, 81, 69
2, 108960, Note_on_c, 0, 78, 69
2, 109056, Note_off_c, 0, 81, 0
2, 109056, Note_off_c, 0, 78, 0
2, 109056, Note_on_c, 0, 80, 69
2, 109056, Note_on_c, 0, 76, 69
2, 109152, Note_off_c, 0, 80, 0
2, 109152, Note_off_c, 0, 76, 0
2, 109152, Note_on_c, 0, 78, 69
2, 109152, Note_on_c, 0, 74, 69
2, 109248, Note_off_c, 0, 78, 0
2, 109248, Note_off_c, 0, 74, 0
2, 109248, Note_on_c, 0, 76, 69
2, 109248, Note_on_c, 0, 73, 69
2, 109344, Note_off_c, 0, 76, 0
2, 109344, Note_off_c, 0, 73, 0
2, 109344, Note_on_c, 0, 78, 69
2, 109344, Note_on_c, 0, 81, 69
2, 109440, Note_off_c, 0, 78, 0
2, 109440, Note_off_c, 0, 81, 0
2, 109440, Note_on_c, 0, 81, 69
2, 109440, Note_on_c, 0, 78, 69
2, 109536, Note_off_c, 0, 81, 0
2, 109536, Note_off_c, 0, 78, 0
2, 109536, Note_on_c, 0, 80, 69
2, 109536, Note_on_c, 0, 76, 69
2, 109632, Note_off_c, 0, 80, 0
2, 109632, Note_off_c, 0, 76, 0
2, 109632, Note_on_c, 0, 80, 69
2, 109632, Note_on_c, 0, 76, 69
2, 109728, Note_off_c, 0, 80, 0
2, 109728, Note_off_c, 0, 76, 0
2, 109728, Note_on_c, 0, 78, 69
2, 109728, Note_on_c, 0, 74, 69
2, 109824, Note_off_c, 0, 78, 0
2, 109824, Note_off_c, 0, 74, 0
2, 109824, Note_on_c, 0, 78, 69
2, 109824, Note_on_c, 0, 74, 69
2, 109920, Note_off_c, 0, 78, 0
2, 109920, Note_off_c, 0, 74, 0
2, 109920, Note_on_c, 0, 76, 69
2, 109920, Note_on_c, 0, 73, 69
2, 110016, Note_off_c, 0, 76, 0
2, 110016, Note_off_c, 0, 73, 0
2, 110016, Note_on_c, 0, 76, 69
2, 110016, Note_on_c, 0, 73, 69
2, 110112, Note_off_c, 0, 76, 0
2, 110112, Note_off_c, 0, 73, 0
2, 110112, Note_on_c, 0, 74, 69
2, 110112, Note_on_c, 0, 71, 69
2, 110208, Note_off_c, 0, 74, 0
2, 110208, Note_off_c, 0, 71, 0
2, 110208, Note_on_c, 0, 74, 69
2, 110208, Note_on_c, 0, 71, 69
2, 110304, Note_off_c, 0, 74, 0
2, 110304, Note_off_c, 0, 71, 0
2, 110304, Note_on_c, 0, 73, 69
2, 110304, Note_on_c, 0, 69, 69
2, 110400, Note_off_c, 0, 73, 0
2, 110400, Note_off_c, 0, 69, 0
2, 110400, Note_on_c, 0, 73, 69
2, 110400, Note_on_c, 0, 69, 69
2, 110496, Note_off_c, 0, 73, 0
2, 110496, Note_off_c, 0, 69, 0
2, 110496, Note_on_c, 0, 74, 69
2, 110496, Note_on_c, 0, 71, 69
2, 110592, Note_off_c, 0, 74, 0
2, 110592, Note_off_c, 0, 71, 0
2, 110592, Note_on_c, 0, 76, 69
2, 110592, Note_on_c, 0, 73, 69
2, 110688, Note_off_c, 0, 76, 0
2, 110688, Note_on_c, 0, 77, 69
2, 110784, Note_off_c, 0, 73, 0
2, 110784, Note_off_c, 0, 77, 0
2, 110784, Note_on_c, 0, 78, 69
2, 110880, Note_off_c, 0, 78, 0
2, 110880, Note_on_c, 0, 69, 69
2, 110976, Note_off_c, 0, 69, 0
2, 110976, Note_on_c, 0, 69, 69
2, 110976, Note_on_c, 0, 64, 69
2, 111360, Note_off_c, 0, 69, 0
2, 111360, Note_off_c, 0, 64, 0
2, 111360, Note_on_c, 0, 64, 69
2, 111360, Note_on_c, 0, 71, 69
2, 111380, Note_off_c, 0, 71, 0
2, 111384, Note_on_c, 0, 73, 69
2, 111404, Note_off_c, 0, 73, 0
2, 111408, Note_on_c, 0, 71, 69
2, 111428, Note_off_c, 0, 71, 0
2, 111432, Note_on_c, 0, 73, 69
2, 111452, Note_off_c, 0, 73, 0
2, 111456, Note_on_c, 0, 71, 69
2, 111476, Note_off_c, 0, 71, 0
2, 111480, Note_on_c, 0, 73, 69
2, 111500, Note_off_c, 0, 73, 0
2, 111504, Note_on_c, 0, 71, 69
2, 111524, Note_off_c, 0, 71, 0
2, 111528, Note_on_c, 0, 73, 69
2, 111548, Note_off_c, 0, 73, 0
2, 111552, Note_on_c, 0, 71, 69
2, 111572, Note_off_c, 0, 71, 0
2, 111576, Note_on_c, 0, 73, 69
2, 111596, Note_off_c, 0, 73, 0
2, 111600, Note_on_c, 0, 71, 69
2, 111620, Note_off_c, 0, 71, 0
2, 111624, Note_on_c, 0, 73, 69
2, 111644, Note_off_c, 0, 73, 0
2, 111648, Note_on_c, 0, 71, 69
2, 111668, Note_off_c, 0, 71, 0
2, 111672, Note_on_c, 0, 73, 69
2, 111692, Note_off_c, 0, 73, 0
2, 111696, Note_on_c, 0, 71, 69
2, 111716, Note_off_c, 0, 71, 0
2, 111720, Note_on_c, 0, 73, 69
2, 111740, Note_off_c, 0, 73, 0
2, 111744, Note_on_c, 0, 71, 69
2, 111764, Note_off_c, 0, 71, 0
2, 111768, Note_on_c, 0, 73, 69
2, 111788, Note_off_c, 0, 73, 0
2, 111792, Note_on_c, 0, 71, 69
2, 111812, Note_off_c, 0, 71, 0
2, 111816, Note_on_c, 0, 73, 69
2, 111836, Note_off_c, 0, 73, 0
2, 111840, Note_on_c, 0, 71, 69
2, 111860, Note_off_c, 0, 71, 0
2, 111864, Note_on_c, 0, 73, 69
2, 111884, Note_off_c, 0, 73, 0
2, 111888, Note_on_c, 0, 71, 69
2, 111908, Note_off_c, 0, 71, 0
2, 111912, Note_on_c, 0, 73, 69
2, 111932, Note_off_c, 0, 73, 0
2, 111936, Note_on_c, 0, 71, 69
2, 111956, Note_off_c, 0, 71, 0
2, 111960, Note_on_c, 0, 73, 69
2, 111980, Note_off_c, 0, 73, 0
2, 111984, Note_on_c, 0, 71, 69
2, 112004, Note_off_c, 0, 71, 0
2, 112008, Note_on_c, 0, 73, 69
2, 112028, Note_off_c, 0, 73, 0
2, 112032, Note_on_c, 0, 71, 69
2, 112052, Note_off_c, 0, 71, 0
2, 112056, Note_on_c, 0, 73, 69
2, 112076, Note_off_c, 0, 73, 0
2, 112080, Note_on_c, 0, 71, 69
2, 112100, Note_off_c, 0, 71, 0
2, 112104, Note_on_c, 0, 73, 69
2, 112124, Note_off_c, 0, 73, 0
2, 112128, Note_on_c, 0, 71, 69
2, 112148, Note_off_c, 0, 71, 0
2, 112152, Note_on_c, 0, 73, 69
2, 112172, Note_off_c, 0, 73, 0
2, 112176, Note_on_c, 0, 71, 69
2, 112196, Note_off_c, 0, 71, 0
2, 112200, Note_on_c, 0, 73, 69
2, 112220, Note_off_c, 0, 73, 0
2, 112224, Note_on_c, 0, 69, 69
2, 112268, Note_off_c, 0, 69, 0
2, 112272, Note_on_c, 0, 71, 69
2, 112316, Note_off_c, 0, 71, 0
2, 112320, Note_off_c, 0, 64, 0
2, 112320, Note_on_c, 0, 71, 78
2, 112320, Note_on_c, 0, 68, 78
2, 112412, Note_off_c, 0, 71, 0
2, 112412, Note_off_c, 0, 68, 0
2, 112416, Note_on_c, 0, 76, 78
2, 112416, Note_on_c, 0, 71, 78
2, 112508, Note_off_c, 0, 76, 0
2, 112508, Note_off_c, 0, 71, 0
2, 112512, Note_on_c, 0, 80, 78
2, 112512, Note_on_c, 0, 71, 78
2, 112604, Note_off_c, 0, 80, 0
2, 112604, Note_off_c, 0, 71, 0
2, 112608, Note_on_c, 0, 81, 78
2, 112608, Note_on_c, 0, 72, 78
2, 112700, Note_off_c, 0, 81, 0
2, 112700, Note_off_c, 0, 72, 0
2, 112704, Note_on_c, 0, 82, 78
2, 112704, Note_on_c, 0, 73, 78
2, 112796, Note_off_c, 0, 82, 0
2, 112796, Note_off_c, 0, 73, 0
2, 112800, Note_on_c, 0, 83, 78
2, 112800, Note_on_c, 0, 74, 78
2, 112892, Note_off_c, 0, 83, 0
2, 112892, Note_off_c, 0, 74, 0
2, 112896, Note_on_c, 0, 74, 69
2, 112896, Note_on_c, 0, 83, 69
2, 112916, Note_off_c, 0, 83, 0
2, 112920, Note_on_c, 0, 85, 69
2, 112940, Note_off_c, 0, 85, 0
2, 112944, Note_on_c, 0, 83, 69
2, 112964, Note_off_c, 0, 83, 0
2, 112968, Note_on_c, 0, 85, 69
2, 112988, Note_off_c, 0, 85, 0
2, 112992, Note_on_c, 0, 83, 69
2, 113012, Note_off_c, 0, 83, 0
2, 113016, Note_on_c, 0, 85, 69
2, 113036, Note_off_c, 0, 85, 0
2, 113040, Note_on_c, 0, 83, 69
2, 113060, Note_off_c, 0, 83, 0
2, 113064, Note_on_c, 0, 85, 69
2, 113084, Note_off_c, 0, 85, 0
2, 113088, Note_on_c, 0, 83, 69
2, 113108, Note_off_c, 0, 83, 0
2, 113112, Note_on_c, 0, 85, 69
2, 113132, Note_off_c, 0, 85, 0
2, 113136, Note_on_c, 0, 83, 69
2, 113156, Note_off_c, 0, 83, 0
2, 113160, Note_on_c, 0, 85, 69
2, 113180, Note_off_c, 0, 85, 0
2, 113184, Note_on_c, 0, 83, 69
2, 113204, Note_off_c, 0, 83, 0
2, 113208, Note_on_c, 0, 85, 69
2, 113228, Note_off_c, 0, 85, 0
2, 113232, Note_on_c, 0, 85, 69
2, 113252, Note_off_c, 0, 85, 0
2, 113256, Note_on_c, 0, 83, 69
2, 113276, Note_off_c, 0, 83, 0
2, 113280, Note_on_c, 0, 83, 69
2, 113300, Note_off_c, 0, 83, 0
2, 113304, Note_on_c, 0, 85, 69
2, 113324, Note_off_c, 0, 85, 0
2, 113328, Note_on_c, 0, 83, 69
2, 113348, Note_off_c, 0, 83, 0
2, 113352, Note_on_c, 0, 85, 69
2, 113372, Note_off_c, 0, 85, 0
2, 113376, Note_on_c, 0, 83, 69
2, 113396, Note_off_c, 0, 83, 0
2, 113400, Note_on_c, 0, 85, 69
2, 113420, Note_off_c, 0, 85, 0
2, 113424, Note_on_c, 0, 83, 69
2, 113444, Note_off_c, 0, 83, 0
2, 113448, Note_on_c, 0, 85, 69
2, 113468, Note_off_c, 0, 85, 0
2, 113472, Note_on_c, 0, 83, 70
2, 113492, Note_off_c, 0, 83, 0
2, 113496, Note_on_c, 0, 85, 70
2, 113516, Note_off_c, 0, 85, 0
2, 113520, Note_on_c, 0, 83, 71
2, 113540, Note_off_c, 0, 83, 0
2, 113544, Note_on_c, 0, 85, 72
2, 113564, Note_off_c, 0, 85, 0
2, 113568, Note_on_c, 0, 83, 73
2, 113588, Note_off_c, 0, 83, 0
2, 113592, Note_on_c, 0, 85, 73
2, 113612, Note_off_c, 0, 85, 0
2, 113616, Note_on_c, 0, 83, 74
2, 113636, Note_off_c, 0, 83, 0
2, 113640, Note_on_c, 0, 85, 75
2, 113660, Note_off_c, 0, 85, 0
2, 113664, Note_on_c, 0, 83, 76
2, 113684, Note_off_c, 0, 83, 0
2, 113688, Note_on_c, 0, 85, 76
2, 113708, Note_off_c, 0, 85, 0
2, 113712, Note_on_c, 0, 83, 77
2, 113732, Note_off_c, 0, 83, 0
2, 113736, Note_on_c, 0, 85, 78
2, 113756, Note_off_c, 0, 85, 0
2, 113760, Note_on_c, 0, 83, 79
2, 113780, Note_off_c, 0, 83, 0
2, 113784, Note_on_c, 0, 85, 79
2, 113804, Note_off_c, 0, 85, 0
2, 113808, Note_on_c, 0, 83, 80
2, 113828, Note_off_c, 0, 83, 0
2, 113832, Note_on_c, 0, 85, 81
2, 113852, Note_off_c, 0, 85, 0
2, 113856, Note_on_c, 0, 81, 82
2, 113944, Note_off_c, 0, 81, 0
2, 113952, Note_on_c, 0, 83, 86
2, 114040, Note_off_c, 0, 83, 0
2, 114048, Note_off_c, 0, 74, 0
2, 114048, Note_on_c, 0, 81, 89
2, 114048, Note_on_c, 0, 73, 89
2, 114432, Note_off_c, 0, 81, 0
2, 114432, Note_off_c, 0, 73, 0
2, 118656, Note_on_c, 0, 69, 69
2, 119040, Note_off_c, 0, 69, 0
2, 119040, Note_on_c, 0, 69, 69
2, 119424, Note_off_c, 0, 69, 0
2, 119424, Note_on_c, 0, 69, 69
2, 119808, Note_off_c, 0, 69, 0
2, 119808, Note_on_c, 0, 69, 69
2, 120288, Note_off_c, 0, 69, 64
2, 120288, Note_on_c, 0, 71, 70
2, 120384, Note_off_c, 0, 71, 0
2, 120384, Note_on_c, 0, 73, 71
2, 120480, Note_off_c, 0, 73, 0
2, 120480, Note_on_c, 0, 74, 72
2, 120576, Note_off_c, 0, 74, 0
2, 120576, Note_on_c, 0, 76, 73
2, 120672, Note_off_c, 0, 76, 0
2, 120672, Note_on_c, 0, 78, 74
2, 120768, Note_off_c, 0, 78, 0
2, 120768, Note_on_c, 0, 80, 76
2, 120864, Note_off_c, 0, 80, 0
2, 120864, Note_on_c, 0, 81, 78
2, 120960, Note_off_c, 0, 81, 0
2, 120960, Note_on_c, 0, 80, 78
2, 121056, Note_off_c, 0, 80, 0
2, 121056, Note_on_c, 0, 78, 75
2, 121152, Note_off_c, 0, 78, 0
2, 121152, Note_on_c, 0, 76, 72
2, 121248, Note_off_c, 0, 76, 0
2, 121248, Note_on_c, 0, 74, 69
2, 121344, Note_off_c, 0, 74, 0
2, 121344, Note_on_c, 0, 73, 67
2, 121728, Note_off_c, 0, 73, 0
2, 121728, Note_on_c, 0, 71, 67
2, 121752, Note_off_c, 0, 71, 0
2, 121752, Note_on_c, 0, 73, 67
2, 121776, Note_off_c, 0, 73, 0
2, 121776, Note_on_c, 0, 71, 67
2, 121800, Note_off_c, 0, 71, 0
2, 121800, Note_on_c, 0, 73, 67
2, 121824, Note_off_c, 0, 73, 0
2, 121824, Note_on_c, 0, 71, 67
2, 121848, Note_off_c, 0, 71, 0
2, 121848, Note_on_c, 0, 73, 67
2, 121872, Note_off_c, 0, 73, 0
2, 121872, Note_on_c, 0, 71, 67
2, 121896, Note_off_c, 0, 71, 0
2, 121896, Note_on_c, 0, 73, 67
2, 121920, Note_off_c, 0, 73, 0
2, 121920, Note_on_c, 0, 71, 67
2, 121944, Note_off_c, 0, 71, 0
2, 121944, Note_on_c, 0, 73, 67
2, 121968, Note_off_c, 0, 73, 0
2, 121968, Note_on_c, 0, 71, 67
2, 121992, Note_off_c, 0, 71, 0
2, 121992, Note_on_c, 0, 73, 67
2, 122016, Note_off_c, 0, 73, 0
2, 122016, Note_on_c, 0, 69, 67
2, 122064, Note_off_c, 0, 69, 0
2, 122064, Note_on_c, 0, 71, 67
2, 122112, Note_off_c, 0, 71, 0
2, 122112, Note_on_c, 0, 69, 67
2, 122300, Note_off_c, 0, 69, 0
2, 122304, Note_on_c, 0, 57, 67
2, 122492, Note_off_c, 0, 57, 64
2, 122496, Note_on_c, 0, 57, 67
2, 123068, Note_off_c, 0, 57, 64
2, 123072, Note_on_c, 0, 69, 67
2, 123264, Note_off_c, 0, 69, 0
2, 123264, Note_on_c, 0, 69, 67
2, 123704, Note_off_c, 0, 69, 0
2, 123744, Note_on_c, 0, 71, 70
2, 123800, Note_off_c, 0, 71, 0
2, 123840, Note_on_c, 0, 73, 73
2, 123896, Note_off_c, 0, 73, 0
2, 123936, Note_on_c, 0, 74, 76
2, 123992, Note_off_c, 0, 74, 0
2, 124032, Note_on_c, 0, 76, 79
2, 124088, Note_off_c, 0, 76, 0
2, 124128, Note_on_c, 0, 78, 82
2, 124184, Note_off_c, 0, 78, 0
2, 124224, Note_on_c, 0, 80, 85
2, 124280, Note_off_c, 0, 80, 0
2, 124320, Note_on_c, 0, 81, 87
2, 124376, Note_off_c, 0, 81, 0
2, 124416, Note_on_c, 0, 80, 89
2, 124512, Note_off_c, 0, 80, 0
2, 124512, Note_on_c, 0, 78, 84
2, 124592, Note_off_c, 0, 78, 0
2, 124608, Note_on_c, 0, 76, 78
2, 124704, Note_off_c, 0, 76, 0
2, 124704, Note_on_c, 0, 74, 73
2, 124784, Note_off_c, 0, 74, 0
2, 124800, Note_on_c, 0, 73, 69
2, 125184, Note_off_c, 0, 73, 0
2, 125184, Note_on_c, 0, 71, 69
2, 125208, Note_off_c, 0, 71, 0
2, 125208, Note_on_c, 0, 73, 69
2, 125232, Note_off_c, 0, 73, 0
2, 125232, Note_on_c, 0, 71, 69
2, 125256, Note_off_c, 0, 71, 0
2, 125256, Note_on_c, 0, 73, 69
2, 125280, Note_off_c, 0, 73, 0
2, 125280, Note_on_c, 0, 71, 69
2, 125304, Note_off_c, 0, 71, 0
2, 125304, Note_on_c, 0, 73, 69
2, 125328, Note_off_c, 0, 73, 0
2, 125328, Note_on_c, 0, 71, 69
2, 125352, Note_off_c, 0, 71, 0
2, 125352, Note_on_c, 0, 73, 69
2, 125376, Note_off_c, 0, 73, 0
2, 125376, Note_on_c, 0, 71, 69
2, 125400, Note_off_c, 0, 71, 0
2, 125400, Note_on_c, 0, 73, 69
2, 125424, Note_off_c, 0, 73, 0
2, 125424, Note_on_c, 0, 73, 69
2, 125448, Note_off_c, 0, 73, 0
2, 125448, Note_on_c, 0, 71, 69
2, 125472, Note_off_c, 0, 71, 0
2, 125472, Note_on_c, 0, 69, 70
2, 125516, Note_off_c, 0, 69, 0
2, 125520, Note_on_c, 0, 71, 71
2, 125564, Note_off_c, 0, 71, 0
2, 125568, Note_on_c, 0, 69, 73
2, 125952, Note_off_c, 0, 69, 0
2, 125952, End_track
3, 0, Start_track
3, 0, Title_t, " #4 - K218b  Midi by:"
3, 0, Control_c, 1, 0, 0
3, 0, Program_c, 1, 48
3, 0, Control_c, 1, 10, 39
3, 0, Control_c, 1, 91, 72
3, 0, Control_c, 1, 93, 0
3, 0, Key_signature, 3, "major"
3, 0, Control_c, 1, 121, 0
3, 144, Control_c, 1, 10, 53
3, 192, Control_c, 1, 91, 73
3, 288, Program_c, 1, 48
3, 1152, Note_on_c, 1, 69, 66
3, 1152, Note_on_c, 1, 61, 66
3, 1536, Note_off_c, 1, 69, 0
3, 1536, Note_off_c, 1, 61, 0
3, 1536, Note_on_c, 1, 68, 66
3, 1536, Note_on_c, 1, 64, 66
3, 1916, Note_off_c, 1, 68, 0
3, 1916, Note_off_c, 1, 64, 0
3, 1920, Note_on_c, 1, 66, 66
3, 1920, Note_on_c, 1, 62, 66
3, 2292, Note_off_c, 1, 66, 0
3, 2292, Note_off_c, 1, 62, 0
3, 2304, Note_on_c, 1, 63, 78
3, 2304, Note_on_c, 1, 60, 78
3, 2496, Note_off_c, 1, 63, 0
3, 2496, Note_off_c, 1, 60, 0
3, 2496, Note_on_c, 1, 64, 66
3, 2496, Note_on_c, 1, 61, 66
3, 2676, Note_off_c, 1, 64, 0
3, 2676, Note_off_c, 1, 61, 0
3, 2688, Note_on_c, 1, 64, 66
3, 2688, Note_on_c, 1, 61, 66
3, 3452, Note_off_c, 1, 64, 0
3, 3452, Note_off_c, 1, 61, 0
3, 3456, Note_on_c, 1, 66, 66
3, 3456, Note_on_c, 1, 62, 66
3, 3840, Note_off_c, 1, 66, 0
3, 3840, Note_off_c, 1, 62, 0
3, 3840, Note_on_c, 1, 64, 66
3, 3840, Note_on_c, 1, 61, 66
3, 4220, Note_off_c, 1, 64, 0
3, 4220, Note_off_c, 1, 61, 0
3, 4224, Note_on_c, 1, 62, 66
3, 4224, Note_on_c, 1, 59, 66
3, 4596, Note_off_c, 1, 62, 0
3, 4596, Note_off_c, 1, 59, 0
3, 4608, Note_on_c, 1, 60, 78
3, 4608, Note_on_c, 1, 56, 78
3, 4800, Note_off_c, 1, 60, 0
3, 4800, Note_off_c, 1, 56, 0
3, 4800, Note_on_c, 1, 61, 66
3, 4800, Note_on_c, 1, 57, 66
3, 4980, Note_off_c, 1, 61, 0
3, 4980, Note_off_c, 1, 57, 0
3, 4992, Note_on_c, 1, 61, 66
3, 4992, Note_on_c, 1, 57, 66
3, 5756, Note_off_c, 1, 61, 0
3, 5756, Note_off_c, 1, 57, 0
3, 5856, Note_on_c, 1, 68, 66
3, 5952, Note_off_c, 1, 68, 0
3, 5952, Note_on_c, 1, 69, 66
3, 6044, Note_off_c, 1, 69, 0
3, 6048, Note_on_c, 1, 68, 66
3, 6140, Note_off_c, 1, 68, 0
3, 6144, Note_on_c, 1, 69, 66
3, 6236, Note_off_c, 1, 69, 0
3, 6240, Note_on_c, 1, 71, 66
3, 6240, Note_on_c, 1, 68, 66
3, 6332, Note_off_c, 1, 71, 0
3, 6332, Note_off_c, 1, 68, 0
3, 6336, Note_on_c, 1, 73, 66
3, 6336, Note_on_c, 1, 69, 66
3, 6428, Note_off_c, 1, 73, 0
3, 6428, Note_off_c, 1, 69, 0
3, 6432, Note_on_c, 1, 74, 66
3, 6432, Note_on_c, 1, 71, 66
3, 6512, Note_off_c, 1, 74, 0
3, 6512, Note_off_c, 1, 71, 0
3, 6528, Note_on_c, 1, 73, 66
3, 6528, Note_on_c, 1, 69, 66
3, 6720, Note_off_c, 1, 73, 0
3, 6720, Note_off_c, 1, 69, 0
3, 6720, Note_on_c, 1, 71, 66
3, 6720, Note_on_c, 1, 68, 66
3, 6900, Note_off_c, 1, 71, 0
3, 6900, Note_off_c, 1, 68, 0
3, 7008, Note_on_c, 1, 70, 66
3, 7104, Note_off_c, 1, 70, 0
3, 7104, Note_on_c, 1, 71, 66
3, 7196, Note_off_c, 1, 71, 0
3, 7200, Note_on_c, 1, 70, 66
3, 7292, Note_off_c, 1, 70, 0
3, 7296, Note_on_c, 1, 71, 66
3, 7388, Note_off_c, 1, 71, 0
3, 7392, Note_on_c, 1, 73, 66
3, 7392, Note_on_c, 1, 69, 66
3, 7484, Note_off_c, 1, 73, 0
3, 7484, Note_off_c, 1, 69, 0
3, 7488, Note_on_c, 1, 74, 66
3, 7488, Note_on_c, 1, 71, 66
3, 7580, Note_off_c, 1, 74, 0
3, 7580, Note_off_c, 1, 71, 0
3, 7584, Note_on_c, 1, 76, 66
3, 7584, Note_on_c, 1, 73, 66
3, 7664, Note_off_c, 1, 76, 0
3, 7664, Note_off_c, 1, 73, 0
3, 7680, Note_on_c, 1, 74, 66
3, 7680, Note_on_c, 1, 71, 66
3, 7872, Note_off_c, 1, 74, 0
3, 7872, Note_off_c, 1, 71, 0
3, 7872, Note_on_c, 1, 73, 66
3, 7872, Note_on_c, 1, 69, 66
3, 8052, Note_off_c, 1, 73, 0
3, 8052, Note_off_c, 1, 69, 0
3, 8064, Note_on_c, 1, 69, 66
3, 8160, Note_on_c, 1, 73, 66
3, 8252, Note_off_c, 1, 69, 0
3, 8256, Note_off_c, 1, 73, 0
3, 8256, Note_on_c, 1, 74, 66
3, 8256, Note_on_c, 1, 69, 66
3, 8348, Note_off_c, 1, 74, 0
3, 8352, Note_on_c, 1, 75, 66
3, 8444, Note_off_c, 1, 75, 0
3, 8448, Note_on_c, 1, 76, 67
3, 8540, Note_off_c, 1, 76, 0
3, 8544, Note_on_c, 1, 75, 68
3, 8636, Note_off_c, 1, 69, 0
3, 8636, Note_off_c, 1, 75, 0
3, 8640, Note_on_c, 1, 76, 70
3, 8640, Note_on_c, 1, 69, 70
3, 8732, Note_off_c, 1, 76, 0
3, 8736, Note_on_c, 1, 77, 71
3, 8816, Note_off_c, 1, 77, 0
3, 8828, Note_off_c, 1, 69, 0
3, 8832, Note_on_c, 1, 78, 73
3, 8832, Note_on_c, 1, 69, 73
3, 8928, Note_off_c, 1, 78, 0
3, 8928, Note_off_c, 1, 69, 0
3, 8928, Note_on_c, 1, 80, 74
3, 8928, Note_on_c, 1, 76, 74
3, 8928, Note_on_c, 1, 71, 74
3, 9020, Note_off_c, 1, 80, 0
3, 9020, Note_off_c, 1, 76, 0
3, 9020, Note_off_c, 1, 71, 0
3, 9024, Note_on_c, 1, 81, 75
3, 9024, Note_on_c, 1, 76, 75
3, 9024, Note_on_c, 1, 73, 75
3, 9116, Note_off_c, 1, 81, 0
3, 9116, Note_off_c, 1, 76, 0
3, 9116, Note_off_c, 1, 73, 0
3, 9120, Note_on_c, 1, 83, 76
3, 9120, Note_on_c, 1, 80, 76
3, 9120, Note_on_c, 1, 74, 76
3, 9200, Note_off_c, 1, 83, 0
3, 9200, Note_off_c, 1, 80, 0
3, 9200, Note_off_c, 1, 74, 0
3, 9216, Note_on_c, 1, 85, 78
3, 9216, Note_on_c, 1, 81, 78
3, 9216, Note_on_c, 1, 76, 78
3, 9312, Note_off_c, 1, 85, 0
3, 9312, Note_off_c, 1, 81, 0
3, 9312, Note_off_c, 1, 76, 0
3, 9312, Note_on_c, 1, 81, 75
3, 9312, Note_on_c, 1, 73, 75
3, 9392, Note_off_c, 1, 81, 0
3, 9392, Note_off_c, 1, 73, 0
3, 9408, Note_on_c, 1, 78, 72
3, 9408, Note_on_c, 1, 74, 72
3, 9408, Note_on_c, 1, 69, 72
3, 9504, Note_off_c, 1, 78, 0
3, 9504, Note_off_c, 1, 74, 0
3, 9504, Note_off_c, 1, 69, 0
3, 9504, Note_on_c, 1, 74, 69
3, 9504, Note_on_c, 1, 71, 69
3, 9504, Note_on_c, 1, 66, 69
3, 9584, Note_off_c, 1, 74, 0
3, 9584, Note_off_c, 1, 71, 0
3, 9584, Note_off_c, 1, 66, 0
3, 9600, Note_on_c, 1, 73, 66
3, 9600, Note_on_c, 1, 69, 66
3, 9600, Note_on_c, 1, 64, 66
3, 9788, Note_off_c, 1, 73, 0
3, 9788, Note_off_c, 1, 69, 0
3, 9788, Note_off_c, 1, 64, 0
3, 9792, Note_on_c, 1, 76, 66
3, 9792, Note_on_c, 1, 69, 66
3, 9984, Note_off_c, 1, 76, 0
3, 9984, Note_off_c, 1, 69, 0
3, 9984, Note_on_c, 1, 76, 66
3, 9984, Note_on_c, 1, 68, 66
3, 10080, Note_on_c, 1, 75, 66
3, 10160, Note_off_c, 1, 75, 0
3, 10172, Note_off_c, 1, 68, 0
3, 10176, Note_on_c, 1, 74, 66
3, 10176, Note_on_c, 1, 68, 66
3, 10268, Note_off_c, 1, 76, 0
3, 10272, Note_off_c, 1, 74, 0
3, 10272, Note_on_c, 1, 71, 66
3, 10352, Note_off_c, 1, 71, 0
3, 10364, Note_off_c, 1, 68, 0
3, 10368, Note_on_c, 1, 69, 66
3, 10556, Note_off_c, 1, 69, 0
3, 10560, Note_on_c, 1, 71, 76
3, 10580, Note_off_c, 1, 71, 0
3, 10584, Note_on_c, 1, 69, 66
3, 10604, Note_off_c, 1, 69, 0
3, 10608, Note_on_c, 1, 71, 66
3, 10628, Note_off_c, 1, 71, 0
3, 10632, Note_on_c, 1, 69, 66
3, 10652, Note_off_c, 1, 69, 0
3, 10656, Note_on_c, 1, 71, 66
3, 10676, Note_off_c, 1, 71, 0
3, 10680, Note_on_c, 1, 69, 66
3, 10700, Note_off_c, 1, 69, 0
3, 10704, Note_on_c, 1, 68, 66
3, 10748, Note_off_c, 1, 68, 0
3, 10752, Note_on_c, 1, 69, 68
3, 10944, Note_off_c, 1, 69, 0
3, 10944, Note_on_c, 1, 71, 70
3, 11136, Note_off_c, 1, 71, 0
3, 11136, Note_on_c, 1, 73, 72
3, 11328, Note_off_c, 1, 73, 0
3, 11328, Note_on_c, 1, 75, 74
3, 11328, Note_on_c, 1, 69, 74
3, 11328, Note_on_c, 1, 66, 74
3, 11520, Note_off_c, 1, 75, 0
3, 11520, Note_off_c, 1, 69, 0
3, 11520, Note_off_c, 1, 66, 0
3, 11520, Note_on_c, 1, 75, 77
3, 11520, Note_on_c, 1, 69, 77
3, 11520, Note_on_c, 1, 66, 77
3, 11904, Note_off_c, 1, 75, 0
3, 11904, Note_off_c, 1, 69, 0
3, 11904, Note_off_c, 1, 66, 0
3, 11904, Note_on_c, 1, 76, 76
3, 11904, Note_on_c, 1, 68, 76
3, 11904, Note_on_c, 1, 64, 76
3, 12084, Note_off_c, 1, 76, 0
3, 12084, Note_off_c, 1, 68, 0
3, 12084, Note_off_c, 1, 64, 0
3, 12096, Note_on_c, 1, 78, 75
3, 12096, Note_on_c, 1, 68, 75
3, 12288, Note_off_c, 1, 78, 0
3, 12288, Note_off_c, 1, 68, 0
3, 12288, Note_on_c, 1, 76, 72
3, 12288, Note_on_c, 1, 69, 72
3, 12476, Note_off_c, 1, 76, 0
3, 12476, Note_off_c, 1, 69, 0
3, 12480, Note_on_c, 1, 68, 69
3, 12480, Note_on_c, 1, 62, 69
3, 12660, Note_off_c, 1, 68, 0
3, 12660, Note_off_c, 1, 62, 0
3, 12672, Note_on_c, 1, 69, 66
3, 12672, Note_on_c, 1, 61, 66
3, 13056, Note_off_c, 1, 69, 0
3, 13056, Note_off_c, 1, 61, 0
3, 13056, Note_on_c, 1, 68, 66
3, 13056, Note_on_c, 1, 64, 66
3, 13428, Note_off_c, 1, 68, 0
3, 13428, Note_off_c, 1, 64, 0
3, 13440, Note_on_c, 1, 66, 66
3, 13440, Note_on_c, 1, 62, 66
3, 13820, Note_off_c, 1, 66, 0
3, 13820, Note_off_c, 1, 62, 0
3, 13824, Note_on_c, 1, 63, 78
3, 13824, Note_on_c, 1, 60, 78
3, 14016, Note_off_c, 1, 63, 0
3, 14016, Note_off_c, 1, 60, 0
3, 14016, Note_on_c, 1, 64, 66
3, 14016, Note_on_c, 1, 61, 66
3, 14196, Note_off_c, 1, 64, 0
3, 14196, Note_off_c, 1, 61, 0
3, 14208, Note_on_c, 1, 64, 66
3, 14208, Note_on_c, 1, 61, 66
3, 14972, Note_off_c, 1, 64, 0
3, 14972, Note_off_c, 1, 61, 0
3, 14976, Note_on_c, 1, 66, 66
3, 14976, Note_on_c, 1, 62, 66
3, 15360, Note_off_c, 1, 66, 0
3, 15360, Note_off_c, 1, 62, 0
3, 15360, Note_on_c, 1, 64, 66
3, 15360, Note_on_c, 1, 61, 66
3, 15732, Note_off_c, 1, 64, 0
3, 15732, Note_off_c, 1, 61, 0
3, 15744, Note_on_c, 1, 62, 66
3, 15744, Note_on_c, 1, 59, 66
3, 16124, Note_off_c, 1, 62, 0
3, 16124, Note_off_c, 1, 59, 0
3, 16128, Note_on_c, 1, 60, 78
3, 16128, Note_on_c, 1, 56, 78
3, 16320, Note_off_c, 1, 60, 0
3, 16320, Note_off_c, 1, 56, 0
3, 16320, Note_on_c, 1, 61, 66
3, 16320, Note_on_c, 1, 57, 66
3, 16496, Note_on_c, 1, 61, 66
3, 16500, Note_off_c, 1, 61, 0
3, 16500, Note_off_c, 1, 57, 0
3, 16512, Note_on_c, 1, 57, 66
3, 17260, Note_off_c, 1, 61, 0
3, 17276, Note_off_c, 1, 57, 0
3, 17376, Note_on_c, 1, 68, 66
3, 17472, Note_off_c, 1, 68, 0
3, 17472, Note_on_c, 1, 69, 66
3, 17564, Note_off_c, 1, 69, 0
3, 17568, Note_on_c, 1, 68, 66
3, 17660, Note_off_c, 1, 68, 0
3, 17664, Note_on_c, 1, 69, 66
3, 17756, Note_off_c, 1, 69, 0
3, 17760, Note_on_c, 1, 71, 66
3, 17760, Note_on_c, 1, 68, 66
3, 17852, Note_off_c, 1, 71, 0
3, 17852, Note_off_c, 1, 68, 0
3, 17856, Note_on_c, 1, 73, 66
3, 17856, Note_on_c, 1, 69, 66
3, 17948, Note_off_c, 1, 73, 0
3, 17948, Note_off_c, 1, 69, 0
3, 17952, Note_on_c, 1, 74, 66
3, 17952, Note_on_c, 1, 71, 66
3, 18032, Note_off_c, 1, 74, 0
3, 18032, Note_off_c, 1, 71, 0
3, 18048, Note_on_c, 1, 73, 66
3, 18048, Note_on_c, 1, 69, 66
3, 18240, Note_off_c, 1, 73, 0
3, 18240, Note_off_c, 1, 69, 0
3, 18240, Note_on_c, 1, 71, 66
3, 18240, Note_on_c, 1, 68, 66
3, 18420, Note_off_c, 1, 71, 0
3, 18420, Note_off_c, 1, 68, 0
3, 18528, Note_on_c, 1, 70, 66
3, 18624, Note_off_c, 1, 70, 0
3, 18624, Note_on_c, 1, 71, 66
3, 18716, Note_off_c, 1, 71, 0
3, 18720, Note_on_c, 1, 70, 66
3, 18812, Note_off_c, 1, 70, 0
3, 18816, Note_on_c, 1, 71, 66
3, 18908, Note_off_c, 1, 71, 0
3, 18912, Note_on_c, 1, 73, 66
3, 18912, Note_on_c, 1, 69, 66
3, 19004, Note_off_c, 1, 73, 0
3, 19004, Note_off_c, 1, 69, 0
3, 19008, Note_on_c, 1, 74, 66
3, 19008, Note_on_c, 1, 71, 66
3, 19100, Note_off_c, 1, 74, 0
3, 19100, Note_off_c, 1, 71, 0
3, 19104, Note_on_c, 1, 76, 66
3, 19104, Note_on_c, 1, 73, 66
3, 19184, Note_off_c, 1, 76, 0
3, 19184, Note_off_c, 1, 73, 0
3, 19200, Note_on_c, 1, 74, 66
3, 19200, Note_on_c, 1, 71, 66
3, 19392, Note_off_c, 1, 74, 0
3, 19392, Note_off_c, 1, 71, 0
3, 19392, Note_on_c, 1, 73, 66
3, 19392, Note_on_c, 1, 69, 66
3, 19572, Note_off_c, 1, 73, 0
3, 19572, Note_off_c, 1, 69, 0
3, 19584, Note_on_c, 1, 73, 67
3, 19680, Note_off_c, 1, 73, 0
3, 19680, Note_on_c, 1, 71, 68
3, 19760, Note_off_c, 1, 71, 0
3, 19776, Note_on_c, 1, 71, 69
3, 19872, Note_off_c, 1, 71, 0
3, 19872, Note_on_c, 1, 69, 70
3, 19952, Note_off_c, 1, 69, 0
3, 19968, Note_on_c, 1, 69, 71
3, 20064, Note_off_c, 1, 69, 0
3, 20064, Note_on_c, 1, 68, 72
3, 20144, Note_off_c, 1, 68, 0
3, 20160, Note_on_c, 1, 68, 73
3, 20256, Note_off_c, 1, 68, 0
3, 20256, Note_on_c, 1, 66, 74
3, 20336, Note_off_c, 1, 66, 0
3, 20352, Note_on_c, 1, 66, 75
3, 20448, Note_off_c, 1, 66, 0
3, 20448, Note_on_c, 1, 64, 76
3, 20528, Note_off_c, 1, 64, 0
3, 20544, Note_on_c, 1, 64, 77
3, 20640, Note_off_c, 1, 64, 0
3, 20640, Note_on_c, 1, 62, 78
3, 20720, Note_off_c, 1, 62, 0
3, 20736, Note_on_c, 1, 61, 78
3, 20928, Note_off_c, 1, 61, 0
3, 20928, Note_on_c, 1, 62, 78
3, 21108, Note_off_c, 1, 62, 0
3, 21120, Note_on_c, 1, 61, 78
3, 21216, Note_off_c, 1, 61, 0
3, 21216, Note_on_c, 1, 64, 78
3, 21296, Note_off_c, 1, 64, 0
3, 21312, Note_on_c, 1, 61, 78
3, 21500, Note_off_c, 1, 61, 0
3, 21504, Note_on_c, 1, 62, 78
3, 21504, Note_on_c, 1, 69, 78
3, 21692, Note_off_c, 1, 62, 0
3, 21696, Note_on_c, 1, 62, 78
3, 21696, Note_on_c, 1, 68, 78
3, 21876, Note_off_c, 1, 62, 0
3, 21876, Note_off_c, 1, 68, 0
3, 21888, Note_off_c, 1, 69, 0
3, 21888, Note_on_c, 1, 69, 78
3, 21888, Note_on_c, 1, 61, 78
3, 22268, Note_off_c, 1, 69, 0
3, 22268, Note_off_c, 1, 61, 0
3, 22848, Note_on_c, 1, 69, 66
3, 22848, Note_on_c, 1, 66, 66
3, 22940, Note_off_c, 1, 69, 0
3, 22940, Note_off_c, 1, 66, 0
3, 23040, Note_on_c, 1, 69, 66
3, 23040, Note_on_c, 1, 66, 66
3, 23424, Note_off_c, 1, 69, 0
3, 23424, Note_off_c, 1, 66, 0
3, 23424, Note_on_c, 1, 68, 78
3, 23424, Note_on_c, 1, 64, 78
3, 23604, Note_off_c, 1, 68, 0
3, 23604, Note_off_c, 1, 64, 0
3, 23616, Note_on_c, 1, 71, 78
3, 23808, Note_off_c, 1, 71, 0
3, 23808, Note_on_c, 1, 73, 78
3, 23996, Note_off_c, 1, 73, 0
3, 24000, Note_on_c, 1, 63, 78
3, 24180, Note_off_c, 1, 63, 0
3, 24192, Note_on_c, 1, 64, 54
3, 24380, Note_off_c, 1, 64, 0
3, 24384, Note_on_c, 1, 71, 54
3, 24384, Note_on_c, 1, 68, 54
3, 24572, Note_off_c, 1, 71, 0
3, 24572, Note_off_c, 1, 68, 0
3, 24576, Note_on_c, 1, 71, 54
3, 24576, Note_on_c, 1, 68, 54
3, 24764, Note_off_c, 1, 71, 0
3, 24764, Note_off_c, 1, 68, 0
3, 24768, Note_on_c, 1, 71, 54
3, 24768, Note_on_c, 1, 68, 54
3, 24956, Note_off_c, 1, 71, 0
3, 24956, Note_off_c, 1, 68, 0
3, 24960, Note_on_c, 1, 71, 54
3, 24960, Note_on_c, 1, 68, 54
3, 25148, Note_off_c, 1, 71, 0
3, 25148, Note_off_c, 1, 68, 0
3, 25152, Note_on_c, 1, 71, 54
3, 25152, Note_on_c, 1, 68, 54
3, 25340, Note_off_c, 1, 71, 0
3, 25340, Note_off_c, 1, 68, 0
3, 25536, Note_on_c, 1, 71, 54
3, 25536, Note_on_c, 1, 66, 54
3, 25724, Note_off_c, 1, 71, 0
3, 25724, Note_off_c, 1, 66, 0
3, 25728, Note_on_c, 1, 71, 54
3, 25728, Note_on_c, 1, 66, 54
3, 25916, Note_off_c, 1, 71, 0
3, 25916, Note_off_c, 1, 66, 0
3, 25920, Note_on_c, 1, 71, 54
3, 25920, Note_on_c, 1, 66, 54
3, 26108, Note_off_c, 1, 71, 0
3, 26108, Note_off_c, 1, 66, 0
3, 26112, Note_on_c, 1, 71, 54
3, 26112, Note_on_c, 1, 66, 54
3, 26300, Note_off_c, 1, 71, 0
3, 26300, Note_off_c, 1, 66, 0
3, 26304, Note_on_c, 1, 71, 54
3, 26304, Note_on_c, 1, 66, 54
3, 26492, Note_off_c, 1, 71, 0
3, 26492, Note_off_c, 1, 66, 0
3, 26688, Note_on_c, 1, 71, 54
3, 26688, Note_on_c, 1, 64, 54
3, 26876, Note_off_c, 1, 71, 0
3, 26876, Note_off_c, 1, 64, 0
3, 26880, Note_on_c, 1, 71, 54
3, 26880, Note_on_c, 1, 64, 54
3, 27068, Note_off_c, 1, 71, 0
3, 27068, Note_off_c, 1, 64, 0
3, 27072, Note_on_c, 1, 71, 54
3, 27072, Note_on_c, 1, 64, 54
3, 27260, Note_off_c, 1, 71, 0
3, 27260, Note_off_c, 1, 64, 0
3, 27264, Note_on_c, 1, 70, 54
3, 27264, Note_on_c, 1, 64, 54
3, 27452, Note_off_c, 1, 70, 0
3, 27452, Note_off_c, 1, 64, 0
3, 27456, Note_on_c, 1, 70, 54
3, 27456, Note_on_c, 1, 61, 54
3, 27644, Note_off_c, 1, 70, 0
3, 27644, Note_off_c, 1, 61, 0
3, 27648, Note_on_c, 1, 71, 54
3, 27648, Note_on_c, 1, 63, 54
3, 28032, Note_off_c, 1, 71, 0
3, 28032, Note_off_c, 1, 63, 0
3, 28032, Note_on_c, 1, 73, 54
3, 28032, Note_on_c, 1, 64, 54
3, 28412, Note_off_c, 1, 73, 0
3, 28412, Note_off_c, 1, 64, 0
3, 28416, Note_on_c, 1, 75, 54
3, 28416, Note_on_c, 1, 66, 54
3, 28788, Note_off_c, 1, 75, 0
3, 28788, Note_off_c, 1, 66, 0
3, 28800, Note_on_c, 1, 76, 54
3, 28800, Note_on_c, 1, 68, 54
3, 28988, Note_off_c, 1, 76, 0
3, 28988, Note_off_c, 1, 68, 0
3, 28992, Note_on_c, 1, 64, 54
3, 28992, Note_on_c, 1, 59, 54
3, 28992, Note_on_c, 1, 56, 54
3, 29180, Note_off_c, 1, 64, 0
3, 29180, Note_off_c, 1, 59, 0
3, 29180, Note_off_c, 1, 56, 0
3, 29184, Note_on_c, 1, 64, 54
3, 29184, Note_on_c, 1, 59, 54
3, 29184, Note_on_c, 1, 56, 54
3, 29372, Note_off_c, 1, 64, 0
3, 29372, Note_off_c, 1, 59, 0
3, 29372, Note_off_c, 1, 56, 0
3, 29376, Note_on_c, 1, 64, 54
3, 29376, Note_on_c, 1, 59, 54
3, 29376, Note_on_c, 1, 56, 54
3, 29564, Note_off_c, 1, 64, 0
3, 29564, Note_off_c, 1, 59, 0
3, 29564, Note_off_c, 1, 56, 0
3, 29568, Note_on_c, 1, 64, 54
3, 29568, Note_on_c, 1, 59, 54
3, 29568, Note_on_c, 1, 56, 54
3, 29756, Note_off_c, 1, 64, 0
3, 29756, Note_off_c, 1, 59, 0
3, 29756, Note_off_c, 1, 56, 0
3, 29760, Note_on_c, 1, 64, 54
3, 29760, Note_on_c, 1, 59, 54
3, 29760, Note_on_c, 1, 56, 54
3, 29948, Note_off_c, 1, 64, 0
3, 29948, Note_off_c, 1, 59, 0
3, 29948, Note_off_c, 1, 56, 0
3, 30144, Note_on_c, 1, 71, 54
3, 30144, Note_on_c, 1, 66, 54
3, 30144, Note_on_c, 1, 59, 54
3, 30332, Note_off_c, 1, 71, 0
3, 30332, Note_off_c, 1, 66, 0
3, 30332, Note_off_c, 1, 59, 0
3, 30336, Note_on_c, 1, 71, 54
3, 30336, Note_on_c, 1, 66, 54
3, 30336, Note_on_c, 1, 59, 54
3, 30524, Note_off_c, 1, 71, 0
3, 30524, Note_off_c, 1, 66, 0
3, 30524, Note_off_c, 1, 59, 0
3, 30528, Note_on_c, 1, 63, 54
3, 30528, Note_on_c, 1, 59, 54
3, 30716, Note_off_c, 1, 63, 0
3, 30716, Note_off_c, 1, 59, 0
3, 30720, Note_on_c, 1, 63, 54
3, 30720, Note_on_c, 1, 59, 54
3, 30908, Note_off_c, 1, 63, 0
3, 30908, Note_off_c, 1, 59, 0
3, 30912, Note_on_c, 1, 66, 54
3, 30912, Note_on_c, 1, 59, 54
3, 30912, Note_on_c, 1, 54, 54
3, 31100, Note_off_c, 1, 66, 0
3, 31100, Note_off_c, 1, 59, 0
3, 31100, Note_off_c, 1, 54, 0
3, 31296, Note_on_c, 1, 64, 54
3, 31296, Note_on_c, 1, 61, 54
3, 31296, Note_on_c, 1, 56, 54
3, 31484, Note_off_c, 1, 64, 0
3, 31484, Note_off_c, 1, 61, 0
3, 31484, Note_off_c, 1, 56, 0
3, 31488, Note_on_c, 1, 68, 54
3, 31488, Note_on_c, 1, 64, 54
3, 31488, Note_on_c, 1, 61, 54
3, 31676, Note_off_c, 1, 68, 0
3, 31676, Note_off_c, 1, 64, 0
3, 31676, Note_off_c, 1, 61, 0
3, 31680, Note_on_c, 1, 68, 54
3, 31680, Note_on_c, 1, 64, 54
3, 31680, Note_on_c, 1, 59, 54
3, 31868, Note_off_c, 1, 68, 0
3, 31868, Note_off_c, 1, 64, 0
3, 31868, Note_off_c, 1, 59, 0
3, 31872, Note_on_c, 1, 66, 54
3, 31872, Note_on_c, 1, 61, 54
3, 31872, Note_on_c, 1, 58, 54
3, 32060, Note_off_c, 1, 66, 0
3, 32060, Note_off_c, 1, 61, 0
3, 32060, Note_off_c, 1, 58, 0
3, 32064, Note_on_c, 1, 61, 54
3, 32064, Note_on_c, 1, 58, 54
3, 32064, Note_on_c, 1, 54, 54
3, 32252, Note_off_c, 1, 61, 0
3, 32252, Note_off_c, 1, 58, 0
3, 32252, Note_off_c, 1, 54, 0
3, 32448, Note_on_c, 1, 63, 54
3, 32448, Note_on_c, 1, 59, 54
3, 32636, Note_off_c, 1, 63, 0
3, 32636, Note_off_c, 1, 59, 0
3, 32640, Note_on_c, 1, 66, 54
3, 32640, Note_on_c, 1, 63, 54
3, 32640, Note_on_c, 1, 59, 54
3, 32828, Note_off_c, 1, 66, 0
3, 32828, Note_off_c, 1, 63, 0
3, 32832, Note_on_c, 1, 66, 56
3, 32832, Note_on_c, 1, 63, 56
3, 33020, Note_off_c, 1, 59, 0
3, 33024, Note_off_c, 1, 66, 0
3, 33024, Note_off_c, 1, 63, 0
3, 33024, Note_on_c, 1, 68, 59
3, 33024, Note_on_c, 1, 64, 59
3, 33212, Note_off_c, 1, 68, 0
3, 33212, Note_off_c, 1, 64, 0
3, 33216, Note_on_c, 1, 69, 63
3, 33216, Note_on_c, 1, 66, 63
3, 33396, Note_off_c, 1, 69, 0
3, 33396, Note_off_c, 1, 66, 0
3, 33408, Note_on_c, 1, 68, 66
3, 33408, Note_on_c, 1, 64, 66
3, 33504, Note_off_c, 1, 68, 0
3, 33504, Note_off_c, 1, 64, 0
3, 33504, Note_on_c, 1, 63, 66
3, 33596, Note_off_c, 1, 63, 0
3, 33600, Note_on_c, 1, 64, 66
3, 33600, Note_on_c, 1, 59, 66
3, 33692, Note_off_c, 1, 64, 0
3, 33696, Note_on_c, 1, 66, 66
3, 33776, Note_off_c, 1, 66, 0
3, 33788, Note_off_c, 1, 59, 0
3, 33792, Note_on_c, 1, 64, 66
3, 33792, Note_on_c, 1, 59, 66
3, 33980, Note_off_c, 1, 64, 0
3, 33984, Note_on_c, 1, 63, 66
3, 34172, Note_off_c, 1, 59, 0
3, 34172, Note_off_c, 1, 63, 0
3, 34176, Note_on_c, 1, 71, 78
3, 34176, Note_on_c, 1, 59, 78
3, 34364, Note_off_c, 1, 71, 0
3, 34364, Note_off_c, 1, 59, 0
3, 34368, Note_on_c, 1, 63, 78
3, 34368, Note_on_c, 1, 59, 78
3, 34368, Note_on_c, 1, 57, 78
3, 34556, Note_off_c, 1, 63, 0
3, 34556, Note_off_c, 1, 59, 0
3, 34556, Note_off_c, 1, 57, 0
3, 34560, Note_on_c, 1, 64, 78
3, 34560, Note_on_c, 1, 59, 78
3, 34560, Note_on_c, 1, 56, 78
3, 34656, Note_off_c, 1, 64, 0
3, 34656, Note_off_c, 1, 59, 0
3, 34656, Note_off_c, 1, 56, 0
3, 34656, Note_on_c, 1, 66, 78
3, 34656, Note_on_c, 1, 59, 78
3, 34748, Note_off_c, 1, 66, 0
3, 34748, Note_off_c, 1, 59, 0
3, 34752, Note_on_c, 1, 68, 78
3, 34752, Note_on_c, 1, 64, 78
3, 34752, Note_on_c, 1, 59, 78
3, 34844, Note_off_c, 1, 68, 0
3, 34844, Note_off_c, 1, 64, 0
3, 34844, Note_off_c, 1, 59, 0
3, 34848, Note_on_c, 1, 69, 78
3, 34848, Note_on_c, 1, 66, 78
3, 34848, Note_on_c, 1, 61, 78
3, 34928, Note_off_c, 1, 69, 0
3, 34928, Note_off_c, 1, 66, 0
3, 34928, Note_off_c, 1, 61, 0
3, 34944, Note_on_c, 1, 68, 78
3, 34944, Note_on_c, 1, 64, 78
3, 34944, Note_on_c, 1, 59, 78
3, 35136, Note_off_c, 1, 68, 0
3, 35136, Note_off_c, 1, 64, 0
3, 35136, Note_on_c, 1, 66, 78
3, 35136, Note_on_c, 1, 63, 78
3, 35316, Note_off_c, 1, 66, 0
3, 35316, Note_off_c, 1, 63, 0
3, 35328, Note_off_c, 1, 59, 0
3, 35712, Note_on_c, 1, 64, 66
3, 35712, Note_on_c, 1, 68, 66
3, 35760, Note_off_c, 1, 64, 0
3, 35760, Note_off_c, 1, 68, 0
3, 35808, Note_on_c, 1, 64, 66
3, 35808, Note_on_c, 1, 68, 66
3, 35856, Note_off_c, 1, 64, 0
3, 35856, Note_off_c, 1, 68, 0
3, 35904, Note_on_c, 1, 68, 66
3, 35904, Note_on_c, 1, 71, 66
3, 35952, Note_off_c, 1, 68, 0
3, 35952, Note_off_c, 1, 71, 0
3, 36000, Note_on_c, 1, 68, 66
3, 36000, Note_on_c, 1, 71, 66
3, 36048, Note_off_c, 1, 68, 0
3, 36048, Note_off_c, 1, 71, 0
3, 36096, Note_on_c, 1, 68, 66
3, 36096, Note_on_c, 1, 64, 66
3, 36144, Note_off_c, 1, 68, 0
3, 36144, Note_off_c, 1, 64, 0
3, 36192, Note_on_c, 1, 68, 66
3, 36192, Note_on_c, 1, 64, 66
3, 36240, Note_off_c, 1, 68, 0
3, 36240, Note_off_c, 1, 64, 0
3, 36288, Note_on_c, 1, 71, 66
3, 36288, Note_on_c, 1, 68, 66
3, 36336, Note_off_c, 1, 71, 0
3, 36336, Note_off_c, 1, 68, 0
3, 36384, Note_on_c, 1, 71, 66
3, 36384, Note_on_c, 1, 68, 66
3, 36432, Note_off_c, 1, 71, 0
3, 36432, Note_off_c, 1, 68, 0
3, 36480, Note_on_c, 1, 68, 66
3, 36480, Note_on_c, 1, 64, 66
3, 36528, Note_off_c, 1, 68, 0
3, 36528, Note_off_c, 1, 64, 0
3, 36576, Note_on_c, 1, 68, 66
3, 36576, Note_on_c, 1, 64, 66
3, 36624, Note_off_c, 1, 68, 0
3, 36624, Note_off_c, 1, 64, 0
3, 36672, Note_on_c, 1, 71, 66
3, 36672, Note_on_c, 1, 68, 66
3, 36720, Note_off_c, 1, 71, 0
3, 36720, Note_off_c, 1, 68, 0
3, 36768, Note_on_c, 1, 71, 66
3, 36768, Note_on_c, 1, 68, 66
3, 36816, Note_off_c, 1, 71, 0
3, 36816, Note_off_c, 1, 68, 0
3, 36864, Note_on_c, 1, 66, 66
3, 36864, Note_on_c, 1, 61, 66
3, 36912, Note_off_c, 1, 66, 0
3, 36912, Note_off_c, 1, 61, 0
3, 36960, Note_on_c, 1, 66, 66
3, 36960, Note_on_c, 1, 61, 66
3, 37008, Note_off_c, 1, 66, 0
3, 37008, Note_off_c, 1, 61, 0
3, 37056, Note_on_c, 1, 73, 66
3, 37056, Note_on_c, 1, 69, 66
3, 37104, Note_off_c, 1, 73, 0
3, 37104, Note_off_c, 1, 69, 0
3, 37152, Note_on_c, 1, 73, 66
3, 37152, Note_on_c, 1, 69, 66
3, 37200, Note_off_c, 1, 73, 0
3, 37200, Note_off_c, 1, 69, 0
3, 37248, Note_on_c, 1, 69, 66
3, 37248, Note_on_c, 1, 66, 66
3, 37296, Note_off_c, 1, 69, 0
3, 37296, Note_off_c, 1, 66, 0
3, 37344, Note_on_c, 1, 69, 66
3, 37344, Note_on_c, 1, 66, 66
3, 37392, Note_off_c, 1, 69, 0
3, 37392, Note_off_c, 1, 66, 0
3, 37440, Note_on_c, 1, 73, 66
3, 37440, Note_on_c, 1, 69, 66
3, 37488, Note_off_c, 1, 73, 0
3, 37488, Note_off_c, 1, 69, 0
3, 37536, Note_on_c, 1, 73, 66
3, 37536, Note_on_c, 1, 69, 66
3, 37584, Note_off_c, 1, 73, 0
3, 37584, Note_off_c, 1, 69, 0
3, 37632, Note_on_c, 1, 69, 66
3, 37632, Note_on_c, 1, 66, 66
3, 37680, Note_off_c, 1, 69, 0
3, 37680, Note_off_c, 1, 66, 0
3, 37728, Note_on_c, 1, 69, 66
3, 37728, Note_on_c, 1, 66, 66
3, 37776, Note_off_c, 1, 69, 0
3, 37776, Note_off_c, 1, 66, 0
3, 37824, Note_on_c, 1, 73, 66
3, 37824, Note_on_c, 1, 69, 66
3, 37872, Note_off_c, 1, 73, 0
3, 37872, Note_off_c, 1, 69, 0
3, 37920, Note_on_c, 1, 73, 66
3, 37920, Note_on_c, 1, 69, 66
3, 37968, Note_off_c, 1, 73, 0
3, 37968, Note_off_c, 1, 69, 0
3, 38016, Note_on_c, 1, 68, 66
3, 38016, Note_on_c, 1, 64, 66
3, 38064, Note_off_c, 1, 68, 0
3, 38064, Note_off_c, 1, 64, 0
3, 38112, Note_on_c, 1, 68, 66
3, 38112, Note_on_c, 1, 64, 66
3, 38160, Note_off_c, 1, 68, 0
3, 38160, Note_off_c, 1, 64, 0
3, 38208, Note_on_c, 1, 71, 66
3, 38208, Note_on_c, 1, 68, 66
3, 38256, Note_off_c, 1, 71, 0
3, 38256, Note_off_c, 1, 68, 0
3, 38304, Note_on_c, 1, 71, 66
3, 38304, Note_on_c, 1, 68, 66
3, 38352, Note_off_c, 1, 71, 0
3, 38352, Note_off_c, 1, 68, 0
3, 38400, Note_on_c, 1, 68, 66
3, 38400, Note_on_c, 1, 64, 66
3, 38448, Note_off_c, 1, 68, 0
3, 38448, Note_off_c, 1, 64, 0
3, 38496, Note_on_c, 1, 68, 66
3, 38496, Note_on_c, 1, 64, 66
3, 38544, Note_off_c, 1, 68, 0
3, 38544, Note_off_c, 1, 64, 0
3, 38592, Note_on_c, 1, 69, 66
3, 38592, Note_on_c, 1, 66, 66
3, 38640, Note_off_c, 1, 69, 0
3, 38640, Note_off_c, 1, 66, 0
3, 38688, Note_on_c, 1, 69, 66
3, 38688, Note_on_c, 1, 66, 66
3, 38736, Note_off_c, 1, 69, 0
3, 38736, Note_off_c, 1, 66, 0
3, 38784, Note_on_c, 1, 68, 66
3, 38784, Note_on_c, 1, 64, 66
3, 38832, Note_off_c, 1, 68, 0
3, 38832, Note_off_c, 1, 64, 0
3, 38880, Note_on_c, 1, 68, 66
3, 38880, Note_on_c, 1, 64, 66
3, 38928, Note_off_c, 1, 68, 0
3, 38928, Note_off_c, 1, 64, 0
3, 38976, Note_on_c, 1, 66, 66
3, 38976, Note_on_c, 1, 63, 66
3, 39024, Note_off_c, 1, 66, 0
3, 39024, Note_off_c, 1, 63, 0
3, 39072, Note_on_c, 1, 66, 66
3, 39072, Note_on_c, 1, 63, 66
3, 39120, Note_off_c, 1, 66, 0
3, 39120, Note_off_c, 1, 63, 0
3, 39168, Note_on_c, 1, 66, 66
3, 39168, Note_on_c, 1, 63, 66
3, 39216, Note_off_c, 1, 66, 0
3, 39216, Note_off_c, 1, 63, 0
3, 39264, Note_on_c, 1, 71, 66
3, 39264, Note_on_c, 1, 63, 66
3, 39312, Note_off_c, 1, 71, 0
3, 39312, Note_off_c, 1, 63, 0
3, 39360, Note_on_c, 1, 71, 66
3, 39360, Note_on_c, 1, 63, 66
3, 39408, Note_off_c, 1, 71, 0
3, 39408, Note_off_c, 1, 63, 0
3, 39456, Note_on_c, 1, 71, 66
3, 39456, Note_on_c, 1, 63, 66
3, 39504, Note_off_c, 1, 71, 0
3, 39504, Note_off_c, 1, 63, 0
3, 39552, Note_on_c, 1, 71, 66
3, 39552, Note_on_c, 1, 64, 66
3, 39600, Note_off_c, 1, 71, 0
3, 39600, Note_off_c, 1, 64, 0
3, 39648, Note_on_c, 1, 71, 66
3, 39648, Note_on_c, 1, 64, 66
3, 39696, Note_off_c, 1, 71, 0
3, 39696, Note_off_c, 1, 64, 0
3, 39744, Note_on_c, 1, 68, 66
3, 39744, Note_on_c, 1, 64, 66
3, 39792, Note_off_c, 1, 68, 0
3, 39792, Note_off_c, 1, 64, 0
3, 39840, Note_on_c, 1, 68, 66
3, 39840, Note_on_c, 1, 64, 66
3, 39888, Note_off_c, 1, 68, 0
3, 39888, Note_off_c, 1, 64, 0
3, 39936, Note_on_c, 1, 69, 66
3, 39936, Note_on_c, 1, 66, 66
3, 39984, Note_off_c, 1, 69, 0
3, 39984, Note_off_c, 1, 66, 0
3, 40032, Note_on_c, 1, 69, 66
3, 40032, Note_on_c, 1, 66, 66
3, 40080, Note_off_c, 1, 69, 0
3, 40080, Note_off_c, 1, 66, 0
3, 40128, Note_on_c, 1, 66, 66
3, 40128, Note_on_c, 1, 63, 66
3, 40176, Note_off_c, 1, 66, 0
3, 40176, Note_off_c, 1, 63, 0
3, 40224, Note_on_c, 1, 66, 66
3, 40224, Note_on_c, 1, 63, 66
3, 40272, Note_off_c, 1, 66, 0
3, 40272, Note_off_c, 1, 63, 0
3, 40320, Note_on_c, 1, 68, 66
3, 40320, Note_on_c, 1, 64, 66
3, 40508, Note_off_c, 1, 68, 0
3, 40508, Note_off_c, 1, 64, 0
3, 40608, Note_on_c, 1, 71, 66
3, 40800, Note_on_c, 1, 73, 66
3, 40844, Note_off_c, 1, 73, 0
3, 40848, Note_on_c, 1, 75, 66
3, 40892, Note_off_c, 1, 75, 0
3, 40896, Note_off_c, 1, 71, 0
3, 40896, Note_on_c, 1, 76, 66
3, 41076, Note_off_c, 1, 76, 0
3, 41856, Note_on_c, 1, 85, 66
3, 42144, Note_off_c, 1, 85, 0
3, 42144, Note_on_c, 1, 81, 66
3, 42224, Note_off_c, 1, 81, 0
3, 42240, Note_on_c, 1, 78, 66
3, 42428, Note_off_c, 1, 78, 0
3, 42720, Note_on_c, 1, 69, 66
3, 42720, Note_on_c, 1, 66, 66
3, 42816, Note_off_c, 1, 69, 0
3, 42816, Note_off_c, 1, 66, 0
3, 42816, Note_on_c, 1, 68, 66
3, 42816, Note_on_c, 1, 64, 66
3, 42908, Note_off_c, 1, 68, 0
3, 42908, Note_off_c, 1, 64, 0
3, 42912, Note_on_c, 1, 73, 66
3, 42912, Note_on_c, 1, 64, 66
3, 42992, Note_off_c, 1, 73, 0
3, 42992, Note_off_c, 1, 64, 0
3, 43008, Note_on_c, 1, 73, 66
3, 43008, Note_on_c, 1, 64, 66
3, 43056, Note_off_c, 1, 73, 0
3, 43056, Note_off_c, 1, 64, 0
3, 43104, Note_on_c, 1, 73, 66
3, 43104, Note_on_c, 1, 64, 66
3, 43152, Note_off_c, 1, 73, 0
3, 43152, Note_off_c, 1, 64, 0
3, 43200, Note_on_c, 1, 73, 66
3, 43200, Note_on_c, 1, 64, 66
3, 43248, Note_off_c, 1, 73, 0
3, 43248, Note_off_c, 1, 64, 0
3, 43296, Note_on_c, 1, 73, 66
3, 43296, Note_on_c, 1, 64, 66
3, 43344, Note_off_c, 1, 73, 0
3, 43344, Note_off_c, 1, 64, 0
3, 43392, Note_on_c, 1, 71, 66
3, 43392, Note_on_c, 1, 81, 66
3, 43488, Note_off_c, 1, 81, 0
3, 43488, Note_on_c, 1, 78, 66
3, 43580, Note_off_c, 1, 71, 0
3, 43580, Note_off_c, 1, 78, 0
3, 43584, Note_on_c, 1, 71, 66
3, 43584, Note_on_c, 1, 81, 66
3, 43676, Note_off_c, 1, 81, 0
3, 43680, Note_on_c, 1, 78, 66
3, 43760, Note_off_c, 1, 78, 0
3, 43772, Note_off_c, 1, 71, 0
3, 43776, Note_on_c, 1, 83, 66
3, 43776, Note_on_c, 1, 71, 66
3, 43868, Note_off_c, 1, 83, 0
3, 43868, Note_off_c, 1, 71, 0
3, 43872, Note_on_c, 1, 75, 66
3, 43872, Note_on_c, 1, 69, 66
3, 43964, Note_off_c, 1, 75, 0
3, 43964, Note_off_c, 1, 69, 0
3, 43968, Note_on_c, 1, 76, 66
3, 43968, Note_on_c, 1, 68, 66
3, 44060, Note_off_c, 1, 76, 0
3, 44060, Note_off_c, 1, 68, 0
3, 44064, Note_on_c, 1, 81, 66
3, 44064, Note_on_c, 1, 76, 66
3, 44156, Note_off_c, 1, 81, 0
3, 44156, Note_off_c, 1, 76, 0
3, 44160, Note_on_c, 1, 80, 66
3, 44184, Note_off_c, 1, 80, 0
3, 44184, Note_on_c, 1, 78, 66
3, 44208, Note_off_c, 1, 78, 0
3, 44208, Note_on_c, 1, 80, 66
3, 44232, Note_off_c, 1, 80, 0
3, 44232, Note_on_c, 1, 78, 65
3, 44256, Note_off_c, 1, 78, 0
3, 44256, Note_on_c, 1, 80, 65
3, 44280, Note_off_c, 1, 80, 0
3, 44280, Note_on_c, 1, 78, 65
3, 44304, Note_off_c, 1, 78, 0
3, 44304, Note_on_c, 1, 80, 64
3, 44328, Note_off_c, 1, 80, 0
3, 44328, Note_on_c, 1, 78, 64
3, 44352, Note_off_c, 1, 78, 0
3, 44352, Note_on_c, 1, 80, 63
3, 44376, Note_off_c, 1, 80, 0
3, 44376, Note_on_c, 1, 78, 63
3, 44400, Note_off_c, 1, 78, 0
3, 44400, Note_on_c, 1, 80, 63
3, 44424, Note_off_c, 1, 80, 0
3, 44424, Note_on_c, 1, 78, 61
3, 44448, Note_off_c, 1, 78, 0
3, 44448, Note_on_c, 1, 80, 61
3, 44472, Note_off_c, 1, 80, 0
3, 44472, Note_on_c, 1, 78, 61
3, 44496, Note_off_c, 1, 78, 0
3, 44496, Note_on_c, 1, 80, 60
3, 44520, Note_off_c, 1, 80, 0
3, 44520, Note_on_c, 1, 78, 60
3, 44544, Note_off_c, 1, 78, 0
3, 44544, Note_on_c, 1, 80, 59
3, 44568, Note_off_c, 1, 80, 0
3, 44568, Note_on_c, 1, 78, 59
3, 44592, Note_off_c, 1, 78, 0
3, 44592, Note_on_c, 1, 80, 59
3, 44616, Note_off_c, 1, 80, 0
3, 44616, Note_on_c, 1, 78, 58
3, 44640, Note_off_c, 1, 78, 0
3, 44640, Note_on_c, 1, 80, 58
3, 44664, Note_off_c, 1, 80, 0
3, 44664, Note_on_c, 1, 78, 58
3, 44688, Note_off_c, 1, 78, 0
3, 44688, Note_on_c, 1, 80, 57
3, 44712, Note_off_c, 1, 80, 0
3, 44712, Note_on_c, 1, 78, 57
3, 44736, Note_off_c, 1, 78, 0
3, 44736, Note_on_c, 1, 76, 56
3, 44828, Note_off_c, 1, 76, 0
3, 44832, Note_on_c, 1, 78, 55
3, 44924, Note_off_c, 1, 78, 0
3, 44928, Note_on_c, 1, 76, 54
3, 45116, Note_off_c, 1, 76, 0
3, 45120, Note_on_c, 1, 68, 54
3, 45120, Note_on_c, 1, 59, 54
3, 45308, Note_off_c, 1, 68, 0
3, 45308, Note_off_c, 1, 59, 0
3, 45312, Note_on_c, 1, 68, 54
3, 45312, Note_on_c, 1, 59, 54
3, 45500, Note_off_c, 1, 68, 0
3, 45500, Note_off_c, 1, 59, 0
3, 45504, Note_on_c, 1, 68, 54
3, 45504, Note_on_c, 1, 59, 54
3, 45692, Note_off_c, 1, 68, 0
3, 45692, Note_off_c, 1, 59, 0
3, 45696, Note_on_c, 1, 69, 54
3, 45696, Note_on_c, 1, 61, 54
3, 45884, Note_off_c, 1, 69, 0
3, 45884, Note_off_c, 1, 61, 0
3, 45888, Note_on_c, 1, 64, 54
3, 45888, Note_on_c, 1, 61, 54
3, 46076, Note_off_c, 1, 64, 0
3, 46076, Note_off_c, 1, 61, 0
3, 46080, Note_on_c, 1, 68, 54
3, 46080, Note_on_c, 1, 59, 54
3, 46268, Note_off_c, 1, 68, 0
3, 46268, Note_off_c, 1, 59, 0
3, 46272, Note_on_c, 1, 59, 55
3, 46272, Note_on_c, 1, 56, 55
3, 46460, Note_off_c, 1, 59, 0
3, 46460, Note_off_c, 1, 56, 0
3, 46464, Note_on_c, 1, 59, 57
3, 46464, Note_on_c, 1, 56, 57
3, 46652, Note_off_c, 1, 59, 0
3, 46652, Note_off_c, 1, 56, 0
3, 46656, Note_on_c, 1, 59, 59
3, 46656, Note_on_c, 1, 56, 59
3, 46844, Note_off_c, 1, 59, 0
3, 46844, Note_off_c, 1, 56, 0
3, 46848, Note_on_c, 1, 61, 61
3, 46848, Note_on_c, 1, 57, 61
3, 47036, Note_off_c, 1, 61, 0
3, 47036, Note_off_c, 1, 57, 0
3, 47040, Note_on_c, 1, 63, 64
3, 47040, Note_on_c, 1, 57, 64
3, 47228, Note_off_c, 1, 63, 0
3, 47228, Note_off_c, 1, 57, 0
3, 47232, Note_on_c, 1, 66, 66
3, 47232, Note_on_c, 1, 59, 66
3, 47420, Note_off_c, 1, 66, 0
3, 47420, Note_off_c, 1, 59, 0
3, 47424, Note_on_c, 1, 68, 68
3, 47424, Note_on_c, 1, 64, 68
3, 47424, Note_on_c, 1, 59, 68
3, 47804, Note_off_c, 1, 68, 0
3, 47804, Note_off_c, 1, 64, 0
3, 47804, Note_off_c, 1, 59, 0
3, 47808, Note_on_c, 1, 71, 72
3, 47808, Note_on_c, 1, 68, 72
3, 47808, Note_on_c, 1, 64, 72
3, 48188, Note_off_c, 1, 71, 0
3, 48188, Note_off_c, 1, 68, 0
3, 48188, Note_off_c, 1, 64, 0
3, 48192, Note_on_c, 1, 74, 76
3, 48192, Note_on_c, 1, 71, 76
3, 48192, Note_on_c, 1, 64, 76
3, 48380, Note_off_c, 1, 74, 0
3, 48380, Note_off_c, 1, 71, 0
3, 48380, Note_off_c, 1, 64, 0
3, 48384, Note_on_c, 1, 73, 78
3, 48384, Note_on_c, 1, 69, 78
3, 48384, Note_on_c, 1, 64, 78
3, 48764, Note_off_c, 1, 73, 0
3, 48764, Note_off_c, 1, 69, 0
3, 48764, Note_off_c, 1, 64, 0
3, 49536, Note_on_c, 1, 81, 78
3, 49536, Note_on_c, 1, 78, 78
3, 49920, Note_off_c, 1, 81, 0
3, 49920, Note_off_c, 1, 78, 0
3, 49920, Note_on_c, 1, 80, 78
3, 49920, Note_on_c, 1, 76, 78
3, 50292, Note_off_c, 1, 80, 0
3, 50292, Note_off_c, 1, 76, 0
3, 50304, Note_on_c, 1, 78, 78
3, 50304, Note_on_c, 1, 74, 78
3, 50684, Note_off_c, 1, 78, 0
3, 50684, Note_off_c, 1, 74, 0
3, 50688, Note_on_c, 1, 75, 89
3, 50688, Note_on_c, 1, 72, 89
3, 50880, Note_off_c, 1, 75, 0
3, 50880, Note_off_c, 1, 72, 0
3, 50880, Note_on_c, 1, 76, 66
3, 50880, Note_on_c, 1, 73, 66
3, 51060, Note_off_c, 1, 76, 0
3, 51060, Note_off_c, 1, 73, 0
3, 51072, Note_on_c, 1, 73, 66
3, 51072, Note_on_c, 1, 76, 66
3, 51840, Note_off_c, 1, 73, 0
3, 51840, Note_off_c, 1, 76, 64
3, 51840, Note_on_c, 1, 78, 66
3, 51840, Note_on_c, 1, 74, 66
3, 52212, Note_off_c, 1, 78, 0
3, 52212, Note_off_c, 1, 74, 0
3, 52224, Note_on_c, 1, 76, 66
3, 52224, Note_on_c, 1, 73, 66
3, 52604, Note_off_c, 1, 76, 0
3, 52604, Note_off_c, 1, 73, 0
3, 52608, Note_on_c, 1, 74, 66
3, 52608, Note_on_c, 1, 71, 66
3, 52988, Note_off_c, 1, 74, 0
3, 52988, Note_off_c, 1, 71, 0
3, 52992, Note_on_c, 1, 72, 94
3, 52992, Note_on_c, 1, 68, 94
3, 53184, Note_off_c, 1, 72, 0
3, 53184, Note_off_c, 1, 68, 0
3, 53184, Note_on_c, 1, 73, 66
3, 53184, Note_on_c, 1, 69, 66
3, 53364, Note_off_c, 1, 73, 0
3, 53364, Note_off_c, 1, 69, 0
3, 53376, Note_on_c, 1, 73, 66
3, 53376, Note_on_c, 1, 69, 66
3, 53564, Note_off_c, 1, 73, 0
3, 53564, Note_off_c, 1, 69, 0
3, 53568, Note_on_c, 1, 76, 66
3, 53568, Note_on_c, 1, 73, 66
3, 53568, Note_on_c, 1, 69, 66
3, 53660, Note_off_c, 1, 76, 0
3, 53660, Note_off_c, 1, 73, 0
3, 53660, Note_off_c, 1, 69, 0
3, 53760, Note_on_c, 1, 76, 66
3, 53760, Note_on_c, 1, 73, 66
3, 53760, Note_on_c, 1, 69, 66
3, 53852, Note_off_c, 1, 76, 0
3, 53852, Note_off_c, 1, 73, 0
3, 53852, Note_off_c, 1, 69, 0
3, 53952, Note_on_c, 1, 76, 66
3, 53952, Note_on_c, 1, 73, 66
3, 53952, Note_on_c, 1, 69, 66
3, 54044, Note_off_c, 1, 76, 0
3, 54044, Note_off_c, 1, 73, 0
3, 54044, Note_off_c, 1, 69, 0
3, 54144, Note_on_c, 1, 76, 66
3, 54144, Note_on_c, 1, 69, 66
3, 54236, Note_off_c, 1, 76, 0
3, 54236, Note_off_c, 1, 69, 0
3, 54624, Note_on_c, 1, 59, 66
3, 54624, Note_on_c, 1, 56, 66
3, 54720, Note_off_c, 1, 59, 0
3, 54720, Note_off_c, 1, 56, 0
3, 54720, Note_on_c, 1, 61, 66
3, 54720, Note_on_c, 1, 57, 66
3, 54812, Note_off_c, 1, 61, 0
3, 54812, Note_off_c, 1, 57, 0
3, 54816, Note_on_c, 1, 62, 66
3, 54816, Note_on_c, 1, 59, 66
3, 54896, Note_off_c, 1, 62, 0
3, 54896, Note_off_c, 1, 59, 0
3, 54912, Note_on_c, 1, 61, 66
3, 54912, Note_on_c, 1, 57, 66
3, 55104, Note_off_c, 1, 61, 0
3, 55104, Note_off_c, 1, 57, 0
3, 55104, Note_on_c, 1, 59, 66
3, 55104, Note_on_c, 1, 56, 66
3, 55284, Note_off_c, 1, 59, 0
3, 55284, Note_off_c, 1, 56, 0
3, 55776, Note_on_c, 1, 61, 66
3, 55776, Note_on_c, 1, 57, 66
3, 55872, Note_off_c, 1, 61, 0
3, 55872, Note_off_c, 1, 57, 0
3, 55872, Note_on_c, 1, 62, 66
3, 55872, Note_on_c, 1, 59, 66
3, 55964, Note_off_c, 1, 62, 0
3, 55964, Note_off_c, 1, 59, 0
3, 55968, Note_on_c, 1, 64, 66
3, 55968, Note_on_c, 1, 61, 66
3, 56048, Note_off_c, 1, 64, 0
3, 56048, Note_off_c, 1, 61, 0
3, 56064, Note_on_c, 1, 62, 66
3, 56064, Note_on_c, 1, 59, 66
3, 56256, Note_off_c, 1, 62, 0
3, 56256, Note_off_c, 1, 59, 0
3, 56256, Note_on_c, 1, 61, 66
3, 56256, Note_on_c, 1, 57, 66
3, 56436, Note_off_c, 1, 61, 0
3, 56436, Note_off_c, 1, 57, 0
3, 56448, Note_on_c, 1, 57, 69
3, 56636, Note_off_c, 1, 57, 0
3, 56640, Note_on_c, 1, 57, 71
3, 57020, Note_off_c, 1, 57, 0
3, 57024, Note_on_c, 1, 57, 73
3, 57404, Note_off_c, 1, 57, 0
3, 57408, Note_on_c, 1, 57, 75
3, 57596, Note_off_c, 1, 57, 0
3, 57600, Note_on_c, 1, 57, 78
3, 57792, Note_off_c, 1, 57, 0
3, 57792, Note_on_c, 1, 62, 78
3, 57792, Note_on_c, 1, 59, 78
3, 57972, Note_off_c, 1, 62, 0
3, 57972, Note_off_c, 1, 59, 0
3, 57984, Note_on_c, 1, 61, 78
3, 57984, Note_on_c, 1, 57, 78
3, 58176, Note_off_c, 1, 61, 0
3, 58176, Note_off_c, 1, 57, 0
3, 58176, Note_on_c, 1, 64, 78
3, 58176, Note_on_c, 1, 61, 78
3, 58356, Note_off_c, 1, 64, 0
3, 58356, Note_off_c, 1, 61, 0
3, 58368, Note_on_c, 1, 62, 78
3, 58368, Note_on_c, 1, 59, 78
3, 58560, Note_off_c, 1, 62, 0
3, 58560, Note_off_c, 1, 59, 0
3, 58560, Note_on_c, 1, 68, 78
3, 58560, Note_on_c, 1, 62, 78
3, 58740, Note_off_c, 1, 68, 0
3, 58740, Note_off_c, 1, 62, 0
3, 58752, Note_on_c, 1, 69, 78
3, 58752, Note_on_c, 1, 61, 78
3, 59132, Note_off_c, 1, 69, 0
3, 59132, Note_off_c, 1, 61, 0
3, 59712, Note_on_c, 1, 69, 66
3, 59712, Note_on_c, 1, 66, 66
3, 59904, Note_off_c, 1, 69, 0
3, 59904, Note_off_c, 1, 66, 0
3, 59904, Note_on_c, 1, 69, 66
3, 59904, Note_on_c, 1, 66, 66
3, 60288, Note_off_c, 1, 69, 0
3, 60288, Note_off_c, 1, 66, 0
3, 60288, Note_on_c, 1, 68, 78
3, 60288, Note_on_c, 1, 64, 78
3, 60468, Note_off_c, 1, 68, 0
3, 60468, Note_off_c, 1, 64, 0
3, 60480, Note_on_c, 1, 78, 75
3, 60480, Note_on_c, 1, 68, 75
3, 60672, Note_off_c, 1, 78, 0
3, 60672, Note_off_c, 1, 68, 0
3, 60672, Note_on_c, 1, 76, 72
3, 60672, Note_on_c, 1, 69, 72
3, 60860, Note_off_c, 1, 76, 0
3, 60860, Note_off_c, 1, 69, 0
3, 60864, Note_on_c, 1, 68, 68
3, 60864, Note_on_c, 1, 62, 68
3, 61044, Note_off_c, 1, 68, 0
3, 61044, Note_off_c, 1, 62, 0
3, 61056, Note_on_c, 1, 69, 66
3, 61056, Note_on_c, 1, 61, 66
3, 61244, Note_off_c, 1, 69, 0
3, 61244, Note_off_c, 1, 61, 0
3, 61248, Note_on_c, 1, 76, 66
3, 61248, Note_on_c, 1, 73, 66
3, 61248, Note_on_c, 1, 69, 66
3, 61436, Note_off_c, 1, 76, 0
3, 61436, Note_off_c, 1, 73, 0
3, 61436, Note_off_c, 1, 69, 0
3, 61440, Note_on_c, 1, 76, 66
3, 61440, Note_on_c, 1, 73, 66
3, 61440, Note_on_c, 1, 69, 66
3, 61628, Note_off_c, 1, 76, 0
3, 61628, Note_off_c, 1, 73, 0
3, 61628, Note_off_c, 1, 69, 0
3, 61632, Note_on_c, 1, 76, 66
3, 61632, Note_on_c, 1, 73, 66
3, 61632, Note_on_c, 1, 69, 66
3, 61820, Note_off_c, 1, 76, 0
3, 61820, Note_off_c, 1, 73, 0
3, 61820, Note_off_c, 1, 69, 0
3, 61824, Note_on_c, 1, 76, 66
3, 61824, Note_on_c, 1, 73, 66
3, 61824, Note_on_c, 1, 69, 66
3, 62012, Note_off_c, 1, 76, 0
3, 62012, Note_off_c, 1, 73, 0
3, 62012, Note_off_c, 1, 69, 0
3, 62016, Note_on_c, 1, 76, 66
3, 62016, Note_on_c, 1, 73, 66
3, 62016, Note_on_c, 1, 69, 66
3, 62204, Note_off_c, 1, 76, 0
3, 62204, Note_off_c, 1, 73, 0
3, 62204, Note_off_c, 1, 69, 0
3, 62208, Note_on_c, 1, 68, 66
3, 62396, Note_off_c, 1, 68, 0
3, 62400, Note_on_c, 1, 76, 66
3, 62400, Note_on_c, 1, 71, 66
3, 62400, Note_on_c, 1, 68, 66
3, 62588, Note_off_c, 1, 76, 0
3, 62588, Note_off_c, 1, 71, 0
3, 62588, Note_off_c, 1, 68, 0
3, 62592, Note_on_c, 1, 76, 66
3, 62592, Note_on_c, 1, 71, 66
3, 62592, Note_on_c, 1, 68, 66
3, 62780, Note_off_c, 1, 76, 0
3, 62780, Note_off_c, 1, 71, 0
3, 62780, Note_off_c, 1, 68, 0
3, 62784, Note_on_c, 1, 76, 66
3, 62784, Note_on_c, 1, 71, 66
3, 62784, Note_on_c, 1, 68, 66
3, 62972, Note_off_c, 1, 76, 0
3, 62972, Note_off_c, 1, 71, 0
3, 62972, Note_off_c, 1, 68, 0
3, 62976, Note_on_c, 1, 76, 66
3, 62976, Note_on_c, 1, 71, 66
3, 62976, Note_on_c, 1, 68, 66
3, 63164, Note_off_c, 1, 76, 0
3, 63164, Note_off_c, 1, 71, 0
3, 63164, Note_off_c, 1, 68, 0
3, 63168, Note_on_c, 1, 76, 66
3, 63168, Note_on_c, 1, 71, 66
3, 63168, Note_on_c, 1, 68, 66
3, 63356, Note_off_c, 1, 76, 0
3, 63356, Note_off_c, 1, 71, 0
3, 63356, Note_off_c, 1, 68, 0
3, 63360, Note_on_c, 1, 66, 66
3, 63548, Note_off_c, 1, 66, 0
3, 63552, Note_on_c, 1, 76, 66
3, 63552, Note_on_c, 1, 69, 66
3, 63552, Note_on_c, 1, 66, 66
3, 63740, Note_off_c, 1, 76, 0
3, 63740, Note_off_c, 1, 69, 0
3, 63740, Note_off_c, 1, 66, 0
3, 63744, Note_on_c, 1, 76, 66
3, 63744, Note_on_c, 1, 69, 66
3, 63744, Note_on_c, 1, 66, 66
3, 63932, Note_off_c, 1, 76, 0
3, 63932, Note_off_c, 1, 69, 0
3, 63932, Note_off_c, 1, 66, 0
3, 63936, Note_on_c, 1, 76, 66
3, 63936, Note_on_c, 1, 69, 66
3, 63936, Note_on_c, 1, 66, 66
3, 64124, Note_off_c, 1, 76, 0
3, 64124, Note_off_c, 1, 69, 0
3, 64124, Note_off_c, 1, 66, 0
3, 64128, Note_on_c, 1, 75, 66
3, 64128, Note_on_c, 1, 69, 66
3, 64128, Note_on_c, 1, 59, 66
3, 64316, Note_off_c, 1, 75, 0
3, 64316, Note_off_c, 1, 69, 0
3, 64316, Note_off_c, 1, 59, 0
3, 64320, Note_on_c, 1, 75, 66
3, 64320, Note_on_c, 1, 66, 66
3, 64320, Note_on_c, 1, 59, 66
3, 64508, Note_off_c, 1, 75, 0
3, 64508, Note_off_c, 1, 66, 0
3, 64508, Note_off_c, 1, 59, 0
3, 64512, Note_on_c, 1, 64, 66
3, 64512, Note_on_c, 1, 76, 66
3, 64512, Note_on_c, 1, 68, 66
3, 64896, Note_off_c, 1, 76, 0
3, 64896, Note_off_c, 1, 68, 0
3, 64896, Note_on_c, 1, 78, 66
3, 64896, Note_on_c, 1, 69, 66
3, 65276, Note_off_c, 1, 78, 0
3, 65276, Note_off_c, 1, 69, 0
3, 65280, Note_on_c, 1, 80, 66
3, 65280, Note_on_c, 1, 71, 66
3, 65652, Note_off_c, 1, 64, 0
3, 65652, Note_off_c, 1, 80, 0
3, 65652, Note_off_c, 1, 71, 0
3, 65664, Note_on_c, 1, 81, 66
3, 65664, Note_on_c, 1, 73, 66
3, 65756, Note_off_c, 1, 81, 0
3, 65756, Note_off_c, 1, 73, 0
3, 65856, Note_on_c, 1, 69, 66
3, 65856, Note_on_c, 1, 64, 66
3, 65856, Note_on_c, 1, 61, 66
3, 65948, Note_off_c, 1, 69, 0
3, 65948, Note_off_c, 1, 64, 0
3, 65948, Note_off_c, 1, 61, 0
3, 66048, Note_on_c, 1, 69, 66
3, 66048, Note_on_c, 1, 64, 66
3, 66048, Note_on_c, 1, 61, 66
3, 66240, Note_off_c, 1, 69, 0
3, 66240, Note_off_c, 1, 64, 0
3, 66240, Note_off_c, 1, 61, 0
3, 66240, Note_on_c, 1, 64, 66
3, 66240, Note_on_c, 1, 61, 66
3, 66420, Note_off_c, 1, 64, 0
3, 66420, Note_off_c, 1, 61, 0
3, 66432, Note_on_c, 1, 64, 66
3, 66432, Note_on_c, 1, 61, 66
3, 66624, Note_off_c, 1, 64, 0
3, 66624, Note_off_c, 1, 61, 0
3, 66624, Note_on_c, 1, 61, 66
3, 66804, Note_off_c, 1, 61, 0
3, 67008, Note_on_c, 1, 64, 66
3, 67008, Note_on_c, 1, 59, 66
3, 67196, Note_off_c, 1, 64, 0
3, 67196, Note_off_c, 1, 59, 0
3, 67200, Note_on_c, 1, 68, 66
3, 67200, Note_on_c, 1, 64, 66
3, 67200, Note_on_c, 1, 59, 66
3, 67392, Note_off_c, 1, 68, 0
3, 67392, Note_off_c, 1, 64, 0
3, 67392, Note_off_c, 1, 59, 0
3, 67392, Note_on_c, 1, 64, 66
3, 67392, Note_on_c, 1, 59, 66
3, 67572, Note_off_c, 1, 64, 0
3, 67572, Note_off_c, 1, 59, 0
3, 67584, Note_on_c, 1, 64, 66
3, 67584, Note_on_c, 1, 59, 66
3, 67776, Note_off_c, 1, 64, 0
3, 67776, Note_off_c, 1, 59, 0
3, 67776, Note_on_c, 1, 59, 66
3, 67956, Note_off_c, 1, 59, 0
3, 68160, Note_on_c, 1, 64, 66
3, 68160, Note_on_c, 1, 61, 66
3, 68348, Note_off_c, 1, 64, 0
3, 68348, Note_off_c, 1, 61, 0
3, 68352, Note_on_c, 1, 69, 66
3, 68352, Note_on_c, 1, 61, 66
3, 68544, Note_off_c, 1, 69, 0
3, 68544, Note_off_c, 1, 61, 0
3, 68544, Note_on_c, 1, 66, 66
3, 68544, Note_on_c, 1, 57, 66
3, 68724, Note_off_c, 1, 66, 0
3, 68724, Note_off_c, 1, 57, 0
3, 68736, Note_on_c, 1, 62, 66
3, 68736, Note_on_c, 1, 57, 66
3, 68928, Note_off_c, 1, 62, 0
3, 68928, Note_off_c, 1, 57, 0
3, 68928, Note_on_c, 1, 66, 66
3, 68928, Note_on_c, 1, 62, 66
3, 69108, Note_off_c, 1, 66, 0
3, 69108, Note_off_c, 1, 62, 0
3, 69312, Note_on_c, 1, 68, 66
3, 69312, Note_on_c, 1, 64, 66
3, 69500, Note_off_c, 1, 68, 0
3, 69500, Note_off_c, 1, 64, 0
3, 69504, Note_on_c, 1, 68, 66
3, 69504, Note_on_c, 1, 64, 66
3, 69692, Note_off_c, 1, 68, 0
3, 69692, Note_off_c, 1, 64, 0
3, 69696, Note_on_c, 1, 71, 66
3, 69696, Note_on_c, 1, 68, 66
3, 69888, Note_off_c, 1, 71, 0
3, 69888, Note_off_c, 1, 68, 0
3, 69888, Note_on_c, 1, 73, 66
3, 69888, Note_on_c, 1, 69, 66
3, 70076, Note_off_c, 1, 73, 0
3, 70076, Note_off_c, 1, 69, 0
3, 70080, Note_on_c, 1, 74, 66
3, 70080, Note_on_c, 1, 71, 66
3, 70260, Note_off_c, 1, 74, 0
3, 70260, Note_off_c, 1, 71, 0
3, 70272, Note_on_c, 1, 73, 66
3, 70272, Note_on_c, 1, 69, 66
3, 70368, Note_off_c, 1, 73, 0
3, 70368, Note_off_c, 1, 69, 0
3, 70368, Note_on_c, 1, 68, 66
3, 70460, Note_off_c, 1, 68, 0
3, 70464, Note_on_c, 1, 69, 66
3, 70464, Note_on_c, 1, 64, 66
3, 70556, Note_off_c, 1, 69, 0
3, 70560, Note_on_c, 1, 71, 66
3, 70640, Note_off_c, 1, 71, 0
3, 70652, Note_off_c, 1, 64, 0
3, 70656, Note_on_c, 1, 69, 66
3, 70656, Note_on_c, 1, 64, 66
3, 70848, Note_off_c, 1, 69, 0
3, 70848, Note_on_c, 1, 68, 94
3, 71028, Note_off_c, 1, 68, 0
3, 71036, Note_off_c, 1, 64, 0
3, 71040, Note_on_c, 1, 64, 78
3, 71232, Note_off_c, 1, 64, 0
3, 71520, Note_on_c, 1, 59, 78
3, 71612, Note_off_c, 1, 59, 0
3, 71616, Note_on_c, 1, 61, 78
3, 71708, Note_off_c, 1, 61, 0
3, 71712, Note_on_c, 1, 62, 78
3, 71792, Note_off_c, 1, 62, 0
3, 71808, Note_on_c, 1, 61, 78
3, 71808, Note_on_c, 1, 57, 78
3, 72000, Note_off_c, 1, 61, 0
3, 72000, Note_off_c, 1, 57, 0
3, 72000, Note_on_c, 1, 59, 78
3, 72000, Note_on_c, 1, 56, 78
3, 72180, Note_off_c, 1, 59, 0
3, 72180, Note_off_c, 1, 56, 0
3, 72576, Note_on_c, 1, 61, 66
3, 72576, Note_on_c, 1, 57, 66
3, 72624, Note_off_c, 1, 61, 0
3, 72624, Note_off_c, 1, 57, 0
3, 72672, Note_on_c, 1, 61, 66
3, 72672, Note_on_c, 1, 57, 66
3, 72720, Note_off_c, 1, 61, 0
3, 72720, Note_off_c, 1, 57, 0
3, 72768, Note_on_c, 1, 64, 66
3, 72768, Note_on_c, 1, 61, 66
3, 72816, Note_off_c, 1, 64, 0
3, 72816, Note_off_c, 1, 61, 0
3, 72864, Note_on_c, 1, 64, 66
3, 72864, Note_on_c, 1, 61, 66
3, 72912, Note_off_c, 1, 64, 0
3, 72912, Note_off_c, 1, 61, 0
3, 72960, Note_on_c, 1, 61, 66
3, 72960, Note_on_c, 1, 57, 66
3, 73008, Note_off_c, 1, 61, 0
3, 73008, Note_off_c, 1, 57, 0
3, 73056, Note_on_c, 1, 61, 66
3, 73056, Note_on_c, 1, 57, 66
3, 73104, Note_off_c, 1, 61, 0
3, 73104, Note_off_c, 1, 57, 0
3, 73152, Note_on_c, 1, 64, 66
3, 73152, Note_on_c, 1, 61, 66
3, 73200, Note_off_c, 1, 64, 0
3, 73200, Note_off_c, 1, 61, 0
3, 73248, Note_on_c, 1, 64, 66
3, 73248, Note_on_c, 1, 61, 66
3, 73296, Note_off_c, 1, 64, 0
3, 73296, Note_off_c, 1, 61, 0
3, 73344, Note_on_c, 1, 61, 66
3, 73344, Note_on_c, 1, 57, 66
3, 73392, Note_off_c, 1, 61, 0
3, 73392, Note_off_c, 1, 57, 0
3, 73440, Note_on_c, 1, 61, 66
3, 73440, Note_on_c, 1, 57, 66
3, 73488, Note_off_c, 1, 61, 0
3, 73488, Note_off_c, 1, 57, 0
3, 73536, Note_on_c, 1, 64, 66
3, 73536, Note_on_c, 1, 61, 66
3, 73584, Note_off_c, 1, 64, 0
3, 73584, Note_off_c, 1, 61, 0
3, 73632, Note_on_c, 1, 64, 66
3, 73632, Note_on_c, 1, 61, 66
3, 73680, Note_off_c, 1, 64, 0
3, 73680, Note_off_c, 1, 61, 0
3, 73728, Note_on_c, 1, 66, 66
3, 73728, Note_on_c, 1, 57, 66
3, 73776, Note_off_c, 1, 66, 0
3, 73776, Note_off_c, 1, 57, 0
3, 73824, Note_on_c, 1, 66, 66
3, 73824, Note_on_c, 1, 57, 66
3, 73872, Note_off_c, 1, 66, 0
3, 73872, Note_off_c, 1, 57, 0
3, 73920, Note_on_c, 1, 69, 66
3, 73920, Note_on_c, 1, 66, 66
3, 73968, Note_off_c, 1, 69, 0
3, 73968, Note_off_c, 1, 66, 0
3, 74016, Note_on_c, 1, 69, 66
3, 74016, Note_on_c, 1, 66, 66
3, 74064, Note_off_c, 1, 69, 0
3, 74064, Note_off_c, 1, 66, 0
3, 74112, Note_on_c, 1, 66, 66
3, 74112, Note_on_c, 1, 62, 66
3, 74160, Note_off_c, 1, 66, 0
3, 74160, Note_off_c, 1, 62, 0
3, 74208, Note_on_c, 1, 66, 66
3, 74208, Note_on_c, 1, 62, 66
3, 74256, Note_off_c, 1, 66, 0
3, 74256, Note_off_c, 1, 62, 0
3, 74304, Note_on_c, 1, 69, 66
3, 74304, Note_on_c, 1, 66, 66
3, 74352, Note_off_c, 1, 69, 0
3, 74352, Note_off_c, 1, 66, 0
3, 74400, Note_on_c, 1, 69, 66
3, 74400, Note_on_c, 1, 66, 66
3, 74448, Note_off_c, 1, 69, 0
3, 74448, Note_off_c, 1, 66, 0
3, 74496, Note_on_c, 1, 62, 66
3, 74496, Note_on_c, 1, 59, 66
3, 74544, Note_off_c, 1, 62, 0
3, 74544, Note_off_c, 1, 59, 0
3, 74592, Note_on_c, 1, 62, 66
3, 74592, Note_on_c, 1, 59, 66
3, 74640, Note_off_c, 1, 62, 0
3, 74640, Note_off_c, 1, 59, 0
3, 74688, Note_on_c, 1, 66, 66
3, 74688, Note_on_c, 1, 62, 66
3, 74736, Note_off_c, 1, 66, 0
3, 74736, Note_off_c, 1, 62, 0
3, 74784, Note_on_c, 1, 66, 66
3, 74784, Note_on_c, 1, 62, 66
3, 74832, Note_off_c, 1, 66, 0
3, 74832, Note_off_c, 1, 62, 0
3, 74880, Note_on_c, 1, 61, 66
3, 74880, Note_on_c, 1, 57, 66
3, 74928, Note_off_c, 1, 61, 0
3, 74928, Note_off_c, 1, 57, 0
3, 74976, Note_on_c, 1, 61, 66
3, 74976, Note_on_c, 1, 57, 66
3, 75024, Note_off_c, 1, 61, 0
3, 75024, Note_off_c, 1, 57, 0
3, 75072, Note_on_c, 1, 64, 66
3, 75072, Note_on_c, 1, 61, 66
3, 75120, Note_off_c, 1, 64, 0
3, 75120, Note_off_c, 1, 61, 0
3, 75168, Note_on_c, 1, 64, 66
3, 75168, Note_on_c, 1, 61, 66
3, 75216, Note_off_c, 1, 64, 0
3, 75216, Note_off_c, 1, 61, 0
3, 75264, Note_on_c, 1, 64, 66
3, 75264, Note_on_c, 1, 61, 66
3, 75312, Note_off_c, 1, 64, 0
3, 75312, Note_off_c, 1, 61, 0
3, 75360, Note_on_c, 1, 64, 66
3, 75360, Note_on_c, 1, 61, 66
3, 75408, Note_off_c, 1, 64, 0
3, 75408, Note_off_c, 1, 61, 0
3, 75456, Note_on_c, 1, 62, 66
3, 75456, Note_on_c, 1, 59, 66
3, 75504, Note_off_c, 1, 62, 0
3, 75504, Note_off_c, 1, 59, 0
3, 75552, Note_on_c, 1, 62, 66
3, 75552, Note_on_c, 1, 59, 66
3, 75600, Note_off_c, 1, 62, 0
3, 75600, Note_off_c, 1, 59, 0
3, 75648, Note_on_c, 1, 61, 66
3, 75648, Note_on_c, 1, 57, 66
3, 75696, Note_off_c, 1, 61, 0
3, 75696, Note_off_c, 1, 57, 0
3, 75744, Note_on_c, 1, 61, 66
3, 75744, Note_on_c, 1, 57, 66
3, 75792, Note_off_c, 1, 61, 0
3, 75792, Note_off_c, 1, 57, 0
3, 75840, Note_on_c, 1, 59, 66
3, 75840, Note_on_c, 1, 56, 66
3, 75888, Note_off_c, 1, 59, 0
3, 75888, Note_off_c, 1, 56, 0
3, 75936, Note_on_c, 1, 64, 66
3, 75936, Note_on_c, 1, 56, 66
3, 75984, Note_off_c, 1, 64, 0
3, 75984, Note_off_c, 1, 56, 0
3, 76032, Note_on_c, 1, 64, 66
3, 76032, Note_on_c, 1, 56, 66
3, 76080, Note_off_c, 1, 64, 0
3, 76080, Note_off_c, 1, 56, 0
3, 76128, Note_on_c, 1, 64, 66
3, 76128, Note_on_c, 1, 56, 66
3, 76176, Note_off_c, 1, 64, 0
3, 76176, Note_off_c, 1, 56, 0
3, 76224, Note_on_c, 1, 64, 66
3, 76224, Note_on_c, 1, 56, 66
3, 76272, Note_off_c, 1, 64, 0
3, 76272, Note_off_c, 1, 56, 0
3, 76320, Note_on_c, 1, 64, 66
3, 76320, Note_on_c, 1, 56, 66
3, 76368, Note_off_c, 1, 64, 0
3, 76368, Note_off_c, 1, 56, 0
3, 76416, Note_on_c, 1, 64, 66
3, 76416, Note_on_c, 1, 57, 66
3, 76464, Note_off_c, 1, 64, 0
3, 76464, Note_off_c, 1, 57, 0
3, 76512, Note_on_c, 1, 57, 66
3, 76512, Note_on_c, 1, 64, 66
3, 76560, Note_off_c, 1, 57, 0
3, 76560, Note_off_c, 1, 64, 0
3, 76608, Note_on_c, 1, 73, 66
3, 76608, Note_on_c, 1, 69, 66
3, 76656, Note_off_c, 1, 73, 0
3, 76656, Note_off_c, 1, 69, 0
3, 76704, Note_on_c, 1, 73, 66
3, 76704, Note_on_c, 1, 69, 66
3, 76752, Note_off_c, 1, 73, 0
3, 76752, Note_off_c, 1, 69, 0
3, 76800, Note_on_c, 1, 74, 66
3, 76800, Note_on_c, 1, 71, 66
3, 76848, Note_off_c, 1, 74, 0
3, 76848, Note_off_c, 1, 71, 0
3, 76896, Note_on_c, 1, 74, 66
3, 76896, Note_on_c, 1, 71, 66
3, 76944, Note_off_c, 1, 74, 0
3, 76944, Note_off_c, 1, 71, 0
3, 76992, Note_on_c, 1, 71, 66
3, 76992, Note_on_c, 1, 68, 66
3, 77040, Note_off_c, 1, 71, 0
3, 77040, Note_off_c, 1, 68, 0
3, 77088, Note_on_c, 1, 71, 66
3, 77088, Note_on_c, 1, 68, 66
3, 77136, Note_off_c, 1, 71, 0
3, 77136, Note_off_c, 1, 68, 0
3, 77184, Note_on_c, 1, 73, 66
3, 77184, Note_on_c, 1, 69, 66
3, 77372, Note_off_c, 1, 73, 0
3, 77372, Note_off_c, 1, 69, 0
3, 77568, Note_on_c, 1, 76, 75
3, 77856, Note_off_c, 1, 76, 0
3, 77856, Note_on_c, 1, 78, 72
3, 77900, Note_off_c, 1, 78, 0
3, 77904, Note_on_c, 1, 80, 69
3, 77944, Note_off_c, 1, 80, 0
3, 77952, Note_on_c, 1, 81, 66
3, 78044, Note_off_c, 1, 81, 0
3, 78720, Note_on_c, 1, 78, 75
3, 79008, Note_off_c, 1, 78, 0
3, 79008, Note_on_c, 1, 74, 71
3, 79088, Note_off_c, 1, 74, 0
3, 79104, Note_on_c, 1, 71, 67
3, 79196, Note_off_c, 1, 71, 0
3, 79584, Note_on_c, 1, 62, 68
3, 79584, Note_on_c, 1, 59, 68
3, 79676, Note_off_c, 1, 62, 0
3, 79676, Note_off_c, 1, 59, 0
3, 79680, Note_on_c, 1, 61, 69
3, 79680, Note_on_c, 1, 57, 69
3, 79772, Note_off_c, 1, 61, 0
3, 79772, Note_off_c, 1, 57, 0
3, 79776, Note_on_c, 1, 66, 70
3, 79776, Note_on_c, 1, 57, 70
3, 79868, Note_off_c, 1, 66, 0
3, 79868, Note_off_c, 1, 57, 0
3, 79872, Note_on_c, 1, 66, 71
3, 79872, Note_on_c, 1, 57, 71
3, 79964, Note_off_c, 1, 66, 0
3, 79964, Note_off_c, 1, 57, 0
3, 79968, Note_on_c, 1, 66, 72
3, 79968, Note_on_c, 1, 57, 72
3, 80060, Note_off_c, 1, 66, 0
3, 80060, Note_off_c, 1, 57, 0
3, 80064, Note_on_c, 1, 66, 73
3, 80064, Note_on_c, 1, 57, 73
3, 80156, Note_off_c, 1, 66, 0
3, 80156, Note_off_c, 1, 57, 0
3, 80160, Note_on_c, 1, 66, 74
3, 80160, Note_on_c, 1, 57, 74
3, 80252, Note_off_c, 1, 66, 0
3, 80252, Note_off_c, 1, 57, 0
3, 80256, Note_on_c, 1, 74, 75
3, 80256, Note_on_c, 1, 64, 75
3, 80352, Note_off_c, 1, 74, 0
3, 80352, Note_on_c, 1, 71, 76
3, 80444, Note_off_c, 1, 64, 0
3, 80444, Note_off_c, 1, 71, 0
3, 80448, Note_on_c, 1, 74, 77
3, 80448, Note_on_c, 1, 64, 77
3, 80540, Note_off_c, 1, 74, 0
3, 80544, Note_on_c, 1, 71, 78
3, 80624, Note_off_c, 1, 71, 0
3, 80636, Note_off_c, 1, 64, 0
3, 80640, Note_on_c, 1, 76, 78
3, 80640, Note_on_c, 1, 64, 78
3, 80732, Note_off_c, 1, 64, 0
3, 80736, Note_on_c, 1, 68, 78
3, 80736, Note_on_c, 1, 64, 78
3, 80740, Note_off_c, 1, 76, 0
3, 80828, Note_off_c, 1, 68, 0
3, 80828, Note_off_c, 1, 64, 0
3, 80832, Note_on_c, 1, 69, 78
3, 80832, Note_on_c, 1, 64, 78
3, 80924, Note_off_c, 1, 69, 0
3, 80924, Note_off_c, 1, 64, 0
3, 80928, Note_on_c, 1, 74, 78
3, 80928, Note_on_c, 1, 69, 78
3, 81008, Note_off_c, 1, 74, 0
3, 81008, Note_off_c, 1, 69, 0
3, 81024, Note_on_c, 1, 73, 78
3, 81048, Note_off_c, 1, 73, 0
3, 81048, Note_on_c, 1, 71, 78
3, 81072, Note_off_c, 1, 71, 0
3, 81072, Note_on_c, 1, 73, 78
3, 81096, Note_off_c, 1, 73, 0
3, 81096, Note_on_c, 1, 71, 78
3, 81120, Note_off_c, 1, 71, 0
3, 81120, Note_on_c, 1, 73, 78
3, 81144, Note_off_c, 1, 73, 0
3, 81144, Note_on_c, 1, 71, 78
3, 81168, Note_off_c, 1, 71, 0
3, 81168, Note_on_c, 1, 73, 78
3, 81192, Note_off_c, 1, 73, 0
3, 81192, Note_on_c, 1, 71, 78
3, 81216, Note_off_c, 1, 71, 0
3, 81216, Note_on_c, 1, 73, 78
3, 81240, Note_off_c, 1, 73, 0
3, 81240, Note_on_c, 1, 71, 78
3, 81264, Note_off_c, 1, 71, 0
3, 81264, Note_on_c, 1, 73, 78
3, 81288, Note_off_c, 1, 73, 0
3, 81288, Note_on_c, 1, 71, 78
3, 81312, Note_off_c, 1, 71, 0
3, 81312, Note_on_c, 1, 73, 78
3, 81336, Note_off_c, 1, 73, 0
3, 81336, Note_on_c, 1, 71, 78
3, 81360, Note_off_c, 1, 71, 0
3, 81360, Note_on_c, 1, 73, 78
3, 81384, Note_off_c, 1, 73, 0
3, 81384, Note_on_c, 1, 71, 78
3, 81408, Note_off_c, 1, 71, 0
3, 81408, Note_on_c, 1, 73, 78
3, 81432, Note_off_c, 1, 73, 0
3, 81432, Note_on_c, 1, 71, 78
3, 81456, Note_off_c, 1, 71, 0
3, 81456, Note_on_c, 1, 73, 78
3, 81480, Note_off_c, 1, 73, 0
3, 81480, Note_on_c, 1, 71, 78
3, 81504, Note_off_c, 1, 71, 0
3, 81504, Note_on_c, 1, 73, 78
3, 81528, Note_off_c, 1, 73, 0
3, 81528, Note_on_c, 1, 71, 78
3, 81552, Note_off_c, 1, 71, 0
3, 81552, Note_on_c, 1, 73, 78
3, 81576, Note_off_c, 1, 73, 0
3, 81576, Note_on_c, 1, 71, 78
3, 81600, Note_off_c, 1, 71, 0
3, 81600, Note_on_c, 1, 69, 78
3, 81692, Note_off_c, 1, 69, 0
3, 81696, Note_on_c, 1, 71, 78
3, 81788, Note_off_c, 1, 71, 0
3, 81792, Note_on_c, 1, 69, 78
3, 81980, Note_off_c, 1, 69, 0
3, 81984, Note_on_c, 1, 73, 78
3, 81984, Note_on_c, 1, 64, 78
3, 82172, Note_off_c, 1, 73, 0
3, 82172, Note_off_c, 1, 64, 0
3, 82176, Note_on_c, 1, 73, 78
3, 82176, Note_on_c, 1, 64, 78
3, 82268, Note_off_c, 1, 73, 0
3, 82268, Note_off_c, 1, 64, 0
3, 82368, Note_on_c, 1, 73, 78
3, 82368, Note_on_c, 1, 64, 78
3, 82460, Note_off_c, 1, 73, 0
3, 82460, Note_off_c, 1, 64, 0
3, 82560, Note_on_c, 1, 74, 78
3, 82560, Note_on_c, 1, 66, 78
3, 82752, Note_off_c, 1, 74, 0
3, 82752, Note_off_c, 1, 66, 0
3, 82752, Note_on_c, 1, 69, 78
3, 82752, Note_on_c, 1, 66, 78
3, 82932, Note_off_c, 1, 69, 0
3, 82932, Note_off_c, 1, 66, 0
3, 82944, Note_on_c, 1, 69, 78
3, 82944, Note_on_c, 1, 64, 78
3, 83136, Note_off_c, 1, 69, 0
3, 83136, Note_off_c, 1, 64, 0
3, 83136, Note_on_c, 1, 64, 78
3, 83136, Note_on_c, 1, 61, 78
3, 83316, Note_off_c, 1, 64, 0
3, 83316, Note_off_c, 1, 61, 0
3, 83328, Note_on_c, 1, 64, 78
3, 83328, Note_on_c, 1, 61, 78
3, 83420, Note_off_c, 1, 64, 0
3, 83420, Note_off_c, 1, 61, 0
3, 83520, Note_on_c, 1, 64, 78
3, 83520, Note_on_c, 1, 61, 78
3, 83612, Note_off_c, 1, 64, 0
3, 83612, Note_off_c, 1, 61, 0
3, 83712, Note_on_c, 1, 66, 78
3, 83712, Note_on_c, 1, 62, 78
3, 83904, Note_off_c, 1, 66, 0
3, 83904, Note_off_c, 1, 62, 0
3, 83904, Note_on_c, 1, 68, 78
3, 83904, Note_on_c, 1, 62, 78
3, 84084, Note_off_c, 1, 68, 0
3, 84084, Note_off_c, 1, 62, 0
3, 84096, Note_on_c, 1, 69, 79
3, 84096, Note_on_c, 1, 61, 79
3, 84284, Note_off_c, 1, 69, 0
3, 84284, Note_off_c, 1, 61, 0
3, 84288, Note_on_c, 1, 64, 80
3, 84288, Note_on_c, 1, 61, 80
3, 84668, Note_off_c, 1, 64, 0
3, 84668, Note_off_c, 1, 61, 0
3, 84672, Note_on_c, 1, 73, 82
3, 84672, Note_on_c, 1, 69, 82
3, 84672, Note_on_c, 1, 64, 82
3, 85052, Note_off_c, 1, 73, 0
3, 85052, Note_off_c, 1, 69, 0
3, 85052, Note_off_c, 1, 64, 0
3, 85056, Note_on_c, 1, 76, 86
3, 85056, Note_on_c, 1, 73, 86
3, 85056, Note_on_c, 1, 69, 86
3, 85244, Note_off_c, 1, 76, 0
3, 85244, Note_off_c, 1, 73, 0
3, 85244, Note_off_c, 1, 69, 0
3, 85248, Note_on_c, 1, 74, 89
3, 85392, Note_off_c, 1, 74, 0
3, 85392, Note_on_c, 1, 78, 89
3, 85432, Note_off_c, 1, 78, 0
3, 85440, Note_on_c, 1, 81, 89
3, 85532, Note_off_c, 1, 81, 0
3, 85728, Note_on_c, 1, 74, 89
3, 85824, Note_off_c, 1, 74, 0
3, 85824, Note_on_c, 1, 73, 89
3, 85916, Note_off_c, 1, 73, 0
3, 85920, Note_on_c, 1, 74, 89
3, 86000, Note_off_c, 1, 74, 0
3, 86016, Note_on_c, 1, 78, 89
3, 86064, Note_off_c, 1, 78, 0
3, 86112, Note_on_c, 1, 74, 89
3, 86208, Note_off_c, 1, 74, 0
3, 86208, Note_on_c, 1, 73, 89
3, 86300, Note_off_c, 1, 73, 0
3, 86304, Note_on_c, 1, 74, 89
3, 86384, Note_off_c, 1, 74, 0
3, 86400, Note_on_c, 1, 73, 89
3, 86544, Note_off_c, 1, 73, 0
3, 86544, Note_on_c, 1, 76, 89
3, 86584, Note_off_c, 1, 76, 0
3, 86592, Note_on_c, 1, 81, 89
3, 86684, Note_off_c, 1, 81, 0
3, 86880, Note_on_c, 1, 73, 89
3, 86976, Note_off_c, 1, 73, 0
3, 86976, Note_on_c, 1, 72, 89
3, 87068, Note_off_c, 1, 72, 0
3, 87072, Note_on_c, 1, 73, 89
3, 87152, Note_off_c, 1, 73, 0
3, 87168, Note_on_c, 1, 76, 89
3, 87216, Note_off_c, 1, 76, 0
3, 87264, Note_on_c, 1, 73, 89
3, 87360, Note_off_c, 1, 73, 0
3, 87360, Note_on_c, 1, 72, 89
3, 87452, Note_off_c, 1, 72, 0
3, 87456, Note_on_c, 1, 73, 89
3, 87536, Note_off_c, 1, 73, 0
3, 87552, Note_on_c, 1, 73, 89
3, 87648, Note_off_c, 1, 73, 0
3, 87648, Note_on_c, 1, 71, 89
3, 87728, Note_off_c, 1, 71, 0
3, 87744, Note_on_c, 1, 78, 89
3, 87840, Note_off_c, 1, 78, 0
3, 87840, Note_on_c, 1, 74, 89
3, 87920, Note_off_c, 1, 74, 0
3, 87936, Note_on_c, 1, 73, 89
3, 88032, Note_off_c, 1, 73, 0
3, 88032, Note_on_c, 1, 71, 89
3, 88112, Note_off_c, 1, 71, 0
3, 88128, Note_on_c, 1, 81, 89
3, 88224, Note_off_c, 1, 81, 0
3, 88224, Note_on_c, 1, 78, 89
3, 88304, Note_off_c, 1, 78, 0
3, 88320, Note_on_c, 1, 76, 89
3, 88416, Note_off_c, 1, 76, 0
3, 88416, Note_on_c, 1, 74, 89
3, 88496, Note_off_c, 1, 74, 0
3, 88512, Note_on_c, 1, 78, 89
3, 88512, Note_on_c, 1, 74, 89
3, 88608, Note_off_c, 1, 78, 0
3, 88608, Note_off_c, 1, 74, 0
3, 88608, Note_on_c, 1, 74, 89
3, 88608, Note_on_c, 1, 71, 89
3, 88688, Note_off_c, 1, 74, 0
3, 88688, Note_off_c, 1, 71, 0
3, 88704, Note_on_c, 1, 73, 89
3, 88704, Note_on_c, 1, 69, 89
3, 88704, Note_on_c, 1, 64, 89
3, 89472, Note_off_c, 1, 73, 0
3, 89472, Note_off_c, 1, 69, 0
3, 89472, Note_off_c, 1, 64, 0
3, 114048, Note_on_c, 1, 69, 89
3, 114048, Note_on_c, 1, 69, 89
3, 114144, Note_off_c, 1, 69, 0
3, 114144, Note_on_c, 1, 73, 89
3, 114236, Note_off_c, 1, 69, 0
3, 114236, Note_off_c, 1, 73, 0
3, 114240, Note_on_c, 1, 74, 89
3, 114240, Note_on_c, 1, 69, 89
3, 114332, Note_off_c, 1, 74, 0
3, 114336, Note_on_c, 1, 75, 89
3, 114416, Note_off_c, 1, 75, 0
3, 114432, Note_on_c, 1, 76, 89
3, 114528, Note_off_c, 1, 76, 0
3, 114528, Note_on_c, 1, 75, 89
3, 114620, Note_off_c, 1, 69, 0
3, 114620, Note_off_c, 1, 75, 0
3, 114624, Note_on_c, 1, 76, 89
3, 114624, Note_on_c, 1, 69, 89
3, 114716, Note_off_c, 1, 76, 0
3, 114720, Note_on_c, 1, 77, 89
3, 114800, Note_off_c, 1, 77, 0
3, 114812, Note_off_c, 1, 69, 0
3, 114816, Note_on_c, 1, 78, 89
3, 114816, Note_on_c, 1, 69, 89
3, 114912, Note_off_c, 1, 78, 0
3, 114912, Note_off_c, 1, 69, 0
3, 114912, Note_on_c, 1, 80, 89
3, 114912, Note_on_c, 1, 76, 89
3, 114912, Note_on_c, 1, 71, 89
3, 115004, Note_off_c, 1, 80, 0
3, 115004, Note_off_c, 1, 76, 0
3, 115004, Note_off_c, 1, 71, 0
3, 115008, Note_on_c, 1, 81, 89
3, 115008, Note_on_c, 1, 76, 89
3, 115008, Note_on_c, 1, 73, 89
3, 115100, Note_off_c, 1, 81, 0
3, 115100, Note_off_c, 1, 76, 0
3, 115100, Note_off_c, 1, 73, 0
3, 115104, Note_on_c, 1, 83, 89
3, 115104, Note_on_c, 1, 80, 89
3, 115104, Note_on_c, 1, 74, 89
3, 115184, Note_off_c, 1, 83, 0
3, 115184, Note_off_c, 1, 80, 0
3, 115184, Note_off_c, 1, 74, 0
3, 115200, Note_on_c, 1, 85, 89
3, 115200, Note_on_c, 1, 81, 89
3, 115200, Note_on_c, 1, 76, 89
3, 115296, Note_off_c, 1, 85, 0
3, 115296, Note_off_c, 1, 81, 0
3, 115296, Note_off_c, 1, 76, 0
3, 115296, Note_on_c, 1, 81, 89
3, 115296, Note_on_c, 1, 73, 89
3, 115376, Note_off_c, 1, 81, 0
3, 115376, Note_off_c, 1, 73, 0
3, 115392, Note_on_c, 1, 78, 89
3, 115392, Note_on_c, 1, 74, 89
3, 115392, Note_on_c, 1, 69, 89
3, 115488, Note_off_c, 1, 78, 0
3, 115488, Note_off_c, 1, 74, 0
3, 115488, Note_off_c, 1, 69, 0
3, 115488, Note_on_c, 1, 74, 89
3, 115488, Note_on_c, 1, 71, 89
3, 115488, Note_on_c, 1, 66, 89
3, 115568, Note_off_c, 1, 74, 0
3, 115568, Note_off_c, 1, 71, 0
3, 115568, Note_off_c, 1, 66, 0
3, 115584, Note_on_c, 1, 73, 89
3, 115584, Note_on_c, 1, 69, 89
3, 115584, Note_on_c, 1, 64, 89
3, 115772, Note_off_c, 1, 73, 0
3, 115772, Note_off_c, 1, 69, 0
3, 115772, Note_off_c, 1, 64, 0
3, 115776, Note_on_c, 1, 76, 89
3, 115776, Note_on_c, 1, 69, 89
3, 115968, Note_off_c, 1, 69, 0
3, 115968, Note_on_c, 1, 68, 66
3, 116064, Note_off_c, 1, 76, 0
3, 116064, Note_on_c, 1, 75, 66
3, 116144, Note_off_c, 1, 75, 0
3, 116148, Note_off_c, 1, 68, 0
3, 116160, Note_on_c, 1, 74, 66
3, 116160, Note_on_c, 1, 68, 66
3, 116256, Note_off_c, 1, 74, 0
3, 116256, Note_on_c, 1, 71, 66
3, 116336, Note_off_c, 1, 71, 0
3, 116348, Note_off_c, 1, 68, 0
3, 116352, Note_on_c, 1, 69, 66
3, 116540, Note_off_c, 1, 69, 0
3, 116544, Note_on_c, 1, 71, 66
3, 116564, Note_off_c, 1, 71, 0
3, 116568, Note_on_c, 1, 69, 66
3, 116588, Note_off_c, 1, 69, 0
3, 116592, Note_on_c, 1, 71, 66
3, 116612, Note_off_c, 1, 71, 0
3, 116616, Note_on_c, 1, 69, 66
3, 116636, Note_off_c, 1, 69, 0
3, 116640, Note_on_c, 1, 71, 66
3, 116660, Note_off_c, 1, 71, 0
3, 116664, Note_on_c, 1, 69, 66
3, 116684, Note_off_c, 1, 69, 0
3, 116688, Note_on_c, 1, 68, 66
3, 116732, Note_off_c, 1, 68, 0
3, 116736, Note_on_c, 1, 69, 66
3, 116928, Note_off_c, 1, 69, 0
3, 116928, Note_on_c, 1, 71, 66
3, 117120, Note_off_c, 1, 71, 0
3, 117120, Note_on_c, 1, 73, 66
3, 117312, Note_off_c, 1, 73, 0
3, 117312, Note_on_c, 1, 75, 66
3, 117312, Note_on_c, 1, 66, 66
3, 117312, Note_on_c, 1, 69, 66
3, 117504, Note_off_c, 1, 75, 0
3, 117504, Note_off_c, 1, 66, 0
3, 117504, Note_off_c, 1, 69, 0
3, 117504, Note_on_c, 1, 75, 66
3, 117504, Note_on_c, 1, 69, 66
3, 117504, Note_on_c, 1, 66, 66
3, 117888, Note_off_c, 1, 75, 0
3, 117888, Note_off_c, 1, 69, 0
3, 117888, Note_off_c, 1, 66, 0
3, 117888, Note_on_c, 1, 76, 89
3, 117888, Note_on_c, 1, 68, 89
3, 117888, Note_on_c, 1, 64, 89
3, 118068, Note_off_c, 1, 76, 0
3, 118068, Note_off_c, 1, 68, 0
3, 118068, Note_off_c, 1, 64, 0
3, 118080, Note_on_c, 1, 78, 89
3, 118080, Note_on_c, 1, 68, 89
3, 118272, Note_off_c, 1, 78, 0
3, 118272, Note_off_c, 1, 68, 0
3, 118272, Note_on_c, 1, 76, 89
3, 118272, Note_on_c, 1, 69, 89
3, 118460, Note_off_c, 1, 76, 0
3, 118460, Note_off_c, 1, 69, 0
3, 118464, Note_on_c, 1, 68, 89
3, 118464, Note_on_c, 1, 62, 89
3, 118644, Note_off_c, 1, 68, 0
3, 118644, Note_off_c, 1, 62, 0
3, 118656, Note_on_c, 1, 69, 66
3, 118656, Note_on_c, 1, 61, 66
3, 118748, Note_off_c, 1, 69, 0
3, 118748, Note_off_c, 1, 61, 0
3, 118848, Note_on_c, 1, 69, 66
3, 118848, Note_on_c, 1, 61, 66
3, 119040, Note_off_c, 1, 69, 0
3, 119040, Note_off_c, 1, 61, 0
3, 119040, Note_on_c, 1, 68, 66
3, 119040, Note_on_c, 1, 64, 66
3, 119220, Note_off_c, 1, 68, 0
3, 119220, Note_off_c, 1, 64, 0
3, 119232, Note_on_c, 1, 68, 66
3, 119232, Note_on_c, 1, 64, 66
3, 119424, Note_off_c, 1, 68, 0
3, 119424, Note_off_c, 1, 64, 0
3, 119424, Note_on_c, 1, 66, 66
3, 119424, Note_on_c, 1, 62, 66
3, 119604, Note_off_c, 1, 66, 0
3, 119604, Note_off_c, 1, 62, 0
3, 119616, Note_on_c, 1, 66, 66
3, 119616, Note_on_c, 1, 62, 66
3, 119808, Note_off_c, 1, 66, 0
3, 119808, Note_off_c, 1, 62, 0
3, 119808, Note_on_c, 1, 64, 66
3, 119808, Note_on_c, 1, 61, 66
3, 119988, Note_off_c, 1, 64, 0
3, 119988, Note_off_c, 1, 61, 0
3, 120000, Note_on_c, 1, 64, 66
3, 120000, Note_on_c, 1, 61, 66
3, 120188, Note_off_c, 1, 64, 0
3, 120188, Note_off_c, 1, 61, 0
3, 120192, Note_on_c, 1, 62, 66
3, 120192, Note_on_c, 1, 59, 66
3, 120380, Note_off_c, 1, 62, 0
3, 120380, Note_off_c, 1, 59, 0
3, 120384, Note_on_c, 1, 62, 66
3, 120384, Note_on_c, 1, 59, 66
3, 120572, Note_off_c, 1, 62, 0
3, 120572, Note_off_c, 1, 59, 0
3, 120576, Note_on_c, 1, 61, 66
3, 120576, Note_on_c, 1, 57, 66
3, 120764, Note_off_c, 1, 61, 0
3, 120764, Note_off_c, 1, 57, 0
3, 120768, Note_on_c, 1, 61, 66
3, 120768, Note_on_c, 1, 57, 66
3, 120956, Note_off_c, 1, 61, 0
3, 120956, Note_off_c, 1, 57, 0
3, 120960, Note_on_c, 1, 62, 66
3, 120960, Note_on_c, 1, 57, 66
3, 121152, Note_off_c, 1, 62, 0
3, 121152, Note_off_c, 1, 57, 0
3, 121152, Note_on_c, 1, 71, 66
3, 121152, Note_on_c, 1, 62, 66
3, 121332, Note_off_c, 1, 71, 0
3, 121332, Note_off_c, 1, 62, 0
3, 121344, Note_on_c, 1, 69, 66
3, 121344, Note_on_c, 1, 61, 66
3, 121532, Note_off_c, 1, 69, 0
3, 121532, Note_off_c, 1, 61, 0
3, 121536, Note_on_c, 1, 69, 66
3, 121536, Note_on_c, 1, 61, 66
3, 121724, Note_off_c, 1, 69, 0
3, 121724, Note_off_c, 1, 61, 0
3, 121728, Note_on_c, 1, 68, 66
3, 121728, Note_on_c, 1, 62, 66
3, 121916, Note_off_c, 1, 68, 0
3, 121916, Note_off_c, 1, 62, 0
3, 121920, Note_on_c, 1, 68, 66
3, 121920, Note_on_c, 1, 62, 66
3, 122108, Note_off_c, 1, 68, 0
3, 122108, Note_off_c, 1, 62, 0
3, 122112, Note_on_c, 1, 69, 66
3, 122112, Note_on_c, 1, 61, 66
3, 122492, Note_off_c, 1, 69, 0
3, 122492, Note_off_c, 1, 61, 0
3, 123264, Note_on_c, 1, 64, 66
3, 123264, Note_on_c, 1, 57, 66
3, 123452, Note_off_c, 1, 64, 0
3, 123452, Note_off_c, 1, 57, 0
3, 123456, Note_on_c, 1, 64, 66
3, 123456, Note_on_c, 1, 57, 66
3, 123644, Note_off_c, 1, 64, 0
3, 123644, Note_off_c, 1, 57, 0
3, 123648, Note_on_c, 1, 57, 66
3, 123648, Note_on_c, 1, 62, 66
3, 123836, Note_off_c, 1, 57, 0
3, 123836, Note_off_c, 1, 62, 0
3, 123840, Note_on_c, 1, 57, 66
3, 123840, Note_on_c, 1, 62, 66
3, 124028, Note_off_c, 1, 57, 0
3, 124028, Note_off_c, 1, 62, 0
3, 124032, Note_on_c, 1, 57, 66
3, 124032, Note_on_c, 1, 61, 66
3, 124220, Note_off_c, 1, 57, 0
3, 124220, Note_off_c, 1, 61, 0
3, 124224, Note_on_c, 1, 57, 66
3, 124224, Note_on_c, 1, 61, 66
3, 124412, Note_off_c, 1, 57, 0
3, 124412, Note_off_c, 1, 61, 0
3, 124416, Note_on_c, 1, 62, 89
3, 124416, Note_on_c, 1, 57, 89
3, 124608, Note_off_c, 1, 62, 0
3, 124608, Note_off_c, 1, 57, 0
3, 124608, Note_on_c, 1, 71, 89
3, 124608, Note_on_c, 1, 62, 89
3, 124788, Note_off_c, 1, 71, 0
3, 124788, Note_off_c, 1, 62, 0
3, 124800, Note_on_c, 1, 69, 66
3, 124800, Note_on_c, 1, 61, 66
3, 124988, Note_off_c, 1, 69, 0
3, 124988, Note_off_c, 1, 61, 0
3, 124992, Note_on_c, 1, 69, 66
3, 124992, Note_on_c, 1, 61, 66
3, 125180, Note_off_c, 1, 69, 0
3, 125180, Note_off_c, 1, 61, 0
3, 125184, Note_on_c, 1, 68, 66
3, 125184, Note_on_c, 1, 62, 66
3, 125372, Note_off_c, 1, 68, 0
3, 125372, Note_off_c, 1, 62, 0
3, 125376, Note_on_c, 1, 68, 66
3, 125376, Note_on_c, 1, 62, 66
3, 125564, Note_off_c, 1, 68, 0
3, 125564, Note_off_c, 1, 62, 0
3, 125568, Note_on_c, 1, 69, 94
3, 125568, Note_on_c, 1, 61, 94
3, 125948, Note_off_c, 1, 69, 0
3, 125948, Note_off_c, 1, 61, 0
3, 125952, Note_on_c, 1, 64, 89
3, 126048, Note_on_c, 1, 68, 89
3, 126144, Note_off_c, 1, 68, 0
3, 126144, Note_on_c, 1, 69, 89
3, 126236, Note_off_c, 1, 69, 0
3, 126240, Note_on_c, 1, 68, 89
3, 126320, Note_off_c, 1, 68, 0
3, 126332, Note_off_c, 1, 64, 0
3, 126336, Note_on_c, 1, 69, 89
3, 126336, Note_on_c, 1, 64, 89
3, 126432, Note_off_c, 1, 69, 0
3, 126432, Note_on_c, 1, 71, 89
3, 126432, Note_on_c, 1, 68, 89
3, 126524, Note_off_c, 1, 71, 0
3, 126524, Note_off_c, 1, 68, 0
3, 126528, Note_on_c, 1, 73, 89
3, 126528, Note_on_c, 1, 69, 89
3, 126620, Note_off_c, 1, 73, 0
3, 126620, Note_off_c, 1, 69, 0
3, 126624, Note_on_c, 1, 74, 89
3, 126624, Note_on_c, 1, 71, 89
3, 126704, Note_off_c, 1, 74, 0
3, 126704, Note_off_c, 1, 71, 0
3, 126720, Note_on_c, 1, 73, 66
3, 126720, Note_on_c, 1, 69, 66
3, 126908, Note_off_c, 1, 64, 0
3, 126908, Note_off_c, 1, 73, 0
3, 126908, Note_off_c, 1, 69, 0
3, 126912, Note_on_c, 1, 71, 66
3, 126912, Note_on_c, 1, 68, 66
3, 126912, Note_on_c, 1, 64, 66
3, 127100, Note_off_c, 1, 71, 0
3, 127100, Note_off_c, 1, 68, 0
3, 127104, Note_on_c, 1, 71, 66
3, 127104, Note_on_c, 1, 68, 66
3, 127196, Note_off_c, 1, 71, 0
3, 127196, Note_off_c, 1, 68, 0
3, 127200, Note_on_c, 1, 70, 66
3, 127292, Note_off_c, 1, 64, 0
3, 127296, Note_off_c, 1, 70, 0
3, 127296, Note_on_c, 1, 71, 66
3, 127296, Note_on_c, 1, 64, 66
3, 127388, Note_off_c, 1, 71, 0
3, 127392, Note_on_c, 1, 70, 66
3, 127472, Note_off_c, 1, 70, 0
3, 127484, Note_off_c, 1, 64, 0
3, 127488, Note_on_c, 1, 71, 66
3, 127488, Note_on_c, 1, 68, 66
3, 127584, Note_off_c, 1, 71, 0
3, 127584, Note_on_c, 1, 73, 66
3, 127676, Note_off_c, 1, 68, 0
3, 127676, Note_off_c, 1, 73, 0
3, 127680, Note_on_c, 1, 74, 66
3, 127680, Note_on_c, 1, 71, 66
3, 127680, Note_on_c, 1, 68, 66
3, 127772, Note_off_c, 1, 74, 0
3, 127772, Note_off_c, 1, 71, 0
3, 127776, Note_on_c, 1, 76, 66
3, 127856, Note_off_c, 1, 76, 0
3, 127868, Note_off_c, 1, 68, 0
3, 127872, Note_on_c, 1, 74, 54
3, 127872, Note_on_c, 1, 71, 54
3, 127872, Note_on_c, 1, 68, 54
3, 127872, Note_on_c, 1, 64, 54
3, 128064, Note_off_c, 1, 74, 0
3, 128064, Note_off_c, 1, 71, 0
3, 128064, Note_off_c, 1, 68, 0
3, 128064, Note_on_c, 1, 73, 54
3, 128064, Note_on_c, 1, 69, 54
3, 128244, Note_off_c, 1, 73, 0
3, 128244, Note_off_c, 1, 69, 0
3, 128252, Note_off_c, 1, 64, 0
3, 128256, Note_on_c, 1, 69, 54
3, 128256, Note_on_c, 1, 64, 54
3, 128256, Note_on_c, 1, 73, 54
3, 129020, Note_off_c, 1, 69, 0
3, 129020, Note_off_c, 1, 64, 0
3, 129020, Note_off_c, 1, 73, 64
3, 129020, End_track
4, 0, Start_track
4, 0, Title_t, "Bob Fisher"
4, 0, Control_c, 2, 0, 0
4, 0, Program_c, 2, 48
4, 0, Control_c, 2, 10, 94
4, 0, Control_c, 2, 91, 67
4, 0, Control_c, 2, 93, 0
4, 0, Key_signature, 3, "major"
4, 0, Control_c, 2, 121, 0
4, 144, Control_c, 2, 10, 73
4, 192, Control_c, 2, 91, 73
4, 288, Program_c, 2, 48
4, 1152, Note_on_c, 2, 57, 67
4, 1152, Note_on_c, 2, 45, 69
4, 2492, Note_off_c, 2, 45, 0
4, 2492, Note_off_c, 2, 57, 0
4, 2496, Note_on_c, 2, 57, 67
4, 2496, Note_on_c, 2, 45, 67
4, 2684, Note_off_c, 2, 57, 0
4, 2684, Note_off_c, 2, 45, 0
4, 2688, Note_on_c, 2, 57, 67
4, 2688, Note_on_c, 2, 45, 67
4, 2876, Note_off_c, 2, 57, 0
4, 2876, Note_off_c, 2, 45, 0
4, 2880, Note_on_c, 2, 57, 67
4, 2880, Note_on_c, 2, 45, 67
4, 3068, Note_off_c, 2, 57, 0
4, 3068, Note_off_c, 2, 45, 0
4, 3072, Note_on_c, 2, 57, 67
4, 3072, Note_on_c, 2, 45, 67
4, 3260, Note_off_c, 2, 57, 0
4, 3260, Note_off_c, 2, 45, 0
4, 3264, Note_on_c, 2, 57, 67
4, 3264, Note_on_c, 2, 45, 67
4, 3452, Note_off_c, 2, 57, 0
4, 3452, Note_off_c, 2, 45, 0
4, 3456, Note_on_c, 2, 45, 69
4, 4796, Note_off_c, 2, 45, 0
4, 4800, Note_on_c, 2, 45, 67
4, 4988, Note_off_c, 2, 45, 0
4, 4992, Note_on_c, 2, 45, 67
4, 5180, Note_off_c, 2, 45, 0
4, 5184, Note_on_c, 2, 45, 67
4, 5372, Note_off_c, 2, 45, 0
4, 5376, Note_on_c, 2, 45, 67
4, 5564, Note_off_c, 2, 45, 0
4, 5568, Note_on_c, 2, 45, 67
4, 5756, Note_off_c, 2, 45, 0
4, 5760, Note_on_c, 2, 61, 63
4, 5760, Note_on_c, 2, 64, 63
4, 5880, Note_off_c, 2, 61, 0
4, 5880, Note_off_c, 2, 64, 0
4, 6144, Note_on_c, 2, 57, 63
4, 6144, Note_on_c, 2, 61, 63
4, 6144, Note_on_c, 2, 64, 63
4, 6264, Note_off_c, 2, 57, 0
4, 6264, Note_off_c, 2, 61, 0
4, 6264, Note_off_c, 2, 64, 0
4, 6528, Note_on_c, 2, 52, 63
4, 6528, Note_on_c, 2, 64, 63
4, 6648, Note_off_c, 2, 52, 0
4, 6648, Note_off_c, 2, 64, 0
4, 6912, Note_on_c, 2, 64, 63
4, 6912, Note_on_c, 2, 56, 63
4, 7032, Note_off_c, 2, 64, 0
4, 7032, Note_off_c, 2, 56, 0
4, 7296, Note_on_c, 2, 64, 63
4, 7296, Note_on_c, 2, 56, 63
4, 7296, Note_on_c, 2, 52, 63
4, 7416, Note_off_c, 2, 64, 0
4, 7416, Note_off_c, 2, 56, 0
4, 7416, Note_off_c, 2, 52, 0
4, 7680, Note_on_c, 2, 64, 63
4, 7680, Note_on_c, 2, 57, 63
4, 7800, Note_off_c, 2, 64, 0
4, 7800, Note_off_c, 2, 57, 0
4, 8064, Note_on_c, 2, 57, 67
4, 8064, Note_on_c, 2, 54, 67
4, 8252, Note_off_c, 2, 57, 0
4, 8256, Note_on_c, 2, 54, 67
4, 8444, Note_off_c, 2, 54, 0
4, 8444, Note_off_c, 2, 54, 0
4, 8448, Note_on_c, 2, 55, 67
4, 8448, Note_on_c, 2, 49, 67
4, 8636, Note_off_c, 2, 55, 0
4, 8640, Note_on_c, 2, 61, 70
4, 8828, Note_off_c, 2, 49, 0
4, 8828, Note_off_c, 2, 61, 0
4, 8832, Note_on_c, 2, 62, 73
4, 8832, Note_on_c, 2, 50, 73
4, 8924, Note_off_c, 2, 62, 0
4, 8924, Note_off_c, 2, 50, 0
4, 8928, Note_on_c, 2, 62, 74
4, 9024, Note_off_c, 2, 62, 0
4, 9024, Note_on_c, 2, 61, 76
4, 9116, Note_off_c, 2, 61, 0
4, 9120, Note_on_c, 2, 59, 77
4, 9200, Note_off_c, 2, 59, 0
4, 9216, Note_on_c, 2, 57, 89
4, 9404, Note_off_c, 2, 57, 0
4, 9408, Note_on_c, 2, 50, 89
4, 9596, Note_off_c, 2, 50, 0
4, 9600, Note_on_c, 2, 52, 81
4, 9788, Note_off_c, 2, 52, 0
4, 9792, Note_on_c, 2, 61, 74
4, 9984, Note_off_c, 2, 61, 0
4, 9984, Note_on_c, 2, 52, 67
4, 9984, Note_on_c, 2, 59, 67
4, 10164, Note_off_c, 2, 59, 0
4, 10172, Note_off_c, 2, 52, 0
4, 10176, Note_on_c, 2, 62, 67
4, 10368, Note_off_c, 2, 62, 0
4, 10368, Note_on_c, 2, 61, 67
4, 10368, Note_on_c, 2, 54, 67
4, 10740, Note_off_c, 2, 61, 0
4, 10748, Note_off_c, 2, 54, 0
4, 11712, Note_on_c, 2, 52, 67
4, 11900, Note_off_c, 2, 52, 0
4, 11904, Note_on_c, 2, 52, 67
4, 12092, Note_off_c, 2, 52, 0
4, 12096, Note_on_c, 2, 50, 89
4, 12096, Note_on_c, 2, 59, 89
4, 12288, Note_off_c, 2, 50, 0
4, 12288, Note_off_c, 2, 59, 0
4, 12288, Note_on_c, 2, 49, 81
4, 12288, Note_on_c, 2, 61, 81
4, 12476, Note_off_c, 2, 49, 0
4, 12476, Note_off_c, 2, 61, 0
4, 12480, Note_on_c, 2, 47, 74
4, 12480, Note_on_c, 2, 52, 74
4, 12660, Note_off_c, 2, 47, 0
4, 12660, Note_off_c, 2, 52, 0
4, 12672, Note_on_c, 2, 52, 67
4, 12672, Note_on_c, 2, 45, 69
4, 12864, Note_off_c, 2, 52, 0
4, 12864, Note_on_c, 2, 57, 67
4, 13040, Note_on_c, 2, 57, 67
4, 13044, Note_off_c, 2, 57, 0
4, 13996, Note_off_c, 2, 57, 0
4, 14012, Note_off_c, 2, 45, 0
4, 14016, Note_on_c, 2, 57, 67
4, 14016, Note_on_c, 2, 45, 67
4, 14204, Note_off_c, 2, 57, 0
4, 14204, Note_off_c, 2, 45, 0
4, 14208, Note_on_c, 2, 57, 67
4, 14208, Note_on_c, 2, 45, 67
4, 14396, Note_off_c, 2, 57, 0
4, 14396, Note_off_c, 2, 45, 0
4, 14400, Note_on_c, 2, 57, 67
4, 14400, Note_on_c, 2, 45, 67
4, 14588, Note_off_c, 2, 57, 0
4, 14588, Note_off_c, 2, 45, 0
4, 14592, Note_on_c, 2, 57, 67
4, 14592, Note_on_c, 2, 45, 67
4, 14780, Note_off_c, 2, 57, 0
4, 14780, Note_off_c, 2, 45, 0
4, 14784, Note_on_c, 2, 57, 67
4, 14784, Note_on_c, 2, 45, 67
4, 14972, Note_off_c, 2, 57, 0
4, 14972, Note_off_c, 2, 45, 0
4, 14976, Note_on_c, 2, 45, 69
4, 16316, Note_off_c, 2, 45, 0
4, 16320, Note_on_c, 2, 45, 67
4, 16508, Note_off_c, 2, 45, 0
4, 16512, Note_on_c, 2, 45, 67
4, 16700, Note_off_c, 2, 45, 0
4, 16704, Note_on_c, 2, 45, 67
4, 16892, Note_off_c, 2, 45, 0
4, 16896, Note_on_c, 2, 45, 67
4, 17084, Note_off_c, 2, 45, 0
4, 17088, Note_on_c, 2, 45, 67
4, 17276, Note_off_c, 2, 45, 0
4, 17280, Note_on_c, 2, 64, 63
4, 17280, Note_on_c, 2, 61, 63
4, 17400, Note_off_c, 2, 64, 0
4, 17400, Note_off_c, 2, 61, 0
4, 17664, Note_on_c, 2, 64, 63
4, 17664, Note_on_c, 2, 61, 63
4, 17664, Note_on_c, 2, 57, 63
4, 17784, Note_off_c, 2, 64, 0
4, 17784, Note_off_c, 2, 61, 0
4, 17784, Note_off_c, 2, 57, 0
4, 18048, Note_on_c, 2, 64, 63
4, 18048, Note_on_c, 2, 52, 63
4, 18168, Note_off_c, 2, 64, 0
4, 18168, Note_off_c, 2, 52, 0
4, 18432, Note_on_c, 2, 64, 63
4, 18432, Note_on_c, 2, 56, 63
4, 18552, Note_off_c, 2, 64, 0
4, 18552, Note_off_c, 2, 56, 0
4, 18816, Note_on_c, 2, 64, 63
4, 18816, Note_on_c, 2, 56, 63
4, 18816, Note_on_c, 2, 52, 63
4, 18936, Note_off_c, 2, 64, 0
4, 18936, Note_off_c, 2, 56, 0
4, 18936, Note_off_c, 2, 52, 0
4, 19200, Note_on_c, 2, 64, 63
4, 19200, Note_on_c, 2, 57, 63
4, 19320, Note_off_c, 2, 64, 0
4, 19320, Note_off_c, 2, 57, 0
4, 20736, Note_on_c, 2, 45, 78
4, 20736, Note_on_c, 2, 57, 77
4, 20924, Note_off_c, 2, 45, 0
4, 20928, Note_on_c, 2, 50, 77
4, 21116, Note_off_c, 2, 50, 0
4, 21120, Note_off_c, 2, 57, 0
4, 21120, Note_on_c, 2, 52, 77
4, 21120, Note_on_c, 2, 57, 77
4, 21300, Note_off_c, 2, 57, 0
4, 21308, Note_off_c, 2, 52, 0
4, 21312, Note_on_c, 2, 52, 77
4, 21500, Note_off_c, 2, 52, 0
4, 21504, Note_on_c, 2, 52, 77
4, 21692, Note_off_c, 2, 52, 0
4, 21696, Note_on_c, 2, 52, 77
4, 21884, Note_off_c, 2, 52, 0
4, 21888, Note_on_c, 2, 52, 77
4, 21888, Note_on_c, 2, 45, 78
4, 22268, Note_off_c, 2, 52, 0
4, 22268, Note_off_c, 2, 45, 0
4, 23232, Note_on_c, 2, 59, 77
4, 23232, Note_on_c, 2, 52, 77
4, 23420, Note_off_c, 2, 59, 0
4, 23420, Note_off_c, 2, 52, 0
4, 23424, Note_on_c, 2, 59, 77
4, 23424, Note_on_c, 2, 52, 77
4, 23612, Note_off_c, 2, 59, 0
4, 23612, Note_off_c, 2, 52, 0
4, 23616, Note_on_c, 2, 64, 77
4, 23616, Note_on_c, 2, 56, 77
4, 23804, Note_off_c, 2, 64, 0
4, 23808, Note_off_c, 2, 56, 0
4, 23808, Note_on_c, 2, 57, 77
4, 23996, Note_off_c, 2, 57, 0
4, 24000, Note_on_c, 2, 57, 77
4, 24000, Note_on_c, 2, 54, 77
4, 24180, Note_off_c, 2, 57, 0
4, 24180, Note_off_c, 2, 54, 0
4, 24192, Note_on_c, 2, 59, 54
4, 24192, Note_on_c, 2, 56, 54
4, 24192, Note_on_c, 2, 52, 54
4, 24380, Note_off_c, 2, 59, 0
4, 24380, Note_off_c, 2, 56, 0
4, 24380, Note_off_c, 2, 52, 0
4, 24384, Note_on_c, 2, 64, 54
4, 24572, Note_off_c, 2, 64, 0
4, 24576, Note_on_c, 2, 64, 54
4, 24764, Note_off_c, 2, 64, 0
4, 24768, Note_on_c, 2, 64, 54
4, 24956, Note_off_c, 2, 64, 0
4, 24960, Note_on_c, 2, 64, 54
4, 25148, Note_off_c, 2, 64, 0
4, 25152, Note_on_c, 2, 64, 54
4, 25340, Note_off_c, 2, 64, 0
4, 25344, Note_on_c, 2, 63, 54
4, 25532, Note_off_c, 2, 63, 0
4, 25536, Note_on_c, 2, 63, 54
4, 25724, Note_off_c, 2, 63, 0
4, 25728, Note_on_c, 2, 63, 54
4, 25916, Note_off_c, 2, 63, 0
4, 25920, Note_on_c, 2, 63, 54
4, 26108, Note_off_c, 2, 63, 0
4, 26112, Note_on_c, 2, 63, 54
4, 26300, Note_off_c, 2, 63, 0
4, 26304, Note_on_c, 2, 63, 54
4, 26492, Note_off_c, 2, 63, 0
4, 26496, Note_on_c, 2, 61, 54
4, 26684, Note_off_c, 2, 61, 0
4, 26688, Note_on_c, 2, 61, 54
4, 26876, Note_off_c, 2, 61, 0
4, 26880, Note_on_c, 2, 61, 54
4, 27068, Note_off_c, 2, 61, 0
4, 27072, Note_on_c, 2, 61, 54
4, 27260, Note_off_c, 2, 61, 0
4, 27264, Note_on_c, 2, 54, 54
4, 27452, Note_off_c, 2, 54, 0
4, 27456, Note_on_c, 2, 54, 54
4, 27644, Note_off_c, 2, 54, 0
4, 27648, Note_on_c, 2, 59, 54
4, 28796, Note_off_c, 2, 59, 0
4, 28800, Note_on_c, 2, 59, 54
4, 28800, Note_on_c, 2, 52, 54
4, 28988, Note_off_c, 2, 59, 0
4, 28988, Note_off_c, 2, 52, 0
4, 29184, Note_on_c, 2, 52, 54
4, 29372, Note_off_c, 2, 52, 0
4, 29568, Note_on_c, 2, 52, 54
4, 29756, Note_off_c, 2, 52, 0
4, 29952, Note_on_c, 2, 51, 54
4, 30140, Note_off_c, 2, 51, 0
4, 30336, Note_on_c, 2, 51, 54
4, 30524, Note_off_c, 2, 51, 0
4, 30720, Note_on_c, 2, 51, 54
4, 30908, Note_off_c, 2, 51, 0
4, 31104, Note_on_c, 2, 49, 54
4, 31292, Note_off_c, 2, 49, 0
4, 31488, Note_on_c, 2, 49, 54
4, 31676, Note_off_c, 2, 49, 0
4, 31872, Note_on_c, 2, 49, 54
4, 32060, Note_off_c, 2, 49, 0
4, 32256, Note_on_c, 2, 47, 54
4, 32636, Note_off_c, 2, 47, 0
4, 32640, Note_on_c, 2, 47, 54
4, 33020, Note_off_c, 2, 47, 0
4, 33216, Note_on_c, 2, 59, 60
4, 33404, Note_off_c, 2, 59, 0
4, 33408, Note_on_c, 2, 52, 66
4, 33600, Note_off_c, 2, 52, 0
4, 33600, Note_on_c, 2, 40, 68
4, 33780, Note_off_c, 2, 40, 0
4, 33792, Note_on_c, 2, 47, 66
4, 34172, Note_off_c, 2, 47, 0
4, 34176, Note_on_c, 2, 56, 78
4, 34368, Note_off_c, 2, 56, 0
4, 34368, Note_on_c, 2, 54, 78
4, 34548, Note_off_c, 2, 54, 0
4, 34560, Note_on_c, 2, 52, 78
4, 34656, Note_off_c, 2, 52, 0
4, 34656, Note_on_c, 2, 51, 78
4, 34748, Note_off_c, 2, 51, 0
4, 34752, Note_on_c, 2, 52, 78
4, 34844, Note_off_c, 2, 52, 0
4, 34848, Note_on_c, 2, 45, 78
4, 34928, Note_off_c, 2, 45, 0
4, 34928, Note_on_c, 2, 47, 78
4, 35308, Note_off_c, 2, 47, 0
4, 35712, Note_on_c, 2, 52, 67
4, 36092, Note_off_c, 2, 52, 0
4, 36864, Note_on_c, 2, 45, 67
4, 37244, Note_off_c, 2, 45, 0
4, 38016, Note_on_c, 2, 47, 67
4, 38396, Note_off_c, 2, 47, 0
4, 39168, Note_on_c, 2, 47, 67
4, 39552, Note_off_c, 2, 47, 0
4, 39552, Note_on_c, 2, 52, 67
4, 39924, Note_off_c, 2, 52, 0
4, 40320, Note_on_c, 2, 52, 67
4, 40320, Note_on_c, 2, 40, 67
4, 40368, Note_off_c, 2, 52, 0
4, 40368, Note_off_c, 2, 40, 0
4, 40416, Note_on_c, 2, 56, 67
4, 40416, Note_on_c, 2, 52, 67
4, 40464, Note_off_c, 2, 56, 0
4, 40464, Note_off_c, 2, 52, 0
4, 40512, Note_on_c, 2, 59, 67
4, 40512, Note_on_c, 2, 56, 67
4, 40560, Note_off_c, 2, 59, 0
4, 40560, Note_off_c, 2, 56, 0
4, 40608, Note_on_c, 2, 59, 67
4, 40608, Note_on_c, 2, 56, 67
4, 40656, Note_off_c, 2, 59, 0
4, 40656, Note_off_c, 2, 56, 0
4, 40704, Note_on_c, 2, 56, 67
4, 40704, Note_on_c, 2, 52, 67
4, 40752, Note_off_c, 2, 56, 0
4, 40752, Note_off_c, 2, 52, 0
4, 40800, Note_on_c, 2, 56, 67
4, 40800, Note_on_c, 2, 52, 67
4, 40848, Note_off_c, 2, 56, 0
4, 40848, Note_off_c, 2, 52, 0
4, 40896, Note_on_c, 2, 59, 67
4, 40896, Note_on_c, 2, 56, 67
4, 40944, Note_off_c, 2, 59, 0
4, 40944, Note_off_c, 2, 56, 0
4, 40992, Note_on_c, 2, 59, 67
4, 40992, Note_on_c, 2, 56, 67
4, 41040, Note_off_c, 2, 59, 0
4, 41040, Note_off_c, 2, 56, 0
4, 41088, Note_on_c, 2, 56, 67
4, 41088, Note_on_c, 2, 52, 67
4, 41136, Note_off_c, 2, 56, 0
4, 41136, Note_off_c, 2, 52, 0
4, 41184, Note_on_c, 2, 56, 67
4, 41184, Note_on_c, 2, 52, 67
4, 41232, Note_off_c, 2, 56, 0
4, 41232, Note_off_c, 2, 52, 0
4, 41280, Note_on_c, 2, 59, 67
4, 41280, Note_on_c, 2, 56, 67
4, 41328, Note_off_c, 2, 59, 0
4, 41328, Note_off_c, 2, 56, 0
4, 41376, Note_on_c, 2, 59, 67
4, 41376, Note_on_c, 2, 56, 67
4, 41424, Note_off_c, 2, 59, 0
4, 41424, Note_off_c, 2, 56, 0
4, 41472, Note_on_c, 2, 45, 67
4, 41520, Note_off_c, 2, 45, 0
4, 41568, Note_on_c, 2, 57, 67
4, 41568, Note_on_c, 2, 52, 67
4, 41616, Note_off_c, 2, 57, 0
4, 41616, Note_off_c, 2, 52, 0
4, 41664, Note_on_c, 2, 61, 67
4, 41664, Note_on_c, 2, 57, 67
4, 41712, Note_off_c, 2, 61, 0
4, 41712, Note_off_c, 2, 57, 0
4, 41760, Note_on_c, 2, 61, 67
4, 41760, Note_on_c, 2, 57, 67
4, 41808, Note_off_c, 2, 61, 0
4, 41808, Note_off_c, 2, 57, 0
4, 41856, Note_on_c, 2, 57, 67
4, 41856, Note_on_c, 2, 52, 67
4, 41904, Note_off_c, 2, 57, 0
4, 41904, Note_off_c, 2, 52, 0
4, 41952, Note_on_c, 2, 57, 67
4, 41952, Note_on_c, 2, 52, 67
4, 42000, Note_off_c, 2, 57, 0
4, 42000, Note_off_c, 2, 52, 0
4, 42048, Note_on_c, 2, 61, 67
4, 42048, Note_on_c, 2, 57, 67
4, 42096, Note_off_c, 2, 61, 0
4, 42096, Note_off_c, 2, 57, 0
4, 42144, Note_on_c, 2, 61, 67
4, 42144, Note_on_c, 2, 57, 67
4, 42192, Note_off_c, 2, 61, 0
4, 42192, Note_off_c, 2, 57, 0
4, 42240, Note_on_c, 2, 57, 67
4, 42240, Note_on_c, 2, 54, 67
4, 42288, Note_off_c, 2, 57, 0
4, 42288, Note_off_c, 2, 54, 0
4, 42336, Note_on_c, 2, 57, 67
4, 42336, Note_on_c, 2, 54, 67
4, 42384, Note_off_c, 2, 57, 0
4, 42384, Note_off_c, 2, 54, 0
4, 42432, Note_on_c, 2, 61, 67
4, 42432, Note_on_c, 2, 57, 67
4, 42480, Note_off_c, 2, 61, 0
4, 42480, Note_off_c, 2, 57, 0
4, 42528, Note_on_c, 2, 61, 67
4, 42528, Note_on_c, 2, 57, 67
4, 42576, Note_off_c, 2, 61, 0
4, 42576, Note_off_c, 2, 57, 0
4, 42624, Note_on_c, 2, 61, 67
4, 42816, Note_off_c, 2, 61, 0
4, 42816, Note_on_c, 2, 61, 67
4, 42996, Note_off_c, 2, 61, 0
4, 43008, Note_on_c, 2, 57, 67
4, 43056, Note_off_c, 2, 57, 0
4, 43104, Note_on_c, 2, 57, 67
4, 43152, Note_off_c, 2, 57, 0
4, 43200, Note_on_c, 2, 54, 67
4, 43248, Note_off_c, 2, 54, 0
4, 43296, Note_on_c, 2, 54, 67
4, 43344, Note_off_c, 2, 54, 0
4, 43392, Note_on_c, 2, 59, 67
4, 43392, Note_on_c, 2, 63, 67
4, 43580, Note_off_c, 2, 59, 0
4, 43580, Note_off_c, 2, 63, 0
4, 43584, Note_on_c, 2, 59, 67
4, 43584, Note_on_c, 2, 47, 67
4, 43772, Note_off_c, 2, 59, 0
4, 43772, Note_off_c, 2, 47, 0
4, 43776, Note_on_c, 2, 64, 67
4, 43776, Note_on_c, 2, 56, 67
4, 43872, Note_off_c, 2, 64, 0
4, 43872, Note_off_c, 2, 56, 0
4, 43872, Note_on_c, 2, 59, 67
4, 43872, Note_on_c, 2, 54, 67
4, 43964, Note_off_c, 2, 59, 0
4, 43964, Note_off_c, 2, 54, 0
4, 43968, Note_on_c, 2, 59, 67
4, 43968, Note_on_c, 2, 52, 67
4, 44060, Note_off_c, 2, 59, 0
4, 44060, Note_off_c, 2, 52, 0
4, 44064, Note_on_c, 2, 61, 67
4, 44064, Note_on_c, 2, 49, 67
4, 44144, Note_off_c, 2, 61, 0
4, 44144, Note_off_c, 2, 49, 0
4, 44160, Note_on_c, 2, 47, 66
4, 44208, Note_off_c, 2, 47, 0
4, 44256, Note_on_c, 2, 59, 65
4, 44256, Note_on_c, 2, 64, 65
4, 44304, Note_off_c, 2, 59, 0
4, 44304, Note_off_c, 2, 64, 0
4, 44352, Note_on_c, 2, 59, 63
4, 44368, Note_on_c, 2, 64, 63
4, 44400, Note_off_c, 2, 59, 0
4, 44416, Note_off_c, 2, 64, 0
4, 44448, Note_on_c, 2, 59, 61
4, 44448, Note_on_c, 2, 64, 61
4, 44496, Note_off_c, 2, 59, 0
4, 44496, Note_off_c, 2, 64, 0
4, 44544, Note_on_c, 2, 47, 59
4, 44592, Note_off_c, 2, 47, 0
4, 44640, Note_on_c, 2, 57, 58
4, 44640, Note_on_c, 2, 63, 58
4, 44688, Note_off_c, 2, 57, 0
4, 44688, Note_off_c, 2, 63, 0
4, 44736, Note_on_c, 2, 57, 56
4, 44736, Note_on_c, 2, 63, 56
4, 44784, Note_off_c, 2, 57, 0
4, 44784, Note_off_c, 2, 63, 0
4, 44832, Note_on_c, 2, 57, 55
4, 44832, Note_on_c, 2, 63, 55
4, 44880, Note_off_c, 2, 57, 0
4, 44880, Note_off_c, 2, 63, 0
4, 44928, Note_on_c, 2, 64, 54
4, 44928, Note_on_c, 2, 56, 54
4, 44928, Note_on_c, 2, 52, 54
4, 45116, Note_off_c, 2, 64, 0
4, 45116, Note_off_c, 2, 56, 0
4, 45116, Note_off_c, 2, 52, 0
4, 45120, Note_on_c, 2, 52, 54
4, 45308, Note_off_c, 2, 52, 0
4, 45312, Note_on_c, 2, 40, 54
4, 45500, Note_off_c, 2, 40, 0
4, 45504, Note_on_c, 2, 52, 54
4, 45692, Note_off_c, 2, 52, 0
4, 45696, Note_on_c, 2, 40, 54
4, 45884, Note_off_c, 2, 40, 0
4, 45888, Note_on_c, 2, 52, 54
4, 46076, Note_off_c, 2, 52, 0
4, 46080, Note_on_c, 2, 40, 54
4, 46268, Note_off_c, 2, 40, 0
4, 46272, Note_on_c, 2, 52, 55
4, 46460, Note_off_c, 2, 52, 0
4, 46464, Note_on_c, 2, 40, 57
4, 46652, Note_off_c, 2, 40, 0
4, 46656, Note_on_c, 2, 52, 59
4, 46844, Note_off_c, 2, 52, 0
4, 46864, Note_on_c, 2, 40, 61
4, 47040, Note_on_c, 2, 54, 64
4, 47052, Note_off_c, 2, 40, 0
4, 47228, Note_off_c, 2, 54, 0
4, 47232, Note_on_c, 2, 52, 66
4, 47232, Note_on_c, 2, 40, 66
4, 47612, Note_off_c, 2, 52, 0
4, 47612, Note_off_c, 2, 40, 0
4, 47616, Note_on_c, 2, 52, 70
4, 47616, Note_on_c, 2, 40, 70
4, 47996, Note_off_c, 2, 52, 0
4, 47996, Note_off_c, 2, 40, 0
4, 48000, Note_on_c, 2, 52, 74
4, 48000, Note_on_c, 2, 40, 74
4, 48380, Note_off_c, 2, 52, 0
4, 48380, Note_off_c, 2, 40, 0
4, 48384, Note_on_c, 2, 57, 78
4, 48384, Note_on_c, 2, 45, 78
4, 48764, Note_off_c, 2, 57, 0
4, 48764, Note_off_c, 2, 45, 0
4, 48768, Note_on_c, 2, 57, 78
4, 48768, Note_on_c, 2, 45, 78
4, 49148, Note_off_c, 2, 57, 0
4, 49148, Note_off_c, 2, 45, 0
4, 49152, Note_on_c, 2, 57, 78
4, 49152, Note_on_c, 2, 45, 78
4, 49532, Note_off_c, 2, 57, 0
4, 49532, Note_off_c, 2, 45, 0
4, 49536, Note_on_c, 2, 45, 78
4, 49536, Note_on_c, 2, 57, 78
4, 50876, Note_off_c, 2, 45, 0
4, 50876, Note_off_c, 2, 57, 0
4, 50880, Note_on_c, 2, 57, 89
4, 50880, Note_on_c, 2, 45, 89
4, 51068, Note_off_c, 2, 57, 0
4, 51068, Note_off_c, 2, 45, 0
4, 51072, Note_on_c, 2, 57, 67
4, 51072, Note_on_c, 2, 45, 67
4, 51260, Note_off_c, 2, 57, 0
4, 51260, Note_off_c, 2, 45, 0
4, 51264, Note_on_c, 2, 57, 67
4, 51264, Note_on_c, 2, 45, 67
4, 51452, Note_off_c, 2, 57, 0
4, 51452, Note_off_c, 2, 45, 0
4, 51456, Note_on_c, 2, 57, 67
4, 51456, Note_on_c, 2, 45, 67
4, 51644, Note_off_c, 2, 57, 0
4, 51644, Note_off_c, 2, 45, 0
4, 51648, Note_on_c, 2, 57, 67
4, 51648, Note_on_c, 2, 45, 67
4, 51836, Note_off_c, 2, 57, 0
4, 51836, Note_off_c, 2, 45, 0
4, 51840, Note_on_c, 2, 57, 67
4, 51840, Note_on_c, 2, 45, 67
4, 53180, Note_off_c, 2, 45, 0
4, 53180, Note_off_c, 2, 57, 0
4, 53184, Note_on_c, 2, 57, 67
4, 53276, Note_off_c, 2, 57, 0
4, 53376, Note_on_c, 2, 57, 67
4, 53468, Note_off_c, 2, 57, 0
4, 53568, Note_on_c, 2, 52, 67
4, 53660, Note_off_c, 2, 52, 0
4, 53760, Note_on_c, 2, 49, 67
4, 53852, Note_off_c, 2, 49, 0
4, 53952, Note_on_c, 2, 45, 67
4, 54044, Note_off_c, 2, 45, 0
4, 54144, Note_on_c, 2, 52, 67
4, 54144, Note_on_c, 2, 49, 67
4, 54236, Note_off_c, 2, 52, 0
4, 54236, Note_off_c, 2, 49, 0
4, 54528, Note_on_c, 2, 52, 67
4, 54528, Note_on_c, 2, 45, 67
4, 54620, Note_off_c, 2, 52, 0
4, 54620, Note_off_c, 2, 45, 0
4, 54912, Note_on_c, 2, 52, 67
4, 54912, Note_on_c, 2, 40, 67
4, 55004, Note_off_c, 2, 52, 0
4, 55004, Note_off_c, 2, 40, 0
4, 55296, Note_on_c, 2, 52, 67
4, 55296, Note_on_c, 2, 44, 67
4, 55388, Note_off_c, 2, 52, 0
4, 55388, Note_off_c, 2, 44, 0
4, 55680, Note_on_c, 2, 52, 67
4, 55680, Note_on_c, 2, 40, 67
4, 55772, Note_off_c, 2, 52, 0
4, 55772, Note_off_c, 2, 40, 0
4, 56064, Note_on_c, 2, 52, 67
4, 56064, Note_on_c, 2, 45, 67
4, 56156, Note_off_c, 2, 52, 0
4, 56156, Note_off_c, 2, 45, 0
4, 56448, Note_on_c, 2, 49, 68
4, 56544, Note_off_c, 2, 49, 0
4, 56544, Note_on_c, 2, 47, 68
4, 56624, Note_off_c, 2, 47, 0
4, 56640, Note_on_c, 2, 47, 69
4, 56736, Note_off_c, 2, 47, 0
4, 56736, Note_on_c, 2, 45, 70
4, 56816, Note_off_c, 2, 45, 0
4, 56832, Note_on_c, 2, 45, 71
4, 56928, Note_off_c, 2, 45, 0
4, 56928, Note_on_c, 2, 44, 72
4, 57008, Note_off_c, 2, 44, 0
4, 57024, Note_on_c, 2, 44, 73
4, 57120, Note_off_c, 2, 44, 0
4, 57120, Note_on_c, 2, 42, 74
4, 57200, Note_off_c, 2, 42, 0
4, 57216, Note_on_c, 2, 42, 75
4, 57312, Note_off_c, 2, 42, 0
4, 57312, Note_on_c, 2, 40, 76
4, 57392, Note_off_c, 2, 40, 0
4, 57408, Note_on_c, 2, 40, 77
4, 57504, Note_off_c, 2, 40, 0
4, 57504, Note_on_c, 2, 38, 78
4, 57584, Note_off_c, 2, 38, 0
4, 57600, Note_on_c, 2, 49, 78
4, 57600, Note_on_c, 2, 37, 78
4, 57792, Note_off_c, 2, 49, 0
4, 57792, Note_off_c, 2, 37, 0
4, 57792, Note_on_c, 2, 50, 78
4, 57792, Note_on_c, 2, 38, 78
4, 57972, Note_off_c, 2, 50, 0
4, 57972, Note_off_c, 2, 38, 0
4, 57984, Note_on_c, 2, 52, 78
4, 57984, Note_on_c, 2, 40, 78
4, 58172, Note_off_c, 2, 52, 0
4, 58172, Note_off_c, 2, 40, 0
4, 58176, Note_on_c, 2, 52, 78
4, 58176, Note_on_c, 2, 40, 78
4, 58364, Note_off_c, 2, 52, 0
4, 58364, Note_off_c, 2, 40, 0
4, 58368, Note_on_c, 2, 52, 78
4, 58368, Note_on_c, 2, 40, 78
4, 58556, Note_off_c, 2, 52, 0
4, 58556, Note_off_c, 2, 40, 0
4, 58560, Note_on_c, 2, 52, 78
4, 58560, Note_on_c, 2, 40, 78
4, 58748, Note_off_c, 2, 52, 0
4, 58748, Note_off_c, 2, 40, 0
4, 58752, Note_on_c, 2, 54, 78
4, 58752, Note_on_c, 2, 42, 78
4, 59132, Note_off_c, 2, 54, 0
4, 59132, Note_off_c, 2, 42, 0
4, 60096, Note_on_c, 2, 59, 74
4, 60096, Note_on_c, 2, 52, 74
4, 60188, Note_off_c, 2, 59, 0
4, 60188, Note_off_c, 2, 52, 0
4, 60288, Note_on_c, 2, 59, 78
4, 60288, Note_on_c, 2, 52, 78
4, 60380, Note_off_c, 2, 59, 0
4, 60380, Note_off_c, 2, 52, 0
4, 60480, Note_on_c, 2, 59, 78
4, 60480, Note_on_c, 2, 50, 78
4, 60672, Note_off_c, 2, 59, 0
4, 60672, Note_off_c, 2, 50, 0
4, 60672, Note_on_c, 2, 61, 74
4, 60672, Note_on_c, 2, 49, 74
4, 60860, Note_off_c, 2, 61, 0
4, 60860, Note_off_c, 2, 49, 0
4, 60864, Note_on_c, 2, 52, 70
4, 60864, Note_on_c, 2, 47, 70
4, 61044, Note_off_c, 2, 52, 0
4, 61044, Note_off_c, 2, 47, 0
4, 61056, Note_on_c, 2, 52, 67
4, 61056, Note_on_c, 2, 45, 67
4, 61244, Note_off_c, 2, 52, 0
4, 61244, Note_off_c, 2, 45, 0
4, 65664, Note_on_c, 2, 57, 67
4, 65852, Note_off_c, 2, 57, 0
4, 66048, Note_on_c, 2, 57, 67
4, 66236, Note_off_c, 2, 57, 0
4, 66432, Note_on_c, 2, 57, 67
4, 66620, Note_off_c, 2, 57, 0
4, 66816, Note_on_c, 2, 56, 67
4, 67004, Note_off_c, 2, 56, 0
4, 67200, Note_on_c, 2, 56, 67
4, 67388, Note_off_c, 2, 56, 0
4, 67584, Note_on_c, 2, 56, 67
4, 67772, Note_off_c, 2, 56, 0
4, 67968, Note_on_c, 2, 54, 67
4, 68156, Note_off_c, 2, 54, 0
4, 68352, Note_on_c, 2, 54, 67
4, 68540, Note_off_c, 2, 54, 0
4, 68544, Note_on_c, 2, 61, 67
4, 68732, Note_off_c, 2, 61, 0
4, 68736, Note_on_c, 2, 54, 67
4, 68736, Note_on_c, 2, 59, 67
4, 68924, Note_off_c, 2, 54, 0
4, 68924, Note_off_c, 2, 59, 0
4, 68928, Note_on_c, 2, 59, 67
4, 69116, Note_off_c, 2, 59, 0
4, 69120, Note_on_c, 2, 52, 67
4, 69312, Note_on_c, 2, 59, 67
4, 69500, Note_off_c, 2, 52, 0
4, 69500, Note_off_c, 2, 59, 0
4, 69504, Note_on_c, 2, 52, 67
4, 69504, Note_on_c, 2, 59, 67
4, 69884, Note_off_c, 2, 52, 0
4, 69884, Note_off_c, 2, 59, 0
4, 70080, Note_on_c, 2, 52, 67
4, 70268, Note_off_c, 2, 52, 0
4, 70272, Note_on_c, 2, 57, 67
4, 70464, Note_off_c, 2, 57, 0
4, 70464, Note_on_c, 2, 45, 67
4, 70644, Note_off_c, 2, 45, 0
4, 70656, Note_on_c, 2, 52, 67
4, 71036, Note_off_c, 2, 52, 0
4, 71040, Note_on_c, 2, 52, 78
4, 71040, Note_on_c, 2, 49, 78
4, 71232, Note_off_c, 2, 52, 0
4, 71232, Note_off_c, 2, 49, 0
4, 71232, Note_on_c, 2, 56, 78
4, 71232, Note_on_c, 2, 52, 78
4, 71232, Note_on_c, 2, 50, 78
4, 71232, Note_on_c, 2, 47, 78
4, 71412, Note_off_c, 2, 56, 0
4, 71412, Note_off_c, 2, 52, 0
4, 71412, Note_off_c, 2, 50, 0
4, 71412, Note_off_c, 2, 47, 0
4, 71424, Note_on_c, 2, 57, 78
4, 71424, Note_on_c, 2, 52, 78
4, 71424, Note_on_c, 2, 49, 78
4, 71424, Note_on_c, 2, 45, 78
4, 71520, Note_off_c, 2, 57, 0
4, 71520, Note_off_c, 2, 52, 0
4, 71520, Note_off_c, 2, 49, 0
4, 71520, Note_off_c, 2, 45, 0
4, 71520, Note_on_c, 2, 52, 78
4, 71520, Note_on_c, 2, 44, 78
4, 71600, Note_off_c, 2, 52, 0
4, 71612, Note_off_c, 2, 44, 0
4, 71616, Note_on_c, 2, 57, 78
4, 71616, Note_on_c, 2, 52, 78
4, 71616, Note_on_c, 2, 45, 78
4, 71708, Note_off_c, 2, 57, 0
4, 71708, Note_off_c, 2, 52, 0
4, 71708, Note_off_c, 2, 45, 0
4, 71712, Note_on_c, 2, 59, 78
4, 71712, Note_on_c, 2, 54, 78
4, 71712, Note_on_c, 2, 38, 78
4, 71792, Note_off_c, 2, 59, 0
4, 71792, Note_off_c, 2, 54, 0
4, 71792, Note_off_c, 2, 38, 0
4, 71808, Note_on_c, 2, 52, 78
4, 71808, Note_on_c, 2, 40, 78
4, 72188, Note_off_c, 2, 52, 0
4, 72188, Note_off_c, 2, 40, 0
4, 72576, Note_on_c, 2, 45, 67
4, 72956, Note_off_c, 2, 45, 0
4, 73728, Note_on_c, 2, 50, 67
4, 74108, Note_off_c, 2, 50, 0
4, 74880, Note_on_c, 2, 52, 67
4, 75260, Note_off_c, 2, 52, 0
4, 76032, Note_on_c, 2, 52, 67
4, 76416, Note_off_c, 2, 52, 0
4, 76416, Note_on_c, 2, 45, 67
4, 76788, Note_off_c, 2, 45, 0
4, 77184, Note_on_c, 2, 45, 67
4, 77232, Note_off_c, 2, 45, 0
4, 77280, Note_on_c, 2, 61, 67
4, 77280, Note_on_c, 2, 57, 67
4, 77328, Note_off_c, 2, 61, 0
4, 77328, Note_off_c, 2, 57, 0
4, 77376, Note_on_c, 2, 64, 67
4, 77376, Note_on_c, 2, 61, 67
4, 77424, Note_off_c, 2, 64, 0
4, 77424, Note_off_c, 2, 61, 0
4, 77472, Note_on_c, 2, 64, 67
4, 77472, Note_on_c, 2, 61, 67
4, 77520, Note_off_c, 2, 64, 0
4, 77520, Note_off_c, 2, 61, 0
4, 77568, Note_on_c, 2, 61, 67
4, 77568, Note_on_c, 2, 57, 67
4, 77616, Note_off_c, 2, 61, 0
4, 77616, Note_off_c, 2, 57, 0
4, 77664, Note_on_c, 2, 61, 67
4, 77664, Note_on_c, 2, 57, 67
4, 77712, Note_off_c, 2, 61, 0
4, 77712, Note_off_c, 2, 57, 0
4, 77760, Note_on_c, 2, 64, 67
4, 77760, Note_on_c, 2, 61, 67
4, 77808, Note_off_c, 2, 64, 0
4, 77808, Note_off_c, 2, 61, 0
4, 77856, Note_on_c, 2, 64, 67
4, 77856, Note_on_c, 2, 61, 67
4, 77904, Note_off_c, 2, 64, 0
4, 77904, Note_off_c, 2, 61, 0
4, 77952, Note_on_c, 2, 61, 67
4, 77952, Note_on_c, 2, 57, 67
4, 78000, Note_off_c, 2, 61, 0
4, 78000, Note_off_c, 2, 57, 0
4, 78048, Note_on_c, 2, 61, 67
4, 78048, Note_on_c, 2, 57, 67
4, 78096, Note_off_c, 2, 61, 0
4, 78096, Note_off_c, 2, 57, 0
4, 78144, Note_on_c, 2, 64, 67
4, 78144, Note_on_c, 2, 61, 67
4, 78192, Note_off_c, 2, 64, 0
4, 78192, Note_off_c, 2, 61, 0
4, 78240, Note_on_c, 2, 64, 67
4, 78240, Note_on_c, 2, 61, 67
4, 78288, Note_off_c, 2, 64, 0
4, 78288, Note_off_c, 2, 61, 0
4, 78336, Note_on_c, 2, 50, 67
4, 78384, Note_off_c, 2, 50, 0
4, 78432, Note_on_c, 2, 54, 67
4, 78432, Note_on_c, 2, 62, 67
4, 78480, Note_off_c, 2, 54, 0
4, 78480, Note_off_c, 2, 62, 0
4, 78528, Note_on_c, 2, 66, 67
4, 78528, Note_on_c, 2, 57, 67
4, 78576, Note_off_c, 2, 66, 0
4, 78576, Note_off_c, 2, 57, 0
4, 78624, Note_on_c, 2, 66, 67
4, 78624, Note_on_c, 2, 57, 67
4, 78672, Note_off_c, 2, 66, 0
4, 78672, Note_off_c, 2, 57, 0
4, 78720, Note_on_c, 2, 54, 67
4, 78720, Note_on_c, 2, 62, 67
4, 78768, Note_off_c, 2, 54, 0
4, 78768, Note_off_c, 2, 62, 0
4, 78816, Note_on_c, 2, 62, 67
4, 78816, Note_on_c, 2, 54, 67
4, 78864, Note_off_c, 2, 62, 0
4, 78864, Note_off_c, 2, 54, 0
4, 78912, Note_on_c, 2, 66, 67
4, 78912, Note_on_c, 2, 57, 67
4, 78960, Note_off_c, 2, 66, 0
4, 78960, Note_off_c, 2, 57, 0
4, 79008, Note_on_c, 2, 66, 67
4, 79008, Note_on_c, 2, 57, 67
4, 79056, Note_off_c, 2, 66, 0
4, 79056, Note_off_c, 2, 57, 0
4, 79104, Note_on_c, 2, 62, 67
4, 79104, Note_on_c, 2, 54, 67
4, 79152, Note_off_c, 2, 62, 0
4, 79152, Note_off_c, 2, 54, 0
4, 79200, Note_on_c, 2, 62, 67
4, 79200, Note_on_c, 2, 54, 67
4, 79248, Note_off_c, 2, 62, 0
4, 79248, Note_off_c, 2, 54, 0
4, 79296, Note_on_c, 2, 66, 67
4, 79296, Note_on_c, 2, 57, 67
4, 79344, Note_off_c, 2, 66, 0
4, 79344, Note_off_c, 2, 57, 0
4, 79392, Note_on_c, 2, 66, 67
4, 79392, Note_on_c, 2, 57, 67
4, 79440, Note_off_c, 2, 66, 0
4, 79440, Note_off_c, 2, 57, 0
4, 79488, Note_on_c, 2, 52, 68
4, 79680, Note_off_c, 2, 52, 0
4, 79680, Note_on_c, 2, 54, 69
4, 79860, Note_off_c, 2, 54, 0
4, 79872, Note_on_c, 2, 50, 71
4, 79964, Note_off_c, 2, 50, 0
4, 80064, Note_on_c, 2, 47, 73
4, 80156, Note_off_c, 2, 47, 0
4, 80256, Note_on_c, 2, 56, 75
4, 80256, Note_on_c, 2, 52, 75
4, 80348, Note_off_c, 2, 56, 0
4, 80348, Note_off_c, 2, 52, 0
4, 80448, Note_on_c, 2, 56, 77
4, 80448, Note_on_c, 2, 52, 77
4, 80540, Note_off_c, 2, 56, 0
4, 80540, Note_off_c, 2, 52, 0
4, 80640, Note_on_c, 2, 57, 78
4, 80640, Note_on_c, 2, 49, 78
4, 80736, Note_off_c, 2, 57, 0
4, 80736, Note_off_c, 2, 49, 0
4, 80736, Note_on_c, 2, 50, 78
4, 80736, Note_on_c, 2, 47, 78
4, 80828, Note_off_c, 2, 50, 0
4, 80828, Note_off_c, 2, 47, 0
4, 80832, Note_on_c, 2, 49, 78
4, 80832, Note_on_c, 2, 45, 78
4, 80924, Note_off_c, 2, 49, 0
4, 80924, Note_off_c, 2, 45, 0
4, 80928, Note_on_c, 2, 54, 78
4, 80928, Note_on_c, 2, 42, 78
4, 81008, Note_off_c, 2, 54, 0
4, 81008, Note_off_c, 2, 42, 0
4, 81024, Note_on_c, 2, 40, 78
4, 81116, Note_off_c, 2, 40, 0
4, 81120, Note_on_c, 2, 57, 78
4, 81120, Note_on_c, 2, 52, 78
4, 81212, Note_off_c, 2, 57, 0
4, 81212, Note_off_c, 2, 52, 0
4, 81216, Note_on_c, 2, 57, 78
4, 81216, Note_on_c, 2, 52, 78
4, 81308, Note_off_c, 2, 57, 0
4, 81308, Note_off_c, 2, 52, 0
4, 81312, Note_on_c, 2, 57, 78
4, 81312, Note_on_c, 2, 52, 78
4, 81404, Note_off_c, 2, 57, 0
4, 81404, Note_off_c, 2, 52, 0
4, 81408, Note_on_c, 2, 40, 78
4, 81500, Note_off_c, 2, 40, 0
4, 81504, Note_on_c, 2, 56, 78
4, 81504, Note_on_c, 2, 50, 78
4, 81596, Note_off_c, 2, 56, 0
4, 81596, Note_off_c, 2, 50, 0
4, 81600, Note_on_c, 2, 56, 78
4, 81600, Note_on_c, 2, 50, 78
4, 81692, Note_off_c, 2, 56, 0
4, 81692, Note_off_c, 2, 50, 0
4, 81696, Note_on_c, 2, 56, 78
4, 81696, Note_on_c, 2, 50, 78
4, 81788, Note_off_c, 2, 56, 0
4, 81788, Note_off_c, 2, 50, 0
4, 81792, Note_on_c, 2, 57, 78
4, 81792, Note_on_c, 2, 49, 78
4, 81792, Note_on_c, 2, 45, 78
4, 81980, Note_off_c, 2, 57, 0
4, 81980, Note_off_c, 2, 49, 0
4, 81980, Note_off_c, 2, 45, 0
4, 81984, Note_on_c, 2, 57, 78
4, 82172, Note_off_c, 2, 57, 0
4, 82176, Note_on_c, 2, 45, 78
4, 82364, Note_off_c, 2, 45, 0
4, 82368, Note_on_c, 2, 57, 78
4, 82556, Note_off_c, 2, 57, 0
4, 82560, Note_on_c, 2, 45, 78
4, 82748, Note_off_c, 2, 45, 0
4, 82752, Note_on_c, 2, 57, 78
4, 82940, Note_off_c, 2, 57, 0
4, 82944, Note_on_c, 2, 45, 78
4, 83132, Note_off_c, 2, 45, 0
4, 83136, Note_on_c, 2, 57, 78
4, 83324, Note_off_c, 2, 57, 0
4, 83328, Note_on_c, 2, 45, 78
4, 83516, Note_off_c, 2, 45, 0
4, 83520, Note_on_c, 2, 57, 78
4, 83708, Note_off_c, 2, 57, 0
4, 83712, Note_on_c, 2, 45, 78
4, 83900, Note_off_c, 2, 45, 0
4, 83904, Note_on_c, 2, 57, 78
4, 84092, Note_off_c, 2, 57, 0
4, 84096, Note_on_c, 2, 57, 91
4, 84096, Note_on_c, 2, 45, 91
4, 84476, Note_off_c, 2, 57, 0
4, 84476, Note_off_c, 2, 45, 0
4, 84480, Note_on_c, 2, 45, 91
4, 84480, Note_on_c, 2, 33, 91
4, 84860, Note_off_c, 2, 45, 0
4, 84860, Note_off_c, 2, 33, 0
4, 84864, Note_on_c, 2, 57, 91
4, 84864, Note_on_c, 2, 45, 91
4, 85244, Note_off_c, 2, 57, 0
4, 85244, Note_off_c, 2, 45, 0
4, 85248, Note_on_c, 2, 62, 89
4, 85248, Note_on_c, 2, 57, 89
4, 85248, Note_on_c, 2, 54, 89
4, 85628, Note_off_c, 2, 62, 0
4, 85628, Note_off_c, 2, 57, 0
4, 85628, Note_off_c, 2, 54, 0
4, 85632, Note_on_c, 2, 62, 89
4, 85632, Note_on_c, 2, 57, 89
4, 85632, Note_on_c, 2, 54, 89
4, 86012, Note_off_c, 2, 62, 0
4, 86012, Note_off_c, 2, 57, 0
4, 86012, Note_off_c, 2, 54, 0
4, 86016, Note_on_c, 2, 62, 89
4, 86016, Note_on_c, 2, 57, 89
4, 86016, Note_on_c, 2, 54, 89
4, 86396, Note_off_c, 2, 62, 0
4, 86396, Note_off_c, 2, 57, 0
4, 86396, Note_off_c, 2, 54, 0
4, 86400, Note_on_c, 2, 61, 89
4, 86400, Note_on_c, 2, 57, 89
4, 86400, Note_on_c, 2, 52, 89
4, 86780, Note_off_c, 2, 61, 0
4, 86780, Note_off_c, 2, 57, 0
4, 86780, Note_off_c, 2, 52, 0
4, 86784, Note_on_c, 2, 61, 89
4, 86784, Note_on_c, 2, 57, 89
4, 86784, Note_on_c, 2, 52, 89
4, 87164, Note_off_c, 2, 61, 0
4, 87164, Note_off_c, 2, 57, 0
4, 87164, Note_off_c, 2, 52, 0
4, 87168, Note_on_c, 2, 61, 89
4, 87168, Note_on_c, 2, 57, 89
4, 87168, Note_on_c, 2, 52, 89
4, 87548, Note_off_c, 2, 61, 0
4, 87548, Note_off_c, 2, 57, 0
4, 87548, Note_off_c, 2, 52, 0
4, 87552, Note_on_c, 2, 59, 89
4, 87552, Note_on_c, 2, 57, 89
4, 87552, Note_on_c, 2, 54, 89
4, 87552, Note_on_c, 2, 50, 89
4, 87932, Note_off_c, 2, 59, 0
4, 87932, Note_off_c, 2, 57, 0
4, 87932, Note_off_c, 2, 54, 0
4, 87932, Note_off_c, 2, 50, 0
4, 87936, Note_on_c, 2, 59, 89
4, 87936, Note_on_c, 2, 57, 89
4, 87936, Note_on_c, 2, 54, 89
4, 87936, Note_on_c, 2, 50, 89
4, 88316, Note_off_c, 2, 59, 0
4, 88316, Note_off_c, 2, 57, 0
4, 88316, Note_off_c, 2, 54, 0
4, 88316, Note_off_c, 2, 50, 0
4, 88320, Note_on_c, 2, 59, 89
4, 88320, Note_on_c, 2, 57, 89
4, 88320, Note_on_c, 2, 54, 89
4, 88320, Note_on_c, 2, 50, 89
4, 88700, Note_off_c, 2, 59, 0
4, 88700, Note_off_c, 2, 57, 0
4, 88700, Note_off_c, 2, 54, 0
4, 88700, Note_off_c, 2, 50, 0
4, 88704, Note_on_c, 2, 61, 89
4, 88704, Note_on_c, 2, 57, 89
4, 88704, Note_on_c, 2, 52, 89
4, 89472, Note_off_c, 2, 61, 0
4, 89472, Note_off_c, 2, 57, 0
4, 89472, Note_off_c, 2, 52, 0
4, 114048, Note_on_c, 2, 57, 89
4, 114236, Note_off_c, 2, 57, 0
4, 114240, Note_on_c, 2, 54, 89
4, 114428, Note_off_c, 2, 54, 0
4, 114432, Note_on_c, 2, 55, 89
4, 114432, Note_on_c, 2, 49, 89
4, 114620, Note_off_c, 2, 55, 0
4, 114624, Note_on_c, 2, 61, 89
4, 114812, Note_off_c, 2, 49, 0
4, 114812, Note_off_c, 2, 61, 0
4, 114816, Note_on_c, 2, 62, 89
4, 114816, Note_on_c, 2, 50, 89
4, 114908, Note_off_c, 2, 62, 0
4, 114908, Note_off_c, 2, 50, 0
4, 114912, Note_on_c, 2, 62, 89
4, 115004, Note_off_c, 2, 62, 0
4, 115008, Note_on_c, 2, 61, 89
4, 115100, Note_off_c, 2, 61, 0
4, 115104, Note_on_c, 2, 59, 89
4, 115196, Note_off_c, 2, 59, 0
4, 115200, Note_on_c, 2, 57, 89
4, 115388, Note_off_c, 2, 57, 0
4, 115392, Note_on_c, 2, 50, 89
4, 115580, Note_off_c, 2, 50, 0
4, 115584, Note_on_c, 2, 52, 89
4, 115772, Note_off_c, 2, 52, 0
4, 115776, Note_on_c, 2, 61, 89
4, 115964, Note_off_c, 2, 61, 0
4, 115968, Note_on_c, 2, 52, 67
4, 115968, Note_on_c, 2, 59, 67
4, 116156, Note_off_c, 2, 52, 0
4, 116156, Note_off_c, 2, 59, 0
4, 116160, Note_on_c, 2, 62, 67
4, 116348, Note_off_c, 2, 62, 0
4, 116352, Note_on_c, 2, 61, 67
4, 116352, Note_on_c, 2, 54, 67
4, 116732, Note_off_c, 2, 61, 0
4, 116732, Note_off_c, 2, 54, 0
4, 117696, Note_on_c, 2, 52, 67
4, 117884, Note_off_c, 2, 52, 0
4, 117888, Note_on_c, 2, 52, 89
4, 118076, Note_off_c, 2, 52, 0
4, 118080, Note_on_c, 2, 50, 89
4, 118080, Note_on_c, 2, 59, 89
4, 118268, Note_off_c, 2, 50, 0
4, 118268, Note_off_c, 2, 59, 0
4, 118272, Note_on_c, 2, 49, 89
4, 118272, Note_on_c, 2, 61, 89
4, 118460, Note_off_c, 2, 49, 0
4, 118460, Note_off_c, 2, 61, 0
4, 118464, Note_on_c, 2, 47, 89
4, 118464, Note_on_c, 2, 52, 89
4, 118652, Note_off_c, 2, 47, 0
4, 118652, Note_off_c, 2, 52, 0
4, 118656, Note_on_c, 2, 52, 67
4, 118656, Note_on_c, 2, 45, 67
4, 119036, Note_off_c, 2, 52, 0
4, 119036, Note_off_c, 2, 45, 0
4, 120960, Note_on_c, 2, 50, 67
4, 121148, Note_off_c, 2, 50, 0
4, 121152, Note_on_c, 2, 54, 67
4, 121152, Note_on_c, 2, 50, 67
4, 121340, Note_off_c, 2, 54, 0
4, 121340, Note_off_c, 2, 50, 0
4, 121344, Note_on_c, 2, 52, 67
4, 121532, Note_off_c, 2, 52, 0
4, 121536, Note_on_c, 2, 52, 67
4, 121724, Note_off_c, 2, 52, 0
4, 121728, Note_on_c, 2, 52, 67
4, 121916, Note_off_c, 2, 52, 0
4, 121920, Note_on_c, 2, 52, 67
4, 122108, Note_off_c, 2, 52, 0
4, 122112, Note_on_c, 2, 54, 67
4, 122492, Note_off_c, 2, 54, 0
4, 123264, Note_on_c, 2, 49, 67
4, 123452, Note_off_c, 2, 49, 0
4, 123456, Note_on_c, 2, 49, 67
4, 123644, Note_off_c, 2, 49, 0
4, 123648, Note_on_c, 2, 47, 67
4, 123836, Note_off_c, 2, 47, 0
4, 123840, Note_on_c, 2, 47, 67
4, 124028, Note_off_c, 2, 47, 0
4, 124032, Note_on_c, 2, 45, 67
4, 124220, Note_off_c, 2, 45, 0
4, 124224, Note_on_c, 2, 45, 67
4, 124412, Note_off_c, 2, 45, 0
4, 124416, Note_on_c, 2, 50, 89
4, 124604, Note_off_c, 2, 50, 0
4, 124608, Note_on_c, 2, 50, 89
4, 124796, Note_off_c, 2, 50, 0
4, 124800, Note_on_c, 2, 52, 67
4, 124988, Note_off_c, 2, 52, 0
4, 124992, Note_on_c, 2, 52, 67
4, 125180, Note_off_c, 2, 52, 0
4, 125184, Note_on_c, 2, 52, 67
4, 125372, Note_off_c, 2, 52, 0
4, 125376, Note_on_c, 2, 52, 67
4, 125564, Note_off_c, 2, 52, 0
4, 125568, Note_on_c, 2, 45, 89
4, 125948, Note_off_c, 2, 45, 0
4, 125952, Note_on_c, 2, 49, 89
4, 126332, Note_off_c, 2, 49, 0
4, 126336, Note_on_c, 2, 45, 89
4, 126716, Note_off_c, 2, 45, 0
4, 126720, Note_on_c, 2, 52, 67
4, 127100, Note_off_c, 2, 52, 0
4, 127104, Note_on_c, 2, 56, 67
4, 127484, Note_off_c, 2, 56, 0
4, 127488, Note_on_c, 2, 52, 67
4, 127868, Note_off_c, 2, 52, 0
4, 127872, Note_on_c, 2, 57, 54
4, 128252, Note_off_c, 2, 57, 0
4, 128256, Note_on_c, 2, 45, 54
4, 129020, Note_off_c, 2, 45, 0
4, 129020, End_track
5, 0, Start_track
5, 0, Key_signature, 0, "major"
5, 0, End_track
6, 0, Start_track
6, 0, Key_signature, 0, "major"
6, 0, End_track
7, 0, Start_track
7, 0, Key_signature, 0, "major"
7, 0, End_track
8, 0, Start_track
8, 0, Key_signature, 0, "major"
8, 0, End_track
0, 0, End_of_file
