0, 0, Header, 1, 5, 384
1, 0, Start_track
1, 0, Time_signature, 4, 2, 96, 8
1, 0, Sequencer_specific, 3, 0, 0, 65
1, 0, Sequencer_specific, 5, 0, 0, 119, 14, 0
1, 0, Tempo, 500000
1, 559104, Tempo, 535714
1, 560640, Tempo, 1000000
1, 562176, Tempo, 483870
1, 573120, Tempo, 909090
1, 574464, Tempo, 500000
1, 586752, Tempo, 508474
1, 601344, Tempo, 526315
1, 628224, Tempo, 576923
1, 638976, Tempo, 508474
1, 642048, Tempo, 500000
1, 643584, Tempo, 491803
1, 645120, Tempo, 483870
1, 646656, Tempo, 476190
1, 648192, Tempo, 468750
1, 649728, Tempo, 461538
1, 651264, Tempo, 3000000
1, 651540, Tempo, 535714
1, 657792, Tempo, 576923
1, 668160, Tempo, 508474
1, 675840, Tempo, 500000
1, 712704, Tempo, 550458
1, 714240, Tempo, 576923
1, 714240, End_track
2, 0, Start_track
2, 0, Title_t, "Mozart Piano Concerto"
2, 0, Control_c, 0, 0, 0
2, 0, Program_c, 0, 0
2, 0, Control_c, 0, 10, 63
2, 0, Control_c, 0, 91, 70
2, 0, Control_c, 0, 93, 46
2, 0, Key_signature, -1, "minor"
2, 0, Control_c, 0, 121, 0
2, 384, Control_c, 0, 10, 63
2, 480, Control_c, 0, 91, 63
2, 576, Control_c, 0, 93, 35
2, 672, Program_c, 0, 0
2, 118272, Note_on_c, 0, 74, 75
2, 118272, Note_on_c, 0, 65, 75
2, 118652, Note_off_c, 0, 74, 64
2, 118652, Note_off_c, 0, 65, 64
2, 118656, Note_on_c, 0, 69, 75
2, 119036, Note_off_c, 0, 69, 64
2, 119040, Note_on_c, 0, 81, 81
2, 119420, Note_off_c, 0, 81, 64
2, 119424, Note_on_c, 0, 73, 75
2, 119804, Note_off_c, 0, 73, 64
2, 119808, Note_on_c, 0, 76, 75
2, 120192, Note_on_c, 0, 65, 75
2, 120192, Note_on_c, 0, 62, 75
2, 120380, Note_off_c, 0, 76, 64
2, 120384, Note_on_c, 0, 74, 75
2, 120572, Note_off_c, 0, 65, 64
2, 120572, Note_off_c, 0, 62, 64
2, 120572, Note_off_c, 0, 74, 64
2, 120576, Note_on_c, 0, 74, 75
2, 120576, Note_on_c, 0, 69, 75
2, 120576, Note_on_c, 0, 65, 75
2, 120956, Note_off_c, 0, 69, 64
2, 120956, Note_off_c, 0, 65, 64
2, 120960, Note_on_c, 0, 67, 75
2, 120960, Note_on_c, 0, 64, 75
2, 121340, Note_off_c, 0, 74, 64
2, 121340, Note_off_c, 0, 67, 64
2, 121340, Note_off_c, 0, 64, 64
2, 121344, Note_on_c, 0, 65, 75
2, 121344, Note_on_c, 0, 62, 75
2, 121728, Note_on_c, 0, 74, 75
2, 122108, Note_off_c, 0, 65, 64
2, 122108, Note_off_c, 0, 62, 64
2, 122108, Note_off_c, 0, 74, 64
2, 122112, Note_on_c, 0, 86, 83
2, 122492, Note_off_c, 0, 86, 64
2, 122496, Note_on_c, 0, 84, 82
2, 122684, Note_off_c, 0, 84, 64
2, 122688, Note_on_c, 0, 82, 81
2, 122876, Note_off_c, 0, 82, 64
2, 122880, Note_on_c, 0, 81, 80
2, 123264, Note_on_c, 0, 62, 75
2, 123264, Note_on_c, 0, 58, 75
2, 123452, Note_off_c, 0, 81, 64
2, 123456, Note_on_c, 0, 79, 75
2, 123644, Note_off_c, 0, 62, 64
2, 123644, Note_off_c, 0, 58, 64
2, 123644, Note_off_c, 0, 79, 64
2, 123648, Note_on_c, 0, 79, 75
2, 123648, Note_on_c, 0, 70, 75
2, 123648, Note_on_c, 0, 62, 75
2, 124016, Note_on_c, 0, 60, 75
2, 124028, Note_off_c, 0, 70, 64
2, 124028, Note_off_c, 0, 62, 64
2, 124032, Note_on_c, 0, 69, 75
2, 124396, Note_off_c, 0, 60, 64
2, 124412, Note_off_c, 0, 79, 64
2, 124412, Note_off_c, 0, 69, 64
2, 124416, Note_on_c, 0, 67, 75
2, 124416, Note_on_c, 0, 58, 75
2, 124800, Note_on_c, 0, 79, 75
2, 125180, Note_off_c, 0, 67, 64
2, 125180, Note_off_c, 0, 58, 64
2, 125180, Note_off_c, 0, 79, 64
2, 125184, Note_on_c, 0, 81, 75
2, 125372, Note_off_c, 0, 81, 64
2, 125376, Note_on_c, 0, 79, 75
2, 125564, Note_off_c, 0, 79, 64
2, 125568, Note_on_c, 0, 77, 75
2, 125756, Note_off_c, 0, 77, 64
2, 125760, Note_on_c, 0, 76, 75
2, 125948, Note_off_c, 0, 76, 64
2, 125952, Note_on_c, 0, 74, 75
2, 126332, Note_off_c, 0, 74, 64
2, 126336, Note_on_c, 0, 73, 75
2, 126336, Note_on_c, 0, 57, 75
2, 126336, Note_on_c, 0, 64, 75
2, 126716, Note_off_c, 0, 73, 64
2, 126716, Note_off_c, 0, 57, 64
2, 126716, Note_off_c, 0, 64, 64
2, 126720, Note_on_c, 0, 70, 75
2, 126720, Note_on_c, 0, 67, 75
2, 126720, Note_on_c, 0, 64, 75
2, 127100, Note_off_c, 0, 67, 64
2, 127100, Note_off_c, 0, 64, 64
2, 127104, Note_on_c, 0, 65, 75
2, 127104, Note_on_c, 0, 62, 75
2, 127484, Note_off_c, 0, 65, 64
2, 127484, Note_off_c, 0, 62, 64
2, 127488, Note_on_c, 0, 64, 75
2, 127488, Note_on_c, 0, 61, 75
2, 127676, Note_off_c, 0, 70, 64
2, 127680, Note_on_c, 0, 69, 75
2, 127852, Note_off_c, 0, 69, 64
2, 127872, Note_on_c, 0, 76, 75
2, 128044, Note_off_c, 0, 76, 64
2, 128064, Note_on_c, 0, 73, 75
2, 128236, Note_off_c, 0, 73, 64
2, 128252, Note_off_c, 0, 64, 64
2, 128252, Note_off_c, 0, 61, 64
2, 128256, Note_on_c, 0, 79, 76
2, 128428, Note_off_c, 0, 79, 64
2, 128448, Note_on_c, 0, 76, 75
2, 128620, Note_off_c, 0, 76, 64
2, 128640, Note_on_c, 0, 82, 78
2, 128812, Note_off_c, 0, 82, 64
2, 128832, Note_on_c, 0, 81, 76
2, 129004, Note_off_c, 0, 81, 64
2, 129024, Note_on_c, 0, 79, 76
2, 129196, Note_off_c, 0, 79, 64
2, 129216, Note_on_c, 0, 77, 75
2, 129388, Note_off_c, 0, 77, 64
2, 129408, Note_on_c, 0, 82, 79
2, 129408, Note_on_c, 0, 65, 75
2, 129408, Note_on_c, 0, 62, 75
2, 129580, Note_off_c, 0, 82, 64
2, 129600, Note_on_c, 0, 81, 78
2, 129788, Note_off_c, 0, 65, 64
2, 129788, Note_off_c, 0, 62, 64
2, 129788, Note_off_c, 0, 81, 64
2, 129792, Note_on_c, 0, 81, 78
2, 129792, Note_on_c, 0, 69, 75
2, 129792, Note_on_c, 0, 65, 75
2, 130172, Note_off_c, 0, 69, 64
2, 130172, Note_off_c, 0, 65, 64
2, 130176, Note_on_c, 0, 67, 75
2, 130176, Note_on_c, 0, 64, 75
2, 130556, Note_off_c, 0, 81, 64
2, 130556, Note_off_c, 0, 67, 64
2, 130556, Note_off_c, 0, 64, 64
2, 130560, Note_on_c, 0, 65, 75
2, 130560, Note_on_c, 0, 62, 75
2, 130848, Note_on_c, 0, 74, 75
2, 130940, Note_off_c, 0, 74, 64
2, 130944, Note_on_c, 0, 76, 75
2, 131036, Note_off_c, 0, 76, 64
2, 131040, Note_on_c, 0, 74, 75
2, 131132, Note_off_c, 0, 74, 64
2, 131136, Note_on_c, 0, 73, 75
2, 131228, Note_off_c, 0, 73, 64
2, 131232, Note_on_c, 0, 74, 75
2, 131324, Note_off_c, 0, 65, 64
2, 131324, Note_off_c, 0, 62, 64
2, 131324, Note_off_c, 0, 74, 64
2, 131328, Note_on_c, 0, 89, 83
2, 131708, Note_off_c, 0, 89, 64
2, 131712, Note_on_c, 0, 89, 83
2, 132092, Note_off_c, 0, 89, 64
2, 132096, Note_on_c, 0, 89, 83
2, 132668, Note_off_c, 0, 89, 64
2, 132672, Note_on_c, 0, 88, 86
2, 132860, Note_off_c, 0, 88, 64
2, 132864, Note_on_c, 0, 88, 83
2, 134012, Note_off_c, 0, 88, 64
2, 134016, Note_on_c, 0, 86, 86
2, 134112, Note_off_c, 0, 86, 64
2, 134112, Note_on_c, 0, 85, 79
2, 134400, Note_off_c, 0, 85, 64
2, 134400, Note_on_c, 0, 82, 85
2, 134496, Note_off_c, 0, 82, 64
2, 134496, Note_on_c, 0, 81, 78
2, 134976, Note_on_c, 0, 79, 76
2, 134980, Note_off_c, 0, 81, 64
2, 135164, Note_off_c, 0, 79, 64
2, 135168, Note_on_c, 0, 69, 75
2, 135168, Note_on_c, 0, 65, 75
2, 135168, Note_on_c, 0, 62, 75
2, 135168, Note_on_c, 0, 77, 75
2, 135260, Note_off_c, 0, 77, 64
2, 135264, Note_on_c, 0, 81, 78
2, 135356, Note_off_c, 0, 81, 64
2, 135360, Note_on_c, 0, 80, 76
2, 135452, Note_off_c, 0, 80, 64
2, 135456, Note_on_c, 0, 81, 78
2, 135548, Note_off_c, 0, 69, 64
2, 135548, Note_off_c, 0, 65, 64
2, 135548, Note_off_c, 0, 62, 64
2, 135548, Note_off_c, 0, 81, 64
2, 135552, Note_on_c, 0, 79, 76
2, 135644, Note_off_c, 0, 79, 64
2, 135648, Note_on_c, 0, 77, 75
2, 135740, Note_off_c, 0, 77, 64
2, 135744, Note_on_c, 0, 76, 75
2, 135836, Note_off_c, 0, 76, 64
2, 135840, Note_on_c, 0, 74, 75
2, 135932, Note_off_c, 0, 74, 64
2, 135936, Note_on_c, 0, 73, 75
2, 135936, Note_on_c, 0, 67, 75
2, 135936, Note_on_c, 0, 64, 75
2, 135936, Note_on_c, 0, 61, 75
2, 135936, Note_on_c, 0, 57, 75
2, 136028, Note_off_c, 0, 73, 64
2, 136032, Note_on_c, 0, 76, 75
2, 136124, Note_off_c, 0, 76, 64
2, 136128, Note_on_c, 0, 79, 76
2, 136220, Note_off_c, 0, 79, 64
2, 136224, Note_on_c, 0, 82, 79
2, 136316, Note_off_c, 0, 67, 64
2, 136316, Note_off_c, 0, 64, 64
2, 136316, Note_off_c, 0, 61, 64
2, 136316, Note_off_c, 0, 57, 64
2, 136316, Note_off_c, 0, 82, 64
2, 136320, Note_on_c, 0, 81, 78
2, 136412, Note_off_c, 0, 81, 64
2, 136416, Note_on_c, 0, 79, 76
2, 136508, Note_off_c, 0, 79, 64
2, 136512, Note_on_c, 0, 77, 75
2, 136604, Note_off_c, 0, 77, 64
2, 136608, Note_on_c, 0, 76, 75
2, 136700, Note_off_c, 0, 76, 64
2, 136704, Note_on_c, 0, 77, 75
2, 136704, Note_on_c, 0, 65, 75
2, 136704, Note_on_c, 0, 62, 75
2, 136704, Note_on_c, 0, 69, 75
2, 136796, Note_off_c, 0, 77, 64
2, 136800, Note_on_c, 0, 81, 76
2, 136892, Note_off_c, 0, 81, 64
2, 136896, Note_on_c, 0, 80, 75
2, 136988, Note_off_c, 0, 80, 64
2, 136992, Note_on_c, 0, 81, 76
2, 137084, Note_off_c, 0, 65, 64
2, 137084, Note_off_c, 0, 62, 64
2, 137084, Note_off_c, 0, 69, 64
2, 137084, Note_off_c, 0, 81, 64
2, 137088, Note_on_c, 0, 79, 75
2, 137180, Note_off_c, 0, 79, 64
2, 137184, Note_on_c, 0, 77, 78
2, 137276, Note_off_c, 0, 77, 64
2, 137280, Note_on_c, 0, 76, 76
2, 137372, Note_off_c, 0, 76, 64
2, 137376, Note_on_c, 0, 74, 75
2, 137468, Note_off_c, 0, 74, 64
2, 137472, Note_on_c, 0, 73, 75
2, 137472, Note_on_c, 0, 67, 75
2, 137472, Note_on_c, 0, 61, 75
2, 137472, Note_on_c, 0, 57, 75
2, 137472, Note_on_c, 0, 64, 75
2, 137564, Note_off_c, 0, 73, 64
2, 137568, Note_on_c, 0, 76, 74
2, 137660, Note_off_c, 0, 76, 64
2, 137664, Note_on_c, 0, 79, 76
2, 137756, Note_off_c, 0, 79, 64
2, 137760, Note_on_c, 0, 82, 79
2, 137852, Note_off_c, 0, 67, 64
2, 137852, Note_off_c, 0, 61, 64
2, 137852, Note_off_c, 0, 57, 64
2, 137852, Note_off_c, 0, 64, 64
2, 137852, Note_off_c, 0, 82, 64
2, 137856, Note_on_c, 0, 81, 78
2, 137948, Note_off_c, 0, 81, 64
2, 137952, Note_on_c, 0, 79, 76
2, 138044, Note_off_c, 0, 79, 64
2, 138048, Note_on_c, 0, 77, 75
2, 138140, Note_off_c, 0, 77, 64
2, 138144, Note_on_c, 0, 76, 74
2, 138236, Note_off_c, 0, 76, 64
2, 138240, Note_on_c, 0, 77, 75
2, 138240, Note_on_c, 0, 65, 75
2, 138240, Note_on_c, 0, 62, 75
2, 138332, Note_off_c, 0, 77, 64
2, 138336, Note_on_c, 0, 81, 78
2, 138416, Note_on_c, 0, 86, 81
2, 138428, Note_off_c, 0, 81, 64
2, 138508, Note_off_c, 0, 86, 64
2, 138528, Note_on_c, 0, 81, 78
2, 138620, Note_off_c, 0, 65, 64
2, 138620, Note_off_c, 0, 62, 64
2, 138620, Note_off_c, 0, 81, 64
2, 138624, Note_on_c, 0, 82, 79
2, 138716, Note_off_c, 0, 82, 64
2, 138720, Note_on_c, 0, 86, 81
2, 138812, Note_off_c, 0, 86, 64
2, 138816, Note_on_c, 0, 76, 74
2, 138908, Note_off_c, 0, 76, 64
2, 138912, Note_on_c, 0, 79, 76
2, 139004, Note_off_c, 0, 79, 64
2, 139008, Note_on_c, 0, 77, 75
2, 139100, Note_off_c, 0, 77, 64
2, 139104, Note_on_c, 0, 81, 78
2, 139196, Note_off_c, 0, 81, 64
2, 139200, Note_on_c, 0, 74, 73
2, 139292, Note_off_c, 0, 74, 64
2, 139296, Note_on_c, 0, 77, 75
2, 139388, Note_off_c, 0, 77, 64
2, 139392, Note_on_c, 0, 76, 74
2, 139484, Note_off_c, 0, 76, 64
2, 139488, Note_on_c, 0, 79, 76
2, 139580, Note_off_c, 0, 79, 64
2, 139584, Note_on_c, 0, 73, 72
2, 139676, Note_off_c, 0, 73, 64
2, 139680, Note_on_c, 0, 76, 74
2, 139772, Note_off_c, 0, 76, 64
2, 139776, Note_on_c, 0, 74, 73
2, 140156, Note_off_c, 0, 74, 64
2, 151680, Note_on_c, 0, 64, 75
2, 151772, Note_off_c, 0, 64, 64
2, 151776, Note_on_c, 0, 62, 75
2, 151868, Note_off_c, 0, 62, 64
2, 151872, Note_on_c, 0, 61, 75
2, 151964, Note_off_c, 0, 61, 64
2, 151968, Note_on_c, 0, 62, 75
2, 152060, Note_off_c, 0, 62, 64
2, 152064, Note_on_c, 0, 65, 75
2, 152156, Note_off_c, 0, 65, 64
2, 152160, Note_on_c, 0, 63, 75
2, 152252, Note_off_c, 0, 63, 64
2, 152256, Note_on_c, 0, 62, 75
2, 152348, Note_off_c, 0, 62, 64
2, 152352, Note_on_c, 0, 63, 75
2, 152444, Note_off_c, 0, 63, 64
2, 152448, Note_on_c, 0, 65, 75
2, 152540, Note_off_c, 0, 65, 64
2, 152544, Note_on_c, 0, 64, 75
2, 152636, Note_off_c, 0, 64, 64
2, 152640, Note_on_c, 0, 62, 75
2, 152732, Note_off_c, 0, 62, 64
2, 152736, Note_on_c, 0, 65, 75
2, 152828, Note_off_c, 0, 65, 64
2, 152832, Note_on_c, 0, 67, 75
2, 152924, Note_off_c, 0, 67, 64
2, 152928, Note_on_c, 0, 65, 75
2, 153020, Note_off_c, 0, 65, 64
2, 153024, Note_on_c, 0, 64, 75
2, 153116, Note_off_c, 0, 64, 64
2, 153120, Note_on_c, 0, 65, 75
2, 153212, Note_off_c, 0, 65, 64
2, 153216, Note_on_c, 0, 67, 75
2, 153308, Note_off_c, 0, 67, 64
2, 153312, Note_on_c, 0, 66, 75
2, 153404, Note_off_c, 0, 66, 64
2, 153408, Note_on_c, 0, 64, 75
2, 153500, Note_off_c, 0, 64, 64
2, 153504, Note_on_c, 0, 66, 75
2, 153596, Note_off_c, 0, 66, 64
2, 153600, Note_on_c, 0, 69, 75
2, 153692, Note_off_c, 0, 69, 64
2, 153696, Note_on_c, 0, 67, 75
2, 153788, Note_off_c, 0, 67, 64
2, 153792, Note_on_c, 0, 66, 75
2, 153884, Note_off_c, 0, 66, 64
2, 153888, Note_on_c, 0, 67, 75
2, 153980, Note_off_c, 0, 67, 64
2, 153984, Note_on_c, 0, 72, 75
2, 154076, Note_off_c, 0, 72, 64
2, 154080, Note_on_c, 0, 70, 75
2, 154172, Note_off_c, 0, 70, 64
2, 154176, Note_on_c, 0, 69, 75
2, 154268, Note_off_c, 0, 69, 64
2, 154272, Note_on_c, 0, 70, 75
2, 154364, Note_off_c, 0, 70, 64
2, 154368, Note_on_c, 0, 75, 75
2, 154460, Note_off_c, 0, 75, 64
2, 154464, Note_on_c, 0, 74, 75
2, 154556, Note_off_c, 0, 74, 64
2, 154560, Note_on_c, 0, 73, 75
2, 154652, Note_off_c, 0, 73, 64
2, 154656, Note_on_c, 0, 74, 75
2, 154748, Note_off_c, 0, 74, 64
2, 154752, Note_on_c, 0, 65, 75
2, 154844, Note_off_c, 0, 65, 64
2, 154848, Note_on_c, 0, 64, 75
2, 154940, Note_off_c, 0, 64, 64
2, 154944, Note_on_c, 0, 63, 75
2, 155036, Note_off_c, 0, 63, 64
2, 155040, Note_on_c, 0, 64, 75
2, 155132, Note_off_c, 0, 64, 64
2, 155136, Note_on_c, 0, 67, 75
2, 155228, Note_off_c, 0, 67, 64
2, 155232, Note_on_c, 0, 65, 75
2, 155324, Note_off_c, 0, 65, 64
2, 155328, Note_on_c, 0, 64, 75
2, 155420, Note_off_c, 0, 64, 64
2, 155424, Note_on_c, 0, 65, 75
2, 155516, Note_off_c, 0, 65, 64
2, 155520, Note_on_c, 0, 67, 75
2, 155612, Note_off_c, 0, 67, 64
2, 155616, Note_on_c, 0, 66, 75
2, 155708, Note_off_c, 0, 66, 64
2, 155712, Note_on_c, 0, 64, 75
2, 155804, Note_off_c, 0, 64, 64
2, 155808, Note_on_c, 0, 66, 75
2, 155900, Note_off_c, 0, 66, 64
2, 155904, Note_on_c, 0, 69, 75
2, 155996, Note_off_c, 0, 69, 64
2, 156000, Note_on_c, 0, 67, 75
2, 156092, Note_off_c, 0, 67, 64
2, 156096, Note_on_c, 0, 66, 75
2, 156188, Note_off_c, 0, 66, 64
2, 156192, Note_on_c, 0, 67, 75
2, 156284, Note_off_c, 0, 67, 64
2, 156288, Note_on_c, 0, 69, 75
2, 156380, Note_off_c, 0, 69, 64
2, 156384, Note_on_c, 0, 68, 75
2, 156476, Note_off_c, 0, 68, 64
2, 156480, Note_on_c, 0, 66, 75
2, 156572, Note_off_c, 0, 66, 64
2, 156576, Note_on_c, 0, 68, 75
2, 156668, Note_off_c, 0, 68, 64
2, 156672, Note_on_c, 0, 71, 75
2, 156764, Note_off_c, 0, 71, 64
2, 156768, Note_on_c, 0, 69, 75
2, 156860, Note_off_c, 0, 69, 64
2, 156864, Note_on_c, 0, 68, 75
2, 156956, Note_off_c, 0, 68, 64
2, 156960, Note_on_c, 0, 69, 75
2, 157052, Note_off_c, 0, 69, 64
2, 157056, Note_on_c, 0, 74, 75
2, 157148, Note_off_c, 0, 74, 64
2, 157152, Note_on_c, 0, 72, 75
2, 157244, Note_off_c, 0, 72, 64
2, 157248, Note_on_c, 0, 71, 75
2, 157340, Note_off_c, 0, 71, 64
2, 157344, Note_on_c, 0, 72, 75
2, 157436, Note_off_c, 0, 72, 64
2, 157440, Note_on_c, 0, 77, 75
2, 157532, Note_off_c, 0, 77, 64
2, 157536, Note_on_c, 0, 76, 75
2, 157628, Note_off_c, 0, 76, 64
2, 157632, Note_on_c, 0, 75, 75
2, 157724, Note_off_c, 0, 75, 64
2, 157728, Note_on_c, 0, 76, 75
2, 157820, Note_off_c, 0, 76, 64
2, 157824, Note_on_c, 0, 71, 75
2, 157916, Note_off_c, 0, 71, 64
2, 157920, Note_on_c, 0, 69, 75
2, 158012, Note_off_c, 0, 69, 64
2, 158016, Note_on_c, 0, 68, 75
2, 158108, Note_off_c, 0, 68, 64
2, 158112, Note_on_c, 0, 69, 75
2, 158204, Note_off_c, 0, 69, 64
2, 158208, Note_on_c, 0, 72, 75
2, 158300, Note_off_c, 0, 72, 64
2, 158304, Note_on_c, 0, 70, 75
2, 158396, Note_off_c, 0, 70, 64
2, 158400, Note_on_c, 0, 69, 75
2, 158492, Note_off_c, 0, 69, 64
2, 158496, Note_on_c, 0, 70, 75
2, 158588, Note_off_c, 0, 70, 64
2, 158592, Note_on_c, 0, 72, 75
2, 158684, Note_off_c, 0, 72, 64
2, 158688, Note_on_c, 0, 71, 75
2, 158780, Note_off_c, 0, 71, 64
2, 158784, Note_on_c, 0, 69, 75
2, 158876, Note_off_c, 0, 69, 64
2, 158880, Note_on_c, 0, 71, 75
2, 158972, Note_off_c, 0, 71, 64
2, 158976, Note_on_c, 0, 74, 75
2, 159068, Note_off_c, 0, 74, 64
2, 159072, Note_on_c, 0, 72, 75
2, 159164, Note_off_c, 0, 72, 64
2, 159168, Note_on_c, 0, 71, 75
2, 159260, Note_off_c, 0, 71, 64
2, 159264, Note_on_c, 0, 72, 75
2, 159356, Note_off_c, 0, 72, 64
2, 159360, Note_on_c, 0, 74, 75
2, 159452, Note_off_c, 0, 74, 64
2, 159456, Note_on_c, 0, 73, 75
2, 159548, Note_off_c, 0, 73, 64
2, 159552, Note_on_c, 0, 71, 75
2, 159644, Note_off_c, 0, 71, 64
2, 159648, Note_on_c, 0, 73, 75
2, 159740, Note_off_c, 0, 73, 64
2, 159744, Note_on_c, 0, 76, 75
2, 159836, Note_off_c, 0, 76, 64
2, 159840, Note_on_c, 0, 74, 75
2, 159932, Note_off_c, 0, 74, 64
2, 159936, Note_on_c, 0, 73, 75
2, 160028, Note_off_c, 0, 73, 64
2, 160032, Note_on_c, 0, 74, 75
2, 160124, Note_off_c, 0, 74, 64
2, 160128, Note_on_c, 0, 77, 75
2, 160220, Note_off_c, 0, 77, 64
2, 160224, Note_on_c, 0, 76, 75
2, 160316, Note_off_c, 0, 76, 64
2, 160320, Note_on_c, 0, 74, 75
2, 160412, Note_off_c, 0, 74, 64
2, 160416, Note_on_c, 0, 76, 75
2, 160508, Note_off_c, 0, 76, 64
2, 160512, Note_on_c, 0, 79, 76
2, 160604, Note_off_c, 0, 79, 64
2, 160608, Note_on_c, 0, 77, 75
2, 160700, Note_off_c, 0, 77, 64
2, 160704, Note_on_c, 0, 76, 75
2, 160796, Note_off_c, 0, 76, 64
2, 160800, Note_on_c, 0, 77, 75
2, 160892, Note_off_c, 0, 77, 64
2, 160896, Note_on_c, 0, 79, 76
2, 160988, Note_off_c, 0, 79, 64
2, 160992, Note_on_c, 0, 78, 75
2, 161084, Note_off_c, 0, 78, 64
2, 161088, Note_on_c, 0, 76, 75
2, 161180, Note_off_c, 0, 76, 64
2, 161184, Note_on_c, 0, 78, 75
2, 161276, Note_off_c, 0, 78, 64
2, 161280, Note_on_c, 0, 81, 78
2, 161372, Note_off_c, 0, 81, 64
2, 161376, Note_on_c, 0, 79, 76
2, 161468, Note_off_c, 0, 79, 64
2, 161472, Note_on_c, 0, 78, 75
2, 161564, Note_off_c, 0, 78, 64
2, 161568, Note_on_c, 0, 79, 76
2, 161660, Note_off_c, 0, 79, 64
2, 161664, Note_on_c, 0, 82, 79
2, 161756, Note_off_c, 0, 82, 64
2, 161760, Note_on_c, 0, 81, 78
2, 161852, Note_off_c, 0, 81, 64
2, 161856, Note_on_c, 0, 79, 76
2, 161948, Note_off_c, 0, 79, 64
2, 161952, Note_on_c, 0, 81, 78
2, 162044, Note_off_c, 0, 81, 64
2, 162048, Note_on_c, 0, 84, 80
2, 162140, Note_off_c, 0, 84, 64
2, 162144, Note_on_c, 0, 82, 79
2, 162236, Note_off_c, 0, 82, 64
2, 162240, Note_on_c, 0, 81, 78
2, 162332, Note_off_c, 0, 81, 64
2, 162336, Note_on_c, 0, 82, 79
2, 162428, Note_off_c, 0, 82, 64
2, 162432, Note_on_c, 0, 84, 80
2, 162524, Note_off_c, 0, 84, 64
2, 162528, Note_on_c, 0, 83, 79
2, 162620, Note_off_c, 0, 83, 64
2, 162624, Note_on_c, 0, 81, 78
2, 162716, Note_off_c, 0, 81, 64
2, 162720, Note_on_c, 0, 83, 79
2, 162812, Note_off_c, 0, 83, 64
2, 162816, Note_on_c, 0, 86, 81
2, 162908, Note_off_c, 0, 86, 64
2, 162912, Note_on_c, 0, 84, 80
2, 163004, Note_off_c, 0, 84, 64
2, 163008, Note_on_c, 0, 83, 79
2, 163100, Note_off_c, 0, 83, 64
2, 163104, Note_on_c, 0, 84, 80
2, 163196, Note_off_c, 0, 84, 64
2, 163200, Note_on_c, 0, 86, 81
2, 163292, Note_off_c, 0, 86, 64
2, 163296, Note_on_c, 0, 85, 80
2, 163388, Note_off_c, 0, 85, 64
2, 163392, Note_on_c, 0, 83, 79
2, 163484, Note_off_c, 0, 83, 64
2, 163488, Note_on_c, 0, 85, 80
2, 163580, Note_off_c, 0, 85, 64
2, 163584, Note_on_c, 0, 88, 82
2, 163676, Note_off_c, 0, 88, 64
2, 163680, Note_on_c, 0, 86, 81
2, 163772, Note_off_c, 0, 86, 64
2, 163776, Note_on_c, 0, 85, 80
2, 163868, Note_off_c, 0, 85, 64
2, 163872, Note_on_c, 0, 86, 81
2, 163964, Note_off_c, 0, 86, 64
2, 163968, Note_on_c, 0, 89, 83
2, 164060, Note_off_c, 0, 89, 64
2, 164064, Note_on_c, 0, 88, 82
2, 164156, Note_off_c, 0, 88, 64
2, 164160, Note_on_c, 0, 86, 81
2, 164252, Note_off_c, 0, 86, 64
2, 164256, Note_on_c, 0, 88, 82
2, 164348, Note_off_c, 0, 88, 64
2, 164352, Note_on_c, 0, 89, 83
2, 164444, Note_off_c, 0, 89, 64
2, 164448, Note_on_c, 0, 88, 82
2, 164540, Note_off_c, 0, 88, 64
2, 164544, Note_on_c, 0, 86, 81
2, 164636, Note_off_c, 0, 86, 64
2, 164640, Note_on_c, 0, 85, 80
2, 164732, Note_off_c, 0, 85, 64
2, 164736, Note_on_c, 0, 86, 81
2, 164828, Note_off_c, 0, 86, 64
2, 164832, Note_on_c, 0, 84, 80
2, 164924, Note_off_c, 0, 84, 64
2, 164928, Note_on_c, 0, 82, 79
2, 165020, Note_off_c, 0, 82, 64
2, 165024, Note_on_c, 0, 81, 78
2, 165116, Note_off_c, 0, 81, 64
2, 165120, Note_on_c, 0, 82, 79
2, 165212, Note_off_c, 0, 82, 64
2, 165216, Note_on_c, 0, 84, 80
2, 165308, Note_off_c, 0, 84, 64
2, 165312, Note_on_c, 0, 82, 79
2, 165404, Note_off_c, 0, 82, 64
2, 165408, Note_on_c, 0, 81, 78
2, 165500, Note_off_c, 0, 81, 64
2, 165504, Note_on_c, 0, 81, 78
2, 165596, Note_off_c, 0, 81, 64
2, 165600, Note_on_c, 0, 77, 75
2, 165692, Note_off_c, 0, 77, 64
2, 165696, Note_on_c, 0, 76, 74
2, 165788, Note_off_c, 0, 76, 64
2, 165792, Note_on_c, 0, 74, 73
2, 165884, Note_off_c, 0, 74, 64
2, 165888, Note_on_c, 0, 81, 78
2, 165888, Note_on_c, 0, 76, 74
2, 165888, Note_on_c, 0, 73, 73
2, 166268, Note_off_c, 0, 81, 64
2, 166268, Note_off_c, 0, 76, 64
2, 166268, Note_off_c, 0, 73, 64
2, 167040, Note_on_c, 0, 85, 80
2, 167040, Note_on_c, 0, 81, 78
2, 167040, Note_on_c, 0, 76, 74
2, 167420, Note_off_c, 0, 85, 64
2, 167420, Note_off_c, 0, 81, 64
2, 167420, Note_off_c, 0, 76, 64
2, 167424, Note_on_c, 0, 86, 81
2, 167424, Note_on_c, 0, 81, 79
2, 167424, Note_on_c, 0, 77, 75
2, 167804, Note_off_c, 0, 86, 64
2, 167804, Note_off_c, 0, 81, 64
2, 167804, Note_off_c, 0, 77, 64
2, 168576, Note_on_c, 0, 86, 81
2, 168576, Note_on_c, 0, 81, 79
2, 168576, Note_on_c, 0, 77, 75
2, 168956, Note_off_c, 0, 86, 64
2, 168956, Note_off_c, 0, 81, 64
2, 168956, Note_off_c, 0, 77, 64
2, 168960, Note_on_c, 0, 85, 80
2, 168960, Note_on_c, 0, 81, 78
2, 168960, Note_on_c, 0, 76, 74
2, 169340, Note_off_c, 0, 85, 64
2, 169340, Note_off_c, 0, 81, 64
2, 169340, Note_off_c, 0, 76, 64
2, 170112, Note_on_c, 0, 85, 80
2, 170112, Note_on_c, 0, 81, 78
2, 170112, Note_on_c, 0, 76, 74
2, 170492, Note_off_c, 0, 85, 64
2, 170492, Note_off_c, 0, 81, 64
2, 170492, Note_off_c, 0, 76, 64
2, 170496, Note_on_c, 0, 86, 81
2, 170496, Note_on_c, 0, 81, 78
2, 170496, Note_on_c, 0, 77, 75
2, 170876, Note_off_c, 0, 86, 64
2, 170876, Note_off_c, 0, 81, 64
2, 170876, Note_off_c, 0, 77, 64
2, 171648, Note_on_c, 0, 85, 80
2, 171648, Note_on_c, 0, 81, 78
2, 171648, Note_on_c, 0, 77, 75
2, 172028, Note_off_c, 0, 85, 64
2, 172028, Note_off_c, 0, 81, 64
2, 172028, Note_off_c, 0, 77, 64
2, 172032, Note_on_c, 0, 85, 96
2, 172032, Note_on_c, 0, 81, 95
2, 172032, Note_on_c, 0, 76, 91
2, 172412, Note_off_c, 0, 85, 64
2, 172412, Note_off_c, 0, 81, 64
2, 172412, Note_off_c, 0, 76, 64
2, 172608, Note_on_c, 0, 85, 96
2, 172608, Note_on_c, 0, 81, 95
2, 172608, Note_on_c, 0, 76, 91
2, 172796, Note_off_c, 0, 85, 64
2, 172796, Note_off_c, 0, 81, 64
2, 172796, Note_off_c, 0, 76, 64
2, 172800, Note_on_c, 0, 86, 97
2, 172800, Note_on_c, 0, 81, 95
2, 172800, Note_on_c, 0, 77, 93
2, 172988, Note_off_c, 0, 86, 64
2, 172988, Note_off_c, 0, 81, 64
2, 172988, Note_off_c, 0, 77, 64
2, 173376, Note_on_c, 0, 86, 97
2, 173376, Note_on_c, 0, 81, 95
2, 173376, Note_on_c, 0, 77, 93
2, 173564, Note_off_c, 0, 86, 64
2, 173564, Note_off_c, 0, 81, 64
2, 173568, Note_on_c, 0, 85, 96
2, 173568, Note_on_c, 0, 81, 95
2, 173568, Note_on_c, 0, 76, 91
2, 173572, Note_off_c, 0, 77, 64
2, 173948, Note_off_c, 0, 85, 64
2, 173948, Note_off_c, 0, 81, 64
2, 173948, Note_off_c, 0, 76, 64
2, 174144, Note_on_c, 0, 85, 96
2, 174144, Note_on_c, 0, 81, 95
2, 174144, Note_on_c, 0, 76, 91
2, 174332, Note_off_c, 0, 85, 64
2, 174332, Note_off_c, 0, 81, 64
2, 174332, Note_off_c, 0, 76, 64
2, 174336, Note_on_c, 0, 86, 97
2, 174336, Note_on_c, 0, 81, 96
2, 174336, Note_on_c, 0, 77, 93
2, 174524, Note_off_c, 0, 86, 64
2, 174524, Note_off_c, 0, 81, 64
2, 174524, Note_off_c, 0, 77, 64
2, 174912, Note_on_c, 0, 86, 97
2, 174912, Note_on_c, 0, 81, 96
2, 174912, Note_on_c, 0, 77, 93
2, 175100, Note_off_c, 0, 86, 64
2, 175100, Note_off_c, 0, 81, 64
2, 175100, Note_off_c, 0, 77, 64
2, 175104, Note_on_c, 0, 85, 96
2, 175104, Note_on_c, 0, 81, 95
2, 175104, Note_on_c, 0, 76, 91
2, 175484, Note_off_c, 0, 85, 64
2, 175484, Note_off_c, 0, 81, 64
2, 175484, Note_off_c, 0, 76, 64
2, 178368, Note_on_c, 0, 72, 79
2, 178556, Note_off_c, 0, 72, 64
2, 178560, Note_on_c, 0, 84, 83
2, 178748, Note_off_c, 0, 84, 64
2, 178752, Note_on_c, 0, 84, 86
2, 178844, Note_off_c, 0, 84, 64
2, 178944, Note_on_c, 0, 84, 83
2, 179132, Note_off_c, 0, 84, 64
2, 179136, Note_on_c, 0, 76, 75
2, 179324, Note_off_c, 0, 76, 64
2, 179328, Note_on_c, 0, 76, 75
2, 179516, Note_off_c, 0, 76, 64
2, 179520, Note_on_c, 0, 77, 79
2, 179708, Note_off_c, 0, 77, 64
2, 181440, Note_on_c, 0, 74, 79
2, 181628, Note_off_c, 0, 74, 64
2, 181632, Note_on_c, 0, 86, 83
2, 181820, Note_off_c, 0, 86, 64
2, 181824, Note_on_c, 0, 86, 86
2, 181916, Note_off_c, 0, 86, 64
2, 182016, Note_on_c, 0, 86, 83
2, 182204, Note_off_c, 0, 86, 64
2, 182208, Note_on_c, 0, 78, 75
2, 182396, Note_off_c, 0, 78, 64
2, 182400, Note_on_c, 0, 78, 75
2, 182588, Note_off_c, 0, 78, 64
2, 182592, Note_on_c, 0, 79, 79
2, 182780, Note_off_c, 0, 79, 64
2, 184512, Note_on_c, 0, 76, 79
2, 184700, Note_off_c, 0, 76, 64
2, 184704, Note_on_c, 0, 88, 83
2, 184892, Note_off_c, 0, 88, 64
2, 184896, Note_on_c, 0, 88, 86
2, 184988, Note_off_c, 0, 88, 64
2, 185088, Note_on_c, 0, 88, 83
2, 185276, Note_off_c, 0, 88, 64
2, 185280, Note_on_c, 0, 80, 75
2, 185468, Note_off_c, 0, 80, 64
2, 185472, Note_on_c, 0, 80, 75
2, 185660, Note_off_c, 0, 80, 64
2, 185664, Note_on_c, 0, 81, 79
2, 185852, Note_off_c, 0, 81, 64
2, 185856, Note_on_c, 0, 84, 75
2, 186140, Note_off_c, 0, 84, 64
2, 186144, Note_on_c, 0, 82, 91
2, 186236, Note_off_c, 0, 82, 64
2, 186240, Note_on_c, 0, 86, 81
2, 186812, Note_off_c, 0, 86, 64
2, 186816, Note_on_c, 0, 84, 75
2, 186908, Note_off_c, 0, 84, 64
2, 186912, Note_on_c, 0, 82, 75
2, 187004, Note_off_c, 0, 82, 64
2, 187008, Note_on_c, 0, 81, 75
2, 187196, Note_off_c, 0, 81, 64
2, 187200, Note_on_c, 0, 79, 75
2, 187292, Note_off_c, 0, 79, 64
2, 187392, Note_on_c, 0, 82, 75
2, 187676, Note_off_c, 0, 82, 64
2, 187680, Note_on_c, 0, 81, 91
2, 187772, Note_off_c, 0, 81, 64
2, 187776, Note_on_c, 0, 84, 81
2, 188348, Note_off_c, 0, 84, 64
2, 188352, Note_on_c, 0, 82, 75
2, 188444, Note_off_c, 0, 82, 64
2, 188448, Note_on_c, 0, 81, 75
2, 188540, Note_off_c, 0, 81, 64
2, 188544, Note_on_c, 0, 79, 75
2, 188732, Note_off_c, 0, 79, 64
2, 188736, Note_on_c, 0, 77, 75
2, 188828, Note_off_c, 0, 77, 64
2, 188928, Note_on_c, 0, 81, 75
2, 189212, Note_off_c, 0, 81, 64
2, 189216, Note_on_c, 0, 79, 91
2, 189308, Note_off_c, 0, 79, 64
2, 189312, Note_on_c, 0, 82, 81
2, 189884, Note_off_c, 0, 82, 64
2, 189888, Note_on_c, 0, 74, 75
2, 190076, Note_off_c, 0, 74, 64
2, 190080, Note_on_c, 0, 79, 75
2, 190268, Note_off_c, 0, 79, 64
2, 190272, Note_on_c, 0, 77, 75
2, 190364, Note_off_c, 0, 77, 64
2, 190464, Note_on_c, 0, 76, 75
2, 190464, Note_on_c, 0, 67, 75
2, 190464, Note_on_c, 0, 64, 75
2, 190464, Note_on_c, 0, 60, 75
2, 190652, Note_off_c, 0, 76, 64
2, 190656, Note_on_c, 0, 77, 75
2, 190748, Note_off_c, 0, 77, 64
2, 190752, Note_on_c, 0, 79, 75
2, 190844, Note_off_c, 0, 79, 64
2, 190848, Note_on_c, 0, 77, 75
2, 190940, Note_off_c, 0, 77, 64
2, 190944, Note_on_c, 0, 76, 75
2, 191036, Note_off_c, 0, 76, 64
2, 191040, Note_on_c, 0, 74, 75
2, 191132, Note_off_c, 0, 74, 64
2, 191136, Note_on_c, 0, 72, 75
2, 191216, Note_on_c, 0, 60, 75
2, 191216, Note_on_c, 0, 62, 75
2, 191228, Note_off_c, 0, 67, 64
2, 191228, Note_off_c, 0, 64, 64
2, 191228, Note_off_c, 0, 60, 64
2, 191228, Note_off_c, 0, 72, 64
2, 191232, Note_on_c, 0, 71, 75
2, 191232, Note_on_c, 0, 67, 75
2, 191232, Note_on_c, 0, 65, 75
2, 191324, Note_off_c, 0, 71, 64
2, 191328, Note_on_c, 0, 72, 75
2, 191420, Note_off_c, 0, 72, 64
2, 191424, Note_on_c, 0, 74, 75
2, 191516, Note_off_c, 0, 74, 64
2, 191520, Note_on_c, 0, 76, 75
2, 191612, Note_off_c, 0, 76, 64
2, 191616, Note_on_c, 0, 77, 75
2, 191708, Note_off_c, 0, 77, 64
2, 191712, Note_on_c, 0, 79, 75
2, 191804, Note_off_c, 0, 79, 64
2, 191808, Note_on_c, 0, 81, 75
2, 191900, Note_off_c, 0, 81, 64
2, 191904, Note_on_c, 0, 83, 75
2, 191980, Note_off_c, 0, 60, 64
2, 191980, Note_off_c, 0, 62, 64
2, 191996, Note_off_c, 0, 67, 64
2, 191996, Note_off_c, 0, 65, 64
2, 191996, Note_off_c, 0, 83, 64
2, 192000, Note_on_c, 0, 84, 75
2, 192000, Note_on_c, 0, 67, 75
2, 192000, Note_on_c, 0, 64, 75
2, 192000, Note_on_c, 0, 60, 75
2, 192092, Note_off_c, 0, 84, 64
2, 192096, Note_on_c, 0, 83, 75
2, 192188, Note_off_c, 0, 83, 64
2, 192192, Note_on_c, 0, 81, 75
2, 192284, Note_off_c, 0, 81, 64
2, 192288, Note_on_c, 0, 79, 75
2, 192380, Note_off_c, 0, 79, 64
2, 192384, Note_on_c, 0, 77, 75
2, 192476, Note_off_c, 0, 77, 64
2, 192480, Note_on_c, 0, 76, 75
2, 192572, Note_off_c, 0, 76, 64
2, 192576, Note_on_c, 0, 74, 75
2, 192668, Note_off_c, 0, 74, 64
2, 192672, Note_on_c, 0, 72, 75
2, 192764, Note_off_c, 0, 67, 64
2, 192764, Note_off_c, 0, 64, 64
2, 192764, Note_off_c, 0, 60, 64
2, 192764, Note_off_c, 0, 72, 64
2, 192768, Note_on_c, 0, 67, 75
2, 192768, Note_on_c, 0, 65, 75
2, 192768, Note_on_c, 0, 60, 75
2, 192768, Note_on_c, 0, 62, 75
2, 192772, Note_on_c, 0, 71, 75
2, 192864, Note_off_c, 0, 71, 64
2, 192864, Note_on_c, 0, 72, 75
2, 192956, Note_off_c, 0, 72, 64
2, 192960, Note_on_c, 0, 74, 75
2, 193052, Note_off_c, 0, 74, 64
2, 193056, Note_on_c, 0, 76, 75
2, 193148, Note_off_c, 0, 76, 64
2, 193152, Note_on_c, 0, 77, 75
2, 193244, Note_off_c, 0, 77, 64
2, 193248, Note_on_c, 0, 79, 75
2, 193340, Note_off_c, 0, 79, 64
2, 193344, Note_on_c, 0, 81, 75
2, 193436, Note_off_c, 0, 81, 64
2, 193440, Note_on_c, 0, 83, 75
2, 193532, Note_off_c, 0, 67, 64
2, 193532, Note_off_c, 0, 65, 64
2, 193532, Note_off_c, 0, 60, 64
2, 193532, Note_off_c, 0, 62, 64
2, 193532, Note_off_c, 0, 83, 64
2, 193536, Note_on_c, 0, 84, 80
2, 193536, Note_on_c, 0, 67, 78
2, 193536, Note_on_c, 0, 64, 74
2, 193536, Note_on_c, 0, 60, 72
2, 193628, Note_off_c, 0, 84, 64
2, 193632, Note_on_c, 0, 79, 79
2, 193724, Note_off_c, 0, 79, 64
2, 193728, Note_on_c, 0, 76, 74
2, 193820, Note_off_c, 0, 76, 64
2, 193824, Note_on_c, 0, 72, 72
2, 193916, Note_off_c, 0, 67, 64
2, 193916, Note_off_c, 0, 64, 64
2, 193916, Note_off_c, 0, 60, 64
2, 193916, Note_off_c, 0, 72, 64
2, 193920, Note_on_c, 0, 84, 80
2, 193920, Note_on_c, 0, 68, 78
2, 193920, Note_on_c, 0, 65, 74
2, 193920, Note_on_c, 0, 60, 72
2, 194012, Note_off_c, 0, 84, 64
2, 194016, Note_on_c, 0, 80, 76
2, 194108, Note_off_c, 0, 80, 64
2, 194112, Note_on_c, 0, 77, 74
2, 194204, Note_off_c, 0, 77, 64
2, 194208, Note_on_c, 0, 72, 72
2, 194300, Note_off_c, 0, 68, 64
2, 194300, Note_off_c, 0, 65, 64
2, 194300, Note_off_c, 0, 60, 64
2, 194300, Note_off_c, 0, 72, 64
2, 194304, Note_on_c, 0, 84, 80
2, 194304, Note_on_c, 0, 67, 78
2, 194304, Note_on_c, 0, 64, 74
2, 194304, Note_on_c, 0, 60, 72
2, 194396, Note_off_c, 0, 84, 64
2, 194400, Note_on_c, 0, 79, 76
2, 194492, Note_off_c, 0, 79, 64
2, 194496, Note_on_c, 0, 76, 75
2, 194588, Note_off_c, 0, 76, 64
2, 194592, Note_on_c, 0, 72, 72
2, 194684, Note_off_c, 0, 67, 64
2, 194684, Note_off_c, 0, 64, 64
2, 194684, Note_off_c, 0, 60, 64
2, 194684, Note_off_c, 0, 72, 64
2, 194688, Note_on_c, 0, 84, 80
2, 194688, Note_on_c, 0, 68, 78
2, 194688, Note_on_c, 0, 65, 74
2, 194688, Note_on_c, 0, 60, 72
2, 194780, Note_off_c, 0, 84, 64
2, 194784, Note_on_c, 0, 80, 76
2, 194876, Note_off_c, 0, 80, 64
2, 194880, Note_on_c, 0, 77, 75
2, 194972, Note_off_c, 0, 77, 64
2, 194976, Note_on_c, 0, 72, 72
2, 195068, Note_off_c, 0, 68, 64
2, 195068, Note_off_c, 0, 65, 64
2, 195068, Note_off_c, 0, 60, 64
2, 195068, Note_off_c, 0, 72, 64
2, 195072, Note_on_c, 0, 84, 80
2, 195072, Note_on_c, 0, 79, 76
2, 195072, Note_on_c, 0, 76, 74
2, 195072, Note_on_c, 0, 72, 72
2, 195072, Note_on_c, 0, 67, 69
2, 195072, Note_on_c, 0, 64, 68
2, 195072, Note_on_c, 0, 60, 67
2, 195452, Note_off_c, 0, 84, 64
2, 195452, Note_off_c, 0, 79, 64
2, 195452, Note_off_c, 0, 76, 64
2, 195452, Note_off_c, 0, 72, 64
2, 195452, Note_off_c, 0, 67, 64
2, 195452, Note_off_c, 0, 64, 64
2, 195452, Note_off_c, 0, 60, 64
2, 195840, Note_on_c, 0, 72, 75
2, 196220, Note_off_c, 0, 72, 64
2, 196224, Note_on_c, 0, 72, 75
2, 196604, Note_off_c, 0, 72, 64
2, 196608, Note_on_c, 0, 72, 90
2, 196688, Note_off_c, 0, 72, 64
2, 196704, Note_on_c, 0, 81, 78
2, 197184, Note_off_c, 0, 81, 64
2, 197184, Note_on_c, 0, 79, 76
2, 197276, Note_off_c, 0, 79, 64
2, 197280, Note_on_c, 0, 77, 75
2, 197372, Note_off_c, 0, 77, 64
2, 197376, Note_on_c, 0, 76, 74
2, 197756, Note_off_c, 0, 76, 64
2, 197760, Note_on_c, 0, 79, 76
2, 198140, Note_off_c, 0, 79, 64
2, 198144, Note_on_c, 0, 77, 75
2, 198524, Note_off_c, 0, 77, 64
2, 198912, Note_on_c, 0, 72, 75
2, 198912, Note_on_c, 0, 69, 75
2, 199292, Note_off_c, 0, 72, 64
2, 199292, Note_off_c, 0, 69, 64
2, 199296, Note_on_c, 0, 77, 75
2, 199296, Note_on_c, 0, 72, 72
2, 199676, Note_off_c, 0, 77, 64
2, 199676, Note_off_c, 0, 72, 64
2, 199680, Note_on_c, 0, 81, 78
2, 199680, Note_on_c, 0, 77, 75
2, 200060, Note_off_c, 0, 81, 64
2, 200060, Note_off_c, 0, 77, 64
2, 200064, Note_on_c, 0, 84, 80
2, 200064, Note_on_c, 0, 81, 78
2, 200444, Note_off_c, 0, 84, 64
2, 200444, Note_off_c, 0, 81, 64
2, 200448, Note_on_c, 0, 82, 79
2, 200448, Note_on_c, 0, 79, 76
2, 200636, Note_off_c, 0, 82, 64
2, 200636, Note_off_c, 0, 79, 64
2, 200832, Note_on_c, 0, 81, 78
2, 200832, Note_on_c, 0, 77, 75
2, 201020, Note_off_c, 0, 81, 64
2, 201020, Note_off_c, 0, 77, 64
2, 201216, Note_on_c, 0, 79, 76
2, 201216, Note_on_c, 0, 76, 74
2, 201596, Note_off_c, 0, 79, 64
2, 201596, Note_off_c, 0, 76, 64
2, 201984, Note_on_c, 0, 74, 73
2, 202364, Note_off_c, 0, 74, 64
2, 202368, Note_on_c, 0, 74, 73
2, 202748, Note_off_c, 0, 74, 64
2, 202752, Note_on_c, 0, 74, 89
2, 202832, Note_off_c, 0, 74, 64
2, 202848, Note_on_c, 0, 82, 79
2, 203328, Note_off_c, 0, 82, 64
2, 203328, Note_on_c, 0, 81, 78
2, 203420, Note_off_c, 0, 81, 64
2, 203424, Note_on_c, 0, 79, 76
2, 203516, Note_off_c, 0, 79, 64
2, 203520, Note_on_c, 0, 78, 75
2, 203900, Note_off_c, 0, 78, 64
2, 203904, Note_on_c, 0, 81, 78
2, 204284, Note_off_c, 0, 81, 64
2, 204288, Note_on_c, 0, 79, 76
2, 204668, Note_off_c, 0, 79, 64
2, 205056, Note_on_c, 0, 74, 75
2, 205056, Note_on_c, 0, 70, 75
2, 205436, Note_off_c, 0, 74, 64
2, 205436, Note_off_c, 0, 70, 64
2, 205440, Note_on_c, 0, 79, 76
2, 205440, Note_on_c, 0, 74, 73
2, 205820, Note_off_c, 0, 79, 64
2, 205820, Note_off_c, 0, 74, 64
2, 205824, Note_on_c, 0, 82, 79
2, 205824, Note_on_c, 0, 79, 76
2, 206204, Note_off_c, 0, 82, 64
2, 206204, Note_off_c, 0, 79, 64
2, 206208, Note_on_c, 0, 86, 81
2, 206208, Note_on_c, 0, 82, 79
2, 206588, Note_off_c, 0, 86, 64
2, 206588, Note_off_c, 0, 82, 64
2, 206592, Note_on_c, 0, 77, 75
2, 206592, Note_on_c, 0, 72, 72
2, 206592, Note_on_c, 0, 69, 71
2, 206972, Note_off_c, 0, 77, 64
2, 206972, Note_off_c, 0, 72, 64
2, 206972, Note_off_c, 0, 69, 64
2, 206976, Note_on_c, 0, 81, 83
2, 206976, Note_on_c, 0, 72, 72
2, 207068, Note_off_c, 0, 81, 64
2, 207072, Note_on_c, 0, 79, 76
2, 207072, Note_on_c, 0, 76, 74
2, 207356, Note_off_c, 0, 72, 64
2, 207356, Note_off_c, 0, 79, 64
2, 207356, Note_off_c, 0, 76, 64
2, 207360, Note_on_c, 0, 77, 75
2, 207360, Note_on_c, 0, 69, 75
2, 207360, Note_on_c, 0, 65, 75
2, 207740, Note_off_c, 0, 77, 64
2, 207740, Note_off_c, 0, 69, 64
2, 207740, Note_off_c, 0, 65, 64
2, 208128, Note_on_c, 0, 72, 72
2, 208508, Note_off_c, 0, 72, 64
2, 208512, Note_on_c, 0, 72, 72
2, 208892, Note_off_c, 0, 72, 64
2, 208896, Note_on_c, 0, 72, 78
2, 208896, Note_on_c, 0, 69, 72
2, 208896, Note_on_c, 0, 81, 70
2, 209468, Note_off_c, 0, 81, 64
2, 209472, Note_on_c, 0, 79, 76
2, 209564, Note_off_c, 0, 79, 64
2, 209568, Note_on_c, 0, 77, 75
2, 209660, Note_off_c, 0, 72, 64
2, 209660, Note_off_c, 0, 69, 64
2, 209660, Note_off_c, 0, 77, 64
2, 209664, Note_on_c, 0, 70, 74
2, 209664, Note_on_c, 0, 76, 71
2, 210044, Note_off_c, 0, 76, 64
2, 210048, Note_on_c, 0, 79, 76
2, 210428, Note_off_c, 0, 70, 64
2, 210428, Note_off_c, 0, 79, 64
2, 210432, Note_on_c, 0, 77, 75
2, 210432, Note_on_c, 0, 72, 72
2, 210812, Note_off_c, 0, 77, 64
2, 210812, Note_off_c, 0, 72, 64
2, 211200, Note_on_c, 0, 84, 86
2, 211388, Note_off_c, 0, 84, 64
2, 211392, Note_on_c, 0, 82, 84
2, 211484, Note_off_c, 0, 82, 64
2, 211488, Note_on_c, 0, 81, 83
2, 211580, Note_off_c, 0, 81, 64
2, 211584, Note_on_c, 0, 79, 82
2, 211676, Note_off_c, 0, 79, 64
2, 211680, Note_on_c, 0, 77, 81
2, 211772, Note_off_c, 0, 77, 64
2, 211776, Note_on_c, 0, 76, 80
2, 211868, Note_off_c, 0, 76, 64
2, 211872, Note_on_c, 0, 74, 80
2, 211964, Note_off_c, 0, 74, 64
2, 211968, Note_on_c, 0, 72, 79
2, 212060, Note_off_c, 0, 72, 64
2, 212064, Note_on_c, 0, 70, 79
2, 212156, Note_off_c, 0, 70, 64
2, 212160, Note_on_c, 0, 69, 78
2, 212252, Note_off_c, 0, 69, 64
2, 212256, Note_on_c, 0, 67, 78
2, 212348, Note_off_c, 0, 67, 64
2, 212352, Note_on_c, 0, 65, 76
2, 212444, Note_off_c, 0, 65, 64
2, 212448, Note_on_c, 0, 64, 76
2, 212540, Note_off_c, 0, 64, 64
2, 212544, Note_on_c, 0, 62, 75
2, 212636, Note_off_c, 0, 62, 64
2, 212640, Note_on_c, 0, 60, 75
2, 212732, Note_off_c, 0, 60, 64
2, 214272, Note_on_c, 0, 74, 73
2, 214652, Note_off_c, 0, 74, 64
2, 214656, Note_on_c, 0, 74, 73
2, 215036, Note_off_c, 0, 74, 64
2, 215040, Note_on_c, 0, 74, 73
2, 215040, Note_on_c, 0, 70, 71
2, 215040, Note_on_c, 0, 82, 79
2, 215612, Note_off_c, 0, 82, 64
2, 215616, Note_on_c, 0, 81, 78
2, 215708, Note_off_c, 0, 81, 64
2, 215712, Note_on_c, 0, 79, 76
2, 215804, Note_off_c, 0, 74, 64
2, 215804, Note_off_c, 0, 70, 64
2, 215804, Note_off_c, 0, 79, 64
2, 215808, Note_on_c, 0, 72, 75
2, 215808, Note_on_c, 0, 78, 75
2, 215808, Note_on_c, 0, 75, 76
2, 216188, Note_off_c, 0, 78, 64
2, 216192, Note_on_c, 0, 81, 78
2, 216380, Note_off_c, 0, 75, 64
2, 216384, Note_on_c, 0, 74, 73
2, 216572, Note_off_c, 0, 72, 64
2, 216572, Note_off_c, 0, 81, 64
2, 216572, Note_off_c, 0, 74, 64
2, 216576, Note_on_c, 0, 79, 76
2, 216576, Note_on_c, 0, 74, 73
2, 216956, Note_off_c, 0, 79, 64
2, 216956, Note_off_c, 0, 74, 64
2, 217344, Note_on_c, 0, 86, 85
2, 217532, Note_off_c, 0, 86, 64
2, 217536, Note_on_c, 0, 84, 84
2, 217628, Note_off_c, 0, 84, 64
2, 217632, Note_on_c, 0, 82, 83
2, 217724, Note_off_c, 0, 82, 64
2, 217728, Note_on_c, 0, 81, 82
2, 217820, Note_off_c, 0, 81, 64
2, 217824, Note_on_c, 0, 79, 82
2, 217916, Note_off_c, 0, 79, 64
2, 217920, Note_on_c, 0, 77, 81
2, 218012, Note_off_c, 0, 77, 64
2, 218016, Note_on_c, 0, 75, 80
2, 218108, Note_off_c, 0, 75, 64
2, 218112, Note_on_c, 0, 74, 80
2, 218204, Note_off_c, 0, 74, 64
2, 218208, Note_on_c, 0, 72, 79
2, 218300, Note_off_c, 0, 72, 64
2, 218304, Note_on_c, 0, 70, 78
2, 218396, Note_off_c, 0, 70, 64
2, 218400, Note_on_c, 0, 69, 78
2, 218492, Note_off_c, 0, 69, 64
2, 218496, Note_on_c, 0, 67, 76
2, 218588, Note_off_c, 0, 67, 64
2, 218592, Note_on_c, 0, 65, 76
2, 218684, Note_off_c, 0, 65, 64
2, 218688, Note_on_c, 0, 64, 75
2, 218780, Note_off_c, 0, 64, 64
2, 218784, Note_on_c, 0, 62, 75
2, 218876, Note_off_c, 0, 62, 64
2, 218880, Note_on_c, 0, 65, 75
2, 218880, Note_on_c, 0, 60, 75
2, 219260, Note_off_c, 0, 65, 64
2, 219260, Note_off_c, 0, 60, 64
2, 219264, Note_on_c, 0, 69, 86
2, 219356, Note_off_c, 0, 69, 64
2, 219360, Note_on_c, 0, 67, 75
2, 219360, Note_on_c, 0, 64, 75
2, 219644, Note_off_c, 0, 67, 64
2, 219644, Note_off_c, 0, 64, 64
2, 219648, Note_on_c, 0, 65, 75
2, 219836, Note_off_c, 0, 65, 64
2, 219840, Note_on_c, 0, 67, 75
2, 219932, Note_off_c, 0, 67, 64
2, 219936, Note_on_c, 0, 69, 76
2, 220028, Note_off_c, 0, 69, 64
2, 220032, Note_on_c, 0, 70, 76
2, 220124, Note_off_c, 0, 70, 64
2, 220128, Note_on_c, 0, 72, 78
2, 220220, Note_off_c, 0, 72, 64
2, 220224, Note_on_c, 0, 74, 78
2, 220316, Note_off_c, 0, 74, 64
2, 220320, Note_on_c, 0, 76, 79
2, 220412, Note_off_c, 0, 76, 64
2, 220416, Note_on_c, 0, 77, 79
2, 220508, Note_off_c, 0, 77, 64
2, 220512, Note_on_c, 0, 79, 80
2, 220604, Note_off_c, 0, 79, 64
2, 220608, Note_on_c, 0, 81, 80
2, 220700, Note_off_c, 0, 81, 64
2, 220704, Note_on_c, 0, 82, 81
2, 220796, Note_off_c, 0, 82, 64
2, 220800, Note_on_c, 0, 83, 81
2, 220892, Note_off_c, 0, 83, 64
2, 220896, Note_on_c, 0, 84, 82
2, 220988, Note_off_c, 0, 84, 64
2, 220992, Note_on_c, 0, 86, 83
2, 221084, Note_off_c, 0, 86, 64
2, 221088, Note_on_c, 0, 84, 82
2, 221180, Note_off_c, 0, 84, 64
2, 221184, Note_on_c, 0, 76, 76
2, 221184, Note_on_c, 0, 60, 75
2, 221276, Note_off_c, 0, 60, 64
2, 221280, Note_on_c, 0, 72, 75
2, 221372, Note_off_c, 0, 76, 64
2, 221372, Note_off_c, 0, 72, 64
2, 221376, Note_on_c, 0, 77, 78
2, 221376, Note_on_c, 0, 62, 75
2, 221468, Note_off_c, 0, 62, 64
2, 221472, Note_on_c, 0, 72, 75
2, 221564, Note_off_c, 0, 77, 64
2, 221564, Note_off_c, 0, 72, 64
2, 221568, Note_on_c, 0, 79, 79
2, 221568, Note_on_c, 0, 64, 75
2, 221660, Note_off_c, 0, 64, 64
2, 221664, Note_on_c, 0, 72, 75
2, 221756, Note_off_c, 0, 79, 64
2, 221756, Note_off_c, 0, 72, 64
2, 221760, Note_on_c, 0, 81, 80
2, 221760, Note_on_c, 0, 65, 75
2, 221852, Note_off_c, 0, 65, 64
2, 221856, Note_on_c, 0, 72, 75
2, 221948, Note_off_c, 0, 81, 64
2, 221948, Note_off_c, 0, 72, 64
2, 221952, Note_on_c, 0, 82, 81
2, 221952, Note_on_c, 0, 67, 75
2, 222044, Note_off_c, 0, 67, 64
2, 222048, Note_on_c, 0, 72, 75
2, 222140, Note_off_c, 0, 82, 64
2, 222140, Note_off_c, 0, 72, 64
2, 222144, Note_on_c, 0, 84, 82
2, 222144, Note_on_c, 0, 69, 75
2, 222236, Note_off_c, 0, 69, 64
2, 222240, Note_on_c, 0, 72, 75
2, 222332, Note_off_c, 0, 84, 64
2, 222332, Note_off_c, 0, 72, 64
2, 222336, Note_on_c, 0, 86, 83
2, 222336, Note_on_c, 0, 70, 75
2, 222428, Note_off_c, 0, 70, 64
2, 222432, Note_on_c, 0, 72, 75
2, 222524, Note_off_c, 0, 86, 64
2, 222524, Note_off_c, 0, 72, 64
2, 222528, Note_on_c, 0, 88, 84
2, 222528, Note_on_c, 0, 67, 75
2, 222620, Note_off_c, 0, 67, 64
2, 222624, Note_on_c, 0, 72, 75
2, 222716, Note_off_c, 0, 88, 64
2, 222716, Note_off_c, 0, 72, 64
2, 222720, Note_on_c, 0, 89, 84
2, 222720, Note_on_c, 0, 69, 75
2, 222812, Note_off_c, 0, 89, 64
2, 222816, Note_on_c, 0, 88, 83
2, 222908, Note_off_c, 0, 88, 64
2, 222912, Note_on_c, 0, 86, 82
2, 223004, Note_off_c, 0, 86, 64
2, 223008, Note_on_c, 0, 84, 81
2, 223100, Note_off_c, 0, 69, 64
2, 223100, Note_off_c, 0, 84, 64
2, 223104, Note_on_c, 0, 83, 80
2, 223196, Note_off_c, 0, 83, 64
2, 223200, Note_on_c, 0, 84, 81
2, 223292, Note_off_c, 0, 84, 64
2, 223296, Note_on_c, 0, 86, 82
2, 223388, Note_off_c, 0, 86, 64
2, 223392, Note_on_c, 0, 84, 81
2, 223484, Note_off_c, 0, 84, 64
2, 223488, Note_on_c, 0, 82, 80
2, 223580, Note_off_c, 0, 82, 64
2, 223584, Note_on_c, 0, 81, 79
2, 223676, Note_off_c, 0, 81, 64
2, 223680, Note_on_c, 0, 79, 78
2, 223772, Note_off_c, 0, 79, 64
2, 223776, Note_on_c, 0, 77, 76
2, 223868, Note_off_c, 0, 77, 64
2, 223872, Note_on_c, 0, 76, 74
2, 223964, Note_off_c, 0, 76, 64
2, 223968, Note_on_c, 0, 77, 75
2, 224060, Note_off_c, 0, 77, 64
2, 224064, Note_on_c, 0, 79, 76
2, 224156, Note_off_c, 0, 79, 64
2, 224160, Note_on_c, 0, 77, 75
2, 224252, Note_off_c, 0, 77, 64
2, 224256, Note_on_c, 0, 76, 74
2, 224256, Note_on_c, 0, 58, 75
2, 224348, Note_off_c, 0, 58, 64
2, 224352, Note_on_c, 0, 72, 75
2, 224444, Note_off_c, 0, 76, 64
2, 224444, Note_off_c, 0, 72, 64
2, 224448, Note_on_c, 0, 77, 75
2, 224448, Note_on_c, 0, 62, 75
2, 224540, Note_off_c, 0, 62, 64
2, 224544, Note_on_c, 0, 72, 75
2, 224636, Note_off_c, 0, 77, 64
2, 224636, Note_off_c, 0, 72, 64
2, 224640, Note_on_c, 0, 79, 76
2, 224640, Note_on_c, 0, 64, 75
2, 224732, Note_off_c, 0, 64, 64
2, 224736, Note_on_c, 0, 72, 75
2, 224828, Note_off_c, 0, 79, 64
2, 224828, Note_off_c, 0, 72, 64
2, 224832, Note_on_c, 0, 81, 78
2, 224832, Note_on_c, 0, 65, 75
2, 224924, Note_off_c, 0, 65, 64
2, 224928, Note_on_c, 0, 72, 75
2, 225020, Note_off_c, 0, 81, 64
2, 225020, Note_off_c, 0, 72, 64
2, 225024, Note_on_c, 0, 82, 79
2, 225024, Note_on_c, 0, 67, 75
2, 225116, Note_off_c, 0, 67, 64
2, 225120, Note_on_c, 0, 72, 75
2, 225212, Note_off_c, 0, 82, 64
2, 225212, Note_off_c, 0, 72, 64
2, 225216, Note_on_c, 0, 84, 80
2, 225216, Note_on_c, 0, 69, 75
2, 225308, Note_off_c, 0, 69, 64
2, 225312, Note_on_c, 0, 72, 75
2, 225404, Note_off_c, 0, 84, 64
2, 225404, Note_off_c, 0, 72, 64
2, 225408, Note_on_c, 0, 86, 81
2, 225408, Note_on_c, 0, 70, 75
2, 225500, Note_off_c, 0, 70, 64
2, 225504, Note_on_c, 0, 72, 75
2, 225596, Note_off_c, 0, 86, 64
2, 225596, Note_off_c, 0, 72, 64
2, 225600, Note_on_c, 0, 88, 82
2, 225600, Note_on_c, 0, 67, 75
2, 225692, Note_off_c, 0, 67, 64
2, 225696, Note_on_c, 0, 72, 75
2, 225788, Note_off_c, 0, 88, 64
2, 225788, Note_off_c, 0, 72, 64
2, 225792, Note_on_c, 0, 89, 82
2, 225792, Note_on_c, 0, 69, 75
2, 225884, Note_off_c, 0, 69, 64
2, 225888, Note_on_c, 0, 72, 75
2, 225980, Note_off_c, 0, 89, 64
2, 225980, Note_off_c, 0, 72, 64
2, 225984, Note_on_c, 0, 88, 81
2, 225984, Note_on_c, 0, 67, 75
2, 226076, Note_off_c, 0, 67, 64
2, 226080, Note_on_c, 0, 70, 75
2, 226172, Note_off_c, 0, 88, 64
2, 226172, Note_off_c, 0, 70, 64
2, 226176, Note_on_c, 0, 89, 82
2, 226176, Note_on_c, 0, 69, 75
2, 226268, Note_off_c, 0, 69, 64
2, 226272, Note_on_c, 0, 72, 75
2, 226364, Note_off_c, 0, 89, 64
2, 226364, Note_off_c, 0, 72, 64
2, 226368, Note_on_c, 0, 64, 75
2, 226368, Note_on_c, 0, 85, 80
2, 226408, Note_off_c, 0, 85, 64
2, 226416, Note_on_c, 0, 86, 81
2, 226456, Note_off_c, 0, 86, 64
2, 226460, Note_off_c, 0, 64, 64
2, 226464, Note_on_c, 0, 67, 75
2, 226464, Note_on_c, 0, 85, 80
2, 226504, Note_off_c, 0, 85, 64
2, 226512, Note_on_c, 0, 86, 81
2, 226552, Note_off_c, 0, 86, 64
2, 226556, Note_off_c, 0, 67, 64
2, 226560, Note_on_c, 0, 86, 81
2, 226560, Note_on_c, 0, 65, 75
2, 226652, Note_off_c, 0, 65, 64
2, 226656, Note_on_c, 0, 69, 75
2, 226748, Note_off_c, 0, 86, 64
2, 226748, Note_off_c, 0, 69, 64
2, 226752, Note_on_c, 0, 85, 80
2, 226752, Note_on_c, 0, 64, 75
2, 226844, Note_off_c, 0, 64, 64
2, 226848, Note_on_c, 0, 67, 75
2, 226940, Note_off_c, 0, 85, 64
2, 226940, Note_off_c, 0, 67, 64
2, 226944, Note_on_c, 0, 86, 81
2, 226944, Note_on_c, 0, 65, 75
2, 227036, Note_off_c, 0, 65, 64
2, 227040, Note_on_c, 0, 69, 75
2, 227132, Note_off_c, 0, 86, 64
2, 227132, Note_off_c, 0, 69, 64
2, 227136, Note_on_c, 0, 81, 78
2, 227136, Note_on_c, 0, 61, 75
2, 227228, Note_off_c, 0, 61, 64
2, 227232, Note_on_c, 0, 64, 75
2, 227324, Note_off_c, 0, 81, 64
2, 227324, Note_off_c, 0, 64, 64
2, 227328, Note_on_c, 0, 82, 79
2, 227328, Note_on_c, 0, 62, 75
2, 227420, Note_off_c, 0, 62, 64
2, 227424, Note_on_c, 0, 65, 75
2, 227516, Note_off_c, 0, 82, 64
2, 227516, Note_off_c, 0, 65, 64
2, 227520, Note_on_c, 0, 81, 78
2, 227520, Note_on_c, 0, 61, 75
2, 227612, Note_off_c, 0, 61, 64
2, 227616, Note_on_c, 0, 64, 75
2, 227708, Note_off_c, 0, 81, 64
2, 227708, Note_off_c, 0, 64, 64
2, 227712, Note_on_c, 0, 82, 79
2, 227712, Note_on_c, 0, 62, 75
2, 227804, Note_off_c, 0, 62, 64
2, 227808, Note_on_c, 0, 65, 75
2, 227900, Note_off_c, 0, 82, 64
2, 227900, Note_off_c, 0, 65, 64
2, 227904, Note_on_c, 0, 59, 75
2, 227904, Note_on_c, 0, 80, 76
2, 227944, Note_off_c, 0, 80, 64
2, 227952, Note_on_c, 0, 81, 78
2, 227992, Note_off_c, 0, 81, 64
2, 227996, Note_off_c, 0, 59, 64
2, 228000, Note_on_c, 0, 62, 75
2, 228000, Note_on_c, 0, 80, 76
2, 228040, Note_off_c, 0, 80, 64
2, 228048, Note_on_c, 0, 81, 78
2, 228088, Note_off_c, 0, 81, 64
2, 228092, Note_off_c, 0, 62, 64
2, 228096, Note_on_c, 0, 60, 75
2, 228096, Note_on_c, 0, 81, 78
2, 228188, Note_off_c, 0, 60, 64
2, 228192, Note_on_c, 0, 64, 75
2, 228284, Note_off_c, 0, 81, 64
2, 228284, Note_off_c, 0, 64, 64
2, 228288, Note_on_c, 0, 80, 76
2, 228288, Note_on_c, 0, 59, 75
2, 228380, Note_off_c, 0, 59, 64
2, 228384, Note_on_c, 0, 62, 75
2, 228476, Note_off_c, 0, 80, 64
2, 228476, Note_off_c, 0, 62, 64
2, 228480, Note_on_c, 0, 81, 78
2, 228480, Note_on_c, 0, 60, 75
2, 228572, Note_off_c, 0, 60, 64
2, 228576, Note_on_c, 0, 64, 75
2, 228668, Note_off_c, 0, 81, 64
2, 228668, Note_off_c, 0, 64, 64
2, 228672, Note_on_c, 0, 78, 75
2, 228672, Note_on_c, 0, 57, 75
2, 228764, Note_off_c, 0, 57, 64
2, 228768, Note_on_c, 0, 60, 75
2, 228860, Note_off_c, 0, 78, 64
2, 228860, Note_off_c, 0, 60, 64
2, 228864, Note_on_c, 0, 58, 76
2, 228864, Note_on_c, 0, 79, 75
2, 228956, Note_off_c, 0, 79, 64
2, 228960, Note_on_c, 0, 74, 75
2, 229052, Note_off_c, 0, 74, 64
2, 229056, Note_on_c, 0, 75, 75
2, 229148, Note_off_c, 0, 75, 64
2, 229152, Note_on_c, 0, 74, 75
2, 229244, Note_off_c, 0, 58, 64
2, 229244, Note_off_c, 0, 74, 64
2, 229248, Note_on_c, 0, 76, 75
2, 229340, Note_off_c, 0, 76, 64
2, 229344, Note_on_c, 0, 74, 75
2, 229436, Note_off_c, 0, 74, 64
2, 229440, Note_on_c, 0, 78, 75
2, 229532, Note_off_c, 0, 78, 64
2, 229536, Note_on_c, 0, 74, 75
2, 229628, Note_off_c, 0, 74, 64
2, 229632, Note_on_c, 0, 79, 76
2, 229724, Note_off_c, 0, 79, 64
2, 229728, Note_on_c, 0, 74, 75
2, 229820, Note_off_c, 0, 74, 64
2, 229824, Note_on_c, 0, 81, 78
2, 229916, Note_off_c, 0, 81, 64
2, 229920, Note_on_c, 0, 74, 75
2, 230012, Note_off_c, 0, 74, 64
2, 230016, Note_on_c, 0, 82, 79
2, 230108, Note_off_c, 0, 82, 64
2, 230112, Note_on_c, 0, 74, 75
2, 230204, Note_off_c, 0, 74, 64
2, 230208, Note_on_c, 0, 84, 80
2, 230300, Note_off_c, 0, 84, 64
2, 230304, Note_on_c, 0, 74, 75
2, 230396, Note_off_c, 0, 74, 64
2, 230400, Note_on_c, 0, 86, 81
2, 230492, Note_off_c, 0, 86, 64
2, 230496, Note_on_c, 0, 88, 82
2, 230588, Note_off_c, 0, 88, 64
2, 230592, Note_on_c, 0, 89, 83
2, 230684, Note_off_c, 0, 89, 64
2, 230688, Note_on_c, 0, 88, 82
2, 230780, Note_off_c, 0, 88, 64
2, 230784, Note_on_c, 0, 86, 81
2, 230876, Note_off_c, 0, 86, 64
2, 230880, Note_on_c, 0, 84, 80
2, 230972, Note_off_c, 0, 84, 64
2, 230976, Note_on_c, 0, 82, 79
2, 231068, Note_off_c, 0, 82, 64
2, 231072, Note_on_c, 0, 81, 78
2, 231164, Note_off_c, 0, 81, 64
2, 231168, Note_on_c, 0, 79, 76
2, 231260, Note_off_c, 0, 79, 64
2, 231264, Note_on_c, 0, 81, 78
2, 231356, Note_off_c, 0, 81, 64
2, 231360, Note_on_c, 0, 82, 79
2, 231452, Note_off_c, 0, 82, 64
2, 231456, Note_on_c, 0, 81, 78
2, 231548, Note_off_c, 0, 81, 64
2, 231552, Note_on_c, 0, 79, 76
2, 231644, Note_off_c, 0, 79, 64
2, 231648, Note_on_c, 0, 77, 75
2, 231740, Note_off_c, 0, 77, 64
2, 231744, Note_on_c, 0, 76, 75
2, 231836, Note_off_c, 0, 76, 64
2, 231840, Note_on_c, 0, 74, 74
2, 231932, Note_off_c, 0, 74, 64
2, 231936, Note_on_c, 0, 72, 75
2, 232028, Note_off_c, 0, 72, 64
2, 232032, Note_on_c, 0, 84, 80
2, 232124, Note_off_c, 0, 84, 64
2, 232128, Note_on_c, 0, 71, 75
2, 232220, Note_off_c, 0, 71, 64
2, 232224, Note_on_c, 0, 83, 79
2, 232316, Note_off_c, 0, 83, 64
2, 232320, Note_on_c, 0, 72, 75
2, 232412, Note_off_c, 0, 72, 64
2, 232416, Note_on_c, 0, 84, 80
2, 232508, Note_off_c, 0, 84, 64
2, 232512, Note_on_c, 0, 73, 75
2, 232604, Note_off_c, 0, 73, 64
2, 232608, Note_on_c, 0, 85, 80
2, 232700, Note_off_c, 0, 85, 64
2, 232704, Note_on_c, 0, 74, 75
2, 232796, Note_off_c, 0, 74, 64
2, 232800, Note_on_c, 0, 86, 81
2, 232892, Note_off_c, 0, 86, 64
2, 232896, Note_on_c, 0, 75, 75
2, 232988, Note_off_c, 0, 75, 64
2, 232992, Note_on_c, 0, 87, 81
2, 233084, Note_off_c, 0, 87, 64
2, 233088, Note_on_c, 0, 76, 75
2, 233180, Note_off_c, 0, 76, 64
2, 233184, Note_on_c, 0, 88, 82
2, 233276, Note_off_c, 0, 88, 64
2, 233280, Note_on_c, 0, 77, 75
2, 233372, Note_off_c, 0, 77, 64
2, 233376, Note_on_c, 0, 89, 83
2, 233468, Note_off_c, 0, 89, 64
2, 233472, Note_on_c, 0, 79, 76
2, 233472, Note_on_c, 0, 60, 75
2, 233512, Note_off_c, 0, 79, 64
2, 233520, Note_on_c, 0, 81, 78
2, 233560, Note_off_c, 0, 81, 64
2, 233564, Note_off_c, 0, 60, 64
2, 233568, Note_on_c, 0, 79, 76
2, 233568, Note_on_c, 0, 70, 75
2, 233608, Note_off_c, 0, 79, 64
2, 233616, Note_on_c, 0, 81, 78
2, 233656, Note_off_c, 0, 81, 64
2, 233660, Note_off_c, 0, 70, 64
2, 233664, Note_on_c, 0, 79, 76
2, 233664, Note_on_c, 0, 64, 75
2, 233704, Note_off_c, 0, 79, 64
2, 233712, Note_on_c, 0, 81, 78
2, 233752, Note_off_c, 0, 81, 64
2, 233756, Note_off_c, 0, 64, 64
2, 233760, Note_on_c, 0, 79, 76
2, 233760, Note_on_c, 0, 70, 75
2, 233800, Note_off_c, 0, 79, 64
2, 233808, Note_on_c, 0, 81, 78
2, 233848, Note_off_c, 0, 81, 64
2, 233852, Note_off_c, 0, 70, 64
2, 233856, Note_on_c, 0, 60, 75
2, 233856, Note_on_c, 0, 79, 76
2, 233896, Note_off_c, 0, 79, 64
2, 233904, Note_on_c, 0, 81, 78
2, 233944, Note_off_c, 0, 81, 64
2, 233948, Note_off_c, 0, 60, 64
2, 233952, Note_on_c, 0, 70, 75
2, 233952, Note_on_c, 0, 79, 76
2, 233992, Note_off_c, 0, 79, 64
2, 234000, Note_on_c, 0, 81, 78
2, 234040, Note_off_c, 0, 81, 64
2, 234044, Note_off_c, 0, 70, 64
2, 234048, Note_on_c, 0, 64, 75
2, 234048, Note_on_c, 0, 79, 76
2, 234088, Note_off_c, 0, 79, 64
2, 234096, Note_on_c, 0, 81, 78
2, 234136, Note_off_c, 0, 81, 64
2, 234140, Note_off_c, 0, 64, 64
2, 234144, Note_on_c, 0, 70, 75
2, 234144, Note_on_c, 0, 79, 76
2, 234184, Note_off_c, 0, 79, 64
2, 234192, Note_on_c, 0, 81, 78
2, 234232, Note_off_c, 0, 81, 64
2, 234236, Note_off_c, 0, 70, 64
2, 234240, Note_on_c, 0, 60, 75
2, 234240, Note_on_c, 0, 79, 76
2, 234280, Note_off_c, 0, 79, 64
2, 234288, Note_on_c, 0, 81, 78
2, 234328, Note_off_c, 0, 81, 64
2, 234332, Note_off_c, 0, 60, 64
2, 234336, Note_on_c, 0, 70, 75
2, 234336, Note_on_c, 0, 79, 76
2, 234376, Note_off_c, 0, 79, 64
2, 234384, Note_on_c, 0, 81, 78
2, 234424, Note_off_c, 0, 81, 64
2, 234428, Note_off_c, 0, 70, 64
2, 234432, Note_on_c, 0, 64, 75
2, 234432, Note_on_c, 0, 79, 76
2, 234472, Note_off_c, 0, 79, 64
2, 234480, Note_on_c, 0, 81, 78
2, 234520, Note_off_c, 0, 81, 64
2, 234524, Note_off_c, 0, 64, 64
2, 234528, Note_on_c, 0, 70, 75
2, 234528, Note_on_c, 0, 79, 76
2, 234568, Note_off_c, 0, 79, 64
2, 234576, Note_on_c, 0, 81, 78
2, 234616, Note_off_c, 0, 81, 64
2, 234620, Note_off_c, 0, 70, 64
2, 234624, Note_on_c, 0, 60, 75
2, 234624, Note_on_c, 0, 79, 76
2, 234664, Note_off_c, 0, 79, 64
2, 234672, Note_on_c, 0, 81, 78
2, 234712, Note_off_c, 0, 81, 64
2, 234716, Note_off_c, 0, 60, 64
2, 234720, Note_on_c, 0, 70, 75
2, 234720, Note_on_c, 0, 79, 76
2, 234760, Note_off_c, 0, 79, 64
2, 234768, Note_on_c, 0, 81, 78
2, 234808, Note_off_c, 0, 81, 64
2, 234812, Note_off_c, 0, 70, 64
2, 234816, Note_on_c, 0, 77, 78
2, 234816, Note_on_c, 0, 64, 75
2, 234904, Note_off_c, 0, 77, 64
2, 234904, Note_off_c, 0, 64, 64
2, 234912, Note_on_c, 0, 79, 78
2, 234912, Note_on_c, 0, 70, 75
2, 235000, Note_off_c, 0, 79, 64
2, 235000, Note_off_c, 0, 70, 64
2, 235008, Note_on_c, 0, 65, 75
2, 235008, Note_on_c, 0, 69, 75
2, 235104, Note_on_c, 0, 77, 75
2, 235196, Note_off_c, 0, 77, 64
2, 235200, Note_on_c, 0, 76, 74
2, 235292, Note_off_c, 0, 76, 64
2, 235296, Note_on_c, 0, 77, 75
2, 235388, Note_off_c, 0, 65, 64
2, 235388, Note_off_c, 0, 69, 64
2, 235388, Note_off_c, 0, 77, 64
2, 235392, Note_on_c, 0, 79, 76
2, 235484, Note_off_c, 0, 79, 64
2, 235488, Note_on_c, 0, 77, 75
2, 235580, Note_off_c, 0, 77, 64
2, 235584, Note_on_c, 0, 76, 74
2, 235676, Note_off_c, 0, 76, 64
2, 235680, Note_on_c, 0, 77, 75
2, 235772, Note_off_c, 0, 77, 64
2, 235776, Note_on_c, 0, 67, 75
2, 235868, Note_off_c, 0, 67, 64
2, 235872, Note_on_c, 0, 79, 76
2, 235964, Note_off_c, 0, 79, 64
2, 235968, Note_on_c, 0, 66, 75
2, 236060, Note_off_c, 0, 66, 64
2, 236064, Note_on_c, 0, 78, 76
2, 236156, Note_off_c, 0, 78, 64
2, 236160, Note_on_c, 0, 67, 75
2, 236252, Note_off_c, 0, 67, 64
2, 236256, Note_on_c, 0, 79, 76
2, 236348, Note_off_c, 0, 79, 64
2, 236352, Note_on_c, 0, 69, 75
2, 236444, Note_off_c, 0, 69, 64
2, 236448, Note_on_c, 0, 81, 78
2, 236540, Note_off_c, 0, 81, 64
2, 236544, Note_on_c, 0, 70, 75
2, 236636, Note_off_c, 0, 70, 64
2, 236640, Note_on_c, 0, 82, 79
2, 236732, Note_off_c, 0, 82, 64
2, 236736, Note_on_c, 0, 69, 75
2, 236828, Note_off_c, 0, 69, 64
2, 236832, Note_on_c, 0, 81, 78
2, 236924, Note_off_c, 0, 81, 64
2, 236928, Note_on_c, 0, 70, 75
2, 237020, Note_off_c, 0, 70, 64
2, 237024, Note_on_c, 0, 82, 79
2, 237116, Note_off_c, 0, 82, 64
2, 237120, Note_on_c, 0, 68, 75
2, 237212, Note_off_c, 0, 68, 64
2, 237216, Note_on_c, 0, 80, 76
2, 237308, Note_off_c, 0, 80, 64
2, 237312, Note_on_c, 0, 69, 75
2, 237404, Note_off_c, 0, 69, 64
2, 237408, Note_on_c, 0, 81, 78
2, 237500, Note_off_c, 0, 81, 64
2, 237504, Note_on_c, 0, 68, 75
2, 237596, Note_off_c, 0, 68, 64
2, 237600, Note_on_c, 0, 80, 76
2, 237692, Note_off_c, 0, 80, 64
2, 237696, Note_on_c, 0, 69, 75
2, 237788, Note_off_c, 0, 69, 64
2, 237792, Note_on_c, 0, 81, 78
2, 237884, Note_off_c, 0, 81, 64
2, 237888, Note_on_c, 0, 71, 75
2, 237980, Note_off_c, 0, 71, 64
2, 237984, Note_on_c, 0, 83, 79
2, 238076, Note_off_c, 0, 83, 64
2, 238080, Note_on_c, 0, 63, 75
2, 238080, Note_on_c, 0, 72, 75
2, 238172, Note_off_c, 0, 63, 64
2, 238172, Note_off_c, 0, 72, 64
2, 238176, Note_on_c, 0, 65, 75
2, 238176, Note_on_c, 0, 84, 80
2, 238268, Note_off_c, 0, 65, 64
2, 238268, Note_off_c, 0, 84, 64
2, 238272, Note_on_c, 0, 62, 75
2, 238272, Note_on_c, 0, 71, 75
2, 238364, Note_off_c, 0, 62, 64
2, 238364, Note_off_c, 0, 71, 64
2, 238368, Note_on_c, 0, 65, 75
2, 238368, Note_on_c, 0, 83, 79
2, 238460, Note_off_c, 0, 65, 64
2, 238460, Note_off_c, 0, 83, 64
2, 238464, Note_on_c, 0, 63, 75
2, 238464, Note_on_c, 0, 72, 75
2, 238556, Note_off_c, 0, 63, 64
2, 238556, Note_off_c, 0, 72, 64
2, 238560, Note_on_c, 0, 65, 75
2, 238560, Note_on_c, 0, 84, 80
2, 238652, Note_off_c, 0, 65, 64
2, 238652, Note_off_c, 0, 84, 64
2, 238656, Note_on_c, 0, 60, 75
2, 238656, Note_on_c, 0, 69, 75
2, 238748, Note_off_c, 0, 60, 64
2, 238748, Note_off_c, 0, 69, 64
2, 238752, Note_on_c, 0, 65, 75
2, 238752, Note_on_c, 0, 81, 78
2, 238844, Note_off_c, 0, 65, 64
2, 238844, Note_off_c, 0, 81, 64
2, 238848, Note_on_c, 0, 62, 75
2, 238848, Note_on_c, 0, 70, 75
2, 238940, Note_off_c, 0, 62, 64
2, 238940, Note_off_c, 0, 70, 64
2, 238944, Note_on_c, 0, 65, 75
2, 238944, Note_on_c, 0, 82, 79
2, 239036, Note_off_c, 0, 65, 64
2, 239036, Note_off_c, 0, 82, 64
2, 239040, Note_on_c, 0, 60, 75
2, 239040, Note_on_c, 0, 69, 75
2, 239132, Note_off_c, 0, 60, 64
2, 239132, Note_off_c, 0, 69, 64
2, 239136, Note_on_c, 0, 65, 75
2, 239136, Note_on_c, 0, 81, 78
2, 239228, Note_off_c, 0, 65, 64
2, 239228, Note_off_c, 0, 81, 64
2, 239232, Note_on_c, 0, 62, 75
2, 239232, Note_on_c, 0, 70, 75
2, 239324, Note_off_c, 0, 62, 64
2, 239324, Note_off_c, 0, 70, 64
2, 239328, Note_on_c, 0, 65, 75
2, 239328, Note_on_c, 0, 82, 79
2, 239420, Note_off_c, 0, 65, 64
2, 239420, Note_off_c, 0, 82, 64
2, 239424, Note_on_c, 0, 57, 75
2, 239424, Note_on_c, 0, 72, 75
2, 239516, Note_off_c, 0, 57, 64
2, 239516, Note_off_c, 0, 72, 64
2, 239520, Note_on_c, 0, 65, 75
2, 239520, Note_on_c, 0, 84, 80
2, 239612, Note_off_c, 0, 65, 64
2, 239612, Note_off_c, 0, 84, 64
2, 239808, Note_on_c, 0, 65, 75
2, 239900, Note_off_c, 0, 65, 64
2, 239904, Note_on_c, 0, 70, 75
2, 239996, Note_off_c, 0, 70, 64
2, 240000, Note_on_c, 0, 74, 75
2, 240064, Note_on_c, 0, 77, 76
2, 240092, Note_off_c, 0, 74, 64
2, 240156, Note_off_c, 0, 77, 64
2, 240192, Note_on_c, 0, 82, 79
2, 240284, Note_off_c, 0, 82, 64
2, 240288, Note_on_c, 0, 86, 81
2, 240380, Note_off_c, 0, 86, 64
2, 240576, Note_on_c, 0, 67, 75
2, 240668, Note_off_c, 0, 67, 64
2, 240672, Note_on_c, 0, 70, 75
2, 240764, Note_off_c, 0, 70, 64
2, 240768, Note_on_c, 0, 76, 75
2, 240860, Note_off_c, 0, 76, 64
2, 240864, Note_on_c, 0, 79, 76
2, 240956, Note_off_c, 0, 79, 64
2, 240960, Note_on_c, 0, 82, 79
2, 241052, Note_off_c, 0, 82, 64
2, 241056, Note_on_c, 0, 88, 82
2, 241148, Note_off_c, 0, 88, 64
2, 241344, Note_on_c, 0, 69, 75
2, 241436, Note_off_c, 0, 69, 64
2, 241440, Note_on_c, 0, 72, 75
2, 241532, Note_off_c, 0, 72, 64
2, 241536, Note_on_c, 0, 77, 75
2, 241628, Note_off_c, 0, 77, 64
2, 241632, Note_on_c, 0, 81, 78
2, 241724, Note_off_c, 0, 81, 64
2, 241728, Note_on_c, 0, 84, 80
2, 241820, Note_off_c, 0, 84, 64
2, 241824, Note_on_c, 0, 89, 83
2, 241916, Note_off_c, 0, 89, 64
2, 242112, Note_on_c, 0, 62, 75
2, 242204, Note_off_c, 0, 62, 64
2, 242208, Note_on_c, 0, 65, 75
2, 242300, Note_off_c, 0, 65, 64
2, 242304, Note_on_c, 0, 71, 75
2, 242396, Note_off_c, 0, 71, 64
2, 242400, Note_on_c, 0, 74, 75
2, 242492, Note_off_c, 0, 74, 64
2, 242496, Note_on_c, 0, 77, 78
2, 242588, Note_off_c, 0, 77, 64
2, 242592, Note_on_c, 0, 83, 79
2, 242684, Note_off_c, 0, 83, 64
2, 242784, Note_on_c, 0, 72, 75
2, 242876, Note_off_c, 0, 72, 64
2, 242880, Note_on_c, 0, 84, 80
2, 242972, Note_off_c, 0, 84, 64
2, 242976, Note_on_c, 0, 81, 78
2, 243068, Note_off_c, 0, 81, 64
2, 243072, Note_on_c, 0, 77, 75
2, 243164, Note_off_c, 0, 77, 64
2, 243168, Note_on_c, 0, 72, 73
2, 243260, Note_off_c, 0, 72, 64
2, 243264, Note_on_c, 0, 69, 70
2, 243356, Note_off_c, 0, 69, 64
2, 243360, Note_on_c, 0, 65, 68
2, 243452, Note_off_c, 0, 65, 64
2, 243456, Note_on_c, 0, 67, 75
2, 243496, Note_off_c, 0, 67, 64
2, 243504, Note_on_c, 0, 69, 75
2, 243544, Note_off_c, 0, 69, 64
2, 243552, Note_on_c, 0, 67, 75
2, 243592, Note_off_c, 0, 67, 64
2, 243600, Note_on_c, 0, 69, 75
2, 243640, Note_off_c, 0, 69, 64
2, 243648, Note_on_c, 0, 67, 75
2, 243688, Note_off_c, 0, 67, 64
2, 243696, Note_on_c, 0, 69, 75
2, 243736, Note_off_c, 0, 69, 64
2, 243744, Note_on_c, 0, 67, 75
2, 243784, Note_off_c, 0, 67, 64
2, 243792, Note_on_c, 0, 69, 75
2, 243832, Note_off_c, 0, 69, 64
2, 243840, Note_on_c, 0, 67, 75
2, 243880, Note_off_c, 0, 67, 64
2, 243888, Note_on_c, 0, 69, 75
2, 243928, Note_off_c, 0, 69, 64
2, 243936, Note_on_c, 0, 67, 75
2, 243976, Note_off_c, 0, 67, 64
2, 243984, Note_on_c, 0, 69, 75
2, 244024, Note_off_c, 0, 69, 64
2, 244048, Note_on_c, 0, 67, 75
2, 244080, Note_on_c, 0, 69, 75
2, 244088, Note_off_c, 0, 67, 64
2, 244120, Note_off_c, 0, 69, 64
2, 244128, Note_on_c, 0, 67, 75
2, 244168, Note_off_c, 0, 67, 64
2, 244176, Note_on_c, 0, 69, 75
2, 244216, Note_off_c, 0, 69, 64
2, 244224, Note_on_c, 0, 65, 71
2, 244316, Note_off_c, 0, 65, 64
2, 244320, Note_on_c, 0, 69, 73
2, 244412, Note_off_c, 0, 69, 64
2, 244416, Note_on_c, 0, 72, 74
2, 244508, Note_off_c, 0, 72, 64
2, 244512, Note_on_c, 0, 77, 75
2, 244604, Note_off_c, 0, 77, 64
2, 244608, Note_on_c, 0, 65, 75
2, 244700, Note_off_c, 0, 65, 64
2, 244704, Note_on_c, 0, 77, 78
2, 244796, Note_off_c, 0, 77, 64
2, 244800, Note_on_c, 0, 65, 75
2, 244892, Note_off_c, 0, 65, 64
2, 244896, Note_on_c, 0, 77, 78
2, 244988, Note_off_c, 0, 77, 64
2, 244992, Note_on_c, 0, 66, 75
2, 245084, Note_off_c, 0, 66, 64
2, 245088, Note_on_c, 0, 77, 78
2, 245180, Note_off_c, 0, 77, 64
2, 245184, Note_on_c, 0, 65, 75
2, 245276, Note_off_c, 0, 65, 64
2, 245280, Note_on_c, 0, 77, 78
2, 245372, Note_off_c, 0, 77, 64
2, 245376, Note_on_c, 0, 67, 75
2, 245468, Note_off_c, 0, 67, 64
2, 245472, Note_on_c, 0, 77, 79
2, 245564, Note_off_c, 0, 77, 64
2, 245568, Note_on_c, 0, 69, 75
2, 245660, Note_off_c, 0, 69, 64
2, 245664, Note_on_c, 0, 77, 79
2, 245756, Note_off_c, 0, 77, 64
2, 245760, Note_on_c, 0, 70, 75
2, 245852, Note_off_c, 0, 70, 64
2, 245856, Note_on_c, 0, 77, 78
2, 245948, Note_off_c, 0, 77, 64
2, 245952, Note_on_c, 0, 69, 75
2, 246044, Note_off_c, 0, 69, 64
2, 246048, Note_on_c, 0, 77, 78
2, 246140, Note_off_c, 0, 77, 64
2, 246144, Note_on_c, 0, 70, 75
2, 246236, Note_off_c, 0, 70, 64
2, 246240, Note_on_c, 0, 77, 78
2, 246332, Note_off_c, 0, 77, 64
2, 246336, Note_on_c, 0, 67, 75
2, 246428, Note_off_c, 0, 67, 64
2, 246432, Note_on_c, 0, 77, 78
2, 246524, Note_off_c, 0, 77, 64
2, 246528, Note_on_c, 0, 68, 75
2, 246620, Note_off_c, 0, 68, 64
2, 246624, Note_on_c, 0, 77, 78
2, 246716, Note_off_c, 0, 77, 64
2, 246720, Note_on_c, 0, 70, 75
2, 246812, Note_off_c, 0, 70, 64
2, 246816, Note_on_c, 0, 77, 78
2, 246908, Note_off_c, 0, 77, 64
2, 246912, Note_on_c, 0, 69, 75
2, 247004, Note_off_c, 0, 69, 64
2, 247008, Note_on_c, 0, 77, 78
2, 247100, Note_off_c, 0, 77, 64
2, 247104, Note_on_c, 0, 71, 75
2, 247196, Note_off_c, 0, 71, 64
2, 247200, Note_on_c, 0, 77, 78
2, 247292, Note_off_c, 0, 77, 64
2, 247296, Note_on_c, 0, 72, 75
2, 247388, Note_off_c, 0, 72, 64
2, 247392, Note_on_c, 0, 77, 78
2, 247484, Note_off_c, 0, 77, 64
2, 247488, Note_on_c, 0, 71, 75
2, 247580, Note_off_c, 0, 71, 64
2, 247584, Note_on_c, 0, 77, 78
2, 247676, Note_off_c, 0, 77, 64
2, 247680, Note_on_c, 0, 72, 75
2, 247772, Note_off_c, 0, 72, 64
2, 247776, Note_on_c, 0, 77, 78
2, 247868, Note_off_c, 0, 77, 64
2, 247872, Note_on_c, 0, 69, 75
2, 247964, Note_off_c, 0, 69, 64
2, 247968, Note_on_c, 0, 77, 78
2, 248060, Note_off_c, 0, 77, 64
2, 248064, Note_on_c, 0, 70, 75
2, 248156, Note_off_c, 0, 70, 64
2, 248160, Note_on_c, 0, 77, 78
2, 248252, Note_off_c, 0, 77, 64
2, 248256, Note_on_c, 0, 69, 75
2, 248348, Note_off_c, 0, 69, 64
2, 248352, Note_on_c, 0, 77, 78
2, 248444, Note_off_c, 0, 77, 64
2, 248448, Note_on_c, 0, 70, 75
2, 248540, Note_off_c, 0, 70, 64
2, 248544, Note_on_c, 0, 77, 78
2, 248636, Note_off_c, 0, 77, 64
2, 248640, Note_on_c, 0, 72, 75
2, 248732, Note_off_c, 0, 72, 64
2, 248736, Note_on_c, 0, 77, 78
2, 248828, Note_off_c, 0, 77, 64
2, 248832, Note_on_c, 0, 73, 97
2, 248924, Note_off_c, 0, 73, 64
2, 248928, Note_on_c, 0, 77, 99
2, 249020, Note_off_c, 0, 77, 64
2, 249024, Note_on_c, 0, 82, 102
2, 249116, Note_off_c, 0, 82, 64
2, 249120, Note_on_c, 0, 77, 99
2, 249212, Note_off_c, 0, 77, 64
2, 249216, Note_on_c, 0, 72, 97
2, 249308, Note_off_c, 0, 72, 64
2, 249312, Note_on_c, 0, 77, 99
2, 249404, Note_off_c, 0, 77, 64
2, 249408, Note_on_c, 0, 81, 102
2, 249500, Note_off_c, 0, 81, 64
2, 249504, Note_on_c, 0, 77, 99
2, 249596, Note_off_c, 0, 77, 64
2, 249600, Note_on_c, 0, 85, 73
2, 249692, Note_off_c, 0, 85, 64
2, 249696, Note_on_c, 0, 77, 71
2, 249788, Note_off_c, 0, 77, 64
2, 249792, Note_on_c, 0, 85, 73
2, 249884, Note_off_c, 0, 85, 64
2, 249888, Note_on_c, 0, 77, 71
2, 249980, Note_off_c, 0, 77, 64
2, 249984, Note_on_c, 0, 84, 73
2, 250076, Note_off_c, 0, 84, 64
2, 250080, Note_on_c, 0, 77, 71
2, 250172, Note_off_c, 0, 77, 64
2, 250176, Note_on_c, 0, 84, 73
2, 250268, Note_off_c, 0, 84, 64
2, 250272, Note_on_c, 0, 77, 71
2, 250364, Note_off_c, 0, 77, 64
2, 250368, Note_on_c, 0, 73, 97
2, 250460, Note_off_c, 0, 73, 64
2, 250464, Note_on_c, 0, 77, 99
2, 250556, Note_off_c, 0, 77, 64
2, 250560, Note_on_c, 0, 82, 102
2, 250652, Note_off_c, 0, 82, 64
2, 250656, Note_on_c, 0, 77, 99
2, 250748, Note_off_c, 0, 77, 64
2, 250752, Note_on_c, 0, 72, 97
2, 250844, Note_off_c, 0, 72, 64
2, 250848, Note_on_c, 0, 77, 99
2, 250940, Note_off_c, 0, 77, 64
2, 250944, Note_on_c, 0, 81, 102
2, 251036, Note_off_c, 0, 81, 64
2, 251040, Note_on_c, 0, 77, 99
2, 251132, Note_off_c, 0, 77, 64
2, 251136, Note_on_c, 0, 85, 73
2, 251228, Note_off_c, 0, 85, 64
2, 251232, Note_on_c, 0, 77, 71
2, 251324, Note_off_c, 0, 77, 64
2, 251328, Note_on_c, 0, 85, 73
2, 251420, Note_off_c, 0, 85, 64
2, 251424, Note_on_c, 0, 77, 71
2, 251516, Note_off_c, 0, 77, 64
2, 251520, Note_on_c, 0, 84, 73
2, 251612, Note_off_c, 0, 84, 64
2, 251616, Note_on_c, 0, 77, 69
2, 251708, Note_off_c, 0, 77, 64
2, 251712, Note_on_c, 0, 84, 73
2, 251804, Note_off_c, 0, 84, 64
2, 251808, Note_on_c, 0, 77, 69
2, 251900, Note_off_c, 0, 77, 64
2, 251904, Note_on_c, 0, 73, 97
2, 251996, Note_off_c, 0, 73, 64
2, 252000, Note_on_c, 0, 77, 99
2, 252092, Note_off_c, 0, 77, 64
2, 252096, Note_on_c, 0, 82, 102
2, 252188, Note_off_c, 0, 82, 64
2, 252192, Note_on_c, 0, 77, 99
2, 252284, Note_off_c, 0, 77, 64
2, 252288, Note_on_c, 0, 72, 97
2, 252380, Note_off_c, 0, 72, 64
2, 252384, Note_on_c, 0, 77, 99
2, 252476, Note_off_c, 0, 77, 64
2, 252480, Note_on_c, 0, 81, 102
2, 252572, Note_off_c, 0, 81, 64
2, 252576, Note_on_c, 0, 77, 99
2, 252668, Note_off_c, 0, 77, 64
2, 252672, Note_on_c, 0, 85, 73
2, 252764, Note_off_c, 0, 85, 64
2, 252768, Note_on_c, 0, 77, 71
2, 252860, Note_off_c, 0, 77, 64
2, 252864, Note_on_c, 0, 85, 73
2, 252956, Note_off_c, 0, 85, 64
2, 252960, Note_on_c, 0, 77, 71
2, 253052, Note_off_c, 0, 77, 64
2, 253056, Note_on_c, 0, 84, 73
2, 253148, Note_off_c, 0, 84, 64
2, 253152, Note_on_c, 0, 77, 71
2, 253244, Note_off_c, 0, 77, 64
2, 253248, Note_on_c, 0, 84, 73
2, 253340, Note_off_c, 0, 84, 64
2, 253344, Note_on_c, 0, 77, 71
2, 253436, Note_off_c, 0, 77, 64
2, 253440, Note_on_c, 0, 73, 95
2, 253532, Note_off_c, 0, 73, 64
2, 253536, Note_on_c, 0, 77, 97
2, 253628, Note_off_c, 0, 77, 64
2, 253632, Note_on_c, 0, 85, 102
2, 253724, Note_off_c, 0, 85, 64
2, 253728, Note_on_c, 0, 77, 97
2, 253820, Note_off_c, 0, 77, 64
2, 253824, Note_on_c, 0, 85, 102
2, 253916, Note_off_c, 0, 85, 64
2, 253920, Note_on_c, 0, 77, 97
2, 254012, Note_off_c, 0, 77, 64
2, 254016, Note_on_c, 0, 85, 102
2, 254108, Note_off_c, 0, 85, 64
2, 254112, Note_on_c, 0, 77, 97
2, 254204, Note_off_c, 0, 77, 64
2, 254208, Note_on_c, 0, 74, 95
2, 254288, Note_on_c, 0, 77, 97
2, 254300, Note_off_c, 0, 74, 64
2, 254380, Note_off_c, 0, 77, 64
2, 254400, Note_on_c, 0, 86, 103
2, 254492, Note_off_c, 0, 86, 64
2, 254496, Note_on_c, 0, 77, 97
2, 254588, Note_off_c, 0, 77, 64
2, 254592, Note_on_c, 0, 86, 103
2, 254684, Note_off_c, 0, 86, 64
2, 254688, Note_on_c, 0, 77, 97
2, 254780, Note_off_c, 0, 77, 64
2, 254784, Note_on_c, 0, 86, 103
2, 254876, Note_off_c, 0, 86, 64
2, 254880, Note_on_c, 0, 77, 97
2, 254972, Note_off_c, 0, 77, 64
2, 254976, Note_on_c, 0, 76, 96
2, 255068, Note_off_c, 0, 76, 64
2, 255072, Note_on_c, 0, 79, 98
2, 255164, Note_off_c, 0, 79, 64
2, 255168, Note_on_c, 0, 88, 104
2, 255260, Note_off_c, 0, 88, 64
2, 255264, Note_on_c, 0, 79, 98
2, 255356, Note_off_c, 0, 79, 64
2, 255360, Note_on_c, 0, 88, 104
2, 255452, Note_off_c, 0, 88, 64
2, 255456, Note_on_c, 0, 79, 98
2, 255548, Note_off_c, 0, 79, 64
2, 255552, Note_on_c, 0, 88, 104
2, 255644, Note_off_c, 0, 88, 64
2, 255648, Note_on_c, 0, 79, 98
2, 255740, Note_off_c, 0, 79, 64
2, 255744, Note_on_c, 0, 77, 97
2, 255836, Note_off_c, 0, 77, 64
2, 255840, Note_on_c, 0, 80, 98
2, 255932, Note_off_c, 0, 80, 64
2, 255936, Note_on_c, 0, 89, 105
2, 256028, Note_off_c, 0, 89, 64
2, 256032, Note_on_c, 0, 80, 98
2, 256124, Note_off_c, 0, 80, 64
2, 256128, Note_on_c, 0, 89, 105
2, 256220, Note_off_c, 0, 89, 64
2, 256224, Note_on_c, 0, 80, 98
2, 256316, Note_off_c, 0, 80, 64
2, 256320, Note_on_c, 0, 89, 105
2, 256412, Note_off_c, 0, 89, 64
2, 256416, Note_on_c, 0, 80, 98
2, 256508, Note_off_c, 0, 80, 64
2, 256512, Note_on_c, 0, 81, 99
2, 256604, Note_off_c, 0, 81, 64
2, 256608, Note_on_c, 0, 89, 105
2, 256700, Note_off_c, 0, 89, 64
2, 256704, Note_on_c, 0, 84, 102
2, 256796, Note_off_c, 0, 84, 64
2, 256800, Note_on_c, 0, 81, 99
2, 256892, Note_off_c, 0, 81, 64
2, 256896, Note_on_c, 0, 77, 97
2, 256988, Note_off_c, 0, 77, 64
2, 256992, Note_on_c, 0, 84, 102
2, 257084, Note_off_c, 0, 84, 64
2, 257088, Note_on_c, 0, 81, 99
2, 257180, Note_off_c, 0, 81, 64
2, 257184, Note_on_c, 0, 77, 97
2, 257276, Note_off_c, 0, 77, 64
2, 257280, Note_on_c, 0, 72, 94
2, 257372, Note_off_c, 0, 72, 64
2, 257376, Note_on_c, 0, 81, 99
2, 257468, Note_off_c, 0, 81, 64
2, 257472, Note_on_c, 0, 77, 97
2, 257564, Note_off_c, 0, 77, 64
2, 257568, Note_on_c, 0, 72, 94
2, 257660, Note_off_c, 0, 72, 64
2, 257664, Note_on_c, 0, 69, 99
2, 257756, Note_off_c, 0, 69, 64
2, 257760, Note_on_c, 0, 77, 99
2, 257852, Note_off_c, 0, 77, 64
2, 257856, Note_on_c, 0, 72, 99
2, 257948, Note_off_c, 0, 72, 64
2, 257952, Note_on_c, 0, 69, 99
2, 258044, Note_off_c, 0, 69, 64
2, 258048, Note_on_c, 0, 65, 99
2, 258140, Note_off_c, 0, 65, 64
2, 258144, Note_on_c, 0, 72, 99
2, 258236, Note_off_c, 0, 72, 64
2, 258240, Note_on_c, 0, 69, 99
2, 258332, Note_off_c, 0, 69, 64
2, 258336, Note_on_c, 0, 65, 99
2, 258428, Note_off_c, 0, 65, 64
2, 258432, Note_on_c, 0, 60, 99
2, 258524, Note_off_c, 0, 60, 64
2, 258528, Note_on_c, 0, 69, 99
2, 258620, Note_off_c, 0, 69, 64
2, 258624, Note_on_c, 0, 65, 99
2, 258716, Note_off_c, 0, 65, 64
2, 258720, Note_on_c, 0, 60, 99
2, 258812, Note_off_c, 0, 60, 64
2, 258816, Note_on_c, 0, 57, 99
2, 258908, Note_off_c, 0, 57, 64
2, 258912, Note_on_c, 0, 65, 99
2, 259004, Note_off_c, 0, 65, 64
2, 259008, Note_on_c, 0, 58, 99
2, 259100, Note_off_c, 0, 58, 64
2, 259104, Note_on_c, 0, 57, 99
2, 259196, Note_off_c, 0, 57, 64
2, 261120, Note_on_c, 0, 65, 99
2, 261212, Note_off_c, 0, 65, 64
2, 261216, Note_on_c, 0, 60, 99
2, 261308, Note_off_c, 0, 60, 64
2, 261312, Note_on_c, 0, 62, 99
2, 261404, Note_off_c, 0, 62, 64
2, 261408, Note_on_c, 0, 64, 99
2, 261500, Note_off_c, 0, 64, 64
2, 261504, Note_on_c, 0, 65, 99
2, 261596, Note_off_c, 0, 65, 64
2, 261600, Note_on_c, 0, 67, 99
2, 261692, Note_off_c, 0, 67, 64
2, 261696, Note_on_c, 0, 69, 99
2, 261788, Note_off_c, 0, 69, 64
2, 261792, Note_on_c, 0, 70, 99
2, 261884, Note_off_c, 0, 70, 64
2, 261888, Note_on_c, 0, 72, 99
2, 261980, Note_off_c, 0, 72, 64
2, 261984, Note_on_c, 0, 65, 99
2, 262076, Note_off_c, 0, 65, 64
2, 262080, Note_on_c, 0, 67, 99
2, 262172, Note_off_c, 0, 67, 64
2, 262176, Note_on_c, 0, 69, 99
2, 262268, Note_off_c, 0, 69, 64
2, 262272, Note_on_c, 0, 70, 99
2, 262364, Note_off_c, 0, 70, 64
2, 262368, Note_on_c, 0, 72, 99
2, 262460, Note_off_c, 0, 72, 64
2, 262464, Note_on_c, 0, 74, 99
2, 262556, Note_off_c, 0, 74, 64
2, 262560, Note_on_c, 0, 76, 99
2, 262652, Note_off_c, 0, 76, 64
2, 262656, Note_on_c, 0, 77, 99
2, 262656, Note_on_c, 0, 65, 99
2, 262748, Note_off_c, 0, 77, 64
2, 262748, Note_off_c, 0, 65, 64
2, 262752, Note_on_c, 0, 72, 99
2, 262752, Note_on_c, 0, 60, 99
2, 262844, Note_off_c, 0, 72, 64
2, 262844, Note_off_c, 0, 60, 64
2, 262848, Note_on_c, 0, 74, 99
2, 262848, Note_on_c, 0, 62, 99
2, 262940, Note_off_c, 0, 74, 64
2, 262940, Note_off_c, 0, 62, 64
2, 262944, Note_on_c, 0, 76, 99
2, 262944, Note_on_c, 0, 64, 99
2, 263036, Note_off_c, 0, 76, 64
2, 263036, Note_off_c, 0, 64, 64
2, 263040, Note_on_c, 0, 77, 99
2, 263040, Note_on_c, 0, 65, 99
2, 263132, Note_off_c, 0, 77, 64
2, 263132, Note_off_c, 0, 65, 64
2, 263136, Note_on_c, 0, 79, 99
2, 263136, Note_on_c, 0, 67, 99
2, 263228, Note_off_c, 0, 79, 64
2, 263228, Note_off_c, 0, 67, 64
2, 263232, Note_on_c, 0, 81, 99
2, 263232, Note_on_c, 0, 69, 99
2, 263324, Note_off_c, 0, 81, 64
2, 263324, Note_off_c, 0, 69, 64
2, 263328, Note_on_c, 0, 82, 100
2, 263328, Note_on_c, 0, 70, 99
2, 263420, Note_off_c, 0, 82, 64
2, 263420, Note_off_c, 0, 70, 64
2, 263424, Note_on_c, 0, 84, 102
2, 263424, Note_on_c, 0, 72, 97
2, 263516, Note_off_c, 0, 84, 64
2, 263516, Note_off_c, 0, 72, 64
2, 263520, Note_on_c, 0, 81, 99
2, 263520, Note_on_c, 0, 69, 99
2, 263612, Note_off_c, 0, 81, 64
2, 263612, Note_off_c, 0, 69, 64
2, 263616, Note_on_c, 0, 77, 102
2, 263616, Note_on_c, 0, 65, 99
2, 263708, Note_off_c, 0, 77, 64
2, 263708, Note_off_c, 0, 65, 64
2, 263712, Note_on_c, 0, 81, 99
2, 263712, Note_on_c, 0, 69, 99
2, 263792, Note_on_c, 0, 72, 99
2, 263792, Note_on_c, 0, 84, 99
2, 263804, Note_off_c, 0, 81, 64
2, 263804, Note_off_c, 0, 69, 64
2, 263884, Note_off_c, 0, 72, 64
2, 263884, Note_off_c, 0, 84, 64
2, 263888, Note_on_c, 0, 69, 99
2, 263904, Note_on_c, 0, 81, 99
2, 263980, Note_off_c, 0, 69, 64
2, 263996, Note_off_c, 0, 81, 64
2, 264000, Note_on_c, 0, 77, 99
2, 264000, Note_on_c, 0, 65, 99
2, 264080, Note_on_c, 0, 69, 99
2, 264092, Note_off_c, 0, 77, 64
2, 264092, Note_off_c, 0, 65, 64
2, 264096, Note_on_c, 0, 81, 99
2, 264172, Note_off_c, 0, 69, 64
2, 264188, Note_off_c, 0, 81, 64
2, 264192, Note_on_c, 0, 84, 102
2, 264284, Note_off_c, 0, 84, 64
2, 264288, Note_on_c, 0, 77, 97
2, 264380, Note_off_c, 0, 77, 64
2, 264384, Note_on_c, 0, 83, 100
2, 264476, Note_off_c, 0, 83, 64
2, 264480, Note_on_c, 0, 77, 97
2, 264572, Note_off_c, 0, 77, 64
2, 264576, Note_on_c, 0, 84, 102
2, 264668, Note_off_c, 0, 84, 64
2, 264672, Note_on_c, 0, 77, 97
2, 264764, Note_off_c, 0, 77, 64
2, 264768, Note_on_c, 0, 85, 102
2, 264860, Note_off_c, 0, 85, 64
2, 264864, Note_on_c, 0, 77, 97
2, 264956, Note_off_c, 0, 77, 64
2, 264960, Note_on_c, 0, 86, 103
2, 265052, Note_off_c, 0, 86, 64
2, 265056, Note_on_c, 0, 77, 97
2, 265148, Note_off_c, 0, 77, 64
2, 265152, Note_on_c, 0, 87, 103
2, 265244, Note_off_c, 0, 87, 64
2, 265248, Note_on_c, 0, 77, 97
2, 265340, Note_off_c, 0, 77, 64
2, 265344, Note_on_c, 0, 88, 104
2, 265436, Note_off_c, 0, 88, 64
2, 265440, Note_on_c, 0, 77, 97
2, 265532, Note_off_c, 0, 77, 64
2, 265536, Note_on_c, 0, 89, 104
2, 265628, Note_off_c, 0, 89, 64
2, 265632, Note_on_c, 0, 77, 97
2, 265724, Note_off_c, 0, 77, 64
2, 265728, Note_on_c, 0, 79, 99
2, 265728, Note_on_c, 0, 60, 99
2, 265768, Note_off_c, 0, 79, 64
2, 265776, Note_on_c, 0, 81, 99
2, 265816, Note_off_c, 0, 81, 64
2, 265820, Note_off_c, 0, 60, 64
2, 265824, Note_on_c, 0, 79, 99
2, 265824, Note_on_c, 0, 70, 99
2, 265864, Note_off_c, 0, 79, 64
2, 265872, Note_on_c, 0, 81, 99
2, 265912, Note_off_c, 0, 81, 64
2, 265916, Note_off_c, 0, 70, 64
2, 265920, Note_on_c, 0, 79, 99
2, 265920, Note_on_c, 0, 64, 99
2, 265960, Note_off_c, 0, 79, 64
2, 265968, Note_on_c, 0, 81, 99
2, 266008, Note_off_c, 0, 81, 64
2, 266012, Note_off_c, 0, 64, 64
2, 266016, Note_on_c, 0, 79, 99
2, 266016, Note_on_c, 0, 70, 99
2, 266056, Note_off_c, 0, 79, 64
2, 266064, Note_on_c, 0, 81, 99
2, 266104, Note_off_c, 0, 81, 64
2, 266108, Note_off_c, 0, 70, 64
2, 266112, Note_on_c, 0, 79, 99
2, 266112, Note_on_c, 0, 60, 99
2, 266152, Note_off_c, 0, 79, 64
2, 266160, Note_on_c, 0, 81, 99
2, 266200, Note_off_c, 0, 81, 64
2, 266204, Note_off_c, 0, 60, 64
2, 266208, Note_on_c, 0, 79, 99
2, 266208, Note_on_c, 0, 70, 99
2, 266248, Note_off_c, 0, 79, 64
2, 266256, Note_on_c, 0, 81, 99
2, 266296, Note_off_c, 0, 81, 64
2, 266300, Note_off_c, 0, 70, 64
2, 266304, Note_on_c, 0, 79, 99
2, 266304, Note_on_c, 0, 64, 99
2, 266344, Note_off_c, 0, 79, 64
2, 266352, Note_on_c, 0, 81, 99
2, 266392, Note_off_c, 0, 81, 64
2, 266396, Note_off_c, 0, 64, 64
2, 266400, Note_on_c, 0, 79, 99
2, 266400, Note_on_c, 0, 70, 99
2, 266440, Note_off_c, 0, 79, 64
2, 266448, Note_on_c, 0, 81, 99
2, 266488, Note_off_c, 0, 81, 64
2, 266492, Note_off_c, 0, 70, 64
2, 266496, Note_on_c, 0, 79, 99
2, 266496, Note_on_c, 0, 60, 99
2, 266536, Note_off_c, 0, 79, 64
2, 266544, Note_on_c, 0, 81, 99
2, 266584, Note_off_c, 0, 81, 64
2, 266588, Note_off_c, 0, 60, 64
2, 266592, Note_on_c, 0, 79, 99
2, 266592, Note_on_c, 0, 70, 99
2, 266632, Note_off_c, 0, 79, 64
2, 266640, Note_on_c, 0, 81, 99
2, 266680, Note_off_c, 0, 81, 64
2, 266684, Note_off_c, 0, 70, 64
2, 266688, Note_on_c, 0, 79, 99
2, 266688, Note_on_c, 0, 64, 99
2, 266728, Note_off_c, 0, 79, 64
2, 266736, Note_on_c, 0, 81, 99
2, 266776, Note_off_c, 0, 81, 64
2, 266780, Note_off_c, 0, 64, 64
2, 266784, Note_on_c, 0, 79, 99
2, 266784, Note_on_c, 0, 70, 99
2, 266824, Note_off_c, 0, 79, 64
2, 266832, Note_on_c, 0, 81, 99
2, 266872, Note_off_c, 0, 81, 64
2, 266876, Note_off_c, 0, 70, 64
2, 266880, Note_on_c, 0, 79, 99
2, 266880, Note_on_c, 0, 60, 99
2, 266920, Note_off_c, 0, 79, 64
2, 266928, Note_on_c, 0, 81, 99
2, 266968, Note_off_c, 0, 81, 64
2, 266972, Note_off_c, 0, 60, 64
2, 266976, Note_on_c, 0, 79, 99
2, 266976, Note_on_c, 0, 70, 99
2, 267016, Note_off_c, 0, 79, 64
2, 267024, Note_on_c, 0, 81, 99
2, 267064, Note_off_c, 0, 81, 64
2, 267068, Note_off_c, 0, 70, 64
2, 267072, Note_on_c, 0, 79, 99
2, 267072, Note_on_c, 0, 64, 99
2, 267112, Note_off_c, 0, 79, 64
2, 267120, Note_on_c, 0, 81, 99
2, 267160, Note_off_c, 0, 81, 64
2, 267164, Note_off_c, 0, 64, 64
2, 267168, Note_on_c, 0, 70, 99
2, 267168, Note_on_c, 0, 77, 99
2, 267208, Note_off_c, 0, 77, 64
2, 267216, Note_on_c, 0, 79, 99
2, 267256, Note_off_c, 0, 79, 64
2, 267260, Note_off_c, 0, 70, 64
2, 267264, Note_on_c, 0, 77, 99
2, 267264, Note_on_c, 0, 69, 99
2, 267264, Note_on_c, 0, 65, 99
2, 267452, Note_off_c, 0, 69, 64
2, 267452, Note_off_c, 0, 65, 64
2, 267644, Note_off_c, 0, 77, 64
2, 267840, Note_on_c, 0, 60, 94
2, 267900, Note_off_c, 0, 60, 64
2, 267904, Note_on_c, 0, 62, 94
2, 267964, Note_off_c, 0, 62, 64
2, 267968, Note_on_c, 0, 64, 94
2, 268028, Note_off_c, 0, 64, 64
2, 268032, Note_on_c, 0, 65, 94
2, 268412, Note_off_c, 0, 65, 64
2, 269376, Note_on_c, 0, 72, 94
2, 269436, Note_off_c, 0, 72, 64
2, 269440, Note_on_c, 0, 74, 94
2, 269500, Note_off_c, 0, 74, 64
2, 269504, Note_on_c, 0, 76, 94
2, 269564, Note_off_c, 0, 76, 64
2, 269568, Note_on_c, 0, 77, 97
2, 269948, Note_off_c, 0, 77, 64
2, 270144, Note_on_c, 0, 84, 102
2, 270204, Note_off_c, 0, 84, 64
2, 270208, Note_on_c, 0, 86, 103
2, 270268, Note_off_c, 0, 86, 64
2, 270272, Note_on_c, 0, 88, 104
2, 270332, Note_off_c, 0, 88, 64
2, 270336, Note_on_c, 0, 89, 105
2, 270716, Note_off_c, 0, 89, 64
2, 270720, Note_on_c, 0, 84, 102
2, 270720, Note_on_c, 0, 72, 94
2, 270908, Note_off_c, 0, 84, 64
2, 270908, Note_off_c, 0, 72, 64
2, 271104, Note_on_c, 0, 81, 99
2, 271104, Note_on_c, 0, 69, 94
2, 271292, Note_off_c, 0, 81, 64
2, 271292, Note_off_c, 0, 69, 64
2, 271488, Note_on_c, 0, 77, 97
2, 271488, Note_on_c, 0, 65, 94
2, 271676, Note_off_c, 0, 77, 64
2, 271676, Note_off_c, 0, 65, 64
2, 271872, Note_on_c, 0, 76, 96
2, 271872, Note_on_c, 0, 70, 94
2, 271872, Note_on_c, 0, 67, 94
2, 271872, Note_on_c, 0, 64, 94
2, 272252, Note_off_c, 0, 76, 64
2, 272252, Note_off_c, 0, 70, 64
2, 272252, Note_off_c, 0, 67, 64
2, 272252, Note_off_c, 0, 64, 64
2, 272256, Note_on_c, 0, 55, 94
2, 272348, Note_off_c, 0, 55, 64
2, 272352, Note_on_c, 0, 58, 94
2, 272444, Note_off_c, 0, 58, 64
2, 272448, Note_on_c, 0, 55, 94
2, 272540, Note_off_c, 0, 55, 64
2, 272544, Note_on_c, 0, 58, 94
2, 272636, Note_off_c, 0, 58, 64
2, 272640, Note_on_c, 0, 55, 94
2, 272732, Note_off_c, 0, 55, 64
2, 272736, Note_on_c, 0, 58, 94
2, 272828, Note_off_c, 0, 58, 64
2, 272832, Note_on_c, 0, 55, 94
2, 272924, Note_off_c, 0, 55, 64
2, 272928, Note_on_c, 0, 58, 94
2, 273020, Note_off_c, 0, 58, 64
2, 273216, Note_on_c, 0, 79, 98
2, 273256, Note_off_c, 0, 79, 64
2, 273264, Note_on_c, 0, 81, 99
2, 273304, Note_off_c, 0, 81, 64
2, 273312, Note_on_c, 0, 82, 100
2, 273352, Note_off_c, 0, 82, 64
2, 273360, Note_on_c, 0, 84, 102
2, 273400, Note_off_c, 0, 84, 64
2, 273408, Note_on_c, 0, 86, 103
2, 273788, Note_off_c, 0, 86, 64
2, 273792, Note_on_c, 0, 81, 99
2, 273792, Note_on_c, 0, 69, 94
2, 273980, Note_off_c, 0, 81, 64
2, 273980, Note_off_c, 0, 69, 64
2, 274176, Note_on_c, 0, 77, 97
2, 274176, Note_on_c, 0, 65, 94
2, 274364, Note_off_c, 0, 77, 64
2, 274364, Note_off_c, 0, 65, 64
2, 274560, Note_on_c, 0, 74, 94
2, 274560, Note_on_c, 0, 62, 94
2, 274748, Note_off_c, 0, 74, 64
2, 274748, Note_off_c, 0, 62, 64
2, 274944, Note_on_c, 0, 72, 94
2, 274944, Note_on_c, 0, 60, 94
2, 275516, Note_off_c, 0, 72, 64
2, 275516, Note_off_c, 0, 60, 64
2, 275520, Note_on_c, 0, 73, 94
2, 275520, Note_on_c, 0, 61, 94
2, 275708, Note_off_c, 0, 73, 64
2, 275708, Note_off_c, 0, 61, 64
2, 275712, Note_on_c, 0, 72, 94
2, 275712, Note_on_c, 0, 60, 94
2, 275900, Note_off_c, 0, 72, 64
2, 275900, Note_off_c, 0, 60, 64
2, 275904, Note_on_c, 0, 71, 94
2, 275904, Note_on_c, 0, 59, 94
2, 276092, Note_off_c, 0, 71, 64
2, 276092, Note_off_c, 0, 59, 64
2, 276096, Note_on_c, 0, 60, 94
2, 276096, Note_on_c, 0, 72, 94
2, 276284, Note_off_c, 0, 60, 64
2, 276284, Note_off_c, 0, 72, 64
2, 276288, Note_on_c, 0, 71, 94
2, 276288, Note_on_c, 0, 59, 94
2, 276476, Note_off_c, 0, 71, 64
2, 276476, Note_off_c, 0, 59, 64
2, 276480, Note_on_c, 0, 72, 94
2, 276480, Note_on_c, 0, 60, 94
2, 277052, Note_off_c, 0, 72, 64
2, 277052, Note_off_c, 0, 60, 64
2, 277056, Note_on_c, 0, 73, 94
2, 277056, Note_on_c, 0, 61, 94
2, 277244, Note_off_c, 0, 73, 64
2, 277244, Note_off_c, 0, 61, 64
2, 277248, Note_on_c, 0, 72, 94
2, 277248, Note_on_c, 0, 60, 94
2, 277436, Note_off_c, 0, 72, 64
2, 277436, Note_off_c, 0, 60, 64
2, 277440, Note_on_c, 0, 71, 94
2, 277440, Note_on_c, 0, 59, 94
2, 277628, Note_off_c, 0, 71, 64
2, 277628, Note_off_c, 0, 59, 64
2, 277632, Note_on_c, 0, 72, 94
2, 277632, Note_on_c, 0, 60, 94
2, 277820, Note_off_c, 0, 72, 64
2, 277820, Note_off_c, 0, 60, 64
2, 277824, Note_on_c, 0, 71, 94
2, 277824, Note_on_c, 0, 59, 94
2, 278012, Note_off_c, 0, 71, 64
2, 278012, Note_off_c, 0, 59, 64
2, 278016, Note_on_c, 0, 72, 94
2, 278016, Note_on_c, 0, 60, 94
2, 278204, Note_off_c, 0, 72, 64
2, 278204, Note_off_c, 0, 60, 64
2, 278208, Note_on_c, 0, 67, 71
2, 278588, Note_off_c, 0, 67, 64
2, 278592, Note_on_c, 0, 65, 71
2, 278780, Note_off_c, 0, 65, 64
2, 278784, Note_on_c, 0, 64, 71
2, 278972, Note_off_c, 0, 64, 64
2, 278976, Note_on_c, 0, 70, 71
2, 279356, Note_off_c, 0, 70, 64
2, 279360, Note_on_c, 0, 69, 71
2, 279548, Note_off_c, 0, 69, 64
2, 279552, Note_on_c, 0, 67, 71
2, 279740, Note_off_c, 0, 67, 64
2, 279744, Note_on_c, 0, 79, 76
2, 279744, Note_on_c, 0, 70, 71
2, 279760, Note_on_c, 0, 74, 71
2, 280112, Note_on_c, 0, 69, 75
2, 280112, Note_on_c, 0, 81, 78
2, 280124, Note_off_c, 0, 79, 64
2, 280124, Note_off_c, 0, 70, 64
2, 280128, Note_on_c, 0, 78, 76
2, 280128, Note_on_c, 0, 72, 79
2, 280140, Note_off_c, 0, 74, 64
2, 280300, Note_off_c, 0, 69, 64
2, 280300, Note_off_c, 0, 81, 64
2, 280316, Note_off_c, 0, 78, 64
2, 280316, Note_off_c, 0, 72, 64
2, 280320, Note_on_c, 0, 82, 79
2, 280320, Note_on_c, 0, 79, 76
2, 280320, Note_on_c, 0, 70, 71
2, 280320, Note_on_c, 0, 67, 71
2, 280508, Note_off_c, 0, 82, 64
2, 280508, Note_off_c, 0, 79, 64
2, 280508, Note_off_c, 0, 70, 64
2, 280508, Note_off_c, 0, 67, 64
2, 280512, Note_on_c, 0, 82, 79
2, 280512, Note_on_c, 0, 79, 76
2, 280892, Note_off_c, 0, 82, 64
2, 280892, Note_off_c, 0, 79, 64
2, 280896, Note_on_c, 0, 84, 80
2, 280896, Note_on_c, 0, 81, 78
2, 281084, Note_off_c, 0, 84, 64
2, 281084, Note_off_c, 0, 81, 64
2, 281088, Note_on_c, 0, 86, 81
2, 281088, Note_on_c, 0, 82, 79
2, 281468, Note_off_c, 0, 86, 64
2, 281468, Note_off_c, 0, 82, 64
2, 281472, Note_on_c, 0, 82, 79
2, 281472, Note_on_c, 0, 79, 76
2, 281660, Note_off_c, 0, 82, 64
2, 281660, Note_off_c, 0, 79, 64
2, 281856, Note_on_c, 0, 86, 81
2, 281856, Note_on_c, 0, 82, 79
2, 282236, Note_off_c, 0, 86, 64
2, 282236, Note_off_c, 0, 82, 64
2, 282240, Note_on_c, 0, 82, 79
2, 282240, Note_on_c, 0, 79, 76
2, 282428, Note_off_c, 0, 82, 64
2, 282428, Note_off_c, 0, 79, 64
2, 282624, Note_on_c, 0, 84, 80
2, 282624, Note_on_c, 0, 81, 78
2, 283004, Note_off_c, 0, 84, 64
2, 283004, Note_off_c, 0, 81, 64
2, 283008, Note_on_c, 0, 81, 78
2, 283008, Note_on_c, 0, 77, 75
2, 283196, Note_off_c, 0, 81, 64
2, 283196, Note_off_c, 0, 77, 64
2, 283392, Note_on_c, 0, 84, 80
2, 283392, Note_on_c, 0, 81, 78
2, 283772, Note_off_c, 0, 84, 64
2, 283772, Note_off_c, 0, 81, 64
2, 283776, Note_on_c, 0, 81, 78
2, 283776, Note_on_c, 0, 77, 75
2, 283964, Note_off_c, 0, 81, 64
2, 283964, Note_off_c, 0, 77, 64
2, 284160, Note_on_c, 0, 79, 76
2, 284732, Note_off_c, 0, 79, 64
2, 284736, Note_on_c, 0, 81, 78
2, 284828, Note_off_c, 0, 81, 64
2, 284832, Note_on_c, 0, 84, 80
2, 284924, Note_off_c, 0, 84, 64
2, 284928, Note_on_c, 0, 77, 75
2, 284928, Note_on_c, 0, 69, 71
2, 284928, Note_on_c, 0, 72, 71
2, 285308, Note_off_c, 0, 77, 64
2, 285308, Note_off_c, 0, 69, 64
2, 285308, Note_off_c, 0, 72, 64
2, 285312, Note_on_c, 0, 76, 74
2, 285312, Note_on_c, 0, 70, 71
2, 285312, Note_on_c, 0, 67, 71
2, 285692, Note_off_c, 0, 76, 64
2, 285692, Note_off_c, 0, 70, 64
2, 285692, Note_off_c, 0, 67, 64
2, 285696, Note_on_c, 0, 77, 71
2, 285696, Note_on_c, 0, 69, 71
2, 285884, Note_off_c, 0, 77, 64
2, 285884, Note_off_c, 0, 69, 64
2, 285888, Note_on_c, 0, 65, 71
2, 286076, Note_off_c, 0, 65, 64
2, 286080, Note_on_c, 0, 72, 71
2, 286268, Note_off_c, 0, 72, 64
2, 286272, Note_on_c, 0, 69, 71
2, 286460, Note_off_c, 0, 69, 64
2, 286848, Note_on_c, 0, 72, 71
2, 286848, Note_on_c, 0, 81, 78
2, 287036, Note_off_c, 0, 72, 64
2, 287040, Note_on_c, 0, 69, 71
2, 287228, Note_off_c, 0, 69, 64
2, 287232, Note_on_c, 0, 74, 71
2, 287420, Note_off_c, 0, 81, 64
2, 287420, Note_off_c, 0, 74, 64
2, 287424, Note_on_c, 0, 79, 76
2, 287424, Note_on_c, 0, 70, 71
2, 287612, Note_off_c, 0, 79, 64
2, 287612, Note_off_c, 0, 70, 64
2, 287616, Note_on_c, 0, 82, 79
2, 287616, Note_on_c, 0, 74, 71
2, 288380, Note_off_c, 0, 82, 64
2, 288380, Note_off_c, 0, 74, 64
2, 288384, Note_on_c, 0, 71, 71
2, 288384, Note_on_c, 0, 81, 78
2, 288572, Note_off_c, 0, 71, 64
2, 288576, Note_on_c, 0, 72, 71
2, 288764, Note_off_c, 0, 81, 64
2, 288764, Note_off_c, 0, 72, 64
2, 288768, Note_on_c, 0, 79, 76
2, 288768, Note_on_c, 0, 70, 71
2, 288956, Note_off_c, 0, 70, 64
2, 288960, Note_on_c, 0, 67, 71
2, 289148, Note_off_c, 0, 79, 64
2, 289148, Note_off_c, 0, 67, 64
2, 289152, Note_on_c, 0, 77, 71
2, 289152, Note_on_c, 0, 70, 71
2, 289340, Note_off_c, 0, 70, 64
2, 289344, Note_on_c, 0, 67, 71
2, 289532, Note_off_c, 0, 77, 64
2, 289532, Note_off_c, 0, 67, 64
2, 289536, Note_on_c, 0, 71, 71
2, 289724, Note_off_c, 0, 71, 64
2, 289728, Note_on_c, 0, 72, 71
2, 289916, Note_off_c, 0, 72, 64
2, 289920, Note_on_c, 0, 81, 71
2, 290304, Note_on_c, 0, 74, 71
2, 290492, Note_off_c, 0, 81, 64
2, 290492, Note_off_c, 0, 74, 64
2, 290496, Note_on_c, 0, 79, 71
2, 290496, Note_on_c, 0, 70, 71
2, 290684, Note_off_c, 0, 79, 64
2, 290684, Note_off_c, 0, 70, 64
2, 290688, Note_on_c, 0, 86, 71
2, 291452, Note_off_c, 0, 86, 64
2, 291456, Note_on_c, 0, 70, 71
2, 291468, Note_on_c, 0, 84, 80
2, 291644, Note_off_c, 0, 70, 64
2, 291648, Note_on_c, 0, 76, 71
2, 291836, Note_off_c, 0, 76, 64
2, 291840, Note_on_c, 0, 82, 79
2, 291840, Note_on_c, 0, 79, 76
2, 291848, Note_off_c, 0, 84, 64
2, 292028, Note_off_c, 0, 79, 64
2, 292032, Note_on_c, 0, 76, 69
2, 292220, Note_off_c, 0, 82, 64
2, 292220, Note_off_c, 0, 76, 64
2, 292224, Note_on_c, 0, 81, 78
2, 292224, Note_on_c, 0, 79, 76
2, 292412, Note_off_c, 0, 79, 64
2, 292416, Note_on_c, 0, 77, 71
2, 292604, Note_off_c, 0, 81, 64
2, 292604, Note_off_c, 0, 77, 64
2, 292608, Note_on_c, 0, 71, 71
2, 292796, Note_off_c, 0, 71, 64
2, 292800, Note_on_c, 0, 72, 71
2, 292988, Note_off_c, 0, 72, 64
2, 292992, Note_on_c, 0, 77, 71
2, 292992, Note_on_c, 0, 74, 71
2, 293180, Note_off_c, 0, 74, 64
2, 293184, Note_on_c, 0, 72, 71
2, 293372, Note_off_c, 0, 77, 64
2, 293372, Note_off_c, 0, 72, 64
2, 293376, Note_on_c, 0, 73, 71
2, 293564, Note_off_c, 0, 73, 64
2, 293568, Note_on_c, 0, 74, 71
2, 293756, Note_off_c, 0, 74, 64
2, 293760, Note_on_c, 0, 70, 71
2, 293948, Note_off_c, 0, 70, 64
2, 293952, Note_on_c, 0, 67, 71
2, 294140, Note_off_c, 0, 67, 64
2, 294144, Note_on_c, 0, 65, 71
2, 294332, Note_off_c, 0, 65, 64
2, 294336, Note_on_c, 0, 64, 71
2, 294524, Note_off_c, 0, 64, 64
2, 294528, Note_on_c, 0, 67, 71
2, 294716, Note_off_c, 0, 67, 64
2, 294720, Note_on_c, 0, 64, 71
2, 294908, Note_off_c, 0, 64, 64
2, 294912, Note_on_c, 0, 65, 71
2, 294912, Note_on_c, 0, 57, 71
2, 295292, Note_off_c, 0, 65, 64
2, 295292, Note_off_c, 0, 57, 64
2, 295296, Note_on_c, 0, 72, 75
2, 295676, Note_off_c, 0, 72, 64
2, 295680, Note_on_c, 0, 84, 80
2, 296060, Note_off_c, 0, 84, 64
2, 296064, Note_on_c, 0, 76, 75
2, 296444, Note_off_c, 0, 76, 64
2, 296448, Note_on_c, 0, 79, 76
2, 296832, Note_on_c, 0, 65, 75
2, 296832, Note_on_c, 0, 69, 75
2, 297020, Note_off_c, 0, 79, 64
2, 297024, Note_on_c, 0, 77, 75
2, 297200, Note_on_c, 0, 72, 75
2, 297212, Note_off_c, 0, 65, 64
2, 297212, Note_off_c, 0, 69, 64
2, 297212, Note_off_c, 0, 77, 64
2, 297216, Note_on_c, 0, 77, 75
2, 297216, Note_on_c, 0, 69, 75
2, 297580, Note_off_c, 0, 72, 64
2, 297596, Note_off_c, 0, 69, 64
2, 297600, Note_on_c, 0, 70, 75
2, 297600, Note_on_c, 0, 67, 75
2, 297980, Note_off_c, 0, 77, 64
2, 297980, Note_off_c, 0, 70, 64
2, 297980, Note_off_c, 0, 67, 64
2, 297984, Note_on_c, 0, 69, 75
2, 297984, Note_on_c, 0, 65, 75
2, 298368, Note_on_c, 0, 77, 75
2, 298556, Note_off_c, 0, 77, 64
2, 298560, Note_on_c, 0, 79, 76
2, 298600, Note_off_c, 0, 79, 64
2, 298608, Note_on_c, 0, 77, 75
2, 298648, Note_off_c, 0, 77, 64
2, 298656, Note_on_c, 0, 76, 74
2, 298696, Note_off_c, 0, 76, 64
2, 298704, Note_on_c, 0, 77, 75
2, 298744, Note_off_c, 0, 77, 64
2, 298748, Note_off_c, 0, 69, 64
2, 298748, Note_off_c, 0, 65, 64
2, 298752, Note_on_c, 0, 79, 76
2, 299132, Note_off_c, 0, 79, 64
2, 299136, Note_on_c, 0, 81, 78
2, 299516, Note_off_c, 0, 81, 64
2, 299520, Note_on_c, 0, 81, 78
2, 299708, Note_off_c, 0, 81, 64
2, 299712, Note_on_c, 0, 82, 79
2, 299900, Note_off_c, 0, 82, 64
2, 299904, Note_on_c, 0, 78, 75
2, 299904, Note_on_c, 0, 62, 75
2, 299904, Note_on_c, 0, 58, 75
2, 300092, Note_off_c, 0, 78, 64
2, 300096, Note_on_c, 0, 79, 76
2, 300284, Note_off_c, 0, 62, 64
2, 300284, Note_off_c, 0, 58, 64
2, 300284, Note_off_c, 0, 79, 64
2, 300288, Note_on_c, 0, 79, 76
2, 300288, Note_on_c, 0, 70, 75
2, 300288, Note_on_c, 0, 62, 75
2, 300668, Note_off_c, 0, 70, 64
2, 300668, Note_off_c, 0, 62, 64
2, 300672, Note_on_c, 0, 69, 75
2, 300672, Note_on_c, 0, 60, 75
2, 301052, Note_off_c, 0, 79, 64
2, 301052, Note_off_c, 0, 69, 64
2, 301052, Note_off_c, 0, 60, 64
2, 301056, Note_on_c, 0, 67, 75
2, 301056, Note_on_c, 0, 58, 75
2, 301440, Note_on_c, 0, 79, 75
2, 301628, Note_off_c, 0, 79, 64
2, 301632, Note_on_c, 0, 80, 78
2, 301672, Note_off_c, 0, 80, 64
2, 301680, Note_on_c, 0, 79, 76
2, 301720, Note_off_c, 0, 79, 64
2, 301728, Note_on_c, 0, 77, 75
2, 301768, Note_off_c, 0, 77, 64
2, 301776, Note_on_c, 0, 79, 76
2, 301816, Note_off_c, 0, 79, 64
2, 301820, Note_off_c, 0, 67, 64
2, 301820, Note_off_c, 0, 58, 64
2, 301824, Note_on_c, 0, 82, 79
2, 302204, Note_off_c, 0, 82, 64
2, 302208, Note_on_c, 0, 86, 81
2, 302588, Note_off_c, 0, 86, 64
2, 302592, Note_on_c, 0, 86, 81
2, 302976, Note_on_c, 0, 64, 75
2, 302976, Note_on_c, 0, 60, 75
2, 303164, Note_off_c, 0, 86, 64
2, 303168, Note_on_c, 0, 84, 80
2, 303356, Note_off_c, 0, 64, 64
2, 303356, Note_off_c, 0, 60, 64
2, 303356, Note_off_c, 0, 84, 64
2, 303360, Note_on_c, 0, 84, 81
2, 303360, Note_on_c, 0, 67, 75
2, 303360, Note_on_c, 0, 64, 75
2, 303740, Note_off_c, 0, 67, 64
2, 303740, Note_off_c, 0, 64, 64
2, 303744, Note_on_c, 0, 65, 75
2, 303744, Note_on_c, 0, 62, 75
2, 304124, Note_off_c, 0, 65, 64
2, 304124, Note_off_c, 0, 62, 64
2, 304128, Note_on_c, 0, 64, 75
2, 304128, Note_on_c, 0, 60, 75
2, 304316, Note_off_c, 0, 84, 64
2, 304320, Note_on_c, 0, 83, 79
2, 304508, Note_off_c, 0, 83, 64
2, 304512, Note_on_c, 0, 84, 80
2, 304700, Note_off_c, 0, 84, 64
2, 304704, Note_on_c, 0, 83, 79
2, 304892, Note_off_c, 0, 64, 64
2, 304892, Note_off_c, 0, 60, 64
2, 304892, Note_off_c, 0, 83, 64
2, 304896, Note_on_c, 0, 84, 80
2, 305084, Note_off_c, 0, 84, 64
2, 305088, Note_on_c, 0, 85, 80
2, 305276, Note_off_c, 0, 85, 64
2, 305280, Note_on_c, 0, 86, 81
2, 305468, Note_off_c, 0, 86, 64
2, 305472, Note_on_c, 0, 82, 79
2, 305660, Note_off_c, 0, 82, 64
2, 305664, Note_on_c, 0, 81, 78
2, 305756, Note_off_c, 0, 81, 64
2, 305760, Note_on_c, 0, 89, 83
2, 305852, Note_off_c, 0, 89, 64
2, 305856, Note_on_c, 0, 79, 76
2, 305948, Note_off_c, 0, 79, 64
2, 305952, Note_on_c, 0, 88, 82
2, 306044, Note_off_c, 0, 88, 64
2, 306048, Note_on_c, 0, 77, 75
2, 306140, Note_off_c, 0, 77, 64
2, 306144, Note_on_c, 0, 86, 81
2, 306236, Note_off_c, 0, 86, 64
2, 306240, Note_on_c, 0, 76, 74
2, 306332, Note_off_c, 0, 76, 64
2, 306336, Note_on_c, 0, 84, 80
2, 306428, Note_off_c, 0, 84, 64
2, 306432, Note_on_c, 0, 74, 73
2, 306524, Note_off_c, 0, 74, 64
2, 306528, Note_on_c, 0, 82, 79
2, 306620, Note_off_c, 0, 82, 64
2, 306624, Note_on_c, 0, 72, 72
2, 306716, Note_off_c, 0, 72, 64
2, 306720, Note_on_c, 0, 81, 78
2, 306812, Note_off_c, 0, 81, 64
2, 306816, Note_on_c, 0, 70, 71
2, 306908, Note_off_c, 0, 70, 64
2, 306912, Note_on_c, 0, 79, 76
2, 307004, Note_off_c, 0, 79, 64
2, 307008, Note_on_c, 0, 69, 70
2, 307100, Note_off_c, 0, 69, 64
2, 307104, Note_on_c, 0, 77, 75
2, 307196, Note_off_c, 0, 77, 64
2, 307200, Note_on_c, 0, 67, 75
2, 307292, Note_off_c, 0, 67, 64
2, 307296, Note_on_c, 0, 76, 75
2, 307388, Note_off_c, 0, 76, 64
2, 307392, Note_on_c, 0, 65, 75
2, 307484, Note_off_c, 0, 65, 64
2, 307488, Note_on_c, 0, 74, 75
2, 307580, Note_off_c, 0, 74, 64
2, 307584, Note_on_c, 0, 64, 75
2, 307676, Note_off_c, 0, 64, 64
2, 307680, Note_on_c, 0, 72, 75
2, 307772, Note_off_c, 0, 72, 64
2, 307776, Note_on_c, 0, 67, 75
2, 307868, Note_off_c, 0, 67, 64
2, 307872, Note_on_c, 0, 70, 75
2, 307964, Note_off_c, 0, 70, 64
2, 307968, Note_on_c, 0, 65, 75
2, 308060, Note_off_c, 0, 65, 64
2, 308064, Note_on_c, 0, 69, 75
2, 308156, Note_off_c, 0, 69, 64
2, 308160, Note_on_c, 0, 64, 75
2, 308252, Note_off_c, 0, 64, 64
2, 308256, Note_on_c, 0, 67, 75
2, 308348, Note_off_c, 0, 67, 64
2, 308352, Note_on_c, 0, 62, 75
2, 308444, Note_off_c, 0, 62, 64
2, 308448, Note_on_c, 0, 65, 75
2, 308540, Note_off_c, 0, 65, 64
2, 308544, Note_on_c, 0, 60, 75
2, 308636, Note_off_c, 0, 60, 64
2, 308640, Note_on_c, 0, 64, 75
2, 308732, Note_off_c, 0, 64, 64
2, 308736, Note_on_c, 0, 62, 75
2, 308828, Note_off_c, 0, 62, 64
2, 308832, Note_on_c, 0, 67, 75
2, 308924, Note_off_c, 0, 67, 64
2, 308928, Note_on_c, 0, 70, 75
2, 309020, Note_off_c, 0, 70, 64
2, 309024, Note_on_c, 0, 74, 75
2, 309116, Note_off_c, 0, 74, 64
2, 309120, Note_on_c, 0, 79, 76
2, 309212, Note_off_c, 0, 79, 64
2, 309216, Note_on_c, 0, 82, 79
2, 309308, Note_off_c, 0, 82, 64
2, 309312, Note_on_c, 0, 86, 81
2, 309404, Note_off_c, 0, 86, 64
2, 309408, Note_on_c, 0, 82, 79
2, 309500, Note_off_c, 0, 82, 64
2, 309504, Note_on_c, 0, 81, 78
2, 309596, Note_off_c, 0, 81, 64
2, 309600, Note_on_c, 0, 84, 80
2, 309692, Note_off_c, 0, 84, 64
2, 309696, Note_on_c, 0, 81, 78
2, 309788, Note_off_c, 0, 81, 64
2, 309792, Note_on_c, 0, 77, 75
2, 309884, Note_off_c, 0, 77, 64
2, 309888, Note_on_c, 0, 79, 76
2, 309980, Note_off_c, 0, 79, 64
2, 309984, Note_on_c, 0, 82, 79
2, 310076, Note_off_c, 0, 82, 64
2, 310080, Note_on_c, 0, 79, 76
2, 310172, Note_off_c, 0, 79, 64
2, 310176, Note_on_c, 0, 76, 74
2, 310268, Note_off_c, 0, 76, 64
2, 310272, Note_on_c, 0, 77, 75
2, 310464, Note_on_c, 0, 60, 71
2, 310464, Note_on_c, 0, 57, 71
2, 310464, Note_on_c, 0, 65, 71
2, 310652, Note_off_c, 0, 77, 64
2, 310844, Note_off_c, 0, 60, 64
2, 310844, Note_off_c, 0, 57, 64
2, 310844, Note_off_c, 0, 65, 64
2, 310848, Note_on_c, 0, 57, 71
2, 310848, Note_on_c, 0, 65, 71
2, 310848, Note_on_c, 0, 60, 71
2, 311228, Note_off_c, 0, 57, 64
2, 311228, Note_off_c, 0, 65, 64
2, 311228, Note_off_c, 0, 60, 64
2, 311232, Note_on_c, 0, 65, 71
2, 311232, Note_on_c, 0, 60, 71
2, 311232, Note_on_c, 0, 57, 71
2, 311612, Note_off_c, 0, 65, 64
2, 311612, Note_off_c, 0, 60, 64
2, 311612, Note_off_c, 0, 57, 64
2, 311616, Note_on_c, 0, 65, 71
2, 311616, Note_on_c, 0, 60, 71
2, 311616, Note_on_c, 0, 57, 71
2, 311996, Note_off_c, 0, 57, 64
2, 311996, Note_off_c, 0, 60, 64
2, 311996, Note_off_c, 0, 65, 64
2, 312000, Note_on_c, 0, 65, 71
2, 312000, Note_on_c, 0, 60, 71
2, 312000, Note_on_c, 0, 57, 71
2, 312380, Note_off_c, 0, 65, 64
2, 312380, Note_off_c, 0, 60, 64
2, 312380, Note_off_c, 0, 57, 64
2, 312384, Note_on_c, 0, 60, 71
2, 312384, Note_on_c, 0, 57, 71
2, 312384, Note_on_c, 0, 65, 71
2, 312764, Note_off_c, 0, 60, 64
2, 312764, Note_off_c, 0, 57, 64
2, 312764, Note_off_c, 0, 65, 64
2, 312768, Note_on_c, 0, 65, 71
2, 312768, Note_on_c, 0, 60, 71
2, 312768, Note_on_c, 0, 57, 71
2, 313148, Note_off_c, 0, 65, 64
2, 313148, Note_off_c, 0, 60, 64
2, 313148, Note_off_c, 0, 57, 64
2, 313152, Note_on_c, 0, 60, 71
2, 313152, Note_on_c, 0, 57, 71
2, 313152, Note_on_c, 0, 65, 71
2, 313340, Note_off_c, 0, 65, 64
2, 313344, Note_on_c, 0, 66, 94
2, 313532, Note_off_c, 0, 57, 64
2, 313532, Note_off_c, 0, 60, 64
2, 313532, Note_off_c, 0, 66, 64
2, 313536, Note_on_c, 0, 66, 94
2, 313536, Note_on_c, 0, 60, 94
2, 313536, Note_on_c, 0, 57, 94
2, 313916, Note_off_c, 0, 66, 64
2, 313916, Note_off_c, 0, 60, 64
2, 313916, Note_off_c, 0, 57, 64
2, 313920, Note_on_c, 0, 66, 94
2, 313920, Note_on_c, 0, 60, 94
2, 313920, Note_on_c, 0, 57, 94
2, 314300, Note_off_c, 0, 66, 64
2, 314300, Note_off_c, 0, 60, 64
2, 314300, Note_off_c, 0, 57, 64
2, 314304, Note_on_c, 0, 60, 94
2, 314304, Note_on_c, 0, 57, 94
2, 314304, Note_on_c, 0, 66, 94
2, 314684, Note_off_c, 0, 60, 64
2, 314684, Note_off_c, 0, 57, 64
2, 314684, Note_off_c, 0, 66, 64
2, 314688, Note_on_c, 0, 66, 94
2, 314688, Note_on_c, 0, 60, 94
2, 314688, Note_on_c, 0, 57, 94
2, 315068, Note_off_c, 0, 57, 64
2, 315068, Note_off_c, 0, 60, 64
2, 315068, Note_off_c, 0, 66, 64
2, 315072, Note_on_c, 0, 72, 71
2, 315072, Note_on_c, 0, 75, 71
2, 315264, Note_on_c, 0, 66, 71
2, 315264, Note_on_c, 0, 62, 71
2, 315452, Note_off_c, 0, 72, 64
2, 315452, Note_off_c, 0, 75, 64
2, 315456, Note_on_c, 0, 70, 71
2, 315456, Note_on_c, 0, 74, 71
2, 315644, Note_off_c, 0, 66, 64
2, 315644, Note_off_c, 0, 62, 64
2, 315648, Note_on_c, 0, 67, 71
2, 315648, Note_on_c, 0, 64, 71
2, 315836, Note_off_c, 0, 70, 64
2, 315836, Note_off_c, 0, 74, 64
2, 315840, Note_on_c, 0, 72, 71
2, 315840, Note_on_c, 0, 69, 71
2, 316028, Note_off_c, 0, 67, 64
2, 316028, Note_off_c, 0, 64, 64
2, 316032, Note_on_c, 0, 69, 71
2, 316032, Note_on_c, 0, 66, 71
2, 316220, Note_off_c, 0, 72, 64
2, 316220, Note_off_c, 0, 69, 64
2, 316224, Note_on_c, 0, 70, 71
2, 316224, Note_on_c, 0, 67, 71
2, 316412, Note_off_c, 0, 69, 64
2, 316412, Note_off_c, 0, 66, 64
2, 316412, Note_off_c, 0, 70, 64
2, 316412, Note_off_c, 0, 67, 64
2, 316416, Note_on_c, 0, 70, 71
2, 316416, Note_on_c, 0, 67, 71
2, 316796, Note_off_c, 0, 70, 64
2, 316796, Note_off_c, 0, 67, 64
2, 316800, Note_on_c, 0, 74, 75
2, 317180, Note_off_c, 0, 74, 64
2, 317184, Note_on_c, 0, 86, 81
2, 317564, Note_off_c, 0, 86, 64
2, 317568, Note_on_c, 0, 78, 75
2, 317948, Note_off_c, 0, 78, 64
2, 317952, Note_on_c, 0, 81, 78
2, 318336, Note_on_c, 0, 70, 75
2, 318336, Note_on_c, 0, 67, 75
2, 318524, Note_off_c, 0, 81, 64
2, 318528, Note_on_c, 0, 79, 76
2, 318716, Note_off_c, 0, 70, 64
2, 318716, Note_off_c, 0, 67, 64
2, 318716, Note_off_c, 0, 79, 64
2, 318720, Note_on_c, 0, 79, 76
2, 318720, Note_on_c, 0, 74, 75
2, 318720, Note_on_c, 0, 70, 75
2, 319100, Note_off_c, 0, 74, 64
2, 319100, Note_off_c, 0, 70, 64
2, 319104, Note_on_c, 0, 72, 75
2, 319104, Note_on_c, 0, 69, 75
2, 319484, Note_off_c, 0, 79, 64
2, 319484, Note_off_c, 0, 72, 64
2, 319484, Note_off_c, 0, 69, 64
2, 319488, Note_on_c, 0, 70, 75
2, 319488, Note_on_c, 0, 67, 75
2, 319872, Note_on_c, 0, 79, 75
2, 320056, Note_off_c, 0, 79, 64
2, 320064, Note_on_c, 0, 80, 75
2, 320104, Note_off_c, 0, 80, 64
2, 320112, Note_on_c, 0, 79, 75
2, 320152, Note_off_c, 0, 79, 64
2, 320160, Note_on_c, 0, 77, 75
2, 320200, Note_off_c, 0, 77, 64
2, 320208, Note_on_c, 0, 79, 75
2, 320248, Note_off_c, 0, 79, 64
2, 320252, Note_off_c, 0, 70, 64
2, 320252, Note_off_c, 0, 67, 64
2, 320256, Note_on_c, 0, 81, 76
2, 320636, Note_off_c, 0, 81, 64
2, 320640, Note_on_c, 0, 82, 78
2, 321020, Note_off_c, 0, 82, 64
2, 321024, Note_on_c, 0, 82, 79
2, 321212, Note_off_c, 0, 82, 64
2, 321216, Note_on_c, 0, 81, 78
2, 321404, Note_off_c, 0, 81, 64
2, 321408, Note_on_c, 0, 84, 80
2, 321408, Note_on_c, 0, 63, 75
2, 321408, Note_on_c, 0, 60, 75
2, 321596, Note_off_c, 0, 84, 64
2, 321600, Note_on_c, 0, 82, 79
2, 321788, Note_off_c, 0, 63, 64
2, 321788, Note_off_c, 0, 60, 64
2, 321788, Note_off_c, 0, 82, 64
2, 321792, Note_on_c, 0, 81, 78
2, 321792, Note_on_c, 0, 67, 75
2, 321792, Note_on_c, 0, 63, 75
2, 322172, Note_off_c, 0, 67, 64
2, 322172, Note_off_c, 0, 63, 64
2, 322176, Note_on_c, 0, 65, 75
2, 322176, Note_on_c, 0, 62, 75
2, 322556, Note_off_c, 0, 81, 64
2, 322556, Note_off_c, 0, 65, 64
2, 322556, Note_off_c, 0, 62, 64
2, 322560, Note_on_c, 0, 63, 75
2, 322560, Note_on_c, 0, 60, 75
2, 322944, Note_on_c, 0, 81, 78
2, 323128, Note_off_c, 0, 81, 64
2, 323136, Note_on_c, 0, 82, 79
2, 323176, Note_off_c, 0, 82, 64
2, 323184, Note_on_c, 0, 81, 78
2, 323224, Note_off_c, 0, 81, 64
2, 323232, Note_on_c, 0, 79, 76
2, 323272, Note_off_c, 0, 79, 64
2, 323280, Note_on_c, 0, 81, 79
2, 323320, Note_off_c, 0, 81, 64
2, 323324, Note_off_c, 0, 63, 64
2, 323324, Note_off_c, 0, 60, 64
2, 323328, Note_on_c, 0, 84, 80
2, 323708, Note_off_c, 0, 84, 64
2, 323712, Note_on_c, 0, 87, 81
2, 324092, Note_off_c, 0, 87, 64
2, 324096, Note_on_c, 0, 75, 75
2, 324480, Note_on_c, 0, 66, 75
2, 324480, Note_on_c, 0, 62, 75
2, 324860, Note_off_c, 0, 75, 64
2, 324860, Note_off_c, 0, 66, 64
2, 324860, Note_off_c, 0, 62, 64
2, 324864, Note_on_c, 0, 74, 75
2, 324864, Note_on_c, 0, 72, 75
2, 324864, Note_on_c, 0, 69, 75
2, 325244, Note_off_c, 0, 72, 64
2, 325244, Note_off_c, 0, 69, 64
2, 325248, Note_on_c, 0, 70, 75
2, 325248, Note_on_c, 0, 67, 75
2, 325628, Note_off_c, 0, 70, 64
2, 325628, Note_off_c, 0, 67, 64
2, 325632, Note_on_c, 0, 69, 75
2, 325632, Note_on_c, 0, 66, 75
2, 325820, Note_off_c, 0, 74, 64
2, 325824, Note_on_c, 0, 74, 75
2, 326012, Note_off_c, 0, 74, 64
2, 326016, Note_on_c, 0, 86, 81
2, 326204, Note_off_c, 0, 86, 64
2, 326208, Note_on_c, 0, 74, 75
2, 326396, Note_off_c, 0, 69, 64
2, 326396, Note_off_c, 0, 66, 64
2, 326396, Note_off_c, 0, 74, 64
2, 326400, Note_on_c, 0, 85, 80
2, 326588, Note_off_c, 0, 85, 64
2, 326592, Note_on_c, 0, 74, 75
2, 326780, Note_off_c, 0, 74, 64
2, 326784, Note_on_c, 0, 84, 80
2, 326972, Note_off_c, 0, 84, 64
2, 326976, Note_on_c, 0, 74, 75
2, 327164, Note_off_c, 0, 74, 64
2, 327168, Note_on_c, 0, 82, 79
2, 327260, Note_off_c, 0, 82, 64
2, 327264, Note_on_c, 0, 86, 81
2, 327356, Note_off_c, 0, 86, 64
2, 327360, Note_on_c, 0, 78, 75
2, 327452, Note_off_c, 0, 78, 64
2, 327456, Note_on_c, 0, 81, 78
2, 327548, Note_off_c, 0, 81, 64
2, 327552, Note_on_c, 0, 79, 76
2, 327644, Note_off_c, 0, 79, 64
2, 327648, Note_on_c, 0, 82, 79
2, 327740, Note_off_c, 0, 82, 64
2, 327744, Note_on_c, 0, 74, 73
2, 327836, Note_off_c, 0, 74, 64
2, 327840, Note_on_c, 0, 77, 75
2, 327932, Note_off_c, 0, 77, 64
2, 327936, Note_on_c, 0, 75, 75
2, 328028, Note_off_c, 0, 75, 64
2, 328032, Note_on_c, 0, 79, 76
2, 328124, Note_off_c, 0, 79, 64
2, 328128, Note_on_c, 0, 71, 75
2, 328220, Note_off_c, 0, 71, 64
2, 328224, Note_on_c, 0, 74, 75
2, 328316, Note_off_c, 0, 74, 64
2, 328320, Note_on_c, 0, 72, 75
2, 328412, Note_off_c, 0, 72, 64
2, 328416, Note_on_c, 0, 75, 75
2, 328508, Note_off_c, 0, 75, 64
2, 328512, Note_on_c, 0, 69, 75
2, 328604, Note_off_c, 0, 69, 64
2, 328608, Note_on_c, 0, 72, 75
2, 328700, Note_off_c, 0, 72, 64
2, 328704, Note_on_c, 0, 70, 75
2, 328796, Note_off_c, 0, 70, 64
2, 328800, Note_on_c, 0, 74, 75
2, 328892, Note_off_c, 0, 74, 64
2, 328896, Note_on_c, 0, 66, 75
2, 328988, Note_off_c, 0, 66, 64
2, 328992, Note_on_c, 0, 69, 75
2, 329084, Note_off_c, 0, 69, 64
2, 329088, Note_on_c, 0, 67, 75
2, 329180, Note_off_c, 0, 67, 64
2, 329184, Note_on_c, 0, 70, 75
2, 329276, Note_off_c, 0, 70, 64
2, 329280, Note_on_c, 0, 62, 75
2, 329372, Note_off_c, 0, 62, 64
2, 329376, Note_on_c, 0, 65, 75
2, 329468, Note_off_c, 0, 65, 64
2, 329472, Note_on_c, 0, 63, 75
2, 329564, Note_off_c, 0, 63, 64
2, 329568, Note_on_c, 0, 67, 75
2, 329660, Note_off_c, 0, 67, 64
2, 329664, Note_on_c, 0, 59, 75
2, 329756, Note_off_c, 0, 59, 64
2, 329760, Note_on_c, 0, 62, 75
2, 329852, Note_off_c, 0, 62, 64
2, 329856, Note_on_c, 0, 60, 75
2, 329948, Note_off_c, 0, 60, 64
2, 329952, Note_on_c, 0, 63, 75
2, 330044, Note_off_c, 0, 63, 64
2, 330048, Note_on_c, 0, 57, 75
2, 330140, Note_off_c, 0, 57, 64
2, 330144, Note_on_c, 0, 60, 75
2, 330236, Note_off_c, 0, 60, 64
2, 330240, Note_on_c, 0, 58, 75
2, 330428, Note_off_c, 0, 58, 64
2, 330432, Note_on_c, 0, 70, 75
2, 330432, Note_on_c, 0, 67, 75
2, 330620, Note_off_c, 0, 70, 64
2, 330620, Note_off_c, 0, 67, 64
2, 330816, Note_on_c, 0, 79, 76
2, 330816, Note_on_c, 0, 70, 75
2, 331004, Note_off_c, 0, 79, 64
2, 331004, Note_off_c, 0, 70, 64
2, 331200, Note_on_c, 0, 79, 76
2, 331200, Note_on_c, 0, 69, 75
2, 331388, Note_off_c, 0, 79, 64
2, 331388, Note_off_c, 0, 69, 64
2, 331584, Note_on_c, 0, 78, 75
2, 331584, Note_on_c, 0, 69, 75
2, 331772, Note_off_c, 0, 78, 64
2, 331772, Note_off_c, 0, 69, 64
2, 331776, Note_on_c, 0, 79, 76
2, 331776, Note_on_c, 0, 74, 75
2, 331776, Note_on_c, 0, 70, 75
2, 331968, Note_on_c, 0, 62, 75
2, 331968, Note_on_c, 0, 58, 75
2, 331968, Note_on_c, 0, 67, 75
2, 332156, Note_off_c, 0, 79, 64
2, 332156, Note_off_c, 0, 74, 64
2, 332156, Note_off_c, 0, 70, 64
2, 332348, Note_off_c, 0, 62, 64
2, 332348, Note_off_c, 0, 58, 64
2, 332348, Note_off_c, 0, 67, 64
2, 332352, Note_on_c, 0, 62, 71
2, 332352, Note_on_c, 0, 67, 71
2, 332352, Note_on_c, 0, 58, 71
2, 332732, Note_off_c, 0, 62, 64
2, 332732, Note_off_c, 0, 67, 64
2, 332732, Note_off_c, 0, 58, 64
2, 332736, Note_on_c, 0, 62, 71
2, 332736, Note_on_c, 0, 58, 71
2, 332736, Note_on_c, 0, 67, 71
2, 333116, Note_off_c, 0, 62, 64
2, 333116, Note_off_c, 0, 58, 64
2, 333116, Note_off_c, 0, 67, 64
2, 333120, Note_on_c, 0, 62, 71
2, 333120, Note_on_c, 0, 58, 71
2, 333120, Note_on_c, 0, 67, 71
2, 333500, Note_off_c, 0, 58, 64
2, 333500, Note_off_c, 0, 62, 64
2, 333500, Note_off_c, 0, 67, 64
2, 333500, Note_on_c, 0, 58, 71
2, 333504, Note_on_c, 0, 67, 71
2, 333504, Note_on_c, 0, 62, 71
2, 333880, Note_off_c, 0, 58, 64
2, 333884, Note_off_c, 0, 67, 64
2, 333884, Note_off_c, 0, 62, 64
2, 333888, Note_on_c, 0, 67, 71
2, 333888, Note_on_c, 0, 62, 71
2, 333888, Note_on_c, 0, 58, 71
2, 334268, Note_off_c, 0, 67, 64
2, 334268, Note_off_c, 0, 62, 64
2, 334268, Note_off_c, 0, 58, 64
2, 334272, Note_on_c, 0, 62, 71
2, 334272, Note_on_c, 0, 58, 71
2, 334272, Note_on_c, 0, 67, 71
2, 334652, Note_off_c, 0, 62, 64
2, 334652, Note_off_c, 0, 58, 64
2, 334652, Note_off_c, 0, 67, 64
2, 334656, Note_on_c, 0, 62, 71
2, 334656, Note_on_c, 0, 58, 71
2, 334656, Note_on_c, 0, 67, 71
2, 334844, Note_off_c, 0, 67, 64
2, 334848, Note_on_c, 0, 65, 94
2, 334848, Note_on_c, 0, 68, 94
2, 335036, Note_off_c, 0, 58, 64
2, 335036, Note_off_c, 0, 62, 64
2, 335036, Note_off_c, 0, 65, 64
2, 335036, Note_off_c, 0, 68, 64
2, 335040, Note_on_c, 0, 68, 94
2, 335040, Note_on_c, 0, 65, 94
2, 335040, Note_on_c, 0, 62, 94
2, 335040, Note_on_c, 0, 58, 94
2, 335420, Note_off_c, 0, 68, 64
2, 335420, Note_off_c, 0, 65, 64
2, 335420, Note_off_c, 0, 62, 64
2, 335420, Note_off_c, 0, 58, 64
2, 335424, Note_on_c, 0, 68, 94
2, 335424, Note_on_c, 0, 65, 94
2, 335424, Note_on_c, 0, 62, 94
2, 335424, Note_on_c, 0, 58, 94
2, 335804, Note_off_c, 0, 68, 64
2, 335804, Note_off_c, 0, 65, 64
2, 335804, Note_off_c, 0, 62, 64
2, 335804, Note_off_c, 0, 58, 64
2, 335808, Note_on_c, 0, 68, 94
2, 335808, Note_on_c, 0, 62, 94
2, 335808, Note_on_c, 0, 58, 94
2, 335808, Note_on_c, 0, 65, 94
2, 336188, Note_off_c, 0, 68, 64
2, 336188, Note_off_c, 0, 62, 64
2, 336188, Note_off_c, 0, 58, 64
2, 336188, Note_off_c, 0, 65, 64
2, 336192, Note_on_c, 0, 68, 94
2, 336192, Note_on_c, 0, 65, 94
2, 336192, Note_on_c, 0, 62, 94
2, 336192, Note_on_c, 0, 58, 94
2, 336572, Note_off_c, 0, 58, 64
2, 336572, Note_off_c, 0, 62, 64
2, 336572, Note_off_c, 0, 65, 64
2, 336572, Note_off_c, 0, 68, 64
2, 336576, Note_on_c, 0, 72, 71
2, 336576, Note_on_c, 0, 68, 71
2, 336956, Note_off_c, 0, 72, 64
2, 336956, Note_off_c, 0, 68, 64
2, 336960, Note_on_c, 0, 70, 71
2, 336960, Note_on_c, 0, 67, 71
2, 337340, Note_off_c, 0, 70, 64
2, 337340, Note_off_c, 0, 67, 64
2, 337344, Note_on_c, 0, 68, 71
2, 337344, Note_on_c, 0, 65, 71
2, 337724, Note_off_c, 0, 68, 64
2, 337724, Note_off_c, 0, 65, 64
2, 337728, Note_on_c, 0, 67, 71
2, 337728, Note_on_c, 0, 63, 71
2, 338108, Note_off_c, 0, 63, 64
2, 338108, Note_off_c, 0, 67, 64
2, 338304, Note_on_c, 0, 70, 75
2, 338684, Note_off_c, 0, 70, 64
2, 338688, Note_on_c, 0, 82, 79
2, 339068, Note_off_c, 0, 82, 64
2, 339072, Note_on_c, 0, 74, 75
2, 339452, Note_off_c, 0, 74, 64
2, 339456, Note_on_c, 0, 77, 75
2, 339840, Note_on_c, 0, 67, 75
2, 339840, Note_on_c, 0, 63, 75
2, 340028, Note_off_c, 0, 77, 64
2, 340032, Note_on_c, 0, 75, 75
2, 340220, Note_off_c, 0, 67, 64
2, 340220, Note_off_c, 0, 63, 64
2, 340220, Note_off_c, 0, 75, 64
2, 340224, Note_on_c, 0, 75, 75
2, 340224, Note_on_c, 0, 70, 75
2, 340224, Note_on_c, 0, 67, 75
2, 340604, Note_off_c, 0, 70, 64
2, 340604, Note_off_c, 0, 67, 64
2, 340608, Note_on_c, 0, 67, 75
2, 340608, Note_on_c, 0, 59, 75
2, 340988, Note_off_c, 0, 75, 64
2, 340988, Note_off_c, 0, 67, 64
2, 340988, Note_off_c, 0, 59, 64
2, 340992, Note_on_c, 0, 63, 75
2, 340992, Note_on_c, 0, 60, 75
2, 341376, Note_on_c, 0, 75, 75
2, 341564, Note_off_c, 0, 75, 64
2, 341568, Note_on_c, 0, 77, 74
2, 341608, Note_off_c, 0, 77, 64
2, 341616, Note_on_c, 0, 75, 73
2, 341656, Note_off_c, 0, 75, 64
2, 341664, Note_on_c, 0, 74, 74
2, 341704, Note_off_c, 0, 74, 64
2, 341712, Note_on_c, 0, 75, 75
2, 341752, Note_off_c, 0, 75, 64
2, 341756, Note_off_c, 0, 63, 64
2, 341756, Note_off_c, 0, 60, 64
2, 341760, Note_on_c, 0, 77, 75
2, 342140, Note_off_c, 0, 77, 64
2, 342144, Note_on_c, 0, 79, 76
2, 342524, Note_off_c, 0, 79, 64
2, 342528, Note_on_c, 0, 79, 76
2, 342912, Note_on_c, 0, 60, 75
2, 342912, Note_on_c, 0, 56, 75
2, 343100, Note_off_c, 0, 79, 64
2, 343104, Note_on_c, 0, 84, 80
2, 343292, Note_off_c, 0, 60, 64
2, 343292, Note_off_c, 0, 56, 64
2, 343292, Note_off_c, 0, 84, 64
2, 343296, Note_on_c, 0, 77, 75
2, 343296, Note_on_c, 0, 63, 75
2, 343296, Note_on_c, 0, 60, 75
2, 343676, Note_off_c, 0, 63, 64
2, 343676, Note_off_c, 0, 60, 64
2, 343680, Note_on_c, 0, 62, 75
2, 343680, Note_on_c, 0, 58, 75
2, 344060, Note_off_c, 0, 77, 64
2, 344060, Note_off_c, 0, 62, 64
2, 344060, Note_off_c, 0, 58, 64
2, 344064, Note_on_c, 0, 60, 75
2, 344064, Note_on_c, 0, 57, 75
2, 344448, Note_on_c, 0, 76, 75
2, 344636, Note_off_c, 0, 76, 64
2, 344640, Note_on_c, 0, 77, 75
2, 344828, Note_off_c, 0, 60, 64
2, 344828, Note_off_c, 0, 57, 64
2, 344828, Note_off_c, 0, 77, 64
2, 344832, Note_on_c, 0, 76, 75
2, 345020, Note_off_c, 0, 76, 64
2, 345024, Note_on_c, 0, 77, 75
2, 345212, Note_off_c, 0, 77, 64
2, 345216, Note_on_c, 0, 76, 75
2, 345404, Note_off_c, 0, 76, 64
2, 345408, Note_on_c, 0, 77, 75
2, 345596, Note_off_c, 0, 77, 64
2, 345600, Note_on_c, 0, 79, 75
2, 345788, Note_off_c, 0, 79, 64
2, 345792, Note_on_c, 0, 77, 75
2, 345980, Note_off_c, 0, 77, 64
2, 345984, Note_on_c, 0, 75, 75
2, 345984, Note_on_c, 0, 62, 75
2, 345984, Note_on_c, 0, 58, 75
2, 346172, Note_off_c, 0, 75, 64
2, 346176, Note_on_c, 0, 74, 75
2, 346364, Note_off_c, 0, 62, 64
2, 346364, Note_off_c, 0, 58, 64
2, 346364, Note_off_c, 0, 74, 64
2, 346368, Note_on_c, 0, 72, 75
2, 346368, Note_on_c, 0, 65, 75
2, 346368, Note_on_c, 0, 62, 75
2, 346464, Note_off_c, 0, 72, 64
2, 346464, Note_on_c, 0, 70, 75
2, 346748, Note_off_c, 0, 65, 64
2, 346748, Note_off_c, 0, 62, 64
2, 346752, Note_on_c, 0, 63, 75
2, 346752, Note_on_c, 0, 60, 75
2, 347132, Note_off_c, 0, 63, 64
2, 347132, Note_off_c, 0, 60, 64
2, 347136, Note_on_c, 0, 62, 75
2, 347136, Note_on_c, 0, 58, 75
2, 347420, Note_off_c, 0, 70, 64
2, 347520, Note_on_c, 0, 82, 79
2, 347900, Note_off_c, 0, 62, 64
2, 347900, Note_off_c, 0, 58, 64
2, 347900, Note_off_c, 0, 82, 64
2, 347904, Note_on_c, 0, 81, 78
2, 348284, Note_off_c, 0, 81, 64
2, 348288, Note_on_c, 0, 80, 76
2, 348668, Note_off_c, 0, 80, 64
2, 348672, Note_on_c, 0, 79, 75
2, 348860, Note_off_c, 0, 79, 64
2, 348864, Note_on_c, 0, 79, 76
2, 348864, Note_on_c, 0, 63, 75
2, 348864, Note_on_c, 0, 82, 79
2, 348956, Note_off_c, 0, 63, 64
2, 348960, Note_on_c, 0, 75, 75
2, 349052, Note_off_c, 0, 79, 64
2, 349052, Note_off_c, 0, 75, 64
2, 349056, Note_on_c, 0, 77, 75
2, 349056, Note_on_c, 0, 62, 75
2, 349148, Note_off_c, 0, 62, 64
2, 349152, Note_on_c, 0, 74, 75
2, 349244, Note_off_c, 0, 82, 64
2, 349244, Note_off_c, 0, 77, 64
2, 349244, Note_off_c, 0, 74, 64
2, 349248, Note_on_c, 0, 75, 75
2, 349248, Note_on_c, 0, 62, 75
2, 349248, Note_on_c, 0, 82, 79
2, 349340, Note_off_c, 0, 62, 64
2, 349344, Note_on_c, 0, 72, 75
2, 349436, Note_off_c, 0, 75, 64
2, 349436, Note_off_c, 0, 82, 64
2, 349436, Note_off_c, 0, 72, 64
2, 349440, Note_on_c, 0, 74, 75
2, 349440, Note_on_c, 0, 58, 75
2, 349440, Note_on_c, 0, 82, 79
2, 349532, Note_off_c, 0, 58, 64
2, 349536, Note_on_c, 0, 70, 75
2, 349628, Note_off_c, 0, 74, 64
2, 349628, Note_off_c, 0, 70, 64
2, 349632, Note_on_c, 0, 72, 75
2, 349632, Note_on_c, 0, 56, 75
2, 349724, Note_off_c, 0, 56, 64
2, 349728, Note_on_c, 0, 68, 75
2, 349820, Note_off_c, 0, 82, 64
2, 349820, Note_off_c, 0, 72, 64
2, 349820, Note_off_c, 0, 68, 64
2, 349824, Note_on_c, 0, 70, 75
2, 349824, Note_on_c, 0, 55, 75
2, 349916, Note_off_c, 0, 55, 64
2, 349920, Note_on_c, 0, 67, 75
2, 350012, Note_off_c, 0, 70, 64
2, 350012, Note_off_c, 0, 67, 64
2, 350016, Note_on_c, 0, 68, 75
2, 350016, Note_on_c, 0, 53, 75
2, 350108, Note_off_c, 0, 53, 64
2, 350112, Note_on_c, 0, 65, 75
2, 350204, Note_off_c, 0, 68, 64
2, 350204, Note_off_c, 0, 65, 64
2, 350208, Note_on_c, 0, 67, 75
2, 350396, Note_off_c, 0, 67, 64
2, 350400, Note_on_c, 0, 67, 75
2, 350400, Note_on_c, 0, 70, 75
2, 350588, Note_off_c, 0, 67, 64
2, 350588, Note_off_c, 0, 70, 64
2, 350592, Note_on_c, 0, 65, 75
2, 350780, Note_off_c, 0, 65, 64
2, 350784, Note_on_c, 0, 63, 75
2, 350784, Note_on_c, 0, 70, 75
2, 350972, Note_off_c, 0, 63, 64
2, 350972, Note_off_c, 0, 70, 64
2, 350976, Note_on_c, 0, 62, 75
2, 350976, Note_on_c, 0, 70, 75
2, 351164, Note_off_c, 0, 62, 64
2, 351168, Note_on_c, 0, 60, 75
2, 351356, Note_off_c, 0, 70, 64
2, 351356, Note_off_c, 0, 60, 64
2, 351360, Note_on_c, 0, 58, 75
2, 351548, Note_off_c, 0, 58, 64
2, 351552, Note_on_c, 0, 56, 75
2, 351740, Note_off_c, 0, 56, 64
2, 351744, Note_on_c, 0, 55, 75
2, 352124, Note_off_c, 0, 55, 64
2, 352128, Note_on_c, 0, 75, 75
2, 352128, Note_on_c, 0, 67, 75
2, 352508, Note_off_c, 0, 75, 64
2, 352508, Note_off_c, 0, 67, 64
2, 352512, Note_on_c, 0, 75, 75
2, 352512, Note_on_c, 0, 65, 75
2, 352892, Note_off_c, 0, 75, 64
2, 352892, Note_off_c, 0, 65, 64
2, 352896, Note_on_c, 0, 74, 75
2, 352896, Note_on_c, 0, 65, 75
2, 353276, Note_off_c, 0, 74, 64
2, 353276, Note_off_c, 0, 65, 64
2, 353664, Note_on_c, 0, 63, 75
2, 353756, Note_off_c, 0, 63, 64
2, 353760, Note_on_c, 0, 55, 75
2, 353852, Note_off_c, 0, 55, 64
2, 353856, Note_on_c, 0, 58, 75
2, 353948, Note_off_c, 0, 58, 64
2, 353952, Note_on_c, 0, 63, 75
2, 354044, Note_off_c, 0, 63, 64
2, 354048, Note_on_c, 0, 67, 75
2, 354140, Note_off_c, 0, 67, 64
2, 354144, Note_on_c, 0, 58, 75
2, 354236, Note_off_c, 0, 58, 64
2, 354240, Note_on_c, 0, 63, 75
2, 354332, Note_off_c, 0, 63, 64
2, 354336, Note_on_c, 0, 67, 75
2, 354428, Note_off_c, 0, 67, 64
2, 354432, Note_on_c, 0, 70, 75
2, 354524, Note_off_c, 0, 70, 64
2, 354528, Note_on_c, 0, 63, 75
2, 354620, Note_off_c, 0, 63, 64
2, 354624, Note_on_c, 0, 67, 75
2, 354716, Note_off_c, 0, 67, 64
2, 354720, Note_on_c, 0, 70, 75
2, 354812, Note_off_c, 0, 70, 64
2, 354816, Note_on_c, 0, 75, 74
2, 354908, Note_off_c, 0, 75, 64
2, 354912, Note_on_c, 0, 67, 71
2, 355004, Note_off_c, 0, 67, 64
2, 355008, Note_on_c, 0, 70, 72
2, 355100, Note_off_c, 0, 70, 64
2, 355104, Note_on_c, 0, 75, 74
2, 355196, Note_off_c, 0, 75, 64
2, 355200, Note_on_c, 0, 79, 76
2, 355292, Note_off_c, 0, 79, 64
2, 355296, Note_on_c, 0, 70, 72
2, 355388, Note_off_c, 0, 70, 64
2, 355392, Note_on_c, 0, 75, 74
2, 355484, Note_off_c, 0, 75, 64
2, 355488, Note_on_c, 0, 79, 76
2, 355580, Note_off_c, 0, 79, 64
2, 355584, Note_on_c, 0, 82, 79
2, 355676, Note_off_c, 0, 82, 64
2, 355680, Note_on_c, 0, 79, 76
2, 355772, Note_off_c, 0, 79, 64
2, 355776, Note_on_c, 0, 75, 74
2, 355868, Note_off_c, 0, 75, 64
2, 355872, Note_on_c, 0, 70, 72
2, 355964, Note_off_c, 0, 70, 64
2, 355968, Note_on_c, 0, 82, 79
2, 356060, Note_off_c, 0, 82, 64
2, 356064, Note_on_c, 0, 77, 75
2, 356156, Note_off_c, 0, 77, 64
2, 356160, Note_on_c, 0, 73, 73
2, 356252, Note_off_c, 0, 73, 64
2, 356256, Note_on_c, 0, 70, 72
2, 356348, Note_off_c, 0, 70, 64
2, 356448, Note_on_c, 0, 85, 80
2, 356540, Note_off_c, 0, 85, 64
2, 356544, Note_on_c, 0, 82, 79
2, 356636, Note_off_c, 0, 82, 64
2, 356640, Note_on_c, 0, 85, 80
2, 356732, Note_off_c, 0, 85, 64
2, 356736, Note_on_c, 0, 79, 76
2, 356828, Note_off_c, 0, 79, 64
2, 356832, Note_on_c, 0, 82, 79
2, 356924, Note_off_c, 0, 82, 64
2, 356928, Note_on_c, 0, 76, 74
2, 357020, Note_off_c, 0, 76, 64
2, 357024, Note_on_c, 0, 79, 76
2, 357116, Note_off_c, 0, 79, 64
2, 357120, Note_on_c, 0, 73, 72
2, 357212, Note_off_c, 0, 73, 64
2, 357216, Note_on_c, 0, 76, 74
2, 357308, Note_off_c, 0, 76, 64
2, 357312, Note_on_c, 0, 70, 71
2, 357404, Note_off_c, 0, 70, 64
2, 357408, Note_on_c, 0, 73, 72
2, 357500, Note_off_c, 0, 73, 64
2, 357504, Note_on_c, 0, 67, 71
2, 357596, Note_off_c, 0, 67, 64
2, 357600, Note_on_c, 0, 70, 73
2, 357692, Note_off_c, 0, 70, 64
2, 357696, Note_on_c, 0, 64, 69
2, 357788, Note_off_c, 0, 64, 64
2, 357792, Note_on_c, 0, 67, 71
2, 357884, Note_off_c, 0, 67, 64
2, 357888, Note_on_c, 0, 61, 72
2, 357980, Note_off_c, 0, 61, 64
2, 357984, Note_on_c, 0, 64, 72
2, 358076, Note_off_c, 0, 64, 64
2, 358080, Note_on_c, 0, 58, 72
2, 358172, Note_off_c, 0, 58, 64
2, 358176, Note_on_c, 0, 61, 72
2, 358268, Note_off_c, 0, 61, 64
2, 359808, Note_on_c, 0, 65, 72
2, 359900, Note_off_c, 0, 65, 64
2, 359904, Note_on_c, 0, 56, 73
2, 359996, Note_off_c, 0, 56, 64
2, 360000, Note_on_c, 0, 60, 75
2, 360092, Note_off_c, 0, 60, 64
2, 360096, Note_on_c, 0, 65, 75
2, 360188, Note_off_c, 0, 65, 64
2, 360192, Note_on_c, 0, 68, 75
2, 360284, Note_off_c, 0, 68, 64
2, 360288, Note_on_c, 0, 60, 75
2, 360380, Note_off_c, 0, 60, 64
2, 360384, Note_on_c, 0, 65, 75
2, 360476, Note_off_c, 0, 65, 64
2, 360480, Note_on_c, 0, 68, 75
2, 360572, Note_off_c, 0, 68, 64
2, 360576, Note_on_c, 0, 72, 75
2, 360668, Note_off_c, 0, 72, 64
2, 360672, Note_on_c, 0, 65, 75
2, 360764, Note_off_c, 0, 65, 64
2, 360768, Note_on_c, 0, 68, 75
2, 360860, Note_off_c, 0, 68, 64
2, 360864, Note_on_c, 0, 72, 75
2, 360956, Note_off_c, 0, 72, 64
2, 360960, Note_on_c, 0, 77, 75
2, 361052, Note_off_c, 0, 77, 64
2, 361056, Note_on_c, 0, 68, 75
2, 361148, Note_off_c, 0, 68, 64
2, 361152, Note_on_c, 0, 72, 75
2, 361244, Note_off_c, 0, 72, 64
2, 361248, Note_on_c, 0, 77, 75
2, 361340, Note_off_c, 0, 77, 64
2, 361344, Note_on_c, 0, 80, 76
2, 361436, Note_off_c, 0, 80, 64
2, 361440, Note_on_c, 0, 72, 75
2, 361532, Note_off_c, 0, 72, 64
2, 361536, Note_on_c, 0, 77, 75
2, 361628, Note_off_c, 0, 77, 64
2, 361632, Note_on_c, 0, 80, 76
2, 361724, Note_off_c, 0, 80, 64
2, 361728, Note_on_c, 0, 84, 80
2, 361820, Note_off_c, 0, 84, 64
2, 361824, Note_on_c, 0, 80, 79
2, 361916, Note_off_c, 0, 80, 64
2, 361920, Note_on_c, 0, 77, 75
2, 362012, Note_off_c, 0, 77, 64
2, 362016, Note_on_c, 0, 72, 75
2, 362108, Note_off_c, 0, 72, 64
2, 362112, Note_on_c, 0, 84, 80
2, 362204, Note_off_c, 0, 84, 64
2, 362208, Note_on_c, 0, 79, 76
2, 362300, Note_off_c, 0, 79, 64
2, 362304, Note_on_c, 0, 75, 73
2, 362396, Note_off_c, 0, 75, 64
2, 362400, Note_on_c, 0, 72, 71
2, 362492, Note_off_c, 0, 72, 64
2, 362592, Note_on_c, 0, 87, 81
2, 362684, Note_off_c, 0, 87, 64
2, 362688, Note_on_c, 0, 84, 80
2, 362780, Note_off_c, 0, 84, 64
2, 362784, Note_on_c, 0, 87, 81
2, 362876, Note_off_c, 0, 87, 64
2, 362880, Note_on_c, 0, 81, 78
2, 362972, Note_off_c, 0, 81, 64
2, 362976, Note_on_c, 0, 84, 81
2, 363068, Note_off_c, 0, 84, 64
2, 363072, Note_on_c, 0, 78, 75
2, 363164, Note_off_c, 0, 78, 64
2, 363168, Note_on_c, 0, 81, 78
2, 363260, Note_off_c, 0, 81, 64
2, 363264, Note_on_c, 0, 75, 73
2, 363356, Note_off_c, 0, 75, 64
2, 363360, Note_on_c, 0, 78, 73
2, 363452, Note_off_c, 0, 78, 64
2, 363456, Note_on_c, 0, 72, 73
2, 363548, Note_off_c, 0, 72, 64
2, 363552, Note_on_c, 0, 75, 73
2, 363644, Note_off_c, 0, 75, 64
2, 363648, Note_on_c, 0, 69, 73
2, 363740, Note_off_c, 0, 69, 64
2, 363744, Note_on_c, 0, 72, 73
2, 363836, Note_off_c, 0, 72, 64
2, 363840, Note_on_c, 0, 66, 73
2, 363932, Note_off_c, 0, 66, 64
2, 363936, Note_on_c, 0, 69, 73
2, 364028, Note_off_c, 0, 69, 64
2, 364032, Note_on_c, 0, 63, 75
2, 364124, Note_off_c, 0, 63, 64
2, 364128, Note_on_c, 0, 66, 75
2, 364220, Note_off_c, 0, 66, 64
2, 364224, Note_on_c, 0, 60, 75
2, 364316, Note_off_c, 0, 60, 64
2, 364320, Note_on_c, 0, 63, 75
2, 364412, Note_off_c, 0, 63, 64
2, 365952, Note_on_c, 0, 67, 75
2, 366044, Note_off_c, 0, 67, 64
2, 366048, Note_on_c, 0, 58, 75
2, 366140, Note_off_c, 0, 58, 64
2, 366144, Note_on_c, 0, 62, 75
2, 366236, Note_off_c, 0, 62, 64
2, 366240, Note_on_c, 0, 67, 75
2, 366332, Note_off_c, 0, 67, 64
2, 366336, Note_on_c, 0, 70, 75
2, 366428, Note_off_c, 0, 70, 64
2, 366432, Note_on_c, 0, 62, 75
2, 366524, Note_off_c, 0, 62, 64
2, 366528, Note_on_c, 0, 67, 75
2, 366620, Note_off_c, 0, 67, 64
2, 366624, Note_on_c, 0, 70, 75
2, 366716, Note_off_c, 0, 70, 64
2, 366720, Note_on_c, 0, 74, 75
2, 366812, Note_off_c, 0, 74, 64
2, 366816, Note_on_c, 0, 67, 75
2, 366908, Note_off_c, 0, 67, 64
2, 366912, Note_on_c, 0, 70, 75
2, 367004, Note_off_c, 0, 70, 64
2, 367008, Note_on_c, 0, 74, 75
2, 367100, Note_off_c, 0, 74, 64
2, 367104, Note_on_c, 0, 79, 76
2, 367196, Note_off_c, 0, 79, 64
2, 367200, Note_on_c, 0, 70, 73
2, 367292, Note_off_c, 0, 70, 64
2, 367296, Note_on_c, 0, 74, 74
2, 367388, Note_off_c, 0, 74, 64
2, 367392, Note_on_c, 0, 79, 76
2, 367484, Note_off_c, 0, 79, 64
2, 367488, Note_on_c, 0, 82, 79
2, 367580, Note_off_c, 0, 82, 64
2, 367584, Note_on_c, 0, 74, 75
2, 367676, Note_off_c, 0, 74, 64
2, 367680, Note_on_c, 0, 79, 76
2, 367772, Note_off_c, 0, 79, 64
2, 367776, Note_on_c, 0, 82, 79
2, 367868, Note_off_c, 0, 82, 64
2, 367872, Note_on_c, 0, 86, 81
2, 367964, Note_off_c, 0, 86, 64
2, 367968, Note_on_c, 0, 82, 79
2, 368060, Note_off_c, 0, 82, 64
2, 368064, Note_on_c, 0, 79, 76
2, 368156, Note_off_c, 0, 79, 64
2, 368160, Note_on_c, 0, 74, 74
2, 368252, Note_off_c, 0, 74, 64
2, 368256, Note_on_c, 0, 86, 81
2, 368348, Note_off_c, 0, 86, 64
2, 368352, Note_on_c, 0, 81, 78
2, 368444, Note_off_c, 0, 81, 64
2, 368448, Note_on_c, 0, 77, 75
2, 368540, Note_off_c, 0, 77, 64
2, 368544, Note_on_c, 0, 74, 73
2, 368636, Note_off_c, 0, 74, 64
2, 368736, Note_on_c, 0, 89, 83
2, 368828, Note_off_c, 0, 89, 64
2, 368832, Note_on_c, 0, 86, 81
2, 368924, Note_off_c, 0, 86, 64
2, 368928, Note_on_c, 0, 89, 83
2, 369020, Note_off_c, 0, 89, 64
2, 369024, Note_on_c, 0, 83, 80
2, 369116, Note_off_c, 0, 83, 64
2, 369120, Note_on_c, 0, 86, 81
2, 369212, Note_off_c, 0, 86, 64
2, 369216, Note_on_c, 0, 80, 76
2, 369308, Note_off_c, 0, 80, 64
2, 369312, Note_on_c, 0, 83, 79
2, 369404, Note_off_c, 0, 83, 64
2, 369408, Note_on_c, 0, 77, 75
2, 369500, Note_off_c, 0, 77, 64
2, 369504, Note_on_c, 0, 80, 76
2, 369596, Note_off_c, 0, 80, 64
2, 369600, Note_on_c, 0, 74, 73
2, 369692, Note_off_c, 0, 74, 64
2, 369696, Note_on_c, 0, 77, 75
2, 369788, Note_off_c, 0, 77, 64
2, 369792, Note_on_c, 0, 71, 73
2, 369884, Note_off_c, 0, 71, 64
2, 369888, Note_on_c, 0, 74, 73
2, 369980, Note_off_c, 0, 74, 64
2, 369984, Note_on_c, 0, 68, 73
2, 370076, Note_off_c, 0, 68, 64
2, 370080, Note_on_c, 0, 71, 73
2, 370172, Note_off_c, 0, 71, 64
2, 370176, Note_on_c, 0, 65, 73
2, 370268, Note_off_c, 0, 65, 64
2, 370272, Note_on_c, 0, 68, 73
2, 370364, Note_off_c, 0, 68, 64
2, 370368, Note_on_c, 0, 62, 73
2, 370460, Note_off_c, 0, 62, 64
2, 370464, Note_on_c, 0, 65, 73
2, 370556, Note_off_c, 0, 65, 64
2, 370560, Note_on_c, 0, 59, 73
2, 370652, Note_off_c, 0, 59, 64
2, 370656, Note_on_c, 0, 62, 73
2, 370748, Note_off_c, 0, 62, 64
2, 370752, Note_on_c, 0, 57, 73
2, 370844, Note_off_c, 0, 57, 64
2, 370848, Note_on_c, 0, 62, 73
2, 370940, Note_off_c, 0, 62, 64
2, 370944, Note_on_c, 0, 56, 73
2, 371036, Note_off_c, 0, 56, 64
2, 371040, Note_on_c, 0, 59, 73
2, 371132, Note_off_c, 0, 59, 64
2, 371136, Note_on_c, 0, 62, 73
2, 371228, Note_off_c, 0, 62, 64
2, 371232, Note_on_c, 0, 65, 73
2, 371324, Note_off_c, 0, 65, 64
2, 371328, Note_on_c, 0, 64, 73
2, 371420, Note_off_c, 0, 64, 64
2, 371424, Note_on_c, 0, 62, 73
2, 371516, Note_off_c, 0, 62, 64
2, 371520, Note_on_c, 0, 61, 73
2, 371612, Note_off_c, 0, 61, 64
2, 371616, Note_on_c, 0, 62, 73
2, 371708, Note_off_c, 0, 62, 64
2, 371712, Note_on_c, 0, 61, 73
2, 372092, Note_off_c, 0, 61, 64
2, 373344, Note_on_c, 0, 69, 75
2, 373436, Note_off_c, 0, 69, 64
2, 373440, Note_on_c, 0, 71, 75
2, 373532, Note_off_c, 0, 71, 64
2, 373536, Note_on_c, 0, 73, 76
2, 373628, Note_off_c, 0, 73, 64
2, 373632, Note_on_c, 0, 74, 76
2, 373724, Note_off_c, 0, 74, 64
2, 373728, Note_on_c, 0, 76, 78
2, 373820, Note_off_c, 0, 76, 64
2, 373824, Note_on_c, 0, 77, 78
2, 373916, Note_off_c, 0, 77, 64
2, 373920, Note_on_c, 0, 79, 79
2, 374012, Note_off_c, 0, 79, 64
2, 374016, Note_on_c, 0, 81, 79
2, 374108, Note_off_c, 0, 81, 64
2, 374112, Note_on_c, 0, 83, 80
2, 374204, Note_off_c, 0, 83, 64
2, 374208, Note_on_c, 0, 85, 80
2, 374300, Note_off_c, 0, 85, 64
2, 374304, Note_on_c, 0, 86, 81
2, 374396, Note_off_c, 0, 86, 64
2, 374400, Note_on_c, 0, 88, 82
2, 374588, Note_off_c, 0, 88, 64
2, 374592, Note_on_c, 0, 79, 76
2, 374780, Note_off_c, 0, 79, 64
2, 374784, Note_on_c, 0, 77, 75
2, 374784, Note_on_c, 0, 74, 75
2, 374784, Note_on_c, 0, 69, 75
2, 375164, Note_off_c, 0, 77, 64
2, 375164, Note_off_c, 0, 74, 64
2, 375164, Note_off_c, 0, 69, 64
2, 376416, Note_on_c, 0, 69, 75
2, 376508, Note_off_c, 0, 69, 64
2, 376512, Note_on_c, 0, 71, 75
2, 376604, Note_off_c, 0, 71, 64
2, 376608, Note_on_c, 0, 73, 76
2, 376700, Note_off_c, 0, 73, 64
2, 376704, Note_on_c, 0, 74, 76
2, 376796, Note_off_c, 0, 74, 64
2, 376800, Note_on_c, 0, 76, 78
2, 376892, Note_off_c, 0, 76, 64
2, 376896, Note_on_c, 0, 77, 78
2, 376988, Note_off_c, 0, 77, 64
2, 376992, Note_on_c, 0, 79, 79
2, 377084, Note_off_c, 0, 79, 64
2, 377088, Note_on_c, 0, 81, 79
2, 377180, Note_off_c, 0, 81, 64
2, 377184, Note_on_c, 0, 85, 80
2, 377276, Note_off_c, 0, 85, 64
2, 377280, Note_on_c, 0, 86, 81
2, 377344, Note_on_c, 0, 88, 82
2, 377372, Note_off_c, 0, 86, 64
2, 377436, Note_off_c, 0, 88, 64
2, 377472, Note_on_c, 0, 89, 83
2, 377660, Note_off_c, 0, 89, 64
2, 377664, Note_on_c, 0, 81, 78
2, 377852, Note_off_c, 0, 81, 64
2, 379488, Note_on_c, 0, 85, 80
2, 379580, Note_off_c, 0, 85, 64
2, 379584, Note_on_c, 0, 88, 82
2, 379676, Note_off_c, 0, 88, 64
2, 379680, Note_on_c, 0, 86, 81
2, 379772, Note_off_c, 0, 86, 64
2, 379776, Note_on_c, 0, 85, 80
2, 379868, Note_off_c, 0, 85, 64
2, 379872, Note_on_c, 0, 86, 81
2, 379964, Note_off_c, 0, 86, 64
2, 379968, Note_on_c, 0, 84, 80
2, 380060, Note_off_c, 0, 84, 64
2, 380064, Note_on_c, 0, 86, 81
2, 380156, Note_off_c, 0, 86, 64
2, 380160, Note_on_c, 0, 83, 80
2, 380252, Note_off_c, 0, 83, 64
2, 380256, Note_on_c, 0, 86, 81
2, 380348, Note_off_c, 0, 86, 64
2, 380352, Note_on_c, 0, 82, 80
2, 380444, Note_off_c, 0, 82, 64
2, 380448, Note_on_c, 0, 86, 81
2, 380540, Note_off_c, 0, 86, 64
2, 380544, Note_on_c, 0, 81, 78
2, 380636, Note_off_c, 0, 81, 64
2, 380640, Note_on_c, 0, 86, 81
2, 380732, Note_off_c, 0, 86, 64
2, 380736, Note_on_c, 0, 80, 76
2, 380828, Note_off_c, 0, 80, 64
2, 380832, Note_on_c, 0, 86, 81
2, 380924, Note_off_c, 0, 86, 64
2, 380928, Note_on_c, 0, 85, 80
2, 381020, Note_off_c, 0, 85, 64
2, 381024, Note_on_c, 0, 81, 78
2, 381116, Note_off_c, 0, 81, 64
2, 381120, Note_on_c, 0, 88, 82
2, 381212, Note_off_c, 0, 88, 64
2, 381216, Note_on_c, 0, 85, 80
2, 381308, Note_off_c, 0, 85, 64
2, 381312, Note_on_c, 0, 81, 78
2, 381404, Note_off_c, 0, 81, 64
2, 381408, Note_on_c, 0, 76, 75
2, 381500, Note_off_c, 0, 76, 64
2, 381504, Note_on_c, 0, 73, 75
2, 381596, Note_off_c, 0, 73, 64
2, 381600, Note_on_c, 0, 69, 75
2, 381692, Note_off_c, 0, 69, 64
2, 381696, Note_on_c, 0, 77, 75
2, 381788, Note_off_c, 0, 77, 64
2, 381792, Note_on_c, 0, 74, 75
2, 381884, Note_off_c, 0, 74, 64
2, 381888, Note_on_c, 0, 81, 75
2, 381980, Note_off_c, 0, 81, 64
2, 381984, Note_on_c, 0, 77, 75
2, 382076, Note_off_c, 0, 77, 64
2, 382080, Note_on_c, 0, 74, 78
2, 382172, Note_off_c, 0, 74, 64
2, 382176, Note_on_c, 0, 69, 75
2, 382268, Note_off_c, 0, 69, 64
2, 382272, Note_on_c, 0, 65, 73
2, 382364, Note_off_c, 0, 65, 64
2, 382368, Note_on_c, 0, 62, 73
2, 382460, Note_off_c, 0, 62, 64
2, 382464, Note_on_c, 0, 73, 75
2, 382556, Note_off_c, 0, 73, 64
2, 382560, Note_on_c, 0, 69, 75
2, 382652, Note_off_c, 0, 69, 64
2, 382656, Note_on_c, 0, 76, 75
2, 382748, Note_off_c, 0, 76, 64
2, 382752, Note_on_c, 0, 73, 75
2, 382844, Note_off_c, 0, 73, 64
2, 382848, Note_on_c, 0, 69, 75
2, 382940, Note_off_c, 0, 69, 64
2, 382944, Note_on_c, 0, 64, 75
2, 383036, Note_off_c, 0, 64, 64
2, 383040, Note_on_c, 0, 61, 75
2, 383132, Note_off_c, 0, 61, 64
2, 383136, Note_on_c, 0, 57, 75
2, 383228, Note_off_c, 0, 57, 64
2, 383232, Note_on_c, 0, 65, 75
2, 383324, Note_off_c, 0, 65, 64
2, 383328, Note_on_c, 0, 62, 75
2, 383420, Note_off_c, 0, 62, 64
2, 383424, Note_on_c, 0, 69, 75
2, 383516, Note_off_c, 0, 69, 64
2, 383520, Note_on_c, 0, 65, 75
2, 383612, Note_off_c, 0, 65, 64
2, 402048, Note_on_c, 0, 62, 75
2, 402140, Note_off_c, 0, 62, 64
2, 402144, Note_on_c, 0, 74, 75
2, 402236, Note_off_c, 0, 74, 64
2, 402240, Note_on_c, 0, 62, 75
2, 402332, Note_off_c, 0, 62, 64
2, 402336, Note_on_c, 0, 74, 75
2, 402428, Note_off_c, 0, 74, 64
2, 402432, Note_on_c, 0, 63, 75
2, 402524, Note_off_c, 0, 63, 64
2, 402528, Note_on_c, 0, 75, 75
2, 402620, Note_off_c, 0, 75, 64
2, 402624, Note_on_c, 0, 63, 75
2, 402716, Note_off_c, 0, 63, 64
2, 402720, Note_on_c, 0, 75, 75
2, 402812, Note_off_c, 0, 75, 64
2, 402816, Note_on_c, 0, 64, 75
2, 402908, Note_off_c, 0, 64, 64
2, 402912, Note_on_c, 0, 76, 75
2, 403004, Note_off_c, 0, 76, 64
2, 403008, Note_on_c, 0, 64, 75
2, 403100, Note_off_c, 0, 64, 64
2, 403104, Note_on_c, 0, 76, 75
2, 403196, Note_off_c, 0, 76, 64
2, 403200, Note_on_c, 0, 65, 75
2, 403292, Note_off_c, 0, 65, 64
2, 403296, Note_on_c, 0, 77, 75
2, 403388, Note_off_c, 0, 77, 64
2, 403392, Note_on_c, 0, 65, 75
2, 403484, Note_off_c, 0, 65, 64
2, 403488, Note_on_c, 0, 77, 75
2, 403580, Note_off_c, 0, 77, 64
2, 403584, Note_on_c, 0, 66, 75
2, 403676, Note_off_c, 0, 66, 64
2, 403680, Note_on_c, 0, 78, 75
2, 403772, Note_off_c, 0, 78, 64
2, 403776, Note_on_c, 0, 66, 75
2, 403868, Note_off_c, 0, 66, 64
2, 403872, Note_on_c, 0, 78, 75
2, 403964, Note_off_c, 0, 78, 64
2, 403968, Note_on_c, 0, 67, 75
2, 404060, Note_off_c, 0, 67, 64
2, 404064, Note_on_c, 0, 79, 75
2, 404156, Note_off_c, 0, 79, 64
2, 404160, Note_on_c, 0, 67, 75
2, 404252, Note_off_c, 0, 67, 64
2, 404256, Note_on_c, 0, 79, 75
2, 404348, Note_off_c, 0, 79, 64
2, 404352, Note_on_c, 0, 70, 75
2, 404444, Note_off_c, 0, 70, 64
2, 404448, Note_on_c, 0, 82, 79
2, 404540, Note_off_c, 0, 82, 64
2, 404544, Note_on_c, 0, 70, 75
2, 404636, Note_off_c, 0, 70, 64
2, 404640, Note_on_c, 0, 82, 79
2, 404732, Note_off_c, 0, 82, 64
2, 404736, Note_on_c, 0, 74, 75
2, 404828, Note_off_c, 0, 74, 64
2, 404832, Note_on_c, 0, 86, 81
2, 404924, Note_off_c, 0, 86, 64
2, 404928, Note_on_c, 0, 74, 75
2, 405020, Note_off_c, 0, 74, 64
2, 405024, Note_on_c, 0, 86, 81
2, 405116, Note_off_c, 0, 86, 64
2, 405120, Note_on_c, 0, 64, 75
2, 405212, Note_off_c, 0, 64, 64
2, 405216, Note_on_c, 0, 76, 75
2, 405308, Note_off_c, 0, 76, 64
2, 405312, Note_on_c, 0, 64, 75
2, 405404, Note_off_c, 0, 64, 64
2, 405408, Note_on_c, 0, 76, 75
2, 405500, Note_off_c, 0, 76, 64
2, 405504, Note_on_c, 0, 65, 75
2, 405596, Note_off_c, 0, 65, 64
2, 405600, Note_on_c, 0, 77, 75
2, 405692, Note_off_c, 0, 77, 64
2, 405696, Note_on_c, 0, 65, 75
2, 405788, Note_off_c, 0, 65, 64
2, 405792, Note_on_c, 0, 77, 75
2, 405884, Note_off_c, 0, 77, 64
2, 405888, Note_on_c, 0, 66, 75
2, 405980, Note_off_c, 0, 66, 64
2, 405984, Note_on_c, 0, 78, 75
2, 406076, Note_off_c, 0, 78, 64
2, 406080, Note_on_c, 0, 66, 75
2, 406172, Note_off_c, 0, 66, 64
2, 406176, Note_on_c, 0, 78, 75
2, 406268, Note_off_c, 0, 78, 64
2, 406272, Note_on_c, 0, 67, 75
2, 406364, Note_off_c, 0, 67, 64
2, 406368, Note_on_c, 0, 79, 75
2, 406460, Note_off_c, 0, 79, 64
2, 406464, Note_on_c, 0, 67, 75
2, 406556, Note_off_c, 0, 67, 64
2, 406560, Note_on_c, 0, 79, 75
2, 406652, Note_off_c, 0, 79, 64
2, 406656, Note_on_c, 0, 68, 75
2, 406748, Note_off_c, 0, 68, 64
2, 406752, Note_on_c, 0, 80, 75
2, 406844, Note_off_c, 0, 80, 64
2, 406848, Note_on_c, 0, 68, 75
2, 406940, Note_off_c, 0, 68, 64
2, 406944, Note_on_c, 0, 80, 75
2, 407036, Note_off_c, 0, 80, 64
2, 407040, Note_on_c, 0, 69, 75
2, 407132, Note_off_c, 0, 69, 64
2, 407136, Note_on_c, 0, 81, 78
2, 407228, Note_off_c, 0, 81, 64
2, 407232, Note_on_c, 0, 69, 75
2, 407324, Note_off_c, 0, 69, 64
2, 407328, Note_on_c, 0, 81, 78
2, 407420, Note_off_c, 0, 81, 64
2, 407424, Note_on_c, 0, 72, 75
2, 407516, Note_off_c, 0, 72, 64
2, 407520, Note_on_c, 0, 84, 80
2, 407612, Note_off_c, 0, 84, 64
2, 407616, Note_on_c, 0, 72, 75
2, 407708, Note_off_c, 0, 72, 64
2, 407712, Note_on_c, 0, 84, 80
2, 407804, Note_off_c, 0, 84, 64
2, 407808, Note_on_c, 0, 76, 75
2, 407900, Note_off_c, 0, 76, 64
2, 407904, Note_on_c, 0, 88, 82
2, 407996, Note_off_c, 0, 88, 64
2, 408000, Note_on_c, 0, 76, 75
2, 408092, Note_off_c, 0, 76, 64
2, 408096, Note_on_c, 0, 88, 82
2, 408188, Note_off_c, 0, 88, 64
2, 408192, Note_on_c, 0, 69, 75
2, 408284, Note_off_c, 0, 69, 64
2, 408288, Note_on_c, 0, 81, 78
2, 408380, Note_off_c, 0, 81, 64
2, 408384, Note_on_c, 0, 69, 75
2, 408476, Note_off_c, 0, 69, 64
2, 408480, Note_on_c, 0, 81, 78
2, 408572, Note_off_c, 0, 81, 64
2, 408576, Note_on_c, 0, 70, 75
2, 408668, Note_off_c, 0, 70, 64
2, 408672, Note_on_c, 0, 82, 79
2, 408764, Note_off_c, 0, 82, 64
2, 408768, Note_on_c, 0, 70, 75
2, 408860, Note_off_c, 0, 70, 64
2, 408864, Note_on_c, 0, 82, 79
2, 408956, Note_off_c, 0, 82, 64
2, 408960, Note_on_c, 0, 71, 75
2, 409052, Note_off_c, 0, 71, 64
2, 409056, Note_on_c, 0, 83, 79
2, 409148, Note_off_c, 0, 83, 64
2, 409152, Note_on_c, 0, 71, 75
2, 409244, Note_off_c, 0, 71, 64
2, 409248, Note_on_c, 0, 83, 79
2, 409340, Note_off_c, 0, 83, 64
2, 409344, Note_on_c, 0, 72, 75
2, 409436, Note_off_c, 0, 72, 64
2, 409440, Note_on_c, 0, 84, 80
2, 409532, Note_off_c, 0, 84, 64
2, 409536, Note_on_c, 0, 72, 75
2, 409628, Note_off_c, 0, 72, 64
2, 409632, Note_on_c, 0, 84, 80
2, 409724, Note_off_c, 0, 84, 64
2, 409728, Note_on_c, 0, 73, 75
2, 409820, Note_off_c, 0, 73, 64
2, 409824, Note_on_c, 0, 85, 80
2, 409916, Note_off_c, 0, 85, 64
2, 409920, Note_on_c, 0, 73, 75
2, 410012, Note_off_c, 0, 73, 64
2, 410016, Note_on_c, 0, 85, 80
2, 410108, Note_off_c, 0, 85, 64
2, 410112, Note_on_c, 0, 74, 75
2, 410204, Note_off_c, 0, 74, 64
2, 410208, Note_on_c, 0, 76, 75
2, 410300, Note_off_c, 0, 76, 64
2, 410304, Note_on_c, 0, 77, 75
2, 410396, Note_off_c, 0, 77, 64
2, 410400, Note_on_c, 0, 79, 76
2, 410492, Note_off_c, 0, 79, 64
2, 410496, Note_on_c, 0, 81, 78
2, 410588, Note_off_c, 0, 81, 64
2, 410592, Note_on_c, 0, 83, 79
2, 410684, Note_off_c, 0, 83, 64
2, 410688, Note_on_c, 0, 85, 80
2, 410780, Note_off_c, 0, 85, 64
2, 410784, Note_on_c, 0, 86, 81
2, 410876, Note_off_c, 0, 86, 64
2, 410880, Note_on_c, 0, 85, 80
2, 410972, Note_off_c, 0, 85, 64
2, 410976, Note_on_c, 0, 86, 81
2, 411068, Note_off_c, 0, 86, 64
2, 411072, Note_on_c, 0, 88, 82
2, 411164, Note_off_c, 0, 88, 64
2, 411168, Note_on_c, 0, 86, 81
2, 411260, Note_off_c, 0, 86, 64
2, 411264, Note_on_c, 0, 84, 80
2, 411356, Note_off_c, 0, 84, 64
2, 411360, Note_on_c, 0, 82, 79
2, 411452, Note_off_c, 0, 82, 64
2, 411456, Note_on_c, 0, 81, 78
2, 411548, Note_off_c, 0, 81, 64
2, 411552, Note_on_c, 0, 79, 75
2, 411644, Note_off_c, 0, 79, 64
2, 411648, Note_on_c, 0, 77, 75
2, 411740, Note_off_c, 0, 77, 64
2, 411744, Note_on_c, 0, 79, 76
2, 411836, Note_off_c, 0, 79, 64
2, 411840, Note_on_c, 0, 81, 78
2, 411932, Note_off_c, 0, 81, 64
2, 411936, Note_on_c, 0, 77, 75
2, 412028, Note_off_c, 0, 77, 64
2, 412032, Note_on_c, 0, 76, 75
2, 412124, Note_off_c, 0, 76, 64
2, 412128, Note_on_c, 0, 77, 75
2, 412220, Note_off_c, 0, 77, 64
2, 412224, Note_on_c, 0, 79, 76
2, 412316, Note_off_c, 0, 79, 64
2, 412320, Note_on_c, 0, 76, 75
2, 412412, Note_off_c, 0, 76, 64
2, 412416, Note_on_c, 0, 74, 75
2, 412508, Note_off_c, 0, 74, 64
2, 412512, Note_on_c, 0, 76, 75
2, 412604, Note_off_c, 0, 76, 64
2, 412608, Note_on_c, 0, 77, 75
2, 412700, Note_off_c, 0, 77, 64
2, 412704, Note_on_c, 0, 74, 75
2, 412796, Note_off_c, 0, 74, 64
2, 412800, Note_on_c, 0, 73, 75
2, 412892, Note_off_c, 0, 73, 64
2, 412896, Note_on_c, 0, 74, 75
2, 412988, Note_off_c, 0, 74, 64
2, 412992, Note_on_c, 0, 76, 75
2, 413084, Note_off_c, 0, 76, 64
2, 413088, Note_on_c, 0, 73, 75
2, 413180, Note_off_c, 0, 73, 64
2, 413184, Note_on_c, 0, 74, 75
2, 413564, Note_off_c, 0, 74, 64
2, 413760, Note_on_c, 0, 57, 94
2, 413824, Note_off_c, 0, 57, 64
2, 413824, Note_on_c, 0, 59, 94
2, 413888, Note_off_c, 0, 59, 64
2, 413888, Note_on_c, 0, 61, 94
2, 413952, Note_off_c, 0, 61, 64
2, 413952, Note_on_c, 0, 62, 94
2, 414332, Note_off_c, 0, 62, 64
2, 415296, Note_on_c, 0, 69, 94
2, 415360, Note_off_c, 0, 69, 64
2, 415360, Note_on_c, 0, 71, 94
2, 415424, Note_off_c, 0, 71, 64
2, 415424, Note_on_c, 0, 73, 94
2, 415488, Note_off_c, 0, 73, 64
2, 415488, Note_on_c, 0, 74, 94
2, 415868, Note_off_c, 0, 74, 64
2, 416064, Note_on_c, 0, 81, 95
2, 416128, Note_off_c, 0, 81, 64
2, 416128, Note_on_c, 0, 83, 96
2, 416192, Note_off_c, 0, 83, 64
2, 416192, Note_on_c, 0, 85, 97
2, 416256, Note_off_c, 0, 85, 64
2, 416256, Note_on_c, 0, 86, 98
2, 416636, Note_off_c, 0, 86, 64
2, 416640, Note_on_c, 0, 81, 94
2, 416640, Note_on_c, 0, 69, 94
2, 416828, Note_off_c, 0, 81, 64
2, 416828, Note_off_c, 0, 69, 64
2, 417024, Note_on_c, 0, 77, 94
2, 417024, Note_on_c, 0, 65, 94
2, 417212, Note_off_c, 0, 77, 64
2, 417212, Note_off_c, 0, 65, 64
2, 417408, Note_on_c, 0, 74, 94
2, 417408, Note_on_c, 0, 62, 94
2, 417596, Note_off_c, 0, 74, 64
2, 417596, Note_off_c, 0, 62, 64
2, 417792, Note_on_c, 0, 61, 94
2, 417792, Note_on_c, 0, 55, 94
2, 417884, Note_off_c, 0, 55, 64
2, 417888, Note_on_c, 0, 58, 94
2, 417980, Note_off_c, 0, 58, 64
2, 417984, Note_on_c, 0, 55, 94
2, 418076, Note_off_c, 0, 55, 64
2, 418080, Note_on_c, 0, 58, 94
2, 418172, Note_off_c, 0, 58, 64
2, 418176, Note_on_c, 0, 55, 94
2, 418268, Note_off_c, 0, 55, 64
2, 418272, Note_on_c, 0, 58, 94
2, 418364, Note_off_c, 0, 58, 64
2, 418368, Note_on_c, 0, 55, 94
2, 418460, Note_off_c, 0, 55, 64
2, 418464, Note_on_c, 0, 58, 94
2, 418556, Note_off_c, 0, 61, 64
2, 418556, Note_off_c, 0, 58, 64
2, 418560, Note_on_c, 0, 55, 94
2, 418652, Note_off_c, 0, 55, 64
2, 418656, Note_on_c, 0, 58, 94
2, 418748, Note_off_c, 0, 58, 64
2, 418752, Note_on_c, 0, 55, 94
2, 418844, Note_off_c, 0, 55, 64
2, 418848, Note_on_c, 0, 58, 94
2, 418940, Note_off_c, 0, 58, 64
2, 419136, Note_on_c, 0, 76, 94
2, 419176, Note_off_c, 0, 76, 64
2, 419184, Note_on_c, 0, 77, 95
2, 419224, Note_off_c, 0, 77, 64
2, 419232, Note_on_c, 0, 79, 96
2, 419272, Note_off_c, 0, 79, 64
2, 419280, Note_on_c, 0, 81, 97
2, 419320, Note_off_c, 0, 81, 64
2, 419328, Note_on_c, 0, 82, 98
2, 419708, Note_off_c, 0, 82, 64
2, 419712, Note_on_c, 0, 77, 95
2, 419712, Note_on_c, 0, 65, 96
2, 419900, Note_off_c, 0, 77, 64
2, 419900, Note_off_c, 0, 65, 64
2, 420096, Note_on_c, 0, 74, 94
2, 420096, Note_on_c, 0, 62, 97
2, 420284, Note_off_c, 0, 74, 64
2, 420284, Note_off_c, 0, 62, 64
2, 420480, Note_on_c, 0, 70, 94
2, 420480, Note_on_c, 0, 58, 98
2, 420668, Note_off_c, 0, 70, 64
2, 420668, Note_off_c, 0, 58, 64
2, 420864, Note_on_c, 0, 69, 94
2, 420864, Note_on_c, 0, 57, 99
2, 421436, Note_off_c, 0, 69, 64
2, 421436, Note_off_c, 0, 57, 64
2, 421440, Note_on_c, 0, 70, 94
2, 421440, Note_on_c, 0, 58, 98
2, 421628, Note_off_c, 0, 70, 64
2, 421628, Note_off_c, 0, 58, 64
2, 421632, Note_on_c, 0, 69, 94
2, 421632, Note_on_c, 0, 57, 99
2, 421820, Note_off_c, 0, 69, 64
2, 421820, Note_off_c, 0, 57, 64
2, 421824, Note_on_c, 0, 68, 94
2, 421824, Note_on_c, 0, 56, 100
2, 422012, Note_off_c, 0, 68, 64
2, 422012, Note_off_c, 0, 56, 64
2, 422016, Note_on_c, 0, 69, 94
2, 422016, Note_on_c, 0, 57, 99
2, 422204, Note_off_c, 0, 69, 64
2, 422204, Note_off_c, 0, 57, 64
2, 422208, Note_on_c, 0, 68, 94
2, 422208, Note_on_c, 0, 56, 99
2, 422396, Note_off_c, 0, 68, 64
2, 422396, Note_off_c, 0, 56, 64
2, 422400, Note_on_c, 0, 69, 94
2, 422400, Note_on_c, 0, 57, 99
2, 422972, Note_off_c, 0, 69, 64
2, 422972, Note_off_c, 0, 57, 64
2, 422976, Note_on_c, 0, 70, 94
2, 422976, Note_on_c, 0, 58, 94
2, 423164, Note_off_c, 0, 70, 64
2, 423164, Note_off_c, 0, 58, 64
2, 423168, Note_on_c, 0, 69, 94
2, 423168, Note_on_c, 0, 57, 94
2, 423356, Note_off_c, 0, 69, 64
2, 423356, Note_off_c, 0, 57, 64
2, 423360, Note_on_c, 0, 68, 94
2, 423360, Note_on_c, 0, 56, 94
2, 423548, Note_off_c, 0, 68, 64
2, 423548, Note_off_c, 0, 56, 64
2, 423552, Note_on_c, 0, 69, 94
2, 423552, Note_on_c, 0, 57, 94
2, 423740, Note_off_c, 0, 69, 64
2, 423740, Note_off_c, 0, 57, 64
2, 423744, Note_on_c, 0, 68, 94
2, 423744, Note_on_c, 0, 56, 94
2, 423932, Note_off_c, 0, 68, 64
2, 423932, Note_off_c, 0, 56, 64
2, 423936, Note_on_c, 0, 69, 94
2, 423936, Note_on_c, 0, 57, 94
2, 424124, Note_off_c, 0, 69, 64
2, 424124, Note_off_c, 0, 57, 64
2, 424128, Note_on_c, 0, 64, 71
2, 424128, Note_on_c, 0, 61, 71
2, 424508, Note_off_c, 0, 64, 64
2, 424508, Note_off_c, 0, 61, 64
2, 424512, Note_on_c, 0, 62, 71
2, 424512, Note_on_c, 0, 59, 71
2, 424700, Note_off_c, 0, 62, 64
2, 424700, Note_off_c, 0, 59, 64
2, 424704, Note_on_c, 0, 61, 71
2, 424704, Note_on_c, 0, 57, 71
2, 424892, Note_off_c, 0, 61, 64
2, 424892, Note_off_c, 0, 57, 64
2, 424896, Note_on_c, 0, 67, 71
2, 424896, Note_on_c, 0, 64, 71
2, 425276, Note_off_c, 0, 67, 64
2, 425276, Note_off_c, 0, 64, 64
2, 425280, Note_on_c, 0, 65, 71
2, 425280, Note_on_c, 0, 62, 71
2, 425468, Note_off_c, 0, 65, 64
2, 425468, Note_off_c, 0, 62, 64
2, 425472, Note_on_c, 0, 64, 71
2, 425472, Note_on_c, 0, 61, 71
2, 425660, Note_off_c, 0, 64, 64
2, 425660, Note_off_c, 0, 61, 64
2, 425664, Note_on_c, 0, 76, 71
2, 425664, Note_on_c, 0, 73, 71
2, 425664, Note_on_c, 0, 70, 71
2, 425664, Note_on_c, 0, 67, 71
2, 426044, Note_off_c, 0, 76, 64
2, 426044, Note_off_c, 0, 73, 64
2, 426044, Note_off_c, 0, 70, 64
2, 426044, Note_off_c, 0, 67, 64
2, 426048, Note_on_c, 0, 77, 73
2, 426048, Note_on_c, 0, 74, 71
2, 426048, Note_on_c, 0, 69, 71
2, 426048, Note_on_c, 0, 65, 71
2, 426236, Note_off_c, 0, 77, 64
2, 426236, Note_off_c, 0, 74, 64
2, 426236, Note_off_c, 0, 69, 64
2, 426236, Note_off_c, 0, 65, 64
2, 426240, Note_on_c, 0, 79, 76
2, 426240, Note_on_c, 0, 76, 71
2, 426240, Note_on_c, 0, 67, 71
2, 426240, Note_on_c, 0, 64, 71
2, 426428, Note_off_c, 0, 79, 64
2, 426428, Note_off_c, 0, 76, 64
2, 426428, Note_off_c, 0, 67, 64
2, 426428, Note_off_c, 0, 64, 64
2, 426432, Note_on_c, 0, 76, 76
2, 426432, Note_on_c, 0, 79, 71
2, 426812, Note_off_c, 0, 76, 64
2, 426812, Note_off_c, 0, 79, 64
2, 426816, Note_on_c, 0, 77, 78
2, 426816, Note_on_c, 0, 81, 71
2, 427004, Note_off_c, 0, 77, 64
2, 427004, Note_off_c, 0, 81, 64
2, 427136, Note_on_c, 0, 67, 75
2, 427260, Note_off_c, 0, 67, 64
2, 427264, Note_on_c, 0, 73, 75
2, 427388, Note_off_c, 0, 73, 64
2, 427392, Note_on_c, 0, 76, 75
2, 427516, Note_off_c, 0, 76, 64
2, 427520, Note_on_c, 0, 79, 76
2, 427644, Note_off_c, 0, 79, 64
2, 427648, Note_on_c, 0, 85, 80
2, 427772, Note_off_c, 0, 85, 64
2, 427776, Note_on_c, 0, 88, 82
2, 427900, Note_off_c, 0, 88, 64
2, 427904, Note_on_c, 0, 85, 80
2, 428028, Note_off_c, 0, 85, 64
2, 428032, Note_on_c, 0, 79, 76
2, 428156, Note_off_c, 0, 79, 64
2, 428160, Note_on_c, 0, 76, 75
2, 428284, Note_off_c, 0, 76, 64
2, 428288, Note_on_c, 0, 73, 75
2, 428412, Note_off_c, 0, 73, 64
2, 428416, Note_on_c, 0, 67, 75
2, 428540, Note_off_c, 0, 67, 64
2, 428672, Note_on_c, 0, 69, 75
2, 428796, Note_off_c, 0, 69, 64
2, 428800, Note_on_c, 0, 74, 75
2, 428924, Note_off_c, 0, 74, 64
2, 428928, Note_on_c, 0, 77, 75
2, 429052, Note_off_c, 0, 77, 64
2, 429056, Note_on_c, 0, 81, 78
2, 429180, Note_off_c, 0, 81, 64
2, 429184, Note_on_c, 0, 86, 81
2, 429308, Note_off_c, 0, 86, 64
2, 429312, Note_on_c, 0, 89, 83
2, 429436, Note_off_c, 0, 89, 64
2, 429440, Note_on_c, 0, 86, 81
2, 429564, Note_off_c, 0, 86, 64
2, 429568, Note_on_c, 0, 81, 78
2, 429692, Note_off_c, 0, 81, 64
2, 429696, Note_on_c, 0, 77, 75
2, 429820, Note_off_c, 0, 77, 64
2, 429824, Note_on_c, 0, 74, 75
2, 429948, Note_off_c, 0, 74, 64
2, 429952, Note_on_c, 0, 69, 75
2, 430076, Note_off_c, 0, 69, 64
2, 430208, Note_on_c, 0, 79, 76
2, 430332, Note_off_c, 0, 79, 64
2, 430336, Note_on_c, 0, 81, 78
2, 430460, Note_off_c, 0, 81, 64
2, 430464, Note_on_c, 0, 88, 82
2, 430588, Note_off_c, 0, 88, 64
2, 430592, Note_on_c, 0, 81, 78
2, 430716, Note_off_c, 0, 81, 64
2, 430720, Note_on_c, 0, 79, 76
2, 430844, Note_off_c, 0, 79, 64
2, 430976, Note_on_c, 0, 77, 75
2, 431100, Note_off_c, 0, 77, 64
2, 431104, Note_on_c, 0, 81, 78
2, 431228, Note_off_c, 0, 81, 64
2, 431232, Note_on_c, 0, 86, 81
2, 431356, Note_off_c, 0, 86, 64
2, 431360, Note_on_c, 0, 81, 78
2, 431484, Note_off_c, 0, 81, 64
2, 431488, Note_on_c, 0, 77, 75
2, 431612, Note_off_c, 0, 77, 64
2, 431616, Note_on_c, 0, 85, 80
2, 431616, Note_on_c, 0, 76, 78
2, 431616, Note_on_c, 0, 81, 75
2, 431996, Note_off_c, 0, 85, 64
2, 431996, Note_off_c, 0, 76, 64
2, 431996, Note_off_c, 0, 81, 64
2, 432768, Note_on_c, 0, 85, 80
2, 432768, Note_on_c, 0, 81, 78
2, 432768, Note_on_c, 0, 76, 75
2, 433148, Note_off_c, 0, 85, 64
2, 433148, Note_off_c, 0, 81, 64
2, 433148, Note_off_c, 0, 76, 64
2, 433152, Note_on_c, 0, 86, 81
2, 433152, Note_on_c, 0, 81, 79
2, 433152, Note_on_c, 0, 77, 75
2, 433532, Note_off_c, 0, 86, 64
2, 433532, Note_off_c, 0, 81, 64
2, 433532, Note_off_c, 0, 77, 64
2, 434304, Note_on_c, 0, 86, 81
2, 434304, Note_on_c, 0, 81, 79
2, 434304, Note_on_c, 0, 77, 75
2, 434684, Note_off_c, 0, 86, 64
2, 434684, Note_off_c, 0, 81, 64
2, 434684, Note_off_c, 0, 77, 64
2, 434688, Note_on_c, 0, 85, 80
2, 434688, Note_on_c, 0, 81, 78
2, 434688, Note_on_c, 0, 76, 75
2, 435068, Note_off_c, 0, 85, 64
2, 435068, Note_off_c, 0, 81, 64
2, 435068, Note_off_c, 0, 76, 64
2, 435840, Note_on_c, 0, 85, 80
2, 435840, Note_on_c, 0, 81, 78
2, 435840, Note_on_c, 0, 76, 75
2, 436220, Note_off_c, 0, 85, 64
2, 436220, Note_off_c, 0, 81, 64
2, 436220, Note_off_c, 0, 76, 64
2, 436224, Note_on_c, 0, 86, 81
2, 436224, Note_on_c, 0, 81, 79
2, 436224, Note_on_c, 0, 77, 75
2, 436604, Note_off_c, 0, 86, 64
2, 436604, Note_off_c, 0, 81, 64
2, 436604, Note_off_c, 0, 77, 64
2, 437376, Note_on_c, 0, 86, 81
2, 437376, Note_on_c, 0, 81, 79
2, 437376, Note_on_c, 0, 77, 75
2, 437756, Note_off_c, 0, 86, 64
2, 437756, Note_off_c, 0, 81, 64
2, 437756, Note_off_c, 0, 77, 64
2, 437760, Note_on_c, 0, 85, 80
2, 437760, Note_on_c, 0, 81, 78
2, 437760, Note_on_c, 0, 76, 75
2, 438140, Note_off_c, 0, 85, 64
2, 438140, Note_off_c, 0, 81, 64
2, 438140, Note_off_c, 0, 76, 64
2, 438336, Note_on_c, 0, 85, 96
2, 438336, Note_on_c, 0, 81, 95
2, 438336, Note_on_c, 0, 76, 94
2, 438524, Note_off_c, 0, 85, 64
2, 438524, Note_off_c, 0, 81, 64
2, 438524, Note_off_c, 0, 76, 64
2, 438528, Note_on_c, 0, 86, 96
2, 438528, Note_on_c, 0, 81, 95
2, 438528, Note_on_c, 0, 77, 94
2, 438908, Note_off_c, 0, 86, 64
2, 438908, Note_off_c, 0, 81, 64
2, 438908, Note_off_c, 0, 77, 64
2, 439104, Note_on_c, 0, 86, 96
2, 439104, Note_on_c, 0, 81, 95
2, 439104, Note_on_c, 0, 77, 94
2, 439292, Note_off_c, 0, 86, 64
2, 439292, Note_off_c, 0, 81, 64
2, 439292, Note_off_c, 0, 77, 64
2, 439296, Note_on_c, 0, 85, 96
2, 439296, Note_on_c, 0, 81, 95
2, 439296, Note_on_c, 0, 76, 94
2, 439676, Note_off_c, 0, 85, 64
2, 439676, Note_off_c, 0, 81, 64
2, 439676, Note_off_c, 0, 76, 64
2, 439872, Note_on_c, 0, 85, 96
2, 439872, Note_on_c, 0, 81, 95
2, 439872, Note_on_c, 0, 76, 94
2, 440060, Note_off_c, 0, 85, 64
2, 440060, Note_off_c, 0, 81, 64
2, 440060, Note_off_c, 0, 76, 64
2, 440064, Note_on_c, 0, 86, 96
2, 440064, Note_on_c, 0, 81, 95
2, 440064, Note_on_c, 0, 77, 94
2, 440444, Note_off_c, 0, 86, 64
2, 440444, Note_off_c, 0, 81, 64
2, 440444, Note_off_c, 0, 77, 64
2, 440640, Note_on_c, 0, 86, 96
2, 440640, Note_on_c, 0, 81, 95
2, 440640, Note_on_c, 0, 77, 94
2, 440828, Note_off_c, 0, 86, 64
2, 440828, Note_off_c, 0, 81, 64
2, 440828, Note_off_c, 0, 77, 64
2, 440832, Note_on_c, 0, 85, 96
2, 440832, Note_on_c, 0, 81, 95
2, 440832, Note_on_c, 0, 76, 94
2, 441212, Note_off_c, 0, 85, 64
2, 441212, Note_off_c, 0, 81, 64
2, 441212, Note_off_c, 0, 76, 64
2, 444096, Note_on_c, 0, 72, 75
2, 444284, Note_off_c, 0, 72, 64
2, 444288, Note_on_c, 0, 84, 80
2, 444476, Note_off_c, 0, 84, 64
2, 444480, Note_on_c, 0, 84, 80
2, 444572, Note_off_c, 0, 84, 64
2, 444672, Note_on_c, 0, 84, 80
2, 444860, Note_off_c, 0, 84, 64
2, 444864, Note_on_c, 0, 76, 75
2, 445052, Note_off_c, 0, 76, 64
2, 445056, Note_on_c, 0, 76, 75
2, 445244, Note_off_c, 0, 76, 64
2, 445248, Note_on_c, 0, 77, 75
2, 445436, Note_off_c, 0, 77, 64
2, 447168, Note_on_c, 0, 74, 75
2, 447356, Note_off_c, 0, 74, 64
2, 447360, Note_on_c, 0, 86, 81
2, 447548, Note_off_c, 0, 86, 64
2, 447552, Note_on_c, 0, 86, 81
2, 447644, Note_off_c, 0, 86, 64
2, 447744, Note_on_c, 0, 86, 81
2, 447932, Note_off_c, 0, 86, 64
2, 447936, Note_on_c, 0, 78, 75
2, 448124, Note_off_c, 0, 78, 64
2, 448128, Note_on_c, 0, 78, 75
2, 448316, Note_off_c, 0, 78, 64
2, 448320, Note_on_c, 0, 79, 75
2, 448508, Note_off_c, 0, 79, 64
2, 450240, Note_on_c, 0, 76, 75
2, 450428, Note_off_c, 0, 76, 64
2, 450432, Note_on_c, 0, 88, 75
2, 450620, Note_off_c, 0, 88, 64
2, 450624, Note_on_c, 0, 88, 82
2, 450716, Note_off_c, 0, 88, 64
2, 450816, Note_on_c, 0, 88, 82
2, 451004, Note_off_c, 0, 88, 64
2, 451008, Note_on_c, 0, 80, 75
2, 451196, Note_off_c, 0, 80, 64
2, 451200, Note_on_c, 0, 80, 75
2, 451388, Note_off_c, 0, 80, 64
2, 451392, Note_on_c, 0, 81, 75
2, 451580, Note_off_c, 0, 81, 64
2, 451584, Note_on_c, 0, 84, 80
2, 451868, Note_off_c, 0, 84, 64
2, 451872, Note_on_c, 0, 82, 88
2, 451964, Note_off_c, 0, 82, 64
2, 451968, Note_on_c, 0, 86, 81
2, 452540, Note_off_c, 0, 86, 64
2, 452544, Note_on_c, 0, 84, 80
2, 452636, Note_off_c, 0, 84, 64
2, 452640, Note_on_c, 0, 82, 79
2, 452732, Note_off_c, 0, 82, 64
2, 452736, Note_on_c, 0, 81, 78
2, 452924, Note_off_c, 0, 81, 64
2, 452928, Note_on_c, 0, 79, 76
2, 453020, Note_off_c, 0, 79, 64
2, 453120, Note_on_c, 0, 82, 79
2, 453404, Note_off_c, 0, 82, 64
2, 453408, Note_on_c, 0, 81, 88
2, 453500, Note_off_c, 0, 81, 64
2, 453504, Note_on_c, 0, 84, 80
2, 454076, Note_off_c, 0, 84, 64
2, 454080, Note_on_c, 0, 82, 79
2, 454172, Note_off_c, 0, 82, 64
2, 454176, Note_on_c, 0, 81, 78
2, 454268, Note_off_c, 0, 81, 64
2, 454272, Note_on_c, 0, 79, 76
2, 454460, Note_off_c, 0, 79, 64
2, 454464, Note_on_c, 0, 77, 75
2, 454556, Note_off_c, 0, 77, 64
2, 454656, Note_on_c, 0, 81, 78
2, 454844, Note_off_c, 0, 81, 64
2, 454848, Note_on_c, 0, 79, 76
2, 455228, Note_off_c, 0, 79, 64
2, 455232, Note_on_c, 0, 87, 81
2, 455612, Note_off_c, 0, 87, 64
2, 455616, Note_on_c, 0, 88, 82
2, 455996, Note_off_c, 0, 88, 64
2, 456000, Note_on_c, 0, 76, 74
2, 456188, Note_off_c, 0, 76, 64
2, 456192, Note_on_c, 0, 79, 76
2, 456380, Note_off_c, 0, 79, 64
2, 456384, Note_on_c, 0, 77, 75
2, 456764, Note_off_c, 0, 77, 64
2, 456768, Note_on_c, 0, 85, 80
2, 457148, Note_off_c, 0, 85, 64
2, 457152, Note_on_c, 0, 86, 81
2, 457532, Note_off_c, 0, 86, 64
2, 457536, Note_on_c, 0, 74, 73
2, 457724, Note_off_c, 0, 74, 64
2, 457728, Note_on_c, 0, 75, 75
2, 457916, Note_off_c, 0, 75, 64
2, 457920, Note_on_c, 0, 76, 75
2, 458300, Note_off_c, 0, 76, 64
2, 458304, Note_on_c, 0, 79, 76
2, 458684, Note_off_c, 0, 79, 64
2, 458688, Note_on_c, 0, 82, 79
2, 459068, Note_off_c, 0, 82, 64
2, 459072, Note_on_c, 0, 74, 73
2, 459260, Note_off_c, 0, 74, 64
2, 459264, Note_on_c, 0, 73, 75
2, 459356, Note_off_c, 0, 73, 64
2, 459360, Note_on_c, 0, 76, 75
2, 459452, Note_off_c, 0, 76, 64
2, 459456, Note_on_c, 0, 81, 78
2, 459548, Note_off_c, 0, 81, 64
2, 459552, Note_on_c, 0, 80, 76
2, 459644, Note_off_c, 0, 80, 64
2, 459648, Note_on_c, 0, 81, 78
2, 459740, Note_off_c, 0, 81, 64
2, 459744, Note_on_c, 0, 79, 76
2, 459836, Note_off_c, 0, 79, 64
2, 459840, Note_on_c, 0, 77, 75
2, 459932, Note_off_c, 0, 77, 64
2, 459936, Note_on_c, 0, 76, 75
2, 460028, Note_off_c, 0, 76, 64
2, 460032, Note_on_c, 0, 77, 75
2, 460124, Note_off_c, 0, 77, 64
2, 460128, Note_on_c, 0, 79, 76
2, 460220, Note_off_c, 0, 79, 64
2, 460224, Note_on_c, 0, 80, 76
2, 460316, Note_off_c, 0, 80, 64
2, 460320, Note_on_c, 0, 81, 78
2, 460412, Note_off_c, 0, 81, 64
2, 460416, Note_on_c, 0, 79, 76
2, 460508, Note_off_c, 0, 79, 64
2, 460512, Note_on_c, 0, 77, 75
2, 460604, Note_off_c, 0, 77, 64
2, 460608, Note_on_c, 0, 76, 75
2, 460700, Note_off_c, 0, 76, 64
2, 460704, Note_on_c, 0, 74, 75
2, 460796, Note_off_c, 0, 74, 64
2, 460800, Note_on_c, 0, 73, 75
2, 460892, Note_off_c, 0, 73, 64
2, 460896, Note_on_c, 0, 76, 75
2, 460988, Note_off_c, 0, 76, 64
2, 460992, Note_on_c, 0, 81, 78
2, 461084, Note_off_c, 0, 81, 64
2, 461088, Note_on_c, 0, 80, 76
2, 461180, Note_off_c, 0, 80, 64
2, 461184, Note_on_c, 0, 81, 78
2, 461276, Note_off_c, 0, 81, 64
2, 461280, Note_on_c, 0, 79, 76
2, 461372, Note_off_c, 0, 79, 64
2, 461376, Note_on_c, 0, 77, 75
2, 461468, Note_off_c, 0, 77, 64
2, 461472, Note_on_c, 0, 76, 75
2, 461564, Note_off_c, 0, 76, 64
2, 461568, Note_on_c, 0, 77, 75
2, 461660, Note_off_c, 0, 77, 64
2, 461664, Note_on_c, 0, 79, 76
2, 461756, Note_off_c, 0, 79, 64
2, 461760, Note_on_c, 0, 80, 76
2, 461852, Note_off_c, 0, 80, 64
2, 461856, Note_on_c, 0, 81, 78
2, 461948, Note_off_c, 0, 81, 64
2, 461952, Note_on_c, 0, 79, 76
2, 462044, Note_off_c, 0, 79, 64
2, 462048, Note_on_c, 0, 77, 75
2, 462140, Note_off_c, 0, 77, 64
2, 462144, Note_on_c, 0, 76, 75
2, 462236, Note_off_c, 0, 76, 64
2, 462240, Note_on_c, 0, 74, 75
2, 462332, Note_off_c, 0, 74, 64
2, 462336, Note_on_c, 0, 73, 75
2, 462428, Note_off_c, 0, 73, 64
2, 462432, Note_on_c, 0, 74, 75
2, 462524, Note_off_c, 0, 74, 64
2, 462528, Note_on_c, 0, 76, 75
2, 462620, Note_off_c, 0, 76, 64
2, 462624, Note_on_c, 0, 74, 75
2, 462716, Note_off_c, 0, 74, 64
2, 462720, Note_on_c, 0, 73, 75
2, 462812, Note_off_c, 0, 73, 64
2, 462832, Note_on_c, 0, 70, 75
2, 462912, Note_on_c, 0, 69, 75
2, 462924, Note_off_c, 0, 70, 64
2, 463004, Note_off_c, 0, 69, 64
2, 463008, Note_on_c, 0, 67, 75
2, 463100, Note_off_c, 0, 67, 64
2, 463104, Note_on_c, 0, 65, 75
2, 463196, Note_off_c, 0, 65, 64
2, 463200, Note_on_c, 0, 67, 75
2, 463292, Note_off_c, 0, 67, 64
2, 463296, Note_on_c, 0, 68, 75
2, 463388, Note_off_c, 0, 68, 64
2, 463392, Note_on_c, 0, 69, 75
2, 463484, Note_off_c, 0, 69, 64
2, 463488, Note_on_c, 0, 67, 75
2, 463580, Note_off_c, 0, 67, 64
2, 463584, Note_on_c, 0, 65, 75
2, 463676, Note_off_c, 0, 65, 64
2, 463680, Note_on_c, 0, 64, 75
2, 463772, Note_off_c, 0, 64, 64
2, 463776, Note_on_c, 0, 62, 75
2, 463868, Note_off_c, 0, 62, 64
2, 463872, Note_on_c, 0, 69, 75
2, 463872, Note_on_c, 0, 64, 75
2, 463872, Note_on_c, 0, 61, 75
2, 464252, Note_off_c, 0, 69, 64
2, 464252, Note_off_c, 0, 64, 64
2, 464252, Note_off_c, 0, 61, 64
2, 464640, Note_on_c, 0, 69, 75
2, 465020, Note_off_c, 0, 69, 64
2, 465024, Note_on_c, 0, 69, 75
2, 465404, Note_off_c, 0, 69, 64
2, 465408, Note_on_c, 0, 69, 75
2, 465500, Note_off_c, 0, 69, 64
2, 465504, Note_on_c, 0, 77, 75
2, 465980, Note_off_c, 0, 77, 64
2, 465984, Note_on_c, 0, 76, 75
2, 466076, Note_off_c, 0, 76, 64
2, 466080, Note_on_c, 0, 74, 75
2, 466172, Note_off_c, 0, 74, 64
2, 466176, Note_on_c, 0, 73, 75
2, 466556, Note_off_c, 0, 73, 64
2, 466560, Note_on_c, 0, 76, 75
2, 466940, Note_off_c, 0, 76, 64
2, 466944, Note_on_c, 0, 74, 75
2, 467132, Note_off_c, 0, 74, 64
2, 467712, Note_on_c, 0, 69, 75
2, 467712, Note_on_c, 0, 65, 75
2, 468092, Note_off_c, 0, 69, 64
2, 468092, Note_off_c, 0, 65, 64
2, 468096, Note_on_c, 0, 74, 75
2, 468096, Note_on_c, 0, 69, 75
2, 468476, Note_off_c, 0, 74, 64
2, 468476, Note_off_c, 0, 69, 64
2, 468480, Note_on_c, 0, 77, 75
2, 468480, Note_on_c, 0, 74, 75
2, 468860, Note_off_c, 0, 77, 64
2, 468860, Note_off_c, 0, 74, 64
2, 468864, Note_on_c, 0, 81, 78
2, 468864, Note_on_c, 0, 77, 75
2, 469244, Note_off_c, 0, 81, 64
2, 469244, Note_off_c, 0, 77, 64
2, 469248, Note_on_c, 0, 79, 76
2, 469248, Note_on_c, 0, 76, 75
2, 469436, Note_off_c, 0, 79, 64
2, 469436, Note_off_c, 0, 76, 64
2, 469632, Note_on_c, 0, 77, 75
2, 469632, Note_on_c, 0, 74, 75
2, 469820, Note_off_c, 0, 77, 64
2, 469820, Note_off_c, 0, 74, 64
2, 470016, Note_on_c, 0, 76, 75
2, 470016, Note_on_c, 0, 73, 75
2, 470396, Note_off_c, 0, 76, 64
2, 470396, Note_off_c, 0, 73, 64
2, 470784, Note_on_c, 0, 70, 75
2, 471164, Note_off_c, 0, 70, 64
2, 471168, Note_on_c, 0, 70, 75
2, 471548, Note_off_c, 0, 70, 64
2, 471552, Note_on_c, 0, 70, 75
2, 471644, Note_off_c, 0, 70, 64
2, 471648, Note_on_c, 0, 82, 79
2, 472128, Note_on_c, 0, 81, 78
2, 472220, Note_off_c, 0, 82, 64
2, 472220, Note_off_c, 0, 81, 64
2, 472224, Note_on_c, 0, 79, 76
2, 472316, Note_off_c, 0, 79, 64
2, 472320, Note_on_c, 0, 78, 75
2, 472700, Note_off_c, 0, 78, 64
2, 472704, Note_on_c, 0, 81, 78
2, 473084, Note_off_c, 0, 81, 64
2, 473088, Note_on_c, 0, 79, 76
2, 473468, Note_off_c, 0, 79, 64
2, 473856, Note_on_c, 0, 77, 75
2, 473856, Note_on_c, 0, 74, 75
2, 474236, Note_off_c, 0, 77, 64
2, 474236, Note_off_c, 0, 74, 64
2, 474240, Note_on_c, 0, 80, 76
2, 474240, Note_on_c, 0, 77, 75
2, 474620, Note_off_c, 0, 80, 64
2, 474620, Note_off_c, 0, 77, 64
2, 474624, Note_on_c, 0, 86, 81
2, 474624, Note_on_c, 0, 80, 76
2, 475004, Note_off_c, 0, 86, 64
2, 475004, Note_off_c, 0, 80, 64
2, 475008, Note_on_c, 0, 89, 82
2, 475008, Note_on_c, 0, 86, 80
2, 475388, Note_off_c, 0, 89, 64
2, 475388, Note_off_c, 0, 86, 64
2, 475392, Note_on_c, 0, 81, 78
2, 475392, Note_on_c, 0, 77, 75
2, 475392, Note_on_c, 0, 74, 75
2, 475580, Note_off_c, 0, 81, 64
2, 475580, Note_off_c, 0, 77, 64
2, 475580, Note_off_c, 0, 74, 64
2, 475776, Note_on_c, 0, 81, 78
2, 475776, Note_on_c, 0, 76, 75
2, 475776, Note_on_c, 0, 73, 75
2, 475964, Note_off_c, 0, 81, 64
2, 475964, Note_off_c, 0, 76, 64
2, 475964, Note_off_c, 0, 73, 64
2, 476160, Note_on_c, 0, 74, 71
2, 476540, Note_off_c, 0, 74, 64
2, 476928, Note_on_c, 0, 69, 71
2, 477308, Note_off_c, 0, 69, 64
2, 477312, Note_on_c, 0, 69, 71
2, 477692, Note_off_c, 0, 69, 64
2, 477696, Note_on_c, 0, 69, 71
2, 477696, Note_on_c, 0, 65, 71
2, 477696, Note_on_c, 0, 77, 71
2, 478268, Note_off_c, 0, 77, 64
2, 478272, Note_on_c, 0, 76, 71
2, 478364, Note_off_c, 0, 76, 64
2, 478368, Note_on_c, 0, 74, 71
2, 478460, Note_off_c, 0, 65, 64
2, 478460, Note_off_c, 0, 74, 64
2, 478464, Note_on_c, 0, 67, 71
2, 478464, Note_on_c, 0, 73, 71
2, 478844, Note_off_c, 0, 73, 64
2, 478848, Note_on_c, 0, 76, 71
2, 479228, Note_off_c, 0, 67, 64
2, 479228, Note_off_c, 0, 76, 64
2, 479232, Note_on_c, 0, 74, 71
2, 479232, Note_on_c, 0, 65, 71
2, 479612, Note_off_c, 0, 69, 64
2, 479612, Note_off_c, 0, 74, 64
2, 479612, Note_off_c, 0, 65, 64
2, 480000, Note_on_c, 0, 81, 78
2, 480188, Note_off_c, 0, 81, 64
2, 480192, Note_on_c, 0, 79, 76
2, 480284, Note_off_c, 0, 79, 64
2, 480288, Note_on_c, 0, 77, 75
2, 480380, Note_off_c, 0, 77, 64
2, 480384, Note_on_c, 0, 76, 75
2, 480476, Note_off_c, 0, 76, 64
2, 480480, Note_on_c, 0, 74, 75
2, 480572, Note_off_c, 0, 74, 64
2, 480576, Note_on_c, 0, 72, 75
2, 480668, Note_off_c, 0, 72, 64
2, 480672, Note_on_c, 0, 70, 75
2, 480764, Note_off_c, 0, 70, 64
2, 480768, Note_on_c, 0, 69, 75
2, 480860, Note_off_c, 0, 69, 64
2, 480864, Note_on_c, 0, 67, 75
2, 480956, Note_off_c, 0, 67, 64
2, 480960, Note_on_c, 0, 65, 75
2, 481052, Note_off_c, 0, 65, 64
2, 481056, Note_on_c, 0, 64, 75
2, 481148, Note_off_c, 0, 64, 64
2, 481152, Note_on_c, 0, 62, 75
2, 481244, Note_off_c, 0, 62, 64
2, 481248, Note_on_c, 0, 60, 76
2, 481340, Note_off_c, 0, 60, 64
2, 481344, Note_on_c, 0, 58, 78
2, 481436, Note_off_c, 0, 58, 64
2, 481440, Note_on_c, 0, 57, 79
2, 481532, Note_off_c, 0, 57, 64
2, 483072, Note_on_c, 0, 70, 71
2, 483452, Note_off_c, 0, 70, 64
2, 483456, Note_on_c, 0, 70, 71
2, 483836, Note_off_c, 0, 70, 64
2, 483840, Note_on_c, 0, 82, 79
2, 483840, Note_on_c, 0, 75, 71
2, 483840, Note_on_c, 0, 70, 71
2, 484412, Note_off_c, 0, 82, 64
2, 484416, Note_on_c, 0, 81, 78
2, 484508, Note_off_c, 0, 81, 64
2, 484512, Note_on_c, 0, 79, 76
2, 484604, Note_off_c, 0, 75, 64
2, 484604, Note_off_c, 0, 70, 64
2, 484604, Note_off_c, 0, 79, 64
2, 484608, Note_on_c, 0, 75, 75
2, 484608, Note_on_c, 0, 72, 75
2, 484608, Note_on_c, 0, 78, 75
2, 484988, Note_off_c, 0, 78, 64
2, 484992, Note_on_c, 0, 81, 78
2, 485180, Note_off_c, 0, 75, 64
2, 485184, Note_on_c, 0, 74, 75
2, 485372, Note_off_c, 0, 72, 64
2, 485372, Note_off_c, 0, 81, 64
2, 485372, Note_off_c, 0, 74, 64
2, 485376, Note_on_c, 0, 79, 76
2, 485376, Note_on_c, 0, 74, 75
2, 485756, Note_off_c, 0, 79, 64
2, 485756, Note_off_c, 0, 74, 64
2, 486144, Note_on_c, 0, 62, 75
2, 486208, Note_off_c, 0, 62, 64
2, 486208, Note_on_c, 0, 64, 75
2, 486272, Note_off_c, 0, 64, 64
2, 486272, Note_on_c, 0, 62, 75
2, 486336, Note_off_c, 0, 62, 64
2, 486336, Note_on_c, 0, 61, 75
2, 486400, Note_off_c, 0, 61, 64
2, 486400, Note_on_c, 0, 62, 75
2, 486464, Note_off_c, 0, 62, 64
2, 486464, Note_on_c, 0, 63, 75
2, 486528, Note_off_c, 0, 63, 64
2, 486528, Note_on_c, 0, 64, 75
2, 486592, Note_off_c, 0, 64, 64
2, 486592, Note_on_c, 0, 65, 75
2, 486656, Note_off_c, 0, 65, 64
2, 486656, Note_on_c, 0, 66, 75
2, 486720, Note_off_c, 0, 66, 64
2, 486720, Note_on_c, 0, 67, 75
2, 486784, Note_off_c, 0, 67, 64
2, 486784, Note_on_c, 0, 68, 75
2, 486848, Note_off_c, 0, 68, 64
2, 486848, Note_on_c, 0, 69, 75
2, 486912, Note_off_c, 0, 69, 64
2, 486912, Note_on_c, 0, 70, 75
2, 486976, Note_off_c, 0, 70, 64
2, 486976, Note_on_c, 0, 71, 75
2, 487040, Note_off_c, 0, 71, 64
2, 487040, Note_on_c, 0, 72, 75
2, 487104, Note_off_c, 0, 72, 64
2, 487104, Note_on_c, 0, 73, 75
2, 487168, Note_off_c, 0, 73, 64
2, 487168, Note_on_c, 0, 74, 75
2, 487232, Note_off_c, 0, 74, 64
2, 487232, Note_on_c, 0, 75, 75
2, 487296, Note_off_c, 0, 75, 64
2, 487296, Note_on_c, 0, 76, 75
2, 487360, Note_off_c, 0, 76, 64
2, 487360, Note_on_c, 0, 77, 75
2, 487424, Note_off_c, 0, 77, 64
2, 487424, Note_on_c, 0, 78, 75
2, 487488, Note_off_c, 0, 78, 64
2, 487488, Note_on_c, 0, 79, 76
2, 487580, Note_off_c, 0, 79, 64
2, 487584, Note_on_c, 0, 80, 76
2, 487676, Note_off_c, 0, 80, 64
2, 487680, Note_on_c, 0, 81, 78
2, 487772, Note_off_c, 0, 81, 64
2, 488064, Note_on_c, 0, 81, 78
2, 488156, Note_off_c, 0, 81, 64
2, 488448, Note_on_c, 0, 74, 75
2, 488540, Note_off_c, 0, 74, 64
2, 488544, Note_on_c, 0, 81, 78
2, 488636, Note_off_c, 0, 81, 64
2, 488640, Note_on_c, 0, 80, 76
2, 488732, Note_off_c, 0, 80, 64
2, 488736, Note_on_c, 0, 81, 78
2, 488828, Note_off_c, 0, 81, 64
2, 488832, Note_on_c, 0, 80, 76
2, 488924, Note_off_c, 0, 80, 64
2, 488928, Note_on_c, 0, 81, 78
2, 489020, Note_off_c, 0, 81, 64
2, 489024, Note_on_c, 0, 80, 76
2, 489116, Note_off_c, 0, 80, 64
2, 489120, Note_on_c, 0, 81, 78
2, 489212, Note_off_c, 0, 81, 64
2, 489216, Note_on_c, 0, 80, 76
2, 489308, Note_off_c, 0, 80, 64
2, 489312, Note_on_c, 0, 81, 78
2, 489404, Note_off_c, 0, 81, 64
2, 489408, Note_on_c, 0, 82, 79
2, 489500, Note_off_c, 0, 82, 64
2, 489504, Note_on_c, 0, 81, 78
2, 489596, Note_off_c, 0, 81, 64
2, 489600, Note_on_c, 0, 79, 76
2, 489692, Note_off_c, 0, 79, 64
2, 489696, Note_on_c, 0, 77, 75
2, 489788, Note_off_c, 0, 77, 64
2, 489792, Note_on_c, 0, 76, 75
2, 489872, Note_on_c, 0, 74, 75
2, 489884, Note_off_c, 0, 76, 64
2, 489964, Note_off_c, 0, 74, 64
2, 489984, Note_on_c, 0, 73, 75
2, 489984, Note_on_c, 0, 57, 75
2, 490076, Note_off_c, 0, 57, 64
2, 490080, Note_on_c, 0, 69, 75
2, 490172, Note_off_c, 0, 73, 64
2, 490172, Note_off_c, 0, 69, 64
2, 490176, Note_on_c, 0, 79, 76
2, 490176, Note_on_c, 0, 70, 75
2, 490268, Note_off_c, 0, 70, 64
2, 490272, Note_on_c, 0, 69, 75
2, 490364, Note_off_c, 0, 79, 64
2, 490364, Note_off_c, 0, 69, 64
2, 490368, Note_on_c, 0, 88, 82
2, 490368, Note_on_c, 0, 67, 75
2, 490460, Note_off_c, 0, 67, 64
2, 490464, Note_on_c, 0, 69, 75
2, 490556, Note_off_c, 0, 88, 64
2, 490556, Note_off_c, 0, 69, 64
2, 490560, Note_on_c, 0, 86, 81
2, 490560, Note_on_c, 0, 65, 75
2, 490652, Note_off_c, 0, 65, 64
2, 490656, Note_on_c, 0, 69, 75
2, 490748, Note_off_c, 0, 86, 64
2, 490748, Note_off_c, 0, 69, 64
2, 490752, Note_on_c, 0, 85, 80
2, 490752, Note_on_c, 0, 64, 75
2, 490844, Note_off_c, 0, 64, 64
2, 490848, Note_on_c, 0, 69, 75
2, 490928, Note_on_c, 0, 62, 75
2, 490940, Note_off_c, 0, 85, 64
2, 490940, Note_off_c, 0, 69, 64
2, 490944, Note_on_c, 0, 82, 79
2, 491020, Note_off_c, 0, 62, 64
2, 491040, Note_on_c, 0, 69, 75
2, 491132, Note_off_c, 0, 82, 64
2, 491132, Note_off_c, 0, 69, 64
2, 491136, Note_on_c, 0, 81, 78
2, 491136, Note_on_c, 0, 61, 75
2, 491228, Note_off_c, 0, 61, 64
2, 491232, Note_on_c, 0, 69, 75
2, 491324, Note_off_c, 0, 81, 64
2, 491324, Note_off_c, 0, 69, 64
2, 491328, Note_on_c, 0, 79, 76
2, 491328, Note_on_c, 0, 57, 75
2, 491420, Note_off_c, 0, 57, 64
2, 491424, Note_on_c, 0, 69, 75
2, 491516, Note_off_c, 0, 79, 64
2, 491516, Note_off_c, 0, 69, 64
2, 491520, Note_on_c, 0, 77, 75
2, 491612, Note_off_c, 0, 77, 64
2, 491616, Note_on_c, 0, 81, 78
2, 491708, Note_off_c, 0, 81, 64
2, 491712, Note_on_c, 0, 80, 76
2, 491804, Note_off_c, 0, 80, 64
2, 491808, Note_on_c, 0, 81, 78
2, 491900, Note_off_c, 0, 81, 64
2, 491904, Note_on_c, 0, 80, 76
2, 491996, Note_off_c, 0, 80, 64
2, 492000, Note_on_c, 0, 81, 78
2, 492092, Note_off_c, 0, 81, 64
2, 492096, Note_on_c, 0, 80, 76
2, 492188, Note_off_c, 0, 80, 64
2, 492192, Note_on_c, 0, 81, 78
2, 492284, Note_off_c, 0, 81, 64
2, 492288, Note_on_c, 0, 80, 76
2, 492380, Note_off_c, 0, 80, 64
2, 492384, Note_on_c, 0, 81, 78
2, 492476, Note_off_c, 0, 81, 64
2, 492480, Note_on_c, 0, 82, 79
2, 492572, Note_off_c, 0, 82, 64
2, 492576, Note_on_c, 0, 81, 78
2, 492668, Note_off_c, 0, 81, 64
2, 492672, Note_on_c, 0, 79, 76
2, 492764, Note_off_c, 0, 79, 64
2, 492768, Note_on_c, 0, 77, 75
2, 492860, Note_off_c, 0, 77, 64
2, 492864, Note_on_c, 0, 76, 75
2, 492956, Note_off_c, 0, 76, 64
2, 492960, Note_on_c, 0, 74, 75
2, 493052, Note_off_c, 0, 74, 64
2, 493056, Note_on_c, 0, 73, 75
2, 493056, Note_on_c, 0, 57, 75
2, 493148, Note_off_c, 0, 57, 64
2, 493152, Note_on_c, 0, 69, 75
2, 493244, Note_off_c, 0, 73, 64
2, 493244, Note_off_c, 0, 69, 64
2, 493248, Note_on_c, 0, 79, 76
2, 493248, Note_on_c, 0, 70, 75
2, 493340, Note_off_c, 0, 70, 64
2, 493344, Note_on_c, 0, 69, 75
2, 493436, Note_off_c, 0, 79, 64
2, 493436, Note_off_c, 0, 69, 64
2, 493440, Note_on_c, 0, 88, 82
2, 493440, Note_on_c, 0, 67, 75
2, 493532, Note_off_c, 0, 67, 64
2, 493536, Note_on_c, 0, 69, 75
2, 493628, Note_off_c, 0, 88, 64
2, 493628, Note_off_c, 0, 69, 64
2, 493632, Note_on_c, 0, 86, 81
2, 493632, Note_on_c, 0, 65, 75
2, 493724, Note_off_c, 0, 65, 64
2, 493728, Note_on_c, 0, 69, 75
2, 493808, Note_on_c, 0, 64, 75
2, 493820, Note_off_c, 0, 86, 64
2, 493820, Note_off_c, 0, 69, 64
2, 493824, Note_on_c, 0, 85, 80
2, 493900, Note_off_c, 0, 64, 64
2, 493920, Note_on_c, 0, 69, 75
2, 494012, Note_off_c, 0, 85, 64
2, 494012, Note_off_c, 0, 69, 64
2, 494016, Note_on_c, 0, 82, 79
2, 494016, Note_on_c, 0, 62, 75
2, 494108, Note_off_c, 0, 62, 64
2, 494112, Note_on_c, 0, 69, 75
2, 494204, Note_off_c, 0, 82, 64
2, 494204, Note_off_c, 0, 69, 64
2, 494208, Note_on_c, 0, 81, 78
2, 494208, Note_on_c, 0, 61, 75
2, 494300, Note_off_c, 0, 61, 64
2, 494304, Note_on_c, 0, 69, 75
2, 494396, Note_off_c, 0, 81, 64
2, 494396, Note_off_c, 0, 69, 64
2, 494400, Note_on_c, 0, 79, 76
2, 494400, Note_on_c, 0, 57, 75
2, 494492, Note_off_c, 0, 57, 64
2, 494496, Note_on_c, 0, 69, 75
2, 494588, Note_off_c, 0, 79, 64
2, 494588, Note_off_c, 0, 69, 64
2, 494592, Note_on_c, 0, 78, 75
2, 494592, Note_on_c, 0, 61, 75
2, 494684, Note_off_c, 0, 61, 64
2, 494688, Note_on_c, 0, 62, 75
2, 494780, Note_off_c, 0, 78, 64
2, 494780, Note_off_c, 0, 62, 64
2, 494784, Note_on_c, 0, 78, 75
2, 494784, Note_on_c, 0, 63, 75
2, 494876, Note_off_c, 0, 63, 64
2, 494880, Note_on_c, 0, 62, 75
2, 494972, Note_off_c, 0, 78, 64
2, 494972, Note_off_c, 0, 62, 64
2, 494976, Note_on_c, 0, 81, 78
2, 494976, Note_on_c, 0, 60, 75
2, 495068, Note_off_c, 0, 60, 64
2, 495072, Note_on_c, 0, 62, 75
2, 495164, Note_off_c, 0, 81, 64
2, 495164, Note_off_c, 0, 62, 64
2, 495168, Note_on_c, 0, 79, 76
2, 495168, Note_on_c, 0, 58, 75
2, 495260, Note_off_c, 0, 58, 64
2, 495264, Note_on_c, 0, 62, 75
2, 495356, Note_off_c, 0, 79, 64
2, 495356, Note_off_c, 0, 62, 64
2, 495360, Note_on_c, 0, 78, 75
2, 495548, Note_off_c, 0, 78, 64
2, 495552, Note_on_c, 0, 75, 75
2, 495740, Note_off_c, 0, 75, 64
2, 495744, Note_on_c, 0, 74, 75
2, 495932, Note_off_c, 0, 74, 64
2, 495936, Note_on_c, 0, 72, 75
2, 496124, Note_off_c, 0, 72, 64
2, 496128, Note_on_c, 0, 70, 75
2, 496220, Note_off_c, 0, 70, 64
2, 496224, Note_on_c, 0, 74, 75
2, 496316, Note_off_c, 0, 74, 64
2, 496320, Note_on_c, 0, 82, 79
2, 496400, Note_on_c, 0, 81, 78
2, 496412, Note_off_c, 0, 82, 64
2, 496492, Note_off_c, 0, 81, 64
2, 496512, Note_on_c, 0, 70, 76
2, 496512, Note_on_c, 0, 79, 75
2, 496604, Note_off_c, 0, 79, 64
2, 496608, Note_on_c, 0, 82, 79
2, 496700, Note_off_c, 0, 70, 64
2, 496700, Note_off_c, 0, 82, 64
2, 496704, Note_on_c, 0, 69, 75
2, 496704, Note_on_c, 0, 77, 75
2, 496796, Note_off_c, 0, 77, 64
2, 496800, Note_on_c, 0, 82, 79
2, 496892, Note_off_c, 0, 69, 64
2, 496892, Note_off_c, 0, 82, 64
2, 496896, Note_on_c, 0, 67, 75
2, 496896, Note_on_c, 0, 75, 75
2, 496988, Note_off_c, 0, 75, 64
2, 496992, Note_on_c, 0, 82, 79
2, 497084, Note_off_c, 0, 67, 64
2, 497084, Note_off_c, 0, 82, 64
2, 497088, Note_on_c, 0, 70, 75
2, 497088, Note_on_c, 0, 79, 75
2, 497180, Note_off_c, 0, 79, 64
2, 497184, Note_on_c, 0, 82, 79
2, 497276, Note_off_c, 0, 70, 64
2, 497276, Note_off_c, 0, 82, 64
2, 497280, Note_on_c, 0, 67, 75
2, 497280, Note_on_c, 0, 75, 75
2, 497372, Note_off_c, 0, 75, 64
2, 497376, Note_on_c, 0, 82, 79
2, 497468, Note_off_c, 0, 67, 64
2, 497468, Note_off_c, 0, 82, 64
2, 497472, Note_on_c, 0, 65, 75
2, 497472, Note_on_c, 0, 74, 75
2, 497564, Note_off_c, 0, 74, 64
2, 497568, Note_on_c, 0, 82, 79
2, 497660, Note_off_c, 0, 65, 64
2, 497660, Note_off_c, 0, 82, 64
2, 497664, Note_on_c, 0, 64, 75
2, 497664, Note_on_c, 0, 73, 75
2, 497756, Note_off_c, 0, 73, 64
2, 497760, Note_on_c, 0, 79, 76
2, 497852, Note_off_c, 0, 64, 64
2, 497852, Note_off_c, 0, 79, 64
2, 497856, Note_on_c, 0, 67, 75
2, 497856, Note_on_c, 0, 76, 75
2, 497948, Note_off_c, 0, 76, 64
2, 497952, Note_on_c, 0, 79, 76
2, 498044, Note_off_c, 0, 67, 64
2, 498044, Note_off_c, 0, 79, 64
2, 498048, Note_on_c, 0, 64, 75
2, 498048, Note_on_c, 0, 73, 75
2, 498140, Note_off_c, 0, 73, 64
2, 498144, Note_on_c, 0, 79, 76
2, 498236, Note_off_c, 0, 64, 64
2, 498236, Note_off_c, 0, 79, 64
2, 498240, Note_on_c, 0, 62, 75
2, 498240, Note_on_c, 0, 70, 75
2, 498332, Note_off_c, 0, 70, 64
2, 498336, Note_on_c, 0, 79, 76
2, 498428, Note_off_c, 0, 62, 64
2, 498428, Note_off_c, 0, 79, 64
2, 498432, Note_on_c, 0, 61, 75
2, 498432, Note_on_c, 0, 69, 75
2, 498524, Note_off_c, 0, 69, 64
2, 498528, Note_on_c, 0, 76, 75
2, 498620, Note_off_c, 0, 61, 64
2, 498620, Note_off_c, 0, 76, 64
2, 498624, Note_on_c, 0, 64, 75
2, 498624, Note_on_c, 0, 73, 75
2, 498716, Note_off_c, 0, 73, 64
2, 498720, Note_on_c, 0, 76, 75
2, 498812, Note_off_c, 0, 64, 64
2, 498812, Note_off_c, 0, 76, 64
2, 498816, Note_on_c, 0, 61, 75
2, 498816, Note_on_c, 0, 69, 75
2, 498908, Note_off_c, 0, 69, 64
2, 498912, Note_on_c, 0, 76, 75
2, 499004, Note_off_c, 0, 61, 64
2, 499004, Note_off_c, 0, 76, 64
2, 499008, Note_on_c, 0, 57, 75
2, 499008, Note_on_c, 0, 67, 75
2, 499100, Note_off_c, 0, 67, 64
2, 499104, Note_on_c, 0, 76, 75
2, 499196, Note_off_c, 0, 57, 64
2, 499196, Note_off_c, 0, 76, 64
2, 499200, Note_on_c, 0, 65, 75
2, 499388, Note_off_c, 0, 65, 64
2, 499392, Note_on_c, 0, 69, 75
2, 499580, Note_off_c, 0, 69, 64
2, 499584, Note_on_c, 0, 74, 75
2, 499772, Note_off_c, 0, 74, 64
2, 499776, Note_on_c, 0, 72, 75
2, 499964, Note_off_c, 0, 72, 64
2, 499968, Note_on_c, 0, 70, 75
2, 500156, Note_off_c, 0, 70, 64
2, 500160, Note_on_c, 0, 74, 75
2, 500348, Note_off_c, 0, 74, 64
2, 500352, Note_on_c, 0, 70, 75
2, 500540, Note_off_c, 0, 70, 64
2, 500544, Note_on_c, 0, 69, 75
2, 500732, Note_off_c, 0, 69, 64
2, 500736, Note_on_c, 0, 67, 75
2, 500924, Note_off_c, 0, 67, 64
2, 500928, Note_on_c, 0, 70, 75
2, 501116, Note_off_c, 0, 70, 64
2, 501120, Note_on_c, 0, 67, 75
2, 501308, Note_off_c, 0, 67, 64
2, 501312, Note_on_c, 0, 65, 75
2, 501500, Note_off_c, 0, 65, 64
2, 501504, Note_on_c, 0, 64, 75
2, 501692, Note_off_c, 0, 64, 64
2, 501696, Note_on_c, 0, 67, 75
2, 501884, Note_off_c, 0, 67, 64
2, 501888, Note_on_c, 0, 64, 75
2, 502076, Note_off_c, 0, 64, 64
2, 502080, Note_on_c, 0, 62, 75
2, 502268, Note_off_c, 0, 62, 64
2, 502368, Note_on_c, 0, 61, 75
2, 502460, Note_off_c, 0, 61, 64
2, 502464, Note_on_c, 0, 64, 75
2, 502556, Note_off_c, 0, 64, 64
2, 502560, Note_on_c, 0, 67, 75
2, 502652, Note_off_c, 0, 67, 64
2, 502656, Note_on_c, 0, 73, 75
2, 502748, Note_off_c, 0, 73, 64
2, 502752, Note_on_c, 0, 67, 75
2, 502844, Note_off_c, 0, 67, 64
2, 502848, Note_on_c, 0, 76, 75
2, 502940, Note_off_c, 0, 76, 64
2, 502944, Note_on_c, 0, 73, 75
2, 503036, Note_off_c, 0, 73, 64
2, 503040, Note_on_c, 0, 79, 76
2, 503132, Note_off_c, 0, 79, 64
2, 503136, Note_on_c, 0, 76, 75
2, 503228, Note_off_c, 0, 76, 64
2, 503232, Note_on_c, 0, 85, 80
2, 503324, Note_off_c, 0, 85, 64
2, 503328, Note_on_c, 0, 79, 75
2, 503420, Note_off_c, 0, 79, 64
2, 503424, Note_on_c, 0, 88, 82
2, 503516, Note_off_c, 0, 88, 64
2, 503520, Note_on_c, 0, 85, 80
2, 503612, Note_off_c, 0, 85, 64
2, 503616, Note_on_c, 0, 79, 76
2, 503708, Note_off_c, 0, 79, 64
2, 503712, Note_on_c, 0, 76, 75
2, 503804, Note_off_c, 0, 76, 64
2, 503904, Note_on_c, 0, 62, 75
2, 503996, Note_off_c, 0, 62, 64
2, 504000, Note_on_c, 0, 65, 75
2, 504092, Note_off_c, 0, 65, 64
2, 504096, Note_on_c, 0, 71, 75
2, 504188, Note_off_c, 0, 71, 64
2, 504192, Note_on_c, 0, 74, 75
2, 504284, Note_off_c, 0, 74, 64
2, 504288, Note_on_c, 0, 71, 75
2, 504380, Note_off_c, 0, 71, 64
2, 504384, Note_on_c, 0, 77, 75
2, 504476, Note_off_c, 0, 77, 64
2, 504480, Note_on_c, 0, 74, 75
2, 504572, Note_off_c, 0, 74, 64
2, 504576, Note_on_c, 0, 83, 79
2, 504668, Note_off_c, 0, 83, 64
2, 504672, Note_on_c, 0, 77, 75
2, 504764, Note_off_c, 0, 77, 64
2, 504768, Note_on_c, 0, 86, 81
2, 504860, Note_off_c, 0, 86, 64
2, 504864, Note_on_c, 0, 83, 79
2, 504956, Note_off_c, 0, 83, 64
2, 504960, Note_on_c, 0, 89, 83
2, 505052, Note_off_c, 0, 89, 64
2, 505056, Note_on_c, 0, 86, 81
2, 505148, Note_off_c, 0, 86, 64
2, 505152, Note_on_c, 0, 83, 79
2, 505244, Note_off_c, 0, 83, 64
2, 505248, Note_on_c, 0, 77, 75
2, 505340, Note_off_c, 0, 77, 64
2, 505344, Note_on_c, 0, 86, 81
2, 505436, Note_off_c, 0, 86, 64
2, 505440, Note_on_c, 0, 81, 78
2, 505532, Note_off_c, 0, 81, 64
2, 505536, Note_on_c, 0, 77, 76
2, 505628, Note_off_c, 0, 77, 64
2, 505632, Note_on_c, 0, 74, 75
2, 505724, Note_off_c, 0, 74, 64
2, 505728, Note_on_c, 0, 81, 78
2, 505820, Note_off_c, 0, 81, 64
2, 505824, Note_on_c, 0, 77, 75
2, 505916, Note_off_c, 0, 77, 64
2, 505920, Note_on_c, 0, 74, 75
2, 506012, Note_off_c, 0, 74, 64
2, 506016, Note_on_c, 0, 69, 75
2, 506108, Note_off_c, 0, 69, 64
2, 506112, Note_on_c, 0, 76, 75
2, 506112, Note_on_c, 0, 57, 75
2, 506152, Note_off_c, 0, 76, 64
2, 506160, Note_on_c, 0, 77, 75
2, 506200, Note_off_c, 0, 77, 64
2, 506204, Note_off_c, 0, 57, 64
2, 506208, Note_on_c, 0, 76, 75
2, 506208, Note_on_c, 0, 67, 75
2, 506248, Note_off_c, 0, 76, 64
2, 506256, Note_on_c, 0, 77, 75
2, 506296, Note_off_c, 0, 77, 64
2, 506300, Note_off_c, 0, 67, 64
2, 506304, Note_on_c, 0, 76, 75
2, 506304, Note_on_c, 0, 61, 75
2, 506344, Note_off_c, 0, 76, 64
2, 506352, Note_on_c, 0, 77, 75
2, 506392, Note_off_c, 0, 77, 64
2, 506396, Note_off_c, 0, 61, 64
2, 506400, Note_on_c, 0, 76, 75
2, 506400, Note_on_c, 0, 67, 75
2, 506440, Note_off_c, 0, 76, 64
2, 506448, Note_on_c, 0, 77, 75
2, 506488, Note_off_c, 0, 77, 64
2, 506492, Note_off_c, 0, 67, 64
2, 506496, Note_on_c, 0, 76, 75
2, 506496, Note_on_c, 0, 57, 75
2, 506536, Note_off_c, 0, 76, 64
2, 506544, Note_on_c, 0, 77, 75
2, 506584, Note_off_c, 0, 77, 64
2, 506588, Note_off_c, 0, 57, 64
2, 506592, Note_on_c, 0, 76, 75
2, 506592, Note_on_c, 0, 67, 75
2, 506632, Note_off_c, 0, 76, 64
2, 506640, Note_on_c, 0, 77, 75
2, 506680, Note_off_c, 0, 77, 64
2, 506684, Note_off_c, 0, 67, 64
2, 506688, Note_on_c, 0, 76, 75
2, 506688, Note_on_c, 0, 61, 75
2, 506728, Note_off_c, 0, 76, 64
2, 506736, Note_on_c, 0, 77, 75
2, 506776, Note_off_c, 0, 77, 64
2, 506780, Note_off_c, 0, 61, 64
2, 506784, Note_on_c, 0, 74, 75
2, 506784, Note_on_c, 0, 67, 75
2, 506824, Note_off_c, 0, 74, 64
2, 506832, Note_on_c, 0, 76, 75
2, 506872, Note_off_c, 0, 76, 64
2, 506876, Note_off_c, 0, 67, 64
2, 506880, Note_on_c, 0, 65, 75
2, 506880, Note_on_c, 0, 62, 75
2, 506976, Note_on_c, 0, 74, 75
2, 507068, Note_off_c, 0, 74, 64
2, 507072, Note_on_c, 0, 72, 75
2, 507164, Note_off_c, 0, 72, 64
2, 507168, Note_on_c, 0, 74, 75
2, 507260, Note_off_c, 0, 65, 64
2, 507260, Note_off_c, 0, 62, 64
2, 507260, Note_off_c, 0, 74, 64
2, 507264, Note_on_c, 0, 76, 75
2, 507356, Note_off_c, 0, 76, 64
2, 507360, Note_on_c, 0, 74, 75
2, 507452, Note_off_c, 0, 74, 64
2, 507456, Note_on_c, 0, 72, 75
2, 507548, Note_off_c, 0, 72, 64
2, 507552, Note_on_c, 0, 74, 75
2, 507644, Note_off_c, 0, 74, 64
2, 507648, Note_on_c, 0, 64, 75
2, 507740, Note_off_c, 0, 64, 64
2, 507744, Note_on_c, 0, 76, 75
2, 507836, Note_off_c, 0, 76, 64
2, 507840, Note_on_c, 0, 63, 75
2, 507932, Note_off_c, 0, 63, 64
2, 507936, Note_on_c, 0, 75, 75
2, 508028, Note_off_c, 0, 75, 64
2, 508032, Note_on_c, 0, 64, 75
2, 508124, Note_off_c, 0, 64, 64
2, 508128, Note_on_c, 0, 76, 75
2, 508220, Note_off_c, 0, 76, 64
2, 508224, Note_on_c, 0, 66, 75
2, 508316, Note_off_c, 0, 66, 64
2, 508320, Note_on_c, 0, 78, 75
2, 508412, Note_off_c, 0, 78, 64
2, 508416, Note_on_c, 0, 67, 75
2, 508508, Note_off_c, 0, 67, 64
2, 508512, Note_on_c, 0, 79, 76
2, 508604, Note_off_c, 0, 79, 64
2, 508608, Note_on_c, 0, 66, 75
2, 508700, Note_off_c, 0, 66, 64
2, 508704, Note_on_c, 0, 78, 75
2, 508796, Note_off_c, 0, 78, 64
2, 508800, Note_on_c, 0, 67, 75
2, 508892, Note_off_c, 0, 67, 64
2, 508896, Note_on_c, 0, 79, 76
2, 508988, Note_off_c, 0, 79, 64
2, 508992, Note_on_c, 0, 65, 75
2, 509084, Note_off_c, 0, 65, 64
2, 509088, Note_on_c, 0, 77, 75
2, 509180, Note_off_c, 0, 77, 64
2, 509184, Note_on_c, 0, 66, 75
2, 509276, Note_off_c, 0, 66, 64
2, 509280, Note_on_c, 0, 78, 76
2, 509372, Note_off_c, 0, 78, 64
2, 509376, Note_on_c, 0, 65, 75
2, 509468, Note_off_c, 0, 65, 64
2, 509472, Note_on_c, 0, 77, 75
2, 509564, Note_off_c, 0, 77, 64
2, 509568, Note_on_c, 0, 66, 75
2, 509660, Note_off_c, 0, 66, 64
2, 509664, Note_on_c, 0, 78, 75
2, 509756, Note_off_c, 0, 78, 64
2, 509760, Note_on_c, 0, 68, 75
2, 509852, Note_off_c, 0, 68, 64
2, 509856, Note_on_c, 0, 80, 76
2, 509948, Note_off_c, 0, 80, 64
2, 509952, Note_on_c, 0, 69, 75
2, 510044, Note_off_c, 0, 69, 64
2, 510048, Note_on_c, 0, 81, 78
2, 510140, Note_off_c, 0, 81, 64
2, 510144, Note_on_c, 0, 68, 75
2, 510236, Note_off_c, 0, 68, 64
2, 510240, Note_on_c, 0, 80, 76
2, 510332, Note_off_c, 0, 80, 64
2, 510336, Note_on_c, 0, 69, 75
2, 510428, Note_off_c, 0, 69, 64
2, 510432, Note_on_c, 0, 81, 78
2, 510524, Note_off_c, 0, 81, 64
2, 510528, Note_on_c, 0, 66, 75
2, 510620, Note_off_c, 0, 66, 64
2, 510624, Note_on_c, 0, 78, 75
2, 510716, Note_off_c, 0, 78, 64
2, 510720, Note_on_c, 0, 67, 75
2, 510812, Note_off_c, 0, 67, 64
2, 510816, Note_on_c, 0, 79, 76
2, 510908, Note_off_c, 0, 79, 64
2, 510912, Note_on_c, 0, 66, 75
2, 511004, Note_off_c, 0, 66, 64
2, 511008, Note_on_c, 0, 78, 75
2, 511100, Note_off_c, 0, 78, 64
2, 511104, Note_on_c, 0, 67, 75
2, 511196, Note_off_c, 0, 67, 64
2, 511200, Note_on_c, 0, 79, 76
2, 511292, Note_off_c, 0, 79, 64
2, 511296, Note_on_c, 0, 69, 75
2, 511388, Note_off_c, 0, 69, 64
2, 511392, Note_on_c, 0, 81, 78
2, 511484, Note_off_c, 0, 81, 64
2, 511680, Note_on_c, 0, 62, 78
2, 511772, Note_off_c, 0, 62, 64
2, 511776, Note_on_c, 0, 69, 75
2, 511868, Note_off_c, 0, 69, 64
2, 511872, Note_on_c, 0, 70, 75
2, 511964, Note_off_c, 0, 70, 64
2, 511968, Note_on_c, 0, 74, 75
2, 512060, Note_off_c, 0, 74, 64
2, 512064, Note_on_c, 0, 79, 78
2, 512156, Note_off_c, 0, 79, 64
2, 512160, Note_on_c, 0, 82, 80
2, 512252, Note_off_c, 0, 82, 64
2, 512448, Note_on_c, 0, 62, 76
2, 512540, Note_off_c, 0, 62, 64
2, 512544, Note_on_c, 0, 67, 75
2, 512636, Note_off_c, 0, 67, 64
2, 512640, Note_on_c, 0, 71, 75
2, 512732, Note_off_c, 0, 71, 64
2, 512736, Note_on_c, 0, 74, 75
2, 512828, Note_off_c, 0, 74, 64
2, 512832, Note_on_c, 0, 79, 78
2, 512924, Note_off_c, 0, 79, 64
2, 512928, Note_on_c, 0, 83, 80
2, 513020, Note_off_c, 0, 83, 64
2, 513216, Note_on_c, 0, 64, 78
2, 513308, Note_off_c, 0, 64, 64
2, 513312, Note_on_c, 0, 67, 75
2, 513404, Note_off_c, 0, 67, 64
2, 513408, Note_on_c, 0, 72, 75
2, 513500, Note_off_c, 0, 72, 64
2, 513504, Note_on_c, 0, 76, 75
2, 513596, Note_off_c, 0, 76, 64
2, 513600, Note_on_c, 0, 79, 78
2, 513692, Note_off_c, 0, 79, 64
2, 513696, Note_on_c, 0, 84, 80
2, 513788, Note_off_c, 0, 84, 64
2, 513984, Note_on_c, 0, 64, 78
2, 514076, Note_off_c, 0, 64, 64
2, 514080, Note_on_c, 0, 69, 75
2, 514172, Note_off_c, 0, 69, 64
2, 514176, Note_on_c, 0, 73, 75
2, 514268, Note_off_c, 0, 73, 64
2, 514272, Note_on_c, 0, 76, 75
2, 514364, Note_off_c, 0, 76, 64
2, 514368, Note_on_c, 0, 81, 78
2, 514460, Note_off_c, 0, 81, 64
2, 514464, Note_on_c, 0, 85, 80
2, 514556, Note_off_c, 0, 85, 64
2, 514752, Note_on_c, 0, 65, 78
2, 514844, Note_off_c, 0, 65, 64
2, 514848, Note_on_c, 0, 69, 75
2, 514928, Note_on_c, 0, 74, 75
2, 514940, Note_off_c, 0, 69, 64
2, 515020, Note_off_c, 0, 74, 64
2, 515040, Note_on_c, 0, 77, 75
2, 515132, Note_off_c, 0, 77, 64
2, 515136, Note_on_c, 0, 81, 78
2, 515228, Note_off_c, 0, 81, 64
2, 515232, Note_on_c, 0, 86, 80
2, 515324, Note_off_c, 0, 86, 64
2, 515520, Note_on_c, 0, 62, 78
2, 515612, Note_off_c, 0, 62, 64
2, 515616, Note_on_c, 0, 65, 75
2, 515708, Note_off_c, 0, 65, 64
2, 515712, Note_on_c, 0, 68, 75
2, 515804, Note_off_c, 0, 68, 64
2, 515808, Note_on_c, 0, 71, 75
2, 515900, Note_off_c, 0, 71, 64
2, 515904, Note_on_c, 0, 74, 78
2, 515996, Note_off_c, 0, 74, 64
2, 516000, Note_on_c, 0, 80, 81
2, 516092, Note_off_c, 0, 80, 64
2, 516096, Note_on_c, 0, 69, 75
2, 516188, Note_off_c, 0, 69, 64
2, 516192, Note_on_c, 0, 81, 78
2, 516284, Note_off_c, 0, 81, 64
2, 516288, Note_on_c, 0, 68, 75
2, 516380, Note_off_c, 0, 68, 64
2, 516384, Note_on_c, 0, 80, 76
2, 516476, Note_off_c, 0, 80, 64
2, 516480, Note_on_c, 0, 69, 75
2, 516572, Note_off_c, 0, 69, 64
2, 516576, Note_on_c, 0, 81, 78
2, 516668, Note_off_c, 0, 81, 64
2, 516672, Note_on_c, 0, 70, 75
2, 516764, Note_off_c, 0, 70, 64
2, 516768, Note_on_c, 0, 82, 79
2, 516860, Note_off_c, 0, 82, 64
2, 516864, Note_on_c, 0, 71, 75
2, 516956, Note_off_c, 0, 71, 64
2, 516960, Note_on_c, 0, 83, 80
2, 517052, Note_off_c, 0, 83, 64
2, 517056, Note_on_c, 0, 72, 75
2, 517148, Note_off_c, 0, 72, 64
2, 517152, Note_on_c, 0, 84, 81
2, 517244, Note_off_c, 0, 84, 64
2, 517248, Note_on_c, 0, 73, 75
2, 517340, Note_off_c, 0, 73, 64
2, 517344, Note_on_c, 0, 85, 82
2, 517436, Note_off_c, 0, 85, 64
2, 517440, Note_on_c, 0, 74, 75
2, 517532, Note_off_c, 0, 74, 64
2, 517536, Note_on_c, 0, 86, 83
2, 517628, Note_off_c, 0, 86, 64
2, 517632, Note_on_c, 0, 57, 75
2, 517632, Note_on_c, 0, 76, 75
2, 517672, Note_off_c, 0, 76, 64
2, 517680, Note_on_c, 0, 77, 75
2, 517720, Note_off_c, 0, 77, 64
2, 517724, Note_off_c, 0, 57, 64
2, 517728, Note_on_c, 0, 67, 75
2, 517728, Note_on_c, 0, 76, 75
2, 517768, Note_off_c, 0, 76, 64
2, 517776, Note_on_c, 0, 77, 75
2, 517816, Note_off_c, 0, 77, 64
2, 517820, Note_off_c, 0, 67, 64
2, 517824, Note_on_c, 0, 61, 75
2, 517824, Note_on_c, 0, 76, 75
2, 517864, Note_off_c, 0, 76, 64
2, 517872, Note_on_c, 0, 77, 75
2, 517912, Note_off_c, 0, 77, 64
2, 517916, Note_off_c, 0, 61, 64
2, 517920, Note_on_c, 0, 67, 75
2, 517920, Note_on_c, 0, 76, 75
2, 517960, Note_off_c, 0, 76, 64
2, 517968, Note_on_c, 0, 77, 75
2, 518008, Note_off_c, 0, 77, 64
2, 518012, Note_off_c, 0, 67, 64
2, 518016, Note_on_c, 0, 57, 75
2, 518016, Note_on_c, 0, 76, 75
2, 518056, Note_off_c, 0, 76, 64
2, 518064, Note_on_c, 0, 77, 75
2, 518104, Note_off_c, 0, 77, 64
2, 518108, Note_off_c, 0, 57, 64
2, 518112, Note_on_c, 0, 67, 75
2, 518112, Note_on_c, 0, 76, 75
2, 518152, Note_off_c, 0, 76, 64
2, 518160, Note_on_c, 0, 77, 75
2, 518200, Note_off_c, 0, 77, 64
2, 518204, Note_off_c, 0, 67, 64
2, 518208, Note_on_c, 0, 61, 75
2, 518208, Note_on_c, 0, 76, 75
2, 518248, Note_off_c, 0, 76, 64
2, 518256, Note_on_c, 0, 77, 75
2, 518296, Note_off_c, 0, 77, 64
2, 518300, Note_off_c, 0, 61, 64
2, 518304, Note_on_c, 0, 67, 75
2, 518304, Note_on_c, 0, 76, 75
2, 518344, Note_off_c, 0, 76, 64
2, 518352, Note_on_c, 0, 77, 75
2, 518392, Note_off_c, 0, 77, 64
2, 518396, Note_off_c, 0, 67, 64
2, 518400, Note_on_c, 0, 57, 75
2, 518400, Note_on_c, 0, 76, 75
2, 518440, Note_off_c, 0, 76, 64
2, 518448, Note_on_c, 0, 77, 75
2, 518488, Note_off_c, 0, 77, 64
2, 518492, Note_off_c, 0, 57, 64
2, 518496, Note_on_c, 0, 67, 75
2, 518496, Note_on_c, 0, 76, 75
2, 518536, Note_off_c, 0, 76, 64
2, 518544, Note_on_c, 0, 77, 75
2, 518584, Note_off_c, 0, 77, 64
2, 518588, Note_off_c, 0, 67, 64
2, 518592, Note_on_c, 0, 61, 75
2, 518592, Note_on_c, 0, 76, 75
2, 518632, Note_off_c, 0, 76, 64
2, 518640, Note_on_c, 0, 77, 75
2, 518680, Note_off_c, 0, 77, 64
2, 518684, Note_off_c, 0, 61, 64
2, 518688, Note_on_c, 0, 67, 75
2, 518688, Note_on_c, 0, 76, 75
2, 518728, Note_off_c, 0, 76, 64
2, 518736, Note_on_c, 0, 77, 75
2, 518776, Note_off_c, 0, 77, 64
2, 518780, Note_off_c, 0, 67, 64
2, 518784, Note_on_c, 0, 57, 75
2, 518784, Note_on_c, 0, 76, 75
2, 518824, Note_off_c, 0, 76, 64
2, 518832, Note_on_c, 0, 77, 75
2, 518872, Note_off_c, 0, 77, 64
2, 518876, Note_off_c, 0, 57, 64
2, 518880, Note_on_c, 0, 67, 75
2, 518880, Note_on_c, 0, 76, 75
2, 518920, Note_off_c, 0, 76, 64
2, 518928, Note_on_c, 0, 77, 75
2, 518968, Note_off_c, 0, 77, 64
2, 518972, Note_off_c, 0, 67, 64
2, 518976, Note_on_c, 0, 61, 75
2, 518976, Note_on_c, 0, 76, 75
2, 519016, Note_off_c, 0, 76, 64
2, 519068, Note_off_c, 0, 61, 64
2, 519072, Note_on_c, 0, 74, 75
2, 519072, Note_on_c, 0, 67, 75
2, 519112, Note_off_c, 0, 74, 64
2, 519120, Note_on_c, 0, 76, 75
2, 519160, Note_off_c, 0, 76, 64
2, 519164, Note_off_c, 0, 67, 64
2, 519168, Note_on_c, 0, 65, 75
2, 519168, Note_on_c, 0, 62, 75
2, 519264, Note_on_c, 0, 74, 75
2, 519356, Note_off_c, 0, 74, 64
2, 519360, Note_on_c, 0, 73, 75
2, 519452, Note_off_c, 0, 73, 64
2, 519456, Note_on_c, 0, 74, 75
2, 519548, Note_off_c, 0, 65, 64
2, 519548, Note_off_c, 0, 62, 64
2, 519548, Note_off_c, 0, 74, 64
2, 519552, Note_on_c, 0, 73, 75
2, 519644, Note_off_c, 0, 73, 64
2, 519648, Note_on_c, 0, 74, 75
2, 519740, Note_off_c, 0, 74, 64
2, 519744, Note_on_c, 0, 62, 75
2, 519836, Note_off_c, 0, 62, 64
2, 519840, Note_on_c, 0, 74, 75
2, 519932, Note_off_c, 0, 74, 64
2, 519936, Note_on_c, 0, 63, 75
2, 520028, Note_off_c, 0, 63, 64
2, 520032, Note_on_c, 0, 74, 75
2, 520124, Note_off_c, 0, 74, 64
2, 520128, Note_on_c, 0, 62, 75
2, 520220, Note_off_c, 0, 62, 64
2, 520224, Note_on_c, 0, 74, 75
2, 520316, Note_off_c, 0, 74, 64
2, 520320, Note_on_c, 0, 64, 75
2, 520412, Note_off_c, 0, 64, 64
2, 520416, Note_on_c, 0, 74, 75
2, 520508, Note_off_c, 0, 74, 64
2, 520512, Note_on_c, 0, 66, 75
2, 520604, Note_off_c, 0, 66, 64
2, 520608, Note_on_c, 0, 74, 75
2, 520700, Note_off_c, 0, 74, 64
2, 520704, Note_on_c, 0, 67, 75
2, 520796, Note_off_c, 0, 67, 64
2, 520800, Note_on_c, 0, 74, 75
2, 520892, Note_off_c, 0, 74, 64
2, 520896, Note_on_c, 0, 66, 75
2, 520988, Note_off_c, 0, 66, 64
2, 520992, Note_on_c, 0, 74, 75
2, 521084, Note_off_c, 0, 74, 64
2, 521088, Note_on_c, 0, 67, 75
2, 521180, Note_off_c, 0, 67, 64
2, 521184, Note_on_c, 0, 74, 75
2, 521276, Note_off_c, 0, 74, 64
2, 521280, Note_on_c, 0, 64, 75
2, 521372, Note_off_c, 0, 64, 64
2, 521376, Note_on_c, 0, 74, 75
2, 521468, Note_off_c, 0, 74, 64
2, 521472, Note_on_c, 0, 65, 75
2, 521564, Note_off_c, 0, 65, 64
2, 521568, Note_on_c, 0, 74, 75
2, 521660, Note_off_c, 0, 74, 64
2, 521664, Note_on_c, 0, 64, 75
2, 521756, Note_off_c, 0, 64, 64
2, 521760, Note_on_c, 0, 74, 75
2, 521852, Note_off_c, 0, 74, 64
2, 521856, Note_on_c, 0, 66, 75
2, 521948, Note_off_c, 0, 66, 64
2, 521952, Note_on_c, 0, 74, 75
2, 522044, Note_off_c, 0, 74, 64
2, 522048, Note_on_c, 0, 68, 75
2, 522140, Note_off_c, 0, 68, 64
2, 522144, Note_on_c, 0, 74, 75
2, 522236, Note_off_c, 0, 74, 64
2, 522240, Note_on_c, 0, 69, 75
2, 522332, Note_off_c, 0, 69, 64
2, 522336, Note_on_c, 0, 74, 75
2, 522428, Note_off_c, 0, 74, 64
2, 522432, Note_on_c, 0, 68, 75
2, 522524, Note_off_c, 0, 68, 64
2, 522528, Note_on_c, 0, 74, 75
2, 522620, Note_off_c, 0, 74, 64
2, 522624, Note_on_c, 0, 69, 75
2, 522716, Note_off_c, 0, 69, 64
2, 522720, Note_on_c, 0, 74, 75
2, 522812, Note_off_c, 0, 74, 64
2, 522816, Note_on_c, 0, 66, 75
2, 522908, Note_off_c, 0, 66, 64
2, 522912, Note_on_c, 0, 74, 75
2, 523004, Note_off_c, 0, 74, 64
2, 523008, Note_on_c, 0, 67, 75
2, 523100, Note_off_c, 0, 67, 64
2, 523104, Note_on_c, 0, 74, 75
2, 523196, Note_off_c, 0, 74, 64
2, 523200, Note_on_c, 0, 66, 75
2, 523292, Note_off_c, 0, 66, 64
2, 523296, Note_on_c, 0, 74, 75
2, 523388, Note_off_c, 0, 74, 64
2, 523392, Note_on_c, 0, 67, 75
2, 523484, Note_off_c, 0, 67, 64
2, 523488, Note_on_c, 0, 74, 75
2, 523580, Note_off_c, 0, 74, 64
2, 523584, Note_on_c, 0, 69, 75
2, 523676, Note_off_c, 0, 69, 64
2, 523680, Note_on_c, 0, 74, 75
2, 523772, Note_off_c, 0, 74, 64
2, 523776, Note_on_c, 0, 70, 75
2, 523868, Note_off_c, 0, 70, 64
2, 523872, Note_on_c, 0, 74, 80
2, 523964, Note_off_c, 0, 74, 64
2, 523968, Note_on_c, 0, 79, 83
2, 524060, Note_off_c, 0, 79, 64
2, 524064, Note_on_c, 0, 74, 80
2, 524156, Note_off_c, 0, 74, 64
2, 524160, Note_on_c, 0, 69, 75
2, 524252, Note_off_c, 0, 69, 64
2, 524256, Note_on_c, 0, 74, 80
2, 524348, Note_off_c, 0, 74, 64
2, 524352, Note_on_c, 0, 78, 83
2, 524444, Note_off_c, 0, 78, 64
2, 524448, Note_on_c, 0, 74, 80
2, 524540, Note_off_c, 0, 74, 64
2, 524544, Note_on_c, 0, 82, 79
2, 524636, Note_off_c, 0, 82, 64
2, 524640, Note_on_c, 0, 74, 75
2, 524732, Note_off_c, 0, 74, 64
2, 524736, Note_on_c, 0, 82, 79
2, 524828, Note_off_c, 0, 82, 64
2, 524832, Note_on_c, 0, 74, 75
2, 524924, Note_off_c, 0, 74, 64
2, 524928, Note_on_c, 0, 81, 78
2, 525020, Note_off_c, 0, 81, 64
2, 525024, Note_on_c, 0, 74, 75
2, 525116, Note_off_c, 0, 74, 64
2, 525120, Note_on_c, 0, 81, 78
2, 525212, Note_off_c, 0, 81, 64
2, 525216, Note_on_c, 0, 74, 75
2, 525308, Note_off_c, 0, 74, 64
2, 525312, Note_on_c, 0, 70, 75
2, 525404, Note_off_c, 0, 70, 64
2, 525408, Note_on_c, 0, 74, 80
2, 525500, Note_off_c, 0, 74, 64
2, 525504, Note_on_c, 0, 79, 83
2, 525596, Note_off_c, 0, 79, 64
2, 525600, Note_on_c, 0, 74, 80
2, 525692, Note_off_c, 0, 74, 64
2, 525696, Note_on_c, 0, 69, 75
2, 525788, Note_off_c, 0, 69, 64
2, 525792, Note_on_c, 0, 74, 80
2, 525884, Note_off_c, 0, 74, 64
2, 525888, Note_on_c, 0, 78, 83
2, 525980, Note_off_c, 0, 78, 64
2, 525984, Note_on_c, 0, 74, 80
2, 526076, Note_off_c, 0, 74, 64
2, 526080, Note_on_c, 0, 82, 79
2, 526172, Note_off_c, 0, 82, 64
2, 526176, Note_on_c, 0, 74, 75
2, 526268, Note_off_c, 0, 74, 64
2, 526272, Note_on_c, 0, 82, 79
2, 526364, Note_off_c, 0, 82, 64
2, 526368, Note_on_c, 0, 74, 75
2, 526460, Note_off_c, 0, 74, 64
2, 526464, Note_on_c, 0, 81, 78
2, 526556, Note_off_c, 0, 81, 64
2, 526560, Note_on_c, 0, 74, 75
2, 526652, Note_off_c, 0, 74, 64
2, 526656, Note_on_c, 0, 81, 78
2, 526748, Note_off_c, 0, 81, 64
2, 526752, Note_on_c, 0, 74, 75
2, 526844, Note_off_c, 0, 74, 64
2, 526848, Note_on_c, 0, 70, 75
2, 526940, Note_off_c, 0, 70, 64
2, 526944, Note_on_c, 0, 74, 80
2, 527036, Note_off_c, 0, 74, 64
2, 527040, Note_on_c, 0, 79, 83
2, 527132, Note_off_c, 0, 79, 64
2, 527136, Note_on_c, 0, 74, 80
2, 527228, Note_off_c, 0, 74, 64
2, 527232, Note_on_c, 0, 69, 75
2, 527324, Note_off_c, 0, 69, 64
2, 527328, Note_on_c, 0, 74, 80
2, 527420, Note_off_c, 0, 74, 64
2, 527424, Note_on_c, 0, 78, 83
2, 527516, Note_off_c, 0, 78, 64
2, 527520, Note_on_c, 0, 74, 80
2, 527612, Note_off_c, 0, 74, 64
2, 527616, Note_on_c, 0, 82, 79
2, 527708, Note_off_c, 0, 82, 64
2, 527712, Note_on_c, 0, 74, 75
2, 527804, Note_off_c, 0, 74, 64
2, 527808, Note_on_c, 0, 82, 79
2, 527900, Note_off_c, 0, 82, 64
2, 527904, Note_on_c, 0, 74, 75
2, 527996, Note_off_c, 0, 74, 64
2, 528000, Note_on_c, 0, 81, 78
2, 528092, Note_off_c, 0, 81, 64
2, 528096, Note_on_c, 0, 74, 75
2, 528188, Note_off_c, 0, 74, 64
2, 528192, Note_on_c, 0, 81, 78
2, 528284, Note_off_c, 0, 81, 64
2, 528288, Note_on_c, 0, 74, 75
2, 528380, Note_off_c, 0, 74, 64
2, 528384, Note_on_c, 0, 70, 75
2, 528476, Note_off_c, 0, 70, 64
2, 528480, Note_on_c, 0, 74, 79
2, 528572, Note_off_c, 0, 74, 64
2, 528576, Note_on_c, 0, 80, 82
2, 528668, Note_off_c, 0, 80, 64
2, 528672, Note_on_c, 0, 74, 79
2, 528764, Note_off_c, 0, 74, 64
2, 528768, Note_on_c, 0, 80, 75
2, 528860, Note_off_c, 0, 80, 64
2, 528864, Note_on_c, 0, 74, 79
2, 528956, Note_off_c, 0, 74, 64
2, 528960, Note_on_c, 0, 80, 82
2, 529052, Note_off_c, 0, 80, 64
2, 529056, Note_on_c, 0, 74, 79
2, 529148, Note_off_c, 0, 74, 64
2, 529152, Note_on_c, 0, 70, 75
2, 529244, Note_off_c, 0, 70, 64
2, 529248, Note_on_c, 0, 74, 75
2, 529340, Note_off_c, 0, 74, 64
2, 529344, Note_on_c, 0, 80, 75
2, 529436, Note_off_c, 0, 80, 64
2, 529440, Note_on_c, 0, 74, 75
2, 529532, Note_off_c, 0, 74, 64
2, 529536, Note_on_c, 0, 80, 75
2, 529628, Note_off_c, 0, 80, 64
2, 529632, Note_on_c, 0, 74, 75
2, 529724, Note_off_c, 0, 74, 64
2, 529728, Note_on_c, 0, 80, 75
2, 529820, Note_off_c, 0, 80, 64
2, 529824, Note_on_c, 0, 74, 75
2, 529916, Note_off_c, 0, 74, 64
2, 529920, Note_on_c, 0, 73, 75
2, 530012, Note_off_c, 0, 73, 64
2, 530016, Note_on_c, 0, 76, 79
2, 530108, Note_off_c, 0, 76, 64
2, 530112, Note_on_c, 0, 79, 82
2, 530204, Note_off_c, 0, 79, 64
2, 530208, Note_on_c, 0, 76, 79
2, 530300, Note_off_c, 0, 76, 64
2, 530304, Note_on_c, 0, 79, 82
2, 530396, Note_off_c, 0, 79, 64
2, 530400, Note_on_c, 0, 76, 79
2, 530492, Note_off_c, 0, 76, 64
2, 530496, Note_on_c, 0, 79, 82
2, 530588, Note_off_c, 0, 79, 64
2, 530592, Note_on_c, 0, 76, 79
2, 530684, Note_off_c, 0, 76, 64
2, 530688, Note_on_c, 0, 73, 75
2, 530780, Note_off_c, 0, 73, 64
2, 530784, Note_on_c, 0, 76, 79
2, 530876, Note_off_c, 0, 76, 64
2, 530880, Note_on_c, 0, 79, 82
2, 530972, Note_off_c, 0, 79, 64
2, 530976, Note_on_c, 0, 76, 79
2, 531068, Note_off_c, 0, 76, 64
2, 531072, Note_on_c, 0, 79, 82
2, 531164, Note_off_c, 0, 79, 64
2, 531168, Note_on_c, 0, 76, 79
2, 531260, Note_off_c, 0, 76, 64
2, 531264, Note_on_c, 0, 79, 82
2, 531356, Note_off_c, 0, 79, 64
2, 531360, Note_on_c, 0, 76, 79
2, 531452, Note_off_c, 0, 76, 64
2, 531456, Note_on_c, 0, 69, 75
2, 531548, Note_off_c, 0, 69, 64
2, 531552, Note_on_c, 0, 74, 79
2, 531644, Note_off_c, 0, 74, 64
2, 531648, Note_on_c, 0, 78, 82
2, 531740, Note_off_c, 0, 78, 64
2, 531744, Note_on_c, 0, 74, 79
2, 531836, Note_off_c, 0, 74, 64
2, 531840, Note_on_c, 0, 78, 82
2, 531932, Note_off_c, 0, 78, 64
2, 531936, Note_on_c, 0, 74, 79
2, 532028, Note_off_c, 0, 74, 64
2, 532032, Note_on_c, 0, 78, 82
2, 532124, Note_off_c, 0, 78, 64
2, 532128, Note_on_c, 0, 74, 79
2, 532220, Note_off_c, 0, 74, 64
2, 532224, Note_on_c, 0, 70, 75
2, 532316, Note_off_c, 0, 70, 64
2, 532320, Note_on_c, 0, 74, 79
2, 532412, Note_off_c, 0, 74, 64
2, 532416, Note_on_c, 0, 78, 82
2, 532508, Note_off_c, 0, 78, 64
2, 532512, Note_on_c, 0, 74, 79
2, 532604, Note_off_c, 0, 74, 64
2, 532608, Note_on_c, 0, 78, 82
2, 532700, Note_off_c, 0, 78, 64
2, 532704, Note_on_c, 0, 74, 79
2, 532796, Note_off_c, 0, 74, 64
2, 532800, Note_on_c, 0, 78, 82
2, 532892, Note_off_c, 0, 78, 64
2, 532896, Note_on_c, 0, 74, 79
2, 532988, Note_off_c, 0, 74, 64
2, 532992, Note_on_c, 0, 74, 73
2, 533084, Note_off_c, 0, 74, 64
2, 533088, Note_on_c, 0, 77, 75
2, 533180, Note_off_c, 0, 77, 64
2, 533184, Note_on_c, 0, 86, 81
2, 533276, Note_off_c, 0, 86, 64
2, 533280, Note_on_c, 0, 77, 75
2, 533372, Note_off_c, 0, 77, 64
2, 533376, Note_on_c, 0, 86, 81
2, 533468, Note_off_c, 0, 86, 64
2, 533472, Note_on_c, 0, 77, 75
2, 533564, Note_off_c, 0, 77, 64
2, 533568, Note_on_c, 0, 86, 81
2, 533660, Note_off_c, 0, 86, 64
2, 533664, Note_on_c, 0, 77, 75
2, 533756, Note_off_c, 0, 77, 64
2, 533760, Note_on_c, 0, 74, 75
2, 533852, Note_off_c, 0, 74, 64
2, 533856, Note_on_c, 0, 77, 75
2, 533948, Note_off_c, 0, 77, 64
2, 533952, Note_on_c, 0, 86, 81
2, 534044, Note_off_c, 0, 86, 64
2, 534048, Note_on_c, 0, 77, 75
2, 534140, Note_off_c, 0, 77, 64
2, 534144, Note_on_c, 0, 86, 81
2, 534236, Note_off_c, 0, 86, 64
2, 534240, Note_on_c, 0, 77, 75
2, 534332, Note_off_c, 0, 77, 64
2, 534336, Note_on_c, 0, 86, 81
2, 534428, Note_off_c, 0, 86, 64
2, 534432, Note_on_c, 0, 77, 75
2, 534524, Note_off_c, 0, 77, 64
2, 534624, Note_on_c, 0, 82, 79
2, 534716, Note_off_c, 0, 82, 64
2, 534720, Note_on_c, 0, 87, 81
2, 534812, Note_off_c, 0, 87, 64
2, 534816, Note_on_c, 0, 82, 79
2, 534908, Note_off_c, 0, 82, 64
2, 534912, Note_on_c, 0, 79, 75
2, 535004, Note_off_c, 0, 79, 64
2, 535008, Note_on_c, 0, 82, 75
2, 535100, Note_off_c, 0, 82, 64
2, 535104, Note_on_c, 0, 75, 75
2, 535196, Note_off_c, 0, 75, 64
2, 535200, Note_on_c, 0, 79, 75
2, 535292, Note_off_c, 0, 79, 64
2, 535296, Note_on_c, 0, 70, 75
2, 535388, Note_off_c, 0, 70, 64
2, 535392, Note_on_c, 0, 79, 78
2, 535484, Note_off_c, 0, 79, 64
2, 535488, Note_on_c, 0, 82, 79
2, 535580, Note_off_c, 0, 82, 64
2, 535584, Note_on_c, 0, 79, 78
2, 535676, Note_off_c, 0, 79, 64
2, 535680, Note_on_c, 0, 75, 75
2, 535772, Note_off_c, 0, 75, 64
2, 535776, Note_on_c, 0, 79, 75
2, 535868, Note_off_c, 0, 79, 64
2, 535872, Note_on_c, 0, 70, 75
2, 535964, Note_off_c, 0, 70, 64
2, 535968, Note_on_c, 0, 75, 75
2, 536060, Note_off_c, 0, 75, 64
2, 536064, Note_on_c, 0, 71, 75
2, 536156, Note_off_c, 0, 71, 64
2, 536160, Note_on_c, 0, 74, 75
2, 536252, Note_off_c, 0, 74, 64
2, 536256, Note_on_c, 0, 77, 75
2, 536348, Note_off_c, 0, 77, 64
2, 536352, Note_on_c, 0, 74, 75
2, 536444, Note_off_c, 0, 74, 64
2, 536448, Note_on_c, 0, 71, 75
2, 536540, Note_off_c, 0, 71, 64
2, 536544, Note_on_c, 0, 74, 75
2, 536636, Note_off_c, 0, 74, 64
2, 536640, Note_on_c, 0, 65, 75
2, 536732, Note_off_c, 0, 65, 64
2, 536736, Note_on_c, 0, 71, 75
2, 536828, Note_off_c, 0, 71, 64
2, 536832, Note_on_c, 0, 62, 75
2, 536924, Note_off_c, 0, 62, 64
2, 536928, Note_on_c, 0, 71, 75
2, 537020, Note_off_c, 0, 71, 64
2, 537024, Note_on_c, 0, 74, 75
2, 537116, Note_off_c, 0, 74, 64
2, 537120, Note_on_c, 0, 71, 75
2, 537212, Note_off_c, 0, 71, 64
2, 537216, Note_on_c, 0, 65, 75
2, 537308, Note_off_c, 0, 65, 64
2, 537312, Note_on_c, 0, 71, 75
2, 537404, Note_off_c, 0, 71, 64
2, 537408, Note_on_c, 0, 62, 75
2, 537500, Note_off_c, 0, 62, 64
2, 537504, Note_on_c, 0, 65, 75
2, 537596, Note_off_c, 0, 65, 64
2, 537696, Note_on_c, 0, 57, 75
2, 537788, Note_off_c, 0, 57, 64
2, 537792, Note_on_c, 0, 58, 75
2, 537884, Note_off_c, 0, 58, 64
2, 537888, Note_on_c, 0, 57, 75
2, 537980, Note_off_c, 0, 57, 64
2, 537984, Note_on_c, 0, 58, 75
2, 538076, Note_off_c, 0, 58, 64
2, 538080, Note_on_c, 0, 59, 75
2, 538172, Note_off_c, 0, 59, 64
2, 538176, Note_on_c, 0, 60, 75
2, 538268, Note_off_c, 0, 60, 64
2, 538272, Note_on_c, 0, 59, 75
2, 538364, Note_off_c, 0, 59, 64
2, 538368, Note_on_c, 0, 60, 75
2, 538460, Note_off_c, 0, 60, 64
2, 538464, Note_on_c, 0, 61, 75
2, 538556, Note_off_c, 0, 61, 64
2, 538560, Note_on_c, 0, 62, 75
2, 538652, Note_off_c, 0, 62, 64
2, 538656, Note_on_c, 0, 61, 75
2, 538748, Note_off_c, 0, 61, 64
2, 538752, Note_on_c, 0, 62, 75
2, 538844, Note_off_c, 0, 62, 64
2, 538848, Note_on_c, 0, 64, 75
2, 538940, Note_off_c, 0, 64, 64
2, 538944, Note_on_c, 0, 65, 75
2, 539036, Note_off_c, 0, 65, 64
2, 539040, Note_on_c, 0, 64, 75
2, 539132, Note_off_c, 0, 64, 64
2, 539136, Note_on_c, 0, 65, 75
2, 539228, Note_off_c, 0, 65, 64
2, 539232, Note_on_c, 0, 66, 75
2, 539324, Note_off_c, 0, 66, 64
2, 539328, Note_on_c, 0, 67, 75
2, 539420, Note_off_c, 0, 67, 64
2, 539424, Note_on_c, 0, 65, 75
2, 539516, Note_off_c, 0, 65, 64
2, 539520, Note_on_c, 0, 67, 75
2, 539612, Note_off_c, 0, 67, 64
2, 539616, Note_on_c, 0, 68, 75
2, 539708, Note_off_c, 0, 68, 64
2, 539712, Note_on_c, 0, 69, 75
2, 539804, Note_off_c, 0, 69, 64
2, 539808, Note_on_c, 0, 68, 75
2, 539900, Note_off_c, 0, 68, 64
2, 539904, Note_on_c, 0, 69, 75
2, 539996, Note_off_c, 0, 69, 64
2, 540000, Note_on_c, 0, 69, 75
2, 540092, Note_off_c, 0, 69, 64
2, 540096, Note_on_c, 0, 70, 75
2, 540188, Note_off_c, 0, 70, 64
2, 540192, Note_on_c, 0, 69, 75
2, 540284, Note_off_c, 0, 69, 64
2, 540288, Note_on_c, 0, 70, 75
2, 540380, Note_off_c, 0, 70, 64
2, 540384, Note_on_c, 0, 71, 75
2, 540476, Note_off_c, 0, 71, 64
2, 540480, Note_on_c, 0, 72, 75
2, 540572, Note_off_c, 0, 72, 64
2, 540576, Note_on_c, 0, 71, 75
2, 540668, Note_off_c, 0, 71, 64
2, 540672, Note_on_c, 0, 72, 75
2, 540672, Note_on_c, 0, 60, 75
2, 540764, Note_off_c, 0, 72, 64
2, 540764, Note_off_c, 0, 60, 64
2, 540768, Note_on_c, 0, 73, 75
2, 540768, Note_on_c, 0, 61, 75
2, 540860, Note_off_c, 0, 73, 64
2, 540860, Note_off_c, 0, 61, 64
2, 540864, Note_on_c, 0, 74, 75
2, 540864, Note_on_c, 0, 62, 75
2, 540944, Note_on_c, 0, 61, 75
2, 540956, Note_off_c, 0, 74, 64
2, 540956, Note_off_c, 0, 62, 64
2, 540960, Note_on_c, 0, 73, 75
2, 541036, Note_off_c, 0, 61, 64
2, 541052, Note_off_c, 0, 73, 64
2, 541056, Note_on_c, 0, 74, 75
2, 541056, Note_on_c, 0, 62, 75
2, 541136, Note_on_c, 0, 64, 75
2, 541148, Note_off_c, 0, 74, 64
2, 541148, Note_off_c, 0, 62, 64
2, 541152, Note_on_c, 0, 76, 75
2, 541228, Note_off_c, 0, 64, 64
2, 541244, Note_off_c, 0, 76, 64
2, 541248, Note_on_c, 0, 77, 75
2, 541248, Note_on_c, 0, 65, 75
2, 541328, Note_on_c, 0, 64, 75
2, 541340, Note_off_c, 0, 77, 64
2, 541340, Note_off_c, 0, 65, 64
2, 541344, Note_on_c, 0, 76, 75
2, 541420, Note_off_c, 0, 64, 64
2, 541436, Note_off_c, 0, 76, 64
2, 541440, Note_on_c, 0, 77, 75
2, 541440, Note_on_c, 0, 65, 75
2, 541532, Note_off_c, 0, 77, 64
2, 541532, Note_off_c, 0, 65, 64
2, 541536, Note_on_c, 0, 78, 75
2, 541536, Note_on_c, 0, 66, 75
2, 541616, Note_on_c, 0, 67, 75
2, 541628, Note_off_c, 0, 78, 64
2, 541628, Note_off_c, 0, 66, 64
2, 541632, Note_on_c, 0, 79, 75
2, 541708, Note_off_c, 0, 67, 64
2, 541724, Note_off_c, 0, 79, 64
2, 541728, Note_on_c, 0, 78, 75
2, 541728, Note_on_c, 0, 66, 75
2, 541820, Note_off_c, 0, 78, 64
2, 541820, Note_off_c, 0, 66, 64
2, 541824, Note_on_c, 0, 79, 75
2, 541824, Note_on_c, 0, 67, 75
2, 541916, Note_off_c, 0, 79, 64
2, 541916, Note_off_c, 0, 67, 64
2, 541920, Note_on_c, 0, 80, 75
2, 541920, Note_on_c, 0, 68, 75
2, 542012, Note_off_c, 0, 80, 64
2, 542012, Note_off_c, 0, 68, 64
2, 542016, Note_on_c, 0, 81, 75
2, 542016, Note_on_c, 0, 69, 75
2, 542108, Note_off_c, 0, 81, 64
2, 542108, Note_off_c, 0, 69, 64
2, 542112, Note_on_c, 0, 80, 75
2, 542112, Note_on_c, 0, 68, 75
2, 542204, Note_off_c, 0, 80, 64
2, 542204, Note_off_c, 0, 68, 64
2, 542208, Note_on_c, 0, 81, 75
2, 542208, Note_on_c, 0, 69, 75
2, 542300, Note_off_c, 0, 81, 64
2, 542304, Note_on_c, 0, 77, 75
2, 542396, Note_off_c, 0, 77, 64
2, 542400, Note_on_c, 0, 86, 79
2, 542492, Note_off_c, 0, 86, 64
2, 542496, Note_on_c, 0, 81, 75
2, 542588, Note_off_c, 0, 69, 64
2, 542588, Note_off_c, 0, 81, 64
2, 542592, Note_on_c, 0, 89, 81
2, 542684, Note_off_c, 0, 89, 64
2, 542688, Note_on_c, 0, 86, 79
2, 542780, Note_off_c, 0, 86, 64
2, 542784, Note_on_c, 0, 81, 75
2, 542876, Note_off_c, 0, 81, 64
2, 542880, Note_on_c, 0, 86, 79
2, 542972, Note_off_c, 0, 86, 64
2, 542976, Note_on_c, 0, 77, 75
2, 543056, Note_on_c, 0, 81, 78
2, 543068, Note_off_c, 0, 77, 64
2, 543148, Note_off_c, 0, 81, 64
2, 543168, Note_on_c, 0, 86, 80
2, 543260, Note_off_c, 0, 86, 64
2, 543264, Note_on_c, 0, 81, 78
2, 543356, Note_off_c, 0, 81, 64
2, 543360, Note_on_c, 0, 77, 75
2, 543452, Note_off_c, 0, 77, 64
2, 543456, Note_on_c, 0, 81, 75
2, 543548, Note_off_c, 0, 81, 64
2, 543552, Note_on_c, 0, 74, 75
2, 543644, Note_off_c, 0, 74, 64
2, 543648, Note_on_c, 0, 77, 75
2, 543740, Note_off_c, 0, 77, 64
2, 543744, Note_on_c, 0, 69, 75
2, 544800, Note_on_c, 0, 71, 72
2, 544832, Note_off_c, 0, 71, 64
2, 544848, Note_on_c, 0, 73, 73
2, 544880, Note_off_c, 0, 73, 64
2, 544896, Note_on_c, 0, 74, 74
2, 544928, Note_off_c, 0, 74, 64
2, 544944, Note_on_c, 0, 76, 75
2, 544976, Note_off_c, 0, 76, 64
2, 544992, Note_on_c, 0, 77, 76
2, 545024, Note_off_c, 0, 77, 64
2, 545040, Note_on_c, 0, 79, 78
2, 545072, Note_off_c, 0, 79, 64
2, 545088, Note_on_c, 0, 81, 79
2, 545120, Note_off_c, 0, 81, 64
2, 545136, Note_on_c, 0, 83, 80
2, 545168, Note_off_c, 0, 83, 64
2, 545184, Note_on_c, 0, 85, 81
2, 545216, Note_off_c, 0, 85, 64
2, 545232, Note_on_c, 0, 86, 82
2, 545264, Note_off_c, 0, 86, 64
2, 545276, Note_off_c, 0, 69, 64
2, 545280, Note_on_c, 0, 76, 79
2, 545320, Note_off_c, 0, 76, 64
2, 545328, Note_on_c, 0, 77, 80
2, 545368, Note_off_c, 0, 77, 64
2, 545376, Note_on_c, 0, 76, 79
2, 545416, Note_off_c, 0, 76, 64
2, 545424, Note_on_c, 0, 77, 80
2, 545464, Note_off_c, 0, 77, 64
2, 545472, Note_on_c, 0, 76, 79
2, 545512, Note_off_c, 0, 76, 64
2, 545520, Note_on_c, 0, 77, 80
2, 545560, Note_off_c, 0, 77, 64
2, 545568, Note_on_c, 0, 76, 79
2, 545608, Note_off_c, 0, 76, 64
2, 545616, Note_on_c, 0, 77, 80
2, 545656, Note_off_c, 0, 77, 64
2, 545664, Note_on_c, 0, 76, 79
2, 545704, Note_off_c, 0, 76, 64
2, 545712, Note_on_c, 0, 77, 80
2, 545752, Note_off_c, 0, 77, 64
2, 545760, Note_on_c, 0, 76, 79
2, 545800, Note_off_c, 0, 76, 64
2, 545808, Note_on_c, 0, 77, 80
2, 545848, Note_off_c, 0, 77, 64
2, 545856, Note_on_c, 0, 76, 79
2, 545896, Note_off_c, 0, 76, 64
2, 545904, Note_on_c, 0, 77, 80
2, 545944, Note_off_c, 0, 77, 64
2, 545952, Note_on_c, 0, 76, 79
2, 545992, Note_off_c, 0, 76, 64
2, 546000, Note_on_c, 0, 77, 80
2, 546040, Note_off_c, 0, 77, 64
2, 546048, Note_on_c, 0, 76, 79
2, 546088, Note_off_c, 0, 76, 64
2, 546096, Note_on_c, 0, 77, 80
2, 546136, Note_off_c, 0, 77, 64
2, 546144, Note_on_c, 0, 76, 79
2, 546184, Note_off_c, 0, 76, 64
2, 546192, Note_on_c, 0, 77, 80
2, 546232, Note_off_c, 0, 77, 64
2, 546240, Note_on_c, 0, 76, 79
2, 546280, Note_off_c, 0, 76, 64
2, 546288, Note_on_c, 0, 77, 80
2, 546328, Note_off_c, 0, 77, 64
2, 546336, Note_on_c, 0, 76, 79
2, 546376, Note_off_c, 0, 76, 64
2, 546384, Note_on_c, 0, 77, 80
2, 546424, Note_off_c, 0, 77, 64
2, 546432, Note_on_c, 0, 76, 79
2, 546472, Note_off_c, 0, 76, 64
2, 546480, Note_on_c, 0, 77, 80
2, 546520, Note_off_c, 0, 77, 64
2, 546528, Note_on_c, 0, 76, 79
2, 546568, Note_off_c, 0, 76, 64
2, 546576, Note_on_c, 0, 77, 80
2, 546616, Note_off_c, 0, 77, 64
2, 546624, Note_on_c, 0, 76, 79
2, 546664, Note_off_c, 0, 76, 64
2, 546672, Note_on_c, 0, 77, 80
2, 546712, Note_off_c, 0, 77, 64
2, 546720, Note_on_c, 0, 74, 78
2, 546760, Note_off_c, 0, 74, 64
2, 546768, Note_on_c, 0, 76, 79
2, 546808, Note_off_c, 0, 76, 64
2, 546816, Note_on_c, 0, 74, 80
2, 547196, Note_off_c, 0, 74, 64
2, 547392, Note_on_c, 0, 57, 94
2, 547452, Note_off_c, 0, 57, 64
2, 547456, Note_on_c, 0, 58, 94
2, 547516, Note_off_c, 0, 58, 64
2, 547520, Note_on_c, 0, 60, 94
2, 547580, Note_off_c, 0, 60, 64
2, 547584, Note_on_c, 0, 62, 94
2, 547964, Note_off_c, 0, 62, 64
2, 548928, Note_on_c, 0, 69, 94
2, 548988, Note_off_c, 0, 69, 64
2, 548992, Note_on_c, 0, 71, 94
2, 549052, Note_off_c, 0, 71, 64
2, 549056, Note_on_c, 0, 73, 94
2, 549116, Note_off_c, 0, 73, 64
2, 549120, Note_on_c, 0, 74, 94
2, 549500, Note_off_c, 0, 74, 64
2, 549696, Note_on_c, 0, 81, 95
2, 549756, Note_off_c, 0, 81, 64
2, 549760, Note_on_c, 0, 83, 96
2, 549820, Note_off_c, 0, 83, 64
2, 549824, Note_on_c, 0, 85, 97
2, 549884, Note_off_c, 0, 85, 64
2, 549888, Note_on_c, 0, 86, 98
2, 550268, Note_off_c, 0, 86, 64
2, 550272, Note_on_c, 0, 81, 96
2, 550272, Note_on_c, 0, 69, 94
2, 550460, Note_off_c, 0, 81, 64
2, 550460, Note_off_c, 0, 69, 64
2, 550656, Note_on_c, 0, 77, 95
2, 550656, Note_on_c, 0, 65, 95
2, 550844, Note_off_c, 0, 77, 64
2, 550844, Note_off_c, 0, 65, 64
2, 551040, Note_on_c, 0, 74, 94
2, 551040, Note_on_c, 0, 62, 96
2, 551228, Note_off_c, 0, 74, 64
2, 551228, Note_off_c, 0, 62, 64
2, 551424, Note_on_c, 0, 61, 94
2, 551424, Note_on_c, 0, 55, 94
2, 551516, Note_off_c, 0, 55, 64
2, 551520, Note_on_c, 0, 58, 94
2, 551612, Note_off_c, 0, 58, 64
2, 551616, Note_on_c, 0, 55, 94
2, 551708, Note_off_c, 0, 55, 64
2, 551712, Note_on_c, 0, 58, 94
2, 551804, Note_off_c, 0, 58, 64
2, 551808, Note_on_c, 0, 55, 94
2, 551900, Note_off_c, 0, 55, 64
2, 551904, Note_on_c, 0, 58, 94
2, 551996, Note_off_c, 0, 58, 64
2, 552000, Note_on_c, 0, 55, 94
2, 552092, Note_off_c, 0, 55, 64
2, 552096, Note_on_c, 0, 58, 94
2, 552188, Note_off_c, 0, 61, 64
2, 552188, Note_off_c, 0, 58, 64
2, 552192, Note_on_c, 0, 55, 94
2, 552284, Note_off_c, 0, 55, 64
2, 552288, Note_on_c, 0, 58, 94
2, 552380, Note_off_c, 0, 58, 64
2, 552384, Note_on_c, 0, 55, 94
2, 552476, Note_off_c, 0, 55, 64
2, 552480, Note_on_c, 0, 58, 94
2, 552572, Note_off_c, 0, 58, 64
2, 552768, Note_on_c, 0, 76, 94
2, 552808, Note_off_c, 0, 76, 64
2, 552816, Note_on_c, 0, 77, 94
2, 552856, Note_off_c, 0, 77, 64
2, 552864, Note_on_c, 0, 79, 94
2, 552904, Note_off_c, 0, 79, 64
2, 552912, Note_on_c, 0, 81, 94
2, 552952, Note_off_c, 0, 81, 64
2, 552960, Note_on_c, 0, 82, 94
2, 553340, Note_off_c, 0, 82, 64
2, 553344, Note_on_c, 0, 65, 94
2, 553344, Note_on_c, 0, 77, 94
2, 553532, Note_off_c, 0, 65, 64
2, 553532, Note_off_c, 0, 77, 64
2, 553728, Note_on_c, 0, 74, 94
2, 553728, Note_on_c, 0, 62, 94
2, 553916, Note_off_c, 0, 74, 64
2, 553916, Note_off_c, 0, 62, 64
2, 554112, Note_on_c, 0, 70, 94
2, 554112, Note_on_c, 0, 58, 94
2, 554300, Note_off_c, 0, 70, 64
2, 554300, Note_off_c, 0, 58, 64
2, 554496, Note_on_c, 0, 69, 94
2, 554496, Note_on_c, 0, 57, 94
2, 555072, Note_on_c, 0, 70, 94
2, 555072, Note_on_c, 0, 58, 94
2, 555260, Note_off_c, 0, 70, 64
2, 555260, Note_off_c, 0, 58, 64
2, 555264, Note_on_c, 0, 69, 94
2, 555264, Note_on_c, 0, 57, 94
2, 555452, Note_off_c, 0, 69, 64
2, 555452, Note_off_c, 0, 57, 64
2, 555456, Note_on_c, 0, 68, 94
2, 555456, Note_on_c, 0, 56, 94
2, 555632, Note_on_c, 0, 57, 94
2, 555644, Note_off_c, 0, 69, 64
2, 555644, Note_off_c, 0, 57, 64
2, 555644, Note_off_c, 0, 68, 64
2, 555644, Note_off_c, 0, 56, 64
2, 555648, Note_on_c, 0, 69, 94
2, 555820, Note_off_c, 0, 57, 64
2, 555836, Note_off_c, 0, 69, 64
2, 555840, Note_on_c, 0, 68, 94
2, 555840, Note_on_c, 0, 56, 94
2, 556028, Note_off_c, 0, 68, 64
2, 556028, Note_off_c, 0, 56, 64
2, 556032, Note_on_c, 0, 69, 94
2, 556032, Note_on_c, 0, 57, 94
2, 556608, Note_on_c, 0, 70, 94
2, 556608, Note_on_c, 0, 58, 94
2, 556796, Note_off_c, 0, 70, 64
2, 556796, Note_off_c, 0, 58, 64
2, 556800, Note_on_c, 0, 69, 94
2, 556800, Note_on_c, 0, 57, 94
2, 556988, Note_off_c, 0, 69, 64
2, 556988, Note_off_c, 0, 57, 64
2, 556992, Note_on_c, 0, 68, 94
2, 556992, Note_on_c, 0, 56, 94
2, 557168, Note_on_c, 0, 57, 94
2, 557180, Note_off_c, 0, 69, 64
2, 557180, Note_off_c, 0, 57, 64
2, 557180, Note_off_c, 0, 68, 64
2, 557180, Note_off_c, 0, 56, 64
2, 557184, Note_on_c, 0, 69, 94
2, 557356, Note_off_c, 0, 57, 64
2, 557372, Note_off_c, 0, 69, 64
2, 557376, Note_on_c, 0, 68, 94
2, 557376, Note_on_c, 0, 56, 94
2, 557564, Note_off_c, 0, 68, 64
2, 557564, Note_off_c, 0, 56, 64
2, 557568, Note_on_c, 0, 69, 94
2, 557568, Note_on_c, 0, 57, 94
2, 557936, Note_on_c, 0, 76, 94
2, 557948, Note_off_c, 0, 69, 64
2, 557948, Note_off_c, 0, 57, 64
2, 557952, Note_on_c, 0, 79, 94
2, 557952, Note_on_c, 0, 69, 94
2, 558316, Note_off_c, 0, 76, 64
2, 558332, Note_off_c, 0, 79, 64
2, 558332, Note_off_c, 0, 69, 64
2, 558720, Note_on_c, 0, 77, 94
2, 558720, Note_on_c, 0, 74, 94
2, 558720, Note_on_c, 0, 69, 94
2, 559100, Note_off_c, 0, 77, 64
2, 559100, Note_off_c, 0, 74, 64
2, 559100, Note_off_c, 0, 69, 64
2, 559488, Note_on_c, 0, 82, 95
2, 559488, Note_on_c, 0, 79, 95
2, 559488, Note_on_c, 0, 74, 95
2, 559488, Note_on_c, 0, 70, 95
2, 559868, Note_off_c, 0, 82, 64
2, 559868, Note_off_c, 0, 79, 64
2, 559868, Note_off_c, 0, 74, 64
2, 559868, Note_off_c, 0, 70, 64
2, 560256, Note_on_c, 0, 86, 97
2, 560256, Note_on_c, 0, 83, 96
2, 560256, Note_on_c, 0, 77, 95
2, 560256, Note_on_c, 0, 74, 94
2, 560636, Note_off_c, 0, 86, 64
2, 560636, Note_off_c, 0, 83, 64
2, 560636, Note_off_c, 0, 77, 64
2, 560636, Note_off_c, 0, 74, 64
2, 560640, Note_on_c, 0, 57, 99
2, 561404, Note_off_c, 0, 57, 64
2, 563712, Note_on_c, 0, 62, 96
2, 563804, Note_off_c, 0, 62, 64
2, 563808, Note_on_c, 0, 64, 96
2, 563900, Note_off_c, 0, 64, 64
2, 563904, Note_on_c, 0, 65, 97
2, 563996, Note_off_c, 0, 65, 64
2, 564000, Note_on_c, 0, 64, 97
2, 564092, Note_off_c, 0, 64, 64
2, 564096, Note_on_c, 0, 65, 97
2, 564188, Note_off_c, 0, 65, 64
2, 564192, Note_on_c, 0, 68, 97
2, 564284, Note_off_c, 0, 68, 64
2, 564288, Note_on_c, 0, 69, 97
2, 564380, Note_off_c, 0, 69, 64
2, 564384, Note_on_c, 0, 68, 97
2, 564476, Note_off_c, 0, 68, 64
2, 564480, Note_on_c, 0, 69, 97
2, 564572, Note_off_c, 0, 69, 64
2, 564576, Note_on_c, 0, 73, 98
2, 564668, Note_off_c, 0, 73, 64
2, 564672, Note_on_c, 0, 74, 98
2, 564764, Note_off_c, 0, 74, 64
2, 564768, Note_on_c, 0, 73, 98
2, 564848, Note_on_c, 0, 62, 98
2, 564860, Note_off_c, 0, 73, 64
2, 564864, Note_on_c, 0, 74, 98
2, 564940, Note_off_c, 0, 62, 64
2, 564944, Note_on_c, 0, 64, 98
2, 564956, Note_off_c, 0, 74, 64
2, 564960, Note_on_c, 0, 76, 98
2, 565036, Note_off_c, 0, 64, 64
2, 565040, Note_on_c, 0, 65, 98
2, 565052, Note_off_c, 0, 76, 64
2, 565056, Note_on_c, 0, 77, 98
2, 565132, Note_off_c, 0, 65, 64
2, 565136, Note_on_c, 0, 64, 98
2, 565148, Note_off_c, 0, 77, 64
2, 565152, Note_on_c, 0, 76, 98
2, 565228, Note_off_c, 0, 64, 64
2, 565244, Note_off_c, 0, 76, 64
2, 565248, Note_on_c, 0, 77, 100
2, 565248, Note_on_c, 0, 65, 99
2, 565340, Note_off_c, 0, 77, 64
2, 565340, Note_off_c, 0, 65, 64
2, 565344, Note_on_c, 0, 80, 103
2, 565344, Note_on_c, 0, 68, 99
2, 565436, Note_off_c, 0, 80, 64
2, 565436, Note_off_c, 0, 68, 64
2, 565440, Note_on_c, 0, 81, 104
2, 565440, Note_on_c, 0, 69, 99
2, 565532, Note_off_c, 0, 81, 64
2, 565532, Note_off_c, 0, 69, 64
2, 565536, Note_on_c, 0, 80, 103
2, 565536, Note_on_c, 0, 68, 99
2, 565628, Note_off_c, 0, 80, 64
2, 565628, Note_off_c, 0, 68, 64
2, 565632, Note_on_c, 0, 81, 105
2, 565632, Note_on_c, 0, 70, 99
2, 565724, Note_off_c, 0, 81, 64
2, 565724, Note_off_c, 0, 70, 64
2, 565728, Note_on_c, 0, 85, 106
2, 565728, Note_on_c, 0, 73, 99
2, 565820, Note_off_c, 0, 85, 64
2, 565820, Note_off_c, 0, 73, 64
2, 565824, Note_on_c, 0, 86, 107
2, 565824, Note_on_c, 0, 74, 99
2, 565916, Note_off_c, 0, 86, 64
2, 565916, Note_off_c, 0, 74, 64
2, 565920, Note_on_c, 0, 85, 109
2, 565920, Note_on_c, 0, 73, 99
2, 566012, Note_off_c, 0, 85, 64
2, 566012, Note_off_c, 0, 73, 64
2, 566016, Note_on_c, 0, 86, 110
2, 566016, Note_on_c, 0, 74, 100
2, 566108, Note_off_c, 0, 86, 64
2, 566108, Note_off_c, 0, 74, 64
2, 566112, Note_on_c, 0, 88, 111
2, 566112, Note_on_c, 0, 76, 100
2, 566204, Note_off_c, 0, 88, 64
2, 566204, Note_off_c, 0, 76, 64
2, 566208, Note_on_c, 0, 89, 112
2, 566208, Note_on_c, 0, 77, 100
2, 566300, Note_off_c, 0, 89, 64
2, 566300, Note_off_c, 0, 77, 64
2, 566304, Note_on_c, 0, 88, 111
2, 566304, Note_on_c, 0, 76, 100
2, 566396, Note_off_c, 0, 88, 64
2, 566396, Note_off_c, 0, 76, 64
2, 566400, Note_on_c, 0, 89, 112
2, 566400, Note_on_c, 0, 77, 100
2, 567072, Note_off_c, 0, 77, 64
2, 567072, Note_off_c, 0, 89, 64
2, 567072, Note_on_c, 0, 88, 111
2, 567072, Note_on_c, 0, 76, 103
2, 567164, Note_off_c, 0, 88, 64
2, 567164, Note_off_c, 0, 76, 64
2, 567168, Note_on_c, 0, 86, 110
2, 567168, Note_on_c, 0, 74, 104
2, 567260, Note_off_c, 0, 86, 64
2, 567260, Note_off_c, 0, 74, 64
2, 567264, Note_on_c, 0, 85, 109
2, 567264, Note_on_c, 0, 73, 104
2, 567356, Note_off_c, 0, 85, 64
2, 567356, Note_off_c, 0, 73, 64
2, 567360, Note_on_c, 0, 86, 107
2, 567360, Note_on_c, 0, 74, 104
2, 568032, Note_off_c, 0, 86, 64
2, 568032, Note_off_c, 0, 74, 64
2, 568032, Note_on_c, 0, 84, 109
2, 568032, Note_on_c, 0, 72, 105
2, 568124, Note_off_c, 0, 84, 64
2, 568124, Note_off_c, 0, 72, 64
2, 568128, Note_on_c, 0, 82, 111
2, 568128, Note_on_c, 0, 70, 105
2, 568220, Note_off_c, 0, 82, 64
2, 568220, Note_off_c, 0, 70, 64
2, 568224, Note_on_c, 0, 81, 110
2, 568224, Note_on_c, 0, 69, 105
2, 568316, Note_off_c, 0, 81, 64
2, 568316, Note_off_c, 0, 69, 64
2, 568320, Note_on_c, 0, 82, 111
2, 568320, Note_on_c, 0, 70, 105
2, 568608, Note_off_c, 0, 82, 64
2, 568608, Note_off_c, 0, 70, 64
2, 568608, Note_on_c, 0, 81, 110
2, 568608, Note_on_c, 0, 69, 106
2, 568700, Note_off_c, 0, 81, 64
2, 568700, Note_off_c, 0, 69, 64
2, 568704, Note_on_c, 0, 79, 109
2, 568704, Note_on_c, 0, 67, 106
2, 568796, Note_off_c, 0, 79, 64
2, 568796, Note_off_c, 0, 67, 64
2, 568800, Note_on_c, 0, 78, 107
2, 568800, Note_on_c, 0, 66, 106
2, 568892, Note_off_c, 0, 78, 64
2, 568892, Note_off_c, 0, 66, 64
2, 568896, Note_on_c, 0, 79, 106
2, 568896, Note_on_c, 0, 67, 106
2, 569180, Note_off_c, 0, 79, 64
2, 569180, Note_off_c, 0, 67, 64
2, 569184, Note_on_c, 0, 77, 107
2, 569184, Note_on_c, 0, 65, 107
2, 569276, Note_off_c, 0, 77, 64
2, 569276, Note_off_c, 0, 65, 64
2, 569280, Note_on_c, 0, 75, 107
2, 569280, Note_on_c, 0, 63, 107
2, 569372, Note_off_c, 0, 75, 64
2, 569372, Note_off_c, 0, 63, 64
2, 569376, Note_on_c, 0, 74, 107
2, 569376, Note_on_c, 0, 62, 107
2, 569468, Note_off_c, 0, 74, 64
2, 569468, Note_off_c, 0, 62, 64
2, 569472, Note_on_c, 0, 63, 107
2, 569472, Note_on_c, 0, 75, 107
2, 569852, Note_off_c, 0, 63, 64
2, 569852, Note_off_c, 0, 75, 64
2, 569856, Note_on_c, 0, 77, 109
2, 569856, Note_on_c, 0, 65, 109
2, 569948, Note_off_c, 0, 77, 64
2, 569948, Note_off_c, 0, 65, 64
2, 569952, Note_on_c, 0, 75, 109
2, 569952, Note_on_c, 0, 63, 109
2, 570044, Note_off_c, 0, 75, 64
2, 570044, Note_off_c, 0, 63, 64
2, 570048, Note_on_c, 0, 74, 109
2, 570048, Note_on_c, 0, 62, 109
2, 570140, Note_off_c, 0, 74, 64
2, 570140, Note_off_c, 0, 62, 64
2, 570144, Note_on_c, 0, 75, 109
2, 570144, Note_on_c, 0, 63, 109
2, 570524, Note_off_c, 0, 75, 64
2, 570524, Note_off_c, 0, 63, 64
2, 570528, Note_on_c, 0, 77, 110
2, 570528, Note_on_c, 0, 65, 110
2, 570620, Note_off_c, 0, 77, 64
2, 570620, Note_off_c, 0, 65, 64
2, 570624, Note_on_c, 0, 79, 110
2, 570624, Note_on_c, 0, 67, 110
2, 570812, Note_off_c, 0, 79, 64
2, 570812, Note_off_c, 0, 67, 64
2, 571008, Note_on_c, 0, 75, 111
2, 571008, Note_on_c, 0, 63, 111
2, 571196, Note_off_c, 0, 75, 64
2, 571196, Note_off_c, 0, 63, 64
2, 571384, Control_c, 0, 64, 127
2, 571392, Note_on_c, 0, 81, 114
2, 571392, Note_on_c, 0, 79, 113
2, 571392, Note_on_c, 0, 76, 112
2, 571392, Note_on_c, 0, 69, 111
2, 572920, Control_c, 0, 64, 0
2, 572924, Note_off_c, 0, 81, 64
2, 572924, Note_off_c, 0, 79, 64
2, 572924, Note_off_c, 0, 76, 64
2, 572924, Note_off_c, 0, 69, 64
2, 573120, Note_on_c, 0, 57, 94
2, 573160, Note_off_c, 0, 57, 64
2, 573168, Note_on_c, 0, 59, 95
2, 573208, Note_off_c, 0, 59, 64
2, 573216, Note_on_c, 0, 58, 95
2, 573256, Note_off_c, 0, 58, 64
2, 573264, Note_on_c, 0, 57, 94
2, 573304, Note_off_c, 0, 57, 64
2, 573312, Note_on_c, 0, 59, 94
2, 573352, Note_off_c, 0, 59, 64
2, 573360, Note_on_c, 0, 61, 95
2, 573400, Note_off_c, 0, 61, 64
2, 573408, Note_on_c, 0, 62, 95
2, 573448, Note_off_c, 0, 62, 64
2, 573456, Note_on_c, 0, 64, 95
2, 573496, Note_off_c, 0, 64, 64
2, 573504, Note_on_c, 0, 65, 96
2, 573544, Note_off_c, 0, 65, 64
2, 573552, Note_on_c, 0, 67, 96
2, 573592, Note_off_c, 0, 67, 64
2, 573600, Note_on_c, 0, 69, 96
2, 573648, Note_on_c, 0, 71, 97
2, 573688, Note_off_c, 0, 71, 64
2, 573696, Note_on_c, 0, 73, 97
2, 573736, Note_off_c, 0, 73, 64
2, 573744, Note_on_c, 0, 74, 97
2, 573784, Note_off_c, 0, 74, 64
2, 573792, Note_on_c, 0, 76, 98
2, 573832, Note_off_c, 0, 76, 64
2, 573840, Note_on_c, 0, 77, 98
2, 573880, Note_off_c, 0, 77, 64
2, 573888, Note_on_c, 0, 79, 98
2, 573928, Note_off_c, 0, 79, 64
2, 573936, Note_on_c, 0, 81, 99
2, 573976, Note_off_c, 0, 81, 64
2, 573984, Note_on_c, 0, 82, 99
2, 574024, Note_off_c, 0, 69, 64
2, 574024, Note_off_c, 0, 82, 64
2, 574032, Note_on_c, 0, 81, 98
2, 574072, Note_off_c, 0, 81, 64
2, 574080, Note_on_c, 0, 84, 103
2, 574172, Note_off_c, 0, 84, 64
2, 574176, Note_on_c, 0, 82, 99
2, 574268, Note_off_c, 0, 82, 64
2, 574272, Note_on_c, 0, 81, 97
2, 574364, Note_off_c, 0, 81, 64
2, 574368, Note_on_c, 0, 79, 95
2, 574460, Note_off_c, 0, 79, 64
2, 574464, Note_on_c, 0, 77, 93
2, 574464, Note_on_c, 0, 65, 88
2, 574464, Note_on_c, 0, 62, 88
2, 575036, Note_off_c, 0, 77, 64
2, 575040, Note_on_c, 0, 76, 90
2, 575132, Note_off_c, 0, 76, 64
2, 575136, Note_on_c, 0, 74, 89
2, 575228, Note_off_c, 0, 65, 64
2, 575228, Note_off_c, 0, 62, 64
2, 575228, Note_off_c, 0, 74, 64
2, 575232, Note_on_c, 0, 73, 87
2, 575232, Note_on_c, 0, 67, 81
2, 575232, Note_on_c, 0, 64, 75
2, 575612, Note_off_c, 0, 73, 64
2, 575616, Note_on_c, 0, 73, 84
2, 575996, Note_off_c, 0, 67, 64
2, 575996, Note_off_c, 0, 64, 64
2, 575996, Note_off_c, 0, 73, 64
2, 576000, Note_on_c, 0, 74, 84
2, 576000, Note_on_c, 0, 69, 76
2, 576000, Note_on_c, 0, 65, 75
2, 576380, Note_off_c, 0, 74, 64
2, 576380, Note_off_c, 0, 69, 64
2, 576380, Note_off_c, 0, 65, 64
2, 576768, Note_on_c, 0, 69, 75
2, 576768, Note_on_c, 0, 65, 75
2, 577148, Note_off_c, 0, 69, 64
2, 577148, Note_off_c, 0, 65, 64
2, 577152, Note_on_c, 0, 74, 75
2, 577152, Note_on_c, 0, 69, 75
2, 577532, Note_off_c, 0, 74, 64
2, 577532, Note_off_c, 0, 69, 64
2, 577536, Note_on_c, 0, 77, 76
2, 577536, Note_on_c, 0, 74, 75
2, 577916, Note_off_c, 0, 77, 64
2, 577916, Note_off_c, 0, 74, 64
2, 577920, Note_on_c, 0, 81, 78
2, 577920, Note_on_c, 0, 77, 75
2, 578300, Note_off_c, 0, 81, 64
2, 578300, Note_off_c, 0, 77, 64
2, 578304, Note_on_c, 0, 79, 78
2, 578304, Note_on_c, 0, 76, 76
2, 578304, Note_on_c, 0, 69, 75
2, 578492, Note_off_c, 0, 79, 64
2, 578492, Note_off_c, 0, 76, 64
2, 578492, Note_off_c, 0, 69, 64
2, 578688, Note_on_c, 0, 77, 76
2, 578688, Note_on_c, 0, 74, 75
2, 578688, Note_on_c, 0, 69, 75
2, 578876, Note_off_c, 0, 77, 64
2, 578876, Note_off_c, 0, 74, 64
2, 578876, Note_off_c, 0, 69, 64
2, 579072, Note_on_c, 0, 76, 75
2, 579072, Note_on_c, 0, 73, 75
2, 579072, Note_on_c, 0, 69, 75
2, 579452, Note_off_c, 0, 76, 64
2, 579452, Note_off_c, 0, 73, 64
2, 579452, Note_off_c, 0, 69, 64
2, 579824, Note_on_c, 0, 70, 75
2, 580204, Note_off_c, 0, 70, 64
2, 580224, Note_on_c, 0, 70, 75
2, 580604, Note_off_c, 0, 70, 64
2, 580608, Note_on_c, 0, 82, 83
2, 580608, Note_on_c, 0, 62, 75
2, 580608, Note_on_c, 0, 58, 78
2, 580608, Note_on_c, 0, 55, 80
2, 581180, Note_off_c, 0, 82, 64
2, 581184, Note_on_c, 0, 81, 82
2, 581276, Note_off_c, 0, 81, 64
2, 581280, Note_on_c, 0, 79, 81
2, 581372, Note_off_c, 0, 58, 64
2, 581372, Note_off_c, 0, 55, 64
2, 581372, Note_off_c, 0, 79, 64
2, 581376, Note_on_c, 0, 78, 80
2, 581376, Note_on_c, 0, 60, 75
2, 581376, Note_on_c, 0, 57, 75
2, 581756, Note_off_c, 0, 78, 64
2, 581760, Note_on_c, 0, 78, 81
2, 582140, Note_off_c, 0, 62, 64
2, 582140, Note_off_c, 0, 60, 64
2, 582140, Note_off_c, 0, 57, 64
2, 582140, Note_off_c, 0, 78, 64
2, 582144, Note_on_c, 0, 79, 82
2, 582144, Note_on_c, 0, 67, 75
2, 582144, Note_on_c, 0, 58, 75
2, 582716, Note_off_c, 0, 67, 64
2, 582720, Note_on_c, 0, 65, 75
2, 582812, Note_off_c, 0, 65, 64
2, 582816, Note_on_c, 0, 64, 75
2, 582908, Note_off_c, 0, 79, 64
2, 582908, Note_off_c, 0, 58, 64
2, 582908, Note_off_c, 0, 64, 64
2, 582912, Note_on_c, 0, 79, 82
2, 582912, Note_on_c, 0, 77, 81
2, 582912, Note_on_c, 0, 62, 75
2, 582912, Note_on_c, 0, 59, 75
2, 583292, Note_off_c, 0, 79, 64
2, 583292, Note_off_c, 0, 77, 64
2, 583292, Note_off_c, 0, 62, 64
2, 583296, Note_on_c, 0, 79, 82
2, 583296, Note_on_c, 0, 77, 81
2, 583296, Note_on_c, 0, 62, 75
2, 583676, Note_off_c, 0, 59, 64
2, 583676, Note_off_c, 0, 79, 64
2, 583676, Note_off_c, 0, 77, 64
2, 583676, Note_off_c, 0, 62, 64
2, 583680, Note_on_c, 0, 88, 88
2, 583680, Note_on_c, 0, 79, 82
2, 583680, Note_on_c, 0, 76, 81
2, 583680, Note_on_c, 0, 64, 75
2, 583680, Note_on_c, 0, 60, 75
2, 583680, Note_on_c, 0, 67, 75
2, 584252, Note_off_c, 0, 88, 64
2, 584252, Note_off_c, 0, 79, 64
2, 584252, Note_off_c, 0, 76, 64
2, 584256, Note_on_c, 0, 86, 87
2, 584348, Note_off_c, 0, 86, 64
2, 584352, Note_on_c, 0, 84, 85
2, 584444, Note_off_c, 0, 64, 64
2, 584444, Note_off_c, 0, 60, 64
2, 584444, Note_off_c, 0, 84, 64
2, 584448, Note_on_c, 0, 65, 75
2, 584448, Note_on_c, 0, 62, 75
2, 584448, Note_on_c, 0, 83, 84
2, 584448, Note_on_c, 0, 79, 83
2, 584448, Note_on_c, 0, 77, 82
2, 584828, Note_off_c, 0, 83, 64
2, 584828, Note_off_c, 0, 79, 64
2, 584828, Note_off_c, 0, 77, 64
2, 584832, Note_on_c, 0, 83, 83
2, 584832, Note_on_c, 0, 79, 82
2, 584832, Note_on_c, 0, 77, 81
2, 585212, Note_off_c, 0, 67, 64
2, 585212, Note_off_c, 0, 65, 64
2, 585212, Note_off_c, 0, 62, 64
2, 585212, Note_off_c, 0, 83, 64
2, 585212, Note_off_c, 0, 79, 64
2, 585212, Note_off_c, 0, 77, 64
2, 585216, Note_on_c, 0, 84, 85
2, 585216, Note_on_c, 0, 79, 82
2, 585216, Note_on_c, 0, 64, 75
2, 585216, Note_on_c, 0, 72, 75
2, 585788, Note_off_c, 0, 72, 64
2, 585792, Note_on_c, 0, 70, 82
2, 585884, Note_off_c, 0, 70, 64
2, 585888, Note_on_c, 0, 69, 80
2, 585980, Note_off_c, 0, 84, 64
2, 585980, Note_off_c, 0, 79, 64
2, 585980, Note_off_c, 0, 69, 64
2, 585984, Note_on_c, 0, 70, 75
2, 585984, Note_on_c, 0, 72, 75
2, 585984, Note_on_c, 0, 67, 75
2, 586364, Note_off_c, 0, 70, 64
2, 586364, Note_off_c, 0, 72, 64
2, 586364, Note_off_c, 0, 67, 64
2, 586368, Note_on_c, 0, 70, 75
2, 586368, Note_on_c, 0, 72, 75
2, 586368, Note_on_c, 0, 67, 75
2, 586748, Note_off_c, 0, 64, 64
2, 586748, Note_off_c, 0, 70, 64
2, 586748, Note_off_c, 0, 72, 64
2, 586748, Note_off_c, 0, 67, 64
2, 586752, Note_on_c, 0, 81, 82
2, 586752, Note_on_c, 0, 72, 75
2, 586752, Note_on_c, 0, 69, 75
2, 587324, Note_off_c, 0, 81, 64
2, 587328, Note_on_c, 0, 79, 81
2, 587420, Note_off_c, 0, 79, 64
2, 587424, Note_on_c, 0, 77, 80
2, 587516, Note_off_c, 0, 69, 64
2, 587516, Note_off_c, 0, 77, 64
2, 587520, Note_on_c, 0, 76, 78
2, 587520, Note_on_c, 0, 70, 75
2, 587900, Note_off_c, 0, 76, 64
2, 587904, Note_on_c, 0, 79, 81
2, 588284, Note_off_c, 0, 72, 64
2, 588284, Note_off_c, 0, 70, 64
2, 588284, Note_off_c, 0, 79, 64
2, 588288, Note_on_c, 0, 77, 75
2, 588288, Note_on_c, 0, 72, 75
2, 588668, Note_off_c, 0, 77, 64
2, 588668, Note_off_c, 0, 72, 64
2, 588672, Note_on_c, 0, 72, 75
2, 588860, Note_off_c, 0, 72, 64
2, 589056, Note_on_c, 0, 72, 75
2, 589056, Note_on_c, 0, 70, 75
2, 589056, Note_on_c, 0, 67, 75
2, 589436, Note_off_c, 0, 72, 64
2, 589436, Note_off_c, 0, 70, 64
2, 589436, Note_off_c, 0, 67, 64
2, 589440, Note_on_c, 0, 72, 75
2, 589440, Note_on_c, 0, 70, 75
2, 589440, Note_on_c, 0, 67, 75
2, 589820, Note_off_c, 0, 72, 64
2, 589820, Note_off_c, 0, 70, 64
2, 589820, Note_off_c, 0, 67, 64
2, 589824, Note_on_c, 0, 72, 75
2, 589824, Note_on_c, 0, 68, 75
2, 589824, Note_on_c, 0, 77, 80
2, 590396, Note_off_c, 0, 77, 64
2, 590400, Note_on_c, 0, 79, 81
2, 590492, Note_off_c, 0, 79, 64
2, 590496, Note_on_c, 0, 77, 80
2, 590588, Note_off_c, 0, 68, 64
2, 590588, Note_off_c, 0, 77, 64
2, 590592, Note_on_c, 0, 76, 79
2, 590592, Note_on_c, 0, 70, 75
2, 590972, Note_off_c, 0, 76, 64
2, 590976, Note_on_c, 0, 79, 81
2, 591356, Note_off_c, 0, 72, 64
2, 591356, Note_off_c, 0, 70, 64
2, 591356, Note_off_c, 0, 79, 64
2, 591360, Note_on_c, 0, 77, 75
2, 591360, Note_on_c, 0, 72, 75
2, 591740, Note_off_c, 0, 77, 64
2, 591740, Note_off_c, 0, 72, 64
2, 591744, Note_on_c, 0, 72, 75
2, 591932, Note_off_c, 0, 72, 64
2, 592128, Note_on_c, 0, 78, 81
2, 592252, Note_off_c, 0, 78, 64
2, 592256, Note_on_c, 0, 75, 75
2, 592380, Note_off_c, 0, 75, 64
2, 592384, Note_on_c, 0, 72, 75
2, 592508, Note_off_c, 0, 72, 64
2, 592512, Note_on_c, 0, 68, 75
2, 592636, Note_off_c, 0, 68, 64
2, 592640, Note_on_c, 0, 66, 75
2, 592764, Note_off_c, 0, 66, 64
2, 592768, Note_on_c, 0, 63, 75
2, 592892, Note_off_c, 0, 63, 64
2, 592896, Note_on_c, 0, 61, 75
2, 593020, Note_off_c, 0, 61, 64
2, 593024, Note_on_c, 0, 65, 75
2, 593148, Note_off_c, 0, 65, 64
2, 593152, Note_on_c, 0, 68, 75
2, 593276, Note_off_c, 0, 68, 64
2, 593280, Note_on_c, 0, 73, 75
2, 593280, Note_on_c, 0, 73, 75
2, 593404, Note_off_c, 0, 73, 64
2, 593408, Note_on_c, 0, 68, 75
2, 593532, Note_off_c, 0, 68, 64
2, 593536, Note_on_c, 0, 65, 75
2, 593660, Note_off_c, 0, 73, 64
2, 593660, Note_off_c, 0, 65, 64
2, 593664, Note_on_c, 0, 75, 75
2, 593664, Note_on_c, 0, 75, 75
2, 593788, Note_off_c, 0, 75, 64
2, 593792, Note_on_c, 0, 68, 75
2, 593916, Note_off_c, 0, 68, 64
2, 593920, Note_on_c, 0, 66, 75
2, 594044, Note_off_c, 0, 75, 64
2, 594044, Note_off_c, 0, 66, 64
2, 594048, Note_on_c, 0, 78, 81
2, 594048, Note_on_c, 0, 78, 75
2, 594172, Note_off_c, 0, 78, 64
2, 594176, Note_on_c, 0, 68, 75
2, 594300, Note_off_c, 0, 68, 64
2, 594304, Note_on_c, 0, 66, 75
2, 594428, Note_off_c, 0, 78, 64
2, 594428, Note_off_c, 0, 66, 64
2, 594432, Note_on_c, 0, 77, 81
2, 594432, Note_on_c, 0, 77, 75
2, 594556, Note_off_c, 0, 77, 64
2, 594560, Note_on_c, 0, 68, 75
2, 594684, Note_off_c, 0, 68, 64
2, 594688, Note_on_c, 0, 65, 75
2, 594812, Note_off_c, 0, 77, 64
2, 594812, Note_off_c, 0, 65, 64
2, 594816, Note_on_c, 0, 73, 75
2, 594816, Note_on_c, 0, 73, 75
2, 594940, Note_off_c, 0, 73, 64
2, 594944, Note_on_c, 0, 68, 75
2, 595068, Note_off_c, 0, 68, 64
2, 595072, Note_on_c, 0, 65, 75
2, 595196, Note_off_c, 0, 73, 64
2, 595196, Note_off_c, 0, 65, 64
2, 595200, Note_on_c, 0, 78, 81
2, 595324, Note_off_c, 0, 78, 64
2, 595328, Note_on_c, 0, 75, 75
2, 595452, Note_off_c, 0, 75, 64
2, 595456, Note_on_c, 0, 72, 75
2, 595580, Note_off_c, 0, 72, 64
2, 595584, Note_on_c, 0, 68, 75
2, 595708, Note_off_c, 0, 68, 64
2, 595712, Note_on_c, 0, 66, 75
2, 595836, Note_off_c, 0, 66, 64
2, 595840, Note_on_c, 0, 63, 75
2, 595964, Note_off_c, 0, 63, 64
2, 595968, Note_on_c, 0, 61, 75
2, 596092, Note_off_c, 0, 61, 64
2, 596096, Note_on_c, 0, 65, 75
2, 596220, Note_off_c, 0, 65, 64
2, 596224, Note_on_c, 0, 68, 75
2, 596348, Note_off_c, 0, 68, 64
2, 596352, Note_on_c, 0, 73, 75
2, 596352, Note_on_c, 0, 73, 75
2, 596476, Note_off_c, 0, 73, 64
2, 596480, Note_on_c, 0, 68, 75
2, 596604, Note_off_c, 0, 68, 64
2, 596608, Note_on_c, 0, 65, 75
2, 596732, Note_off_c, 0, 73, 64
2, 596732, Note_off_c, 0, 65, 64
2, 596736, Note_on_c, 0, 75, 75
2, 596736, Note_on_c, 0, 75, 75
2, 596860, Note_off_c, 0, 75, 64
2, 596864, Note_on_c, 0, 68, 75
2, 596988, Note_off_c, 0, 68, 64
2, 596992, Note_on_c, 0, 63, 75
2, 597116, Note_off_c, 0, 75, 64
2, 597116, Note_off_c, 0, 63, 64
2, 597120, Note_on_c, 0, 75, 75
2, 597120, Note_on_c, 0, 75, 75
2, 597244, Note_off_c, 0, 75, 64
2, 597248, Note_on_c, 0, 69, 75
2, 597372, Note_off_c, 0, 69, 64
2, 597376, Note_on_c, 0, 63, 75
2, 597500, Note_off_c, 0, 75, 64
2, 597500, Note_off_c, 0, 63, 64
2, 597504, Note_on_c, 0, 75, 75
2, 597504, Note_on_c, 0, 75, 75
2, 597628, Note_off_c, 0, 75, 64
2, 597632, Note_on_c, 0, 70, 75
2, 597756, Note_off_c, 0, 70, 64
2, 597760, Note_on_c, 0, 65, 75
2, 597884, Note_off_c, 0, 75, 64
2, 597884, Note_off_c, 0, 65, 64
2, 597888, Note_on_c, 0, 74, 75
2, 597888, Note_on_c, 0, 74, 75
2, 598012, Note_off_c, 0, 74, 64
2, 598016, Note_on_c, 0, 70, 75
2, 598140, Note_off_c, 0, 70, 64
2, 598144, Note_on_c, 0, 65, 75
2, 598268, Note_off_c, 0, 74, 64
2, 598268, Note_off_c, 0, 65, 64
2, 598272, Note_on_c, 0, 80, 82
2, 598396, Note_off_c, 0, 80, 64
2, 598400, Note_on_c, 0, 77, 81
2, 598524, Note_off_c, 0, 77, 64
2, 598528, Note_on_c, 0, 74, 75
2, 598652, Note_off_c, 0, 74, 64
2, 598656, Note_on_c, 0, 70, 75
2, 598780, Note_off_c, 0, 70, 64
2, 598784, Note_on_c, 0, 68, 75
2, 598908, Note_off_c, 0, 68, 64
2, 598912, Note_on_c, 0, 65, 75
2, 599036, Note_off_c, 0, 65, 64
2, 599040, Note_on_c, 0, 63, 75
2, 599164, Note_off_c, 0, 63, 64
2, 599168, Note_on_c, 0, 67, 75
2, 599292, Note_off_c, 0, 67, 64
2, 599296, Note_on_c, 0, 70, 75
2, 599420, Note_off_c, 0, 70, 64
2, 599424, Note_on_c, 0, 75, 75
2, 599424, Note_on_c, 0, 75, 75
2, 599548, Note_off_c, 0, 75, 64
2, 599552, Note_on_c, 0, 70, 75
2, 599676, Note_off_c, 0, 70, 64
2, 599680, Note_on_c, 0, 67, 75
2, 599804, Note_off_c, 0, 75, 64
2, 599804, Note_off_c, 0, 67, 64
2, 599808, Note_on_c, 0, 77, 81
2, 599808, Note_on_c, 0, 77, 75
2, 599932, Note_off_c, 0, 77, 64
2, 599936, Note_on_c, 0, 70, 75
2, 600060, Note_off_c, 0, 70, 64
2, 600064, Note_on_c, 0, 65, 75
2, 600188, Note_off_c, 0, 77, 64
2, 600188, Note_off_c, 0, 65, 64
2, 600192, Note_on_c, 0, 77, 81
2, 600192, Note_on_c, 0, 77, 75
2, 600316, Note_off_c, 0, 77, 64
2, 600320, Note_on_c, 0, 71, 75
2, 600444, Note_off_c, 0, 71, 64
2, 600448, Note_on_c, 0, 65, 75
2, 600572, Note_off_c, 0, 77, 64
2, 600572, Note_off_c, 0, 65, 64
2, 600576, Note_on_c, 0, 77, 81
2, 600576, Note_on_c, 0, 77, 75
2, 600700, Note_off_c, 0, 77, 64
2, 600704, Note_on_c, 0, 72, 75
2, 600828, Note_off_c, 0, 72, 64
2, 600832, Note_on_c, 0, 67, 75
2, 600956, Note_off_c, 0, 77, 64
2, 600956, Note_off_c, 0, 67, 64
2, 600960, Note_on_c, 0, 76, 80
2, 600960, Note_on_c, 0, 76, 75
2, 601084, Note_off_c, 0, 76, 64
2, 601088, Note_on_c, 0, 72, 75
2, 601212, Note_off_c, 0, 72, 64
2, 601216, Note_on_c, 0, 67, 75
2, 601340, Note_off_c, 0, 76, 64
2, 601340, Note_off_c, 0, 67, 64
2, 601440, Note_on_c, 0, 60, 75
2, 601532, Note_off_c, 0, 60, 64
2, 601536, Note_on_c, 0, 59, 75
2, 601628, Note_off_c, 0, 59, 64
2, 601632, Note_on_c, 0, 60, 75
2, 601724, Note_off_c, 0, 60, 64
2, 601728, Note_on_c, 0, 61, 75
2, 601820, Note_off_c, 0, 61, 64
2, 601824, Note_on_c, 0, 60, 75
2, 601916, Note_off_c, 0, 60, 64
2, 601920, Note_on_c, 0, 59, 75
2, 602012, Note_off_c, 0, 59, 64
2, 602016, Note_on_c, 0, 60, 75
2, 602108, Note_off_c, 0, 60, 64
2, 602112, Note_on_c, 0, 63, 75
2, 602204, Note_off_c, 0, 63, 64
2, 602208, Note_on_c, 0, 61, 75
2, 602300, Note_off_c, 0, 61, 64
2, 602304, Note_on_c, 0, 60, 75
2, 602396, Note_off_c, 0, 60, 64
2, 602400, Note_on_c, 0, 61, 75
2, 602492, Note_off_c, 0, 61, 64
2, 602496, Note_on_c, 0, 63, 75
2, 602588, Note_off_c, 0, 63, 64
2, 602592, Note_on_c, 0, 62, 75
2, 602684, Note_off_c, 0, 62, 64
2, 602688, Note_on_c, 0, 60, 75
2, 602780, Note_off_c, 0, 60, 64
2, 602784, Note_on_c, 0, 62, 75
2, 602876, Note_off_c, 0, 62, 64
2, 602880, Note_on_c, 0, 65, 75
2, 602972, Note_off_c, 0, 65, 64
2, 602976, Note_on_c, 0, 63, 75
2, 603068, Note_off_c, 0, 63, 64
2, 603072, Note_on_c, 0, 62, 75
2, 603164, Note_off_c, 0, 62, 64
2, 603168, Note_on_c, 0, 63, 75
2, 603260, Note_off_c, 0, 63, 64
2, 603264, Note_on_c, 0, 65, 75
2, 603356, Note_off_c, 0, 65, 64
2, 603360, Note_on_c, 0, 64, 75
2, 603452, Note_off_c, 0, 64, 64
2, 603456, Note_on_c, 0, 62, 75
2, 603548, Note_off_c, 0, 62, 64
2, 603552, Note_on_c, 0, 64, 75
2, 603644, Note_off_c, 0, 64, 64
2, 603648, Note_on_c, 0, 65, 75
2, 603740, Note_off_c, 0, 65, 64
2, 603744, Note_on_c, 0, 68, 75
2, 603836, Note_off_c, 0, 68, 64
2, 603840, Note_on_c, 0, 67, 75
2, 603932, Note_off_c, 0, 67, 64
2, 603936, Note_on_c, 0, 65, 75
2, 604028, Note_off_c, 0, 65, 64
2, 604032, Note_on_c, 0, 63, 75
2, 604124, Note_off_c, 0, 63, 64
2, 604128, Note_on_c, 0, 67, 75
2, 604220, Note_off_c, 0, 67, 64
2, 604224, Note_on_c, 0, 65, 75
2, 604316, Note_off_c, 0, 65, 64
2, 604320, Note_on_c, 0, 63, 75
2, 604412, Note_off_c, 0, 63, 64
2, 604512, Note_on_c, 0, 62, 75
2, 604604, Note_off_c, 0, 62, 64
2, 604608, Note_on_c, 0, 61, 75
2, 604688, Note_on_c, 0, 62, 75
2, 604700, Note_off_c, 0, 61, 64
2, 604780, Note_off_c, 0, 62, 64
2, 604800, Note_on_c, 0, 63, 75
2, 604892, Note_off_c, 0, 63, 64
2, 604896, Note_on_c, 0, 62, 75
2, 604988, Note_off_c, 0, 62, 64
2, 604992, Note_on_c, 0, 61, 75
2, 605084, Note_off_c, 0, 61, 64
2, 605088, Note_on_c, 0, 62, 75
2, 605180, Note_off_c, 0, 62, 64
2, 605184, Note_on_c, 0, 65, 75
2, 605276, Note_off_c, 0, 65, 64
2, 605280, Note_on_c, 0, 63, 75
2, 605372, Note_off_c, 0, 63, 64
2, 605376, Note_on_c, 0, 62, 75
2, 605468, Note_off_c, 0, 62, 64
2, 605472, Note_on_c, 0, 63, 75
2, 605564, Note_off_c, 0, 63, 64
2, 605568, Note_on_c, 0, 65, 75
2, 605660, Note_off_c, 0, 65, 64
2, 605664, Note_on_c, 0, 64, 75
2, 605756, Note_off_c, 0, 64, 64
2, 605760, Note_on_c, 0, 62, 75
2, 605852, Note_off_c, 0, 62, 64
2, 605856, Note_on_c, 0, 64, 75
2, 605948, Note_off_c, 0, 64, 64
2, 605952, Note_on_c, 0, 67, 75
2, 606044, Note_off_c, 0, 67, 64
2, 606048, Note_on_c, 0, 65, 75
2, 606140, Note_off_c, 0, 65, 64
2, 606144, Note_on_c, 0, 64, 75
2, 606236, Note_off_c, 0, 64, 64
2, 606240, Note_on_c, 0, 65, 75
2, 606332, Note_off_c, 0, 65, 64
2, 606336, Note_on_c, 0, 67, 75
2, 606428, Note_off_c, 0, 67, 64
2, 606432, Note_on_c, 0, 66, 75
2, 606524, Note_off_c, 0, 66, 64
2, 606528, Note_on_c, 0, 64, 75
2, 606620, Note_off_c, 0, 64, 64
2, 606624, Note_on_c, 0, 66, 75
2, 606716, Note_off_c, 0, 66, 64
2, 606720, Note_on_c, 0, 67, 75
2, 606812, Note_off_c, 0, 67, 64
2, 606816, Note_on_c, 0, 70, 75
2, 606908, Note_off_c, 0, 70, 64
2, 606912, Note_on_c, 0, 69, 75
2, 607004, Note_off_c, 0, 69, 64
2, 607008, Note_on_c, 0, 67, 75
2, 607100, Note_off_c, 0, 67, 64
2, 607104, Note_on_c, 0, 65, 75
2, 607196, Note_off_c, 0, 65, 64
2, 607200, Note_on_c, 0, 69, 75
2, 607292, Note_off_c, 0, 69, 64
2, 607296, Note_on_c, 0, 67, 75
2, 607388, Note_off_c, 0, 67, 64
2, 607392, Note_on_c, 0, 65, 75
2, 607484, Note_off_c, 0, 65, 64
2, 607584, Note_on_c, 0, 64, 75
2, 607676, Note_off_c, 0, 64, 64
2, 607680, Note_on_c, 0, 63, 75
2, 607772, Note_off_c, 0, 63, 64
2, 607776, Note_on_c, 0, 64, 75
2, 607868, Note_off_c, 0, 64, 64
2, 607872, Note_on_c, 0, 65, 75
2, 607964, Note_off_c, 0, 65, 64
2, 607968, Note_on_c, 0, 64, 75
2, 608060, Note_off_c, 0, 64, 64
2, 608064, Note_on_c, 0, 63, 75
2, 608156, Note_off_c, 0, 63, 64
2, 608160, Note_on_c, 0, 64, 75
2, 608252, Note_off_c, 0, 64, 64
2, 608256, Note_on_c, 0, 67, 75
2, 608348, Note_off_c, 0, 67, 64
2, 608352, Note_on_c, 0, 65, 75
2, 608444, Note_off_c, 0, 65, 64
2, 608448, Note_on_c, 0, 64, 75
2, 608540, Note_off_c, 0, 64, 64
2, 608544, Note_on_c, 0, 65, 75
2, 608636, Note_off_c, 0, 65, 64
2, 608640, Note_on_c, 0, 67, 75
2, 608732, Note_off_c, 0, 67, 64
2, 608736, Note_on_c, 0, 66, 75
2, 608828, Note_off_c, 0, 66, 64
2, 608832, Note_on_c, 0, 64, 75
2, 608924, Note_off_c, 0, 64, 64
2, 608928, Note_on_c, 0, 66, 75
2, 609020, Note_off_c, 0, 66, 64
2, 609024, Note_on_c, 0, 69, 75
2, 609116, Note_off_c, 0, 69, 64
2, 609120, Note_on_c, 0, 67, 75
2, 609212, Note_off_c, 0, 67, 64
2, 609216, Note_on_c, 0, 66, 75
2, 609308, Note_off_c, 0, 66, 64
2, 609312, Note_on_c, 0, 67, 75
2, 609404, Note_off_c, 0, 67, 64
2, 609408, Note_on_c, 0, 69, 75
2, 609500, Note_off_c, 0, 69, 64
2, 609504, Note_on_c, 0, 68, 75
2, 609596, Note_off_c, 0, 68, 64
2, 609600, Note_on_c, 0, 66, 75
2, 609692, Note_off_c, 0, 66, 64
2, 609696, Note_on_c, 0, 68, 75
2, 609788, Note_off_c, 0, 68, 64
2, 609792, Note_on_c, 0, 69, 75
2, 609884, Note_off_c, 0, 69, 64
2, 609888, Note_on_c, 0, 71, 75
2, 609980, Note_off_c, 0, 71, 64
2, 609984, Note_on_c, 0, 69, 75
2, 610076, Note_off_c, 0, 69, 64
2, 610080, Note_on_c, 0, 68, 75
2, 610172, Note_off_c, 0, 68, 64
2, 610176, Note_on_c, 0, 69, 75
2, 610268, Note_off_c, 0, 69, 64
2, 610272, Note_on_c, 0, 72, 75
2, 610364, Note_off_c, 0, 72, 64
2, 610368, Note_on_c, 0, 76, 75
2, 610460, Note_off_c, 0, 76, 64
2, 610464, Note_on_c, 0, 81, 75
2, 610556, Note_off_c, 0, 81, 64
2, 610656, Note_on_c, 0, 69, 75
2, 610748, Note_off_c, 0, 69, 64
2, 610752, Note_on_c, 0, 68, 75
2, 610844, Note_off_c, 0, 68, 64
2, 610848, Note_on_c, 0, 69, 75
2, 610940, Note_off_c, 0, 69, 64
2, 610944, Note_on_c, 0, 70, 75
2, 611036, Note_off_c, 0, 70, 64
2, 611040, Note_on_c, 0, 69, 75
2, 611132, Note_off_c, 0, 69, 64
2, 611136, Note_on_c, 0, 68, 75
2, 611228, Note_off_c, 0, 68, 64
2, 611232, Note_on_c, 0, 69, 75
2, 611324, Note_off_c, 0, 69, 64
2, 611328, Note_on_c, 0, 72, 75
2, 611420, Note_off_c, 0, 72, 64
2, 611424, Note_on_c, 0, 70, 75
2, 611516, Note_off_c, 0, 70, 64
2, 611520, Note_on_c, 0, 69, 75
2, 611612, Note_off_c, 0, 69, 64
2, 611616, Note_on_c, 0, 70, 75
2, 611708, Note_off_c, 0, 70, 64
2, 611712, Note_on_c, 0, 72, 75
2, 611804, Note_off_c, 0, 72, 64
2, 611808, Note_on_c, 0, 71, 75
2, 611900, Note_off_c, 0, 71, 64
2, 611904, Note_on_c, 0, 69, 75
2, 611996, Note_off_c, 0, 69, 64
2, 612000, Note_on_c, 0, 71, 75
2, 612092, Note_off_c, 0, 71, 64
2, 612096, Note_on_c, 0, 74, 75
2, 612188, Note_off_c, 0, 74, 64
2, 612192, Note_on_c, 0, 72, 75
2, 612284, Note_off_c, 0, 72, 64
2, 612288, Note_on_c, 0, 71, 75
2, 612380, Note_off_c, 0, 71, 64
2, 612384, Note_on_c, 0, 72, 75
2, 612476, Note_off_c, 0, 72, 64
2, 612480, Note_on_c, 0, 74, 75
2, 612572, Note_off_c, 0, 74, 64
2, 612576, Note_on_c, 0, 73, 75
2, 612668, Note_off_c, 0, 73, 64
2, 612672, Note_on_c, 0, 71, 75
2, 612764, Note_off_c, 0, 71, 64
2, 612768, Note_on_c, 0, 73, 75
2, 612860, Note_off_c, 0, 73, 64
2, 612864, Note_on_c, 0, 76, 75
2, 612864, Note_on_c, 0, 69, 75
2, 612864, Note_on_c, 0, 65, 75
2, 612956, Note_off_c, 0, 76, 64
2, 612960, Note_on_c, 0, 74, 75
2, 613052, Note_off_c, 0, 69, 64
2, 613052, Note_off_c, 0, 65, 64
2, 613052, Note_off_c, 0, 74, 64
2, 613056, Note_on_c, 0, 73, 75
2, 613148, Note_off_c, 0, 73, 64
2, 613152, Note_on_c, 0, 74, 75
2, 613244, Note_off_c, 0, 74, 64
2, 613248, Note_on_c, 0, 77, 75
2, 613248, Note_on_c, 0, 69, 75
2, 613248, Note_on_c, 0, 61, 75
2, 613340, Note_off_c, 0, 77, 64
2, 613344, Note_on_c, 0, 76, 75
2, 613436, Note_off_c, 0, 69, 64
2, 613436, Note_off_c, 0, 61, 64
2, 613436, Note_off_c, 0, 76, 64
2, 613440, Note_on_c, 0, 75, 75
2, 613532, Note_off_c, 0, 75, 64
2, 613536, Note_on_c, 0, 76, 75
2, 613616, Note_on_c, 0, 69, 75
2, 613616, Note_on_c, 0, 62, 75
2, 613628, Note_off_c, 0, 76, 64
2, 613632, Note_on_c, 0, 79, 75
2, 613724, Note_off_c, 0, 79, 64
2, 613728, Note_on_c, 0, 77, 75
2, 613804, Note_off_c, 0, 69, 64
2, 613804, Note_off_c, 0, 62, 64
2, 613820, Note_off_c, 0, 77, 64
2, 613824, Note_on_c, 0, 76, 75
2, 613916, Note_off_c, 0, 76, 64
2, 613920, Note_on_c, 0, 77, 75
2, 614000, Note_on_c, 0, 69, 75
2, 614000, Note_on_c, 0, 60, 75
2, 614012, Note_off_c, 0, 77, 64
2, 614016, Note_on_c, 0, 79, 75
2, 614016, Note_on_c, 0, 62, 75
2, 614108, Note_off_c, 0, 79, 64
2, 614112, Note_on_c, 0, 78, 75
2, 614188, Note_off_c, 0, 69, 64
2, 614188, Note_off_c, 0, 60, 64
2, 614204, Note_off_c, 0, 62, 64
2, 614204, Note_off_c, 0, 78, 64
2, 614208, Note_on_c, 0, 77, 75
2, 614300, Note_off_c, 0, 77, 64
2, 614304, Note_on_c, 0, 78, 75
2, 614396, Note_off_c, 0, 78, 64
2, 614400, Note_on_c, 0, 81, 80
2, 614400, Note_on_c, 0, 67, 76
2, 614400, Note_on_c, 0, 62, 76
2, 614400, Note_on_c, 0, 59, 76
2, 614492, Note_off_c, 0, 81, 64
2, 614496, Note_on_c, 0, 79, 76
2, 614588, Note_off_c, 0, 67, 64
2, 614588, Note_off_c, 0, 62, 64
2, 614588, Note_off_c, 0, 59, 64
2, 614588, Note_off_c, 0, 79, 64
2, 614592, Note_on_c, 0, 78, 76
2, 614684, Note_off_c, 0, 78, 64
2, 614688, Note_on_c, 0, 79, 76
2, 614780, Note_off_c, 0, 79, 64
2, 614784, Note_on_c, 0, 81, 76
2, 614784, Note_on_c, 0, 65, 76
2, 614784, Note_on_c, 0, 62, 76
2, 614784, Note_on_c, 0, 58, 76
2, 614876, Note_off_c, 0, 81, 64
2, 614880, Note_on_c, 0, 80, 78
2, 614972, Note_off_c, 0, 65, 64
2, 614972, Note_off_c, 0, 62, 64
2, 614972, Note_off_c, 0, 58, 64
2, 614972, Note_off_c, 0, 80, 64
2, 614976, Note_on_c, 0, 79, 78
2, 615068, Note_off_c, 0, 79, 64
2, 615072, Note_on_c, 0, 80, 78
2, 615152, Note_on_c, 0, 65, 78
2, 615164, Note_off_c, 0, 80, 64
2, 615168, Note_on_c, 0, 83, 78
2, 615168, Note_on_c, 0, 62, 78
2, 615168, Note_on_c, 0, 57, 78
2, 615260, Note_off_c, 0, 83, 64
2, 615264, Note_on_c, 0, 81, 78
2, 615340, Note_off_c, 0, 65, 64
2, 615356, Note_off_c, 0, 62, 64
2, 615356, Note_off_c, 0, 57, 64
2, 615356, Note_off_c, 0, 81, 64
2, 615360, Note_on_c, 0, 80, 79
2, 615452, Note_off_c, 0, 80, 64
2, 615456, Note_on_c, 0, 81, 79
2, 615536, Note_on_c, 0, 65, 79
2, 615536, Note_on_c, 0, 56, 79
2, 615548, Note_off_c, 0, 81, 64
2, 615552, Note_on_c, 0, 84, 79
2, 615552, Note_on_c, 0, 62, 79
2, 615644, Note_off_c, 0, 84, 64
2, 615648, Note_on_c, 0, 83, 79
2, 615724, Note_off_c, 0, 65, 64
2, 615724, Note_off_c, 0, 56, 64
2, 615740, Note_off_c, 0, 62, 64
2, 615740, Note_off_c, 0, 83, 64
2, 615744, Note_on_c, 0, 82, 80
2, 615836, Note_off_c, 0, 82, 64
2, 615840, Note_on_c, 0, 83, 80
2, 615932, Note_off_c, 0, 83, 64
2, 615936, Note_on_c, 0, 86, 83
2, 616028, Note_off_c, 0, 86, 64
2, 616032, Note_on_c, 0, 85, 80
2, 616124, Note_off_c, 0, 85, 64
2, 616128, Note_on_c, 0, 84, 80
2, 616220, Note_off_c, 0, 84, 64
2, 616224, Note_on_c, 0, 85, 81
2, 616316, Note_off_c, 0, 85, 64
2, 616320, Note_on_c, 0, 88, 83
2, 616412, Note_off_c, 0, 88, 64
2, 616416, Note_on_c, 0, 86, 81
2, 616508, Note_off_c, 0, 86, 64
2, 616512, Note_on_c, 0, 85, 81
2, 616604, Note_off_c, 0, 85, 64
2, 616608, Note_on_c, 0, 86, 82
2, 616700, Note_off_c, 0, 86, 64
2, 616704, Note_on_c, 0, 89, 84
2, 616796, Note_off_c, 0, 89, 64
2, 616800, Note_on_c, 0, 88, 82
2, 616892, Note_off_c, 0, 88, 64
2, 616896, Note_on_c, 0, 87, 82
2, 616988, Note_off_c, 0, 87, 64
2, 616992, Note_on_c, 0, 88, 82
2, 617084, Note_off_c, 0, 88, 64
2, 617088, Note_on_c, 0, 91, 85
2, 617180, Note_off_c, 0, 91, 64
2, 617184, Note_on_c, 0, 89, 83
2, 617276, Note_off_c, 0, 89, 64
2, 617280, Note_on_c, 0, 88, 83
2, 617372, Note_off_c, 0, 88, 64
2, 617376, Note_on_c, 0, 89, 83
2, 617468, Note_off_c, 0, 89, 64
2, 617568, Note_on_c, 0, 91, 84
2, 617660, Note_off_c, 0, 91, 64
2, 617664, Note_on_c, 0, 88, 83
2, 617756, Note_off_c, 0, 88, 64
2, 617760, Note_on_c, 0, 85, 82
2, 617852, Note_off_c, 0, 85, 64
2, 617856, Note_on_c, 0, 82, 81
2, 617948, Note_off_c, 0, 82, 64
2, 617952, Note_on_c, 0, 88, 83
2, 618044, Note_off_c, 0, 88, 64
2, 618048, Note_on_c, 0, 85, 82
2, 618140, Note_off_c, 0, 85, 64
2, 618144, Note_on_c, 0, 82, 81
2, 618236, Note_off_c, 0, 82, 64
2, 618240, Note_on_c, 0, 79, 80
2, 618332, Note_off_c, 0, 79, 64
2, 618336, Note_on_c, 0, 85, 82
2, 618428, Note_off_c, 0, 85, 64
2, 618432, Note_on_c, 0, 82, 81
2, 618524, Note_off_c, 0, 82, 64
2, 618528, Note_on_c, 0, 79, 79
2, 618620, Note_off_c, 0, 79, 64
2, 618624, Note_on_c, 0, 76, 76
2, 618716, Note_off_c, 0, 76, 64
2, 618720, Note_on_c, 0, 82, 80
2, 618812, Note_off_c, 0, 82, 64
2, 618816, Note_on_c, 0, 79, 78
2, 618908, Note_off_c, 0, 79, 64
2, 618912, Note_on_c, 0, 76, 75
2, 619004, Note_off_c, 0, 76, 64
2, 619104, Note_on_c, 0, 90, 83
2, 619196, Note_off_c, 0, 90, 64
2, 619200, Note_on_c, 0, 87, 82
2, 619292, Note_off_c, 0, 87, 64
2, 619296, Note_on_c, 0, 84, 81
2, 619388, Note_off_c, 0, 84, 64
2, 619392, Note_on_c, 0, 81, 80
2, 619484, Note_off_c, 0, 81, 64
2, 619488, Note_on_c, 0, 87, 82
2, 619580, Note_off_c, 0, 87, 64
2, 619584, Note_on_c, 0, 84, 81
2, 619676, Note_off_c, 0, 84, 64
2, 619680, Note_on_c, 0, 81, 79
2, 619772, Note_off_c, 0, 81, 64
2, 619776, Note_on_c, 0, 78, 81
2, 619868, Note_off_c, 0, 78, 64
2, 619872, Note_on_c, 0, 84, 79
2, 619964, Note_off_c, 0, 84, 64
2, 619968, Note_on_c, 0, 81, 76
2, 620060, Note_off_c, 0, 81, 64
2, 620064, Note_on_c, 0, 78, 75
2, 620156, Note_off_c, 0, 78, 64
2, 620160, Note_on_c, 0, 75, 80
2, 620252, Note_off_c, 0, 75, 64
2, 620256, Note_on_c, 0, 81, 78
2, 620348, Note_off_c, 0, 81, 64
2, 620352, Note_on_c, 0, 78, 76
2, 620444, Note_off_c, 0, 78, 64
2, 620448, Note_on_c, 0, 75, 75
2, 620540, Note_off_c, 0, 75, 64
2, 620640, Note_on_c, 0, 89, 84
2, 620732, Note_off_c, 0, 89, 64
2, 620736, Note_on_c, 0, 86, 83
2, 620828, Note_off_c, 0, 86, 64
2, 620832, Note_on_c, 0, 83, 82
2, 620924, Note_off_c, 0, 83, 64
2, 620928, Note_on_c, 0, 80, 81
2, 621020, Note_off_c, 0, 80, 64
2, 621024, Note_on_c, 0, 86, 83
2, 621116, Note_off_c, 0, 86, 64
2, 621120, Note_on_c, 0, 83, 79
2, 621212, Note_off_c, 0, 83, 64
2, 621216, Note_on_c, 0, 80, 78
2, 621308, Note_off_c, 0, 80, 64
2, 621312, Note_on_c, 0, 77, 79
2, 621404, Note_off_c, 0, 77, 64
2, 621408, Note_on_c, 0, 83, 78
2, 621500, Note_off_c, 0, 83, 64
2, 621504, Note_on_c, 0, 80, 76
2, 621596, Note_off_c, 0, 80, 64
2, 621600, Note_on_c, 0, 77, 75
2, 621692, Note_off_c, 0, 77, 64
2, 621696, Note_on_c, 0, 74, 78
2, 621788, Note_off_c, 0, 74, 64
2, 621792, Note_on_c, 0, 80, 76
2, 621884, Note_off_c, 0, 80, 64
2, 621888, Note_on_c, 0, 77, 75
2, 621980, Note_off_c, 0, 77, 64
2, 621984, Note_on_c, 0, 74, 75
2, 622076, Note_off_c, 0, 74, 64
2, 622176, Note_on_c, 0, 86, 83
2, 622268, Note_off_c, 0, 86, 64
2, 622272, Note_on_c, 0, 80, 78
2, 622364, Note_off_c, 0, 80, 64
2, 622368, Note_on_c, 0, 77, 75
2, 622460, Note_off_c, 0, 77, 64
2, 622464, Note_on_c, 0, 74, 75
2, 622556, Note_off_c, 0, 74, 64
2, 622560, Note_on_c, 0, 80, 78
2, 622652, Note_off_c, 0, 80, 64
2, 622656, Note_on_c, 0, 77, 75
2, 622748, Note_off_c, 0, 77, 64
2, 622752, Note_on_c, 0, 74, 75
2, 622844, Note_off_c, 0, 74, 64
2, 622848, Note_on_c, 0, 68, 75
2, 622940, Note_off_c, 0, 68, 64
2, 622944, Note_on_c, 0, 77, 75
2, 623036, Note_off_c, 0, 77, 64
2, 623040, Note_on_c, 0, 74, 75
2, 623132, Note_off_c, 0, 74, 64
2, 623136, Note_on_c, 0, 68, 75
2, 623228, Note_off_c, 0, 68, 64
2, 623232, Note_on_c, 0, 65, 75
2, 623324, Note_off_c, 0, 65, 64
2, 623328, Note_on_c, 0, 74, 75
2, 623420, Note_off_c, 0, 74, 64
2, 623424, Note_on_c, 0, 68, 75
2, 623516, Note_off_c, 0, 68, 64
2, 623520, Note_on_c, 0, 65, 75
2, 623612, Note_off_c, 0, 65, 64
2, 623616, Note_on_c, 0, 62, 75
2, 623708, Note_off_c, 0, 62, 64
2, 623712, Note_on_c, 0, 68, 75
2, 623804, Note_off_c, 0, 68, 64
2, 623808, Note_on_c, 0, 65, 75
2, 623900, Note_off_c, 0, 65, 64
2, 623904, Note_on_c, 0, 62, 75
2, 623996, Note_off_c, 0, 62, 64
2, 625344, Note_on_c, 0, 62, 75
2, 625436, Note_off_c, 0, 62, 64
2, 625536, Note_on_c, 0, 64, 75
2, 625628, Note_off_c, 0, 64, 64
2, 625728, Note_on_c, 0, 65, 75
2, 625820, Note_off_c, 0, 65, 64
2, 625920, Note_on_c, 0, 67, 75
2, 626012, Note_off_c, 0, 67, 64
2, 626112, Note_on_c, 0, 69, 75
2, 626204, Note_off_c, 0, 69, 64
2, 626304, Note_on_c, 0, 71, 75
2, 626396, Note_off_c, 0, 71, 64
2, 626496, Note_on_c, 0, 73, 75
2, 626588, Note_off_c, 0, 73, 64
2, 626688, Note_on_c, 0, 74, 75
2, 626780, Note_off_c, 0, 74, 64
2, 626880, Note_on_c, 0, 69, 75
2, 626972, Note_off_c, 0, 69, 64
2, 627072, Note_on_c, 0, 71, 75
2, 627164, Note_off_c, 0, 71, 64
2, 627264, Note_on_c, 0, 73, 75
2, 627356, Note_off_c, 0, 73, 64
2, 627456, Note_on_c, 0, 74, 75
2, 627548, Note_off_c, 0, 74, 64
2, 627648, Note_on_c, 0, 76, 75
2, 627740, Note_off_c, 0, 76, 64
2, 627840, Note_on_c, 0, 77, 75
2, 627932, Note_off_c, 0, 77, 64
2, 628032, Note_on_c, 0, 79, 75
2, 628124, Note_off_c, 0, 79, 64
2, 628224, Note_on_c, 0, 81, 75
2, 628264, Note_off_c, 0, 81, 64
2, 628272, Note_on_c, 0, 82, 75
2, 628312, Note_off_c, 0, 82, 64
2, 628320, Note_on_c, 0, 81, 75
2, 628360, Note_off_c, 0, 81, 64
2, 628368, Note_on_c, 0, 82, 75
2, 628408, Note_off_c, 0, 82, 64
2, 628416, Note_on_c, 0, 81, 75
2, 628456, Note_off_c, 0, 81, 64
2, 628464, Note_on_c, 0, 82, 75
2, 628504, Note_off_c, 0, 82, 64
2, 628512, Note_on_c, 0, 81, 75
2, 628552, Note_off_c, 0, 81, 64
2, 628560, Note_on_c, 0, 82, 75
2, 628600, Note_off_c, 0, 82, 64
2, 628608, Note_on_c, 0, 81, 75
2, 628648, Note_off_c, 0, 81, 64
2, 628656, Note_on_c, 0, 82, 75
2, 628696, Note_off_c, 0, 82, 64
2, 628704, Note_on_c, 0, 81, 75
2, 628744, Note_off_c, 0, 81, 64
2, 628752, Note_on_c, 0, 82, 75
2, 628792, Note_off_c, 0, 82, 64
2, 628800, Note_on_c, 0, 81, 75
2, 628840, Note_off_c, 0, 81, 64
2, 628848, Note_on_c, 0, 82, 75
2, 628888, Note_off_c, 0, 82, 64
2, 628896, Note_on_c, 0, 81, 75
2, 628936, Note_off_c, 0, 81, 64
2, 628944, Note_on_c, 0, 82, 75
2, 628984, Note_off_c, 0, 82, 64
2, 628992, Note_on_c, 0, 81, 75
2, 628992, Note_on_c, 0, 69, 75
2, 629032, Note_off_c, 0, 81, 64
2, 629040, Note_on_c, 0, 82, 75
2, 629080, Note_off_c, 0, 82, 64
2, 629088, Note_on_c, 0, 81, 75
2, 629128, Note_off_c, 0, 81, 64
2, 629136, Note_on_c, 0, 82, 75
2, 629176, Note_off_c, 0, 82, 64
2, 629184, Note_on_c, 0, 81, 75
2, 629224, Note_off_c, 0, 81, 64
2, 629232, Note_on_c, 0, 82, 75
2, 629272, Note_off_c, 0, 82, 64
2, 629280, Note_on_c, 0, 81, 75
2, 629320, Note_off_c, 0, 81, 64
2, 629328, Note_on_c, 0, 82, 75
2, 629368, Note_off_c, 0, 82, 64
2, 629372, Note_off_c, 0, 69, 64
2, 629376, Note_on_c, 0, 81, 75
2, 629376, Note_on_c, 0, 69, 75
2, 629416, Note_off_c, 0, 81, 64
2, 629424, Note_on_c, 0, 82, 75
2, 629464, Note_off_c, 0, 82, 64
2, 629472, Note_on_c, 0, 81, 75
2, 629512, Note_off_c, 0, 81, 64
2, 629520, Note_on_c, 0, 82, 75
2, 629560, Note_off_c, 0, 82, 64
2, 629568, Note_on_c, 0, 81, 75
2, 629608, Note_off_c, 0, 81, 64
2, 629616, Note_on_c, 0, 82, 75
2, 629656, Note_off_c, 0, 82, 64
2, 629664, Note_on_c, 0, 81, 75
2, 629704, Note_off_c, 0, 81, 64
2, 629712, Note_on_c, 0, 82, 75
2, 629752, Note_off_c, 0, 82, 64
2, 629756, Note_off_c, 0, 69, 64
2, 629760, Note_on_c, 0, 81, 75
2, 629760, Note_on_c, 0, 77, 75
2, 629800, Note_off_c, 0, 81, 64
2, 629808, Note_on_c, 0, 82, 75
2, 629848, Note_off_c, 0, 82, 64
2, 629856, Note_on_c, 0, 81, 75
2, 629896, Note_off_c, 0, 81, 64
2, 629904, Note_on_c, 0, 82, 75
2, 629944, Note_off_c, 0, 82, 64
2, 629952, Note_on_c, 0, 81, 75
2, 629992, Note_off_c, 0, 81, 64
2, 630000, Note_on_c, 0, 82, 75
2, 630040, Note_off_c, 0, 82, 64
2, 630048, Note_on_c, 0, 81, 75
2, 630088, Note_off_c, 0, 81, 64
2, 630096, Note_on_c, 0, 82, 75
2, 630136, Note_off_c, 0, 82, 64
2, 630144, Note_on_c, 0, 81, 75
2, 630184, Note_off_c, 0, 81, 64
2, 630192, Note_on_c, 0, 82, 75
2, 630232, Note_off_c, 0, 82, 64
2, 630240, Note_on_c, 0, 81, 75
2, 630280, Note_off_c, 0, 81, 64
2, 630288, Note_on_c, 0, 82, 75
2, 630328, Note_off_c, 0, 82, 64
2, 630332, Note_off_c, 0, 77, 64
2, 630336, Note_on_c, 0, 81, 75
2, 630336, Note_on_c, 0, 76, 75
2, 630376, Note_off_c, 0, 81, 64
2, 630384, Note_on_c, 0, 82, 75
2, 630424, Note_off_c, 0, 82, 64
2, 630428, Note_off_c, 0, 76, 64
2, 630432, Note_on_c, 0, 81, 75
2, 630432, Note_on_c, 0, 74, 75
2, 630472, Note_off_c, 0, 81, 64
2, 630480, Note_on_c, 0, 82, 75
2, 630520, Note_off_c, 0, 82, 64
2, 630524, Note_off_c, 0, 74, 64
2, 630528, Note_on_c, 0, 81, 75
2, 630528, Note_on_c, 0, 73, 75
2, 630568, Note_off_c, 0, 81, 64
2, 630576, Note_on_c, 0, 82, 75
2, 630616, Note_off_c, 0, 82, 64
2, 630624, Note_on_c, 0, 81, 75
2, 630664, Note_off_c, 0, 81, 64
2, 630672, Note_on_c, 0, 82, 75
2, 630712, Note_off_c, 0, 82, 64
2, 630720, Note_on_c, 0, 81, 75
2, 630760, Note_off_c, 0, 81, 64
2, 630768, Note_on_c, 0, 82, 75
2, 630808, Note_off_c, 0, 82, 64
2, 630816, Note_on_c, 0, 81, 75
2, 630856, Note_off_c, 0, 81, 64
2, 630864, Note_on_c, 0, 82, 75
2, 630904, Note_off_c, 0, 82, 64
2, 630912, Note_on_c, 0, 81, 75
2, 630952, Note_off_c, 0, 81, 64
2, 630960, Note_on_c, 0, 82, 75
2, 631000, Note_off_c, 0, 82, 64
2, 631008, Note_on_c, 0, 81, 75
2, 631048, Note_off_c, 0, 81, 64
2, 631056, Note_on_c, 0, 82, 75
2, 631096, Note_off_c, 0, 82, 64
2, 631104, Note_on_c, 0, 81, 75
2, 631144, Note_off_c, 0, 81, 64
2, 631152, Note_on_c, 0, 82, 75
2, 631192, Note_off_c, 0, 82, 64
2, 631200, Note_on_c, 0, 81, 75
2, 631240, Note_off_c, 0, 81, 64
2, 631248, Note_on_c, 0, 82, 75
2, 631288, Note_off_c, 0, 82, 64
2, 631292, Note_off_c, 0, 73, 64
2, 631296, Note_on_c, 0, 81, 82
2, 631296, Note_on_c, 0, 74, 82
2, 631336, Note_off_c, 0, 81, 64
2, 631344, Note_on_c, 0, 82, 82
2, 631384, Note_off_c, 0, 82, 64
2, 631392, Note_on_c, 0, 81, 82
2, 631432, Note_off_c, 0, 81, 64
2, 631440, Note_on_c, 0, 82, 82
2, 631480, Note_off_c, 0, 82, 64
2, 631488, Note_on_c, 0, 81, 82
2, 631528, Note_off_c, 0, 81, 64
2, 631536, Note_on_c, 0, 82, 82
2, 631576, Note_off_c, 0, 82, 64
2, 631584, Note_on_c, 0, 81, 82
2, 631624, Note_off_c, 0, 81, 64
2, 631632, Note_on_c, 0, 82, 82
2, 631672, Note_off_c, 0, 82, 64
2, 631680, Note_on_c, 0, 81, 82
2, 631720, Note_off_c, 0, 81, 64
2, 631728, Note_on_c, 0, 82, 82
2, 631768, Note_off_c, 0, 82, 64
2, 631776, Note_on_c, 0, 81, 82
2, 631816, Note_off_c, 0, 81, 64
2, 631824, Note_on_c, 0, 82, 82
2, 631864, Note_off_c, 0, 82, 64
2, 631872, Note_on_c, 0, 81, 82
2, 631912, Note_off_c, 0, 81, 64
2, 631920, Note_on_c, 0, 82, 82
2, 631960, Note_off_c, 0, 82, 64
2, 631968, Note_on_c, 0, 81, 82
2, 632008, Note_off_c, 0, 81, 64
2, 632016, Note_on_c, 0, 82, 82
2, 632056, Note_off_c, 0, 82, 64
2, 632060, Note_off_c, 0, 74, 64
2, 632064, Note_on_c, 0, 81, 82
2, 632064, Note_on_c, 0, 69, 82
2, 632064, Note_on_c, 0, 61, 82
2, 632104, Note_off_c, 0, 81, 64
2, 632112, Note_on_c, 0, 82, 82
2, 632152, Note_off_c, 0, 82, 64
2, 632160, Note_on_c, 0, 81, 82
2, 632200, Note_off_c, 0, 81, 64
2, 632208, Note_on_c, 0, 82, 82
2, 632248, Note_off_c, 0, 82, 64
2, 632256, Note_on_c, 0, 81, 82
2, 632296, Note_off_c, 0, 81, 64
2, 632304, Note_on_c, 0, 82, 82
2, 632344, Note_off_c, 0, 82, 64
2, 632352, Note_on_c, 0, 81, 82
2, 632392, Note_off_c, 0, 81, 64
2, 632400, Note_on_c, 0, 82, 82
2, 632440, Note_off_c, 0, 82, 64
2, 632444, Note_off_c, 0, 69, 64
2, 632444, Note_off_c, 0, 61, 64
2, 632448, Note_on_c, 0, 81, 82
2, 632448, Note_on_c, 0, 69, 82
2, 632448, Note_on_c, 0, 61, 82
2, 632488, Note_off_c, 0, 81, 64
2, 632496, Note_on_c, 0, 82, 82
2, 632536, Note_off_c, 0, 82, 64
2, 632544, Note_on_c, 0, 81, 82
2, 632584, Note_off_c, 0, 81, 64
2, 632592, Note_on_c, 0, 82, 82
2, 632632, Note_off_c, 0, 82, 64
2, 632640, Note_on_c, 0, 81, 82
2, 632680, Note_off_c, 0, 81, 64
2, 632688, Note_on_c, 0, 82, 82
2, 632728, Note_off_c, 0, 82, 64
2, 632736, Note_on_c, 0, 81, 82
2, 632776, Note_off_c, 0, 81, 64
2, 632784, Note_on_c, 0, 82, 82
2, 632824, Note_off_c, 0, 82, 64
2, 632828, Note_off_c, 0, 69, 64
2, 632828, Note_off_c, 0, 61, 64
2, 632832, Note_on_c, 0, 81, 82
2, 632832, Note_on_c, 0, 62, 82
2, 632832, Note_on_c, 0, 77, 82
2, 632872, Note_off_c, 0, 81, 64
2, 632880, Note_on_c, 0, 82, 82
2, 632920, Note_off_c, 0, 82, 64
2, 632928, Note_on_c, 0, 81, 82
2, 632968, Note_off_c, 0, 81, 64
2, 632976, Note_on_c, 0, 82, 82
2, 633016, Note_off_c, 0, 82, 64
2, 633024, Note_on_c, 0, 81, 82
2, 633064, Note_off_c, 0, 81, 64
2, 633072, Note_on_c, 0, 82, 82
2, 633112, Note_off_c, 0, 82, 64
2, 633120, Note_on_c, 0, 81, 82
2, 633160, Note_off_c, 0, 81, 64
2, 633168, Note_on_c, 0, 82, 82
2, 633208, Note_off_c, 0, 82, 64
2, 633212, Note_off_c, 0, 62, 64
2, 633212, Note_off_c, 0, 77, 64
2, 633216, Note_on_c, 0, 81, 82
2, 633256, Note_off_c, 0, 81, 64
2, 633264, Note_on_c, 0, 82, 82
2, 633304, Note_off_c, 0, 82, 64
2, 633312, Note_on_c, 0, 81, 82
2, 633352, Note_off_c, 0, 81, 64
2, 633360, Note_on_c, 0, 82, 82
2, 633400, Note_off_c, 0, 82, 64
2, 633408, Note_on_c, 0, 81, 82
2, 633408, Note_on_c, 0, 76, 82
2, 633448, Note_off_c, 0, 81, 64
2, 633456, Note_on_c, 0, 82, 82
2, 633496, Note_off_c, 0, 82, 64
2, 633500, Note_off_c, 0, 76, 64
2, 633504, Note_on_c, 0, 81, 82
2, 633504, Note_on_c, 0, 74, 82
2, 633544, Note_off_c, 0, 81, 64
2, 633552, Note_on_c, 0, 82, 82
2, 633592, Note_off_c, 0, 82, 64
2, 633596, Note_off_c, 0, 74, 64
2, 633600, Note_on_c, 0, 81, 82
2, 633600, Note_on_c, 0, 73, 82
2, 633640, Note_off_c, 0, 81, 64
2, 633648, Note_on_c, 0, 82, 82
2, 633688, Note_off_c, 0, 82, 64
2, 633696, Note_on_c, 0, 81, 82
2, 633736, Note_off_c, 0, 81, 64
2, 633744, Note_on_c, 0, 82, 82
2, 633784, Note_off_c, 0, 82, 64
2, 633792, Note_on_c, 0, 81, 82
2, 633832, Note_off_c, 0, 81, 64
2, 633840, Note_on_c, 0, 82, 82
2, 633880, Note_off_c, 0, 82, 64
2, 633888, Note_on_c, 0, 81, 82
2, 633928, Note_off_c, 0, 81, 64
2, 633936, Note_on_c, 0, 82, 82
2, 633976, Note_off_c, 0, 82, 64
2, 633984, Note_on_c, 0, 81, 82
2, 634024, Note_off_c, 0, 81, 64
2, 634032, Note_on_c, 0, 82, 82
2, 634072, Note_off_c, 0, 82, 64
2, 634080, Note_on_c, 0, 81, 82
2, 634120, Note_off_c, 0, 81, 64
2, 634128, Note_on_c, 0, 82, 82
2, 634168, Note_off_c, 0, 82, 64
2, 634176, Note_on_c, 0, 81, 82
2, 634216, Note_off_c, 0, 81, 64
2, 634224, Note_on_c, 0, 82, 82
2, 634264, Note_off_c, 0, 82, 64
2, 634272, Note_on_c, 0, 81, 82
2, 634312, Note_off_c, 0, 81, 64
2, 634320, Note_on_c, 0, 82, 82
2, 634360, Note_off_c, 0, 82, 64
2, 634364, Note_off_c, 0, 73, 64
2, 634368, Note_on_c, 0, 81, 82
2, 634368, Note_on_c, 0, 74, 82
2, 634408, Note_off_c, 0, 81, 64
2, 634416, Note_on_c, 0, 82, 82
2, 634456, Note_off_c, 0, 82, 64
2, 634464, Note_on_c, 0, 81, 82
2, 634504, Note_off_c, 0, 81, 64
2, 634512, Note_on_c, 0, 82, 82
2, 634552, Note_off_c, 0, 82, 64
2, 634560, Note_on_c, 0, 81, 82
2, 634600, Note_off_c, 0, 81, 64
2, 634608, Note_on_c, 0, 82, 82
2, 634648, Note_off_c, 0, 82, 64
2, 634656, Note_on_c, 0, 81, 82
2, 634696, Note_off_c, 0, 81, 64
2, 634704, Note_on_c, 0, 82, 82
2, 634744, Note_off_c, 0, 82, 64
2, 634752, Note_on_c, 0, 81, 82
2, 634792, Note_off_c, 0, 81, 64
2, 634800, Note_on_c, 0, 82, 82
2, 634840, Note_off_c, 0, 82, 64
2, 634848, Note_on_c, 0, 81, 82
2, 634888, Note_off_c, 0, 81, 64
2, 634896, Note_on_c, 0, 82, 82
2, 634936, Note_off_c, 0, 82, 64
2, 634944, Note_on_c, 0, 81, 82
2, 634984, Note_off_c, 0, 81, 64
2, 634992, Note_on_c, 0, 82, 82
2, 635032, Note_off_c, 0, 82, 64
2, 635040, Note_on_c, 0, 81, 82
2, 635080, Note_off_c, 0, 81, 64
2, 635088, Note_on_c, 0, 82, 82
2, 635128, Note_off_c, 0, 82, 64
2, 635132, Note_off_c, 0, 74, 64
2, 635136, Note_on_c, 0, 81, 82
2, 635176, Note_off_c, 0, 81, 64
2, 635184, Note_on_c, 0, 82, 82
2, 635224, Note_off_c, 0, 82, 64
2, 635232, Note_on_c, 0, 81, 82
2, 635272, Note_off_c, 0, 81, 64
2, 635280, Note_on_c, 0, 82, 82
2, 635320, Note_off_c, 0, 82, 64
2, 635328, Note_on_c, 0, 81, 82
2, 635368, Note_off_c, 0, 81, 64
2, 635376, Note_on_c, 0, 82, 82
2, 635416, Note_off_c, 0, 82, 64
2, 635424, Note_on_c, 0, 81, 82
2, 635464, Note_off_c, 0, 81, 64
2, 635472, Note_on_c, 0, 82, 82
2, 635512, Note_off_c, 0, 82, 64
2, 635520, Note_on_c, 0, 81, 82
2, 635560, Note_off_c, 0, 81, 64
2, 635568, Note_on_c, 0, 82, 82
2, 635608, Note_off_c, 0, 82, 64
2, 635616, Note_on_c, 0, 81, 82
2, 635656, Note_off_c, 0, 81, 64
2, 635664, Note_on_c, 0, 82, 82
2, 635704, Note_off_c, 0, 82, 64
2, 635712, Note_on_c, 0, 81, 82
2, 635752, Note_off_c, 0, 81, 64
2, 635760, Note_on_c, 0, 82, 82
2, 635800, Note_off_c, 0, 82, 64
2, 635808, Note_on_c, 0, 81, 82
2, 635848, Note_off_c, 0, 81, 64
2, 635856, Note_on_c, 0, 82, 82
2, 635896, Note_off_c, 0, 82, 64
2, 635904, Note_on_c, 0, 81, 82
2, 635944, Note_off_c, 0, 81, 64
2, 635952, Note_on_c, 0, 82, 82
2, 635992, Note_off_c, 0, 82, 64
2, 636000, Note_on_c, 0, 81, 82
2, 636040, Note_off_c, 0, 81, 64
2, 636048, Note_on_c, 0, 82, 82
2, 636088, Note_off_c, 0, 82, 64
2, 636096, Note_on_c, 0, 81, 82
2, 636136, Note_off_c, 0, 81, 64
2, 636144, Note_on_c, 0, 82, 82
2, 636184, Note_off_c, 0, 82, 64
2, 636192, Note_on_c, 0, 81, 82
2, 636232, Note_off_c, 0, 81, 64
2, 636240, Note_on_c, 0, 82, 82
2, 636280, Note_off_c, 0, 82, 64
2, 636288, Note_on_c, 0, 81, 82
2, 636328, Note_off_c, 0, 81, 64
2, 636336, Note_on_c, 0, 82, 82
2, 636376, Note_off_c, 0, 82, 64
2, 636384, Note_on_c, 0, 81, 82
2, 636424, Note_off_c, 0, 81, 64
2, 636432, Note_on_c, 0, 82, 82
2, 636472, Note_off_c, 0, 82, 64
2, 636480, Note_on_c, 0, 81, 82
2, 636520, Note_off_c, 0, 81, 64
2, 636528, Note_on_c, 0, 82, 82
2, 636568, Note_off_c, 0, 82, 64
2, 636576, Note_on_c, 0, 81, 82
2, 636616, Note_off_c, 0, 81, 64
2, 636624, Note_on_c, 0, 82, 82
2, 636664, Note_off_c, 0, 82, 64
2, 636672, Note_on_c, 0, 80, 82
2, 636712, Note_off_c, 0, 80, 64
2, 636720, Note_on_c, 0, 81, 82
2, 636760, Note_off_c, 0, 81, 64
2, 636768, Note_on_c, 0, 80, 82
2, 636808, Note_off_c, 0, 80, 64
2, 636816, Note_on_c, 0, 81, 82
2, 636856, Note_off_c, 0, 81, 64
2, 636864, Note_on_c, 0, 80, 82
2, 636904, Note_off_c, 0, 80, 64
2, 636912, Note_on_c, 0, 81, 82
2, 636952, Note_off_c, 0, 81, 64
2, 636960, Note_on_c, 0, 80, 82
2, 637000, Note_off_c, 0, 80, 64
2, 637008, Note_on_c, 0, 81, 82
2, 637048, Note_off_c, 0, 81, 64
2, 637056, Note_on_c, 0, 80, 82
2, 637096, Note_off_c, 0, 80, 64
2, 637104, Note_on_c, 0, 81, 82
2, 637144, Note_off_c, 0, 81, 64
2, 637152, Note_on_c, 0, 80, 82
2, 637192, Note_off_c, 0, 80, 64
2, 637200, Note_on_c, 0, 81, 82
2, 637240, Note_off_c, 0, 81, 64
2, 637248, Note_on_c, 0, 80, 82
2, 637288, Note_off_c, 0, 80, 64
2, 637296, Note_on_c, 0, 81, 82
2, 637336, Note_off_c, 0, 81, 64
2, 637344, Note_on_c, 0, 80, 82
2, 637384, Note_off_c, 0, 80, 64
2, 637392, Note_on_c, 0, 81, 82
2, 637432, Note_off_c, 0, 81, 64
2, 637440, Note_on_c, 0, 79, 82
2, 637480, Note_off_c, 0, 79, 64
2, 637488, Note_on_c, 0, 81, 82
2, 637528, Note_off_c, 0, 81, 64
2, 637536, Note_on_c, 0, 79, 82
2, 637576, Note_off_c, 0, 79, 64
2, 637584, Note_on_c, 0, 81, 82
2, 637624, Note_off_c, 0, 81, 64
2, 637632, Note_on_c, 0, 79, 82
2, 637672, Note_off_c, 0, 79, 64
2, 637680, Note_on_c, 0, 81, 82
2, 637720, Note_off_c, 0, 81, 64
2, 637728, Note_on_c, 0, 79, 82
2, 637768, Note_off_c, 0, 79, 64
2, 637776, Note_on_c, 0, 81, 82
2, 637816, Note_off_c, 0, 81, 64
2, 637824, Note_on_c, 0, 79, 82
2, 637864, Note_off_c, 0, 79, 64
2, 637872, Note_on_c, 0, 81, 82
2, 637912, Note_off_c, 0, 81, 64
2, 637920, Note_on_c, 0, 79, 82
2, 637960, Note_off_c, 0, 79, 64
2, 637968, Note_on_c, 0, 81, 82
2, 638008, Note_off_c, 0, 81, 64
2, 638016, Note_on_c, 0, 79, 82
2, 638056, Note_off_c, 0, 79, 64
2, 638064, Note_on_c, 0, 81, 82
2, 638104, Note_off_c, 0, 81, 64
2, 638112, Note_on_c, 0, 79, 82
2, 638152, Note_off_c, 0, 79, 64
2, 638160, Note_on_c, 0, 81, 82
2, 638200, Note_off_c, 0, 81, 64
2, 638208, Note_on_c, 0, 78, 82
2, 638248, Note_off_c, 0, 78, 64
2, 638256, Note_on_c, 0, 79, 82
2, 638296, Note_off_c, 0, 79, 64
2, 638304, Note_on_c, 0, 78, 82
2, 638344, Note_off_c, 0, 78, 64
2, 638352, Note_on_c, 0, 79, 82
2, 638392, Note_off_c, 0, 79, 64
2, 638400, Note_on_c, 0, 78, 82
2, 638440, Note_off_c, 0, 78, 64
2, 638448, Note_on_c, 0, 79, 82
2, 638488, Note_off_c, 0, 79, 64
2, 638496, Note_on_c, 0, 78, 82
2, 638536, Note_off_c, 0, 78, 64
2, 638544, Note_on_c, 0, 79, 82
2, 638584, Note_off_c, 0, 79, 64
2, 638592, Note_on_c, 0, 78, 82
2, 638632, Note_off_c, 0, 78, 64
2, 638640, Note_on_c, 0, 79, 82
2, 638680, Note_off_c, 0, 79, 64
2, 638688, Note_on_c, 0, 78, 82
2, 638728, Note_off_c, 0, 78, 64
2, 638736, Note_on_c, 0, 79, 82
2, 638776, Note_off_c, 0, 79, 64
2, 638784, Note_on_c, 0, 78, 82
2, 638824, Note_off_c, 0, 78, 64
2, 638832, Note_on_c, 0, 79, 82
2, 638872, Note_off_c, 0, 79, 64
2, 638880, Note_on_c, 0, 78, 82
2, 638920, Note_off_c, 0, 78, 64
2, 638928, Note_on_c, 0, 79, 82
2, 638968, Note_off_c, 0, 79, 64
2, 638976, Note_on_c, 0, 77, 82
2, 639100, Note_off_c, 0, 77, 64
2, 639104, Note_on_c, 0, 76, 82
2, 639228, Note_off_c, 0, 76, 64
2, 639232, Note_on_c, 0, 77, 82
2, 639356, Note_off_c, 0, 77, 64
2, 639360, Note_on_c, 0, 79, 82
2, 639484, Note_off_c, 0, 79, 64
2, 639488, Note_on_c, 0, 77, 82
2, 639612, Note_off_c, 0, 77, 64
2, 639616, Note_on_c, 0, 76, 82
2, 639740, Note_off_c, 0, 76, 64
2, 639744, Note_on_c, 0, 77, 82
2, 639868, Note_off_c, 0, 77, 64
2, 639872, Note_on_c, 0, 76, 82
2, 639996, Note_off_c, 0, 76, 64
2, 640000, Note_on_c, 0, 77, 82
2, 640124, Note_off_c, 0, 77, 64
2, 640128, Note_on_c, 0, 79, 82
2, 640252, Note_off_c, 0, 79, 64
2, 640256, Note_on_c, 0, 77, 82
2, 640380, Note_off_c, 0, 77, 64
2, 640384, Note_on_c, 0, 76, 82
2, 640508, Note_off_c, 0, 76, 64
2, 640512, Note_on_c, 0, 77, 82
2, 640636, Note_off_c, 0, 77, 64
2, 640640, Note_on_c, 0, 76, 82
2, 640764, Note_off_c, 0, 76, 64
2, 640768, Note_on_c, 0, 77, 82
2, 640892, Note_off_c, 0, 77, 64
2, 640896, Note_on_c, 0, 79, 82
2, 641020, Note_off_c, 0, 79, 64
2, 641024, Note_on_c, 0, 77, 82
2, 641148, Note_off_c, 0, 77, 64
2, 641152, Note_on_c, 0, 76, 82
2, 641276, Note_off_c, 0, 76, 64
2, 641280, Note_on_c, 0, 77, 82
2, 641404, Note_off_c, 0, 77, 64
2, 641408, Note_on_c, 0, 76, 82
2, 641532, Note_off_c, 0, 76, 64
2, 641536, Note_on_c, 0, 77, 82
2, 641660, Note_off_c, 0, 77, 64
2, 641664, Note_on_c, 0, 79, 82
2, 641788, Note_off_c, 0, 79, 64
2, 641792, Note_on_c, 0, 77, 82
2, 641916, Note_off_c, 0, 77, 64
2, 641920, Note_on_c, 0, 76, 82
2, 642044, Note_off_c, 0, 76, 64
2, 642048, Note_on_c, 0, 75, 82
2, 642172, Note_off_c, 0, 75, 64
2, 642176, Note_on_c, 0, 79, 82
2, 642300, Note_off_c, 0, 79, 64
2, 642304, Note_on_c, 0, 75, 82
2, 642428, Note_off_c, 0, 75, 64
2, 642432, Note_on_c, 0, 74, 82
2, 642556, Note_off_c, 0, 74, 64
2, 642560, Note_on_c, 0, 77, 82
2, 642684, Note_off_c, 0, 77, 64
2, 642688, Note_on_c, 0, 74, 82
2, 642812, Note_off_c, 0, 74, 64
2, 642816, Note_on_c, 0, 75, 82
2, 642940, Note_off_c, 0, 75, 64
2, 642944, Note_on_c, 0, 82, 82
2, 643068, Note_off_c, 0, 82, 64
2, 643072, Note_on_c, 0, 75, 82
2, 643196, Note_off_c, 0, 75, 64
2, 643200, Note_on_c, 0, 74, 82
2, 643324, Note_off_c, 0, 74, 64
2, 643328, Note_on_c, 0, 82, 82
2, 643452, Note_off_c, 0, 82, 64
2, 643456, Note_on_c, 0, 74, 82
2, 643580, Note_off_c, 0, 74, 64
2, 643584, Note_on_c, 0, 75, 82
2, 643708, Note_off_c, 0, 75, 64
2, 643712, Note_on_c, 0, 79, 82
2, 643836, Note_off_c, 0, 79, 64
2, 643840, Note_on_c, 0, 75, 82
2, 643964, Note_off_c, 0, 75, 64
2, 643968, Note_on_c, 0, 74, 82
2, 644092, Note_off_c, 0, 74, 64
2, 644096, Note_on_c, 0, 77, 82
2, 644220, Note_off_c, 0, 77, 64
2, 644224, Note_on_c, 0, 74, 82
2, 644348, Note_off_c, 0, 74, 64
2, 644352, Note_on_c, 0, 75, 82
2, 644476, Note_off_c, 0, 75, 64
2, 644480, Note_on_c, 0, 82, 82
2, 644604, Note_off_c, 0, 82, 64
2, 644608, Note_on_c, 0, 75, 82
2, 644732, Note_off_c, 0, 75, 64
2, 644736, Note_on_c, 0, 74, 82
2, 644860, Note_off_c, 0, 74, 64
2, 644864, Note_on_c, 0, 82, 82
2, 644988, Note_off_c, 0, 82, 64
2, 644992, Note_on_c, 0, 74, 82
2, 645116, Note_off_c, 0, 74, 64
2, 645120, Note_on_c, 0, 75, 82
2, 645244, Note_off_c, 0, 75, 64
2, 645248, Note_on_c, 0, 82, 82
2, 645372, Note_off_c, 0, 82, 64
2, 645376, Note_on_c, 0, 79, 82
2, 645500, Note_off_c, 0, 79, 64
2, 645504, Note_on_c, 0, 75, 82
2, 645628, Note_off_c, 0, 75, 64
2, 645632, Note_on_c, 0, 79, 82
2, 645756, Note_off_c, 0, 79, 64
2, 645760, Note_on_c, 0, 75, 82
2, 645884, Note_off_c, 0, 75, 64
2, 645888, Note_on_c, 0, 70, 82
2, 646012, Note_off_c, 0, 70, 64
2, 646016, Note_on_c, 0, 75, 82
2, 646140, Note_off_c, 0, 75, 64
2, 646144, Note_on_c, 0, 70, 82
2, 646268, Note_off_c, 0, 70, 64
2, 646272, Note_on_c, 0, 67, 82
2, 646396, Note_off_c, 0, 67, 64
2, 646400, Note_on_c, 0, 70, 82
2, 646524, Note_off_c, 0, 70, 64
2, 646528, Note_on_c, 0, 67, 82
2, 646652, Note_off_c, 0, 67, 64
2, 646656, Note_on_c, 0, 63, 82
2, 646780, Note_off_c, 0, 63, 64
2, 646784, Note_on_c, 0, 67, 82
2, 646908, Note_off_c, 0, 67, 64
2, 646912, Note_on_c, 0, 63, 82
2, 647036, Note_off_c, 0, 63, 64
2, 647040, Note_on_c, 0, 58, 82
2, 647164, Note_off_c, 0, 58, 64
2, 647168, Note_on_c, 0, 63, 82
2, 647292, Note_off_c, 0, 63, 64
2, 647296, Note_on_c, 0, 58, 82
2, 647420, Note_off_c, 0, 58, 64
2, 648704, Note_on_c, 0, 62, 85
2, 648828, Note_off_c, 0, 62, 64
2, 648832, Note_on_c, 0, 65, 85
2, 648956, Note_off_c, 0, 65, 64
2, 648960, Note_on_c, 0, 68, 87
2, 649084, Note_off_c, 0, 68, 64
2, 649088, Note_on_c, 0, 71, 87
2, 649212, Note_off_c, 0, 71, 64
2, 649216, Note_on_c, 0, 74, 88
2, 649340, Note_off_c, 0, 74, 64
2, 649344, Note_on_c, 0, 77, 88
2, 649468, Note_off_c, 0, 77, 64
2, 649472, Note_on_c, 0, 80, 89
2, 649596, Note_off_c, 0, 80, 64
2, 649600, Note_on_c, 0, 83, 89
2, 649724, Note_off_c, 0, 83, 64
2, 649728, Note_on_c, 0, 86, 90
2, 649852, Note_off_c, 0, 86, 64
2, 649856, Note_on_c, 0, 89, 93
2, 649980, Note_off_c, 0, 89, 64
2, 649984, Note_on_c, 0, 86, 89
2, 650108, Note_off_c, 0, 86, 64
2, 650112, Note_on_c, 0, 83, 89
2, 650236, Note_off_c, 0, 83, 64
2, 650240, Note_on_c, 0, 80, 88
2, 650364, Note_off_c, 0, 80, 64
2, 650368, Note_on_c, 0, 77, 88
2, 650492, Note_off_c, 0, 77, 64
2, 650496, Note_on_c, 0, 74, 87
2, 650588, Note_off_c, 0, 74, 64
2, 650592, Note_on_c, 0, 71, 85
2, 650684, Note_off_c, 0, 71, 64
2, 650688, Note_on_c, 0, 68, 85
2, 650780, Note_off_c, 0, 68, 64
2, 650784, Note_on_c, 0, 65, 84
2, 650876, Note_off_c, 0, 65, 64
2, 652416, Note_on_c, 0, 65, 90
2, 652416, Note_on_c, 0, 53, 90
2, 652508, Note_off_c, 0, 65, 64
2, 652508, Note_off_c, 0, 53, 64
2, 652512, Note_on_c, 0, 67, 90
2, 652512, Note_on_c, 0, 55, 90
2, 652604, Note_off_c, 0, 67, 64
2, 652604, Note_off_c, 0, 55, 64
2, 652608, Note_on_c, 0, 69, 91
2, 652608, Note_on_c, 0, 57, 91
2, 652700, Note_off_c, 0, 69, 64
2, 652700, Note_off_c, 0, 57, 64
2, 652704, Note_on_c, 0, 71, 93
2, 652704, Note_on_c, 0, 59, 93
2, 652796, Note_off_c, 0, 71, 64
2, 652796, Note_off_c, 0, 59, 64
2, 652800, Note_on_c, 0, 73, 94
2, 652800, Note_on_c, 0, 61, 94
2, 652892, Note_off_c, 0, 73, 64
2, 652892, Note_off_c, 0, 61, 64
2, 652896, Note_on_c, 0, 74, 95
2, 652896, Note_on_c, 0, 62, 95
2, 652988, Note_off_c, 0, 74, 64
2, 652988, Note_off_c, 0, 62, 64
2, 652992, Note_on_c, 0, 76, 96
2, 652992, Note_on_c, 0, 64, 96
2, 653084, Note_off_c, 0, 76, 64
2, 653084, Note_off_c, 0, 64, 64
2, 653088, Note_on_c, 0, 77, 97
2, 653088, Note_on_c, 0, 65, 97
2, 653180, Note_off_c, 0, 77, 64
2, 653180, Note_off_c, 0, 65, 64
2, 653184, Note_on_c, 0, 79, 97
2, 653184, Note_on_c, 0, 67, 97
2, 653276, Note_off_c, 0, 79, 64
2, 653276, Note_off_c, 0, 67, 64
2, 653280, Note_on_c, 0, 69, 98
2, 653280, Note_on_c, 0, 81, 98
2, 653372, Note_off_c, 0, 69, 64
2, 653372, Note_off_c, 0, 81, 64
2, 653376, Note_on_c, 0, 83, 99
2, 653376, Note_on_c, 0, 71, 99
2, 653468, Note_off_c, 0, 83, 64
2, 653468, Note_off_c, 0, 71, 64
2, 653472, Note_on_c, 0, 85, 100
2, 653472, Note_on_c, 0, 73, 100
2, 653564, Note_off_c, 0, 85, 64
2, 653564, Note_off_c, 0, 73, 64
2, 653568, Note_on_c, 0, 86, 103
2, 653568, Note_on_c, 0, 74, 103
2, 653660, Note_off_c, 0, 86, 64
2, 653660, Note_off_c, 0, 74, 64
2, 653664, Note_on_c, 0, 88, 104
2, 653664, Note_on_c, 0, 76, 104
2, 653756, Note_off_c, 0, 88, 64
2, 653756, Note_off_c, 0, 76, 64
2, 653760, Note_on_c, 0, 77, 105
2, 653760, Note_on_c, 0, 89, 105
2, 653852, Note_off_c, 0, 77, 64
2, 653852, Note_off_c, 0, 89, 64
2, 653856, Note_on_c, 0, 79, 106
2, 653856, Note_on_c, 0, 91, 106
2, 653948, Note_off_c, 0, 79, 64
2, 653948, Note_off_c, 0, 91, 64
2, 653952, Note_on_c, 0, 93, 106
2, 654044, Note_off_c, 0, 93, 64
2, 654048, Note_on_c, 0, 81, 106
2, 654140, Note_off_c, 0, 81, 64
2, 654144, Note_on_c, 0, 92, 106
2, 654236, Note_off_c, 0, 92, 64
2, 654240, Note_on_c, 0, 81, 106
2, 654332, Note_off_c, 0, 81, 64
2, 654336, Note_on_c, 0, 91, 105
2, 654428, Note_off_c, 0, 91, 64
2, 654432, Note_on_c, 0, 81, 105
2, 654524, Note_off_c, 0, 81, 64
2, 654528, Note_on_c, 0, 90, 104
2, 654620, Note_off_c, 0, 90, 64
2, 654624, Note_on_c, 0, 81, 104
2, 654716, Note_off_c, 0, 81, 64
2, 654720, Note_on_c, 0, 89, 104
2, 654812, Note_off_c, 0, 89, 64
2, 654816, Note_on_c, 0, 81, 103
2, 654908, Note_off_c, 0, 81, 64
2, 654912, Note_on_c, 0, 88, 103
2, 655004, Note_off_c, 0, 88, 64
2, 655008, Note_on_c, 0, 81, 100
2, 655100, Note_off_c, 0, 81, 64
2, 655104, Note_on_c, 0, 87, 100
2, 655196, Note_off_c, 0, 87, 64
2, 655200, Note_on_c, 0, 81, 100
2, 655292, Note_off_c, 0, 81, 64
2, 655296, Note_on_c, 0, 86, 99
2, 655388, Note_off_c, 0, 86, 64
2, 655392, Note_on_c, 0, 81, 99
2, 655484, Note_off_c, 0, 81, 64
2, 655488, Note_on_c, 0, 85, 98
2, 655580, Note_off_c, 0, 85, 64
2, 655584, Note_on_c, 0, 81, 98
2, 655676, Note_off_c, 0, 81, 64
2, 655680, Note_on_c, 0, 84, 98
2, 655772, Note_off_c, 0, 84, 64
2, 655776, Note_on_c, 0, 81, 97
2, 655868, Note_off_c, 0, 81, 64
2, 655872, Note_on_c, 0, 83, 97
2, 655964, Note_off_c, 0, 83, 64
2, 655968, Note_on_c, 0, 81, 96
2, 656060, Note_off_c, 0, 81, 64
2, 656064, Note_on_c, 0, 82, 96
2, 656156, Note_off_c, 0, 82, 64
2, 656160, Note_on_c, 0, 81, 96
2, 656252, Note_off_c, 0, 81, 64
2, 656256, Note_on_c, 0, 80, 95
2, 656348, Note_off_c, 0, 80, 64
2, 656352, Note_on_c, 0, 81, 95
2, 656444, Note_off_c, 0, 81, 64
2, 656448, Note_on_c, 0, 79, 94
2, 656540, Note_off_c, 0, 79, 64
2, 656544, Note_on_c, 0, 81, 94
2, 656636, Note_off_c, 0, 81, 64
2, 656640, Note_on_c, 0, 78, 94
2, 656732, Note_off_c, 0, 78, 64
2, 656736, Note_on_c, 0, 81, 93
2, 656828, Note_off_c, 0, 81, 64
2, 656832, Note_on_c, 0, 77, 93
2, 656924, Note_off_c, 0, 77, 64
2, 656928, Note_on_c, 0, 81, 91
2, 657020, Note_off_c, 0, 81, 64
2, 657024, Note_on_c, 0, 76, 91
2, 657116, Note_off_c, 0, 76, 64
2, 657120, Note_on_c, 0, 81, 91
2, 657212, Note_off_c, 0, 81, 64
2, 657216, Note_on_c, 0, 75, 90
2, 657308, Note_off_c, 0, 75, 64
2, 657312, Note_on_c, 0, 81, 90
2, 657404, Note_off_c, 0, 81, 64
2, 657408, Note_on_c, 0, 74, 90
2, 657496, Note_off_c, 0, 74, 64
2, 657504, Note_on_c, 0, 76, 90
2, 657544, Note_off_c, 0, 76, 64
2, 657552, Note_on_c, 0, 74, 90
2, 657592, Note_off_c, 0, 74, 64
2, 657600, Note_on_c, 0, 73, 90
2, 657640, Note_off_c, 0, 73, 64
2, 657648, Note_on_c, 0, 74, 90
2, 657688, Note_off_c, 0, 74, 64
2, 657696, Note_on_c, 0, 79, 90
2, 657788, Note_off_c, 0, 79, 64
2, 657792, Note_on_c, 0, 77, 90
2, 657884, Note_off_c, 0, 77, 64
2, 657888, Note_on_c, 0, 76, 90
2, 657928, Note_off_c, 0, 76, 64
2, 657936, Note_on_c, 0, 77, 90
2, 657976, Note_off_c, 0, 77, 64
2, 657984, Note_on_c, 0, 76, 90
2, 658024, Note_off_c, 0, 76, 64
2, 658032, Note_on_c, 0, 77, 90
2, 658072, Note_off_c, 0, 77, 64
2, 658080, Note_on_c, 0, 76, 90
2, 658120, Note_off_c, 0, 76, 64
2, 658128, Note_on_c, 0, 77, 90
2, 658168, Note_off_c, 0, 77, 64
2, 658176, Note_on_c, 0, 76, 90
2, 658216, Note_off_c, 0, 76, 64
2, 658224, Note_on_c, 0, 77, 90
2, 658264, Note_off_c, 0, 77, 64
2, 658272, Note_on_c, 0, 76, 90
2, 658312, Note_off_c, 0, 76, 64
2, 658320, Note_on_c, 0, 77, 90
2, 658360, Note_off_c, 0, 77, 64
2, 658368, Note_on_c, 0, 76, 90
2, 658408, Note_off_c, 0, 76, 64
2, 658416, Note_on_c, 0, 77, 90
2, 658456, Note_off_c, 0, 77, 64
2, 658464, Note_on_c, 0, 76, 90
2, 658504, Note_off_c, 0, 76, 64
2, 658512, Note_on_c, 0, 77, 90
2, 658552, Note_off_c, 0, 77, 64
2, 658560, Note_on_c, 0, 76, 90
2, 658600, Note_off_c, 0, 76, 64
2, 658608, Note_on_c, 0, 77, 90
2, 658648, Note_off_c, 0, 77, 64
2, 658656, Note_on_c, 0, 76, 90
2, 658696, Note_off_c, 0, 76, 64
2, 658704, Note_on_c, 0, 77, 90
2, 658744, Note_off_c, 0, 77, 64
2, 658752, Note_on_c, 0, 76, 90
2, 658792, Note_off_c, 0, 76, 64
2, 658800, Note_on_c, 0, 77, 90
2, 658840, Note_off_c, 0, 77, 64
2, 658848, Note_on_c, 0, 76, 90
2, 658888, Note_off_c, 0, 76, 64
2, 658896, Note_on_c, 0, 77, 90
2, 658936, Note_off_c, 0, 77, 64
2, 658944, Note_on_c, 0, 76, 90
2, 658944, Note_on_c, 0, 74, 90
2, 658984, Note_off_c, 0, 76, 64
2, 658992, Note_on_c, 0, 77, 90
2, 659032, Note_off_c, 0, 77, 64
2, 659040, Note_on_c, 0, 76, 90
2, 659080, Note_off_c, 0, 76, 64
2, 659088, Note_on_c, 0, 77, 90
2, 659128, Note_off_c, 0, 77, 64
2, 659132, Note_off_c, 0, 74, 64
2, 659136, Note_on_c, 0, 76, 90
2, 659136, Note_on_c, 0, 74, 90
2, 659176, Note_off_c, 0, 76, 64
2, 659184, Note_on_c, 0, 77, 90
2, 659224, Note_off_c, 0, 77, 64
2, 659232, Note_on_c, 0, 76, 90
2, 659272, Note_off_c, 0, 76, 64
2, 659280, Note_on_c, 0, 77, 90
2, 659320, Note_off_c, 0, 77, 64
2, 659324, Note_off_c, 0, 74, 64
2, 659328, Note_on_c, 0, 76, 90
2, 659328, Note_on_c, 0, 74, 90
2, 659368, Note_off_c, 0, 76, 64
2, 659376, Note_on_c, 0, 77, 90
2, 659416, Note_off_c, 0, 77, 64
2, 659424, Note_on_c, 0, 76, 90
2, 659464, Note_off_c, 0, 76, 64
2, 659472, Note_on_c, 0, 77, 90
2, 659512, Note_off_c, 0, 77, 64
2, 659516, Note_off_c, 0, 74, 64
2, 659520, Note_on_c, 0, 76, 90
2, 659520, Note_on_c, 0, 74, 90
2, 659560, Note_off_c, 0, 76, 64
2, 659568, Note_on_c, 0, 77, 90
2, 659608, Note_off_c, 0, 77, 64
2, 659616, Note_on_c, 0, 76, 90
2, 659656, Note_off_c, 0, 76, 64
2, 659664, Note_on_c, 0, 77, 90
2, 659704, Note_off_c, 0, 77, 64
2, 659708, Note_off_c, 0, 74, 64
2, 659712, Note_on_c, 0, 76, 90
2, 659712, Note_on_c, 0, 74, 90
2, 659752, Note_off_c, 0, 76, 64
2, 659760, Note_on_c, 0, 77, 90
2, 659800, Note_off_c, 0, 77, 64
2, 659808, Note_on_c, 0, 76, 90
2, 659848, Note_off_c, 0, 76, 64
2, 659856, Note_on_c, 0, 77, 90
2, 659896, Note_off_c, 0, 77, 64
2, 659900, Note_off_c, 0, 74, 64
2, 659904, Note_on_c, 0, 76, 90
2, 659904, Note_on_c, 0, 74, 90
2, 659944, Note_off_c, 0, 76, 64
2, 659952, Note_on_c, 0, 77, 90
2, 659992, Note_off_c, 0, 77, 64
2, 660000, Note_on_c, 0, 76, 90
2, 660040, Note_off_c, 0, 76, 64
2, 660048, Note_on_c, 0, 77, 90
2, 660088, Note_off_c, 0, 77, 64
2, 660092, Note_off_c, 0, 74, 64
2, 660096, Note_on_c, 0, 76, 90
2, 660096, Note_on_c, 0, 74, 90
2, 660136, Note_off_c, 0, 76, 64
2, 660144, Note_on_c, 0, 77, 90
2, 660184, Note_off_c, 0, 77, 64
2, 660192, Note_on_c, 0, 76, 90
2, 660232, Note_off_c, 0, 76, 64
2, 660240, Note_on_c, 0, 77, 90
2, 660280, Note_off_c, 0, 77, 64
2, 660284, Note_off_c, 0, 74, 64
2, 660288, Note_on_c, 0, 76, 90
2, 660288, Note_on_c, 0, 74, 90
2, 660328, Note_off_c, 0, 76, 64
2, 660336, Note_on_c, 0, 77, 90
2, 660376, Note_off_c, 0, 77, 64
2, 660384, Note_on_c, 0, 76, 90
2, 660424, Note_off_c, 0, 76, 64
2, 660432, Note_on_c, 0, 77, 90
2, 660472, Note_off_c, 0, 77, 64
2, 660476, Note_off_c, 0, 74, 64
2, 660480, Note_on_c, 0, 73, 90
2, 660480, Note_on_c, 0, 76, 90
2, 660520, Note_off_c, 0, 76, 64
2, 660528, Note_on_c, 0, 77, 90
2, 660568, Note_off_c, 0, 77, 64
2, 660576, Note_on_c, 0, 76, 90
2, 660616, Note_off_c, 0, 76, 64
2, 660624, Note_on_c, 0, 77, 90
2, 660664, Note_off_c, 0, 77, 64
2, 660672, Note_on_c, 0, 76, 90
2, 660712, Note_off_c, 0, 76, 64
2, 660720, Note_on_c, 0, 77, 90
2, 660760, Note_off_c, 0, 77, 64
2, 660768, Note_on_c, 0, 76, 90
2, 660808, Note_off_c, 0, 76, 64
2, 660816, Note_on_c, 0, 77, 90
2, 660856, Note_off_c, 0, 77, 64
2, 660864, Note_on_c, 0, 76, 90
2, 660904, Note_off_c, 0, 76, 64
2, 660912, Note_on_c, 0, 77, 90
2, 660952, Note_off_c, 0, 77, 64
2, 660960, Note_on_c, 0, 76, 90
2, 661000, Note_off_c, 0, 76, 64
2, 661008, Note_on_c, 0, 77, 90
2, 661048, Note_off_c, 0, 77, 64
2, 661056, Note_on_c, 0, 76, 90
2, 661096, Note_off_c, 0, 76, 64
2, 661104, Note_on_c, 0, 77, 90
2, 661144, Note_off_c, 0, 77, 64
2, 661152, Note_on_c, 0, 76, 90
2, 661192, Note_off_c, 0, 76, 64
2, 661200, Note_on_c, 0, 77, 90
2, 661240, Note_off_c, 0, 77, 64
2, 661248, Note_on_c, 0, 76, 90
2, 661288, Note_off_c, 0, 76, 64
2, 661296, Note_on_c, 0, 77, 90
2, 661336, Note_off_c, 0, 77, 64
2, 661344, Note_on_c, 0, 76, 90
2, 661384, Note_off_c, 0, 76, 64
2, 661392, Note_on_c, 0, 77, 90
2, 661432, Note_off_c, 0, 77, 64
2, 661440, Note_on_c, 0, 76, 90
2, 661480, Note_off_c, 0, 76, 64
2, 661488, Note_on_c, 0, 77, 90
2, 661528, Note_off_c, 0, 77, 64
2, 661536, Note_on_c, 0, 76, 90
2, 661576, Note_off_c, 0, 76, 64
2, 661584, Note_on_c, 0, 77, 90
2, 661624, Note_off_c, 0, 77, 64
2, 661632, Note_on_c, 0, 76, 90
2, 661672, Note_off_c, 0, 76, 64
2, 661680, Note_on_c, 0, 77, 90
2, 661720, Note_off_c, 0, 77, 64
2, 661728, Note_on_c, 0, 76, 90
2, 661768, Note_off_c, 0, 76, 64
2, 661776, Note_on_c, 0, 77, 90
2, 661816, Note_off_c, 0, 77, 64
2, 661824, Note_on_c, 0, 76, 90
2, 661864, Note_off_c, 0, 76, 64
2, 661872, Note_on_c, 0, 77, 90
2, 661912, Note_off_c, 0, 77, 64
2, 661920, Note_on_c, 0, 76, 90
2, 661960, Note_off_c, 0, 76, 64
2, 661968, Note_on_c, 0, 77, 90
2, 662008, Note_off_c, 0, 77, 64
2, 662012, Note_off_c, 0, 73, 64
2, 662016, Note_on_c, 0, 73, 90
2, 662016, Note_on_c, 0, 69, 90
2, 662016, Note_on_c, 0, 76, 90
2, 662056, Note_off_c, 0, 76, 64
2, 662064, Note_on_c, 0, 77, 90
2, 662104, Note_off_c, 0, 77, 64
2, 662108, Note_off_c, 0, 69, 64
2, 662112, Note_on_c, 0, 76, 90
2, 662152, Note_off_c, 0, 76, 64
2, 662160, Note_on_c, 0, 77, 90
2, 662200, Note_off_c, 0, 77, 64
2, 662208, Note_on_c, 0, 68, 90
2, 662208, Note_on_c, 0, 76, 90
2, 662248, Note_off_c, 0, 76, 64
2, 662256, Note_on_c, 0, 77, 90
2, 662296, Note_off_c, 0, 77, 64
2, 662300, Note_off_c, 0, 68, 64
2, 662304, Note_on_c, 0, 76, 90
2, 662344, Note_off_c, 0, 76, 64
2, 662352, Note_on_c, 0, 77, 90
2, 662392, Note_off_c, 0, 77, 64
2, 662400, Note_on_c, 0, 67, 90
2, 662400, Note_on_c, 0, 76, 90
2, 662440, Note_off_c, 0, 76, 64
2, 662448, Note_on_c, 0, 77, 90
2, 662488, Note_off_c, 0, 77, 64
2, 662492, Note_off_c, 0, 67, 64
2, 662496, Note_on_c, 0, 76, 90
2, 662536, Note_off_c, 0, 76, 64
2, 662544, Note_on_c, 0, 77, 90
2, 662584, Note_off_c, 0, 77, 64
2, 662592, Note_on_c, 0, 66, 90
2, 662592, Note_on_c, 0, 76, 90
2, 662632, Note_off_c, 0, 76, 64
2, 662640, Note_on_c, 0, 77, 90
2, 662680, Note_off_c, 0, 77, 64
2, 662684, Note_off_c, 0, 66, 64
2, 662688, Note_on_c, 0, 76, 90
2, 662728, Note_off_c, 0, 76, 64
2, 662736, Note_on_c, 0, 77, 90
2, 662776, Note_off_c, 0, 77, 64
2, 662784, Note_on_c, 0, 65, 90
2, 662784, Note_on_c, 0, 76, 90
2, 662824, Note_off_c, 0, 76, 64
2, 662832, Note_on_c, 0, 77, 90
2, 662872, Note_off_c, 0, 77, 64
2, 662876, Note_off_c, 0, 65, 64
2, 662880, Note_on_c, 0, 76, 90
2, 662920, Note_off_c, 0, 76, 64
2, 662928, Note_on_c, 0, 77, 90
2, 662968, Note_off_c, 0, 77, 64
2, 662976, Note_on_c, 0, 64, 90
2, 662976, Note_on_c, 0, 76, 90
2, 663016, Note_off_c, 0, 76, 64
2, 663024, Note_on_c, 0, 77, 90
2, 663064, Note_off_c, 0, 77, 64
2, 663068, Note_off_c, 0, 64, 64
2, 663072, Note_on_c, 0, 76, 90
2, 663112, Note_off_c, 0, 76, 64
2, 663120, Note_on_c, 0, 77, 90
2, 663160, Note_off_c, 0, 77, 64
2, 663168, Note_on_c, 0, 69, 90
2, 663168, Note_on_c, 0, 76, 90
2, 663208, Note_off_c, 0, 76, 64
2, 663216, Note_on_c, 0, 77, 90
2, 663256, Note_off_c, 0, 77, 64
2, 663260, Note_off_c, 0, 69, 64
2, 663264, Note_on_c, 0, 76, 90
2, 663304, Note_off_c, 0, 76, 64
2, 663312, Note_on_c, 0, 77, 90
2, 663352, Note_off_c, 0, 77, 64
2, 663360, Note_on_c, 0, 68, 90
2, 663360, Note_on_c, 0, 76, 90
2, 663400, Note_off_c, 0, 76, 64
2, 663408, Note_on_c, 0, 77, 90
2, 663448, Note_off_c, 0, 77, 64
2, 663452, Note_off_c, 0, 68, 64
2, 663456, Note_on_c, 0, 76, 90
2, 663496, Note_off_c, 0, 76, 64
2, 663504, Note_on_c, 0, 77, 90
2, 663544, Note_off_c, 0, 77, 64
2, 663552, Note_on_c, 0, 67, 90
2, 663552, Note_on_c, 0, 76, 90
2, 663592, Note_off_c, 0, 76, 64
2, 663600, Note_on_c, 0, 77, 90
2, 663640, Note_off_c, 0, 77, 64
2, 663644, Note_off_c, 0, 67, 64
2, 663648, Note_on_c, 0, 76, 90
2, 663688, Note_off_c, 0, 76, 64
2, 663696, Note_on_c, 0, 77, 90
2, 663736, Note_off_c, 0, 77, 64
2, 663744, Note_on_c, 0, 66, 90
2, 663744, Note_on_c, 0, 76, 90
2, 663784, Note_off_c, 0, 76, 64
2, 663792, Note_on_c, 0, 77, 90
2, 663832, Note_off_c, 0, 77, 64
2, 663836, Note_off_c, 0, 66, 64
2, 663840, Note_on_c, 0, 76, 90
2, 663880, Note_off_c, 0, 76, 64
2, 663888, Note_on_c, 0, 77, 90
2, 663928, Note_off_c, 0, 77, 64
2, 663936, Note_on_c, 0, 65, 90
2, 663936, Note_on_c, 0, 76, 90
2, 663976, Note_off_c, 0, 76, 64
2, 663984, Note_on_c, 0, 77, 90
2, 664024, Note_off_c, 0, 77, 64
2, 664028, Note_off_c, 0, 65, 64
2, 664032, Note_on_c, 0, 76, 90
2, 664072, Note_off_c, 0, 76, 64
2, 664080, Note_on_c, 0, 77, 90
2, 664120, Note_off_c, 0, 77, 64
2, 664128, Note_on_c, 0, 64, 90
2, 664128, Note_on_c, 0, 76, 90
2, 664168, Note_off_c, 0, 76, 64
2, 664176, Note_on_c, 0, 77, 90
2, 664216, Note_off_c, 0, 77, 64
2, 664220, Note_off_c, 0, 64, 64
2, 664224, Note_on_c, 0, 76, 90
2, 664264, Note_off_c, 0, 76, 64
2, 664272, Note_on_c, 0, 77, 90
2, 664312, Note_off_c, 0, 77, 64
2, 664316, Note_off_c, 0, 73, 64
2, 664320, Note_on_c, 0, 76, 90
2, 664320, Note_on_c, 0, 73, 90
2, 664360, Note_off_c, 0, 76, 64
2, 664368, Note_on_c, 0, 77, 90
2, 664408, Note_off_c, 0, 77, 64
2, 664416, Note_on_c, 0, 76, 90
2, 664456, Note_off_c, 0, 76, 64
2, 664464, Note_on_c, 0, 77, 90
2, 664504, Note_off_c, 0, 77, 64
2, 664512, Note_on_c, 0, 76, 90
2, 664552, Note_off_c, 0, 76, 64
2, 664560, Note_on_c, 0, 77, 90
2, 664600, Note_off_c, 0, 77, 64
2, 664608, Note_on_c, 0, 76, 90
2, 664648, Note_off_c, 0, 76, 64
2, 664656, Note_on_c, 0, 77, 90
2, 664696, Note_off_c, 0, 77, 64
2, 664704, Note_on_c, 0, 76, 90
2, 664744, Note_off_c, 0, 76, 64
2, 664752, Note_on_c, 0, 77, 90
2, 664792, Note_off_c, 0, 77, 64
2, 664800, Note_on_c, 0, 76, 90
2, 664840, Note_off_c, 0, 76, 64
2, 664848, Note_on_c, 0, 77, 90
2, 664888, Note_off_c, 0, 77, 64
2, 664896, Note_on_c, 0, 76, 90
2, 664936, Note_off_c, 0, 76, 64
2, 664944, Note_on_c, 0, 77, 90
2, 664984, Note_off_c, 0, 77, 64
2, 664992, Note_on_c, 0, 76, 90
2, 665032, Note_off_c, 0, 76, 64
2, 665040, Note_on_c, 0, 77, 90
2, 665080, Note_off_c, 0, 77, 64
2, 665088, Note_on_c, 0, 76, 90
2, 665128, Note_off_c, 0, 76, 64
2, 665136, Note_on_c, 0, 77, 90
2, 665176, Note_off_c, 0, 77, 64
2, 665184, Note_on_c, 0, 76, 90
2, 665224, Note_off_c, 0, 76, 64
2, 665232, Note_on_c, 0, 77, 90
2, 665272, Note_off_c, 0, 77, 64
2, 665280, Note_on_c, 0, 76, 90
2, 665320, Note_off_c, 0, 76, 64
2, 665328, Note_on_c, 0, 77, 90
2, 665368, Note_off_c, 0, 77, 64
2, 665376, Note_on_c, 0, 76, 90
2, 665416, Note_off_c, 0, 76, 64
2, 665424, Note_on_c, 0, 77, 90
2, 665464, Note_off_c, 0, 77, 64
2, 665472, Note_on_c, 0, 76, 90
2, 665512, Note_off_c, 0, 76, 64
2, 665520, Note_on_c, 0, 77, 90
2, 665560, Note_off_c, 0, 77, 64
2, 665568, Note_on_c, 0, 76, 90
2, 665608, Note_off_c, 0, 76, 64
2, 665616, Note_on_c, 0, 77, 90
2, 665656, Note_off_c, 0, 77, 64
2, 665664, Note_on_c, 0, 76, 90
2, 665704, Note_off_c, 0, 76, 64
2, 665712, Note_on_c, 0, 77, 90
2, 665752, Note_off_c, 0, 77, 64
2, 665760, Note_on_c, 0, 76, 90
2, 665800, Note_off_c, 0, 76, 64
2, 665808, Note_on_c, 0, 77, 90
2, 665848, Note_off_c, 0, 77, 64
2, 665856, Note_on_c, 0, 76, 90
2, 665896, Note_off_c, 0, 76, 64
2, 665904, Note_on_c, 0, 77, 90
2, 665944, Note_off_c, 0, 77, 64
2, 665952, Note_on_c, 0, 76, 90
2, 665992, Note_off_c, 0, 76, 64
2, 666000, Note_on_c, 0, 77, 90
2, 666040, Note_off_c, 0, 77, 64
2, 666048, Note_on_c, 0, 76, 90
2, 666088, Note_off_c, 0, 76, 64
2, 666096, Note_on_c, 0, 77, 90
2, 666136, Note_off_c, 0, 77, 64
2, 666144, Note_on_c, 0, 76, 90
2, 666184, Note_off_c, 0, 76, 64
2, 666192, Note_on_c, 0, 77, 90
2, 666232, Note_off_c, 0, 77, 64
2, 666240, Note_on_c, 0, 76, 90
2, 666280, Note_off_c, 0, 76, 64
2, 666288, Note_on_c, 0, 77, 90
2, 666328, Note_off_c, 0, 77, 64
2, 666336, Note_on_c, 0, 76, 90
2, 666376, Note_off_c, 0, 76, 64
2, 666384, Note_on_c, 0, 77, 90
2, 666424, Note_off_c, 0, 77, 64
2, 666432, Note_on_c, 0, 76, 90
2, 666472, Note_off_c, 0, 76, 64
2, 666480, Note_on_c, 0, 77, 90
2, 666520, Note_off_c, 0, 77, 64
2, 666528, Note_on_c, 0, 76, 90
2, 666568, Note_off_c, 0, 76, 64
2, 666576, Note_on_c, 0, 77, 90
2, 666616, Note_off_c, 0, 77, 64
2, 666620, Note_off_c, 0, 73, 64
2, 666624, Note_on_c, 0, 73, 90
2, 666624, Note_on_c, 0, 76, 90
2, 666624, Note_on_c, 0, 67, 90
2, 666664, Note_off_c, 0, 76, 64
2, 666664, Note_off_c, 0, 67, 64
2, 666672, Note_on_c, 0, 77, 90
2, 666672, Note_on_c, 0, 69, 90
2, 666712, Note_off_c, 0, 77, 64
2, 666712, Note_off_c, 0, 69, 64
2, 666720, Note_on_c, 0, 76, 90
2, 666720, Note_on_c, 0, 67, 90
2, 666760, Note_off_c, 0, 76, 64
2, 666760, Note_off_c, 0, 67, 64
2, 666768, Note_on_c, 0, 77, 90
2, 666768, Note_on_c, 0, 69, 90
2, 666808, Note_off_c, 0, 77, 64
2, 666808, Note_off_c, 0, 69, 64
2, 666816, Note_on_c, 0, 76, 90
2, 666816, Note_on_c, 0, 67, 90
2, 666856, Note_off_c, 0, 76, 64
2, 666856, Note_off_c, 0, 67, 64
2, 666864, Note_on_c, 0, 77, 90
2, 666864, Note_on_c, 0, 69, 90
2, 666904, Note_off_c, 0, 77, 64
2, 666904, Note_off_c, 0, 69, 64
2, 666912, Note_on_c, 0, 76, 90
2, 666912, Note_on_c, 0, 67, 90
2, 666952, Note_off_c, 0, 76, 64
2, 666952, Note_off_c, 0, 67, 64
2, 666960, Note_on_c, 0, 77, 90
2, 666960, Note_on_c, 0, 69, 90
2, 667000, Note_off_c, 0, 77, 64
2, 667000, Note_off_c, 0, 69, 64
2, 667008, Note_on_c, 0, 76, 90
2, 667008, Note_on_c, 0, 67, 90
2, 667048, Note_off_c, 0, 76, 64
2, 667048, Note_off_c, 0, 67, 64
2, 667056, Note_on_c, 0, 77, 90
2, 667056, Note_on_c, 0, 69, 90
2, 667096, Note_off_c, 0, 77, 64
2, 667096, Note_off_c, 0, 69, 64
2, 667104, Note_on_c, 0, 76, 90
2, 667104, Note_on_c, 0, 67, 90
2, 667144, Note_off_c, 0, 76, 64
2, 667144, Note_off_c, 0, 67, 64
2, 667152, Note_on_c, 0, 77, 90
2, 667152, Note_on_c, 0, 69, 90
2, 667192, Note_off_c, 0, 77, 64
2, 667192, Note_off_c, 0, 69, 64
2, 667200, Note_on_c, 0, 76, 90
2, 667200, Note_on_c, 0, 67, 90
2, 667240, Note_off_c, 0, 76, 64
2, 667240, Note_off_c, 0, 67, 64
2, 667248, Note_on_c, 0, 77, 90
2, 667248, Note_on_c, 0, 69, 90
2, 667288, Note_off_c, 0, 77, 64
2, 667288, Note_off_c, 0, 69, 64
2, 667296, Note_on_c, 0, 76, 90
2, 667296, Note_on_c, 0, 67, 90
2, 667336, Note_off_c, 0, 76, 64
2, 667336, Note_off_c, 0, 67, 64
2, 667344, Note_on_c, 0, 77, 90
2, 667344, Note_on_c, 0, 69, 90
2, 667384, Note_off_c, 0, 77, 64
2, 667384, Note_off_c, 0, 69, 64
2, 667392, Note_on_c, 0, 76, 90
2, 667392, Note_on_c, 0, 67, 90
2, 667432, Note_off_c, 0, 76, 64
2, 667432, Note_off_c, 0, 67, 64
2, 667440, Note_on_c, 0, 77, 90
2, 667440, Note_on_c, 0, 69, 90
2, 667480, Note_off_c, 0, 77, 64
2, 667480, Note_off_c, 0, 69, 64
2, 667488, Note_on_c, 0, 76, 90
2, 667488, Note_on_c, 0, 67, 90
2, 667528, Note_off_c, 0, 76, 64
2, 667528, Note_off_c, 0, 67, 64
2, 667536, Note_on_c, 0, 77, 90
2, 667536, Note_on_c, 0, 69, 90
2, 667576, Note_off_c, 0, 77, 64
2, 667576, Note_off_c, 0, 69, 64
2, 667584, Note_on_c, 0, 76, 90
2, 667584, Note_on_c, 0, 67, 90
2, 667624, Note_off_c, 0, 76, 64
2, 667624, Note_off_c, 0, 67, 64
2, 667632, Note_on_c, 0, 77, 90
2, 667632, Note_on_c, 0, 69, 90
2, 667672, Note_off_c, 0, 77, 64
2, 667672, Note_off_c, 0, 69, 64
2, 667680, Note_on_c, 0, 76, 90
2, 667680, Note_on_c, 0, 67, 90
2, 667720, Note_off_c, 0, 76, 64
2, 667720, Note_off_c, 0, 67, 64
2, 667728, Note_on_c, 0, 77, 90
2, 667728, Note_on_c, 0, 69, 90
2, 667768, Note_off_c, 0, 77, 64
2, 667768, Note_off_c, 0, 69, 64
2, 667776, Note_on_c, 0, 76, 90
2, 667776, Note_on_c, 0, 67, 90
2, 667816, Note_off_c, 0, 76, 64
2, 667816, Note_off_c, 0, 67, 64
2, 667824, Note_on_c, 0, 77, 90
2, 667824, Note_on_c, 0, 69, 90
2, 667864, Note_off_c, 0, 77, 64
2, 667864, Note_off_c, 0, 69, 64
2, 667872, Note_on_c, 0, 76, 90
2, 667872, Note_on_c, 0, 67, 90
2, 667912, Note_off_c, 0, 76, 64
2, 667912, Note_off_c, 0, 67, 64
2, 667920, Note_on_c, 0, 77, 90
2, 667920, Note_on_c, 0, 69, 90
2, 667960, Note_off_c, 0, 77, 64
2, 667960, Note_off_c, 0, 69, 64
2, 667968, Note_on_c, 0, 74, 90
2, 667968, Note_on_c, 0, 65, 90
2, 667972, Note_off_c, 0, 73, 64
2, 668056, Note_off_c, 0, 74, 64
2, 668056, Note_off_c, 0, 65, 64
2, 668064, Note_on_c, 0, 76, 90
2, 668064, Note_on_c, 0, 67, 90
2, 668152, Note_off_c, 0, 76, 64
2, 668152, Note_off_c, 0, 67, 64
2, 668160, Note_on_c, 0, 74, 90
2, 668160, Note_on_c, 0, 62, 90
2, 668732, Note_off_c, 0, 74, 64
2, 668732, Note_off_c, 0, 62, 64
2, 668732, End_track
3, 0, Start_track
3, 0, Title_t, "K466a - #20"
3, 0, Control_c, 1, 0, 0
3, 0, Program_c, 1, 0
3, 0, Control_c, 1, 10, 63
3, 0, Control_c, 1, 91, 67
3, 0, Control_c, 1, 93, 51
3, 0, Key_signature, -1, "minor"
3, 0, Control_c, 1, 121, 0
3, 384, Control_c, 1, 10, 63
3, 480, Control_c, 1, 91, 63
3, 576, Control_c, 1, 93, 35
3, 672, Program_c, 1, 0
3, 118272, Note_on_c, 1, 62, 75
3, 118272, Note_on_c, 1, 50, 75
3, 118652, Note_off_c, 1, 62, 64
3, 118652, Note_off_c, 1, 50, 64
3, 132480, Note_on_c, 1, 55, 75
3, 132480, Note_on_c, 1, 58, 75
3, 132860, Note_off_c, 1, 55, 64
3, 132860, Note_off_c, 1, 58, 64
3, 132864, Note_on_c, 1, 58, 75
3, 132864, Note_on_c, 1, 62, 75
3, 133244, Note_off_c, 1, 58, 64
3, 133244, Note_off_c, 1, 62, 64
3, 133248, Note_on_c, 1, 59, 75
3, 133248, Note_on_c, 1, 56, 75
3, 133628, Note_off_c, 1, 59, 64
3, 133628, Note_off_c, 1, 56, 64
3, 133632, Note_on_c, 1, 61, 75
3, 133632, Note_on_c, 1, 57, 75
3, 134396, Note_off_c, 1, 61, 64
3, 134396, Note_off_c, 1, 57, 64
3, 138624, Note_on_c, 1, 55, 75
3, 138624, Note_on_c, 1, 43, 75
3, 139004, Note_off_c, 1, 55, 64
3, 139004, Note_off_c, 1, 43, 64
3, 139008, Note_on_c, 1, 57, 75
3, 139008, Note_on_c, 1, 45, 75
3, 139388, Note_off_c, 1, 57, 64
3, 139388, Note_off_c, 1, 45, 64
3, 139392, Note_on_c, 1, 45, 81
3, 139392, Note_on_c, 1, 33, 84
3, 139772, Note_off_c, 1, 45, 64
3, 139772, Note_off_c, 1, 33, 64
3, 139776, Note_on_c, 1, 50, 78
3, 139776, Note_on_c, 1, 38, 83
3, 139968, Note_on_c, 1, 57, 75
3, 139968, Note_on_c, 1, 62, 75
3, 139968, Note_on_c, 1, 53, 75
3, 140156, Note_off_c, 1, 50, 64
3, 140156, Note_off_c, 1, 38, 64
3, 140348, Note_off_c, 1, 57, 64
3, 140348, Note_off_c, 1, 62, 64
3, 140348, Note_off_c, 1, 53, 64
3, 140352, Note_on_c, 1, 62, 71
3, 140352, Note_on_c, 1, 57, 71
3, 140352, Note_on_c, 1, 53, 71
3, 140732, Note_off_c, 1, 62, 64
3, 140732, Note_off_c, 1, 57, 64
3, 140732, Note_off_c, 1, 53, 64
3, 140736, Note_on_c, 1, 62, 71
3, 140736, Note_on_c, 1, 57, 71
3, 140736, Note_on_c, 1, 53, 71
3, 141116, Note_off_c, 1, 62, 64
3, 141116, Note_off_c, 1, 57, 64
3, 141116, Note_off_c, 1, 53, 64
3, 141120, Note_on_c, 1, 62, 71
3, 141120, Note_on_c, 1, 57, 71
3, 141120, Note_on_c, 1, 53, 71
3, 141120, Note_on_c, 1, 33, 77
3, 141180, Note_off_c, 1, 33, 64
3, 141184, Note_on_c, 1, 35, 77
3, 141244, Note_off_c, 1, 35, 64
3, 141248, Note_on_c, 1, 37, 77
3, 141308, Note_off_c, 1, 37, 64
3, 141312, Note_on_c, 1, 38, 77
3, 141500, Note_off_c, 1, 53, 64
3, 141500, Note_off_c, 1, 57, 64
3, 141500, Note_off_c, 1, 62, 64
3, 141504, Note_on_c, 1, 62, 71
3, 141504, Note_on_c, 1, 57, 71
3, 141504, Note_on_c, 1, 53, 71
3, 141884, Note_off_c, 1, 62, 64
3, 141884, Note_off_c, 1, 57, 64
3, 141884, Note_off_c, 1, 53, 64
3, 141888, Note_on_c, 1, 62, 71
3, 141888, Note_on_c, 1, 57, 71
3, 141888, Note_on_c, 1, 53, 71
3, 142076, Note_off_c, 1, 38, 64
3, 142268, Note_off_c, 1, 62, 64
3, 142268, Note_off_c, 1, 57, 64
3, 142268, Note_off_c, 1, 53, 64
3, 142272, Note_on_c, 1, 62, 71
3, 142272, Note_on_c, 1, 57, 71
3, 142272, Note_on_c, 1, 53, 71
3, 142652, Note_off_c, 1, 62, 64
3, 142652, Note_off_c, 1, 57, 64
3, 142652, Note_off_c, 1, 53, 64
3, 142656, Note_on_c, 1, 62, 71
3, 142656, Note_on_c, 1, 57, 71
3, 142656, Note_on_c, 1, 53, 71
3, 142656, Note_on_c, 1, 33, 83
3, 142716, Note_off_c, 1, 33, 64
3, 142720, Note_on_c, 1, 35, 83
3, 142780, Note_off_c, 1, 35, 64
3, 142784, Note_on_c, 1, 37, 81
3, 142844, Note_off_c, 1, 37, 64
3, 142848, Note_on_c, 1, 38, 79
3, 143036, Note_off_c, 1, 53, 64
3, 143036, Note_off_c, 1, 57, 64
3, 143036, Note_off_c, 1, 62, 64
3, 143040, Note_on_c, 1, 57, 71
3, 143040, Note_on_c, 1, 53, 71
3, 143420, Note_off_c, 1, 57, 64
3, 143420, Note_off_c, 1, 53, 64
3, 143424, Note_on_c, 1, 57, 71
3, 143424, Note_on_c, 1, 50, 71
3, 143424, Note_on_c, 1, 65, 71
3, 143612, Note_off_c, 1, 38, 64
3, 143804, Note_off_c, 1, 57, 64
3, 143804, Note_off_c, 1, 50, 64
3, 143804, Note_off_c, 1, 65, 64
3, 143808, Note_on_c, 1, 64, 71
3, 143808, Note_on_c, 1, 52, 71
3, 143808, Note_on_c, 1, 57, 71
3, 144188, Note_off_c, 1, 64, 64
3, 144188, Note_off_c, 1, 52, 64
3, 144188, Note_off_c, 1, 57, 64
3, 144192, Note_on_c, 1, 57, 71
3, 144192, Note_on_c, 1, 62, 71
3, 144192, Note_on_c, 1, 53, 71
3, 144192, Note_on_c, 1, 33, 83
3, 144232, Note_off_c, 1, 33, 64
3, 144240, Note_on_c, 1, 35, 83
3, 144280, Note_off_c, 1, 35, 64
3, 144288, Note_on_c, 1, 37, 82
3, 144328, Note_off_c, 1, 37, 64
3, 144336, Note_on_c, 1, 38, 81
3, 144376, Note_off_c, 1, 38, 64
3, 144380, Note_off_c, 1, 53, 64
3, 144384, Note_on_c, 1, 40, 78
3, 144384, Note_on_c, 1, 55, 71
3, 144572, Note_off_c, 1, 57, 64
3, 144572, Note_off_c, 1, 62, 64
3, 144572, Note_off_c, 1, 55, 64
3, 144576, Note_on_c, 1, 55, 71
3, 144576, Note_on_c, 1, 61, 71
3, 144576, Note_on_c, 1, 57, 71
3, 144956, Note_off_c, 1, 55, 64
3, 144956, Note_off_c, 1, 61, 64
3, 144956, Note_off_c, 1, 57, 64
3, 144960, Note_on_c, 1, 61, 71
3, 144960, Note_on_c, 1, 55, 71
3, 144960, Note_on_c, 1, 57, 71
3, 145148, Note_off_c, 1, 40, 64
3, 145340, Note_off_c, 1, 61, 64
3, 145340, Note_off_c, 1, 55, 64
3, 145340, Note_off_c, 1, 57, 64
3, 145344, Note_on_c, 1, 57, 71
3, 145344, Note_on_c, 1, 55, 71
3, 145344, Note_on_c, 1, 61, 71
3, 145724, Note_off_c, 1, 57, 64
3, 145724, Note_off_c, 1, 55, 64
3, 145724, Note_off_c, 1, 61, 64
3, 145728, Note_on_c, 1, 63, 71
3, 145728, Note_on_c, 1, 57, 71
3, 145728, Note_on_c, 1, 55, 71
3, 145916, Note_off_c, 1, 63, 64
3, 145916, Note_off_c, 1, 57, 64
3, 145916, Note_off_c, 1, 55, 64
3, 145920, Note_on_c, 1, 49, 75
3, 145920, Note_on_c, 1, 37, 81
3, 145920, Note_on_c, 1, 64, 75
3, 146012, Note_off_c, 1, 64, 64
3, 146016, Note_on_c, 1, 57, 75
3, 146108, Note_off_c, 1, 57, 64
3, 146112, Note_on_c, 1, 55, 75
3, 146204, Note_off_c, 1, 55, 64
3, 146208, Note_on_c, 1, 57, 75
3, 146300, Note_off_c, 1, 57, 64
3, 146304, Note_on_c, 1, 52, 75
3, 146396, Note_off_c, 1, 52, 64
3, 146400, Note_on_c, 1, 57, 75
3, 146492, Note_off_c, 1, 57, 64
3, 146496, Note_on_c, 1, 55, 75
3, 146588, Note_off_c, 1, 55, 64
3, 146592, Note_on_c, 1, 57, 75
3, 146684, Note_off_c, 1, 49, 64
3, 146684, Note_off_c, 1, 37, 64
3, 146684, Note_off_c, 1, 57, 64
3, 146688, Note_on_c, 1, 64, 83
3, 146780, Note_off_c, 1, 64, 64
3, 146784, Note_on_c, 1, 57, 75
3, 146876, Note_off_c, 1, 57, 64
3, 146880, Note_on_c, 1, 55, 75
3, 146972, Note_off_c, 1, 55, 64
3, 146976, Note_on_c, 1, 57, 75
3, 147068, Note_off_c, 1, 57, 64
3, 147072, Note_on_c, 1, 52, 75
3, 147164, Note_off_c, 1, 52, 64
3, 147168, Note_on_c, 1, 57, 75
3, 147260, Note_off_c, 1, 57, 64
3, 147264, Note_on_c, 1, 55, 75
3, 147264, Note_on_c, 1, 45, 75
3, 147356, Note_off_c, 1, 55, 64
3, 147356, Note_off_c, 1, 45, 64
3, 147360, Note_on_c, 1, 57, 75
3, 147360, Note_on_c, 1, 47, 75
3, 147452, Note_off_c, 1, 57, 64
3, 147452, Note_off_c, 1, 47, 64
3, 147456, Note_on_c, 1, 49, 75
3, 147456, Note_on_c, 1, 64, 83
3, 147548, Note_off_c, 1, 64, 64
3, 147552, Note_on_c, 1, 57, 75
3, 147644, Note_off_c, 1, 57, 64
3, 147648, Note_on_c, 1, 55, 75
3, 147740, Note_off_c, 1, 55, 64
3, 147744, Note_on_c, 1, 57, 75
3, 147836, Note_off_c, 1, 57, 64
3, 147840, Note_on_c, 1, 52, 75
3, 147932, Note_off_c, 1, 52, 64
3, 147936, Note_on_c, 1, 57, 75
3, 148028, Note_off_c, 1, 57, 64
3, 148032, Note_on_c, 1, 55, 75
3, 148124, Note_off_c, 1, 55, 64
3, 148128, Note_on_c, 1, 57, 75
3, 148220, Note_off_c, 1, 49, 64
3, 148220, Note_off_c, 1, 57, 64
3, 148224, Note_on_c, 1, 64, 83
3, 148316, Note_off_c, 1, 64, 64
3, 148320, Note_on_c, 1, 57, 75
3, 148412, Note_off_c, 1, 57, 64
3, 148416, Note_on_c, 1, 55, 75
3, 148508, Note_off_c, 1, 55, 64
3, 148512, Note_on_c, 1, 57, 75
3, 148604, Note_off_c, 1, 57, 64
3, 148608, Note_on_c, 1, 52, 75
3, 148700, Note_off_c, 1, 52, 64
3, 148704, Note_on_c, 1, 57, 75
3, 148796, Note_off_c, 1, 57, 64
3, 148800, Note_on_c, 1, 55, 75
3, 148800, Note_on_c, 1, 45, 75
3, 148892, Note_off_c, 1, 55, 64
3, 148892, Note_off_c, 1, 45, 64
3, 148896, Note_on_c, 1, 57, 75
3, 148896, Note_on_c, 1, 47, 75
3, 148988, Note_off_c, 1, 57, 64
3, 148988, Note_off_c, 1, 47, 64
3, 148992, Note_on_c, 1, 49, 75
3, 148992, Note_on_c, 1, 64, 83
3, 149084, Note_off_c, 1, 64, 64
3, 149088, Note_on_c, 1, 57, 75
3, 149180, Note_off_c, 1, 57, 64
3, 149184, Note_on_c, 1, 55, 75
3, 149276, Note_off_c, 1, 55, 64
3, 149280, Note_on_c, 1, 57, 75
3, 149372, Note_off_c, 1, 57, 64
3, 149376, Note_on_c, 1, 67, 83
3, 149468, Note_off_c, 1, 67, 64
3, 149472, Note_on_c, 1, 57, 75
3, 149564, Note_off_c, 1, 57, 64
3, 149568, Note_on_c, 1, 55, 75
3, 149660, Note_off_c, 1, 55, 64
3, 149664, Note_on_c, 1, 57, 75
3, 149756, Note_off_c, 1, 49, 64
3, 149756, Note_off_c, 1, 57, 64
3, 149760, Note_on_c, 1, 65, 83
3, 149852, Note_off_c, 1, 65, 64
3, 149856, Note_on_c, 1, 57, 75
3, 149948, Note_off_c, 1, 57, 64
3, 149952, Note_on_c, 1, 55, 75
3, 150044, Note_off_c, 1, 55, 64
3, 150048, Note_on_c, 1, 57, 75
3, 150140, Note_off_c, 1, 57, 64
3, 150144, Note_on_c, 1, 64, 83
3, 150236, Note_off_c, 1, 64, 64
3, 150240, Note_on_c, 1, 57, 75
3, 150332, Note_off_c, 1, 57, 64
3, 150336, Note_on_c, 1, 55, 75
3, 150336, Note_on_c, 1, 45, 75
3, 150396, Note_off_c, 1, 45, 64
3, 150400, Note_on_c, 1, 47, 75
3, 150428, Note_off_c, 1, 55, 64
3, 150432, Note_on_c, 1, 57, 75
3, 150460, Note_off_c, 1, 47, 64
3, 150464, Note_on_c, 1, 49, 75
3, 150524, Note_off_c, 1, 57, 64
3, 150524, Note_off_c, 1, 49, 64
3, 150528, Note_on_c, 1, 50, 75
3, 150528, Note_on_c, 1, 64, 83
3, 150620, Note_off_c, 1, 64, 64
3, 150624, Note_on_c, 1, 57, 75
3, 150716, Note_off_c, 1, 57, 64
3, 150720, Note_on_c, 1, 53, 75
3, 150812, Note_off_c, 1, 53, 64
3, 150816, Note_on_c, 1, 57, 75
3, 150908, Note_off_c, 1, 57, 64
3, 150912, Note_on_c, 1, 62, 83
3, 151004, Note_off_c, 1, 62, 64
3, 151008, Note_on_c, 1, 57, 75
3, 151100, Note_off_c, 1, 57, 64
3, 151104, Note_on_c, 1, 53, 75
3, 151196, Note_off_c, 1, 53, 64
3, 151200, Note_on_c, 1, 57, 75
3, 151292, Note_off_c, 1, 50, 64
3, 151292, Note_off_c, 1, 57, 64
3, 151296, Note_on_c, 1, 62, 83
3, 151388, Note_off_c, 1, 62, 64
3, 151392, Note_on_c, 1, 57, 75
3, 151484, Note_off_c, 1, 57, 64
3, 151488, Note_on_c, 1, 53, 75
3, 151580, Note_off_c, 1, 53, 64
3, 151584, Note_on_c, 1, 57, 75
3, 151676, Note_off_c, 1, 57, 64
3, 151872, Note_on_c, 1, 50, 78
3, 151932, Note_off_c, 1, 50, 64
3, 151936, Note_on_c, 1, 52, 78
3, 151996, Note_off_c, 1, 52, 64
3, 152000, Note_on_c, 1, 53, 78
3, 152060, Note_off_c, 1, 53, 64
3, 152064, Note_on_c, 1, 55, 78
3, 152444, Note_off_c, 1, 55, 64
3, 152640, Note_on_c, 1, 52, 78
3, 152700, Note_off_c, 1, 52, 64
3, 152704, Note_on_c, 1, 53, 78
3, 152764, Note_off_c, 1, 53, 64
3, 152768, Note_on_c, 1, 55, 78
3, 152828, Note_off_c, 1, 55, 64
3, 152832, Note_on_c, 1, 57, 78
3, 153212, Note_off_c, 1, 57, 64
3, 153408, Note_on_c, 1, 54, 78
3, 153468, Note_off_c, 1, 54, 64
3, 153472, Note_on_c, 1, 55, 78
3, 153532, Note_off_c, 1, 55, 64
3, 153536, Note_on_c, 1, 57, 78
3, 153596, Note_off_c, 1, 57, 64
3, 153600, Note_on_c, 1, 58, 78
3, 154364, Note_off_c, 1, 58, 64
3, 154944, Note_on_c, 1, 52, 78
3, 155004, Note_off_c, 1, 52, 64
3, 155008, Note_on_c, 1, 53, 78
3, 155068, Note_off_c, 1, 53, 64
3, 155072, Note_on_c, 1, 55, 78
3, 155132, Note_off_c, 1, 55, 64
3, 155136, Note_on_c, 1, 57, 78
3, 155516, Note_off_c, 1, 57, 64
3, 155712, Note_on_c, 1, 54, 78
3, 155772, Note_off_c, 1, 54, 64
3, 155776, Note_on_c, 1, 55, 78
3, 155836, Note_off_c, 1, 55, 64
3, 155840, Note_on_c, 1, 57, 78
3, 155900, Note_off_c, 1, 57, 64
3, 155904, Note_on_c, 1, 59, 78
3, 156284, Note_off_c, 1, 59, 64
3, 156480, Note_on_c, 1, 56, 78
3, 156540, Note_off_c, 1, 56, 64
3, 156544, Note_on_c, 1, 57, 78
3, 156604, Note_off_c, 1, 57, 64
3, 156608, Note_on_c, 1, 58, 78
3, 156668, Note_off_c, 1, 58, 64
3, 156672, Note_on_c, 1, 60, 78
3, 157436, Note_off_c, 1, 60, 64
3, 158016, Note_on_c, 1, 57, 78
3, 158076, Note_off_c, 1, 57, 64
3, 158080, Note_on_c, 1, 59, 78
3, 158140, Note_off_c, 1, 59, 64
3, 158144, Note_on_c, 1, 60, 78
3, 158204, Note_off_c, 1, 60, 64
3, 158208, Note_on_c, 1, 62, 78
3, 158588, Note_off_c, 1, 62, 64
3, 158784, Note_on_c, 1, 59, 78
3, 158844, Note_off_c, 1, 59, 64
3, 158848, Note_on_c, 1, 60, 78
3, 158908, Note_off_c, 1, 60, 64
3, 158912, Note_on_c, 1, 62, 78
3, 158972, Note_off_c, 1, 62, 64
3, 158976, Note_on_c, 1, 64, 78
3, 159356, Note_off_c, 1, 64, 64
3, 159552, Note_on_c, 1, 61, 78
3, 159612, Note_off_c, 1, 61, 64
3, 159616, Note_on_c, 1, 62, 78
3, 159676, Note_off_c, 1, 62, 64
3, 159680, Note_on_c, 1, 64, 78
3, 159740, Note_off_c, 1, 64, 64
3, 159744, Note_on_c, 1, 65, 78
3, 160124, Note_off_c, 1, 65, 64
3, 160128, Note_on_c, 1, 61, 75
3, 160508, Note_off_c, 1, 61, 64
3, 160512, Note_on_c, 1, 62, 75
3, 160892, Note_off_c, 1, 62, 64
3, 160896, Note_on_c, 1, 60, 75
3, 161276, Note_off_c, 1, 60, 64
3, 161280, Note_on_c, 1, 58, 75
3, 161660, Note_off_c, 1, 58, 64
3, 161664, Note_on_c, 1, 54, 75
3, 162044, Note_off_c, 1, 54, 64
3, 162048, Note_on_c, 1, 55, 75
3, 162428, Note_off_c, 1, 55, 64
3, 162432, Note_on_c, 1, 53, 75
3, 162812, Note_off_c, 1, 53, 64
3, 162816, Note_on_c, 1, 52, 75
3, 163196, Note_off_c, 1, 52, 64
3, 163200, Note_on_c, 1, 55, 75
3, 163580, Note_off_c, 1, 55, 64
3, 163584, Note_on_c, 1, 53, 75
3, 163964, Note_off_c, 1, 53, 64
3, 163968, Note_on_c, 1, 49, 75
3, 164348, Note_off_c, 1, 49, 64
3, 164352, Note_on_c, 1, 50, 75
3, 164732, Note_off_c, 1, 50, 64
3, 164736, Note_on_c, 1, 53, 75
3, 165116, Note_off_c, 1, 53, 64
3, 165120, Note_on_c, 1, 55, 75
3, 165500, Note_off_c, 1, 55, 64
3, 165504, Note_on_c, 1, 58, 75
3, 165884, Note_off_c, 1, 58, 64
3, 165888, Note_on_c, 1, 45, 78
3, 165980, Note_off_c, 1, 45, 64
3, 165984, Note_on_c, 1, 57, 78
3, 166076, Note_off_c, 1, 57, 64
3, 166080, Note_on_c, 1, 44, 78
3, 166172, Note_off_c, 1, 44, 64
3, 166176, Note_on_c, 1, 56, 78
3, 166268, Note_off_c, 1, 56, 64
3, 166272, Note_on_c, 1, 45, 78
3, 166364, Note_off_c, 1, 45, 64
3, 166368, Note_on_c, 1, 57, 78
3, 166460, Note_off_c, 1, 57, 64
3, 166464, Note_on_c, 1, 46, 78
3, 166556, Note_off_c, 1, 46, 64
3, 166560, Note_on_c, 1, 58, 78
3, 166652, Note_off_c, 1, 58, 64
3, 166656, Note_on_c, 1, 45, 78
3, 166748, Note_off_c, 1, 45, 64
3, 166752, Note_on_c, 1, 57, 78
3, 166844, Note_off_c, 1, 57, 64
3, 166848, Note_on_c, 1, 43, 78
3, 166940, Note_off_c, 1, 43, 64
3, 166944, Note_on_c, 1, 55, 78
3, 167036, Note_off_c, 1, 55, 64
3, 167040, Note_on_c, 1, 41, 78
3, 167132, Note_off_c, 1, 41, 64
3, 167136, Note_on_c, 1, 53, 78
3, 167228, Note_off_c, 1, 53, 64
3, 167232, Note_on_c, 1, 40, 78
3, 167324, Note_off_c, 1, 40, 64
3, 167328, Note_on_c, 1, 52, 78
3, 167420, Note_off_c, 1, 52, 64
3, 167424, Note_on_c, 1, 38, 78
3, 167516, Note_off_c, 1, 38, 64
3, 167520, Note_on_c, 1, 50, 78
3, 167612, Note_off_c, 1, 50, 64
3, 167616, Note_on_c, 1, 37, 78
3, 167708, Note_off_c, 1, 37, 64
3, 167712, Note_on_c, 1, 49, 78
3, 167804, Note_off_c, 1, 49, 64
3, 167808, Note_on_c, 1, 38, 78
3, 167900, Note_off_c, 1, 38, 64
3, 167904, Note_on_c, 1, 50, 78
3, 167996, Note_off_c, 1, 50, 64
3, 168000, Note_on_c, 1, 40, 78
3, 168092, Note_off_c, 1, 40, 64
3, 168096, Note_on_c, 1, 52, 78
3, 168188, Note_off_c, 1, 52, 64
3, 168192, Note_on_c, 1, 41, 78
3, 168284, Note_off_c, 1, 41, 64
3, 168288, Note_on_c, 1, 53, 78
3, 168380, Note_off_c, 1, 53, 64
3, 168384, Note_on_c, 1, 40, 78
3, 168476, Note_off_c, 1, 40, 64
3, 168480, Note_on_c, 1, 52, 78
3, 168572, Note_off_c, 1, 52, 64
3, 168576, Note_on_c, 1, 41, 78
3, 168668, Note_off_c, 1, 41, 64
3, 168672, Note_on_c, 1, 53, 78
3, 168764, Note_off_c, 1, 53, 64
3, 168768, Note_on_c, 1, 43, 78
3, 168860, Note_off_c, 1, 43, 64
3, 168864, Note_on_c, 1, 55, 78
3, 168956, Note_off_c, 1, 55, 64
3, 168960, Note_on_c, 1, 45, 78
3, 169052, Note_off_c, 1, 45, 64
3, 169056, Note_on_c, 1, 57, 78
3, 169148, Note_off_c, 1, 57, 64
3, 169152, Note_on_c, 1, 44, 78
3, 169244, Note_off_c, 1, 44, 64
3, 169248, Note_on_c, 1, 56, 78
3, 169340, Note_off_c, 1, 56, 64
3, 169344, Note_on_c, 1, 45, 78
3, 169436, Note_off_c, 1, 45, 64
3, 169440, Note_on_c, 1, 57, 78
3, 169520, Note_on_c, 1, 46, 78
3, 169532, Note_off_c, 1, 57, 64
3, 169612, Note_off_c, 1, 46, 64
3, 169632, Note_on_c, 1, 58, 78
3, 169724, Note_off_c, 1, 58, 64
3, 169728, Note_on_c, 1, 45, 78
3, 169820, Note_off_c, 1, 45, 64
3, 169824, Note_on_c, 1, 57, 78
3, 169916, Note_off_c, 1, 57, 64
3, 169920, Note_on_c, 1, 43, 78
3, 170012, Note_off_c, 1, 43, 64
3, 170016, Note_on_c, 1, 55, 78
3, 170108, Note_off_c, 1, 55, 64
3, 170112, Note_on_c, 1, 41, 78
3, 170204, Note_off_c, 1, 41, 64
3, 170208, Note_on_c, 1, 53, 78
3, 170300, Note_off_c, 1, 53, 64
3, 170304, Note_on_c, 1, 40, 78
3, 170396, Note_off_c, 1, 40, 64
3, 170400, Note_on_c, 1, 52, 78
3, 170492, Note_off_c, 1, 52, 64
3, 170496, Note_on_c, 1, 38, 78
3, 170588, Note_off_c, 1, 38, 64
3, 170592, Note_on_c, 1, 50, 78
3, 170684, Note_off_c, 1, 50, 64
3, 170688, Note_on_c, 1, 37, 78
3, 170780, Note_off_c, 1, 37, 64
3, 170784, Note_on_c, 1, 49, 78
3, 170876, Note_off_c, 1, 49, 64
3, 170880, Note_on_c, 1, 38, 78
3, 170972, Note_off_c, 1, 38, 64
3, 170976, Note_on_c, 1, 50, 78
3, 171068, Note_off_c, 1, 50, 64
3, 171072, Note_on_c, 1, 40, 78
3, 171164, Note_off_c, 1, 40, 64
3, 171168, Note_on_c, 1, 52, 78
3, 171260, Note_off_c, 1, 52, 64
3, 171264, Note_on_c, 1, 41, 78
3, 171356, Note_off_c, 1, 41, 64
3, 171360, Note_on_c, 1, 53, 78
3, 171452, Note_off_c, 1, 53, 64
3, 171456, Note_on_c, 1, 40, 78
3, 171548, Note_off_c, 1, 40, 64
3, 171552, Note_on_c, 1, 52, 78
3, 171644, Note_off_c, 1, 52, 64
3, 171648, Note_on_c, 1, 41, 78
3, 171740, Note_off_c, 1, 41, 64
3, 171744, Note_on_c, 1, 53, 78
3, 171836, Note_off_c, 1, 53, 64
3, 171840, Note_on_c, 1, 43, 78
3, 171932, Note_off_c, 1, 43, 64
3, 171936, Note_on_c, 1, 55, 78
3, 172028, Note_off_c, 1, 55, 64
3, 172032, Note_on_c, 1, 57, 93
3, 172032, Note_on_c, 1, 45, 91
3, 172032, Note_on_c, 1, 57, 78
3, 172032, Note_on_c, 1, 45, 78
3, 172220, Note_off_c, 1, 57, 64
3, 172220, Note_off_c, 1, 45, 64
3, 172224, Note_on_c, 1, 55, 93
3, 172224, Note_on_c, 1, 43, 95
3, 172412, Note_off_c, 1, 57, 64
3, 172412, Note_off_c, 1, 45, 64
3, 172412, Note_off_c, 1, 55, 64
3, 172412, Note_off_c, 1, 43, 64
3, 172416, Note_on_c, 1, 53, 93
3, 172416, Note_on_c, 1, 41, 96
3, 172604, Note_off_c, 1, 53, 64
3, 172604, Note_off_c, 1, 41, 64
3, 172608, Note_on_c, 1, 52, 93
3, 172608, Note_on_c, 1, 40, 97
3, 172796, Note_off_c, 1, 52, 64
3, 172796, Note_off_c, 1, 40, 64
3, 172800, Note_on_c, 1, 50, 93
3, 172800, Note_on_c, 1, 38, 98
3, 172988, Note_off_c, 1, 50, 64
3, 172988, Note_off_c, 1, 38, 64
3, 172992, Note_on_c, 1, 52, 93
3, 172992, Note_on_c, 1, 40, 97
3, 173180, Note_off_c, 1, 52, 64
3, 173180, Note_off_c, 1, 40, 64
3, 173184, Note_on_c, 1, 53, 93
3, 173184, Note_on_c, 1, 41, 97
3, 173372, Note_off_c, 1, 53, 64
3, 173372, Note_off_c, 1, 41, 64
3, 173376, Note_on_c, 1, 55, 93
3, 173376, Note_on_c, 1, 43, 96
3, 173564, Note_off_c, 1, 55, 64
3, 173564, Note_off_c, 1, 43, 64
3, 173568, Note_on_c, 1, 57, 93
3, 173568, Note_on_c, 1, 45, 95
3, 173756, Note_off_c, 1, 57, 64
3, 173756, Note_off_c, 1, 45, 64
3, 173760, Note_on_c, 1, 55, 93
3, 173760, Note_on_c, 1, 43, 96
3, 173948, Note_off_c, 1, 55, 64
3, 173948, Note_off_c, 1, 43, 64
3, 173952, Note_on_c, 1, 53, 93
3, 173952, Note_on_c, 1, 41, 97
3, 174140, Note_off_c, 1, 53, 64
3, 174140, Note_off_c, 1, 41, 64
3, 174144, Note_on_c, 1, 52, 93
3, 174144, Note_on_c, 1, 40, 98
3, 174332, Note_off_c, 1, 52, 64
3, 174332, Note_off_c, 1, 40, 64
3, 174336, Note_on_c, 1, 50, 93
3, 174336, Note_on_c, 1, 38, 98
3, 174524, Note_off_c, 1, 50, 64
3, 174524, Note_off_c, 1, 38, 64
3, 174528, Note_on_c, 1, 52, 93
3, 174528, Note_on_c, 1, 40, 97
3, 174716, Note_off_c, 1, 52, 64
3, 174716, Note_off_c, 1, 40, 64
3, 174720, Note_on_c, 1, 53, 93
3, 174720, Note_on_c, 1, 41, 96
3, 174908, Note_off_c, 1, 53, 64
3, 174908, Note_off_c, 1, 41, 64
3, 174912, Note_on_c, 1, 55, 93
3, 174912, Note_on_c, 1, 43, 95
3, 175100, Note_off_c, 1, 55, 64
3, 175100, Note_off_c, 1, 43, 64
3, 175104, Note_on_c, 1, 57, 93
3, 175104, Note_on_c, 1, 45, 93
3, 175484, Note_off_c, 1, 57, 64
3, 175484, Note_off_c, 1, 45, 64
3, 176640, Note_on_c, 1, 65, 71
3, 176640, Note_on_c, 1, 57, 71
3, 176640, Note_on_c, 1, 53, 71
3, 177404, Note_off_c, 1, 65, 64
3, 177404, Note_off_c, 1, 57, 64
3, 177404, Note_off_c, 1, 53, 64
3, 177408, Note_on_c, 1, 64, 71
3, 177408, Note_on_c, 1, 58, 71
3, 177408, Note_on_c, 1, 55, 71
3, 178172, Note_off_c, 1, 64, 64
3, 178172, Note_off_c, 1, 58, 64
3, 178172, Note_off_c, 1, 55, 64
3, 178176, Note_on_c, 1, 65, 71
3, 178176, Note_on_c, 1, 60, 71
3, 178176, Note_on_c, 1, 57, 71
3, 178556, Note_off_c, 1, 65, 64
3, 178556, Note_off_c, 1, 60, 64
3, 178556, Note_off_c, 1, 57, 64
3, 179712, Note_on_c, 1, 67, 71
3, 179712, Note_on_c, 1, 58, 71
3, 179712, Note_on_c, 1, 55, 71
3, 180476, Note_off_c, 1, 67, 64
3, 180476, Note_off_c, 1, 58, 64
3, 180476, Note_off_c, 1, 55, 64
3, 180480, Note_on_c, 1, 66, 71
3, 180480, Note_on_c, 1, 60, 71
3, 180480, Note_on_c, 1, 57, 71
3, 181244, Note_off_c, 1, 66, 64
3, 181244, Note_off_c, 1, 60, 64
3, 181244, Note_off_c, 1, 57, 64
3, 181248, Note_on_c, 1, 67, 71
3, 181248, Note_on_c, 1, 62, 71
3, 181248, Note_on_c, 1, 58, 71
3, 181628, Note_off_c, 1, 67, 64
3, 181628, Note_off_c, 1, 62, 64
3, 181628, Note_off_c, 1, 58, 64
3, 182784, Note_on_c, 1, 69, 71
3, 182784, Note_on_c, 1, 60, 71
3, 182784, Note_on_c, 1, 57, 71
3, 183548, Note_off_c, 1, 69, 64
3, 183548, Note_off_c, 1, 60, 64
3, 183548, Note_off_c, 1, 57, 64
3, 183552, Note_on_c, 1, 68, 71
3, 183552, Note_on_c, 1, 62, 71
3, 183552, Note_on_c, 1, 59, 71
3, 184316, Note_off_c, 1, 68, 64
3, 184316, Note_off_c, 1, 62, 64
3, 184316, Note_off_c, 1, 59, 64
3, 184320, Note_on_c, 1, 69, 71
3, 184320, Note_on_c, 1, 64, 71
3, 184320, Note_on_c, 1, 60, 71
3, 184700, Note_off_c, 1, 69, 64
3, 184700, Note_off_c, 1, 64, 64
3, 184700, Note_off_c, 1, 60, 64
3, 185856, Note_on_c, 1, 62, 75
3, 186236, Note_off_c, 1, 62, 64
3, 186624, Note_on_c, 1, 64, 75
3, 187004, Note_off_c, 1, 64, 64
3, 187392, Note_on_c, 1, 65, 75
3, 187772, Note_off_c, 1, 65, 64
3, 188160, Note_on_c, 1, 62, 75
3, 188540, Note_off_c, 1, 62, 64
3, 188928, Note_on_c, 1, 58, 75
3, 189308, Note_off_c, 1, 58, 64
3, 189696, Note_on_c, 1, 58, 75
3, 190076, Note_off_c, 1, 58, 64
3, 190080, Note_on_c, 1, 59, 75
3, 190460, Note_off_c, 1, 59, 64
3, 196608, Note_on_c, 1, 57, 75
3, 196608, Note_on_c, 1, 53, 75
3, 196608, Note_on_c, 1, 60, 75
3, 197372, Note_off_c, 1, 57, 64
3, 197372, Note_off_c, 1, 53, 64
3, 197376, Note_on_c, 1, 58, 75
3, 197376, Note_on_c, 1, 55, 75
3, 198140, Note_off_c, 1, 60, 64
3, 198140, Note_off_c, 1, 58, 64
3, 198140, Note_off_c, 1, 55, 64
3, 200448, Note_on_c, 1, 64, 75
3, 200636, Note_off_c, 1, 64, 64
3, 200832, Note_on_c, 1, 65, 75
3, 201020, Note_off_c, 1, 65, 64
3, 201216, Note_on_c, 1, 60, 75
3, 201596, Note_off_c, 1, 60, 64
3, 202752, Note_on_c, 1, 62, 75
3, 202752, Note_on_c, 1, 58, 75
3, 202752, Note_on_c, 1, 55, 75
3, 203516, Note_off_c, 1, 58, 64
3, 203516, Note_off_c, 1, 55, 64
3, 203520, Note_on_c, 1, 60, 75
3, 203520, Note_on_c, 1, 57, 75
3, 204284, Note_off_c, 1, 62, 64
3, 204284, Note_off_c, 1, 60, 64
3, 204284, Note_off_c, 1, 57, 64
3, 204288, Note_on_c, 1, 62, 75
3, 204288, Note_on_c, 1, 58, 75
3, 204668, Note_off_c, 1, 62, 64
3, 204668, Note_off_c, 1, 58, 64
3, 208896, Note_on_c, 1, 41, 73
3, 209084, Note_off_c, 1, 41, 64
3, 209088, Note_on_c, 1, 45, 73
3, 209276, Note_off_c, 1, 45, 64
3, 209280, Note_on_c, 1, 48, 73
3, 209468, Note_off_c, 1, 48, 64
3, 209472, Note_on_c, 1, 53, 73
3, 209660, Note_off_c, 1, 53, 64
3, 209664, Note_on_c, 1, 43, 73
3, 209852, Note_off_c, 1, 43, 64
3, 209856, Note_on_c, 1, 46, 73
3, 210044, Note_off_c, 1, 46, 64
3, 210048, Note_on_c, 1, 52, 73
3, 210236, Note_off_c, 1, 52, 64
3, 210240, Note_on_c, 1, 55, 73
3, 210428, Note_off_c, 1, 55, 64
3, 210432, Note_on_c, 1, 45, 73
3, 210620, Note_off_c, 1, 45, 64
3, 210624, Note_on_c, 1, 48, 73
3, 210812, Note_off_c, 1, 48, 64
3, 210816, Note_on_c, 1, 53, 75
3, 211004, Note_off_c, 1, 53, 64
3, 211008, Note_on_c, 1, 57, 75
3, 211196, Note_off_c, 1, 57, 64
3, 212736, Note_on_c, 1, 58, 73
3, 212736, Note_on_c, 1, 55, 73
3, 212736, Note_on_c, 1, 40, 73
3, 212924, Note_off_c, 1, 58, 64
3, 212924, Note_off_c, 1, 55, 64
3, 212924, Note_off_c, 1, 40, 64
3, 213120, Note_on_c, 1, 57, 73
3, 213120, Note_on_c, 1, 53, 73
3, 213120, Note_on_c, 1, 41, 73
3, 213308, Note_off_c, 1, 57, 64
3, 213308, Note_off_c, 1, 53, 64
3, 213308, Note_off_c, 1, 41, 64
3, 213504, Note_on_c, 1, 55, 73
3, 213504, Note_on_c, 1, 52, 73
3, 213504, Note_on_c, 1, 36, 73
3, 213696, Note_on_c, 1, 52, 73
3, 213884, Note_off_c, 1, 55, 64
3, 213884, Note_off_c, 1, 52, 64
3, 213884, Note_off_c, 1, 36, 64
3, 213884, Note_off_c, 1, 52, 64
3, 213888, Note_on_c, 1, 55, 73
3, 214076, Note_off_c, 1, 55, 64
3, 214080, Note_on_c, 1, 60, 73
3, 214268, Note_off_c, 1, 60, 64
3, 214272, Note_on_c, 1, 58, 73
3, 214460, Note_off_c, 1, 58, 64
3, 214464, Note_on_c, 1, 55, 73
3, 214652, Note_off_c, 1, 55, 64
3, 214656, Note_on_c, 1, 50, 73
3, 214844, Note_off_c, 1, 50, 64
3, 214848, Note_on_c, 1, 46, 73
3, 215036, Note_off_c, 1, 46, 64
3, 215040, Note_on_c, 1, 41, 73
3, 215228, Note_off_c, 1, 41, 64
3, 215232, Note_on_c, 1, 46, 73
3, 215420, Note_off_c, 1, 46, 64
3, 215424, Note_on_c, 1, 50, 73
3, 215612, Note_off_c, 1, 50, 64
3, 215616, Note_on_c, 1, 55, 73
3, 215804, Note_off_c, 1, 55, 64
3, 215808, Note_on_c, 1, 45, 73
3, 215996, Note_off_c, 1, 45, 64
3, 216000, Note_on_c, 1, 48, 73
3, 216188, Note_off_c, 1, 48, 64
3, 216192, Note_on_c, 1, 54, 73
3, 216380, Note_off_c, 1, 54, 64
3, 216384, Note_on_c, 1, 57, 73
3, 216572, Note_off_c, 1, 57, 64
3, 216576, Note_on_c, 1, 46, 73
3, 216764, Note_off_c, 1, 46, 64
3, 216768, Note_on_c, 1, 50, 73
3, 216956, Note_off_c, 1, 50, 64
3, 216960, Note_on_c, 1, 55, 73
3, 217148, Note_off_c, 1, 55, 64
3, 217152, Note_on_c, 1, 58, 73
3, 217340, Note_off_c, 1, 58, 64
3, 218880, Note_on_c, 1, 57, 75
3, 218880, Note_on_c, 1, 48, 75
3, 219260, Note_off_c, 1, 57, 64
3, 219264, Note_on_c, 1, 58, 75
3, 219644, Note_off_c, 1, 48, 64
3, 219644, Note_off_c, 1, 58, 64
3, 219648, Note_on_c, 1, 57, 75
3, 219648, Note_on_c, 1, 53, 75
3, 220028, Note_off_c, 1, 57, 64
3, 220028, Note_off_c, 1, 53, 64
3, 231936, Note_on_c, 1, 60, 75
3, 231936, Note_on_c, 1, 48, 75
3, 232316, Note_off_c, 1, 60, 64
3, 232316, Note_off_c, 1, 48, 64
3, 235584, Note_on_c, 1, 57, 75
3, 235676, Note_off_c, 1, 57, 64
3, 235680, Note_on_c, 1, 65, 75
3, 235772, Note_off_c, 1, 65, 64
3, 235776, Note_on_c, 1, 58, 75
3, 235868, Note_off_c, 1, 58, 64
3, 235872, Note_on_c, 1, 65, 75
3, 235964, Note_off_c, 1, 65, 64
3, 235968, Note_on_c, 1, 57, 75
3, 236060, Note_off_c, 1, 57, 64
3, 236064, Note_on_c, 1, 65, 75
3, 236156, Note_off_c, 1, 65, 64
3, 236160, Note_on_c, 1, 58, 75
3, 236252, Note_off_c, 1, 58, 64
3, 236256, Note_on_c, 1, 65, 75
3, 236348, Note_off_c, 1, 65, 64
3, 236352, Note_on_c, 1, 60, 75
3, 236444, Note_off_c, 1, 60, 64
3, 236448, Note_on_c, 1, 65, 75
3, 236540, Note_off_c, 1, 65, 64
3, 236544, Note_on_c, 1, 62, 75
3, 236636, Note_off_c, 1, 62, 64
3, 236640, Note_on_c, 1, 65, 75
3, 236732, Note_off_c, 1, 65, 64
3, 236736, Note_on_c, 1, 61, 75
3, 236828, Note_off_c, 1, 61, 64
3, 236832, Note_on_c, 1, 65, 75
3, 236924, Note_off_c, 1, 65, 64
3, 236928, Note_on_c, 1, 62, 75
3, 237020, Note_off_c, 1, 62, 64
3, 237024, Note_on_c, 1, 65, 75
3, 237116, Note_off_c, 1, 65, 64
3, 237120, Note_on_c, 1, 59, 75
3, 237212, Note_off_c, 1, 59, 64
3, 237216, Note_on_c, 1, 65, 75
3, 237308, Note_off_c, 1, 65, 64
3, 237312, Note_on_c, 1, 60, 75
3, 237404, Note_off_c, 1, 60, 64
3, 237408, Note_on_c, 1, 65, 75
3, 237500, Note_off_c, 1, 65, 64
3, 237504, Note_on_c, 1, 59, 75
3, 237596, Note_off_c, 1, 59, 64
3, 237600, Note_on_c, 1, 65, 75
3, 237692, Note_off_c, 1, 65, 64
3, 237696, Note_on_c, 1, 60, 75
3, 237788, Note_off_c, 1, 60, 64
3, 237792, Note_on_c, 1, 65, 75
3, 237884, Note_off_c, 1, 65, 64
3, 237888, Note_on_c, 1, 62, 75
3, 237980, Note_off_c, 1, 62, 64
3, 237984, Note_on_c, 1, 65, 75
3, 238076, Note_off_c, 1, 65, 64
3, 239616, Note_on_c, 1, 58, 87
3, 239708, Note_off_c, 1, 58, 64
3, 239712, Note_on_c, 1, 62, 84
3, 239804, Note_off_c, 1, 62, 64
3, 240384, Note_on_c, 1, 55, 87
3, 240476, Note_off_c, 1, 55, 64
3, 240480, Note_on_c, 1, 64, 84
3, 240572, Note_off_c, 1, 64, 64
3, 241152, Note_on_c, 1, 57, 89
3, 241244, Note_off_c, 1, 57, 64
3, 241248, Note_on_c, 1, 65, 85
3, 241340, Note_off_c, 1, 65, 64
3, 241920, Note_on_c, 1, 50, 87
3, 242012, Note_off_c, 1, 50, 64
3, 242016, Note_on_c, 1, 59, 84
3, 242108, Note_off_c, 1, 59, 64
3, 242688, Note_on_c, 1, 48, 75
3, 243068, Note_off_c, 1, 48, 64
3, 243456, Note_on_c, 1, 48, 75
3, 243548, Note_off_c, 1, 48, 64
3, 243552, Note_on_c, 1, 58, 75
3, 243644, Note_off_c, 1, 58, 64
3, 243648, Note_on_c, 1, 52, 75
3, 243740, Note_off_c, 1, 52, 64
3, 243744, Note_on_c, 1, 58, 75
3, 243836, Note_off_c, 1, 58, 64
3, 243840, Note_on_c, 1, 48, 75
3, 243932, Note_off_c, 1, 48, 64
3, 243936, Note_on_c, 1, 58, 75
3, 244028, Note_off_c, 1, 58, 64
3, 244032, Note_on_c, 1, 52, 75
3, 244124, Note_off_c, 1, 52, 64
3, 244128, Note_on_c, 1, 58, 75
3, 244220, Note_off_c, 1, 58, 64
3, 244224, Note_on_c, 1, 58, 78
3, 244224, Note_on_c, 1, 53, 78
3, 244604, Note_off_c, 1, 58, 64
3, 244604, Note_off_c, 1, 53, 64
3, 244800, Note_on_c, 1, 41, 78
3, 244892, Note_off_c, 1, 41, 64
3, 244896, Note_on_c, 1, 53, 78
3, 244988, Note_off_c, 1, 53, 64
3, 244992, Note_on_c, 1, 42, 78
3, 245084, Note_off_c, 1, 42, 64
3, 245088, Note_on_c, 1, 54, 78
3, 245180, Note_off_c, 1, 54, 64
3, 245184, Note_on_c, 1, 41, 78
3, 245276, Note_off_c, 1, 41, 64
3, 245280, Note_on_c, 1, 53, 78
3, 245372, Note_off_c, 1, 53, 64
3, 245376, Note_on_c, 1, 43, 78
3, 245468, Note_off_c, 1, 43, 64
3, 245472, Note_on_c, 1, 55, 78
3, 245564, Note_off_c, 1, 55, 64
3, 245568, Note_on_c, 1, 45, 78
3, 245660, Note_off_c, 1, 45, 64
3, 245664, Note_on_c, 1, 57, 78
3, 245756, Note_off_c, 1, 57, 64
3, 245760, Note_on_c, 1, 46, 78
3, 245852, Note_off_c, 1, 46, 64
3, 245856, Note_on_c, 1, 58, 78
3, 245948, Note_off_c, 1, 58, 64
3, 245952, Note_on_c, 1, 45, 78
3, 246044, Note_off_c, 1, 45, 64
3, 246048, Note_on_c, 1, 57, 78
3, 246140, Note_off_c, 1, 57, 64
3, 246144, Note_on_c, 1, 46, 78
3, 246236, Note_off_c, 1, 46, 64
3, 246240, Note_on_c, 1, 58, 78
3, 246332, Note_off_c, 1, 58, 64
3, 246336, Note_on_c, 1, 43, 78
3, 246428, Note_off_c, 1, 43, 64
3, 246432, Note_on_c, 1, 55, 78
3, 246524, Note_off_c, 1, 55, 64
3, 246528, Note_on_c, 1, 44, 78
3, 246620, Note_off_c, 1, 44, 64
3, 246624, Note_on_c, 1, 56, 78
3, 246716, Note_off_c, 1, 56, 64
3, 246720, Note_on_c, 1, 43, 78
3, 246812, Note_off_c, 1, 43, 64
3, 246816, Note_on_c, 1, 55, 78
3, 246908, Note_off_c, 1, 55, 64
3, 246912, Note_on_c, 1, 45, 78
3, 247004, Note_off_c, 1, 45, 64
3, 247008, Note_on_c, 1, 57, 78
3, 247100, Note_off_c, 1, 57, 64
3, 247104, Note_on_c, 1, 47, 78
3, 247196, Note_off_c, 1, 47, 64
3, 247200, Note_on_c, 1, 59, 78
3, 247292, Note_off_c, 1, 59, 64
3, 247296, Note_on_c, 1, 48, 78
3, 247388, Note_off_c, 1, 48, 64
3, 247392, Note_on_c, 1, 60, 78
3, 247484, Note_off_c, 1, 60, 64
3, 247488, Note_on_c, 1, 47, 78
3, 247580, Note_off_c, 1, 47, 64
3, 247584, Note_on_c, 1, 59, 78
3, 247676, Note_off_c, 1, 59, 64
3, 247680, Note_on_c, 1, 48, 78
3, 247772, Note_off_c, 1, 48, 64
3, 247776, Note_on_c, 1, 60, 78
3, 247868, Note_off_c, 1, 60, 64
3, 247872, Note_on_c, 1, 45, 78
3, 247964, Note_off_c, 1, 45, 64
3, 247968, Note_on_c, 1, 57, 78
3, 248060, Note_off_c, 1, 57, 64
3, 248064, Note_on_c, 1, 46, 78
3, 248156, Note_off_c, 1, 46, 64
3, 248160, Note_on_c, 1, 58, 78
3, 248252, Note_off_c, 1, 58, 64
3, 248256, Note_on_c, 1, 45, 78
3, 248348, Note_off_c, 1, 45, 64
3, 248352, Note_on_c, 1, 57, 78
3, 248444, Note_off_c, 1, 57, 64
3, 248448, Note_on_c, 1, 46, 78
3, 248540, Note_off_c, 1, 46, 64
3, 248544, Note_on_c, 1, 58, 78
3, 248636, Note_off_c, 1, 58, 64
3, 248640, Note_on_c, 1, 48, 78
3, 248732, Note_off_c, 1, 48, 64
3, 248736, Note_on_c, 1, 60, 78
3, 248828, Note_off_c, 1, 60, 64
3, 248832, Note_on_c, 1, 61, 99
3, 248832, Note_on_c, 1, 49, 99
3, 249212, Note_off_c, 1, 61, 64
3, 249212, Note_off_c, 1, 49, 64
3, 249216, Note_on_c, 1, 60, 99
3, 249216, Note_on_c, 1, 48, 99
3, 249596, Note_off_c, 1, 60, 64
3, 249596, Note_off_c, 1, 48, 64
3, 249600, Note_on_c, 1, 58, 69
3, 249788, Note_off_c, 1, 58, 64
3, 249984, Note_on_c, 1, 57, 69
3, 250172, Note_off_c, 1, 57, 64
3, 250368, Note_on_c, 1, 61, 99
3, 250368, Note_on_c, 1, 49, 99
3, 250748, Note_off_c, 1, 61, 64
3, 250748, Note_off_c, 1, 49, 64
3, 250752, Note_on_c, 1, 60, 99
3, 250752, Note_on_c, 1, 48, 99
3, 251132, Note_off_c, 1, 60, 64
3, 251132, Note_off_c, 1, 48, 64
3, 251136, Note_on_c, 1, 58, 71
3, 251324, Note_off_c, 1, 58, 64
3, 251520, Note_on_c, 1, 57, 71
3, 251708, Note_off_c, 1, 57, 64
3, 251904, Note_on_c, 1, 61, 99
3, 251904, Note_on_c, 1, 49, 99
3, 252284, Note_off_c, 1, 61, 64
3, 252284, Note_off_c, 1, 49, 64
3, 252288, Note_on_c, 1, 60, 99
3, 252288, Note_on_c, 1, 48, 99
3, 252668, Note_off_c, 1, 60, 64
3, 252668, Note_off_c, 1, 48, 64
3, 252672, Note_on_c, 1, 58, 71
3, 252860, Note_off_c, 1, 58, 64
3, 253056, Note_on_c, 1, 57, 71
3, 253244, Note_off_c, 1, 57, 64
3, 253440, Note_on_c, 1, 58, 99
3, 253440, Note_on_c, 1, 46, 99
3, 255740, Note_off_c, 1, 46, 64
3, 255740, Note_off_c, 1, 58, 64
3, 255744, Note_on_c, 1, 59, 99
3, 255744, Note_on_c, 1, 47, 99
3, 256508, Note_off_c, 1, 59, 64
3, 256508, Note_off_c, 1, 47, 64
3, 258432, Note_on_c, 1, 48, 99
3, 258524, Note_off_c, 1, 48, 64
3, 258528, Note_on_c, 1, 57, 99
3, 258620, Note_off_c, 1, 57, 64
3, 258624, Note_on_c, 1, 53, 99
3, 258716, Note_off_c, 1, 53, 64
3, 258720, Note_on_c, 1, 48, 99
3, 258812, Note_off_c, 1, 48, 64
3, 258816, Note_on_c, 1, 45, 99
3, 258908, Note_off_c, 1, 45, 64
3, 258912, Note_on_c, 1, 53, 99
3, 259004, Note_off_c, 1, 53, 64
3, 259008, Note_on_c, 1, 48, 99
3, 259100, Note_off_c, 1, 48, 64
3, 259104, Note_on_c, 1, 45, 99
3, 259196, Note_off_c, 1, 45, 64
3, 259200, Note_on_c, 1, 41, 99
3, 259200, Note_on_c, 1, 53, 99
3, 259280, Note_on_c, 1, 60, 99
3, 259292, Note_off_c, 1, 41, 64
3, 259292, Note_off_c, 1, 53, 64
3, 259296, Note_on_c, 1, 48, 99
3, 259372, Note_off_c, 1, 60, 64
3, 259388, Note_off_c, 1, 48, 64
3, 259392, Note_on_c, 1, 45, 99
3, 259392, Note_on_c, 1, 57, 99
3, 259484, Note_off_c, 1, 45, 64
3, 259484, Note_off_c, 1, 57, 64
3, 259488, Note_on_c, 1, 41, 99
3, 259488, Note_on_c, 1, 53, 99
3, 259580, Note_off_c, 1, 41, 64
3, 259580, Note_off_c, 1, 53, 64
3, 259584, Note_on_c, 1, 48, 99
3, 259584, Note_on_c, 1, 36, 101
3, 259772, Note_off_c, 1, 48, 64
3, 259772, Note_off_c, 1, 36, 64
3, 259776, Note_on_c, 1, 50, 99
3, 259776, Note_on_c, 1, 38, 100
3, 259868, Note_off_c, 1, 50, 64
3, 259868, Note_off_c, 1, 38, 64
3, 259872, Note_on_c, 1, 52, 99
3, 259872, Note_on_c, 1, 40, 99
3, 259964, Note_off_c, 1, 52, 64
3, 259964, Note_off_c, 1, 40, 64
3, 259968, Note_on_c, 1, 53, 99
3, 259968, Note_on_c, 1, 41, 99
3, 260060, Note_off_c, 1, 53, 64
3, 260060, Note_off_c, 1, 41, 64
3, 260064, Note_on_c, 1, 55, 99
3, 260064, Note_on_c, 1, 43, 99
3, 260156, Note_off_c, 1, 55, 64
3, 260156, Note_off_c, 1, 43, 64
3, 260160, Note_on_c, 1, 57, 99
3, 260160, Note_on_c, 1, 45, 99
3, 260252, Note_off_c, 1, 57, 64
3, 260252, Note_off_c, 1, 45, 64
3, 260256, Note_on_c, 1, 58, 99
3, 260256, Note_on_c, 1, 46, 99
3, 260348, Note_off_c, 1, 58, 64
3, 260348, Note_off_c, 1, 46, 64
3, 260352, Note_on_c, 1, 60, 99
3, 260352, Note_on_c, 1, 48, 99
3, 260432, Note_on_c, 1, 41, 99
3, 260444, Note_off_c, 1, 60, 64
3, 260444, Note_off_c, 1, 48, 64
3, 260448, Note_on_c, 1, 53, 99
3, 260524, Note_off_c, 1, 41, 64
3, 260540, Note_off_c, 1, 53, 64
3, 260544, Note_on_c, 1, 55, 99
3, 260544, Note_on_c, 1, 43, 99
3, 260636, Note_off_c, 1, 55, 64
3, 260636, Note_off_c, 1, 43, 64
3, 260640, Note_on_c, 1, 57, 99
3, 260640, Note_on_c, 1, 45, 99
3, 260732, Note_off_c, 1, 57, 64
3, 260732, Note_off_c, 1, 45, 64
3, 260736, Note_on_c, 1, 58, 99
3, 260736, Note_on_c, 1, 46, 99
3, 260828, Note_off_c, 1, 58, 64
3, 260828, Note_off_c, 1, 46, 64
3, 260832, Note_on_c, 1, 60, 99
3, 260832, Note_on_c, 1, 48, 99
3, 260924, Note_off_c, 1, 60, 64
3, 260924, Note_off_c, 1, 48, 64
3, 260928, Note_on_c, 1, 62, 99
3, 260928, Note_on_c, 1, 50, 99
3, 261020, Note_off_c, 1, 62, 64
3, 261020, Note_off_c, 1, 50, 64
3, 261024, Note_on_c, 1, 64, 99
3, 261024, Note_on_c, 1, 52, 99
3, 261116, Note_off_c, 1, 64, 64
3, 261116, Note_off_c, 1, 52, 64
3, 261120, Note_on_c, 1, 53, 99
3, 261212, Note_off_c, 1, 53, 64
3, 261216, Note_on_c, 1, 48, 99
3, 261308, Note_off_c, 1, 48, 64
3, 261312, Note_on_c, 1, 50, 99
3, 261404, Note_off_c, 1, 50, 64
3, 261408, Note_on_c, 1, 52, 99
3, 261500, Note_off_c, 1, 52, 64
3, 261504, Note_on_c, 1, 53, 99
3, 261596, Note_off_c, 1, 53, 64
3, 261600, Note_on_c, 1, 55, 99
3, 261692, Note_off_c, 1, 55, 64
3, 261696, Note_on_c, 1, 57, 99
3, 261788, Note_off_c, 1, 57, 64
3, 261792, Note_on_c, 1, 58, 99
3, 261884, Note_off_c, 1, 58, 64
3, 261888, Note_on_c, 1, 60, 99
3, 261980, Note_off_c, 1, 60, 64
3, 261984, Note_on_c, 1, 53, 99
3, 262076, Note_off_c, 1, 53, 64
3, 262080, Note_on_c, 1, 55, 99
3, 262172, Note_off_c, 1, 55, 64
3, 262176, Note_on_c, 1, 57, 99
3, 262268, Note_off_c, 1, 57, 64
3, 262272, Note_on_c, 1, 58, 99
3, 262364, Note_off_c, 1, 58, 64
3, 262368, Note_on_c, 1, 60, 99
3, 262460, Note_off_c, 1, 60, 64
3, 262464, Note_on_c, 1, 62, 99
3, 262556, Note_off_c, 1, 62, 64
3, 262560, Note_on_c, 1, 64, 99
3, 262652, Note_off_c, 1, 64, 64
3, 264192, Note_on_c, 1, 52, 99
3, 264572, Note_off_c, 1, 52, 64
3, 267456, Note_on_c, 1, 57, 99
3, 267456, Note_on_c, 1, 53, 99
3, 267548, Note_off_c, 1, 57, 64
3, 267548, Note_off_c, 1, 53, 64
3, 267552, Note_on_c, 1, 60, 99
3, 267644, Note_off_c, 1, 60, 64
3, 267648, Note_on_c, 1, 57, 93
3, 267648, Note_on_c, 1, 53, 93
3, 267740, Note_off_c, 1, 57, 64
3, 267740, Note_off_c, 1, 53, 64
3, 267744, Note_on_c, 1, 60, 93
3, 267836, Note_off_c, 1, 60, 64
3, 267840, Note_on_c, 1, 57, 93
3, 267840, Note_on_c, 1, 53, 93
3, 267932, Note_off_c, 1, 57, 64
3, 267932, Note_off_c, 1, 53, 64
3, 267936, Note_on_c, 1, 60, 93
3, 268028, Note_off_c, 1, 60, 64
3, 268032, Note_on_c, 1, 57, 93
3, 268032, Note_on_c, 1, 53, 93
3, 268124, Note_off_c, 1, 57, 64
3, 268124, Note_off_c, 1, 53, 64
3, 268128, Note_on_c, 1, 60, 93
3, 268220, Note_off_c, 1, 60, 64
3, 268224, Note_on_c, 1, 57, 93
3, 268224, Note_on_c, 1, 53, 93
3, 268316, Note_off_c, 1, 57, 64
3, 268316, Note_off_c, 1, 53, 64
3, 268320, Note_on_c, 1, 60, 93
3, 268412, Note_off_c, 1, 60, 64
3, 268416, Note_on_c, 1, 57, 93
3, 268416, Note_on_c, 1, 53, 93
3, 268508, Note_off_c, 1, 57, 64
3, 268508, Note_off_c, 1, 53, 64
3, 268512, Note_on_c, 1, 60, 93
3, 268604, Note_off_c, 1, 60, 64
3, 268608, Note_on_c, 1, 57, 93
3, 268608, Note_on_c, 1, 53, 93
3, 268608, Note_on_c, 1, 48, 93
3, 268668, Note_off_c, 1, 48, 64
3, 268672, Note_on_c, 1, 50, 93
3, 268700, Note_off_c, 1, 57, 64
3, 268700, Note_off_c, 1, 53, 64
3, 268704, Note_on_c, 1, 60, 93
3, 268732, Note_off_c, 1, 50, 64
3, 268736, Note_on_c, 1, 52, 93
3, 268796, Note_off_c, 1, 60, 64
3, 268796, Note_off_c, 1, 52, 64
3, 268800, Note_on_c, 1, 53, 93
3, 268800, Note_on_c, 1, 57, 93
3, 268892, Note_off_c, 1, 57, 64
3, 268896, Note_on_c, 1, 60, 93
3, 268988, Note_off_c, 1, 60, 64
3, 268992, Note_on_c, 1, 57, 93
3, 269084, Note_off_c, 1, 57, 64
3, 269088, Note_on_c, 1, 60, 93
3, 269180, Note_off_c, 1, 53, 64
3, 269180, Note_off_c, 1, 60, 64
3, 269184, Note_on_c, 1, 57, 93
3, 269276, Note_off_c, 1, 57, 64
3, 269280, Note_on_c, 1, 60, 93
3, 269372, Note_off_c, 1, 60, 64
3, 269376, Note_on_c, 1, 57, 93
3, 269468, Note_off_c, 1, 57, 64
3, 269472, Note_on_c, 1, 60, 93
3, 269564, Note_off_c, 1, 60, 64
3, 269568, Note_on_c, 1, 57, 93
3, 269568, Note_on_c, 1, 53, 93
3, 269660, Note_off_c, 1, 57, 64
3, 269660, Note_off_c, 1, 53, 64
3, 269664, Note_on_c, 1, 60, 93
3, 269756, Note_off_c, 1, 60, 64
3, 269760, Note_on_c, 1, 57, 93
3, 269760, Note_on_c, 1, 53, 93
3, 269852, Note_off_c, 1, 57, 64
3, 269852, Note_off_c, 1, 53, 64
3, 269856, Note_on_c, 1, 60, 93
3, 269948, Note_off_c, 1, 60, 64
3, 269952, Note_on_c, 1, 57, 93
3, 269952, Note_on_c, 1, 53, 93
3, 270044, Note_off_c, 1, 57, 64
3, 270044, Note_off_c, 1, 53, 64
3, 270048, Note_on_c, 1, 60, 93
3, 270140, Note_off_c, 1, 60, 64
3, 270144, Note_on_c, 1, 57, 93
3, 270144, Note_on_c, 1, 53, 93
3, 270236, Note_off_c, 1, 57, 64
3, 270236, Note_off_c, 1, 53, 64
3, 270240, Note_on_c, 1, 60, 93
3, 270332, Note_off_c, 1, 60, 64
3, 270336, Note_on_c, 1, 57, 93
3, 270336, Note_on_c, 1, 53, 93
3, 270428, Note_off_c, 1, 57, 64
3, 270428, Note_off_c, 1, 53, 64
3, 270432, Note_on_c, 1, 60, 93
3, 270512, Note_on_c, 1, 57, 93
3, 270524, Note_off_c, 1, 60, 64
3, 270528, Note_on_c, 1, 53, 93
3, 270604, Note_off_c, 1, 57, 64
3, 270620, Note_off_c, 1, 53, 64
3, 270624, Note_on_c, 1, 60, 93
3, 270716, Note_off_c, 1, 60, 64
3, 270720, Note_on_c, 1, 57, 93
3, 270720, Note_on_c, 1, 53, 93
3, 270812, Note_off_c, 1, 57, 64
3, 270812, Note_off_c, 1, 53, 64
3, 270816, Note_on_c, 1, 60, 93
3, 270908, Note_off_c, 1, 60, 64
3, 270912, Note_on_c, 1, 57, 93
3, 270912, Note_on_c, 1, 53, 93
3, 271004, Note_off_c, 1, 57, 64
3, 271004, Note_off_c, 1, 53, 64
3, 271008, Note_on_c, 1, 60, 93
3, 271100, Note_off_c, 1, 60, 64
3, 271104, Note_on_c, 1, 57, 93
3, 271104, Note_on_c, 1, 53, 93
3, 271196, Note_off_c, 1, 57, 64
3, 271196, Note_off_c, 1, 53, 64
3, 271200, Note_on_c, 1, 60, 93
3, 271292, Note_off_c, 1, 60, 64
3, 271296, Note_on_c, 1, 57, 93
3, 271296, Note_on_c, 1, 53, 93
3, 271388, Note_off_c, 1, 57, 64
3, 271388, Note_off_c, 1, 53, 64
3, 271392, Note_on_c, 1, 60, 93
3, 271484, Note_off_c, 1, 60, 64
3, 271680, Note_on_c, 1, 48, 93
3, 271720, Note_off_c, 1, 48, 64
3, 271728, Note_on_c, 1, 50, 93
3, 271768, Note_off_c, 1, 50, 64
3, 271776, Note_on_c, 1, 52, 93
3, 271816, Note_off_c, 1, 52, 64
3, 271824, Note_on_c, 1, 53, 93
3, 271864, Note_off_c, 1, 53, 64
3, 271872, Note_on_c, 1, 55, 93
3, 272252, Note_off_c, 1, 55, 64
3, 272256, Note_on_c, 1, 52, 93
3, 272444, Note_off_c, 1, 52, 64
3, 272640, Note_on_c, 1, 46, 93
3, 272828, Note_off_c, 1, 46, 64
3, 273024, Note_on_c, 1, 43, 93
3, 273212, Note_off_c, 1, 43, 64
3, 273408, Note_on_c, 1, 41, 93
3, 273788, Note_off_c, 1, 41, 64
3, 273792, Note_on_c, 1, 57, 93
3, 273792, Note_on_c, 1, 53, 93
3, 273884, Note_off_c, 1, 57, 64
3, 273884, Note_off_c, 1, 53, 64
3, 273888, Note_on_c, 1, 60, 93
3, 273980, Note_off_c, 1, 60, 64
3, 273984, Note_on_c, 1, 57, 93
3, 273984, Note_on_c, 1, 53, 93
3, 274076, Note_off_c, 1, 57, 64
3, 274076, Note_off_c, 1, 53, 64
3, 274080, Note_on_c, 1, 60, 93
3, 274172, Note_off_c, 1, 60, 64
3, 274176, Note_on_c, 1, 57, 93
3, 274176, Note_on_c, 1, 53, 93
3, 274268, Note_off_c, 1, 57, 64
3, 274268, Note_off_c, 1, 53, 64
3, 274272, Note_on_c, 1, 60, 93
3, 274364, Note_off_c, 1, 60, 64
3, 274368, Note_on_c, 1, 57, 93
3, 274368, Note_on_c, 1, 53, 93
3, 274460, Note_off_c, 1, 57, 64
3, 274460, Note_off_c, 1, 53, 64
3, 274464, Note_on_c, 1, 60, 93
3, 274556, Note_off_c, 1, 60, 64
3, 274752, Note_on_c, 1, 57, 93
3, 274808, Note_off_c, 1, 57, 64
3, 274816, Note_on_c, 1, 55, 93
3, 274872, Note_off_c, 1, 55, 64
3, 274880, Note_on_c, 1, 53, 93
3, 274936, Note_off_c, 1, 53, 64
3, 274944, Note_on_c, 1, 55, 93
3, 274944, Note_on_c, 1, 52, 93
3, 275516, Note_off_c, 1, 55, 64
3, 275516, Note_off_c, 1, 52, 64
3, 275520, Note_on_c, 1, 56, 93
3, 275520, Note_on_c, 1, 53, 93
3, 275708, Note_off_c, 1, 56, 64
3, 275708, Note_off_c, 1, 53, 64
3, 275712, Note_on_c, 1, 55, 93
3, 275712, Note_on_c, 1, 52, 93
3, 275900, Note_off_c, 1, 55, 64
3, 275900, Note_off_c, 1, 52, 64
3, 275904, Note_on_c, 1, 56, 93
3, 275904, Note_on_c, 1, 53, 93
3, 276092, Note_off_c, 1, 56, 64
3, 276092, Note_off_c, 1, 53, 64
3, 276096, Note_on_c, 1, 55, 93
3, 276096, Note_on_c, 1, 52, 93
3, 276284, Note_off_c, 1, 55, 64
3, 276284, Note_off_c, 1, 52, 64
3, 276288, Note_on_c, 1, 56, 93
3, 276288, Note_on_c, 1, 53, 93
3, 276476, Note_off_c, 1, 56, 64
3, 276476, Note_off_c, 1, 53, 64
3, 276480, Note_on_c, 1, 55, 93
3, 276480, Note_on_c, 1, 52, 93
3, 277052, Note_off_c, 1, 55, 64
3, 277052, Note_off_c, 1, 52, 64
3, 277056, Note_on_c, 1, 56, 93
3, 277056, Note_on_c, 1, 53, 93
3, 277244, Note_off_c, 1, 56, 64
3, 277244, Note_off_c, 1, 53, 64
3, 277248, Note_on_c, 1, 55, 93
3, 277248, Note_on_c, 1, 52, 93
3, 277436, Note_off_c, 1, 55, 64
3, 277436, Note_off_c, 1, 52, 64
3, 277440, Note_on_c, 1, 56, 93
3, 277440, Note_on_c, 1, 53, 93
3, 277628, Note_off_c, 1, 56, 64
3, 277628, Note_off_c, 1, 53, 64
3, 277632, Note_on_c, 1, 55, 93
3, 277632, Note_on_c, 1, 52, 93
3, 277820, Note_off_c, 1, 55, 64
3, 277820, Note_off_c, 1, 52, 64
3, 277824, Note_on_c, 1, 56, 93
3, 277824, Note_on_c, 1, 53, 93
3, 278012, Note_off_c, 1, 56, 64
3, 278012, Note_off_c, 1, 53, 64
3, 278016, Note_on_c, 1, 55, 93
3, 278016, Note_on_c, 1, 52, 93
3, 278204, Note_off_c, 1, 55, 64
3, 278204, Note_off_c, 1, 52, 64
3, 278208, Note_on_c, 1, 58, 71
3, 278588, Note_off_c, 1, 58, 64
3, 278592, Note_on_c, 1, 57, 71
3, 278780, Note_off_c, 1, 57, 64
3, 278784, Note_on_c, 1, 55, 71
3, 278972, Note_off_c, 1, 55, 64
3, 278976, Note_on_c, 1, 62, 71
3, 279356, Note_off_c, 1, 62, 64
3, 279360, Note_on_c, 1, 60, 71
3, 279548, Note_off_c, 1, 60, 64
3, 279552, Note_on_c, 1, 58, 71
3, 279740, Note_off_c, 1, 58, 64
3, 280512, Note_on_c, 1, 58, 71
3, 280512, Note_on_c, 1, 67, 71
3, 280892, Note_off_c, 1, 58, 64
3, 280892, Note_off_c, 1, 67, 64
3, 280896, Note_on_c, 1, 57, 71
3, 280896, Note_on_c, 1, 65, 71
3, 281084, Note_off_c, 1, 57, 64
3, 281084, Note_off_c, 1, 65, 64
3, 281088, Note_on_c, 1, 52, 71
3, 281088, Note_on_c, 1, 46, 71
3, 281088, Note_on_c, 1, 55, 71
3, 281180, Note_off_c, 1, 55, 64
3, 281276, Note_off_c, 1, 52, 64
3, 281280, Note_on_c, 1, 58, 71
3, 281372, Note_off_c, 1, 58, 64
3, 281468, Note_off_c, 1, 46, 64
3, 281472, Note_on_c, 1, 52, 71
3, 281472, Note_on_c, 1, 55, 71
3, 281564, Note_off_c, 1, 55, 64
3, 281660, Note_off_c, 1, 52, 64
3, 281664, Note_on_c, 1, 58, 71
3, 281756, Note_off_c, 1, 58, 64
3, 281856, Note_on_c, 1, 55, 71
3, 281856, Note_on_c, 1, 64, 71
3, 281948, Note_off_c, 1, 64, 64
3, 282048, Note_on_c, 1, 67, 71
3, 282140, Note_off_c, 1, 67, 64
3, 282236, Note_off_c, 1, 55, 64
3, 282240, Note_on_c, 1, 58, 71
3, 282240, Note_on_c, 1, 64, 71
3, 282332, Note_off_c, 1, 64, 64
3, 282428, Note_off_c, 1, 58, 64
3, 282432, Note_on_c, 1, 67, 71
3, 282524, Note_off_c, 1, 67, 64
3, 282624, Note_on_c, 1, 45, 71
3, 282624, Note_on_c, 1, 53, 71
3, 282716, Note_off_c, 1, 53, 64
3, 282816, Note_on_c, 1, 57, 71
3, 282908, Note_off_c, 1, 57, 64
3, 283004, Note_off_c, 1, 45, 64
3, 283008, Note_on_c, 1, 48, 71
3, 283008, Note_on_c, 1, 53, 71
3, 283100, Note_off_c, 1, 53, 64
3, 283196, Note_off_c, 1, 48, 64
3, 283200, Note_on_c, 1, 57, 71
3, 283292, Note_off_c, 1, 57, 64
3, 283392, Note_on_c, 1, 53, 71
3, 283392, Note_on_c, 1, 57, 71
3, 283484, Note_off_c, 1, 57, 64
3, 283580, Note_off_c, 1, 53, 64
3, 283584, Note_on_c, 1, 60, 71
3, 283676, Note_off_c, 1, 60, 64
3, 283776, Note_on_c, 1, 57, 71
3, 283776, Note_on_c, 1, 57, 71
3, 283868, Note_off_c, 1, 57, 64
3, 283964, Note_off_c, 1, 57, 64
3, 283968, Note_on_c, 1, 60, 71
3, 284060, Note_off_c, 1, 60, 64
3, 284160, Note_on_c, 1, 58, 71
3, 284160, Note_on_c, 1, 46, 71
3, 284540, Note_off_c, 1, 58, 64
3, 284540, Note_off_c, 1, 46, 64
3, 284544, Note_on_c, 1, 55, 71
3, 284544, Note_on_c, 1, 43, 71
3, 284924, Note_off_c, 1, 55, 64
3, 284924, Note_off_c, 1, 43, 64
3, 284928, Note_on_c, 1, 60, 71
3, 284928, Note_on_c, 1, 48, 71
3, 285308, Note_off_c, 1, 60, 64
3, 285308, Note_off_c, 1, 48, 64
3, 285312, Note_on_c, 1, 48, 71
3, 285312, Note_on_c, 1, 36, 71
3, 285692, Note_off_c, 1, 48, 64
3, 285692, Note_off_c, 1, 36, 64
3, 285696, Note_on_c, 1, 53, 71
3, 285696, Note_on_c, 1, 41, 71
3, 286460, Note_off_c, 1, 53, 64
3, 286460, Note_off_c, 1, 41, 64
3, 286464, Note_on_c, 1, 57, 71
3, 286464, Note_on_c, 1, 60, 71
3, 286464, Note_on_c, 1, 64, 71
3, 286652, Note_off_c, 1, 60, 64
3, 286652, Note_off_c, 1, 64, 64
3, 286656, Note_on_c, 1, 65, 71
3, 286656, Note_on_c, 1, 65, 71
3, 286844, Note_off_c, 1, 65, 64
3, 287228, Note_off_c, 1, 57, 64
3, 287232, Note_on_c, 1, 58, 71
3, 287612, Note_off_c, 1, 65, 64
3, 287616, Note_on_c, 1, 67, 71
3, 287804, Note_off_c, 1, 67, 64
3, 287808, Note_on_c, 1, 65, 71
3, 287996, Note_off_c, 1, 58, 64
3, 287996, Note_off_c, 1, 65, 64
3, 288000, Note_on_c, 1, 60, 71
3, 288000, Note_on_c, 1, 64, 71
3, 288188, Note_off_c, 1, 64, 64
3, 288192, Note_on_c, 1, 67, 71
3, 288380, Note_off_c, 1, 67, 64
3, 288764, Note_off_c, 1, 60, 64
3, 288768, Note_on_c, 1, 62, 71
3, 288768, Note_on_c, 1, 64, 71
3, 289148, Note_off_c, 1, 64, 64
3, 289152, Note_on_c, 1, 65, 71
3, 289532, Note_off_c, 1, 62, 64
3, 289532, Note_off_c, 1, 65, 64
3, 289536, Note_on_c, 1, 57, 71
3, 289920, Note_on_c, 1, 69, 71
3, 289920, Note_on_c, 1, 60, 71
3, 290108, Note_off_c, 1, 69, 64
3, 290112, Note_on_c, 1, 65, 71
3, 290300, Note_off_c, 1, 57, 64
3, 290300, Note_off_c, 1, 60, 64
3, 290300, Note_off_c, 1, 65, 64
3, 290304, Note_on_c, 1, 58, 71
3, 290496, Note_on_c, 1, 62, 71
3, 290684, Note_off_c, 1, 62, 64
3, 290688, Note_on_c, 1, 67, 71
3, 290876, Note_off_c, 1, 67, 64
3, 290880, Note_on_c, 1, 65, 71
3, 291068, Note_off_c, 1, 58, 64
3, 291068, Note_off_c, 1, 65, 64
3, 291072, Note_on_c, 1, 64, 71
3, 291072, Note_on_c, 1, 60, 71
3, 291260, Note_off_c, 1, 64, 64
3, 291264, Note_on_c, 1, 67, 71
3, 291452, Note_off_c, 1, 67, 64
3, 291456, Note_on_c, 1, 64, 71
3, 291836, Note_off_c, 1, 60, 64
3, 291840, Note_on_c, 1, 62, 71
3, 292028, Note_off_c, 1, 64, 64
3, 292032, Note_on_c, 1, 67, 71
3, 292220, Note_off_c, 1, 67, 64
3, 292224, Note_on_c, 1, 65, 71
3, 292604, Note_off_c, 1, 62, 64
3, 292604, Note_off_c, 1, 65, 64
3, 292608, Note_on_c, 1, 57, 71
3, 292608, Note_on_c, 1, 45, 71
3, 292608, Note_on_c, 1, 53, 71
3, 293372, Note_off_c, 1, 57, 64
3, 293372, Note_off_c, 1, 45, 64
3, 293376, Note_on_c, 1, 55, 71
3, 293376, Note_on_c, 1, 46, 71
3, 294140, Note_off_c, 1, 53, 64
3, 294140, Note_off_c, 1, 55, 64
3, 294140, Note_off_c, 1, 46, 64
3, 294144, Note_on_c, 1, 58, 71
3, 294144, Note_on_c, 1, 55, 71
3, 294144, Note_on_c, 1, 48, 71
3, 294908, Note_off_c, 1, 58, 64
3, 294908, Note_off_c, 1, 55, 64
3, 294908, Note_off_c, 1, 48, 64
3, 294912, Note_on_c, 1, 53, 71
3, 294912, Note_on_c, 1, 41, 76
3, 295292, Note_off_c, 1, 53, 64
3, 295292, Note_off_c, 1, 41, 64
3, 305664, Note_on_c, 1, 65, 78
3, 305664, Note_on_c, 1, 53, 75
3, 306428, Note_off_c, 1, 65, 64
3, 306428, Note_off_c, 1, 53, 64
3, 306432, Note_on_c, 1, 58, 75
3, 306432, Note_on_c, 1, 46, 75
3, 307196, Note_off_c, 1, 58, 64
3, 307196, Note_off_c, 1, 46, 64
3, 307200, Note_on_c, 1, 60, 77
3, 307200, Note_on_c, 1, 48, 75
3, 307964, Note_off_c, 1, 60, 64
3, 307964, Note_off_c, 1, 48, 64
3, 307968, Note_on_c, 1, 53, 75
3, 307968, Note_on_c, 1, 41, 75
3, 308732, Note_off_c, 1, 53, 64
3, 308732, Note_off_c, 1, 41, 64
3, 308736, Note_on_c, 1, 46, 75
3, 309116, Note_off_c, 1, 46, 64
3, 309120, Note_on_c, 1, 58, 75
3, 309500, Note_off_c, 1, 58, 64
3, 309504, Note_on_c, 1, 60, 75
3, 309884, Note_off_c, 1, 60, 64
3, 309888, Note_on_c, 1, 48, 75
3, 310268, Note_off_c, 1, 48, 64
3, 310272, Note_on_c, 1, 53, 75
3, 310652, Note_off_c, 1, 53, 64
3, 311616, Note_on_c, 1, 36, 77
3, 311676, Note_off_c, 1, 36, 64
3, 311680, Note_on_c, 1, 38, 76
3, 311740, Note_off_c, 1, 38, 64
3, 311744, Note_on_c, 1, 40, 75
3, 311804, Note_off_c, 1, 40, 64
3, 311808, Note_on_c, 1, 41, 74
3, 312572, Note_off_c, 1, 41, 64
3, 313344, Note_on_c, 1, 50, 93
3, 313344, Note_on_c, 1, 38, 93
3, 313724, Note_off_c, 1, 50, 64
3, 313724, Note_off_c, 1, 38, 64
3, 313920, Note_on_c, 1, 33, 93
3, 313980, Note_off_c, 1, 33, 64
3, 313984, Note_on_c, 1, 35, 93
3, 314044, Note_off_c, 1, 35, 64
3, 314048, Note_on_c, 1, 37, 93
3, 314108, Note_off_c, 1, 37, 64
3, 314112, Note_on_c, 1, 38, 93
3, 314492, Note_off_c, 1, 38, 64
3, 314688, Note_on_c, 1, 33, 93
3, 314748, Note_off_c, 1, 33, 64
3, 314752, Note_on_c, 1, 35, 93
3, 314812, Note_off_c, 1, 35, 64
3, 314816, Note_on_c, 1, 37, 93
3, 314876, Note_off_c, 1, 37, 64
3, 314880, Note_on_c, 1, 38, 93
3, 315260, Note_off_c, 1, 38, 64
3, 327168, Note_on_c, 1, 31, 78
3, 327356, Note_off_c, 1, 31, 64
3, 327360, Note_on_c, 1, 33, 78
3, 327548, Note_off_c, 1, 33, 64
3, 327552, Note_on_c, 1, 34, 78
3, 327740, Note_off_c, 1, 34, 64
3, 327744, Note_on_c, 1, 35, 78
3, 327932, Note_off_c, 1, 35, 64
3, 327936, Note_on_c, 1, 36, 78
3, 328124, Note_off_c, 1, 36, 64
3, 328128, Note_on_c, 1, 38, 78
3, 328316, Note_off_c, 1, 38, 64
3, 328320, Note_on_c, 1, 39, 78
3, 328508, Note_off_c, 1, 39, 64
3, 328512, Note_on_c, 1, 42, 78
3, 328700, Note_off_c, 1, 42, 64
3, 328704, Note_on_c, 1, 43, 78
3, 328892, Note_off_c, 1, 43, 64
3, 328896, Note_on_c, 1, 45, 78
3, 329084, Note_off_c, 1, 45, 64
3, 329088, Note_on_c, 1, 46, 78
3, 329276, Note_off_c, 1, 46, 64
3, 329280, Note_on_c, 1, 47, 78
3, 329468, Note_off_c, 1, 47, 64
3, 329472, Note_on_c, 1, 48, 78
3, 329660, Note_off_c, 1, 48, 64
3, 329664, Note_on_c, 1, 50, 78
3, 329852, Note_off_c, 1, 50, 64
3, 329856, Note_on_c, 1, 51, 78
3, 330044, Note_off_c, 1, 51, 64
3, 330048, Note_on_c, 1, 54, 78
3, 330236, Note_off_c, 1, 54, 64
3, 330240, Note_on_c, 1, 55, 78
3, 330620, Note_off_c, 1, 55, 64
3, 330624, Note_on_c, 1, 51, 78
3, 331004, Note_off_c, 1, 51, 64
3, 331008, Note_on_c, 1, 48, 78
3, 331388, Note_off_c, 1, 48, 64
3, 331392, Note_on_c, 1, 50, 78
3, 331772, Note_off_c, 1, 50, 64
3, 331776, Note_on_c, 1, 43, 78
3, 332156, Note_off_c, 1, 43, 64
3, 333120, Note_on_c, 1, 38, 78
3, 333180, Note_off_c, 1, 38, 64
3, 333184, Note_on_c, 1, 40, 77
3, 333244, Note_off_c, 1, 40, 64
3, 333248, Note_on_c, 1, 42, 76
3, 333308, Note_off_c, 1, 42, 64
3, 333312, Note_on_c, 1, 43, 75
3, 334076, Note_off_c, 1, 43, 64
3, 334848, Note_on_c, 1, 46, 93
3, 334848, Note_on_c, 1, 34, 99
3, 335228, Note_off_c, 1, 46, 64
3, 335228, Note_off_c, 1, 34, 64
3, 335424, Note_on_c, 1, 41, 97
3, 335484, Note_off_c, 1, 41, 64
3, 335488, Note_on_c, 1, 43, 96
3, 335548, Note_off_c, 1, 43, 64
3, 335552, Note_on_c, 1, 45, 95
3, 335612, Note_off_c, 1, 45, 64
3, 335616, Note_on_c, 1, 46, 93
3, 335616, Note_on_c, 1, 34, 99
3, 335996, Note_off_c, 1, 46, 64
3, 335996, Note_off_c, 1, 34, 64
3, 336192, Note_on_c, 1, 41, 96
3, 336256, Note_off_c, 1, 41, 64
3, 336256, Note_on_c, 1, 43, 95
3, 336320, Note_off_c, 1, 43, 64
3, 336320, Note_on_c, 1, 45, 93
3, 336384, Note_off_c, 1, 45, 64
3, 336384, Note_on_c, 1, 46, 75
3, 336384, Note_on_c, 1, 34, 79
3, 336764, Note_off_c, 1, 46, 64
3, 336764, Note_off_c, 1, 34, 64
3, 336768, Note_on_c, 1, 50, 71
3, 336768, Note_on_c, 1, 46, 71
3, 337148, Note_off_c, 1, 50, 64
3, 337148, Note_off_c, 1, 46, 64
3, 337152, Note_on_c, 1, 51, 71
3, 337152, Note_on_c, 1, 48, 71
3, 337532, Note_off_c, 1, 51, 64
3, 337532, Note_off_c, 1, 48, 64
3, 337536, Note_on_c, 1, 53, 71
3, 337536, Note_on_c, 1, 50, 71
3, 337916, Note_off_c, 1, 53, 64
3, 337916, Note_off_c, 1, 50, 64
3, 337920, Note_on_c, 1, 55, 71
3, 337920, Note_on_c, 1, 51, 71
3, 338300, Note_off_c, 1, 55, 64
3, 338300, Note_off_c, 1, 51, 64
3, 350208, Note_on_c, 1, 51, 75
3, 350300, Note_off_c, 1, 51, 64
3, 350304, Note_on_c, 1, 63, 75
3, 350396, Note_off_c, 1, 63, 64
3, 350400, Note_on_c, 1, 51, 75
3, 350492, Note_off_c, 1, 51, 64
3, 350496, Note_on_c, 1, 63, 75
3, 350588, Note_off_c, 1, 63, 64
3, 350592, Note_on_c, 1, 50, 75
3, 350684, Note_off_c, 1, 50, 64
3, 350688, Note_on_c, 1, 62, 75
3, 350780, Note_off_c, 1, 62, 64
3, 350784, Note_on_c, 1, 48, 75
3, 350876, Note_off_c, 1, 48, 64
3, 350880, Note_on_c, 1, 60, 75
3, 350972, Note_off_c, 1, 60, 64
3, 350976, Note_on_c, 1, 46, 75
3, 351068, Note_off_c, 1, 46, 64
3, 351072, Note_on_c, 1, 58, 75
3, 351164, Note_off_c, 1, 58, 64
3, 351168, Note_on_c, 1, 44, 75
3, 351260, Note_off_c, 1, 44, 64
3, 351264, Note_on_c, 1, 56, 75
3, 351356, Note_off_c, 1, 56, 64
3, 351360, Note_on_c, 1, 45, 75
3, 351452, Note_off_c, 1, 45, 64
3, 351456, Note_on_c, 1, 55, 75
3, 351548, Note_off_c, 1, 55, 64
3, 351552, Note_on_c, 1, 41, 75
3, 351644, Note_off_c, 1, 41, 64
3, 351648, Note_on_c, 1, 53, 75
3, 351740, Note_off_c, 1, 53, 64
3, 351744, Note_on_c, 1, 39, 75
3, 351836, Note_off_c, 1, 39, 64
3, 351840, Note_on_c, 1, 51, 75
3, 351932, Note_off_c, 1, 51, 64
3, 351936, Note_on_c, 1, 50, 75
3, 352028, Note_off_c, 1, 50, 64
3, 352032, Note_on_c, 1, 51, 75
3, 352124, Note_off_c, 1, 51, 64
3, 352128, Note_on_c, 1, 36, 75
3, 352220, Note_off_c, 1, 36, 64
3, 352224, Note_on_c, 1, 48, 75
3, 352316, Note_off_c, 1, 48, 64
3, 352320, Note_on_c, 1, 46, 75
3, 352412, Note_off_c, 1, 46, 64
3, 352416, Note_on_c, 1, 48, 75
3, 352508, Note_off_c, 1, 48, 64
3, 352512, Note_on_c, 1, 32, 75
3, 352604, Note_off_c, 1, 32, 64
3, 352608, Note_on_c, 1, 44, 75
3, 352700, Note_off_c, 1, 44, 64
3, 352704, Note_on_c, 1, 43, 75
3, 352796, Note_off_c, 1, 43, 64
3, 352800, Note_on_c, 1, 44, 75
3, 352892, Note_off_c, 1, 44, 64
3, 352896, Note_on_c, 1, 34, 75
3, 352976, Note_on_c, 1, 46, 75
3, 352988, Note_off_c, 1, 34, 64
3, 353068, Note_off_c, 1, 46, 64
3, 353088, Note_on_c, 1, 44, 75
3, 353180, Note_off_c, 1, 44, 64
3, 353184, Note_on_c, 1, 46, 75
3, 353276, Note_off_c, 1, 46, 64
3, 353280, Note_on_c, 1, 39, 75
3, 353376, Note_on_c, 1, 51, 75
3, 353468, Note_off_c, 1, 51, 64
3, 353472, Note_on_c, 1, 55, 75
3, 353564, Note_off_c, 1, 55, 64
3, 353568, Note_on_c, 1, 58, 75
3, 353660, Note_off_c, 1, 58, 64
3, 355580, Note_off_c, 1, 39, 64
3, 355584, Note_on_c, 1, 51, 75
3, 355584, Note_on_c, 1, 39, 81
3, 355964, Note_off_c, 1, 51, 64
3, 355964, Note_off_c, 1, 39, 64
3, 355968, Note_on_c, 1, 49, 73
3, 355968, Note_on_c, 1, 37, 81
3, 356348, Note_off_c, 1, 49, 64
3, 356348, Note_off_c, 1, 37, 64
3, 356352, Note_on_c, 1, 48, 73
3, 356352, Note_on_c, 1, 36, 81
3, 358272, Note_on_c, 1, 55, 71
3, 358364, Note_off_c, 1, 55, 64
3, 358368, Note_on_c, 1, 58, 72
3, 358460, Note_off_c, 1, 58, 64
3, 358464, Note_on_c, 1, 53, 72
3, 358556, Note_off_c, 1, 53, 64
3, 358560, Note_on_c, 1, 58, 71
3, 358652, Note_off_c, 1, 36, 64
3, 358652, Note_off_c, 1, 48, 64
3, 358652, Note_off_c, 1, 58, 64
3, 358656, Note_on_c, 1, 52, 71
3, 358748, Note_off_c, 1, 52, 64
3, 358752, Note_on_c, 1, 55, 73
3, 358844, Note_off_c, 1, 55, 64
3, 358848, Note_on_c, 1, 58, 73
3, 358940, Note_off_c, 1, 58, 64
3, 358944, Note_on_c, 1, 61, 73
3, 359036, Note_off_c, 1, 61, 64
3, 359040, Note_on_c, 1, 60, 73
3, 359132, Note_off_c, 1, 60, 64
3, 359136, Note_on_c, 1, 58, 73
3, 359228, Note_off_c, 1, 58, 64
3, 359232, Note_on_c, 1, 56, 74
3, 359324, Note_off_c, 1, 56, 64
3, 359328, Note_on_c, 1, 55, 75
3, 359420, Note_off_c, 1, 55, 64
3, 359424, Note_on_c, 1, 41, 73
3, 359424, Note_on_c, 1, 29, 84
3, 359520, Note_on_c, 1, 53, 73
3, 359612, Note_off_c, 1, 53, 64
3, 359616, Note_on_c, 1, 56, 74
3, 359708, Note_off_c, 1, 56, 64
3, 359712, Note_on_c, 1, 60, 75
3, 359804, Note_off_c, 1, 60, 64
3, 361724, Note_off_c, 1, 29, 64
3, 361724, Note_off_c, 1, 41, 64
3, 361728, Note_on_c, 1, 53, 73
3, 361728, Note_on_c, 1, 41, 84
3, 362108, Note_off_c, 1, 53, 64
3, 362108, Note_off_c, 1, 41, 64
3, 362112, Note_on_c, 1, 51, 71
3, 362112, Note_on_c, 1, 39, 82
3, 362492, Note_off_c, 1, 51, 64
3, 362492, Note_off_c, 1, 39, 64
3, 362496, Note_on_c, 1, 50, 73
3, 362496, Note_on_c, 1, 38, 84
3, 364416, Note_on_c, 1, 57, 73
3, 364496, Note_on_c, 1, 60, 73
3, 364508, Note_off_c, 1, 57, 64
3, 364588, Note_off_c, 1, 60, 64
3, 364608, Note_on_c, 1, 55, 73
3, 364700, Note_off_c, 1, 55, 64
3, 364704, Note_on_c, 1, 60, 73
3, 364796, Note_off_c, 1, 38, 64
3, 364796, Note_off_c, 1, 50, 64
3, 364796, Note_off_c, 1, 60, 64
3, 364800, Note_on_c, 1, 54, 75
3, 364892, Note_off_c, 1, 54, 64
3, 364896, Note_on_c, 1, 57, 75
3, 364988, Note_off_c, 1, 57, 64
3, 364992, Note_on_c, 1, 60, 75
3, 365084, Note_off_c, 1, 60, 64
3, 365088, Note_on_c, 1, 63, 75
3, 365180, Note_off_c, 1, 63, 64
3, 365184, Note_on_c, 1, 62, 75
3, 365276, Note_off_c, 1, 62, 64
3, 365280, Note_on_c, 1, 60, 75
3, 365372, Note_off_c, 1, 60, 64
3, 365376, Note_on_c, 1, 58, 75
3, 365468, Note_off_c, 1, 58, 64
3, 365472, Note_on_c, 1, 57, 75
3, 365564, Note_off_c, 1, 57, 64
3, 365568, Note_on_c, 1, 43, 75
3, 365568, Note_on_c, 1, 31, 84
3, 365664, Note_on_c, 1, 55, 73
3, 365756, Note_off_c, 1, 55, 64
3, 365760, Note_on_c, 1, 58, 74
3, 365852, Note_off_c, 1, 58, 64
3, 365856, Note_on_c, 1, 62, 75
3, 365948, Note_off_c, 1, 62, 64
3, 367868, Note_off_c, 1, 31, 64
3, 367868, Note_off_c, 1, 43, 64
3, 367872, Note_on_c, 1, 55, 75
3, 367872, Note_on_c, 1, 43, 74
3, 368252, Note_off_c, 1, 55, 64
3, 368252, Note_off_c, 1, 43, 64
3, 368256, Note_on_c, 1, 53, 75
3, 368256, Note_on_c, 1, 41, 75
3, 368636, Note_off_c, 1, 53, 64
3, 368636, Note_off_c, 1, 41, 64
3, 368640, Note_on_c, 1, 52, 75
3, 368640, Note_on_c, 1, 40, 84
3, 370940, Note_off_c, 1, 40, 64
3, 370940, Note_off_c, 1, 52, 64
3, 371808, Note_on_c, 1, 33, 82
3, 371900, Note_off_c, 1, 33, 64
3, 371904, Note_on_c, 1, 37, 81
3, 371996, Note_off_c, 1, 37, 64
3, 372000, Note_on_c, 1, 40, 79
3, 372092, Note_off_c, 1, 40, 64
3, 372096, Note_on_c, 1, 45, 81
3, 372188, Note_off_c, 1, 45, 64
3, 372192, Note_on_c, 1, 36, 79
3, 372284, Note_off_c, 1, 36, 64
3, 372288, Note_on_c, 1, 40, 78
3, 372380, Note_off_c, 1, 40, 64
3, 372384, Note_on_c, 1, 45, 77
3, 372476, Note_off_c, 1, 45, 64
3, 372480, Note_on_c, 1, 49, 75
3, 372572, Note_off_c, 1, 49, 64
3, 372576, Note_on_c, 1, 40, 81
3, 372668, Note_off_c, 1, 40, 64
3, 372672, Note_on_c, 1, 45, 79
3, 372764, Note_off_c, 1, 45, 64
3, 372768, Note_on_c, 1, 49, 78
3, 372860, Note_off_c, 1, 49, 64
3, 372864, Note_on_c, 1, 52, 78
3, 372944, Note_on_c, 1, 45, 81
3, 372956, Note_off_c, 1, 52, 64
3, 373036, Note_off_c, 1, 45, 64
3, 373056, Note_on_c, 1, 49, 78
3, 373148, Note_off_c, 1, 49, 64
3, 373152, Note_on_c, 1, 52, 77
3, 373244, Note_off_c, 1, 52, 64
3, 373248, Note_on_c, 1, 57, 75
3, 373628, Note_off_c, 1, 57, 64
3, 374880, Note_on_c, 1, 33, 84
3, 374972, Note_off_c, 1, 33, 64
3, 374976, Note_on_c, 1, 38, 82
3, 375068, Note_off_c, 1, 38, 64
3, 375072, Note_on_c, 1, 41, 81
3, 375164, Note_off_c, 1, 41, 64
3, 375168, Note_on_c, 1, 45, 79
3, 375260, Note_off_c, 1, 45, 64
3, 375264, Note_on_c, 1, 38, 84
3, 375356, Note_off_c, 1, 38, 64
3, 375360, Note_on_c, 1, 41, 83
3, 375452, Note_off_c, 1, 41, 64
3, 375456, Note_on_c, 1, 45, 82
3, 375548, Note_off_c, 1, 45, 64
3, 375552, Note_on_c, 1, 50, 81
3, 375644, Note_off_c, 1, 50, 64
3, 375648, Note_on_c, 1, 41, 83
3, 375740, Note_off_c, 1, 41, 64
3, 375744, Note_on_c, 1, 45, 82
3, 375836, Note_off_c, 1, 45, 64
3, 375840, Note_on_c, 1, 50, 81
3, 375932, Note_off_c, 1, 50, 64
3, 375936, Note_on_c, 1, 53, 79
3, 376028, Note_off_c, 1, 53, 64
3, 376032, Note_on_c, 1, 45, 81
3, 376124, Note_off_c, 1, 45, 64
3, 376128, Note_on_c, 1, 50, 79
3, 376220, Note_off_c, 1, 50, 64
3, 376224, Note_on_c, 1, 53, 77
3, 376316, Note_off_c, 1, 53, 64
3, 376320, Note_on_c, 1, 57, 75
3, 376700, Note_off_c, 1, 57, 64
3, 377952, Note_on_c, 1, 34, 83
3, 378044, Note_off_c, 1, 34, 64
3, 378048, Note_on_c, 1, 38, 82
3, 378140, Note_off_c, 1, 38, 64
3, 378144, Note_on_c, 1, 41, 81
3, 378236, Note_off_c, 1, 41, 64
3, 378240, Note_on_c, 1, 46, 79
3, 378332, Note_off_c, 1, 46, 64
3, 378336, Note_on_c, 1, 38, 78
3, 378428, Note_off_c, 1, 38, 64
3, 378432, Note_on_c, 1, 41, 77
3, 378524, Note_off_c, 1, 41, 64
3, 378528, Note_on_c, 1, 46, 76
3, 378620, Note_off_c, 1, 46, 64
3, 378624, Note_on_c, 1, 50, 75
3, 378716, Note_off_c, 1, 50, 64
3, 378720, Note_on_c, 1, 41, 75
3, 378812, Note_off_c, 1, 41, 64
3, 378816, Note_on_c, 1, 46, 75
3, 378908, Note_off_c, 1, 46, 64
3, 378912, Note_on_c, 1, 50, 75
3, 379004, Note_off_c, 1, 50, 64
3, 379008, Note_on_c, 1, 53, 75
3, 379100, Note_off_c, 1, 53, 64
3, 379104, Note_on_c, 1, 46, 75
3, 379196, Note_off_c, 1, 46, 64
3, 379200, Note_on_c, 1, 50, 75
3, 379292, Note_off_c, 1, 50, 64
3, 379296, Note_on_c, 1, 53, 75
3, 379388, Note_off_c, 1, 53, 64
3, 379392, Note_on_c, 1, 58, 75
3, 379772, Note_off_c, 1, 58, 64
3, 380928, Note_on_c, 1, 57, 75
3, 380928, Note_on_c, 1, 52, 75
3, 380928, Note_on_c, 1, 49, 75
3, 380928, Note_on_c, 1, 45, 75
3, 381308, Note_off_c, 1, 57, 64
3, 381308, Note_off_c, 1, 52, 64
3, 381308, Note_off_c, 1, 49, 64
3, 381308, Note_off_c, 1, 45, 64
3, 381696, Note_on_c, 1, 57, 75
3, 381696, Note_on_c, 1, 53, 75
3, 381696, Note_on_c, 1, 50, 75
3, 381696, Note_on_c, 1, 45, 75
3, 382076, Note_off_c, 1, 57, 64
3, 382076, Note_off_c, 1, 53, 64
3, 382076, Note_off_c, 1, 50, 64
3, 382076, Note_off_c, 1, 45, 64
3, 382464, Note_on_c, 1, 45, 76
3, 382464, Note_on_c, 1, 40, 78
3, 382464, Note_on_c, 1, 37, 81
3, 382464, Note_on_c, 1, 33, 83
3, 382844, Note_off_c, 1, 45, 64
3, 382844, Note_off_c, 1, 40, 64
3, 382844, Note_off_c, 1, 37, 64
3, 382844, Note_off_c, 1, 33, 64
3, 383232, Note_on_c, 1, 45, 76
3, 383232, Note_on_c, 1, 41, 78
3, 383232, Note_on_c, 1, 38, 81
3, 383232, Note_on_c, 1, 33, 83
3, 383612, Note_off_c, 1, 45, 64
3, 383612, Note_off_c, 1, 41, 64
3, 383612, Note_off_c, 1, 38, 64
3, 383612, Note_off_c, 1, 33, 64
3, 383616, Note_on_c, 1, 62, 77
3, 383708, Note_off_c, 1, 62, 64
3, 383712, Note_on_c, 1, 57, 76
3, 383804, Note_off_c, 1, 57, 64
3, 383808, Note_on_c, 1, 53, 75
3, 383900, Note_off_c, 1, 53, 64
3, 383904, Note_on_c, 1, 50, 75
3, 383996, Note_off_c, 1, 50, 64
3, 384000, Note_on_c, 1, 57, 75
3, 384000, Note_on_c, 1, 49, 75
3, 384000, Note_on_c, 1, 33, 83
3, 384092, Note_off_c, 1, 33, 64
3, 384096, Note_on_c, 1, 45, 75
3, 384188, Note_off_c, 1, 45, 64
3, 384192, Note_on_c, 1, 33, 83
3, 384284, Note_off_c, 1, 33, 64
3, 384288, Note_on_c, 1, 45, 75
3, 384380, Note_off_c, 1, 45, 64
3, 384384, Note_on_c, 1, 33, 83
3, 384476, Note_off_c, 1, 33, 64
3, 384480, Note_on_c, 1, 45, 75
3, 384572, Note_off_c, 1, 57, 64
3, 384572, Note_off_c, 1, 49, 64
3, 384572, Note_off_c, 1, 45, 64
3, 384576, Note_on_c, 1, 56, 75
3, 384576, Note_on_c, 1, 50, 75
3, 384576, Note_on_c, 1, 34, 82
3, 384668, Note_off_c, 1, 34, 64
3, 384672, Note_on_c, 1, 46, 75
3, 384764, Note_off_c, 1, 56, 64
3, 384764, Note_off_c, 1, 50, 64
3, 384764, Note_off_c, 1, 46, 64
3, 384768, Note_on_c, 1, 57, 75
3, 384768, Note_on_c, 1, 49, 75
3, 384768, Note_on_c, 1, 33, 83
3, 384860, Note_off_c, 1, 33, 64
3, 384864, Note_on_c, 1, 45, 75
3, 384956, Note_off_c, 1, 57, 64
3, 384956, Note_off_c, 1, 49, 64
3, 384956, Note_off_c, 1, 45, 64
3, 384960, Note_on_c, 1, 56, 75
3, 384960, Note_on_c, 1, 50, 75
3, 384960, Note_on_c, 1, 34, 82
3, 385052, Note_off_c, 1, 34, 64
3, 385056, Note_on_c, 1, 46, 75
3, 385148, Note_off_c, 1, 56, 64
3, 385148, Note_off_c, 1, 50, 64
3, 385148, Note_off_c, 1, 46, 64
3, 385152, Note_on_c, 1, 57, 75
3, 385152, Note_on_c, 1, 49, 75
3, 385152, Note_on_c, 1, 33, 83
3, 385244, Note_off_c, 1, 33, 64
3, 385248, Note_on_c, 1, 45, 75
3, 385340, Note_off_c, 1, 57, 64
3, 385340, Note_off_c, 1, 49, 64
3, 385340, Note_off_c, 1, 45, 64
3, 385344, Note_on_c, 1, 56, 75
3, 385344, Note_on_c, 1, 50, 75
3, 385344, Note_on_c, 1, 34, 82
3, 385436, Note_off_c, 1, 34, 64
3, 385440, Note_on_c, 1, 46, 75
3, 385532, Note_off_c, 1, 56, 64
3, 385532, Note_off_c, 1, 50, 64
3, 385532, Note_off_c, 1, 46, 64
3, 385536, Note_on_c, 1, 57, 75
3, 385536, Note_on_c, 1, 49, 75
3, 385536, Note_on_c, 1, 33, 83
3, 385628, Note_off_c, 1, 33, 64
3, 385632, Note_on_c, 1, 45, 75
3, 385724, Note_off_c, 1, 45, 64
3, 385728, Note_on_c, 1, 33, 83
3, 385820, Note_off_c, 1, 33, 64
3, 385824, Note_on_c, 1, 45, 75
3, 385916, Note_off_c, 1, 45, 64
3, 385920, Note_on_c, 1, 33, 83
3, 386012, Note_off_c, 1, 33, 64
3, 386016, Note_on_c, 1, 45, 75
3, 386108, Note_off_c, 1, 57, 64
3, 386108, Note_off_c, 1, 49, 64
3, 386108, Note_off_c, 1, 45, 64
3, 386112, Note_on_c, 1, 34, 82
3, 386112, Note_on_c, 1, 56, 75
3, 386112, Note_on_c, 1, 50, 75
3, 386204, Note_off_c, 1, 34, 64
3, 386204, Note_off_c, 1, 56, 64
3, 386204, Note_off_c, 1, 50, 64
3, 386208, Note_on_c, 1, 46, 75
3, 386300, Note_off_c, 1, 46, 64
3, 386304, Note_on_c, 1, 33, 83
3, 386304, Note_on_c, 1, 57, 75
3, 386304, Note_on_c, 1, 49, 75
3, 386396, Note_off_c, 1, 33, 64
3, 386396, Note_off_c, 1, 57, 64
3, 386396, Note_off_c, 1, 49, 64
3, 386400, Note_on_c, 1, 45, 75
3, 386492, Note_off_c, 1, 45, 64
3, 386496, Note_on_c, 1, 34, 82
3, 386496, Note_on_c, 1, 56, 75
3, 386496, Note_on_c, 1, 50, 75
3, 386588, Note_off_c, 1, 34, 64
3, 386588, Note_off_c, 1, 56, 64
3, 386588, Note_off_c, 1, 50, 64
3, 386592, Note_on_c, 1, 46, 75
3, 386684, Note_off_c, 1, 46, 64
3, 386688, Note_on_c, 1, 33, 83
3, 386688, Note_on_c, 1, 57, 75
3, 386688, Note_on_c, 1, 49, 75
3, 386780, Note_off_c, 1, 33, 64
3, 386780, Note_off_c, 1, 57, 64
3, 386780, Note_off_c, 1, 49, 64
3, 386784, Note_on_c, 1, 45, 75
3, 386876, Note_off_c, 1, 45, 64
3, 386880, Note_on_c, 1, 34, 82
3, 386880, Note_on_c, 1, 56, 75
3, 386880, Note_on_c, 1, 50, 75
3, 386972, Note_off_c, 1, 34, 64
3, 386972, Note_off_c, 1, 56, 64
3, 386972, Note_off_c, 1, 50, 64
3, 386976, Note_on_c, 1, 46, 75
3, 387068, Note_off_c, 1, 46, 64
3, 387072, Note_on_c, 1, 57, 75
3, 387072, Note_on_c, 1, 49, 75
3, 387072, Note_on_c, 1, 45, 75
3, 387072, Note_on_c, 1, 33, 83
3, 387452, Note_off_c, 1, 57, 64
3, 387452, Note_off_c, 1, 49, 64
3, 387452, Note_off_c, 1, 45, 64
3, 387452, Note_off_c, 1, 33, 64
3, 387648, Note_on_c, 1, 54, 71
3, 387648, Note_on_c, 1, 42, 71
3, 387836, Note_off_c, 1, 54, 64
3, 387836, Note_off_c, 1, 42, 64
3, 387840, Note_on_c, 1, 55, 71
3, 387840, Note_on_c, 1, 43, 71
3, 388220, Note_off_c, 1, 55, 64
3, 388220, Note_off_c, 1, 43, 64
3, 388416, Note_on_c, 1, 56, 71
3, 388416, Note_on_c, 1, 44, 71
3, 388604, Note_off_c, 1, 56, 64
3, 388604, Note_off_c, 1, 44, 64
3, 388608, Note_on_c, 1, 57, 71
3, 388608, Note_on_c, 1, 45, 71
3, 388988, Note_off_c, 1, 57, 64
3, 388988, Note_off_c, 1, 45, 64
3, 389184, Note_on_c, 1, 45, 93
3, 389184, Note_on_c, 1, 33, 99
3, 389184, Note_on_c, 1, 57, 93
3, 389372, Note_off_c, 1, 45, 64
3, 389372, Note_off_c, 1, 33, 64
3, 389372, Note_off_c, 1, 57, 64
3, 389376, Note_on_c, 1, 58, 93
3, 389376, Note_on_c, 1, 46, 97
3, 389376, Note_on_c, 1, 34, 100
3, 389564, Note_off_c, 1, 58, 64
3, 389564, Note_off_c, 1, 46, 64
3, 389564, Note_off_c, 1, 34, 64
3, 389568, Note_on_c, 1, 47, 97
3, 389568, Note_on_c, 1, 35, 99
3, 389568, Note_on_c, 1, 59, 93
3, 389756, Note_off_c, 1, 47, 64
3, 389756, Note_off_c, 1, 35, 64
3, 389756, Note_off_c, 1, 59, 64
3, 389760, Note_on_c, 1, 48, 96
3, 389760, Note_on_c, 1, 36, 98
3, 389760, Note_on_c, 1, 60, 93
3, 389948, Note_off_c, 1, 48, 64
3, 389948, Note_off_c, 1, 36, 64
3, 389948, Note_off_c, 1, 60, 64
3, 389952, Note_on_c, 1, 49, 95
3, 389952, Note_on_c, 1, 37, 97
3, 389952, Note_on_c, 1, 61, 93
3, 390140, Note_off_c, 1, 49, 64
3, 390140, Note_off_c, 1, 37, 64
3, 390140, Note_off_c, 1, 61, 64
3, 390144, Note_on_c, 1, 62, 93
3, 390144, Note_on_c, 1, 50, 95
3, 390144, Note_on_c, 1, 38, 96
3, 390336, Note_on_c, 1, 62, 71
3, 390336, Note_on_c, 1, 57, 71
3, 390336, Note_on_c, 1, 53, 71
3, 390524, Note_off_c, 1, 62, 64
3, 390524, Note_off_c, 1, 50, 64
3, 390524, Note_off_c, 1, 38, 64
3, 390716, Note_off_c, 1, 62, 64
3, 390716, Note_off_c, 1, 57, 64
3, 390716, Note_off_c, 1, 53, 64
3, 390720, Note_on_c, 1, 62, 71
3, 390720, Note_on_c, 1, 57, 71
3, 390720, Note_on_c, 1, 53, 71
3, 391100, Note_off_c, 1, 62, 64
3, 391100, Note_off_c, 1, 57, 64
3, 391100, Note_off_c, 1, 53, 64
3, 391104, Note_on_c, 1, 62, 71
3, 391104, Note_on_c, 1, 57, 71
3, 391104, Note_on_c, 1, 53, 71
3, 391484, Note_off_c, 1, 62, 64
3, 391484, Note_off_c, 1, 57, 64
3, 391484, Note_off_c, 1, 53, 64
3, 391488, Note_on_c, 1, 62, 71
3, 391488, Note_on_c, 1, 57, 71
3, 391488, Note_on_c, 1, 53, 71
3, 391488, Note_on_c, 1, 33, 81
3, 391548, Note_off_c, 1, 33, 64
3, 391552, Note_on_c, 1, 35, 79
3, 391612, Note_off_c, 1, 35, 64
3, 391616, Note_on_c, 1, 37, 78
3, 391676, Note_off_c, 1, 37, 64
3, 391680, Note_on_c, 1, 38, 77
3, 391868, Note_off_c, 1, 53, 64
3, 391868, Note_off_c, 1, 57, 64
3, 391868, Note_off_c, 1, 62, 64
3, 391872, Note_on_c, 1, 62, 71
3, 391872, Note_on_c, 1, 57, 71
3, 391872, Note_on_c, 1, 53, 71
3, 392252, Note_off_c, 1, 62, 64
3, 392252, Note_off_c, 1, 57, 64
3, 392252, Note_off_c, 1, 53, 64
3, 392256, Note_on_c, 1, 57, 71
3, 392256, Note_on_c, 1, 53, 71
3, 392256, Note_on_c, 1, 62, 71
3, 392444, Note_off_c, 1, 38, 64
3, 392636, Note_off_c, 1, 57, 64
3, 392636, Note_off_c, 1, 53, 64
3, 392636, Note_off_c, 1, 62, 64
3, 392640, Note_on_c, 1, 62, 71
3, 392640, Note_on_c, 1, 57, 71
3, 392640, Note_on_c, 1, 53, 71
3, 393020, Note_off_c, 1, 62, 64
3, 393020, Note_off_c, 1, 57, 64
3, 393020, Note_off_c, 1, 53, 64
3, 393024, Note_on_c, 1, 62, 71
3, 393024, Note_on_c, 1, 57, 71
3, 393024, Note_on_c, 1, 53, 71
3, 393024, Note_on_c, 1, 33, 81
3, 393084, Note_off_c, 1, 33, 64
3, 393088, Note_on_c, 1, 35, 79
3, 393148, Note_off_c, 1, 35, 64
3, 393152, Note_on_c, 1, 37, 78
3, 393212, Note_off_c, 1, 37, 64
3, 393216, Note_on_c, 1, 38, 77
3, 393404, Note_off_c, 1, 53, 64
3, 393404, Note_off_c, 1, 57, 64
3, 393404, Note_off_c, 1, 62, 64
3, 393408, Note_on_c, 1, 57, 71
3, 393408, Note_on_c, 1, 53, 71
3, 393788, Note_off_c, 1, 57, 64
3, 393788, Note_off_c, 1, 53, 64
3, 393792, Note_on_c, 1, 57, 71
3, 393792, Note_on_c, 1, 50, 71
3, 393792, Note_on_c, 1, 65, 71
3, 393980, Note_off_c, 1, 38, 64
3, 394172, Note_off_c, 1, 57, 64
3, 394172, Note_off_c, 1, 50, 64
3, 394172, Note_off_c, 1, 65, 64
3, 394176, Note_on_c, 1, 52, 71
3, 394176, Note_on_c, 1, 57, 71
3, 394176, Note_on_c, 1, 64, 71
3, 394556, Note_off_c, 1, 52, 64
3, 394556, Note_off_c, 1, 57, 64
3, 394556, Note_off_c, 1, 64, 64
3, 394560, Note_on_c, 1, 53, 71
3, 394560, Note_on_c, 1, 57, 71
3, 394560, Note_on_c, 1, 33, 82
3, 394560, Note_on_c, 1, 62, 71
3, 394600, Note_off_c, 1, 33, 64
3, 394608, Note_on_c, 1, 35, 81
3, 394648, Note_off_c, 1, 35, 64
3, 394656, Note_on_c, 1, 37, 79
3, 394696, Note_off_c, 1, 37, 64
3, 394704, Note_on_c, 1, 38, 78
3, 394744, Note_off_c, 1, 38, 64
3, 394748, Note_off_c, 1, 53, 64
3, 394752, Note_on_c, 1, 55, 71
3, 394752, Note_on_c, 1, 40, 77
3, 394940, Note_off_c, 1, 57, 64
3, 394940, Note_off_c, 1, 62, 64
3, 394940, Note_off_c, 1, 55, 64
3, 394944, Note_on_c, 1, 61, 71
3, 394944, Note_on_c, 1, 57, 71
3, 394944, Note_on_c, 1, 55, 71
3, 395324, Note_off_c, 1, 61, 64
3, 395324, Note_off_c, 1, 57, 64
3, 395324, Note_off_c, 1, 55, 64
3, 395328, Note_on_c, 1, 61, 71
3, 395328, Note_on_c, 1, 55, 71
3, 395328, Note_on_c, 1, 57, 71
3, 395516, Note_off_c, 1, 40, 64
3, 395708, Note_off_c, 1, 61, 64
3, 395708, Note_off_c, 1, 55, 64
3, 395708, Note_off_c, 1, 57, 64
3, 395712, Note_on_c, 1, 57, 71
3, 395712, Note_on_c, 1, 55, 71
3, 395712, Note_on_c, 1, 61, 71
3, 396092, Note_off_c, 1, 57, 64
3, 396092, Note_off_c, 1, 55, 64
3, 396092, Note_off_c, 1, 61, 64
3, 396096, Note_on_c, 1, 57, 71
3, 396096, Note_on_c, 1, 55, 71
3, 396096, Note_on_c, 1, 63, 71
3, 396288, Note_on_c, 1, 49, 71
3, 396288, Note_on_c, 1, 37, 81
3, 396476, Note_off_c, 1, 55, 64
3, 396476, Note_off_c, 1, 57, 64
3, 396476, Note_off_c, 1, 63, 64
3, 396480, Note_on_c, 1, 64, 71
3, 396480, Note_on_c, 1, 57, 71
3, 396480, Note_on_c, 1, 55, 71
3, 396860, Note_off_c, 1, 64, 64
3, 396860, Note_off_c, 1, 57, 64
3, 396860, Note_off_c, 1, 55, 64
3, 396864, Note_on_c, 1, 57, 71
3, 396864, Note_on_c, 1, 64, 71
3, 396864, Note_on_c, 1, 55, 71
3, 397052, Note_off_c, 1, 49, 64
3, 397052, Note_off_c, 1, 37, 64
3, 397244, Note_off_c, 1, 57, 64
3, 397244, Note_off_c, 1, 64, 64
3, 397244, Note_off_c, 1, 55, 64
3, 397248, Note_on_c, 1, 64, 71
3, 397248, Note_on_c, 1, 57, 71
3, 397248, Note_on_c, 1, 55, 71
3, 397628, Note_off_c, 1, 64, 64
3, 397628, Note_off_c, 1, 57, 64
3, 397628, Note_off_c, 1, 55, 64
3, 397632, Note_on_c, 1, 57, 71
3, 397632, Note_on_c, 1, 55, 71
3, 397632, Note_on_c, 1, 64, 71
3, 397632, Note_on_c, 1, 45, 71
3, 397724, Note_off_c, 1, 45, 64
3, 397728, Note_on_c, 1, 47, 73
3, 397820, Note_off_c, 1, 47, 64
3, 397824, Note_on_c, 1, 49, 74
3, 397824, Note_on_c, 1, 37, 79
3, 398012, Note_off_c, 1, 55, 64
3, 398012, Note_off_c, 1, 57, 64
3, 398012, Note_off_c, 1, 64, 64
3, 398016, Note_on_c, 1, 64, 71
3, 398016, Note_on_c, 1, 57, 71
3, 398016, Note_on_c, 1, 55, 71
3, 398396, Note_off_c, 1, 64, 64
3, 398396, Note_off_c, 1, 57, 64
3, 398396, Note_off_c, 1, 55, 64
3, 398400, Note_on_c, 1, 57, 71
3, 398400, Note_on_c, 1, 55, 71
3, 398400, Note_on_c, 1, 64, 71
3, 398588, Note_off_c, 1, 49, 64
3, 398588, Note_off_c, 1, 37, 64
3, 398780, Note_off_c, 1, 57, 64
3, 398780, Note_off_c, 1, 55, 64
3, 398780, Note_off_c, 1, 64, 64
3, 398784, Note_on_c, 1, 57, 71
3, 398784, Note_on_c, 1, 55, 71
3, 398784, Note_on_c, 1, 64, 71
3, 399164, Note_off_c, 1, 57, 64
3, 399164, Note_off_c, 1, 55, 64
3, 399164, Note_off_c, 1, 64, 64
3, 399168, Note_on_c, 1, 64, 71
3, 399168, Note_on_c, 1, 57, 71
3, 399168, Note_on_c, 1, 55, 71
3, 399168, Note_on_c, 1, 45, 73
3, 399260, Note_off_c, 1, 45, 64
3, 399264, Note_on_c, 1, 47, 74
3, 399356, Note_off_c, 1, 47, 64
3, 399360, Note_on_c, 1, 49, 75
3, 399360, Note_on_c, 1, 37, 83
3, 399548, Note_off_c, 1, 55, 64
3, 399548, Note_off_c, 1, 57, 64
3, 399548, Note_off_c, 1, 64, 64
3, 399552, Note_on_c, 1, 57, 71
3, 399552, Note_on_c, 1, 57, 71
3, 399932, Note_off_c, 1, 57, 64
3, 399932, Note_off_c, 1, 57, 64
3, 399936, Note_on_c, 1, 67, 71
3, 399936, Note_on_c, 1, 52, 71
3, 399936, Note_on_c, 1, 57, 71
3, 400124, Note_off_c, 1, 49, 64
3, 400124, Note_off_c, 1, 37, 64
3, 400316, Note_off_c, 1, 67, 64
3, 400316, Note_off_c, 1, 52, 64
3, 400316, Note_off_c, 1, 57, 64
3, 400320, Note_on_c, 1, 65, 71
3, 400320, Note_on_c, 1, 57, 71
3, 400320, Note_on_c, 1, 53, 71
3, 400700, Note_off_c, 1, 65, 64
3, 400700, Note_off_c, 1, 57, 64
3, 400700, Note_off_c, 1, 53, 64
3, 400704, Note_on_c, 1, 64, 71
3, 400704, Note_on_c, 1, 57, 71
3, 400704, Note_on_c, 1, 55, 71
3, 400704, Note_on_c, 1, 45, 71
3, 400768, Note_off_c, 1, 45, 64
3, 400768, Note_on_c, 1, 47, 71
3, 400832, Note_off_c, 1, 47, 64
3, 400832, Note_on_c, 1, 49, 71
3, 400896, Note_off_c, 1, 55, 64
3, 400896, Note_off_c, 1, 49, 64
3, 400896, Note_on_c, 1, 50, 71
3, 400896, Note_on_c, 1, 38, 79
3, 400896, Note_on_c, 1, 53, 71
3, 401084, Note_off_c, 1, 57, 64
3, 401084, Note_off_c, 1, 64, 64
3, 401084, Note_off_c, 1, 53, 64
3, 401088, Note_on_c, 1, 53, 71
3, 401088, Note_on_c, 1, 62, 71
3, 401088, Note_on_c, 1, 57, 71
3, 401468, Note_off_c, 1, 53, 64
3, 401468, Note_off_c, 1, 62, 64
3, 401468, Note_off_c, 1, 57, 64
3, 401472, Note_on_c, 1, 57, 71
3, 401472, Note_on_c, 1, 53, 71
3, 401472, Note_on_c, 1, 62, 71
3, 401660, Note_off_c, 1, 50, 64
3, 401660, Note_off_c, 1, 38, 64
3, 401852, Note_off_c, 1, 57, 64
3, 401852, Note_off_c, 1, 53, 64
3, 401852, Note_off_c, 1, 62, 64
3, 401856, Note_on_c, 1, 62, 75
3, 401856, Note_on_c, 1, 57, 75
3, 401856, Note_on_c, 1, 53, 75
3, 402044, Note_off_c, 1, 62, 64
3, 402044, Note_off_c, 1, 57, 64
3, 402044, Note_off_c, 1, 53, 64
3, 402240, Note_on_c, 1, 50, 75
3, 402300, Note_off_c, 1, 50, 64
3, 402304, Note_on_c, 1, 52, 75
3, 402364, Note_off_c, 1, 52, 64
3, 402368, Note_on_c, 1, 53, 75
3, 402428, Note_off_c, 1, 53, 64
3, 402432, Note_on_c, 1, 55, 75
3, 402812, Note_off_c, 1, 55, 64
3, 403008, Note_on_c, 1, 52, 75
3, 403068, Note_off_c, 1, 52, 64
3, 403072, Note_on_c, 1, 53, 75
3, 403132, Note_off_c, 1, 53, 64
3, 403136, Note_on_c, 1, 55, 75
3, 403196, Note_off_c, 1, 55, 64
3, 403200, Note_on_c, 1, 57, 75
3, 403580, Note_off_c, 1, 57, 64
3, 403776, Note_on_c, 1, 54, 75
3, 403836, Note_off_c, 1, 54, 64
3, 403840, Note_on_c, 1, 55, 75
3, 403900, Note_off_c, 1, 55, 64
3, 403904, Note_on_c, 1, 57, 75
3, 403964, Note_off_c, 1, 57, 64
3, 403968, Note_on_c, 1, 58, 75
3, 404732, Note_off_c, 1, 58, 64
3, 405312, Note_on_c, 1, 52, 75
3, 405372, Note_off_c, 1, 52, 64
3, 405376, Note_on_c, 1, 53, 75
3, 405436, Note_off_c, 1, 53, 64
3, 405440, Note_on_c, 1, 55, 75
3, 405500, Note_off_c, 1, 55, 64
3, 405504, Note_on_c, 1, 57, 75
3, 405884, Note_off_c, 1, 57, 64
3, 406080, Note_on_c, 1, 54, 75
3, 406140, Note_off_c, 1, 54, 64
3, 406144, Note_on_c, 1, 55, 75
3, 406204, Note_off_c, 1, 55, 64
3, 406208, Note_on_c, 1, 57, 75
3, 406268, Note_off_c, 1, 57, 64
3, 406272, Note_on_c, 1, 58, 75
3, 406652, Note_off_c, 1, 58, 64
3, 406848, Note_on_c, 1, 56, 75
3, 406908, Note_off_c, 1, 56, 64
3, 406912, Note_on_c, 1, 57, 75
3, 406972, Note_off_c, 1, 57, 64
3, 406976, Note_on_c, 1, 59, 75
3, 407036, Note_off_c, 1, 59, 64
3, 407040, Note_on_c, 1, 60, 75
3, 407804, Note_off_c, 1, 60, 64
3, 408384, Note_on_c, 1, 57, 75
3, 408444, Note_off_c, 1, 57, 64
3, 408448, Note_on_c, 1, 59, 75
3, 408508, Note_off_c, 1, 59, 64
3, 408512, Note_on_c, 1, 60, 75
3, 408572, Note_off_c, 1, 60, 64
3, 408576, Note_on_c, 1, 62, 75
3, 408956, Note_off_c, 1, 62, 64
3, 409152, Note_on_c, 1, 59, 75
3, 409212, Note_off_c, 1, 59, 64
3, 409216, Note_on_c, 1, 60, 75
3, 409276, Note_off_c, 1, 60, 64
3, 409280, Note_on_c, 1, 62, 75
3, 409340, Note_off_c, 1, 62, 64
3, 409344, Note_on_c, 1, 64, 75
3, 409724, Note_off_c, 1, 64, 64
3, 409920, Note_on_c, 1, 61, 75
3, 409980, Note_off_c, 1, 61, 64
3, 409984, Note_on_c, 1, 62, 75
3, 410044, Note_off_c, 1, 62, 64
3, 410048, Note_on_c, 1, 64, 75
3, 410108, Note_off_c, 1, 64, 64
3, 410112, Note_on_c, 1, 65, 75
3, 410492, Note_off_c, 1, 65, 64
3, 410496, Note_on_c, 1, 53, 75
3, 410876, Note_off_c, 1, 53, 64
3, 410880, Note_on_c, 1, 55, 75
3, 411260, Note_off_c, 1, 55, 64
3, 411264, Note_on_c, 1, 55, 75
3, 411644, Note_off_c, 1, 55, 64
3, 411648, Note_on_c, 1, 57, 75
3, 412028, Note_off_c, 1, 57, 64
3, 412032, Note_on_c, 1, 57, 75
3, 412412, Note_off_c, 1, 57, 64
3, 412416, Note_on_c, 1, 45, 75
3, 412796, Note_off_c, 1, 45, 64
3, 412800, Note_on_c, 1, 45, 75
3, 413180, Note_off_c, 1, 45, 64
3, 413184, Note_on_c, 1, 50, 75
3, 413564, Note_off_c, 1, 50, 64
3, 413568, Note_on_c, 1, 53, 93
3, 413660, Note_off_c, 1, 53, 64
3, 413664, Note_on_c, 1, 57, 93
3, 413756, Note_off_c, 1, 57, 64
3, 413760, Note_on_c, 1, 53, 93
3, 413824, Note_on_c, 1, 57, 93
3, 413852, Note_off_c, 1, 53, 64
3, 413916, Note_off_c, 1, 57, 64
3, 413952, Note_on_c, 1, 53, 93
3, 414044, Note_off_c, 1, 53, 64
3, 414048, Note_on_c, 1, 57, 93
3, 414140, Note_off_c, 1, 57, 64
3, 414144, Note_on_c, 1, 53, 93
3, 414236, Note_off_c, 1, 53, 64
3, 414240, Note_on_c, 1, 57, 93
3, 414332, Note_off_c, 1, 57, 64
3, 414336, Note_on_c, 1, 53, 93
3, 414428, Note_off_c, 1, 53, 64
3, 414432, Note_on_c, 1, 57, 93
3, 414524, Note_off_c, 1, 57, 64
3, 414528, Note_on_c, 1, 45, 93
3, 414528, Note_on_c, 1, 53, 93
3, 414592, Note_off_c, 1, 45, 64
3, 414592, Note_on_c, 1, 47, 93
3, 414620, Note_off_c, 1, 53, 64
3, 414624, Note_on_c, 1, 57, 93
3, 414656, Note_off_c, 1, 47, 64
3, 414656, Note_on_c, 1, 49, 93
3, 414716, Note_off_c, 1, 57, 64
3, 414720, Note_off_c, 1, 49, 64
3, 414720, Note_on_c, 1, 50, 93
3, 414720, Note_on_c, 1, 53, 93
3, 414812, Note_off_c, 1, 53, 64
3, 414816, Note_on_c, 1, 57, 93
3, 414908, Note_off_c, 1, 57, 64
3, 414912, Note_on_c, 1, 53, 93
3, 415004, Note_off_c, 1, 53, 64
3, 415008, Note_on_c, 1, 57, 93
3, 415100, Note_off_c, 1, 50, 64
3, 415100, Note_off_c, 1, 57, 64
3, 415104, Note_on_c, 1, 53, 93
3, 415196, Note_off_c, 1, 53, 64
3, 415200, Note_on_c, 1, 57, 93
3, 415292, Note_off_c, 1, 57, 64
3, 415296, Note_on_c, 1, 53, 93
3, 415388, Note_off_c, 1, 53, 64
3, 415392, Note_on_c, 1, 57, 93
3, 415484, Note_off_c, 1, 57, 64
3, 415488, Note_on_c, 1, 53, 93
3, 415580, Note_off_c, 1, 53, 64
3, 415584, Note_on_c, 1, 57, 93
3, 415676, Note_off_c, 1, 57, 64
3, 415680, Note_on_c, 1, 53, 93
3, 415772, Note_off_c, 1, 53, 64
3, 415776, Note_on_c, 1, 57, 93
3, 415868, Note_off_c, 1, 57, 64
3, 415872, Note_on_c, 1, 53, 93
3, 415964, Note_off_c, 1, 53, 64
3, 415968, Note_on_c, 1, 57, 93
3, 416060, Note_off_c, 1, 57, 64
3, 416064, Note_on_c, 1, 53, 93
3, 416156, Note_off_c, 1, 53, 64
3, 416160, Note_on_c, 1, 57, 93
3, 416252, Note_off_c, 1, 57, 64
3, 416256, Note_on_c, 1, 53, 93
3, 416256, Note_on_c, 1, 50, 93
3, 416348, Note_off_c, 1, 53, 64
3, 416348, Note_off_c, 1, 50, 64
3, 416352, Note_on_c, 1, 57, 93
3, 416444, Note_off_c, 1, 57, 64
3, 416448, Note_on_c, 1, 53, 93
3, 416448, Note_on_c, 1, 50, 93
3, 416540, Note_off_c, 1, 53, 64
3, 416540, Note_off_c, 1, 50, 64
3, 416544, Note_on_c, 1, 57, 93
3, 416636, Note_off_c, 1, 57, 64
3, 416640, Note_on_c, 1, 53, 93
3, 416640, Note_on_c, 1, 50, 93
3, 416732, Note_off_c, 1, 53, 64
3, 416732, Note_off_c, 1, 50, 64
3, 416736, Note_on_c, 1, 57, 93
3, 416828, Note_off_c, 1, 57, 64
3, 416832, Note_on_c, 1, 53, 93
3, 416832, Note_on_c, 1, 50, 93
3, 416924, Note_off_c, 1, 53, 64
3, 416924, Note_off_c, 1, 50, 64
3, 416928, Note_on_c, 1, 57, 93
3, 417020, Note_off_c, 1, 57, 64
3, 417024, Note_on_c, 1, 53, 93
3, 417024, Note_on_c, 1, 50, 93
3, 417116, Note_off_c, 1, 53, 64
3, 417116, Note_off_c, 1, 50, 64
3, 417120, Note_on_c, 1, 57, 93
3, 417212, Note_off_c, 1, 57, 64
3, 417216, Note_on_c, 1, 53, 93
3, 417216, Note_on_c, 1, 50, 93
3, 417308, Note_off_c, 1, 53, 64
3, 417308, Note_off_c, 1, 50, 64
3, 417312, Note_on_c, 1, 57, 93
3, 417404, Note_off_c, 1, 57, 64
3, 417600, Note_on_c, 1, 45, 93
3, 417640, Note_off_c, 1, 45, 64
3, 417648, Note_on_c, 1, 47, 93
3, 417688, Note_off_c, 1, 47, 64
3, 417696, Note_on_c, 1, 49, 93
3, 417736, Note_off_c, 1, 49, 64
3, 417744, Note_on_c, 1, 50, 93
3, 417784, Note_off_c, 1, 50, 64
3, 417792, Note_on_c, 1, 52, 93
3, 418176, Note_on_c, 1, 49, 93
3, 418556, Note_off_c, 1, 49, 64
3, 418560, Note_on_c, 1, 43, 98
3, 418940, Note_off_c, 1, 52, 64
3, 418940, Note_off_c, 1, 43, 64
3, 418944, Note_on_c, 1, 40, 99
3, 419324, Note_off_c, 1, 40, 64
3, 419328, Note_on_c, 1, 38, 100
3, 419712, Note_on_c, 1, 53, 93
3, 419712, Note_on_c, 1, 50, 93
3, 419804, Note_off_c, 1, 53, 64
3, 419804, Note_off_c, 1, 50, 64
3, 419808, Note_on_c, 1, 58, 93
3, 419900, Note_off_c, 1, 58, 64
3, 419904, Note_on_c, 1, 53, 93
3, 419904, Note_on_c, 1, 50, 93
3, 419996, Note_off_c, 1, 53, 64
3, 419996, Note_off_c, 1, 50, 64
3, 420000, Note_on_c, 1, 58, 93
3, 420092, Note_off_c, 1, 58, 64
3, 420096, Note_on_c, 1, 53, 93
3, 420096, Note_on_c, 1, 50, 93
3, 420188, Note_off_c, 1, 53, 64
3, 420188, Note_off_c, 1, 50, 64
3, 420192, Note_on_c, 1, 58, 93
3, 420284, Note_off_c, 1, 58, 64
3, 420288, Note_on_c, 1, 53, 93
3, 420288, Note_on_c, 1, 50, 93
3, 420380, Note_off_c, 1, 53, 64
3, 420380, Note_off_c, 1, 50, 64
3, 420384, Note_on_c, 1, 58, 93
3, 420476, Note_off_c, 1, 38, 64
3, 420476, Note_off_c, 1, 58, 64
3, 420672, Note_on_c, 1, 53, 93
3, 420732, Note_off_c, 1, 53, 64
3, 420736, Note_on_c, 1, 52, 93
3, 420796, Note_off_c, 1, 52, 64
3, 420800, Note_on_c, 1, 50, 93
3, 420860, Note_off_c, 1, 50, 64
3, 420864, Note_on_c, 1, 52, 93
3, 420864, Note_on_c, 1, 49, 93
3, 421436, Note_off_c, 1, 52, 64
3, 421436, Note_off_c, 1, 49, 64
3, 421440, Note_on_c, 1, 53, 93
3, 421440, Note_on_c, 1, 50, 93
3, 421628, Note_off_c, 1, 53, 64
3, 421628, Note_off_c, 1, 50, 64
3, 421632, Note_on_c, 1, 52, 93
3, 421632, Note_on_c, 1, 49, 93
3, 421820, Note_off_c, 1, 52, 64
3, 421820, Note_off_c, 1, 49, 64
3, 421824, Note_on_c, 1, 53, 93
3, 421824, Note_on_c, 1, 50, 93
3, 422012, Note_off_c, 1, 53, 64
3, 422012, Note_off_c, 1, 50, 64
3, 422016, Note_on_c, 1, 52, 93
3, 422016, Note_on_c, 1, 49, 93
3, 422204, Note_off_c, 1, 52, 64
3, 422204, Note_off_c, 1, 49, 64
3, 422208, Note_on_c, 1, 53, 93
3, 422208, Note_on_c, 1, 50, 93
3, 422396, Note_off_c, 1, 53, 64
3, 422396, Note_off_c, 1, 50, 64
3, 422400, Note_on_c, 1, 52, 93
3, 422400, Note_on_c, 1, 49, 93
3, 422972, Note_off_c, 1, 52, 64
3, 422972, Note_off_c, 1, 49, 64
3, 422976, Note_on_c, 1, 50, 93
3, 422976, Note_on_c, 1, 53, 93
3, 423164, Note_off_c, 1, 50, 64
3, 423164, Note_off_c, 1, 53, 64
3, 423168, Note_on_c, 1, 52, 93
3, 423168, Note_on_c, 1, 49, 93
3, 423356, Note_off_c, 1, 52, 64
3, 423356, Note_off_c, 1, 49, 64
3, 423360, Note_on_c, 1, 53, 93
3, 423360, Note_on_c, 1, 50, 93
3, 423548, Note_off_c, 1, 53, 64
3, 423548, Note_off_c, 1, 50, 64
3, 423552, Note_on_c, 1, 52, 93
3, 423552, Note_on_c, 1, 49, 93
3, 423740, Note_off_c, 1, 52, 64
3, 423740, Note_off_c, 1, 49, 64
3, 423744, Note_on_c, 1, 53, 93
3, 423744, Note_on_c, 1, 50, 93
3, 423932, Note_off_c, 1, 53, 64
3, 423932, Note_off_c, 1, 50, 64
3, 423936, Note_on_c, 1, 52, 93
3, 423936, Note_on_c, 1, 49, 93
3, 424316, Note_off_c, 1, 52, 64
3, 424316, Note_off_c, 1, 49, 64
3, 427008, Note_on_c, 1, 52, 75
3, 427008, Note_on_c, 1, 40, 75
3, 427388, Note_off_c, 1, 52, 64
3, 427388, Note_off_c, 1, 40, 64
3, 428544, Note_on_c, 1, 53, 75
3, 428544, Note_on_c, 1, 41, 75
3, 428924, Note_off_c, 1, 53, 64
3, 428924, Note_off_c, 1, 41, 64
3, 430080, Note_on_c, 1, 61, 75
3, 430080, Note_on_c, 1, 49, 75
3, 430460, Note_off_c, 1, 61, 64
3, 430460, Note_off_c, 1, 49, 64
3, 430848, Note_on_c, 1, 62, 75
3, 430848, Note_on_c, 1, 50, 75
3, 431228, Note_off_c, 1, 62, 64
3, 431228, Note_off_c, 1, 50, 64
3, 431616, Note_on_c, 1, 45, 75
3, 431708, Note_off_c, 1, 45, 64
3, 431712, Note_on_c, 1, 57, 75
3, 431804, Note_off_c, 1, 57, 64
3, 431808, Note_on_c, 1, 44, 75
3, 431900, Note_off_c, 1, 44, 64
3, 431904, Note_on_c, 1, 56, 75
3, 431996, Note_off_c, 1, 56, 64
3, 432000, Note_on_c, 1, 45, 75
3, 432092, Note_off_c, 1, 45, 64
3, 432096, Note_on_c, 1, 57, 75
3, 432188, Note_off_c, 1, 57, 64
3, 432192, Note_on_c, 1, 46, 75
3, 432284, Note_off_c, 1, 46, 64
3, 432288, Note_on_c, 1, 58, 75
3, 432380, Note_off_c, 1, 58, 64
3, 432384, Note_on_c, 1, 45, 75
3, 432476, Note_off_c, 1, 45, 64
3, 432480, Note_on_c, 1, 57, 75
3, 432572, Note_off_c, 1, 57, 64
3, 432576, Note_on_c, 1, 43, 75
3, 432668, Note_off_c, 1, 43, 64
3, 432672, Note_on_c, 1, 55, 75
3, 432764, Note_off_c, 1, 55, 64
3, 432768, Note_on_c, 1, 41, 75
3, 432860, Note_off_c, 1, 41, 64
3, 432864, Note_on_c, 1, 53, 75
3, 432956, Note_off_c, 1, 53, 64
3, 432960, Note_on_c, 1, 40, 75
3, 433052, Note_off_c, 1, 40, 64
3, 433056, Note_on_c, 1, 52, 76
3, 433148, Note_off_c, 1, 52, 64
3, 433152, Note_on_c, 1, 38, 77
3, 433244, Note_off_c, 1, 38, 64
3, 433248, Note_on_c, 1, 50, 79
3, 433340, Note_off_c, 1, 50, 64
3, 433344, Note_on_c, 1, 37, 82
3, 433436, Note_off_c, 1, 37, 64
3, 433440, Note_on_c, 1, 49, 79
3, 433532, Note_off_c, 1, 49, 64
3, 433536, Note_on_c, 1, 38, 77
3, 433628, Note_off_c, 1, 38, 64
3, 433632, Note_on_c, 1, 50, 76
3, 433724, Note_off_c, 1, 50, 64
3, 433728, Note_on_c, 1, 40, 75
3, 433820, Note_off_c, 1, 40, 64
3, 433824, Note_on_c, 1, 52, 75
3, 433916, Note_off_c, 1, 52, 64
3, 433920, Note_on_c, 1, 41, 75
3, 434012, Note_off_c, 1, 41, 64
3, 434016, Note_on_c, 1, 53, 75
3, 434108, Note_off_c, 1, 53, 64
3, 434112, Note_on_c, 1, 40, 76
3, 434204, Note_off_c, 1, 40, 64
3, 434208, Note_on_c, 1, 52, 75
3, 434300, Note_off_c, 1, 52, 64
3, 434304, Note_on_c, 1, 41, 75
3, 434396, Note_off_c, 1, 41, 64
3, 434400, Note_on_c, 1, 53, 75
3, 434492, Note_off_c, 1, 53, 64
3, 434496, Note_on_c, 1, 43, 75
3, 434588, Note_off_c, 1, 43, 64
3, 434592, Note_on_c, 1, 55, 75
3, 434684, Note_off_c, 1, 55, 64
3, 434688, Note_on_c, 1, 45, 75
3, 434780, Note_off_c, 1, 45, 64
3, 434784, Note_on_c, 1, 57, 75
3, 434876, Note_off_c, 1, 57, 64
3, 434880, Note_on_c, 1, 44, 75
3, 434972, Note_off_c, 1, 44, 64
3, 434976, Note_on_c, 1, 56, 75
3, 435068, Note_off_c, 1, 56, 64
3, 435072, Note_on_c, 1, 45, 75
3, 435164, Note_off_c, 1, 45, 64
3, 435168, Note_on_c, 1, 57, 75
3, 435260, Note_off_c, 1, 57, 64
3, 435264, Note_on_c, 1, 46, 75
3, 435356, Note_off_c, 1, 46, 64
3, 435360, Note_on_c, 1, 58, 75
3, 435452, Note_off_c, 1, 58, 64
3, 435456, Note_on_c, 1, 45, 75
3, 435548, Note_off_c, 1, 45, 64
3, 435552, Note_on_c, 1, 57, 75
3, 435644, Note_off_c, 1, 57, 64
3, 435648, Note_on_c, 1, 43, 75
3, 435740, Note_off_c, 1, 43, 64
3, 435744, Note_on_c, 1, 55, 75
3, 435836, Note_off_c, 1, 55, 64
3, 435840, Note_on_c, 1, 41, 75
3, 435932, Note_off_c, 1, 41, 64
3, 435936, Note_on_c, 1, 53, 75
3, 436028, Note_off_c, 1, 53, 64
3, 436032, Note_on_c, 1, 40, 75
3, 436124, Note_off_c, 1, 40, 64
3, 436128, Note_on_c, 1, 52, 76
3, 436220, Note_off_c, 1, 52, 64
3, 436224, Note_on_c, 1, 38, 78
3, 436316, Note_off_c, 1, 38, 64
3, 436320, Note_on_c, 1, 50, 81
3, 436412, Note_off_c, 1, 50, 64
3, 436416, Note_on_c, 1, 37, 83
3, 436508, Note_off_c, 1, 37, 64
3, 436512, Note_on_c, 1, 49, 81
3, 436604, Note_off_c, 1, 49, 64
3, 436608, Note_on_c, 1, 38, 78
3, 436700, Note_off_c, 1, 38, 64
3, 436704, Note_on_c, 1, 50, 76
3, 436796, Note_off_c, 1, 50, 64
3, 436800, Note_on_c, 1, 40, 75
3, 436892, Note_off_c, 1, 40, 64
3, 436896, Note_on_c, 1, 52, 75
3, 436988, Note_off_c, 1, 52, 64
3, 436992, Note_on_c, 1, 41, 75
3, 437084, Note_off_c, 1, 41, 64
3, 437088, Note_on_c, 1, 53, 75
3, 437180, Note_off_c, 1, 53, 64
3, 437184, Note_on_c, 1, 40, 75
3, 437276, Note_off_c, 1, 40, 64
3, 437280, Note_on_c, 1, 52, 75
3, 437372, Note_off_c, 1, 52, 64
3, 437376, Note_on_c, 1, 41, 75
3, 437468, Note_off_c, 1, 41, 64
3, 437472, Note_on_c, 1, 53, 75
3, 437564, Note_off_c, 1, 53, 64
3, 437568, Note_on_c, 1, 43, 75
3, 437660, Note_off_c, 1, 43, 64
3, 437664, Note_on_c, 1, 55, 75
3, 437756, Note_off_c, 1, 55, 64
3, 437760, Note_on_c, 1, 57, 75
3, 437760, Note_on_c, 1, 45, 75
3, 437948, Note_off_c, 1, 57, 64
3, 437948, Note_off_c, 1, 45, 64
3, 437952, Note_on_c, 1, 55, 93
3, 437952, Note_on_c, 1, 43, 97
3, 438140, Note_off_c, 1, 55, 64
3, 438140, Note_off_c, 1, 43, 64
3, 438144, Note_on_c, 1, 53, 93
3, 438144, Note_on_c, 1, 41, 98
3, 438332, Note_off_c, 1, 53, 64
3, 438332, Note_off_c, 1, 41, 64
3, 438336, Note_on_c, 1, 52, 93
3, 438336, Note_on_c, 1, 40, 99
3, 438524, Note_off_c, 1, 52, 64
3, 438524, Note_off_c, 1, 40, 64
3, 438528, Note_on_c, 1, 50, 93
3, 438528, Note_on_c, 1, 38, 100
3, 438716, Note_off_c, 1, 50, 64
3, 438716, Note_off_c, 1, 38, 64
3, 438720, Note_on_c, 1, 52, 93
3, 438720, Note_on_c, 1, 40, 99
3, 438908, Note_off_c, 1, 52, 64
3, 438908, Note_off_c, 1, 40, 64
3, 438912, Note_on_c, 1, 53, 93
3, 438912, Note_on_c, 1, 41, 98
3, 439100, Note_off_c, 1, 53, 64
3, 439100, Note_off_c, 1, 41, 64
3, 439104, Note_on_c, 1, 55, 93
3, 439104, Note_on_c, 1, 43, 97
3, 439292, Note_off_c, 1, 55, 64
3, 439292, Note_off_c, 1, 43, 64
3, 439296, Note_on_c, 1, 57, 93
3, 439296, Note_on_c, 1, 45, 96
3, 439484, Note_off_c, 1, 57, 64
3, 439484, Note_off_c, 1, 45, 64
3, 439488, Note_on_c, 1, 55, 93
3, 439488, Note_on_c, 1, 43, 97
3, 439676, Note_off_c, 1, 55, 64
3, 439676, Note_off_c, 1, 43, 64
3, 439680, Note_on_c, 1, 53, 93
3, 439680, Note_on_c, 1, 41, 98
3, 439868, Note_off_c, 1, 53, 64
3, 439868, Note_off_c, 1, 41, 64
3, 439872, Note_on_c, 1, 52, 93
3, 439872, Note_on_c, 1, 40, 99
3, 440060, Note_off_c, 1, 52, 64
3, 440060, Note_off_c, 1, 40, 64
3, 440064, Note_on_c, 1, 50, 93
3, 440064, Note_on_c, 1, 38, 100
3, 440252, Note_off_c, 1, 50, 64
3, 440252, Note_off_c, 1, 38, 64
3, 440256, Note_on_c, 1, 52, 93
3, 440256, Note_on_c, 1, 40, 99
3, 440444, Note_off_c, 1, 52, 64
3, 440444, Note_off_c, 1, 40, 64
3, 440448, Note_on_c, 1, 53, 93
3, 440448, Note_on_c, 1, 41, 98
3, 440636, Note_off_c, 1, 53, 64
3, 440636, Note_off_c, 1, 41, 64
3, 440640, Note_on_c, 1, 55, 93
3, 440640, Note_on_c, 1, 43, 97
3, 440828, Note_off_c, 1, 55, 64
3, 440828, Note_off_c, 1, 43, 64
3, 440832, Note_on_c, 1, 57, 93
3, 440832, Note_on_c, 1, 45, 96
3, 441212, Note_off_c, 1, 57, 64
3, 441212, Note_off_c, 1, 45, 64
3, 442368, Note_on_c, 1, 65, 71
3, 442368, Note_on_c, 1, 57, 71
3, 442368, Note_on_c, 1, 53, 71
3, 443132, Note_off_c, 1, 65, 64
3, 443132, Note_off_c, 1, 57, 64
3, 443132, Note_off_c, 1, 53, 64
3, 443136, Note_on_c, 1, 64, 71
3, 443136, Note_on_c, 1, 58, 71
3, 443136, Note_on_c, 1, 55, 71
3, 443900, Note_off_c, 1, 64, 64
3, 443900, Note_off_c, 1, 58, 64
3, 443900, Note_off_c, 1, 55, 64
3, 443904, Note_on_c, 1, 65, 71
3, 443904, Note_on_c, 1, 60, 71
3, 443904, Note_on_c, 1, 57, 71
3, 444284, Note_off_c, 1, 65, 64
3, 444284, Note_off_c, 1, 60, 64
3, 444284, Note_off_c, 1, 57, 64
3, 445440, Note_on_c, 1, 67, 71
3, 445440, Note_on_c, 1, 58, 71
3, 445440, Note_on_c, 1, 55, 71
3, 446204, Note_off_c, 1, 67, 64
3, 446204, Note_off_c, 1, 58, 64
3, 446204, Note_off_c, 1, 55, 64
3, 446208, Note_on_c, 1, 66, 71
3, 446208, Note_on_c, 1, 60, 71
3, 446208, Note_on_c, 1, 57, 71
3, 446972, Note_off_c, 1, 66, 64
3, 446972, Note_off_c, 1, 60, 64
3, 446972, Note_off_c, 1, 57, 64
3, 446976, Note_on_c, 1, 67, 71
3, 446976, Note_on_c, 1, 62, 71
3, 446976, Note_on_c, 1, 58, 71
3, 447356, Note_off_c, 1, 67, 64
3, 447356, Note_off_c, 1, 62, 64
3, 447356, Note_off_c, 1, 58, 64
3, 448512, Note_on_c, 1, 69, 71
3, 448512, Note_on_c, 1, 60, 71
3, 448512, Note_on_c, 1, 57, 71
3, 449276, Note_off_c, 1, 69, 64
3, 449276, Note_off_c, 1, 60, 64
3, 449276, Note_off_c, 1, 57, 64
3, 449280, Note_on_c, 1, 68, 71
3, 449280, Note_on_c, 1, 62, 71
3, 449280, Note_on_c, 1, 59, 71
3, 450044, Note_off_c, 1, 68, 64
3, 450044, Note_off_c, 1, 62, 64
3, 450044, Note_off_c, 1, 59, 64
3, 450048, Note_on_c, 1, 69, 71
3, 450048, Note_on_c, 1, 64, 71
3, 450048, Note_on_c, 1, 60, 71
3, 450428, Note_off_c, 1, 69, 64
3, 450428, Note_off_c, 1, 64, 64
3, 450428, Note_off_c, 1, 60, 64
3, 451584, Note_on_c, 1, 62, 75
3, 451964, Note_off_c, 1, 62, 64
3, 452352, Note_on_c, 1, 64, 75
3, 452732, Note_off_c, 1, 64, 64
3, 453120, Note_on_c, 1, 65, 75
3, 453500, Note_off_c, 1, 65, 64
3, 453888, Note_on_c, 1, 62, 75
3, 454268, Note_off_c, 1, 62, 64
3, 454656, Note_on_c, 1, 59, 75
3, 455036, Note_off_c, 1, 59, 64
3, 455424, Note_on_c, 1, 61, 75
3, 455804, Note_off_c, 1, 61, 64
3, 456192, Note_on_c, 1, 62, 75
3, 456572, Note_off_c, 1, 62, 64
3, 456960, Note_on_c, 1, 58, 75
3, 457340, Note_off_c, 1, 58, 64
3, 457728, Note_on_c, 1, 55, 75
3, 458108, Note_off_c, 1, 55, 64
3, 458496, Note_on_c, 1, 55, 75
3, 458876, Note_off_c, 1, 55, 64
3, 458880, Note_on_c, 1, 56, 75
3, 459260, Note_off_c, 1, 56, 64
3, 459264, Note_on_c, 1, 64, 75
3, 459264, Note_on_c, 1, 61, 75
3, 459264, Note_on_c, 1, 57, 75
3, 460028, Note_off_c, 1, 64, 64
3, 460028, Note_off_c, 1, 61, 64
3, 460028, Note_off_c, 1, 57, 64
3, 460032, Note_on_c, 1, 65, 75
3, 460032, Note_on_c, 1, 62, 75
3, 460032, Note_on_c, 1, 57, 75
3, 460796, Note_off_c, 1, 65, 64
3, 460796, Note_off_c, 1, 62, 64
3, 460796, Note_off_c, 1, 57, 64
3, 460800, Note_on_c, 1, 64, 75
3, 460800, Note_on_c, 1, 61, 75
3, 460800, Note_on_c, 1, 57, 75
3, 461564, Note_off_c, 1, 64, 64
3, 461564, Note_off_c, 1, 61, 64
3, 461564, Note_off_c, 1, 57, 64
3, 461568, Note_on_c, 1, 65, 75
3, 461568, Note_on_c, 1, 62, 75
3, 461568, Note_on_c, 1, 57, 75
3, 462332, Note_off_c, 1, 65, 64
3, 462332, Note_off_c, 1, 62, 64
3, 462332, Note_off_c, 1, 57, 64
3, 462336, Note_on_c, 1, 61, 75
3, 462428, Note_off_c, 1, 61, 64
3, 462432, Note_on_c, 1, 62, 75
3, 462524, Note_off_c, 1, 62, 64
3, 462528, Note_on_c, 1, 64, 75
3, 462620, Note_off_c, 1, 64, 64
3, 462624, Note_on_c, 1, 62, 75
3, 462716, Note_off_c, 1, 62, 64
3, 462720, Note_on_c, 1, 61, 75
3, 462812, Note_off_c, 1, 61, 64
3, 462816, Note_on_c, 1, 58, 75
3, 462908, Note_off_c, 1, 58, 64
3, 462912, Note_on_c, 1, 57, 75
3, 463004, Note_off_c, 1, 57, 64
3, 463008, Note_on_c, 1, 55, 75
3, 463100, Note_off_c, 1, 55, 64
3, 463104, Note_on_c, 1, 53, 75
3, 463196, Note_off_c, 1, 53, 64
3, 463200, Note_on_c, 1, 55, 75
3, 463292, Note_off_c, 1, 55, 64
3, 463296, Note_on_c, 1, 56, 75
3, 463388, Note_off_c, 1, 56, 64
3, 463392, Note_on_c, 1, 57, 75
3, 463484, Note_off_c, 1, 57, 64
3, 463488, Note_on_c, 1, 55, 75
3, 463580, Note_off_c, 1, 55, 64
3, 463584, Note_on_c, 1, 53, 75
3, 463676, Note_off_c, 1, 53, 64
3, 463680, Note_on_c, 1, 52, 75
3, 463772, Note_off_c, 1, 52, 64
3, 463776, Note_on_c, 1, 50, 75
3, 463868, Note_off_c, 1, 50, 64
3, 463872, Note_on_c, 1, 57, 75
3, 463872, Note_on_c, 1, 45, 75
3, 464252, Note_off_c, 1, 57, 64
3, 464252, Note_off_c, 1, 45, 64
3, 465408, Note_on_c, 1, 57, 75
3, 465408, Note_on_c, 1, 53, 75
3, 465408, Note_on_c, 1, 50, 75
3, 466172, Note_off_c, 1, 53, 64
3, 466172, Note_off_c, 1, 50, 64
3, 466176, Note_on_c, 1, 55, 75
3, 466176, Note_on_c, 1, 52, 75
3, 466940, Note_off_c, 1, 57, 64
3, 466940, Note_off_c, 1, 55, 64
3, 466940, Note_off_c, 1, 52, 64
3, 466944, Note_on_c, 1, 57, 75
3, 466944, Note_on_c, 1, 53, 75
3, 467324, Note_off_c, 1, 57, 64
3, 467324, Note_off_c, 1, 53, 64
3, 469248, Note_on_c, 1, 61, 75
3, 469436, Note_off_c, 1, 61, 64
3, 469632, Note_on_c, 1, 62, 75
3, 469820, Note_off_c, 1, 62, 64
3, 470016, Note_on_c, 1, 57, 75
3, 470396, Note_off_c, 1, 57, 64
3, 471552, Note_on_c, 1, 64, 75
3, 471552, Note_on_c, 1, 58, 75
3, 471552, Note_on_c, 1, 55, 75
3, 472316, Note_off_c, 1, 58, 64
3, 472316, Note_off_c, 1, 55, 64
3, 472320, Note_on_c, 1, 60, 75
3, 472320, Note_on_c, 1, 57, 75
3, 473084, Note_off_c, 1, 64, 64
3, 473084, Note_off_c, 1, 60, 64
3, 473084, Note_off_c, 1, 57, 64
3, 473088, Note_on_c, 1, 62, 75
3, 473088, Note_on_c, 1, 58, 75
3, 473468, Note_off_c, 1, 62, 64
3, 473468, Note_off_c, 1, 58, 64
3, 473856, Note_on_c, 1, 62, 75
3, 473856, Note_on_c, 1, 59, 75
3, 473856, Note_on_c, 1, 68, 75
3, 475004, Note_off_c, 1, 59, 64
3, 475004, Note_off_c, 1, 62, 64
3, 475004, Note_off_c, 1, 68, 64
3, 475392, Note_on_c, 1, 69, 75
3, 475392, Note_on_c, 1, 57, 75
3, 475580, Note_off_c, 1, 69, 64
3, 475580, Note_off_c, 1, 57, 64
3, 475776, Note_on_c, 1, 69, 75
3, 475776, Note_on_c, 1, 57, 75
3, 475964, Note_off_c, 1, 69, 64
3, 475964, Note_off_c, 1, 57, 64
3, 476160, Note_on_c, 1, 62, 71
3, 476540, Note_off_c, 1, 62, 64
3, 477696, Note_on_c, 1, 50, 71
3, 477884, Note_off_c, 1, 50, 64
3, 477888, Note_on_c, 1, 53, 71
3, 478076, Note_off_c, 1, 53, 64
3, 478080, Note_on_c, 1, 57, 71
3, 478268, Note_off_c, 1, 57, 64
3, 478272, Note_on_c, 1, 62, 71
3, 478460, Note_off_c, 1, 62, 64
3, 478464, Note_on_c, 1, 52, 71
3, 478652, Note_off_c, 1, 52, 64
3, 478656, Note_on_c, 1, 55, 71
3, 478844, Note_off_c, 1, 55, 64
3, 478848, Note_on_c, 1, 61, 71
3, 479036, Note_off_c, 1, 61, 64
3, 479040, Note_on_c, 1, 64, 71
3, 479228, Note_off_c, 1, 64, 64
3, 479232, Note_on_c, 1, 53, 71
3, 479420, Note_off_c, 1, 53, 64
3, 479424, Note_on_c, 1, 57, 71
3, 479612, Note_off_c, 1, 57, 64
3, 479616, Note_on_c, 1, 62, 71
3, 479804, Note_off_c, 1, 62, 64
3, 479808, Note_on_c, 1, 65, 71
3, 479996, Note_off_c, 1, 65, 64
3, 481536, Note_on_c, 1, 55, 75
3, 481536, Note_on_c, 1, 52, 75
3, 481536, Note_on_c, 1, 37, 79
3, 481724, Note_off_c, 1, 55, 64
3, 481724, Note_off_c, 1, 52, 64
3, 481724, Note_off_c, 1, 37, 64
3, 481920, Note_on_c, 1, 53, 75
3, 481920, Note_on_c, 1, 50, 75
3, 481920, Note_on_c, 1, 38, 78
3, 482108, Note_off_c, 1, 53, 64
3, 482108, Note_off_c, 1, 50, 64
3, 482108, Note_off_c, 1, 38, 64
3, 482304, Note_on_c, 1, 52, 75
3, 482304, Note_on_c, 1, 49, 75
3, 482304, Note_on_c, 1, 33, 82
3, 482496, Note_on_c, 1, 57, 75
3, 482684, Note_off_c, 1, 52, 64
3, 482684, Note_off_c, 1, 49, 64
3, 482684, Note_off_c, 1, 33, 64
3, 482684, Note_off_c, 1, 57, 64
3, 482688, Note_on_c, 1, 56, 71
3, 482876, Note_off_c, 1, 56, 64
3, 482880, Note_on_c, 1, 57, 71
3, 483068, Note_off_c, 1, 57, 64
3, 483072, Note_on_c, 1, 58, 71
3, 483260, Note_off_c, 1, 58, 64
3, 483264, Note_on_c, 1, 55, 71
3, 483452, Note_off_c, 1, 55, 64
3, 483456, Note_on_c, 1, 51, 71
3, 483644, Note_off_c, 1, 51, 64
3, 483648, Note_on_c, 1, 46, 71
3, 483836, Note_off_c, 1, 46, 64
3, 483840, Note_on_c, 1, 43, 71
3, 484028, Note_off_c, 1, 43, 64
3, 484032, Note_on_c, 1, 46, 71
3, 484220, Note_off_c, 1, 46, 64
3, 484224, Note_on_c, 1, 51, 75
3, 484412, Note_off_c, 1, 51, 64
3, 484416, Note_on_c, 1, 55, 75
3, 484604, Note_off_c, 1, 55, 64
3, 484608, Note_on_c, 1, 45, 75
3, 484796, Note_off_c, 1, 45, 64
3, 484800, Note_on_c, 1, 48, 75
3, 484976, Note_on_c, 1, 54, 75
3, 484988, Note_off_c, 1, 48, 64
3, 485164, Note_off_c, 1, 54, 64
3, 485184, Note_on_c, 1, 57, 75
3, 485372, Note_off_c, 1, 57, 64
3, 485376, Note_on_c, 1, 46, 75
3, 485564, Note_off_c, 1, 46, 64
3, 485568, Note_on_c, 1, 50, 75
3, 485756, Note_off_c, 1, 50, 64
3, 485760, Note_on_c, 1, 55, 75
3, 485948, Note_off_c, 1, 55, 64
3, 485952, Note_on_c, 1, 58, 75
3, 486140, Note_off_c, 1, 58, 64
3, 487680, Note_on_c, 1, 65, 75
3, 487680, Note_on_c, 1, 62, 75
3, 487680, Note_on_c, 1, 57, 75
3, 487868, Note_off_c, 1, 65, 64
3, 487868, Note_off_c, 1, 62, 64
3, 487868, Note_off_c, 1, 57, 64
3, 488048, Note_on_c, 1, 61, 75
3, 488064, Note_on_c, 1, 64, 75
3, 488064, Note_on_c, 1, 57, 75
3, 488236, Note_off_c, 1, 61, 64
3, 488252, Note_off_c, 1, 64, 64
3, 488252, Note_off_c, 1, 57, 64
3, 488448, Note_on_c, 1, 62, 75
3, 488828, Note_off_c, 1, 62, 64
3, 491520, Note_on_c, 1, 41, 75
3, 491900, Note_off_c, 1, 41, 64
3, 495360, Note_on_c, 1, 57, 75
3, 495452, Note_off_c, 1, 57, 64
3, 495456, Note_on_c, 1, 62, 75
3, 495548, Note_off_c, 1, 62, 64
3, 495552, Note_on_c, 1, 55, 75
3, 495644, Note_off_c, 1, 55, 64
3, 495648, Note_on_c, 1, 62, 75
3, 495740, Note_off_c, 1, 62, 64
3, 495744, Note_on_c, 1, 54, 75
3, 495836, Note_off_c, 1, 54, 64
3, 495840, Note_on_c, 1, 62, 75
3, 495932, Note_off_c, 1, 62, 64
3, 495936, Note_on_c, 1, 50, 75
3, 496028, Note_off_c, 1, 50, 64
3, 496032, Note_on_c, 1, 62, 75
3, 496124, Note_off_c, 1, 62, 64
3, 496128, Note_on_c, 1, 55, 75
3, 496316, Note_off_c, 1, 55, 64
3, 499296, Note_on_c, 1, 62, 75
3, 499388, Note_off_c, 1, 62, 64
3, 499392, Note_on_c, 1, 60, 75
3, 499484, Note_off_c, 1, 60, 64
3, 499488, Note_on_c, 1, 62, 75
3, 499580, Note_off_c, 1, 62, 64
3, 499584, Note_on_c, 1, 58, 75
3, 499676, Note_off_c, 1, 58, 64
3, 499680, Note_on_c, 1, 62, 75
3, 499772, Note_off_c, 1, 62, 64
3, 499776, Note_on_c, 1, 57, 75
3, 499868, Note_off_c, 1, 57, 64
3, 499872, Note_on_c, 1, 62, 75
3, 499964, Note_off_c, 1, 62, 64
3, 499968, Note_on_c, 1, 55, 75
3, 500060, Note_off_c, 1, 55, 64
3, 500064, Note_on_c, 1, 62, 75
3, 500156, Note_off_c, 1, 62, 64
3, 500160, Note_on_c, 1, 58, 75
3, 500252, Note_off_c, 1, 58, 64
3, 500256, Note_on_c, 1, 62, 75
3, 500348, Note_off_c, 1, 62, 64
3, 500352, Note_on_c, 1, 55, 75
3, 500444, Note_off_c, 1, 55, 64
3, 500448, Note_on_c, 1, 62, 75
3, 500528, Note_on_c, 1, 53, 75
3, 500540, Note_off_c, 1, 62, 64
3, 500620, Note_off_c, 1, 53, 64
3, 500640, Note_on_c, 1, 62, 75
3, 500732, Note_off_c, 1, 62, 64
3, 500736, Note_on_c, 1, 52, 75
3, 500828, Note_off_c, 1, 52, 64
3, 500832, Note_on_c, 1, 58, 75
3, 500924, Note_off_c, 1, 58, 64
3, 500928, Note_on_c, 1, 55, 75
3, 501020, Note_off_c, 1, 55, 64
3, 501024, Note_on_c, 1, 58, 75
3, 501116, Note_off_c, 1, 58, 64
3, 501120, Note_on_c, 1, 52, 75
3, 501212, Note_off_c, 1, 52, 64
3, 501216, Note_on_c, 1, 58, 75
3, 501308, Note_off_c, 1, 58, 64
3, 501312, Note_on_c, 1, 50, 75
3, 501404, Note_off_c, 1, 50, 64
3, 501408, Note_on_c, 1, 58, 75
3, 501500, Note_off_c, 1, 58, 64
3, 501504, Note_on_c, 1, 49, 75
3, 501596, Note_off_c, 1, 49, 64
3, 501600, Note_on_c, 1, 55, 75
3, 501692, Note_off_c, 1, 55, 64
3, 501696, Note_on_c, 1, 52, 75
3, 501788, Note_off_c, 1, 52, 64
3, 501792, Note_on_c, 1, 55, 75
3, 501884, Note_off_c, 1, 55, 64
3, 501888, Note_on_c, 1, 49, 75
3, 501980, Note_off_c, 1, 49, 64
3, 501984, Note_on_c, 1, 55, 75
3, 502076, Note_off_c, 1, 55, 64
3, 502080, Note_on_c, 1, 46, 75
3, 502172, Note_off_c, 1, 46, 64
3, 502176, Note_on_c, 1, 55, 75
3, 502268, Note_off_c, 1, 55, 64
3, 502272, Note_on_c, 1, 45, 75
3, 502272, Note_on_c, 1, 33, 82
3, 502652, Note_off_c, 1, 45, 64
3, 502652, Note_off_c, 1, 33, 64
3, 503808, Note_on_c, 1, 44, 75
3, 503808, Note_on_c, 1, 32, 82
3, 504188, Note_off_c, 1, 44, 64
3, 504188, Note_off_c, 1, 32, 64
3, 505344, Note_on_c, 1, 45, 75
3, 505344, Note_on_c, 1, 33, 82
3, 505724, Note_off_c, 1, 45, 64
3, 505724, Note_off_c, 1, 33, 64
3, 507456, Note_on_c, 1, 53, 75
3, 507548, Note_off_c, 1, 53, 64
3, 507552, Note_on_c, 1, 62, 75
3, 507644, Note_off_c, 1, 62, 64
3, 507648, Note_on_c, 1, 55, 75
3, 507740, Note_off_c, 1, 55, 64
3, 507744, Note_on_c, 1, 62, 75
3, 507836, Note_off_c, 1, 62, 64
3, 507840, Note_on_c, 1, 54, 75
3, 507932, Note_off_c, 1, 54, 64
3, 507936, Note_on_c, 1, 62, 75
3, 508028, Note_off_c, 1, 62, 64
3, 508032, Note_on_c, 1, 55, 75
3, 508124, Note_off_c, 1, 55, 64
3, 508128, Note_on_c, 1, 62, 75
3, 508220, Note_off_c, 1, 62, 64
3, 508224, Note_on_c, 1, 57, 75
3, 508316, Note_off_c, 1, 57, 64
3, 508320, Note_on_c, 1, 62, 75
3, 508412, Note_off_c, 1, 62, 64
3, 508416, Note_on_c, 1, 58, 75
3, 508508, Note_off_c, 1, 58, 64
3, 508512, Note_on_c, 1, 62, 75
3, 508604, Note_off_c, 1, 62, 64
3, 508608, Note_on_c, 1, 57, 75
3, 508700, Note_off_c, 1, 57, 64
3, 508704, Note_on_c, 1, 62, 75
3, 508796, Note_off_c, 1, 62, 64
3, 508800, Note_on_c, 1, 58, 75
3, 508892, Note_off_c, 1, 58, 64
3, 508896, Note_on_c, 1, 62, 75
3, 508988, Note_off_c, 1, 62, 64
3, 508992, Note_on_c, 1, 56, 75
3, 509084, Note_off_c, 1, 56, 64
3, 509088, Note_on_c, 1, 62, 75
3, 509180, Note_off_c, 1, 62, 64
3, 509184, Note_on_c, 1, 57, 75
3, 509276, Note_off_c, 1, 57, 64
3, 509280, Note_on_c, 1, 62, 75
3, 509372, Note_off_c, 1, 62, 64
3, 509376, Note_on_c, 1, 56, 75
3, 509468, Note_off_c, 1, 56, 64
3, 509472, Note_on_c, 1, 62, 75
3, 509564, Note_off_c, 1, 62, 64
3, 509568, Note_on_c, 1, 57, 75
3, 509660, Note_off_c, 1, 57, 64
3, 509664, Note_on_c, 1, 62, 75
3, 509756, Note_off_c, 1, 62, 64
3, 509760, Note_on_c, 1, 59, 75
3, 509852, Note_off_c, 1, 59, 64
3, 509856, Note_on_c, 1, 62, 75
3, 509948, Note_off_c, 1, 62, 64
3, 509952, Note_on_c, 1, 60, 75
3, 510044, Note_off_c, 1, 60, 64
3, 510048, Note_on_c, 1, 62, 75
3, 510140, Note_off_c, 1, 62, 64
3, 510144, Note_on_c, 1, 59, 75
3, 510236, Note_off_c, 1, 59, 64
3, 510240, Note_on_c, 1, 62, 75
3, 510332, Note_off_c, 1, 62, 64
3, 510336, Note_on_c, 1, 60, 75
3, 510428, Note_off_c, 1, 60, 64
3, 510432, Note_on_c, 1, 62, 75
3, 510524, Note_off_c, 1, 62, 64
3, 510528, Note_on_c, 1, 57, 75
3, 510620, Note_off_c, 1, 57, 64
3, 510624, Note_on_c, 1, 62, 75
3, 510716, Note_off_c, 1, 62, 64
3, 510720, Note_on_c, 1, 58, 75
3, 510812, Note_off_c, 1, 58, 64
3, 510816, Note_on_c, 1, 62, 75
3, 510908, Note_off_c, 1, 62, 64
3, 510912, Note_on_c, 1, 57, 75
3, 511004, Note_off_c, 1, 57, 64
3, 511008, Note_on_c, 1, 62, 75
3, 511100, Note_off_c, 1, 62, 64
3, 511104, Note_on_c, 1, 58, 75
3, 511196, Note_off_c, 1, 58, 64
3, 511200, Note_on_c, 1, 62, 75
3, 511280, Note_on_c, 1, 54, 75
3, 511292, Note_off_c, 1, 62, 64
3, 511372, Note_off_c, 1, 54, 64
3, 511392, Note_on_c, 1, 62, 75
3, 511484, Note_off_c, 1, 62, 64
3, 511488, Note_on_c, 1, 55, 87
3, 511580, Note_off_c, 1, 55, 64
3, 511584, Note_on_c, 1, 58, 85
3, 511676, Note_off_c, 1, 58, 64
3, 512256, Note_on_c, 1, 53, 87
3, 512348, Note_off_c, 1, 53, 64
3, 512352, Note_on_c, 1, 59, 85
3, 512444, Note_off_c, 1, 59, 64
3, 513024, Note_on_c, 1, 52, 87
3, 513116, Note_off_c, 1, 52, 64
3, 513120, Note_on_c, 1, 60, 85
3, 513212, Note_off_c, 1, 60, 64
3, 513792, Note_on_c, 1, 55, 87
3, 513884, Note_off_c, 1, 55, 64
3, 513888, Note_on_c, 1, 61, 85
3, 513980, Note_off_c, 1, 61, 64
3, 514560, Note_on_c, 1, 53, 87
3, 514652, Note_off_c, 1, 53, 64
3, 514656, Note_on_c, 1, 62, 85
3, 514748, Note_off_c, 1, 62, 64
3, 515328, Note_on_c, 1, 47, 87
3, 515420, Note_off_c, 1, 47, 64
3, 515424, Note_on_c, 1, 56, 85
3, 515516, Note_off_c, 1, 56, 64
3, 516096, Note_on_c, 1, 57, 75
3, 516096, Note_on_c, 1, 45, 75
3, 516476, Note_off_c, 1, 57, 64
3, 516476, Note_off_c, 1, 45, 64
3, 519744, Note_on_c, 1, 38, 75
3, 519836, Note_off_c, 1, 38, 64
3, 519840, Note_on_c, 1, 50, 75
3, 519932, Note_off_c, 1, 50, 64
3, 519936, Note_on_c, 1, 39, 75
3, 520028, Note_off_c, 1, 39, 64
3, 520032, Note_on_c, 1, 51, 75
3, 520124, Note_off_c, 1, 51, 64
3, 520128, Note_on_c, 1, 38, 75
3, 520220, Note_off_c, 1, 38, 64
3, 520224, Note_on_c, 1, 50, 75
3, 520316, Note_off_c, 1, 50, 64
3, 520320, Note_on_c, 1, 40, 75
3, 520412, Note_off_c, 1, 40, 64
3, 520416, Note_on_c, 1, 52, 75
3, 520508, Note_off_c, 1, 52, 64
3, 520512, Note_on_c, 1, 42, 75
3, 520604, Note_off_c, 1, 42, 64
3, 520608, Note_on_c, 1, 54, 75
3, 520700, Note_off_c, 1, 54, 64
3, 520704, Note_on_c, 1, 43, 75
3, 520796, Note_off_c, 1, 43, 64
3, 520800, Note_on_c, 1, 55, 75
3, 520892, Note_off_c, 1, 55, 64
3, 520896, Note_on_c, 1, 42, 75
3, 520988, Note_off_c, 1, 42, 64
3, 520992, Note_on_c, 1, 54, 75
3, 521084, Note_off_c, 1, 54, 64
3, 521088, Note_on_c, 1, 43, 75
3, 521180, Note_off_c, 1, 43, 64
3, 521184, Note_on_c, 1, 55, 75
3, 521276, Note_off_c, 1, 55, 64
3, 521280, Note_on_c, 1, 40, 75
3, 521372, Note_off_c, 1, 40, 64
3, 521376, Note_on_c, 1, 52, 75
3, 521468, Note_off_c, 1, 52, 64
3, 521472, Note_on_c, 1, 41, 75
3, 521564, Note_off_c, 1, 41, 64
3, 521568, Note_on_c, 1, 53, 75
3, 521660, Note_off_c, 1, 53, 64
3, 521664, Note_on_c, 1, 40, 75
3, 521756, Note_off_c, 1, 40, 64
3, 521760, Note_on_c, 1, 52, 75
3, 521852, Note_off_c, 1, 52, 64
3, 521856, Note_on_c, 1, 42, 75
3, 521948, Note_off_c, 1, 42, 64
3, 521952, Note_on_c, 1, 54, 75
3, 522044, Note_off_c, 1, 54, 64
3, 522048, Note_on_c, 1, 44, 75
3, 522140, Note_off_c, 1, 44, 64
3, 522144, Note_on_c, 1, 56, 75
3, 522236, Note_off_c, 1, 56, 64
3, 522240, Note_on_c, 1, 45, 75
3, 522332, Note_off_c, 1, 45, 64
3, 522336, Note_on_c, 1, 57, 75
3, 522428, Note_off_c, 1, 57, 64
3, 522432, Note_on_c, 1, 44, 75
3, 522524, Note_off_c, 1, 44, 64
3, 522528, Note_on_c, 1, 56, 75
3, 522620, Note_off_c, 1, 56, 64
3, 522624, Note_on_c, 1, 45, 75
3, 522716, Note_off_c, 1, 45, 64
3, 522720, Note_on_c, 1, 57, 75
3, 522812, Note_off_c, 1, 57, 64
3, 522816, Note_on_c, 1, 42, 75
3, 522908, Note_off_c, 1, 42, 64
3, 522912, Note_on_c, 1, 54, 75
3, 523004, Note_off_c, 1, 54, 64
3, 523008, Note_on_c, 1, 43, 75
3, 523100, Note_off_c, 1, 43, 64
3, 523104, Note_on_c, 1, 55, 75
3, 523196, Note_off_c, 1, 55, 64
3, 523200, Note_on_c, 1, 42, 75
3, 523292, Note_off_c, 1, 42, 64
3, 523296, Note_on_c, 1, 54, 75
3, 523388, Note_off_c, 1, 54, 64
3, 523392, Note_on_c, 1, 43, 75
3, 523484, Note_off_c, 1, 43, 64
3, 523488, Note_on_c, 1, 55, 75
3, 523580, Note_off_c, 1, 55, 64
3, 523584, Note_on_c, 1, 45, 75
3, 523676, Note_off_c, 1, 45, 64
3, 523680, Note_on_c, 1, 57, 75
3, 523772, Note_off_c, 1, 57, 64
3, 523776, Note_on_c, 1, 58, 75
3, 523776, Note_on_c, 1, 46, 75
3, 524156, Note_off_c, 1, 58, 64
3, 524156, Note_off_c, 1, 46, 64
3, 524160, Note_on_c, 1, 57, 75
3, 524160, Note_on_c, 1, 45, 75
3, 524540, Note_off_c, 1, 57, 64
3, 524540, Note_off_c, 1, 45, 64
3, 524544, Note_on_c, 1, 55, 75
3, 524732, Note_off_c, 1, 55, 64
3, 524928, Note_on_c, 1, 54, 75
3, 525116, Note_off_c, 1, 54, 64
3, 525312, Note_on_c, 1, 58, 75
3, 525312, Note_on_c, 1, 46, 75
3, 525692, Note_off_c, 1, 58, 64
3, 525692, Note_off_c, 1, 46, 64
3, 525696, Note_on_c, 1, 57, 75
3, 525696, Note_on_c, 1, 45, 75
3, 526076, Note_off_c, 1, 57, 64
3, 526076, Note_off_c, 1, 45, 64
3, 526080, Note_on_c, 1, 55, 75
3, 526268, Note_off_c, 1, 55, 64
3, 526464, Note_on_c, 1, 54, 75
3, 526652, Note_off_c, 1, 54, 64
3, 526848, Note_on_c, 1, 58, 75
3, 526848, Note_on_c, 1, 46, 75
3, 527228, Note_off_c, 1, 58, 64
3, 527228, Note_off_c, 1, 46, 64
3, 527232, Note_on_c, 1, 57, 75
3, 527232, Note_on_c, 1, 45, 75
3, 527612, Note_off_c, 1, 57, 64
3, 527612, Note_off_c, 1, 45, 64
3, 527616, Note_on_c, 1, 55, 75
3, 527804, Note_off_c, 1, 55, 64
3, 528000, Note_on_c, 1, 53, 75
3, 528188, Note_off_c, 1, 53, 64
3, 528480, Note_on_c, 1, 40, 78
3, 528572, Note_off_c, 1, 40, 64
3, 528576, Note_on_c, 1, 42, 77
3, 528668, Note_off_c, 1, 42, 64
3, 528672, Note_on_c, 1, 44, 76
3, 528764, Note_off_c, 1, 44, 64
3, 528768, Note_on_c, 1, 45, 75
3, 528860, Note_off_c, 1, 45, 64
3, 528864, Note_on_c, 1, 47, 75
3, 528956, Note_off_c, 1, 47, 64
3, 528960, Note_on_c, 1, 49, 75
3, 529052, Note_off_c, 1, 49, 64
3, 529056, Note_on_c, 1, 51, 75
3, 529148, Note_off_c, 1, 51, 64
3, 529152, Note_on_c, 1, 52, 75
3, 529244, Note_off_c, 1, 52, 64
3, 529248, Note_on_c, 1, 54, 75
3, 529340, Note_off_c, 1, 54, 64
3, 529344, Note_on_c, 1, 56, 75
3, 529436, Note_off_c, 1, 56, 64
3, 529440, Note_on_c, 1, 57, 75
3, 529532, Note_off_c, 1, 57, 64
3, 529536, Note_on_c, 1, 59, 75
3, 529724, Note_off_c, 1, 59, 64
3, 530016, Note_on_c, 1, 45, 78
3, 530108, Note_off_c, 1, 45, 64
3, 530112, Note_on_c, 1, 47, 77
3, 530204, Note_off_c, 1, 47, 64
3, 530208, Note_on_c, 1, 49, 76
3, 530300, Note_off_c, 1, 49, 64
3, 530304, Note_on_c, 1, 50, 75
3, 530396, Note_off_c, 1, 50, 64
3, 530400, Note_on_c, 1, 52, 75
3, 530492, Note_off_c, 1, 52, 64
3, 530496, Note_on_c, 1, 54, 75
3, 530588, Note_off_c, 1, 54, 64
3, 530592, Note_on_c, 1, 56, 75
3, 530684, Note_off_c, 1, 56, 64
3, 530688, Note_on_c, 1, 57, 75
3, 530780, Note_off_c, 1, 57, 64
3, 530784, Note_on_c, 1, 59, 76
3, 530876, Note_off_c, 1, 59, 64
3, 530880, Note_on_c, 1, 61, 77
3, 530972, Note_off_c, 1, 61, 64
3, 530976, Note_on_c, 1, 62, 78
3, 531068, Note_off_c, 1, 62, 64
3, 531072, Note_on_c, 1, 64, 79
3, 531260, Note_off_c, 1, 64, 64
3, 531552, Note_on_c, 1, 38, 82
3, 531644, Note_off_c, 1, 38, 64
3, 531648, Note_on_c, 1, 40, 81
3, 531740, Note_off_c, 1, 40, 64
3, 531744, Note_on_c, 1, 42, 79
3, 531836, Note_off_c, 1, 42, 64
3, 531840, Note_on_c, 1, 43, 78
3, 531932, Note_off_c, 1, 43, 64
3, 531936, Note_on_c, 1, 45, 77
3, 532028, Note_off_c, 1, 45, 64
3, 532032, Note_on_c, 1, 47, 76
3, 532124, Note_off_c, 1, 47, 64
3, 532128, Note_on_c, 1, 49, 75
3, 532220, Note_off_c, 1, 49, 64
3, 532224, Note_on_c, 1, 50, 75
3, 532316, Note_off_c, 1, 50, 64
3, 532320, Note_on_c, 1, 52, 75
3, 532412, Note_off_c, 1, 52, 64
3, 532416, Note_on_c, 1, 54, 75
3, 532508, Note_off_c, 1, 54, 64
3, 532512, Note_on_c, 1, 55, 76
3, 532604, Note_off_c, 1, 55, 64
3, 532608, Note_on_c, 1, 57, 77
3, 532796, Note_off_c, 1, 57, 64
3, 533088, Note_on_c, 1, 46, 78
3, 533180, Note_off_c, 1, 46, 64
3, 533184, Note_on_c, 1, 48, 76
3, 533276, Note_off_c, 1, 48, 64
3, 533280, Note_on_c, 1, 50, 75
3, 533372, Note_off_c, 1, 50, 64
3, 533376, Note_on_c, 1, 51, 75
3, 533468, Note_off_c, 1, 51, 64
3, 533472, Note_on_c, 1, 53, 75
3, 533564, Note_off_c, 1, 53, 64
3, 533568, Note_on_c, 1, 55, 75
3, 533660, Note_off_c, 1, 55, 64
3, 533664, Note_on_c, 1, 57, 75
3, 533756, Note_off_c, 1, 57, 64
3, 533760, Note_on_c, 1, 58, 76
3, 533852, Note_off_c, 1, 58, 64
3, 533856, Note_on_c, 1, 60, 77
3, 533948, Note_off_c, 1, 60, 64
3, 533952, Note_on_c, 1, 62, 78
3, 534044, Note_off_c, 1, 62, 64
3, 534048, Note_on_c, 1, 63, 79
3, 534140, Note_off_c, 1, 63, 64
3, 534144, Note_on_c, 1, 65, 81
3, 534332, Note_off_c, 1, 65, 64
3, 534528, Note_on_c, 1, 43, 75
3, 534528, Note_on_c, 1, 31, 83
3, 536060, Note_off_c, 1, 43, 64
3, 536060, Note_off_c, 1, 31, 64
3, 536064, Note_on_c, 1, 44, 75
3, 536064, Note_on_c, 1, 32, 83
3, 537596, Note_off_c, 1, 44, 64
3, 537596, Note_off_c, 1, 32, 64
3, 537600, Note_on_c, 1, 45, 75
3, 537600, Note_on_c, 1, 33, 83
3, 537980, Note_off_c, 1, 45, 64
3, 537980, Note_off_c, 1, 33, 64
3, 539232, Note_on_c, 1, 54, 75
3, 539324, Note_off_c, 1, 54, 64
3, 539328, Note_on_c, 1, 55, 75
3, 539420, Note_off_c, 1, 55, 64
3, 539424, Note_on_c, 1, 54, 75
3, 539516, Note_off_c, 1, 54, 64
3, 539520, Note_on_c, 1, 55, 75
3, 539612, Note_off_c, 1, 55, 64
3, 539616, Note_on_c, 1, 56, 75
3, 539708, Note_off_c, 1, 56, 64
3, 539712, Note_on_c, 1, 57, 75
3, 539804, Note_off_c, 1, 57, 64
3, 539808, Note_on_c, 1, 56, 75
3, 539900, Note_off_c, 1, 56, 64
3, 539904, Note_on_c, 1, 57, 75
3, 539996, Note_off_c, 1, 57, 64
3, 540000, Note_on_c, 1, 57, 75
3, 540092, Note_off_c, 1, 57, 64
3, 540096, Note_on_c, 1, 58, 75
3, 540188, Note_off_c, 1, 58, 64
3, 540192, Note_on_c, 1, 57, 75
3, 540284, Note_off_c, 1, 57, 64
3, 540288, Note_on_c, 1, 58, 75
3, 540380, Note_off_c, 1, 58, 64
3, 540384, Note_on_c, 1, 59, 75
3, 540476, Note_off_c, 1, 59, 64
3, 540480, Note_on_c, 1, 60, 75
3, 540572, Note_off_c, 1, 60, 64
3, 540576, Note_on_c, 1, 59, 75
3, 540668, Note_off_c, 1, 59, 64
3, 543744, Note_on_c, 1, 36, 81
3, 543836, Note_off_c, 1, 36, 64
3, 543840, Note_on_c, 1, 45, 75
3, 543932, Note_off_c, 1, 45, 64
3, 543936, Note_on_c, 1, 41, 77
3, 544028, Note_off_c, 1, 41, 64
3, 544032, Note_on_c, 1, 45, 75
3, 544124, Note_off_c, 1, 45, 64
3, 544128, Note_on_c, 1, 36, 81
3, 544220, Note_off_c, 1, 36, 64
3, 544224, Note_on_c, 1, 45, 75
3, 544316, Note_off_c, 1, 45, 64
3, 544320, Note_on_c, 1, 41, 77
3, 544412, Note_off_c, 1, 41, 64
3, 544416, Note_on_c, 1, 45, 75
3, 544508, Note_off_c, 1, 45, 64
3, 544512, Note_on_c, 1, 36, 81
3, 544604, Note_off_c, 1, 36, 64
3, 544608, Note_on_c, 1, 45, 75
3, 544700, Note_off_c, 1, 45, 64
3, 544704, Note_on_c, 1, 41, 77
3, 544796, Note_off_c, 1, 41, 64
3, 544800, Note_on_c, 1, 45, 75
3, 544892, Note_off_c, 1, 45, 64
3, 544896, Note_on_c, 1, 36, 81
3, 544988, Note_off_c, 1, 36, 64
3, 544992, Note_on_c, 1, 45, 75
3, 545084, Note_off_c, 1, 45, 64
3, 545088, Note_on_c, 1, 41, 77
3, 545180, Note_off_c, 1, 41, 64
3, 545184, Note_on_c, 1, 45, 75
3, 545276, Note_off_c, 1, 45, 64
3, 545280, Note_on_c, 1, 36, 81
3, 545372, Note_off_c, 1, 36, 64
3, 545376, Note_on_c, 1, 46, 75
3, 545468, Note_off_c, 1, 46, 64
3, 545472, Note_on_c, 1, 41, 77
3, 545564, Note_off_c, 1, 41, 64
3, 545568, Note_on_c, 1, 46, 75
3, 545660, Note_off_c, 1, 46, 64
3, 545664, Note_on_c, 1, 36, 81
3, 545756, Note_off_c, 1, 36, 64
3, 545760, Note_on_c, 1, 46, 75
3, 545852, Note_off_c, 1, 46, 64
3, 545856, Note_on_c, 1, 41, 77
3, 545948, Note_off_c, 1, 41, 64
3, 545952, Note_on_c, 1, 46, 75
3, 546044, Note_off_c, 1, 46, 64
3, 546048, Note_on_c, 1, 36, 81
3, 546140, Note_off_c, 1, 36, 64
3, 546144, Note_on_c, 1, 46, 75
3, 546236, Note_off_c, 1, 46, 64
3, 546240, Note_on_c, 1, 41, 77
3, 546332, Note_off_c, 1, 41, 64
3, 546336, Note_on_c, 1, 46, 75
3, 546428, Note_off_c, 1, 46, 64
3, 546432, Note_on_c, 1, 36, 81
3, 546524, Note_off_c, 1, 36, 64
3, 546528, Note_on_c, 1, 46, 75
3, 546620, Note_off_c, 1, 46, 64
3, 546624, Note_on_c, 1, 41, 77
3, 546716, Note_off_c, 1, 41, 64
3, 546720, Note_on_c, 1, 46, 75
3, 546812, Note_off_c, 1, 46, 64
3, 546816, Note_on_c, 1, 45, 77
3, 546816, Note_on_c, 1, 41, 77
3, 547196, Note_off_c, 1, 45, 64
3, 547196, Note_off_c, 1, 41, 64
3, 547200, Note_on_c, 1, 53, 93
3, 547292, Note_off_c, 1, 53, 64
3, 547296, Note_on_c, 1, 57, 93
3, 547388, Note_off_c, 1, 57, 64
3, 547392, Note_on_c, 1, 53, 93
3, 547484, Note_off_c, 1, 53, 64
3, 547488, Note_on_c, 1, 57, 93
3, 547580, Note_off_c, 1, 57, 64
3, 547584, Note_on_c, 1, 53, 93
3, 547676, Note_off_c, 1, 53, 64
3, 547680, Note_on_c, 1, 57, 93
3, 547772, Note_off_c, 1, 57, 64
3, 547776, Note_on_c, 1, 53, 93
3, 547868, Note_off_c, 1, 53, 64
3, 547872, Note_on_c, 1, 57, 93
3, 547964, Note_off_c, 1, 57, 64
3, 547968, Note_on_c, 1, 53, 93
3, 548060, Note_off_c, 1, 53, 64
3, 548064, Note_on_c, 1, 57, 93
3, 548156, Note_off_c, 1, 57, 64
3, 548160, Note_on_c, 1, 53, 93
3, 548160, Note_on_c, 1, 45, 93
3, 548220, Note_off_c, 1, 45, 64
3, 548224, Note_on_c, 1, 47, 93
3, 548252, Note_off_c, 1, 53, 64
3, 548256, Note_on_c, 1, 57, 93
3, 548284, Note_off_c, 1, 47, 64
3, 548288, Note_on_c, 1, 49, 93
3, 548348, Note_off_c, 1, 57, 64
3, 548348, Note_off_c, 1, 49, 64
3, 548352, Note_on_c, 1, 50, 93
3, 548352, Note_on_c, 1, 53, 93
3, 548444, Note_off_c, 1, 53, 64
3, 548448, Note_on_c, 1, 57, 93
3, 548540, Note_off_c, 1, 57, 64
3, 548544, Note_on_c, 1, 53, 93
3, 548636, Note_off_c, 1, 53, 64
3, 548640, Note_on_c, 1, 57, 93
3, 548720, Note_on_c, 1, 53, 93
3, 548732, Note_off_c, 1, 50, 64
3, 548732, Note_off_c, 1, 57, 64
3, 548812, Note_off_c, 1, 53, 64
3, 548832, Note_on_c, 1, 57, 93
3, 548924, Note_off_c, 1, 57, 64
3, 548928, Note_on_c, 1, 53, 93
3, 549020, Note_off_c, 1, 53, 64
3, 549024, Note_on_c, 1, 57, 93
3, 549116, Note_off_c, 1, 57, 64
3, 549120, Note_on_c, 1, 53, 93
3, 549212, Note_off_c, 1, 53, 64
3, 549216, Note_on_c, 1, 57, 93
3, 549308, Note_off_c, 1, 57, 64
3, 549312, Note_on_c, 1, 53, 93
3, 549404, Note_off_c, 1, 53, 64
3, 549408, Note_on_c, 1, 57, 93
3, 549500, Note_off_c, 1, 57, 64
3, 549504, Note_on_c, 1, 53, 93
3, 549596, Note_off_c, 1, 53, 64
3, 549600, Note_on_c, 1, 57, 93
3, 549692, Note_off_c, 1, 57, 64
3, 549696, Note_on_c, 1, 53, 93
3, 549788, Note_off_c, 1, 53, 64
3, 549792, Note_on_c, 1, 57, 93
3, 549884, Note_off_c, 1, 57, 64
3, 549888, Note_on_c, 1, 53, 93
3, 549888, Note_on_c, 1, 50, 93
3, 549980, Note_off_c, 1, 53, 64
3, 549980, Note_off_c, 1, 50, 64
3, 549984, Note_on_c, 1, 57, 93
3, 550076, Note_off_c, 1, 57, 64
3, 550080, Note_on_c, 1, 53, 93
3, 550080, Note_on_c, 1, 50, 93
3, 550172, Note_off_c, 1, 53, 64
3, 550172, Note_off_c, 1, 50, 64
3, 550176, Note_on_c, 1, 57, 93
3, 550268, Note_off_c, 1, 57, 64
3, 550272, Note_on_c, 1, 53, 93
3, 550272, Note_on_c, 1, 50, 93
3, 550364, Note_off_c, 1, 53, 64
3, 550364, Note_off_c, 1, 50, 64
3, 550368, Note_on_c, 1, 57, 93
3, 550460, Note_off_c, 1, 57, 64
3, 550464, Note_on_c, 1, 53, 93
3, 550464, Note_on_c, 1, 50, 93
3, 550556, Note_off_c, 1, 53, 64
3, 550556, Note_off_c, 1, 50, 64
3, 550560, Note_on_c, 1, 57, 93
3, 550652, Note_off_c, 1, 57, 64
3, 550656, Note_on_c, 1, 53, 93
3, 550656, Note_on_c, 1, 50, 93
3, 550748, Note_off_c, 1, 53, 64
3, 550748, Note_off_c, 1, 50, 64
3, 550752, Note_on_c, 1, 57, 93
3, 550844, Note_off_c, 1, 57, 64
3, 550848, Note_on_c, 1, 53, 93
3, 550848, Note_on_c, 1, 50, 93
3, 550940, Note_off_c, 1, 53, 64
3, 550940, Note_off_c, 1, 50, 64
3, 550944, Note_on_c, 1, 57, 93
3, 551036, Note_off_c, 1, 57, 64
3, 551040, Note_on_c, 1, 53, 93
3, 551040, Note_on_c, 1, 50, 93
3, 551132, Note_off_c, 1, 53, 64
3, 551132, Note_off_c, 1, 50, 64
3, 551136, Note_on_c, 1, 57, 93
3, 551228, Note_off_c, 1, 57, 64
3, 551232, Note_on_c, 1, 53, 93
3, 551232, Note_on_c, 1, 50, 93
3, 551324, Note_off_c, 1, 53, 64
3, 551324, Note_off_c, 1, 50, 64
3, 551328, Note_on_c, 1, 57, 93
3, 551420, Note_off_c, 1, 57, 64
3, 551424, Note_on_c, 1, 52, 93
3, 551804, Note_off_c, 1, 52, 64
3, 551808, Note_on_c, 1, 49, 95
3, 552188, Note_off_c, 1, 49, 64
3, 552192, Note_on_c, 1, 43, 97
3, 552572, Note_off_c, 1, 43, 64
3, 552576, Note_on_c, 1, 40, 98
3, 552956, Note_off_c, 1, 40, 64
3, 552960, Note_on_c, 1, 38, 99
3, 553340, Note_off_c, 1, 38, 64
3, 553344, Note_on_c, 1, 53, 93
3, 553344, Note_on_c, 1, 50, 93
3, 553436, Note_off_c, 1, 53, 64
3, 553436, Note_off_c, 1, 50, 64
3, 553440, Note_on_c, 1, 58, 93
3, 553520, Note_on_c, 1, 53, 93
3, 553532, Note_off_c, 1, 58, 64
3, 553536, Note_on_c, 1, 50, 93
3, 553612, Note_off_c, 1, 53, 64
3, 553628, Note_off_c, 1, 50, 64
3, 553632, Note_on_c, 1, 58, 93
3, 553724, Note_off_c, 1, 58, 64
3, 553728, Note_on_c, 1, 53, 93
3, 553728, Note_on_c, 1, 50, 93
3, 553820, Note_off_c, 1, 53, 64
3, 553820, Note_off_c, 1, 50, 64
3, 553824, Note_on_c, 1, 58, 93
3, 553916, Note_off_c, 1, 58, 64
3, 553920, Note_on_c, 1, 53, 93
3, 553920, Note_on_c, 1, 50, 93
3, 554012, Note_off_c, 1, 53, 64
3, 554012, Note_off_c, 1, 50, 64
3, 554016, Note_on_c, 1, 58, 93
3, 554108, Note_off_c, 1, 58, 64
3, 554304, Note_on_c, 1, 53, 93
3, 554360, Note_off_c, 1, 53, 64
3, 554368, Note_on_c, 1, 52, 93
3, 554424, Note_off_c, 1, 52, 64
3, 554432, Note_on_c, 1, 50, 93
3, 554488, Note_off_c, 1, 50, 64
3, 554496, Note_on_c, 1, 52, 93
3, 554496, Note_on_c, 1, 49, 93
3, 555068, Note_off_c, 1, 52, 64
3, 555068, Note_off_c, 1, 49, 64
3, 555072, Note_on_c, 1, 53, 93
3, 555072, Note_on_c, 1, 50, 93
3, 555260, Note_off_c, 1, 53, 64
3, 555260, Note_off_c, 1, 50, 64
3, 555264, Note_on_c, 1, 52, 93
3, 555264, Note_on_c, 1, 49, 93
3, 555452, Note_off_c, 1, 52, 64
3, 555452, Note_off_c, 1, 49, 64
3, 555456, Note_on_c, 1, 53, 93
3, 555456, Note_on_c, 1, 50, 93
3, 555644, Note_off_c, 1, 53, 64
3, 555644, Note_off_c, 1, 50, 64
3, 555648, Note_on_c, 1, 52, 93
3, 555648, Note_on_c, 1, 49, 93
3, 555836, Note_off_c, 1, 52, 64
3, 555836, Note_off_c, 1, 49, 64
3, 555840, Note_on_c, 1, 53, 93
3, 555840, Note_on_c, 1, 50, 93
3, 556028, Note_off_c, 1, 53, 64
3, 556028, Note_off_c, 1, 50, 64
3, 556032, Note_on_c, 1, 52, 93
3, 556032, Note_on_c, 1, 49, 93
3, 556604, Note_off_c, 1, 52, 64
3, 556604, Note_off_c, 1, 49, 64
3, 556608, Note_on_c, 1, 53, 93
3, 556608, Note_on_c, 1, 50, 93
3, 556796, Note_off_c, 1, 53, 64
3, 556796, Note_off_c, 1, 50, 64
3, 556800, Note_on_c, 1, 52, 93
3, 556800, Note_on_c, 1, 49, 93
3, 556988, Note_off_c, 1, 52, 64
3, 556988, Note_off_c, 1, 49, 64
3, 556992, Note_on_c, 1, 53, 93
3, 556992, Note_on_c, 1, 50, 93
3, 557180, Note_off_c, 1, 53, 64
3, 557180, Note_off_c, 1, 50, 64
3, 557184, Note_on_c, 1, 52, 93
3, 557184, Note_on_c, 1, 49, 93
3, 557372, Note_off_c, 1, 52, 64
3, 557372, Note_off_c, 1, 49, 64
3, 557376, Note_on_c, 1, 53, 93
3, 557376, Note_on_c, 1, 50, 93
3, 557564, Note_off_c, 1, 53, 64
3, 557564, Note_off_c, 1, 50, 64
3, 557568, Note_on_c, 1, 52, 93
3, 557568, Note_on_c, 1, 49, 93
3, 557948, Note_off_c, 1, 52, 64
3, 557948, Note_off_c, 1, 49, 64
3, 558336, Note_on_c, 1, 62, 93
3, 558336, Note_on_c, 1, 50, 93
3, 558716, Note_off_c, 1, 62, 64
3, 558716, Note_off_c, 1, 50, 64
3, 559104, Note_on_c, 1, 55, 93
3, 559104, Note_on_c, 1, 43, 93
3, 559484, Note_off_c, 1, 55, 64
3, 559484, Note_off_c, 1, 43, 64
3, 559872, Note_on_c, 1, 56, 95
3, 559872, Note_on_c, 1, 44, 95
3, 560252, Note_off_c, 1, 56, 64
3, 560252, Note_off_c, 1, 44, 64
3, 560640, Note_on_c, 1, 45, 93
3, 560640, Note_on_c, 1, 33, 99
3, 561404, Note_off_c, 1, 45, 64
3, 561404, Note_off_c, 1, 33, 64
3, 561984, Note_on_c, 1, 45, 99
3, 561984, Note_on_c, 1, 33, 104
3, 562176, Note_on_c, 1, 45, 93
3, 562176, Note_on_c, 1, 33, 98
3, 562268, Note_off_c, 1, 33, 64
3, 562268, Note_off_c, 1, 45, 64
3, 562268, Note_off_c, 1, 45, 64
3, 562268, Note_off_c, 1, 33, 64
3, 562272, Note_on_c, 1, 49, 93
3, 562272, Note_on_c, 1, 37, 97
3, 562364, Note_off_c, 1, 49, 64
3, 562364, Note_off_c, 1, 37, 64
3, 562368, Note_on_c, 1, 50, 93
3, 562368, Note_on_c, 1, 38, 96
3, 562460, Note_off_c, 1, 50, 64
3, 562460, Note_off_c, 1, 38, 64
3, 562464, Note_on_c, 1, 49, 93
3, 562464, Note_on_c, 1, 37, 96
3, 562556, Note_off_c, 1, 49, 64
3, 562556, Note_off_c, 1, 37, 64
3, 562560, Note_on_c, 1, 50, 93
3, 562560, Note_on_c, 1, 38, 96
3, 562652, Note_off_c, 1, 50, 64
3, 562652, Note_off_c, 1, 38, 64
3, 562656, Note_on_c, 1, 52, 95
3, 562656, Note_on_c, 1, 41, 95
3, 562748, Note_off_c, 1, 52, 64
3, 562748, Note_off_c, 1, 41, 64
3, 562752, Note_on_c, 1, 53, 95
3, 562752, Note_on_c, 1, 43, 95
3, 562844, Note_off_c, 1, 53, 64
3, 562844, Note_off_c, 1, 43, 64
3, 562848, Note_on_c, 1, 52, 95
3, 562848, Note_on_c, 1, 41, 95
3, 562940, Note_off_c, 1, 52, 64
3, 562940, Note_off_c, 1, 41, 64
3, 562944, Note_on_c, 1, 53, 95
3, 562944, Note_on_c, 1, 41, 95
3, 563024, Note_on_c, 1, 44, 95
3, 563036, Note_off_c, 1, 53, 64
3, 563036, Note_off_c, 1, 41, 64
3, 563040, Note_on_c, 1, 56, 95
3, 563116, Note_off_c, 1, 44, 64
3, 563120, Note_on_c, 1, 45, 95
3, 563132, Note_off_c, 1, 56, 64
3, 563136, Note_on_c, 1, 57, 95
3, 563212, Note_off_c, 1, 45, 64
3, 563228, Note_off_c, 1, 57, 64
3, 563232, Note_on_c, 1, 56, 95
3, 563232, Note_on_c, 1, 44, 95
3, 563324, Note_off_c, 1, 56, 64
3, 563324, Note_off_c, 1, 44, 64
3, 563328, Note_on_c, 1, 57, 96
3, 563328, Note_on_c, 1, 45, 96
3, 563408, Note_on_c, 1, 49, 96
3, 563420, Note_off_c, 1, 57, 64
3, 563420, Note_off_c, 1, 45, 64
3, 563424, Note_on_c, 1, 61, 96
3, 563500, Note_off_c, 1, 49, 64
3, 563504, Note_on_c, 1, 50, 96
3, 563516, Note_off_c, 1, 61, 64
3, 563520, Note_on_c, 1, 62, 96
3, 563596, Note_off_c, 1, 50, 64
3, 563612, Note_off_c, 1, 62, 64
3, 563616, Note_on_c, 1, 61, 96
3, 563616, Note_on_c, 1, 49, 96
3, 563708, Note_off_c, 1, 61, 64
3, 563708, Note_off_c, 1, 49, 64
3, 563712, Note_on_c, 1, 50, 96
3, 563804, Note_off_c, 1, 50, 64
3, 563808, Note_on_c, 1, 52, 96
3, 563900, Note_off_c, 1, 52, 64
3, 563904, Note_on_c, 1, 53, 97
3, 563996, Note_off_c, 1, 53, 64
3, 564000, Note_on_c, 1, 52, 97
3, 564092, Note_off_c, 1, 52, 64
3, 564096, Note_on_c, 1, 53, 97
3, 564188, Note_off_c, 1, 53, 64
3, 564192, Note_on_c, 1, 56, 97
3, 564284, Note_off_c, 1, 56, 64
3, 564288, Note_on_c, 1, 57, 97
3, 564380, Note_off_c, 1, 57, 64
3, 564384, Note_on_c, 1, 56, 97
3, 564476, Note_off_c, 1, 56, 64
3, 564480, Note_on_c, 1, 57, 97
3, 564572, Note_off_c, 1, 57, 64
3, 564576, Note_on_c, 1, 61, 98
3, 564668, Note_off_c, 1, 61, 64
3, 564672, Note_on_c, 1, 62, 98
3, 564764, Note_off_c, 1, 62, 64
3, 564768, Note_on_c, 1, 61, 98
3, 564860, Note_off_c, 1, 61, 64
3, 571384, Control_c, 1, 64, 127
3, 571392, Note_on_c, 1, 61, 108
3, 571392, Note_on_c, 1, 57, 106
3, 571392, Note_on_c, 1, 52, 105
3, 571392, Note_on_c, 1, 49, 104
3, 572924, Note_off_c, 1, 61, 64
3, 572924, Note_off_c, 1, 57, 64
3, 572924, Note_off_c, 1, 52, 64
3, 572924, Note_off_c, 1, 49, 64
3, 574456, Control_c, 1, 64, 0
3, 577920, Note_on_c, 1, 62, 75
3, 578300, Note_off_c, 1, 62, 64
3, 578304, Note_on_c, 1, 61, 75
3, 578684, Note_off_c, 1, 61, 64
3, 578688, Note_on_c, 1, 62, 75
3, 579068, Note_off_c, 1, 62, 64
3, 579072, Note_on_c, 1, 57, 75
3, 579452, Note_off_c, 1, 57, 64
3, 586752, Note_on_c, 1, 41, 75
3, 586876, Note_off_c, 1, 41, 64
3, 586880, Note_on_c, 1, 45, 75
3, 587004, Note_off_c, 1, 45, 64
3, 587008, Note_on_c, 1, 48, 75
3, 587132, Note_off_c, 1, 48, 64
3, 587136, Note_on_c, 1, 53, 75
3, 587260, Note_off_c, 1, 53, 64
3, 587264, Note_on_c, 1, 52, 75
3, 587388, Note_off_c, 1, 52, 64
3, 587392, Note_on_c, 1, 53, 75
3, 587516, Note_off_c, 1, 53, 64
3, 587520, Note_on_c, 1, 43, 75
3, 587644, Note_off_c, 1, 43, 64
3, 587648, Note_on_c, 1, 46, 75
3, 587772, Note_off_c, 1, 46, 64
3, 587776, Note_on_c, 1, 52, 75
3, 587900, Note_off_c, 1, 52, 64
3, 587904, Note_on_c, 1, 55, 75
3, 588028, Note_off_c, 1, 55, 64
3, 588032, Note_on_c, 1, 54, 75
3, 588156, Note_off_c, 1, 54, 64
3, 588160, Note_on_c, 1, 55, 75
3, 588284, Note_off_c, 1, 55, 64
3, 588288, Note_on_c, 1, 45, 75
3, 588412, Note_off_c, 1, 45, 64
3, 588416, Note_on_c, 1, 48, 75
3, 588540, Note_off_c, 1, 48, 64
3, 588544, Note_on_c, 1, 53, 75
3, 588668, Note_off_c, 1, 53, 64
3, 588672, Note_on_c, 1, 57, 75
3, 588796, Note_off_c, 1, 57, 64
3, 588800, Note_on_c, 1, 56, 75
3, 588924, Note_off_c, 1, 56, 64
3, 588928, Note_on_c, 1, 57, 75
3, 589052, Note_off_c, 1, 57, 64
3, 589056, Note_on_c, 1, 40, 75
3, 589180, Note_off_c, 1, 40, 64
3, 589184, Note_on_c, 1, 43, 75
3, 589308, Note_off_c, 1, 43, 64
3, 589312, Note_on_c, 1, 48, 75
3, 589436, Note_off_c, 1, 48, 64
3, 589440, Note_on_c, 1, 52, 75
3, 589564, Note_off_c, 1, 52, 64
3, 589568, Note_on_c, 1, 51, 75
3, 589692, Note_off_c, 1, 51, 64
3, 589696, Note_on_c, 1, 52, 75
3, 589820, Note_off_c, 1, 52, 64
3, 589824, Note_on_c, 1, 41, 75
3, 589948, Note_off_c, 1, 41, 64
3, 589952, Note_on_c, 1, 44, 75
3, 590076, Note_off_c, 1, 44, 64
3, 590080, Note_on_c, 1, 48, 75
3, 590204, Note_off_c, 1, 48, 64
3, 590208, Note_on_c, 1, 53, 75
3, 590332, Note_off_c, 1, 53, 64
3, 590336, Note_on_c, 1, 52, 75
3, 590460, Note_off_c, 1, 52, 64
3, 590464, Note_on_c, 1, 53, 75
3, 590588, Note_off_c, 1, 53, 64
3, 590592, Note_on_c, 1, 43, 75
3, 590716, Note_off_c, 1, 43, 64
3, 590720, Note_on_c, 1, 46, 75
3, 590844, Note_off_c, 1, 46, 64
3, 590848, Note_on_c, 1, 52, 75
3, 590972, Note_off_c, 1, 52, 64
3, 590976, Note_on_c, 1, 55, 75
3, 591100, Note_off_c, 1, 55, 64
3, 591104, Note_on_c, 1, 54, 75
3, 591228, Note_off_c, 1, 54, 64
3, 591232, Note_on_c, 1, 55, 75
3, 591356, Note_off_c, 1, 55, 64
3, 591360, Note_on_c, 1, 44, 75
3, 591484, Note_off_c, 1, 44, 64
3, 591488, Note_on_c, 1, 48, 75
3, 591612, Note_off_c, 1, 48, 64
3, 591616, Note_on_c, 1, 53, 75
3, 591740, Note_off_c, 1, 53, 64
3, 591744, Note_on_c, 1, 56, 75
3, 591868, Note_off_c, 1, 56, 64
3, 591872, Note_on_c, 1, 55, 75
3, 591996, Note_off_c, 1, 55, 64
3, 592000, Note_on_c, 1, 56, 75
3, 592124, Note_off_c, 1, 56, 64
3, 592128, Note_on_c, 1, 44, 75
3, 592508, Note_off_c, 1, 44, 64
3, 592512, Note_on_c, 1, 44, 75
3, 592892, Note_off_c, 1, 44, 64
3, 592896, Note_on_c, 1, 56, 75
3, 592896, Note_on_c, 1, 53, 75
3, 593468, Note_off_c, 1, 53, 64
3, 593472, Note_on_c, 1, 51, 75
3, 593564, Note_off_c, 1, 51, 64
3, 593568, Note_on_c, 1, 49, 75
3, 593660, Note_off_c, 1, 56, 64
3, 593660, Note_off_c, 1, 49, 64
3, 593664, Note_on_c, 1, 56, 75
3, 593664, Note_on_c, 1, 48, 75
3, 594044, Note_off_c, 1, 56, 64
3, 594044, Note_off_c, 1, 48, 64
3, 594048, Note_on_c, 1, 56, 75
3, 594048, Note_on_c, 1, 51, 75
3, 594428, Note_off_c, 1, 56, 64
3, 594428, Note_off_c, 1, 51, 64
3, 594432, Note_on_c, 1, 56, 75
3, 594432, Note_on_c, 1, 49, 75
3, 594812, Note_off_c, 1, 49, 64
3, 594816, Note_on_c, 1, 44, 75
3, 595004, Note_off_c, 1, 56, 64
3, 595004, Note_off_c, 1, 44, 64
3, 595200, Note_on_c, 1, 44, 75
3, 595580, Note_off_c, 1, 44, 64
3, 595584, Note_on_c, 1, 44, 75
3, 595964, Note_off_c, 1, 44, 64
3, 595968, Note_on_c, 1, 56, 75
3, 595968, Note_on_c, 1, 53, 75
3, 596348, Note_off_c, 1, 53, 64
3, 596544, Note_on_c, 1, 51, 75
3, 596636, Note_off_c, 1, 51, 64
3, 596640, Note_on_c, 1, 49, 75
3, 596732, Note_off_c, 1, 49, 64
3, 596736, Note_on_c, 1, 48, 75
3, 597116, Note_off_c, 1, 56, 64
3, 597116, Note_off_c, 1, 48, 64
3, 597120, Note_on_c, 1, 57, 75
3, 597120, Note_on_c, 1, 51, 75
3, 597120, Note_on_c, 1, 47, 75
3, 597500, Note_off_c, 1, 57, 64
3, 597500, Note_off_c, 1, 51, 64
3, 597500, Note_off_c, 1, 47, 64
3, 597504, Note_on_c, 1, 58, 75
3, 597504, Note_on_c, 1, 53, 75
3, 597504, Note_on_c, 1, 46, 75
3, 597888, Note_on_c, 1, 53, 75
3, 598076, Note_off_c, 1, 53, 64
3, 598268, Note_off_c, 1, 58, 64
3, 598268, Note_off_c, 1, 46, 64
3, 598268, Note_off_c, 1, 53, 64
3, 598272, Note_on_c, 1, 46, 75
3, 598652, Note_off_c, 1, 46, 64
3, 598656, Note_on_c, 1, 46, 75
3, 599036, Note_off_c, 1, 46, 64
3, 599040, Note_on_c, 1, 58, 75
3, 599040, Note_on_c, 1, 55, 75
3, 599420, Note_off_c, 1, 55, 64
3, 599616, Note_on_c, 1, 53, 75
3, 599708, Note_off_c, 1, 53, 64
3, 599712, Note_on_c, 1, 51, 75
3, 599804, Note_off_c, 1, 51, 64
3, 599808, Note_on_c, 1, 50, 75
3, 600176, Note_on_c, 1, 53, 75
3, 600176, Note_on_c, 1, 49, 75
3, 600188, Note_off_c, 1, 58, 64
3, 600188, Note_off_c, 1, 50, 64
3, 600192, Note_on_c, 1, 59, 75
3, 600556, Note_off_c, 1, 53, 64
3, 600556, Note_off_c, 1, 49, 64
3, 600572, Note_off_c, 1, 59, 64
3, 600576, Note_on_c, 1, 60, 75
3, 600576, Note_on_c, 1, 55, 75
3, 600576, Note_on_c, 1, 48, 75
3, 600944, Note_on_c, 1, 52, 75
3, 601132, Note_off_c, 1, 52, 64
3, 601340, Note_off_c, 1, 60, 64
3, 601340, Note_off_c, 1, 55, 64
3, 601340, Note_off_c, 1, 48, 64
3, 601344, Note_on_c, 1, 52, 75
3, 601344, Note_on_c, 1, 40, 75
3, 601532, Note_off_c, 1, 52, 64
3, 601532, Note_off_c, 1, 40, 64
3, 601728, Note_on_c, 1, 55, 75
3, 601728, Note_on_c, 1, 52, 75
3, 601916, Note_off_c, 1, 55, 64
3, 601916, Note_off_c, 1, 52, 64
3, 602112, Note_on_c, 1, 53, 75
3, 602112, Note_on_c, 1, 41, 75
3, 602300, Note_off_c, 1, 53, 64
3, 602300, Note_off_c, 1, 41, 64
3, 602496, Note_on_c, 1, 56, 75
3, 602496, Note_on_c, 1, 53, 75
3, 602684, Note_off_c, 1, 56, 64
3, 602684, Note_off_c, 1, 53, 64
3, 602880, Note_on_c, 1, 55, 75
3, 602880, Note_on_c, 1, 43, 75
3, 603068, Note_off_c, 1, 55, 64
3, 603068, Note_off_c, 1, 43, 64
3, 603264, Note_on_c, 1, 58, 75
3, 603264, Note_on_c, 1, 55, 75
3, 603452, Note_off_c, 1, 58, 64
3, 603452, Note_off_c, 1, 55, 64
3, 603648, Note_on_c, 1, 56, 75
3, 603648, Note_on_c, 1, 60, 75
3, 604028, Note_off_c, 1, 56, 64
3, 604032, Note_on_c, 1, 55, 75
3, 604412, Note_off_c, 1, 60, 64
3, 604412, Note_off_c, 1, 55, 64
3, 604416, Note_on_c, 1, 54, 75
3, 604416, Note_on_c, 1, 42, 75
3, 604796, Note_off_c, 1, 54, 64
3, 604796, Note_off_c, 1, 42, 64
3, 604800, Note_on_c, 1, 57, 75
3, 604800, Note_on_c, 1, 54, 75
3, 604988, Note_off_c, 1, 57, 64
3, 604988, Note_off_c, 1, 54, 64
3, 605184, Note_on_c, 1, 55, 75
3, 605184, Note_on_c, 1, 43, 75
3, 605372, Note_off_c, 1, 55, 64
3, 605372, Note_off_c, 1, 43, 64
3, 605568, Note_on_c, 1, 58, 75
3, 605568, Note_on_c, 1, 55, 75
3, 605756, Note_off_c, 1, 58, 64
3, 605756, Note_off_c, 1, 55, 64
3, 605952, Note_on_c, 1, 57, 75
3, 605952, Note_on_c, 1, 45, 75
3, 606140, Note_off_c, 1, 57, 64
3, 606140, Note_off_c, 1, 45, 64
3, 606336, Note_on_c, 1, 57, 75
3, 606336, Note_on_c, 1, 60, 75
3, 606524, Note_off_c, 1, 57, 64
3, 606524, Note_off_c, 1, 60, 64
3, 606720, Note_on_c, 1, 58, 75
3, 606720, Note_on_c, 1, 62, 75
3, 607100, Note_off_c, 1, 58, 64
3, 607104, Note_on_c, 1, 57, 75
3, 607484, Note_off_c, 1, 62, 64
3, 607484, Note_off_c, 1, 57, 64
3, 607488, Note_on_c, 1, 56, 75
3, 607488, Note_on_c, 1, 44, 75
3, 607868, Note_off_c, 1, 56, 64
3, 607868, Note_off_c, 1, 44, 64
3, 607872, Note_on_c, 1, 59, 75
3, 607872, Note_on_c, 1, 56, 75
3, 608060, Note_off_c, 1, 59, 64
3, 608060, Note_off_c, 1, 56, 64
3, 608256, Note_on_c, 1, 57, 75
3, 608256, Note_on_c, 1, 45, 75
3, 608444, Note_off_c, 1, 57, 64
3, 608444, Note_off_c, 1, 45, 64
3, 608640, Note_on_c, 1, 60, 75
3, 608640, Note_on_c, 1, 57, 75
3, 608828, Note_off_c, 1, 60, 64
3, 608828, Note_off_c, 1, 57, 64
3, 609024, Note_on_c, 1, 59, 75
3, 609024, Note_on_c, 1, 47, 75
3, 609212, Note_off_c, 1, 59, 64
3, 609212, Note_off_c, 1, 47, 64
3, 609408, Note_on_c, 1, 59, 75
3, 609408, Note_on_c, 1, 62, 75
3, 609596, Note_off_c, 1, 59, 64
3, 609596, Note_off_c, 1, 62, 64
3, 609792, Note_on_c, 1, 60, 75
3, 609792, Note_on_c, 1, 48, 75
3, 609980, Note_off_c, 1, 60, 64
3, 609980, Note_off_c, 1, 48, 64
3, 610176, Note_on_c, 1, 64, 75
3, 610176, Note_on_c, 1, 60, 75
3, 610364, Note_off_c, 1, 64, 64
3, 610364, Note_off_c, 1, 60, 64
3, 610560, Note_on_c, 1, 61, 75
3, 610560, Note_on_c, 1, 49, 75
3, 610748, Note_off_c, 1, 61, 64
3, 610748, Note_off_c, 1, 49, 64
3, 610944, Note_on_c, 1, 64, 75
3, 610944, Note_on_c, 1, 61, 75
3, 611132, Note_off_c, 1, 64, 64
3, 611132, Note_off_c, 1, 61, 64
3, 611328, Note_on_c, 1, 62, 75
3, 611328, Note_on_c, 1, 50, 75
3, 611516, Note_off_c, 1, 62, 64
3, 611516, Note_off_c, 1, 50, 64
3, 611712, Note_on_c, 1, 65, 75
3, 611712, Note_on_c, 1, 62, 75
3, 611900, Note_off_c, 1, 65, 64
3, 611900, Note_off_c, 1, 62, 64
3, 612096, Note_on_c, 1, 64, 75
3, 612096, Note_on_c, 1, 52, 75
3, 612284, Note_off_c, 1, 64, 64
3, 612284, Note_off_c, 1, 52, 64
3, 612480, Note_on_c, 1, 67, 75
3, 612480, Note_on_c, 1, 64, 75
3, 612668, Note_off_c, 1, 67, 64
3, 612668, Note_off_c, 1, 64, 64
3, 615936, Note_on_c, 1, 67, 75
3, 615936, Note_on_c, 1, 57, 75
3, 615936, Note_on_c, 1, 55, 75
3, 616124, Note_off_c, 1, 67, 64
3, 616124, Note_off_c, 1, 57, 64
3, 616124, Note_off_c, 1, 55, 64
3, 616320, Note_on_c, 1, 62, 75
3, 616320, Note_on_c, 1, 57, 75
3, 616320, Note_on_c, 1, 53, 75
3, 616508, Note_off_c, 1, 62, 64
3, 616508, Note_off_c, 1, 57, 64
3, 616508, Note_off_c, 1, 53, 64
3, 616704, Note_on_c, 1, 61, 75
3, 616704, Note_on_c, 1, 57, 75
3, 616704, Note_on_c, 1, 52, 75
3, 616892, Note_off_c, 1, 61, 64
3, 616892, Note_off_c, 1, 57, 64
3, 616892, Note_off_c, 1, 52, 64
3, 617088, Note_on_c, 1, 62, 75
3, 617088, Note_on_c, 1, 57, 75
3, 617088, Note_on_c, 1, 50, 75
3, 617276, Note_off_c, 1, 62, 64
3, 617276, Note_off_c, 1, 57, 64
3, 617276, Note_off_c, 1, 50, 64
3, 617472, Note_on_c, 1, 61, 75
3, 617472, Note_on_c, 1, 58, 75
3, 617472, Note_on_c, 1, 55, 75
3, 617472, Note_on_c, 1, 52, 75
3, 617472, Note_on_c, 1, 49, 75
3, 619004, Note_off_c, 1, 61, 64
3, 619004, Note_off_c, 1, 58, 64
3, 619004, Note_off_c, 1, 55, 64
3, 619004, Note_off_c, 1, 52, 64
3, 619004, Note_off_c, 1, 49, 64
3, 619008, Note_on_c, 1, 60, 75
3, 619008, Note_on_c, 1, 57, 75
3, 619008, Note_on_c, 1, 54, 75
3, 619008, Note_on_c, 1, 52, 75
3, 619008, Note_on_c, 1, 48, 75
3, 620540, Note_off_c, 1, 60, 64
3, 620540, Note_off_c, 1, 57, 64
3, 620540, Note_off_c, 1, 54, 64
3, 620540, Note_off_c, 1, 52, 64
3, 620540, Note_off_c, 1, 48, 64
3, 620544, Note_on_c, 1, 59, 75
3, 620544, Note_on_c, 1, 53, 75
3, 620544, Note_on_c, 1, 50, 75
3, 620544, Note_on_c, 1, 47, 75
3, 622076, Note_off_c, 1, 59, 64
3, 622076, Note_off_c, 1, 53, 64
3, 622076, Note_off_c, 1, 50, 64
3, 622076, Note_off_c, 1, 47, 64
3, 622080, Note_on_c, 1, 58, 75
3, 622080, Note_on_c, 1, 56, 75
3, 622080, Note_on_c, 1, 53, 75
3, 622080, Note_on_c, 1, 50, 75
3, 622080, Note_on_c, 1, 46, 75
3, 623612, Note_off_c, 1, 58, 64
3, 623612, Note_off_c, 1, 56, 64
3, 623612, Note_off_c, 1, 53, 64
3, 623612, Note_off_c, 1, 50, 64
3, 623612, Note_off_c, 1, 46, 64
3, 623616, Note_on_c, 1, 46, 75
3, 623616, Note_on_c, 1, 34, 81
3, 624000, Note_on_c, 1, 56, 75
3, 624092, Note_off_c, 1, 56, 64
3, 624096, Note_on_c, 1, 65, 75
3, 624188, Note_off_c, 1, 65, 64
3, 624192, Note_on_c, 1, 62, 75
3, 624284, Note_off_c, 1, 62, 64
3, 624288, Note_on_c, 1, 56, 75
3, 624380, Note_off_c, 1, 56, 64
3, 624384, Note_on_c, 1, 53, 75
3, 624476, Note_off_c, 1, 53, 64
3, 624480, Note_on_c, 1, 62, 75
3, 624572, Note_off_c, 1, 62, 64
3, 624576, Note_on_c, 1, 56, 75
3, 624668, Note_off_c, 1, 56, 64
3, 624672, Note_on_c, 1, 53, 75
3, 624764, Note_off_c, 1, 53, 64
3, 624768, Note_on_c, 1, 50, 75
3, 624860, Note_off_c, 1, 50, 64
3, 624864, Note_on_c, 1, 56, 75
3, 624956, Note_off_c, 1, 56, 64
3, 624960, Note_on_c, 1, 53, 75
3, 625052, Note_off_c, 1, 53, 64
3, 625056, Note_on_c, 1, 50, 75
3, 625148, Note_off_c, 1, 46, 64
3, 625148, Note_off_c, 1, 34, 64
3, 625148, Note_off_c, 1, 50, 64
3, 625152, Note_on_c, 1, 45, 75
3, 625152, Note_on_c, 1, 33, 82
3, 627452, Note_off_c, 1, 33, 64
3, 627452, Note_off_c, 1, 45, 64
3, 630528, Note_on_c, 1, 57, 82
3, 630908, Note_off_c, 1, 57, 64
3, 630912, Note_on_c, 1, 57, 82
3, 631292, Note_off_c, 1, 57, 64
3, 631296, Note_on_c, 1, 65, 82
3, 631868, Note_off_c, 1, 65, 64
3, 631872, Note_on_c, 1, 64, 82
3, 631964, Note_off_c, 1, 64, 64
3, 631968, Note_on_c, 1, 62, 82
3, 632060, Note_off_c, 1, 62, 64
3, 633600, Note_on_c, 1, 57, 82
3, 633980, Note_off_c, 1, 57, 64
3, 633984, Note_on_c, 1, 57, 82
3, 634364, Note_off_c, 1, 57, 64
3, 634368, Note_on_c, 1, 65, 82
3, 634940, Note_off_c, 1, 65, 64
3, 634944, Note_on_c, 1, 64, 82
3, 635036, Note_off_c, 1, 64, 64
3, 635040, Note_on_c, 1, 62, 82
3, 635132, Note_off_c, 1, 62, 64
3, 635136, Note_on_c, 1, 69, 82
3, 635136, Note_on_c, 1, 61, 82
3, 635516, Note_off_c, 1, 69, 64
3, 635516, Note_off_c, 1, 61, 64
3, 635520, Note_on_c, 1, 69, 82
3, 635520, Note_on_c, 1, 61, 82
3, 635900, Note_off_c, 1, 69, 64
3, 635900, Note_off_c, 1, 61, 64
3, 635904, Note_on_c, 1, 66, 82
3, 635904, Note_on_c, 1, 63, 82
3, 635904, Note_on_c, 1, 60, 82
3, 636668, Note_off_c, 1, 66, 64
3, 636668, Note_off_c, 1, 63, 64
3, 636668, Note_off_c, 1, 60, 64
3, 636672, Note_on_c, 1, 65, 82
3, 636672, Note_on_c, 1, 62, 82
3, 636672, Note_on_c, 1, 59, 82
3, 637436, Note_off_c, 1, 65, 64
3, 637436, Note_off_c, 1, 62, 64
3, 637436, Note_off_c, 1, 59, 64
3, 637440, Note_on_c, 1, 64, 82
3, 637440, Note_on_c, 1, 61, 82
3, 637440, Note_on_c, 1, 58, 82
3, 638204, Note_off_c, 1, 64, 64
3, 638204, Note_off_c, 1, 61, 64
3, 638204, Note_off_c, 1, 58, 64
3, 638208, Note_on_c, 1, 62, 82
3, 638208, Note_on_c, 1, 57, 82
3, 638972, Note_off_c, 1, 62, 64
3, 638976, Note_on_c, 1, 62, 82
3, 639356, Note_off_c, 1, 57, 64
3, 639360, Note_on_c, 1, 58, 82
3, 639740, Note_off_c, 1, 58, 64
3, 639744, Note_on_c, 1, 57, 82
3, 640124, Note_off_c, 1, 57, 64
3, 640128, Note_on_c, 1, 56, 82
3, 640508, Note_off_c, 1, 56, 64
3, 640512, Note_on_c, 1, 62, 82
3, 640512, Note_on_c, 1, 57, 82
3, 640892, Note_off_c, 1, 57, 64
3, 640896, Note_on_c, 1, 58, 82
3, 641276, Note_off_c, 1, 58, 64
3, 641280, Note_on_c, 1, 57, 82
3, 641660, Note_off_c, 1, 57, 64
3, 641664, Note_on_c, 1, 56, 82
3, 642044, Note_off_c, 1, 62, 64
3, 642044, Note_off_c, 1, 62, 64
3, 642044, Note_off_c, 1, 56, 64
3, 642048, Note_on_c, 1, 63, 82
3, 642048, Note_on_c, 1, 58, 82
3, 642048, Note_on_c, 1, 55, 82
3, 643196, Note_off_c, 1, 63, 64
3, 643196, Note_off_c, 1, 58, 64
3, 643196, Note_off_c, 1, 55, 64
3, 643200, Note_on_c, 1, 65, 82
3, 643200, Note_on_c, 1, 58, 82
3, 643200, Note_on_c, 1, 56, 82
3, 643580, Note_off_c, 1, 65, 64
3, 643580, Note_off_c, 1, 58, 64
3, 643580, Note_off_c, 1, 56, 64
3, 643584, Note_on_c, 1, 63, 82
3, 643584, Note_on_c, 1, 58, 82
3, 643584, Note_on_c, 1, 55, 82
3, 644732, Note_off_c, 1, 63, 64
3, 644732, Note_off_c, 1, 58, 64
3, 644732, Note_off_c, 1, 55, 64
3, 644736, Note_on_c, 1, 65, 82
3, 644736, Note_on_c, 1, 58, 82
3, 644736, Note_on_c, 1, 56, 82
3, 645116, Note_off_c, 1, 65, 64
3, 645116, Note_off_c, 1, 58, 64
3, 645116, Note_off_c, 1, 56, 64
3, 645120, Note_on_c, 1, 63, 82
3, 645120, Note_on_c, 1, 58, 82
3, 645120, Note_on_c, 1, 55, 82
3, 646652, Note_off_c, 1, 63, 64
3, 646652, Note_off_c, 1, 58, 64
3, 646652, Note_off_c, 1, 55, 64
3, 647424, Note_on_c, 1, 55, 82
3, 647548, Note_off_c, 1, 55, 64
3, 647552, Note_on_c, 1, 58, 82
3, 647676, Note_off_c, 1, 58, 64
3, 647680, Note_on_c, 1, 55, 82
3, 647804, Note_off_c, 1, 55, 64
3, 647808, Note_on_c, 1, 51, 82
3, 647932, Note_off_c, 1, 51, 64
3, 647936, Note_on_c, 1, 55, 82
3, 648060, Note_off_c, 1, 55, 64
3, 648064, Note_on_c, 1, 51, 82
3, 648188, Note_off_c, 1, 51, 64
3, 648192, Note_on_c, 1, 50, 83
3, 648192, Note_on_c, 1, 44, 85
3, 648192, Note_on_c, 1, 32, 90
3, 648316, Note_off_c, 1, 50, 64
3, 648320, Note_on_c, 1, 53, 83
3, 648444, Note_off_c, 1, 53, 64
3, 648448, Note_on_c, 1, 56, 84
3, 648572, Note_off_c, 1, 56, 64
3, 648576, Note_on_c, 1, 59, 84
3, 648700, Note_off_c, 1, 59, 64
3, 650880, Note_on_c, 1, 62, 84
3, 650972, Note_off_c, 1, 62, 64
3, 650976, Note_on_c, 1, 59, 83
3, 651068, Note_off_c, 1, 59, 64
3, 651072, Note_on_c, 1, 56, 83
3, 651136, Note_off_c, 1, 56, 64
3, 651136, Note_on_c, 1, 53, 83
3, 651200, Note_off_c, 1, 53, 64
3, 651200, Note_on_c, 1, 50, 82
3, 651260, Note_off_c, 1, 32, 64
3, 651260, Note_off_c, 1, 44, 64
3, 651264, Note_off_c, 1, 50, 64
3, 651264, Note_on_c, 1, 33, 90
3, 651264, Note_on_c, 1, 45, 84
3, 651552, Note_on_c, 1, 38, 82
3, 651552, Note_on_c, 1, 50, 82
3, 651644, Note_off_c, 1, 38, 64
3, 651644, Note_off_c, 1, 50, 64
3, 651648, Note_on_c, 1, 40, 82
3, 651648, Note_on_c, 1, 52, 82
3, 651740, Note_off_c, 1, 40, 64
3, 651740, Note_off_c, 1, 52, 64
3, 651744, Note_on_c, 1, 41, 83
3, 651744, Note_on_c, 1, 53, 83
3, 651836, Note_off_c, 1, 41, 64
3, 651836, Note_off_c, 1, 53, 64
3, 651840, Note_on_c, 1, 43, 84
3, 651840, Note_on_c, 1, 55, 84
3, 651932, Note_off_c, 1, 43, 64
3, 651932, Note_off_c, 1, 55, 64
3, 651936, Note_on_c, 1, 45, 85
3, 651936, Note_on_c, 1, 57, 85
3, 652028, Note_off_c, 1, 45, 64
3, 652028, Note_off_c, 1, 57, 64
3, 652032, Note_on_c, 1, 47, 87
3, 652032, Note_on_c, 1, 59, 87
3, 652124, Note_off_c, 1, 47, 64
3, 652124, Note_off_c, 1, 59, 64
3, 652128, Note_on_c, 1, 49, 88
3, 652128, Note_on_c, 1, 61, 88
3, 652220, Note_off_c, 1, 49, 64
3, 652220, Note_off_c, 1, 61, 64
3, 652224, Note_on_c, 1, 50, 89
3, 652224, Note_on_c, 1, 62, 89
3, 652316, Note_off_c, 1, 50, 64
3, 652316, Note_off_c, 1, 62, 64
3, 652320, Note_on_c, 1, 64, 90
3, 652320, Note_on_c, 1, 52, 90
3, 652412, Note_off_c, 1, 64, 64
3, 652412, Note_off_c, 1, 52, 64
3, 652796, Note_off_c, 1, 33, 64
3, 652796, Note_off_c, 1, 45, 64
3, 662112, Note_on_c, 1, 57, 90
3, 662204, Note_off_c, 1, 57, 64
3, 662304, Note_on_c, 1, 57, 90
3, 662396, Note_off_c, 1, 57, 64
3, 662496, Note_on_c, 1, 57, 90
3, 662588, Note_off_c, 1, 57, 64
3, 662688, Note_on_c, 1, 57, 90
3, 662780, Note_off_c, 1, 57, 64
3, 662880, Note_on_c, 1, 57, 90
3, 662972, Note_off_c, 1, 57, 64
3, 663072, Note_on_c, 1, 57, 90
3, 663164, Note_off_c, 1, 57, 64
3, 663264, Note_on_c, 1, 57, 90
3, 663356, Note_off_c, 1, 57, 64
3, 663456, Note_on_c, 1, 57, 90
3, 663548, Note_off_c, 1, 57, 64
3, 663648, Note_on_c, 1, 57, 90
3, 663740, Note_off_c, 1, 57, 64
3, 663840, Note_on_c, 1, 57, 90
3, 663932, Note_off_c, 1, 57, 64
3, 664032, Note_on_c, 1, 57, 90
3, 664124, Note_off_c, 1, 57, 64
3, 664224, Note_on_c, 1, 57, 90
3, 664316, Note_off_c, 1, 57, 64
3, 664320, Note_on_c, 1, 57, 90
3, 664412, Note_off_c, 1, 57, 64
3, 664416, Note_on_c, 1, 45, 90
3, 664508, Note_off_c, 1, 45, 64
3, 664512, Note_on_c, 1, 56, 90
3, 664604, Note_off_c, 1, 56, 64
3, 664608, Note_on_c, 1, 45, 90
3, 664700, Note_off_c, 1, 45, 64
3, 664704, Note_on_c, 1, 55, 90
3, 664796, Note_off_c, 1, 55, 64
3, 664800, Note_on_c, 1, 45, 90
3, 664892, Note_off_c, 1, 45, 64
3, 664896, Note_on_c, 1, 54, 90
3, 664988, Note_off_c, 1, 54, 64
3, 664992, Note_on_c, 1, 45, 90
3, 665084, Note_off_c, 1, 45, 64
3, 665088, Note_on_c, 1, 53, 90
3, 665180, Note_off_c, 1, 53, 64
3, 665184, Note_on_c, 1, 45, 90
3, 665276, Note_off_c, 1, 45, 64
3, 665280, Note_on_c, 1, 52, 90
3, 665372, Note_off_c, 1, 52, 64
3, 665376, Note_on_c, 1, 45, 90
3, 665468, Note_off_c, 1, 45, 64
3, 665472, Note_on_c, 1, 57, 90
3, 665564, Note_off_c, 1, 57, 64
3, 665568, Note_on_c, 1, 45, 90
3, 665660, Note_off_c, 1, 45, 64
3, 665664, Note_on_c, 1, 56, 90
3, 665756, Note_off_c, 1, 56, 64
3, 665760, Note_on_c, 1, 45, 90
3, 665852, Note_off_c, 1, 45, 64
3, 665856, Note_on_c, 1, 55, 90
3, 665948, Note_off_c, 1, 55, 64
3, 665952, Note_on_c, 1, 45, 90
3, 666044, Note_off_c, 1, 45, 64
3, 666048, Note_on_c, 1, 54, 90
3, 666140, Note_off_c, 1, 54, 64
3, 666144, Note_on_c, 1, 45, 90
3, 666236, Note_off_c, 1, 45, 64
3, 666240, Note_on_c, 1, 53, 90
3, 666332, Note_off_c, 1, 53, 64
3, 666336, Note_on_c, 1, 45, 90
3, 666428, Note_off_c, 1, 45, 64
3, 666432, Note_on_c, 1, 52, 90
3, 666524, Note_off_c, 1, 52, 64
3, 666528, Note_on_c, 1, 45, 90
3, 666620, Note_off_c, 1, 45, 64
3, 668160, Note_on_c, 1, 50, 90
3, 668160, Note_on_c, 1, 41, 90
3, 668732, Note_off_c, 1, 50, 64
3, 668732, Note_off_c, 1, 41, 64
3, 668732, End_track
4, 0, Start_track
4, 0, Title_t, "Midi by:"
4, 0, Control_c, 2, 0, 0
4, 0, Program_c, 2, 48
4, 0, Control_c, 2, 10, 39
4, 0, Control_c, 2, 91, 67
4, 0, Control_c, 2, 93, 2
4, 0, Key_signature, -1, "minor"
4, 0, Control_c, 2, 121, 0
4, 384, Control_c, 2, 10, 53
4, 480, Control_c, 2, 91, 63
4, 672, Program_c, 2, 48
4, 1536, Note_on_c, 2, 62, 66
4, 1536, Note_on_c, 2, 57, 66
4, 1724, Note_off_c, 2, 62, 64
4, 1724, Note_off_c, 2, 57, 64
4, 1728, Note_on_c, 2, 57, 66
4, 1728, Note_on_c, 2, 62, 66
4, 2108, Note_off_c, 2, 57, 64
4, 2108, Note_off_c, 2, 62, 64
4, 2112, Note_on_c, 2, 62, 66
4, 2112, Note_on_c, 2, 57, 66
4, 2492, Note_off_c, 2, 62, 64
4, 2492, Note_off_c, 2, 57, 64
4, 2496, Note_on_c, 2, 62, 66
4, 2496, Note_on_c, 2, 57, 66
4, 2876, Note_off_c, 2, 62, 64
4, 2876, Note_off_c, 2, 57, 64
4, 2880, Note_on_c, 2, 62, 66
4, 2880, Note_on_c, 2, 57, 66
4, 3260, Note_off_c, 2, 62, 64
4, 3260, Note_off_c, 2, 57, 64
4, 3264, Note_on_c, 2, 62, 66
4, 3264, Note_on_c, 2, 57, 66
4, 3644, Note_off_c, 2, 62, 64
4, 3644, Note_off_c, 2, 57, 64
4, 3648, Note_on_c, 2, 62, 66
4, 3648, Note_on_c, 2, 57, 66
4, 4028, Note_off_c, 2, 62, 64
4, 4028, Note_off_c, 2, 57, 64
4, 4032, Note_on_c, 2, 62, 66
4, 4032, Note_on_c, 2, 57, 66
4, 4412, Note_off_c, 2, 62, 64
4, 4412, Note_off_c, 2, 57, 64
4, 4416, Note_on_c, 2, 62, 66
4, 4416, Note_on_c, 2, 57, 66
4, 4796, Note_off_c, 2, 62, 64
4, 4796, Note_off_c, 2, 57, 64
4, 4800, Note_on_c, 2, 57, 66
4, 5168, Note_on_c, 2, 65, 66
4, 5180, Note_off_c, 2, 57, 64
4, 5184, Note_on_c, 2, 57, 66
4, 5548, Note_off_c, 2, 65, 64
4, 5564, Note_off_c, 2, 57, 64
4, 5568, Note_on_c, 2, 64, 66
4, 5568, Note_on_c, 2, 57, 66
4, 5936, Note_on_c, 2, 62, 66
4, 5948, Note_off_c, 2, 64, 64
4, 5948, Note_off_c, 2, 57, 64
4, 5952, Note_on_c, 2, 57, 66
4, 6316, Note_off_c, 2, 62, 64
4, 6332, Note_off_c, 2, 57, 64
4, 6336, Note_on_c, 2, 61, 66
4, 6336, Note_on_c, 2, 57, 66
4, 6716, Note_off_c, 2, 61, 64
4, 6716, Note_off_c, 2, 57, 64
4, 6720, Note_on_c, 2, 61, 66
4, 6720, Note_on_c, 2, 57, 66
4, 7100, Note_off_c, 2, 61, 64
4, 7100, Note_off_c, 2, 57, 64
4, 7104, Note_on_c, 2, 61, 66
4, 7104, Note_on_c, 2, 57, 66
4, 7472, Note_on_c, 2, 63, 66
4, 7472, Note_on_c, 2, 57, 66
4, 7484, Note_off_c, 2, 61, 64
4, 7484, Note_off_c, 2, 57, 64
4, 7852, Note_off_c, 2, 63, 64
4, 7852, Note_off_c, 2, 57, 64
4, 7872, Note_on_c, 2, 64, 66
4, 7872, Note_on_c, 2, 57, 66
4, 8252, Note_off_c, 2, 64, 64
4, 8252, Note_off_c, 2, 57, 64
4, 8256, Note_on_c, 2, 64, 66
4, 8256, Note_on_c, 2, 57, 66
4, 8636, Note_off_c, 2, 64, 64
4, 8636, Note_off_c, 2, 57, 64
4, 8640, Note_on_c, 2, 64, 66
4, 8640, Note_on_c, 2, 57, 66
4, 9020, Note_off_c, 2, 64, 64
4, 9020, Note_off_c, 2, 57, 64
4, 9024, Note_on_c, 2, 64, 66
4, 9024, Note_on_c, 2, 57, 66
4, 9404, Note_off_c, 2, 64, 64
4, 9404, Note_off_c, 2, 57, 64
4, 9408, Note_on_c, 2, 64, 66
4, 9408, Note_on_c, 2, 57, 66
4, 9788, Note_off_c, 2, 64, 64
4, 9788, Note_off_c, 2, 57, 64
4, 9792, Note_on_c, 2, 64, 66
4, 9792, Note_on_c, 2, 57, 66
4, 10172, Note_off_c, 2, 64, 64
4, 10172, Note_off_c, 2, 57, 64
4, 10176, Note_on_c, 2, 64, 66
4, 10176, Note_on_c, 2, 57, 66
4, 10544, Note_on_c, 2, 57, 66
4, 10556, Note_off_c, 2, 64, 64
4, 10556, Note_off_c, 2, 57, 64
4, 10560, Note_on_c, 2, 64, 66
4, 10924, Note_off_c, 2, 57, 64
4, 10940, Note_off_c, 2, 64, 64
4, 10944, Note_on_c, 2, 57, 66
4, 11324, Note_off_c, 2, 57, 64
4, 11328, Note_on_c, 2, 67, 66
4, 11328, Note_on_c, 2, 57, 66
4, 11708, Note_off_c, 2, 67, 64
4, 11708, Note_off_c, 2, 57, 64
4, 11712, Note_on_c, 2, 65, 66
4, 11712, Note_on_c, 2, 57, 66
4, 12092, Note_off_c, 2, 65, 64
4, 12092, Note_off_c, 2, 57, 64
4, 12096, Note_on_c, 2, 64, 66
4, 12096, Note_on_c, 2, 57, 66
4, 12476, Note_off_c, 2, 64, 64
4, 12476, Note_off_c, 2, 57, 64
4, 12480, Note_on_c, 2, 62, 66
4, 12480, Note_on_c, 2, 57, 66
4, 12860, Note_off_c, 2, 62, 64
4, 12860, Note_off_c, 2, 57, 64
4, 12864, Note_on_c, 2, 62, 66
4, 12864, Note_on_c, 2, 57, 66
4, 13244, Note_off_c, 2, 62, 64
4, 13244, Note_off_c, 2, 57, 64
4, 13248, Note_on_c, 2, 62, 66
4, 13628, Note_off_c, 2, 62, 64
4, 13632, Note_on_c, 2, 57, 66
4, 13632, Note_on_c, 2, 62, 66
4, 13820, Note_off_c, 2, 57, 64
4, 13824, Note_on_c, 2, 65, 66
4, 13824, Note_on_c, 2, 58, 66
4, 14012, Note_off_c, 2, 62, 64
4, 14012, Note_off_c, 2, 65, 64
4, 14012, Note_off_c, 2, 58, 64
4, 14016, Note_on_c, 2, 64, 66
4, 14016, Note_on_c, 2, 62, 66
4, 14016, Note_on_c, 2, 58, 66
4, 14396, Note_off_c, 2, 64, 64
4, 14396, Note_off_c, 2, 62, 64
4, 14396, Note_off_c, 2, 58, 64
4, 14400, Note_on_c, 2, 64, 66
4, 14400, Note_on_c, 2, 62, 66
4, 14400, Note_on_c, 2, 58, 66
4, 14588, Note_off_c, 2, 64, 64
4, 14588, Note_off_c, 2, 62, 64
4, 14588, Note_off_c, 2, 58, 64
4, 14592, Note_on_c, 2, 67, 66
4, 14592, Note_on_c, 2, 62, 66
4, 14592, Note_on_c, 2, 60, 66
4, 14780, Note_off_c, 2, 67, 64
4, 14780, Note_off_c, 2, 62, 64
4, 14780, Note_off_c, 2, 60, 64
4, 14784, Note_on_c, 2, 62, 66
4, 14784, Note_on_c, 2, 60, 66
4, 14784, Note_on_c, 2, 66, 66
4, 15164, Note_off_c, 2, 62, 64
4, 15164, Note_off_c, 2, 60, 64
4, 15164, Note_off_c, 2, 66, 64
4, 15168, Note_on_c, 2, 66, 66
4, 15168, Note_on_c, 2, 60, 66
4, 15168, Note_on_c, 2, 62, 66
4, 15356, Note_off_c, 2, 66, 64
4, 15356, Note_off_c, 2, 60, 64
4, 15360, Note_on_c, 2, 69, 66
4, 15360, Note_on_c, 2, 58, 66
4, 15548, Note_off_c, 2, 69, 64
4, 15552, Note_on_c, 2, 67, 66
4, 15932, Note_off_c, 2, 67, 64
4, 15936, Note_on_c, 2, 67, 66
4, 16124, Note_off_c, 2, 62, 64
4, 16124, Note_off_c, 2, 58, 64
4, 16316, Note_off_c, 2, 67, 64
4, 16320, Note_on_c, 2, 64, 66
4, 16700, Note_off_c, 2, 64, 64
4, 16704, Note_on_c, 2, 64, 66
4, 16896, Note_on_c, 2, 67, 66
4, 16896, Note_on_c, 2, 60, 66
4, 17084, Note_off_c, 2, 64, 64
4, 17084, Note_off_c, 2, 67, 64
4, 17084, Note_off_c, 2, 60, 64
4, 17088, Note_on_c, 2, 64, 66
4, 17088, Note_on_c, 2, 66, 66
4, 17088, Note_on_c, 2, 60, 66
4, 17468, Note_off_c, 2, 64, 64
4, 17468, Note_off_c, 2, 66, 64
4, 17468, Note_off_c, 2, 60, 64
4, 17472, Note_on_c, 2, 66, 66
4, 17472, Note_on_c, 2, 64, 66
4, 17472, Note_on_c, 2, 60, 66
4, 17660, Note_off_c, 2, 66, 64
4, 17660, Note_off_c, 2, 60, 64
4, 17664, Note_on_c, 2, 69, 66
4, 17664, Note_on_c, 2, 62, 66
4, 17852, Note_off_c, 2, 64, 64
4, 17852, Note_off_c, 2, 69, 64
4, 17852, Note_off_c, 2, 62, 64
4, 17856, Note_on_c, 2, 64, 66
4, 17856, Note_on_c, 2, 62, 66
4, 17856, Note_on_c, 2, 68, 66
4, 18236, Note_off_c, 2, 64, 64
4, 18236, Note_off_c, 2, 62, 64
4, 18236, Note_off_c, 2, 68, 64
4, 18240, Note_on_c, 2, 68, 66
4, 18240, Note_on_c, 2, 64, 66
4, 18240, Note_on_c, 2, 62, 66
4, 18428, Note_off_c, 2, 68, 64
4, 18428, Note_off_c, 2, 64, 64
4, 18428, Note_off_c, 2, 62, 64
4, 18432, Note_on_c, 2, 64, 66
4, 18432, Note_on_c, 2, 60, 66
4, 18432, Note_on_c, 2, 71, 66
4, 18620, Note_off_c, 2, 71, 64
4, 18624, Note_on_c, 2, 69, 66
4, 19004, Note_off_c, 2, 69, 64
4, 19008, Note_on_c, 2, 69, 66
4, 19196, Note_off_c, 2, 64, 64
4, 19196, Note_off_c, 2, 60, 64
4, 19200, Note_on_c, 2, 81, 66
4, 19388, Note_off_c, 2, 69, 64
4, 19392, Note_on_c, 2, 69, 66
4, 19772, Note_off_c, 2, 69, 64
4, 19776, Note_on_c, 2, 69, 66
4, 19964, Note_off_c, 2, 81, 64
4, 19968, Note_on_c, 2, 72, 66
4, 19968, Note_on_c, 2, 65, 66
4, 20156, Note_off_c, 2, 69, 64
4, 20156, Note_off_c, 2, 72, 64
4, 20156, Note_off_c, 2, 65, 64
4, 20160, Note_on_c, 2, 69, 66
4, 20160, Note_on_c, 2, 65, 66
4, 20160, Note_on_c, 2, 71, 66
4, 20540, Note_off_c, 2, 69, 64
4, 20540, Note_off_c, 2, 65, 64
4, 20540, Note_off_c, 2, 71, 64
4, 20544, Note_on_c, 2, 71, 66
4, 20544, Note_on_c, 2, 69, 66
4, 20544, Note_on_c, 2, 65, 66
4, 20732, Note_off_c, 2, 71, 64
4, 20732, Note_off_c, 2, 65, 64
4, 20736, Note_on_c, 2, 74, 66
4, 20736, Note_on_c, 2, 67, 66
4, 20924, Note_off_c, 2, 69, 64
4, 20924, Note_off_c, 2, 74, 64
4, 20924, Note_off_c, 2, 67, 64
4, 20928, Note_on_c, 2, 69, 66
4, 20928, Note_on_c, 2, 67, 66
4, 20928, Note_on_c, 2, 73, 66
4, 21308, Note_off_c, 2, 69, 64
4, 21308, Note_off_c, 2, 67, 64
4, 21308, Note_off_c, 2, 73, 64
4, 21312, Note_on_c, 2, 73, 66
4, 21312, Note_on_c, 2, 67, 66
4, 21312, Note_on_c, 2, 69, 66
4, 21500, Note_off_c, 2, 73, 64
4, 21500, Note_off_c, 2, 67, 64
4, 21504, Note_on_c, 2, 76, 66
4, 21504, Note_on_c, 2, 65, 66
4, 21692, Note_off_c, 2, 69, 64
4, 21692, Note_off_c, 2, 76, 64
4, 21692, Note_off_c, 2, 65, 64
4, 21696, Note_on_c, 2, 74, 66
4, 21696, Note_on_c, 2, 69, 66
4, 21888, Note_on_c, 2, 62, 66
4, 22076, Note_off_c, 2, 74, 64
4, 22076, Note_off_c, 2, 69, 64
4, 22080, Note_on_c, 2, 69, 66
4, 22080, Note_on_c, 2, 74, 66
4, 22268, Note_off_c, 2, 69, 64
4, 22272, Note_on_c, 2, 70, 66
4, 22460, Note_off_c, 2, 74, 64
4, 22460, Note_off_c, 2, 70, 64
4, 22464, Note_on_c, 2, 72, 66
4, 22464, Note_on_c, 2, 69, 66
4, 22652, Note_off_c, 2, 62, 64
4, 22656, Note_on_c, 2, 62, 66
4, 22844, Note_off_c, 2, 72, 64
4, 22844, Note_off_c, 2, 69, 64
4, 22848, Note_on_c, 2, 70, 66
4, 22848, Note_on_c, 2, 67, 66
4, 23228, Note_off_c, 2, 67, 64
4, 23228, Note_off_c, 2, 70, 64
4, 23232, Note_on_c, 2, 65, 66
4, 23232, Note_on_c, 2, 69, 66
4, 23420, Note_off_c, 2, 62, 64
4, 23612, Note_off_c, 2, 65, 64
4, 23612, Note_off_c, 2, 69, 64
4, 23616, Note_on_c, 2, 67, 66
4, 23616, Note_on_c, 2, 64, 66
4, 23996, Note_off_c, 2, 67, 64
4, 23996, Note_off_c, 2, 64, 64
4, 24000, Note_on_c, 2, 65, 66
4, 24000, Note_on_c, 2, 62, 66
4, 24380, Note_off_c, 2, 65, 64
4, 24380, Note_off_c, 2, 62, 64
4, 24384, Note_on_c, 2, 64, 66
4, 24384, Note_on_c, 2, 61, 66
4, 24572, Note_off_c, 2, 64, 64
4, 24572, Note_off_c, 2, 61, 64
4, 24576, Note_on_c, 2, 62, 85
4, 24764, Note_off_c, 2, 62, 64
4, 25152, Note_on_c, 2, 57, 85
4, 25212, Note_off_c, 2, 57, 64
4, 25216, Note_on_c, 2, 59, 85
4, 25276, Note_off_c, 2, 59, 64
4, 25280, Note_on_c, 2, 61, 85
4, 25340, Note_off_c, 2, 61, 64
4, 25344, Note_on_c, 2, 62, 85
4, 25724, Note_off_c, 2, 62, 64
4, 26688, Note_on_c, 2, 69, 85
4, 26748, Note_off_c, 2, 69, 64
4, 26752, Note_on_c, 2, 71, 85
4, 26812, Note_off_c, 2, 71, 64
4, 26816, Note_on_c, 2, 73, 85
4, 26876, Note_off_c, 2, 73, 64
4, 26880, Note_on_c, 2, 74, 85
4, 27260, Note_off_c, 2, 74, 64
4, 27456, Note_on_c, 2, 81, 85
4, 27516, Note_off_c, 2, 81, 64
4, 27520, Note_on_c, 2, 83, 85
4, 27580, Note_off_c, 2, 83, 64
4, 27584, Note_on_c, 2, 85, 85
4, 27644, Note_off_c, 2, 85, 64
4, 27648, Note_on_c, 2, 86, 85
4, 28028, Note_off_c, 2, 86, 64
4, 28032, Note_on_c, 2, 81, 85
4, 28032, Note_on_c, 2, 69, 85
4, 28220, Note_off_c, 2, 81, 64
4, 28220, Note_off_c, 2, 69, 64
4, 28416, Note_on_c, 2, 77, 85
4, 28416, Note_on_c, 2, 65, 85
4, 28604, Note_off_c, 2, 77, 64
4, 28604, Note_off_c, 2, 65, 64
4, 28800, Note_on_c, 2, 74, 85
4, 28800, Note_on_c, 2, 62, 85
4, 28988, Note_off_c, 2, 74, 64
4, 28988, Note_off_c, 2, 62, 64
4, 29184, Note_on_c, 2, 61, 85
4, 29184, Note_on_c, 2, 55, 85
4, 29276, Note_off_c, 2, 55, 64
4, 29280, Note_on_c, 2, 58, 85
4, 29372, Note_off_c, 2, 58, 64
4, 29376, Note_on_c, 2, 55, 85
4, 29468, Note_off_c, 2, 55, 64
4, 29472, Note_on_c, 2, 58, 85
4, 29564, Note_off_c, 2, 58, 64
4, 29568, Note_on_c, 2, 55, 85
4, 29660, Note_off_c, 2, 55, 64
4, 29664, Note_on_c, 2, 58, 85
4, 29756, Note_off_c, 2, 58, 64
4, 29760, Note_on_c, 2, 55, 85
4, 29852, Note_off_c, 2, 55, 64
4, 29856, Note_on_c, 2, 58, 85
4, 29948, Note_off_c, 2, 61, 64
4, 29948, Note_off_c, 2, 58, 64
4, 29952, Note_on_c, 2, 55, 85
4, 30044, Note_off_c, 2, 55, 64
4, 30048, Note_on_c, 2, 58, 85
4, 30140, Note_off_c, 2, 58, 64
4, 30144, Note_on_c, 2, 55, 85
4, 30236, Note_off_c, 2, 55, 64
4, 30240, Note_on_c, 2, 58, 85
4, 30332, Note_off_c, 2, 58, 64
4, 30528, Note_on_c, 2, 76, 85
4, 30568, Note_off_c, 2, 76, 64
4, 30576, Note_on_c, 2, 77, 85
4, 30616, Note_off_c, 2, 77, 64
4, 30624, Note_on_c, 2, 79, 85
4, 30664, Note_off_c, 2, 79, 64
4, 30672, Note_on_c, 2, 81, 85
4, 30712, Note_off_c, 2, 81, 64
4, 30720, Note_on_c, 2, 82, 85
4, 31100, Note_off_c, 2, 82, 64
4, 31104, Note_on_c, 2, 77, 85
4, 31104, Note_on_c, 2, 65, 85
4, 31292, Note_off_c, 2, 77, 64
4, 31292, Note_off_c, 2, 65, 64
4, 31488, Note_on_c, 2, 74, 85
4, 31488, Note_on_c, 2, 62, 86
4, 31676, Note_off_c, 2, 74, 64
4, 31676, Note_off_c, 2, 62, 64
4, 31872, Note_on_c, 2, 70, 85
4, 31872, Note_on_c, 2, 58, 87
4, 32060, Note_off_c, 2, 70, 64
4, 32060, Note_off_c, 2, 58, 64
4, 32256, Note_on_c, 2, 69, 85
4, 32256, Note_on_c, 2, 57, 88
4, 32828, Note_off_c, 2, 69, 64
4, 32828, Note_off_c, 2, 57, 64
4, 32832, Note_on_c, 2, 70, 85
4, 32832, Note_on_c, 2, 58, 87
4, 33020, Note_off_c, 2, 70, 64
4, 33020, Note_off_c, 2, 58, 64
4, 33024, Note_on_c, 2, 69, 85
4, 33024, Note_on_c, 2, 57, 88
4, 33212, Note_off_c, 2, 69, 64
4, 33212, Note_off_c, 2, 57, 64
4, 33216, Note_on_c, 2, 68, 85
4, 33216, Note_on_c, 2, 56, 89
4, 33404, Note_off_c, 2, 68, 64
4, 33404, Note_off_c, 2, 56, 64
4, 33408, Note_on_c, 2, 69, 85
4, 33408, Note_on_c, 2, 57, 88
4, 33596, Note_off_c, 2, 69, 64
4, 33596, Note_off_c, 2, 57, 64
4, 33600, Note_on_c, 2, 68, 85
4, 33600, Note_on_c, 2, 56, 88
4, 33788, Note_off_c, 2, 68, 64
4, 33788, Note_off_c, 2, 56, 64
4, 33792, Note_on_c, 2, 69, 85
4, 33792, Note_on_c, 2, 57, 88
4, 34364, Note_off_c, 2, 69, 64
4, 34364, Note_off_c, 2, 57, 64
4, 34368, Note_on_c, 2, 70, 85
4, 34368, Note_on_c, 2, 58, 87
4, 34556, Note_off_c, 2, 70, 64
4, 34556, Note_off_c, 2, 58, 64
4, 34560, Note_on_c, 2, 69, 85
4, 34560, Note_on_c, 2, 57, 88
4, 34748, Note_off_c, 2, 69, 64
4, 34748, Note_off_c, 2, 57, 64
4, 34752, Note_on_c, 2, 68, 85
4, 34752, Note_on_c, 2, 56, 89
4, 34940, Note_off_c, 2, 68, 64
4, 34940, Note_off_c, 2, 56, 64
4, 34944, Note_on_c, 2, 69, 85
4, 34944, Note_on_c, 2, 57, 88
4, 35132, Note_off_c, 2, 69, 64
4, 35132, Note_off_c, 2, 57, 64
4, 35136, Note_on_c, 2, 68, 85
4, 35136, Note_on_c, 2, 56, 88
4, 35324, Note_off_c, 2, 68, 64
4, 35324, Note_off_c, 2, 56, 64
4, 35328, Note_on_c, 2, 69, 85
4, 35328, Note_on_c, 2, 57, 88
4, 35516, Note_off_c, 2, 69, 64
4, 35516, Note_off_c, 2, 57, 64
4, 35520, Note_on_c, 2, 64, 85
4, 35520, Note_on_c, 2, 61, 85
4, 35900, Note_off_c, 2, 64, 64
4, 35900, Note_off_c, 2, 61, 64
4, 35904, Note_on_c, 2, 62, 66
4, 35904, Note_on_c, 2, 59, 68
4, 36092, Note_off_c, 2, 62, 64
4, 36092, Note_off_c, 2, 59, 64
4, 36096, Note_on_c, 2, 61, 66
4, 36096, Note_on_c, 2, 57, 68
4, 36284, Note_off_c, 2, 61, 64
4, 36284, Note_off_c, 2, 57, 64
4, 36288, Note_on_c, 2, 67, 66
4, 36288, Note_on_c, 2, 64, 68
4, 36668, Note_off_c, 2, 67, 64
4, 36668, Note_off_c, 2, 64, 64
4, 36672, Note_on_c, 2, 65, 66
4, 36672, Note_on_c, 2, 62, 68
4, 36860, Note_off_c, 2, 65, 64
4, 36860, Note_off_c, 2, 62, 64
4, 36864, Note_on_c, 2, 64, 66
4, 36864, Note_on_c, 2, 61, 66
4, 37052, Note_off_c, 2, 64, 64
4, 37052, Note_off_c, 2, 61, 64
4, 37056, Note_on_c, 2, 76, 66
4, 37056, Note_on_c, 2, 73, 66
4, 37056, Note_on_c, 2, 70, 66
4, 37056, Note_on_c, 2, 67, 66
4, 37436, Note_off_c, 2, 76, 64
4, 37436, Note_off_c, 2, 73, 64
4, 37436, Note_off_c, 2, 70, 64
4, 37436, Note_off_c, 2, 67, 64
4, 37440, Note_on_c, 2, 77, 66
4, 37440, Note_on_c, 2, 74, 66
4, 37440, Note_on_c, 2, 65, 66
4, 37440, Note_on_c, 2, 69, 66
4, 37628, Note_off_c, 2, 77, 64
4, 37628, Note_off_c, 2, 74, 64
4, 37628, Note_off_c, 2, 65, 64
4, 37628, Note_off_c, 2, 69, 64
4, 37632, Note_on_c, 2, 79, 66
4, 37632, Note_on_c, 2, 76, 66
4, 37632, Note_on_c, 2, 64, 66
4, 37632, Note_on_c, 2, 67, 66
4, 37820, Note_off_c, 2, 79, 64
4, 37820, Note_off_c, 2, 76, 64
4, 37820, Note_off_c, 2, 64, 64
4, 37820, Note_off_c, 2, 67, 64
4, 37824, Note_on_c, 2, 79, 66
4, 37824, Note_on_c, 2, 76, 66
4, 37824, Note_on_c, 2, 67, 66
4, 37824, Note_on_c, 2, 64, 66
4, 38204, Note_off_c, 2, 79, 64
4, 38204, Note_off_c, 2, 76, 64
4, 38204, Note_off_c, 2, 67, 64
4, 38204, Note_off_c, 2, 64, 64
4, 38208, Note_on_c, 2, 81, 66
4, 38208, Note_on_c, 2, 77, 66
4, 38208, Note_on_c, 2, 65, 66
4, 38208, Note_on_c, 2, 62, 66
4, 38396, Note_off_c, 2, 81, 64
4, 38396, Note_off_c, 2, 77, 64
4, 38396, Note_off_c, 2, 65, 64
4, 38396, Note_off_c, 2, 62, 64
4, 38400, Note_on_c, 2, 82, 66
4, 38400, Note_on_c, 2, 79, 66
4, 38780, Note_off_c, 2, 82, 64
4, 38780, Note_off_c, 2, 79, 64
4, 38784, Note_on_c, 2, 79, 66
4, 38784, Note_on_c, 2, 76, 66
4, 38972, Note_off_c, 2, 79, 64
4, 38972, Note_off_c, 2, 76, 64
4, 39168, Note_on_c, 2, 82, 66
4, 39168, Note_on_c, 2, 79, 66
4, 39548, Note_off_c, 2, 82, 64
4, 39548, Note_off_c, 2, 79, 64
4, 39552, Note_on_c, 2, 79, 66
4, 39552, Note_on_c, 2, 76, 66
4, 39740, Note_off_c, 2, 79, 64
4, 39740, Note_off_c, 2, 76, 64
4, 39936, Note_on_c, 2, 81, 66
4, 39936, Note_on_c, 2, 77, 66
4, 40316, Note_off_c, 2, 81, 64
4, 40316, Note_off_c, 2, 77, 64
4, 40320, Note_on_c, 2, 77, 66
4, 40320, Note_on_c, 2, 74, 66
4, 40508, Note_off_c, 2, 77, 64
4, 40508, Note_off_c, 2, 74, 64
4, 40704, Note_on_c, 2, 81, 66
4, 40704, Note_on_c, 2, 77, 66
4, 41084, Note_off_c, 2, 81, 64
4, 41084, Note_off_c, 2, 77, 64
4, 41088, Note_on_c, 2, 77, 66
4, 41088, Note_on_c, 2, 74, 66
4, 41276, Note_off_c, 2, 77, 64
4, 41276, Note_off_c, 2, 74, 64
4, 41472, Note_on_c, 2, 79, 66
4, 41472, Note_on_c, 2, 76, 66
4, 41660, Note_off_c, 2, 79, 64
4, 41660, Note_off_c, 2, 76, 64
4, 41856, Note_on_c, 2, 79, 66
4, 41856, Note_on_c, 2, 76, 66
4, 42044, Note_off_c, 2, 79, 64
4, 42044, Note_off_c, 2, 76, 64
4, 42240, Note_on_c, 2, 77, 66
4, 42240, Note_on_c, 2, 74, 66
4, 42428, Note_off_c, 2, 77, 64
4, 42428, Note_off_c, 2, 74, 64
4, 42624, Note_on_c, 2, 77, 66
4, 42624, Note_on_c, 2, 74, 66
4, 42812, Note_off_c, 2, 77, 64
4, 42812, Note_off_c, 2, 74, 64
4, 43008, Note_on_c, 2, 76, 81
4, 43008, Note_on_c, 2, 73, 81
4, 43008, Note_on_c, 2, 69, 81
4, 43388, Note_off_c, 2, 76, 64
4, 43388, Note_off_c, 2, 73, 64
4, 43388, Note_off_c, 2, 69, 64
4, 43392, Note_on_c, 2, 73, 81
4, 43392, Note_on_c, 2, 69, 81
4, 43392, Note_on_c, 2, 76, 81
4, 43680, Note_off_c, 2, 73, 64
4, 43680, Note_off_c, 2, 69, 64
4, 43680, Note_off_c, 2, 76, 64
4, 43680, Note_on_c, 2, 76, 92
4, 43680, Note_on_c, 2, 69, 92
4, 43680, Note_on_c, 2, 73, 92
4, 43772, Note_off_c, 2, 76, 64
4, 43772, Note_off_c, 2, 69, 64
4, 43772, Note_off_c, 2, 73, 64
4, 43776, Note_on_c, 2, 76, 81
4, 43776, Note_on_c, 2, 69, 81
4, 43776, Note_on_c, 2, 73, 81
4, 44156, Note_off_c, 2, 76, 64
4, 44156, Note_off_c, 2, 69, 64
4, 44156, Note_off_c, 2, 73, 64
4, 44160, Note_on_c, 2, 85, 81
4, 44160, Note_on_c, 2, 81, 81
4, 44160, Note_on_c, 2, 76, 81
4, 44348, Note_off_c, 2, 85, 64
4, 44348, Note_off_c, 2, 81, 64
4, 44348, Note_off_c, 2, 76, 64
4, 44544, Note_on_c, 2, 86, 81
4, 44544, Note_on_c, 2, 81, 81
4, 44544, Note_on_c, 2, 77, 81
4, 44924, Note_off_c, 2, 86, 64
4, 44924, Note_off_c, 2, 81, 64
4, 44924, Note_off_c, 2, 77, 64
4, 44928, Note_on_c, 2, 69, 81
4, 44928, Note_on_c, 2, 77, 81
4, 44928, Note_on_c, 2, 74, 81
4, 45212, Note_off_c, 2, 69, 64
4, 45212, Note_off_c, 2, 77, 64
4, 45212, Note_off_c, 2, 74, 64
4, 45216, Note_on_c, 2, 77, 92
4, 45216, Note_on_c, 2, 74, 92
4, 45216, Note_on_c, 2, 69, 92
4, 45308, Note_off_c, 2, 77, 64
4, 45308, Note_off_c, 2, 74, 64
4, 45308, Note_off_c, 2, 69, 64
4, 45312, Note_on_c, 2, 77, 81
4, 45312, Note_on_c, 2, 74, 81
4, 45312, Note_on_c, 2, 69, 81
4, 45692, Note_off_c, 2, 77, 64
4, 45692, Note_off_c, 2, 74, 64
4, 45692, Note_off_c, 2, 69, 64
4, 45696, Note_on_c, 2, 77, 81
4, 45696, Note_on_c, 2, 81, 81
4, 45696, Note_on_c, 2, 86, 81
4, 45884, Note_off_c, 2, 77, 64
4, 45884, Note_off_c, 2, 81, 64
4, 45884, Note_off_c, 2, 86, 64
4, 46080, Note_on_c, 2, 81, 81
4, 46080, Note_on_c, 2, 85, 81
4, 46080, Note_on_c, 2, 76, 81
4, 46460, Note_off_c, 2, 81, 64
4, 46460, Note_off_c, 2, 85, 64
4, 46460, Note_off_c, 2, 76, 64
4, 46464, Note_on_c, 2, 73, 81
4, 46464, Note_on_c, 2, 69, 81
4, 46464, Note_on_c, 2, 76, 81
4, 46748, Note_off_c, 2, 73, 64
4, 46748, Note_off_c, 2, 69, 64
4, 46748, Note_off_c, 2, 76, 64
4, 46752, Note_on_c, 2, 76, 92
4, 46752, Note_on_c, 2, 69, 92
4, 46752, Note_on_c, 2, 73, 92
4, 46844, Note_off_c, 2, 76, 64
4, 46844, Note_off_c, 2, 69, 64
4, 46844, Note_off_c, 2, 73, 64
4, 46848, Note_on_c, 2, 76, 81
4, 46848, Note_on_c, 2, 73, 81
4, 46848, Note_on_c, 2, 69, 81
4, 47228, Note_off_c, 2, 76, 64
4, 47228, Note_off_c, 2, 73, 64
4, 47228, Note_off_c, 2, 69, 64
4, 47232, Note_on_c, 2, 76, 81
4, 47232, Note_on_c, 2, 81, 81
4, 47232, Note_on_c, 2, 85, 81
4, 47420, Note_off_c, 2, 76, 64
4, 47420, Note_off_c, 2, 81, 64
4, 47420, Note_off_c, 2, 85, 64
4, 47616, Note_on_c, 2, 86, 81
4, 47616, Note_on_c, 2, 81, 81
4, 47616, Note_on_c, 2, 77, 81
4, 47996, Note_off_c, 2, 86, 64
4, 47996, Note_off_c, 2, 81, 64
4, 47996, Note_off_c, 2, 77, 64
4, 48000, Note_on_c, 2, 74, 81
4, 48000, Note_on_c, 2, 69, 81
4, 48000, Note_on_c, 2, 77, 81
4, 48284, Note_off_c, 2, 74, 64
4, 48284, Note_off_c, 2, 69, 64
4, 48284, Note_off_c, 2, 77, 64
4, 48288, Note_on_c, 2, 77, 92
4, 48288, Note_on_c, 2, 74, 92
4, 48288, Note_on_c, 2, 69, 92
4, 48380, Note_off_c, 2, 77, 64
4, 48380, Note_off_c, 2, 74, 64
4, 48380, Note_off_c, 2, 69, 64
4, 48384, Note_on_c, 2, 77, 81
4, 48384, Note_on_c, 2, 74, 81
4, 48384, Note_on_c, 2, 69, 81
4, 48764, Note_off_c, 2, 77, 64
4, 48764, Note_off_c, 2, 74, 64
4, 48764, Note_off_c, 2, 69, 64
4, 48768, Note_on_c, 2, 77, 81
4, 48768, Note_on_c, 2, 81, 81
4, 48768, Note_on_c, 2, 86, 81
4, 48956, Note_off_c, 2, 77, 64
4, 48956, Note_off_c, 2, 81, 64
4, 48956, Note_off_c, 2, 86, 64
4, 49152, Note_on_c, 2, 85, 81
4, 49152, Note_on_c, 2, 81, 81
4, 49152, Note_on_c, 2, 76, 81
4, 49532, Note_off_c, 2, 85, 64
4, 49532, Note_off_c, 2, 81, 64
4, 49532, Note_off_c, 2, 76, 64
4, 50688, Note_on_c, 2, 77, 66
4, 51452, Note_off_c, 2, 77, 64
4, 51456, Note_on_c, 2, 76, 66
4, 52220, Note_off_c, 2, 76, 64
4, 52224, Note_on_c, 2, 77, 70
4, 52416, Note_on_c, 2, 72, 70
4, 52604, Note_off_c, 2, 77, 64
4, 52604, Note_off_c, 2, 72, 64
4, 52608, Note_on_c, 2, 84, 74
4, 52608, Note_on_c, 2, 69, 68
4, 52608, Note_on_c, 2, 65, 68
4, 52796, Note_off_c, 2, 84, 64
4, 52800, Note_on_c, 2, 84, 78
4, 52892, Note_off_c, 2, 84, 64
4, 52988, Note_off_c, 2, 69, 64
4, 52988, Note_off_c, 2, 65, 64
4, 52992, Note_on_c, 2, 84, 74
4, 52992, Note_on_c, 2, 70, 68
4, 52992, Note_on_c, 2, 67, 68
4, 53180, Note_off_c, 2, 84, 64
4, 53184, Note_on_c, 2, 76, 70
4, 53372, Note_off_c, 2, 70, 64
4, 53372, Note_off_c, 2, 67, 64
4, 53372, Note_off_c, 2, 76, 64
4, 53376, Note_on_c, 2, 76, 68
4, 53376, Note_on_c, 2, 72, 67
4, 53376, Note_on_c, 2, 69, 66
4, 53564, Note_off_c, 2, 76, 64
4, 53568, Note_on_c, 2, 77, 69
4, 53756, Note_off_c, 2, 72, 64
4, 53756, Note_off_c, 2, 69, 64
4, 53756, Note_off_c, 2, 77, 64
4, 53760, Note_on_c, 2, 79, 68
4, 54524, Note_off_c, 2, 79, 64
4, 54528, Note_on_c, 2, 78, 68
4, 55292, Note_off_c, 2, 78, 64
4, 55296, Note_on_c, 2, 79, 69
4, 55488, Note_on_c, 2, 74, 69
4, 55676, Note_off_c, 2, 79, 64
4, 55676, Note_off_c, 2, 74, 64
4, 55680, Note_on_c, 2, 86, 74
4, 55680, Note_on_c, 2, 70, 68
4, 55680, Note_on_c, 2, 67, 68
4, 55868, Note_off_c, 2, 86, 64
4, 55872, Note_on_c, 2, 86, 78
4, 55964, Note_off_c, 2, 86, 64
4, 56060, Note_off_c, 2, 70, 64
4, 56060, Note_off_c, 2, 67, 64
4, 56064, Note_on_c, 2, 86, 74
4, 56064, Note_on_c, 2, 72, 68
4, 56064, Note_on_c, 2, 69, 68
4, 56252, Note_off_c, 2, 86, 64
4, 56256, Note_on_c, 2, 78, 69
4, 56444, Note_off_c, 2, 72, 64
4, 56444, Note_off_c, 2, 69, 64
4, 56444, Note_off_c, 2, 78, 64
4, 56448, Note_on_c, 2, 78, 66
4, 56448, Note_on_c, 2, 74, 66
4, 56448, Note_on_c, 2, 70, 66
4, 56636, Note_off_c, 2, 78, 64
4, 56640, Note_on_c, 2, 79, 69
4, 56828, Note_off_c, 2, 74, 64
4, 56828, Note_off_c, 2, 70, 64
4, 56828, Note_off_c, 2, 79, 64
4, 56832, Note_on_c, 2, 81, 68
4, 57596, Note_off_c, 2, 81, 64
4, 57600, Note_on_c, 2, 80, 68
4, 58364, Note_off_c, 2, 80, 64
4, 58368, Note_on_c, 2, 81, 69
4, 58560, Note_on_c, 2, 76, 69
4, 58748, Note_off_c, 2, 81, 64
4, 58748, Note_off_c, 2, 76, 64
4, 58752, Note_on_c, 2, 88, 74
4, 58752, Note_on_c, 2, 72, 68
4, 58752, Note_on_c, 2, 69, 68
4, 58940, Note_off_c, 2, 88, 64
4, 58944, Note_on_c, 2, 88, 78
4, 59036, Note_off_c, 2, 88, 64
4, 59132, Note_off_c, 2, 72, 64
4, 59132, Note_off_c, 2, 69, 64
4, 59136, Note_on_c, 2, 88, 74
4, 59136, Note_on_c, 2, 74, 68
4, 59136, Note_on_c, 2, 70, 68
4, 59324, Note_off_c, 2, 88, 64
4, 59328, Note_on_c, 2, 80, 69
4, 59516, Note_off_c, 2, 74, 64
4, 59516, Note_off_c, 2, 70, 64
4, 59516, Note_off_c, 2, 80, 64
4, 59520, Note_on_c, 2, 80, 66
4, 59520, Note_on_c, 2, 72, 66
4, 59520, Note_on_c, 2, 76, 66
4, 59708, Note_off_c, 2, 80, 64
4, 59712, Note_on_c, 2, 81, 69
4, 59900, Note_off_c, 2, 72, 64
4, 59900, Note_off_c, 2, 76, 64
4, 59900, Note_off_c, 2, 81, 64
4, 59904, Note_on_c, 2, 82, 69
4, 59904, Note_on_c, 2, 77, 67
4, 60092, Note_off_c, 2, 82, 64
4, 60092, Note_off_c, 2, 77, 64
4, 60096, Note_on_c, 2, 70, 68
4, 60284, Note_off_c, 2, 70, 64
4, 60288, Note_on_c, 2, 82, 70
4, 60476, Note_off_c, 2, 82, 64
4, 60480, Note_on_c, 2, 81, 69
4, 60668, Note_off_c, 2, 81, 64
4, 60672, Note_on_c, 2, 79, 68
4, 60860, Note_off_c, 2, 79, 64
4, 60864, Note_on_c, 2, 67, 67
4, 61052, Note_off_c, 2, 67, 64
4, 61056, Note_on_c, 2, 72, 66
4, 61244, Note_off_c, 2, 72, 64
4, 61248, Note_on_c, 2, 70, 66
4, 61436, Note_off_c, 2, 70, 64
4, 61440, Note_on_c, 2, 69, 66
4, 61628, Note_off_c, 2, 69, 64
4, 61632, Note_on_c, 2, 72, 68
4, 61820, Note_off_c, 2, 72, 64
4, 61824, Note_on_c, 2, 81, 70
4, 62012, Note_off_c, 2, 81, 64
4, 62016, Note_on_c, 2, 79, 69
4, 62204, Note_off_c, 2, 79, 64
4, 62208, Note_on_c, 2, 77, 68
4, 62396, Note_off_c, 2, 77, 64
4, 62400, Note_on_c, 2, 65, 67
4, 62588, Note_off_c, 2, 65, 64
4, 62592, Note_on_c, 2, 70, 66
4, 62780, Note_off_c, 2, 70, 64
4, 62784, Note_on_c, 2, 69, 66
4, 62972, Note_off_c, 2, 69, 64
4, 62976, Note_on_c, 2, 67, 66
4, 63164, Note_off_c, 2, 67, 64
4, 63168, Note_on_c, 2, 74, 68
4, 63356, Note_off_c, 2, 74, 64
4, 63360, Note_on_c, 2, 79, 70
4, 63548, Note_off_c, 2, 79, 64
4, 63552, Note_on_c, 2, 77, 69
4, 63740, Note_off_c, 2, 77, 64
4, 63744, Note_on_c, 2, 76, 68
4, 63932, Note_off_c, 2, 76, 64
4, 63936, Note_on_c, 2, 64, 67
4, 64124, Note_off_c, 2, 64, 64
4, 64128, Note_on_c, 2, 69, 66
4, 64316, Note_off_c, 2, 69, 64
4, 64320, Note_on_c, 2, 67, 66
4, 64508, Note_off_c, 2, 67, 64
4, 64512, Note_on_c, 2, 65, 66
4, 64700, Note_off_c, 2, 65, 64
4, 64704, Note_on_c, 2, 69, 68
4, 64892, Note_off_c, 2, 69, 64
4, 64896, Note_on_c, 2, 77, 70
4, 65084, Note_off_c, 2, 77, 64
4, 65088, Note_on_c, 2, 76, 69
4, 65276, Note_off_c, 2, 76, 64
4, 65280, Note_on_c, 2, 74, 68
4, 65468, Note_off_c, 2, 74, 64
4, 65472, Note_on_c, 2, 62, 67
4, 65660, Note_off_c, 2, 62, 64
4, 65664, Note_on_c, 2, 67, 66
4, 65852, Note_off_c, 2, 67, 64
4, 65856, Note_on_c, 2, 65, 66
4, 66044, Note_off_c, 2, 65, 64
4, 66048, Note_on_c, 2, 64, 66
4, 66236, Note_off_c, 2, 64, 64
4, 66240, Note_on_c, 2, 70, 68
4, 66428, Note_off_c, 2, 70, 64
4, 66432, Note_on_c, 2, 76, 70
4, 66620, Note_off_c, 2, 76, 64
4, 66624, Note_on_c, 2, 74, 69
4, 66812, Note_off_c, 2, 74, 64
4, 66816, Note_on_c, 2, 73, 68
4, 67004, Note_off_c, 2, 73, 64
4, 67008, Note_on_c, 2, 64, 67
4, 67196, Note_off_c, 2, 64, 64
4, 67200, Note_on_c, 2, 69, 66
4, 67388, Note_off_c, 2, 69, 64
4, 67392, Note_on_c, 2, 61, 66
4, 67580, Note_off_c, 2, 61, 64
4, 67584, Note_on_c, 2, 74, 79
4, 67584, Note_on_c, 2, 62, 79
4, 68252, Note_off_c, 2, 74, 64
4, 68252, Note_off_c, 2, 62, 64
4, 68256, Note_on_c, 2, 74, 79
4, 68256, Note_on_c, 2, 62, 79
4, 68348, Note_off_c, 2, 74, 67
4, 68348, Note_off_c, 2, 62, 64
4, 68448, Note_on_c, 2, 64, 79
4, 68448, Note_on_c, 2, 76, 79
4, 68540, Note_off_c, 2, 64, 64
4, 68540, Note_off_c, 2, 76, 64
4, 68640, Note_on_c, 2, 74, 79
4, 68640, Note_on_c, 2, 62, 79
4, 68732, Note_off_c, 2, 74, 64
4, 68732, Note_off_c, 2, 62, 64
4, 68832, Note_on_c, 2, 76, 79
4, 68832, Note_on_c, 2, 64, 79
4, 68924, Note_off_c, 2, 76, 64
4, 68924, Note_off_c, 2, 64, 64
4, 69024, Note_on_c, 2, 78, 79
4, 69024, Note_on_c, 2, 66, 79
4, 69116, Note_off_c, 2, 78, 64
4, 69116, Note_off_c, 2, 66, 64
4, 69216, Note_on_c, 2, 79, 79
4, 69216, Note_on_c, 2, 74, 79
4, 69216, Note_on_c, 2, 67, 79
4, 69308, Note_off_c, 2, 79, 64
4, 69308, Note_off_c, 2, 74, 64
4, 69308, Note_off_c, 2, 67, 64
4, 69408, Note_on_c, 2, 78, 79
4, 69408, Note_on_c, 2, 66, 79
4, 69500, Note_off_c, 2, 78, 64
4, 69500, Note_off_c, 2, 66, 64
4, 69600, Note_on_c, 2, 67, 79
4, 69600, Note_on_c, 2, 79, 79
4, 69692, Note_off_c, 2, 67, 64
4, 69692, Note_off_c, 2, 79, 64
4, 69792, Note_on_c, 2, 64, 79
4, 69792, Note_on_c, 2, 76, 79
4, 69884, Note_off_c, 2, 64, 64
4, 69884, Note_off_c, 2, 76, 64
4, 69984, Note_on_c, 2, 66, 79
4, 69984, Note_on_c, 2, 78, 79
4, 70076, Note_off_c, 2, 66, 64
4, 70076, Note_off_c, 2, 78, 64
4, 70176, Note_on_c, 2, 76, 79
4, 70176, Note_on_c, 2, 64, 79
4, 70268, Note_off_c, 2, 76, 64
4, 70268, Note_off_c, 2, 64, 64
4, 70368, Note_on_c, 2, 66, 79
4, 70368, Note_on_c, 2, 78, 79
4, 70460, Note_off_c, 2, 66, 64
4, 70460, Note_off_c, 2, 78, 64
4, 70560, Note_on_c, 2, 80, 79
4, 70560, Note_on_c, 2, 68, 79
4, 70652, Note_off_c, 2, 80, 64
4, 70652, Note_off_c, 2, 68, 64
4, 70752, Note_on_c, 2, 81, 79
4, 70752, Note_on_c, 2, 69, 79
4, 70752, Note_on_c, 2, 74, 79
4, 70844, Note_off_c, 2, 81, 64
4, 70844, Note_off_c, 2, 69, 64
4, 70844, Note_off_c, 2, 74, 64
4, 70944, Note_on_c, 2, 68, 79
4, 70944, Note_on_c, 2, 80, 79
4, 71036, Note_off_c, 2, 68, 64
4, 71036, Note_off_c, 2, 80, 64
4, 71136, Note_on_c, 2, 69, 79
4, 71136, Note_on_c, 2, 81, 79
4, 71228, Note_off_c, 2, 69, 64
4, 71228, Note_off_c, 2, 81, 64
4, 71328, Note_on_c, 2, 78, 79
4, 71328, Note_on_c, 2, 66, 79
4, 71420, Note_off_c, 2, 78, 64
4, 71420, Note_off_c, 2, 66, 64
4, 71520, Note_on_c, 2, 79, 79
4, 71520, Note_on_c, 2, 67, 79
4, 71612, Note_off_c, 2, 79, 64
4, 71612, Note_off_c, 2, 67, 64
4, 71712, Note_on_c, 2, 66, 79
4, 71712, Note_on_c, 2, 78, 79
4, 71804, Note_off_c, 2, 66, 64
4, 71804, Note_off_c, 2, 78, 64
4, 71904, Note_on_c, 2, 79, 79
4, 71904, Note_on_c, 2, 67, 79
4, 71996, Note_off_c, 2, 79, 64
4, 71996, Note_off_c, 2, 67, 64
4, 72096, Note_on_c, 2, 81, 79
4, 72096, Note_on_c, 2, 69, 79
4, 72188, Note_off_c, 2, 81, 64
4, 72188, Note_off_c, 2, 69, 64
4, 72192, Note_on_c, 2, 82, 81
4, 72192, Note_on_c, 2, 74, 81
4, 72192, Note_on_c, 2, 70, 81
4, 72572, Note_off_c, 2, 82, 64
4, 72572, Note_off_c, 2, 74, 64
4, 72572, Note_off_c, 2, 70, 64
4, 72576, Note_on_c, 2, 83, 81
4, 72576, Note_on_c, 2, 79, 81
4, 72576, Note_on_c, 2, 74, 81
4, 72576, Note_on_c, 2, 71, 81
4, 72956, Note_off_c, 2, 83, 64
4, 72956, Note_off_c, 2, 79, 64
4, 72956, Note_off_c, 2, 74, 64
4, 72956, Note_off_c, 2, 71, 64
4, 72960, Note_on_c, 2, 84, 81
4, 72960, Note_on_c, 2, 79, 81
4, 72960, Note_on_c, 2, 76, 81
4, 72960, Note_on_c, 2, 72, 81
4, 73340, Note_off_c, 2, 84, 64
4, 73340, Note_off_c, 2, 79, 64
4, 73340, Note_off_c, 2, 76, 64
4, 73340, Note_off_c, 2, 72, 64
4, 73344, Note_on_c, 2, 85, 81
4, 73344, Note_on_c, 2, 81, 81
4, 73344, Note_on_c, 2, 76, 81
4, 73344, Note_on_c, 2, 73, 81
4, 73724, Note_off_c, 2, 85, 64
4, 73724, Note_off_c, 2, 81, 64
4, 73724, Note_off_c, 2, 76, 64
4, 73724, Note_off_c, 2, 73, 64
4, 73728, Note_on_c, 2, 86, 81
4, 73728, Note_on_c, 2, 81, 81
4, 73728, Note_on_c, 2, 77, 81
4, 73728, Note_on_c, 2, 74, 81
4, 74108, Note_off_c, 2, 86, 64
4, 74108, Note_off_c, 2, 81, 64
4, 74108, Note_off_c, 2, 77, 64
4, 74108, Note_off_c, 2, 74, 64
4, 74112, Note_on_c, 2, 81, 81
4, 74112, Note_on_c, 2, 69, 81
4, 74300, Note_off_c, 2, 81, 64
4, 74300, Note_off_c, 2, 69, 64
4, 74496, Note_on_c, 2, 77, 81
4, 74496, Note_on_c, 2, 65, 81
4, 74684, Note_off_c, 2, 77, 64
4, 74684, Note_off_c, 2, 65, 64
4, 74880, Note_on_c, 2, 74, 81
4, 74880, Note_on_c, 2, 62, 81
4, 75068, Note_off_c, 2, 74, 64
4, 75068, Note_off_c, 2, 62, 64
4, 75264, Note_on_c, 2, 63, 81
4, 75264, Note_on_c, 2, 58, 81
4, 75264, Note_on_c, 2, 55, 81
4, 76028, Note_off_c, 2, 63, 64
4, 76028, Note_off_c, 2, 58, 64
4, 76028, Note_off_c, 2, 55, 64
4, 76224, Note_on_c, 2, 82, 81
4, 76224, Note_on_c, 2, 70, 81
4, 76316, Note_off_c, 2, 82, 64
4, 76316, Note_off_c, 2, 70, 64
4, 76416, Note_on_c, 2, 82, 81
4, 76416, Note_on_c, 2, 70, 81
4, 76508, Note_off_c, 2, 82, 64
4, 76508, Note_off_c, 2, 70, 64
4, 76608, Note_on_c, 2, 82, 81
4, 76608, Note_on_c, 2, 70, 81
4, 76700, Note_off_c, 2, 82, 64
4, 76700, Note_off_c, 2, 70, 64
4, 76800, Note_on_c, 2, 82, 81
4, 76800, Note_on_c, 2, 70, 81
4, 76800, Note_on_c, 2, 73, 81
4, 76988, Note_off_c, 2, 82, 64
4, 76988, Note_off_c, 2, 70, 64
4, 76992, Note_on_c, 2, 81, 81
4, 76992, Note_on_c, 2, 69, 81
4, 77180, Note_off_c, 2, 81, 64
4, 77180, Note_off_c, 2, 69, 64
4, 77184, Note_on_c, 2, 81, 81
4, 77184, Note_on_c, 2, 69, 81
4, 77564, Note_off_c, 2, 73, 64
4, 77564, Note_off_c, 2, 81, 64
4, 77564, Note_off_c, 2, 69, 64
4, 77760, Note_on_c, 2, 67, 81
4, 77760, Note_on_c, 2, 79, 81
4, 77760, Note_on_c, 2, 76, 81
4, 77760, Note_on_c, 2, 73, 81
4, 77852, Note_off_c, 2, 67, 64
4, 77852, Note_off_c, 2, 79, 64
4, 77852, Note_off_c, 2, 76, 64
4, 77852, Note_off_c, 2, 73, 64
4, 77952, Note_on_c, 2, 79, 81
4, 77952, Note_on_c, 2, 76, 81
4, 77952, Note_on_c, 2, 73, 81
4, 77952, Note_on_c, 2, 67, 81
4, 78044, Note_off_c, 2, 79, 64
4, 78044, Note_off_c, 2, 76, 64
4, 78044, Note_off_c, 2, 73, 64
4, 78044, Note_off_c, 2, 67, 64
4, 78144, Note_on_c, 2, 79, 81
4, 78144, Note_on_c, 2, 76, 81
4, 78144, Note_on_c, 2, 67, 81
4, 78144, Note_on_c, 2, 73, 81
4, 78236, Note_off_c, 2, 79, 64
4, 78236, Note_off_c, 2, 76, 64
4, 78236, Note_off_c, 2, 67, 64
4, 78236, Note_off_c, 2, 73, 64
4, 78336, Note_on_c, 2, 79, 81
4, 78336, Note_on_c, 2, 76, 81
4, 78336, Note_on_c, 2, 73, 81
4, 78336, Note_on_c, 2, 67, 81
4, 78524, Note_off_c, 2, 79, 64
4, 78524, Note_off_c, 2, 76, 64
4, 78524, Note_off_c, 2, 73, 64
4, 78524, Note_off_c, 2, 67, 64
4, 78528, Note_on_c, 2, 77, 81
4, 78528, Note_on_c, 2, 74, 81
4, 78528, Note_on_c, 2, 65, 81
4, 78716, Note_off_c, 2, 77, 64
4, 78716, Note_off_c, 2, 74, 64
4, 78716, Note_off_c, 2, 65, 64
4, 78720, Note_on_c, 2, 77, 81
4, 78720, Note_on_c, 2, 74, 81
4, 78720, Note_on_c, 2, 65, 81
4, 79100, Note_off_c, 2, 77, 64
4, 79100, Note_off_c, 2, 74, 64
4, 79100, Note_off_c, 2, 65, 64
4, 79296, Note_on_c, 2, 76, 66
4, 79296, Note_on_c, 2, 67, 66
4, 79484, Note_off_c, 2, 76, 64
4, 79484, Note_off_c, 2, 67, 64
4, 79488, Note_on_c, 2, 79, 66
4, 79488, Note_on_c, 2, 70, 66
4, 79676, Note_off_c, 2, 79, 64
4, 79676, Note_off_c, 2, 70, 64
4, 79680, Note_on_c, 2, 76, 66
4, 79680, Note_on_c, 2, 67, 66
4, 79868, Note_off_c, 2, 76, 64
4, 79868, Note_off_c, 2, 67, 64
4, 80064, Note_on_c, 2, 74, 66
4, 80064, Note_on_c, 2, 65, 66
4, 80252, Note_off_c, 2, 74, 64
4, 80252, Note_off_c, 2, 65, 64
4, 80256, Note_on_c, 2, 77, 66
4, 80256, Note_on_c, 2, 69, 66
4, 80444, Note_off_c, 2, 77, 64
4, 80444, Note_off_c, 2, 69, 64
4, 80448, Note_on_c, 2, 74, 66
4, 80448, Note_on_c, 2, 65, 66
4, 80636, Note_off_c, 2, 74, 64
4, 80636, Note_off_c, 2, 65, 64
4, 80832, Note_on_c, 2, 73, 66
4, 80832, Note_on_c, 2, 64, 66
4, 81020, Note_off_c, 2, 73, 64
4, 81020, Note_off_c, 2, 64, 64
4, 81024, Note_on_c, 2, 76, 66
4, 81024, Note_on_c, 2, 67, 66
4, 81212, Note_off_c, 2, 76, 64
4, 81212, Note_off_c, 2, 67, 64
4, 81216, Note_on_c, 2, 73, 66
4, 81216, Note_on_c, 2, 64, 66
4, 81404, Note_off_c, 2, 73, 64
4, 81404, Note_off_c, 2, 64, 64
4, 81408, Note_on_c, 2, 86, 86
4, 81408, Note_on_c, 2, 81, 86
4, 81408, Note_on_c, 2, 74, 86
4, 81788, Note_off_c, 2, 86, 64
4, 81788, Note_off_c, 2, 81, 64
4, 81788, Note_off_c, 2, 74, 64
4, 81792, Note_on_c, 2, 81, 86
4, 81792, Note_on_c, 2, 69, 86
4, 81980, Note_off_c, 2, 81, 64
4, 81980, Note_off_c, 2, 69, 64
4, 82176, Note_on_c, 2, 77, 86
4, 82176, Note_on_c, 2, 65, 86
4, 82364, Note_off_c, 2, 77, 64
4, 82364, Note_off_c, 2, 65, 64
4, 82560, Note_on_c, 2, 74, 86
4, 82560, Note_on_c, 2, 62, 86
4, 82748, Note_off_c, 2, 74, 64
4, 82748, Note_off_c, 2, 62, 64
4, 82944, Note_on_c, 2, 63, 86
4, 82944, Note_on_c, 2, 58, 86
4, 82944, Note_on_c, 2, 55, 86
4, 83708, Note_off_c, 2, 63, 64
4, 83708, Note_off_c, 2, 58, 64
4, 83708, Note_off_c, 2, 55, 64
4, 83904, Note_on_c, 2, 82, 86
4, 83904, Note_on_c, 2, 70, 86
4, 83996, Note_off_c, 2, 82, 64
4, 83996, Note_off_c, 2, 70, 64
4, 84096, Note_on_c, 2, 82, 86
4, 84096, Note_on_c, 2, 70, 86
4, 84188, Note_off_c, 2, 82, 64
4, 84188, Note_off_c, 2, 70, 64
4, 84288, Note_on_c, 2, 82, 86
4, 84288, Note_on_c, 2, 70, 86
4, 84380, Note_off_c, 2, 82, 64
4, 84380, Note_off_c, 2, 70, 64
4, 84480, Note_on_c, 2, 82, 86
4, 84480, Note_on_c, 2, 70, 86
4, 84480, Note_on_c, 2, 73, 86
4, 84668, Note_off_c, 2, 82, 64
4, 84668, Note_off_c, 2, 70, 64
4, 84672, Note_on_c, 2, 81, 86
4, 84672, Note_on_c, 2, 69, 86
4, 84860, Note_off_c, 2, 81, 64
4, 84860, Note_off_c, 2, 69, 64
4, 84864, Note_on_c, 2, 69, 86
4, 84864, Note_on_c, 2, 81, 86
4, 85436, Note_off_c, 2, 69, 64
4, 85436, Note_off_c, 2, 81, 64
4, 85440, Note_on_c, 2, 79, 86
4, 85440, Note_on_c, 2, 76, 86
4, 85440, Note_on_c, 2, 73, 86
4, 85440, Note_on_c, 2, 67, 86
4, 85532, Note_off_c, 2, 73, 64
4, 85532, Note_off_c, 2, 79, 64
4, 85532, Note_off_c, 2, 76, 64
4, 85532, Note_off_c, 2, 67, 64
4, 85628, Note_off_c, 2, 73, 64
4, 85632, Note_on_c, 2, 79, 86
4, 85632, Note_on_c, 2, 76, 86
4, 85632, Note_on_c, 2, 73, 86
4, 85632, Note_on_c, 2, 67, 86
4, 85724, Note_off_c, 2, 79, 64
4, 85724, Note_off_c, 2, 76, 64
4, 85724, Note_off_c, 2, 73, 64
4, 85724, Note_off_c, 2, 67, 64
4, 85824, Note_on_c, 2, 76, 86
4, 85824, Note_on_c, 2, 73, 86
4, 85824, Note_on_c, 2, 67, 86
4, 85824, Note_on_c, 2, 79, 86
4, 85916, Note_off_c, 2, 76, 64
4, 85916, Note_off_c, 2, 73, 64
4, 85916, Note_off_c, 2, 67, 64
4, 85916, Note_off_c, 2, 79, 64
4, 86016, Note_on_c, 2, 79, 86
4, 86016, Note_on_c, 2, 76, 86
4, 86016, Note_on_c, 2, 73, 86
4, 86016, Note_on_c, 2, 67, 86
4, 86204, Note_off_c, 2, 79, 64
4, 86204, Note_off_c, 2, 76, 64
4, 86204, Note_off_c, 2, 73, 64
4, 86204, Note_off_c, 2, 67, 64
4, 86208, Note_on_c, 2, 77, 86
4, 86208, Note_on_c, 2, 65, 86
4, 86384, Note_on_c, 2, 77, 86
4, 86384, Note_on_c, 2, 74, 86
4, 86384, Note_on_c, 2, 65, 86
4, 86396, Note_off_c, 2, 77, 64
4, 86396, Note_off_c, 2, 65, 64
4, 86764, Note_off_c, 2, 77, 64
4, 86764, Note_off_c, 2, 74, 64
4, 86764, Note_off_c, 2, 65, 64
4, 86976, Note_on_c, 2, 76, 64
4, 86976, Note_on_c, 2, 67, 64
4, 87164, Note_off_c, 2, 76, 64
4, 87164, Note_off_c, 2, 67, 64
4, 87168, Note_on_c, 2, 79, 64
4, 87168, Note_on_c, 2, 70, 64
4, 87356, Note_off_c, 2, 79, 64
4, 87356, Note_off_c, 2, 70, 64
4, 87360, Note_on_c, 2, 76, 64
4, 87360, Note_on_c, 2, 67, 64
4, 87548, Note_off_c, 2, 76, 64
4, 87548, Note_off_c, 2, 67, 64
4, 87744, Note_on_c, 2, 74, 64
4, 87744, Note_on_c, 2, 65, 64
4, 87932, Note_off_c, 2, 74, 64
4, 87932, Note_off_c, 2, 65, 64
4, 87936, Note_on_c, 2, 77, 64
4, 87936, Note_on_c, 2, 69, 64
4, 88124, Note_off_c, 2, 77, 64
4, 88124, Note_off_c, 2, 69, 64
4, 88128, Note_on_c, 2, 74, 64
4, 88128, Note_on_c, 2, 65, 64
4, 88316, Note_off_c, 2, 74, 64
4, 88316, Note_off_c, 2, 65, 64
4, 88512, Note_on_c, 2, 73, 64
4, 88512, Note_on_c, 2, 64, 64
4, 88700, Note_off_c, 2, 73, 64
4, 88700, Note_off_c, 2, 64, 64
4, 88704, Note_on_c, 2, 76, 64
4, 88704, Note_on_c, 2, 67, 64
4, 88892, Note_off_c, 2, 76, 64
4, 88892, Note_off_c, 2, 67, 64
4, 88896, Note_on_c, 2, 73, 64
4, 88896, Note_on_c, 2, 64, 64
4, 89084, Note_off_c, 2, 73, 64
4, 89084, Note_off_c, 2, 64, 64
4, 89088, Note_on_c, 2, 62, 86
4, 89180, Note_off_c, 2, 62, 64
4, 89184, Note_on_c, 2, 74, 86
4, 89276, Note_off_c, 2, 74, 64
4, 89280, Note_on_c, 2, 62, 86
4, 89372, Note_off_c, 2, 62, 64
4, 89376, Note_on_c, 2, 74, 86
4, 89468, Note_off_c, 2, 74, 64
4, 89472, Note_on_c, 2, 62, 86
4, 89564, Note_off_c, 2, 62, 64
4, 89568, Note_on_c, 2, 74, 86
4, 89660, Note_off_c, 2, 74, 64
4, 89664, Note_on_c, 2, 62, 86
4, 89756, Note_off_c, 2, 62, 64
4, 89760, Note_on_c, 2, 74, 86
4, 89852, Note_off_c, 2, 74, 64
4, 89856, Note_on_c, 2, 63, 86
4, 89948, Note_off_c, 2, 63, 64
4, 89952, Note_on_c, 2, 74, 86
4, 90044, Note_off_c, 2, 74, 64
4, 90048, Note_on_c, 2, 62, 86
4, 90140, Note_off_c, 2, 62, 64
4, 90144, Note_on_c, 2, 74, 86
4, 90236, Note_off_c, 2, 74, 64
4, 90240, Note_on_c, 2, 64, 86
4, 90332, Note_off_c, 2, 64, 64
4, 90336, Note_on_c, 2, 74, 86
4, 90428, Note_off_c, 2, 74, 64
4, 90432, Note_on_c, 2, 66, 86
4, 90524, Note_off_c, 2, 66, 64
4, 90528, Note_on_c, 2, 74, 86
4, 90620, Note_off_c, 2, 74, 64
4, 90624, Note_on_c, 2, 67, 86
4, 90716, Note_off_c, 2, 67, 64
4, 90720, Note_on_c, 2, 74, 86
4, 90812, Note_off_c, 2, 74, 64
4, 90816, Note_on_c, 2, 66, 86
4, 90908, Note_off_c, 2, 66, 64
4, 90912, Note_on_c, 2, 74, 86
4, 91004, Note_off_c, 2, 74, 64
4, 91008, Note_on_c, 2, 67, 86
4, 91100, Note_off_c, 2, 67, 64
4, 91104, Note_on_c, 2, 74, 86
4, 91196, Note_off_c, 2, 74, 64
4, 91200, Note_on_c, 2, 64, 86
4, 91292, Note_off_c, 2, 64, 64
4, 91296, Note_on_c, 2, 74, 86
4, 91388, Note_off_c, 2, 74, 64
4, 91392, Note_on_c, 2, 65, 86
4, 91484, Note_off_c, 2, 65, 64
4, 91488, Note_on_c, 2, 74, 86
4, 91580, Note_off_c, 2, 74, 64
4, 91584, Note_on_c, 2, 64, 86
4, 91676, Note_off_c, 2, 64, 64
4, 91680, Note_on_c, 2, 74, 86
4, 91772, Note_off_c, 2, 74, 64
4, 91776, Note_on_c, 2, 66, 86
4, 91868, Note_off_c, 2, 66, 64
4, 91872, Note_on_c, 2, 74, 86
4, 91964, Note_off_c, 2, 74, 64
4, 91968, Note_on_c, 2, 68, 86
4, 92060, Note_off_c, 2, 68, 64
4, 92064, Note_on_c, 2, 74, 86
4, 92156, Note_off_c, 2, 74, 64
4, 92160, Note_on_c, 2, 69, 86
4, 92252, Note_off_c, 2, 69, 64
4, 92256, Note_on_c, 2, 74, 86
4, 92348, Note_off_c, 2, 74, 64
4, 92352, Note_on_c, 2, 68, 86
4, 92444, Note_off_c, 2, 68, 64
4, 92448, Note_on_c, 2, 74, 86
4, 92540, Note_off_c, 2, 74, 64
4, 92544, Note_on_c, 2, 69, 86
4, 92636, Note_off_c, 2, 69, 64
4, 92640, Note_on_c, 2, 74, 86
4, 92732, Note_off_c, 2, 74, 64
4, 92736, Note_on_c, 2, 66, 86
4, 92828, Note_off_c, 2, 66, 64
4, 92832, Note_on_c, 2, 74, 86
4, 92924, Note_off_c, 2, 74, 64
4, 92928, Note_on_c, 2, 67, 86
4, 93020, Note_off_c, 2, 67, 64
4, 93024, Note_on_c, 2, 74, 86
4, 93116, Note_off_c, 2, 74, 64
4, 93120, Note_on_c, 2, 66, 86
4, 93212, Note_off_c, 2, 66, 64
4, 93216, Note_on_c, 2, 74, 86
4, 93308, Note_off_c, 2, 74, 64
4, 93312, Note_on_c, 2, 67, 86
4, 93404, Note_off_c, 2, 67, 64
4, 93408, Note_on_c, 2, 74, 86
4, 93500, Note_off_c, 2, 74, 64
4, 93504, Note_on_c, 2, 69, 86
4, 93596, Note_off_c, 2, 69, 64
4, 93600, Note_on_c, 2, 74, 86
4, 93692, Note_off_c, 2, 74, 64
4, 93696, Note_on_c, 2, 70, 86
4, 93884, Note_off_c, 2, 70, 64
4, 93888, Note_on_c, 2, 86, 81
4, 93888, Note_on_c, 2, 74, 86
4, 94076, Note_off_c, 2, 86, 64
4, 94076, Note_off_c, 2, 74, 64
4, 94080, Note_on_c, 2, 86, 81
4, 94080, Note_on_c, 2, 74, 86
4, 94268, Note_off_c, 2, 86, 64
4, 94268, Note_off_c, 2, 74, 64
4, 94272, Note_on_c, 2, 86, 81
4, 94272, Note_on_c, 2, 74, 86
4, 94460, Note_off_c, 2, 86, 64
4, 94460, Note_off_c, 2, 74, 64
4, 94464, Note_on_c, 2, 86, 81
4, 94464, Note_on_c, 2, 74, 86
4, 94652, Note_off_c, 2, 86, 64
4, 94652, Note_off_c, 2, 74, 64
4, 94656, Note_on_c, 2, 86, 81
4, 94656, Note_on_c, 2, 74, 86
4, 94844, Note_off_c, 2, 86, 64
4, 94844, Note_off_c, 2, 74, 64
4, 94848, Note_on_c, 2, 86, 81
4, 94848, Note_on_c, 2, 74, 86
4, 95036, Note_off_c, 2, 86, 64
4, 95036, Note_off_c, 2, 74, 64
4, 95040, Note_on_c, 2, 86, 81
4, 95040, Note_on_c, 2, 74, 86
4, 95228, Note_off_c, 2, 86, 64
4, 95228, Note_off_c, 2, 74, 64
4, 95232, Note_on_c, 2, 84, 83
4, 95232, Note_on_c, 2, 72, 85
4, 95420, Note_off_c, 2, 84, 64
4, 95420, Note_off_c, 2, 72, 64
4, 95424, Note_on_c, 2, 82, 83
4, 95424, Note_on_c, 2, 70, 85
4, 95612, Note_off_c, 2, 82, 64
4, 95612, Note_off_c, 2, 70, 64
4, 95616, Note_on_c, 2, 82, 86
4, 95616, Note_on_c, 2, 79, 86
4, 95616, Note_on_c, 2, 74, 86
4, 95616, Note_on_c, 2, 70, 86
4, 96380, Note_off_c, 2, 82, 64
4, 96380, Note_off_c, 2, 79, 64
4, 96380, Note_off_c, 2, 74, 64
4, 96380, Note_off_c, 2, 70, 64
4, 96384, Note_on_c, 2, 77, 86
4, 96384, Note_on_c, 2, 69, 86
4, 96384, Note_on_c, 2, 74, 86
4, 96384, Note_on_c, 2, 81, 86
4, 96764, Note_off_c, 2, 77, 64
4, 96764, Note_off_c, 2, 69, 64
4, 96764, Note_off_c, 2, 74, 64
4, 96764, Note_off_c, 2, 81, 64
4, 96768, Note_on_c, 2, 81, 86
4, 96768, Note_on_c, 2, 74, 86
4, 96768, Note_on_c, 2, 69, 86
4, 96956, Note_off_c, 2, 81, 64
4, 96956, Note_off_c, 2, 74, 64
4, 96956, Note_off_c, 2, 69, 64
4, 96960, Note_on_c, 2, 79, 86
4, 96960, Note_on_c, 2, 67, 86
4, 97148, Note_off_c, 2, 79, 64
4, 97148, Note_off_c, 2, 67, 64
4, 97152, Note_on_c, 2, 74, 86
4, 97152, Note_on_c, 2, 67, 86
4, 97152, Note_on_c, 2, 79, 86
4, 97916, Note_off_c, 2, 74, 64
4, 97916, Note_off_c, 2, 67, 64
4, 97916, Note_off_c, 2, 79, 64
4, 97920, Note_on_c, 2, 80, 86
4, 97920, Note_on_c, 2, 76, 86
4, 97920, Note_on_c, 2, 74, 86
4, 97920, Note_on_c, 2, 68, 86
4, 98300, Note_off_c, 2, 80, 64
4, 98300, Note_off_c, 2, 76, 64
4, 98300, Note_off_c, 2, 74, 64
4, 98300, Note_off_c, 2, 68, 64
4, 98304, Note_on_c, 2, 81, 86
4, 98304, Note_on_c, 2, 77, 86
4, 98304, Note_on_c, 2, 74, 86
4, 98304, Note_on_c, 2, 69, 86
4, 98876, Note_off_c, 2, 81, 64
4, 98876, Note_off_c, 2, 77, 64
4, 98876, Note_off_c, 2, 74, 64
4, 98876, Note_off_c, 2, 69, 64
4, 98880, Note_on_c, 2, 77, 86
4, 98976, Note_on_c, 2, 74, 86
4, 99068, Note_off_c, 2, 77, 64
4, 99072, Note_on_c, 2, 69, 86
4, 99164, Note_off_c, 2, 74, 64
4, 99452, Note_off_c, 2, 69, 64
4, 99456, Note_on_c, 2, 73, 86
4, 99456, Note_on_c, 2, 69, 86
4, 99456, Note_on_c, 2, 64, 86
4, 99836, Note_off_c, 2, 73, 64
4, 99836, Note_off_c, 2, 69, 64
4, 99836, Note_off_c, 2, 64, 64
4, 99840, Note_on_c, 2, 74, 86
4, 99840, Note_on_c, 2, 69, 86
4, 99840, Note_on_c, 2, 62, 86
4, 100028, Note_off_c, 2, 74, 64
4, 100028, Note_off_c, 2, 69, 64
4, 100028, Note_off_c, 2, 62, 64
4, 100032, Note_on_c, 2, 74, 86
4, 100220, Note_off_c, 2, 74, 64
4, 100224, Note_on_c, 2, 86, 81
4, 100412, Note_off_c, 2, 86, 64
4, 100416, Note_on_c, 2, 86, 81
4, 100416, Note_on_c, 2, 74, 86
4, 100604, Note_off_c, 2, 86, 64
4, 100604, Note_off_c, 2, 74, 64
4, 100608, Note_on_c, 2, 86, 81
4, 100608, Note_on_c, 2, 74, 86
4, 100796, Note_off_c, 2, 86, 64
4, 100796, Note_off_c, 2, 74, 64
4, 100800, Note_on_c, 2, 86, 81
4, 100800, Note_on_c, 2, 74, 86
4, 100988, Note_off_c, 2, 86, 64
4, 100988, Note_off_c, 2, 74, 64
4, 100992, Note_on_c, 2, 86, 81
4, 100992, Note_on_c, 2, 74, 86
4, 101180, Note_off_c, 2, 86, 64
4, 101180, Note_off_c, 2, 74, 64
4, 101184, Note_on_c, 2, 86, 81
4, 101184, Note_on_c, 2, 74, 86
4, 101372, Note_off_c, 2, 86, 64
4, 101372, Note_off_c, 2, 74, 64
4, 101376, Note_on_c, 2, 84, 83
4, 101376, Note_on_c, 2, 72, 85
4, 101564, Note_off_c, 2, 84, 64
4, 101564, Note_off_c, 2, 72, 64
4, 101568, Note_on_c, 2, 82, 83
4, 101568, Note_on_c, 2, 70, 85
4, 101756, Note_off_c, 2, 82, 64
4, 101756, Note_off_c, 2, 70, 64
4, 101760, Note_on_c, 2, 74, 86
4, 101760, Note_on_c, 2, 70, 86
4, 101760, Note_on_c, 2, 82, 86
4, 101760, Note_on_c, 2, 79, 86
4, 102524, Note_off_c, 2, 74, 64
4, 102524, Note_off_c, 2, 70, 64
4, 102524, Note_off_c, 2, 82, 64
4, 102524, Note_off_c, 2, 79, 64
4, 102528, Note_on_c, 2, 81, 86
4, 102528, Note_on_c, 2, 77, 86
4, 102528, Note_on_c, 2, 74, 86
4, 102528, Note_on_c, 2, 69, 86
4, 102908, Note_off_c, 2, 81, 64
4, 102908, Note_off_c, 2, 77, 64
4, 102908, Note_off_c, 2, 74, 64
4, 102908, Note_off_c, 2, 69, 64
4, 102912, Note_on_c, 2, 81, 86
4, 102912, Note_on_c, 2, 74, 86
4, 102912, Note_on_c, 2, 69, 86
4, 103100, Note_off_c, 2, 81, 64
4, 103100, Note_off_c, 2, 74, 64
4, 103100, Note_off_c, 2, 69, 64
4, 103104, Note_on_c, 2, 79, 86
4, 103104, Note_on_c, 2, 67, 86
4, 103292, Note_off_c, 2, 79, 64
4, 103292, Note_off_c, 2, 67, 64
4, 103296, Note_on_c, 2, 79, 86
4, 103296, Note_on_c, 2, 74, 86
4, 103296, Note_on_c, 2, 67, 86
4, 103676, Note_off_c, 2, 79, 64
4, 103676, Note_off_c, 2, 74, 64
4, 103676, Note_off_c, 2, 67, 64
4, 104448, Note_on_c, 2, 74, 66
4, 104448, Note_on_c, 2, 79, 66
4, 104636, Note_off_c, 2, 79, 64
4, 104640, Note_on_c, 2, 80, 66
4, 104828, Note_off_c, 2, 74, 64
4, 104828, Note_off_c, 2, 80, 64
4, 104832, Note_on_c, 2, 74, 66
4, 104832, Note_on_c, 2, 80, 66
4, 105212, Note_off_c, 2, 74, 64
4, 105212, Note_off_c, 2, 80, 64
4, 105984, Note_on_c, 2, 74, 66
4, 105984, Note_on_c, 2, 81, 66
4, 106556, Note_off_c, 2, 81, 64
4, 106560, Note_on_c, 2, 77, 66
4, 106652, Note_off_c, 2, 77, 64
4, 106656, Note_on_c, 2, 74, 66
4, 106748, Note_off_c, 2, 74, 64
4, 106752, Note_on_c, 2, 81, 66
4, 107324, Note_off_c, 2, 81, 64
4, 107328, Note_on_c, 2, 77, 66
4, 107420, Note_off_c, 2, 77, 64
4, 107424, Note_on_c, 2, 74, 66
4, 107516, Note_off_c, 2, 74, 64
4, 107516, Note_off_c, 2, 74, 64
4, 107520, Note_on_c, 2, 69, 66
4, 107708, Note_off_c, 2, 69, 64
4, 107904, Note_on_c, 2, 69, 66
4, 108092, Note_off_c, 2, 69, 64
4, 108672, Note_on_c, 2, 73, 66
4, 108672, Note_on_c, 2, 67, 66
4, 108672, Note_on_c, 2, 64, 66
4, 109052, Note_off_c, 2, 73, 64
4, 109052, Note_off_c, 2, 67, 64
4, 109052, Note_off_c, 2, 64, 64
4, 109056, Note_on_c, 2, 74, 66
4, 109056, Note_on_c, 2, 65, 66
4, 109244, Note_off_c, 2, 65, 64
4, 109248, Note_on_c, 2, 62, 66
4, 109436, Note_off_c, 2, 74, 64
4, 109436, Note_off_c, 2, 62, 64
4, 109440, Note_on_c, 2, 69, 66
4, 109628, Note_off_c, 2, 69, 64
4, 109632, Note_on_c, 2, 65, 66
4, 109820, Note_off_c, 2, 65, 64
4, 110208, Note_on_c, 2, 69, 66
4, 110208, Note_on_c, 2, 77, 66
4, 110396, Note_off_c, 2, 69, 64
4, 110400, Note_on_c, 2, 65, 66
4, 110588, Note_off_c, 2, 65, 64
4, 110592, Note_on_c, 2, 70, 66
4, 110780, Note_off_c, 2, 77, 64
4, 110780, Note_off_c, 2, 70, 64
4, 110784, Note_on_c, 2, 76, 66
4, 110784, Note_on_c, 2, 67, 66
4, 110972, Note_off_c, 2, 76, 64
4, 110972, Note_off_c, 2, 67, 64
4, 110976, Note_on_c, 2, 79, 66
4, 111740, Note_off_c, 2, 79, 64
4, 111744, Note_on_c, 2, 68, 66
4, 111744, Note_on_c, 2, 77, 66
4, 111932, Note_off_c, 2, 68, 64
4, 111936, Note_on_c, 2, 69, 66
4, 112124, Note_off_c, 2, 77, 64
4, 112124, Note_off_c, 2, 69, 64
4, 112128, Note_on_c, 2, 76, 66
4, 112128, Note_on_c, 2, 67, 66
4, 112316, Note_off_c, 2, 67, 64
4, 112320, Note_on_c, 2, 64, 66
4, 112508, Note_off_c, 2, 76, 64
4, 112508, Note_off_c, 2, 64, 64
4, 112512, Note_on_c, 2, 74, 66
4, 112512, Note_on_c, 2, 67, 66
4, 112700, Note_off_c, 2, 67, 64
4, 112704, Note_on_c, 2, 65, 66
4, 112892, Note_off_c, 2, 74, 64
4, 112892, Note_off_c, 2, 65, 64
4, 112896, Note_on_c, 2, 68, 66
4, 113084, Note_off_c, 2, 68, 64
4, 113088, Note_on_c, 2, 69, 66
4, 113276, Note_off_c, 2, 69, 64
4, 113280, Note_on_c, 2, 77, 66
4, 113664, Note_on_c, 2, 70, 66
4, 113852, Note_off_c, 2, 77, 64
4, 113852, Note_off_c, 2, 70, 64
4, 113856, Note_on_c, 2, 76, 66
4, 114044, Note_off_c, 2, 76, 64
4, 114048, Note_on_c, 2, 82, 66
4, 114812, Note_off_c, 2, 82, 64
4, 114816, Note_on_c, 2, 67, 66
4, 114816, Note_on_c, 2, 81, 66
4, 115004, Note_off_c, 2, 67, 64
4, 115008, Note_on_c, 2, 73, 66
4, 115196, Note_off_c, 2, 81, 64
4, 115196, Note_off_c, 2, 73, 64
4, 115200, Note_on_c, 2, 79, 66
4, 115200, Note_on_c, 2, 76, 66
4, 115388, Note_off_c, 2, 76, 64
4, 115392, Note_on_c, 2, 73, 66
4, 115580, Note_off_c, 2, 79, 64
4, 115580, Note_off_c, 2, 73, 64
4, 115584, Note_on_c, 2, 77, 66
4, 115584, Note_on_c, 2, 76, 66
4, 115772, Note_off_c, 2, 76, 64
4, 115776, Note_on_c, 2, 74, 66
4, 115964, Note_off_c, 2, 77, 64
4, 115964, Note_off_c, 2, 74, 64
4, 115968, Note_on_c, 2, 68, 66
4, 116156, Note_off_c, 2, 68, 64
4, 116160, Note_on_c, 2, 69, 66
4, 116348, Note_off_c, 2, 69, 64
4, 116352, Note_on_c, 2, 86, 66
4, 116352, Note_on_c, 2, 77, 66
4, 116732, Note_off_c, 2, 86, 64
4, 116732, Note_off_c, 2, 77, 64
4, 116736, Note_on_c, 2, 72, 66
4, 116924, Note_off_c, 2, 72, 64
4, 116928, Note_on_c, 2, 70, 66
4, 117116, Note_off_c, 2, 70, 64
4, 117120, Note_on_c, 2, 67, 66
4, 117120, Note_on_c, 2, 76, 66
4, 117308, Note_off_c, 2, 67, 64
4, 117500, Note_off_c, 2, 76, 64
4, 117504, Note_on_c, 2, 67, 66
4, 117888, Note_on_c, 2, 81, 66
4, 117888, Note_on_c, 2, 73, 66
4, 118268, Note_off_c, 2, 67, 64
4, 118268, Note_off_c, 2, 81, 64
4, 118268, Note_off_c, 2, 73, 64
4, 118272, Note_on_c, 2, 74, 66
4, 118272, Note_on_c, 2, 65, 66
4, 118652, Note_off_c, 2, 74, 64
4, 118652, Note_off_c, 2, 65, 64
4, 135168, Note_on_c, 2, 69, 66
4, 135360, Note_on_c, 2, 65, 66
4, 135360, Note_on_c, 2, 62, 66
4, 135548, Note_off_c, 2, 65, 64
4, 135548, Note_off_c, 2, 62, 64
4, 135552, Note_on_c, 2, 67, 66
4, 135552, Note_on_c, 2, 64, 66
4, 135740, Note_off_c, 2, 67, 64
4, 135740, Note_off_c, 2, 64, 64
4, 135744, Note_on_c, 2, 69, 66
4, 135744, Note_on_c, 2, 65, 66
4, 135932, Note_off_c, 2, 69, 64
4, 135932, Note_off_c, 2, 65, 64
4, 135936, Note_on_c, 2, 67, 66
4, 135936, Note_on_c, 2, 64, 66
4, 136700, Note_off_c, 2, 67, 64
4, 136700, Note_off_c, 2, 64, 64
4, 136704, Note_on_c, 2, 65, 66
4, 136704, Note_on_c, 2, 62, 66
4, 136892, Note_off_c, 2, 65, 64
4, 136892, Note_off_c, 2, 62, 64
4, 136896, Note_on_c, 2, 65, 66
4, 136896, Note_on_c, 2, 62, 66
4, 137084, Note_off_c, 2, 65, 64
4, 137084, Note_off_c, 2, 62, 64
4, 137088, Note_on_c, 2, 67, 66
4, 137088, Note_on_c, 2, 64, 66
4, 137276, Note_off_c, 2, 67, 64
4, 137276, Note_off_c, 2, 64, 64
4, 137280, Note_on_c, 2, 69, 66
4, 137280, Note_on_c, 2, 65, 66
4, 137468, Note_off_c, 2, 69, 64
4, 137468, Note_off_c, 2, 65, 64
4, 137472, Note_on_c, 2, 67, 66
4, 137472, Note_on_c, 2, 64, 66
4, 138236, Note_off_c, 2, 67, 64
4, 138236, Note_off_c, 2, 64, 64
4, 138240, Note_on_c, 2, 69, 66
4, 138428, Note_off_c, 2, 69, 64
4, 138428, Note_off_c, 2, 69, 64
4, 138624, Note_on_c, 2, 88, 63
4, 138624, Note_on_c, 2, 79, 64
4, 138624, Note_on_c, 2, 76, 66
4, 138812, Note_off_c, 2, 88, 64
4, 138812, Note_off_c, 2, 79, 64
4, 138812, Note_off_c, 2, 76, 64
4, 139008, Note_on_c, 2, 88, 63
4, 139008, Note_on_c, 2, 77, 64
4, 139008, Note_on_c, 2, 74, 66
4, 139196, Note_off_c, 2, 88, 64
4, 139196, Note_off_c, 2, 77, 64
4, 139196, Note_off_c, 2, 74, 64
4, 139392, Note_on_c, 2, 85, 63
4, 139392, Note_on_c, 2, 76, 64
4, 139392, Note_on_c, 2, 73, 66
4, 139580, Note_off_c, 2, 85, 64
4, 139580, Note_off_c, 2, 76, 64
4, 139580, Note_off_c, 2, 73, 64
4, 139776, Note_on_c, 2, 86, 63
4, 139776, Note_on_c, 2, 77, 64
4, 139776, Note_on_c, 2, 74, 66
4, 140156, Note_off_c, 2, 86, 64
4, 140156, Note_off_c, 2, 77, 64
4, 140156, Note_off_c, 2, 74, 64
4, 151872, Note_on_c, 2, 57, 66
4, 151872, Note_on_c, 2, 62, 66
4, 152060, Note_off_c, 2, 57, 64
4, 152064, Note_on_c, 2, 58, 66
4, 152064, Note_on_c, 2, 65, 66
4, 152252, Note_off_c, 2, 62, 64
4, 152252, Note_off_c, 2, 58, 64
4, 152252, Note_off_c, 2, 65, 64
4, 152256, Note_on_c, 2, 63, 66
4, 152256, Note_on_c, 2, 58, 66
4, 152256, Note_on_c, 2, 62, 66
4, 152444, Note_off_c, 2, 63, 64
4, 152636, Note_off_c, 2, 58, 64
4, 152636, Note_off_c, 2, 62, 64
4, 152640, Note_on_c, 2, 64, 66
4, 152640, Note_on_c, 2, 62, 66
4, 152640, Note_on_c, 2, 58, 66
4, 152828, Note_off_c, 2, 64, 64
4, 152828, Note_off_c, 2, 58, 64
4, 152832, Note_on_c, 2, 67, 66
4, 152832, Note_on_c, 2, 60, 66
4, 153020, Note_off_c, 2, 62, 64
4, 153020, Note_off_c, 2, 67, 64
4, 153020, Note_off_c, 2, 60, 64
4, 153024, Note_on_c, 2, 65, 66
4, 153024, Note_on_c, 2, 62, 66
4, 153024, Note_on_c, 2, 60, 66
4, 153212, Note_off_c, 2, 65, 64
4, 153404, Note_off_c, 2, 62, 64
4, 153404, Note_off_c, 2, 60, 64
4, 153408, Note_on_c, 2, 66, 66
4, 153408, Note_on_c, 2, 62, 66
4, 153408, Note_on_c, 2, 60, 66
4, 153596, Note_off_c, 2, 66, 64
4, 153596, Note_off_c, 2, 62, 64
4, 153596, Note_off_c, 2, 60, 64
4, 153600, Note_on_c, 2, 69, 66
4, 153600, Note_on_c, 2, 62, 66
4, 153788, Note_off_c, 2, 69, 64
4, 153788, Note_off_c, 2, 62, 64
4, 153792, Note_on_c, 2, 62, 66
4, 153792, Note_on_c, 2, 58, 66
4, 153792, Note_on_c, 2, 67, 66
4, 154172, Note_off_c, 2, 62, 64
4, 154172, Note_off_c, 2, 58, 64
4, 154172, Note_off_c, 2, 67, 64
4, 154176, Note_on_c, 2, 67, 66
4, 154176, Note_on_c, 2, 62, 66
4, 154176, Note_on_c, 2, 58, 66
4, 154364, Note_off_c, 2, 67, 64
4, 154364, Note_off_c, 2, 62, 64
4, 154364, Note_off_c, 2, 58, 64
4, 154368, Note_on_c, 2, 67, 66
4, 154368, Note_on_c, 2, 62, 66
4, 154368, Note_on_c, 2, 58, 66
4, 154748, Note_off_c, 2, 67, 64
4, 154748, Note_off_c, 2, 62, 64
4, 154748, Note_off_c, 2, 58, 64
4, 154944, Note_on_c, 2, 64, 66
4, 155132, Note_off_c, 2, 64, 64
4, 155136, Note_on_c, 2, 67, 66
4, 155136, Note_on_c, 2, 64, 66
4, 155136, Note_on_c, 2, 60, 66
4, 155324, Note_off_c, 2, 67, 64
4, 155324, Note_off_c, 2, 64, 64
4, 155324, Note_off_c, 2, 60, 64
4, 155328, Note_on_c, 2, 65, 66
4, 155328, Note_on_c, 2, 64, 66
4, 155328, Note_on_c, 2, 60, 66
4, 155516, Note_off_c, 2, 65, 64
4, 155708, Note_off_c, 2, 64, 64
4, 155708, Note_off_c, 2, 60, 64
4, 155712, Note_on_c, 2, 66, 66
4, 155712, Note_on_c, 2, 60, 66
4, 155712, Note_on_c, 2, 64, 66
4, 155900, Note_off_c, 2, 66, 64
4, 155900, Note_off_c, 2, 60, 64
4, 155904, Note_on_c, 2, 69, 66
4, 155904, Note_on_c, 2, 62, 66
4, 156092, Note_off_c, 2, 64, 64
4, 156092, Note_off_c, 2, 69, 64
4, 156092, Note_off_c, 2, 62, 64
4, 156096, Note_on_c, 2, 67, 66
4, 156096, Note_on_c, 2, 64, 66
4, 156096, Note_on_c, 2, 62, 66
4, 156284, Note_off_c, 2, 67, 64
4, 156476, Note_off_c, 2, 64, 64
4, 156476, Note_off_c, 2, 62, 64
4, 156480, Note_on_c, 2, 62, 66
4, 156480, Note_on_c, 2, 64, 66
4, 156480, Note_on_c, 2, 68, 66
4, 156668, Note_off_c, 2, 62, 64
4, 156672, Note_on_c, 2, 71, 66
4, 156676, Note_off_c, 2, 68, 64
4, 156860, Note_off_c, 2, 64, 64
4, 156860, Note_off_c, 2, 71, 64
4, 156864, Note_on_c, 2, 69, 66
4, 156864, Note_on_c, 2, 64, 66
4, 156864, Note_on_c, 2, 60, 66
4, 157244, Note_off_c, 2, 69, 64
4, 157244, Note_off_c, 2, 64, 64
4, 157244, Note_off_c, 2, 60, 64
4, 157248, Note_on_c, 2, 64, 66
4, 157248, Note_on_c, 2, 60, 66
4, 157248, Note_on_c, 2, 69, 66
4, 157440, Note_on_c, 2, 81, 66
4, 157628, Note_off_c, 2, 64, 64
4, 157628, Note_off_c, 2, 60, 64
4, 157628, Note_off_c, 2, 69, 64
4, 157632, Note_on_c, 2, 69, 66
4, 157632, Note_on_c, 2, 60, 66
4, 158012, Note_off_c, 2, 69, 64
4, 158012, Note_off_c, 2, 60, 64
4, 158016, Note_on_c, 2, 64, 66
4, 158016, Note_on_c, 2, 69, 66
4, 158204, Note_off_c, 2, 81, 64
4, 158204, Note_off_c, 2, 64, 64
4, 158208, Note_on_c, 2, 72, 66
4, 158208, Note_on_c, 2, 65, 66
4, 158396, Note_off_c, 2, 69, 64
4, 158396, Note_off_c, 2, 72, 64
4, 158396, Note_off_c, 2, 65, 64
4, 158400, Note_on_c, 2, 70, 66
4, 158400, Note_on_c, 2, 69, 66
4, 158400, Note_on_c, 2, 65, 66
4, 158588, Note_off_c, 2, 70, 64
4, 158780, Note_off_c, 2, 69, 64
4, 158780, Note_off_c, 2, 65, 64
4, 158784, Note_on_c, 2, 70, 66
4, 158784, Note_on_c, 2, 65, 66
4, 158784, Note_on_c, 2, 69, 66
4, 158972, Note_off_c, 2, 70, 64
4, 158972, Note_off_c, 2, 65, 64
4, 158976, Note_on_c, 2, 67, 66
4, 158976, Note_on_c, 2, 74, 66
4, 159164, Note_off_c, 2, 69, 64
4, 159164, Note_off_c, 2, 67, 64
4, 159164, Note_off_c, 2, 74, 64
4, 159168, Note_on_c, 2, 72, 66
4, 159168, Note_on_c, 2, 69, 66
4, 159168, Note_on_c, 2, 67, 66
4, 159356, Note_off_c, 2, 72, 64
4, 159548, Note_off_c, 2, 69, 64
4, 159548, Note_off_c, 2, 67, 64
4, 159552, Note_on_c, 2, 69, 66
4, 159552, Note_on_c, 2, 72, 66
4, 159552, Note_on_c, 2, 67, 66
4, 159740, Note_off_c, 2, 72, 64
4, 159740, Note_off_c, 2, 67, 64
4, 159744, Note_on_c, 2, 74, 66
4, 159932, Note_off_c, 2, 69, 64
4, 159932, Note_off_c, 2, 74, 64
4, 160320, Note_on_c, 2, 64, 66
4, 160320, Note_on_c, 2, 57, 66
4, 160320, Note_on_c, 2, 55, 66
4, 160508, Note_off_c, 2, 64, 64
4, 160508, Note_off_c, 2, 57, 64
4, 160508, Note_off_c, 2, 55, 64
4, 160704, Note_on_c, 2, 65, 66
4, 160704, Note_on_c, 2, 57, 66
4, 160704, Note_on_c, 2, 53, 66
4, 160892, Note_off_c, 2, 65, 64
4, 160892, Note_off_c, 2, 57, 64
4, 160892, Note_off_c, 2, 53, 64
4, 161088, Note_on_c, 2, 66, 66
4, 161088, Note_on_c, 2, 62, 66
4, 161088, Note_on_c, 2, 57, 66
4, 161276, Note_off_c, 2, 66, 64
4, 161276, Note_off_c, 2, 62, 64
4, 161276, Note_off_c, 2, 57, 64
4, 161472, Note_on_c, 2, 67, 66
4, 161472, Note_on_c, 2, 62, 66
4, 161472, Note_on_c, 2, 58, 66
4, 161660, Note_off_c, 2, 67, 64
4, 161660, Note_off_c, 2, 62, 64
4, 161660, Note_off_c, 2, 58, 64
4, 161856, Note_on_c, 2, 69, 66
4, 161856, Note_on_c, 2, 62, 66
4, 161856, Note_on_c, 2, 60, 66
4, 162044, Note_off_c, 2, 69, 64
4, 162044, Note_off_c, 2, 62, 64
4, 162044, Note_off_c, 2, 60, 64
4, 162240, Note_on_c, 2, 70, 66
4, 162240, Note_on_c, 2, 62, 66
4, 162240, Note_on_c, 2, 58, 66
4, 162428, Note_off_c, 2, 70, 64
4, 162428, Note_off_c, 2, 62, 64
4, 162428, Note_off_c, 2, 58, 64
4, 162624, Note_on_c, 2, 71, 66
4, 162624, Note_on_c, 2, 67, 66
4, 162624, Note_on_c, 2, 62, 66
4, 162812, Note_off_c, 2, 71, 64
4, 162812, Note_off_c, 2, 67, 64
4, 162812, Note_off_c, 2, 62, 64
4, 162816, Note_on_c, 2, 72, 66
4, 162816, Note_on_c, 2, 67, 66
4, 162816, Note_on_c, 2, 64, 66
4, 163004, Note_off_c, 2, 72, 64
4, 163004, Note_off_c, 2, 67, 64
4, 163004, Note_off_c, 2, 64, 64
4, 163008, Note_on_c, 2, 72, 66
4, 163008, Note_on_c, 2, 67, 66
4, 163008, Note_on_c, 2, 64, 66
4, 163196, Note_off_c, 2, 72, 64
4, 163196, Note_off_c, 2, 67, 64
4, 163196, Note_off_c, 2, 64, 64
4, 163200, Note_on_c, 2, 73, 66
4, 163200, Note_on_c, 2, 69, 66
4, 163200, Note_on_c, 2, 64, 66
4, 163388, Note_off_c, 2, 73, 64
4, 163388, Note_off_c, 2, 69, 64
4, 163388, Note_off_c, 2, 64, 64
4, 163392, Note_on_c, 2, 73, 66
4, 163392, Note_on_c, 2, 69, 66
4, 163392, Note_on_c, 2, 64, 66
4, 163580, Note_off_c, 2, 73, 64
4, 163580, Note_off_c, 2, 69, 64
4, 163580, Note_off_c, 2, 64, 64
4, 163584, Note_on_c, 2, 74, 66
4, 163584, Note_on_c, 2, 69, 66
4, 163584, Note_on_c, 2, 65, 66
4, 163772, Note_off_c, 2, 74, 64
4, 163772, Note_off_c, 2, 69, 64
4, 163772, Note_off_c, 2, 65, 64
4, 163776, Note_on_c, 2, 74, 66
4, 163776, Note_on_c, 2, 69, 66
4, 163776, Note_on_c, 2, 65, 66
4, 163964, Note_off_c, 2, 74, 64
4, 163964, Note_off_c, 2, 69, 64
4, 163964, Note_off_c, 2, 65, 64
4, 163968, Note_on_c, 2, 76, 66
4, 163968, Note_on_c, 2, 69, 66
4, 163968, Note_on_c, 2, 67, 66
4, 164156, Note_off_c, 2, 76, 64
4, 164156, Note_off_c, 2, 69, 64
4, 164156, Note_off_c, 2, 67, 64
4, 164160, Note_on_c, 2, 76, 66
4, 164160, Note_on_c, 2, 69, 66
4, 164160, Note_on_c, 2, 67, 66
4, 164348, Note_off_c, 2, 76, 64
4, 164348, Note_off_c, 2, 69, 64
4, 164348, Note_off_c, 2, 67, 64
4, 164352, Note_on_c, 2, 77, 66
4, 164352, Note_on_c, 2, 69, 66
4, 164352, Note_on_c, 2, 65, 66
4, 164732, Note_off_c, 2, 77, 64
4, 164732, Note_off_c, 2, 69, 64
4, 164732, Note_off_c, 2, 65, 64
4, 164736, Note_on_c, 2, 81, 66
4, 164736, Note_on_c, 2, 74, 66
4, 165116, Note_off_c, 2, 81, 64
4, 165120, Note_on_c, 2, 82, 66
4, 165500, Note_off_c, 2, 74, 64
4, 165500, Note_off_c, 2, 82, 64
4, 165504, Note_on_c, 2, 74, 66
4, 165504, Note_on_c, 2, 67, 66
4, 165504, Note_on_c, 2, 62, 66
4, 165884, Note_off_c, 2, 74, 64
4, 165884, Note_off_c, 2, 67, 64
4, 165884, Note_off_c, 2, 62, 64
4, 165888, Note_on_c, 2, 73, 66
4, 165888, Note_on_c, 2, 69, 66
4, 165888, Note_on_c, 2, 64, 66
4, 166268, Note_off_c, 2, 73, 64
4, 166268, Note_off_c, 2, 69, 64
4, 166268, Note_off_c, 2, 64, 64
4, 168960, Note_on_c, 2, 81, 66
4, 168960, Note_on_c, 2, 76, 66
4, 168960, Note_on_c, 2, 85, 66
4, 169340, Note_off_c, 2, 81, 64
4, 169340, Note_off_c, 2, 76, 64
4, 169340, Note_off_c, 2, 85, 64
4, 169344, Note_on_c, 2, 81, 66
4, 169344, Note_on_c, 2, 85, 66
4, 169344, Note_on_c, 2, 76, 66
4, 169628, Note_off_c, 2, 81, 64
4, 169628, Note_off_c, 2, 85, 64
4, 169628, Note_off_c, 2, 76, 64
4, 169632, Note_on_c, 2, 85, 78
4, 169632, Note_on_c, 2, 81, 78
4, 169632, Note_on_c, 2, 76, 78
4, 169724, Note_off_c, 2, 85, 64
4, 169724, Note_off_c, 2, 81, 64
4, 169724, Note_off_c, 2, 76, 64
4, 169728, Note_on_c, 2, 85, 66
4, 169728, Note_on_c, 2, 81, 66
4, 169728, Note_on_c, 2, 76, 66
4, 170108, Note_off_c, 2, 85, 64
4, 170108, Note_off_c, 2, 81, 64
4, 170108, Note_off_c, 2, 76, 64
4, 170112, Note_on_c, 2, 85, 66
4, 170112, Note_on_c, 2, 81, 66
4, 170112, Note_on_c, 2, 76, 66
4, 170492, Note_off_c, 2, 85, 64
4, 170492, Note_off_c, 2, 81, 64
4, 170492, Note_off_c, 2, 76, 64
4, 170496, Note_on_c, 2, 86, 66
4, 170496, Note_on_c, 2, 81, 66
4, 170496, Note_on_c, 2, 77, 66
4, 170876, Note_off_c, 2, 86, 64
4, 170876, Note_off_c, 2, 81, 64
4, 170876, Note_off_c, 2, 77, 64
4, 170880, Note_on_c, 2, 86, 66
4, 170880, Note_on_c, 2, 81, 66
4, 170880, Note_on_c, 2, 77, 66
4, 171164, Note_off_c, 2, 86, 64
4, 171164, Note_off_c, 2, 81, 64
4, 171164, Note_off_c, 2, 77, 64
4, 171168, Note_on_c, 2, 86, 78
4, 171168, Note_on_c, 2, 81, 78
4, 171168, Note_on_c, 2, 77, 78
4, 171260, Note_off_c, 2, 86, 64
4, 171260, Note_off_c, 2, 81, 64
4, 171260, Note_off_c, 2, 77, 64
4, 171264, Note_on_c, 2, 86, 66
4, 171264, Note_on_c, 2, 81, 66
4, 171264, Note_on_c, 2, 77, 66
4, 171644, Note_off_c, 2, 86, 64
4, 171644, Note_off_c, 2, 81, 64
4, 171644, Note_off_c, 2, 77, 64
4, 171648, Note_on_c, 2, 86, 66
4, 171648, Note_on_c, 2, 81, 66
4, 171648, Note_on_c, 2, 77, 66
4, 172028, Note_off_c, 2, 86, 64
4, 172028, Note_off_c, 2, 81, 64
4, 172028, Note_off_c, 2, 77, 64
4, 172032, Note_on_c, 2, 85, 86
4, 172032, Note_on_c, 2, 81, 86
4, 172032, Note_on_c, 2, 76, 86
4, 172412, Note_off_c, 2, 85, 64
4, 172412, Note_off_c, 2, 81, 64
4, 172412, Note_off_c, 2, 76, 64
4, 172608, Note_on_c, 2, 81, 86
4, 172608, Note_on_c, 2, 76, 86
4, 172608, Note_on_c, 2, 85, 86
4, 172796, Note_off_c, 2, 81, 64
4, 172796, Note_off_c, 2, 76, 64
4, 172796, Note_off_c, 2, 85, 64
4, 172800, Note_on_c, 2, 86, 86
4, 172800, Note_on_c, 2, 81, 86
4, 172800, Note_on_c, 2, 77, 86
4, 172988, Note_off_c, 2, 86, 64
4, 172988, Note_off_c, 2, 81, 64
4, 172988, Note_off_c, 2, 77, 64
4, 173376, Note_on_c, 2, 86, 86
4, 173376, Note_on_c, 2, 81, 86
4, 173376, Note_on_c, 2, 77, 86
4, 173564, Note_off_c, 2, 86, 64
4, 173564, Note_off_c, 2, 81, 64
4, 173564, Note_off_c, 2, 77, 64
4, 173568, Note_on_c, 2, 85, 86
4, 173568, Note_on_c, 2, 81, 86
4, 173568, Note_on_c, 2, 76, 86
4, 173948, Note_off_c, 2, 85, 64
4, 173948, Note_off_c, 2, 81, 64
4, 173948, Note_off_c, 2, 76, 64
4, 174144, Note_on_c, 2, 85, 86
4, 174144, Note_on_c, 2, 81, 86
4, 174144, Note_on_c, 2, 76, 86
4, 174332, Note_off_c, 2, 85, 64
4, 174332, Note_off_c, 2, 81, 64
4, 174332, Note_off_c, 2, 76, 64
4, 174336, Note_on_c, 2, 86, 86
4, 174336, Note_on_c, 2, 81, 86
4, 174336, Note_on_c, 2, 77, 86
4, 174524, Note_off_c, 2, 86, 64
4, 174524, Note_off_c, 2, 81, 64
4, 174524, Note_off_c, 2, 77, 64
4, 174912, Note_on_c, 2, 86, 86
4, 174912, Note_on_c, 2, 81, 86
4, 174912, Note_on_c, 2, 77, 86
4, 175100, Note_off_c, 2, 86, 64
4, 175100, Note_off_c, 2, 81, 64
4, 175100, Note_off_c, 2, 77, 64
4, 175104, Note_on_c, 2, 85, 86
4, 175104, Note_on_c, 2, 81, 86
4, 175104, Note_on_c, 2, 76, 86
4, 175484, Note_off_c, 2, 85, 64
4, 175484, Note_off_c, 2, 81, 64
4, 175484, Note_off_c, 2, 76, 64
4, 176640, Note_on_c, 2, 77, 66
4, 176640, Note_on_c, 2, 65, 66
4, 177404, Note_off_c, 2, 77, 64
4, 177404, Note_off_c, 2, 65, 64
4, 177408, Note_on_c, 2, 76, 66
4, 177408, Note_on_c, 2, 64, 66
4, 178172, Note_off_c, 2, 76, 64
4, 178172, Note_off_c, 2, 64, 64
4, 178176, Note_on_c, 2, 77, 66
4, 178176, Note_on_c, 2, 65, 66
4, 178556, Note_off_c, 2, 77, 64
4, 178556, Note_off_c, 2, 65, 64
4, 178560, Note_on_c, 2, 65, 66
4, 178560, Note_on_c, 2, 69, 66
4, 178940, Note_off_c, 2, 65, 64
4, 178940, Note_off_c, 2, 69, 64
4, 178944, Note_on_c, 2, 67, 66
4, 178944, Note_on_c, 2, 70, 66
4, 179324, Note_off_c, 2, 67, 64
4, 179324, Note_off_c, 2, 70, 64
4, 179328, Note_on_c, 2, 69, 66
4, 179328, Note_on_c, 2, 72, 66
4, 179708, Note_off_c, 2, 69, 64
4, 179708, Note_off_c, 2, 72, 64
4, 179712, Note_on_c, 2, 79, 66
4, 179712, Note_on_c, 2, 67, 66
4, 180476, Note_off_c, 2, 79, 64
4, 180476, Note_off_c, 2, 67, 64
4, 180480, Note_on_c, 2, 78, 66
4, 180480, Note_on_c, 2, 66, 66
4, 181244, Note_off_c, 2, 78, 64
4, 181244, Note_off_c, 2, 66, 64
4, 181248, Note_on_c, 2, 79, 66
4, 181248, Note_on_c, 2, 67, 66
4, 181628, Note_off_c, 2, 79, 64
4, 181628, Note_off_c, 2, 67, 64
4, 181632, Note_on_c, 2, 67, 66
4, 181632, Note_on_c, 2, 70, 66
4, 182012, Note_off_c, 2, 67, 64
4, 182012, Note_off_c, 2, 70, 64
4, 182016, Note_on_c, 2, 69, 66
4, 182016, Note_on_c, 2, 72, 66
4, 182396, Note_off_c, 2, 69, 64
4, 182396, Note_off_c, 2, 72, 64
4, 182400, Note_on_c, 2, 70, 66
4, 182400, Note_on_c, 2, 74, 66
4, 182780, Note_off_c, 2, 70, 64
4, 182780, Note_off_c, 2, 74, 64
4, 182784, Note_on_c, 2, 81, 66
4, 182784, Note_on_c, 2, 69, 66
4, 183548, Note_off_c, 2, 81, 64
4, 183548, Note_off_c, 2, 69, 64
4, 183552, Note_on_c, 2, 80, 66
4, 183552, Note_on_c, 2, 68, 66
4, 184316, Note_off_c, 2, 80, 64
4, 184316, Note_off_c, 2, 68, 64
4, 184320, Note_on_c, 2, 81, 66
4, 184320, Note_on_c, 2, 69, 66
4, 184700, Note_off_c, 2, 81, 64
4, 184700, Note_off_c, 2, 69, 64
4, 184704, Note_on_c, 2, 72, 66
4, 184704, Note_on_c, 2, 69, 66
4, 185084, Note_off_c, 2, 72, 64
4, 185084, Note_off_c, 2, 69, 64
4, 185088, Note_on_c, 2, 74, 66
4, 185088, Note_on_c, 2, 71, 66
4, 185468, Note_off_c, 2, 74, 64
4, 185468, Note_off_c, 2, 71, 64
4, 185472, Note_on_c, 2, 76, 66
4, 185472, Note_on_c, 2, 72, 66
4, 185852, Note_off_c, 2, 76, 64
4, 185852, Note_off_c, 2, 72, 64
4, 185856, Note_on_c, 2, 77, 66
4, 186044, Note_off_c, 2, 77, 64
4, 186048, Note_on_c, 2, 70, 66
4, 186236, Note_off_c, 2, 70, 64
4, 186240, Note_on_c, 2, 82, 70
4, 186428, Note_off_c, 2, 82, 64
4, 186432, Note_on_c, 2, 81, 69
4, 186620, Note_off_c, 2, 81, 64
4, 186624, Note_on_c, 2, 79, 68
4, 186812, Note_off_c, 2, 79, 64
4, 186816, Note_on_c, 2, 67, 67
4, 187004, Note_off_c, 2, 67, 64
4, 187008, Note_on_c, 2, 72, 66
4, 187196, Note_off_c, 2, 72, 64
4, 187200, Note_on_c, 2, 70, 66
4, 187388, Note_off_c, 2, 70, 64
4, 187392, Note_on_c, 2, 69, 66
4, 187580, Note_off_c, 2, 69, 64
4, 187584, Note_on_c, 2, 72, 66
4, 187772, Note_off_c, 2, 72, 64
4, 187776, Note_on_c, 2, 81, 70
4, 187964, Note_off_c, 2, 81, 64
4, 187968, Note_on_c, 2, 79, 69
4, 188156, Note_off_c, 2, 79, 64
4, 188160, Note_on_c, 2, 77, 68
4, 188348, Note_off_c, 2, 77, 64
4, 188352, Note_on_c, 2, 65, 67
4, 188540, Note_off_c, 2, 65, 64
4, 188544, Note_on_c, 2, 70, 66
4, 188732, Note_off_c, 2, 70, 64
4, 188736, Note_on_c, 2, 69, 66
4, 188924, Note_off_c, 2, 69, 64
4, 188928, Note_on_c, 2, 67, 66
4, 189116, Note_off_c, 2, 67, 64
4, 189120, Note_on_c, 2, 62, 66
4, 189308, Note_off_c, 2, 62, 64
4, 189312, Note_on_c, 2, 74, 68
4, 189500, Note_off_c, 2, 74, 64
4, 189504, Note_on_c, 2, 70, 67
4, 189692, Note_off_c, 2, 70, 64
4, 189696, Note_on_c, 2, 66, 66
4, 189884, Note_off_c, 2, 66, 64
4, 190080, Note_on_c, 2, 62, 66
4, 190268, Note_off_c, 2, 62, 64
4, 190272, Note_on_c, 2, 67, 66
4, 190460, Note_off_c, 2, 67, 64
4, 190464, Note_on_c, 2, 72, 66
4, 190464, Note_on_c, 2, 64, 66
4, 190464, Note_on_c, 2, 67, 66
4, 191228, Note_off_c, 2, 72, 64
4, 191228, Note_off_c, 2, 64, 64
4, 191232, Note_on_c, 2, 74, 66
4, 191232, Note_on_c, 2, 65, 66
4, 191996, Note_off_c, 2, 74, 64
4, 191996, Note_off_c, 2, 65, 64
4, 192000, Note_on_c, 2, 72, 66
4, 192000, Note_on_c, 2, 64, 66
4, 192764, Note_off_c, 2, 72, 64
4, 192764, Note_off_c, 2, 64, 64
4, 192768, Note_on_c, 2, 74, 66
4, 192768, Note_on_c, 2, 65, 66
4, 193532, Note_off_c, 2, 67, 64
4, 193532, Note_off_c, 2, 74, 64
4, 193532, Note_off_c, 2, 65, 64
4, 193536, Note_on_c, 2, 72, 66
4, 193536, Note_on_c, 2, 67, 66
4, 193536, Note_on_c, 2, 64, 66
4, 193916, Note_off_c, 2, 72, 64
4, 193916, Note_off_c, 2, 67, 64
4, 193916, Note_off_c, 2, 64, 64
4, 193920, Note_on_c, 2, 72, 66
4, 193920, Note_on_c, 2, 68, 66
4, 193920, Note_on_c, 2, 65, 66
4, 194300, Note_off_c, 2, 72, 64
4, 194300, Note_off_c, 2, 68, 64
4, 194300, Note_off_c, 2, 65, 64
4, 194304, Note_on_c, 2, 72, 66
4, 194304, Note_on_c, 2, 67, 66
4, 194304, Note_on_c, 2, 64, 66
4, 194684, Note_off_c, 2, 72, 64
4, 194684, Note_off_c, 2, 67, 64
4, 194684, Note_off_c, 2, 64, 64
4, 194688, Note_on_c, 2, 72, 66
4, 194688, Note_on_c, 2, 68, 66
4, 194688, Note_on_c, 2, 65, 66
4, 195068, Note_off_c, 2, 72, 64
4, 195068, Note_off_c, 2, 68, 64
4, 195068, Note_off_c, 2, 65, 64
4, 195072, Note_on_c, 2, 72, 66
4, 195072, Note_on_c, 2, 67, 66
4, 195072, Note_on_c, 2, 64, 66
4, 195452, Note_off_c, 2, 72, 64
4, 195452, Note_off_c, 2, 67, 64
4, 195452, Note_off_c, 2, 64, 64
4, 198912, Note_on_c, 2, 81, 66
4, 198912, Note_on_c, 2, 84, 66
4, 199004, Note_off_c, 2, 84, 64
4, 199008, Note_on_c, 2, 77, 66
4, 199292, Note_off_c, 2, 81, 64
4, 199292, Note_off_c, 2, 77, 64
4, 199296, Note_on_c, 2, 77, 66
4, 199296, Note_on_c, 2, 81, 66
4, 199388, Note_off_c, 2, 81, 64
4, 199392, Note_on_c, 2, 72, 66
4, 199676, Note_off_c, 2, 77, 64
4, 199676, Note_off_c, 2, 72, 64
4, 199680, Note_on_c, 2, 72, 66
4, 199680, Note_on_c, 2, 77, 66
4, 199772, Note_off_c, 2, 77, 64
4, 199776, Note_on_c, 2, 69, 66
4, 200060, Note_off_c, 2, 72, 64
4, 200060, Note_off_c, 2, 69, 64
4, 200064, Note_on_c, 2, 69, 66
4, 200064, Note_on_c, 2, 72, 66
4, 200156, Note_off_c, 2, 72, 64
4, 200160, Note_on_c, 2, 65, 66
4, 200444, Note_off_c, 2, 69, 64
4, 200444, Note_off_c, 2, 65, 64
4, 200448, Note_on_c, 2, 70, 66
4, 200448, Note_on_c, 2, 67, 66
4, 200448, Note_on_c, 2, 60, 66
4, 200636, Note_off_c, 2, 70, 64
4, 200636, Note_off_c, 2, 67, 64
4, 200636, Note_off_c, 2, 60, 64
4, 200832, Note_on_c, 2, 69, 66
4, 200832, Note_on_c, 2, 65, 66
4, 200832, Note_on_c, 2, 60, 66
4, 201020, Note_off_c, 2, 69, 64
4, 201020, Note_off_c, 2, 65, 64
4, 201020, Note_off_c, 2, 60, 64
4, 201216, Note_on_c, 2, 67, 66
4, 201216, Note_on_c, 2, 64, 66
4, 201216, Note_on_c, 2, 60, 66
4, 201596, Note_off_c, 2, 67, 64
4, 201596, Note_off_c, 2, 64, 64
4, 201596, Note_off_c, 2, 60, 64
4, 205056, Note_on_c, 2, 82, 66
4, 205056, Note_on_c, 2, 86, 79
4, 205140, Note_off_c, 2, 86, 64
4, 205152, Note_on_c, 2, 79, 68
4, 205436, Note_off_c, 2, 82, 64
4, 205436, Note_off_c, 2, 79, 64
4, 205440, Note_on_c, 2, 79, 66
4, 205440, Note_on_c, 2, 82, 79
4, 205524, Note_off_c, 2, 82, 64
4, 205536, Note_on_c, 2, 74, 68
4, 205820, Note_off_c, 2, 79, 64
4, 205820, Note_off_c, 2, 74, 64
4, 205824, Note_on_c, 2, 74, 66
4, 205824, Note_on_c, 2, 79, 79
4, 205908, Note_off_c, 2, 79, 64
4, 205920, Note_on_c, 2, 70, 68
4, 206204, Note_off_c, 2, 74, 64
4, 206204, Note_off_c, 2, 70, 64
4, 206208, Note_on_c, 2, 70, 66
4, 206208, Note_on_c, 2, 74, 79
4, 206292, Note_off_c, 2, 74, 64
4, 206304, Note_on_c, 2, 67, 68
4, 206588, Note_off_c, 2, 70, 64
4, 206588, Note_off_c, 2, 67, 64
4, 206592, Note_on_c, 2, 69, 66
4, 206592, Note_on_c, 2, 65, 66
4, 206592, Note_on_c, 2, 60, 66
4, 206972, Note_off_c, 2, 69, 64
4, 206972, Note_off_c, 2, 65, 64
4, 206972, Note_off_c, 2, 60, 64
4, 206976, Note_on_c, 2, 67, 66
4, 206976, Note_on_c, 2, 64, 66
4, 206976, Note_on_c, 2, 58, 66
4, 207356, Note_off_c, 2, 67, 64
4, 207356, Note_off_c, 2, 64, 64
4, 207356, Note_off_c, 2, 58, 64
4, 207360, Note_on_c, 2, 65, 66
4, 207360, Note_on_c, 2, 57, 66
4, 207740, Note_off_c, 2, 65, 64
4, 207740, Note_off_c, 2, 57, 64
4, 208128, Note_on_c, 2, 72, 66
4, 208508, Note_off_c, 2, 72, 64
4, 208512, Note_on_c, 2, 72, 66
4, 208892, Note_off_c, 2, 72, 64
4, 208896, Note_on_c, 2, 69, 66
4, 208896, Note_on_c, 2, 72, 66
4, 208896, Note_on_c, 2, 81, 66
4, 209468, Note_off_c, 2, 81, 64
4, 209472, Note_on_c, 2, 79, 66
4, 209564, Note_off_c, 2, 79, 64
4, 209568, Note_on_c, 2, 77, 66
4, 209660, Note_off_c, 2, 69, 64
4, 209660, Note_off_c, 2, 77, 64
4, 209664, Note_on_c, 2, 70, 66
4, 209664, Note_on_c, 2, 76, 66
4, 210044, Note_off_c, 2, 76, 64
4, 210048, Note_on_c, 2, 79, 66
4, 210428, Note_off_c, 2, 70, 64
4, 210428, Note_off_c, 2, 79, 64
4, 210432, Note_on_c, 2, 69, 66
4, 210432, Note_on_c, 2, 77, 66
4, 210812, Note_off_c, 2, 72, 64
4, 210812, Note_off_c, 2, 69, 64
4, 210812, Note_off_c, 2, 77, 64
4, 211200, Note_on_c, 2, 72, 66
4, 211200, Note_on_c, 2, 69, 66
4, 211580, Note_off_c, 2, 72, 64
4, 211580, Note_off_c, 2, 69, 64
4, 211584, Note_on_c, 2, 77, 66
4, 211584, Note_on_c, 2, 72, 66
4, 211964, Note_off_c, 2, 77, 64
4, 211964, Note_off_c, 2, 72, 64
4, 211968, Note_on_c, 2, 81, 66
4, 211968, Note_on_c, 2, 77, 66
4, 212348, Note_off_c, 2, 81, 64
4, 212348, Note_off_c, 2, 77, 64
4, 212352, Note_on_c, 2, 84, 66
4, 212352, Note_on_c, 2, 81, 66
4, 212732, Note_off_c, 2, 84, 64
4, 212732, Note_off_c, 2, 81, 64
4, 212736, Note_on_c, 2, 79, 66
4, 212736, Note_on_c, 2, 82, 66
4, 212736, Note_on_c, 2, 72, 66
4, 212924, Note_off_c, 2, 79, 64
4, 212924, Note_off_c, 2, 82, 64
4, 212924, Note_off_c, 2, 72, 64
4, 213120, Note_on_c, 2, 77, 66
4, 213120, Note_on_c, 2, 81, 66
4, 213120, Note_on_c, 2, 72, 66
4, 213308, Note_off_c, 2, 77, 64
4, 213308, Note_off_c, 2, 81, 64
4, 213308, Note_off_c, 2, 72, 64
4, 213504, Note_on_c, 2, 79, 66
4, 213504, Note_on_c, 2, 76, 66
4, 213504, Note_on_c, 2, 72, 66
4, 213884, Note_off_c, 2, 79, 64
4, 213884, Note_off_c, 2, 76, 64
4, 213884, Note_off_c, 2, 72, 64
4, 214272, Note_on_c, 2, 74, 66
4, 214652, Note_off_c, 2, 74, 64
4, 214656, Note_on_c, 2, 74, 66
4, 215036, Note_off_c, 2, 74, 64
4, 215040, Note_on_c, 2, 74, 66
4, 215040, Note_on_c, 2, 70, 66
4, 215040, Note_on_c, 2, 82, 66
4, 215612, Note_off_c, 2, 82, 64
4, 215616, Note_on_c, 2, 81, 66
4, 215708, Note_off_c, 2, 81, 64
4, 215712, Note_on_c, 2, 79, 66
4, 215804, Note_off_c, 2, 74, 64
4, 215804, Note_off_c, 2, 70, 64
4, 215804, Note_off_c, 2, 79, 64
4, 215808, Note_on_c, 2, 72, 66
4, 215808, Note_on_c, 2, 78, 66
4, 215808, Note_on_c, 2, 75, 66
4, 216188, Note_off_c, 2, 78, 64
4, 216192, Note_on_c, 2, 81, 66
4, 216380, Note_off_c, 2, 75, 64
4, 216384, Note_on_c, 2, 74, 66
4, 216572, Note_off_c, 2, 72, 64
4, 216572, Note_off_c, 2, 81, 64
4, 216572, Note_off_c, 2, 74, 64
4, 216576, Note_on_c, 2, 79, 66
4, 216576, Note_on_c, 2, 74, 66
4, 216576, Note_on_c, 2, 70, 66
4, 216956, Note_off_c, 2, 79, 64
4, 216956, Note_off_c, 2, 74, 64
4, 216956, Note_off_c, 2, 70, 64
4, 217344, Note_on_c, 2, 70, 66
4, 217344, Note_on_c, 2, 74, 66
4, 217724, Note_off_c, 2, 70, 64
4, 217724, Note_off_c, 2, 74, 64
4, 217728, Note_on_c, 2, 74, 66
4, 217728, Note_on_c, 2, 79, 66
4, 218108, Note_off_c, 2, 74, 64
4, 218108, Note_off_c, 2, 79, 64
4, 218112, Note_on_c, 2, 79, 66
4, 218112, Note_on_c, 2, 82, 66
4, 218492, Note_off_c, 2, 79, 64
4, 218492, Note_off_c, 2, 82, 64
4, 218496, Note_on_c, 2, 82, 66
4, 218496, Note_on_c, 2, 86, 66
4, 218876, Note_off_c, 2, 82, 64
4, 218876, Note_off_c, 2, 86, 64
4, 218880, Note_on_c, 2, 77, 66
4, 218880, Note_on_c, 2, 72, 66
4, 218880, Note_on_c, 2, 69, 66
4, 219260, Note_off_c, 2, 77, 64
4, 219260, Note_off_c, 2, 72, 64
4, 219260, Note_off_c, 2, 69, 64
4, 219264, Note_on_c, 2, 81, 78
4, 219360, Note_off_c, 2, 81, 64
4, 219360, Note_on_c, 2, 79, 66
4, 219360, Note_on_c, 2, 76, 66
4, 219360, Note_on_c, 2, 70, 66
4, 219644, Note_off_c, 2, 79, 64
4, 219644, Note_off_c, 2, 76, 64
4, 219644, Note_off_c, 2, 70, 64
4, 219648, Note_on_c, 2, 77, 66
4, 219648, Note_on_c, 2, 69, 66
4, 220028, Note_off_c, 2, 77, 64
4, 220028, Note_off_c, 2, 69, 64
4, 221184, Note_on_c, 2, 64, 66
4, 221184, Note_on_c, 2, 60, 66
4, 221372, Note_off_c, 2, 64, 64
4, 221372, Note_off_c, 2, 60, 64
4, 221376, Note_on_c, 2, 65, 67
4, 221376, Note_on_c, 2, 62, 67
4, 221564, Note_off_c, 2, 65, 64
4, 221564, Note_off_c, 2, 62, 64
4, 221568, Note_on_c, 2, 64, 68
4, 221568, Note_on_c, 2, 67, 68
4, 221756, Note_off_c, 2, 64, 64
4, 221756, Note_off_c, 2, 67, 64
4, 221760, Note_on_c, 2, 65, 69
4, 221760, Note_on_c, 2, 69, 69
4, 221948, Note_off_c, 2, 65, 64
4, 221948, Note_off_c, 2, 69, 64
4, 221952, Note_on_c, 2, 70, 70
4, 221952, Note_on_c, 2, 67, 70
4, 222140, Note_off_c, 2, 70, 64
4, 222140, Note_off_c, 2, 67, 64
4, 222144, Note_on_c, 2, 72, 70
4, 222144, Note_on_c, 2, 69, 70
4, 222332, Note_off_c, 2, 72, 64
4, 222332, Note_off_c, 2, 69, 64
4, 222336, Note_on_c, 2, 74, 72
4, 222336, Note_on_c, 2, 70, 72
4, 222512, Note_on_c, 2, 76, 66
4, 222524, Note_off_c, 2, 74, 64
4, 222524, Note_off_c, 2, 70, 64
4, 222528, Note_on_c, 2, 67, 66
4, 222700, Note_off_c, 2, 76, 64
4, 222716, Note_off_c, 2, 67, 64
4, 222720, Note_on_c, 2, 77, 66
4, 222720, Note_on_c, 2, 69, 66
4, 223100, Note_off_c, 2, 77, 64
4, 223100, Note_off_c, 2, 69, 64
4, 224256, Note_on_c, 2, 64, 66
4, 224256, Note_on_c, 2, 60, 66
4, 224444, Note_off_c, 2, 64, 64
4, 224444, Note_off_c, 2, 60, 64
4, 224448, Note_on_c, 2, 65, 67
4, 224448, Note_on_c, 2, 62, 67
4, 224636, Note_off_c, 2, 65, 64
4, 224636, Note_off_c, 2, 62, 64
4, 224640, Note_on_c, 2, 67, 68
4, 224640, Note_on_c, 2, 64, 68
4, 224828, Note_off_c, 2, 67, 64
4, 224828, Note_off_c, 2, 64, 64
4, 224832, Note_on_c, 2, 69, 69
4, 224832, Note_on_c, 2, 65, 69
4, 225020, Note_off_c, 2, 69, 64
4, 225020, Note_off_c, 2, 65, 64
4, 225024, Note_on_c, 2, 70, 70
4, 225024, Note_on_c, 2, 67, 70
4, 225212, Note_off_c, 2, 70, 64
4, 225212, Note_off_c, 2, 67, 64
4, 225216, Note_on_c, 2, 72, 71
4, 225216, Note_on_c, 2, 69, 71
4, 225404, Note_off_c, 2, 72, 64
4, 225404, Note_off_c, 2, 69, 64
4, 225408, Note_on_c, 2, 74, 72
4, 225408, Note_on_c, 2, 70, 72
4, 225596, Note_off_c, 2, 74, 64
4, 225596, Note_off_c, 2, 70, 64
4, 225600, Note_on_c, 2, 76, 66
4, 225600, Note_on_c, 2, 67, 66
4, 225788, Note_off_c, 2, 76, 64
4, 225788, Note_off_c, 2, 67, 64
4, 225792, Note_on_c, 2, 77, 66
4, 225792, Note_on_c, 2, 69, 66
4, 226172, Note_off_c, 2, 77, 64
4, 226172, Note_off_c, 2, 69, 64
4, 226368, Note_on_c, 2, 73, 66
4, 226368, Note_on_c, 2, 70, 66
4, 226368, Note_on_c, 2, 67, 66
4, 226556, Note_off_c, 2, 73, 64
4, 226556, Note_off_c, 2, 70, 64
4, 226556, Note_off_c, 2, 67, 64
4, 226560, Note_on_c, 2, 74, 66
4, 226560, Note_on_c, 2, 69, 66
4, 226940, Note_off_c, 2, 74, 64
4, 226940, Note_off_c, 2, 69, 64
4, 227136, Note_on_c, 2, 69, 66
4, 227136, Note_on_c, 2, 64, 66
4, 227324, Note_off_c, 2, 69, 64
4, 227324, Note_off_c, 2, 64, 64
4, 227328, Note_on_c, 2, 70, 66
4, 227328, Note_on_c, 2, 65, 66
4, 227516, Note_off_c, 2, 70, 64
4, 227516, Note_off_c, 2, 65, 64
4, 227904, Note_on_c, 2, 68, 66
4, 227904, Note_on_c, 2, 65, 66
4, 227904, Note_on_c, 2, 62, 66
4, 228092, Note_off_c, 2, 68, 64
4, 228092, Note_off_c, 2, 65, 64
4, 228092, Note_off_c, 2, 62, 64
4, 228096, Note_on_c, 2, 69, 66
4, 228096, Note_on_c, 2, 64, 66
4, 228476, Note_off_c, 2, 69, 64
4, 228476, Note_off_c, 2, 64, 64
4, 228672, Note_on_c, 2, 66, 66
4, 228672, Note_on_c, 2, 63, 66
4, 228672, Note_on_c, 2, 60, 66
4, 228860, Note_off_c, 2, 66, 64
4, 228860, Note_off_c, 2, 63, 64
4, 228860, Note_off_c, 2, 60, 64
4, 228864, Note_on_c, 2, 67, 66
4, 228864, Note_on_c, 2, 62, 66
4, 229244, Note_off_c, 2, 67, 64
4, 229244, Note_off_c, 2, 62, 64
4, 230400, Note_on_c, 2, 65, 66
4, 230400, Note_on_c, 2, 62, 66
4, 230400, Note_on_c, 2, 67, 66
4, 231932, Note_off_c, 2, 65, 64
4, 231932, Note_off_c, 2, 62, 64
4, 231932, Note_off_c, 2, 67, 64
4, 231936, Note_on_c, 2, 69, 66
4, 231936, Note_on_c, 2, 65, 66
4, 231936, Note_on_c, 2, 60, 66
4, 232316, Note_off_c, 2, 69, 64
4, 232316, Note_off_c, 2, 65, 64
4, 232316, Note_off_c, 2, 60, 64
4, 239616, Note_on_c, 2, 74, 66
4, 239616, Note_on_c, 2, 65, 66
4, 239616, Note_on_c, 2, 70, 66
4, 240380, Note_off_c, 2, 74, 64
4, 240380, Note_off_c, 2, 65, 64
4, 240384, Note_on_c, 2, 76, 66
4, 240384, Note_on_c, 2, 70, 66
4, 241148, Note_off_c, 2, 70, 64
4, 241148, Note_off_c, 2, 76, 64
4, 241148, Note_off_c, 2, 70, 64
4, 241152, Note_on_c, 2, 77, 66
4, 241152, Note_on_c, 2, 72, 66
4, 241152, Note_on_c, 2, 69, 66
4, 241916, Note_off_c, 2, 77, 64
4, 241916, Note_off_c, 2, 72, 64
4, 241916, Note_off_c, 2, 69, 64
4, 241920, Note_on_c, 2, 71, 66
4, 241920, Note_on_c, 2, 65, 66
4, 242684, Note_off_c, 2, 71, 64
4, 242684, Note_off_c, 2, 65, 64
4, 242688, Note_on_c, 2, 72, 66
4, 242688, Note_on_c, 2, 69, 66
4, 242688, Note_on_c, 2, 65, 66
4, 243452, Note_off_c, 2, 72, 64
4, 243452, Note_off_c, 2, 69, 64
4, 243452, Note_off_c, 2, 65, 64
4, 243456, Note_on_c, 2, 64, 66
4, 243456, Note_on_c, 2, 58, 66
4, 243456, Note_on_c, 2, 55, 66
4, 244220, Note_off_c, 2, 64, 64
4, 244220, Note_off_c, 2, 58, 64
4, 244220, Note_off_c, 2, 55, 64
4, 244224, Note_on_c, 2, 65, 66
4, 244224, Note_on_c, 2, 57, 66
4, 244604, Note_off_c, 2, 65, 64
4, 244604, Note_off_c, 2, 57, 64
4, 253440, Note_on_c, 2, 73, 66
4, 253440, Note_on_c, 2, 70, 66
4, 253440, Note_on_c, 2, 65, 66
4, 254204, Note_off_c, 2, 73, 64
4, 254208, Note_on_c, 2, 74, 66
4, 254972, Note_off_c, 2, 70, 64
4, 254972, Note_off_c, 2, 65, 64
4, 254972, Note_off_c, 2, 74, 64
4, 254976, Note_on_c, 2, 76, 66
4, 254976, Note_on_c, 2, 73, 66
4, 254976, Note_on_c, 2, 67, 66
4, 255740, Note_off_c, 2, 76, 64
4, 255740, Note_off_c, 2, 73, 64
4, 255740, Note_off_c, 2, 67, 64
4, 255744, Note_on_c, 2, 77, 66
4, 255744, Note_on_c, 2, 74, 66
4, 255744, Note_on_c, 2, 68, 66
4, 256508, Note_off_c, 2, 77, 64
4, 256508, Note_off_c, 2, 74, 64
4, 256508, Note_off_c, 2, 68, 64
4, 256512, Note_on_c, 2, 81, 66
4, 256512, Note_on_c, 2, 77, 66
4, 256512, Note_on_c, 2, 72, 66
4, 259964, Note_off_c, 2, 77, 64
4, 259964, Note_off_c, 2, 81, 64
4, 259968, Note_on_c, 2, 84, 66
4, 260348, Note_off_c, 2, 72, 64
4, 260348, Note_off_c, 2, 84, 64
4, 260352, Note_on_c, 2, 81, 66
4, 260352, Note_on_c, 2, 69, 66
4, 260732, Note_off_c, 2, 81, 64
4, 260732, Note_off_c, 2, 69, 64
4, 260736, Note_on_c, 2, 77, 66
4, 260736, Note_on_c, 2, 65, 66
4, 261116, Note_off_c, 2, 77, 64
4, 261116, Note_off_c, 2, 65, 64
4, 261120, Note_on_c, 2, 72, 66
4, 261884, Note_off_c, 2, 72, 64
4, 261888, Note_on_c, 2, 69, 66
4, 262268, Note_off_c, 2, 69, 64
4, 262272, Note_on_c, 2, 65, 66
4, 262652, Note_off_c, 2, 65, 64
4, 264192, Note_on_c, 2, 81, 66
4, 264192, Note_on_c, 2, 77, 66
4, 264192, Note_on_c, 2, 72, 66
4, 265724, Note_off_c, 2, 81, 64
4, 265724, Note_off_c, 2, 77, 64
4, 265724, Note_off_c, 2, 72, 64
4, 265728, Note_on_c, 2, 79, 66
4, 265728, Note_on_c, 2, 76, 66
4, 265728, Note_on_c, 2, 70, 66
4, 267260, Note_off_c, 2, 79, 64
4, 267260, Note_off_c, 2, 76, 64
4, 267260, Note_off_c, 2, 70, 64
4, 267264, Note_on_c, 2, 77, 80
4, 267264, Note_on_c, 2, 69, 80
4, 267264, Note_on_c, 2, 65, 80
4, 267644, Note_off_c, 2, 77, 64
4, 267644, Note_off_c, 2, 69, 64
4, 267644, Note_off_c, 2, 65, 64
4, 267840, Note_on_c, 2, 60, 80
4, 267904, Note_off_c, 2, 60, 64
4, 267904, Note_on_c, 2, 62, 80
4, 267968, Note_off_c, 2, 62, 64
4, 267968, Note_on_c, 2, 64, 80
4, 268032, Note_off_c, 2, 64, 64
4, 268032, Note_on_c, 2, 65, 80
4, 268412, Note_off_c, 2, 65, 64
4, 269376, Note_on_c, 2, 72, 80
4, 269436, Note_off_c, 2, 72, 64
4, 269440, Note_on_c, 2, 74, 80
4, 269500, Note_off_c, 2, 74, 64
4, 269504, Note_on_c, 2, 76, 80
4, 269564, Note_off_c, 2, 76, 64
4, 269568, Note_on_c, 2, 77, 80
4, 269948, Note_off_c, 2, 77, 64
4, 270144, Note_on_c, 2, 84, 80
4, 270204, Note_off_c, 2, 84, 64
4, 270208, Note_on_c, 2, 86, 80
4, 270268, Note_off_c, 2, 86, 64
4, 270272, Note_on_c, 2, 88, 80
4, 270332, Note_off_c, 2, 88, 64
4, 270336, Note_on_c, 2, 89, 80
4, 270716, Note_off_c, 2, 89, 64
4, 270720, Note_on_c, 2, 84, 80
4, 270720, Note_on_c, 2, 72, 80
4, 270908, Note_off_c, 2, 84, 64
4, 270908, Note_off_c, 2, 72, 64
4, 271104, Note_on_c, 2, 81, 80
4, 271104, Note_on_c, 2, 69, 80
4, 271292, Note_off_c, 2, 81, 64
4, 271292, Note_off_c, 2, 69, 64
4, 271488, Note_on_c, 2, 77, 80
4, 271488, Note_on_c, 2, 65, 80
4, 271676, Note_off_c, 2, 77, 64
4, 271676, Note_off_c, 2, 65, 64
4, 271872, Note_on_c, 2, 76, 80
4, 271872, Note_on_c, 2, 70, 80
4, 271872, Note_on_c, 2, 67, 80
4, 271872, Note_on_c, 2, 64, 80
4, 272252, Note_off_c, 2, 76, 64
4, 272252, Note_off_c, 2, 70, 64
4, 272252, Note_off_c, 2, 67, 64
4, 272252, Note_off_c, 2, 64, 64
4, 272256, Note_on_c, 2, 55, 80
4, 272348, Note_off_c, 2, 55, 64
4, 272352, Note_on_c, 2, 58, 80
4, 272444, Note_off_c, 2, 58, 64
4, 272448, Note_on_c, 2, 55, 80
4, 272540, Note_off_c, 2, 55, 64
4, 272544, Note_on_c, 2, 58, 80
4, 272636, Note_off_c, 2, 58, 64
4, 272640, Note_on_c, 2, 55, 80
4, 272732, Note_off_c, 2, 55, 64
4, 272736, Note_on_c, 2, 58, 80
4, 272828, Note_off_c, 2, 58, 64
4, 272832, Note_on_c, 2, 55, 80
4, 272924, Note_off_c, 2, 55, 64
4, 272928, Note_on_c, 2, 58, 80
4, 273020, Note_off_c, 2, 58, 64
4, 273216, Note_on_c, 2, 79, 80
4, 273256, Note_off_c, 2, 79, 64
4, 273264, Note_on_c, 2, 81, 80
4, 273304, Note_off_c, 2, 81, 64
4, 273312, Note_on_c, 2, 82, 80
4, 273352, Note_off_c, 2, 82, 64
4, 273360, Note_on_c, 2, 84, 80
4, 273400, Note_off_c, 2, 84, 64
4, 273408, Note_on_c, 2, 86, 80
4, 273788, Note_off_c, 2, 86, 64
4, 273792, Note_on_c, 2, 81, 80
4, 273792, Note_on_c, 2, 69, 80
4, 273980, Note_off_c, 2, 81, 64
4, 273980, Note_off_c, 2, 69, 64
4, 274176, Note_on_c, 2, 77, 80
4, 274176, Note_on_c, 2, 65, 80
4, 274364, Note_off_c, 2, 77, 64
4, 274364, Note_off_c, 2, 65, 64
4, 274560, Note_on_c, 2, 74, 80
4, 274560, Note_on_c, 2, 62, 80
4, 274748, Note_off_c, 2, 74, 64
4, 274748, Note_off_c, 2, 62, 64
4, 274944, Note_on_c, 2, 72, 80
4, 274944, Note_on_c, 2, 60, 80
4, 275516, Note_off_c, 2, 72, 64
4, 275516, Note_off_c, 2, 60, 64
4, 275520, Note_on_c, 2, 73, 80
4, 275520, Note_on_c, 2, 61, 80
4, 275708, Note_off_c, 2, 73, 64
4, 275708, Note_off_c, 2, 61, 64
4, 275712, Note_on_c, 2, 72, 80
4, 275712, Note_on_c, 2, 60, 80
4, 275900, Note_off_c, 2, 72, 64
4, 275900, Note_off_c, 2, 60, 64
4, 275904, Note_on_c, 2, 71, 80
4, 275904, Note_on_c, 2, 59, 80
4, 276092, Note_off_c, 2, 71, 64
4, 276092, Note_off_c, 2, 59, 64
4, 276096, Note_on_c, 2, 72, 80
4, 276096, Note_on_c, 2, 60, 80
4, 276284, Note_off_c, 2, 72, 64
4, 276284, Note_off_c, 2, 60, 64
4, 276288, Note_on_c, 2, 71, 80
4, 276288, Note_on_c, 2, 59, 80
4, 276476, Note_off_c, 2, 71, 64
4, 276476, Note_off_c, 2, 59, 64
4, 276480, Note_on_c, 2, 72, 80
4, 276480, Note_on_c, 2, 60, 80
4, 277052, Note_off_c, 2, 72, 64
4, 277052, Note_off_c, 2, 60, 64
4, 277056, Note_on_c, 2, 73, 80
4, 277056, Note_on_c, 2, 61, 80
4, 277244, Note_off_c, 2, 73, 64
4, 277244, Note_off_c, 2, 61, 64
4, 277248, Note_on_c, 2, 72, 80
4, 277248, Note_on_c, 2, 60, 80
4, 277436, Note_off_c, 2, 72, 64
4, 277436, Note_off_c, 2, 60, 64
4, 277440, Note_on_c, 2, 71, 80
4, 277440, Note_on_c, 2, 59, 80
4, 277628, Note_off_c, 2, 71, 64
4, 277628, Note_off_c, 2, 59, 64
4, 277632, Note_on_c, 2, 72, 80
4, 277632, Note_on_c, 2, 60, 80
4, 277820, Note_off_c, 2, 72, 64
4, 277820, Note_off_c, 2, 60, 64
4, 277824, Note_on_c, 2, 59, 80
4, 277824, Note_on_c, 2, 71, 80
4, 278012, Note_off_c, 2, 59, 64
4, 278012, Note_off_c, 2, 71, 64
4, 278016, Note_on_c, 2, 72, 80
4, 278016, Note_on_c, 2, 60, 80
4, 278204, Note_off_c, 2, 72, 64
4, 278204, Note_off_c, 2, 60, 64
4, 278208, Note_on_c, 2, 67, 66
4, 278588, Note_off_c, 2, 67, 64
4, 278592, Note_on_c, 2, 65, 66
4, 278780, Note_off_c, 2, 65, 64
4, 278784, Note_on_c, 2, 64, 66
4, 278972, Note_off_c, 2, 64, 64
4, 278976, Note_on_c, 2, 70, 66
4, 279356, Note_off_c, 2, 70, 64
4, 279360, Note_on_c, 2, 69, 66
4, 279548, Note_off_c, 2, 69, 64
4, 279552, Note_on_c, 2, 67, 66
4, 279740, Note_off_c, 2, 67, 64
4, 279744, Note_on_c, 2, 79, 66
4, 279744, Note_on_c, 2, 70, 66
4, 279744, Note_on_c, 2, 74, 66
4, 280124, Note_off_c, 2, 79, 64
4, 280124, Note_off_c, 2, 70, 64
4, 280124, Note_off_c, 2, 74, 64
4, 280128, Note_on_c, 2, 78, 66
4, 280128, Note_on_c, 2, 72, 66
4, 280128, Note_on_c, 2, 69, 66
4, 280128, Note_on_c, 2, 81, 66
4, 280316, Note_off_c, 2, 78, 64
4, 280316, Note_off_c, 2, 72, 64
4, 280316, Note_off_c, 2, 69, 64
4, 280316, Note_off_c, 2, 81, 64
4, 280320, Note_on_c, 2, 82, 66
4, 280320, Note_on_c, 2, 79, 66
4, 280320, Note_on_c, 2, 70, 66
4, 280320, Note_on_c, 2, 67, 66
4, 280508, Note_off_c, 2, 82, 64
4, 280508, Note_off_c, 2, 79, 64
4, 280508, Note_off_c, 2, 70, 64
4, 280508, Note_off_c, 2, 67, 64
4, 280512, Note_on_c, 2, 82, 66
4, 280512, Note_on_c, 2, 79, 66
4, 280892, Note_off_c, 2, 82, 64
4, 280892, Note_off_c, 2, 79, 64
4, 280896, Note_on_c, 2, 84, 66
4, 280896, Note_on_c, 2, 81, 66
4, 281084, Note_off_c, 2, 84, 64
4, 281084, Note_off_c, 2, 81, 64
4, 281088, Note_on_c, 2, 86, 66
4, 281088, Note_on_c, 2, 82, 66
4, 281468, Note_off_c, 2, 86, 64
4, 281468, Note_off_c, 2, 82, 64
4, 281472, Note_on_c, 2, 82, 66
4, 281472, Note_on_c, 2, 79, 66
4, 281660, Note_off_c, 2, 82, 64
4, 281660, Note_off_c, 2, 79, 64
4, 281856, Note_on_c, 2, 86, 66
4, 281856, Note_on_c, 2, 82, 66
4, 282236, Note_off_c, 2, 86, 64
4, 282236, Note_off_c, 2, 82, 64
4, 282240, Note_on_c, 2, 82, 66
4, 282240, Note_on_c, 2, 79, 66
4, 282428, Note_off_c, 2, 82, 64
4, 282428, Note_off_c, 2, 79, 64
4, 282624, Note_on_c, 2, 84, 66
4, 282624, Note_on_c, 2, 81, 66
4, 283004, Note_off_c, 2, 84, 64
4, 283004, Note_off_c, 2, 81, 64
4, 283008, Note_on_c, 2, 81, 66
4, 283008, Note_on_c, 2, 77, 66
4, 283196, Note_off_c, 2, 81, 64
4, 283196, Note_off_c, 2, 77, 64
4, 283392, Note_on_c, 2, 84, 66
4, 283392, Note_on_c, 2, 81, 66
4, 283772, Note_off_c, 2, 84, 64
4, 283772, Note_off_c, 2, 81, 64
4, 283776, Note_on_c, 2, 81, 66
4, 283776, Note_on_c, 2, 77, 66
4, 283964, Note_off_c, 2, 81, 64
4, 283964, Note_off_c, 2, 77, 64
4, 284160, Note_on_c, 2, 79, 66
4, 284732, Note_off_c, 2, 79, 64
4, 284736, Note_on_c, 2, 81, 66
4, 284828, Note_off_c, 2, 81, 64
4, 284832, Note_on_c, 2, 84, 66
4, 284924, Note_off_c, 2, 84, 64
4, 284928, Note_on_c, 2, 77, 66
4, 284928, Note_on_c, 2, 72, 66
4, 284928, Note_on_c, 2, 69, 66
4, 285308, Note_off_c, 2, 77, 64
4, 285308, Note_off_c, 2, 72, 64
4, 285308, Note_off_c, 2, 69, 64
4, 285312, Note_on_c, 2, 76, 66
4, 285312, Note_on_c, 2, 70, 66
4, 285312, Note_on_c, 2, 67, 66
4, 285692, Note_off_c, 2, 76, 64
4, 285692, Note_off_c, 2, 70, 64
4, 285692, Note_off_c, 2, 67, 64
4, 285696, Note_on_c, 2, 77, 66
4, 285696, Note_on_c, 2, 69, 66
4, 285884, Note_off_c, 2, 77, 64
4, 285884, Note_off_c, 2, 69, 64
4, 285888, Note_on_c, 2, 65, 66
4, 286076, Note_off_c, 2, 65, 64
4, 286080, Note_on_c, 2, 72, 66
4, 286268, Note_off_c, 2, 72, 64
4, 286272, Note_on_c, 2, 69, 66
4, 286460, Note_off_c, 2, 69, 64
4, 286848, Note_on_c, 2, 72, 66
4, 286848, Note_on_c, 2, 81, 66
4, 287036, Note_off_c, 2, 72, 64
4, 287040, Note_on_c, 2, 69, 66
4, 287228, Note_off_c, 2, 69, 64
4, 287232, Note_on_c, 2, 74, 66
4, 287420, Note_off_c, 2, 81, 64
4, 287420, Note_off_c, 2, 74, 64
4, 287424, Note_on_c, 2, 79, 66
4, 287424, Note_on_c, 2, 70, 66
4, 287612, Note_off_c, 2, 79, 64
4, 287612, Note_off_c, 2, 70, 64
4, 287616, Note_on_c, 2, 82, 66
4, 287616, Note_on_c, 2, 74, 66
4, 288380, Note_off_c, 2, 82, 64
4, 288380, Note_off_c, 2, 74, 64
4, 288384, Note_on_c, 2, 71, 66
4, 288384, Note_on_c, 2, 81, 66
4, 288572, Note_off_c, 2, 71, 64
4, 288576, Note_on_c, 2, 72, 66
4, 288764, Note_off_c, 2, 81, 64
4, 288764, Note_off_c, 2, 72, 64
4, 288768, Note_on_c, 2, 79, 66
4, 288768, Note_on_c, 2, 70, 66
4, 288956, Note_off_c, 2, 70, 64
4, 288960, Note_on_c, 2, 67, 66
4, 289148, Note_off_c, 2, 79, 64
4, 289148, Note_off_c, 2, 67, 64
4, 289152, Note_on_c, 2, 77, 66
4, 289152, Note_on_c, 2, 70, 66
4, 289340, Note_off_c, 2, 70, 64
4, 289344, Note_on_c, 2, 67, 66
4, 289532, Note_off_c, 2, 77, 64
4, 289532, Note_off_c, 2, 67, 64
4, 289536, Note_on_c, 2, 71, 66
4, 289724, Note_off_c, 2, 71, 64
4, 289728, Note_on_c, 2, 72, 66
4, 289916, Note_off_c, 2, 72, 64
4, 289920, Note_on_c, 2, 81, 66
4, 290304, Note_on_c, 2, 74, 66
4, 290492, Note_off_c, 2, 81, 64
4, 290492, Note_off_c, 2, 74, 64
4, 290496, Note_on_c, 2, 79, 66
4, 290496, Note_on_c, 2, 70, 66
4, 290684, Note_off_c, 2, 79, 64
4, 290684, Note_off_c, 2, 70, 64
4, 290688, Note_on_c, 2, 86, 66
4, 291452, Note_off_c, 2, 86, 64
4, 291456, Note_on_c, 2, 70, 66
4, 291468, Note_on_c, 2, 84, 66
4, 291644, Note_off_c, 2, 70, 64
4, 291648, Note_on_c, 2, 76, 66
4, 291836, Note_off_c, 2, 76, 64
4, 291840, Note_on_c, 2, 82, 66
4, 291840, Note_on_c, 2, 79, 66
4, 291848, Note_off_c, 2, 84, 64
4, 292028, Note_off_c, 2, 79, 64
4, 292032, Note_on_c, 2, 76, 66
4, 292220, Note_off_c, 2, 82, 64
4, 292220, Note_off_c, 2, 76, 64
4, 292224, Note_on_c, 2, 81, 66
4, 292224, Note_on_c, 2, 79, 66
4, 292412, Note_off_c, 2, 79, 64
4, 292416, Note_on_c, 2, 77, 66
4, 292604, Note_off_c, 2, 81, 64
4, 292604, Note_off_c, 2, 77, 64
4, 292608, Note_on_c, 2, 71, 66
4, 292796, Note_off_c, 2, 71, 64
4, 292800, Note_on_c, 2, 72, 66
4, 292988, Note_off_c, 2, 72, 64
4, 292992, Note_on_c, 2, 77, 66
4, 292992, Note_on_c, 2, 74, 66
4, 293180, Note_off_c, 2, 74, 64
4, 293184, Note_on_c, 2, 72, 66
4, 293372, Note_off_c, 2, 77, 64
4, 293372, Note_off_c, 2, 72, 64
4, 293376, Note_on_c, 2, 73, 66
4, 293564, Note_off_c, 2, 73, 64
4, 293568, Note_on_c, 2, 74, 66
4, 293756, Note_off_c, 2, 74, 64
4, 293760, Note_on_c, 2, 70, 66
4, 293948, Note_off_c, 2, 70, 64
4, 293952, Note_on_c, 2, 67, 66
4, 294140, Note_off_c, 2, 67, 64
4, 294144, Note_on_c, 2, 65, 66
4, 294332, Note_off_c, 2, 65, 64
4, 294336, Note_on_c, 2, 64, 66
4, 294524, Note_off_c, 2, 64, 64
4, 294528, Note_on_c, 2, 67, 66
4, 294716, Note_off_c, 2, 67, 64
4, 294720, Note_on_c, 2, 64, 66
4, 294908, Note_off_c, 2, 64, 64
4, 294912, Note_on_c, 2, 65, 66
4, 294912, Note_on_c, 2, 57, 66
4, 295292, Note_off_c, 2, 65, 64
4, 295292, Note_off_c, 2, 57, 64
4, 305664, Note_on_c, 2, 77, 66
4, 305664, Note_on_c, 2, 69, 66
4, 305756, Note_off_c, 2, 77, 64
4, 305756, Note_off_c, 2, 69, 64
4, 305856, Note_on_c, 2, 76, 66
4, 305856, Note_on_c, 2, 67, 66
4, 305948, Note_off_c, 2, 76, 64
4, 305948, Note_off_c, 2, 67, 64
4, 306048, Note_on_c, 2, 74, 66
4, 306048, Note_on_c, 2, 65, 66
4, 306140, Note_off_c, 2, 74, 64
4, 306140, Note_off_c, 2, 65, 64
4, 306240, Note_on_c, 2, 72, 66
4, 306240, Note_on_c, 2, 64, 66
4, 306332, Note_off_c, 2, 72, 64
4, 306332, Note_off_c, 2, 64, 64
4, 306432, Note_on_c, 2, 70, 66
4, 306432, Note_on_c, 2, 62, 66
4, 306524, Note_off_c, 2, 70, 64
4, 306524, Note_off_c, 2, 62, 64
4, 306624, Note_on_c, 2, 69, 66
4, 306624, Note_on_c, 2, 60, 66
4, 306716, Note_off_c, 2, 69, 64
4, 306716, Note_off_c, 2, 60, 64
4, 306816, Note_on_c, 2, 67, 66
4, 306816, Note_on_c, 2, 58, 66
4, 306908, Note_off_c, 2, 67, 64
4, 306908, Note_off_c, 2, 58, 64
4, 307008, Note_on_c, 2, 65, 66
4, 307008, Note_on_c, 2, 57, 66
4, 307100, Note_off_c, 2, 65, 64
4, 307100, Note_off_c, 2, 57, 64
4, 310272, Note_on_c, 2, 65, 66
4, 310272, Note_on_c, 2, 60, 66
4, 310272, Note_on_c, 2, 57, 66
4, 310460, Note_off_c, 2, 65, 64
4, 310460, Note_off_c, 2, 60, 64
4, 310460, Note_off_c, 2, 57, 64
4, 310464, Note_on_c, 2, 65, 66
4, 310464, Note_on_c, 2, 60, 66
4, 310464, Note_on_c, 2, 57, 66
4, 310844, Note_off_c, 2, 65, 64
4, 310844, Note_off_c, 2, 60, 64
4, 310844, Note_off_c, 2, 57, 64
4, 310848, Note_on_c, 2, 65, 66
4, 310848, Note_on_c, 2, 60, 66
4, 310848, Note_on_c, 2, 57, 66
4, 311228, Note_off_c, 2, 65, 64
4, 311228, Note_off_c, 2, 60, 64
4, 311228, Note_off_c, 2, 57, 64
4, 311232, Note_on_c, 2, 65, 66
4, 311232, Note_on_c, 2, 60, 66
4, 311232, Note_on_c, 2, 57, 66
4, 311612, Note_off_c, 2, 65, 64
4, 311612, Note_off_c, 2, 60, 64
4, 311612, Note_off_c, 2, 57, 64
4, 311616, Note_on_c, 2, 60, 66
4, 311616, Note_on_c, 2, 57, 66
4, 311616, Note_on_c, 2, 65, 66
4, 311996, Note_off_c, 2, 57, 64
4, 311996, Note_off_c, 2, 60, 64
4, 311996, Note_off_c, 2, 65, 64
4, 312000, Note_on_c, 2, 60, 66
4, 312000, Note_on_c, 2, 57, 66
4, 312000, Note_on_c, 2, 65, 66
4, 312380, Note_off_c, 2, 60, 64
4, 312380, Note_off_c, 2, 57, 64
4, 312380, Note_off_c, 2, 65, 64
4, 312384, Note_on_c, 2, 65, 66
4, 312384, Note_on_c, 2, 60, 66
4, 312384, Note_on_c, 2, 57, 66
4, 312764, Note_off_c, 2, 65, 64
4, 312764, Note_off_c, 2, 60, 64
4, 312764, Note_off_c, 2, 57, 64
4, 312768, Note_on_c, 2, 57, 66
4, 312768, Note_on_c, 2, 60, 66
4, 312768, Note_on_c, 2, 65, 66
4, 313148, Note_off_c, 2, 57, 64
4, 313148, Note_off_c, 2, 60, 64
4, 313148, Note_off_c, 2, 65, 64
4, 313152, Note_on_c, 2, 60, 66
4, 313152, Note_on_c, 2, 57, 66
4, 313152, Note_on_c, 2, 65, 66
4, 313340, Note_off_c, 2, 65, 64
4, 313344, Note_on_c, 2, 66, 80
4, 313532, Note_off_c, 2, 57, 64
4, 313532, Note_off_c, 2, 60, 64
4, 313532, Note_off_c, 2, 66, 64
4, 313536, Note_on_c, 2, 60, 80
4, 313536, Note_on_c, 2, 57, 80
4, 313536, Note_on_c, 2, 66, 80
4, 313916, Note_off_c, 2, 60, 64
4, 313916, Note_off_c, 2, 57, 64
4, 313916, Note_off_c, 2, 66, 64
4, 313920, Note_on_c, 2, 60, 80
4, 313920, Note_on_c, 2, 57, 80
4, 313920, Note_on_c, 2, 66, 80
4, 314300, Note_off_c, 2, 60, 64
4, 314300, Note_off_c, 2, 57, 64
4, 314300, Note_off_c, 2, 66, 64
4, 314304, Note_on_c, 2, 66, 80
4, 314304, Note_on_c, 2, 60, 80
4, 314304, Note_on_c, 2, 57, 80
4, 314684, Note_off_c, 2, 66, 64
4, 314684, Note_off_c, 2, 60, 64
4, 314684, Note_off_c, 2, 57, 64
4, 314688, Note_on_c, 2, 60, 80
4, 314688, Note_on_c, 2, 66, 80
4, 314688, Note_on_c, 2, 57, 80
4, 315068, Note_off_c, 2, 57, 64
4, 315068, Note_off_c, 2, 60, 64
4, 315068, Note_off_c, 2, 66, 64
4, 315072, Note_on_c, 2, 72, 66
4, 315072, Note_on_c, 2, 75, 66
4, 315264, Note_on_c, 2, 62, 66
4, 315264, Note_on_c, 2, 66, 66
4, 315452, Note_off_c, 2, 72, 64
4, 315452, Note_off_c, 2, 75, 64
4, 315456, Note_on_c, 2, 74, 66
4, 315456, Note_on_c, 2, 70, 66
4, 315644, Note_off_c, 2, 62, 64
4, 315644, Note_off_c, 2, 66, 64
4, 315648, Note_on_c, 2, 67, 66
4, 315648, Note_on_c, 2, 64, 66
4, 315836, Note_off_c, 2, 74, 64
4, 315836, Note_off_c, 2, 70, 64
4, 315840, Note_on_c, 2, 72, 66
4, 315840, Note_on_c, 2, 69, 66
4, 316028, Note_off_c, 2, 67, 64
4, 316028, Note_off_c, 2, 64, 64
4, 316032, Note_on_c, 2, 69, 66
4, 316032, Note_on_c, 2, 66, 66
4, 316220, Note_off_c, 2, 72, 64
4, 316220, Note_off_c, 2, 69, 64
4, 316224, Note_on_c, 2, 67, 66
4, 316224, Note_on_c, 2, 70, 66
4, 316412, Note_off_c, 2, 69, 64
4, 316412, Note_off_c, 2, 66, 64
4, 316412, Note_off_c, 2, 67, 64
4, 316412, Note_off_c, 2, 70, 64
4, 316416, Note_on_c, 2, 70, 66
4, 316416, Note_on_c, 2, 67, 66
4, 316796, Note_off_c, 2, 70, 64
4, 316796, Note_off_c, 2, 67, 64
4, 331776, Note_on_c, 2, 67, 66
4, 331776, Note_on_c, 2, 62, 66
4, 331776, Note_on_c, 2, 58, 66
4, 331964, Note_off_c, 2, 67, 64
4, 331964, Note_off_c, 2, 62, 64
4, 331964, Note_off_c, 2, 58, 64
4, 331968, Note_on_c, 2, 62, 66
4, 331968, Note_on_c, 2, 58, 66
4, 331968, Note_on_c, 2, 67, 66
4, 332348, Note_off_c, 2, 62, 64
4, 332348, Note_off_c, 2, 58, 64
4, 332348, Note_off_c, 2, 67, 64
4, 332352, Note_on_c, 2, 67, 66
4, 332352, Note_on_c, 2, 62, 66
4, 332352, Note_on_c, 2, 58, 66
4, 332732, Note_off_c, 2, 67, 64
4, 332732, Note_off_c, 2, 62, 64
4, 332732, Note_off_c, 2, 58, 64
4, 332736, Note_on_c, 2, 62, 66
4, 332736, Note_on_c, 2, 58, 66
4, 332736, Note_on_c, 2, 67, 66
4, 333116, Note_off_c, 2, 62, 64
4, 333116, Note_off_c, 2, 58, 64
4, 333116, Note_off_c, 2, 67, 64
4, 333120, Note_on_c, 2, 62, 66
4, 333120, Note_on_c, 2, 58, 66
4, 333120, Note_on_c, 2, 67, 66
4, 333500, Note_off_c, 2, 58, 64
4, 333500, Note_off_c, 2, 62, 64
4, 333500, Note_off_c, 2, 67, 64
4, 333504, Note_on_c, 2, 58, 66
4, 333504, Note_on_c, 2, 67, 66
4, 333504, Note_on_c, 2, 62, 66
4, 333884, Note_off_c, 2, 58, 64
4, 333884, Note_off_c, 2, 67, 64
4, 333884, Note_off_c, 2, 62, 64
4, 333888, Note_on_c, 2, 67, 66
4, 333888, Note_on_c, 2, 62, 66
4, 333888, Note_on_c, 2, 58, 66
4, 334268, Note_off_c, 2, 67, 64
4, 334268, Note_off_c, 2, 62, 64
4, 334268, Note_off_c, 2, 58, 64
4, 334272, Note_on_c, 2, 62, 66
4, 334272, Note_on_c, 2, 58, 66
4, 334272, Note_on_c, 2, 67, 66
4, 334652, Note_off_c, 2, 62, 64
4, 334652, Note_off_c, 2, 58, 64
4, 334652, Note_off_c, 2, 67, 64
4, 334656, Note_on_c, 2, 67, 66
4, 334656, Note_on_c, 2, 62, 66
4, 334656, Note_on_c, 2, 58, 66
4, 334844, Note_off_c, 2, 67, 64
4, 334848, Note_on_c, 2, 65, 86
4, 334848, Note_on_c, 2, 68, 86
4, 335036, Note_off_c, 2, 58, 64
4, 335036, Note_off_c, 2, 62, 64
4, 335036, Note_off_c, 2, 65, 64
4, 335036, Note_off_c, 2, 68, 64
4, 335040, Note_on_c, 2, 68, 86
4, 335040, Note_on_c, 2, 65, 86
4, 335040, Note_on_c, 2, 62, 86
4, 335040, Note_on_c, 2, 58, 86
4, 335420, Note_off_c, 2, 68, 64
4, 335420, Note_off_c, 2, 65, 64
4, 335420, Note_off_c, 2, 62, 64
4, 335420, Note_off_c, 2, 58, 64
4, 335424, Note_on_c, 2, 68, 86
4, 335424, Note_on_c, 2, 65, 86
4, 335424, Note_on_c, 2, 62, 86
4, 335424, Note_on_c, 2, 58, 86
4, 335804, Note_off_c, 2, 68, 64
4, 335804, Note_off_c, 2, 65, 64
4, 335804, Note_off_c, 2, 62, 64
4, 335804, Note_off_c, 2, 58, 64
4, 335808, Note_on_c, 2, 68, 86
4, 335808, Note_on_c, 2, 65, 86
4, 335808, Note_on_c, 2, 62, 86
4, 335808, Note_on_c, 2, 58, 86
4, 336188, Note_off_c, 2, 68, 64
4, 336188, Note_off_c, 2, 65, 64
4, 336188, Note_off_c, 2, 62, 64
4, 336188, Note_off_c, 2, 58, 64
4, 336192, Note_on_c, 2, 65, 86
4, 336192, Note_on_c, 2, 62, 86
4, 336192, Note_on_c, 2, 58, 86
4, 336192, Note_on_c, 2, 68, 86
4, 336572, Note_off_c, 2, 58, 64
4, 336572, Note_off_c, 2, 62, 64
4, 336572, Note_off_c, 2, 65, 64
4, 336572, Note_off_c, 2, 68, 64
4, 336576, Note_on_c, 2, 72, 66
4, 336576, Note_on_c, 2, 68, 66
4, 336956, Note_off_c, 2, 72, 64
4, 336956, Note_off_c, 2, 68, 64
4, 336960, Note_on_c, 2, 70, 66
4, 336960, Note_on_c, 2, 67, 66
4, 337340, Note_off_c, 2, 70, 64
4, 337340, Note_off_c, 2, 67, 64
4, 337344, Note_on_c, 2, 68, 66
4, 337344, Note_on_c, 2, 65, 66
4, 337724, Note_off_c, 2, 68, 64
4, 337724, Note_off_c, 2, 65, 64
4, 337728, Note_on_c, 2, 63, 66
4, 337728, Note_on_c, 2, 67, 66
4, 338108, Note_off_c, 2, 63, 64
4, 338108, Note_off_c, 2, 67, 64
4, 362496, Note_on_c, 2, 62, 66
4, 362876, Note_off_c, 2, 62, 64
4, 363072, Note_on_c, 2, 57, 78
4, 363132, Note_off_c, 2, 57, 64
4, 363136, Note_on_c, 2, 59, 76
4, 363196, Note_off_c, 2, 59, 64
4, 363200, Note_on_c, 2, 61, 75
4, 363260, Note_off_c, 2, 61, 64
4, 363264, Note_on_c, 2, 62, 74
4, 363644, Note_off_c, 2, 62, 64
4, 363840, Note_on_c, 2, 57, 78
4, 363900, Note_off_c, 2, 57, 64
4, 363904, Note_on_c, 2, 59, 76
4, 363964, Note_off_c, 2, 59, 64
4, 363968, Note_on_c, 2, 61, 75
4, 364028, Note_off_c, 2, 61, 64
4, 364032, Note_on_c, 2, 62, 74
4, 364412, Note_off_c, 2, 62, 64
4, 364608, Note_on_c, 2, 57, 78
4, 364668, Note_off_c, 2, 57, 64
4, 364672, Note_on_c, 2, 59, 76
4, 364732, Note_off_c, 2, 59, 64
4, 364736, Note_on_c, 2, 61, 75
4, 364796, Note_off_c, 2, 61, 64
4, 364800, Note_on_c, 2, 62, 74
4, 365180, Note_off_c, 2, 62, 64
4, 365184, Note_on_c, 2, 62, 70
4, 365564, Note_off_c, 2, 62, 64
4, 368640, Note_on_c, 2, 64, 66
4, 369020, Note_off_c, 2, 64, 64
4, 369216, Note_on_c, 2, 59, 76
4, 369276, Note_off_c, 2, 59, 64
4, 369280, Note_on_c, 2, 61, 75
4, 369340, Note_off_c, 2, 61, 64
4, 369344, Note_on_c, 2, 63, 74
4, 369404, Note_off_c, 2, 63, 64
4, 369408, Note_on_c, 2, 64, 73
4, 369788, Note_off_c, 2, 64, 64
4, 369984, Note_on_c, 2, 59, 76
4, 370044, Note_off_c, 2, 59, 64
4, 370048, Note_on_c, 2, 61, 75
4, 370108, Note_off_c, 2, 61, 64
4, 370112, Note_on_c, 2, 63, 74
4, 370172, Note_off_c, 2, 63, 64
4, 370176, Note_on_c, 2, 64, 73
4, 370556, Note_off_c, 2, 64, 64
4, 370752, Note_on_c, 2, 59, 76
4, 370812, Note_off_c, 2, 59, 64
4, 370816, Note_on_c, 2, 61, 75
4, 370876, Note_off_c, 2, 61, 64
4, 370880, Note_on_c, 2, 63, 74
4, 370940, Note_off_c, 2, 63, 64
4, 370944, Note_on_c, 2, 64, 73
4, 371324, Note_off_c, 2, 64, 64
4, 371328, Note_on_c, 2, 64, 70
4, 371708, Note_off_c, 2, 64, 64
4, 371712, Note_on_c, 2, 57, 66
4, 372476, Note_off_c, 2, 57, 64
4, 373248, Note_on_c, 2, 76, 66
4, 373248, Note_on_c, 2, 73, 66
4, 373248, Note_on_c, 2, 67, 66
4, 374780, Note_off_c, 2, 76, 64
4, 374780, Note_off_c, 2, 73, 64
4, 374780, Note_off_c, 2, 67, 64
4, 374784, Note_on_c, 2, 77, 66
4, 374784, Note_on_c, 2, 74, 66
4, 375164, Note_off_c, 2, 77, 64
4, 375164, Note_off_c, 2, 74, 64
4, 376320, Note_on_c, 2, 81, 66
4, 376320, Note_on_c, 2, 77, 66
4, 377852, Note_off_c, 2, 81, 64
4, 377852, Note_off_c, 2, 77, 64
4, 377856, Note_on_c, 2, 80, 66
4, 377856, Note_on_c, 2, 77, 66
4, 378236, Note_off_c, 2, 80, 64
4, 378236, Note_off_c, 2, 77, 64
4, 379392, Note_on_c, 2, 80, 66
4, 379392, Note_on_c, 2, 74, 66
4, 380924, Note_off_c, 2, 80, 64
4, 380924, Note_off_c, 2, 74, 64
4, 380928, Note_on_c, 2, 81, 66
4, 380928, Note_on_c, 2, 73, 66
4, 381692, Note_off_c, 2, 81, 64
4, 381692, Note_off_c, 2, 73, 64
4, 381696, Note_on_c, 2, 77, 66
4, 381696, Note_on_c, 2, 74, 66
4, 382460, Note_off_c, 2, 77, 64
4, 382460, Note_off_c, 2, 74, 64
4, 382464, Note_on_c, 2, 76, 66
4, 382464, Note_on_c, 2, 73, 66
4, 383228, Note_off_c, 2, 76, 64
4, 383228, Note_off_c, 2, 73, 64
4, 383232, Note_on_c, 2, 77, 66
4, 383232, Note_on_c, 2, 74, 66
4, 383232, Note_on_c, 2, 65, 66
4, 383996, Note_off_c, 2, 77, 64
4, 383996, Note_off_c, 2, 74, 64
4, 383996, Note_off_c, 2, 65, 64
4, 384000, Note_on_c, 2, 76, 66
4, 384000, Note_on_c, 2, 73, 66
4, 384000, Note_on_c, 2, 64, 66
4, 384380, Note_off_c, 2, 76, 64
4, 384380, Note_off_c, 2, 73, 64
4, 384380, Note_off_c, 2, 64, 64
4, 402240, Note_on_c, 2, 62, 66
4, 402240, Note_on_c, 2, 57, 66
4, 402428, Note_off_c, 2, 62, 64
4, 402428, Note_off_c, 2, 57, 64
4, 402432, Note_on_c, 2, 63, 66
4, 402432, Note_on_c, 2, 62, 66
4, 402432, Note_on_c, 2, 58, 66
4, 402620, Note_off_c, 2, 63, 64
4, 402620, Note_off_c, 2, 62, 64
4, 402620, Note_off_c, 2, 58, 64
4, 402624, Note_on_c, 2, 62, 66
4, 402624, Note_on_c, 2, 58, 66
4, 402624, Note_on_c, 2, 63, 66
4, 402716, Note_off_c, 2, 63, 64
4, 403004, Note_off_c, 2, 62, 64
4, 403004, Note_off_c, 2, 58, 64
4, 403008, Note_on_c, 2, 64, 66
4, 403008, Note_on_c, 2, 62, 66
4, 403008, Note_on_c, 2, 58, 66
4, 403196, Note_off_c, 2, 64, 64
4, 403196, Note_off_c, 2, 62, 64
4, 403196, Note_off_c, 2, 58, 64
4, 403200, Note_on_c, 2, 65, 66
4, 403200, Note_on_c, 2, 62, 66
4, 403200, Note_on_c, 2, 60, 66
4, 403388, Note_off_c, 2, 65, 64
4, 403388, Note_off_c, 2, 62, 64
4, 403388, Note_off_c, 2, 60, 64
4, 403392, Note_on_c, 2, 65, 66
4, 403392, Note_on_c, 2, 62, 66
4, 403392, Note_on_c, 2, 60, 66
4, 403484, Note_off_c, 2, 65, 64
4, 403772, Note_off_c, 2, 62, 64
4, 403772, Note_off_c, 2, 60, 64
4, 403776, Note_on_c, 2, 66, 66
4, 403776, Note_on_c, 2, 62, 66
4, 403776, Note_on_c, 2, 60, 66
4, 403964, Note_off_c, 2, 66, 64
4, 403964, Note_off_c, 2, 62, 64
4, 403964, Note_off_c, 2, 60, 64
4, 403968, Note_on_c, 2, 67, 66
4, 403968, Note_on_c, 2, 62, 66
4, 404156, Note_off_c, 2, 67, 64
4, 404160, Note_on_c, 2, 67, 66
4, 404252, Note_off_c, 2, 67, 64
4, 404352, Note_on_c, 2, 70, 66
4, 404444, Note_off_c, 2, 70, 64
4, 404544, Note_on_c, 2, 70, 66
4, 404636, Note_off_c, 2, 70, 64
4, 404732, Note_off_c, 2, 62, 64
4, 404736, Note_on_c, 2, 74, 66
4, 404828, Note_off_c, 2, 74, 64
4, 404928, Note_on_c, 2, 74, 66
4, 405020, Note_off_c, 2, 74, 64
4, 405312, Note_on_c, 2, 64, 66
4, 405500, Note_off_c, 2, 64, 64
4, 405504, Note_on_c, 2, 65, 66
4, 405504, Note_on_c, 2, 64, 66
4, 405504, Note_on_c, 2, 60, 66
4, 405692, Note_off_c, 2, 65, 64
4, 405692, Note_off_c, 2, 64, 64
4, 405692, Note_off_c, 2, 60, 64
4, 405696, Note_on_c, 2, 65, 66
4, 405696, Note_on_c, 2, 64, 66
4, 405696, Note_on_c, 2, 60, 66
4, 405788, Note_off_c, 2, 65, 64
4, 406076, Note_off_c, 2, 64, 64
4, 406076, Note_off_c, 2, 60, 64
4, 406080, Note_on_c, 2, 66, 66
4, 406080, Note_on_c, 2, 64, 66
4, 406080, Note_on_c, 2, 60, 66
4, 406268, Note_off_c, 2, 66, 64
4, 406268, Note_off_c, 2, 64, 64
4, 406268, Note_off_c, 2, 60, 64
4, 406272, Note_on_c, 2, 67, 66
4, 406272, Note_on_c, 2, 64, 66
4, 406272, Note_on_c, 2, 62, 66
4, 406460, Note_off_c, 2, 67, 64
4, 406460, Note_off_c, 2, 64, 64
4, 406460, Note_off_c, 2, 62, 64
4, 406464, Note_on_c, 2, 67, 66
4, 406464, Note_on_c, 2, 62, 66
4, 406464, Note_on_c, 2, 64, 66
4, 406556, Note_off_c, 2, 67, 64
4, 406844, Note_off_c, 2, 62, 64
4, 406844, Note_off_c, 2, 64, 64
4, 406848, Note_on_c, 2, 68, 66
4, 406848, Note_on_c, 2, 64, 66
4, 406848, Note_on_c, 2, 62, 66
4, 407036, Note_off_c, 2, 68, 64
4, 407036, Note_off_c, 2, 64, 64
4, 407036, Note_off_c, 2, 62, 64
4, 407040, Note_on_c, 2, 64, 66
4, 407040, Note_on_c, 2, 69, 66
4, 407228, Note_off_c, 2, 69, 64
4, 407232, Note_on_c, 2, 69, 66
4, 407324, Note_off_c, 2, 69, 64
4, 407424, Note_on_c, 2, 72, 66
4, 407516, Note_off_c, 2, 72, 64
4, 407616, Note_on_c, 2, 72, 66
4, 407708, Note_off_c, 2, 72, 64
4, 407804, Note_off_c, 2, 64, 64
4, 407808, Note_on_c, 2, 76, 66
4, 407900, Note_off_c, 2, 76, 64
4, 408000, Note_on_c, 2, 76, 66
4, 408092, Note_off_c, 2, 76, 64
4, 408384, Note_on_c, 2, 69, 66
4, 408572, Note_off_c, 2, 69, 64
4, 408576, Note_on_c, 2, 70, 66
4, 408576, Note_on_c, 2, 69, 66
4, 408576, Note_on_c, 2, 65, 66
4, 408764, Note_off_c, 2, 70, 64
4, 408764, Note_off_c, 2, 69, 64
4, 408764, Note_off_c, 2, 65, 64
4, 408768, Note_on_c, 2, 70, 66
4, 408768, Note_on_c, 2, 69, 66
4, 408768, Note_on_c, 2, 65, 66
4, 408860, Note_off_c, 2, 70, 64
4, 409148, Note_off_c, 2, 69, 64
4, 409148, Note_off_c, 2, 65, 64
4, 409152, Note_on_c, 2, 71, 66
4, 409152, Note_on_c, 2, 69, 66
4, 409152, Note_on_c, 2, 65, 66
4, 409340, Note_off_c, 2, 71, 64
4, 409340, Note_off_c, 2, 69, 64
4, 409340, Note_off_c, 2, 65, 64
4, 409344, Note_on_c, 2, 72, 66
4, 409344, Note_on_c, 2, 69, 66
4, 409344, Note_on_c, 2, 67, 66
4, 409532, Note_off_c, 2, 72, 64
4, 409532, Note_off_c, 2, 69, 64
4, 409532, Note_off_c, 2, 67, 64
4, 409536, Note_on_c, 2, 72, 66
4, 409536, Note_on_c, 2, 69, 66
4, 409536, Note_on_c, 2, 67, 66
4, 409628, Note_off_c, 2, 72, 64
4, 409916, Note_off_c, 2, 69, 64
4, 409916, Note_off_c, 2, 67, 64
4, 409920, Note_on_c, 2, 73, 66
4, 409920, Note_on_c, 2, 69, 66
4, 409920, Note_on_c, 2, 67, 66
4, 410108, Note_off_c, 2, 73, 64
4, 410108, Note_off_c, 2, 69, 64
4, 410108, Note_off_c, 2, 67, 64
4, 410112, Note_on_c, 2, 74, 66
4, 410112, Note_on_c, 2, 69, 66
4, 410300, Note_off_c, 2, 74, 64
4, 410300, Note_off_c, 2, 69, 64
4, 410304, Note_on_c, 2, 74, 66
4, 410304, Note_on_c, 2, 69, 66
4, 410684, Note_off_c, 2, 74, 64
4, 410684, Note_off_c, 2, 69, 64
4, 410688, Note_on_c, 2, 69, 66
4, 410688, Note_on_c, 2, 74, 66
4, 410876, Note_off_c, 2, 69, 64
4, 410880, Note_on_c, 2, 70, 66
4, 411068, Note_off_c, 2, 74, 64
4, 411068, Note_off_c, 2, 70, 64
4, 411072, Note_on_c, 2, 72, 66
4, 411072, Note_on_c, 2, 69, 66
4, 411452, Note_off_c, 2, 72, 64
4, 411452, Note_off_c, 2, 69, 64
4, 411456, Note_on_c, 2, 70, 66
4, 411456, Note_on_c, 2, 67, 66
4, 411644, Note_off_c, 2, 70, 64
4, 411644, Note_off_c, 2, 67, 64
4, 411648, Note_on_c, 2, 69, 66
4, 411648, Note_on_c, 2, 65, 66
4, 411836, Note_off_c, 2, 69, 64
4, 411836, Note_off_c, 2, 65, 64
4, 411840, Note_on_c, 2, 69, 66
4, 411840, Note_on_c, 2, 65, 66
4, 411932, Note_off_c, 2, 69, 64
4, 411932, Note_off_c, 2, 65, 64
4, 412032, Note_on_c, 2, 67, 66
4, 412032, Note_on_c, 2, 64, 66
4, 412124, Note_off_c, 2, 67, 64
4, 412124, Note_off_c, 2, 64, 64
4, 412224, Note_on_c, 2, 67, 66
4, 412224, Note_on_c, 2, 64, 66
4, 412316, Note_off_c, 2, 67, 64
4, 412316, Note_off_c, 2, 64, 64
4, 412416, Note_on_c, 2, 65, 66
4, 412416, Note_on_c, 2, 62, 66
4, 412508, Note_off_c, 2, 65, 64
4, 412508, Note_off_c, 2, 62, 64
4, 412608, Note_on_c, 2, 65, 66
4, 412608, Note_on_c, 2, 62, 66
4, 412700, Note_off_c, 2, 65, 64
4, 412700, Note_off_c, 2, 62, 64
4, 412800, Note_on_c, 2, 64, 66
4, 412800, Note_on_c, 2, 61, 66
4, 412892, Note_off_c, 2, 64, 64
4, 412892, Note_off_c, 2, 61, 64
4, 412992, Note_on_c, 2, 64, 66
4, 412992, Note_on_c, 2, 61, 66
4, 413084, Note_off_c, 2, 64, 64
4, 413084, Note_off_c, 2, 61, 64
4, 413184, Note_on_c, 2, 62, 86
4, 413184, Note_on_c, 2, 53, 86
4, 413276, Note_off_c, 2, 53, 64
4, 413280, Note_on_c, 2, 57, 86
4, 413372, Note_off_c, 2, 57, 64
4, 413376, Note_on_c, 2, 53, 86
4, 413468, Note_off_c, 2, 53, 64
4, 413472, Note_on_c, 2, 57, 86
4, 413564, Note_off_c, 2, 62, 64
4, 413564, Note_off_c, 2, 57, 64
4, 413760, Note_on_c, 2, 57, 86
4, 413824, Note_off_c, 2, 57, 64
4, 413824, Note_on_c, 2, 59, 86
4, 413888, Note_off_c, 2, 59, 64
4, 413888, Note_on_c, 2, 61, 86
4, 413952, Note_off_c, 2, 61, 64
4, 413952, Note_on_c, 2, 62, 86
4, 414332, Note_off_c, 2, 62, 64
4, 415296, Note_on_c, 2, 69, 86
4, 415360, Note_off_c, 2, 69, 64
4, 415360, Note_on_c, 2, 71, 86
4, 415424, Note_off_c, 2, 71, 64
4, 415424, Note_on_c, 2, 73, 86
4, 415488, Note_off_c, 2, 73, 64
4, 415488, Note_on_c, 2, 74, 86
4, 415868, Note_off_c, 2, 74, 64
4, 416064, Note_on_c, 2, 81, 86
4, 416128, Note_off_c, 2, 81, 64
4, 416128, Note_on_c, 2, 83, 86
4, 416192, Note_off_c, 2, 83, 64
4, 416192, Note_on_c, 2, 85, 86
4, 416256, Note_off_c, 2, 85, 64
4, 416256, Note_on_c, 2, 86, 86
4, 416636, Note_off_c, 2, 86, 64
4, 416640, Note_on_c, 2, 81, 86
4, 416640, Note_on_c, 2, 69, 86
4, 416828, Note_off_c, 2, 81, 64
4, 416828, Note_off_c, 2, 69, 64
4, 417024, Note_on_c, 2, 77, 86
4, 417024, Note_on_c, 2, 65, 86
4, 417212, Note_off_c, 2, 77, 64
4, 417212, Note_off_c, 2, 65, 64
4, 417408, Note_on_c, 2, 74, 86
4, 417408, Note_on_c, 2, 62, 86
4, 417596, Note_off_c, 2, 74, 64
4, 417596, Note_off_c, 2, 62, 64
4, 417792, Note_on_c, 2, 61, 86
4, 417792, Note_on_c, 2, 55, 86
4, 417884, Note_off_c, 2, 55, 64
4, 417888, Note_on_c, 2, 58, 86
4, 417980, Note_off_c, 2, 58, 64
4, 417984, Note_on_c, 2, 55, 86
4, 418076, Note_off_c, 2, 55, 64
4, 418080, Note_on_c, 2, 58, 86
4, 418172, Note_off_c, 2, 58, 64
4, 418176, Note_on_c, 2, 55, 86
4, 418268, Note_off_c, 2, 55, 64
4, 418272, Note_on_c, 2, 58, 86
4, 418364, Note_off_c, 2, 58, 64
4, 418368, Note_on_c, 2, 55, 86
4, 418460, Note_off_c, 2, 55, 64
4, 418464, Note_on_c, 2, 58, 86
4, 418556, Note_off_c, 2, 61, 64
4, 418556, Note_off_c, 2, 58, 64
4, 418560, Note_on_c, 2, 55, 86
4, 418652, Note_off_c, 2, 55, 64
4, 418656, Note_on_c, 2, 58, 86
4, 418748, Note_off_c, 2, 58, 64
4, 418752, Note_on_c, 2, 55, 86
4, 418844, Note_off_c, 2, 55, 64
4, 418848, Note_on_c, 2, 58, 86
4, 418940, Note_off_c, 2, 58, 64
4, 419136, Note_on_c, 2, 76, 86
4, 419176, Note_off_c, 2, 76, 64
4, 419184, Note_on_c, 2, 77, 86
4, 419224, Note_off_c, 2, 77, 64
4, 419232, Note_on_c, 2, 79, 87
4, 419272, Note_off_c, 2, 79, 64
4, 419280, Note_on_c, 2, 81, 87
4, 419320, Note_off_c, 2, 81, 64
4, 419328, Note_on_c, 2, 82, 88
4, 419708, Note_off_c, 2, 82, 64
4, 419712, Note_on_c, 2, 77, 86
4, 419712, Note_on_c, 2, 65, 88
4, 419900, Note_off_c, 2, 77, 64
4, 419900, Note_off_c, 2, 65, 64
4, 420096, Note_on_c, 2, 74, 86
4, 420096, Note_on_c, 2, 62, 90
4, 420284, Note_off_c, 2, 74, 64
4, 420284, Note_off_c, 2, 62, 64
4, 420480, Note_on_c, 2, 70, 86
4, 420480, Note_on_c, 2, 58, 91
4, 420668, Note_off_c, 2, 70, 64
4, 420668, Note_off_c, 2, 58, 64
4, 420864, Note_on_c, 2, 69, 86
4, 420864, Note_on_c, 2, 57, 93
4, 421436, Note_off_c, 2, 69, 64
4, 421436, Note_off_c, 2, 57, 64
4, 421440, Note_on_c, 2, 70, 86
4, 421440, Note_on_c, 2, 58, 92
4, 421628, Note_off_c, 2, 70, 64
4, 421628, Note_off_c, 2, 58, 64
4, 421632, Note_on_c, 2, 69, 86
4, 421632, Note_on_c, 2, 57, 93
4, 421820, Note_off_c, 2, 69, 64
4, 421820, Note_off_c, 2, 57, 64
4, 421824, Note_on_c, 2, 68, 86
4, 421824, Note_on_c, 2, 56, 94
4, 422012, Note_off_c, 2, 68, 64
4, 422012, Note_off_c, 2, 56, 64
4, 422016, Note_on_c, 2, 69, 86
4, 422016, Note_on_c, 2, 57, 93
4, 422204, Note_off_c, 2, 69, 64
4, 422204, Note_off_c, 2, 57, 64
4, 422208, Note_on_c, 2, 68, 86
4, 422208, Note_on_c, 2, 56, 93
4, 422396, Note_off_c, 2, 68, 64
4, 422396, Note_off_c, 2, 56, 64
4, 422400, Note_on_c, 2, 69, 86
4, 422400, Note_on_c, 2, 57, 93
4, 422972, Note_off_c, 2, 69, 64
4, 422972, Note_off_c, 2, 57, 64
4, 422976, Note_on_c, 2, 70, 86
4, 422976, Note_on_c, 2, 58, 92
4, 423164, Note_off_c, 2, 70, 64
4, 423164, Note_off_c, 2, 58, 64
4, 423168, Note_on_c, 2, 69, 86
4, 423168, Note_on_c, 2, 57, 93
4, 423356, Note_off_c, 2, 69, 64
4, 423356, Note_off_c, 2, 57, 64
4, 423360, Note_on_c, 2, 68, 86
4, 423360, Note_on_c, 2, 56, 94
4, 423548, Note_off_c, 2, 68, 64
4, 423548, Note_off_c, 2, 56, 64
4, 423552, Note_on_c, 2, 69, 86
4, 423552, Note_on_c, 2, 57, 93
4, 423740, Note_off_c, 2, 69, 64
4, 423740, Note_off_c, 2, 57, 64
4, 423744, Note_on_c, 2, 68, 86
4, 423744, Note_on_c, 2, 56, 93
4, 423932, Note_off_c, 2, 68, 64
4, 423932, Note_off_c, 2, 56, 64
4, 423936, Note_on_c, 2, 69, 86
4, 423936, Note_on_c, 2, 57, 93
4, 424124, Note_off_c, 2, 69, 64
4, 424124, Note_off_c, 2, 57, 64
4, 424128, Note_on_c, 2, 64, 66
4, 424128, Note_on_c, 2, 61, 66
4, 424508, Note_off_c, 2, 64, 64
4, 424508, Note_off_c, 2, 61, 64
4, 424512, Note_on_c, 2, 62, 66
4, 424512, Note_on_c, 2, 59, 66
4, 424700, Note_off_c, 2, 62, 64
4, 424700, Note_off_c, 2, 59, 64
4, 424704, Note_on_c, 2, 61, 66
4, 424704, Note_on_c, 2, 57, 66
4, 424892, Note_off_c, 2, 61, 64
4, 424892, Note_off_c, 2, 57, 64
4, 424896, Note_on_c, 2, 67, 66
4, 424896, Note_on_c, 2, 64, 66
4, 425276, Note_off_c, 2, 67, 64
4, 425276, Note_off_c, 2, 64, 64
4, 425280, Note_on_c, 2, 65, 66
4, 425280, Note_on_c, 2, 62, 66
4, 425468, Note_off_c, 2, 65, 64
4, 425468, Note_off_c, 2, 62, 64
4, 425472, Note_on_c, 2, 64, 66
4, 425472, Note_on_c, 2, 61, 66
4, 425660, Note_off_c, 2, 64, 64
4, 425660, Note_off_c, 2, 61, 64
4, 425664, Note_on_c, 2, 76, 66
4, 425664, Note_on_c, 2, 73, 66
4, 425664, Note_on_c, 2, 70, 66
4, 425664, Note_on_c, 2, 67, 66
4, 426044, Note_off_c, 2, 76, 64
4, 426044, Note_off_c, 2, 73, 64
4, 426044, Note_off_c, 2, 70, 64
4, 426044, Note_off_c, 2, 67, 64
4, 426048, Note_on_c, 2, 77, 66
4, 426048, Note_on_c, 2, 74, 66
4, 426048, Note_on_c, 2, 69, 66
4, 426048, Note_on_c, 2, 65, 66
4, 426236, Note_off_c, 2, 77, 64
4, 426236, Note_off_c, 2, 74, 64
4, 426236, Note_off_c, 2, 69, 64
4, 426236, Note_off_c, 2, 65, 64
4, 426240, Note_on_c, 2, 79, 66
4, 426240, Note_on_c, 2, 76, 66
4, 426240, Note_on_c, 2, 67, 66
4, 426240, Note_on_c, 2, 64, 66
4, 426428, Note_off_c, 2, 79, 64
4, 426428, Note_off_c, 2, 76, 64
4, 426428, Note_off_c, 2, 67, 64
4, 426428, Note_off_c, 2, 64, 64
4, 426432, Note_on_c, 2, 79, 66
4, 426432, Note_on_c, 2, 76, 66
4, 426432, Note_on_c, 2, 67, 66
4, 426432, Note_on_c, 2, 64, 66
4, 426812, Note_off_c, 2, 79, 64
4, 426812, Note_off_c, 2, 76, 64
4, 426812, Note_off_c, 2, 67, 64
4, 426812, Note_off_c, 2, 64, 64
4, 426816, Note_on_c, 2, 77, 66
4, 426816, Note_on_c, 2, 65, 66
4, 426816, Note_on_c, 2, 81, 66
4, 426816, Note_on_c, 2, 62, 66
4, 427004, Note_off_c, 2, 77, 64
4, 427004, Note_off_c, 2, 65, 64
4, 427004, Note_off_c, 2, 81, 64
4, 427004, Note_off_c, 2, 62, 64
4, 427008, Note_on_c, 2, 79, 66
4, 427008, Note_on_c, 2, 82, 66
4, 427388, Note_off_c, 2, 79, 64
4, 427388, Note_off_c, 2, 82, 64
4, 427392, Note_on_c, 2, 79, 66
4, 427392, Note_on_c, 2, 76, 66
4, 427580, Note_off_c, 2, 79, 64
4, 427580, Note_off_c, 2, 76, 64
4, 427776, Note_on_c, 2, 82, 66
4, 427776, Note_on_c, 2, 79, 66
4, 428156, Note_off_c, 2, 82, 64
4, 428156, Note_off_c, 2, 79, 64
4, 428160, Note_on_c, 2, 79, 66
4, 428160, Note_on_c, 2, 76, 66
4, 428348, Note_off_c, 2, 79, 64
4, 428348, Note_off_c, 2, 76, 64
4, 428544, Note_on_c, 2, 81, 66
4, 428544, Note_on_c, 2, 77, 66
4, 428924, Note_off_c, 2, 81, 64
4, 428924, Note_off_c, 2, 77, 64
4, 428928, Note_on_c, 2, 77, 66
4, 428928, Note_on_c, 2, 74, 66
4, 429116, Note_off_c, 2, 77, 64
4, 429116, Note_off_c, 2, 74, 64
4, 429312, Note_on_c, 2, 81, 66
4, 429312, Note_on_c, 2, 77, 66
4, 429692, Note_off_c, 2, 81, 64
4, 429692, Note_off_c, 2, 77, 64
4, 429696, Note_on_c, 2, 77, 66
4, 429696, Note_on_c, 2, 74, 66
4, 429884, Note_off_c, 2, 77, 64
4, 429884, Note_off_c, 2, 74, 64
4, 430080, Note_on_c, 2, 79, 66
4, 430080, Note_on_c, 2, 76, 66
4, 430268, Note_off_c, 2, 79, 64
4, 430268, Note_off_c, 2, 76, 64
4, 430464, Note_on_c, 2, 79, 66
4, 430464, Note_on_c, 2, 76, 66
4, 430652, Note_off_c, 2, 79, 64
4, 430652, Note_off_c, 2, 76, 64
4, 430848, Note_on_c, 2, 77, 66
4, 430848, Note_on_c, 2, 74, 66
4, 431036, Note_off_c, 2, 77, 64
4, 431036, Note_off_c, 2, 74, 64
4, 431232, Note_on_c, 2, 77, 66
4, 431232, Note_on_c, 2, 74, 66
4, 431420, Note_off_c, 2, 77, 64
4, 431420, Note_off_c, 2, 74, 64
4, 431616, Note_on_c, 2, 76, 66
4, 431616, Note_on_c, 2, 73, 66
4, 431996, Note_off_c, 2, 76, 64
4, 431996, Note_off_c, 2, 73, 64
4, 434688, Note_on_c, 2, 85, 66
4, 434688, Note_on_c, 2, 81, 66
4, 434688, Note_on_c, 2, 76, 66
4, 435068, Note_off_c, 2, 85, 64
4, 435068, Note_off_c, 2, 81, 64
4, 435068, Note_off_c, 2, 76, 64
4, 435072, Note_on_c, 2, 85, 66
4, 435072, Note_on_c, 2, 81, 66
4, 435072, Note_on_c, 2, 76, 66
4, 435356, Note_off_c, 2, 85, 64
4, 435356, Note_off_c, 2, 81, 64
4, 435356, Note_off_c, 2, 76, 64
4, 435360, Note_on_c, 2, 85, 78
4, 435360, Note_on_c, 2, 81, 78
4, 435360, Note_on_c, 2, 76, 78
4, 435452, Note_off_c, 2, 85, 64
4, 435452, Note_off_c, 2, 81, 64
4, 435452, Note_off_c, 2, 76, 64
4, 435456, Note_on_c, 2, 85, 66
4, 435456, Note_on_c, 2, 81, 66
4, 435456, Note_on_c, 2, 76, 66
4, 435836, Note_off_c, 2, 85, 64
4, 435836, Note_off_c, 2, 81, 64
4, 435836, Note_off_c, 2, 76, 64
4, 435840, Note_on_c, 2, 85, 66
4, 435840, Note_on_c, 2, 81, 66
4, 435840, Note_on_c, 2, 76, 66
4, 436220, Note_off_c, 2, 85, 64
4, 436220, Note_off_c, 2, 81, 64
4, 436220, Note_off_c, 2, 76, 64
4, 436224, Note_on_c, 2, 86, 66
4, 436224, Note_on_c, 2, 81, 66
4, 436224, Note_on_c, 2, 77, 66
4, 436604, Note_off_c, 2, 86, 64
4, 436604, Note_off_c, 2, 81, 64
4, 436604, Note_off_c, 2, 77, 64
4, 436608, Note_on_c, 2, 86, 66
4, 436608, Note_on_c, 2, 81, 66
4, 436608, Note_on_c, 2, 77, 66
4, 436892, Note_off_c, 2, 86, 64
4, 436892, Note_off_c, 2, 81, 64
4, 436892, Note_off_c, 2, 77, 64
4, 436896, Note_on_c, 2, 86, 78
4, 436896, Note_on_c, 2, 81, 78
4, 436896, Note_on_c, 2, 77, 78
4, 436988, Note_off_c, 2, 86, 64
4, 436988, Note_off_c, 2, 81, 64
4, 436988, Note_off_c, 2, 77, 64
4, 436992, Note_on_c, 2, 86, 66
4, 436992, Note_on_c, 2, 81, 66
4, 436992, Note_on_c, 2, 77, 66
4, 437372, Note_off_c, 2, 86, 64
4, 437372, Note_off_c, 2, 81, 64
4, 437372, Note_off_c, 2, 77, 64
4, 437376, Note_on_c, 2, 86, 66
4, 437376, Note_on_c, 2, 81, 66
4, 437376, Note_on_c, 2, 77, 66
4, 437756, Note_off_c, 2, 86, 64
4, 437756, Note_off_c, 2, 81, 64
4, 437756, Note_off_c, 2, 77, 64
4, 437760, Note_on_c, 2, 85, 86
4, 437760, Note_on_c, 2, 81, 86
4, 437760, Note_on_c, 2, 76, 86
4, 438140, Note_off_c, 2, 85, 64
4, 438140, Note_off_c, 2, 81, 64
4, 438140, Note_off_c, 2, 76, 64
4, 438336, Note_on_c, 2, 85, 86
4, 438336, Note_on_c, 2, 81, 86
4, 438336, Note_on_c, 2, 76, 86
4, 438524, Note_off_c, 2, 85, 64
4, 438524, Note_off_c, 2, 81, 64
4, 438524, Note_off_c, 2, 76, 64
4, 438528, Note_on_c, 2, 86, 86
4, 438528, Note_on_c, 2, 81, 86
4, 438528, Note_on_c, 2, 77, 86
4, 438908, Note_off_c, 2, 86, 64
4, 438908, Note_off_c, 2, 81, 64
4, 438908, Note_off_c, 2, 77, 64
4, 439104, Note_on_c, 2, 86, 86
4, 439104, Note_on_c, 2, 81, 86
4, 439104, Note_on_c, 2, 77, 86
4, 439292, Note_off_c, 2, 86, 64
4, 439292, Note_off_c, 2, 81, 64
4, 439292, Note_off_c, 2, 77, 64
4, 439296, Note_on_c, 2, 85, 86
4, 439296, Note_on_c, 2, 81, 86
4, 439296, Note_on_c, 2, 76, 86
4, 439676, Note_off_c, 2, 85, 64
4, 439676, Note_off_c, 2, 81, 64
4, 439676, Note_off_c, 2, 76, 64
4, 439872, Note_on_c, 2, 85, 86
4, 439872, Note_on_c, 2, 81, 86
4, 439872, Note_on_c, 2, 76, 86
4, 440060, Note_off_c, 2, 85, 64
4, 440060, Note_off_c, 2, 81, 64
4, 440060, Note_off_c, 2, 76, 64
4, 440064, Note_on_c, 2, 86, 86
4, 440064, Note_on_c, 2, 81, 86
4, 440064, Note_on_c, 2, 77, 86
4, 440444, Note_off_c, 2, 86, 64
4, 440444, Note_off_c, 2, 81, 64
4, 440444, Note_off_c, 2, 77, 64
4, 440640, Note_on_c, 2, 81, 86
4, 440640, Note_on_c, 2, 77, 86
4, 440640, Note_on_c, 2, 86, 86
4, 440828, Note_off_c, 2, 81, 64
4, 440828, Note_off_c, 2, 77, 64
4, 440828, Note_off_c, 2, 86, 64
4, 440832, Note_on_c, 2, 85, 86
4, 440832, Note_on_c, 2, 81, 86
4, 440832, Note_on_c, 2, 76, 86
4, 441212, Note_off_c, 2, 85, 64
4, 441212, Note_off_c, 2, 81, 64
4, 441212, Note_off_c, 2, 76, 64
4, 442368, Note_on_c, 2, 77, 66
4, 442368, Note_on_c, 2, 65, 66
4, 443132, Note_off_c, 2, 77, 64
4, 443132, Note_off_c, 2, 65, 64
4, 443136, Note_on_c, 2, 76, 66
4, 443136, Note_on_c, 2, 64, 66
4, 443900, Note_off_c, 2, 76, 64
4, 443900, Note_off_c, 2, 64, 64
4, 443904, Note_on_c, 2, 77, 66
4, 443904, Note_on_c, 2, 65, 66
4, 444284, Note_off_c, 2, 77, 64
4, 444284, Note_off_c, 2, 65, 64
4, 444288, Note_on_c, 2, 69, 66
4, 444288, Note_on_c, 2, 65, 66
4, 444668, Note_off_c, 2, 69, 64
4, 444668, Note_off_c, 2, 65, 64
4, 444672, Note_on_c, 2, 70, 66
4, 444672, Note_on_c, 2, 67, 66
4, 445052, Note_off_c, 2, 70, 64
4, 445052, Note_off_c, 2, 67, 64
4, 445056, Note_on_c, 2, 72, 66
4, 445056, Note_on_c, 2, 69, 66
4, 445436, Note_off_c, 2, 72, 64
4, 445436, Note_off_c, 2, 69, 64
4, 445440, Note_on_c, 2, 79, 66
4, 445440, Note_on_c, 2, 67, 66
4, 446204, Note_off_c, 2, 79, 64
4, 446204, Note_off_c, 2, 67, 64
4, 446208, Note_on_c, 2, 78, 66
4, 446208, Note_on_c, 2, 66, 66
4, 446972, Note_off_c, 2, 78, 64
4, 446972, Note_off_c, 2, 66, 64
4, 446976, Note_on_c, 2, 79, 66
4, 446976, Note_on_c, 2, 67, 66
4, 447356, Note_off_c, 2, 79, 64
4, 447356, Note_off_c, 2, 67, 64
4, 447360, Note_on_c, 2, 67, 66
4, 447360, Note_on_c, 2, 70, 66
4, 447740, Note_off_c, 2, 67, 64
4, 447740, Note_off_c, 2, 70, 64
4, 447744, Note_on_c, 2, 72, 66
4, 447744, Note_on_c, 2, 69, 66
4, 448124, Note_off_c, 2, 72, 64
4, 448124, Note_off_c, 2, 69, 64
4, 448128, Note_on_c, 2, 74, 66
4, 448128, Note_on_c, 2, 70, 66
4, 448508, Note_off_c, 2, 74, 64
4, 448508, Note_off_c, 2, 70, 64
4, 448512, Note_on_c, 2, 81, 66
4, 448512, Note_on_c, 2, 69, 66
4, 449276, Note_off_c, 2, 81, 64
4, 449276, Note_off_c, 2, 69, 64
4, 449280, Note_on_c, 2, 80, 66
4, 449280, Note_on_c, 2, 68, 66
4, 450044, Note_off_c, 2, 80, 64
4, 450044, Note_off_c, 2, 68, 64
4, 450048, Note_on_c, 2, 81, 66
4, 450048, Note_on_c, 2, 69, 66
4, 450428, Note_off_c, 2, 81, 64
4, 450428, Note_off_c, 2, 69, 64
4, 450432, Note_on_c, 2, 72, 66
4, 450432, Note_on_c, 2, 69, 66
4, 450812, Note_off_c, 2, 72, 64
4, 450812, Note_off_c, 2, 69, 64
4, 450816, Note_on_c, 2, 74, 66
4, 450816, Note_on_c, 2, 71, 66
4, 451196, Note_off_c, 2, 74, 64
4, 451196, Note_off_c, 2, 71, 64
4, 451200, Note_on_c, 2, 76, 66
4, 451200, Note_on_c, 2, 72, 66
4, 451580, Note_off_c, 2, 76, 64
4, 451580, Note_off_c, 2, 72, 64
4, 451584, Note_on_c, 2, 77, 66
4, 451772, Note_off_c, 2, 77, 64
4, 451776, Note_on_c, 2, 70, 66
4, 451964, Note_off_c, 2, 70, 64
4, 451968, Note_on_c, 2, 82, 66
4, 452156, Note_off_c, 2, 82, 64
4, 452160, Note_on_c, 2, 81, 66
4, 452348, Note_off_c, 2, 81, 64
4, 452352, Note_on_c, 2, 79, 66
4, 452540, Note_off_c, 2, 79, 64
4, 452544, Note_on_c, 2, 67, 66
4, 452732, Note_off_c, 2, 67, 64
4, 452736, Note_on_c, 2, 72, 66
4, 452924, Note_off_c, 2, 72, 64
4, 452928, Note_on_c, 2, 70, 66
4, 453116, Note_off_c, 2, 70, 64
4, 453120, Note_on_c, 2, 69, 66
4, 453308, Note_off_c, 2, 69, 64
4, 453312, Note_on_c, 2, 72, 66
4, 453500, Note_off_c, 2, 72, 64
4, 453504, Note_on_c, 2, 81, 66
4, 453692, Note_off_c, 2, 81, 64
4, 453696, Note_on_c, 2, 79, 66
4, 453884, Note_off_c, 2, 79, 64
4, 453888, Note_on_c, 2, 77, 66
4, 454076, Note_off_c, 2, 77, 64
4, 454080, Note_on_c, 2, 65, 66
4, 454268, Note_off_c, 2, 65, 64
4, 454272, Note_on_c, 2, 70, 66
4, 454460, Note_off_c, 2, 70, 64
4, 454464, Note_on_c, 2, 69, 66
4, 454652, Note_off_c, 2, 69, 64
4, 454656, Note_on_c, 2, 67, 66
4, 454656, Note_on_c, 2, 62, 66
4, 454844, Note_off_c, 2, 67, 64
4, 454844, Note_off_c, 2, 62, 64
4, 454848, Note_on_c, 2, 74, 66
4, 455036, Note_off_c, 2, 74, 64
4, 455040, Note_on_c, 2, 79, 66
4, 455228, Note_off_c, 2, 79, 64
4, 455232, Note_on_c, 2, 77, 66
4, 455420, Note_off_c, 2, 77, 64
4, 455424, Note_on_c, 2, 76, 66
4, 455612, Note_off_c, 2, 76, 64
4, 455616, Note_on_c, 2, 64, 66
4, 455804, Note_off_c, 2, 64, 64
4, 455808, Note_on_c, 2, 69, 66
4, 455996, Note_off_c, 2, 69, 64
4, 456000, Note_on_c, 2, 67, 66
4, 456188, Note_off_c, 2, 67, 64
4, 456192, Note_on_c, 2, 65, 66
4, 456380, Note_off_c, 2, 65, 64
4, 456384, Note_on_c, 2, 69, 66
4, 456572, Note_off_c, 2, 69, 64
4, 456576, Note_on_c, 2, 77, 66
4, 456764, Note_off_c, 2, 77, 64
4, 456768, Note_on_c, 2, 76, 66
4, 456956, Note_off_c, 2, 76, 64
4, 456960, Note_on_c, 2, 74, 66
4, 457148, Note_off_c, 2, 74, 64
4, 457152, Note_on_c, 2, 62, 66
4, 457340, Note_off_c, 2, 62, 64
4, 457344, Note_on_c, 2, 67, 66
4, 457532, Note_off_c, 2, 67, 64
4, 457536, Note_on_c, 2, 65, 66
4, 457724, Note_off_c, 2, 65, 64
4, 457728, Note_on_c, 2, 64, 66
4, 457916, Note_off_c, 2, 64, 64
4, 457920, Note_on_c, 2, 70, 66
4, 458108, Note_off_c, 2, 70, 64
4, 458112, Note_on_c, 2, 82, 66
4, 458300, Note_off_c, 2, 82, 64
4, 458304, Note_on_c, 2, 79, 66
4, 458492, Note_off_c, 2, 79, 64
4, 458496, Note_on_c, 2, 76, 66
4, 458876, Note_off_c, 2, 76, 64
4, 458880, Note_on_c, 2, 64, 66
4, 458880, Note_on_c, 2, 64, 66
4, 459068, Note_off_c, 2, 64, 64
4, 459072, Note_on_c, 2, 71, 66
4, 459260, Note_off_c, 2, 71, 64
4, 459264, Note_on_c, 2, 73, 66
4, 460028, Note_off_c, 2, 64, 64
4, 460028, Note_off_c, 2, 73, 64
4, 460032, Note_on_c, 2, 74, 66
4, 460032, Note_on_c, 2, 65, 66
4, 460796, Note_off_c, 2, 74, 64
4, 460796, Note_off_c, 2, 65, 64
4, 460800, Note_on_c, 2, 76, 66
4, 460800, Note_on_c, 2, 73, 66
4, 460800, Note_on_c, 2, 69, 66
4, 461564, Note_off_c, 2, 76, 64
4, 461564, Note_off_c, 2, 73, 64
4, 461568, Note_on_c, 2, 77, 66
4, 461568, Note_on_c, 2, 74, 66
4, 462332, Note_off_c, 2, 69, 64
4, 462332, Note_off_c, 2, 77, 64
4, 462332, Note_off_c, 2, 74, 64
4, 462336, Note_on_c, 2, 85, 63
4, 462336, Note_on_c, 2, 81, 63
4, 462336, Note_on_c, 2, 76, 63
4, 462716, Note_off_c, 2, 85, 64
4, 462716, Note_off_c, 2, 81, 64
4, 462716, Note_off_c, 2, 76, 64
4, 463104, Note_on_c, 2, 86, 63
4, 463104, Note_on_c, 2, 81, 63
4, 463104, Note_on_c, 2, 77, 63
4, 463484, Note_off_c, 2, 86, 64
4, 463484, Note_off_c, 2, 81, 64
4, 463484, Note_off_c, 2, 77, 64
4, 463872, Note_on_c, 2, 57, 66
4, 464252, Note_off_c, 2, 57, 64
4, 467712, Note_on_c, 2, 77, 66
4, 467712, Note_on_c, 2, 81, 78
4, 467804, Note_off_c, 2, 81, 64
4, 467808, Note_on_c, 2, 74, 66
4, 468092, Note_off_c, 2, 77, 64
4, 468092, Note_off_c, 2, 74, 64
4, 468096, Note_on_c, 2, 74, 66
4, 468096, Note_on_c, 2, 77, 78
4, 468188, Note_off_c, 2, 77, 64
4, 468192, Note_on_c, 2, 69, 66
4, 468476, Note_off_c, 2, 74, 64
4, 468476, Note_off_c, 2, 69, 64
4, 468480, Note_on_c, 2, 69, 66
4, 468480, Note_on_c, 2, 74, 78
4, 468572, Note_off_c, 2, 74, 64
4, 468576, Note_on_c, 2, 65, 66
4, 468860, Note_off_c, 2, 69, 64
4, 468860, Note_off_c, 2, 65, 64
4, 468864, Note_on_c, 2, 65, 66
4, 468864, Note_on_c, 2, 69, 78
4, 468956, Note_off_c, 2, 69, 64
4, 468960, Note_on_c, 2, 62, 66
4, 469244, Note_off_c, 2, 65, 64
4, 469244, Note_off_c, 2, 62, 64
4, 469248, Note_on_c, 2, 67, 66
4, 469248, Note_on_c, 2, 64, 66
4, 469248, Note_on_c, 2, 57, 66
4, 469436, Note_off_c, 2, 67, 64
4, 469436, Note_off_c, 2, 64, 64
4, 469436, Note_off_c, 2, 57, 64
4, 469632, Note_on_c, 2, 65, 66
4, 469632, Note_on_c, 2, 62, 66
4, 469632, Note_on_c, 2, 57, 66
4, 469820, Note_off_c, 2, 65, 64
4, 469820, Note_off_c, 2, 62, 64
4, 469820, Note_off_c, 2, 57, 64
4, 470016, Note_on_c, 2, 64, 66
4, 470016, Note_on_c, 2, 61, 66
4, 470016, Note_on_c, 2, 57, 66
4, 470396, Note_off_c, 2, 64, 64
4, 470396, Note_off_c, 2, 61, 64
4, 470396, Note_off_c, 2, 57, 64
4, 473856, Note_on_c, 2, 80, 66
4, 473856, Note_on_c, 2, 86, 78
4, 473948, Note_off_c, 2, 86, 64
4, 473952, Note_on_c, 2, 77, 66
4, 474236, Note_off_c, 2, 80, 64
4, 474236, Note_off_c, 2, 77, 64
4, 474240, Note_on_c, 2, 77, 66
4, 474240, Note_on_c, 2, 80, 78
4, 474332, Note_off_c, 2, 80, 64
4, 474336, Note_on_c, 2, 74, 66
4, 474620, Note_off_c, 2, 77, 64
4, 474620, Note_off_c, 2, 74, 64
4, 474624, Note_on_c, 2, 77, 78
4, 474624, Note_on_c, 2, 74, 66
4, 474716, Note_off_c, 2, 77, 64
4, 474720, Note_on_c, 2, 68, 66
4, 475004, Note_off_c, 2, 74, 64
4, 475004, Note_off_c, 2, 68, 64
4, 475008, Note_on_c, 2, 68, 66
4, 475008, Note_on_c, 2, 74, 78
4, 475100, Note_off_c, 2, 74, 64
4, 475104, Note_on_c, 2, 65, 66
4, 475388, Note_off_c, 2, 68, 64
4, 475388, Note_off_c, 2, 65, 64
4, 475392, Note_on_c, 2, 69, 66
4, 475392, Note_on_c, 2, 65, 66
4, 475392, Note_on_c, 2, 62, 66
4, 475580, Note_off_c, 2, 69, 64
4, 475580, Note_off_c, 2, 65, 64
4, 475580, Note_off_c, 2, 62, 64
4, 475776, Note_on_c, 2, 69, 66
4, 475776, Note_on_c, 2, 64, 66
4, 475776, Note_on_c, 2, 61, 66
4, 475964, Note_off_c, 2, 69, 64
4, 475964, Note_off_c, 2, 64, 64
4, 475964, Note_off_c, 2, 61, 64
4, 476160, Note_on_c, 2, 62, 66
4, 476540, Note_off_c, 2, 62, 64
4, 476928, Note_on_c, 2, 69, 66
4, 477308, Note_off_c, 2, 69, 64
4, 477312, Note_on_c, 2, 69, 66
4, 477692, Note_off_c, 2, 69, 64
4, 477696, Note_on_c, 2, 69, 66
4, 477696, Note_on_c, 2, 65, 66
4, 477696, Note_on_c, 2, 77, 66
4, 478268, Note_off_c, 2, 77, 64
4, 478272, Note_on_c, 2, 76, 66
4, 478364, Note_off_c, 2, 76, 64
4, 478368, Note_on_c, 2, 74, 66
4, 478460, Note_off_c, 2, 65, 64
4, 478460, Note_off_c, 2, 74, 64
4, 478464, Note_on_c, 2, 67, 66
4, 478464, Note_on_c, 2, 73, 66
4, 478844, Note_off_c, 2, 73, 64
4, 478848, Note_on_c, 2, 76, 66
4, 479228, Note_off_c, 2, 67, 64
4, 479228, Note_off_c, 2, 76, 64
4, 479232, Note_on_c, 2, 74, 66
4, 479232, Note_on_c, 2, 65, 66
4, 479612, Note_off_c, 2, 69, 64
4, 479612, Note_off_c, 2, 74, 64
4, 479612, Note_off_c, 2, 65, 64
4, 480000, Note_on_c, 2, 69, 66
4, 480000, Note_on_c, 2, 65, 66
4, 480380, Note_off_c, 2, 69, 64
4, 480380, Note_off_c, 2, 65, 64
4, 480384, Note_on_c, 2, 74, 66
4, 480384, Note_on_c, 2, 69, 66
4, 480764, Note_off_c, 2, 74, 64
4, 480764, Note_off_c, 2, 69, 64
4, 480768, Note_on_c, 2, 77, 66
4, 480768, Note_on_c, 2, 74, 66
4, 481148, Note_off_c, 2, 77, 64
4, 481148, Note_off_c, 2, 74, 64
4, 481152, Note_on_c, 2, 81, 66
4, 481152, Note_on_c, 2, 77, 66
4, 481532, Note_off_c, 2, 81, 64
4, 481532, Note_off_c, 2, 77, 64
4, 481536, Note_on_c, 2, 79, 66
4, 481536, Note_on_c, 2, 76, 66
4, 481536, Note_on_c, 2, 69, 66
4, 481724, Note_off_c, 2, 79, 64
4, 481724, Note_off_c, 2, 76, 64
4, 481724, Note_off_c, 2, 69, 64
4, 481920, Note_on_c, 2, 77, 66
4, 481920, Note_on_c, 2, 74, 66
4, 481920, Note_on_c, 2, 69, 66
4, 482108, Note_off_c, 2, 77, 64
4, 482108, Note_off_c, 2, 74, 64
4, 482108, Note_off_c, 2, 69, 64
4, 482304, Note_on_c, 2, 76, 66
4, 482304, Note_on_c, 2, 73, 66
4, 482304, Note_on_c, 2, 69, 66
4, 482684, Note_off_c, 2, 76, 64
4, 482684, Note_off_c, 2, 73, 64
4, 482684, Note_off_c, 2, 69, 64
4, 483072, Note_on_c, 2, 70, 66
4, 483452, Note_off_c, 2, 70, 64
4, 483456, Note_on_c, 2, 70, 66
4, 483836, Note_off_c, 2, 70, 64
4, 483840, Note_on_c, 2, 82, 66
4, 483840, Note_on_c, 2, 75, 66
4, 483840, Note_on_c, 2, 70, 66
4, 484412, Note_off_c, 2, 82, 64
4, 484416, Note_on_c, 2, 81, 66
4, 484508, Note_off_c, 2, 81, 64
4, 484512, Note_on_c, 2, 79, 66
4, 484604, Note_off_c, 2, 75, 64
4, 484604, Note_off_c, 2, 70, 64
4, 484604, Note_off_c, 2, 79, 64
4, 484608, Note_on_c, 2, 78, 66
4, 484608, Note_on_c, 2, 75, 66
4, 484608, Note_on_c, 2, 72, 66
4, 484988, Note_off_c, 2, 78, 64
4, 484992, Note_on_c, 2, 81, 66
4, 485180, Note_off_c, 2, 75, 64
4, 485184, Note_on_c, 2, 74, 66
4, 485372, Note_off_c, 2, 72, 64
4, 485372, Note_off_c, 2, 81, 64
4, 485372, Note_off_c, 2, 74, 64
4, 485376, Note_on_c, 2, 79, 66
4, 485376, Note_on_c, 2, 74, 66
4, 485756, Note_off_c, 2, 79, 64
4, 485756, Note_off_c, 2, 74, 64
4, 486144, Note_on_c, 2, 74, 66
4, 486144, Note_on_c, 2, 68, 66
4, 486524, Note_off_c, 2, 74, 64
4, 486524, Note_off_c, 2, 68, 64
4, 486528, Note_on_c, 2, 77, 66
4, 486528, Note_on_c, 2, 74, 66
4, 486908, Note_off_c, 2, 77, 64
4, 486908, Note_off_c, 2, 74, 64
4, 486912, Note_on_c, 2, 77, 66
4, 486912, Note_on_c, 2, 80, 66
4, 487292, Note_off_c, 2, 77, 64
4, 487292, Note_off_c, 2, 80, 64
4, 487296, Note_on_c, 2, 80, 66
4, 487296, Note_on_c, 2, 86, 66
4, 487676, Note_off_c, 2, 80, 64
4, 487676, Note_off_c, 2, 86, 64
4, 487680, Note_on_c, 2, 81, 66
4, 487680, Note_on_c, 2, 77, 66
4, 487680, Note_on_c, 2, 74, 66
4, 487680, Note_on_c, 2, 69, 66
4, 487868, Note_off_c, 2, 81, 64
4, 487868, Note_off_c, 2, 77, 64
4, 487868, Note_off_c, 2, 74, 64
4, 487868, Note_off_c, 2, 69, 64
4, 488064, Note_on_c, 2, 81, 66
4, 488064, Note_on_c, 2, 76, 66
4, 488064, Note_on_c, 2, 73, 66
4, 488064, Note_on_c, 2, 69, 66
4, 488444, Note_off_c, 2, 81, 64
4, 488444, Note_off_c, 2, 76, 64
4, 488444, Note_off_c, 2, 73, 64
4, 488444, Note_off_c, 2, 69, 64
4, 488448, Note_on_c, 2, 74, 66
4, 488828, Note_off_c, 2, 74, 64
4, 490176, Note_on_c, 2, 73, 66
4, 490176, Note_on_c, 2, 67, 66
4, 490364, Note_off_c, 2, 73, 64
4, 490364, Note_off_c, 2, 67, 64
4, 490368, Note_on_c, 2, 76, 66
4, 490368, Note_on_c, 2, 70, 66
4, 490556, Note_off_c, 2, 76, 64
4, 490556, Note_off_c, 2, 70, 64
4, 490560, Note_on_c, 2, 74, 66
4, 490560, Note_on_c, 2, 69, 66
4, 490748, Note_off_c, 2, 74, 64
4, 490748, Note_off_c, 2, 69, 64
4, 490752, Note_on_c, 2, 73, 66
4, 490752, Note_on_c, 2, 67, 66
4, 490940, Note_off_c, 2, 73, 64
4, 490940, Note_off_c, 2, 67, 64
4, 490944, Note_on_c, 2, 70, 66
4, 490944, Note_on_c, 2, 65, 66
4, 491132, Note_off_c, 2, 70, 64
4, 491132, Note_off_c, 2, 65, 64
4, 491136, Note_on_c, 2, 69, 66
4, 491136, Note_on_c, 2, 64, 66
4, 491324, Note_off_c, 2, 69, 64
4, 491324, Note_off_c, 2, 64, 64
4, 491328, Note_on_c, 2, 67, 66
4, 491328, Note_on_c, 2, 64, 66
4, 491328, Note_on_c, 2, 61, 66
4, 491516, Note_off_c, 2, 67, 64
4, 491516, Note_off_c, 2, 64, 64
4, 491516, Note_off_c, 2, 61, 64
4, 491520, Note_on_c, 2, 65, 66
4, 491520, Note_on_c, 2, 62, 66
4, 491900, Note_off_c, 2, 65, 64
4, 491900, Note_off_c, 2, 62, 64
4, 493248, Note_on_c, 2, 73, 66
4, 493248, Note_on_c, 2, 67, 66
4, 493436, Note_off_c, 2, 73, 64
4, 493436, Note_off_c, 2, 67, 64
4, 493440, Note_on_c, 2, 76, 66
4, 493440, Note_on_c, 2, 70, 66
4, 493628, Note_off_c, 2, 76, 64
4, 493628, Note_off_c, 2, 70, 64
4, 493632, Note_on_c, 2, 74, 66
4, 493632, Note_on_c, 2, 69, 66
4, 493820, Note_off_c, 2, 74, 64
4, 493820, Note_off_c, 2, 69, 64
4, 493824, Note_on_c, 2, 73, 66
4, 493824, Note_on_c, 2, 67, 66
4, 494012, Note_off_c, 2, 73, 64
4, 494012, Note_off_c, 2, 67, 64
4, 494016, Note_on_c, 2, 70, 66
4, 494016, Note_on_c, 2, 65, 66
4, 494204, Note_off_c, 2, 70, 64
4, 494204, Note_off_c, 2, 65, 64
4, 494208, Note_on_c, 2, 69, 66
4, 494208, Note_on_c, 2, 64, 66
4, 494396, Note_off_c, 2, 69, 64
4, 494396, Note_off_c, 2, 64, 64
4, 494400, Note_on_c, 2, 67, 66
4, 494400, Note_on_c, 2, 64, 66
4, 494400, Note_on_c, 2, 61, 66
4, 494588, Note_off_c, 2, 67, 64
4, 494588, Note_off_c, 2, 64, 64
4, 494588, Note_off_c, 2, 61, 64
4, 494592, Note_on_c, 2, 66, 66
4, 494592, Note_on_c, 2, 62, 66
4, 494780, Note_off_c, 2, 66, 64
4, 494780, Note_off_c, 2, 62, 64
4, 494784, Note_on_c, 2, 78, 66
4, 494784, Note_on_c, 2, 69, 66
4, 494972, Note_off_c, 2, 78, 64
4, 494972, Note_off_c, 2, 69, 64
4, 494976, Note_on_c, 2, 81, 66
4, 494976, Note_on_c, 2, 75, 66
4, 495164, Note_off_c, 2, 81, 64
4, 495164, Note_off_c, 2, 75, 64
4, 495168, Note_on_c, 2, 79, 66
4, 495168, Note_on_c, 2, 74, 66
4, 495356, Note_off_c, 2, 79, 64
4, 495356, Note_off_c, 2, 74, 64
4, 495360, Note_on_c, 2, 78, 66
4, 495360, Note_on_c, 2, 72, 66
4, 495548, Note_off_c, 2, 78, 64
4, 495548, Note_off_c, 2, 72, 64
4, 495552, Note_on_c, 2, 75, 66
4, 495552, Note_on_c, 2, 70, 66
4, 495740, Note_off_c, 2, 75, 64
4, 495740, Note_off_c, 2, 70, 64
4, 495744, Note_on_c, 2, 74, 66
4, 495744, Note_on_c, 2, 69, 66
4, 495920, Note_on_c, 2, 66, 66
4, 495932, Note_off_c, 2, 74, 64
4, 495932, Note_off_c, 2, 69, 64
4, 495936, Note_on_c, 2, 72, 66
4, 496108, Note_off_c, 2, 66, 64
4, 496124, Note_off_c, 2, 72, 64
4, 496128, Note_on_c, 2, 70, 66
4, 496128, Note_on_c, 2, 67, 66
4, 496316, Note_off_c, 2, 70, 64
4, 496316, Note_off_c, 2, 67, 64
4, 496512, Note_on_c, 2, 79, 66
4, 496512, Note_on_c, 2, 74, 66
4, 496512, Note_on_c, 2, 70, 66
4, 496604, Note_off_c, 2, 79, 64
4, 496604, Note_off_c, 2, 74, 64
4, 496700, Note_off_c, 2, 70, 64
4, 496704, Note_on_c, 2, 77, 66
4, 496704, Note_on_c, 2, 72, 66
4, 496704, Note_on_c, 2, 69, 66
4, 496796, Note_off_c, 2, 77, 64
4, 496796, Note_off_c, 2, 72, 64
4, 496880, Note_on_c, 2, 67, 66
4, 496892, Note_off_c, 2, 69, 64
4, 496896, Note_on_c, 2, 75, 66
4, 496896, Note_on_c, 2, 70, 66
4, 497068, Note_off_c, 2, 67, 64
4, 497084, Note_off_c, 2, 75, 64
4, 497084, Note_off_c, 2, 70, 64
4, 497264, Note_on_c, 2, 70, 66
4, 497264, Note_on_c, 2, 67, 66
4, 497280, Note_on_c, 2, 75, 66
4, 497356, Note_off_c, 2, 70, 64
4, 497372, Note_off_c, 2, 75, 64
4, 497452, Note_off_c, 2, 67, 64
4, 497456, Note_on_c, 2, 69, 66
4, 497456, Note_on_c, 2, 65, 66
4, 497472, Note_on_c, 2, 74, 66
4, 497548, Note_off_c, 2, 69, 64
4, 497564, Note_off_c, 2, 74, 64
4, 497644, Note_off_c, 2, 65, 64
4, 497664, Note_on_c, 2, 73, 66
4, 497664, Note_on_c, 2, 67, 66
4, 497664, Note_on_c, 2, 64, 66
4, 497852, Note_off_c, 2, 73, 64
4, 497852, Note_off_c, 2, 67, 64
4, 497852, Note_off_c, 2, 64, 64
4, 498032, Note_on_c, 2, 67, 66
4, 498048, Note_on_c, 2, 73, 66
4, 498048, Note_on_c, 2, 64, 66
4, 498124, Note_off_c, 2, 67, 64
4, 498140, Note_off_c, 2, 73, 64
4, 498140, Note_off_c, 2, 64, 64
4, 498240, Note_on_c, 2, 70, 66
4, 498240, Note_on_c, 2, 65, 66
4, 498240, Note_on_c, 2, 62, 66
4, 498332, Note_off_c, 2, 70, 64
4, 498332, Note_off_c, 2, 65, 64
4, 498332, Note_off_c, 2, 62, 64
4, 498432, Note_on_c, 2, 69, 66
4, 498432, Note_on_c, 2, 64, 66
4, 498432, Note_on_c, 2, 61, 66
4, 498524, Note_off_c, 2, 69, 64
4, 498524, Note_off_c, 2, 64, 64
4, 498524, Note_off_c, 2, 61, 64
4, 498816, Note_on_c, 2, 69, 66
4, 498816, Note_on_c, 2, 64, 66
4, 498816, Note_on_c, 2, 61, 66
4, 498908, Note_off_c, 2, 69, 64
4, 498908, Note_off_c, 2, 64, 64
4, 498908, Note_off_c, 2, 61, 64
4, 499008, Note_on_c, 2, 67, 66
4, 499008, Note_on_c, 2, 61, 66
4, 499008, Note_on_c, 2, 57, 66
4, 499100, Note_off_c, 2, 67, 64
4, 499100, Note_off_c, 2, 61, 64
4, 499100, Note_off_c, 2, 57, 64
4, 499200, Note_on_c, 2, 65, 66
4, 499200, Note_on_c, 2, 62, 66
4, 499388, Note_off_c, 2, 65, 64
4, 499388, Note_off_c, 2, 62, 64
4, 499584, Note_on_c, 2, 74, 66
4, 499584, Note_on_c, 2, 65, 66
4, 499676, Note_off_c, 2, 74, 64
4, 499676, Note_off_c, 2, 65, 64
4, 499776, Note_on_c, 2, 72, 66
4, 499776, Note_on_c, 2, 66, 66
4, 499868, Note_off_c, 2, 72, 64
4, 499868, Note_off_c, 2, 66, 64
4, 499968, Note_on_c, 2, 70, 66
4, 499968, Note_on_c, 2, 67, 66
4, 500156, Note_off_c, 2, 70, 64
4, 500156, Note_off_c, 2, 67, 64
4, 500352, Note_on_c, 2, 70, 66
4, 500352, Note_on_c, 2, 62, 66
4, 500444, Note_off_c, 2, 70, 64
4, 500444, Note_off_c, 2, 62, 64
4, 500544, Note_on_c, 2, 69, 66
4, 500544, Note_on_c, 2, 62, 66
4, 500636, Note_off_c, 2, 69, 64
4, 500636, Note_off_c, 2, 62, 64
4, 500736, Note_on_c, 2, 67, 66
4, 500736, Note_on_c, 2, 61, 66
4, 500736, Note_on_c, 2, 58, 66
4, 500924, Note_off_c, 2, 67, 64
4, 500924, Note_off_c, 2, 61, 64
4, 500924, Note_off_c, 2, 58, 64
4, 501120, Note_on_c, 2, 67, 66
4, 501120, Note_on_c, 2, 61, 66
4, 501120, Note_on_c, 2, 58, 66
4, 501212, Note_off_c, 2, 67, 64
4, 501212, Note_off_c, 2, 61, 64
4, 501212, Note_off_c, 2, 58, 64
4, 501312, Note_on_c, 2, 65, 66
4, 501312, Note_on_c, 2, 62, 66
4, 501312, Note_on_c, 2, 58, 66
4, 501404, Note_off_c, 2, 65, 64
4, 501404, Note_off_c, 2, 62, 64
4, 501404, Note_off_c, 2, 58, 64
4, 501504, Note_on_c, 2, 64, 66
4, 501504, Note_on_c, 2, 58, 66
4, 501596, Note_off_c, 2, 64, 64
4, 501596, Note_off_c, 2, 58, 64
4, 501888, Note_on_c, 2, 64, 66
4, 501888, Note_on_c, 2, 55, 66
4, 501980, Note_off_c, 2, 64, 64
4, 501980, Note_off_c, 2, 55, 64
4, 502080, Note_on_c, 2, 62, 66
4, 502080, Note_on_c, 2, 55, 66
4, 502172, Note_off_c, 2, 62, 64
4, 502172, Note_off_c, 2, 55, 64
4, 503040, Note_on_c, 2, 85, 66
4, 503040, Note_on_c, 2, 79, 66
4, 503040, Note_on_c, 2, 76, 66
4, 503804, Note_off_c, 2, 85, 64
4, 503804, Note_off_c, 2, 79, 64
4, 503804, Note_off_c, 2, 76, 64
4, 504576, Note_on_c, 2, 86, 66
4, 504576, Note_on_c, 2, 83, 66
4, 504576, Note_on_c, 2, 77, 66
4, 505340, Note_off_c, 2, 86, 64
4, 505340, Note_off_c, 2, 83, 64
4, 505340, Note_off_c, 2, 77, 64
4, 505536, Note_on_c, 2, 65, 66
4, 505536, Note_on_c, 2, 62, 66
4, 505536, Note_on_c, 2, 57, 66
4, 505724, Note_off_c, 2, 65, 64
4, 505724, Note_off_c, 2, 62, 64
4, 505724, Note_off_c, 2, 57, 64
4, 505728, Note_on_c, 2, 65, 66
4, 505728, Note_on_c, 2, 62, 66
4, 505728, Note_on_c, 2, 57, 66
4, 505916, Note_off_c, 2, 65, 64
4, 505916, Note_off_c, 2, 62, 64
4, 505916, Note_off_c, 2, 57, 64
4, 505920, Note_on_c, 2, 65, 66
4, 505920, Note_on_c, 2, 62, 66
4, 505920, Note_on_c, 2, 57, 66
4, 506108, Note_off_c, 2, 65, 64
4, 506108, Note_off_c, 2, 62, 64
4, 506108, Note_off_c, 2, 57, 64
4, 506112, Note_on_c, 2, 64, 66
4, 506112, Note_on_c, 2, 61, 66
4, 506112, Note_on_c, 2, 55, 66
4, 506300, Note_off_c, 2, 64, 64
4, 506300, Note_off_c, 2, 61, 64
4, 506300, Note_off_c, 2, 55, 64
4, 506304, Note_on_c, 2, 64, 66
4, 506304, Note_on_c, 2, 61, 66
4, 506304, Note_on_c, 2, 55, 66
4, 506492, Note_off_c, 2, 64, 64
4, 506492, Note_off_c, 2, 61, 64
4, 506492, Note_off_c, 2, 55, 64
4, 506496, Note_on_c, 2, 64, 66
4, 506496, Note_on_c, 2, 61, 66
4, 506496, Note_on_c, 2, 55, 66
4, 506684, Note_off_c, 2, 64, 64
4, 506684, Note_off_c, 2, 61, 64
4, 506684, Note_off_c, 2, 55, 64
4, 506688, Note_on_c, 2, 64, 66
4, 506688, Note_on_c, 2, 61, 66
4, 506688, Note_on_c, 2, 55, 66
4, 506876, Note_off_c, 2, 64, 64
4, 506876, Note_off_c, 2, 61, 64
4, 506876, Note_off_c, 2, 55, 64
4, 506880, Note_on_c, 2, 62, 66
4, 506880, Note_on_c, 2, 53, 66
4, 507260, Note_off_c, 2, 62, 64
4, 507260, Note_off_c, 2, 53, 64
4, 511488, Note_on_c, 2, 70, 66
4, 511488, Note_on_c, 2, 67, 66
4, 511488, Note_on_c, 2, 62, 66
4, 512252, Note_off_c, 2, 70, 64
4, 512256, Note_on_c, 2, 71, 66
4, 513020, Note_off_c, 2, 67, 64
4, 513020, Note_off_c, 2, 62, 64
4, 513020, Note_off_c, 2, 71, 64
4, 513024, Note_on_c, 2, 72, 66
4, 513024, Note_on_c, 2, 67, 66
4, 513024, Note_on_c, 2, 64, 66
4, 513788, Note_off_c, 2, 72, 64
4, 513788, Note_off_c, 2, 67, 64
4, 513792, Note_on_c, 2, 73, 66
4, 513792, Note_on_c, 2, 69, 66
4, 514556, Note_off_c, 2, 64, 64
4, 514556, Note_off_c, 2, 73, 64
4, 514556, Note_off_c, 2, 69, 64
4, 514560, Note_on_c, 2, 74, 66
4, 514560, Note_on_c, 2, 69, 66
4, 514560, Note_on_c, 2, 65, 66
4, 515312, Note_on_c, 2, 62, 66
4, 515324, Note_off_c, 2, 74, 64
4, 515324, Note_off_c, 2, 69, 64
4, 515324, Note_off_c, 2, 65, 64
4, 515328, Note_on_c, 2, 68, 66
4, 515328, Note_on_c, 2, 65, 66
4, 516076, Note_off_c, 2, 62, 64
4, 516092, Note_off_c, 2, 68, 64
4, 516092, Note_off_c, 2, 65, 64
4, 516096, Note_on_c, 2, 69, 66
4, 516096, Note_on_c, 2, 65, 66
4, 516096, Note_on_c, 2, 62, 66
4, 516476, Note_off_c, 2, 69, 64
4, 516476, Note_off_c, 2, 65, 64
4, 516476, Note_off_c, 2, 62, 64
4, 517824, Note_on_c, 2, 64, 66
4, 517824, Note_on_c, 2, 61, 66
4, 517824, Note_on_c, 2, 57, 66
4, 518012, Note_off_c, 2, 64, 64
4, 518012, Note_off_c, 2, 61, 64
4, 518012, Note_off_c, 2, 57, 64
4, 518016, Note_on_c, 2, 64, 66
4, 518016, Note_on_c, 2, 61, 66
4, 518016, Note_on_c, 2, 57, 66
4, 518204, Note_off_c, 2, 64, 64
4, 518204, Note_off_c, 2, 61, 64
4, 518204, Note_off_c, 2, 57, 64
4, 518208, Note_on_c, 2, 64, 66
4, 518208, Note_on_c, 2, 61, 66
4, 518208, Note_on_c, 2, 57, 66
4, 518396, Note_off_c, 2, 64, 64
4, 518396, Note_off_c, 2, 61, 64
4, 518396, Note_off_c, 2, 57, 64
4, 518400, Note_on_c, 2, 64, 66
4, 518400, Note_on_c, 2, 61, 66
4, 518400, Note_on_c, 2, 57, 66
4, 518576, Note_on_c, 2, 57, 66
4, 518588, Note_off_c, 2, 64, 64
4, 518588, Note_off_c, 2, 61, 64
4, 518588, Note_off_c, 2, 57, 64
4, 518592, Note_on_c, 2, 64, 66
4, 518592, Note_on_c, 2, 61, 66
4, 518764, Note_off_c, 2, 57, 64
4, 518780, Note_off_c, 2, 64, 64
4, 518780, Note_off_c, 2, 61, 64
4, 518784, Note_on_c, 2, 64, 66
4, 518784, Note_on_c, 2, 61, 66
4, 518784, Note_on_c, 2, 57, 66
4, 518972, Note_off_c, 2, 64, 64
4, 518972, Note_off_c, 2, 61, 64
4, 518972, Note_off_c, 2, 57, 64
4, 518976, Note_on_c, 2, 64, 66
4, 518976, Note_on_c, 2, 61, 66
4, 518976, Note_on_c, 2, 57, 66
4, 519164, Note_off_c, 2, 64, 64
4, 519164, Note_off_c, 2, 61, 64
4, 519164, Note_off_c, 2, 57, 64
4, 519168, Note_on_c, 2, 62, 66
4, 519168, Note_on_c, 2, 53, 66
4, 519548, Note_off_c, 2, 62, 64
4, 519548, Note_off_c, 2, 53, 64
4, 528384, Note_on_c, 2, 68, 66
4, 528384, Note_on_c, 2, 62, 66
4, 528384, Note_on_c, 2, 59, 66
4, 528764, Note_off_c, 2, 68, 64
4, 528764, Note_off_c, 2, 62, 64
4, 528764, Note_off_c, 2, 59, 64
4, 528768, Note_on_c, 2, 74, 66
4, 528768, Note_on_c, 2, 71, 66
4, 528768, Note_on_c, 2, 80, 66
4, 529916, Note_off_c, 2, 74, 64
4, 529916, Note_off_c, 2, 71, 64
4, 529920, Note_on_c, 2, 67, 66
4, 529920, Note_on_c, 2, 64, 66
4, 529920, Note_on_c, 2, 61, 66
4, 529924, Note_off_c, 2, 80, 64
4, 530300, Note_off_c, 2, 67, 64
4, 530300, Note_off_c, 2, 64, 64
4, 530300, Note_off_c, 2, 61, 64
4, 530304, Note_on_c, 2, 79, 66
4, 530304, Note_on_c, 2, 76, 66
4, 530304, Note_on_c, 2, 73, 66
4, 531452, Note_off_c, 2, 79, 64
4, 531452, Note_off_c, 2, 76, 64
4, 531452, Note_off_c, 2, 73, 64
4, 531456, Note_on_c, 2, 66, 86
4, 531456, Note_on_c, 2, 60, 86
4, 531456, Note_on_c, 2, 57, 86
4, 531836, Note_off_c, 2, 66, 64
4, 531836, Note_off_c, 2, 60, 64
4, 531836, Note_off_c, 2, 57, 64
4, 531840, Note_on_c, 2, 78, 86
4, 531840, Note_on_c, 2, 74, 86
4, 531840, Note_on_c, 2, 69, 86
4, 532988, Note_off_c, 2, 78, 64
4, 532988, Note_off_c, 2, 74, 64
4, 532988, Note_off_c, 2, 69, 64
4, 532992, Note_on_c, 2, 65, 86
4, 532992, Note_on_c, 2, 62, 86
4, 532992, Note_on_c, 2, 58, 86
4, 533372, Note_off_c, 2, 65, 64
4, 533372, Note_off_c, 2, 62, 64
4, 533372, Note_off_c, 2, 58, 64
4, 533376, Note_on_c, 2, 86, 86
4, 533376, Note_on_c, 2, 77, 86
4, 533376, Note_on_c, 2, 74, 86
4, 534524, Note_off_c, 2, 86, 64
4, 534524, Note_off_c, 2, 77, 64
4, 534524, Note_off_c, 2, 74, 64
4, 534528, Note_on_c, 2, 63, 66
4, 534528, Note_on_c, 2, 58, 66
4, 534528, Note_on_c, 2, 55, 66
4, 534716, Note_off_c, 2, 63, 64
4, 534716, Note_off_c, 2, 58, 64
4, 534716, Note_off_c, 2, 55, 64
4, 534912, Note_on_c, 2, 67, 66
4, 534912, Note_on_c, 2, 63, 66
4, 534912, Note_on_c, 2, 58, 66
4, 535100, Note_off_c, 2, 67, 64
4, 535100, Note_off_c, 2, 63, 64
4, 535100, Note_off_c, 2, 58, 64
4, 535296, Note_on_c, 2, 70, 66
4, 535296, Note_on_c, 2, 67, 66
4, 535296, Note_on_c, 2, 63, 66
4, 535484, Note_off_c, 2, 70, 64
4, 535484, Note_off_c, 2, 67, 64
4, 535484, Note_off_c, 2, 63, 64
4, 535680, Note_on_c, 2, 75, 66
4, 535680, Note_on_c, 2, 70, 66
4, 535680, Note_on_c, 2, 67, 66
4, 535868, Note_off_c, 2, 75, 64
4, 535868, Note_off_c, 2, 70, 64
4, 535868, Note_off_c, 2, 67, 64
4, 536064, Note_on_c, 2, 65, 66
4, 536064, Note_on_c, 2, 62, 66
4, 536064, Note_on_c, 2, 59, 66
4, 536252, Note_off_c, 2, 65, 64
4, 536252, Note_off_c, 2, 62, 64
4, 536252, Note_off_c, 2, 59, 64
4, 536448, Note_on_c, 2, 71, 66
4, 536448, Note_on_c, 2, 65, 66
4, 536448, Note_on_c, 2, 62, 66
4, 536636, Note_off_c, 2, 71, 64
4, 536636, Note_off_c, 2, 65, 64
4, 536636, Note_off_c, 2, 62, 64
4, 536832, Note_on_c, 2, 74, 66
4, 536832, Note_on_c, 2, 71, 66
4, 536832, Note_on_c, 2, 65, 66
4, 537020, Note_off_c, 2, 74, 64
4, 537020, Note_off_c, 2, 71, 64
4, 537020, Note_off_c, 2, 65, 64
4, 537216, Note_on_c, 2, 77, 66
4, 537216, Note_on_c, 2, 74, 66
4, 537216, Note_on_c, 2, 71, 66
4, 537404, Note_off_c, 2, 77, 64
4, 537404, Note_off_c, 2, 74, 64
4, 537404, Note_off_c, 2, 71, 64
4, 537600, Note_on_c, 2, 86, 63
4, 537600, Note_on_c, 2, 77, 64
4, 537600, Note_on_c, 2, 74, 66
4, 542588, Note_off_c, 2, 74, 64
4, 542588, Note_off_c, 2, 77, 64
4, 542588, Note_off_c, 2, 86, 64
4, 543936, Note_on_c, 2, 65, 66
4, 543936, Note_on_c, 2, 62, 66
4, 543936, Note_on_c, 2, 57, 66
4, 544124, Note_off_c, 2, 65, 64
4, 544124, Note_off_c, 2, 62, 64
4, 544124, Note_off_c, 2, 57, 64
4, 544128, Note_on_c, 2, 65, 66
4, 544128, Note_on_c, 2, 62, 66
4, 544128, Note_on_c, 2, 57, 66
4, 544316, Note_off_c, 2, 65, 64
4, 544316, Note_off_c, 2, 62, 64
4, 544316, Note_off_c, 2, 57, 64
4, 544320, Note_on_c, 2, 65, 66
4, 544320, Note_on_c, 2, 62, 66
4, 544320, Note_on_c, 2, 57, 66
4, 544508, Note_off_c, 2, 65, 64
4, 544508, Note_off_c, 2, 62, 64
4, 544508, Note_off_c, 2, 57, 64
4, 544512, Note_on_c, 2, 65, 66
4, 544512, Note_on_c, 2, 62, 66
4, 544512, Note_on_c, 2, 57, 66
4, 544700, Note_off_c, 2, 65, 64
4, 544700, Note_off_c, 2, 62, 64
4, 544700, Note_off_c, 2, 57, 64
4, 544704, Note_on_c, 2, 65, 66
4, 544704, Note_on_c, 2, 62, 66
4, 544704, Note_on_c, 2, 57, 66
4, 544892, Note_off_c, 2, 65, 64
4, 544892, Note_off_c, 2, 62, 64
4, 544892, Note_off_c, 2, 57, 64
4, 544896, Note_on_c, 2, 65, 66
4, 544896, Note_on_c, 2, 62, 66
4, 544896, Note_on_c, 2, 57, 66
4, 545084, Note_off_c, 2, 65, 64
4, 545084, Note_off_c, 2, 62, 64
4, 545084, Note_off_c, 2, 57, 64
4, 545088, Note_on_c, 2, 65, 66
4, 545088, Note_on_c, 2, 62, 66
4, 545088, Note_on_c, 2, 57, 66
4, 545276, Note_off_c, 2, 65, 64
4, 545276, Note_off_c, 2, 62, 64
4, 545276, Note_off_c, 2, 57, 64
4, 545280, Note_on_c, 2, 64, 66
4, 545280, Note_on_c, 2, 61, 66
4, 545280, Note_on_c, 2, 57, 66
4, 545468, Note_off_c, 2, 64, 64
4, 545468, Note_off_c, 2, 61, 64
4, 545468, Note_off_c, 2, 57, 64
4, 545472, Note_on_c, 2, 64, 66
4, 545472, Note_on_c, 2, 61, 66
4, 545472, Note_on_c, 2, 57, 66
4, 545660, Note_off_c, 2, 64, 64
4, 545660, Note_off_c, 2, 61, 64
4, 545660, Note_off_c, 2, 57, 64
4, 545664, Note_on_c, 2, 64, 66
4, 545664, Note_on_c, 2, 61, 66
4, 545664, Note_on_c, 2, 57, 66
4, 545852, Note_off_c, 2, 64, 64
4, 545852, Note_off_c, 2, 61, 64
4, 545852, Note_off_c, 2, 57, 64
4, 545856, Note_on_c, 2, 64, 66
4, 545856, Note_on_c, 2, 61, 66
4, 545856, Note_on_c, 2, 57, 66
4, 546044, Note_off_c, 2, 64, 64
4, 546044, Note_off_c, 2, 61, 64
4, 546044, Note_off_c, 2, 57, 64
4, 546048, Note_on_c, 2, 64, 66
4, 546048, Note_on_c, 2, 61, 66
4, 546048, Note_on_c, 2, 57, 66
4, 546236, Note_off_c, 2, 64, 64
4, 546236, Note_off_c, 2, 61, 64
4, 546236, Note_off_c, 2, 57, 64
4, 546240, Note_on_c, 2, 64, 66
4, 546240, Note_on_c, 2, 61, 66
4, 546240, Note_on_c, 2, 57, 66
4, 546428, Note_off_c, 2, 64, 64
4, 546428, Note_off_c, 2, 61, 64
4, 546428, Note_off_c, 2, 57, 64
4, 546432, Note_on_c, 2, 64, 66
4, 546432, Note_on_c, 2, 61, 66
4, 546432, Note_on_c, 2, 57, 66
4, 546620, Note_off_c, 2, 64, 64
4, 546620, Note_off_c, 2, 61, 64
4, 546620, Note_off_c, 2, 57, 64
4, 546624, Note_on_c, 2, 64, 66
4, 546624, Note_on_c, 2, 61, 66
4, 546624, Note_on_c, 2, 57, 66
4, 546812, Note_off_c, 2, 64, 64
4, 546812, Note_off_c, 2, 61, 64
4, 546812, Note_off_c, 2, 57, 64
4, 546816, Note_on_c, 2, 62, 81
4, 546816, Note_on_c, 2, 53, 81
4, 546908, Note_off_c, 2, 53, 64
4, 546912, Note_on_c, 2, 57, 81
4, 547004, Note_off_c, 2, 57, 64
4, 547008, Note_on_c, 2, 53, 81
4, 547100, Note_off_c, 2, 53, 64
4, 547104, Note_on_c, 2, 57, 81
4, 547196, Note_off_c, 2, 62, 64
4, 547196, Note_off_c, 2, 57, 64
4, 547392, Note_on_c, 2, 57, 81
4, 547452, Note_off_c, 2, 57, 64
4, 547456, Note_on_c, 2, 58, 81
4, 547516, Note_off_c, 2, 58, 64
4, 547520, Note_on_c, 2, 60, 81
4, 547580, Note_off_c, 2, 60, 64
4, 547584, Note_on_c, 2, 62, 81
4, 547964, Note_off_c, 2, 62, 64
4, 548928, Note_on_c, 2, 69, 81
4, 548988, Note_off_c, 2, 69, 64
4, 548992, Note_on_c, 2, 71, 81
4, 549052, Note_off_c, 2, 71, 64
4, 549056, Note_on_c, 2, 73, 81
4, 549116, Note_off_c, 2, 73, 64
4, 549120, Note_on_c, 2, 74, 81
4, 549500, Note_off_c, 2, 74, 64
4, 549696, Note_on_c, 2, 81, 81
4, 549756, Note_off_c, 2, 81, 64
4, 549760, Note_on_c, 2, 83, 81
4, 549820, Note_off_c, 2, 83, 64
4, 549824, Note_on_c, 2, 85, 81
4, 549884, Note_off_c, 2, 85, 64
4, 549888, Note_on_c, 2, 86, 81
4, 550268, Note_off_c, 2, 86, 64
4, 550272, Note_on_c, 2, 81, 81
4, 550272, Note_on_c, 2, 69, 81
4, 550460, Note_off_c, 2, 81, 64
4, 550460, Note_off_c, 2, 69, 64
4, 550656, Note_on_c, 2, 77, 81
4, 550656, Note_on_c, 2, 65, 81
4, 550844, Note_off_c, 2, 77, 64
4, 550844, Note_off_c, 2, 65, 64
4, 551040, Note_on_c, 2, 74, 81
4, 551040, Note_on_c, 2, 62, 81
4, 551228, Note_off_c, 2, 74, 64
4, 551228, Note_off_c, 2, 62, 64
4, 551424, Note_on_c, 2, 61, 81
4, 551424, Note_on_c, 2, 55, 81
4, 551516, Note_off_c, 2, 55, 64
4, 551520, Note_on_c, 2, 58, 81
4, 551612, Note_off_c, 2, 58, 64
4, 551616, Note_on_c, 2, 55, 81
4, 551708, Note_off_c, 2, 55, 64
4, 551712, Note_on_c, 2, 58, 81
4, 551804, Note_off_c, 2, 58, 64
4, 551808, Note_on_c, 2, 55, 81
4, 551900, Note_off_c, 2, 55, 64
4, 551904, Note_on_c, 2, 58, 81
4, 551996, Note_off_c, 2, 58, 64
4, 552000, Note_on_c, 2, 55, 81
4, 552092, Note_off_c, 2, 55, 64
4, 552096, Note_on_c, 2, 58, 81
4, 552188, Note_off_c, 2, 61, 64
4, 552188, Note_off_c, 2, 58, 64
4, 552192, Note_on_c, 2, 55, 81
4, 552284, Note_off_c, 2, 55, 64
4, 552288, Note_on_c, 2, 58, 81
4, 552380, Note_off_c, 2, 58, 64
4, 552384, Note_on_c, 2, 55, 81
4, 552476, Note_off_c, 2, 55, 64
4, 552480, Note_on_c, 2, 58, 81
4, 552572, Note_off_c, 2, 58, 64
4, 552768, Note_on_c, 2, 76, 81
4, 552812, Note_off_c, 2, 76, 64
4, 552816, Note_on_c, 2, 77, 81
4, 552860, Note_off_c, 2, 77, 64
4, 552864, Note_on_c, 2, 79, 81
4, 552908, Note_off_c, 2, 79, 64
4, 552912, Note_on_c, 2, 81, 81
4, 552956, Note_off_c, 2, 81, 64
4, 552960, Note_on_c, 2, 82, 81
4, 553340, Note_off_c, 2, 82, 64
4, 553344, Note_on_c, 2, 77, 81
4, 553344, Note_on_c, 2, 65, 81
4, 553532, Note_off_c, 2, 77, 64
4, 553532, Note_off_c, 2, 65, 64
4, 553728, Note_on_c, 2, 74, 81
4, 553728, Note_on_c, 2, 62, 81
4, 553916, Note_off_c, 2, 74, 64
4, 553916, Note_off_c, 2, 62, 64
4, 554112, Note_on_c, 2, 70, 81
4, 554112, Note_on_c, 2, 58, 81
4, 554300, Note_off_c, 2, 70, 64
4, 554300, Note_off_c, 2, 58, 64
4, 554496, Note_on_c, 2, 69, 81
4, 554496, Note_on_c, 2, 57, 81
4, 555068, Note_off_c, 2, 69, 64
4, 555068, Note_off_c, 2, 57, 64
4, 555072, Note_on_c, 2, 70, 81
4, 555072, Note_on_c, 2, 58, 81
4, 555260, Note_off_c, 2, 70, 64
4, 555260, Note_off_c, 2, 58, 64
4, 555264, Note_on_c, 2, 69, 81
4, 555264, Note_on_c, 2, 57, 81
4, 555452, Note_off_c, 2, 69, 64
4, 555452, Note_off_c, 2, 57, 64
4, 555456, Note_on_c, 2, 68, 81
4, 555456, Note_on_c, 2, 56, 81
4, 555632, Note_on_c, 2, 57, 81
4, 555644, Note_off_c, 2, 68, 64
4, 555644, Note_off_c, 2, 56, 64
4, 555648, Note_on_c, 2, 69, 81
4, 555820, Note_off_c, 2, 57, 64
4, 555836, Note_off_c, 2, 69, 64
4, 555840, Note_on_c, 2, 68, 81
4, 555840, Note_on_c, 2, 56, 81
4, 556028, Note_off_c, 2, 68, 64
4, 556028, Note_off_c, 2, 56, 64
4, 556032, Note_on_c, 2, 69, 81
4, 556032, Note_on_c, 2, 57, 81
4, 556604, Note_off_c, 2, 69, 64
4, 556604, Note_off_c, 2, 57, 64
4, 556608, Note_on_c, 2, 70, 81
4, 556608, Note_on_c, 2, 58, 81
4, 556796, Note_off_c, 2, 70, 64
4, 556796, Note_off_c, 2, 58, 64
4, 556800, Note_on_c, 2, 69, 81
4, 556800, Note_on_c, 2, 57, 81
4, 556988, Note_off_c, 2, 69, 64
4, 556988, Note_off_c, 2, 57, 64
4, 556992, Note_on_c, 2, 68, 81
4, 556992, Note_on_c, 2, 56, 81
4, 557168, Note_on_c, 2, 57, 81
4, 557180, Note_off_c, 2, 68, 64
4, 557180, Note_off_c, 2, 56, 64
4, 557184, Note_on_c, 2, 69, 81
4, 557356, Note_off_c, 2, 57, 64
4, 557372, Note_off_c, 2, 69, 64
4, 557376, Note_on_c, 2, 68, 81
4, 557376, Note_on_c, 2, 56, 81
4, 557564, Note_off_c, 2, 68, 64
4, 557564, Note_off_c, 2, 56, 64
4, 557568, Note_on_c, 2, 69, 81
4, 557568, Note_on_c, 2, 57, 81
4, 557948, Note_off_c, 2, 69, 64
4, 557948, Note_off_c, 2, 57, 64
4, 557952, Note_on_c, 2, 79, 81
4, 557952, Note_on_c, 2, 76, 81
4, 557952, Note_on_c, 2, 69, 81
4, 558332, Note_off_c, 2, 79, 64
4, 558332, Note_off_c, 2, 76, 64
4, 558332, Note_off_c, 2, 69, 64
4, 558720, Note_on_c, 2, 77, 81
4, 558720, Note_on_c, 2, 74, 81
4, 558720, Note_on_c, 2, 69, 81
4, 559100, Note_off_c, 2, 77, 64
4, 559100, Note_off_c, 2, 74, 64
4, 559100, Note_off_c, 2, 69, 64
4, 559488, Note_on_c, 2, 82, 82
4, 559488, Note_on_c, 2, 79, 82
4, 559488, Note_on_c, 2, 74, 82
4, 559488, Note_on_c, 2, 70, 82
4, 559868, Note_off_c, 2, 82, 64
4, 559868, Note_off_c, 2, 79, 64
4, 559868, Note_off_c, 2, 74, 64
4, 559868, Note_off_c, 2, 70, 64
4, 560256, Note_on_c, 2, 86, 83
4, 560256, Note_on_c, 2, 81, 83
4, 560256, Note_on_c, 2, 77, 83
4, 560256, Note_on_c, 2, 74, 83
4, 560636, Note_off_c, 2, 86, 64
4, 560636, Note_off_c, 2, 81, 64
4, 560636, Note_off_c, 2, 77, 64
4, 560636, Note_off_c, 2, 74, 64
4, 560640, Note_on_c, 2, 57, 85
4, 561404, Note_off_c, 2, 57, 64
4, 666228, Program_c, 2, 48
4, 668160, Note_on_c, 2, 74, 79
4, 668160, Note_on_c, 2, 62, 81
4, 668732, Note_off_c, 2, 74, 64
4, 668732, Note_off_c, 2, 62, 64
4, 668832, Note_on_c, 2, 74, 79
4, 668832, Note_on_c, 2, 62, 81
4, 668924, Note_off_c, 2, 74, 64
4, 668924, Note_off_c, 2, 62, 64
4, 669024, Note_on_c, 2, 64, 79
4, 669024, Note_on_c, 2, 76, 81
4, 669116, Note_off_c, 2, 64, 64
4, 669116, Note_off_c, 2, 76, 64
4, 669216, Note_on_c, 2, 62, 79
4, 669216, Note_on_c, 2, 74, 81
4, 669308, Note_off_c, 2, 62, 64
4, 669308, Note_off_c, 2, 74, 64
4, 669408, Note_on_c, 2, 64, 79
4, 669408, Note_on_c, 2, 76, 81
4, 669500, Note_off_c, 2, 64, 64
4, 669500, Note_off_c, 2, 76, 64
4, 669600, Note_on_c, 2, 78, 79
4, 669600, Note_on_c, 2, 66, 81
4, 669692, Note_off_c, 2, 78, 64
4, 669692, Note_off_c, 2, 66, 64
4, 669792, Note_on_c, 2, 79, 79
4, 669792, Note_on_c, 2, 74, 81
4, 669792, Note_on_c, 2, 67, 81
4, 669884, Note_off_c, 2, 79, 64
4, 669884, Note_off_c, 2, 74, 64
4, 669884, Note_off_c, 2, 67, 64
4, 669984, Note_on_c, 2, 66, 79
4, 669984, Note_on_c, 2, 78, 81
4, 670076, Note_off_c, 2, 66, 64
4, 670076, Note_off_c, 2, 78, 64
4, 670176, Note_on_c, 2, 79, 79
4, 670176, Note_on_c, 2, 67, 81
4, 670268, Note_off_c, 2, 79, 64
4, 670268, Note_off_c, 2, 67, 64
4, 670368, Note_on_c, 2, 76, 79
4, 670368, Note_on_c, 2, 64, 81
4, 670460, Note_off_c, 2, 76, 64
4, 670460, Note_off_c, 2, 64, 64
4, 670560, Note_on_c, 2, 78, 79
4, 670560, Note_on_c, 2, 66, 81
4, 670652, Note_off_c, 2, 78, 64
4, 670652, Note_off_c, 2, 66, 64
4, 670752, Note_on_c, 2, 64, 79
4, 670752, Note_on_c, 2, 76, 81
4, 670844, Note_off_c, 2, 64, 64
4, 670844, Note_off_c, 2, 76, 64
4, 670944, Note_on_c, 2, 78, 79
4, 670944, Note_on_c, 2, 66, 81
4, 671036, Note_off_c, 2, 78, 64
4, 671036, Note_off_c, 2, 66, 64
4, 671136, Note_on_c, 2, 68, 79
4, 671136, Note_on_c, 2, 80, 81
4, 671228, Note_off_c, 2, 68, 64
4, 671228, Note_off_c, 2, 80, 64
4, 671328, Note_on_c, 2, 81, 79
4, 671328, Note_on_c, 2, 74, 81
4, 671328, Note_on_c, 2, 69, 81
4, 671420, Note_off_c, 2, 81, 64
4, 671420, Note_off_c, 2, 74, 64
4, 671420, Note_off_c, 2, 69, 64
4, 671520, Note_on_c, 2, 68, 79
4, 671520, Note_on_c, 2, 80, 81
4, 671612, Note_off_c, 2, 68, 64
4, 671612, Note_off_c, 2, 80, 64
4, 671712, Note_on_c, 2, 81, 79
4, 671712, Note_on_c, 2, 69, 81
4, 671804, Note_off_c, 2, 81, 64
4, 671804, Note_off_c, 2, 69, 64
4, 671904, Note_on_c, 2, 78, 79
4, 671904, Note_on_c, 2, 66, 81
4, 671996, Note_off_c, 2, 78, 64
4, 671996, Note_off_c, 2, 66, 64
4, 672096, Note_on_c, 2, 79, 79
4, 672096, Note_on_c, 2, 67, 81
4, 672188, Note_off_c, 2, 79, 64
4, 672188, Note_off_c, 2, 67, 64
4, 672288, Note_on_c, 2, 78, 79
4, 672288, Note_on_c, 2, 66, 81
4, 672380, Note_off_c, 2, 78, 64
4, 672380, Note_off_c, 2, 66, 64
4, 672480, Note_on_c, 2, 79, 79
4, 672480, Note_on_c, 2, 67, 81
4, 672572, Note_off_c, 2, 79, 64
4, 672572, Note_off_c, 2, 67, 64
4, 672672, Note_on_c, 2, 69, 79
4, 672672, Note_on_c, 2, 81, 81
4, 672764, Note_off_c, 2, 69, 64
4, 672764, Note_off_c, 2, 81, 64
4, 672768, Note_on_c, 2, 82, 81
4, 672768, Note_on_c, 2, 74, 81
4, 672768, Note_on_c, 2, 70, 81
4, 673148, Note_off_c, 2, 82, 64
4, 673148, Note_off_c, 2, 74, 64
4, 673148, Note_off_c, 2, 70, 64
4, 673152, Note_on_c, 2, 83, 81
4, 673152, Note_on_c, 2, 79, 81
4, 673152, Note_on_c, 2, 74, 81
4, 673152, Note_on_c, 2, 71, 81
4, 673532, Note_off_c, 2, 83, 64
4, 673532, Note_off_c, 2, 79, 64
4, 673532, Note_off_c, 2, 74, 64
4, 673532, Note_off_c, 2, 71, 64
4, 673536, Note_on_c, 2, 84, 81
4, 673536, Note_on_c, 2, 79, 81
4, 673536, Note_on_c, 2, 76, 81
4, 673536, Note_on_c, 2, 72, 81
4, 673916, Note_off_c, 2, 84, 64
4, 673916, Note_off_c, 2, 79, 64
4, 673916, Note_off_c, 2, 76, 64
4, 673916, Note_off_c, 2, 72, 64
4, 673920, Note_on_c, 2, 85, 81
4, 673920, Note_on_c, 2, 81, 81
4, 673920, Note_on_c, 2, 76, 81
4, 673920, Note_on_c, 2, 73, 81
4, 674300, Note_off_c, 2, 85, 64
4, 674300, Note_off_c, 2, 81, 64
4, 674300, Note_off_c, 2, 76, 64
4, 674300, Note_off_c, 2, 73, 64
4, 674304, Note_on_c, 2, 86, 81
4, 674304, Note_on_c, 2, 81, 81
4, 674304, Note_on_c, 2, 77, 81
4, 674304, Note_on_c, 2, 74, 81
4, 674684, Note_off_c, 2, 86, 64
4, 674684, Note_off_c, 2, 81, 64
4, 674684, Note_off_c, 2, 77, 64
4, 674684, Note_off_c, 2, 74, 64
4, 674688, Note_on_c, 2, 81, 81
4, 674688, Note_on_c, 2, 69, 81
4, 675068, Note_off_c, 2, 81, 64
4, 675068, Note_off_c, 2, 69, 64
4, 675072, Note_on_c, 2, 77, 81
4, 675072, Note_on_c, 2, 65, 81
4, 675452, Note_off_c, 2, 77, 64
4, 675452, Note_off_c, 2, 65, 64
4, 675456, Note_on_c, 2, 74, 81
4, 675456, Note_on_c, 2, 62, 81
4, 675836, Note_off_c, 2, 74, 64
4, 675836, Note_off_c, 2, 62, 64
4, 675840, Note_on_c, 2, 63, 81
4, 675840, Note_on_c, 2, 58, 81
4, 675840, Note_on_c, 2, 55, 81
4, 676604, Note_off_c, 2, 63, 64
4, 676604, Note_off_c, 2, 58, 64
4, 676604, Note_off_c, 2, 55, 64
4, 676784, Note_on_c, 2, 70, 81
4, 676800, Note_on_c, 2, 82, 81
4, 676972, Note_off_c, 2, 70, 64
4, 676988, Note_off_c, 2, 82, 64
4, 676992, Note_on_c, 2, 82, 81
4, 676992, Note_on_c, 2, 70, 81
4, 677180, Note_off_c, 2, 82, 64
4, 677180, Note_off_c, 2, 70, 64
4, 677184, Note_on_c, 2, 82, 81
4, 677184, Note_on_c, 2, 70, 81
4, 677372, Note_off_c, 2, 82, 64
4, 677372, Note_off_c, 2, 70, 64
4, 677376, Note_on_c, 2, 82, 81
4, 677376, Note_on_c, 2, 70, 81
4, 677376, Note_on_c, 2, 73, 81
4, 677564, Note_off_c, 2, 82, 64
4, 677564, Note_off_c, 2, 70, 64
4, 677568, Note_on_c, 2, 81, 81
4, 677568, Note_on_c, 2, 69, 81
4, 677756, Note_off_c, 2, 81, 64
4, 677756, Note_off_c, 2, 69, 64
4, 677760, Note_on_c, 2, 81, 81
4, 677760, Note_on_c, 2, 69, 81
4, 678140, Note_off_c, 2, 73, 64
4, 678332, Note_off_c, 2, 81, 64
4, 678332, Note_off_c, 2, 69, 64
4, 678336, Note_on_c, 2, 79, 81
4, 678336, Note_on_c, 2, 76, 81
4, 678336, Note_on_c, 2, 73, 81
4, 678336, Note_on_c, 2, 67, 81
4, 678428, Note_off_c, 2, 79, 64
4, 678428, Note_off_c, 2, 76, 64
4, 678428, Note_off_c, 2, 73, 64
4, 678428, Note_off_c, 2, 67, 64
4, 678512, Note_on_c, 2, 73, 81
4, 678528, Note_on_c, 2, 79, 81
4, 678528, Note_on_c, 2, 76, 81
4, 678528, Note_on_c, 2, 67, 81
4, 678604, Note_off_c, 2, 73, 64
4, 678620, Note_off_c, 2, 79, 64
4, 678620, Note_off_c, 2, 76, 64
4, 678620, Note_off_c, 2, 67, 64
4, 678720, Note_on_c, 2, 79, 81
4, 678720, Note_on_c, 2, 76, 81
4, 678720, Note_on_c, 2, 73, 81
4, 678720, Note_on_c, 2, 67, 81
4, 678812, Note_off_c, 2, 79, 64
4, 678812, Note_off_c, 2, 76, 64
4, 678812, Note_off_c, 2, 73, 64
4, 678812, Note_off_c, 2, 67, 64
4, 678912, Note_on_c, 2, 79, 81
4, 678912, Note_on_c, 2, 76, 81
4, 678912, Note_on_c, 2, 73, 81
4, 678912, Note_on_c, 2, 67, 81
4, 679100, Note_off_c, 2, 79, 64
4, 679100, Note_off_c, 2, 76, 64
4, 679100, Note_off_c, 2, 73, 64
4, 679100, Note_off_c, 2, 67, 64
4, 679104, Note_on_c, 2, 77, 81
4, 679104, Note_on_c, 2, 74, 81
4, 679104, Note_on_c, 2, 65, 81
4, 679292, Note_off_c, 2, 77, 64
4, 679292, Note_off_c, 2, 74, 64
4, 679292, Note_off_c, 2, 65, 64
4, 679296, Note_on_c, 2, 77, 81
4, 679296, Note_on_c, 2, 74, 81
4, 679296, Note_on_c, 2, 65, 81
4, 679676, Note_off_c, 2, 77, 64
4, 679676, Note_off_c, 2, 74, 64
4, 679676, Note_off_c, 2, 65, 64
4, 679872, Note_on_c, 2, 76, 64
4, 679872, Note_on_c, 2, 67, 64
4, 680060, Note_off_c, 2, 76, 64
4, 680060, Note_off_c, 2, 67, 64
4, 680064, Note_on_c, 2, 79, 64
4, 680064, Note_on_c, 2, 70, 64
4, 680252, Note_off_c, 2, 79, 64
4, 680252, Note_off_c, 2, 70, 64
4, 680256, Note_on_c, 2, 76, 64
4, 680256, Note_on_c, 2, 67, 64
4, 680444, Note_off_c, 2, 76, 64
4, 680444, Note_off_c, 2, 67, 64
4, 680640, Note_on_c, 2, 74, 64
4, 680640, Note_on_c, 2, 65, 64
4, 680828, Note_off_c, 2, 74, 64
4, 680828, Note_off_c, 2, 65, 64
4, 680832, Note_on_c, 2, 77, 64
4, 680832, Note_on_c, 2, 69, 64
4, 681020, Note_off_c, 2, 77, 64
4, 681020, Note_off_c, 2, 69, 64
4, 681024, Note_on_c, 2, 74, 64
4, 681024, Note_on_c, 2, 65, 64
4, 681212, Note_off_c, 2, 74, 64
4, 681212, Note_off_c, 2, 65, 64
4, 681408, Note_on_c, 2, 73, 64
4, 681408, Note_on_c, 2, 64, 64
4, 681596, Note_off_c, 2, 73, 64
4, 681596, Note_off_c, 2, 64, 64
4, 681600, Note_on_c, 2, 76, 64
4, 681600, Note_on_c, 2, 67, 64
4, 681788, Note_off_c, 2, 76, 64
4, 681788, Note_off_c, 2, 67, 64
4, 681792, Note_on_c, 2, 73, 64
4, 681792, Note_on_c, 2, 64, 64
4, 681980, Note_off_c, 2, 73, 64
4, 681980, Note_off_c, 2, 64, 64
4, 681984, Note_on_c, 2, 62, 86
4, 682076, Note_off_c, 2, 62, 64
4, 682080, Note_on_c, 2, 74, 86
4, 682172, Note_off_c, 2, 74, 64
4, 682176, Note_on_c, 2, 62, 86
4, 682268, Note_off_c, 2, 62, 64
4, 682272, Note_on_c, 2, 74, 86
4, 682364, Note_off_c, 2, 74, 64
4, 682368, Note_on_c, 2, 62, 86
4, 682460, Note_off_c, 2, 62, 64
4, 682464, Note_on_c, 2, 74, 86
4, 682556, Note_off_c, 2, 74, 64
4, 682560, Note_on_c, 2, 62, 86
4, 682652, Note_off_c, 2, 62, 64
4, 682656, Note_on_c, 2, 74, 86
4, 682748, Note_off_c, 2, 74, 64
4, 682752, Note_on_c, 2, 63, 86
4, 682844, Note_off_c, 2, 63, 64
4, 682848, Note_on_c, 2, 74, 86
4, 682940, Note_off_c, 2, 74, 64
4, 682944, Note_on_c, 2, 62, 86
4, 683036, Note_off_c, 2, 62, 64
4, 683040, Note_on_c, 2, 74, 86
4, 683132, Note_off_c, 2, 74, 64
4, 683136, Note_on_c, 2, 64, 86
4, 683228, Note_off_c, 2, 64, 64
4, 683232, Note_on_c, 2, 74, 86
4, 683324, Note_off_c, 2, 74, 64
4, 683328, Note_on_c, 2, 66, 86
4, 683420, Note_off_c, 2, 66, 64
4, 683424, Note_on_c, 2, 74, 86
4, 683516, Note_off_c, 2, 74, 64
4, 683520, Note_on_c, 2, 67, 86
4, 683612, Note_off_c, 2, 67, 64
4, 683616, Note_on_c, 2, 74, 86
4, 683708, Note_off_c, 2, 74, 64
4, 683712, Note_on_c, 2, 66, 86
4, 683804, Note_off_c, 2, 66, 64
4, 683808, Note_on_c, 2, 74, 86
4, 683900, Note_off_c, 2, 74, 64
4, 683904, Note_on_c, 2, 67, 86
4, 683996, Note_off_c, 2, 67, 64
4, 684000, Note_on_c, 2, 74, 86
4, 684092, Note_off_c, 2, 74, 64
4, 684096, Note_on_c, 2, 64, 86
4, 684188, Note_off_c, 2, 64, 64
4, 684192, Note_on_c, 2, 74, 86
4, 684284, Note_off_c, 2, 74, 64
4, 684288, Note_on_c, 2, 65, 86
4, 684380, Note_off_c, 2, 65, 64
4, 684384, Note_on_c, 2, 74, 86
4, 684476, Note_off_c, 2, 74, 64
4, 684480, Note_on_c, 2, 64, 86
4, 684572, Note_off_c, 2, 64, 64
4, 684576, Note_on_c, 2, 74, 86
4, 684668, Note_off_c, 2, 74, 64
4, 684672, Note_on_c, 2, 66, 86
4, 684764, Note_off_c, 2, 66, 64
4, 684768, Note_on_c, 2, 74, 86
4, 684860, Note_off_c, 2, 74, 64
4, 684864, Note_on_c, 2, 68, 86
4, 684956, Note_off_c, 2, 68, 64
4, 684960, Note_on_c, 2, 74, 86
4, 685052, Note_off_c, 2, 74, 64
4, 685056, Note_on_c, 2, 69, 86
4, 685148, Note_off_c, 2, 69, 64
4, 685152, Note_on_c, 2, 74, 86
4, 685244, Note_off_c, 2, 74, 64
4, 685248, Note_on_c, 2, 68, 86
4, 685340, Note_off_c, 2, 68, 64
4, 685344, Note_on_c, 2, 74, 86
4, 685436, Note_off_c, 2, 74, 64
4, 685440, Note_on_c, 2, 69, 86
4, 685532, Note_off_c, 2, 69, 64
4, 685536, Note_on_c, 2, 74, 86
4, 685628, Note_off_c, 2, 74, 64
4, 685632, Note_on_c, 2, 66, 86
4, 685724, Note_off_c, 2, 66, 64
4, 685728, Note_on_c, 2, 74, 86
4, 685820, Note_off_c, 2, 74, 64
4, 685824, Note_on_c, 2, 67, 86
4, 685916, Note_off_c, 2, 67, 64
4, 685920, Note_on_c, 2, 74, 86
4, 686012, Note_off_c, 2, 74, 64
4, 686016, Note_on_c, 2, 66, 86
4, 686108, Note_off_c, 2, 66, 64
4, 686112, Note_on_c, 2, 74, 86
4, 686204, Note_off_c, 2, 74, 64
4, 686208, Note_on_c, 2, 67, 86
4, 686300, Note_off_c, 2, 67, 64
4, 686304, Note_on_c, 2, 74, 86
4, 686396, Note_off_c, 2, 74, 64
4, 686400, Note_on_c, 2, 69, 86
4, 686492, Note_off_c, 2, 69, 64
4, 686496, Note_on_c, 2, 74, 86
4, 686588, Note_off_c, 2, 74, 64
4, 686592, Note_on_c, 2, 70, 86
4, 686780, Note_off_c, 2, 70, 64
4, 686784, Note_on_c, 2, 86, 81
4, 686784, Note_on_c, 2, 74, 86
4, 686972, Note_off_c, 2, 86, 64
4, 686972, Note_off_c, 2, 74, 64
4, 686976, Note_on_c, 2, 86, 81
4, 686976, Note_on_c, 2, 74, 86
4, 687164, Note_off_c, 2, 86, 64
4, 687164, Note_off_c, 2, 74, 64
4, 687168, Note_on_c, 2, 86, 81
4, 687168, Note_on_c, 2, 74, 86
4, 687356, Note_off_c, 2, 86, 64
4, 687356, Note_off_c, 2, 74, 64
4, 687360, Note_on_c, 2, 86, 81
4, 687360, Note_on_c, 2, 74, 86
4, 687548, Note_off_c, 2, 86, 64
4, 687548, Note_off_c, 2, 74, 64
4, 687552, Note_on_c, 2, 86, 81
4, 687552, Note_on_c, 2, 74, 86
4, 687740, Note_off_c, 2, 86, 64
4, 687740, Note_off_c, 2, 74, 64
4, 687744, Note_on_c, 2, 86, 81
4, 687744, Note_on_c, 2, 74, 86
4, 687932, Note_off_c, 2, 86, 64
4, 687932, Note_off_c, 2, 74, 64
4, 687936, Note_on_c, 2, 86, 81
4, 687936, Note_on_c, 2, 74, 86
4, 688124, Note_off_c, 2, 86, 64
4, 688124, Note_off_c, 2, 74, 64
4, 688128, Note_on_c, 2, 86, 81
4, 688128, Note_on_c, 2, 72, 86
4, 688316, Note_off_c, 2, 86, 64
4, 688316, Note_off_c, 2, 72, 64
4, 688320, Note_on_c, 2, 82, 81
4, 688320, Note_on_c, 2, 70, 86
4, 688508, Note_off_c, 2, 82, 64
4, 688508, Note_off_c, 2, 70, 64
4, 688512, Note_on_c, 2, 82, 86
4, 688512, Note_on_c, 2, 79, 86
4, 688512, Note_on_c, 2, 74, 86
4, 688512, Note_on_c, 2, 70, 86
4, 689276, Note_off_c, 2, 82, 64
4, 689276, Note_off_c, 2, 79, 64
4, 689276, Note_off_c, 2, 74, 64
4, 689276, Note_off_c, 2, 70, 64
4, 689280, Note_on_c, 2, 77, 86
4, 689280, Note_on_c, 2, 74, 86
4, 689280, Note_on_c, 2, 69, 86
4, 689280, Note_on_c, 2, 81, 86
4, 689660, Note_off_c, 2, 77, 64
4, 689660, Note_off_c, 2, 74, 64
4, 689660, Note_off_c, 2, 69, 64
4, 689660, Note_off_c, 2, 81, 64
4, 689664, Note_on_c, 2, 81, 86
4, 689664, Note_on_c, 2, 74, 86
4, 689664, Note_on_c, 2, 69, 86
4, 689852, Note_off_c, 2, 81, 64
4, 689852, Note_off_c, 2, 74, 64
4, 689852, Note_off_c, 2, 69, 64
4, 689856, Note_on_c, 2, 79, 86
4, 689856, Note_on_c, 2, 67, 86
4, 690044, Note_off_c, 2, 79, 64
4, 690044, Note_off_c, 2, 67, 64
4, 690048, Note_on_c, 2, 79, 66
4, 690048, Note_on_c, 2, 74, 66
4, 690048, Note_on_c, 2, 67, 66
4, 690428, Note_off_c, 2, 79, 64
4, 690428, Note_off_c, 2, 74, 64
4, 690428, Note_off_c, 2, 67, 64
4, 691200, Note_on_c, 2, 74, 66
4, 691200, Note_on_c, 2, 79, 66
4, 691388, Note_off_c, 2, 79, 64
4, 691392, Note_on_c, 2, 80, 66
4, 691580, Note_off_c, 2, 74, 64
4, 691580, Note_off_c, 2, 80, 64
4, 691584, Note_on_c, 2, 74, 66
4, 691584, Note_on_c, 2, 80, 66
4, 691964, Note_off_c, 2, 74, 64
4, 691964, Note_off_c, 2, 80, 64
4, 692736, Note_on_c, 2, 74, 66
4, 692736, Note_on_c, 2, 81, 66
4, 693308, Note_off_c, 2, 81, 64
4, 693312, Note_on_c, 2, 77, 66
4, 693404, Note_off_c, 2, 77, 64
4, 693408, Note_on_c, 2, 74, 66
4, 693500, Note_off_c, 2, 74, 64
4, 693504, Note_on_c, 2, 81, 66
4, 694076, Note_off_c, 2, 81, 64
4, 694080, Note_on_c, 2, 77, 66
4, 694172, Note_off_c, 2, 77, 64
4, 694176, Note_on_c, 2, 74, 66
4, 694268, Note_off_c, 2, 74, 64
4, 694268, Note_off_c, 2, 74, 64
4, 694272, Note_on_c, 2, 69, 66
4, 694460, Note_off_c, 2, 69, 64
4, 694656, Note_on_c, 2, 69, 66
4, 694844, Note_off_c, 2, 69, 64
4, 695424, Note_on_c, 2, 73, 66
4, 695424, Note_on_c, 2, 67, 66
4, 695424, Note_on_c, 2, 64, 66
4, 695804, Note_off_c, 2, 73, 64
4, 695804, Note_off_c, 2, 67, 64
4, 695804, Note_off_c, 2, 64, 64
4, 695808, Note_on_c, 2, 74, 66
4, 695808, Note_on_c, 2, 65, 66
4, 695996, Note_off_c, 2, 65, 64
4, 696000, Note_on_c, 2, 62, 66
4, 696188, Note_off_c, 2, 74, 64
4, 696188, Note_off_c, 2, 62, 64
4, 696192, Note_on_c, 2, 69, 66
4, 696380, Note_off_c, 2, 69, 64
4, 696384, Note_on_c, 2, 65, 66
4, 696572, Note_off_c, 2, 65, 64
4, 696960, Note_on_c, 2, 69, 66
4, 696960, Note_on_c, 2, 77, 66
4, 697148, Note_off_c, 2, 69, 64
4, 697152, Note_on_c, 2, 65, 66
4, 697340, Note_off_c, 2, 65, 64
4, 697344, Note_on_c, 2, 70, 66
4, 697532, Note_off_c, 2, 77, 64
4, 697532, Note_off_c, 2, 70, 64
4, 697536, Note_on_c, 2, 76, 66
4, 697536, Note_on_c, 2, 67, 66
4, 697724, Note_off_c, 2, 76, 64
4, 697724, Note_off_c, 2, 67, 64
4, 697728, Note_on_c, 2, 79, 66
4, 698492, Note_off_c, 2, 79, 64
4, 698496, Note_on_c, 2, 68, 66
4, 698496, Note_on_c, 2, 77, 66
4, 698684, Note_off_c, 2, 68, 64
4, 698688, Note_on_c, 2, 69, 66
4, 698876, Note_off_c, 2, 77, 64
4, 698876, Note_off_c, 2, 69, 64
4, 698880, Note_on_c, 2, 76, 66
4, 698880, Note_on_c, 2, 67, 66
4, 699068, Note_off_c, 2, 67, 64
4, 699072, Note_on_c, 2, 64, 66
4, 699260, Note_off_c, 2, 76, 64
4, 699260, Note_off_c, 2, 64, 64
4, 699264, Note_on_c, 2, 74, 66
4, 699264, Note_on_c, 2, 67, 66
4, 699452, Note_off_c, 2, 67, 64
4, 699456, Note_on_c, 2, 65, 66
4, 699644, Note_off_c, 2, 74, 64
4, 699644, Note_off_c, 2, 65, 64
4, 699648, Note_on_c, 2, 68, 66
4, 699836, Note_off_c, 2, 68, 64
4, 699840, Note_on_c, 2, 69, 66
4, 700028, Note_off_c, 2, 69, 64
4, 700032, Note_on_c, 2, 77, 66
4, 700416, Note_on_c, 2, 70, 66
4, 700604, Note_off_c, 2, 77, 64
4, 700604, Note_off_c, 2, 70, 64
4, 700608, Note_on_c, 2, 76, 66
4, 700796, Note_off_c, 2, 76, 64
4, 700800, Note_on_c, 2, 82, 66
4, 701564, Note_off_c, 2, 82, 64
4, 701568, Note_on_c, 2, 67, 66
4, 701580, Note_on_c, 2, 81, 66
4, 701756, Note_off_c, 2, 67, 64
4, 701760, Note_on_c, 2, 73, 66
4, 701948, Note_off_c, 2, 73, 64
4, 701952, Note_on_c, 2, 79, 66
4, 701952, Note_on_c, 2, 76, 66
4, 701960, Note_off_c, 2, 81, 64
4, 702140, Note_off_c, 2, 76, 64
4, 702144, Note_on_c, 2, 73, 66
4, 702332, Note_off_c, 2, 79, 64
4, 702332, Note_off_c, 2, 73, 64
4, 702336, Note_on_c, 2, 77, 66
4, 702336, Note_on_c, 2, 76, 66
4, 702524, Note_off_c, 2, 76, 64
4, 702528, Note_on_c, 2, 74, 66
4, 702716, Note_off_c, 2, 77, 64
4, 702716, Note_off_c, 2, 74, 64
4, 702720, Note_on_c, 2, 68, 66
4, 702908, Note_off_c, 2, 68, 64
4, 702912, Note_on_c, 2, 69, 66
4, 703100, Note_off_c, 2, 69, 64
4, 703104, Note_on_c, 2, 86, 66
4, 703104, Note_on_c, 2, 77, 66
4, 703484, Note_off_c, 2, 86, 64
4, 703484, Note_off_c, 2, 77, 64
4, 703488, Note_on_c, 2, 72, 66
4, 703676, Note_off_c, 2, 72, 64
4, 703680, Note_on_c, 2, 70, 66
4, 703868, Note_off_c, 2, 70, 64
4, 703872, Note_on_c, 2, 67, 66
4, 703872, Note_on_c, 2, 76, 66
4, 704060, Note_off_c, 2, 67, 64
4, 704252, Note_off_c, 2, 76, 64
4, 704256, Note_on_c, 2, 67, 66
4, 704640, Note_on_c, 2, 81, 66
4, 704640, Note_on_c, 2, 73, 66
4, 705020, Note_off_c, 2, 67, 64
4, 705020, Note_off_c, 2, 81, 64
4, 705020, Note_off_c, 2, 73, 64
4, 705024, Note_on_c, 2, 65, 66
4, 705024, Note_on_c, 2, 65, 66
4, 705024, Note_on_c, 2, 74, 66
4, 705212, Note_off_c, 2, 74, 64
4, 705216, Note_on_c, 2, 62, 66
4, 705404, Note_off_c, 2, 65, 64
4, 705404, Note_off_c, 2, 65, 64
4, 705596, Note_off_c, 2, 62, 64
4, 705600, Note_on_c, 2, 62, 66
4, 705600, Note_on_c, 2, 62, 66
4, 705788, Note_off_c, 2, 62, 64
4, 705792, Note_on_c, 2, 60, 66
4, 705968, Note_on_c, 2, 62, 66
4, 705980, Note_off_c, 2, 62, 64
4, 705980, Note_off_c, 2, 60, 64
4, 705984, Note_on_c, 2, 60, 66
4, 706348, Note_off_c, 2, 62, 64
4, 706352, Note_on_c, 2, 62, 66
4, 706364, Note_off_c, 2, 60, 64
4, 706368, Note_on_c, 2, 60, 66
4, 706556, Note_off_c, 2, 60, 64
4, 706560, Note_on_c, 2, 58, 66
4, 706732, Note_off_c, 2, 62, 64
4, 706748, Note_off_c, 2, 58, 64
4, 706752, Note_on_c, 2, 62, 66
4, 706752, Note_on_c, 2, 58, 66
4, 706940, Note_off_c, 2, 62, 64
4, 706940, Note_off_c, 2, 58, 64
4, 706944, Note_on_c, 2, 67, 66
4, 706944, Note_on_c, 2, 64, 66
4, 706944, Note_on_c, 2, 58, 66
4, 707132, Note_off_c, 2, 67, 64
4, 707132, Note_off_c, 2, 64, 64
4, 707132, Note_off_c, 2, 58, 64
4, 707136, Note_on_c, 2, 67, 66
4, 707136, Note_on_c, 2, 64, 66
4, 707136, Note_on_c, 2, 58, 66
4, 707324, Note_off_c, 2, 67, 64
4, 707324, Note_off_c, 2, 64, 64
4, 707324, Note_off_c, 2, 58, 64
4, 707328, Note_on_c, 2, 65, 66
4, 707328, Note_on_c, 2, 62, 66
4, 707328, Note_on_c, 2, 57, 66
4, 707516, Note_off_c, 2, 65, 64
4, 707516, Note_off_c, 2, 62, 64
4, 707516, Note_off_c, 2, 57, 64
4, 707520, Note_on_c, 2, 65, 66
4, 707520, Note_on_c, 2, 62, 66
4, 707520, Note_on_c, 2, 57, 66
4, 707708, Note_off_c, 2, 65, 64
4, 707708, Note_off_c, 2, 62, 64
4, 707708, Note_off_c, 2, 57, 64
4, 707712, Note_on_c, 2, 64, 66
4, 707712, Note_on_c, 2, 57, 66
4, 707712, Note_on_c, 2, 55, 66
4, 707888, Note_on_c, 2, 55, 66
4, 707900, Note_off_c, 2, 64, 64
4, 707900, Note_off_c, 2, 57, 64
4, 707900, Note_off_c, 2, 55, 64
4, 707904, Note_on_c, 2, 64, 66
4, 707904, Note_on_c, 2, 57, 66
4, 708076, Note_off_c, 2, 55, 64
4, 708092, Note_off_c, 2, 64, 64
4, 708092, Note_off_c, 2, 57, 64
4, 708096, Note_on_c, 2, 62, 66
4, 708096, Note_on_c, 2, 57, 66
4, 708096, Note_on_c, 2, 53, 66
4, 708284, Note_off_c, 2, 62, 64
4, 708284, Note_off_c, 2, 57, 64
4, 708284, Note_off_c, 2, 53, 64
4, 708288, Note_on_c, 2, 62, 66
4, 708668, Note_off_c, 2, 62, 64
4, 708672, Note_on_c, 2, 62, 66
4, 708672, Note_on_c, 2, 62, 66
4, 708860, Note_off_c, 2, 62, 64
4, 708864, Note_on_c, 2, 60, 66
4, 709052, Note_off_c, 2, 62, 64
4, 709052, Note_off_c, 2, 60, 64
4, 709056, Note_on_c, 2, 60, 66
4, 709072, Note_on_c, 2, 62, 66
4, 709408, Note_on_c, 2, 62, 66
4, 709436, Note_off_c, 2, 60, 64
4, 709440, Note_on_c, 2, 60, 66
4, 709452, Note_off_c, 2, 62, 64
4, 709628, Note_off_c, 2, 60, 64
4, 709632, Note_on_c, 2, 58, 66
4, 709788, Note_off_c, 2, 62, 64
4, 709820, Note_off_c, 2, 58, 64
4, 709824, Note_on_c, 2, 62, 66
4, 709824, Note_on_c, 2, 58, 66
4, 710012, Note_off_c, 2, 62, 64
4, 710012, Note_off_c, 2, 58, 64
4, 710016, Note_on_c, 2, 67, 66
4, 710016, Note_on_c, 2, 64, 66
4, 710016, Note_on_c, 2, 58, 66
4, 710204, Note_off_c, 2, 67, 64
4, 710204, Note_off_c, 2, 64, 64
4, 710204, Note_off_c, 2, 58, 64
4, 710208, Note_on_c, 2, 67, 66
4, 710208, Note_on_c, 2, 64, 66
4, 710208, Note_on_c, 2, 58, 66
4, 710396, Note_off_c, 2, 67, 64
4, 710396, Note_off_c, 2, 64, 64
4, 710396, Note_off_c, 2, 58, 64
4, 710400, Note_on_c, 2, 65, 66
4, 710400, Note_on_c, 2, 62, 66
4, 710400, Note_on_c, 2, 57, 66
4, 710588, Note_off_c, 2, 65, 64
4, 710588, Note_off_c, 2, 62, 64
4, 710588, Note_off_c, 2, 57, 64
4, 710592, Note_on_c, 2, 65, 66
4, 710592, Note_on_c, 2, 62, 66
4, 710592, Note_on_c, 2, 57, 66
4, 710780, Note_off_c, 2, 65, 64
4, 710780, Note_off_c, 2, 62, 64
4, 710780, Note_off_c, 2, 57, 64
4, 710784, Note_on_c, 2, 64, 66
4, 710784, Note_on_c, 2, 57, 66
4, 710784, Note_on_c, 2, 55, 66
4, 710972, Note_off_c, 2, 64, 64
4, 710972, Note_off_c, 2, 57, 64
4, 710972, Note_off_c, 2, 55, 64
4, 710976, Note_on_c, 2, 64, 66
4, 710976, Note_on_c, 2, 57, 66
4, 710976, Note_on_c, 2, 55, 66
4, 711164, Note_off_c, 2, 64, 64
4, 711164, Note_off_c, 2, 57, 64
4, 711164, Note_off_c, 2, 55, 64
4, 711168, Note_on_c, 2, 62, 66
4, 712124, Note_off_c, 2, 62, 64
4, 712128, Note_on_c, 2, 67, 66
4, 712128, Note_on_c, 2, 61, 66
4, 712316, Note_off_c, 2, 67, 64
4, 712316, Note_off_c, 2, 61, 64
4, 712320, Note_on_c, 2, 65, 66
4, 712320, Note_on_c, 2, 62, 66
4, 712508, Note_off_c, 2, 65, 64
4, 712508, Note_off_c, 2, 62, 64
4, 712512, Note_on_c, 2, 64, 66
4, 712512, Note_on_c, 2, 61, 66
4, 712700, Note_off_c, 2, 64, 64
4, 712700, Note_off_c, 2, 61, 64
4, 712704, Note_on_c, 2, 62, 58
4, 713084, Note_off_c, 2, 62, 64
4, 713472, Note_on_c, 2, 62, 58
4, 713852, Note_off_c, 2, 62, 64
4, 713852, End_track
5, 0, Start_track
5, 0, Title_t, "B.Fisher"
5, 0, Control_c, 3, 0, 0
5, 0, Program_c, 3, 48
5, 0, Control_c, 3, 10, 93
5, 0, Control_c, 3, 91, 67
5, 0, Control_c, 3, 93, 0
5, 0, Key_signature, -1, "minor"
5, 0, Control_c, 3, 121, 0
5, 384, Control_c, 3, 10, 73
5, 480, Control_c, 3, 91, 63
5, 672, Program_c, 3, 48
5, 1536, Note_on_c, 3, 53, 66
5, 1536, Note_on_c, 3, 50, 66
5, 1536, Note_on_c, 3, 38, 80
5, 1724, Note_off_c, 3, 53, 64
5, 1728, Note_on_c, 3, 53, 66
5, 2108, Note_off_c, 3, 53, 64
5, 2112, Note_on_c, 3, 53, 66
5, 2300, Note_off_c, 3, 50, 64
5, 2300, Note_off_c, 3, 38, 64
5, 2492, Note_off_c, 3, 53, 64
5, 2496, Note_on_c, 3, 53, 66
5, 2876, Note_off_c, 3, 53, 64
5, 2880, Note_on_c, 3, 53, 66
5, 2880, Note_on_c, 3, 33, 80
5, 2940, Note_off_c, 3, 33, 64
5, 2944, Note_on_c, 3, 35, 78
5, 3004, Note_off_c, 3, 35, 64
5, 3008, Note_on_c, 3, 37, 76
5, 3068, Note_off_c, 3, 37, 64
5, 3072, Note_on_c, 3, 38, 75
5, 3260, Note_off_c, 3, 53, 64
5, 3264, Note_on_c, 3, 53, 66
5, 3644, Note_off_c, 3, 53, 64
5, 3648, Note_on_c, 3, 53, 66
5, 3836, Note_off_c, 3, 38, 64
5, 4028, Note_off_c, 3, 53, 64
5, 4032, Note_on_c, 3, 53, 66
5, 4412, Note_off_c, 3, 53, 64
5, 4416, Note_on_c, 3, 53, 66
5, 4416, Note_on_c, 3, 33, 80
5, 4476, Note_off_c, 3, 33, 64
5, 4480, Note_on_c, 3, 35, 79
5, 4540, Note_off_c, 3, 35, 64
5, 4544, Note_on_c, 3, 37, 78
5, 4604, Note_off_c, 3, 37, 64
5, 4608, Note_on_c, 3, 38, 76
5, 4796, Note_off_c, 3, 53, 64
5, 4800, Note_on_c, 3, 53, 66
5, 5180, Note_off_c, 3, 53, 64
5, 5184, Note_on_c, 3, 50, 66
5, 5372, Note_off_c, 3, 38, 64
5, 5564, Note_off_c, 3, 50, 64
5, 5568, Note_on_c, 3, 52, 66
5, 5948, Note_off_c, 3, 52, 64
5, 5952, Note_on_c, 3, 53, 66
5, 5952, Note_on_c, 3, 33, 80
5, 5992, Note_off_c, 3, 33, 64
5, 6000, Note_on_c, 3, 35, 79
5, 6040, Note_off_c, 3, 35, 64
5, 6048, Note_on_c, 3, 37, 78
5, 6088, Note_off_c, 3, 37, 64
5, 6096, Note_on_c, 3, 38, 76
5, 6136, Note_off_c, 3, 38, 64
5, 6140, Note_off_c, 3, 53, 64
5, 6144, Note_on_c, 3, 40, 75
5, 6144, Note_on_c, 3, 55, 66
5, 6332, Note_off_c, 3, 55, 64
5, 6336, Note_on_c, 3, 57, 66
5, 6336, Note_on_c, 3, 55, 66
5, 6716, Note_off_c, 3, 57, 64
5, 6716, Note_off_c, 3, 55, 64
5, 6720, Note_on_c, 3, 55, 66
5, 6720, Note_on_c, 3, 57, 66
5, 6908, Note_off_c, 3, 40, 64
5, 7100, Note_off_c, 3, 55, 64
5, 7100, Note_off_c, 3, 57, 64
5, 7104, Note_on_c, 3, 57, 66
5, 7104, Note_on_c, 3, 55, 66
5, 7484, Note_off_c, 3, 57, 64
5, 7484, Note_off_c, 3, 55, 64
5, 7488, Note_on_c, 3, 55, 66
5, 7680, Note_on_c, 3, 49, 66
5, 7680, Note_on_c, 3, 37, 78
5, 7868, Note_off_c, 3, 55, 64
5, 7872, Note_on_c, 3, 57, 66
5, 7872, Note_on_c, 3, 55, 66
5, 8252, Note_off_c, 3, 57, 64
5, 8252, Note_off_c, 3, 55, 64
5, 8256, Note_on_c, 3, 57, 66
5, 8256, Note_on_c, 3, 55, 66
5, 8444, Note_off_c, 3, 49, 64
5, 8444, Note_off_c, 3, 37, 64
5, 8636, Note_off_c, 3, 57, 64
5, 8636, Note_off_c, 3, 55, 64
5, 8640, Note_on_c, 3, 57, 66
5, 8640, Note_on_c, 3, 55, 66
5, 9020, Note_off_c, 3, 57, 64
5, 9020, Note_off_c, 3, 55, 64
5, 9024, Note_on_c, 3, 55, 66
5, 9024, Note_on_c, 3, 45, 79
5, 9116, Note_off_c, 3, 45, 64
5, 9120, Note_on_c, 3, 47, 76
5, 9212, Note_off_c, 3, 47, 64
5, 9216, Note_on_c, 3, 49, 75
5, 9216, Note_on_c, 3, 37, 80
5, 9404, Note_off_c, 3, 55, 64
5, 9408, Note_on_c, 3, 55, 66
5, 9788, Note_off_c, 3, 55, 64
5, 9792, Note_on_c, 3, 55, 66
5, 9980, Note_off_c, 3, 49, 64
5, 9980, Note_off_c, 3, 37, 64
5, 10172, Note_off_c, 3, 55, 64
5, 10176, Note_on_c, 3, 55, 66
5, 10556, Note_off_c, 3, 55, 64
5, 10560, Note_on_c, 3, 55, 66
5, 10560, Note_on_c, 3, 45, 79
5, 10652, Note_off_c, 3, 45, 64
5, 10656, Note_on_c, 3, 47, 76
5, 10748, Note_off_c, 3, 47, 64
5, 10752, Note_on_c, 3, 49, 75
5, 10752, Note_on_c, 3, 37, 80
5, 10940, Note_off_c, 3, 55, 64
5, 11328, Note_on_c, 3, 52, 66
5, 11516, Note_off_c, 3, 49, 64
5, 11516, Note_off_c, 3, 37, 64
5, 11708, Note_off_c, 3, 52, 64
5, 11712, Note_on_c, 3, 53, 66
5, 12092, Note_off_c, 3, 53, 64
5, 12096, Note_on_c, 3, 55, 66
5, 12096, Note_on_c, 3, 45, 79
5, 12156, Note_off_c, 3, 45, 64
5, 12160, Note_on_c, 3, 47, 76
5, 12220, Note_off_c, 3, 47, 64
5, 12224, Note_on_c, 3, 49, 75
5, 12284, Note_off_c, 3, 55, 64
5, 12284, Note_off_c, 3, 49, 64
5, 12288, Note_on_c, 3, 50, 74
5, 12288, Note_on_c, 3, 38, 80
5, 12288, Note_on_c, 3, 53, 66
5, 12476, Note_off_c, 3, 53, 64
5, 12480, Note_on_c, 3, 53, 66
5, 12860, Note_off_c, 3, 53, 64
5, 12864, Note_on_c, 3, 53, 66
5, 13052, Note_off_c, 3, 50, 64
5, 13052, Note_off_c, 3, 38, 64
5, 13244, Note_off_c, 3, 53, 64
5, 13248, Note_on_c, 3, 53, 66
5, 13624, Note_off_c, 3, 53, 64
5, 13632, Note_on_c, 3, 38, 72
5, 13692, Note_off_c, 3, 38, 64
5, 13696, Note_on_c, 3, 40, 72
5, 13756, Note_off_c, 3, 40, 64
5, 13760, Note_on_c, 3, 41, 72
5, 13820, Note_off_c, 3, 41, 64
5, 13824, Note_on_c, 3, 43, 72
5, 14204, Note_off_c, 3, 43, 64
5, 14400, Note_on_c, 3, 40, 72
5, 14460, Note_off_c, 3, 40, 64
5, 14464, Note_on_c, 3, 41, 72
5, 14524, Note_off_c, 3, 41, 64
5, 14528, Note_on_c, 3, 43, 72
5, 14588, Note_off_c, 3, 43, 64
5, 14592, Note_on_c, 3, 45, 72
5, 14968, Note_off_c, 3, 45, 64
5, 15168, Note_on_c, 3, 42, 79
5, 15228, Note_off_c, 3, 42, 64
5, 15232, Note_on_c, 3, 43, 76
5, 15292, Note_off_c, 3, 43, 64
5, 15296, Note_on_c, 3, 45, 75
5, 15356, Note_off_c, 3, 45, 64
5, 15360, Note_on_c, 3, 46, 74
5, 16120, Note_off_c, 3, 46, 64
5, 16128, Note_on_c, 3, 64, 72
5, 16128, Note_on_c, 3, 52, 72
5, 16704, Note_on_c, 3, 40, 79
5, 16764, Note_off_c, 3, 40, 64
5, 16768, Note_on_c, 3, 42, 76
5, 16828, Note_off_c, 3, 42, 64
5, 16832, Note_on_c, 3, 43, 75
5, 16892, Note_off_c, 3, 64, 64
5, 16892, Note_off_c, 3, 52, 64
5, 16892, Note_off_c, 3, 43, 64
5, 16896, Note_on_c, 3, 45, 74
5, 17276, Note_off_c, 3, 45, 64
5, 17472, Note_on_c, 3, 42, 79
5, 17532, Note_off_c, 3, 42, 64
5, 17536, Note_on_c, 3, 43, 76
5, 17596, Note_off_c, 3, 43, 64
5, 17600, Note_on_c, 3, 45, 75
5, 17660, Note_off_c, 3, 45, 64
5, 17664, Note_on_c, 3, 47, 74
5, 18044, Note_off_c, 3, 47, 64
5, 18240, Note_on_c, 3, 44, 79
5, 18300, Note_off_c, 3, 44, 64
5, 18304, Note_on_c, 3, 45, 76
5, 18364, Note_off_c, 3, 45, 64
5, 18368, Note_on_c, 3, 47, 75
5, 18428, Note_off_c, 3, 47, 64
5, 18432, Note_on_c, 3, 48, 74
5, 19196, Note_off_c, 3, 48, 64
5, 19776, Note_on_c, 3, 45, 79
5, 19836, Note_off_c, 3, 45, 64
5, 19840, Note_on_c, 3, 47, 76
5, 19900, Note_off_c, 3, 47, 64
5, 19904, Note_on_c, 3, 48, 75
5, 19964, Note_off_c, 3, 48, 64
5, 19968, Note_on_c, 3, 50, 74
5, 20348, Note_off_c, 3, 50, 64
5, 20544, Note_on_c, 3, 47, 79
5, 20604, Note_off_c, 3, 47, 64
5, 20608, Note_on_c, 3, 48, 76
5, 20668, Note_off_c, 3, 48, 64
5, 20672, Note_on_c, 3, 50, 75
5, 20732, Note_off_c, 3, 50, 64
5, 20736, Note_on_c, 3, 52, 74
5, 21116, Note_off_c, 3, 52, 64
5, 21312, Note_on_c, 3, 49, 79
5, 21372, Note_off_c, 3, 49, 64
5, 21376, Note_on_c, 3, 50, 76
5, 21436, Note_off_c, 3, 50, 64
5, 21440, Note_on_c, 3, 52, 75
5, 21500, Note_off_c, 3, 52, 64
5, 21504, Note_on_c, 3, 53, 74
5, 21884, Note_off_c, 3, 53, 64
5, 21888, Note_on_c, 3, 53, 66
5, 21888, Note_on_c, 3, 41, 74
5, 22268, Note_off_c, 3, 53, 64
5, 22268, Note_off_c, 3, 41, 64
5, 22272, Note_on_c, 3, 55, 66
5, 22272, Note_on_c, 3, 43, 74
5, 22652, Note_off_c, 3, 55, 64
5, 22652, Note_off_c, 3, 43, 64
5, 22656, Note_on_c, 3, 55, 66
5, 22656, Note_on_c, 3, 43, 74
5, 23036, Note_off_c, 3, 55, 64
5, 23036, Note_off_c, 3, 43, 64
5, 23040, Note_on_c, 3, 57, 66
5, 23040, Note_on_c, 3, 45, 74
5, 23420, Note_off_c, 3, 57, 64
5, 23420, Note_off_c, 3, 45, 64
5, 23424, Note_on_c, 3, 57, 66
5, 23424, Note_on_c, 3, 45, 74
5, 23804, Note_off_c, 3, 57, 64
5, 23804, Note_off_c, 3, 45, 64
5, 23808, Note_on_c, 3, 57, 66
5, 23808, Note_on_c, 3, 45, 74
5, 24188, Note_off_c, 3, 57, 64
5, 24188, Note_off_c, 3, 45, 64
5, 24192, Note_on_c, 3, 57, 66
5, 24380, Note_off_c, 3, 57, 64
5, 24384, Note_on_c, 3, 33, 89
5, 24444, Note_off_c, 3, 33, 64
5, 24448, Note_on_c, 3, 35, 87
5, 24508, Note_off_c, 3, 35, 64
5, 24512, Note_on_c, 3, 37, 86
5, 24572, Note_off_c, 3, 37, 64
5, 24576, Note_on_c, 3, 53, 86
5, 24576, Note_on_c, 3, 38, 86
5, 24764, Note_off_c, 3, 53, 64
5, 24764, Note_off_c, 3, 38, 64
5, 24768, Note_on_c, 3, 53, 86
5, 24860, Note_off_c, 3, 53, 64
5, 24864, Note_on_c, 3, 57, 86
5, 24956, Note_off_c, 3, 57, 64
5, 24960, Note_on_c, 3, 53, 86
5, 25052, Note_off_c, 3, 53, 64
5, 25056, Note_on_c, 3, 57, 86
5, 25148, Note_off_c, 3, 57, 64
5, 25152, Note_on_c, 3, 53, 86
5, 25244, Note_off_c, 3, 53, 64
5, 25248, Note_on_c, 3, 57, 86
5, 25340, Note_off_c, 3, 57, 64
5, 25344, Note_on_c, 3, 53, 86
5, 25436, Note_off_c, 3, 53, 64
5, 25440, Note_on_c, 3, 57, 86
5, 25532, Note_off_c, 3, 57, 64
5, 25536, Note_on_c, 3, 53, 86
5, 25628, Note_off_c, 3, 53, 64
5, 25632, Note_on_c, 3, 57, 86
5, 25724, Note_off_c, 3, 57, 64
5, 25728, Note_on_c, 3, 53, 86
5, 25820, Note_off_c, 3, 53, 64
5, 25824, Note_on_c, 3, 57, 86
5, 25916, Note_off_c, 3, 57, 64
5, 25920, Note_on_c, 3, 53, 86
5, 25920, Note_on_c, 3, 45, 89
5, 25980, Note_off_c, 3, 45, 64
5, 25984, Note_on_c, 3, 47, 87
5, 26012, Note_off_c, 3, 53, 64
5, 26016, Note_on_c, 3, 57, 86
5, 26044, Note_off_c, 3, 47, 64
5, 26048, Note_on_c, 3, 49, 86
5, 26108, Note_off_c, 3, 57, 64
5, 26108, Note_off_c, 3, 49, 64
5, 26112, Note_on_c, 3, 50, 86
5, 26112, Note_on_c, 3, 53, 86
5, 26204, Note_off_c, 3, 53, 64
5, 26208, Note_on_c, 3, 57, 86
5, 26300, Note_off_c, 3, 57, 64
5, 26304, Note_on_c, 3, 53, 86
5, 26396, Note_off_c, 3, 53, 64
5, 26400, Note_on_c, 3, 57, 86
5, 26492, Note_off_c, 3, 50, 64
5, 26492, Note_off_c, 3, 57, 64
5, 26496, Note_on_c, 3, 53, 86
5, 26588, Note_off_c, 3, 53, 64
5, 26592, Note_on_c, 3, 57, 86
5, 26684, Note_off_c, 3, 57, 64
5, 26688, Note_on_c, 3, 53, 86
5, 26780, Note_off_c, 3, 53, 64
5, 26784, Note_on_c, 3, 57, 86
5, 26876, Note_off_c, 3, 57, 64
5, 26880, Note_on_c, 3, 53, 86
5, 26972, Note_off_c, 3, 53, 64
5, 26976, Note_on_c, 3, 57, 86
5, 27068, Note_off_c, 3, 57, 64
5, 27072, Note_on_c, 3, 53, 86
5, 27164, Note_off_c, 3, 53, 64
5, 27168, Note_on_c, 3, 57, 86
5, 27260, Note_off_c, 3, 57, 64
5, 27264, Note_on_c, 3, 53, 86
5, 27356, Note_off_c, 3, 53, 64
5, 27360, Note_on_c, 3, 57, 86
5, 27452, Note_off_c, 3, 57, 64
5, 27456, Note_on_c, 3, 53, 86
5, 27548, Note_off_c, 3, 53, 64
5, 27552, Note_on_c, 3, 57, 86
5, 27644, Note_off_c, 3, 57, 64
5, 27648, Note_on_c, 3, 53, 86
5, 27648, Note_on_c, 3, 50, 86
5, 27740, Note_off_c, 3, 53, 64
5, 27740, Note_off_c, 3, 50, 64
5, 27744, Note_on_c, 3, 57, 86
5, 27836, Note_off_c, 3, 57, 64
5, 27840, Note_on_c, 3, 53, 86
5, 27840, Note_on_c, 3, 50, 86
5, 27932, Note_off_c, 3, 53, 64
5, 27932, Note_off_c, 3, 50, 64
5, 27936, Note_on_c, 3, 57, 86
5, 28028, Note_off_c, 3, 57, 64
5, 28032, Note_on_c, 3, 53, 86
5, 28032, Note_on_c, 3, 50, 86
5, 28124, Note_off_c, 3, 53, 64
5, 28124, Note_off_c, 3, 50, 64
5, 28128, Note_on_c, 3, 57, 86
5, 28220, Note_off_c, 3, 57, 64
5, 28224, Note_on_c, 3, 53, 86
5, 28224, Note_on_c, 3, 50, 86
5, 28316, Note_off_c, 3, 53, 64
5, 28316, Note_off_c, 3, 50, 64
5, 28320, Note_on_c, 3, 57, 86
5, 28412, Note_off_c, 3, 57, 64
5, 28416, Note_on_c, 3, 53, 86
5, 28416, Note_on_c, 3, 50, 86
5, 28508, Note_off_c, 3, 53, 64
5, 28508, Note_off_c, 3, 50, 64
5, 28512, Note_on_c, 3, 57, 86
5, 28604, Note_off_c, 3, 57, 64
5, 28608, Note_on_c, 3, 53, 86
5, 28608, Note_on_c, 3, 50, 86
5, 28700, Note_off_c, 3, 53, 64
5, 28700, Note_off_c, 3, 50, 64
5, 28704, Note_on_c, 3, 57, 86
5, 28796, Note_off_c, 3, 57, 64
5, 28800, Note_on_c, 3, 45, 88
5, 28888, Note_off_c, 3, 45, 64
5, 28896, Note_on_c, 3, 47, 87
5, 28984, Note_off_c, 3, 47, 64
5, 28992, Note_on_c, 3, 49, 86
5, 29080, Note_off_c, 3, 49, 64
5, 29088, Note_on_c, 3, 50, 86
5, 29176, Note_off_c, 3, 50, 64
5, 29184, Note_on_c, 3, 52, 86
5, 29564, Note_off_c, 3, 52, 64
5, 29568, Note_on_c, 3, 49, 86
5, 29948, Note_off_c, 3, 49, 64
5, 29952, Note_on_c, 3, 43, 87
5, 30332, Note_off_c, 3, 43, 64
5, 30336, Note_on_c, 3, 40, 89
5, 30716, Note_off_c, 3, 40, 64
5, 30720, Note_on_c, 3, 38, 91
5, 31100, Note_off_c, 3, 38, 64
5, 31104, Note_on_c, 3, 53, 86
5, 31104, Note_on_c, 3, 50, 86
5, 31196, Note_off_c, 3, 53, 64
5, 31196, Note_off_c, 3, 50, 64
5, 31200, Note_on_c, 3, 58, 86
5, 31292, Note_off_c, 3, 58, 64
5, 31296, Note_on_c, 3, 53, 86
5, 31296, Note_on_c, 3, 50, 86
5, 31388, Note_off_c, 3, 53, 64
5, 31388, Note_off_c, 3, 50, 64
5, 31392, Note_on_c, 3, 58, 86
5, 31484, Note_off_c, 3, 58, 64
5, 31488, Note_on_c, 3, 53, 86
5, 31488, Note_on_c, 3, 50, 86
5, 31580, Note_off_c, 3, 53, 64
5, 31580, Note_off_c, 3, 50, 64
5, 31584, Note_on_c, 3, 58, 86
5, 31676, Note_off_c, 3, 58, 64
5, 31680, Note_on_c, 3, 53, 86
5, 31680, Note_on_c, 3, 50, 86
5, 31772, Note_off_c, 3, 53, 64
5, 31772, Note_off_c, 3, 50, 64
5, 31776, Note_on_c, 3, 58, 86
5, 31868, Note_off_c, 3, 58, 64
5, 32064, Note_on_c, 3, 53, 89
5, 32120, Note_off_c, 3, 53, 64
5, 32128, Note_on_c, 3, 52, 87
5, 32184, Note_off_c, 3, 52, 64
5, 32192, Note_on_c, 3, 50, 86
5, 32248, Note_off_c, 3, 50, 64
5, 32256, Note_on_c, 3, 52, 86
5, 32256, Note_on_c, 3, 49, 86
5, 32828, Note_off_c, 3, 52, 64
5, 32828, Note_off_c, 3, 49, 64
5, 32832, Note_on_c, 3, 53, 86
5, 32832, Note_on_c, 3, 50, 86
5, 33020, Note_off_c, 3, 53, 64
5, 33020, Note_off_c, 3, 50, 64
5, 33024, Note_on_c, 3, 52, 86
5, 33024, Note_on_c, 3, 49, 86
5, 33212, Note_off_c, 3, 52, 64
5, 33212, Note_off_c, 3, 49, 64
5, 33216, Note_on_c, 3, 53, 86
5, 33216, Note_on_c, 3, 50, 86
5, 33404, Note_off_c, 3, 53, 64
5, 33404, Note_off_c, 3, 50, 64
5, 33408, Note_on_c, 3, 52, 86
5, 33408, Note_on_c, 3, 49, 86
5, 33596, Note_off_c, 3, 52, 64
5, 33596, Note_off_c, 3, 49, 64
5, 33600, Note_on_c, 3, 53, 86
5, 33600, Note_on_c, 3, 50, 86
5, 33788, Note_off_c, 3, 53, 64
5, 33788, Note_off_c, 3, 50, 64
5, 33792, Note_on_c, 3, 52, 86
5, 33792, Note_on_c, 3, 49, 86
5, 34364, Note_off_c, 3, 52, 64
5, 34364, Note_off_c, 3, 49, 64
5, 34368, Note_on_c, 3, 53, 86
5, 34368, Note_on_c, 3, 50, 86
5, 34556, Note_off_c, 3, 53, 64
5, 34556, Note_off_c, 3, 50, 64
5, 34560, Note_on_c, 3, 52, 86
5, 34560, Note_on_c, 3, 49, 86
5, 34748, Note_off_c, 3, 52, 64
5, 34748, Note_off_c, 3, 49, 64
5, 34752, Note_on_c, 3, 53, 86
5, 34752, Note_on_c, 3, 50, 86
5, 34940, Note_off_c, 3, 53, 64
5, 34940, Note_off_c, 3, 50, 64
5, 34944, Note_on_c, 3, 52, 86
5, 34944, Note_on_c, 3, 49, 86
5, 35132, Note_off_c, 3, 52, 64
5, 35132, Note_off_c, 3, 49, 64
5, 35136, Note_on_c, 3, 53, 86
5, 35136, Note_on_c, 3, 50, 86
5, 35324, Note_off_c, 3, 53, 64
5, 35324, Note_off_c, 3, 50, 64
5, 35328, Note_on_c, 3, 52, 86
5, 35328, Note_on_c, 3, 49, 86
5, 35708, Note_off_c, 3, 52, 64
5, 35708, Note_off_c, 3, 49, 64
5, 38400, Note_on_c, 3, 49, 66
5, 38400, Note_on_c, 3, 43, 70
5, 38400, Note_on_c, 3, 52, 66
5, 38492, Note_off_c, 3, 52, 64
5, 38588, Note_off_c, 3, 49, 64
5, 38588, Note_off_c, 3, 43, 64
5, 38592, Note_on_c, 3, 55, 66
5, 38684, Note_off_c, 3, 55, 64
5, 38784, Note_on_c, 3, 46, 70
5, 38784, Note_on_c, 3, 52, 66
5, 38876, Note_off_c, 3, 52, 64
5, 38972, Note_off_c, 3, 46, 64
5, 38976, Note_on_c, 3, 55, 66
5, 39068, Note_off_c, 3, 55, 64
5, 39168, Note_on_c, 3, 49, 70
5, 39168, Note_on_c, 3, 52, 66
5, 39260, Note_off_c, 3, 52, 64
5, 39356, Note_off_c, 3, 49, 64
5, 39360, Note_on_c, 3, 55, 66
5, 39452, Note_off_c, 3, 55, 64
5, 39552, Note_on_c, 3, 52, 70
5, 39552, Note_on_c, 3, 52, 66
5, 39644, Note_off_c, 3, 52, 64
5, 39740, Note_off_c, 3, 52, 64
5, 39744, Note_on_c, 3, 55, 66
5, 39836, Note_off_c, 3, 55, 64
5, 39936, Note_on_c, 3, 41, 71
5, 39936, Note_on_c, 3, 50, 66
5, 40028, Note_off_c, 3, 50, 64
5, 40124, Note_off_c, 3, 41, 64
5, 40128, Note_on_c, 3, 53, 66
5, 40220, Note_off_c, 3, 53, 64
5, 40320, Note_on_c, 3, 45, 70
5, 40320, Note_on_c, 3, 50, 66
5, 40412, Note_off_c, 3, 50, 64
5, 40508, Note_off_c, 3, 45, 64
5, 40512, Note_on_c, 3, 53, 66
5, 40604, Note_off_c, 3, 53, 64
5, 40704, Note_on_c, 3, 50, 70
5, 40704, Note_on_c, 3, 53, 66
5, 40796, Note_off_c, 3, 53, 64
5, 40892, Note_off_c, 3, 50, 64
5, 40896, Note_on_c, 3, 57, 66
5, 40988, Note_off_c, 3, 57, 64
5, 41088, Note_on_c, 3, 53, 70
5, 41088, Note_on_c, 3, 53, 66
5, 41180, Note_off_c, 3, 53, 64
5, 41276, Note_off_c, 3, 53, 64
5, 41280, Note_on_c, 3, 57, 66
5, 41372, Note_off_c, 3, 57, 64
5, 41472, Note_on_c, 3, 49, 66
5, 41660, Note_off_c, 3, 49, 64
5, 41664, Note_on_c, 3, 57, 66
5, 41664, Note_on_c, 3, 64, 66
5, 41756, Note_off_c, 3, 57, 64
5, 41756, Note_off_c, 3, 64, 64
5, 41856, Note_on_c, 3, 64, 66
5, 41856, Note_on_c, 3, 67, 66
5, 41948, Note_off_c, 3, 64, 64
5, 41948, Note_off_c, 3, 67, 64
5, 42048, Note_on_c, 3, 57, 66
5, 42048, Note_on_c, 3, 64, 66
5, 42140, Note_off_c, 3, 57, 64
5, 42140, Note_off_c, 3, 64, 64
5, 42240, Note_on_c, 3, 50, 66
5, 42428, Note_off_c, 3, 50, 64
5, 42432, Note_on_c, 3, 57, 66
5, 42432, Note_on_c, 3, 62, 66
5, 42524, Note_off_c, 3, 57, 64
5, 42524, Note_off_c, 3, 62, 64
5, 42624, Note_on_c, 3, 62, 66
5, 42624, Note_on_c, 3, 65, 66
5, 42716, Note_off_c, 3, 62, 64
5, 42716, Note_off_c, 3, 65, 64
5, 42816, Note_on_c, 3, 57, 66
5, 42816, Note_on_c, 3, 62, 66
5, 42908, Note_off_c, 3, 57, 64
5, 42908, Note_off_c, 3, 62, 64
5, 43008, Note_on_c, 3, 57, 82
5, 43008, Note_on_c, 3, 45, 84
5, 43196, Note_off_c, 3, 57, 64
5, 43196, Note_off_c, 3, 45, 64
5, 43200, Note_on_c, 3, 56, 82
5, 43200, Note_on_c, 3, 44, 85
5, 43388, Note_off_c, 3, 56, 64
5, 43388, Note_off_c, 3, 44, 64
5, 43392, Note_on_c, 3, 57, 82
5, 43392, Note_on_c, 3, 45, 84
5, 43580, Note_off_c, 3, 57, 64
5, 43580, Note_off_c, 3, 45, 64
5, 43584, Note_on_c, 3, 58, 82
5, 43584, Note_on_c, 3, 46, 82
5, 43772, Note_off_c, 3, 58, 64
5, 43772, Note_off_c, 3, 46, 64
5, 43776, Note_on_c, 3, 57, 82
5, 43776, Note_on_c, 3, 45, 84
5, 43964, Note_off_c, 3, 57, 64
5, 43964, Note_off_c, 3, 45, 64
5, 43968, Note_on_c, 3, 55, 82
5, 43968, Note_on_c, 3, 43, 82
5, 44156, Note_off_c, 3, 55, 64
5, 44156, Note_off_c, 3, 43, 64
5, 44160, Note_on_c, 3, 53, 82
5, 44160, Note_on_c, 3, 41, 84
5, 44348, Note_off_c, 3, 53, 64
5, 44348, Note_off_c, 3, 41, 64
5, 44352, Note_on_c, 3, 52, 82
5, 44352, Note_on_c, 3, 40, 86
5, 44540, Note_off_c, 3, 52, 64
5, 44540, Note_off_c, 3, 40, 64
5, 44544, Note_on_c, 3, 50, 82
5, 44544, Note_on_c, 3, 38, 86
5, 44732, Note_off_c, 3, 50, 64
5, 44732, Note_off_c, 3, 38, 64
5, 44736, Note_on_c, 3, 49, 82
5, 44736, Note_on_c, 3, 37, 87
5, 44924, Note_off_c, 3, 49, 64
5, 44924, Note_off_c, 3, 37, 64
5, 44928, Note_on_c, 3, 50, 82
5, 44928, Note_on_c, 3, 38, 86
5, 45116, Note_off_c, 3, 50, 64
5, 45116, Note_off_c, 3, 38, 64
5, 45120, Note_on_c, 3, 52, 82
5, 45120, Note_on_c, 3, 40, 86
5, 45308, Note_off_c, 3, 52, 64
5, 45308, Note_off_c, 3, 40, 64
5, 45312, Note_on_c, 3, 53, 82
5, 45312, Note_on_c, 3, 41, 85
5, 45500, Note_off_c, 3, 53, 64
5, 45500, Note_off_c, 3, 41, 64
5, 45504, Note_on_c, 3, 52, 82
5, 45504, Note_on_c, 3, 40, 86
5, 45692, Note_off_c, 3, 52, 64
5, 45692, Note_off_c, 3, 40, 64
5, 45696, Note_on_c, 3, 53, 82
5, 45696, Note_on_c, 3, 41, 85
5, 45884, Note_off_c, 3, 53, 64
5, 45884, Note_off_c, 3, 41, 64
5, 45888, Note_on_c, 3, 55, 82
5, 45888, Note_on_c, 3, 45, 84
5, 46076, Note_off_c, 3, 55, 64
5, 46076, Note_off_c, 3, 45, 64
5, 46080, Note_on_c, 3, 57, 82
5, 46080, Note_on_c, 3, 45, 84
5, 46268, Note_off_c, 3, 57, 64
5, 46268, Note_off_c, 3, 45, 64
5, 46272, Note_on_c, 3, 56, 82
5, 46272, Note_on_c, 3, 44, 85
5, 46460, Note_off_c, 3, 56, 64
5, 46460, Note_off_c, 3, 44, 64
5, 46464, Note_on_c, 3, 57, 82
5, 46464, Note_on_c, 3, 45, 84
5, 46652, Note_off_c, 3, 57, 64
5, 46652, Note_off_c, 3, 45, 64
5, 46656, Note_on_c, 3, 58, 82
5, 46656, Note_on_c, 3, 46, 82
5, 46844, Note_off_c, 3, 58, 64
5, 46844, Note_off_c, 3, 46, 64
5, 46848, Note_on_c, 3, 57, 82
5, 46848, Note_on_c, 3, 45, 84
5, 47036, Note_off_c, 3, 57, 64
5, 47036, Note_off_c, 3, 45, 64
5, 47040, Note_on_c, 3, 55, 82
5, 47040, Note_on_c, 3, 43, 85
5, 47228, Note_off_c, 3, 55, 64
5, 47228, Note_off_c, 3, 43, 64
5, 47232, Note_on_c, 3, 53, 82
5, 47232, Note_on_c, 3, 41, 86
5, 47420, Note_off_c, 3, 53, 64
5, 47420, Note_off_c, 3, 41, 64
5, 47424, Note_on_c, 3, 52, 82
5, 47424, Note_on_c, 3, 40, 86
5, 47612, Note_off_c, 3, 52, 64
5, 47612, Note_off_c, 3, 40, 64
5, 47616, Note_on_c, 3, 50, 82
5, 47616, Note_on_c, 3, 38, 87
5, 47804, Note_off_c, 3, 50, 64
5, 47804, Note_off_c, 3, 38, 64
5, 47808, Note_on_c, 3, 49, 82
5, 47808, Note_on_c, 3, 37, 88
5, 47996, Note_off_c, 3, 49, 64
5, 47996, Note_off_c, 3, 37, 64
5, 48000, Note_on_c, 3, 50, 82
5, 48000, Note_on_c, 3, 38, 87
5, 48188, Note_off_c, 3, 50, 64
5, 48188, Note_off_c, 3, 38, 64
5, 48192, Note_on_c, 3, 52, 82
5, 48192, Note_on_c, 3, 40, 86
5, 48380, Note_off_c, 3, 52, 64
5, 48380, Note_off_c, 3, 40, 64
5, 48384, Note_on_c, 3, 53, 82
5, 48384, Note_on_c, 3, 41, 86
5, 48572, Note_off_c, 3, 53, 64
5, 48572, Note_off_c, 3, 41, 64
5, 48576, Note_on_c, 3, 52, 82
5, 48576, Note_on_c, 3, 40, 86
5, 48764, Note_off_c, 3, 52, 64
5, 48764, Note_off_c, 3, 40, 64
5, 48768, Note_on_c, 3, 53, 82
5, 48768, Note_on_c, 3, 41, 86
5, 48956, Note_off_c, 3, 53, 64
5, 48956, Note_off_c, 3, 41, 64
5, 48960, Note_on_c, 3, 55, 82
5, 48960, Note_on_c, 3, 43, 86
5, 49148, Note_off_c, 3, 55, 64
5, 49148, Note_off_c, 3, 43, 64
5, 49152, Note_on_c, 3, 57, 82
5, 49152, Note_on_c, 3, 45, 84
5, 49532, Note_off_c, 3, 57, 64
5, 49532, Note_off_c, 3, 45, 64
5, 50688, Note_on_c, 3, 65, 66
5, 50688, Note_on_c, 3, 57, 66
5, 50688, Note_on_c, 3, 53, 66
5, 51452, Note_off_c, 3, 65, 64
5, 51452, Note_off_c, 3, 57, 64
5, 51452, Note_off_c, 3, 53, 64
5, 51456, Note_on_c, 3, 64, 66
5, 51456, Note_on_c, 3, 58, 66
5, 51456, Note_on_c, 3, 55, 66
5, 52220, Note_off_c, 3, 64, 64
5, 52220, Note_off_c, 3, 58, 64
5, 52220, Note_off_c, 3, 55, 64
5, 52224, Note_on_c, 3, 65, 66
5, 52224, Note_on_c, 3, 60, 66
5, 52224, Note_on_c, 3, 57, 66
5, 52604, Note_off_c, 3, 65, 64
5, 52604, Note_off_c, 3, 60, 64
5, 52604, Note_off_c, 3, 57, 64
5, 53760, Note_on_c, 3, 64, 66
5, 53760, Note_on_c, 3, 58, 66
5, 53760, Note_on_c, 3, 55, 66
5, 54524, Note_off_c, 3, 64, 64
5, 54524, Note_off_c, 3, 58, 64
5, 54524, Note_off_c, 3, 55, 64
5, 54528, Note_on_c, 3, 66, 66
5, 54528, Note_on_c, 3, 60, 66
5, 54528, Note_on_c, 3, 57, 66
5, 55292, Note_off_c, 3, 66, 64
5, 55292, Note_off_c, 3, 60, 64
5, 55292, Note_off_c, 3, 57, 64
5, 55296, Note_on_c, 3, 67, 66
5, 55296, Note_on_c, 3, 62, 66
5, 55296, Note_on_c, 3, 58, 66
5, 55676, Note_off_c, 3, 67, 64
5, 55676, Note_off_c, 3, 62, 64
5, 55676, Note_off_c, 3, 58, 64
5, 56832, Note_on_c, 3, 69, 66
5, 56832, Note_on_c, 3, 60, 66
5, 56832, Note_on_c, 3, 57, 66
5, 57596, Note_off_c, 3, 69, 64
5, 57596, Note_off_c, 3, 60, 64
5, 57596, Note_off_c, 3, 57, 64
5, 57600, Note_on_c, 3, 68, 66
5, 57600, Note_on_c, 3, 62, 66
5, 57600, Note_on_c, 3, 59, 66
5, 58364, Note_off_c, 3, 68, 64
5, 58364, Note_off_c, 3, 62, 64
5, 58364, Note_off_c, 3, 59, 64
5, 58368, Note_on_c, 3, 69, 66
5, 58368, Note_on_c, 3, 64, 66
5, 58368, Note_on_c, 3, 60, 66
5, 58748, Note_off_c, 3, 69, 64
5, 58748, Note_off_c, 3, 64, 64
5, 58748, Note_off_c, 3, 60, 64
5, 59904, Note_on_c, 3, 62, 66
5, 59904, Note_on_c, 3, 53, 66
5, 59904, Note_on_c, 3, 50, 66
5, 60284, Note_off_c, 3, 62, 64
5, 60284, Note_off_c, 3, 53, 64
5, 60284, Note_off_c, 3, 50, 64
5, 60672, Note_on_c, 3, 55, 66
5, 60672, Note_on_c, 3, 52, 66
5, 60672, Note_on_c, 3, 64, 66
5, 61052, Note_off_c, 3, 55, 64
5, 61052, Note_off_c, 3, 52, 64
5, 61052, Note_off_c, 3, 64, 64
5, 61440, Note_on_c, 3, 65, 66
5, 61440, Note_on_c, 3, 60, 66
5, 61440, Note_on_c, 3, 53, 66
5, 61820, Note_off_c, 3, 65, 64
5, 61820, Note_off_c, 3, 60, 64
5, 61820, Note_off_c, 3, 53, 64
5, 62208, Note_on_c, 3, 62, 66
5, 62208, Note_on_c, 3, 53, 66
5, 62208, Note_on_c, 3, 50, 66
5, 62588, Note_off_c, 3, 62, 64
5, 62588, Note_off_c, 3, 53, 64
5, 62588, Note_off_c, 3, 50, 64
5, 62976, Note_on_c, 3, 59, 66
5, 62976, Note_on_c, 3, 50, 66
5, 62976, Note_on_c, 3, 47, 66
5, 63356, Note_off_c, 3, 59, 64
5, 63356, Note_off_c, 3, 50, 64
5, 63356, Note_off_c, 3, 47, 64
5, 63744, Note_on_c, 3, 61, 66
5, 63744, Note_on_c, 3, 52, 66
5, 63744, Note_on_c, 3, 49, 66
5, 63932, Note_off_c, 3, 61, 64
5, 63932, Note_off_c, 3, 52, 64
5, 63932, Note_off_c, 3, 49, 64
5, 64512, Note_on_c, 3, 62, 66
5, 64512, Note_on_c, 3, 57, 66
5, 64512, Note_on_c, 3, 50, 66
5, 64892, Note_off_c, 3, 62, 64
5, 64892, Note_off_c, 3, 57, 64
5, 64892, Note_off_c, 3, 50, 64
5, 65280, Note_on_c, 3, 58, 66
5, 65280, Note_on_c, 3, 46, 66
5, 65660, Note_off_c, 3, 58, 64
5, 65660, Note_off_c, 3, 46, 64
5, 66048, Note_on_c, 3, 55, 66
5, 66048, Note_on_c, 3, 43, 73
5, 66428, Note_off_c, 3, 55, 64
5, 66428, Note_off_c, 3, 43, 64
5, 66816, Note_on_c, 3, 45, 66
5, 66816, Note_on_c, 3, 57, 72
5, 67196, Note_off_c, 3, 45, 64
5, 67196, Note_off_c, 3, 57, 64
5, 67584, Note_on_c, 3, 50, 83
5, 67584, Note_on_c, 3, 38, 87
5, 68148, Note_off_c, 3, 50, 64
5, 68148, Note_off_c, 3, 38, 64
5, 68156, Note_on_c, 3, 53, 83
5, 68156, Note_on_c, 3, 41, 86
5, 68248, Note_off_c, 3, 53, 67
5, 68248, Note_off_c, 3, 41, 64
5, 68352, Note_on_c, 3, 55, 83
5, 68352, Note_on_c, 3, 43, 85
5, 68444, Note_off_c, 3, 55, 64
5, 68444, Note_off_c, 3, 43, 64
5, 68544, Note_on_c, 3, 41, 83
5, 68544, Note_on_c, 3, 53, 86
5, 68636, Note_off_c, 3, 41, 64
5, 68636, Note_off_c, 3, 53, 64
5, 68736, Note_on_c, 3, 55, 83
5, 68736, Note_on_c, 3, 43, 85
5, 68828, Note_off_c, 3, 55, 64
5, 68828, Note_off_c, 3, 43, 64
5, 68928, Note_on_c, 3, 57, 83
5, 68928, Note_on_c, 3, 45, 85
5, 69020, Note_off_c, 3, 57, 64
5, 69020, Note_off_c, 3, 45, 64
5, 69120, Note_on_c, 3, 58, 95
5, 69120, Note_on_c, 3, 46, 95
5, 69212, Note_off_c, 3, 58, 64
5, 69212, Note_off_c, 3, 46, 64
5, 69312, Note_on_c, 3, 57, 83
5, 69312, Note_on_c, 3, 45, 84
5, 69404, Note_off_c, 3, 57, 64
5, 69404, Note_off_c, 3, 45, 64
5, 69504, Note_on_c, 3, 58, 83
5, 69504, Note_on_c, 3, 46, 82
5, 69596, Note_off_c, 3, 58, 64
5, 69596, Note_off_c, 3, 46, 64
5, 69696, Note_on_c, 3, 56, 83
5, 69696, Note_on_c, 3, 44, 85
5, 69788, Note_off_c, 3, 56, 64
5, 69788, Note_off_c, 3, 44, 64
5, 69888, Note_on_c, 3, 57, 83
5, 69888, Note_on_c, 3, 45, 84
5, 69980, Note_off_c, 3, 57, 64
5, 69980, Note_off_c, 3, 45, 64
5, 70080, Note_on_c, 3, 56, 83
5, 70080, Note_on_c, 3, 44, 85
5, 70172, Note_off_c, 3, 56, 64
5, 70172, Note_off_c, 3, 44, 64
5, 70272, Note_on_c, 3, 57, 83
5, 70272, Note_on_c, 3, 45, 84
5, 70364, Note_off_c, 3, 57, 64
5, 70364, Note_off_c, 3, 45, 64
5, 70464, Note_on_c, 3, 47, 83
5, 70464, Note_on_c, 3, 59, 82
5, 70556, Note_off_c, 3, 47, 64
5, 70556, Note_off_c, 3, 59, 64
5, 70656, Note_on_c, 3, 60, 95
5, 70656, Note_on_c, 3, 48, 95
5, 70748, Note_off_c, 3, 60, 64
5, 70748, Note_off_c, 3, 48, 64
5, 70848, Note_on_c, 3, 59, 82
5, 70848, Note_on_c, 3, 47, 82
5, 70940, Note_off_c, 3, 59, 64
5, 70940, Note_off_c, 3, 47, 64
5, 71040, Note_on_c, 3, 60, 82
5, 71040, Note_on_c, 3, 48, 82
5, 71132, Note_off_c, 3, 60, 64
5, 71132, Note_off_c, 3, 48, 64
5, 71232, Note_on_c, 3, 57, 82
5, 71232, Note_on_c, 3, 45, 84
5, 71324, Note_off_c, 3, 57, 64
5, 71324, Note_off_c, 3, 45, 64
5, 71424, Note_on_c, 3, 58, 82
5, 71424, Note_on_c, 3, 46, 82
5, 71516, Note_off_c, 3, 58, 64
5, 71516, Note_off_c, 3, 46, 64
5, 71616, Note_on_c, 3, 57, 82
5, 71616, Note_on_c, 3, 45, 84
5, 71708, Note_off_c, 3, 57, 64
5, 71708, Note_off_c, 3, 45, 64
5, 71808, Note_on_c, 3, 58, 82
5, 71808, Note_on_c, 3, 46, 82
5, 71900, Note_off_c, 3, 58, 64
5, 71900, Note_off_c, 3, 46, 64
5, 72000, Note_on_c, 3, 42, 82
5, 72000, Note_on_c, 3, 54, 86
5, 72092, Note_off_c, 3, 42, 64
5, 72092, Note_off_c, 3, 54, 64
5, 72192, Note_on_c, 3, 55, 82
5, 72192, Note_on_c, 3, 43, 85
5, 72380, Note_off_c, 3, 55, 64
5, 72380, Note_off_c, 3, 43, 64
5, 72384, Note_on_c, 3, 43, 85
5, 72384, Note_on_c, 3, 31, 92
5, 72572, Note_off_c, 3, 43, 64
5, 72572, Note_off_c, 3, 31, 64
5, 72576, Note_on_c, 3, 55, 82
5, 72576, Note_on_c, 3, 43, 85
5, 72764, Note_off_c, 3, 55, 64
5, 72764, Note_off_c, 3, 43, 64
5, 72768, Note_on_c, 3, 53, 82
5, 72768, Note_on_c, 3, 41, 86
5, 72956, Note_off_c, 3, 53, 64
5, 72956, Note_off_c, 3, 41, 64
5, 72960, Note_on_c, 3, 52, 82
5, 72960, Note_on_c, 3, 40, 87
5, 73148, Note_off_c, 3, 52, 64
5, 73148, Note_off_c, 3, 40, 64
5, 73152, Note_on_c, 3, 45, 84
5, 73152, Note_on_c, 3, 33, 91
5, 73340, Note_off_c, 3, 45, 64
5, 73340, Note_off_c, 3, 33, 64
5, 73344, Note_on_c, 3, 57, 82
5, 73344, Note_on_c, 3, 45, 84
5, 73532, Note_off_c, 3, 57, 64
5, 73532, Note_off_c, 3, 45, 64
5, 73536, Note_on_c, 3, 55, 82
5, 73536, Note_on_c, 3, 43, 85
5, 73724, Note_off_c, 3, 55, 64
5, 73724, Note_off_c, 3, 43, 64
5, 73728, Note_on_c, 3, 53, 82
5, 73728, Note_on_c, 3, 50, 82
5, 73728, Note_on_c, 3, 45, 84
5, 73728, Note_on_c, 3, 41, 86
5, 73916, Note_off_c, 3, 53, 64
5, 73916, Note_off_c, 3, 50, 64
5, 73916, Note_off_c, 3, 45, 64
5, 73916, Note_off_c, 3, 41, 64
5, 73920, Note_on_c, 3, 53, 82
5, 73920, Note_on_c, 3, 41, 86
5, 74108, Note_off_c, 3, 53, 64
5, 74108, Note_off_c, 3, 41, 64
5, 74112, Note_on_c, 3, 53, 82
5, 74112, Note_on_c, 3, 41, 86
5, 74300, Note_off_c, 3, 53, 64
5, 74300, Note_off_c, 3, 41, 64
5, 74304, Note_on_c, 3, 53, 82
5, 74304, Note_on_c, 3, 41, 86
5, 74492, Note_off_c, 3, 53, 64
5, 74492, Note_off_c, 3, 41, 64
5, 74496, Note_on_c, 3, 53, 82
5, 74496, Note_on_c, 3, 41, 86
5, 74684, Note_off_c, 3, 53, 64
5, 74684, Note_off_c, 3, 41, 64
5, 74688, Note_on_c, 3, 53, 82
5, 74688, Note_on_c, 3, 41, 86
5, 74876, Note_off_c, 3, 53, 64
5, 74876, Note_off_c, 3, 41, 64
5, 74880, Note_on_c, 3, 53, 82
5, 74880, Note_on_c, 3, 41, 86
5, 75068, Note_off_c, 3, 53, 64
5, 75068, Note_off_c, 3, 41, 64
5, 75072, Note_on_c, 3, 53, 82
5, 75072, Note_on_c, 3, 41, 86
5, 75260, Note_off_c, 3, 53, 64
5, 75260, Note_off_c, 3, 41, 64
5, 75264, Note_on_c, 3, 43, 85
5, 75644, Note_off_c, 3, 43, 64
5, 75648, Note_on_c, 3, 70, 82
5, 75648, Note_on_c, 3, 58, 82
5, 75836, Note_off_c, 3, 70, 64
5, 75836, Note_off_c, 3, 58, 64
5, 76032, Note_on_c, 3, 67, 82
5, 76032, Note_on_c, 3, 55, 82
5, 76220, Note_off_c, 3, 67, 64
5, 76220, Note_off_c, 3, 55, 64
5, 76416, Note_on_c, 3, 63, 82
5, 76416, Note_on_c, 3, 51, 82
5, 76604, Note_off_c, 3, 63, 64
5, 76604, Note_off_c, 3, 51, 64
5, 76800, Note_on_c, 3, 57, 82
5, 76800, Note_on_c, 3, 49, 82
5, 76800, Note_on_c, 3, 45, 82
5, 76988, Note_off_c, 3, 57, 64
5, 76988, Note_off_c, 3, 49, 64
5, 76988, Note_off_c, 3, 45, 64
5, 76992, Note_on_c, 3, 57, 82
5, 76992, Note_on_c, 3, 45, 82
5, 77180, Note_off_c, 3, 57, 64
5, 77180, Note_off_c, 3, 45, 64
5, 77184, Note_on_c, 3, 57, 82
5, 77184, Note_on_c, 3, 45, 82
5, 77372, Note_off_c, 3, 57, 64
5, 77372, Note_off_c, 3, 45, 64
5, 77376, Note_on_c, 3, 57, 82
5, 77376, Note_on_c, 3, 45, 82
5, 77564, Note_off_c, 3, 57, 64
5, 77564, Note_off_c, 3, 45, 64
5, 77568, Note_on_c, 3, 57, 82
5, 77568, Note_on_c, 3, 45, 82
5, 77756, Note_off_c, 3, 57, 64
5, 77756, Note_off_c, 3, 45, 64
5, 77760, Note_on_c, 3, 57, 82
5, 77760, Note_on_c, 3, 45, 82
5, 77948, Note_off_c, 3, 57, 64
5, 77948, Note_off_c, 3, 45, 64
5, 77952, Note_on_c, 3, 57, 82
5, 77952, Note_on_c, 3, 45, 82
5, 78140, Note_off_c, 3, 57, 64
5, 78140, Note_off_c, 3, 45, 64
5, 78144, Note_on_c, 3, 57, 82
5, 78144, Note_on_c, 3, 45, 82
5, 78332, Note_off_c, 3, 57, 64
5, 78332, Note_off_c, 3, 45, 64
5, 78336, Note_on_c, 3, 58, 82
5, 78336, Note_on_c, 3, 46, 82
5, 78716, Note_off_c, 3, 58, 64
5, 78716, Note_off_c, 3, 46, 64
5, 78720, Note_on_c, 3, 62, 82
5, 79100, Note_off_c, 3, 62, 64
5, 79104, Note_on_c, 3, 55, 66
5, 79104, Note_on_c, 3, 58, 66
5, 79104, Note_on_c, 3, 64, 66
5, 79484, Note_off_c, 3, 58, 64
5, 79488, Note_on_c, 3, 43, 86
5, 79868, Note_off_c, 3, 55, 64
5, 79868, Note_off_c, 3, 64, 64
5, 79868, Note_off_c, 3, 43, 64
5, 79872, Note_on_c, 3, 57, 66
5, 79872, Note_on_c, 3, 53, 66
5, 79872, Note_on_c, 3, 62, 66
5, 80252, Note_off_c, 3, 57, 64
5, 80252, Note_off_c, 3, 53, 64
5, 80256, Note_on_c, 3, 45, 76
5, 80636, Note_off_c, 3, 62, 64
5, 80636, Note_off_c, 3, 45, 64
5, 80640, Note_on_c, 3, 61, 66
5, 80640, Note_on_c, 3, 57, 66
5, 80640, Note_on_c, 3, 52, 66
5, 81020, Note_off_c, 3, 57, 64
5, 81024, Note_on_c, 3, 45, 76
5, 81404, Note_off_c, 3, 61, 64
5, 81404, Note_off_c, 3, 52, 64
5, 81404, Note_off_c, 3, 45, 64
5, 81408, Note_on_c, 3, 53, 86
5, 81408, Note_on_c, 3, 41, 90
5, 81596, Note_off_c, 3, 53, 64
5, 81596, Note_off_c, 3, 41, 64
5, 81600, Note_on_c, 3, 53, 86
5, 81600, Note_on_c, 3, 41, 90
5, 81788, Note_off_c, 3, 53, 64
5, 81788, Note_off_c, 3, 41, 64
5, 81792, Note_on_c, 3, 53, 86
5, 81792, Note_on_c, 3, 41, 90
5, 81980, Note_off_c, 3, 53, 64
5, 81980, Note_off_c, 3, 41, 64
5, 81984, Note_on_c, 3, 53, 86
5, 81984, Note_on_c, 3, 41, 90
5, 82172, Note_off_c, 3, 53, 64
5, 82172, Note_off_c, 3, 41, 64
5, 82176, Note_on_c, 3, 53, 86
5, 82176, Note_on_c, 3, 41, 90
5, 82364, Note_off_c, 3, 53, 64
5, 82364, Note_off_c, 3, 41, 64
5, 82368, Note_on_c, 3, 53, 86
5, 82368, Note_on_c, 3, 41, 90
5, 82556, Note_off_c, 3, 53, 64
5, 82556, Note_off_c, 3, 41, 64
5, 82560, Note_on_c, 3, 53, 86
5, 82560, Note_on_c, 3, 41, 90
5, 82748, Note_off_c, 3, 53, 64
5, 82748, Note_off_c, 3, 41, 64
5, 82752, Note_on_c, 3, 53, 86
5, 82752, Note_on_c, 3, 41, 90
5, 82940, Note_off_c, 3, 53, 64
5, 82940, Note_off_c, 3, 41, 64
5, 82944, Note_on_c, 3, 43, 86
5, 83324, Note_off_c, 3, 43, 64
5, 83328, Note_on_c, 3, 58, 86
5, 83328, Note_on_c, 3, 70, 86
5, 83516, Note_off_c, 3, 58, 64
5, 83516, Note_off_c, 3, 70, 64
5, 83712, Note_on_c, 3, 55, 86
5, 83712, Note_on_c, 3, 67, 86
5, 83900, Note_off_c, 3, 55, 64
5, 83900, Note_off_c, 3, 67, 64
5, 84096, Note_on_c, 3, 51, 86
5, 84096, Note_on_c, 3, 63, 86
5, 84284, Note_off_c, 3, 51, 64
5, 84284, Note_off_c, 3, 63, 64
5, 84480, Note_on_c, 3, 57, 86
5, 84480, Note_on_c, 3, 49, 86
5, 84480, Note_on_c, 3, 45, 88
5, 84668, Note_off_c, 3, 57, 64
5, 84668, Note_off_c, 3, 49, 64
5, 84668, Note_off_c, 3, 45, 64
5, 84672, Note_on_c, 3, 57, 86
5, 84672, Note_on_c, 3, 45, 88
5, 84860, Note_off_c, 3, 57, 64
5, 84860, Note_off_c, 3, 45, 64
5, 84864, Note_on_c, 3, 57, 86
5, 84864, Note_on_c, 3, 45, 88
5, 85052, Note_off_c, 3, 57, 64
5, 85052, Note_off_c, 3, 45, 64
5, 85056, Note_on_c, 3, 57, 86
5, 85056, Note_on_c, 3, 45, 88
5, 85244, Note_off_c, 3, 57, 64
5, 85244, Note_off_c, 3, 45, 64
5, 85248, Note_on_c, 3, 57, 86
5, 85248, Note_on_c, 3, 45, 88
5, 85436, Note_off_c, 3, 57, 64
5, 85436, Note_off_c, 3, 45, 64
5, 85440, Note_on_c, 3, 57, 86
5, 85440, Note_on_c, 3, 45, 88
5, 85628, Note_off_c, 3, 57, 64
5, 85628, Note_off_c, 3, 45, 64
5, 85632, Note_on_c, 3, 57, 86
5, 85632, Note_on_c, 3, 45, 88
5, 85820, Note_off_c, 3, 57, 64
5, 85820, Note_off_c, 3, 45, 64
5, 85824, Note_on_c, 3, 57, 86
5, 85824, Note_on_c, 3, 45, 88
5, 86012, Note_off_c, 3, 57, 64
5, 86012, Note_off_c, 3, 45, 64
5, 86016, Note_on_c, 3, 58, 86
5, 86016, Note_on_c, 3, 46, 86
5, 86396, Note_off_c, 3, 58, 64
5, 86396, Note_off_c, 3, 46, 64
5, 86400, Note_on_c, 3, 62, 86
5, 86780, Note_off_c, 3, 62, 64
5, 86784, Note_on_c, 3, 55, 64
5, 86784, Note_on_c, 3, 58, 64
5, 86784, Note_on_c, 3, 64, 64
5, 87164, Note_off_c, 3, 58, 64
5, 87168, Note_on_c, 3, 43, 68
5, 87548, Note_off_c, 3, 55, 64
5, 87548, Note_off_c, 3, 64, 64
5, 87548, Note_off_c, 3, 43, 64
5, 87552, Note_on_c, 3, 62, 64
5, 87552, Note_on_c, 3, 53, 64
5, 87552, Note_on_c, 3, 57, 64
5, 87932, Note_off_c, 3, 57, 64
5, 87936, Note_on_c, 3, 45, 68
5, 88316, Note_off_c, 3, 62, 64
5, 88316, Note_off_c, 3, 53, 64
5, 88316, Note_off_c, 3, 45, 64
5, 88320, Note_on_c, 3, 61, 64
5, 88320, Note_on_c, 3, 52, 64
5, 88320, Note_on_c, 3, 57, 64
5, 88700, Note_off_c, 3, 57, 64
5, 88704, Note_on_c, 3, 45, 68
5, 89084, Note_off_c, 3, 61, 64
5, 89084, Note_off_c, 3, 52, 64
5, 89084, Note_off_c, 3, 45, 64
5, 89088, Note_on_c, 3, 50, 86
5, 89088, Note_on_c, 3, 38, 91
5, 89468, Note_off_c, 3, 50, 64
5, 89468, Note_off_c, 3, 38, 64
5, 89664, Note_on_c, 3, 50, 86
5, 89664, Note_on_c, 3, 38, 91
5, 89852, Note_off_c, 3, 50, 64
5, 89852, Note_off_c, 3, 38, 64
5, 89856, Note_on_c, 3, 51, 86
5, 89856, Note_on_c, 3, 39, 91
5, 90044, Note_off_c, 3, 51, 64
5, 90044, Note_off_c, 3, 39, 64
5, 90048, Note_on_c, 3, 50, 86
5, 90048, Note_on_c, 3, 38, 92
5, 90236, Note_off_c, 3, 50, 64
5, 90236, Note_off_c, 3, 38, 64
5, 90240, Note_on_c, 3, 52, 86
5, 90240, Note_on_c, 3, 40, 91
5, 90428, Note_off_c, 3, 52, 64
5, 90428, Note_off_c, 3, 40, 64
5, 90432, Note_on_c, 3, 54, 86
5, 90432, Note_on_c, 3, 42, 90
5, 90620, Note_off_c, 3, 54, 64
5, 90620, Note_off_c, 3, 42, 64
5, 90624, Note_on_c, 3, 55, 86
5, 90624, Note_on_c, 3, 43, 89
5, 90812, Note_off_c, 3, 55, 64
5, 90812, Note_off_c, 3, 43, 64
5, 90816, Note_on_c, 3, 54, 86
5, 90816, Note_on_c, 3, 42, 90
5, 91004, Note_off_c, 3, 54, 64
5, 91004, Note_off_c, 3, 42, 64
5, 91008, Note_on_c, 3, 55, 86
5, 91008, Note_on_c, 3, 43, 89
5, 91196, Note_off_c, 3, 55, 64
5, 91196, Note_off_c, 3, 43, 64
5, 91200, Note_on_c, 3, 52, 86
5, 91200, Note_on_c, 3, 40, 91
5, 91388, Note_off_c, 3, 52, 64
5, 91388, Note_off_c, 3, 40, 64
5, 91392, Note_on_c, 3, 53, 86
5, 91392, Note_on_c, 3, 41, 90
5, 91580, Note_off_c, 3, 53, 64
5, 91580, Note_off_c, 3, 41, 64
5, 91584, Note_on_c, 3, 52, 86
5, 91584, Note_on_c, 3, 40, 91
5, 91772, Note_off_c, 3, 52, 64
5, 91772, Note_off_c, 3, 40, 64
5, 91776, Note_on_c, 3, 54, 86
5, 91776, Note_on_c, 3, 42, 90
5, 91964, Note_off_c, 3, 54, 64
5, 91964, Note_off_c, 3, 42, 64
5, 91968, Note_on_c, 3, 56, 86
5, 91968, Note_on_c, 3, 44, 89
5, 92156, Note_off_c, 3, 56, 64
5, 92156, Note_off_c, 3, 44, 64
5, 92160, Note_on_c, 3, 57, 86
5, 92160, Note_on_c, 3, 45, 88
5, 92348, Note_off_c, 3, 57, 64
5, 92348, Note_off_c, 3, 45, 64
5, 92352, Note_on_c, 3, 56, 86
5, 92352, Note_on_c, 3, 44, 89
5, 92540, Note_off_c, 3, 56, 64
5, 92540, Note_off_c, 3, 44, 64
5, 92544, Note_on_c, 3, 57, 86
5, 92544, Note_on_c, 3, 45, 88
5, 92732, Note_off_c, 3, 57, 64
5, 92732, Note_off_c, 3, 45, 64
5, 92736, Note_on_c, 3, 54, 86
5, 92736, Note_on_c, 3, 42, 90
5, 92924, Note_off_c, 3, 54, 64
5, 92924, Note_off_c, 3, 42, 64
5, 92928, Note_on_c, 3, 55, 86
5, 92928, Note_on_c, 3, 43, 89
5, 93116, Note_off_c, 3, 55, 64
5, 93116, Note_off_c, 3, 43, 64
5, 93120, Note_on_c, 3, 54, 86
5, 93120, Note_on_c, 3, 42, 90
5, 93308, Note_off_c, 3, 54, 64
5, 93308, Note_off_c, 3, 42, 64
5, 93312, Note_on_c, 3, 55, 86
5, 93312, Note_on_c, 3, 43, 89
5, 93500, Note_off_c, 3, 55, 64
5, 93500, Note_off_c, 3, 43, 64
5, 93504, Note_on_c, 3, 57, 86
5, 93504, Note_on_c, 3, 45, 88
5, 93692, Note_off_c, 3, 57, 64
5, 93692, Note_off_c, 3, 45, 64
5, 93696, Note_on_c, 3, 58, 86
5, 93696, Note_on_c, 3, 46, 87
5, 94076, Note_off_c, 3, 58, 64
5, 94076, Note_off_c, 3, 46, 64
5, 95232, Note_on_c, 3, 43, 86
5, 95232, Note_on_c, 3, 31, 96
5, 95420, Note_off_c, 3, 43, 64
5, 95420, Note_off_c, 3, 31, 64
5, 95424, Note_on_c, 3, 55, 86
5, 95424, Note_on_c, 3, 43, 89
5, 95612, Note_off_c, 3, 55, 64
5, 95612, Note_off_c, 3, 43, 64
5, 95616, Note_on_c, 3, 55, 86
5, 95616, Note_on_c, 3, 43, 89
5, 95804, Note_off_c, 3, 55, 64
5, 95804, Note_off_c, 3, 43, 64
5, 95808, Note_on_c, 3, 55, 86
5, 95808, Note_on_c, 3, 43, 89
5, 95996, Note_off_c, 3, 55, 64
5, 95996, Note_off_c, 3, 43, 64
5, 96000, Note_on_c, 3, 55, 86
5, 96000, Note_on_c, 3, 43, 89
5, 96188, Note_off_c, 3, 55, 64
5, 96188, Note_off_c, 3, 43, 64
5, 96192, Note_on_c, 3, 55, 86
5, 96192, Note_on_c, 3, 43, 89
5, 96380, Note_off_c, 3, 55, 64
5, 96380, Note_off_c, 3, 43, 64
5, 96384, Note_on_c, 3, 57, 86
5, 96384, Note_on_c, 3, 45, 89
5, 96572, Note_off_c, 3, 57, 64
5, 96572, Note_off_c, 3, 45, 64
5, 96576, Note_on_c, 3, 57, 86
5, 96576, Note_on_c, 3, 45, 89
5, 96764, Note_off_c, 3, 57, 64
5, 96764, Note_off_c, 3, 45, 64
5, 96960, Note_on_c, 3, 47, 87
5, 96960, Note_on_c, 3, 35, 95
5, 97148, Note_off_c, 3, 47, 64
5, 97148, Note_off_c, 3, 35, 64
5, 97152, Note_on_c, 3, 59, 86
5, 97152, Note_on_c, 3, 47, 86
5, 97340, Note_off_c, 3, 59, 64
5, 97340, Note_off_c, 3, 47, 64
5, 97344, Note_on_c, 3, 59, 86
5, 97344, Note_on_c, 3, 47, 86
5, 97532, Note_off_c, 3, 59, 64
5, 97532, Note_off_c, 3, 47, 64
5, 97536, Note_on_c, 3, 59, 86
5, 97536, Note_on_c, 3, 47, 86
5, 97724, Note_off_c, 3, 59, 64
5, 97724, Note_off_c, 3, 47, 64
5, 97728, Note_on_c, 3, 59, 86
5, 97728, Note_on_c, 3, 47, 86
5, 97916, Note_off_c, 3, 59, 64
5, 97916, Note_off_c, 3, 47, 64
5, 97920, Note_on_c, 3, 58, 86
5, 97920, Note_on_c, 3, 46, 86
5, 98108, Note_off_c, 3, 58, 64
5, 98108, Note_off_c, 3, 46, 64
5, 98112, Note_on_c, 3, 58, 86
5, 98112, Note_on_c, 3, 46, 86
5, 98300, Note_off_c, 3, 58, 64
5, 98300, Note_off_c, 3, 46, 64
5, 98304, Note_on_c, 3, 57, 86
5, 98304, Note_on_c, 3, 45, 88
5, 98492, Note_off_c, 3, 57, 64
5, 98492, Note_off_c, 3, 45, 64
5, 98496, Note_on_c, 3, 57, 86
5, 98496, Note_on_c, 3, 45, 88
5, 98684, Note_off_c, 3, 57, 64
5, 98684, Note_off_c, 3, 45, 64
5, 98688, Note_on_c, 3, 57, 86
5, 98688, Note_on_c, 3, 45, 88
5, 98876, Note_off_c, 3, 57, 64
5, 98876, Note_off_c, 3, 45, 64
5, 98880, Note_on_c, 3, 57, 86
5, 98880, Note_on_c, 3, 45, 88
5, 99068, Note_off_c, 3, 57, 64
5, 99068, Note_off_c, 3, 45, 64
5, 99072, Note_on_c, 3, 57, 86
5, 99072, Note_on_c, 3, 45, 88
5, 99260, Note_off_c, 3, 57, 64
5, 99260, Note_off_c, 3, 45, 64
5, 99264, Note_on_c, 3, 57, 86
5, 99264, Note_on_c, 3, 45, 88
5, 99452, Note_off_c, 3, 57, 64
5, 99452, Note_off_c, 3, 45, 64
5, 99456, Note_on_c, 3, 57, 86
5, 99456, Note_on_c, 3, 45, 88
5, 99644, Note_off_c, 3, 57, 64
5, 99644, Note_off_c, 3, 45, 64
5, 99648, Note_on_c, 3, 57, 86
5, 99648, Note_on_c, 3, 45, 88
5, 99836, Note_off_c, 3, 57, 64
5, 99836, Note_off_c, 3, 45, 64
5, 99840, Note_on_c, 3, 41, 87
5, 99856, Note_on_c, 3, 50, 87
5, 99876, Note_on_c, 3, 57, 87
5, 100028, Note_off_c, 3, 41, 64
5, 100044, Note_off_c, 3, 50, 64
5, 100064, Note_off_c, 3, 57, 64
5, 101376, Note_on_c, 3, 43, 89
5, 101376, Note_on_c, 3, 31, 98
5, 101564, Note_off_c, 3, 43, 64
5, 101564, Note_off_c, 3, 31, 64
5, 101568, Note_on_c, 3, 55, 86
5, 101568, Note_on_c, 3, 43, 89
5, 101756, Note_off_c, 3, 55, 64
5, 101756, Note_off_c, 3, 43, 64
5, 101760, Note_on_c, 3, 55, 86
5, 101760, Note_on_c, 3, 43, 89
5, 101948, Note_off_c, 3, 55, 64
5, 101948, Note_off_c, 3, 43, 64
5, 101952, Note_on_c, 3, 55, 86
5, 101952, Note_on_c, 3, 43, 89
5, 102140, Note_off_c, 3, 55, 64
5, 102140, Note_off_c, 3, 43, 64
5, 102144, Note_on_c, 3, 55, 86
5, 102144, Note_on_c, 3, 43, 89
5, 102332, Note_off_c, 3, 55, 64
5, 102332, Note_off_c, 3, 43, 64
5, 102336, Note_on_c, 3, 55, 86
5, 102336, Note_on_c, 3, 43, 89
5, 102524, Note_off_c, 3, 55, 64
5, 102524, Note_off_c, 3, 43, 64
5, 102528, Note_on_c, 3, 57, 86
5, 102528, Note_on_c, 3, 45, 88
5, 102716, Note_off_c, 3, 57, 64
5, 102716, Note_off_c, 3, 45, 64
5, 102720, Note_on_c, 3, 57, 86
5, 102720, Note_on_c, 3, 45, 88
5, 102908, Note_off_c, 3, 57, 64
5, 102908, Note_off_c, 3, 45, 64
5, 102912, Note_on_c, 3, 59, 86
5, 102912, Note_on_c, 3, 50, 86
5, 102912, Note_on_c, 3, 47, 86
5, 103292, Note_off_c, 3, 59, 64
5, 103292, Note_off_c, 3, 50, 64
5, 103292, Note_off_c, 3, 47, 64
5, 103296, Note_on_c, 3, 59, 86
5, 103296, Note_on_c, 3, 47, 86
5, 103296, Note_on_c, 3, 50, 86
5, 103676, Note_off_c, 3, 59, 64
5, 103676, Note_off_c, 3, 47, 64
5, 103676, Note_off_c, 3, 50, 64
5, 104448, Note_on_c, 3, 58, 66
5, 104448, Note_on_c, 3, 62, 66
5, 104636, Note_off_c, 3, 62, 64
5, 104640, Note_on_c, 3, 64, 66
5, 104828, Note_off_c, 3, 58, 64
5, 104828, Note_off_c, 3, 64, 64
5, 104832, Note_on_c, 3, 58, 66
5, 104832, Note_on_c, 3, 62, 66
5, 104832, Note_on_c, 3, 64, 66
5, 105212, Note_off_c, 3, 58, 64
5, 105212, Note_off_c, 3, 62, 64
5, 105212, Note_off_c, 3, 64, 64
5, 105984, Note_on_c, 3, 65, 66
5, 105984, Note_on_c, 3, 57, 66
5, 107516, Note_off_c, 3, 65, 64
5, 107516, Note_off_c, 3, 57, 64
5, 107520, Note_on_c, 3, 65, 66
5, 107520, Note_on_c, 3, 62, 66
5, 107520, Note_on_c, 3, 57, 66
5, 107708, Note_off_c, 3, 65, 64
5, 107708, Note_off_c, 3, 62, 64
5, 107708, Note_off_c, 3, 57, 64
5, 107904, Note_on_c, 3, 65, 66
5, 107904, Note_on_c, 3, 62, 66
5, 107904, Note_on_c, 3, 57, 66
5, 108092, Note_off_c, 3, 65, 64
5, 108092, Note_off_c, 3, 62, 64
5, 108092, Note_off_c, 3, 57, 64
5, 108288, Note_on_c, 3, 57, 66
5, 108288, Note_on_c, 3, 45, 72
5, 108668, Note_off_c, 3, 57, 64
5, 108668, Note_off_c, 3, 45, 64
5, 109056, Note_on_c, 3, 50, 68
5, 109056, Note_on_c, 3, 38, 78
5, 109820, Note_off_c, 3, 50, 64
5, 109820, Note_off_c, 3, 38, 64
5, 109824, Note_on_c, 3, 53, 66
5, 109824, Note_on_c, 3, 61, 66
5, 110012, Note_off_c, 3, 61, 64
5, 110016, Note_on_c, 3, 62, 66
5, 110588, Note_off_c, 3, 53, 64
5, 110592, Note_on_c, 3, 55, 66
5, 110972, Note_off_c, 3, 62, 64
5, 110976, Note_on_c, 3, 64, 66
5, 110976, Note_on_c, 3, 58, 66
5, 111164, Note_off_c, 3, 64, 64
5, 111168, Note_on_c, 3, 62, 66
5, 111356, Note_off_c, 3, 55, 64
5, 111356, Note_off_c, 3, 58, 64
5, 111356, Note_off_c, 3, 62, 64
5, 111360, Note_on_c, 3, 57, 66
5, 111360, Note_on_c, 3, 61, 66
5, 111548, Note_off_c, 3, 61, 64
5, 111552, Note_on_c, 3, 64, 66
5, 111740, Note_off_c, 3, 64, 64
5, 112124, Note_off_c, 3, 57, 64
5, 112128, Note_on_c, 3, 58, 66
5, 112128, Note_on_c, 3, 61, 66
5, 112508, Note_off_c, 3, 61, 64
5, 112512, Note_on_c, 3, 62, 66
5, 112892, Note_off_c, 3, 58, 64
5, 112892, Note_off_c, 3, 62, 64
5, 112896, Note_on_c, 3, 53, 66
5, 113280, Note_on_c, 3, 65, 66
5, 113280, Note_on_c, 3, 57, 66
5, 113468, Note_off_c, 3, 65, 64
5, 113472, Note_on_c, 3, 62, 66
5, 113660, Note_off_c, 3, 53, 64
5, 113660, Note_off_c, 3, 57, 64
5, 113660, Note_off_c, 3, 62, 64
5, 113664, Note_on_c, 3, 55, 66
5, 113856, Note_on_c, 3, 67, 66
5, 114044, Note_off_c, 3, 67, 64
5, 114048, Note_on_c, 3, 64, 66
5, 114236, Note_off_c, 3, 64, 64
5, 114240, Note_on_c, 3, 62, 66
5, 114428, Note_off_c, 3, 55, 64
5, 114428, Note_off_c, 3, 62, 64
5, 114432, Note_on_c, 3, 61, 66
5, 114432, Note_on_c, 3, 57, 66
5, 114620, Note_off_c, 3, 61, 64
5, 114624, Note_on_c, 3, 64, 66
5, 114812, Note_off_c, 3, 64, 64
5, 114816, Note_on_c, 3, 61, 66
5, 115196, Note_off_c, 3, 57, 64
5, 115200, Note_on_c, 3, 58, 66
5, 115388, Note_off_c, 3, 61, 64
5, 115392, Note_on_c, 3, 64, 66
5, 115580, Note_off_c, 3, 64, 64
5, 115584, Note_on_c, 3, 62, 66
5, 115964, Note_off_c, 3, 58, 64
5, 115964, Note_off_c, 3, 62, 64
5, 115968, Note_on_c, 3, 62, 66
5, 115968, Note_on_c, 3, 65, 66
5, 115968, Note_on_c, 3, 53, 66
5, 116348, Note_off_c, 3, 62, 64
5, 116348, Note_off_c, 3, 65, 64
5, 116348, Note_off_c, 3, 53, 64
5, 116352, Note_on_c, 3, 70, 66
5, 116540, Note_off_c, 3, 70, 64
5, 116544, Note_on_c, 3, 69, 66
5, 116732, Note_off_c, 3, 69, 64
5, 116736, Note_on_c, 3, 58, 66
5, 116736, Note_on_c, 3, 55, 66
5, 116736, Note_on_c, 3, 64, 66
5, 117308, Note_off_c, 3, 64, 64
5, 117312, Note_on_c, 3, 64, 66
5, 117500, Note_off_c, 3, 58, 64
5, 117500, Note_off_c, 3, 55, 64
5, 117500, Note_off_c, 3, 64, 64
5, 117504, Note_on_c, 3, 62, 66
5, 117504, Note_on_c, 3, 57, 66
5, 117692, Note_off_c, 3, 62, 64
5, 117696, Note_on_c, 3, 61, 66
5, 117884, Note_off_c, 3, 61, 64
5, 117888, Note_on_c, 3, 64, 66
5, 118076, Note_off_c, 3, 64, 64
5, 118080, Note_on_c, 3, 61, 66
5, 118268, Note_off_c, 3, 57, 64
5, 118268, Note_off_c, 3, 61, 64
5, 118272, Note_on_c, 3, 62, 66
5, 118272, Note_on_c, 3, 50, 66
5, 118652, Note_off_c, 3, 62, 64
5, 118652, Note_off_c, 3, 50, 64
5, 135936, Note_on_c, 3, 45, 72
5, 136124, Note_off_c, 3, 45, 64
5, 136128, Note_on_c, 3, 61, 66
5, 136128, Note_on_c, 3, 57, 66
5, 136316, Note_off_c, 3, 61, 64
5, 136316, Note_off_c, 3, 57, 64
5, 136320, Note_on_c, 3, 62, 66
5, 136320, Note_on_c, 3, 59, 66
5, 136508, Note_off_c, 3, 62, 64
5, 136508, Note_off_c, 3, 59, 64
5, 136512, Note_on_c, 3, 64, 66
5, 136512, Note_on_c, 3, 61, 66
5, 136700, Note_off_c, 3, 64, 64
5, 136700, Note_off_c, 3, 61, 64
5, 136704, Note_on_c, 3, 50, 66
5, 137084, Note_off_c, 3, 50, 64
5, 137472, Note_on_c, 3, 45, 72
5, 137660, Note_off_c, 3, 45, 64
5, 137664, Note_on_c, 3, 61, 66
5, 137664, Note_on_c, 3, 57, 66
5, 137852, Note_off_c, 3, 61, 64
5, 137852, Note_off_c, 3, 57, 64
5, 137856, Note_on_c, 3, 62, 66
5, 137856, Note_on_c, 3, 59, 66
5, 138044, Note_off_c, 3, 62, 64
5, 138044, Note_off_c, 3, 59, 64
5, 138048, Note_on_c, 3, 64, 66
5, 138048, Note_on_c, 3, 61, 66
5, 138236, Note_off_c, 3, 64, 64
5, 138236, Note_off_c, 3, 61, 64
5, 138240, Note_on_c, 3, 62, 66
5, 138240, Note_on_c, 3, 65, 66
5, 138428, Note_off_c, 3, 62, 64
5, 138428, Note_off_c, 3, 65, 64
5, 138624, Note_on_c, 3, 64, 66
5, 138624, Note_on_c, 3, 55, 66
5, 138812, Note_off_c, 3, 64, 64
5, 138812, Note_off_c, 3, 55, 64
5, 139008, Note_on_c, 3, 62, 66
5, 139008, Note_on_c, 3, 53, 66
5, 139196, Note_off_c, 3, 62, 64
5, 139196, Note_off_c, 3, 53, 64
5, 139392, Note_on_c, 3, 57, 66
5, 139392, Note_on_c, 3, 52, 66
5, 139392, Note_on_c, 3, 45, 72
5, 139580, Note_off_c, 3, 57, 64
5, 139580, Note_off_c, 3, 52, 64
5, 139580, Note_off_c, 3, 45, 64
5, 139776, Note_on_c, 3, 50, 70
5, 139776, Note_on_c, 3, 38, 75
5, 139968, Note_on_c, 3, 62, 66
5, 139968, Note_on_c, 3, 57, 66
5, 139968, Note_on_c, 3, 53, 66
5, 140348, Note_off_c, 3, 62, 64
5, 140348, Note_off_c, 3, 57, 64
5, 140348, Note_off_c, 3, 53, 64
5, 140352, Note_on_c, 3, 62, 66
5, 140352, Note_on_c, 3, 57, 66
5, 140352, Note_on_c, 3, 53, 66
5, 140540, Note_off_c, 3, 50, 64
5, 140540, Note_off_c, 3, 38, 64
5, 140732, Note_off_c, 3, 62, 64
5, 140732, Note_off_c, 3, 57, 64
5, 140732, Note_off_c, 3, 53, 64
5, 140736, Note_on_c, 3, 62, 66
5, 140736, Note_on_c, 3, 57, 66
5, 140736, Note_on_c, 3, 53, 66
5, 141116, Note_off_c, 3, 62, 64
5, 141116, Note_off_c, 3, 57, 64
5, 141116, Note_off_c, 3, 53, 64
5, 141120, Note_on_c, 3, 57, 66
5, 141120, Note_on_c, 3, 53, 66
5, 141120, Note_on_c, 3, 62, 66
5, 141120, Note_on_c, 3, 33, 82
5, 141180, Note_off_c, 3, 33, 64
5, 141184, Note_on_c, 3, 35, 80
5, 141244, Note_off_c, 3, 35, 64
5, 141248, Note_on_c, 3, 37, 78
5, 141308, Note_off_c, 3, 37, 64
5, 141312, Note_on_c, 3, 38, 75
5, 141500, Note_off_c, 3, 53, 64
5, 141500, Note_off_c, 3, 57, 64
5, 141500, Note_off_c, 3, 62, 64
5, 141504, Note_on_c, 3, 62, 66
5, 141504, Note_on_c, 3, 57, 66
5, 141504, Note_on_c, 3, 53, 66
5, 141884, Note_off_c, 3, 62, 64
5, 141884, Note_off_c, 3, 57, 64
5, 141884, Note_off_c, 3, 53, 64
5, 141888, Note_on_c, 3, 53, 66
5, 141888, Note_on_c, 3, 62, 66
5, 141888, Note_on_c, 3, 57, 66
5, 142076, Note_off_c, 3, 38, 64
5, 142268, Note_off_c, 3, 53, 64
5, 142268, Note_off_c, 3, 62, 64
5, 142268, Note_off_c, 3, 57, 64
5, 142272, Note_on_c, 3, 57, 66
5, 142272, Note_on_c, 3, 53, 66
5, 142272, Note_on_c, 3, 62, 66
5, 142652, Note_off_c, 3, 57, 64
5, 142652, Note_off_c, 3, 53, 64
5, 142652, Note_off_c, 3, 62, 64
5, 142656, Note_on_c, 3, 62, 66
5, 142656, Note_on_c, 3, 57, 66
5, 142656, Note_on_c, 3, 53, 66
5, 142656, Note_on_c, 3, 33, 81
5, 142716, Note_off_c, 3, 33, 64
5, 142720, Note_on_c, 3, 35, 79
5, 142780, Note_off_c, 3, 35, 64
5, 142784, Note_on_c, 3, 37, 78
5, 142844, Note_off_c, 3, 37, 64
5, 142848, Note_on_c, 3, 38, 76
5, 143036, Note_off_c, 3, 53, 64
5, 143036, Note_off_c, 3, 57, 64
5, 143036, Note_off_c, 3, 62, 64
5, 143040, Note_on_c, 3, 57, 66
5, 143040, Note_on_c, 3, 53, 66
5, 143420, Note_off_c, 3, 57, 64
5, 143420, Note_off_c, 3, 53, 64
5, 143424, Note_on_c, 3, 57, 66
5, 143424, Note_on_c, 3, 50, 66
5, 143424, Note_on_c, 3, 65, 66
5, 143612, Note_off_c, 3, 38, 64
5, 143804, Note_off_c, 3, 57, 64
5, 143804, Note_off_c, 3, 50, 64
5, 143804, Note_off_c, 3, 65, 64
5, 143808, Note_on_c, 3, 52, 66
5, 143808, Note_on_c, 3, 64, 66
5, 143808, Note_on_c, 3, 57, 66
5, 144188, Note_off_c, 3, 52, 64
5, 144188, Note_off_c, 3, 64, 64
5, 144188, Note_off_c, 3, 57, 64
5, 144192, Note_on_c, 3, 62, 66
5, 144192, Note_on_c, 3, 57, 66
5, 144192, Note_on_c, 3, 53, 66
5, 144192, Note_on_c, 3, 33, 81
5, 144232, Note_off_c, 3, 33, 64
5, 144240, Note_on_c, 3, 35, 80
5, 144280, Note_off_c, 3, 35, 64
5, 144288, Note_on_c, 3, 37, 79
5, 144328, Note_off_c, 3, 37, 64
5, 144336, Note_on_c, 3, 38, 78
5, 144376, Note_off_c, 3, 38, 64
5, 144380, Note_off_c, 3, 53, 64
5, 144384, Note_on_c, 3, 40, 75
5, 144384, Note_on_c, 3, 55, 66
5, 144572, Note_off_c, 3, 57, 64
5, 144572, Note_off_c, 3, 62, 64
5, 144572, Note_off_c, 3, 55, 64
5, 144576, Note_on_c, 3, 61, 66
5, 144576, Note_on_c, 3, 57, 66
5, 144576, Note_on_c, 3, 55, 66
5, 144956, Note_off_c, 3, 61, 64
5, 144956, Note_off_c, 3, 57, 64
5, 144956, Note_off_c, 3, 55, 64
5, 144960, Note_on_c, 3, 57, 66
5, 144960, Note_on_c, 3, 55, 66
5, 144960, Note_on_c, 3, 61, 66
5, 145148, Note_off_c, 3, 40, 64
5, 145340, Note_off_c, 3, 57, 64
5, 145340, Note_off_c, 3, 55, 64
5, 145340, Note_off_c, 3, 61, 64
5, 145344, Note_on_c, 3, 57, 66
5, 145344, Note_on_c, 3, 55, 66
5, 145344, Note_on_c, 3, 61, 66
5, 145724, Note_off_c, 3, 57, 64
5, 145724, Note_off_c, 3, 55, 64
5, 145724, Note_off_c, 3, 61, 64
5, 145728, Note_on_c, 3, 55, 66
5, 145728, Note_on_c, 3, 63, 66
5, 145728, Note_on_c, 3, 57, 66
5, 145920, Note_on_c, 3, 49, 66
5, 145920, Note_on_c, 3, 37, 78
5, 146108, Note_off_c, 3, 55, 64
5, 146108, Note_off_c, 3, 57, 64
5, 146108, Note_off_c, 3, 63, 64
5, 146112, Note_on_c, 3, 64, 66
5, 146112, Note_on_c, 3, 57, 66
5, 146112, Note_on_c, 3, 55, 66
5, 146492, Note_off_c, 3, 64, 64
5, 146492, Note_off_c, 3, 57, 64
5, 146492, Note_off_c, 3, 55, 64
5, 146496, Note_on_c, 3, 64, 66
5, 146496, Note_on_c, 3, 57, 66
5, 146496, Note_on_c, 3, 55, 66
5, 146684, Note_off_c, 3, 49, 64
5, 146684, Note_off_c, 3, 37, 64
5, 146876, Note_off_c, 3, 64, 64
5, 146876, Note_off_c, 3, 57, 64
5, 146876, Note_off_c, 3, 55, 64
5, 146880, Note_on_c, 3, 57, 66
5, 146880, Note_on_c, 3, 55, 66
5, 146880, Note_on_c, 3, 64, 66
5, 147260, Note_off_c, 3, 57, 64
5, 147260, Note_off_c, 3, 55, 64
5, 147260, Note_off_c, 3, 64, 64
5, 147264, Note_on_c, 3, 64, 66
5, 147264, Note_on_c, 3, 57, 66
5, 147264, Note_on_c, 3, 55, 66
5, 147264, Note_on_c, 3, 45, 76
5, 147352, Note_off_c, 3, 45, 64
5, 147360, Note_on_c, 3, 47, 75
5, 147448, Note_off_c, 3, 47, 64
5, 147456, Note_on_c, 3, 49, 73
5, 147456, Note_on_c, 3, 37, 73
5, 147644, Note_off_c, 3, 55, 64
5, 147644, Note_off_c, 3, 57, 64
5, 147644, Note_off_c, 3, 64, 64
5, 147648, Note_on_c, 3, 64, 66
5, 147648, Note_on_c, 3, 57, 66
5, 147648, Note_on_c, 3, 55, 66
5, 148028, Note_off_c, 3, 64, 64
5, 148028, Note_off_c, 3, 57, 64
5, 148028, Note_off_c, 3, 55, 64
5, 148032, Note_on_c, 3, 64, 66
5, 148032, Note_on_c, 3, 57, 66
5, 148032, Note_on_c, 3, 55, 66
5, 148220, Note_off_c, 3, 49, 64
5, 148220, Note_off_c, 3, 37, 64
5, 148412, Note_off_c, 3, 64, 64
5, 148412, Note_off_c, 3, 57, 64
5, 148412, Note_off_c, 3, 55, 64
5, 148416, Note_on_c, 3, 64, 66
5, 148416, Note_on_c, 3, 57, 66
5, 148416, Note_on_c, 3, 55, 66
5, 148796, Note_off_c, 3, 64, 64
5, 148796, Note_off_c, 3, 57, 64
5, 148796, Note_off_c, 3, 55, 64
5, 148800, Note_on_c, 3, 64, 66
5, 148800, Note_on_c, 3, 57, 66
5, 148800, Note_on_c, 3, 55, 66
5, 148800, Note_on_c, 3, 45, 76
5, 148888, Note_off_c, 3, 45, 64
5, 148896, Note_on_c, 3, 47, 75
5, 148984, Note_off_c, 3, 47, 64
5, 148992, Note_on_c, 3, 49, 73
5, 148992, Note_on_c, 3, 37, 76
5, 149180, Note_off_c, 3, 55, 64
5, 149180, Note_off_c, 3, 57, 64
5, 149180, Note_off_c, 3, 64, 64
5, 149184, Note_on_c, 3, 57, 66
5, 149184, Note_on_c, 3, 55, 66
5, 149564, Note_off_c, 3, 57, 64
5, 149564, Note_off_c, 3, 55, 64
5, 149568, Note_on_c, 3, 57, 66
5, 149568, Note_on_c, 3, 52, 66
5, 149568, Note_on_c, 3, 67, 66
5, 149756, Note_off_c, 3, 49, 64
5, 149756, Note_off_c, 3, 37, 64
5, 149948, Note_off_c, 3, 57, 64
5, 149948, Note_off_c, 3, 52, 64
5, 149948, Note_off_c, 3, 67, 64
5, 149952, Note_on_c, 3, 57, 66
5, 149952, Note_on_c, 3, 53, 66
5, 149952, Note_on_c, 3, 65, 66
5, 150332, Note_off_c, 3, 57, 64
5, 150332, Note_off_c, 3, 53, 64
5, 150332, Note_off_c, 3, 65, 64
5, 150336, Note_on_c, 3, 57, 66
5, 150336, Note_on_c, 3, 55, 66
5, 150336, Note_on_c, 3, 64, 66
5, 150336, Note_on_c, 3, 45, 72
5, 150396, Note_off_c, 3, 45, 64
5, 150400, Note_on_c, 3, 47, 71
5, 150460, Note_off_c, 3, 47, 64
5, 150464, Note_on_c, 3, 49, 70
5, 150524, Note_off_c, 3, 55, 64
5, 150524, Note_off_c, 3, 49, 64
5, 150528, Note_on_c, 3, 50, 67
5, 150528, Note_on_c, 3, 38, 76
5, 150528, Note_on_c, 3, 53, 66
5, 150716, Note_off_c, 3, 57, 64
5, 150716, Note_off_c, 3, 64, 64
5, 150716, Note_off_c, 3, 53, 64
5, 150720, Note_on_c, 3, 62, 66
5, 150720, Note_on_c, 3, 57, 66
5, 150720, Note_on_c, 3, 53, 66
5, 151100, Note_off_c, 3, 62, 64
5, 151100, Note_off_c, 3, 57, 64
5, 151100, Note_off_c, 3, 53, 64
5, 151104, Note_on_c, 3, 53, 66
5, 151104, Note_on_c, 3, 57, 66
5, 151104, Note_on_c, 3, 62, 66
5, 151292, Note_off_c, 3, 50, 64
5, 151292, Note_off_c, 3, 38, 64
5, 151484, Note_off_c, 3, 53, 64
5, 151484, Note_off_c, 3, 57, 64
5, 151484, Note_off_c, 3, 62, 64
5, 151488, Note_on_c, 3, 62, 66
5, 151488, Note_on_c, 3, 57, 66
5, 151488, Note_on_c, 3, 53, 66
5, 151868, Note_off_c, 3, 62, 64
5, 151868, Note_off_c, 3, 57, 64
5, 151868, Note_off_c, 3, 53, 64
5, 151872, Note_on_c, 3, 50, 70
5, 151932, Note_off_c, 3, 50, 64
5, 151936, Note_on_c, 3, 52, 70
5, 151996, Note_off_c, 3, 52, 64
5, 152000, Note_on_c, 3, 53, 70
5, 152060, Note_off_c, 3, 53, 64
5, 152064, Note_on_c, 3, 55, 70
5, 152064, Note_on_c, 3, 43, 73
5, 152444, Note_off_c, 3, 55, 64
5, 152444, Note_off_c, 3, 43, 64
5, 152640, Note_on_c, 3, 52, 70
5, 152700, Note_off_c, 3, 52, 64
5, 152704, Note_on_c, 3, 53, 70
5, 152764, Note_off_c, 3, 53, 64
5, 152768, Note_on_c, 3, 55, 70
5, 152828, Note_off_c, 3, 55, 64
5, 152832, Note_on_c, 3, 57, 70
5, 152832, Note_on_c, 3, 45, 72
5, 153212, Note_off_c, 3, 57, 64
5, 153212, Note_off_c, 3, 45, 64
5, 153408, Note_on_c, 3, 54, 70
5, 153468, Note_off_c, 3, 54, 64
5, 153472, Note_on_c, 3, 55, 70
5, 153532, Note_off_c, 3, 55, 64
5, 153536, Note_on_c, 3, 57, 70
5, 153596, Note_off_c, 3, 57, 64
5, 153600, Note_on_c, 3, 58, 70
5, 153600, Note_on_c, 3, 46, 71
5, 154364, Note_off_c, 3, 58, 64
5, 154364, Note_off_c, 3, 46, 64
5, 154944, Note_on_c, 3, 52, 70
5, 155004, Note_off_c, 3, 52, 64
5, 155008, Note_on_c, 3, 53, 70
5, 155068, Note_off_c, 3, 53, 64
5, 155072, Note_on_c, 3, 55, 70
5, 155132, Note_off_c, 3, 55, 64
5, 155136, Note_on_c, 3, 57, 70
5, 155136, Note_on_c, 3, 45, 72
5, 155516, Note_off_c, 3, 57, 64
5, 155516, Note_off_c, 3, 45, 64
5, 155712, Note_on_c, 3, 54, 70
5, 155772, Note_off_c, 3, 54, 64
5, 155776, Note_on_c, 3, 55, 70
5, 155836, Note_off_c, 3, 55, 64
5, 155840, Note_on_c, 3, 57, 70
5, 155900, Note_off_c, 3, 57, 64
5, 155904, Note_on_c, 3, 59, 70
5, 155904, Note_on_c, 3, 47, 72
5, 156284, Note_off_c, 3, 59, 64
5, 156284, Note_off_c, 3, 47, 64
5, 156480, Note_on_c, 3, 56, 70
5, 156540, Note_off_c, 3, 56, 64
5, 156544, Note_on_c, 3, 57, 70
5, 156604, Note_off_c, 3, 57, 64
5, 156608, Note_on_c, 3, 59, 70
5, 156668, Note_off_c, 3, 59, 64
5, 156672, Note_on_c, 3, 60, 70
5, 156672, Note_on_c, 3, 48, 72
5, 157436, Note_off_c, 3, 60, 64
5, 157436, Note_off_c, 3, 48, 64
5, 158016, Note_on_c, 3, 57, 70
5, 158076, Note_off_c, 3, 57, 64
5, 158080, Note_on_c, 3, 59, 70
5, 158140, Note_off_c, 3, 59, 64
5, 158144, Note_on_c, 3, 60, 70
5, 158204, Note_off_c, 3, 60, 64
5, 158208, Note_on_c, 3, 62, 70
5, 158208, Note_on_c, 3, 50, 72
5, 158588, Note_off_c, 3, 62, 64
5, 158588, Note_off_c, 3, 50, 64
5, 158784, Note_on_c, 3, 59, 70
5, 158844, Note_off_c, 3, 59, 64
5, 158848, Note_on_c, 3, 60, 70
5, 158908, Note_off_c, 3, 60, 64
5, 158912, Note_on_c, 3, 62, 70
5, 158972, Note_off_c, 3, 62, 64
5, 158976, Note_on_c, 3, 64, 70
5, 158976, Note_on_c, 3, 52, 72
5, 159356, Note_off_c, 3, 64, 64
5, 159356, Note_off_c, 3, 52, 64
5, 159552, Note_on_c, 3, 61, 70
5, 159612, Note_off_c, 3, 61, 64
5, 159616, Note_on_c, 3, 62, 70
5, 159676, Note_off_c, 3, 62, 64
5, 159680, Note_on_c, 3, 64, 70
5, 159740, Note_off_c, 3, 64, 64
5, 159744, Note_on_c, 3, 65, 66
5, 159744, Note_on_c, 3, 53, 70
5, 159936, Note_on_c, 3, 62, 66
5, 159936, Note_on_c, 3, 57, 66
5, 160124, Note_off_c, 3, 65, 64
5, 160124, Note_off_c, 3, 53, 64
5, 160124, Note_off_c, 3, 62, 64
5, 160124, Note_off_c, 3, 57, 64
5, 160128, Note_on_c, 3, 49, 66
5, 160508, Note_off_c, 3, 49, 64
5, 160512, Note_on_c, 3, 50, 66
5, 160892, Note_off_c, 3, 50, 64
5, 160896, Note_on_c, 3, 48, 66
5, 161276, Note_off_c, 3, 48, 64
5, 161280, Note_on_c, 3, 58, 66
5, 161280, Note_on_c, 3, 46, 66
5, 161660, Note_off_c, 3, 58, 64
5, 161660, Note_off_c, 3, 46, 64
5, 161664, Note_on_c, 3, 54, 66
5, 161664, Note_on_c, 3, 42, 75
5, 162044, Note_off_c, 3, 54, 64
5, 162044, Note_off_c, 3, 42, 64
5, 162048, Note_on_c, 3, 55, 66
5, 162048, Note_on_c, 3, 43, 74
5, 162428, Note_off_c, 3, 55, 64
5, 162428, Note_off_c, 3, 43, 64
5, 162432, Note_on_c, 3, 53, 66
5, 162432, Note_on_c, 3, 41, 75
5, 162812, Note_off_c, 3, 53, 64
5, 162812, Note_off_c, 3, 41, 64
5, 162816, Note_on_c, 3, 52, 66
5, 162816, Note_on_c, 3, 40, 76
5, 163196, Note_off_c, 3, 52, 64
5, 163196, Note_off_c, 3, 40, 64
5, 163200, Note_on_c, 3, 55, 66
5, 163200, Note_on_c, 3, 43, 74
5, 163580, Note_off_c, 3, 55, 64
5, 163580, Note_off_c, 3, 43, 64
5, 163584, Note_on_c, 3, 53, 66
5, 163584, Note_on_c, 3, 41, 75
5, 163964, Note_off_c, 3, 53, 64
5, 163964, Note_off_c, 3, 41, 64
5, 163968, Note_on_c, 3, 49, 66
5, 163968, Note_on_c, 3, 37, 79
5, 164348, Note_off_c, 3, 49, 64
5, 164348, Note_off_c, 3, 37, 64
5, 164352, Note_on_c, 3, 50, 66
5, 164352, Note_on_c, 3, 38, 78
5, 164732, Note_off_c, 3, 50, 64
5, 164732, Note_off_c, 3, 38, 64
5, 164736, Note_on_c, 3, 53, 66
5, 164736, Note_on_c, 3, 41, 75
5, 165116, Note_off_c, 3, 53, 64
5, 165116, Note_off_c, 3, 41, 64
5, 165120, Note_on_c, 3, 55, 66
5, 165120, Note_on_c, 3, 43, 74
5, 165500, Note_off_c, 3, 55, 64
5, 165500, Note_off_c, 3, 43, 64
5, 165504, Note_on_c, 3, 58, 66
5, 165504, Note_on_c, 3, 46, 72
5, 165884, Note_off_c, 3, 58, 64
5, 165884, Note_off_c, 3, 46, 64
5, 165888, Note_on_c, 3, 57, 66
5, 165888, Note_on_c, 3, 45, 73
5, 166268, Note_off_c, 3, 57, 64
5, 166268, Note_off_c, 3, 45, 64
5, 168960, Note_on_c, 3, 64, 66
5, 168960, Note_on_c, 3, 61, 66
5, 168960, Note_on_c, 3, 57, 66
5, 169340, Note_off_c, 3, 64, 64
5, 169340, Note_off_c, 3, 61, 64
5, 169340, Note_off_c, 3, 57, 64
5, 169344, Note_on_c, 3, 61, 66
5, 169344, Note_on_c, 3, 57, 66
5, 169344, Note_on_c, 3, 64, 66
5, 169632, Note_on_c, 3, 64, 66
5, 169632, Note_on_c, 3, 61, 66
5, 169632, Note_on_c, 3, 57, 66
5, 169724, Note_off_c, 3, 61, 64
5, 169724, Note_off_c, 3, 57, 64
5, 169728, Note_on_c, 3, 64, 66
5, 169728, Note_on_c, 3, 61, 66
5, 169728, Note_on_c, 3, 57, 66
5, 169740, Note_off_c, 3, 64, 64
5, 169900, Note_off_c, 3, 64, 64
5, 169916, Note_off_c, 3, 61, 64
5, 169916, Note_off_c, 3, 57, 64
5, 170108, Note_off_c, 3, 64, 64
5, 170108, Note_off_c, 3, 61, 64
5, 170108, Note_off_c, 3, 57, 64
5, 170112, Note_on_c, 3, 64, 66
5, 170112, Note_on_c, 3, 61, 66
5, 170112, Note_on_c, 3, 57, 66
5, 170492, Note_off_c, 3, 64, 64
5, 170492, Note_off_c, 3, 61, 64
5, 170492, Note_off_c, 3, 57, 64
5, 170496, Note_on_c, 3, 65, 66
5, 170496, Note_on_c, 3, 62, 66
5, 170496, Note_on_c, 3, 57, 66
5, 170876, Note_off_c, 3, 65, 64
5, 170876, Note_off_c, 3, 62, 64
5, 170876, Note_off_c, 3, 57, 64
5, 170880, Note_on_c, 3, 62, 66
5, 170880, Note_on_c, 3, 57, 66
5, 170880, Note_on_c, 3, 65, 66
5, 171164, Note_off_c, 3, 62, 64
5, 171164, Note_off_c, 3, 57, 64
5, 171164, Note_off_c, 3, 65, 64
5, 171168, Note_on_c, 3, 65, 66
5, 171168, Note_on_c, 3, 62, 66
5, 171168, Note_on_c, 3, 57, 66
5, 171260, Note_off_c, 3, 65, 64
5, 171260, Note_off_c, 3, 62, 64
5, 171260, Note_off_c, 3, 57, 64
5, 171264, Note_on_c, 3, 65, 66
5, 171264, Note_on_c, 3, 62, 66
5, 171264, Note_on_c, 3, 57, 66
5, 171644, Note_off_c, 3, 65, 64
5, 171644, Note_off_c, 3, 62, 64
5, 171644, Note_off_c, 3, 57, 64
5, 171648, Note_on_c, 3, 62, 66
5, 171648, Note_on_c, 3, 57, 66
5, 171648, Note_on_c, 3, 65, 66
5, 172028, Note_off_c, 3, 62, 64
5, 172028, Note_off_c, 3, 57, 64
5, 172028, Note_off_c, 3, 65, 64
5, 172032, Note_on_c, 3, 57, 86
5, 172032, Note_on_c, 3, 45, 88
5, 172220, Note_off_c, 3, 57, 64
5, 172220, Note_off_c, 3, 45, 64
5, 172224, Note_on_c, 3, 55, 86
5, 172224, Note_on_c, 3, 43, 90
5, 172412, Note_off_c, 3, 55, 64
5, 172412, Note_off_c, 3, 43, 64
5, 172416, Note_on_c, 3, 53, 86
5, 172416, Note_on_c, 3, 41, 90
5, 172604, Note_off_c, 3, 53, 64
5, 172604, Note_off_c, 3, 41, 64
5, 172608, Note_on_c, 3, 52, 86
5, 172608, Note_on_c, 3, 40, 91
5, 172796, Note_off_c, 3, 52, 64
5, 172796, Note_off_c, 3, 40, 64
5, 172800, Note_on_c, 3, 50, 86
5, 172800, Note_on_c, 3, 38, 92
5, 172988, Note_off_c, 3, 50, 64
5, 172988, Note_off_c, 3, 38, 64
5, 172992, Note_on_c, 3, 52, 86
5, 172992, Note_on_c, 3, 40, 91
5, 173180, Note_off_c, 3, 52, 64
5, 173180, Note_off_c, 3, 40, 64
5, 173184, Note_on_c, 3, 53, 86
5, 173184, Note_on_c, 3, 41, 90
5, 173372, Note_off_c, 3, 53, 64
5, 173372, Note_off_c, 3, 41, 64
5, 173376, Note_on_c, 3, 55, 86
5, 173376, Note_on_c, 3, 43, 89
5, 173564, Note_off_c, 3, 55, 64
5, 173564, Note_off_c, 3, 43, 64
5, 173568, Note_on_c, 3, 57, 86
5, 173568, Note_on_c, 3, 45, 88
5, 173756, Note_off_c, 3, 57, 64
5, 173756, Note_off_c, 3, 45, 64
5, 173760, Note_on_c, 3, 55, 86
5, 173760, Note_on_c, 3, 43, 89
5, 173948, Note_off_c, 3, 55, 64
5, 173948, Note_off_c, 3, 43, 64
5, 173952, Note_on_c, 3, 53, 86
5, 173952, Note_on_c, 3, 41, 90
5, 174140, Note_off_c, 3, 53, 64
5, 174140, Note_off_c, 3, 41, 64
5, 174144, Note_on_c, 3, 52, 86
5, 174144, Note_on_c, 3, 40, 91
5, 174332, Note_off_c, 3, 52, 64
5, 174332, Note_off_c, 3, 40, 64
5, 174336, Note_on_c, 3, 50, 86
5, 174336, Note_on_c, 3, 38, 92
5, 174524, Note_off_c, 3, 50, 64
5, 174524, Note_off_c, 3, 38, 64
5, 174528, Note_on_c, 3, 52, 86
5, 174528, Note_on_c, 3, 40, 91
5, 174716, Note_off_c, 3, 52, 64
5, 174716, Note_off_c, 3, 40, 64
5, 174720, Note_on_c, 3, 53, 86
5, 174720, Note_on_c, 3, 41, 90
5, 174908, Note_off_c, 3, 53, 64
5, 174908, Note_off_c, 3, 41, 64
5, 174912, Note_on_c, 3, 55, 86
5, 174912, Note_on_c, 3, 43, 89
5, 175100, Note_off_c, 3, 55, 64
5, 175100, Note_off_c, 3, 43, 64
5, 175104, Note_on_c, 3, 57, 86
5, 175104, Note_on_c, 3, 45, 88
5, 175484, Note_off_c, 3, 57, 64
5, 175484, Note_off_c, 3, 45, 64
5, 176640, Note_on_c, 3, 57, 66
5, 176640, Note_on_c, 3, 53, 66
5, 177404, Note_off_c, 3, 57, 64
5, 177404, Note_off_c, 3, 53, 64
5, 177408, Note_on_c, 3, 58, 66
5, 177408, Note_on_c, 3, 55, 66
5, 178172, Note_off_c, 3, 58, 64
5, 178172, Note_off_c, 3, 55, 64
5, 178176, Note_on_c, 3, 60, 66
5, 178176, Note_on_c, 3, 57, 66
5, 178556, Note_off_c, 3, 60, 64
5, 178556, Note_off_c, 3, 57, 64
5, 179712, Note_on_c, 3, 58, 66
5, 179712, Note_on_c, 3, 55, 66
5, 180476, Note_off_c, 3, 58, 64
5, 180476, Note_off_c, 3, 55, 64
5, 180480, Note_on_c, 3, 60, 66
5, 180480, Note_on_c, 3, 57, 66
5, 181244, Note_off_c, 3, 60, 64
5, 181244, Note_off_c, 3, 57, 64
5, 181248, Note_on_c, 3, 58, 66
5, 181248, Note_on_c, 3, 62, 66
5, 181628, Note_off_c, 3, 58, 64
5, 181628, Note_off_c, 3, 62, 64
5, 182784, Note_on_c, 3, 60, 66
5, 182784, Note_on_c, 3, 57, 66
5, 183548, Note_off_c, 3, 60, 64
5, 183548, Note_off_c, 3, 57, 64
5, 183552, Note_on_c, 3, 62, 66
5, 183552, Note_on_c, 3, 59, 66
5, 184316, Note_off_c, 3, 62, 64
5, 184316, Note_off_c, 3, 59, 64
5, 184320, Note_on_c, 3, 64, 66
5, 184320, Note_on_c, 3, 60, 66
5, 184700, Note_off_c, 3, 64, 64
5, 184700, Note_off_c, 3, 60, 64
5, 185856, Note_on_c, 3, 62, 66
5, 185856, Note_on_c, 3, 53, 66
5, 185856, Note_on_c, 3, 50, 66
5, 186236, Note_off_c, 3, 62, 64
5, 186236, Note_off_c, 3, 53, 64
5, 186236, Note_off_c, 3, 50, 64
5, 186624, Note_on_c, 3, 64, 66
5, 186624, Note_on_c, 3, 60, 66
5, 186624, Note_on_c, 3, 52, 66
5, 187004, Note_off_c, 3, 64, 64
5, 187004, Note_off_c, 3, 60, 64
5, 187004, Note_off_c, 3, 52, 64
5, 187392, Note_on_c, 3, 65, 66
5, 187392, Note_on_c, 3, 60, 66
5, 187392, Note_on_c, 3, 53, 66
5, 187772, Note_off_c, 3, 65, 64
5, 187772, Note_off_c, 3, 60, 64
5, 187772, Note_off_c, 3, 53, 64
5, 188160, Note_on_c, 3, 62, 66
5, 188160, Note_on_c, 3, 50, 66
5, 188540, Note_off_c, 3, 62, 64
5, 188540, Note_off_c, 3, 50, 64
5, 188928, Note_on_c, 3, 58, 66
5, 188928, Note_on_c, 3, 50, 66
5, 188928, Note_on_c, 3, 46, 66
5, 189308, Note_off_c, 3, 58, 64
5, 189308, Note_off_c, 3, 50, 64
5, 189308, Note_off_c, 3, 46, 64
5, 189696, Note_on_c, 3, 50, 66
5, 189696, Note_on_c, 3, 46, 66
5, 189884, Note_off_c, 3, 50, 64
5, 189888, Note_on_c, 3, 55, 66
5, 190076, Note_off_c, 3, 46, 64
5, 190076, Note_off_c, 3, 55, 64
5, 190080, Note_on_c, 3, 47, 66
5, 190080, Note_on_c, 3, 59, 66
5, 190460, Note_off_c, 3, 47, 64
5, 190460, Note_off_c, 3, 59, 64
5, 190464, Note_on_c, 3, 60, 66
5, 190464, Note_on_c, 3, 48, 66
5, 193532, Note_off_c, 3, 48, 64
5, 193532, Note_off_c, 3, 60, 64
5, 193536, Note_on_c, 3, 60, 66
5, 193536, Note_on_c, 3, 48, 66
5, 193916, Note_off_c, 3, 60, 64
5, 193916, Note_off_c, 3, 48, 64
5, 194304, Note_on_c, 3, 60, 66
5, 194304, Note_on_c, 3, 48, 66
5, 194684, Note_off_c, 3, 60, 64
5, 194684, Note_off_c, 3, 48, 64
5, 195072, Note_on_c, 3, 60, 66
5, 195072, Note_on_c, 3, 48, 66
5, 195452, Note_off_c, 3, 60, 64
5, 195452, Note_off_c, 3, 48, 64
5, 200448, Note_on_c, 3, 52, 66
5, 200448, Note_on_c, 3, 40, 76
5, 200636, Note_off_c, 3, 52, 64
5, 200636, Note_off_c, 3, 40, 64
5, 200832, Note_on_c, 3, 53, 66
5, 200832, Note_on_c, 3, 41, 75
5, 201020, Note_off_c, 3, 53, 64
5, 201020, Note_off_c, 3, 41, 64
5, 201216, Note_on_c, 3, 48, 66
5, 201216, Note_on_c, 3, 36, 78
5, 201596, Note_off_c, 3, 48, 64
5, 201596, Note_off_c, 3, 36, 64
5, 206592, Note_on_c, 3, 48, 66
5, 206592, Note_on_c, 3, 36, 78
5, 207356, Note_off_c, 3, 48, 64
5, 207356, Note_off_c, 3, 36, 64
5, 207360, Note_on_c, 3, 53, 66
5, 207360, Note_on_c, 3, 41, 75
5, 207740, Note_off_c, 3, 53, 64
5, 207740, Note_off_c, 3, 41, 64
5, 208896, Note_on_c, 3, 41, 75
5, 209084, Note_off_c, 3, 41, 64
5, 209088, Note_on_c, 3, 45, 73
5, 209276, Note_off_c, 3, 45, 64
5, 209280, Note_on_c, 3, 48, 66
5, 209468, Note_off_c, 3, 48, 64
5, 209472, Note_on_c, 3, 53, 66
5, 209660, Note_off_c, 3, 53, 64
5, 209664, Note_on_c, 3, 43, 73
5, 209852, Note_off_c, 3, 43, 64
5, 209856, Note_on_c, 3, 46, 71
5, 210044, Note_off_c, 3, 46, 64
5, 210048, Note_on_c, 3, 52, 66
5, 210236, Note_off_c, 3, 52, 64
5, 210240, Note_on_c, 3, 55, 66
5, 210428, Note_off_c, 3, 55, 64
5, 210432, Note_on_c, 3, 45, 66
5, 210620, Note_off_c, 3, 45, 64
5, 210624, Note_on_c, 3, 48, 66
5, 210812, Note_off_c, 3, 48, 64
5, 210816, Note_on_c, 3, 53, 66
5, 211004, Note_off_c, 3, 53, 64
5, 211008, Note_on_c, 3, 57, 66
5, 211196, Note_off_c, 3, 57, 64
5, 211200, Note_on_c, 3, 53, 66
5, 211388, Note_off_c, 3, 53, 64
5, 211392, Note_on_c, 3, 57, 66
5, 211580, Note_off_c, 3, 57, 64
5, 211584, Note_on_c, 3, 48, 66
5, 211772, Note_off_c, 3, 48, 64
5, 211776, Note_on_c, 3, 53, 66
5, 211964, Note_off_c, 3, 53, 64
5, 211968, Note_on_c, 3, 45, 66
5, 212156, Note_off_c, 3, 45, 64
5, 212160, Note_on_c, 3, 48, 66
5, 212348, Note_off_c, 3, 48, 64
5, 212352, Note_on_c, 3, 41, 66
5, 212540, Note_off_c, 3, 41, 64
5, 212544, Note_on_c, 3, 53, 66
5, 212732, Note_off_c, 3, 53, 64
5, 212736, Note_on_c, 3, 52, 66
5, 212924, Note_off_c, 3, 52, 64
5, 212928, Note_on_c, 3, 48, 66
5, 213116, Note_off_c, 3, 48, 64
5, 213120, Note_on_c, 3, 53, 66
5, 213308, Note_off_c, 3, 53, 64
5, 213312, Note_on_c, 3, 41, 75
5, 213500, Note_off_c, 3, 41, 64
5, 213504, Note_on_c, 3, 48, 66
5, 213692, Note_off_c, 3, 48, 64
5, 213696, Note_on_c, 3, 52, 66
5, 213884, Note_off_c, 3, 52, 64
5, 213888, Note_on_c, 3, 55, 66
5, 214076, Note_off_c, 3, 55, 64
5, 214080, Note_on_c, 3, 60, 66
5, 214268, Note_off_c, 3, 60, 64
5, 214272, Note_on_c, 3, 58, 66
5, 214460, Note_off_c, 3, 58, 64
5, 214464, Note_on_c, 3, 55, 66
5, 214652, Note_off_c, 3, 55, 64
5, 214656, Note_on_c, 3, 50, 66
5, 214844, Note_off_c, 3, 50, 64
5, 214848, Note_on_c, 3, 46, 66
5, 215036, Note_off_c, 3, 46, 64
5, 215040, Note_on_c, 3, 43, 66
5, 215228, Note_off_c, 3, 43, 64
5, 215232, Note_on_c, 3, 46, 66
5, 215420, Note_off_c, 3, 46, 64
5, 215424, Note_on_c, 3, 50, 66
5, 215612, Note_off_c, 3, 50, 64
5, 215616, Note_on_c, 3, 55, 66
5, 215804, Note_off_c, 3, 55, 64
5, 215808, Note_on_c, 3, 45, 66
5, 215996, Note_off_c, 3, 45, 64
5, 216000, Note_on_c, 3, 50, 66
5, 216188, Note_off_c, 3, 50, 64
5, 216192, Note_on_c, 3, 54, 66
5, 216380, Note_off_c, 3, 54, 64
5, 216384, Note_on_c, 3, 57, 66
5, 216572, Note_off_c, 3, 57, 64
5, 216576, Note_on_c, 3, 46, 66
5, 216764, Note_off_c, 3, 46, 64
5, 216768, Note_on_c, 3, 50, 66
5, 216956, Note_off_c, 3, 50, 64
5, 216960, Note_on_c, 3, 55, 66
5, 217148, Note_off_c, 3, 55, 64
5, 217152, Note_on_c, 3, 58, 66
5, 217340, Note_off_c, 3, 58, 64
5, 217344, Note_on_c, 3, 55, 66
5, 217532, Note_off_c, 3, 55, 64
5, 217536, Note_on_c, 3, 58, 66
5, 217724, Note_off_c, 3, 58, 64
5, 217728, Note_on_c, 3, 50, 66
5, 217916, Note_off_c, 3, 50, 64
5, 217920, Note_on_c, 3, 55, 66
5, 218108, Note_off_c, 3, 55, 64
5, 218112, Note_on_c, 3, 46, 66
5, 218300, Note_off_c, 3, 46, 64
5, 218304, Note_on_c, 3, 50, 66
5, 218492, Note_off_c, 3, 50, 64
5, 218496, Note_on_c, 3, 43, 66
5, 218684, Note_off_c, 3, 43, 64
5, 218688, Note_on_c, 3, 46, 66
5, 218876, Note_off_c, 3, 46, 64
5, 218880, Note_on_c, 3, 48, 66
5, 219068, Note_off_c, 3, 48, 64
5, 219072, Note_on_c, 3, 46, 66
5, 219260, Note_off_c, 3, 46, 64
5, 219264, Note_on_c, 3, 48, 66
5, 219452, Note_off_c, 3, 48, 64
5, 219456, Note_on_c, 3, 36, 76
5, 219644, Note_off_c, 3, 36, 64
5, 219648, Note_on_c, 3, 41, 75
5, 220028, Note_off_c, 3, 41, 64
5, 226368, Note_on_c, 3, 64, 66
5, 226556, Note_off_c, 3, 64, 64
5, 226560, Note_on_c, 3, 65, 66
5, 226940, Note_off_c, 3, 65, 64
5, 227136, Note_on_c, 3, 61, 66
5, 227324, Note_off_c, 3, 61, 64
5, 227328, Note_on_c, 3, 62, 66
5, 227708, Note_off_c, 3, 62, 64
5, 227904, Note_on_c, 3, 59, 66
5, 228092, Note_off_c, 3, 59, 64
5, 228096, Note_on_c, 3, 60, 66
5, 228476, Note_off_c, 3, 60, 64
5, 228672, Note_on_c, 3, 57, 66
5, 228860, Note_off_c, 3, 57, 64
5, 228864, Note_on_c, 3, 58, 66
5, 229244, Note_off_c, 3, 58, 64
5, 230400, Note_on_c, 3, 46, 66
5, 230400, Note_on_c, 3, 34, 78
5, 231932, Note_off_c, 3, 46, 64
5, 231932, Note_off_c, 3, 34, 64
5, 231936, Note_on_c, 3, 48, 66
5, 231936, Note_on_c, 3, 36, 76
5, 232316, Note_off_c, 3, 48, 64
5, 232316, Note_off_c, 3, 36, 64
5, 239616, Note_on_c, 3, 58, 66
5, 239616, Note_on_c, 3, 46, 66
5, 240380, Note_off_c, 3, 58, 64
5, 240380, Note_off_c, 3, 46, 64
5, 240384, Note_on_c, 3, 43, 74
5, 240384, Note_on_c, 3, 55, 66
5, 241148, Note_off_c, 3, 43, 64
5, 241148, Note_off_c, 3, 55, 64
5, 241152, Note_on_c, 3, 57, 66
5, 241152, Note_on_c, 3, 45, 73
5, 241916, Note_off_c, 3, 57, 64
5, 241916, Note_off_c, 3, 45, 64
5, 241920, Note_on_c, 3, 50, 66
5, 241920, Note_on_c, 3, 38, 76
5, 242684, Note_off_c, 3, 50, 64
5, 242684, Note_off_c, 3, 38, 64
5, 242688, Note_on_c, 3, 48, 66
5, 242688, Note_on_c, 3, 36, 78
5, 244220, Note_off_c, 3, 48, 64
5, 244220, Note_off_c, 3, 36, 64
5, 244224, Note_on_c, 3, 53, 66
5, 244224, Note_on_c, 3, 41, 75
5, 244604, Note_off_c, 3, 53, 64
5, 244604, Note_off_c, 3, 41, 64
5, 253440, Note_on_c, 3, 46, 66
5, 253440, Note_on_c, 3, 34, 78
5, 255740, Note_off_c, 3, 34, 64
5, 255740, Note_off_c, 3, 46, 64
5, 255744, Note_on_c, 3, 47, 66
5, 255744, Note_on_c, 3, 35, 78
5, 256508, Note_off_c, 3, 47, 64
5, 256508, Note_off_c, 3, 35, 64
5, 256512, Note_on_c, 3, 36, 78
5, 256604, Note_off_c, 3, 36, 64
5, 256608, Note_on_c, 3, 48, 66
5, 256700, Note_off_c, 3, 48, 64
5, 256704, Note_on_c, 3, 60, 66
5, 259964, Note_off_c, 3, 60, 64
5, 261120, Note_on_c, 3, 60, 66
5, 261884, Note_off_c, 3, 60, 64
5, 261888, Note_on_c, 3, 57, 66
5, 262268, Note_off_c, 3, 57, 64
5, 262272, Note_on_c, 3, 53, 66
5, 262652, Note_off_c, 3, 53, 64
5, 262656, Note_on_c, 3, 60, 66
5, 262656, Note_on_c, 3, 48, 66
5, 263420, Note_off_c, 3, 60, 64
5, 263420, Note_off_c, 3, 48, 64
5, 263424, Note_on_c, 3, 57, 66
5, 263424, Note_on_c, 3, 45, 73
5, 263804, Note_off_c, 3, 57, 64
5, 263804, Note_off_c, 3, 45, 64
5, 263808, Note_on_c, 3, 53, 66
5, 263808, Note_on_c, 3, 41, 75
5, 264188, Note_off_c, 3, 53, 64
5, 264188, Note_off_c, 3, 41, 64
5, 264192, Note_on_c, 3, 48, 66
5, 264192, Note_on_c, 3, 36, 78
5, 264572, Note_off_c, 3, 48, 64
5, 264572, Note_off_c, 3, 36, 64
5, 265728, Note_on_c, 3, 60, 66
5, 265728, Note_on_c, 3, 48, 66
5, 266880, Note_off_c, 3, 60, 64
5, 266880, Note_off_c, 3, 48, 64
5, 267072, Note_on_c, 3, 36, 82
5, 267132, Note_off_c, 3, 36, 64
5, 267136, Note_on_c, 3, 38, 81
5, 267196, Note_off_c, 3, 38, 64
5, 267200, Note_on_c, 3, 40, 79
5, 267260, Note_off_c, 3, 40, 64
5, 267264, Note_on_c, 3, 41, 79
5, 267452, Note_off_c, 3, 41, 64
5, 267456, Note_on_c, 3, 57, 80
5, 267456, Note_on_c, 3, 53, 80
5, 267548, Note_off_c, 3, 57, 64
5, 267548, Note_off_c, 3, 53, 64
5, 267552, Note_on_c, 3, 60, 80
5, 267644, Note_off_c, 3, 60, 64
5, 267648, Note_on_c, 3, 57, 80
5, 267648, Note_on_c, 3, 53, 80
5, 267740, Note_off_c, 3, 57, 64
5, 267740, Note_off_c, 3, 53, 64
5, 267744, Note_on_c, 3, 60, 80
5, 267836, Note_off_c, 3, 60, 64
5, 267840, Note_on_c, 3, 57, 80
5, 267840, Note_on_c, 3, 53, 80
5, 267920, Note_on_c, 3, 60, 80
5, 267932, Note_off_c, 3, 57, 64
5, 267932, Note_off_c, 3, 53, 64
5, 268012, Note_off_c, 3, 60, 64
5, 268032, Note_on_c, 3, 57, 80
5, 268032, Note_on_c, 3, 53, 80
5, 268124, Note_off_c, 3, 57, 64
5, 268124, Note_off_c, 3, 53, 64
5, 268128, Note_on_c, 3, 60, 80
5, 268220, Note_off_c, 3, 60, 64
5, 268224, Note_on_c, 3, 57, 80
5, 268224, Note_on_c, 3, 53, 80
5, 268316, Note_off_c, 3, 57, 64
5, 268316, Note_off_c, 3, 53, 64
5, 268320, Note_on_c, 3, 60, 80
5, 268412, Note_off_c, 3, 60, 64
5, 268416, Note_on_c, 3, 57, 80
5, 268416, Note_on_c, 3, 53, 80
5, 268508, Note_off_c, 3, 57, 64
5, 268508, Note_off_c, 3, 53, 64
5, 268512, Note_on_c, 3, 60, 80
5, 268604, Note_off_c, 3, 60, 64
5, 268608, Note_on_c, 3, 57, 80
5, 268608, Note_on_c, 3, 53, 80
5, 268608, Note_on_c, 3, 48, 82
5, 268668, Note_off_c, 3, 48, 64
5, 268672, Note_on_c, 3, 50, 82
5, 268700, Note_off_c, 3, 57, 64
5, 268700, Note_off_c, 3, 53, 64
5, 268704, Note_on_c, 3, 60, 80
5, 268732, Note_off_c, 3, 50, 64
5, 268736, Note_on_c, 3, 52, 82
5, 268796, Note_off_c, 3, 60, 64
5, 268796, Note_off_c, 3, 52, 64
5, 268800, Note_on_c, 3, 53, 82
5, 268800, Note_on_c, 3, 57, 80
5, 268892, Note_off_c, 3, 57, 64
5, 268896, Note_on_c, 3, 60, 80
5, 268988, Note_off_c, 3, 60, 64
5, 268992, Note_on_c, 3, 57, 80
5, 269084, Note_off_c, 3, 57, 64
5, 269088, Note_on_c, 3, 60, 80
5, 269180, Note_off_c, 3, 53, 64
5, 269180, Note_off_c, 3, 60, 64
5, 269184, Note_on_c, 3, 57, 80
5, 269276, Note_off_c, 3, 57, 64
5, 269280, Note_on_c, 3, 60, 80
5, 269372, Note_off_c, 3, 60, 64
5, 269376, Note_on_c, 3, 57, 80
5, 269468, Note_off_c, 3, 57, 64
5, 269472, Note_on_c, 3, 60, 80
5, 269564, Note_off_c, 3, 60, 64
5, 269568, Note_on_c, 3, 57, 80
5, 269568, Note_on_c, 3, 53, 80
5, 269660, Note_off_c, 3, 57, 64
5, 269660, Note_off_c, 3, 53, 64
5, 269664, Note_on_c, 3, 60, 80
5, 269756, Note_off_c, 3, 60, 64
5, 269760, Note_on_c, 3, 57, 80
5, 269760, Note_on_c, 3, 53, 80
5, 269852, Note_off_c, 3, 57, 64
5, 269852, Note_off_c, 3, 53, 64
5, 269856, Note_on_c, 3, 60, 80
5, 269948, Note_off_c, 3, 60, 64
5, 269952, Note_on_c, 3, 57, 80
5, 269952, Note_on_c, 3, 53, 80
5, 270044, Note_off_c, 3, 57, 64
5, 270044, Note_off_c, 3, 53, 64
5, 270048, Note_on_c, 3, 60, 80
5, 270140, Note_off_c, 3, 60, 64
5, 270144, Note_on_c, 3, 57, 80
5, 270144, Note_on_c, 3, 53, 80
5, 270236, Note_off_c, 3, 57, 64
5, 270236, Note_off_c, 3, 53, 64
5, 270240, Note_on_c, 3, 60, 80
5, 270332, Note_off_c, 3, 60, 64
5, 270336, Note_on_c, 3, 57, 80
5, 270336, Note_on_c, 3, 53, 80
5, 270428, Note_off_c, 3, 57, 64
5, 270428, Note_off_c, 3, 53, 64
5, 270432, Note_on_c, 3, 60, 80
5, 270524, Note_off_c, 3, 60, 64
5, 270528, Note_on_c, 3, 57, 80
5, 270528, Note_on_c, 3, 53, 80
5, 270620, Note_off_c, 3, 57, 64
5, 270620, Note_off_c, 3, 53, 64
5, 270624, Note_on_c, 3, 60, 80
5, 270716, Note_off_c, 3, 60, 64
5, 270720, Note_on_c, 3, 57, 80
5, 270720, Note_on_c, 3, 53, 80
5, 270812, Note_off_c, 3, 57, 64
5, 270812, Note_off_c, 3, 53, 64
5, 270816, Note_on_c, 3, 60, 80
5, 270908, Note_off_c, 3, 60, 64
5, 270912, Note_on_c, 3, 57, 80
5, 270912, Note_on_c, 3, 53, 80
5, 271004, Note_off_c, 3, 57, 64
5, 271004, Note_off_c, 3, 53, 64
5, 271008, Note_on_c, 3, 60, 80
5, 271100, Note_off_c, 3, 60, 64
5, 271104, Note_on_c, 3, 57, 80
5, 271104, Note_on_c, 3, 53, 80
5, 271196, Note_off_c, 3, 57, 64
5, 271196, Note_off_c, 3, 53, 64
5, 271200, Note_on_c, 3, 60, 80
5, 271292, Note_off_c, 3, 60, 64
5, 271296, Note_on_c, 3, 57, 80
5, 271296, Note_on_c, 3, 53, 80
5, 271388, Note_off_c, 3, 57, 64
5, 271388, Note_off_c, 3, 53, 64
5, 271392, Note_on_c, 3, 60, 80
5, 271484, Note_off_c, 3, 60, 64
5, 271680, Note_on_c, 3, 48, 80
5, 271720, Note_off_c, 3, 48, 64
5, 271728, Note_on_c, 3, 50, 80
5, 271768, Note_off_c, 3, 50, 64
5, 271776, Note_on_c, 3, 52, 80
5, 271816, Note_off_c, 3, 52, 64
5, 271824, Note_on_c, 3, 53, 80
5, 271864, Note_off_c, 3, 53, 64
5, 271872, Note_on_c, 3, 55, 80
5, 272252, Note_off_c, 3, 55, 64
5, 272256, Note_on_c, 3, 52, 80
5, 272444, Note_off_c, 3, 52, 64
5, 272640, Note_on_c, 3, 46, 80
5, 272828, Note_off_c, 3, 46, 64
5, 273024, Note_on_c, 3, 43, 80
5, 273212, Note_off_c, 3, 43, 64
5, 273408, Note_on_c, 3, 41, 80
5, 273788, Note_off_c, 3, 41, 64
5, 273792, Note_on_c, 3, 57, 80
5, 273792, Note_on_c, 3, 53, 80
5, 273884, Note_off_c, 3, 57, 64
5, 273884, Note_off_c, 3, 53, 64
5, 273888, Note_on_c, 3, 60, 80
5, 273980, Note_off_c, 3, 60, 64
5, 273984, Note_on_c, 3, 57, 80
5, 273984, Note_on_c, 3, 53, 80
5, 274076, Note_off_c, 3, 57, 64
5, 274076, Note_off_c, 3, 53, 64
5, 274080, Note_on_c, 3, 60, 80
5, 274172, Note_off_c, 3, 60, 64
5, 274176, Note_on_c, 3, 57, 80
5, 274176, Note_on_c, 3, 53, 80
5, 274268, Note_off_c, 3, 57, 64
5, 274268, Note_off_c, 3, 53, 64
5, 274272, Note_on_c, 3, 60, 80
5, 274364, Note_off_c, 3, 60, 64
5, 274368, Note_on_c, 3, 57, 80
5, 274368, Note_on_c, 3, 53, 80
5, 274460, Note_off_c, 3, 57, 64
5, 274460, Note_off_c, 3, 53, 64
5, 274464, Note_on_c, 3, 60, 80
5, 274556, Note_off_c, 3, 60, 64
5, 274752, Note_on_c, 3, 57, 80
5, 274808, Note_off_c, 3, 57, 64
5, 274816, Note_on_c, 3, 55, 80
5, 274872, Note_off_c, 3, 55, 64
5, 274880, Note_on_c, 3, 53, 80
5, 274936, Note_off_c, 3, 53, 64
5, 274944, Note_on_c, 3, 55, 80
5, 274944, Note_on_c, 3, 52, 80
5, 275516, Note_off_c, 3, 55, 64
5, 275516, Note_off_c, 3, 52, 64
5, 275520, Note_on_c, 3, 53, 80
5, 275520, Note_on_c, 3, 56, 80
5, 275708, Note_off_c, 3, 53, 64
5, 275708, Note_off_c, 3, 56, 64
5, 275712, Note_on_c, 3, 55, 80
5, 275712, Note_on_c, 3, 52, 80
5, 275900, Note_off_c, 3, 55, 64
5, 275900, Note_off_c, 3, 52, 64
5, 275904, Note_on_c, 3, 53, 80
5, 275904, Note_on_c, 3, 56, 80
5, 276092, Note_off_c, 3, 53, 64
5, 276092, Note_off_c, 3, 56, 64
5, 276096, Note_on_c, 3, 55, 80
5, 276096, Note_on_c, 3, 52, 80
5, 276284, Note_off_c, 3, 55, 64
5, 276284, Note_off_c, 3, 52, 64
5, 276288, Note_on_c, 3, 56, 80
5, 276288, Note_on_c, 3, 53, 80
5, 276476, Note_off_c, 3, 56, 64
5, 276476, Note_off_c, 3, 53, 64
5, 276480, Note_on_c, 3, 55, 80
5, 276480, Note_on_c, 3, 52, 80
5, 277052, Note_off_c, 3, 55, 64
5, 277052, Note_off_c, 3, 52, 64
5, 277056, Note_on_c, 3, 53, 80
5, 277056, Note_on_c, 3, 56, 80
5, 277244, Note_off_c, 3, 53, 64
5, 277244, Note_off_c, 3, 56, 64
5, 277248, Note_on_c, 3, 55, 80
5, 277248, Note_on_c, 3, 52, 80
5, 277436, Note_off_c, 3, 55, 64
5, 277436, Note_off_c, 3, 52, 64
5, 277436, Note_on_c, 3, 56, 80
5, 277440, Note_on_c, 3, 53, 80
5, 277624, Note_off_c, 3, 56, 64
5, 277628, Note_off_c, 3, 53, 64
5, 277632, Note_on_c, 3, 55, 80
5, 277632, Note_on_c, 3, 52, 80
5, 277820, Note_off_c, 3, 55, 64
5, 277820, Note_off_c, 3, 52, 64
5, 277824, Note_on_c, 3, 53, 80
5, 277824, Note_on_c, 3, 56, 80
5, 278012, Note_off_c, 3, 53, 64
5, 278012, Note_off_c, 3, 56, 64
5, 278016, Note_on_c, 3, 55, 80
5, 278016, Note_on_c, 3, 52, 80
5, 278204, Note_off_c, 3, 55, 64
5, 278204, Note_off_c, 3, 52, 64
5, 278208, Note_on_c, 3, 58, 66
5, 278588, Note_off_c, 3, 58, 64
5, 278592, Note_on_c, 3, 57, 66
5, 278780, Note_off_c, 3, 57, 64
5, 278784, Note_on_c, 3, 55, 66
5, 278972, Note_off_c, 3, 55, 64
5, 278976, Note_on_c, 3, 62, 66
5, 279356, Note_off_c, 3, 62, 64
5, 279360, Note_on_c, 3, 60, 66
5, 279548, Note_off_c, 3, 60, 64
5, 279552, Note_on_c, 3, 58, 66
5, 279740, Note_off_c, 3, 58, 64
5, 280512, Note_on_c, 3, 58, 66
5, 280512, Note_on_c, 3, 67, 66
5, 280892, Note_off_c, 3, 58, 64
5, 280892, Note_off_c, 3, 67, 64
5, 280896, Note_on_c, 3, 57, 66
5, 280896, Note_on_c, 3, 65, 66
5, 281084, Note_off_c, 3, 57, 64
5, 281084, Note_off_c, 3, 65, 64
5, 281088, Note_on_c, 3, 52, 66
5, 281088, Note_on_c, 3, 46, 66
5, 281088, Note_on_c, 3, 55, 66
5, 281180, Note_off_c, 3, 55, 64
5, 281276, Note_off_c, 3, 52, 64
5, 281280, Note_on_c, 3, 58, 66
5, 281372, Note_off_c, 3, 58, 64
5, 281468, Note_off_c, 3, 46, 64
5, 281472, Note_on_c, 3, 52, 66
5, 281472, Note_on_c, 3, 55, 66
5, 281564, Note_off_c, 3, 55, 64
5, 281660, Note_off_c, 3, 52, 64
5, 281664, Note_on_c, 3, 58, 66
5, 281756, Note_off_c, 3, 58, 64
5, 281856, Note_on_c, 3, 55, 66
5, 281856, Note_on_c, 3, 64, 66
5, 281948, Note_off_c, 3, 64, 64
5, 282048, Note_on_c, 3, 67, 66
5, 282140, Note_off_c, 3, 67, 64
5, 282236, Note_off_c, 3, 55, 64
5, 282240, Note_on_c, 3, 58, 66
5, 282240, Note_on_c, 3, 64, 66
5, 282332, Note_off_c, 3, 64, 64
5, 282428, Note_off_c, 3, 58, 64
5, 282432, Note_on_c, 3, 67, 66
5, 282524, Note_off_c, 3, 67, 64
5, 282624, Note_on_c, 3, 45, 66
5, 282624, Note_on_c, 3, 53, 66
5, 282716, Note_off_c, 3, 53, 64
5, 282816, Note_on_c, 3, 57, 66
5, 282908, Note_off_c, 3, 57, 64
5, 283004, Note_off_c, 3, 45, 64
5, 283008, Note_on_c, 3, 48, 66
5, 283008, Note_on_c, 3, 53, 66
5, 283100, Note_off_c, 3, 53, 64
5, 283196, Note_off_c, 3, 48, 64
5, 283200, Note_on_c, 3, 57, 66
5, 283292, Note_off_c, 3, 57, 64
5, 283392, Note_on_c, 3, 53, 66
5, 283392, Note_on_c, 3, 57, 66
5, 283484, Note_off_c, 3, 57, 64
5, 283580, Note_off_c, 3, 53, 64
5, 283584, Note_on_c, 3, 60, 66
5, 283676, Note_off_c, 3, 60, 64
5, 283776, Note_on_c, 3, 57, 66
5, 283776, Note_on_c, 3, 57, 66
5, 283868, Note_off_c, 3, 57, 64
5, 283964, Note_off_c, 3, 57, 64
5, 283968, Note_on_c, 3, 60, 66
5, 284060, Note_off_c, 3, 60, 64
5, 284160, Note_on_c, 3, 58, 66
5, 284160, Note_on_c, 3, 46, 66
5, 284540, Note_off_c, 3, 58, 64
5, 284540, Note_off_c, 3, 46, 64
5, 284544, Note_on_c, 3, 55, 66
5, 284544, Note_on_c, 3, 43, 74
5, 284924, Note_off_c, 3, 55, 64
5, 284924, Note_off_c, 3, 43, 64
5, 284928, Note_on_c, 3, 60, 66
5, 284928, Note_on_c, 3, 48, 66
5, 285308, Note_off_c, 3, 60, 64
5, 285308, Note_off_c, 3, 48, 64
5, 285312, Note_on_c, 3, 48, 66
5, 285312, Note_on_c, 3, 36, 78
5, 285692, Note_off_c, 3, 48, 64
5, 285692, Note_off_c, 3, 36, 64
5, 285696, Note_on_c, 3, 53, 66
5, 285696, Note_on_c, 3, 41, 75
5, 286460, Note_off_c, 3, 53, 64
5, 286460, Note_off_c, 3, 41, 64
5, 286464, Note_on_c, 3, 57, 66
5, 286464, Note_on_c, 3, 60, 66
5, 286464, Note_on_c, 3, 64, 66
5, 286652, Note_off_c, 3, 60, 64
5, 286652, Note_off_c, 3, 64, 64
5, 286656, Note_on_c, 3, 65, 66
5, 286656, Note_on_c, 3, 65, 66
5, 286844, Note_off_c, 3, 65, 64
5, 287228, Note_off_c, 3, 57, 64
5, 287232, Note_on_c, 3, 58, 66
5, 287612, Note_off_c, 3, 65, 64
5, 287616, Note_on_c, 3, 67, 66
5, 287804, Note_off_c, 3, 67, 64
5, 287808, Note_on_c, 3, 65, 66
5, 287996, Note_off_c, 3, 58, 64
5, 287996, Note_off_c, 3, 65, 64
5, 288000, Note_on_c, 3, 60, 66
5, 288000, Note_on_c, 3, 64, 66
5, 288188, Note_off_c, 3, 64, 64
5, 288192, Note_on_c, 3, 67, 66
5, 288380, Note_off_c, 3, 67, 64
5, 288764, Note_off_c, 3, 60, 64
5, 288768, Note_on_c, 3, 62, 66
5, 288768, Note_on_c, 3, 64, 66
5, 289148, Note_off_c, 3, 64, 64
5, 289152, Note_on_c, 3, 65, 66
5, 289532, Note_off_c, 3, 62, 64
5, 289532, Note_off_c, 3, 65, 64
5, 289536, Note_on_c, 3, 57, 66
5, 289920, Note_on_c, 3, 69, 66
5, 289920, Note_on_c, 3, 60, 66
5, 290108, Note_off_c, 3, 69, 64
5, 290112, Note_on_c, 3, 65, 66
5, 290300, Note_off_c, 3, 57, 64
5, 290300, Note_off_c, 3, 60, 64
5, 290300, Note_off_c, 3, 65, 64
5, 290304, Note_on_c, 3, 58, 66
5, 290496, Note_on_c, 3, 62, 66
5, 290684, Note_off_c, 3, 62, 64
5, 290688, Note_on_c, 3, 67, 66
5, 290876, Note_off_c, 3, 67, 64
5, 290880, Note_on_c, 3, 65, 66
5, 291068, Note_off_c, 3, 58, 64
5, 291068, Note_off_c, 3, 65, 64
5, 291072, Note_on_c, 3, 64, 66
5, 291072, Note_on_c, 3, 60, 66
5, 291260, Note_off_c, 3, 64, 64
5, 291264, Note_on_c, 3, 67, 66
5, 291452, Note_off_c, 3, 67, 64
5, 291456, Note_on_c, 3, 64, 66
5, 291836, Note_off_c, 3, 60, 64
5, 291840, Note_on_c, 3, 62, 66
5, 292028, Note_off_c, 3, 64, 64
5, 292032, Note_on_c, 3, 67, 66
5, 292220, Note_off_c, 3, 67, 64
5, 292224, Note_on_c, 3, 65, 66
5, 292604, Note_off_c, 3, 62, 64
5, 292604, Note_off_c, 3, 65, 64
5, 292608, Note_on_c, 3, 57, 66
5, 292608, Note_on_c, 3, 45, 66
5, 292608, Note_on_c, 3, 53, 66
5, 293372, Note_off_c, 3, 57, 64
5, 293372, Note_off_c, 3, 45, 64
5, 293376, Note_on_c, 3, 55, 66
5, 293376, Note_on_c, 3, 46, 66
5, 294140, Note_off_c, 3, 53, 64
5, 294140, Note_off_c, 3, 55, 64
5, 294140, Note_off_c, 3, 46, 64
5, 294144, Note_on_c, 3, 58, 66
5, 294144, Note_on_c, 3, 55, 66
5, 294144, Note_on_c, 3, 48, 66
5, 294908, Note_off_c, 3, 58, 64
5, 294908, Note_off_c, 3, 55, 64
5, 294908, Note_off_c, 3, 48, 64
5, 294912, Note_on_c, 3, 53, 66
5, 294912, Note_on_c, 3, 41, 75
5, 295292, Note_off_c, 3, 53, 64
5, 295292, Note_off_c, 3, 41, 64
5, 305664, Note_on_c, 3, 53, 66
5, 305664, Note_on_c, 3, 41, 74
5, 306044, Note_off_c, 3, 53, 64
5, 306044, Note_off_c, 3, 41, 64
5, 306432, Note_on_c, 3, 46, 66
5, 306432, Note_on_c, 3, 34, 79
5, 306812, Note_off_c, 3, 46, 64
5, 306812, Note_off_c, 3, 34, 64
5, 307200, Note_on_c, 3, 50, 66
5, 307200, Note_on_c, 3, 36, 78
5, 307200, Note_on_c, 3, 64, 66
5, 307200, Note_on_c, 3, 55, 66
5, 307388, Note_off_c, 3, 64, 64
5, 307388, Note_off_c, 3, 55, 64
5, 307392, Note_on_c, 3, 62, 66
5, 307392, Note_on_c, 3, 53, 66
5, 307580, Note_off_c, 3, 50, 64
5, 307580, Note_off_c, 3, 36, 64
5, 307580, Note_off_c, 3, 62, 64
5, 307580, Note_off_c, 3, 53, 64
5, 307584, Note_on_c, 3, 60, 66
5, 307584, Note_on_c, 3, 52, 66
5, 307772, Note_off_c, 3, 60, 64
5, 307772, Note_off_c, 3, 52, 64
5, 307776, Note_on_c, 3, 58, 66
5, 307776, Note_on_c, 3, 55, 66
5, 307964, Note_off_c, 3, 58, 64
5, 307964, Note_off_c, 3, 55, 64
5, 307968, Note_on_c, 3, 57, 66
5, 307968, Note_on_c, 3, 53, 66
5, 308156, Note_off_c, 3, 57, 64
5, 308156, Note_off_c, 3, 53, 64
5, 308160, Note_on_c, 3, 55, 66
5, 308160, Note_on_c, 3, 52, 66
5, 308348, Note_off_c, 3, 55, 64
5, 308348, Note_off_c, 3, 52, 64
5, 308352, Note_on_c, 3, 53, 66
5, 308352, Note_on_c, 3, 50, 66
5, 308540, Note_off_c, 3, 53, 64
5, 308540, Note_off_c, 3, 50, 64
5, 308544, Note_on_c, 3, 52, 66
5, 308544, Note_on_c, 3, 48, 66
5, 308732, Note_off_c, 3, 52, 64
5, 308732, Note_off_c, 3, 48, 64
5, 308736, Note_on_c, 3, 50, 66
5, 309116, Note_off_c, 3, 50, 64
5, 310080, Note_on_c, 3, 36, 78
5, 310140, Note_off_c, 3, 36, 64
5, 310144, Note_on_c, 3, 38, 76
5, 310204, Note_off_c, 3, 38, 64
5, 310208, Note_on_c, 3, 40, 75
5, 310268, Note_off_c, 3, 40, 64
5, 310272, Note_on_c, 3, 41, 75
5, 311036, Note_off_c, 3, 41, 64
5, 311616, Note_on_c, 3, 36, 78
5, 311676, Note_off_c, 3, 36, 64
5, 311680, Note_on_c, 3, 38, 76
5, 311740, Note_off_c, 3, 38, 64
5, 311744, Note_on_c, 3, 40, 75
5, 311804, Note_off_c, 3, 40, 64
5, 311808, Note_on_c, 3, 41, 75
5, 312572, Note_off_c, 3, 41, 64
5, 313344, Note_on_c, 3, 50, 80
5, 313344, Note_on_c, 3, 38, 87
5, 313724, Note_off_c, 3, 50, 64
5, 313724, Note_off_c, 3, 38, 64
5, 313920, Note_on_c, 3, 33, 81
5, 313980, Note_off_c, 3, 33, 64
5, 313984, Note_on_c, 3, 35, 80
5, 314044, Note_off_c, 3, 35, 64
5, 314048, Note_on_c, 3, 37, 78
5, 314108, Note_off_c, 3, 37, 64
5, 314112, Note_on_c, 3, 38, 76
5, 314492, Note_off_c, 3, 38, 64
5, 314688, Note_on_c, 3, 33, 81
5, 314748, Note_off_c, 3, 33, 64
5, 314752, Note_on_c, 3, 35, 80
5, 314812, Note_off_c, 3, 35, 64
5, 314816, Note_on_c, 3, 37, 78
5, 314876, Note_off_c, 3, 37, 64
5, 314880, Note_on_c, 3, 38, 76
5, 315260, Note_off_c, 3, 38, 64
5, 331584, Note_on_c, 3, 38, 75
5, 331644, Note_off_c, 3, 38, 64
5, 331648, Note_on_c, 3, 40, 74
5, 331708, Note_off_c, 3, 40, 64
5, 331712, Note_on_c, 3, 42, 73
5, 331772, Note_off_c, 3, 42, 64
5, 331776, Note_on_c, 3, 43, 72
5, 332540, Note_off_c, 3, 43, 64
5, 333120, Note_on_c, 3, 38, 75
5, 333180, Note_off_c, 3, 38, 64
5, 333184, Note_on_c, 3, 40, 74
5, 333244, Note_off_c, 3, 40, 64
5, 333248, Note_on_c, 3, 42, 73
5, 333308, Note_off_c, 3, 42, 64
5, 333312, Note_on_c, 3, 43, 72
5, 334076, Note_off_c, 3, 43, 64
5, 334848, Note_on_c, 3, 46, 86
5, 334848, Note_on_c, 3, 34, 94
5, 335228, Note_off_c, 3, 46, 64
5, 335228, Note_off_c, 3, 34, 64
5, 335424, Note_on_c, 3, 41, 90
5, 335484, Note_off_c, 3, 41, 64
5, 335488, Note_on_c, 3, 43, 89
5, 335548, Note_off_c, 3, 43, 64
5, 335552, Note_on_c, 3, 45, 88
5, 335612, Note_off_c, 3, 45, 64
5, 335616, Note_on_c, 3, 46, 87
5, 335616, Note_on_c, 3, 34, 94
5, 335996, Note_off_c, 3, 46, 64
5, 335996, Note_off_c, 3, 34, 64
5, 336192, Note_on_c, 3, 41, 90
5, 336252, Note_off_c, 3, 41, 64
5, 336256, Note_on_c, 3, 43, 89
5, 336316, Note_off_c, 3, 43, 64
5, 336320, Note_on_c, 3, 45, 88
5, 336380, Note_off_c, 3, 45, 64
5, 336384, Note_on_c, 3, 46, 66
5, 336384, Note_on_c, 3, 34, 79
5, 336764, Note_off_c, 3, 46, 64
5, 336764, Note_off_c, 3, 34, 64
5, 336768, Note_on_c, 3, 50, 66
5, 336768, Note_on_c, 3, 46, 66
5, 337148, Note_off_c, 3, 50, 64
5, 337148, Note_off_c, 3, 46, 64
5, 337152, Note_on_c, 3, 51, 66
5, 337152, Note_on_c, 3, 48, 66
5, 337532, Note_off_c, 3, 51, 64
5, 337532, Note_off_c, 3, 48, 64
5, 337536, Note_on_c, 3, 53, 66
5, 337536, Note_on_c, 3, 50, 66
5, 337916, Note_off_c, 3, 53, 64
5, 337916, Note_off_c, 3, 50, 64
5, 337920, Note_on_c, 3, 55, 66
5, 337920, Note_on_c, 3, 51, 66
5, 338300, Note_off_c, 3, 55, 64
5, 338300, Note_off_c, 3, 51, 64
5, 356352, Note_on_c, 3, 60, 66
5, 356352, Note_on_c, 3, 48, 66
5, 356352, Note_on_c, 3, 36, 78
5, 356732, Note_off_c, 3, 60, 64
5, 356732, Note_off_c, 3, 48, 64
5, 356732, Note_off_c, 3, 36, 64
5, 356928, Note_on_c, 3, 55, 66
5, 356928, Note_on_c, 3, 31, 84
5, 356988, Note_off_c, 3, 55, 64
5, 356988, Note_off_c, 3, 31, 64
5, 356992, Note_on_c, 3, 57, 66
5, 356992, Note_on_c, 3, 33, 82
5, 357052, Note_off_c, 3, 57, 64
5, 357052, Note_off_c, 3, 33, 64
5, 357056, Note_on_c, 3, 59, 66
5, 357056, Note_on_c, 3, 35, 81
5, 357116, Note_off_c, 3, 59, 64
5, 357116, Note_off_c, 3, 35, 64
5, 357120, Note_on_c, 3, 60, 66
5, 357120, Note_on_c, 3, 36, 80
5, 357500, Note_off_c, 3, 60, 64
5, 357500, Note_off_c, 3, 36, 64
5, 357696, Note_on_c, 3, 55, 66
5, 357696, Note_on_c, 3, 31, 84
5, 357756, Note_off_c, 3, 55, 64
5, 357756, Note_off_c, 3, 31, 64
5, 357760, Note_on_c, 3, 57, 66
5, 357760, Note_on_c, 3, 33, 82
5, 357820, Note_off_c, 3, 57, 64
5, 357820, Note_off_c, 3, 33, 64
5, 357824, Note_on_c, 3, 59, 66
5, 357824, Note_on_c, 3, 35, 81
5, 357884, Note_off_c, 3, 59, 64
5, 357884, Note_off_c, 3, 35, 64
5, 357888, Note_on_c, 3, 60, 66
5, 357888, Note_on_c, 3, 36, 80
5, 358268, Note_off_c, 3, 60, 64
5, 358268, Note_off_c, 3, 36, 64
5, 358464, Note_on_c, 3, 55, 66
5, 358464, Note_on_c, 3, 31, 84
5, 358524, Note_off_c, 3, 55, 64
5, 358524, Note_off_c, 3, 31, 64
5, 358528, Note_on_c, 3, 57, 66
5, 358528, Note_on_c, 3, 33, 82
5, 358588, Note_off_c, 3, 57, 64
5, 358588, Note_off_c, 3, 33, 64
5, 358592, Note_on_c, 3, 59, 66
5, 358592, Note_on_c, 3, 35, 81
5, 358652, Note_off_c, 3, 59, 64
5, 358652, Note_off_c, 3, 35, 64
5, 358656, Note_on_c, 3, 60, 66
5, 358656, Note_on_c, 3, 36, 80
5, 359036, Note_off_c, 3, 60, 64
5, 359036, Note_off_c, 3, 36, 64
5, 359040, Note_on_c, 3, 60, 66
5, 359040, Note_on_c, 3, 48, 66
5, 359040, Note_on_c, 3, 36, 78
5, 359420, Note_off_c, 3, 60, 64
5, 359420, Note_off_c, 3, 48, 64
5, 359420, Note_off_c, 3, 36, 64
5, 359424, Note_on_c, 3, 53, 66
5, 359424, Note_on_c, 3, 41, 74
5, 359424, Note_on_c, 3, 65, 66
5, 359804, Note_off_c, 3, 53, 64
5, 359804, Note_off_c, 3, 41, 64
5, 359804, Note_off_c, 3, 65, 64
5, 362496, Note_on_c, 3, 50, 66
5, 362496, Note_on_c, 3, 38, 76
5, 362876, Note_off_c, 3, 50, 64
5, 362876, Note_off_c, 3, 38, 64
5, 363072, Note_on_c, 3, 33, 81
5, 363132, Note_off_c, 3, 33, 64
5, 363136, Note_on_c, 3, 35, 80
5, 363196, Note_off_c, 3, 35, 64
5, 363200, Note_on_c, 3, 37, 79
5, 363260, Note_off_c, 3, 37, 64
5, 363264, Note_on_c, 3, 38, 76
5, 363644, Note_off_c, 3, 38, 64
5, 363840, Note_on_c, 3, 33, 81
5, 363900, Note_off_c, 3, 33, 64
5, 363904, Note_on_c, 3, 35, 80
5, 363964, Note_off_c, 3, 35, 64
5, 363968, Note_on_c, 3, 37, 79
5, 364028, Note_off_c, 3, 37, 64
5, 364032, Note_on_c, 3, 38, 76
5, 364412, Note_off_c, 3, 38, 64
5, 364608, Note_on_c, 3, 33, 81
5, 364668, Note_off_c, 3, 33, 64
5, 364672, Note_on_c, 3, 35, 80
5, 364732, Note_off_c, 3, 35, 64
5, 364736, Note_on_c, 3, 37, 76
5, 364796, Note_off_c, 3, 37, 64
5, 364800, Note_on_c, 3, 38, 76
5, 365180, Note_off_c, 3, 38, 64
5, 365184, Note_on_c, 3, 50, 70
5, 365184, Note_on_c, 3, 38, 76
5, 365564, Note_off_c, 3, 50, 64
5, 365564, Note_off_c, 3, 38, 64
5, 368640, Note_on_c, 3, 52, 66
5, 368640, Note_on_c, 3, 40, 75
5, 369020, Note_off_c, 3, 52, 64
5, 369020, Note_off_c, 3, 40, 64
5, 369216, Note_on_c, 3, 35, 80
5, 369276, Note_off_c, 3, 35, 64
5, 369280, Note_on_c, 3, 37, 79
5, 369340, Note_off_c, 3, 37, 64
5, 369344, Note_on_c, 3, 39, 76
5, 369404, Note_off_c, 3, 39, 64
5, 369408, Note_on_c, 3, 40, 75
5, 369788, Note_off_c, 3, 40, 64
5, 369984, Note_on_c, 3, 35, 80
5, 370044, Note_off_c, 3, 35, 64
5, 370048, Note_on_c, 3, 37, 79
5, 370108, Note_off_c, 3, 37, 64
5, 370112, Note_on_c, 3, 39, 76
5, 370172, Note_off_c, 3, 39, 64
5, 370176, Note_on_c, 3, 40, 75
5, 370556, Note_off_c, 3, 40, 64
5, 370752, Note_on_c, 3, 35, 80
5, 370812, Note_off_c, 3, 35, 64
5, 370816, Note_on_c, 3, 37, 79
5, 370876, Note_off_c, 3, 37, 64
5, 370880, Note_on_c, 3, 39, 78
5, 370940, Note_off_c, 3, 39, 64
5, 370944, Note_on_c, 3, 40, 76
5, 371324, Note_off_c, 3, 40, 64
5, 371328, Note_on_c, 3, 52, 70
5, 371328, Note_on_c, 3, 40, 76
5, 371708, Note_off_c, 3, 52, 64
5, 371708, Note_off_c, 3, 40, 64
5, 371712, Note_on_c, 3, 45, 68
5, 371712, Note_on_c, 3, 33, 81
5, 372092, Note_off_c, 3, 33, 64
5, 372476, Note_off_c, 3, 45, 64
5, 372480, Note_on_c, 3, 57, 66
5, 372480, Note_on_c, 3, 45, 73
5, 373244, Note_off_c, 3, 57, 64
5, 373244, Note_off_c, 3, 45, 64
5, 373248, Note_on_c, 3, 45, 70
5, 373248, Note_on_c, 3, 57, 73
5, 374780, Note_off_c, 3, 45, 64
5, 374784, Note_on_c, 3, 65, 66
5, 374784, Note_on_c, 3, 62, 66
5, 375164, Note_off_c, 3, 65, 64
5, 375164, Note_off_c, 3, 62, 64
5, 376320, Note_on_c, 3, 62, 66
5, 376320, Note_on_c, 3, 65, 66
5, 377852, Note_off_c, 3, 57, 64
5, 377852, Note_off_c, 3, 62, 64
5, 377852, Note_off_c, 3, 65, 64
5, 377856, Note_on_c, 3, 62, 66
5, 377856, Note_on_c, 3, 50, 70
5, 379388, Note_off_c, 3, 62, 64
5, 379392, Note_on_c, 3, 58, 66
5, 379392, Note_on_c, 3, 62, 66
5, 380924, Note_off_c, 3, 50, 64
5, 380924, Note_off_c, 3, 58, 64
5, 380924, Note_off_c, 3, 62, 64
5, 380928, Note_on_c, 3, 57, 66
5, 380928, Note_on_c, 3, 52, 66
5, 380928, Note_on_c, 3, 45, 73
5, 381692, Note_off_c, 3, 57, 64
5, 381692, Note_off_c, 3, 52, 64
5, 381692, Note_off_c, 3, 45, 64
5, 381696, Note_on_c, 3, 62, 66
5, 381696, Note_on_c, 3, 57, 66
5, 381696, Note_on_c, 3, 53, 66
5, 382460, Note_off_c, 3, 62, 64
5, 382460, Note_off_c, 3, 57, 64
5, 382460, Note_off_c, 3, 53, 64
5, 382464, Note_on_c, 3, 61, 66
5, 382464, Note_on_c, 3, 57, 66
5, 382464, Note_on_c, 3, 52, 66
5, 383228, Note_off_c, 3, 61, 64
5, 383228, Note_off_c, 3, 57, 64
5, 383228, Note_off_c, 3, 52, 64
5, 383232, Note_on_c, 3, 62, 66
5, 383232, Note_on_c, 3, 57, 66
5, 383996, Note_off_c, 3, 62, 64
5, 383996, Note_off_c, 3, 57, 64
5, 384000, Note_on_c, 3, 61, 66
5, 384000, Note_on_c, 3, 45, 73
5, 384380, Note_off_c, 3, 61, 64
5, 384380, Note_off_c, 3, 45, 64
5, 390144, Note_on_c, 3, 57, 66
5, 390144, Note_on_c, 3, 53, 66
5, 390144, Note_on_c, 3, 50, 66
5, 390144, Note_on_c, 3, 38, 76
5, 390144, Note_on_c, 3, 62, 66
5, 390332, Note_off_c, 3, 62, 64
5, 390336, Note_on_c, 3, 62, 66
5, 390336, Note_on_c, 3, 57, 66
5, 390336, Note_on_c, 3, 53, 66
5, 390524, Note_off_c, 3, 57, 64
5, 390524, Note_off_c, 3, 53, 64
5, 390716, Note_off_c, 3, 62, 64
5, 390716, Note_off_c, 3, 57, 64
5, 390716, Note_off_c, 3, 53, 64
5, 390720, Note_on_c, 3, 62, 66
5, 390720, Note_on_c, 3, 57, 66
5, 390720, Note_on_c, 3, 53, 66
5, 390908, Note_off_c, 3, 50, 64
5, 390908, Note_off_c, 3, 38, 64
5, 391100, Note_off_c, 3, 62, 64
5, 391100, Note_off_c, 3, 57, 64
5, 391100, Note_off_c, 3, 53, 64
5, 391104, Note_on_c, 3, 62, 66
5, 391104, Note_on_c, 3, 57, 66
5, 391104, Note_on_c, 3, 53, 66
5, 391484, Note_off_c, 3, 62, 64
5, 391484, Note_off_c, 3, 57, 64
5, 391484, Note_off_c, 3, 53, 64
5, 391488, Note_on_c, 3, 62, 66
5, 391488, Note_on_c, 3, 57, 66
5, 391488, Note_on_c, 3, 53, 66
5, 391488, Note_on_c, 3, 33, 80
5, 391548, Note_off_c, 3, 33, 64
5, 391552, Note_on_c, 3, 35, 79
5, 391612, Note_off_c, 3, 35, 64
5, 391616, Note_on_c, 3, 37, 78
5, 391676, Note_off_c, 3, 37, 64
5, 391680, Note_on_c, 3, 38, 76
5, 391680, Note_on_c, 3, 62, 66
5, 391680, Note_on_c, 3, 57, 66
5, 391680, Note_on_c, 3, 53, 66
5, 391868, Note_off_c, 3, 53, 64
5, 391868, Note_off_c, 3, 57, 64
5, 391868, Note_off_c, 3, 62, 64
5, 391868, Note_off_c, 3, 62, 64
5, 391868, Note_off_c, 3, 57, 64
5, 391868, Note_off_c, 3, 53, 64
5, 391872, Note_on_c, 3, 62, 66
5, 391872, Note_on_c, 3, 57, 66
5, 391872, Note_on_c, 3, 53, 66
5, 392252, Note_off_c, 3, 62, 64
5, 392252, Note_off_c, 3, 57, 64
5, 392252, Note_off_c, 3, 53, 64
5, 392256, Note_on_c, 3, 57, 66
5, 392256, Note_on_c, 3, 53, 66
5, 392256, Note_on_c, 3, 62, 66
5, 392444, Note_off_c, 3, 38, 64
5, 392636, Note_off_c, 3, 57, 64
5, 392636, Note_off_c, 3, 53, 64
5, 392636, Note_off_c, 3, 62, 64
5, 392640, Note_on_c, 3, 62, 66
5, 392640, Note_on_c, 3, 57, 66
5, 392640, Note_on_c, 3, 53, 66
5, 393020, Note_off_c, 3, 62, 64
5, 393020, Note_off_c, 3, 57, 64
5, 393020, Note_off_c, 3, 53, 64
5, 393024, Note_on_c, 3, 62, 66
5, 393024, Note_on_c, 3, 57, 66
5, 393024, Note_on_c, 3, 53, 66
5, 393024, Note_on_c, 3, 33, 80
5, 393084, Note_off_c, 3, 33, 64
5, 393088, Note_on_c, 3, 35, 79
5, 393148, Note_off_c, 3, 35, 64
5, 393152, Note_on_c, 3, 37, 78
5, 393212, Note_off_c, 3, 37, 64
5, 393216, Note_on_c, 3, 38, 76
5, 393216, Note_on_c, 3, 62, 66
5, 393216, Note_on_c, 3, 57, 66
5, 393216, Note_on_c, 3, 53, 66
5, 393404, Note_off_c, 3, 53, 64
5, 393404, Note_off_c, 3, 57, 64
5, 393404, Note_off_c, 3, 62, 64
5, 393404, Note_off_c, 3, 62, 64
5, 393404, Note_off_c, 3, 57, 64
5, 393404, Note_off_c, 3, 53, 64
5, 393408, Note_on_c, 3, 57, 66
5, 393408, Note_on_c, 3, 53, 66
5, 393408, Note_on_c, 3, 57, 66
5, 393788, Note_off_c, 3, 57, 64
5, 393788, Note_off_c, 3, 53, 64
5, 393788, Note_off_c, 3, 57, 64
5, 393792, Note_on_c, 3, 57, 66
5, 393792, Note_on_c, 3, 50, 66
5, 393792, Note_on_c, 3, 65, 66
5, 393980, Note_off_c, 3, 38, 64
5, 394160, Note_on_c, 3, 64, 66
5, 394172, Note_off_c, 3, 57, 64
5, 394172, Note_off_c, 3, 50, 64
5, 394172, Note_off_c, 3, 65, 64
5, 394176, Note_on_c, 3, 52, 66
5, 394176, Note_on_c, 3, 57, 66
5, 394540, Note_off_c, 3, 64, 64
5, 394544, Note_on_c, 3, 62, 66
5, 394556, Note_off_c, 3, 52, 64
5, 394556, Note_off_c, 3, 57, 64
5, 394560, Note_on_c, 3, 53, 66
5, 394560, Note_on_c, 3, 57, 66
5, 394560, Note_on_c, 3, 33, 80
5, 394600, Note_off_c, 3, 33, 64
5, 394608, Note_on_c, 3, 35, 79
5, 394648, Note_off_c, 3, 35, 64
5, 394656, Note_on_c, 3, 37, 78
5, 394696, Note_off_c, 3, 37, 64
5, 394704, Note_on_c, 3, 38, 76
5, 394744, Note_off_c, 3, 38, 64
5, 394748, Note_off_c, 3, 53, 64
5, 394752, Note_on_c, 3, 55, 66
5, 394752, Note_on_c, 3, 40, 75
5, 394752, Note_on_c, 3, 57, 66
5, 394924, Note_off_c, 3, 62, 64
5, 394940, Note_off_c, 3, 57, 64
5, 394940, Note_off_c, 3, 55, 64
5, 394940, Note_off_c, 3, 57, 64
5, 394944, Note_on_c, 3, 61, 66
5, 394944, Note_on_c, 3, 57, 66
5, 394944, Note_on_c, 3, 55, 66
5, 395324, Note_off_c, 3, 61, 64
5, 395324, Note_off_c, 3, 57, 64
5, 395324, Note_off_c, 3, 55, 64
5, 395328, Note_on_c, 3, 61, 66
5, 395328, Note_on_c, 3, 55, 66
5, 395328, Note_on_c, 3, 57, 66
5, 395516, Note_off_c, 3, 40, 64
5, 395708, Note_off_c, 3, 61, 64
5, 395708, Note_off_c, 3, 55, 64
5, 395708, Note_off_c, 3, 57, 64
5, 395712, Note_on_c, 3, 57, 66
5, 395712, Note_on_c, 3, 55, 66
5, 395712, Note_on_c, 3, 61, 66
5, 396092, Note_off_c, 3, 57, 64
5, 396092, Note_off_c, 3, 55, 64
5, 396092, Note_off_c, 3, 61, 64
5, 396096, Note_on_c, 3, 57, 66
5, 396096, Note_on_c, 3, 63, 66
5, 396288, Note_on_c, 3, 49, 66
5, 396288, Note_on_c, 3, 37, 78
5, 396288, Note_on_c, 3, 57, 66
5, 396288, Note_on_c, 3, 55, 66
5, 396476, Note_off_c, 3, 57, 64
5, 396476, Note_off_c, 3, 63, 64
5, 396476, Note_off_c, 3, 57, 64
5, 396476, Note_off_c, 3, 55, 64
5, 396480, Note_on_c, 3, 64, 66
5, 396480, Note_on_c, 3, 57, 66
5, 396480, Note_on_c, 3, 55, 66
5, 396860, Note_off_c, 3, 64, 64
5, 396860, Note_off_c, 3, 57, 64
5, 396860, Note_off_c, 3, 55, 64
5, 396864, Note_on_c, 3, 57, 66
5, 396864, Note_on_c, 3, 64, 66
5, 396864, Note_on_c, 3, 55, 66
5, 397052, Note_off_c, 3, 49, 64
5, 397052, Note_off_c, 3, 37, 64
5, 397244, Note_off_c, 3, 57, 64
5, 397244, Note_off_c, 3, 64, 64
5, 397244, Note_off_c, 3, 55, 64
5, 397248, Note_on_c, 3, 64, 66
5, 397248, Note_on_c, 3, 57, 66
5, 397248, Note_on_c, 3, 55, 66
5, 397628, Note_off_c, 3, 64, 64
5, 397628, Note_off_c, 3, 57, 64
5, 397628, Note_off_c, 3, 55, 64
5, 397632, Note_on_c, 3, 57, 66
5, 397632, Note_on_c, 3, 55, 66
5, 397632, Note_on_c, 3, 64, 66
5, 397632, Note_on_c, 3, 45, 68
5, 397724, Note_off_c, 3, 45, 64
5, 397728, Note_on_c, 3, 47, 70
5, 397820, Note_off_c, 3, 47, 64
5, 397824, Note_on_c, 3, 49, 71
5, 397824, Note_on_c, 3, 37, 78
5, 397824, Note_on_c, 3, 57, 66
5, 397824, Note_on_c, 3, 64, 66
5, 398012, Note_off_c, 3, 55, 64
5, 398012, Note_off_c, 3, 57, 64
5, 398012, Note_off_c, 3, 64, 64
5, 398012, Note_off_c, 3, 57, 64
5, 398012, Note_off_c, 3, 64, 64
5, 398016, Note_on_c, 3, 64, 66
5, 398016, Note_on_c, 3, 57, 66
5, 398016, Note_on_c, 3, 55, 66
5, 398396, Note_off_c, 3, 64, 64
5, 398396, Note_off_c, 3, 57, 64
5, 398396, Note_off_c, 3, 55, 64
5, 398400, Note_on_c, 3, 57, 66
5, 398400, Note_on_c, 3, 55, 66
5, 398400, Note_on_c, 3, 64, 66
5, 398588, Note_off_c, 3, 49, 64
5, 398588, Note_off_c, 3, 37, 64
5, 398780, Note_off_c, 3, 57, 64
5, 398780, Note_off_c, 3, 55, 64
5, 398780, Note_off_c, 3, 64, 64
5, 398784, Note_on_c, 3, 57, 66
5, 398784, Note_on_c, 3, 55, 66
5, 398784, Note_on_c, 3, 64, 66
5, 399152, Note_on_c, 3, 55, 66
5, 399164, Note_off_c, 3, 57, 64
5, 399164, Note_off_c, 3, 55, 64
5, 399164, Note_off_c, 3, 64, 64
5, 399168, Note_on_c, 3, 64, 66
5, 399168, Note_on_c, 3, 57, 66
5, 399168, Note_on_c, 3, 45, 70
5, 399260, Note_off_c, 3, 45, 64
5, 399264, Note_on_c, 3, 47, 71
5, 399356, Note_off_c, 3, 47, 64
5, 399360, Note_on_c, 3, 49, 72
5, 399360, Note_on_c, 3, 37, 78
5, 399360, Note_on_c, 3, 64, 66
5, 399360, Note_on_c, 3, 57, 66
5, 399532, Note_off_c, 3, 55, 64
5, 399548, Note_off_c, 3, 57, 64
5, 399548, Note_off_c, 3, 64, 64
5, 399548, Note_off_c, 3, 64, 64
5, 399548, Note_off_c, 3, 57, 64
5, 399552, Note_on_c, 3, 57, 66
5, 399552, Note_on_c, 3, 57, 66
5, 399932, Note_off_c, 3, 57, 64
5, 399932, Note_off_c, 3, 57, 64
5, 399936, Note_on_c, 3, 67, 66
5, 399936, Note_on_c, 3, 52, 66
5, 399936, Note_on_c, 3, 57, 66
5, 400124, Note_off_c, 3, 49, 64
5, 400124, Note_off_c, 3, 37, 64
5, 400316, Note_off_c, 3, 67, 64
5, 400316, Note_off_c, 3, 52, 64
5, 400316, Note_off_c, 3, 57, 64
5, 400320, Note_on_c, 3, 65, 66
5, 400320, Note_on_c, 3, 57, 66
5, 400320, Note_on_c, 3, 53, 66
5, 400700, Note_off_c, 3, 65, 64
5, 400700, Note_off_c, 3, 57, 64
5, 400700, Note_off_c, 3, 53, 64
5, 400704, Note_on_c, 3, 64, 66
5, 400704, Note_on_c, 3, 57, 66
5, 400704, Note_on_c, 3, 55, 66
5, 400704, Note_on_c, 3, 45, 66
5, 400768, Note_off_c, 3, 45, 64
5, 400768, Note_on_c, 3, 47, 66
5, 400768, Note_on_c, 3, 47, 66
5, 400768, Note_on_c, 3, 47, 66
5, 400832, Note_off_c, 3, 47, 64
5, 400832, Note_off_c, 3, 47, 64
5, 400832, Note_off_c, 3, 47, 64
5, 400832, Note_on_c, 3, 49, 66
5, 400832, Note_on_c, 3, 49, 66
5, 400832, Note_on_c, 3, 49, 66
5, 400896, Note_off_c, 3, 55, 64
5, 400896, Note_off_c, 3, 49, 64
5, 400896, Note_off_c, 3, 49, 64
5, 400896, Note_off_c, 3, 49, 64
5, 400896, Note_on_c, 3, 50, 66
5, 400896, Note_on_c, 3, 38, 76
5, 400896, Note_on_c, 3, 53, 66
5, 400896, Note_on_c, 3, 64, 66
5, 400896, Note_on_c, 3, 57, 66
5, 401084, Note_off_c, 3, 57, 64
5, 401084, Note_off_c, 3, 64, 64
5, 401084, Note_off_c, 3, 53, 64
5, 401084, Note_off_c, 3, 64, 64
5, 401084, Note_off_c, 3, 57, 64
5, 401088, Note_on_c, 3, 53, 66
5, 401088, Note_on_c, 3, 62, 66
5, 401088, Note_on_c, 3, 57, 66
5, 401468, Note_off_c, 3, 53, 64
5, 401468, Note_off_c, 3, 62, 64
5, 401468, Note_off_c, 3, 57, 64
5, 401472, Note_on_c, 3, 57, 66
5, 401472, Note_on_c, 3, 53, 66
5, 401472, Note_on_c, 3, 62, 66
5, 401660, Note_off_c, 3, 50, 64
5, 401660, Note_off_c, 3, 38, 64
5, 401852, Note_off_c, 3, 57, 64
5, 401852, Note_off_c, 3, 53, 64
5, 401852, Note_off_c, 3, 62, 64
5, 401856, Note_on_c, 3, 62, 66
5, 401856, Note_on_c, 3, 57, 66
5, 401856, Note_on_c, 3, 53, 66
5, 402044, Note_off_c, 3, 62, 64
5, 402044, Note_off_c, 3, 57, 64
5, 402044, Note_off_c, 3, 53, 64
5, 402240, Note_on_c, 3, 50, 66
5, 402300, Note_off_c, 3, 50, 64
5, 402304, Note_on_c, 3, 52, 66
5, 402364, Note_off_c, 3, 52, 64
5, 402368, Note_on_c, 3, 53, 66
5, 402428, Note_off_c, 3, 53, 64
5, 402432, Note_on_c, 3, 55, 66
5, 402812, Note_off_c, 3, 55, 64
5, 403008, Note_on_c, 3, 52, 66
5, 403068, Note_off_c, 3, 52, 64
5, 403072, Note_on_c, 3, 53, 66
5, 403132, Note_off_c, 3, 53, 64
5, 403136, Note_on_c, 3, 55, 66
5, 403196, Note_off_c, 3, 55, 64
5, 403200, Note_on_c, 3, 57, 66
5, 403580, Note_off_c, 3, 57, 64
5, 403776, Note_on_c, 3, 54, 66
5, 403836, Note_off_c, 3, 54, 64
5, 403840, Note_on_c, 3, 55, 66
5, 403900, Note_off_c, 3, 55, 64
5, 403904, Note_on_c, 3, 57, 66
5, 403964, Note_off_c, 3, 57, 64
5, 403968, Note_on_c, 3, 58, 66
5, 403968, Note_on_c, 3, 46, 66
5, 404732, Note_off_c, 3, 58, 64
5, 404732, Note_off_c, 3, 46, 64
5, 405312, Note_on_c, 3, 52, 66
5, 405372, Note_off_c, 3, 52, 64
5, 405376, Note_on_c, 3, 53, 66
5, 405436, Note_off_c, 3, 53, 64
5, 405440, Note_on_c, 3, 55, 66
5, 405500, Note_off_c, 3, 55, 64
5, 405504, Note_on_c, 3, 57, 66
5, 405884, Note_off_c, 3, 57, 64
5, 406080, Note_on_c, 3, 54, 66
5, 406140, Note_off_c, 3, 54, 64
5, 406144, Note_on_c, 3, 55, 66
5, 406204, Note_off_c, 3, 55, 64
5, 406208, Note_on_c, 3, 57, 66
5, 406268, Note_off_c, 3, 57, 64
5, 406272, Note_on_c, 3, 58, 66
5, 406652, Note_off_c, 3, 58, 64
5, 406848, Note_on_c, 3, 56, 66
5, 406908, Note_off_c, 3, 56, 64
5, 406912, Note_on_c, 3, 57, 66
5, 406972, Note_off_c, 3, 57, 64
5, 406976, Note_on_c, 3, 59, 66
5, 407036, Note_off_c, 3, 59, 64
5, 407040, Note_on_c, 3, 60, 66
5, 407040, Note_on_c, 3, 48, 66
5, 407804, Note_off_c, 3, 60, 64
5, 407804, Note_off_c, 3, 48, 64
5, 408384, Note_on_c, 3, 57, 66
5, 408444, Note_off_c, 3, 57, 64
5, 408448, Note_on_c, 3, 59, 66
5, 408508, Note_off_c, 3, 59, 64
5, 408512, Note_on_c, 3, 60, 66
5, 408572, Note_off_c, 3, 60, 64
5, 408576, Note_on_c, 3, 62, 66
5, 408956, Note_off_c, 3, 62, 64
5, 409152, Note_on_c, 3, 59, 66
5, 409212, Note_off_c, 3, 59, 64
5, 409216, Note_on_c, 3, 60, 66
5, 409276, Note_off_c, 3, 60, 64
5, 409280, Note_on_c, 3, 62, 66
5, 409340, Note_off_c, 3, 62, 64
5, 409344, Note_on_c, 3, 64, 66
5, 409724, Note_off_c, 3, 64, 64
5, 409920, Note_on_c, 3, 61, 66
5, 409980, Note_off_c, 3, 61, 64
5, 409984, Note_on_c, 3, 62, 66
5, 410044, Note_off_c, 3, 62, 64
5, 410048, Note_on_c, 3, 64, 66
5, 410108, Note_off_c, 3, 64, 64
5, 410112, Note_on_c, 3, 65, 66
5, 410492, Note_off_c, 3, 65, 64
5, 410496, Note_on_c, 3, 62, 66
5, 410496, Note_on_c, 3, 53, 66
5, 410876, Note_off_c, 3, 53, 64
5, 410880, Note_on_c, 3, 55, 66
5, 411260, Note_off_c, 3, 62, 64
5, 411260, Note_off_c, 3, 55, 64
5, 411264, Note_on_c, 3, 55, 66
5, 411264, Note_on_c, 3, 62, 66
5, 411644, Note_off_c, 3, 55, 64
5, 411648, Note_on_c, 3, 57, 66
5, 411836, Note_off_c, 3, 62, 64
5, 412028, Note_off_c, 3, 57, 64
5, 412032, Note_on_c, 3, 57, 66
5, 412412, Note_off_c, 3, 57, 64
5, 412416, Note_on_c, 3, 45, 66
5, 412796, Note_off_c, 3, 45, 64
5, 412992, Note_on_c, 3, 33, 94
5, 413052, Note_off_c, 3, 33, 64
5, 413056, Note_on_c, 3, 35, 93
5, 413116, Note_off_c, 3, 35, 64
5, 413120, Note_on_c, 3, 37, 92
5, 413180, Note_off_c, 3, 37, 64
5, 413184, Note_on_c, 3, 38, 90
5, 413564, Note_off_c, 3, 38, 64
5, 413568, Note_on_c, 3, 53, 86
5, 413660, Note_off_c, 3, 53, 64
5, 413664, Note_on_c, 3, 57, 86
5, 413756, Note_off_c, 3, 57, 64
5, 413760, Note_on_c, 3, 53, 86
5, 413824, Note_on_c, 3, 57, 86
5, 413852, Note_off_c, 3, 53, 64
5, 413916, Note_off_c, 3, 57, 64
5, 413952, Note_on_c, 3, 53, 86
5, 414044, Note_off_c, 3, 53, 64
5, 414048, Note_on_c, 3, 57, 86
5, 414140, Note_off_c, 3, 57, 64
5, 414144, Note_on_c, 3, 53, 86
5, 414236, Note_off_c, 3, 53, 64
5, 414240, Note_on_c, 3, 57, 86
5, 414332, Note_off_c, 3, 57, 64
5, 414336, Note_on_c, 3, 53, 86
5, 414428, Note_off_c, 3, 53, 64
5, 414432, Note_on_c, 3, 57, 86
5, 414524, Note_off_c, 3, 57, 64
5, 414528, Note_on_c, 3, 45, 86
5, 414528, Note_on_c, 3, 53, 86
5, 414592, Note_off_c, 3, 45, 64
5, 414592, Note_on_c, 3, 47, 86
5, 414620, Note_off_c, 3, 53, 64
5, 414624, Note_on_c, 3, 57, 86
5, 414656, Note_off_c, 3, 47, 64
5, 414656, Note_on_c, 3, 49, 86
5, 414716, Note_off_c, 3, 57, 64
5, 414720, Note_off_c, 3, 49, 64
5, 414720, Note_on_c, 3, 50, 86
5, 414720, Note_on_c, 3, 53, 86
5, 414812, Note_off_c, 3, 53, 64
5, 414816, Note_on_c, 3, 57, 86
5, 414908, Note_off_c, 3, 57, 64
5, 414912, Note_on_c, 3, 53, 86
5, 415004, Note_off_c, 3, 53, 64
5, 415008, Note_on_c, 3, 57, 86
5, 415100, Note_off_c, 3, 50, 64
5, 415100, Note_off_c, 3, 57, 64
5, 415104, Note_on_c, 3, 53, 86
5, 415196, Note_off_c, 3, 53, 64
5, 415200, Note_on_c, 3, 57, 86
5, 415292, Note_off_c, 3, 57, 64
5, 415296, Note_on_c, 3, 53, 86
5, 415388, Note_off_c, 3, 53, 64
5, 415392, Note_on_c, 3, 57, 86
5, 415484, Note_off_c, 3, 57, 64
5, 415488, Note_on_c, 3, 53, 86
5, 415580, Note_off_c, 3, 53, 64
5, 415584, Note_on_c, 3, 57, 86
5, 415676, Note_off_c, 3, 57, 64
5, 415680, Note_on_c, 3, 53, 86
5, 415772, Note_off_c, 3, 53, 64
5, 415776, Note_on_c, 3, 57, 86
5, 415868, Note_off_c, 3, 57, 64
5, 415872, Note_on_c, 3, 53, 86
5, 415964, Note_off_c, 3, 53, 64
5, 415968, Note_on_c, 3, 57, 86
5, 416060, Note_off_c, 3, 57, 64
5, 416064, Note_on_c, 3, 53, 86
5, 416156, Note_off_c, 3, 53, 64
5, 416160, Note_on_c, 3, 57, 86
5, 416252, Note_off_c, 3, 57, 64
5, 416256, Note_on_c, 3, 53, 86
5, 416256, Note_on_c, 3, 50, 86
5, 416348, Note_off_c, 3, 53, 64
5, 416348, Note_off_c, 3, 50, 64
5, 416352, Note_on_c, 3, 57, 86
5, 416444, Note_off_c, 3, 57, 64
5, 416448, Note_on_c, 3, 53, 86
5, 416448, Note_on_c, 3, 50, 86
5, 416540, Note_off_c, 3, 53, 64
5, 416540, Note_off_c, 3, 50, 64
5, 416544, Note_on_c, 3, 57, 86
5, 416636, Note_off_c, 3, 57, 64
5, 416640, Note_on_c, 3, 53, 86
5, 416640, Note_on_c, 3, 50, 86
5, 416732, Note_off_c, 3, 53, 64
5, 416732, Note_off_c, 3, 50, 64
5, 416736, Note_on_c, 3, 57, 86
5, 416828, Note_off_c, 3, 57, 64
5, 416832, Note_on_c, 3, 53, 86
5, 416832, Note_on_c, 3, 50, 86
5, 416924, Note_off_c, 3, 53, 64
5, 416924, Note_off_c, 3, 50, 64
5, 416928, Note_on_c, 3, 57, 86
5, 417020, Note_off_c, 3, 57, 64
5, 417024, Note_on_c, 3, 53, 86
5, 417024, Note_on_c, 3, 50, 86
5, 417116, Note_off_c, 3, 53, 64
5, 417116, Note_off_c, 3, 50, 64
5, 417120, Note_on_c, 3, 57, 86
5, 417212, Note_off_c, 3, 57, 64
5, 417216, Note_on_c, 3, 53, 86
5, 417216, Note_on_c, 3, 50, 86
5, 417308, Note_off_c, 3, 53, 64
5, 417308, Note_off_c, 3, 50, 64
5, 417312, Note_on_c, 3, 57, 86
5, 417404, Note_off_c, 3, 57, 64
5, 417600, Note_on_c, 3, 45, 86
5, 417640, Note_off_c, 3, 45, 64
5, 417648, Note_on_c, 3, 47, 86
5, 417688, Note_off_c, 3, 47, 64
5, 417696, Note_on_c, 3, 49, 86
5, 417736, Note_off_c, 3, 49, 64
5, 417744, Note_on_c, 3, 50, 86
5, 417784, Note_off_c, 3, 50, 64
5, 417792, Note_on_c, 3, 52, 86
5, 418176, Note_on_c, 3, 49, 87
5, 418556, Note_off_c, 3, 49, 64
5, 418560, Note_on_c, 3, 43, 89
5, 418940, Note_off_c, 3, 52, 64
5, 418940, Note_off_c, 3, 43, 64
5, 418944, Note_on_c, 3, 40, 90
5, 419324, Note_off_c, 3, 40, 64
5, 419328, Note_on_c, 3, 38, 91
5, 419712, Note_on_c, 3, 53, 86
5, 419712, Note_on_c, 3, 50, 86
5, 419804, Note_off_c, 3, 53, 64
5, 419804, Note_off_c, 3, 50, 64
5, 419808, Note_on_c, 3, 58, 86
5, 419900, Note_off_c, 3, 58, 64
5, 419904, Note_on_c, 3, 53, 86
5, 419904, Note_on_c, 3, 50, 86
5, 419996, Note_off_c, 3, 53, 64
5, 419996, Note_off_c, 3, 50, 64
5, 420000, Note_on_c, 3, 58, 86
5, 420092, Note_off_c, 3, 58, 64
5, 420096, Note_on_c, 3, 53, 86
5, 420096, Note_on_c, 3, 50, 86
5, 420188, Note_off_c, 3, 53, 64
5, 420188, Note_off_c, 3, 50, 64
5, 420192, Note_on_c, 3, 58, 86
5, 420284, Note_off_c, 3, 58, 64
5, 420288, Note_on_c, 3, 53, 86
5, 420288, Note_on_c, 3, 50, 86
5, 420380, Note_off_c, 3, 53, 64
5, 420380, Note_off_c, 3, 50, 64
5, 420384, Note_on_c, 3, 58, 86
5, 420476, Note_off_c, 3, 38, 64
5, 420476, Note_off_c, 3, 58, 64
5, 420672, Note_on_c, 3, 53, 86
5, 420732, Note_off_c, 3, 53, 64
5, 420736, Note_on_c, 3, 52, 86
5, 420796, Note_off_c, 3, 52, 64
5, 420800, Note_on_c, 3, 50, 86
5, 420860, Note_off_c, 3, 50, 64
5, 420864, Note_on_c, 3, 52, 86
5, 420864, Note_on_c, 3, 49, 86
5, 421436, Note_off_c, 3, 52, 64
5, 421436, Note_off_c, 3, 49, 64
5, 421440, Note_on_c, 3, 53, 86
5, 421440, Note_on_c, 3, 50, 86
5, 421628, Note_off_c, 3, 53, 64
5, 421628, Note_off_c, 3, 50, 64
5, 421632, Note_on_c, 3, 52, 86
5, 421632, Note_on_c, 3, 49, 86
5, 421820, Note_off_c, 3, 52, 64
5, 421820, Note_off_c, 3, 49, 64
5, 421824, Note_on_c, 3, 53, 86
5, 421824, Note_on_c, 3, 50, 86
5, 422012, Note_off_c, 3, 53, 64
5, 422012, Note_off_c, 3, 50, 64
5, 422016, Note_on_c, 3, 52, 86
5, 422016, Note_on_c, 3, 49, 86
5, 422204, Note_off_c, 3, 52, 64
5, 422204, Note_off_c, 3, 49, 64
5, 422208, Note_on_c, 3, 53, 86
5, 422208, Note_on_c, 3, 50, 86
5, 422396, Note_off_c, 3, 53, 64
5, 422396, Note_off_c, 3, 50, 64
5, 422400, Note_on_c, 3, 52, 86
5, 422400, Note_on_c, 3, 49, 86
5, 422972, Note_off_c, 3, 52, 64
5, 422972, Note_off_c, 3, 49, 64
5, 422976, Note_on_c, 3, 53, 86
5, 422976, Note_on_c, 3, 50, 86
5, 423164, Note_off_c, 3, 53, 64
5, 423164, Note_off_c, 3, 50, 64
5, 423168, Note_on_c, 3, 52, 86
5, 423168, Note_on_c, 3, 49, 86
5, 423356, Note_off_c, 3, 52, 64
5, 423356, Note_off_c, 3, 49, 64
5, 423360, Note_on_c, 3, 53, 86
5, 423360, Note_on_c, 3, 50, 86
5, 423548, Note_off_c, 3, 53, 64
5, 423548, Note_off_c, 3, 50, 64
5, 423552, Note_on_c, 3, 52, 86
5, 423552, Note_on_c, 3, 49, 86
5, 423740, Note_off_c, 3, 52, 64
5, 423740, Note_off_c, 3, 49, 64
5, 423744, Note_on_c, 3, 53, 86
5, 423744, Note_on_c, 3, 50, 86
5, 423932, Note_off_c, 3, 53, 64
5, 423932, Note_off_c, 3, 50, 64
5, 423936, Note_on_c, 3, 52, 86
5, 423936, Note_on_c, 3, 49, 86
5, 424316, Note_off_c, 3, 52, 64
5, 424316, Note_off_c, 3, 49, 64
5, 427008, Note_on_c, 3, 49, 66
5, 427008, Note_on_c, 3, 40, 74
5, 427100, Note_off_c, 3, 49, 64
5, 427196, Note_off_c, 3, 40, 64
5, 427200, Note_on_c, 3, 52, 66
5, 427292, Note_off_c, 3, 52, 64
5, 427392, Note_on_c, 3, 49, 66
5, 427392, Note_on_c, 3, 43, 74
5, 427484, Note_off_c, 3, 49, 64
5, 427580, Note_off_c, 3, 43, 64
5, 427584, Note_on_c, 3, 52, 66
5, 427676, Note_off_c, 3, 52, 64
5, 427776, Note_on_c, 3, 52, 66
5, 427776, Note_on_c, 3, 49, 70
5, 427868, Note_off_c, 3, 52, 64
5, 427964, Note_off_c, 3, 49, 64
5, 427968, Note_on_c, 3, 55, 66
5, 428060, Note_off_c, 3, 55, 64
5, 428160, Note_on_c, 3, 52, 66
5, 428160, Note_on_c, 3, 52, 66
5, 428252, Note_off_c, 3, 52, 64
5, 428348, Note_off_c, 3, 52, 64
5, 428352, Note_on_c, 3, 55, 66
5, 428444, Note_off_c, 3, 55, 64
5, 428544, Note_on_c, 3, 50, 66
5, 428544, Note_on_c, 3, 41, 75
5, 428636, Note_off_c, 3, 50, 64
5, 428732, Note_off_c, 3, 41, 64
5, 428736, Note_on_c, 3, 53, 66
5, 428828, Note_off_c, 3, 53, 64
5, 428928, Note_on_c, 3, 50, 66
5, 428928, Note_on_c, 3, 45, 73
5, 429020, Note_off_c, 3, 50, 64
5, 429116, Note_off_c, 3, 45, 64
5, 429120, Note_on_c, 3, 53, 66
5, 429212, Note_off_c, 3, 53, 64
5, 429312, Note_on_c, 3, 53, 66
5, 429312, Note_on_c, 3, 50, 66
5, 429404, Note_off_c, 3, 53, 64
5, 429500, Note_off_c, 3, 50, 64
5, 429504, Note_on_c, 3, 57, 66
5, 429596, Note_off_c, 3, 57, 64
5, 429696, Note_on_c, 3, 53, 66
5, 429696, Note_on_c, 3, 53, 66
5, 429788, Note_off_c, 3, 53, 64
5, 429884, Note_off_c, 3, 53, 64
5, 429888, Note_on_c, 3, 57, 66
5, 429980, Note_off_c, 3, 57, 64
5, 430080, Note_on_c, 3, 49, 66
5, 430080, Note_on_c, 3, 49, 66
5, 430172, Note_off_c, 3, 49, 64
5, 430272, Note_on_c, 3, 57, 66
5, 430272, Note_on_c, 3, 64, 66
5, 430364, Note_off_c, 3, 57, 64
5, 430364, Note_off_c, 3, 64, 64
5, 430460, Note_off_c, 3, 49, 64
5, 430464, Note_on_c, 3, 64, 66
5, 430464, Note_on_c, 3, 67, 66
5, 430556, Note_off_c, 3, 64, 64
5, 430556, Note_off_c, 3, 67, 64
5, 430656, Note_on_c, 3, 57, 66
5, 430656, Note_on_c, 3, 64, 66
5, 430748, Note_off_c, 3, 57, 64
5, 430748, Note_off_c, 3, 64, 64
5, 430848, Note_on_c, 3, 50, 66
5, 430848, Note_on_c, 3, 50, 66
5, 430940, Note_off_c, 3, 50, 64
5, 431040, Note_on_c, 3, 57, 66
5, 431040, Note_on_c, 3, 62, 66
5, 431132, Note_off_c, 3, 57, 64
5, 431132, Note_off_c, 3, 62, 64
5, 431228, Note_off_c, 3, 50, 64
5, 431232, Note_on_c, 3, 62, 66
5, 431232, Note_on_c, 3, 67, 66
5, 431324, Note_off_c, 3, 62, 64
5, 431324, Note_off_c, 3, 67, 64
5, 431424, Note_on_c, 3, 57, 66
5, 431424, Note_on_c, 3, 62, 66
5, 431516, Note_off_c, 3, 57, 64
5, 431516, Note_off_c, 3, 62, 64
5, 431616, Note_on_c, 3, 57, 66
5, 431616, Note_on_c, 3, 45, 73
5, 431996, Note_off_c, 3, 57, 64
5, 431996, Note_off_c, 3, 45, 64
5, 434688, Note_on_c, 3, 64, 66
5, 434688, Note_on_c, 3, 61, 66
5, 434688, Note_on_c, 3, 57, 66
5, 435068, Note_off_c, 3, 64, 64
5, 435068, Note_off_c, 3, 61, 64
5, 435068, Note_off_c, 3, 57, 64
5, 435072, Note_on_c, 3, 61, 66
5, 435072, Note_on_c, 3, 57, 66
5, 435072, Note_on_c, 3, 64, 66
5, 435356, Note_off_c, 3, 61, 64
5, 435356, Note_off_c, 3, 57, 64
5, 435356, Note_off_c, 3, 64, 64
5, 435360, Note_on_c, 3, 64, 78
5, 435360, Note_on_c, 3, 61, 78
5, 435360, Note_on_c, 3, 57, 78
5, 435452, Note_off_c, 3, 64, 64
5, 435452, Note_off_c, 3, 61, 64
5, 435452, Note_off_c, 3, 57, 64
5, 435456, Note_on_c, 3, 64, 66
5, 435456, Note_on_c, 3, 61, 66
5, 435456, Note_on_c, 3, 57, 66
5, 435836, Note_off_c, 3, 64, 64
5, 435836, Note_off_c, 3, 61, 64
5, 435836, Note_off_c, 3, 57, 64
5, 435840, Note_on_c, 3, 64, 66
5, 435840, Note_on_c, 3, 61, 66
5, 435840, Note_on_c, 3, 57, 66
5, 436220, Note_off_c, 3, 64, 64
5, 436220, Note_off_c, 3, 61, 64
5, 436220, Note_off_c, 3, 57, 64
5, 436224, Note_on_c, 3, 65, 66
5, 436224, Note_on_c, 3, 62, 66
5, 436224, Note_on_c, 3, 57, 66
5, 436604, Note_off_c, 3, 65, 64
5, 436604, Note_off_c, 3, 62, 64
5, 436604, Note_off_c, 3, 57, 64
5, 436608, Note_on_c, 3, 62, 66
5, 436608, Note_on_c, 3, 57, 66
5, 436608, Note_on_c, 3, 65, 66
5, 436892, Note_off_c, 3, 62, 64
5, 436892, Note_off_c, 3, 57, 64
5, 436892, Note_off_c, 3, 65, 64
5, 436896, Note_on_c, 3, 65, 78
5, 436896, Note_on_c, 3, 62, 78
5, 436896, Note_on_c, 3, 57, 78
5, 436988, Note_off_c, 3, 65, 64
5, 436988, Note_off_c, 3, 62, 64
5, 436988, Note_off_c, 3, 57, 64
5, 436992, Note_on_c, 3, 65, 66
5, 436992, Note_on_c, 3, 62, 66
5, 436992, Note_on_c, 3, 57, 66
5, 437372, Note_off_c, 3, 65, 64
5, 437372, Note_off_c, 3, 62, 64
5, 437372, Note_off_c, 3, 57, 64
5, 437376, Note_on_c, 3, 65, 66
5, 437376, Note_on_c, 3, 62, 66
5, 437376, Note_on_c, 3, 57, 66
5, 437756, Note_off_c, 3, 65, 64
5, 437756, Note_off_c, 3, 62, 64
5, 437756, Note_off_c, 3, 57, 64
5, 437760, Note_on_c, 3, 57, 86
5, 437760, Note_on_c, 3, 45, 88
5, 437948, Note_off_c, 3, 57, 64
5, 437948, Note_off_c, 3, 45, 64
5, 437952, Note_on_c, 3, 55, 86
5, 437952, Note_on_c, 3, 43, 89
5, 438140, Note_off_c, 3, 55, 64
5, 438140, Note_off_c, 3, 43, 64
5, 438144, Note_on_c, 3, 53, 86
5, 438144, Note_on_c, 3, 41, 90
5, 438332, Note_off_c, 3, 53, 64
5, 438332, Note_off_c, 3, 41, 64
5, 438336, Note_on_c, 3, 40, 86
5, 438336, Note_on_c, 3, 52, 91
5, 438524, Note_off_c, 3, 40, 64
5, 438524, Note_off_c, 3, 52, 64
5, 438528, Note_on_c, 3, 50, 86
5, 438528, Note_on_c, 3, 38, 92
5, 438716, Note_off_c, 3, 50, 64
5, 438716, Note_off_c, 3, 38, 64
5, 438720, Note_on_c, 3, 52, 86
5, 438720, Note_on_c, 3, 40, 91
5, 438908, Note_off_c, 3, 52, 64
5, 438908, Note_off_c, 3, 40, 64
5, 438912, Note_on_c, 3, 53, 86
5, 438912, Note_on_c, 3, 41, 90
5, 439100, Note_off_c, 3, 53, 64
5, 439100, Note_off_c, 3, 41, 64
5, 439104, Note_on_c, 3, 55, 86
5, 439104, Note_on_c, 3, 43, 89
5, 439292, Note_off_c, 3, 55, 64
5, 439292, Note_off_c, 3, 43, 64
5, 439296, Note_on_c, 3, 57, 86
5, 439296, Note_on_c, 3, 45, 88
5, 439484, Note_off_c, 3, 57, 64
5, 439484, Note_off_c, 3, 45, 64
5, 439488, Note_on_c, 3, 55, 86
5, 439488, Note_on_c, 3, 43, 89
5, 439676, Note_off_c, 3, 55, 64
5, 439676, Note_off_c, 3, 43, 64
5, 439680, Note_on_c, 3, 53, 86
5, 439680, Note_on_c, 3, 41, 90
5, 439868, Note_off_c, 3, 53, 64
5, 439868, Note_off_c, 3, 41, 64
5, 439872, Note_on_c, 3, 52, 86
5, 439872, Note_on_c, 3, 40, 91
5, 440060, Note_off_c, 3, 52, 64
5, 440060, Note_off_c, 3, 40, 64
5, 440064, Note_on_c, 3, 50, 86
5, 440064, Note_on_c, 3, 38, 92
5, 440252, Note_off_c, 3, 50, 64
5, 440252, Note_off_c, 3, 38, 64
5, 440256, Note_on_c, 3, 52, 86
5, 440256, Note_on_c, 3, 41, 91
5, 440444, Note_off_c, 3, 52, 64
5, 440444, Note_off_c, 3, 41, 64
5, 440448, Note_on_c, 3, 53, 86
5, 440448, Note_on_c, 3, 43, 90
5, 440636, Note_off_c, 3, 53, 64
5, 440636, Note_off_c, 3, 43, 64
5, 440640, Note_on_c, 3, 55, 86
5, 440640, Note_on_c, 3, 45, 89
5, 440828, Note_off_c, 3, 55, 64
5, 440828, Note_off_c, 3, 45, 64
5, 440832, Note_on_c, 3, 57, 86
5, 440832, Note_on_c, 3, 45, 88
5, 441212, Note_off_c, 3, 57, 64
5, 441212, Note_off_c, 3, 45, 64
5, 442368, Note_on_c, 3, 57, 66
5, 442368, Note_on_c, 3, 53, 66
5, 443132, Note_off_c, 3, 57, 64
5, 443132, Note_off_c, 3, 53, 64
5, 443136, Note_on_c, 3, 58, 66
5, 443136, Note_on_c, 3, 55, 66
5, 443900, Note_off_c, 3, 58, 64
5, 443900, Note_off_c, 3, 55, 64
5, 443904, Note_on_c, 3, 60, 66
5, 443904, Note_on_c, 3, 57, 66
5, 444284, Note_off_c, 3, 60, 64
5, 444284, Note_off_c, 3, 57, 64
5, 445440, Note_on_c, 3, 58, 66
5, 445440, Note_on_c, 3, 55, 66
5, 446204, Note_off_c, 3, 58, 64
5, 446204, Note_off_c, 3, 55, 64
5, 446208, Note_on_c, 3, 60, 66
5, 446208, Note_on_c, 3, 57, 66
5, 446972, Note_off_c, 3, 60, 64
5, 446972, Note_off_c, 3, 57, 64
5, 446976, Note_on_c, 3, 62, 66
5, 446976, Note_on_c, 3, 58, 66
5, 447356, Note_off_c, 3, 62, 64
5, 447356, Note_off_c, 3, 58, 64
5, 448512, Note_on_c, 3, 60, 66
5, 448512, Note_on_c, 3, 57, 66
5, 449276, Note_off_c, 3, 60, 64
5, 449276, Note_off_c, 3, 57, 64
5, 449280, Note_on_c, 3, 62, 66
5, 449280, Note_on_c, 3, 59, 66
5, 450044, Note_off_c, 3, 62, 64
5, 450044, Note_off_c, 3, 59, 64
5, 450048, Note_on_c, 3, 64, 66
5, 450048, Note_on_c, 3, 60, 66
5, 450428, Note_off_c, 3, 64, 64
5, 450428, Note_off_c, 3, 60, 64
5, 451584, Note_on_c, 3, 62, 66
5, 451584, Note_on_c, 3, 53, 66
5, 451584, Note_on_c, 3, 50, 66
5, 451964, Note_off_c, 3, 62, 64
5, 451964, Note_off_c, 3, 53, 64
5, 451964, Note_off_c, 3, 50, 64
5, 452352, Note_on_c, 3, 64, 66
5, 452352, Note_on_c, 3, 60, 66
5, 452352, Note_on_c, 3, 52, 66
5, 452732, Note_off_c, 3, 64, 64
5, 452732, Note_off_c, 3, 60, 64
5, 452732, Note_off_c, 3, 52, 64
5, 453120, Note_on_c, 3, 65, 66
5, 453120, Note_on_c, 3, 60, 66
5, 453120, Note_on_c, 3, 53, 66
5, 453500, Note_off_c, 3, 65, 64
5, 453500, Note_off_c, 3, 60, 64
5, 453500, Note_off_c, 3, 53, 64
5, 453888, Note_on_c, 3, 62, 66
5, 453888, Note_on_c, 3, 53, 66
5, 453888, Note_on_c, 3, 50, 66
5, 454268, Note_off_c, 3, 62, 64
5, 454268, Note_off_c, 3, 53, 64
5, 454268, Note_off_c, 3, 50, 64
5, 454656, Note_on_c, 3, 59, 66
5, 454656, Note_on_c, 3, 47, 66
5, 455036, Note_off_c, 3, 59, 64
5, 455036, Note_off_c, 3, 47, 64
5, 455424, Note_on_c, 3, 61, 66
5, 455424, Note_on_c, 3, 57, 66
5, 455424, Note_on_c, 3, 49, 66
5, 455804, Note_off_c, 3, 61, 64
5, 455804, Note_off_c, 3, 57, 64
5, 455804, Note_off_c, 3, 49, 64
5, 456192, Note_on_c, 3, 62, 66
5, 456192, Note_on_c, 3, 57, 66
5, 456192, Note_on_c, 3, 50, 66
5, 456572, Note_off_c, 3, 62, 64
5, 456572, Note_off_c, 3, 57, 64
5, 456572, Note_off_c, 3, 50, 64
5, 456960, Note_on_c, 3, 58, 66
5, 456960, Note_on_c, 3, 46, 66
5, 457340, Note_off_c, 3, 58, 64
5, 457340, Note_off_c, 3, 46, 64
5, 457728, Note_on_c, 3, 58, 66
5, 457728, Note_on_c, 3, 43, 74
5, 458108, Note_off_c, 3, 58, 64
5, 458108, Note_off_c, 3, 43, 64
5, 458496, Note_on_c, 3, 55, 66
5, 458496, Note_on_c, 3, 64, 66
5, 458684, Note_off_c, 3, 64, 64
5, 458688, Note_on_c, 3, 58, 66
5, 458876, Note_off_c, 3, 55, 64
5, 458876, Note_off_c, 3, 58, 64
5, 458880, Note_on_c, 3, 56, 66
5, 458880, Note_on_c, 3, 46, 66
5, 459260, Note_off_c, 3, 56, 64
5, 459260, Note_off_c, 3, 46, 64
5, 459264, Note_on_c, 3, 57, 66
5, 459264, Note_on_c, 3, 45, 73
5, 462332, Note_off_c, 3, 45, 64
5, 462332, Note_off_c, 3, 57, 64
5, 462336, Note_on_c, 3, 57, 66
5, 462336, Note_on_c, 3, 45, 73
5, 462716, Note_off_c, 3, 57, 64
5, 462716, Note_off_c, 3, 45, 64
5, 463104, Note_on_c, 3, 57, 66
5, 463104, Note_on_c, 3, 45, 73
5, 463484, Note_off_c, 3, 57, 64
5, 463484, Note_off_c, 3, 45, 64
5, 463872, Note_on_c, 3, 45, 73
5, 463872, Note_on_c, 3, 33, 80
5, 464252, Note_off_c, 3, 45, 64
5, 464252, Note_off_c, 3, 33, 64
5, 469248, Note_on_c, 3, 49, 66
5, 469248, Note_on_c, 3, 37, 78
5, 469436, Note_off_c, 3, 49, 64
5, 469436, Note_off_c, 3, 37, 64
5, 469632, Note_on_c, 3, 50, 66
5, 469632, Note_on_c, 3, 38, 76
5, 469820, Note_off_c, 3, 50, 64
5, 469820, Note_off_c, 3, 38, 64
5, 470016, Note_on_c, 3, 45, 66
5, 470016, Note_on_c, 3, 33, 81
5, 470396, Note_off_c, 3, 45, 64
5, 470396, Note_off_c, 3, 33, 64
5, 475392, Note_on_c, 3, 57, 66
5, 475392, Note_on_c, 3, 45, 66
5, 475580, Note_off_c, 3, 57, 64
5, 475580, Note_off_c, 3, 45, 64
5, 475776, Note_on_c, 3, 57, 66
5, 475776, Note_on_c, 3, 45, 66
5, 475964, Note_off_c, 3, 57, 64
5, 475964, Note_off_c, 3, 45, 64
5, 476160, Note_on_c, 3, 50, 66
5, 476160, Note_on_c, 3, 38, 76
5, 476540, Note_off_c, 3, 50, 64
5, 476540, Note_off_c, 3, 38, 64
5, 477696, Note_on_c, 3, 50, 66
5, 477884, Note_off_c, 3, 50, 64
5, 477888, Note_on_c, 3, 53, 66
5, 478076, Note_off_c, 3, 53, 64
5, 478080, Note_on_c, 3, 57, 66
5, 478268, Note_off_c, 3, 57, 64
5, 478272, Note_on_c, 3, 62, 66
5, 478460, Note_off_c, 3, 62, 64
5, 478464, Note_on_c, 3, 52, 66
5, 478652, Note_off_c, 3, 52, 64
5, 478656, Note_on_c, 3, 55, 66
5, 478844, Note_off_c, 3, 55, 64
5, 478848, Note_on_c, 3, 61, 66
5, 479036, Note_off_c, 3, 61, 64
5, 479040, Note_on_c, 3, 64, 66
5, 479228, Note_off_c, 3, 64, 64
5, 479232, Note_on_c, 3, 53, 66
5, 479420, Note_off_c, 3, 53, 64
5, 479424, Note_on_c, 3, 57, 66
5, 479612, Note_off_c, 3, 57, 64
5, 479616, Note_on_c, 3, 62, 66
5, 479804, Note_off_c, 3, 62, 64
5, 479808, Note_on_c, 3, 65, 66
5, 479996, Note_off_c, 3, 65, 64
5, 480000, Note_on_c, 3, 62, 66
5, 480188, Note_off_c, 3, 62, 64
5, 480192, Note_on_c, 3, 65, 66
5, 480380, Note_off_c, 3, 65, 64
5, 480384, Note_on_c, 3, 57, 66
5, 480572, Note_off_c, 3, 57, 64
5, 480576, Note_on_c, 3, 62, 66
5, 480764, Note_off_c, 3, 62, 64
5, 480768, Note_on_c, 3, 53, 66
5, 480956, Note_off_c, 3, 53, 64
5, 480960, Note_on_c, 3, 57, 66
5, 481148, Note_off_c, 3, 57, 64
5, 481152, Note_on_c, 3, 50, 66
5, 481340, Note_off_c, 3, 50, 64
5, 481344, Note_on_c, 3, 53, 66
5, 481532, Note_off_c, 3, 53, 64
5, 481536, Note_on_c, 3, 49, 66
5, 481724, Note_off_c, 3, 49, 64
5, 481728, Note_on_c, 3, 45, 66
5, 481916, Note_off_c, 3, 45, 64
5, 481920, Note_on_c, 3, 50, 66
5, 482108, Note_off_c, 3, 50, 64
5, 482112, Note_on_c, 3, 53, 66
5, 482300, Note_off_c, 3, 53, 64
5, 482304, Note_on_c, 3, 45, 66
5, 482492, Note_off_c, 3, 45, 64
5, 482496, Note_on_c, 3, 57, 66
5, 482684, Note_off_c, 3, 57, 64
5, 482688, Note_on_c, 3, 56, 66
5, 482876, Note_off_c, 3, 56, 64
5, 482880, Note_on_c, 3, 57, 66
5, 483068, Note_off_c, 3, 57, 64
5, 483072, Note_on_c, 3, 58, 66
5, 483260, Note_off_c, 3, 58, 64
5, 483264, Note_on_c, 3, 55, 66
5, 483452, Note_off_c, 3, 55, 64
5, 483456, Note_on_c, 3, 51, 66
5, 483644, Note_off_c, 3, 51, 64
5, 483648, Note_on_c, 3, 46, 66
5, 483836, Note_off_c, 3, 46, 64
5, 483840, Note_on_c, 3, 43, 66
5, 484028, Note_off_c, 3, 43, 64
5, 484032, Note_on_c, 3, 46, 66
5, 484220, Note_off_c, 3, 46, 64
5, 484224, Note_on_c, 3, 51, 66
5, 484412, Note_off_c, 3, 51, 64
5, 484416, Note_on_c, 3, 55, 66
5, 484604, Note_off_c, 3, 55, 64
5, 484608, Note_on_c, 3, 45, 66
5, 484796, Note_off_c, 3, 45, 64
5, 484800, Note_on_c, 3, 48, 66
5, 484988, Note_off_c, 3, 48, 64
5, 484992, Note_on_c, 3, 54, 66
5, 485180, Note_off_c, 3, 54, 64
5, 485184, Note_on_c, 3, 57, 66
5, 485372, Note_off_c, 3, 57, 64
5, 485376, Note_on_c, 3, 46, 66
5, 485564, Note_off_c, 3, 46, 64
5, 485568, Note_on_c, 3, 50, 66
5, 485756, Note_off_c, 3, 50, 64
5, 485760, Note_on_c, 3, 55, 66
5, 485948, Note_off_c, 3, 55, 64
5, 485952, Note_on_c, 3, 58, 66
5, 486140, Note_off_c, 3, 58, 64
5, 486144, Note_on_c, 3, 59, 66
5, 486332, Note_off_c, 3, 59, 64
5, 486336, Note_on_c, 3, 62, 66
5, 486524, Note_off_c, 3, 62, 64
5, 486528, Note_on_c, 3, 53, 66
5, 486716, Note_off_c, 3, 53, 64
5, 486720, Note_on_c, 3, 59, 66
5, 486908, Note_off_c, 3, 59, 64
5, 486912, Note_on_c, 3, 50, 66
5, 487100, Note_off_c, 3, 50, 64
5, 487104, Note_on_c, 3, 53, 66
5, 487292, Note_off_c, 3, 53, 64
5, 487296, Note_on_c, 3, 47, 66
5, 487484, Note_off_c, 3, 47, 64
5, 487488, Note_on_c, 3, 50, 66
5, 487676, Note_off_c, 3, 50, 64
5, 487680, Note_on_c, 3, 45, 66
5, 487868, Note_off_c, 3, 45, 64
5, 487872, Note_on_c, 3, 57, 66
5, 488060, Note_off_c, 3, 57, 64
5, 488064, Note_on_c, 3, 45, 66
5, 488252, Note_off_c, 3, 45, 64
5, 488256, Note_on_c, 3, 57, 66
5, 488444, Note_off_c, 3, 57, 64
5, 488448, Note_on_c, 3, 62, 66
5, 488448, Note_on_c, 3, 50, 66
5, 488828, Note_off_c, 3, 62, 64
5, 488828, Note_off_c, 3, 50, 64
5, 489984, Note_on_c, 3, 57, 66
5, 489984, Note_on_c, 3, 45, 73
5, 490172, Note_off_c, 3, 57, 64
5, 490172, Note_off_c, 3, 45, 64
5, 490176, Note_on_c, 3, 64, 66
5, 490364, Note_off_c, 3, 64, 64
5, 490368, Note_on_c, 3, 67, 66
5, 490556, Note_off_c, 3, 67, 64
5, 490560, Note_on_c, 3, 65, 66
5, 490748, Note_off_c, 3, 65, 64
5, 490752, Note_on_c, 3, 64, 66
5, 490940, Note_off_c, 3, 64, 64
5, 490944, Note_on_c, 3, 62, 66
5, 491132, Note_off_c, 3, 62, 64
5, 491136, Note_on_c, 3, 61, 66
5, 491324, Note_off_c, 3, 61, 64
5, 491520, Note_on_c, 3, 50, 66
5, 491520, Note_on_c, 3, 38, 76
5, 491900, Note_off_c, 3, 50, 64
5, 491900, Note_off_c, 3, 38, 64
5, 493056, Note_on_c, 3, 57, 66
5, 493056, Note_on_c, 3, 45, 72
5, 493244, Note_off_c, 3, 57, 64
5, 493244, Note_off_c, 3, 45, 64
5, 493248, Note_on_c, 3, 64, 66
5, 493436, Note_off_c, 3, 64, 64
5, 493440, Note_on_c, 3, 67, 66
5, 493628, Note_off_c, 3, 67, 64
5, 493632, Note_on_c, 3, 65, 66
5, 493820, Note_off_c, 3, 65, 64
5, 493824, Note_on_c, 3, 64, 66
5, 494012, Note_off_c, 3, 64, 64
5, 494016, Note_on_c, 3, 62, 66
5, 494204, Note_off_c, 3, 62, 64
5, 494208, Note_on_c, 3, 61, 66
5, 494396, Note_off_c, 3, 61, 64
5, 494592, Note_on_c, 3, 50, 66
5, 494592, Note_on_c, 3, 38, 76
5, 494780, Note_off_c, 3, 50, 64
5, 494780, Note_off_c, 3, 38, 64
5, 494784, Note_on_c, 3, 62, 66
5, 494972, Note_off_c, 3, 62, 64
5, 494976, Note_on_c, 3, 60, 66
5, 495164, Note_off_c, 3, 60, 64
5, 495168, Note_on_c, 3, 58, 66
5, 495356, Note_off_c, 3, 58, 64
5, 495360, Note_on_c, 3, 57, 66
5, 495548, Note_off_c, 3, 57, 64
5, 495552, Note_on_c, 3, 55, 66
5, 495740, Note_off_c, 3, 55, 64
5, 495744, Note_on_c, 3, 54, 66
5, 495932, Note_off_c, 3, 54, 64
5, 495936, Note_on_c, 3, 57, 66
5, 496124, Note_off_c, 3, 57, 64
5, 496128, Note_on_c, 3, 55, 66
5, 496128, Note_on_c, 3, 43, 73
5, 496316, Note_off_c, 3, 55, 64
5, 496316, Note_off_c, 3, 43, 64
5, 499584, Note_on_c, 3, 58, 66
5, 499584, Note_on_c, 3, 46, 66
5, 499676, Note_off_c, 3, 58, 64
5, 499676, Note_off_c, 3, 46, 64
5, 499776, Note_on_c, 3, 57, 66
5, 499776, Note_on_c, 3, 45, 66
5, 499868, Note_off_c, 3, 57, 64
5, 499868, Note_off_c, 3, 45, 64
5, 499968, Note_on_c, 3, 55, 66
5, 499968, Note_on_c, 3, 43, 66
5, 500156, Note_off_c, 3, 55, 64
5, 500156, Note_off_c, 3, 43, 64
5, 500352, Note_on_c, 3, 55, 66
5, 500352, Note_on_c, 3, 43, 66
5, 500444, Note_off_c, 3, 55, 64
5, 500444, Note_off_c, 3, 43, 64
5, 500528, Note_on_c, 3, 41, 66
5, 500544, Note_on_c, 3, 53, 66
5, 500620, Note_off_c, 3, 41, 64
5, 500636, Note_off_c, 3, 53, 64
5, 500736, Note_on_c, 3, 52, 66
5, 500736, Note_on_c, 3, 40, 66
5, 500924, Note_off_c, 3, 52, 64
5, 500924, Note_off_c, 3, 40, 64
5, 501120, Note_on_c, 3, 52, 66
5, 501120, Note_on_c, 3, 40, 66
5, 501212, Note_off_c, 3, 52, 64
5, 501212, Note_off_c, 3, 40, 64
5, 501312, Note_on_c, 3, 50, 66
5, 501312, Note_on_c, 3, 38, 66
5, 501404, Note_off_c, 3, 50, 64
5, 501404, Note_off_c, 3, 38, 64
5, 501504, Note_on_c, 3, 49, 66
5, 501504, Note_on_c, 3, 37, 66
5, 501596, Note_off_c, 3, 49, 64
5, 501596, Note_off_c, 3, 37, 64
5, 501888, Note_on_c, 3, 49, 66
5, 501888, Note_on_c, 3, 37, 66
5, 501980, Note_off_c, 3, 49, 64
5, 501980, Note_off_c, 3, 37, 64
5, 502064, Note_on_c, 3, 34, 66
5, 502064, Note_on_c, 3, 46, 66
5, 502156, Note_off_c, 3, 34, 64
5, 502156, Note_off_c, 3, 46, 64
5, 502272, Note_on_c, 3, 61, 66
5, 502272, Note_on_c, 3, 55, 66
5, 502272, Note_on_c, 3, 52, 66
5, 502272, Note_on_c, 3, 45, 72
5, 502272, Note_on_c, 3, 33, 80
5, 503036, Note_off_c, 3, 61, 64
5, 503036, Note_off_c, 3, 55, 64
5, 503036, Note_off_c, 3, 52, 64
5, 503036, Note_off_c, 3, 45, 64
5, 503036, Note_off_c, 3, 33, 64
5, 503040, Note_on_c, 3, 57, 66
5, 503040, Note_on_c, 3, 45, 73
5, 503804, Note_off_c, 3, 57, 64
5, 503804, Note_off_c, 3, 45, 64
5, 503808, Note_on_c, 3, 62, 66
5, 503808, Note_on_c, 3, 59, 66
5, 503808, Note_on_c, 3, 53, 66
5, 503808, Note_on_c, 3, 44, 74
5, 503808, Note_on_c, 3, 32, 80
5, 504572, Note_off_c, 3, 62, 64
5, 504572, Note_off_c, 3, 59, 64
5, 504572, Note_off_c, 3, 53, 64
5, 504572, Note_off_c, 3, 44, 64
5, 504572, Note_off_c, 3, 32, 64
5, 504576, Note_on_c, 3, 56, 66
5, 504576, Note_on_c, 3, 44, 74
5, 505340, Note_off_c, 3, 56, 64
5, 505340, Note_off_c, 3, 44, 64
5, 505344, Note_on_c, 3, 45, 72
5, 505344, Note_on_c, 3, 33, 80
5, 505724, Note_off_c, 3, 45, 64
5, 505724, Note_off_c, 3, 33, 64
5, 506112, Note_on_c, 3, 45, 66
5, 506112, Note_on_c, 3, 33, 80
5, 506492, Note_off_c, 3, 45, 64
5, 506492, Note_off_c, 3, 33, 64
5, 506880, Note_on_c, 3, 50, 66
5, 506880, Note_on_c, 3, 38, 76
5, 507260, Note_off_c, 3, 50, 64
5, 507260, Note_off_c, 3, 38, 64
5, 511488, Note_on_c, 3, 55, 66
5, 511488, Note_on_c, 3, 43, 74
5, 512252, Note_off_c, 3, 55, 64
5, 512252, Note_off_c, 3, 43, 64
5, 512256, Note_on_c, 3, 53, 66
5, 512256, Note_on_c, 3, 41, 75
5, 513020, Note_off_c, 3, 53, 64
5, 513020, Note_off_c, 3, 41, 64
5, 513024, Note_on_c, 3, 52, 66
5, 513024, Note_on_c, 3, 40, 76
5, 513788, Note_off_c, 3, 52, 64
5, 513788, Note_off_c, 3, 40, 64
5, 513792, Note_on_c, 3, 55, 66
5, 513792, Note_on_c, 3, 43, 74
5, 514556, Note_off_c, 3, 55, 64
5, 514556, Note_off_c, 3, 43, 64
5, 514560, Note_on_c, 3, 53, 66
5, 514560, Note_on_c, 3, 41, 75
5, 515324, Note_off_c, 3, 53, 64
5, 515324, Note_off_c, 3, 41, 64
5, 515328, Note_on_c, 3, 47, 66
5, 515328, Note_on_c, 3, 35, 79
5, 516092, Note_off_c, 3, 47, 64
5, 516092, Note_off_c, 3, 35, 64
5, 516096, Note_on_c, 3, 45, 66
5, 516096, Note_on_c, 3, 33, 80
5, 516476, Note_off_c, 3, 45, 64
5, 516476, Note_off_c, 3, 33, 64
5, 517632, Note_on_c, 3, 45, 66
5, 517632, Note_on_c, 3, 33, 80
5, 518012, Note_off_c, 3, 45, 64
5, 518012, Note_off_c, 3, 33, 64
5, 518016, Note_on_c, 3, 45, 66
5, 518016, Note_on_c, 3, 33, 80
5, 518396, Note_off_c, 3, 45, 64
5, 518396, Note_off_c, 3, 33, 64
5, 518400, Note_on_c, 3, 45, 66
5, 518400, Note_on_c, 3, 33, 80
5, 518780, Note_off_c, 3, 45, 64
5, 518780, Note_off_c, 3, 33, 64
5, 518784, Note_on_c, 3, 45, 66
5, 518784, Note_on_c, 3, 33, 80
5, 519164, Note_off_c, 3, 45, 64
5, 519164, Note_off_c, 3, 33, 64
5, 519168, Note_on_c, 3, 50, 66
5, 519168, Note_on_c, 3, 38, 76
5, 519548, Note_off_c, 3, 50, 64
5, 519548, Note_off_c, 3, 38, 64
5, 528384, Note_on_c, 3, 52, 66
5, 528384, Note_on_c, 3, 40, 75
5, 528768, Note_on_c, 3, 64, 66
5, 528768, Note_on_c, 3, 52, 66
5, 529916, Note_off_c, 3, 52, 64
5, 529916, Note_off_c, 3, 40, 64
5, 529916, Note_off_c, 3, 64, 64
5, 529916, Note_off_c, 3, 52, 64
5, 529920, Note_on_c, 3, 45, 86
5, 529920, Note_on_c, 3, 33, 90
5, 530304, Note_on_c, 3, 57, 86
5, 530304, Note_on_c, 3, 45, 86
5, 531452, Note_off_c, 3, 45, 64
5, 531452, Note_off_c, 3, 33, 64
5, 531452, Note_off_c, 3, 57, 64
5, 531452, Note_off_c, 3, 45, 64
5, 531456, Note_on_c, 3, 50, 86
5, 531456, Note_on_c, 3, 38, 91
5, 531840, Note_on_c, 3, 62, 86
5, 531840, Note_on_c, 3, 50, 86
5, 532988, Note_off_c, 3, 50, 64
5, 532988, Note_off_c, 3, 38, 64
5, 532988, Note_off_c, 3, 62, 64
5, 532988, Note_off_c, 3, 50, 64
5, 532992, Note_on_c, 3, 46, 86
5, 532992, Note_on_c, 3, 34, 86
5, 533376, Note_on_c, 3, 58, 66
5, 533376, Note_on_c, 3, 46, 66
5, 534524, Note_off_c, 3, 46, 64
5, 534524, Note_off_c, 3, 34, 64
5, 534524, Note_off_c, 3, 58, 64
5, 534524, Note_off_c, 3, 46, 64
5, 534528, Note_on_c, 3, 43, 66
5, 534528, Note_on_c, 3, 31, 80
5, 534908, Note_off_c, 3, 43, 64
5, 534908, Note_off_c, 3, 31, 64
5, 536064, Note_on_c, 3, 44, 66
5, 536064, Note_on_c, 3, 32, 80
5, 536444, Note_off_c, 3, 44, 64
5, 536444, Note_off_c, 3, 32, 64
5, 537600, Note_on_c, 3, 45, 86
5, 537600, Note_on_c, 3, 33, 92
5, 537980, Note_off_c, 3, 45, 64
5, 537980, Note_off_c, 3, 33, 64
5, 537980, Control_c, 3, 64, 127
5, 537984, Note_on_c, 3, 53, 70
5, 537984, Note_on_c, 3, 50, 70
5, 537984, Note_on_c, 3, 45, 70
5, 537984, Note_on_c, 3, 57, 70
5, 542588, Note_off_c, 3, 45, 64
5, 542588, Note_off_c, 3, 50, 64
5, 542588, Note_off_c, 3, 53, 64
5, 542588, Note_off_c, 3, 57, 64
5, 542592, Control_c, 3, 64, 0
5, 546624, Note_on_c, 3, 33, 90
5, 546688, Note_off_c, 3, 33, 64
5, 546688, Note_on_c, 3, 35, 89
5, 546752, Note_off_c, 3, 35, 64
5, 546752, Note_on_c, 3, 37, 88
5, 546816, Note_off_c, 3, 37, 64
5, 546816, Note_on_c, 3, 38, 87
5, 547196, Note_off_c, 3, 38, 64
5, 547200, Note_on_c, 3, 53, 86
5, 547292, Note_off_c, 3, 53, 64
5, 547296, Note_on_c, 3, 57, 86
5, 547388, Note_off_c, 3, 57, 64
5, 547392, Note_on_c, 3, 53, 86
5, 547484, Note_off_c, 3, 53, 64
5, 547488, Note_on_c, 3, 57, 86
5, 547580, Note_off_c, 3, 57, 64
5, 547584, Note_on_c, 3, 53, 86
5, 547676, Note_off_c, 3, 53, 64
5, 547680, Note_on_c, 3, 57, 86
5, 547772, Note_off_c, 3, 57, 64
5, 547776, Note_on_c, 3, 53, 86
5, 547868, Note_off_c, 3, 53, 64
5, 547872, Note_on_c, 3, 57, 86
5, 547964, Note_off_c, 3, 57, 64
5, 547968, Note_on_c, 3, 53, 86
5, 548060, Note_off_c, 3, 53, 64
5, 548064, Note_on_c, 3, 57, 86
5, 548156, Note_off_c, 3, 57, 64
5, 548160, Note_on_c, 3, 53, 86
5, 548160, Note_on_c, 3, 45, 86
5, 548220, Note_off_c, 3, 45, 64
5, 548224, Note_on_c, 3, 47, 86
5, 548252, Note_off_c, 3, 53, 64
5, 548256, Note_on_c, 3, 57, 86
5, 548284, Note_off_c, 3, 47, 64
5, 548288, Note_on_c, 3, 49, 86
5, 548348, Note_off_c, 3, 57, 64
5, 548348, Note_off_c, 3, 49, 64
5, 548352, Note_on_c, 3, 50, 86
5, 548352, Note_on_c, 3, 53, 86
5, 548444, Note_off_c, 3, 53, 64
5, 548448, Note_on_c, 3, 57, 86
5, 548540, Note_off_c, 3, 57, 64
5, 548544, Note_on_c, 3, 53, 86
5, 548636, Note_off_c, 3, 53, 64
5, 548640, Note_on_c, 3, 57, 86
5, 548732, Note_off_c, 3, 50, 64
5, 548732, Note_off_c, 3, 57, 64
5, 548736, Note_on_c, 3, 53, 86
5, 548828, Note_off_c, 3, 53, 64
5, 548832, Note_on_c, 3, 57, 86
5, 548924, Note_off_c, 3, 57, 64
5, 548928, Note_on_c, 3, 53, 86
5, 549020, Note_off_c, 3, 53, 64
5, 549024, Note_on_c, 3, 57, 86
5, 549116, Note_off_c, 3, 57, 64
5, 549120, Note_on_c, 3, 53, 86
5, 549212, Note_off_c, 3, 53, 64
5, 549216, Note_on_c, 3, 57, 86
5, 549308, Note_off_c, 3, 57, 64
5, 549312, Note_on_c, 3, 53, 86
5, 549404, Note_off_c, 3, 53, 64
5, 549408, Note_on_c, 3, 57, 86
5, 549500, Note_off_c, 3, 57, 64
5, 549504, Note_on_c, 3, 53, 86
5, 549596, Note_off_c, 3, 53, 64
5, 549600, Note_on_c, 3, 57, 86
5, 549692, Note_off_c, 3, 57, 64
5, 549696, Note_on_c, 3, 53, 86
5, 549788, Note_off_c, 3, 53, 64
5, 549792, Note_on_c, 3, 57, 86
5, 549884, Note_off_c, 3, 57, 64
5, 549888, Note_on_c, 3, 53, 86
5, 549888, Note_on_c, 3, 50, 86
5, 549980, Note_off_c, 3, 53, 64
5, 549980, Note_off_c, 3, 50, 64
5, 549984, Note_on_c, 3, 57, 86
5, 550076, Note_off_c, 3, 57, 64
5, 550080, Note_on_c, 3, 53, 86
5, 550080, Note_on_c, 3, 50, 86
5, 550172, Note_off_c, 3, 53, 64
5, 550172, Note_off_c, 3, 50, 64
5, 550176, Note_on_c, 3, 57, 86
5, 550268, Note_off_c, 3, 57, 64
5, 550272, Note_on_c, 3, 53, 86
5, 550272, Note_on_c, 3, 50, 86
5, 550364, Note_off_c, 3, 53, 64
5, 550364, Note_off_c, 3, 50, 64
5, 550368, Note_on_c, 3, 57, 86
5, 550460, Note_off_c, 3, 57, 64
5, 550464, Note_on_c, 3, 53, 86
5, 550464, Note_on_c, 3, 50, 86
5, 550556, Note_off_c, 3, 53, 64
5, 550556, Note_off_c, 3, 50, 64
5, 550560, Note_on_c, 3, 57, 86
5, 550652, Note_off_c, 3, 57, 64
5, 550656, Note_on_c, 3, 53, 86
5, 550656, Note_on_c, 3, 50, 86
5, 550748, Note_off_c, 3, 53, 64
5, 550748, Note_off_c, 3, 50, 64
5, 550752, Note_on_c, 3, 57, 86
5, 550844, Note_off_c, 3, 57, 64
5, 550848, Note_on_c, 3, 53, 86
5, 550848, Note_on_c, 3, 50, 86
5, 550940, Note_off_c, 3, 53, 64
5, 550940, Note_off_c, 3, 50, 64
5, 550944, Note_on_c, 3, 57, 86
5, 551036, Note_off_c, 3, 57, 64
5, 551040, Note_on_c, 3, 53, 86
5, 551040, Note_on_c, 3, 50, 86
5, 551132, Note_off_c, 3, 53, 64
5, 551132, Note_off_c, 3, 50, 64
5, 551136, Note_on_c, 3, 57, 86
5, 551228, Note_off_c, 3, 57, 64
5, 551232, Note_on_c, 3, 53, 86
5, 551232, Note_on_c, 3, 50, 86
5, 551324, Note_off_c, 3, 53, 64
5, 551324, Note_off_c, 3, 50, 64
5, 551328, Note_on_c, 3, 57, 86
5, 551420, Note_off_c, 3, 57, 64
5, 551424, Note_on_c, 3, 52, 86
5, 551804, Note_off_c, 3, 52, 64
5, 551808, Note_on_c, 3, 49, 87
5, 552188, Note_off_c, 3, 49, 64
5, 552192, Note_on_c, 3, 43, 89
5, 552572, Note_off_c, 3, 43, 64
5, 552576, Note_on_c, 3, 40, 90
5, 552956, Note_off_c, 3, 40, 64
5, 552960, Note_on_c, 3, 38, 91
5, 553340, Note_off_c, 3, 38, 64
5, 553344, Note_on_c, 3, 53, 86
5, 553344, Note_on_c, 3, 50, 86
5, 553436, Note_off_c, 3, 53, 64
5, 553436, Note_off_c, 3, 50, 64
5, 553440, Note_on_c, 3, 58, 86
5, 553532, Note_off_c, 3, 58, 64
5, 553536, Note_on_c, 3, 53, 86
5, 553536, Note_on_c, 3, 50, 86
5, 553628, Note_off_c, 3, 53, 64
5, 553628, Note_off_c, 3, 50, 64
5, 553632, Note_on_c, 3, 58, 86
5, 553724, Note_off_c, 3, 58, 64
5, 553728, Note_on_c, 3, 53, 86
5, 553728, Note_on_c, 3, 50, 86
5, 553820, Note_off_c, 3, 53, 64
5, 553820, Note_off_c, 3, 50, 64
5, 553824, Note_on_c, 3, 58, 86
5, 553916, Note_off_c, 3, 58, 64
5, 553920, Note_on_c, 3, 53, 86
5, 553920, Note_on_c, 3, 50, 86
5, 554012, Note_off_c, 3, 53, 64
5, 554012, Note_off_c, 3, 50, 64
5, 554016, Note_on_c, 3, 58, 86
5, 554108, Note_off_c, 3, 58, 64
5, 554304, Note_on_c, 3, 53, 86
5, 554360, Note_off_c, 3, 53, 64
5, 554368, Note_on_c, 3, 52, 86
5, 554424, Note_off_c, 3, 52, 64
5, 554432, Note_on_c, 3, 50, 86
5, 554488, Note_off_c, 3, 50, 64
5, 554496, Note_on_c, 3, 52, 86
5, 554496, Note_on_c, 3, 49, 86
5, 555068, Note_off_c, 3, 52, 64
5, 555068, Note_off_c, 3, 49, 64
5, 555072, Note_on_c, 3, 53, 86
5, 555072, Note_on_c, 3, 50, 86
5, 555260, Note_off_c, 3, 53, 64
5, 555260, Note_off_c, 3, 50, 64
5, 555264, Note_on_c, 3, 52, 86
5, 555264, Note_on_c, 3, 49, 86
5, 555452, Note_off_c, 3, 52, 64
5, 555452, Note_off_c, 3, 49, 64
5, 555456, Note_on_c, 3, 53, 86
5, 555456, Note_on_c, 3, 50, 86
5, 555644, Note_off_c, 3, 53, 64
5, 555644, Note_off_c, 3, 50, 64
5, 555648, Note_on_c, 3, 52, 86
5, 555648, Note_on_c, 3, 49, 86
5, 555836, Note_off_c, 3, 52, 64
5, 555836, Note_off_c, 3, 49, 64
5, 555840, Note_on_c, 3, 53, 86
5, 555840, Note_on_c, 3, 50, 86
5, 556028, Note_off_c, 3, 53, 64
5, 556028, Note_off_c, 3, 50, 64
5, 556032, Note_on_c, 3, 52, 86
5, 556032, Note_on_c, 3, 49, 86
5, 556604, Note_off_c, 3, 52, 64
5, 556604, Note_off_c, 3, 49, 64
5, 556608, Note_on_c, 3, 53, 86
5, 556608, Note_on_c, 3, 50, 86
5, 556796, Note_off_c, 3, 53, 64
5, 556796, Note_off_c, 3, 50, 64
5, 556800, Note_on_c, 3, 52, 86
5, 556800, Note_on_c, 3, 49, 86
5, 556988, Note_off_c, 3, 52, 64
5, 556988, Note_off_c, 3, 49, 64
5, 556992, Note_on_c, 3, 53, 86
5, 556992, Note_on_c, 3, 50, 86
5, 557180, Note_off_c, 3, 53, 64
5, 557180, Note_off_c, 3, 50, 64
5, 557184, Note_on_c, 3, 52, 86
5, 557184, Note_on_c, 3, 49, 86
5, 557372, Note_off_c, 3, 52, 64
5, 557372, Note_off_c, 3, 49, 64
5, 557376, Note_on_c, 3, 53, 86
5, 557376, Note_on_c, 3, 50, 86
5, 557564, Note_off_c, 3, 53, 64
5, 557564, Note_off_c, 3, 50, 64
5, 557568, Note_on_c, 3, 52, 86
5, 557568, Note_on_c, 3, 49, 86
5, 557948, Note_off_c, 3, 52, 64
5, 557948, Note_off_c, 3, 49, 64
5, 558336, Note_on_c, 3, 62, 86
5, 558336, Note_on_c, 3, 50, 86
5, 558716, Note_off_c, 3, 62, 64
5, 558716, Note_off_c, 3, 50, 64
5, 559104, Note_on_c, 3, 55, 86
5, 559104, Note_on_c, 3, 43, 86
5, 559484, Note_off_c, 3, 55, 64
5, 559484, Note_off_c, 3, 43, 64
5, 559872, Note_on_c, 3, 56, 87
5, 559872, Note_on_c, 3, 44, 87
5, 560252, Note_off_c, 3, 56, 64
5, 560252, Note_off_c, 3, 44, 64
5, 560640, Note_on_c, 3, 45, 86
5, 560640, Note_on_c, 3, 33, 86
5, 561404, Note_off_c, 3, 45, 64
5, 561404, Note_off_c, 3, 33, 64
5, 666624, Program_c, 3, 48
5, 668160, Note_on_c, 3, 50, 83
5, 668160, Note_on_c, 3, 41, 86
5, 668732, Note_off_c, 3, 50, 64
5, 668732, Note_off_c, 3, 41, 64
5, 668736, Note_on_c, 3, 41, 86
5, 668736, Note_on_c, 3, 53, 83
5, 668828, Note_off_c, 3, 41, 64
5, 668828, Note_off_c, 3, 53, 64
5, 668928, Note_on_c, 3, 55, 83
5, 668928, Note_on_c, 3, 43, 86
5, 669020, Note_off_c, 3, 55, 64
5, 669020, Note_off_c, 3, 43, 64
5, 669120, Note_on_c, 3, 41, 86
5, 669120, Note_on_c, 3, 53, 83
5, 669212, Note_off_c, 3, 41, 64
5, 669212, Note_off_c, 3, 53, 64
5, 669312, Note_on_c, 3, 55, 86
5, 669312, Note_on_c, 3, 43, 83
5, 669404, Note_off_c, 3, 55, 64
5, 669404, Note_off_c, 3, 43, 64
5, 669504, Note_on_c, 3, 57, 83
5, 669504, Note_on_c, 3, 45, 86
5, 669596, Note_off_c, 3, 57, 64
5, 669596, Note_off_c, 3, 45, 64
5, 669696, Note_on_c, 3, 46, 96
5, 669696, Note_on_c, 3, 58, 96
5, 669788, Note_off_c, 3, 46, 64
5, 669788, Note_off_c, 3, 58, 64
5, 669888, Note_on_c, 3, 57, 83
5, 669888, Note_on_c, 3, 45, 86
5, 669980, Note_off_c, 3, 57, 64
5, 669980, Note_off_c, 3, 45, 64
5, 670080, Note_on_c, 3, 58, 83
5, 670080, Note_on_c, 3, 46, 86
5, 670172, Note_off_c, 3, 58, 64
5, 670172, Note_off_c, 3, 46, 64
5, 670272, Note_on_c, 3, 56, 83
5, 670272, Note_on_c, 3, 44, 86
5, 670364, Note_off_c, 3, 56, 64
5, 670364, Note_off_c, 3, 44, 64
5, 670464, Note_on_c, 3, 57, 83
5, 670464, Note_on_c, 3, 45, 86
5, 670556, Note_off_c, 3, 57, 64
5, 670556, Note_off_c, 3, 45, 64
5, 670656, Note_on_c, 3, 56, 83
5, 670656, Note_on_c, 3, 44, 86
5, 670748, Note_off_c, 3, 56, 64
5, 670748, Note_off_c, 3, 44, 64
5, 670848, Note_on_c, 3, 57, 83
5, 670848, Note_on_c, 3, 45, 86
5, 670940, Note_off_c, 3, 57, 64
5, 670940, Note_off_c, 3, 45, 64
5, 671040, Note_on_c, 3, 59, 83
5, 671040, Note_on_c, 3, 47, 86
5, 671132, Note_off_c, 3, 59, 64
5, 671132, Note_off_c, 3, 47, 64
5, 671232, Note_on_c, 3, 60, 96
5, 671232, Note_on_c, 3, 48, 96
5, 671324, Note_off_c, 3, 60, 64
5, 671324, Note_off_c, 3, 48, 64
5, 671424, Note_on_c, 3, 59, 82
5, 671424, Note_on_c, 3, 47, 85
5, 671516, Note_off_c, 3, 59, 64
5, 671516, Note_off_c, 3, 47, 64
5, 671616, Note_on_c, 3, 60, 82
5, 671616, Note_on_c, 3, 48, 85
5, 671708, Note_off_c, 3, 60, 64
5, 671708, Note_off_c, 3, 48, 64
5, 671808, Note_on_c, 3, 57, 82
5, 671808, Note_on_c, 3, 45, 85
5, 671900, Note_off_c, 3, 57, 64
5, 671900, Note_off_c, 3, 45, 64
5, 672000, Note_on_c, 3, 58, 82
5, 672000, Note_on_c, 3, 46, 85
5, 672092, Note_off_c, 3, 58, 64
5, 672092, Note_off_c, 3, 46, 64
5, 672192, Note_on_c, 3, 57, 82
5, 672192, Note_on_c, 3, 45, 85
5, 672284, Note_off_c, 3, 57, 64
5, 672284, Note_off_c, 3, 45, 64
5, 672384, Note_on_c, 3, 58, 82
5, 672384, Note_on_c, 3, 46, 85
5, 672476, Note_off_c, 3, 58, 64
5, 672476, Note_off_c, 3, 46, 64
5, 672576, Note_on_c, 3, 54, 82
5, 672576, Note_on_c, 3, 42, 85
5, 672668, Note_off_c, 3, 54, 64
5, 672668, Note_off_c, 3, 42, 64
5, 672768, Note_on_c, 3, 55, 82
5, 672768, Note_on_c, 3, 43, 86
5, 672956, Note_off_c, 3, 55, 64
5, 672956, Note_off_c, 3, 43, 64
5, 672960, Note_on_c, 3, 43, 86
5, 672960, Note_on_c, 3, 31, 91
5, 673148, Note_off_c, 3, 43, 64
5, 673148, Note_off_c, 3, 31, 64
5, 673152, Note_on_c, 3, 55, 83
5, 673152, Note_on_c, 3, 43, 86
5, 673340, Note_off_c, 3, 55, 64
5, 673340, Note_off_c, 3, 43, 64
5, 673344, Note_on_c, 3, 53, 83
5, 673344, Note_on_c, 3, 41, 86
5, 673532, Note_off_c, 3, 53, 64
5, 673532, Note_off_c, 3, 41, 64
5, 673536, Note_on_c, 3, 52, 83
5, 673536, Note_on_c, 3, 40, 87
5, 673724, Note_off_c, 3, 52, 64
5, 673724, Note_off_c, 3, 40, 64
5, 673728, Note_on_c, 3, 45, 85
5, 673728, Note_on_c, 3, 33, 90
5, 673916, Note_off_c, 3, 45, 64
5, 673916, Note_off_c, 3, 33, 64
5, 673920, Note_on_c, 3, 57, 82
5, 673920, Note_on_c, 3, 45, 85
5, 674108, Note_off_c, 3, 57, 64
5, 674108, Note_off_c, 3, 45, 64
5, 674112, Note_on_c, 3, 55, 82
5, 674112, Note_on_c, 3, 43, 86
5, 674300, Note_off_c, 3, 55, 64
5, 674300, Note_off_c, 3, 43, 64
5, 674304, Note_on_c, 3, 53, 82
5, 674304, Note_on_c, 3, 50, 82
5, 674304, Note_on_c, 3, 45, 85
5, 674304, Note_on_c, 3, 41, 86
5, 674492, Note_off_c, 3, 53, 64
5, 674492, Note_off_c, 3, 50, 64
5, 674492, Note_off_c, 3, 45, 64
5, 674492, Note_off_c, 3, 41, 64
5, 674496, Note_on_c, 3, 53, 82
5, 674496, Note_on_c, 3, 41, 86
5, 674684, Note_off_c, 3, 53, 64
5, 674684, Note_off_c, 3, 41, 64
5, 674688, Note_on_c, 3, 53, 82
5, 674688, Note_on_c, 3, 41, 86
5, 674876, Note_off_c, 3, 53, 64
5, 674876, Note_off_c, 3, 41, 64
5, 674880, Note_on_c, 3, 53, 82
5, 674880, Note_on_c, 3, 41, 86
5, 675068, Note_off_c, 3, 53, 64
5, 675068, Note_off_c, 3, 41, 64
5, 675072, Note_on_c, 3, 53, 82
5, 675072, Note_on_c, 3, 41, 86
5, 675260, Note_off_c, 3, 53, 64
5, 675260, Note_off_c, 3, 41, 64
5, 675264, Note_on_c, 3, 53, 82
5, 675264, Note_on_c, 3, 41, 86
5, 675452, Note_off_c, 3, 53, 64
5, 675452, Note_off_c, 3, 41, 64
5, 675456, Note_on_c, 3, 53, 82
5, 675456, Note_on_c, 3, 41, 86
5, 675644, Note_off_c, 3, 53, 64
5, 675644, Note_off_c, 3, 41, 64
5, 675648, Note_on_c, 3, 53, 82
5, 675648, Note_on_c, 3, 41, 86
5, 675836, Note_off_c, 3, 53, 64
5, 675836, Note_off_c, 3, 41, 64
5, 675840, Note_on_c, 3, 43, 86
5, 676220, Note_off_c, 3, 43, 64
5, 676224, Note_on_c, 3, 70, 82
5, 676224, Note_on_c, 3, 58, 82
5, 676604, Note_off_c, 3, 70, 64
5, 676604, Note_off_c, 3, 58, 64
5, 676608, Note_on_c, 3, 67, 82
5, 676608, Note_on_c, 3, 55, 82
5, 676988, Note_off_c, 3, 67, 64
5, 676988, Note_off_c, 3, 55, 64
5, 676992, Note_on_c, 3, 63, 82
5, 676992, Note_on_c, 3, 51, 82
5, 677372, Note_off_c, 3, 63, 64
5, 677372, Note_off_c, 3, 51, 64
5, 677376, Note_on_c, 3, 57, 82
5, 677376, Note_on_c, 3, 49, 82
5, 677376, Note_on_c, 3, 45, 82
5, 677564, Note_off_c, 3, 57, 64
5, 677564, Note_off_c, 3, 49, 64
5, 677564, Note_off_c, 3, 45, 64
5, 677568, Note_on_c, 3, 57, 82
5, 677568, Note_on_c, 3, 45, 82
5, 677756, Note_off_c, 3, 57, 64
5, 677756, Note_off_c, 3, 45, 64
5, 677760, Note_on_c, 3, 57, 82
5, 677760, Note_on_c, 3, 45, 82
5, 677948, Note_off_c, 3, 57, 64
5, 677948, Note_off_c, 3, 45, 64
5, 677952, Note_on_c, 3, 57, 82
5, 677952, Note_on_c, 3, 45, 82
5, 678140, Note_off_c, 3, 57, 64
5, 678140, Note_off_c, 3, 45, 64
5, 678144, Note_on_c, 3, 57, 82
5, 678144, Note_on_c, 3, 45, 82
5, 678332, Note_off_c, 3, 57, 64
5, 678332, Note_off_c, 3, 45, 64
5, 678336, Note_on_c, 3, 57, 82
5, 678336, Note_on_c, 3, 45, 82
5, 678524, Note_off_c, 3, 57, 64
5, 678524, Note_off_c, 3, 45, 64
5, 678528, Note_on_c, 3, 57, 82
5, 678528, Note_on_c, 3, 45, 82
5, 678716, Note_off_c, 3, 57, 64
5, 678716, Note_off_c, 3, 45, 64
5, 678720, Note_on_c, 3, 57, 82
5, 678720, Note_on_c, 3, 45, 82
5, 678908, Note_off_c, 3, 57, 64
5, 678908, Note_off_c, 3, 45, 64
5, 678912, Note_on_c, 3, 58, 82
5, 678912, Note_on_c, 3, 46, 82
5, 679292, Note_off_c, 3, 58, 64
5, 679292, Note_off_c, 3, 46, 64
5, 679296, Note_on_c, 3, 62, 82
5, 679676, Note_off_c, 3, 62, 64
5, 679680, Note_on_c, 3, 58, 66
5, 679680, Note_on_c, 3, 64, 66
5, 679680, Note_on_c, 3, 55, 66
5, 680060, Note_off_c, 3, 58, 64
5, 680064, Note_on_c, 3, 43, 74
5, 680444, Note_off_c, 3, 64, 64
5, 680444, Note_off_c, 3, 55, 64
5, 680444, Note_off_c, 3, 43, 64
5, 680448, Note_on_c, 3, 57, 66
5, 680448, Note_on_c, 3, 62, 66
5, 680448, Note_on_c, 3, 53, 66
5, 680828, Note_off_c, 3, 57, 64
5, 680832, Note_on_c, 3, 45, 73
5, 681212, Note_off_c, 3, 62, 64
5, 681212, Note_off_c, 3, 53, 64
5, 681212, Note_off_c, 3, 45, 64
5, 681216, Note_on_c, 3, 57, 66
5, 681216, Note_on_c, 3, 61, 66
5, 681216, Note_on_c, 3, 52, 66
5, 681596, Note_off_c, 3, 57, 64
5, 681600, Note_on_c, 3, 45, 73
5, 681980, Note_off_c, 3, 61, 64
5, 681980, Note_off_c, 3, 52, 64
5, 681980, Note_off_c, 3, 45, 64
5, 681984, Note_on_c, 3, 50, 86
5, 681984, Note_on_c, 3, 38, 90
5, 682364, Note_off_c, 3, 50, 64
5, 682364, Note_off_c, 3, 38, 64
5, 682560, Note_on_c, 3, 50, 86
5, 682560, Note_on_c, 3, 38, 90
5, 682748, Note_off_c, 3, 50, 64
5, 682748, Note_off_c, 3, 38, 64
5, 682752, Note_on_c, 3, 51, 86
5, 682752, Note_on_c, 3, 39, 91
5, 682940, Note_off_c, 3, 51, 64
5, 682940, Note_off_c, 3, 39, 64
5, 682944, Note_on_c, 3, 50, 86
5, 682944, Note_on_c, 3, 38, 91
5, 683132, Note_off_c, 3, 50, 64
5, 683132, Note_off_c, 3, 38, 64
5, 683136, Note_on_c, 3, 51, 86
5, 683136, Note_on_c, 3, 39, 90
5, 683324, Note_off_c, 3, 51, 64
5, 683324, Note_off_c, 3, 39, 64
5, 683328, Note_on_c, 3, 54, 86
5, 683328, Note_on_c, 3, 42, 89
5, 683516, Note_off_c, 3, 54, 64
5, 683516, Note_off_c, 3, 42, 64
5, 683520, Note_on_c, 3, 55, 86
5, 683520, Note_on_c, 3, 43, 87
5, 683708, Note_off_c, 3, 55, 64
5, 683708, Note_off_c, 3, 43, 64
5, 683712, Note_on_c, 3, 54, 86
5, 683712, Note_on_c, 3, 42, 87
5, 683900, Note_off_c, 3, 54, 64
5, 683900, Note_off_c, 3, 42, 64
5, 683904, Note_on_c, 3, 55, 86
5, 683904, Note_on_c, 3, 43, 87
5, 684092, Note_off_c, 3, 55, 64
5, 684092, Note_off_c, 3, 43, 64
5, 684096, Note_on_c, 3, 52, 86
5, 684096, Note_on_c, 3, 40, 87
5, 684284, Note_off_c, 3, 52, 64
5, 684284, Note_off_c, 3, 40, 64
5, 684288, Note_on_c, 3, 53, 86
5, 684288, Note_on_c, 3, 41, 87
5, 684476, Note_off_c, 3, 53, 64
5, 684476, Note_off_c, 3, 41, 64
5, 684480, Note_on_c, 3, 52, 86
5, 684480, Note_on_c, 3, 40, 87
5, 684668, Note_off_c, 3, 52, 64
5, 684668, Note_off_c, 3, 40, 64
5, 684672, Note_on_c, 3, 54, 86
5, 684672, Note_on_c, 3, 42, 87
5, 684860, Note_off_c, 3, 54, 64
5, 684860, Note_off_c, 3, 42, 64
5, 684864, Note_on_c, 3, 56, 86
5, 684864, Note_on_c, 3, 44, 87
5, 685052, Note_off_c, 3, 56, 64
5, 685052, Note_off_c, 3, 44, 64
5, 685056, Note_on_c, 3, 57, 86
5, 685056, Note_on_c, 3, 45, 87
5, 685244, Note_off_c, 3, 57, 64
5, 685244, Note_off_c, 3, 45, 64
5, 685248, Note_on_c, 3, 56, 86
5, 685248, Note_on_c, 3, 44, 87
5, 685436, Note_off_c, 3, 56, 64
5, 685436, Note_off_c, 3, 44, 64
5, 685440, Note_on_c, 3, 57, 86
5, 685440, Note_on_c, 3, 45, 87
5, 685628, Note_off_c, 3, 57, 64
5, 685628, Note_off_c, 3, 45, 64
5, 685632, Note_on_c, 3, 54, 86
5, 685632, Note_on_c, 3, 42, 87
5, 685820, Note_off_c, 3, 54, 64
5, 685820, Note_off_c, 3, 42, 64
5, 685824, Note_on_c, 3, 55, 86
5, 685824, Note_on_c, 3, 43, 87
5, 686012, Note_off_c, 3, 55, 64
5, 686012, Note_off_c, 3, 43, 64
5, 686016, Note_on_c, 3, 54, 86
5, 686016, Note_on_c, 3, 42, 87
5, 686204, Note_off_c, 3, 54, 64
5, 686204, Note_off_c, 3, 42, 64
5, 686208, Note_on_c, 3, 55, 86
5, 686208, Note_on_c, 3, 43, 87
5, 686396, Note_off_c, 3, 55, 64
5, 686396, Note_off_c, 3, 43, 64
5, 686400, Note_on_c, 3, 57, 86
5, 686400, Note_on_c, 3, 45, 87
5, 686588, Note_off_c, 3, 57, 64
5, 686588, Note_off_c, 3, 45, 64
5, 686592, Note_on_c, 3, 58, 86
5, 686592, Note_on_c, 3, 46, 87
5, 686972, Note_off_c, 3, 58, 64
5, 686972, Note_off_c, 3, 46, 64
5, 688320, Note_on_c, 3, 43, 89
5, 688320, Note_on_c, 3, 31, 94
5, 688508, Note_off_c, 3, 43, 64
5, 688508, Note_off_c, 3, 31, 64
5, 688512, Note_on_c, 3, 55, 86
5, 688512, Note_on_c, 3, 43, 89
5, 688700, Note_off_c, 3, 55, 64
5, 688700, Note_off_c, 3, 43, 64
5, 688704, Note_on_c, 3, 55, 86
5, 688704, Note_on_c, 3, 43, 89
5, 688892, Note_off_c, 3, 55, 64
5, 688892, Note_off_c, 3, 43, 64
5, 688896, Note_on_c, 3, 55, 86
5, 688896, Note_on_c, 3, 43, 89
5, 689084, Note_off_c, 3, 55, 64
5, 689084, Note_off_c, 3, 43, 64
5, 689088, Note_on_c, 3, 55, 86
5, 689088, Note_on_c, 3, 43, 89
5, 689276, Note_off_c, 3, 55, 64
5, 689276, Note_off_c, 3, 43, 64
5, 689280, Note_on_c, 3, 55, 86
5, 689280, Note_on_c, 3, 43, 89
5, 689468, Note_off_c, 3, 55, 64
5, 689468, Note_off_c, 3, 43, 64
5, 689472, Note_on_c, 3, 55, 86
5, 689472, Note_on_c, 3, 43, 89
5, 689660, Note_off_c, 3, 55, 64
5, 689660, Note_off_c, 3, 43, 64
5, 689664, Note_on_c, 3, 59, 66
5, 689664, Note_on_c, 3, 50, 66
5, 689664, Note_on_c, 3, 47, 66
5, 690044, Note_off_c, 3, 59, 64
5, 690044, Note_off_c, 3, 50, 64
5, 690044, Note_off_c, 3, 47, 64
5, 690048, Note_on_c, 3, 50, 66
5, 690048, Note_on_c, 3, 47, 66
5, 690048, Note_on_c, 3, 59, 66
5, 690428, Note_off_c, 3, 50, 64
5, 690428, Note_off_c, 3, 47, 64
5, 690428, Note_off_c, 3, 59, 64
5, 691200, Note_on_c, 3, 58, 66
5, 691200, Note_on_c, 3, 62, 66
5, 691388, Note_off_c, 3, 62, 64
5, 691392, Note_on_c, 3, 64, 66
5, 691580, Note_off_c, 3, 58, 64
5, 691580, Note_off_c, 3, 64, 64
5, 691584, Note_on_c, 3, 58, 66
5, 691584, Note_on_c, 3, 62, 66
5, 691584, Note_on_c, 3, 64, 66
5, 691964, Note_off_c, 3, 58, 64
5, 691964, Note_off_c, 3, 62, 64
5, 691964, Note_off_c, 3, 64, 64
5, 692736, Note_on_c, 3, 65, 66
5, 692736, Note_on_c, 3, 57, 66
5, 694268, Note_off_c, 3, 65, 64
5, 694268, Note_off_c, 3, 57, 64
5, 694272, Note_on_c, 3, 65, 66
5, 694272, Note_on_c, 3, 62, 66
5, 694272, Note_on_c, 3, 57, 66
5, 694460, Note_off_c, 3, 65, 64
5, 694460, Note_off_c, 3, 62, 64
5, 694460, Note_off_c, 3, 57, 64
5, 694656, Note_on_c, 3, 65, 66
5, 694656, Note_on_c, 3, 62, 66
5, 694656, Note_on_c, 3, 57, 66
5, 694844, Note_off_c, 3, 65, 64
5, 694844, Note_off_c, 3, 62, 64
5, 694844, Note_off_c, 3, 57, 64
5, 695040, Note_on_c, 3, 57, 66
5, 695040, Note_on_c, 3, 45, 73
5, 695420, Note_off_c, 3, 57, 64
5, 695420, Note_off_c, 3, 45, 64
5, 695808, Note_on_c, 3, 50, 66
5, 695808, Note_on_c, 3, 38, 76
5, 696572, Note_off_c, 3, 50, 64
5, 696572, Note_off_c, 3, 38, 64
5, 696576, Note_on_c, 3, 53, 66
5, 696576, Note_on_c, 3, 61, 66
5, 696764, Note_off_c, 3, 61, 64
5, 696768, Note_on_c, 3, 62, 66
5, 697340, Note_off_c, 3, 53, 64
5, 697344, Note_on_c, 3, 55, 66
5, 697724, Note_off_c, 3, 62, 64
5, 697728, Note_on_c, 3, 64, 66
5, 697728, Note_on_c, 3, 58, 66
5, 697916, Note_off_c, 3, 64, 64
5, 697920, Note_on_c, 3, 62, 66
5, 698108, Note_off_c, 3, 55, 64
5, 698108, Note_off_c, 3, 58, 64
5, 698108, Note_off_c, 3, 62, 64
5, 698112, Note_on_c, 3, 57, 66
5, 698112, Note_on_c, 3, 61, 66
5, 698300, Note_off_c, 3, 61, 64
5, 698304, Note_on_c, 3, 64, 66
5, 698492, Note_off_c, 3, 64, 64
5, 698876, Note_off_c, 3, 57, 64
5, 698880, Note_on_c, 3, 58, 66
5, 698880, Note_on_c, 3, 61, 66
5, 699260, Note_off_c, 3, 61, 64
5, 699264, Note_on_c, 3, 62, 66
5, 699644, Note_off_c, 3, 58, 64
5, 699644, Note_off_c, 3, 62, 64
5, 699648, Note_on_c, 3, 53, 66
5, 700032, Note_on_c, 3, 65, 66
5, 700032, Note_on_c, 3, 57, 66
5, 700220, Note_off_c, 3, 65, 64
5, 700224, Note_on_c, 3, 62, 66
5, 700412, Note_off_c, 3, 53, 64
5, 700412, Note_off_c, 3, 57, 64
5, 700412, Note_off_c, 3, 62, 64
5, 700416, Note_on_c, 3, 55, 66
5, 700608, Note_on_c, 3, 67, 66
5, 700796, Note_off_c, 3, 67, 64
5, 700800, Note_on_c, 3, 64, 66
5, 700988, Note_off_c, 3, 64, 64
5, 700992, Note_on_c, 3, 62, 66
5, 701180, Note_off_c, 3, 55, 64
5, 701180, Note_off_c, 3, 62, 64
5, 701184, Note_on_c, 3, 61, 66
5, 701184, Note_on_c, 3, 57, 66
5, 701372, Note_off_c, 3, 61, 64
5, 701376, Note_on_c, 3, 64, 66
5, 701564, Note_off_c, 3, 64, 64
5, 701568, Note_on_c, 3, 61, 66
5, 701948, Note_off_c, 3, 57, 64
5, 701952, Note_on_c, 3, 58, 66
5, 702140, Note_off_c, 3, 61, 64
5, 702144, Note_on_c, 3, 64, 66
5, 702332, Note_off_c, 3, 64, 64
5, 702336, Note_on_c, 3, 62, 66
5, 702716, Note_off_c, 3, 58, 64
5, 702716, Note_off_c, 3, 62, 64
5, 702720, Note_on_c, 3, 62, 66
5, 702720, Note_on_c, 3, 65, 66
5, 702720, Note_on_c, 3, 53, 66
5, 703100, Note_off_c, 3, 62, 64
5, 703100, Note_off_c, 3, 65, 64
5, 703100, Note_off_c, 3, 53, 64
5, 703104, Note_on_c, 3, 70, 66
5, 703292, Note_off_c, 3, 70, 64
5, 703296, Note_on_c, 3, 69, 66
5, 703484, Note_off_c, 3, 69, 64
5, 703488, Note_on_c, 3, 58, 66
5, 703488, Note_on_c, 3, 55, 66
5, 703488, Note_on_c, 3, 64, 66
5, 704060, Note_off_c, 3, 64, 64
5, 704064, Note_on_c, 3, 64, 66
5, 704252, Note_off_c, 3, 58, 64
5, 704252, Note_off_c, 3, 55, 64
5, 704252, Note_off_c, 3, 64, 64
5, 704256, Note_on_c, 3, 62, 66
5, 704256, Note_on_c, 3, 57, 66
5, 704444, Note_off_c, 3, 62, 64
5, 704448, Note_on_c, 3, 61, 66
5, 704636, Note_off_c, 3, 61, 64
5, 704640, Note_on_c, 3, 64, 66
5, 704828, Note_off_c, 3, 64, 64
5, 704832, Note_on_c, 3, 61, 66
5, 705020, Note_off_c, 3, 57, 64
5, 705020, Note_off_c, 3, 61, 64
5, 705024, Note_on_c, 3, 50, 66
5, 705024, Note_on_c, 3, 50, 66
5, 705024, Note_on_c, 3, 38, 76
5, 705404, Note_off_c, 3, 50, 64
5, 705404, Note_off_c, 3, 50, 64
5, 705404, Note_off_c, 3, 38, 64
5, 705600, Note_on_c, 3, 50, 66
5, 705692, Note_off_c, 3, 50, 64
5, 705696, Note_on_c, 3, 52, 66
5, 705788, Note_off_c, 3, 52, 64
5, 705792, Note_on_c, 3, 54, 66
5, 706172, Note_off_c, 3, 54, 64
5, 706368, Note_on_c, 3, 50, 70
5, 706428, Note_off_c, 3, 50, 64
5, 706432, Note_on_c, 3, 52, 70
5, 706492, Note_off_c, 3, 52, 64
5, 706496, Note_on_c, 3, 54, 70
5, 706556, Note_off_c, 3, 54, 64
5, 706560, Note_on_c, 3, 55, 66
5, 706940, Note_off_c, 3, 55, 64
5, 707136, Note_on_c, 3, 40, 76
5, 707196, Note_off_c, 3, 40, 64
5, 707200, Note_on_c, 3, 41, 75
5, 707260, Note_off_c, 3, 41, 64
5, 707264, Note_on_c, 3, 43, 74
5, 707324, Note_off_c, 3, 43, 64
5, 707328, Note_on_c, 3, 45, 73
5, 707708, Note_off_c, 3, 45, 64
5, 707904, Note_on_c, 3, 33, 81
5, 707964, Note_off_c, 3, 33, 64
5, 707968, Note_on_c, 3, 35, 80
5, 708028, Note_off_c, 3, 35, 64
5, 708032, Note_on_c, 3, 37, 79
5, 708092, Note_off_c, 3, 37, 64
5, 708096, Note_on_c, 3, 38, 78
5, 708476, Note_off_c, 3, 38, 64
5, 708672, Note_on_c, 3, 50, 66
5, 708764, Note_off_c, 3, 50, 64
5, 708768, Note_on_c, 3, 52, 66
5, 708860, Note_off_c, 3, 52, 64
5, 708864, Note_on_c, 3, 54, 66
5, 709244, Note_off_c, 3, 54, 64
5, 709440, Note_on_c, 3, 50, 70
5, 709500, Note_off_c, 3, 50, 64
5, 709504, Note_on_c, 3, 52, 70
5, 709564, Note_off_c, 3, 52, 64
5, 709568, Note_on_c, 3, 54, 70
5, 709628, Note_off_c, 3, 54, 64
5, 709632, Note_on_c, 3, 55, 66
5, 710012, Note_off_c, 3, 55, 64
5, 710208, Note_on_c, 3, 40, 76
5, 710268, Note_off_c, 3, 40, 64
5, 710272, Note_on_c, 3, 41, 75
5, 710332, Note_off_c, 3, 41, 64
5, 710336, Note_on_c, 3, 43, 74
5, 710396, Note_off_c, 3, 43, 64
5, 710400, Note_on_c, 3, 45, 73
5, 710780, Note_off_c, 3, 45, 64
5, 710976, Note_on_c, 3, 33, 80
5, 711036, Note_off_c, 3, 33, 64
5, 711040, Note_on_c, 3, 35, 79
5, 711100, Note_off_c, 3, 35, 64
5, 711104, Note_on_c, 3, 37, 78
5, 711164, Note_off_c, 3, 37, 64
5, 711168, Note_on_c, 3, 38, 76
5, 711168, Note_on_c, 3, 57, 66
5, 711168, Note_on_c, 3, 53, 66
5, 711356, Note_off_c, 3, 57, 64
5, 711356, Note_off_c, 3, 53, 64
5, 711360, Note_on_c, 3, 58, 66
5, 711360, Note_on_c, 3, 55, 66
5, 711548, Note_off_c, 3, 58, 64
5, 711548, Note_off_c, 3, 55, 64
5, 711552, Note_on_c, 3, 57, 66
5, 711552, Note_on_c, 3, 53, 66
5, 711740, Note_off_c, 3, 57, 64
5, 711740, Note_off_c, 3, 53, 64
5, 711744, Note_on_c, 3, 58, 66
5, 711744, Note_on_c, 3, 55, 66
5, 711932, Note_off_c, 3, 38, 64
5, 711932, Note_off_c, 3, 58, 64
5, 711932, Note_off_c, 3, 55, 64
5, 711936, Note_on_c, 3, 53, 66
5, 711936, Note_on_c, 3, 57, 66
5, 712124, Note_off_c, 3, 53, 64
5, 712128, Note_on_c, 3, 52, 66
5, 712316, Note_off_c, 3, 52, 64
5, 712320, Note_on_c, 3, 50, 66
5, 712508, Note_off_c, 3, 57, 64
5, 712508, Note_off_c, 3, 50, 64
5, 712512, Note_on_c, 3, 57, 66
5, 712512, Note_on_c, 3, 55, 66
5, 712512, Note_on_c, 3, 45, 72
5, 712572, Note_off_c, 3, 45, 64
5, 712576, Note_on_c, 3, 47, 71
5, 712604, Note_off_c, 3, 57, 64
5, 712604, Note_off_c, 3, 55, 64
5, 712636, Note_off_c, 3, 47, 64
5, 712640, Note_on_c, 3, 49, 70
5, 712700, Note_off_c, 3, 49, 64
5, 712704, Note_on_c, 3, 57, 59
5, 712704, Note_on_c, 3, 53, 59
5, 712704, Note_on_c, 3, 50, 59
5, 712704, Note_on_c, 3, 38, 64
5, 713084, Note_off_c, 3, 57, 64
5, 713084, Note_off_c, 3, 53, 64
5, 713084, Note_off_c, 3, 50, 64
5, 713084, Note_off_c, 3, 38, 64
5, 713472, Note_on_c, 3, 57, 59
5, 713472, Note_on_c, 3, 53, 59
5, 713472, Note_on_c, 3, 50, 59
5, 713472, Note_on_c, 3, 38, 64
5, 713852, Note_off_c, 3, 57, 64
5, 713852, Note_off_c, 3, 53, 64
5, 713852, Note_off_c, 3, 50, 64
5, 713852, Note_off_c, 3, 38, 64
5, 714240, Note_on_c, 3, 62, 59
5, 714240, Note_on_c, 3, 57, 59
5, 714240, Note_on_c, 3, 53, 59
5, 714240, Note_on_c, 3, 50, 59
5, 714240, Note_on_c, 3, 38, 64
5, 714620, Note_off_c, 3, 62, 64
5, 714620, Note_off_c, 3, 57, 64
5, 714620, Note_off_c, 3, 53, 64
5, 714620, Note_off_c, 3, 50, 64
5, 714620, Note_off_c, 3, 38, 64
5, 714620, End_track
0, 0, End_of_file
