0, 0, Header, 1, 17, 384
1, 0, Start_track
1, 0, Time_signature, 4, 2, 96, 8
1, 0, Sequencer_specific, 3, 0, 0, 65
1, 0, Tempo, 1500000
1, 96000, Tempo, 1666666
1, 96000, End_track
2, 0, Start_track
2, 0, Title_t, "Mozart"
2, 0, Control_c, 0, 0, 0
2, 0, Program_c, 0, 73
2, 0, Control_c, 0, 7, 80
2, 0, Control_c, 0, 10, 75
2, 0, Control_c, 0, 91, 48
2, 0, Control_c, 0, 93, 39
2, 0, Key_signature, 2, "major"
2, 0, Control_c, 0, 121, 0
2, 144, Control_c, 0, 10, 83
2, 192, Control_c, 0, 91, 63
2, 240, Control_c, 0, 93, 40
2, 288, Program_c, 0, 73
2, 336, Control_c, 0, 1, 30
2, 16704, Note_on_c, 0, 81, 67
2, 16892, Note_off_c, 0, 81, 0
2, 16896, Note_on_c, 0, 81, 67
2, 16988, Note_off_c, 0, 81, 0
2, 16992, Note_on_c, 0, 86, 67
2, 17084, Note_off_c, 0, 86, 0
2, 17088, Note_on_c, 0, 83, 67
2, 17180, Note_off_c, 0, 83, 0
2, 17184, Note_on_c, 0, 80, 67
2, 17276, Note_off_c, 0, 80, 0
2, 17280, Note_on_c, 0, 81, 67
2, 17372, Note_off_c, 0, 81, 0
2, 17376, Note_on_c, 0, 83, 67
2, 17452, Note_on_c, 0, 81, 67
2, 17468, Note_off_c, 0, 83, 0
2, 17472, Note_on_c, 0, 79, 67
2, 17476, Note_off_c, 0, 81, 0
2, 17540, Note_off_c, 0, 79, 0
2, 17544, Note_on_c, 0, 78, 67
2, 17564, Note_on_c, 0, 76, 67
2, 17568, Note_off_c, 0, 78, 0
2, 17632, Note_off_c, 0, 76, 0
2, 17664, Note_on_c, 0, 74, 67
2, 17844, Note_off_c, 0, 74, 0
2, 17856, Note_on_c, 0, 74, 67
2, 17996, Note_off_c, 0, 74, 0
2, 18000, Note_on_c, 0, 76, 67
2, 18024, Note_off_c, 0, 76, 0
2, 18024, Note_on_c, 0, 78, 67
2, 18048, Note_off_c, 0, 78, 0
2, 18048, Note_on_c, 0, 79, 67
2, 18228, Note_off_c, 0, 79, 0
2, 18336, Note_on_c, 0, 76, 67
2, 18428, Note_off_c, 0, 76, 0
2, 18432, Note_on_c, 0, 79, 67
2, 18524, Note_off_c, 0, 79, 0
2, 18528, Note_on_c, 0, 78, 67
2, 18620, Note_off_c, 0, 78, 0
2, 18624, Note_on_c, 0, 83, 67
2, 18716, Note_off_c, 0, 83, 0
2, 18720, Note_on_c, 0, 81, 67
2, 18812, Note_off_c, 0, 81, 0
2, 18816, Note_on_c, 0, 81, 67
2, 18908, Note_off_c, 0, 81, 0
2, 18912, Note_on_c, 0, 80, 67
2, 19004, Note_off_c, 0, 80, 0
2, 19008, Note_on_c, 0, 79, 67
2, 19100, Note_off_c, 0, 79, 0
2, 19104, Note_on_c, 0, 76, 67
2, 19196, Note_off_c, 0, 76, 0
2, 19200, Note_on_c, 0, 74, 67
2, 19380, Note_off_c, 0, 74, 0
2, 19392, Note_on_c, 0, 74, 67
2, 19532, Note_off_c, 0, 74, 0
2, 19536, Note_on_c, 0, 76, 67
2, 19560, Note_off_c, 0, 76, 0
2, 19560, Note_on_c, 0, 78, 67
2, 19584, Note_off_c, 0, 78, 0
2, 19584, Note_on_c, 0, 79, 67
2, 19764, Note_off_c, 0, 79, 0
2, 19872, Note_on_c, 0, 76, 67
2, 19964, Note_off_c, 0, 76, 0
2, 19968, Note_on_c, 0, 79, 67
2, 20060, Note_off_c, 0, 79, 0
2, 20064, Note_on_c, 0, 78, 67
2, 20156, Note_off_c, 0, 78, 0
2, 20160, Note_on_c, 0, 83, 67
2, 20252, Note_off_c, 0, 83, 0
2, 20256, Note_on_c, 0, 81, 67
2, 20348, Note_off_c, 0, 81, 0
2, 20352, Note_on_c, 0, 81, 67
2, 20444, Note_off_c, 0, 81, 0
2, 20448, Note_on_c, 0, 80, 67
2, 20540, Note_off_c, 0, 80, 0
2, 20544, Note_on_c, 0, 79, 67
2, 20636, Note_off_c, 0, 79, 0
2, 20640, Note_on_c, 0, 76, 67
2, 20732, Note_off_c, 0, 76, 0
2, 20736, Note_on_c, 0, 74, 67
2, 20916, Note_off_c, 0, 74, 0
2, 20928, Note_on_c, 0, 62, 75
2, 21300, Note_off_c, 0, 62, 0
2, 21312, Note_on_c, 0, 78, 67
2, 21492, Note_off_c, 0, 78, 0
2, 21504, Note_on_c, 0, 78, 67
2, 21596, Note_off_c, 0, 78, 0
2, 21600, Note_on_c, 0, 81, 67
2, 21644, Note_off_c, 0, 81, 0
2, 21648, Note_on_c, 0, 79, 67
2, 21692, Note_off_c, 0, 79, 0
2, 21696, Note_on_c, 0, 79, 67
2, 21876, Note_off_c, 0, 79, 0
2, 21984, Note_on_c, 0, 79, 67
2, 22076, Note_off_c, 0, 79, 0
2, 22080, Note_on_c, 0, 81, 67
2, 22124, Note_off_c, 0, 81, 0
2, 22128, Note_on_c, 0, 79, 67
2, 22172, Note_off_c, 0, 79, 0
2, 22176, Note_on_c, 0, 78, 67
2, 22220, Note_off_c, 0, 78, 0
2, 22224, Note_on_c, 0, 76, 67
2, 22268, Note_off_c, 0, 76, 0
2, 22272, Note_on_c, 0, 74, 67
2, 22364, Note_off_c, 0, 74, 0
2, 22368, Note_on_c, 0, 73, 67
2, 22460, Note_off_c, 0, 73, 0
2, 22464, Note_on_c, 0, 88, 67
2, 22644, Note_off_c, 0, 88, 0
2, 22656, Note_on_c, 0, 88, 67
2, 22748, Note_off_c, 0, 88, 0
2, 22752, Note_on_c, 0, 85, 67
2, 22844, Note_off_c, 0, 85, 0
2, 22848, Note_on_c, 0, 81, 67
2, 22940, Note_off_c, 0, 81, 0
2, 22944, Note_on_c, 0, 79, 67
2, 23036, Note_off_c, 0, 79, 0
2, 23040, Note_on_c, 0, 79, 67
2, 23084, Note_off_c, 0, 79, 0
2, 23088, Note_on_c, 0, 78, 67
2, 23132, Note_off_c, 0, 78, 0
2, 23136, Note_on_c, 0, 83, 67
2, 23180, Note_off_c, 0, 83, 0
2, 23184, Note_on_c, 0, 81, 67
2, 23228, Note_off_c, 0, 81, 0
2, 23232, Note_on_c, 0, 81, 67
2, 23420, Note_off_c, 0, 81, 0
2, 23424, Note_on_c, 0, 81, 67
2, 23512, Note_off_c, 0, 81, 0
2, 23520, Note_on_c, 0, 81, 67
2, 23608, Note_off_c, 0, 81, 0
2, 23616, Note_on_c, 0, 81, 67
2, 23704, Note_off_c, 0, 81, 0
2, 23712, Note_on_c, 0, 81, 67
2, 23800, Note_off_c, 0, 81, 0
2, 23808, Note_on_c, 0, 86, 67
2, 23868, Note_off_c, 0, 86, 0
2, 23872, Note_on_c, 0, 83, 67
2, 23932, Note_off_c, 0, 83, 0
2, 23936, Note_on_c, 0, 79, 67
2, 23996, Note_off_c, 0, 79, 0
2, 24000, Note_on_c, 0, 79, 67
2, 24372, Note_off_c, 0, 79, 0
2, 24384, Note_on_c, 0, 78, 67
2, 24476, Note_off_c, 0, 78, 0
2, 24480, Note_on_c, 0, 81, 67
2, 24572, Note_off_c, 0, 81, 0
2, 24576, Note_on_c, 0, 79, 67
2, 24592, Note_off_c, 0, 79, 0
2, 24592, Note_on_c, 0, 78, 67
2, 24608, Note_off_c, 0, 78, 0
2, 24608, Note_on_c, 0, 79, 67
2, 24624, Note_off_c, 0, 79, 0
2, 24624, Note_on_c, 0, 78, 67
2, 24640, Note_off_c, 0, 78, 0
2, 24640, Note_on_c, 0, 79, 67
2, 24656, Note_off_c, 0, 79, 0
2, 24656, Note_on_c, 0, 78, 67
2, 24672, Note_off_c, 0, 78, 0
2, 24672, Note_on_c, 0, 79, 67
2, 24688, Note_off_c, 0, 79, 0
2, 24688, Note_on_c, 0, 78, 67
2, 24704, Note_off_c, 0, 78, 0
2, 24704, Note_on_c, 0, 79, 67
2, 24720, Note_off_c, 0, 79, 0
2, 24720, Note_on_c, 0, 78, 67
2, 24736, Note_off_c, 0, 78, 0
2, 24736, Note_on_c, 0, 79, 67
2, 24752, Note_off_c, 0, 79, 0
2, 24752, Note_on_c, 0, 78, 67
2, 24768, Note_off_c, 0, 78, 0
2, 24768, Note_on_c, 0, 79, 67
2, 24784, Note_off_c, 0, 79, 0
2, 24784, Note_on_c, 0, 78, 67
2, 24800, Note_off_c, 0, 78, 0
2, 24800, Note_on_c, 0, 78, 60
2, 24816, Note_off_c, 0, 78, 64
2, 24816, Note_on_c, 0, 79, 60
2, 24832, Note_off_c, 0, 79, 64
2, 24832, Note_on_c, 0, 78, 60
2, 24848, Note_off_c, 0, 78, 64
2, 24848, Note_on_c, 0, 79, 60
2, 24864, Note_off_c, 0, 79, 64
2, 24864, Note_on_c, 0, 76, 60
2, 24908, Note_off_c, 0, 76, 64
2, 24912, Note_on_c, 0, 78, 60
2, 24956, Note_off_c, 0, 78, 64
2, 24960, Note_on_c, 0, 76, 67
2, 25140, Note_off_c, 0, 76, 0
2, 25728, Note_on_c, 0, 76, 67
2, 25908, Note_off_c, 0, 76, 0
2, 25920, Note_on_c, 0, 76, 67
2, 26100, Note_off_c, 0, 76, 0
2, 26112, Note_on_c, 0, 76, 67
2, 26292, Note_off_c, 0, 76, 0
2, 26304, Note_on_c, 0, 85, 67
2, 26676, Note_off_c, 0, 85, 0
2, 26688, Note_on_c, 0, 86, 67
2, 26732, Note_off_c, 0, 86, 0
2, 26736, Note_on_c, 0, 85, 67
2, 26780, Note_off_c, 0, 85, 0
2, 26784, Note_on_c, 0, 83, 67
2, 26828, Note_off_c, 0, 83, 0
2, 26832, Note_on_c, 0, 81, 67
2, 26876, Note_off_c, 0, 81, 0
2, 26880, Note_on_c, 0, 81, 67
2, 27060, Note_off_c, 0, 81, 0
2, 27072, Note_on_c, 0, 80, 67
2, 27252, Note_off_c, 0, 80, 0
2, 27264, Note_on_c, 0, 76, 67
2, 27444, Note_off_c, 0, 76, 0
2, 27456, Note_on_c, 0, 76, 67
2, 27636, Note_off_c, 0, 76, 0
2, 27648, Note_on_c, 0, 76, 67
2, 27828, Note_off_c, 0, 76, 0
2, 27840, Note_on_c, 0, 86, 67
2, 28212, Note_off_c, 0, 86, 0
2, 28224, Note_on_c, 0, 88, 67
2, 28268, Note_off_c, 0, 88, 0
2, 28272, Note_on_c, 0, 86, 67
2, 28316, Note_off_c, 0, 86, 0
2, 28320, Note_on_c, 0, 85, 67
2, 28364, Note_off_c, 0, 85, 0
2, 28368, Note_on_c, 0, 83, 67
2, 28412, Note_off_c, 0, 83, 0
2, 28416, Note_on_c, 0, 83, 67
2, 28596, Note_off_c, 0, 83, 0
2, 28608, Note_on_c, 0, 81, 67
2, 28788, Note_off_c, 0, 81, 0
2, 28800, Note_on_c, 0, 81, 67
2, 28844, Note_off_c, 0, 81, 0
2, 28848, Note_on_c, 0, 80, 67
2, 28892, Note_off_c, 0, 80, 0
2, 28896, Note_on_c, 0, 81, 67
2, 28940, Note_off_c, 0, 81, 0
2, 28944, Note_on_c, 0, 83, 67
2, 28988, Note_off_c, 0, 83, 0
2, 28992, Note_on_c, 0, 81, 67
2, 29036, Note_off_c, 0, 81, 0
2, 29040, Note_on_c, 0, 79, 67
2, 29084, Note_off_c, 0, 79, 0
2, 29088, Note_on_c, 0, 78, 67
2, 29132, Note_off_c, 0, 78, 0
2, 29136, Note_on_c, 0, 77, 67
2, 29180, Note_off_c, 0, 77, 0
2, 29184, Note_on_c, 0, 78, 67
2, 29364, Note_off_c, 0, 78, 0
2, 29376, Note_on_c, 0, 90, 67
2, 29748, Note_off_c, 0, 90, 0
2, 29760, Note_on_c, 0, 88, 67
2, 29804, Note_off_c, 0, 88, 0
2, 29808, Note_on_c, 0, 86, 67
2, 29852, Note_off_c, 0, 86, 0
2, 29856, Note_on_c, 0, 85, 67
2, 29900, Note_off_c, 0, 85, 0
2, 29904, Note_on_c, 0, 83, 67
2, 29948, Note_off_c, 0, 83, 0
2, 29952, Note_on_c, 0, 81, 67
2, 30132, Note_off_c, 0, 81, 0
2, 30144, Note_on_c, 0, 80, 67
2, 30324, Note_off_c, 0, 80, 0
2, 31872, Note_on_c, 0, 76, 67
2, 31916, Note_off_c, 0, 76, 0
2, 31920, Note_on_c, 0, 78, 67
2, 31964, Note_off_c, 0, 78, 0
2, 31968, Note_on_c, 0, 80, 67
2, 32012, Note_off_c, 0, 80, 0
2, 32016, Note_on_c, 0, 81, 67
2, 32060, Note_off_c, 0, 81, 0
2, 32064, Note_on_c, 0, 83, 67
2, 32108, Note_off_c, 0, 83, 0
2, 32112, Note_on_c, 0, 85, 67
2, 32156, Note_off_c, 0, 85, 0
2, 32160, Note_on_c, 0, 86, 67
2, 32204, Note_off_c, 0, 86, 0
2, 32208, Note_on_c, 0, 83, 67
2, 32252, Note_off_c, 0, 83, 0
2, 32256, Note_on_c, 0, 87, 67
2, 32300, Note_off_c, 0, 87, 0
2, 32304, Note_on_c, 0, 88, 67
2, 32348, Note_off_c, 0, 88, 0
2, 32352, Note_on_c, 0, 85, 67
2, 32396, Note_off_c, 0, 85, 0
2, 32400, Note_on_c, 0, 81, 67
2, 32444, Note_off_c, 0, 81, 0
2, 32448, Note_on_c, 0, 80, 67
2, 32492, Note_off_c, 0, 80, 0
2, 32496, Note_on_c, 0, 78, 67
2, 32540, Note_off_c, 0, 78, 0
2, 32544, Note_on_c, 0, 86, 67
2, 32588, Note_off_c, 0, 86, 0
2, 32592, Note_on_c, 0, 83, 67
2, 32636, Note_off_c, 0, 83, 0
2, 32640, Note_on_c, 0, 81, 67
2, 32820, Note_off_c, 0, 81, 0
2, 32832, Note_on_c, 0, 83, 67
2, 32848, Note_off_c, 0, 83, 0
2, 32848, Note_on_c, 0, 85, 67
2, 32864, Note_off_c, 0, 85, 0
2, 32864, Note_on_c, 0, 83, 67
2, 32880, Note_off_c, 0, 83, 0
2, 32880, Note_on_c, 0, 85, 67
2, 32896, Note_off_c, 0, 85, 0
2, 32896, Note_on_c, 0, 83, 67
2, 32912, Note_off_c, 0, 83, 0
2, 32912, Note_on_c, 0, 85, 67
2, 32928, Note_off_c, 0, 85, 0
2, 32928, Note_on_c, 0, 83, 60
2, 32944, Note_off_c, 0, 83, 64
2, 32944, Note_on_c, 0, 85, 67
2, 32960, Note_off_c, 0, 85, 0
2, 32960, Note_on_c, 0, 83, 60
2, 32976, Note_off_c, 0, 83, 64
2, 32976, Note_on_c, 0, 85, 60
2, 32992, Note_off_c, 0, 85, 64
2, 32992, Note_on_c, 0, 83, 60
2, 33008, Note_off_c, 0, 83, 64
2, 33008, Note_on_c, 0, 85, 60
2, 33024, Note_off_c, 0, 85, 64
2, 33024, Note_on_c, 0, 86, 67
2, 33164, Note_off_c, 0, 86, 0
2, 33168, Note_on_c, 0, 83, 67
2, 33212, Note_off_c, 0, 83, 0
2, 33216, Note_on_c, 0, 85, 67
2, 33396, Note_off_c, 0, 85, 0
2, 34944, Note_on_c, 0, 76, 67
2, 34988, Note_off_c, 0, 76, 0
2, 34992, Note_on_c, 0, 78, 67
2, 35036, Note_off_c, 0, 78, 0
2, 35040, Note_on_c, 0, 80, 67
2, 35084, Note_off_c, 0, 80, 0
2, 35088, Note_on_c, 0, 81, 67
2, 35132, Note_off_c, 0, 81, 0
2, 35136, Note_on_c, 0, 83, 67
2, 35180, Note_off_c, 0, 83, 0
2, 35184, Note_on_c, 0, 85, 67
2, 35228, Note_off_c, 0, 85, 0
2, 35232, Note_on_c, 0, 86, 67
2, 35276, Note_off_c, 0, 86, 0
2, 35280, Note_on_c, 0, 83, 67
2, 35324, Note_off_c, 0, 83, 0
2, 35328, Note_on_c, 0, 87, 67
2, 35372, Note_off_c, 0, 87, 0
2, 35376, Note_on_c, 0, 88, 67
2, 35420, Note_off_c, 0, 88, 0
2, 35424, Note_on_c, 0, 85, 67
2, 35468, Note_off_c, 0, 85, 0
2, 35472, Note_on_c, 0, 81, 67
2, 35516, Note_off_c, 0, 81, 0
2, 35520, Note_on_c, 0, 89, 67
2, 35564, Note_off_c, 0, 89, 0
2, 35568, Note_on_c, 0, 90, 67
2, 35612, Note_off_c, 0, 90, 0
2, 35616, Note_on_c, 0, 86, 67
2, 35660, Note_off_c, 0, 86, 0
2, 35664, Note_on_c, 0, 83, 67
2, 35708, Note_off_c, 0, 83, 0
2, 35712, Note_on_c, 0, 83, 67
2, 35728, Note_off_c, 0, 83, 0
2, 35728, Note_on_c, 0, 85, 67
2, 35744, Note_off_c, 0, 85, 0
2, 35744, Note_on_c, 0, 83, 67
2, 35760, Note_off_c, 0, 83, 0
2, 35760, Note_on_c, 0, 85, 67
2, 35776, Note_off_c, 0, 85, 0
2, 35776, Note_on_c, 0, 83, 67
2, 35792, Note_off_c, 0, 83, 0
2, 35792, Note_on_c, 0, 85, 67
2, 35808, Note_off_c, 0, 85, 0
2, 35808, Note_on_c, 0, 83, 67
2, 35824, Note_off_c, 0, 83, 0
2, 35824, Note_on_c, 0, 85, 67
2, 35840, Note_off_c, 0, 85, 0
2, 35840, Note_on_c, 0, 83, 67
2, 35856, Note_off_c, 0, 83, 0
2, 35856, Note_on_c, 0, 85, 67
2, 35872, Note_off_c, 0, 85, 0
2, 35872, Note_on_c, 0, 83, 67
2, 35888, Note_off_c, 0, 83, 0
2, 35888, Note_on_c, 0, 85, 67
2, 35896, Note_on_c, 0, 83, 60
2, 35904, Note_off_c, 0, 85, 0
2, 35904, Note_on_c, 0, 85, 60
2, 35912, Note_off_c, 0, 83, 64
2, 35920, Note_off_c, 0, 85, 64
2, 35920, Note_on_c, 0, 83, 67
2, 35936, Note_off_c, 0, 83, 0
2, 35936, Note_on_c, 0, 85, 67
2, 35952, Note_off_c, 0, 85, 0
2, 35952, Note_on_c, 0, 83, 60
2, 35968, Note_off_c, 0, 83, 64
2, 35968, Note_on_c, 0, 85, 60
2, 35984, Note_off_c, 0, 85, 64
2, 35984, Note_on_c, 0, 83, 60
2, 36000, Note_off_c, 0, 83, 64
2, 36000, Note_on_c, 0, 85, 60
2, 36016, Note_off_c, 0, 85, 64
2, 36016, Note_on_c, 0, 83, 60
2, 36032, Note_off_c, 0, 83, 64
2, 36032, Note_on_c, 0, 85, 60
2, 36048, Note_off_c, 0, 85, 64
2, 36048, Note_on_c, 0, 83, 60
2, 36064, Note_off_c, 0, 83, 64
2, 36064, Note_on_c, 0, 81, 60
2, 36080, Note_off_c, 0, 81, 64
2, 36080, Note_on_c, 0, 83, 60
2, 36096, Note_off_c, 0, 83, 64
2, 36096, Note_on_c, 0, 82, 67
2, 36276, Note_off_c, 0, 82, 0
2, 36288, Note_on_c, 0, 83, 67
2, 36468, Note_off_c, 0, 83, 0
2, 36480, Note_on_c, 0, 77, 67
2, 36524, Note_off_c, 0, 77, 0
2, 36528, Note_on_c, 0, 78, 67
2, 36572, Note_off_c, 0, 78, 0
2, 36576, Note_on_c, 0, 76, 67
2, 36620, Note_off_c, 0, 76, 0
2, 36624, Note_on_c, 0, 74, 67
2, 36668, Note_off_c, 0, 74, 0
2, 36672, Note_on_c, 0, 73, 67
2, 36716, Note_off_c, 0, 73, 0
2, 36720, Note_on_c, 0, 71, 67
2, 36764, Note_off_c, 0, 71, 0
2, 36768, Note_on_c, 0, 74, 67
2, 36812, Note_off_c, 0, 74, 0
2, 36816, Note_on_c, 0, 71, 67
2, 36860, Note_off_c, 0, 71, 0
2, 36864, Note_on_c, 0, 76, 67
2, 36908, Note_off_c, 0, 76, 0
2, 36912, Note_on_c, 0, 78, 67
2, 36956, Note_off_c, 0, 78, 0
2, 36960, Note_on_c, 0, 80, 67
2, 37004, Note_off_c, 0, 80, 0
2, 37008, Note_on_c, 0, 81, 67
2, 37052, Note_off_c, 0, 81, 0
2, 37056, Note_on_c, 0, 80, 67
2, 37100, Note_off_c, 0, 80, 0
2, 37104, Note_on_c, 0, 81, 67
2, 37148, Note_off_c, 0, 81, 0
2, 37152, Note_on_c, 0, 80, 67
2, 37196, Note_off_c, 0, 80, 0
2, 37200, Note_on_c, 0, 81, 67
2, 37244, Note_off_c, 0, 81, 0
2, 37248, Note_on_c, 0, 71, 67
2, 37264, Note_off_c, 0, 71, 0
2, 37264, Note_on_c, 0, 73, 67
2, 37280, Note_off_c, 0, 73, 0
2, 37280, Note_on_c, 0, 71, 67
2, 37296, Note_off_c, 0, 71, 0
2, 37296, Note_on_c, 0, 73, 67
2, 37312, Note_off_c, 0, 73, 0
2, 37312, Note_on_c, 0, 71, 67
2, 37328, Note_off_c, 0, 71, 0
2, 37328, Note_on_c, 0, 73, 67
2, 37344, Note_off_c, 0, 73, 0
2, 37344, Note_on_c, 0, 71, 67
2, 37360, Note_off_c, 0, 71, 0
2, 37360, Note_on_c, 0, 73, 67
2, 37376, Note_off_c, 0, 73, 0
2, 37376, Note_on_c, 0, 71, 67
2, 37392, Note_off_c, 0, 71, 0
2, 37392, Note_on_c, 0, 73, 67
2, 37408, Note_off_c, 0, 73, 0
2, 37408, Note_on_c, 0, 71, 67
2, 37424, Note_off_c, 0, 71, 0
2, 37424, Note_on_c, 0, 73, 67
2, 37440, Note_off_c, 0, 73, 0
2, 37440, Note_on_c, 0, 71, 67
2, 37456, Note_off_c, 0, 71, 0
2, 37456, Note_on_c, 0, 73, 67
2, 37472, Note_off_c, 0, 73, 0
2, 37472, Note_on_c, 0, 71, 67
2, 37488, Note_off_c, 0, 71, 0
2, 37488, Note_on_c, 0, 73, 67
2, 37504, Note_off_c, 0, 73, 0
2, 37504, Note_on_c, 0, 71, 60
2, 37520, Note_off_c, 0, 71, 64
2, 37520, Note_on_c, 0, 73, 60
2, 37536, Note_off_c, 0, 73, 64
2, 37536, Note_on_c, 0, 71, 60
2, 37552, Note_off_c, 0, 71, 64
2, 37552, Note_on_c, 0, 73, 60
2, 37568, Note_off_c, 0, 73, 64
2, 37568, Note_on_c, 0, 71, 60
2, 37584, Note_off_c, 0, 71, 64
2, 37584, Note_on_c, 0, 73, 60
2, 37600, Note_off_c, 0, 73, 64
2, 37600, Note_on_c, 0, 69, 60
2, 37616, Note_off_c, 0, 69, 64
2, 37616, Note_on_c, 0, 71, 60
2, 37632, Note_off_c, 0, 71, 64
2, 37632, Note_on_c, 0, 70, 67
2, 37812, Note_off_c, 0, 70, 0
2, 37824, Note_on_c, 0, 71, 67
2, 38004, Note_off_c, 0, 71, 0
2, 38016, Note_on_c, 0, 78, 67
2, 38060, Note_off_c, 0, 78, 0
2, 38064, Note_on_c, 0, 80, 67
2, 38108, Note_off_c, 0, 80, 0
2, 38112, Note_on_c, 0, 82, 67
2, 38156, Note_off_c, 0, 82, 0
2, 38160, Note_on_c, 0, 83, 67
2, 38204, Note_off_c, 0, 83, 0
2, 38208, Note_on_c, 0, 85, 67
2, 38252, Note_off_c, 0, 85, 0
2, 38256, Note_on_c, 0, 86, 67
2, 38300, Note_off_c, 0, 86, 0
2, 38304, Note_on_c, 0, 88, 67
2, 38348, Note_off_c, 0, 88, 0
2, 38352, Note_on_c, 0, 90, 67
2, 38396, Note_off_c, 0, 90, 0
2, 38400, Note_on_c, 0, 90, 67
2, 38488, Note_off_c, 0, 90, 0
2, 38496, Note_on_c, 0, 88, 67
2, 38676, Note_off_c, 0, 88, 0
2, 38688, Note_on_c, 0, 87, 67
2, 38868, Note_off_c, 0, 87, 0
2, 38880, Note_on_c, 0, 86, 67
2, 39060, Note_off_c, 0, 86, 0
2, 39072, Note_on_c, 0, 85, 67
2, 39160, Note_off_c, 0, 85, 0
2, 39168, Note_on_c, 0, 85, 67
2, 39212, Note_off_c, 0, 85, 0
2, 39216, Note_on_c, 0, 83, 67
2, 39260, Note_off_c, 0, 83, 0
2, 39264, Note_on_c, 0, 82, 67
2, 39308, Note_off_c, 0, 82, 0
2, 39312, Note_on_c, 0, 83, 67
2, 39356, Note_off_c, 0, 83, 0
2, 39360, Note_on_c, 0, 85, 67
2, 39404, Note_off_c, 0, 85, 0
2, 39408, Note_on_c, 0, 83, 67
2, 39452, Note_off_c, 0, 83, 0
2, 39456, Note_on_c, 0, 82, 67
2, 39500, Note_off_c, 0, 82, 0
2, 39504, Note_on_c, 0, 83, 67
2, 39548, Note_off_c, 0, 83, 0
2, 39552, Note_on_c, 0, 83, 67
2, 39596, Note_off_c, 0, 83, 0
2, 39600, Note_on_c, 0, 85, 67
2, 39644, Note_off_c, 0, 85, 0
2, 39648, Note_on_c, 0, 86, 67
2, 39692, Note_off_c, 0, 86, 0
2, 39696, Note_on_c, 0, 85, 67
2, 39740, Note_off_c, 0, 85, 0
2, 39744, Note_on_c, 0, 83, 67
2, 39788, Note_off_c, 0, 83, 0
2, 39792, Note_on_c, 0, 81, 67
2, 39836, Note_off_c, 0, 81, 0
2, 39840, Note_on_c, 0, 80, 67
2, 39884, Note_off_c, 0, 80, 0
2, 39888, Note_on_c, 0, 78, 67
2, 39932, Note_off_c, 0, 78, 0
2, 39936, Note_on_c, 0, 76, 67
2, 39980, Note_off_c, 0, 76, 0
2, 39984, Note_on_c, 0, 77, 67
2, 40028, Note_off_c, 0, 77, 0
2, 40032, Note_on_c, 0, 78, 67
2, 40076, Note_off_c, 0, 78, 0
2, 40080, Note_on_c, 0, 79, 67
2, 40124, Note_off_c, 0, 79, 0
2, 40128, Note_on_c, 0, 80, 67
2, 40172, Note_off_c, 0, 80, 0
2, 40176, Note_on_c, 0, 81, 67
2, 40220, Note_off_c, 0, 81, 0
2, 40224, Note_on_c, 0, 82, 67
2, 40268, Note_off_c, 0, 82, 0
2, 40272, Note_on_c, 0, 83, 67
2, 40316, Note_off_c, 0, 83, 0
2, 40320, Note_on_c, 0, 84, 67
2, 40364, Note_off_c, 0, 84, 0
2, 40368, Note_on_c, 0, 85, 67
2, 40412, Note_off_c, 0, 85, 0
2, 40416, Note_on_c, 0, 86, 67
2, 40460, Note_off_c, 0, 86, 0
2, 40464, Note_on_c, 0, 87, 67
2, 40508, Note_off_c, 0, 87, 0
2, 40512, Note_on_c, 0, 88, 67
2, 40556, Note_off_c, 0, 88, 0
2, 40560, Note_on_c, 0, 85, 67
2, 40604, Note_off_c, 0, 85, 0
2, 40608, Note_on_c, 0, 83, 67
2, 40652, Note_off_c, 0, 83, 0
2, 40656, Note_on_c, 0, 81, 67
2, 40700, Note_off_c, 0, 81, 0
2, 40704, Note_on_c, 0, 83, 67
2, 40720, Note_off_c, 0, 83, 0
2, 40720, Note_on_c, 0, 85, 67
2, 40736, Note_off_c, 0, 85, 0
2, 40736, Note_on_c, 0, 83, 67
2, 40752, Note_off_c, 0, 83, 0
2, 40752, Note_on_c, 0, 85, 67
2, 40768, Note_off_c, 0, 85, 0
2, 40768, Note_on_c, 0, 83, 67
2, 40784, Note_off_c, 0, 83, 0
2, 40784, Note_on_c, 0, 85, 67
2, 40800, Note_off_c, 0, 85, 0
2, 40800, Note_on_c, 0, 83, 67
2, 40816, Note_off_c, 0, 83, 0
2, 40816, Note_on_c, 0, 85, 67
2, 40832, Note_off_c, 0, 85, 0
2, 40832, Note_on_c, 0, 83, 67
2, 40848, Note_off_c, 0, 83, 0
2, 40848, Note_on_c, 0, 85, 67
2, 40864, Note_off_c, 0, 85, 0
2, 40864, Note_on_c, 0, 83, 67
2, 40880, Note_off_c, 0, 83, 0
2, 40880, Note_on_c, 0, 85, 67
2, 40896, Note_off_c, 0, 85, 0
2, 40896, Note_on_c, 0, 83, 67
2, 40912, Note_off_c, 0, 83, 0
2, 40912, Note_on_c, 0, 85, 67
2, 40928, Note_off_c, 0, 85, 0
2, 40928, Note_on_c, 0, 83, 67
2, 40944, Note_off_c, 0, 83, 0
2, 40944, Note_on_c, 0, 85, 67
2, 40960, Note_off_c, 0, 85, 0
2, 40960, Note_on_c, 0, 83, 60
2, 40976, Note_off_c, 0, 83, 64
2, 40976, Note_on_c, 0, 85, 60
2, 40992, Note_off_c, 0, 85, 64
2, 40992, Note_on_c, 0, 83, 60
2, 41008, Note_off_c, 0, 83, 64
2, 41008, Note_on_c, 0, 85, 60
2, 41024, Note_off_c, 0, 85, 64
2, 41024, Note_on_c, 0, 83, 60
2, 41040, Note_off_c, 0, 83, 64
2, 41040, Note_on_c, 0, 85, 60
2, 41056, Note_off_c, 0, 85, 64
2, 41056, Note_on_c, 0, 83, 60
2, 41072, Note_off_c, 0, 83, 64
2, 41072, Note_on_c, 0, 85, 60
2, 41088, Note_off_c, 0, 85, 64
2, 41088, Note_on_c, 0, 83, 67
2, 41104, Note_off_c, 0, 83, 0
2, 41104, Note_on_c, 0, 85, 67
2, 41120, Note_off_c, 0, 85, 0
2, 41120, Note_on_c, 0, 83, 67
2, 41136, Note_off_c, 0, 83, 0
2, 41136, Note_on_c, 0, 85, 67
2, 41152, Note_off_c, 0, 85, 0
2, 41152, Note_on_c, 0, 83, 67
2, 41168, Note_off_c, 0, 83, 0
2, 41168, Note_on_c, 0, 85, 67
2, 41184, Note_off_c, 0, 85, 0
2, 41184, Note_on_c, 0, 83, 67
2, 41200, Note_off_c, 0, 83, 0
2, 41200, Note_on_c, 0, 85, 67
2, 41216, Note_off_c, 0, 85, 0
2, 41216, Note_on_c, 0, 83, 67
2, 41232, Note_off_c, 0, 83, 0
2, 41232, Note_on_c, 0, 85, 67
2, 41248, Note_off_c, 0, 85, 0
2, 41248, Note_on_c, 0, 83, 67
2, 41264, Note_off_c, 0, 83, 0
2, 41264, Note_on_c, 0, 85, 67
2, 41280, Note_off_c, 0, 85, 0
2, 41280, Note_on_c, 0, 83, 60
2, 41296, Note_off_c, 0, 83, 64
2, 41296, Note_on_c, 0, 85, 60
2, 41312, Note_off_c, 0, 85, 64
2, 41312, Note_on_c, 0, 83, 60
2, 41328, Note_off_c, 0, 83, 64
2, 41328, Note_on_c, 0, 85, 60
2, 41344, Note_off_c, 0, 85, 64
2, 41344, Note_on_c, 0, 83, 60
2, 41360, Note_off_c, 0, 83, 64
2, 41360, Note_on_c, 0, 85, 60
2, 41376, Note_off_c, 0, 85, 64
2, 41376, Note_on_c, 0, 81, 67
2, 41424, Note_off_c, 0, 81, 0
2, 41424, Note_on_c, 0, 83, 67
2, 41472, Note_off_c, 0, 83, 0
2, 41472, Note_on_c, 0, 81, 67
2, 41652, Note_off_c, 0, 81, 0
2, 44448, Note_on_c, 0, 76, 67
2, 44540, Note_off_c, 0, 76, 0
2, 44544, Note_on_c, 0, 76, 67
2, 44828, Note_off_c, 0, 76, 0
2, 44832, Note_on_c, 0, 73, 69
2, 44924, Note_off_c, 0, 73, 0
2, 44928, Note_on_c, 0, 76, 67
2, 45020, Note_off_c, 0, 76, 0
2, 45024, Note_on_c, 0, 74, 67
2, 45116, Note_off_c, 0, 74, 0
2, 45120, Note_on_c, 0, 73, 67
2, 45212, Note_off_c, 0, 73, 0
2, 45216, Note_on_c, 0, 71, 67
2, 45308, Note_off_c, 0, 71, 0
2, 45312, Note_on_c, 0, 71, 70
2, 45356, Note_off_c, 0, 71, 0
2, 45360, Note_on_c, 0, 69, 72
2, 45504, Note_off_c, 0, 69, 0
2, 45504, Note_on_c, 0, 69, 72
2, 45684, Note_off_c, 0, 69, 0
2, 45984, Note_on_c, 0, 76, 67
2, 46076, Note_off_c, 0, 76, 0
2, 46080, Note_on_c, 0, 88, 67
2, 46364, Note_off_c, 0, 88, 0
2, 46368, Note_on_c, 0, 85, 67
2, 46460, Note_off_c, 0, 85, 0
2, 46464, Note_on_c, 0, 88, 67
2, 46556, Note_off_c, 0, 88, 0
2, 46560, Note_on_c, 0, 86, 67
2, 46652, Note_off_c, 0, 86, 0
2, 46656, Note_on_c, 0, 85, 67
2, 46748, Note_off_c, 0, 85, 0
2, 46752, Note_on_c, 0, 83, 67
2, 46844, Note_off_c, 0, 83, 0
2, 46848, Note_on_c, 0, 83, 67
2, 46892, Note_off_c, 0, 83, 0
2, 46896, Note_on_c, 0, 81, 67
2, 47040, Note_off_c, 0, 81, 0
2, 47040, Note_on_c, 0, 81, 67
2, 47220, Note_off_c, 0, 81, 0
2, 47424, Note_on_c, 0, 81, 67
2, 47604, Note_off_c, 0, 81, 0
2, 47616, Note_on_c, 0, 81, 67
2, 47676, Note_off_c, 0, 81, 0
2, 47680, Note_on_c, 0, 83, 67
2, 47740, Note_off_c, 0, 83, 0
2, 47744, Note_on_c, 0, 84, 67
2, 47804, Note_off_c, 0, 84, 0
2, 47808, Note_on_c, 0, 84, 67
2, 48180, Note_off_c, 0, 84, 0
2, 48192, Note_on_c, 0, 72, 69
2, 48372, Note_off_c, 0, 72, 0
2, 48384, Note_on_c, 0, 72, 69
2, 48476, Note_off_c, 0, 72, 0
2, 48480, Note_on_c, 0, 71, 70
2, 48572, Note_off_c, 0, 71, 0
2, 48576, Note_on_c, 0, 83, 67
2, 48948, Note_off_c, 0, 83, 0
2, 48960, Note_on_c, 0, 84, 67
2, 49004, Note_off_c, 0, 84, 0
2, 49008, Note_on_c, 0, 83, 67
2, 49052, Note_off_c, 0, 83, 0
2, 49056, Note_on_c, 0, 81, 67
2, 49100, Note_off_c, 0, 81, 0
2, 49104, Note_on_c, 0, 79, 67
2, 49148, Note_off_c, 0, 79, 0
2, 49152, Note_on_c, 0, 79, 67
2, 49196, Note_off_c, 0, 79, 0
2, 49200, Note_on_c, 0, 78, 67
2, 49344, Note_off_c, 0, 78, 0
2, 49344, Note_on_c, 0, 81, 67
2, 49388, Note_off_c, 0, 81, 0
2, 49392, Note_on_c, 0, 78, 67
2, 49436, Note_off_c, 0, 78, 0
2, 49440, Note_on_c, 0, 83, 67
2, 49484, Note_off_c, 0, 83, 0
2, 49488, Note_on_c, 0, 78, 67
2, 49532, Note_off_c, 0, 78, 0
2, 49536, Note_on_c, 0, 76, 67
2, 49716, Note_off_c, 0, 76, 0
2, 49728, Note_on_c, 0, 75, 67
2, 49908, Note_off_c, 0, 75, 0
2, 49920, Note_on_c, 0, 78, 67
2, 50012, Note_off_c, 0, 78, 0
2, 50016, Note_on_c, 0, 76, 67
2, 50108, Note_off_c, 0, 76, 0
2, 50112, Note_on_c, 0, 76, 67
2, 50292, Note_off_c, 0, 76, 0
2, 50496, Note_on_c, 0, 71, 70
2, 50676, Note_off_c, 0, 71, 0
2, 50688, Note_on_c, 0, 79, 67
2, 50776, Note_off_c, 0, 79, 0
2, 50784, Note_on_c, 0, 79, 67
2, 50872, Note_off_c, 0, 79, 0
2, 50880, Note_on_c, 0, 78, 67
2, 50972, Note_off_c, 0, 78, 0
2, 50976, Note_on_c, 0, 79, 67
2, 51068, Note_off_c, 0, 79, 0
2, 51072, Note_on_c, 0, 81, 67
2, 51160, Note_off_c, 0, 81, 0
2, 51168, Note_on_c, 0, 81, 67
2, 51256, Note_off_c, 0, 81, 0
2, 51264, Note_on_c, 0, 79, 67
2, 51356, Note_off_c, 0, 79, 0
2, 51360, Note_on_c, 0, 81, 67
2, 51452, Note_off_c, 0, 81, 0
2, 51456, Note_on_c, 0, 83, 67
2, 51828, Note_off_c, 0, 83, 0
2, 51840, Note_on_c, 0, 82, 67
2, 51884, Note_off_c, 0, 82, 0
2, 51888, Note_on_c, 0, 83, 67
2, 52032, Note_off_c, 0, 83, 0
2, 52032, Note_on_c, 0, 82, 67
2, 52076, Note_off_c, 0, 82, 0
2, 52080, Note_on_c, 0, 83, 67
2, 52224, Note_off_c, 0, 83, 0
2, 52224, Note_on_c, 0, 83, 67
2, 52316, Note_off_c, 0, 83, 0
2, 52320, Note_on_c, 0, 82, 67
2, 52412, Note_off_c, 0, 82, 0
2, 52416, Note_on_c, 0, 82, 67
2, 52596, Note_off_c, 0, 82, 0
2, 52608, Note_on_c, 0, 82, 67
2, 52700, Note_off_c, 0, 82, 0
2, 52704, Note_on_c, 0, 83, 67
2, 52796, Note_off_c, 0, 83, 0
2, 52800, Note_on_c, 0, 81, 67
2, 52892, Note_off_c, 0, 81, 0
2, 52896, Note_on_c, 0, 79, 67
2, 52988, Note_off_c, 0, 79, 0
2, 52992, Note_on_c, 0, 79, 67
2, 53016, Note_off_c, 0, 79, 0
2, 53016, Note_on_c, 0, 81, 67
2, 53040, Note_off_c, 0, 81, 0
2, 53040, Note_on_c, 0, 79, 67
2, 53064, Note_off_c, 0, 79, 0
2, 53064, Note_on_c, 0, 81, 67
2, 53088, Note_off_c, 0, 81, 0
2, 53088, Note_on_c, 0, 78, 67
2, 53180, Note_off_c, 0, 78, 0
2, 53184, Note_on_c, 0, 78, 67
2, 53556, Note_off_c, 0, 78, 0
2, 53568, Note_on_c, 0, 78, 67
2, 53748, Note_off_c, 0, 78, 0
2, 53760, Note_on_c, 0, 78, 67
2, 53852, Note_off_c, 0, 78, 0
2, 53856, Note_on_c, 0, 77, 67
2, 53948, Note_off_c, 0, 77, 0
2, 53952, Note_on_c, 0, 77, 67
2, 54132, Note_off_c, 0, 77, 0
2, 54144, Note_on_c, 0, 77, 67
2, 54236, Note_off_c, 0, 77, 0
2, 54240, Note_on_c, 0, 83, 67
2, 54328, Note_off_c, 0, 83, 0
2, 54336, Note_on_c, 0, 83, 67
2, 54424, Note_off_c, 0, 83, 0
2, 54432, Note_on_c, 0, 77, 67
2, 54524, Note_off_c, 0, 77, 0
2, 54528, Note_on_c, 0, 78, 67
2, 54620, Note_off_c, 0, 78, 0
2, 54624, Note_on_c, 0, 76, 67
2, 54716, Note_off_c, 0, 76, 0
2, 54720, Note_on_c, 0, 76, 67
2, 54900, Note_off_c, 0, 76, 0
2, 54912, Note_on_c, 0, 76, 67
2, 55004, Note_off_c, 0, 76, 0
2, 55008, Note_on_c, 0, 85, 67
2, 55096, Note_off_c, 0, 85, 0
2, 55104, Note_on_c, 0, 85, 67
2, 55192, Note_off_c, 0, 85, 0
2, 55200, Note_on_c, 0, 76, 67
2, 55292, Note_off_c, 0, 76, 0
2, 55296, Note_on_c, 0, 71, 73
2, 55388, Note_off_c, 0, 71, 0
2, 55392, Note_on_c, 0, 86, 67
2, 55484, Note_off_c, 0, 86, 0
2, 55488, Note_on_c, 0, 85, 67
2, 55580, Note_off_c, 0, 85, 0
2, 55584, Note_on_c, 0, 83, 67
2, 55676, Note_off_c, 0, 83, 0
2, 55680, Note_on_c, 0, 81, 67
2, 55772, Note_off_c, 0, 81, 0
2, 55776, Note_on_c, 0, 79, 67
2, 55868, Note_off_c, 0, 79, 0
2, 55872, Note_on_c, 0, 78, 67
2, 55964, Note_off_c, 0, 78, 0
2, 55968, Note_on_c, 0, 77, 67
2, 56060, Note_off_c, 0, 77, 0
2, 56064, Note_on_c, 0, 78, 67
2, 56348, Note_off_c, 0, 78, 0
2, 56352, Note_on_c, 0, 77, 67
2, 56444, Note_off_c, 0, 77, 0
2, 56448, Note_on_c, 0, 78, 67
2, 56732, Note_off_c, 0, 78, 0
2, 56736, Note_on_c, 0, 77, 67
2, 56828, Note_off_c, 0, 77, 0
2, 56832, Note_on_c, 0, 78, 67
2, 57012, Note_off_c, 0, 78, 0
2, 59712, Note_on_c, 0, 81, 67
2, 59892, Note_off_c, 0, 81, 0
2, 59904, Note_on_c, 0, 81, 67
2, 59996, Note_off_c, 0, 81, 0
2, 60000, Note_on_c, 0, 86, 67
2, 60092, Note_off_c, 0, 86, 0
2, 60096, Note_on_c, 0, 83, 67
2, 60188, Note_off_c, 0, 83, 0
2, 60192, Note_on_c, 0, 80, 67
2, 60284, Note_off_c, 0, 80, 0
2, 60288, Note_on_c, 0, 81, 67
2, 60380, Note_off_c, 0, 81, 0
2, 60384, Note_on_c, 0, 83, 67
2, 60476, Note_off_c, 0, 83, 0
2, 60480, Note_on_c, 0, 81, 67
2, 60500, Note_on_c, 0, 79, 67
2, 60504, Note_off_c, 0, 81, 0
2, 60568, Note_off_c, 0, 79, 0
2, 60576, Note_on_c, 0, 78, 67
2, 60596, Note_on_c, 0, 76, 67
2, 60600, Note_off_c, 0, 78, 0
2, 60664, Note_off_c, 0, 76, 0
2, 60672, Note_on_c, 0, 74, 67
2, 60852, Note_off_c, 0, 74, 0
2, 60864, Note_on_c, 0, 74, 67
2, 61004, Note_off_c, 0, 74, 0
2, 61008, Note_on_c, 0, 76, 67
2, 61032, Note_off_c, 0, 76, 0
2, 61032, Note_on_c, 0, 78, 67
2, 61056, Note_off_c, 0, 78, 0
2, 61056, Note_on_c, 0, 79, 67
2, 61236, Note_off_c, 0, 79, 0
2, 61344, Note_on_c, 0, 76, 67
2, 61436, Note_off_c, 0, 76, 0
2, 61440, Note_on_c, 0, 79, 67
2, 61532, Note_off_c, 0, 79, 0
2, 61536, Note_on_c, 0, 78, 67
2, 61628, Note_off_c, 0, 78, 0
2, 61632, Note_on_c, 0, 83, 67
2, 61724, Note_off_c, 0, 83, 0
2, 61728, Note_on_c, 0, 81, 67
2, 61816, Note_off_c, 0, 81, 0
2, 61824, Note_on_c, 0, 81, 67
2, 61912, Note_off_c, 0, 81, 0
2, 61920, Note_on_c, 0, 80, 67
2, 62012, Note_off_c, 0, 80, 0
2, 62016, Note_on_c, 0, 79, 67
2, 62108, Note_off_c, 0, 79, 0
2, 62112, Note_on_c, 0, 76, 67
2, 62204, Note_off_c, 0, 76, 0
2, 62208, Note_on_c, 0, 74, 67
2, 62388, Note_off_c, 0, 74, 0
2, 62400, Note_on_c, 0, 74, 67
2, 62540, Note_off_c, 0, 74, 0
2, 62544, Note_on_c, 0, 76, 67
2, 62568, Note_off_c, 0, 76, 0
2, 62568, Note_on_c, 0, 78, 67
2, 62592, Note_off_c, 0, 78, 0
2, 62592, Note_on_c, 0, 79, 67
2, 62772, Note_off_c, 0, 79, 0
2, 62880, Note_on_c, 0, 76, 67
2, 62972, Note_off_c, 0, 76, 0
2, 62976, Note_on_c, 0, 79, 67
2, 63068, Note_off_c, 0, 79, 0
2, 63072, Note_on_c, 0, 78, 67
2, 63164, Note_off_c, 0, 78, 0
2, 63168, Note_on_c, 0, 83, 67
2, 63260, Note_off_c, 0, 83, 0
2, 63264, Note_on_c, 0, 81, 67
2, 63352, Note_off_c, 0, 81, 0
2, 63360, Note_on_c, 0, 81, 67
2, 63448, Note_off_c, 0, 81, 0
2, 63456, Note_on_c, 0, 80, 67
2, 63548, Note_off_c, 0, 80, 0
2, 63552, Note_on_c, 0, 79, 67
2, 63644, Note_off_c, 0, 79, 0
2, 63648, Note_on_c, 0, 76, 67
2, 63740, Note_off_c, 0, 76, 0
2, 63744, Note_on_c, 0, 74, 67
2, 63924, Note_off_c, 0, 74, 0
2, 65664, Note_on_c, 0, 74, 67
2, 65708, Note_off_c, 0, 74, 0
2, 65712, Note_on_c, 0, 73, 67
2, 65756, Note_off_c, 0, 73, 0
2, 65760, Note_on_c, 0, 74, 67
2, 65804, Note_off_c, 0, 74, 0
2, 65808, Note_on_c, 0, 76, 67
2, 65852, Note_off_c, 0, 76, 0
2, 65856, Note_on_c, 0, 78, 67
2, 65900, Note_off_c, 0, 78, 0
2, 65904, Note_on_c, 0, 76, 67
2, 65948, Note_off_c, 0, 76, 0
2, 65952, Note_on_c, 0, 78, 67
2, 65996, Note_off_c, 0, 78, 0
2, 66000, Note_on_c, 0, 79, 67
2, 66044, Note_off_c, 0, 79, 0
2, 66048, Note_on_c, 0, 81, 67
2, 67764, Note_off_c, 0, 81, 0
2, 67776, Note_on_c, 0, 80, 67
2, 67956, Note_off_c, 0, 80, 0
2, 67968, Note_on_c, 0, 81, 67
2, 68148, Note_off_c, 0, 81, 0
2, 68160, Note_on_c, 0, 80, 67
2, 68340, Note_off_c, 0, 80, 0
2, 68352, Note_on_c, 0, 81, 67
2, 68532, Note_off_c, 0, 81, 0
2, 68736, Note_on_c, 0, 69, 73
2, 68916, Note_off_c, 0, 69, 0
2, 68928, Note_on_c, 0, 69, 73
2, 69108, Note_off_c, 0, 69, 0
2, 69120, Note_on_c, 0, 69, 73
2, 69300, Note_off_c, 0, 69, 0
2, 69312, Note_on_c, 0, 78, 67
2, 69684, Note_off_c, 0, 78, 0
2, 69696, Note_on_c, 0, 79, 67
2, 69740, Note_off_c, 0, 79, 0
2, 69744, Note_on_c, 0, 78, 67
2, 69788, Note_off_c, 0, 78, 0
2, 69792, Note_on_c, 0, 76, 67
2, 69836, Note_off_c, 0, 76, 0
2, 69840, Note_on_c, 0, 74, 67
2, 69884, Note_off_c, 0, 74, 0
2, 69888, Note_on_c, 0, 74, 67
2, 70068, Note_off_c, 0, 74, 0
2, 70080, Note_on_c, 0, 73, 70
2, 70260, Note_off_c, 0, 73, 0
2, 70272, Note_on_c, 0, 69, 73
2, 70452, Note_off_c, 0, 69, 0
2, 70464, Note_on_c, 0, 69, 73
2, 70644, Note_off_c, 0, 69, 0
2, 70656, Note_on_c, 0, 69, 73
2, 70836, Note_off_c, 0, 69, 0
2, 70848, Note_on_c, 0, 79, 67
2, 71228, Note_off_c, 0, 79, 0
2, 71232, Note_on_c, 0, 81, 67
2, 71276, Note_off_c, 0, 81, 0
2, 71280, Note_on_c, 0, 79, 67
2, 71324, Note_off_c, 0, 79, 0
2, 71328, Note_on_c, 0, 78, 67
2, 71372, Note_off_c, 0, 78, 0
2, 71376, Note_on_c, 0, 76, 67
2, 71420, Note_off_c, 0, 76, 0
2, 71424, Note_on_c, 0, 76, 67
2, 71604, Note_off_c, 0, 76, 0
2, 71616, Note_on_c, 0, 74, 69
2, 71796, Note_off_c, 0, 74, 0
2, 71808, Note_on_c, 0, 74, 69
2, 71852, Note_off_c, 0, 74, 0
2, 71856, Note_on_c, 0, 85, 67
2, 71900, Note_off_c, 0, 85, 0
2, 71904, Note_on_c, 0, 86, 67
2, 71948, Note_off_c, 0, 86, 0
2, 71952, Note_on_c, 0, 85, 67
2, 71996, Note_off_c, 0, 85, 0
2, 72000, Note_on_c, 0, 86, 67
2, 72044, Note_off_c, 0, 86, 0
2, 72048, Note_on_c, 0, 84, 67
2, 72092, Note_off_c, 0, 84, 0
2, 72096, Note_on_c, 0, 83, 67
2, 72140, Note_off_c, 0, 83, 0
2, 72144, Note_on_c, 0, 82, 67
2, 72188, Note_off_c, 0, 82, 0
2, 72192, Note_on_c, 0, 82, 67
2, 72236, Note_off_c, 0, 82, 0
2, 72240, Note_on_c, 0, 83, 67
2, 72284, Note_off_c, 0, 83, 0
2, 72288, Note_on_c, 0, 82, 67
2, 72332, Note_off_c, 0, 82, 0
2, 72336, Note_on_c, 0, 83, 67
2, 72380, Note_off_c, 0, 83, 0
2, 72384, Note_on_c, 0, 83, 67
2, 72756, Note_off_c, 0, 83, 0
2, 72768, Note_on_c, 0, 81, 67
2, 72812, Note_off_c, 0, 81, 0
2, 72816, Note_on_c, 0, 79, 67
2, 72860, Note_off_c, 0, 79, 0
2, 72864, Note_on_c, 0, 78, 67
2, 72908, Note_off_c, 0, 78, 0
2, 72912, Note_on_c, 0, 76, 67
2, 72956, Note_off_c, 0, 76, 0
2, 72960, Note_on_c, 0, 74, 69
2, 73140, Note_off_c, 0, 74, 0
2, 73152, Note_on_c, 0, 73, 70
2, 73332, Note_off_c, 0, 73, 0
2, 74880, Note_on_c, 0, 79, 67
2, 74912, Note_on_c, 0, 78, 67
2, 74924, Note_off_c, 0, 79, 0
2, 74956, Note_off_c, 0, 78, 0
2, 74976, Note_on_c, 0, 76, 67
2, 75020, Note_off_c, 0, 76, 0
2, 75024, Note_on_c, 0, 78, 67
2, 75068, Note_off_c, 0, 78, 0
2, 75072, Note_on_c, 0, 79, 67
2, 75116, Note_off_c, 0, 79, 0
2, 75120, Note_on_c, 0, 81, 67
2, 75164, Note_off_c, 0, 81, 0
2, 75168, Note_on_c, 0, 83, 67
2, 75212, Note_off_c, 0, 83, 0
2, 75216, Note_on_c, 0, 85, 67
2, 75260, Note_off_c, 0, 85, 0
2, 75264, Note_on_c, 0, 86, 67
2, 75308, Note_off_c, 0, 86, 0
2, 75312, Note_on_c, 0, 81, 67
2, 75356, Note_off_c, 0, 81, 0
2, 75360, Note_on_c, 0, 79, 67
2, 75404, Note_off_c, 0, 79, 0
2, 75408, Note_on_c, 0, 78, 67
2, 75452, Note_off_c, 0, 78, 0
2, 75456, Note_on_c, 0, 78, 67
2, 75500, Note_off_c, 0, 78, 0
2, 75504, Note_on_c, 0, 76, 67
2, 75548, Note_off_c, 0, 76, 0
2, 75552, Note_on_c, 0, 79, 67
2, 75596, Note_off_c, 0, 79, 0
2, 75600, Note_on_c, 0, 83, 67
2, 75644, Note_off_c, 0, 83, 0
2, 75648, Note_on_c, 0, 83, 67
2, 75692, Note_off_c, 0, 83, 0
2, 75696, Note_on_c, 0, 74, 67
2, 75840, Note_off_c, 0, 74, 0
2, 75840, Note_on_c, 0, 76, 67
2, 75856, Note_off_c, 0, 76, 0
2, 75856, Note_on_c, 0, 78, 67
2, 75872, Note_off_c, 0, 78, 0
2, 75872, Note_on_c, 0, 76, 67
2, 75888, Note_off_c, 0, 76, 0
2, 75888, Note_on_c, 0, 78, 67
2, 75904, Note_off_c, 0, 78, 0
2, 75904, Note_on_c, 0, 76, 67
2, 75920, Note_off_c, 0, 76, 0
2, 75920, Note_on_c, 0, 78, 67
2, 75936, Note_off_c, 0, 78, 0
2, 75936, Note_on_c, 0, 76, 60
2, 75952, Note_off_c, 0, 76, 64
2, 75952, Note_on_c, 0, 78, 60
2, 75968, Note_off_c, 0, 78, 64
2, 75968, Note_on_c, 0, 76, 60
2, 75984, Note_off_c, 0, 76, 64
2, 75984, Note_on_c, 0, 78, 60
2, 76000, Note_off_c, 0, 78, 64
2, 76000, Note_on_c, 0, 74, 67
2, 76016, Note_off_c, 0, 74, 0
2, 76016, Note_on_c, 0, 76, 67
2, 76032, Note_off_c, 0, 76, 0
2, 76032, Note_on_c, 0, 79, 67
2, 76172, Note_off_c, 0, 79, 0
2, 76176, Note_on_c, 0, 76, 67
2, 76220, Note_off_c, 0, 76, 0
2, 76224, Note_on_c, 0, 78, 67
2, 76404, Note_off_c, 0, 78, 0
2, 77952, Note_on_c, 0, 79, 67
2, 77996, Note_off_c, 0, 79, 0
2, 78000, Note_on_c, 0, 78, 67
2, 78044, Note_off_c, 0, 78, 0
2, 78048, Note_on_c, 0, 76, 67
2, 78092, Note_off_c, 0, 76, 0
2, 78096, Note_on_c, 0, 78, 67
2, 78140, Note_off_c, 0, 78, 0
2, 78144, Note_on_c, 0, 79, 67
2, 78188, Note_off_c, 0, 79, 0
2, 78192, Note_on_c, 0, 81, 67
2, 78236, Note_off_c, 0, 81, 0
2, 78240, Note_on_c, 0, 83, 67
2, 78284, Note_off_c, 0, 83, 0
2, 78288, Note_on_c, 0, 85, 67
2, 78332, Note_off_c, 0, 85, 0
2, 78336, Note_on_c, 0, 86, 67
2, 78380, Note_off_c, 0, 86, 0
2, 78384, Note_on_c, 0, 85, 67
2, 78428, Note_off_c, 0, 85, 0
2, 78432, Note_on_c, 0, 84, 67
2, 78476, Note_off_c, 0, 84, 0
2, 78480, Note_on_c, 0, 83, 67
2, 78524, Note_off_c, 0, 83, 0
2, 78528, Note_on_c, 0, 82, 67
2, 78572, Note_off_c, 0, 82, 0
2, 78576, Note_on_c, 0, 83, 67
2, 78620, Note_off_c, 0, 83, 0
2, 78624, Note_on_c, 0, 79, 67
2, 78668, Note_off_c, 0, 79, 0
2, 78672, Note_on_c, 0, 76, 67
2, 78716, Note_off_c, 0, 76, 0
2, 78720, Note_on_c, 0, 76, 67
2, 78736, Note_off_c, 0, 76, 0
2, 78736, Note_on_c, 0, 78, 67
2, 78752, Note_off_c, 0, 78, 0
2, 78752, Note_on_c, 0, 76, 60
2, 78768, Note_off_c, 0, 76, 64
2, 78768, Note_on_c, 0, 78, 60
2, 78784, Note_off_c, 0, 78, 64
2, 78784, Note_on_c, 0, 76, 60
2, 78800, Note_off_c, 0, 76, 64
2, 78800, Note_on_c, 0, 78, 60
2, 78816, Note_off_c, 0, 78, 64
2, 78816, Note_on_c, 0, 76, 60
2, 78832, Note_off_c, 0, 76, 64
2, 78832, Note_on_c, 0, 78, 60
2, 78848, Note_off_c, 0, 78, 64
2, 78848, Note_on_c, 0, 76, 60
2, 78864, Note_off_c, 0, 76, 64
2, 78864, Note_on_c, 0, 78, 60
2, 78880, Note_off_c, 0, 78, 64
2, 78880, Note_on_c, 0, 76, 67
2, 78896, Note_off_c, 0, 76, 0
2, 78896, Note_on_c, 0, 78, 67
2, 78912, Note_off_c, 0, 78, 0
2, 78912, Note_on_c, 0, 76, 67
2, 78928, Note_off_c, 0, 76, 0
2, 78928, Note_on_c, 0, 78, 67
2, 78944, Note_off_c, 0, 78, 0
2, 78944, Note_on_c, 0, 76, 67
2, 78960, Note_off_c, 0, 76, 0
2, 78960, Note_on_c, 0, 78, 67
2, 78976, Note_off_c, 0, 78, 0
2, 78976, Note_on_c, 0, 76, 67
2, 78992, Note_off_c, 0, 76, 0
2, 78992, Note_on_c, 0, 78, 67
2, 79008, Note_off_c, 0, 78, 0
2, 79008, Note_on_c, 0, 76, 67
2, 79024, Note_off_c, 0, 76, 0
2, 79024, Note_on_c, 0, 78, 67
2, 79040, Note_off_c, 0, 78, 0
2, 79040, Note_on_c, 0, 76, 67
2, 79056, Note_off_c, 0, 76, 0
2, 79056, Note_on_c, 0, 78, 67
2, 79072, Note_off_c, 0, 78, 0
2, 79072, Note_on_c, 0, 74, 67
2, 79088, Note_off_c, 0, 74, 0
2, 79088, Note_on_c, 0, 76, 67
2, 79104, Note_off_c, 0, 76, 0
2, 79104, Note_on_c, 0, 75, 69
2, 79292, Note_off_c, 0, 75, 0
2, 79296, Note_on_c, 0, 76, 67
2, 79484, Note_off_c, 0, 76, 0
2, 79488, Note_on_c, 0, 82, 67
2, 79532, Note_off_c, 0, 82, 0
2, 79536, Note_on_c, 0, 83, 67
2, 79580, Note_off_c, 0, 83, 0
2, 79584, Note_on_c, 0, 81, 67
2, 79628, Note_off_c, 0, 81, 0
2, 79632, Note_on_c, 0, 79, 67
2, 79676, Note_off_c, 0, 79, 0
2, 79680, Note_on_c, 0, 78, 67
2, 79724, Note_off_c, 0, 78, 0
2, 79728, Note_on_c, 0, 76, 67
2, 79772, Note_off_c, 0, 76, 0
2, 79776, Note_on_c, 0, 79, 67
2, 79820, Note_off_c, 0, 79, 0
2, 79824, Note_on_c, 0, 76, 67
2, 79868, Note_off_c, 0, 76, 0
2, 79872, Note_on_c, 0, 81, 67
2, 79916, Note_off_c, 0, 81, 0
2, 79920, Note_on_c, 0, 83, 67
2, 79964, Note_off_c, 0, 83, 0
2, 79968, Note_on_c, 0, 85, 67
2, 80012, Note_off_c, 0, 85, 0
2, 80016, Note_on_c, 0, 86, 67
2, 80060, Note_off_c, 0, 86, 0
2, 80064, Note_on_c, 0, 85, 67
2, 80108, Note_off_c, 0, 85, 0
2, 80112, Note_on_c, 0, 86, 67
2, 80156, Note_off_c, 0, 86, 0
2, 80160, Note_on_c, 0, 85, 67
2, 80204, Note_off_c, 0, 85, 0
2, 80208, Note_on_c, 0, 86, 67
2, 80252, Note_off_c, 0, 86, 0
2, 80256, Note_on_c, 0, 76, 67
2, 80272, Note_off_c, 0, 76, 0
2, 80272, Note_on_c, 0, 78, 67
2, 80288, Note_off_c, 0, 78, 0
2, 80288, Note_on_c, 0, 76, 67
2, 80304, Note_off_c, 0, 76, 0
2, 80304, Note_on_c, 0, 78, 67
2, 80320, Note_off_c, 0, 78, 0
2, 80320, Note_on_c, 0, 76, 67
2, 80336, Note_off_c, 0, 76, 0
2, 80336, Note_on_c, 0, 78, 67
2, 80352, Note_off_c, 0, 78, 0
2, 80352, Note_on_c, 0, 76, 67
2, 80368, Note_off_c, 0, 76, 0
2, 80368, Note_on_c, 0, 78, 67
2, 80384, Note_off_c, 0, 78, 0
2, 80384, Note_on_c, 0, 76, 67
2, 80400, Note_off_c, 0, 76, 0
2, 80400, Note_on_c, 0, 78, 67
2, 80416, Note_off_c, 0, 78, 0
2, 80416, Note_on_c, 0, 76, 67
2, 80432, Note_off_c, 0, 76, 0
2, 80432, Note_on_c, 0, 78, 67
2, 80448, Note_off_c, 0, 78, 0
2, 80448, Note_on_c, 0, 76, 60
2, 80464, Note_off_c, 0, 76, 64
2, 80464, Note_on_c, 0, 78, 67
2, 80480, Note_off_c, 0, 78, 0
2, 80480, Note_on_c, 0, 76, 60
2, 80496, Note_off_c, 0, 76, 64
2, 80496, Note_on_c, 0, 78, 60
2, 80512, Note_off_c, 0, 78, 64
2, 80512, Note_on_c, 0, 76, 60
2, 80528, Note_off_c, 0, 76, 64
2, 80528, Note_on_c, 0, 78, 60
2, 80544, Note_off_c, 0, 78, 64
2, 80544, Note_on_c, 0, 76, 60
2, 80560, Note_off_c, 0, 76, 64
2, 80560, Note_on_c, 0, 78, 60
2, 80576, Note_off_c, 0, 78, 64
2, 80576, Note_on_c, 0, 76, 60
2, 80592, Note_off_c, 0, 76, 64
2, 80592, Note_on_c, 0, 78, 60
2, 80608, Note_off_c, 0, 78, 64
2, 80608, Note_on_c, 0, 74, 60
2, 80624, Note_off_c, 0, 74, 64
2, 80624, Note_on_c, 0, 76, 60
2, 80640, Note_off_c, 0, 76, 64
2, 80640, Note_on_c, 0, 81, 67
2, 81020, Note_off_c, 0, 81, 0
2, 81024, Note_on_c, 0, 62, 76
2, 81404, Note_off_c, 0, 62, 0
2, 81408, Note_on_c, 0, 84, 67
2, 81788, Note_off_c, 0, 84, 0
2, 81792, Note_on_c, 0, 63, 76
2, 82172, Note_off_c, 0, 63, 0
2, 82176, Note_on_c, 0, 64, 75
2, 82556, Note_off_c, 0, 64, 0
2, 86016, Note_on_c, 0, 81, 67
2, 86196, Note_off_c, 0, 81, 0
2, 86208, Note_on_c, 0, 80, 67
2, 86388, Note_off_c, 0, 80, 0
2, 86400, Note_on_c, 0, 79, 67
2, 86580, Note_off_c, 0, 79, 0
2, 86592, Note_on_c, 0, 78, 67
2, 86772, Note_off_c, 0, 78, 0
2, 86784, Note_on_c, 0, 76, 67
2, 86800, Note_off_c, 0, 76, 0
2, 86800, Note_on_c, 0, 78, 67
2, 86816, Note_off_c, 0, 78, 0
2, 86816, Note_on_c, 0, 76, 67
2, 86832, Note_off_c, 0, 76, 0
2, 86832, Note_on_c, 0, 78, 67
2, 86848, Note_off_c, 0, 78, 0
2, 86848, Note_on_c, 0, 76, 67
2, 86864, Note_off_c, 0, 76, 0
2, 86864, Note_on_c, 0, 78, 67
2, 86880, Note_off_c, 0, 78, 0
2, 86880, Note_on_c, 0, 76, 67
2, 86896, Note_off_c, 0, 76, 0
2, 86896, Note_on_c, 0, 78, 67
2, 86912, Note_off_c, 0, 78, 0
2, 86912, Note_on_c, 0, 76, 67
2, 86928, Note_off_c, 0, 76, 0
2, 86928, Note_on_c, 0, 78, 67
2, 86944, Note_off_c, 0, 78, 0
2, 86944, Note_on_c, 0, 76, 67
2, 86960, Note_off_c, 0, 76, 0
2, 86960, Note_on_c, 0, 78, 67
2, 86976, Note_off_c, 0, 78, 0
2, 86976, Note_on_c, 0, 76, 67
2, 86992, Note_off_c, 0, 76, 0
2, 86992, Note_on_c, 0, 78, 67
2, 87008, Note_off_c, 0, 78, 0
2, 87008, Note_on_c, 0, 76, 67
2, 87024, Note_off_c, 0, 76, 0
2, 87024, Note_on_c, 0, 78, 67
2, 87040, Note_off_c, 0, 78, 0
2, 87040, Note_on_c, 0, 76, 60
2, 87056, Note_off_c, 0, 76, 64
2, 87056, Note_on_c, 0, 78, 60
2, 87072, Note_off_c, 0, 78, 64
2, 87072, Note_on_c, 0, 76, 60
2, 87088, Note_off_c, 0, 76, 64
2, 87088, Note_on_c, 0, 78, 60
2, 87104, Note_off_c, 0, 78, 64
2, 87104, Note_on_c, 0, 76, 60
2, 87120, Note_off_c, 0, 76, 64
2, 87120, Note_on_c, 0, 78, 60
2, 87136, Note_off_c, 0, 78, 64
2, 87136, Note_on_c, 0, 76, 60
2, 87152, Note_off_c, 0, 76, 64
2, 87152, Note_on_c, 0, 78, 60
2, 87168, Note_off_c, 0, 78, 64
2, 87168, Note_on_c, 0, 76, 67
2, 87184, Note_off_c, 0, 76, 0
2, 87184, Note_on_c, 0, 78, 67
2, 87200, Note_off_c, 0, 78, 0
2, 87200, Note_on_c, 0, 76, 67
2, 87216, Note_off_c, 0, 76, 0
2, 87216, Note_on_c, 0, 78, 67
2, 87232, Note_off_c, 0, 78, 0
2, 87232, Note_on_c, 0, 76, 67
2, 87248, Note_off_c, 0, 76, 0
2, 87248, Note_on_c, 0, 78, 67
2, 87264, Note_off_c, 0, 78, 0
2, 87264, Note_on_c, 0, 76, 67
2, 87280, Note_off_c, 0, 76, 0
2, 87280, Note_on_c, 0, 78, 60
2, 87296, Note_off_c, 0, 78, 64
2, 87296, Note_on_c, 0, 76, 60
2, 87312, Note_off_c, 0, 76, 64
2, 87312, Note_on_c, 0, 78, 67
2, 87328, Note_off_c, 0, 78, 0
2, 87328, Note_on_c, 0, 76, 67
2, 87344, Note_off_c, 0, 76, 0
2, 87344, Note_on_c, 0, 78, 67
2, 87360, Note_off_c, 0, 78, 0
2, 87360, Note_on_c, 0, 76, 67
2, 87376, Note_off_c, 0, 76, 0
2, 87376, Note_on_c, 0, 78, 67
2, 87392, Note_off_c, 0, 78, 0
2, 87392, Note_on_c, 0, 76, 60
2, 87408, Note_off_c, 0, 76, 64
2, 87408, Note_on_c, 0, 78, 60
2, 87424, Note_off_c, 0, 78, 64
2, 87424, Note_on_c, 0, 76, 60
2, 87440, Note_off_c, 0, 76, 64
2, 87440, Note_on_c, 0, 78, 60
2, 87456, Note_off_c, 0, 78, 64
2, 87456, Note_on_c, 0, 74, 67
2, 87504, Note_off_c, 0, 74, 0
2, 87504, Note_on_c, 0, 76, 67
2, 87552, Note_off_c, 0, 76, 0
2, 87552, Note_on_c, 0, 74, 67
2, 87932, Note_off_c, 0, 74, 0
2, 91968, Note_on_c, 0, 81, 67
2, 92148, Note_off_c, 0, 81, 0
2, 92160, Note_on_c, 0, 81, 67
2, 92252, Note_off_c, 0, 81, 0
2, 92256, Note_on_c, 0, 86, 67
2, 92348, Note_off_c, 0, 86, 0
2, 92352, Note_on_c, 0, 83, 67
2, 92444, Note_off_c, 0, 83, 0
2, 92448, Note_on_c, 0, 80, 67
2, 92540, Note_off_c, 0, 80, 0
2, 92544, Note_on_c, 0, 81, 67
2, 92636, Note_off_c, 0, 81, 0
2, 92640, Note_on_c, 0, 83, 67
2, 92732, Note_off_c, 0, 83, 0
2, 92736, Note_on_c, 0, 81, 67
2, 92760, Note_off_c, 0, 81, 0
2, 92760, Note_on_c, 0, 79, 67
2, 92828, Note_off_c, 0, 79, 0
2, 92832, Note_on_c, 0, 78, 67
2, 92856, Note_off_c, 0, 78, 0
2, 92856, Note_on_c, 0, 76, 67
2, 92924, Note_off_c, 0, 76, 0
2, 92928, Note_on_c, 0, 74, 69
2, 93108, Note_off_c, 0, 74, 0
2, 93120, Note_on_c, 0, 74, 69
2, 93260, Note_off_c, 0, 74, 0
2, 93264, Note_on_c, 0, 76, 67
2, 93288, Note_off_c, 0, 76, 0
2, 93288, Note_on_c, 0, 78, 67
2, 93312, Note_off_c, 0, 78, 0
2, 93312, Note_on_c, 0, 79, 67
2, 93500, Note_off_c, 0, 79, 0
2, 93600, Note_on_c, 0, 76, 67
2, 93692, Note_off_c, 0, 76, 0
2, 93696, Note_on_c, 0, 79, 67
2, 93788, Note_off_c, 0, 79, 0
2, 93792, Note_on_c, 0, 78, 67
2, 93884, Note_off_c, 0, 78, 0
2, 93888, Note_on_c, 0, 83, 67
2, 93980, Note_off_c, 0, 83, 0
2, 93984, Note_on_c, 0, 81, 67
2, 94076, Note_off_c, 0, 81, 0
2, 94080, Note_on_c, 0, 81, 67
2, 94172, Note_off_c, 0, 81, 0
2, 94176, Note_on_c, 0, 80, 67
2, 94268, Note_off_c, 0, 80, 0
2, 94272, Note_on_c, 0, 79, 67
2, 94364, Note_off_c, 0, 79, 0
2, 94368, Note_on_c, 0, 76, 67
2, 94460, Note_off_c, 0, 76, 0
2, 94464, Note_on_c, 0, 74, 69
2, 94644, Note_off_c, 0, 74, 0
2, 94652, Note_on_c, 0, 74, 67
2, 94684, Note_off_c, 0, 74, 0
2, 94684, Note_on_c, 0, 78, 67
2, 94716, Note_off_c, 0, 78, 0
2, 94716, Note_on_c, 0, 76, 67
2, 94748, Note_off_c, 0, 76, 0
2, 94748, Note_on_c, 0, 74, 67
2, 94780, Note_off_c, 0, 74, 0
2, 94780, Note_on_c, 0, 76, 67
2, 94812, Note_off_c, 0, 76, 0
2, 94812, Note_on_c, 0, 78, 67
2, 94844, Note_off_c, 0, 78, 0
2, 94848, Note_on_c, 0, 79, 67
2, 95028, Note_off_c, 0, 79, 0
2, 95136, Note_on_c, 0, 76, 67
2, 95228, Note_off_c, 0, 76, 0
2, 95232, Note_on_c, 0, 79, 67
2, 95324, Note_off_c, 0, 79, 0
2, 95328, Note_on_c, 0, 78, 67
2, 95420, Note_off_c, 0, 78, 0
2, 95424, Note_on_c, 0, 83, 67
2, 95516, Note_off_c, 0, 83, 0
2, 95520, Note_on_c, 0, 81, 67
2, 95608, Note_off_c, 0, 81, 0
2, 95616, Note_on_c, 0, 81, 67
2, 95704, Note_off_c, 0, 81, 0
2, 95712, Note_on_c, 0, 80, 67
2, 95804, Note_off_c, 0, 80, 0
2, 95808, Note_on_c, 0, 79, 67
2, 95900, Note_off_c, 0, 79, 0
2, 95904, Note_on_c, 0, 76, 67
2, 95996, Note_off_c, 0, 76, 0
2, 96000, Note_on_c, 0, 74, 79
2, 96180, Note_off_c, 0, 74, 0
2, 96192, Note_on_c, 0, 78, 67
2, 96372, Note_off_c, 0, 78, 0
2, 96384, Note_on_c, 0, 74, 67
2, 96564, Note_off_c, 0, 74, 0
2, 96564, End_track
3, 0, Start_track
3, 0, Title_t, "Flute Concerto #1"
3, 0, Control_c, 1, 0, 0
3, 0, Program_c, 1, 0
3, 0, Control_c, 1, 7, 80
3, 0, Control_c, 1, 10, 47
3, 0, Control_c, 1, 91, 44
3, 0, Control_c, 1, 93, 42
3, 0, Key_signature, 2, "major"
3, 0, Control_c, 1, 121, 0
3, 144, Control_c, 1, 10, 43
3, 192, Control_c, 1, 91, 63
3, 240, Control_c, 1, 93, 40
3, 288, Program_c, 1, 0
3, 1536, Note_on_c, 1, 57, 87
3, 1916, Note_off_c, 1, 57, 0
3, 1920, Note_on_c, 1, 62, 85
3, 2108, Note_off_c, 1, 62, 0
3, 2112, Note_on_c, 1, 66, 84
3, 2300, Note_off_c, 1, 66, 0
3, 2304, Note_on_c, 1, 69, 82
3, 2492, Note_off_c, 1, 69, 0
3, 2496, Note_on_c, 1, 69, 81
3, 2684, Note_off_c, 1, 69, 0
3, 2688, Note_on_c, 1, 69, 81
3, 2876, Note_off_c, 1, 69, 0
3, 2880, Note_on_c, 1, 69, 60
3, 3068, Note_off_c, 1, 69, 0
3, 3072, Note_on_c, 1, 69, 60
3, 3164, Note_off_c, 1, 69, 0
3, 3168, Note_on_c, 1, 74, 60
3, 3260, Note_off_c, 1, 74, 0
3, 3264, Note_on_c, 1, 71, 60
3, 3356, Note_off_c, 1, 71, 0
3, 3360, Note_on_c, 1, 67, 60
3, 3452, Note_off_c, 1, 67, 0
3, 3456, Note_on_c, 1, 69, 60
3, 3548, Note_off_c, 1, 69, 0
3, 3552, Note_on_c, 1, 71, 60
3, 3644, Note_off_c, 1, 71, 0
3, 3648, Note_on_c, 1, 69, 60
3, 3672, Note_off_c, 1, 69, 0
3, 3672, Note_on_c, 1, 67, 60
3, 3740, Note_off_c, 1, 67, 0
3, 3744, Note_on_c, 1, 66, 60
3, 3768, Note_off_c, 1, 66, 0
3, 3768, Note_on_c, 1, 64, 60
3, 3836, Note_off_c, 1, 64, 0
3, 3840, Note_on_c, 1, 62, 60
3, 3840, Note_on_c, 1, 57, 60
3, 3840, Note_on_c, 1, 54, 60
3, 3932, Note_off_c, 1, 57, 0
3, 3932, Note_off_c, 1, 54, 0
3, 3936, Note_on_c, 1, 57, 60
3, 3936, Note_on_c, 1, 54, 60
3, 4028, Note_off_c, 1, 62, 0
3, 4028, Note_off_c, 1, 57, 0
3, 4028, Note_off_c, 1, 54, 0
3, 4032, Note_on_c, 1, 62, 60
3, 4032, Note_on_c, 1, 57, 60
3, 4032, Note_on_c, 1, 54, 60
3, 4124, Note_off_c, 1, 57, 0
3, 4124, Note_off_c, 1, 54, 0
3, 4128, Note_on_c, 1, 54, 60
3, 4128, Note_on_c, 1, 57, 60
3, 4172, Note_off_c, 1, 62, 0
3, 4176, Note_on_c, 1, 64, 60
3, 4200, Note_off_c, 1, 64, 0
3, 4200, Note_on_c, 1, 66, 60
3, 4220, Note_off_c, 1, 54, 0
3, 4220, Note_off_c, 1, 57, 0
3, 4224, Note_off_c, 1, 66, 0
3, 4224, Note_on_c, 1, 67, 60
3, 4224, Note_on_c, 1, 61, 60
3, 4224, Note_on_c, 1, 57, 60
3, 4316, Note_off_c, 1, 61, 0
3, 4316, Note_off_c, 1, 57, 0
3, 4320, Note_on_c, 1, 61, 60
3, 4320, Note_on_c, 1, 57, 60
3, 4412, Note_off_c, 1, 67, 0
3, 4412, Note_off_c, 1, 61, 0
3, 4412, Note_off_c, 1, 57, 0
3, 4416, Note_on_c, 1, 61, 60
3, 4416, Note_on_c, 1, 57, 60
3, 4508, Note_off_c, 1, 61, 0
3, 4508, Note_off_c, 1, 57, 0
3, 4512, Note_on_c, 1, 64, 60
3, 4512, Note_on_c, 1, 61, 60
3, 4512, Note_on_c, 1, 57, 60
3, 4604, Note_off_c, 1, 64, 0
3, 4604, Note_off_c, 1, 61, 0
3, 4604, Note_off_c, 1, 57, 0
3, 4608, Note_on_c, 1, 67, 60
3, 4608, Note_on_c, 1, 64, 60
3, 4700, Note_off_c, 1, 67, 0
3, 4700, Note_off_c, 1, 64, 0
3, 4704, Note_on_c, 1, 66, 60
3, 4704, Note_on_c, 1, 62, 60
3, 4796, Note_off_c, 1, 66, 0
3, 4796, Note_off_c, 1, 62, 0
3, 4800, Note_on_c, 1, 71, 60
3, 4800, Note_on_c, 1, 67, 60
3, 4892, Note_off_c, 1, 71, 0
3, 4892, Note_off_c, 1, 67, 0
3, 4896, Note_on_c, 1, 69, 60
3, 4896, Note_on_c, 1, 66, 60
3, 4988, Note_off_c, 1, 69, 0
3, 4988, Note_off_c, 1, 66, 0
3, 4992, Note_on_c, 1, 69, 60
3, 4992, Note_on_c, 1, 66, 60
3, 5084, Note_off_c, 1, 69, 0
3, 5084, Note_off_c, 1, 66, 0
3, 5088, Note_on_c, 1, 68, 60
3, 5088, Note_on_c, 1, 65, 60
3, 5180, Note_off_c, 1, 68, 0
3, 5180, Note_off_c, 1, 65, 0
3, 5184, Note_on_c, 1, 67, 60
3, 5184, Note_on_c, 1, 64, 60
3, 5276, Note_off_c, 1, 67, 0
3, 5276, Note_off_c, 1, 64, 0
3, 5280, Note_on_c, 1, 64, 60
3, 5280, Note_on_c, 1, 61, 60
3, 5372, Note_off_c, 1, 64, 0
3, 5372, Note_off_c, 1, 61, 0
3, 5376, Note_on_c, 1, 62, 60
3, 5376, Note_on_c, 1, 57, 60
3, 5468, Note_off_c, 1, 57, 0
3, 5472, Note_on_c, 1, 57, 60
3, 5552, Note_on_c, 1, 62, 60
3, 5552, Note_on_c, 1, 57, 60
3, 5564, Note_off_c, 1, 62, 0
3, 5564, Note_off_c, 1, 57, 0
3, 5644, Note_off_c, 1, 57, 0
3, 5664, Note_on_c, 1, 57, 60
3, 5692, Note_off_c, 1, 62, 0
3, 5712, Note_on_c, 1, 64, 60
3, 5732, Note_off_c, 1, 64, 0
3, 5736, Note_on_c, 1, 66, 60
3, 5756, Note_off_c, 1, 57, 0
3, 5756, Note_off_c, 1, 66, 0
3, 5760, Note_on_c, 1, 67, 60
3, 5760, Note_on_c, 1, 59, 60
3, 5760, Note_on_c, 1, 55, 60
3, 5852, Note_off_c, 1, 59, 0
3, 5852, Note_off_c, 1, 55, 0
3, 5856, Note_on_c, 1, 59, 60
3, 5856, Note_on_c, 1, 55, 60
3, 5948, Note_off_c, 1, 67, 0
3, 5948, Note_off_c, 1, 59, 0
3, 5948, Note_off_c, 1, 55, 0
3, 5952, Note_on_c, 1, 61, 60
3, 5952, Note_on_c, 1, 57, 60
3, 6044, Note_off_c, 1, 61, 0
3, 6044, Note_off_c, 1, 57, 0
3, 6048, Note_on_c, 1, 64, 60
3, 6048, Note_on_c, 1, 61, 60
3, 6048, Note_on_c, 1, 57, 60
3, 6140, Note_off_c, 1, 64, 0
3, 6140, Note_off_c, 1, 61, 0
3, 6140, Note_off_c, 1, 57, 0
3, 6144, Note_on_c, 1, 67, 60
3, 6144, Note_on_c, 1, 64, 60
3, 6236, Note_off_c, 1, 67, 0
3, 6236, Note_off_c, 1, 64, 0
3, 6240, Note_on_c, 1, 66, 60
3, 6240, Note_on_c, 1, 62, 60
3, 6332, Note_off_c, 1, 66, 0
3, 6332, Note_off_c, 1, 62, 0
3, 6336, Note_on_c, 1, 71, 60
3, 6336, Note_on_c, 1, 67, 60
3, 6428, Note_off_c, 1, 71, 0
3, 6428, Note_off_c, 1, 67, 0
3, 6432, Note_on_c, 1, 69, 60
3, 6432, Note_on_c, 1, 66, 60
3, 6524, Note_off_c, 1, 69, 0
3, 6524, Note_off_c, 1, 66, 0
3, 6528, Note_on_c, 1, 69, 60
3, 6528, Note_on_c, 1, 66, 60
3, 6620, Note_off_c, 1, 69, 0
3, 6620, Note_off_c, 1, 66, 0
3, 6624, Note_on_c, 1, 68, 60
3, 6624, Note_on_c, 1, 65, 60
3, 6716, Note_off_c, 1, 68, 0
3, 6716, Note_off_c, 1, 65, 0
3, 6720, Note_on_c, 1, 67, 60
3, 6720, Note_on_c, 1, 64, 60
3, 6812, Note_off_c, 1, 67, 0
3, 6812, Note_off_c, 1, 64, 0
3, 6816, Note_on_c, 1, 64, 60
3, 6816, Note_on_c, 1, 61, 60
3, 6864, Note_on_c, 1, 64, 75
3, 6908, Note_off_c, 1, 64, 0
3, 6908, Note_off_c, 1, 61, 0
3, 6908, Note_off_c, 1, 64, 0
3, 6912, Note_on_c, 1, 62, 75
3, 6912, Note_on_c, 1, 62, 75
3, 6956, Note_off_c, 1, 62, 0
3, 6960, Note_on_c, 1, 61, 75
3, 7004, Note_off_c, 1, 61, 0
3, 7008, Note_on_c, 1, 62, 75
3, 7052, Note_off_c, 1, 62, 0
3, 7056, Note_on_c, 1, 64, 75
3, 7100, Note_off_c, 1, 62, 0
3, 7100, Note_off_c, 1, 64, 0
3, 7104, Note_on_c, 1, 66, 78
3, 7104, Note_on_c, 1, 62, 78
3, 7148, Note_off_c, 1, 66, 0
3, 7152, Note_on_c, 1, 67, 78
3, 7196, Note_off_c, 1, 67, 0
3, 7200, Note_on_c, 1, 69, 78
3, 7244, Note_off_c, 1, 69, 0
3, 7248, Note_on_c, 1, 66, 78
3, 7292, Note_off_c, 1, 66, 0
3, 7296, Note_on_c, 1, 62, 81
3, 7340, Note_off_c, 1, 62, 0
3, 7344, Note_on_c, 1, 61, 81
3, 7388, Note_off_c, 1, 61, 0
3, 7392, Note_on_c, 1, 62, 81
3, 7436, Note_off_c, 1, 62, 0
3, 7440, Note_on_c, 1, 64, 81
3, 7484, Note_off_c, 1, 62, 0
3, 7484, Note_off_c, 1, 64, 0
3, 7488, Note_on_c, 1, 66, 81
3, 7488, Note_on_c, 1, 62, 81
3, 7532, Note_off_c, 1, 66, 0
3, 7532, Note_off_c, 1, 62, 0
3, 7536, Note_on_c, 1, 67, 81
3, 7536, Note_on_c, 1, 60, 81
3, 7580, Note_off_c, 1, 67, 0
3, 7580, Note_off_c, 1, 60, 0
3, 7584, Note_on_c, 1, 69, 81
3, 7584, Note_on_c, 1, 59, 81
3, 7628, Note_off_c, 1, 69, 0
3, 7628, Note_off_c, 1, 59, 0
3, 7632, Note_on_c, 1, 66, 81
3, 7632, Note_on_c, 1, 60, 81
3, 7676, Note_off_c, 1, 66, 0
3, 7676, Note_off_c, 1, 60, 0
3, 7680, Note_on_c, 1, 67, 81
3, 7680, Note_on_c, 1, 60, 81
3, 7700, Note_off_c, 1, 60, 0
3, 7712, Note_on_c, 1, 59, 81
3, 7724, Note_off_c, 1, 67, 0
3, 7728, Note_on_c, 1, 66, 81
3, 7772, Note_off_c, 1, 66, 0
3, 7776, Note_on_c, 1, 67, 81
3, 7820, Note_off_c, 1, 67, 0
3, 7824, Note_on_c, 1, 62, 81
3, 7868, Note_off_c, 1, 62, 0
3, 7872, Note_on_c, 1, 71, 81
3, 7920, Note_on_c, 1, 62, 81
3, 7964, Note_off_c, 1, 62, 0
3, 7968, Note_on_c, 1, 64, 81
3, 8012, Note_off_c, 1, 64, 0
3, 8016, Note_on_c, 1, 66, 81
3, 8060, Note_off_c, 1, 66, 0
3, 8064, Note_on_c, 1, 67, 81
3, 8092, Note_off_c, 1, 59, 0
3, 8108, Note_off_c, 1, 67, 0
3, 8112, Note_on_c, 1, 66, 81
3, 8156, Note_off_c, 1, 66, 0
3, 8160, Note_on_c, 1, 67, 81
3, 8204, Note_off_c, 1, 67, 0
3, 8208, Note_on_c, 1, 62, 81
3, 8252, Note_off_c, 1, 71, 0
3, 8252, Note_off_c, 1, 62, 0
3, 8256, Note_on_c, 1, 74, 81
3, 8304, Note_on_c, 1, 62, 81
3, 8348, Note_off_c, 1, 62, 0
3, 8352, Note_on_c, 1, 64, 81
3, 8396, Note_off_c, 1, 64, 0
3, 8400, Note_on_c, 1, 66, 81
3, 8444, Note_off_c, 1, 74, 0
3, 8444, Note_off_c, 1, 66, 0
3, 8448, Note_on_c, 1, 67, 81
3, 8448, Note_on_c, 1, 73, 81
3, 8464, Note_off_c, 1, 73, 0
3, 8464, Note_on_c, 1, 71, 81
3, 8480, Note_off_c, 1, 71, 0
3, 8480, Note_on_c, 1, 73, 81
3, 8496, Note_off_c, 1, 73, 0
3, 8496, Note_on_c, 1, 71, 81
3, 8512, Note_off_c, 1, 71, 0
3, 8512, Note_on_c, 1, 73, 81
3, 8528, Note_off_c, 1, 73, 0
3, 8528, Note_on_c, 1, 71, 81
3, 8544, Note_off_c, 1, 71, 0
3, 8544, Note_on_c, 1, 73, 60
3, 8560, Note_off_c, 1, 73, 64
3, 8560, Note_on_c, 1, 71, 81
3, 8576, Note_off_c, 1, 71, 0
3, 8576, Note_on_c, 1, 71, 60
3, 8592, Note_off_c, 1, 71, 64
3, 8592, Note_on_c, 1, 73, 60
3, 8608, Note_off_c, 1, 73, 64
3, 8608, Note_on_c, 1, 69, 60
3, 8624, Note_off_c, 1, 69, 64
3, 8624, Note_on_c, 1, 71, 60
3, 8636, Note_off_c, 1, 67, 0
3, 8640, Note_off_c, 1, 71, 64
3, 8640, Note_on_c, 1, 69, 54
3, 8640, Note_on_c, 1, 66, 81
3, 8684, Note_off_c, 1, 66, 0
3, 8688, Note_on_c, 1, 67, 81
3, 8732, Note_off_c, 1, 67, 0
3, 8736, Note_on_c, 1, 69, 81
3, 8780, Note_off_c, 1, 69, 0
3, 8784, Note_on_c, 1, 66, 81
3, 8828, Note_off_c, 1, 69, 0
3, 8828, Note_off_c, 1, 66, 0
3, 8832, Note_on_c, 1, 62, 81
3, 8876, Note_off_c, 1, 62, 0
3, 8880, Note_on_c, 1, 61, 81
3, 8924, Note_off_c, 1, 61, 0
3, 8928, Note_on_c, 1, 62, 81
3, 8972, Note_off_c, 1, 62, 0
3, 8976, Note_on_c, 1, 64, 81
3, 9020, Note_off_c, 1, 64, 0
3, 9024, Note_on_c, 1, 66, 81
3, 9068, Note_off_c, 1, 66, 0
3, 9072, Note_on_c, 1, 67, 81
3, 9116, Note_off_c, 1, 67, 0
3, 9120, Note_on_c, 1, 69, 81
3, 9164, Note_off_c, 1, 69, 0
3, 9168, Note_on_c, 1, 66, 81
3, 9212, Note_off_c, 1, 66, 0
3, 9216, Note_on_c, 1, 73, 60
3, 9216, Note_on_c, 1, 67, 60
3, 9260, Note_off_c, 1, 67, 0
3, 9264, Note_on_c, 1, 69, 60
3, 9308, Note_off_c, 1, 69, 0
3, 9312, Note_on_c, 1, 67, 60
3, 9356, Note_off_c, 1, 67, 0
3, 9360, Note_on_c, 1, 66, 60
3, 9404, Note_off_c, 1, 66, 0
3, 9408, Note_on_c, 1, 64, 60
3, 9452, Note_off_c, 1, 64, 0
3, 9456, Note_on_c, 1, 66, 60
3, 9500, Note_off_c, 1, 66, 0
3, 9504, Note_on_c, 1, 67, 60
3, 9548, Note_off_c, 1, 67, 0
3, 9552, Note_on_c, 1, 64, 60
3, 9596, Note_off_c, 1, 73, 0
3, 9596, Note_off_c, 1, 64, 0
3, 9600, Note_on_c, 1, 74, 60
3, 9600, Note_on_c, 1, 66, 60
3, 9644, Note_off_c, 1, 66, 0
3, 9648, Note_on_c, 1, 67, 60
3, 9692, Note_off_c, 1, 67, 0
3, 9696, Note_on_c, 1, 66, 60
3, 9740, Note_off_c, 1, 66, 0
3, 9744, Note_on_c, 1, 64, 60
3, 9788, Note_off_c, 1, 64, 0
3, 9792, Note_on_c, 1, 62, 60
3, 9836, Note_off_c, 1, 62, 0
3, 9840, Note_on_c, 1, 64, 60
3, 9884, Note_off_c, 1, 64, 0
3, 9888, Note_on_c, 1, 66, 60
3, 9932, Note_off_c, 1, 66, 0
3, 9936, Note_on_c, 1, 62, 60
3, 9980, Note_off_c, 1, 74, 0
3, 9980, Note_off_c, 1, 62, 0
3, 9984, Note_on_c, 1, 79, 60
3, 9984, Note_on_c, 1, 73, 60
3, 10028, Note_off_c, 1, 73, 0
3, 10032, Note_on_c, 1, 71, 60
3, 10076, Note_off_c, 1, 71, 0
3, 10080, Note_on_c, 1, 73, 60
3, 10112, Note_on_c, 1, 74, 60
3, 10124, Note_off_c, 1, 73, 0
3, 10156, Note_off_c, 1, 74, 0
3, 10176, Note_on_c, 1, 76, 60
3, 10220, Note_off_c, 1, 76, 0
3, 10224, Note_on_c, 1, 74, 60
3, 10268, Note_off_c, 1, 74, 0
3, 10272, Note_on_c, 1, 76, 60
3, 10316, Note_off_c, 1, 76, 0
3, 10320, Note_on_c, 1, 73, 60
3, 10364, Note_off_c, 1, 79, 0
3, 10364, Note_off_c, 1, 73, 0
3, 10368, Note_on_c, 1, 78, 60
3, 10368, Note_on_c, 1, 74, 60
3, 10412, Note_off_c, 1, 74, 0
3, 10416, Note_on_c, 1, 73, 60
3, 10460, Note_off_c, 1, 73, 0
3, 10464, Note_on_c, 1, 74, 60
3, 10508, Note_off_c, 1, 74, 0
3, 10512, Note_on_c, 1, 76, 60
3, 10556, Note_off_c, 1, 78, 0
3, 10556, Note_off_c, 1, 76, 0
3, 10560, Note_on_c, 1, 77, 60
3, 10608, Note_on_c, 1, 65, 60
3, 10652, Note_off_c, 1, 65, 0
3, 10656, Note_on_c, 1, 64, 60
3, 10700, Note_off_c, 1, 64, 0
3, 10704, Note_on_c, 1, 62, 60
3, 10748, Note_off_c, 1, 77, 0
3, 10748, Note_off_c, 1, 62, 0
3, 10752, Note_on_c, 1, 76, 60
3, 10752, Note_on_c, 1, 69, 60
3, 10940, Note_off_c, 1, 76, 0
3, 10940, Note_off_c, 1, 69, 0
3, 10944, Note_on_c, 1, 77, 60
3, 10944, Note_on_c, 1, 68, 60
3, 11132, Note_off_c, 1, 77, 0
3, 11132, Note_off_c, 1, 68, 0
3, 11136, Note_on_c, 1, 76, 60
3, 11136, Note_on_c, 1, 69, 60
3, 11324, Note_off_c, 1, 76, 0
3, 11324, Note_off_c, 1, 69, 0
3, 11328, Note_on_c, 1, 77, 60
3, 11328, Note_on_c, 1, 68, 60
3, 11516, Note_off_c, 1, 77, 0
3, 11516, Note_off_c, 1, 68, 0
3, 11520, Note_on_c, 1, 76, 60
3, 11520, Note_on_c, 1, 69, 60
3, 11708, Note_off_c, 1, 76, 0
3, 11708, Note_off_c, 1, 69, 0
3, 11712, Note_on_c, 1, 79, 60
3, 11712, Note_on_c, 1, 74, 60
3, 11712, Note_on_c, 1, 67, 60
3, 12092, Note_off_c, 1, 79, 0
3, 12092, Note_off_c, 1, 74, 0
3, 12092, Note_off_c, 1, 67, 0
3, 12096, Note_on_c, 1, 79, 60
3, 12096, Note_on_c, 1, 76, 60
3, 12096, Note_on_c, 1, 73, 60
3, 12096, Note_on_c, 1, 67, 60
3, 12284, Note_off_c, 1, 79, 0
3, 12284, Note_off_c, 1, 76, 0
3, 12284, Note_off_c, 1, 73, 0
3, 12284, Note_off_c, 1, 67, 0
3, 12288, Note_on_c, 1, 57, 60
3, 12476, Note_off_c, 1, 57, 0
3, 12480, Note_on_c, 1, 85, 81
3, 12480, Note_on_c, 1, 76, 81
3, 12480, Note_on_c, 1, 73, 81
3, 12860, Note_off_c, 1, 85, 0
3, 12860, Note_off_c, 1, 76, 0
3, 12860, Note_off_c, 1, 73, 0
3, 12864, Note_on_c, 1, 86, 60
3, 12864, Note_on_c, 1, 77, 60
3, 12864, Note_on_c, 1, 74, 60
3, 13052, Note_off_c, 1, 86, 0
3, 13052, Note_off_c, 1, 77, 0
3, 13052, Note_off_c, 1, 74, 0
3, 13056, Note_on_c, 1, 62, 60
3, 13244, Note_off_c, 1, 62, 0
3, 13248, Note_on_c, 1, 62, 60
3, 13436, Note_off_c, 1, 62, 0
3, 13440, Note_on_c, 1, 62, 60
3, 13628, Note_off_c, 1, 62, 0
3, 13632, Note_on_c, 1, 62, 60
3, 13632, Note_on_c, 1, 71, 60
3, 13820, Note_off_c, 1, 62, 0
3, 13820, Note_off_c, 1, 71, 0
3, 13824, Note_on_c, 1, 62, 60
3, 13824, Note_on_c, 1, 57, 60
3, 14012, Note_off_c, 1, 57, 0
3, 14016, Note_on_c, 1, 62, 60
3, 14204, Note_off_c, 1, 62, 0
3, 14208, Note_on_c, 1, 64, 60
3, 14224, Note_off_c, 1, 64, 0
3, 14224, Note_on_c, 1, 66, 60
3, 14240, Note_off_c, 1, 66, 0
3, 14240, Note_on_c, 1, 64, 60
3, 14256, Note_off_c, 1, 64, 0
3, 14256, Note_on_c, 1, 66, 60
3, 14272, Note_off_c, 1, 66, 0
3, 14272, Note_on_c, 1, 64, 60
3, 14288, Note_off_c, 1, 64, 0
3, 14288, Note_on_c, 1, 66, 60
3, 14304, Note_off_c, 1, 66, 0
3, 14304, Note_on_c, 1, 64, 60
3, 14320, Note_off_c, 1, 64, 0
3, 14320, Note_on_c, 1, 66, 60
3, 14336, Note_off_c, 1, 66, 0
3, 14336, Note_on_c, 1, 64, 60
3, 14352, Note_off_c, 1, 64, 0
3, 14352, Note_on_c, 1, 66, 60
3, 14368, Note_off_c, 1, 66, 0
3, 14368, Note_on_c, 1, 64, 60
3, 14384, Note_off_c, 1, 64, 0
3, 14384, Note_on_c, 1, 66, 60
3, 14396, Note_off_c, 1, 62, 0
3, 14400, Note_off_c, 1, 66, 0
3, 14400, Note_on_c, 1, 64, 60
3, 14416, Note_off_c, 1, 64, 64
3, 14416, Note_on_c, 1, 66, 60
3, 14432, Note_off_c, 1, 66, 64
3, 14432, Note_on_c, 1, 64, 60
3, 14448, Note_off_c, 1, 64, 64
3, 14448, Note_on_c, 1, 66, 60
3, 14464, Note_off_c, 1, 66, 64
3, 14464, Note_on_c, 1, 64, 60
3, 14480, Note_off_c, 1, 64, 64
3, 14480, Note_on_c, 1, 66, 60
3, 14496, Note_off_c, 1, 66, 64
3, 14496, Note_on_c, 1, 62, 60
3, 14544, Note_off_c, 1, 62, 0
3, 14544, Note_on_c, 1, 64, 60
3, 14592, Note_off_c, 1, 64, 0
3, 14592, Note_on_c, 1, 69, 87
3, 14592, Note_on_c, 1, 62, 87
3, 14592, Note_on_c, 1, 57, 87
3, 14780, Note_off_c, 1, 62, 0
3, 14780, Note_off_c, 1, 57, 0
3, 14972, Note_off_c, 1, 69, 0
3, 14976, Note_on_c, 1, 74, 81
3, 15164, Note_off_c, 1, 74, 0
3, 15168, Note_on_c, 1, 78, 81
3, 15356, Note_off_c, 1, 78, 0
3, 15360, Note_on_c, 1, 81, 87
3, 15360, Note_on_c, 1, 69, 87
3, 15548, Note_off_c, 1, 81, 0
3, 15548, Note_off_c, 1, 69, 0
3, 15552, Note_on_c, 1, 81, 85
3, 15552, Note_on_c, 1, 69, 85
3, 15740, Note_off_c, 1, 81, 0
3, 15740, Note_off_c, 1, 69, 0
3, 15744, Note_on_c, 1, 81, 84
3, 15744, Note_on_c, 1, 69, 84
3, 15932, Note_off_c, 1, 81, 0
3, 15932, Note_off_c, 1, 69, 0
3, 15936, Note_on_c, 1, 81, 82
3, 15936, Note_on_c, 1, 69, 82
3, 16124, Note_off_c, 1, 81, 0
3, 16124, Note_off_c, 1, 69, 0
3, 16128, Note_on_c, 1, 69, 81
3, 16128, Note_on_c, 1, 81, 81
3, 16128, Note_on_c, 1, 69, 81
3, 16316, Note_off_c, 1, 69, 0
3, 16320, Note_on_c, 1, 69, 81
3, 16508, Note_off_c, 1, 81, 0
3, 16508, Note_off_c, 1, 69, 0
3, 16508, Note_off_c, 1, 69, 0
3, 16512, Note_on_c, 1, 69, 81
3, 16700, Note_off_c, 1, 69, 0
3, 17664, Note_on_c, 1, 66, 60
3, 17664, Note_on_c, 1, 62, 60
3, 17664, Note_on_c, 1, 57, 60
3, 17756, Note_off_c, 1, 66, 0
3, 17756, Note_off_c, 1, 62, 0
3, 17756, Note_off_c, 1, 57, 0
3, 17760, Note_on_c, 1, 66, 60
3, 17760, Note_on_c, 1, 62, 60
3, 17760, Note_on_c, 1, 57, 60
3, 17852, Note_off_c, 1, 66, 0
3, 17852, Note_off_c, 1, 62, 0
3, 17852, Note_off_c, 1, 57, 0
3, 17856, Note_on_c, 1, 66, 60
3, 17856, Note_on_c, 1, 62, 60
3, 17856, Note_on_c, 1, 57, 60
3, 17948, Note_off_c, 1, 66, 0
3, 17948, Note_off_c, 1, 62, 0
3, 17948, Note_off_c, 1, 57, 0
3, 17952, Note_on_c, 1, 66, 60
3, 17952, Note_on_c, 1, 62, 60
3, 17952, Note_on_c, 1, 57, 60
3, 18044, Note_off_c, 1, 66, 0
3, 18044, Note_off_c, 1, 62, 0
3, 18044, Note_off_c, 1, 57, 0
3, 18048, Note_on_c, 1, 67, 60
3, 18048, Note_on_c, 1, 61, 60
3, 18048, Note_on_c, 1, 57, 60
3, 18140, Note_off_c, 1, 67, 0
3, 18140, Note_off_c, 1, 61, 0
3, 18140, Note_off_c, 1, 57, 0
3, 18144, Note_on_c, 1, 67, 60
3, 18144, Note_on_c, 1, 61, 60
3, 18144, Note_on_c, 1, 57, 60
3, 18236, Note_off_c, 1, 67, 0
3, 18236, Note_off_c, 1, 61, 0
3, 18236, Note_off_c, 1, 57, 0
3, 18240, Note_on_c, 1, 67, 60
3, 18240, Note_on_c, 1, 61, 60
3, 18240, Note_on_c, 1, 57, 60
3, 18332, Note_off_c, 1, 67, 0
3, 18332, Note_off_c, 1, 61, 0
3, 18332, Note_off_c, 1, 57, 0
3, 18336, Note_on_c, 1, 67, 60
3, 18336, Note_on_c, 1, 61, 60
3, 18336, Note_on_c, 1, 57, 60
3, 18428, Note_off_c, 1, 67, 0
3, 18428, Note_off_c, 1, 61, 0
3, 18428, Note_off_c, 1, 57, 0
3, 18432, Note_on_c, 1, 67, 60
3, 18432, Note_on_c, 1, 64, 60
3, 18524, Note_off_c, 1, 67, 0
3, 18524, Note_off_c, 1, 64, 0
3, 18528, Note_on_c, 1, 66, 60
3, 18528, Note_on_c, 1, 62, 60
3, 18620, Note_off_c, 1, 66, 0
3, 18620, Note_off_c, 1, 62, 0
3, 18624, Note_on_c, 1, 71, 60
3, 18624, Note_on_c, 1, 67, 60
3, 18716, Note_off_c, 1, 71, 0
3, 18716, Note_off_c, 1, 67, 0
3, 18720, Note_on_c, 1, 69, 60
3, 18720, Note_on_c, 1, 66, 60
3, 18812, Note_off_c, 1, 69, 0
3, 18812, Note_off_c, 1, 66, 0
3, 18816, Note_on_c, 1, 69, 60
3, 18816, Note_on_c, 1, 66, 60
3, 18908, Note_off_c, 1, 69, 0
3, 18908, Note_off_c, 1, 66, 0
3, 18912, Note_on_c, 1, 68, 60
3, 18912, Note_on_c, 1, 65, 60
3, 19004, Note_off_c, 1, 68, 0
3, 19004, Note_off_c, 1, 65, 0
3, 19008, Note_on_c, 1, 67, 60
3, 19008, Note_on_c, 1, 64, 60
3, 19100, Note_off_c, 1, 67, 0
3, 19100, Note_off_c, 1, 64, 0
3, 19104, Note_on_c, 1, 64, 60
3, 19104, Note_on_c, 1, 61, 60
3, 19196, Note_off_c, 1, 64, 0
3, 19196, Note_off_c, 1, 61, 0
3, 19200, Note_on_c, 1, 62, 60
3, 19292, Note_off_c, 1, 62, 0
3, 19296, Note_on_c, 1, 62, 60
3, 19296, Note_on_c, 1, 57, 60
3, 19388, Note_off_c, 1, 62, 0
3, 19388, Note_off_c, 1, 57, 0
3, 19392, Note_on_c, 1, 62, 60
3, 19392, Note_on_c, 1, 57, 60
3, 19484, Note_off_c, 1, 62, 0
3, 19484, Note_off_c, 1, 57, 0
3, 19488, Note_on_c, 1, 62, 60
3, 19488, Note_on_c, 1, 57, 60
3, 19580, Note_off_c, 1, 62, 0
3, 19580, Note_off_c, 1, 57, 0
3, 19584, Note_on_c, 1, 67, 60
3, 19584, Note_on_c, 1, 59, 60
3, 19676, Note_off_c, 1, 67, 0
3, 19676, Note_off_c, 1, 59, 0
3, 19680, Note_on_c, 1, 67, 60
3, 19680, Note_on_c, 1, 59, 60
3, 19772, Note_off_c, 1, 67, 0
3, 19772, Note_off_c, 1, 59, 0
3, 19776, Note_on_c, 1, 67, 60
3, 19776, Note_on_c, 1, 64, 60
3, 19776, Note_on_c, 1, 61, 60
3, 19868, Note_off_c, 1, 67, 0
3, 19868, Note_off_c, 1, 64, 0
3, 19868, Note_off_c, 1, 61, 0
3, 19872, Note_on_c, 1, 67, 60
3, 19872, Note_on_c, 1, 64, 60
3, 19872, Note_on_c, 1, 61, 60
3, 19964, Note_off_c, 1, 67, 0
3, 19964, Note_off_c, 1, 64, 0
3, 19964, Note_off_c, 1, 61, 0
3, 19968, Note_on_c, 1, 67, 60
3, 19968, Note_on_c, 1, 64, 60
3, 20060, Note_off_c, 1, 67, 0
3, 20060, Note_off_c, 1, 64, 0
3, 20064, Note_on_c, 1, 66, 60
3, 20064, Note_on_c, 1, 62, 60
3, 20156, Note_off_c, 1, 66, 0
3, 20156, Note_off_c, 1, 62, 0
3, 20160, Note_on_c, 1, 71, 60
3, 20160, Note_on_c, 1, 67, 60
3, 20252, Note_off_c, 1, 71, 0
3, 20252, Note_off_c, 1, 67, 0
3, 20256, Note_on_c, 1, 69, 60
3, 20256, Note_on_c, 1, 66, 60
3, 20348, Note_off_c, 1, 69, 0
3, 20348, Note_off_c, 1, 66, 0
3, 20352, Note_on_c, 1, 69, 60
3, 20352, Note_on_c, 1, 66, 60
3, 20444, Note_off_c, 1, 69, 0
3, 20444, Note_off_c, 1, 66, 0
3, 20448, Note_on_c, 1, 68, 60
3, 20448, Note_on_c, 1, 65, 60
3, 20540, Note_off_c, 1, 68, 0
3, 20540, Note_off_c, 1, 65, 0
3, 20544, Note_on_c, 1, 67, 60
3, 20544, Note_on_c, 1, 64, 60
3, 20636, Note_off_c, 1, 67, 0
3, 20636, Note_off_c, 1, 64, 0
3, 20640, Note_on_c, 1, 64, 60
3, 20640, Note_on_c, 1, 61, 60
3, 20732, Note_off_c, 1, 64, 0
3, 20732, Note_off_c, 1, 61, 0
3, 20736, Note_on_c, 1, 62, 60
3, 20828, Note_off_c, 1, 62, 0
3, 20832, Note_on_c, 1, 69, 60
3, 20832, Note_on_c, 1, 66, 60
3, 20924, Note_off_c, 1, 69, 0
3, 20924, Note_off_c, 1, 66, 0
3, 20928, Note_on_c, 1, 57, 60
3, 21020, Note_off_c, 1, 57, 0
3, 21024, Note_on_c, 1, 69, 60
3, 21024, Note_on_c, 1, 66, 60
3, 21104, Note_on_c, 1, 57, 60
3, 21116, Note_off_c, 1, 69, 0
3, 21116, Note_off_c, 1, 66, 0
3, 21196, Note_off_c, 1, 57, 0
3, 21216, Note_on_c, 1, 69, 60
3, 21216, Note_on_c, 1, 66, 60
3, 21308, Note_off_c, 1, 69, 0
3, 21308, Note_off_c, 1, 66, 0
3, 21312, Note_on_c, 1, 57, 60
3, 21404, Note_off_c, 1, 57, 0
3, 21408, Note_on_c, 1, 69, 60
3, 21408, Note_on_c, 1, 66, 60
3, 21500, Note_off_c, 1, 69, 0
3, 21500, Note_off_c, 1, 66, 0
3, 21600, Note_on_c, 1, 69, 60
3, 21600, Note_on_c, 1, 67, 60
3, 21692, Note_off_c, 1, 69, 0
3, 21692, Note_off_c, 1, 67, 0
3, 21696, Note_on_c, 1, 57, 60
3, 21788, Note_off_c, 1, 57, 0
3, 21792, Note_on_c, 1, 69, 60
3, 21792, Note_on_c, 1, 67, 60
3, 21884, Note_off_c, 1, 69, 0
3, 21884, Note_off_c, 1, 67, 0
3, 21888, Note_on_c, 1, 57, 60
3, 21980, Note_off_c, 1, 57, 0
3, 21984, Note_on_c, 1, 69, 60
3, 21984, Note_on_c, 1, 67, 60
3, 22076, Note_off_c, 1, 69, 0
3, 22076, Note_off_c, 1, 67, 0
3, 22080, Note_on_c, 1, 57, 60
3, 22172, Note_off_c, 1, 57, 0
3, 22176, Note_on_c, 1, 69, 60
3, 22176, Note_on_c, 1, 67, 60
3, 22268, Note_off_c, 1, 69, 0
3, 22268, Note_off_c, 1, 67, 0
3, 22368, Note_on_c, 1, 73, 60
3, 22368, Note_on_c, 1, 64, 60
3, 22460, Note_off_c, 1, 73, 0
3, 22460, Note_off_c, 1, 64, 0
3, 22464, Note_on_c, 1, 61, 60
3, 22556, Note_off_c, 1, 61, 0
3, 22560, Note_on_c, 1, 73, 60
3, 22560, Note_on_c, 1, 64, 60
3, 22652, Note_off_c, 1, 73, 0
3, 22652, Note_off_c, 1, 64, 0
3, 22656, Note_on_c, 1, 61, 60
3, 22748, Note_off_c, 1, 61, 0
3, 22752, Note_on_c, 1, 73, 60
3, 22752, Note_on_c, 1, 64, 60
3, 22844, Note_off_c, 1, 73, 0
3, 22844, Note_off_c, 1, 64, 0
3, 22848, Note_on_c, 1, 61, 60
3, 22940, Note_off_c, 1, 61, 0
3, 22944, Note_on_c, 1, 73, 60
3, 22944, Note_on_c, 1, 64, 60
3, 23036, Note_off_c, 1, 73, 0
3, 23036, Note_off_c, 1, 64, 0
3, 23040, Note_on_c, 1, 73, 60
3, 23084, Note_off_c, 1, 73, 0
3, 23088, Note_on_c, 1, 62, 60
3, 23088, Note_on_c, 1, 74, 60
3, 23132, Note_off_c, 1, 62, 0
3, 23136, Note_on_c, 1, 67, 60
3, 23180, Note_off_c, 1, 67, 0
3, 23184, Note_on_c, 1, 66, 60
3, 23228, Note_off_c, 1, 66, 0
3, 23232, Note_on_c, 1, 67, 60
3, 23232, Note_on_c, 1, 64, 60
3, 23276, Note_off_c, 1, 74, 0
3, 23420, Note_off_c, 1, 67, 0
3, 23420, Note_off_c, 1, 64, 0
3, 23424, Note_on_c, 1, 69, 60
3, 23424, Note_on_c, 1, 66, 60
3, 23612, Note_off_c, 1, 69, 0
3, 23612, Note_off_c, 1, 66, 0
3, 23616, Note_on_c, 1, 69, 60
3, 23616, Note_on_c, 1, 64, 60
3, 23804, Note_off_c, 1, 69, 0
3, 23804, Note_off_c, 1, 64, 0
3, 23808, Note_on_c, 1, 67, 60
3, 23808, Note_on_c, 1, 62, 60
3, 23996, Note_off_c, 1, 67, 0
3, 23996, Note_off_c, 1, 62, 0
3, 24000, Note_on_c, 1, 71, 60
3, 24000, Note_on_c, 1, 67, 60
3, 24188, Note_off_c, 1, 71, 0
3, 24188, Note_off_c, 1, 67, 0
3, 24192, Note_on_c, 1, 76, 60
3, 24192, Note_on_c, 1, 69, 60
3, 24380, Note_off_c, 1, 76, 0
3, 24380, Note_off_c, 1, 69, 0
3, 24384, Note_on_c, 1, 69, 60
3, 24384, Note_on_c, 1, 74, 60
3, 24476, Note_off_c, 1, 74, 0
3, 24480, Note_on_c, 1, 78, 60
3, 24572, Note_off_c, 1, 69, 0
3, 24572, Note_off_c, 1, 78, 0
3, 24576, Note_on_c, 1, 76, 60
3, 24592, Note_off_c, 1, 76, 0
3, 24592, Note_on_c, 1, 74, 60
3, 24608, Note_off_c, 1, 74, 0
3, 24608, Note_on_c, 1, 76, 60
3, 24624, Note_off_c, 1, 76, 0
3, 24624, Note_on_c, 1, 74, 60
3, 24640, Note_off_c, 1, 74, 0
3, 24640, Note_on_c, 1, 76, 60
3, 24656, Note_off_c, 1, 76, 0
3, 24656, Note_on_c, 1, 74, 60
3, 24672, Note_off_c, 1, 74, 0
3, 24672, Note_on_c, 1, 76, 60
3, 24688, Note_off_c, 1, 76, 0
3, 24688, Note_on_c, 1, 74, 60
3, 24704, Note_off_c, 1, 74, 0
3, 24704, Note_on_c, 1, 76, 60
3, 24720, Note_off_c, 1, 76, 0
3, 24720, Note_on_c, 1, 74, 60
3, 24736, Note_off_c, 1, 74, 0
3, 24736, Note_on_c, 1, 76, 60
3, 24752, Note_off_c, 1, 76, 0
3, 24752, Note_on_c, 1, 74, 60
3, 24768, Note_off_c, 1, 74, 0
3, 24768, Note_on_c, 1, 76, 60
3, 24784, Note_off_c, 1, 76, 0
3, 24784, Note_on_c, 1, 74, 60
3, 24800, Note_off_c, 1, 74, 0
3, 24800, Note_on_c, 1, 74, 60
3, 24816, Note_off_c, 1, 74, 64
3, 24816, Note_on_c, 1, 76, 60
3, 24832, Note_off_c, 1, 76, 64
3, 24832, Note_on_c, 1, 74, 60
3, 24848, Note_off_c, 1, 74, 64
3, 24848, Note_on_c, 1, 76, 60
3, 24864, Note_off_c, 1, 76, 64
3, 24864, Note_on_c, 1, 73, 60
3, 24908, Note_off_c, 1, 73, 64
3, 24912, Note_on_c, 1, 74, 60
3, 24956, Note_off_c, 1, 74, 64
3, 24960, Note_on_c, 1, 73, 60
3, 25148, Note_off_c, 1, 73, 0
3, 25152, Note_on_c, 1, 76, 60
3, 25152, Note_on_c, 1, 69, 60
3, 25340, Note_off_c, 1, 76, 0
3, 25340, Note_off_c, 1, 69, 0
3, 25344, Note_on_c, 1, 77, 60
3, 25344, Note_on_c, 1, 68, 60
3, 25532, Note_off_c, 1, 77, 0
3, 25532, Note_off_c, 1, 68, 0
3, 25536, Note_on_c, 1, 76, 60
3, 25536, Note_on_c, 1, 69, 60
3, 25724, Note_off_c, 1, 76, 0
3, 25724, Note_off_c, 1, 69, 0
3, 25728, Note_on_c, 1, 77, 60
3, 25728, Note_on_c, 1, 68, 60
3, 25916, Note_off_c, 1, 77, 0
3, 25916, Note_off_c, 1, 68, 0
3, 25920, Note_on_c, 1, 76, 60
3, 25920, Note_on_c, 1, 69, 60
3, 26108, Note_off_c, 1, 76, 0
3, 26108, Note_off_c, 1, 69, 0
3, 26208, Note_on_c, 1, 76, 60
3, 26300, Note_off_c, 1, 76, 0
3, 26304, Note_on_c, 1, 73, 60
3, 26304, Note_on_c, 1, 69, 60
3, 26396, Note_off_c, 1, 73, 0
3, 26396, Note_off_c, 1, 69, 0
3, 26400, Note_on_c, 1, 76, 60
3, 26492, Note_off_c, 1, 76, 0
3, 26496, Note_on_c, 1, 73, 60
3, 26496, Note_on_c, 1, 69, 60
3, 26588, Note_off_c, 1, 73, 0
3, 26588, Note_off_c, 1, 69, 0
3, 26592, Note_on_c, 1, 76, 60
3, 26684, Note_off_c, 1, 76, 0
3, 26688, Note_on_c, 1, 73, 60
3, 26688, Note_on_c, 1, 69, 60
3, 26780, Note_off_c, 1, 73, 0
3, 26780, Note_off_c, 1, 69, 0
3, 26784, Note_on_c, 1, 76, 60
3, 26876, Note_off_c, 1, 76, 0
3, 26976, Note_on_c, 1, 76, 60
3, 27068, Note_off_c, 1, 76, 0
3, 27072, Note_on_c, 1, 74, 60
3, 27164, Note_off_c, 1, 74, 0
3, 27168, Note_on_c, 1, 76, 60
3, 27260, Note_off_c, 1, 76, 0
3, 27264, Note_on_c, 1, 74, 60
3, 27356, Note_off_c, 1, 74, 0
3, 27360, Note_on_c, 1, 76, 60
3, 27452, Note_off_c, 1, 76, 0
3, 27456, Note_on_c, 1, 74, 60
3, 27548, Note_off_c, 1, 74, 0
3, 27552, Note_on_c, 1, 76, 60
3, 27644, Note_off_c, 1, 76, 0
3, 27648, Note_on_c, 1, 68, 60
3, 27740, Note_off_c, 1, 68, 0
3, 27744, Note_on_c, 1, 76, 60
3, 27836, Note_off_c, 1, 76, 0
3, 27840, Note_on_c, 1, 71, 60
3, 27840, Note_on_c, 1, 68, 60
3, 27932, Note_off_c, 1, 71, 0
3, 27932, Note_off_c, 1, 68, 0
3, 27936, Note_on_c, 1, 76, 60
3, 28028, Note_off_c, 1, 76, 0
3, 28032, Note_on_c, 1, 71, 60
3, 28032, Note_on_c, 1, 68, 60
3, 28124, Note_off_c, 1, 71, 0
3, 28124, Note_off_c, 1, 68, 0
3, 28128, Note_on_c, 1, 76, 60
3, 28220, Note_off_c, 1, 76, 0
3, 28224, Note_on_c, 1, 71, 60
3, 28224, Note_on_c, 1, 68, 60
3, 28316, Note_off_c, 1, 71, 0
3, 28316, Note_off_c, 1, 68, 0
3, 28320, Note_on_c, 1, 76, 60
3, 28412, Note_off_c, 1, 76, 0
3, 28512, Note_on_c, 1, 76, 60
3, 28604, Note_off_c, 1, 76, 0
3, 28608, Note_on_c, 1, 73, 60
3, 28608, Note_on_c, 1, 61, 60
3, 28700, Note_off_c, 1, 73, 0
3, 28700, Note_off_c, 1, 61, 0
3, 28704, Note_on_c, 1, 76, 60
3, 28704, Note_on_c, 1, 64, 60
3, 28796, Note_off_c, 1, 76, 0
3, 28796, Note_off_c, 1, 64, 0
3, 28800, Note_on_c, 1, 69, 60
3, 28800, Note_on_c, 1, 57, 60
3, 28988, Note_off_c, 1, 69, 0
3, 28988, Note_off_c, 1, 57, 0
3, 28992, Note_on_c, 1, 69, 60
3, 28992, Note_on_c, 1, 61, 60
3, 29180, Note_off_c, 1, 69, 0
3, 29180, Note_off_c, 1, 61, 0
3, 29184, Note_on_c, 1, 69, 60
3, 29184, Note_on_c, 1, 62, 60
3, 29372, Note_off_c, 1, 69, 0
3, 29372, Note_off_c, 1, 62, 0
3, 29376, Note_on_c, 1, 70, 60
3, 29376, Note_on_c, 1, 62, 60
3, 29564, Note_off_c, 1, 70, 0
3, 29564, Note_off_c, 1, 62, 0
3, 29568, Note_on_c, 1, 62, 60
3, 29568, Note_on_c, 1, 71, 60
3, 29756, Note_off_c, 1, 62, 0
3, 29760, Note_on_c, 1, 62, 60
3, 29852, Note_off_c, 1, 71, 0
3, 29856, Note_on_c, 1, 74, 60
3, 29948, Note_off_c, 1, 62, 0
3, 29948, Note_off_c, 1, 74, 0
3, 29952, Note_on_c, 1, 64, 60
3, 29952, Note_on_c, 1, 73, 60
3, 30140, Note_off_c, 1, 73, 0
3, 30144, Note_on_c, 1, 71, 60
3, 30332, Note_off_c, 1, 64, 0
3, 30332, Note_off_c, 1, 71, 0
3, 30336, Note_on_c, 1, 76, 60
3, 30476, Note_off_c, 1, 76, 0
3, 30480, Note_on_c, 1, 78, 60
3, 30524, Note_off_c, 1, 78, 0
3, 30528, Note_on_c, 1, 76, 60
3, 30528, Note_on_c, 1, 71, 60
3, 30572, Note_off_c, 1, 76, 0
3, 30576, Note_on_c, 1, 74, 60
3, 30620, Note_off_c, 1, 74, 0
3, 30624, Note_on_c, 1, 73, 60
3, 30668, Note_off_c, 1, 73, 0
3, 30672, Note_on_c, 1, 71, 60
3, 30716, Note_off_c, 1, 71, 0
3, 30716, Note_off_c, 1, 71, 0
3, 30720, Note_on_c, 1, 69, 60
3, 30720, Note_on_c, 1, 69, 60
3, 30860, Note_off_c, 1, 69, 0
3, 30864, Note_on_c, 1, 71, 60
3, 30884, Note_off_c, 1, 71, 0
3, 30888, Note_on_c, 1, 73, 60
3, 30908, Note_off_c, 1, 69, 0
3, 30908, Note_off_c, 1, 73, 0
3, 30912, Note_on_c, 1, 71, 60
3, 30912, Note_on_c, 1, 68, 60
3, 31100, Note_off_c, 1, 71, 0
3, 31100, Note_off_c, 1, 68, 0
3, 31104, Note_on_c, 1, 76, 60
3, 31148, Note_off_c, 1, 76, 0
3, 31152, Note_on_c, 1, 78, 60
3, 31196, Note_off_c, 1, 78, 0
3, 31200, Note_on_c, 1, 76, 60
3, 31244, Note_off_c, 1, 76, 0
3, 31248, Note_on_c, 1, 78, 60
3, 31292, Note_off_c, 1, 78, 0
3, 31296, Note_on_c, 1, 76, 60
3, 31296, Note_on_c, 1, 71, 60
3, 31340, Note_off_c, 1, 76, 0
3, 31344, Note_on_c, 1, 74, 60
3, 31388, Note_off_c, 1, 74, 0
3, 31408, Note_on_c, 1, 73, 60
3, 31440, Note_on_c, 1, 71, 60
3, 31452, Note_off_c, 1, 73, 0
3, 31484, Note_off_c, 1, 71, 0
3, 31484, Note_off_c, 1, 71, 0
3, 31488, Note_on_c, 1, 69, 60
3, 31488, Note_on_c, 1, 69, 60
3, 31628, Note_off_c, 1, 69, 0
3, 31632, Note_on_c, 1, 71, 60
3, 31652, Note_off_c, 1, 71, 0
3, 31656, Note_on_c, 1, 73, 60
3, 31676, Note_off_c, 1, 69, 0
3, 31676, Note_off_c, 1, 73, 0
3, 31680, Note_on_c, 1, 71, 60
3, 31680, Note_on_c, 1, 68, 60
3, 31868, Note_off_c, 1, 71, 0
3, 31868, Note_off_c, 1, 68, 0
3, 32064, Note_on_c, 1, 71, 60
3, 32064, Note_on_c, 1, 68, 60
3, 32252, Note_off_c, 1, 71, 0
3, 32252, Note_off_c, 1, 68, 0
3, 32256, Note_on_c, 1, 69, 60
3, 32540, Note_off_c, 1, 69, 0
3, 32544, Note_on_c, 1, 78, 60
3, 32588, Note_off_c, 1, 78, 0
3, 32592, Note_on_c, 1, 74, 60
3, 32636, Note_off_c, 1, 74, 0
3, 32640, Note_on_c, 1, 73, 60
3, 32828, Note_off_c, 1, 73, 0
3, 32832, Note_on_c, 1, 68, 60
3, 33008, Note_on_c, 1, 71, 60
3, 33020, Note_off_c, 1, 68, 0
3, 33148, Note_off_c, 1, 71, 0
3, 33168, Note_on_c, 1, 68, 60
3, 33212, Note_off_c, 1, 68, 0
3, 33216, Note_on_c, 1, 69, 60
3, 33404, Note_off_c, 1, 69, 0
3, 33408, Note_on_c, 1, 76, 60
3, 33548, Note_off_c, 1, 76, 0
3, 33552, Note_on_c, 1, 75, 60
3, 33596, Note_off_c, 1, 75, 0
3, 33600, Note_on_c, 1, 74, 60
3, 33632, Note_on_c, 1, 73, 60
3, 33644, Note_off_c, 1, 74, 0
3, 33676, Note_off_c, 1, 73, 0
3, 33696, Note_on_c, 1, 74, 60
3, 33740, Note_off_c, 1, 74, 0
3, 33744, Note_on_c, 1, 71, 60
3, 33788, Note_off_c, 1, 71, 0
3, 33792, Note_on_c, 1, 76, 60
3, 33792, Note_on_c, 1, 69, 60
3, 33932, Note_off_c, 1, 69, 0
3, 33936, Note_on_c, 1, 71, 60
3, 33956, Note_off_c, 1, 71, 0
3, 33960, Note_on_c, 1, 73, 60
3, 33980, Note_off_c, 1, 73, 0
3, 33984, Note_on_c, 1, 71, 60
3, 34172, Note_off_c, 1, 76, 0
3, 34172, Note_off_c, 1, 71, 0
3, 34176, Note_on_c, 1, 76, 60
3, 34176, Note_on_c, 1, 74, 60
3, 34220, Note_off_c, 1, 74, 0
3, 34224, Note_on_c, 1, 73, 60
3, 34268, Note_off_c, 1, 73, 0
3, 34272, Note_on_c, 1, 74, 60
3, 34316, Note_off_c, 1, 74, 0
3, 34320, Note_on_c, 1, 73, 60
3, 34364, Note_off_c, 1, 73, 0
3, 34368, Note_on_c, 1, 74, 60
3, 34508, Note_off_c, 1, 74, 0
3, 34512, Note_on_c, 1, 71, 60
3, 34556, Note_off_c, 1, 76, 0
3, 34556, Note_off_c, 1, 71, 0
3, 34560, Note_on_c, 1, 76, 60
3, 34560, Note_on_c, 1, 69, 60
3, 34604, Note_off_c, 1, 69, 0
3, 34608, Note_on_c, 1, 71, 60
3, 34652, Note_off_c, 1, 71, 0
3, 34656, Note_on_c, 1, 73, 60
3, 34700, Note_off_c, 1, 73, 0
3, 34704, Note_on_c, 1, 74, 60
3, 34748, Note_off_c, 1, 74, 0
3, 34752, Note_on_c, 1, 71, 60
3, 34940, Note_off_c, 1, 76, 0
3, 34940, Note_off_c, 1, 71, 0
3, 35136, Note_on_c, 1, 71, 60
3, 35136, Note_on_c, 1, 68, 60
3, 35324, Note_off_c, 1, 71, 0
3, 35324, Note_off_c, 1, 68, 0
3, 35328, Note_on_c, 1, 69, 60
3, 35516, Note_off_c, 1, 69, 0
3, 35520, Note_on_c, 1, 69, 60
3, 35900, Note_off_c, 1, 69, 0
3, 35904, Note_on_c, 1, 68, 60
3, 36092, Note_off_c, 1, 68, 0
3, 36096, Note_on_c, 1, 70, 60
3, 36096, Note_on_c, 1, 67, 60
3, 36284, Note_off_c, 1, 70, 0
3, 36284, Note_off_c, 1, 67, 0
3, 36288, Note_on_c, 1, 71, 60
3, 36288, Note_on_c, 1, 66, 60
3, 36476, Note_off_c, 1, 71, 0
3, 36476, Note_off_c, 1, 66, 0
3, 36672, Note_on_c, 1, 67, 60
3, 36672, Note_on_c, 1, 64, 60
3, 36860, Note_off_c, 1, 67, 0
3, 36860, Note_off_c, 1, 64, 0
3, 36864, Note_on_c, 1, 69, 60
3, 36864, Note_on_c, 1, 64, 60
3, 37052, Note_off_c, 1, 69, 0
3, 37052, Note_off_c, 1, 64, 0
3, 37056, Note_on_c, 1, 61, 60
3, 37056, Note_on_c, 1, 69, 60
3, 37056, Note_on_c, 1, 66, 60
3, 37244, Note_off_c, 1, 61, 0
3, 37248, Note_on_c, 1, 62, 60
3, 37436, Note_off_c, 1, 69, 0
3, 37436, Note_off_c, 1, 66, 0
3, 37436, Note_off_c, 1, 62, 0
3, 37440, Note_on_c, 1, 68, 60
3, 37440, Note_on_c, 1, 64, 60
3, 37440, Note_on_c, 1, 59, 60
3, 37628, Note_off_c, 1, 68, 0
3, 37628, Note_off_c, 1, 64, 0
3, 37628, Note_off_c, 1, 59, 0
3, 37632, Note_on_c, 1, 82, 60
3, 37632, Note_on_c, 1, 79, 60
3, 37632, Note_on_c, 1, 76, 60
3, 37820, Note_off_c, 1, 82, 0
3, 37820, Note_off_c, 1, 79, 0
3, 37820, Note_off_c, 1, 76, 0
3, 37824, Note_on_c, 1, 83, 60
3, 37824, Note_on_c, 1, 78, 60
3, 37824, Note_on_c, 1, 74, 60
3, 38012, Note_off_c, 1, 83, 0
3, 38012, Note_off_c, 1, 78, 0
3, 38012, Note_off_c, 1, 74, 0
3, 38208, Note_on_c, 1, 66, 60
3, 38208, Note_on_c, 1, 62, 60
3, 38396, Note_off_c, 1, 66, 0
3, 38396, Note_off_c, 1, 62, 0
3, 38400, Note_on_c, 1, 68, 60
3, 38400, Note_on_c, 1, 64, 60
3, 38588, Note_off_c, 1, 68, 0
3, 38588, Note_off_c, 1, 64, 0
3, 38592, Note_on_c, 1, 69, 60
3, 38592, Note_on_c, 1, 66, 60
3, 38780, Note_off_c, 1, 69, 0
3, 38780, Note_off_c, 1, 66, 0
3, 38784, Note_on_c, 1, 71, 60
3, 38784, Note_on_c, 1, 68, 60
3, 38972, Note_off_c, 1, 71, 0
3, 38972, Note_off_c, 1, 68, 0
3, 38976, Note_on_c, 1, 76, 60
3, 38976, Note_on_c, 1, 69, 60
3, 39164, Note_off_c, 1, 76, 0
3, 39164, Note_off_c, 1, 69, 0
3, 39168, Note_on_c, 1, 78, 60
3, 39168, Note_on_c, 1, 74, 60
3, 39356, Note_off_c, 1, 78, 0
3, 39356, Note_off_c, 1, 74, 0
3, 39360, Note_on_c, 1, 78, 60
3, 39360, Note_on_c, 1, 62, 60
3, 39548, Note_off_c, 1, 78, 0
3, 39548, Note_off_c, 1, 62, 0
3, 39552, Note_on_c, 1, 78, 60
3, 39552, Note_on_c, 1, 62, 60
3, 39740, Note_off_c, 1, 78, 0
3, 39740, Note_off_c, 1, 62, 0
3, 39744, Note_on_c, 1, 78, 60
3, 39744, Note_on_c, 1, 62, 60
3, 39932, Note_off_c, 1, 78, 0
3, 39932, Note_off_c, 1, 62, 0
3, 39936, Note_on_c, 1, 73, 60
3, 39936, Note_on_c, 1, 69, 60
3, 40028, Note_off_c, 1, 73, 0
3, 40028, Note_off_c, 1, 69, 0
3, 40032, Note_on_c, 1, 73, 60
3, 40032, Note_on_c, 1, 69, 60
3, 40124, Note_off_c, 1, 73, 0
3, 40124, Note_off_c, 1, 69, 0
3, 40224, Note_on_c, 1, 76, 60
3, 40224, Note_on_c, 1, 73, 60
3, 40316, Note_off_c, 1, 76, 0
3, 40316, Note_off_c, 1, 73, 0
3, 40416, Note_on_c, 1, 81, 60
3, 40416, Note_on_c, 1, 73, 60
3, 40508, Note_off_c, 1, 81, 0
3, 40508, Note_off_c, 1, 73, 0
3, 40608, Note_on_c, 1, 73, 60
3, 40608, Note_on_c, 1, 69, 60
3, 40700, Note_off_c, 1, 73, 0
3, 40700, Note_off_c, 1, 69, 0
3, 40704, Note_on_c, 1, 71, 60
3, 40704, Note_on_c, 1, 68, 60
3, 40748, Note_off_c, 1, 71, 0
3, 40748, Note_off_c, 1, 68, 0
3, 40752, Note_on_c, 1, 69, 60
3, 40752, Note_on_c, 1, 66, 60
3, 40796, Note_off_c, 1, 69, 0
3, 40796, Note_off_c, 1, 66, 0
3, 40800, Note_on_c, 1, 68, 61
3, 40800, Note_on_c, 1, 64, 61
3, 40844, Note_off_c, 1, 68, 0
3, 40844, Note_off_c, 1, 64, 0
3, 40848, Note_on_c, 1, 69, 63
3, 40848, Note_on_c, 1, 66, 63
3, 40892, Note_off_c, 1, 69, 0
3, 40892, Note_off_c, 1, 66, 0
3, 40896, Note_on_c, 1, 71, 64
3, 40896, Note_on_c, 1, 68, 64
3, 40940, Note_off_c, 1, 71, 0
3, 40940, Note_off_c, 1, 68, 0
3, 40944, Note_on_c, 1, 73, 66
3, 40944, Note_on_c, 1, 69, 66
3, 40988, Note_off_c, 1, 73, 0
3, 40988, Note_off_c, 1, 69, 0
3, 40992, Note_on_c, 1, 74, 67
3, 40992, Note_on_c, 1, 71, 67
3, 41036, Note_off_c, 1, 74, 0
3, 41036, Note_off_c, 1, 71, 0
3, 41040, Note_on_c, 1, 73, 67
3, 41040, Note_on_c, 1, 69, 67
3, 41084, Note_off_c, 1, 73, 0
3, 41084, Note_off_c, 1, 69, 0
3, 41088, Note_on_c, 1, 74, 69
3, 41088, Note_on_c, 1, 71, 69
3, 41132, Note_off_c, 1, 74, 0
3, 41132, Note_off_c, 1, 71, 0
3, 41136, Note_on_c, 1, 73, 70
3, 41136, Note_on_c, 1, 69, 70
3, 41180, Note_off_c, 1, 73, 0
3, 41180, Note_off_c, 1, 69, 0
3, 41184, Note_on_c, 1, 71, 72
3, 41184, Note_on_c, 1, 68, 72
3, 41228, Note_off_c, 1, 71, 0
3, 41228, Note_off_c, 1, 68, 0
3, 41232, Note_on_c, 1, 73, 73
3, 41232, Note_on_c, 1, 69, 73
3, 41276, Note_off_c, 1, 73, 0
3, 41276, Note_off_c, 1, 69, 0
3, 41280, Note_on_c, 1, 74, 75
3, 41280, Note_on_c, 1, 71, 75
3, 41324, Note_off_c, 1, 74, 0
3, 41324, Note_off_c, 1, 71, 0
3, 41328, Note_on_c, 1, 76, 76
3, 41328, Note_on_c, 1, 73, 76
3, 41372, Note_off_c, 1, 76, 0
3, 41372, Note_off_c, 1, 73, 0
3, 41376, Note_on_c, 1, 78, 78
3, 41376, Note_on_c, 1, 74, 78
3, 41420, Note_off_c, 1, 78, 0
3, 41420, Note_off_c, 1, 74, 0
3, 41424, Note_on_c, 1, 80, 79
3, 41424, Note_on_c, 1, 71, 79
3, 41468, Note_off_c, 1, 80, 0
3, 41468, Note_off_c, 1, 71, 0
3, 41472, Note_on_c, 1, 81, 81
3, 41472, Note_on_c, 1, 73, 81
3, 41516, Note_off_c, 1, 81, 0
3, 41520, Note_on_c, 1, 80, 81
3, 41564, Note_off_c, 1, 80, 0
3, 41568, Note_on_c, 1, 81, 81
3, 41612, Note_off_c, 1, 81, 0
3, 41616, Note_on_c, 1, 76, 81
3, 41660, Note_off_c, 1, 76, 0
3, 41664, Note_on_c, 1, 73, 81
3, 41664, Note_on_c, 1, 69, 81
3, 41708, Note_off_c, 1, 73, 0
3, 41712, Note_on_c, 1, 74, 81
3, 41756, Note_off_c, 1, 74, 0
3, 41760, Note_on_c, 1, 76, 81
3, 41804, Note_off_c, 1, 76, 0
3, 41808, Note_on_c, 1, 73, 81
3, 41852, Note_off_c, 1, 73, 0
3, 41852, Note_off_c, 1, 73, 0
3, 41856, Note_on_c, 1, 69, 81
3, 41900, Note_off_c, 1, 69, 0
3, 41904, Note_on_c, 1, 68, 81
3, 41948, Note_off_c, 1, 68, 0
3, 41952, Note_on_c, 1, 69, 81
3, 41996, Note_off_c, 1, 69, 0
3, 42000, Note_on_c, 1, 71, 81
3, 42044, Note_off_c, 1, 69, 0
3, 42044, Note_off_c, 1, 71, 0
3, 42048, Note_on_c, 1, 73, 81
3, 42048, Note_on_c, 1, 69, 81
3, 42092, Note_off_c, 1, 73, 0
3, 42092, Note_off_c, 1, 69, 0
3, 42096, Note_on_c, 1, 74, 81
3, 42096, Note_on_c, 1, 67, 81
3, 42140, Note_off_c, 1, 74, 0
3, 42140, Note_off_c, 1, 67, 0
3, 42144, Note_on_c, 1, 76, 81
3, 42144, Note_on_c, 1, 66, 81
3, 42188, Note_off_c, 1, 76, 0
3, 42188, Note_off_c, 1, 66, 0
3, 42192, Note_on_c, 1, 73, 81
3, 42192, Note_on_c, 1, 67, 81
3, 42236, Note_off_c, 1, 73, 0
3, 42236, Note_off_c, 1, 67, 0
3, 42240, Note_on_c, 1, 74, 81
3, 42240, Note_on_c, 1, 66, 81
3, 42284, Note_off_c, 1, 74, 0
3, 42288, Note_on_c, 1, 73, 81
3, 42332, Note_off_c, 1, 73, 0
3, 42336, Note_on_c, 1, 74, 81
3, 42380, Note_off_c, 1, 74, 0
3, 42384, Note_on_c, 1, 76, 81
3, 42428, Note_off_c, 1, 66, 0
3, 42428, Note_off_c, 1, 76, 0
3, 42432, Note_on_c, 1, 78, 81
3, 42432, Note_on_c, 1, 69, 81
3, 42476, Note_off_c, 1, 78, 0
3, 42480, Note_on_c, 1, 79, 81
3, 42524, Note_off_c, 1, 79, 0
3, 42528, Note_on_c, 1, 81, 81
3, 42572, Note_off_c, 1, 81, 0
3, 42576, Note_on_c, 1, 78, 81
3, 42620, Note_off_c, 1, 78, 0
3, 42624, Note_on_c, 1, 74, 81
3, 42668, Note_off_c, 1, 74, 0
3, 42672, Note_on_c, 1, 73, 81
3, 42716, Note_off_c, 1, 73, 0
3, 42720, Note_on_c, 1, 74, 81
3, 42764, Note_off_c, 1, 74, 0
3, 42768, Note_on_c, 1, 76, 81
3, 42812, Note_off_c, 1, 69, 0
3, 42812, Note_off_c, 1, 76, 0
3, 42816, Note_on_c, 1, 78, 81
3, 42816, Note_on_c, 1, 69, 81
3, 42860, Note_off_c, 1, 78, 0
3, 42864, Note_on_c, 1, 79, 81
3, 42908, Note_off_c, 1, 79, 0
3, 42912, Note_on_c, 1, 81, 81
3, 42956, Note_off_c, 1, 81, 0
3, 42960, Note_on_c, 1, 78, 81
3, 43004, Note_off_c, 1, 69, 0
3, 43004, Note_off_c, 1, 78, 0
3, 43008, Note_on_c, 1, 81, 81
3, 43008, Note_on_c, 1, 73, 81
3, 43008, Note_on_c, 1, 73, 81
3, 43052, Note_off_c, 1, 81, 0
3, 43052, Note_off_c, 1, 73, 0
3, 43056, Note_on_c, 1, 68, 81
3, 43100, Note_off_c, 1, 73, 0
3, 43100, Note_off_c, 1, 68, 0
3, 43104, Note_on_c, 1, 73, 81
3, 43104, Note_on_c, 1, 69, 81
3, 43148, Note_off_c, 1, 73, 0
3, 43152, Note_on_c, 1, 68, 81
3, 43196, Note_off_c, 1, 69, 0
3, 43196, Note_off_c, 1, 68, 0
3, 43200, Note_on_c, 1, 73, 81
3, 43200, Note_on_c, 1, 69, 81
3, 43244, Note_off_c, 1, 73, 0
3, 43244, Note_off_c, 1, 69, 0
3, 43248, Note_on_c, 1, 64, 81
3, 43292, Note_off_c, 1, 64, 0
3, 43296, Note_on_c, 1, 61, 81
3, 43340, Note_off_c, 1, 61, 0
3, 43344, Note_on_c, 1, 64, 81
3, 43388, Note_off_c, 1, 64, 0
3, 43392, Note_on_c, 1, 69, 81
3, 43436, Note_off_c, 1, 69, 0
3, 43440, Note_on_c, 1, 69, 81
3, 43440, Note_on_c, 1, 64, 81
3, 43484, Note_off_c, 1, 69, 0
3, 43484, Note_off_c, 1, 64, 0
3, 43488, Note_on_c, 1, 73, 81
3, 43488, Note_on_c, 1, 69, 81
3, 43532, Note_off_c, 1, 73, 0
3, 43532, Note_off_c, 1, 69, 0
3, 43536, Note_on_c, 1, 76, 81
3, 43536, Note_on_c, 1, 73, 81
3, 43580, Note_off_c, 1, 76, 0
3, 43580, Note_off_c, 1, 73, 0
3, 43584, Note_on_c, 1, 76, 81
3, 43584, Note_on_c, 1, 73, 81
3, 43628, Note_off_c, 1, 76, 0
3, 43628, Note_off_c, 1, 73, 0
3, 43632, Note_on_c, 1, 74, 81
3, 43632, Note_on_c, 1, 71, 81
3, 43676, Note_off_c, 1, 74, 0
3, 43676, Note_off_c, 1, 71, 0
3, 43680, Note_on_c, 1, 73, 81
3, 43680, Note_on_c, 1, 69, 81
3, 43724, Note_off_c, 1, 73, 0
3, 43724, Note_off_c, 1, 69, 0
3, 43728, Note_on_c, 1, 71, 81
3, 43728, Note_on_c, 1, 68, 81
3, 43772, Note_off_c, 1, 71, 0
3, 43772, Note_off_c, 1, 68, 0
3, 43776, Note_on_c, 1, 69, 60
3, 43868, Note_off_c, 1, 69, 0
3, 43872, Note_on_c, 1, 61, 60
3, 43872, Note_on_c, 1, 57, 60
3, 43964, Note_off_c, 1, 61, 0
3, 43964, Note_off_c, 1, 57, 0
3, 43968, Note_on_c, 1, 59, 60
3, 43968, Note_on_c, 1, 56, 60
3, 44048, Note_on_c, 1, 61, 60
3, 44060, Note_off_c, 1, 59, 0
3, 44060, Note_off_c, 1, 56, 0
3, 44064, Note_on_c, 1, 57, 60
3, 44140, Note_off_c, 1, 61, 0
3, 44156, Note_off_c, 1, 57, 0
3, 44160, Note_on_c, 1, 62, 81
3, 44160, Note_on_c, 1, 59, 81
3, 44252, Note_off_c, 1, 62, 0
3, 44252, Note_off_c, 1, 59, 0
3, 44256, Note_on_c, 1, 62, 60
3, 44256, Note_on_c, 1, 59, 60
3, 44348, Note_off_c, 1, 62, 0
3, 44348, Note_off_c, 1, 59, 0
3, 44352, Note_on_c, 1, 61, 60
3, 44352, Note_on_c, 1, 57, 60
3, 44444, Note_off_c, 1, 61, 0
3, 44444, Note_off_c, 1, 57, 0
3, 44448, Note_on_c, 1, 62, 60
3, 44448, Note_on_c, 1, 59, 60
3, 44540, Note_off_c, 1, 62, 0
3, 44540, Note_off_c, 1, 59, 0
3, 44544, Note_on_c, 1, 64, 60
3, 44544, Note_on_c, 1, 61, 60
3, 44732, Note_off_c, 1, 64, 0
3, 44732, Note_off_c, 1, 61, 0
3, 44736, Note_on_c, 1, 73, 60
3, 44736, Note_on_c, 1, 69, 60
3, 44924, Note_off_c, 1, 73, 0
3, 44924, Note_off_c, 1, 69, 0
3, 44928, Note_on_c, 1, 71, 60
3, 44928, Note_on_c, 1, 68, 60
3, 45116, Note_off_c, 1, 71, 0
3, 45116, Note_off_c, 1, 68, 0
3, 45120, Note_on_c, 1, 68, 60
3, 45120, Note_on_c, 1, 62, 60
3, 45308, Note_off_c, 1, 68, 0
3, 45308, Note_off_c, 1, 62, 0
3, 45312, Note_on_c, 1, 69, 81
3, 45404, Note_off_c, 1, 69, 0
3, 45408, Note_on_c, 1, 73, 60
3, 45408, Note_on_c, 1, 69, 60
3, 45500, Note_off_c, 1, 73, 0
3, 45500, Note_off_c, 1, 69, 0
3, 45504, Note_on_c, 1, 71, 60
3, 45504, Note_on_c, 1, 68, 60
3, 45596, Note_off_c, 1, 71, 0
3, 45596, Note_off_c, 1, 68, 0
3, 45600, Note_on_c, 1, 73, 60
3, 45600, Note_on_c, 1, 69, 60
3, 45692, Note_off_c, 1, 73, 0
3, 45692, Note_off_c, 1, 69, 0
3, 45696, Note_on_c, 1, 74, 81
3, 45696, Note_on_c, 1, 71, 81
3, 45788, Note_off_c, 1, 74, 0
3, 45788, Note_off_c, 1, 71, 0
3, 45792, Note_on_c, 1, 74, 60
3, 45792, Note_on_c, 1, 71, 60
3, 45884, Note_off_c, 1, 74, 0
3, 45884, Note_off_c, 1, 71, 0
3, 45888, Note_on_c, 1, 73, 60
3, 45888, Note_on_c, 1, 69, 60
3, 45980, Note_off_c, 1, 73, 0
3, 45980, Note_off_c, 1, 69, 0
3, 45984, Note_on_c, 1, 74, 60
3, 45984, Note_on_c, 1, 71, 60
3, 46076, Note_off_c, 1, 74, 0
3, 46076, Note_off_c, 1, 71, 0
3, 46080, Note_on_c, 1, 76, 60
3, 46080, Note_on_c, 1, 73, 60
3, 46268, Note_off_c, 1, 76, 0
3, 46268, Note_off_c, 1, 73, 0
3, 46272, Note_on_c, 1, 57, 60
3, 46272, Note_on_c, 1, 61, 60
3, 46460, Note_off_c, 1, 57, 0
3, 46460, Note_off_c, 1, 61, 0
3, 46464, Note_on_c, 1, 59, 60
3, 46464, Note_on_c, 1, 56, 60
3, 46652, Note_off_c, 1, 59, 0
3, 46652, Note_off_c, 1, 56, 0
3, 46656, Note_on_c, 1, 68, 60
3, 46656, Note_on_c, 1, 59, 60
3, 46844, Note_off_c, 1, 68, 0
3, 46844, Note_off_c, 1, 59, 0
3, 46848, Note_on_c, 1, 61, 60
3, 46848, Note_on_c, 1, 57, 60
3, 46848, Note_on_c, 1, 69, 60
3, 47036, Note_off_c, 1, 61, 0
3, 47036, Note_off_c, 1, 57, 0
3, 47232, Note_on_c, 1, 64, 60
3, 47232, Note_on_c, 1, 61, 60
3, 47612, Note_off_c, 1, 69, 0
3, 47612, Note_off_c, 1, 64, 0
3, 47612, Note_off_c, 1, 61, 0
3, 47616, Note_on_c, 1, 69, 60
3, 47616, Note_on_c, 1, 63, 60
3, 47708, Note_off_c, 1, 69, 0
3, 47712, Note_on_c, 1, 69, 60
3, 47804, Note_off_c, 1, 69, 0
3, 47808, Note_on_c, 1, 71, 60
3, 47900, Note_off_c, 1, 71, 0
3, 47904, Note_on_c, 1, 69, 60
3, 47996, Note_off_c, 1, 63, 0
3, 47996, Note_off_c, 1, 69, 0
3, 48000, Note_on_c, 1, 67, 60
3, 48000, Note_on_c, 1, 64, 60
3, 48092, Note_off_c, 1, 67, 0
3, 48096, Note_on_c, 1, 67, 60
3, 48188, Note_off_c, 1, 67, 0
3, 48192, Note_on_c, 1, 69, 60
3, 48284, Note_off_c, 1, 69, 0
3, 48288, Note_on_c, 1, 67, 60
3, 48380, Note_off_c, 1, 64, 0
3, 48380, Note_off_c, 1, 67, 0
3, 48384, Note_on_c, 1, 66, 60
3, 48384, Note_on_c, 1, 63, 60
3, 48572, Note_off_c, 1, 66, 0
3, 48572, Note_off_c, 1, 63, 0
3, 48576, Note_on_c, 1, 69, 60
3, 48576, Note_on_c, 1, 66, 60
3, 48576, Note_on_c, 1, 63, 60
3, 48764, Note_off_c, 1, 69, 0
3, 48764, Note_off_c, 1, 66, 0
3, 48764, Note_off_c, 1, 63, 0
3, 48768, Note_on_c, 1, 67, 60
3, 48768, Note_on_c, 1, 64, 60
3, 48956, Note_off_c, 1, 67, 0
3, 48956, Note_off_c, 1, 64, 0
3, 48960, Note_on_c, 1, 71, 60
3, 48960, Note_on_c, 1, 67, 60
3, 48960, Note_on_c, 1, 64, 60
3, 49148, Note_off_c, 1, 71, 0
3, 49148, Note_off_c, 1, 67, 0
3, 49148, Note_off_c, 1, 64, 0
3, 49152, Note_on_c, 1, 73, 60
3, 49152, Note_on_c, 1, 69, 60
3, 49340, Note_off_c, 1, 73, 0
3, 49340, Note_off_c, 1, 69, 0
3, 49344, Note_on_c, 1, 73, 60
3, 49344, Note_on_c, 1, 69, 60
3, 49532, Note_off_c, 1, 73, 0
3, 49532, Note_off_c, 1, 69, 0
3, 49536, Note_on_c, 1, 71, 60
3, 49536, Note_on_c, 1, 67, 60
3, 49724, Note_off_c, 1, 71, 0
3, 49724, Note_off_c, 1, 67, 0
3, 49728, Note_on_c, 1, 69, 60
3, 49728, Note_on_c, 1, 66, 60
3, 49916, Note_off_c, 1, 69, 0
3, 49916, Note_off_c, 1, 66, 0
3, 49920, Note_on_c, 1, 67, 81
3, 49920, Note_on_c, 1, 64, 81
3, 50012, Note_off_c, 1, 67, 0
3, 50012, Note_off_c, 1, 64, 0
3, 50016, Note_on_c, 1, 67, 60
3, 50016, Note_on_c, 1, 64, 60
3, 50108, Note_off_c, 1, 67, 0
3, 50108, Note_off_c, 1, 64, 0
3, 50112, Note_on_c, 1, 66, 60
3, 50112, Note_on_c, 1, 62, 60
3, 50204, Note_off_c, 1, 66, 0
3, 50204, Note_off_c, 1, 62, 0
3, 50208, Note_on_c, 1, 67, 60
3, 50208, Note_on_c, 1, 64, 60
3, 50300, Note_off_c, 1, 67, 0
3, 50300, Note_off_c, 1, 64, 0
3, 50304, Note_on_c, 1, 69, 81
3, 50304, Note_on_c, 1, 66, 81
3, 50396, Note_off_c, 1, 69, 0
3, 50396, Note_off_c, 1, 66, 0
3, 50400, Note_on_c, 1, 69, 60
3, 50400, Note_on_c, 1, 66, 60
3, 50492, Note_off_c, 1, 69, 0
3, 50492, Note_off_c, 1, 66, 0
3, 50496, Note_on_c, 1, 67, 60
3, 50496, Note_on_c, 1, 64, 60
3, 50588, Note_off_c, 1, 67, 0
3, 50588, Note_off_c, 1, 64, 0
3, 50592, Note_on_c, 1, 69, 60
3, 50592, Note_on_c, 1, 66, 60
3, 50684, Note_off_c, 1, 69, 0
3, 50684, Note_off_c, 1, 66, 0
3, 50688, Note_on_c, 1, 71, 60
3, 50688, Note_on_c, 1, 67, 60
3, 50780, Note_off_c, 1, 71, 0
3, 50780, Note_off_c, 1, 67, 0
3, 50784, Note_on_c, 1, 76, 60
3, 50876, Note_off_c, 1, 76, 0
3, 50880, Note_on_c, 1, 75, 60
3, 50972, Note_off_c, 1, 75, 0
3, 50976, Note_on_c, 1, 76, 60
3, 51068, Note_off_c, 1, 76, 0
3, 51072, Note_on_c, 1, 78, 60
3, 51164, Note_off_c, 1, 78, 0
3, 51168, Note_on_c, 1, 78, 60
3, 51260, Note_off_c, 1, 78, 0
3, 51264, Note_on_c, 1, 76, 60
3, 51356, Note_off_c, 1, 76, 0
3, 51360, Note_on_c, 1, 78, 60
3, 51452, Note_off_c, 1, 78, 0
3, 51456, Note_on_c, 1, 67, 60
3, 51456, Note_on_c, 1, 79, 60
3, 51548, Note_off_c, 1, 67, 0
3, 51552, Note_on_c, 1, 67, 60
3, 51644, Note_off_c, 1, 79, 0
3, 51644, Note_off_c, 1, 67, 0
3, 51648, Note_on_c, 1, 69, 60
3, 51648, Note_on_c, 1, 71, 60
3, 51740, Note_off_c, 1, 69, 0
3, 51744, Note_on_c, 1, 67, 60
3, 51836, Note_off_c, 1, 67, 0
3, 51840, Note_on_c, 1, 66, 60
3, 51932, Note_off_c, 1, 66, 0
3, 51936, Note_on_c, 1, 66, 60
3, 52028, Note_off_c, 1, 71, 0
3, 52028, Note_off_c, 1, 66, 0
3, 52032, Note_on_c, 1, 67, 60
3, 52032, Note_on_c, 1, 71, 60
3, 52124, Note_off_c, 1, 67, 0
3, 52128, Note_on_c, 1, 66, 60
3, 52220, Note_off_c, 1, 71, 0
3, 52220, Note_off_c, 1, 66, 0
3, 52224, Note_on_c, 1, 67, 60
3, 52224, Note_on_c, 1, 64, 60
3, 52224, Note_on_c, 1, 76, 60
3, 52316, Note_off_c, 1, 76, 0
3, 52320, Note_on_c, 1, 70, 60
3, 52412, Note_off_c, 1, 67, 0
3, 52412, Note_off_c, 1, 64, 0
3, 52412, Note_off_c, 1, 70, 0
3, 52416, Note_on_c, 1, 67, 60
3, 52416, Note_on_c, 1, 64, 60
3, 52416, Note_on_c, 1, 70, 60
3, 52604, Note_off_c, 1, 67, 0
3, 52604, Note_off_c, 1, 64, 0
3, 52608, Note_on_c, 1, 67, 60
3, 52608, Note_on_c, 1, 64, 60
3, 52796, Note_off_c, 1, 70, 0
3, 52796, Note_off_c, 1, 67, 0
3, 52796, Note_off_c, 1, 64, 0
3, 52800, Note_on_c, 1, 67, 60
3, 52800, Note_on_c, 1, 62, 60
3, 52800, Note_on_c, 1, 71, 60
3, 52988, Note_off_c, 1, 67, 0
3, 52988, Note_off_c, 1, 62, 0
3, 52988, Note_off_c, 1, 71, 0
3, 52992, Note_on_c, 1, 73, 60
3, 52992, Note_on_c, 1, 64, 60
3, 53180, Note_off_c, 1, 73, 0
3, 53180, Note_off_c, 1, 64, 0
3, 53184, Note_on_c, 1, 76, 60
3, 53184, Note_on_c, 1, 66, 60
3, 53372, Note_off_c, 1, 76, 0
3, 53372, Note_off_c, 1, 66, 0
3, 53376, Note_on_c, 1, 74, 60
3, 53376, Note_on_c, 1, 66, 60
3, 53564, Note_off_c, 1, 74, 0
3, 53564, Note_off_c, 1, 66, 0
3, 53568, Note_on_c, 1, 73, 60
3, 53568, Note_on_c, 1, 66, 60
3, 53756, Note_off_c, 1, 73, 0
3, 53756, Note_off_c, 1, 66, 0
3, 53760, Note_on_c, 1, 71, 60
3, 53760, Note_on_c, 1, 62, 60
3, 53948, Note_off_c, 1, 71, 0
3, 53948, Note_off_c, 1, 62, 0
3, 53952, Note_on_c, 1, 74, 60
3, 54140, Note_off_c, 1, 74, 0
3, 54144, Note_on_c, 1, 73, 60
3, 54332, Note_off_c, 1, 73, 0
3, 54336, Note_on_c, 1, 71, 60
3, 54524, Note_off_c, 1, 71, 0
3, 54528, Note_on_c, 1, 70, 60
3, 54528, Note_on_c, 1, 66, 60
3, 54528, Note_on_c, 1, 61, 60
3, 54716, Note_off_c, 1, 70, 0
3, 54716, Note_off_c, 1, 66, 0
3, 54716, Note_off_c, 1, 61, 0
3, 54720, Note_on_c, 1, 76, 60
3, 54720, Note_on_c, 1, 73, 60
3, 54860, Note_off_c, 1, 76, 0
3, 54860, Note_off_c, 1, 73, 0
3, 54864, Note_on_c, 1, 74, 60
3, 54864, Note_on_c, 1, 71, 60
3, 54908, Note_off_c, 1, 74, 0
3, 54908, Note_off_c, 1, 71, 0
3, 54912, Note_on_c, 1, 73, 60
3, 54912, Note_on_c, 1, 70, 60
3, 55100, Note_off_c, 1, 73, 0
3, 55100, Note_off_c, 1, 70, 0
3, 55104, Note_on_c, 1, 70, 60
3, 55104, Note_on_c, 1, 64, 60
3, 55292, Note_off_c, 1, 70, 0
3, 55292, Note_off_c, 1, 64, 0
3, 55296, Note_on_c, 1, 71, 60
3, 55296, Note_on_c, 1, 62, 60
3, 55676, Note_off_c, 1, 71, 0
3, 55676, Note_off_c, 1, 62, 0
3, 55872, Note_on_c, 1, 74, 60
3, 55964, Note_off_c, 1, 74, 0
3, 55968, Note_on_c, 1, 71, 60
3, 56060, Note_off_c, 1, 71, 0
3, 56064, Note_on_c, 1, 70, 58
3, 56156, Note_off_c, 1, 70, 0
3, 56160, Note_on_c, 1, 73, 58
3, 56252, Note_off_c, 1, 73, 0
3, 56256, Note_on_c, 1, 74, 57
3, 56348, Note_off_c, 1, 74, 0
3, 56352, Note_on_c, 1, 71, 57
3, 56444, Note_off_c, 1, 71, 0
3, 56448, Note_on_c, 1, 70, 55
3, 56540, Note_off_c, 1, 70, 0
3, 56544, Note_on_c, 1, 73, 55
3, 56636, Note_off_c, 1, 73, 0
3, 56640, Note_on_c, 1, 74, 54
3, 56732, Note_off_c, 1, 74, 0
3, 56736, Note_on_c, 1, 71, 54
3, 56828, Note_off_c, 1, 71, 0
3, 56832, Note_on_c, 1, 70, 54
3, 57020, Note_off_c, 1, 70, 0
3, 57024, Note_on_c, 1, 79, 87
3, 57024, Note_on_c, 1, 76, 87
3, 57024, Note_on_c, 1, 73, 87
3, 57024, Note_on_c, 1, 69, 87
3, 57404, Note_off_c, 1, 79, 0
3, 57404, Note_off_c, 1, 76, 0
3, 57404, Note_off_c, 1, 73, 0
3, 57404, Note_off_c, 1, 69, 0
3, 57408, Note_on_c, 1, 79, 60
3, 57408, Note_on_c, 1, 76, 60
3, 57408, Note_on_c, 1, 73, 60
3, 57408, Note_on_c, 1, 69, 60
3, 57596, Note_off_c, 1, 79, 0
3, 57596, Note_off_c, 1, 76, 0
3, 57596, Note_off_c, 1, 73, 0
3, 57596, Note_off_c, 1, 69, 0
3, 57600, Note_on_c, 1, 69, 87
3, 57980, Note_off_c, 1, 69, 0
3, 57984, Note_on_c, 1, 74, 81
3, 58172, Note_off_c, 1, 74, 0
3, 58176, Note_on_c, 1, 78, 81
3, 58364, Note_off_c, 1, 78, 0
3, 58368, Note_on_c, 1, 81, 87
3, 58368, Note_on_c, 1, 69, 87
3, 58556, Note_off_c, 1, 81, 0
3, 58556, Note_off_c, 1, 69, 0
3, 58560, Note_on_c, 1, 81, 85
3, 58560, Note_on_c, 1, 69, 85
3, 58748, Note_off_c, 1, 81, 0
3, 58748, Note_off_c, 1, 69, 0
3, 58752, Note_on_c, 1, 81, 84
3, 58752, Note_on_c, 1, 69, 84
3, 58940, Note_off_c, 1, 81, 0
3, 58940, Note_off_c, 1, 69, 0
3, 58944, Note_on_c, 1, 81, 82
3, 58944, Note_on_c, 1, 69, 82
3, 59132, Note_off_c, 1, 81, 0
3, 59132, Note_off_c, 1, 69, 0
3, 59136, Note_on_c, 1, 69, 81
3, 59136, Note_on_c, 1, 81, 81
3, 59324, Note_off_c, 1, 69, 0
3, 59328, Note_on_c, 1, 69, 81
3, 59516, Note_off_c, 1, 81, 0
3, 59516, Note_off_c, 1, 69, 0
3, 59520, Note_on_c, 1, 69, 81
3, 59708, Note_off_c, 1, 69, 0
3, 60672, Note_on_c, 1, 66, 60
3, 60672, Note_on_c, 1, 62, 60
3, 60672, Note_on_c, 1, 57, 60
3, 60764, Note_off_c, 1, 66, 0
3, 60764, Note_off_c, 1, 62, 0
3, 60764, Note_off_c, 1, 57, 0
3, 60768, Note_on_c, 1, 66, 60
3, 60768, Note_on_c, 1, 62, 60
3, 60768, Note_on_c, 1, 57, 60
3, 60860, Note_off_c, 1, 66, 0
3, 60860, Note_off_c, 1, 62, 0
3, 60860, Note_off_c, 1, 57, 0
3, 60864, Note_on_c, 1, 66, 60
3, 60864, Note_on_c, 1, 62, 60
3, 60864, Note_on_c, 1, 57, 60
3, 60956, Note_off_c, 1, 66, 0
3, 60956, Note_off_c, 1, 62, 0
3, 60956, Note_off_c, 1, 57, 0
3, 60960, Note_on_c, 1, 66, 60
3, 60960, Note_on_c, 1, 62, 60
3, 60960, Note_on_c, 1, 57, 60
3, 61052, Note_off_c, 1, 66, 0
3, 61052, Note_off_c, 1, 62, 0
3, 61052, Note_off_c, 1, 57, 0
3, 61056, Note_on_c, 1, 67, 60
3, 61056, Note_on_c, 1, 61, 60
3, 61056, Note_on_c, 1, 57, 60
3, 61148, Note_off_c, 1, 67, 0
3, 61148, Note_off_c, 1, 61, 0
3, 61148, Note_off_c, 1, 57, 0
3, 61152, Note_on_c, 1, 67, 60
3, 61152, Note_on_c, 1, 61, 60
3, 61152, Note_on_c, 1, 57, 60
3, 61244, Note_off_c, 1, 67, 0
3, 61244, Note_off_c, 1, 61, 0
3, 61244, Note_off_c, 1, 57, 0
3, 61248, Note_on_c, 1, 67, 60
3, 61248, Note_on_c, 1, 61, 60
3, 61248, Note_on_c, 1, 57, 60
3, 61340, Note_off_c, 1, 67, 0
3, 61340, Note_off_c, 1, 61, 0
3, 61340, Note_off_c, 1, 57, 0
3, 61344, Note_on_c, 1, 67, 60
3, 61344, Note_on_c, 1, 61, 60
3, 61344, Note_on_c, 1, 57, 60
3, 61436, Note_off_c, 1, 67, 0
3, 61436, Note_off_c, 1, 61, 0
3, 61436, Note_off_c, 1, 57, 0
3, 61440, Note_on_c, 1, 67, 60
3, 61440, Note_on_c, 1, 64, 60
3, 61532, Note_off_c, 1, 67, 0
3, 61532, Note_off_c, 1, 64, 0
3, 61536, Note_on_c, 1, 66, 60
3, 61536, Note_on_c, 1, 62, 60
3, 61628, Note_off_c, 1, 66, 0
3, 61628, Note_off_c, 1, 62, 0
3, 61632, Note_on_c, 1, 71, 60
3, 61632, Note_on_c, 1, 67, 60
3, 61724, Note_off_c, 1, 71, 0
3, 61724, Note_off_c, 1, 67, 0
3, 61728, Note_on_c, 1, 69, 60
3, 61728, Note_on_c, 1, 66, 60
3, 61820, Note_off_c, 1, 69, 0
3, 61820, Note_off_c, 1, 66, 0
3, 61824, Note_on_c, 1, 69, 60
3, 61824, Note_on_c, 1, 66, 60
3, 61916, Note_off_c, 1, 69, 0
3, 61916, Note_off_c, 1, 66, 0
3, 61920, Note_on_c, 1, 68, 60
3, 61920, Note_on_c, 1, 65, 60
3, 62012, Note_off_c, 1, 68, 0
3, 62012, Note_off_c, 1, 65, 0
3, 62016, Note_on_c, 1, 67, 60
3, 62016, Note_on_c, 1, 64, 60
3, 62108, Note_off_c, 1, 67, 0
3, 62108, Note_off_c, 1, 64, 0
3, 62112, Note_on_c, 1, 64, 60
3, 62112, Note_on_c, 1, 61, 60
3, 62204, Note_off_c, 1, 64, 0
3, 62204, Note_off_c, 1, 61, 0
3, 62208, Note_on_c, 1, 62, 60
3, 62300, Note_off_c, 1, 62, 0
3, 62304, Note_on_c, 1, 62, 60
3, 62304, Note_on_c, 1, 57, 60
3, 62304, Note_on_c, 1, 57, 60
3, 62304, Note_on_c, 1, 54, 60
3, 62396, Note_off_c, 1, 62, 0
3, 62396, Note_off_c, 1, 57, 0
3, 62396, Note_off_c, 1, 57, 0
3, 62396, Note_off_c, 1, 54, 0
3, 62400, Note_on_c, 1, 62, 60
3, 62400, Note_on_c, 1, 57, 60
3, 62492, Note_off_c, 1, 62, 0
3, 62492, Note_off_c, 1, 57, 0
3, 62496, Note_on_c, 1, 62, 60
3, 62496, Note_on_c, 1, 57, 60
3, 62588, Note_off_c, 1, 62, 0
3, 62588, Note_off_c, 1, 57, 0
3, 62592, Note_on_c, 1, 67, 60
3, 62592, Note_on_c, 1, 59, 60
3, 62684, Note_off_c, 1, 67, 0
3, 62684, Note_off_c, 1, 59, 0
3, 62688, Note_on_c, 1, 67, 60
3, 62688, Note_on_c, 1, 59, 60
3, 62780, Note_off_c, 1, 67, 0
3, 62780, Note_off_c, 1, 59, 0
3, 62784, Note_on_c, 1, 67, 60
3, 62784, Note_on_c, 1, 64, 60
3, 62784, Note_on_c, 1, 61, 60
3, 62876, Note_off_c, 1, 67, 0
3, 62876, Note_off_c, 1, 64, 0
3, 62876, Note_off_c, 1, 61, 0
3, 62880, Note_on_c, 1, 67, 60
3, 62880, Note_on_c, 1, 64, 60
3, 62880, Note_on_c, 1, 61, 60
3, 62972, Note_off_c, 1, 67, 0
3, 62972, Note_off_c, 1, 64, 0
3, 62972, Note_off_c, 1, 61, 0
3, 62976, Note_on_c, 1, 67, 60
3, 62976, Note_on_c, 1, 64, 60
3, 63068, Note_off_c, 1, 67, 0
3, 63068, Note_off_c, 1, 64, 0
3, 63072, Note_on_c, 1, 66, 60
3, 63072, Note_on_c, 1, 62, 60
3, 63164, Note_off_c, 1, 66, 0
3, 63164, Note_off_c, 1, 62, 0
3, 63168, Note_on_c, 1, 71, 60
3, 63168, Note_on_c, 1, 67, 60
3, 63260, Note_off_c, 1, 71, 0
3, 63260, Note_off_c, 1, 67, 0
3, 63264, Note_on_c, 1, 69, 60
3, 63264, Note_on_c, 1, 66, 60
3, 63356, Note_off_c, 1, 69, 0
3, 63356, Note_off_c, 1, 66, 0
3, 63360, Note_on_c, 1, 69, 60
3, 63360, Note_on_c, 1, 66, 60
3, 63452, Note_off_c, 1, 69, 0
3, 63452, Note_off_c, 1, 66, 0
3, 63456, Note_on_c, 1, 68, 60
3, 63456, Note_on_c, 1, 65, 60
3, 63548, Note_off_c, 1, 68, 0
3, 63548, Note_off_c, 1, 65, 0
3, 63552, Note_on_c, 1, 67, 60
3, 63552, Note_on_c, 1, 64, 60
3, 63644, Note_off_c, 1, 67, 0
3, 63644, Note_off_c, 1, 64, 0
3, 63648, Note_on_c, 1, 64, 60
3, 63648, Note_on_c, 1, 61, 60
3, 63740, Note_off_c, 1, 64, 0
3, 63740, Note_off_c, 1, 61, 0
3, 63744, Note_on_c, 1, 62, 81
3, 63788, Note_off_c, 1, 62, 0
3, 63792, Note_on_c, 1, 61, 81
3, 63836, Note_off_c, 1, 61, 0
3, 63840, Note_on_c, 1, 62, 81
3, 63884, Note_off_c, 1, 62, 0
3, 63888, Note_on_c, 1, 64, 81
3, 63932, Note_off_c, 1, 64, 0
3, 63936, Note_on_c, 1, 66, 81
3, 63980, Note_off_c, 1, 66, 0
3, 63984, Note_on_c, 1, 67, 81
3, 64028, Note_off_c, 1, 67, 0
3, 64032, Note_on_c, 1, 69, 81
3, 64076, Note_off_c, 1, 69, 0
3, 64080, Note_on_c, 1, 66, 81
3, 64124, Note_off_c, 1, 66, 0
3, 64128, Note_on_c, 1, 62, 81
3, 64172, Note_off_c, 1, 62, 0
3, 64176, Note_on_c, 1, 61, 81
3, 64220, Note_off_c, 1, 61, 0
3, 64224, Note_on_c, 1, 62, 81
3, 64268, Note_off_c, 1, 62, 0
3, 64272, Note_on_c, 1, 64, 81
3, 64316, Note_off_c, 1, 64, 0
3, 64320, Note_on_c, 1, 66, 81
3, 64320, Note_on_c, 1, 62, 81
3, 64364, Note_off_c, 1, 66, 0
3, 64364, Note_off_c, 1, 62, 0
3, 64368, Note_on_c, 1, 67, 81
3, 64368, Note_on_c, 1, 60, 81
3, 64412, Note_off_c, 1, 67, 0
3, 64412, Note_off_c, 1, 60, 0
3, 64416, Note_on_c, 1, 69, 81
3, 64416, Note_on_c, 1, 59, 81
3, 64460, Note_off_c, 1, 69, 0
3, 64460, Note_off_c, 1, 59, 0
3, 64464, Note_on_c, 1, 66, 81
3, 64464, Note_on_c, 1, 60, 81
3, 64508, Note_off_c, 1, 66, 0
3, 64508, Note_off_c, 1, 60, 0
3, 64512, Note_on_c, 1, 67, 81
3, 64512, Note_on_c, 1, 61, 81
3, 64512, Note_on_c, 1, 59, 81
3, 64556, Note_off_c, 1, 67, 0
3, 64556, Note_off_c, 1, 61, 0
3, 64560, Note_on_c, 1, 66, 81
3, 64604, Note_off_c, 1, 66, 0
3, 64608, Note_on_c, 1, 67, 81
3, 64652, Note_off_c, 1, 67, 0
3, 64656, Note_on_c, 1, 62, 81
3, 64700, Note_off_c, 1, 62, 0
3, 64752, Note_on_c, 1, 62, 81
3, 64796, Note_off_c, 1, 62, 0
3, 64800, Note_on_c, 1, 64, 81
3, 64844, Note_off_c, 1, 64, 0
3, 64848, Note_on_c, 1, 66, 81
3, 64892, Note_off_c, 1, 59, 0
3, 64892, Note_off_c, 1, 66, 0
3, 64896, Note_on_c, 1, 67, 81
3, 64940, Note_off_c, 1, 67, 0
3, 64944, Note_on_c, 1, 66, 81
3, 64988, Note_off_c, 1, 66, 0
3, 64992, Note_on_c, 1, 67, 81
3, 65036, Note_off_c, 1, 67, 0
3, 65040, Note_on_c, 1, 62, 81
3, 65084, Note_off_c, 1, 62, 0
3, 65136, Note_on_c, 1, 62, 81
3, 65180, Note_off_c, 1, 62, 0
3, 65184, Note_on_c, 1, 64, 81
3, 65228, Note_off_c, 1, 64, 0
3, 65232, Note_on_c, 1, 66, 81
3, 65276, Note_off_c, 1, 66, 0
3, 65280, Note_on_c, 1, 67, 81
3, 65280, Note_on_c, 1, 73, 81
3, 65296, Note_off_c, 1, 73, 0
3, 65296, Note_on_c, 1, 71, 81
3, 65312, Note_off_c, 1, 71, 0
3, 65312, Note_on_c, 1, 73, 81
3, 65328, Note_off_c, 1, 73, 0
3, 65328, Note_on_c, 1, 71, 81
3, 65344, Note_off_c, 1, 71, 0
3, 65344, Note_on_c, 1, 73, 81
3, 65360, Note_off_c, 1, 73, 0
3, 65360, Note_on_c, 1, 71, 81
3, 65376, Note_off_c, 1, 71, 0
3, 65376, Note_on_c, 1, 73, 81
3, 65392, Note_off_c, 1, 73, 0
3, 65392, Note_on_c, 1, 71, 60
3, 65408, Note_off_c, 1, 71, 64
3, 65408, Note_on_c, 1, 73, 81
3, 65424, Note_off_c, 1, 73, 0
3, 65424, Note_on_c, 1, 71, 60
3, 65440, Note_off_c, 1, 71, 64
3, 65440, Note_on_c, 1, 69, 60
3, 65456, Note_off_c, 1, 69, 64
3, 65456, Note_on_c, 1, 71, 60
3, 65468, Note_off_c, 1, 67, 0
3, 65472, Note_off_c, 1, 71, 64
3, 65472, Note_on_c, 1, 69, 81
3, 65472, Note_on_c, 1, 66, 81
3, 65516, Note_off_c, 1, 66, 0
3, 65520, Note_on_c, 1, 67, 81
3, 65564, Note_off_c, 1, 67, 0
3, 65568, Note_on_c, 1, 69, 81
3, 65612, Note_off_c, 1, 69, 0
3, 65616, Note_on_c, 1, 66, 81
3, 65660, Note_off_c, 1, 69, 0
3, 65660, Note_off_c, 1, 66, 0
3, 65664, Note_on_c, 1, 62, 81
3, 65852, Note_off_c, 1, 62, 0
3, 65856, Note_on_c, 1, 74, 60
3, 66044, Note_off_c, 1, 74, 0
3, 66048, Note_on_c, 1, 73, 60
3, 66048, Note_on_c, 1, 67, 60
3, 66092, Note_off_c, 1, 67, 0
3, 66096, Note_on_c, 1, 69, 60
3, 66140, Note_off_c, 1, 69, 0
3, 66144, Note_on_c, 1, 67, 60
3, 66188, Note_off_c, 1, 67, 0
3, 66192, Note_on_c, 1, 66, 60
3, 66236, Note_off_c, 1, 66, 0
3, 66240, Note_on_c, 1, 64, 60
3, 66284, Note_off_c, 1, 64, 0
3, 66288, Note_on_c, 1, 66, 60
3, 66332, Note_off_c, 1, 66, 0
3, 66336, Note_on_c, 1, 67, 60
3, 66380, Note_off_c, 1, 67, 0
3, 66384, Note_on_c, 1, 64, 60
3, 66428, Note_off_c, 1, 73, 0
3, 66428, Note_off_c, 1, 64, 0
3, 66432, Note_on_c, 1, 74, 60
3, 66432, Note_on_c, 1, 66, 60
3, 66476, Note_off_c, 1, 66, 0
3, 66480, Note_on_c, 1, 67, 60
3, 66524, Note_off_c, 1, 67, 0
3, 66528, Note_on_c, 1, 66, 60
3, 66572, Note_off_c, 1, 66, 0
3, 66576, Note_on_c, 1, 64, 60
3, 66620, Note_off_c, 1, 64, 0
3, 66624, Note_on_c, 1, 62, 60
3, 66668, Note_off_c, 1, 62, 0
3, 66672, Note_on_c, 1, 64, 60
3, 66716, Note_off_c, 1, 64, 0
3, 66720, Note_on_c, 1, 66, 60
3, 66764, Note_off_c, 1, 66, 0
3, 66768, Note_on_c, 1, 62, 60
3, 66812, Note_off_c, 1, 74, 0
3, 66812, Note_off_c, 1, 62, 0
3, 66816, Note_on_c, 1, 79, 60
3, 66816, Note_on_c, 1, 73, 60
3, 66860, Note_off_c, 1, 73, 0
3, 66864, Note_on_c, 1, 71, 60
3, 66908, Note_off_c, 1, 71, 0
3, 66912, Note_on_c, 1, 73, 60
3, 66956, Note_off_c, 1, 73, 0
3, 66960, Note_on_c, 1, 74, 60
3, 67004, Note_off_c, 1, 74, 0
3, 67008, Note_on_c, 1, 76, 60
3, 67052, Note_off_c, 1, 76, 0
3, 67056, Note_on_c, 1, 74, 60
3, 67100, Note_off_c, 1, 74, 0
3, 67104, Note_on_c, 1, 76, 60
3, 67148, Note_off_c, 1, 76, 0
3, 67152, Note_on_c, 1, 73, 60
3, 67196, Note_off_c, 1, 79, 0
3, 67196, Note_off_c, 1, 73, 0
3, 67200, Note_on_c, 1, 78, 60
3, 67200, Note_on_c, 1, 74, 60
3, 67244, Note_off_c, 1, 74, 0
3, 67248, Note_on_c, 1, 73, 60
3, 67292, Note_off_c, 1, 73, 0
3, 67296, Note_on_c, 1, 74, 60
3, 67340, Note_off_c, 1, 74, 0
3, 67344, Note_on_c, 1, 76, 60
3, 67388, Note_off_c, 1, 78, 0
3, 67388, Note_off_c, 1, 76, 0
3, 67392, Note_on_c, 1, 77, 60
3, 67440, Note_on_c, 1, 65, 60
3, 67484, Note_off_c, 1, 65, 0
3, 67488, Note_on_c, 1, 64, 60
3, 67532, Note_off_c, 1, 64, 0
3, 67536, Note_on_c, 1, 62, 60
3, 67580, Note_off_c, 1, 77, 0
3, 67580, Note_off_c, 1, 62, 0
3, 67584, Note_on_c, 1, 76, 60
3, 67584, Note_on_c, 1, 69, 60
3, 67772, Note_off_c, 1, 76, 0
3, 67776, Note_on_c, 1, 77, 60
3, 67964, Note_off_c, 1, 69, 0
3, 67964, Note_off_c, 1, 77, 0
3, 67968, Note_on_c, 1, 76, 60
3, 67968, Note_on_c, 1, 69, 60
3, 68156, Note_off_c, 1, 76, 0
3, 68160, Note_on_c, 1, 77, 60
3, 68348, Note_off_c, 1, 69, 0
3, 68348, Note_off_c, 1, 77, 0
3, 68352, Note_on_c, 1, 76, 60
3, 68352, Note_on_c, 1, 69, 60
3, 68540, Note_off_c, 1, 76, 0
3, 68544, Note_on_c, 1, 77, 60
3, 68544, Note_on_c, 1, 80, 60
3, 68732, Note_off_c, 1, 69, 0
3, 68732, Note_off_c, 1, 77, 0
3, 68732, Note_off_c, 1, 80, 0
3, 68736, Note_on_c, 1, 81, 60
3, 68736, Note_on_c, 1, 76, 60
3, 68736, Note_on_c, 1, 69, 60
3, 68924, Note_off_c, 1, 81, 0
3, 68924, Note_off_c, 1, 76, 0
3, 68924, Note_off_c, 1, 69, 0
3, 69216, Note_on_c, 1, 69, 60
3, 69308, Note_off_c, 1, 69, 0
3, 69312, Note_on_c, 1, 66, 60
3, 69404, Note_off_c, 1, 66, 0
3, 69408, Note_on_c, 1, 69, 60
3, 69500, Note_off_c, 1, 69, 0
3, 69504, Note_on_c, 1, 66, 60
3, 69596, Note_off_c, 1, 66, 0
3, 69600, Note_on_c, 1, 69, 60
3, 69692, Note_off_c, 1, 69, 0
3, 69696, Note_on_c, 1, 66, 60
3, 69788, Note_off_c, 1, 66, 0
3, 69792, Note_on_c, 1, 69, 60
3, 69884, Note_off_c, 1, 69, 0
3, 69984, Note_on_c, 1, 69, 60
3, 70076, Note_off_c, 1, 69, 0
3, 70080, Note_on_c, 1, 67, 60
3, 70080, Note_on_c, 1, 64, 60
3, 70172, Note_off_c, 1, 67, 0
3, 70172, Note_off_c, 1, 64, 0
3, 70176, Note_on_c, 1, 69, 60
3, 70268, Note_off_c, 1, 69, 0
3, 70272, Note_on_c, 1, 67, 60
3, 70272, Note_on_c, 1, 64, 60
3, 70364, Note_off_c, 1, 67, 0
3, 70364, Note_off_c, 1, 64, 0
3, 70368, Note_on_c, 1, 69, 60
3, 70460, Note_off_c, 1, 69, 0
3, 70464, Note_on_c, 1, 67, 60
3, 70464, Note_on_c, 1, 64, 60
3, 70556, Note_off_c, 1, 67, 0
3, 70556, Note_off_c, 1, 64, 0
3, 70560, Note_on_c, 1, 69, 60
3, 70652, Note_off_c, 1, 69, 0
3, 70656, Note_on_c, 1, 61, 60
3, 70656, Note_on_c, 1, 57, 60
3, 70748, Note_off_c, 1, 61, 0
3, 70748, Note_off_c, 1, 57, 0
3, 70752, Note_on_c, 1, 69, 60
3, 70844, Note_off_c, 1, 69, 0
3, 70848, Note_on_c, 1, 64, 60
3, 70848, Note_on_c, 1, 61, 60
3, 70940, Note_off_c, 1, 64, 0
3, 70940, Note_off_c, 1, 61, 0
3, 70944, Note_on_c, 1, 69, 60
3, 71036, Note_off_c, 1, 69, 0
3, 71040, Note_on_c, 1, 64, 60
3, 71040, Note_on_c, 1, 61, 60
3, 71132, Note_off_c, 1, 64, 0
3, 71132, Note_off_c, 1, 61, 0
3, 71136, Note_on_c, 1, 69, 60
3, 71228, Note_off_c, 1, 69, 0
3, 71232, Note_on_c, 1, 64, 60
3, 71232, Note_on_c, 1, 61, 60
3, 71324, Note_off_c, 1, 64, 0
3, 71324, Note_off_c, 1, 61, 0
3, 71328, Note_on_c, 1, 69, 60
3, 71420, Note_off_c, 1, 69, 0
3, 71424, Note_on_c, 1, 66, 60
3, 71424, Note_on_c, 1, 57, 60
3, 71516, Note_off_c, 1, 66, 0
3, 71516, Note_off_c, 1, 57, 0
3, 71520, Note_on_c, 1, 69, 60
3, 71612, Note_off_c, 1, 69, 0
3, 71616, Note_on_c, 1, 66, 60
3, 71616, Note_on_c, 1, 57, 60
3, 71708, Note_off_c, 1, 66, 0
3, 71708, Note_off_c, 1, 57, 0
3, 71712, Note_on_c, 1, 69, 60
3, 71804, Note_off_c, 1, 69, 0
3, 71808, Note_on_c, 1, 66, 60
3, 71808, Note_on_c, 1, 57, 60
3, 71996, Note_off_c, 1, 66, 0
3, 71996, Note_off_c, 1, 57, 0
3, 72000, Note_on_c, 1, 66, 60
3, 72000, Note_on_c, 1, 62, 60
3, 72188, Note_off_c, 1, 66, 0
3, 72188, Note_off_c, 1, 62, 0
3, 72192, Note_on_c, 1, 67, 60
3, 72380, Note_off_c, 1, 67, 0
3, 72384, Note_on_c, 1, 62, 60
3, 72428, Note_off_c, 1, 62, 0
3, 72432, Note_on_c, 1, 61, 60
3, 72476, Note_off_c, 1, 61, 0
3, 72480, Note_on_c, 1, 62, 60
3, 72524, Note_off_c, 1, 62, 0
3, 72528, Note_on_c, 1, 63, 60
3, 72572, Note_off_c, 1, 63, 0
3, 72576, Note_on_c, 1, 64, 60
3, 72860, Note_off_c, 1, 64, 0
3, 72864, Note_on_c, 1, 67, 60
3, 72956, Note_off_c, 1, 67, 0
3, 72960, Note_on_c, 1, 66, 60
3, 73148, Note_off_c, 1, 66, 0
3, 73152, Note_on_c, 1, 64, 60
3, 73340, Note_off_c, 1, 64, 0
3, 73344, Note_on_c, 1, 69, 60
3, 73484, Note_off_c, 1, 69, 0
3, 73488, Note_on_c, 1, 71, 60
3, 73532, Note_off_c, 1, 71, 0
3, 73536, Note_on_c, 1, 69, 60
3, 73580, Note_off_c, 1, 69, 0
3, 73584, Note_on_c, 1, 67, 60
3, 73628, Note_off_c, 1, 67, 0
3, 73632, Note_on_c, 1, 66, 60
3, 73676, Note_off_c, 1, 66, 0
3, 73680, Note_on_c, 1, 64, 60
3, 73724, Note_off_c, 1, 64, 0
3, 73728, Note_on_c, 1, 62, 60
3, 73868, Note_off_c, 1, 62, 0
3, 73872, Note_on_c, 1, 64, 60
3, 73896, Note_off_c, 1, 64, 0
3, 73896, Note_on_c, 1, 66, 60
3, 73920, Note_off_c, 1, 66, 0
3, 73920, Note_on_c, 1, 64, 60
3, 73920, Note_on_c, 1, 61, 60
3, 74108, Note_off_c, 1, 64, 0
3, 74108, Note_off_c, 1, 61, 0
3, 74112, Note_on_c, 1, 69, 60
3, 74160, Note_on_c, 1, 71, 60
3, 74180, Note_off_c, 1, 69, 0
3, 74204, Note_off_c, 1, 71, 0
3, 74208, Note_on_c, 1, 69, 60
3, 74252, Note_off_c, 1, 69, 0
3, 74256, Note_on_c, 1, 71, 60
3, 74300, Note_off_c, 1, 71, 0
3, 74304, Note_on_c, 1, 69, 60
3, 74348, Note_off_c, 1, 69, 0
3, 74352, Note_on_c, 1, 67, 60
3, 74396, Note_off_c, 1, 67, 0
3, 74400, Note_on_c, 1, 66, 60
3, 74444, Note_off_c, 1, 66, 0
3, 74448, Note_on_c, 1, 64, 60
3, 74492, Note_off_c, 1, 64, 0
3, 74496, Note_on_c, 1, 62, 60
3, 74636, Note_off_c, 1, 62, 0
3, 74640, Note_on_c, 1, 64, 60
3, 74664, Note_off_c, 1, 64, 0
3, 74664, Note_on_c, 1, 66, 60
3, 74688, Note_off_c, 1, 66, 0
3, 74688, Note_on_c, 1, 64, 60
3, 74688, Note_on_c, 1, 61, 60
3, 74876, Note_off_c, 1, 64, 0
3, 74876, Note_off_c, 1, 61, 0
3, 75072, Note_on_c, 1, 76, 60
3, 75072, Note_on_c, 1, 73, 60
3, 75072, Note_on_c, 1, 69, 60
3, 75072, Note_on_c, 1, 67, 60
3, 75260, Note_off_c, 1, 76, 0
3, 75260, Note_off_c, 1, 73, 0
3, 75260, Note_off_c, 1, 69, 0
3, 75260, Note_off_c, 1, 67, 0
3, 75264, Note_on_c, 1, 78, 60
3, 75264, Note_on_c, 1, 74, 60
3, 75264, Note_on_c, 1, 69, 60
3, 75264, Note_on_c, 1, 66, 60
3, 75452, Note_off_c, 1, 78, 0
3, 75452, Note_off_c, 1, 74, 0
3, 75452, Note_off_c, 1, 69, 0
3, 75452, Note_off_c, 1, 66, 0
3, 75472, Note_on_c, 1, 71, 60
3, 75600, Note_on_c, 1, 67, 60
3, 75612, Note_off_c, 1, 71, 0
3, 75644, Note_off_c, 1, 67, 0
3, 75648, Note_on_c, 1, 66, 60
3, 75836, Note_off_c, 1, 66, 0
3, 75840, Note_on_c, 1, 61, 60
3, 76028, Note_off_c, 1, 61, 0
3, 76032, Note_on_c, 1, 64, 60
3, 76172, Note_off_c, 1, 64, 0
3, 76176, Note_on_c, 1, 61, 60
3, 76220, Note_off_c, 1, 61, 0
3, 76224, Note_on_c, 1, 62, 60
3, 76412, Note_off_c, 1, 62, 0
3, 76416, Note_on_c, 1, 69, 60
3, 76556, Note_off_c, 1, 69, 0
3, 76560, Note_on_c, 1, 68, 60
3, 76604, Note_off_c, 1, 68, 0
3, 76608, Note_on_c, 1, 67, 60
3, 76652, Note_off_c, 1, 67, 0
3, 76656, Note_on_c, 1, 66, 60
3, 76700, Note_off_c, 1, 66, 0
3, 76704, Note_on_c, 1, 67, 60
3, 76748, Note_off_c, 1, 67, 0
3, 76752, Note_on_c, 1, 64, 60
3, 76796, Note_off_c, 1, 64, 0
3, 76800, Note_on_c, 1, 62, 60
3, 76940, Note_off_c, 1, 62, 0
3, 76944, Note_on_c, 1, 64, 60
3, 76968, Note_off_c, 1, 64, 0
3, 76968, Note_on_c, 1, 66, 60
3, 76992, Note_off_c, 1, 66, 0
3, 76992, Note_on_c, 1, 64, 60
3, 77180, Note_off_c, 1, 64, 0
3, 77184, Note_on_c, 1, 79, 60
3, 77184, Note_on_c, 1, 69, 60
3, 77228, Note_off_c, 1, 79, 0
3, 77228, Note_off_c, 1, 69, 0
3, 77232, Note_on_c, 1, 78, 60
3, 77276, Note_off_c, 1, 78, 0
3, 77280, Note_on_c, 1, 79, 60
3, 77324, Note_off_c, 1, 79, 0
3, 77328, Note_on_c, 1, 78, 60
3, 77372, Note_off_c, 1, 78, 0
3, 77376, Note_on_c, 1, 79, 60
3, 77376, Note_on_c, 1, 73, 60
3, 77376, Note_on_c, 1, 69, 60
3, 77516, Note_off_c, 1, 79, 0
3, 77516, Note_off_c, 1, 73, 0
3, 77516, Note_off_c, 1, 69, 0
3, 77520, Note_on_c, 1, 76, 60
3, 77564, Note_off_c, 1, 76, 0
3, 77568, Note_on_c, 1, 74, 60
3, 77568, Note_on_c, 1, 69, 60
3, 77612, Note_off_c, 1, 74, 0
3, 77612, Note_off_c, 1, 69, 0
3, 77616, Note_on_c, 1, 76, 60
3, 77660, Note_off_c, 1, 76, 0
3, 77664, Note_on_c, 1, 78, 60
3, 77708, Note_off_c, 1, 78, 0
3, 77712, Note_on_c, 1, 79, 60
3, 77756, Note_off_c, 1, 79, 0
3, 77760, Note_on_c, 1, 76, 60
3, 77948, Note_off_c, 1, 76, 0
3, 78144, Note_on_c, 1, 76, 60
3, 78144, Note_on_c, 1, 73, 60
3, 78144, Note_on_c, 1, 69, 60
3, 78144, Note_on_c, 1, 67, 60
3, 78332, Note_off_c, 1, 76, 0
3, 78332, Note_off_c, 1, 73, 0
3, 78332, Note_off_c, 1, 69, 0
3, 78332, Note_off_c, 1, 67, 0
3, 78336, Note_on_c, 1, 74, 60
3, 78336, Note_on_c, 1, 69, 60
3, 78336, Note_on_c, 1, 66, 60
3, 78524, Note_off_c, 1, 74, 0
3, 78524, Note_off_c, 1, 69, 0
3, 78524, Note_off_c, 1, 66, 0
3, 78528, Note_on_c, 1, 67, 60
3, 78528, Note_on_c, 1, 74, 60
3, 78716, Note_off_c, 1, 67, 0
3, 78720, Note_on_c, 1, 69, 60
3, 78908, Note_off_c, 1, 74, 0
3, 78908, Note_off_c, 1, 69, 0
3, 78912, Note_on_c, 1, 69, 60
3, 78912, Note_on_c, 1, 73, 60
3, 79100, Note_off_c, 1, 69, 0
3, 79100, Note_off_c, 1, 73, 0
3, 79104, Note_on_c, 1, 66, 60
3, 79104, Note_on_c, 1, 72, 60
3, 79292, Note_off_c, 1, 66, 0
3, 79292, Note_off_c, 1, 72, 0
3, 79296, Note_on_c, 1, 71, 60
3, 79296, Note_on_c, 1, 67, 60
3, 79484, Note_off_c, 1, 71, 0
3, 79484, Note_off_c, 1, 67, 0
3, 79680, Note_on_c, 1, 73, 60
3, 79680, Note_on_c, 1, 69, 60
3, 79680, Note_on_c, 1, 64, 60
3, 79868, Note_off_c, 1, 73, 0
3, 79868, Note_off_c, 1, 69, 0
3, 79868, Note_off_c, 1, 64, 0
3, 79872, Note_on_c, 1, 74, 60
3, 79872, Note_on_c, 1, 69, 60
3, 80060, Note_off_c, 1, 74, 0
3, 80060, Note_off_c, 1, 69, 0
3, 80064, Note_on_c, 1, 74, 60
3, 80064, Note_on_c, 1, 71, 60
3, 80444, Note_off_c, 1, 74, 0
3, 80444, Note_off_c, 1, 71, 0
3, 80448, Note_on_c, 1, 73, 60
3, 80448, Note_on_c, 1, 69, 60
3, 80448, Note_on_c, 1, 64, 60
3, 80636, Note_off_c, 1, 73, 0
3, 80636, Note_off_c, 1, 69, 0
3, 80636, Note_off_c, 1, 64, 0
3, 80640, Note_on_c, 1, 74, 60
3, 80640, Note_on_c, 1, 62, 60
3, 80656, Note_on_c, 1, 69, 60
3, 80732, Note_off_c, 1, 74, 0
3, 80732, Note_off_c, 1, 62, 0
3, 80736, Note_on_c, 1, 74, 60
3, 80736, Note_on_c, 1, 69, 60
3, 80736, Note_on_c, 1, 66, 60
3, 80748, Note_off_c, 1, 69, 0
3, 80828, Note_off_c, 1, 74, 0
3, 80828, Note_off_c, 1, 69, 0
3, 80828, Note_off_c, 1, 66, 0
3, 80832, Note_on_c, 1, 74, 60
3, 80832, Note_on_c, 1, 69, 60
3, 80832, Note_on_c, 1, 66, 60
3, 80924, Note_off_c, 1, 74, 0
3, 80924, Note_off_c, 1, 69, 0
3, 80924, Note_off_c, 1, 66, 0
3, 80928, Note_on_c, 1, 74, 60
3, 80928, Note_on_c, 1, 69, 60
3, 80928, Note_on_c, 1, 66, 60
3, 81020, Note_off_c, 1, 74, 0
3, 81020, Note_off_c, 1, 69, 0
3, 81020, Note_off_c, 1, 66, 0
3, 81120, Note_on_c, 1, 74, 60
3, 81120, Note_on_c, 1, 69, 60
3, 81120, Note_on_c, 1, 66, 60
3, 81212, Note_off_c, 1, 74, 0
3, 81212, Note_off_c, 1, 69, 0
3, 81212, Note_off_c, 1, 66, 0
3, 81216, Note_on_c, 1, 74, 60
3, 81216, Note_on_c, 1, 69, 60
3, 81216, Note_on_c, 1, 66, 60
3, 81308, Note_off_c, 1, 74, 0
3, 81308, Note_off_c, 1, 69, 0
3, 81308, Note_off_c, 1, 66, 0
3, 81312, Note_on_c, 1, 74, 60
3, 81312, Note_on_c, 1, 69, 60
3, 81312, Note_on_c, 1, 66, 60
3, 81404, Note_off_c, 1, 74, 0
3, 81404, Note_off_c, 1, 69, 0
3, 81404, Note_off_c, 1, 66, 0
3, 81504, Note_on_c, 1, 72, 60
3, 81504, Note_on_c, 1, 69, 60
3, 81504, Note_on_c, 1, 63, 60
3, 81596, Note_off_c, 1, 72, 0
3, 81596, Note_off_c, 1, 69, 0
3, 81596, Note_off_c, 1, 63, 0
3, 81600, Note_on_c, 1, 72, 60
3, 81600, Note_on_c, 1, 69, 60
3, 81600, Note_on_c, 1, 63, 60
3, 81692, Note_off_c, 1, 72, 0
3, 81692, Note_off_c, 1, 69, 0
3, 81692, Note_off_c, 1, 63, 0
3, 81696, Note_on_c, 1, 72, 60
3, 81696, Note_on_c, 1, 69, 60
3, 81696, Note_on_c, 1, 63, 60
3, 81788, Note_off_c, 1, 72, 0
3, 81788, Note_off_c, 1, 69, 0
3, 81788, Note_off_c, 1, 63, 0
3, 81888, Note_on_c, 1, 75, 60
3, 81888, Note_on_c, 1, 72, 60
3, 81888, Note_on_c, 1, 69, 60
3, 81980, Note_off_c, 1, 75, 0
3, 81980, Note_off_c, 1, 72, 0
3, 81980, Note_off_c, 1, 69, 0
3, 81984, Note_on_c, 1, 75, 60
3, 81984, Note_on_c, 1, 72, 60
3, 81984, Note_on_c, 1, 69, 60
3, 82076, Note_off_c, 1, 75, 0
3, 82076, Note_off_c, 1, 72, 0
3, 82076, Note_off_c, 1, 69, 0
3, 82080, Note_on_c, 1, 75, 60
3, 82080, Note_on_c, 1, 72, 60
3, 82080, Note_on_c, 1, 69, 60
3, 82172, Note_off_c, 1, 75, 0
3, 82172, Note_off_c, 1, 72, 0
3, 82172, Note_off_c, 1, 69, 0
3, 82176, Note_on_c, 1, 76, 60
3, 82176, Note_on_c, 1, 71, 60
3, 82176, Note_on_c, 1, 67, 60
3, 82364, Note_off_c, 1, 76, 0
3, 82364, Note_off_c, 1, 71, 0
3, 82364, Note_off_c, 1, 67, 0
3, 82368, Note_on_c, 1, 79, 81
3, 82368, Note_on_c, 1, 74, 81
3, 82368, Note_on_c, 1, 67, 81
3, 82748, Note_off_c, 1, 79, 0
3, 82748, Note_off_c, 1, 74, 0
3, 82748, Note_off_c, 1, 67, 0
3, 82752, Note_on_c, 1, 79, 60
3, 82752, Note_on_c, 1, 73, 60
3, 82752, Note_on_c, 1, 69, 60
3, 82752, Note_on_c, 1, 67, 60
3, 82940, Note_off_c, 1, 79, 0
3, 82940, Note_off_c, 1, 73, 0
3, 82940, Note_off_c, 1, 69, 0
3, 82940, Note_off_c, 1, 67, 0
3, 82944, Note_on_c, 1, 57, 60
3, 83132, Note_off_c, 1, 57, 0
3, 83136, Note_on_c, 1, 73, 81
3, 83136, Note_on_c, 1, 85, 81
3, 83136, Note_on_c, 1, 76, 81
3, 83516, Note_off_c, 1, 73, 0
3, 83516, Note_off_c, 1, 85, 0
3, 83516, Note_off_c, 1, 76, 0
3, 83520, Note_on_c, 1, 86, 60
3, 83520, Note_on_c, 1, 77, 60
3, 83520, Note_on_c, 1, 74, 60
3, 83708, Note_off_c, 1, 86, 0
3, 83708, Note_off_c, 1, 77, 0
3, 83708, Note_off_c, 1, 74, 0
3, 83712, Note_on_c, 1, 62, 60
3, 83900, Note_off_c, 1, 62, 0
3, 83904, Note_on_c, 1, 62, 60
3, 84092, Note_off_c, 1, 62, 0
3, 84096, Note_on_c, 1, 62, 60
3, 84284, Note_off_c, 1, 62, 0
3, 84288, Note_on_c, 1, 62, 60
3, 84288, Note_on_c, 1, 71, 60
3, 84476, Note_off_c, 1, 62, 0
3, 84476, Note_off_c, 1, 71, 0
3, 84480, Note_on_c, 1, 57, 60
3, 84480, Note_on_c, 1, 62, 60
3, 84668, Note_off_c, 1, 57, 0
3, 84672, Note_on_c, 1, 55, 60
3, 84860, Note_off_c, 1, 62, 0
3, 84860, Note_off_c, 1, 55, 0
3, 84864, Note_on_c, 1, 57, 60
3, 84864, Note_on_c, 1, 62, 60
3, 85052, Note_off_c, 1, 57, 0
3, 85056, Note_on_c, 1, 59, 60
3, 85244, Note_off_c, 1, 62, 0
3, 85244, Note_off_c, 1, 59, 0
3, 85248, Note_on_c, 1, 62, 60
3, 85248, Note_on_c, 1, 57, 60
3, 85340, Note_off_c, 1, 62, 0
3, 85340, Note_off_c, 1, 57, 0
3, 85344, Note_on_c, 1, 81, 81
3, 85344, Note_on_c, 1, 78, 81
3, 85344, Note_on_c, 1, 86, 81
3, 85436, Note_off_c, 1, 81, 0
3, 85436, Note_off_c, 1, 78, 0
3, 85440, Note_on_c, 1, 83, 81
3, 85440, Note_on_c, 1, 79, 81
3, 85532, Note_off_c, 1, 86, 0
3, 85532, Note_off_c, 1, 83, 0
3, 85532, Note_off_c, 1, 79, 0
3, 85536, Note_on_c, 1, 83, 81
3, 85536, Note_on_c, 1, 79, 81
3, 85536, Note_on_c, 1, 86, 81
3, 85628, Note_off_c, 1, 83, 0
3, 85628, Note_off_c, 1, 79, 0
3, 85632, Note_on_c, 1, 81, 81
3, 85632, Note_on_c, 1, 78, 81
3, 85724, Note_off_c, 1, 86, 0
3, 85724, Note_off_c, 1, 81, 0
3, 85724, Note_off_c, 1, 78, 0
3, 85728, Note_on_c, 1, 81, 81
3, 85728, Note_on_c, 1, 78, 81
3, 85728, Note_on_c, 1, 86, 81
3, 85820, Note_off_c, 1, 81, 0
3, 85820, Note_off_c, 1, 78, 0
3, 85824, Note_on_c, 1, 83, 81
3, 85824, Note_on_c, 1, 78, 81
3, 85916, Note_off_c, 1, 86, 0
3, 85916, Note_off_c, 1, 83, 0
3, 85916, Note_off_c, 1, 78, 0
3, 85920, Note_on_c, 1, 83, 81
3, 85920, Note_on_c, 1, 78, 81
3, 85920, Note_on_c, 1, 86, 81
3, 86012, Note_off_c, 1, 83, 0
3, 86012, Note_off_c, 1, 78, 0
3, 86012, Note_off_c, 1, 86, 0
3, 86016, Note_on_c, 1, 78, 81
3, 86016, Note_on_c, 1, 74, 81
3, 86016, Note_on_c, 1, 69, 81
3, 86396, Note_off_c, 1, 78, 0
3, 86396, Note_off_c, 1, 74, 0
3, 86396, Note_off_c, 1, 69, 0
3, 87552, Note_on_c, 1, 74, 81
3, 87552, Note_on_c, 1, 62, 81
3, 87596, Note_off_c, 1, 62, 0
3, 87600, Note_on_c, 1, 61, 81
3, 87644, Note_off_c, 1, 61, 0
3, 87648, Note_on_c, 1, 62, 81
3, 87692, Note_off_c, 1, 62, 0
3, 87696, Note_on_c, 1, 64, 81
3, 87740, Note_off_c, 1, 74, 0
3, 87740, Note_off_c, 1, 64, 0
3, 87744, Note_on_c, 1, 66, 81
3, 87744, Note_on_c, 1, 62, 81
3, 87788, Note_off_c, 1, 66, 0
3, 87788, Note_off_c, 1, 62, 0
3, 87792, Note_on_c, 1, 67, 81
3, 87836, Note_off_c, 1, 67, 0
3, 87840, Note_on_c, 1, 69, 81
3, 87884, Note_off_c, 1, 69, 0
3, 87888, Note_on_c, 1, 66, 81
3, 87932, Note_off_c, 1, 66, 0
3, 87936, Note_on_c, 1, 62, 81
3, 87980, Note_off_c, 1, 62, 0
3, 87984, Note_on_c, 1, 61, 81
3, 88028, Note_off_c, 1, 61, 0
3, 88032, Note_on_c, 1, 62, 81
3, 88076, Note_off_c, 1, 62, 0
3, 88080, Note_on_c, 1, 64, 81
3, 88124, Note_off_c, 1, 64, 0
3, 88128, Note_on_c, 1, 66, 81
3, 88128, Note_on_c, 1, 62, 81
3, 88172, Note_off_c, 1, 66, 0
3, 88172, Note_off_c, 1, 62, 0
3, 88176, Note_on_c, 1, 67, 81
3, 88176, Note_on_c, 1, 60, 81
3, 88220, Note_off_c, 1, 67, 0
3, 88220, Note_off_c, 1, 60, 0
3, 88224, Note_on_c, 1, 69, 81
3, 88224, Note_on_c, 1, 59, 81
3, 88268, Note_off_c, 1, 69, 0
3, 88268, Note_off_c, 1, 59, 0
3, 88272, Note_on_c, 1, 66, 81
3, 88272, Note_on_c, 1, 60, 81
3, 88316, Note_off_c, 1, 66, 0
3, 88316, Note_off_c, 1, 60, 0
3, 88320, Note_on_c, 1, 67, 81
3, 88320, Note_on_c, 1, 59, 81
3, 88364, Note_off_c, 1, 67, 0
3, 88368, Note_on_c, 1, 66, 81
3, 88412, Note_off_c, 1, 66, 0
3, 88416, Note_on_c, 1, 67, 81
3, 88460, Note_off_c, 1, 67, 0
3, 88464, Note_on_c, 1, 62, 81
3, 88508, Note_off_c, 1, 59, 0
3, 88508, Note_off_c, 1, 62, 0
3, 88512, Note_on_c, 1, 83, 81
3, 88560, Note_on_c, 1, 74, 81
3, 88604, Note_off_c, 1, 74, 0
3, 88608, Note_on_c, 1, 76, 81
3, 88652, Note_off_c, 1, 76, 0
3, 88656, Note_on_c, 1, 78, 81
3, 88700, Note_off_c, 1, 83, 0
3, 88700, Note_off_c, 1, 78, 0
3, 88704, Note_on_c, 1, 79, 81
3, 88748, Note_off_c, 1, 79, 0
3, 88752, Note_on_c, 1, 78, 81
3, 88796, Note_off_c, 1, 78, 0
3, 88800, Note_on_c, 1, 79, 81
3, 88844, Note_off_c, 1, 79, 0
3, 88848, Note_on_c, 1, 81, 81
3, 88892, Note_off_c, 1, 81, 0
3, 88896, Note_on_c, 1, 83, 81
3, 88896, Note_on_c, 1, 86, 81
3, 88940, Note_off_c, 1, 83, 0
3, 88944, Note_on_c, 1, 85, 81
3, 88988, Note_off_c, 1, 85, 0
3, 88992, Note_on_c, 1, 86, 81
3, 89036, Note_off_c, 1, 86, 0
3, 89040, Note_on_c, 1, 83, 81
3, 89084, Note_off_c, 1, 86, 0
3, 89084, Note_off_c, 1, 83, 0
3, 89088, Note_on_c, 1, 81, 81
3, 89088, Note_on_c, 1, 86, 81
3, 89088, Note_on_c, 1, 78, 81
3, 89132, Note_off_c, 1, 81, 0
3, 89132, Note_off_c, 1, 86, 0
3, 89136, Note_on_c, 1, 73, 81
3, 89180, Note_off_c, 1, 78, 0
3, 89180, Note_off_c, 1, 73, 0
3, 89184, Note_on_c, 1, 78, 81
3, 89184, Note_on_c, 1, 74, 81
3, 89228, Note_off_c, 1, 78, 0
3, 89232, Note_on_c, 1, 73, 81
3, 89276, Note_off_c, 1, 74, 0
3, 89276, Note_off_c, 1, 73, 0
3, 89280, Note_on_c, 1, 78, 81
3, 89280, Note_on_c, 1, 74, 81
3, 89324, Note_off_c, 1, 78, 0
3, 89324, Note_off_c, 1, 74, 0
3, 89328, Note_on_c, 1, 69, 81
3, 89372, Note_off_c, 1, 69, 0
3, 89376, Note_on_c, 1, 66, 81
3, 89420, Note_off_c, 1, 66, 0
3, 89424, Note_on_c, 1, 69, 81
3, 89468, Note_off_c, 1, 69, 0
3, 89472, Note_on_c, 1, 74, 81
3, 89516, Note_off_c, 1, 74, 0
3, 89520, Note_on_c, 1, 74, 81
3, 89520, Note_on_c, 1, 69, 81
3, 89564, Note_off_c, 1, 74, 0
3, 89564, Note_off_c, 1, 69, 0
3, 89568, Note_on_c, 1, 78, 81
3, 89568, Note_on_c, 1, 74, 81
3, 89612, Note_off_c, 1, 78, 0
3, 89612, Note_off_c, 1, 74, 0
3, 89616, Note_on_c, 1, 81, 81
3, 89616, Note_on_c, 1, 78, 81
3, 89660, Note_off_c, 1, 81, 0
3, 89660, Note_off_c, 1, 78, 0
3, 89664, Note_on_c, 1, 81, 81
3, 89664, Note_on_c, 1, 78, 81
3, 89708, Note_off_c, 1, 81, 0
3, 89708, Note_off_c, 1, 78, 0
3, 89712, Note_on_c, 1, 79, 81
3, 89712, Note_on_c, 1, 76, 81
3, 89756, Note_off_c, 1, 79, 0
3, 89756, Note_off_c, 1, 76, 0
3, 89760, Note_on_c, 1, 78, 81
3, 89760, Note_on_c, 1, 74, 81
3, 89804, Note_off_c, 1, 78, 0
3, 89804, Note_off_c, 1, 74, 0
3, 89808, Note_on_c, 1, 76, 81
3, 89808, Note_on_c, 1, 73, 81
3, 89852, Note_off_c, 1, 76, 0
3, 89852, Note_off_c, 1, 73, 0
3, 89856, Note_on_c, 1, 74, 81
3, 90044, Note_off_c, 1, 74, 0
3, 90048, Note_on_c, 1, 69, 81
3, 90236, Note_off_c, 1, 69, 0
3, 90240, Note_on_c, 1, 74, 81
3, 90240, Note_on_c, 1, 62, 81
3, 90428, Note_off_c, 1, 74, 0
3, 90428, Note_off_c, 1, 62, 0
3, 90432, Note_on_c, 1, 78, 81
3, 90432, Note_on_c, 1, 66, 81
3, 90620, Note_off_c, 1, 78, 0
3, 90620, Note_off_c, 1, 66, 0
3, 90624, Note_on_c, 1, 81, 87
3, 90624, Note_on_c, 1, 69, 87
3, 90812, Note_off_c, 1, 81, 0
3, 90812, Note_off_c, 1, 69, 0
3, 90816, Note_on_c, 1, 81, 85
3, 90816, Note_on_c, 1, 69, 85
3, 91004, Note_off_c, 1, 81, 0
3, 91004, Note_off_c, 1, 69, 0
3, 91008, Note_on_c, 1, 81, 84
3, 91008, Note_on_c, 1, 69, 84
3, 91196, Note_off_c, 1, 81, 0
3, 91196, Note_off_c, 1, 69, 0
3, 91200, Note_on_c, 1, 81, 82
3, 91200, Note_on_c, 1, 69, 82
3, 91388, Note_off_c, 1, 81, 0
3, 91388, Note_off_c, 1, 69, 0
3, 91392, Note_on_c, 1, 69, 81
3, 91392, Note_on_c, 1, 81, 81
3, 91580, Note_off_c, 1, 69, 0
3, 91584, Note_on_c, 1, 69, 81
3, 91772, Note_off_c, 1, 81, 0
3, 91772, Note_off_c, 1, 69, 0
3, 91776, Note_on_c, 1, 69, 81
3, 91964, Note_off_c, 1, 69, 0
3, 91968, Note_on_c, 1, 69, 60
3, 92156, Note_off_c, 1, 69, 0
3, 92160, Note_on_c, 1, 69, 60
3, 92252, Note_off_c, 1, 69, 0
3, 92256, Note_on_c, 1, 74, 60
3, 92348, Note_off_c, 1, 74, 0
3, 92352, Note_on_c, 1, 71, 60
3, 92444, Note_off_c, 1, 71, 0
3, 92448, Note_on_c, 1, 68, 60
3, 92540, Note_off_c, 1, 68, 0
3, 92544, Note_on_c, 1, 69, 60
3, 92636, Note_off_c, 1, 69, 0
3, 92640, Note_on_c, 1, 71, 60
3, 92732, Note_off_c, 1, 71, 0
3, 92736, Note_on_c, 1, 69, 60
3, 92760, Note_off_c, 1, 69, 0
3, 92760, Note_on_c, 1, 67, 60
3, 92828, Note_off_c, 1, 67, 0
3, 92832, Note_on_c, 1, 66, 60
3, 92856, Note_off_c, 1, 66, 0
3, 92856, Note_on_c, 1, 64, 60
3, 92924, Note_off_c, 1, 64, 0
3, 92928, Note_on_c, 1, 62, 60
3, 92928, Note_on_c, 1, 57, 60
3, 92928, Note_on_c, 1, 54, 60
3, 93020, Note_off_c, 1, 62, 0
3, 93020, Note_off_c, 1, 57, 0
3, 93020, Note_off_c, 1, 54, 0
3, 93024, Note_on_c, 1, 62, 60
3, 93024, Note_on_c, 1, 57, 60
3, 93024, Note_on_c, 1, 54, 60
3, 93116, Note_off_c, 1, 62, 0
3, 93116, Note_off_c, 1, 57, 0
3, 93116, Note_off_c, 1, 54, 0
3, 93120, Note_on_c, 1, 62, 60
3, 93120, Note_on_c, 1, 57, 60
3, 93120, Note_on_c, 1, 54, 60
3, 93212, Note_off_c, 1, 62, 0
3, 93212, Note_off_c, 1, 57, 0
3, 93212, Note_off_c, 1, 54, 0
3, 93216, Note_on_c, 1, 62, 60
3, 93216, Note_on_c, 1, 57, 60
3, 93216, Note_on_c, 1, 54, 60
3, 93308, Note_off_c, 1, 62, 0
3, 93308, Note_off_c, 1, 57, 0
3, 93308, Note_off_c, 1, 54, 0
3, 93312, Note_on_c, 1, 61, 60
3, 93312, Note_on_c, 1, 57, 60
3, 93312, Note_on_c, 1, 55, 60
3, 93404, Note_off_c, 1, 61, 0
3, 93404, Note_off_c, 1, 57, 0
3, 93404, Note_off_c, 1, 55, 0
3, 93408, Note_on_c, 1, 61, 60
3, 93408, Note_on_c, 1, 57, 60
3, 93408, Note_on_c, 1, 55, 60
3, 93500, Note_off_c, 1, 61, 0
3, 93500, Note_off_c, 1, 57, 0
3, 93500, Note_off_c, 1, 55, 0
3, 93504, Note_on_c, 1, 61, 60
3, 93504, Note_on_c, 1, 57, 60
3, 93504, Note_on_c, 1, 54, 60
3, 93596, Note_off_c, 1, 61, 0
3, 93596, Note_off_c, 1, 57, 0
3, 93596, Note_off_c, 1, 54, 0
3, 93600, Note_on_c, 1, 64, 60
3, 93600, Note_on_c, 1, 61, 60
3, 93600, Note_on_c, 1, 57, 60
3, 93692, Note_off_c, 1, 64, 0
3, 93692, Note_off_c, 1, 61, 0
3, 93692, Note_off_c, 1, 57, 0
3, 93696, Note_on_c, 1, 67, 60
3, 93696, Note_on_c, 1, 64, 60
3, 93696, Note_on_c, 1, 57, 60
3, 93788, Note_off_c, 1, 67, 0
3, 93788, Note_off_c, 1, 64, 0
3, 93788, Note_off_c, 1, 57, 0
3, 93792, Note_on_c, 1, 66, 60
3, 93792, Note_on_c, 1, 62, 60
3, 93884, Note_off_c, 1, 66, 0
3, 93884, Note_off_c, 1, 62, 0
3, 93888, Note_on_c, 1, 71, 60
3, 93888, Note_on_c, 1, 67, 60
3, 93980, Note_off_c, 1, 71, 0
3, 93980, Note_off_c, 1, 67, 0
3, 93984, Note_on_c, 1, 69, 60
3, 93984, Note_on_c, 1, 66, 60
3, 94076, Note_off_c, 1, 69, 0
3, 94076, Note_off_c, 1, 66, 0
3, 94080, Note_on_c, 1, 69, 60
3, 94080, Note_on_c, 1, 66, 60
3, 94172, Note_off_c, 1, 69, 0
3, 94172, Note_off_c, 1, 66, 0
3, 94176, Note_on_c, 1, 68, 60
3, 94176, Note_on_c, 1, 65, 60
3, 94268, Note_off_c, 1, 68, 0
3, 94268, Note_off_c, 1, 65, 0
3, 94272, Note_on_c, 1, 67, 60
3, 94272, Note_on_c, 1, 64, 60
3, 94364, Note_off_c, 1, 67, 0
3, 94364, Note_off_c, 1, 64, 0
3, 94368, Note_on_c, 1, 64, 60
3, 94368, Note_on_c, 1, 61, 60
3, 94460, Note_off_c, 1, 64, 0
3, 94460, Note_off_c, 1, 61, 0
3, 94464, Note_on_c, 1, 62, 60
3, 94464, Note_on_c, 1, 57, 60
3, 94556, Note_off_c, 1, 62, 0
3, 94556, Note_off_c, 1, 57, 0
3, 94560, Note_on_c, 1, 62, 60
3, 94560, Note_on_c, 1, 57, 60
3, 94652, Note_off_c, 1, 62, 0
3, 94652, Note_off_c, 1, 57, 0
3, 94656, Note_on_c, 1, 62, 60
3, 94656, Note_on_c, 1, 57, 60
3, 94656, Note_on_c, 1, 54, 60
3, 94748, Note_off_c, 1, 62, 0
3, 94748, Note_off_c, 1, 57, 0
3, 94748, Note_off_c, 1, 54, 0
3, 94752, Note_on_c, 1, 62, 60
3, 94752, Note_on_c, 1, 57, 60
3, 94752, Note_on_c, 1, 54, 60
3, 94844, Note_off_c, 1, 62, 0
3, 94844, Note_off_c, 1, 57, 0
3, 94844, Note_off_c, 1, 54, 0
3, 94848, Note_on_c, 1, 59, 60
3, 94848, Note_on_c, 1, 55, 60
3, 94940, Note_off_c, 1, 59, 0
3, 94940, Note_off_c, 1, 55, 0
3, 94944, Note_on_c, 1, 59, 60
3, 94944, Note_on_c, 1, 55, 60
3, 95036, Note_off_c, 1, 59, 0
3, 95036, Note_off_c, 1, 55, 0
3, 95040, Note_on_c, 1, 61, 60
3, 95040, Note_on_c, 1, 55, 60
3, 95040, Note_on_c, 1, 52, 60
3, 95132, Note_off_c, 1, 61, 0
3, 95132, Note_off_c, 1, 55, 0
3, 95132, Note_off_c, 1, 52, 0
3, 95136, Note_on_c, 1, 64, 60
3, 95136, Note_on_c, 1, 61, 60
3, 95136, Note_on_c, 1, 57, 60
3, 95228, Note_off_c, 1, 64, 0
3, 95228, Note_off_c, 1, 61, 0
3, 95228, Note_off_c, 1, 57, 0
3, 95232, Note_on_c, 1, 67, 60
3, 95232, Note_on_c, 1, 64, 60
3, 95232, Note_on_c, 1, 57, 60
3, 95324, Note_off_c, 1, 67, 0
3, 95324, Note_off_c, 1, 64, 0
3, 95324, Note_off_c, 1, 57, 0
3, 95328, Note_on_c, 1, 66, 60
3, 95328, Note_on_c, 1, 62, 60
3, 95420, Note_off_c, 1, 66, 0
3, 95420, Note_off_c, 1, 62, 0
3, 95424, Note_on_c, 1, 71, 60
3, 95424, Note_on_c, 1, 67, 60
3, 95516, Note_off_c, 1, 71, 0
3, 95516, Note_off_c, 1, 67, 0
3, 95520, Note_on_c, 1, 69, 60
3, 95520, Note_on_c, 1, 66, 60
3, 95612, Note_off_c, 1, 69, 0
3, 95612, Note_off_c, 1, 66, 0
3, 95616, Note_on_c, 1, 69, 60
3, 95616, Note_on_c, 1, 66, 60
3, 95708, Note_off_c, 1, 69, 0
3, 95708, Note_off_c, 1, 66, 0
3, 95712, Note_on_c, 1, 65, 60
3, 95728, Note_on_c, 1, 68, 60
3, 95804, Note_off_c, 1, 65, 0
3, 95808, Note_on_c, 1, 67, 60
3, 95808, Note_on_c, 1, 64, 60
3, 95820, Note_off_c, 1, 68, 0
3, 95900, Note_off_c, 1, 67, 0
3, 95900, Note_off_c, 1, 64, 0
3, 95904, Note_on_c, 1, 64, 60
3, 95904, Note_on_c, 1, 61, 60
3, 95904, Note_on_c, 1, 55, 60
3, 95996, Note_off_c, 1, 64, 0
3, 95996, Note_off_c, 1, 61, 0
3, 95996, Note_off_c, 1, 55, 0
3, 96000, Note_on_c, 1, 62, 87
3, 96000, Note_on_c, 1, 54, 87
3, 96188, Note_off_c, 1, 62, 0
3, 96188, Note_off_c, 1, 54, 0
3, 96192, Note_on_c, 1, 66, 60
3, 96192, Note_on_c, 1, 57, 60
3, 96380, Note_off_c, 1, 66, 0
3, 96380, Note_off_c, 1, 57, 0
3, 96384, Note_on_c, 1, 62, 60
3, 96384, Note_on_c, 1, 57, 60
3, 96384, Note_on_c, 1, 54, 60
3, 96572, Note_off_c, 1, 62, 0
3, 96572, Note_off_c, 1, 57, 0
3, 96572, Note_off_c, 1, 54, 0
3, 96572, End_track
4, 0, Start_track
4, 0, Title_t, "K313-b-Adagio non troppo"
4, 0, Control_c, 2, 0, 0
4, 0, Program_c, 2, 0
4, 0, Control_c, 2, 7, 80
4, 0, Control_c, 2, 10, 45
4, 0, Control_c, 2, 91, 42
4, 0, Control_c, 2, 93, 42
4, 0, Key_signature, 2, "major"
4, 0, Control_c, 2, 121, 0
4, 144, Control_c, 2, 10, 43
4, 192, Control_c, 2, 91, 63
4, 240, Control_c, 2, 93, 40
4, 288, Program_c, 2, 0
4, 1536, Note_on_c, 2, 45, 87
4, 1916, Note_off_c, 2, 45, 0
4, 1920, Note_on_c, 2, 50, 85
4, 2108, Note_off_c, 2, 50, 0
4, 2112, Note_on_c, 2, 54, 84
4, 2300, Note_off_c, 2, 54, 0
4, 2304, Note_on_c, 2, 57, 82
4, 2492, Note_off_c, 2, 57, 0
4, 2496, Note_on_c, 2, 57, 81
4, 2684, Note_off_c, 2, 57, 0
4, 2688, Note_on_c, 2, 57, 81
4, 2876, Note_off_c, 2, 57, 0
4, 2880, Note_on_c, 2, 57, 60
4, 3068, Note_off_c, 2, 57, 0
4, 4032, Note_on_c, 2, 50, 60
4, 4220, Note_off_c, 2, 50, 0
4, 4224, Note_on_c, 2, 52, 60
4, 4412, Note_off_c, 2, 52, 0
4, 4416, Note_on_c, 2, 45, 60
4, 4604, Note_off_c, 2, 45, 0
4, 4608, Note_on_c, 2, 57, 60
4, 4608, Note_on_c, 2, 50, 60
4, 4796, Note_off_c, 2, 50, 0
4, 5180, Note_off_c, 2, 57, 0
4, 5184, Note_on_c, 2, 57, 60
4, 5372, Note_off_c, 2, 57, 0
4, 5376, Note_on_c, 2, 54, 60
4, 5564, Note_off_c, 2, 54, 0
4, 5568, Note_on_c, 2, 50, 60
4, 5756, Note_off_c, 2, 50, 0
4, 5760, Note_on_c, 2, 52, 60
4, 5948, Note_off_c, 2, 52, 0
4, 5952, Note_on_c, 2, 45, 60
4, 6140, Note_off_c, 2, 45, 0
4, 6144, Note_on_c, 2, 57, 60
4, 6144, Note_on_c, 2, 50, 60
4, 6332, Note_off_c, 2, 57, 0
4, 6332, Note_off_c, 2, 50, 0
4, 6528, Note_on_c, 2, 57, 60
4, 6528, Note_on_c, 2, 45, 60
4, 6716, Note_off_c, 2, 57, 0
4, 6716, Note_off_c, 2, 45, 0
4, 6912, Note_on_c, 2, 50, 81
4, 7100, Note_off_c, 2, 50, 0
4, 7104, Note_on_c, 2, 57, 81
4, 7292, Note_off_c, 2, 57, 0
4, 7296, Note_on_c, 2, 54, 81
4, 7484, Note_off_c, 2, 54, 0
4, 7488, Note_on_c, 2, 50, 81
4, 7676, Note_off_c, 2, 50, 0
4, 7680, Note_on_c, 2, 50, 81
4, 7868, Note_off_c, 2, 50, 0
4, 7872, Note_on_c, 2, 59, 81
4, 8060, Note_off_c, 2, 59, 0
4, 8064, Note_on_c, 2, 55, 81
4, 8252, Note_off_c, 2, 55, 0
4, 8256, Note_on_c, 2, 50, 81
4, 8444, Note_off_c, 2, 50, 0
4, 8448, Note_on_c, 2, 50, 81
4, 8448, Note_on_c, 2, 62, 81
4, 8492, Note_off_c, 2, 62, 0
4, 8496, Note_on_c, 2, 61, 81
4, 8540, Note_off_c, 2, 61, 0
4, 8544, Note_on_c, 2, 62, 81
4, 8588, Note_off_c, 2, 62, 0
4, 8592, Note_on_c, 2, 64, 81
4, 8636, Note_off_c, 2, 50, 0
4, 8636, Note_off_c, 2, 64, 0
4, 8640, Note_on_c, 2, 57, 81
4, 8828, Note_off_c, 2, 57, 0
4, 8832, Note_on_c, 2, 54, 81
4, 9020, Note_off_c, 2, 54, 0
4, 9024, Note_on_c, 2, 50, 81
4, 9212, Note_off_c, 2, 50, 0
4, 9216, Note_on_c, 2, 57, 60
4, 9216, Note_on_c, 2, 45, 60
4, 9404, Note_off_c, 2, 57, 0
4, 9404, Note_off_c, 2, 45, 0
4, 9408, Note_on_c, 2, 57, 60
4, 9408, Note_on_c, 2, 45, 60
4, 9596, Note_off_c, 2, 57, 0
4, 9596, Note_off_c, 2, 45, 0
4, 9600, Note_on_c, 2, 57, 60
4, 9600, Note_on_c, 2, 45, 60
4, 9788, Note_off_c, 2, 57, 0
4, 9788, Note_off_c, 2, 45, 0
4, 9792, Note_on_c, 2, 57, 60
4, 9792, Note_on_c, 2, 45, 60
4, 9980, Note_off_c, 2, 57, 0
4, 9980, Note_off_c, 2, 45, 0
4, 9984, Note_on_c, 2, 57, 60
4, 9984, Note_on_c, 2, 45, 60
4, 10172, Note_off_c, 2, 57, 0
4, 10172, Note_off_c, 2, 45, 0
4, 10176, Note_on_c, 2, 57, 60
4, 10176, Note_on_c, 2, 45, 60
4, 10364, Note_off_c, 2, 57, 0
4, 10364, Note_off_c, 2, 45, 0
4, 10368, Note_on_c, 2, 57, 60
4, 10368, Note_on_c, 2, 45, 60
4, 10556, Note_off_c, 2, 57, 0
4, 10556, Note_off_c, 2, 45, 0
4, 10560, Note_on_c, 2, 57, 60
4, 10560, Note_on_c, 2, 45, 60
4, 10748, Note_off_c, 2, 57, 0
4, 10748, Note_off_c, 2, 45, 0
4, 10752, Note_on_c, 2, 45, 60
4, 10752, Note_on_c, 2, 61, 60
4, 10796, Note_off_c, 2, 61, 0
4, 10800, Note_on_c, 2, 59, 60
4, 10844, Note_off_c, 2, 59, 0
4, 10848, Note_on_c, 2, 61, 60
4, 10892, Note_off_c, 2, 61, 0
4, 10896, Note_on_c, 2, 57, 60
4, 10940, Note_off_c, 2, 57, 0
4, 10944, Note_on_c, 2, 62, 60
4, 10988, Note_off_c, 2, 62, 0
4, 10992, Note_on_c, 2, 64, 60
4, 11036, Note_off_c, 2, 64, 0
4, 11040, Note_on_c, 2, 65, 60
4, 11084, Note_off_c, 2, 65, 0
4, 11088, Note_on_c, 2, 62, 60
4, 11132, Note_off_c, 2, 62, 0
4, 11136, Note_on_c, 2, 61, 60
4, 11180, Note_off_c, 2, 61, 0
4, 11184, Note_on_c, 2, 59, 60
4, 11228, Note_off_c, 2, 59, 0
4, 11232, Note_on_c, 2, 61, 60
4, 11276, Note_off_c, 2, 61, 0
4, 11280, Note_on_c, 2, 57, 60
4, 11324, Note_off_c, 2, 57, 0
4, 11328, Note_on_c, 2, 62, 60
4, 11372, Note_off_c, 2, 62, 0
4, 11376, Note_on_c, 2, 64, 60
4, 11420, Note_off_c, 2, 64, 0
4, 11424, Note_on_c, 2, 65, 60
4, 11468, Note_off_c, 2, 65, 0
4, 11472, Note_on_c, 2, 62, 60
4, 11516, Note_off_c, 2, 45, 0
4, 11516, Note_off_c, 2, 62, 0
4, 11520, Note_on_c, 2, 61, 60
4, 11520, Note_on_c, 2, 45, 60
4, 11696, Note_on_c, 2, 46, 60
4, 11708, Note_off_c, 2, 61, 0
4, 11708, Note_off_c, 2, 45, 0
4, 11712, Note_on_c, 2, 34, 60
4, 12076, Note_off_c, 2, 46, 0
4, 12092, Note_off_c, 2, 34, 0
4, 12096, Note_on_c, 2, 45, 60
4, 12096, Note_on_c, 2, 33, 60
4, 12284, Note_off_c, 2, 45, 0
4, 12284, Note_off_c, 2, 33, 0
4, 12288, Note_on_c, 2, 45, 60
4, 12476, Note_off_c, 2, 45, 0
4, 12480, Note_on_c, 2, 57, 81
4, 12480, Note_on_c, 2, 45, 81
4, 12860, Note_off_c, 2, 57, 0
4, 12860, Note_off_c, 2, 45, 0
4, 12864, Note_on_c, 2, 56, 60
4, 12864, Note_on_c, 2, 44, 60
4, 13052, Note_off_c, 2, 56, 0
4, 13052, Note_off_c, 2, 44, 0
4, 13056, Note_on_c, 2, 50, 60
4, 13244, Note_off_c, 2, 50, 0
4, 13248, Note_on_c, 2, 50, 60
4, 13436, Note_off_c, 2, 50, 0
4, 13440, Note_on_c, 2, 50, 60
4, 13628, Note_off_c, 2, 50, 0
4, 13632, Note_on_c, 2, 53, 60
4, 13632, Note_on_c, 2, 44, 60
4, 13820, Note_off_c, 2, 53, 0
4, 13820, Note_off_c, 2, 44, 0
4, 13824, Note_on_c, 2, 54, 60
4, 13824, Note_on_c, 2, 45, 60
4, 14012, Note_off_c, 2, 54, 0
4, 14012, Note_off_c, 2, 45, 0
4, 14016, Note_on_c, 2, 45, 60
4, 14204, Note_off_c, 2, 45, 0
4, 14208, Note_on_c, 2, 45, 60
4, 14208, Note_on_c, 2, 55, 60
4, 14396, Note_off_c, 2, 45, 0
4, 14400, Note_on_c, 2, 45, 60
4, 14588, Note_off_c, 2, 55, 0
4, 14588, Note_off_c, 2, 45, 0
4, 14592, Note_on_c, 2, 50, 87
4, 14592, Note_on_c, 2, 54, 87
4, 14780, Note_off_c, 2, 50, 0
4, 14780, Note_off_c, 2, 54, 0
4, 14976, Note_on_c, 2, 62, 81
4, 15164, Note_off_c, 2, 62, 0
4, 15168, Note_on_c, 2, 66, 81
4, 15356, Note_off_c, 2, 66, 0
4, 15360, Note_on_c, 2, 45, 87
4, 15360, Note_on_c, 2, 33, 87
4, 15740, Note_off_c, 2, 45, 0
4, 15740, Note_off_c, 2, 33, 0
4, 15744, Note_on_c, 2, 50, 85
4, 15744, Note_on_c, 2, 38, 85
4, 15932, Note_off_c, 2, 50, 0
4, 15932, Note_off_c, 2, 38, 0
4, 15936, Note_on_c, 2, 54, 84
4, 15936, Note_on_c, 2, 42, 84
4, 16124, Note_off_c, 2, 54, 0
4, 16124, Note_off_c, 2, 42, 0
4, 16128, Note_on_c, 2, 57, 82
4, 16128, Note_on_c, 2, 45, 82
4, 16316, Note_off_c, 2, 57, 0
4, 16316, Note_off_c, 2, 45, 0
4, 16320, Note_on_c, 2, 57, 81
4, 16320, Note_on_c, 2, 45, 81
4, 16508, Note_off_c, 2, 57, 0
4, 16508, Note_off_c, 2, 45, 0
4, 16512, Note_on_c, 2, 57, 81
4, 16512, Note_on_c, 2, 45, 81
4, 16700, Note_off_c, 2, 57, 0
4, 16700, Note_off_c, 2, 45, 0
4, 17856, Note_on_c, 2, 50, 60
4, 18044, Note_off_c, 2, 50, 0
4, 18048, Note_on_c, 2, 52, 60
4, 18236, Note_off_c, 2, 52, 0
4, 18240, Note_on_c, 2, 45, 60
4, 18428, Note_off_c, 2, 45, 0
4, 18432, Note_on_c, 2, 57, 60
4, 18432, Note_on_c, 2, 50, 60
4, 18620, Note_off_c, 2, 57, 0
4, 18620, Note_off_c, 2, 50, 0
4, 18816, Note_on_c, 2, 43, 60
4, 18816, Note_on_c, 2, 57, 60
4, 19004, Note_off_c, 2, 43, 0
4, 19100, Note_off_c, 2, 57, 0
4, 19104, Note_on_c, 2, 55, 60
4, 19196, Note_off_c, 2, 55, 0
4, 19200, Note_on_c, 2, 54, 60
4, 19200, Note_on_c, 2, 50, 60
4, 19388, Note_off_c, 2, 54, 0
4, 19388, Note_off_c, 2, 50, 0
4, 19392, Note_on_c, 2, 54, 60
4, 19580, Note_off_c, 2, 54, 0
4, 19584, Note_on_c, 2, 52, 60
4, 19772, Note_off_c, 2, 52, 0
4, 19776, Note_on_c, 2, 45, 60
4, 19964, Note_off_c, 2, 45, 0
4, 19968, Note_on_c, 2, 57, 60
4, 19968, Note_on_c, 2, 50, 60
4, 20156, Note_off_c, 2, 57, 0
4, 20156, Note_off_c, 2, 50, 0
4, 20352, Note_on_c, 2, 45, 60
4, 20352, Note_on_c, 2, 57, 60
4, 20540, Note_off_c, 2, 45, 0
4, 20636, Note_off_c, 2, 57, 0
4, 20640, Note_on_c, 2, 55, 60
4, 20732, Note_off_c, 2, 55, 0
4, 20736, Note_on_c, 2, 54, 60
4, 20736, Note_on_c, 2, 50, 60
4, 20924, Note_off_c, 2, 54, 0
4, 20924, Note_off_c, 2, 50, 0
4, 21120, Note_on_c, 2, 50, 60
4, 21308, Note_off_c, 2, 50, 0
4, 21504, Note_on_c, 2, 61, 60
4, 21504, Note_on_c, 2, 52, 60
4, 21692, Note_off_c, 2, 52, 0
4, 21888, Note_on_c, 2, 52, 60
4, 22076, Note_off_c, 2, 52, 0
4, 22268, Note_off_c, 2, 61, 0
4, 22272, Note_on_c, 2, 57, 60
4, 22272, Note_on_c, 2, 55, 60
4, 22272, Note_on_c, 2, 45, 60
4, 22460, Note_off_c, 2, 45, 0
4, 22656, Note_on_c, 2, 45, 60
4, 22844, Note_off_c, 2, 45, 0
4, 23036, Note_off_c, 2, 57, 0
4, 23036, Note_off_c, 2, 55, 0
4, 23040, Note_on_c, 2, 50, 60
4, 23228, Note_off_c, 2, 50, 0
4, 23424, Note_on_c, 2, 62, 60
4, 23612, Note_off_c, 2, 62, 0
4, 23616, Note_on_c, 2, 61, 60
4, 23804, Note_off_c, 2, 61, 0
4, 23808, Note_on_c, 2, 59, 60
4, 23996, Note_off_c, 2, 59, 0
4, 24000, Note_on_c, 2, 64, 60
4, 24188, Note_off_c, 2, 64, 0
4, 24192, Note_on_c, 2, 61, 60
4, 24380, Note_off_c, 2, 61, 0
4, 24384, Note_on_c, 2, 62, 60
4, 24572, Note_off_c, 2, 62, 0
4, 24576, Note_on_c, 2, 57, 60
4, 25152, Note_on_c, 2, 61, 60
4, 25196, Note_off_c, 2, 61, 0
4, 25200, Note_on_c, 2, 59, 60
4, 25244, Note_off_c, 2, 59, 0
4, 25248, Note_on_c, 2, 61, 60
4, 25292, Note_off_c, 2, 61, 0
4, 25296, Note_on_c, 2, 64, 60
4, 25340, Note_off_c, 2, 57, 0
4, 25340, Note_off_c, 2, 64, 0
4, 25344, Note_on_c, 2, 62, 60
4, 25388, Note_off_c, 2, 62, 0
4, 25392, Note_on_c, 2, 64, 60
4, 25436, Note_off_c, 2, 64, 0
4, 25440, Note_on_c, 2, 65, 60
4, 25484, Note_off_c, 2, 65, 0
4, 25488, Note_on_c, 2, 62, 60
4, 25532, Note_off_c, 2, 62, 0
4, 25536, Note_on_c, 2, 61, 60
4, 25536, Note_on_c, 2, 57, 60
4, 25580, Note_off_c, 2, 61, 0
4, 25584, Note_on_c, 2, 59, 60
4, 25628, Note_off_c, 2, 59, 0
4, 25632, Note_on_c, 2, 61, 60
4, 25676, Note_off_c, 2, 61, 0
4, 25680, Note_on_c, 2, 64, 60
4, 25724, Note_off_c, 2, 64, 0
4, 25728, Note_on_c, 2, 62, 60
4, 25772, Note_off_c, 2, 62, 0
4, 25776, Note_on_c, 2, 64, 60
4, 25820, Note_off_c, 2, 64, 0
4, 25824, Note_on_c, 2, 65, 60
4, 25868, Note_off_c, 2, 65, 0
4, 25872, Note_on_c, 2, 62, 60
4, 25916, Note_off_c, 2, 57, 0
4, 25916, Note_off_c, 2, 62, 0
4, 25920, Note_on_c, 2, 61, 60
4, 25920, Note_on_c, 2, 57, 60
4, 26108, Note_off_c, 2, 61, 0
4, 26108, Note_off_c, 2, 57, 0
4, 26112, Note_on_c, 2, 57, 60
4, 26112, Note_on_c, 2, 57, 60
4, 26300, Note_off_c, 2, 57, 0
4, 26300, Note_off_c, 2, 57, 0
4, 26304, Note_on_c, 2, 64, 60
4, 26492, Note_off_c, 2, 64, 0
4, 26496, Note_on_c, 2, 57, 60
4, 26496, Note_on_c, 2, 57, 60
4, 26684, Note_off_c, 2, 57, 0
4, 26684, Note_off_c, 2, 57, 0
4, 26688, Note_on_c, 2, 64, 60
4, 26876, Note_off_c, 2, 64, 0
4, 26880, Note_on_c, 2, 57, 60
4, 26880, Note_on_c, 2, 57, 60
4, 27068, Note_off_c, 2, 57, 0
4, 27068, Note_off_c, 2, 57, 0
4, 27072, Note_on_c, 2, 64, 60
4, 27260, Note_off_c, 2, 64, 0
4, 27264, Note_on_c, 2, 57, 60
4, 27264, Note_on_c, 2, 57, 60
4, 27452, Note_off_c, 2, 57, 0
4, 27452, Note_off_c, 2, 57, 0
4, 27456, Note_on_c, 2, 64, 60
4, 27644, Note_off_c, 2, 64, 0
4, 27648, Note_on_c, 2, 64, 60
4, 27648, Note_on_c, 2, 52, 60
4, 27836, Note_off_c, 2, 64, 0
4, 27836, Note_off_c, 2, 52, 0
4, 28032, Note_on_c, 2, 62, 60
4, 28032, Note_on_c, 2, 50, 60
4, 28220, Note_off_c, 2, 62, 0
4, 28220, Note_off_c, 2, 50, 0
4, 28416, Note_on_c, 2, 61, 60
4, 28416, Note_on_c, 2, 49, 60
4, 28604, Note_off_c, 2, 61, 0
4, 28604, Note_off_c, 2, 49, 0
4, 30528, Note_on_c, 2, 64, 60
4, 30528, Note_on_c, 2, 62, 60
4, 30528, Note_on_c, 2, 56, 60
4, 30660, Note_off_c, 2, 64, 0
4, 30660, Note_off_c, 2, 62, 0
4, 30660, Note_off_c, 2, 56, 0
4, 30720, Note_on_c, 2, 64, 60
4, 30720, Note_on_c, 2, 61, 60
4, 30720, Note_on_c, 2, 57, 60
4, 30908, Note_off_c, 2, 64, 0
4, 30908, Note_off_c, 2, 61, 0
4, 30908, Note_off_c, 2, 57, 0
4, 30912, Note_on_c, 2, 64, 60
4, 30912, Note_on_c, 2, 59, 60
4, 30912, Note_on_c, 2, 52, 60
4, 31100, Note_off_c, 2, 64, 0
4, 31100, Note_off_c, 2, 59, 0
4, 31100, Note_off_c, 2, 52, 0
4, 31296, Note_on_c, 2, 64, 60
4, 31296, Note_on_c, 2, 62, 60
4, 31296, Note_on_c, 2, 56, 60
4, 31484, Note_off_c, 2, 64, 0
4, 31484, Note_off_c, 2, 62, 0
4, 31484, Note_off_c, 2, 56, 0
4, 31488, Note_on_c, 2, 64, 60
4, 31488, Note_on_c, 2, 61, 60
4, 31488, Note_on_c, 2, 57, 60
4, 31676, Note_off_c, 2, 64, 0
4, 31676, Note_off_c, 2, 61, 0
4, 31676, Note_off_c, 2, 57, 0
4, 31680, Note_on_c, 2, 64, 60
4, 31680, Note_on_c, 2, 59, 60
4, 31680, Note_on_c, 2, 52, 60
4, 31868, Note_off_c, 2, 64, 0
4, 31868, Note_off_c, 2, 59, 0
4, 31868, Note_off_c, 2, 52, 0
4, 32064, Note_on_c, 2, 62, 60
4, 32252, Note_off_c, 2, 62, 0
4, 32256, Note_on_c, 2, 61, 60
4, 32444, Note_off_c, 2, 61, 0
4, 32448, Note_on_c, 2, 62, 60
4, 32636, Note_off_c, 2, 62, 0
4, 32640, Note_on_c, 2, 64, 60
4, 32828, Note_off_c, 2, 64, 0
4, 32832, Note_on_c, 2, 64, 60
4, 33020, Note_off_c, 2, 64, 0
4, 33024, Note_on_c, 2, 57, 60
4, 33404, Note_off_c, 2, 57, 0
4, 33600, Note_on_c, 2, 62, 60
4, 33600, Note_on_c, 2, 56, 60
4, 33600, Note_on_c, 2, 52, 60
4, 33788, Note_off_c, 2, 62, 0
4, 33788, Note_off_c, 2, 56, 0
4, 33788, Note_off_c, 2, 52, 0
4, 33792, Note_on_c, 2, 64, 60
4, 33792, Note_on_c, 2, 61, 60
4, 33792, Note_on_c, 2, 57, 60
4, 33924, Note_off_c, 2, 64, 0
4, 33924, Note_off_c, 2, 61, 0
4, 33924, Note_off_c, 2, 57, 0
4, 33984, Note_on_c, 2, 64, 60
4, 33984, Note_on_c, 2, 62, 60
4, 33984, Note_on_c, 2, 56, 60
4, 34172, Note_off_c, 2, 64, 0
4, 34172, Note_off_c, 2, 62, 0
4, 34172, Note_off_c, 2, 56, 0
4, 34368, Note_on_c, 2, 62, 60
4, 34368, Note_on_c, 2, 56, 60
4, 34368, Note_on_c, 2, 52, 60
4, 34556, Note_off_c, 2, 62, 0
4, 34556, Note_off_c, 2, 56, 0
4, 34556, Note_off_c, 2, 52, 0
4, 34560, Note_on_c, 2, 64, 60
4, 34560, Note_on_c, 2, 61, 60
4, 34560, Note_on_c, 2, 57, 60
4, 34748, Note_off_c, 2, 64, 0
4, 34748, Note_off_c, 2, 61, 0
4, 34748, Note_off_c, 2, 57, 0
4, 34752, Note_on_c, 2, 64, 60
4, 34752, Note_on_c, 2, 62, 60
4, 34752, Note_on_c, 2, 56, 60
4, 34940, Note_off_c, 2, 64, 0
4, 34940, Note_off_c, 2, 62, 0
4, 34940, Note_off_c, 2, 56, 0
4, 35136, Note_on_c, 2, 62, 60
4, 35324, Note_off_c, 2, 62, 0
4, 35328, Note_on_c, 2, 61, 60
4, 35516, Note_off_c, 2, 61, 0
4, 35520, Note_on_c, 2, 62, 60
4, 35708, Note_off_c, 2, 62, 0
4, 35712, Note_on_c, 2, 64, 60
4, 35900, Note_off_c, 2, 64, 0
4, 35904, Note_on_c, 2, 64, 60
4, 36092, Note_off_c, 2, 64, 0
4, 36096, Note_on_c, 2, 61, 60
4, 36096, Note_on_c, 2, 52, 60
4, 36284, Note_off_c, 2, 61, 0
4, 36284, Note_off_c, 2, 52, 0
4, 36288, Note_on_c, 2, 62, 60
4, 36288, Note_on_c, 2, 50, 60
4, 36476, Note_off_c, 2, 62, 0
4, 36476, Note_off_c, 2, 50, 0
4, 36672, Note_on_c, 2, 50, 60
4, 36860, Note_off_c, 2, 50, 0
4, 36864, Note_on_c, 2, 49, 60
4, 37052, Note_off_c, 2, 49, 0
4, 37056, Note_on_c, 2, 54, 60
4, 37244, Note_off_c, 2, 54, 0
4, 37248, Note_on_c, 2, 50, 60
4, 37436, Note_off_c, 2, 50, 0
4, 37440, Note_on_c, 2, 52, 60
4, 37628, Note_off_c, 2, 52, 0
4, 37632, Note_on_c, 2, 61, 60
4, 37632, Note_on_c, 2, 52, 60
4, 37820, Note_off_c, 2, 61, 0
4, 37820, Note_off_c, 2, 52, 0
4, 37824, Note_on_c, 2, 62, 60
4, 37824, Note_on_c, 2, 50, 60
4, 38012, Note_off_c, 2, 62, 0
4, 38012, Note_off_c, 2, 50, 0
4, 39936, Note_on_c, 2, 64, 60
4, 39936, Note_on_c, 2, 52, 60
4, 40124, Note_off_c, 2, 64, 0
4, 40124, Note_off_c, 2, 52, 0
4, 40128, Note_on_c, 2, 61, 60
4, 40128, Note_on_c, 2, 52, 60
4, 40316, Note_off_c, 2, 61, 0
4, 40316, Note_off_c, 2, 52, 0
4, 40320, Note_on_c, 2, 57, 60
4, 40320, Note_on_c, 2, 52, 60
4, 40508, Note_off_c, 2, 57, 0
4, 40508, Note_off_c, 2, 52, 0
4, 40512, Note_on_c, 2, 52, 60
4, 40700, Note_off_c, 2, 52, 0
4, 40704, Note_on_c, 2, 52, 60
4, 40892, Note_off_c, 2, 52, 0
4, 40896, Note_on_c, 2, 52, 64
4, 40896, Note_on_c, 2, 64, 64
4, 41084, Note_off_c, 2, 52, 0
4, 41084, Note_off_c, 2, 64, 0
4, 41088, Note_on_c, 2, 52, 69
4, 41276, Note_off_c, 2, 52, 0
4, 41280, Note_on_c, 2, 52, 75
4, 41280, Note_on_c, 2, 64, 75
4, 41420, Note_off_c, 2, 64, 0
4, 41424, Note_on_c, 2, 62, 79
4, 41468, Note_off_c, 2, 52, 0
4, 41468, Note_off_c, 2, 62, 0
4, 41472, Note_on_c, 2, 61, 81
4, 41472, Note_on_c, 2, 57, 81
4, 41660, Note_off_c, 2, 61, 0
4, 41660, Note_off_c, 2, 57, 0
4, 41664, Note_on_c, 2, 64, 81
4, 41664, Note_on_c, 2, 52, 81
4, 41852, Note_off_c, 2, 64, 0
4, 41852, Note_off_c, 2, 52, 0
4, 41856, Note_on_c, 2, 61, 81
4, 41856, Note_on_c, 2, 49, 81
4, 42044, Note_off_c, 2, 61, 0
4, 42044, Note_off_c, 2, 49, 0
4, 42048, Note_on_c, 2, 57, 81
4, 42048, Note_on_c, 2, 45, 81
4, 42236, Note_off_c, 2, 57, 0
4, 42236, Note_off_c, 2, 45, 0
4, 42240, Note_on_c, 2, 57, 81
4, 42240, Note_on_c, 2, 50, 81
4, 42428, Note_off_c, 2, 57, 0
4, 42428, Note_off_c, 2, 50, 0
4, 42432, Note_on_c, 2, 57, 81
4, 42620, Note_off_c, 2, 57, 0
4, 42624, Note_on_c, 2, 57, 81
4, 42624, Note_on_c, 2, 54, 81
4, 42812, Note_off_c, 2, 57, 0
4, 42812, Note_off_c, 2, 54, 0
4, 42816, Note_on_c, 2, 63, 81
4, 42816, Note_on_c, 2, 51, 81
4, 43004, Note_off_c, 2, 63, 0
4, 43004, Note_off_c, 2, 51, 0
4, 43008, Note_on_c, 2, 64, 81
4, 43008, Note_on_c, 2, 52, 81
4, 43196, Note_off_c, 2, 64, 0
4, 43196, Note_off_c, 2, 52, 0
4, 43200, Note_on_c, 2, 52, 81
4, 43388, Note_off_c, 2, 52, 0
4, 43392, Note_on_c, 2, 52, 81
4, 43580, Note_off_c, 2, 52, 0
4, 43584, Note_on_c, 2, 52, 81
4, 43584, Note_on_c, 2, 59, 81
4, 43584, Note_on_c, 2, 64, 81
4, 43772, Note_off_c, 2, 52, 0
4, 43772, Note_off_c, 2, 59, 0
4, 43772, Note_off_c, 2, 64, 0
4, 43776, Note_on_c, 2, 64, 60
4, 43776, Note_on_c, 2, 61, 60
4, 43776, Note_on_c, 2, 57, 60
4, 43964, Note_off_c, 2, 64, 0
4, 43964, Note_off_c, 2, 61, 0
4, 43964, Note_off_c, 2, 57, 0
4, 44160, Note_on_c, 2, 52, 81
4, 44348, Note_off_c, 2, 52, 0
4, 44544, Note_on_c, 2, 52, 60
4, 44544, Note_on_c, 2, 45, 60
4, 44732, Note_off_c, 2, 52, 0
4, 44732, Note_off_c, 2, 45, 0
4, 44928, Note_on_c, 2, 52, 60
4, 45116, Note_off_c, 2, 52, 0
4, 45312, Note_on_c, 2, 64, 81
4, 45312, Note_on_c, 2, 61, 81
4, 45312, Note_on_c, 2, 57, 81
4, 45500, Note_off_c, 2, 64, 0
4, 45500, Note_off_c, 2, 61, 0
4, 45500, Note_off_c, 2, 57, 0
4, 45696, Note_on_c, 2, 64, 81
4, 45696, Note_on_c, 2, 52, 81
4, 45884, Note_off_c, 2, 64, 0
4, 45884, Note_off_c, 2, 52, 0
4, 46080, Note_on_c, 2, 45, 60
4, 46268, Note_off_c, 2, 45, 0
4, 46464, Note_on_c, 2, 52, 60
4, 46652, Note_off_c, 2, 52, 0
4, 46944, Note_on_c, 2, 57, 60
4, 47036, Note_off_c, 2, 57, 0
4, 47040, Note_on_c, 2, 59, 60
4, 47132, Note_off_c, 2, 59, 0
4, 47136, Note_on_c, 2, 57, 60
4, 47228, Note_off_c, 2, 57, 0
4, 47232, Note_on_c, 2, 55, 60
4, 47324, Note_off_c, 2, 55, 0
4, 47328, Note_on_c, 2, 55, 60
4, 47420, Note_off_c, 2, 55, 0
4, 47424, Note_on_c, 2, 57, 60
4, 47516, Note_off_c, 2, 57, 0
4, 47520, Note_on_c, 2, 55, 60
4, 47612, Note_off_c, 2, 55, 0
4, 47616, Note_on_c, 2, 57, 60
4, 47616, Note_on_c, 2, 54, 60
4, 47708, Note_off_c, 2, 54, 0
4, 47712, Note_on_c, 2, 54, 60
4, 47804, Note_off_c, 2, 54, 0
4, 47808, Note_on_c, 2, 55, 60
4, 47900, Note_off_c, 2, 55, 0
4, 47904, Note_on_c, 2, 54, 60
4, 47996, Note_off_c, 2, 54, 0
4, 48000, Note_on_c, 2, 52, 60
4, 48092, Note_off_c, 2, 52, 0
4, 48096, Note_on_c, 2, 52, 60
4, 48188, Note_off_c, 2, 52, 0
4, 48192, Note_on_c, 2, 54, 60
4, 48284, Note_off_c, 2, 54, 0
4, 48288, Note_on_c, 2, 52, 60
4, 48380, Note_off_c, 2, 57, 0
4, 48380, Note_off_c, 2, 52, 0
4, 48384, Note_on_c, 2, 57, 60
4, 48384, Note_on_c, 2, 51, 60
4, 48572, Note_off_c, 2, 57, 0
4, 48572, Note_off_c, 2, 51, 0
4, 49152, Note_on_c, 2, 57, 60
4, 49340, Note_off_c, 2, 57, 0
4, 49344, Note_on_c, 2, 57, 60
4, 49532, Note_off_c, 2, 57, 0
4, 49536, Note_on_c, 2, 59, 60
4, 49724, Note_off_c, 2, 59, 0
4, 49728, Note_on_c, 2, 59, 60
4, 49916, Note_off_c, 2, 59, 0
4, 49920, Note_on_c, 2, 59, 81
4, 49920, Note_on_c, 2, 52, 81
4, 50108, Note_off_c, 2, 59, 0
4, 50108, Note_off_c, 2, 52, 0
4, 50304, Note_on_c, 2, 59, 81
4, 50304, Note_on_c, 2, 47, 81
4, 50492, Note_off_c, 2, 59, 0
4, 50492, Note_off_c, 2, 47, 0
4, 50688, Note_on_c, 2, 59, 60
4, 50688, Note_on_c, 2, 52, 60
4, 50876, Note_off_c, 2, 59, 0
4, 50876, Note_off_c, 2, 52, 0
4, 51456, Note_on_c, 2, 52, 60
4, 51548, Note_off_c, 2, 52, 0
4, 51552, Note_on_c, 2, 52, 60
4, 51644, Note_off_c, 2, 52, 0
4, 51648, Note_on_c, 2, 54, 60
4, 51740, Note_off_c, 2, 54, 0
4, 51744, Note_on_c, 2, 52, 60
4, 51836, Note_off_c, 2, 52, 0
4, 51840, Note_on_c, 2, 50, 60
4, 51932, Note_off_c, 2, 50, 0
4, 51936, Note_on_c, 2, 50, 60
4, 52028, Note_off_c, 2, 50, 0
4, 52032, Note_on_c, 2, 52, 60
4, 52124, Note_off_c, 2, 52, 0
4, 52128, Note_on_c, 2, 50, 60
4, 52220, Note_off_c, 2, 50, 0
4, 52224, Note_on_c, 2, 49, 60
4, 52412, Note_off_c, 2, 49, 0
4, 52416, Note_on_c, 2, 61, 60
4, 52604, Note_off_c, 2, 61, 0
4, 52608, Note_on_c, 2, 61, 60
4, 52796, Note_off_c, 2, 61, 0
4, 52800, Note_on_c, 2, 59, 60
4, 52988, Note_off_c, 2, 59, 0
4, 52992, Note_on_c, 2, 58, 60
4, 53180, Note_off_c, 2, 58, 0
4, 53184, Note_on_c, 2, 58, 60
4, 53184, Note_on_c, 2, 61, 60
4, 53372, Note_off_c, 2, 58, 0
4, 53372, Note_off_c, 2, 61, 0
4, 53376, Note_on_c, 2, 59, 60
4, 53564, Note_off_c, 2, 59, 0
4, 53568, Note_on_c, 2, 57, 60
4, 53568, Note_on_c, 2, 61, 60
4, 53756, Note_off_c, 2, 57, 0
4, 53756, Note_off_c, 2, 61, 0
4, 53760, Note_on_c, 2, 55, 60
4, 53948, Note_off_c, 2, 55, 0
4, 53952, Note_on_c, 2, 55, 60
4, 53952, Note_on_c, 2, 59, 60
4, 54140, Note_off_c, 2, 55, 0
4, 54140, Note_off_c, 2, 59, 0
4, 54144, Note_on_c, 2, 55, 60
4, 54144, Note_on_c, 2, 61, 60
4, 54332, Note_off_c, 2, 55, 0
4, 54332, Note_off_c, 2, 61, 0
4, 54336, Note_on_c, 2, 55, 60
4, 54336, Note_on_c, 2, 62, 60
4, 54524, Note_off_c, 2, 55, 0
4, 54524, Note_off_c, 2, 62, 0
4, 54528, Note_on_c, 2, 54, 60
4, 54704, Note_on_c, 2, 58, 60
4, 54716, Note_off_c, 2, 54, 0
4, 54720, Note_on_c, 2, 54, 60
4, 54844, Note_off_c, 2, 58, 0
4, 54864, Note_on_c, 2, 59, 60
4, 54908, Note_off_c, 2, 54, 0
4, 54908, Note_off_c, 2, 59, 0
4, 54912, Note_on_c, 2, 54, 60
4, 54912, Note_on_c, 2, 61, 60
4, 55100, Note_off_c, 2, 54, 0
4, 55100, Note_off_c, 2, 61, 0
4, 55104, Note_on_c, 2, 54, 60
4, 55104, Note_on_c, 2, 61, 60
4, 55292, Note_off_c, 2, 54, 0
4, 55292, Note_off_c, 2, 61, 0
4, 55296, Note_on_c, 2, 59, 60
4, 55296, Note_on_c, 2, 55, 60
4, 55676, Note_off_c, 2, 59, 0
4, 55676, Note_off_c, 2, 55, 0
4, 55872, Note_on_c, 2, 59, 60
4, 55872, Note_on_c, 2, 55, 60
4, 55964, Note_off_c, 2, 59, 0
4, 55968, Note_on_c, 2, 62, 60
4, 56060, Note_off_c, 2, 55, 0
4, 56060, Note_off_c, 2, 62, 0
4, 56064, Note_on_c, 2, 61, 58
4, 56064, Note_on_c, 2, 54, 58
4, 56156, Note_off_c, 2, 61, 0
4, 56160, Note_on_c, 2, 58, 58
4, 56252, Note_off_c, 2, 58, 0
4, 56256, Note_on_c, 2, 59, 57
4, 56348, Note_off_c, 2, 59, 0
4, 56352, Note_on_c, 2, 62, 57
4, 56444, Note_off_c, 2, 62, 0
4, 56448, Note_on_c, 2, 61, 55
4, 56540, Note_off_c, 2, 61, 0
4, 56544, Note_on_c, 2, 58, 55
4, 56636, Note_off_c, 2, 58, 0
4, 56640, Note_on_c, 2, 59, 54
4, 56732, Note_off_c, 2, 59, 0
4, 56736, Note_on_c, 2, 62, 54
4, 56828, Note_off_c, 2, 54, 0
4, 56828, Note_off_c, 2, 62, 0
4, 56832, Note_on_c, 2, 61, 54
4, 56832, Note_on_c, 2, 54, 54
4, 57020, Note_off_c, 2, 61, 0
4, 57020, Note_off_c, 2, 54, 0
4, 57024, Note_on_c, 2, 57, 87
4, 57404, Note_off_c, 2, 57, 0
4, 57408, Note_on_c, 2, 57, 60
4, 57408, Note_on_c, 2, 45, 60
4, 57596, Note_off_c, 2, 57, 0
4, 57596, Note_off_c, 2, 45, 0
4, 57600, Note_on_c, 2, 45, 87
4, 57980, Note_off_c, 2, 45, 0
4, 57984, Note_on_c, 2, 50, 81
4, 58172, Note_off_c, 2, 50, 0
4, 58176, Note_on_c, 2, 54, 81
4, 58364, Note_off_c, 2, 54, 0
4, 58368, Note_on_c, 2, 45, 87
4, 58368, Note_on_c, 2, 33, 87
4, 58748, Note_off_c, 2, 45, 0
4, 58748, Note_off_c, 2, 33, 0
4, 58752, Note_on_c, 2, 50, 85
4, 58752, Note_on_c, 2, 38, 85
4, 58940, Note_off_c, 2, 50, 0
4, 58940, Note_off_c, 2, 38, 0
4, 58944, Note_on_c, 2, 54, 84
4, 58944, Note_on_c, 2, 42, 84
4, 59132, Note_off_c, 2, 54, 0
4, 59132, Note_off_c, 2, 42, 0
4, 59136, Note_on_c, 2, 57, 82
4, 59136, Note_on_c, 2, 45, 82
4, 59324, Note_off_c, 2, 57, 0
4, 59324, Note_off_c, 2, 45, 0
4, 59328, Note_on_c, 2, 57, 81
4, 59328, Note_on_c, 2, 45, 81
4, 59516, Note_off_c, 2, 57, 0
4, 59516, Note_off_c, 2, 45, 0
4, 59520, Note_on_c, 2, 57, 81
4, 59520, Note_on_c, 2, 45, 81
4, 59708, Note_off_c, 2, 57, 0
4, 59708, Note_off_c, 2, 45, 0
4, 60864, Note_on_c, 2, 50, 60
4, 61052, Note_off_c, 2, 50, 0
4, 61056, Note_on_c, 2, 52, 60
4, 61244, Note_off_c, 2, 52, 0
4, 61248, Note_on_c, 2, 45, 60
4, 61436, Note_off_c, 2, 45, 0
4, 61440, Note_on_c, 2, 57, 60
4, 61440, Note_on_c, 2, 50, 60
4, 61628, Note_off_c, 2, 57, 0
4, 61628, Note_off_c, 2, 50, 0
4, 61824, Note_on_c, 2, 45, 60
4, 61824, Note_on_c, 2, 57, 60
4, 62012, Note_off_c, 2, 45, 0
4, 62108, Note_off_c, 2, 57, 0
4, 62112, Note_on_c, 2, 55, 60
4, 62204, Note_off_c, 2, 55, 0
4, 62208, Note_on_c, 2, 54, 60
4, 62208, Note_on_c, 2, 50, 60
4, 62396, Note_off_c, 2, 54, 0
4, 62396, Note_off_c, 2, 50, 0
4, 62400, Note_on_c, 2, 54, 60
4, 62588, Note_off_c, 2, 54, 0
4, 62592, Note_on_c, 2, 52, 60
4, 62780, Note_off_c, 2, 52, 0
4, 62784, Note_on_c, 2, 45, 60
4, 62972, Note_off_c, 2, 45, 0
4, 62976, Note_on_c, 2, 57, 60
4, 62976, Note_on_c, 2, 50, 60
4, 63164, Note_off_c, 2, 57, 0
4, 63164, Note_off_c, 2, 50, 0
4, 63360, Note_on_c, 2, 45, 60
4, 63360, Note_on_c, 2, 57, 60
4, 63548, Note_off_c, 2, 45, 0
4, 63644, Note_off_c, 2, 57, 0
4, 63648, Note_on_c, 2, 55, 60
4, 63740, Note_off_c, 2, 55, 0
4, 63744, Note_on_c, 2, 50, 81
4, 63744, Note_on_c, 2, 54, 81
4, 63932, Note_off_c, 2, 50, 0
4, 63932, Note_off_c, 2, 54, 0
4, 63936, Note_on_c, 2, 57, 81
4, 64124, Note_off_c, 2, 57, 0
4, 64128, Note_on_c, 2, 54, 81
4, 64316, Note_off_c, 2, 54, 0
4, 64320, Note_on_c, 2, 50, 81
4, 64508, Note_off_c, 2, 50, 0
4, 64512, Note_on_c, 2, 50, 81
4, 64700, Note_off_c, 2, 50, 0
4, 64704, Note_on_c, 2, 59, 81
4, 64892, Note_off_c, 2, 59, 0
4, 64896, Note_on_c, 2, 55, 81
4, 65084, Note_off_c, 2, 55, 0
4, 65088, Note_on_c, 2, 50, 81
4, 65276, Note_off_c, 2, 50, 0
4, 65280, Note_on_c, 2, 50, 81
4, 65280, Note_on_c, 2, 62, 81
4, 65324, Note_off_c, 2, 62, 0
4, 65328, Note_on_c, 2, 61, 81
4, 65372, Note_off_c, 2, 61, 0
4, 65376, Note_on_c, 2, 62, 81
4, 65420, Note_off_c, 2, 62, 0
4, 65424, Note_on_c, 2, 64, 81
4, 65468, Note_off_c, 2, 50, 0
4, 65468, Note_off_c, 2, 64, 0
4, 65472, Note_on_c, 2, 57, 81
4, 65660, Note_off_c, 2, 57, 0
4, 65664, Note_on_c, 2, 54, 81
4, 65852, Note_off_c, 2, 54, 0
4, 65856, Note_on_c, 2, 50, 81
4, 66044, Note_off_c, 2, 50, 0
4, 66048, Note_on_c, 2, 45, 81
4, 66048, Note_on_c, 2, 57, 81
4, 66236, Note_off_c, 2, 45, 0
4, 66240, Note_on_c, 2, 45, 81
4, 66428, Note_off_c, 2, 45, 0
4, 66432, Note_on_c, 2, 45, 81
4, 66620, Note_off_c, 2, 45, 0
4, 66624, Note_on_c, 2, 45, 81
4, 66812, Note_off_c, 2, 57, 0
4, 66812, Note_off_c, 2, 45, 0
4, 66816, Note_on_c, 2, 45, 60
4, 66816, Note_on_c, 2, 57, 60
4, 67004, Note_off_c, 2, 45, 0
4, 67008, Note_on_c, 2, 45, 60
4, 67196, Note_off_c, 2, 45, 0
4, 67200, Note_on_c, 2, 45, 60
4, 67388, Note_off_c, 2, 45, 0
4, 67392, Note_on_c, 2, 45, 60
4, 67580, Note_off_c, 2, 57, 0
4, 67580, Note_off_c, 2, 45, 0
4, 67584, Note_on_c, 2, 61, 60
4, 67584, Note_on_c, 2, 45, 60
4, 67628, Note_off_c, 2, 61, 0
4, 67632, Note_on_c, 2, 59, 60
4, 67676, Note_off_c, 2, 59, 0
4, 67680, Note_on_c, 2, 61, 60
4, 67724, Note_off_c, 2, 61, 0
4, 67728, Note_on_c, 2, 57, 60
4, 67772, Note_off_c, 2, 57, 0
4, 67776, Note_on_c, 2, 62, 60
4, 67820, Note_off_c, 2, 62, 0
4, 67824, Note_on_c, 2, 64, 60
4, 67868, Note_off_c, 2, 64, 0
4, 67872, Note_on_c, 2, 65, 60
4, 67916, Note_off_c, 2, 65, 0
4, 67920, Note_on_c, 2, 62, 60
4, 67964, Note_off_c, 2, 62, 0
4, 67968, Note_on_c, 2, 61, 60
4, 68012, Note_off_c, 2, 61, 0
4, 68016, Note_on_c, 2, 59, 60
4, 68060, Note_off_c, 2, 59, 0
4, 68064, Note_on_c, 2, 61, 60
4, 68108, Note_off_c, 2, 61, 0
4, 68112, Note_on_c, 2, 57, 60
4, 68156, Note_off_c, 2, 57, 0
4, 68160, Note_on_c, 2, 62, 60
4, 68204, Note_off_c, 2, 62, 0
4, 68208, Note_on_c, 2, 64, 60
4, 68252, Note_off_c, 2, 64, 0
4, 68256, Note_on_c, 2, 65, 60
4, 68300, Note_off_c, 2, 65, 0
4, 68304, Note_on_c, 2, 62, 60
4, 68348, Note_off_c, 2, 45, 0
4, 68348, Note_off_c, 2, 62, 0
4, 68352, Note_on_c, 2, 61, 60
4, 68352, Note_on_c, 2, 45, 60
4, 68396, Note_off_c, 2, 61, 0
4, 68400, Note_on_c, 2, 59, 60
4, 68444, Note_off_c, 2, 59, 0
4, 68448, Note_on_c, 2, 61, 60
4, 68492, Note_off_c, 2, 61, 0
4, 68496, Note_on_c, 2, 57, 60
4, 68540, Note_off_c, 2, 57, 0
4, 68544, Note_on_c, 2, 62, 60
4, 68588, Note_off_c, 2, 62, 0
4, 68592, Note_on_c, 2, 64, 60
4, 68636, Note_off_c, 2, 64, 0
4, 68640, Note_on_c, 2, 65, 60
4, 68684, Note_off_c, 2, 65, 0
4, 68688, Note_on_c, 2, 62, 60
4, 68732, Note_off_c, 2, 45, 0
4, 68732, Note_off_c, 2, 62, 0
4, 68736, Note_on_c, 2, 61, 60
4, 68736, Note_on_c, 2, 45, 60
4, 68924, Note_off_c, 2, 61, 0
4, 68924, Note_off_c, 2, 45, 0
4, 69120, Note_on_c, 2, 62, 60
4, 69120, Note_on_c, 2, 50, 60
4, 69308, Note_off_c, 2, 50, 0
4, 69504, Note_on_c, 2, 50, 60
4, 69692, Note_off_c, 2, 50, 0
4, 69884, Note_off_c, 2, 62, 0
4, 69888, Note_on_c, 2, 57, 60
4, 69888, Note_on_c, 2, 52, 60
4, 70076, Note_off_c, 2, 52, 0
4, 70268, Note_off_c, 2, 57, 0
4, 70272, Note_on_c, 2, 61, 60
4, 70272, Note_on_c, 2, 52, 60
4, 70460, Note_off_c, 2, 52, 0
4, 70652, Note_off_c, 2, 61, 0
4, 70656, Note_on_c, 2, 45, 60
4, 70844, Note_off_c, 2, 45, 0
4, 71040, Note_on_c, 2, 43, 60
4, 71228, Note_off_c, 2, 43, 0
4, 71424, Note_on_c, 2, 42, 60
4, 71612, Note_off_c, 2, 42, 0
4, 72192, Note_on_c, 2, 55, 60
4, 72380, Note_off_c, 2, 55, 0
4, 72384, Note_on_c, 2, 55, 60
4, 72572, Note_off_c, 2, 55, 0
4, 72576, Note_on_c, 2, 55, 60
4, 72764, Note_off_c, 2, 55, 0
4, 72768, Note_on_c, 2, 55, 60
4, 72956, Note_off_c, 2, 55, 0
4, 72960, Note_on_c, 2, 57, 60
4, 73340, Note_off_c, 2, 57, 0
4, 73536, Note_on_c, 2, 57, 60
4, 73536, Note_on_c, 2, 55, 60
4, 73536, Note_on_c, 2, 49, 60
4, 73724, Note_off_c, 2, 57, 0
4, 73724, Note_off_c, 2, 55, 0
4, 73724, Note_off_c, 2, 49, 0
4, 73728, Note_on_c, 2, 57, 60
4, 73728, Note_on_c, 2, 54, 60
4, 73916, Note_off_c, 2, 57, 0
4, 73916, Note_off_c, 2, 54, 0
4, 73920, Note_on_c, 2, 57, 60
4, 73920, Note_on_c, 2, 52, 60
4, 73920, Note_on_c, 2, 45, 60
4, 74108, Note_off_c, 2, 57, 0
4, 74108, Note_off_c, 2, 52, 0
4, 74108, Note_off_c, 2, 45, 0
4, 74304, Note_on_c, 2, 57, 60
4, 74304, Note_on_c, 2, 55, 60
4, 74320, Note_on_c, 2, 49, 60
4, 74492, Note_off_c, 2, 57, 0
4, 74492, Note_off_c, 2, 55, 0
4, 74496, Note_on_c, 2, 57, 60
4, 74496, Note_on_c, 2, 54, 60
4, 74496, Note_on_c, 2, 50, 60
4, 74508, Note_off_c, 2, 49, 0
4, 74684, Note_off_c, 2, 57, 0
4, 74684, Note_off_c, 2, 54, 0
4, 74684, Note_off_c, 2, 50, 0
4, 74688, Note_on_c, 2, 57, 60
4, 74688, Note_on_c, 2, 52, 60
4, 74688, Note_on_c, 2, 45, 60
4, 74876, Note_off_c, 2, 57, 0
4, 74876, Note_off_c, 2, 52, 0
4, 74876, Note_off_c, 2, 45, 0
4, 75456, Note_on_c, 2, 64, 60
4, 75456, Note_on_c, 2, 55, 60
4, 75644, Note_off_c, 2, 64, 0
4, 75644, Note_off_c, 2, 55, 0
4, 75648, Note_on_c, 2, 57, 60
4, 75836, Note_off_c, 2, 57, 0
4, 75840, Note_on_c, 2, 57, 60
4, 76028, Note_off_c, 2, 57, 0
4, 76032, Note_on_c, 2, 57, 60
4, 76220, Note_off_c, 2, 57, 0
4, 76224, Note_on_c, 2, 50, 60
4, 76412, Note_off_c, 2, 50, 0
4, 76608, Note_on_c, 2, 57, 60
4, 76608, Note_on_c, 2, 52, 60
4, 76608, Note_on_c, 2, 45, 60
4, 76740, Note_off_c, 2, 57, 0
4, 76740, Note_off_c, 2, 52, 0
4, 76740, Note_off_c, 2, 45, 0
4, 76800, Note_on_c, 2, 57, 60
4, 76800, Note_on_c, 2, 54, 60
4, 76800, Note_on_c, 2, 50, 60
4, 76988, Note_off_c, 2, 57, 0
4, 76988, Note_off_c, 2, 54, 0
4, 76988, Note_off_c, 2, 50, 0
4, 76992, Note_on_c, 2, 57, 60
4, 76992, Note_on_c, 2, 55, 60
4, 76992, Note_on_c, 2, 49, 60
4, 77180, Note_off_c, 2, 57, 0
4, 77180, Note_off_c, 2, 55, 0
4, 77180, Note_off_c, 2, 49, 0
4, 77376, Note_on_c, 2, 67, 60
4, 77376, Note_on_c, 2, 64, 60
4, 77376, Note_on_c, 2, 57, 60
4, 77564, Note_off_c, 2, 67, 0
4, 77564, Note_off_c, 2, 64, 0
4, 77564, Note_off_c, 2, 57, 0
4, 77568, Note_on_c, 2, 66, 60
4, 77568, Note_on_c, 2, 62, 60
4, 77756, Note_off_c, 2, 66, 0
4, 77756, Note_off_c, 2, 62, 0
4, 77760, Note_on_c, 2, 69, 60
4, 77760, Note_on_c, 2, 67, 60
4, 77760, Note_on_c, 2, 61, 60
4, 77948, Note_off_c, 2, 69, 0
4, 77948, Note_off_c, 2, 67, 0
4, 77948, Note_off_c, 2, 61, 0
4, 79104, Note_on_c, 2, 63, 60
4, 79104, Note_on_c, 2, 57, 60
4, 79292, Note_off_c, 2, 63, 0
4, 79292, Note_off_c, 2, 57, 0
4, 79296, Note_on_c, 2, 64, 60
4, 79296, Note_on_c, 2, 55, 60
4, 79484, Note_off_c, 2, 64, 0
4, 79484, Note_off_c, 2, 55, 0
4, 79680, Note_on_c, 2, 55, 60
4, 79868, Note_off_c, 2, 55, 0
4, 79872, Note_on_c, 2, 62, 60
4, 79872, Note_on_c, 2, 54, 60
4, 80060, Note_off_c, 2, 62, 0
4, 80060, Note_off_c, 2, 54, 0
4, 80064, Note_on_c, 2, 66, 60
4, 80064, Note_on_c, 2, 59, 60
4, 80252, Note_off_c, 2, 66, 0
4, 80252, Note_off_c, 2, 59, 0
4, 80256, Note_on_c, 2, 67, 60
4, 80256, Note_on_c, 2, 55, 60
4, 80444, Note_off_c, 2, 67, 0
4, 80444, Note_off_c, 2, 55, 0
4, 80448, Note_on_c, 2, 57, 60
4, 80636, Note_off_c, 2, 57, 0
4, 80640, Note_on_c, 2, 54, 60
4, 80828, Note_off_c, 2, 54, 0
4, 80832, Note_on_c, 2, 54, 60
4, 81020, Note_off_c, 2, 54, 0
4, 81024, Note_on_c, 2, 54, 60
4, 81212, Note_off_c, 2, 54, 0
4, 81216, Note_on_c, 2, 54, 60
4, 81404, Note_off_c, 2, 54, 0
4, 81408, Note_on_c, 2, 54, 60
4, 81596, Note_off_c, 2, 54, 0
4, 81600, Note_on_c, 2, 54, 60
4, 81788, Note_off_c, 2, 54, 0
4, 81792, Note_on_c, 2, 54, 60
4, 81980, Note_off_c, 2, 54, 0
4, 81984, Note_on_c, 2, 54, 60
4, 82172, Note_off_c, 2, 54, 0
4, 82176, Note_on_c, 2, 55, 60
4, 82364, Note_off_c, 2, 55, 0
4, 82368, Note_on_c, 2, 58, 81
4, 82368, Note_on_c, 2, 46, 81
4, 82748, Note_off_c, 2, 58, 0
4, 82748, Note_off_c, 2, 46, 0
4, 82752, Note_on_c, 2, 57, 60
4, 82752, Note_on_c, 2, 52, 60
4, 82752, Note_on_c, 2, 45, 60
4, 82940, Note_off_c, 2, 57, 0
4, 82940, Note_off_c, 2, 52, 0
4, 82940, Note_off_c, 2, 45, 0
4, 82944, Note_on_c, 2, 45, 60
4, 83132, Note_off_c, 2, 45, 0
4, 83136, Note_on_c, 2, 45, 81
4, 83136, Note_on_c, 2, 33, 81
4, 83516, Note_off_c, 2, 45, 0
4, 83516, Note_off_c, 2, 33, 0
4, 83520, Note_on_c, 2, 44, 60
4, 83520, Note_on_c, 2, 32, 60
4, 83708, Note_off_c, 2, 44, 0
4, 83708, Note_off_c, 2, 32, 0
4, 83712, Note_on_c, 2, 50, 60
4, 83900, Note_off_c, 2, 50, 0
4, 83904, Note_on_c, 2, 50, 60
4, 84092, Note_off_c, 2, 50, 0
4, 84096, Note_on_c, 2, 50, 60
4, 84284, Note_off_c, 2, 50, 0
4, 84288, Note_on_c, 2, 53, 60
4, 84288, Note_on_c, 2, 44, 60
4, 84476, Note_off_c, 2, 53, 0
4, 84476, Note_off_c, 2, 44, 0
4, 84480, Note_on_c, 2, 54, 60
4, 84480, Note_on_c, 2, 45, 60
4, 84668, Note_off_c, 2, 54, 0
4, 84668, Note_off_c, 2, 45, 0
4, 84672, Note_on_c, 2, 50, 60
4, 84672, Note_on_c, 2, 46, 60
4, 84860, Note_off_c, 2, 50, 0
4, 84860, Note_off_c, 2, 46, 0
4, 84864, Note_on_c, 2, 54, 60
4, 84864, Note_on_c, 2, 45, 60
4, 85052, Note_off_c, 2, 54, 0
4, 85052, Note_off_c, 2, 45, 0
4, 85056, Note_on_c, 2, 53, 60
4, 85056, Note_on_c, 2, 44, 60
4, 85244, Note_off_c, 2, 53, 0
4, 85244, Note_off_c, 2, 44, 0
4, 85248, Note_on_c, 2, 54, 60
4, 85248, Note_on_c, 2, 45, 60
4, 85436, Note_off_c, 2, 54, 0
4, 85436, Note_off_c, 2, 45, 0
4, 85440, Note_on_c, 2, 59, 81
4, 85440, Note_on_c, 2, 47, 81
4, 85628, Note_off_c, 2, 59, 0
4, 85628, Note_off_c, 2, 47, 0
4, 85632, Note_on_c, 2, 57, 81
4, 85632, Note_on_c, 2, 45, 81
4, 85632, Note_on_c, 2, 50, 81
4, 85820, Note_off_c, 2, 57, 0
4, 85820, Note_off_c, 2, 45, 0
4, 85820, Note_off_c, 2, 50, 0
4, 85824, Note_on_c, 2, 56, 81
4, 85824, Note_on_c, 2, 50, 81
4, 85824, Note_on_c, 2, 44, 81
4, 86012, Note_off_c, 2, 56, 0
4, 86012, Note_off_c, 2, 50, 0
4, 86012, Note_off_c, 2, 44, 0
4, 86016, Note_on_c, 2, 57, 81
4, 86016, Note_on_c, 2, 50, 81
4, 86016, Note_on_c, 2, 45, 81
4, 86396, Note_off_c, 2, 57, 0
4, 86396, Note_off_c, 2, 50, 0
4, 86396, Note_off_c, 2, 45, 0
4, 87552, Note_on_c, 2, 50, 81
4, 87552, Note_on_c, 2, 38, 81
4, 87740, Note_off_c, 2, 50, 0
4, 87740, Note_off_c, 2, 38, 0
4, 87744, Note_on_c, 2, 57, 81
4, 87932, Note_off_c, 2, 57, 0
4, 87936, Note_on_c, 2, 54, 81
4, 88124, Note_off_c, 2, 54, 0
4, 88128, Note_on_c, 2, 50, 81
4, 88316, Note_off_c, 2, 50, 0
4, 88320, Note_on_c, 2, 55, 81
4, 88508, Note_off_c, 2, 55, 0
4, 88512, Note_on_c, 2, 62, 81
4, 88700, Note_off_c, 2, 62, 0
4, 88704, Note_on_c, 2, 59, 81
4, 88892, Note_off_c, 2, 59, 0
4, 88896, Note_on_c, 2, 65, 81
4, 88896, Note_on_c, 2, 56, 81
4, 89084, Note_off_c, 2, 65, 0
4, 89084, Note_off_c, 2, 56, 0
4, 89088, Note_on_c, 2, 66, 81
4, 89088, Note_on_c, 2, 62, 81
4, 89088, Note_on_c, 2, 57, 81
4, 89276, Note_off_c, 2, 66, 0
4, 89276, Note_off_c, 2, 62, 0
4, 89276, Note_off_c, 2, 57, 0
4, 89280, Note_on_c, 2, 57, 81
4, 89468, Note_off_c, 2, 57, 0
4, 89472, Note_on_c, 2, 57, 81
4, 89660, Note_off_c, 2, 57, 0
4, 89664, Note_on_c, 2, 57, 81
4, 89756, Note_off_c, 2, 57, 0
4, 89760, Note_on_c, 2, 67, 81
4, 89852, Note_off_c, 2, 67, 0
4, 89856, Note_on_c, 2, 62, 81
4, 89856, Note_on_c, 2, 66, 81
4, 90044, Note_off_c, 2, 62, 0
4, 90044, Note_off_c, 2, 66, 0
4, 90624, Note_on_c, 2, 45, 87
4, 90624, Note_on_c, 2, 33, 87
4, 91004, Note_off_c, 2, 45, 0
4, 91004, Note_off_c, 2, 33, 0
4, 91008, Note_on_c, 2, 50, 85
4, 91008, Note_on_c, 2, 38, 85
4, 91196, Note_off_c, 2, 50, 0
4, 91196, Note_off_c, 2, 38, 0
4, 91200, Note_on_c, 2, 42, 84
4, 91200, Note_on_c, 2, 54, 84
4, 91388, Note_off_c, 2, 42, 0
4, 91388, Note_off_c, 2, 54, 0
4, 91392, Note_on_c, 2, 57, 82
4, 91392, Note_on_c, 2, 45, 82
4, 91580, Note_off_c, 2, 57, 0
4, 91580, Note_off_c, 2, 45, 0
4, 91584, Note_on_c, 2, 57, 81
4, 91584, Note_on_c, 2, 45, 81
4, 91772, Note_off_c, 2, 57, 0
4, 91772, Note_off_c, 2, 45, 0
4, 91776, Note_on_c, 2, 57, 81
4, 91776, Note_on_c, 2, 45, 81
4, 91964, Note_off_c, 2, 57, 0
4, 91964, Note_off_c, 2, 45, 0
4, 93120, Note_on_c, 2, 50, 60
4, 93120, Note_on_c, 2, 38, 60
4, 93308, Note_off_c, 2, 50, 0
4, 93308, Note_off_c, 2, 38, 0
4, 93312, Note_on_c, 2, 52, 60
4, 93312, Note_on_c, 2, 40, 60
4, 93500, Note_off_c, 2, 52, 0
4, 93500, Note_off_c, 2, 40, 0
4, 93504, Note_on_c, 2, 45, 60
4, 93504, Note_on_c, 2, 33, 60
4, 93692, Note_off_c, 2, 45, 0
4, 93692, Note_off_c, 2, 33, 0
4, 94272, Note_on_c, 2, 57, 60
4, 94272, Note_on_c, 2, 45, 60
4, 94460, Note_off_c, 2, 57, 0
4, 94460, Note_off_c, 2, 45, 0
4, 94464, Note_on_c, 2, 54, 60
4, 94464, Note_on_c, 2, 42, 60
4, 94652, Note_off_c, 2, 54, 0
4, 94652, Note_off_c, 2, 42, 0
4, 94656, Note_on_c, 2, 50, 60
4, 94656, Note_on_c, 2, 38, 60
4, 94844, Note_off_c, 2, 50, 0
4, 94844, Note_off_c, 2, 38, 0
4, 94848, Note_on_c, 2, 52, 60
4, 94848, Note_on_c, 2, 40, 60
4, 95036, Note_off_c, 2, 52, 0
4, 95036, Note_off_c, 2, 40, 0
4, 95040, Note_on_c, 2, 45, 60
4, 95040, Note_on_c, 2, 33, 60
4, 95228, Note_off_c, 2, 45, 0
4, 95228, Note_off_c, 2, 33, 0
4, 95232, Note_on_c, 2, 50, 60
4, 95232, Note_on_c, 2, 38, 60
4, 95420, Note_off_c, 2, 50, 0
4, 95420, Note_off_c, 2, 38, 0
4, 95616, Note_on_c, 2, 45, 60
4, 95616, Note_on_c, 2, 33, 60
4, 95804, Note_off_c, 2, 45, 0
4, 95804, Note_off_c, 2, 33, 0
4, 96000, Note_on_c, 2, 38, 87
4, 96188, Note_off_c, 2, 38, 0
4, 96192, Note_on_c, 2, 45, 60
4, 96192, Note_on_c, 2, 38, 60
4, 96380, Note_off_c, 2, 45, 0
4, 96380, Note_off_c, 2, 38, 0
4, 96384, Note_on_c, 2, 45, 60
4, 96384, Note_on_c, 2, 38, 60
4, 96572, Note_off_c, 2, 45, 0
4, 96572, Note_off_c, 2, 38, 0
4, 96572, End_track
5, 0, Start_track
5, 0, Title_t, "Midi by"
5, 0, Key_signature, 2, "major"
5, 0, End_track
6, 0, Start_track
6, 0, Title_t, "B Fisher"
6, 0, Key_signature, 2, "major"
6, 0, End_track
7, 0, Start_track
7, 0, Key_signature, 2, "major"
7, 0, End_track
8, 0, Start_track
8, 0, Key_signature, 2, "major"
8, 0, End_track
9, 0, Start_track
9, 0, Key_signature, 2, "major"
9, 0, End_track
10, 0, Start_track
10, 0, Key_signature, 2, "major"
10, 0, End_track
11, 0, Start_track
11, 0, Key_signature, 2, "major"
11, 0, End_track
12, 0, Start_track
12, 0, Key_signature, 2, "major"
12, 0, End_track
13, 0, Start_track
13, 0, Key_signature, 2, "major"
13, 0, End_track
14, 0, Start_track
14, 0, Key_signature, 2, "major"
14, 0, End_track
15, 0, Start_track
15, 0, Key_signature, 2, "major"
15, 0, End_track
16, 0, Start_track
16, 0, Key_signature, 2, "major"
16, 0, End_track
17, 0, Start_track
17, 0, Key_signature, 2, "major"
17, 0, End_track
0, 0, End_of_file
