0, 0, Header, 1, 5, 384
1, 0, Start_track
1, 0, Time_signature, 4, 2, 96, 8
1, 0, Sequencer_specific, 3, 0, 0, 65
1, 0, Sequencer_specific, 5, 0, 0, 119, 14, 0
1, 0, Tempo, 500000
1, 333312, Tempo, 535714
1, 334848, Tempo, 600000
1, 335616, Tempo, 750000
1, 336384, Tempo, 1363636
1, 337920, Tempo, 500000
1, 347904, Tempo, 2400000
1, 348672, Tempo, 500000
1, 352512, Tempo, 1000000
1, 353076, Tempo, 750000
1, 353268, Tempo, 500000
1, 365568, Tempo, 750000
1, 367104, Tempo, 1200000
1, 367872, Tempo, 600000
1, 369792, Tempo, 2000000
1, 371712, Tempo, 500000
1, 396672, Tempo, 545454
1, 396672, End_track
2, 0, Start_track
2, 0, Title_t, "Mozart Piano Concerto"
2, 0, Control_c, 0, 0, 0
2, 0, Program_c, 0, 0
2, 0, Control_c, 0, 7, 127
2, 0, Control_c, 0, 10, 66
2, 0, Control_c, 0, 91, 63
2, 0, Control_c, 0, 93, 55
2, 0, Key_signature, 2, "major"
2, 0, Control_c, 0, 121, 0
2, 432, Control_c, 0, 10, 63
2, 480, Control_c, 0, 91, 63
2, 576, Control_c, 0, 93, 35
2, 672, Program_c, 0, 0
2, 50688, Note_on_c, 0, 74, 99
2, 50688, Note_on_c, 0, 69, 99
2, 50688, Note_on_c, 0, 66, 99
2, 51260, Note_off_c, 0, 74, 0
2, 51260, Note_off_c, 0, 69, 0
2, 51260, Note_off_c, 0, 66, 0
2, 51264, Note_on_c, 0, 76, 99
2, 51304, Note_off_c, 0, 76, 0
2, 51312, Note_on_c, 0, 74, 99
2, 51352, Note_off_c, 0, 74, 0
2, 51360, Note_on_c, 0, 73, 99
2, 51400, Note_off_c, 0, 73, 0
2, 51408, Note_on_c, 0, 74, 99
2, 51448, Note_off_c, 0, 74, 0
2, 51456, Note_on_c, 0, 76, 99
2, 51548, Note_off_c, 0, 76, 0
2, 51648, Note_on_c, 0, 74, 99
2, 51740, Note_off_c, 0, 74, 0
2, 51840, Note_on_c, 0, 76, 99
2, 51932, Note_off_c, 0, 76, 0
2, 52032, Note_on_c, 0, 73, 99
2, 52124, Note_off_c, 0, 73, 0
2, 52224, Note_on_c, 0, 74, 99
2, 52224, Note_on_c, 0, 69, 99
2, 52224, Note_on_c, 0, 66, 99
2, 52796, Note_off_c, 0, 74, 0
2, 52796, Note_off_c, 0, 69, 0
2, 52796, Note_off_c, 0, 66, 0
2, 52800, Note_on_c, 0, 79, 99
2, 52840, Note_off_c, 0, 79, 0
2, 52848, Note_on_c, 0, 78, 99
2, 52888, Note_off_c, 0, 78, 0
2, 52896, Note_on_c, 0, 76, 99
2, 52936, Note_off_c, 0, 76, 0
2, 52944, Note_on_c, 0, 78, 99
2, 52984, Note_off_c, 0, 78, 0
2, 52992, Note_on_c, 0, 79, 99
2, 53084, Note_off_c, 0, 79, 0
2, 53184, Note_on_c, 0, 78, 99
2, 53276, Note_off_c, 0, 78, 0
2, 53376, Note_on_c, 0, 79, 99
2, 53468, Note_off_c, 0, 79, 0
2, 53568, Note_on_c, 0, 76, 99
2, 53660, Note_off_c, 0, 76, 0
2, 53760, Note_on_c, 0, 78, 99
2, 53760, Note_on_c, 0, 74, 99
2, 53760, Note_on_c, 0, 69, 99
2, 54332, Note_off_c, 0, 78, 0
2, 54332, Note_off_c, 0, 74, 0
2, 54332, Note_off_c, 0, 69, 0
2, 54336, Note_on_c, 0, 83, 99
2, 54376, Note_off_c, 0, 83, 0
2, 54384, Note_on_c, 0, 81, 99
2, 54424, Note_off_c, 0, 81, 0
2, 54432, Note_on_c, 0, 79, 99
2, 54472, Note_off_c, 0, 79, 0
2, 54480, Note_on_c, 0, 81, 99
2, 54520, Note_off_c, 0, 81, 0
2, 54528, Note_on_c, 0, 83, 99
2, 54716, Note_off_c, 0, 83, 0
2, 54720, Note_on_c, 0, 81, 99
2, 54908, Note_off_c, 0, 81, 0
2, 54912, Note_on_c, 0, 83, 99
2, 55100, Note_off_c, 0, 83, 0
2, 55104, Note_on_c, 0, 85, 99
2, 55292, Note_off_c, 0, 85, 0
2, 55296, Note_on_c, 0, 86, 102
2, 55676, Note_off_c, 0, 86, 0
2, 55680, Note_on_c, 0, 74, 99
2, 55680, Note_on_c, 0, 69, 99
2, 55680, Note_on_c, 0, 66, 99
2, 56060, Note_off_c, 0, 74, 0
2, 56060, Note_off_c, 0, 69, 0
2, 56060, Note_off_c, 0, 66, 0
2, 56256, Note_on_c, 0, 74, 88
2, 56256, Note_on_c, 0, 69, 88
2, 56348, Note_off_c, 0, 74, 0
2, 56348, Note_off_c, 0, 69, 0
2, 56448, Note_on_c, 0, 78, 88
2, 56448, Note_on_c, 0, 74, 88
2, 56540, Note_off_c, 0, 78, 0
2, 56540, Note_off_c, 0, 74, 0
2, 56640, Note_on_c, 0, 81, 88
2, 56640, Note_on_c, 0, 78, 88
2, 56732, Note_off_c, 0, 81, 0
2, 56732, Note_off_c, 0, 78, 0
2, 56832, Note_on_c, 0, 79, 88
2, 56832, Note_on_c, 0, 83, 88
2, 57116, Note_off_c, 0, 79, 0
2, 57116, Note_off_c, 0, 83, 0
2, 57120, Note_on_c, 0, 74, 88
2, 57120, Note_on_c, 0, 79, 88
2, 57212, Note_off_c, 0, 74, 0
2, 57212, Note_off_c, 0, 79, 0
2, 57216, Note_on_c, 0, 79, 88
2, 57216, Note_on_c, 0, 83, 88
2, 57596, Note_off_c, 0, 79, 0
2, 57596, Note_off_c, 0, 83, 0
2, 57792, Note_on_c, 0, 71, 88
2, 57792, Note_on_c, 0, 74, 88
2, 57884, Note_off_c, 0, 71, 0
2, 57884, Note_off_c, 0, 74, 0
2, 57984, Note_on_c, 0, 74, 88
2, 57984, Note_on_c, 0, 79, 88
2, 58076, Note_off_c, 0, 74, 0
2, 58076, Note_off_c, 0, 79, 0
2, 58176, Note_on_c, 0, 79, 88
2, 58176, Note_on_c, 0, 83, 88
2, 58268, Note_off_c, 0, 79, 0
2, 58268, Note_off_c, 0, 83, 0
2, 58368, Note_on_c, 0, 81, 88
2, 58368, Note_on_c, 0, 78, 88
2, 58652, Note_off_c, 0, 81, 0
2, 58652, Note_off_c, 0, 78, 0
2, 58656, Note_on_c, 0, 78, 88
2, 58656, Note_on_c, 0, 74, 88
2, 58748, Note_off_c, 0, 78, 0
2, 58748, Note_off_c, 0, 74, 0
2, 58752, Note_on_c, 0, 81, 88
2, 58752, Note_on_c, 0, 78, 88
2, 59132, Note_off_c, 0, 81, 0
2, 59132, Note_off_c, 0, 78, 0
2, 59328, Note_on_c, 0, 74, 81
2, 59328, Note_on_c, 0, 69, 81
2, 59420, Note_off_c, 0, 74, 0
2, 59420, Note_off_c, 0, 69, 0
2, 59520, Note_on_c, 0, 78, 75
2, 59520, Note_on_c, 0, 74, 75
2, 59612, Note_off_c, 0, 78, 0
2, 59612, Note_off_c, 0, 74, 0
2, 59712, Note_on_c, 0, 78, 71
2, 59712, Note_on_c, 0, 81, 71
2, 59804, Note_off_c, 0, 78, 0
2, 59804, Note_off_c, 0, 81, 0
2, 59904, Note_on_c, 0, 81, 70
2, 59996, Note_off_c, 0, 81, 0
2, 60000, Note_on_c, 0, 79, 62
2, 60284, Note_off_c, 0, 79, 0
2, 60288, Note_on_c, 0, 78, 70
2, 60380, Note_off_c, 0, 78, 0
2, 60384, Note_on_c, 0, 76, 62
2, 60668, Note_off_c, 0, 76, 0
2, 60672, Note_on_c, 0, 74, 70
2, 60752, Note_on_c, 0, 73, 62
2, 60764, Note_off_c, 0, 74, 0
2, 61036, Note_off_c, 0, 73, 0
2, 61056, Note_on_c, 0, 83, 70
2, 61148, Note_off_c, 0, 83, 0
2, 61152, Note_on_c, 0, 81, 62
2, 61436, Note_off_c, 0, 81, 0
2, 61440, Note_on_c, 0, 79, 70
2, 61532, Note_off_c, 0, 79, 0
2, 61536, Note_on_c, 0, 78, 62
2, 61820, Note_off_c, 0, 78, 0
2, 61824, Note_on_c, 0, 76, 70
2, 61916, Note_off_c, 0, 76, 0
2, 61920, Note_on_c, 0, 74, 62
2, 62204, Note_off_c, 0, 74, 0
2, 62208, Note_on_c, 0, 73, 70
2, 62300, Note_off_c, 0, 73, 0
2, 62304, Note_on_c, 0, 74, 62
2, 62588, Note_off_c, 0, 74, 0
2, 62592, Note_on_c, 0, 76, 70
2, 62684, Note_off_c, 0, 76, 0
2, 62688, Note_on_c, 0, 74, 62
2, 62972, Note_off_c, 0, 74, 0
2, 62976, Note_on_c, 0, 75, 70
2, 63068, Note_off_c, 0, 75, 0
2, 63072, Note_on_c, 0, 76, 62
2, 63360, Note_on_c, 0, 79, 70
2, 63360, Note_on_c, 0, 71, 70
2, 63452, Note_off_c, 0, 79, 0
2, 63452, Note_off_c, 0, 71, 0
2, 63456, Note_on_c, 0, 67, 62
2, 63456, Note_on_c, 0, 76, 62
2, 63644, Note_off_c, 0, 76, 0
2, 63744, Note_on_c, 0, 67, 66
2, 63744, Note_on_c, 0, 76, 66
2, 63804, Note_off_c, 0, 76, 0
2, 63808, Note_on_c, 0, 78, 70
2, 63868, Note_off_c, 0, 78, 0
2, 63872, Note_on_c, 0, 76, 62
2, 63932, Note_off_c, 0, 67, 0
2, 63932, Note_off_c, 0, 76, 0
2, 63936, Note_on_c, 0, 66, 66
2, 63936, Note_on_c, 0, 74, 66
2, 64028, Note_off_c, 0, 67, 0
2, 64028, Note_off_c, 0, 76, 0
2, 64124, Note_off_c, 0, 66, 0
2, 64124, Note_off_c, 0, 74, 0
2, 64128, Note_on_c, 0, 66, 66
2, 64128, Note_on_c, 0, 74, 70
2, 64188, Note_off_c, 0, 74, 0
2, 64192, Note_on_c, 0, 76, 70
2, 64252, Note_off_c, 0, 76, 0
2, 64256, Note_on_c, 0, 74, 70
2, 64316, Note_off_c, 0, 66, 0
2, 64316, Note_off_c, 0, 74, 0
2, 64320, Note_on_c, 0, 64, 62
2, 64320, Note_on_c, 0, 73, 62
2, 64508, Note_off_c, 0, 64, 0
2, 64508, Note_off_c, 0, 73, 64
2, 64512, Note_on_c, 0, 74, 66
2, 64512, Note_on_c, 0, 64, 66
2, 64892, Note_off_c, 0, 74, 0
2, 64892, Note_off_c, 0, 64, 0
2, 65856, Note_on_c, 0, 81, 92
2, 66044, Note_off_c, 0, 81, 0
2, 66048, Note_on_c, 0, 79, 88
2, 66140, Note_off_c, 0, 79, 0
2, 66144, Note_on_c, 0, 81, 88
2, 66236, Note_off_c, 0, 81, 0
2, 66240, Note_on_c, 0, 83, 88
2, 66332, Note_off_c, 0, 83, 0
2, 66336, Note_on_c, 0, 79, 88
2, 66428, Note_off_c, 0, 79, 0
2, 66432, Note_on_c, 0, 76, 86
2, 66524, Note_off_c, 0, 76, 0
2, 66528, Note_on_c, 0, 78, 84
2, 66620, Note_off_c, 0, 78, 0
2, 66624, Note_on_c, 0, 79, 81
2, 66716, Note_off_c, 0, 79, 0
2, 66720, Note_on_c, 0, 76, 79
2, 66812, Note_off_c, 0, 76, 0
2, 66816, Note_on_c, 0, 73, 75
2, 66908, Note_off_c, 0, 73, 0
2, 66912, Note_on_c, 0, 74, 72
2, 67004, Note_off_c, 0, 74, 0
2, 67008, Note_on_c, 0, 76, 70
2, 67100, Note_off_c, 0, 76, 0
2, 67104, Note_on_c, 0, 73, 67
2, 67196, Note_off_c, 0, 73, 0
2, 67200, Note_on_c, 0, 69, 66
2, 67292, Note_off_c, 0, 69, 0
2, 67296, Note_on_c, 0, 73, 71
2, 67388, Note_off_c, 0, 73, 0
2, 67392, Note_on_c, 0, 76, 78
2, 67484, Note_off_c, 0, 76, 0
2, 67488, Note_on_c, 0, 79, 83
2, 67580, Note_off_c, 0, 79, 0
2, 67584, Note_on_c, 0, 78, 88
2, 67676, Note_off_c, 0, 78, 0
2, 67680, Note_on_c, 0, 79, 85
2, 67772, Note_off_c, 0, 79, 0
2, 67776, Note_on_c, 0, 81, 82
2, 67868, Note_off_c, 0, 81, 0
2, 67872, Note_on_c, 0, 78, 79
2, 67964, Note_off_c, 0, 78, 0
2, 67968, Note_on_c, 0, 73, 75
2, 68060, Note_off_c, 0, 73, 0
2, 68064, Note_on_c, 0, 74, 73
2, 68156, Note_off_c, 0, 74, 0
2, 68160, Note_on_c, 0, 76, 70
2, 68252, Note_off_c, 0, 76, 0
2, 68256, Note_on_c, 0, 73, 67
2, 68348, Note_off_c, 0, 73, 0
2, 68352, Note_on_c, 0, 74, 66
2, 68444, Note_off_c, 0, 74, 0
2, 68448, Note_on_c, 0, 76, 68
2, 68540, Note_off_c, 0, 76, 0
2, 68544, Note_on_c, 0, 78, 71
2, 68636, Note_off_c, 0, 78, 0
2, 68640, Note_on_c, 0, 79, 74
2, 68732, Note_off_c, 0, 79, 0
2, 68736, Note_on_c, 0, 81, 78
2, 68828, Note_off_c, 0, 81, 0
2, 68832, Note_on_c, 0, 83, 80
2, 68924, Note_off_c, 0, 83, 0
2, 68928, Note_on_c, 0, 85, 83
2, 69020, Note_off_c, 0, 85, 0
2, 69024, Note_on_c, 0, 86, 86
2, 69116, Note_off_c, 0, 86, 0
2, 69120, Note_on_c, 0, 76, 88
2, 69212, Note_off_c, 0, 76, 0
2, 69216, Note_on_c, 0, 78, 88
2, 69308, Note_off_c, 0, 78, 0
2, 69312, Note_on_c, 0, 76, 88
2, 69404, Note_off_c, 0, 76, 0
2, 69408, Note_on_c, 0, 75, 88
2, 69500, Note_off_c, 0, 75, 0
2, 69504, Note_on_c, 0, 76, 88
2, 69596, Note_off_c, 0, 76, 0
2, 69600, Note_on_c, 0, 83, 88
2, 69692, Note_off_c, 0, 83, 0
2, 69696, Note_on_c, 0, 81, 88
2, 69788, Note_off_c, 0, 81, 0
2, 69792, Note_on_c, 0, 79, 88
2, 69884, Note_off_c, 0, 79, 0
2, 69888, Note_on_c, 0, 78, 94
2, 69980, Note_off_c, 0, 78, 0
2, 69984, Note_on_c, 0, 81, 94
2, 70076, Note_off_c, 0, 81, 0
2, 70080, Note_on_c, 0, 74, 90
2, 70172, Note_off_c, 0, 74, 0
2, 70176, Note_on_c, 0, 78, 86
2, 70268, Note_off_c, 0, 78, 0
2, 70272, Note_on_c, 0, 76, 82
2, 70364, Note_off_c, 0, 76, 0
2, 70368, Note_on_c, 0, 79, 77
2, 70460, Note_off_c, 0, 79, 0
2, 70464, Note_on_c, 0, 73, 73
2, 70556, Note_off_c, 0, 73, 0
2, 70560, Note_on_c, 0, 76, 69
2, 70652, Note_off_c, 0, 76, 0
2, 70656, Note_on_c, 0, 76, 68
2, 71036, Note_off_c, 0, 76, 64
2, 73728, Note_on_c, 0, 62, 99
2, 74492, Note_off_c, 0, 62, 0
2, 74496, Note_on_c, 0, 66, 88
2, 74876, Note_off_c, 0, 66, 0
2, 74880, Note_on_c, 0, 69, 77
2, 75260, Note_off_c, 0, 69, 0
2, 75264, Note_on_c, 0, 74, 66
2, 75356, Note_off_c, 0, 74, 0
2, 75360, Note_on_c, 0, 69, 66
2, 75452, Note_off_c, 0, 69, 0
2, 75456, Note_on_c, 0, 68, 66
2, 75548, Note_off_c, 0, 68, 0
2, 75552, Note_on_c, 0, 69, 66
2, 75644, Note_off_c, 0, 69, 0
2, 75648, Note_on_c, 0, 74, 66
2, 75740, Note_off_c, 0, 74, 0
2, 75744, Note_on_c, 0, 69, 66
2, 75836, Note_off_c, 0, 69, 0
2, 75840, Note_on_c, 0, 78, 66
2, 75932, Note_off_c, 0, 78, 0
2, 75936, Note_on_c, 0, 74, 66
2, 76028, Note_off_c, 0, 74, 0
2, 76032, Note_on_c, 0, 81, 66
2, 76124, Note_off_c, 0, 81, 0
2, 76128, Note_on_c, 0, 74, 66
2, 76220, Note_off_c, 0, 74, 0
2, 76224, Note_on_c, 0, 73, 66
2, 76316, Note_off_c, 0, 73, 0
2, 76320, Note_on_c, 0, 74, 66
2, 76412, Note_off_c, 0, 74, 0
2, 76416, Note_on_c, 0, 78, 68
2, 76508, Note_off_c, 0, 78, 0
2, 76512, Note_on_c, 0, 74, 73
2, 76604, Note_off_c, 0, 74, 0
2, 76608, Note_on_c, 0, 81, 79
2, 76700, Note_off_c, 0, 81, 0
2, 76704, Note_on_c, 0, 78, 84
2, 76796, Note_off_c, 0, 78, 0
2, 76800, Note_on_c, 0, 86, 88
2, 76892, Note_off_c, 0, 86, 0
2, 76896, Note_on_c, 0, 81, 82
2, 76988, Note_off_c, 0, 81, 0
2, 76992, Note_on_c, 0, 78, 75
2, 77084, Note_off_c, 0, 78, 0
2, 77088, Note_on_c, 0, 74, 70
2, 77180, Note_off_c, 0, 74, 0
2, 77184, Note_on_c, 0, 81, 72
2, 77276, Note_off_c, 0, 81, 0
2, 77280, Note_on_c, 0, 78, 68
2, 77372, Note_off_c, 0, 78, 0
2, 77376, Note_on_c, 0, 74, 64
2, 77468, Note_off_c, 0, 74, 0
2, 77472, Note_on_c, 0, 69, 62
2, 77564, Note_off_c, 0, 69, 0
2, 77568, Note_on_c, 0, 78, 66
2, 77660, Note_off_c, 0, 78, 0
2, 77664, Note_on_c, 0, 74, 64
2, 77756, Note_off_c, 0, 74, 0
2, 77760, Note_on_c, 0, 69, 62
2, 77852, Note_off_c, 0, 69, 0
2, 77856, Note_on_c, 0, 66, 60
2, 77948, Note_off_c, 0, 66, 0
2, 77952, Note_on_c, 0, 74, 64
2, 78044, Note_off_c, 0, 74, 0
2, 78048, Note_on_c, 0, 69, 62
2, 78140, Note_off_c, 0, 69, 0
2, 78144, Note_on_c, 0, 66, 60
2, 78236, Note_off_c, 0, 66, 0
2, 78240, Note_on_c, 0, 62, 58
2, 78332, Note_off_c, 0, 62, 0
2, 78336, Note_on_c, 0, 69, 66
2, 78336, Note_on_c, 0, 64, 66
2, 78336, Note_on_c, 0, 61, 66
2, 78716, Note_off_c, 0, 69, 0
2, 78716, Note_off_c, 0, 64, 0
2, 78716, Note_off_c, 0, 61, 0
2, 79872, Note_on_c, 0, 64, 99
2, 80636, Note_off_c, 0, 64, 0
2, 80640, Note_on_c, 0, 69, 88
2, 81020, Note_off_c, 0, 69, 0
2, 81024, Note_on_c, 0, 73, 77
2, 81404, Note_off_c, 0, 73, 0
2, 81408, Note_on_c, 0, 76, 66
2, 81500, Note_off_c, 0, 76, 0
2, 81504, Note_on_c, 0, 69, 66
2, 81596, Note_off_c, 0, 69, 0
2, 81600, Note_on_c, 0, 68, 66
2, 81692, Note_off_c, 0, 68, 0
2, 81696, Note_on_c, 0, 69, 66
2, 81788, Note_off_c, 0, 69, 0
2, 81792, Note_on_c, 0, 73, 66
2, 81884, Note_off_c, 0, 73, 0
2, 81888, Note_on_c, 0, 69, 66
2, 81980, Note_off_c, 0, 69, 0
2, 81984, Note_on_c, 0, 76, 66
2, 82076, Note_off_c, 0, 76, 0
2, 82080, Note_on_c, 0, 73, 66
2, 82172, Note_off_c, 0, 73, 0
2, 82176, Note_on_c, 0, 81, 68
2, 82268, Note_off_c, 0, 81, 0
2, 82272, Note_on_c, 0, 73, 70
2, 82364, Note_off_c, 0, 73, 0
2, 82368, Note_on_c, 0, 72, 73
2, 82460, Note_off_c, 0, 72, 0
2, 82464, Note_on_c, 0, 73, 79
2, 82556, Note_off_c, 0, 73, 0
2, 82560, Note_on_c, 0, 76, 84
2, 82652, Note_off_c, 0, 76, 0
2, 82656, Note_on_c, 0, 73, 86
2, 82748, Note_off_c, 0, 73, 0
2, 82752, Note_on_c, 0, 81, 91
2, 82844, Note_off_c, 0, 81, 0
2, 82848, Note_on_c, 0, 76, 94
2, 82940, Note_off_c, 0, 76, 0
2, 82944, Note_on_c, 0, 85, 94
2, 83036, Note_off_c, 0, 85, 0
2, 83040, Note_on_c, 0, 81, 91
2, 83132, Note_off_c, 0, 81, 0
2, 83136, Note_on_c, 0, 76, 86
2, 83228, Note_off_c, 0, 76, 0
2, 83232, Note_on_c, 0, 73, 84
2, 83324, Note_off_c, 0, 73, 0
2, 83328, Note_on_c, 0, 81, 79
2, 83420, Note_off_c, 0, 81, 0
2, 83424, Note_on_c, 0, 76, 73
2, 83516, Note_off_c, 0, 76, 0
2, 83520, Note_on_c, 0, 73, 70
2, 83612, Note_off_c, 0, 73, 0
2, 83616, Note_on_c, 0, 69, 66
2, 83708, Note_off_c, 0, 69, 0
2, 83712, Note_on_c, 0, 76, 66
2, 83804, Note_off_c, 0, 76, 0
2, 83808, Note_on_c, 0, 73, 66
2, 83900, Note_off_c, 0, 73, 0
2, 83904, Note_on_c, 0, 69, 66
2, 83996, Note_off_c, 0, 69, 0
2, 84000, Note_on_c, 0, 64, 66
2, 84092, Note_off_c, 0, 64, 0
2, 84096, Note_on_c, 0, 73, 66
2, 84188, Note_off_c, 0, 73, 0
2, 84192, Note_on_c, 0, 69, 66
2, 84284, Note_off_c, 0, 69, 0
2, 84288, Note_on_c, 0, 64, 66
2, 84380, Note_off_c, 0, 64, 0
2, 84384, Note_on_c, 0, 61, 66
2, 84476, Note_off_c, 0, 61, 0
2, 84480, Note_on_c, 0, 62, 66
2, 84860, Note_off_c, 0, 62, 0
2, 86016, Note_on_c, 0, 62, 99
2, 86780, Note_off_c, 0, 62, 0
2, 86784, Note_on_c, 0, 68, 88
2, 87164, Note_off_c, 0, 68, 0
2, 87168, Note_on_c, 0, 71, 77
2, 87548, Note_off_c, 0, 71, 0
2, 87552, Note_on_c, 0, 74, 68
2, 87644, Note_off_c, 0, 74, 0
2, 87648, Note_on_c, 0, 71, 66
2, 87740, Note_off_c, 0, 71, 0
2, 87744, Note_on_c, 0, 73, 66
2, 87836, Note_off_c, 0, 73, 0
2, 87840, Note_on_c, 0, 74, 66
2, 87932, Note_off_c, 0, 74, 0
2, 87936, Note_on_c, 0, 76, 66
2, 88028, Note_off_c, 0, 76, 0
2, 88032, Note_on_c, 0, 78, 66
2, 88124, Note_off_c, 0, 78, 0
2, 88128, Note_on_c, 0, 80, 66
2, 88220, Note_off_c, 0, 80, 0
2, 88224, Note_on_c, 0, 81, 66
2, 88316, Note_off_c, 0, 81, 0
2, 88320, Note_on_c, 0, 83, 68
2, 88412, Note_off_c, 0, 83, 0
2, 88416, Note_on_c, 0, 81, 71
2, 88508, Note_off_c, 0, 81, 0
2, 88512, Note_on_c, 0, 80, 75
2, 88604, Note_off_c, 0, 80, 0
2, 88608, Note_on_c, 0, 81, 79
2, 88700, Note_off_c, 0, 81, 0
2, 88704, Note_on_c, 0, 83, 83
2, 88796, Note_off_c, 0, 83, 0
2, 88800, Note_on_c, 0, 85, 86
2, 88892, Note_off_c, 0, 85, 0
2, 88896, Note_on_c, 0, 83, 91
2, 88988, Note_off_c, 0, 83, 0
2, 88992, Note_on_c, 0, 85, 93
2, 89084, Note_off_c, 0, 85, 0
2, 89088, Note_on_c, 0, 86, 93
2, 89180, Note_off_c, 0, 86, 0
2, 89184, Note_on_c, 0, 83, 91
2, 89276, Note_off_c, 0, 83, 0
2, 89280, Note_on_c, 0, 85, 88
2, 89372, Note_off_c, 0, 85, 0
2, 89376, Note_on_c, 0, 81, 86
2, 89468, Note_off_c, 0, 81, 0
2, 89472, Note_on_c, 0, 83, 84
2, 89564, Note_off_c, 0, 83, 0
2, 89568, Note_on_c, 0, 80, 82
2, 89660, Note_off_c, 0, 80, 0
2, 89664, Note_on_c, 0, 81, 81
2, 89756, Note_off_c, 0, 81, 0
2, 89760, Note_on_c, 0, 78, 79
2, 89852, Note_off_c, 0, 78, 0
2, 89856, Note_on_c, 0, 80, 77
2, 89948, Note_off_c, 0, 80, 0
2, 89952, Note_on_c, 0, 76, 75
2, 90044, Note_off_c, 0, 76, 0
2, 90048, Note_on_c, 0, 78, 73
2, 90140, Note_off_c, 0, 78, 0
2, 90144, Note_on_c, 0, 74, 73
2, 90236, Note_off_c, 0, 74, 0
2, 90240, Note_on_c, 0, 76, 72
2, 90332, Note_off_c, 0, 76, 0
2, 90336, Note_on_c, 0, 73, 70
2, 90428, Note_off_c, 0, 73, 0
2, 90432, Note_on_c, 0, 74, 69
2, 90524, Note_off_c, 0, 74, 0
2, 90528, Note_on_c, 0, 71, 68
2, 90620, Note_off_c, 0, 71, 0
2, 90624, Note_on_c, 0, 73, 66
2, 91004, Note_off_c, 0, 73, 0
2, 91008, Note_on_c, 0, 75, 72
2, 91068, Note_off_c, 0, 75, 0
2, 91072, Note_on_c, 0, 76, 64
2, 91196, Note_off_c, 0, 76, 0
2, 91200, Note_on_c, 0, 76, 66
2, 91388, Note_off_c, 0, 76, 0
2, 91392, Note_on_c, 0, 78, 66
2, 91676, Note_off_c, 0, 78, 0
2, 91680, Note_on_c, 0, 80, 70
2, 91720, Note_off_c, 0, 80, 0
2, 91728, Note_on_c, 0, 81, 70
2, 91768, Note_off_c, 0, 81, 0
2, 91776, Note_on_c, 0, 80, 66
2, 91868, Note_off_c, 0, 80, 0
2, 91872, Note_on_c, 0, 78, 66
2, 91964, Note_off_c, 0, 78, 0
2, 91968, Note_on_c, 0, 76, 66
2, 92060, Note_off_c, 0, 76, 0
2, 92064, Note_on_c, 0, 74, 66
2, 92156, Note_off_c, 0, 74, 0
2, 92160, Note_on_c, 0, 73, 66
2, 92348, Note_off_c, 0, 73, 0
2, 92352, Note_on_c, 0, 76, 66
2, 92540, Note_off_c, 0, 76, 0
2, 92544, Note_on_c, 0, 75, 72
2, 92608, Note_off_c, 0, 75, 0
2, 92608, Note_on_c, 0, 76, 64
2, 92732, Note_off_c, 0, 76, 0
2, 92736, Note_on_c, 0, 76, 66
2, 92924, Note_off_c, 0, 76, 0
2, 92928, Note_on_c, 0, 78, 60
2, 93212, Note_off_c, 0, 78, 0
2, 93216, Note_on_c, 0, 80, 68
2, 93256, Note_off_c, 0, 80, 0
2, 93264, Note_on_c, 0, 81, 68
2, 93304, Note_off_c, 0, 81, 0
2, 93312, Note_on_c, 0, 80, 60
2, 93404, Note_off_c, 0, 80, 0
2, 93408, Note_on_c, 0, 78, 60
2, 93500, Note_off_c, 0, 78, 0
2, 93504, Note_on_c, 0, 76, 60
2, 93596, Note_off_c, 0, 76, 0
2, 93600, Note_on_c, 0, 74, 60
2, 93692, Note_off_c, 0, 74, 0
2, 93696, Note_on_c, 0, 73, 60
2, 93884, Note_off_c, 0, 73, 0
2, 93888, Note_on_c, 0, 76, 60
2, 94076, Note_off_c, 0, 76, 0
2, 94272, Note_on_c, 0, 78, 60
2, 94312, Note_off_c, 0, 78, 0
2, 94320, Note_on_c, 0, 76, 60
2, 94360, Note_off_c, 0, 76, 0
2, 94368, Note_on_c, 0, 74, 60
2, 94408, Note_off_c, 0, 74, 0
2, 94416, Note_on_c, 0, 76, 60
2, 94456, Note_off_c, 0, 76, 0
2, 94464, Note_on_c, 0, 78, 60
2, 94652, Note_off_c, 0, 78, 0
2, 94656, Note_on_c, 0, 74, 60
2, 94844, Note_off_c, 0, 74, 0
2, 94848, Note_on_c, 0, 71, 60
2, 95036, Note_off_c, 0, 71, 0
2, 95040, Note_on_c, 0, 69, 60
2, 95228, Note_off_c, 0, 69, 0
2, 95232, Note_on_c, 0, 68, 61
2, 95420, Note_off_c, 0, 68, 0
2, 95424, Note_on_c, 0, 76, 61
2, 95612, Note_off_c, 0, 76, 0
2, 95808, Note_on_c, 0, 81, 62
2, 95900, Note_off_c, 0, 81, 0
2, 95904, Note_on_c, 0, 76, 63
2, 95996, Note_off_c, 0, 76, 0
2, 96000, Note_on_c, 0, 78, 66
2, 96188, Note_off_c, 0, 78, 0
2, 96192, Note_on_c, 0, 74, 66
2, 96380, Note_off_c, 0, 74, 0
2, 96384, Note_on_c, 0, 71, 66
2, 96572, Note_off_c, 0, 71, 0
2, 96576, Note_on_c, 0, 69, 66
2, 96764, Note_off_c, 0, 69, 0
2, 96768, Note_on_c, 0, 68, 66
2, 97148, Note_off_c, 0, 68, 0
2, 102912, Note_on_c, 0, 61, 66
2, 103004, Note_off_c, 0, 61, 0
2, 103008, Note_on_c, 0, 64, 66
2, 103100, Note_off_c, 0, 64, 0
2, 103104, Note_on_c, 0, 61, 66
2, 103196, Note_off_c, 0, 61, 0
2, 103200, Note_on_c, 0, 64, 66
2, 103292, Note_off_c, 0, 64, 0
2, 103296, Note_on_c, 0, 61, 66
2, 103388, Note_off_c, 0, 61, 0
2, 103392, Note_on_c, 0, 64, 66
2, 103484, Note_off_c, 0, 64, 0
2, 103488, Note_on_c, 0, 61, 66
2, 103580, Note_off_c, 0, 61, 0
2, 103584, Note_on_c, 0, 64, 66
2, 103676, Note_off_c, 0, 64, 0
2, 103680, Note_on_c, 0, 57, 66
2, 103772, Note_off_c, 0, 57, 0
2, 103776, Note_on_c, 0, 64, 66
2, 103868, Note_off_c, 0, 64, 0
2, 103872, Note_on_c, 0, 57, 66
2, 103872, Note_on_c, 0, 73, 66
2, 103964, Note_off_c, 0, 57, 0
2, 103968, Note_on_c, 0, 64, 66
2, 104060, Note_off_c, 0, 73, 0
2, 104060, Note_off_c, 0, 64, 0
2, 104064, Note_on_c, 0, 57, 66
2, 104064, Note_on_c, 0, 74, 66
2, 104156, Note_off_c, 0, 57, 0
2, 104160, Note_on_c, 0, 64, 66
2, 104252, Note_off_c, 0, 74, 0
2, 104252, Note_off_c, 0, 64, 0
2, 104256, Note_on_c, 0, 57, 66
2, 104256, Note_on_c, 0, 76, 66
2, 104348, Note_off_c, 0, 57, 0
2, 104352, Note_on_c, 0, 64, 66
2, 104444, Note_off_c, 0, 76, 0
2, 104444, Note_off_c, 0, 64, 0
2, 104448, Note_on_c, 0, 59, 66
2, 104448, Note_on_c, 0, 74, 66
2, 104540, Note_off_c, 0, 59, 0
2, 104540, Note_off_c, 0, 74, 0
2, 104544, Note_on_c, 0, 64, 66
2, 104544, Note_on_c, 0, 73, 66
2, 104636, Note_off_c, 0, 64, 0
2, 104636, Note_off_c, 0, 73, 0
2, 104640, Note_on_c, 0, 59, 66
2, 104640, Note_on_c, 0, 71, 66
2, 104732, Note_off_c, 0, 59, 0
2, 104732, Note_off_c, 0, 71, 0
2, 104736, Note_on_c, 0, 64, 66
2, 104736, Note_on_c, 0, 69, 66
2, 104828, Note_off_c, 0, 64, 0
2, 104828, Note_off_c, 0, 69, 0
2, 104832, Note_on_c, 0, 59, 66
2, 104832, Note_on_c, 0, 68, 66
2, 104924, Note_off_c, 0, 59, 0
2, 104928, Note_on_c, 0, 64, 66
2, 105020, Note_off_c, 0, 64, 0
2, 105024, Note_on_c, 0, 59, 66
2, 105116, Note_off_c, 0, 59, 0
2, 105120, Note_on_c, 0, 64, 66
2, 105212, Note_off_c, 0, 68, 0
2, 105212, Note_off_c, 0, 64, 0
2, 105216, Note_on_c, 0, 62, 66
2, 105308, Note_off_c, 0, 62, 0
2, 105312, Note_on_c, 0, 64, 66
2, 105404, Note_off_c, 0, 64, 0
2, 105408, Note_on_c, 0, 62, 66
2, 105408, Note_on_c, 0, 80, 68
2, 105500, Note_off_c, 0, 62, 0
2, 105504, Note_on_c, 0, 64, 66
2, 105596, Note_off_c, 0, 80, 0
2, 105596, Note_off_c, 0, 64, 0
2, 105600, Note_on_c, 0, 62, 66
2, 105600, Note_on_c, 0, 81, 69
2, 105692, Note_off_c, 0, 62, 0
2, 105696, Note_on_c, 0, 64, 66
2, 105788, Note_off_c, 0, 81, 0
2, 105788, Note_off_c, 0, 64, 0
2, 105792, Note_on_c, 0, 62, 66
2, 105792, Note_on_c, 0, 83, 70
2, 105884, Note_off_c, 0, 62, 0
2, 105888, Note_on_c, 0, 64, 66
2, 105980, Note_off_c, 0, 83, 0
2, 105980, Note_off_c, 0, 64, 0
2, 105984, Note_on_c, 0, 81, 69
2, 105984, Note_on_c, 0, 61, 66
2, 106076, Note_off_c, 0, 81, 0
2, 106076, Note_off_c, 0, 61, 0
2, 106080, Note_on_c, 0, 83, 69
2, 106080, Note_on_c, 0, 64, 66
2, 106172, Note_off_c, 0, 83, 0
2, 106172, Note_off_c, 0, 64, 0
2, 106176, Note_on_c, 0, 85, 70
2, 106176, Note_on_c, 0, 61, 66
2, 106268, Note_off_c, 0, 85, 0
2, 106268, Note_off_c, 0, 61, 0
2, 106272, Note_on_c, 0, 81, 69
2, 106272, Note_on_c, 0, 64, 66
2, 106364, Note_off_c, 0, 81, 0
2, 106364, Note_off_c, 0, 64, 0
2, 106368, Note_on_c, 0, 76, 67
2, 106368, Note_on_c, 0, 61, 66
2, 106460, Note_off_c, 0, 61, 0
2, 106464, Note_on_c, 0, 64, 66
2, 106556, Note_off_c, 0, 64, 0
2, 106560, Note_on_c, 0, 61, 66
2, 106652, Note_off_c, 0, 61, 0
2, 106656, Note_on_c, 0, 64, 66
2, 106748, Note_off_c, 0, 76, 0
2, 106748, Note_off_c, 0, 64, 0
2, 106752, Note_on_c, 0, 57, 66
2, 106844, Note_off_c, 0, 57, 0
2, 106848, Note_on_c, 0, 64, 66
2, 106928, Note_on_c, 0, 57, 66
2, 106940, Note_off_c, 0, 64, 0
2, 106944, Note_on_c, 0, 73, 66
2, 107020, Note_off_c, 0, 57, 0
2, 107040, Note_on_c, 0, 64, 66
2, 107132, Note_off_c, 0, 73, 0
2, 107132, Note_off_c, 0, 64, 0
2, 107136, Note_on_c, 0, 74, 66
2, 107136, Note_on_c, 0, 57, 66
2, 107228, Note_off_c, 0, 57, 0
2, 107232, Note_on_c, 0, 64, 66
2, 107324, Note_off_c, 0, 74, 0
2, 107324, Note_off_c, 0, 64, 0
2, 107328, Note_on_c, 0, 76, 66
2, 107328, Note_on_c, 0, 57, 66
2, 107420, Note_off_c, 0, 57, 0
2, 107424, Note_on_c, 0, 64, 66
2, 107516, Note_off_c, 0, 76, 0
2, 107516, Note_off_c, 0, 64, 0
2, 107520, Note_on_c, 0, 74, 66
2, 107520, Note_on_c, 0, 59, 66
2, 107612, Note_off_c, 0, 74, 0
2, 107612, Note_off_c, 0, 59, 0
2, 107616, Note_on_c, 0, 73, 66
2, 107616, Note_on_c, 0, 64, 66
2, 107696, Note_on_c, 0, 59, 66
2, 107708, Note_off_c, 0, 73, 0
2, 107708, Note_off_c, 0, 64, 0
2, 107712, Note_on_c, 0, 71, 66
2, 107788, Note_off_c, 0, 59, 0
2, 107804, Note_off_c, 0, 71, 0
2, 107808, Note_on_c, 0, 69, 66
2, 107808, Note_on_c, 0, 64, 66
2, 107900, Note_off_c, 0, 69, 0
2, 107900, Note_off_c, 0, 64, 0
2, 107904, Note_on_c, 0, 68, 66
2, 107904, Note_on_c, 0, 59, 66
2, 107996, Note_off_c, 0, 59, 0
2, 108000, Note_on_c, 0, 64, 66
2, 108092, Note_off_c, 0, 64, 0
2, 108096, Note_on_c, 0, 59, 66
2, 108188, Note_off_c, 0, 59, 0
2, 108192, Note_on_c, 0, 64, 66
2, 108284, Note_off_c, 0, 68, 0
2, 108284, Note_off_c, 0, 64, 0
2, 108288, Note_on_c, 0, 62, 66
2, 108380, Note_off_c, 0, 62, 0
2, 108384, Note_on_c, 0, 64, 66
2, 108476, Note_off_c, 0, 64, 0
2, 108480, Note_on_c, 0, 80, 69
2, 108480, Note_on_c, 0, 62, 66
2, 108572, Note_off_c, 0, 62, 0
2, 108576, Note_on_c, 0, 64, 66
2, 108668, Note_off_c, 0, 80, 0
2, 108668, Note_off_c, 0, 64, 0
2, 108672, Note_on_c, 0, 81, 70
2, 108672, Note_on_c, 0, 62, 66
2, 108764, Note_off_c, 0, 62, 0
2, 108768, Note_on_c, 0, 64, 66
2, 108860, Note_off_c, 0, 81, 0
2, 108860, Note_off_c, 0, 64, 0
2, 108864, Note_on_c, 0, 83, 70
2, 108864, Note_on_c, 0, 62, 66
2, 108956, Note_off_c, 0, 62, 0
2, 108960, Note_on_c, 0, 64, 66
2, 109052, Note_off_c, 0, 83, 0
2, 109052, Note_off_c, 0, 64, 0
2, 109056, Note_on_c, 0, 81, 69
2, 109056, Note_on_c, 0, 61, 66
2, 109148, Note_off_c, 0, 81, 0
2, 109148, Note_off_c, 0, 61, 0
2, 109152, Note_on_c, 0, 83, 70
2, 109152, Note_on_c, 0, 64, 66
2, 109244, Note_off_c, 0, 83, 0
2, 109244, Note_off_c, 0, 64, 0
2, 109248, Note_on_c, 0, 85, 71
2, 109248, Note_on_c, 0, 61, 66
2, 109340, Note_off_c, 0, 85, 0
2, 109340, Note_off_c, 0, 61, 0
2, 109344, Note_on_c, 0, 83, 70
2, 109344, Note_on_c, 0, 64, 66
2, 109436, Note_off_c, 0, 83, 0
2, 109436, Note_off_c, 0, 64, 0
2, 109440, Note_on_c, 0, 76, 68
2, 109440, Note_on_c, 0, 61, 66
2, 109532, Note_off_c, 0, 61, 0
2, 109536, Note_on_c, 0, 64, 66
2, 109628, Note_off_c, 0, 64, 0
2, 109632, Note_on_c, 0, 61, 66
2, 109724, Note_off_c, 0, 61, 0
2, 109728, Note_on_c, 0, 64, 66
2, 109820, Note_off_c, 0, 76, 0
2, 109820, Note_off_c, 0, 64, 0
2, 110016, Note_on_c, 0, 76, 66
2, 110016, Note_on_c, 0, 73, 66
2, 110204, Note_off_c, 0, 76, 0
2, 110204, Note_off_c, 0, 73, 0
2, 110208, Note_on_c, 0, 74, 66
2, 110208, Note_on_c, 0, 71, 66
2, 110396, Note_off_c, 0, 74, 0
2, 110396, Note_off_c, 0, 71, 0
2, 110400, Note_on_c, 0, 73, 66
2, 110400, Note_on_c, 0, 69, 66
2, 110588, Note_off_c, 0, 73, 0
2, 110588, Note_off_c, 0, 69, 0
2, 110592, Note_on_c, 0, 71, 66
2, 110592, Note_on_c, 0, 68, 66
2, 110972, Note_off_c, 0, 71, 0
2, 110972, Note_off_c, 0, 68, 0
2, 111168, Note_on_c, 0, 76, 66
2, 111168, Note_on_c, 0, 73, 66
2, 111356, Note_off_c, 0, 76, 0
2, 111356, Note_off_c, 0, 73, 0
2, 111360, Note_on_c, 0, 74, 66
2, 111360, Note_on_c, 0, 71, 66
2, 111548, Note_off_c, 0, 74, 0
2, 111548, Note_off_c, 0, 71, 0
2, 111552, Note_on_c, 0, 73, 66
2, 111552, Note_on_c, 0, 69, 66
2, 111740, Note_off_c, 0, 73, 0
2, 111740, Note_off_c, 0, 69, 0
2, 111744, Note_on_c, 0, 71, 66
2, 111744, Note_on_c, 0, 68, 66
2, 111932, Note_off_c, 0, 71, 0
2, 111932, Note_off_c, 0, 68, 0
2, 111936, Note_on_c, 0, 74, 66
2, 111936, Note_on_c, 0, 71, 66
2, 112124, Note_off_c, 0, 74, 0
2, 112124, Note_off_c, 0, 71, 0
2, 112128, Note_on_c, 0, 73, 66
2, 112128, Note_on_c, 0, 69, 66
2, 112508, Note_off_c, 0, 73, 0
2, 112508, Note_off_c, 0, 69, 0
2, 112704, Note_on_c, 0, 85, 66
2, 112704, Note_on_c, 0, 76, 66
2, 112892, Note_off_c, 0, 85, 0
2, 112892, Note_off_c, 0, 76, 0
2, 112896, Note_on_c, 0, 83, 66
2, 112896, Note_on_c, 0, 74, 66
2, 113084, Note_off_c, 0, 83, 0
2, 113084, Note_off_c, 0, 74, 0
2, 113088, Note_on_c, 0, 81, 66
2, 113088, Note_on_c, 0, 73, 66
2, 113276, Note_off_c, 0, 81, 0
2, 113276, Note_off_c, 0, 73, 0
2, 113280, Note_on_c, 0, 80, 66
2, 113280, Note_on_c, 0, 71, 66
2, 113468, Note_off_c, 0, 80, 0
2, 113468, Note_off_c, 0, 71, 0
2, 113472, Note_on_c, 0, 83, 66
2, 113472, Note_on_c, 0, 74, 66
2, 113660, Note_off_c, 0, 83, 0
2, 113660, Note_off_c, 0, 74, 0
2, 113664, Note_on_c, 0, 81, 66
2, 113664, Note_on_c, 0, 73, 66
2, 113756, Note_off_c, 0, 81, 0
2, 113756, Note_off_c, 0, 73, 0
2, 113760, Note_on_c, 0, 76, 66
2, 113852, Note_off_c, 0, 76, 0
2, 113856, Note_on_c, 0, 75, 66
2, 113948, Note_off_c, 0, 75, 0
2, 113952, Note_on_c, 0, 76, 66
2, 114044, Note_off_c, 0, 76, 0
2, 114048, Note_on_c, 0, 78, 66
2, 114140, Note_off_c, 0, 78, 0
2, 114144, Note_on_c, 0, 76, 66
2, 114236, Note_off_c, 0, 76, 0
2, 114240, Note_on_c, 0, 75, 66
2, 114332, Note_off_c, 0, 75, 0
2, 114336, Note_on_c, 0, 76, 66
2, 114428, Note_off_c, 0, 76, 0
2, 114432, Note_on_c, 0, 64, 66
2, 114524, Note_off_c, 0, 64, 0
2, 114528, Note_on_c, 0, 76, 66
2, 114620, Note_off_c, 0, 76, 0
2, 114624, Note_on_c, 0, 75, 66
2, 114716, Note_off_c, 0, 75, 0
2, 114720, Note_on_c, 0, 76, 66
2, 114812, Note_off_c, 0, 76, 0
2, 114816, Note_on_c, 0, 78, 66
2, 114908, Note_off_c, 0, 78, 0
2, 114912, Note_on_c, 0, 76, 66
2, 115004, Note_off_c, 0, 76, 0
2, 115008, Note_on_c, 0, 75, 66
2, 115100, Note_off_c, 0, 75, 0
2, 115104, Note_on_c, 0, 76, 66
2, 115196, Note_off_c, 0, 76, 0
2, 115200, Note_on_c, 0, 64, 66
2, 115292, Note_off_c, 0, 64, 0
2, 115296, Note_on_c, 0, 76, 66
2, 115388, Note_off_c, 0, 76, 0
2, 115392, Note_on_c, 0, 74, 66
2, 115484, Note_off_c, 0, 74, 0
2, 115488, Note_on_c, 0, 76, 66
2, 115580, Note_off_c, 0, 76, 0
2, 115584, Note_on_c, 0, 78, 66
2, 115676, Note_off_c, 0, 78, 0
2, 115680, Note_on_c, 0, 76, 66
2, 115772, Note_off_c, 0, 76, 0
2, 115776, Note_on_c, 0, 74, 66
2, 115868, Note_off_c, 0, 74, 0
2, 115872, Note_on_c, 0, 76, 66
2, 115964, Note_off_c, 0, 76, 0
2, 115968, Note_on_c, 0, 64, 66
2, 116060, Note_off_c, 0, 64, 0
2, 116064, Note_on_c, 0, 76, 66
2, 116156, Note_off_c, 0, 76, 0
2, 116160, Note_on_c, 0, 74, 66
2, 116252, Note_off_c, 0, 74, 0
2, 116256, Note_on_c, 0, 76, 66
2, 116348, Note_off_c, 0, 76, 0
2, 116352, Note_on_c, 0, 78, 66
2, 116444, Note_off_c, 0, 78, 0
2, 116448, Note_on_c, 0, 76, 66
2, 116540, Note_off_c, 0, 76, 0
2, 116544, Note_on_c, 0, 74, 66
2, 116636, Note_off_c, 0, 74, 0
2, 116640, Note_on_c, 0, 76, 66
2, 116732, Note_off_c, 0, 76, 0
2, 116736, Note_on_c, 0, 76, 66
2, 116924, Note_off_c, 0, 76, 0
2, 116928, Note_on_c, 0, 81, 73
2, 117116, Note_off_c, 0, 81, 0
2, 117120, Note_on_c, 0, 81, 81
2, 117692, Note_off_c, 0, 81, 0
2, 117696, Note_on_c, 0, 83, 73
2, 117736, Note_off_c, 0, 83, 0
2, 117744, Note_on_c, 0, 81, 73
2, 117784, Note_off_c, 0, 81, 0
2, 117792, Note_on_c, 0, 80, 73
2, 117832, Note_off_c, 0, 80, 0
2, 117840, Note_on_c, 0, 81, 73
2, 117880, Note_off_c, 0, 81, 0
2, 117888, Note_on_c, 0, 83, 66
2, 118076, Note_off_c, 0, 83, 0
2, 118080, Note_on_c, 0, 85, 66
2, 118268, Note_off_c, 0, 85, 0
2, 118272, Note_on_c, 0, 85, 66
2, 118460, Note_off_c, 0, 85, 0
2, 118464, Note_on_c, 0, 78, 73
2, 118652, Note_off_c, 0, 78, 0
2, 118656, Note_on_c, 0, 78, 81
2, 119228, Note_off_c, 0, 78, 0
2, 119232, Note_on_c, 0, 80, 73
2, 119272, Note_off_c, 0, 80, 0
2, 119280, Note_on_c, 0, 78, 73
2, 119320, Note_off_c, 0, 78, 0
2, 119328, Note_on_c, 0, 77, 73
2, 119368, Note_off_c, 0, 77, 0
2, 119376, Note_on_c, 0, 78, 73
2, 119416, Note_off_c, 0, 78, 0
2, 119424, Note_on_c, 0, 80, 66
2, 119612, Note_off_c, 0, 80, 0
2, 119616, Note_on_c, 0, 81, 66
2, 119804, Note_off_c, 0, 81, 0
2, 119808, Note_on_c, 0, 81, 66
2, 119996, Note_off_c, 0, 81, 0
2, 120000, Note_on_c, 0, 74, 73
2, 120188, Note_off_c, 0, 74, 0
2, 120192, Note_on_c, 0, 74, 81
2, 120764, Note_off_c, 0, 74, 0
2, 120768, Note_on_c, 0, 76, 66
2, 120860, Note_off_c, 0, 76, 0
2, 120864, Note_on_c, 0, 78, 66
2, 120956, Note_off_c, 0, 78, 0
2, 120960, Note_on_c, 0, 76, 66
2, 121148, Note_off_c, 0, 76, 0
2, 121152, Note_on_c, 0, 74, 66
2, 121340, Note_off_c, 0, 74, 0
2, 121344, Note_on_c, 0, 73, 66
2, 121724, Note_off_c, 0, 73, 0
2, 122880, Note_on_c, 0, 76, 66
2, 123068, Note_off_c, 0, 76, 0
2, 123072, Note_on_c, 0, 81, 73
2, 123260, Note_off_c, 0, 81, 0
2, 123264, Note_on_c, 0, 81, 81
2, 123836, Note_off_c, 0, 81, 0
2, 123840, Note_on_c, 0, 83, 73
2, 123880, Note_off_c, 0, 83, 0
2, 123888, Note_on_c, 0, 81, 73
2, 123928, Note_off_c, 0, 81, 0
2, 123936, Note_on_c, 0, 80, 73
2, 123976, Note_off_c, 0, 80, 0
2, 123984, Note_on_c, 0, 81, 73
2, 124024, Note_off_c, 0, 81, 0
2, 124032, Note_on_c, 0, 83, 66
2, 124220, Note_off_c, 0, 83, 0
2, 124224, Note_on_c, 0, 85, 70
2, 124412, Note_off_c, 0, 85, 0
2, 124416, Note_on_c, 0, 85, 70
2, 124604, Note_off_c, 0, 85, 0
2, 124608, Note_on_c, 0, 78, 73
2, 124796, Note_off_c, 0, 78, 0
2, 124800, Note_on_c, 0, 78, 81
2, 125372, Note_off_c, 0, 78, 0
2, 125376, Note_on_c, 0, 80, 73
2, 125416, Note_off_c, 0, 80, 0
2, 125424, Note_on_c, 0, 78, 73
2, 125464, Note_off_c, 0, 78, 0
2, 125472, Note_on_c, 0, 77, 73
2, 125512, Note_off_c, 0, 77, 0
2, 125520, Note_on_c, 0, 78, 73
2, 125560, Note_off_c, 0, 78, 0
2, 125568, Note_on_c, 0, 80, 66
2, 125756, Note_off_c, 0, 80, 0
2, 125760, Note_on_c, 0, 81, 66
2, 125948, Note_off_c, 0, 81, 0
2, 125952, Note_on_c, 0, 81, 79
2, 126044, Note_off_c, 0, 81, 0
2, 126048, Note_on_c, 0, 69, 73
2, 126716, Note_off_c, 0, 69, 0
2, 126720, Note_on_c, 0, 71, 73
2, 126760, Note_off_c, 0, 71, 0
2, 126768, Note_on_c, 0, 73, 73
2, 126808, Note_off_c, 0, 73, 0
2, 126816, Note_on_c, 0, 71, 73
2, 126856, Note_off_c, 0, 71, 0
2, 126864, Note_on_c, 0, 73, 73
2, 126904, Note_off_c, 0, 73, 0
2, 126912, Note_on_c, 0, 71, 73
2, 126952, Note_off_c, 0, 71, 0
2, 126960, Note_on_c, 0, 73, 73
2, 127000, Note_off_c, 0, 73, 0
2, 127008, Note_on_c, 0, 71, 73
2, 127048, Note_off_c, 0, 71, 0
2, 127056, Note_on_c, 0, 73, 73
2, 127096, Note_off_c, 0, 73, 0
2, 127104, Note_on_c, 0, 71, 73
2, 127144, Note_off_c, 0, 71, 0
2, 127152, Note_on_c, 0, 73, 73
2, 127192, Note_off_c, 0, 73, 0
2, 127200, Note_on_c, 0, 71, 73
2, 127240, Note_off_c, 0, 71, 0
2, 127248, Note_on_c, 0, 73, 73
2, 127288, Note_off_c, 0, 73, 0
2, 127296, Note_on_c, 0, 69, 73
2, 127388, Note_off_c, 0, 69, 0
2, 127392, Note_on_c, 0, 71, 73
2, 127484, Note_off_c, 0, 71, 0
2, 127488, Note_on_c, 0, 69, 73
2, 127868, Note_off_c, 0, 69, 0
2, 129216, Note_on_c, 0, 76, 99
2, 129308, Note_off_c, 0, 76, 0
2, 129312, Note_on_c, 0, 81, 99
2, 129404, Note_off_c, 0, 81, 0
2, 129408, Note_on_c, 0, 85, 100
2, 129500, Note_off_c, 0, 85, 0
2, 129504, Note_on_c, 0, 81, 99
2, 129596, Note_off_c, 0, 81, 0
2, 129600, Note_on_c, 0, 88, 102
2, 129692, Note_off_c, 0, 88, 0
2, 129696, Note_on_c, 0, 85, 99
2, 129788, Note_off_c, 0, 85, 0
2, 129792, Note_on_c, 0, 86, 100
2, 129884, Note_off_c, 0, 86, 0
2, 129888, Note_on_c, 0, 85, 99
2, 129980, Note_off_c, 0, 85, 0
2, 129984, Note_on_c, 0, 83, 99
2, 130076, Note_off_c, 0, 83, 0
2, 130080, Note_on_c, 0, 81, 99
2, 130172, Note_off_c, 0, 81, 0
2, 130176, Note_on_c, 0, 80, 99
2, 130268, Note_off_c, 0, 80, 0
2, 130272, Note_on_c, 0, 78, 99
2, 130364, Note_off_c, 0, 78, 0
2, 130368, Note_on_c, 0, 76, 99
2, 130460, Note_off_c, 0, 76, 0
2, 130464, Note_on_c, 0, 74, 99
2, 130556, Note_off_c, 0, 74, 0
2, 130560, Note_on_c, 0, 73, 99
2, 130940, Note_off_c, 0, 73, 0
2, 132288, Note_on_c, 0, 76, 99
2, 132380, Note_off_c, 0, 76, 0
2, 132384, Note_on_c, 0, 81, 99
2, 132476, Note_off_c, 0, 81, 0
2, 132480, Note_on_c, 0, 85, 99
2, 132572, Note_off_c, 0, 85, 0
2, 132576, Note_on_c, 0, 81, 99
2, 132668, Note_off_c, 0, 81, 0
2, 132672, Note_on_c, 0, 88, 101
2, 132764, Note_off_c, 0, 88, 0
2, 132768, Note_on_c, 0, 85, 98
2, 132860, Note_off_c, 0, 85, 0
2, 132864, Note_on_c, 0, 86, 99
2, 132956, Note_off_c, 0, 86, 0
2, 132960, Note_on_c, 0, 85, 94
2, 133052, Note_off_c, 0, 85, 0
2, 133056, Note_on_c, 0, 83, 90
2, 133148, Note_off_c, 0, 83, 0
2, 133152, Note_on_c, 0, 81, 86
2, 133244, Note_off_c, 0, 81, 0
2, 133248, Note_on_c, 0, 80, 82
2, 133340, Note_off_c, 0, 80, 0
2, 133344, Note_on_c, 0, 78, 78
2, 133436, Note_off_c, 0, 78, 0
2, 133440, Note_on_c, 0, 76, 74
2, 133532, Note_off_c, 0, 76, 0
2, 133536, Note_on_c, 0, 74, 70
2, 133628, Note_off_c, 0, 74, 0
2, 133632, Note_on_c, 0, 73, 66
2, 134012, Note_off_c, 0, 73, 0
2, 134016, Note_on_c, 0, 73, 66
2, 134204, Note_off_c, 0, 73, 0
2, 134208, Note_on_c, 0, 74, 68
2, 134268, Note_off_c, 0, 74, 0
2, 134272, Note_on_c, 0, 76, 68
2, 134332, Note_off_c, 0, 76, 0
2, 134336, Note_on_c, 0, 74, 68
2, 134396, Note_off_c, 0, 74, 0
2, 134400, Note_on_c, 0, 76, 66
2, 134588, Note_off_c, 0, 76, 0
2, 134592, Note_on_c, 0, 78, 68
2, 134652, Note_off_c, 0, 78, 0
2, 134656, Note_on_c, 0, 80, 68
2, 134716, Note_off_c, 0, 80, 0
2, 134720, Note_on_c, 0, 78, 68
2, 134780, Note_off_c, 0, 78, 0
2, 134784, Note_on_c, 0, 80, 66
2, 134972, Note_off_c, 0, 80, 0
2, 134976, Note_on_c, 0, 81, 66
2, 135164, Note_off_c, 0, 81, 0
2, 135168, Note_on_c, 0, 76, 66
2, 135548, Note_off_c, 0, 76, 0
2, 135552, Note_on_c, 0, 73, 66
2, 135740, Note_off_c, 0, 73, 0
2, 135744, Note_on_c, 0, 74, 68
2, 135804, Note_off_c, 0, 74, 0
2, 135808, Note_on_c, 0, 76, 68
2, 135868, Note_off_c, 0, 76, 0
2, 135872, Note_on_c, 0, 74, 68
2, 135932, Note_off_c, 0, 74, 0
2, 135936, Note_on_c, 0, 76, 66
2, 136124, Note_off_c, 0, 76, 0
2, 136128, Note_on_c, 0, 78, 68
2, 136188, Note_off_c, 0, 78, 0
2, 136192, Note_on_c, 0, 79, 68
2, 136252, Note_off_c, 0, 79, 0
2, 136256, Note_on_c, 0, 78, 68
2, 136316, Note_off_c, 0, 78, 0
2, 136320, Note_on_c, 0, 79, 66
2, 136508, Note_off_c, 0, 79, 0
2, 136512, Note_on_c, 0, 81, 66
2, 136700, Note_off_c, 0, 81, 0
2, 136704, Note_on_c, 0, 78, 66
2, 136796, Note_off_c, 0, 78, 0
2, 136800, Note_on_c, 0, 74, 66
2, 136892, Note_off_c, 0, 74, 0
2, 136896, Note_on_c, 0, 73, 66
2, 136988, Note_off_c, 0, 73, 0
2, 136992, Note_on_c, 0, 74, 67
2, 137084, Note_off_c, 0, 74, 0
2, 137088, Note_on_c, 0, 69, 68
2, 137180, Note_off_c, 0, 69, 0
2, 137184, Note_on_c, 0, 74, 70
2, 137276, Note_off_c, 0, 74, 0
2, 137280, Note_on_c, 0, 66, 73
2, 137372, Note_off_c, 0, 66, 0
2, 137376, Note_on_c, 0, 74, 75
2, 137468, Note_off_c, 0, 74, 0
2, 137472, Note_on_c, 0, 62, 79
2, 137564, Note_off_c, 0, 62, 0
2, 137568, Note_on_c, 0, 74, 81
2, 137660, Note_off_c, 0, 74, 0
2, 137664, Note_on_c, 0, 73, 84
2, 137756, Note_off_c, 0, 73, 0
2, 137760, Note_on_c, 0, 74, 86
2, 137852, Note_off_c, 0, 74, 0
2, 137856, Note_on_c, 0, 78, 90
2, 137948, Note_off_c, 0, 78, 0
2, 137952, Note_on_c, 0, 74, 92
2, 138044, Note_off_c, 0, 74, 0
2, 138048, Note_on_c, 0, 81, 95
2, 138140, Note_off_c, 0, 81, 0
2, 138144, Note_on_c, 0, 74, 97
2, 138236, Note_off_c, 0, 74, 0
2, 138240, Note_on_c, 0, 84, 99
2, 138240, Note_on_c, 0, 81, 99
2, 138240, Note_on_c, 0, 78, 99
2, 138620, Note_off_c, 0, 84, 0
2, 138620, Note_off_c, 0, 81, 0
2, 138620, Note_off_c, 0, 78, 0
2, 138624, Note_on_c, 0, 84, 99
2, 138624, Note_on_c, 0, 81, 99
2, 138624, Note_on_c, 0, 78, 99
2, 139004, Note_off_c, 0, 84, 0
2, 139004, Note_off_c, 0, 81, 0
2, 139004, Note_off_c, 0, 78, 0
2, 139008, Note_on_c, 0, 84, 99
2, 139008, Note_on_c, 0, 81, 99
2, 139008, Note_on_c, 0, 78, 99
2, 139388, Note_off_c, 0, 84, 0
2, 139388, Note_off_c, 0, 81, 0
2, 139388, Note_off_c, 0, 78, 0
2, 139392, Note_on_c, 0, 84, 99
2, 139392, Note_on_c, 0, 81, 99
2, 139392, Note_on_c, 0, 78, 99
2, 139772, Note_off_c, 0, 84, 0
2, 139772, Note_off_c, 0, 81, 0
2, 139772, Note_off_c, 0, 78, 0
2, 139776, Note_on_c, 0, 85, 99
2, 139868, Note_off_c, 0, 85, 0
2, 139872, Note_on_c, 0, 81, 99
2, 139964, Note_off_c, 0, 81, 0
2, 139968, Note_on_c, 0, 76, 99
2, 140060, Note_off_c, 0, 76, 0
2, 140064, Note_on_c, 0, 81, 99
2, 140156, Note_off_c, 0, 81, 0
2, 140160, Note_on_c, 0, 85, 99
2, 140252, Note_off_c, 0, 85, 0
2, 140256, Note_on_c, 0, 81, 99
2, 140348, Note_off_c, 0, 81, 0
2, 140352, Note_on_c, 0, 85, 99
2, 140444, Note_off_c, 0, 85, 0
2, 140448, Note_on_c, 0, 81, 99
2, 140540, Note_off_c, 0, 81, 0
2, 140544, Note_on_c, 0, 85, 99
2, 140636, Note_off_c, 0, 85, 0
2, 140640, Note_on_c, 0, 81, 99
2, 140732, Note_off_c, 0, 81, 0
2, 140736, Note_on_c, 0, 76, 99
2, 140828, Note_off_c, 0, 76, 0
2, 140832, Note_on_c, 0, 81, 99
2, 140924, Note_off_c, 0, 81, 0
2, 140928, Note_on_c, 0, 85, 99
2, 141020, Note_off_c, 0, 85, 0
2, 141024, Note_on_c, 0, 81, 99
2, 141116, Note_off_c, 0, 81, 0
2, 141120, Note_on_c, 0, 85, 99
2, 141212, Note_off_c, 0, 85, 0
2, 141216, Note_on_c, 0, 81, 99
2, 141308, Note_off_c, 0, 81, 0
2, 141312, Note_on_c, 0, 85, 99
2, 141404, Note_off_c, 0, 85, 0
2, 141408, Note_on_c, 0, 83, 99
2, 141500, Note_off_c, 0, 83, 0
2, 141504, Note_on_c, 0, 81, 99
2, 141596, Note_off_c, 0, 81, 0
2, 141600, Note_on_c, 0, 80, 99
2, 141692, Note_off_c, 0, 80, 0
2, 141696, Note_on_c, 0, 81, 99
2, 141788, Note_off_c, 0, 81, 0
2, 141792, Note_on_c, 0, 80, 99
2, 141884, Note_off_c, 0, 80, 0
2, 141888, Note_on_c, 0, 78, 99
2, 141980, Note_off_c, 0, 78, 0
2, 141984, Note_on_c, 0, 76, 99
2, 142076, Note_off_c, 0, 76, 0
2, 142080, Note_on_c, 0, 78, 99
2, 142172, Note_off_c, 0, 78, 0
2, 142176, Note_on_c, 0, 76, 99
2, 142268, Note_off_c, 0, 76, 0
2, 142272, Note_on_c, 0, 74, 99
2, 142364, Note_off_c, 0, 74, 0
2, 142368, Note_on_c, 0, 73, 99
2, 142460, Note_off_c, 0, 73, 0
2, 142464, Note_on_c, 0, 74, 99
2, 142556, Note_off_c, 0, 74, 0
2, 142560, Note_on_c, 0, 73, 99
2, 142652, Note_off_c, 0, 73, 0
2, 142656, Note_on_c, 0, 71, 99
2, 142748, Note_off_c, 0, 71, 0
2, 142752, Note_on_c, 0, 69, 99
2, 142844, Note_off_c, 0, 69, 0
2, 142844, Control_c, 0, 64, 127
2, 142848, Note_on_c, 0, 64, 104
2, 144380, Note_off_c, 0, 64, 0
2, 144380, Control_c, 0, 64, 0
2, 144384, Note_on_c, 0, 83, 99
2, 144428, Note_off_c, 0, 83, 0
2, 144432, Note_on_c, 0, 85, 99
2, 144476, Note_off_c, 0, 85, 0
2, 144480, Note_on_c, 0, 83, 99
2, 144524, Note_off_c, 0, 83, 0
2, 144528, Note_on_c, 0, 85, 99
2, 144572, Note_off_c, 0, 85, 0
2, 144576, Note_on_c, 0, 83, 99
2, 144620, Note_off_c, 0, 83, 0
2, 144624, Note_on_c, 0, 85, 99
2, 144668, Note_off_c, 0, 85, 0
2, 144672, Note_on_c, 0, 83, 99
2, 144716, Note_off_c, 0, 83, 0
2, 144720, Note_on_c, 0, 85, 99
2, 144764, Note_off_c, 0, 85, 0
2, 144768, Note_on_c, 0, 83, 99
2, 144812, Note_off_c, 0, 83, 0
2, 144816, Note_on_c, 0, 85, 99
2, 144860, Note_off_c, 0, 85, 0
2, 144864, Note_on_c, 0, 83, 99
2, 144908, Note_off_c, 0, 83, 0
2, 144912, Note_on_c, 0, 85, 99
2, 144956, Note_off_c, 0, 85, 0
2, 144960, Note_on_c, 0, 83, 99
2, 145004, Note_off_c, 0, 83, 0
2, 145008, Note_on_c, 0, 85, 99
2, 145052, Note_off_c, 0, 85, 0
2, 145056, Note_on_c, 0, 83, 99
2, 145100, Note_off_c, 0, 83, 0
2, 145104, Note_on_c, 0, 85, 99
2, 145148, Note_off_c, 0, 85, 0
2, 145152, Note_on_c, 0, 83, 99
2, 145196, Note_off_c, 0, 83, 0
2, 145200, Note_on_c, 0, 85, 99
2, 145244, Note_off_c, 0, 85, 0
2, 145248, Note_on_c, 0, 83, 99
2, 145292, Note_off_c, 0, 83, 0
2, 145296, Note_on_c, 0, 85, 99
2, 145340, Note_off_c, 0, 85, 0
2, 145344, Note_on_c, 0, 83, 99
2, 145388, Note_off_c, 0, 83, 0
2, 145392, Note_on_c, 0, 85, 99
2, 145436, Note_off_c, 0, 85, 0
2, 145440, Note_on_c, 0, 83, 99
2, 145484, Note_off_c, 0, 83, 0
2, 145488, Note_on_c, 0, 85, 99
2, 145532, Note_off_c, 0, 85, 0
2, 145536, Note_on_c, 0, 83, 99
2, 145580, Note_off_c, 0, 83, 0
2, 145584, Note_on_c, 0, 85, 99
2, 145628, Note_off_c, 0, 85, 0
2, 145632, Note_on_c, 0, 83, 99
2, 145676, Note_off_c, 0, 83, 0
2, 145680, Note_on_c, 0, 85, 99
2, 145724, Note_off_c, 0, 85, 0
2, 145728, Note_on_c, 0, 81, 99
2, 145820, Note_off_c, 0, 81, 0
2, 145824, Note_on_c, 0, 83, 99
2, 145916, Note_off_c, 0, 83, 0
2, 145920, Note_on_c, 0, 81, 99
2, 146300, Note_off_c, 0, 81, 0
2, 172032, Note_on_c, 0, 69, 66
2, 172032, Note_on_c, 0, 57, 66
2, 172076, Note_off_c, 0, 69, 0
2, 172080, Note_on_c, 0, 71, 66
2, 172124, Note_off_c, 0, 57, 0
2, 172124, Note_off_c, 0, 71, 0
2, 172128, Note_on_c, 0, 69, 66
2, 172128, Note_on_c, 0, 64, 66
2, 172172, Note_off_c, 0, 69, 0
2, 172176, Note_on_c, 0, 71, 66
2, 172220, Note_off_c, 0, 64, 0
2, 172220, Note_off_c, 0, 71, 0
2, 172224, Note_on_c, 0, 69, 66
2, 172224, Note_on_c, 0, 61, 66
2, 172268, Note_off_c, 0, 69, 0
2, 172272, Note_on_c, 0, 71, 66
2, 172316, Note_off_c, 0, 61, 0
2, 172316, Note_off_c, 0, 71, 0
2, 172320, Note_on_c, 0, 69, 66
2, 172320, Note_on_c, 0, 64, 66
2, 172364, Note_off_c, 0, 69, 0
2, 172368, Note_on_c, 0, 71, 66
2, 172412, Note_off_c, 0, 64, 0
2, 172412, Note_off_c, 0, 71, 0
2, 172416, Note_on_c, 0, 69, 66
2, 172416, Note_on_c, 0, 57, 66
2, 172460, Note_off_c, 0, 69, 0
2, 172464, Note_on_c, 0, 71, 66
2, 172508, Note_off_c, 0, 57, 0
2, 172508, Note_off_c, 0, 71, 0
2, 172512, Note_on_c, 0, 69, 66
2, 172512, Note_on_c, 0, 66, 66
2, 172556, Note_off_c, 0, 69, 0
2, 172560, Note_on_c, 0, 71, 66
2, 172604, Note_off_c, 0, 66, 0
2, 172604, Note_off_c, 0, 71, 0
2, 172608, Note_on_c, 0, 69, 66
2, 172608, Note_on_c, 0, 62, 66
2, 172652, Note_off_c, 0, 69, 0
2, 172656, Note_on_c, 0, 71, 66
2, 172700, Note_off_c, 0, 62, 0
2, 172700, Note_off_c, 0, 71, 0
2, 172704, Note_on_c, 0, 69, 66
2, 172704, Note_on_c, 0, 66, 66
2, 172748, Note_off_c, 0, 69, 0
2, 172752, Note_on_c, 0, 71, 66
2, 172796, Note_off_c, 0, 66, 0
2, 172796, Note_off_c, 0, 71, 0
2, 172800, Note_on_c, 0, 69, 66
2, 172800, Note_on_c, 0, 57, 66
2, 172844, Note_off_c, 0, 69, 0
2, 172848, Note_on_c, 0, 71, 66
2, 172892, Note_off_c, 0, 57, 0
2, 172892, Note_off_c, 0, 71, 0
2, 172896, Note_on_c, 0, 69, 66
2, 172896, Note_on_c, 0, 64, 66
2, 172940, Note_off_c, 0, 69, 0
2, 172944, Note_on_c, 0, 71, 66
2, 172988, Note_off_c, 0, 64, 0
2, 172988, Note_off_c, 0, 71, 0
2, 172992, Note_on_c, 0, 69, 66
2, 172992, Note_on_c, 0, 61, 66
2, 173036, Note_off_c, 0, 69, 0
2, 173040, Note_on_c, 0, 71, 66
2, 173084, Note_off_c, 0, 61, 0
2, 173084, Note_off_c, 0, 71, 0
2, 173088, Note_on_c, 0, 69, 66
2, 173088, Note_on_c, 0, 64, 66
2, 173132, Note_off_c, 0, 69, 0
2, 173136, Note_on_c, 0, 71, 66
2, 173180, Note_off_c, 0, 64, 0
2, 173180, Note_off_c, 0, 71, 0
2, 173184, Note_on_c, 0, 69, 66
2, 173184, Note_on_c, 0, 57, 66
2, 173228, Note_off_c, 0, 69, 0
2, 173232, Note_on_c, 0, 71, 66
2, 173276, Note_off_c, 0, 57, 0
2, 173276, Note_off_c, 0, 71, 0
2, 173280, Note_on_c, 0, 69, 66
2, 173280, Note_on_c, 0, 66, 66
2, 173324, Note_off_c, 0, 69, 0
2, 173328, Note_on_c, 0, 71, 66
2, 173372, Note_off_c, 0, 66, 0
2, 173372, Note_off_c, 0, 71, 0
2, 173376, Note_on_c, 0, 69, 66
2, 173376, Note_on_c, 0, 62, 66
2, 173420, Note_off_c, 0, 69, 0
2, 173424, Note_on_c, 0, 71, 66
2, 173468, Note_off_c, 0, 62, 0
2, 173468, Note_off_c, 0, 71, 0
2, 173472, Note_on_c, 0, 69, 66
2, 173472, Note_on_c, 0, 66, 66
2, 173516, Note_off_c, 0, 69, 0
2, 173520, Note_on_c, 0, 68, 66
2, 173564, Note_off_c, 0, 66, 0
2, 173564, Note_off_c, 0, 68, 0
2, 173568, Note_on_c, 0, 69, 66
2, 173568, Note_on_c, 0, 64, 66
2, 173568, Note_on_c, 0, 61, 66
2, 173568, Note_on_c, 0, 57, 66
2, 173756, Note_off_c, 0, 69, 0
2, 173760, Note_on_c, 0, 71, 66
2, 173852, Note_off_c, 0, 71, 0
2, 173856, Note_on_c, 0, 73, 66
2, 173948, Note_off_c, 0, 64, 0
2, 173948, Note_off_c, 0, 61, 0
2, 173948, Note_off_c, 0, 57, 0
2, 173948, Note_off_c, 0, 73, 0
2, 173952, Note_on_c, 0, 74, 66
2, 174044, Note_off_c, 0, 74, 0
2, 174048, Note_on_c, 0, 76, 66
2, 174140, Note_off_c, 0, 76, 0
2, 174144, Note_on_c, 0, 78, 66
2, 174236, Note_off_c, 0, 78, 0
2, 174240, Note_on_c, 0, 80, 66
2, 174332, Note_off_c, 0, 80, 0
2, 174336, Note_on_c, 0, 81, 66
2, 174428, Note_off_c, 0, 81, 0
2, 174432, Note_on_c, 0, 80, 66
2, 174524, Note_off_c, 0, 80, 0
2, 174528, Note_on_c, 0, 81, 66
2, 174620, Note_off_c, 0, 81, 0
2, 174624, Note_on_c, 0, 80, 66
2, 174716, Note_off_c, 0, 80, 0
2, 174720, Note_on_c, 0, 81, 66
2, 174812, Note_off_c, 0, 81, 0
2, 174816, Note_on_c, 0, 80, 66
2, 174908, Note_off_c, 0, 80, 0
2, 174912, Note_on_c, 0, 81, 66
2, 175004, Note_off_c, 0, 81, 0
2, 175008, Note_on_c, 0, 80, 66
2, 175100, Note_off_c, 0, 80, 0
2, 175104, Note_on_c, 0, 81, 66
2, 175196, Note_off_c, 0, 81, 0
2, 175200, Note_on_c, 0, 76, 66
2, 175292, Note_off_c, 0, 76, 0
2, 175296, Note_on_c, 0, 75, 66
2, 175296, Note_on_c, 0, 73, 66
2, 175388, Note_off_c, 0, 75, 0
2, 175388, Note_off_c, 0, 73, 0
2, 175392, Note_on_c, 0, 76, 66
2, 175484, Note_off_c, 0, 76, 0
2, 175488, Note_on_c, 0, 74, 66
2, 175488, Note_on_c, 0, 71, 66
2, 175580, Note_off_c, 0, 74, 0
2, 175580, Note_off_c, 0, 71, 0
2, 175584, Note_on_c, 0, 76, 66
2, 175676, Note_off_c, 0, 76, 0
2, 175680, Note_on_c, 0, 74, 66
2, 175680, Note_on_c, 0, 69, 66
2, 175772, Note_off_c, 0, 74, 0
2, 175772, Note_off_c, 0, 69, 0
2, 175776, Note_on_c, 0, 76, 66
2, 175868, Note_off_c, 0, 76, 0
2, 175872, Note_on_c, 0, 71, 66
2, 175872, Note_on_c, 0, 68, 66
2, 175964, Note_off_c, 0, 71, 0
2, 175964, Note_off_c, 0, 68, 0
2, 175968, Note_on_c, 0, 76, 66
2, 176060, Note_off_c, 0, 76, 0
2, 176064, Note_on_c, 0, 73, 66
2, 176064, Note_on_c, 0, 69, 66
2, 176156, Note_off_c, 0, 73, 0
2, 176156, Note_off_c, 0, 69, 0
2, 176160, Note_on_c, 0, 76, 66
2, 176252, Note_off_c, 0, 76, 0
2, 176256, Note_on_c, 0, 74, 66
2, 176256, Note_on_c, 0, 71, 66
2, 176348, Note_off_c, 0, 74, 0
2, 176348, Note_off_c, 0, 71, 0
2, 176352, Note_on_c, 0, 76, 66
2, 176444, Note_off_c, 0, 76, 0
2, 176448, Note_on_c, 0, 71, 66
2, 176448, Note_on_c, 0, 68, 66
2, 176540, Note_off_c, 0, 71, 0
2, 176540, Note_off_c, 0, 68, 0
2, 176544, Note_on_c, 0, 76, 66
2, 176636, Note_off_c, 0, 76, 0
2, 176640, Note_on_c, 0, 73, 66
2, 176640, Note_on_c, 0, 69, 66
2, 176732, Note_off_c, 0, 73, 0
2, 176732, Note_off_c, 0, 69, 0
2, 176736, Note_on_c, 0, 64, 66
2, 176828, Note_off_c, 0, 64, 0
2, 176832, Note_on_c, 0, 73, 66
2, 176832, Note_on_c, 0, 63, 66
2, 176924, Note_off_c, 0, 73, 0
2, 176924, Note_off_c, 0, 63, 0
2, 176928, Note_on_c, 0, 64, 66
2, 177020, Note_off_c, 0, 64, 0
2, 177024, Note_on_c, 0, 71, 66
2, 177024, Note_on_c, 0, 62, 66
2, 177116, Note_off_c, 0, 71, 0
2, 177116, Note_off_c, 0, 62, 0
2, 177120, Note_on_c, 0, 64, 66
2, 177212, Note_off_c, 0, 64, 0
2, 177216, Note_on_c, 0, 69, 66
2, 177216, Note_on_c, 0, 61, 66
2, 177308, Note_off_c, 0, 69, 0
2, 177308, Note_off_c, 0, 61, 0
2, 177312, Note_on_c, 0, 64, 66
2, 177404, Note_off_c, 0, 64, 0
2, 177408, Note_on_c, 0, 68, 66
2, 177408, Note_on_c, 0, 59, 66
2, 177500, Note_off_c, 0, 68, 0
2, 177500, Note_off_c, 0, 59, 0
2, 177504, Note_on_c, 0, 64, 66
2, 177596, Note_off_c, 0, 64, 0
2, 177600, Note_on_c, 0, 69, 66
2, 177600, Note_on_c, 0, 61, 66
2, 177692, Note_off_c, 0, 69, 0
2, 177692, Note_off_c, 0, 61, 0
2, 177696, Note_on_c, 0, 64, 66
2, 177788, Note_off_c, 0, 64, 0
2, 177792, Note_on_c, 0, 71, 66
2, 177792, Note_on_c, 0, 62, 66
2, 177884, Note_off_c, 0, 71, 0
2, 177884, Note_off_c, 0, 62, 0
2, 177888, Note_on_c, 0, 64, 66
2, 177980, Note_off_c, 0, 64, 0
2, 177984, Note_on_c, 0, 68, 66
2, 177984, Note_on_c, 0, 59, 66
2, 178076, Note_off_c, 0, 68, 0
2, 178076, Note_off_c, 0, 59, 0
2, 178080, Note_on_c, 0, 64, 66
2, 178172, Note_off_c, 0, 64, 0
2, 178176, Note_on_c, 0, 69, 66
2, 178176, Note_on_c, 0, 61, 66
2, 178268, Note_off_c, 0, 69, 0
2, 178272, Note_on_c, 0, 64, 66
2, 178364, Note_off_c, 0, 61, 0
2, 178364, Note_off_c, 0, 64, 0
2, 178368, Note_on_c, 0, 63, 66
2, 178460, Note_off_c, 0, 63, 0
2, 178464, Note_on_c, 0, 64, 66
2, 178556, Note_off_c, 0, 64, 0
2, 178560, Note_on_c, 0, 62, 66
2, 178652, Note_off_c, 0, 62, 0
2, 178656, Note_on_c, 0, 64, 66
2, 178748, Note_off_c, 0, 64, 0
2, 178752, Note_on_c, 0, 61, 66
2, 178844, Note_off_c, 0, 61, 0
2, 178848, Note_on_c, 0, 64, 66
2, 178940, Note_off_c, 0, 64, 0
2, 178944, Note_on_c, 0, 59, 66
2, 179036, Note_off_c, 0, 59, 0
2, 179040, Note_on_c, 0, 64, 66
2, 179132, Note_off_c, 0, 64, 0
2, 179136, Note_on_c, 0, 61, 66
2, 179228, Note_off_c, 0, 61, 0
2, 179232, Note_on_c, 0, 64, 66
2, 179324, Note_off_c, 0, 64, 0
2, 179328, Note_on_c, 0, 62, 66
2, 179420, Note_off_c, 0, 62, 0
2, 179424, Note_on_c, 0, 64, 66
2, 179516, Note_off_c, 0, 64, 0
2, 179520, Note_on_c, 0, 59, 66
2, 179612, Note_off_c, 0, 59, 0
2, 179616, Note_on_c, 0, 64, 66
2, 179708, Note_off_c, 0, 64, 0
2, 179712, Note_on_c, 0, 61, 67
2, 179804, Note_off_c, 0, 61, 0
2, 179808, Note_on_c, 0, 64, 68
2, 179900, Note_off_c, 0, 64, 0
2, 179904, Note_on_c, 0, 69, 70
2, 179996, Note_off_c, 0, 69, 0
2, 180000, Note_on_c, 0, 64, 72
2, 180092, Note_off_c, 0, 64, 0
2, 180096, Note_on_c, 0, 73, 74
2, 180188, Note_off_c, 0, 73, 0
2, 180192, Note_on_c, 0, 69, 77
2, 180284, Note_off_c, 0, 69, 0
2, 180288, Note_on_c, 0, 76, 79
2, 180380, Note_off_c, 0, 76, 0
2, 180384, Note_on_c, 0, 73, 81
2, 180476, Note_off_c, 0, 73, 0
2, 180480, Note_on_c, 0, 79, 83
2, 180572, Note_off_c, 0, 79, 0
2, 180576, Note_on_c, 0, 78, 85
2, 180668, Note_off_c, 0, 78, 0
2, 180672, Note_on_c, 0, 76, 88
2, 180764, Note_off_c, 0, 76, 0
2, 180768, Note_on_c, 0, 74, 90
2, 180860, Note_off_c, 0, 74, 0
2, 180864, Note_on_c, 0, 73, 92
2, 180956, Note_off_c, 0, 73, 0
2, 180960, Note_on_c, 0, 71, 94
2, 181052, Note_off_c, 0, 71, 0
2, 181056, Note_on_c, 0, 69, 96
2, 181148, Note_off_c, 0, 69, 0
2, 181152, Note_on_c, 0, 67, 99
2, 181244, Note_off_c, 0, 67, 0
2, 181248, Note_on_c, 0, 66, 101
2, 181628, Note_off_c, 0, 66, 0
2, 184320, Note_on_c, 0, 62, 66
2, 184320, Note_on_c, 0, 74, 66
2, 184364, Note_off_c, 0, 74, 0
2, 184368, Note_on_c, 0, 76, 66
2, 184412, Note_off_c, 0, 62, 0
2, 184412, Note_off_c, 0, 76, 0
2, 184416, Note_on_c, 0, 74, 66
2, 184416, Note_on_c, 0, 69, 66
2, 184460, Note_off_c, 0, 74, 0
2, 184464, Note_on_c, 0, 76, 66
2, 184508, Note_off_c, 0, 69, 0
2, 184508, Note_off_c, 0, 76, 0
2, 184512, Note_on_c, 0, 74, 66
2, 184512, Note_on_c, 0, 66, 66
2, 184556, Note_off_c, 0, 74, 0
2, 184560, Note_on_c, 0, 76, 66
2, 184604, Note_off_c, 0, 66, 0
2, 184604, Note_off_c, 0, 76, 0
2, 184608, Note_on_c, 0, 74, 66
2, 184608, Note_on_c, 0, 69, 66
2, 184652, Note_off_c, 0, 74, 0
2, 184656, Note_on_c, 0, 76, 66
2, 184700, Note_off_c, 0, 69, 0
2, 184700, Note_off_c, 0, 76, 0
2, 184704, Note_on_c, 0, 74, 66
2, 184704, Note_on_c, 0, 62, 66
2, 184748, Note_off_c, 0, 74, 0
2, 184752, Note_on_c, 0, 76, 66
2, 184796, Note_off_c, 0, 62, 0
2, 184796, Note_off_c, 0, 76, 0
2, 184800, Note_on_c, 0, 74, 66
2, 184800, Note_on_c, 0, 71, 66
2, 184844, Note_off_c, 0, 74, 0
2, 184848, Note_on_c, 0, 76, 66
2, 184892, Note_off_c, 0, 71, 0
2, 184892, Note_off_c, 0, 76, 0
2, 184896, Note_on_c, 0, 74, 66
2, 184896, Note_on_c, 0, 67, 66
2, 184940, Note_off_c, 0, 74, 0
2, 184944, Note_on_c, 0, 76, 66
2, 184988, Note_off_c, 0, 67, 0
2, 184988, Note_off_c, 0, 76, 0
2, 184992, Note_on_c, 0, 74, 66
2, 184992, Note_on_c, 0, 71, 66
2, 185036, Note_off_c, 0, 74, 0
2, 185040, Note_on_c, 0, 76, 66
2, 185084, Note_off_c, 0, 71, 0
2, 185084, Note_off_c, 0, 76, 0
2, 185088, Note_on_c, 0, 74, 66
2, 185088, Note_on_c, 0, 62, 66
2, 185132, Note_off_c, 0, 74, 0
2, 185136, Note_on_c, 0, 76, 66
2, 185180, Note_off_c, 0, 62, 0
2, 185180, Note_off_c, 0, 76, 0
2, 185184, Note_on_c, 0, 74, 66
2, 185184, Note_on_c, 0, 69, 66
2, 185228, Note_off_c, 0, 74, 0
2, 185232, Note_on_c, 0, 76, 66
2, 185276, Note_off_c, 0, 69, 0
2, 185276, Note_off_c, 0, 76, 0
2, 185280, Note_on_c, 0, 74, 66
2, 185280, Note_on_c, 0, 66, 66
2, 185324, Note_off_c, 0, 74, 0
2, 185328, Note_on_c, 0, 76, 66
2, 185372, Note_off_c, 0, 66, 0
2, 185372, Note_off_c, 0, 76, 0
2, 185376, Note_on_c, 0, 74, 66
2, 185376, Note_on_c, 0, 69, 66
2, 185420, Note_off_c, 0, 74, 0
2, 185424, Note_on_c, 0, 76, 66
2, 185468, Note_off_c, 0, 69, 0
2, 185468, Note_off_c, 0, 76, 0
2, 185472, Note_on_c, 0, 74, 66
2, 185472, Note_on_c, 0, 62, 66
2, 185516, Note_off_c, 0, 74, 0
2, 185520, Note_on_c, 0, 76, 66
2, 185564, Note_off_c, 0, 62, 0
2, 185564, Note_off_c, 0, 76, 0
2, 185568, Note_on_c, 0, 74, 66
2, 185568, Note_on_c, 0, 71, 66
2, 185612, Note_off_c, 0, 74, 0
2, 185616, Note_on_c, 0, 76, 66
2, 185660, Note_off_c, 0, 71, 0
2, 185660, Note_off_c, 0, 76, 0
2, 185664, Note_on_c, 0, 74, 66
2, 185664, Note_on_c, 0, 67, 66
2, 185708, Note_off_c, 0, 74, 0
2, 185712, Note_on_c, 0, 76, 66
2, 185756, Note_off_c, 0, 67, 0
2, 185756, Note_off_c, 0, 76, 0
2, 185760, Note_on_c, 0, 74, 66
2, 185760, Note_on_c, 0, 71, 66
2, 185804, Note_off_c, 0, 74, 0
2, 185808, Note_on_c, 0, 73, 66
2, 185852, Note_off_c, 0, 71, 0
2, 185852, Note_off_c, 0, 73, 0
2, 185856, Note_on_c, 0, 74, 66
2, 185856, Note_on_c, 0, 69, 66
2, 185856, Note_on_c, 0, 66, 66
2, 185856, Note_on_c, 0, 62, 66
2, 186044, Note_off_c, 0, 74, 0
2, 186048, Note_on_c, 0, 76, 66
2, 186140, Note_off_c, 0, 76, 0
2, 186144, Note_on_c, 0, 78, 66
2, 186236, Note_off_c, 0, 69, 0
2, 186236, Note_off_c, 0, 66, 0
2, 186236, Note_off_c, 0, 62, 0
2, 186236, Note_off_c, 0, 78, 0
2, 186240, Note_on_c, 0, 79, 66
2, 186332, Note_off_c, 0, 79, 0
2, 186336, Note_on_c, 0, 81, 66
2, 186428, Note_off_c, 0, 81, 0
2, 186432, Note_on_c, 0, 83, 66
2, 186524, Note_off_c, 0, 83, 0
2, 186528, Note_on_c, 0, 85, 66
2, 186620, Note_off_c, 0, 85, 0
2, 186624, Note_on_c, 0, 86, 68
2, 186716, Note_off_c, 0, 86, 0
2, 186720, Note_on_c, 0, 85, 66
2, 186812, Note_off_c, 0, 85, 0
2, 186816, Note_on_c, 0, 86, 68
2, 186908, Note_off_c, 0, 86, 0
2, 186912, Note_on_c, 0, 85, 66
2, 187004, Note_off_c, 0, 85, 0
2, 187008, Note_on_c, 0, 86, 68
2, 187100, Note_off_c, 0, 86, 0
2, 187104, Note_on_c, 0, 85, 66
2, 187196, Note_off_c, 0, 85, 0
2, 187200, Note_on_c, 0, 86, 68
2, 187292, Note_off_c, 0, 86, 0
2, 187296, Note_on_c, 0, 85, 66
2, 187388, Note_off_c, 0, 85, 0
2, 187392, Note_on_c, 0, 86, 68
2, 187484, Note_off_c, 0, 86, 0
2, 187488, Note_on_c, 0, 81, 66
2, 187580, Note_off_c, 0, 81, 0
2, 187584, Note_on_c, 0, 80, 66
2, 187584, Note_on_c, 0, 78, 66
2, 187676, Note_off_c, 0, 80, 0
2, 187676, Note_off_c, 0, 78, 0
2, 187680, Note_on_c, 0, 81, 66
2, 187772, Note_off_c, 0, 81, 0
2, 187776, Note_on_c, 0, 79, 66
2, 187776, Note_on_c, 0, 76, 66
2, 187868, Note_off_c, 0, 79, 0
2, 187868, Note_off_c, 0, 76, 0
2, 187872, Note_on_c, 0, 81, 66
2, 187964, Note_off_c, 0, 81, 0
2, 187968, Note_on_c, 0, 78, 66
2, 187968, Note_on_c, 0, 74, 66
2, 188060, Note_off_c, 0, 78, 0
2, 188060, Note_off_c, 0, 74, 0
2, 188064, Note_on_c, 0, 81, 66
2, 188156, Note_off_c, 0, 81, 0
2, 188160, Note_on_c, 0, 76, 66
2, 188160, Note_on_c, 0, 73, 66
2, 188252, Note_off_c, 0, 76, 0
2, 188252, Note_off_c, 0, 73, 0
2, 188256, Note_on_c, 0, 81, 66
2, 188348, Note_off_c, 0, 81, 0
2, 188352, Note_on_c, 0, 78, 66
2, 188352, Note_on_c, 0, 74, 66
2, 188444, Note_off_c, 0, 78, 0
2, 188444, Note_off_c, 0, 74, 0
2, 188448, Note_on_c, 0, 81, 66
2, 188540, Note_off_c, 0, 81, 0
2, 188544, Note_on_c, 0, 79, 66
2, 188544, Note_on_c, 0, 76, 66
2, 188636, Note_off_c, 0, 79, 0
2, 188636, Note_off_c, 0, 76, 0
2, 188640, Note_on_c, 0, 81, 66
2, 188732, Note_off_c, 0, 81, 0
2, 188736, Note_on_c, 0, 76, 66
2, 188736, Note_on_c, 0, 73, 66
2, 188828, Note_off_c, 0, 76, 0
2, 188828, Note_off_c, 0, 73, 0
2, 188832, Note_on_c, 0, 81, 66
2, 188924, Note_off_c, 0, 81, 0
2, 188928, Note_on_c, 0, 78, 66
2, 188928, Note_on_c, 0, 74, 66
2, 189020, Note_off_c, 0, 74, 0
2, 189024, Note_on_c, 0, 69, 66
2, 189116, Note_off_c, 0, 78, 0
2, 189116, Note_off_c, 0, 69, 0
2, 189120, Note_on_c, 0, 78, 66
2, 189120, Note_on_c, 0, 68, 66
2, 189212, Note_off_c, 0, 78, 0
2, 189212, Note_off_c, 0, 68, 0
2, 189216, Note_on_c, 0, 69, 66
2, 189308, Note_off_c, 0, 69, 0
2, 189312, Note_on_c, 0, 76, 66
2, 189312, Note_on_c, 0, 67, 66
2, 189404, Note_off_c, 0, 76, 0
2, 189404, Note_off_c, 0, 67, 0
2, 189408, Note_on_c, 0, 69, 66
2, 189500, Note_off_c, 0, 69, 0
2, 189504, Note_on_c, 0, 74, 66
2, 189504, Note_on_c, 0, 66, 66
2, 189596, Note_off_c, 0, 74, 0
2, 189596, Note_off_c, 0, 66, 0
2, 189600, Note_on_c, 0, 69, 66
2, 189692, Note_off_c, 0, 69, 0
2, 189696, Note_on_c, 0, 73, 66
2, 189696, Note_on_c, 0, 64, 66
2, 189788, Note_off_c, 0, 73, 0
2, 189788, Note_off_c, 0, 64, 0
2, 189792, Note_on_c, 0, 69, 66
2, 189884, Note_off_c, 0, 69, 0
2, 189888, Note_on_c, 0, 74, 66
2, 189888, Note_on_c, 0, 66, 66
2, 189980, Note_off_c, 0, 74, 0
2, 189980, Note_off_c, 0, 66, 0
2, 189984, Note_on_c, 0, 69, 66
2, 190076, Note_off_c, 0, 69, 0
2, 190080, Note_on_c, 0, 76, 66
2, 190080, Note_on_c, 0, 67, 66
2, 190172, Note_off_c, 0, 76, 0
2, 190172, Note_off_c, 0, 67, 0
2, 190176, Note_on_c, 0, 69, 66
2, 190268, Note_off_c, 0, 69, 0
2, 190272, Note_on_c, 0, 73, 66
2, 190272, Note_on_c, 0, 64, 66
2, 190364, Note_off_c, 0, 73, 0
2, 190364, Note_off_c, 0, 64, 0
2, 190368, Note_on_c, 0, 69, 66
2, 190460, Note_off_c, 0, 69, 0
2, 190464, Note_on_c, 0, 66, 66
2, 190464, Note_on_c, 0, 74, 66
2, 190556, Note_off_c, 0, 74, 0
2, 190560, Note_on_c, 0, 69, 66
2, 190652, Note_off_c, 0, 66, 0
2, 190652, Note_off_c, 0, 69, 0
2, 190656, Note_on_c, 0, 66, 66
2, 190656, Note_on_c, 0, 68, 66
2, 190748, Note_off_c, 0, 66, 0
2, 190748, Note_off_c, 0, 68, 0
2, 190752, Note_on_c, 0, 69, 66
2, 190844, Note_off_c, 0, 69, 0
2, 190848, Note_on_c, 0, 64, 66
2, 190848, Note_on_c, 0, 67, 66
2, 190940, Note_off_c, 0, 64, 0
2, 190940, Note_off_c, 0, 67, 0
2, 190944, Note_on_c, 0, 69, 66
2, 191036, Note_off_c, 0, 69, 0
2, 191040, Note_on_c, 0, 62, 66
2, 191040, Note_on_c, 0, 66, 66
2, 191132, Note_off_c, 0, 62, 0
2, 191132, Note_off_c, 0, 66, 0
2, 191136, Note_on_c, 0, 69, 66
2, 191228, Note_off_c, 0, 69, 0
2, 191232, Note_on_c, 0, 61, 66
2, 191232, Note_on_c, 0, 64, 66
2, 191324, Note_off_c, 0, 61, 0
2, 191324, Note_off_c, 0, 64, 0
2, 191328, Note_on_c, 0, 69, 66
2, 191420, Note_off_c, 0, 69, 0
2, 191424, Note_on_c, 0, 62, 66
2, 191424, Note_on_c, 0, 66, 66
2, 191516, Note_off_c, 0, 62, 0
2, 191516, Note_off_c, 0, 66, 0
2, 191520, Note_on_c, 0, 69, 66
2, 191612, Note_off_c, 0, 69, 0
2, 191616, Note_on_c, 0, 64, 66
2, 191616, Note_on_c, 0, 67, 66
2, 191708, Note_off_c, 0, 64, 0
2, 191708, Note_off_c, 0, 67, 0
2, 191712, Note_on_c, 0, 69, 66
2, 191804, Note_off_c, 0, 69, 0
2, 191808, Note_on_c, 0, 61, 66
2, 191808, Note_on_c, 0, 64, 66
2, 191900, Note_off_c, 0, 61, 0
2, 191900, Note_off_c, 0, 64, 0
2, 191904, Note_on_c, 0, 69, 66
2, 191996, Note_off_c, 0, 69, 0
2, 192000, Note_on_c, 0, 62, 66
2, 192000, Note_on_c, 0, 66, 66
2, 192092, Note_off_c, 0, 66, 0
2, 192096, Note_on_c, 0, 69, 66
2, 192188, Note_off_c, 0, 69, 0
2, 192192, Note_on_c, 0, 74, 66
2, 192284, Note_off_c, 0, 74, 0
2, 192288, Note_on_c, 0, 69, 66
2, 192380, Note_off_c, 0, 62, 0
2, 192380, Note_off_c, 0, 69, 0
2, 192384, Note_on_c, 0, 78, 66
2, 192476, Note_off_c, 0, 78, 0
2, 192480, Note_on_c, 0, 74, 66
2, 192572, Note_off_c, 0, 74, 0
2, 192576, Note_on_c, 0, 81, 69
2, 192668, Note_off_c, 0, 81, 0
2, 192672, Note_on_c, 0, 78, 66
2, 192764, Note_off_c, 0, 78, 0
2, 192768, Note_on_c, 0, 85, 72
2, 192860, Note_off_c, 0, 85, 0
2, 192864, Note_on_c, 0, 83, 72
2, 192956, Note_off_c, 0, 83, 0
2, 192960, Note_on_c, 0, 81, 74
2, 193052, Note_off_c, 0, 81, 0
2, 193056, Note_on_c, 0, 79, 79
2, 193148, Note_off_c, 0, 79, 0
2, 193152, Note_on_c, 0, 78, 83
2, 193244, Note_off_c, 0, 78, 0
2, 193248, Note_on_c, 0, 76, 88
2, 193340, Note_off_c, 0, 76, 0
2, 193344, Note_on_c, 0, 74, 92
2, 193436, Note_off_c, 0, 74, 0
2, 193440, Note_on_c, 0, 73, 96
2, 193532, Note_off_c, 0, 73, 0
2, 193536, Note_on_c, 0, 71, 101
2, 193916, Note_off_c, 0, 71, 0
2, 196608, Note_on_c, 0, 83, 90
2, 197372, Note_off_c, 0, 83, 0
2, 197376, Note_on_c, 0, 81, 93
2, 197468, Note_off_c, 0, 81, 0
2, 197472, Note_on_c, 0, 79, 88
2, 197756, Note_off_c, 0, 79, 0
2, 197760, Note_on_c, 0, 78, 93
2, 197852, Note_off_c, 0, 78, 0
2, 197856, Note_on_c, 0, 76, 88
2, 198140, Note_off_c, 0, 76, 0
2, 198144, Note_on_c, 0, 75, 88
2, 198716, Note_off_c, 0, 75, 0
2, 198720, Note_on_c, 0, 76, 88
2, 198812, Note_off_c, 0, 76, 0
2, 198816, Note_on_c, 0, 78, 88
2, 198908, Note_off_c, 0, 78, 0
2, 198912, Note_on_c, 0, 76, 88
2, 199292, Note_off_c, 0, 76, 0
2, 199680, Note_on_c, 0, 69, 73
2, 199772, Note_off_c, 0, 69, 0
2, 199776, Note_on_c, 0, 81, 66
2, 200448, Note_off_c, 0, 81, 0
2, 200448, Note_on_c, 0, 79, 71
2, 200540, Note_off_c, 0, 79, 0
2, 200544, Note_on_c, 0, 78, 66
2, 200828, Note_off_c, 0, 78, 0
2, 200832, Note_on_c, 0, 76, 71
2, 200924, Note_off_c, 0, 76, 0
2, 200928, Note_on_c, 0, 74, 66
2, 201212, Note_off_c, 0, 74, 0
2, 201216, Note_on_c, 0, 73, 71
2, 201788, Note_off_c, 0, 73, 0
2, 201792, Note_on_c, 0, 74, 66
2, 201884, Note_off_c, 0, 74, 0
2, 201888, Note_on_c, 0, 76, 66
2, 201980, Note_off_c, 0, 76, 0
2, 201984, Note_on_c, 0, 74, 66
2, 202364, Note_off_c, 0, 74, 0
2, 202752, Note_on_c, 0, 72, 69
2, 203516, Note_off_c, 0, 72, 0
2, 203520, Note_on_c, 0, 76, 85
2, 204284, Note_off_c, 0, 76, 0
2, 204288, Note_on_c, 0, 79, 100
2, 204668, Note_off_c, 0, 79, 0
2, 204672, Note_on_c, 0, 76, 92
2, 205052, Note_off_c, 0, 76, 0
2, 205056, Note_on_c, 0, 72, 82
2, 205436, Note_off_c, 0, 72, 0
2, 205440, Note_on_c, 0, 71, 73
2, 205820, Note_off_c, 0, 71, 0
2, 205824, Note_on_c, 0, 70, 66
2, 205916, Note_off_c, 0, 70, 0
2, 205920, Note_on_c, 0, 78, 66
2, 206012, Note_off_c, 0, 78, 0
2, 206016, Note_on_c, 0, 77, 66
2, 206108, Note_off_c, 0, 77, 0
2, 206112, Note_on_c, 0, 78, 66
2, 206204, Note_off_c, 0, 78, 0
2, 206208, Note_on_c, 0, 79, 66
2, 206300, Note_off_c, 0, 79, 0
2, 206304, Note_on_c, 0, 78, 66
2, 206396, Note_off_c, 0, 78, 0
2, 206400, Note_on_c, 0, 77, 66
2, 206492, Note_off_c, 0, 77, 0
2, 206496, Note_on_c, 0, 78, 66
2, 206588, Note_off_c, 0, 78, 0
2, 206592, Note_on_c, 0, 76, 66
2, 206684, Note_off_c, 0, 76, 0
2, 206688, Note_on_c, 0, 78, 66
2, 206780, Note_off_c, 0, 78, 0
2, 206784, Note_on_c, 0, 74, 66
2, 206876, Note_off_c, 0, 74, 0
2, 206880, Note_on_c, 0, 78, 66
2, 206972, Note_off_c, 0, 78, 0
2, 206976, Note_on_c, 0, 73, 66
2, 207068, Note_off_c, 0, 73, 0
2, 207072, Note_on_c, 0, 78, 66
2, 207164, Note_off_c, 0, 78, 0
2, 207168, Note_on_c, 0, 76, 66
2, 207260, Note_off_c, 0, 76, 0
2, 207264, Note_on_c, 0, 78, 66
2, 207356, Note_off_c, 0, 78, 0
2, 207360, Note_on_c, 0, 74, 66
2, 207452, Note_off_c, 0, 74, 0
2, 207456, Note_on_c, 0, 71, 66
2, 207548, Note_off_c, 0, 71, 0
2, 207552, Note_on_c, 0, 70, 66
2, 207644, Note_off_c, 0, 70, 0
2, 207648, Note_on_c, 0, 71, 66
2, 207740, Note_off_c, 0, 71, 0
2, 207744, Note_on_c, 0, 73, 66
2, 207836, Note_off_c, 0, 73, 0
2, 207840, Note_on_c, 0, 71, 66
2, 207932, Note_off_c, 0, 71, 0
2, 207936, Note_on_c, 0, 69, 66
2, 208028, Note_off_c, 0, 69, 0
2, 208032, Note_on_c, 0, 71, 66
2, 208124, Note_off_c, 0, 71, 0
2, 208128, Note_on_c, 0, 69, 66
2, 208220, Note_off_c, 0, 69, 0
2, 208224, Note_on_c, 0, 71, 66
2, 208316, Note_off_c, 0, 71, 0
2, 208320, Note_on_c, 0, 67, 66
2, 208412, Note_off_c, 0, 67, 0
2, 208416, Note_on_c, 0, 71, 66
2, 208508, Note_off_c, 0, 71, 0
2, 208512, Note_on_c, 0, 66, 66
2, 208604, Note_off_c, 0, 66, 0
2, 208608, Note_on_c, 0, 71, 66
2, 208700, Note_off_c, 0, 71, 0
2, 208704, Note_on_c, 0, 69, 66
2, 208796, Note_off_c, 0, 69, 0
2, 208800, Note_on_c, 0, 71, 66
2, 208892, Note_off_c, 0, 71, 0
2, 208896, Note_on_c, 0, 67, 66
2, 208988, Note_off_c, 0, 67, 0
2, 208992, Note_on_c, 0, 76, 66
2, 209084, Note_off_c, 0, 76, 0
2, 209088, Note_on_c, 0, 75, 66
2, 209180, Note_off_c, 0, 75, 0
2, 209184, Note_on_c, 0, 76, 66
2, 209276, Note_off_c, 0, 76, 0
2, 209280, Note_on_c, 0, 78, 66
2, 209372, Note_off_c, 0, 78, 0
2, 209376, Note_on_c, 0, 76, 66
2, 209468, Note_off_c, 0, 76, 0
2, 209472, Note_on_c, 0, 74, 66
2, 209564, Note_off_c, 0, 74, 0
2, 209568, Note_on_c, 0, 76, 66
2, 209660, Note_off_c, 0, 76, 0
2, 209664, Note_on_c, 0, 74, 66
2, 209756, Note_off_c, 0, 74, 0
2, 209760, Note_on_c, 0, 76, 66
2, 209852, Note_off_c, 0, 76, 0
2, 209856, Note_on_c, 0, 73, 66
2, 209948, Note_off_c, 0, 73, 0
2, 209952, Note_on_c, 0, 76, 66
2, 210044, Note_off_c, 0, 76, 0
2, 210048, Note_on_c, 0, 71, 66
2, 210140, Note_off_c, 0, 71, 0
2, 210144, Note_on_c, 0, 76, 66
2, 210236, Note_off_c, 0, 76, 0
2, 210240, Note_on_c, 0, 74, 66
2, 210332, Note_off_c, 0, 74, 0
2, 210336, Note_on_c, 0, 76, 66
2, 210428, Note_off_c, 0, 76, 0
2, 210432, Note_on_c, 0, 73, 66
2, 210524, Note_off_c, 0, 73, 0
2, 210528, Note_on_c, 0, 81, 66
2, 210620, Note_off_c, 0, 81, 0
2, 210624, Note_on_c, 0, 80, 66
2, 210716, Note_off_c, 0, 80, 0
2, 210720, Note_on_c, 0, 81, 66
2, 210812, Note_off_c, 0, 81, 0
2, 210816, Note_on_c, 0, 83, 66
2, 210908, Note_off_c, 0, 83, 0
2, 210912, Note_on_c, 0, 81, 66
2, 211004, Note_off_c, 0, 81, 0
2, 211008, Note_on_c, 0, 80, 66
2, 211100, Note_off_c, 0, 80, 0
2, 211104, Note_on_c, 0, 81, 66
2, 211196, Note_off_c, 0, 81, 0
2, 211200, Note_on_c, 0, 79, 66
2, 211292, Note_off_c, 0, 79, 0
2, 211296, Note_on_c, 0, 81, 66
2, 211388, Note_off_c, 0, 81, 0
2, 211392, Note_on_c, 0, 78, 66
2, 211484, Note_off_c, 0, 78, 0
2, 211488, Note_on_c, 0, 81, 66
2, 211580, Note_off_c, 0, 81, 0
2, 211584, Note_on_c, 0, 76, 66
2, 211676, Note_off_c, 0, 76, 0
2, 211680, Note_on_c, 0, 81, 66
2, 211772, Note_off_c, 0, 81, 0
2, 211776, Note_on_c, 0, 79, 66
2, 211868, Note_off_c, 0, 79, 0
2, 211872, Note_on_c, 0, 81, 66
2, 211964, Note_off_c, 0, 81, 0
2, 211968, Note_on_c, 0, 78, 66
2, 212060, Note_off_c, 0, 78, 0
2, 212064, Note_on_c, 0, 74, 66
2, 212156, Note_off_c, 0, 74, 0
2, 212160, Note_on_c, 0, 78, 66
2, 212252, Note_off_c, 0, 78, 0
2, 212256, Note_on_c, 0, 81, 69
2, 212348, Note_off_c, 0, 81, 0
2, 212352, Note_on_c, 0, 86, 71
2, 212444, Note_off_c, 0, 86, 0
2, 212448, Note_on_c, 0, 81, 69
2, 212540, Note_off_c, 0, 81, 0
2, 212544, Note_on_c, 0, 78, 66
2, 212636, Note_off_c, 0, 78, 0
2, 212640, Note_on_c, 0, 74, 67
2, 212732, Note_off_c, 0, 74, 0
2, 212736, Note_on_c, 0, 83, 72
2, 212828, Note_off_c, 0, 83, 0
2, 212832, Note_on_c, 0, 81, 72
2, 212924, Note_off_c, 0, 81, 0
2, 212928, Note_on_c, 0, 79, 70
2, 213020, Note_off_c, 0, 79, 0
2, 213024, Note_on_c, 0, 78, 71
2, 213116, Note_off_c, 0, 78, 0
2, 213120, Note_on_c, 0, 76, 73
2, 213212, Note_off_c, 0, 76, 0
2, 213216, Note_on_c, 0, 74, 74
2, 213308, Note_off_c, 0, 74, 0
2, 213312, Note_on_c, 0, 73, 75
2, 213404, Note_off_c, 0, 73, 0
2, 213408, Note_on_c, 0, 74, 77
2, 213500, Note_off_c, 0, 74, 0
2, 213504, Note_on_c, 0, 73, 79
2, 213596, Note_off_c, 0, 73, 0
2, 213600, Note_on_c, 0, 69, 80
2, 213692, Note_off_c, 0, 69, 0
2, 213696, Note_on_c, 0, 71, 81
2, 213788, Note_off_c, 0, 71, 0
2, 213792, Note_on_c, 0, 73, 82
2, 213884, Note_off_c, 0, 73, 0
2, 213888, Note_on_c, 0, 74, 84
2, 213980, Note_off_c, 0, 74, 0
2, 213984, Note_on_c, 0, 69, 85
2, 214076, Note_off_c, 0, 69, 0
2, 214080, Note_on_c, 0, 66, 86
2, 214172, Note_off_c, 0, 66, 0
2, 214176, Note_on_c, 0, 62, 88
2, 214268, Note_off_c, 0, 62, 0
2, 214272, Note_on_c, 0, 71, 90
2, 214364, Note_off_c, 0, 71, 0
2, 214368, Note_on_c, 0, 69, 91
2, 214460, Note_off_c, 0, 69, 0
2, 214464, Note_on_c, 0, 67, 92
2, 214556, Note_off_c, 0, 67, 0
2, 214560, Note_on_c, 0, 66, 93
2, 214652, Note_off_c, 0, 66, 0
2, 214656, Note_on_c, 0, 64, 94
2, 214748, Note_off_c, 0, 64, 0
2, 214752, Note_on_c, 0, 62, 95
2, 214844, Note_off_c, 0, 62, 0
2, 214848, Note_on_c, 0, 61, 96
2, 214940, Note_off_c, 0, 61, 0
2, 214944, Note_on_c, 0, 62, 97
2, 215036, Note_off_c, 0, 62, 0
2, 215040, Note_on_c, 0, 61, 99
2, 215420, Note_off_c, 0, 61, 0
2, 215616, Note_on_c, 0, 78, 99
2, 215616, Note_on_c, 0, 74, 99
2, 215616, Note_on_c, 0, 69, 99
2, 215804, Note_off_c, 0, 78, 0
2, 215804, Note_off_c, 0, 74, 0
2, 215804, Note_off_c, 0, 69, 0
2, 215808, Note_on_c, 0, 76, 99
2, 215808, Note_on_c, 0, 73, 99
2, 215808, Note_on_c, 0, 69, 99
2, 216188, Note_off_c, 0, 76, 0
2, 216188, Note_off_c, 0, 73, 0
2, 216188, Note_off_c, 0, 69, 0
2, 216384, Note_on_c, 0, 78, 99
2, 216384, Note_on_c, 0, 74, 99
2, 216384, Note_on_c, 0, 69, 99
2, 216572, Note_off_c, 0, 78, 0
2, 216572, Note_off_c, 0, 74, 0
2, 216572, Note_off_c, 0, 69, 0
2, 216576, Note_on_c, 0, 76, 99
2, 216668, Note_off_c, 0, 76, 0
2, 216672, Note_on_c, 0, 81, 99
2, 216764, Note_off_c, 0, 81, 0
2, 216768, Note_on_c, 0, 80, 99
2, 216860, Note_off_c, 0, 80, 0
2, 216864, Note_on_c, 0, 81, 99
2, 216956, Note_off_c, 0, 81, 0
2, 216960, Note_on_c, 0, 76, 99
2, 217052, Note_off_c, 0, 76, 0
2, 217056, Note_on_c, 0, 81, 99
2, 217148, Note_off_c, 0, 81, 0
2, 217152, Note_on_c, 0, 78, 99
2, 217244, Note_off_c, 0, 78, 0
2, 217248, Note_on_c, 0, 74, 99
2, 217340, Note_off_c, 0, 74, 0
2, 217344, Note_on_c, 0, 69, 99
2, 217436, Note_off_c, 0, 69, 0
2, 217440, Note_on_c, 0, 81, 99
2, 217532, Note_off_c, 0, 81, 0
2, 217536, Note_on_c, 0, 80, 99
2, 217628, Note_off_c, 0, 80, 0
2, 217632, Note_on_c, 0, 81, 99
2, 217724, Note_off_c, 0, 81, 0
2, 217728, Note_on_c, 0, 76, 99
2, 217820, Note_off_c, 0, 76, 0
2, 217824, Note_on_c, 0, 81, 99
2, 217916, Note_off_c, 0, 81, 0
2, 217920, Note_on_c, 0, 78, 99
2, 218012, Note_off_c, 0, 78, 0
2, 218016, Note_on_c, 0, 74, 99
2, 218108, Note_off_c, 0, 74, 0
2, 218112, Note_on_c, 0, 69, 99
2, 218492, Note_off_c, 0, 69, 0
2, 218496, Note_on_c, 0, 81, 99
2, 218496, Note_on_c, 0, 76, 99
2, 218496, Note_on_c, 0, 73, 99
2, 218876, Note_off_c, 0, 81, 0
2, 218876, Note_off_c, 0, 76, 0
2, 218876, Note_off_c, 0, 73, 0
2, 218880, Note_on_c, 0, 81, 99
2, 218880, Note_on_c, 0, 76, 99
2, 218880, Note_on_c, 0, 73, 99
2, 219260, Note_off_c, 0, 81, 0
2, 219260, Note_off_c, 0, 76, 0
2, 219260, Note_off_c, 0, 73, 0
2, 224256, Note_on_c, 0, 74, 99
2, 224256, Note_on_c, 0, 69, 99
2, 224256, Note_on_c, 0, 66, 99
2, 224828, Note_off_c, 0, 74, 0
2, 224828, Note_off_c, 0, 69, 0
2, 224828, Note_off_c, 0, 66, 0
2, 224832, Note_on_c, 0, 76, 99
2, 224876, Note_off_c, 0, 76, 0
2, 224880, Note_on_c, 0, 74, 99
2, 224924, Note_off_c, 0, 74, 0
2, 224928, Note_on_c, 0, 73, 99
2, 224972, Note_off_c, 0, 73, 0
2, 224976, Note_on_c, 0, 74, 99
2, 225020, Note_off_c, 0, 74, 0
2, 225024, Note_on_c, 0, 76, 99
2, 225116, Note_off_c, 0, 76, 0
2, 225216, Note_on_c, 0, 74, 99
2, 225308, Note_off_c, 0, 74, 0
2, 225408, Note_on_c, 0, 76, 99
2, 225500, Note_off_c, 0, 76, 0
2, 225600, Note_on_c, 0, 73, 99
2, 225692, Note_off_c, 0, 73, 0
2, 225792, Note_on_c, 0, 74, 99
2, 225792, Note_on_c, 0, 69, 99
2, 225792, Note_on_c, 0, 66, 99
2, 226364, Note_off_c, 0, 74, 0
2, 226364, Note_off_c, 0, 69, 0
2, 226364, Note_off_c, 0, 66, 0
2, 226368, Note_on_c, 0, 79, 99
2, 226412, Note_off_c, 0, 79, 0
2, 226416, Note_on_c, 0, 78, 99
2, 226460, Note_off_c, 0, 78, 0
2, 226464, Note_on_c, 0, 76, 99
2, 226508, Note_off_c, 0, 76, 0
2, 226512, Note_on_c, 0, 78, 99
2, 226556, Note_off_c, 0, 78, 0
2, 226560, Note_on_c, 0, 79, 99
2, 226652, Note_off_c, 0, 79, 0
2, 226752, Note_on_c, 0, 78, 99
2, 226844, Note_off_c, 0, 78, 0
2, 226944, Note_on_c, 0, 79, 99
2, 227036, Note_off_c, 0, 79, 0
2, 227136, Note_on_c, 0, 76, 99
2, 227228, Note_off_c, 0, 76, 0
2, 227328, Note_on_c, 0, 78, 99
2, 227328, Note_on_c, 0, 74, 99
2, 227328, Note_on_c, 0, 69, 99
2, 227900, Note_off_c, 0, 78, 0
2, 227900, Note_off_c, 0, 74, 0
2, 227900, Note_off_c, 0, 69, 0
2, 227904, Note_on_c, 0, 83, 99
2, 227948, Note_off_c, 0, 83, 0
2, 227952, Note_on_c, 0, 81, 99
2, 227996, Note_off_c, 0, 81, 0
2, 228000, Note_on_c, 0, 79, 99
2, 228044, Note_off_c, 0, 79, 0
2, 228048, Note_on_c, 0, 81, 99
2, 228092, Note_off_c, 0, 81, 0
2, 228096, Note_on_c, 0, 83, 99
2, 228188, Note_off_c, 0, 83, 0
2, 228288, Note_on_c, 0, 81, 99
2, 228380, Note_off_c, 0, 81, 0
2, 228480, Note_on_c, 0, 83, 99
2, 228572, Note_off_c, 0, 83, 0
2, 228672, Note_on_c, 0, 85, 99
2, 228764, Note_off_c, 0, 85, 0
2, 228864, Note_on_c, 0, 86, 99
2, 229244, Note_off_c, 0, 86, 0
2, 229248, Note_on_c, 0, 74, 99
2, 229248, Note_on_c, 0, 69, 99
2, 229248, Note_on_c, 0, 66, 99
2, 229628, Note_off_c, 0, 74, 0
2, 229628, Note_off_c, 0, 69, 0
2, 229628, Note_off_c, 0, 66, 0
2, 229824, Note_on_c, 0, 74, 99
2, 229824, Note_on_c, 0, 69, 99
2, 229916, Note_off_c, 0, 74, 0
2, 229916, Note_off_c, 0, 69, 0
2, 230016, Note_on_c, 0, 78, 99
2, 230016, Note_on_c, 0, 74, 99
2, 230108, Note_off_c, 0, 78, 0
2, 230108, Note_off_c, 0, 74, 0
2, 230208, Note_on_c, 0, 78, 99
2, 230208, Note_on_c, 0, 81, 99
2, 230300, Note_off_c, 0, 78, 0
2, 230300, Note_off_c, 0, 81, 0
2, 230400, Note_on_c, 0, 83, 99
2, 230400, Note_on_c, 0, 79, 99
2, 230688, Note_on_c, 0, 79, 99
2, 230688, Note_on_c, 0, 74, 99
2, 230780, Note_off_c, 0, 79, 0
2, 230780, Note_off_c, 0, 74, 0
2, 230784, Note_on_c, 0, 83, 99
2, 230784, Note_on_c, 0, 79, 99
2, 230972, Note_off_c, 0, 83, 0
2, 230972, Note_off_c, 0, 79, 0
2, 231164, Note_off_c, 0, 83, 0
2, 231164, Note_off_c, 0, 79, 0
2, 231360, Note_on_c, 0, 74, 99
2, 231360, Note_on_c, 0, 71, 99
2, 231452, Note_off_c, 0, 74, 0
2, 231452, Note_off_c, 0, 71, 0
2, 231552, Note_on_c, 0, 79, 99
2, 231552, Note_on_c, 0, 74, 99
2, 231644, Note_off_c, 0, 79, 0
2, 231644, Note_off_c, 0, 74, 0
2, 231744, Note_on_c, 0, 79, 99
2, 231744, Note_on_c, 0, 83, 99
2, 231836, Note_off_c, 0, 79, 0
2, 231836, Note_off_c, 0, 83, 0
2, 231936, Note_on_c, 0, 81, 99
2, 231936, Note_on_c, 0, 78, 99
2, 232224, Note_on_c, 0, 78, 99
2, 232224, Note_on_c, 0, 74, 102
2, 232316, Note_off_c, 0, 78, 0
2, 232316, Note_off_c, 0, 74, 0
2, 232320, Note_on_c, 0, 78, 99
2, 232320, Note_on_c, 0, 81, 99
2, 232508, Note_off_c, 0, 81, 0
2, 232508, Note_off_c, 0, 78, 0
2, 232700, Note_off_c, 0, 78, 0
2, 232700, Note_off_c, 0, 81, 0
2, 232896, Note_on_c, 0, 74, 91
2, 232896, Note_on_c, 0, 69, 91
2, 232988, Note_off_c, 0, 74, 0
2, 232988, Note_off_c, 0, 69, 0
2, 233088, Note_on_c, 0, 78, 82
2, 233088, Note_on_c, 0, 74, 82
2, 233180, Note_off_c, 0, 78, 0
2, 233180, Note_off_c, 0, 74, 0
2, 233280, Note_on_c, 0, 81, 75
2, 233280, Note_on_c, 0, 78, 74
2, 233372, Note_off_c, 0, 81, 0
2, 233372, Note_off_c, 0, 78, 0
2, 233472, Note_on_c, 0, 81, 70
2, 233564, Note_off_c, 0, 81, 0
2, 233568, Note_on_c, 0, 79, 62
2, 233852, Note_off_c, 0, 79, 0
2, 233856, Note_on_c, 0, 78, 70
2, 233948, Note_off_c, 0, 78, 0
2, 233952, Note_on_c, 0, 76, 62
2, 234236, Note_off_c, 0, 76, 0
2, 234240, Note_on_c, 0, 74, 70
2, 234332, Note_off_c, 0, 74, 0
2, 234336, Note_on_c, 0, 73, 62
2, 234620, Note_off_c, 0, 73, 0
2, 234624, Note_on_c, 0, 83, 70
2, 234704, Note_on_c, 0, 81, 62
2, 234716, Note_off_c, 0, 83, 0
2, 234988, Note_off_c, 0, 81, 0
2, 235008, Note_on_c, 0, 79, 70
2, 235100, Note_off_c, 0, 79, 0
2, 235104, Note_on_c, 0, 78, 62
2, 235388, Note_off_c, 0, 78, 0
2, 235392, Note_on_c, 0, 76, 70
2, 235484, Note_off_c, 0, 76, 0
2, 235488, Note_on_c, 0, 74, 62
2, 235772, Note_off_c, 0, 74, 0
2, 235776, Note_on_c, 0, 73, 70
2, 235856, Note_on_c, 0, 74, 62
2, 235868, Note_off_c, 0, 73, 0
2, 236140, Note_off_c, 0, 74, 0
2, 236160, Note_on_c, 0, 76, 70
2, 236252, Note_off_c, 0, 76, 0
2, 236256, Note_on_c, 0, 74, 62
2, 236540, Note_off_c, 0, 74, 0
2, 236544, Note_on_c, 0, 75, 70
2, 236636, Note_off_c, 0, 75, 0
2, 236640, Note_on_c, 0, 76, 62
2, 236924, Note_off_c, 0, 76, 0
2, 236928, Note_on_c, 0, 79, 70
2, 236928, Note_on_c, 0, 71, 70
2, 237020, Note_off_c, 0, 79, 0
2, 237020, Note_off_c, 0, 71, 0
2, 237024, Note_on_c, 0, 76, 62
2, 237024, Note_on_c, 0, 67, 62
2, 237308, Note_off_c, 0, 76, 0
2, 237308, Note_off_c, 0, 67, 0
2, 237312, Note_on_c, 0, 76, 70
2, 237312, Note_on_c, 0, 67, 62
2, 237372, Note_off_c, 0, 76, 0
2, 237376, Note_on_c, 0, 78, 69
2, 237436, Note_off_c, 0, 67, 0
2, 237436, Note_off_c, 0, 78, 0
2, 237440, Note_on_c, 0, 76, 69
2, 237500, Note_off_c, 0, 76, 0
2, 237504, Note_on_c, 0, 66, 66
2, 237504, Note_on_c, 0, 73, 66
2, 237692, Note_off_c, 0, 66, 0
2, 237692, Note_off_c, 0, 73, 0
2, 237696, Note_on_c, 0, 74, 69
2, 237696, Note_on_c, 0, 66, 66
2, 237756, Note_off_c, 0, 74, 0
2, 237760, Note_on_c, 0, 76, 69
2, 237820, Note_off_c, 0, 76, 0
2, 237824, Note_on_c, 0, 74, 69
2, 237884, Note_off_c, 0, 66, 0
2, 237884, Note_off_c, 0, 74, 0
2, 237888, Note_on_c, 0, 64, 66
2, 237888, Note_on_c, 0, 73, 66
2, 238076, Note_off_c, 0, 64, 0
2, 238076, Note_off_c, 0, 73, 0
2, 238080, Note_on_c, 0, 74, 99
2, 238080, Note_on_c, 0, 66, 99
2, 238460, Note_off_c, 0, 74, 0
2, 238460, Note_off_c, 0, 66, 0
2, 239424, Note_on_c, 0, 81, 88
2, 239612, Note_off_c, 0, 81, 0
2, 239616, Note_on_c, 0, 79, 88
2, 239708, Note_off_c, 0, 79, 0
2, 239712, Note_on_c, 0, 81, 88
2, 239804, Note_off_c, 0, 81, 0
2, 239808, Note_on_c, 0, 83, 91
2, 239900, Note_off_c, 0, 83, 0
2, 239904, Note_on_c, 0, 79, 88
2, 239996, Note_off_c, 0, 79, 0
2, 240000, Note_on_c, 0, 76, 85
2, 240092, Note_off_c, 0, 76, 0
2, 240096, Note_on_c, 0, 78, 83
2, 240188, Note_off_c, 0, 78, 0
2, 240192, Note_on_c, 0, 79, 80
2, 240284, Note_off_c, 0, 79, 0
2, 240288, Note_on_c, 0, 76, 78
2, 240380, Note_off_c, 0, 76, 0
2, 240384, Note_on_c, 0, 73, 74
2, 240476, Note_off_c, 0, 73, 0
2, 240480, Note_on_c, 0, 74, 72
2, 240572, Note_off_c, 0, 74, 0
2, 240576, Note_on_c, 0, 76, 69
2, 240668, Note_off_c, 0, 76, 0
2, 240672, Note_on_c, 0, 73, 67
2, 240764, Note_off_c, 0, 73, 0
2, 240768, Note_on_c, 0, 69, 66
2, 240860, Note_off_c, 0, 69, 0
2, 240864, Note_on_c, 0, 73, 71
2, 240956, Note_off_c, 0, 73, 0
2, 240960, Note_on_c, 0, 76, 78
2, 241052, Note_off_c, 0, 76, 0
2, 241056, Note_on_c, 0, 79, 83
2, 241148, Note_off_c, 0, 79, 0
2, 241152, Note_on_c, 0, 78, 88
2, 241244, Note_off_c, 0, 78, 0
2, 241248, Note_on_c, 0, 79, 85
2, 241340, Note_off_c, 0, 79, 0
2, 241344, Note_on_c, 0, 81, 85
2, 241436, Note_off_c, 0, 81, 0
2, 241440, Note_on_c, 0, 78, 79
2, 241532, Note_off_c, 0, 78, 0
2, 241536, Note_on_c, 0, 73, 75
2, 241628, Note_off_c, 0, 73, 0
2, 241632, Note_on_c, 0, 74, 73
2, 241724, Note_off_c, 0, 74, 0
2, 241728, Note_on_c, 0, 76, 70
2, 241820, Note_off_c, 0, 76, 0
2, 241824, Note_on_c, 0, 73, 67
2, 241916, Note_off_c, 0, 73, 0
2, 241920, Note_on_c, 0, 74, 68
2, 242012, Note_off_c, 0, 74, 0
2, 242016, Note_on_c, 0, 76, 70
2, 242108, Note_off_c, 0, 76, 0
2, 242112, Note_on_c, 0, 78, 73
2, 242204, Note_off_c, 0, 78, 0
2, 242208, Note_on_c, 0, 79, 75
2, 242300, Note_off_c, 0, 79, 0
2, 242304, Note_on_c, 0, 81, 79
2, 242396, Note_off_c, 0, 81, 0
2, 242400, Note_on_c, 0, 83, 81
2, 242492, Note_off_c, 0, 83, 0
2, 242496, Note_on_c, 0, 85, 86
2, 242588, Note_off_c, 0, 85, 0
2, 242592, Note_on_c, 0, 86, 90
2, 242684, Note_off_c, 0, 86, 0
2, 242688, Note_on_c, 0, 76, 88
2, 242780, Note_off_c, 0, 76, 0
2, 242784, Note_on_c, 0, 78, 88
2, 242876, Note_off_c, 0, 78, 0
2, 242880, Note_on_c, 0, 76, 88
2, 242972, Note_off_c, 0, 76, 0
2, 242976, Note_on_c, 0, 74, 88
2, 243068, Note_off_c, 0, 74, 0
2, 243072, Note_on_c, 0, 76, 88
2, 243164, Note_off_c, 0, 76, 0
2, 243168, Note_on_c, 0, 83, 88
2, 243260, Note_off_c, 0, 83, 0
2, 243264, Note_on_c, 0, 81, 88
2, 243356, Note_off_c, 0, 81, 0
2, 243360, Note_on_c, 0, 79, 88
2, 243452, Note_off_c, 0, 79, 0
2, 243456, Note_on_c, 0, 78, 88
2, 243548, Note_off_c, 0, 78, 0
2, 243552, Note_on_c, 0, 81, 85
2, 243644, Note_off_c, 0, 81, 0
2, 243648, Note_on_c, 0, 74, 82
2, 243740, Note_off_c, 0, 74, 0
2, 243744, Note_on_c, 0, 78, 79
2, 243836, Note_off_c, 0, 78, 0
2, 243840, Note_on_c, 0, 76, 75
2, 243932, Note_off_c, 0, 76, 0
2, 243936, Note_on_c, 0, 79, 73
2, 244028, Note_off_c, 0, 79, 0
2, 244032, Note_on_c, 0, 73, 70
2, 244124, Note_off_c, 0, 73, 0
2, 244128, Note_on_c, 0, 76, 67
2, 244220, Note_off_c, 0, 76, 0
2, 244224, Note_on_c, 0, 74, 66
2, 244604, Note_off_c, 0, 74, 0
2, 247296, Note_on_c, 0, 62, 99
2, 248060, Note_off_c, 0, 62, 0
2, 248064, Note_on_c, 0, 66, 88
2, 248444, Note_off_c, 0, 66, 0
2, 248448, Note_on_c, 0, 69, 77
2, 248828, Note_off_c, 0, 69, 0
2, 248832, Note_on_c, 0, 74, 66
2, 248924, Note_off_c, 0, 74, 0
2, 248928, Note_on_c, 0, 69, 66
2, 249020, Note_off_c, 0, 69, 0
2, 249024, Note_on_c, 0, 68, 66
2, 249116, Note_off_c, 0, 68, 0
2, 249120, Note_on_c, 0, 69, 66
2, 249212, Note_off_c, 0, 69, 0
2, 249216, Note_on_c, 0, 74, 66
2, 249308, Note_off_c, 0, 74, 0
2, 249312, Note_on_c, 0, 69, 66
2, 249404, Note_off_c, 0, 69, 0
2, 249408, Note_on_c, 0, 78, 66
2, 249500, Note_off_c, 0, 78, 0
2, 249504, Note_on_c, 0, 73, 66
2, 249596, Note_off_c, 0, 73, 0
2, 249600, Note_on_c, 0, 81, 70
2, 249692, Note_off_c, 0, 81, 0
2, 249696, Note_on_c, 0, 74, 66
2, 249788, Note_off_c, 0, 74, 0
2, 249792, Note_on_c, 0, 73, 66
2, 249884, Note_off_c, 0, 73, 0
2, 249888, Note_on_c, 0, 74, 66
2, 249980, Note_off_c, 0, 74, 0
2, 249984, Note_on_c, 0, 78, 68
2, 250076, Note_off_c, 0, 78, 0
2, 250080, Note_on_c, 0, 74, 75
2, 250172, Note_off_c, 0, 74, 0
2, 250176, Note_on_c, 0, 81, 87
2, 250268, Note_off_c, 0, 81, 0
2, 250272, Note_on_c, 0, 78, 92
2, 250364, Note_off_c, 0, 78, 0
2, 250368, Note_on_c, 0, 86, 93
2, 250460, Note_off_c, 0, 86, 0
2, 250464, Note_on_c, 0, 81, 90
2, 250556, Note_off_c, 0, 81, 0
2, 250560, Note_on_c, 0, 78, 85
2, 250652, Note_off_c, 0, 78, 0
2, 250656, Note_on_c, 0, 74, 82
2, 250748, Note_off_c, 0, 74, 0
2, 250752, Note_on_c, 0, 81, 79
2, 250844, Note_off_c, 0, 81, 0
2, 250848, Note_on_c, 0, 78, 75
2, 250940, Note_off_c, 0, 78, 0
2, 250944, Note_on_c, 0, 74, 72
2, 251036, Note_off_c, 0, 74, 0
2, 251040, Note_on_c, 0, 69, 68
2, 251132, Note_off_c, 0, 69, 0
2, 251136, Note_on_c, 0, 78, 66
2, 251228, Note_off_c, 0, 78, 0
2, 251232, Note_on_c, 0, 74, 66
2, 251324, Note_off_c, 0, 74, 0
2, 251328, Note_on_c, 0, 69, 66
2, 251420, Note_off_c, 0, 69, 0
2, 251424, Note_on_c, 0, 66, 66
2, 251516, Note_off_c, 0, 66, 0
2, 251520, Note_on_c, 0, 74, 66
2, 251612, Note_off_c, 0, 74, 0
2, 251616, Note_on_c, 0, 69, 66
2, 251708, Note_off_c, 0, 69, 0
2, 251712, Note_on_c, 0, 66, 66
2, 251804, Note_off_c, 0, 66, 0
2, 251808, Note_on_c, 0, 62, 66
2, 251900, Note_off_c, 0, 62, 0
2, 251904, Note_on_c, 0, 67, 73
2, 251904, Note_on_c, 0, 62, 73
2, 251904, Note_on_c, 0, 59, 73
2, 252284, Note_off_c, 0, 67, 0
2, 252284, Note_off_c, 0, 62, 0
2, 252284, Note_off_c, 0, 59, 0
2, 253440, Note_on_c, 0, 62, 92
2, 254204, Note_off_c, 0, 62, 0
2, 254208, Note_on_c, 0, 67, 82
2, 254588, Note_off_c, 0, 67, 0
2, 254592, Note_on_c, 0, 71, 72
2, 254972, Note_off_c, 0, 71, 0
2, 254976, Note_on_c, 0, 74, 66
2, 255068, Note_off_c, 0, 74, 0
2, 255072, Note_on_c, 0, 67, 66
2, 255164, Note_off_c, 0, 67, 0
2, 255168, Note_on_c, 0, 66, 66
2, 255260, Note_off_c, 0, 66, 0
2, 255264, Note_on_c, 0, 67, 66
2, 255356, Note_off_c, 0, 67, 0
2, 255360, Note_on_c, 0, 71, 66
2, 255452, Note_off_c, 0, 71, 0
2, 255456, Note_on_c, 0, 67, 66
2, 255548, Note_off_c, 0, 67, 0
2, 255552, Note_on_c, 0, 74, 66
2, 255644, Note_off_c, 0, 74, 0
2, 255648, Note_on_c, 0, 71, 66
2, 255740, Note_off_c, 0, 71, 0
2, 255744, Note_on_c, 0, 79, 66
2, 255836, Note_off_c, 0, 79, 0
2, 255840, Note_on_c, 0, 74, 66
2, 255932, Note_off_c, 0, 74, 0
2, 255936, Note_on_c, 0, 73, 66
2, 256028, Note_off_c, 0, 73, 0
2, 256032, Note_on_c, 0, 74, 66
2, 256124, Note_off_c, 0, 74, 0
2, 256128, Note_on_c, 0, 79, 71
2, 256220, Note_off_c, 0, 79, 0
2, 256224, Note_on_c, 0, 74, 77
2, 256316, Note_off_c, 0, 74, 0
2, 256320, Note_on_c, 0, 83, 84
2, 256412, Note_off_c, 0, 83, 0
2, 256416, Note_on_c, 0, 79, 88
2, 256508, Note_off_c, 0, 79, 0
2, 256512, Note_on_c, 0, 86, 91
2, 256604, Note_off_c, 0, 86, 0
2, 256608, Note_on_c, 0, 83, 83
2, 256700, Note_off_c, 0, 83, 0
2, 256704, Note_on_c, 0, 79, 77
2, 256796, Note_off_c, 0, 79, 0
2, 256800, Note_on_c, 0, 74, 71
2, 256892, Note_off_c, 0, 74, 0
2, 256896, Note_on_c, 0, 83, 69
2, 256988, Note_off_c, 0, 83, 0
2, 256992, Note_on_c, 0, 79, 68
2, 257084, Note_off_c, 0, 79, 0
2, 257088, Note_on_c, 0, 74, 67
2, 257180, Note_off_c, 0, 74, 0
2, 257184, Note_on_c, 0, 71, 66
2, 257276, Note_off_c, 0, 71, 0
2, 257280, Note_on_c, 0, 79, 66
2, 257372, Note_off_c, 0, 79, 0
2, 257376, Note_on_c, 0, 74, 66
2, 257468, Note_off_c, 0, 74, 0
2, 257472, Note_on_c, 0, 71, 66
2, 257564, Note_off_c, 0, 71, 0
2, 257568, Note_on_c, 0, 67, 66
2, 257660, Note_off_c, 0, 67, 0
2, 257664, Note_on_c, 0, 74, 66
2, 257756, Note_off_c, 0, 74, 0
2, 257760, Note_on_c, 0, 71, 66
2, 257852, Note_off_c, 0, 71, 0
2, 257856, Note_on_c, 0, 67, 66
2, 257948, Note_off_c, 0, 67, 0
2, 257952, Note_on_c, 0, 62, 66
2, 258044, Note_off_c, 0, 62, 0
2, 258048, Note_on_c, 0, 69, 66
2, 258048, Note_on_c, 0, 66, 66
2, 258048, Note_on_c, 0, 62, 66
2, 258140, Note_off_c, 0, 69, 0
2, 258140, Note_off_c, 0, 66, 0
2, 258140, Note_off_c, 0, 62, 0
2, 259584, Note_on_c, 0, 62, 92
2, 260348, Note_off_c, 0, 62, 0
2, 260352, Note_on_c, 0, 66, 82
2, 260732, Note_off_c, 0, 66, 0
2, 260736, Note_on_c, 0, 69, 74
2, 261116, Note_off_c, 0, 69, 0
2, 261120, Note_on_c, 0, 72, 68
2, 261212, Note_off_c, 0, 72, 0
2, 261216, Note_on_c, 0, 69, 66
2, 261308, Note_off_c, 0, 69, 0
2, 261312, Note_on_c, 0, 68, 66
2, 261404, Note_off_c, 0, 68, 0
2, 261408, Note_on_c, 0, 69, 66
2, 261500, Note_off_c, 0, 69, 0
2, 261504, Note_on_c, 0, 72, 66
2, 261596, Note_off_c, 0, 72, 0
2, 261600, Note_on_c, 0, 69, 66
2, 261692, Note_off_c, 0, 69, 0
2, 261696, Note_on_c, 0, 78, 66
2, 261788, Note_off_c, 0, 78, 0
2, 261792, Note_on_c, 0, 72, 66
2, 261884, Note_off_c, 0, 72, 0
2, 261888, Note_on_c, 0, 81, 68
2, 261980, Note_off_c, 0, 81, 0
2, 261984, Note_on_c, 0, 72, 71
2, 262076, Note_off_c, 0, 72, 0
2, 262080, Note_on_c, 0, 71, 74
2, 262172, Note_off_c, 0, 71, 0
2, 262176, Note_on_c, 0, 72, 78
2, 262268, Note_off_c, 0, 72, 0
2, 262272, Note_on_c, 0, 78, 81
2, 262364, Note_off_c, 0, 78, 0
2, 262368, Note_on_c, 0, 72, 84
2, 262460, Note_off_c, 0, 72, 0
2, 262464, Note_on_c, 0, 81, 86
2, 262556, Note_off_c, 0, 81, 0
2, 262560, Note_on_c, 0, 78, 89
2, 262652, Note_off_c, 0, 78, 0
2, 262656, Note_on_c, 0, 84, 90
2, 262748, Note_off_c, 0, 84, 0
2, 262752, Note_on_c, 0, 81, 86
2, 262844, Note_off_c, 0, 81, 0
2, 262848, Note_on_c, 0, 83, 85
2, 262940, Note_off_c, 0, 83, 0
2, 262944, Note_on_c, 0, 79, 81
2, 263036, Note_off_c, 0, 79, 0
2, 263040, Note_on_c, 0, 81, 78
2, 263132, Note_off_c, 0, 81, 0
2, 263136, Note_on_c, 0, 78, 74
2, 263228, Note_off_c, 0, 78, 0
2, 263232, Note_on_c, 0, 79, 71
2, 263324, Note_off_c, 0, 79, 0
2, 263328, Note_on_c, 0, 76, 68
2, 263420, Note_off_c, 0, 76, 0
2, 263424, Note_on_c, 0, 78, 66
2, 263516, Note_off_c, 0, 78, 0
2, 263520, Note_on_c, 0, 74, 66
2, 263612, Note_off_c, 0, 74, 0
2, 263616, Note_on_c, 0, 76, 66
2, 263708, Note_off_c, 0, 76, 0
2, 263712, Note_on_c, 0, 72, 66
2, 263804, Note_off_c, 0, 72, 0
2, 263808, Note_on_c, 0, 74, 66
2, 263900, Note_off_c, 0, 74, 0
2, 263904, Note_on_c, 0, 71, 66
2, 263996, Note_off_c, 0, 71, 0
2, 264000, Note_on_c, 0, 72, 66
2, 264092, Note_off_c, 0, 72, 0
2, 264096, Note_on_c, 0, 69, 66
2, 264188, Note_off_c, 0, 69, 0
2, 264192, Note_on_c, 0, 71, 66
2, 264284, Note_off_c, 0, 71, 0
2, 264288, Note_on_c, 0, 74, 66
2, 264380, Note_off_c, 0, 74, 0
2, 264384, Note_on_c, 0, 72, 66
2, 264476, Note_off_c, 0, 72, 0
2, 264480, Note_on_c, 0, 71, 66
2, 264572, Note_off_c, 0, 71, 0
2, 264576, Note_on_c, 0, 72, 66
2, 264668, Note_off_c, 0, 72, 0
2, 264672, Note_on_c, 0, 74, 66
2, 264764, Note_off_c, 0, 74, 0
2, 264768, Note_on_c, 0, 76, 66
2, 264860, Note_off_c, 0, 76, 0
2, 264864, Note_on_c, 0, 78, 66
2, 264956, Note_off_c, 0, 78, 0
2, 264960, Note_on_c, 0, 79, 66
2, 265052, Note_off_c, 0, 79, 0
2, 265056, Note_on_c, 0, 81, 66
2, 265148, Note_off_c, 0, 81, 0
2, 265152, Note_on_c, 0, 79, 66
2, 265244, Note_off_c, 0, 79, 0
2, 265248, Note_on_c, 0, 78, 66
2, 265340, Note_off_c, 0, 78, 0
2, 265344, Note_on_c, 0, 79, 66
2, 265436, Note_off_c, 0, 79, 0
2, 265440, Note_on_c, 0, 81, 66
2, 265532, Note_off_c, 0, 81, 0
2, 265536, Note_on_c, 0, 83, 66
2, 265628, Note_off_c, 0, 83, 0
2, 265632, Note_on_c, 0, 79, 66
2, 265724, Note_off_c, 0, 79, 0
2, 265728, Note_on_c, 0, 81, 66
2, 265820, Note_off_c, 0, 81, 0
2, 265824, Note_on_c, 0, 78, 66
2, 265916, Note_off_c, 0, 78, 0
2, 265920, Note_on_c, 0, 79, 66
2, 266012, Note_off_c, 0, 79, 0
2, 266016, Note_on_c, 0, 76, 66
2, 266108, Note_off_c, 0, 76, 0
2, 266112, Note_on_c, 0, 78, 66
2, 266204, Note_off_c, 0, 78, 0
2, 266208, Note_on_c, 0, 75, 66
2, 266300, Note_off_c, 0, 75, 0
2, 266304, Note_on_c, 0, 76, 66
2, 266396, Note_off_c, 0, 76, 0
2, 266400, Note_on_c, 0, 72, 66
2, 266492, Note_off_c, 0, 72, 0
2, 266496, Note_on_c, 0, 75, 66
2, 266588, Note_off_c, 0, 75, 0
2, 266592, Note_on_c, 0, 71, 66
2, 266684, Note_off_c, 0, 71, 0
2, 266688, Note_on_c, 0, 72, 66
2, 266780, Note_off_c, 0, 72, 0
2, 266784, Note_on_c, 0, 69, 66
2, 266876, Note_off_c, 0, 69, 0
2, 266880, Note_on_c, 0, 69, 66
2, 266972, Note_off_c, 0, 69, 0
2, 266976, Note_on_c, 0, 67, 66
2, 267068, Note_off_c, 0, 67, 0
2, 267072, Note_on_c, 0, 69, 66
2, 267164, Note_off_c, 0, 69, 0
2, 267168, Note_on_c, 0, 66, 66
2, 267260, Note_off_c, 0, 66, 0
2, 267264, Note_on_c, 0, 67, 66
2, 267356, Note_off_c, 0, 67, 0
2, 267360, Note_on_c, 0, 64, 66
2, 267452, Note_off_c, 0, 64, 0
2, 267456, Note_on_c, 0, 66, 66
2, 267548, Note_off_c, 0, 66, 0
2, 267552, Note_on_c, 0, 67, 66
2, 267644, Note_off_c, 0, 67, 0
2, 267648, Note_on_c, 0, 69, 66
2, 267740, Note_off_c, 0, 69, 0
2, 267744, Note_on_c, 0, 71, 66
2, 267836, Note_off_c, 0, 71, 0
2, 267840, Note_on_c, 0, 72, 66
2, 267932, Note_off_c, 0, 72, 0
2, 267936, Note_on_c, 0, 75, 66
2, 268028, Note_off_c, 0, 75, 0
2, 268032, Note_on_c, 0, 76, 66
2, 268124, Note_off_c, 0, 76, 0
2, 268128, Note_on_c, 0, 78, 66
2, 268220, Note_off_c, 0, 78, 0
2, 268224, Note_on_c, 0, 76, 66
2, 268316, Note_off_c, 0, 76, 0
2, 268320, Note_on_c, 0, 75, 66
2, 268412, Note_off_c, 0, 75, 0
2, 268416, Note_on_c, 0, 76, 66
2, 268508, Note_off_c, 0, 76, 0
2, 268512, Note_on_c, 0, 78, 66
2, 268604, Note_off_c, 0, 78, 0
2, 268608, Note_on_c, 0, 76, 66
2, 268700, Note_off_c, 0, 76, 0
2, 268704, Note_on_c, 0, 78, 66
2, 268796, Note_off_c, 0, 78, 0
2, 268800, Note_on_c, 0, 79, 66
2, 268892, Note_off_c, 0, 79, 0
2, 268896, Note_on_c, 0, 76, 66
2, 268988, Note_off_c, 0, 76, 0
2, 268992, Note_on_c, 0, 78, 66
2, 269084, Note_off_c, 0, 78, 0
2, 269088, Note_on_c, 0, 74, 66
2, 269180, Note_off_c, 0, 74, 0
2, 269184, Note_on_c, 0, 76, 66
2, 269276, Note_off_c, 0, 76, 0
2, 269280, Note_on_c, 0, 73, 66
2, 269372, Note_off_c, 0, 73, 0
2, 269376, Note_on_c, 0, 74, 66
2, 269468, Note_off_c, 0, 74, 0
2, 269472, Note_on_c, 0, 71, 66
2, 269564, Note_off_c, 0, 71, 0
2, 269568, Note_on_c, 0, 73, 66
2, 269660, Note_off_c, 0, 73, 0
2, 269664, Note_on_c, 0, 69, 66
2, 269756, Note_off_c, 0, 69, 0
2, 269760, Note_on_c, 0, 71, 66
2, 269852, Note_off_c, 0, 71, 0
2, 269856, Note_on_c, 0, 67, 66
2, 269948, Note_off_c, 0, 67, 0
2, 269952, Note_on_c, 0, 69, 66
2, 270044, Note_off_c, 0, 69, 0
2, 270048, Note_on_c, 0, 66, 66
2, 270140, Note_off_c, 0, 66, 0
2, 270144, Note_on_c, 0, 67, 66
2, 270236, Note_off_c, 0, 67, 0
2, 270240, Note_on_c, 0, 64, 66
2, 270332, Note_off_c, 0, 64, 0
2, 270336, Note_on_c, 0, 66, 66
2, 270336, Note_on_c, 0, 62, 66
2, 270428, Note_off_c, 0, 62, 0
2, 270432, Note_on_c, 0, 69, 66
2, 270524, Note_off_c, 0, 69, 0
2, 270528, Note_on_c, 0, 66, 66
2, 270620, Note_off_c, 0, 66, 0
2, 270624, Note_on_c, 0, 69, 66
2, 270716, Note_off_c, 0, 66, 0
2, 270716, Note_off_c, 0, 69, 0
2, 270720, Note_on_c, 0, 62, 66
2, 270720, Note_on_c, 0, 80, 71
2, 270784, Note_off_c, 0, 80, 0
2, 270784, Note_on_c, 0, 81, 68
2, 270812, Note_off_c, 0, 62, 0
2, 270816, Note_on_c, 0, 69, 68
2, 270876, Note_off_c, 0, 81, 0
2, 270908, Note_off_c, 0, 69, 0
2, 270912, Note_on_c, 0, 66, 66
2, 270912, Note_on_c, 0, 81, 68
2, 271004, Note_off_c, 0, 66, 0
2, 271004, Note_off_c, 0, 81, 0
2, 271008, Note_on_c, 0, 69, 66
2, 271100, Note_off_c, 0, 69, 0
2, 271104, Note_on_c, 0, 83, 69
2, 271104, Note_on_c, 0, 62, 66
2, 271196, Note_off_c, 0, 62, 0
2, 271200, Note_on_c, 0, 71, 66
2, 271292, Note_off_c, 0, 71, 0
2, 271296, Note_on_c, 0, 67, 66
2, 271376, Note_on_c, 0, 71, 66
2, 271388, Note_off_c, 0, 83, 0
2, 271388, Note_off_c, 0, 67, 0
2, 271392, Note_on_c, 0, 85, 68
2, 271436, Note_off_c, 0, 85, 0
2, 271440, Note_on_c, 0, 86, 69
2, 271468, Note_off_c, 0, 71, 0
2, 271484, Note_off_c, 0, 86, 0
2, 271488, Note_on_c, 0, 85, 68
2, 271488, Note_on_c, 0, 62, 66
2, 271580, Note_off_c, 0, 85, 0
2, 271580, Note_off_c, 0, 62, 0
2, 271584, Note_on_c, 0, 71, 66
2, 271584, Note_on_c, 0, 83, 66
2, 271676, Note_off_c, 0, 71, 0
2, 271676, Note_off_c, 0, 83, 0
2, 271680, Note_on_c, 0, 81, 66
2, 271680, Note_on_c, 0, 67, 66
2, 271772, Note_off_c, 0, 81, 0
2, 271772, Note_off_c, 0, 67, 0
2, 271776, Note_on_c, 0, 79, 66
2, 271776, Note_on_c, 0, 71, 66
2, 271868, Note_off_c, 0, 79, 0
2, 271868, Note_off_c, 0, 71, 0
2, 271872, Note_on_c, 0, 78, 66
2, 271872, Note_on_c, 0, 62, 66
2, 271964, Note_off_c, 0, 62, 0
2, 271968, Note_on_c, 0, 69, 66
2, 272060, Note_off_c, 0, 78, 0
2, 272060, Note_off_c, 0, 69, 0
2, 272064, Note_on_c, 0, 81, 68
2, 272064, Note_on_c, 0, 66, 66
2, 272156, Note_off_c, 0, 66, 0
2, 272160, Note_on_c, 0, 69, 66
2, 272252, Note_off_c, 0, 81, 0
2, 272252, Note_off_c, 0, 69, 0
2, 272256, Note_on_c, 0, 80, 66
2, 272256, Note_on_c, 0, 62, 60
2, 272320, Note_off_c, 0, 80, 0
2, 272320, Note_on_c, 0, 81, 64
2, 272348, Note_off_c, 0, 62, 0
2, 272352, Note_on_c, 0, 69, 60
2, 272412, Note_off_c, 0, 81, 0
2, 272444, Note_off_c, 0, 69, 0
2, 272448, Note_on_c, 0, 81, 64
2, 272448, Note_on_c, 0, 66, 60
2, 272528, Note_on_c, 0, 69, 60
2, 272540, Note_off_c, 0, 81, 0
2, 272540, Note_off_c, 0, 66, 0
2, 272620, Note_off_c, 0, 69, 0
2, 272640, Note_on_c, 0, 83, 65
2, 272640, Note_on_c, 0, 62, 60
2, 272732, Note_off_c, 0, 62, 0
2, 272736, Note_on_c, 0, 71, 60
2, 272828, Note_off_c, 0, 71, 0
2, 272832, Note_on_c, 0, 67, 60
2, 272924, Note_off_c, 0, 83, 0
2, 272924, Note_off_c, 0, 67, 0
2, 272928, Note_on_c, 0, 85, 66
2, 272928, Note_on_c, 0, 71, 60
2, 272972, Note_off_c, 0, 85, 0
2, 272976, Note_on_c, 0, 86, 67
2, 273020, Note_off_c, 0, 71, 0
2, 273020, Note_off_c, 0, 86, 0
2, 273024, Note_on_c, 0, 85, 66
2, 273024, Note_on_c, 0, 62, 60
2, 273116, Note_off_c, 0, 85, 0
2, 273116, Note_off_c, 0, 62, 0
2, 273120, Note_on_c, 0, 83, 64
2, 273120, Note_on_c, 0, 71, 60
2, 273212, Note_off_c, 0, 83, 0
2, 273212, Note_off_c, 0, 71, 0
2, 273216, Note_on_c, 0, 81, 63
2, 273216, Note_on_c, 0, 67, 60
2, 273308, Note_off_c, 0, 81, 0
2, 273308, Note_off_c, 0, 67, 0
2, 273312, Note_on_c, 0, 79, 60
2, 273312, Note_on_c, 0, 71, 60
2, 273404, Note_off_c, 0, 79, 0
2, 273404, Note_off_c, 0, 71, 0
2, 273408, Note_on_c, 0, 78, 60
2, 273596, Note_off_c, 0, 78, 0
2, 273600, Note_on_c, 0, 81, 60
2, 273788, Note_off_c, 0, 81, 0
2, 273984, Note_on_c, 0, 83, 60
2, 274028, Note_off_c, 0, 83, 0
2, 274032, Note_on_c, 0, 81, 60
2, 274076, Note_off_c, 0, 81, 0
2, 274080, Note_on_c, 0, 79, 60
2, 274124, Note_off_c, 0, 79, 0
2, 274128, Note_on_c, 0, 81, 60
2, 274172, Note_off_c, 0, 81, 0
2, 274176, Note_on_c, 0, 83, 60
2, 274364, Note_off_c, 0, 83, 0
2, 274368, Note_on_c, 0, 79, 60
2, 274460, Note_off_c, 0, 79, 0
2, 274560, Note_on_c, 0, 76, 60
2, 274652, Note_off_c, 0, 76, 0
2, 274752, Note_on_c, 0, 74, 60
2, 274844, Note_off_c, 0, 74, 0
2, 274944, Note_on_c, 0, 73, 60
2, 275132, Note_off_c, 0, 73, 0
2, 275136, Note_on_c, 0, 81, 60
2, 275324, Note_off_c, 0, 81, 0
2, 275520, Note_on_c, 0, 86, 60
2, 275612, Note_off_c, 0, 86, 0
2, 275616, Note_on_c, 0, 81, 60
2, 275708, Note_off_c, 0, 81, 0
2, 275712, Note_on_c, 0, 83, 60
2, 275900, Note_off_c, 0, 83, 0
2, 275904, Note_on_c, 0, 79, 60
2, 275996, Note_off_c, 0, 79, 0
2, 276096, Note_on_c, 0, 76, 60
2, 276188, Note_off_c, 0, 76, 0
2, 276288, Note_on_c, 0, 74, 60
2, 276380, Note_off_c, 0, 74, 0
2, 276480, Note_on_c, 0, 73, 60
2, 276860, Note_off_c, 0, 73, 0
2, 283584, Note_on_c, 0, 66, 66
2, 283676, Note_off_c, 0, 66, 0
2, 283776, Note_on_c, 0, 67, 66
2, 283868, Note_off_c, 0, 67, 0
2, 283968, Note_on_c, 0, 69, 66
2, 284060, Note_off_c, 0, 69, 0
2, 284160, Note_on_c, 0, 67, 66
2, 284252, Note_off_c, 0, 67, 0
2, 284256, Note_on_c, 0, 66, 66
2, 284348, Note_off_c, 0, 66, 0
2, 284352, Note_on_c, 0, 64, 66
2, 284444, Note_off_c, 0, 64, 0
2, 284448, Note_on_c, 0, 62, 66
2, 284540, Note_off_c, 0, 62, 0
2, 284544, Note_on_c, 0, 61, 66
2, 284924, Note_off_c, 0, 61, 0
2, 285120, Note_on_c, 0, 73, 66
2, 285212, Note_off_c, 0, 73, 0
2, 285312, Note_on_c, 0, 74, 66
2, 285404, Note_off_c, 0, 74, 0
2, 285504, Note_on_c, 0, 76, 66
2, 285596, Note_off_c, 0, 76, 0
2, 285696, Note_on_c, 0, 74, 66
2, 285788, Note_off_c, 0, 74, 0
2, 285792, Note_on_c, 0, 76, 66
2, 285884, Note_off_c, 0, 76, 0
2, 285888, Note_on_c, 0, 78, 66
2, 285980, Note_off_c, 0, 78, 0
2, 285984, Note_on_c, 0, 74, 66
2, 286076, Note_off_c, 0, 74, 0
2, 286080, Note_on_c, 0, 69, 66
2, 286460, Note_off_c, 0, 69, 0
2, 286656, Note_on_c, 0, 78, 66
2, 286748, Note_off_c, 0, 78, 0
2, 286848, Note_on_c, 0, 79, 66
2, 286940, Note_off_c, 0, 79, 0
2, 287040, Note_on_c, 0, 81, 68
2, 287132, Note_off_c, 0, 81, 0
2, 287232, Note_on_c, 0, 79, 66
2, 287324, Note_off_c, 0, 79, 0
2, 287328, Note_on_c, 0, 78, 66
2, 287420, Note_off_c, 0, 78, 0
2, 287424, Note_on_c, 0, 76, 66
2, 287516, Note_off_c, 0, 76, 0
2, 287520, Note_on_c, 0, 74, 66
2, 287612, Note_off_c, 0, 74, 0
2, 287616, Note_on_c, 0, 73, 66
2, 287996, Note_off_c, 0, 73, 0
2, 288192, Note_on_c, 0, 73, 66
2, 288284, Note_off_c, 0, 73, 0
2, 288384, Note_on_c, 0, 74, 66
2, 288476, Note_off_c, 0, 74, 0
2, 288576, Note_on_c, 0, 76, 66
2, 288668, Note_off_c, 0, 76, 0
2, 288768, Note_on_c, 0, 74, 66
2, 289148, Note_off_c, 0, 74, 0
2, 289152, Note_on_c, 0, 74, 72
2, 289724, Note_off_c, 0, 74, 0
2, 289728, Note_on_c, 0, 76, 66
2, 289768, Note_off_c, 0, 76, 0
2, 289776, Note_on_c, 0, 74, 66
2, 289816, Note_off_c, 0, 74, 0
2, 289824, Note_on_c, 0, 73, 66
2, 289864, Note_off_c, 0, 73, 0
2, 289872, Note_on_c, 0, 74, 66
2, 289912, Note_off_c, 0, 74, 0
2, 289920, Note_on_c, 0, 76, 66
2, 290108, Note_off_c, 0, 76, 0
2, 290112, Note_on_c, 0, 78, 66
2, 290300, Note_off_c, 0, 78, 0
2, 290304, Note_on_c, 0, 78, 66
2, 290492, Note_off_c, 0, 78, 0
2, 290496, Note_on_c, 0, 71, 66
2, 290684, Note_off_c, 0, 71, 0
2, 290688, Note_on_c, 0, 71, 72
2, 291260, Note_off_c, 0, 71, 0
2, 291264, Note_on_c, 0, 73, 66
2, 291304, Note_off_c, 0, 73, 0
2, 291312, Note_on_c, 0, 71, 66
2, 291352, Note_off_c, 0, 71, 0
2, 291360, Note_on_c, 0, 69, 66
2, 291400, Note_off_c, 0, 69, 0
2, 291408, Note_on_c, 0, 71, 66
2, 291448, Note_off_c, 0, 71, 0
2, 291456, Note_on_c, 0, 73, 66
2, 291644, Note_off_c, 0, 73, 0
2, 291648, Note_on_c, 0, 74, 66
2, 291836, Note_off_c, 0, 74, 0
2, 291840, Note_on_c, 0, 74, 66
2, 292028, Note_off_c, 0, 74, 0
2, 292032, Note_on_c, 0, 67, 66
2, 292220, Note_off_c, 0, 67, 0
2, 292224, Note_on_c, 0, 67, 66
2, 292796, Note_off_c, 0, 67, 0
2, 292800, Note_on_c, 0, 69, 66
2, 292892, Note_off_c, 0, 69, 0
2, 292896, Note_on_c, 0, 71, 66
2, 292988, Note_off_c, 0, 71, 0
2, 292992, Note_on_c, 0, 69, 66
2, 293180, Note_off_c, 0, 69, 0
2, 293184, Note_on_c, 0, 67, 66
2, 293372, Note_off_c, 0, 67, 0
2, 293376, Note_on_c, 0, 66, 66
2, 293756, Note_off_c, 0, 66, 0
2, 294912, Note_on_c, 0, 74, 66
2, 295292, Note_off_c, 0, 74, 0
2, 295296, Note_on_c, 0, 74, 66
2, 295868, Note_off_c, 0, 74, 0
2, 295872, Note_on_c, 0, 76, 68
2, 295912, Note_off_c, 0, 76, 0
2, 295920, Note_on_c, 0, 74, 67
2, 295960, Note_off_c, 0, 74, 0
2, 295968, Note_on_c, 0, 73, 66
2, 296008, Note_off_c, 0, 73, 0
2, 296016, Note_on_c, 0, 74, 67
2, 296056, Note_off_c, 0, 74, 0
2, 296064, Note_on_c, 0, 76, 68
2, 296252, Note_off_c, 0, 76, 0
2, 296256, Note_on_c, 0, 78, 68
2, 296444, Note_off_c, 0, 78, 0
2, 296448, Note_on_c, 0, 78, 68
2, 296636, Note_off_c, 0, 78, 0
2, 296640, Note_on_c, 0, 71, 66
2, 296828, Note_off_c, 0, 71, 0
2, 296832, Note_on_c, 0, 71, 66
2, 297404, Note_off_c, 0, 71, 0
2, 297408, Note_on_c, 0, 85, 69
2, 297448, Note_off_c, 0, 85, 0
2, 297456, Note_on_c, 0, 83, 67
2, 297496, Note_off_c, 0, 83, 0
2, 297504, Note_on_c, 0, 81, 66
2, 297544, Note_off_c, 0, 81, 0
2, 297552, Note_on_c, 0, 83, 67
2, 297592, Note_off_c, 0, 83, 0
2, 297600, Note_on_c, 0, 85, 68
2, 297788, Note_off_c, 0, 85, 0
2, 297792, Note_on_c, 0, 86, 69
2, 297980, Note_off_c, 0, 86, 0
2, 297984, Note_on_c, 0, 86, 69
2, 298364, Note_off_c, 0, 86, 0
2, 298368, Note_on_c, 0, 79, 67
2, 298368, Note_on_c, 0, 76, 67
2, 299132, Note_off_c, 0, 79, 0
2, 299132, Note_off_c, 0, 76, 0
2, 299136, Note_on_c, 0, 78, 66
2, 299136, Note_on_c, 0, 74, 66
2, 299516, Note_off_c, 0, 78, 0
2, 299516, Note_off_c, 0, 74, 0
2, 299520, Note_on_c, 0, 76, 66
2, 299520, Note_on_c, 0, 73, 66
2, 299612, Note_off_c, 0, 76, 0
2, 299612, Note_off_c, 0, 73, 0
2, 299616, Note_on_c, 0, 81, 66
2, 299708, Note_off_c, 0, 81, 0
2, 299712, Note_on_c, 0, 80, 66
2, 299804, Note_off_c, 0, 80, 0
2, 299808, Note_on_c, 0, 81, 66
2, 299900, Note_off_c, 0, 81, 0
2, 299904, Note_on_c, 0, 83, 66
2, 299996, Note_off_c, 0, 83, 0
2, 300000, Note_on_c, 0, 81, 66
2, 300092, Note_off_c, 0, 81, 0
2, 300096, Note_on_c, 0, 80, 66
2, 300096, Note_on_c, 0, 69, 66
2, 300096, Note_on_c, 0, 66, 66
2, 300188, Note_off_c, 0, 80, 0
2, 300188, Note_off_c, 0, 69, 0
2, 300188, Note_off_c, 0, 66, 0
2, 300192, Note_on_c, 0, 81, 66
2, 300284, Note_off_c, 0, 81, 0
2, 300288, Note_on_c, 0, 69, 66
2, 300288, Note_on_c, 0, 67, 66
2, 300288, Note_on_c, 0, 64, 66
2, 300380, Note_off_c, 0, 69, 0
2, 300380, Note_off_c, 0, 67, 0
2, 300380, Note_off_c, 0, 64, 0
2, 300384, Note_on_c, 0, 81, 68
2, 300476, Note_off_c, 0, 81, 0
2, 300480, Note_on_c, 0, 80, 66
2, 300480, Note_on_c, 0, 66, 66
2, 300480, Note_on_c, 0, 62, 66
2, 300572, Note_off_c, 0, 80, 0
2, 300572, Note_off_c, 0, 66, 0
2, 300572, Note_off_c, 0, 62, 0
2, 300576, Note_on_c, 0, 81, 68
2, 300668, Note_off_c, 0, 81, 0
2, 300672, Note_on_c, 0, 83, 69
2, 300672, Note_on_c, 0, 64, 66
2, 300672, Note_on_c, 0, 61, 66
2, 300764, Note_off_c, 0, 83, 0
2, 300764, Note_off_c, 0, 64, 0
2, 300764, Note_off_c, 0, 61, 0
2, 300768, Note_on_c, 0, 81, 68
2, 300860, Note_off_c, 0, 81, 0
2, 300864, Note_on_c, 0, 80, 67
2, 300864, Note_on_c, 0, 67, 66
2, 300864, Note_on_c, 0, 64, 66
2, 300956, Note_off_c, 0, 80, 0
2, 300956, Note_off_c, 0, 67, 0
2, 300956, Note_off_c, 0, 64, 0
2, 300960, Note_on_c, 0, 81, 68
2, 301052, Note_off_c, 0, 81, 0
2, 301056, Note_on_c, 0, 69, 66
2, 301056, Note_on_c, 0, 66, 66
2, 301056, Note_on_c, 0, 62, 66
2, 301148, Note_off_c, 0, 69, 0
2, 301152, Note_on_c, 0, 81, 66
2, 301244, Note_off_c, 0, 81, 0
2, 301248, Note_on_c, 0, 79, 66
2, 301340, Note_off_c, 0, 79, 0
2, 301344, Note_on_c, 0, 81, 66
2, 301436, Note_off_c, 0, 66, 0
2, 301436, Note_off_c, 0, 62, 0
2, 301436, Note_off_c, 0, 81, 0
2, 301440, Note_on_c, 0, 83, 66
2, 301532, Note_off_c, 0, 83, 0
2, 301536, Note_on_c, 0, 81, 66
2, 301628, Note_off_c, 0, 81, 0
2, 301632, Note_on_c, 0, 79, 66
2, 301724, Note_off_c, 0, 79, 0
2, 301728, Note_on_c, 0, 81, 66
2, 301820, Note_off_c, 0, 81, 0
2, 301824, Note_on_c, 0, 69, 66
2, 301916, Note_off_c, 0, 69, 0
2, 301920, Note_on_c, 0, 81, 66
2, 302012, Note_off_c, 0, 81, 0
2, 302016, Note_on_c, 0, 79, 66
2, 302108, Note_off_c, 0, 79, 0
2, 302112, Note_on_c, 0, 81, 66
2, 302204, Note_off_c, 0, 81, 0
2, 302208, Note_on_c, 0, 83, 66
2, 302300, Note_off_c, 0, 83, 0
2, 302304, Note_on_c, 0, 81, 66
2, 302396, Note_off_c, 0, 81, 0
2, 302400, Note_on_c, 0, 79, 66
2, 302492, Note_off_c, 0, 79, 0
2, 302496, Note_on_c, 0, 81, 66
2, 302588, Note_off_c, 0, 81, 0
2, 302592, Note_on_c, 0, 69, 66
2, 302972, Note_off_c, 0, 69, 0
2, 303168, Note_on_c, 0, 69, 66
2, 303168, Note_on_c, 0, 66, 66
2, 303260, Note_off_c, 0, 69, 0
2, 303260, Note_off_c, 0, 66, 0
2, 303360, Note_on_c, 0, 67, 66
2, 303360, Note_on_c, 0, 64, 66
2, 303452, Note_off_c, 0, 67, 0
2, 303452, Note_off_c, 0, 64, 0
2, 303552, Note_on_c, 0, 66, 66
2, 303552, Note_on_c, 0, 62, 66
2, 303644, Note_off_c, 0, 66, 0
2, 303644, Note_off_c, 0, 62, 0
2, 303744, Note_on_c, 0, 64, 66
2, 303744, Note_on_c, 0, 61, 66
2, 303836, Note_off_c, 0, 64, 0
2, 303836, Note_off_c, 0, 61, 0
2, 303936, Note_on_c, 0, 67, 66
2, 303936, Note_on_c, 0, 64, 66
2, 304028, Note_off_c, 0, 67, 0
2, 304028, Note_off_c, 0, 64, 0
2, 304128, Note_on_c, 0, 66, 66
2, 304128, Note_on_c, 0, 62, 66
2, 304508, Note_off_c, 0, 66, 0
2, 304508, Note_off_c, 0, 62, 0
2, 304704, Note_on_c, 0, 78, 66
2, 304704, Note_on_c, 0, 69, 66
2, 304796, Note_off_c, 0, 78, 0
2, 304796, Note_off_c, 0, 69, 0
2, 304896, Note_on_c, 0, 76, 66
2, 304896, Note_on_c, 0, 67, 66
2, 304988, Note_off_c, 0, 76, 0
2, 304988, Note_off_c, 0, 67, 0
2, 305088, Note_on_c, 0, 74, 66
2, 305088, Note_on_c, 0, 66, 66
2, 305180, Note_off_c, 0, 74, 0
2, 305180, Note_off_c, 0, 66, 0
2, 305280, Note_on_c, 0, 73, 66
2, 305280, Note_on_c, 0, 64, 66
2, 305372, Note_off_c, 0, 73, 0
2, 305372, Note_off_c, 0, 64, 0
2, 305472, Note_on_c, 0, 76, 66
2, 305472, Note_on_c, 0, 67, 66
2, 305564, Note_off_c, 0, 76, 0
2, 305564, Note_off_c, 0, 67, 0
2, 305664, Note_on_c, 0, 74, 66
2, 305664, Note_on_c, 0, 66, 66
2, 306044, Note_off_c, 0, 74, 0
2, 306044, Note_off_c, 0, 66, 0
2, 307392, Note_on_c, 0, 69, 99
2, 307484, Note_off_c, 0, 69, 0
2, 307488, Note_on_c, 0, 74, 99
2, 307580, Note_off_c, 0, 74, 0
2, 307584, Note_on_c, 0, 78, 99
2, 307676, Note_off_c, 0, 78, 0
2, 307680, Note_on_c, 0, 74, 99
2, 307772, Note_off_c, 0, 74, 0
2, 307776, Note_on_c, 0, 81, 100
2, 307868, Note_off_c, 0, 81, 0
2, 307872, Note_on_c, 0, 78, 99
2, 307964, Note_off_c, 0, 78, 0
2, 307968, Note_on_c, 0, 79, 99
2, 308060, Note_off_c, 0, 79, 0
2, 308064, Note_on_c, 0, 78, 99
2, 308156, Note_off_c, 0, 78, 0
2, 308160, Note_on_c, 0, 76, 99
2, 308252, Note_off_c, 0, 76, 0
2, 308256, Note_on_c, 0, 74, 99
2, 308348, Note_off_c, 0, 74, 0
2, 308352, Note_on_c, 0, 73, 99
2, 308444, Note_off_c, 0, 73, 0
2, 308448, Note_on_c, 0, 71, 99
2, 308540, Note_off_c, 0, 71, 0
2, 308544, Note_on_c, 0, 69, 99
2, 308636, Note_off_c, 0, 69, 0
2, 308640, Note_on_c, 0, 67, 99
2, 308732, Note_off_c, 0, 67, 0
2, 308736, Note_on_c, 0, 66, 99
2, 309116, Note_off_c, 0, 66, 0
2, 310464, Note_on_c, 0, 69, 99
2, 310556, Note_off_c, 0, 69, 0
2, 310560, Note_on_c, 0, 74, 99
2, 310652, Note_off_c, 0, 74, 0
2, 310656, Note_on_c, 0, 78, 99
2, 310748, Note_off_c, 0, 78, 0
2, 310752, Note_on_c, 0, 74, 99
2, 310844, Note_off_c, 0, 74, 0
2, 310848, Note_on_c, 0, 81, 100
2, 310940, Note_off_c, 0, 81, 0
2, 310944, Note_on_c, 0, 78, 99
2, 311036, Note_off_c, 0, 78, 0
2, 311040, Note_on_c, 0, 79, 99
2, 311132, Note_off_c, 0, 79, 0
2, 311136, Note_on_c, 0, 78, 99
2, 311228, Note_off_c, 0, 78, 0
2, 311232, Note_on_c, 0, 76, 96
2, 311324, Note_off_c, 0, 76, 0
2, 311328, Note_on_c, 0, 74, 91
2, 311420, Note_off_c, 0, 74, 0
2, 311424, Note_on_c, 0, 73, 85
2, 311516, Note_off_c, 0, 73, 0
2, 311520, Note_on_c, 0, 71, 80
2, 311612, Note_off_c, 0, 71, 0
2, 311616, Note_on_c, 0, 69, 74
2, 311708, Note_off_c, 0, 69, 0
2, 311712, Note_on_c, 0, 67, 69
2, 311804, Note_off_c, 0, 67, 0
2, 311808, Note_on_c, 0, 66, 66
2, 312188, Note_off_c, 0, 66, 0
2, 312192, Note_on_c, 0, 78, 66
2, 312380, Note_off_c, 0, 78, 0
2, 312384, Note_on_c, 0, 79, 68
2, 312444, Note_off_c, 0, 79, 0
2, 312448, Note_on_c, 0, 81, 69
2, 312508, Note_off_c, 0, 81, 0
2, 312512, Note_on_c, 0, 79, 68
2, 312572, Note_off_c, 0, 79, 0
2, 312576, Note_on_c, 0, 81, 66
2, 312764, Note_off_c, 0, 81, 0
2, 312768, Note_on_c, 0, 83, 68
2, 312828, Note_off_c, 0, 83, 0
2, 312832, Note_on_c, 0, 85, 69
2, 312892, Note_off_c, 0, 85, 0
2, 312896, Note_on_c, 0, 83, 68
2, 312956, Note_off_c, 0, 83, 0
2, 312960, Note_on_c, 0, 85, 66
2, 313148, Note_off_c, 0, 85, 0
2, 313152, Note_on_c, 0, 86, 66
2, 313340, Note_off_c, 0, 86, 0
2, 313344, Note_on_c, 0, 81, 66
2, 313724, Note_off_c, 0, 81, 0
2, 313728, Note_on_c, 0, 78, 66
2, 313916, Note_off_c, 0, 78, 0
2, 313920, Note_on_c, 0, 79, 68
2, 313980, Note_off_c, 0, 79, 0
2, 313984, Note_on_c, 0, 81, 69
2, 314044, Note_off_c, 0, 81, 0
2, 314048, Note_on_c, 0, 79, 68
2, 314108, Note_off_c, 0, 79, 0
2, 314112, Note_on_c, 0, 81, 67
2, 314300, Note_off_c, 0, 81, 0
2, 314304, Note_on_c, 0, 83, 69
2, 314364, Note_off_c, 0, 83, 0
2, 314368, Note_on_c, 0, 85, 71
2, 314428, Note_off_c, 0, 85, 0
2, 314432, Note_on_c, 0, 83, 70
2, 314492, Note_off_c, 0, 83, 0
2, 314496, Note_on_c, 0, 85, 72
2, 314684, Note_off_c, 0, 85, 0
2, 314688, Note_on_c, 0, 86, 74
2, 314876, Note_off_c, 0, 86, 0
2, 314880, Note_on_c, 0, 83, 78
2, 314972, Note_off_c, 0, 83, 0
2, 314976, Note_on_c, 0, 79, 79
2, 315068, Note_off_c, 0, 79, 0
2, 315072, Note_on_c, 0, 78, 80
2, 315164, Note_off_c, 0, 78, 0
2, 315168, Note_on_c, 0, 79, 82
2, 315260, Note_off_c, 0, 79, 0
2, 315264, Note_on_c, 0, 74, 83
2, 315356, Note_off_c, 0, 74, 0
2, 315360, Note_on_c, 0, 79, 84
2, 315452, Note_off_c, 0, 79, 0
2, 315456, Note_on_c, 0, 71, 86
2, 315548, Note_off_c, 0, 71, 0
2, 315552, Note_on_c, 0, 74, 88
2, 315644, Note_off_c, 0, 74, 0
2, 315648, Note_on_c, 0, 67, 89
2, 315740, Note_off_c, 0, 67, 0
2, 315744, Note_on_c, 0, 71, 90
2, 315836, Note_off_c, 0, 71, 0
2, 315840, Note_on_c, 0, 74, 92
2, 315932, Note_off_c, 0, 74, 0
2, 315936, Note_on_c, 0, 71, 93
2, 316028, Note_off_c, 0, 71, 0
2, 316032, Note_on_c, 0, 79, 94
2, 316124, Note_off_c, 0, 79, 0
2, 316128, Note_on_c, 0, 74, 96
2, 316220, Note_off_c, 0, 74, 0
2, 316224, Note_on_c, 0, 83, 97
2, 316316, Note_off_c, 0, 83, 0
2, 316320, Note_on_c, 0, 79, 99
2, 316412, Note_off_c, 0, 79, 0
2, 316416, Note_on_c, 0, 86, 99
2, 316416, Note_on_c, 0, 83, 99
2, 316416, Note_on_c, 0, 77, 99
2, 316796, Note_off_c, 0, 86, 0
2, 316796, Note_off_c, 0, 83, 0
2, 316796, Note_off_c, 0, 77, 0
2, 316800, Note_on_c, 0, 86, 99
2, 316800, Note_on_c, 0, 83, 99
2, 316800, Note_on_c, 0, 77, 99
2, 317180, Note_off_c, 0, 86, 0
2, 317180, Note_off_c, 0, 83, 0
2, 317180, Note_off_c, 0, 77, 0
2, 317184, Note_on_c, 0, 86, 99
2, 317184, Note_on_c, 0, 83, 99
2, 317184, Note_on_c, 0, 77, 99
2, 317564, Note_off_c, 0, 86, 0
2, 317564, Note_off_c, 0, 83, 0
2, 317564, Note_off_c, 0, 77, 0
2, 317568, Note_on_c, 0, 86, 99
2, 317568, Note_on_c, 0, 83, 99
2, 317568, Note_on_c, 0, 77, 99
2, 317948, Note_off_c, 0, 86, 0
2, 317948, Note_off_c, 0, 83, 0
2, 317948, Note_off_c, 0, 77, 0
2, 317952, Note_on_c, 0, 86, 99
2, 317952, Note_on_c, 0, 81, 99
2, 317952, Note_on_c, 0, 78, 99
2, 318044, Note_off_c, 0, 86, 0
2, 318044, Note_off_c, 0, 81, 0
2, 318044, Note_off_c, 0, 78, 0
2, 318048, Note_on_c, 0, 85, 99
2, 318140, Note_off_c, 0, 85, 0
2, 318144, Note_on_c, 0, 83, 99
2, 318236, Note_off_c, 0, 83, 0
2, 318240, Note_on_c, 0, 81, 99
2, 318332, Note_off_c, 0, 81, 0
2, 318336, Note_on_c, 0, 80, 99
2, 318428, Note_off_c, 0, 80, 0
2, 318432, Note_on_c, 0, 81, 99
2, 318524, Note_off_c, 0, 81, 0
2, 318528, Note_on_c, 0, 83, 99
2, 318620, Note_off_c, 0, 83, 0
2, 318624, Note_on_c, 0, 81, 99
2, 318716, Note_off_c, 0, 81, 0
2, 318720, Note_on_c, 0, 79, 99
2, 318812, Note_off_c, 0, 79, 0
2, 318816, Note_on_c, 0, 78, 99
2, 318908, Note_off_c, 0, 78, 0
2, 318912, Note_on_c, 0, 76, 99
2, 319004, Note_off_c, 0, 76, 0
2, 319008, Note_on_c, 0, 74, 99
2, 319100, Note_off_c, 0, 74, 0
2, 319104, Note_on_c, 0, 73, 99
2, 319196, Note_off_c, 0, 73, 0
2, 319200, Note_on_c, 0, 74, 99
2, 319292, Note_off_c, 0, 74, 0
2, 319296, Note_on_c, 0, 76, 99
2, 319388, Note_off_c, 0, 76, 0
2, 319392, Note_on_c, 0, 74, 99
2, 319484, Note_off_c, 0, 74, 0
2, 319488, Note_on_c, 0, 69, 99
2, 320252, Note_off_c, 0, 69, 0
2, 320256, Note_on_c, 0, 76, 99
2, 320300, Note_off_c, 0, 76, 0
2, 320304, Note_on_c, 0, 78, 99
2, 320348, Note_off_c, 0, 78, 0
2, 320352, Note_on_c, 0, 76, 99
2, 320396, Note_off_c, 0, 76, 0
2, 320400, Note_on_c, 0, 78, 99
2, 320444, Note_off_c, 0, 78, 0
2, 320448, Note_on_c, 0, 76, 99
2, 320492, Note_off_c, 0, 76, 0
2, 320496, Note_on_c, 0, 78, 99
2, 320540, Note_off_c, 0, 78, 0
2, 320544, Note_on_c, 0, 76, 99
2, 320588, Note_off_c, 0, 76, 0
2, 320592, Note_on_c, 0, 78, 99
2, 320636, Note_off_c, 0, 78, 0
2, 320640, Note_on_c, 0, 76, 99
2, 320684, Note_off_c, 0, 76, 0
2, 320688, Note_on_c, 0, 78, 99
2, 320732, Note_off_c, 0, 78, 0
2, 320736, Note_on_c, 0, 76, 99
2, 320780, Note_off_c, 0, 76, 0
2, 320784, Note_on_c, 0, 78, 99
2, 320828, Note_off_c, 0, 78, 0
2, 320832, Note_on_c, 0, 74, 99
2, 320924, Note_off_c, 0, 74, 0
2, 320928, Note_on_c, 0, 76, 99
2, 321020, Note_off_c, 0, 76, 0
2, 321024, Note_on_c, 0, 86, 99
2, 321024, Note_on_c, 0, 83, 99
2, 321024, Note_on_c, 0, 77, 99
2, 321404, Note_off_c, 0, 86, 0
2, 321404, Note_off_c, 0, 83, 0
2, 321404, Note_off_c, 0, 77, 0
2, 321408, Note_on_c, 0, 86, 99
2, 321408, Note_on_c, 0, 83, 99
2, 321408, Note_on_c, 0, 77, 99
2, 321788, Note_off_c, 0, 86, 0
2, 321788, Note_off_c, 0, 83, 0
2, 321788, Note_off_c, 0, 77, 0
2, 321792, Note_on_c, 0, 86, 99
2, 321792, Note_on_c, 0, 83, 99
2, 321792, Note_on_c, 0, 77, 99
2, 322172, Note_off_c, 0, 86, 0
2, 322172, Note_off_c, 0, 83, 0
2, 322172, Note_off_c, 0, 77, 0
2, 322176, Note_on_c, 0, 86, 99
2, 322176, Note_on_c, 0, 83, 99
2, 322176, Note_on_c, 0, 77, 99
2, 322556, Note_off_c, 0, 86, 0
2, 322556, Note_off_c, 0, 83, 0
2, 322556, Note_off_c, 0, 77, 0
2, 322560, Note_on_c, 0, 86, 100
2, 322560, Note_on_c, 0, 81, 99
2, 322560, Note_on_c, 0, 78, 99
2, 322652, Note_off_c, 0, 86, 0
2, 322652, Note_off_c, 0, 81, 0
2, 322652, Note_off_c, 0, 78, 0
2, 322656, Note_on_c, 0, 81, 99
2, 322748, Note_off_c, 0, 81, 0
2, 322752, Note_on_c, 0, 78, 99
2, 322844, Note_off_c, 0, 78, 0
2, 322848, Note_on_c, 0, 74, 99
2, 322940, Note_off_c, 0, 74, 0
2, 322944, Note_on_c, 0, 81, 99
2, 323036, Note_off_c, 0, 81, 0
2, 323040, Note_on_c, 0, 78, 99
2, 323132, Note_off_c, 0, 78, 0
2, 323136, Note_on_c, 0, 74, 99
2, 323228, Note_off_c, 0, 74, 0
2, 323232, Note_on_c, 0, 69, 99
2, 323324, Note_off_c, 0, 69, 0
2, 323328, Note_on_c, 0, 78, 99
2, 323420, Note_off_c, 0, 78, 0
2, 323424, Note_on_c, 0, 74, 99
2, 323516, Note_off_c, 0, 74, 0
2, 323520, Note_on_c, 0, 69, 99
2, 323612, Note_off_c, 0, 69, 0
2, 323616, Note_on_c, 0, 66, 99
2, 323708, Note_off_c, 0, 66, 0
2, 323712, Note_on_c, 0, 74, 99
2, 323804, Note_off_c, 0, 74, 0
2, 323808, Note_on_c, 0, 69, 99
2, 323900, Note_off_c, 0, 69, 0
2, 323904, Note_on_c, 0, 66, 99
2, 323996, Note_off_c, 0, 66, 0
2, 324000, Note_on_c, 0, 62, 99
2, 324092, Note_off_c, 0, 62, 0
2, 324096, Note_on_c, 0, 57, 99
2, 324476, Note_off_c, 0, 57, 0
2, 325632, Note_on_c, 0, 81, 99
2, 326204, Note_off_c, 0, 81, 0
2, 326208, Note_on_c, 0, 83, 99
2, 326300, Note_off_c, 0, 83, 0
2, 326304, Note_on_c, 0, 85, 100
2, 326396, Note_off_c, 0, 85, 0
2, 326400, Note_on_c, 0, 86, 101
2, 326492, Note_off_c, 0, 86, 0
2, 326496, Note_on_c, 0, 81, 99
2, 326588, Note_off_c, 0, 81, 0
2, 326592, Note_on_c, 0, 78, 99
2, 326684, Note_off_c, 0, 78, 0
2, 326688, Note_on_c, 0, 74, 99
2, 326780, Note_off_c, 0, 74, 0
2, 326784, Note_on_c, 0, 86, 101
2, 326876, Note_off_c, 0, 86, 0
2, 326880, Note_on_c, 0, 81, 99
2, 326972, Note_off_c, 0, 81, 0
2, 326976, Note_on_c, 0, 78, 99
2, 327068, Note_off_c, 0, 78, 0
2, 327072, Note_on_c, 0, 74, 99
2, 327164, Note_off_c, 0, 74, 0
2, 327168, Note_on_c, 0, 76, 99
2, 327212, Note_off_c, 0, 76, 0
2, 327216, Note_on_c, 0, 78, 99
2, 327260, Note_off_c, 0, 78, 0
2, 327264, Note_on_c, 0, 76, 99
2, 327308, Note_off_c, 0, 76, 0
2, 327312, Note_on_c, 0, 78, 99
2, 327356, Note_off_c, 0, 78, 0
2, 327360, Note_on_c, 0, 76, 99
2, 327404, Note_off_c, 0, 76, 0
2, 327408, Note_on_c, 0, 78, 99
2, 327452, Note_off_c, 0, 78, 0
2, 327456, Note_on_c, 0, 76, 99
2, 327500, Note_off_c, 0, 76, 0
2, 327504, Note_on_c, 0, 78, 99
2, 327548, Note_off_c, 0, 78, 0
2, 327552, Note_on_c, 0, 76, 99
2, 327596, Note_off_c, 0, 76, 0
2, 327600, Note_on_c, 0, 78, 99
2, 327644, Note_off_c, 0, 78, 0
2, 327648, Note_on_c, 0, 76, 99
2, 327692, Note_off_c, 0, 76, 0
2, 327696, Note_on_c, 0, 78, 99
2, 327740, Note_off_c, 0, 78, 0
2, 327744, Note_on_c, 0, 76, 99
2, 327788, Note_off_c, 0, 76, 0
2, 327792, Note_on_c, 0, 78, 99
2, 327836, Note_off_c, 0, 78, 0
2, 327840, Note_on_c, 0, 76, 99
2, 327884, Note_off_c, 0, 76, 0
2, 327888, Note_on_c, 0, 78, 99
2, 327932, Note_off_c, 0, 78, 0
2, 327936, Note_on_c, 0, 76, 99
2, 327980, Note_off_c, 0, 76, 0
2, 327984, Note_on_c, 0, 78, 99
2, 328028, Note_off_c, 0, 78, 0
2, 328032, Note_on_c, 0, 76, 99
2, 328076, Note_off_c, 0, 76, 0
2, 328080, Note_on_c, 0, 78, 99
2, 328124, Note_off_c, 0, 78, 0
2, 328128, Note_on_c, 0, 76, 99
2, 328172, Note_off_c, 0, 76, 0
2, 328176, Note_on_c, 0, 78, 99
2, 328220, Note_off_c, 0, 78, 0
2, 328224, Note_on_c, 0, 76, 99
2, 328268, Note_off_c, 0, 76, 0
2, 328272, Note_on_c, 0, 78, 99
2, 328316, Note_off_c, 0, 78, 0
2, 328320, Note_on_c, 0, 76, 99
2, 328364, Note_off_c, 0, 76, 0
2, 328368, Note_on_c, 0, 78, 99
2, 328412, Note_off_c, 0, 78, 0
2, 328416, Note_on_c, 0, 76, 99
2, 328460, Note_off_c, 0, 76, 0
2, 328464, Note_on_c, 0, 78, 99
2, 328508, Note_off_c, 0, 78, 0
2, 328512, Note_on_c, 0, 74, 99
2, 328604, Note_off_c, 0, 74, 0
2, 328608, Note_on_c, 0, 76, 99
2, 328700, Note_off_c, 0, 76, 0
2, 328704, Note_on_c, 0, 74, 99
2, 329084, Note_off_c, 0, 74, 0
2, 336380, Control_c, 0, 64, 127
2, 336384, Note_on_c, 0, 57, 100
2, 337340, Note_off_c, 0, 57, 0
2, 337372, Control_c, 0, 64, 0
2, 337376, Note_on_c, 0, 59, 106
2, 337404, Note_off_c, 0, 59, 0
2, 337408, Note_on_c, 0, 61, 107
2, 337436, Note_off_c, 0, 61, 0
2, 337440, Note_on_c, 0, 62, 107
2, 337468, Note_off_c, 0, 62, 0
2, 337472, Note_on_c, 0, 64, 107
2, 337500, Note_off_c, 0, 64, 0
2, 337504, Note_on_c, 0, 66, 107
2, 337532, Note_off_c, 0, 66, 0
2, 337536, Note_on_c, 0, 67, 108
2, 337564, Note_off_c, 0, 67, 0
2, 337564, Note_on_c, 0, 69, 108
2, 337592, Note_off_c, 0, 69, 0
2, 337596, Note_on_c, 0, 71, 108
2, 337624, Note_off_c, 0, 71, 0
2, 337628, Note_on_c, 0, 73, 108
2, 337656, Note_off_c, 0, 73, 0
2, 337660, Note_on_c, 0, 74, 108
2, 337688, Note_off_c, 0, 74, 0
2, 337692, Note_on_c, 0, 76, 110
2, 337720, Note_off_c, 0, 76, 0
2, 337724, Note_on_c, 0, 78, 110
2, 337752, Note_off_c, 0, 78, 0
2, 337756, Note_on_c, 0, 79, 110
2, 337784, Note_off_c, 0, 79, 0
2, 337788, Note_on_c, 0, 81, 110
2, 337816, Note_off_c, 0, 81, 0
2, 337820, Note_on_c, 0, 83, 111
2, 337848, Note_off_c, 0, 83, 0
2, 337852, Note_on_c, 0, 85, 111
2, 337880, Note_off_c, 0, 85, 0
2, 337884, Note_on_c, 0, 86, 111
2, 337912, Note_off_c, 0, 86, 0
2, 337920, Note_on_c, 0, 85, 99
2, 338012, Note_off_c, 0, 85, 0
2, 338016, Note_on_c, 0, 86, 99
2, 338108, Note_off_c, 0, 86, 0
2, 338112, Note_on_c, 0, 85, 99
2, 338204, Note_off_c, 0, 85, 0
2, 338208, Note_on_c, 0, 86, 99
2, 338300, Note_off_c, 0, 86, 0
2, 338304, Note_on_c, 0, 82, 99
2, 338396, Note_off_c, 0, 82, 0
2, 338400, Note_on_c, 0, 83, 99
2, 338492, Note_off_c, 0, 83, 0
2, 338496, Note_on_c, 0, 82, 99
2, 338588, Note_off_c, 0, 82, 0
2, 338592, Note_on_c, 0, 83, 99
2, 338684, Note_off_c, 0, 83, 0
2, 338688, Note_on_c, 0, 78, 99
2, 338780, Note_off_c, 0, 78, 0
2, 338784, Note_on_c, 0, 79, 99
2, 338876, Note_off_c, 0, 79, 0
2, 338880, Note_on_c, 0, 78, 99
2, 338972, Note_off_c, 0, 78, 0
2, 338976, Note_on_c, 0, 79, 99
2, 339068, Note_off_c, 0, 79, 0
2, 339072, Note_on_c, 0, 75, 99
2, 339164, Note_off_c, 0, 75, 0
2, 339168, Note_on_c, 0, 76, 99
2, 339260, Note_off_c, 0, 76, 0
2, 339264, Note_on_c, 0, 75, 99
2, 339356, Note_off_c, 0, 75, 0
2, 339360, Note_on_c, 0, 76, 99
2, 339452, Note_off_c, 0, 76, 0
2, 339456, Note_on_c, 0, 71, 99
2, 339548, Note_off_c, 0, 71, 0
2, 339552, Note_on_c, 0, 76, 99
2, 339644, Note_off_c, 0, 76, 0
2, 339648, Note_on_c, 0, 79, 99
2, 339740, Note_off_c, 0, 79, 0
2, 339740, Control_c, 0, 64, 127
2, 339744, Note_on_c, 0, 83, 105
2, 340604, Control_c, 0, 64, 0
2, 340608, Note_on_c, 0, 81, 99
2, 340700, Note_off_c, 0, 81, 0
2, 340704, Note_on_c, 0, 79, 99
2, 340796, Note_off_c, 0, 79, 0
2, 340800, Note_on_c, 0, 78, 99
2, 340892, Note_off_c, 0, 78, 0
2, 340896, Note_on_c, 0, 76, 99
2, 340988, Note_off_c, 0, 83, 0
2, 340988, Note_off_c, 0, 76, 0
2, 340992, Note_on_c, 0, 74, 99
2, 341084, Note_off_c, 0, 74, 0
2, 341088, Note_on_c, 0, 73, 99
2, 341180, Note_off_c, 0, 73, 0
2, 341184, Note_on_c, 0, 76, 99
2, 341276, Note_off_c, 0, 76, 0
2, 341280, Note_on_c, 0, 79, 99
2, 341372, Note_off_c, 0, 79, 0
2, 341376, Note_on_c, 0, 78, 99
2, 341468, Note_off_c, 0, 78, 0
2, 341472, Note_on_c, 0, 76, 99
2, 341564, Note_off_c, 0, 76, 0
2, 341568, Note_on_c, 0, 74, 99
2, 341660, Note_off_c, 0, 74, 0
2, 341664, Note_on_c, 0, 73, 99
2, 341756, Note_off_c, 0, 73, 0
2, 341760, Note_on_c, 0, 71, 106
2, 341852, Note_off_c, 0, 71, 0
2, 341856, Note_on_c, 0, 69, 97
2, 341948, Note_off_c, 0, 69, 0
2, 341952, Note_on_c, 0, 73, 96
2, 342044, Note_off_c, 0, 73, 0
2, 342048, Note_on_c, 0, 76, 95
2, 342140, Note_off_c, 0, 76, 0
2, 342144, Note_on_c, 0, 74, 93
2, 342236, Note_off_c, 0, 74, 0
2, 342240, Note_on_c, 0, 73, 92
2, 342332, Note_off_c, 0, 73, 0
2, 342336, Note_on_c, 0, 71, 91
2, 342428, Note_off_c, 0, 71, 0
2, 342432, Note_on_c, 0, 69, 89
2, 342524, Note_off_c, 0, 69, 0
2, 342528, Note_on_c, 0, 67, 88
2, 342620, Note_off_c, 0, 67, 0
2, 342624, Note_on_c, 0, 66, 86
2, 342716, Note_off_c, 0, 66, 0
2, 342720, Note_on_c, 0, 69, 84
2, 342812, Note_off_c, 0, 69, 0
2, 342816, Note_on_c, 0, 73, 83
2, 342908, Note_off_c, 0, 73, 0
2, 342912, Note_on_c, 0, 71, 82
2, 343004, Note_off_c, 0, 71, 0
2, 343008, Note_on_c, 0, 69, 80
2, 343100, Note_off_c, 0, 69, 0
2, 343104, Note_on_c, 0, 67, 79
2, 343196, Note_off_c, 0, 67, 0
2, 343200, Note_on_c, 0, 66, 78
2, 343292, Note_off_c, 0, 66, 0
2, 343296, Note_on_c, 0, 64, 75
2, 343388, Note_off_c, 0, 64, 0
2, 343392, Note_on_c, 0, 62, 74
2, 343484, Note_off_c, 0, 62, 0
2, 343488, Note_on_c, 0, 66, 72
2, 343580, Note_off_c, 0, 66, 0
2, 343584, Note_on_c, 0, 69, 71
2, 343676, Note_off_c, 0, 69, 0
2, 343680, Note_on_c, 0, 67, 70
2, 343772, Note_off_c, 0, 67, 0
2, 343776, Note_on_c, 0, 66, 68
2, 343868, Note_off_c, 0, 66, 0
2, 343872, Note_on_c, 0, 64, 67
2, 343964, Note_off_c, 0, 64, 0
2, 343968, Note_on_c, 0, 62, 66
2, 344060, Note_off_c, 0, 62, 0
2, 344064, Note_on_c, 0, 60, 66
2, 344156, Note_off_c, 0, 60, 0
2, 344160, Note_on_c, 0, 59, 66
2, 344252, Note_off_c, 0, 59, 0
2, 344256, Note_on_c, 0, 64, 66
2, 344348, Note_off_c, 0, 64, 0
2, 344352, Note_on_c, 0, 59, 66
2, 344444, Note_off_c, 0, 59, 0
2, 344448, Note_on_c, 0, 62, 66
2, 344540, Note_off_c, 0, 62, 0
2, 344544, Note_on_c, 0, 61, 66
2, 344636, Note_off_c, 0, 61, 0
2, 344640, Note_on_c, 0, 66, 66
2, 344732, Note_off_c, 0, 66, 0
2, 344736, Note_on_c, 0, 61, 66
2, 344828, Note_off_c, 0, 61, 0
2, 344832, Note_on_c, 0, 64, 67
2, 344924, Note_off_c, 0, 64, 0
2, 344928, Note_on_c, 0, 62, 68
2, 345020, Note_off_c, 0, 62, 0
2, 345024, Note_on_c, 0, 67, 69
2, 345116, Note_off_c, 0, 67, 0
2, 345120, Note_on_c, 0, 62, 70
2, 345212, Note_off_c, 0, 62, 0
2, 345216, Note_on_c, 0, 66, 71
2, 345308, Note_off_c, 0, 66, 0
2, 345312, Note_on_c, 0, 64, 73
2, 345404, Note_off_c, 0, 64, 0
2, 345408, Note_on_c, 0, 69, 74
2, 345500, Note_off_c, 0, 69, 0
2, 345504, Note_on_c, 0, 64, 75
2, 345596, Note_off_c, 0, 64, 0
2, 345600, Note_on_c, 0, 67, 77
2, 345692, Note_off_c, 0, 67, 0
2, 345696, Note_on_c, 0, 66, 78
2, 345788, Note_off_c, 0, 66, 0
2, 345792, Note_on_c, 0, 64, 80
2, 345884, Note_off_c, 0, 64, 0
2, 345888, Note_on_c, 0, 74, 81
2, 345980, Note_off_c, 0, 74, 0
2, 345984, Note_on_c, 0, 63, 82
2, 346076, Note_off_c, 0, 63, 0
2, 346080, Note_on_c, 0, 74, 83
2, 346172, Note_off_c, 0, 74, 0
2, 346176, Note_on_c, 0, 64, 84
2, 346268, Note_off_c, 0, 64, 0
2, 346272, Note_on_c, 0, 74, 86
2, 346364, Note_off_c, 0, 74, 0
2, 346368, Note_on_c, 0, 65, 88
2, 346460, Note_off_c, 0, 65, 0
2, 346464, Note_on_c, 0, 74, 89
2, 346556, Note_off_c, 0, 74, 0
2, 346560, Note_on_c, 0, 66, 90
2, 346652, Note_off_c, 0, 66, 0
2, 346656, Note_on_c, 0, 74, 91
2, 346748, Note_off_c, 0, 74, 0
2, 346752, Note_on_c, 0, 67, 93
2, 346844, Note_off_c, 0, 67, 0
2, 346848, Note_on_c, 0, 74, 94
2, 346940, Note_off_c, 0, 74, 0
2, 346944, Note_on_c, 0, 69, 95
2, 347036, Note_off_c, 0, 69, 0
2, 347040, Note_on_c, 0, 74, 96
2, 347132, Note_off_c, 0, 74, 0
2, 347136, Note_on_c, 0, 70, 99
2, 347228, Note_off_c, 0, 70, 0
2, 347232, Note_on_c, 0, 74, 99
2, 347324, Note_off_c, 0, 74, 0
2, 347328, Note_on_c, 0, 72, 99
2, 347420, Note_off_c, 0, 72, 0
2, 347424, Note_on_c, 0, 74, 99
2, 347516, Note_off_c, 0, 74, 0
2, 347520, Note_on_c, 0, 70, 99
2, 347612, Note_off_c, 0, 70, 0
2, 347616, Note_on_c, 0, 74, 99
2, 347708, Note_off_c, 0, 74, 0
2, 347712, Note_on_c, 0, 69, 99
2, 347804, Note_off_c, 0, 69, 0
2, 347808, Note_on_c, 0, 74, 99
2, 347900, Note_off_c, 0, 74, 0
2, 347900, Control_c, 0, 64, 127
2, 347904, Note_on_c, 0, 68, 99
2, 348440, Control_c, 0, 64, 0
2, 348444, Note_off_c, 0, 68, 0
2, 348444, Note_on_c, 0, 68, 99
2, 348460, Note_off_c, 0, 68, 0
2, 348460, Note_on_c, 0, 71, 99
2, 348476, Note_off_c, 0, 71, 0
2, 348476, Note_on_c, 0, 69, 99
2, 348492, Note_off_c, 0, 69, 0
2, 348492, Note_on_c, 0, 68, 99
2, 348508, Note_off_c, 0, 68, 0
2, 348508, Note_on_c, 0, 69, 99
2, 348524, Note_off_c, 0, 69, 0
2, 348524, Note_on_c, 0, 71, 99
2, 348540, Note_off_c, 0, 71, 0
2, 348540, Note_on_c, 0, 73, 99
2, 348556, Note_off_c, 0, 73, 0
2, 348556, Note_on_c, 0, 74, 99
2, 348572, Note_off_c, 0, 74, 0
2, 348572, Note_on_c, 0, 76, 99
2, 348588, Note_off_c, 0, 76, 0
2, 348588, Note_on_c, 0, 78, 99
2, 348604, Note_off_c, 0, 78, 0
2, 348604, Note_on_c, 0, 80, 99
2, 348620, Note_off_c, 0, 80, 0
2, 348620, Note_on_c, 0, 81, 99
2, 348636, Note_off_c, 0, 81, 0
2, 348636, Note_on_c, 0, 83, 99
2, 348652, Note_off_c, 0, 83, 0
2, 348652, Note_on_c, 0, 85, 99
2, 348668, Note_off_c, 0, 85, 0
2, 348672, Note_on_c, 0, 86, 99
2, 348796, Note_off_c, 0, 86, 0
2, 348800, Note_on_c, 0, 85, 99
2, 348864, Note_off_c, 0, 85, 0
2, 348928, Note_on_c, 0, 83, 99
2, 348992, Note_off_c, 0, 83, 0
2, 349056, Note_on_c, 0, 81, 99
2, 349120, Note_off_c, 0, 81, 0
2, 349184, Note_on_c, 0, 80, 99
2, 349248, Note_off_c, 0, 80, 0
2, 349312, Note_on_c, 0, 78, 99
2, 349376, Note_off_c, 0, 78, 0
2, 349440, Note_on_c, 0, 76, 99
2, 349504, Note_off_c, 0, 76, 0
2, 349568, Note_on_c, 0, 74, 99
2, 349632, Note_off_c, 0, 74, 0
2, 349696, Note_on_c, 0, 73, 99
2, 349760, Note_off_c, 0, 73, 0
2, 349824, Note_on_c, 0, 71, 99
2, 349888, Note_off_c, 0, 71, 0
2, 349952, Note_on_c, 0, 69, 99
2, 350016, Note_off_c, 0, 69, 0
2, 350080, Note_on_c, 0, 68, 99
2, 350144, Note_off_c, 0, 68, 0
2, 350208, Note_on_c, 0, 67, 99
2, 350588, Note_off_c, 0, 67, 0
2, 350688, Note_on_c, 0, 57, 99
2, 350780, Note_off_c, 0, 57, 0
2, 350784, Note_on_c, 0, 61, 99
2, 350876, Note_off_c, 0, 61, 0
2, 350880, Note_on_c, 0, 64, 99
2, 350972, Note_off_c, 0, 64, 0
2, 350976, Note_on_c, 0, 67, 99
2, 351072, Note_on_c, 0, 57, 99
2, 351164, Note_off_c, 0, 57, 0
2, 351168, Note_on_c, 0, 61, 99
2, 351260, Note_off_c, 0, 61, 0
2, 351264, Note_on_c, 0, 64, 99
2, 351356, Note_off_c, 0, 67, 0
2, 351356, Note_off_c, 0, 64, 0
2, 351360, Note_on_c, 0, 67, 96
2, 351456, Note_on_c, 0, 69, 95
2, 351548, Note_off_c, 0, 69, 0
2, 351552, Note_on_c, 0, 73, 93
2, 351644, Note_off_c, 0, 73, 0
2, 351648, Note_on_c, 0, 76, 91
2, 351740, Note_off_c, 0, 67, 0
2, 351740, Note_off_c, 0, 76, 0
2, 351744, Note_on_c, 0, 79, 89
2, 351840, Note_on_c, 0, 69, 86
2, 351932, Note_off_c, 0, 69, 0
2, 351936, Note_on_c, 0, 73, 84
2, 352028, Note_off_c, 0, 73, 0
2, 352032, Note_on_c, 0, 76, 82
2, 352124, Note_off_c, 0, 79, 0
2, 352124, Note_off_c, 0, 76, 0
2, 352128, Note_on_c, 0, 79, 80
2, 352316, Note_off_c, 0, 79, 0
2, 352320, Note_on_c, 0, 81, 77
2, 352412, Note_off_c, 0, 81, 0
2, 352416, Note_on_c, 0, 85, 74
2, 352508, Note_off_c, 0, 85, 0
2, 352508, Control_c, 0, 64, 127
2, 352512, Note_on_c, 0, 88, 72
2, 352512, Note_on_c, 0, 88, 72
2, 353084, Note_off_c, 0, 88, 0
2, 353084, Note_off_c, 0, 88, 0
2, 353084, Control_c, 0, 64, 0
2, 353088, Note_on_c, 0, 86, 99
2, 353132, Note_off_c, 0, 86, 0
2, 353136, Note_on_c, 0, 85, 99
2, 353180, Note_off_c, 0, 85, 0
2, 353184, Note_on_c, 0, 83, 99
2, 353228, Note_off_c, 0, 83, 0
2, 353232, Note_on_c, 0, 81, 99
2, 353276, Note_off_c, 0, 81, 0
2, 353280, Note_on_c, 0, 79, 99
2, 353372, Note_off_c, 0, 79, 0
2, 353376, Note_on_c, 0, 81, 99
2, 353468, Note_off_c, 0, 81, 0
2, 353472, Note_on_c, 0, 83, 99
2, 353564, Note_off_c, 0, 83, 0
2, 353568, Note_on_c, 0, 81, 99
2, 353660, Note_off_c, 0, 81, 0
2, 353664, Note_on_c, 0, 79, 99
2, 353756, Note_off_c, 0, 79, 0
2, 353760, Note_on_c, 0, 78, 99
2, 353852, Note_off_c, 0, 78, 0
2, 353856, Note_on_c, 0, 76, 99
2, 353948, Note_off_c, 0, 76, 0
2, 353952, Note_on_c, 0, 75, 99
2, 354044, Note_off_c, 0, 75, 0
2, 354048, Note_on_c, 0, 76, 99
2, 354140, Note_off_c, 0, 76, 0
2, 354144, Note_on_c, 0, 78, 99
2, 354236, Note_off_c, 0, 78, 0
2, 354240, Note_on_c, 0, 79, 99
2, 354332, Note_off_c, 0, 79, 0
2, 354336, Note_on_c, 0, 78, 99
2, 354428, Note_off_c, 0, 78, 0
2, 354432, Note_on_c, 0, 76, 99
2, 354524, Note_off_c, 0, 76, 0
2, 354528, Note_on_c, 0, 74, 99
2, 354620, Note_off_c, 0, 74, 0
2, 354624, Note_on_c, 0, 73, 99
2, 354716, Note_off_c, 0, 73, 0
2, 354720, Note_on_c, 0, 71, 99
2, 354812, Note_off_c, 0, 71, 0
2, 354816, Note_on_c, 0, 73, 99
2, 354908, Note_off_c, 0, 73, 0
2, 354912, Note_on_c, 0, 74, 99
2, 355004, Note_off_c, 0, 74, 0
2, 355008, Note_on_c, 0, 76, 99
2, 355100, Note_off_c, 0, 76, 0
2, 355104, Note_on_c, 0, 74, 99
2, 355196, Note_off_c, 0, 74, 0
2, 355200, Note_on_c, 0, 73, 99
2, 355292, Note_off_c, 0, 73, 0
2, 355296, Note_on_c, 0, 71, 99
2, 355388, Note_off_c, 0, 71, 0
2, 355392, Note_on_c, 0, 69, 99
2, 355484, Note_off_c, 0, 69, 0
2, 355488, Note_on_c, 0, 68, 99
2, 355580, Note_off_c, 0, 68, 0
2, 355584, Note_on_c, 0, 67, 99
2, 355676, Note_off_c, 0, 67, 0
2, 355680, Note_on_c, 0, 69, 99
2, 355772, Note_off_c, 0, 69, 0
2, 355776, Note_on_c, 0, 71, 99
2, 355868, Note_off_c, 0, 71, 0
2, 355872, Note_on_c, 0, 69, 99
2, 355964, Note_off_c, 0, 69, 0
2, 355968, Note_on_c, 0, 67, 99
2, 356060, Note_off_c, 0, 67, 0
2, 356064, Note_on_c, 0, 66, 99
2, 356156, Note_off_c, 0, 66, 0
2, 356160, Note_on_c, 0, 64, 99
2, 356252, Note_off_c, 0, 64, 0
2, 356256, Note_on_c, 0, 62, 99
2, 356348, Note_off_c, 0, 62, 0
2, 356352, Note_on_c, 0, 64, 99
2, 356444, Note_off_c, 0, 64, 0
2, 356448, Note_on_c, 0, 66, 99
2, 356540, Note_off_c, 0, 66, 0
2, 356544, Note_on_c, 0, 67, 99
2, 356636, Note_off_c, 0, 67, 0
2, 356640, Note_on_c, 0, 66, 99
2, 356732, Note_off_c, 0, 66, 0
2, 356736, Note_on_c, 0, 64, 99
2, 356828, Note_off_c, 0, 64, 0
2, 356832, Note_on_c, 0, 62, 99
2, 356924, Note_off_c, 0, 62, 0
2, 356928, Note_on_c, 0, 61, 99
2, 357020, Note_off_c, 0, 61, 0
2, 357024, Note_on_c, 0, 59, 99
2, 357116, Note_off_c, 0, 59, 0
2, 357120, Note_on_c, 0, 61, 91
2, 357212, Note_off_c, 0, 61, 0
2, 357216, Note_on_c, 0, 62, 83
2, 357308, Note_off_c, 0, 62, 0
2, 357312, Note_on_c, 0, 64, 77
2, 357404, Note_off_c, 0, 64, 0
2, 357408, Note_on_c, 0, 62, 71
2, 357500, Note_off_c, 0, 62, 0
2, 358848, Note_on_c, 0, 66, 66
2, 358940, Note_off_c, 0, 66, 0
2, 359040, Note_on_c, 0, 67, 66
2, 359132, Note_off_c, 0, 67, 0
2, 359232, Note_on_c, 0, 69, 66
2, 359324, Note_off_c, 0, 69, 0
2, 359424, Note_on_c, 0, 67, 66
2, 359516, Note_off_c, 0, 67, 0
2, 359520, Note_on_c, 0, 66, 66
2, 359612, Note_off_c, 0, 66, 0
2, 359616, Note_on_c, 0, 64, 66
2, 359708, Note_off_c, 0, 64, 0
2, 359712, Note_on_c, 0, 62, 66
2, 359804, Note_off_c, 0, 62, 0
2, 359808, Note_on_c, 0, 61, 66
2, 360188, Note_off_c, 0, 61, 0
2, 360384, Note_on_c, 0, 73, 66
2, 360476, Note_off_c, 0, 73, 0
2, 360576, Note_on_c, 0, 74, 66
2, 360668, Note_off_c, 0, 74, 0
2, 360768, Note_on_c, 0, 76, 66
2, 360860, Note_off_c, 0, 76, 0
2, 360960, Note_on_c, 0, 74, 66
2, 361052, Note_off_c, 0, 74, 0
2, 361056, Note_on_c, 0, 76, 66
2, 361148, Note_off_c, 0, 76, 0
2, 361152, Note_on_c, 0, 78, 66
2, 361244, Note_off_c, 0, 78, 0
2, 361248, Note_on_c, 0, 74, 66
2, 361340, Note_off_c, 0, 74, 0
2, 361344, Note_on_c, 0, 69, 66
2, 361724, Note_off_c, 0, 69, 0
2, 361920, Note_on_c, 0, 78, 66
2, 362012, Note_off_c, 0, 78, 0
2, 362112, Note_on_c, 0, 79, 66
2, 362204, Note_off_c, 0, 79, 0
2, 362304, Note_on_c, 0, 81, 66
2, 362396, Note_off_c, 0, 81, 0
2, 362496, Note_on_c, 0, 79, 66
2, 362588, Note_off_c, 0, 79, 0
2, 362592, Note_on_c, 0, 78, 66
2, 362684, Note_off_c, 0, 78, 0
2, 362688, Note_on_c, 0, 76, 66
2, 362780, Note_off_c, 0, 76, 0
2, 362784, Note_on_c, 0, 74, 66
2, 362876, Note_off_c, 0, 74, 0
2, 362880, Note_on_c, 0, 73, 66
2, 363260, Note_off_c, 0, 73, 0
2, 363456, Note_on_c, 0, 85, 66
2, 363548, Note_off_c, 0, 85, 0
2, 363648, Note_on_c, 0, 86, 66
2, 363740, Note_off_c, 0, 86, 0
2, 363840, Note_on_c, 0, 88, 66
2, 363932, Note_off_c, 0, 88, 0
2, 364032, Note_on_c, 0, 86, 71
2, 364316, Note_off_c, 0, 86, 0
2, 364320, Note_on_c, 0, 74, 77
2, 364412, Note_off_c, 0, 74, 0
2, 364416, Note_on_c, 0, 84, 82
2, 364700, Note_off_c, 0, 84, 0
2, 364704, Note_on_c, 0, 72, 88
2, 364796, Note_off_c, 0, 72, 0
2, 364800, Note_on_c, 0, 83, 88
2, 365084, Note_off_c, 0, 83, 0
2, 365088, Note_on_c, 0, 71, 82
2, 365180, Note_off_c, 0, 71, 0
2, 365184, Note_on_c, 0, 84, 77
2, 365468, Note_off_c, 0, 84, 0
2, 365472, Note_on_c, 0, 70, 71
2, 365564, Note_off_c, 0, 70, 0
2, 365564, Control_c, 0, 64, 127
2, 365568, Note_on_c, 0, 83, 66
2, 366332, Note_off_c, 0, 83, 0
2, 366332, Control_c, 0, 64, 0
2, 366336, Note_on_c, 0, 83, 68
2, 366428, Note_off_c, 0, 83, 0
2, 366432, Note_on_c, 0, 85, 71
2, 366460, Note_off_c, 0, 85, 0
2, 366464, Note_on_c, 0, 83, 73
2, 366492, Note_off_c, 0, 83, 0
2, 366496, Note_on_c, 0, 82, 74
2, 366524, Note_off_c, 0, 82, 0
2, 366528, Note_on_c, 0, 83, 75
2, 366620, Note_off_c, 0, 83, 0
2, 366624, Note_on_c, 0, 85, 80
2, 366716, Note_off_c, 0, 85, 0
2, 366720, Note_on_c, 0, 86, 84
2, 366812, Note_off_c, 0, 86, 0
2, 366816, Note_on_c, 0, 88, 88
2, 366844, Note_off_c, 0, 88, 0
2, 366848, Note_on_c, 0, 86, 90
2, 366876, Note_off_c, 0, 86, 0
2, 366880, Note_on_c, 0, 85, 91
2, 366908, Note_off_c, 0, 85, 0
2, 366912, Note_on_c, 0, 86, 92
2, 367004, Note_off_c, 0, 86, 0
2, 367008, Note_on_c, 0, 88, 96
2, 367092, Control_c, 0, 64, 127
2, 367100, Note_off_c, 0, 88, 0
2, 367104, Note_on_c, 0, 89, 110
2, 367996, Note_off_c, 0, 89, 0
2, 367996, Control_c, 0, 64, 0
2, 368000, Note_on_c, 0, 86, 94
2, 368124, Note_off_c, 0, 86, 0
2, 368128, Note_on_c, 0, 83, 88
2, 368252, Note_off_c, 0, 83, 0
2, 368256, Note_on_c, 0, 80, 88
2, 368380, Note_off_c, 0, 80, 0
2, 368384, Note_on_c, 0, 77, 88
2, 368508, Note_off_c, 0, 77, 0
2, 368512, Note_on_c, 0, 74, 88
2, 368636, Note_off_c, 0, 74, 0
2, 368640, Note_on_c, 0, 71, 88
2, 368764, Note_off_c, 0, 71, 0
2, 368768, Note_on_c, 0, 68, 88
2, 368892, Note_off_c, 0, 68, 0
2, 368896, Note_on_c, 0, 65, 88
2, 369020, Note_off_c, 0, 65, 0
2, 369024, Note_on_c, 0, 62, 88
2, 369148, Note_off_c, 0, 62, 0
2, 369152, Note_on_c, 0, 59, 88
2, 369276, Note_off_c, 0, 59, 0
2, 369280, Note_on_c, 0, 56, 88
2, 369404, Note_off_c, 0, 56, 0
2, 370820, Note_on_c, 0, 62, 88
2, 370840, Note_off_c, 0, 62, 0
2, 370840, Note_on_c, 0, 64, 88
2, 370860, Note_off_c, 0, 64, 0
2, 370860, Note_on_c, 0, 66, 88
2, 370880, Note_off_c, 0, 66, 0
2, 370880, Note_on_c, 0, 67, 88
2, 370900, Note_off_c, 0, 67, 0
2, 370900, Note_on_c, 0, 69, 88
2, 370920, Note_off_c, 0, 69, 0
2, 370920, Note_on_c, 0, 71, 88
2, 370940, Note_off_c, 0, 71, 0
2, 370944, Note_on_c, 0, 73, 88
2, 370964, Note_off_c, 0, 73, 0
2, 370964, Note_on_c, 0, 74, 88
2, 370984, Note_off_c, 0, 74, 0
2, 370984, Note_on_c, 0, 76, 88
2, 371004, Note_off_c, 0, 76, 0
2, 371004, Note_on_c, 0, 78, 88
2, 371024, Note_off_c, 0, 78, 0
2, 371024, Note_on_c, 0, 79, 88
2, 371044, Note_off_c, 0, 79, 0
2, 371044, Note_on_c, 0, 81, 88
2, 371064, Note_off_c, 0, 81, 0
2, 371064, Note_on_c, 0, 83, 88
2, 371084, Note_off_c, 0, 83, 0
2, 371084, Note_on_c, 0, 85, 88
2, 371104, Note_off_c, 0, 85, 0
2, 371104, Note_on_c, 0, 86, 88
2, 371124, Note_off_c, 0, 86, 0
2, 371232, Note_on_c, 0, 74, 88
2, 371324, Note_off_c, 0, 74, 0
2, 371328, Note_on_c, 0, 79, 88
2, 371612, Note_off_c, 0, 79, 0
2, 371616, Note_on_c, 0, 78, 88
2, 371644, Note_off_c, 0, 78, 0
2, 371648, Note_on_c, 0, 76, 88
2, 371676, Note_off_c, 0, 76, 0
2, 371680, Note_on_c, 0, 74, 88
2, 371708, Note_off_c, 0, 74, 0
2, 371712, Note_on_c, 0, 76, 89
2, 371756, Note_off_c, 0, 76, 0
2, 371760, Note_on_c, 0, 78, 89
2, 371804, Note_off_c, 0, 78, 0
2, 371808, Note_on_c, 0, 76, 90
2, 371852, Note_off_c, 0, 76, 0
2, 371856, Note_on_c, 0, 78, 90
2, 371900, Note_off_c, 0, 78, 0
2, 371904, Note_on_c, 0, 76, 91
2, 371948, Note_off_c, 0, 76, 0
2, 371952, Note_on_c, 0, 78, 92
2, 371996, Note_off_c, 0, 78, 0
2, 372000, Note_on_c, 0, 76, 92
2, 372044, Note_off_c, 0, 76, 0
2, 372048, Note_on_c, 0, 78, 93
2, 372092, Note_off_c, 0, 78, 0
2, 372096, Note_on_c, 0, 76, 94
2, 372140, Note_off_c, 0, 76, 0
2, 372144, Note_on_c, 0, 78, 94
2, 372188, Note_off_c, 0, 78, 0
2, 372192, Note_on_c, 0, 76, 95
2, 372236, Note_off_c, 0, 76, 0
2, 372240, Note_on_c, 0, 78, 95
2, 372284, Note_off_c, 0, 78, 0
2, 372288, Note_on_c, 0, 76, 96
2, 372332, Note_off_c, 0, 76, 0
2, 372336, Note_on_c, 0, 78, 97
2, 372380, Note_off_c, 0, 78, 0
2, 372384, Note_on_c, 0, 76, 97
2, 372428, Note_off_c, 0, 76, 0
2, 372432, Note_on_c, 0, 78, 99
2, 372476, Note_off_c, 0, 78, 0
2, 372480, Note_on_c, 0, 76, 100
2, 372524, Note_off_c, 0, 76, 0
2, 372528, Note_on_c, 0, 78, 100
2, 372572, Note_off_c, 0, 78, 0
2, 372576, Note_on_c, 0, 76, 101
2, 372620, Note_off_c, 0, 76, 0
2, 372624, Note_on_c, 0, 78, 101
2, 372668, Note_off_c, 0, 78, 0
2, 372672, Note_on_c, 0, 76, 102
2, 372716, Note_off_c, 0, 76, 0
2, 372720, Note_on_c, 0, 78, 103
2, 372764, Note_off_c, 0, 78, 0
2, 372768, Note_on_c, 0, 76, 103
2, 372812, Note_off_c, 0, 76, 0
2, 372816, Note_on_c, 0, 78, 104
2, 372860, Note_off_c, 0, 78, 0
2, 372864, Note_on_c, 0, 76, 105
2, 372908, Note_off_c, 0, 76, 0
2, 372912, Note_on_c, 0, 78, 105
2, 372956, Note_off_c, 0, 78, 0
2, 372960, Note_on_c, 0, 76, 106
2, 373004, Note_off_c, 0, 76, 0
2, 373008, Note_on_c, 0, 78, 106
2, 373052, Note_off_c, 0, 78, 0
2, 373056, Note_on_c, 0, 74, 107
2, 373148, Note_off_c, 0, 74, 0
2, 373152, Note_on_c, 0, 76, 108
2, 373244, Note_off_c, 0, 76, 0
2, 373248, Note_on_c, 0, 74, 110
2, 373628, Note_off_c, 0, 74, 0
2, 373628, End_track
3, 0, Start_track
3, 0, Title_t, "K175a - #5 "
3, 0, Control_c, 1, 0, 0
3, 0, Program_c, 1, 0
3, 0, Control_c, 1, 7, 127
3, 0, Control_c, 1, 10, 63
3, 0, Control_c, 1, 91, 67
3, 0, Control_c, 1, 93, 54
3, 0, Key_signature, 2, "major"
3, 0, Control_c, 1, 121, 0
3, 384, Control_c, 1, 10, 63
3, 480, Control_c, 1, 91, 63
3, 576, Control_c, 1, 93, 35
3, 672, Program_c, 1, 0
3, 50688, Note_on_c, 1, 50, 99
3, 50780, Note_off_c, 1, 50, 0
3, 50784, Note_on_c, 1, 57, 99
3, 50876, Note_off_c, 1, 57, 0
3, 50880, Note_on_c, 1, 56, 99
3, 50972, Note_off_c, 1, 56, 0
3, 50976, Note_on_c, 1, 57, 99
3, 51068, Note_off_c, 1, 57, 0
3, 51072, Note_on_c, 1, 59, 99
3, 51164, Note_off_c, 1, 59, 0
3, 51168, Note_on_c, 1, 57, 99
3, 51260, Note_off_c, 1, 57, 0
3, 51264, Note_on_c, 1, 54, 99
3, 51356, Note_off_c, 1, 54, 0
3, 51360, Note_on_c, 1, 57, 99
3, 51452, Note_off_c, 1, 57, 0
3, 51456, Note_on_c, 1, 55, 99
3, 51548, Note_off_c, 1, 55, 0
3, 51552, Note_on_c, 1, 57, 99
3, 51644, Note_off_c, 1, 57, 0
3, 51648, Note_on_c, 1, 54, 99
3, 51740, Note_off_c, 1, 54, 0
3, 51744, Note_on_c, 1, 57, 99
3, 51836, Note_off_c, 1, 57, 0
3, 51840, Note_on_c, 1, 55, 99
3, 51932, Note_off_c, 1, 55, 0
3, 51936, Note_on_c, 1, 57, 99
3, 52028, Note_off_c, 1, 57, 0
3, 52032, Note_on_c, 1, 52, 99
3, 52124, Note_off_c, 1, 52, 0
3, 52128, Note_on_c, 1, 57, 99
3, 52220, Note_off_c, 1, 57, 0
3, 52224, Note_on_c, 1, 54, 99
3, 52316, Note_off_c, 1, 54, 0
3, 52320, Note_on_c, 1, 57, 99
3, 52412, Note_off_c, 1, 57, 0
3, 52416, Note_on_c, 1, 56, 99
3, 52508, Note_off_c, 1, 56, 0
3, 52512, Note_on_c, 1, 57, 99
3, 52604, Note_off_c, 1, 57, 0
3, 52608, Note_on_c, 1, 59, 99
3, 52700, Note_off_c, 1, 59, 0
3, 52704, Note_on_c, 1, 57, 99
3, 52796, Note_off_c, 1, 57, 0
3, 52800, Note_on_c, 1, 50, 99
3, 52892, Note_off_c, 1, 50, 0
3, 52896, Note_on_c, 1, 57, 99
3, 52988, Note_off_c, 1, 57, 0
3, 52992, Note_on_c, 1, 52, 99
3, 53084, Note_off_c, 1, 52, 0
3, 53088, Note_on_c, 1, 57, 99
3, 53180, Note_off_c, 1, 57, 0
3, 53184, Note_on_c, 1, 50, 99
3, 53276, Note_off_c, 1, 50, 0
3, 53280, Note_on_c, 1, 57, 99
3, 53372, Note_off_c, 1, 57, 0
3, 53376, Note_on_c, 1, 52, 99
3, 53468, Note_off_c, 1, 52, 0
3, 53472, Note_on_c, 1, 57, 99
3, 53564, Note_off_c, 1, 57, 0
3, 53568, Note_on_c, 1, 49, 99
3, 53660, Note_off_c, 1, 49, 0
3, 53664, Note_on_c, 1, 57, 99
3, 53756, Note_off_c, 1, 57, 0
3, 53760, Note_on_c, 1, 50, 99
3, 53852, Note_off_c, 1, 50, 0
3, 53856, Note_on_c, 1, 62, 99
3, 53948, Note_off_c, 1, 62, 0
3, 53952, Note_on_c, 1, 61, 99
3, 54044, Note_off_c, 1, 61, 0
3, 54048, Note_on_c, 1, 62, 99
3, 54140, Note_off_c, 1, 62, 0
3, 54144, Note_on_c, 1, 64, 99
3, 54236, Note_off_c, 1, 64, 0
3, 54240, Note_on_c, 1, 62, 99
3, 54332, Note_off_c, 1, 62, 0
3, 54336, Note_on_c, 1, 54, 99
3, 54428, Note_off_c, 1, 54, 0
3, 54432, Note_on_c, 1, 62, 99
3, 54524, Note_off_c, 1, 62, 0
3, 54528, Note_on_c, 1, 55, 99
3, 54620, Note_off_c, 1, 55, 0
3, 54624, Note_on_c, 1, 62, 99
3, 54716, Note_off_c, 1, 62, 0
3, 54720, Note_on_c, 1, 54, 99
3, 54812, Note_off_c, 1, 54, 0
3, 54816, Note_on_c, 1, 62, 99
3, 54908, Note_off_c, 1, 62, 0
3, 54912, Note_on_c, 1, 55, 99
3, 55004, Note_off_c, 1, 55, 0
3, 55008, Note_on_c, 1, 62, 99
3, 55100, Note_off_c, 1, 62, 0
3, 55104, Note_on_c, 1, 52, 99
3, 55196, Note_off_c, 1, 52, 0
3, 55200, Note_on_c, 1, 62, 99
3, 55292, Note_off_c, 1, 62, 0
3, 55296, Note_on_c, 1, 50, 99
3, 55388, Note_off_c, 1, 50, 0
3, 55392, Note_on_c, 1, 62, 99
3, 55484, Note_off_c, 1, 62, 0
3, 55488, Note_on_c, 1, 61, 99
3, 55580, Note_off_c, 1, 61, 0
3, 55584, Note_on_c, 1, 62, 99
3, 55676, Note_off_c, 1, 62, 0
3, 55680, Note_on_c, 1, 57, 99
3, 55772, Note_off_c, 1, 57, 0
3, 55776, Note_on_c, 1, 62, 99
3, 55868, Note_off_c, 1, 62, 0
3, 55872, Note_on_c, 1, 54, 99
3, 55964, Note_off_c, 1, 54, 0
3, 55968, Note_on_c, 1, 62, 99
3, 56060, Note_off_c, 1, 62, 0
3, 56064, Note_on_c, 1, 50, 88
3, 56156, Note_off_c, 1, 50, 0
3, 56160, Note_on_c, 1, 62, 88
3, 56252, Note_off_c, 1, 62, 0
3, 56256, Note_on_c, 1, 61, 88
3, 56348, Note_off_c, 1, 61, 0
3, 56352, Note_on_c, 1, 62, 88
3, 56444, Note_off_c, 1, 62, 0
3, 56448, Note_on_c, 1, 57, 88
3, 56540, Note_off_c, 1, 57, 0
3, 56544, Note_on_c, 1, 62, 88
3, 56636, Note_off_c, 1, 62, 0
3, 56640, Note_on_c, 1, 54, 88
3, 56732, Note_off_c, 1, 54, 0
3, 56736, Note_on_c, 1, 62, 88
3, 56828, Note_off_c, 1, 62, 0
3, 56832, Note_on_c, 1, 50, 88
3, 56924, Note_off_c, 1, 50, 0
3, 56928, Note_on_c, 1, 62, 88
3, 57020, Note_off_c, 1, 62, 0
3, 57024, Note_on_c, 1, 61, 88
3, 57116, Note_off_c, 1, 61, 0
3, 57120, Note_on_c, 1, 62, 88
3, 57212, Note_off_c, 1, 62, 0
3, 57216, Note_on_c, 1, 59, 88
3, 57308, Note_off_c, 1, 59, 0
3, 57312, Note_on_c, 1, 62, 88
3, 57404, Note_off_c, 1, 62, 0
3, 57408, Note_on_c, 1, 55, 88
3, 57500, Note_off_c, 1, 55, 0
3, 57504, Note_on_c, 1, 62, 88
3, 57596, Note_off_c, 1, 62, 0
3, 57600, Note_on_c, 1, 50, 88
3, 57692, Note_off_c, 1, 50, 0
3, 57696, Note_on_c, 1, 62, 88
3, 57788, Note_off_c, 1, 62, 0
3, 57792, Note_on_c, 1, 61, 88
3, 57884, Note_off_c, 1, 61, 0
3, 57888, Note_on_c, 1, 62, 88
3, 57980, Note_off_c, 1, 62, 0
3, 57984, Note_on_c, 1, 59, 88
3, 58076, Note_off_c, 1, 59, 0
3, 58080, Note_on_c, 1, 62, 88
3, 58172, Note_off_c, 1, 62, 0
3, 58176, Note_on_c, 1, 55, 88
3, 58268, Note_off_c, 1, 55, 0
3, 58272, Note_on_c, 1, 62, 88
3, 58364, Note_off_c, 1, 62, 0
3, 58368, Note_on_c, 1, 50, 88
3, 58460, Note_off_c, 1, 50, 0
3, 58464, Note_on_c, 1, 62, 88
3, 58556, Note_off_c, 1, 62, 0
3, 58560, Note_on_c, 1, 61, 88
3, 58652, Note_off_c, 1, 61, 0
3, 58656, Note_on_c, 1, 62, 88
3, 58748, Note_off_c, 1, 62, 0
3, 58752, Note_on_c, 1, 57, 88
3, 58844, Note_off_c, 1, 57, 0
3, 58848, Note_on_c, 1, 62, 88
3, 58940, Note_off_c, 1, 62, 0
3, 58944, Note_on_c, 1, 54, 88
3, 59036, Note_off_c, 1, 54, 0
3, 59040, Note_on_c, 1, 62, 88
3, 59132, Note_off_c, 1, 62, 0
3, 59136, Note_on_c, 1, 50, 85
3, 59228, Note_off_c, 1, 50, 0
3, 59232, Note_on_c, 1, 62, 83
3, 59324, Note_off_c, 1, 62, 0
3, 59328, Note_on_c, 1, 61, 81
3, 59420, Note_off_c, 1, 61, 0
3, 59424, Note_on_c, 1, 62, 79
3, 59516, Note_off_c, 1, 62, 0
3, 59520, Note_on_c, 1, 57, 75
3, 59612, Note_off_c, 1, 57, 0
3, 59616, Note_on_c, 1, 62, 73
3, 59708, Note_off_c, 1, 62, 0
3, 59712, Note_on_c, 1, 54, 71
3, 59804, Note_off_c, 1, 54, 0
3, 59808, Note_on_c, 1, 62, 69
3, 59900, Note_off_c, 1, 62, 0
3, 59904, Note_on_c, 1, 52, 66
3, 60284, Note_off_c, 1, 52, 0
3, 61056, Note_on_c, 1, 49, 66
3, 61436, Note_off_c, 1, 49, 0
3, 61440, Note_on_c, 1, 50, 66
3, 61820, Note_off_c, 1, 50, 0
3, 62592, Note_on_c, 1, 57, 66
3, 62592, Note_on_c, 1, 54, 66
3, 62972, Note_off_c, 1, 57, 0
3, 62972, Note_off_c, 1, 54, 0
3, 62976, Note_on_c, 1, 59, 66
3, 62976, Note_on_c, 1, 55, 66
3, 63356, Note_off_c, 1, 59, 0
3, 63356, Note_off_c, 1, 55, 0
3, 63360, Note_on_c, 1, 52, 66
3, 63740, Note_off_c, 1, 52, 0
3, 63744, Note_on_c, 1, 57, 66
3, 64124, Note_off_c, 1, 57, 0
3, 64128, Note_on_c, 1, 45, 66
3, 64508, Note_off_c, 1, 45, 0
3, 64512, Note_on_c, 1, 62, 66
3, 64604, Note_off_c, 1, 62, 0
3, 64608, Note_on_c, 1, 61, 66
3, 64700, Note_off_c, 1, 61, 0
3, 64704, Note_on_c, 1, 59, 66
3, 64796, Note_off_c, 1, 59, 0
3, 64800, Note_on_c, 1, 57, 66
3, 64892, Note_off_c, 1, 57, 0
3, 64896, Note_on_c, 1, 62, 111
3, 64988, Note_off_c, 1, 62, 0
3, 64992, Note_on_c, 1, 61, 111
3, 65084, Note_off_c, 1, 61, 0
3, 65088, Note_on_c, 1, 59, 111
3, 65180, Note_off_c, 1, 59, 0
3, 65184, Note_on_c, 1, 57, 111
3, 65276, Note_off_c, 1, 57, 0
3, 65280, Note_on_c, 1, 62, 111
3, 65468, Note_off_c, 1, 62, 0
3, 65472, Note_on_c, 1, 57, 111
3, 65660, Note_off_c, 1, 57, 0
3, 65664, Note_on_c, 1, 54, 111
3, 65852, Note_off_c, 1, 54, 0
3, 65856, Note_on_c, 1, 50, 88
3, 66044, Note_off_c, 1, 50, 0
3, 66048, Note_on_c, 1, 52, 88
3, 66428, Note_off_c, 1, 52, 0
3, 66432, Note_on_c, 1, 55, 86
3, 66812, Note_off_c, 1, 55, 0
3, 66816, Note_on_c, 1, 57, 75
3, 67196, Note_off_c, 1, 57, 0
3, 67200, Note_on_c, 1, 52, 66
3, 67200, Note_on_c, 1, 49, 66
3, 67580, Note_off_c, 1, 52, 0
3, 67580, Note_off_c, 1, 49, 0
3, 67584, Note_on_c, 1, 54, 88
3, 67584, Note_on_c, 1, 50, 88
3, 67964, Note_off_c, 1, 54, 0
3, 67964, Note_off_c, 1, 50, 0
3, 67968, Note_on_c, 1, 55, 75
3, 67968, Note_on_c, 1, 52, 75
3, 68348, Note_off_c, 1, 55, 0
3, 68348, Note_off_c, 1, 52, 0
3, 68352, Note_on_c, 1, 57, 66
3, 68352, Note_on_c, 1, 54, 66
3, 68732, Note_off_c, 1, 57, 0
3, 68732, Note_off_c, 1, 54, 0
3, 69120, Note_on_c, 1, 59, 88
3, 69120, Note_on_c, 1, 55, 88
3, 69500, Note_off_c, 1, 59, 0
3, 69500, Note_off_c, 1, 55, 0
3, 69696, Note_on_c, 1, 55, 88
3, 69696, Note_on_c, 1, 64, 88
3, 69884, Note_off_c, 1, 55, 0
3, 69884, Note_off_c, 1, 64, 0
3, 69888, Note_on_c, 1, 57, 86
3, 69888, Note_on_c, 1, 62, 86
3, 70076, Note_off_c, 1, 62, 0
3, 70080, Note_on_c, 1, 66, 81
3, 70268, Note_off_c, 1, 57, 0
3, 70268, Note_off_c, 1, 66, 0
3, 70272, Note_on_c, 1, 57, 75
3, 70272, Note_on_c, 1, 67, 75
3, 70460, Note_off_c, 1, 67, 0
3, 70464, Note_on_c, 1, 64, 70
3, 70652, Note_off_c, 1, 57, 0
3, 70652, Note_off_c, 1, 64, 0
3, 70656, Note_on_c, 1, 62, 68
3, 70656, Note_on_c, 1, 66, 68
3, 71036, Note_off_c, 1, 62, 64
3, 71036, Note_off_c, 1, 66, 64
3, 73728, Note_on_c, 1, 50, 99
3, 73820, Note_off_c, 1, 50, 0
3, 73824, Note_on_c, 1, 57, 99
3, 73916, Note_off_c, 1, 57, 0
3, 73920, Note_on_c, 1, 54, 99
3, 74012, Note_off_c, 1, 54, 0
3, 74016, Note_on_c, 1, 57, 99
3, 74108, Note_off_c, 1, 57, 0
3, 74112, Note_on_c, 1, 50, 99
3, 74204, Note_off_c, 1, 50, 0
3, 74208, Note_on_c, 1, 57, 99
3, 74300, Note_off_c, 1, 57, 0
3, 74304, Note_on_c, 1, 54, 99
3, 74396, Note_off_c, 1, 54, 0
3, 74400, Note_on_c, 1, 57, 99
3, 74492, Note_off_c, 1, 57, 0
3, 74496, Note_on_c, 1, 50, 96
3, 74588, Note_off_c, 1, 50, 0
3, 74592, Note_on_c, 1, 57, 93
3, 74684, Note_off_c, 1, 57, 0
3, 74688, Note_on_c, 1, 54, 90
3, 74780, Note_off_c, 1, 54, 0
3, 74784, Note_on_c, 1, 57, 86
3, 74876, Note_off_c, 1, 57, 0
3, 74880, Note_on_c, 1, 50, 83
3, 74972, Note_off_c, 1, 50, 0
3, 74976, Note_on_c, 1, 57, 80
3, 75068, Note_off_c, 1, 57, 0
3, 75072, Note_on_c, 1, 54, 77
3, 75164, Note_off_c, 1, 54, 0
3, 75168, Note_on_c, 1, 57, 73
3, 75260, Note_off_c, 1, 57, 0
3, 75264, Note_on_c, 1, 50, 70
3, 75644, Note_off_c, 1, 50, 0
3, 76032, Note_on_c, 1, 57, 66
3, 76032, Note_on_c, 1, 54, 66
3, 76032, Note_on_c, 1, 50, 66
3, 76412, Note_off_c, 1, 57, 0
3, 76412, Note_off_c, 1, 54, 0
3, 76412, Note_off_c, 1, 50, 0
3, 78336, Note_on_c, 1, 45, 67
3, 78428, Note_off_c, 1, 45, 0
3, 78432, Note_on_c, 1, 57, 69
3, 78524, Note_off_c, 1, 57, 0
3, 78528, Note_on_c, 1, 56, 72
3, 78620, Note_off_c, 1, 56, 0
3, 78624, Note_on_c, 1, 57, 74
3, 78716, Note_off_c, 1, 57, 0
3, 78720, Note_on_c, 1, 59, 78
3, 78812, Note_off_c, 1, 59, 0
3, 78816, Note_on_c, 1, 57, 81
3, 78908, Note_off_c, 1, 57, 0
3, 78912, Note_on_c, 1, 56, 83
3, 79004, Note_off_c, 1, 56, 0
3, 79008, Note_on_c, 1, 57, 86
3, 79100, Note_off_c, 1, 57, 0
3, 79104, Note_on_c, 1, 61, 88
3, 79196, Note_off_c, 1, 61, 0
3, 79200, Note_on_c, 1, 57, 85
3, 79292, Note_off_c, 1, 57, 0
3, 79296, Note_on_c, 1, 56, 82
3, 79388, Note_off_c, 1, 56, 0
3, 79392, Note_on_c, 1, 57, 79
3, 79484, Note_off_c, 1, 57, 0
3, 79488, Note_on_c, 1, 52, 75
3, 79580, Note_off_c, 1, 52, 0
3, 79584, Note_on_c, 1, 57, 73
3, 79676, Note_off_c, 1, 57, 0
3, 79680, Note_on_c, 1, 50, 70
3, 79772, Note_off_c, 1, 50, 0
3, 79776, Note_on_c, 1, 57, 67
3, 79868, Note_off_c, 1, 57, 0
3, 79872, Note_on_c, 1, 49, 88
3, 79964, Note_off_c, 1, 49, 0
3, 79968, Note_on_c, 1, 57, 88
3, 80060, Note_off_c, 1, 57, 0
3, 80064, Note_on_c, 1, 52, 88
3, 80156, Note_off_c, 1, 52, 0
3, 80160, Note_on_c, 1, 57, 88
3, 80252, Note_off_c, 1, 57, 0
3, 80256, Note_on_c, 1, 49, 88
3, 80348, Note_off_c, 1, 49, 0
3, 80352, Note_on_c, 1, 57, 88
3, 80444, Note_off_c, 1, 57, 0
3, 80448, Note_on_c, 1, 52, 88
3, 80540, Note_off_c, 1, 52, 0
3, 80544, Note_on_c, 1, 57, 88
3, 80636, Note_off_c, 1, 57, 0
3, 80640, Note_on_c, 1, 49, 88
3, 80732, Note_off_c, 1, 49, 0
3, 80736, Note_on_c, 1, 57, 88
3, 80828, Note_off_c, 1, 57, 0
3, 80832, Note_on_c, 1, 52, 88
3, 80924, Note_off_c, 1, 52, 0
3, 80928, Note_on_c, 1, 57, 88
3, 81020, Note_off_c, 1, 57, 0
3, 81024, Note_on_c, 1, 49, 88
3, 81116, Note_off_c, 1, 49, 0
3, 81120, Note_on_c, 1, 57, 88
3, 81212, Note_off_c, 1, 57, 0
3, 81216, Note_on_c, 1, 52, 88
3, 81308, Note_off_c, 1, 52, 0
3, 81312, Note_on_c, 1, 57, 88
3, 81404, Note_off_c, 1, 57, 0
3, 81408, Note_on_c, 1, 49, 66
3, 81788, Note_off_c, 1, 49, 0
3, 82176, Note_on_c, 1, 57, 66
3, 82176, Note_on_c, 1, 52, 66
3, 82176, Note_on_c, 1, 49, 66
3, 82556, Note_off_c, 1, 57, 0
3, 82556, Note_off_c, 1, 52, 0
3, 82556, Note_off_c, 1, 49, 0
3, 84480, Note_on_c, 1, 47, 68
3, 84572, Note_off_c, 1, 47, 0
3, 84576, Note_on_c, 1, 59, 70
3, 84668, Note_off_c, 1, 59, 0
3, 84672, Note_on_c, 1, 58, 73
3, 84764, Note_off_c, 1, 58, 0
3, 84768, Note_on_c, 1, 59, 77
3, 84860, Note_off_c, 1, 59, 0
3, 84864, Note_on_c, 1, 61, 82
3, 84956, Note_off_c, 1, 61, 0
3, 84960, Note_on_c, 1, 59, 86
3, 85052, Note_off_c, 1, 59, 0
3, 85056, Note_on_c, 1, 58, 88
3, 85148, Note_off_c, 1, 58, 0
3, 85152, Note_on_c, 1, 59, 92
3, 85244, Note_off_c, 1, 59, 0
3, 85248, Note_on_c, 1, 62, 92
3, 85340, Note_off_c, 1, 62, 0
3, 85344, Note_on_c, 1, 59, 91
3, 85436, Note_off_c, 1, 59, 0
3, 85440, Note_on_c, 1, 58, 86
3, 85532, Note_off_c, 1, 58, 0
3, 85536, Note_on_c, 1, 59, 84
3, 85628, Note_off_c, 1, 59, 0
3, 85632, Note_on_c, 1, 56, 79
3, 85724, Note_off_c, 1, 56, 0
3, 85728, Note_on_c, 1, 59, 75
3, 85820, Note_off_c, 1, 59, 0
3, 85824, Note_on_c, 1, 54, 72
3, 85916, Note_off_c, 1, 54, 0
3, 85920, Note_on_c, 1, 59, 68
3, 86012, Note_off_c, 1, 59, 0
3, 86016, Note_on_c, 1, 52, 81
3, 86108, Note_off_c, 1, 52, 0
3, 86112, Note_on_c, 1, 59, 81
3, 86204, Note_off_c, 1, 59, 0
3, 86208, Note_on_c, 1, 56, 81
3, 86300, Note_off_c, 1, 56, 0
3, 86304, Note_on_c, 1, 59, 81
3, 86396, Note_off_c, 1, 59, 0
3, 86400, Note_on_c, 1, 52, 81
3, 86492, Note_off_c, 1, 52, 0
3, 86496, Note_on_c, 1, 59, 81
3, 86588, Note_off_c, 1, 59, 0
3, 86592, Note_on_c, 1, 56, 81
3, 86684, Note_off_c, 1, 56, 0
3, 86688, Note_on_c, 1, 59, 81
3, 86780, Note_off_c, 1, 59, 0
3, 86784, Note_on_c, 1, 52, 79
3, 86876, Note_off_c, 1, 52, 0
3, 86880, Note_on_c, 1, 59, 77
3, 86972, Note_off_c, 1, 59, 0
3, 86976, Note_on_c, 1, 56, 75
3, 87068, Note_off_c, 1, 56, 0
3, 87072, Note_on_c, 1, 59, 73
3, 87164, Note_off_c, 1, 59, 0
3, 87168, Note_on_c, 1, 52, 73
3, 87260, Note_off_c, 1, 52, 0
3, 87264, Note_on_c, 1, 59, 72
3, 87356, Note_off_c, 1, 59, 0
3, 87360, Note_on_c, 1, 56, 70
3, 87452, Note_off_c, 1, 56, 0
3, 87456, Note_on_c, 1, 59, 69
3, 87548, Note_off_c, 1, 59, 0
3, 87552, Note_on_c, 1, 52, 66
3, 87932, Note_off_c, 1, 52, 0
3, 88320, Note_on_c, 1, 59, 66
3, 88320, Note_on_c, 1, 56, 66
3, 88320, Note_on_c, 1, 52, 66
3, 88700, Note_off_c, 1, 59, 0
3, 88700, Note_off_c, 1, 56, 0
3, 88700, Note_off_c, 1, 52, 0
3, 90624, Note_on_c, 1, 57, 66
3, 90716, Note_off_c, 1, 57, 0
3, 90720, Note_on_c, 1, 64, 66
3, 90812, Note_off_c, 1, 64, 0
3, 90816, Note_on_c, 1, 61, 66
3, 90908, Note_off_c, 1, 61, 0
3, 90912, Note_on_c, 1, 64, 66
3, 91004, Note_off_c, 1, 64, 0
3, 91008, Note_on_c, 1, 57, 66
3, 91100, Note_off_c, 1, 57, 0
3, 91104, Note_on_c, 1, 64, 66
3, 91196, Note_off_c, 1, 64, 0
3, 91200, Note_on_c, 1, 61, 66
3, 91292, Note_off_c, 1, 61, 0
3, 91296, Note_on_c, 1, 64, 66
3, 91388, Note_off_c, 1, 64, 0
3, 91392, Note_on_c, 1, 57, 66
3, 91484, Note_off_c, 1, 57, 0
3, 91488, Note_on_c, 1, 66, 66
3, 91580, Note_off_c, 1, 66, 0
3, 91584, Note_on_c, 1, 62, 66
3, 91676, Note_off_c, 1, 62, 0
3, 91680, Note_on_c, 1, 66, 66
3, 91772, Note_off_c, 1, 66, 0
3, 91776, Note_on_c, 1, 57, 66
3, 91868, Note_off_c, 1, 57, 0
3, 91872, Note_on_c, 1, 66, 66
3, 91964, Note_off_c, 1, 66, 0
3, 91968, Note_on_c, 1, 62, 66
3, 92060, Note_off_c, 1, 62, 0
3, 92064, Note_on_c, 1, 66, 66
3, 92156, Note_off_c, 1, 66, 0
3, 92160, Note_on_c, 1, 57, 66
3, 92252, Note_off_c, 1, 57, 0
3, 92256, Note_on_c, 1, 64, 66
3, 92348, Note_off_c, 1, 64, 0
3, 92352, Note_on_c, 1, 61, 66
3, 92444, Note_off_c, 1, 61, 0
3, 92448, Note_on_c, 1, 64, 66
3, 92540, Note_off_c, 1, 64, 0
3, 92544, Note_on_c, 1, 57, 66
3, 92636, Note_off_c, 1, 57, 0
3, 92640, Note_on_c, 1, 64, 66
3, 92732, Note_off_c, 1, 64, 0
3, 92736, Note_on_c, 1, 61, 66
3, 92828, Note_off_c, 1, 61, 0
3, 92832, Note_on_c, 1, 64, 66
3, 92924, Note_off_c, 1, 64, 0
3, 92928, Note_on_c, 1, 57, 60
3, 93020, Note_off_c, 1, 57, 0
3, 93024, Note_on_c, 1, 66, 60
3, 93116, Note_off_c, 1, 66, 0
3, 93120, Note_on_c, 1, 62, 60
3, 93212, Note_off_c, 1, 62, 0
3, 93216, Note_on_c, 1, 66, 60
3, 93308, Note_off_c, 1, 66, 0
3, 93312, Note_on_c, 1, 57, 60
3, 93404, Note_off_c, 1, 57, 0
3, 93408, Note_on_c, 1, 66, 60
3, 93500, Note_off_c, 1, 66, 0
3, 93504, Note_on_c, 1, 62, 60
3, 93596, Note_off_c, 1, 62, 0
3, 93600, Note_on_c, 1, 66, 60
3, 93692, Note_off_c, 1, 66, 0
3, 93696, Note_on_c, 1, 57, 60
3, 93788, Note_off_c, 1, 57, 0
3, 93792, Note_on_c, 1, 64, 60
3, 93884, Note_off_c, 1, 64, 0
3, 93888, Note_on_c, 1, 61, 60
3, 93980, Note_off_c, 1, 61, 0
3, 93984, Note_on_c, 1, 64, 60
3, 94076, Note_off_c, 1, 64, 0
3, 94080, Note_on_c, 1, 49, 60
3, 94172, Note_off_c, 1, 49, 0
3, 94176, Note_on_c, 1, 57, 60
3, 94268, Note_off_c, 1, 57, 0
3, 94272, Note_on_c, 1, 52, 60
3, 94364, Note_off_c, 1, 52, 0
3, 94368, Note_on_c, 1, 57, 60
3, 94460, Note_off_c, 1, 57, 0
3, 94464, Note_on_c, 1, 50, 60
3, 94556, Note_off_c, 1, 50, 0
3, 94560, Note_on_c, 1, 57, 60
3, 94652, Note_off_c, 1, 57, 0
3, 94656, Note_on_c, 1, 54, 60
3, 94748, Note_off_c, 1, 54, 0
3, 94752, Note_on_c, 1, 57, 60
3, 94844, Note_off_c, 1, 57, 0
3, 94848, Note_on_c, 1, 51, 60
3, 94940, Note_off_c, 1, 51, 0
3, 94944, Note_on_c, 1, 59, 60
3, 95036, Note_off_c, 1, 59, 0
3, 95040, Note_on_c, 1, 54, 60
3, 95132, Note_off_c, 1, 54, 0
3, 95136, Note_on_c, 1, 59, 60
3, 95228, Note_off_c, 1, 59, 0
3, 95232, Note_on_c, 1, 52, 60
3, 95324, Note_off_c, 1, 52, 0
3, 95328, Note_on_c, 1, 59, 60
3, 95420, Note_off_c, 1, 59, 0
3, 95424, Note_on_c, 1, 56, 60
3, 95516, Note_off_c, 1, 56, 0
3, 95520, Note_on_c, 1, 59, 60
3, 95612, Note_off_c, 1, 59, 0
3, 95616, Note_on_c, 1, 49, 60
3, 95708, Note_off_c, 1, 49, 0
3, 95712, Note_on_c, 1, 57, 60
3, 95804, Note_off_c, 1, 57, 0
3, 95808, Note_on_c, 1, 52, 60
3, 95900, Note_off_c, 1, 52, 0
3, 95904, Note_on_c, 1, 57, 60
3, 95996, Note_off_c, 1, 57, 0
3, 96000, Note_on_c, 1, 50, 60
3, 96092, Note_off_c, 1, 50, 0
3, 96096, Note_on_c, 1, 57, 60
3, 96188, Note_off_c, 1, 57, 0
3, 96192, Note_on_c, 1, 54, 60
3, 96284, Note_off_c, 1, 54, 0
3, 96288, Note_on_c, 1, 57, 60
3, 96380, Note_off_c, 1, 57, 0
3, 96384, Note_on_c, 1, 51, 60
3, 96476, Note_off_c, 1, 51, 0
3, 96480, Note_on_c, 1, 59, 60
3, 96572, Note_off_c, 1, 59, 0
3, 96576, Note_on_c, 1, 54, 60
3, 96668, Note_off_c, 1, 54, 0
3, 96672, Note_on_c, 1, 59, 60
3, 96764, Note_off_c, 1, 59, 0
3, 96768, Note_on_c, 1, 52, 60
3, 97148, Note_off_c, 1, 52, 0
3, 109824, Note_on_c, 1, 49, 66
3, 109916, Note_off_c, 1, 49, 0
3, 109920, Note_on_c, 1, 52, 66
3, 110012, Note_off_c, 1, 52, 0
3, 110016, Note_on_c, 1, 49, 66
3, 110108, Note_off_c, 1, 49, 0
3, 110112, Note_on_c, 1, 52, 66
3, 110204, Note_off_c, 1, 52, 0
3, 110208, Note_on_c, 1, 50, 66
3, 110300, Note_off_c, 1, 50, 0
3, 110304, Note_on_c, 1, 54, 66
3, 110396, Note_off_c, 1, 54, 0
3, 110400, Note_on_c, 1, 51, 66
3, 110492, Note_off_c, 1, 51, 0
3, 110496, Note_on_c, 1, 54, 66
3, 110588, Note_off_c, 1, 54, 0
3, 110592, Note_on_c, 1, 52, 66
3, 110684, Note_off_c, 1, 52, 0
3, 110688, Note_on_c, 1, 64, 66
3, 110780, Note_off_c, 1, 64, 0
3, 110784, Note_on_c, 1, 63, 66
3, 110876, Note_off_c, 1, 63, 0
3, 110880, Note_on_c, 1, 64, 66
3, 110972, Note_off_c, 1, 64, 0
3, 110976, Note_on_c, 1, 66, 66
3, 111068, Note_off_c, 1, 66, 0
3, 111072, Note_on_c, 1, 64, 66
3, 111164, Note_off_c, 1, 64, 0
3, 111168, Note_on_c, 1, 63, 66
3, 111260, Note_off_c, 1, 63, 0
3, 111264, Note_on_c, 1, 64, 66
3, 111356, Note_off_c, 1, 64, 0
3, 111360, Note_on_c, 1, 52, 66
3, 111452, Note_off_c, 1, 52, 0
3, 111456, Note_on_c, 1, 64, 66
3, 111548, Note_off_c, 1, 64, 0
3, 111552, Note_on_c, 1, 63, 66
3, 111644, Note_off_c, 1, 63, 0
3, 111648, Note_on_c, 1, 64, 66
3, 111740, Note_off_c, 1, 64, 0
3, 111744, Note_on_c, 1, 66, 66
3, 111836, Note_off_c, 1, 66, 0
3, 111840, Note_on_c, 1, 64, 66
3, 111932, Note_off_c, 1, 64, 0
3, 111936, Note_on_c, 1, 63, 66
3, 112028, Note_off_c, 1, 63, 0
3, 112032, Note_on_c, 1, 64, 66
3, 112124, Note_off_c, 1, 64, 0
3, 112128, Note_on_c, 1, 52, 66
3, 112220, Note_off_c, 1, 52, 0
3, 112224, Note_on_c, 1, 64, 66
3, 112316, Note_off_c, 1, 64, 0
3, 112320, Note_on_c, 1, 63, 66
3, 112412, Note_off_c, 1, 63, 0
3, 112416, Note_on_c, 1, 64, 66
3, 112508, Note_off_c, 1, 64, 0
3, 112512, Note_on_c, 1, 66, 66
3, 112604, Note_off_c, 1, 66, 0
3, 112608, Note_on_c, 1, 64, 66
3, 112700, Note_off_c, 1, 64, 0
3, 112704, Note_on_c, 1, 63, 66
3, 112796, Note_off_c, 1, 63, 0
3, 112800, Note_on_c, 1, 64, 66
3, 112892, Note_off_c, 1, 64, 0
3, 112896, Note_on_c, 1, 52, 66
3, 112988, Note_off_c, 1, 52, 0
3, 112992, Note_on_c, 1, 64, 66
3, 113084, Note_off_c, 1, 64, 0
3, 113088, Note_on_c, 1, 63, 66
3, 113180, Note_off_c, 1, 63, 0
3, 113184, Note_on_c, 1, 64, 66
3, 113276, Note_off_c, 1, 64, 0
3, 113280, Note_on_c, 1, 66, 66
3, 113372, Note_off_c, 1, 66, 0
3, 113376, Note_on_c, 1, 64, 66
3, 113468, Note_off_c, 1, 64, 0
3, 113472, Note_on_c, 1, 63, 66
3, 113564, Note_off_c, 1, 63, 0
3, 113568, Note_on_c, 1, 64, 66
3, 113660, Note_off_c, 1, 64, 0
3, 114240, Note_on_c, 1, 64, 66
3, 114240, Note_on_c, 1, 61, 66
3, 114428, Note_off_c, 1, 64, 0
3, 114428, Note_off_c, 1, 61, 0
3, 114432, Note_on_c, 1, 59, 66
3, 114432, Note_on_c, 1, 62, 66
3, 114620, Note_off_c, 1, 59, 0
3, 114620, Note_off_c, 1, 62, 0
3, 114624, Note_on_c, 1, 57, 66
3, 114624, Note_on_c, 1, 61, 66
3, 114812, Note_off_c, 1, 57, 0
3, 114812, Note_off_c, 1, 61, 0
3, 114816, Note_on_c, 1, 59, 66
3, 114816, Note_on_c, 1, 56, 66
3, 115004, Note_off_c, 1, 59, 0
3, 115004, Note_off_c, 1, 56, 0
3, 115008, Note_on_c, 1, 59, 66
3, 115008, Note_on_c, 1, 62, 66
3, 115196, Note_off_c, 1, 59, 0
3, 115196, Note_off_c, 1, 62, 0
3, 115200, Note_on_c, 1, 57, 66
3, 115200, Note_on_c, 1, 61, 66
3, 115580, Note_off_c, 1, 57, 0
3, 115580, Note_off_c, 1, 61, 0
3, 115776, Note_on_c, 1, 61, 66
3, 115776, Note_on_c, 1, 52, 66
3, 115964, Note_off_c, 1, 61, 0
3, 115964, Note_off_c, 1, 52, 0
3, 115968, Note_on_c, 1, 59, 66
3, 115968, Note_on_c, 1, 50, 66
3, 116156, Note_off_c, 1, 59, 0
3, 116156, Note_off_c, 1, 50, 0
3, 116160, Note_on_c, 1, 57, 66
3, 116160, Note_on_c, 1, 49, 66
3, 116348, Note_off_c, 1, 57, 0
3, 116348, Note_off_c, 1, 49, 0
3, 116352, Note_on_c, 1, 56, 66
3, 116352, Note_on_c, 1, 47, 66
3, 116540, Note_off_c, 1, 56, 0
3, 116540, Note_off_c, 1, 47, 0
3, 116544, Note_on_c, 1, 59, 66
3, 116544, Note_on_c, 1, 50, 66
3, 116732, Note_off_c, 1, 59, 0
3, 116732, Note_off_c, 1, 50, 0
3, 116736, Note_on_c, 1, 49, 66
3, 116828, Note_off_c, 1, 49, 0
3, 116832, Note_on_c, 1, 57, 66
3, 116924, Note_off_c, 1, 57, 0
3, 116928, Note_on_c, 1, 52, 66
3, 117020, Note_off_c, 1, 52, 0
3, 117024, Note_on_c, 1, 57, 66
3, 117116, Note_off_c, 1, 57, 0
3, 117120, Note_on_c, 1, 49, 66
3, 117212, Note_off_c, 1, 49, 0
3, 117216, Note_on_c, 1, 57, 66
3, 117308, Note_off_c, 1, 57, 0
3, 117312, Note_on_c, 1, 52, 66
3, 117404, Note_off_c, 1, 52, 0
3, 117408, Note_on_c, 1, 57, 66
3, 117500, Note_off_c, 1, 57, 0
3, 117504, Note_on_c, 1, 49, 66
3, 117596, Note_off_c, 1, 49, 0
3, 117600, Note_on_c, 1, 57, 66
3, 117692, Note_off_c, 1, 57, 0
3, 117696, Note_on_c, 1, 52, 66
3, 117788, Note_off_c, 1, 52, 0
3, 117792, Note_on_c, 1, 57, 66
3, 117884, Note_off_c, 1, 57, 0
3, 117888, Note_on_c, 1, 49, 66
3, 117980, Note_off_c, 1, 49, 0
3, 117984, Note_on_c, 1, 57, 66
3, 118076, Note_off_c, 1, 57, 0
3, 118080, Note_on_c, 1, 52, 66
3, 118172, Note_off_c, 1, 52, 0
3, 118176, Note_on_c, 1, 57, 66
3, 118268, Note_off_c, 1, 57, 0
3, 118272, Note_on_c, 1, 50, 66
3, 118364, Note_off_c, 1, 50, 0
3, 118368, Note_on_c, 1, 57, 66
3, 118460, Note_off_c, 1, 57, 0
3, 118464, Note_on_c, 1, 54, 66
3, 118556, Note_off_c, 1, 54, 0
3, 118560, Note_on_c, 1, 57, 66
3, 118652, Note_off_c, 1, 57, 0
3, 118656, Note_on_c, 1, 50, 66
3, 118748, Note_off_c, 1, 50, 0
3, 118752, Note_on_c, 1, 57, 66
3, 118844, Note_off_c, 1, 57, 0
3, 118848, Note_on_c, 1, 54, 66
3, 118940, Note_off_c, 1, 54, 0
3, 118944, Note_on_c, 1, 57, 66
3, 119036, Note_off_c, 1, 57, 0
3, 119040, Note_on_c, 1, 50, 66
3, 119132, Note_off_c, 1, 50, 0
3, 119136, Note_on_c, 1, 57, 66
3, 119228, Note_off_c, 1, 57, 0
3, 119232, Note_on_c, 1, 54, 66
3, 119324, Note_off_c, 1, 54, 0
3, 119328, Note_on_c, 1, 57, 66
3, 119420, Note_off_c, 1, 57, 0
3, 119424, Note_on_c, 1, 50, 66
3, 119516, Note_off_c, 1, 50, 0
3, 119520, Note_on_c, 1, 57, 66
3, 119612, Note_off_c, 1, 57, 0
3, 119616, Note_on_c, 1, 54, 66
3, 119708, Note_off_c, 1, 54, 0
3, 119712, Note_on_c, 1, 57, 66
3, 119804, Note_off_c, 1, 57, 0
3, 119808, Note_on_c, 1, 52, 66
3, 119900, Note_off_c, 1, 52, 0
3, 119904, Note_on_c, 1, 59, 66
3, 119996, Note_off_c, 1, 59, 0
3, 120000, Note_on_c, 1, 56, 66
3, 120092, Note_off_c, 1, 56, 0
3, 120096, Note_on_c, 1, 59, 66
3, 120188, Note_off_c, 1, 59, 0
3, 120192, Note_on_c, 1, 52, 66
3, 120284, Note_off_c, 1, 52, 0
3, 120288, Note_on_c, 1, 59, 66
3, 120380, Note_off_c, 1, 59, 0
3, 120384, Note_on_c, 1, 56, 66
3, 120476, Note_off_c, 1, 56, 0
3, 120480, Note_on_c, 1, 59, 66
3, 120572, Note_off_c, 1, 59, 0
3, 120576, Note_on_c, 1, 52, 66
3, 120668, Note_off_c, 1, 52, 0
3, 120672, Note_on_c, 1, 59, 66
3, 120764, Note_off_c, 1, 59, 0
3, 120768, Note_on_c, 1, 56, 66
3, 120860, Note_off_c, 1, 56, 0
3, 120864, Note_on_c, 1, 59, 66
3, 120956, Note_off_c, 1, 59, 0
3, 120960, Note_on_c, 1, 52, 66
3, 121052, Note_off_c, 1, 52, 0
3, 121056, Note_on_c, 1, 59, 66
3, 121148, Note_off_c, 1, 59, 0
3, 121152, Note_on_c, 1, 56, 66
3, 121244, Note_off_c, 1, 56, 0
3, 121248, Note_on_c, 1, 59, 66
3, 121340, Note_off_c, 1, 59, 0
3, 121344, Note_on_c, 1, 57, 99
3, 121532, Note_off_c, 1, 57, 0
3, 121536, Note_on_c, 1, 57, 95
3, 121628, Note_off_c, 1, 57, 0
3, 121632, Note_on_c, 1, 69, 91
3, 121724, Note_off_c, 1, 69, 0
3, 121728, Note_on_c, 1, 56, 89
3, 121820, Note_off_c, 1, 56, 0
3, 121824, Note_on_c, 1, 68, 87
3, 121916, Note_off_c, 1, 68, 0
3, 121920, Note_on_c, 1, 54, 85
3, 122012, Note_off_c, 1, 54, 0
3, 122016, Note_on_c, 1, 66, 83
3, 122108, Note_off_c, 1, 66, 0
3, 122112, Note_on_c, 1, 52, 81
3, 122204, Note_off_c, 1, 52, 0
3, 122208, Note_on_c, 1, 64, 79
3, 122300, Note_off_c, 1, 64, 0
3, 122304, Note_on_c, 1, 54, 77
3, 122396, Note_off_c, 1, 54, 0
3, 122400, Note_on_c, 1, 66, 75
3, 122492, Note_off_c, 1, 66, 0
3, 122496, Note_on_c, 1, 52, 73
3, 122588, Note_off_c, 1, 52, 0
3, 122592, Note_on_c, 1, 64, 71
3, 122684, Note_off_c, 1, 64, 0
3, 122688, Note_on_c, 1, 50, 69
3, 122780, Note_off_c, 1, 50, 0
3, 122784, Note_on_c, 1, 62, 67
3, 122876, Note_off_c, 1, 62, 0
3, 122880, Note_on_c, 1, 49, 66
3, 122972, Note_off_c, 1, 49, 0
3, 122976, Note_on_c, 1, 57, 66
3, 123068, Note_off_c, 1, 57, 0
3, 123072, Note_on_c, 1, 52, 66
3, 123164, Note_off_c, 1, 52, 0
3, 123168, Note_on_c, 1, 57, 66
3, 123260, Note_off_c, 1, 57, 0
3, 123264, Note_on_c, 1, 49, 66
3, 123356, Note_off_c, 1, 49, 0
3, 123360, Note_on_c, 1, 57, 66
3, 123452, Note_off_c, 1, 57, 0
3, 123456, Note_on_c, 1, 52, 66
3, 123548, Note_off_c, 1, 52, 0
3, 123552, Note_on_c, 1, 57, 66
3, 123644, Note_off_c, 1, 57, 0
3, 123648, Note_on_c, 1, 49, 66
3, 123740, Note_off_c, 1, 49, 0
3, 123744, Note_on_c, 1, 57, 66
3, 123836, Note_off_c, 1, 57, 0
3, 123840, Note_on_c, 1, 52, 66
3, 123932, Note_off_c, 1, 52, 0
3, 123936, Note_on_c, 1, 57, 66
3, 124028, Note_off_c, 1, 57, 0
3, 124032, Note_on_c, 1, 49, 66
3, 124124, Note_off_c, 1, 49, 0
3, 124128, Note_on_c, 1, 57, 66
3, 124220, Note_off_c, 1, 57, 0
3, 124224, Note_on_c, 1, 52, 66
3, 124316, Note_off_c, 1, 52, 0
3, 124320, Note_on_c, 1, 57, 66
3, 124412, Note_off_c, 1, 57, 0
3, 124416, Note_on_c, 1, 50, 66
3, 124508, Note_off_c, 1, 50, 0
3, 124512, Note_on_c, 1, 57, 66
3, 124604, Note_off_c, 1, 57, 0
3, 124608, Note_on_c, 1, 54, 66
3, 124700, Note_off_c, 1, 54, 0
3, 124704, Note_on_c, 1, 57, 66
3, 124796, Note_off_c, 1, 57, 0
3, 124800, Note_on_c, 1, 50, 66
3, 124892, Note_off_c, 1, 50, 0
3, 124896, Note_on_c, 1, 57, 66
3, 124988, Note_off_c, 1, 57, 0
3, 124992, Note_on_c, 1, 54, 66
3, 125084, Note_off_c, 1, 54, 0
3, 125088, Note_on_c, 1, 57, 66
3, 125180, Note_off_c, 1, 57, 0
3, 125184, Note_on_c, 1, 50, 66
3, 125276, Note_off_c, 1, 50, 0
3, 125280, Note_on_c, 1, 57, 66
3, 125372, Note_off_c, 1, 57, 0
3, 125376, Note_on_c, 1, 54, 66
3, 125468, Note_off_c, 1, 54, 0
3, 125472, Note_on_c, 1, 57, 66
3, 125564, Note_off_c, 1, 57, 0
3, 125568, Note_on_c, 1, 50, 66
3, 125660, Note_off_c, 1, 50, 0
3, 125664, Note_on_c, 1, 57, 66
3, 125756, Note_off_c, 1, 57, 0
3, 125760, Note_on_c, 1, 54, 66
3, 125852, Note_off_c, 1, 54, 0
3, 125856, Note_on_c, 1, 57, 66
3, 125948, Note_off_c, 1, 57, 0
3, 125952, Note_on_c, 1, 52, 66
3, 126044, Note_off_c, 1, 52, 0
3, 126048, Note_on_c, 1, 61, 66
3, 126140, Note_off_c, 1, 61, 0
3, 126144, Note_on_c, 1, 57, 66
3, 126236, Note_off_c, 1, 57, 0
3, 126240, Note_on_c, 1, 61, 66
3, 126332, Note_off_c, 1, 61, 0
3, 126336, Note_on_c, 1, 52, 66
3, 126428, Note_off_c, 1, 52, 0
3, 126432, Note_on_c, 1, 61, 66
3, 126524, Note_off_c, 1, 61, 0
3, 126528, Note_on_c, 1, 57, 66
3, 126620, Note_off_c, 1, 57, 0
3, 126624, Note_on_c, 1, 61, 66
3, 126716, Note_off_c, 1, 61, 0
3, 126720, Note_on_c, 1, 52, 66
3, 126812, Note_off_c, 1, 52, 0
3, 126816, Note_on_c, 1, 62, 66
3, 126908, Note_off_c, 1, 62, 0
3, 126912, Note_on_c, 1, 56, 66
3, 127004, Note_off_c, 1, 56, 0
3, 127008, Note_on_c, 1, 62, 66
3, 127100, Note_off_c, 1, 62, 0
3, 127104, Note_on_c, 1, 52, 66
3, 127196, Note_off_c, 1, 52, 0
3, 127200, Note_on_c, 1, 62, 66
3, 127292, Note_off_c, 1, 62, 0
3, 127296, Note_on_c, 1, 56, 66
3, 127388, Note_off_c, 1, 56, 0
3, 127392, Note_on_c, 1, 62, 66
3, 127484, Note_off_c, 1, 62, 0
3, 127488, Note_on_c, 1, 61, 66
3, 127488, Note_on_c, 1, 57, 66
3, 127868, Note_off_c, 1, 61, 0
3, 127868, Note_off_c, 1, 57, 0
3, 129024, Note_on_c, 1, 57, 99
3, 129404, Note_off_c, 1, 57, 0
3, 129600, Note_on_c, 1, 57, 99
3, 129788, Note_off_c, 1, 57, 0
3, 129792, Note_on_c, 1, 59, 99
3, 130172, Note_off_c, 1, 59, 0
3, 130176, Note_on_c, 1, 52, 99
3, 130556, Note_off_c, 1, 52, 0
3, 130560, Note_on_c, 1, 57, 99
3, 130940, Note_off_c, 1, 57, 0
3, 132096, Note_on_c, 1, 57, 99
3, 132476, Note_off_c, 1, 57, 0
3, 132672, Note_on_c, 1, 57, 99
3, 132860, Note_off_c, 1, 57, 0
3, 132864, Note_on_c, 1, 59, 88
3, 133244, Note_off_c, 1, 59, 0
3, 133248, Note_on_c, 1, 52, 77
3, 133628, Note_off_c, 1, 52, 0
3, 133632, Note_on_c, 1, 45, 66
3, 133724, Note_off_c, 1, 45, 0
3, 133728, Note_on_c, 1, 57, 66
3, 133820, Note_off_c, 1, 57, 0
3, 133824, Note_on_c, 1, 55, 66
3, 133916, Note_off_c, 1, 55, 0
3, 133920, Note_on_c, 1, 57, 66
3, 134012, Note_off_c, 1, 57, 0
3, 134016, Note_on_c, 1, 45, 66
3, 134108, Note_off_c, 1, 45, 0
3, 134112, Note_on_c, 1, 57, 66
3, 134204, Note_off_c, 1, 57, 0
3, 134208, Note_on_c, 1, 47, 66
3, 134300, Note_off_c, 1, 47, 0
3, 134304, Note_on_c, 1, 57, 66
3, 134396, Note_off_c, 1, 57, 0
3, 134400, Note_on_c, 1, 49, 66
3, 134492, Note_off_c, 1, 49, 0
3, 134496, Note_on_c, 1, 57, 66
3, 134588, Note_off_c, 1, 57, 0
3, 134592, Note_on_c, 1, 50, 66
3, 134684, Note_off_c, 1, 50, 0
3, 134688, Note_on_c, 1, 57, 66
3, 134780, Note_off_c, 1, 57, 0
3, 134784, Note_on_c, 1, 52, 66
3, 134876, Note_off_c, 1, 52, 0
3, 134880, Note_on_c, 1, 57, 66
3, 134972, Note_off_c, 1, 57, 0
3, 134976, Note_on_c, 1, 54, 66
3, 135068, Note_off_c, 1, 54, 0
3, 135072, Note_on_c, 1, 57, 66
3, 135164, Note_off_c, 1, 57, 0
3, 135168, Note_on_c, 1, 49, 66
3, 135260, Note_off_c, 1, 49, 0
3, 135264, Note_on_c, 1, 57, 66
3, 135356, Note_off_c, 1, 57, 0
3, 135360, Note_on_c, 1, 55, 66
3, 135452, Note_off_c, 1, 55, 0
3, 135456, Note_on_c, 1, 57, 66
3, 135548, Note_off_c, 1, 57, 0
3, 135552, Note_on_c, 1, 45, 66
3, 135644, Note_off_c, 1, 45, 0
3, 135648, Note_on_c, 1, 57, 66
3, 135740, Note_off_c, 1, 57, 0
3, 135744, Note_on_c, 1, 47, 66
3, 135836, Note_off_c, 1, 47, 0
3, 135840, Note_on_c, 1, 57, 66
3, 135932, Note_off_c, 1, 57, 0
3, 135936, Note_on_c, 1, 49, 66
3, 136028, Note_off_c, 1, 49, 0
3, 136032, Note_on_c, 1, 57, 66
3, 136124, Note_off_c, 1, 57, 0
3, 136128, Note_on_c, 1, 50, 66
3, 136220, Note_off_c, 1, 50, 0
3, 136224, Note_on_c, 1, 57, 66
3, 136316, Note_off_c, 1, 57, 0
3, 136320, Note_on_c, 1, 52, 66
3, 136412, Note_off_c, 1, 52, 0
3, 136416, Note_on_c, 1, 57, 66
3, 136508, Note_off_c, 1, 57, 0
3, 136512, Note_on_c, 1, 49, 66
3, 136604, Note_off_c, 1, 49, 0
3, 136608, Note_on_c, 1, 57, 66
3, 136700, Note_off_c, 1, 57, 0
3, 136704, Note_on_c, 1, 50, 63
3, 137084, Note_off_c, 1, 50, 0
3, 138240, Note_on_c, 1, 51, 99
3, 138332, Note_off_c, 1, 51, 0
3, 138336, Note_on_c, 1, 57, 99
3, 138428, Note_off_c, 1, 57, 0
3, 138432, Note_on_c, 1, 54, 99
3, 138524, Note_off_c, 1, 54, 0
3, 138528, Note_on_c, 1, 57, 99
3, 138620, Note_off_c, 1, 57, 0
3, 138624, Note_on_c, 1, 51, 99
3, 138716, Note_off_c, 1, 51, 0
3, 138720, Note_on_c, 1, 57, 99
3, 138812, Note_off_c, 1, 57, 0
3, 138816, Note_on_c, 1, 54, 99
3, 138908, Note_off_c, 1, 54, 0
3, 138912, Note_on_c, 1, 57, 99
3, 139004, Note_off_c, 1, 57, 0
3, 139008, Note_on_c, 1, 51, 99
3, 139100, Note_off_c, 1, 51, 0
3, 139104, Note_on_c, 1, 57, 99
3, 139196, Note_off_c, 1, 57, 0
3, 139200, Note_on_c, 1, 54, 99
3, 139292, Note_off_c, 1, 54, 0
3, 139296, Note_on_c, 1, 57, 99
3, 139388, Note_off_c, 1, 57, 0
3, 139392, Note_on_c, 1, 51, 99
3, 139484, Note_off_c, 1, 51, 0
3, 139488, Note_on_c, 1, 57, 99
3, 139580, Note_off_c, 1, 57, 0
3, 139584, Note_on_c, 1, 54, 99
3, 139676, Note_off_c, 1, 54, 0
3, 139680, Note_on_c, 1, 57, 99
3, 139772, Note_off_c, 1, 57, 0
3, 139776, Note_on_c, 1, 52, 99
3, 140156, Note_off_c, 1, 52, 0
3, 140544, Note_on_c, 1, 57, 99
3, 140544, Note_on_c, 1, 52, 99
3, 140924, Note_off_c, 1, 57, 0
3, 140924, Note_off_c, 1, 52, 0
3, 141312, Note_on_c, 1, 57, 99
3, 141312, Note_on_c, 1, 52, 99
3, 141692, Note_off_c, 1, 57, 0
3, 141692, Note_off_c, 1, 52, 0
3, 142848, Note_on_c, 1, 52, 99
3, 142940, Note_off_c, 1, 52, 0
3, 142944, Note_on_c, 1, 61, 99
3, 143036, Note_off_c, 1, 61, 0
3, 143040, Note_on_c, 1, 57, 99
3, 143132, Note_off_c, 1, 57, 0
3, 143136, Note_on_c, 1, 61, 99
3, 143228, Note_off_c, 1, 61, 0
3, 143232, Note_on_c, 1, 52, 99
3, 143324, Note_off_c, 1, 52, 0
3, 143328, Note_on_c, 1, 61, 99
3, 143420, Note_off_c, 1, 61, 0
3, 143424, Note_on_c, 1, 57, 99
3, 143516, Note_off_c, 1, 57, 0
3, 143520, Note_on_c, 1, 61, 99
3, 143612, Note_off_c, 1, 61, 0
3, 143616, Note_on_c, 1, 52, 99
3, 143708, Note_off_c, 1, 52, 0
3, 143712, Note_on_c, 1, 61, 99
3, 143804, Note_off_c, 1, 61, 0
3, 143808, Note_on_c, 1, 57, 99
3, 143900, Note_off_c, 1, 57, 0
3, 143904, Note_on_c, 1, 61, 99
3, 143996, Note_off_c, 1, 61, 0
3, 144000, Note_on_c, 1, 52, 99
3, 144092, Note_off_c, 1, 52, 0
3, 144096, Note_on_c, 1, 61, 99
3, 144188, Note_off_c, 1, 61, 0
3, 144192, Note_on_c, 1, 57, 99
3, 144284, Note_off_c, 1, 57, 0
3, 144288, Note_on_c, 1, 61, 99
3, 144380, Note_off_c, 1, 61, 0
3, 144384, Note_on_c, 1, 52, 99
3, 144476, Note_off_c, 1, 52, 0
3, 144480, Note_on_c, 1, 62, 99
3, 144572, Note_off_c, 1, 62, 0
3, 144576, Note_on_c, 1, 56, 99
3, 144668, Note_off_c, 1, 56, 0
3, 144672, Note_on_c, 1, 62, 99
3, 144764, Note_off_c, 1, 62, 0
3, 144768, Note_on_c, 1, 52, 99
3, 144860, Note_off_c, 1, 52, 0
3, 144864, Note_on_c, 1, 62, 99
3, 144956, Note_off_c, 1, 62, 0
3, 144960, Note_on_c, 1, 56, 99
3, 145052, Note_off_c, 1, 56, 0
3, 145056, Note_on_c, 1, 62, 99
3, 145148, Note_off_c, 1, 62, 0
3, 145152, Note_on_c, 1, 52, 99
3, 145244, Note_off_c, 1, 52, 0
3, 145248, Note_on_c, 1, 62, 99
3, 145340, Note_off_c, 1, 62, 0
3, 145344, Note_on_c, 1, 56, 99
3, 145436, Note_off_c, 1, 56, 0
3, 145440, Note_on_c, 1, 62, 99
3, 145532, Note_off_c, 1, 62, 0
3, 145536, Note_on_c, 1, 52, 99
3, 145628, Note_off_c, 1, 52, 0
3, 145632, Note_on_c, 1, 62, 99
3, 145724, Note_off_c, 1, 62, 0
3, 145728, Note_on_c, 1, 56, 99
3, 145820, Note_off_c, 1, 56, 0
3, 145824, Note_on_c, 1, 62, 99
3, 145916, Note_off_c, 1, 62, 0
3, 145920, Note_on_c, 1, 61, 99
3, 145920, Note_on_c, 1, 57, 99
3, 146300, Note_off_c, 1, 61, 0
3, 146300, Note_off_c, 1, 57, 0
3, 178368, Note_on_c, 1, 61, 66
3, 178460, Note_off_c, 1, 61, 0
3, 178560, Note_on_c, 1, 59, 66
3, 178652, Note_off_c, 1, 59, 0
3, 178752, Note_on_c, 1, 57, 66
3, 178844, Note_off_c, 1, 57, 0
3, 178944, Note_on_c, 1, 56, 66
3, 179036, Note_off_c, 1, 56, 0
3, 179136, Note_on_c, 1, 57, 66
3, 179228, Note_off_c, 1, 57, 0
3, 179328, Note_on_c, 1, 59, 66
3, 179420, Note_off_c, 1, 59, 0
3, 179520, Note_on_c, 1, 56, 66
3, 179612, Note_off_c, 1, 56, 0
3, 179712, Note_on_c, 1, 57, 67
3, 180092, Note_off_c, 1, 57, 0
3, 180672, Note_on_c, 1, 45, 88
3, 180860, Note_off_c, 1, 45, 0
3, 180864, Note_on_c, 1, 52, 92
3, 181052, Note_off_c, 1, 52, 0
3, 181056, Note_on_c, 1, 49, 96
3, 181244, Note_off_c, 1, 49, 0
3, 181248, Note_on_c, 1, 50, 101
3, 181628, Note_off_c, 1, 50, 0
3, 192960, Note_on_c, 1, 50, 74
3, 193148, Note_off_c, 1, 50, 0
3, 193152, Note_on_c, 1, 57, 83
3, 193340, Note_off_c, 1, 57, 0
3, 193344, Note_on_c, 1, 54, 92
3, 193532, Note_off_c, 1, 54, 0
3, 193536, Note_on_c, 1, 55, 101
3, 193916, Note_off_c, 1, 55, 0
3, 196608, Note_on_c, 1, 55, 88
3, 196700, Note_off_c, 1, 55, 0
3, 196704, Note_on_c, 1, 62, 88
3, 196796, Note_off_c, 1, 62, 0
3, 196800, Note_on_c, 1, 59, 88
3, 196892, Note_off_c, 1, 59, 0
3, 196896, Note_on_c, 1, 62, 88
3, 196988, Note_off_c, 1, 62, 0
3, 196992, Note_on_c, 1, 55, 88
3, 197084, Note_off_c, 1, 55, 0
3, 197088, Note_on_c, 1, 63, 88
3, 197180, Note_off_c, 1, 63, 0
3, 197184, Note_on_c, 1, 59, 88
3, 197276, Note_off_c, 1, 59, 0
3, 197280, Note_on_c, 1, 63, 88
3, 197372, Note_off_c, 1, 63, 0
3, 197376, Note_on_c, 1, 55, 88
3, 197468, Note_off_c, 1, 55, 0
3, 197472, Note_on_c, 1, 64, 88
3, 197564, Note_off_c, 1, 64, 0
3, 197568, Note_on_c, 1, 59, 88
3, 197660, Note_off_c, 1, 59, 0
3, 197664, Note_on_c, 1, 64, 88
3, 197756, Note_off_c, 1, 64, 0
3, 197760, Note_on_c, 1, 55, 88
3, 197852, Note_off_c, 1, 55, 0
3, 197856, Note_on_c, 1, 64, 88
3, 197948, Note_off_c, 1, 64, 0
3, 197952, Note_on_c, 1, 59, 88
3, 198044, Note_off_c, 1, 59, 0
3, 198048, Note_on_c, 1, 64, 88
3, 198140, Note_off_c, 1, 64, 0
3, 198144, Note_on_c, 1, 57, 88
3, 198236, Note_off_c, 1, 57, 0
3, 198240, Note_on_c, 1, 66, 88
3, 198332, Note_off_c, 1, 66, 0
3, 198336, Note_on_c, 1, 60, 88
3, 198428, Note_off_c, 1, 60, 0
3, 198432, Note_on_c, 1, 66, 88
3, 198524, Note_off_c, 1, 66, 0
3, 198528, Note_on_c, 1, 57, 88
3, 198620, Note_off_c, 1, 57, 0
3, 198624, Note_on_c, 1, 66, 88
3, 198716, Note_off_c, 1, 66, 0
3, 198720, Note_on_c, 1, 60, 88
3, 198812, Note_off_c, 1, 60, 0
3, 198816, Note_on_c, 1, 66, 88
3, 198908, Note_off_c, 1, 66, 0
3, 198912, Note_on_c, 1, 55, 88
3, 199004, Note_off_c, 1, 55, 0
3, 199008, Note_on_c, 1, 64, 88
3, 199100, Note_off_c, 1, 64, 0
3, 199104, Note_on_c, 1, 59, 88
3, 199196, Note_off_c, 1, 59, 0
3, 199200, Note_on_c, 1, 64, 88
3, 199292, Note_off_c, 1, 64, 0
3, 199296, Note_on_c, 1, 55, 88
3, 199388, Note_off_c, 1, 55, 0
3, 199392, Note_on_c, 1, 64, 88
3, 199484, Note_off_c, 1, 64, 0
3, 199488, Note_on_c, 1, 59, 88
3, 199580, Note_off_c, 1, 59, 0
3, 199584, Note_on_c, 1, 64, 88
3, 199676, Note_off_c, 1, 64, 0
3, 199680, Note_on_c, 1, 54, 66
3, 199772, Note_off_c, 1, 54, 0
3, 199776, Note_on_c, 1, 62, 66
3, 199868, Note_off_c, 1, 62, 0
3, 199872, Note_on_c, 1, 57, 66
3, 199964, Note_off_c, 1, 57, 0
3, 199968, Note_on_c, 1, 62, 66
3, 200060, Note_off_c, 1, 62, 0
3, 200064, Note_on_c, 1, 50, 66
3, 200156, Note_off_c, 1, 50, 0
3, 200160, Note_on_c, 1, 62, 66
3, 200252, Note_off_c, 1, 62, 0
3, 200256, Note_on_c, 1, 57, 66
3, 200348, Note_off_c, 1, 57, 0
3, 200352, Note_on_c, 1, 62, 66
3, 200444, Note_off_c, 1, 62, 0
3, 200448, Note_on_c, 1, 50, 66
3, 200540, Note_off_c, 1, 50, 0
3, 200544, Note_on_c, 1, 62, 66
3, 200636, Note_off_c, 1, 62, 0
3, 200640, Note_on_c, 1, 57, 66
3, 200732, Note_off_c, 1, 57, 0
3, 200736, Note_on_c, 1, 62, 66
3, 200828, Note_off_c, 1, 62, 0
3, 200832, Note_on_c, 1, 54, 66
3, 200924, Note_off_c, 1, 54, 0
3, 200928, Note_on_c, 1, 62, 66
3, 201020, Note_off_c, 1, 62, 0
3, 201024, Note_on_c, 1, 57, 66
3, 201116, Note_off_c, 1, 57, 0
3, 201120, Note_on_c, 1, 62, 66
3, 201212, Note_off_c, 1, 62, 0
3, 201216, Note_on_c, 1, 55, 66
3, 201308, Note_off_c, 1, 55, 0
3, 201312, Note_on_c, 1, 64, 66
3, 201404, Note_off_c, 1, 64, 0
3, 201408, Note_on_c, 1, 58, 66
3, 201500, Note_off_c, 1, 58, 0
3, 201504, Note_on_c, 1, 64, 66
3, 201596, Note_off_c, 1, 64, 0
3, 201600, Note_on_c, 1, 55, 66
3, 201692, Note_off_c, 1, 55, 0
3, 201696, Note_on_c, 1, 64, 66
3, 201788, Note_off_c, 1, 64, 0
3, 201792, Note_on_c, 1, 58, 66
3, 201884, Note_off_c, 1, 58, 0
3, 201888, Note_on_c, 1, 64, 66
3, 201980, Note_off_c, 1, 64, 0
3, 201984, Note_on_c, 1, 54, 66
3, 202076, Note_off_c, 1, 54, 0
3, 202080, Note_on_c, 1, 62, 66
3, 202172, Note_off_c, 1, 62, 0
3, 202176, Note_on_c, 1, 57, 66
3, 202268, Note_off_c, 1, 57, 0
3, 202272, Note_on_c, 1, 62, 66
3, 202364, Note_off_c, 1, 62, 0
3, 202368, Note_on_c, 1, 54, 66
3, 202460, Note_off_c, 1, 54, 0
3, 202464, Note_on_c, 1, 62, 66
3, 202556, Note_off_c, 1, 62, 0
3, 202560, Note_on_c, 1, 57, 66
3, 202652, Note_off_c, 1, 57, 0
3, 202656, Note_on_c, 1, 62, 66
3, 202748, Note_off_c, 1, 62, 0
3, 202752, Note_on_c, 1, 52, 66
3, 202844, Note_off_c, 1, 52, 0
3, 202848, Note_on_c, 1, 60, 66
3, 202940, Note_off_c, 1, 60, 0
3, 202944, Note_on_c, 1, 55, 66
3, 203036, Note_off_c, 1, 55, 0
3, 203040, Note_on_c, 1, 60, 66
3, 203132, Note_off_c, 1, 60, 0
3, 203136, Note_on_c, 1, 52, 69
3, 203228, Note_off_c, 1, 52, 0
3, 203232, Note_on_c, 1, 60, 72
3, 203324, Note_off_c, 1, 60, 0
3, 203328, Note_on_c, 1, 55, 75
3, 203420, Note_off_c, 1, 55, 0
3, 203424, Note_on_c, 1, 60, 79
3, 203516, Note_off_c, 1, 60, 0
3, 203520, Note_on_c, 1, 52, 84
3, 203612, Note_off_c, 1, 52, 0
3, 203616, Note_on_c, 1, 60, 86
3, 203708, Note_off_c, 1, 60, 0
3, 203712, Note_on_c, 1, 55, 90
3, 203804, Note_off_c, 1, 55, 0
3, 203808, Note_on_c, 1, 60, 92
3, 203900, Note_off_c, 1, 60, 0
3, 203904, Note_on_c, 1, 52, 97
3, 203996, Note_off_c, 1, 52, 0
3, 204000, Note_on_c, 1, 60, 99
3, 204092, Note_off_c, 1, 60, 0
3, 204096, Note_on_c, 1, 55, 105
3, 204188, Note_off_c, 1, 55, 0
3, 204192, Note_on_c, 1, 60, 111
3, 204284, Note_off_c, 1, 60, 0
3, 204288, Note_on_c, 1, 52, 111
3, 204380, Note_off_c, 1, 52, 0
3, 204384, Note_on_c, 1, 60, 108
3, 204476, Note_off_c, 1, 60, 0
3, 204480, Note_on_c, 1, 55, 105
3, 204572, Note_off_c, 1, 55, 0
3, 204576, Note_on_c, 1, 60, 101
3, 204668, Note_off_c, 1, 60, 0
3, 204672, Note_on_c, 1, 52, 99
3, 204764, Note_off_c, 1, 52, 0
3, 204768, Note_on_c, 1, 60, 96
3, 204860, Note_off_c, 1, 60, 0
3, 204864, Note_on_c, 1, 55, 92
3, 204956, Note_off_c, 1, 55, 0
3, 204960, Note_on_c, 1, 60, 90
3, 205052, Note_off_c, 1, 60, 0
3, 205056, Note_on_c, 1, 52, 86
3, 205148, Note_off_c, 1, 52, 0
3, 205152, Note_on_c, 1, 60, 86
3, 205244, Note_off_c, 1, 60, 0
3, 205248, Note_on_c, 1, 55, 84
3, 205340, Note_off_c, 1, 55, 0
3, 205344, Note_on_c, 1, 60, 81
3, 205436, Note_off_c, 1, 60, 0
3, 205440, Note_on_c, 1, 53, 77
3, 205532, Note_off_c, 1, 53, 0
3, 205536, Note_on_c, 1, 62, 73
3, 205628, Note_off_c, 1, 62, 0
3, 205632, Note_on_c, 1, 56, 72
3, 205724, Note_off_c, 1, 56, 0
3, 205728, Note_on_c, 1, 62, 69
3, 205820, Note_off_c, 1, 62, 0
3, 205824, Note_on_c, 1, 61, 66
3, 205824, Note_on_c, 1, 58, 66
3, 205824, Note_on_c, 1, 54, 66
3, 206204, Note_off_c, 1, 61, 0
3, 206204, Note_off_c, 1, 58, 0
3, 206204, Note_off_c, 1, 54, 0
3, 206592, Note_on_c, 1, 61, 66
3, 206780, Note_off_c, 1, 61, 0
3, 206784, Note_on_c, 1, 59, 66
3, 206972, Note_off_c, 1, 59, 0
3, 206976, Note_on_c, 1, 58, 66
3, 207164, Note_off_c, 1, 58, 0
3, 207168, Note_on_c, 1, 61, 66
3, 207356, Note_off_c, 1, 61, 0
3, 207360, Note_on_c, 1, 59, 66
3, 207740, Note_off_c, 1, 59, 0
3, 208128, Note_on_c, 1, 54, 66
3, 208316, Note_off_c, 1, 54, 0
3, 208320, Note_on_c, 1, 52, 66
3, 208508, Note_off_c, 1, 52, 0
3, 208512, Note_on_c, 1, 51, 66
3, 208700, Note_off_c, 1, 51, 0
3, 208704, Note_on_c, 1, 54, 66
3, 208892, Note_off_c, 1, 54, 0
3, 208896, Note_on_c, 1, 52, 66
3, 209276, Note_off_c, 1, 52, 0
3, 209664, Note_on_c, 1, 59, 66
3, 209852, Note_off_c, 1, 59, 0
3, 209856, Note_on_c, 1, 57, 66
3, 210044, Note_off_c, 1, 57, 0
3, 210048, Note_on_c, 1, 55, 66
3, 210236, Note_off_c, 1, 55, 0
3, 210240, Note_on_c, 1, 59, 66
3, 210428, Note_off_c, 1, 59, 0
3, 210432, Note_on_c, 1, 57, 66
3, 210812, Note_off_c, 1, 57, 0
3, 211200, Note_on_c, 1, 64, 66
3, 211388, Note_off_c, 1, 64, 0
3, 211392, Note_on_c, 1, 62, 66
3, 211580, Note_off_c, 1, 62, 0
3, 211584, Note_on_c, 1, 61, 66
3, 211772, Note_off_c, 1, 61, 0
3, 211776, Note_on_c, 1, 64, 66
3, 211964, Note_off_c, 1, 64, 0
3, 211968, Note_on_c, 1, 62, 66
3, 212348, Note_off_c, 1, 62, 0
3, 212352, Note_on_c, 1, 54, 66
3, 212732, Note_off_c, 1, 54, 0
3, 212736, Note_on_c, 1, 55, 68
3, 213116, Note_off_c, 1, 55, 0
3, 213120, Note_on_c, 1, 56, 73
3, 213500, Note_off_c, 1, 56, 0
3, 213504, Note_on_c, 1, 57, 79
3, 213692, Note_off_c, 1, 57, 0
3, 213696, Note_on_c, 1, 55, 81
3, 213884, Note_off_c, 1, 55, 0
3, 213888, Note_on_c, 1, 54, 84
3, 214076, Note_off_c, 1, 54, 0
3, 214080, Note_on_c, 1, 50, 86
3, 214268, Note_off_c, 1, 50, 0
3, 214272, Note_on_c, 1, 55, 90
3, 214652, Note_off_c, 1, 55, 0
3, 214656, Note_on_c, 1, 56, 95
3, 215036, Note_off_c, 1, 56, 0
3, 215040, Note_on_c, 1, 45, 99
3, 215132, Note_off_c, 1, 45, 0
3, 215136, Note_on_c, 1, 57, 99
3, 215228, Note_off_c, 1, 57, 0
3, 215232, Note_on_c, 1, 56, 99
3, 215324, Note_off_c, 1, 56, 0
3, 215328, Note_on_c, 1, 57, 99
3, 215420, Note_off_c, 1, 57, 0
3, 215424, Note_on_c, 1, 54, 99
3, 215516, Note_off_c, 1, 54, 0
3, 215520, Note_on_c, 1, 57, 99
3, 215612, Note_off_c, 1, 57, 0
3, 215616, Note_on_c, 1, 50, 99
3, 215708, Note_off_c, 1, 50, 0
3, 215712, Note_on_c, 1, 57, 99
3, 215804, Note_off_c, 1, 57, 0
3, 215808, Note_on_c, 1, 45, 99
3, 215900, Note_off_c, 1, 45, 0
3, 215904, Note_on_c, 1, 57, 99
3, 215996, Note_off_c, 1, 57, 0
3, 216000, Note_on_c, 1, 56, 99
3, 216092, Note_off_c, 1, 56, 0
3, 216096, Note_on_c, 1, 57, 99
3, 216188, Note_off_c, 1, 57, 0
3, 216192, Note_on_c, 1, 54, 99
3, 216284, Note_off_c, 1, 54, 0
3, 216288, Note_on_c, 1, 57, 99
3, 216380, Note_off_c, 1, 57, 0
3, 216384, Note_on_c, 1, 50, 99
3, 216476, Note_off_c, 1, 50, 0
3, 216480, Note_on_c, 1, 57, 99
3, 216572, Note_off_c, 1, 57, 0
3, 216576, Note_on_c, 1, 45, 99
3, 216956, Note_off_c, 1, 45, 0
3, 217152, Note_on_c, 1, 57, 99
3, 217152, Note_on_c, 1, 54, 99
3, 217152, Note_on_c, 1, 50, 99
3, 217340, Note_off_c, 1, 57, 0
3, 217340, Note_off_c, 1, 54, 0
3, 217340, Note_off_c, 1, 50, 0
3, 217344, Note_on_c, 1, 57, 99
3, 217344, Note_on_c, 1, 52, 99
3, 217344, Note_on_c, 1, 49, 99
3, 217724, Note_off_c, 1, 57, 0
3, 217724, Note_off_c, 1, 52, 0
3, 217724, Note_off_c, 1, 49, 0
3, 217920, Note_on_c, 1, 57, 99
3, 217920, Note_on_c, 1, 54, 99
3, 217920, Note_on_c, 1, 50, 99
3, 218108, Note_off_c, 1, 57, 0
3, 218108, Note_off_c, 1, 54, 0
3, 218108, Note_off_c, 1, 50, 0
3, 218112, Note_on_c, 1, 45, 99
3, 218204, Note_off_c, 1, 45, 0
3, 218208, Note_on_c, 1, 57, 99
3, 218300, Note_off_c, 1, 57, 0
3, 218304, Note_on_c, 1, 55, 99
3, 218396, Note_off_c, 1, 55, 0
3, 218400, Note_on_c, 1, 57, 99
3, 218492, Note_off_c, 1, 57, 0
3, 218496, Note_on_c, 1, 52, 99
3, 218588, Note_off_c, 1, 52, 0
3, 218592, Note_on_c, 1, 57, 99
3, 218684, Note_off_c, 1, 57, 0
3, 218688, Note_on_c, 1, 49, 99
3, 218780, Note_off_c, 1, 49, 0
3, 218784, Note_on_c, 1, 52, 99
3, 218876, Note_off_c, 1, 52, 0
3, 218880, Note_on_c, 1, 45, 99
3, 219260, Note_off_c, 1, 45, 0
3, 224256, Note_on_c, 1, 50, 99
3, 224348, Note_off_c, 1, 50, 0
3, 224352, Note_on_c, 1, 57, 99
3, 224444, Note_off_c, 1, 57, 0
3, 224448, Note_on_c, 1, 56, 99
3, 224540, Note_off_c, 1, 56, 0
3, 224544, Note_on_c, 1, 57, 99
3, 224636, Note_off_c, 1, 57, 0
3, 224640, Note_on_c, 1, 59, 99
3, 224732, Note_off_c, 1, 59, 0
3, 224736, Note_on_c, 1, 57, 99
3, 224828, Note_off_c, 1, 57, 0
3, 224832, Note_on_c, 1, 54, 99
3, 224924, Note_off_c, 1, 54, 0
3, 224928, Note_on_c, 1, 57, 99
3, 225020, Note_off_c, 1, 57, 0
3, 225024, Note_on_c, 1, 55, 99
3, 225116, Note_off_c, 1, 55, 0
3, 225120, Note_on_c, 1, 57, 99
3, 225212, Note_off_c, 1, 57, 0
3, 225216, Note_on_c, 1, 54, 99
3, 225308, Note_off_c, 1, 54, 0
3, 225312, Note_on_c, 1, 57, 99
3, 225404, Note_off_c, 1, 57, 0
3, 225408, Note_on_c, 1, 55, 99
3, 225500, Note_off_c, 1, 55, 0
3, 225504, Note_on_c, 1, 57, 99
3, 225596, Note_off_c, 1, 57, 0
3, 225600, Note_on_c, 1, 52, 99
3, 225692, Note_off_c, 1, 52, 0
3, 225696, Note_on_c, 1, 57, 99
3, 225788, Note_off_c, 1, 57, 0
3, 225792, Note_on_c, 1, 54, 99
3, 225884, Note_off_c, 1, 54, 0
3, 225888, Note_on_c, 1, 57, 99
3, 225980, Note_off_c, 1, 57, 0
3, 225984, Note_on_c, 1, 56, 99
3, 226076, Note_off_c, 1, 56, 0
3, 226080, Note_on_c, 1, 57, 99
3, 226172, Note_off_c, 1, 57, 0
3, 226176, Note_on_c, 1, 59, 99
3, 226268, Note_off_c, 1, 59, 0
3, 226272, Note_on_c, 1, 57, 99
3, 226364, Note_off_c, 1, 57, 0
3, 226368, Note_on_c, 1, 50, 99
3, 226460, Note_off_c, 1, 50, 0
3, 226464, Note_on_c, 1, 57, 99
3, 226556, Note_off_c, 1, 57, 0
3, 226560, Note_on_c, 1, 52, 99
3, 226652, Note_off_c, 1, 52, 0
3, 226656, Note_on_c, 1, 57, 99
3, 226748, Note_off_c, 1, 57, 0
3, 226752, Note_on_c, 1, 50, 99
3, 226844, Note_off_c, 1, 50, 0
3, 226848, Note_on_c, 1, 57, 99
3, 226940, Note_off_c, 1, 57, 0
3, 226944, Note_on_c, 1, 52, 99
3, 227036, Note_off_c, 1, 52, 0
3, 227040, Note_on_c, 1, 57, 99
3, 227132, Note_off_c, 1, 57, 0
3, 227136, Note_on_c, 1, 49, 99
3, 227228, Note_off_c, 1, 49, 0
3, 227232, Note_on_c, 1, 57, 99
3, 227324, Note_off_c, 1, 57, 0
3, 227328, Note_on_c, 1, 50, 99
3, 227420, Note_off_c, 1, 50, 0
3, 227424, Note_on_c, 1, 62, 99
3, 227516, Note_off_c, 1, 62, 0
3, 227520, Note_on_c, 1, 61, 99
3, 227612, Note_off_c, 1, 61, 0
3, 227616, Note_on_c, 1, 62, 99
3, 227708, Note_off_c, 1, 62, 0
3, 227712, Note_on_c, 1, 64, 99
3, 227804, Note_off_c, 1, 64, 0
3, 227808, Note_on_c, 1, 62, 99
3, 227900, Note_off_c, 1, 62, 0
3, 227904, Note_on_c, 1, 54, 99
3, 227996, Note_off_c, 1, 54, 0
3, 228000, Note_on_c, 1, 62, 99
3, 228092, Note_off_c, 1, 62, 0
3, 228096, Note_on_c, 1, 55, 99
3, 228188, Note_off_c, 1, 55, 0
3, 228192, Note_on_c, 1, 62, 99
3, 228284, Note_off_c, 1, 62, 0
3, 228288, Note_on_c, 1, 54, 99
3, 228380, Note_off_c, 1, 54, 0
3, 228384, Note_on_c, 1, 62, 99
3, 228476, Note_off_c, 1, 62, 0
3, 228480, Note_on_c, 1, 55, 99
3, 228572, Note_off_c, 1, 55, 0
3, 228576, Note_on_c, 1, 62, 99
3, 228668, Note_off_c, 1, 62, 0
3, 228672, Note_on_c, 1, 52, 99
3, 228764, Note_off_c, 1, 52, 0
3, 228768, Note_on_c, 1, 62, 99
3, 228860, Note_off_c, 1, 62, 0
3, 228864, Note_on_c, 1, 50, 99
3, 228956, Note_off_c, 1, 50, 0
3, 228960, Note_on_c, 1, 62, 99
3, 229052, Note_off_c, 1, 62, 0
3, 229056, Note_on_c, 1, 61, 99
3, 229148, Note_off_c, 1, 61, 0
3, 229152, Note_on_c, 1, 62, 99
3, 229244, Note_off_c, 1, 62, 0
3, 229248, Note_on_c, 1, 57, 99
3, 229340, Note_off_c, 1, 57, 0
3, 229344, Note_on_c, 1, 62, 99
3, 229436, Note_off_c, 1, 62, 0
3, 229440, Note_on_c, 1, 54, 99
3, 229532, Note_off_c, 1, 54, 0
3, 229536, Note_on_c, 1, 62, 99
3, 229628, Note_off_c, 1, 62, 0
3, 229632, Note_on_c, 1, 50, 99
3, 229724, Note_off_c, 1, 50, 0
3, 229728, Note_on_c, 1, 62, 99
3, 229820, Note_off_c, 1, 62, 0
3, 229824, Note_on_c, 1, 61, 99
3, 229916, Note_off_c, 1, 61, 0
3, 229920, Note_on_c, 1, 62, 99
3, 230012, Note_off_c, 1, 62, 0
3, 230016, Note_on_c, 1, 57, 99
3, 230108, Note_off_c, 1, 57, 0
3, 230112, Note_on_c, 1, 62, 99
3, 230204, Note_off_c, 1, 62, 0
3, 230208, Note_on_c, 1, 54, 99
3, 230300, Note_off_c, 1, 54, 0
3, 230304, Note_on_c, 1, 62, 99
3, 230396, Note_off_c, 1, 62, 0
3, 230400, Note_on_c, 1, 50, 99
3, 230492, Note_off_c, 1, 50, 0
3, 230496, Note_on_c, 1, 62, 99
3, 230588, Note_off_c, 1, 62, 0
3, 230592, Note_on_c, 1, 61, 99
3, 230684, Note_off_c, 1, 61, 0
3, 230688, Note_on_c, 1, 62, 99
3, 230780, Note_off_c, 1, 62, 0
3, 230784, Note_on_c, 1, 59, 99
3, 230876, Note_off_c, 1, 59, 0
3, 230880, Note_on_c, 1, 62, 99
3, 230972, Note_off_c, 1, 62, 0
3, 230976, Note_on_c, 1, 55, 99
3, 231068, Note_off_c, 1, 55, 0
3, 231072, Note_on_c, 1, 62, 99
3, 231164, Note_off_c, 1, 62, 0
3, 231168, Note_on_c, 1, 50, 99
3, 231260, Note_off_c, 1, 50, 0
3, 231264, Note_on_c, 1, 62, 99
3, 231356, Note_off_c, 1, 62, 0
3, 231360, Note_on_c, 1, 61, 99
3, 231452, Note_off_c, 1, 61, 0
3, 231456, Note_on_c, 1, 62, 99
3, 231548, Note_off_c, 1, 62, 0
3, 231552, Note_on_c, 1, 59, 99
3, 231644, Note_off_c, 1, 59, 0
3, 231648, Note_on_c, 1, 62, 99
3, 231740, Note_off_c, 1, 62, 0
3, 231744, Note_on_c, 1, 55, 99
3, 231836, Note_off_c, 1, 55, 0
3, 231840, Note_on_c, 1, 62, 99
3, 231932, Note_off_c, 1, 62, 0
3, 231936, Note_on_c, 1, 50, 99
3, 232028, Note_off_c, 1, 50, 0
3, 232032, Note_on_c, 1, 62, 99
3, 232124, Note_off_c, 1, 62, 0
3, 232128, Note_on_c, 1, 61, 99
3, 232220, Note_off_c, 1, 61, 0
3, 232224, Note_on_c, 1, 62, 99
3, 232316, Note_off_c, 1, 62, 0
3, 232320, Note_on_c, 1, 57, 99
3, 232412, Note_off_c, 1, 57, 0
3, 232416, Note_on_c, 1, 62, 99
3, 232508, Note_off_c, 1, 62, 0
3, 232512, Note_on_c, 1, 54, 99
3, 232604, Note_off_c, 1, 54, 0
3, 232608, Note_on_c, 1, 62, 99
3, 232700, Note_off_c, 1, 62, 0
3, 232704, Note_on_c, 1, 50, 99
3, 232796, Note_off_c, 1, 50, 0
3, 232800, Note_on_c, 1, 62, 99
3, 232892, Note_off_c, 1, 62, 0
3, 232896, Note_on_c, 1, 61, 99
3, 232988, Note_off_c, 1, 61, 0
3, 232992, Note_on_c, 1, 62, 99
3, 233084, Note_off_c, 1, 62, 0
3, 233088, Note_on_c, 1, 57, 99
3, 233180, Note_off_c, 1, 57, 0
3, 233184, Note_on_c, 1, 62, 99
3, 233276, Note_off_c, 1, 62, 0
3, 233280, Note_on_c, 1, 54, 99
3, 233372, Note_off_c, 1, 54, 0
3, 233376, Note_on_c, 1, 62, 99
3, 233468, Note_off_c, 1, 62, 0
3, 233472, Note_on_c, 1, 52, 66
3, 234044, Note_off_c, 1, 52, 0
3, 234624, Note_on_c, 1, 49, 66
3, 235004, Note_off_c, 1, 49, 0
3, 235008, Note_on_c, 1, 50, 66
3, 235580, Note_off_c, 1, 50, 0
3, 236160, Note_on_c, 1, 57, 66
3, 236160, Note_on_c, 1, 54, 66
3, 236540, Note_off_c, 1, 57, 0
3, 236540, Note_off_c, 1, 54, 0
3, 236544, Note_on_c, 1, 59, 66
3, 236544, Note_on_c, 1, 55, 66
3, 236924, Note_off_c, 1, 59, 0
3, 236924, Note_off_c, 1, 55, 0
3, 236928, Note_on_c, 1, 52, 66
3, 237308, Note_off_c, 1, 52, 0
3, 237312, Note_on_c, 1, 57, 66
3, 237692, Note_off_c, 1, 57, 0
3, 237696, Note_on_c, 1, 45, 66
3, 238076, Note_off_c, 1, 45, 0
3, 238080, Note_on_c, 1, 62, 99
3, 238172, Note_off_c, 1, 62, 0
3, 238176, Note_on_c, 1, 61, 99
3, 238268, Note_off_c, 1, 61, 0
3, 238272, Note_on_c, 1, 59, 99
3, 238364, Note_off_c, 1, 59, 0
3, 238368, Note_on_c, 1, 57, 99
3, 238460, Note_off_c, 1, 57, 0
3, 238464, Note_on_c, 1, 62, 99
3, 238556, Note_off_c, 1, 62, 0
3, 238560, Note_on_c, 1, 61, 99
3, 238652, Note_off_c, 1, 61, 0
3, 238656, Note_on_c, 1, 59, 99
3, 238748, Note_off_c, 1, 59, 0
3, 238752, Note_on_c, 1, 57, 99
3, 238844, Note_off_c, 1, 57, 0
3, 238848, Note_on_c, 1, 62, 99
3, 239036, Note_off_c, 1, 62, 0
3, 239040, Note_on_c, 1, 57, 99
3, 239228, Note_off_c, 1, 57, 0
3, 239232, Note_on_c, 1, 54, 99
3, 239420, Note_off_c, 1, 54, 0
3, 239424, Note_on_c, 1, 50, 88
3, 239612, Note_off_c, 1, 50, 0
3, 239616, Note_on_c, 1, 52, 88
3, 239996, Note_off_c, 1, 52, 0
3, 240000, Note_on_c, 1, 55, 85
3, 240380, Note_off_c, 1, 55, 0
3, 240384, Note_on_c, 1, 57, 74
3, 240764, Note_off_c, 1, 57, 0
3, 240768, Note_on_c, 1, 52, 66
3, 240768, Note_on_c, 1, 49, 66
3, 241148, Note_off_c, 1, 52, 0
3, 241148, Note_off_c, 1, 49, 0
3, 241152, Note_on_c, 1, 54, 88
3, 241152, Note_on_c, 1, 50, 88
3, 241532, Note_off_c, 1, 54, 0
3, 241532, Note_off_c, 1, 50, 0
3, 241536, Note_on_c, 1, 55, 75
3, 241536, Note_on_c, 1, 52, 75
3, 241916, Note_off_c, 1, 55, 0
3, 241916, Note_off_c, 1, 52, 0
3, 241920, Note_on_c, 1, 57, 68
3, 241920, Note_on_c, 1, 54, 68
3, 242300, Note_off_c, 1, 57, 0
3, 242300, Note_off_c, 1, 54, 0
3, 242688, Note_on_c, 1, 59, 88
3, 242688, Note_on_c, 1, 55, 88
3, 243068, Note_off_c, 1, 59, 0
3, 243068, Note_off_c, 1, 55, 0
3, 243264, Note_on_c, 1, 64, 88
3, 243264, Note_on_c, 1, 55, 88
3, 243452, Note_off_c, 1, 64, 0
3, 243452, Note_off_c, 1, 55, 0
3, 243456, Note_on_c, 1, 62, 88
3, 243456, Note_on_c, 1, 57, 88
3, 243644, Note_off_c, 1, 62, 0
3, 243648, Note_on_c, 1, 66, 82
3, 243836, Note_off_c, 1, 57, 0
3, 243836, Note_off_c, 1, 66, 0
3, 243840, Note_on_c, 1, 67, 75
3, 243840, Note_on_c, 1, 57, 75
3, 244028, Note_off_c, 1, 67, 0
3, 244032, Note_on_c, 1, 64, 70
3, 244220, Note_off_c, 1, 57, 0
3, 244220, Note_off_c, 1, 64, 0
3, 244224, Note_on_c, 1, 62, 66
3, 244224, Note_on_c, 1, 66, 66
3, 244604, Note_off_c, 1, 62, 0
3, 244604, Note_off_c, 1, 66, 0
3, 247296, Note_on_c, 1, 50, 99
3, 247388, Note_off_c, 1, 50, 0
3, 247392, Note_on_c, 1, 57, 99
3, 247484, Note_off_c, 1, 57, 0
3, 247488, Note_on_c, 1, 54, 99
3, 247580, Note_off_c, 1, 54, 0
3, 247584, Note_on_c, 1, 57, 99
3, 247676, Note_off_c, 1, 57, 0
3, 247680, Note_on_c, 1, 50, 99
3, 247772, Note_off_c, 1, 50, 0
3, 247776, Note_on_c, 1, 57, 99
3, 247868, Note_off_c, 1, 57, 0
3, 247872, Note_on_c, 1, 54, 99
3, 247964, Note_off_c, 1, 54, 0
3, 247968, Note_on_c, 1, 57, 99
3, 248060, Note_off_c, 1, 57, 0
3, 248064, Note_on_c, 1, 50, 96
3, 248156, Note_off_c, 1, 50, 0
3, 248160, Note_on_c, 1, 57, 93
3, 248252, Note_off_c, 1, 57, 0
3, 248256, Note_on_c, 1, 54, 89
3, 248348, Note_off_c, 1, 54, 0
3, 248352, Note_on_c, 1, 57, 84
3, 248444, Note_off_c, 1, 57, 0
3, 248448, Note_on_c, 1, 50, 80
3, 248540, Note_off_c, 1, 50, 0
3, 248544, Note_on_c, 1, 57, 77
3, 248636, Note_off_c, 1, 57, 0
3, 248640, Note_on_c, 1, 54, 72
3, 248732, Note_off_c, 1, 54, 0
3, 248736, Note_on_c, 1, 57, 68
3, 248828, Note_off_c, 1, 57, 0
3, 248832, Note_on_c, 1, 57, 66
3, 248832, Note_on_c, 1, 54, 66
3, 248832, Note_on_c, 1, 50, 66
3, 249212, Note_off_c, 1, 57, 0
3, 249212, Note_off_c, 1, 54, 0
3, 249212, Note_off_c, 1, 50, 0
3, 249600, Note_on_c, 1, 57, 66
3, 249600, Note_on_c, 1, 54, 66
3, 249600, Note_on_c, 1, 50, 66
3, 249980, Note_off_c, 1, 57, 0
3, 249980, Note_off_c, 1, 54, 0
3, 249980, Note_off_c, 1, 50, 0
3, 250368, Note_on_c, 1, 57, 88
3, 250368, Note_on_c, 1, 54, 88
3, 250368, Note_on_c, 1, 48, 88
3, 250748, Note_off_c, 1, 57, 0
3, 250748, Note_off_c, 1, 54, 0
3, 250748, Note_off_c, 1, 48, 0
3, 251904, Note_on_c, 1, 47, 66
3, 251996, Note_off_c, 1, 47, 0
3, 252000, Note_on_c, 1, 55, 66
3, 252092, Note_off_c, 1, 55, 0
3, 252096, Note_on_c, 1, 54, 68
3, 252188, Note_off_c, 1, 54, 0
3, 252192, Note_on_c, 1, 55, 70
3, 252284, Note_off_c, 1, 55, 0
3, 252288, Note_on_c, 1, 57, 72
3, 252380, Note_off_c, 1, 57, 0
3, 252384, Note_on_c, 1, 55, 74
3, 252476, Note_off_c, 1, 55, 0
3, 252480, Note_on_c, 1, 54, 77
3, 252572, Note_off_c, 1, 54, 0
3, 252576, Note_on_c, 1, 55, 79
3, 252668, Note_off_c, 1, 55, 0
3, 252672, Note_on_c, 1, 59, 81
3, 252764, Note_off_c, 1, 59, 0
3, 252768, Note_on_c, 1, 55, 83
3, 252860, Note_off_c, 1, 55, 0
3, 252864, Note_on_c, 1, 54, 85
3, 252956, Note_off_c, 1, 54, 0
3, 252960, Note_on_c, 1, 55, 88
3, 253052, Note_off_c, 1, 55, 0
3, 253056, Note_on_c, 1, 50, 82
3, 253148, Note_off_c, 1, 50, 0
3, 253152, Note_on_c, 1, 55, 77
3, 253244, Note_off_c, 1, 55, 0
3, 253248, Note_on_c, 1, 48, 71
3, 253340, Note_off_c, 1, 48, 0
3, 253344, Note_on_c, 1, 55, 66
3, 253436, Note_off_c, 1, 55, 0
3, 253440, Note_on_c, 1, 47, 88
3, 253532, Note_off_c, 1, 47, 0
3, 253536, Note_on_c, 1, 55, 88
3, 253628, Note_off_c, 1, 55, 0
3, 253632, Note_on_c, 1, 50, 88
3, 253724, Note_off_c, 1, 50, 0
3, 253728, Note_on_c, 1, 55, 88
3, 253820, Note_off_c, 1, 55, 0
3, 253824, Note_on_c, 1, 47, 88
3, 253916, Note_off_c, 1, 47, 0
3, 253920, Note_on_c, 1, 55, 88
3, 254012, Note_off_c, 1, 55, 0
3, 254016, Note_on_c, 1, 50, 88
3, 254108, Note_off_c, 1, 50, 0
3, 254112, Note_on_c, 1, 55, 88
3, 254204, Note_off_c, 1, 55, 0
3, 254208, Note_on_c, 1, 47, 85
3, 254300, Note_off_c, 1, 47, 0
3, 254304, Note_on_c, 1, 55, 83
3, 254396, Note_off_c, 1, 55, 0
3, 254400, Note_on_c, 1, 50, 81
3, 254492, Note_off_c, 1, 50, 0
3, 254496, Note_on_c, 1, 55, 79
3, 254588, Note_off_c, 1, 55, 0
3, 254592, Note_on_c, 1, 47, 77
3, 254684, Note_off_c, 1, 47, 0
3, 254688, Note_on_c, 1, 55, 74
3, 254780, Note_off_c, 1, 55, 0
3, 254784, Note_on_c, 1, 50, 72
3, 254876, Note_off_c, 1, 50, 0
3, 254880, Note_on_c, 1, 55, 70
3, 254972, Note_off_c, 1, 55, 0
3, 254976, Note_on_c, 1, 47, 68
3, 255356, Note_off_c, 1, 47, 0
3, 255744, Note_on_c, 1, 55, 66
3, 255744, Note_on_c, 1, 50, 66
3, 255744, Note_on_c, 1, 47, 66
3, 256124, Note_off_c, 1, 55, 0
3, 256124, Note_off_c, 1, 50, 0
3, 256124, Note_off_c, 1, 47, 0
3, 256512, Note_on_c, 1, 55, 66
3, 256512, Note_on_c, 1, 50, 66
3, 256512, Note_on_c, 1, 47, 66
3, 256892, Note_off_c, 1, 55, 0
3, 256892, Note_off_c, 1, 50, 0
3, 256892, Note_off_c, 1, 47, 0
3, 258048, Note_on_c, 1, 38, 66
3, 258140, Note_off_c, 1, 38, 0
3, 258144, Note_on_c, 1, 50, 66
3, 258236, Note_off_c, 1, 50, 0
3, 258240, Note_on_c, 1, 49, 66
3, 258332, Note_off_c, 1, 49, 0
3, 258336, Note_on_c, 1, 50, 68
3, 258428, Note_off_c, 1, 50, 0
3, 258432, Note_on_c, 1, 52, 69
3, 258524, Note_off_c, 1, 52, 0
3, 258528, Note_on_c, 1, 50, 73
3, 258620, Note_off_c, 1, 50, 0
3, 258624, Note_on_c, 1, 49, 75
3, 258716, Note_off_c, 1, 49, 0
3, 258720, Note_on_c, 1, 50, 81
3, 258812, Note_off_c, 1, 50, 0
3, 258816, Note_on_c, 1, 54, 85
3, 258908, Note_off_c, 1, 54, 0
3, 258912, Note_on_c, 1, 50, 90
3, 259004, Note_off_c, 1, 50, 0
3, 259008, Note_on_c, 1, 49, 94
3, 259100, Note_off_c, 1, 49, 0
3, 259104, Note_on_c, 1, 50, 94
3, 259196, Note_off_c, 1, 50, 0
3, 259200, Note_on_c, 1, 45, 86
3, 259292, Note_off_c, 1, 45, 0
3, 259296, Note_on_c, 1, 50, 77
3, 259388, Note_off_c, 1, 50, 0
3, 259392, Note_on_c, 1, 43, 69
3, 259484, Note_off_c, 1, 43, 0
3, 259488, Note_on_c, 1, 50, 66
3, 259580, Note_off_c, 1, 50, 0
3, 259584, Note_on_c, 1, 42, 94
3, 259676, Note_off_c, 1, 42, 0
3, 259680, Note_on_c, 1, 50, 94
3, 259772, Note_off_c, 1, 50, 0
3, 259776, Note_on_c, 1, 45, 94
3, 259868, Note_off_c, 1, 45, 0
3, 259872, Note_on_c, 1, 50, 94
3, 259964, Note_off_c, 1, 50, 0
3, 259968, Note_on_c, 1, 42, 94
3, 260060, Note_off_c, 1, 42, 0
3, 260064, Note_on_c, 1, 50, 94
3, 260156, Note_off_c, 1, 50, 0
3, 260160, Note_on_c, 1, 45, 94
3, 260252, Note_off_c, 1, 45, 0
3, 260256, Note_on_c, 1, 50, 94
3, 260348, Note_off_c, 1, 50, 0
3, 260352, Note_on_c, 1, 42, 91
3, 260444, Note_off_c, 1, 42, 0
3, 260448, Note_on_c, 1, 50, 88
3, 260540, Note_off_c, 1, 50, 0
3, 260544, Note_on_c, 1, 45, 85
3, 260636, Note_off_c, 1, 45, 0
3, 260640, Note_on_c, 1, 50, 82
3, 260732, Note_off_c, 1, 50, 0
3, 260736, Note_on_c, 1, 42, 77
3, 260828, Note_off_c, 1, 42, 0
3, 260832, Note_on_c, 1, 50, 73
3, 260924, Note_off_c, 1, 50, 0
3, 260928, Note_on_c, 1, 45, 70
3, 261020, Note_off_c, 1, 45, 0
3, 261024, Note_on_c, 1, 50, 68
3, 261116, Note_off_c, 1, 50, 0
3, 261120, Note_on_c, 1, 42, 66
3, 261500, Note_off_c, 1, 42, 0
3, 261888, Note_on_c, 1, 50, 69
3, 261888, Note_on_c, 1, 45, 69
3, 261888, Note_on_c, 1, 42, 69
3, 262268, Note_off_c, 1, 50, 0
3, 262268, Note_off_c, 1, 45, 0
3, 262268, Note_off_c, 1, 42, 0
3, 264192, Note_on_c, 1, 59, 66
3, 264192, Note_on_c, 1, 55, 66
3, 264572, Note_off_c, 1, 59, 0
3, 264572, Note_off_c, 1, 55, 0
3, 264576, Note_on_c, 1, 60, 66
3, 264576, Note_on_c, 1, 57, 66
3, 264956, Note_off_c, 1, 60, 0
3, 264956, Note_off_c, 1, 57, 0
3, 264960, Note_on_c, 1, 62, 66
3, 264960, Note_on_c, 1, 59, 66
3, 265340, Note_off_c, 1, 62, 0
3, 265340, Note_off_c, 1, 59, 0
3, 267264, Note_on_c, 1, 55, 66
3, 267264, Note_on_c, 1, 52, 66
3, 267644, Note_off_c, 1, 55, 0
3, 267644, Note_off_c, 1, 52, 0
3, 267648, Note_on_c, 1, 57, 66
3, 267648, Note_on_c, 1, 54, 66
3, 268028, Note_off_c, 1, 57, 0
3, 268028, Note_off_c, 1, 54, 0
3, 268032, Note_on_c, 1, 59, 66
3, 268032, Note_on_c, 1, 55, 66
3, 268412, Note_off_c, 1, 59, 0
3, 268412, Note_off_c, 1, 55, 0
3, 273408, Note_on_c, 1, 50, 60
3, 273500, Note_off_c, 1, 50, 0
3, 273504, Note_on_c, 1, 57, 60
3, 273596, Note_off_c, 1, 57, 0
3, 273600, Note_on_c, 1, 54, 60
3, 273692, Note_off_c, 1, 54, 0
3, 273696, Note_on_c, 1, 57, 60
3, 273788, Note_off_c, 1, 57, 0
3, 273792, Note_on_c, 1, 54, 60
3, 273884, Note_off_c, 1, 54, 0
3, 273888, Note_on_c, 1, 62, 60
3, 273980, Note_off_c, 1, 62, 0
3, 273984, Note_on_c, 1, 57, 60
3, 274076, Note_off_c, 1, 57, 0
3, 274080, Note_on_c, 1, 62, 60
3, 274172, Note_off_c, 1, 62, 0
3, 274176, Note_on_c, 1, 55, 60
3, 274268, Note_off_c, 1, 55, 0
3, 274272, Note_on_c, 1, 62, 60
3, 274364, Note_off_c, 1, 62, 0
3, 274368, Note_on_c, 1, 59, 60
3, 274460, Note_off_c, 1, 59, 0
3, 274464, Note_on_c, 1, 62, 60
3, 274556, Note_off_c, 1, 62, 0
3, 274560, Note_on_c, 1, 56, 60
3, 274652, Note_off_c, 1, 56, 0
3, 274656, Note_on_c, 1, 64, 60
3, 274748, Note_off_c, 1, 64, 0
3, 274752, Note_on_c, 1, 59, 60
3, 274844, Note_off_c, 1, 59, 0
3, 274848, Note_on_c, 1, 64, 60
3, 274940, Note_off_c, 1, 64, 0
3, 274944, Note_on_c, 1, 57, 60
3, 275036, Note_off_c, 1, 57, 0
3, 275040, Note_on_c, 1, 64, 60
3, 275132, Note_off_c, 1, 64, 0
3, 275136, Note_on_c, 1, 61, 60
3, 275228, Note_off_c, 1, 61, 0
3, 275232, Note_on_c, 1, 64, 60
3, 275324, Note_off_c, 1, 64, 0
3, 275328, Note_on_c, 1, 54, 60
3, 275420, Note_off_c, 1, 54, 0
3, 275424, Note_on_c, 1, 62, 60
3, 275516, Note_off_c, 1, 62, 0
3, 275520, Note_on_c, 1, 57, 60
3, 275612, Note_off_c, 1, 57, 0
3, 275616, Note_on_c, 1, 62, 60
3, 275708, Note_off_c, 1, 62, 0
3, 275712, Note_on_c, 1, 55, 60
3, 275804, Note_off_c, 1, 55, 0
3, 275808, Note_on_c, 1, 62, 60
3, 275900, Note_off_c, 1, 62, 0
3, 275904, Note_on_c, 1, 59, 60
3, 275996, Note_off_c, 1, 59, 0
3, 276000, Note_on_c, 1, 62, 60
3, 276092, Note_off_c, 1, 62, 0
3, 276096, Note_on_c, 1, 56, 60
3, 276188, Note_off_c, 1, 56, 0
3, 276192, Note_on_c, 1, 64, 60
3, 276284, Note_off_c, 1, 64, 0
3, 276288, Note_on_c, 1, 59, 60
3, 276380, Note_off_c, 1, 59, 0
3, 276384, Note_on_c, 1, 64, 60
3, 276476, Note_off_c, 1, 64, 0
3, 276480, Note_on_c, 1, 64, 60
3, 276480, Note_on_c, 1, 61, 60
3, 276480, Note_on_c, 1, 57, 60
3, 276860, Note_off_c, 1, 64, 0
3, 276860, Note_off_c, 1, 61, 0
3, 276860, Note_off_c, 1, 57, 0
3, 282624, Note_on_c, 1, 54, 66
3, 282716, Note_off_c, 1, 54, 0
3, 282720, Note_on_c, 1, 57, 66
3, 282812, Note_off_c, 1, 57, 0
3, 282816, Note_on_c, 1, 54, 66
3, 282908, Note_off_c, 1, 54, 0
3, 282912, Note_on_c, 1, 57, 66
3, 283004, Note_off_c, 1, 57, 0
3, 283008, Note_on_c, 1, 54, 66
3, 283100, Note_off_c, 1, 54, 0
3, 283104, Note_on_c, 1, 57, 66
3, 283196, Note_off_c, 1, 57, 0
3, 283200, Note_on_c, 1, 54, 66
3, 283292, Note_off_c, 1, 54, 0
3, 283296, Note_on_c, 1, 57, 66
3, 283388, Note_off_c, 1, 57, 0
3, 283392, Note_on_c, 1, 50, 66
3, 283484, Note_off_c, 1, 50, 0
3, 283488, Note_on_c, 1, 57, 66
3, 283580, Note_off_c, 1, 57, 0
3, 283584, Note_on_c, 1, 50, 66
3, 283676, Note_off_c, 1, 50, 0
3, 283680, Note_on_c, 1, 57, 66
3, 283772, Note_off_c, 1, 57, 0
3, 283776, Note_on_c, 1, 50, 66
3, 283868, Note_off_c, 1, 50, 0
3, 283872, Note_on_c, 1, 57, 66
3, 283964, Note_off_c, 1, 57, 0
3, 283968, Note_on_c, 1, 50, 66
3, 284060, Note_off_c, 1, 50, 0
3, 284064, Note_on_c, 1, 57, 66
3, 284156, Note_off_c, 1, 57, 0
3, 284160, Note_on_c, 1, 52, 66
3, 284252, Note_off_c, 1, 52, 0
3, 284256, Note_on_c, 1, 57, 66
3, 284348, Note_off_c, 1, 57, 0
3, 284352, Note_on_c, 1, 52, 66
3, 284444, Note_off_c, 1, 52, 0
3, 284448, Note_on_c, 1, 57, 66
3, 284540, Note_off_c, 1, 57, 0
3, 284544, Note_on_c, 1, 52, 66
3, 284636, Note_off_c, 1, 52, 0
3, 284640, Note_on_c, 1, 57, 66
3, 284732, Note_off_c, 1, 57, 0
3, 284736, Note_on_c, 1, 52, 66
3, 284828, Note_off_c, 1, 52, 0
3, 284832, Note_on_c, 1, 57, 66
3, 284924, Note_off_c, 1, 57, 0
3, 284928, Note_on_c, 1, 55, 66
3, 285020, Note_off_c, 1, 55, 0
3, 285024, Note_on_c, 1, 57, 66
3, 285116, Note_off_c, 1, 57, 0
3, 285120, Note_on_c, 1, 55, 66
3, 285212, Note_off_c, 1, 55, 0
3, 285216, Note_on_c, 1, 57, 66
3, 285308, Note_off_c, 1, 57, 0
3, 285312, Note_on_c, 1, 55, 66
3, 285404, Note_off_c, 1, 55, 0
3, 285408, Note_on_c, 1, 57, 66
3, 285500, Note_off_c, 1, 57, 0
3, 285504, Note_on_c, 1, 55, 66
3, 285596, Note_off_c, 1, 55, 0
3, 285600, Note_on_c, 1, 57, 66
3, 285692, Note_off_c, 1, 57, 0
3, 285696, Note_on_c, 1, 54, 66
3, 285788, Note_off_c, 1, 54, 0
3, 285792, Note_on_c, 1, 57, 66
3, 285884, Note_off_c, 1, 57, 0
3, 285888, Note_on_c, 1, 54, 66
3, 285980, Note_off_c, 1, 54, 0
3, 285984, Note_on_c, 1, 57, 66
3, 286076, Note_off_c, 1, 57, 0
3, 286080, Note_on_c, 1, 54, 66
3, 286172, Note_off_c, 1, 54, 0
3, 286176, Note_on_c, 1, 57, 66
3, 286268, Note_off_c, 1, 57, 0
3, 286272, Note_on_c, 1, 54, 66
3, 286364, Note_off_c, 1, 54, 0
3, 286368, Note_on_c, 1, 57, 66
3, 286460, Note_off_c, 1, 57, 0
3, 286464, Note_on_c, 1, 50, 66
3, 286556, Note_off_c, 1, 50, 0
3, 286560, Note_on_c, 1, 57, 66
3, 286652, Note_off_c, 1, 57, 0
3, 286656, Note_on_c, 1, 50, 66
3, 286748, Note_off_c, 1, 50, 0
3, 286752, Note_on_c, 1, 57, 66
3, 286844, Note_off_c, 1, 57, 0
3, 286848, Note_on_c, 1, 50, 66
3, 286940, Note_off_c, 1, 50, 0
3, 286944, Note_on_c, 1, 57, 66
3, 287036, Note_off_c, 1, 57, 0
3, 287040, Note_on_c, 1, 50, 66
3, 287132, Note_off_c, 1, 50, 0
3, 287136, Note_on_c, 1, 57, 66
3, 287228, Note_off_c, 1, 57, 0
3, 287232, Note_on_c, 1, 52, 66
3, 287324, Note_off_c, 1, 52, 0
3, 287328, Note_on_c, 1, 57, 66
3, 287420, Note_off_c, 1, 57, 0
3, 287424, Note_on_c, 1, 52, 66
3, 287516, Note_off_c, 1, 52, 0
3, 287520, Note_on_c, 1, 57, 66
3, 287612, Note_off_c, 1, 57, 0
3, 287616, Note_on_c, 1, 52, 66
3, 287708, Note_off_c, 1, 52, 0
3, 287712, Note_on_c, 1, 57, 66
3, 287804, Note_off_c, 1, 57, 0
3, 287808, Note_on_c, 1, 52, 66
3, 287900, Note_off_c, 1, 52, 0
3, 287904, Note_on_c, 1, 57, 66
3, 287996, Note_off_c, 1, 57, 0
3, 288000, Note_on_c, 1, 55, 66
3, 288092, Note_off_c, 1, 55, 0
3, 288096, Note_on_c, 1, 57, 66
3, 288188, Note_off_c, 1, 57, 0
3, 288192, Note_on_c, 1, 55, 66
3, 288284, Note_off_c, 1, 55, 0
3, 288288, Note_on_c, 1, 57, 66
3, 288380, Note_off_c, 1, 57, 0
3, 288384, Note_on_c, 1, 55, 66
3, 288476, Note_off_c, 1, 55, 0
3, 288480, Note_on_c, 1, 57, 66
3, 288572, Note_off_c, 1, 57, 0
3, 288576, Note_on_c, 1, 55, 66
3, 288668, Note_off_c, 1, 55, 0
3, 288672, Note_on_c, 1, 57, 66
3, 288764, Note_off_c, 1, 57, 0
3, 288768, Note_on_c, 1, 54, 66
3, 288860, Note_off_c, 1, 54, 0
3, 288864, Note_on_c, 1, 62, 66
3, 288956, Note_off_c, 1, 62, 0
3, 288960, Note_on_c, 1, 57, 66
3, 289052, Note_off_c, 1, 57, 0
3, 289056, Note_on_c, 1, 62, 66
3, 289148, Note_off_c, 1, 62, 0
3, 289152, Note_on_c, 1, 54, 66
3, 289244, Note_off_c, 1, 54, 0
3, 289248, Note_on_c, 1, 62, 66
3, 289340, Note_off_c, 1, 62, 0
3, 289344, Note_on_c, 1, 57, 66
3, 289436, Note_off_c, 1, 57, 0
3, 289440, Note_on_c, 1, 62, 66
3, 289532, Note_off_c, 1, 62, 0
3, 289536, Note_on_c, 1, 54, 66
3, 289628, Note_off_c, 1, 54, 0
3, 289632, Note_on_c, 1, 62, 66
3, 289724, Note_off_c, 1, 62, 0
3, 289728, Note_on_c, 1, 57, 66
3, 289820, Note_off_c, 1, 57, 0
3, 289824, Note_on_c, 1, 62, 66
3, 289916, Note_off_c, 1, 62, 0
3, 289920, Note_on_c, 1, 54, 66
3, 290012, Note_off_c, 1, 54, 0
3, 290016, Note_on_c, 1, 62, 66
3, 290108, Note_off_c, 1, 62, 0
3, 290112, Note_on_c, 1, 57, 66
3, 290204, Note_off_c, 1, 57, 0
3, 290208, Note_on_c, 1, 62, 66
3, 290300, Note_off_c, 1, 62, 0
3, 290304, Note_on_c, 1, 55, 66
3, 290396, Note_off_c, 1, 55, 0
3, 290400, Note_on_c, 1, 62, 66
3, 290492, Note_off_c, 1, 62, 0
3, 290496, Note_on_c, 1, 59, 66
3, 290588, Note_off_c, 1, 59, 0
3, 290592, Note_on_c, 1, 62, 66
3, 290684, Note_off_c, 1, 62, 0
3, 290688, Note_on_c, 1, 55, 66
3, 290780, Note_off_c, 1, 55, 0
3, 290784, Note_on_c, 1, 62, 66
3, 290876, Note_off_c, 1, 62, 0
3, 290880, Note_on_c, 1, 59, 66
3, 290972, Note_off_c, 1, 59, 0
3, 290976, Note_on_c, 1, 62, 66
3, 291068, Note_off_c, 1, 62, 0
3, 291072, Note_on_c, 1, 55, 66
3, 291164, Note_off_c, 1, 55, 0
3, 291168, Note_on_c, 1, 62, 66
3, 291260, Note_off_c, 1, 62, 0
3, 291264, Note_on_c, 1, 59, 66
3, 291356, Note_off_c, 1, 59, 0
3, 291360, Note_on_c, 1, 62, 66
3, 291452, Note_off_c, 1, 62, 0
3, 291456, Note_on_c, 1, 55, 66
3, 291548, Note_off_c, 1, 55, 0
3, 291552, Note_on_c, 1, 62, 66
3, 291644, Note_off_c, 1, 62, 0
3, 291648, Note_on_c, 1, 59, 66
3, 291740, Note_off_c, 1, 59, 0
3, 291744, Note_on_c, 1, 62, 66
3, 291836, Note_off_c, 1, 62, 0
3, 291840, Note_on_c, 1, 57, 66
3, 291932, Note_off_c, 1, 57, 0
3, 291936, Note_on_c, 1, 64, 66
3, 292028, Note_off_c, 1, 64, 0
3, 292032, Note_on_c, 1, 61, 66
3, 292124, Note_off_c, 1, 61, 0
3, 292128, Note_on_c, 1, 64, 66
3, 292220, Note_off_c, 1, 64, 0
3, 292224, Note_on_c, 1, 57, 66
3, 292316, Note_off_c, 1, 57, 0
3, 292320, Note_on_c, 1, 64, 66
3, 292412, Note_off_c, 1, 64, 0
3, 292416, Note_on_c, 1, 61, 66
3, 292508, Note_off_c, 1, 61, 0
3, 292512, Note_on_c, 1, 64, 66
3, 292604, Note_off_c, 1, 64, 0
3, 292608, Note_on_c, 1, 57, 66
3, 292700, Note_off_c, 1, 57, 0
3, 292704, Note_on_c, 1, 64, 66
3, 292796, Note_off_c, 1, 64, 0
3, 292800, Note_on_c, 1, 61, 66
3, 292892, Note_off_c, 1, 61, 0
3, 292896, Note_on_c, 1, 64, 66
3, 292988, Note_off_c, 1, 64, 0
3, 292992, Note_on_c, 1, 57, 66
3, 293084, Note_off_c, 1, 57, 0
3, 293088, Note_on_c, 1, 64, 66
3, 293180, Note_off_c, 1, 64, 0
3, 293184, Note_on_c, 1, 61, 66
3, 293276, Note_off_c, 1, 61, 0
3, 293280, Note_on_c, 1, 64, 66
3, 293372, Note_off_c, 1, 64, 0
3, 293376, Note_on_c, 1, 62, 81
3, 293564, Note_off_c, 1, 62, 0
3, 293568, Note_on_c, 1, 50, 80
3, 293660, Note_off_c, 1, 50, 0
3, 293664, Note_on_c, 1, 62, 79
3, 293756, Note_off_c, 1, 62, 0
3, 293760, Note_on_c, 1, 49, 77
3, 293852, Note_off_c, 1, 49, 0
3, 293856, Note_on_c, 1, 61, 76
3, 293948, Note_off_c, 1, 61, 0
3, 293952, Note_on_c, 1, 47, 75
3, 294044, Note_off_c, 1, 47, 0
3, 294048, Note_on_c, 1, 59, 74
3, 294140, Note_off_c, 1, 59, 0
3, 294144, Note_on_c, 1, 45, 73
3, 294236, Note_off_c, 1, 45, 0
3, 294240, Note_on_c, 1, 57, 72
3, 294332, Note_off_c, 1, 57, 0
3, 294336, Note_on_c, 1, 47, 71
3, 294428, Note_off_c, 1, 47, 0
3, 294432, Note_on_c, 1, 59, 70
3, 294524, Note_off_c, 1, 59, 0
3, 294528, Note_on_c, 1, 45, 69
3, 294620, Note_off_c, 1, 45, 0
3, 294624, Note_on_c, 1, 57, 68
3, 294716, Note_off_c, 1, 57, 0
3, 294720, Note_on_c, 1, 43, 67
3, 294812, Note_off_c, 1, 43, 0
3, 294816, Note_on_c, 1, 55, 66
3, 294908, Note_off_c, 1, 55, 0
3, 294912, Note_on_c, 1, 42, 66
3, 295004, Note_off_c, 1, 42, 0
3, 295008, Note_on_c, 1, 50, 68
3, 295100, Note_off_c, 1, 50, 0
3, 295104, Note_on_c, 1, 54, 70
3, 295196, Note_off_c, 1, 54, 0
3, 295200, Note_on_c, 1, 57, 72
3, 295292, Note_off_c, 1, 57, 0
3, 295296, Note_on_c, 1, 54, 66
3, 295388, Note_off_c, 1, 54, 0
3, 295392, Note_on_c, 1, 62, 66
3, 295484, Note_off_c, 1, 62, 0
3, 295488, Note_on_c, 1, 57, 66
3, 295580, Note_off_c, 1, 57, 0
3, 295584, Note_on_c, 1, 62, 66
3, 295676, Note_off_c, 1, 62, 0
3, 295680, Note_on_c, 1, 54, 66
3, 295772, Note_off_c, 1, 54, 0
3, 295776, Note_on_c, 1, 62, 66
3, 295868, Note_off_c, 1, 62, 0
3, 295872, Note_on_c, 1, 57, 66
3, 295964, Note_off_c, 1, 57, 0
3, 295968, Note_on_c, 1, 62, 66
3, 296060, Note_off_c, 1, 62, 0
3, 296064, Note_on_c, 1, 54, 66
3, 296156, Note_off_c, 1, 54, 0
3, 296160, Note_on_c, 1, 62, 66
3, 296252, Note_off_c, 1, 62, 0
3, 296256, Note_on_c, 1, 57, 66
3, 296348, Note_off_c, 1, 57, 0
3, 296352, Note_on_c, 1, 62, 66
3, 296444, Note_off_c, 1, 62, 0
3, 296448, Note_on_c, 1, 55, 66
3, 296540, Note_off_c, 1, 55, 0
3, 296544, Note_on_c, 1, 62, 66
3, 296636, Note_off_c, 1, 62, 0
3, 296640, Note_on_c, 1, 59, 66
3, 296732, Note_off_c, 1, 59, 0
3, 296736, Note_on_c, 1, 62, 66
3, 296828, Note_off_c, 1, 62, 0
3, 296832, Note_on_c, 1, 55, 66
3, 296924, Note_off_c, 1, 55, 0
3, 296928, Note_on_c, 1, 62, 66
3, 297020, Note_off_c, 1, 62, 0
3, 297024, Note_on_c, 1, 59, 66
3, 297116, Note_off_c, 1, 59, 0
3, 297120, Note_on_c, 1, 62, 66
3, 297212, Note_off_c, 1, 62, 0
3, 297216, Note_on_c, 1, 55, 66
3, 297308, Note_off_c, 1, 55, 0
3, 297312, Note_on_c, 1, 62, 66
3, 297404, Note_off_c, 1, 62, 0
3, 297408, Note_on_c, 1, 59, 66
3, 297500, Note_off_c, 1, 59, 0
3, 297504, Note_on_c, 1, 62, 66
3, 297596, Note_off_c, 1, 62, 0
3, 297600, Note_on_c, 1, 55, 66
3, 297692, Note_off_c, 1, 55, 0
3, 297696, Note_on_c, 1, 62, 66
3, 297788, Note_off_c, 1, 62, 0
3, 297792, Note_on_c, 1, 59, 66
3, 297884, Note_off_c, 1, 59, 0
3, 297888, Note_on_c, 1, 62, 66
3, 297980, Note_off_c, 1, 62, 0
3, 297984, Note_on_c, 1, 55, 66
3, 298076, Note_off_c, 1, 55, 0
3, 298080, Note_on_c, 1, 62, 66
3, 298172, Note_off_c, 1, 62, 0
3, 298176, Note_on_c, 1, 59, 66
3, 298268, Note_off_c, 1, 59, 0
3, 298272, Note_on_c, 1, 62, 66
3, 298364, Note_off_c, 1, 62, 0
3, 298368, Note_on_c, 1, 55, 66
3, 298460, Note_off_c, 1, 55, 0
3, 298464, Note_on_c, 1, 62, 66
3, 298556, Note_off_c, 1, 62, 0
3, 298560, Note_on_c, 1, 59, 66
3, 298652, Note_off_c, 1, 59, 0
3, 298656, Note_on_c, 1, 62, 66
3, 298748, Note_off_c, 1, 62, 0
3, 298752, Note_on_c, 1, 55, 66
3, 298844, Note_off_c, 1, 55, 0
3, 298848, Note_on_c, 1, 62, 66
3, 298940, Note_off_c, 1, 62, 0
3, 298944, Note_on_c, 1, 59, 66
3, 299036, Note_off_c, 1, 59, 0
3, 299040, Note_on_c, 1, 62, 66
3, 299132, Note_off_c, 1, 62, 0
3, 299136, Note_on_c, 1, 56, 66
3, 299228, Note_off_c, 1, 56, 0
3, 299232, Note_on_c, 1, 62, 66
3, 299324, Note_off_c, 1, 62, 0
3, 299328, Note_on_c, 1, 59, 66
3, 299420, Note_off_c, 1, 59, 0
3, 299424, Note_on_c, 1, 62, 66
3, 299516, Note_off_c, 1, 62, 0
3, 299520, Note_on_c, 1, 61, 66
3, 299520, Note_on_c, 1, 57, 66
3, 299900, Note_off_c, 1, 61, 0
3, 299900, Note_off_c, 1, 57, 0
3, 301632, Note_on_c, 1, 66, 66
3, 301632, Note_on_c, 1, 57, 66
3, 301724, Note_off_c, 1, 66, 0
3, 301724, Note_off_c, 1, 57, 0
3, 301824, Note_on_c, 1, 64, 66
3, 301824, Note_on_c, 1, 55, 66
3, 301916, Note_off_c, 1, 64, 0
3, 301916, Note_off_c, 1, 55, 0
3, 302016, Note_on_c, 1, 62, 66
3, 302016, Note_on_c, 1, 54, 66
3, 302108, Note_off_c, 1, 62, 0
3, 302108, Note_off_c, 1, 54, 0
3, 302208, Note_on_c, 1, 61, 66
3, 302208, Note_on_c, 1, 52, 66
3, 302300, Note_off_c, 1, 61, 0
3, 302300, Note_off_c, 1, 52, 0
3, 302400, Note_on_c, 1, 64, 66
3, 302400, Note_on_c, 1, 55, 66
3, 302492, Note_off_c, 1, 64, 0
3, 302492, Note_off_c, 1, 55, 0
3, 302592, Note_on_c, 1, 62, 66
3, 302592, Note_on_c, 1, 54, 66
3, 302684, Note_off_c, 1, 62, 0
3, 302684, Note_off_c, 1, 54, 0
3, 302688, Note_on_c, 1, 57, 66
3, 302780, Note_off_c, 1, 57, 0
3, 302784, Note_on_c, 1, 56, 66
3, 302876, Note_off_c, 1, 56, 0
3, 302880, Note_on_c, 1, 57, 66
3, 302972, Note_off_c, 1, 57, 0
3, 302976, Note_on_c, 1, 59, 66
3, 303068, Note_off_c, 1, 59, 0
3, 303072, Note_on_c, 1, 57, 66
3, 303164, Note_off_c, 1, 57, 0
3, 303168, Note_on_c, 1, 56, 66
3, 303260, Note_off_c, 1, 56, 0
3, 303264, Note_on_c, 1, 57, 66
3, 303356, Note_off_c, 1, 57, 0
3, 303360, Note_on_c, 1, 45, 66
3, 303452, Note_off_c, 1, 45, 0
3, 303456, Note_on_c, 1, 57, 66
3, 303548, Note_off_c, 1, 57, 0
3, 303552, Note_on_c, 1, 56, 66
3, 303644, Note_off_c, 1, 56, 0
3, 303648, Note_on_c, 1, 57, 66
3, 303740, Note_off_c, 1, 57, 0
3, 303744, Note_on_c, 1, 59, 66
3, 303836, Note_off_c, 1, 59, 0
3, 303840, Note_on_c, 1, 57, 66
3, 303932, Note_off_c, 1, 57, 0
3, 303936, Note_on_c, 1, 56, 66
3, 304028, Note_off_c, 1, 56, 0
3, 304032, Note_on_c, 1, 57, 66
3, 304124, Note_off_c, 1, 57, 0
3, 304128, Note_on_c, 1, 45, 66
3, 304220, Note_off_c, 1, 45, 0
3, 304224, Note_on_c, 1, 57, 66
3, 304316, Note_off_c, 1, 57, 0
3, 304320, Note_on_c, 1, 56, 66
3, 304412, Note_off_c, 1, 56, 0
3, 304416, Note_on_c, 1, 57, 66
3, 304508, Note_off_c, 1, 57, 0
3, 304512, Note_on_c, 1, 59, 66
3, 304604, Note_off_c, 1, 59, 0
3, 304608, Note_on_c, 1, 57, 66
3, 304700, Note_off_c, 1, 57, 0
3, 304704, Note_on_c, 1, 56, 66
3, 304796, Note_off_c, 1, 56, 0
3, 304800, Note_on_c, 1, 57, 66
3, 304892, Note_off_c, 1, 57, 0
3, 304896, Note_on_c, 1, 45, 66
3, 304988, Note_off_c, 1, 45, 0
3, 304992, Note_on_c, 1, 57, 66
3, 305084, Note_off_c, 1, 57, 0
3, 305088, Note_on_c, 1, 56, 66
3, 305180, Note_off_c, 1, 56, 0
3, 305184, Note_on_c, 1, 57, 66
3, 305276, Note_off_c, 1, 57, 0
3, 305280, Note_on_c, 1, 59, 66
3, 305372, Note_off_c, 1, 59, 0
3, 305376, Note_on_c, 1, 57, 66
3, 305468, Note_off_c, 1, 57, 0
3, 305472, Note_on_c, 1, 56, 66
3, 305564, Note_off_c, 1, 56, 0
3, 305568, Note_on_c, 1, 57, 66
3, 305660, Note_off_c, 1, 57, 0
3, 305664, Note_on_c, 1, 50, 66
3, 306044, Note_off_c, 1, 50, 0
3, 307200, Note_on_c, 1, 62, 99
3, 307580, Note_off_c, 1, 62, 0
3, 307776, Note_on_c, 1, 50, 99
3, 307964, Note_off_c, 1, 50, 0
3, 307968, Note_on_c, 1, 52, 99
3, 308348, Note_off_c, 1, 52, 0
3, 308352, Note_on_c, 1, 45, 99
3, 308732, Note_off_c, 1, 45, 0
3, 308736, Note_on_c, 1, 50, 99
3, 309116, Note_off_c, 1, 50, 0
3, 310272, Note_on_c, 1, 62, 99
3, 310652, Note_off_c, 1, 62, 0
3, 310848, Note_on_c, 1, 50, 99
3, 311036, Note_off_c, 1, 50, 0
3, 311040, Note_on_c, 1, 52, 99
3, 311420, Note_off_c, 1, 52, 0
3, 311424, Note_on_c, 1, 45, 82
3, 311804, Note_off_c, 1, 45, 0
3, 311808, Note_on_c, 1, 50, 66
3, 311900, Note_off_c, 1, 50, 0
3, 311904, Note_on_c, 1, 62, 66
3, 311984, Note_on_c, 1, 61, 66
3, 311996, Note_off_c, 1, 62, 0
3, 312076, Note_off_c, 1, 61, 0
3, 312096, Note_on_c, 1, 62, 66
3, 312188, Note_off_c, 1, 62, 0
3, 312192, Note_on_c, 1, 50, 66
3, 312284, Note_off_c, 1, 50, 0
3, 312288, Note_on_c, 1, 62, 66
3, 312380, Note_off_c, 1, 62, 0
3, 312384, Note_on_c, 1, 52, 66
3, 312476, Note_off_c, 1, 52, 0
3, 312480, Note_on_c, 1, 62, 66
3, 312572, Note_off_c, 1, 62, 0
3, 312576, Note_on_c, 1, 54, 66
3, 312668, Note_off_c, 1, 54, 0
3, 312672, Note_on_c, 1, 62, 66
3, 312764, Note_off_c, 1, 62, 0
3, 312768, Note_on_c, 1, 55, 66
3, 312860, Note_off_c, 1, 55, 0
3, 312864, Note_on_c, 1, 62, 66
3, 312956, Note_off_c, 1, 62, 0
3, 312960, Note_on_c, 1, 57, 66
3, 313052, Note_off_c, 1, 57, 0
3, 313056, Note_on_c, 1, 62, 66
3, 313148, Note_off_c, 1, 62, 0
3, 313152, Note_on_c, 1, 59, 66
3, 313244, Note_off_c, 1, 59, 0
3, 313248, Note_on_c, 1, 62, 66
3, 313340, Note_off_c, 1, 62, 0
3, 313344, Note_on_c, 1, 54, 66
3, 313436, Note_off_c, 1, 54, 0
3, 313440, Note_on_c, 1, 62, 66
3, 313532, Note_off_c, 1, 62, 0
3, 313536, Note_on_c, 1, 61, 66
3, 313628, Note_off_c, 1, 61, 0
3, 313632, Note_on_c, 1, 62, 66
3, 313724, Note_off_c, 1, 62, 0
3, 313728, Note_on_c, 1, 50, 66
3, 313820, Note_off_c, 1, 50, 0
3, 313824, Note_on_c, 1, 62, 66
3, 313916, Note_off_c, 1, 62, 0
3, 313920, Note_on_c, 1, 52, 66
3, 314012, Note_off_c, 1, 52, 0
3, 314016, Note_on_c, 1, 62, 66
3, 314108, Note_off_c, 1, 62, 0
3, 314112, Note_on_c, 1, 54, 68
3, 314204, Note_off_c, 1, 54, 0
3, 314208, Note_on_c, 1, 62, 70
3, 314300, Note_off_c, 1, 62, 0
3, 314304, Note_on_c, 1, 55, 72
3, 314396, Note_off_c, 1, 55, 0
3, 314400, Note_on_c, 1, 62, 74
3, 314492, Note_off_c, 1, 62, 0
3, 314496, Note_on_c, 1, 57, 77
3, 314588, Note_off_c, 1, 57, 0
3, 314592, Note_on_c, 1, 62, 79
3, 314672, Note_on_c, 1, 54, 81
3, 314684, Note_off_c, 1, 62, 0
3, 314764, Note_off_c, 1, 54, 0
3, 314784, Note_on_c, 1, 62, 83
3, 314876, Note_off_c, 1, 62, 0
3, 314880, Note_on_c, 1, 55, 85
3, 315260, Note_off_c, 1, 55, 0
3, 316416, Note_on_c, 1, 56, 99
3, 316508, Note_off_c, 1, 56, 0
3, 316512, Note_on_c, 1, 62, 99
3, 316604, Note_off_c, 1, 62, 0
3, 316608, Note_on_c, 1, 59, 99
3, 316700, Note_off_c, 1, 59, 0
3, 316704, Note_on_c, 1, 62, 99
3, 316796, Note_off_c, 1, 62, 0
3, 316800, Note_on_c, 1, 56, 99
3, 316892, Note_off_c, 1, 56, 0
3, 316896, Note_on_c, 1, 62, 99
3, 316988, Note_off_c, 1, 62, 0
3, 316992, Note_on_c, 1, 59, 99
3, 317084, Note_off_c, 1, 59, 0
3, 317088, Note_on_c, 1, 62, 99
3, 317180, Note_off_c, 1, 62, 0
3, 317184, Note_on_c, 1, 56, 99
3, 317276, Note_off_c, 1, 56, 0
3, 317280, Note_on_c, 1, 62, 99
3, 317372, Note_off_c, 1, 62, 0
3, 317376, Note_on_c, 1, 59, 99
3, 317468, Note_off_c, 1, 59, 0
3, 317472, Note_on_c, 1, 62, 99
3, 317564, Note_off_c, 1, 62, 0
3, 317568, Note_on_c, 1, 56, 99
3, 317660, Note_off_c, 1, 56, 0
3, 317664, Note_on_c, 1, 62, 99
3, 317756, Note_off_c, 1, 62, 0
3, 317760, Note_on_c, 1, 59, 99
3, 317852, Note_off_c, 1, 59, 0
3, 317856, Note_on_c, 1, 62, 99
3, 317948, Note_off_c, 1, 62, 0
3, 317952, Note_on_c, 1, 57, 99
3, 318332, Note_off_c, 1, 57, 0
3, 319488, Note_on_c, 1, 57, 99
3, 319580, Note_off_c, 1, 57, 0
3, 319584, Note_on_c, 1, 66, 99
3, 319676, Note_off_c, 1, 66, 0
3, 319680, Note_on_c, 1, 62, 99
3, 319772, Note_off_c, 1, 62, 0
3, 319776, Note_on_c, 1, 66, 99
3, 319868, Note_off_c, 1, 66, 0
3, 319872, Note_on_c, 1, 57, 99
3, 319964, Note_off_c, 1, 57, 0
3, 319968, Note_on_c, 1, 66, 99
3, 320060, Note_off_c, 1, 66, 0
3, 320064, Note_on_c, 1, 62, 99
3, 320156, Note_off_c, 1, 62, 0
3, 320160, Note_on_c, 1, 66, 99
3, 320252, Note_off_c, 1, 66, 0
3, 320256, Note_on_c, 1, 57, 99
3, 320348, Note_off_c, 1, 57, 0
3, 320352, Note_on_c, 1, 67, 99
3, 320444, Note_off_c, 1, 67, 0
3, 320448, Note_on_c, 1, 61, 99
3, 320540, Note_off_c, 1, 61, 0
3, 320544, Note_on_c, 1, 67, 99
3, 320636, Note_off_c, 1, 67, 0
3, 320640, Note_on_c, 1, 57, 99
3, 320732, Note_off_c, 1, 57, 0
3, 320736, Note_on_c, 1, 67, 99
3, 320828, Note_off_c, 1, 67, 0
3, 320832, Note_on_c, 1, 61, 99
3, 320924, Note_off_c, 1, 61, 0
3, 320928, Note_on_c, 1, 67, 99
3, 321020, Note_off_c, 1, 67, 0
3, 321024, Note_on_c, 1, 56, 99
3, 321116, Note_off_c, 1, 56, 0
3, 321120, Note_on_c, 1, 65, 99
3, 321212, Note_off_c, 1, 65, 0
3, 321216, Note_on_c, 1, 62, 99
3, 321308, Note_off_c, 1, 62, 0
3, 321312, Note_on_c, 1, 65, 99
3, 321404, Note_off_c, 1, 65, 0
3, 321408, Note_on_c, 1, 56, 99
3, 321500, Note_off_c, 1, 56, 0
3, 321504, Note_on_c, 1, 65, 99
3, 321596, Note_off_c, 1, 65, 0
3, 321600, Note_on_c, 1, 62, 99
3, 321692, Note_off_c, 1, 62, 0
3, 321696, Note_on_c, 1, 65, 99
3, 321788, Note_off_c, 1, 65, 0
3, 321792, Note_on_c, 1, 56, 99
3, 321884, Note_off_c, 1, 56, 0
3, 321888, Note_on_c, 1, 62, 99
3, 321980, Note_off_c, 1, 62, 0
3, 321984, Note_on_c, 1, 59, 99
3, 322076, Note_off_c, 1, 59, 0
3, 322080, Note_on_c, 1, 62, 99
3, 322172, Note_off_c, 1, 62, 0
3, 322176, Note_on_c, 1, 56, 99
3, 322268, Note_off_c, 1, 56, 0
3, 322272, Note_on_c, 1, 62, 99
3, 322364, Note_off_c, 1, 62, 0
3, 322368, Note_on_c, 1, 59, 99
3, 322460, Note_off_c, 1, 59, 0
3, 322464, Note_on_c, 1, 62, 99
3, 322556, Note_off_c, 1, 62, 0
3, 322560, Note_on_c, 1, 62, 99
3, 322560, Note_on_c, 1, 66, 99
3, 322560, Note_on_c, 1, 57, 99
3, 322940, Note_off_c, 1, 62, 0
3, 322940, Note_off_c, 1, 66, 0
3, 322940, Note_off_c, 1, 57, 0
3, 324096, Note_on_c, 1, 45, 99
3, 324188, Note_off_c, 1, 45, 0
3, 324192, Note_on_c, 1, 50, 99
3, 324284, Note_off_c, 1, 50, 0
3, 324288, Note_on_c, 1, 54, 99
3, 324380, Note_off_c, 1, 54, 0
3, 324384, Note_on_c, 1, 57, 99
3, 324476, Note_off_c, 1, 57, 0
3, 324480, Note_on_c, 1, 50, 99
3, 324572, Note_off_c, 1, 50, 0
3, 324576, Note_on_c, 1, 54, 99
3, 324668, Note_off_c, 1, 54, 0
3, 324672, Note_on_c, 1, 57, 99
3, 324764, Note_off_c, 1, 57, 0
3, 324768, Note_on_c, 1, 62, 99
3, 324860, Note_off_c, 1, 62, 0
3, 324864, Note_on_c, 1, 54, 99
3, 324956, Note_off_c, 1, 54, 0
3, 324960, Note_on_c, 1, 57, 99
3, 325052, Note_off_c, 1, 57, 0
3, 325056, Note_on_c, 1, 62, 99
3, 325148, Note_off_c, 1, 62, 0
3, 325152, Note_on_c, 1, 66, 99
3, 325244, Note_off_c, 1, 66, 0
3, 325248, Note_on_c, 1, 57, 99
3, 325340, Note_off_c, 1, 57, 0
3, 325344, Note_on_c, 1, 62, 99
3, 325436, Note_off_c, 1, 62, 0
3, 325440, Note_on_c, 1, 66, 99
3, 325532, Note_off_c, 1, 66, 0
3, 325536, Note_on_c, 1, 69, 99
3, 325628, Note_off_c, 1, 69, 0
3, 325632, Note_on_c, 1, 57, 99
3, 325724, Note_off_c, 1, 57, 0
3, 325728, Note_on_c, 1, 66, 99
3, 325820, Note_off_c, 1, 66, 0
3, 325824, Note_on_c, 1, 62, 99
3, 325916, Note_off_c, 1, 62, 0
3, 325920, Note_on_c, 1, 66, 99
3, 326012, Note_off_c, 1, 66, 0
3, 326016, Note_on_c, 1, 57, 99
3, 326108, Note_off_c, 1, 57, 0
3, 326112, Note_on_c, 1, 66, 99
3, 326204, Note_off_c, 1, 66, 0
3, 326208, Note_on_c, 1, 62, 99
3, 326300, Note_off_c, 1, 62, 0
3, 326304, Note_on_c, 1, 66, 99
3, 326396, Note_off_c, 1, 66, 0
3, 326400, Note_on_c, 1, 57, 99
3, 326492, Note_off_c, 1, 57, 0
3, 326496, Note_on_c, 1, 66, 99
3, 326588, Note_off_c, 1, 66, 0
3, 326592, Note_on_c, 1, 62, 99
3, 326684, Note_off_c, 1, 62, 0
3, 326688, Note_on_c, 1, 66, 99
3, 326780, Note_off_c, 1, 66, 0
3, 326784, Note_on_c, 1, 57, 99
3, 326876, Note_off_c, 1, 57, 0
3, 326880, Note_on_c, 1, 66, 99
3, 326972, Note_off_c, 1, 66, 0
3, 326976, Note_on_c, 1, 62, 99
3, 327068, Note_off_c, 1, 62, 0
3, 327072, Note_on_c, 1, 66, 99
3, 327164, Note_off_c, 1, 66, 0
3, 327168, Note_on_c, 1, 57, 99
3, 327260, Note_off_c, 1, 57, 0
3, 327264, Note_on_c, 1, 67, 99
3, 327356, Note_off_c, 1, 67, 0
3, 327360, Note_on_c, 1, 61, 99
3, 327452, Note_off_c, 1, 61, 0
3, 327456, Note_on_c, 1, 67, 99
3, 327548, Note_off_c, 1, 67, 0
3, 327552, Note_on_c, 1, 57, 99
3, 327644, Note_off_c, 1, 57, 0
3, 327648, Note_on_c, 1, 67, 99
3, 327740, Note_off_c, 1, 67, 0
3, 327744, Note_on_c, 1, 61, 99
3, 327836, Note_off_c, 1, 61, 0
3, 327840, Note_on_c, 1, 67, 99
3, 327932, Note_off_c, 1, 67, 0
3, 327936, Note_on_c, 1, 57, 99
3, 328028, Note_off_c, 1, 57, 0
3, 328032, Note_on_c, 1, 67, 99
3, 328124, Note_off_c, 1, 67, 0
3, 328128, Note_on_c, 1, 61, 99
3, 328220, Note_off_c, 1, 61, 0
3, 328224, Note_on_c, 1, 67, 99
3, 328316, Note_off_c, 1, 67, 0
3, 328320, Note_on_c, 1, 57, 99
3, 328412, Note_off_c, 1, 57, 0
3, 328416, Note_on_c, 1, 67, 99
3, 328508, Note_off_c, 1, 67, 0
3, 328512, Note_on_c, 1, 61, 99
3, 328604, Note_off_c, 1, 61, 0
3, 328608, Note_on_c, 1, 67, 99
3, 328700, Note_off_c, 1, 67, 0
3, 328704, Note_on_c, 1, 62, 99
3, 328704, Note_on_c, 1, 66, 99
3, 329084, Note_off_c, 1, 62, 0
3, 329084, Note_off_c, 1, 66, 0
3, 336380, Control_c, 1, 64, 127
3, 336384, Note_on_c, 1, 45, 100
3, 336384, Note_on_c, 1, 33, 100
3, 337148, Note_off_c, 1, 45, 0
3, 337148, Note_off_c, 1, 33, 0
3, 337148, Control_c, 1, 64, 0
3, 340992, Note_on_c, 1, 57, 99
3, 340992, Note_on_c, 1, 45, 99
3, 341372, Note_off_c, 1, 57, 0
3, 341372, Note_off_c, 1, 45, 0
3, 341760, Note_on_c, 1, 49, 99
3, 341760, Note_on_c, 1, 37, 99
3, 342140, Note_off_c, 1, 49, 0
3, 342140, Note_off_c, 1, 37, 0
3, 342528, Note_on_c, 1, 50, 88
3, 342528, Note_on_c, 1, 38, 88
3, 342908, Note_off_c, 1, 50, 0
3, 342908, Note_off_c, 1, 38, 0
3, 343296, Note_on_c, 1, 54, 75
3, 343296, Note_on_c, 1, 42, 75
3, 343676, Note_off_c, 1, 54, 0
3, 343676, Note_off_c, 1, 42, 0
3, 344064, Note_on_c, 1, 55, 66
3, 344252, Note_off_c, 1, 55, 0
3, 344256, Note_on_c, 1, 56, 66
3, 344444, Note_off_c, 1, 56, 0
3, 344448, Note_on_c, 1, 57, 66
3, 344636, Note_off_c, 1, 57, 0
3, 344640, Note_on_c, 1, 58, 66
3, 344828, Note_off_c, 1, 58, 0
3, 344832, Note_on_c, 1, 59, 67
3, 345212, Note_off_c, 1, 59, 0
3, 345216, Note_on_c, 1, 60, 71
3, 345308, Note_off_c, 1, 60, 0
3, 345408, Note_on_c, 1, 61, 74
3, 345500, Note_off_c, 1, 61, 0
3, 345600, Note_on_c, 1, 62, 77
3, 345692, Note_off_c, 1, 62, 0
3, 345792, Note_on_c, 1, 54, 80
3, 345792, Note_on_c, 1, 42, 80
3, 345884, Note_off_c, 1, 54, 0
3, 345884, Note_off_c, 1, 42, 0
3, 345984, Note_on_c, 1, 55, 82
3, 345984, Note_on_c, 1, 43, 82
3, 346076, Note_off_c, 1, 55, 0
3, 346076, Note_off_c, 1, 43, 0
3, 346176, Note_on_c, 1, 56, 84
3, 346176, Note_on_c, 1, 44, 84
3, 346268, Note_off_c, 1, 56, 0
3, 346268, Note_off_c, 1, 44, 0
3, 346368, Note_on_c, 1, 57, 88
3, 346368, Note_on_c, 1, 45, 88
3, 346460, Note_off_c, 1, 57, 0
3, 346460, Note_off_c, 1, 45, 0
3, 346560, Note_on_c, 1, 60, 90
3, 346560, Note_on_c, 1, 48, 90
3, 346652, Note_off_c, 1, 60, 0
3, 346652, Note_off_c, 1, 48, 0
3, 346752, Note_on_c, 1, 58, 93
3, 346752, Note_on_c, 1, 46, 93
3, 346844, Note_off_c, 1, 58, 0
3, 346844, Note_off_c, 1, 46, 0
3, 346944, Note_on_c, 1, 54, 95
3, 346944, Note_on_c, 1, 42, 95
3, 347036, Note_off_c, 1, 54, 0
3, 347036, Note_off_c, 1, 42, 0
3, 347136, Note_on_c, 1, 55, 99
3, 347136, Note_on_c, 1, 43, 99
3, 347324, Note_off_c, 1, 55, 0
3, 347324, Note_off_c, 1, 43, 0
3, 347328, Note_on_c, 1, 54, 99
3, 347328, Note_on_c, 1, 42, 99
3, 347516, Note_off_c, 1, 54, 0
3, 347516, Note_off_c, 1, 42, 0
3, 347520, Note_on_c, 1, 55, 99
3, 347520, Note_on_c, 1, 43, 99
3, 347708, Note_off_c, 1, 55, 0
3, 347708, Note_off_c, 1, 43, 0
3, 347712, Note_on_c, 1, 53, 99
3, 347712, Note_on_c, 1, 41, 99
3, 347900, Note_off_c, 1, 53, 0
3, 347900, Note_off_c, 1, 41, 0
3, 347900, Control_c, 1, 64, 127
3, 347904, Note_on_c, 1, 44, 99
3, 347904, Note_on_c, 1, 40, 99
3, 347904, Note_on_c, 1, 47, 99
3, 347908, Note_on_c, 1, 52, 99
3, 348668, Note_off_c, 1, 44, 0
3, 348668, Note_off_c, 1, 40, 0
3, 348668, Note_off_c, 1, 47, 0
3, 348668, Control_c, 1, 64, 0
3, 348672, Note_off_c, 1, 52, 0
3, 350304, Note_on_c, 1, 45, 99
3, 350396, Note_off_c, 1, 45, 0
3, 350400, Note_on_c, 1, 49, 99
3, 350492, Note_off_c, 1, 49, 0
3, 350496, Note_on_c, 1, 52, 99
3, 350588, Note_off_c, 1, 52, 0
3, 350592, Note_on_c, 1, 55, 99
3, 350972, Note_off_c, 1, 55, 0
3, 357504, Note_on_c, 1, 61, 99
3, 357596, Note_off_c, 1, 61, 0
3, 357600, Note_on_c, 1, 59, 99
3, 357692, Note_off_c, 1, 59, 0
3, 357696, Note_on_c, 1, 57, 99
3, 357788, Note_off_c, 1, 57, 0
3, 357792, Note_on_c, 1, 55, 99
3, 357884, Note_off_c, 1, 55, 0
3, 357888, Note_on_c, 1, 54, 66
3, 357980, Note_off_c, 1, 54, 0
3, 357984, Note_on_c, 1, 57, 66
3, 358076, Note_off_c, 1, 57, 0
3, 358080, Note_on_c, 1, 56, 66
3, 358172, Note_off_c, 1, 56, 0
3, 358176, Note_on_c, 1, 57, 66
3, 358268, Note_off_c, 1, 57, 0
3, 358272, Note_on_c, 1, 59, 66
3, 358364, Note_off_c, 1, 59, 0
3, 358368, Note_on_c, 1, 57, 66
3, 358460, Note_off_c, 1, 57, 0
3, 358464, Note_on_c, 1, 56, 66
3, 358556, Note_off_c, 1, 56, 0
3, 358560, Note_on_c, 1, 57, 66
3, 358652, Note_off_c, 1, 57, 0
3, 358656, Note_on_c, 1, 50, 66
3, 358748, Note_off_c, 1, 50, 0
3, 358752, Note_on_c, 1, 57, 66
3, 358844, Note_off_c, 1, 57, 0
3, 358848, Note_on_c, 1, 56, 66
3, 358940, Note_off_c, 1, 56, 0
3, 358944, Note_on_c, 1, 57, 66
3, 359036, Note_off_c, 1, 57, 0
3, 359040, Note_on_c, 1, 59, 66
3, 359132, Note_off_c, 1, 59, 0
3, 359136, Note_on_c, 1, 57, 66
3, 359228, Note_off_c, 1, 57, 0
3, 359232, Note_on_c, 1, 56, 66
3, 359324, Note_off_c, 1, 56, 0
3, 359328, Note_on_c, 1, 57, 66
3, 359420, Note_off_c, 1, 57, 0
3, 359424, Note_on_c, 1, 52, 66
3, 359516, Note_off_c, 1, 52, 0
3, 359520, Note_on_c, 1, 57, 66
3, 359612, Note_off_c, 1, 57, 0
3, 359616, Note_on_c, 1, 56, 66
3, 359708, Note_off_c, 1, 56, 0
3, 359712, Note_on_c, 1, 57, 66
3, 359804, Note_off_c, 1, 57, 0
3, 359808, Note_on_c, 1, 59, 66
3, 359900, Note_off_c, 1, 59, 0
3, 359904, Note_on_c, 1, 57, 66
3, 359996, Note_off_c, 1, 57, 0
3, 360000, Note_on_c, 1, 56, 66
3, 360092, Note_off_c, 1, 56, 0
3, 360096, Note_on_c, 1, 57, 66
3, 360188, Note_off_c, 1, 57, 0
3, 360192, Note_on_c, 1, 55, 66
3, 360284, Note_off_c, 1, 55, 0
3, 360288, Note_on_c, 1, 57, 66
3, 360380, Note_off_c, 1, 57, 0
3, 360384, Note_on_c, 1, 56, 66
3, 360476, Note_off_c, 1, 56, 0
3, 360480, Note_on_c, 1, 57, 66
3, 360572, Note_off_c, 1, 57, 0
3, 360576, Note_on_c, 1, 59, 66
3, 360668, Note_off_c, 1, 59, 0
3, 360672, Note_on_c, 1, 57, 66
3, 360764, Note_off_c, 1, 57, 0
3, 360768, Note_on_c, 1, 56, 66
3, 360860, Note_off_c, 1, 56, 0
3, 360864, Note_on_c, 1, 57, 66
3, 360956, Note_off_c, 1, 57, 0
3, 360960, Note_on_c, 1, 54, 66
3, 361052, Note_off_c, 1, 54, 0
3, 361056, Note_on_c, 1, 57, 66
3, 361148, Note_off_c, 1, 57, 0
3, 361152, Note_on_c, 1, 56, 66
3, 361244, Note_off_c, 1, 56, 0
3, 361248, Note_on_c, 1, 57, 66
3, 361340, Note_off_c, 1, 57, 0
3, 361344, Note_on_c, 1, 59, 66
3, 361436, Note_off_c, 1, 59, 0
3, 361440, Note_on_c, 1, 57, 66
3, 361532, Note_off_c, 1, 57, 0
3, 361536, Note_on_c, 1, 56, 66
3, 361628, Note_off_c, 1, 56, 0
3, 361632, Note_on_c, 1, 57, 66
3, 361724, Note_off_c, 1, 57, 0
3, 361728, Note_on_c, 1, 50, 66
3, 361820, Note_off_c, 1, 50, 0
3, 361824, Note_on_c, 1, 57, 66
3, 361916, Note_off_c, 1, 57, 0
3, 361920, Note_on_c, 1, 56, 66
3, 362012, Note_off_c, 1, 56, 0
3, 362016, Note_on_c, 1, 57, 66
3, 362108, Note_off_c, 1, 57, 0
3, 362112, Note_on_c, 1, 59, 66
3, 362204, Note_off_c, 1, 59, 0
3, 362208, Note_on_c, 1, 57, 66
3, 362300, Note_off_c, 1, 57, 0
3, 362304, Note_on_c, 1, 56, 66
3, 362396, Note_off_c, 1, 56, 0
3, 362400, Note_on_c, 1, 57, 66
3, 362492, Note_off_c, 1, 57, 0
3, 362496, Note_on_c, 1, 52, 66
3, 362588, Note_off_c, 1, 52, 0
3, 362592, Note_on_c, 1, 57, 66
3, 362684, Note_off_c, 1, 57, 0
3, 362688, Note_on_c, 1, 56, 66
3, 362780, Note_off_c, 1, 56, 0
3, 362784, Note_on_c, 1, 57, 66
3, 362876, Note_off_c, 1, 57, 0
3, 362880, Note_on_c, 1, 59, 66
3, 362972, Note_off_c, 1, 59, 0
3, 362976, Note_on_c, 1, 57, 66
3, 363068, Note_off_c, 1, 57, 0
3, 363072, Note_on_c, 1, 56, 66
3, 363164, Note_off_c, 1, 56, 0
3, 363168, Note_on_c, 1, 57, 66
3, 363260, Note_off_c, 1, 57, 0
3, 363264, Note_on_c, 1, 55, 66
3, 363356, Note_off_c, 1, 55, 0
3, 363360, Note_on_c, 1, 57, 66
3, 363452, Note_off_c, 1, 57, 0
3, 363456, Note_on_c, 1, 56, 66
3, 363548, Note_off_c, 1, 56, 0
3, 363552, Note_on_c, 1, 57, 66
3, 363644, Note_off_c, 1, 57, 0
3, 363648, Note_on_c, 1, 59, 66
3, 363740, Note_off_c, 1, 59, 0
3, 363744, Note_on_c, 1, 57, 66
3, 363836, Note_off_c, 1, 57, 0
3, 363840, Note_on_c, 1, 56, 66
3, 363932, Note_off_c, 1, 56, 0
3, 363936, Note_on_c, 1, 57, 66
3, 364028, Note_off_c, 1, 57, 0
3, 364032, Note_on_c, 1, 57, 84
3, 364412, Note_off_c, 1, 57, 0
3, 364416, Note_on_c, 1, 62, 99
3, 364800, Note_on_c, 1, 55, 114
3, 365180, Note_off_c, 1, 62, 0
3, 365180, Note_off_c, 1, 55, 0
3, 365184, Note_on_c, 1, 54, 94
3, 365184, Note_on_c, 1, 62, 94
3, 365564, Note_off_c, 1, 54, 0
3, 365564, Note_off_c, 1, 62, 0
3, 365564, Control_c, 1, 64, 127
3, 365568, Note_on_c, 1, 62, 92
3, 365568, Note_on_c, 1, 55, 92
3, 366332, Note_off_c, 1, 62, 0
3, 366332, Note_off_c, 1, 55, 0
3, 366332, Control_c, 1, 64, 0
3, 367100, Control_c, 1, 64, 127
3, 367104, Note_on_c, 1, 62, 127
3, 367104, Note_on_c, 1, 59, 127
3, 367104, Note_on_c, 1, 56, 127
3, 367868, Note_off_c, 1, 62, 0
3, 367868, Note_off_c, 1, 59, 0
3, 367868, Note_off_c, 1, 56, 0
3, 367868, Control_c, 1, 64, 0
3, 369408, Note_on_c, 1, 53, 88
3, 369500, Note_off_c, 1, 53, 0
3, 369504, Note_on_c, 1, 50, 88
3, 369596, Note_off_c, 1, 50, 0
3, 369600, Note_on_c, 1, 47, 88
3, 369692, Note_off_c, 1, 47, 0
3, 369696, Note_on_c, 1, 44, 88
3, 369788, Note_off_c, 1, 44, 0
3, 369788, Control_c, 1, 64, 127
3, 369792, Note_on_c, 1, 33, 110
3, 369792, Note_on_c, 1, 45, 110
3, 370556, Note_off_c, 1, 33, 0
3, 370576, Note_off_c, 1, 45, 64
3, 370576, Control_c, 1, 64, 0
3, 370580, Note_on_c, 1, 49, 88
3, 370600, Note_off_c, 1, 49, 0
3, 370600, Note_on_c, 1, 47, 88
3, 370620, Note_off_c, 1, 47, 0
3, 370620, Note_on_c, 1, 45, 88
3, 370640, Note_off_c, 1, 45, 0
3, 370640, Note_on_c, 1, 47, 88
3, 370660, Note_off_c, 1, 47, 0
3, 370660, Note_on_c, 1, 49, 88
3, 370680, Note_off_c, 1, 49, 0
3, 370680, Note_on_c, 1, 51, 88
3, 370700, Note_off_c, 1, 51, 0
3, 370700, Note_on_c, 1, 52, 88
3, 370720, Note_off_c, 1, 52, 0
3, 370720, Note_on_c, 1, 54, 88
3, 370740, Note_off_c, 1, 54, 0
3, 370740, Note_on_c, 1, 55, 88
3, 370760, Note_off_c, 1, 55, 0
3, 370760, Note_on_c, 1, 57, 88
3, 370780, Note_off_c, 1, 57, 0
3, 370780, Note_on_c, 1, 59, 88
3, 370800, Note_off_c, 1, 59, 0
3, 370800, Note_on_c, 1, 61, 88
3, 370820, Note_off_c, 1, 61, 0
3, 372476, Control_c, 1, 64, 127
3, 372480, Note_on_c, 1, 61, 100
3, 372480, Note_on_c, 1, 57, 100
3, 372480, Note_on_c, 1, 67, 100
3, 373244, Note_off_c, 1, 61, 0
3, 373244, Note_off_c, 1, 57, 0
3, 373244, Note_off_c, 1, 67, 0
3, 373244, Control_c, 1, 64, 0
3, 373248, Note_on_c, 1, 62, 111
3, 373248, Note_on_c, 1, 66, 111
3, 373628, Note_off_c, 1, 62, 0
3, 373628, Note_off_c, 1, 66, 0
3, 373628, End_track
4, 0, Start_track
4, 0, Title_t, "Midi by:"
4, 0, Control_c, 2, 0, 0
4, 0, Program_c, 2, 48
4, 0, Control_c, 2, 7, 127
4, 0, Control_c, 2, 10, 42
4, 0, Control_c, 2, 91, 70
4, 0, Control_c, 2, 93, 59
4, 0, Key_signature, 2, "major"
4, 0, Control_c, 2, 121, 0
4, 384, Control_c, 2, 10, 53
4, 480, Control_c, 2, 91, 63
4, 672, Program_c, 2, 48
4, 1536, Note_on_c, 2, 74, 86
4, 1536, Note_on_c, 2, 66, 86
4, 1628, Note_off_c, 2, 66, 0
4, 1632, Note_on_c, 2, 69, 86
4, 1724, Note_off_c, 2, 69, 0
4, 1728, Note_on_c, 2, 66, 86
4, 1820, Note_off_c, 2, 66, 0
4, 1824, Note_on_c, 2, 69, 86
4, 1916, Note_off_c, 2, 69, 0
4, 1920, Note_on_c, 2, 66, 86
4, 2108, Note_off_c, 2, 74, 0
4, 2108, Note_off_c, 2, 66, 0
4, 2112, Note_on_c, 2, 69, 86
4, 2112, Note_on_c, 2, 76, 86
4, 2152, Note_off_c, 2, 76, 0
4, 2160, Note_on_c, 2, 74, 86
4, 2200, Note_off_c, 2, 74, 0
4, 2208, Note_on_c, 2, 73, 86
4, 2248, Note_off_c, 2, 73, 0
4, 2256, Note_on_c, 2, 74, 86
4, 2296, Note_off_c, 2, 74, 0
4, 2300, Note_off_c, 2, 69, 0
4, 2304, Note_on_c, 2, 76, 86
4, 2304, Note_on_c, 2, 69, 86
4, 2396, Note_off_c, 2, 76, 0
4, 2396, Note_off_c, 2, 69, 0
4, 2496, Note_on_c, 2, 74, 86
4, 2496, Note_on_c, 2, 69, 86
4, 2588, Note_off_c, 2, 74, 0
4, 2588, Note_off_c, 2, 69, 0
4, 2688, Note_on_c, 2, 76, 86
4, 2688, Note_on_c, 2, 69, 86
4, 2780, Note_off_c, 2, 76, 0
4, 2780, Note_off_c, 2, 69, 0
4, 2880, Note_on_c, 2, 73, 86
4, 2880, Note_on_c, 2, 69, 86
4, 2972, Note_off_c, 2, 73, 0
4, 2972, Note_off_c, 2, 69, 0
4, 3072, Note_on_c, 2, 74, 86
4, 3072, Note_on_c, 2, 74, 86
4, 3164, Note_off_c, 2, 74, 0
4, 3168, Note_on_c, 2, 69, 86
4, 3260, Note_off_c, 2, 69, 0
4, 3264, Note_on_c, 2, 66, 86
4, 3356, Note_off_c, 2, 66, 0
4, 3360, Note_on_c, 2, 69, 86
4, 3452, Note_off_c, 2, 69, 0
4, 3456, Note_on_c, 2, 62, 86
4, 3644, Note_off_c, 2, 74, 0
4, 3644, Note_off_c, 2, 62, 0
4, 3648, Note_on_c, 2, 69, 86
4, 3648, Note_on_c, 2, 79, 86
4, 3688, Note_off_c, 2, 79, 0
4, 3696, Note_on_c, 2, 78, 86
4, 3736, Note_off_c, 2, 78, 0
4, 3744, Note_on_c, 2, 76, 86
4, 3784, Note_off_c, 2, 76, 0
4, 3792, Note_on_c, 2, 78, 86
4, 3832, Note_off_c, 2, 78, 0
4, 3836, Note_off_c, 2, 69, 0
4, 3840, Note_on_c, 2, 79, 86
4, 3840, Note_on_c, 2, 69, 86
4, 3932, Note_off_c, 2, 79, 0
4, 3932, Note_off_c, 2, 69, 0
4, 4032, Note_on_c, 2, 78, 86
4, 4032, Note_on_c, 2, 69, 86
4, 4124, Note_off_c, 2, 78, 0
4, 4124, Note_off_c, 2, 69, 0
4, 4224, Note_on_c, 2, 79, 86
4, 4224, Note_on_c, 2, 69, 86
4, 4316, Note_off_c, 2, 79, 0
4, 4316, Note_off_c, 2, 69, 0
4, 4416, Note_on_c, 2, 76, 86
4, 4416, Note_on_c, 2, 69, 86
4, 4508, Note_off_c, 2, 76, 0
4, 4508, Note_off_c, 2, 69, 0
4, 4608, Note_on_c, 2, 78, 86
4, 4608, Note_on_c, 2, 69, 86
4, 4700, Note_off_c, 2, 69, 0
4, 4704, Note_on_c, 2, 74, 86
4, 4796, Note_off_c, 2, 74, 0
4, 4800, Note_on_c, 2, 69, 86
4, 4892, Note_off_c, 2, 69, 0
4, 4896, Note_on_c, 2, 74, 86
4, 4988, Note_off_c, 2, 74, 0
4, 4992, Note_on_c, 2, 69, 86
4, 5180, Note_off_c, 2, 78, 0
4, 5180, Note_off_c, 2, 69, 0
4, 5184, Note_on_c, 2, 74, 86
4, 5184, Note_on_c, 2, 83, 86
4, 5224, Note_off_c, 2, 83, 0
4, 5232, Note_on_c, 2, 81, 86
4, 5272, Note_off_c, 2, 81, 0
4, 5280, Note_on_c, 2, 79, 86
4, 5320, Note_off_c, 2, 79, 0
4, 5328, Note_on_c, 2, 81, 86
4, 5368, Note_off_c, 2, 81, 0
4, 5372, Note_off_c, 2, 74, 0
4, 5376, Note_on_c, 2, 83, 86
4, 5376, Note_on_c, 2, 74, 86
4, 5468, Note_off_c, 2, 83, 0
4, 5468, Note_off_c, 2, 74, 0
4, 5568, Note_on_c, 2, 74, 86
4, 5568, Note_on_c, 2, 81, 86
4, 5660, Note_off_c, 2, 74, 0
4, 5660, Note_off_c, 2, 81, 0
4, 5760, Note_on_c, 2, 83, 86
4, 5760, Note_on_c, 2, 74, 86
4, 5852, Note_off_c, 2, 83, 0
4, 5852, Note_off_c, 2, 74, 0
4, 5952, Note_on_c, 2, 85, 86
4, 5952, Note_on_c, 2, 81, 86
4, 5952, Note_on_c, 2, 79, 86
4, 6044, Note_off_c, 2, 85, 0
4, 6044, Note_off_c, 2, 81, 0
4, 6044, Note_off_c, 2, 79, 0
4, 6144, Note_on_c, 2, 86, 86
4, 6144, Note_on_c, 2, 81, 86
4, 6144, Note_on_c, 2, 78, 86
4, 6524, Note_off_c, 2, 86, 0
4, 6524, Note_off_c, 2, 81, 0
4, 6524, Note_off_c, 2, 78, 0
4, 6528, Note_on_c, 2, 74, 86
4, 6528, Note_on_c, 2, 69, 86
4, 6528, Note_on_c, 2, 66, 86
4, 6908, Note_off_c, 2, 74, 0
4, 6908, Note_off_c, 2, 69, 0
4, 6908, Note_off_c, 2, 66, 0
4, 7104, Note_on_c, 2, 74, 86
4, 7104, Note_on_c, 2, 69, 86
4, 7104, Note_on_c, 2, 66, 86
4, 7196, Note_off_c, 2, 74, 0
4, 7196, Note_off_c, 2, 69, 0
4, 7196, Note_off_c, 2, 66, 0
4, 7296, Note_on_c, 2, 78, 86
4, 7296, Note_on_c, 2, 74, 86
4, 7296, Note_on_c, 2, 69, 86
4, 7388, Note_off_c, 2, 78, 0
4, 7388, Note_off_c, 2, 74, 0
4, 7388, Note_off_c, 2, 69, 0
4, 7488, Note_on_c, 2, 81, 86
4, 7488, Note_on_c, 2, 78, 86
4, 7488, Note_on_c, 2, 74, 86
4, 7580, Note_off_c, 2, 81, 0
4, 7580, Note_off_c, 2, 78, 0
4, 7580, Note_off_c, 2, 74, 0
4, 7680, Note_on_c, 2, 83, 86
4, 7680, Note_on_c, 2, 79, 86
4, 7680, Note_on_c, 2, 74, 86
4, 7964, Note_off_c, 2, 83, 0
4, 7964, Note_off_c, 2, 79, 0
4, 7964, Note_off_c, 2, 74, 0
4, 7968, Note_on_c, 2, 79, 86
4, 8040, Note_off_c, 2, 79, 0
4, 8064, Note_on_c, 2, 83, 86
4, 8064, Note_on_c, 2, 74, 86
4, 8444, Note_off_c, 2, 83, 0
4, 8444, Note_off_c, 2, 74, 0
4, 8640, Note_on_c, 2, 74, 86
4, 8640, Note_on_c, 2, 71, 86
4, 8640, Note_on_c, 2, 67, 86
4, 8732, Note_off_c, 2, 74, 0
4, 8732, Note_off_c, 2, 71, 0
4, 8732, Note_off_c, 2, 67, 0
4, 8832, Note_on_c, 2, 79, 86
4, 8832, Note_on_c, 2, 74, 86
4, 8832, Note_on_c, 2, 71, 86
4, 8924, Note_off_c, 2, 79, 0
4, 8924, Note_off_c, 2, 74, 0
4, 8924, Note_off_c, 2, 71, 0
4, 9024, Note_on_c, 2, 83, 86
4, 9024, Note_on_c, 2, 79, 86
4, 9024, Note_on_c, 2, 74, 86
4, 9116, Note_off_c, 2, 83, 0
4, 9116, Note_off_c, 2, 79, 0
4, 9116, Note_off_c, 2, 74, 0
4, 9216, Note_on_c, 2, 81, 86
4, 9216, Note_on_c, 2, 78, 86
4, 9216, Note_on_c, 2, 74, 86
4, 9504, Note_on_c, 2, 78, 86
4, 9576, Note_off_c, 2, 78, 0
4, 9596, Note_off_c, 2, 78, 0
4, 9600, Note_on_c, 2, 81, 86
4, 9600, Note_on_c, 2, 74, 86
4, 9788, Note_off_c, 2, 81, 0
4, 9788, Note_off_c, 2, 74, 0
4, 9980, Note_off_c, 2, 81, 0
4, 9980, Note_off_c, 2, 74, 0
4, 10176, Note_on_c, 2, 74, 86
4, 10268, Note_off_c, 2, 74, 0
4, 10368, Note_on_c, 2, 78, 86
4, 10460, Note_off_c, 2, 78, 0
4, 10560, Note_on_c, 2, 81, 86
4, 10652, Note_off_c, 2, 81, 0
4, 10752, Note_on_c, 2, 81, 66
4, 10844, Note_off_c, 2, 81, 0
4, 10848, Note_on_c, 2, 79, 59
4, 11136, Note_on_c, 2, 78, 66
4, 11228, Note_off_c, 2, 78, 0
4, 11232, Note_on_c, 2, 76, 59
4, 11412, Note_off_c, 2, 79, 0
4, 11520, Note_on_c, 2, 74, 66
4, 11612, Note_off_c, 2, 74, 0
4, 11616, Note_on_c, 2, 73, 59
4, 11796, Note_off_c, 2, 76, 0
4, 11892, Note_off_c, 2, 73, 0
4, 11904, Note_on_c, 2, 76, 59
4, 11904, Note_on_c, 2, 83, 66
4, 11996, Note_off_c, 2, 83, 0
4, 12000, Note_on_c, 2, 81, 59
4, 12276, Note_off_c, 2, 81, 0
4, 12284, Note_off_c, 2, 76, 0
4, 12288, Note_on_c, 2, 69, 59
4, 12288, Note_on_c, 2, 79, 66
4, 12380, Note_off_c, 2, 79, 0
4, 12384, Note_on_c, 2, 78, 59
4, 12660, Note_off_c, 2, 78, 0
4, 12668, Note_off_c, 2, 69, 0
4, 12672, Note_on_c, 2, 76, 66
4, 12764, Note_off_c, 2, 76, 0
4, 12768, Note_on_c, 2, 74, 59
4, 13044, Note_off_c, 2, 74, 0
4, 13056, Note_on_c, 2, 73, 66
4, 13148, Note_off_c, 2, 73, 0
4, 13152, Note_on_c, 2, 74, 59
4, 13428, Note_off_c, 2, 74, 0
4, 13440, Note_on_c, 2, 69, 59
4, 13440, Note_on_c, 2, 76, 66
4, 13532, Note_off_c, 2, 76, 0
4, 13536, Note_on_c, 2, 74, 59
4, 13812, Note_off_c, 2, 74, 0
4, 13820, Note_off_c, 2, 69, 0
4, 13824, Note_on_c, 2, 71, 59
4, 13824, Note_on_c, 2, 75, 59
4, 13916, Note_off_c, 2, 75, 0
4, 13920, Note_on_c, 2, 76, 59
4, 14196, Note_off_c, 2, 76, 0
4, 14204, Note_off_c, 2, 71, 0
4, 14208, Note_on_c, 2, 79, 59
4, 14208, Note_on_c, 2, 71, 59
4, 14300, Note_off_c, 2, 79, 0
4, 14300, Note_off_c, 2, 71, 0
4, 14304, Note_on_c, 2, 76, 59
4, 14304, Note_on_c, 2, 67, 59
4, 14580, Note_off_c, 2, 76, 0
4, 14580, Note_off_c, 2, 67, 0
4, 14592, Note_on_c, 2, 67, 59
4, 14592, Note_on_c, 2, 76, 59
4, 14652, Note_off_c, 2, 76, 0
4, 14656, Note_on_c, 2, 78, 59
4, 14716, Note_off_c, 2, 78, 0
4, 14720, Note_on_c, 2, 76, 59
4, 14780, Note_off_c, 2, 67, 0
4, 14780, Note_off_c, 2, 76, 0
4, 14784, Note_on_c, 2, 66, 59
4, 14784, Note_on_c, 2, 74, 59
4, 14972, Note_off_c, 2, 66, 0
4, 14972, Note_off_c, 2, 74, 0
4, 14976, Note_on_c, 2, 66, 59
4, 14976, Note_on_c, 2, 74, 59
4, 15036, Note_off_c, 2, 74, 0
4, 15040, Note_on_c, 2, 76, 59
4, 15100, Note_off_c, 2, 76, 0
4, 15104, Note_on_c, 2, 74, 59
4, 15164, Note_off_c, 2, 66, 0
4, 15164, Note_off_c, 2, 74, 0
4, 15168, Note_on_c, 2, 64, 59
4, 15168, Note_on_c, 2, 73, 59
4, 15356, Note_off_c, 2, 64, 0
4, 15356, Note_off_c, 2, 73, 0
4, 15360, Note_on_c, 2, 74, 86
4, 15360, Note_on_c, 2, 66, 86
4, 15452, Note_off_c, 2, 74, 0
4, 15452, Note_off_c, 2, 66, 0
4, 15456, Note_on_c, 2, 69, 86
4, 15548, Note_off_c, 2, 69, 0
4, 15552, Note_on_c, 2, 71, 86
4, 15644, Note_off_c, 2, 71, 0
4, 15648, Note_on_c, 2, 69, 86
4, 15740, Note_off_c, 2, 69, 0
4, 15744, Note_on_c, 2, 74, 86
4, 15836, Note_off_c, 2, 74, 0
4, 15840, Note_on_c, 2, 69, 86
4, 15932, Note_off_c, 2, 69, 0
4, 15936, Note_on_c, 2, 78, 86
4, 15936, Note_on_c, 2, 74, 86
4, 16028, Note_off_c, 2, 78, 0
4, 16028, Note_off_c, 2, 74, 0
4, 16032, Note_on_c, 2, 69, 86
4, 16124, Note_off_c, 2, 69, 0
4, 16128, Note_on_c, 2, 76, 86
4, 16220, Note_off_c, 2, 76, 0
4, 16224, Note_on_c, 2, 69, 86
4, 16316, Note_off_c, 2, 69, 0
4, 16320, Note_on_c, 2, 71, 86
4, 16412, Note_off_c, 2, 71, 0
4, 16416, Note_on_c, 2, 69, 86
4, 16508, Note_off_c, 2, 69, 0
4, 16512, Note_on_c, 2, 76, 86
4, 16604, Note_off_c, 2, 76, 0
4, 16608, Note_on_c, 2, 69, 86
4, 16700, Note_off_c, 2, 69, 0
4, 16704, Note_on_c, 2, 79, 86
4, 16704, Note_on_c, 2, 69, 86
4, 16704, Note_on_c, 2, 61, 86
4, 16796, Note_off_c, 2, 79, 0
4, 16800, Note_on_c, 2, 76, 86
4, 16892, Note_off_c, 2, 69, 0
4, 16892, Note_off_c, 2, 61, 0
4, 16892, Note_off_c, 2, 76, 0
4, 16896, Note_on_c, 2, 78, 86
4, 16896, Note_on_c, 2, 69, 86
4, 16896, Note_on_c, 2, 62, 86
4, 16988, Note_off_c, 2, 78, 0
4, 16992, Note_on_c, 2, 74, 86
4, 17084, Note_off_c, 2, 74, 0
4, 17088, Note_on_c, 2, 76, 86
4, 17180, Note_off_c, 2, 76, 0
4, 17184, Note_on_c, 2, 74, 86
4, 17276, Note_off_c, 2, 69, 0
4, 17276, Note_off_c, 2, 62, 0
4, 17276, Note_off_c, 2, 74, 0
4, 17280, Note_on_c, 2, 78, 86
4, 17372, Note_off_c, 2, 78, 0
4, 17376, Note_on_c, 2, 74, 86
4, 17468, Note_off_c, 2, 74, 0
4, 17472, Note_on_c, 2, 81, 86
4, 17472, Note_on_c, 2, 66, 86
4, 17472, Note_on_c, 2, 62, 86
4, 17564, Note_off_c, 2, 81, 0
4, 17568, Note_on_c, 2, 74, 86
4, 17660, Note_off_c, 2, 66, 0
4, 17660, Note_off_c, 2, 62, 0
4, 17660, Note_off_c, 2, 74, 0
4, 17664, Note_on_c, 2, 79, 86
4, 17664, Note_on_c, 2, 62, 86
4, 17664, Note_on_c, 2, 59, 86
4, 17756, Note_off_c, 2, 79, 0
4, 17760, Note_on_c, 2, 74, 86
4, 17852, Note_off_c, 2, 74, 0
4, 17856, Note_on_c, 2, 76, 86
4, 17948, Note_off_c, 2, 76, 0
4, 17952, Note_on_c, 2, 74, 86
4, 18044, Note_off_c, 2, 62, 0
4, 18044, Note_off_c, 2, 59, 0
4, 18044, Note_off_c, 2, 74, 0
4, 18048, Note_on_c, 2, 79, 86
4, 18140, Note_off_c, 2, 79, 0
4, 18144, Note_on_c, 2, 74, 86
4, 18236, Note_off_c, 2, 74, 0
4, 18240, Note_on_c, 2, 83, 86
4, 18240, Note_on_c, 2, 67, 86
4, 18240, Note_on_c, 2, 55, 86
4, 18332, Note_off_c, 2, 83, 0
4, 18336, Note_on_c, 2, 74, 86
4, 18428, Note_off_c, 2, 67, 0
4, 18428, Note_off_c, 2, 55, 0
4, 18428, Note_off_c, 2, 74, 0
4, 18432, Note_on_c, 2, 81, 86
4, 18524, Note_off_c, 2, 81, 0
4, 18528, Note_on_c, 2, 74, 86
4, 18620, Note_off_c, 2, 74, 0
4, 18624, Note_on_c, 2, 78, 86
4, 18716, Note_off_c, 2, 78, 0
4, 18720, Note_on_c, 2, 81, 86
4, 18812, Note_off_c, 2, 81, 0
4, 18816, Note_on_c, 2, 86, 86
4, 18908, Note_off_c, 2, 86, 0
4, 18912, Note_on_c, 2, 81, 86
4, 19004, Note_off_c, 2, 81, 0
4, 19008, Note_on_c, 2, 78, 86
4, 19100, Note_off_c, 2, 78, 0
4, 19104, Note_on_c, 2, 74, 86
4, 19196, Note_off_c, 2, 74, 0
4, 19200, Note_on_c, 2, 74, 86
4, 19200, Note_on_c, 2, 83, 86
4, 19292, Note_off_c, 2, 74, 0
4, 19292, Note_off_c, 2, 83, 0
4, 19296, Note_on_c, 2, 81, 86
4, 19388, Note_off_c, 2, 81, 0
4, 19392, Note_on_c, 2, 79, 86
4, 19484, Note_off_c, 2, 79, 0
4, 19488, Note_on_c, 2, 78, 86
4, 19580, Note_off_c, 2, 78, 0
4, 19584, Note_on_c, 2, 76, 86
4, 19584, Note_on_c, 2, 71, 86
4, 19676, Note_off_c, 2, 76, 0
4, 19676, Note_off_c, 2, 71, 0
4, 19680, Note_on_c, 2, 74, 86
4, 19772, Note_off_c, 2, 74, 0
4, 19776, Note_on_c, 2, 73, 86
4, 19868, Note_off_c, 2, 73, 0
4, 19872, Note_on_c, 2, 74, 86
4, 19964, Note_off_c, 2, 74, 0
4, 19968, Note_on_c, 2, 73, 86
4, 19968, Note_on_c, 2, 69, 86
4, 19968, Note_on_c, 2, 64, 86
4, 20348, Note_off_c, 2, 73, 0
4, 20348, Note_off_c, 2, 69, 0
4, 20348, Note_off_c, 2, 64, 0
4, 20352, Note_on_c, 2, 79, 86
4, 20352, Note_on_c, 2, 76, 86
4, 20352, Note_on_c, 2, 69, 86
4, 20732, Note_off_c, 2, 79, 0
4, 20732, Note_off_c, 2, 76, 0
4, 20732, Note_off_c, 2, 69, 0
4, 20736, Note_on_c, 2, 78, 86
4, 20736, Note_on_c, 2, 74, 86
4, 20736, Note_on_c, 2, 69, 86
4, 21116, Note_off_c, 2, 78, 0
4, 21116, Note_off_c, 2, 74, 0
4, 21116, Note_off_c, 2, 69, 0
4, 21120, Note_on_c, 2, 86, 86
4, 21120, Note_on_c, 2, 78, 86
4, 21120, Note_on_c, 2, 74, 86
4, 21500, Note_off_c, 2, 86, 0
4, 21500, Note_off_c, 2, 78, 0
4, 21500, Note_off_c, 2, 74, 0
4, 21504, Note_on_c, 2, 85, 86
4, 21504, Note_on_c, 2, 81, 86
4, 21504, Note_on_c, 2, 76, 86
4, 21884, Note_off_c, 2, 85, 0
4, 21884, Note_off_c, 2, 81, 0
4, 21884, Note_off_c, 2, 76, 0
4, 21888, Note_on_c, 2, 79, 86
4, 21888, Note_on_c, 2, 76, 86
4, 21888, Note_on_c, 2, 69, 86
4, 22268, Note_off_c, 2, 79, 0
4, 22268, Note_off_c, 2, 76, 0
4, 22268, Note_off_c, 2, 69, 0
4, 22272, Note_on_c, 2, 78, 86
4, 22272, Note_on_c, 2, 74, 86
4, 22272, Note_on_c, 2, 69, 86
4, 22652, Note_off_c, 2, 78, 0
4, 22652, Note_off_c, 2, 74, 0
4, 22652, Note_off_c, 2, 69, 0
4, 22656, Note_on_c, 2, 86, 86
4, 22656, Note_on_c, 2, 78, 86
4, 22656, Note_on_c, 2, 74, 86
4, 23036, Note_off_c, 2, 86, 0
4, 23036, Note_off_c, 2, 78, 0
4, 23036, Note_off_c, 2, 74, 0
4, 23040, Note_on_c, 2, 85, 86
4, 23040, Note_on_c, 2, 81, 86
4, 23040, Note_on_c, 2, 76, 86
4, 23420, Note_off_c, 2, 85, 0
4, 23420, Note_off_c, 2, 81, 0
4, 23420, Note_off_c, 2, 76, 0
4, 23424, Note_on_c, 2, 57, 86
4, 23708, Note_off_c, 2, 57, 0
4, 23712, Note_on_c, 2, 57, 86
4, 23784, Note_off_c, 2, 57, 0
4, 23808, Note_on_c, 2, 57, 86
4, 24188, Note_off_c, 2, 57, 0
4, 27072, Note_on_c, 2, 66, 59
4, 27260, Note_off_c, 2, 66, 0
4, 27264, Note_on_c, 2, 67, 59
4, 27452, Note_off_c, 2, 67, 0
4, 27456, Note_on_c, 2, 69, 59
4, 27644, Note_off_c, 2, 69, 0
4, 27648, Note_on_c, 2, 67, 59
4, 27740, Note_off_c, 2, 67, 0
4, 27744, Note_on_c, 2, 66, 59
4, 27836, Note_off_c, 2, 66, 0
4, 27840, Note_on_c, 2, 64, 59
4, 27932, Note_off_c, 2, 64, 0
4, 27936, Note_on_c, 2, 62, 59
4, 28028, Note_off_c, 2, 62, 0
4, 28032, Note_on_c, 2, 61, 59
4, 28412, Note_off_c, 2, 61, 0
4, 28608, Note_on_c, 2, 73, 59
4, 28700, Note_off_c, 2, 73, 0
4, 28800, Note_on_c, 2, 74, 59
4, 28892, Note_off_c, 2, 74, 0
4, 28992, Note_on_c, 2, 76, 59
4, 29084, Note_off_c, 2, 76, 0
4, 29184, Note_on_c, 2, 74, 59
4, 29184, Note_on_c, 2, 81, 59
4, 29276, Note_off_c, 2, 74, 0
4, 29280, Note_on_c, 2, 76, 59
4, 29372, Note_off_c, 2, 76, 0
4, 29376, Note_on_c, 2, 78, 59
4, 29468, Note_off_c, 2, 78, 0
4, 29472, Note_on_c, 2, 74, 59
4, 29564, Note_off_c, 2, 74, 0
4, 29568, Note_on_c, 2, 69, 59
4, 29948, Note_off_c, 2, 81, 0
4, 29948, Note_off_c, 2, 69, 0
4, 30144, Note_on_c, 2, 78, 59
4, 30236, Note_off_c, 2, 78, 0
4, 30336, Note_on_c, 2, 79, 59
4, 30428, Note_off_c, 2, 79, 0
4, 30528, Note_on_c, 2, 81, 59
4, 30620, Note_off_c, 2, 81, 0
4, 30720, Note_on_c, 2, 79, 59
4, 30812, Note_off_c, 2, 79, 0
4, 30816, Note_on_c, 2, 78, 59
4, 30908, Note_off_c, 2, 78, 0
4, 30912, Note_on_c, 2, 76, 59
4, 31004, Note_off_c, 2, 76, 0
4, 31008, Note_on_c, 2, 74, 59
4, 31100, Note_off_c, 2, 74, 0
4, 31104, Note_on_c, 2, 73, 59
4, 31484, Note_off_c, 2, 73, 0
4, 31680, Note_on_c, 2, 85, 59
4, 31772, Note_off_c, 2, 85, 0
4, 31872, Note_on_c, 2, 86, 59
4, 31964, Note_off_c, 2, 86, 0
4, 32064, Note_on_c, 2, 88, 59
4, 32156, Note_off_c, 2, 88, 0
4, 32256, Note_on_c, 2, 86, 86
4, 32256, Note_on_c, 2, 81, 86
4, 32444, Note_off_c, 2, 86, 0
4, 32444, Note_off_c, 2, 81, 0
4, 32448, Note_on_c, 2, 74, 86
4, 32636, Note_off_c, 2, 74, 0
4, 32640, Note_on_c, 2, 86, 86
4, 32640, Note_on_c, 2, 81, 86
4, 32732, Note_off_c, 2, 86, 0
4, 32732, Note_off_c, 2, 81, 0
4, 32832, Note_on_c, 2, 86, 86
4, 32832, Note_on_c, 2, 81, 86
4, 32924, Note_off_c, 2, 86, 0
4, 32924, Note_off_c, 2, 81, 0
4, 33024, Note_on_c, 2, 86, 86
4, 33024, Note_on_c, 2, 81, 86
4, 33024, Note_on_c, 2, 74, 86
4, 33212, Note_off_c, 2, 86, 0
4, 33212, Note_off_c, 2, 81, 0
4, 33216, Note_on_c, 2, 84, 86
4, 33404, Note_off_c, 2, 74, 0
4, 33404, Note_off_c, 2, 84, 0
4, 33408, Note_on_c, 2, 84, 86
4, 33408, Note_on_c, 2, 81, 86
4, 33408, Note_on_c, 2, 74, 86
4, 33500, Note_off_c, 2, 84, 0
4, 33500, Note_off_c, 2, 81, 0
4, 33500, Note_off_c, 2, 74, 0
4, 33600, Note_on_c, 2, 84, 86
4, 33600, Note_on_c, 2, 81, 86
4, 33600, Note_on_c, 2, 74, 86
4, 33692, Note_off_c, 2, 84, 0
4, 33692, Note_off_c, 2, 81, 0
4, 33692, Note_off_c, 2, 74, 0
4, 33792, Note_on_c, 2, 81, 86
4, 33792, Note_on_c, 2, 84, 86
4, 33792, Note_on_c, 2, 74, 86
4, 33980, Note_off_c, 2, 81, 0
4, 33980, Note_off_c, 2, 84, 0
4, 33984, Note_on_c, 2, 79, 86
4, 33984, Note_on_c, 2, 83, 86
4, 34172, Note_off_c, 2, 74, 0
4, 34172, Note_off_c, 2, 79, 0
4, 34172, Note_off_c, 2, 83, 0
4, 34176, Note_on_c, 2, 79, 86
4, 34176, Note_on_c, 2, 83, 86
4, 34176, Note_on_c, 2, 74, 86
4, 34268, Note_off_c, 2, 79, 0
4, 34268, Note_off_c, 2, 83, 0
4, 34268, Note_off_c, 2, 74, 0
4, 34368, Note_on_c, 2, 79, 86
4, 34368, Note_on_c, 2, 83, 86
4, 34368, Note_on_c, 2, 74, 86
4, 34460, Note_off_c, 2, 79, 0
4, 34460, Note_off_c, 2, 83, 0
4, 34460, Note_off_c, 2, 74, 0
4, 34560, Note_on_c, 2, 74, 86
4, 34560, Note_on_c, 2, 79, 86
4, 34560, Note_on_c, 2, 83, 86
4, 35132, Note_off_c, 2, 74, 0
4, 35132, Note_off_c, 2, 79, 0
4, 35132, Note_off_c, 2, 83, 0
4, 35136, Note_on_c, 2, 79, 86
4, 35136, Note_on_c, 2, 83, 86
4, 35136, Note_on_c, 2, 74, 86
4, 35324, Note_off_c, 2, 79, 0
4, 35324, Note_off_c, 2, 83, 0
4, 35324, Note_off_c, 2, 74, 0
4, 35328, Note_on_c, 2, 79, 90
4, 35328, Note_on_c, 2, 83, 90
4, 35420, Note_off_c, 2, 79, 0
4, 35420, Note_off_c, 2, 83, 0
4, 35424, Note_on_c, 2, 78, 82
4, 35424, Note_on_c, 2, 81, 82
4, 35700, Note_off_c, 2, 78, 0
4, 35700, Note_off_c, 2, 81, 0
4, 35712, Note_on_c, 2, 79, 90
4, 35712, Note_on_c, 2, 76, 89
4, 35804, Note_off_c, 2, 79, 0
4, 35804, Note_off_c, 2, 76, 0
4, 35808, Note_on_c, 2, 78, 82
4, 35808, Note_on_c, 2, 74, 82
4, 36084, Note_off_c, 2, 78, 0
4, 36084, Note_off_c, 2, 74, 0
4, 36096, Note_on_c, 2, 78, 90
4, 36096, Note_on_c, 2, 81, 90
4, 36188, Note_off_c, 2, 78, 0
4, 36188, Note_off_c, 2, 81, 0
4, 36192, Note_on_c, 2, 79, 82
4, 36192, Note_on_c, 2, 76, 82
4, 36468, Note_off_c, 2, 79, 0
4, 36468, Note_off_c, 2, 76, 0
4, 36480, Note_on_c, 2, 78, 90
4, 36480, Note_on_c, 2, 74, 90
4, 36572, Note_off_c, 2, 78, 0
4, 36572, Note_off_c, 2, 74, 0
4, 36576, Note_on_c, 2, 76, 82
4, 36576, Note_on_c, 2, 73, 82
4, 36852, Note_off_c, 2, 76, 0
4, 36852, Note_off_c, 2, 73, 0
4, 36864, Note_on_c, 2, 74, 59
4, 37052, Note_off_c, 2, 74, 0
4, 37056, Note_on_c, 2, 62, 59
4, 37244, Note_off_c, 2, 62, 0
4, 37248, Note_on_c, 2, 74, 59
4, 37248, Note_on_c, 2, 62, 59
4, 37436, Note_off_c, 2, 74, 0
4, 37436, Note_off_c, 2, 62, 0
4, 37440, Note_on_c, 2, 74, 59
4, 37440, Note_on_c, 2, 62, 59
4, 37628, Note_off_c, 2, 74, 0
4, 37628, Note_off_c, 2, 62, 0
4, 37632, Note_on_c, 2, 74, 59
4, 37632, Note_on_c, 2, 62, 59
4, 37820, Note_off_c, 2, 74, 0
4, 37820, Note_off_c, 2, 62, 0
4, 37824, Note_on_c, 2, 72, 59
4, 37824, Note_on_c, 2, 69, 59
4, 38012, Note_off_c, 2, 72, 0
4, 38012, Note_off_c, 2, 69, 0
4, 38016, Note_on_c, 2, 72, 59
4, 38016, Note_on_c, 2, 69, 59
4, 38108, Note_off_c, 2, 72, 0
4, 38108, Note_off_c, 2, 69, 0
4, 38208, Note_on_c, 2, 72, 59
4, 38208, Note_on_c, 2, 69, 59
4, 38300, Note_off_c, 2, 72, 0
4, 38300, Note_off_c, 2, 69, 0
4, 38400, Note_on_c, 2, 72, 59
4, 38400, Note_on_c, 2, 69, 59
4, 38588, Note_off_c, 2, 72, 0
4, 38588, Note_off_c, 2, 69, 0
4, 38592, Note_on_c, 2, 71, 59
4, 38592, Note_on_c, 2, 67, 59
4, 38780, Note_off_c, 2, 71, 0
4, 38780, Note_off_c, 2, 67, 0
4, 38784, Note_on_c, 2, 71, 59
4, 38784, Note_on_c, 2, 67, 59
4, 38876, Note_off_c, 2, 71, 0
4, 38876, Note_off_c, 2, 67, 0
4, 38976, Note_on_c, 2, 71, 59
4, 38976, Note_on_c, 2, 67, 59
4, 39068, Note_off_c, 2, 71, 0
4, 39068, Note_off_c, 2, 67, 0
4, 39168, Note_on_c, 2, 71, 59
4, 39168, Note_on_c, 2, 67, 59
4, 39932, Note_off_c, 2, 71, 0
4, 39932, Note_off_c, 2, 67, 0
4, 40128, Note_on_c, 2, 59, 86
4, 40316, Note_off_c, 2, 59, 0
4, 40320, Note_on_c, 2, 62, 86
4, 40508, Note_off_c, 2, 62, 0
4, 40512, Note_on_c, 2, 67, 86
4, 40700, Note_off_c, 2, 67, 0
4, 40704, Note_on_c, 2, 71, 86
4, 40892, Note_off_c, 2, 71, 0
4, 40896, Note_on_c, 2, 74, 86
4, 41084, Note_off_c, 2, 74, 0
4, 41088, Note_on_c, 2, 79, 86
4, 41276, Note_off_c, 2, 79, 0
4, 41280, Note_on_c, 2, 83, 86
4, 41280, Note_on_c, 2, 74, 86
4, 41468, Note_off_c, 2, 83, 0
4, 41468, Note_off_c, 2, 74, 0
4, 41472, Note_on_c, 2, 86, 86
4, 41472, Note_on_c, 2, 83, 86
4, 41472, Note_on_c, 2, 77, 86
4, 41472, Note_on_c, 2, 74, 86
4, 41852, Note_off_c, 2, 86, 0
4, 41852, Note_off_c, 2, 83, 0
4, 41852, Note_off_c, 2, 77, 0
4, 41852, Note_off_c, 2, 74, 0
4, 41856, Note_on_c, 2, 86, 86
4, 41856, Note_on_c, 2, 83, 86
4, 41856, Note_on_c, 2, 77, 86
4, 41856, Note_on_c, 2, 74, 86
4, 42140, Note_off_c, 2, 86, 0
4, 42140, Note_off_c, 2, 83, 0
4, 42140, Note_off_c, 2, 77, 0
4, 42140, Note_off_c, 2, 74, 0
4, 42144, Note_on_c, 2, 86, 86
4, 42144, Note_on_c, 2, 83, 86
4, 42144, Note_on_c, 2, 77, 86
4, 42144, Note_on_c, 2, 74, 86
4, 42216, Note_off_c, 2, 86, 0
4, 42216, Note_off_c, 2, 83, 0
4, 42216, Note_off_c, 2, 77, 0
4, 42216, Note_off_c, 2, 74, 0
4, 42240, Note_on_c, 2, 86, 86
4, 42240, Note_on_c, 2, 83, 86
4, 42240, Note_on_c, 2, 77, 86
4, 42240, Note_on_c, 2, 74, 86
4, 42620, Note_off_c, 2, 86, 0
4, 42620, Note_off_c, 2, 83, 0
4, 42620, Note_off_c, 2, 77, 0
4, 42620, Note_off_c, 2, 74, 0
4, 42624, Note_on_c, 2, 86, 86
4, 42624, Note_on_c, 2, 83, 86
4, 42624, Note_on_c, 2, 77, 86
4, 42624, Note_on_c, 2, 74, 86
4, 43004, Note_off_c, 2, 86, 0
4, 43004, Note_off_c, 2, 83, 0
4, 43004, Note_off_c, 2, 77, 0
4, 43004, Note_off_c, 2, 74, 0
4, 43008, Note_on_c, 2, 86, 86
4, 43008, Note_on_c, 2, 81, 86
4, 43008, Note_on_c, 2, 78, 86
4, 43008, Note_on_c, 2, 74, 86
4, 43100, Note_off_c, 2, 86, 0
4, 43100, Note_off_c, 2, 81, 0
4, 43100, Note_off_c, 2, 78, 0
4, 43100, Note_off_c, 2, 74, 0
4, 43104, Note_on_c, 2, 81, 86
4, 43196, Note_off_c, 2, 81, 0
4, 43200, Note_on_c, 2, 78, 86
4, 43292, Note_off_c, 2, 78, 0
4, 43296, Note_on_c, 2, 74, 86
4, 43388, Note_off_c, 2, 74, 0
4, 43392, Note_on_c, 2, 81, 86
4, 43484, Note_off_c, 2, 81, 0
4, 43488, Note_on_c, 2, 78, 86
4, 43580, Note_off_c, 2, 78, 0
4, 43584, Note_on_c, 2, 74, 86
4, 43676, Note_off_c, 2, 74, 0
4, 43680, Note_on_c, 2, 69, 86
4, 43772, Note_off_c, 2, 69, 0
4, 43776, Note_on_c, 2, 78, 86
4, 43868, Note_off_c, 2, 78, 0
4, 43872, Note_on_c, 2, 74, 86
4, 43964, Note_off_c, 2, 74, 0
4, 43968, Note_on_c, 2, 69, 86
4, 44060, Note_off_c, 2, 69, 0
4, 44064, Note_on_c, 2, 66, 86
4, 44156, Note_off_c, 2, 66, 0
4, 44160, Note_on_c, 2, 74, 86
4, 44252, Note_off_c, 2, 74, 0
4, 44256, Note_on_c, 2, 69, 86
4, 44348, Note_off_c, 2, 69, 0
4, 44352, Note_on_c, 2, 66, 86
4, 44444, Note_off_c, 2, 66, 0
4, 44448, Note_on_c, 2, 62, 86
4, 44540, Note_off_c, 2, 62, 0
4, 44544, Note_on_c, 2, 57, 86
4, 44544, Note_on_c, 2, 69, 86
4, 44732, Note_off_c, 2, 57, 0
4, 44732, Note_off_c, 2, 69, 0
4, 44736, Note_on_c, 2, 78, 86
4, 44736, Note_on_c, 2, 74, 86
4, 44828, Note_off_c, 2, 78, 0
4, 44828, Note_off_c, 2, 74, 0
4, 44832, Note_on_c, 2, 69, 86
4, 44924, Note_off_c, 2, 69, 0
4, 44928, Note_on_c, 2, 78, 86
4, 44928, Note_on_c, 2, 74, 86
4, 45020, Note_off_c, 2, 78, 0
4, 45020, Note_off_c, 2, 74, 0
4, 45024, Note_on_c, 2, 69, 86
4, 45116, Note_off_c, 2, 69, 0
4, 45120, Note_on_c, 2, 78, 86
4, 45120, Note_on_c, 2, 74, 86
4, 45212, Note_off_c, 2, 78, 0
4, 45212, Note_off_c, 2, 74, 0
4, 45216, Note_on_c, 2, 69, 86
4, 45308, Note_off_c, 2, 69, 0
4, 45312, Note_on_c, 2, 76, 86
4, 45312, Note_on_c, 2, 73, 86
4, 45404, Note_off_c, 2, 76, 0
4, 45404, Note_off_c, 2, 73, 0
4, 45408, Note_on_c, 2, 67, 86
4, 45500, Note_off_c, 2, 67, 0
4, 45504, Note_on_c, 2, 76, 86
4, 45504, Note_on_c, 2, 73, 86
4, 45596, Note_off_c, 2, 76, 0
4, 45596, Note_off_c, 2, 73, 0
4, 45600, Note_on_c, 2, 67, 86
4, 45692, Note_off_c, 2, 67, 0
4, 45696, Note_on_c, 2, 76, 86
4, 45696, Note_on_c, 2, 73, 86
4, 45788, Note_off_c, 2, 76, 0
4, 45788, Note_off_c, 2, 73, 0
4, 45792, Note_on_c, 2, 67, 86
4, 45884, Note_off_c, 2, 67, 0
4, 45888, Note_on_c, 2, 76, 86
4, 45888, Note_on_c, 2, 73, 86
4, 45980, Note_off_c, 2, 76, 0
4, 45980, Note_off_c, 2, 73, 0
4, 45984, Note_on_c, 2, 67, 86
4, 46076, Note_off_c, 2, 67, 0
4, 46080, Note_on_c, 2, 74, 86
4, 46080, Note_on_c, 2, 66, 86
4, 46268, Note_off_c, 2, 74, 0
4, 46268, Note_off_c, 2, 66, 0
4, 46272, Note_on_c, 2, 78, 87
4, 46364, Note_off_c, 2, 78, 0
4, 46368, Note_on_c, 2, 74, 84
4, 46460, Note_off_c, 2, 74, 0
4, 46480, Note_on_c, 2, 69, 86
4, 47040, Note_on_c, 2, 74, 87
4, 47052, Note_off_c, 2, 69, 0
4, 47132, Note_off_c, 2, 74, 0
4, 47136, Note_on_c, 2, 69, 84
4, 47228, Note_off_c, 2, 69, 0
4, 47232, Note_on_c, 2, 66, 86
4, 47804, Note_off_c, 2, 66, 0
4, 47808, Note_on_c, 2, 69, 87
4, 47900, Note_off_c, 2, 69, 0
4, 47904, Note_on_c, 2, 66, 84
4, 47996, Note_off_c, 2, 66, 0
4, 48032, Note_on_c, 2, 62, 86
4, 48576, Note_on_c, 2, 66, 86
4, 48604, Note_off_c, 2, 62, 0
4, 48764, Note_off_c, 2, 66, 0
4, 48768, Note_on_c, 2, 62, 86
4, 48956, Note_off_c, 2, 62, 0
4, 48960, Note_on_c, 2, 66, 86
4, 49148, Note_off_c, 2, 66, 0
4, 49152, Note_on_c, 2, 62, 86
4, 49532, Note_off_c, 2, 62, 0
4, 49536, Note_on_c, 2, 81, 86
4, 49536, Note_on_c, 2, 78, 86
4, 49536, Note_on_c, 2, 74, 86
4, 49536, Note_on_c, 2, 69, 86
4, 49916, Note_off_c, 2, 81, 0
4, 49916, Note_off_c, 2, 78, 0
4, 49916, Note_off_c, 2, 74, 0
4, 49916, Note_off_c, 2, 69, 0
4, 49920, Note_on_c, 2, 86, 86
4, 49920, Note_on_c, 2, 78, 86
4, 49920, Note_on_c, 2, 74, 86
4, 49936, Note_on_c, 2, 81, 86
4, 50300, Note_off_c, 2, 86, 0
4, 50300, Note_off_c, 2, 78, 0
4, 50300, Note_off_c, 2, 74, 0
4, 50316, Note_off_c, 2, 81, 0
4, 50688, Note_on_c, 2, 66, 75
4, 51260, Note_off_c, 2, 66, 0
4, 51264, Note_on_c, 2, 69, 75
4, 51452, Note_off_c, 2, 69, 0
4, 51456, Note_on_c, 2, 69, 75
4, 51548, Note_off_c, 2, 69, 0
4, 51648, Note_on_c, 2, 69, 75
4, 51740, Note_off_c, 2, 69, 0
4, 51840, Note_on_c, 2, 69, 75
4, 51932, Note_off_c, 2, 69, 0
4, 52032, Note_on_c, 2, 69, 75
4, 52124, Note_off_c, 2, 69, 0
4, 52224, Note_on_c, 2, 69, 75
4, 52796, Note_off_c, 2, 69, 0
4, 52800, Note_on_c, 2, 69, 75
4, 52988, Note_off_c, 2, 69, 0
4, 52992, Note_on_c, 2, 69, 75
4, 53084, Note_off_c, 2, 69, 0
4, 53184, Note_on_c, 2, 69, 75
4, 53276, Note_off_c, 2, 69, 0
4, 53376, Note_on_c, 2, 69, 75
4, 53468, Note_off_c, 2, 69, 0
4, 53568, Note_on_c, 2, 69, 75
4, 53660, Note_off_c, 2, 69, 0
4, 53760, Note_on_c, 2, 69, 75
4, 54332, Note_off_c, 2, 69, 0
4, 54336, Note_on_c, 2, 74, 75
4, 54336, Note_on_c, 2, 69, 75
4, 54524, Note_off_c, 2, 74, 0
4, 54524, Note_off_c, 2, 69, 0
4, 54528, Note_on_c, 2, 74, 75
4, 54528, Note_on_c, 2, 71, 75
4, 54620, Note_off_c, 2, 74, 0
4, 54620, Note_off_c, 2, 71, 0
4, 54720, Note_on_c, 2, 74, 75
4, 54720, Note_on_c, 2, 69, 75
4, 54812, Note_off_c, 2, 74, 0
4, 54812, Note_off_c, 2, 69, 0
4, 54912, Note_on_c, 2, 74, 75
4, 54912, Note_on_c, 2, 71, 75
4, 55004, Note_off_c, 2, 74, 0
4, 55004, Note_off_c, 2, 71, 0
4, 55104, Note_on_c, 2, 79, 75
4, 55104, Note_on_c, 2, 73, 75
4, 55196, Note_off_c, 2, 79, 0
4, 55196, Note_off_c, 2, 73, 0
4, 55296, Note_on_c, 2, 78, 75
4, 55296, Note_on_c, 2, 74, 75
4, 55484, Note_off_c, 2, 78, 0
4, 55484, Note_off_c, 2, 74, 0
4, 55488, Note_on_c, 2, 69, 75
4, 55488, Note_on_c, 2, 66, 75
4, 55676, Note_off_c, 2, 69, 0
4, 55676, Note_off_c, 2, 66, 0
4, 55680, Note_on_c, 2, 69, 75
4, 55680, Note_on_c, 2, 66, 75
4, 55868, Note_off_c, 2, 69, 0
4, 55868, Note_off_c, 2, 66, 0
4, 55872, Note_on_c, 2, 69, 75
4, 55872, Note_on_c, 2, 66, 75
4, 56060, Note_off_c, 2, 69, 0
4, 56060, Note_off_c, 2, 66, 0
4, 56064, Note_on_c, 2, 66, 75
4, 56080, Note_on_c, 2, 69, 75
4, 56348, Note_off_c, 2, 66, 0
4, 56352, Note_on_c, 2, 66, 75
4, 56352, Note_on_c, 2, 62, 75
4, 56364, Note_off_c, 2, 69, 0
4, 56444, Note_off_c, 2, 66, 0
4, 56444, Note_off_c, 2, 62, 0
4, 56448, Note_on_c, 2, 69, 75
4, 56448, Note_on_c, 2, 66, 75
4, 56828, Note_off_c, 2, 69, 0
4, 56828, Note_off_c, 2, 66, 0
4, 57024, Note_on_c, 2, 71, 75
4, 57024, Note_on_c, 2, 67, 75
4, 57212, Note_off_c, 2, 71, 0
4, 57212, Note_off_c, 2, 67, 0
4, 57216, Note_on_c, 2, 71, 75
4, 57216, Note_on_c, 2, 67, 75
4, 57404, Note_off_c, 2, 71, 0
4, 57404, Note_off_c, 2, 67, 0
4, 57408, Note_on_c, 2, 71, 75
4, 57408, Note_on_c, 2, 67, 75
4, 57596, Note_off_c, 2, 71, 0
4, 57596, Note_off_c, 2, 67, 0
4, 57600, Note_on_c, 2, 67, 75
4, 57616, Note_on_c, 2, 71, 75
4, 57884, Note_off_c, 2, 67, 0
4, 57888, Note_on_c, 2, 67, 75
4, 57888, Note_on_c, 2, 62, 75
4, 57900, Note_off_c, 2, 71, 0
4, 57980, Note_off_c, 2, 67, 0
4, 57980, Note_off_c, 2, 62, 0
4, 57984, Note_on_c, 2, 71, 75
4, 57984, Note_on_c, 2, 67, 75
4, 58364, Note_off_c, 2, 71, 0
4, 58364, Note_off_c, 2, 67, 0
4, 58560, Note_on_c, 2, 69, 75
4, 58576, Note_on_c, 2, 66, 75
4, 58748, Note_off_c, 2, 69, 0
4, 58752, Note_on_c, 2, 69, 75
4, 58752, Note_on_c, 2, 66, 75
4, 58764, Note_off_c, 2, 66, 0
4, 58940, Note_off_c, 2, 69, 0
4, 58940, Note_off_c, 2, 66, 0
4, 58944, Note_on_c, 2, 69, 75
4, 58944, Note_on_c, 2, 66, 75
4, 59132, Note_off_c, 2, 69, 0
4, 59132, Note_off_c, 2, 66, 0
4, 59136, Note_on_c, 2, 66, 75
4, 59152, Note_on_c, 2, 69, 75
4, 59420, Note_off_c, 2, 66, 0
4, 59424, Note_on_c, 2, 66, 75
4, 59424, Note_on_c, 2, 62, 75
4, 59436, Note_off_c, 2, 69, 0
4, 59516, Note_off_c, 2, 66, 0
4, 59516, Note_off_c, 2, 62, 0
4, 59520, Note_on_c, 2, 74, 75
4, 59520, Note_on_c, 2, 66, 75
4, 59900, Note_off_c, 2, 74, 0
4, 59900, Note_off_c, 2, 66, 0
4, 59904, Note_on_c, 2, 73, 75
4, 59904, Note_on_c, 2, 67, 75
4, 60284, Note_off_c, 2, 73, 0
4, 60284, Note_off_c, 2, 67, 0
4, 61056, Note_on_c, 2, 67, 75
4, 61056, Note_on_c, 2, 64, 75
4, 61056, Note_on_c, 2, 69, 75
4, 61436, Note_off_c, 2, 67, 0
4, 61436, Note_off_c, 2, 64, 0
4, 61440, Note_on_c, 2, 66, 75
4, 61440, Note_on_c, 2, 62, 75
4, 61820, Note_off_c, 2, 69, 0
4, 61820, Note_off_c, 2, 66, 0
4, 61820, Note_off_c, 2, 62, 0
4, 62592, Note_on_c, 2, 69, 75
4, 62592, Note_on_c, 2, 62, 75
4, 62972, Note_off_c, 2, 69, 0
4, 62972, Note_off_c, 2, 62, 0
4, 62976, Note_on_c, 2, 71, 75
4, 63356, Note_off_c, 2, 71, 0
4, 63552, Note_on_c, 2, 59, 75
4, 63740, Note_off_c, 2, 59, 0
4, 63744, Note_on_c, 2, 57, 75
4, 64124, Note_off_c, 2, 57, 0
4, 64512, Note_on_c, 2, 74, 75
4, 64604, Note_off_c, 2, 74, 0
4, 64608, Note_on_c, 2, 73, 75
4, 64700, Note_off_c, 2, 73, 0
4, 64704, Note_on_c, 2, 71, 75
4, 64796, Note_off_c, 2, 71, 0
4, 64800, Note_on_c, 2, 69, 75
4, 64892, Note_off_c, 2, 69, 0
4, 64896, Note_on_c, 2, 74, 75
4, 64988, Note_off_c, 2, 74, 0
4, 64992, Note_on_c, 2, 73, 75
4, 65084, Note_off_c, 2, 73, 0
4, 65088, Note_on_c, 2, 71, 75
4, 65180, Note_off_c, 2, 71, 0
4, 65184, Note_on_c, 2, 69, 75
4, 65276, Note_off_c, 2, 69, 0
4, 65280, Note_on_c, 2, 74, 75
4, 65468, Note_off_c, 2, 74, 0
4, 65472, Note_on_c, 2, 69, 75
4, 65660, Note_off_c, 2, 69, 0
4, 65664, Note_on_c, 2, 66, 75
4, 65852, Note_off_c, 2, 66, 0
4, 65856, Note_on_c, 2, 62, 75
4, 66044, Note_off_c, 2, 62, 0
4, 66048, Note_on_c, 2, 71, 59
4, 66048, Note_on_c, 2, 59, 59
4, 66428, Note_off_c, 2, 71, 0
4, 66428, Note_off_c, 2, 59, 0
4, 66432, Note_on_c, 2, 71, 59
4, 66432, Note_on_c, 2, 64, 59
4, 66812, Note_off_c, 2, 71, 0
4, 66812, Note_off_c, 2, 64, 0
4, 66816, Note_on_c, 2, 64, 59
4, 66816, Note_on_c, 2, 61, 59
4, 67196, Note_off_c, 2, 64, 0
4, 67196, Note_off_c, 2, 61, 0
4, 67200, Note_on_c, 2, 67, 59
4, 67200, Note_on_c, 2, 64, 59
4, 67200, Note_on_c, 2, 69, 59
4, 67580, Note_off_c, 2, 67, 0
4, 67580, Note_off_c, 2, 64, 0
4, 67580, Note_off_c, 2, 69, 0
4, 67584, Note_on_c, 2, 69, 59
4, 67584, Note_on_c, 2, 66, 59
4, 67584, Note_on_c, 2, 62, 59
4, 67964, Note_off_c, 2, 69, 0
4, 67964, Note_off_c, 2, 66, 0
4, 67964, Note_off_c, 2, 62, 0
4, 67968, Note_on_c, 2, 73, 59
4, 67968, Note_on_c, 2, 67, 59
4, 67968, Note_on_c, 2, 64, 59
4, 68348, Note_off_c, 2, 73, 0
4, 68348, Note_off_c, 2, 67, 0
4, 68348, Note_off_c, 2, 64, 0
4, 68352, Note_on_c, 2, 74, 64
4, 68352, Note_on_c, 2, 69, 64
4, 68352, Note_on_c, 2, 62, 64
4, 68732, Note_off_c, 2, 74, 0
4, 68732, Note_off_c, 2, 69, 0
4, 68732, Note_off_c, 2, 62, 0
4, 69120, Note_on_c, 2, 71, 59
4, 69120, Note_on_c, 2, 67, 59
4, 69120, Note_on_c, 2, 64, 59
4, 69692, Note_off_c, 2, 71, 0
4, 69692, Note_off_c, 2, 67, 0
4, 69692, Note_off_c, 2, 64, 0
4, 69696, Note_on_c, 2, 79, 59
4, 69696, Note_on_c, 2, 76, 59
4, 69696, Note_on_c, 2, 71, 59
4, 69884, Note_off_c, 2, 79, 0
4, 69884, Note_off_c, 2, 76, 0
4, 69884, Note_off_c, 2, 71, 0
4, 69888, Note_on_c, 2, 78, 59
4, 69888, Note_on_c, 2, 74, 59
4, 69888, Note_on_c, 2, 69, 59
4, 70268, Note_off_c, 2, 78, 0
4, 70268, Note_off_c, 2, 74, 0
4, 70268, Note_off_c, 2, 69, 0
4, 70272, Note_on_c, 2, 76, 59
4, 70272, Note_on_c, 2, 73, 59
4, 70272, Note_on_c, 2, 67, 59
4, 70652, Note_off_c, 2, 76, 0
4, 70652, Note_off_c, 2, 73, 0
4, 70652, Note_off_c, 2, 67, 0
4, 70656, Note_on_c, 2, 74, 86
4, 70656, Note_on_c, 2, 66, 86
4, 70748, Note_off_c, 2, 66, 0
4, 70752, Note_on_c, 2, 69, 86
4, 70844, Note_off_c, 2, 69, 0
4, 70848, Note_on_c, 2, 66, 86
4, 70940, Note_off_c, 2, 66, 0
4, 70944, Note_on_c, 2, 69, 86
4, 71036, Note_off_c, 2, 69, 0
4, 71040, Note_on_c, 2, 66, 86
4, 71228, Note_off_c, 2, 74, 0
4, 71228, Note_off_c, 2, 66, 0
4, 71232, Note_on_c, 2, 69, 86
4, 71232, Note_on_c, 2, 76, 86
4, 71272, Note_off_c, 2, 76, 0
4, 71280, Note_on_c, 2, 74, 86
4, 71320, Note_off_c, 2, 74, 0
4, 71328, Note_on_c, 2, 73, 86
4, 71368, Note_off_c, 2, 73, 0
4, 71376, Note_on_c, 2, 74, 86
4, 71416, Note_off_c, 2, 74, 0
4, 71420, Note_off_c, 2, 69, 0
4, 71424, Note_on_c, 2, 76, 86
4, 71424, Note_on_c, 2, 69, 86
4, 71516, Note_off_c, 2, 76, 0
4, 71516, Note_off_c, 2, 69, 0
4, 71616, Note_on_c, 2, 74, 86
4, 71616, Note_on_c, 2, 69, 86
4, 71708, Note_off_c, 2, 74, 0
4, 71708, Note_off_c, 2, 69, 0
4, 71808, Note_on_c, 2, 76, 86
4, 71808, Note_on_c, 2, 69, 86
4, 71900, Note_off_c, 2, 76, 0
4, 71900, Note_off_c, 2, 69, 0
4, 72000, Note_on_c, 2, 73, 86
4, 72000, Note_on_c, 2, 69, 86
4, 72092, Note_off_c, 2, 73, 0
4, 72092, Note_off_c, 2, 69, 0
4, 72192, Note_on_c, 2, 74, 86
4, 72192, Note_on_c, 2, 74, 86
4, 72284, Note_off_c, 2, 74, 0
4, 72288, Note_on_c, 2, 69, 86
4, 72380, Note_off_c, 2, 69, 0
4, 72384, Note_on_c, 2, 66, 86
4, 72476, Note_off_c, 2, 66, 0
4, 72480, Note_on_c, 2, 69, 86
4, 72572, Note_off_c, 2, 69, 0
4, 72576, Note_on_c, 2, 62, 86
4, 72764, Note_off_c, 2, 74, 0
4, 72764, Note_off_c, 2, 62, 0
4, 72768, Note_on_c, 2, 69, 86
4, 72768, Note_on_c, 2, 79, 86
4, 72808, Note_off_c, 2, 79, 0
4, 72816, Note_on_c, 2, 78, 86
4, 72856, Note_off_c, 2, 78, 0
4, 72864, Note_on_c, 2, 76, 86
4, 72904, Note_off_c, 2, 76, 0
4, 72912, Note_on_c, 2, 78, 86
4, 72952, Note_off_c, 2, 78, 0
4, 72956, Note_off_c, 2, 69, 0
4, 72960, Note_on_c, 2, 79, 86
4, 72960, Note_on_c, 2, 69, 86
4, 73052, Note_off_c, 2, 79, 0
4, 73052, Note_off_c, 2, 69, 0
4, 73152, Note_on_c, 2, 78, 86
4, 73152, Note_on_c, 2, 69, 86
4, 73244, Note_off_c, 2, 78, 0
4, 73244, Note_off_c, 2, 69, 0
4, 73344, Note_on_c, 2, 79, 86
4, 73344, Note_on_c, 2, 69, 86
4, 73436, Note_off_c, 2, 79, 0
4, 73436, Note_off_c, 2, 69, 0
4, 73536, Note_on_c, 2, 76, 86
4, 73536, Note_on_c, 2, 69, 86
4, 73628, Note_off_c, 2, 76, 0
4, 73628, Note_off_c, 2, 69, 0
4, 73728, Note_on_c, 2, 78, 86
4, 73728, Note_on_c, 2, 69, 86
4, 74108, Note_off_c, 2, 78, 0
4, 74108, Note_off_c, 2, 69, 0
4, 75264, Note_on_c, 2, 66, 59
4, 75264, Note_on_c, 2, 69, 59
4, 75264, Note_on_c, 2, 62, 59
4, 75644, Note_off_c, 2, 66, 0
4, 75644, Note_off_c, 2, 69, 0
4, 75644, Note_off_c, 2, 62, 0
4, 76032, Note_on_c, 2, 69, 59
4, 76032, Note_on_c, 2, 66, 59
4, 76032, Note_on_c, 2, 62, 59
4, 76412, Note_off_c, 2, 69, 0
4, 76412, Note_off_c, 2, 66, 0
4, 76412, Note_off_c, 2, 62, 0
4, 76800, Note_on_c, 2, 78, 59
4, 76800, Note_on_c, 2, 74, 59
4, 78332, Note_off_c, 2, 78, 0
4, 78332, Note_off_c, 2, 74, 0
4, 78336, Note_on_c, 2, 76, 59
4, 78336, Note_on_c, 2, 73, 59
4, 78716, Note_off_c, 2, 76, 0
4, 78716, Note_off_c, 2, 73, 0
4, 81408, Note_on_c, 2, 64, 59
4, 81408, Note_on_c, 2, 61, 59
4, 81408, Note_on_c, 2, 57, 59
4, 81788, Note_off_c, 2, 64, 0
4, 81788, Note_off_c, 2, 61, 0
4, 81788, Note_off_c, 2, 57, 0
4, 82176, Note_on_c, 2, 69, 59
4, 82176, Note_on_c, 2, 64, 59
4, 82176, Note_on_c, 2, 61, 59
4, 82556, Note_off_c, 2, 69, 0
4, 82556, Note_off_c, 2, 64, 0
4, 82556, Note_off_c, 2, 61, 0
4, 82944, Note_on_c, 2, 76, 59
4, 82944, Note_on_c, 2, 73, 59
4, 84476, Note_off_c, 2, 76, 0
4, 84476, Note_off_c, 2, 73, 0
4, 84480, Note_on_c, 2, 74, 59
4, 84480, Note_on_c, 2, 71, 59
4, 84860, Note_off_c, 2, 74, 0
4, 84860, Note_off_c, 2, 71, 0
4, 87552, Note_on_c, 2, 71, 59
4, 87552, Note_on_c, 2, 68, 59
4, 87552, Note_on_c, 2, 62, 59
4, 87932, Note_off_c, 2, 71, 0
4, 87932, Note_off_c, 2, 68, 0
4, 87932, Note_off_c, 2, 62, 0
4, 88320, Note_on_c, 2, 71, 59
4, 88320, Note_on_c, 2, 68, 59
4, 88320, Note_on_c, 2, 62, 59
4, 88700, Note_off_c, 2, 71, 0
4, 88700, Note_off_c, 2, 68, 0
4, 88700, Note_off_c, 2, 62, 0
4, 89088, Note_on_c, 2, 83, 59
4, 89088, Note_on_c, 2, 86, 59
4, 89180, Note_off_c, 2, 83, 0
4, 89180, Note_off_c, 2, 86, 0
4, 89280, Note_on_c, 2, 85, 59
4, 89280, Note_on_c, 2, 81, 59
4, 89372, Note_off_c, 2, 85, 0
4, 89372, Note_off_c, 2, 81, 0
4, 89472, Note_on_c, 2, 83, 59
4, 89472, Note_on_c, 2, 80, 59
4, 89564, Note_off_c, 2, 83, 0
4, 89564, Note_off_c, 2, 80, 0
4, 89664, Note_on_c, 2, 81, 59
4, 89664, Note_on_c, 2, 78, 59
4, 89756, Note_off_c, 2, 81, 0
4, 89756, Note_off_c, 2, 78, 0
4, 89856, Note_on_c, 2, 80, 59
4, 89856, Note_on_c, 2, 76, 59
4, 89948, Note_off_c, 2, 80, 0
4, 89948, Note_off_c, 2, 76, 0
4, 90048, Note_on_c, 2, 78, 59
4, 90048, Note_on_c, 2, 74, 59
4, 90140, Note_off_c, 2, 78, 0
4, 90140, Note_off_c, 2, 74, 0
4, 90240, Note_on_c, 2, 76, 59
4, 90240, Note_on_c, 2, 73, 59
4, 90332, Note_off_c, 2, 76, 0
4, 90332, Note_off_c, 2, 73, 0
4, 90432, Note_on_c, 2, 74, 59
4, 90432, Note_on_c, 2, 71, 59
4, 90524, Note_off_c, 2, 74, 0
4, 90524, Note_off_c, 2, 71, 0
4, 90624, Note_on_c, 2, 76, 59
4, 90624, Note_on_c, 2, 73, 59
4, 91388, Note_off_c, 2, 76, 0
4, 91388, Note_off_c, 2, 73, 0
4, 91392, Note_on_c, 2, 78, 59
4, 91392, Note_on_c, 2, 74, 59
4, 92156, Note_off_c, 2, 78, 0
4, 92156, Note_off_c, 2, 74, 0
4, 92160, Note_on_c, 2, 76, 59
4, 92160, Note_on_c, 2, 73, 59
4, 92924, Note_off_c, 2, 76, 0
4, 92924, Note_off_c, 2, 73, 0
4, 92928, Note_on_c, 2, 78, 59
4, 92928, Note_on_c, 2, 74, 59
4, 93692, Note_off_c, 2, 78, 64
4, 93692, Note_off_c, 2, 74, 64
4, 93696, Note_on_c, 2, 76, 59
4, 93696, Note_on_c, 2, 73, 59
4, 93884, Note_off_c, 2, 76, 0
4, 93884, Note_off_c, 2, 73, 0
4, 93888, Note_on_c, 2, 69, 59
4, 93888, Note_on_c, 2, 64, 59
4, 94076, Note_off_c, 2, 69, 0
4, 94076, Note_off_c, 2, 64, 0
4, 94080, Note_on_c, 2, 73, 59
4, 94080, Note_on_c, 2, 69, 59
4, 94268, Note_off_c, 2, 73, 0
4, 94268, Note_off_c, 2, 69, 0
4, 94272, Note_on_c, 2, 76, 59
4, 94272, Note_on_c, 2, 69, 59
4, 94460, Note_off_c, 2, 76, 0
4, 94460, Note_off_c, 2, 69, 0
4, 94464, Note_on_c, 2, 78, 59
4, 94464, Note_on_c, 2, 69, 59
4, 94844, Note_off_c, 2, 78, 0
4, 94844, Note_off_c, 2, 69, 0
4, 94848, Note_on_c, 2, 71, 59
4, 94848, Note_on_c, 2, 66, 59
4, 95036, Note_off_c, 2, 71, 0
4, 95040, Note_on_c, 2, 69, 59
4, 95228, Note_off_c, 2, 66, 0
4, 95228, Note_off_c, 2, 69, 0
4, 95232, Note_on_c, 2, 68, 59
4, 95232, Note_on_c, 2, 64, 59
4, 95420, Note_off_c, 2, 68, 0
4, 95420, Note_off_c, 2, 64, 0
4, 95424, Note_on_c, 2, 76, 59
4, 95424, Note_on_c, 2, 68, 59
4, 95612, Note_off_c, 2, 76, 0
4, 95612, Note_off_c, 2, 68, 0
4, 95616, Note_on_c, 2, 69, 59
4, 95804, Note_off_c, 2, 69, 0
4, 95808, Note_on_c, 2, 69, 59
4, 95808, Note_on_c, 2, 64, 59
4, 95996, Note_off_c, 2, 69, 0
4, 95996, Note_off_c, 2, 64, 0
4, 96000, Note_on_c, 2, 69, 59
4, 96000, Note_on_c, 2, 66, 59
4, 96188, Note_off_c, 2, 69, 0
4, 96188, Note_off_c, 2, 66, 0
4, 96192, Note_on_c, 2, 66, 59
4, 96380, Note_off_c, 2, 66, 0
4, 96384, Note_on_c, 2, 71, 59
4, 96384, Note_on_c, 2, 66, 59
4, 96572, Note_off_c, 2, 71, 0
4, 96572, Note_off_c, 2, 66, 0
4, 96576, Note_on_c, 2, 69, 59
4, 96764, Note_off_c, 2, 69, 0
4, 96768, Note_on_c, 2, 68, 86
4, 96768, Note_on_c, 2, 64, 86
4, 97148, Note_off_c, 2, 68, 0
4, 97148, Note_off_c, 2, 64, 0
4, 97152, Note_on_c, 2, 74, 86
4, 97152, Note_on_c, 2, 71, 86
4, 97152, Note_on_c, 2, 64, 86
4, 97532, Note_off_c, 2, 74, 0
4, 97532, Note_off_c, 2, 71, 0
4, 97532, Note_off_c, 2, 64, 0
4, 97536, Note_on_c, 2, 73, 86
4, 97536, Note_on_c, 2, 69, 86
4, 97536, Note_on_c, 2, 64, 86
4, 97916, Note_off_c, 2, 73, 0
4, 97916, Note_off_c, 2, 69, 0
4, 97916, Note_off_c, 2, 64, 0
4, 97920, Note_on_c, 2, 81, 86
4, 97920, Note_on_c, 2, 76, 86
4, 97920, Note_on_c, 2, 73, 86
4, 98300, Note_off_c, 2, 81, 0
4, 98300, Note_off_c, 2, 76, 0
4, 98300, Note_off_c, 2, 73, 0
4, 98304, Note_on_c, 2, 80, 86
4, 98304, Note_on_c, 2, 76, 86
4, 98304, Note_on_c, 2, 71, 86
4, 98684, Note_off_c, 2, 80, 0
4, 98684, Note_off_c, 2, 76, 0
4, 98684, Note_off_c, 2, 71, 0
4, 98688, Note_on_c, 2, 86, 86
4, 98688, Note_on_c, 2, 83, 86
4, 98688, Note_on_c, 2, 76, 86
4, 99068, Note_off_c, 2, 86, 0
4, 99068, Note_off_c, 2, 83, 0
4, 99068, Note_off_c, 2, 76, 0
4, 99072, Note_on_c, 2, 81, 86
4, 99072, Note_on_c, 2, 85, 86
4, 99072, Note_on_c, 2, 76, 86
4, 99452, Note_off_c, 2, 81, 0
4, 99452, Note_off_c, 2, 85, 0
4, 99452, Note_off_c, 2, 76, 0
4, 99456, Note_on_c, 2, 81, 86
4, 99456, Note_on_c, 2, 76, 86
4, 99456, Note_on_c, 2, 73, 86
4, 99836, Note_off_c, 2, 81, 0
4, 99836, Note_off_c, 2, 76, 0
4, 99836, Note_off_c, 2, 73, 0
4, 99840, Note_on_c, 2, 80, 86
4, 99840, Note_on_c, 2, 76, 86
4, 99840, Note_on_c, 2, 71, 86
4, 100220, Note_off_c, 2, 80, 0
4, 100220, Note_off_c, 2, 76, 0
4, 100220, Note_off_c, 2, 71, 0
4, 100224, Note_on_c, 2, 64, 86
4, 100508, Note_off_c, 2, 64, 0
4, 100512, Note_on_c, 2, 64, 86
4, 100584, Note_off_c, 2, 64, 0
4, 100608, Note_on_c, 2, 64, 86
4, 100988, Note_off_c, 2, 64, 0
4, 110016, Note_on_c, 2, 76, 59
4, 110016, Note_on_c, 2, 73, 59
4, 110016, Note_on_c, 2, 64, 59
4, 110204, Note_off_c, 2, 76, 0
4, 110204, Note_off_c, 2, 73, 0
4, 110204, Note_off_c, 2, 64, 0
4, 110208, Note_on_c, 2, 74, 59
4, 110208, Note_on_c, 2, 71, 59
4, 110208, Note_on_c, 2, 66, 59
4, 110396, Note_off_c, 2, 74, 0
4, 110396, Note_off_c, 2, 71, 0
4, 110396, Note_off_c, 2, 66, 0
4, 110400, Note_on_c, 2, 73, 59
4, 110400, Note_on_c, 2, 69, 59
4, 110400, Note_on_c, 2, 66, 59
4, 110588, Note_off_c, 2, 73, 0
4, 110588, Note_off_c, 2, 69, 0
4, 110588, Note_off_c, 2, 66, 0
4, 110592, Note_on_c, 2, 71, 59
4, 110592, Note_on_c, 2, 68, 59
4, 110972, Note_off_c, 2, 71, 0
4, 110972, Note_off_c, 2, 68, 0
4, 113664, Note_on_c, 2, 64, 59
4, 116732, Note_off_c, 2, 64, 0
4, 116736, Note_on_c, 2, 57, 59
4, 117116, Note_off_c, 2, 57, 0
4, 117120, Note_on_c, 2, 69, 59
4, 117120, Note_on_c, 2, 64, 59
4, 117120, Note_on_c, 2, 61, 59
4, 117500, Note_off_c, 2, 69, 0
4, 117500, Note_off_c, 2, 64, 0
4, 117500, Note_off_c, 2, 61, 0
4, 117504, Note_on_c, 2, 69, 59
4, 117504, Note_on_c, 2, 64, 59
4, 117504, Note_on_c, 2, 57, 59
4, 117884, Note_off_c, 2, 69, 0
4, 117884, Note_off_c, 2, 64, 0
4, 117884, Note_off_c, 2, 57, 0
4, 118656, Note_on_c, 2, 69, 59
4, 118656, Note_on_c, 2, 66, 59
4, 118656, Note_on_c, 2, 62, 59
4, 119036, Note_off_c, 2, 69, 0
4, 119036, Note_off_c, 2, 66, 0
4, 119036, Note_off_c, 2, 62, 0
4, 119040, Note_on_c, 2, 66, 59
4, 119040, Note_on_c, 2, 62, 59
4, 119040, Note_on_c, 2, 57, 59
4, 119420, Note_off_c, 2, 66, 0
4, 119420, Note_off_c, 2, 62, 0
4, 119420, Note_off_c, 2, 57, 0
4, 120192, Note_on_c, 2, 68, 59
4, 120192, Note_on_c, 2, 62, 59
4, 120192, Note_on_c, 2, 59, 59
4, 120572, Note_off_c, 2, 68, 0
4, 120572, Note_off_c, 2, 62, 0
4, 120572, Note_off_c, 2, 59, 0
4, 120576, Note_on_c, 2, 68, 59
4, 120576, Note_on_c, 2, 62, 59
4, 120576, Note_on_c, 2, 59, 59
4, 120956, Note_off_c, 2, 68, 0
4, 120956, Note_off_c, 2, 62, 0
4, 120956, Note_off_c, 2, 59, 0
4, 120960, Note_on_c, 2, 68, 59
4, 120960, Note_on_c, 2, 62, 59
4, 120960, Note_on_c, 2, 59, 59
4, 121340, Note_off_c, 2, 68, 0
4, 121340, Note_off_c, 2, 62, 0
4, 121340, Note_off_c, 2, 59, 0
4, 121344, Note_on_c, 2, 69, 59
4, 121344, Note_on_c, 2, 61, 59
4, 121724, Note_off_c, 2, 69, 0
4, 121724, Note_off_c, 2, 61, 0
4, 123264, Note_on_c, 2, 69, 59
4, 123264, Note_on_c, 2, 64, 59
4, 123644, Note_off_c, 2, 69, 0
4, 123644, Note_off_c, 2, 64, 0
4, 123648, Note_on_c, 2, 69, 59
4, 123648, Note_on_c, 2, 64, 59
4, 124028, Note_off_c, 2, 69, 0
4, 124028, Note_off_c, 2, 64, 0
4, 124800, Note_on_c, 2, 69, 59
4, 124800, Note_on_c, 2, 66, 59
4, 125180, Note_off_c, 2, 69, 0
4, 125180, Note_off_c, 2, 66, 0
4, 125184, Note_on_c, 2, 66, 59
4, 125184, Note_on_c, 2, 62, 59
4, 125564, Note_off_c, 2, 66, 0
4, 125564, Note_off_c, 2, 62, 0
4, 125952, Note_on_c, 2, 69, 59
4, 125952, Note_on_c, 2, 64, 59
4, 125952, Note_on_c, 2, 61, 59
4, 126140, Note_off_c, 2, 69, 0
4, 126140, Note_off_c, 2, 64, 0
4, 126140, Note_off_c, 2, 61, 0
4, 126144, Note_on_c, 2, 69, 59
4, 126144, Note_on_c, 2, 64, 59
4, 126144, Note_on_c, 2, 61, 59
4, 126332, Note_off_c, 2, 69, 0
4, 126332, Note_off_c, 2, 64, 0
4, 126332, Note_off_c, 2, 61, 0
4, 126336, Note_on_c, 2, 69, 59
4, 126336, Note_on_c, 2, 64, 59
4, 126336, Note_on_c, 2, 61, 59
4, 126524, Note_off_c, 2, 69, 0
4, 126524, Note_off_c, 2, 64, 0
4, 126524, Note_off_c, 2, 61, 0
4, 126528, Note_on_c, 2, 69, 59
4, 126528, Note_on_c, 2, 64, 59
4, 126528, Note_on_c, 2, 61, 59
4, 126716, Note_off_c, 2, 69, 0
4, 126716, Note_off_c, 2, 64, 0
4, 126716, Note_off_c, 2, 61, 0
4, 126720, Note_on_c, 2, 68, 59
4, 126720, Note_on_c, 2, 62, 59
4, 126720, Note_on_c, 2, 59, 59
4, 126908, Note_off_c, 2, 68, 0
4, 126908, Note_off_c, 2, 62, 0
4, 126908, Note_off_c, 2, 59, 0
4, 126912, Note_on_c, 2, 68, 59
4, 126912, Note_on_c, 2, 62, 59
4, 126912, Note_on_c, 2, 59, 59
4, 127100, Note_off_c, 2, 68, 0
4, 127100, Note_off_c, 2, 62, 0
4, 127100, Note_off_c, 2, 59, 0
4, 127104, Note_on_c, 2, 68, 59
4, 127104, Note_on_c, 2, 62, 59
4, 127104, Note_on_c, 2, 59, 59
4, 127292, Note_off_c, 2, 68, 0
4, 127292, Note_off_c, 2, 62, 0
4, 127292, Note_off_c, 2, 59, 0
4, 127296, Note_on_c, 2, 68, 59
4, 127296, Note_on_c, 2, 62, 59
4, 127296, Note_on_c, 2, 59, 59
4, 127484, Note_off_c, 2, 68, 0
4, 127484, Note_off_c, 2, 62, 0
4, 127484, Note_off_c, 2, 59, 0
4, 127488, Note_on_c, 2, 69, 86
4, 127488, Note_on_c, 2, 64, 86
4, 127488, Note_on_c, 2, 61, 86
4, 127676, Note_off_c, 2, 69, 0
4, 127676, Note_off_c, 2, 64, 0
4, 127676, Note_off_c, 2, 61, 0
4, 127680, Note_on_c, 2, 78, 86
4, 127772, Note_off_c, 2, 78, 0
4, 127776, Note_on_c, 2, 76, 86
4, 127868, Note_off_c, 2, 76, 0
4, 127872, Note_on_c, 2, 81, 86
4, 127964, Note_off_c, 2, 81, 0
4, 127968, Note_on_c, 2, 76, 86
4, 128060, Note_off_c, 2, 76, 0
4, 128064, Note_on_c, 2, 85, 86
4, 128156, Note_off_c, 2, 85, 0
4, 128160, Note_on_c, 2, 81, 86
4, 128252, Note_off_c, 2, 81, 0
4, 128256, Note_on_c, 2, 85, 86
4, 128348, Note_off_c, 2, 85, 0
4, 128352, Note_on_c, 2, 76, 86
4, 128444, Note_off_c, 2, 76, 0
4, 128448, Note_on_c, 2, 78, 86
4, 128540, Note_off_c, 2, 78, 0
4, 128544, Note_on_c, 2, 76, 86
4, 128636, Note_off_c, 2, 76, 0
4, 128640, Note_on_c, 2, 83, 86
4, 128732, Note_off_c, 2, 83, 0
4, 128736, Note_on_c, 2, 76, 86
4, 128828, Note_off_c, 2, 76, 0
4, 128832, Note_on_c, 2, 86, 86
4, 128924, Note_off_c, 2, 86, 0
4, 128928, Note_on_c, 2, 83, 86
4, 129020, Note_off_c, 2, 83, 0
4, 129024, Note_on_c, 2, 85, 86
4, 129404, Note_off_c, 2, 85, 0
4, 129600, Note_on_c, 2, 69, 59
4, 129600, Note_on_c, 2, 64, 59
4, 129600, Note_on_c, 2, 61, 59
4, 129788, Note_off_c, 2, 69, 0
4, 129788, Note_off_c, 2, 64, 0
4, 129788, Note_off_c, 2, 61, 0
4, 129792, Note_on_c, 2, 69, 59
4, 129792, Note_on_c, 2, 62, 59
4, 130172, Note_off_c, 2, 69, 0
4, 130176, Note_on_c, 2, 68, 59
4, 130556, Note_off_c, 2, 62, 0
4, 130556, Note_off_c, 2, 68, 0
4, 130560, Note_on_c, 2, 69, 86
4, 130560, Note_on_c, 2, 64, 86
4, 130560, Note_on_c, 2, 61, 86
4, 130748, Note_off_c, 2, 69, 0
4, 130748, Note_off_c, 2, 64, 0
4, 130748, Note_off_c, 2, 61, 0
4, 130752, Note_on_c, 2, 78, 86
4, 130844, Note_off_c, 2, 78, 0
4, 130848, Note_on_c, 2, 76, 86
4, 130940, Note_off_c, 2, 76, 0
4, 130944, Note_on_c, 2, 81, 86
4, 131036, Note_off_c, 2, 81, 0
4, 131040, Note_on_c, 2, 76, 86
4, 131132, Note_off_c, 2, 76, 0
4, 131136, Note_on_c, 2, 85, 86
4, 131228, Note_off_c, 2, 85, 0
4, 131232, Note_on_c, 2, 81, 86
4, 131324, Note_off_c, 2, 81, 0
4, 131328, Note_on_c, 2, 83, 86
4, 131420, Note_off_c, 2, 83, 0
4, 131424, Note_on_c, 2, 76, 86
4, 131516, Note_off_c, 2, 76, 0
4, 131520, Note_on_c, 2, 78, 86
4, 131612, Note_off_c, 2, 78, 0
4, 131616, Note_on_c, 2, 76, 86
4, 131708, Note_off_c, 2, 76, 0
4, 131712, Note_on_c, 2, 83, 86
4, 131804, Note_off_c, 2, 83, 0
4, 131808, Note_on_c, 2, 76, 86
4, 131900, Note_off_c, 2, 76, 0
4, 131904, Note_on_c, 2, 86, 86
4, 131996, Note_off_c, 2, 86, 0
4, 132000, Note_on_c, 2, 83, 86
4, 132092, Note_off_c, 2, 83, 0
4, 132096, Note_on_c, 2, 85, 86
4, 132476, Note_off_c, 2, 85, 0
4, 132672, Note_on_c, 2, 69, 59
4, 132672, Note_on_c, 2, 64, 59
4, 132672, Note_on_c, 2, 61, 59
4, 132860, Note_off_c, 2, 69, 0
4, 132860, Note_off_c, 2, 64, 0
4, 132860, Note_off_c, 2, 61, 0
4, 132864, Note_on_c, 2, 69, 59
4, 132864, Note_on_c, 2, 62, 59
4, 133244, Note_off_c, 2, 69, 0
4, 133248, Note_on_c, 2, 68, 59
4, 133628, Note_off_c, 2, 62, 0
4, 133628, Note_off_c, 2, 68, 0
4, 133632, Note_on_c, 2, 69, 59
4, 133632, Note_on_c, 2, 61, 59
4, 134012, Note_off_c, 2, 69, 0
4, 134012, Note_off_c, 2, 61, 0
4, 135168, Note_on_c, 2, 69, 59
4, 135168, Note_on_c, 2, 64, 59
4, 135168, Note_on_c, 2, 61, 59
4, 135548, Note_off_c, 2, 69, 0
4, 135548, Note_off_c, 2, 64, 0
4, 135548, Note_off_c, 2, 61, 0
4, 136704, Note_on_c, 2, 69, 59
4, 136704, Note_on_c, 2, 66, 59
4, 136704, Note_on_c, 2, 62, 59
4, 137084, Note_off_c, 2, 69, 0
4, 137084, Note_off_c, 2, 66, 0
4, 137084, Note_off_c, 2, 62, 0
4, 138240, Note_on_c, 2, 72, 59
4, 138240, Note_on_c, 2, 69, 59
4, 138240, Note_on_c, 2, 66, 59
4, 138620, Note_off_c, 2, 72, 0
4, 138620, Note_off_c, 2, 69, 0
4, 138620, Note_off_c, 2, 66, 0
4, 138624, Note_on_c, 2, 72, 59
4, 138624, Note_on_c, 2, 69, 59
4, 138624, Note_on_c, 2, 66, 59
4, 139004, Note_off_c, 2, 72, 0
4, 139004, Note_off_c, 2, 69, 0
4, 139004, Note_off_c, 2, 66, 0
4, 139008, Note_on_c, 2, 72, 59
4, 139008, Note_on_c, 2, 69, 59
4, 139008, Note_on_c, 2, 66, 59
4, 139388, Note_off_c, 2, 72, 0
4, 139388, Note_off_c, 2, 69, 0
4, 139388, Note_off_c, 2, 66, 0
4, 139392, Note_on_c, 2, 72, 59
4, 139392, Note_on_c, 2, 69, 59
4, 139392, Note_on_c, 2, 66, 59
4, 139772, Note_off_c, 2, 72, 0
4, 139772, Note_off_c, 2, 69, 0
4, 139772, Note_off_c, 2, 66, 0
4, 139776, Note_on_c, 2, 73, 59
4, 139776, Note_on_c, 2, 69, 59
4, 139776, Note_on_c, 2, 64, 59
4, 140156, Note_off_c, 2, 73, 0
4, 140156, Note_off_c, 2, 69, 0
4, 140156, Note_off_c, 2, 64, 0
4, 140544, Note_on_c, 2, 73, 59
4, 140544, Note_on_c, 2, 69, 59
4, 140544, Note_on_c, 2, 64, 59
4, 140924, Note_off_c, 2, 73, 0
4, 140924, Note_off_c, 2, 69, 0
4, 140924, Note_off_c, 2, 64, 0
4, 141312, Note_on_c, 2, 73, 59
4, 141312, Note_on_c, 2, 69, 59
4, 141312, Note_on_c, 2, 64, 59
4, 141692, Note_off_c, 2, 73, 0
4, 141692, Note_off_c, 2, 69, 0
4, 141692, Note_off_c, 2, 64, 0
4, 143040, Note_on_c, 2, 73, 59
4, 143040, Note_on_c, 2, 69, 59
4, 143040, Note_on_c, 2, 64, 59
4, 143228, Note_off_c, 2, 73, 0
4, 143228, Note_off_c, 2, 69, 0
4, 143228, Note_off_c, 2, 64, 0
4, 143232, Note_on_c, 2, 73, 59
4, 143232, Note_on_c, 2, 69, 59
4, 143232, Note_on_c, 2, 64, 59
4, 143420, Note_off_c, 2, 73, 0
4, 143420, Note_off_c, 2, 69, 0
4, 143420, Note_off_c, 2, 64, 0
4, 143424, Note_on_c, 2, 73, 59
4, 143424, Note_on_c, 2, 69, 59
4, 143424, Note_on_c, 2, 64, 59
4, 143612, Note_off_c, 2, 73, 0
4, 143612, Note_off_c, 2, 69, 0
4, 143612, Note_off_c, 2, 64, 0
4, 143616, Note_on_c, 2, 73, 59
4, 143616, Note_on_c, 2, 69, 59
4, 143616, Note_on_c, 2, 64, 59
4, 143804, Note_off_c, 2, 73, 0
4, 143804, Note_off_c, 2, 69, 0
4, 143804, Note_off_c, 2, 64, 0
4, 143808, Note_on_c, 2, 73, 59
4, 143808, Note_on_c, 2, 69, 59
4, 143808, Note_on_c, 2, 64, 59
4, 143996, Note_off_c, 2, 73, 0
4, 143996, Note_off_c, 2, 69, 0
4, 143996, Note_off_c, 2, 64, 0
4, 144000, Note_on_c, 2, 73, 59
4, 144000, Note_on_c, 2, 69, 59
4, 144000, Note_on_c, 2, 64, 59
4, 144188, Note_off_c, 2, 73, 0
4, 144188, Note_off_c, 2, 69, 0
4, 144188, Note_off_c, 2, 64, 0
4, 144192, Note_on_c, 2, 73, 59
4, 144192, Note_on_c, 2, 69, 59
4, 144192, Note_on_c, 2, 64, 59
4, 144380, Note_off_c, 2, 73, 0
4, 144380, Note_off_c, 2, 69, 0
4, 144380, Note_off_c, 2, 64, 0
4, 144384, Note_on_c, 2, 71, 59
4, 144384, Note_on_c, 2, 68, 59
4, 144384, Note_on_c, 2, 62, 59
4, 144572, Note_off_c, 2, 71, 0
4, 144572, Note_off_c, 2, 68, 0
4, 144572, Note_off_c, 2, 62, 0
4, 144576, Note_on_c, 2, 71, 59
4, 144576, Note_on_c, 2, 68, 59
4, 144576, Note_on_c, 2, 62, 59
4, 144764, Note_off_c, 2, 71, 0
4, 144764, Note_off_c, 2, 68, 0
4, 144764, Note_off_c, 2, 62, 0
4, 144768, Note_on_c, 2, 71, 59
4, 144768, Note_on_c, 2, 68, 59
4, 144768, Note_on_c, 2, 62, 59
4, 144956, Note_off_c, 2, 71, 0
4, 144956, Note_off_c, 2, 68, 0
4, 144956, Note_off_c, 2, 62, 0
4, 144960, Note_on_c, 2, 71, 59
4, 144960, Note_on_c, 2, 68, 59
4, 144960, Note_on_c, 2, 62, 59
4, 145148, Note_off_c, 2, 71, 0
4, 145148, Note_off_c, 2, 68, 0
4, 145148, Note_off_c, 2, 62, 0
4, 145152, Note_on_c, 2, 71, 59
4, 145152, Note_on_c, 2, 68, 59
4, 145152, Note_on_c, 2, 62, 59
4, 145340, Note_off_c, 2, 71, 0
4, 145340, Note_off_c, 2, 68, 0
4, 145340, Note_off_c, 2, 62, 0
4, 145344, Note_on_c, 2, 71, 59
4, 145344, Note_on_c, 2, 68, 59
4, 145344, Note_on_c, 2, 62, 59
4, 145532, Note_off_c, 2, 71, 0
4, 145532, Note_off_c, 2, 68, 0
4, 145532, Note_off_c, 2, 62, 0
4, 145536, Note_on_c, 2, 71, 59
4, 145536, Note_on_c, 2, 68, 59
4, 145536, Note_on_c, 2, 62, 59
4, 145724, Note_off_c, 2, 71, 0
4, 145724, Note_off_c, 2, 68, 0
4, 145724, Note_off_c, 2, 62, 0
4, 145728, Note_on_c, 2, 71, 59
4, 145728, Note_on_c, 2, 68, 59
4, 145728, Note_on_c, 2, 62, 59
4, 145916, Note_off_c, 2, 71, 0
4, 145916, Note_off_c, 2, 68, 0
4, 145916, Note_off_c, 2, 62, 0
4, 145920, Note_on_c, 2, 69, 86
4, 145920, Note_on_c, 2, 64, 86
4, 145920, Note_on_c, 2, 61, 86
4, 146300, Note_off_c, 2, 69, 0
4, 146300, Note_off_c, 2, 64, 0
4, 146300, Note_off_c, 2, 61, 0
4, 146304, Note_on_c, 2, 69, 86
4, 146304, Note_on_c, 2, 64, 86
4, 146304, Note_on_c, 2, 61, 86
4, 146684, Note_off_c, 2, 69, 0
4, 146684, Note_off_c, 2, 64, 0
4, 146684, Note_off_c, 2, 61, 0
4, 146880, Note_on_c, 2, 69, 86
4, 146880, Note_on_c, 2, 64, 86
4, 146880, Note_on_c, 2, 61, 86
4, 147068, Note_off_c, 2, 69, 0
4, 147068, Note_off_c, 2, 64, 0
4, 147068, Note_off_c, 2, 61, 0
4, 147072, Note_on_c, 2, 73, 86
4, 147072, Note_on_c, 2, 69, 86
4, 147072, Note_on_c, 2, 64, 86
4, 147260, Note_off_c, 2, 73, 0
4, 147260, Note_off_c, 2, 69, 0
4, 147260, Note_off_c, 2, 64, 0
4, 147264, Note_on_c, 2, 76, 86
4, 147264, Note_on_c, 2, 73, 86
4, 147264, Note_on_c, 2, 69, 86
4, 147452, Note_off_c, 2, 76, 0
4, 147452, Note_off_c, 2, 73, 0
4, 147452, Note_off_c, 2, 69, 0
4, 147456, Note_on_c, 2, 78, 86
4, 147456, Note_on_c, 2, 74, 86
4, 147456, Note_on_c, 2, 69, 86
4, 147740, Note_off_c, 2, 78, 0
4, 147740, Note_off_c, 2, 74, 0
4, 147740, Note_off_c, 2, 69, 0
4, 147744, Note_on_c, 2, 74, 86
4, 147816, Note_off_c, 2, 74, 0
4, 147840, Note_on_c, 2, 78, 86
4, 147840, Note_on_c, 2, 74, 86
4, 147840, Note_on_c, 2, 69, 86
4, 148220, Note_off_c, 2, 78, 0
4, 148220, Note_off_c, 2, 74, 0
4, 148220, Note_off_c, 2, 69, 0
4, 148416, Note_on_c, 2, 69, 86
4, 148416, Note_on_c, 2, 66, 86
4, 148416, Note_on_c, 2, 62, 86
4, 148508, Note_off_c, 2, 69, 0
4, 148508, Note_off_c, 2, 66, 0
4, 148508, Note_off_c, 2, 62, 0
4, 148608, Note_on_c, 2, 74, 86
4, 148608, Note_on_c, 2, 69, 86
4, 148608, Note_on_c, 2, 66, 86
4, 148700, Note_off_c, 2, 74, 0
4, 148700, Note_off_c, 2, 69, 0
4, 148700, Note_off_c, 2, 66, 0
4, 148800, Note_on_c, 2, 78, 86
4, 148800, Note_on_c, 2, 74, 86
4, 148800, Note_on_c, 2, 69, 86
4, 148892, Note_off_c, 2, 78, 0
4, 148892, Note_off_c, 2, 74, 0
4, 148892, Note_off_c, 2, 69, 0
4, 148992, Note_on_c, 2, 76, 86
4, 148992, Note_on_c, 2, 73, 86
4, 148992, Note_on_c, 2, 69, 86
4, 149276, Note_off_c, 2, 76, 0
4, 149276, Note_off_c, 2, 73, 0
4, 149276, Note_off_c, 2, 69, 0
4, 149280, Note_on_c, 2, 73, 86
4, 149352, Note_off_c, 2, 73, 0
4, 149376, Note_on_c, 2, 76, 86
4, 149376, Note_on_c, 2, 73, 86
4, 149376, Note_on_c, 2, 69, 86
4, 149756, Note_off_c, 2, 76, 0
4, 149756, Note_off_c, 2, 73, 0
4, 149756, Note_off_c, 2, 69, 0
4, 149952, Note_on_c, 2, 64, 86
4, 149952, Note_on_c, 2, 61, 86
4, 149952, Note_on_c, 2, 69, 86
4, 150044, Note_off_c, 2, 64, 0
4, 150044, Note_off_c, 2, 61, 0
4, 150044, Note_off_c, 2, 69, 0
4, 150144, Note_on_c, 2, 73, 86
4, 150144, Note_on_c, 2, 69, 86
4, 150144, Note_on_c, 2, 64, 86
4, 150236, Note_off_c, 2, 73, 0
4, 150236, Note_off_c, 2, 69, 0
4, 150236, Note_off_c, 2, 64, 0
4, 150336, Note_on_c, 2, 76, 86
4, 150336, Note_on_c, 2, 73, 86
4, 150336, Note_on_c, 2, 69, 86
4, 150428, Note_off_c, 2, 76, 0
4, 150428, Note_off_c, 2, 73, 0
4, 150428, Note_off_c, 2, 69, 0
4, 150528, Note_on_c, 2, 74, 86
4, 150528, Note_on_c, 2, 71, 86
4, 150528, Note_on_c, 2, 68, 86
4, 150812, Note_off_c, 2, 74, 0
4, 150812, Note_off_c, 2, 71, 0
4, 150812, Note_off_c, 2, 68, 0
4, 150816, Note_on_c, 2, 71, 86
4, 150908, Note_off_c, 2, 71, 0
4, 150912, Note_on_c, 2, 80, 86
4, 150912, Note_on_c, 2, 74, 86
4, 150912, Note_on_c, 2, 71, 86
4, 151188, Note_off_c, 2, 80, 0
4, 151188, Note_off_c, 2, 74, 0
4, 151188, Note_off_c, 2, 71, 0
4, 151200, Note_on_c, 2, 76, 86
4, 151292, Note_off_c, 2, 76, 0
4, 151296, Note_on_c, 2, 80, 86
4, 151296, Note_on_c, 2, 83, 86
4, 151296, Note_on_c, 2, 74, 86
4, 151572, Note_off_c, 2, 80, 0
4, 151572, Note_off_c, 2, 83, 0
4, 151572, Note_off_c, 2, 74, 0
4, 151584, Note_on_c, 2, 80, 86
4, 151676, Note_off_c, 2, 80, 0
4, 151680, Note_on_c, 2, 80, 86
4, 151680, Note_on_c, 2, 83, 86
4, 151680, Note_on_c, 2, 86, 86
4, 151956, Note_off_c, 2, 80, 0
4, 151956, Note_off_c, 2, 83, 0
4, 151956, Note_off_c, 2, 86, 0
4, 151968, Note_on_c, 2, 83, 86
4, 152060, Note_off_c, 2, 83, 0
4, 152064, Note_on_c, 2, 85, 86
4, 152064, Note_on_c, 2, 81, 86
4, 152064, Note_on_c, 2, 76, 86
4, 152252, Note_off_c, 2, 85, 0
4, 152252, Note_off_c, 2, 81, 0
4, 152252, Note_off_c, 2, 76, 0
4, 152256, Note_on_c, 2, 81, 86
4, 152444, Note_off_c, 2, 81, 0
4, 152448, Note_on_c, 2, 81, 86
4, 152448, Note_on_c, 2, 76, 86
4, 152448, Note_on_c, 2, 73, 86
4, 152540, Note_off_c, 2, 81, 0
4, 152540, Note_off_c, 2, 76, 0
4, 152540, Note_off_c, 2, 73, 0
4, 152640, Note_on_c, 2, 81, 86
4, 152640, Note_on_c, 2, 76, 86
4, 152640, Note_on_c, 2, 73, 86
4, 152732, Note_off_c, 2, 81, 0
4, 152732, Note_off_c, 2, 76, 0
4, 152732, Note_off_c, 2, 73, 0
4, 152832, Note_on_c, 2, 81, 86
4, 152832, Note_on_c, 2, 76, 86
4, 152832, Note_on_c, 2, 69, 86
4, 153020, Note_off_c, 2, 81, 0
4, 153020, Note_off_c, 2, 76, 0
4, 153020, Note_off_c, 2, 69, 0
4, 153024, Note_on_c, 2, 79, 86
4, 153024, Note_on_c, 2, 76, 86
4, 153024, Note_on_c, 2, 69, 86
4, 153212, Note_off_c, 2, 79, 0
4, 153212, Note_off_c, 2, 76, 0
4, 153212, Note_off_c, 2, 69, 0
4, 153216, Note_on_c, 2, 79, 86
4, 153216, Note_on_c, 2, 76, 86
4, 153216, Note_on_c, 2, 69, 86
4, 153308, Note_off_c, 2, 79, 0
4, 153308, Note_off_c, 2, 76, 0
4, 153308, Note_off_c, 2, 69, 0
4, 153408, Note_on_c, 2, 79, 86
4, 153408, Note_on_c, 2, 76, 86
4, 153408, Note_on_c, 2, 69, 86
4, 153500, Note_off_c, 2, 79, 0
4, 153500, Note_off_c, 2, 76, 0
4, 153500, Note_off_c, 2, 69, 0
4, 153600, Note_on_c, 2, 79, 86
4, 153600, Note_on_c, 2, 76, 86
4, 153600, Note_on_c, 2, 69, 86
4, 153788, Note_off_c, 2, 79, 0
4, 153788, Note_off_c, 2, 76, 0
4, 153788, Note_off_c, 2, 69, 0
4, 153792, Note_on_c, 2, 78, 86
4, 153792, Note_on_c, 2, 74, 86
4, 153792, Note_on_c, 2, 69, 86
4, 153980, Note_off_c, 2, 78, 0
4, 153980, Note_off_c, 2, 74, 0
4, 153980, Note_off_c, 2, 69, 0
4, 153984, Note_on_c, 2, 78, 86
4, 153984, Note_on_c, 2, 74, 86
4, 153984, Note_on_c, 2, 69, 86
4, 154076, Note_off_c, 2, 78, 0
4, 154076, Note_off_c, 2, 74, 0
4, 154076, Note_off_c, 2, 69, 0
4, 154176, Note_on_c, 2, 78, 86
4, 154176, Note_on_c, 2, 74, 86
4, 154176, Note_on_c, 2, 69, 86
4, 154268, Note_off_c, 2, 78, 0
4, 154268, Note_off_c, 2, 74, 0
4, 154268, Note_off_c, 2, 69, 0
4, 154368, Note_on_c, 2, 78, 86
4, 154368, Note_on_c, 2, 74, 86
4, 154368, Note_on_c, 2, 69, 86
4, 154556, Note_off_c, 2, 69, 0
4, 154560, Note_on_c, 2, 69, 86
4, 154748, Note_off_c, 2, 69, 0
4, 154752, Note_on_c, 2, 69, 86
4, 154940, Note_off_c, 2, 78, 0
4, 154940, Note_off_c, 2, 74, 0
4, 154940, Note_off_c, 2, 69, 0
4, 154944, Note_on_c, 2, 78, 86
4, 154944, Note_on_c, 2, 74, 86
4, 154944, Note_on_c, 2, 69, 86
4, 155132, Note_off_c, 2, 78, 0
4, 155132, Note_off_c, 2, 74, 0
4, 155132, Note_off_c, 2, 69, 0
4, 155136, Note_on_c, 2, 78, 86
4, 155136, Note_on_c, 2, 74, 86
4, 155228, Note_off_c, 2, 78, 0
4, 155228, Note_off_c, 2, 74, 0
4, 155232, Note_on_c, 2, 76, 86
4, 155232, Note_on_c, 2, 73, 86
4, 155508, Note_off_c, 2, 76, 0
4, 155508, Note_off_c, 2, 73, 0
4, 155520, Note_on_c, 2, 74, 86
4, 155520, Note_on_c, 2, 71, 86
4, 155612, Note_off_c, 2, 74, 0
4, 155612, Note_off_c, 2, 71, 0
4, 155616, Note_on_c, 2, 73, 86
4, 155616, Note_on_c, 2, 69, 86
4, 155892, Note_off_c, 2, 73, 0
4, 155892, Note_off_c, 2, 69, 0
4, 155904, Note_on_c, 2, 76, 86
4, 155904, Note_on_c, 2, 73, 86
4, 155996, Note_off_c, 2, 76, 0
4, 155996, Note_off_c, 2, 73, 0
4, 156000, Note_on_c, 2, 71, 86
4, 156000, Note_on_c, 2, 74, 86
4, 156276, Note_off_c, 2, 71, 0
4, 156276, Note_off_c, 2, 74, 0
4, 156288, Note_on_c, 2, 73, 86
4, 156288, Note_on_c, 2, 69, 86
4, 156380, Note_off_c, 2, 73, 0
4, 156380, Note_off_c, 2, 69, 0
4, 156384, Note_on_c, 2, 71, 86
4, 156384, Note_on_c, 2, 68, 86
4, 156660, Note_off_c, 2, 71, 0
4, 156660, Note_off_c, 2, 68, 0
4, 156672, Note_on_c, 2, 69, 59
4, 156860, Note_off_c, 2, 69, 0
4, 156864, Note_on_c, 2, 57, 59
4, 157052, Note_off_c, 2, 57, 0
4, 157056, Note_on_c, 2, 69, 59
4, 157056, Note_on_c, 2, 57, 59
4, 157148, Note_off_c, 2, 69, 0
4, 157148, Note_off_c, 2, 57, 0
4, 157248, Note_on_c, 2, 69, 59
4, 157248, Note_on_c, 2, 57, 59
4, 157340, Note_off_c, 2, 69, 0
4, 157340, Note_off_c, 2, 57, 0
4, 157440, Note_on_c, 2, 69, 59
4, 157440, Note_on_c, 2, 57, 59
4, 157628, Note_off_c, 2, 69, 0
4, 157628, Note_off_c, 2, 57, 0
4, 157632, Note_on_c, 2, 67, 59
4, 157632, Note_on_c, 2, 64, 59
4, 157820, Note_off_c, 2, 67, 0
4, 157820, Note_off_c, 2, 64, 0
4, 157824, Note_on_c, 2, 67, 59
4, 157824, Note_on_c, 2, 64, 59
4, 157916, Note_off_c, 2, 67, 0
4, 157916, Note_off_c, 2, 64, 0
4, 158016, Note_on_c, 2, 67, 59
4, 158016, Note_on_c, 2, 64, 59
4, 158108, Note_off_c, 2, 67, 0
4, 158108, Note_off_c, 2, 64, 0
4, 158208, Note_on_c, 2, 67, 59
4, 158208, Note_on_c, 2, 64, 59
4, 158396, Note_off_c, 2, 67, 0
4, 158396, Note_off_c, 2, 64, 0
4, 158400, Note_on_c, 2, 66, 59
4, 158400, Note_on_c, 2, 62, 59
4, 158588, Note_off_c, 2, 66, 0
4, 158588, Note_off_c, 2, 62, 0
4, 158592, Note_on_c, 2, 66, 59
4, 158592, Note_on_c, 2, 62, 59
4, 158684, Note_off_c, 2, 66, 0
4, 158684, Note_off_c, 2, 62, 0
4, 158784, Note_on_c, 2, 66, 59
4, 158784, Note_on_c, 2, 62, 59
4, 158876, Note_off_c, 2, 66, 0
4, 158876, Note_off_c, 2, 62, 0
4, 158976, Note_on_c, 2, 66, 59
4, 158976, Note_on_c, 2, 62, 59
4, 159740, Note_off_c, 2, 66, 0
4, 159740, Note_off_c, 2, 62, 0
4, 159744, Note_on_c, 2, 66, 86
4, 159744, Note_on_c, 2, 57, 86
4, 159932, Note_off_c, 2, 66, 0
4, 159932, Note_off_c, 2, 57, 0
4, 159936, Note_on_c, 2, 62, 86
4, 160124, Note_off_c, 2, 62, 0
4, 160128, Note_on_c, 2, 66, 86
4, 160316, Note_off_c, 2, 66, 0
4, 160320, Note_on_c, 2, 69, 86
4, 160508, Note_off_c, 2, 69, 0
4, 160512, Note_on_c, 2, 74, 86
4, 160700, Note_off_c, 2, 74, 0
4, 160704, Note_on_c, 2, 69, 86
4, 160892, Note_off_c, 2, 69, 0
4, 160896, Note_on_c, 2, 74, 86
4, 161084, Note_off_c, 2, 74, 0
4, 161088, Note_on_c, 2, 78, 86
4, 161276, Note_off_c, 2, 78, 0
4, 161280, Note_on_c, 2, 78, 86
4, 161280, Note_on_c, 2, 81, 86
4, 161280, Note_on_c, 2, 73, 86
4, 161660, Note_off_c, 2, 78, 0
4, 161660, Note_off_c, 2, 81, 0
4, 161660, Note_off_c, 2, 73, 0
4, 161664, Note_on_c, 2, 78, 86
4, 161664, Note_on_c, 2, 73, 86
4, 161664, Note_on_c, 2, 81, 86
4, 161940, Note_off_c, 2, 78, 0
4, 161940, Note_off_c, 2, 73, 0
4, 161940, Note_off_c, 2, 81, 0
4, 161952, Note_on_c, 2, 81, 86
4, 161952, Note_on_c, 2, 78, 86
4, 161952, Note_on_c, 2, 73, 86
4, 162024, Note_off_c, 2, 81, 0
4, 162024, Note_off_c, 2, 78, 0
4, 162024, Note_off_c, 2, 73, 0
4, 162048, Note_on_c, 2, 81, 86
4, 162048, Note_on_c, 2, 78, 86
4, 162048, Note_on_c, 2, 73, 86
4, 162428, Note_off_c, 2, 81, 0
4, 162428, Note_off_c, 2, 78, 0
4, 162428, Note_off_c, 2, 73, 0
4, 162432, Note_on_c, 2, 81, 86
4, 162432, Note_on_c, 2, 78, 86
4, 162432, Note_on_c, 2, 73, 86
4, 162812, Note_off_c, 2, 81, 0
4, 162812, Note_off_c, 2, 78, 0
4, 162812, Note_off_c, 2, 73, 0
4, 162816, Note_on_c, 2, 81, 86
4, 162816, Note_on_c, 2, 73, 86
4, 162908, Note_off_c, 2, 81, 0
4, 162908, Note_off_c, 2, 73, 0
4, 162912, Note_on_c, 2, 76, 86
4, 163004, Note_off_c, 2, 76, 0
4, 163008, Note_on_c, 2, 81, 86
4, 163100, Note_off_c, 2, 81, 0
4, 163104, Note_on_c, 2, 85, 86
4, 163196, Note_off_c, 2, 85, 0
4, 163200, Note_on_c, 2, 88, 86
4, 163292, Note_off_c, 2, 88, 0
4, 163296, Note_on_c, 2, 85, 86
4, 163388, Note_off_c, 2, 85, 0
4, 163392, Note_on_c, 2, 81, 86
4, 163484, Note_off_c, 2, 81, 0
4, 163488, Note_on_c, 2, 76, 86
4, 163580, Note_off_c, 2, 76, 0
4, 163584, Note_on_c, 2, 85, 86
4, 163676, Note_off_c, 2, 85, 0
4, 163680, Note_on_c, 2, 81, 86
4, 163772, Note_off_c, 2, 81, 0
4, 163776, Note_on_c, 2, 76, 86
4, 163868, Note_off_c, 2, 76, 0
4, 163872, Note_on_c, 2, 73, 86
4, 163964, Note_off_c, 2, 73, 0
4, 163968, Note_on_c, 2, 81, 86
4, 164060, Note_off_c, 2, 81, 0
4, 164064, Note_on_c, 2, 76, 86
4, 164156, Note_off_c, 2, 76, 0
4, 164160, Note_on_c, 2, 73, 86
4, 164252, Note_off_c, 2, 73, 0
4, 164256, Note_on_c, 2, 69, 86
4, 164348, Note_off_c, 2, 69, 0
4, 164352, Note_on_c, 2, 64, 86
4, 164540, Note_off_c, 2, 64, 0
4, 164544, Note_on_c, 2, 81, 86
4, 164544, Note_on_c, 2, 85, 86
4, 164636, Note_off_c, 2, 81, 0
4, 164636, Note_off_c, 2, 85, 0
4, 164640, Note_on_c, 2, 76, 86
4, 164732, Note_off_c, 2, 76, 0
4, 164736, Note_on_c, 2, 81, 86
4, 164736, Note_on_c, 2, 85, 86
4, 164828, Note_off_c, 2, 81, 0
4, 164828, Note_off_c, 2, 85, 0
4, 164832, Note_on_c, 2, 76, 86
4, 164924, Note_off_c, 2, 76, 0
4, 164928, Note_on_c, 2, 81, 86
4, 164928, Note_on_c, 2, 85, 86
4, 165020, Note_off_c, 2, 81, 0
4, 165020, Note_off_c, 2, 85, 0
4, 165024, Note_on_c, 2, 76, 86
4, 165116, Note_off_c, 2, 76, 0
4, 165120, Note_on_c, 2, 80, 86
4, 165120, Note_on_c, 2, 83, 86
4, 165212, Note_off_c, 2, 80, 0
4, 165212, Note_off_c, 2, 83, 0
4, 165216, Note_on_c, 2, 74, 86
4, 165308, Note_off_c, 2, 74, 0
4, 165312, Note_on_c, 2, 80, 86
4, 165312, Note_on_c, 2, 83, 86
4, 165404, Note_off_c, 2, 80, 0
4, 165404, Note_off_c, 2, 83, 0
4, 165408, Note_on_c, 2, 74, 86
4, 165500, Note_off_c, 2, 74, 0
4, 165504, Note_on_c, 2, 80, 86
4, 165504, Note_on_c, 2, 83, 86
4, 165596, Note_off_c, 2, 80, 0
4, 165596, Note_off_c, 2, 83, 0
4, 165600, Note_on_c, 2, 74, 86
4, 165692, Note_off_c, 2, 74, 0
4, 165696, Note_on_c, 2, 80, 86
4, 165696, Note_on_c, 2, 83, 86
4, 165788, Note_off_c, 2, 80, 0
4, 165788, Note_off_c, 2, 83, 0
4, 165792, Note_on_c, 2, 74, 86
4, 165884, Note_off_c, 2, 74, 0
4, 165888, Note_on_c, 2, 81, 86
4, 165888, Note_on_c, 2, 76, 86
4, 165888, Note_on_c, 2, 73, 86
4, 166076, Note_off_c, 2, 81, 0
4, 166076, Note_off_c, 2, 76, 0
4, 166076, Note_off_c, 2, 73, 0
4, 166080, Note_on_c, 2, 85, 89
4, 166172, Note_off_c, 2, 85, 0
4, 166176, Note_on_c, 2, 81, 83
4, 166268, Note_off_c, 2, 81, 0
4, 166272, Note_on_c, 2, 76, 86
4, 166844, Note_off_c, 2, 76, 0
4, 166848, Note_on_c, 2, 81, 90
4, 166940, Note_off_c, 2, 81, 0
4, 166944, Note_on_c, 2, 76, 82
4, 167036, Note_off_c, 2, 76, 0
4, 167040, Note_on_c, 2, 73, 86
4, 167228, Note_off_c, 2, 73, 0
4, 167232, Note_on_c, 2, 76, 90
4, 167324, Note_off_c, 2, 76, 0
4, 167328, Note_on_c, 2, 73, 82
4, 167420, Note_off_c, 2, 73, 0
4, 167424, Note_on_c, 2, 69, 86
4, 167612, Note_off_c, 2, 69, 0
4, 167616, Note_on_c, 2, 73, 90
4, 167708, Note_off_c, 2, 73, 0
4, 167712, Note_on_c, 2, 69, 82
4, 167804, Note_off_c, 2, 69, 0
4, 167808, Note_on_c, 2, 64, 86
4, 168380, Note_off_c, 2, 64, 0
4, 168384, Note_on_c, 2, 69, 90
4, 168476, Note_off_c, 2, 69, 0
4, 168480, Note_on_c, 2, 64, 82
4, 168572, Note_off_c, 2, 64, 0
4, 168576, Note_on_c, 2, 61, 86
4, 169148, Note_off_c, 2, 61, 0
4, 169152, Note_on_c, 2, 64, 90
4, 169244, Note_off_c, 2, 64, 0
4, 169248, Note_on_c, 2, 61, 82
4, 169340, Note_off_c, 2, 61, 0
4, 169344, Note_on_c, 2, 57, 86
4, 169916, Note_off_c, 2, 57, 0
4, 169920, Note_on_c, 2, 61, 86
4, 170108, Note_off_c, 2, 61, 0
4, 170112, Note_on_c, 2, 57, 86
4, 170300, Note_off_c, 2, 57, 0
4, 170304, Note_on_c, 2, 61, 86
4, 170492, Note_off_c, 2, 61, 0
4, 170496, Note_on_c, 2, 57, 86
4, 170876, Note_off_c, 2, 57, 0
4, 170880, Note_on_c, 2, 76, 86
4, 170880, Note_on_c, 2, 73, 86
4, 170880, Note_on_c, 2, 69, 86
4, 171260, Note_off_c, 2, 76, 0
4, 171260, Note_off_c, 2, 73, 0
4, 171260, Note_off_c, 2, 69, 0
4, 171264, Note_on_c, 2, 81, 86
4, 171264, Note_on_c, 2, 76, 86
4, 171264, Note_on_c, 2, 73, 86
4, 171264, Note_on_c, 2, 69, 86
4, 171644, Note_off_c, 2, 81, 0
4, 171644, Note_off_c, 2, 76, 0
4, 171644, Note_off_c, 2, 73, 0
4, 171644, Note_off_c, 2, 69, 0
4, 172032, Note_on_c, 2, 76, 59
4, 172032, Note_on_c, 2, 73, 59
4, 172412, Note_off_c, 2, 76, 0
4, 172412, Note_off_c, 2, 73, 0
4, 172416, Note_on_c, 2, 78, 59
4, 172416, Note_on_c, 2, 74, 59
4, 172796, Note_off_c, 2, 78, 0
4, 172796, Note_off_c, 2, 74, 0
4, 172800, Note_on_c, 2, 76, 59
4, 172800, Note_on_c, 2, 73, 59
4, 173180, Note_off_c, 2, 76, 0
4, 173180, Note_off_c, 2, 73, 0
4, 173184, Note_on_c, 2, 78, 59
4, 173184, Note_on_c, 2, 74, 59
4, 173564, Note_off_c, 2, 78, 0
4, 173564, Note_off_c, 2, 74, 0
4, 173568, Note_on_c, 2, 76, 59
4, 173568, Note_on_c, 2, 73, 59
4, 173948, Note_off_c, 2, 76, 0
4, 173948, Note_off_c, 2, 73, 0
4, 175296, Note_on_c, 2, 76, 59
4, 175296, Note_on_c, 2, 73, 59
4, 175388, Note_off_c, 2, 76, 0
4, 175388, Note_off_c, 2, 73, 0
4, 175488, Note_on_c, 2, 74, 59
4, 175488, Note_on_c, 2, 71, 59
4, 175580, Note_off_c, 2, 74, 0
4, 175580, Note_off_c, 2, 71, 0
4, 175680, Note_on_c, 2, 73, 59
4, 175680, Note_on_c, 2, 69, 59
4, 175772, Note_off_c, 2, 73, 0
4, 175772, Note_off_c, 2, 69, 0
4, 175872, Note_on_c, 2, 71, 59
4, 175872, Note_on_c, 2, 68, 59
4, 175964, Note_off_c, 2, 71, 0
4, 175964, Note_off_c, 2, 68, 0
4, 176064, Note_on_c, 2, 73, 59
4, 176064, Note_on_c, 2, 69, 59
4, 176156, Note_off_c, 2, 73, 0
4, 176156, Note_off_c, 2, 69, 0
4, 176256, Note_on_c, 2, 74, 59
4, 176256, Note_on_c, 2, 71, 59
4, 176348, Note_off_c, 2, 74, 0
4, 176348, Note_off_c, 2, 71, 0
4, 176448, Note_on_c, 2, 71, 59
4, 176448, Note_on_c, 2, 68, 59
4, 176540, Note_off_c, 2, 71, 0
4, 176540, Note_off_c, 2, 68, 0
4, 176640, Note_on_c, 2, 73, 59
4, 176640, Note_on_c, 2, 69, 59
4, 176732, Note_off_c, 2, 73, 0
4, 176732, Note_off_c, 2, 69, 0
4, 176832, Note_on_c, 2, 73, 59
4, 176832, Note_on_c, 2, 64, 59
4, 176924, Note_off_c, 2, 73, 0
4, 176924, Note_off_c, 2, 64, 0
4, 177024, Note_on_c, 2, 71, 59
4, 177024, Note_on_c, 2, 62, 59
4, 177116, Note_off_c, 2, 71, 0
4, 177116, Note_off_c, 2, 62, 0
4, 177216, Note_on_c, 2, 69, 59
4, 177216, Note_on_c, 2, 61, 59
4, 177308, Note_off_c, 2, 69, 0
4, 177308, Note_off_c, 2, 61, 0
4, 177408, Note_on_c, 2, 68, 59
4, 177408, Note_on_c, 2, 59, 59
4, 177500, Note_off_c, 2, 68, 0
4, 177500, Note_off_c, 2, 59, 0
4, 177600, Note_on_c, 2, 69, 59
4, 177600, Note_on_c, 2, 61, 59
4, 177692, Note_off_c, 2, 69, 0
4, 177692, Note_off_c, 2, 61, 0
4, 177792, Note_on_c, 2, 71, 59
4, 177792, Note_on_c, 2, 62, 59
4, 177884, Note_off_c, 2, 71, 0
4, 177884, Note_off_c, 2, 62, 0
4, 177984, Note_on_c, 2, 68, 59
4, 177984, Note_on_c, 2, 59, 59
4, 178076, Note_off_c, 2, 68, 0
4, 178076, Note_off_c, 2, 59, 0
4, 178176, Note_on_c, 2, 69, 59
4, 178176, Note_on_c, 2, 61, 59
4, 178268, Note_off_c, 2, 69, 0
4, 178268, Note_off_c, 2, 61, 0
4, 178368, Note_on_c, 2, 64, 59
4, 178368, Note_on_c, 2, 61, 59
4, 178460, Note_off_c, 2, 64, 0
4, 178460, Note_off_c, 2, 61, 0
4, 178560, Note_on_c, 2, 62, 59
4, 178560, Note_on_c, 2, 59, 59
4, 178652, Note_off_c, 2, 62, 0
4, 178652, Note_off_c, 2, 59, 0
4, 178752, Note_on_c, 2, 61, 59
4, 178752, Note_on_c, 2, 57, 59
4, 178844, Note_off_c, 2, 61, 0
4, 178844, Note_off_c, 2, 57, 0
4, 178944, Note_on_c, 2, 59, 59
4, 178944, Note_on_c, 2, 56, 59
4, 179036, Note_off_c, 2, 59, 0
4, 179036, Note_off_c, 2, 56, 0
4, 179136, Note_on_c, 2, 61, 59
4, 179136, Note_on_c, 2, 57, 59
4, 179228, Note_off_c, 2, 61, 0
4, 179228, Note_off_c, 2, 57, 0
4, 179328, Note_on_c, 2, 62, 59
4, 179328, Note_on_c, 2, 59, 59
4, 179420, Note_off_c, 2, 62, 0
4, 179420, Note_off_c, 2, 59, 0
4, 179520, Note_on_c, 2, 59, 59
4, 179520, Note_on_c, 2, 56, 59
4, 179612, Note_off_c, 2, 59, 0
4, 179612, Note_off_c, 2, 56, 0
4, 179712, Note_on_c, 2, 64, 59
4, 179712, Note_on_c, 2, 61, 59
4, 179712, Note_on_c, 2, 57, 59
4, 179900, Note_off_c, 2, 57, 0
4, 180092, Note_off_c, 2, 64, 0
4, 180092, Note_off_c, 2, 61, 0
4, 180672, Note_on_c, 2, 57, 59
4, 180860, Note_off_c, 2, 57, 0
4, 180864, Note_on_c, 2, 64, 59
4, 181052, Note_off_c, 2, 64, 0
4, 181056, Note_on_c, 2, 61, 59
4, 181244, Note_off_c, 2, 61, 0
4, 181248, Note_on_c, 2, 74, 86
4, 181248, Note_on_c, 2, 66, 86
4, 181340, Note_off_c, 2, 66, 0
4, 181344, Note_on_c, 2, 69, 86
4, 181436, Note_off_c, 2, 69, 0
4, 181440, Note_on_c, 2, 66, 86
4, 181532, Note_off_c, 2, 66, 0
4, 181536, Note_on_c, 2, 69, 86
4, 181628, Note_off_c, 2, 69, 0
4, 181632, Note_on_c, 2, 66, 86
4, 181820, Note_off_c, 2, 74, 0
4, 181820, Note_off_c, 2, 66, 0
4, 181824, Note_on_c, 2, 69, 86
4, 181824, Note_on_c, 2, 76, 91
4, 181864, Note_off_c, 2, 76, 0
4, 181872, Note_on_c, 2, 74, 91
4, 181912, Note_off_c, 2, 74, 0
4, 181920, Note_on_c, 2, 73, 91
4, 181960, Note_off_c, 2, 73, 0
4, 181968, Note_on_c, 2, 74, 91
4, 182008, Note_off_c, 2, 74, 0
4, 182012, Note_off_c, 2, 69, 0
4, 182016, Note_on_c, 2, 69, 86
4, 182016, Note_on_c, 2, 76, 86
4, 182108, Note_off_c, 2, 69, 0
4, 182108, Note_off_c, 2, 76, 0
4, 182208, Note_on_c, 2, 69, 86
4, 182208, Note_on_c, 2, 74, 86
4, 182300, Note_off_c, 2, 69, 0
4, 182300, Note_off_c, 2, 74, 0
4, 182400, Note_on_c, 2, 69, 86
4, 182400, Note_on_c, 2, 76, 86
4, 182492, Note_off_c, 2, 69, 0
4, 182492, Note_off_c, 2, 76, 0
4, 182592, Note_on_c, 2, 69, 86
4, 182592, Note_on_c, 2, 73, 86
4, 182684, Note_off_c, 2, 69, 0
4, 182684, Note_off_c, 2, 73, 0
4, 182784, Note_on_c, 2, 74, 86
4, 182784, Note_on_c, 2, 74, 86
4, 182876, Note_off_c, 2, 74, 0
4, 182880, Note_on_c, 2, 69, 86
4, 182972, Note_off_c, 2, 69, 0
4, 182976, Note_on_c, 2, 66, 86
4, 183068, Note_off_c, 2, 66, 0
4, 183072, Note_on_c, 2, 69, 86
4, 183164, Note_off_c, 2, 69, 0
4, 183168, Note_on_c, 2, 62, 86
4, 183356, Note_off_c, 2, 74, 0
4, 183356, Note_off_c, 2, 62, 0
4, 183360, Note_on_c, 2, 69, 86
4, 183360, Note_on_c, 2, 79, 91
4, 183400, Note_off_c, 2, 79, 0
4, 183408, Note_on_c, 2, 78, 91
4, 183448, Note_off_c, 2, 78, 0
4, 183456, Note_on_c, 2, 76, 91
4, 183496, Note_off_c, 2, 76, 0
4, 183504, Note_on_c, 2, 78, 91
4, 183544, Note_off_c, 2, 78, 0
4, 183548, Note_off_c, 2, 69, 0
4, 183552, Note_on_c, 2, 69, 86
4, 183552, Note_on_c, 2, 79, 86
4, 183644, Note_off_c, 2, 69, 0
4, 183644, Note_off_c, 2, 79, 0
4, 183744, Note_on_c, 2, 69, 86
4, 183744, Note_on_c, 2, 78, 86
4, 183836, Note_off_c, 2, 69, 0
4, 183836, Note_off_c, 2, 78, 0
4, 183936, Note_on_c, 2, 69, 86
4, 183936, Note_on_c, 2, 79, 86
4, 184028, Note_off_c, 2, 69, 0
4, 184028, Note_off_c, 2, 79, 0
4, 184128, Note_on_c, 2, 69, 86
4, 184128, Note_on_c, 2, 76, 86
4, 184220, Note_off_c, 2, 69, 0
4, 184220, Note_off_c, 2, 76, 0
4, 184320, Note_on_c, 2, 78, 59
4, 184320, Note_on_c, 2, 81, 59
4, 184700, Note_off_c, 2, 78, 0
4, 184700, Note_off_c, 2, 81, 0
4, 184704, Note_on_c, 2, 79, 59
4, 184704, Note_on_c, 2, 83, 59
4, 185084, Note_off_c, 2, 79, 0
4, 185084, Note_off_c, 2, 83, 0
4, 185088, Note_on_c, 2, 78, 59
4, 185088, Note_on_c, 2, 81, 59
4, 185468, Note_off_c, 2, 78, 0
4, 185468, Note_off_c, 2, 81, 0
4, 185472, Note_on_c, 2, 83, 59
4, 185472, Note_on_c, 2, 79, 59
4, 185852, Note_off_c, 2, 83, 0
4, 185852, Note_off_c, 2, 79, 0
4, 185856, Note_on_c, 2, 78, 59
4, 185856, Note_on_c, 2, 81, 59
4, 186236, Note_off_c, 2, 78, 0
4, 186236, Note_off_c, 2, 81, 0
4, 187584, Note_on_c, 2, 81, 59
4, 187584, Note_on_c, 2, 78, 59
4, 187676, Note_off_c, 2, 81, 0
4, 187676, Note_off_c, 2, 78, 0
4, 187776, Note_on_c, 2, 79, 59
4, 187776, Note_on_c, 2, 76, 59
4, 187868, Note_off_c, 2, 79, 0
4, 187868, Note_off_c, 2, 76, 0
4, 187968, Note_on_c, 2, 78, 59
4, 187968, Note_on_c, 2, 74, 59
4, 188060, Note_off_c, 2, 78, 0
4, 188060, Note_off_c, 2, 74, 0
4, 188160, Note_on_c, 2, 76, 59
4, 188160, Note_on_c, 2, 73, 59
4, 188252, Note_off_c, 2, 76, 0
4, 188252, Note_off_c, 2, 73, 0
4, 188352, Note_on_c, 2, 78, 59
4, 188352, Note_on_c, 2, 74, 59
4, 188444, Note_off_c, 2, 78, 0
4, 188444, Note_off_c, 2, 74, 0
4, 188544, Note_on_c, 2, 79, 59
4, 188544, Note_on_c, 2, 76, 59
4, 188636, Note_off_c, 2, 79, 0
4, 188636, Note_off_c, 2, 76, 0
4, 188736, Note_on_c, 2, 76, 59
4, 188736, Note_on_c, 2, 73, 59
4, 188828, Note_off_c, 2, 76, 0
4, 188828, Note_off_c, 2, 73, 0
4, 188928, Note_on_c, 2, 78, 59
4, 188928, Note_on_c, 2, 74, 59
4, 189020, Note_off_c, 2, 78, 0
4, 189020, Note_off_c, 2, 74, 0
4, 189120, Note_on_c, 2, 78, 59
4, 189120, Note_on_c, 2, 69, 59
4, 189212, Note_off_c, 2, 78, 0
4, 189212, Note_off_c, 2, 69, 0
4, 189312, Note_on_c, 2, 76, 59
4, 189312, Note_on_c, 2, 67, 59
4, 189404, Note_off_c, 2, 76, 0
4, 189404, Note_off_c, 2, 67, 0
4, 189504, Note_on_c, 2, 74, 59
4, 189504, Note_on_c, 2, 66, 59
4, 189596, Note_off_c, 2, 74, 0
4, 189596, Note_off_c, 2, 66, 0
4, 189696, Note_on_c, 2, 73, 59
4, 189696, Note_on_c, 2, 64, 59
4, 189788, Note_off_c, 2, 73, 0
4, 189788, Note_off_c, 2, 64, 0
4, 189888, Note_on_c, 2, 74, 59
4, 189888, Note_on_c, 2, 66, 59
4, 189980, Note_off_c, 2, 74, 0
4, 189980, Note_off_c, 2, 66, 0
4, 190080, Note_on_c, 2, 76, 59
4, 190080, Note_on_c, 2, 67, 59
4, 190172, Note_off_c, 2, 76, 0
4, 190172, Note_off_c, 2, 67, 0
4, 190272, Note_on_c, 2, 73, 59
4, 190272, Note_on_c, 2, 64, 59
4, 190364, Note_off_c, 2, 73, 0
4, 190364, Note_off_c, 2, 64, 0
4, 190464, Note_on_c, 2, 74, 59
4, 190464, Note_on_c, 2, 66, 59
4, 190556, Note_off_c, 2, 74, 0
4, 190556, Note_off_c, 2, 66, 0
4, 190656, Note_on_c, 2, 69, 59
4, 190656, Note_on_c, 2, 66, 59
4, 190748, Note_off_c, 2, 69, 0
4, 190748, Note_off_c, 2, 66, 0
4, 190848, Note_on_c, 2, 67, 59
4, 190848, Note_on_c, 2, 64, 59
4, 190940, Note_off_c, 2, 67, 0
4, 190940, Note_off_c, 2, 64, 0
4, 191040, Note_on_c, 2, 66, 59
4, 191040, Note_on_c, 2, 62, 59
4, 191132, Note_off_c, 2, 66, 0
4, 191132, Note_off_c, 2, 62, 0
4, 191232, Note_on_c, 2, 64, 59
4, 191232, Note_on_c, 2, 61, 59
4, 191324, Note_off_c, 2, 64, 0
4, 191324, Note_off_c, 2, 61, 0
4, 191424, Note_on_c, 2, 66, 59
4, 191424, Note_on_c, 2, 62, 59
4, 191516, Note_off_c, 2, 66, 0
4, 191516, Note_off_c, 2, 62, 0
4, 191616, Note_on_c, 2, 67, 59
4, 191616, Note_on_c, 2, 64, 59
4, 191708, Note_off_c, 2, 67, 0
4, 191708, Note_off_c, 2, 64, 0
4, 191808, Note_on_c, 2, 64, 59
4, 191808, Note_on_c, 2, 61, 59
4, 191900, Note_off_c, 2, 64, 0
4, 191900, Note_off_c, 2, 61, 0
4, 192000, Note_on_c, 2, 66, 59
4, 192000, Note_on_c, 2, 62, 59
4, 192000, Note_on_c, 2, 57, 59
4, 192380, Note_off_c, 2, 66, 0
4, 192380, Note_off_c, 2, 62, 0
4, 192380, Note_off_c, 2, 57, 0
4, 193536, Note_on_c, 2, 79, 86
4, 193536, Note_on_c, 2, 71, 86
4, 193628, Note_off_c, 2, 71, 0
4, 193632, Note_on_c, 2, 74, 86
4, 193724, Note_off_c, 2, 74, 0
4, 193728, Note_on_c, 2, 71, 86
4, 193820, Note_off_c, 2, 71, 0
4, 193824, Note_on_c, 2, 74, 86
4, 193916, Note_off_c, 2, 74, 0
4, 193920, Note_on_c, 2, 71, 86
4, 194108, Note_off_c, 2, 79, 0
4, 194108, Note_off_c, 2, 71, 0
4, 194112, Note_on_c, 2, 74, 86
4, 194112, Note_on_c, 2, 81, 91
4, 194152, Note_off_c, 2, 81, 0
4, 194160, Note_on_c, 2, 79, 91
4, 194200, Note_off_c, 2, 79, 0
4, 194208, Note_on_c, 2, 78, 91
4, 194248, Note_off_c, 2, 78, 0
4, 194256, Note_on_c, 2, 79, 91
4, 194296, Note_off_c, 2, 79, 0
4, 194300, Note_off_c, 2, 74, 0
4, 194304, Note_on_c, 2, 81, 86
4, 194304, Note_on_c, 2, 74, 86
4, 194396, Note_off_c, 2, 81, 0
4, 194396, Note_off_c, 2, 74, 0
4, 194496, Note_on_c, 2, 79, 86
4, 194496, Note_on_c, 2, 74, 86
4, 194588, Note_off_c, 2, 79, 0
4, 194588, Note_off_c, 2, 74, 0
4, 194688, Note_on_c, 2, 81, 86
4, 194688, Note_on_c, 2, 74, 86
4, 194780, Note_off_c, 2, 81, 0
4, 194780, Note_off_c, 2, 74, 0
4, 194880, Note_on_c, 2, 78, 86
4, 194880, Note_on_c, 2, 74, 86
4, 194972, Note_off_c, 2, 78, 0
4, 194972, Note_off_c, 2, 74, 0
4, 195072, Note_on_c, 2, 79, 86
4, 195072, Note_on_c, 2, 74, 86
4, 195644, Note_off_c, 2, 79, 0
4, 195644, Note_off_c, 2, 74, 0
4, 195648, Note_on_c, 2, 84, 91
4, 195688, Note_off_c, 2, 84, 0
4, 195696, Note_on_c, 2, 83, 91
4, 195736, Note_off_c, 2, 83, 0
4, 195744, Note_on_c, 2, 81, 91
4, 195784, Note_off_c, 2, 81, 0
4, 195792, Note_on_c, 2, 83, 91
4, 195832, Note_off_c, 2, 83, 0
4, 195840, Note_on_c, 2, 84, 86
4, 195840, Note_on_c, 2, 74, 86
4, 195932, Note_off_c, 2, 84, 0
4, 195932, Note_off_c, 2, 74, 0
4, 196032, Note_on_c, 2, 83, 86
4, 196032, Note_on_c, 2, 74, 86
4, 196124, Note_off_c, 2, 83, 0
4, 196124, Note_off_c, 2, 74, 0
4, 196224, Note_on_c, 2, 84, 86
4, 196224, Note_on_c, 2, 74, 86
4, 196316, Note_off_c, 2, 84, 0
4, 196316, Note_off_c, 2, 74, 0
4, 196416, Note_on_c, 2, 81, 86
4, 196416, Note_on_c, 2, 74, 86
4, 196508, Note_off_c, 2, 81, 0
4, 196508, Note_off_c, 2, 74, 0
4, 196608, Note_on_c, 2, 83, 86
4, 196608, Note_on_c, 2, 79, 86
4, 196608, Note_on_c, 2, 74, 86
4, 196988, Note_off_c, 2, 83, 0
4, 196988, Note_off_c, 2, 79, 0
4, 196988, Note_off_c, 2, 74, 0
4, 198144, Note_on_c, 2, 66, 64
4, 198908, Note_off_c, 2, 66, 0
4, 198912, Note_on_c, 2, 64, 59
4, 199292, Note_off_c, 2, 64, 0
4, 201216, Note_on_c, 2, 64, 64
4, 201980, Note_off_c, 2, 64, 0
4, 201984, Note_on_c, 2, 62, 59
4, 202364, Note_off_c, 2, 62, 0
4, 202752, Note_on_c, 2, 72, 59
4, 202752, Note_on_c, 2, 67, 59
4, 202752, Note_on_c, 2, 64, 59
4, 203132, Note_off_c, 2, 72, 0
4, 203132, Note_off_c, 2, 67, 0
4, 203132, Note_off_c, 2, 64, 0
4, 203520, Note_on_c, 2, 72, 59
4, 203520, Note_on_c, 2, 67, 59
4, 203520, Note_on_c, 2, 64, 59
4, 203900, Note_off_c, 2, 72, 0
4, 203900, Note_off_c, 2, 67, 0
4, 203900, Note_off_c, 2, 64, 0
4, 204288, Note_on_c, 2, 72, 64
4, 204288, Note_on_c, 2, 67, 64
4, 204288, Note_on_c, 2, 64, 64
4, 205436, Note_off_c, 2, 72, 0
4, 205436, Note_off_c, 2, 67, 0
4, 205436, Note_off_c, 2, 64, 0
4, 205440, Note_on_c, 2, 71, 59
4, 205440, Note_on_c, 2, 68, 59
4, 205440, Note_on_c, 2, 62, 59
4, 205820, Note_off_c, 2, 71, 0
4, 205820, Note_off_c, 2, 68, 0
4, 205820, Note_off_c, 2, 62, 0
4, 205824, Note_on_c, 2, 70, 59
4, 205824, Note_on_c, 2, 66, 59
4, 205824, Note_on_c, 2, 61, 59
4, 206204, Note_off_c, 2, 70, 0
4, 206204, Note_off_c, 2, 66, 0
4, 206204, Note_off_c, 2, 61, 0
4, 206592, Note_on_c, 2, 70, 59
4, 206592, Note_on_c, 2, 78, 64
4, 206780, Note_off_c, 2, 70, 0
4, 206784, Note_on_c, 2, 71, 59
4, 206972, Note_off_c, 2, 71, 0
4, 206976, Note_on_c, 2, 73, 59
4, 207164, Note_off_c, 2, 73, 0
4, 207168, Note_on_c, 2, 70, 59
4, 207356, Note_off_c, 2, 70, 0
4, 207360, Note_on_c, 2, 71, 59
4, 207740, Note_off_c, 2, 78, 0
4, 207740, Note_off_c, 2, 71, 0
4, 208128, Note_on_c, 2, 63, 59
4, 208128, Note_on_c, 2, 71, 61
4, 208316, Note_off_c, 2, 63, 0
4, 208320, Note_on_c, 2, 64, 59
4, 208508, Note_off_c, 2, 64, 0
4, 208512, Note_on_c, 2, 66, 59
4, 208700, Note_off_c, 2, 66, 0
4, 208704, Note_on_c, 2, 63, 59
4, 208892, Note_off_c, 2, 63, 0
4, 208896, Note_on_c, 2, 64, 59
4, 209276, Note_off_c, 2, 71, 0
4, 209276, Note_off_c, 2, 64, 0
4, 209664, Note_on_c, 2, 68, 59
4, 209664, Note_on_c, 2, 76, 61
4, 209852, Note_off_c, 2, 68, 0
4, 209856, Note_on_c, 2, 69, 59
4, 210044, Note_off_c, 2, 69, 0
4, 210048, Note_on_c, 2, 71, 59
4, 210236, Note_off_c, 2, 71, 0
4, 210240, Note_on_c, 2, 68, 59
4, 210428, Note_off_c, 2, 68, 0
4, 210432, Note_on_c, 2, 69, 59
4, 210812, Note_off_c, 2, 76, 0
4, 210812, Note_off_c, 2, 69, 0
4, 211200, Note_on_c, 2, 67, 59
4, 211200, Note_on_c, 2, 69, 61
4, 211388, Note_off_c, 2, 67, 0
4, 211392, Note_on_c, 2, 66, 59
4, 211580, Note_off_c, 2, 66, 0
4, 211584, Note_on_c, 2, 64, 59
4, 211772, Note_off_c, 2, 64, 0
4, 211776, Note_on_c, 2, 67, 59
4, 211964, Note_off_c, 2, 67, 0
4, 211968, Note_on_c, 2, 66, 59
4, 212348, Note_off_c, 2, 69, 0
4, 212348, Note_off_c, 2, 66, 0
4, 212352, Note_on_c, 2, 69, 59
4, 212352, Note_on_c, 2, 74, 59
4, 212732, Note_off_c, 2, 69, 0
4, 212736, Note_on_c, 2, 71, 59
4, 213116, Note_off_c, 2, 74, 0
4, 213116, Note_off_c, 2, 71, 0
4, 213120, Note_on_c, 2, 71, 59
4, 213120, Note_on_c, 2, 64, 59
4, 213500, Note_off_c, 2, 71, 0
4, 213500, Note_off_c, 2, 64, 0
4, 213504, Note_on_c, 2, 69, 59
4, 213504, Note_on_c, 2, 64, 59
4, 213504, Note_on_c, 2, 61, 59
4, 213692, Note_off_c, 2, 69, 0
4, 213692, Note_off_c, 2, 64, 0
4, 213692, Note_off_c, 2, 61, 0
4, 213696, Note_on_c, 2, 64, 59
4, 213696, Note_on_c, 2, 61, 59
4, 213884, Note_off_c, 2, 64, 0
4, 213884, Note_off_c, 2, 61, 0
4, 213888, Note_on_c, 2, 66, 59
4, 213888, Note_on_c, 2, 62, 59
4, 213888, Note_on_c, 2, 57, 59
4, 214076, Note_off_c, 2, 66, 0
4, 214076, Note_off_c, 2, 62, 0
4, 214076, Note_off_c, 2, 57, 0
4, 214080, Note_on_c, 2, 69, 59
4, 214080, Note_on_c, 2, 66, 59
4, 214080, Note_on_c, 2, 62, 59
4, 214268, Note_off_c, 2, 69, 0
4, 214268, Note_off_c, 2, 66, 0
4, 214268, Note_off_c, 2, 62, 0
4, 214272, Note_on_c, 2, 71, 59
4, 214272, Note_on_c, 2, 67, 59
4, 214652, Note_off_c, 2, 71, 0
4, 214652, Note_off_c, 2, 67, 0
4, 214656, Note_on_c, 2, 62, 59
4, 214656, Note_on_c, 2, 59, 59
4, 215036, Note_off_c, 2, 62, 0
4, 215036, Note_off_c, 2, 59, 0
4, 215040, Note_on_c, 2, 61, 59
4, 215040, Note_on_c, 2, 57, 59
4, 215420, Note_off_c, 2, 61, 0
4, 215420, Note_off_c, 2, 57, 0
4, 215616, Note_on_c, 2, 74, 59
4, 215616, Note_on_c, 2, 66, 59
4, 215804, Note_off_c, 2, 74, 0
4, 215804, Note_off_c, 2, 66, 0
4, 215808, Note_on_c, 2, 73, 59
4, 215808, Note_on_c, 2, 64, 59
4, 216188, Note_off_c, 2, 73, 0
4, 216188, Note_off_c, 2, 64, 0
4, 216384, Note_on_c, 2, 78, 59
4, 216384, Note_on_c, 2, 74, 59
4, 216572, Note_off_c, 2, 78, 0
4, 216572, Note_off_c, 2, 74, 0
4, 216576, Note_on_c, 2, 76, 59
4, 216576, Note_on_c, 2, 73, 59
4, 216956, Note_off_c, 2, 76, 0
4, 216956, Note_off_c, 2, 73, 0
4, 217152, Note_on_c, 2, 78, 59
4, 217152, Note_on_c, 2, 74, 59
4, 217152, Note_on_c, 2, 69, 59
4, 217340, Note_off_c, 2, 78, 0
4, 217340, Note_off_c, 2, 74, 0
4, 217340, Note_off_c, 2, 69, 0
4, 217344, Note_on_c, 2, 81, 59
4, 217344, Note_on_c, 2, 76, 59
4, 217344, Note_on_c, 2, 69, 59
4, 217724, Note_off_c, 2, 81, 0
4, 217724, Note_off_c, 2, 76, 0
4, 217724, Note_off_c, 2, 69, 0
4, 217920, Note_on_c, 2, 78, 59
4, 217920, Note_on_c, 2, 74, 59
4, 217920, Note_on_c, 2, 69, 59
4, 218108, Note_off_c, 2, 78, 0
4, 218108, Note_off_c, 2, 74, 0
4, 218108, Note_off_c, 2, 69, 0
4, 218112, Note_on_c, 2, 76, 59
4, 218112, Note_on_c, 2, 73, 59
4, 218112, Note_on_c, 2, 57, 59
4, 218492, Note_off_c, 2, 76, 0
4, 218492, Note_off_c, 2, 73, 0
4, 218492, Note_off_c, 2, 57, 0
4, 218496, Note_on_c, 2, 76, 59
4, 218496, Note_on_c, 2, 73, 59
4, 218496, Note_on_c, 2, 64, 59
4, 218496, Note_on_c, 2, 69, 59
4, 218876, Note_off_c, 2, 76, 0
4, 218876, Note_off_c, 2, 73, 0
4, 218876, Note_off_c, 2, 64, 0
4, 218876, Note_off_c, 2, 69, 0
4, 218880, Note_on_c, 2, 76, 59
4, 218880, Note_on_c, 2, 73, 59
4, 218880, Note_on_c, 2, 69, 59
4, 218880, Note_on_c, 2, 64, 59
4, 218880, Note_on_c, 2, 57, 59
4, 219260, Note_off_c, 2, 76, 0
4, 219260, Note_off_c, 2, 73, 0
4, 219260, Note_off_c, 2, 69, 0
4, 219260, Note_off_c, 2, 64, 0
4, 219260, Note_off_c, 2, 57, 0
4, 219648, Note_on_c, 2, 74, 86
4, 219648, Note_on_c, 2, 66, 86
4, 219740, Note_off_c, 2, 66, 0
4, 219744, Note_on_c, 2, 69, 86
4, 219836, Note_off_c, 2, 69, 0
4, 219840, Note_on_c, 2, 66, 86
4, 219932, Note_off_c, 2, 66, 0
4, 219936, Note_on_c, 2, 69, 86
4, 220028, Note_off_c, 2, 69, 0
4, 220032, Note_on_c, 2, 66, 86
4, 220220, Note_off_c, 2, 74, 0
4, 220220, Note_off_c, 2, 66, 0
4, 220224, Note_on_c, 2, 69, 86
4, 220224, Note_on_c, 2, 76, 86
4, 220264, Note_off_c, 2, 76, 0
4, 220272, Note_on_c, 2, 74, 86
4, 220312, Note_off_c, 2, 74, 0
4, 220320, Note_on_c, 2, 73, 86
4, 220360, Note_off_c, 2, 73, 0
4, 220368, Note_on_c, 2, 74, 86
4, 220408, Note_off_c, 2, 74, 0
4, 220412, Note_off_c, 2, 69, 0
4, 220416, Note_on_c, 2, 76, 86
4, 220416, Note_on_c, 2, 69, 86
4, 220508, Note_off_c, 2, 76, 0
4, 220508, Note_off_c, 2, 69, 0
4, 220608, Note_on_c, 2, 74, 86
4, 220608, Note_on_c, 2, 69, 86
4, 220700, Note_off_c, 2, 74, 0
4, 220700, Note_off_c, 2, 69, 0
4, 220800, Note_on_c, 2, 76, 86
4, 220800, Note_on_c, 2, 69, 86
4, 220892, Note_off_c, 2, 76, 0
4, 220892, Note_off_c, 2, 69, 0
4, 220992, Note_on_c, 2, 73, 86
4, 220992, Note_on_c, 2, 69, 86
4, 221084, Note_off_c, 2, 73, 0
4, 221084, Note_off_c, 2, 69, 0
4, 221184, Note_on_c, 2, 74, 86
4, 221184, Note_on_c, 2, 74, 86
4, 221276, Note_off_c, 2, 74, 0
4, 221280, Note_on_c, 2, 69, 86
4, 221372, Note_off_c, 2, 69, 0
4, 221376, Note_on_c, 2, 66, 86
4, 221468, Note_off_c, 2, 66, 0
4, 221472, Note_on_c, 2, 69, 86
4, 221564, Note_off_c, 2, 69, 0
4, 221568, Note_on_c, 2, 62, 86
4, 221756, Note_off_c, 2, 74, 0
4, 221756, Note_off_c, 2, 62, 0
4, 221760, Note_on_c, 2, 69, 86
4, 221760, Note_on_c, 2, 79, 86
4, 221800, Note_off_c, 2, 79, 0
4, 221808, Note_on_c, 2, 78, 86
4, 221848, Note_off_c, 2, 78, 0
4, 221856, Note_on_c, 2, 76, 86
4, 221896, Note_off_c, 2, 76, 0
4, 221904, Note_on_c, 2, 78, 86
4, 221944, Note_off_c, 2, 78, 0
4, 221948, Note_off_c, 2, 69, 0
4, 221952, Note_on_c, 2, 79, 86
4, 221952, Note_on_c, 2, 69, 86
4, 222044, Note_off_c, 2, 79, 0
4, 222044, Note_off_c, 2, 69, 0
4, 222144, Note_on_c, 2, 78, 86
4, 222144, Note_on_c, 2, 69, 86
4, 222236, Note_off_c, 2, 78, 0
4, 222236, Note_off_c, 2, 69, 0
4, 222336, Note_on_c, 2, 79, 86
4, 222336, Note_on_c, 2, 69, 86
4, 222428, Note_off_c, 2, 79, 0
4, 222428, Note_off_c, 2, 69, 0
4, 222528, Note_on_c, 2, 76, 86
4, 222528, Note_on_c, 2, 69, 86
4, 222620, Note_off_c, 2, 76, 0
4, 222620, Note_off_c, 2, 69, 0
4, 222720, Note_on_c, 2, 78, 86
4, 222720, Note_on_c, 2, 69, 86
4, 222812, Note_off_c, 2, 69, 0
4, 222816, Note_on_c, 2, 74, 86
4, 222908, Note_off_c, 2, 74, 0
4, 222912, Note_on_c, 2, 69, 86
4, 223004, Note_off_c, 2, 69, 0
4, 223008, Note_on_c, 2, 74, 86
4, 223100, Note_off_c, 2, 74, 0
4, 223104, Note_on_c, 2, 69, 86
4, 223292, Note_off_c, 2, 78, 0
4, 223292, Note_off_c, 2, 69, 0
4, 223296, Note_on_c, 2, 74, 86
4, 223312, Note_on_c, 2, 83, 86
4, 223344, Note_on_c, 2, 81, 86
4, 223352, Note_off_c, 2, 83, 0
4, 223384, Note_off_c, 2, 81, 0
4, 223392, Note_on_c, 2, 79, 86
4, 223432, Note_off_c, 2, 79, 0
4, 223440, Note_on_c, 2, 81, 86
4, 223480, Note_off_c, 2, 81, 0
4, 223484, Note_off_c, 2, 74, 0
4, 223488, Note_on_c, 2, 83, 86
4, 223488, Note_on_c, 2, 74, 86
4, 223580, Note_off_c, 2, 83, 0
4, 223580, Note_off_c, 2, 74, 0
4, 223680, Note_on_c, 2, 81, 86
4, 223680, Note_on_c, 2, 74, 86
4, 223772, Note_off_c, 2, 81, 0
4, 223772, Note_off_c, 2, 74, 0
4, 223872, Note_on_c, 2, 83, 86
4, 223872, Note_on_c, 2, 74, 86
4, 223964, Note_off_c, 2, 83, 0
4, 223964, Note_off_c, 2, 74, 0
4, 224064, Note_on_c, 2, 85, 86
4, 224064, Note_on_c, 2, 79, 86
4, 224156, Note_off_c, 2, 85, 0
4, 224156, Note_off_c, 2, 79, 0
4, 224256, Note_on_c, 2, 78, 86
4, 224256, Note_on_c, 2, 86, 86
4, 224828, Note_off_c, 2, 78, 0
4, 224828, Note_off_c, 2, 86, 0
4, 224832, Note_on_c, 2, 69, 59
4, 225020, Note_off_c, 2, 69, 0
4, 225024, Note_on_c, 2, 69, 59
4, 225116, Note_off_c, 2, 69, 0
4, 225216, Note_on_c, 2, 69, 59
4, 225308, Note_off_c, 2, 69, 0
4, 225408, Note_on_c, 2, 69, 59
4, 225500, Note_off_c, 2, 69, 0
4, 225600, Note_on_c, 2, 69, 59
4, 225692, Note_off_c, 2, 69, 0
4, 225792, Note_on_c, 2, 69, 59
4, 226364, Note_off_c, 2, 69, 0
4, 226368, Note_on_c, 2, 69, 59
4, 226556, Note_off_c, 2, 69, 0
4, 226560, Note_on_c, 2, 69, 59
4, 226652, Note_off_c, 2, 69, 0
4, 226752, Note_on_c, 2, 69, 59
4, 226844, Note_off_c, 2, 69, 0
4, 226944, Note_on_c, 2, 69, 59
4, 227036, Note_off_c, 2, 69, 0
4, 227136, Note_on_c, 2, 69, 59
4, 227228, Note_off_c, 2, 69, 0
4, 227328, Note_on_c, 2, 69, 59
4, 227900, Note_off_c, 2, 69, 0
4, 227904, Note_on_c, 2, 74, 59
4, 227904, Note_on_c, 2, 69, 59
4, 228092, Note_off_c, 2, 74, 0
4, 228092, Note_off_c, 2, 69, 0
4, 228096, Note_on_c, 2, 74, 59
4, 228096, Note_on_c, 2, 71, 59
4, 228188, Note_off_c, 2, 74, 0
4, 228188, Note_off_c, 2, 71, 0
4, 228288, Note_on_c, 2, 74, 59
4, 228288, Note_on_c, 2, 69, 59
4, 228380, Note_off_c, 2, 74, 0
4, 228380, Note_off_c, 2, 69, 0
4, 228480, Note_on_c, 2, 74, 59
4, 228480, Note_on_c, 2, 71, 59
4, 228572, Note_off_c, 2, 74, 0
4, 228572, Note_off_c, 2, 71, 0
4, 228672, Note_on_c, 2, 79, 59
4, 228672, Note_on_c, 2, 73, 59
4, 228764, Note_off_c, 2, 79, 0
4, 228764, Note_off_c, 2, 73, 0
4, 228864, Note_on_c, 2, 78, 59
4, 228864, Note_on_c, 2, 74, 59
4, 229052, Note_off_c, 2, 78, 0
4, 229052, Note_off_c, 2, 74, 0
4, 229056, Note_on_c, 2, 69, 59
4, 229056, Note_on_c, 2, 66, 59
4, 229244, Note_off_c, 2, 69, 0
4, 229244, Note_off_c, 2, 66, 0
4, 229248, Note_on_c, 2, 69, 59
4, 229248, Note_on_c, 2, 66, 59
4, 229436, Note_off_c, 2, 69, 0
4, 229436, Note_off_c, 2, 66, 0
4, 229440, Note_on_c, 2, 69, 59
4, 229440, Note_on_c, 2, 66, 59
4, 229628, Note_off_c, 2, 69, 0
4, 229628, Note_off_c, 2, 66, 0
4, 229632, Note_on_c, 2, 69, 59
4, 229632, Note_on_c, 2, 66, 59
4, 229920, Note_on_c, 2, 66, 59
4, 229920, Note_on_c, 2, 62, 59
4, 230012, Note_off_c, 2, 66, 0
4, 230012, Note_off_c, 2, 62, 0
4, 230016, Note_on_c, 2, 69, 59
4, 230016, Note_on_c, 2, 66, 59
4, 230204, Note_off_c, 2, 69, 0
4, 230204, Note_off_c, 2, 66, 0
4, 230396, Note_off_c, 2, 69, 0
4, 230396, Note_off_c, 2, 66, 0
4, 230592, Note_on_c, 2, 71, 59
4, 230592, Note_on_c, 2, 67, 59
4, 230780, Note_off_c, 2, 71, 0
4, 230780, Note_off_c, 2, 67, 0
4, 230784, Note_on_c, 2, 71, 59
4, 230784, Note_on_c, 2, 67, 59
4, 230972, Note_off_c, 2, 71, 0
4, 230972, Note_off_c, 2, 67, 0
4, 230976, Note_on_c, 2, 71, 59
4, 230976, Note_on_c, 2, 67, 59
4, 231164, Note_off_c, 2, 71, 0
4, 231164, Note_off_c, 2, 67, 0
4, 231168, Note_on_c, 2, 67, 59
4, 231168, Note_on_c, 2, 71, 59
4, 231452, Note_off_c, 2, 67, 0
4, 231452, Note_off_c, 2, 71, 0
4, 231456, Note_on_c, 2, 67, 59
4, 231456, Note_on_c, 2, 62, 59
4, 231548, Note_off_c, 2, 67, 0
4, 231548, Note_off_c, 2, 62, 0
4, 231552, Note_on_c, 2, 71, 59
4, 231552, Note_on_c, 2, 67, 59
4, 231932, Note_off_c, 2, 71, 0
4, 231932, Note_off_c, 2, 67, 0
4, 232128, Note_on_c, 2, 69, 59
4, 232128, Note_on_c, 2, 66, 59
4, 232316, Note_off_c, 2, 69, 0
4, 232316, Note_off_c, 2, 66, 0
4, 232320, Note_on_c, 2, 69, 59
4, 232320, Note_on_c, 2, 66, 59
4, 232508, Note_off_c, 2, 69, 0
4, 232508, Note_off_c, 2, 66, 0
4, 232512, Note_on_c, 2, 69, 59
4, 232512, Note_on_c, 2, 66, 59
4, 232700, Note_off_c, 2, 69, 0
4, 232700, Note_off_c, 2, 66, 0
4, 232704, Note_on_c, 2, 69, 59
4, 232704, Note_on_c, 2, 66, 59
4, 232988, Note_off_c, 2, 69, 0
4, 232988, Note_off_c, 2, 66, 0
4, 232992, Note_on_c, 2, 66, 59
4, 232992, Note_on_c, 2, 62, 59
4, 233084, Note_off_c, 2, 66, 0
4, 233084, Note_off_c, 2, 62, 0
4, 233088, Note_on_c, 2, 74, 59
4, 233088, Note_on_c, 2, 66, 59
4, 233468, Note_off_c, 2, 74, 0
4, 233468, Note_off_c, 2, 66, 0
4, 233472, Note_on_c, 2, 73, 59
4, 233472, Note_on_c, 2, 67, 59
4, 233852, Note_off_c, 2, 73, 0
4, 233852, Note_off_c, 2, 67, 0
4, 234624, Note_on_c, 2, 69, 59
4, 234624, Note_on_c, 2, 67, 59
4, 234624, Note_on_c, 2, 64, 59
4, 235004, Note_off_c, 2, 69, 0
4, 235004, Note_off_c, 2, 67, 0
4, 235004, Note_off_c, 2, 64, 0
4, 235008, Note_on_c, 2, 69, 59
4, 235008, Note_on_c, 2, 66, 59
4, 235008, Note_on_c, 2, 62, 59
4, 235388, Note_off_c, 2, 69, 0
4, 235388, Note_off_c, 2, 66, 0
4, 235388, Note_off_c, 2, 62, 0
4, 236160, Note_on_c, 2, 69, 59
4, 236160, Note_on_c, 2, 62, 59
4, 236540, Note_off_c, 2, 69, 0
4, 236540, Note_off_c, 2, 62, 0
4, 236544, Note_on_c, 2, 71, 59
4, 236544, Note_on_c, 2, 59, 59
4, 236924, Note_off_c, 2, 71, 0
4, 236924, Note_off_c, 2, 59, 0
4, 237120, Note_on_c, 2, 59, 59
4, 237308, Note_off_c, 2, 59, 0
4, 237312, Note_on_c, 2, 57, 59
4, 237692, Note_off_c, 2, 57, 0
4, 238080, Note_on_c, 2, 74, 86
4, 238172, Note_off_c, 2, 74, 0
4, 238176, Note_on_c, 2, 73, 86
4, 238268, Note_off_c, 2, 73, 0
4, 238272, Note_on_c, 2, 71, 86
4, 238364, Note_off_c, 2, 71, 0
4, 238368, Note_on_c, 2, 69, 86
4, 238460, Note_off_c, 2, 69, 0
4, 238464, Note_on_c, 2, 74, 86
4, 238556, Note_off_c, 2, 74, 0
4, 238560, Note_on_c, 2, 73, 86
4, 238652, Note_off_c, 2, 73, 0
4, 238656, Note_on_c, 2, 71, 86
4, 238748, Note_off_c, 2, 71, 0
4, 238752, Note_on_c, 2, 69, 86
4, 238844, Note_off_c, 2, 69, 0
4, 238848, Note_on_c, 2, 74, 86
4, 239036, Note_off_c, 2, 74, 0
4, 239040, Note_on_c, 2, 69, 86
4, 239228, Note_off_c, 2, 69, 0
4, 239232, Note_on_c, 2, 66, 86
4, 239420, Note_off_c, 2, 66, 0
4, 239424, Note_on_c, 2, 62, 86
4, 239612, Note_off_c, 2, 62, 0
4, 239616, Note_on_c, 2, 67, 59
4, 239616, Note_on_c, 2, 59, 59
4, 239996, Note_off_c, 2, 67, 0
4, 239996, Note_off_c, 2, 59, 0
4, 240000, Note_on_c, 2, 71, 59
4, 240000, Note_on_c, 2, 64, 59
4, 240380, Note_off_c, 2, 71, 0
4, 240380, Note_off_c, 2, 64, 0
4, 240384, Note_on_c, 2, 64, 59
4, 240384, Note_on_c, 2, 61, 59
4, 240764, Note_off_c, 2, 64, 0
4, 240764, Note_off_c, 2, 61, 0
4, 240768, Note_on_c, 2, 69, 59
4, 240768, Note_on_c, 2, 67, 59
4, 240768, Note_on_c, 2, 64, 59
4, 241148, Note_off_c, 2, 69, 0
4, 241148, Note_off_c, 2, 67, 0
4, 241148, Note_off_c, 2, 64, 0
4, 241152, Note_on_c, 2, 69, 59
4, 241152, Note_on_c, 2, 66, 59
4, 241152, Note_on_c, 2, 62, 59
4, 241532, Note_off_c, 2, 69, 0
4, 241532, Note_off_c, 2, 66, 0
4, 241532, Note_off_c, 2, 62, 0
4, 241536, Note_on_c, 2, 73, 59
4, 241536, Note_on_c, 2, 67, 59
4, 241536, Note_on_c, 2, 64, 59
4, 241916, Note_off_c, 2, 73, 0
4, 241916, Note_off_c, 2, 67, 0
4, 241916, Note_off_c, 2, 64, 0
4, 241920, Note_on_c, 2, 74, 59
4, 241920, Note_on_c, 2, 69, 59
4, 241920, Note_on_c, 2, 62, 59
4, 242300, Note_off_c, 2, 74, 0
4, 242300, Note_off_c, 2, 69, 0
4, 242300, Note_off_c, 2, 62, 0
4, 242688, Note_on_c, 2, 71, 59
4, 242688, Note_on_c, 2, 67, 59
4, 242688, Note_on_c, 2, 64, 59
4, 243260, Note_off_c, 2, 71, 0
4, 243260, Note_off_c, 2, 67, 0
4, 243260, Note_off_c, 2, 64, 0
4, 243264, Note_on_c, 2, 79, 59
4, 243264, Note_on_c, 2, 76, 59
4, 243264, Note_on_c, 2, 71, 59
4, 243452, Note_off_c, 2, 79, 0
4, 243452, Note_off_c, 2, 76, 0
4, 243452, Note_off_c, 2, 71, 0
4, 243456, Note_on_c, 2, 78, 59
4, 243456, Note_on_c, 2, 74, 59
4, 243456, Note_on_c, 2, 69, 59
4, 243836, Note_off_c, 2, 78, 0
4, 243836, Note_off_c, 2, 74, 0
4, 243836, Note_off_c, 2, 69, 0
4, 243840, Note_on_c, 2, 76, 59
4, 243840, Note_on_c, 2, 73, 59
4, 243840, Note_on_c, 2, 67, 59
4, 244220, Note_off_c, 2, 76, 0
4, 244220, Note_off_c, 2, 73, 0
4, 244220, Note_off_c, 2, 67, 0
4, 244224, Note_on_c, 2, 74, 86
4, 244224, Note_on_c, 2, 66, 86
4, 244316, Note_off_c, 2, 66, 0
4, 244320, Note_on_c, 2, 69, 86
4, 244412, Note_off_c, 2, 69, 0
4, 244416, Note_on_c, 2, 66, 86
4, 244508, Note_off_c, 2, 66, 0
4, 244512, Note_on_c, 2, 69, 86
4, 244604, Note_off_c, 2, 69, 0
4, 244608, Note_on_c, 2, 66, 86
4, 244796, Note_off_c, 2, 74, 0
4, 244796, Note_off_c, 2, 66, 0
4, 244800, Note_on_c, 2, 69, 86
4, 244800, Note_on_c, 2, 76, 86
4, 244840, Note_off_c, 2, 76, 0
4, 244848, Note_on_c, 2, 74, 86
4, 244888, Note_off_c, 2, 74, 0
4, 244896, Note_on_c, 2, 73, 86
4, 244936, Note_off_c, 2, 73, 0
4, 244944, Note_on_c, 2, 74, 86
4, 244984, Note_off_c, 2, 74, 0
4, 244988, Note_off_c, 2, 69, 0
4, 244992, Note_on_c, 2, 69, 86
4, 244992, Note_on_c, 2, 76, 86
4, 245084, Note_off_c, 2, 69, 0
4, 245084, Note_off_c, 2, 76, 0
4, 245184, Note_on_c, 2, 69, 86
4, 245184, Note_on_c, 2, 74, 86
4, 245276, Note_off_c, 2, 69, 0
4, 245276, Note_off_c, 2, 74, 0
4, 245376, Note_on_c, 2, 69, 86
4, 245376, Note_on_c, 2, 76, 86
4, 245468, Note_off_c, 2, 69, 0
4, 245468, Note_off_c, 2, 76, 0
4, 245568, Note_on_c, 2, 69, 86
4, 245568, Note_on_c, 2, 73, 86
4, 245660, Note_off_c, 2, 69, 0
4, 245660, Note_off_c, 2, 73, 0
4, 245760, Note_on_c, 2, 74, 86
4, 245760, Note_on_c, 2, 74, 86
4, 245856, Note_on_c, 2, 69, 86
4, 245900, Note_off_c, 2, 74, 0
4, 245948, Note_off_c, 2, 69, 0
4, 245952, Note_on_c, 2, 66, 86
4, 246044, Note_off_c, 2, 66, 0
4, 246048, Note_on_c, 2, 69, 86
4, 246140, Note_off_c, 2, 69, 0
4, 246144, Note_on_c, 2, 62, 86
4, 246332, Note_off_c, 2, 74, 0
4, 246332, Note_off_c, 2, 62, 0
4, 246336, Note_on_c, 2, 69, 86
4, 246336, Note_on_c, 2, 79, 86
4, 246376, Note_off_c, 2, 79, 0
4, 246384, Note_on_c, 2, 78, 86
4, 246424, Note_off_c, 2, 78, 0
4, 246432, Note_on_c, 2, 76, 86
4, 246472, Note_off_c, 2, 76, 0
4, 246480, Note_on_c, 2, 78, 86
4, 246520, Note_off_c, 2, 78, 0
4, 246524, Note_off_c, 2, 69, 0
4, 246528, Note_on_c, 2, 69, 86
4, 246528, Note_on_c, 2, 79, 86
4, 246620, Note_off_c, 2, 69, 0
4, 246620, Note_off_c, 2, 79, 0
4, 246720, Note_on_c, 2, 69, 86
4, 246720, Note_on_c, 2, 78, 86
4, 246812, Note_off_c, 2, 69, 0
4, 246812, Note_off_c, 2, 78, 0
4, 246912, Note_on_c, 2, 69, 86
4, 246912, Note_on_c, 2, 79, 86
4, 247004, Note_off_c, 2, 69, 0
4, 247004, Note_off_c, 2, 79, 0
4, 247104, Note_on_c, 2, 69, 86
4, 247104, Note_on_c, 2, 76, 86
4, 247196, Note_off_c, 2, 69, 0
4, 247196, Note_off_c, 2, 76, 0
4, 247296, Note_on_c, 2, 78, 86
4, 247296, Note_on_c, 2, 69, 86
4, 247676, Note_off_c, 2, 78, 0
4, 247676, Note_off_c, 2, 69, 0
4, 248832, Note_on_c, 2, 69, 59
4, 248832, Note_on_c, 2, 66, 59
4, 248832, Note_on_c, 2, 62, 59
4, 249212, Note_off_c, 2, 69, 0
4, 249212, Note_off_c, 2, 66, 0
4, 249212, Note_off_c, 2, 62, 0
4, 249600, Note_on_c, 2, 69, 59
4, 249600, Note_on_c, 2, 66, 59
4, 249600, Note_on_c, 2, 62, 59
4, 249980, Note_off_c, 2, 69, 0
4, 249980, Note_off_c, 2, 66, 0
4, 249980, Note_off_c, 2, 62, 0
4, 250368, Note_on_c, 2, 81, 64
4, 250368, Note_on_c, 2, 78, 64
4, 251900, Note_off_c, 2, 81, 0
4, 251900, Note_off_c, 2, 78, 0
4, 251904, Note_on_c, 2, 79, 59
4, 251904, Note_on_c, 2, 83, 59
4, 252284, Note_off_c, 2, 79, 0
4, 252284, Note_off_c, 2, 83, 0
4, 254976, Note_on_c, 2, 67, 59
4, 254976, Note_on_c, 2, 62, 59
4, 255356, Note_off_c, 2, 67, 0
4, 255356, Note_off_c, 2, 62, 0
4, 255744, Note_on_c, 2, 74, 59
4, 255744, Note_on_c, 2, 67, 59
4, 256124, Note_off_c, 2, 74, 0
4, 256124, Note_off_c, 2, 67, 0
4, 256512, Note_on_c, 2, 83, 64
4, 256512, Note_on_c, 2, 79, 64
4, 258044, Note_off_c, 2, 83, 0
4, 258044, Note_off_c, 2, 79, 0
4, 258048, Note_on_c, 2, 81, 59
4, 258048, Note_on_c, 2, 78, 59
4, 258428, Note_off_c, 2, 81, 0
4, 258428, Note_off_c, 2, 78, 0
4, 261120, Note_on_c, 2, 72, 59
4, 261120, Note_on_c, 2, 69, 59
4, 261120, Note_on_c, 2, 62, 59
4, 261500, Note_off_c, 2, 72, 0
4, 261500, Note_off_c, 2, 69, 0
4, 261500, Note_off_c, 2, 62, 0
4, 261888, Note_on_c, 2, 72, 59
4, 261888, Note_on_c, 2, 69, 59
4, 261888, Note_on_c, 2, 62, 59
4, 262268, Note_off_c, 2, 72, 0
4, 262268, Note_off_c, 2, 69, 0
4, 262268, Note_off_c, 2, 62, 0
4, 262656, Note_on_c, 2, 81, 59
4, 262656, Note_on_c, 2, 84, 59
4, 262748, Note_off_c, 2, 81, 0
4, 262748, Note_off_c, 2, 84, 0
4, 262848, Note_on_c, 2, 83, 59
4, 262848, Note_on_c, 2, 79, 59
4, 262940, Note_off_c, 2, 83, 0
4, 262940, Note_off_c, 2, 79, 0
4, 263040, Note_on_c, 2, 81, 59
4, 263040, Note_on_c, 2, 78, 59
4, 263132, Note_off_c, 2, 81, 0
4, 263132, Note_off_c, 2, 78, 0
4, 263232, Note_on_c, 2, 79, 59
4, 263232, Note_on_c, 2, 76, 59
4, 263324, Note_off_c, 2, 79, 0
4, 263324, Note_off_c, 2, 76, 0
4, 263424, Note_on_c, 2, 78, 59
4, 263424, Note_on_c, 2, 74, 59
4, 263516, Note_off_c, 2, 78, 0
4, 263516, Note_off_c, 2, 74, 0
4, 263616, Note_on_c, 2, 76, 59
4, 263616, Note_on_c, 2, 72, 59
4, 263708, Note_off_c, 2, 76, 0
4, 263708, Note_off_c, 2, 72, 0
4, 263808, Note_on_c, 2, 74, 59
4, 263808, Note_on_c, 2, 71, 59
4, 263900, Note_off_c, 2, 74, 0
4, 263900, Note_off_c, 2, 71, 0
4, 264000, Note_on_c, 2, 72, 59
4, 264000, Note_on_c, 2, 69, 59
4, 264092, Note_off_c, 2, 72, 0
4, 264092, Note_off_c, 2, 69, 0
4, 264192, Note_on_c, 2, 71, 59
4, 264572, Note_off_c, 2, 71, 0
4, 264576, Note_on_c, 2, 69, 59
4, 264576, Note_on_c, 2, 66, 59
4, 264576, Note_on_c, 2, 60, 59
4, 264956, Note_off_c, 2, 69, 0
4, 264956, Note_off_c, 2, 66, 0
4, 264956, Note_off_c, 2, 60, 0
4, 264960, Note_on_c, 2, 67, 59
4, 265340, Note_off_c, 2, 67, 0
4, 265728, Note_on_c, 2, 81, 59
4, 265728, Note_on_c, 2, 78, 59
4, 265820, Note_off_c, 2, 81, 0
4, 265820, Note_off_c, 2, 78, 0
4, 265920, Note_on_c, 2, 79, 59
4, 265920, Note_on_c, 2, 76, 59
4, 266012, Note_off_c, 2, 79, 0
4, 266012, Note_off_c, 2, 76, 0
4, 266112, Note_on_c, 2, 78, 59
4, 266112, Note_on_c, 2, 75, 59
4, 266204, Note_off_c, 2, 78, 0
4, 266204, Note_off_c, 2, 75, 0
4, 266304, Note_on_c, 2, 76, 59
4, 266304, Note_on_c, 2, 72, 59
4, 266396, Note_off_c, 2, 76, 0
4, 266396, Note_off_c, 2, 72, 0
4, 266496, Note_on_c, 2, 75, 59
4, 266496, Note_on_c, 2, 71, 59
4, 266588, Note_off_c, 2, 75, 0
4, 266588, Note_off_c, 2, 71, 0
4, 266688, Note_on_c, 2, 72, 59
4, 266688, Note_on_c, 2, 69, 59
4, 266780, Note_off_c, 2, 72, 0
4, 266780, Note_off_c, 2, 69, 0
4, 266880, Note_on_c, 2, 71, 59
4, 266880, Note_on_c, 2, 67, 59
4, 266972, Note_off_c, 2, 71, 0
4, 266972, Note_off_c, 2, 67, 0
4, 267072, Note_on_c, 2, 69, 59
4, 267072, Note_on_c, 2, 66, 59
4, 267164, Note_off_c, 2, 69, 0
4, 267164, Note_off_c, 2, 66, 0
4, 267264, Note_on_c, 2, 67, 59
4, 267264, Note_on_c, 2, 64, 59
4, 267644, Note_off_c, 2, 67, 0
4, 267644, Note_off_c, 2, 64, 0
4, 267648, Note_on_c, 2, 69, 59
4, 267648, Note_on_c, 2, 60, 59
4, 268028, Note_off_c, 2, 69, 0
4, 268028, Note_off_c, 2, 60, 0
4, 268032, Note_on_c, 2, 71, 59
4, 268032, Note_on_c, 2, 59, 59
4, 268412, Note_off_c, 2, 71, 0
4, 268412, Note_off_c, 2, 59, 0
4, 268800, Note_on_c, 2, 79, 59
4, 268800, Note_on_c, 2, 76, 59
4, 268892, Note_off_c, 2, 79, 0
4, 268892, Note_off_c, 2, 76, 0
4, 268992, Note_on_c, 2, 78, 59
4, 268992, Note_on_c, 2, 74, 59
4, 269084, Note_off_c, 2, 78, 0
4, 269084, Note_off_c, 2, 74, 0
4, 269184, Note_on_c, 2, 76, 59
4, 269184, Note_on_c, 2, 73, 59
4, 269276, Note_off_c, 2, 76, 0
4, 269276, Note_off_c, 2, 73, 0
4, 269376, Note_on_c, 2, 74, 59
4, 269376, Note_on_c, 2, 71, 59
4, 269468, Note_off_c, 2, 74, 0
4, 269468, Note_off_c, 2, 71, 0
4, 269568, Note_on_c, 2, 73, 59
4, 269568, Note_on_c, 2, 69, 59
4, 269660, Note_off_c, 2, 73, 0
4, 269660, Note_off_c, 2, 69, 0
4, 269760, Note_on_c, 2, 71, 59
4, 269760, Note_on_c, 2, 67, 59
4, 269852, Note_off_c, 2, 71, 0
4, 269852, Note_off_c, 2, 67, 0
4, 269952, Note_on_c, 2, 69, 59
4, 269952, Note_on_c, 2, 66, 59
4, 270044, Note_off_c, 2, 69, 0
4, 270044, Note_off_c, 2, 66, 0
4, 270144, Note_on_c, 2, 67, 59
4, 270144, Note_on_c, 2, 64, 59
4, 270236, Note_off_c, 2, 67, 0
4, 270236, Note_off_c, 2, 64, 0
4, 270336, Note_on_c, 2, 66, 59
4, 270336, Note_on_c, 2, 62, 59
4, 270336, Note_on_c, 2, 81, 64
4, 270336, Note_on_c, 2, 78, 64
4, 270716, Note_off_c, 2, 66, 0
4, 270716, Note_off_c, 2, 62, 0
4, 271100, Note_off_c, 2, 81, 0
4, 271100, Note_off_c, 2, 78, 0
4, 271104, Note_on_c, 2, 79, 64
4, 271104, Note_on_c, 2, 83, 64
4, 271868, Note_off_c, 2, 79, 0
4, 271868, Note_off_c, 2, 83, 0
4, 271872, Note_on_c, 2, 81, 64
4, 271872, Note_on_c, 2, 78, 64
4, 272636, Note_off_c, 2, 81, 0
4, 272636, Note_off_c, 2, 78, 0
4, 272640, Note_on_c, 2, 83, 64
4, 272640, Note_on_c, 2, 79, 64
4, 273404, Note_off_c, 2, 83, 0
4, 273404, Note_off_c, 2, 79, 0
4, 273408, Note_on_c, 2, 81, 64
4, 273408, Note_on_c, 2, 78, 64
4, 273788, Note_off_c, 2, 81, 0
4, 273788, Note_off_c, 2, 78, 0
4, 273792, Note_on_c, 2, 66, 59
4, 273792, Note_on_c, 2, 69, 59
4, 273980, Note_off_c, 2, 66, 0
4, 273980, Note_off_c, 2, 69, 0
4, 273984, Note_on_c, 2, 69, 59
4, 273984, Note_on_c, 2, 74, 59
4, 274172, Note_off_c, 2, 69, 0
4, 274172, Note_off_c, 2, 74, 0
4, 274176, Note_on_c, 2, 74, 59
4, 274176, Note_on_c, 2, 71, 59
4, 274556, Note_off_c, 2, 74, 0
4, 274556, Note_off_c, 2, 71, 0
4, 274560, Note_on_c, 2, 71, 59
4, 274560, Note_on_c, 2, 64, 59
4, 274560, Note_on_c, 2, 76, 59
4, 274748, Note_off_c, 2, 76, 0
4, 274752, Note_on_c, 2, 74, 59
4, 274940, Note_off_c, 2, 71, 0
4, 274940, Note_off_c, 2, 64, 0
4, 274940, Note_off_c, 2, 74, 0
4, 274944, Note_on_c, 2, 73, 59
4, 274944, Note_on_c, 2, 69, 59
4, 274944, Note_on_c, 2, 64, 59
4, 275132, Note_off_c, 2, 73, 0
4, 275132, Note_off_c, 2, 69, 0
4, 275132, Note_off_c, 2, 64, 0
4, 275136, Note_on_c, 2, 64, 59
4, 275136, Note_on_c, 2, 61, 59
4, 275136, Note_on_c, 2, 69, 59
4, 275324, Note_off_c, 2, 64, 0
4, 275324, Note_off_c, 2, 61, 0
4, 275328, Note_on_c, 2, 66, 59
4, 275328, Note_on_c, 2, 62, 59
4, 275516, Note_off_c, 2, 69, 0
4, 275516, Note_off_c, 2, 66, 0
4, 275516, Note_off_c, 2, 62, 0
4, 275520, Note_on_c, 2, 62, 59
4, 275520, Note_on_c, 2, 69, 59
4, 275708, Note_off_c, 2, 62, 0
4, 275708, Note_off_c, 2, 69, 0
4, 275712, Note_on_c, 2, 62, 59
4, 275712, Note_on_c, 2, 71, 59
4, 275900, Note_off_c, 2, 62, 0
4, 275904, Note_on_c, 2, 67, 59
4, 276092, Note_off_c, 2, 71, 0
4, 276092, Note_off_c, 2, 67, 0
4, 276096, Note_on_c, 2, 71, 59
4, 276096, Note_on_c, 2, 64, 59
4, 276096, Note_on_c, 2, 76, 59
4, 276284, Note_off_c, 2, 76, 0
4, 276288, Note_on_c, 2, 74, 59
4, 276476, Note_off_c, 2, 71, 0
4, 276476, Note_off_c, 2, 64, 0
4, 276476, Note_off_c, 2, 74, 0
4, 276480, Note_on_c, 2, 73, 86
4, 276480, Note_on_c, 2, 69, 86
4, 276480, Note_on_c, 2, 64, 86
4, 276860, Note_off_c, 2, 73, 0
4, 276860, Note_off_c, 2, 69, 0
4, 276860, Note_off_c, 2, 64, 0
4, 276864, Note_on_c, 2, 79, 86
4, 276864, Note_on_c, 2, 76, 86
4, 276864, Note_on_c, 2, 69, 86
4, 277244, Note_off_c, 2, 79, 0
4, 277244, Note_off_c, 2, 76, 0
4, 277244, Note_off_c, 2, 69, 0
4, 277248, Note_on_c, 2, 78, 86
4, 277248, Note_on_c, 2, 74, 86
4, 277248, Note_on_c, 2, 69, 86
4, 277628, Note_off_c, 2, 78, 0
4, 277628, Note_off_c, 2, 74, 0
4, 277628, Note_off_c, 2, 69, 0
4, 277632, Note_on_c, 2, 78, 86
4, 277632, Note_on_c, 2, 74, 86
4, 277632, Note_on_c, 2, 86, 86
4, 278012, Note_off_c, 2, 78, 0
4, 278012, Note_off_c, 2, 74, 0
4, 278012, Note_off_c, 2, 86, 0
4, 278016, Note_on_c, 2, 85, 86
4, 278016, Note_on_c, 2, 81, 86
4, 278016, Note_on_c, 2, 76, 86
4, 278396, Note_off_c, 2, 85, 0
4, 278396, Note_off_c, 2, 81, 0
4, 278396, Note_off_c, 2, 76, 0
4, 278400, Note_on_c, 2, 79, 86
4, 278400, Note_on_c, 2, 76, 86
4, 278400, Note_on_c, 2, 69, 86
4, 278780, Note_off_c, 2, 79, 0
4, 278780, Note_off_c, 2, 76, 0
4, 278780, Note_off_c, 2, 69, 0
4, 278784, Note_on_c, 2, 78, 86
4, 278784, Note_on_c, 2, 74, 86
4, 278784, Note_on_c, 2, 69, 86
4, 279164, Note_off_c, 2, 78, 0
4, 279164, Note_off_c, 2, 74, 0
4, 279164, Note_off_c, 2, 69, 0
4, 279168, Note_on_c, 2, 86, 86
4, 279168, Note_on_c, 2, 78, 86
4, 279168, Note_on_c, 2, 74, 86
4, 279548, Note_off_c, 2, 86, 0
4, 279548, Note_off_c, 2, 78, 0
4, 279548, Note_off_c, 2, 74, 0
4, 279552, Note_on_c, 2, 76, 86
4, 279552, Note_on_c, 2, 81, 86
4, 279552, Note_on_c, 2, 85, 86
4, 279932, Note_off_c, 2, 76, 0
4, 279932, Note_off_c, 2, 81, 0
4, 279932, Note_off_c, 2, 85, 0
4, 279936, Note_on_c, 2, 69, 86
4, 280220, Note_off_c, 2, 69, 0
4, 280224, Note_on_c, 2, 69, 86
4, 280288, Note_off_c, 2, 69, 0
4, 280320, Note_on_c, 2, 69, 86
4, 280700, Note_off_c, 2, 69, 0
4, 284160, Note_on_c, 2, 55, 59
4, 284924, Note_off_c, 2, 55, 0
4, 284928, Note_on_c, 2, 64, 59
4, 285692, Note_off_c, 2, 64, 0
4, 285696, Note_on_c, 2, 62, 59
4, 286076, Note_off_c, 2, 62, 0
4, 287232, Note_on_c, 2, 55, 59
4, 287996, Note_off_c, 2, 55, 0
4, 288000, Note_on_c, 2, 64, 59
4, 288764, Note_off_c, 2, 64, 0
4, 288768, Note_on_c, 2, 62, 59
4, 289148, Note_off_c, 2, 62, 0
4, 289152, Note_on_c, 2, 62, 59
4, 289152, Note_on_c, 2, 69, 59
4, 289532, Note_off_c, 2, 62, 0
4, 289532, Note_off_c, 2, 69, 0
4, 289536, Note_on_c, 2, 62, 59
4, 289536, Note_on_c, 2, 69, 59
4, 289916, Note_off_c, 2, 62, 0
4, 289916, Note_off_c, 2, 69, 0
4, 290688, Note_on_c, 2, 71, 59
4, 290688, Note_on_c, 2, 62, 59
4, 291068, Note_off_c, 2, 71, 0
4, 291068, Note_off_c, 2, 62, 0
4, 291072, Note_on_c, 2, 71, 59
4, 291072, Note_on_c, 2, 62, 59
4, 291452, Note_off_c, 2, 71, 0
4, 291452, Note_off_c, 2, 62, 0
4, 292224, Note_on_c, 2, 64, 59
4, 292224, Note_on_c, 2, 61, 59
4, 292604, Note_off_c, 2, 64, 0
4, 292604, Note_off_c, 2, 61, 0
4, 292608, Note_on_c, 2, 64, 59
4, 292608, Note_on_c, 2, 61, 59
4, 292988, Note_off_c, 2, 64, 0
4, 292988, Note_off_c, 2, 61, 0
4, 292992, Note_on_c, 2, 64, 59
4, 292992, Note_on_c, 2, 61, 59
4, 293372, Note_off_c, 2, 64, 0
4, 293372, Note_off_c, 2, 61, 0
4, 293376, Note_on_c, 2, 66, 59
4, 293376, Note_on_c, 2, 62, 59
4, 293756, Note_off_c, 2, 66, 0
4, 293756, Note_off_c, 2, 62, 0
4, 295296, Note_on_c, 2, 69, 59
4, 295296, Note_on_c, 2, 62, 59
4, 295676, Note_off_c, 2, 69, 0
4, 295676, Note_off_c, 2, 62, 0
4, 295680, Note_on_c, 2, 69, 59
4, 295680, Note_on_c, 2, 62, 59
4, 296060, Note_off_c, 2, 69, 0
4, 296060, Note_off_c, 2, 62, 0
4, 296832, Note_on_c, 2, 71, 59
4, 296832, Note_on_c, 2, 62, 59
4, 297212, Note_off_c, 2, 71, 0
4, 297212, Note_off_c, 2, 62, 0
4, 297216, Note_on_c, 2, 71, 59
4, 297216, Note_on_c, 2, 62, 59
4, 297596, Note_off_c, 2, 71, 0
4, 297596, Note_off_c, 2, 62, 0
4, 298368, Note_on_c, 2, 71, 62
4, 298368, Note_on_c, 2, 79, 62
4, 298368, Note_on_c, 2, 76, 62
4, 299132, Note_off_c, 2, 71, 0
4, 299132, Note_off_c, 2, 79, 0
4, 299132, Note_off_c, 2, 76, 0
4, 299136, Note_on_c, 2, 78, 59
4, 299136, Note_on_c, 2, 74, 59
4, 299516, Note_off_c, 2, 78, 0
4, 299516, Note_off_c, 2, 74, 0
4, 299520, Note_on_c, 2, 78, 59
4, 299520, Note_on_c, 2, 74, 59
4, 299900, Note_off_c, 2, 78, 0
4, 299900, Note_off_c, 2, 74, 0
4, 305664, Note_on_c, 2, 74, 93
4, 305664, Note_on_c, 2, 66, 93
4, 305756, Note_off_c, 2, 74, 0
4, 305756, Note_off_c, 2, 66, 0
4, 305760, Note_on_c, 2, 69, 93
4, 305852, Note_off_c, 2, 69, 0
4, 305856, Note_on_c, 2, 71, 93
4, 305948, Note_off_c, 2, 71, 0
4, 305952, Note_on_c, 2, 69, 93
4, 306044, Note_off_c, 2, 69, 0
4, 306048, Note_on_c, 2, 74, 93
4, 306140, Note_off_c, 2, 74, 0
4, 306144, Note_on_c, 2, 69, 93
4, 306236, Note_off_c, 2, 69, 0
4, 306240, Note_on_c, 2, 78, 93
4, 306332, Note_off_c, 2, 78, 0
4, 306336, Note_on_c, 2, 74, 93
4, 306428, Note_off_c, 2, 74, 0
4, 306432, Note_on_c, 2, 76, 93
4, 306524, Note_off_c, 2, 76, 0
4, 306528, Note_on_c, 2, 69, 93
4, 306620, Note_off_c, 2, 69, 0
4, 306624, Note_on_c, 2, 71, 93
4, 306716, Note_off_c, 2, 71, 0
4, 306720, Note_on_c, 2, 69, 93
4, 306812, Note_off_c, 2, 69, 0
4, 306816, Note_on_c, 2, 76, 93
4, 306908, Note_off_c, 2, 76, 0
4, 306912, Note_on_c, 2, 69, 93
4, 307004, Note_off_c, 2, 69, 0
4, 307008, Note_on_c, 2, 79, 93
4, 307008, Note_on_c, 2, 69, 93
4, 307008, Note_on_c, 2, 61, 93
4, 307100, Note_off_c, 2, 79, 0
4, 307104, Note_on_c, 2, 76, 93
4, 307196, Note_off_c, 2, 69, 0
4, 307196, Note_off_c, 2, 61, 0
4, 307196, Note_off_c, 2, 76, 0
4, 307200, Note_on_c, 2, 78, 93
4, 307200, Note_on_c, 2, 74, 93
4, 307200, Note_on_c, 2, 69, 93
4, 307200, Note_on_c, 2, 62, 93
4, 307580, Note_off_c, 2, 78, 0
4, 307580, Note_off_c, 2, 74, 0
4, 307580, Note_off_c, 2, 69, 0
4, 307580, Note_off_c, 2, 62, 0
4, 307776, Note_on_c, 2, 69, 59
4, 307776, Note_on_c, 2, 66, 59
4, 307776, Note_on_c, 2, 62, 59
4, 307964, Note_off_c, 2, 69, 0
4, 307964, Note_off_c, 2, 66, 0
4, 307964, Note_off_c, 2, 62, 0
4, 307968, Note_on_c, 2, 62, 59
4, 307968, Note_on_c, 2, 59, 59
4, 307968, Note_on_c, 2, 67, 59
4, 308348, Note_off_c, 2, 62, 0
4, 308348, Note_off_c, 2, 59, 0
4, 308352, Note_on_c, 2, 61, 59
4, 308352, Note_on_c, 2, 57, 59
4, 308732, Note_off_c, 2, 67, 0
4, 308732, Note_off_c, 2, 61, 0
4, 308732, Note_off_c, 2, 57, 0
4, 308736, Note_on_c, 2, 74, 93
4, 308736, Note_on_c, 2, 66, 93
4, 308828, Note_off_c, 2, 74, 0
4, 308828, Note_off_c, 2, 66, 0
4, 308832, Note_on_c, 2, 69, 93
4, 308924, Note_off_c, 2, 69, 0
4, 308928, Note_on_c, 2, 71, 93
4, 309020, Note_off_c, 2, 71, 0
4, 309024, Note_on_c, 2, 69, 93
4, 309116, Note_off_c, 2, 69, 0
4, 309120, Note_on_c, 2, 74, 93
4, 309212, Note_off_c, 2, 74, 0
4, 309216, Note_on_c, 2, 69, 93
4, 309308, Note_off_c, 2, 69, 0
4, 309312, Note_on_c, 2, 78, 93
4, 309404, Note_off_c, 2, 78, 0
4, 309408, Note_on_c, 2, 74, 93
4, 309500, Note_off_c, 2, 74, 0
4, 309504, Note_on_c, 2, 76, 93
4, 309596, Note_off_c, 2, 76, 0
4, 309600, Note_on_c, 2, 69, 93
4, 309692, Note_off_c, 2, 69, 0
4, 309696, Note_on_c, 2, 71, 93
4, 309788, Note_off_c, 2, 71, 0
4, 309792, Note_on_c, 2, 69, 93
4, 309884, Note_off_c, 2, 69, 0
4, 309888, Note_on_c, 2, 76, 93
4, 309980, Note_off_c, 2, 76, 0
4, 309984, Note_on_c, 2, 69, 93
4, 310076, Note_off_c, 2, 69, 0
4, 310080, Note_on_c, 2, 79, 93
4, 310080, Note_on_c, 2, 69, 93
4, 310080, Note_on_c, 2, 61, 93
4, 310172, Note_off_c, 2, 79, 0
4, 310176, Note_on_c, 2, 76, 93
4, 310268, Note_off_c, 2, 69, 0
4, 310268, Note_off_c, 2, 61, 0
4, 310268, Note_off_c, 2, 76, 0
4, 310272, Note_on_c, 2, 78, 93
4, 310272, Note_on_c, 2, 74, 93
4, 310272, Note_on_c, 2, 69, 93
4, 310272, Note_on_c, 2, 62, 93
4, 310652, Note_off_c, 2, 78, 0
4, 310652, Note_off_c, 2, 74, 0
4, 310652, Note_off_c, 2, 69, 0
4, 310652, Note_off_c, 2, 62, 0
4, 310848, Note_on_c, 2, 69, 59
4, 310848, Note_on_c, 2, 66, 59
4, 310848, Note_on_c, 2, 62, 59
4, 311036, Note_off_c, 2, 69, 0
4, 311036, Note_off_c, 2, 66, 0
4, 311036, Note_off_c, 2, 62, 0
4, 311040, Note_on_c, 2, 62, 59
4, 311040, Note_on_c, 2, 59, 59
4, 311040, Note_on_c, 2, 67, 59
4, 311420, Note_off_c, 2, 62, 0
4, 311420, Note_off_c, 2, 59, 0
4, 311424, Note_on_c, 2, 61, 59
4, 311424, Note_on_c, 2, 57, 59
4, 311804, Note_off_c, 2, 67, 0
4, 311804, Note_off_c, 2, 61, 0
4, 311804, Note_off_c, 2, 57, 0
4, 311808, Note_on_c, 2, 66, 59
4, 311808, Note_on_c, 2, 62, 59
4, 311808, Note_on_c, 2, 57, 59
4, 312188, Note_off_c, 2, 66, 0
4, 312188, Note_off_c, 2, 62, 0
4, 312188, Note_off_c, 2, 57, 0
4, 313344, Note_on_c, 2, 69, 59
4, 313344, Note_on_c, 2, 62, 59
4, 313724, Note_off_c, 2, 69, 0
4, 313724, Note_off_c, 2, 62, 0
4, 314880, Note_on_c, 2, 71, 59
4, 314880, Note_on_c, 2, 62, 59
4, 315260, Note_off_c, 2, 71, 0
4, 315260, Note_off_c, 2, 62, 0
4, 316416, Note_on_c, 2, 74, 59
4, 316416, Note_on_c, 2, 71, 59
4, 316416, Note_on_c, 2, 65, 59
4, 316796, Note_off_c, 2, 74, 0
4, 316796, Note_off_c, 2, 71, 0
4, 316796, Note_off_c, 2, 65, 0
4, 316800, Note_on_c, 2, 74, 59
4, 316800, Note_on_c, 2, 71, 59
4, 316800, Note_on_c, 2, 65, 59
4, 317180, Note_off_c, 2, 74, 0
4, 317180, Note_off_c, 2, 71, 0
4, 317180, Note_off_c, 2, 65, 0
4, 317184, Note_on_c, 2, 74, 59
4, 317184, Note_on_c, 2, 71, 59
4, 317184, Note_on_c, 2, 65, 59
4, 317564, Note_off_c, 2, 74, 0
4, 317564, Note_off_c, 2, 71, 0
4, 317564, Note_off_c, 2, 65, 0
4, 317568, Note_on_c, 2, 74, 59
4, 317568, Note_on_c, 2, 71, 59
4, 317568, Note_on_c, 2, 65, 59
4, 317948, Note_off_c, 2, 74, 0
4, 317948, Note_off_c, 2, 71, 0
4, 317948, Note_off_c, 2, 65, 0
4, 317952, Note_on_c, 2, 74, 59
4, 317952, Note_on_c, 2, 69, 59
4, 317952, Note_on_c, 2, 66, 59
4, 318332, Note_off_c, 2, 74, 0
4, 318332, Note_off_c, 2, 69, 0
4, 318332, Note_off_c, 2, 66, 0
4, 319680, Note_on_c, 2, 74, 59
4, 319680, Note_on_c, 2, 66, 59
4, 319868, Note_off_c, 2, 74, 0
4, 319868, Note_off_c, 2, 66, 0
4, 319872, Note_on_c, 2, 74, 59
4, 319872, Note_on_c, 2, 66, 59
4, 320060, Note_off_c, 2, 74, 0
4, 320060, Note_off_c, 2, 66, 0
4, 320064, Note_on_c, 2, 74, 59
4, 320064, Note_on_c, 2, 66, 59
4, 320252, Note_off_c, 2, 74, 0
4, 320252, Note_off_c, 2, 66, 0
4, 320256, Note_on_c, 2, 73, 59
4, 320256, Note_on_c, 2, 67, 59
4, 320256, Note_on_c, 2, 64, 59
4, 320444, Note_off_c, 2, 73, 0
4, 320444, Note_off_c, 2, 67, 0
4, 320444, Note_off_c, 2, 64, 0
4, 320448, Note_on_c, 2, 73, 59
4, 320448, Note_on_c, 2, 67, 59
4, 320448, Note_on_c, 2, 64, 59
4, 320636, Note_off_c, 2, 73, 0
4, 320636, Note_off_c, 2, 67, 0
4, 320636, Note_off_c, 2, 64, 0
4, 320640, Note_on_c, 2, 73, 59
4, 320640, Note_on_c, 2, 67, 59
4, 320640, Note_on_c, 2, 64, 59
4, 320828, Note_off_c, 2, 73, 0
4, 320828, Note_off_c, 2, 67, 0
4, 320828, Note_off_c, 2, 64, 0
4, 320832, Note_on_c, 2, 73, 59
4, 320832, Note_on_c, 2, 67, 59
4, 320832, Note_on_c, 2, 64, 59
4, 321020, Note_off_c, 2, 73, 0
4, 321020, Note_off_c, 2, 67, 0
4, 321020, Note_off_c, 2, 64, 0
4, 321024, Note_on_c, 2, 74, 59
4, 321024, Note_on_c, 2, 71, 59
4, 321024, Note_on_c, 2, 65, 59
4, 321404, Note_off_c, 2, 74, 0
4, 321404, Note_off_c, 2, 71, 0
4, 321404, Note_off_c, 2, 65, 0
4, 321408, Note_on_c, 2, 74, 59
4, 321408, Note_on_c, 2, 71, 59
4, 321408, Note_on_c, 2, 65, 59
4, 321788, Note_off_c, 2, 74, 0
4, 321788, Note_off_c, 2, 71, 0
4, 321788, Note_off_c, 2, 65, 0
4, 321792, Note_on_c, 2, 74, 59
4, 321792, Note_on_c, 2, 71, 59
4, 321792, Note_on_c, 2, 65, 59
4, 322172, Note_off_c, 2, 74, 0
4, 322172, Note_off_c, 2, 71, 0
4, 322172, Note_off_c, 2, 65, 0
4, 322176, Note_on_c, 2, 74, 59
4, 322176, Note_on_c, 2, 71, 59
4, 322176, Note_on_c, 2, 65, 59
4, 322556, Note_off_c, 2, 74, 0
4, 322556, Note_off_c, 2, 71, 0
4, 322556, Note_off_c, 2, 65, 0
4, 322560, Note_on_c, 2, 74, 59
4, 322560, Note_on_c, 2, 69, 59
4, 322560, Note_on_c, 2, 66, 59
4, 322940, Note_off_c, 2, 74, 0
4, 322940, Note_off_c, 2, 69, 0
4, 322940, Note_off_c, 2, 66, 0
4, 324096, Note_on_c, 2, 57, 59
4, 324476, Note_off_c, 2, 57, 0
4, 325824, Note_on_c, 2, 78, 59
4, 325824, Note_on_c, 2, 74, 59
4, 325824, Note_on_c, 2, 69, 59
4, 326012, Note_off_c, 2, 78, 0
4, 326012, Note_off_c, 2, 74, 0
4, 326012, Note_off_c, 2, 69, 0
4, 326016, Note_on_c, 2, 78, 59
4, 326016, Note_on_c, 2, 74, 59
4, 326016, Note_on_c, 2, 69, 59
4, 326204, Note_off_c, 2, 78, 0
4, 326204, Note_off_c, 2, 74, 0
4, 326204, Note_off_c, 2, 69, 0
4, 326208, Note_on_c, 2, 78, 59
4, 326208, Note_on_c, 2, 74, 59
4, 326208, Note_on_c, 2, 69, 59
4, 326396, Note_off_c, 2, 78, 0
4, 326396, Note_off_c, 2, 74, 0
4, 326396, Note_off_c, 2, 69, 0
4, 326400, Note_on_c, 2, 78, 59
4, 326400, Note_on_c, 2, 74, 59
4, 326400, Note_on_c, 2, 69, 59
4, 326588, Note_off_c, 2, 78, 0
4, 326588, Note_off_c, 2, 74, 0
4, 326588, Note_off_c, 2, 69, 0
4, 326592, Note_on_c, 2, 78, 59
4, 326592, Note_on_c, 2, 74, 59
4, 326592, Note_on_c, 2, 69, 59
4, 326780, Note_off_c, 2, 78, 0
4, 326780, Note_off_c, 2, 74, 0
4, 326780, Note_off_c, 2, 69, 0
4, 326784, Note_on_c, 2, 78, 59
4, 326784, Note_on_c, 2, 74, 59
4, 326784, Note_on_c, 2, 69, 59
4, 326972, Note_off_c, 2, 78, 0
4, 326972, Note_off_c, 2, 74, 0
4, 326972, Note_off_c, 2, 69, 0
4, 326976, Note_on_c, 2, 78, 59
4, 326976, Note_on_c, 2, 74, 59
4, 326976, Note_on_c, 2, 69, 59
4, 327164, Note_off_c, 2, 78, 0
4, 327164, Note_off_c, 2, 74, 0
4, 327164, Note_off_c, 2, 69, 0
4, 327168, Note_on_c, 2, 76, 59
4, 327168, Note_on_c, 2, 73, 59
4, 327168, Note_on_c, 2, 67, 59
4, 327356, Note_off_c, 2, 76, 0
4, 327356, Note_off_c, 2, 73, 0
4, 327356, Note_off_c, 2, 67, 0
4, 327360, Note_on_c, 2, 76, 59
4, 327360, Note_on_c, 2, 73, 59
4, 327360, Note_on_c, 2, 67, 59
4, 327548, Note_off_c, 2, 76, 0
4, 327548, Note_off_c, 2, 73, 0
4, 327548, Note_off_c, 2, 67, 0
4, 327552, Note_on_c, 2, 76, 59
4, 327552, Note_on_c, 2, 73, 59
4, 327552, Note_on_c, 2, 67, 59
4, 327740, Note_off_c, 2, 76, 0
4, 327740, Note_off_c, 2, 73, 0
4, 327740, Note_off_c, 2, 67, 0
4, 327744, Note_on_c, 2, 76, 59
4, 327744, Note_on_c, 2, 73, 59
4, 327744, Note_on_c, 2, 67, 59
4, 327932, Note_off_c, 2, 76, 0
4, 327932, Note_off_c, 2, 73, 0
4, 327932, Note_off_c, 2, 67, 0
4, 327936, Note_on_c, 2, 76, 59
4, 327936, Note_on_c, 2, 73, 59
4, 327936, Note_on_c, 2, 67, 59
4, 328124, Note_off_c, 2, 76, 0
4, 328124, Note_off_c, 2, 73, 0
4, 328124, Note_off_c, 2, 67, 0
4, 328128, Note_on_c, 2, 76, 59
4, 328128, Note_on_c, 2, 73, 59
4, 328128, Note_on_c, 2, 67, 59
4, 328316, Note_off_c, 2, 76, 0
4, 328316, Note_off_c, 2, 73, 0
4, 328316, Note_off_c, 2, 67, 0
4, 328320, Note_on_c, 2, 76, 59
4, 328320, Note_on_c, 2, 73, 59
4, 328320, Note_on_c, 2, 67, 59
4, 328508, Note_off_c, 2, 76, 0
4, 328508, Note_off_c, 2, 73, 0
4, 328508, Note_off_c, 2, 67, 0
4, 328512, Note_on_c, 2, 76, 59
4, 328512, Note_on_c, 2, 73, 59
4, 328512, Note_on_c, 2, 67, 59
4, 328700, Note_off_c, 2, 76, 0
4, 328700, Note_off_c, 2, 73, 0
4, 328700, Note_off_c, 2, 67, 0
4, 328704, Note_on_c, 2, 74, 86
4, 328704, Note_on_c, 2, 66, 86
4, 328796, Note_off_c, 2, 74, 0
4, 328800, Note_on_c, 2, 69, 86
4, 328892, Note_off_c, 2, 69, 0
4, 328896, Note_on_c, 2, 71, 86
4, 328988, Note_off_c, 2, 71, 0
4, 328992, Note_on_c, 2, 69, 86
4, 329084, Note_off_c, 2, 66, 0
4, 329084, Note_off_c, 2, 69, 0
4, 329088, Note_on_c, 2, 74, 86
4, 329180, Note_off_c, 2, 74, 0
4, 329184, Note_on_c, 2, 69, 86
4, 329276, Note_off_c, 2, 69, 0
4, 329280, Note_on_c, 2, 78, 86
4, 329372, Note_off_c, 2, 78, 0
4, 329376, Note_on_c, 2, 74, 86
4, 329468, Note_off_c, 2, 74, 0
4, 329472, Note_on_c, 2, 76, 86
4, 329564, Note_off_c, 2, 76, 0
4, 329568, Note_on_c, 2, 69, 86
4, 329660, Note_off_c, 2, 69, 0
4, 329664, Note_on_c, 2, 71, 86
4, 329756, Note_off_c, 2, 71, 0
4, 329760, Note_on_c, 2, 69, 86
4, 329852, Note_off_c, 2, 69, 0
4, 329856, Note_on_c, 2, 76, 86
4, 329948, Note_off_c, 2, 76, 0
4, 329952, Note_on_c, 2, 69, 86
4, 330044, Note_off_c, 2, 69, 0
4, 330048, Note_on_c, 2, 79, 86
4, 330048, Note_on_c, 2, 69, 86
4, 330048, Note_on_c, 2, 61, 86
4, 330140, Note_off_c, 2, 79, 0
4, 330144, Note_on_c, 2, 76, 86
4, 330236, Note_off_c, 2, 69, 0
4, 330236, Note_off_c, 2, 61, 0
4, 330236, Note_off_c, 2, 76, 0
4, 330240, Note_on_c, 2, 78, 86
4, 330240, Note_on_c, 2, 69, 86
4, 330240, Note_on_c, 2, 62, 86
4, 330332, Note_off_c, 2, 78, 0
4, 330336, Note_on_c, 2, 74, 86
4, 330428, Note_off_c, 2, 74, 0
4, 330432, Note_on_c, 2, 76, 86
4, 330524, Note_off_c, 2, 76, 0
4, 330528, Note_on_c, 2, 74, 86
4, 330620, Note_off_c, 2, 69, 0
4, 330620, Note_off_c, 2, 62, 0
4, 330620, Note_off_c, 2, 74, 0
4, 330624, Note_on_c, 2, 78, 86
4, 330716, Note_off_c, 2, 78, 0
4, 330720, Note_on_c, 2, 74, 86
4, 330812, Note_off_c, 2, 74, 0
4, 330816, Note_on_c, 2, 81, 86
4, 330816, Note_on_c, 2, 66, 86
4, 330816, Note_on_c, 2, 62, 86
4, 330908, Note_off_c, 2, 81, 0
4, 330912, Note_on_c, 2, 78, 86
4, 331004, Note_off_c, 2, 66, 0
4, 331004, Note_off_c, 2, 62, 0
4, 331004, Note_off_c, 2, 78, 0
4, 331008, Note_on_c, 2, 79, 86
4, 331008, Note_on_c, 2, 62, 86
4, 331008, Note_on_c, 2, 59, 86
4, 331100, Note_off_c, 2, 79, 0
4, 331104, Note_on_c, 2, 74, 86
4, 331196, Note_off_c, 2, 74, 0
4, 331200, Note_on_c, 2, 76, 86
4, 331292, Note_off_c, 2, 76, 0
4, 331296, Note_on_c, 2, 74, 86
4, 331388, Note_off_c, 2, 62, 0
4, 331388, Note_off_c, 2, 59, 0
4, 331388, Note_off_c, 2, 74, 0
4, 331392, Note_on_c, 2, 79, 86
4, 331484, Note_off_c, 2, 79, 0
4, 331488, Note_on_c, 2, 74, 86
4, 331580, Note_off_c, 2, 74, 0
4, 331584, Note_on_c, 2, 83, 86
4, 331584, Note_on_c, 2, 67, 86
4, 331584, Note_on_c, 2, 55, 86
4, 331676, Note_off_c, 2, 83, 0
4, 331680, Note_on_c, 2, 79, 86
4, 331772, Note_off_c, 2, 67, 0
4, 331772, Note_off_c, 2, 55, 0
4, 331772, Note_off_c, 2, 79, 0
4, 331776, Note_on_c, 2, 81, 86
4, 331868, Note_off_c, 2, 81, 0
4, 331872, Note_on_c, 2, 74, 86
4, 331964, Note_off_c, 2, 74, 0
4, 331968, Note_on_c, 2, 76, 86
4, 332060, Note_off_c, 2, 76, 0
4, 332064, Note_on_c, 2, 74, 86
4, 332156, Note_off_c, 2, 74, 0
4, 332160, Note_on_c, 2, 81, 86
4, 332252, Note_off_c, 2, 81, 0
4, 332256, Note_on_c, 2, 74, 86
4, 332348, Note_off_c, 2, 74, 0
4, 332352, Note_on_c, 2, 84, 86
4, 332444, Note_off_c, 2, 84, 0
4, 332448, Note_on_c, 2, 81, 86
4, 332540, Note_off_c, 2, 81, 0
4, 332544, Note_on_c, 2, 83, 86
4, 332636, Note_off_c, 2, 83, 0
4, 332640, Note_on_c, 2, 81, 86
4, 332732, Note_off_c, 2, 81, 0
4, 332736, Note_on_c, 2, 79, 86
4, 332828, Note_off_c, 2, 79, 0
4, 332832, Note_on_c, 2, 78, 86
4, 332924, Note_off_c, 2, 78, 0
4, 332928, Note_on_c, 2, 76, 86
4, 333020, Note_off_c, 2, 76, 0
4, 333024, Note_on_c, 2, 74, 86
4, 333116, Note_off_c, 2, 74, 0
4, 333120, Note_on_c, 2, 73, 86
4, 333212, Note_off_c, 2, 73, 0
4, 333216, Note_on_c, 2, 74, 86
4, 333308, Note_off_c, 2, 74, 0
4, 333312, Note_on_c, 2, 73, 86
4, 333692, Note_off_c, 2, 73, 0
4, 333696, Note_on_c, 2, 79, 86
4, 333696, Note_on_c, 2, 76, 86
4, 333696, Note_on_c, 2, 69, 86
4, 334076, Note_off_c, 2, 79, 0
4, 334076, Note_off_c, 2, 76, 0
4, 334076, Note_off_c, 2, 69, 0
4, 334080, Note_on_c, 2, 78, 86
4, 334080, Note_on_c, 2, 74, 86
4, 334080, Note_on_c, 2, 69, 86
4, 334460, Note_off_c, 2, 78, 0
4, 334460, Note_off_c, 2, 74, 0
4, 334460, Note_off_c, 2, 69, 0
4, 334464, Note_on_c, 2, 78, 86
4, 334464, Note_on_c, 2, 81, 86
4, 334464, Note_on_c, 2, 86, 86
4, 334844, Note_off_c, 2, 78, 0
4, 334844, Note_off_c, 2, 81, 0
4, 334844, Note_off_c, 2, 86, 0
4, 334848, Note_on_c, 2, 85, 86
4, 334848, Note_on_c, 2, 81, 86
4, 334848, Note_on_c, 2, 76, 86
4, 335228, Note_off_c, 2, 85, 0
4, 335228, Note_off_c, 2, 81, 0
4, 335228, Note_off_c, 2, 76, 0
4, 335232, Note_on_c, 2, 79, 86
4, 335232, Note_on_c, 2, 76, 86
4, 335232, Note_on_c, 2, 69, 86
4, 335612, Note_off_c, 2, 79, 0
4, 335612, Note_off_c, 2, 76, 0
4, 335612, Note_off_c, 2, 69, 0
4, 335616, Note_on_c, 2, 78, 86
4, 335616, Note_on_c, 2, 74, 86
4, 335616, Note_on_c, 2, 69, 86
4, 335996, Note_off_c, 2, 78, 0
4, 335996, Note_off_c, 2, 74, 0
4, 335996, Note_off_c, 2, 69, 0
4, 336000, Note_on_c, 2, 74, 86
4, 336000, Note_on_c, 2, 81, 86
4, 336000, Note_on_c, 2, 86, 86
4, 336380, Note_off_c, 2, 74, 0
4, 336380, Note_off_c, 2, 81, 0
4, 336380, Note_off_c, 2, 86, 0
4, 336384, Note_on_c, 2, 69, 86
4, 336384, Note_on_c, 2, 57, 86
4, 337100, Note_off_c, 2, 69, 0
4, 337100, Note_off_c, 2, 57, 0
4, 373248, Note_on_c, 2, 86, 86
4, 373248, Note_on_c, 2, 81, 86
4, 373248, Note_on_c, 2, 78, 86
4, 373248, Note_on_c, 2, 74, 86
4, 373628, Note_off_c, 2, 86, 0
4, 373628, Note_off_c, 2, 81, 0
4, 373628, Note_off_c, 2, 78, 0
4, 373628, Note_off_c, 2, 74, 0
4, 373632, Note_on_c, 2, 74, 86
4, 373632, Note_on_c, 2, 69, 86
4, 373632, Note_on_c, 2, 66, 86
4, 374012, Note_off_c, 2, 74, 0
4, 374012, Note_off_c, 2, 69, 0
4, 374012, Note_off_c, 2, 66, 0
4, 374208, Note_on_c, 2, 74, 86
4, 374208, Note_on_c, 2, 69, 86
4, 374208, Note_on_c, 2, 66, 86
4, 374300, Note_off_c, 2, 74, 0
4, 374300, Note_off_c, 2, 69, 0
4, 374300, Note_off_c, 2, 66, 0
4, 374400, Note_on_c, 2, 78, 86
4, 374400, Note_on_c, 2, 74, 86
4, 374400, Note_on_c, 2, 69, 86
4, 374492, Note_off_c, 2, 78, 0
4, 374492, Note_off_c, 2, 74, 0
4, 374492, Note_off_c, 2, 69, 0
4, 374592, Note_on_c, 2, 81, 86
4, 374592, Note_on_c, 2, 78, 86
4, 374592, Note_on_c, 2, 74, 86
4, 374684, Note_off_c, 2, 81, 0
4, 374684, Note_off_c, 2, 78, 0
4, 374684, Note_off_c, 2, 74, 0
4, 374784, Note_on_c, 2, 83, 86
4, 374784, Note_on_c, 2, 79, 86
4, 374784, Note_on_c, 2, 74, 86
4, 375068, Note_off_c, 2, 83, 0
4, 375068, Note_off_c, 2, 79, 0
4, 375068, Note_off_c, 2, 74, 0
4, 375072, Note_on_c, 2, 79, 90
4, 375136, Note_off_c, 2, 79, 0
4, 375168, Note_on_c, 2, 83, 82
4, 375168, Note_on_c, 2, 74, 82
4, 375548, Note_off_c, 2, 83, 0
4, 375548, Note_off_c, 2, 74, 0
4, 375744, Note_on_c, 2, 74, 86
4, 375744, Note_on_c, 2, 71, 86
4, 375744, Note_on_c, 2, 67, 86
4, 375836, Note_off_c, 2, 74, 0
4, 375836, Note_off_c, 2, 71, 0
4, 375836, Note_off_c, 2, 67, 0
4, 375936, Note_on_c, 2, 79, 86
4, 375936, Note_on_c, 2, 74, 86
4, 375936, Note_on_c, 2, 71, 86
4, 376028, Note_off_c, 2, 79, 0
4, 376028, Note_off_c, 2, 74, 0
4, 376028, Note_off_c, 2, 71, 0
4, 376128, Note_on_c, 2, 83, 86
4, 376128, Note_on_c, 2, 79, 86
4, 376128, Note_on_c, 2, 74, 86
4, 376220, Note_off_c, 2, 83, 0
4, 376220, Note_off_c, 2, 79, 0
4, 376220, Note_off_c, 2, 74, 0
4, 376320, Note_on_c, 2, 81, 86
4, 376320, Note_on_c, 2, 78, 86
4, 376320, Note_on_c, 2, 74, 86
4, 376604, Note_off_c, 2, 81, 0
4, 376604, Note_off_c, 2, 78, 0
4, 376604, Note_off_c, 2, 74, 0
4, 376608, Note_on_c, 2, 78, 90
4, 376672, Note_off_c, 2, 78, 0
4, 376704, Note_on_c, 2, 81, 82
4, 376704, Note_on_c, 2, 78, 82
4, 376704, Note_on_c, 2, 74, 82
4, 377084, Note_off_c, 2, 81, 0
4, 377084, Note_off_c, 2, 78, 0
4, 377084, Note_off_c, 2, 74, 0
4, 377280, Note_on_c, 2, 74, 86
4, 377280, Note_on_c, 2, 69, 86
4, 377280, Note_on_c, 2, 66, 86
4, 377372, Note_off_c, 2, 74, 0
4, 377372, Note_off_c, 2, 69, 0
4, 377372, Note_off_c, 2, 66, 0
4, 377472, Note_on_c, 2, 78, 86
4, 377472, Note_on_c, 2, 74, 86
4, 377472, Note_on_c, 2, 69, 86
4, 377564, Note_off_c, 2, 78, 0
4, 377564, Note_off_c, 2, 74, 0
4, 377564, Note_off_c, 2, 69, 0
4, 377664, Note_on_c, 2, 81, 86
4, 377664, Note_on_c, 2, 78, 86
4, 377664, Note_on_c, 2, 74, 86
4, 377756, Note_off_c, 2, 81, 0
4, 377756, Note_off_c, 2, 78, 0
4, 377756, Note_off_c, 2, 74, 0
4, 377856, Note_on_c, 2, 79, 86
4, 377856, Note_on_c, 2, 76, 86
4, 377856, Note_on_c, 2, 73, 86
4, 378140, Note_off_c, 2, 79, 0
4, 378140, Note_off_c, 2, 76, 0
4, 378140, Note_off_c, 2, 73, 0
4, 378144, Note_on_c, 2, 76, 90
4, 378208, Note_off_c, 2, 76, 0
4, 378240, Note_on_c, 2, 79, 82
4, 378240, Note_on_c, 2, 76, 82
4, 378240, Note_on_c, 2, 73, 82
4, 378240, Note_on_c, 2, 69, 86
4, 378620, Note_off_c, 2, 79, 0
4, 378620, Note_off_c, 2, 76, 0
4, 378620, Note_off_c, 2, 73, 0
4, 378620, Note_off_c, 2, 69, 0
4, 378816, Note_on_c, 2, 69, 86
4, 378816, Note_on_c, 2, 64, 86
4, 378816, Note_on_c, 2, 61, 86
4, 378908, Note_off_c, 2, 69, 0
4, 378908, Note_off_c, 2, 64, 0
4, 378908, Note_off_c, 2, 61, 0
4, 379008, Note_on_c, 2, 76, 86
4, 379008, Note_on_c, 2, 73, 86
4, 379008, Note_on_c, 2, 67, 86
4, 379100, Note_off_c, 2, 76, 0
4, 379100, Note_off_c, 2, 73, 0
4, 379100, Note_off_c, 2, 67, 0
4, 379200, Note_on_c, 2, 79, 86
4, 379200, Note_on_c, 2, 76, 86
4, 379200, Note_on_c, 2, 73, 86
4, 379292, Note_off_c, 2, 79, 0
4, 379292, Note_off_c, 2, 76, 0
4, 379292, Note_off_c, 2, 73, 0
4, 379392, Note_on_c, 2, 78, 86
4, 379392, Note_on_c, 2, 74, 86
4, 379392, Note_on_c, 2, 69, 86
4, 379580, Note_off_c, 2, 78, 0
4, 379580, Note_off_c, 2, 74, 0
4, 379580, Note_off_c, 2, 69, 0
4, 379584, Note_on_c, 2, 86, 86
4, 379772, Note_off_c, 2, 86, 0
4, 379776, Note_on_c, 2, 86, 86
4, 379776, Note_on_c, 2, 81, 86
4, 379776, Note_on_c, 2, 78, 86
4, 379868, Note_off_c, 2, 86, 0
4, 379868, Note_off_c, 2, 81, 0
4, 379868, Note_off_c, 2, 78, 0
4, 379968, Note_on_c, 2, 86, 86
4, 379968, Note_on_c, 2, 81, 86
4, 379968, Note_on_c, 2, 78, 86
4, 380060, Note_off_c, 2, 86, 0
4, 380060, Note_off_c, 2, 81, 0
4, 380060, Note_off_c, 2, 78, 0
4, 380160, Note_on_c, 2, 81, 86
4, 380160, Note_on_c, 2, 74, 86
4, 380160, Note_on_c, 2, 84, 86
4, 380348, Note_off_c, 2, 81, 0
4, 380348, Note_off_c, 2, 74, 0
4, 380348, Note_off_c, 2, 84, 0
4, 380352, Note_on_c, 2, 81, 86
4, 380352, Note_on_c, 2, 74, 86
4, 380352, Note_on_c, 2, 84, 86
4, 380540, Note_off_c, 2, 81, 0
4, 380540, Note_off_c, 2, 74, 0
4, 380540, Note_off_c, 2, 84, 0
4, 380544, Note_on_c, 2, 81, 86
4, 380544, Note_on_c, 2, 74, 86
4, 380544, Note_on_c, 2, 84, 86
4, 380636, Note_off_c, 2, 81, 0
4, 380636, Note_off_c, 2, 74, 0
4, 380636, Note_off_c, 2, 84, 0
4, 380736, Note_on_c, 2, 81, 86
4, 380736, Note_on_c, 2, 74, 86
4, 380736, Note_on_c, 2, 84, 86
4, 380828, Note_off_c, 2, 81, 0
4, 380828, Note_off_c, 2, 74, 0
4, 380828, Note_off_c, 2, 84, 0
4, 380928, Note_on_c, 2, 84, 86
4, 380928, Note_on_c, 2, 81, 86
4, 380928, Note_on_c, 2, 74, 86
4, 381116, Note_off_c, 2, 84, 0
4, 381116, Note_off_c, 2, 81, 0
4, 381116, Note_off_c, 2, 74, 0
4, 381120, Note_on_c, 2, 83, 86
4, 381120, Note_on_c, 2, 79, 86
4, 381308, Note_off_c, 2, 83, 0
4, 381308, Note_off_c, 2, 79, 0
4, 381312, Note_on_c, 2, 83, 86
4, 381312, Note_on_c, 2, 79, 86
4, 381312, Note_on_c, 2, 74, 86
4, 381404, Note_off_c, 2, 83, 0
4, 381404, Note_off_c, 2, 79, 0
4, 381404, Note_off_c, 2, 74, 0
4, 381504, Note_on_c, 2, 83, 86
4, 381504, Note_on_c, 2, 79, 86
4, 381504, Note_on_c, 2, 74, 86
4, 381596, Note_off_c, 2, 83, 0
4, 381596, Note_off_c, 2, 79, 0
4, 381596, Note_off_c, 2, 74, 0
4, 381696, Note_on_c, 2, 83, 86
4, 381696, Note_on_c, 2, 79, 86
4, 381696, Note_on_c, 2, 74, 86
4, 382268, Note_off_c, 2, 83, 0
4, 382268, Note_off_c, 2, 79, 0
4, 382268, Note_off_c, 2, 74, 0
4, 382272, Note_on_c, 2, 83, 86
4, 382272, Note_on_c, 2, 79, 86
4, 382272, Note_on_c, 2, 74, 86
4, 382460, Note_off_c, 2, 83, 0
4, 382460, Note_off_c, 2, 79, 0
4, 382460, Note_off_c, 2, 74, 0
4, 382464, Note_on_c, 2, 79, 90
4, 382464, Note_on_c, 2, 85, 90
4, 382556, Note_off_c, 2, 79, 0
4, 382556, Note_off_c, 2, 85, 0
4, 382560, Note_on_c, 2, 78, 82
4, 382576, Note_on_c, 2, 81, 82
4, 382844, Note_off_c, 2, 78, 0
4, 382848, Note_on_c, 2, 79, 90
4, 382848, Note_on_c, 2, 76, 90
4, 382860, Note_off_c, 2, 81, 0
4, 382940, Note_off_c, 2, 79, 0
4, 382940, Note_off_c, 2, 76, 0
4, 382944, Note_on_c, 2, 78, 82
4, 382944, Note_on_c, 2, 74, 82
4, 383228, Note_off_c, 2, 78, 0
4, 383228, Note_off_c, 2, 74, 0
4, 383232, Note_on_c, 2, 78, 90
4, 383232, Note_on_c, 2, 81, 90
4, 383324, Note_off_c, 2, 78, 0
4, 383324, Note_off_c, 2, 81, 0
4, 383328, Note_on_c, 2, 79, 82
4, 383328, Note_on_c, 2, 76, 82
4, 383612, Note_off_c, 2, 79, 0
4, 383612, Note_off_c, 2, 76, 0
4, 383616, Note_on_c, 2, 78, 90
4, 383616, Note_on_c, 2, 74, 90
4, 383708, Note_off_c, 2, 78, 0
4, 383708, Note_off_c, 2, 74, 0
4, 383712, Note_on_c, 2, 76, 82
4, 383712, Note_on_c, 2, 73, 82
4, 383996, Note_off_c, 2, 76, 0
4, 383996, Note_off_c, 2, 73, 0
4, 384000, Note_on_c, 2, 74, 59
4, 384188, Note_off_c, 2, 74, 0
4, 384192, Note_on_c, 2, 62, 59
4, 384380, Note_off_c, 2, 62, 0
4, 384384, Note_on_c, 2, 74, 59
4, 384384, Note_on_c, 2, 62, 59
4, 384476, Note_off_c, 2, 74, 0
4, 384476, Note_off_c, 2, 62, 0
4, 384576, Note_on_c, 2, 74, 59
4, 384576, Note_on_c, 2, 62, 59
4, 384668, Note_off_c, 2, 74, 0
4, 384668, Note_off_c, 2, 62, 0
4, 384768, Note_on_c, 2, 74, 59
4, 384768, Note_on_c, 2, 62, 59
4, 384956, Note_off_c, 2, 74, 0
4, 384956, Note_off_c, 2, 62, 0
4, 384960, Note_on_c, 2, 72, 59
4, 384960, Note_on_c, 2, 69, 59
4, 385148, Note_off_c, 2, 72, 0
4, 385148, Note_off_c, 2, 69, 0
4, 385152, Note_on_c, 2, 72, 59
4, 385152, Note_on_c, 2, 69, 59
4, 385244, Note_off_c, 2, 72, 0
4, 385244, Note_off_c, 2, 69, 0
4, 385344, Note_on_c, 2, 72, 59
4, 385344, Note_on_c, 2, 69, 59
4, 385436, Note_off_c, 2, 72, 0
4, 385436, Note_off_c, 2, 69, 0
4, 385536, Note_on_c, 2, 72, 59
4, 385536, Note_on_c, 2, 69, 59
4, 385724, Note_off_c, 2, 72, 0
4, 385724, Note_off_c, 2, 69, 0
4, 385728, Note_on_c, 2, 71, 59
4, 385728, Note_on_c, 2, 67, 59
4, 385916, Note_off_c, 2, 71, 0
4, 385916, Note_off_c, 2, 67, 0
4, 385920, Note_on_c, 2, 71, 59
4, 385920, Note_on_c, 2, 67, 59
4, 386012, Note_off_c, 2, 71, 0
4, 386012, Note_off_c, 2, 67, 0
4, 386112, Note_on_c, 2, 71, 59
4, 386112, Note_on_c, 2, 67, 59
4, 386204, Note_off_c, 2, 71, 0
4, 386204, Note_off_c, 2, 67, 0
4, 386304, Note_on_c, 2, 71, 59
4, 386304, Note_on_c, 2, 67, 59
4, 387068, Note_off_c, 2, 71, 0
4, 387068, Note_off_c, 2, 67, 0
4, 387264, Note_on_c, 2, 59, 86
4, 387452, Note_off_c, 2, 59, 0
4, 387456, Note_on_c, 2, 62, 86
4, 387644, Note_off_c, 2, 62, 0
4, 387648, Note_on_c, 2, 67, 86
4, 387836, Note_off_c, 2, 67, 0
4, 387840, Note_on_c, 2, 71, 86
4, 388028, Note_off_c, 2, 71, 0
4, 388032, Note_on_c, 2, 74, 86
4, 388220, Note_off_c, 2, 74, 0
4, 388224, Note_on_c, 2, 79, 86
4, 388412, Note_off_c, 2, 79, 0
4, 388416, Note_on_c, 2, 83, 86
4, 388416, Note_on_c, 2, 74, 86
4, 388604, Note_off_c, 2, 83, 0
4, 388604, Note_off_c, 2, 74, 0
4, 388608, Note_on_c, 2, 86, 86
4, 388608, Note_on_c, 2, 83, 86
4, 388608, Note_on_c, 2, 77, 86
4, 388608, Note_on_c, 2, 74, 86
4, 388988, Note_off_c, 2, 86, 0
4, 388988, Note_off_c, 2, 83, 0
4, 388988, Note_off_c, 2, 77, 0
4, 388988, Note_off_c, 2, 74, 0
4, 388992, Note_on_c, 2, 86, 86
4, 388992, Note_on_c, 2, 83, 86
4, 388992, Note_on_c, 2, 77, 86
4, 388992, Note_on_c, 2, 74, 86
4, 389276, Note_off_c, 2, 86, 0
4, 389276, Note_off_c, 2, 83, 0
4, 389276, Note_off_c, 2, 77, 0
4, 389276, Note_off_c, 2, 74, 0
4, 389280, Note_on_c, 2, 86, 90
4, 389280, Note_on_c, 2, 83, 90
4, 389280, Note_on_c, 2, 77, 90
4, 389280, Note_on_c, 2, 74, 90
4, 389352, Note_off_c, 2, 86, 0
4, 389352, Note_off_c, 2, 83, 0
4, 389352, Note_off_c, 2, 77, 0
4, 389352, Note_off_c, 2, 74, 0
4, 389376, Note_on_c, 2, 86, 82
4, 389376, Note_on_c, 2, 83, 82
4, 389376, Note_on_c, 2, 77, 82
4, 389376, Note_on_c, 2, 74, 82
4, 389756, Note_off_c, 2, 86, 0
4, 389756, Note_off_c, 2, 83, 0
4, 389756, Note_off_c, 2, 77, 0
4, 389756, Note_off_c, 2, 74, 0
4, 389760, Note_on_c, 2, 86, 86
4, 389760, Note_on_c, 2, 83, 86
4, 389760, Note_on_c, 2, 77, 86
4, 389760, Note_on_c, 2, 74, 86
4, 390140, Note_off_c, 2, 86, 0
4, 390140, Note_off_c, 2, 83, 0
4, 390140, Note_off_c, 2, 77, 0
4, 390140, Note_off_c, 2, 74, 0
4, 390144, Note_on_c, 2, 86, 86
4, 390144, Note_on_c, 2, 81, 86
4, 390144, Note_on_c, 2, 78, 86
4, 390144, Note_on_c, 2, 74, 86
4, 390236, Note_off_c, 2, 86, 0
4, 390236, Note_off_c, 2, 81, 0
4, 390236, Note_off_c, 2, 78, 0
4, 390236, Note_off_c, 2, 74, 0
4, 390240, Note_on_c, 2, 81, 86
4, 390332, Note_off_c, 2, 81, 0
4, 390336, Note_on_c, 2, 78, 86
4, 390428, Note_off_c, 2, 78, 0
4, 390432, Note_on_c, 2, 74, 86
4, 390524, Note_off_c, 2, 74, 0
4, 390528, Note_on_c, 2, 81, 86
4, 390620, Note_off_c, 2, 81, 0
4, 390624, Note_on_c, 2, 78, 86
4, 390716, Note_off_c, 2, 78, 0
4, 390720, Note_on_c, 2, 74, 86
4, 390812, Note_off_c, 2, 74, 0
4, 390816, Note_on_c, 2, 69, 86
4, 390908, Note_off_c, 2, 69, 0
4, 390912, Note_on_c, 2, 78, 86
4, 391004, Note_off_c, 2, 78, 0
4, 391008, Note_on_c, 2, 74, 86
4, 391100, Note_off_c, 2, 74, 0
4, 391104, Note_on_c, 2, 69, 86
4, 391196, Note_off_c, 2, 69, 0
4, 391200, Note_on_c, 2, 66, 86
4, 391292, Note_off_c, 2, 66, 0
4, 391296, Note_on_c, 2, 74, 86
4, 391388, Note_off_c, 2, 74, 0
4, 391392, Note_on_c, 2, 69, 86
4, 391484, Note_off_c, 2, 69, 0
4, 391488, Note_on_c, 2, 66, 86
4, 391580, Note_off_c, 2, 66, 0
4, 391584, Note_on_c, 2, 62, 86
4, 391676, Note_off_c, 2, 62, 0
4, 391680, Note_on_c, 2, 57, 86
4, 392060, Note_off_c, 2, 57, 0
4, 392064, Note_on_c, 2, 78, 86
4, 392064, Note_on_c, 2, 74, 86
4, 392156, Note_off_c, 2, 78, 0
4, 392156, Note_off_c, 2, 74, 0
4, 392160, Note_on_c, 2, 69, 86
4, 392252, Note_off_c, 2, 69, 0
4, 392256, Note_on_c, 2, 78, 86
4, 392256, Note_on_c, 2, 74, 86
4, 392348, Note_off_c, 2, 78, 0
4, 392348, Note_off_c, 2, 74, 0
4, 392352, Note_on_c, 2, 69, 86
4, 392444, Note_off_c, 2, 69, 0
4, 392448, Note_on_c, 2, 76, 86
4, 392448, Note_on_c, 2, 73, 86
4, 392540, Note_off_c, 2, 76, 0
4, 392540, Note_off_c, 2, 73, 0
4, 392544, Note_on_c, 2, 67, 86
4, 392636, Note_off_c, 2, 67, 0
4, 392640, Note_on_c, 2, 76, 86
4, 392640, Note_on_c, 2, 73, 86
4, 392732, Note_off_c, 2, 76, 0
4, 392732, Note_off_c, 2, 73, 0
4, 392736, Note_on_c, 2, 67, 86
4, 392828, Note_off_c, 2, 67, 0
4, 392832, Note_on_c, 2, 76, 86
4, 392832, Note_on_c, 2, 73, 86
4, 392924, Note_off_c, 2, 76, 0
4, 392924, Note_off_c, 2, 73, 0
4, 392928, Note_on_c, 2, 67, 86
4, 393020, Note_off_c, 2, 67, 0
4, 393024, Note_on_c, 2, 76, 86
4, 393024, Note_on_c, 2, 73, 86
4, 393116, Note_off_c, 2, 76, 0
4, 393116, Note_off_c, 2, 73, 0
4, 393120, Note_on_c, 2, 67, 86
4, 393212, Note_off_c, 2, 67, 0
4, 393216, Note_on_c, 2, 74, 86
4, 393216, Note_on_c, 2, 66, 86
4, 393404, Note_off_c, 2, 74, 0
4, 393404, Note_off_c, 2, 66, 0
4, 393408, Note_on_c, 2, 78, 90
4, 393500, Note_off_c, 2, 78, 0
4, 393504, Note_on_c, 2, 74, 82
4, 393596, Note_off_c, 2, 74, 0
4, 393600, Note_on_c, 2, 69, 86
4, 394172, Note_off_c, 2, 69, 0
4, 394176, Note_on_c, 2, 74, 90
4, 394268, Note_off_c, 2, 74, 0
4, 394272, Note_on_c, 2, 69, 82
4, 394364, Note_off_c, 2, 69, 0
4, 394368, Note_on_c, 2, 66, 86
4, 394940, Note_off_c, 2, 66, 0
4, 394944, Note_on_c, 2, 69, 90
4, 395036, Note_off_c, 2, 69, 0
4, 395040, Note_on_c, 2, 66, 82
4, 395132, Note_off_c, 2, 66, 0
4, 395136, Note_on_c, 2, 62, 86
4, 395708, Note_off_c, 2, 62, 0
4, 395712, Note_on_c, 2, 66, 86
4, 395900, Note_off_c, 2, 66, 0
4, 395904, Note_on_c, 2, 62, 86
4, 396092, Note_off_c, 2, 62, 0
4, 396096, Note_on_c, 2, 66, 86
4, 396284, Note_off_c, 2, 66, 0
4, 396288, Note_on_c, 2, 62, 86
4, 396668, Note_off_c, 2, 62, 0
4, 396672, Note_on_c, 2, 81, 86
4, 396672, Note_on_c, 2, 78, 86
4, 396672, Note_on_c, 2, 74, 86
4, 396672, Note_on_c, 2, 69, 86
4, 397052, Note_off_c, 2, 81, 0
4, 397052, Note_off_c, 2, 78, 0
4, 397052, Note_off_c, 2, 74, 0
4, 397052, Note_off_c, 2, 69, 0
4, 397056, Note_on_c, 2, 86, 86
4, 397056, Note_on_c, 2, 81, 86
4, 397056, Note_on_c, 2, 78, 86
4, 397056, Note_on_c, 2, 74, 86
4, 397436, Note_off_c, 2, 86, 0
4, 397436, Note_off_c, 2, 81, 0
4, 397436, Note_off_c, 2, 78, 0
4, 397436, Note_off_c, 2, 74, 0
4, 397436, End_track
5, 0, Start_track
5, 0, Title_t, "B.Fisher"
5, 0, Control_c, 3, 0, 0
5, 0, Program_c, 3, 48
5, 0, Control_c, 3, 7, 127
5, 0, Control_c, 3, 10, 94
5, 0, Control_c, 3, 91, 63
5, 0, Control_c, 3, 93, 51
5, 0, Key_signature, 2, "major"
5, 0, Control_c, 3, 121, 0
5, 384, Control_c, 3, 10, 73
5, 480, Control_c, 3, 91, 63
5, 672, Program_c, 3, 48
5, 1536, Note_on_c, 3, 62, 86
5, 1536, Note_on_c, 3, 50, 86
5, 2108, Note_off_c, 3, 62, 0
5, 2108, Note_off_c, 3, 50, 0
5, 2112, Note_on_c, 3, 57, 86
5, 2112, Note_on_c, 3, 54, 86
5, 2300, Note_off_c, 3, 57, 0
5, 2300, Note_off_c, 3, 54, 0
5, 2304, Note_on_c, 3, 57, 86
5, 2304, Note_on_c, 3, 55, 86
5, 2396, Note_off_c, 3, 57, 0
5, 2396, Note_off_c, 3, 55, 0
5, 2496, Note_on_c, 3, 57, 86
5, 2496, Note_on_c, 3, 54, 86
5, 2588, Note_off_c, 3, 57, 0
5, 2588, Note_off_c, 3, 54, 0
5, 2688, Note_on_c, 3, 57, 86
5, 2688, Note_on_c, 3, 55, 86
5, 2780, Note_off_c, 3, 57, 0
5, 2780, Note_off_c, 3, 55, 0
5, 2880, Note_on_c, 3, 57, 86
5, 2880, Note_on_c, 3, 52, 86
5, 2972, Note_off_c, 3, 57, 0
5, 2972, Note_off_c, 3, 52, 0
5, 3072, Note_on_c, 3, 57, 86
5, 3072, Note_on_c, 3, 54, 86
5, 3644, Note_off_c, 3, 57, 0
5, 3644, Note_off_c, 3, 54, 0
5, 3648, Note_on_c, 3, 62, 86
5, 3836, Note_off_c, 3, 62, 0
5, 3840, Note_on_c, 3, 64, 86
5, 3932, Note_off_c, 3, 64, 0
5, 4032, Note_on_c, 3, 62, 86
5, 4124, Note_off_c, 3, 62, 0
5, 4224, Note_on_c, 3, 64, 86
5, 4316, Note_off_c, 3, 64, 0
5, 4416, Note_on_c, 3, 61, 86
5, 4508, Note_off_c, 3, 61, 0
5, 4608, Note_on_c, 3, 62, 86
5, 5180, Note_off_c, 3, 62, 0
5, 5184, Note_on_c, 3, 66, 86
5, 5184, Note_on_c, 3, 54, 86
5, 5372, Note_off_c, 3, 66, 0
5, 5372, Note_off_c, 3, 54, 0
5, 5376, Note_on_c, 3, 67, 86
5, 5376, Note_on_c, 3, 55, 86
5, 5468, Note_off_c, 3, 67, 0
5, 5468, Note_off_c, 3, 55, 0
5, 5568, Note_on_c, 3, 66, 86
5, 5568, Note_on_c, 3, 54, 86
5, 5660, Note_off_c, 3, 66, 0
5, 5660, Note_off_c, 3, 54, 0
5, 5760, Note_on_c, 3, 67, 86
5, 5760, Note_on_c, 3, 55, 86
5, 5852, Note_off_c, 3, 67, 0
5, 5852, Note_off_c, 3, 55, 0
5, 5952, Note_on_c, 3, 64, 86
5, 5952, Note_on_c, 3, 52, 86
5, 6044, Note_off_c, 3, 64, 0
5, 6044, Note_off_c, 3, 52, 0
5, 6144, Note_on_c, 3, 62, 86
5, 6144, Note_on_c, 3, 50, 86
5, 6332, Note_off_c, 3, 50, 0
5, 6336, Note_on_c, 3, 50, 86
5, 6524, Note_off_c, 3, 62, 0
5, 6524, Note_off_c, 3, 50, 0
5, 6528, Note_on_c, 3, 54, 86
5, 6716, Note_off_c, 3, 54, 0
5, 6720, Note_on_c, 3, 57, 86
5, 6908, Note_off_c, 3, 57, 0
5, 6912, Note_on_c, 3, 62, 86
5, 7292, Note_off_c, 3, 62, 0
5, 7296, Note_on_c, 3, 50, 86
5, 7676, Note_off_c, 3, 50, 0
5, 7872, Note_on_c, 3, 50, 86
5, 8060, Note_off_c, 3, 50, 0
5, 8064, Note_on_c, 3, 55, 86
5, 8252, Note_off_c, 3, 55, 0
5, 8256, Note_on_c, 3, 59, 86
5, 8444, Note_off_c, 3, 59, 0
5, 8448, Note_on_c, 3, 62, 86
5, 8828, Note_off_c, 3, 62, 0
5, 8832, Note_on_c, 3, 50, 86
5, 9212, Note_off_c, 3, 50, 0
5, 9408, Note_on_c, 3, 50, 86
5, 9596, Note_off_c, 3, 50, 0
5, 9600, Note_on_c, 3, 54, 86
5, 9788, Note_off_c, 3, 54, 0
5, 9792, Note_on_c, 3, 57, 86
5, 9980, Note_off_c, 3, 57, 0
5, 9984, Note_on_c, 3, 62, 86
5, 10364, Note_off_c, 3, 62, 0
5, 10752, Note_on_c, 3, 52, 59
5, 10752, Note_on_c, 3, 64, 59
5, 11132, Note_off_c, 3, 52, 0
5, 11132, Note_off_c, 3, 64, 0
5, 11904, Note_on_c, 3, 61, 59
5, 11904, Note_on_c, 3, 49, 59
5, 12284, Note_off_c, 3, 61, 0
5, 12284, Note_off_c, 3, 49, 0
5, 12288, Note_on_c, 3, 62, 59
5, 12288, Note_on_c, 3, 50, 59
5, 12668, Note_off_c, 3, 62, 0
5, 12668, Note_off_c, 3, 50, 0
5, 13440, Note_on_c, 3, 54, 59
5, 13820, Note_off_c, 3, 54, 0
5, 13824, Note_on_c, 3, 55, 59
5, 14204, Note_off_c, 3, 55, 0
5, 14208, Note_on_c, 3, 52, 59
5, 14588, Note_off_c, 3, 52, 0
5, 14592, Note_on_c, 3, 57, 59
5, 14972, Note_off_c, 3, 57, 0
5, 14976, Note_on_c, 3, 45, 59
5, 15356, Note_off_c, 3, 45, 0
5, 15360, Note_on_c, 3, 62, 86
5, 15360, Note_on_c, 3, 50, 86
5, 15740, Note_off_c, 3, 62, 0
5, 15740, Note_off_c, 3, 50, 0
5, 15936, Note_on_c, 3, 62, 86
5, 15936, Note_on_c, 3, 50, 86
5, 16124, Note_off_c, 3, 62, 0
5, 16124, Note_off_c, 3, 50, 0
5, 16128, Note_on_c, 3, 61, 86
5, 16128, Note_on_c, 3, 49, 86
5, 16508, Note_off_c, 3, 61, 0
5, 16508, Note_off_c, 3, 49, 0
5, 18432, Note_on_c, 3, 62, 86
5, 18432, Note_on_c, 3, 54, 86
5, 18620, Note_off_c, 3, 62, 0
5, 18620, Note_off_c, 3, 54, 0
5, 18624, Note_on_c, 3, 54, 86
5, 18624, Note_on_c, 3, 42, 86
5, 18812, Note_off_c, 3, 54, 0
5, 18812, Note_off_c, 3, 42, 0
5, 18816, Note_on_c, 3, 54, 86
5, 18816, Note_on_c, 3, 42, 86
5, 19004, Note_off_c, 3, 54, 0
5, 19004, Note_off_c, 3, 42, 0
5, 19008, Note_on_c, 3, 54, 86
5, 19008, Note_on_c, 3, 42, 86
5, 19196, Note_off_c, 3, 54, 0
5, 19196, Note_off_c, 3, 42, 0
5, 19200, Note_on_c, 3, 55, 86
5, 19200, Note_on_c, 3, 43, 86
5, 19388, Note_off_c, 3, 55, 0
5, 19388, Note_off_c, 3, 43, 0
5, 19392, Note_on_c, 3, 55, 86
5, 19392, Note_on_c, 3, 43, 86
5, 19580, Note_off_c, 3, 55, 0
5, 19580, Note_off_c, 3, 43, 0
5, 19584, Note_on_c, 3, 56, 86
5, 19584, Note_on_c, 3, 44, 86
5, 19772, Note_off_c, 3, 56, 0
5, 19772, Note_off_c, 3, 44, 0
5, 19776, Note_on_c, 3, 56, 86
5, 19776, Note_on_c, 3, 44, 86
5, 19964, Note_off_c, 3, 56, 0
5, 19964, Note_off_c, 3, 44, 0
5, 19968, Note_on_c, 3, 57, 86
5, 19968, Note_on_c, 3, 45, 86
5, 20156, Note_off_c, 3, 57, 0
5, 20156, Note_off_c, 3, 45, 0
5, 20160, Note_on_c, 3, 45, 86
5, 20348, Note_off_c, 3, 45, 0
5, 20352, Note_on_c, 3, 49, 86
5, 20540, Note_off_c, 3, 49, 0
5, 20544, Note_on_c, 3, 45, 86
5, 20732, Note_off_c, 3, 45, 0
5, 20736, Note_on_c, 3, 50, 86
5, 20924, Note_off_c, 3, 50, 0
5, 20928, Note_on_c, 3, 45, 86
5, 21116, Note_off_c, 3, 45, 0
5, 21120, Note_on_c, 3, 54, 86
5, 21308, Note_off_c, 3, 54, 0
5, 21312, Note_on_c, 3, 52, 86
5, 21404, Note_off_c, 3, 52, 0
5, 21408, Note_on_c, 3, 50, 86
5, 21500, Note_off_c, 3, 50, 0
5, 21504, Note_on_c, 3, 57, 86
5, 21692, Note_off_c, 3, 57, 0
5, 21696, Note_on_c, 3, 45, 86
5, 21884, Note_off_c, 3, 45, 0
5, 21888, Note_on_c, 3, 49, 86
5, 22076, Note_off_c, 3, 49, 0
5, 22080, Note_on_c, 3, 45, 86
5, 22268, Note_off_c, 3, 45, 0
5, 22272, Note_on_c, 3, 50, 86
5, 22460, Note_off_c, 3, 50, 0
5, 22464, Note_on_c, 3, 45, 86
5, 22652, Note_off_c, 3, 45, 0
5, 22656, Note_on_c, 3, 54, 86
5, 22844, Note_off_c, 3, 54, 0
5, 22848, Note_on_c, 3, 52, 86
5, 22940, Note_off_c, 3, 52, 0
5, 22944, Note_on_c, 3, 50, 86
5, 23036, Note_off_c, 3, 50, 0
5, 23040, Note_on_c, 3, 57, 86
5, 23420, Note_off_c, 3, 57, 0
5, 23424, Note_on_c, 3, 45, 86
5, 23424, Note_on_c, 3, 33, 86
5, 23708, Note_off_c, 3, 45, 0
5, 23708, Note_off_c, 3, 33, 0
5, 23712, Note_on_c, 3, 45, 86
5, 23712, Note_on_c, 3, 33, 86
5, 23784, Note_off_c, 3, 45, 0
5, 23784, Note_off_c, 3, 33, 0
5, 23808, Note_on_c, 3, 45, 86
5, 23808, Note_on_c, 3, 33, 86
5, 24188, Note_off_c, 3, 45, 0
5, 24188, Note_off_c, 3, 33, 0
5, 24576, Note_on_c, 3, 45, 59
5, 24668, Note_off_c, 3, 45, 0
5, 24672, Note_on_c, 3, 57, 59
5, 24764, Note_off_c, 3, 57, 0
5, 24768, Note_on_c, 3, 45, 59
5, 24860, Note_off_c, 3, 45, 0
5, 24864, Note_on_c, 3, 57, 59
5, 24956, Note_off_c, 3, 57, 0
5, 24960, Note_on_c, 3, 45, 59
5, 25052, Note_off_c, 3, 45, 0
5, 25056, Note_on_c, 3, 57, 59
5, 25148, Note_off_c, 3, 57, 0
5, 25152, Note_on_c, 3, 45, 59
5, 25244, Note_off_c, 3, 45, 0
5, 25248, Note_on_c, 3, 57, 59
5, 25340, Note_off_c, 3, 57, 0
5, 25344, Note_on_c, 3, 45, 59
5, 25436, Note_off_c, 3, 45, 0
5, 25440, Note_on_c, 3, 57, 59
5, 25532, Note_off_c, 3, 57, 0
5, 25536, Note_on_c, 3, 45, 59
5, 25628, Note_off_c, 3, 45, 0
5, 25632, Note_on_c, 3, 57, 59
5, 25724, Note_off_c, 3, 57, 0
5, 25728, Note_on_c, 3, 45, 59
5, 25820, Note_off_c, 3, 45, 0
5, 25824, Note_on_c, 3, 57, 59
5, 25916, Note_off_c, 3, 57, 0
5, 25920, Note_on_c, 3, 45, 59
5, 26012, Note_off_c, 3, 45, 0
5, 26016, Note_on_c, 3, 57, 59
5, 26108, Note_off_c, 3, 57, 0
5, 26112, Note_on_c, 3, 45, 59
5, 26204, Note_off_c, 3, 45, 0
5, 26208, Note_on_c, 3, 57, 59
5, 26300, Note_off_c, 3, 57, 0
5, 26304, Note_on_c, 3, 45, 59
5, 26396, Note_off_c, 3, 45, 0
5, 26400, Note_on_c, 3, 57, 59
5, 26492, Note_off_c, 3, 57, 0
5, 26496, Note_on_c, 3, 45, 59
5, 26588, Note_off_c, 3, 45, 0
5, 26592, Note_on_c, 3, 57, 59
5, 26684, Note_off_c, 3, 57, 0
5, 26688, Note_on_c, 3, 45, 59
5, 26780, Note_off_c, 3, 45, 0
5, 26784, Note_on_c, 3, 57, 59
5, 26876, Note_off_c, 3, 57, 0
5, 26880, Note_on_c, 3, 50, 59
5, 26972, Note_off_c, 3, 50, 0
5, 26976, Note_on_c, 3, 57, 59
5, 27068, Note_off_c, 3, 57, 0
5, 27072, Note_on_c, 3, 50, 59
5, 27164, Note_off_c, 3, 50, 0
5, 27168, Note_on_c, 3, 57, 59
5, 27260, Note_off_c, 3, 57, 0
5, 27264, Note_on_c, 3, 50, 59
5, 27356, Note_off_c, 3, 50, 0
5, 27360, Note_on_c, 3, 57, 59
5, 27452, Note_off_c, 3, 57, 0
5, 27456, Note_on_c, 3, 50, 59
5, 27548, Note_off_c, 3, 50, 0
5, 27552, Note_on_c, 3, 57, 59
5, 27644, Note_off_c, 3, 57, 0
5, 27648, Note_on_c, 3, 52, 59
5, 27740, Note_off_c, 3, 52, 0
5, 27744, Note_on_c, 3, 57, 59
5, 27836, Note_off_c, 3, 57, 0
5, 27840, Note_on_c, 3, 52, 59
5, 27932, Note_off_c, 3, 52, 0
5, 27936, Note_on_c, 3, 57, 59
5, 28028, Note_off_c, 3, 57, 0
5, 28032, Note_on_c, 3, 52, 59
5, 28124, Note_off_c, 3, 52, 0
5, 28128, Note_on_c, 3, 57, 59
5, 28220, Note_off_c, 3, 57, 0
5, 28224, Note_on_c, 3, 52, 59
5, 28316, Note_off_c, 3, 52, 0
5, 28320, Note_on_c, 3, 57, 59
5, 28412, Note_off_c, 3, 57, 0
5, 28416, Note_on_c, 3, 55, 59
5, 28508, Note_off_c, 3, 55, 0
5, 28512, Note_on_c, 3, 57, 59
5, 28604, Note_off_c, 3, 57, 0
5, 28608, Note_on_c, 3, 55, 59
5, 28700, Note_off_c, 3, 55, 0
5, 28704, Note_on_c, 3, 57, 59
5, 28796, Note_off_c, 3, 57, 0
5, 28800, Note_on_c, 3, 55, 59
5, 28892, Note_off_c, 3, 55, 0
5, 28896, Note_on_c, 3, 57, 59
5, 28988, Note_off_c, 3, 57, 0
5, 28992, Note_on_c, 3, 55, 59
5, 29084, Note_off_c, 3, 55, 0
5, 29088, Note_on_c, 3, 57, 59
5, 29180, Note_off_c, 3, 57, 0
5, 29184, Note_on_c, 3, 54, 59
5, 29276, Note_off_c, 3, 54, 0
5, 29280, Note_on_c, 3, 57, 59
5, 29372, Note_off_c, 3, 57, 0
5, 29376, Note_on_c, 3, 54, 59
5, 29468, Note_off_c, 3, 54, 0
5, 29472, Note_on_c, 3, 57, 59
5, 29564, Note_off_c, 3, 57, 0
5, 29568, Note_on_c, 3, 54, 59
5, 29660, Note_off_c, 3, 54, 0
5, 29664, Note_on_c, 3, 57, 59
5, 29756, Note_off_c, 3, 57, 0
5, 29760, Note_on_c, 3, 54, 59
5, 29852, Note_off_c, 3, 54, 0
5, 29856, Note_on_c, 3, 57, 59
5, 29948, Note_off_c, 3, 57, 0
5, 29952, Note_on_c, 3, 50, 59
5, 30044, Note_off_c, 3, 50, 0
5, 30048, Note_on_c, 3, 57, 59
5, 30140, Note_off_c, 3, 57, 0
5, 30144, Note_on_c, 3, 50, 59
5, 30236, Note_off_c, 3, 50, 0
5, 30240, Note_on_c, 3, 57, 59
5, 30332, Note_off_c, 3, 57, 0
5, 30336, Note_on_c, 3, 50, 59
5, 30428, Note_off_c, 3, 50, 0
5, 30432, Note_on_c, 3, 57, 59
5, 30524, Note_off_c, 3, 57, 0
5, 30528, Note_on_c, 3, 50, 59
5, 30620, Note_off_c, 3, 50, 0
5, 30624, Note_on_c, 3, 57, 59
5, 30716, Note_off_c, 3, 57, 0
5, 30720, Note_on_c, 3, 52, 59
5, 30812, Note_off_c, 3, 52, 0
5, 30816, Note_on_c, 3, 57, 59
5, 30908, Note_off_c, 3, 57, 0
5, 30912, Note_on_c, 3, 52, 59
5, 31004, Note_off_c, 3, 52, 0
5, 31008, Note_on_c, 3, 57, 59
5, 31100, Note_off_c, 3, 57, 0
5, 31104, Note_on_c, 3, 52, 59
5, 31196, Note_off_c, 3, 52, 0
5, 31200, Note_on_c, 3, 57, 59
5, 31292, Note_off_c, 3, 57, 0
5, 31296, Note_on_c, 3, 52, 59
5, 31388, Note_off_c, 3, 52, 0
5, 31392, Note_on_c, 3, 57, 59
5, 31484, Note_off_c, 3, 57, 0
5, 31488, Note_on_c, 3, 55, 59
5, 31580, Note_off_c, 3, 55, 0
5, 31584, Note_on_c, 3, 57, 59
5, 31676, Note_off_c, 3, 57, 0
5, 31680, Note_on_c, 3, 55, 59
5, 31772, Note_off_c, 3, 55, 0
5, 31776, Note_on_c, 3, 57, 59
5, 31868, Note_off_c, 3, 57, 0
5, 31872, Note_on_c, 3, 55, 59
5, 31964, Note_off_c, 3, 55, 0
5, 31968, Note_on_c, 3, 57, 59
5, 32060, Note_off_c, 3, 57, 0
5, 32064, Note_on_c, 3, 55, 59
5, 32156, Note_off_c, 3, 55, 0
5, 32160, Note_on_c, 3, 57, 59
5, 32252, Note_off_c, 3, 57, 0
5, 32256, Note_on_c, 3, 54, 86
5, 32444, Note_off_c, 3, 54, 0
5, 32448, Note_on_c, 3, 54, 86
5, 32448, Note_on_c, 3, 42, 86
5, 32636, Note_off_c, 3, 54, 0
5, 32636, Note_off_c, 3, 42, 0
5, 32640, Note_on_c, 3, 54, 86
5, 32640, Note_on_c, 3, 42, 86
5, 32828, Note_off_c, 3, 54, 0
5, 32828, Note_off_c, 3, 42, 0
5, 32832, Note_on_c, 3, 54, 86
5, 32832, Note_on_c, 3, 42, 86
5, 33020, Note_off_c, 3, 54, 0
5, 33020, Note_off_c, 3, 42, 0
5, 33024, Note_on_c, 3, 54, 86
5, 33024, Note_on_c, 3, 42, 86
5, 33212, Note_off_c, 3, 54, 0
5, 33212, Note_off_c, 3, 42, 0
5, 33216, Note_on_c, 3, 54, 86
5, 33216, Note_on_c, 3, 42, 86
5, 33404, Note_off_c, 3, 54, 0
5, 33404, Note_off_c, 3, 42, 0
5, 33408, Note_on_c, 3, 54, 86
5, 33408, Note_on_c, 3, 42, 86
5, 33596, Note_off_c, 3, 54, 0
5, 33596, Note_off_c, 3, 42, 0
5, 33600, Note_on_c, 3, 54, 86
5, 33600, Note_on_c, 3, 42, 86
5, 33788, Note_off_c, 3, 54, 0
5, 33788, Note_off_c, 3, 42, 0
5, 33792, Note_on_c, 3, 55, 86
5, 33792, Note_on_c, 3, 43, 86
5, 33980, Note_off_c, 3, 55, 0
5, 33980, Note_off_c, 3, 43, 0
5, 33984, Note_on_c, 3, 55, 86
5, 33984, Note_on_c, 3, 43, 86
5, 34172, Note_off_c, 3, 55, 0
5, 34172, Note_off_c, 3, 43, 0
5, 34176, Note_on_c, 3, 55, 86
5, 34176, Note_on_c, 3, 43, 86
5, 34364, Note_off_c, 3, 55, 0
5, 34364, Note_off_c, 3, 43, 0
5, 34368, Note_on_c, 3, 55, 86
5, 34368, Note_on_c, 3, 43, 86
5, 34556, Note_off_c, 3, 55, 0
5, 34556, Note_off_c, 3, 43, 0
5, 34560, Note_on_c, 3, 55, 86
5, 34560, Note_on_c, 3, 43, 86
5, 34748, Note_off_c, 3, 55, 0
5, 34748, Note_off_c, 3, 43, 0
5, 34752, Note_on_c, 3, 55, 86
5, 34752, Note_on_c, 3, 43, 86
5, 34940, Note_off_c, 3, 55, 0
5, 34940, Note_off_c, 3, 43, 0
5, 34944, Note_on_c, 3, 55, 86
5, 34944, Note_on_c, 3, 43, 86
5, 35132, Note_off_c, 3, 55, 0
5, 35132, Note_off_c, 3, 43, 0
5, 35136, Note_on_c, 3, 55, 86
5, 35136, Note_on_c, 3, 43, 86
5, 35324, Note_off_c, 3, 55, 0
5, 35324, Note_off_c, 3, 43, 0
5, 35328, Note_on_c, 3, 57, 86
5, 35328, Note_on_c, 3, 45, 86
5, 35516, Note_off_c, 3, 57, 0
5, 35516, Note_off_c, 3, 45, 0
5, 35520, Note_on_c, 3, 57, 86
5, 35520, Note_on_c, 3, 45, 86
5, 35708, Note_off_c, 3, 57, 0
5, 35708, Note_off_c, 3, 45, 0
5, 35712, Note_on_c, 3, 57, 86
5, 35712, Note_on_c, 3, 45, 86
5, 35900, Note_off_c, 3, 57, 0
5, 35900, Note_off_c, 3, 45, 0
5, 35904, Note_on_c, 3, 57, 86
5, 35904, Note_on_c, 3, 45, 86
5, 36092, Note_off_c, 3, 57, 0
5, 36092, Note_off_c, 3, 45, 0
5, 36096, Note_on_c, 3, 45, 86
5, 36284, Note_off_c, 3, 45, 0
5, 36288, Note_on_c, 3, 45, 86
5, 36476, Note_off_c, 3, 45, 0
5, 36480, Note_on_c, 3, 45, 86
5, 36668, Note_off_c, 3, 45, 0
5, 36672, Note_on_c, 3, 45, 86
5, 36860, Note_off_c, 3, 45, 0
5, 36864, Note_on_c, 3, 57, 59
5, 36864, Note_on_c, 3, 54, 59
5, 36864, Note_on_c, 3, 50, 59
5, 37052, Note_off_c, 3, 57, 0
5, 37052, Note_off_c, 3, 54, 0
5, 37052, Note_off_c, 3, 50, 0
5, 37056, Note_on_c, 3, 57, 59
5, 37056, Note_on_c, 3, 54, 59
5, 37244, Note_off_c, 3, 57, 0
5, 37244, Note_off_c, 3, 54, 0
5, 37248, Note_on_c, 3, 57, 59
5, 37248, Note_on_c, 3, 54, 59
5, 37436, Note_off_c, 3, 57, 0
5, 37436, Note_off_c, 3, 54, 0
5, 37440, Note_on_c, 3, 57, 59
5, 37440, Note_on_c, 3, 54, 59
5, 37628, Note_off_c, 3, 57, 0
5, 37628, Note_off_c, 3, 54, 0
5, 37632, Note_on_c, 3, 57, 59
5, 37632, Note_on_c, 3, 54, 59
5, 37820, Note_off_c, 3, 57, 0
5, 37820, Note_off_c, 3, 54, 0
5, 37824, Note_on_c, 3, 62, 59
5, 37824, Note_on_c, 3, 54, 59
5, 38012, Note_off_c, 3, 62, 0
5, 38012, Note_off_c, 3, 54, 0
5, 38016, Note_on_c, 3, 62, 59
5, 38016, Note_on_c, 3, 54, 59
5, 38108, Note_off_c, 3, 62, 0
5, 38108, Note_off_c, 3, 54, 0
5, 38208, Note_on_c, 3, 62, 59
5, 38208, Note_on_c, 3, 54, 59
5, 38300, Note_off_c, 3, 62, 0
5, 38300, Note_off_c, 3, 54, 0
5, 38400, Note_on_c, 3, 62, 59
5, 38400, Note_on_c, 3, 55, 59
5, 38588, Note_off_c, 3, 62, 0
5, 38588, Note_off_c, 3, 55, 0
5, 38592, Note_on_c, 3, 62, 59
5, 38592, Note_on_c, 3, 55, 59
5, 38780, Note_off_c, 3, 62, 0
5, 38780, Note_off_c, 3, 55, 0
5, 38784, Note_on_c, 3, 62, 59
5, 38784, Note_on_c, 3, 55, 59
5, 38972, Note_off_c, 3, 62, 0
5, 38972, Note_off_c, 3, 55, 0
5, 38976, Note_on_c, 3, 62, 59
5, 38976, Note_on_c, 3, 55, 59
5, 39164, Note_off_c, 3, 62, 0
5, 39164, Note_off_c, 3, 55, 0
5, 39168, Note_on_c, 3, 62, 59
5, 39168, Note_on_c, 3, 55, 59
5, 39356, Note_off_c, 3, 62, 0
5, 39356, Note_off_c, 3, 55, 0
5, 39360, Note_on_c, 3, 62, 59
5, 39360, Note_on_c, 3, 55, 59
5, 39548, Note_off_c, 3, 62, 0
5, 39548, Note_off_c, 3, 55, 0
5, 39552, Note_on_c, 3, 62, 59
5, 39552, Note_on_c, 3, 55, 59
5, 39740, Note_off_c, 3, 62, 0
5, 39740, Note_off_c, 3, 55, 0
5, 39744, Note_on_c, 3, 62, 59
5, 39744, Note_on_c, 3, 55, 59
5, 39932, Note_off_c, 3, 62, 0
5, 39932, Note_off_c, 3, 55, 0
5, 39936, Note_on_c, 3, 55, 86
5, 39936, Note_on_c, 3, 50, 86
5, 39936, Note_on_c, 3, 43, 86
5, 40316, Note_off_c, 3, 55, 0
5, 40316, Note_off_c, 3, 50, 0
5, 40316, Note_off_c, 3, 43, 0
5, 41472, Note_on_c, 3, 56, 86
5, 41472, Note_on_c, 3, 44, 86
5, 41660, Note_off_c, 3, 56, 0
5, 41660, Note_off_c, 3, 44, 0
5, 41664, Note_on_c, 3, 56, 86
5, 41664, Note_on_c, 3, 44, 86
5, 41852, Note_off_c, 3, 56, 0
5, 41852, Note_off_c, 3, 44, 0
5, 41856, Note_on_c, 3, 56, 86
5, 41856, Note_on_c, 3, 44, 86
5, 42044, Note_off_c, 3, 56, 0
5, 42044, Note_off_c, 3, 44, 0
5, 42048, Note_on_c, 3, 56, 86
5, 42064, Note_on_c, 3, 44, 86
5, 42236, Note_off_c, 3, 56, 0
5, 42240, Note_on_c, 3, 56, 86
5, 42240, Note_on_c, 3, 44, 86
5, 42252, Note_off_c, 3, 44, 0
5, 42428, Note_off_c, 3, 56, 0
5, 42428, Note_off_c, 3, 44, 0
5, 42432, Note_on_c, 3, 56, 86
5, 42432, Note_on_c, 3, 44, 86
5, 42620, Note_off_c, 3, 56, 0
5, 42620, Note_off_c, 3, 44, 0
5, 42624, Note_on_c, 3, 56, 86
5, 42624, Note_on_c, 3, 44, 86
5, 42812, Note_off_c, 3, 56, 0
5, 42812, Note_off_c, 3, 44, 0
5, 42816, Note_on_c, 3, 56, 86
5, 42816, Note_on_c, 3, 44, 86
5, 43004, Note_off_c, 3, 56, 0
5, 43004, Note_off_c, 3, 44, 0
5, 43008, Note_on_c, 3, 57, 86
5, 43008, Note_on_c, 3, 45, 86
5, 43388, Note_off_c, 3, 57, 0
5, 43388, Note_off_c, 3, 45, 0
5, 44736, Note_on_c, 3, 57, 86
5, 44924, Note_off_c, 3, 57, 0
5, 44928, Note_on_c, 3, 57, 86
5, 45116, Note_off_c, 3, 57, 0
5, 45120, Note_on_c, 3, 57, 86
5, 45308, Note_off_c, 3, 57, 0
5, 45312, Note_on_c, 3, 57, 86
5, 45312, Note_on_c, 3, 45, 86
5, 45500, Note_off_c, 3, 57, 0
5, 45500, Note_off_c, 3, 45, 0
5, 45504, Note_on_c, 3, 57, 86
5, 45504, Note_on_c, 3, 45, 86
5, 45692, Note_off_c, 3, 57, 0
5, 45692, Note_off_c, 3, 45, 0
5, 45696, Note_on_c, 3, 57, 86
5, 45696, Note_on_c, 3, 45, 86
5, 45884, Note_off_c, 3, 57, 0
5, 45884, Note_off_c, 3, 45, 0
5, 45888, Note_on_c, 3, 57, 86
5, 45888, Note_on_c, 3, 45, 86
5, 46076, Note_off_c, 3, 57, 0
5, 46076, Note_off_c, 3, 45, 0
5, 46080, Note_on_c, 3, 50, 86
5, 46080, Note_on_c, 3, 38, 86
5, 46460, Note_off_c, 3, 50, 0
5, 46460, Note_off_c, 3, 38, 0
5, 46464, Note_on_c, 3, 45, 86
5, 46480, Note_on_c, 3, 57, 86
5, 47036, Note_off_c, 3, 45, 0
5, 47040, Note_on_c, 3, 62, 87
5, 47052, Note_off_c, 3, 57, 0
5, 47132, Note_off_c, 3, 62, 0
5, 47136, Note_on_c, 3, 57, 84
5, 47228, Note_off_c, 3, 57, 0
5, 47232, Note_on_c, 3, 54, 86
5, 47804, Note_off_c, 3, 54, 0
5, 47808, Note_on_c, 3, 57, 87
5, 47900, Note_off_c, 3, 57, 0
5, 47904, Note_on_c, 3, 54, 84
5, 47996, Note_off_c, 3, 54, 0
5, 48048, Note_on_c, 3, 50, 86
5, 48576, Note_on_c, 3, 54, 86
5, 48620, Note_off_c, 3, 50, 0
5, 48764, Note_off_c, 3, 54, 0
5, 48768, Note_on_c, 3, 50, 86
5, 48956, Note_off_c, 3, 50, 0
5, 48960, Note_on_c, 3, 54, 86
5, 49148, Note_off_c, 3, 54, 0
5, 49152, Note_on_c, 3, 50, 86
5, 49532, Note_off_c, 3, 50, 0
5, 49536, Note_on_c, 3, 62, 86
5, 49536, Note_on_c, 3, 50, 86
5, 49916, Note_off_c, 3, 62, 0
5, 49916, Note_off_c, 3, 50, 0
5, 49920, Note_on_c, 3, 62, 86
5, 49920, Note_on_c, 3, 50, 86
5, 50300, Note_off_c, 3, 62, 0
5, 50300, Note_off_c, 3, 50, 0
5, 50688, Note_on_c, 3, 50, 75
5, 51260, Note_off_c, 3, 50, 0
5, 51264, Note_on_c, 3, 54, 75
5, 51452, Note_off_c, 3, 54, 0
5, 51456, Note_on_c, 3, 55, 75
5, 51548, Note_off_c, 3, 55, 0
5, 51648, Note_on_c, 3, 54, 75
5, 51740, Note_off_c, 3, 54, 0
5, 51840, Note_on_c, 3, 55, 75
5, 51932, Note_off_c, 3, 55, 0
5, 52032, Note_on_c, 3, 52, 75
5, 52124, Note_off_c, 3, 52, 0
5, 52224, Note_on_c, 3, 54, 75
5, 52796, Note_off_c, 3, 54, 0
5, 52800, Note_on_c, 3, 62, 75
5, 52988, Note_off_c, 3, 62, 0
5, 52992, Note_on_c, 3, 64, 75
5, 53084, Note_off_c, 3, 64, 0
5, 53184, Note_on_c, 3, 62, 75
5, 53276, Note_off_c, 3, 62, 0
5, 53376, Note_on_c, 3, 64, 75
5, 53468, Note_off_c, 3, 64, 0
5, 53568, Note_on_c, 3, 61, 75
5, 53660, Note_off_c, 3, 61, 0
5, 53760, Note_on_c, 3, 62, 75
5, 54332, Note_off_c, 3, 62, 0
5, 54336, Note_on_c, 3, 54, 75
5, 54524, Note_off_c, 3, 54, 0
5, 54528, Note_on_c, 3, 55, 75
5, 54620, Note_off_c, 3, 55, 0
5, 54720, Note_on_c, 3, 54, 75
5, 54812, Note_off_c, 3, 54, 0
5, 54912, Note_on_c, 3, 55, 75
5, 55004, Note_off_c, 3, 55, 0
5, 55104, Note_on_c, 3, 52, 75
5, 55196, Note_off_c, 3, 52, 0
5, 55296, Note_on_c, 3, 57, 75
5, 55296, Note_on_c, 3, 50, 75
5, 55676, Note_off_c, 3, 57, 0
5, 55676, Note_off_c, 3, 50, 0
5, 56064, Note_on_c, 3, 50, 75
5, 56444, Note_off_c, 3, 50, 0
5, 56832, Note_on_c, 3, 38, 75
5, 57212, Note_off_c, 3, 38, 0
5, 57600, Note_on_c, 3, 50, 75
5, 57980, Note_off_c, 3, 50, 0
5, 58368, Note_on_c, 3, 38, 75
5, 58748, Note_off_c, 3, 38, 0
5, 59136, Note_on_c, 3, 50, 75
5, 59516, Note_off_c, 3, 50, 0
5, 59904, Note_on_c, 3, 52, 75
5, 59904, Note_on_c, 3, 40, 75
5, 60284, Note_off_c, 3, 52, 0
5, 60284, Note_off_c, 3, 40, 0
5, 61056, Note_on_c, 3, 49, 75
5, 61056, Note_on_c, 3, 37, 75
5, 61436, Note_off_c, 3, 49, 0
5, 61436, Note_off_c, 3, 37, 0
5, 61440, Note_on_c, 3, 50, 75
5, 61440, Note_on_c, 3, 38, 75
5, 61820, Note_off_c, 3, 50, 0
5, 61820, Note_off_c, 3, 38, 0
5, 62592, Note_on_c, 3, 54, 75
5, 62592, Note_on_c, 3, 42, 75
5, 62972, Note_off_c, 3, 54, 0
5, 62972, Note_off_c, 3, 42, 0
5, 62976, Note_on_c, 3, 55, 75
5, 62976, Note_on_c, 3, 43, 75
5, 63356, Note_off_c, 3, 55, 0
5, 63740, Note_off_c, 3, 43, 0
5, 63744, Note_on_c, 3, 45, 75
5, 64124, Note_off_c, 3, 45, 0
5, 64128, Note_on_c, 3, 57, 75
5, 64128, Note_on_c, 3, 45, 75
5, 64508, Note_off_c, 3, 57, 0
5, 64508, Note_off_c, 3, 45, 0
5, 64512, Note_on_c, 3, 50, 75
5, 64604, Note_off_c, 3, 50, 0
5, 64608, Note_on_c, 3, 49, 75
5, 64700, Note_off_c, 3, 49, 0
5, 64704, Note_on_c, 3, 47, 75
5, 64796, Note_off_c, 3, 47, 0
5, 64800, Note_on_c, 3, 45, 75
5, 64892, Note_off_c, 3, 45, 0
5, 64896, Note_on_c, 3, 50, 75
5, 64988, Note_off_c, 3, 50, 0
5, 64992, Note_on_c, 3, 49, 75
5, 65084, Note_off_c, 3, 49, 0
5, 65088, Note_on_c, 3, 47, 75
5, 65180, Note_off_c, 3, 47, 0
5, 65184, Note_on_c, 3, 45, 75
5, 65276, Note_off_c, 3, 45, 0
5, 65280, Note_on_c, 3, 50, 75
5, 65468, Note_off_c, 3, 50, 0
5, 65472, Note_on_c, 3, 45, 75
5, 65660, Note_off_c, 3, 45, 0
5, 65664, Note_on_c, 3, 42, 75
5, 65852, Note_off_c, 3, 42, 0
5, 65856, Note_on_c, 3, 38, 75
5, 66044, Note_off_c, 3, 38, 0
5, 66048, Note_on_c, 3, 52, 60
5, 66048, Note_on_c, 3, 40, 60
5, 66428, Note_off_c, 3, 52, 0
5, 66428, Note_off_c, 3, 40, 0
5, 66432, Note_on_c, 3, 55, 60
5, 66432, Note_on_c, 3, 43, 60
5, 66812, Note_off_c, 3, 55, 0
5, 66812, Note_off_c, 3, 43, 0
5, 66816, Note_on_c, 3, 57, 60
5, 66816, Note_on_c, 3, 45, 60
5, 67196, Note_off_c, 3, 57, 0
5, 67196, Note_off_c, 3, 45, 0
5, 67200, Note_on_c, 3, 49, 60
5, 67200, Note_on_c, 3, 37, 60
5, 67580, Note_off_c, 3, 49, 0
5, 67580, Note_off_c, 3, 37, 0
5, 67584, Note_on_c, 3, 49, 60
5, 67584, Note_on_c, 3, 38, 60
5, 67964, Note_off_c, 3, 49, 0
5, 67964, Note_off_c, 3, 38, 0
5, 67968, Note_on_c, 3, 52, 60
5, 67968, Note_on_c, 3, 40, 60
5, 68348, Note_off_c, 3, 52, 0
5, 68348, Note_off_c, 3, 40, 0
5, 68352, Note_on_c, 3, 54, 60
5, 68352, Note_on_c, 3, 42, 60
5, 68732, Note_off_c, 3, 54, 0
5, 68732, Note_off_c, 3, 42, 0
5, 69120, Note_on_c, 3, 55, 60
5, 69120, Note_on_c, 3, 43, 60
5, 69884, Note_off_c, 3, 55, 0
5, 69884, Note_off_c, 3, 43, 0
5, 69888, Note_on_c, 3, 57, 60
5, 69888, Note_on_c, 3, 45, 60
5, 70268, Note_off_c, 3, 57, 0
5, 70268, Note_off_c, 3, 45, 0
5, 70272, Note_on_c, 3, 45, 60
5, 70272, Note_on_c, 3, 33, 60
5, 70652, Note_off_c, 3, 45, 0
5, 70652, Note_off_c, 3, 33, 0
5, 70656, Note_on_c, 3, 50, 86
5, 70656, Note_on_c, 3, 38, 86
5, 71228, Note_off_c, 3, 50, 0
5, 71228, Note_off_c, 3, 38, 0
5, 71232, Note_on_c, 3, 57, 86
5, 71232, Note_on_c, 3, 54, 86
5, 71420, Note_off_c, 3, 57, 0
5, 71420, Note_off_c, 3, 54, 0
5, 71424, Note_on_c, 3, 57, 86
5, 71424, Note_on_c, 3, 55, 86
5, 71516, Note_off_c, 3, 57, 0
5, 71516, Note_off_c, 3, 55, 0
5, 71616, Note_on_c, 3, 57, 86
5, 71616, Note_on_c, 3, 54, 86
5, 71708, Note_off_c, 3, 57, 0
5, 71708, Note_off_c, 3, 54, 0
5, 71808, Note_on_c, 3, 57, 86
5, 71808, Note_on_c, 3, 55, 86
5, 71900, Note_off_c, 3, 57, 0
5, 71900, Note_off_c, 3, 55, 0
5, 72000, Note_on_c, 3, 57, 86
5, 72000, Note_on_c, 3, 52, 86
5, 72092, Note_off_c, 3, 57, 0
5, 72092, Note_off_c, 3, 52, 0
5, 72192, Note_on_c, 3, 57, 86
5, 72192, Note_on_c, 3, 54, 86
5, 72764, Note_off_c, 3, 57, 0
5, 72764, Note_off_c, 3, 54, 0
5, 72768, Note_on_c, 3, 62, 86
5, 72956, Note_off_c, 3, 62, 0
5, 72960, Note_on_c, 3, 64, 86
5, 73052, Note_off_c, 3, 64, 0
5, 73152, Note_on_c, 3, 62, 86
5, 73244, Note_off_c, 3, 62, 0
5, 73344, Note_on_c, 3, 64, 86
5, 73436, Note_off_c, 3, 64, 0
5, 73536, Note_on_c, 3, 61, 86
5, 73628, Note_off_c, 3, 61, 0
5, 73728, Note_on_c, 3, 62, 86
5, 73728, Note_on_c, 3, 50, 86
5, 74108, Note_off_c, 3, 62, 0
5, 74108, Note_off_c, 3, 50, 0
5, 78336, Note_on_c, 3, 57, 59
5, 78336, Note_on_c, 3, 45, 59
5, 79100, Note_off_c, 3, 57, 0
5, 79488, Note_on_c, 3, 61, 59
5, 79488, Note_on_c, 3, 52, 59
5, 79580, Note_off_c, 3, 61, 0
5, 79580, Note_off_c, 3, 52, 0
5, 79680, Note_on_c, 3, 59, 59
5, 79680, Note_on_c, 3, 50, 59
5, 79772, Note_off_c, 3, 59, 0
5, 79772, Note_off_c, 3, 50, 0
5, 79868, Note_off_c, 3, 45, 0
5, 79872, Note_on_c, 3, 57, 59
5, 79872, Note_on_c, 3, 49, 59
5, 79872, Note_on_c, 3, 45, 59
5, 80252, Note_off_c, 3, 57, 0
5, 80252, Note_off_c, 3, 49, 0
5, 80252, Note_off_c, 3, 45, 0
5, 84480, Note_on_c, 3, 62, 59
5, 84480, Note_on_c, 3, 50, 59
5, 85244, Note_off_c, 3, 50, 0
5, 85632, Note_on_c, 3, 59, 59
5, 85632, Note_on_c, 3, 56, 59
5, 85820, Note_off_c, 3, 59, 0
5, 85820, Note_off_c, 3, 56, 0
5, 85824, Note_on_c, 3, 57, 59
5, 85824, Note_on_c, 3, 54, 59
5, 86012, Note_off_c, 3, 62, 0
5, 86012, Note_off_c, 3, 57, 0
5, 86012, Note_off_c, 3, 54, 0
5, 86016, Note_on_c, 3, 56, 59
5, 86016, Note_on_c, 3, 52, 59
5, 86016, Note_on_c, 3, 62, 59
5, 86396, Note_off_c, 3, 56, 0
5, 86396, Note_off_c, 3, 52, 0
5, 86396, Note_off_c, 3, 62, 0
5, 87552, Note_on_c, 3, 52, 59
5, 87552, Note_on_c, 3, 40, 59
5, 87932, Note_off_c, 3, 52, 0
5, 87932, Note_off_c, 3, 40, 0
5, 88320, Note_on_c, 3, 52, 59
5, 88320, Note_on_c, 3, 40, 59
5, 88700, Note_off_c, 3, 52, 0
5, 88700, Note_off_c, 3, 40, 0
5, 90624, Note_on_c, 3, 57, 59
5, 90624, Note_on_c, 3, 45, 59
5, 94076, Note_off_c, 3, 45, 0
5, 94076, Note_off_c, 3, 57, 0
5, 94848, Note_on_c, 3, 59, 59
5, 94848, Note_on_c, 3, 51, 59
5, 95228, Note_off_c, 3, 59, 0
5, 95228, Note_off_c, 3, 51, 0
5, 95232, Note_on_c, 3, 52, 59
5, 95424, Note_on_c, 3, 59, 59
5, 95612, Note_off_c, 3, 52, 0
5, 95612, Note_off_c, 3, 59, 0
5, 95616, Note_on_c, 3, 61, 59
5, 95616, Note_on_c, 3, 49, 59
5, 95996, Note_off_c, 3, 61, 0
5, 95996, Note_off_c, 3, 49, 0
5, 96000, Note_on_c, 3, 62, 59
5, 96000, Note_on_c, 3, 50, 59
5, 96380, Note_off_c, 3, 62, 0
5, 96380, Note_off_c, 3, 50, 0
5, 96384, Note_on_c, 3, 59, 59
5, 96384, Note_on_c, 3, 51, 59
5, 96764, Note_off_c, 3, 59, 0
5, 96764, Note_off_c, 3, 51, 0
5, 96768, Note_on_c, 3, 52, 86
5, 96768, Note_on_c, 3, 40, 86
5, 96956, Note_off_c, 3, 52, 0
5, 96956, Note_off_c, 3, 40, 0
5, 96960, Note_on_c, 3, 52, 86
5, 97148, Note_off_c, 3, 52, 0
5, 97152, Note_on_c, 3, 56, 86
5, 97340, Note_off_c, 3, 56, 0
5, 97344, Note_on_c, 3, 52, 86
5, 97532, Note_off_c, 3, 52, 0
5, 97536, Note_on_c, 3, 57, 86
5, 97724, Note_off_c, 3, 57, 0
5, 97728, Note_on_c, 3, 52, 86
5, 97916, Note_off_c, 3, 52, 0
5, 97920, Note_on_c, 3, 61, 86
5, 98108, Note_off_c, 3, 61, 0
5, 98112, Note_on_c, 3, 59, 86
5, 98204, Note_off_c, 3, 59, 0
5, 98208, Note_on_c, 3, 57, 86
5, 98300, Note_off_c, 3, 57, 0
5, 98304, Note_on_c, 3, 64, 86
5, 98492, Note_off_c, 3, 64, 0
5, 98496, Note_on_c, 3, 52, 86
5, 98684, Note_off_c, 3, 52, 0
5, 98688, Note_on_c, 3, 56, 86
5, 98876, Note_off_c, 3, 56, 0
5, 98880, Note_on_c, 3, 52, 86
5, 99068, Note_off_c, 3, 52, 0
5, 99072, Note_on_c, 3, 57, 86
5, 99260, Note_off_c, 3, 57, 0
5, 99264, Note_on_c, 3, 52, 86
5, 99452, Note_off_c, 3, 52, 0
5, 99456, Note_on_c, 3, 61, 86
5, 99644, Note_off_c, 3, 61, 0
5, 99648, Note_on_c, 3, 59, 86
5, 99740, Note_off_c, 3, 59, 0
5, 99744, Note_on_c, 3, 57, 86
5, 99836, Note_off_c, 3, 57, 0
5, 99840, Note_on_c, 3, 64, 86
5, 100220, Note_off_c, 3, 64, 0
5, 100224, Note_on_c, 3, 52, 86
5, 100240, Note_on_c, 3, 40, 86
5, 100508, Note_off_c, 3, 52, 0
5, 100512, Note_on_c, 3, 52, 86
5, 100512, Note_on_c, 3, 40, 86
5, 100524, Note_off_c, 3, 40, 0
5, 100584, Note_off_c, 3, 52, 0
5, 100584, Note_off_c, 3, 40, 0
5, 100608, Note_on_c, 3, 52, 86
5, 100608, Note_on_c, 3, 40, 86
5, 100988, Note_off_c, 3, 52, 0
5, 100988, Note_off_c, 3, 40, 0
5, 101376, Note_on_c, 3, 52, 59
5, 101468, Note_off_c, 3, 52, 0
5, 101472, Note_on_c, 3, 64, 59
5, 101564, Note_off_c, 3, 64, 0
5, 101568, Note_on_c, 3, 52, 59
5, 101660, Note_off_c, 3, 52, 0
5, 101664, Note_on_c, 3, 64, 59
5, 101756, Note_off_c, 3, 64, 0
5, 101760, Note_on_c, 3, 52, 59
5, 101852, Note_off_c, 3, 52, 0
5, 101856, Note_on_c, 3, 64, 59
5, 101948, Note_off_c, 3, 64, 0
5, 101952, Note_on_c, 3, 52, 59
5, 102044, Note_off_c, 3, 52, 0
5, 102048, Note_on_c, 3, 64, 59
5, 102140, Note_off_c, 3, 64, 0
5, 102144, Note_on_c, 3, 52, 59
5, 102236, Note_off_c, 3, 52, 0
5, 102240, Note_on_c, 3, 64, 59
5, 102332, Note_off_c, 3, 64, 0
5, 102336, Note_on_c, 3, 52, 59
5, 102428, Note_off_c, 3, 52, 0
5, 102432, Note_on_c, 3, 64, 59
5, 102524, Note_off_c, 3, 64, 0
5, 102528, Note_on_c, 3, 52, 59
5, 102620, Note_off_c, 3, 52, 0
5, 102624, Note_on_c, 3, 64, 59
5, 102716, Note_off_c, 3, 64, 0
5, 102720, Note_on_c, 3, 52, 59
5, 102812, Note_off_c, 3, 52, 0
5, 102816, Note_on_c, 3, 64, 59
5, 102908, Note_off_c, 3, 64, 0
5, 102912, Note_on_c, 3, 61, 59
5, 102912, Note_on_c, 3, 64, 59
5, 103676, Note_off_c, 3, 61, 0
5, 103680, Note_on_c, 3, 57, 59
5, 104444, Note_off_c, 3, 57, 0
5, 104448, Note_on_c, 3, 59, 59
5, 105212, Note_off_c, 3, 59, 0
5, 105216, Note_on_c, 3, 62, 59
5, 105980, Note_off_c, 3, 64, 0
5, 105980, Note_off_c, 3, 62, 0
5, 105984, Note_on_c, 3, 61, 59
5, 105984, Note_on_c, 3, 64, 59
5, 106748, Note_off_c, 3, 61, 0
5, 106752, Note_on_c, 3, 57, 59
5, 107516, Note_off_c, 3, 57, 0
5, 107520, Note_on_c, 3, 59, 59
5, 108284, Note_off_c, 3, 59, 0
5, 108288, Note_on_c, 3, 62, 59
5, 109052, Note_off_c, 3, 64, 0
5, 109052, Note_off_c, 3, 62, 0
5, 109056, Note_on_c, 3, 61, 59
5, 109056, Note_on_c, 3, 64, 59
5, 109436, Note_off_c, 3, 61, 0
5, 109436, Note_off_c, 3, 64, 0
5, 110016, Note_on_c, 3, 49, 59
5, 110204, Note_off_c, 3, 49, 0
5, 110208, Note_on_c, 3, 50, 59
5, 110396, Note_off_c, 3, 50, 0
5, 110400, Note_on_c, 3, 51, 59
5, 110588, Note_off_c, 3, 51, 0
5, 110592, Note_on_c, 3, 52, 59
5, 110972, Note_off_c, 3, 52, 0
5, 117120, Note_on_c, 3, 49, 59
5, 117500, Note_off_c, 3, 49, 0
5, 117504, Note_on_c, 3, 49, 59
5, 117884, Note_off_c, 3, 49, 0
5, 118656, Note_on_c, 3, 50, 59
5, 119036, Note_off_c, 3, 50, 0
5, 119040, Note_on_c, 3, 50, 59
5, 119420, Note_off_c, 3, 50, 0
5, 120192, Note_on_c, 3, 52, 59
5, 120572, Note_off_c, 3, 52, 0
5, 120576, Note_on_c, 3, 52, 59
5, 120956, Note_off_c, 3, 52, 0
5, 120960, Note_on_c, 3, 52, 59
5, 121340, Note_off_c, 3, 52, 0
5, 121344, Note_on_c, 3, 57, 59
5, 121724, Note_off_c, 3, 57, 0
5, 123264, Note_on_c, 3, 61, 59
5, 123264, Note_on_c, 3, 49, 59
5, 123644, Note_off_c, 3, 61, 0
5, 123644, Note_off_c, 3, 49, 0
5, 123648, Note_on_c, 3, 61, 59
5, 123648, Note_on_c, 3, 49, 59
5, 124028, Note_off_c, 3, 61, 0
5, 124028, Note_off_c, 3, 49, 0
5, 124800, Note_on_c, 3, 62, 59
5, 124800, Note_on_c, 3, 50, 59
5, 125180, Note_off_c, 3, 62, 0
5, 125180, Note_off_c, 3, 50, 0
5, 125184, Note_on_c, 3, 50, 59
5, 125564, Note_off_c, 3, 50, 0
5, 125952, Note_on_c, 3, 52, 59
5, 126140, Note_off_c, 3, 52, 0
5, 126144, Note_on_c, 3, 52, 59
5, 126332, Note_off_c, 3, 52, 0
5, 126336, Note_on_c, 3, 52, 59
5, 126524, Note_off_c, 3, 52, 0
5, 126528, Note_on_c, 3, 52, 59
5, 126716, Note_off_c, 3, 52, 0
5, 126720, Note_on_c, 3, 52, 59
5, 126908, Note_off_c, 3, 52, 0
5, 126912, Note_on_c, 3, 52, 59
5, 127100, Note_off_c, 3, 52, 0
5, 127104, Note_on_c, 3, 52, 59
5, 127292, Note_off_c, 3, 52, 0
5, 127296, Note_on_c, 3, 52, 59
5, 127484, Note_off_c, 3, 52, 0
5, 127488, Note_on_c, 3, 57, 95
5, 127488, Note_on_c, 3, 45, 95
5, 127868, Note_off_c, 3, 57, 0
5, 127868, Note_off_c, 3, 45, 0
5, 128064, Note_on_c, 3, 64, 95
5, 128064, Note_on_c, 3, 57, 95
5, 128252, Note_off_c, 3, 64, 0
5, 128252, Note_off_c, 3, 57, 0
5, 128256, Note_on_c, 3, 64, 95
5, 128256, Note_on_c, 3, 56, 95
5, 128636, Note_off_c, 3, 64, 0
5, 128636, Note_off_c, 3, 56, 0
5, 128832, Note_on_c, 3, 64, 95
5, 128832, Note_on_c, 3, 56, 95
5, 129020, Note_off_c, 3, 64, 0
5, 129020, Note_off_c, 3, 56, 0
5, 129024, Note_on_c, 3, 57, 95
5, 129024, Note_on_c, 3, 64, 95
5, 129404, Note_off_c, 3, 57, 0
5, 129404, Note_off_c, 3, 64, 0
5, 129600, Note_on_c, 3, 57, 60
5, 129788, Note_off_c, 3, 57, 0
5, 129792, Note_on_c, 3, 59, 60
5, 129792, Note_on_c, 3, 59, 60
5, 130172, Note_off_c, 3, 59, 0
5, 130176, Note_on_c, 3, 52, 60
5, 130556, Note_off_c, 3, 59, 0
5, 130556, Note_off_c, 3, 52, 0
5, 130560, Note_on_c, 3, 57, 86
5, 130560, Note_on_c, 3, 45, 86
5, 130940, Note_off_c, 3, 57, 0
5, 130940, Note_off_c, 3, 45, 0
5, 131136, Note_on_c, 3, 64, 86
5, 131136, Note_on_c, 3, 57, 86
5, 131324, Note_off_c, 3, 64, 0
5, 131324, Note_off_c, 3, 57, 0
5, 131328, Note_on_c, 3, 56, 86
5, 131328, Note_on_c, 3, 64, 86
5, 131708, Note_off_c, 3, 56, 0
5, 131708, Note_off_c, 3, 64, 0
5, 131904, Note_on_c, 3, 64, 86
5, 131904, Note_on_c, 3, 56, 86
5, 132092, Note_off_c, 3, 64, 0
5, 132092, Note_off_c, 3, 56, 0
5, 132096, Note_on_c, 3, 64, 86
5, 132096, Note_on_c, 3, 57, 86
5, 132476, Note_off_c, 3, 64, 0
5, 132476, Note_off_c, 3, 57, 0
5, 132672, Note_on_c, 3, 57, 60
5, 132860, Note_off_c, 3, 57, 0
5, 132864, Note_on_c, 3, 59, 60
5, 132864, Note_on_c, 3, 59, 60
5, 133244, Note_off_c, 3, 59, 0
5, 133248, Note_on_c, 3, 52, 60
5, 133628, Note_off_c, 3, 59, 0
5, 133628, Note_off_c, 3, 52, 0
5, 133632, Note_on_c, 3, 57, 60
5, 134012, Note_off_c, 3, 57, 0
5, 135168, Note_on_c, 3, 49, 60
5, 135548, Note_off_c, 3, 49, 0
5, 136704, Note_on_c, 3, 50, 60
5, 137084, Note_off_c, 3, 50, 0
5, 138240, Note_on_c, 3, 51, 60
5, 138620, Note_off_c, 3, 51, 0
5, 138624, Note_on_c, 3, 51, 60
5, 139004, Note_off_c, 3, 51, 0
5, 139008, Note_on_c, 3, 51, 60
5, 139388, Note_off_c, 3, 51, 0
5, 139392, Note_on_c, 3, 51, 60
5, 139772, Note_off_c, 3, 51, 0
5, 139776, Note_on_c, 3, 52, 60
5, 140156, Note_off_c, 3, 52, 0
5, 140544, Note_on_c, 3, 52, 60
5, 140924, Note_off_c, 3, 52, 0
5, 141312, Note_on_c, 3, 52, 60
5, 141692, Note_off_c, 3, 52, 0
5, 143040, Note_on_c, 3, 52, 60
5, 143228, Note_off_c, 3, 52, 0
5, 143232, Note_on_c, 3, 52, 60
5, 143420, Note_off_c, 3, 52, 0
5, 143424, Note_on_c, 3, 52, 60
5, 143612, Note_off_c, 3, 52, 0
5, 143616, Note_on_c, 3, 52, 60
5, 143804, Note_off_c, 3, 52, 0
5, 143808, Note_on_c, 3, 52, 60
5, 143996, Note_off_c, 3, 52, 0
5, 144000, Note_on_c, 3, 52, 60
5, 144188, Note_off_c, 3, 52, 0
5, 144192, Note_on_c, 3, 52, 60
5, 144380, Note_off_c, 3, 52, 0
5, 144384, Note_on_c, 3, 52, 60
5, 144384, Note_on_c, 3, 40, 60
5, 144572, Note_off_c, 3, 52, 0
5, 144572, Note_off_c, 3, 40, 0
5, 144576, Note_on_c, 3, 52, 60
5, 144576, Note_on_c, 3, 40, 60
5, 144764, Note_off_c, 3, 52, 0
5, 144764, Note_off_c, 3, 40, 0
5, 144768, Note_on_c, 3, 52, 60
5, 144768, Note_on_c, 3, 40, 60
5, 144956, Note_off_c, 3, 52, 0
5, 144956, Note_off_c, 3, 40, 0
5, 144960, Note_on_c, 3, 52, 60
5, 144960, Note_on_c, 3, 40, 60
5, 145148, Note_off_c, 3, 52, 0
5, 145148, Note_off_c, 3, 40, 0
5, 145152, Note_on_c, 3, 52, 60
5, 145152, Note_on_c, 3, 40, 60
5, 145340, Note_off_c, 3, 52, 0
5, 145340, Note_off_c, 3, 40, 0
5, 145344, Note_on_c, 3, 52, 60
5, 145344, Note_on_c, 3, 40, 60
5, 145532, Note_off_c, 3, 52, 0
5, 145532, Note_off_c, 3, 40, 0
5, 145536, Note_on_c, 3, 52, 60
5, 145536, Note_on_c, 3, 40, 60
5, 145724, Note_off_c, 3, 52, 0
5, 145724, Note_off_c, 3, 40, 0
5, 145728, Note_on_c, 3, 52, 60
5, 145728, Note_on_c, 3, 40, 60
5, 145916, Note_off_c, 3, 52, 0
5, 145916, Note_off_c, 3, 40, 0
5, 145920, Note_on_c, 3, 45, 86
5, 146108, Note_off_c, 3, 45, 0
5, 146112, Note_on_c, 3, 45, 86
5, 146300, Note_off_c, 3, 45, 0
5, 146304, Note_on_c, 3, 49, 86
5, 146492, Note_off_c, 3, 49, 0
5, 146496, Note_on_c, 3, 52, 86
5, 146684, Note_off_c, 3, 52, 0
5, 146688, Note_on_c, 3, 57, 86
5, 147068, Note_off_c, 3, 57, 0
5, 147072, Note_on_c, 3, 45, 86
5, 147452, Note_off_c, 3, 45, 0
5, 147648, Note_on_c, 3, 45, 86
5, 147836, Note_off_c, 3, 45, 0
5, 147840, Note_on_c, 3, 50, 86
5, 148028, Note_off_c, 3, 50, 0
5, 148032, Note_on_c, 3, 54, 86
5, 148220, Note_off_c, 3, 54, 0
5, 148224, Note_on_c, 3, 57, 86
5, 148604, Note_off_c, 3, 57, 0
5, 148608, Note_on_c, 3, 45, 86
5, 148988, Note_off_c, 3, 45, 0
5, 149184, Note_on_c, 3, 45, 86
5, 149372, Note_off_c, 3, 45, 0
5, 149376, Note_on_c, 3, 49, 86
5, 149564, Note_off_c, 3, 49, 0
5, 149568, Note_on_c, 3, 52, 86
5, 149756, Note_off_c, 3, 52, 0
5, 149760, Note_on_c, 3, 57, 86
5, 150140, Note_off_c, 3, 57, 0
5, 150144, Note_on_c, 3, 45, 86
5, 150524, Note_off_c, 3, 45, 0
5, 150720, Note_on_c, 3, 52, 86
5, 150908, Note_off_c, 3, 52, 0
5, 150912, Note_on_c, 3, 56, 86
5, 151100, Note_off_c, 3, 56, 0
5, 151104, Note_on_c, 3, 59, 86
5, 151292, Note_off_c, 3, 59, 0
5, 151296, Note_on_c, 3, 64, 86
5, 151676, Note_off_c, 3, 64, 0
5, 151680, Note_on_c, 3, 52, 86
5, 152060, Note_off_c, 3, 52, 0
5, 152064, Note_on_c, 3, 57, 86
5, 152064, Note_on_c, 3, 45, 86
5, 152252, Note_off_c, 3, 57, 0
5, 152252, Note_off_c, 3, 45, 0
5, 152256, Note_on_c, 3, 45, 86
5, 152444, Note_off_c, 3, 45, 0
5, 152448, Note_on_c, 3, 45, 86
5, 152636, Note_off_c, 3, 45, 0
5, 152640, Note_on_c, 3, 45, 86
5, 152828, Note_off_c, 3, 45, 0
5, 152832, Note_on_c, 3, 49, 86
5, 152832, Note_on_c, 3, 37, 86
5, 153020, Note_off_c, 3, 49, 0
5, 153020, Note_off_c, 3, 37, 0
5, 153024, Note_on_c, 3, 49, 86
5, 153024, Note_on_c, 3, 37, 86
5, 153212, Note_off_c, 3, 49, 0
5, 153212, Note_off_c, 3, 37, 0
5, 153216, Note_on_c, 3, 49, 86
5, 153216, Note_on_c, 3, 37, 86
5, 153404, Note_off_c, 3, 49, 0
5, 153404, Note_off_c, 3, 37, 0
5, 153408, Note_on_c, 3, 49, 86
5, 153408, Note_on_c, 3, 37, 86
5, 153596, Note_off_c, 3, 49, 0
5, 153596, Note_off_c, 3, 37, 0
5, 153600, Note_on_c, 3, 50, 86
5, 153600, Note_on_c, 3, 38, 86
5, 153788, Note_off_c, 3, 50, 0
5, 153788, Note_off_c, 3, 38, 0
5, 153792, Note_on_c, 3, 50, 86
5, 153792, Note_on_c, 3, 38, 86
5, 153980, Note_off_c, 3, 50, 0
5, 153980, Note_off_c, 3, 38, 0
5, 153984, Note_on_c, 3, 50, 86
5, 153984, Note_on_c, 3, 38, 86
5, 154172, Note_off_c, 3, 50, 0
5, 154172, Note_off_c, 3, 38, 0
5, 154176, Note_on_c, 3, 50, 86
5, 154176, Note_on_c, 3, 38, 86
5, 154364, Note_off_c, 3, 50, 0
5, 154364, Note_off_c, 3, 38, 0
5, 154368, Note_on_c, 3, 50, 86
5, 154368, Note_on_c, 3, 38, 86
5, 154556, Note_off_c, 3, 50, 0
5, 154556, Note_off_c, 3, 38, 0
5, 154560, Note_on_c, 3, 50, 86
5, 154560, Note_on_c, 3, 38, 86
5, 154748, Note_off_c, 3, 50, 0
5, 154748, Note_off_c, 3, 38, 0
5, 154752, Note_on_c, 3, 50, 86
5, 154752, Note_on_c, 3, 38, 86
5, 154940, Note_off_c, 3, 50, 0
5, 154940, Note_off_c, 3, 38, 0
5, 154944, Note_on_c, 3, 50, 86
5, 154944, Note_on_c, 3, 38, 86
5, 155132, Note_off_c, 3, 50, 0
5, 155132, Note_off_c, 3, 38, 0
5, 155136, Note_on_c, 3, 52, 86
5, 155136, Note_on_c, 3, 40, 86
5, 155324, Note_off_c, 3, 52, 0
5, 155324, Note_off_c, 3, 40, 0
5, 155328, Note_on_c, 3, 52, 86
5, 155328, Note_on_c, 3, 40, 86
5, 155516, Note_off_c, 3, 52, 0
5, 155516, Note_off_c, 3, 40, 0
5, 155520, Note_on_c, 3, 52, 86
5, 155520, Note_on_c, 3, 40, 86
5, 155708, Note_off_c, 3, 52, 0
5, 155708, Note_off_c, 3, 40, 0
5, 155712, Note_on_c, 3, 52, 86
5, 155712, Note_on_c, 3, 40, 86
5, 155900, Note_off_c, 3, 52, 0
5, 155900, Note_off_c, 3, 40, 0
5, 155904, Note_on_c, 3, 52, 86
5, 155904, Note_on_c, 3, 40, 86
5, 156092, Note_off_c, 3, 52, 0
5, 156092, Note_off_c, 3, 40, 0
5, 156096, Note_on_c, 3, 52, 86
5, 156096, Note_on_c, 3, 40, 86
5, 156284, Note_off_c, 3, 52, 0
5, 156284, Note_off_c, 3, 40, 0
5, 156288, Note_on_c, 3, 52, 86
5, 156288, Note_on_c, 3, 40, 86
5, 156476, Note_off_c, 3, 52, 0
5, 156476, Note_off_c, 3, 40, 0
5, 156480, Note_on_c, 3, 52, 86
5, 156480, Note_on_c, 3, 40, 86
5, 156668, Note_off_c, 3, 52, 0
5, 156668, Note_off_c, 3, 40, 0
5, 156672, Note_on_c, 3, 49, 59
5, 156672, Note_on_c, 3, 37, 59
5, 156860, Note_off_c, 3, 49, 0
5, 156860, Note_off_c, 3, 37, 0
5, 156864, Note_on_c, 3, 52, 59
5, 156864, Note_on_c, 3, 49, 59
5, 157052, Note_off_c, 3, 52, 0
5, 157052, Note_off_c, 3, 49, 0
5, 157056, Note_on_c, 3, 52, 59
5, 157056, Note_on_c, 3, 49, 59
5, 157244, Note_off_c, 3, 52, 0
5, 157244, Note_off_c, 3, 49, 0
5, 157248, Note_on_c, 3, 52, 59
5, 157248, Note_on_c, 3, 49, 59
5, 157436, Note_off_c, 3, 52, 0
5, 157436, Note_off_c, 3, 49, 0
5, 157440, Note_on_c, 3, 52, 59
5, 157440, Note_on_c, 3, 49, 59
5, 157628, Note_off_c, 3, 52, 0
5, 157628, Note_off_c, 3, 49, 0
5, 157632, Note_on_c, 3, 57, 59
5, 157632, Note_on_c, 3, 49, 59
5, 157820, Note_off_c, 3, 57, 0
5, 157820, Note_off_c, 3, 49, 0
5, 157824, Note_on_c, 3, 57, 59
5, 157824, Note_on_c, 3, 49, 59
5, 158012, Note_off_c, 3, 57, 0
5, 158012, Note_off_c, 3, 49, 0
5, 158016, Note_on_c, 3, 57, 59
5, 158016, Note_on_c, 3, 49, 59
5, 158204, Note_off_c, 3, 57, 0
5, 158204, Note_off_c, 3, 49, 0
5, 158208, Note_on_c, 3, 57, 59
5, 158208, Note_on_c, 3, 50, 59
5, 158396, Note_off_c, 3, 57, 0
5, 158396, Note_off_c, 3, 50, 0
5, 158400, Note_on_c, 3, 57, 59
5, 158400, Note_on_c, 3, 50, 59
5, 158588, Note_off_c, 3, 57, 0
5, 158588, Note_off_c, 3, 50, 0
5, 158592, Note_on_c, 3, 57, 59
5, 158592, Note_on_c, 3, 50, 59
5, 158780, Note_off_c, 3, 57, 0
5, 158780, Note_off_c, 3, 50, 0
5, 158784, Note_on_c, 3, 57, 59
5, 158784, Note_on_c, 3, 50, 59
5, 158972, Note_off_c, 3, 57, 0
5, 158972, Note_off_c, 3, 50, 0
5, 158976, Note_on_c, 3, 57, 59
5, 158976, Note_on_c, 3, 50, 59
5, 159164, Note_off_c, 3, 57, 0
5, 159164, Note_off_c, 3, 50, 0
5, 159168, Note_on_c, 3, 57, 59
5, 159168, Note_on_c, 3, 50, 59
5, 159356, Note_off_c, 3, 57, 0
5, 159356, Note_off_c, 3, 50, 0
5, 159360, Note_on_c, 3, 57, 59
5, 159360, Note_on_c, 3, 50, 59
5, 159548, Note_off_c, 3, 57, 0
5, 159548, Note_off_c, 3, 50, 0
5, 159552, Note_on_c, 3, 57, 59
5, 159552, Note_on_c, 3, 50, 59
5, 159740, Note_off_c, 3, 57, 0
5, 159740, Note_off_c, 3, 50, 0
5, 159744, Note_on_c, 3, 50, 86
5, 159744, Note_on_c, 3, 38, 86
5, 160124, Note_off_c, 3, 50, 0
5, 160124, Note_off_c, 3, 38, 0
5, 161280, Note_on_c, 3, 51, 86
5, 161280, Note_on_c, 3, 39, 86
5, 161468, Note_off_c, 3, 51, 0
5, 161468, Note_off_c, 3, 39, 0
5, 161472, Note_on_c, 3, 51, 86
5, 161472, Note_on_c, 3, 39, 86
5, 161660, Note_off_c, 3, 51, 0
5, 161660, Note_off_c, 3, 39, 0
5, 161664, Note_on_c, 3, 51, 86
5, 161664, Note_on_c, 3, 39, 86
5, 161852, Note_off_c, 3, 51, 0
5, 161852, Note_off_c, 3, 39, 0
5, 161856, Note_on_c, 3, 51, 86
5, 161856, Note_on_c, 3, 39, 86
5, 162044, Note_off_c, 3, 51, 0
5, 162044, Note_off_c, 3, 39, 0
5, 162048, Note_on_c, 3, 51, 86
5, 162048, Note_on_c, 3, 39, 86
5, 162236, Note_off_c, 3, 51, 0
5, 162236, Note_off_c, 3, 39, 0
5, 162240, Note_on_c, 3, 51, 86
5, 162240, Note_on_c, 3, 39, 86
5, 162428, Note_off_c, 3, 51, 0
5, 162428, Note_off_c, 3, 39, 0
5, 162432, Note_on_c, 3, 51, 86
5, 162432, Note_on_c, 3, 39, 86
5, 162620, Note_off_c, 3, 51, 0
5, 162620, Note_off_c, 3, 39, 0
5, 162624, Note_on_c, 3, 51, 86
5, 162624, Note_on_c, 3, 39, 86
5, 162812, Note_off_c, 3, 51, 0
5, 162812, Note_off_c, 3, 39, 0
5, 162816, Note_on_c, 3, 52, 86
5, 162816, Note_on_c, 3, 40, 86
5, 163196, Note_off_c, 3, 52, 0
5, 163196, Note_off_c, 3, 40, 0
5, 164352, Note_on_c, 3, 52, 86
5, 164352, Note_on_c, 3, 40, 86
5, 164540, Note_off_c, 3, 52, 0
5, 164540, Note_off_c, 3, 40, 0
5, 164544, Note_on_c, 3, 52, 86
5, 164544, Note_on_c, 3, 40, 86
5, 164732, Note_off_c, 3, 52, 0
5, 164732, Note_off_c, 3, 40, 0
5, 164736, Note_on_c, 3, 52, 86
5, 164736, Note_on_c, 3, 40, 86
5, 164924, Note_off_c, 3, 52, 0
5, 164924, Note_off_c, 3, 40, 0
5, 164928, Note_on_c, 3, 52, 86
5, 164928, Note_on_c, 3, 40, 86
5, 165116, Note_off_c, 3, 52, 0
5, 165116, Note_off_c, 3, 40, 0
5, 165120, Note_on_c, 3, 52, 86
5, 165120, Note_on_c, 3, 40, 86
5, 165308, Note_off_c, 3, 52, 0
5, 165308, Note_off_c, 3, 40, 0
5, 165312, Note_on_c, 3, 52, 86
5, 165312, Note_on_c, 3, 40, 86
5, 165500, Note_off_c, 3, 52, 0
5, 165500, Note_off_c, 3, 40, 0
5, 165504, Note_on_c, 3, 52, 86
5, 165504, Note_on_c, 3, 40, 86
5, 165692, Note_off_c, 3, 52, 0
5, 165692, Note_off_c, 3, 40, 0
5, 165696, Note_on_c, 3, 52, 86
5, 165696, Note_on_c, 3, 40, 86
5, 165884, Note_off_c, 3, 52, 0
5, 165884, Note_off_c, 3, 40, 0
5, 165888, Note_on_c, 3, 45, 86
5, 165888, Note_on_c, 3, 33, 86
5, 166268, Note_off_c, 3, 45, 0
5, 166268, Note_off_c, 3, 33, 0
5, 167424, Note_on_c, 3, 57, 86
5, 167612, Note_off_c, 3, 57, 0
5, 167616, Note_on_c, 3, 61, 90
5, 167708, Note_off_c, 3, 61, 0
5, 167712, Note_on_c, 3, 57, 82
5, 167804, Note_off_c, 3, 57, 0
5, 167808, Note_on_c, 3, 52, 86
5, 168380, Note_off_c, 3, 52, 0
5, 168384, Note_on_c, 3, 57, 90
5, 168476, Note_off_c, 3, 57, 0
5, 168480, Note_on_c, 3, 52, 82
5, 168572, Note_off_c, 3, 52, 0
5, 168576, Note_on_c, 3, 49, 86
5, 169148, Note_off_c, 3, 49, 0
5, 169152, Note_on_c, 3, 52, 90
5, 169244, Note_off_c, 3, 52, 0
5, 169248, Note_on_c, 3, 49, 82
5, 169340, Note_off_c, 3, 49, 0
5, 169344, Note_on_c, 3, 45, 86
5, 169916, Note_off_c, 3, 45, 0
5, 169920, Note_on_c, 3, 49, 86
5, 170108, Note_off_c, 3, 49, 0
5, 170112, Note_on_c, 3, 45, 86
5, 170300, Note_off_c, 3, 45, 0
5, 170304, Note_on_c, 3, 49, 86
5, 170492, Note_off_c, 3, 49, 0
5, 170496, Note_on_c, 3, 45, 86
5, 170876, Note_off_c, 3, 45, 0
5, 170880, Note_on_c, 3, 57, 86
5, 170880, Note_on_c, 3, 45, 86
5, 171248, Note_on_c, 3, 45, 86
5, 171260, Note_off_c, 3, 57, 0
5, 171260, Note_off_c, 3, 45, 0
5, 171264, Note_on_c, 3, 33, 86
5, 171628, Note_off_c, 3, 45, 0
5, 171644, Note_off_c, 3, 33, 0
5, 172032, Note_on_c, 3, 57, 95
5, 172032, Note_on_c, 3, 45, 95
5, 173948, Note_off_c, 3, 45, 0
5, 173948, Note_off_c, 3, 57, 0
5, 181248, Note_on_c, 3, 62, 86
5, 181248, Note_on_c, 3, 50, 86
5, 181820, Note_off_c, 3, 62, 0
5, 181820, Note_off_c, 3, 50, 0
5, 181824, Note_on_c, 3, 57, 86
5, 181824, Note_on_c, 3, 54, 86
5, 182012, Note_off_c, 3, 57, 0
5, 182012, Note_off_c, 3, 54, 0
5, 182016, Note_on_c, 3, 57, 86
5, 182016, Note_on_c, 3, 55, 86
5, 182108, Note_off_c, 3, 57, 0
5, 182108, Note_off_c, 3, 55, 0
5, 182208, Note_on_c, 3, 57, 86
5, 182208, Note_on_c, 3, 54, 86
5, 182300, Note_off_c, 3, 57, 0
5, 182300, Note_off_c, 3, 54, 0
5, 182400, Note_on_c, 3, 57, 86
5, 182400, Note_on_c, 3, 55, 86
5, 182492, Note_off_c, 3, 57, 0
5, 182492, Note_off_c, 3, 55, 0
5, 182592, Note_on_c, 3, 57, 86
5, 182592, Note_on_c, 3, 52, 86
5, 182684, Note_off_c, 3, 57, 0
5, 182684, Note_off_c, 3, 52, 0
5, 182784, Note_on_c, 3, 57, 86
5, 182784, Note_on_c, 3, 54, 86
5, 183356, Note_off_c, 3, 57, 0
5, 183356, Note_off_c, 3, 54, 0
5, 183360, Note_on_c, 3, 62, 86
5, 183548, Note_off_c, 3, 62, 0
5, 183552, Note_on_c, 3, 64, 86
5, 183644, Note_off_c, 3, 64, 0
5, 183744, Note_on_c, 3, 62, 86
5, 183836, Note_off_c, 3, 62, 0
5, 183936, Note_on_c, 3, 64, 86
5, 184028, Note_off_c, 3, 64, 0
5, 184128, Note_on_c, 3, 61, 86
5, 184220, Note_off_c, 3, 61, 0
5, 184320, Note_on_c, 3, 62, 66
5, 184320, Note_on_c, 3, 50, 66
5, 186236, Note_off_c, 3, 50, 0
5, 186236, Note_off_c, 3, 62, 0
5, 192960, Note_on_c, 3, 50, 60
5, 193148, Note_off_c, 3, 50, 0
5, 193152, Note_on_c, 3, 57, 60
5, 193340, Note_off_c, 3, 57, 0
5, 193344, Note_on_c, 3, 54, 60
5, 193532, Note_off_c, 3, 54, 0
5, 193536, Note_on_c, 3, 55, 86
5, 193536, Note_on_c, 3, 43, 86
5, 194108, Note_off_c, 3, 55, 0
5, 194108, Note_off_c, 3, 43, 0
5, 194112, Note_on_c, 3, 59, 86
5, 194300, Note_off_c, 3, 59, 0
5, 194304, Note_on_c, 3, 62, 86
5, 194304, Note_on_c, 3, 60, 86
5, 194396, Note_off_c, 3, 62, 0
5, 194396, Note_off_c, 3, 60, 0
5, 194496, Note_on_c, 3, 62, 86
5, 194496, Note_on_c, 3, 59, 86
5, 194588, Note_off_c, 3, 62, 0
5, 194588, Note_off_c, 3, 59, 0
5, 194688, Note_on_c, 3, 62, 86
5, 194688, Note_on_c, 3, 60, 86
5, 194780, Note_off_c, 3, 62, 0
5, 194780, Note_off_c, 3, 60, 0
5, 194880, Note_on_c, 3, 62, 86
5, 194880, Note_on_c, 3, 57, 86
5, 194972, Note_off_c, 3, 62, 0
5, 194972, Note_off_c, 3, 57, 0
5, 195072, Note_on_c, 3, 59, 86
5, 195072, Note_on_c, 3, 62, 86
5, 195260, Note_off_c, 3, 62, 0
5, 195264, Note_on_c, 3, 62, 86
5, 195452, Note_off_c, 3, 62, 0
5, 195456, Note_on_c, 3, 62, 86
5, 195644, Note_off_c, 3, 59, 0
5, 195644, Note_off_c, 3, 62, 0
5, 195648, Note_on_c, 3, 62, 86
5, 195648, Note_on_c, 3, 55, 86
5, 195836, Note_off_c, 3, 62, 0
5, 195836, Note_off_c, 3, 55, 0
5, 195840, Note_on_c, 3, 62, 86
5, 195840, Note_on_c, 3, 57, 86
5, 195932, Note_off_c, 3, 62, 0
5, 195932, Note_off_c, 3, 57, 0
5, 196032, Note_on_c, 3, 62, 86
5, 196032, Note_on_c, 3, 55, 86
5, 196124, Note_off_c, 3, 62, 0
5, 196124, Note_off_c, 3, 55, 0
5, 196224, Note_on_c, 3, 62, 86
5, 196224, Note_on_c, 3, 57, 86
5, 196316, Note_off_c, 3, 62, 0
5, 196316, Note_off_c, 3, 57, 0
5, 196416, Note_on_c, 3, 62, 86
5, 196416, Note_on_c, 3, 54, 86
5, 196508, Note_off_c, 3, 62, 0
5, 196508, Note_off_c, 3, 54, 0
5, 196608, Note_on_c, 3, 62, 86
5, 196608, Note_on_c, 3, 55, 86
5, 196988, Note_off_c, 3, 62, 0
5, 196988, Note_off_c, 3, 55, 0
5, 198144, Note_on_c, 3, 60, 62
5, 198144, Note_on_c, 3, 57, 62
5, 198908, Note_off_c, 3, 60, 0
5, 198908, Note_off_c, 3, 57, 0
5, 198912, Note_on_c, 3, 59, 60
5, 198912, Note_on_c, 3, 55, 60
5, 199292, Note_off_c, 3, 59, 0
5, 199292, Note_off_c, 3, 55, 0
5, 201216, Note_on_c, 3, 58, 62
5, 201216, Note_on_c, 3, 55, 62
5, 201980, Note_off_c, 3, 58, 0
5, 201980, Note_off_c, 3, 55, 0
5, 201984, Note_on_c, 3, 57, 60
5, 201984, Note_on_c, 3, 54, 60
5, 202364, Note_off_c, 3, 57, 0
5, 202364, Note_off_c, 3, 54, 0
5, 202752, Note_on_c, 3, 52, 60
5, 202752, Note_on_c, 3, 40, 60
5, 203132, Note_off_c, 3, 52, 0
5, 203132, Note_off_c, 3, 40, 0
5, 203520, Note_on_c, 3, 52, 60
5, 203520, Note_on_c, 3, 40, 60
5, 203900, Note_off_c, 3, 52, 0
5, 203900, Note_off_c, 3, 40, 0
5, 204288, Note_on_c, 3, 52, 62
5, 204288, Note_on_c, 3, 40, 62
5, 205436, Note_off_c, 3, 52, 0
5, 205436, Note_off_c, 3, 40, 0
5, 205440, Note_on_c, 3, 53, 60
5, 205440, Note_on_c, 3, 41, 60
5, 205820, Note_off_c, 3, 53, 0
5, 205820, Note_off_c, 3, 41, 0
5, 205824, Note_on_c, 3, 54, 60
5, 205824, Note_on_c, 3, 42, 60
5, 206204, Note_off_c, 3, 54, 0
5, 206204, Note_off_c, 3, 42, 0
5, 206592, Note_on_c, 3, 64, 60
5, 206780, Note_off_c, 3, 64, 0
5, 206784, Note_on_c, 3, 62, 60
5, 206972, Note_off_c, 3, 62, 0
5, 206976, Note_on_c, 3, 61, 60
5, 207164, Note_off_c, 3, 61, 0
5, 207168, Note_on_c, 3, 64, 60
5, 207356, Note_off_c, 3, 64, 0
5, 207360, Note_on_c, 3, 62, 60
5, 207360, Note_on_c, 3, 59, 60
5, 207740, Note_off_c, 3, 62, 0
5, 207740, Note_off_c, 3, 59, 0
5, 208128, Note_on_c, 3, 57, 60
5, 208316, Note_off_c, 3, 57, 0
5, 208320, Note_on_c, 3, 55, 60
5, 208508, Note_off_c, 3, 55, 0
5, 208512, Note_on_c, 3, 54, 60
5, 208700, Note_off_c, 3, 54, 0
5, 208704, Note_on_c, 3, 57, 60
5, 208892, Note_off_c, 3, 57, 0
5, 208896, Note_on_c, 3, 55, 60
5, 208896, Note_on_c, 3, 52, 60
5, 209276, Note_off_c, 3, 55, 0
5, 209276, Note_off_c, 3, 52, 0
5, 209664, Note_on_c, 3, 62, 60
5, 209852, Note_off_c, 3, 62, 0
5, 209856, Note_on_c, 3, 61, 60
5, 210044, Note_off_c, 3, 61, 0
5, 210048, Note_on_c, 3, 59, 60
5, 210236, Note_off_c, 3, 59, 0
5, 210240, Note_on_c, 3, 62, 60
5, 210428, Note_off_c, 3, 62, 0
5, 210432, Note_on_c, 3, 61, 60
5, 210432, Note_on_c, 3, 57, 60
5, 210812, Note_off_c, 3, 61, 0
5, 210812, Note_off_c, 3, 57, 0
5, 211200, Note_on_c, 3, 61, 60
5, 211388, Note_off_c, 3, 61, 0
5, 211392, Note_on_c, 3, 62, 60
5, 211580, Note_off_c, 3, 62, 0
5, 211584, Note_on_c, 3, 64, 60
5, 211772, Note_off_c, 3, 64, 0
5, 211776, Note_on_c, 3, 61, 60
5, 211964, Note_off_c, 3, 61, 0
5, 211968, Note_on_c, 3, 62, 60
5, 211968, Note_on_c, 3, 50, 60
5, 212348, Note_off_c, 3, 62, 0
5, 212348, Note_off_c, 3, 50, 0
5, 212352, Note_on_c, 3, 54, 60
5, 212352, Note_on_c, 3, 62, 62
5, 212732, Note_off_c, 3, 54, 0
5, 212736, Note_on_c, 3, 55, 60
5, 213116, Note_off_c, 3, 62, 0
5, 213116, Note_off_c, 3, 55, 0
5, 213120, Note_on_c, 3, 56, 60
5, 213120, Note_on_c, 3, 62, 60
5, 213500, Note_off_c, 3, 56, 0
5, 213500, Note_off_c, 3, 62, 0
5, 213504, Note_on_c, 3, 57, 60
5, 213692, Note_off_c, 3, 57, 0
5, 213696, Note_on_c, 3, 55, 60
5, 213884, Note_off_c, 3, 55, 0
5, 213888, Note_on_c, 3, 54, 60
5, 214076, Note_off_c, 3, 54, 0
5, 214080, Note_on_c, 3, 50, 60
5, 214268, Note_off_c, 3, 50, 0
5, 214272, Note_on_c, 3, 55, 60
5, 214652, Note_off_c, 3, 55, 0
5, 214656, Note_on_c, 3, 52, 60
5, 214656, Note_on_c, 3, 44, 60
5, 215036, Note_off_c, 3, 52, 0
5, 215036, Note_off_c, 3, 44, 0
5, 215040, Note_on_c, 3, 52, 60
5, 215040, Note_on_c, 3, 45, 60
5, 215420, Note_off_c, 3, 52, 0
5, 215420, Note_off_c, 3, 45, 0
5, 215616, Note_on_c, 3, 57, 60
5, 215804, Note_off_c, 3, 57, 0
5, 215808, Note_on_c, 3, 57, 60
5, 216188, Note_off_c, 3, 57, 0
5, 216384, Note_on_c, 3, 57, 60
5, 216572, Note_off_c, 3, 57, 0
5, 216576, Note_on_c, 3, 57, 60
5, 216956, Note_off_c, 3, 57, 0
5, 219648, Note_on_c, 3, 62, 86
5, 219648, Note_on_c, 3, 50, 86
5, 220220, Note_off_c, 3, 62, 0
5, 220220, Note_off_c, 3, 50, 0
5, 220224, Note_on_c, 3, 57, 86
5, 220224, Note_on_c, 3, 54, 86
5, 220416, Note_on_c, 3, 57, 86
5, 220416, Note_on_c, 3, 55, 86
5, 220508, Note_off_c, 3, 57, 0
5, 220508, Note_off_c, 3, 54, 0
5, 220508, Note_off_c, 3, 57, 0
5, 220508, Note_off_c, 3, 55, 0
5, 220608, Note_on_c, 3, 57, 86
5, 220608, Note_on_c, 3, 54, 86
5, 220700, Note_off_c, 3, 57, 0
5, 220700, Note_off_c, 3, 54, 0
5, 220800, Note_on_c, 3, 57, 86
5, 220800, Note_on_c, 3, 55, 86
5, 220892, Note_off_c, 3, 57, 0
5, 220892, Note_off_c, 3, 55, 0
5, 220992, Note_on_c, 3, 57, 86
5, 220992, Note_on_c, 3, 52, 86
5, 221084, Note_off_c, 3, 57, 0
5, 221084, Note_off_c, 3, 52, 0
5, 221184, Note_on_c, 3, 57, 86
5, 221184, Note_on_c, 3, 54, 86
5, 221756, Note_off_c, 3, 57, 0
5, 221756, Note_off_c, 3, 54, 0
5, 221760, Note_on_c, 3, 62, 86
5, 221948, Note_off_c, 3, 62, 0
5, 221952, Note_on_c, 3, 64, 86
5, 222044, Note_off_c, 3, 64, 0
5, 222144, Note_on_c, 3, 62, 86
5, 222236, Note_off_c, 3, 62, 0
5, 222336, Note_on_c, 3, 64, 86
5, 222428, Note_off_c, 3, 64, 0
5, 222528, Note_on_c, 3, 61, 86
5, 222620, Note_off_c, 3, 61, 0
5, 222720, Note_on_c, 3, 62, 86
5, 223292, Note_off_c, 3, 62, 0
5, 223296, Note_on_c, 3, 66, 86
5, 223296, Note_on_c, 3, 54, 86
5, 223484, Note_off_c, 3, 66, 0
5, 223484, Note_off_c, 3, 54, 0
5, 223488, Note_on_c, 3, 67, 86
5, 223488, Note_on_c, 3, 55, 86
5, 223580, Note_off_c, 3, 67, 0
5, 223580, Note_off_c, 3, 55, 0
5, 223680, Note_on_c, 3, 66, 86
5, 223680, Note_on_c, 3, 54, 86
5, 223772, Note_off_c, 3, 66, 0
5, 223772, Note_off_c, 3, 54, 0
5, 223872, Note_on_c, 3, 67, 86
5, 223872, Note_on_c, 3, 55, 86
5, 223964, Note_off_c, 3, 67, 0
5, 223964, Note_off_c, 3, 55, 0
5, 224064, Note_on_c, 3, 64, 86
5, 224064, Note_on_c, 3, 52, 86
5, 224156, Note_off_c, 3, 64, 0
5, 224156, Note_off_c, 3, 52, 0
5, 224256, Note_on_c, 3, 62, 86
5, 224256, Note_on_c, 3, 50, 86
5, 224828, Note_off_c, 3, 62, 0
5, 224828, Note_off_c, 3, 50, 0
5, 224832, Note_on_c, 3, 54, 60
5, 225020, Note_off_c, 3, 54, 0
5, 225024, Note_on_c, 3, 55, 60
5, 225116, Note_off_c, 3, 55, 0
5, 225216, Note_on_c, 3, 54, 60
5, 225308, Note_off_c, 3, 54, 0
5, 225408, Note_on_c, 3, 55, 60
5, 225500, Note_off_c, 3, 55, 0
5, 225600, Note_on_c, 3, 52, 60
5, 225692, Note_off_c, 3, 52, 0
5, 225792, Note_on_c, 3, 54, 60
5, 226364, Note_off_c, 3, 54, 0
5, 226368, Note_on_c, 3, 62, 60
5, 226556, Note_off_c, 3, 62, 0
5, 226560, Note_on_c, 3, 64, 60
5, 226652, Note_off_c, 3, 64, 0
5, 226752, Note_on_c, 3, 62, 60
5, 226844, Note_off_c, 3, 62, 0
5, 226944, Note_on_c, 3, 64, 60
5, 227036, Note_off_c, 3, 64, 0
5, 227136, Note_on_c, 3, 61, 60
5, 227228, Note_off_c, 3, 61, 0
5, 227328, Note_on_c, 3, 62, 60
5, 227900, Note_off_c, 3, 62, 0
5, 227904, Note_on_c, 3, 54, 60
5, 228092, Note_off_c, 3, 54, 0
5, 228096, Note_on_c, 3, 55, 60
5, 228188, Note_off_c, 3, 55, 0
5, 228288, Note_on_c, 3, 54, 60
5, 228380, Note_off_c, 3, 54, 0
5, 228480, Note_on_c, 3, 55, 60
5, 228572, Note_off_c, 3, 55, 0
5, 228672, Note_on_c, 3, 52, 60
5, 228764, Note_off_c, 3, 52, 0
5, 228864, Note_on_c, 3, 57, 60
5, 228864, Note_on_c, 3, 50, 60
5, 229244, Note_off_c, 3, 57, 0
5, 229244, Note_off_c, 3, 50, 0
5, 229632, Note_on_c, 3, 50, 60
5, 230012, Note_off_c, 3, 50, 0
5, 230400, Note_on_c, 3, 38, 60
5, 230780, Note_off_c, 3, 38, 0
5, 231168, Note_on_c, 3, 50, 60
5, 231548, Note_off_c, 3, 50, 0
5, 231936, Note_on_c, 3, 38, 60
5, 232316, Note_off_c, 3, 38, 0
5, 232704, Note_on_c, 3, 50, 60
5, 233084, Note_off_c, 3, 50, 0
5, 233472, Note_on_c, 3, 52, 60
5, 233472, Note_on_c, 3, 40, 60
5, 233852, Note_off_c, 3, 52, 0
5, 233852, Note_off_c, 3, 40, 0
5, 234624, Note_on_c, 3, 49, 60
5, 234624, Note_on_c, 3, 37, 60
5, 235004, Note_off_c, 3, 49, 0
5, 235004, Note_off_c, 3, 37, 0
5, 235008, Note_on_c, 3, 50, 60
5, 235008, Note_on_c, 3, 38, 60
5, 235388, Note_off_c, 3, 50, 0
5, 235388, Note_off_c, 3, 38, 0
5, 236160, Note_on_c, 3, 54, 60
5, 236160, Note_on_c, 3, 42, 60
5, 236540, Note_off_c, 3, 54, 0
5, 236540, Note_off_c, 3, 42, 0
5, 236544, Note_on_c, 3, 55, 60
5, 236544, Note_on_c, 3, 43, 60
5, 237308, Note_off_c, 3, 55, 0
5, 237308, Note_off_c, 3, 43, 0
5, 237312, Note_on_c, 3, 45, 60
5, 237692, Note_off_c, 3, 45, 0
5, 237696, Note_on_c, 3, 57, 60
5, 237696, Note_on_c, 3, 45, 60
5, 238076, Note_off_c, 3, 57, 0
5, 238076, Note_off_c, 3, 45, 0
5, 238080, Note_on_c, 3, 50, 86
5, 238172, Note_off_c, 3, 50, 0
5, 238176, Note_on_c, 3, 49, 86
5, 238268, Note_off_c, 3, 49, 0
5, 238272, Note_on_c, 3, 47, 86
5, 238364, Note_off_c, 3, 47, 0
5, 238368, Note_on_c, 3, 45, 86
5, 238460, Note_off_c, 3, 45, 0
5, 238464, Note_on_c, 3, 50, 86
5, 238556, Note_off_c, 3, 50, 0
5, 238560, Note_on_c, 3, 49, 86
5, 238652, Note_off_c, 3, 49, 0
5, 238656, Note_on_c, 3, 47, 86
5, 238748, Note_off_c, 3, 47, 0
5, 238752, Note_on_c, 3, 45, 86
5, 238844, Note_off_c, 3, 45, 0
5, 238848, Note_on_c, 3, 50, 86
5, 239036, Note_off_c, 3, 50, 0
5, 239040, Note_on_c, 3, 45, 86
5, 239228, Note_off_c, 3, 45, 0
5, 239232, Note_on_c, 3, 42, 86
5, 239420, Note_off_c, 3, 42, 0
5, 239424, Note_on_c, 3, 38, 86
5, 239612, Note_off_c, 3, 38, 0
5, 239616, Note_on_c, 3, 52, 60
5, 239616, Note_on_c, 3, 40, 60
5, 239996, Note_off_c, 3, 52, 0
5, 239996, Note_off_c, 3, 40, 0
5, 240000, Note_on_c, 3, 55, 60
5, 240000, Note_on_c, 3, 43, 60
5, 240380, Note_off_c, 3, 55, 0
5, 240380, Note_off_c, 3, 43, 0
5, 240384, Note_on_c, 3, 57, 60
5, 240384, Note_on_c, 3, 45, 60
5, 240764, Note_off_c, 3, 57, 0
5, 240764, Note_off_c, 3, 45, 0
5, 240768, Note_on_c, 3, 49, 60
5, 240768, Note_on_c, 3, 37, 60
5, 241148, Note_off_c, 3, 49, 0
5, 241148, Note_off_c, 3, 37, 0
5, 241152, Note_on_c, 3, 50, 60
5, 241152, Note_on_c, 3, 38, 60
5, 241532, Note_off_c, 3, 50, 0
5, 241532, Note_off_c, 3, 38, 0
5, 241536, Note_on_c, 3, 52, 60
5, 241536, Note_on_c, 3, 40, 60
5, 241916, Note_off_c, 3, 52, 0
5, 241916, Note_off_c, 3, 40, 0
5, 241920, Note_on_c, 3, 54, 60
5, 241920, Note_on_c, 3, 42, 60
5, 242300, Note_off_c, 3, 54, 0
5, 242300, Note_off_c, 3, 42, 0
5, 242688, Note_on_c, 3, 55, 60
5, 242688, Note_on_c, 3, 43, 60
5, 243452, Note_off_c, 3, 55, 0
5, 243452, Note_off_c, 3, 43, 0
5, 243456, Note_on_c, 3, 57, 60
5, 243456, Note_on_c, 3, 45, 60
5, 243836, Note_off_c, 3, 57, 0
5, 243836, Note_off_c, 3, 45, 0
5, 243840, Note_on_c, 3, 45, 60
5, 243840, Note_on_c, 3, 33, 60
5, 244220, Note_off_c, 3, 45, 0
5, 244220, Note_off_c, 3, 33, 0
5, 244224, Note_on_c, 3, 50, 86
5, 244224, Note_on_c, 3, 38, 86
5, 244796, Note_off_c, 3, 50, 0
5, 244796, Note_off_c, 3, 38, 0
5, 244800, Note_on_c, 3, 57, 86
5, 244800, Note_on_c, 3, 54, 86
5, 244988, Note_off_c, 3, 57, 0
5, 244988, Note_off_c, 3, 54, 0
5, 244992, Note_on_c, 3, 57, 86
5, 244992, Note_on_c, 3, 55, 86
5, 245180, Note_off_c, 3, 57, 0
5, 245180, Note_off_c, 3, 55, 0
5, 245184, Note_on_c, 3, 57, 86
5, 245184, Note_on_c, 3, 54, 86
5, 245372, Note_off_c, 3, 57, 0
5, 245372, Note_off_c, 3, 54, 0
5, 245376, Note_on_c, 3, 57, 86
5, 245376, Note_on_c, 3, 55, 86
5, 245564, Note_off_c, 3, 57, 0
5, 245564, Note_off_c, 3, 55, 0
5, 245568, Note_on_c, 3, 57, 86
5, 245568, Note_on_c, 3, 52, 86
5, 245756, Note_off_c, 3, 57, 0
5, 245756, Note_off_c, 3, 52, 0
5, 245760, Note_on_c, 3, 57, 86
5, 245760, Note_on_c, 3, 54, 86
5, 246332, Note_off_c, 3, 57, 0
5, 246332, Note_off_c, 3, 54, 0
5, 246336, Note_on_c, 3, 62, 86
5, 246524, Note_off_c, 3, 62, 0
5, 246528, Note_on_c, 3, 64, 86
5, 246716, Note_off_c, 3, 64, 0
5, 246720, Note_on_c, 3, 62, 86
5, 246908, Note_off_c, 3, 62, 0
5, 246912, Note_on_c, 3, 64, 86
5, 247100, Note_off_c, 3, 64, 0
5, 247104, Note_on_c, 3, 61, 86
5, 247292, Note_off_c, 3, 61, 0
5, 247296, Note_on_c, 3, 62, 86
5, 247296, Note_on_c, 3, 50, 86
5, 247676, Note_off_c, 3, 62, 0
5, 247676, Note_off_c, 3, 50, 0
5, 251904, Note_on_c, 3, 50, 64
5, 251904, Note_on_c, 3, 62, 64
5, 252668, Note_off_c, 3, 50, 0
5, 253056, Note_on_c, 3, 59, 59
5, 253056, Note_on_c, 3, 50, 59
5, 253148, Note_off_c, 3, 59, 0
5, 253148, Note_off_c, 3, 50, 0
5, 253248, Note_on_c, 3, 57, 59
5, 253248, Note_on_c, 3, 54, 59
5, 253248, Note_on_c, 3, 50, 59
5, 253248, Note_on_c, 3, 48, 59
5, 253340, Note_off_c, 3, 57, 0
5, 253340, Note_off_c, 3, 54, 0
5, 253340, Note_off_c, 3, 50, 0
5, 253340, Note_off_c, 3, 48, 0
5, 253440, Note_on_c, 3, 55, 59
5, 253440, Note_on_c, 3, 50, 59
5, 253440, Note_on_c, 3, 47, 59
5, 253820, Note_off_c, 3, 62, 0
5, 253820, Note_off_c, 3, 55, 0
5, 253820, Note_off_c, 3, 50, 0
5, 253820, Note_off_c, 3, 47, 0
5, 254976, Note_on_c, 3, 59, 59
5, 255356, Note_off_c, 3, 59, 0
5, 255744, Note_on_c, 3, 59, 59
5, 256124, Note_off_c, 3, 59, 0
5, 258048, Note_on_c, 3, 62, 64
5, 258048, Note_on_c, 3, 50, 64
5, 258812, Note_off_c, 3, 62, 0
5, 259200, Note_on_c, 3, 57, 59
5, 259200, Note_on_c, 3, 66, 59
5, 259388, Note_off_c, 3, 57, 0
5, 259388, Note_off_c, 3, 66, 0
5, 259392, Note_on_c, 3, 64, 59
5, 259392, Note_on_c, 3, 55, 59
5, 259580, Note_off_c, 3, 64, 0
5, 259580, Note_off_c, 3, 55, 0
5, 259584, Note_on_c, 3, 62, 59
5, 259584, Note_on_c, 3, 54, 59
5, 259964, Note_off_c, 3, 50, 0
5, 259964, Note_off_c, 3, 62, 0
5, 259964, Note_off_c, 3, 54, 0
5, 264192, Note_on_c, 3, 55, 59
5, 264572, Note_off_c, 3, 55, 0
5, 264576, Note_on_c, 3, 57, 59
5, 264956, Note_off_c, 3, 57, 0
5, 264960, Note_on_c, 3, 59, 59
5, 265340, Note_off_c, 3, 59, 0
5, 267264, Note_on_c, 3, 59, 59
5, 267264, Note_on_c, 3, 52, 59
5, 267644, Note_off_c, 3, 59, 0
5, 267644, Note_off_c, 3, 52, 0
5, 267648, Note_on_c, 3, 57, 59
5, 267648, Note_on_c, 3, 54, 59
5, 268028, Note_off_c, 3, 57, 0
5, 268028, Note_off_c, 3, 54, 0
5, 268032, Note_on_c, 3, 55, 59
5, 268412, Note_off_c, 3, 55, 0
5, 271104, Note_on_c, 3, 62, 64
5, 271104, Note_on_c, 3, 50, 64
5, 271868, Note_off_c, 3, 62, 0
5, 271868, Note_off_c, 3, 50, 0
5, 271872, Note_on_c, 3, 62, 64
5, 271872, Note_on_c, 3, 50, 64
5, 273596, Note_off_c, 3, 50, 0
5, 273596, Note_off_c, 3, 62, 0
5, 273600, Note_on_c, 3, 62, 59
5, 273600, Note_on_c, 3, 66, 59
5, 273788, Note_off_c, 3, 62, 0
5, 273788, Note_off_c, 3, 66, 0
5, 274560, Note_on_c, 3, 56, 59
5, 274940, Note_off_c, 3, 56, 0
5, 274944, Note_on_c, 3, 57, 59
5, 275324, Note_off_c, 3, 57, 0
5, 275328, Note_on_c, 3, 54, 59
5, 275708, Note_off_c, 3, 54, 0
5, 275712, Note_on_c, 3, 55, 59
5, 276092, Note_off_c, 3, 55, 0
5, 276096, Note_on_c, 3, 56, 59
5, 276476, Note_off_c, 3, 56, 0
5, 276480, Note_on_c, 3, 57, 86
5, 276480, Note_on_c, 3, 45, 86
5, 276668, Note_off_c, 3, 45, 0
5, 276672, Note_on_c, 3, 45, 86
5, 276860, Note_off_c, 3, 57, 0
5, 276860, Note_off_c, 3, 45, 0
5, 276864, Note_on_c, 3, 49, 86
5, 277052, Note_off_c, 3, 49, 0
5, 277056, Note_on_c, 3, 45, 86
5, 277244, Note_off_c, 3, 45, 0
5, 277248, Note_on_c, 3, 50, 86
5, 277436, Note_off_c, 3, 50, 0
5, 277440, Note_on_c, 3, 45, 86
5, 277628, Note_off_c, 3, 45, 0
5, 277632, Note_on_c, 3, 54, 86
5, 277820, Note_off_c, 3, 54, 0
5, 277824, Note_on_c, 3, 52, 86
5, 277916, Note_off_c, 3, 52, 0
5, 277920, Note_on_c, 3, 50, 86
5, 278012, Note_off_c, 3, 50, 0
5, 278016, Note_on_c, 3, 57, 86
5, 278016, Note_on_c, 3, 45, 86
5, 278204, Note_off_c, 3, 45, 0
5, 278208, Note_on_c, 3, 45, 86
5, 278396, Note_off_c, 3, 57, 0
5, 278396, Note_off_c, 3, 45, 0
5, 278400, Note_on_c, 3, 49, 86
5, 278588, Note_off_c, 3, 49, 0
5, 278592, Note_on_c, 3, 45, 86
5, 278780, Note_off_c, 3, 45, 0
5, 278784, Note_on_c, 3, 50, 86
5, 278972, Note_off_c, 3, 50, 0
5, 278976, Note_on_c, 3, 45, 86
5, 279164, Note_off_c, 3, 45, 0
5, 279168, Note_on_c, 3, 54, 86
5, 279356, Note_off_c, 3, 54, 0
5, 279360, Note_on_c, 3, 52, 86
5, 279452, Note_off_c, 3, 52, 0
5, 279456, Note_on_c, 3, 50, 86
5, 279548, Note_off_c, 3, 50, 0
5, 279552, Note_on_c, 3, 57, 86
5, 279552, Note_on_c, 3, 45, 86
5, 279932, Note_off_c, 3, 57, 0
5, 279932, Note_off_c, 3, 45, 0
5, 279936, Note_on_c, 3, 57, 86
5, 279936, Note_on_c, 3, 45, 86
5, 280220, Note_off_c, 3, 57, 0
5, 280220, Note_off_c, 3, 45, 0
5, 280224, Note_on_c, 3, 57, 86
5, 280224, Note_on_c, 3, 45, 86
5, 280288, Note_off_c, 3, 57, 0
5, 280288, Note_off_c, 3, 45, 0
5, 280320, Note_on_c, 3, 57, 86
5, 280320, Note_on_c, 3, 45, 86
5, 280700, Note_off_c, 3, 57, 0
5, 280700, Note_off_c, 3, 45, 0
5, 281088, Note_on_c, 3, 45, 59
5, 281180, Note_off_c, 3, 45, 0
5, 281184, Note_on_c, 3, 57, 59
5, 281276, Note_off_c, 3, 57, 0
5, 281280, Note_on_c, 3, 45, 59
5, 281372, Note_off_c, 3, 45, 0
5, 281376, Note_on_c, 3, 57, 59
5, 281468, Note_off_c, 3, 57, 0
5, 281472, Note_on_c, 3, 45, 59
5, 281564, Note_off_c, 3, 45, 0
5, 281568, Note_on_c, 3, 57, 59
5, 281660, Note_off_c, 3, 57, 0
5, 281664, Note_on_c, 3, 45, 59
5, 281756, Note_off_c, 3, 45, 0
5, 281760, Note_on_c, 3, 57, 59
5, 281852, Note_off_c, 3, 57, 0
5, 281856, Note_on_c, 3, 45, 59
5, 281948, Note_off_c, 3, 45, 0
5, 281952, Note_on_c, 3, 57, 59
5, 282044, Note_off_c, 3, 57, 0
5, 282048, Note_on_c, 3, 45, 59
5, 282140, Note_off_c, 3, 45, 0
5, 282144, Note_on_c, 3, 57, 59
5, 282236, Note_off_c, 3, 57, 0
5, 282240, Note_on_c, 3, 45, 59
5, 282332, Note_off_c, 3, 45, 0
5, 282336, Note_on_c, 3, 57, 59
5, 282428, Note_off_c, 3, 57, 0
5, 282432, Note_on_c, 3, 45, 59
5, 282524, Note_off_c, 3, 45, 0
5, 282528, Note_on_c, 3, 57, 59
5, 282620, Note_off_c, 3, 57, 0
5, 282624, Note_on_c, 3, 57, 64
5, 282624, Note_on_c, 3, 54, 64
5, 283388, Note_off_c, 3, 54, 0
5, 283392, Note_on_c, 3, 50, 64
5, 284156, Note_off_c, 3, 57, 0
5, 284156, Note_off_c, 3, 50, 0
5, 284160, Note_on_c, 3, 57, 64
5, 284160, Note_on_c, 3, 52, 64
5, 284924, Note_off_c, 3, 52, 0
5, 284928, Note_on_c, 3, 55, 64
5, 285692, Note_off_c, 3, 57, 0
5, 285692, Note_off_c, 3, 55, 0
5, 285696, Note_on_c, 3, 57, 64
5, 285696, Note_on_c, 3, 54, 64
5, 286460, Note_off_c, 3, 54, 0
5, 286464, Note_on_c, 3, 50, 64
5, 287228, Note_off_c, 3, 57, 0
5, 287228, Note_off_c, 3, 50, 0
5, 287232, Note_on_c, 3, 52, 64
5, 287232, Note_on_c, 3, 57, 64
5, 287996, Note_off_c, 3, 52, 0
5, 288000, Note_on_c, 3, 55, 64
5, 288764, Note_off_c, 3, 57, 0
5, 288764, Note_off_c, 3, 55, 0
5, 288768, Note_on_c, 3, 54, 59
5, 288768, Note_on_c, 3, 57, 59
5, 289148, Note_off_c, 3, 54, 0
5, 289148, Note_off_c, 3, 57, 0
5, 289152, Note_on_c, 3, 54, 59
5, 289532, Note_off_c, 3, 54, 0
5, 289536, Note_on_c, 3, 54, 59
5, 289916, Note_off_c, 3, 54, 0
5, 290688, Note_on_c, 3, 55, 59
5, 291068, Note_off_c, 3, 55, 0
5, 291072, Note_on_c, 3, 55, 59
5, 291452, Note_off_c, 3, 55, 0
5, 292224, Note_on_c, 3, 57, 59
5, 292604, Note_off_c, 3, 57, 0
5, 292608, Note_on_c, 3, 57, 59
5, 292988, Note_off_c, 3, 57, 0
5, 292992, Note_on_c, 3, 57, 59
5, 293372, Note_off_c, 3, 57, 0
5, 293376, Note_on_c, 3, 57, 59
5, 293376, Note_on_c, 3, 50, 59
5, 293756, Note_off_c, 3, 57, 0
5, 293756, Note_off_c, 3, 50, 0
5, 295296, Note_on_c, 3, 54, 59
5, 295676, Note_off_c, 3, 54, 0
5, 295680, Note_on_c, 3, 54, 59
5, 296060, Note_off_c, 3, 54, 0
5, 296832, Note_on_c, 3, 55, 59
5, 297212, Note_off_c, 3, 55, 0
5, 297216, Note_on_c, 3, 55, 59
5, 297596, Note_off_c, 3, 55, 0
5, 298368, Note_on_c, 3, 55, 59
5, 298748, Note_off_c, 3, 55, 0
5, 298752, Note_on_c, 3, 55, 59
5, 299132, Note_off_c, 3, 55, 0
5, 299136, Note_on_c, 3, 56, 59
5, 299516, Note_off_c, 3, 56, 0
5, 299520, Note_on_c, 3, 57, 64
5, 299520, Note_on_c, 3, 45, 64
5, 302588, Note_off_c, 3, 45, 0
5, 302588, Note_off_c, 3, 57, 0
5, 305664, Note_on_c, 3, 62, 86
5, 305664, Note_on_c, 3, 50, 86
5, 306044, Note_off_c, 3, 62, 0
5, 306044, Note_off_c, 3, 50, 0
5, 306240, Note_on_c, 3, 57, 86
5, 306240, Note_on_c, 3, 50, 86
5, 306428, Note_off_c, 3, 57, 0
5, 306428, Note_off_c, 3, 50, 0
5, 306432, Note_on_c, 3, 57, 86
5, 306432, Note_on_c, 3, 49, 86
5, 306812, Note_off_c, 3, 57, 0
5, 306812, Note_off_c, 3, 49, 0
5, 307776, Note_on_c, 3, 50, 59
5, 307964, Note_off_c, 3, 50, 0
5, 307968, Note_on_c, 3, 52, 59
5, 308348, Note_off_c, 3, 52, 0
5, 308352, Note_on_c, 3, 45, 59
5, 308732, Note_off_c, 3, 45, 0
5, 308736, Note_on_c, 3, 62, 86
5, 308736, Note_on_c, 3, 50, 86
5, 309116, Note_off_c, 3, 62, 0
5, 309116, Note_off_c, 3, 50, 0
5, 309312, Note_on_c, 3, 57, 86
5, 309312, Note_on_c, 3, 50, 86
5, 309500, Note_off_c, 3, 57, 0
5, 309500, Note_off_c, 3, 50, 0
5, 309504, Note_on_c, 3, 57, 86
5, 309504, Note_on_c, 3, 49, 86
5, 309884, Note_off_c, 3, 57, 0
5, 309884, Note_off_c, 3, 49, 0
5, 310848, Note_on_c, 3, 50, 59
5, 311036, Note_off_c, 3, 50, 0
5, 311040, Note_on_c, 3, 52, 59
5, 311420, Note_off_c, 3, 52, 0
5, 311424, Note_on_c, 3, 45, 59
5, 311804, Note_off_c, 3, 45, 0
5, 311808, Note_on_c, 3, 50, 59
5, 312188, Note_off_c, 3, 50, 0
5, 313344, Note_on_c, 3, 54, 59
5, 313344, Note_on_c, 3, 42, 59
5, 313724, Note_off_c, 3, 54, 0
5, 313724, Note_off_c, 3, 42, 0
5, 314880, Note_on_c, 3, 55, 59
5, 314880, Note_on_c, 3, 43, 59
5, 315260, Note_off_c, 3, 55, 0
5, 315260, Note_off_c, 3, 43, 0
5, 316416, Note_on_c, 3, 56, 59
5, 316416, Note_on_c, 3, 44, 59
5, 316784, Note_on_c, 3, 56, 59
5, 316796, Note_off_c, 3, 56, 0
5, 316796, Note_off_c, 3, 44, 0
5, 316800, Note_on_c, 3, 44, 59
5, 317164, Note_off_c, 3, 56, 0
5, 317180, Note_off_c, 3, 44, 0
5, 317184, Note_on_c, 3, 56, 59
5, 317184, Note_on_c, 3, 44, 59
5, 317564, Note_off_c, 3, 56, 0
5, 317564, Note_off_c, 3, 44, 0
5, 317568, Note_on_c, 3, 56, 59
5, 317568, Note_on_c, 3, 44, 59
5, 317948, Note_off_c, 3, 56, 0
5, 317948, Note_off_c, 3, 44, 0
5, 317952, Note_on_c, 3, 57, 59
5, 317952, Note_on_c, 3, 45, 59
5, 318332, Note_off_c, 3, 57, 0
5, 318332, Note_off_c, 3, 45, 0
5, 319680, Note_on_c, 3, 57, 59
5, 319868, Note_off_c, 3, 57, 0
5, 319872, Note_on_c, 3, 57, 59
5, 320060, Note_off_c, 3, 57, 0
5, 320064, Note_on_c, 3, 57, 59
5, 320252, Note_off_c, 3, 57, 0
5, 320256, Note_on_c, 3, 57, 59
5, 320444, Note_off_c, 3, 57, 0
5, 320448, Note_on_c, 3, 57, 59
5, 320636, Note_off_c, 3, 57, 0
5, 320640, Note_on_c, 3, 57, 59
5, 320828, Note_off_c, 3, 57, 0
5, 320832, Note_on_c, 3, 57, 59
5, 321020, Note_off_c, 3, 57, 0
5, 321024, Note_on_c, 3, 56, 59
5, 321404, Note_off_c, 3, 56, 0
5, 321408, Note_on_c, 3, 56, 59
5, 321408, Note_on_c, 3, 44, 59
5, 321788, Note_off_c, 3, 56, 0
5, 321788, Note_off_c, 3, 44, 0
5, 321792, Note_on_c, 3, 56, 59
5, 321792, Note_on_c, 3, 44, 59
5, 322172, Note_off_c, 3, 56, 0
5, 322172, Note_off_c, 3, 44, 0
5, 322176, Note_on_c, 3, 56, 59
5, 322176, Note_on_c, 3, 44, 59
5, 322556, Note_off_c, 3, 56, 0
5, 322556, Note_off_c, 3, 44, 0
5, 322560, Note_on_c, 3, 57, 59
5, 322560, Note_on_c, 3, 45, 59
5, 322940, Note_off_c, 3, 57, 0
5, 322940, Note_off_c, 3, 45, 0
5, 324096, Note_on_c, 3, 45, 59
5, 324096, Note_on_c, 3, 33, 59
5, 324476, Note_off_c, 3, 45, 0
5, 324476, Note_off_c, 3, 33, 0
5, 325824, Note_on_c, 3, 57, 59
5, 326012, Note_off_c, 3, 57, 0
5, 326016, Note_on_c, 3, 57, 59
5, 326204, Note_off_c, 3, 57, 0
5, 326208, Note_on_c, 3, 57, 59
5, 326396, Note_off_c, 3, 57, 0
5, 326400, Note_on_c, 3, 57, 59
5, 326588, Note_off_c, 3, 57, 0
5, 326592, Note_on_c, 3, 57, 59
5, 326780, Note_off_c, 3, 57, 0
5, 326784, Note_on_c, 3, 57, 59
5, 326972, Note_off_c, 3, 57, 0
5, 326976, Note_on_c, 3, 57, 59
5, 327164, Note_off_c, 3, 57, 0
5, 327168, Note_on_c, 3, 45, 59
5, 327356, Note_off_c, 3, 45, 0
5, 327360, Note_on_c, 3, 45, 59
5, 327548, Note_off_c, 3, 45, 0
5, 327552, Note_on_c, 3, 45, 59
5, 327740, Note_off_c, 3, 45, 0
5, 327744, Note_on_c, 3, 45, 59
5, 327932, Note_off_c, 3, 45, 0
5, 327936, Note_on_c, 3, 45, 59
5, 327936, Note_on_c, 3, 33, 59
5, 328124, Note_off_c, 3, 45, 0
5, 328124, Note_off_c, 3, 33, 0
5, 328128, Note_on_c, 3, 45, 59
5, 328128, Note_on_c, 3, 33, 59
5, 328316, Note_off_c, 3, 45, 0
5, 328316, Note_off_c, 3, 33, 0
5, 328320, Note_on_c, 3, 45, 59
5, 328320, Note_on_c, 3, 33, 59
5, 328508, Note_off_c, 3, 45, 0
5, 328508, Note_off_c, 3, 33, 0
5, 328512, Note_on_c, 3, 45, 59
5, 328512, Note_on_c, 3, 33, 59
5, 328700, Note_off_c, 3, 45, 0
5, 328700, Note_off_c, 3, 33, 0
5, 328704, Note_on_c, 3, 50, 86
5, 328704, Note_on_c, 3, 38, 86
5, 329084, Note_off_c, 3, 50, 0
5, 329084, Note_off_c, 3, 38, 0
5, 329280, Note_on_c, 3, 62, 86
5, 329280, Note_on_c, 3, 50, 86
5, 329468, Note_off_c, 3, 62, 0
5, 329468, Note_off_c, 3, 50, 0
5, 329472, Note_on_c, 3, 61, 86
5, 329472, Note_on_c, 3, 49, 86
5, 329852, Note_off_c, 3, 61, 0
5, 329852, Note_off_c, 3, 49, 0
5, 331776, Note_on_c, 3, 62, 86
5, 331776, Note_on_c, 3, 54, 86
5, 331964, Note_off_c, 3, 54, 0
5, 331968, Note_on_c, 3, 54, 86
5, 332156, Note_off_c, 3, 62, 0
5, 332156, Note_off_c, 3, 54, 0
5, 332160, Note_on_c, 3, 54, 86
5, 332348, Note_off_c, 3, 54, 0
5, 332352, Note_on_c, 3, 54, 86
5, 332352, Note_on_c, 3, 62, 86
5, 332540, Note_off_c, 3, 54, 0
5, 332540, Note_off_c, 3, 62, 0
5, 332544, Note_on_c, 3, 62, 86
5, 332544, Note_on_c, 3, 64, 86
5, 332544, Note_on_c, 3, 55, 86
5, 332732, Note_off_c, 3, 62, 0
5, 332732, Note_off_c, 3, 64, 0
5, 332732, Note_off_c, 3, 55, 0
5, 332736, Note_on_c, 3, 64, 86
5, 332736, Note_on_c, 3, 62, 86
5, 332736, Note_on_c, 3, 59, 86
5, 332736, Note_on_c, 3, 55, 86
5, 332912, Note_on_c, 3, 64, 86
5, 332924, Note_off_c, 3, 64, 0
5, 332924, Note_off_c, 3, 62, 0
5, 332924, Note_off_c, 3, 59, 0
5, 332924, Note_off_c, 3, 55, 0
5, 332928, Note_on_c, 3, 62, 86
5, 332928, Note_on_c, 3, 59, 86
5, 332928, Note_on_c, 3, 56, 86
5, 333100, Note_off_c, 3, 64, 0
5, 333116, Note_off_c, 3, 62, 0
5, 333116, Note_off_c, 3, 59, 0
5, 333116, Note_off_c, 3, 56, 0
5, 333120, Note_on_c, 3, 64, 86
5, 333120, Note_on_c, 3, 62, 86
5, 333120, Note_on_c, 3, 59, 86
5, 333120, Note_on_c, 3, 56, 86
5, 333308, Note_off_c, 3, 64, 0
5, 333308, Note_off_c, 3, 62, 0
5, 333308, Note_off_c, 3, 59, 0
5, 333308, Note_off_c, 3, 56, 0
5, 333312, Note_on_c, 3, 64, 86
5, 333312, Note_on_c, 3, 57, 86
5, 333500, Note_off_c, 3, 64, 0
5, 333500, Note_off_c, 3, 57, 0
5, 333504, Note_on_c, 3, 45, 86
5, 333692, Note_off_c, 3, 45, 0
5, 333696, Note_on_c, 3, 49, 86
5, 333884, Note_off_c, 3, 49, 0
5, 333888, Note_on_c, 3, 45, 86
5, 334076, Note_off_c, 3, 45, 0
5, 334080, Note_on_c, 3, 50, 86
5, 334268, Note_off_c, 3, 50, 0
5, 334272, Note_on_c, 3, 45, 86
5, 334460, Note_off_c, 3, 45, 0
5, 334464, Note_on_c, 3, 54, 86
5, 334652, Note_off_c, 3, 54, 0
5, 334656, Note_on_c, 3, 52, 86
5, 334748, Note_off_c, 3, 52, 0
5, 334752, Note_on_c, 3, 50, 86
5, 334844, Note_off_c, 3, 50, 0
5, 334848, Note_on_c, 3, 57, 86
5, 335036, Note_off_c, 3, 57, 0
5, 335040, Note_on_c, 3, 45, 86
5, 335228, Note_off_c, 3, 45, 0
5, 335232, Note_on_c, 3, 49, 86
5, 335420, Note_off_c, 3, 49, 0
5, 335424, Note_on_c, 3, 45, 86
5, 335612, Note_off_c, 3, 45, 0
5, 335616, Note_on_c, 3, 50, 86
5, 335804, Note_off_c, 3, 50, 0
5, 335808, Note_on_c, 3, 45, 86
5, 335996, Note_off_c, 3, 45, 0
5, 336000, Note_on_c, 3, 54, 86
5, 336188, Note_off_c, 3, 54, 0
5, 336192, Note_on_c, 3, 52, 86
5, 336284, Note_off_c, 3, 52, 0
5, 336288, Note_on_c, 3, 50, 86
5, 336380, Note_off_c, 3, 50, 0
5, 336384, Note_on_c, 3, 45, 86
5, 336384, Note_on_c, 3, 33, 86
5, 337100, Note_off_c, 3, 45, 0
5, 337100, Note_off_c, 3, 33, 0
5, 373248, Note_on_c, 3, 50, 86
5, 373248, Note_on_c, 3, 38, 86
5, 373436, Note_off_c, 3, 50, 0
5, 373436, Note_off_c, 3, 38, 0
5, 373440, Note_on_c, 3, 50, 86
5, 373628, Note_off_c, 3, 50, 0
5, 373632, Note_on_c, 3, 54, 86
5, 373820, Note_off_c, 3, 54, 0
5, 373824, Note_on_c, 3, 57, 86
5, 374012, Note_off_c, 3, 57, 0
5, 374016, Note_on_c, 3, 62, 86
5, 374396, Note_off_c, 3, 62, 0
5, 374400, Note_on_c, 3, 50, 86
5, 374780, Note_off_c, 3, 50, 0
5, 374976, Note_on_c, 3, 50, 86
5, 375164, Note_off_c, 3, 50, 0
5, 375168, Note_on_c, 3, 55, 86
5, 375356, Note_off_c, 3, 55, 0
5, 375360, Note_on_c, 3, 59, 86
5, 375548, Note_off_c, 3, 59, 0
5, 375552, Note_on_c, 3, 62, 86
5, 375932, Note_off_c, 3, 62, 0
5, 375936, Note_on_c, 3, 50, 86
5, 376316, Note_off_c, 3, 50, 0
5, 376512, Note_on_c, 3, 50, 86
5, 376700, Note_off_c, 3, 50, 0
5, 376704, Note_on_c, 3, 54, 86
5, 376892, Note_off_c, 3, 54, 0
5, 376896, Note_on_c, 3, 57, 86
5, 377084, Note_off_c, 3, 57, 0
5, 377088, Note_on_c, 3, 62, 86
5, 377468, Note_off_c, 3, 62, 0
5, 377472, Note_on_c, 3, 50, 86
5, 377852, Note_off_c, 3, 50, 0
5, 378048, Note_on_c, 3, 45, 86
5, 378236, Note_off_c, 3, 45, 0
5, 378240, Note_on_c, 3, 49, 86
5, 378428, Note_off_c, 3, 49, 0
5, 378432, Note_on_c, 3, 52, 86
5, 378620, Note_off_c, 3, 52, 0
5, 378624, Note_on_c, 3, 57, 86
5, 379004, Note_off_c, 3, 57, 0
5, 379008, Note_on_c, 3, 45, 86
5, 379388, Note_off_c, 3, 45, 0
5, 379392, Note_on_c, 3, 50, 86
5, 379392, Note_on_c, 3, 38, 86
5, 379580, Note_off_c, 3, 50, 0
5, 379580, Note_off_c, 3, 38, 0
5, 379584, Note_on_c, 3, 50, 86
5, 379772, Note_off_c, 3, 50, 0
5, 379776, Note_on_c, 3, 50, 86
5, 379964, Note_off_c, 3, 50, 0
5, 379968, Note_on_c, 3, 50, 86
5, 380156, Note_off_c, 3, 50, 0
5, 380160, Note_on_c, 3, 54, 86
5, 380160, Note_on_c, 3, 42, 86
5, 380348, Note_off_c, 3, 54, 0
5, 380348, Note_off_c, 3, 42, 0
5, 380352, Note_on_c, 3, 54, 86
5, 380352, Note_on_c, 3, 42, 86
5, 380540, Note_off_c, 3, 54, 0
5, 380540, Note_off_c, 3, 42, 0
5, 380544, Note_on_c, 3, 54, 86
5, 380544, Note_on_c, 3, 42, 86
5, 380732, Note_off_c, 3, 54, 0
5, 380732, Note_off_c, 3, 42, 0
5, 380736, Note_on_c, 3, 54, 86
5, 380736, Note_on_c, 3, 42, 86
5, 380924, Note_off_c, 3, 54, 0
5, 380924, Note_off_c, 3, 42, 0
5, 380928, Note_on_c, 3, 55, 86
5, 380928, Note_on_c, 3, 43, 86
5, 381116, Note_off_c, 3, 55, 0
5, 381116, Note_off_c, 3, 43, 0
5, 381120, Note_on_c, 3, 55, 86
5, 381120, Note_on_c, 3, 43, 86
5, 381308, Note_off_c, 3, 55, 0
5, 381308, Note_off_c, 3, 43, 0
5, 381312, Note_on_c, 3, 55, 86
5, 381312, Note_on_c, 3, 43, 86
5, 381500, Note_off_c, 3, 55, 0
5, 381500, Note_off_c, 3, 43, 0
5, 381504, Note_on_c, 3, 55, 86
5, 381504, Note_on_c, 3, 43, 86
5, 381692, Note_off_c, 3, 55, 0
5, 381692, Note_off_c, 3, 43, 0
5, 381696, Note_on_c, 3, 55, 86
5, 381696, Note_on_c, 3, 43, 86
5, 381884, Note_off_c, 3, 55, 0
5, 381884, Note_off_c, 3, 43, 0
5, 381888, Note_on_c, 3, 55, 86
5, 381888, Note_on_c, 3, 43, 86
5, 382076, Note_off_c, 3, 55, 0
5, 382076, Note_off_c, 3, 43, 0
5, 382080, Note_on_c, 3, 55, 86
5, 382080, Note_on_c, 3, 43, 86
5, 382268, Note_off_c, 3, 55, 0
5, 382268, Note_off_c, 3, 43, 0
5, 382272, Note_on_c, 3, 55, 86
5, 382272, Note_on_c, 3, 43, 86
5, 382460, Note_off_c, 3, 55, 0
5, 382460, Note_off_c, 3, 43, 0
5, 382464, Note_on_c, 3, 57, 86
5, 382464, Note_on_c, 3, 45, 86
5, 382652, Note_off_c, 3, 57, 0
5, 382652, Note_off_c, 3, 45, 0
5, 382656, Note_on_c, 3, 57, 86
5, 382656, Note_on_c, 3, 45, 86
5, 382844, Note_off_c, 3, 57, 0
5, 382844, Note_off_c, 3, 45, 0
5, 382848, Note_on_c, 3, 57, 86
5, 382848, Note_on_c, 3, 45, 86
5, 383036, Note_off_c, 3, 57, 0
5, 383036, Note_off_c, 3, 45, 0
5, 383040, Note_on_c, 3, 57, 86
5, 383040, Note_on_c, 3, 45, 86
5, 383228, Note_off_c, 3, 57, 0
5, 383228, Note_off_c, 3, 45, 0
5, 383232, Note_on_c, 3, 45, 86
5, 383420, Note_off_c, 3, 45, 0
5, 383424, Note_on_c, 3, 45, 86
5, 383612, Note_off_c, 3, 45, 0
5, 383616, Note_on_c, 3, 45, 86
5, 383804, Note_off_c, 3, 45, 0
5, 383808, Note_on_c, 3, 45, 86
5, 383996, Note_off_c, 3, 45, 0
5, 384000, Note_on_c, 3, 57, 60
5, 384000, Note_on_c, 3, 54, 60
5, 384188, Note_off_c, 3, 57, 0
5, 384188, Note_off_c, 3, 54, 0
5, 384192, Note_on_c, 3, 57, 60
5, 384192, Note_on_c, 3, 54, 60
5, 384380, Note_off_c, 3, 57, 0
5, 384380, Note_off_c, 3, 54, 0
5, 384384, Note_on_c, 3, 57, 60
5, 384384, Note_on_c, 3, 54, 60
5, 384572, Note_off_c, 3, 57, 0
5, 384572, Note_off_c, 3, 54, 0
5, 384576, Note_on_c, 3, 57, 60
5, 384576, Note_on_c, 3, 54, 60
5, 384764, Note_off_c, 3, 57, 0
5, 384764, Note_off_c, 3, 54, 0
5, 384768, Note_on_c, 3, 57, 60
5, 384768, Note_on_c, 3, 54, 60
5, 384956, Note_off_c, 3, 57, 0
5, 384956, Note_off_c, 3, 54, 0
5, 384960, Note_on_c, 3, 62, 60
5, 384960, Note_on_c, 3, 54, 60
5, 385148, Note_off_c, 3, 62, 0
5, 385148, Note_off_c, 3, 54, 0
5, 385152, Note_on_c, 3, 62, 60
5, 385152, Note_on_c, 3, 54, 60
5, 385340, Note_off_c, 3, 62, 0
5, 385340, Note_off_c, 3, 54, 0
5, 385344, Note_on_c, 3, 62, 60
5, 385344, Note_on_c, 3, 54, 60
5, 385532, Note_off_c, 3, 62, 0
5, 385532, Note_off_c, 3, 54, 0
5, 385536, Note_on_c, 3, 62, 60
5, 385536, Note_on_c, 3, 55, 60
5, 385724, Note_off_c, 3, 62, 0
5, 385724, Note_off_c, 3, 55, 0
5, 385728, Note_on_c, 3, 62, 60
5, 385728, Note_on_c, 3, 55, 60
5, 385916, Note_off_c, 3, 62, 0
5, 385916, Note_off_c, 3, 55, 0
5, 385920, Note_on_c, 3, 62, 60
5, 385920, Note_on_c, 3, 55, 60
5, 386108, Note_off_c, 3, 62, 0
5, 386108, Note_off_c, 3, 55, 0
5, 386112, Note_on_c, 3, 62, 60
5, 386112, Note_on_c, 3, 55, 60
5, 386300, Note_off_c, 3, 62, 0
5, 386300, Note_off_c, 3, 55, 0
5, 386304, Note_on_c, 3, 62, 60
5, 386304, Note_on_c, 3, 55, 60
5, 386492, Note_off_c, 3, 62, 0
5, 386492, Note_off_c, 3, 55, 0
5, 386496, Note_on_c, 3, 62, 60
5, 386496, Note_on_c, 3, 55, 60
5, 386684, Note_off_c, 3, 62, 0
5, 386684, Note_off_c, 3, 55, 0
5, 386688, Note_on_c, 3, 62, 60
5, 386688, Note_on_c, 3, 55, 60
5, 386876, Note_off_c, 3, 62, 0
5, 386876, Note_off_c, 3, 55, 0
5, 386880, Note_on_c, 3, 62, 60
5, 386880, Note_on_c, 3, 55, 60
5, 387068, Note_off_c, 3, 62, 0
5, 387068, Note_off_c, 3, 55, 0
5, 387072, Note_on_c, 3, 55, 86
5, 387072, Note_on_c, 3, 50, 86
5, 387072, Note_on_c, 3, 43, 86
5, 387452, Note_off_c, 3, 55, 0
5, 387452, Note_off_c, 3, 50, 0
5, 387452, Note_off_c, 3, 43, 0
5, 388608, Note_on_c, 3, 56, 86
5, 388608, Note_on_c, 3, 44, 86
5, 388796, Note_off_c, 3, 56, 0
5, 388796, Note_off_c, 3, 44, 0
5, 388800, Note_on_c, 3, 56, 86
5, 388800, Note_on_c, 3, 44, 86
5, 388988, Note_off_c, 3, 56, 0
5, 388988, Note_off_c, 3, 44, 0
5, 388992, Note_on_c, 3, 56, 86
5, 388992, Note_on_c, 3, 44, 86
5, 389180, Note_off_c, 3, 56, 0
5, 389180, Note_off_c, 3, 44, 0
5, 389184, Note_on_c, 3, 56, 86
5, 389184, Note_on_c, 3, 44, 86
5, 389372, Note_off_c, 3, 56, 0
5, 389372, Note_off_c, 3, 44, 0
5, 389376, Note_on_c, 3, 56, 86
5, 389376, Note_on_c, 3, 44, 86
5, 389564, Note_off_c, 3, 56, 0
5, 389564, Note_off_c, 3, 44, 0
5, 389568, Note_on_c, 3, 56, 86
5, 389568, Note_on_c, 3, 44, 86
5, 389756, Note_off_c, 3, 56, 0
5, 389756, Note_off_c, 3, 44, 0
5, 389760, Note_on_c, 3, 56, 86
5, 389760, Note_on_c, 3, 44, 86
5, 389948, Note_off_c, 3, 56, 0
5, 389948, Note_off_c, 3, 44, 0
5, 389952, Note_on_c, 3, 56, 86
5, 389952, Note_on_c, 3, 44, 86
5, 390140, Note_off_c, 3, 56, 0
5, 390140, Note_off_c, 3, 44, 0
5, 390144, Note_on_c, 3, 57, 86
5, 390144, Note_on_c, 3, 45, 86
5, 390524, Note_off_c, 3, 57, 0
5, 390524, Note_off_c, 3, 45, 0
5, 391680, Note_on_c, 3, 45, 86
5, 391868, Note_off_c, 3, 45, 0
5, 391872, Note_on_c, 3, 45, 86
5, 392060, Note_off_c, 3, 45, 0
5, 392064, Note_on_c, 3, 45, 86
5, 392252, Note_off_c, 3, 45, 0
5, 392256, Note_on_c, 3, 45, 86
5, 392444, Note_off_c, 3, 45, 0
5, 392448, Note_on_c, 3, 45, 86
5, 392448, Note_on_c, 3, 33, 86
5, 392636, Note_off_c, 3, 45, 0
5, 392636, Note_off_c, 3, 33, 0
5, 392640, Note_on_c, 3, 45, 86
5, 392640, Note_on_c, 3, 33, 86
5, 392828, Note_off_c, 3, 45, 0
5, 392828, Note_off_c, 3, 33, 0
5, 392832, Note_on_c, 3, 45, 86
5, 392832, Note_on_c, 3, 33, 86
5, 393020, Note_off_c, 3, 45, 0
5, 393020, Note_off_c, 3, 33, 0
5, 393024, Note_on_c, 3, 45, 86
5, 393024, Note_on_c, 3, 33, 86
5, 393212, Note_off_c, 3, 45, 0
5, 393212, Note_off_c, 3, 33, 0
5, 393216, Note_on_c, 3, 50, 86
5, 393216, Note_on_c, 3, 38, 86
5, 393596, Note_off_c, 3, 50, 0
5, 393596, Note_off_c, 3, 38, 0
5, 393600, Note_on_c, 3, 57, 86
5, 393600, Note_on_c, 3, 45, 86
5, 394172, Note_off_c, 3, 57, 0
5, 394172, Note_off_c, 3, 45, 0
5, 394176, Note_on_c, 3, 62, 90
5, 394268, Note_off_c, 3, 62, 0
5, 394272, Note_on_c, 3, 57, 82
5, 394364, Note_off_c, 3, 57, 0
5, 394368, Note_on_c, 3, 54, 86
5, 394940, Note_off_c, 3, 54, 0
5, 394944, Note_on_c, 3, 57, 90
5, 395036, Note_off_c, 3, 57, 0
5, 395040, Note_on_c, 3, 54, 82
5, 395132, Note_off_c, 3, 54, 0
5, 395136, Note_on_c, 3, 50, 86
5, 395708, Note_off_c, 3, 50, 0
5, 395712, Note_on_c, 3, 54, 86
5, 395900, Note_off_c, 3, 54, 0
5, 395904, Note_on_c, 3, 50, 86
5, 396092, Note_off_c, 3, 50, 0
5, 396096, Note_on_c, 3, 54, 86
5, 396284, Note_off_c, 3, 54, 0
5, 396288, Note_on_c, 3, 50, 86
5, 396668, Note_off_c, 3, 50, 0
5, 396672, Note_on_c, 3, 62, 86
5, 396672, Note_on_c, 3, 50, 86
5, 397052, Note_off_c, 3, 62, 0
5, 397052, Note_off_c, 3, 50, 0
5, 397056, Note_on_c, 3, 62, 86
5, 397056, Note_on_c, 3, 50, 86
5, 397436, Note_off_c, 3, 62, 0
5, 397436, Note_off_c, 3, 50, 0
5, 397436, End_track
0, 0, End_of_file
