0, 0, Header, 1, 17, 384
1, 0, Start_track
1, 0, Time_signature, 3, 2, 96, 8
1, 0, Sequencer_specific, 3, 0, 0, 65
1, 0, Tempo, 535714
1, 0, End_track
2, 0, Start_track
2, 0, Title_t, "Mozart"
2, 0, Control_c, 0, 0, 0
2, 0, Program_c, 0, 73
2, 0, Control_c, 0, 7, 80
2, 0, Control_c, 0, 10, 84
2, 0, Control_c, 0, 91, 44
2, 0, Control_c, 0, 93, 37
2, 0, Key_signature, 1, "major"
2, 0, Control_c, 0, 121, 0
2, 144, Control_c, 0, 10, 73
2, 192, Control_c, 0, 91, 63
2, 240, Control_c, 0, 93, 40
2, 288, Program_c, 0, 73
2, 336, Control_c, 0, 1, 30
2, 1152, Note_on_c, 0, 86, 60
2, 1524, Note_off_c, 0, 86, 0
2, 1536, Note_on_c, 0, 86, 60
2, 1908, Note_off_c, 0, 86, 0
2, 1920, Note_on_c, 0, 86, 60
2, 2292, Note_off_c, 0, 86, 0
2, 2304, Note_on_c, 0, 86, 60
2, 2492, Note_off_c, 0, 86, 0
2, 2496, Note_on_c, 0, 83, 60
2, 2684, Note_off_c, 0, 83, 0
2, 2688, Note_on_c, 0, 79, 60
2, 2876, Note_off_c, 0, 79, 0
2, 2880, Note_on_c, 0, 74, 60
2, 3068, Note_off_c, 0, 74, 0
2, 3072, Note_on_c, 0, 86, 60
2, 3260, Note_off_c, 0, 86, 0
2, 3264, Note_on_c, 0, 83, 60
2, 3452, Note_off_c, 0, 83, 0
2, 3456, Note_on_c, 0, 84, 60
2, 3644, Note_off_c, 0, 84, 0
2, 3648, Note_on_c, 0, 81, 60
2, 3836, Note_off_c, 0, 81, 0
2, 3840, Note_on_c, 0, 78, 60
2, 4028, Note_off_c, 0, 78, 0
2, 4032, Note_on_c, 0, 74, 60
2, 4220, Note_off_c, 0, 74, 0
2, 4224, Note_on_c, 0, 84, 60
2, 4412, Note_off_c, 0, 84, 0
2, 4416, Note_on_c, 0, 81, 60
2, 4604, Note_off_c, 0, 81, 0
2, 4608, Note_on_c, 0, 79, 60
2, 5180, Note_off_c, 0, 79, 0
2, 5184, Note_on_c, 0, 81, 60
2, 5276, Note_off_c, 0, 81, 0
2, 5280, Note_on_c, 0, 83, 60
2, 5372, Note_off_c, 0, 83, 0
2, 5376, Note_on_c, 0, 81, 60
2, 5756, Note_off_c, 0, 81, 0
2, 5952, Note_on_c, 0, 84, 60
2, 6140, Note_off_c, 0, 84, 0
2, 6144, Note_on_c, 0, 84, 60
2, 6332, Note_off_c, 0, 84, 0
2, 6336, Note_on_c, 0, 83, 60
2, 6524, Note_off_c, 0, 83, 0
2, 6528, Note_on_c, 0, 83, 60
2, 6716, Note_off_c, 0, 83, 0
2, 6720, Note_on_c, 0, 81, 60
2, 6908, Note_off_c, 0, 81, 0
2, 6912, Note_on_c, 0, 85, 60
2, 7100, Note_off_c, 0, 85, 0
2, 7104, Note_on_c, 0, 86, 60
2, 7292, Note_off_c, 0, 86, 0
2, 7296, Note_on_c, 0, 84, 60
2, 7484, Note_off_c, 0, 84, 0
2, 7488, Note_on_c, 0, 83, 60
2, 7676, Note_off_c, 0, 83, 0
2, 7680, Note_on_c, 0, 81, 60
2, 7868, Note_off_c, 0, 81, 0
2, 7872, Note_on_c, 0, 79, 60
2, 8060, Note_off_c, 0, 79, 0
2, 8064, Note_on_c, 0, 87, 60
2, 8252, Note_off_c, 0, 87, 0
2, 8256, Note_on_c, 0, 88, 60
2, 8444, Note_off_c, 0, 88, 0
2, 8448, Note_on_c, 0, 86, 60
2, 8636, Note_off_c, 0, 86, 0
2, 8640, Note_on_c, 0, 84, 60
2, 8828, Note_off_c, 0, 84, 0
2, 8832, Note_on_c, 0, 83, 60
2, 9020, Note_off_c, 0, 83, 0
2, 9024, Note_on_c, 0, 81, 60
2, 9212, Note_off_c, 0, 81, 0
2, 9216, Note_on_c, 0, 79, 60
2, 9404, Note_off_c, 0, 79, 0
2, 9408, Note_on_c, 0, 78, 60
2, 9596, Note_off_c, 0, 78, 0
2, 9600, Note_on_c, 0, 76, 60
2, 9788, Note_off_c, 0, 76, 0
2, 9792, Note_on_c, 0, 74, 60
2, 9980, Note_off_c, 0, 74, 0
2, 9984, Note_on_c, 0, 84, 60
2, 10172, Note_off_c, 0, 84, 0
2, 10176, Note_on_c, 0, 81, 60
2, 10364, Note_off_c, 0, 81, 0
2, 10368, Note_on_c, 0, 86, 60
2, 10740, Note_off_c, 0, 86, 0
2, 10752, Note_on_c, 0, 86, 60
2, 11124, Note_off_c, 0, 86, 0
2, 11136, Note_on_c, 0, 86, 60
2, 11508, Note_off_c, 0, 86, 0
2, 11520, Note_on_c, 0, 86, 60
2, 11900, Note_off_c, 0, 86, 0
2, 41472, Note_on_c, 0, 79, 60
2, 41660, Note_off_c, 0, 79, 0
2, 41664, Note_on_c, 0, 67, 70
2, 42044, Note_off_c, 0, 67, 0
2, 42048, Note_on_c, 0, 69, 69
2, 42140, Note_off_c, 0, 69, 0
2, 42144, Note_on_c, 0, 71, 67
2, 42236, Note_off_c, 0, 71, 0
2, 42240, Note_on_c, 0, 72, 67
2, 42332, Note_off_c, 0, 72, 0
2, 42336, Note_on_c, 0, 74, 66
2, 42428, Note_off_c, 0, 74, 0
2, 42432, Note_on_c, 0, 76, 64
2, 42524, Note_off_c, 0, 76, 0
2, 42528, Note_on_c, 0, 78, 63
2, 42620, Note_off_c, 0, 78, 0
2, 42624, Note_on_c, 0, 79, 60
2, 42716, Note_off_c, 0, 79, 0
2, 42720, Note_on_c, 0, 81, 60
2, 42812, Note_off_c, 0, 81, 0
2, 42816, Note_on_c, 0, 83, 60
2, 42908, Note_off_c, 0, 83, 0
2, 42912, Note_on_c, 0, 84, 60
2, 43004, Note_off_c, 0, 84, 0
2, 43008, Note_on_c, 0, 86, 60
2, 43388, Note_off_c, 0, 86, 0
2, 43584, Note_on_c, 0, 83, 60
2, 43628, Note_off_c, 0, 83, 0
2, 43632, Note_on_c, 0, 84, 60
2, 43676, Note_off_c, 0, 84, 0
2, 43680, Note_on_c, 0, 81, 60
2, 43724, Note_off_c, 0, 81, 0
2, 43728, Note_on_c, 0, 83, 60
2, 43772, Note_off_c, 0, 83, 0
2, 43776, Note_on_c, 0, 81, 60
2, 43964, Note_off_c, 0, 81, 0
2, 43968, Note_on_c, 0, 62, 75
2, 44348, Note_off_c, 0, 62, 0
2, 44352, Note_on_c, 0, 64, 73
2, 44444, Note_off_c, 0, 64, 0
2, 44448, Note_on_c, 0, 66, 72
2, 44540, Note_off_c, 0, 66, 0
2, 44544, Note_on_c, 0, 67, 70
2, 44636, Note_off_c, 0, 67, 0
2, 44640, Note_on_c, 0, 69, 69
2, 44732, Note_off_c, 0, 69, 0
2, 44736, Note_on_c, 0, 71, 67
2, 44828, Note_off_c, 0, 71, 0
2, 44832, Note_on_c, 0, 73, 67
2, 44924, Note_off_c, 0, 73, 0
2, 44928, Note_on_c, 0, 74, 66
2, 45020, Note_off_c, 0, 74, 0
2, 45024, Note_on_c, 0, 76, 64
2, 45116, Note_off_c, 0, 76, 0
2, 45120, Note_on_c, 0, 78, 63
2, 45212, Note_off_c, 0, 78, 0
2, 45216, Note_on_c, 0, 79, 61
2, 45308, Note_off_c, 0, 79, 0
2, 45312, Note_on_c, 0, 81, 60
2, 45404, Note_off_c, 0, 81, 0
2, 45408, Note_on_c, 0, 83, 60
2, 45500, Note_off_c, 0, 83, 0
2, 45504, Note_on_c, 0, 85, 60
2, 45596, Note_off_c, 0, 85, 0
2, 45600, Note_on_c, 0, 86, 60
2, 45692, Note_off_c, 0, 86, 0
2, 45696, Note_on_c, 0, 85, 60
2, 45788, Note_off_c, 0, 85, 0
2, 45792, Note_on_c, 0, 86, 60
2, 45884, Note_off_c, 0, 86, 0
2, 45888, Note_on_c, 0, 81, 60
2, 45980, Note_off_c, 0, 81, 0
2, 45984, Note_on_c, 0, 78, 60
2, 46076, Note_off_c, 0, 78, 0
2, 46080, Note_on_c, 0, 79, 60
2, 46268, Note_off_c, 0, 79, 0
2, 46272, Note_on_c, 0, 67, 70
2, 46652, Note_off_c, 0, 67, 0
2, 46656, Note_on_c, 0, 69, 69
2, 46748, Note_off_c, 0, 69, 0
2, 46752, Note_on_c, 0, 71, 67
2, 46844, Note_off_c, 0, 71, 0
2, 46848, Note_on_c, 0, 73, 67
2, 46940, Note_off_c, 0, 73, 0
2, 46944, Note_on_c, 0, 74, 66
2, 47036, Note_off_c, 0, 74, 0
2, 47040, Note_on_c, 0, 76, 64
2, 47132, Note_off_c, 0, 76, 0
2, 47136, Note_on_c, 0, 78, 63
2, 47228, Note_off_c, 0, 78, 0
2, 47232, Note_on_c, 0, 79, 61
2, 47324, Note_off_c, 0, 79, 0
2, 47328, Note_on_c, 0, 76, 63
2, 47420, Note_off_c, 0, 76, 0
2, 47424, Note_on_c, 0, 85, 60
2, 47516, Note_off_c, 0, 85, 0
2, 47520, Note_on_c, 0, 81, 60
2, 47612, Note_off_c, 0, 81, 0
2, 47616, Note_on_c, 0, 88, 60
2, 47708, Note_off_c, 0, 88, 0
2, 47712, Note_on_c, 0, 86, 60
2, 47804, Note_off_c, 0, 86, 0
2, 47808, Note_on_c, 0, 85, 60
2, 47900, Note_off_c, 0, 85, 0
2, 47904, Note_on_c, 0, 83, 60
2, 47996, Note_off_c, 0, 83, 0
2, 48000, Note_on_c, 0, 81, 60
2, 48092, Note_off_c, 0, 81, 0
2, 48096, Note_on_c, 0, 79, 60
2, 48188, Note_off_c, 0, 79, 0
2, 48192, Note_on_c, 0, 78, 60
2, 48284, Note_off_c, 0, 78, 0
2, 48288, Note_on_c, 0, 76, 60
2, 48380, Note_off_c, 0, 76, 0
2, 48384, Note_on_c, 0, 78, 63
2, 48572, Note_off_c, 0, 78, 0
2, 48576, Note_on_c, 0, 86, 60
2, 48956, Note_off_c, 0, 86, 0
2, 48960, Note_on_c, 0, 84, 60
2, 49148, Note_off_c, 0, 84, 0
2, 49152, Note_on_c, 0, 83, 60
2, 49340, Note_off_c, 0, 83, 0
2, 49344, Note_on_c, 0, 82, 60
2, 49532, Note_off_c, 0, 82, 0
2, 49536, Note_on_c, 0, 83, 60
2, 49580, Note_off_c, 0, 83, 0
2, 49584, Note_on_c, 0, 85, 60
2, 49628, Note_off_c, 0, 85, 0
2, 49632, Note_on_c, 0, 82, 60
2, 49724, Note_off_c, 0, 82, 0
2, 49728, Note_on_c, 0, 83, 60
2, 49820, Note_off_c, 0, 83, 0
2, 49824, Note_on_c, 0, 85, 60
2, 49916, Note_off_c, 0, 85, 0
2, 49920, Note_on_c, 0, 86, 60
2, 50012, Note_off_c, 0, 86, 0
2, 50016, Note_on_c, 0, 85, 60
2, 50108, Note_off_c, 0, 85, 0
2, 50112, Note_on_c, 0, 83, 60
2, 50204, Note_off_c, 0, 83, 0
2, 50208, Note_on_c, 0, 81, 60
2, 50300, Note_off_c, 0, 81, 0
2, 50304, Note_on_c, 0, 79, 61
2, 50396, Note_off_c, 0, 79, 0
2, 50400, Note_on_c, 0, 78, 63
2, 50492, Note_off_c, 0, 78, 0
2, 50496, Note_on_c, 0, 76, 64
2, 50588, Note_off_c, 0, 76, 0
2, 50592, Note_on_c, 0, 74, 66
2, 50684, Note_off_c, 0, 74, 0
2, 50688, Note_on_c, 0, 69, 69
2, 51068, Note_off_c, 0, 69, 0
2, 51072, Note_on_c, 0, 76, 60
2, 51116, Note_off_c, 0, 76, 64
2, 51120, Note_on_c, 0, 78, 60
2, 51164, Note_off_c, 0, 78, 64
2, 51168, Note_on_c, 0, 76, 60
2, 51212, Note_off_c, 0, 76, 64
2, 51216, Note_on_c, 0, 78, 60
2, 51260, Note_off_c, 0, 78, 64
2, 51264, Note_on_c, 0, 76, 60
2, 51308, Note_off_c, 0, 76, 64
2, 51312, Note_on_c, 0, 78, 60
2, 51356, Note_off_c, 0, 78, 64
2, 51360, Note_on_c, 0, 76, 60
2, 51404, Note_off_c, 0, 76, 64
2, 51408, Note_on_c, 0, 78, 60
2, 51452, Note_off_c, 0, 78, 64
2, 51456, Note_on_c, 0, 76, 60
2, 51500, Note_off_c, 0, 76, 64
2, 51504, Note_on_c, 0, 78, 60
2, 51548, Note_off_c, 0, 78, 64
2, 51552, Note_on_c, 0, 76, 60
2, 51596, Note_off_c, 0, 76, 64
2, 51600, Note_on_c, 0, 78, 60
2, 51644, Note_off_c, 0, 78, 64
2, 51648, Note_on_c, 0, 74, 60
2, 51740, Note_off_c, 0, 74, 64
2, 51744, Note_on_c, 0, 76, 60
2, 51836, Note_off_c, 0, 76, 64
2, 51840, Note_on_c, 0, 74, 63
2, 52220, Note_off_c, 0, 74, 0
2, 54912, Note_on_c, 0, 81, 60
2, 55004, Note_off_c, 0, 81, 0
2, 55008, Note_on_c, 0, 78, 60
2, 55100, Note_off_c, 0, 78, 0
2, 55104, Note_on_c, 0, 79, 60
2, 55196, Note_off_c, 0, 79, 0
2, 55200, Note_on_c, 0, 76, 60
2, 55292, Note_off_c, 0, 76, 0
2, 55296, Note_on_c, 0, 74, 66
2, 55484, Note_off_c, 0, 74, 0
2, 55680, Note_on_c, 0, 76, 64
2, 55868, Note_off_c, 0, 76, 0
2, 56064, Note_on_c, 0, 78, 63
2, 56252, Note_off_c, 0, 78, 0
2, 56448, Note_on_c, 0, 81, 60
2, 56528, Note_on_c, 0, 79, 61
2, 56540, Note_off_c, 0, 81, 0
2, 56832, Note_on_c, 0, 76, 64
2, 56908, Note_off_c, 0, 79, 0
2, 57212, Note_off_c, 0, 76, 0
2, 59520, Note_on_c, 0, 76, 60
2, 59612, Note_off_c, 0, 76, 0
2, 59616, Note_on_c, 0, 75, 60
2, 59708, Note_off_c, 0, 75, 0
2, 59712, Note_on_c, 0, 76, 60
2, 59804, Note_off_c, 0, 76, 0
2, 59808, Note_on_c, 0, 75, 60
2, 59900, Note_off_c, 0, 75, 0
2, 59904, Note_on_c, 0, 76, 64
2, 60092, Note_off_c, 0, 76, 0
2, 60288, Note_on_c, 0, 78, 63
2, 60476, Note_off_c, 0, 78, 0
2, 60672, Note_on_c, 0, 79, 61
2, 60860, Note_off_c, 0, 79, 0
2, 61056, Note_on_c, 0, 81, 60
2, 61436, Note_off_c, 0, 81, 0
2, 61440, Note_on_c, 0, 78, 60
2, 61820, Note_off_c, 0, 78, 0
2, 61824, Note_on_c, 0, 86, 60
2, 61916, Note_off_c, 0, 86, 0
2, 61920, Note_on_c, 0, 85, 60
2, 62012, Note_off_c, 0, 85, 0
2, 62016, Note_on_c, 0, 86, 60
2, 62108, Note_off_c, 0, 86, 0
2, 62112, Note_on_c, 0, 84, 60
2, 62204, Note_off_c, 0, 84, 0
2, 62208, Note_on_c, 0, 82, 60
2, 62588, Note_off_c, 0, 82, 0
2, 62592, Note_on_c, 0, 83, 60
2, 62972, Note_off_c, 0, 83, 0
2, 62976, Note_on_c, 0, 83, 60
2, 63068, Note_off_c, 0, 83, 0
2, 63072, Note_on_c, 0, 82, 60
2, 63164, Note_off_c, 0, 82, 0
2, 63168, Note_on_c, 0, 83, 60
2, 63260, Note_off_c, 0, 83, 0
2, 63264, Note_on_c, 0, 81, 60
2, 63356, Note_off_c, 0, 81, 0
2, 63360, Note_on_c, 0, 78, 60
2, 63740, Note_off_c, 0, 78, 0
2, 63744, Note_on_c, 0, 79, 60
2, 64124, Note_off_c, 0, 79, 0
2, 64128, Note_on_c, 0, 79, 60
2, 64220, Note_off_c, 0, 79, 0
2, 64224, Note_on_c, 0, 78, 60
2, 64316, Note_off_c, 0, 78, 0
2, 64320, Note_on_c, 0, 79, 60
2, 64412, Note_off_c, 0, 79, 0
2, 64416, Note_on_c, 0, 78, 60
2, 64508, Note_off_c, 0, 78, 0
2, 64512, Note_on_c, 0, 76, 60
2, 64700, Note_off_c, 0, 76, 0
2, 64704, Note_on_c, 0, 83, 60
2, 64892, Note_off_c, 0, 83, 0
2, 64896, Note_on_c, 0, 81, 60
2, 65084, Note_off_c, 0, 81, 0
2, 65088, Note_on_c, 0, 79, 60
2, 65276, Note_off_c, 0, 79, 0
2, 65280, Note_on_c, 0, 78, 60
2, 65468, Note_off_c, 0, 78, 0
2, 65472, Note_on_c, 0, 76, 60
2, 65660, Note_off_c, 0, 76, 0
2, 65664, Note_on_c, 0, 74, 66
2, 66044, Note_off_c, 0, 74, 0
2, 66048, Note_on_c, 0, 73, 67
2, 66428, Note_off_c, 0, 73, 0
2, 68928, Note_on_c, 0, 69, 69
2, 69116, Note_off_c, 0, 69, 0
2, 69120, Note_on_c, 0, 74, 66
2, 69212, Note_off_c, 0, 74, 0
2, 69216, Note_on_c, 0, 69, 69
2, 69308, Note_off_c, 0, 69, 0
2, 69312, Note_on_c, 0, 78, 60
2, 69404, Note_off_c, 0, 78, 0
2, 69408, Note_on_c, 0, 74, 66
2, 69500, Note_off_c, 0, 74, 0
2, 69504, Note_on_c, 0, 73, 67
2, 69596, Note_off_c, 0, 73, 0
2, 69600, Note_on_c, 0, 69, 69
2, 69692, Note_off_c, 0, 69, 0
2, 69696, Note_on_c, 0, 76, 64
2, 69788, Note_off_c, 0, 76, 0
2, 69792, Note_on_c, 0, 73, 67
2, 69884, Note_off_c, 0, 73, 0
2, 69888, Note_on_c, 0, 74, 66
2, 69980, Note_off_c, 0, 74, 0
2, 69984, Note_on_c, 0, 69, 69
2, 70076, Note_off_c, 0, 69, 0
2, 70080, Note_on_c, 0, 78, 60
2, 70172, Note_off_c, 0, 78, 0
2, 70176, Note_on_c, 0, 74, 66
2, 70268, Note_off_c, 0, 74, 0
2, 70272, Note_on_c, 0, 76, 60
2, 70364, Note_off_c, 0, 76, 0
2, 70368, Note_on_c, 0, 69, 69
2, 70460, Note_off_c, 0, 69, 0
2, 70464, Note_on_c, 0, 79, 60
2, 70556, Note_off_c, 0, 79, 0
2, 70560, Note_on_c, 0, 76, 64
2, 70652, Note_off_c, 0, 76, 0
2, 70656, Note_on_c, 0, 88, 60
2, 70748, Note_off_c, 0, 88, 0
2, 70752, Note_on_c, 0, 86, 60
2, 70844, Note_off_c, 0, 86, 0
2, 70848, Note_on_c, 0, 85, 60
2, 70940, Note_off_c, 0, 85, 0
2, 70944, Note_on_c, 0, 83, 60
2, 71036, Note_off_c, 0, 83, 0
2, 71040, Note_on_c, 0, 81, 60
2, 71132, Note_off_c, 0, 81, 0
2, 71136, Note_on_c, 0, 79, 60
2, 71228, Note_off_c, 0, 79, 0
2, 71232, Note_on_c, 0, 78, 60
2, 71324, Note_off_c, 0, 78, 0
2, 71328, Note_on_c, 0, 76, 60
2, 71420, Note_off_c, 0, 76, 0
2, 71424, Note_on_c, 0, 74, 66
2, 71516, Note_off_c, 0, 74, 0
2, 71520, Note_on_c, 0, 69, 69
2, 71612, Note_off_c, 0, 69, 0
2, 71616, Note_on_c, 0, 78, 60
2, 71708, Note_off_c, 0, 78, 0
2, 71712, Note_on_c, 0, 74, 66
2, 71804, Note_off_c, 0, 74, 0
2, 71808, Note_on_c, 0, 73, 67
2, 71900, Note_off_c, 0, 73, 0
2, 71904, Note_on_c, 0, 69, 69
2, 71996, Note_off_c, 0, 69, 0
2, 72000, Note_on_c, 0, 76, 64
2, 72092, Note_off_c, 0, 76, 0
2, 72096, Note_on_c, 0, 73, 67
2, 72188, Note_off_c, 0, 73, 0
2, 72192, Note_on_c, 0, 74, 66
2, 72284, Note_off_c, 0, 74, 0
2, 72288, Note_on_c, 0, 69, 69
2, 72380, Note_off_c, 0, 69, 0
2, 72384, Note_on_c, 0, 78, 60
2, 72476, Note_off_c, 0, 78, 0
2, 72480, Note_on_c, 0, 74, 66
2, 72572, Note_off_c, 0, 74, 0
2, 72576, Note_on_c, 0, 76, 64
2, 72668, Note_off_c, 0, 76, 0
2, 72672, Note_on_c, 0, 69, 69
2, 72764, Note_off_c, 0, 69, 0
2, 72768, Note_on_c, 0, 79, 61
2, 72860, Note_off_c, 0, 79, 0
2, 72864, Note_on_c, 0, 76, 64
2, 72956, Note_off_c, 0, 76, 0
2, 72960, Note_on_c, 0, 88, 63
2, 73052, Note_off_c, 0, 88, 0
2, 73056, Note_on_c, 0, 86, 66
2, 73148, Note_off_c, 0, 86, 0
2, 73152, Note_on_c, 0, 85, 63
2, 73244, Note_off_c, 0, 85, 0
2, 73248, Note_on_c, 0, 83, 60
2, 73340, Note_off_c, 0, 83, 0
2, 73344, Note_on_c, 0, 81, 60
2, 73436, Note_off_c, 0, 81, 0
2, 73440, Note_on_c, 0, 79, 60
2, 73532, Note_off_c, 0, 79, 0
2, 73536, Note_on_c, 0, 78, 60
2, 73628, Note_off_c, 0, 78, 0
2, 73632, Note_on_c, 0, 76, 60
2, 73724, Note_off_c, 0, 76, 0
2, 73728, Note_on_c, 0, 78, 60
2, 73820, Note_off_c, 0, 78, 0
2, 73824, Note_on_c, 0, 76, 60
2, 73916, Note_off_c, 0, 76, 0
2, 73920, Note_on_c, 0, 81, 60
2, 74012, Note_off_c, 0, 81, 0
2, 74016, Note_on_c, 0, 78, 60
2, 74108, Note_off_c, 0, 78, 0
2, 74112, Note_on_c, 0, 86, 60
2, 74204, Note_off_c, 0, 86, 0
2, 74208, Note_on_c, 0, 85, 60
2, 74300, Note_off_c, 0, 85, 0
2, 74304, Note_on_c, 0, 83, 60
2, 74396, Note_off_c, 0, 83, 0
2, 74400, Note_on_c, 0, 81, 60
2, 74492, Note_off_c, 0, 81, 0
2, 74496, Note_on_c, 0, 79, 60
2, 74588, Note_off_c, 0, 79, 0
2, 74592, Note_on_c, 0, 78, 60
2, 74684, Note_off_c, 0, 78, 0
2, 74688, Note_on_c, 0, 76, 60
2, 74780, Note_off_c, 0, 76, 0
2, 74784, Note_on_c, 0, 74, 60
2, 74876, Note_off_c, 0, 74, 0
2, 74880, Note_on_c, 0, 83, 60
2, 75452, Note_off_c, 0, 83, 0
2, 80640, Note_on_c, 0, 76, 60
2, 81404, Note_off_c, 0, 76, 0
2, 81408, Note_on_c, 0, 78, 60
2, 81500, Note_off_c, 0, 78, 0
2, 81504, Note_on_c, 0, 76, 60
2, 81596, Note_off_c, 0, 76, 0
2, 81600, Note_on_c, 0, 78, 60
2, 81692, Note_off_c, 0, 78, 0
2, 81696, Note_on_c, 0, 76, 60
2, 81788, Note_off_c, 0, 76, 0
2, 81792, Note_on_c, 0, 76, 60
2, 82172, Note_off_c, 0, 76, 0
2, 82176, Note_on_c, 0, 78, 60
2, 82556, Note_off_c, 0, 78, 0
2, 82560, Note_on_c, 0, 79, 60
2, 82940, Note_off_c, 0, 79, 0
2, 82944, Note_on_c, 0, 80, 60
2, 82988, Note_off_c, 0, 80, 0
2, 82992, Note_on_c, 0, 81, 60
2, 83036, Note_off_c, 0, 81, 0
2, 83040, Note_on_c, 0, 83, 60
2, 83084, Note_off_c, 0, 83, 0
2, 83088, Note_on_c, 0, 81, 60
2, 83516, Note_off_c, 0, 81, 0
2, 83520, Note_on_c, 0, 79, 60
2, 83708, Note_off_c, 0, 79, 0
2, 83712, Note_on_c, 0, 78, 60
2, 84092, Note_off_c, 0, 78, 0
2, 84096, Note_on_c, 0, 81, 60
2, 84188, Note_off_c, 0, 81, 0
2, 84192, Note_on_c, 0, 79, 60
2, 84480, Note_off_c, 0, 79, 0
2, 84480, Note_on_c, 0, 78, 60
2, 84860, Note_off_c, 0, 78, 0
2, 84864, Note_on_c, 0, 76, 60
2, 85244, Note_off_c, 0, 76, 0
2, 85344, Note_on_c, 0, 74, 66
2, 85436, Note_off_c, 0, 74, 0
2, 85440, Note_on_c, 0, 76, 64
2, 85532, Note_off_c, 0, 76, 0
2, 85536, Note_on_c, 0, 78, 63
2, 85628, Note_off_c, 0, 78, 0
2, 85632, Note_on_c, 0, 79, 61
2, 85724, Note_off_c, 0, 79, 0
2, 85728, Note_on_c, 0, 81, 60
2, 85820, Note_off_c, 0, 81, 0
2, 85824, Note_on_c, 0, 83, 60
2, 85916, Note_off_c, 0, 83, 0
2, 85920, Note_on_c, 0, 85, 60
2, 86012, Note_off_c, 0, 85, 0
2, 86016, Note_on_c, 0, 86, 60
2, 86108, Note_off_c, 0, 86, 0
2, 86112, Note_on_c, 0, 88, 60
2, 86204, Note_off_c, 0, 88, 0
2, 86208, Note_on_c, 0, 90, 60
2, 86396, Note_off_c, 0, 90, 0
2, 86496, Note_on_c, 0, 71, 67
2, 86588, Note_off_c, 0, 71, 0
2, 86592, Note_on_c, 0, 73, 67
2, 86684, Note_off_c, 0, 73, 0
2, 86688, Note_on_c, 0, 74, 66
2, 86780, Note_off_c, 0, 74, 0
2, 86784, Note_on_c, 0, 76, 64
2, 86876, Note_off_c, 0, 76, 0
2, 86880, Note_on_c, 0, 78, 63
2, 86972, Note_off_c, 0, 78, 0
2, 86976, Note_on_c, 0, 79, 61
2, 87068, Note_off_c, 0, 79, 0
2, 87072, Note_on_c, 0, 81, 60
2, 87164, Note_off_c, 0, 81, 0
2, 87168, Note_on_c, 0, 82, 60
2, 87356, Note_off_c, 0, 82, 0
2, 87360, Note_on_c, 0, 83, 60
2, 87548, Note_off_c, 0, 83, 0
2, 87648, Note_on_c, 0, 67, 70
2, 87740, Note_off_c, 0, 67, 0
2, 87744, Note_on_c, 0, 69, 69
2, 87836, Note_off_c, 0, 69, 0
2, 87840, Note_on_c, 0, 71, 67
2, 87932, Note_off_c, 0, 71, 0
2, 87936, Note_on_c, 0, 73, 67
2, 88028, Note_off_c, 0, 73, 0
2, 88032, Note_on_c, 0, 74, 66
2, 88124, Note_off_c, 0, 74, 0
2, 88128, Note_on_c, 0, 76, 64
2, 88220, Note_off_c, 0, 76, 0
2, 88224, Note_on_c, 0, 78, 63
2, 88316, Note_off_c, 0, 78, 0
2, 88320, Note_on_c, 0, 79, 61
2, 88412, Note_off_c, 0, 79, 0
2, 88416, Note_on_c, 0, 83, 60
2, 88508, Note_off_c, 0, 83, 0
2, 88512, Note_on_c, 0, 81, 60
2, 88604, Note_off_c, 0, 81, 0
2, 88608, Note_on_c, 0, 79, 60
2, 88700, Note_off_c, 0, 79, 0
2, 88704, Note_on_c, 0, 79, 60
2, 88796, Note_off_c, 0, 79, 0
2, 88800, Note_on_c, 0, 78, 60
2, 88892, Note_off_c, 0, 78, 0
2, 88896, Note_on_c, 0, 76, 60
2, 88988, Note_off_c, 0, 76, 0
2, 88992, Note_on_c, 0, 74, 60
2, 89084, Note_off_c, 0, 74, 0
2, 89088, Note_on_c, 0, 76, 60
2, 89132, Note_off_c, 0, 76, 0
2, 89136, Note_on_c, 0, 78, 60
2, 89180, Note_off_c, 0, 78, 0
2, 89184, Note_on_c, 0, 76, 60
2, 89228, Note_off_c, 0, 76, 0
2, 89232, Note_on_c, 0, 78, 60
2, 89276, Note_off_c, 0, 78, 0
2, 89280, Note_on_c, 0, 76, 60
2, 89324, Note_off_c, 0, 76, 0
2, 89328, Note_on_c, 0, 78, 60
2, 89372, Note_off_c, 0, 78, 0
2, 89376, Note_on_c, 0, 76, 60
2, 89420, Note_off_c, 0, 76, 0
2, 89424, Note_on_c, 0, 78, 60
2, 89468, Note_off_c, 0, 78, 0
2, 89472, Note_on_c, 0, 76, 60
2, 89516, Note_off_c, 0, 76, 0
2, 89520, Note_on_c, 0, 78, 60
2, 89564, Note_off_c, 0, 78, 0
2, 89568, Note_on_c, 0, 76, 60
2, 89612, Note_off_c, 0, 76, 0
2, 89616, Note_on_c, 0, 78, 60
2, 89660, Note_off_c, 0, 78, 0
2, 89664, Note_on_c, 0, 74, 60
2, 89756, Note_off_c, 0, 74, 64
2, 89760, Note_on_c, 0, 76, 60
2, 89852, Note_off_c, 0, 76, 64
2, 89952, Note_on_c, 0, 74, 66
2, 90044, Note_off_c, 0, 74, 0
2, 90048, Note_on_c, 0, 76, 64
2, 90140, Note_off_c, 0, 76, 0
2, 90144, Note_on_c, 0, 78, 63
2, 90236, Note_off_c, 0, 78, 0
2, 90240, Note_on_c, 0, 79, 61
2, 90332, Note_off_c, 0, 79, 0
2, 90336, Note_on_c, 0, 81, 60
2, 90428, Note_off_c, 0, 81, 0
2, 90432, Note_on_c, 0, 83, 60
2, 90524, Note_off_c, 0, 83, 0
2, 90528, Note_on_c, 0, 85, 60
2, 90620, Note_off_c, 0, 85, 0
2, 90624, Note_on_c, 0, 85, 60
2, 90716, Note_off_c, 0, 85, 0
2, 90720, Note_on_c, 0, 86, 60
2, 90812, Note_off_c, 0, 86, 0
2, 90816, Note_on_c, 0, 85, 60
2, 90908, Note_off_c, 0, 85, 0
2, 90912, Note_on_c, 0, 86, 60
2, 91004, Note_off_c, 0, 86, 0
2, 91104, Note_on_c, 0, 71, 67
2, 91196, Note_off_c, 0, 71, 0
2, 91200, Note_on_c, 0, 73, 67
2, 91292, Note_off_c, 0, 73, 0
2, 91296, Note_on_c, 0, 74, 66
2, 91388, Note_off_c, 0, 74, 0
2, 91392, Note_on_c, 0, 76, 64
2, 91484, Note_off_c, 0, 76, 0
2, 91488, Note_on_c, 0, 78, 63
2, 91580, Note_off_c, 0, 78, 0
2, 91584, Note_on_c, 0, 79, 61
2, 91676, Note_off_c, 0, 79, 0
2, 91680, Note_on_c, 0, 81, 60
2, 91772, Note_off_c, 0, 81, 0
2, 91776, Note_on_c, 0, 82, 60
2, 91868, Note_off_c, 0, 82, 0
2, 91872, Note_on_c, 0, 83, 60
2, 91952, Note_on_c, 0, 82, 60
2, 91964, Note_off_c, 0, 83, 0
2, 92044, Note_off_c, 0, 82, 0
2, 92064, Note_on_c, 0, 83, 60
2, 92156, Note_off_c, 0, 83, 0
2, 92256, Note_on_c, 0, 67, 70
2, 92348, Note_off_c, 0, 67, 0
2, 92352, Note_on_c, 0, 69, 69
2, 92444, Note_off_c, 0, 69, 0
2, 92448, Note_on_c, 0, 71, 67
2, 92540, Note_off_c, 0, 71, 0
2, 92544, Note_on_c, 0, 73, 67
2, 92636, Note_off_c, 0, 73, 0
2, 92640, Note_on_c, 0, 74, 66
2, 92732, Note_off_c, 0, 74, 0
2, 92736, Note_on_c, 0, 76, 64
2, 92828, Note_off_c, 0, 76, 0
2, 92832, Note_on_c, 0, 78, 63
2, 92924, Note_off_c, 0, 78, 0
2, 92928, Note_on_c, 0, 79, 61
2, 93020, Note_off_c, 0, 79, 0
2, 93024, Note_on_c, 0, 83, 60
2, 93116, Note_off_c, 0, 83, 0
2, 93120, Note_on_c, 0, 81, 60
2, 93212, Note_off_c, 0, 81, 0
2, 93216, Note_on_c, 0, 79, 60
2, 93308, Note_off_c, 0, 79, 0
2, 93312, Note_on_c, 0, 79, 60
2, 93404, Note_off_c, 0, 79, 0
2, 93408, Note_on_c, 0, 78, 63
2, 93500, Note_off_c, 0, 78, 0
2, 93504, Note_on_c, 0, 76, 64
2, 93596, Note_off_c, 0, 76, 0
2, 93600, Note_on_c, 0, 74, 66
2, 93692, Note_off_c, 0, 74, 0
2, 93696, Note_on_c, 0, 76, 60
2, 93740, Note_off_c, 0, 76, 0
2, 93744, Note_on_c, 0, 78, 60
2, 93788, Note_off_c, 0, 78, 0
2, 93792, Note_on_c, 0, 76, 60
2, 93836, Note_off_c, 0, 76, 0
2, 93840, Note_on_c, 0, 78, 60
2, 93884, Note_off_c, 0, 78, 0
2, 93888, Note_on_c, 0, 76, 60
2, 93932, Note_off_c, 0, 76, 0
2, 93936, Note_on_c, 0, 78, 60
2, 93980, Note_off_c, 0, 78, 0
2, 93984, Note_on_c, 0, 76, 60
2, 94028, Note_off_c, 0, 76, 0
2, 94032, Note_on_c, 0, 78, 60
2, 94076, Note_off_c, 0, 78, 0
2, 94080, Note_on_c, 0, 76, 60
2, 94124, Note_off_c, 0, 76, 0
2, 94128, Note_on_c, 0, 78, 60
2, 94172, Note_off_c, 0, 78, 0
2, 94176, Note_on_c, 0, 76, 60
2, 94220, Note_off_c, 0, 76, 0
2, 94224, Note_on_c, 0, 78, 60
2, 94268, Note_off_c, 0, 78, 0
2, 94272, Note_on_c, 0, 74, 60
2, 94364, Note_off_c, 0, 74, 64
2, 94368, Note_on_c, 0, 76, 60
2, 94460, Note_off_c, 0, 76, 64
2, 94464, Note_on_c, 0, 74, 66
2, 95036, Note_off_c, 0, 74, 0
2, 96960, Note_on_c, 0, 62, 75
2, 97052, Note_off_c, 0, 62, 0
2, 97056, Note_on_c, 0, 64, 73
2, 97148, Note_off_c, 0, 64, 0
2, 97152, Note_on_c, 0, 66, 72
2, 97244, Note_off_c, 0, 66, 0
2, 97248, Note_on_c, 0, 69, 69
2, 97340, Note_off_c, 0, 69, 0
2, 97344, Note_on_c, 0, 67, 70
2, 97436, Note_off_c, 0, 67, 0
2, 97440, Note_on_c, 0, 71, 67
2, 97532, Note_off_c, 0, 71, 0
2, 97536, Note_on_c, 0, 69, 69
2, 97628, Note_off_c, 0, 69, 0
2, 97632, Note_on_c, 0, 72, 67
2, 97724, Note_off_c, 0, 72, 0
2, 97728, Note_on_c, 0, 71, 67
2, 97820, Note_off_c, 0, 71, 0
2, 97824, Note_on_c, 0, 74, 66
2, 97916, Note_off_c, 0, 74, 0
2, 97920, Note_on_c, 0, 72, 67
2, 98012, Note_off_c, 0, 72, 0
2, 98016, Note_on_c, 0, 76, 64
2, 98108, Note_off_c, 0, 76, 0
2, 98112, Note_on_c, 0, 74, 66
2, 98204, Note_off_c, 0, 74, 0
2, 98208, Note_on_c, 0, 78, 63
2, 98300, Note_off_c, 0, 78, 0
2, 98304, Note_on_c, 0, 76, 64
2, 98396, Note_off_c, 0, 76, 0
2, 98400, Note_on_c, 0, 79, 61
2, 98492, Note_off_c, 0, 79, 0
2, 98496, Note_on_c, 0, 78, 63
2, 98588, Note_off_c, 0, 78, 0
2, 98592, Note_on_c, 0, 81, 60
2, 98684, Note_off_c, 0, 81, 0
2, 98688, Note_on_c, 0, 79, 61
2, 98780, Note_off_c, 0, 79, 0
2, 98784, Note_on_c, 0, 83, 60
2, 98876, Note_off_c, 0, 83, 0
2, 98880, Note_on_c, 0, 81, 60
2, 98972, Note_off_c, 0, 81, 0
2, 98976, Note_on_c, 0, 84, 60
2, 99068, Note_off_c, 0, 84, 0
2, 99072, Note_on_c, 0, 83, 60
2, 99152, Note_off_c, 0, 83, 0
2, 99168, Note_on_c, 0, 86, 60
2, 99452, Note_off_c, 0, 86, 0
2, 99456, Note_on_c, 0, 86, 60
2, 99828, Note_off_c, 0, 86, 0
2, 99840, Note_on_c, 0, 86, 60
2, 100212, Note_off_c, 0, 86, 0
2, 100224, Note_on_c, 0, 86, 60
2, 100412, Note_off_c, 0, 86, 0
2, 100416, Note_on_c, 0, 83, 60
2, 100604, Note_off_c, 0, 83, 0
2, 100608, Note_on_c, 0, 79, 61
2, 100796, Note_off_c, 0, 79, 0
2, 100800, Note_on_c, 0, 74, 66
2, 100988, Note_off_c, 0, 74, 0
2, 100992, Note_on_c, 0, 86, 60
2, 101084, Note_off_c, 0, 86, 0
2, 101088, Note_on_c, 0, 84, 60
2, 101180, Note_off_c, 0, 84, 0
2, 101184, Note_on_c, 0, 86, 60
2, 101276, Note_off_c, 0, 86, 0
2, 101280, Note_on_c, 0, 83, 60
2, 101372, Note_off_c, 0, 83, 0
2, 101376, Note_on_c, 0, 84, 63
2, 101564, Note_off_c, 0, 84, 0
2, 101568, Note_on_c, 0, 81, 66
2, 101756, Note_off_c, 0, 81, 0
2, 101760, Note_on_c, 0, 78, 60
2, 101948, Note_off_c, 0, 78, 0
2, 101952, Note_on_c, 0, 74, 60
2, 102140, Note_off_c, 0, 74, 0
2, 102144, Note_on_c, 0, 84, 60
2, 102236, Note_off_c, 0, 84, 0
2, 102240, Note_on_c, 0, 83, 60
2, 102332, Note_off_c, 0, 83, 0
2, 102336, Note_on_c, 0, 84, 60
2, 102428, Note_off_c, 0, 84, 0
2, 102432, Note_on_c, 0, 81, 60
2, 102524, Note_off_c, 0, 81, 0
2, 102528, Note_on_c, 0, 79, 60
2, 103100, Note_off_c, 0, 79, 0
2, 103104, Note_on_c, 0, 81, 60
2, 103196, Note_off_c, 0, 81, 0
2, 103200, Note_on_c, 0, 83, 60
2, 103292, Note_off_c, 0, 83, 0
2, 103296, Note_on_c, 0, 81, 60
2, 103676, Note_off_c, 0, 81, 0
2, 103872, Note_on_c, 0, 84, 60
2, 104060, Note_off_c, 0, 84, 0
2, 104064, Note_on_c, 0, 84, 60
2, 104252, Note_off_c, 0, 84, 0
2, 104256, Note_on_c, 0, 83, 60
2, 104444, Note_off_c, 0, 83, 0
2, 104448, Note_on_c, 0, 83, 60
2, 104636, Note_off_c, 0, 83, 0
2, 104640, Note_on_c, 0, 81, 60
2, 104828, Note_off_c, 0, 81, 0
2, 104832, Note_on_c, 0, 85, 60
2, 105020, Note_off_c, 0, 85, 0
2, 105024, Note_on_c, 0, 86, 60
2, 105212, Note_off_c, 0, 86, 0
2, 105216, Note_on_c, 0, 84, 60
2, 105404, Note_off_c, 0, 84, 0
2, 105408, Note_on_c, 0, 83, 60
2, 105596, Note_off_c, 0, 83, 0
2, 105600, Note_on_c, 0, 81, 60
2, 105788, Note_off_c, 0, 81, 0
2, 105792, Note_on_c, 0, 79, 60
2, 105980, Note_off_c, 0, 79, 0
2, 105984, Note_on_c, 0, 87, 60
2, 106172, Note_off_c, 0, 87, 0
2, 106176, Note_on_c, 0, 88, 60
2, 106364, Note_off_c, 0, 88, 0
2, 106368, Note_on_c, 0, 86, 60
2, 106556, Note_off_c, 0, 86, 0
2, 106560, Note_on_c, 0, 84, 60
2, 106748, Note_off_c, 0, 84, 0
2, 106752, Note_on_c, 0, 83, 60
2, 106940, Note_off_c, 0, 83, 0
2, 106944, Note_on_c, 0, 81, 60
2, 107132, Note_off_c, 0, 81, 0
2, 107136, Note_on_c, 0, 79, 60
2, 107324, Note_off_c, 0, 79, 0
2, 107328, Note_on_c, 0, 78, 63
2, 107516, Note_off_c, 0, 78, 0
2, 107520, Note_on_c, 0, 76, 64
2, 107708, Note_off_c, 0, 76, 0
2, 107712, Note_on_c, 0, 74, 66
2, 107900, Note_off_c, 0, 74, 0
2, 107904, Note_on_c, 0, 84, 60
2, 108092, Note_off_c, 0, 84, 0
2, 108096, Note_on_c, 0, 81, 60
2, 108284, Note_off_c, 0, 81, 0
2, 108288, Note_on_c, 0, 86, 60
2, 108660, Note_off_c, 0, 86, 0
2, 108672, Note_on_c, 0, 86, 60
2, 109044, Note_off_c, 0, 86, 0
2, 109056, Note_on_c, 0, 86, 60
2, 109428, Note_off_c, 0, 86, 0
2, 109440, Note_on_c, 0, 86, 60
2, 110012, Note_off_c, 0, 86, 0
2, 123264, Note_on_c, 0, 76, 64
2, 123548, Note_off_c, 0, 76, 0
2, 123552, Note_on_c, 0, 71, 67
2, 123644, Note_off_c, 0, 71, 0
2, 123648, Note_on_c, 0, 79, 61
2, 124220, Note_off_c, 0, 79, 0
2, 124224, Note_on_c, 0, 78, 63
2, 124412, Note_off_c, 0, 78, 0
2, 124416, Note_on_c, 0, 78, 63
2, 124508, Note_off_c, 0, 78, 0
2, 124512, Note_on_c, 0, 76, 64
2, 124796, Note_off_c, 0, 76, 0
2, 124800, Note_on_c, 0, 76, 64
2, 125172, Note_off_c, 0, 76, 0
2, 125376, Note_on_c, 0, 76, 64
2, 125564, Note_off_c, 0, 76, 0
2, 125568, Note_on_c, 0, 78, 63
2, 125852, Note_off_c, 0, 78, 0
2, 125856, Note_on_c, 0, 71, 67
2, 125948, Note_off_c, 0, 71, 0
2, 125952, Note_on_c, 0, 81, 60
2, 126524, Note_off_c, 0, 81, 0
2, 126528, Note_on_c, 0, 79, 61
2, 126716, Note_off_c, 0, 79, 0
2, 126720, Note_on_c, 0, 79, 61
2, 126812, Note_off_c, 0, 79, 0
2, 126816, Note_on_c, 0, 78, 63
2, 127100, Note_off_c, 0, 78, 0
2, 127104, Note_on_c, 0, 78, 63
2, 127484, Note_off_c, 0, 78, 0
2, 127680, Note_on_c, 0, 78, 63
2, 127868, Note_off_c, 0, 78, 0
2, 127872, Note_on_c, 0, 83, 60
2, 128156, Note_off_c, 0, 83, 0
2, 128160, Note_on_c, 0, 76, 64
2, 128252, Note_off_c, 0, 76, 0
2, 128256, Note_on_c, 0, 88, 60
2, 128828, Note_off_c, 0, 88, 0
2, 128832, Note_on_c, 0, 79, 61
2, 129020, Note_off_c, 0, 79, 0
2, 129024, Note_on_c, 0, 79, 61
2, 129212, Note_off_c, 0, 79, 0
2, 129216, Note_on_c, 0, 78, 63
2, 129404, Note_off_c, 0, 78, 0
2, 129408, Note_on_c, 0, 78, 63
2, 129980, Note_off_c, 0, 78, 0
2, 129984, Note_on_c, 0, 84, 60
2, 130172, Note_off_c, 0, 84, 0
2, 130176, Note_on_c, 0, 84, 60
2, 130364, Note_off_c, 0, 84, 0
2, 130368, Note_on_c, 0, 83, 60
2, 130556, Note_off_c, 0, 83, 0
2, 130560, Note_on_c, 0, 81, 60
2, 130748, Note_off_c, 0, 81, 0
2, 130752, Note_on_c, 0, 79, 61
2, 130940, Note_off_c, 0, 79, 0
2, 130944, Note_on_c, 0, 78, 63
2, 131132, Note_off_c, 0, 78, 0
2, 131136, Note_on_c, 0, 76, 63
2, 131324, Note_off_c, 0, 76, 0
2, 131328, Note_on_c, 0, 79, 61
2, 131708, Note_off_c, 0, 79, 0
2, 131712, Note_on_c, 0, 78, 63
2, 132092, Note_off_c, 0, 78, 0
2, 132096, Note_on_c, 0, 83, 60
2, 132188, Note_off_c, 0, 83, 0
2, 132192, Note_on_c, 0, 81, 60
2, 132284, Note_off_c, 0, 81, 0
2, 132288, Note_on_c, 0, 79, 60
2, 132380, Note_off_c, 0, 79, 0
2, 132384, Note_on_c, 0, 78, 61
2, 132476, Note_off_c, 0, 78, 0
2, 132480, Note_on_c, 0, 76, 64
2, 133052, Note_off_c, 0, 76, 0
2, 133728, Note_on_c, 0, 71, 67
2, 133820, Note_off_c, 0, 71, 0
2, 133824, Note_on_c, 0, 72, 67
2, 133916, Note_off_c, 0, 72, 0
2, 133920, Note_on_c, 0, 75, 66
2, 134012, Note_off_c, 0, 75, 0
2, 134016, Note_on_c, 0, 76, 64
2, 134108, Note_off_c, 0, 76, 0
2, 134112, Note_on_c, 0, 78, 63
2, 134204, Note_off_c, 0, 78, 0
2, 134208, Note_on_c, 0, 79, 61
2, 134300, Note_off_c, 0, 79, 0
2, 134304, Note_on_c, 0, 81, 60
2, 134396, Note_off_c, 0, 81, 0
2, 134400, Note_on_c, 0, 83, 60
2, 134492, Note_off_c, 0, 83, 0
2, 134496, Note_on_c, 0, 82, 60
2, 134588, Note_off_c, 0, 82, 0
2, 134592, Note_on_c, 0, 83, 60
2, 134684, Note_off_c, 0, 83, 0
2, 134688, Note_on_c, 0, 82, 60
2, 134780, Note_off_c, 0, 82, 0
2, 134784, Note_on_c, 0, 83, 60
2, 135356, Note_off_c, 0, 83, 0
2, 136032, Note_on_c, 0, 71, 67
2, 136124, Note_off_c, 0, 71, 0
2, 136128, Note_on_c, 0, 72, 67
2, 136220, Note_off_c, 0, 72, 0
2, 136224, Note_on_c, 0, 75, 66
2, 136316, Note_off_c, 0, 75, 0
2, 136320, Note_on_c, 0, 76, 64
2, 136412, Note_off_c, 0, 76, 0
2, 136416, Note_on_c, 0, 78, 63
2, 136508, Note_off_c, 0, 78, 0
2, 136512, Note_on_c, 0, 79, 61
2, 136604, Note_off_c, 0, 79, 0
2, 136608, Note_on_c, 0, 81, 60
2, 136700, Note_off_c, 0, 81, 0
2, 136704, Note_on_c, 0, 83, 60
2, 136796, Note_off_c, 0, 83, 0
2, 136800, Note_on_c, 0, 84, 60
2, 136892, Note_off_c, 0, 84, 0
2, 136896, Note_on_c, 0, 83, 60
2, 136988, Note_off_c, 0, 83, 0
2, 136992, Note_on_c, 0, 84, 60
2, 137084, Note_off_c, 0, 84, 0
2, 137088, Note_on_c, 0, 83, 60
2, 137372, Note_off_c, 0, 83, 0
2, 137376, Note_on_c, 0, 76, 64
2, 137468, Note_off_c, 0, 76, 0
2, 137472, Note_on_c, 0, 88, 60
2, 138044, Note_off_c, 0, 88, 0
2, 138048, Note_on_c, 0, 79, 60
2, 138236, Note_off_c, 0, 79, 0
2, 138240, Note_on_c, 0, 79, 61
2, 138428, Note_off_c, 0, 79, 0
2, 138432, Note_on_c, 0, 78, 63
2, 138620, Note_off_c, 0, 78, 0
2, 138624, Note_on_c, 0, 78, 63
2, 139196, Note_off_c, 0, 78, 0
2, 139200, Note_on_c, 0, 84, 60
2, 139388, Note_off_c, 0, 84, 0
2, 139392, Note_on_c, 0, 84, 60
2, 139580, Note_off_c, 0, 84, 0
2, 139584, Note_on_c, 0, 83, 60
2, 139772, Note_off_c, 0, 83, 0
2, 139776, Note_on_c, 0, 81, 60
2, 139964, Note_off_c, 0, 81, 0
2, 139968, Note_on_c, 0, 79, 60
2, 140156, Note_off_c, 0, 79, 0
2, 140160, Note_on_c, 0, 81, 60
2, 140348, Note_off_c, 0, 81, 0
2, 140352, Note_on_c, 0, 78, 63
2, 140540, Note_off_c, 0, 78, 0
2, 140544, Note_on_c, 0, 76, 64
2, 141116, Note_off_c, 0, 76, 0
2, 141696, Note_on_c, 0, 79, 60
2, 142076, Note_off_c, 0, 79, 0
2, 142080, Note_on_c, 0, 79, 60
2, 142172, Note_off_c, 0, 79, 0
2, 142176, Note_on_c, 0, 77, 60
2, 142268, Note_off_c, 0, 77, 0
2, 142272, Note_on_c, 0, 76, 60
2, 142364, Note_off_c, 0, 76, 0
2, 142368, Note_on_c, 0, 77, 60
2, 142460, Note_off_c, 0, 77, 0
2, 142464, Note_on_c, 0, 79, 60
2, 142556, Note_off_c, 0, 79, 0
2, 142560, Note_on_c, 0, 81, 60
2, 142652, Note_off_c, 0, 81, 0
2, 142656, Note_on_c, 0, 83, 60
2, 142748, Note_off_c, 0, 83, 0
2, 142752, Note_on_c, 0, 84, 60
2, 142844, Note_off_c, 0, 84, 0
2, 142848, Note_on_c, 0, 84, 60
2, 142892, Note_off_c, 0, 84, 0
2, 142896, Note_on_c, 0, 86, 60
2, 142940, Note_off_c, 0, 86, 0
2, 142944, Note_on_c, 0, 83, 60
2, 142988, Note_off_c, 0, 83, 0
2, 142992, Note_on_c, 0, 84, 60
2, 143036, Note_off_c, 0, 84, 0
2, 143040, Note_on_c, 0, 83, 60
2, 143228, Note_off_c, 0, 83, 0
2, 143232, Note_on_c, 0, 83, 60
2, 143996, Note_off_c, 0, 83, 0
2, 144000, Note_on_c, 0, 89, 60
2, 144092, Note_off_c, 0, 89, 0
2, 144096, Note_on_c, 0, 88, 60
2, 144188, Note_off_c, 0, 88, 0
2, 144192, Note_on_c, 0, 86, 60
2, 144284, Note_off_c, 0, 86, 0
2, 144288, Note_on_c, 0, 84, 60
2, 144380, Note_off_c, 0, 84, 0
2, 144384, Note_on_c, 0, 83, 60
2, 144476, Note_off_c, 0, 83, 0
2, 144480, Note_on_c, 0, 84, 60
2, 144572, Note_off_c, 0, 84, 0
2, 144576, Note_on_c, 0, 86, 60
2, 144668, Note_off_c, 0, 86, 0
2, 144672, Note_on_c, 0, 84, 60
2, 144764, Note_off_c, 0, 84, 0
2, 144768, Note_on_c, 0, 83, 60
2, 144860, Note_off_c, 0, 83, 0
2, 144864, Note_on_c, 0, 81, 60
2, 144956, Note_off_c, 0, 81, 0
2, 144960, Note_on_c, 0, 79, 60
2, 145052, Note_off_c, 0, 79, 0
2, 145056, Note_on_c, 0, 77, 60
2, 145148, Note_off_c, 0, 77, 0
2, 145152, Note_on_c, 0, 77, 60
2, 145196, Note_off_c, 0, 77, 0
2, 145200, Note_on_c, 0, 79, 60
2, 145244, Note_off_c, 0, 79, 0
2, 145248, Note_on_c, 0, 76, 60
2, 145292, Note_off_c, 0, 76, 0
2, 145296, Note_on_c, 0, 78, 60
2, 145340, Note_off_c, 0, 78, 0
2, 145344, Note_on_c, 0, 76, 60
2, 145532, Note_off_c, 0, 76, 0
2, 145536, Note_on_c, 0, 76, 60
2, 146300, Note_off_c, 0, 76, 0
2, 146304, Note_on_c, 0, 76, 64
2, 146684, Note_off_c, 0, 76, 0
2, 146688, Note_on_c, 0, 77, 73
2, 147068, Note_off_c, 0, 77, 0
2, 147072, Note_on_c, 0, 76, 64
2, 147452, Note_off_c, 0, 76, 0
2, 147456, Note_on_c, 0, 77, 63
2, 147740, Note_off_c, 0, 77, 0
2, 147744, Note_on_c, 0, 76, 64
2, 147836, Note_off_c, 0, 76, 0
2, 147840, Note_on_c, 0, 81, 73
2, 148220, Note_off_c, 0, 81, 0
2, 148224, Note_on_c, 0, 79, 61
2, 148604, Note_off_c, 0, 79, 0
2, 148608, Note_on_c, 0, 79, 60
2, 148700, Note_off_c, 0, 79, 0
2, 148704, Note_on_c, 0, 77, 60
2, 148796, Note_off_c, 0, 77, 0
2, 148800, Note_on_c, 0, 81, 60
2, 148892, Note_off_c, 0, 81, 0
2, 148896, Note_on_c, 0, 77, 60
2, 148988, Note_off_c, 0, 77, 0
2, 148992, Note_on_c, 0, 77, 60
2, 149084, Note_off_c, 0, 77, 0
2, 149088, Note_on_c, 0, 76, 64
2, 149180, Note_off_c, 0, 76, 0
2, 149184, Note_on_c, 0, 79, 60
2, 149276, Note_off_c, 0, 79, 0
2, 149280, Note_on_c, 0, 76, 64
2, 149372, Note_off_c, 0, 76, 0
2, 149376, Note_on_c, 0, 76, 64
2, 149468, Note_off_c, 0, 76, 0
2, 149472, Note_on_c, 0, 74, 66
2, 149564, Note_off_c, 0, 74, 0
2, 149568, Note_on_c, 0, 77, 60
2, 149660, Note_off_c, 0, 77, 0
2, 149664, Note_on_c, 0, 74, 66
2, 149756, Note_off_c, 0, 74, 0
2, 149760, Note_on_c, 0, 72, 67
2, 150332, Note_off_c, 0, 72, 0
2, 150912, Note_on_c, 0, 67, 70
2, 151004, Note_off_c, 0, 67, 0
2, 151008, Note_on_c, 0, 65, 72
2, 151100, Note_off_c, 0, 65, 0
2, 151104, Note_on_c, 0, 64, 73
2, 151196, Note_off_c, 0, 64, 0
2, 151200, Note_on_c, 0, 65, 72
2, 151292, Note_off_c, 0, 65, 0
2, 151296, Note_on_c, 0, 67, 70
2, 151388, Note_off_c, 0, 67, 0
2, 151392, Note_on_c, 0, 69, 69
2, 151484, Note_off_c, 0, 69, 0
2, 151488, Note_on_c, 0, 71, 67
2, 151580, Note_off_c, 0, 71, 0
2, 151584, Note_on_c, 0, 72, 67
2, 151676, Note_off_c, 0, 72, 0
2, 151680, Note_on_c, 0, 74, 66
2, 151772, Note_off_c, 0, 74, 0
2, 151776, Note_on_c, 0, 76, 64
2, 151868, Note_off_c, 0, 76, 0
2, 151872, Note_on_c, 0, 74, 66
2, 151964, Note_off_c, 0, 74, 0
2, 151968, Note_on_c, 0, 72, 67
2, 152060, Note_off_c, 0, 72, 0
2, 152064, Note_on_c, 0, 71, 67
2, 152156, Note_off_c, 0, 71, 0
2, 152160, Note_on_c, 0, 72, 67
2, 152252, Note_off_c, 0, 72, 0
2, 152256, Note_on_c, 0, 74, 66
2, 152348, Note_off_c, 0, 74, 0
2, 152352, Note_on_c, 0, 72, 67
2, 152444, Note_off_c, 0, 72, 0
2, 152448, Note_on_c, 0, 71, 67
2, 152828, Note_off_c, 0, 71, 0
2, 152928, Note_on_c, 0, 74, 66
2, 153020, Note_off_c, 0, 74, 0
2, 153024, Note_on_c, 0, 77, 63
2, 153116, Note_off_c, 0, 77, 0
2, 153120, Note_on_c, 0, 76, 64
2, 153212, Note_off_c, 0, 76, 0
2, 153216, Note_on_c, 0, 77, 60
2, 153308, Note_off_c, 0, 77, 0
2, 153312, Note_on_c, 0, 79, 60
2, 153404, Note_off_c, 0, 79, 0
2, 153408, Note_on_c, 0, 81, 60
2, 153500, Note_off_c, 0, 81, 0
2, 153504, Note_on_c, 0, 79, 60
2, 153596, Note_off_c, 0, 79, 0
2, 153600, Note_on_c, 0, 77, 63
2, 153692, Note_off_c, 0, 77, 0
2, 153696, Note_on_c, 0, 76, 64
2, 153788, Note_off_c, 0, 76, 0
2, 153792, Note_on_c, 0, 74, 66
2, 153884, Note_off_c, 0, 74, 0
2, 153888, Note_on_c, 0, 72, 67
2, 153980, Note_off_c, 0, 72, 0
2, 153984, Note_on_c, 0, 71, 67
2, 154076, Note_off_c, 0, 71, 0
2, 154080, Note_on_c, 0, 69, 69
2, 154172, Note_off_c, 0, 69, 0
2, 154176, Note_on_c, 0, 67, 70
2, 154268, Note_off_c, 0, 67, 0
2, 154272, Note_on_c, 0, 65, 72
2, 154364, Note_off_c, 0, 65, 0
2, 154368, Note_on_c, 0, 65, 72
2, 154412, Note_off_c, 0, 65, 0
2, 154416, Note_on_c, 0, 67, 72
2, 154460, Note_off_c, 0, 67, 0
2, 154464, Note_on_c, 0, 64, 72
2, 154508, Note_off_c, 0, 64, 0
2, 154512, Note_on_c, 0, 65, 72
2, 154556, Note_off_c, 0, 65, 0
2, 154560, Note_on_c, 0, 64, 73
2, 154748, Note_off_c, 0, 64, 0
2, 154752, Note_on_c, 0, 64, 73
2, 155516, Note_off_c, 0, 64, 0
2, 156672, Note_on_c, 0, 81, 73
2, 157052, Note_off_c, 0, 81, 0
2, 157056, Note_on_c, 0, 82, 60
2, 157436, Note_off_c, 0, 82, 0
2, 157440, Note_on_c, 0, 81, 60
2, 157820, Note_off_c, 0, 81, 0
2, 157824, Note_on_c, 0, 86, 60
2, 157916, Note_off_c, 0, 86, 0
2, 157920, Note_on_c, 0, 84, 60
2, 158012, Note_off_c, 0, 84, 0
2, 158016, Note_on_c, 0, 83, 60
2, 158108, Note_off_c, 0, 83, 0
2, 158112, Note_on_c, 0, 81, 60
2, 158204, Note_off_c, 0, 81, 0
2, 158208, Note_on_c, 0, 81, 60
2, 158300, Note_off_c, 0, 81, 0
2, 158304, Note_on_c, 0, 79, 60
2, 158396, Note_off_c, 0, 79, 0
2, 158400, Note_on_c, 0, 78, 63
2, 158492, Note_off_c, 0, 78, 0
2, 158496, Note_on_c, 0, 76, 64
2, 158588, Note_off_c, 0, 76, 0
2, 158592, Note_on_c, 0, 76, 64
2, 158684, Note_off_c, 0, 76, 0
2, 158688, Note_on_c, 0, 74, 66
2, 158780, Note_off_c, 0, 74, 0
2, 158784, Note_on_c, 0, 72, 67
2, 158876, Note_off_c, 0, 72, 0
2, 158880, Note_on_c, 0, 71, 67
2, 158972, Note_off_c, 0, 71, 0
2, 158976, Note_on_c, 0, 72, 67
2, 159548, Note_off_c, 0, 72, 0
2, 160896, Note_on_c, 0, 79, 60
2, 161276, Note_off_c, 0, 79, 0
2, 161280, Note_on_c, 0, 79, 60
2, 161852, Note_off_c, 0, 79, 0
2, 161856, Note_on_c, 0, 84, 60
2, 162044, Note_off_c, 0, 84, 0
2, 162048, Note_on_c, 0, 88, 60
2, 162236, Note_off_c, 0, 88, 0
2, 162240, Note_on_c, 0, 84, 60
2, 162428, Note_off_c, 0, 84, 0
2, 162432, Note_on_c, 0, 89, 60
2, 162620, Note_off_c, 0, 89, 0
2, 162624, Note_on_c, 0, 86, 60
2, 162812, Note_off_c, 0, 86, 0
2, 162816, Note_on_c, 0, 83, 60
2, 163004, Note_off_c, 0, 83, 0
2, 163008, Note_on_c, 0, 79, 60
2, 163196, Note_off_c, 0, 79, 0
2, 163200, Note_on_c, 0, 77, 63
2, 163388, Note_off_c, 0, 77, 0
2, 163392, Note_on_c, 0, 74, 66
2, 163580, Note_off_c, 0, 74, 0
2, 163584, Note_on_c, 0, 76, 64
2, 164156, Note_off_c, 0, 76, 0
2, 165504, Note_on_c, 0, 77, 63
2, 165884, Note_off_c, 0, 77, 0
2, 165888, Note_on_c, 0, 76, 64
2, 166460, Note_off_c, 0, 76, 0
2, 166464, Note_on_c, 0, 81, 60
2, 166652, Note_off_c, 0, 81, 0
2, 166656, Note_on_c, 0, 84, 60
2, 166844, Note_off_c, 0, 84, 0
2, 166848, Note_on_c, 0, 81, 60
2, 167036, Note_off_c, 0, 81, 0
2, 167040, Note_on_c, 0, 86, 60
2, 167228, Note_off_c, 0, 86, 0
2, 167232, Note_on_c, 0, 83, 60
2, 167420, Note_off_c, 0, 83, 0
2, 167424, Note_on_c, 0, 80, 60
2, 167612, Note_off_c, 0, 80, 0
2, 167616, Note_on_c, 0, 76, 64
2, 167804, Note_off_c, 0, 76, 0
2, 167808, Note_on_c, 0, 74, 66
2, 167996, Note_off_c, 0, 74, 0
2, 168000, Note_on_c, 0, 71, 67
2, 168188, Note_off_c, 0, 71, 0
2, 168192, Note_on_c, 0, 72, 67
2, 168764, Note_off_c, 0, 72, 0
2, 170112, Note_on_c, 0, 78, 63
2, 170492, Note_off_c, 0, 78, 0
2, 170496, Note_on_c, 0, 79, 60
2, 171068, Note_off_c, 0, 79, 0
2, 171072, Note_on_c, 0, 83, 60
2, 171260, Note_off_c, 0, 83, 0
2, 171264, Note_on_c, 0, 86, 60
2, 171452, Note_off_c, 0, 86, 0
2, 171456, Note_on_c, 0, 83, 60
2, 171644, Note_off_c, 0, 83, 0
2, 171648, Note_on_c, 0, 84, 60
2, 171836, Note_off_c, 0, 84, 0
2, 171840, Note_on_c, 0, 81, 60
2, 172028, Note_off_c, 0, 81, 0
2, 172032, Note_on_c, 0, 78, 63
2, 172220, Note_off_c, 0, 78, 0
2, 172224, Note_on_c, 0, 74, 66
2, 172412, Note_off_c, 0, 74, 0
2, 172416, Note_on_c, 0, 72, 67
2, 172604, Note_off_c, 0, 72, 0
2, 172608, Note_on_c, 0, 69, 69
2, 172796, Note_off_c, 0, 69, 0
2, 172800, Note_on_c, 0, 71, 76
2, 173180, Note_off_c, 0, 71, 0
2, 173184, Note_on_c, 0, 83, 60
2, 173948, Note_off_c, 0, 83, 0
2, 173952, Note_on_c, 0, 70, 76
2, 174332, Note_off_c, 0, 70, 0
2, 174336, Note_on_c, 0, 82, 60
2, 175100, Note_off_c, 0, 82, 0
2, 175104, Note_on_c, 0, 83, 60
2, 175196, Note_off_c, 0, 83, 0
2, 175200, Note_on_c, 0, 78, 60
2, 175292, Note_off_c, 0, 78, 0
2, 175296, Note_on_c, 0, 79, 60
2, 175388, Note_off_c, 0, 79, 0
2, 175392, Note_on_c, 0, 81, 60
2, 175484, Note_off_c, 0, 81, 0
2, 175488, Note_on_c, 0, 82, 60
2, 175580, Note_off_c, 0, 82, 0
2, 175584, Note_on_c, 0, 81, 60
2, 175676, Note_off_c, 0, 81, 0
2, 175680, Note_on_c, 0, 82, 60
2, 175772, Note_off_c, 0, 82, 0
2, 175776, Note_on_c, 0, 81, 60
2, 175868, Note_off_c, 0, 81, 0
2, 175872, Note_on_c, 0, 82, 60
2, 175964, Note_off_c, 0, 82, 0
2, 175968, Note_on_c, 0, 81, 60
2, 176060, Note_off_c, 0, 81, 0
2, 176064, Note_on_c, 0, 82, 60
2, 176156, Note_off_c, 0, 82, 0
2, 176160, Note_on_c, 0, 81, 60
2, 176252, Note_off_c, 0, 81, 0
2, 176256, Note_on_c, 0, 82, 60
2, 176828, Note_off_c, 0, 82, 0
2, 177408, Note_on_c, 0, 62, 75
2, 177596, Note_off_c, 0, 62, 0
2, 177600, Note_on_c, 0, 86, 60
2, 177788, Note_off_c, 0, 86, 0
2, 177792, Note_on_c, 0, 66, 72
2, 177980, Note_off_c, 0, 66, 0
2, 177984, Note_on_c, 0, 86, 60
2, 178172, Note_off_c, 0, 86, 0
2, 178176, Note_on_c, 0, 69, 69
2, 178364, Note_off_c, 0, 69, 0
2, 178368, Note_on_c, 0, 86, 60
2, 178556, Note_off_c, 0, 86, 0
2, 178560, Note_on_c, 0, 74, 66
2, 178748, Note_off_c, 0, 74, 0
2, 178752, Note_on_c, 0, 86, 60
2, 178940, Note_off_c, 0, 86, 0
2, 178944, Note_on_c, 0, 69, 69
2, 179132, Note_off_c, 0, 69, 0
2, 179136, Note_on_c, 0, 86, 60
2, 179324, Note_off_c, 0, 86, 0
2, 179328, Note_on_c, 0, 66, 72
2, 179516, Note_off_c, 0, 66, 0
2, 179520, Note_on_c, 0, 86, 60
2, 179708, Note_off_c, 0, 86, 0
2, 179712, Note_on_c, 0, 62, 75
2, 179900, Note_off_c, 0, 62, 0
2, 179904, Note_on_c, 0, 86, 60
2, 180092, Note_off_c, 0, 86, 0
2, 180096, Note_on_c, 0, 67, 70
2, 180284, Note_off_c, 0, 67, 0
2, 180288, Note_on_c, 0, 86, 60
2, 180476, Note_off_c, 0, 86, 0
2, 180480, Note_on_c, 0, 70, 67
2, 180668, Note_off_c, 0, 70, 0
2, 180672, Note_on_c, 0, 86, 60
2, 180860, Note_off_c, 0, 86, 0
2, 180864, Note_on_c, 0, 74, 66
2, 181052, Note_off_c, 0, 74, 0
2, 181056, Note_on_c, 0, 86, 60
2, 181244, Note_off_c, 0, 86, 0
2, 181248, Note_on_c, 0, 70, 67
2, 181436, Note_off_c, 0, 70, 0
2, 181440, Note_on_c, 0, 86, 60
2, 181628, Note_off_c, 0, 86, 0
2, 181632, Note_on_c, 0, 67, 70
2, 181820, Note_off_c, 0, 67, 0
2, 181824, Note_on_c, 0, 86, 60
2, 182012, Note_off_c, 0, 86, 0
2, 182016, Note_on_c, 0, 62, 75
2, 182136, Note_off_c, 0, 62, 0
2, 182144, Note_on_c, 0, 86, 60
2, 182264, Note_off_c, 0, 86, 0
2, 182272, Note_on_c, 0, 86, 60
2, 182392, Note_off_c, 0, 86, 0
2, 182400, Note_on_c, 0, 66, 72
2, 182520, Note_off_c, 0, 66, 0
2, 182528, Note_on_c, 0, 86, 60
2, 182648, Note_off_c, 0, 86, 0
2, 182656, Note_on_c, 0, 86, 60
2, 182776, Note_off_c, 0, 86, 0
2, 182784, Note_on_c, 0, 69, 69
2, 182904, Note_off_c, 0, 69, 0
2, 182912, Note_on_c, 0, 86, 60
2, 183032, Note_off_c, 0, 86, 0
2, 183040, Note_on_c, 0, 86, 60
2, 183160, Note_off_c, 0, 86, 0
2, 183168, Note_on_c, 0, 74, 66
2, 183288, Note_off_c, 0, 74, 0
2, 183296, Note_on_c, 0, 86, 60
2, 183416, Note_off_c, 0, 86, 0
2, 183424, Note_on_c, 0, 86, 60
2, 183544, Note_off_c, 0, 86, 0
2, 183552, Note_on_c, 0, 69, 69
2, 183672, Note_off_c, 0, 69, 0
2, 183680, Note_on_c, 0, 86, 60
2, 183800, Note_off_c, 0, 86, 0
2, 183808, Note_on_c, 0, 86, 60
2, 183928, Note_off_c, 0, 86, 0
2, 183936, Note_on_c, 0, 66, 72
2, 184056, Note_off_c, 0, 66, 0
2, 184064, Note_on_c, 0, 86, 60
2, 184184, Note_off_c, 0, 86, 0
2, 184192, Note_on_c, 0, 86, 60
2, 184312, Note_off_c, 0, 86, 0
2, 184320, Note_on_c, 0, 62, 75
2, 184440, Note_off_c, 0, 62, 0
2, 184448, Note_on_c, 0, 86, 60
2, 184568, Note_off_c, 0, 86, 0
2, 184576, Note_on_c, 0, 86, 60
2, 184696, Note_off_c, 0, 86, 0
2, 184704, Note_on_c, 0, 67, 70
2, 184824, Note_off_c, 0, 67, 0
2, 184832, Note_on_c, 0, 86, 60
2, 184952, Note_off_c, 0, 86, 0
2, 184960, Note_on_c, 0, 86, 60
2, 185080, Note_off_c, 0, 86, 0
2, 185088, Note_on_c, 0, 70, 67
2, 185208, Note_off_c, 0, 70, 0
2, 185216, Note_on_c, 0, 86, 60
2, 185336, Note_off_c, 0, 86, 0
2, 185344, Note_on_c, 0, 86, 60
2, 185464, Note_off_c, 0, 86, 0
2, 185472, Note_on_c, 0, 74, 66
2, 185592, Note_off_c, 0, 74, 0
2, 185600, Note_on_c, 0, 86, 60
2, 185720, Note_off_c, 0, 86, 0
2, 185728, Note_on_c, 0, 86, 60
2, 185848, Note_off_c, 0, 86, 0
2, 185856, Note_on_c, 0, 70, 67
2, 185976, Note_off_c, 0, 70, 0
2, 185984, Note_on_c, 0, 86, 60
2, 186104, Note_off_c, 0, 86, 0
2, 186112, Note_on_c, 0, 86, 60
2, 186232, Note_off_c, 0, 86, 0
2, 186240, Note_on_c, 0, 67, 70
2, 186360, Note_off_c, 0, 67, 0
2, 186368, Note_on_c, 0, 86, 60
2, 186488, Note_off_c, 0, 86, 0
2, 186496, Note_on_c, 0, 86, 60
2, 186616, Note_off_c, 0, 86, 0
2, 186624, Note_on_c, 0, 62, 75
2, 187196, Note_off_c, 0, 62, 0
2, 187776, Note_on_c, 0, 74, 66
2, 187964, Note_off_c, 0, 74, 0
2, 187968, Note_on_c, 0, 76, 64
2, 188060, Note_off_c, 0, 76, 0
2, 188064, Note_on_c, 0, 78, 63
2, 188156, Note_off_c, 0, 78, 0
2, 188160, Note_on_c, 0, 79, 61
2, 188252, Note_off_c, 0, 79, 0
2, 188256, Note_on_c, 0, 81, 60
2, 188348, Note_off_c, 0, 81, 0
2, 188352, Note_on_c, 0, 83, 60
2, 188444, Note_off_c, 0, 83, 0
2, 188448, Note_on_c, 0, 85, 60
2, 188540, Note_off_c, 0, 85, 0
2, 188544, Note_on_c, 0, 86, 60
2, 188636, Note_off_c, 0, 86, 0
2, 188640, Note_on_c, 0, 85, 60
2, 188732, Note_off_c, 0, 85, 0
2, 188736, Note_on_c, 0, 86, 60
2, 188828, Note_off_c, 0, 86, 0
2, 188832, Note_on_c, 0, 85, 60
2, 188924, Note_off_c, 0, 85, 0
2, 188928, Note_on_c, 0, 86, 60
2, 189308, Note_off_c, 0, 86, 0
2, 189312, Note_on_c, 0, 74, 60
2, 189500, Note_off_c, 0, 74, 0
2, 189504, Note_on_c, 0, 74, 60
2, 189548, Note_off_c, 0, 74, 64
2, 189552, Note_on_c, 0, 76, 60
2, 189596, Note_off_c, 0, 76, 64
2, 189600, Note_on_c, 0, 74, 60
2, 189644, Note_off_c, 0, 74, 64
2, 189648, Note_on_c, 0, 76, 60
2, 189692, Note_off_c, 0, 76, 64
2, 189696, Note_on_c, 0, 74, 60
2, 189740, Note_off_c, 0, 74, 64
2, 189744, Note_on_c, 0, 76, 60
2, 189788, Note_off_c, 0, 76, 64
2, 189792, Note_on_c, 0, 74, 60
2, 189836, Note_off_c, 0, 74, 64
2, 189840, Note_on_c, 0, 76, 60
2, 189884, Note_off_c, 0, 76, 64
2, 189888, Note_on_c, 0, 74, 60
2, 189932, Note_off_c, 0, 74, 64
2, 189936, Note_on_c, 0, 76, 60
2, 189980, Note_off_c, 0, 76, 64
2, 189984, Note_on_c, 0, 72, 60
2, 190028, Note_off_c, 0, 72, 64
2, 190032, Note_on_c, 0, 74, 60
2, 190076, Note_off_c, 0, 74, 64
2, 190080, Note_on_c, 0, 74, 66
2, 190452, Note_off_c, 0, 74, 0
2, 190464, Note_on_c, 0, 74, 66
2, 190836, Note_off_c, 0, 74, 0
2, 190848, Note_on_c, 0, 74, 66
2, 191220, Note_off_c, 0, 74, 0
2, 191232, Note_on_c, 0, 74, 66
2, 191420, Note_off_c, 0, 74, 0
2, 191424, Note_on_c, 0, 71, 67
2, 191612, Note_off_c, 0, 71, 0
2, 191616, Note_on_c, 0, 67, 70
2, 191804, Note_off_c, 0, 67, 0
2, 191808, Note_on_c, 0, 62, 75
2, 191996, Note_off_c, 0, 62, 0
2, 192000, Note_on_c, 0, 74, 66
2, 192188, Note_off_c, 0, 74, 0
2, 192192, Note_on_c, 0, 71, 67
2, 192380, Note_off_c, 0, 71, 0
2, 192384, Note_on_c, 0, 72, 67
2, 192572, Note_off_c, 0, 72, 0
2, 192576, Note_on_c, 0, 69, 69
2, 192764, Note_off_c, 0, 69, 0
2, 192768, Note_on_c, 0, 66, 72
2, 192956, Note_off_c, 0, 66, 0
2, 192960, Note_on_c, 0, 62, 75
2, 193148, Note_off_c, 0, 62, 0
2, 193152, Note_on_c, 0, 72, 67
2, 193340, Note_off_c, 0, 72, 0
2, 193344, Note_on_c, 0, 69, 69
2, 193532, Note_off_c, 0, 69, 0
2, 193536, Note_on_c, 0, 67, 70
2, 193660, Note_off_c, 0, 67, 0
2, 193664, Note_on_c, 0, 71, 67
2, 193788, Note_off_c, 0, 71, 0
2, 193792, Note_on_c, 0, 69, 69
2, 193916, Note_off_c, 0, 69, 0
2, 193920, Note_on_c, 0, 67, 70
2, 194044, Note_off_c, 0, 67, 0
2, 194048, Note_on_c, 0, 69, 69
2, 194172, Note_off_c, 0, 69, 0
2, 194176, Note_on_c, 0, 71, 67
2, 194300, Note_off_c, 0, 71, 0
2, 194304, Note_on_c, 0, 69, 69
2, 194684, Note_off_c, 0, 69, 0
2, 194880, Note_on_c, 0, 72, 67
2, 195068, Note_off_c, 0, 72, 0
2, 195072, Note_on_c, 0, 72, 67
2, 195116, Note_off_c, 0, 72, 0
2, 195120, Note_on_c, 0, 74, 66
2, 195164, Note_off_c, 0, 74, 0
2, 195168, Note_on_c, 0, 71, 67
2, 195212, Note_off_c, 0, 71, 0
2, 195216, Note_on_c, 0, 72, 66
2, 195260, Note_off_c, 0, 72, 0
2, 195264, Note_on_c, 0, 71, 67
2, 195452, Note_off_c, 0, 71, 0
2, 195456, Note_on_c, 0, 71, 67
2, 195500, Note_off_c, 0, 71, 0
2, 195504, Note_on_c, 0, 72, 67
2, 195548, Note_off_c, 0, 72, 0
2, 195552, Note_on_c, 0, 69, 67
2, 195596, Note_off_c, 0, 69, 0
2, 195600, Note_on_c, 0, 71, 67
2, 195644, Note_off_c, 0, 71, 0
2, 195648, Note_on_c, 0, 69, 69
2, 195836, Note_off_c, 0, 69, 0
2, 196032, Note_on_c, 0, 74, 66
2, 196220, Note_off_c, 0, 74, 0
2, 196224, Note_on_c, 0, 73, 67
2, 196412, Note_off_c, 0, 73, 0
2, 196416, Note_on_c, 0, 74, 66
2, 196604, Note_off_c, 0, 74, 0
2, 196608, Note_on_c, 0, 71, 67
2, 196796, Note_off_c, 0, 71, 0
2, 196800, Note_on_c, 0, 67, 70
2, 196988, Note_off_c, 0, 67, 0
2, 197184, Note_on_c, 0, 76, 64
2, 197372, Note_off_c, 0, 76, 0
2, 197376, Note_on_c, 0, 75, 66
2, 197564, Note_off_c, 0, 75, 0
2, 197568, Note_on_c, 0, 76, 63
2, 197756, Note_off_c, 0, 76, 0
2, 197760, Note_on_c, 0, 72, 67
2, 197948, Note_off_c, 0, 72, 0
2, 197952, Note_on_c, 0, 69, 69
2, 198140, Note_off_c, 0, 69, 0
2, 198144, Note_on_c, 0, 67, 70
2, 198332, Note_off_c, 0, 67, 0
2, 198336, Note_on_c, 0, 66, 72
2, 198524, Note_off_c, 0, 66, 0
2, 198528, Note_on_c, 0, 64, 73
2, 198716, Note_off_c, 0, 64, 0
2, 198720, Note_on_c, 0, 62, 75
2, 198908, Note_off_c, 0, 62, 0
2, 198912, Note_on_c, 0, 72, 67
2, 199100, Note_off_c, 0, 72, 0
2, 199104, Note_on_c, 0, 69, 69
2, 199292, Note_off_c, 0, 69, 0
2, 199296, Note_on_c, 0, 74, 66
2, 199868, Note_off_c, 0, 74, 0
2, 207360, Note_on_c, 0, 79, 61
2, 207548, Note_off_c, 0, 79, 0
2, 207552, Note_on_c, 0, 67, 70
2, 207932, Note_off_c, 0, 67, 0
2, 207936, Note_on_c, 0, 69, 69
2, 208028, Note_off_c, 0, 69, 0
2, 208032, Note_on_c, 0, 71, 67
2, 208124, Note_off_c, 0, 71, 0
2, 208128, Note_on_c, 0, 72, 67
2, 208220, Note_off_c, 0, 72, 0
2, 208224, Note_on_c, 0, 74, 66
2, 208316, Note_off_c, 0, 74, 0
2, 208320, Note_on_c, 0, 76, 64
2, 208412, Note_off_c, 0, 76, 0
2, 208416, Note_on_c, 0, 78, 63
2, 208508, Note_off_c, 0, 78, 0
2, 208512, Note_on_c, 0, 79, 61
2, 208604, Note_off_c, 0, 79, 0
2, 208608, Note_on_c, 0, 81, 60
2, 208700, Note_off_c, 0, 81, 0
2, 208704, Note_on_c, 0, 83, 60
2, 208796, Note_off_c, 0, 83, 0
2, 208800, Note_on_c, 0, 84, 60
2, 208892, Note_off_c, 0, 84, 0
2, 208896, Note_on_c, 0, 86, 60
2, 209276, Note_off_c, 0, 86, 0
2, 209280, Note_on_c, 0, 79, 60
2, 209324, Note_off_c, 0, 79, 0
2, 209328, Note_on_c, 0, 81, 60
2, 209372, Note_off_c, 0, 81, 0
2, 209376, Note_on_c, 0, 79, 60
2, 209420, Note_off_c, 0, 79, 0
2, 209424, Note_on_c, 0, 81, 60
2, 209468, Note_off_c, 0, 81, 0
2, 209472, Note_on_c, 0, 78, 60
2, 209564, Note_off_c, 0, 78, 64
2, 209568, Note_on_c, 0, 79, 60
2, 209660, Note_off_c, 0, 79, 64
2, 209664, Note_on_c, 0, 77, 63
2, 209852, Note_off_c, 0, 77, 0
2, 209856, Note_on_c, 0, 65, 72
2, 210236, Note_off_c, 0, 65, 0
2, 210240, Note_on_c, 0, 67, 70
2, 210332, Note_off_c, 0, 67, 0
2, 210336, Note_on_c, 0, 69, 69
2, 210428, Note_off_c, 0, 69, 0
2, 210432, Note_on_c, 0, 71, 67
2, 210524, Note_off_c, 0, 71, 0
2, 210528, Note_on_c, 0, 72, 67
2, 210620, Note_off_c, 0, 72, 0
2, 210624, Note_on_c, 0, 74, 66
2, 210716, Note_off_c, 0, 74, 0
2, 210720, Note_on_c, 0, 76, 64
2, 210812, Note_off_c, 0, 76, 0
2, 210816, Note_on_c, 0, 77, 63
2, 210908, Note_off_c, 0, 77, 0
2, 210912, Note_on_c, 0, 74, 66
2, 211004, Note_off_c, 0, 74, 0
2, 211008, Note_on_c, 0, 83, 60
2, 211100, Note_off_c, 0, 83, 0
2, 211104, Note_on_c, 0, 77, 63
2, 211196, Note_off_c, 0, 77, 0
2, 211200, Note_on_c, 0, 86, 60
2, 211292, Note_off_c, 0, 86, 0
2, 211296, Note_on_c, 0, 84, 60
2, 211388, Note_off_c, 0, 84, 0
2, 211392, Note_on_c, 0, 83, 60
2, 211484, Note_off_c, 0, 83, 0
2, 211488, Note_on_c, 0, 81, 60
2, 211580, Note_off_c, 0, 81, 0
2, 211584, Note_on_c, 0, 79, 60
2, 211676, Note_off_c, 0, 79, 0
2, 211680, Note_on_c, 0, 77, 60
2, 211772, Note_off_c, 0, 77, 0
2, 211776, Note_on_c, 0, 76, 64
2, 211868, Note_off_c, 0, 76, 0
2, 211872, Note_on_c, 0, 77, 63
2, 211964, Note_off_c, 0, 77, 0
2, 211968, Note_on_c, 0, 76, 63
2, 212156, Note_off_c, 0, 76, 0
2, 213696, Note_on_c, 0, 79, 60
2, 213884, Note_off_c, 0, 79, 0
2, 213888, Note_on_c, 0, 84, 60
2, 214076, Note_off_c, 0, 84, 0
2, 214080, Note_on_c, 0, 88, 60
2, 214268, Note_off_c, 0, 88, 0
2, 214272, Note_on_c, 0, 86, 60
2, 214460, Note_off_c, 0, 86, 0
2, 216000, Note_on_c, 0, 79, 60
2, 216188, Note_off_c, 0, 79, 0
2, 216192, Note_on_c, 0, 83, 60
2, 216380, Note_off_c, 0, 83, 0
2, 216384, Note_on_c, 0, 86, 60
2, 216572, Note_off_c, 0, 86, 0
2, 216576, Note_on_c, 0, 86, 60
2, 216668, Note_off_c, 0, 86, 0
2, 216672, Note_on_c, 0, 84, 60
2, 216956, Note_off_c, 0, 84, 0
2, 218304, Note_on_c, 0, 74, 66
2, 218492, Note_off_c, 0, 74, 0
2, 218496, Note_on_c, 0, 81, 60
2, 218684, Note_off_c, 0, 81, 0
2, 218688, Note_on_c, 0, 84, 60
2, 218876, Note_off_c, 0, 84, 0
2, 218880, Note_on_c, 0, 83, 60
2, 218924, Note_off_c, 0, 83, 0
2, 218928, Note_on_c, 0, 84, 60
2, 218972, Note_off_c, 0, 84, 0
2, 218976, Note_on_c, 0, 81, 60
2, 219068, Note_off_c, 0, 81, 0
2, 219072, Note_on_c, 0, 83, 60
2, 219164, Note_off_c, 0, 83, 0
2, 219168, Note_on_c, 0, 84, 60
2, 219260, Note_off_c, 0, 84, 0
2, 219264, Note_on_c, 0, 86, 60
2, 219356, Note_off_c, 0, 86, 0
2, 219360, Note_on_c, 0, 84, 60
2, 219452, Note_off_c, 0, 84, 0
2, 219456, Note_on_c, 0, 83, 60
2, 219548, Note_off_c, 0, 83, 0
2, 219552, Note_on_c, 0, 81, 60
2, 219644, Note_off_c, 0, 81, 0
2, 219648, Note_on_c, 0, 79, 60
2, 219740, Note_off_c, 0, 79, 0
2, 219744, Note_on_c, 0, 78, 63
2, 219836, Note_off_c, 0, 78, 0
2, 219840, Note_on_c, 0, 76, 64
2, 219932, Note_off_c, 0, 76, 0
2, 219936, Note_on_c, 0, 74, 66
2, 220028, Note_off_c, 0, 74, 0
2, 220032, Note_on_c, 0, 76, 64
2, 220076, Note_off_c, 0, 76, 0
2, 220080, Note_on_c, 0, 78, 63
2, 220124, Note_off_c, 0, 78, 0
2, 220128, Note_on_c, 0, 75, 66
2, 220220, Note_off_c, 0, 75, 0
2, 220224, Note_on_c, 0, 76, 64
2, 220316, Note_off_c, 0, 76, 0
2, 220320, Note_on_c, 0, 78, 63
2, 220412, Note_off_c, 0, 78, 0
2, 220416, Note_on_c, 0, 79, 61
2, 220508, Note_off_c, 0, 79, 0
2, 220512, Note_on_c, 0, 78, 63
2, 220604, Note_off_c, 0, 78, 0
2, 220608, Note_on_c, 0, 76, 64
2, 220700, Note_off_c, 0, 76, 0
2, 220704, Note_on_c, 0, 74, 66
2, 220796, Note_off_c, 0, 74, 0
2, 220800, Note_on_c, 0, 76, 64
2, 220892, Note_off_c, 0, 76, 0
2, 220896, Note_on_c, 0, 74, 66
2, 220988, Note_off_c, 0, 74, 0
2, 220992, Note_on_c, 0, 72, 67
2, 221084, Note_off_c, 0, 72, 0
2, 221088, Note_on_c, 0, 71, 67
2, 221180, Note_off_c, 0, 71, 0
2, 221184, Note_on_c, 0, 69, 69
2, 221564, Note_off_c, 0, 69, 0
2, 221568, Note_on_c, 0, 88, 60
2, 222140, Note_off_c, 0, 88, 0
2, 222144, Note_on_c, 0, 79, 60
2, 222332, Note_off_c, 0, 79, 0
2, 222336, Note_on_c, 0, 79, 60
2, 222428, Note_off_c, 0, 79, 0
2, 222432, Note_on_c, 0, 78, 63
2, 222524, Note_off_c, 0, 78, 0
2, 222528, Note_on_c, 0, 76, 64
2, 222620, Note_off_c, 0, 76, 0
2, 222624, Note_on_c, 0, 74, 66
2, 222716, Note_off_c, 0, 74, 0
2, 222720, Note_on_c, 0, 74, 66
2, 223292, Note_off_c, 0, 74, 0
2, 225408, Note_on_c, 0, 86, 60
2, 225500, Note_off_c, 0, 86, 0
2, 225504, Note_on_c, 0, 83, 60
2, 225596, Note_off_c, 0, 83, 0
2, 225600, Note_on_c, 0, 84, 60
2, 225692, Note_off_c, 0, 84, 0
2, 225696, Note_on_c, 0, 81, 60
2, 225788, Note_off_c, 0, 81, 0
2, 225792, Note_on_c, 0, 79, 60
2, 225980, Note_off_c, 0, 79, 0
2, 226176, Note_on_c, 0, 81, 60
2, 226364, Note_off_c, 0, 81, 0
2, 226560, Note_on_c, 0, 83, 60
2, 226748, Note_off_c, 0, 83, 0
2, 226944, Note_on_c, 0, 86, 60
2, 227036, Note_off_c, 0, 86, 0
2, 227040, Note_on_c, 0, 84, 60
2, 227324, Note_off_c, 0, 84, 0
2, 227328, Note_on_c, 0, 81, 60
2, 227708, Note_off_c, 0, 81, 0
2, 230016, Note_on_c, 0, 81, 60
2, 230108, Note_off_c, 0, 81, 0
2, 230112, Note_on_c, 0, 80, 60
2, 230204, Note_off_c, 0, 80, 0
2, 230208, Note_on_c, 0, 81, 60
2, 230300, Note_off_c, 0, 81, 0
2, 230304, Note_on_c, 0, 80, 60
2, 230396, Note_off_c, 0, 80, 0
2, 230400, Note_on_c, 0, 81, 60
2, 230588, Note_off_c, 0, 81, 0
2, 230784, Note_on_c, 0, 83, 60
2, 230972, Note_off_c, 0, 83, 0
2, 231168, Note_on_c, 0, 84, 60
2, 231356, Note_off_c, 0, 84, 0
2, 231552, Note_on_c, 0, 86, 60
2, 231932, Note_off_c, 0, 86, 0
2, 231936, Note_on_c, 0, 83, 60
2, 232316, Note_off_c, 0, 83, 0
2, 232320, Note_on_c, 0, 91, 60
2, 232412, Note_off_c, 0, 91, 0
2, 232416, Note_on_c, 0, 90, 60
2, 232508, Note_off_c, 0, 90, 0
2, 232512, Note_on_c, 0, 91, 60
2, 232604, Note_off_c, 0, 91, 0
2, 232608, Note_on_c, 0, 89, 60
2, 232700, Note_off_c, 0, 89, 0
2, 232704, Note_on_c, 0, 87, 60
2, 233084, Note_off_c, 0, 87, 0
2, 233088, Note_on_c, 0, 88, 60
2, 233468, Note_off_c, 0, 88, 0
2, 233472, Note_on_c, 0, 88, 60
2, 233564, Note_off_c, 0, 88, 0
2, 233568, Note_on_c, 0, 87, 60
2, 233660, Note_off_c, 0, 87, 0
2, 233664, Note_on_c, 0, 88, 60
2, 233756, Note_off_c, 0, 88, 0
2, 233760, Note_on_c, 0, 86, 60
2, 233852, Note_off_c, 0, 86, 0
2, 233856, Note_on_c, 0, 83, 60
2, 234236, Note_off_c, 0, 83, 0
2, 234240, Note_on_c, 0, 84, 60
2, 234620, Note_off_c, 0, 84, 0
2, 234624, Note_on_c, 0, 84, 60
2, 234716, Note_off_c, 0, 84, 0
2, 234720, Note_on_c, 0, 83, 60
2, 234812, Note_off_c, 0, 83, 0
2, 234816, Note_on_c, 0, 84, 60
2, 234908, Note_off_c, 0, 84, 0
2, 234912, Note_on_c, 0, 83, 60
2, 235004, Note_off_c, 0, 83, 0
2, 235008, Note_on_c, 0, 81, 60
2, 235196, Note_off_c, 0, 81, 0
2, 235200, Note_on_c, 0, 88, 60
2, 235388, Note_off_c, 0, 88, 0
2, 235392, Note_on_c, 0, 86, 60
2, 235580, Note_off_c, 0, 86, 0
2, 235584, Note_on_c, 0, 84, 60
2, 235772, Note_off_c, 0, 84, 0
2, 235776, Note_on_c, 0, 83, 60
2, 235964, Note_off_c, 0, 83, 0
2, 235968, Note_on_c, 0, 81, 60
2, 236156, Note_off_c, 0, 81, 0
2, 236160, Note_on_c, 0, 79, 60
2, 236540, Note_off_c, 0, 79, 0
2, 236544, Note_on_c, 0, 78, 60
2, 236924, Note_off_c, 0, 78, 0
2, 239424, Note_on_c, 0, 62, 75
2, 239612, Note_off_c, 0, 62, 0
2, 239616, Note_on_c, 0, 67, 70
2, 239708, Note_off_c, 0, 67, 0
2, 239712, Note_on_c, 0, 62, 75
2, 239804, Note_off_c, 0, 62, 0
2, 239808, Note_on_c, 0, 71, 67
2, 239900, Note_off_c, 0, 71, 0
2, 239904, Note_on_c, 0, 67, 70
2, 239996, Note_off_c, 0, 67, 0
2, 240000, Note_on_c, 0, 66, 72
2, 240092, Note_off_c, 0, 66, 0
2, 240096, Note_on_c, 0, 62, 75
2, 240188, Note_off_c, 0, 62, 0
2, 240192, Note_on_c, 0, 69, 69
2, 240284, Note_off_c, 0, 69, 0
2, 240288, Note_on_c, 0, 66, 72
2, 240380, Note_off_c, 0, 66, 0
2, 240384, Note_on_c, 0, 67, 70
2, 240476, Note_off_c, 0, 67, 0
2, 240480, Note_on_c, 0, 62, 75
2, 240572, Note_off_c, 0, 62, 0
2, 240576, Note_on_c, 0, 71, 67
2, 240668, Note_off_c, 0, 71, 0
2, 240672, Note_on_c, 0, 67, 70
2, 240764, Note_off_c, 0, 67, 0
2, 240768, Note_on_c, 0, 69, 69
2, 240860, Note_off_c, 0, 69, 0
2, 240864, Note_on_c, 0, 62, 75
2, 240956, Note_off_c, 0, 62, 0
2, 240960, Note_on_c, 0, 72, 67
2, 241052, Note_off_c, 0, 72, 0
2, 241056, Note_on_c, 0, 69, 69
2, 241148, Note_off_c, 0, 69, 0
2, 241152, Note_on_c, 0, 81, 60
2, 241244, Note_off_c, 0, 81, 0
2, 241248, Note_on_c, 0, 79, 60
2, 241340, Note_off_c, 0, 79, 0
2, 241344, Note_on_c, 0, 78, 63
2, 241436, Note_off_c, 0, 78, 0
2, 241440, Note_on_c, 0, 76, 64
2, 241532, Note_off_c, 0, 76, 0
2, 241536, Note_on_c, 0, 74, 66
2, 241628, Note_off_c, 0, 74, 0
2, 241632, Note_on_c, 0, 72, 67
2, 241724, Note_off_c, 0, 72, 0
2, 241728, Note_on_c, 0, 71, 67
2, 241820, Note_off_c, 0, 71, 0
2, 241824, Note_on_c, 0, 69, 69
2, 241916, Note_off_c, 0, 69, 0
2, 241920, Note_on_c, 0, 67, 70
2, 242012, Note_off_c, 0, 67, 0
2, 242016, Note_on_c, 0, 62, 75
2, 242108, Note_off_c, 0, 62, 0
2, 242112, Note_on_c, 0, 71, 67
2, 242204, Note_off_c, 0, 71, 0
2, 242208, Note_on_c, 0, 67, 70
2, 242300, Note_off_c, 0, 67, 0
2, 242304, Note_on_c, 0, 66, 72
2, 242396, Note_off_c, 0, 66, 0
2, 242400, Note_on_c, 0, 62, 75
2, 242492, Note_off_c, 0, 62, 0
2, 242496, Note_on_c, 0, 69, 69
2, 242588, Note_off_c, 0, 69, 0
2, 242592, Note_on_c, 0, 66, 72
2, 242684, Note_off_c, 0, 66, 0
2, 242688, Note_on_c, 0, 67, 70
2, 242780, Note_off_c, 0, 67, 0
2, 242784, Note_on_c, 0, 62, 75
2, 242876, Note_off_c, 0, 62, 0
2, 242880, Note_on_c, 0, 71, 67
2, 242972, Note_off_c, 0, 71, 0
2, 242976, Note_on_c, 0, 67, 70
2, 243068, Note_off_c, 0, 67, 0
2, 243072, Note_on_c, 0, 69, 69
2, 243164, Note_off_c, 0, 69, 0
2, 243168, Note_on_c, 0, 62, 75
2, 243260, Note_off_c, 0, 62, 0
2, 243264, Note_on_c, 0, 72, 67
2, 243356, Note_off_c, 0, 72, 0
2, 243360, Note_on_c, 0, 69, 69
2, 243452, Note_off_c, 0, 69, 0
2, 243456, Note_on_c, 0, 81, 60
2, 243548, Note_off_c, 0, 81, 0
2, 243552, Note_on_c, 0, 79, 60
2, 243644, Note_off_c, 0, 79, 0
2, 243648, Note_on_c, 0, 78, 63
2, 243740, Note_off_c, 0, 78, 0
2, 243744, Note_on_c, 0, 76, 64
2, 243836, Note_off_c, 0, 76, 0
2, 243840, Note_on_c, 0, 74, 66
2, 243932, Note_off_c, 0, 74, 0
2, 243936, Note_on_c, 0, 72, 67
2, 244028, Note_off_c, 0, 72, 0
2, 244032, Note_on_c, 0, 71, 67
2, 244124, Note_off_c, 0, 71, 0
2, 244128, Note_on_c, 0, 69, 69
2, 244220, Note_off_c, 0, 69, 0
2, 244224, Note_on_c, 0, 71, 67
2, 244316, Note_off_c, 0, 71, 0
2, 244320, Note_on_c, 0, 67, 70
2, 244412, Note_off_c, 0, 67, 0
2, 244416, Note_on_c, 0, 74, 66
2, 244508, Note_off_c, 0, 74, 0
2, 244512, Note_on_c, 0, 71, 67
2, 244604, Note_off_c, 0, 71, 0
2, 244608, Note_on_c, 0, 79, 61
2, 244700, Note_off_c, 0, 79, 0
2, 244704, Note_on_c, 0, 78, 63
2, 244796, Note_off_c, 0, 78, 0
2, 244800, Note_on_c, 0, 76, 64
2, 244892, Note_off_c, 0, 76, 0
2, 244896, Note_on_c, 0, 74, 66
2, 244988, Note_off_c, 0, 74, 0
2, 244992, Note_on_c, 0, 72, 67
2, 245084, Note_off_c, 0, 72, 0
2, 245088, Note_on_c, 0, 71, 67
2, 245180, Note_off_c, 0, 71, 0
2, 245184, Note_on_c, 0, 69, 69
2, 245276, Note_off_c, 0, 69, 0
2, 245280, Note_on_c, 0, 67, 70
2, 245372, Note_off_c, 0, 67, 0
2, 245376, Note_on_c, 0, 76, 64
2, 245948, Note_off_c, 0, 76, 0
2, 251136, Note_on_c, 0, 81, 60
2, 251900, Note_off_c, 0, 81, 0
2, 251904, Note_on_c, 0, 83, 60
2, 251996, Note_off_c, 0, 83, 0
2, 252000, Note_on_c, 0, 81, 60
2, 252092, Note_off_c, 0, 81, 0
2, 252096, Note_on_c, 0, 83, 60
2, 252188, Note_off_c, 0, 83, 0
2, 252192, Note_on_c, 0, 81, 60
2, 252284, Note_off_c, 0, 81, 0
2, 252288, Note_on_c, 0, 81, 60
2, 252660, Note_off_c, 0, 81, 0
2, 252672, Note_on_c, 0, 83, 60
2, 253044, Note_off_c, 0, 83, 0
2, 253056, Note_on_c, 0, 84, 60
2, 253428, Note_off_c, 0, 84, 0
2, 253440, Note_on_c, 0, 85, 60
2, 253480, Note_off_c, 0, 85, 0
2, 253488, Note_on_c, 0, 86, 60
2, 253528, Note_off_c, 0, 86, 0
2, 253536, Note_on_c, 0, 88, 60
2, 253576, Note_off_c, 0, 88, 0
2, 253584, Note_on_c, 0, 86, 60
2, 254012, Note_off_c, 0, 86, 0
2, 254016, Note_on_c, 0, 84, 60
2, 254204, Note_off_c, 0, 84, 0
2, 254208, Note_on_c, 0, 83, 60
2, 254588, Note_off_c, 0, 83, 0
2, 254592, Note_on_c, 0, 86, 60
2, 254680, Note_off_c, 0, 86, 0
2, 254688, Note_on_c, 0, 84, 60
2, 254972, Note_off_c, 0, 84, 0
2, 254976, Note_on_c, 0, 83, 60
2, 255348, Note_off_c, 0, 83, 0
2, 255360, Note_on_c, 0, 81, 60
2, 255740, Note_off_c, 0, 81, 0
2, 255744, Note_on_c, 0, 83, 60
2, 255836, Note_off_c, 0, 83, 0
2, 255840, Note_on_c, 0, 79, 61
2, 255932, Note_off_c, 0, 79, 0
2, 255936, Note_on_c, 0, 74, 66
2, 256028, Note_off_c, 0, 74, 0
2, 256032, Note_on_c, 0, 71, 67
2, 256124, Note_off_c, 0, 71, 0
2, 256128, Note_on_c, 0, 67, 70
2, 256220, Note_off_c, 0, 67, 0
2, 256224, Note_on_c, 0, 71, 67
2, 256316, Note_off_c, 0, 71, 0
2, 256320, Note_on_c, 0, 74, 66
2, 256412, Note_off_c, 0, 74, 0
2, 256416, Note_on_c, 0, 79, 61
2, 256508, Note_off_c, 0, 79, 0
2, 256512, Note_on_c, 0, 83, 60
2, 256604, Note_off_c, 0, 83, 0
2, 256608, Note_on_c, 0, 79, 60
2, 256700, Note_off_c, 0, 79, 0
2, 256704, Note_on_c, 0, 74, 66
2, 256796, Note_off_c, 0, 74, 0
2, 256800, Note_on_c, 0, 71, 67
2, 256892, Note_off_c, 0, 71, 0
2, 256896, Note_on_c, 0, 67, 70
2, 256988, Note_off_c, 0, 67, 0
2, 256992, Note_on_c, 0, 71, 67
2, 257084, Note_off_c, 0, 71, 0
2, 257088, Note_on_c, 0, 74, 66
2, 257180, Note_off_c, 0, 74, 0
2, 257184, Note_on_c, 0, 79, 61
2, 257276, Note_off_c, 0, 79, 0
2, 257280, Note_on_c, 0, 83, 60
2, 257468, Note_off_c, 0, 83, 0
2, 257664, Note_on_c, 0, 83, 60
2, 257708, Note_off_c, 0, 83, 0
2, 257712, Note_on_c, 0, 84, 60
2, 257756, Note_off_c, 0, 84, 0
2, 257760, Note_on_c, 0, 83, 60
2, 257804, Note_off_c, 0, 83, 0
2, 257808, Note_on_c, 0, 84, 60
2, 257852, Note_off_c, 0, 84, 0
2, 257856, Note_on_c, 0, 81, 60
2, 257948, Note_off_c, 0, 81, 64
2, 257952, Note_on_c, 0, 83, 60
2, 258044, Note_off_c, 0, 83, 64
2, 258048, Note_on_c, 0, 84, 60
2, 258140, Note_off_c, 0, 84, 0
2, 258144, Note_on_c, 0, 81, 60
2, 258236, Note_off_c, 0, 81, 0
2, 258240, Note_on_c, 0, 78, 63
2, 258332, Note_off_c, 0, 78, 0
2, 258336, Note_on_c, 0, 74, 66
2, 258428, Note_off_c, 0, 74, 0
2, 258432, Note_on_c, 0, 69, 69
2, 258524, Note_off_c, 0, 69, 0
2, 258528, Note_on_c, 0, 74, 66
2, 258620, Note_off_c, 0, 74, 0
2, 258624, Note_on_c, 0, 78, 63
2, 258716, Note_off_c, 0, 78, 0
2, 258720, Note_on_c, 0, 81, 60
2, 258812, Note_off_c, 0, 81, 0
2, 258816, Note_on_c, 0, 84, 60
2, 258908, Note_off_c, 0, 84, 0
2, 258912, Note_on_c, 0, 81, 60
2, 259004, Note_off_c, 0, 81, 0
2, 259008, Note_on_c, 0, 78, 63
2, 259100, Note_off_c, 0, 78, 0
2, 259104, Note_on_c, 0, 74, 66
2, 259196, Note_off_c, 0, 74, 0
2, 259200, Note_on_c, 0, 69, 69
2, 259292, Note_off_c, 0, 69, 0
2, 259296, Note_on_c, 0, 74, 66
2, 259388, Note_off_c, 0, 74, 0
2, 259392, Note_on_c, 0, 78, 63
2, 259484, Note_off_c, 0, 78, 0
2, 259488, Note_on_c, 0, 81, 60
2, 259580, Note_off_c, 0, 81, 0
2, 259584, Note_on_c, 0, 84, 60
2, 259772, Note_off_c, 0, 84, 0
2, 259968, Note_on_c, 0, 84, 60
2, 260012, Note_off_c, 0, 84, 0
2, 260016, Note_on_c, 0, 86, 60
2, 260060, Note_off_c, 0, 86, 0
2, 260064, Note_on_c, 0, 84, 60
2, 260108, Note_off_c, 0, 84, 0
2, 260112, Note_on_c, 0, 86, 60
2, 260156, Note_off_c, 0, 86, 0
2, 260160, Note_on_c, 0, 83, 60
2, 260252, Note_off_c, 0, 83, 64
2, 260256, Note_on_c, 0, 84, 60
2, 260348, Note_off_c, 0, 84, 64
2, 260352, Note_on_c, 0, 83, 60
2, 260540, Note_off_c, 0, 83, 0
2, 260544, Note_on_c, 0, 67, 70
2, 260732, Note_off_c, 0, 67, 0
2, 260736, Note_on_c, 0, 69, 69
2, 260924, Note_off_c, 0, 69, 0
2, 260928, Note_on_c, 0, 84, 60
2, 261116, Note_off_c, 0, 84, 0
2, 261120, Note_on_c, 0, 86, 60
2, 261308, Note_off_c, 0, 86, 0
2, 261312, Note_on_c, 0, 71, 67
2, 261500, Note_off_c, 0, 71, 0
2, 261504, Note_on_c, 0, 72, 67
2, 261692, Note_off_c, 0, 72, 0
2, 261696, Note_on_c, 0, 88, 60
2, 261884, Note_off_c, 0, 88, 0
2, 261888, Note_on_c, 0, 90, 60
2, 262076, Note_off_c, 0, 90, 0
2, 262080, Note_on_c, 0, 69, 69
2, 262268, Note_off_c, 0, 69, 0
2, 262272, Note_on_c, 0, 71, 67
2, 262460, Note_off_c, 0, 71, 0
2, 262464, Note_on_c, 0, 91, 60
2, 262652, Note_off_c, 0, 91, 0
2, 262656, Note_on_c, 0, 90, 60
2, 262748, Note_off_c, 0, 90, 0
2, 262752, Note_on_c, 0, 88, 60
2, 262844, Note_off_c, 0, 88, 0
2, 262848, Note_on_c, 0, 86, 60
2, 262940, Note_off_c, 0, 86, 0
2, 262944, Note_on_c, 0, 84, 60
2, 263036, Note_off_c, 0, 84, 0
2, 263040, Note_on_c, 0, 83, 60
2, 263420, Note_off_c, 0, 83, 0
2, 263424, Note_on_c, 0, 81, 60
2, 263468, Note_off_c, 0, 81, 0
2, 263472, Note_on_c, 0, 83, 60
2, 263516, Note_off_c, 0, 83, 0
2, 263520, Note_on_c, 0, 81, 60
2, 263564, Note_off_c, 0, 81, 0
2, 263568, Note_on_c, 0, 83, 60
2, 263612, Note_off_c, 0, 83, 0
2, 263616, Note_on_c, 0, 79, 60
2, 263708, Note_off_c, 0, 79, 64
2, 263712, Note_on_c, 0, 81, 60
2, 263804, Note_off_c, 0, 81, 64
2, 263808, Note_on_c, 0, 79, 60
2, 264092, Note_off_c, 0, 79, 0
2, 264384, Note_on_c, 0, 62, 75
2, 264572, Note_off_c, 0, 62, 0
2, 264576, Note_on_c, 0, 62, 75
2, 264764, Note_off_c, 0, 62, 0
2, 264768, Note_on_c, 0, 62, 75
2, 264956, Note_off_c, 0, 62, 0
2, 264960, Note_on_c, 0, 62, 75
2, 265080, Note_off_c, 0, 62, 0
2, 265088, Note_on_c, 0, 67, 70
2, 265208, Note_off_c, 0, 67, 0
2, 265216, Note_on_c, 0, 71, 67
2, 265336, Note_off_c, 0, 71, 0
2, 265344, Note_on_c, 0, 74, 66
2, 265464, Note_off_c, 0, 74, 0
2, 265472, Note_on_c, 0, 79, 61
2, 265592, Note_off_c, 0, 79, 0
2, 265600, Note_on_c, 0, 83, 60
2, 265720, Note_off_c, 0, 83, 0
2, 265728, Note_on_c, 0, 86, 60
2, 265848, Note_off_c, 0, 86, 0
2, 265856, Note_on_c, 0, 86, 60
2, 265976, Note_off_c, 0, 86, 0
2, 265984, Note_on_c, 0, 86, 60
2, 266104, Note_off_c, 0, 86, 0
2, 266112, Note_on_c, 0, 86, 60
2, 266232, Note_off_c, 0, 86, 0
2, 266240, Note_on_c, 0, 83, 60
2, 266360, Note_off_c, 0, 83, 0
2, 266368, Note_on_c, 0, 79, 61
2, 266488, Note_off_c, 0, 79, 0
2, 266496, Note_on_c, 0, 74, 66
2, 266616, Note_off_c, 0, 74, 0
2, 266624, Note_on_c, 0, 71, 67
2, 266744, Note_off_c, 0, 71, 0
2, 266752, Note_on_c, 0, 67, 70
2, 266872, Note_off_c, 0, 67, 0
2, 266880, Note_on_c, 0, 62, 75
2, 267000, Note_off_c, 0, 62, 0
2, 267008, Note_on_c, 0, 62, 75
2, 267128, Note_off_c, 0, 62, 0
2, 267136, Note_on_c, 0, 62, 75
2, 267256, Note_off_c, 0, 62, 0
2, 267264, Note_on_c, 0, 62, 75
2, 267384, Note_off_c, 0, 62, 0
2, 267392, Note_on_c, 0, 66, 72
2, 267512, Note_off_c, 0, 66, 0
2, 267520, Note_on_c, 0, 69, 69
2, 267640, Note_off_c, 0, 69, 0
2, 267648, Note_on_c, 0, 74, 66
2, 267768, Note_off_c, 0, 74, 0
2, 267776, Note_on_c, 0, 78, 63
2, 267896, Note_off_c, 0, 78, 0
2, 267904, Note_on_c, 0, 81, 60
2, 268024, Note_off_c, 0, 81, 0
2, 268032, Note_on_c, 0, 86, 60
2, 268152, Note_off_c, 0, 86, 0
2, 268160, Note_on_c, 0, 86, 60
2, 268280, Note_off_c, 0, 86, 0
2, 268288, Note_on_c, 0, 86, 60
2, 268408, Note_off_c, 0, 86, 0
2, 268416, Note_on_c, 0, 86, 60
2, 268536, Note_off_c, 0, 86, 0
2, 268544, Note_on_c, 0, 81, 60
2, 268664, Note_off_c, 0, 81, 0
2, 268672, Note_on_c, 0, 78, 63
2, 268792, Note_off_c, 0, 78, 0
2, 268800, Note_on_c, 0, 74, 66
2, 268920, Note_off_c, 0, 74, 0
2, 268928, Note_on_c, 0, 69, 69
2, 269048, Note_off_c, 0, 69, 0
2, 269056, Note_on_c, 0, 66, 72
2, 269176, Note_off_c, 0, 66, 0
2, 269184, Note_on_c, 0, 62, 75
2, 269304, Note_off_c, 0, 62, 0
2, 269312, Note_on_c, 0, 62, 75
2, 269432, Note_off_c, 0, 62, 0
2, 269440, Note_on_c, 0, 62, 75
2, 269560, Note_off_c, 0, 62, 0
2, 269568, Note_on_c, 0, 62, 75
2, 269948, Note_off_c, 0, 62, 0
2, 271872, Note_on_c, 0, 87, 60
2, 271964, Note_off_c, 0, 87, 0
2, 271968, Note_on_c, 0, 88, 60
2, 272252, Note_off_c, 0, 88, 0
2, 272256, Note_on_c, 0, 86, 60
2, 272348, Note_off_c, 0, 86, 0
2, 272352, Note_on_c, 0, 84, 60
2, 272636, Note_off_c, 0, 84, 0
2, 272640, Note_on_c, 0, 83, 60
2, 272732, Note_off_c, 0, 83, 0
2, 272736, Note_on_c, 0, 81, 60
2, 273020, Note_off_c, 0, 81, 0
2, 273024, Note_on_c, 0, 79, 60
2, 273104, Note_on_c, 0, 78, 63
2, 273116, Note_off_c, 0, 79, 0
2, 273196, Note_off_c, 0, 78, 0
2, 273216, Note_on_c, 0, 76, 64
2, 273308, Note_off_c, 0, 76, 0
2, 273312, Note_on_c, 0, 74, 66
2, 273404, Note_off_c, 0, 74, 0
2, 273408, Note_on_c, 0, 86, 60
2, 274172, Note_off_c, 0, 86, 0
2, 274176, Note_on_c, 0, 86, 60
2, 274268, Note_off_c, 0, 86, 0
2, 274272, Note_on_c, 0, 84, 60
2, 274364, Note_off_c, 0, 84, 0
2, 274368, Note_on_c, 0, 83, 60
2, 274460, Note_off_c, 0, 83, 0
2, 274464, Note_on_c, 0, 81, 60
2, 274556, Note_off_c, 0, 81, 0
2, 274560, Note_on_c, 0, 79, 60
2, 274940, Note_off_c, 0, 79, 0
2, 274944, Note_on_c, 0, 81, 60
2, 274988, Note_off_c, 0, 81, 0
2, 274992, Note_on_c, 0, 83, 60
2, 275036, Note_off_c, 0, 83, 0
2, 275040, Note_on_c, 0, 81, 60
2, 275084, Note_off_c, 0, 81, 0
2, 275088, Note_on_c, 0, 83, 60
2, 275132, Note_off_c, 0, 83, 0
2, 275136, Note_on_c, 0, 79, 60
2, 275228, Note_off_c, 0, 79, 64
2, 275232, Note_on_c, 0, 81, 60
2, 275324, Note_off_c, 0, 81, 64
2, 275328, Note_on_c, 0, 79, 60
2, 275900, Note_off_c, 0, 79, 0
2, 276672, Note_on_c, 0, 74, 66
2, 276764, Note_off_c, 0, 74, 0
2, 276768, Note_on_c, 0, 78, 63
2, 276860, Note_off_c, 0, 78, 0
2, 276864, Note_on_c, 0, 76, 64
2, 276956, Note_off_c, 0, 76, 0
2, 276960, Note_on_c, 0, 79, 61
2, 277052, Note_off_c, 0, 79, 0
2, 277056, Note_on_c, 0, 78, 63
2, 277148, Note_off_c, 0, 78, 0
2, 277152, Note_on_c, 0, 81, 60
2, 277244, Note_off_c, 0, 81, 0
2, 277248, Note_on_c, 0, 79, 61
2, 277340, Note_off_c, 0, 79, 0
2, 277344, Note_on_c, 0, 83, 60
2, 277436, Note_off_c, 0, 83, 0
2, 277440, Note_on_c, 0, 81, 60
2, 277532, Note_off_c, 0, 81, 0
2, 277536, Note_on_c, 0, 84, 60
2, 277628, Note_off_c, 0, 84, 0
2, 277632, Note_on_c, 0, 84, 60
2, 277724, Note_off_c, 0, 84, 0
2, 277728, Note_on_c, 0, 86, 60
2, 278012, Note_off_c, 0, 86, 0
2, 278016, Note_on_c, 0, 86, 60
2, 278388, Note_off_c, 0, 86, 0
2, 278400, Note_on_c, 0, 86, 60
2, 278772, Note_off_c, 0, 86, 0
2, 278784, Note_on_c, 0, 86, 60
2, 278876, Note_off_c, 0, 86, 0
2, 278880, Note_on_c, 0, 84, 60
2, 278972, Note_off_c, 0, 84, 0
2, 278976, Note_on_c, 0, 83, 60
2, 279068, Note_off_c, 0, 83, 0
2, 279072, Note_on_c, 0, 81, 60
2, 279164, Note_off_c, 0, 81, 0
2, 279168, Note_on_c, 0, 79, 61
2, 279260, Note_off_c, 0, 79, 0
2, 279264, Note_on_c, 0, 78, 63
2, 279356, Note_off_c, 0, 78, 0
2, 279360, Note_on_c, 0, 76, 64
2, 279452, Note_off_c, 0, 76, 0
2, 279456, Note_on_c, 0, 74, 66
2, 279548, Note_off_c, 0, 74, 0
2, 279552, Note_on_c, 0, 86, 60
2, 279836, Note_off_c, 0, 86, 0
2, 279840, Note_on_c, 0, 83, 60
2, 279932, Note_off_c, 0, 83, 0
2, 279936, Note_on_c, 0, 86, 60
2, 280028, Note_off_c, 0, 86, 0
2, 280032, Note_on_c, 0, 84, 60
2, 280124, Note_off_c, 0, 84, 0
2, 280128, Note_on_c, 0, 83, 60
2, 280220, Note_off_c, 0, 83, 0
2, 280224, Note_on_c, 0, 81, 60
2, 280316, Note_off_c, 0, 81, 0
2, 280320, Note_on_c, 0, 79, 61
2, 280412, Note_off_c, 0, 79, 0
2, 280416, Note_on_c, 0, 78, 63
2, 280508, Note_off_c, 0, 78, 0
2, 280512, Note_on_c, 0, 76, 64
2, 280604, Note_off_c, 0, 76, 0
2, 280608, Note_on_c, 0, 74, 66
2, 280700, Note_off_c, 0, 74, 0
2, 280704, Note_on_c, 0, 84, 60
2, 280988, Note_off_c, 0, 84, 0
2, 280992, Note_on_c, 0, 81, 60
2, 281084, Note_off_c, 0, 81, 0
2, 281088, Note_on_c, 0, 79, 60
2, 281660, Note_off_c, 0, 79, 0
2, 281664, Note_on_c, 0, 81, 60
2, 281752, Note_off_c, 0, 81, 0
2, 281760, Note_on_c, 0, 83, 60
2, 281840, Note_off_c, 0, 83, 0
2, 281856, Note_on_c, 0, 83, 60
2, 282036, Note_off_c, 0, 83, 0
2, 282048, Note_on_c, 0, 81, 60
2, 282228, Note_off_c, 0, 81, 0
2, 282368, Note_on_c, 0, 84, 60
2, 282488, Note_off_c, 0, 84, 0
2, 282496, Note_on_c, 0, 84, 60
2, 282616, Note_off_c, 0, 84, 0
2, 282624, Note_on_c, 0, 84, 60
2, 282744, Note_off_c, 0, 84, 0
2, 282752, Note_on_c, 0, 83, 60
2, 282872, Note_off_c, 0, 83, 0
2, 282880, Note_on_c, 0, 83, 60
2, 283000, Note_off_c, 0, 83, 0
2, 283008, Note_on_c, 0, 83, 60
2, 283128, Note_off_c, 0, 83, 0
2, 283136, Note_on_c, 0, 81, 60
2, 283256, Note_off_c, 0, 81, 0
2, 283264, Note_on_c, 0, 81, 60
2, 283384, Note_off_c, 0, 81, 0
2, 283392, Note_on_c, 0, 74, 66
2, 283512, Note_off_c, 0, 74, 0
2, 283520, Note_on_c, 0, 85, 60
2, 283640, Note_off_c, 0, 85, 0
2, 283648, Note_on_c, 0, 86, 60
2, 283768, Note_off_c, 0, 86, 0
2, 283776, Note_on_c, 0, 71, 67
2, 283896, Note_off_c, 0, 71, 0
2, 283904, Note_on_c, 0, 82, 60
2, 284024, Note_off_c, 0, 82, 0
2, 284032, Note_on_c, 0, 83, 60
2, 284152, Note_off_c, 0, 83, 0
2, 284160, Note_on_c, 0, 67, 70
2, 284280, Note_off_c, 0, 67, 0
2, 284288, Note_on_c, 0, 78, 60
2, 284408, Note_off_c, 0, 78, 0
2, 284416, Note_on_c, 0, 79, 60
2, 284536, Note_off_c, 0, 79, 0
2, 284544, Note_on_c, 0, 76, 64
2, 284664, Note_off_c, 0, 76, 0
2, 284672, Note_on_c, 0, 87, 60
2, 284792, Note_off_c, 0, 87, 0
2, 284800, Note_on_c, 0, 88, 60
2, 284920, Note_off_c, 0, 88, 0
2, 284928, Note_on_c, 0, 72, 67
2, 285048, Note_off_c, 0, 72, 0
2, 285056, Note_on_c, 0, 83, 60
2, 285176, Note_off_c, 0, 83, 0
2, 285184, Note_on_c, 0, 84, 60
2, 285304, Note_off_c, 0, 84, 0
2, 285312, Note_on_c, 0, 69, 69
2, 285432, Note_off_c, 0, 69, 0
2, 285440, Note_on_c, 0, 80, 60
2, 285560, Note_off_c, 0, 80, 0
2, 285568, Note_on_c, 0, 81, 60
2, 285688, Note_off_c, 0, 81, 0
2, 285696, Note_on_c, 0, 79, 61
2, 285884, Note_off_c, 0, 79, 0
2, 285888, Note_on_c, 0, 78, 63
2, 286076, Note_off_c, 0, 78, 0
2, 286080, Note_on_c, 0, 76, 63
2, 286124, Note_off_c, 0, 76, 0
2, 286128, Note_on_c, 0, 78, 61
2, 286172, Note_off_c, 0, 78, 0
2, 286176, Note_on_c, 0, 74, 64
2, 286220, Note_off_c, 0, 74, 0
2, 286224, Note_on_c, 0, 76, 63
2, 286268, Note_off_c, 0, 76, 0
2, 286272, Note_on_c, 0, 74, 66
2, 286460, Note_off_c, 0, 74, 0
2, 286464, Note_on_c, 0, 84, 60
2, 286652, Note_off_c, 0, 84, 0
2, 286656, Note_on_c, 0, 81, 60
2, 286844, Note_off_c, 0, 81, 0
2, 286848, Note_on_c, 0, 86, 60
2, 287220, Note_off_c, 0, 86, 0
2, 287232, Note_on_c, 0, 86, 60
2, 287604, Note_off_c, 0, 86, 0
2, 287616, Note_on_c, 0, 86, 60
2, 287988, Note_off_c, 0, 86, 0
2, 288000, Note_on_c, 0, 86, 60
2, 288572, Note_off_c, 0, 86, 0
2, 294912, Note_on_c, 0, 79, 60
2, 295100, Note_off_c, 0, 79, 0
2, 295104, Note_on_c, 0, 86, 60
2, 295196, Note_off_c, 0, 86, 0
2, 295200, Note_on_c, 0, 85, 60
2, 295292, Note_off_c, 0, 85, 0
2, 295296, Note_on_c, 0, 86, 60
2, 295388, Note_off_c, 0, 86, 0
2, 295392, Note_on_c, 0, 83, 60
2, 295484, Note_off_c, 0, 83, 0
2, 295488, Note_on_c, 0, 79, 60
2, 295580, Note_off_c, 0, 79, 0
2, 295584, Note_on_c, 0, 83, 60
2, 295676, Note_off_c, 0, 83, 0
2, 295680, Note_on_c, 0, 81, 60
2, 295772, Note_off_c, 0, 81, 0
2, 295776, Note_on_c, 0, 84, 60
2, 295868, Note_off_c, 0, 84, 0
2, 295872, Note_on_c, 0, 78, 60
2, 295964, Note_off_c, 0, 78, 0
2, 295968, Note_on_c, 0, 81, 60
2, 296060, Note_off_c, 0, 81, 0
2, 296064, Note_on_c, 0, 79, 60
2, 296252, Note_off_c, 0, 79, 0
2, 296256, Note_on_c, 0, 86, 60
2, 296348, Note_off_c, 0, 86, 0
2, 296352, Note_on_c, 0, 85, 60
2, 296444, Note_off_c, 0, 85, 0
2, 296448, Note_on_c, 0, 86, 60
2, 296540, Note_off_c, 0, 86, 0
2, 296544, Note_on_c, 0, 83, 60
2, 296636, Note_off_c, 0, 83, 0
2, 296640, Note_on_c, 0, 79, 60
2, 296732, Note_off_c, 0, 79, 0
2, 296736, Note_on_c, 0, 83, 60
2, 296828, Note_off_c, 0, 83, 0
2, 296832, Note_on_c, 0, 81, 60
2, 296924, Note_off_c, 0, 81, 0
2, 296928, Note_on_c, 0, 84, 60
2, 297020, Note_off_c, 0, 84, 0
2, 297024, Note_on_c, 0, 78, 60
2, 297116, Note_off_c, 0, 78, 0
2, 297120, Note_on_c, 0, 81, 60
2, 297212, Note_off_c, 0, 81, 0
2, 297216, Note_on_c, 0, 79, 60
2, 297308, Note_off_c, 0, 79, 0
2, 297312, Note_on_c, 0, 74, 66
2, 297404, Note_off_c, 0, 74, 0
2, 297408, Note_on_c, 0, 83, 60
2, 297488, Note_off_c, 0, 83, 0
2, 297504, Note_on_c, 0, 83, 60
2, 297584, Note_off_c, 0, 83, 0
2, 297600, Note_on_c, 0, 83, 60
2, 297680, Note_off_c, 0, 83, 0
2, 297696, Note_on_c, 0, 79, 60
2, 297788, Note_off_c, 0, 79, 0
2, 297792, Note_on_c, 0, 86, 60
2, 297872, Note_off_c, 0, 86, 0
2, 297888, Note_on_c, 0, 86, 60
2, 297968, Note_off_c, 0, 86, 0
2, 297984, Note_on_c, 0, 86, 60
2, 298064, Note_off_c, 0, 86, 0
2, 298080, Note_on_c, 0, 83, 60
2, 298172, Note_off_c, 0, 83, 0
2, 298176, Note_on_c, 0, 91, 60
2, 298256, Note_off_c, 0, 91, 0
2, 298272, Note_on_c, 0, 91, 60
2, 298352, Note_off_c, 0, 91, 0
2, 298368, Note_on_c, 0, 91, 60
2, 298940, Note_off_c, 0, 91, 0
2, 299712, Note_on_c, 0, 79, 60
2, 299900, Note_off_c, 0, 79, 0
2, 299904, Note_on_c, 0, 81, 60
2, 300092, Note_off_c, 0, 81, 0
2, 300096, Note_on_c, 0, 83, 60
2, 300284, Note_off_c, 0, 83, 0
2, 300288, Note_on_c, 0, 84, 60
2, 300476, Note_off_c, 0, 84, 0
2, 300480, Note_on_c, 0, 86, 60
2, 300668, Note_off_c, 0, 86, 0
2, 300672, Note_on_c, 0, 88, 60
2, 300860, Note_off_c, 0, 88, 0
2, 300864, Note_on_c, 0, 89, 60
2, 301244, Note_off_c, 0, 89, 0
2, 301248, Note_on_c, 0, 88, 60
2, 301628, Note_off_c, 0, 88, 0
2, 301632, Note_on_c, 0, 86, 60
2, 302012, Note_off_c, 0, 86, 0
2, 302016, Note_on_c, 0, 85, 60
2, 302396, Note_off_c, 0, 85, 0
2, 302400, Note_on_c, 0, 84, 60
2, 302780, Note_off_c, 0, 84, 0
2, 302784, Note_on_c, 0, 83, 60
2, 302972, Note_off_c, 0, 83, 0
2, 302976, Note_on_c, 0, 81, 60
2, 303020, Note_off_c, 0, 81, 0
2, 303024, Note_on_c, 0, 83, 60
2, 303068, Note_off_c, 0, 83, 0
2, 303072, Note_on_c, 0, 81, 60
2, 303116, Note_off_c, 0, 81, 0
2, 303120, Note_on_c, 0, 83, 60
2, 303164, Note_off_c, 0, 83, 0
2, 303168, Note_on_c, 0, 81, 60
2, 303212, Note_off_c, 0, 81, 0
2, 303216, Note_on_c, 0, 83, 60
2, 303260, Note_off_c, 0, 83, 0
2, 303264, Note_on_c, 0, 81, 60
2, 303308, Note_off_c, 0, 81, 0
2, 303312, Note_on_c, 0, 83, 60
2, 303356, Note_off_c, 0, 83, 0
2, 303360, Note_on_c, 0, 81, 60
2, 303404, Note_off_c, 0, 81, 0
2, 303408, Note_on_c, 0, 83, 60
2, 303452, Note_off_c, 0, 83, 0
2, 303456, Note_on_c, 0, 81, 60
2, 303500, Note_off_c, 0, 81, 0
2, 303504, Note_on_c, 0, 83, 60
2, 303548, Note_off_c, 0, 83, 0
2, 303552, Note_on_c, 0, 81, 60
2, 303596, Note_off_c, 0, 81, 0
2, 303600, Note_on_c, 0, 83, 60
2, 303644, Note_off_c, 0, 83, 0
2, 303648, Note_on_c, 0, 81, 60
2, 303692, Note_off_c, 0, 81, 0
2, 303696, Note_on_c, 0, 83, 60
2, 303740, Note_off_c, 0, 83, 0
2, 303744, Note_on_c, 0, 81, 60
2, 303788, Note_off_c, 0, 81, 0
2, 303792, Note_on_c, 0, 83, 60
2, 303836, Note_off_c, 0, 83, 0
2, 303840, Note_on_c, 0, 81, 60
2, 303884, Note_off_c, 0, 81, 0
2, 303888, Note_on_c, 0, 83, 60
2, 303932, Note_off_c, 0, 83, 0
2, 303936, Note_on_c, 0, 79, 60
2, 304028, Note_off_c, 0, 79, 64
2, 304032, Note_on_c, 0, 81, 60
2, 304124, Note_off_c, 0, 81, 64
2, 304128, Note_on_c, 0, 79, 60
2, 304700, Note_off_c, 0, 79, 0
2, 305376, Note_on_c, 0, 74, 66
2, 305468, Note_off_c, 0, 74, 0
2, 305472, Note_on_c, 0, 76, 64
2, 305564, Note_off_c, 0, 76, 0
2, 305568, Note_on_c, 0, 78, 63
2, 305660, Note_off_c, 0, 78, 0
2, 305664, Note_on_c, 0, 79, 61
2, 305756, Note_off_c, 0, 79, 0
2, 305760, Note_on_c, 0, 81, 60
2, 305852, Note_off_c, 0, 81, 0
2, 305856, Note_on_c, 0, 82, 60
2, 305948, Note_off_c, 0, 82, 0
2, 305952, Note_on_c, 0, 83, 60
2, 306044, Note_off_c, 0, 83, 0
2, 306048, Note_on_c, 0, 84, 60
2, 306140, Note_off_c, 0, 84, 0
2, 306144, Note_on_c, 0, 85, 60
2, 306236, Note_off_c, 0, 85, 0
2, 306240, Note_on_c, 0, 86, 60
2, 306332, Note_off_c, 0, 86, 0
2, 306336, Note_on_c, 0, 87, 60
2, 306428, Note_off_c, 0, 87, 0
2, 306432, Note_on_c, 0, 88, 60
2, 306620, Note_off_c, 0, 88, 0
2, 306624, Note_on_c, 0, 89, 60
2, 306812, Note_off_c, 0, 89, 0
2, 306816, Note_on_c, 0, 89, 60
2, 306908, Note_off_c, 0, 89, 0
2, 306912, Note_on_c, 0, 88, 60
2, 307004, Note_off_c, 0, 88, 0
2, 307008, Note_on_c, 0, 87, 60
2, 307100, Note_off_c, 0, 87, 0
2, 307104, Note_on_c, 0, 88, 60
2, 307196, Note_off_c, 0, 88, 0
2, 307200, Note_on_c, 0, 88, 60
2, 307292, Note_off_c, 0, 88, 0
2, 307296, Note_on_c, 0, 86, 60
2, 307388, Note_off_c, 0, 86, 0
2, 307392, Note_on_c, 0, 85, 60
2, 307484, Note_off_c, 0, 85, 0
2, 307488, Note_on_c, 0, 86, 60
2, 307580, Note_off_c, 0, 86, 0
2, 307584, Note_on_c, 0, 86, 60
2, 307676, Note_off_c, 0, 86, 0
2, 307680, Note_on_c, 0, 85, 60
2, 307772, Note_off_c, 0, 85, 0
2, 307776, Note_on_c, 0, 83, 60
2, 307868, Note_off_c, 0, 83, 0
2, 307872, Note_on_c, 0, 85, 60
2, 307964, Note_off_c, 0, 85, 0
2, 307968, Note_on_c, 0, 86, 60
2, 308060, Note_off_c, 0, 86, 0
2, 308064, Note_on_c, 0, 84, 60
2, 308156, Note_off_c, 0, 84, 0
2, 308160, Note_on_c, 0, 83, 60
2, 308252, Note_off_c, 0, 83, 0
2, 308256, Note_on_c, 0, 84, 60
2, 308348, Note_off_c, 0, 84, 0
2, 308352, Note_on_c, 0, 84, 60
2, 308444, Note_off_c, 0, 84, 0
2, 308448, Note_on_c, 0, 83, 60
2, 308540, Note_off_c, 0, 83, 0
2, 308544, Note_on_c, 0, 82, 60
2, 308636, Note_off_c, 0, 82, 0
2, 308640, Note_on_c, 0, 83, 60
2, 308732, Note_off_c, 0, 83, 0
2, 308736, Note_on_c, 0, 86, 60
2, 308828, Note_off_c, 0, 86, 0
2, 308832, Note_on_c, 0, 88, 60
2, 309888, Note_on_c, 0, 81, 60
2, 309900, Note_off_c, 0, 88, 0
2, 309932, Note_off_c, 0, 81, 0
2, 309936, Note_on_c, 0, 83, 60
2, 309980, Note_off_c, 0, 83, 0
2, 309984, Note_on_c, 0, 81, 60
2, 310028, Note_off_c, 0, 81, 0
2, 310032, Note_on_c, 0, 83, 60
2, 310076, Note_off_c, 0, 83, 0
2, 310080, Note_on_c, 0, 81, 60
2, 310124, Note_off_c, 0, 81, 0
2, 310128, Note_on_c, 0, 83, 60
2, 310172, Note_off_c, 0, 83, 0
2, 310176, Note_on_c, 0, 81, 60
2, 310220, Note_off_c, 0, 81, 0
2, 310224, Note_on_c, 0, 83, 60
2, 310268, Note_off_c, 0, 83, 0
2, 310272, Note_on_c, 0, 81, 60
2, 310316, Note_off_c, 0, 81, 0
2, 310320, Note_on_c, 0, 83, 60
2, 310364, Note_off_c, 0, 83, 0
2, 310368, Note_on_c, 0, 81, 60
2, 310412, Note_off_c, 0, 81, 0
2, 310416, Note_on_c, 0, 83, 60
2, 310460, Note_off_c, 0, 83, 0
2, 310464, Note_on_c, 0, 81, 60
2, 310508, Note_off_c, 0, 81, 0
2, 310512, Note_on_c, 0, 83, 60
2, 310556, Note_off_c, 0, 83, 0
2, 310560, Note_on_c, 0, 81, 60
2, 310604, Note_off_c, 0, 81, 0
2, 310608, Note_on_c, 0, 83, 60
2, 310652, Note_off_c, 0, 83, 0
2, 310656, Note_on_c, 0, 81, 60
2, 310700, Note_off_c, 0, 81, 0
2, 310704, Note_on_c, 0, 83, 60
2, 310748, Note_off_c, 0, 83, 0
2, 310752, Note_on_c, 0, 81, 60
2, 310796, Note_off_c, 0, 81, 0
2, 310800, Note_on_c, 0, 83, 60
2, 310844, Note_off_c, 0, 83, 0
2, 310848, Note_on_c, 0, 79, 60
2, 310940, Note_off_c, 0, 79, 64
2, 310944, Note_on_c, 0, 81, 60
2, 311036, Note_off_c, 0, 81, 64
2, 311136, Note_on_c, 0, 67, 70
2, 311228, Note_off_c, 0, 67, 0
2, 311232, Note_on_c, 0, 69, 69
2, 311324, Note_off_c, 0, 69, 0
2, 311328, Note_on_c, 0, 71, 67
2, 311420, Note_off_c, 0, 71, 0
2, 311424, Note_on_c, 0, 72, 67
2, 311516, Note_off_c, 0, 72, 0
2, 311520, Note_on_c, 0, 74, 66
2, 311612, Note_off_c, 0, 74, 0
2, 311616, Note_on_c, 0, 76, 64
2, 311708, Note_off_c, 0, 76, 0
2, 311712, Note_on_c, 0, 78, 63
2, 311804, Note_off_c, 0, 78, 0
2, 311808, Note_on_c, 0, 79, 61
2, 311900, Note_off_c, 0, 79, 0
2, 311904, Note_on_c, 0, 74, 66
2, 311996, Note_off_c, 0, 74, 0
2, 312000, Note_on_c, 0, 71, 67
2, 312092, Note_off_c, 0, 71, 0
2, 312096, Note_on_c, 0, 67, 70
2, 312188, Note_off_c, 0, 67, 0
2, 312288, Note_on_c, 0, 64, 73
2, 312380, Note_off_c, 0, 64, 0
2, 312384, Note_on_c, 0, 66, 72
2, 312476, Note_off_c, 0, 66, 0
2, 312480, Note_on_c, 0, 67, 70
2, 312572, Note_off_c, 0, 67, 0
2, 312576, Note_on_c, 0, 69, 69
2, 312668, Note_off_c, 0, 69, 0
2, 312672, Note_on_c, 0, 71, 67
2, 312764, Note_off_c, 0, 71, 0
2, 312768, Note_on_c, 0, 72, 67
2, 312860, Note_off_c, 0, 72, 0
2, 312864, Note_on_c, 0, 74, 66
2, 312956, Note_off_c, 0, 74, 0
2, 312960, Note_on_c, 0, 76, 64
2, 313052, Note_off_c, 0, 76, 0
2, 313056, Note_on_c, 0, 72, 67
2, 313148, Note_off_c, 0, 72, 0
2, 313152, Note_on_c, 0, 69, 69
2, 313244, Note_off_c, 0, 69, 0
2, 313248, Note_on_c, 0, 64, 73
2, 313340, Note_off_c, 0, 64, 0
2, 313344, Note_on_c, 0, 62, 75
2, 313724, Note_off_c, 0, 62, 0
2, 313728, Note_on_c, 0, 81, 60
2, 313772, Note_off_c, 0, 81, 0
2, 313776, Note_on_c, 0, 83, 60
2, 313820, Note_off_c, 0, 83, 0
2, 313824, Note_on_c, 0, 81, 60
2, 313868, Note_off_c, 0, 81, 0
2, 313872, Note_on_c, 0, 83, 60
2, 313916, Note_off_c, 0, 83, 0
2, 313920, Note_on_c, 0, 81, 60
2, 313964, Note_off_c, 0, 81, 0
2, 313968, Note_on_c, 0, 83, 60
2, 314012, Note_off_c, 0, 83, 0
2, 314016, Note_on_c, 0, 81, 60
2, 314060, Note_off_c, 0, 81, 0
2, 314064, Note_on_c, 0, 83, 60
2, 314108, Note_off_c, 0, 83, 0
2, 314112, Note_on_c, 0, 81, 60
2, 314156, Note_off_c, 0, 81, 0
2, 314160, Note_on_c, 0, 83, 60
2, 314204, Note_off_c, 0, 83, 0
2, 314208, Note_on_c, 0, 81, 60
2, 314252, Note_off_c, 0, 81, 0
2, 314256, Note_on_c, 0, 83, 60
2, 314300, Note_off_c, 0, 83, 0
2, 314304, Note_on_c, 0, 79, 60
2, 314396, Note_off_c, 0, 79, 64
2, 314400, Note_on_c, 0, 81, 60
2, 314492, Note_off_c, 0, 81, 64
2, 314592, Note_on_c, 0, 79, 60
2, 314684, Note_off_c, 0, 79, 0
2, 314688, Note_on_c, 0, 81, 60
2, 314780, Note_off_c, 0, 81, 0
2, 314784, Note_on_c, 0, 83, 60
2, 314876, Note_off_c, 0, 83, 0
2, 314880, Note_on_c, 0, 84, 60
2, 314972, Note_off_c, 0, 84, 0
2, 314976, Note_on_c, 0, 86, 60
2, 315068, Note_off_c, 0, 86, 0
2, 315072, Note_on_c, 0, 88, 60
2, 315164, Note_off_c, 0, 88, 0
2, 315168, Note_on_c, 0, 90, 60
2, 315260, Note_off_c, 0, 90, 0
2, 315264, Note_on_c, 0, 91, 60
2, 315356, Note_off_c, 0, 91, 0
2, 315360, Note_on_c, 0, 86, 60
2, 315452, Note_off_c, 0, 86, 0
2, 315456, Note_on_c, 0, 83, 60
2, 315548, Note_off_c, 0, 83, 0
2, 315552, Note_on_c, 0, 79, 60
2, 315644, Note_off_c, 0, 79, 0
2, 315744, Note_on_c, 0, 76, 60
2, 315836, Note_off_c, 0, 76, 0
2, 315840, Note_on_c, 0, 78, 60
2, 315932, Note_off_c, 0, 78, 0
2, 315936, Note_on_c, 0, 80, 60
2, 316028, Note_off_c, 0, 80, 0
2, 316032, Note_on_c, 0, 81, 60
2, 316124, Note_off_c, 0, 81, 0
2, 316128, Note_on_c, 0, 83, 60
2, 316220, Note_off_c, 0, 83, 0
2, 316224, Note_on_c, 0, 84, 60
2, 316316, Note_off_c, 0, 84, 0
2, 316320, Note_on_c, 0, 86, 60
2, 316412, Note_off_c, 0, 86, 0
2, 316416, Note_on_c, 0, 88, 60
2, 316508, Note_off_c, 0, 88, 0
2, 316512, Note_on_c, 0, 84, 60
2, 316604, Note_off_c, 0, 84, 0
2, 316608, Note_on_c, 0, 81, 60
2, 316700, Note_off_c, 0, 81, 0
2, 316704, Note_on_c, 0, 76, 60
2, 316796, Note_off_c, 0, 76, 0
2, 316800, Note_on_c, 0, 74, 66
2, 316892, Note_off_c, 0, 74, 0
2, 316896, Note_on_c, 0, 76, 64
2, 316988, Note_off_c, 0, 76, 0
2, 316992, Note_on_c, 0, 78, 63
2, 317084, Note_off_c, 0, 78, 0
2, 317088, Note_on_c, 0, 79, 61
2, 317180, Note_off_c, 0, 79, 0
2, 317184, Note_on_c, 0, 81, 60
2, 317276, Note_off_c, 0, 81, 0
2, 317280, Note_on_c, 0, 83, 60
2, 317372, Note_off_c, 0, 83, 0
2, 317376, Note_on_c, 0, 84, 60
2, 317468, Note_off_c, 0, 84, 0
2, 317472, Note_on_c, 0, 86, 60
2, 317564, Note_off_c, 0, 86, 0
2, 317568, Note_on_c, 0, 85, 60
2, 317660, Note_off_c, 0, 85, 0
2, 317664, Note_on_c, 0, 86, 60
2, 317756, Note_off_c, 0, 86, 0
2, 317760, Note_on_c, 0, 83, 60
2, 317852, Note_off_c, 0, 83, 0
2, 317856, Note_on_c, 0, 79, 60
2, 317948, Note_off_c, 0, 79, 0
2, 317952, Note_on_c, 0, 81, 60
2, 317996, Note_off_c, 0, 81, 0
2, 318000, Note_on_c, 0, 83, 60
2, 318044, Note_off_c, 0, 83, 0
2, 318048, Note_on_c, 0, 81, 60
2, 318092, Note_off_c, 0, 81, 0
2, 318096, Note_on_c, 0, 83, 60
2, 318140, Note_off_c, 0, 83, 0
2, 318144, Note_on_c, 0, 81, 60
2, 318188, Note_off_c, 0, 81, 0
2, 318192, Note_on_c, 0, 83, 60
2, 318236, Note_off_c, 0, 83, 0
2, 318240, Note_on_c, 0, 81, 60
2, 318284, Note_off_c, 0, 81, 0
2, 318288, Note_on_c, 0, 83, 60
2, 318332, Note_off_c, 0, 83, 0
2, 318336, Note_on_c, 0, 81, 60
2, 318380, Note_off_c, 0, 81, 0
2, 318384, Note_on_c, 0, 83, 60
2, 318428, Note_off_c, 0, 83, 0
2, 318432, Note_on_c, 0, 81, 60
2, 318476, Note_off_c, 0, 81, 0
2, 318480, Note_on_c, 0, 83, 60
2, 318524, Note_off_c, 0, 83, 0
2, 318528, Note_on_c, 0, 81, 60
2, 318572, Note_off_c, 0, 81, 0
2, 318576, Note_on_c, 0, 83, 60
2, 318620, Note_off_c, 0, 83, 0
2, 318624, Note_on_c, 0, 81, 60
2, 318668, Note_off_c, 0, 81, 0
2, 318672, Note_on_c, 0, 83, 60
2, 318716, Note_off_c, 0, 83, 0
2, 318720, Note_on_c, 0, 81, 60
2, 318764, Note_off_c, 0, 81, 0
2, 318768, Note_on_c, 0, 83, 60
2, 318812, Note_off_c, 0, 83, 0
2, 318816, Note_on_c, 0, 81, 60
2, 318860, Note_off_c, 0, 81, 0
2, 318864, Note_on_c, 0, 83, 60
2, 318908, Note_off_c, 0, 83, 0
2, 318912, Note_on_c, 0, 79, 60
2, 319004, Note_off_c, 0, 79, 64
2, 319008, Note_on_c, 0, 81, 60
2, 319100, Note_off_c, 0, 81, 64
2, 319104, Note_on_c, 0, 79, 61
2, 319676, Note_off_c, 0, 79, 0
2, 319676, End_track
3, 0, Start_track
3, 0, Title_t, "Flute Concerto #1"
3, 0, Control_c, 1, 0, 0
3, 0, Program_c, 1, 0
3, 0, Control_c, 1, 7, 80
3, 0, Control_c, 1, 10, 45
3, 0, Control_c, 1, 91, 42
3, 0, Control_c, 1, 93, 34
3, 0, Key_signature, 1, "major"
3, 0, Control_c, 1, 121, 0
3, 144, Control_c, 1, 10, 43
3, 192, Control_c, 1, 91, 63
3, 240, Control_c, 1, 93, 40
3, 288, Program_c, 1, 0
3, 1152, Note_on_c, 1, 71, 58
3, 1532, Note_off_c, 1, 71, 0
3, 1536, Note_on_c, 1, 71, 58
3, 1916, Note_off_c, 1, 71, 0
3, 1920, Note_on_c, 1, 71, 58
3, 2300, Note_off_c, 1, 71, 0
3, 2304, Note_on_c, 1, 71, 58
3, 2684, Note_off_c, 1, 71, 0
3, 2688, Note_on_c, 1, 74, 58
3, 3068, Note_off_c, 1, 74, 0
3, 3072, Note_on_c, 1, 71, 58
3, 3260, Note_off_c, 1, 71, 0
3, 3264, Note_on_c, 1, 67, 58
3, 3452, Note_off_c, 1, 67, 0
3, 3456, Note_on_c, 1, 66, 58
3, 3836, Note_off_c, 1, 66, 0
3, 3840, Note_on_c, 1, 69, 58
3, 4220, Note_off_c, 1, 69, 0
3, 4224, Note_on_c, 1, 69, 58
3, 4412, Note_off_c, 1, 69, 0
3, 4416, Note_on_c, 1, 66, 58
3, 4604, Note_off_c, 1, 66, 0
3, 4608, Note_on_c, 1, 62, 58
3, 4988, Note_off_c, 1, 62, 0
3, 4992, Note_on_c, 1, 67, 58
3, 5372, Note_off_c, 1, 67, 0
3, 5376, Note_on_c, 1, 66, 58
3, 5756, Note_off_c, 1, 66, 0
3, 5760, Note_on_c, 1, 67, 58
3, 6140, Note_off_c, 1, 67, 0
3, 6144, Note_on_c, 1, 66, 58
3, 6524, Note_off_c, 1, 66, 0
3, 6528, Note_on_c, 1, 64, 58
3, 6908, Note_off_c, 1, 64, 0
3, 6912, Note_on_c, 1, 62, 58
3, 7292, Note_off_c, 1, 62, 0
3, 7296, Note_on_c, 1, 67, 58
3, 7676, Note_off_c, 1, 67, 0
3, 7680, Note_on_c, 1, 67, 58
3, 8060, Note_off_c, 1, 67, 0
3, 8064, Note_on_c, 1, 64, 58
3, 8444, Note_off_c, 1, 64, 0
3, 8448, Note_on_c, 1, 69, 58
3, 8828, Note_off_c, 1, 69, 0
3, 8832, Note_on_c, 1, 69, 58
3, 9212, Note_off_c, 1, 69, 0
3, 9216, Note_on_c, 1, 69, 58
3, 9596, Note_off_c, 1, 69, 0
3, 9600, Note_on_c, 1, 67, 58
3, 9788, Note_off_c, 1, 67, 0
3, 9792, Note_on_c, 1, 66, 58
3, 9980, Note_off_c, 1, 66, 0
3, 9984, Note_on_c, 1, 69, 58
3, 10172, Note_off_c, 1, 69, 0
3, 10176, Note_on_c, 1, 66, 58
3, 10364, Note_off_c, 1, 66, 0
3, 10368, Note_on_c, 1, 74, 79
3, 10368, Note_on_c, 1, 71, 79
3, 10368, Note_on_c, 1, 67, 79
3, 10368, Note_on_c, 1, 62, 79
3, 10748, Note_off_c, 1, 74, 0
3, 10748, Note_off_c, 1, 71, 0
3, 10748, Note_off_c, 1, 67, 0
3, 10748, Note_off_c, 1, 62, 0
3, 10752, Note_on_c, 1, 74, 79
3, 10752, Note_on_c, 1, 71, 79
3, 10752, Note_on_c, 1, 67, 79
3, 10752, Note_on_c, 1, 62, 79
3, 11132, Note_off_c, 1, 74, 0
3, 11132, Note_off_c, 1, 71, 0
3, 11132, Note_off_c, 1, 67, 0
3, 11132, Note_off_c, 1, 62, 0
3, 11136, Note_on_c, 1, 74, 79
3, 11136, Note_on_c, 1, 71, 79
3, 11136, Note_on_c, 1, 67, 79
3, 11136, Note_on_c, 1, 62, 79
3, 11516, Note_off_c, 1, 74, 0
3, 11516, Note_off_c, 1, 71, 0
3, 11516, Note_off_c, 1, 67, 0
3, 11516, Note_off_c, 1, 62, 0
3, 11520, Note_on_c, 1, 74, 79
3, 11520, Note_on_c, 1, 71, 79
3, 11520, Note_on_c, 1, 67, 79
3, 11520, Note_on_c, 1, 62, 79
3, 11708, Note_off_c, 1, 74, 0
3, 11708, Note_off_c, 1, 71, 0
3, 11708, Note_off_c, 1, 67, 0
3, 11708, Note_off_c, 1, 62, 0
3, 11712, Note_on_c, 1, 71, 79
3, 11900, Note_off_c, 1, 71, 0
3, 11904, Note_on_c, 1, 67, 79
3, 12092, Note_off_c, 1, 67, 0
3, 12096, Note_on_c, 1, 62, 79
3, 12284, Note_off_c, 1, 62, 0
3, 12288, Note_on_c, 1, 74, 79
3, 12288, Note_on_c, 1, 71, 79
3, 12476, Note_off_c, 1, 74, 0
3, 12476, Note_off_c, 1, 71, 0
3, 12480, Note_on_c, 1, 71, 79
3, 12480, Note_on_c, 1, 67, 79
3, 12668, Note_off_c, 1, 71, 0
3, 12668, Note_off_c, 1, 67, 0
3, 12672, Note_on_c, 1, 66, 79
3, 12672, Note_on_c, 1, 72, 79
3, 12860, Note_off_c, 1, 72, 0
3, 12864, Note_on_c, 1, 69, 79
3, 13052, Note_off_c, 1, 66, 0
3, 13052, Note_off_c, 1, 69, 0
3, 13056, Note_on_c, 1, 66, 79
3, 13244, Note_off_c, 1, 66, 0
3, 13248, Note_on_c, 1, 62, 79
3, 13436, Note_off_c, 1, 62, 0
3, 13440, Note_on_c, 1, 72, 79
3, 13440, Note_on_c, 1, 69, 79
3, 13628, Note_off_c, 1, 72, 0
3, 13628, Note_off_c, 1, 69, 0
3, 13632, Note_on_c, 1, 69, 79
3, 13632, Note_on_c, 1, 66, 79
3, 13820, Note_off_c, 1, 69, 0
3, 13820, Note_off_c, 1, 66, 0
3, 13824, Note_on_c, 1, 67, 79
3, 13824, Note_on_c, 1, 67, 79
3, 14204, Note_off_c, 1, 67, 0
3, 14208, Note_on_c, 1, 62, 79
3, 14396, Note_off_c, 1, 67, 0
3, 14400, Note_on_c, 1, 69, 79
3, 14492, Note_off_c, 1, 69, 0
3, 14496, Note_on_c, 1, 71, 79
3, 14588, Note_off_c, 1, 62, 0
3, 14588, Note_off_c, 1, 71, 0
3, 14592, Note_on_c, 1, 69, 79
3, 14592, Note_on_c, 1, 66, 79
3, 14972, Note_off_c, 1, 69, 0
3, 14972, Note_off_c, 1, 66, 0
3, 14976, Note_on_c, 1, 67, 79
3, 15168, Note_on_c, 1, 72, 79
3, 15356, Note_off_c, 1, 72, 0
3, 15360, Note_on_c, 1, 72, 79
3, 15548, Note_off_c, 1, 72, 0
3, 15552, Note_on_c, 1, 71, 79
3, 15740, Note_off_c, 1, 71, 0
3, 15744, Note_on_c, 1, 71, 79
3, 15932, Note_off_c, 1, 71, 0
3, 15936, Note_on_c, 1, 69, 79
3, 16124, Note_off_c, 1, 67, 0
3, 16124, Note_off_c, 1, 69, 0
3, 16128, Note_on_c, 1, 67, 79
3, 16128, Note_on_c, 1, 75, 79
3, 16316, Note_off_c, 1, 75, 0
3, 16320, Note_on_c, 1, 76, 79
3, 16508, Note_off_c, 1, 76, 0
3, 16512, Note_on_c, 1, 74, 79
3, 16700, Note_off_c, 1, 74, 0
3, 16704, Note_on_c, 1, 72, 79
3, 16892, Note_off_c, 1, 72, 0
3, 16896, Note_on_c, 1, 71, 79
3, 17084, Note_off_c, 1, 71, 0
3, 17088, Note_on_c, 1, 69, 79
3, 17276, Note_off_c, 1, 67, 0
3, 17276, Note_off_c, 1, 69, 0
3, 17280, Note_on_c, 1, 67, 79
3, 17280, Note_on_c, 1, 74, 79
3, 17564, Note_off_c, 1, 67, 0
3, 17564, Note_off_c, 1, 74, 0
3, 17568, Note_on_c, 1, 67, 79
3, 17660, Note_off_c, 1, 67, 0
3, 17664, Note_on_c, 1, 69, 79
3, 17708, Note_off_c, 1, 69, 0
3, 17712, Note_on_c, 1, 71, 79
3, 17756, Note_off_c, 1, 71, 0
3, 17760, Note_on_c, 1, 69, 79
3, 17804, Note_off_c, 1, 69, 0
3, 17808, Note_on_c, 1, 71, 79
3, 17852, Note_off_c, 1, 71, 0
3, 17856, Note_on_c, 1, 69, 79
3, 17900, Note_off_c, 1, 69, 0
3, 17904, Note_on_c, 1, 71, 79
3, 17948, Note_off_c, 1, 71, 0
3, 17952, Note_on_c, 1, 69, 79
3, 17996, Note_off_c, 1, 69, 0
3, 18000, Note_on_c, 1, 71, 79
3, 18044, Note_off_c, 1, 71, 0
3, 18048, Note_on_c, 1, 69, 79
3, 18092, Note_off_c, 1, 69, 0
3, 18096, Note_on_c, 1, 71, 79
3, 18140, Note_off_c, 1, 71, 0
3, 18144, Note_on_c, 1, 69, 79
3, 18188, Note_off_c, 1, 69, 0
3, 18192, Note_on_c, 1, 71, 79
3, 18236, Note_off_c, 1, 71, 0
3, 18240, Note_on_c, 1, 69, 79
3, 18284, Note_off_c, 1, 69, 0
3, 18288, Note_on_c, 1, 71, 79
3, 18332, Note_off_c, 1, 71, 0
3, 18336, Note_on_c, 1, 67, 79
3, 18380, Note_off_c, 1, 67, 0
3, 18384, Note_on_c, 1, 69, 79
3, 18428, Note_off_c, 1, 69, 0
3, 18432, Note_on_c, 1, 67, 79
3, 18812, Note_off_c, 1, 67, 0
3, 19008, Note_on_c, 1, 83, 58
3, 19100, Note_off_c, 1, 83, 0
3, 19104, Note_on_c, 1, 81, 58
3, 19196, Note_off_c, 1, 81, 0
3, 19200, Note_on_c, 1, 79, 58
3, 19292, Note_off_c, 1, 79, 0
3, 19296, Note_on_c, 1, 78, 58
3, 19388, Note_off_c, 1, 78, 0
3, 19392, Note_on_c, 1, 76, 58
3, 19484, Note_off_c, 1, 76, 0
3, 19488, Note_on_c, 1, 74, 58
3, 19580, Note_off_c, 1, 74, 0
3, 19584, Note_on_c, 1, 72, 58
3, 19964, Note_off_c, 1, 72, 0
3, 19968, Note_on_c, 1, 72, 58
3, 19968, Note_on_c, 1, 64, 58
3, 20156, Note_off_c, 1, 72, 0
3, 20156, Note_off_c, 1, 64, 0
3, 20160, Note_on_c, 1, 76, 58
3, 20252, Note_off_c, 1, 76, 0
3, 20256, Note_on_c, 1, 74, 58
3, 20348, Note_off_c, 1, 74, 0
3, 20352, Note_on_c, 1, 72, 58
3, 20444, Note_off_c, 1, 72, 0
3, 20448, Note_on_c, 1, 71, 58
3, 20540, Note_off_c, 1, 71, 0
3, 20544, Note_on_c, 1, 69, 58
3, 20636, Note_off_c, 1, 69, 0
3, 20640, Note_on_c, 1, 67, 58
3, 20732, Note_off_c, 1, 67, 0
3, 20736, Note_on_c, 1, 66, 58
3, 21116, Note_off_c, 1, 66, 0
3, 21312, Note_on_c, 1, 69, 58
3, 21404, Note_off_c, 1, 69, 0
3, 21408, Note_on_c, 1, 67, 58
3, 21500, Note_off_c, 1, 67, 0
3, 21504, Note_on_c, 1, 66, 58
3, 21596, Note_off_c, 1, 66, 0
3, 21600, Note_on_c, 1, 64, 58
3, 21692, Note_off_c, 1, 64, 0
3, 21696, Note_on_c, 1, 62, 58
3, 21788, Note_off_c, 1, 62, 0
3, 21792, Note_on_c, 1, 60, 58
3, 21884, Note_off_c, 1, 60, 0
3, 21888, Note_on_c, 1, 59, 58
3, 22268, Note_off_c, 1, 59, 0
3, 22272, Note_on_c, 1, 74, 58
3, 22272, Note_on_c, 1, 71, 58
3, 22460, Note_off_c, 1, 74, 0
3, 22460, Note_off_c, 1, 71, 0
3, 22464, Note_on_c, 1, 83, 58
3, 22556, Note_off_c, 1, 83, 0
3, 22560, Note_on_c, 1, 81, 58
3, 22652, Note_off_c, 1, 81, 0
3, 22656, Note_on_c, 1, 79, 58
3, 22748, Note_off_c, 1, 79, 0
3, 22752, Note_on_c, 1, 78, 58
3, 22844, Note_off_c, 1, 78, 0
3, 22848, Note_on_c, 1, 76, 58
3, 22940, Note_off_c, 1, 76, 0
3, 22944, Note_on_c, 1, 74, 58
3, 23036, Note_off_c, 1, 74, 0
3, 23040, Note_on_c, 1, 72, 58
3, 23420, Note_off_c, 1, 72, 0
3, 23424, Note_on_c, 1, 84, 58
3, 23424, Note_on_c, 1, 76, 58
3, 23612, Note_off_c, 1, 84, 0
3, 23612, Note_off_c, 1, 76, 0
3, 23616, Note_on_c, 1, 76, 58
3, 23708, Note_off_c, 1, 76, 0
3, 23712, Note_on_c, 1, 74, 58
3, 23804, Note_off_c, 1, 74, 0
3, 23808, Note_on_c, 1, 72, 58
3, 23900, Note_off_c, 1, 72, 0
3, 23904, Note_on_c, 1, 71, 58
3, 23996, Note_off_c, 1, 71, 0
3, 24000, Note_on_c, 1, 69, 58
3, 24092, Note_off_c, 1, 69, 0
3, 24096, Note_on_c, 1, 67, 58
3, 24188, Note_off_c, 1, 67, 0
3, 24192, Note_on_c, 1, 66, 58
3, 24572, Note_off_c, 1, 66, 0
3, 24576, Note_on_c, 1, 72, 58
3, 24576, Note_on_c, 1, 69, 58
3, 24764, Note_off_c, 1, 72, 0
3, 24764, Note_off_c, 1, 69, 0
3, 24768, Note_on_c, 1, 69, 58
3, 24860, Note_off_c, 1, 69, 0
3, 24864, Note_on_c, 1, 67, 58
3, 24956, Note_off_c, 1, 67, 0
3, 24960, Note_on_c, 1, 66, 58
3, 25052, Note_off_c, 1, 66, 0
3, 25056, Note_on_c, 1, 64, 58
3, 25148, Note_off_c, 1, 64, 0
3, 25152, Note_on_c, 1, 62, 58
3, 25244, Note_off_c, 1, 62, 0
3, 25248, Note_on_c, 1, 60, 58
3, 25340, Note_off_c, 1, 60, 0
3, 25344, Note_on_c, 1, 67, 79
3, 25344, Note_on_c, 1, 59, 79
3, 25520, Note_on_c, 1, 67, 79
3, 25532, Note_off_c, 1, 67, 0
3, 25532, Note_off_c, 1, 59, 0
3, 25900, Note_off_c, 1, 67, 0
3, 25920, Note_on_c, 1, 69, 79
3, 26012, Note_off_c, 1, 69, 0
3, 26016, Note_on_c, 1, 71, 79
3, 26108, Note_off_c, 1, 71, 0
3, 26112, Note_on_c, 1, 72, 79
3, 26204, Note_off_c, 1, 72, 0
3, 26208, Note_on_c, 1, 74, 79
3, 26300, Note_off_c, 1, 74, 0
3, 26304, Note_on_c, 1, 76, 79
3, 26396, Note_off_c, 1, 76, 0
3, 26400, Note_on_c, 1, 78, 79
3, 26492, Note_off_c, 1, 78, 0
3, 26496, Note_on_c, 1, 79, 79
3, 26588, Note_off_c, 1, 79, 0
3, 26592, Note_on_c, 1, 81, 79
3, 26684, Note_off_c, 1, 81, 0
3, 26688, Note_on_c, 1, 83, 79
3, 26780, Note_off_c, 1, 83, 0
3, 26784, Note_on_c, 1, 84, 79
3, 26876, Note_off_c, 1, 84, 0
3, 26880, Note_on_c, 1, 86, 79
3, 27260, Note_off_c, 1, 86, 0
3, 27456, Note_on_c, 1, 79, 79
3, 27500, Note_off_c, 1, 79, 0
3, 27504, Note_on_c, 1, 81, 79
3, 27548, Note_off_c, 1, 81, 0
3, 27552, Note_on_c, 1, 78, 79
3, 27596, Note_off_c, 1, 78, 0
3, 27600, Note_on_c, 1, 79, 79
3, 27644, Note_off_c, 1, 79, 0
3, 27648, Note_on_c, 1, 81, 79
3, 27648, Note_on_c, 1, 76, 79
3, 28028, Note_off_c, 1, 81, 0
3, 28032, Note_on_c, 1, 84, 79
3, 28412, Note_off_c, 1, 76, 0
3, 28412, Note_off_c, 1, 84, 0
3, 28416, Note_on_c, 1, 78, 79
3, 28416, Note_on_c, 1, 72, 79
3, 28416, Note_on_c, 1, 69, 79
3, 28796, Note_off_c, 1, 78, 0
3, 28796, Note_off_c, 1, 72, 0
3, 28796, Note_off_c, 1, 69, 0
3, 28800, Note_on_c, 1, 79, 79
3, 28800, Note_on_c, 1, 74, 79
3, 28800, Note_on_c, 1, 71, 79
3, 28988, Note_off_c, 1, 79, 0
3, 28988, Note_off_c, 1, 74, 0
3, 28988, Note_off_c, 1, 71, 0
3, 28992, Note_on_c, 1, 67, 79
3, 29372, Note_off_c, 1, 67, 0
3, 29376, Note_on_c, 1, 69, 79
3, 29468, Note_off_c, 1, 69, 0
3, 29472, Note_on_c, 1, 71, 79
3, 29564, Note_off_c, 1, 71, 0
3, 29568, Note_on_c, 1, 72, 79
3, 29660, Note_off_c, 1, 72, 0
3, 29664, Note_on_c, 1, 74, 79
3, 29756, Note_off_c, 1, 74, 0
3, 29760, Note_on_c, 1, 76, 79
3, 29852, Note_off_c, 1, 76, 0
3, 29856, Note_on_c, 1, 78, 79
3, 29948, Note_off_c, 1, 78, 0
3, 29952, Note_on_c, 1, 79, 79
3, 30044, Note_off_c, 1, 79, 0
3, 30048, Note_on_c, 1, 81, 79
3, 30140, Note_off_c, 1, 81, 0
3, 30144, Note_on_c, 1, 83, 79
3, 30236, Note_off_c, 1, 83, 0
3, 30240, Note_on_c, 1, 84, 79
3, 30332, Note_off_c, 1, 84, 0
3, 30336, Note_on_c, 1, 86, 79
3, 30716, Note_off_c, 1, 86, 0
3, 30912, Note_on_c, 1, 79, 79
3, 30956, Note_off_c, 1, 79, 0
3, 30960, Note_on_c, 1, 81, 79
3, 31004, Note_off_c, 1, 81, 0
3, 31008, Note_on_c, 1, 78, 79
3, 31052, Note_off_c, 1, 78, 0
3, 31056, Note_on_c, 1, 79, 79
3, 31100, Note_off_c, 1, 79, 0
3, 31104, Note_on_c, 1, 81, 79
3, 31104, Note_on_c, 1, 76, 79
3, 31484, Note_off_c, 1, 81, 0
3, 31488, Note_on_c, 1, 84, 79
3, 31868, Note_off_c, 1, 76, 0
3, 31868, Note_off_c, 1, 84, 0
3, 31872, Note_on_c, 1, 78, 79
3, 31872, Note_on_c, 1, 72, 79
3, 31872, Note_on_c, 1, 69, 79
3, 32252, Note_off_c, 1, 78, 0
3, 32252, Note_off_c, 1, 72, 0
3, 32252, Note_off_c, 1, 69, 0
3, 32256, Note_on_c, 1, 79, 79
3, 32256, Note_on_c, 1, 74, 79
3, 32256, Note_on_c, 1, 71, 79
3, 32444, Note_off_c, 1, 79, 0
3, 32444, Note_off_c, 1, 74, 0
3, 32444, Note_off_c, 1, 71, 0
3, 32448, Note_on_c, 1, 74, 58
3, 32636, Note_off_c, 1, 74, 0
3, 32640, Note_on_c, 1, 83, 58
3, 32828, Note_off_c, 1, 83, 0
3, 32832, Note_on_c, 1, 79, 58
3, 33020, Note_off_c, 1, 79, 0
3, 33024, Note_on_c, 1, 74, 58
3, 33212, Note_off_c, 1, 74, 0
3, 33216, Note_on_c, 1, 71, 58
3, 33404, Note_off_c, 1, 71, 0
3, 33408, Note_on_c, 1, 74, 58
3, 33596, Note_off_c, 1, 74, 0
3, 33600, Note_on_c, 1, 72, 58
3, 33788, Note_off_c, 1, 72, 0
3, 33792, Note_on_c, 1, 76, 58
3, 33980, Note_off_c, 1, 76, 0
3, 33984, Note_on_c, 1, 72, 58
3, 34172, Note_off_c, 1, 72, 0
3, 34176, Note_on_c, 1, 69, 58
3, 34176, Note_on_c, 1, 62, 58
3, 34364, Note_off_c, 1, 69, 0
3, 34364, Note_off_c, 1, 62, 0
3, 34368, Note_on_c, 1, 66, 58
3, 34556, Note_off_c, 1, 66, 0
3, 34752, Note_on_c, 1, 74, 58
3, 34940, Note_off_c, 1, 74, 0
3, 34944, Note_on_c, 1, 83, 58
3, 35132, Note_off_c, 1, 83, 0
3, 35136, Note_on_c, 1, 79, 58
3, 35324, Note_off_c, 1, 79, 0
3, 35328, Note_on_c, 1, 74, 58
3, 35516, Note_off_c, 1, 74, 0
3, 35520, Note_on_c, 1, 71, 58
3, 35708, Note_off_c, 1, 71, 0
3, 35712, Note_on_c, 1, 74, 58
3, 35900, Note_off_c, 1, 74, 0
3, 35904, Note_on_c, 1, 72, 58
3, 36092, Note_off_c, 1, 72, 0
3, 36096, Note_on_c, 1, 76, 58
3, 36284, Note_off_c, 1, 76, 0
3, 36288, Note_on_c, 1, 72, 58
3, 36476, Note_off_c, 1, 72, 0
3, 36480, Note_on_c, 1, 69, 58
3, 36480, Note_on_c, 1, 62, 58
3, 36668, Note_off_c, 1, 69, 0
3, 36668, Note_off_c, 1, 62, 0
3, 36672, Note_on_c, 1, 66, 58
3, 36860, Note_off_c, 1, 66, 0
3, 37056, Note_on_c, 1, 67, 58
3, 37244, Note_off_c, 1, 67, 0
3, 37248, Note_on_c, 1, 71, 58
3, 37436, Note_off_c, 1, 71, 0
3, 37440, Note_on_c, 1, 74, 58
3, 37628, Note_off_c, 1, 74, 0
3, 37632, Note_on_c, 1, 74, 58
3, 37632, Note_on_c, 1, 62, 58
3, 37820, Note_off_c, 1, 74, 0
3, 37820, Note_off_c, 1, 62, 0
3, 37824, Note_on_c, 1, 66, 58
3, 38012, Note_off_c, 1, 66, 0
3, 38208, Note_on_c, 1, 67, 58
3, 38396, Note_off_c, 1, 67, 0
3, 38400, Note_on_c, 1, 71, 58
3, 38588, Note_off_c, 1, 71, 0
3, 38592, Note_on_c, 1, 74, 58
3, 38780, Note_off_c, 1, 74, 0
3, 38784, Note_on_c, 1, 74, 58
3, 38784, Note_on_c, 1, 62, 58
3, 38972, Note_off_c, 1, 74, 0
3, 38972, Note_off_c, 1, 62, 0
3, 38976, Note_on_c, 1, 66, 58
3, 39164, Note_off_c, 1, 66, 0
3, 39168, Note_on_c, 1, 67, 58
3, 39356, Note_off_c, 1, 67, 0
3, 39552, Note_on_c, 1, 67, 58
3, 39740, Note_off_c, 1, 67, 0
3, 39936, Note_on_c, 1, 69, 58
3, 39980, Note_off_c, 1, 69, 0
3, 39984, Note_on_c, 1, 71, 58
3, 40028, Note_off_c, 1, 71, 0
3, 40032, Note_on_c, 1, 69, 58
3, 40076, Note_off_c, 1, 69, 0
3, 40080, Note_on_c, 1, 71, 58
3, 40124, Note_off_c, 1, 71, 0
3, 40128, Note_on_c, 1, 69, 58
3, 40172, Note_off_c, 1, 69, 0
3, 40176, Note_on_c, 1, 71, 58
3, 40220, Note_off_c, 1, 71, 0
3, 40224, Note_on_c, 1, 67, 58
3, 40268, Note_off_c, 1, 67, 0
3, 40272, Note_on_c, 1, 69, 58
3, 40316, Note_off_c, 1, 69, 0
3, 40320, Note_on_c, 1, 67, 58
3, 40508, Note_off_c, 1, 67, 0
3, 40704, Note_on_c, 1, 70, 58
3, 40748, Note_off_c, 1, 70, 0
3, 40752, Note_on_c, 1, 71, 58
3, 40896, Note_off_c, 1, 71, 0
3, 41088, Note_on_c, 1, 73, 58
3, 41132, Note_off_c, 1, 73, 0
3, 41136, Note_on_c, 1, 74, 58
3, 41280, Note_off_c, 1, 74, 0
3, 41472, Note_on_c, 1, 71, 79
3, 41472, Note_on_c, 1, 67, 79
3, 41472, Note_on_c, 1, 62, 79
3, 41660, Note_off_c, 1, 71, 0
3, 41660, Note_off_c, 1, 67, 0
3, 41660, Note_off_c, 1, 62, 0
3, 41664, Note_on_c, 1, 71, 58
3, 41664, Note_on_c, 1, 67, 58
3, 41664, Note_on_c, 1, 62, 58
3, 41852, Note_off_c, 1, 71, 0
3, 41852, Note_off_c, 1, 67, 0
3, 41852, Note_off_c, 1, 62, 0
3, 41856, Note_on_c, 1, 71, 58
3, 41856, Note_on_c, 1, 67, 58
3, 41856, Note_on_c, 1, 62, 58
3, 42044, Note_off_c, 1, 71, 0
3, 42044, Note_off_c, 1, 67, 0
3, 42044, Note_off_c, 1, 62, 0
3, 42048, Note_on_c, 1, 71, 58
3, 42048, Note_on_c, 1, 67, 58
3, 42048, Note_on_c, 1, 62, 58
3, 42236, Note_off_c, 1, 71, 0
3, 42236, Note_off_c, 1, 67, 0
3, 42236, Note_off_c, 1, 62, 0
3, 42240, Note_on_c, 1, 71, 58
3, 42240, Note_on_c, 1, 67, 58
3, 42240, Note_on_c, 1, 62, 58
3, 42428, Note_off_c, 1, 71, 0
3, 42428, Note_off_c, 1, 67, 0
3, 42428, Note_off_c, 1, 62, 0
3, 42432, Note_on_c, 1, 71, 58
3, 42432, Note_on_c, 1, 67, 58
3, 42432, Note_on_c, 1, 62, 58
3, 42620, Note_off_c, 1, 71, 0
3, 42620, Note_off_c, 1, 67, 0
3, 42620, Note_off_c, 1, 62, 0
3, 42624, Note_on_c, 1, 71, 58
3, 42624, Note_on_c, 1, 67, 58
3, 42624, Note_on_c, 1, 62, 58
3, 42812, Note_off_c, 1, 71, 0
3, 42812, Note_off_c, 1, 67, 0
3, 42812, Note_off_c, 1, 62, 0
3, 42816, Note_on_c, 1, 71, 58
3, 42816, Note_on_c, 1, 67, 58
3, 42816, Note_on_c, 1, 62, 58
3, 43004, Note_off_c, 1, 71, 0
3, 43004, Note_off_c, 1, 67, 0
3, 43004, Note_off_c, 1, 62, 0
3, 43008, Note_on_c, 1, 71, 58
3, 43008, Note_on_c, 1, 67, 58
3, 43008, Note_on_c, 1, 62, 58
3, 43196, Note_off_c, 1, 71, 0
3, 43196, Note_off_c, 1, 67, 0
3, 43196, Note_off_c, 1, 62, 0
3, 43200, Note_on_c, 1, 71, 58
3, 43200, Note_on_c, 1, 67, 58
3, 43200, Note_on_c, 1, 62, 58
3, 43388, Note_off_c, 1, 71, 0
3, 43388, Note_off_c, 1, 67, 0
3, 43388, Note_off_c, 1, 62, 0
3, 43392, Note_on_c, 1, 71, 58
3, 43392, Note_on_c, 1, 67, 58
3, 43392, Note_on_c, 1, 62, 58
3, 43580, Note_off_c, 1, 71, 0
3, 43580, Note_off_c, 1, 67, 0
3, 43580, Note_off_c, 1, 62, 0
3, 43584, Note_on_c, 1, 71, 58
3, 43584, Note_on_c, 1, 67, 58
3, 43584, Note_on_c, 1, 62, 58
3, 43772, Note_off_c, 1, 71, 0
3, 43772, Note_off_c, 1, 67, 0
3, 43772, Note_off_c, 1, 62, 0
3, 43776, Note_on_c, 1, 66, 79
3, 43776, Note_on_c, 1, 69, 79
3, 43776, Note_on_c, 1, 74, 79
3, 43964, Note_off_c, 1, 66, 0
3, 43964, Note_off_c, 1, 69, 0
3, 43964, Note_off_c, 1, 74, 0
3, 43968, Note_on_c, 1, 66, 58
3, 43968, Note_on_c, 1, 69, 58
3, 43968, Note_on_c, 1, 74, 58
3, 44156, Note_off_c, 1, 66, 0
3, 44156, Note_off_c, 1, 69, 0
3, 44156, Note_off_c, 1, 74, 0
3, 44160, Note_on_c, 1, 66, 58
3, 44160, Note_on_c, 1, 69, 58
3, 44160, Note_on_c, 1, 74, 58
3, 44348, Note_off_c, 1, 66, 0
3, 44348, Note_off_c, 1, 69, 0
3, 44348, Note_off_c, 1, 74, 0
3, 44352, Note_on_c, 1, 66, 58
3, 44352, Note_on_c, 1, 69, 58
3, 44352, Note_on_c, 1, 74, 58
3, 44540, Note_off_c, 1, 66, 0
3, 44540, Note_off_c, 1, 69, 0
3, 44540, Note_off_c, 1, 74, 0
3, 44544, Note_on_c, 1, 66, 58
3, 44544, Note_on_c, 1, 69, 58
3, 44544, Note_on_c, 1, 74, 58
3, 44732, Note_off_c, 1, 66, 0
3, 44732, Note_off_c, 1, 69, 0
3, 44732, Note_off_c, 1, 74, 0
3, 44736, Note_on_c, 1, 66, 58
3, 44736, Note_on_c, 1, 69, 58
3, 44736, Note_on_c, 1, 74, 58
3, 44924, Note_off_c, 1, 66, 0
3, 44924, Note_off_c, 1, 69, 0
3, 44924, Note_off_c, 1, 74, 0
3, 44928, Note_on_c, 1, 66, 58
3, 44928, Note_on_c, 1, 69, 58
3, 44928, Note_on_c, 1, 74, 58
3, 45116, Note_off_c, 1, 66, 0
3, 45116, Note_off_c, 1, 69, 0
3, 45116, Note_off_c, 1, 74, 0
3, 45120, Note_on_c, 1, 66, 58
3, 45120, Note_on_c, 1, 69, 58
3, 45120, Note_on_c, 1, 74, 58
3, 45308, Note_off_c, 1, 66, 0
3, 45308, Note_off_c, 1, 69, 0
3, 45308, Note_off_c, 1, 74, 0
3, 45312, Note_on_c, 1, 66, 58
3, 45312, Note_on_c, 1, 69, 58
3, 45312, Note_on_c, 1, 74, 58
3, 45500, Note_off_c, 1, 66, 0
3, 45500, Note_off_c, 1, 69, 0
3, 45500, Note_off_c, 1, 74, 0
3, 45504, Note_on_c, 1, 66, 58
3, 45504, Note_on_c, 1, 69, 58
3, 45504, Note_on_c, 1, 74, 58
3, 45692, Note_off_c, 1, 66, 0
3, 45692, Note_off_c, 1, 69, 0
3, 45692, Note_off_c, 1, 74, 0
3, 45696, Note_on_c, 1, 66, 58
3, 45696, Note_on_c, 1, 69, 58
3, 45696, Note_on_c, 1, 74, 58
3, 45884, Note_off_c, 1, 66, 0
3, 45884, Note_off_c, 1, 69, 0
3, 45884, Note_off_c, 1, 74, 0
3, 45888, Note_on_c, 1, 66, 58
3, 45888, Note_on_c, 1, 69, 58
3, 45888, Note_on_c, 1, 74, 58
3, 46076, Note_off_c, 1, 66, 0
3, 46076, Note_off_c, 1, 69, 0
3, 46076, Note_off_c, 1, 74, 0
3, 46080, Note_on_c, 1, 64, 79
3, 46080, Note_on_c, 1, 67, 79
3, 46080, Note_on_c, 1, 74, 79
3, 46268, Note_off_c, 1, 64, 0
3, 46268, Note_off_c, 1, 67, 0
3, 46268, Note_off_c, 1, 74, 0
3, 46272, Note_on_c, 1, 64, 58
3, 46272, Note_on_c, 1, 67, 58
3, 46272, Note_on_c, 1, 74, 58
3, 46460, Note_off_c, 1, 64, 0
3, 46460, Note_off_c, 1, 67, 0
3, 46460, Note_off_c, 1, 74, 0
3, 46464, Note_on_c, 1, 64, 58
3, 46464, Note_on_c, 1, 67, 58
3, 46464, Note_on_c, 1, 73, 58
3, 46652, Note_off_c, 1, 64, 0
3, 46652, Note_off_c, 1, 67, 0
3, 46652, Note_off_c, 1, 73, 0
3, 46656, Note_on_c, 1, 64, 58
3, 46656, Note_on_c, 1, 67, 58
3, 46656, Note_on_c, 1, 71, 58
3, 46844, Note_off_c, 1, 64, 0
3, 46844, Note_off_c, 1, 67, 0
3, 46844, Note_off_c, 1, 71, 0
3, 46848, Note_on_c, 1, 64, 58
3, 46848, Note_on_c, 1, 67, 58
3, 46848, Note_on_c, 1, 76, 58
3, 47036, Note_off_c, 1, 64, 0
3, 47036, Note_off_c, 1, 67, 0
3, 47036, Note_off_c, 1, 76, 0
3, 47040, Note_on_c, 1, 64, 58
3, 47040, Note_on_c, 1, 67, 58
3, 47040, Note_on_c, 1, 74, 58
3, 47228, Note_off_c, 1, 64, 0
3, 47228, Note_off_c, 1, 67, 0
3, 47228, Note_off_c, 1, 74, 0
3, 47232, Note_on_c, 1, 64, 58
3, 47232, Note_on_c, 1, 67, 58
3, 47232, Note_on_c, 1, 73, 58
3, 47420, Note_off_c, 1, 64, 0
3, 47420, Note_off_c, 1, 67, 0
3, 47420, Note_off_c, 1, 73, 0
3, 47424, Note_on_c, 1, 64, 58
3, 47424, Note_on_c, 1, 67, 58
3, 47424, Note_on_c, 1, 73, 58
3, 47612, Note_off_c, 1, 64, 0
3, 47612, Note_off_c, 1, 67, 0
3, 47612, Note_off_c, 1, 73, 0
3, 47616, Note_on_c, 1, 64, 58
3, 47616, Note_on_c, 1, 67, 58
3, 47616, Note_on_c, 1, 73, 58
3, 47804, Note_off_c, 1, 64, 0
3, 47804, Note_off_c, 1, 67, 0
3, 47804, Note_off_c, 1, 73, 0
3, 47808, Note_on_c, 1, 64, 58
3, 47808, Note_on_c, 1, 67, 58
3, 47808, Note_on_c, 1, 73, 58
3, 47996, Note_off_c, 1, 64, 0
3, 47996, Note_off_c, 1, 67, 0
3, 47996, Note_off_c, 1, 73, 0
3, 48000, Note_on_c, 1, 64, 58
3, 48000, Note_on_c, 1, 67, 58
3, 48000, Note_on_c, 1, 73, 58
3, 48188, Note_off_c, 1, 64, 0
3, 48188, Note_off_c, 1, 67, 0
3, 48188, Note_off_c, 1, 73, 0
3, 48192, Note_on_c, 1, 64, 58
3, 48192, Note_on_c, 1, 67, 58
3, 48192, Note_on_c, 1, 73, 58
3, 48380, Note_off_c, 1, 64, 0
3, 48380, Note_off_c, 1, 67, 0
3, 48380, Note_off_c, 1, 73, 0
3, 48384, Note_on_c, 1, 74, 58
3, 48384, Note_on_c, 1, 66, 58
3, 48384, Note_on_c, 1, 62, 58
3, 48572, Note_off_c, 1, 74, 0
3, 48572, Note_off_c, 1, 66, 0
3, 48572, Note_off_c, 1, 62, 0
3, 48576, Note_on_c, 1, 66, 58
3, 48576, Note_on_c, 1, 62, 58
3, 48576, Note_on_c, 1, 74, 58
3, 48764, Note_off_c, 1, 66, 0
3, 48764, Note_off_c, 1, 62, 0
3, 48768, Note_on_c, 1, 69, 58
3, 48768, Note_on_c, 1, 62, 58
3, 48956, Note_off_c, 1, 74, 0
3, 48956, Note_off_c, 1, 69, 0
3, 48956, Note_off_c, 1, 62, 0
3, 48960, Note_on_c, 1, 69, 58
3, 48960, Note_on_c, 1, 62, 58
3, 48960, Note_on_c, 1, 72, 58
3, 49148, Note_off_c, 1, 69, 0
3, 49148, Note_off_c, 1, 62, 0
3, 49148, Note_off_c, 1, 72, 0
3, 49152, Note_on_c, 1, 71, 58
3, 49152, Note_on_c, 1, 62, 58
3, 49340, Note_off_c, 1, 71, 0
3, 49340, Note_off_c, 1, 62, 0
3, 49344, Note_on_c, 1, 70, 58
3, 49344, Note_on_c, 1, 62, 58
3, 49532, Note_off_c, 1, 70, 0
3, 49532, Note_off_c, 1, 62, 0
3, 49536, Note_on_c, 1, 71, 58
3, 49536, Note_on_c, 1, 62, 58
3, 49724, Note_off_c, 1, 71, 0
3, 49724, Note_off_c, 1, 62, 0
3, 49920, Note_on_c, 1, 71, 58
3, 49920, Note_on_c, 1, 67, 58
3, 49920, Note_on_c, 1, 62, 58
3, 50108, Note_off_c, 1, 71, 0
3, 50108, Note_off_c, 1, 67, 0
3, 50108, Note_off_c, 1, 62, 0
3, 50304, Note_on_c, 1, 71, 58
3, 50304, Note_on_c, 1, 67, 58
3, 50304, Note_on_c, 1, 62, 58
3, 50492, Note_off_c, 1, 71, 0
3, 50492, Note_off_c, 1, 67, 0
3, 50492, Note_off_c, 1, 62, 0
3, 50688, Note_on_c, 1, 74, 58
3, 50688, Note_on_c, 1, 69, 58
3, 50688, Note_on_c, 1, 66, 58
3, 50876, Note_off_c, 1, 74, 0
3, 50876, Note_off_c, 1, 69, 0
3, 50876, Note_off_c, 1, 66, 0
3, 50880, Note_on_c, 1, 74, 58
3, 50880, Note_on_c, 1, 69, 58
3, 50880, Note_on_c, 1, 66, 58
3, 51068, Note_off_c, 1, 74, 0
3, 51068, Note_off_c, 1, 69, 0
3, 51068, Note_off_c, 1, 66, 0
3, 51072, Note_on_c, 1, 69, 58
3, 51072, Note_on_c, 1, 67, 58
3, 51088, Note_on_c, 1, 74, 58
3, 51260, Note_off_c, 1, 69, 0
3, 51260, Note_off_c, 1, 67, 0
3, 51264, Note_on_c, 1, 74, 58
3, 51264, Note_on_c, 1, 69, 58
3, 51264, Note_on_c, 1, 67, 58
3, 51276, Note_off_c, 1, 74, 0
3, 51452, Note_off_c, 1, 74, 0
3, 51452, Note_off_c, 1, 69, 0
3, 51452, Note_off_c, 1, 67, 0
3, 51456, Note_on_c, 1, 73, 58
3, 51456, Note_on_c, 1, 69, 58
3, 51456, Note_on_c, 1, 67, 58
3, 51644, Note_off_c, 1, 73, 0
3, 51644, Note_off_c, 1, 69, 0
3, 51644, Note_off_c, 1, 67, 0
3, 51648, Note_on_c, 1, 73, 58
3, 51648, Note_on_c, 1, 69, 58
3, 51648, Note_on_c, 1, 67, 58
3, 51836, Note_off_c, 1, 73, 0
3, 51836, Note_off_c, 1, 69, 0
3, 51836, Note_off_c, 1, 67, 0
3, 51840, Note_on_c, 1, 74, 58
3, 51840, Note_on_c, 1, 66, 58
3, 51964, Note_off_c, 1, 74, 0
3, 51964, Note_off_c, 1, 66, 0
3, 51968, Note_on_c, 1, 69, 58
3, 52092, Note_off_c, 1, 69, 0
3, 52096, Note_on_c, 1, 74, 58
3, 52220, Note_off_c, 1, 74, 0
3, 52224, Note_on_c, 1, 73, 58
3, 52348, Note_off_c, 1, 73, 0
3, 52352, Note_on_c, 1, 71, 58
3, 52476, Note_off_c, 1, 71, 0
3, 52480, Note_on_c, 1, 69, 58
3, 52604, Note_off_c, 1, 69, 0
3, 52608, Note_on_c, 1, 81, 66
3, 52988, Note_off_c, 1, 81, 0
3, 52992, Note_on_c, 1, 81, 66
3, 53756, Note_off_c, 1, 81, 0
3, 53760, Note_on_c, 1, 81, 66
3, 53852, Note_off_c, 1, 81, 0
3, 53856, Note_on_c, 1, 79, 66
3, 53948, Note_off_c, 1, 79, 0
3, 53952, Note_on_c, 1, 78, 66
3, 54044, Note_off_c, 1, 78, 0
3, 54048, Note_on_c, 1, 79, 66
3, 54140, Note_off_c, 1, 79, 0
3, 54144, Note_on_c, 1, 79, 66
3, 54236, Note_off_c, 1, 79, 0
3, 54240, Note_on_c, 1, 78, 66
3, 54620, Note_off_c, 1, 78, 0
3, 54656, Note_on_c, 1, 71, 58
3, 54776, Note_off_c, 1, 71, 0
3, 54784, Note_on_c, 1, 73, 58
3, 54904, Note_off_c, 1, 73, 0
3, 54912, Note_on_c, 1, 74, 58
3, 55032, Note_off_c, 1, 74, 0
3, 55040, Note_on_c, 1, 69, 58
3, 55160, Note_off_c, 1, 69, 0
3, 55168, Note_on_c, 1, 67, 58
3, 55288, Note_off_c, 1, 67, 0
3, 55296, Note_on_c, 1, 66, 58
3, 55416, Note_off_c, 1, 66, 0
3, 55424, Note_on_c, 1, 67, 58
3, 55544, Note_off_c, 1, 67, 0
3, 55552, Note_on_c, 1, 69, 58
3, 55672, Note_off_c, 1, 69, 0
3, 55680, Note_on_c, 1, 67, 58
3, 55800, Note_off_c, 1, 67, 0
3, 55808, Note_on_c, 1, 66, 58
3, 55928, Note_off_c, 1, 66, 0
3, 55936, Note_on_c, 1, 64, 58
3, 56056, Note_off_c, 1, 64, 0
3, 56064, Note_on_c, 1, 62, 58
3, 56064, Note_on_c, 1, 62, 66
3, 56184, Note_off_c, 1, 62, 0
3, 56192, Note_on_c, 1, 64, 58
3, 56252, Note_off_c, 1, 62, 0
3, 56312, Note_off_c, 1, 64, 0
3, 56320, Note_on_c, 1, 66, 58
3, 56440, Note_off_c, 1, 66, 0
3, 56448, Note_on_c, 1, 66, 58
3, 56568, Note_off_c, 1, 66, 0
3, 56576, Note_on_c, 1, 67, 58
3, 56696, Note_off_c, 1, 67, 0
3, 56704, Note_on_c, 1, 64, 58
3, 56824, Note_off_c, 1, 64, 0
3, 57216, Note_on_c, 1, 79, 66
3, 57344, Note_on_c, 1, 69, 58
3, 57464, Note_off_c, 1, 69, 0
3, 57472, Note_on_c, 1, 71, 58
3, 57592, Note_off_c, 1, 71, 0
3, 57596, Note_off_c, 1, 79, 0
3, 57600, Note_on_c, 1, 79, 66
3, 57600, Note_on_c, 1, 73, 58
3, 57720, Note_off_c, 1, 73, 0
3, 57728, Note_on_c, 1, 76, 58
3, 57848, Note_off_c, 1, 76, 0
3, 57856, Note_on_c, 1, 74, 58
3, 57976, Note_off_c, 1, 74, 0
3, 57984, Note_on_c, 1, 73, 58
3, 58104, Note_off_c, 1, 73, 0
3, 58112, Note_on_c, 1, 71, 58
3, 58232, Note_off_c, 1, 71, 0
3, 58240, Note_on_c, 1, 73, 58
3, 58360, Note_off_c, 1, 73, 0
3, 58364, Note_off_c, 1, 79, 0
3, 58368, Note_on_c, 1, 79, 66
3, 58368, Note_on_c, 1, 74, 66
3, 58460, Note_off_c, 1, 79, 0
3, 58460, Note_off_c, 1, 74, 0
3, 58464, Note_on_c, 1, 78, 66
3, 58556, Note_off_c, 1, 78, 0
3, 58560, Note_on_c, 1, 76, 66
3, 58652, Note_off_c, 1, 76, 0
3, 58656, Note_on_c, 1, 78, 66
3, 58748, Note_off_c, 1, 78, 0
3, 58752, Note_on_c, 1, 78, 66
3, 58752, Note_on_c, 1, 67, 58
3, 58832, Note_on_c, 1, 76, 66
3, 58844, Note_off_c, 1, 78, 0
3, 58872, Note_off_c, 1, 67, 0
3, 58880, Note_on_c, 1, 64, 58
3, 59000, Note_off_c, 1, 64, 0
3, 59008, Note_on_c, 1, 62, 58
3, 59128, Note_off_c, 1, 62, 0
3, 59136, Note_on_c, 1, 61, 58
3, 59212, Note_off_c, 1, 76, 0
3, 59256, Note_off_c, 1, 61, 0
3, 59264, Note_on_c, 1, 64, 58
3, 59384, Note_off_c, 1, 64, 0
3, 59392, Note_on_c, 1, 62, 58
3, 59512, Note_off_c, 1, 62, 0
3, 59520, Note_on_c, 1, 61, 58
3, 59640, Note_off_c, 1, 61, 0
3, 59648, Note_on_c, 1, 59, 58
3, 59768, Note_off_c, 1, 59, 0
3, 59776, Note_on_c, 1, 57, 58
3, 59896, Note_off_c, 1, 57, 0
3, 59904, Note_on_c, 1, 61, 58
3, 60024, Note_off_c, 1, 61, 0
3, 60032, Note_on_c, 1, 59, 58
3, 60152, Note_off_c, 1, 59, 0
3, 60160, Note_on_c, 1, 61, 58
3, 60280, Note_off_c, 1, 61, 0
3, 60288, Note_on_c, 1, 62, 58
3, 60408, Note_off_c, 1, 62, 0
3, 60416, Note_on_c, 1, 61, 58
3, 60536, Note_off_c, 1, 61, 0
3, 60544, Note_on_c, 1, 62, 58
3, 60664, Note_off_c, 1, 62, 0
3, 60672, Note_on_c, 1, 64, 58
3, 60792, Note_off_c, 1, 64, 0
3, 60800, Note_on_c, 1, 62, 58
3, 60920, Note_off_c, 1, 62, 0
3, 60928, Note_on_c, 1, 64, 58
3, 61048, Note_off_c, 1, 64, 0
3, 61056, Note_on_c, 1, 66, 58
3, 61176, Note_off_c, 1, 66, 0
3, 61184, Note_on_c, 1, 69, 58
3, 61304, Note_off_c, 1, 69, 0
3, 61312, Note_on_c, 1, 73, 58
3, 61432, Note_off_c, 1, 73, 0
3, 61440, Note_on_c, 1, 74, 58
3, 61560, Note_off_c, 1, 74, 0
3, 61568, Note_on_c, 1, 66, 58
3, 61688, Note_off_c, 1, 66, 0
3, 61696, Note_on_c, 1, 69, 58
3, 61816, Note_off_c, 1, 69, 0
3, 61824, Note_on_c, 1, 62, 58
3, 62204, Note_off_c, 1, 62, 0
3, 62208, Note_on_c, 1, 76, 58
3, 62208, Note_on_c, 1, 73, 58
3, 62588, Note_off_c, 1, 76, 0
3, 62588, Note_off_c, 1, 73, 0
3, 62592, Note_on_c, 1, 74, 58
3, 62592, Note_on_c, 1, 71, 58
3, 62972, Note_off_c, 1, 74, 0
3, 62972, Note_off_c, 1, 71, 0
3, 63360, Note_on_c, 1, 72, 58
3, 63360, Note_on_c, 1, 69, 58
3, 63740, Note_off_c, 1, 72, 0
3, 63740, Note_off_c, 1, 69, 0
3, 63744, Note_on_c, 1, 71, 58
3, 63744, Note_on_c, 1, 67, 58
3, 64124, Note_off_c, 1, 71, 0
3, 64124, Note_off_c, 1, 67, 0
3, 64512, Note_on_c, 1, 64, 58
3, 64892, Note_off_c, 1, 64, 0
3, 64896, Note_on_c, 1, 71, 58
3, 65276, Note_off_c, 1, 71, 0
3, 65280, Note_on_c, 1, 71, 58
3, 65660, Note_off_c, 1, 71, 0
3, 65664, Note_on_c, 1, 66, 58
3, 66044, Note_off_c, 1, 66, 0
3, 66048, Note_on_c, 1, 64, 58
3, 66428, Note_off_c, 1, 64, 0
3, 66432, Note_on_c, 1, 69, 79
3, 66812, Note_off_c, 1, 69, 0
3, 66816, Note_on_c, 1, 81, 79
3, 66816, Note_on_c, 1, 79, 79
3, 66816, Note_on_c, 1, 85, 79
3, 66908, Note_off_c, 1, 81, 0
3, 66908, Note_off_c, 1, 79, 0
3, 66912, Note_on_c, 1, 76, 79
3, 67004, Note_off_c, 1, 76, 0
3, 67008, Note_on_c, 1, 81, 79
3, 67008, Note_on_c, 1, 79, 79
3, 67100, Note_off_c, 1, 81, 0
3, 67100, Note_off_c, 1, 79, 0
3, 67104, Note_on_c, 1, 76, 79
3, 67196, Note_off_c, 1, 76, 0
3, 67200, Note_on_c, 1, 81, 79
3, 67200, Note_on_c, 1, 79, 79
3, 67292, Note_off_c, 1, 81, 0
3, 67292, Note_off_c, 1, 79, 0
3, 67296, Note_on_c, 1, 76, 79
3, 67388, Note_off_c, 1, 76, 0
3, 67392, Note_on_c, 1, 81, 79
3, 67392, Note_on_c, 1, 79, 79
3, 67484, Note_off_c, 1, 81, 0
3, 67484, Note_off_c, 1, 79, 0
3, 67488, Note_on_c, 1, 76, 79
3, 67580, Note_off_c, 1, 85, 0
3, 67580, Note_off_c, 1, 76, 0
3, 67584, Note_on_c, 1, 81, 79
3, 67584, Note_on_c, 1, 78, 79
3, 67584, Note_on_c, 1, 86, 79
3, 67628, Note_off_c, 1, 86, 0
3, 67632, Note_on_c, 1, 88, 79
3, 67676, Note_off_c, 1, 81, 0
3, 67676, Note_off_c, 1, 78, 0
3, 67676, Note_off_c, 1, 88, 0
3, 67680, Note_on_c, 1, 74, 79
3, 67680, Note_on_c, 1, 86, 79
3, 67724, Note_off_c, 1, 86, 0
3, 67728, Note_on_c, 1, 88, 79
3, 67772, Note_off_c, 1, 74, 0
3, 67772, Note_off_c, 1, 88, 0
3, 67776, Note_on_c, 1, 81, 79
3, 67776, Note_on_c, 1, 78, 79
3, 67776, Note_on_c, 1, 86, 79
3, 67820, Note_off_c, 1, 86, 0
3, 67824, Note_on_c, 1, 88, 79
3, 67868, Note_off_c, 1, 81, 0
3, 67868, Note_off_c, 1, 78, 0
3, 67868, Note_off_c, 1, 88, 0
3, 67872, Note_on_c, 1, 74, 79
3, 67872, Note_on_c, 1, 85, 79
3, 67916, Note_off_c, 1, 85, 0
3, 67920, Note_on_c, 1, 86, 79
3, 67964, Note_off_c, 1, 74, 0
3, 67964, Note_off_c, 1, 86, 0
3, 67968, Note_on_c, 1, 88, 79
3, 67968, Note_on_c, 1, 85, 79
3, 67968, Note_on_c, 1, 81, 79
3, 67968, Note_on_c, 1, 76, 79
3, 68156, Note_off_c, 1, 88, 0
3, 68156, Note_off_c, 1, 85, 0
3, 68156, Note_off_c, 1, 81, 0
3, 68156, Note_off_c, 1, 76, 0
3, 68160, Note_on_c, 1, 69, 58
3, 68348, Note_off_c, 1, 69, 0
3, 68352, Note_on_c, 1, 69, 58
3, 68540, Note_off_c, 1, 69, 0
3, 68544, Note_on_c, 1, 69, 58
3, 68732, Note_off_c, 1, 69, 0
3, 68736, Note_on_c, 1, 69, 58
3, 68924, Note_off_c, 1, 69, 0
3, 68928, Note_on_c, 1, 69, 58
3, 69116, Note_off_c, 1, 69, 0
3, 69120, Note_on_c, 1, 69, 58
3, 69120, Note_on_c, 1, 66, 58
3, 69120, Note_on_c, 1, 62, 58
3, 69308, Note_off_c, 1, 69, 0
3, 69308, Note_off_c, 1, 66, 0
3, 69308, Note_off_c, 1, 62, 0
3, 69504, Note_on_c, 1, 69, 58
3, 69504, Note_on_c, 1, 67, 58
3, 69504, Note_on_c, 1, 57, 58
3, 69692, Note_off_c, 1, 69, 0
3, 69692, Note_off_c, 1, 67, 0
3, 69692, Note_off_c, 1, 57, 0
3, 69888, Note_on_c, 1, 69, 58
3, 69888, Note_on_c, 1, 66, 58
3, 69888, Note_on_c, 1, 62, 58
3, 70076, Note_off_c, 1, 69, 0
3, 70076, Note_off_c, 1, 66, 0
3, 70076, Note_off_c, 1, 62, 0
3, 70272, Note_on_c, 1, 69, 58
3, 70272, Note_on_c, 1, 67, 58
3, 70272, Note_on_c, 1, 64, 58
3, 70652, Note_off_c, 1, 69, 0
3, 70652, Note_off_c, 1, 67, 0
3, 70652, Note_off_c, 1, 64, 0
3, 71424, Note_on_c, 1, 69, 58
3, 71424, Note_on_c, 1, 66, 58
3, 71424, Note_on_c, 1, 62, 58
3, 71612, Note_off_c, 1, 69, 0
3, 71612, Note_off_c, 1, 66, 0
3, 71612, Note_off_c, 1, 62, 0
3, 71792, Note_on_c, 1, 67, 58
3, 71808, Note_on_c, 1, 69, 58
3, 71980, Note_off_c, 1, 67, 0
3, 71996, Note_off_c, 1, 69, 0
3, 72192, Note_on_c, 1, 69, 58
3, 72192, Note_on_c, 1, 66, 58
3, 72192, Note_on_c, 1, 62, 58
3, 72380, Note_off_c, 1, 69, 0
3, 72380, Note_off_c, 1, 66, 0
3, 72380, Note_off_c, 1, 62, 0
3, 72576, Note_on_c, 1, 69, 58
3, 72576, Note_on_c, 1, 67, 58
3, 72576, Note_on_c, 1, 64, 58
3, 72956, Note_off_c, 1, 69, 0
3, 72956, Note_off_c, 1, 67, 0
3, 72956, Note_off_c, 1, 64, 0
3, 73152, Note_on_c, 1, 69, 58
3, 73152, Note_on_c, 1, 67, 58
3, 73168, Note_on_c, 1, 64, 58
3, 73340, Note_off_c, 1, 69, 0
3, 73340, Note_off_c, 1, 67, 0
3, 73344, Note_on_c, 1, 69, 58
3, 73344, Note_on_c, 1, 67, 58
3, 73344, Note_on_c, 1, 64, 58
3, 73356, Note_off_c, 1, 64, 0
3, 73532, Note_off_c, 1, 69, 0
3, 73532, Note_off_c, 1, 67, 0
3, 73532, Note_off_c, 1, 64, 0
3, 73536, Note_on_c, 1, 69, 58
3, 73536, Note_on_c, 1, 67, 58
3, 73536, Note_on_c, 1, 64, 58
3, 73724, Note_off_c, 1, 69, 0
3, 73724, Note_off_c, 1, 67, 0
3, 73724, Note_off_c, 1, 64, 0
3, 73728, Note_on_c, 1, 69, 58
3, 73728, Note_on_c, 1, 66, 58
3, 73728, Note_on_c, 1, 62, 58
3, 74108, Note_off_c, 1, 69, 0
3, 74108, Note_off_c, 1, 66, 0
3, 74108, Note_off_c, 1, 62, 0
3, 74304, Note_on_c, 1, 74, 58
3, 74304, Note_on_c, 1, 69, 58
3, 74304, Note_on_c, 1, 62, 58
3, 74492, Note_off_c, 1, 74, 0
3, 74492, Note_off_c, 1, 69, 0
3, 74492, Note_off_c, 1, 62, 0
3, 74496, Note_on_c, 1, 74, 58
3, 74496, Note_on_c, 1, 69, 58
3, 74496, Note_on_c, 1, 62, 58
3, 74684, Note_off_c, 1, 74, 0
3, 74684, Note_off_c, 1, 69, 0
3, 74684, Note_off_c, 1, 62, 0
3, 74688, Note_on_c, 1, 74, 58
3, 74688, Note_on_c, 1, 69, 58
3, 74688, Note_on_c, 1, 62, 58
3, 74876, Note_off_c, 1, 74, 0
3, 74876, Note_off_c, 1, 69, 0
3, 74876, Note_off_c, 1, 62, 0
3, 74880, Note_on_c, 1, 74, 58
3, 74880, Note_on_c, 1, 71, 58
3, 74880, Note_on_c, 1, 67, 58
3, 75452, Note_off_c, 1, 74, 0
3, 75452, Note_off_c, 1, 71, 0
3, 75452, Note_off_c, 1, 67, 0
3, 76032, Note_on_c, 1, 76, 58
3, 76032, Note_on_c, 1, 74, 58
3, 76032, Note_on_c, 1, 64, 58
3, 76796, Note_off_c, 1, 76, 0
3, 76796, Note_off_c, 1, 74, 0
3, 76796, Note_off_c, 1, 64, 0
3, 76800, Note_on_c, 1, 74, 58
3, 76800, Note_on_c, 1, 78, 58
3, 76988, Note_off_c, 1, 78, 0
3, 76992, Note_on_c, 1, 76, 58
3, 77180, Note_off_c, 1, 74, 0
3, 77180, Note_off_c, 1, 76, 0
3, 77184, Note_on_c, 1, 76, 58
3, 77184, Note_on_c, 1, 73, 58
3, 77184, Note_on_c, 1, 64, 58
3, 77564, Note_off_c, 1, 76, 0
3, 77564, Note_off_c, 1, 73, 0
3, 77564, Note_off_c, 1, 64, 0
3, 77568, Note_on_c, 1, 78, 58
3, 77568, Note_on_c, 1, 74, 58
3, 77568, Note_on_c, 1, 66, 58
3, 77948, Note_off_c, 1, 78, 0
3, 77948, Note_off_c, 1, 74, 0
3, 77948, Note_off_c, 1, 66, 0
3, 77952, Note_on_c, 1, 79, 58
3, 77952, Note_on_c, 1, 76, 58
3, 77952, Note_on_c, 1, 67, 58
3, 78332, Note_off_c, 1, 79, 0
3, 78332, Note_off_c, 1, 76, 0
3, 78332, Note_off_c, 1, 67, 0
3, 78336, Note_on_c, 1, 81, 58
3, 78336, Note_on_c, 1, 78, 58
3, 78336, Note_on_c, 1, 69, 58
3, 78908, Note_off_c, 1, 81, 0
3, 78908, Note_off_c, 1, 78, 0
3, 78908, Note_off_c, 1, 69, 0
3, 78912, Note_on_c, 1, 79, 58
3, 78912, Note_on_c, 1, 76, 58
3, 79100, Note_off_c, 1, 79, 0
3, 79100, Note_off_c, 1, 76, 0
3, 79104, Note_on_c, 1, 78, 58
3, 79104, Note_on_c, 1, 74, 58
3, 79484, Note_off_c, 1, 78, 0
3, 79484, Note_off_c, 1, 74, 0
3, 79488, Note_on_c, 1, 81, 58
3, 79580, Note_off_c, 1, 81, 0
3, 79584, Note_on_c, 1, 76, 58
3, 79584, Note_on_c, 1, 71, 58
3, 79584, Note_on_c, 1, 79, 58
3, 79872, Note_off_c, 1, 76, 0
3, 79872, Note_off_c, 1, 71, 0
3, 79872, Note_off_c, 1, 79, 0
3, 79872, Note_on_c, 1, 78, 58
3, 79872, Note_on_c, 1, 74, 58
3, 79872, Note_on_c, 1, 69, 58
3, 80252, Note_off_c, 1, 78, 0
3, 80252, Note_off_c, 1, 74, 0
3, 80256, Note_on_c, 1, 76, 58
3, 80256, Note_on_c, 1, 73, 58
3, 80636, Note_off_c, 1, 69, 0
3, 80636, Note_off_c, 1, 76, 0
3, 80636, Note_off_c, 1, 73, 0
3, 80640, Note_on_c, 1, 74, 58
3, 80828, Note_off_c, 1, 74, 0
3, 80832, Note_on_c, 1, 71, 58
3, 81020, Note_off_c, 1, 71, 0
3, 81024, Note_on_c, 1, 74, 58
3, 81212, Note_off_c, 1, 74, 0
3, 81216, Note_on_c, 1, 71, 58
3, 81404, Note_off_c, 1, 71, 0
3, 81408, Note_on_c, 1, 74, 58
3, 81596, Note_off_c, 1, 74, 0
3, 81600, Note_on_c, 1, 71, 58
3, 81788, Note_off_c, 1, 71, 0
3, 81792, Note_on_c, 1, 73, 58
3, 81792, Note_on_c, 1, 69, 58
3, 82172, Note_off_c, 1, 73, 0
3, 82176, Note_on_c, 1, 74, 58
3, 82556, Note_off_c, 1, 69, 0
3, 82556, Note_off_c, 1, 74, 0
3, 82560, Note_on_c, 1, 76, 58
3, 82560, Note_on_c, 1, 67, 58
3, 82940, Note_off_c, 1, 76, 0
3, 82940, Note_off_c, 1, 67, 0
3, 83136, Note_on_c, 1, 66, 58
3, 83136, Note_on_c, 1, 78, 58
3, 83324, Note_off_c, 1, 66, 0
3, 83328, Note_on_c, 1, 69, 58
3, 83516, Note_off_c, 1, 78, 0
3, 83520, Note_on_c, 1, 76, 58
3, 83612, Note_off_c, 1, 76, 0
3, 83708, Note_off_c, 1, 69, 0
3, 83712, Note_on_c, 1, 71, 58
3, 83712, Note_on_c, 1, 74, 58
3, 84092, Note_off_c, 1, 71, 0
3, 84092, Note_off_c, 1, 74, 0
3, 84096, Note_on_c, 1, 78, 58
3, 84188, Note_off_c, 1, 78, 0
3, 84192, Note_on_c, 1, 67, 58
3, 84192, Note_on_c, 1, 76, 58
3, 84480, Note_off_c, 1, 67, 0
3, 84480, Note_off_c, 1, 76, 0
3, 84480, Note_on_c, 1, 74, 58
3, 84480, Note_on_c, 1, 69, 58
3, 84860, Note_off_c, 1, 74, 0
3, 84860, Note_off_c, 1, 69, 0
3, 84864, Note_on_c, 1, 73, 58
3, 84864, Note_on_c, 1, 67, 58
3, 85244, Note_off_c, 1, 73, 0
3, 85244, Note_off_c, 1, 67, 0
3, 85248, Note_on_c, 1, 74, 58
3, 85248, Note_on_c, 1, 66, 58
3, 85628, Note_off_c, 1, 74, 0
3, 85628, Note_off_c, 1, 66, 0
3, 86016, Note_on_c, 1, 69, 58
3, 86016, Note_on_c, 1, 62, 58
3, 86396, Note_off_c, 1, 69, 0
3, 86396, Note_off_c, 1, 62, 0
3, 86400, Note_on_c, 1, 71, 58
3, 86400, Note_on_c, 1, 62, 58
3, 86780, Note_off_c, 1, 71, 0
3, 86780, Note_off_c, 1, 62, 0
3, 87168, Note_on_c, 1, 66, 58
3, 87168, Note_on_c, 1, 59, 58
3, 87548, Note_off_c, 1, 66, 0
3, 87548, Note_off_c, 1, 59, 0
3, 87552, Note_on_c, 1, 67, 58
3, 87552, Note_on_c, 1, 59, 58
3, 87932, Note_off_c, 1, 67, 0
3, 87932, Note_off_c, 1, 59, 0
3, 88320, Note_on_c, 1, 69, 58
3, 88320, Note_on_c, 1, 67, 58
3, 88320, Note_on_c, 1, 64, 58
3, 88700, Note_off_c, 1, 69, 0
3, 88700, Note_off_c, 1, 67, 0
3, 88700, Note_off_c, 1, 64, 0
3, 88704, Note_on_c, 1, 69, 58
3, 88704, Note_on_c, 1, 66, 58
3, 88704, Note_on_c, 1, 62, 58
3, 88892, Note_off_c, 1, 69, 0
3, 88892, Note_off_c, 1, 66, 0
3, 88892, Note_off_c, 1, 62, 0
3, 88896, Note_on_c, 1, 74, 58
3, 88896, Note_on_c, 1, 66, 58
3, 89084, Note_off_c, 1, 74, 0
3, 89084, Note_off_c, 1, 66, 0
3, 89088, Note_on_c, 1, 74, 58
3, 89088, Note_on_c, 1, 71, 58
3, 89088, Note_on_c, 1, 64, 58
3, 89276, Note_off_c, 1, 74, 0
3, 89276, Note_off_c, 1, 71, 0
3, 89276, Note_off_c, 1, 64, 0
3, 89280, Note_on_c, 1, 74, 58
3, 89280, Note_on_c, 1, 71, 58
3, 89280, Note_on_c, 1, 64, 58
3, 89468, Note_off_c, 1, 74, 0
3, 89468, Note_off_c, 1, 71, 0
3, 89468, Note_off_c, 1, 64, 0
3, 89472, Note_on_c, 1, 73, 58
3, 89472, Note_on_c, 1, 69, 58
3, 89472, Note_on_c, 1, 67, 58
3, 89660, Note_off_c, 1, 73, 0
3, 89660, Note_off_c, 1, 69, 0
3, 89660, Note_off_c, 1, 67, 0
3, 89664, Note_on_c, 1, 73, 58
3, 89664, Note_on_c, 1, 69, 58
3, 89664, Note_on_c, 1, 67, 58
3, 89852, Note_off_c, 1, 73, 0
3, 89852, Note_off_c, 1, 69, 0
3, 89852, Note_off_c, 1, 67, 0
3, 89856, Note_on_c, 1, 74, 58
3, 89856, Note_on_c, 1, 69, 58
3, 89856, Note_on_c, 1, 66, 58
3, 90236, Note_off_c, 1, 74, 0
3, 90236, Note_off_c, 1, 69, 0
3, 90236, Note_off_c, 1, 66, 0
3, 90624, Note_on_c, 1, 81, 58
3, 90624, Note_on_c, 1, 69, 58
3, 91004, Note_off_c, 1, 81, 0
3, 91004, Note_off_c, 1, 69, 0
3, 91008, Note_on_c, 1, 83, 58
3, 91008, Note_on_c, 1, 71, 58
3, 91388, Note_off_c, 1, 83, 0
3, 91388, Note_off_c, 1, 71, 0
3, 91776, Note_on_c, 1, 78, 58
3, 91776, Note_on_c, 1, 66, 58
3, 92156, Note_off_c, 1, 78, 0
3, 92156, Note_off_c, 1, 66, 0
3, 92160, Note_on_c, 1, 79, 58
3, 92160, Note_on_c, 1, 67, 58
3, 92540, Note_off_c, 1, 79, 0
3, 92540, Note_off_c, 1, 67, 0
3, 92928, Note_on_c, 1, 69, 58
3, 92928, Note_on_c, 1, 67, 58
3, 92928, Note_on_c, 1, 64, 58
3, 93116, Note_off_c, 1, 69, 0
3, 93116, Note_off_c, 1, 67, 0
3, 93116, Note_off_c, 1, 64, 0
3, 93120, Note_on_c, 1, 69, 58
3, 93120, Note_on_c, 1, 67, 58
3, 93120, Note_on_c, 1, 64, 58
3, 93308, Note_off_c, 1, 69, 0
3, 93308, Note_off_c, 1, 67, 0
3, 93308, Note_off_c, 1, 64, 0
3, 93312, Note_on_c, 1, 69, 58
3, 93312, Note_on_c, 1, 66, 58
3, 93312, Note_on_c, 1, 62, 58
3, 93500, Note_off_c, 1, 69, 0
3, 93500, Note_off_c, 1, 66, 0
3, 93500, Note_off_c, 1, 62, 0
3, 93504, Note_on_c, 1, 74, 58
3, 93504, Note_on_c, 1, 66, 58
3, 93692, Note_off_c, 1, 74, 0
3, 93692, Note_off_c, 1, 66, 0
3, 93696, Note_on_c, 1, 74, 58
3, 93696, Note_on_c, 1, 71, 58
3, 93696, Note_on_c, 1, 64, 58
3, 93884, Note_off_c, 1, 74, 0
3, 93884, Note_off_c, 1, 71, 0
3, 93884, Note_off_c, 1, 64, 0
3, 93888, Note_on_c, 1, 74, 58
3, 93888, Note_on_c, 1, 71, 58
3, 93888, Note_on_c, 1, 64, 58
3, 94076, Note_off_c, 1, 74, 0
3, 94076, Note_off_c, 1, 71, 0
3, 94076, Note_off_c, 1, 64, 0
3, 94080, Note_on_c, 1, 73, 58
3, 94080, Note_on_c, 1, 69, 58
3, 94080, Note_on_c, 1, 67, 58
3, 94268, Note_off_c, 1, 73, 0
3, 94268, Note_off_c, 1, 69, 0
3, 94268, Note_off_c, 1, 67, 0
3, 94272, Note_on_c, 1, 73, 58
3, 94272, Note_on_c, 1, 69, 58
3, 94272, Note_on_c, 1, 67, 58
3, 94460, Note_off_c, 1, 73, 0
3, 94460, Note_off_c, 1, 69, 0
3, 94460, Note_off_c, 1, 67, 0
3, 94464, Note_on_c, 1, 74, 79
3, 94464, Note_on_c, 1, 69, 79
3, 94464, Note_on_c, 1, 66, 79
3, 94652, Note_off_c, 1, 74, 0
3, 94652, Note_off_c, 1, 69, 0
3, 94652, Note_off_c, 1, 66, 0
3, 94656, Note_on_c, 1, 62, 79
3, 94656, Note_on_c, 1, 62, 79
3, 94748, Note_off_c, 1, 62, 0
3, 94752, Note_on_c, 1, 66, 79
3, 94844, Note_off_c, 1, 62, 0
3, 94844, Note_off_c, 1, 66, 0
3, 94848, Note_on_c, 1, 61, 79
3, 94848, Note_on_c, 1, 64, 79
3, 94940, Note_off_c, 1, 64, 0
3, 94944, Note_on_c, 1, 67, 79
3, 95036, Note_off_c, 1, 61, 0
3, 95036, Note_off_c, 1, 67, 0
3, 95040, Note_on_c, 1, 60, 79
3, 95040, Note_on_c, 1, 66, 79
3, 95132, Note_off_c, 1, 66, 0
3, 95136, Note_on_c, 1, 69, 79
3, 95228, Note_off_c, 1, 60, 0
3, 95228, Note_off_c, 1, 69, 0
3, 95232, Note_on_c, 1, 62, 79
3, 95232, Note_on_c, 1, 67, 79
3, 95324, Note_off_c, 1, 67, 0
3, 95328, Note_on_c, 1, 71, 79
3, 95420, Note_off_c, 1, 62, 0
3, 95420, Note_off_c, 1, 71, 0
3, 95424, Note_on_c, 1, 66, 79
3, 95424, Note_on_c, 1, 69, 79
3, 95516, Note_off_c, 1, 69, 0
3, 95520, Note_on_c, 1, 72, 79
3, 95612, Note_off_c, 1, 66, 0
3, 95612, Note_off_c, 1, 72, 0
3, 95616, Note_on_c, 1, 67, 79
3, 95616, Note_on_c, 1, 71, 79
3, 95708, Note_off_c, 1, 71, 0
3, 95712, Note_on_c, 1, 74, 79
3, 95804, Note_off_c, 1, 67, 0
3, 95804, Note_off_c, 1, 74, 0
3, 95808, Note_on_c, 1, 66, 79
3, 95808, Note_on_c, 1, 72, 79
3, 95900, Note_off_c, 1, 72, 0
3, 95904, Note_on_c, 1, 69, 79
3, 95996, Note_off_c, 1, 66, 0
3, 95996, Note_off_c, 1, 69, 0
3, 96000, Note_on_c, 1, 67, 79
3, 96000, Note_on_c, 1, 71, 79
3, 96092, Note_off_c, 1, 71, 0
3, 96096, Note_on_c, 1, 74, 79
3, 96188, Note_off_c, 1, 67, 0
3, 96188, Note_off_c, 1, 74, 0
3, 96192, Note_on_c, 1, 64, 79
3, 96192, Note_on_c, 1, 73, 79
3, 96284, Note_off_c, 1, 73, 0
3, 96288, Note_on_c, 1, 76, 79
3, 96380, Note_off_c, 1, 64, 0
3, 96380, Note_off_c, 1, 76, 0
3, 96384, Note_on_c, 1, 69, 79
3, 96384, Note_on_c, 1, 74, 79
3, 96476, Note_off_c, 1, 74, 0
3, 96480, Note_on_c, 1, 78, 79
3, 96572, Note_off_c, 1, 69, 0
3, 96572, Note_off_c, 1, 78, 0
3, 96576, Note_on_c, 1, 73, 79
3, 96576, Note_on_c, 1, 76, 79
3, 96668, Note_off_c, 1, 76, 0
3, 96672, Note_on_c, 1, 78, 79
3, 96764, Note_off_c, 1, 73, 0
3, 96764, Note_off_c, 1, 78, 0
3, 96768, Note_on_c, 1, 78, 79
3, 96768, Note_on_c, 1, 74, 79
3, 96956, Note_off_c, 1, 78, 0
3, 96956, Note_off_c, 1, 74, 0
3, 96960, Note_on_c, 1, 62, 58
3, 97148, Note_off_c, 1, 62, 0
3, 97152, Note_on_c, 1, 62, 58
3, 97340, Note_off_c, 1, 62, 0
3, 97344, Note_on_c, 1, 64, 58
3, 97344, Note_on_c, 1, 61, 58
3, 97532, Note_off_c, 1, 64, 0
3, 97532, Note_off_c, 1, 61, 0
3, 97536, Note_on_c, 1, 66, 58
3, 97536, Note_on_c, 1, 60, 58
3, 97724, Note_off_c, 1, 66, 0
3, 97724, Note_off_c, 1, 60, 0
3, 97728, Note_on_c, 1, 67, 58
3, 97728, Note_on_c, 1, 59, 58
3, 97916, Note_off_c, 1, 67, 0
3, 97916, Note_off_c, 1, 59, 0
3, 97920, Note_on_c, 1, 72, 58
3, 98108, Note_off_c, 1, 72, 0
3, 98112, Note_on_c, 1, 71, 58
3, 98288, Note_on_c, 1, 67, 58
3, 98300, Note_off_c, 1, 71, 0
3, 98304, Note_on_c, 1, 60, 58
3, 98476, Note_off_c, 1, 67, 0
3, 98492, Note_off_c, 1, 60, 0
3, 98496, Note_on_c, 1, 72, 58
3, 98496, Note_on_c, 1, 69, 58
3, 98684, Note_off_c, 1, 72, 0
3, 98684, Note_off_c, 1, 69, 0
3, 98688, Note_on_c, 1, 71, 58
3, 98688, Note_on_c, 1, 67, 58
3, 98876, Note_off_c, 1, 71, 0
3, 98876, Note_off_c, 1, 67, 0
3, 98880, Note_on_c, 1, 69, 58
3, 98880, Note_on_c, 1, 66, 58
3, 99068, Note_off_c, 1, 69, 0
3, 99068, Note_off_c, 1, 66, 0
3, 99072, Note_on_c, 1, 71, 58
3, 99072, Note_on_c, 1, 67, 58
3, 99452, Note_off_c, 1, 71, 0
3, 99452, Note_off_c, 1, 67, 0
3, 99456, Note_on_c, 1, 71, 58
3, 99836, Note_off_c, 1, 71, 0
3, 99840, Note_on_c, 1, 71, 58
3, 100220, Note_off_c, 1, 71, 0
3, 100224, Note_on_c, 1, 71, 58
3, 100604, Note_off_c, 1, 71, 0
3, 100608, Note_on_c, 1, 74, 58
3, 100988, Note_off_c, 1, 74, 0
3, 100992, Note_on_c, 1, 71, 58
3, 101084, Note_off_c, 1, 71, 0
3, 101088, Note_on_c, 1, 69, 58
3, 101180, Note_off_c, 1, 69, 0
3, 101184, Note_on_c, 1, 71, 58
3, 101276, Note_off_c, 1, 71, 0
3, 101280, Note_on_c, 1, 67, 58
3, 101372, Note_off_c, 1, 67, 0
3, 101376, Note_on_c, 1, 66, 58
3, 101756, Note_off_c, 1, 66, 0
3, 101760, Note_on_c, 1, 69, 58
3, 102140, Note_off_c, 1, 69, 0
3, 102144, Note_on_c, 1, 69, 58
3, 102236, Note_off_c, 1, 69, 0
3, 102240, Note_on_c, 1, 67, 58
3, 102332, Note_off_c, 1, 67, 0
3, 102336, Note_on_c, 1, 69, 58
3, 102428, Note_off_c, 1, 69, 0
3, 102432, Note_on_c, 1, 66, 58
3, 102524, Note_off_c, 1, 66, 0
3, 102528, Note_on_c, 1, 62, 58
3, 102908, Note_off_c, 1, 62, 0
3, 102912, Note_on_c, 1, 67, 58
3, 103292, Note_off_c, 1, 67, 0
3, 103296, Note_on_c, 1, 66, 58
3, 103676, Note_off_c, 1, 66, 0
3, 103680, Note_on_c, 1, 67, 58
3, 104060, Note_off_c, 1, 67, 0
3, 104064, Note_on_c, 1, 66, 58
3, 104444, Note_off_c, 1, 66, 0
3, 104448, Note_on_c, 1, 64, 58
3, 104828, Note_off_c, 1, 64, 0
3, 104832, Note_on_c, 1, 62, 58
3, 105212, Note_off_c, 1, 62, 0
3, 105216, Note_on_c, 1, 66, 58
3, 105404, Note_off_c, 1, 66, 0
3, 105408, Note_on_c, 1, 67, 58
3, 105596, Note_off_c, 1, 67, 0
3, 105792, Note_on_c, 1, 62, 58
3, 105980, Note_off_c, 1, 62, 0
3, 105984, Note_on_c, 1, 64, 58
3, 106364, Note_off_c, 1, 64, 0
3, 106368, Note_on_c, 1, 68, 58
3, 106556, Note_off_c, 1, 68, 0
3, 106560, Note_on_c, 1, 69, 58
3, 106748, Note_off_c, 1, 69, 0
3, 106944, Note_on_c, 1, 76, 58
3, 107132, Note_off_c, 1, 76, 0
3, 107136, Note_on_c, 1, 71, 58
3, 107324, Note_off_c, 1, 71, 0
3, 107328, Note_on_c, 1, 69, 58
3, 107516, Note_off_c, 1, 69, 0
3, 107520, Note_on_c, 1, 67, 58
3, 107708, Note_off_c, 1, 67, 0
3, 107712, Note_on_c, 1, 66, 58
3, 107900, Note_off_c, 1, 66, 0
3, 107904, Note_on_c, 1, 69, 58
3, 108092, Note_off_c, 1, 69, 0
3, 108096, Note_on_c, 1, 66, 58
3, 108284, Note_off_c, 1, 66, 0
3, 108288, Note_on_c, 1, 74, 79
3, 108288, Note_on_c, 1, 71, 79
3, 108288, Note_on_c, 1, 67, 79
3, 108288, Note_on_c, 1, 62, 79
3, 108668, Note_off_c, 1, 74, 0
3, 108668, Note_off_c, 1, 71, 0
3, 108668, Note_off_c, 1, 67, 0
3, 108668, Note_off_c, 1, 62, 0
3, 108672, Note_on_c, 1, 74, 79
3, 108672, Note_on_c, 1, 71, 79
3, 108672, Note_on_c, 1, 67, 79
3, 108672, Note_on_c, 1, 62, 79
3, 109052, Note_off_c, 1, 74, 0
3, 109052, Note_off_c, 1, 71, 0
3, 109052, Note_off_c, 1, 67, 0
3, 109052, Note_off_c, 1, 62, 0
3, 109056, Note_on_c, 1, 74, 79
3, 109056, Note_on_c, 1, 71, 79
3, 109056, Note_on_c, 1, 67, 79
3, 109056, Note_on_c, 1, 62, 79
3, 109436, Note_off_c, 1, 74, 0
3, 109436, Note_off_c, 1, 71, 0
3, 109436, Note_off_c, 1, 67, 0
3, 109436, Note_off_c, 1, 62, 0
3, 109440, Note_on_c, 1, 74, 79
3, 109440, Note_on_c, 1, 71, 79
3, 109440, Note_on_c, 1, 67, 79
3, 109440, Note_on_c, 1, 62, 79
3, 109628, Note_off_c, 1, 74, 0
3, 109628, Note_off_c, 1, 71, 0
3, 109628, Note_off_c, 1, 67, 0
3, 109628, Note_off_c, 1, 62, 0
3, 109632, Note_on_c, 1, 71, 79
3, 109820, Note_off_c, 1, 71, 0
3, 109824, Note_on_c, 1, 67, 79
3, 110012, Note_off_c, 1, 67, 0
3, 110016, Note_on_c, 1, 62, 79
3, 110204, Note_off_c, 1, 62, 0
3, 110208, Note_on_c, 1, 74, 79
3, 110208, Note_on_c, 1, 71, 79
3, 110300, Note_off_c, 1, 74, 0
3, 110300, Note_off_c, 1, 71, 0
3, 110304, Note_on_c, 1, 72, 79
3, 110396, Note_off_c, 1, 72, 0
3, 110400, Note_on_c, 1, 74, 79
3, 110492, Note_off_c, 1, 74, 0
3, 110496, Note_on_c, 1, 71, 79
3, 110496, Note_on_c, 1, 67, 79
3, 110588, Note_off_c, 1, 71, 0
3, 110588, Note_off_c, 1, 67, 0
3, 110592, Note_on_c, 1, 72, 79
3, 110592, Note_on_c, 1, 66, 79
3, 110780, Note_off_c, 1, 72, 0
3, 110780, Note_off_c, 1, 66, 0
3, 110784, Note_on_c, 1, 69, 79
3, 110972, Note_off_c, 1, 69, 0
3, 110976, Note_on_c, 1, 66, 79
3, 111164, Note_off_c, 1, 66, 0
3, 111168, Note_on_c, 1, 62, 79
3, 111356, Note_off_c, 1, 62, 0
3, 111360, Note_on_c, 1, 72, 79
3, 111360, Note_on_c, 1, 67, 79
3, 111452, Note_off_c, 1, 72, 0
3, 111452, Note_off_c, 1, 67, 0
3, 111456, Note_on_c, 1, 71, 79
3, 111548, Note_off_c, 1, 71, 0
3, 111552, Note_on_c, 1, 72, 79
3, 111644, Note_off_c, 1, 72, 0
3, 111648, Note_on_c, 1, 69, 79
3, 111648, Note_on_c, 1, 66, 79
3, 111740, Note_off_c, 1, 69, 0
3, 111740, Note_off_c, 1, 66, 0
3, 111744, Note_on_c, 1, 67, 79
3, 111744, Note_on_c, 1, 67, 79
3, 112124, Note_off_c, 1, 67, 0
3, 112128, Note_on_c, 1, 62, 79
3, 112316, Note_off_c, 1, 67, 0
3, 112320, Note_on_c, 1, 69, 79
3, 112412, Note_off_c, 1, 69, 0
3, 112416, Note_on_c, 1, 71, 79
3, 112508, Note_off_c, 1, 62, 0
3, 112508, Note_off_c, 1, 71, 0
3, 112512, Note_on_c, 1, 69, 79
3, 112512, Note_on_c, 1, 66, 79
3, 112892, Note_off_c, 1, 69, 0
3, 112892, Note_off_c, 1, 66, 0
3, 112896, Note_on_c, 1, 79, 79
3, 113088, Note_on_c, 1, 84, 79
3, 113088, Note_on_c, 1, 72, 79
3, 113276, Note_off_c, 1, 79, 0
3, 113276, Note_off_c, 1, 84, 0
3, 113276, Note_off_c, 1, 72, 0
3, 113280, Note_on_c, 1, 78, 79
3, 113280, Note_on_c, 1, 84, 79
3, 113280, Note_on_c, 1, 72, 79
3, 113468, Note_off_c, 1, 84, 0
3, 113468, Note_off_c, 1, 72, 0
3, 113472, Note_on_c, 1, 83, 79
3, 113472, Note_on_c, 1, 71, 79
3, 113660, Note_off_c, 1, 78, 0
3, 113660, Note_off_c, 1, 83, 0
3, 113660, Note_off_c, 1, 71, 0
3, 113664, Note_on_c, 1, 76, 79
3, 113664, Note_on_c, 1, 83, 79
3, 113664, Note_on_c, 1, 71, 79
3, 113852, Note_off_c, 1, 83, 0
3, 113852, Note_off_c, 1, 71, 0
3, 113856, Note_on_c, 1, 81, 79
3, 113856, Note_on_c, 1, 69, 79
3, 114044, Note_off_c, 1, 76, 0
3, 114044, Note_off_c, 1, 81, 0
3, 114044, Note_off_c, 1, 69, 0
3, 114048, Note_on_c, 1, 75, 79
3, 114048, Note_on_c, 1, 72, 79
3, 114048, Note_on_c, 1, 69, 79
3, 114236, Note_off_c, 1, 75, 0
3, 114240, Note_on_c, 1, 76, 79
3, 114428, Note_off_c, 1, 72, 0
3, 114428, Note_off_c, 1, 69, 0
3, 114428, Note_off_c, 1, 76, 0
3, 114432, Note_on_c, 1, 74, 79
3, 114432, Note_on_c, 1, 64, 79
3, 114620, Note_off_c, 1, 74, 0
3, 114624, Note_on_c, 1, 72, 79
3, 114812, Note_off_c, 1, 64, 0
3, 114812, Note_off_c, 1, 72, 0
3, 114816, Note_on_c, 1, 71, 79
3, 114816, Note_on_c, 1, 66, 79
3, 115004, Note_off_c, 1, 71, 0
3, 115008, Note_on_c, 1, 69, 79
3, 115196, Note_off_c, 1, 66, 0
3, 115196, Note_off_c, 1, 69, 0
3, 115200, Note_on_c, 1, 74, 79
3, 115484, Note_off_c, 1, 74, 0
3, 115488, Note_on_c, 1, 67, 79
3, 115580, Note_off_c, 1, 67, 0
3, 115584, Note_on_c, 1, 69, 79
3, 115628, Note_off_c, 1, 69, 0
3, 115632, Note_on_c, 1, 71, 79
3, 115676, Note_off_c, 1, 71, 0
3, 115680, Note_on_c, 1, 69, 79
3, 115724, Note_off_c, 1, 69, 0
3, 115728, Note_on_c, 1, 71, 79
3, 115772, Note_off_c, 1, 71, 0
3, 115776, Note_on_c, 1, 69, 79
3, 115820, Note_off_c, 1, 69, 0
3, 115824, Note_on_c, 1, 71, 79
3, 115868, Note_off_c, 1, 71, 0
3, 115872, Note_on_c, 1, 69, 79
3, 115916, Note_off_c, 1, 69, 0
3, 115920, Note_on_c, 1, 71, 79
3, 115964, Note_off_c, 1, 71, 0
3, 115968, Note_on_c, 1, 69, 79
3, 116012, Note_off_c, 1, 69, 0
3, 116016, Note_on_c, 1, 71, 79
3, 116060, Note_off_c, 1, 71, 0
3, 116064, Note_on_c, 1, 69, 79
3, 116108, Note_off_c, 1, 69, 0
3, 116112, Note_on_c, 1, 71, 79
3, 116156, Note_off_c, 1, 71, 0
3, 116160, Note_on_c, 1, 69, 79
3, 116204, Note_off_c, 1, 69, 0
3, 116208, Note_on_c, 1, 71, 79
3, 116252, Note_off_c, 1, 71, 0
3, 116256, Note_on_c, 1, 67, 79
3, 116300, Note_off_c, 1, 67, 0
3, 116304, Note_on_c, 1, 69, 79
3, 116348, Note_off_c, 1, 69, 0
3, 116352, Note_on_c, 1, 67, 79
3, 116732, Note_off_c, 1, 67, 0
3, 116928, Note_on_c, 1, 83, 58
3, 117020, Note_off_c, 1, 83, 0
3, 117024, Note_on_c, 1, 81, 58
3, 117116, Note_off_c, 1, 81, 0
3, 117120, Note_on_c, 1, 79, 58
3, 117212, Note_off_c, 1, 79, 0
3, 117216, Note_on_c, 1, 78, 58
3, 117308, Note_off_c, 1, 78, 0
3, 117312, Note_on_c, 1, 76, 58
3, 117404, Note_off_c, 1, 76, 0
3, 117408, Note_on_c, 1, 74, 58
3, 117500, Note_off_c, 1, 74, 0
3, 117504, Note_on_c, 1, 72, 58
3, 117884, Note_off_c, 1, 72, 0
3, 117888, Note_on_c, 1, 72, 58
3, 117888, Note_on_c, 1, 64, 58
3, 118076, Note_off_c, 1, 72, 0
3, 118076, Note_off_c, 1, 64, 0
3, 118080, Note_on_c, 1, 76, 58
3, 118172, Note_off_c, 1, 76, 0
3, 118176, Note_on_c, 1, 74, 58
3, 118268, Note_off_c, 1, 74, 0
3, 118272, Note_on_c, 1, 72, 58
3, 118364, Note_off_c, 1, 72, 0
3, 118368, Note_on_c, 1, 71, 58
3, 118460, Note_off_c, 1, 71, 0
3, 118464, Note_on_c, 1, 69, 58
3, 118556, Note_off_c, 1, 69, 0
3, 118560, Note_on_c, 1, 67, 58
3, 118652, Note_off_c, 1, 67, 0
3, 118656, Note_on_c, 1, 66, 58
3, 119036, Note_off_c, 1, 66, 0
3, 119232, Note_on_c, 1, 69, 58
3, 119324, Note_off_c, 1, 69, 0
3, 119328, Note_on_c, 1, 67, 58
3, 119420, Note_off_c, 1, 67, 0
3, 119424, Note_on_c, 1, 66, 58
3, 119516, Note_off_c, 1, 66, 0
3, 119520, Note_on_c, 1, 64, 58
3, 119612, Note_off_c, 1, 64, 0
3, 119616, Note_on_c, 1, 62, 58
3, 119708, Note_off_c, 1, 62, 0
3, 119712, Note_on_c, 1, 60, 58
3, 119804, Note_off_c, 1, 60, 0
3, 119808, Note_on_c, 1, 59, 58
3, 120188, Note_off_c, 1, 59, 0
3, 120192, Note_on_c, 1, 71, 58
3, 120384, Note_on_c, 1, 76, 79
3, 120476, Note_off_c, 1, 76, 0
3, 120480, Note_on_c, 1, 78, 79
3, 120572, Note_off_c, 1, 71, 0
3, 120572, Note_off_c, 1, 78, 0
3, 120576, Note_on_c, 1, 79, 79
3, 120668, Note_off_c, 1, 79, 0
3, 120672, Note_on_c, 1, 81, 79
3, 120764, Note_off_c, 1, 81, 0
3, 120768, Note_on_c, 1, 83, 79
3, 120860, Note_off_c, 1, 83, 0
3, 120864, Note_on_c, 1, 79, 79
3, 120956, Note_off_c, 1, 79, 0
3, 120960, Note_on_c, 1, 84, 79
3, 120960, Note_on_c, 1, 76, 79
3, 120960, Note_on_c, 1, 72, 79
3, 121340, Note_off_c, 1, 84, 0
3, 121340, Note_off_c, 1, 76, 0
3, 121340, Note_off_c, 1, 72, 0
3, 121344, Note_on_c, 1, 69, 79
3, 121536, Note_on_c, 1, 78, 79
3, 121628, Note_off_c, 1, 78, 0
3, 121632, Note_on_c, 1, 79, 79
3, 121724, Note_off_c, 1, 69, 0
3, 121724, Note_off_c, 1, 79, 0
3, 121728, Note_on_c, 1, 81, 79
3, 121820, Note_off_c, 1, 81, 0
3, 121824, Note_on_c, 1, 79, 79
3, 121916, Note_off_c, 1, 79, 0
3, 121920, Note_on_c, 1, 78, 79
3, 122012, Note_off_c, 1, 78, 0
3, 122016, Note_on_c, 1, 76, 79
3, 122108, Note_off_c, 1, 76, 0
3, 122112, Note_on_c, 1, 75, 79
3, 122112, Note_on_c, 1, 71, 79
3, 122492, Note_off_c, 1, 75, 0
3, 122492, Note_off_c, 1, 71, 0
3, 122496, Note_on_c, 1, 71, 79
3, 122876, Note_off_c, 1, 71, 0
3, 123264, Note_on_c, 1, 76, 58
3, 123264, Note_on_c, 1, 71, 58
3, 123264, Note_on_c, 1, 67, 58
3, 123440, Note_on_c, 1, 64, 58
3, 123452, Note_off_c, 1, 76, 0
3, 123452, Note_off_c, 1, 71, 0
3, 123452, Note_off_c, 1, 67, 0
3, 123456, Note_on_c, 1, 67, 58
3, 123628, Note_off_c, 1, 64, 0
3, 123644, Note_off_c, 1, 67, 0
3, 123648, Note_on_c, 1, 71, 58
3, 123648, Note_on_c, 1, 67, 58
3, 123836, Note_off_c, 1, 71, 0
3, 123836, Note_off_c, 1, 67, 0
3, 123840, Note_on_c, 1, 71, 58
3, 123840, Note_on_c, 1, 67, 58
3, 124028, Note_off_c, 1, 71, 0
3, 124028, Note_off_c, 1, 67, 0
3, 124032, Note_on_c, 1, 71, 58
3, 124032, Note_on_c, 1, 67, 58
3, 124220, Note_off_c, 1, 71, 0
3, 124220, Note_off_c, 1, 67, 0
3, 124224, Note_on_c, 1, 69, 58
3, 124224, Note_on_c, 1, 66, 58
3, 124412, Note_off_c, 1, 69, 0
3, 124412, Note_off_c, 1, 66, 0
3, 124416, Note_on_c, 1, 67, 58
3, 124416, Note_on_c, 1, 64, 58
3, 124604, Note_off_c, 1, 67, 0
3, 124604, Note_off_c, 1, 64, 0
3, 124608, Note_on_c, 1, 67, 58
3, 124608, Note_on_c, 1, 64, 58
3, 124608, Note_on_c, 1, 59, 58
3, 124796, Note_off_c, 1, 67, 0
3, 124796, Note_off_c, 1, 64, 0
3, 124796, Note_off_c, 1, 59, 0
3, 124800, Note_on_c, 1, 67, 58
3, 124800, Note_on_c, 1, 64, 58
3, 124800, Note_on_c, 1, 59, 58
3, 124988, Note_off_c, 1, 67, 0
3, 124988, Note_off_c, 1, 64, 0
3, 124988, Note_off_c, 1, 59, 0
3, 124992, Note_on_c, 1, 67, 58
3, 124992, Note_on_c, 1, 64, 58
3, 124992, Note_on_c, 1, 59, 58
3, 125180, Note_off_c, 1, 67, 0
3, 125180, Note_off_c, 1, 64, 0
3, 125180, Note_off_c, 1, 59, 0
3, 125184, Note_on_c, 1, 67, 58
3, 125184, Note_on_c, 1, 64, 58
3, 125184, Note_on_c, 1, 59, 58
3, 125372, Note_off_c, 1, 67, 0
3, 125372, Note_off_c, 1, 64, 0
3, 125372, Note_off_c, 1, 59, 0
3, 125376, Note_on_c, 1, 67, 58
3, 125376, Note_on_c, 1, 64, 58
3, 125376, Note_on_c, 1, 59, 58
3, 125564, Note_off_c, 1, 67, 0
3, 125564, Note_off_c, 1, 64, 0
3, 125564, Note_off_c, 1, 59, 0
3, 125568, Note_on_c, 1, 66, 58
3, 125568, Note_on_c, 1, 63, 58
3, 125568, Note_on_c, 1, 59, 58
3, 125756, Note_off_c, 1, 66, 0
3, 125756, Note_off_c, 1, 63, 0
3, 125756, Note_off_c, 1, 59, 0
3, 125760, Note_on_c, 1, 66, 58
3, 125760, Note_on_c, 1, 63, 58
3, 125760, Note_on_c, 1, 59, 58
3, 125948, Note_off_c, 1, 66, 0
3, 125948, Note_off_c, 1, 63, 0
3, 125948, Note_off_c, 1, 59, 0
3, 125952, Note_on_c, 1, 69, 58
3, 125952, Note_on_c, 1, 66, 58
3, 126140, Note_off_c, 1, 69, 0
3, 126140, Note_off_c, 1, 66, 0
3, 126144, Note_on_c, 1, 69, 58
3, 126144, Note_on_c, 1, 66, 58
3, 126332, Note_off_c, 1, 69, 0
3, 126332, Note_off_c, 1, 66, 0
3, 126336, Note_on_c, 1, 69, 58
3, 126336, Note_on_c, 1, 66, 58
3, 126524, Note_off_c, 1, 69, 0
3, 126524, Note_off_c, 1, 66, 0
3, 126528, Note_on_c, 1, 67, 58
3, 126528, Note_on_c, 1, 64, 58
3, 126716, Note_off_c, 1, 67, 0
3, 126716, Note_off_c, 1, 64, 0
3, 126720, Note_on_c, 1, 66, 58
3, 126720, Note_on_c, 1, 63, 58
3, 126908, Note_off_c, 1, 66, 0
3, 126908, Note_off_c, 1, 63, 0
3, 126912, Note_on_c, 1, 66, 58
3, 126912, Note_on_c, 1, 63, 58
3, 126912, Note_on_c, 1, 59, 58
3, 127100, Note_off_c, 1, 66, 0
3, 127100, Note_off_c, 1, 63, 0
3, 127100, Note_off_c, 1, 59, 0
3, 127104, Note_on_c, 1, 66, 58
3, 127104, Note_on_c, 1, 63, 58
3, 127104, Note_on_c, 1, 59, 58
3, 127292, Note_off_c, 1, 66, 0
3, 127292, Note_off_c, 1, 63, 0
3, 127292, Note_off_c, 1, 59, 0
3, 127296, Note_on_c, 1, 66, 58
3, 127296, Note_on_c, 1, 63, 58
3, 127296, Note_on_c, 1, 59, 58
3, 127484, Note_off_c, 1, 66, 0
3, 127484, Note_off_c, 1, 63, 0
3, 127484, Note_off_c, 1, 59, 0
3, 127488, Note_on_c, 1, 66, 58
3, 127488, Note_on_c, 1, 63, 58
3, 127488, Note_on_c, 1, 59, 58
3, 127676, Note_off_c, 1, 66, 0
3, 127676, Note_off_c, 1, 63, 0
3, 127676, Note_off_c, 1, 59, 0
3, 127680, Note_on_c, 1, 66, 58
3, 127680, Note_on_c, 1, 63, 58
3, 127680, Note_on_c, 1, 59, 58
3, 127868, Note_off_c, 1, 66, 0
3, 127868, Note_off_c, 1, 63, 0
3, 127868, Note_off_c, 1, 59, 0
3, 127872, Note_on_c, 1, 67, 58
3, 127872, Note_on_c, 1, 64, 58
3, 127872, Note_on_c, 1, 59, 58
3, 128060, Note_off_c, 1, 67, 0
3, 128060, Note_off_c, 1, 64, 0
3, 128060, Note_off_c, 1, 59, 0
3, 128064, Note_on_c, 1, 67, 58
3, 128064, Note_on_c, 1, 64, 58
3, 128064, Note_on_c, 1, 59, 58
3, 128252, Note_off_c, 1, 67, 0
3, 128252, Note_off_c, 1, 64, 0
3, 128252, Note_off_c, 1, 59, 0
3, 128256, Note_on_c, 1, 67, 58
3, 128256, Note_on_c, 1, 64, 58
3, 128256, Note_on_c, 1, 59, 58
3, 128444, Note_off_c, 1, 67, 0
3, 128444, Note_off_c, 1, 64, 0
3, 128444, Note_off_c, 1, 59, 0
3, 128448, Note_on_c, 1, 64, 58
3, 128448, Note_on_c, 1, 59, 58
3, 128464, Note_on_c, 1, 67, 58
3, 128636, Note_off_c, 1, 64, 0
3, 128636, Note_off_c, 1, 59, 0
3, 128640, Note_on_c, 1, 67, 58
3, 128640, Note_on_c, 1, 64, 58
3, 128640, Note_on_c, 1, 59, 58
3, 128652, Note_off_c, 1, 67, 0
3, 128828, Note_off_c, 1, 67, 0
3, 128828, Note_off_c, 1, 64, 0
3, 128828, Note_off_c, 1, 59, 0
3, 128832, Note_on_c, 1, 67, 58
3, 128832, Note_on_c, 1, 64, 58
3, 128832, Note_on_c, 1, 59, 58
3, 129020, Note_off_c, 1, 67, 0
3, 129020, Note_off_c, 1, 64, 0
3, 129020, Note_off_c, 1, 59, 0
3, 129024, Note_on_c, 1, 67, 58
3, 129024, Note_on_c, 1, 64, 58
3, 129024, Note_on_c, 1, 60, 58
3, 129212, Note_off_c, 1, 67, 0
3, 129212, Note_off_c, 1, 64, 0
3, 129212, Note_off_c, 1, 60, 0
3, 129216, Note_on_c, 1, 66, 58
3, 129216, Note_on_c, 1, 64, 58
3, 129216, Note_on_c, 1, 60, 58
3, 129404, Note_off_c, 1, 66, 0
3, 129404, Note_off_c, 1, 64, 0
3, 129404, Note_off_c, 1, 60, 0
3, 129408, Note_on_c, 1, 66, 58
3, 129408, Note_on_c, 1, 64, 58
3, 129408, Note_on_c, 1, 60, 58
3, 129596, Note_off_c, 1, 66, 0
3, 129596, Note_off_c, 1, 64, 0
3, 129596, Note_off_c, 1, 60, 0
3, 129600, Note_on_c, 1, 66, 58
3, 129600, Note_on_c, 1, 64, 58
3, 129600, Note_on_c, 1, 60, 58
3, 129776, Note_on_c, 1, 60, 58
3, 129788, Note_off_c, 1, 66, 0
3, 129788, Note_off_c, 1, 64, 0
3, 129788, Note_off_c, 1, 60, 0
3, 129792, Note_on_c, 1, 66, 58
3, 129792, Note_on_c, 1, 63, 58
3, 129964, Note_off_c, 1, 60, 0
3, 129980, Note_off_c, 1, 66, 0
3, 129980, Note_off_c, 1, 63, 0
3, 129984, Note_on_c, 1, 66, 58
3, 129984, Note_on_c, 1, 63, 58
3, 129984, Note_on_c, 1, 60, 58
3, 130172, Note_off_c, 1, 66, 0
3, 130172, Note_off_c, 1, 63, 0
3, 130172, Note_off_c, 1, 60, 0
3, 130176, Note_on_c, 1, 67, 58
3, 130176, Note_on_c, 1, 64, 58
3, 130556, Note_off_c, 1, 67, 0
3, 130560, Note_on_c, 1, 69, 58
3, 130940, Note_off_c, 1, 69, 0
3, 130944, Note_on_c, 1, 70, 58
3, 131324, Note_off_c, 1, 64, 0
3, 131324, Note_off_c, 1, 70, 0
3, 131328, Note_on_c, 1, 64, 58
3, 131328, Note_on_c, 1, 71, 58
3, 131708, Note_off_c, 1, 64, 0
3, 131712, Note_on_c, 1, 63, 58
3, 132092, Note_off_c, 1, 71, 0
3, 132092, Note_off_c, 1, 63, 0
3, 132480, Note_on_c, 1, 64, 58
3, 132764, Note_off_c, 1, 64, 0
3, 132768, Note_on_c, 1, 59, 58
3, 132860, Note_off_c, 1, 59, 0
3, 132864, Note_on_c, 1, 67, 58
3, 132864, Note_on_c, 1, 59, 58
3, 133436, Note_off_c, 1, 67, 0
3, 133436, Note_off_c, 1, 59, 0
3, 133440, Note_on_c, 1, 66, 58
3, 133440, Note_on_c, 1, 63, 58
3, 133628, Note_off_c, 1, 66, 0
3, 133628, Note_off_c, 1, 63, 0
3, 133632, Note_on_c, 1, 66, 58
3, 133724, Note_off_c, 1, 66, 0
3, 133728, Note_on_c, 1, 64, 58
3, 134016, Note_on_c, 1, 64, 58
3, 134108, Note_off_c, 1, 64, 0
3, 134396, Note_off_c, 1, 64, 0
3, 134592, Note_on_c, 1, 59, 58
3, 134780, Note_off_c, 1, 59, 0
3, 134784, Note_on_c, 1, 66, 58
3, 134784, Note_on_c, 1, 62, 58
3, 135068, Note_off_c, 1, 66, 0
3, 135068, Note_off_c, 1, 62, 0
3, 135072, Note_on_c, 1, 59, 58
3, 135164, Note_off_c, 1, 59, 0
3, 135168, Note_on_c, 1, 66, 58
3, 135184, Note_on_c, 1, 69, 58
3, 135740, Note_off_c, 1, 66, 0
3, 135744, Note_on_c, 1, 67, 58
3, 135744, Note_on_c, 1, 64, 58
3, 135756, Note_off_c, 1, 69, 0
3, 135932, Note_off_c, 1, 67, 0
3, 135932, Note_off_c, 1, 64, 0
3, 135936, Note_on_c, 1, 67, 58
3, 135936, Note_on_c, 1, 64, 58
3, 136028, Note_off_c, 1, 67, 0
3, 136028, Note_off_c, 1, 64, 0
3, 136032, Note_on_c, 1, 66, 58
3, 136032, Note_on_c, 1, 63, 58
3, 136320, Note_on_c, 1, 66, 58
3, 136320, Note_on_c, 1, 63, 58
3, 136412, Note_off_c, 1, 66, 0
3, 136412, Note_off_c, 1, 63, 0
3, 136700, Note_off_c, 1, 66, 0
3, 136700, Note_off_c, 1, 63, 0
3, 136704, Note_on_c, 1, 63, 58
3, 136892, Note_off_c, 1, 63, 0
3, 136896, Note_on_c, 1, 66, 58
3, 137084, Note_off_c, 1, 66, 0
3, 137088, Note_on_c, 1, 71, 58
3, 137088, Note_on_c, 1, 64, 58
3, 137276, Note_off_c, 1, 71, 0
3, 137276, Note_off_c, 1, 64, 0
3, 137280, Note_on_c, 1, 71, 58
3, 137280, Note_on_c, 1, 64, 58
3, 137468, Note_off_c, 1, 71, 0
3, 137468, Note_off_c, 1, 64, 0
3, 137472, Note_on_c, 1, 71, 58
3, 137472, Note_on_c, 1, 64, 58
3, 137660, Note_off_c, 1, 71, 0
3, 137660, Note_off_c, 1, 64, 0
3, 137664, Note_on_c, 1, 71, 58
3, 137664, Note_on_c, 1, 64, 58
3, 137852, Note_off_c, 1, 71, 0
3, 137852, Note_off_c, 1, 64, 0
3, 137856, Note_on_c, 1, 71, 58
3, 137856, Note_on_c, 1, 64, 58
3, 138044, Note_off_c, 1, 71, 0
3, 138044, Note_off_c, 1, 64, 0
3, 138048, Note_on_c, 1, 71, 58
3, 138048, Note_on_c, 1, 64, 58
3, 138236, Note_off_c, 1, 71, 0
3, 138236, Note_off_c, 1, 64, 0
3, 138240, Note_on_c, 1, 72, 58
3, 138240, Note_on_c, 1, 64, 58
3, 138428, Note_off_c, 1, 72, 0
3, 138428, Note_off_c, 1, 64, 0
3, 138432, Note_on_c, 1, 72, 58
3, 138432, Note_on_c, 1, 64, 58
3, 138620, Note_off_c, 1, 72, 0
3, 138620, Note_off_c, 1, 64, 0
3, 138624, Note_on_c, 1, 72, 58
3, 138624, Note_on_c, 1, 64, 58
3, 138812, Note_off_c, 1, 72, 0
3, 138812, Note_off_c, 1, 64, 0
3, 138816, Note_on_c, 1, 72, 58
3, 138816, Note_on_c, 1, 64, 58
3, 139004, Note_off_c, 1, 72, 0
3, 139004, Note_off_c, 1, 64, 0
3, 139008, Note_on_c, 1, 72, 58
3, 139008, Note_on_c, 1, 63, 58
3, 139196, Note_off_c, 1, 72, 0
3, 139196, Note_off_c, 1, 63, 0
3, 139200, Note_on_c, 1, 72, 58
3, 139200, Note_on_c, 1, 63, 58
3, 139388, Note_off_c, 1, 72, 0
3, 139388, Note_off_c, 1, 63, 0
3, 139392, Note_on_c, 1, 71, 58
3, 139392, Note_on_c, 1, 64, 58
3, 139580, Note_off_c, 1, 71, 0
3, 139580, Note_off_c, 1, 64, 0
3, 139776, Note_on_c, 1, 72, 58
3, 139776, Note_on_c, 1, 64, 58
3, 139964, Note_off_c, 1, 72, 0
3, 139964, Note_off_c, 1, 64, 0
3, 140160, Note_on_c, 1, 69, 58
3, 140160, Note_on_c, 1, 66, 58
3, 140160, Note_on_c, 1, 63, 58
3, 140348, Note_off_c, 1, 69, 0
3, 140348, Note_off_c, 1, 66, 0
3, 140348, Note_off_c, 1, 63, 0
3, 140544, Note_on_c, 1, 67, 58
3, 140544, Note_on_c, 1, 64, 58
3, 140732, Note_off_c, 1, 67, 0
3, 140732, Note_off_c, 1, 64, 0
3, 140928, Note_on_c, 1, 79, 79
3, 140928, Note_on_c, 1, 71, 79
3, 140928, Note_on_c, 1, 67, 79
3, 141308, Note_off_c, 1, 79, 0
3, 141308, Note_off_c, 1, 71, 0
3, 141308, Note_off_c, 1, 67, 0
3, 141312, Note_on_c, 1, 83, 79
3, 141312, Note_on_c, 1, 79, 79
3, 141312, Note_on_c, 1, 77, 79
3, 141312, Note_on_c, 1, 71, 79
3, 141692, Note_off_c, 1, 83, 0
3, 141692, Note_off_c, 1, 79, 0
3, 141692, Note_off_c, 1, 77, 0
3, 141692, Note_off_c, 1, 71, 0
3, 141696, Note_on_c, 1, 84, 79
3, 141696, Note_on_c, 1, 79, 79
3, 141696, Note_on_c, 1, 76, 79
3, 141696, Note_on_c, 1, 72, 79
3, 141884, Note_off_c, 1, 84, 0
3, 141884, Note_off_c, 1, 79, 0
3, 141884, Note_off_c, 1, 76, 0
3, 141884, Note_off_c, 1, 72, 0
3, 141888, Note_on_c, 1, 67, 58
3, 141888, Note_on_c, 1, 64, 58
3, 142076, Note_off_c, 1, 67, 0
3, 142076, Note_off_c, 1, 64, 0
3, 142080, Note_on_c, 1, 67, 58
3, 142080, Note_on_c, 1, 64, 58
3, 142268, Note_off_c, 1, 67, 0
3, 142268, Note_off_c, 1, 64, 0
3, 142272, Note_on_c, 1, 67, 58
3, 142272, Note_on_c, 1, 64, 58
3, 142460, Note_off_c, 1, 67, 0
3, 142460, Note_off_c, 1, 64, 0
3, 142464, Note_on_c, 1, 67, 58
3, 142464, Note_on_c, 1, 64, 58
3, 142652, Note_off_c, 1, 67, 0
3, 142652, Note_off_c, 1, 64, 0
3, 142656, Note_on_c, 1, 67, 58
3, 142656, Note_on_c, 1, 64, 58
3, 142844, Note_off_c, 1, 67, 0
3, 142844, Note_off_c, 1, 64, 0
3, 142848, Note_on_c, 1, 67, 58
3, 142848, Note_on_c, 1, 65, 58
3, 143036, Note_off_c, 1, 67, 0
3, 143036, Note_off_c, 1, 65, 0
3, 143040, Note_on_c, 1, 67, 58
3, 143040, Note_on_c, 1, 65, 58
3, 143228, Note_off_c, 1, 67, 0
3, 143228, Note_off_c, 1, 65, 0
3, 143232, Note_on_c, 1, 67, 58
3, 143232, Note_on_c, 1, 65, 58
3, 143420, Note_off_c, 1, 67, 0
3, 143420, Note_off_c, 1, 65, 0
3, 143424, Note_on_c, 1, 67, 58
3, 143424, Note_on_c, 1, 65, 58
3, 143612, Note_off_c, 1, 67, 0
3, 143612, Note_off_c, 1, 65, 0
3, 143616, Note_on_c, 1, 67, 58
3, 143616, Note_on_c, 1, 65, 58
3, 143804, Note_off_c, 1, 67, 0
3, 143804, Note_off_c, 1, 65, 0
3, 143808, Note_on_c, 1, 67, 58
3, 143808, Note_on_c, 1, 65, 58
3, 143996, Note_off_c, 1, 67, 0
3, 143996, Note_off_c, 1, 65, 0
3, 144000, Note_on_c, 1, 65, 58
3, 144000, Note_on_c, 1, 62, 58
3, 144000, Note_on_c, 1, 59, 58
3, 144188, Note_off_c, 1, 65, 0
3, 144188, Note_off_c, 1, 62, 0
3, 144188, Note_off_c, 1, 59, 0
3, 144192, Note_on_c, 1, 65, 58
3, 144192, Note_on_c, 1, 62, 58
3, 144192, Note_on_c, 1, 59, 58
3, 144380, Note_off_c, 1, 65, 0
3, 144380, Note_off_c, 1, 62, 0
3, 144380, Note_off_c, 1, 59, 0
3, 144384, Note_on_c, 1, 65, 58
3, 144384, Note_on_c, 1, 62, 58
3, 144384, Note_on_c, 1, 59, 58
3, 144572, Note_off_c, 1, 65, 0
3, 144572, Note_off_c, 1, 62, 0
3, 144572, Note_off_c, 1, 59, 0
3, 144576, Note_on_c, 1, 65, 58
3, 144576, Note_on_c, 1, 62, 58
3, 144576, Note_on_c, 1, 59, 58
3, 144764, Note_off_c, 1, 65, 0
3, 144764, Note_off_c, 1, 62, 0
3, 144764, Note_off_c, 1, 59, 0
3, 144768, Note_on_c, 1, 65, 58
3, 144768, Note_on_c, 1, 62, 58
3, 144768, Note_on_c, 1, 59, 58
3, 144956, Note_off_c, 1, 65, 0
3, 144956, Note_off_c, 1, 62, 0
3, 144956, Note_off_c, 1, 59, 0
3, 144960, Note_on_c, 1, 65, 58
3, 144960, Note_on_c, 1, 62, 58
3, 144960, Note_on_c, 1, 59, 58
3, 145148, Note_off_c, 1, 65, 0
3, 145148, Note_off_c, 1, 62, 0
3, 145148, Note_off_c, 1, 59, 0
3, 145152, Note_on_c, 1, 74, 79
3, 145152, Note_on_c, 1, 71, 79
3, 145340, Note_off_c, 1, 74, 0
3, 145340, Note_off_c, 1, 71, 0
3, 145344, Note_on_c, 1, 74, 58
3, 145344, Note_on_c, 1, 71, 58
3, 145532, Note_off_c, 1, 74, 0
3, 145532, Note_off_c, 1, 71, 0
3, 145536, Note_on_c, 1, 74, 58
3, 145536, Note_on_c, 1, 71, 58
3, 145724, Note_off_c, 1, 74, 0
3, 145724, Note_off_c, 1, 71, 0
3, 145728, Note_on_c, 1, 74, 58
3, 145728, Note_on_c, 1, 71, 58
3, 145916, Note_off_c, 1, 74, 0
3, 145916, Note_off_c, 1, 71, 0
3, 145920, Note_on_c, 1, 74, 58
3, 145920, Note_on_c, 1, 71, 58
3, 146108, Note_off_c, 1, 74, 0
3, 146108, Note_off_c, 1, 71, 0
3, 146112, Note_on_c, 1, 74, 58
3, 146112, Note_on_c, 1, 71, 58
3, 146300, Note_off_c, 1, 74, 0
3, 146300, Note_off_c, 1, 71, 0
3, 146304, Note_on_c, 1, 72, 58
3, 146304, Note_on_c, 1, 69, 58
3, 146684, Note_off_c, 1, 72, 0
3, 146684, Note_off_c, 1, 69, 0
3, 146688, Note_on_c, 1, 74, 66
3, 146688, Note_on_c, 1, 68, 66
3, 147068, Note_off_c, 1, 74, 0
3, 147068, Note_off_c, 1, 68, 0
3, 147072, Note_on_c, 1, 72, 58
3, 147072, Note_on_c, 1, 69, 58
3, 147452, Note_off_c, 1, 72, 0
3, 147452, Note_off_c, 1, 69, 0
3, 147840, Note_on_c, 1, 77, 79
3, 148220, Note_off_c, 1, 77, 0
3, 148224, Note_on_c, 1, 76, 58
3, 148604, Note_off_c, 1, 76, 0
3, 148608, Note_on_c, 1, 74, 58
3, 148608, Note_on_c, 1, 69, 58
3, 148608, Note_on_c, 1, 65, 58
3, 148796, Note_off_c, 1, 74, 0
3, 148796, Note_off_c, 1, 69, 0
3, 148796, Note_off_c, 1, 65, 0
3, 148992, Note_on_c, 1, 72, 58
3, 148992, Note_on_c, 1, 67, 58
3, 148992, Note_on_c, 1, 64, 58
3, 149180, Note_off_c, 1, 72, 0
3, 149180, Note_off_c, 1, 67, 0
3, 149180, Note_off_c, 1, 64, 0
3, 149376, Note_on_c, 1, 71, 58
3, 149376, Note_on_c, 1, 65, 58
3, 149376, Note_on_c, 1, 62, 58
3, 149564, Note_off_c, 1, 71, 0
3, 149564, Note_off_c, 1, 65, 0
3, 149564, Note_off_c, 1, 62, 0
3, 149760, Note_on_c, 1, 72, 58
3, 149760, Note_on_c, 1, 64, 58
3, 149948, Note_off_c, 1, 72, 0
3, 149948, Note_off_c, 1, 64, 0
3, 149952, Note_on_c, 1, 72, 79
3, 150140, Note_off_c, 1, 72, 0
3, 150144, Note_on_c, 1, 76, 79
3, 150332, Note_off_c, 1, 76, 0
3, 150336, Note_on_c, 1, 64, 79
3, 150524, Note_off_c, 1, 64, 0
3, 150528, Note_on_c, 1, 67, 79
3, 150716, Note_off_c, 1, 67, 0
3, 150720, Note_on_c, 1, 59, 79
3, 150908, Note_off_c, 1, 59, 0
3, 150912, Note_on_c, 1, 60, 79
3, 151100, Note_off_c, 1, 60, 0
3, 151104, Note_on_c, 1, 64, 58
3, 151104, Note_on_c, 1, 55, 58
3, 151292, Note_off_c, 1, 64, 0
3, 151292, Note_off_c, 1, 55, 0
3, 151296, Note_on_c, 1, 64, 58
3, 151296, Note_on_c, 1, 55, 58
3, 151484, Note_off_c, 1, 64, 0
3, 151484, Note_off_c, 1, 55, 0
3, 151488, Note_on_c, 1, 64, 58
3, 151488, Note_on_c, 1, 55, 58
3, 151676, Note_off_c, 1, 64, 0
3, 151676, Note_off_c, 1, 55, 0
3, 151680, Note_on_c, 1, 64, 58
3, 151680, Note_on_c, 1, 55, 58
3, 151868, Note_off_c, 1, 64, 0
3, 151868, Note_off_c, 1, 55, 0
3, 151872, Note_on_c, 1, 64, 58
3, 151872, Note_on_c, 1, 55, 58
3, 152060, Note_off_c, 1, 64, 0
3, 152060, Note_off_c, 1, 55, 0
3, 152064, Note_on_c, 1, 65, 58
3, 152064, Note_on_c, 1, 55, 58
3, 152252, Note_off_c, 1, 65, 0
3, 152252, Note_off_c, 1, 55, 0
3, 152256, Note_on_c, 1, 65, 58
3, 152256, Note_on_c, 1, 55, 58
3, 152444, Note_off_c, 1, 65, 0
3, 152444, Note_off_c, 1, 55, 0
3, 152448, Note_on_c, 1, 65, 58
3, 152448, Note_on_c, 1, 55, 58
3, 152636, Note_off_c, 1, 65, 0
3, 152636, Note_off_c, 1, 55, 0
3, 152640, Note_on_c, 1, 65, 58
3, 152640, Note_on_c, 1, 55, 58
3, 152828, Note_off_c, 1, 65, 0
3, 152828, Note_off_c, 1, 55, 0
3, 152832, Note_on_c, 1, 65, 58
3, 152832, Note_on_c, 1, 55, 58
3, 153020, Note_off_c, 1, 65, 0
3, 153020, Note_off_c, 1, 55, 0
3, 153024, Note_on_c, 1, 65, 58
3, 153024, Note_on_c, 1, 55, 58
3, 153212, Note_off_c, 1, 65, 0
3, 153212, Note_off_c, 1, 55, 0
3, 153216, Note_on_c, 1, 65, 58
3, 153216, Note_on_c, 1, 62, 58
3, 153216, Note_on_c, 1, 59, 58
3, 153404, Note_off_c, 1, 65, 0
3, 153404, Note_off_c, 1, 62, 0
3, 153404, Note_off_c, 1, 59, 0
3, 153408, Note_on_c, 1, 65, 58
3, 153408, Note_on_c, 1, 62, 58
3, 153408, Note_on_c, 1, 59, 58
3, 153596, Note_off_c, 1, 65, 0
3, 153596, Note_off_c, 1, 62, 0
3, 153596, Note_off_c, 1, 59, 0
3, 153600, Note_on_c, 1, 65, 58
3, 153600, Note_on_c, 1, 62, 58
3, 153600, Note_on_c, 1, 59, 58
3, 153788, Note_off_c, 1, 65, 0
3, 153788, Note_off_c, 1, 62, 0
3, 153788, Note_off_c, 1, 59, 0
3, 153792, Note_on_c, 1, 65, 58
3, 153792, Note_on_c, 1, 62, 58
3, 153792, Note_on_c, 1, 59, 58
3, 153980, Note_off_c, 1, 65, 0
3, 153980, Note_off_c, 1, 62, 0
3, 153980, Note_off_c, 1, 59, 0
3, 153984, Note_on_c, 1, 65, 58
3, 153984, Note_on_c, 1, 62, 58
3, 153984, Note_on_c, 1, 59, 58
3, 154172, Note_off_c, 1, 65, 0
3, 154172, Note_off_c, 1, 62, 0
3, 154172, Note_off_c, 1, 59, 0
3, 154176, Note_on_c, 1, 65, 58
3, 154176, Note_on_c, 1, 62, 58
3, 154176, Note_on_c, 1, 59, 58
3, 154364, Note_off_c, 1, 65, 0
3, 154364, Note_off_c, 1, 62, 0
3, 154364, Note_off_c, 1, 59, 0
3, 154368, Note_on_c, 1, 66, 79
3, 154368, Note_on_c, 1, 62, 79
3, 154368, Note_on_c, 1, 59, 79
3, 154556, Note_off_c, 1, 66, 0
3, 154556, Note_off_c, 1, 62, 0
3, 154556, Note_off_c, 1, 59, 0
3, 154560, Note_on_c, 1, 64, 58
3, 154560, Note_on_c, 1, 62, 58
3, 154560, Note_on_c, 1, 59, 58
3, 154748, Note_off_c, 1, 64, 0
3, 154748, Note_off_c, 1, 62, 0
3, 154748, Note_off_c, 1, 59, 0
3, 154752, Note_on_c, 1, 62, 58
3, 154752, Note_on_c, 1, 59, 58
3, 154752, Note_on_c, 1, 64, 58
3, 154940, Note_off_c, 1, 62, 0
3, 154940, Note_off_c, 1, 59, 0
3, 154944, Note_on_c, 1, 62, 58
3, 154944, Note_on_c, 1, 59, 58
3, 155132, Note_off_c, 1, 62, 0
3, 155132, Note_off_c, 1, 59, 0
3, 155136, Note_on_c, 1, 62, 58
3, 155136, Note_on_c, 1, 59, 58
3, 155516, Note_off_c, 1, 64, 0
3, 155516, Note_off_c, 1, 62, 0
3, 155516, Note_off_c, 1, 59, 0
3, 155520, Note_on_c, 1, 64, 79
3, 155520, Note_on_c, 1, 60, 79
3, 155900, Note_off_c, 1, 64, 0
3, 155900, Note_off_c, 1, 60, 0
3, 155904, Note_on_c, 1, 65, 58
3, 155904, Note_on_c, 1, 62, 58
3, 156284, Note_off_c, 1, 65, 0
3, 156284, Note_off_c, 1, 62, 0
3, 156288, Note_on_c, 1, 64, 58
3, 156288, Note_on_c, 1, 60, 58
3, 156668, Note_off_c, 1, 64, 0
3, 156668, Note_off_c, 1, 60, 0
3, 156672, Note_on_c, 1, 74, 79
3, 156672, Note_on_c, 1, 69, 79
3, 157052, Note_off_c, 1, 74, 0
3, 157052, Note_off_c, 1, 69, 0
3, 157056, Note_on_c, 1, 73, 58
3, 157056, Note_on_c, 1, 67, 58
3, 157436, Note_off_c, 1, 73, 0
3, 157436, Note_off_c, 1, 67, 0
3, 157440, Note_on_c, 1, 74, 58
3, 157440, Note_on_c, 1, 69, 58
3, 157820, Note_off_c, 1, 74, 0
3, 157820, Note_off_c, 1, 69, 0
3, 157824, Note_on_c, 1, 74, 58
3, 157824, Note_on_c, 1, 69, 58
3, 157824, Note_on_c, 1, 65, 58
3, 158012, Note_off_c, 1, 74, 0
3, 158012, Note_off_c, 1, 69, 0
3, 158012, Note_off_c, 1, 65, 0
3, 158208, Note_on_c, 1, 76, 58
3, 158208, Note_on_c, 1, 67, 58
3, 158396, Note_off_c, 1, 76, 0
3, 158396, Note_off_c, 1, 67, 0
3, 158592, Note_on_c, 1, 71, 58
3, 158592, Note_on_c, 1, 65, 58
3, 158592, Note_on_c, 1, 62, 58
3, 158780, Note_off_c, 1, 71, 0
3, 158780, Note_off_c, 1, 65, 0
3, 158780, Note_off_c, 1, 62, 0
3, 158976, Note_on_c, 1, 72, 58
3, 158976, Note_on_c, 1, 64, 58
3, 159356, Note_off_c, 1, 72, 0
3, 159356, Note_off_c, 1, 64, 0
3, 159744, Note_on_c, 1, 72, 58
3, 159788, Note_off_c, 1, 72, 0
3, 159792, Note_on_c, 1, 74, 58
3, 159836, Note_off_c, 1, 74, 0
3, 159840, Note_on_c, 1, 72, 58
3, 159872, Note_on_c, 1, 74, 58
3, 159884, Note_off_c, 1, 72, 0
3, 159916, Note_off_c, 1, 74, 0
3, 159936, Note_on_c, 1, 72, 58
3, 159980, Note_off_c, 1, 72, 0
3, 159984, Note_on_c, 1, 74, 58
3, 160028, Note_off_c, 1, 74, 0
3, 160032, Note_on_c, 1, 71, 58
3, 160076, Note_off_c, 1, 71, 0
3, 160080, Note_on_c, 1, 72, 58
3, 160124, Note_off_c, 1, 72, 0
3, 160128, Note_on_c, 1, 76, 58
3, 160508, Note_off_c, 1, 76, 0
3, 160896, Note_on_c, 1, 74, 58
3, 160940, Note_off_c, 1, 74, 0
3, 160944, Note_on_c, 1, 76, 58
3, 160988, Note_off_c, 1, 76, 0
3, 160992, Note_on_c, 1, 74, 58
3, 161036, Note_off_c, 1, 74, 0
3, 161040, Note_on_c, 1, 76, 58
3, 161084, Note_off_c, 1, 76, 0
3, 161088, Note_on_c, 1, 74, 58
3, 161132, Note_off_c, 1, 74, 0
3, 161136, Note_on_c, 1, 76, 58
3, 161180, Note_off_c, 1, 76, 0
3, 161184, Note_on_c, 1, 72, 58
3, 161228, Note_off_c, 1, 72, 0
3, 161232, Note_on_c, 1, 74, 58
3, 161276, Note_off_c, 1, 74, 0
3, 161280, Note_on_c, 1, 76, 58
3, 161660, Note_off_c, 1, 76, 0
3, 162048, Note_on_c, 1, 79, 58
3, 162236, Note_off_c, 1, 79, 0
3, 162240, Note_on_c, 1, 76, 58
3, 162332, Note_off_c, 1, 76, 0
3, 162432, Note_on_c, 1, 79, 58
3, 162620, Note_off_c, 1, 79, 0
3, 162624, Note_on_c, 1, 77, 58
3, 162716, Note_off_c, 1, 77, 0
3, 163200, Note_on_c, 1, 83, 58
3, 163580, Note_off_c, 1, 83, 0
3, 163584, Note_on_c, 1, 84, 58
3, 163584, Note_on_c, 1, 79, 58
3, 163584, Note_on_c, 1, 76, 58
3, 163964, Note_off_c, 1, 84, 0
3, 163964, Note_off_c, 1, 79, 0
3, 163964, Note_off_c, 1, 76, 0
3, 164352, Note_on_c, 1, 72, 58
3, 164396, Note_off_c, 1, 72, 0
3, 164400, Note_on_c, 1, 74, 58
3, 164444, Note_off_c, 1, 74, 0
3, 164448, Note_on_c, 1, 72, 58
3, 164492, Note_off_c, 1, 72, 0
3, 164496, Note_on_c, 1, 74, 58
3, 164540, Note_off_c, 1, 74, 0
3, 164544, Note_on_c, 1, 72, 58
3, 164588, Note_off_c, 1, 72, 0
3, 164592, Note_on_c, 1, 74, 58
3, 164636, Note_off_c, 1, 74, 0
3, 164640, Note_on_c, 1, 71, 58
3, 164684, Note_off_c, 1, 71, 0
3, 164688, Note_on_c, 1, 72, 58
3, 164732, Note_off_c, 1, 72, 0
3, 164736, Note_on_c, 1, 74, 58
3, 164736, Note_on_c, 1, 65, 58
3, 164736, Note_on_c, 1, 62, 58
3, 164736, Note_on_c, 1, 59, 58
3, 164924, Note_off_c, 1, 65, 0
3, 164924, Note_off_c, 1, 62, 0
3, 164924, Note_off_c, 1, 59, 0
3, 164928, Note_on_c, 1, 68, 58
3, 165116, Note_off_c, 1, 74, 0
3, 165116, Note_off_c, 1, 68, 0
3, 165120, Note_on_c, 1, 65, 58
3, 165120, Note_on_c, 1, 62, 58
3, 165308, Note_off_c, 1, 65, 0
3, 165308, Note_off_c, 1, 62, 0
3, 165312, Note_on_c, 1, 68, 58
3, 165500, Note_off_c, 1, 68, 0
3, 165504, Note_on_c, 1, 74, 58
3, 165504, Note_on_c, 1, 65, 58
3, 165504, Note_on_c, 1, 62, 58
3, 165504, Note_on_c, 1, 59, 58
3, 165548, Note_off_c, 1, 74, 0
3, 165552, Note_on_c, 1, 76, 58
3, 165596, Note_off_c, 1, 76, 0
3, 165600, Note_on_c, 1, 74, 58
3, 165644, Note_off_c, 1, 74, 0
3, 165648, Note_on_c, 1, 76, 58
3, 165692, Note_off_c, 1, 65, 0
3, 165692, Note_off_c, 1, 62, 0
3, 165692, Note_off_c, 1, 59, 0
3, 165692, Note_off_c, 1, 76, 0
3, 165696, Note_on_c, 1, 74, 58
3, 165696, Note_on_c, 1, 68, 58
3, 165740, Note_off_c, 1, 74, 0
3, 165744, Note_on_c, 1, 76, 58
3, 165788, Note_off_c, 1, 76, 0
3, 165792, Note_on_c, 1, 72, 58
3, 165836, Note_off_c, 1, 72, 0
3, 165840, Note_on_c, 1, 74, 58
3, 165884, Note_off_c, 1, 68, 0
3, 165884, Note_off_c, 1, 74, 0
3, 165888, Note_on_c, 1, 76, 58
3, 165888, Note_on_c, 1, 64, 58
3, 165888, Note_on_c, 1, 60, 58
3, 166076, Note_off_c, 1, 64, 0
3, 166076, Note_off_c, 1, 60, 0
3, 166080, Note_on_c, 1, 69, 58
3, 166268, Note_off_c, 1, 76, 0
3, 166268, Note_off_c, 1, 69, 0
3, 166272, Note_on_c, 1, 60, 58
3, 166460, Note_off_c, 1, 60, 0
3, 166464, Note_on_c, 1, 69, 58
3, 166640, Note_on_c, 1, 60, 58
3, 166652, Note_off_c, 1, 69, 0
3, 166656, Note_on_c, 1, 76, 58
3, 166656, Note_on_c, 1, 57, 58
3, 166828, Note_off_c, 1, 60, 0
3, 166844, Note_off_c, 1, 76, 0
3, 166844, Note_off_c, 1, 57, 0
3, 166848, Note_on_c, 1, 72, 58
3, 166848, Note_on_c, 1, 64, 58
3, 166940, Note_off_c, 1, 72, 0
3, 167036, Note_off_c, 1, 64, 0
3, 167040, Note_on_c, 1, 76, 58
3, 167040, Note_on_c, 1, 59, 58
3, 167040, Note_on_c, 1, 55, 58
3, 167228, Note_off_c, 1, 76, 0
3, 167228, Note_off_c, 1, 59, 0
3, 167228, Note_off_c, 1, 55, 0
3, 167232, Note_on_c, 1, 74, 58
3, 167232, Note_on_c, 1, 64, 58
3, 167324, Note_off_c, 1, 74, 0
3, 167420, Note_off_c, 1, 64, 0
3, 167424, Note_on_c, 1, 59, 58
3, 167612, Note_off_c, 1, 59, 0
3, 167616, Note_on_c, 1, 64, 58
3, 167804, Note_off_c, 1, 64, 0
3, 167808, Note_on_c, 1, 80, 58
3, 168188, Note_off_c, 1, 80, 0
3, 168192, Note_on_c, 1, 81, 58
3, 168192, Note_on_c, 1, 76, 58
3, 168192, Note_on_c, 1, 72, 58
3, 168572, Note_off_c, 1, 81, 0
3, 168572, Note_off_c, 1, 76, 0
3, 168572, Note_off_c, 1, 72, 0
3, 168960, Note_on_c, 1, 72, 58
3, 169004, Note_off_c, 1, 72, 0
3, 169008, Note_on_c, 1, 74, 58
3, 169052, Note_off_c, 1, 74, 0
3, 169056, Note_on_c, 1, 72, 58
3, 169100, Note_off_c, 1, 72, 0
3, 169104, Note_on_c, 1, 74, 58
3, 169148, Note_off_c, 1, 74, 0
3, 169152, Note_on_c, 1, 72, 58
3, 169196, Note_off_c, 1, 72, 0
3, 169200, Note_on_c, 1, 74, 58
3, 169244, Note_off_c, 1, 74, 0
3, 169248, Note_on_c, 1, 71, 58
3, 169292, Note_off_c, 1, 71, 0
3, 169296, Note_on_c, 1, 72, 58
3, 169340, Note_off_c, 1, 72, 0
3, 169344, Note_on_c, 1, 75, 58
3, 169344, Note_on_c, 1, 72, 58
3, 169724, Note_off_c, 1, 75, 0
3, 169724, Note_off_c, 1, 72, 0
3, 170112, Note_on_c, 1, 75, 58
3, 170156, Note_off_c, 1, 75, 0
3, 170160, Note_on_c, 1, 77, 58
3, 170204, Note_off_c, 1, 77, 0
3, 170208, Note_on_c, 1, 75, 58
3, 170252, Note_off_c, 1, 75, 0
3, 170256, Note_on_c, 1, 77, 58
3, 170300, Note_off_c, 1, 77, 0
3, 170304, Note_on_c, 1, 75, 58
3, 170348, Note_off_c, 1, 75, 0
3, 170352, Note_on_c, 1, 77, 58
3, 170396, Note_off_c, 1, 77, 0
3, 170400, Note_on_c, 1, 74, 58
3, 170444, Note_off_c, 1, 74, 0
3, 170448, Note_on_c, 1, 75, 58
3, 170492, Note_off_c, 1, 75, 0
3, 170496, Note_on_c, 1, 74, 58
3, 170876, Note_off_c, 1, 74, 0
3, 171264, Note_on_c, 1, 67, 58
3, 171452, Note_off_c, 1, 67, 0
3, 171456, Note_on_c, 1, 71, 58
3, 171548, Note_off_c, 1, 71, 0
3, 171648, Note_on_c, 1, 74, 58
3, 171836, Note_off_c, 1, 74, 0
3, 171840, Note_on_c, 1, 72, 58
3, 171932, Note_off_c, 1, 72, 0
3, 172416, Note_on_c, 1, 78, 58
3, 172796, Note_off_c, 1, 78, 0
3, 172800, Note_on_c, 1, 79, 58
3, 172988, Note_off_c, 1, 79, 0
3, 172992, Note_on_c, 1, 71, 58
3, 172992, Note_on_c, 1, 67, 58
3, 172992, Note_on_c, 1, 62, 58
3, 173180, Note_off_c, 1, 71, 0
3, 173180, Note_off_c, 1, 67, 0
3, 173180, Note_off_c, 1, 62, 0
3, 173184, Note_on_c, 1, 71, 58
3, 173184, Note_on_c, 1, 67, 58
3, 173184, Note_on_c, 1, 62, 58
3, 173372, Note_off_c, 1, 71, 0
3, 173372, Note_off_c, 1, 67, 0
3, 173372, Note_off_c, 1, 62, 0
3, 173376, Note_on_c, 1, 71, 58
3, 173376, Note_on_c, 1, 67, 58
3, 173376, Note_on_c, 1, 62, 58
3, 173564, Note_off_c, 1, 71, 0
3, 173564, Note_off_c, 1, 67, 0
3, 173564, Note_off_c, 1, 62, 0
3, 173568, Note_on_c, 1, 71, 58
3, 173568, Note_on_c, 1, 67, 58
3, 173568, Note_on_c, 1, 62, 58
3, 173756, Note_off_c, 1, 71, 0
3, 173756, Note_off_c, 1, 67, 0
3, 173756, Note_off_c, 1, 62, 0
3, 173760, Note_on_c, 1, 71, 58
3, 173760, Note_on_c, 1, 67, 58
3, 173760, Note_on_c, 1, 62, 58
3, 173948, Note_off_c, 1, 71, 0
3, 173948, Note_off_c, 1, 67, 0
3, 173948, Note_off_c, 1, 62, 0
3, 173952, Note_on_c, 1, 70, 58
3, 173952, Note_on_c, 1, 67, 58
3, 173952, Note_on_c, 1, 61, 58
3, 174140, Note_off_c, 1, 70, 0
3, 174140, Note_off_c, 1, 67, 0
3, 174140, Note_off_c, 1, 61, 0
3, 174144, Note_on_c, 1, 70, 58
3, 174144, Note_on_c, 1, 67, 58
3, 174144, Note_on_c, 1, 61, 58
3, 174332, Note_off_c, 1, 70, 0
3, 174332, Note_off_c, 1, 67, 0
3, 174332, Note_off_c, 1, 61, 0
3, 174336, Note_on_c, 1, 70, 58
3, 174336, Note_on_c, 1, 67, 58
3, 174336, Note_on_c, 1, 61, 58
3, 174524, Note_off_c, 1, 70, 0
3, 174524, Note_off_c, 1, 67, 0
3, 174524, Note_off_c, 1, 61, 0
3, 174528, Note_on_c, 1, 70, 58
3, 174528, Note_on_c, 1, 67, 58
3, 174528, Note_on_c, 1, 61, 58
3, 174716, Note_off_c, 1, 70, 0
3, 174716, Note_off_c, 1, 67, 0
3, 174716, Note_off_c, 1, 61, 0
3, 174720, Note_on_c, 1, 70, 58
3, 174720, Note_on_c, 1, 67, 58
3, 174720, Note_on_c, 1, 61, 58
3, 174908, Note_off_c, 1, 70, 0
3, 174908, Note_off_c, 1, 67, 0
3, 174908, Note_off_c, 1, 61, 0
3, 174912, Note_on_c, 1, 70, 58
3, 174912, Note_on_c, 1, 67, 58
3, 174912, Note_on_c, 1, 61, 58
3, 175100, Note_off_c, 1, 70, 0
3, 175100, Note_off_c, 1, 67, 0
3, 175100, Note_off_c, 1, 61, 0
3, 175104, Note_on_c, 1, 70, 58
3, 175104, Note_on_c, 1, 67, 58
3, 175104, Note_on_c, 1, 64, 58
3, 175292, Note_off_c, 1, 70, 0
3, 175292, Note_off_c, 1, 67, 0
3, 175292, Note_off_c, 1, 64, 0
3, 175488, Note_on_c, 1, 70, 58
3, 175488, Note_on_c, 1, 67, 58
3, 175488, Note_on_c, 1, 64, 58
3, 175676, Note_off_c, 1, 70, 0
3, 175676, Note_off_c, 1, 67, 0
3, 175676, Note_off_c, 1, 64, 0
3, 175872, Note_on_c, 1, 70, 58
3, 175872, Note_on_c, 1, 67, 58
3, 175872, Note_on_c, 1, 64, 58
3, 176060, Note_off_c, 1, 70, 0
3, 176060, Note_off_c, 1, 67, 0
3, 176060, Note_off_c, 1, 64, 0
3, 176640, Note_on_c, 1, 82, 79
3, 176640, Note_on_c, 1, 70, 79
3, 177020, Note_off_c, 1, 82, 0
3, 177020, Note_off_c, 1, 70, 0
3, 177024, Note_on_c, 1, 73, 79
3, 177024, Note_on_c, 1, 67, 79
3, 177024, Note_on_c, 1, 61, 79
3, 177404, Note_off_c, 1, 73, 0
3, 177404, Note_off_c, 1, 67, 0
3, 177404, Note_off_c, 1, 61, 0
3, 177408, Note_on_c, 1, 74, 58
3, 177408, Note_on_c, 1, 62, 58
3, 177584, Note_on_c, 1, 66, 58
3, 177596, Note_off_c, 1, 74, 0
3, 177596, Note_off_c, 1, 62, 0
3, 177600, Note_on_c, 1, 69, 58
3, 177964, Note_off_c, 1, 66, 0
3, 177968, Note_on_c, 1, 66, 58
3, 177980, Note_off_c, 1, 69, 0
3, 177984, Note_on_c, 1, 69, 58
3, 178348, Note_off_c, 1, 66, 0
3, 178364, Note_off_c, 1, 69, 0
3, 178368, Note_on_c, 1, 66, 58
3, 178368, Note_on_c, 1, 69, 58
3, 178556, Note_off_c, 1, 66, 0
3, 178556, Note_off_c, 1, 69, 0
3, 178736, Note_on_c, 1, 66, 58
3, 178752, Note_on_c, 1, 69, 58
3, 179116, Note_off_c, 1, 66, 0
3, 179132, Note_off_c, 1, 69, 0
3, 179136, Note_on_c, 1, 66, 58
3, 179136, Note_on_c, 1, 69, 58
3, 179516, Note_off_c, 1, 66, 0
3, 179516, Note_off_c, 1, 69, 0
3, 179520, Note_on_c, 1, 69, 58
3, 179520, Note_on_c, 1, 66, 58
3, 179708, Note_off_c, 1, 69, 0
3, 179708, Note_off_c, 1, 66, 0
3, 179888, Note_on_c, 1, 67, 58
3, 179888, Note_on_c, 1, 70, 58
3, 180268, Note_off_c, 1, 67, 0
3, 180268, Note_off_c, 1, 70, 0
3, 180288, Note_on_c, 1, 67, 58
3, 180288, Note_on_c, 1, 70, 58
3, 180668, Note_off_c, 1, 67, 0
3, 180668, Note_off_c, 1, 70, 0
3, 180672, Note_on_c, 1, 70, 58
3, 180672, Note_on_c, 1, 67, 58
3, 180860, Note_off_c, 1, 70, 0
3, 180860, Note_off_c, 1, 67, 0
3, 181056, Note_on_c, 1, 70, 58
3, 181056, Note_on_c, 1, 67, 58
3, 181436, Note_off_c, 1, 70, 0
3, 181436, Note_off_c, 1, 67, 0
3, 181440, Note_on_c, 1, 70, 58
3, 181440, Note_on_c, 1, 67, 58
3, 181820, Note_off_c, 1, 70, 0
3, 181820, Note_off_c, 1, 67, 0
3, 181824, Note_on_c, 1, 70, 58
3, 181824, Note_on_c, 1, 67, 58
3, 182012, Note_off_c, 1, 70, 0
3, 182012, Note_off_c, 1, 67, 0
3, 182016, Note_on_c, 1, 66, 58
3, 182016, Note_on_c, 1, 69, 58
3, 182204, Note_off_c, 1, 66, 0
3, 182204, Note_off_c, 1, 69, 0
3, 182208, Note_on_c, 1, 62, 58
3, 182396, Note_off_c, 1, 62, 0
3, 182400, Note_on_c, 1, 66, 58
3, 182400, Note_on_c, 1, 69, 58
3, 182588, Note_off_c, 1, 66, 0
3, 182588, Note_off_c, 1, 69, 0
3, 182592, Note_on_c, 1, 62, 58
3, 182780, Note_off_c, 1, 62, 0
3, 182784, Note_on_c, 1, 66, 58
3, 182784, Note_on_c, 1, 69, 58
3, 182972, Note_off_c, 1, 66, 0
3, 182972, Note_off_c, 1, 69, 0
3, 182976, Note_on_c, 1, 62, 58
3, 183164, Note_off_c, 1, 62, 0
3, 183168, Note_on_c, 1, 69, 58
3, 183168, Note_on_c, 1, 66, 58
3, 183356, Note_off_c, 1, 69, 0
3, 183356, Note_off_c, 1, 66, 0
3, 183360, Note_on_c, 1, 62, 58
3, 183548, Note_off_c, 1, 62, 0
3, 183552, Note_on_c, 1, 72, 58
3, 183552, Note_on_c, 1, 69, 58
3, 183740, Note_off_c, 1, 72, 0
3, 183740, Note_off_c, 1, 69, 0
3, 183744, Note_on_c, 1, 62, 58
3, 183932, Note_off_c, 1, 62, 0
3, 183936, Note_on_c, 1, 74, 58
3, 183936, Note_on_c, 1, 69, 58
3, 184124, Note_off_c, 1, 74, 0
3, 184124, Note_off_c, 1, 69, 0
3, 184128, Note_on_c, 1, 62, 58
3, 184316, Note_off_c, 1, 62, 0
3, 184320, Note_on_c, 1, 72, 58
3, 184320, Note_on_c, 1, 69, 58
3, 184348, Note_off_c, 1, 72, 0
3, 184348, Note_off_c, 1, 69, 0
3, 184352, Note_on_c, 1, 70, 58
3, 184352, Note_on_c, 1, 67, 58
3, 184512, Note_on_c, 1, 62, 58
3, 184540, Note_off_c, 1, 70, 0
3, 184540, Note_off_c, 1, 67, 0
3, 184700, Note_off_c, 1, 62, 0
3, 184704, Note_on_c, 1, 70, 58
3, 184704, Note_on_c, 1, 67, 58
3, 184892, Note_off_c, 1, 70, 0
3, 184892, Note_off_c, 1, 67, 0
3, 184896, Note_on_c, 1, 62, 58
3, 185084, Note_off_c, 1, 62, 0
3, 185088, Note_on_c, 1, 70, 58
3, 185088, Note_on_c, 1, 67, 58
3, 185276, Note_off_c, 1, 70, 0
3, 185276, Note_off_c, 1, 67, 0
3, 185280, Note_on_c, 1, 62, 58
3, 185468, Note_off_c, 1, 62, 0
3, 185472, Note_on_c, 1, 70, 58
3, 185472, Note_on_c, 1, 67, 58
3, 185660, Note_off_c, 1, 70, 0
3, 185660, Note_off_c, 1, 67, 0
3, 185664, Note_on_c, 1, 62, 58
3, 185852, Note_off_c, 1, 62, 0
3, 185856, Note_on_c, 1, 73, 58
3, 185856, Note_on_c, 1, 70, 58
3, 186044, Note_off_c, 1, 73, 0
3, 186044, Note_off_c, 1, 70, 0
3, 186048, Note_on_c, 1, 62, 58
3, 186236, Note_off_c, 1, 62, 0
3, 186240, Note_on_c, 1, 74, 58
3, 186240, Note_on_c, 1, 70, 58
3, 186428, Note_off_c, 1, 74, 0
3, 186428, Note_off_c, 1, 70, 0
3, 186432, Note_on_c, 1, 62, 58
3, 186620, Note_off_c, 1, 62, 0
3, 186624, Note_on_c, 1, 70, 79
3, 186624, Note_on_c, 1, 67, 79
3, 186656, Note_on_c, 1, 69, 79
3, 186656, Note_on_c, 1, 66, 79
3, 186668, Note_off_c, 1, 70, 0
3, 186668, Note_off_c, 1, 67, 0
3, 186720, Note_on_c, 1, 62, 79
3, 186748, Note_off_c, 1, 69, 0
3, 186748, Note_off_c, 1, 66, 0
3, 186812, Note_off_c, 1, 62, 0
3, 186816, Note_on_c, 1, 64, 79
3, 186908, Note_off_c, 1, 64, 0
3, 186912, Note_on_c, 1, 66, 79
3, 187004, Note_off_c, 1, 66, 0
3, 187008, Note_on_c, 1, 67, 79
3, 187100, Note_off_c, 1, 67, 0
3, 187104, Note_on_c, 1, 69, 79
3, 187196, Note_off_c, 1, 69, 0
3, 187200, Note_on_c, 1, 71, 79
3, 187292, Note_off_c, 1, 71, 0
3, 187296, Note_on_c, 1, 73, 79
3, 187388, Note_off_c, 1, 73, 0
3, 187392, Note_on_c, 1, 74, 79
3, 187484, Note_off_c, 1, 74, 0
3, 187488, Note_on_c, 1, 73, 79
3, 187580, Note_off_c, 1, 73, 0
3, 187584, Note_on_c, 1, 74, 79
3, 187676, Note_off_c, 1, 74, 0
3, 187680, Note_on_c, 1, 73, 79
3, 187772, Note_off_c, 1, 73, 0
3, 187776, Note_on_c, 1, 74, 79
3, 187776, Note_on_c, 1, 69, 79
3, 187776, Note_on_c, 1, 66, 79
3, 188156, Note_off_c, 1, 74, 0
3, 188540, Note_off_c, 1, 69, 0
3, 188540, Note_off_c, 1, 66, 0
3, 188928, Note_on_c, 1, 62, 79
3, 189692, Note_off_c, 1, 62, 0
3, 190080, Note_on_c, 1, 71, 58
3, 190460, Note_off_c, 1, 71, 0
3, 190464, Note_on_c, 1, 67, 58
3, 190844, Note_off_c, 1, 67, 0
3, 190848, Note_on_c, 1, 62, 58
3, 191228, Note_off_c, 1, 62, 0
3, 191232, Note_on_c, 1, 59, 58
3, 191612, Note_off_c, 1, 59, 0
3, 192000, Note_on_c, 1, 62, 58
3, 192188, Note_off_c, 1, 62, 0
3, 192192, Note_on_c, 1, 67, 58
3, 192380, Note_off_c, 1, 67, 0
3, 192384, Note_on_c, 1, 66, 58
3, 192764, Note_off_c, 1, 66, 0
3, 193152, Note_on_c, 1, 62, 58
3, 193340, Note_off_c, 1, 62, 0
3, 193344, Note_on_c, 1, 66, 58
3, 193532, Note_off_c, 1, 66, 0
3, 193536, Note_on_c, 1, 67, 58
3, 194300, Note_off_c, 1, 67, 0
3, 194304, Note_on_c, 1, 66, 58
3, 194684, Note_off_c, 1, 66, 0
3, 194688, Note_on_c, 1, 67, 58
3, 195068, Note_off_c, 1, 67, 0
3, 195072, Note_on_c, 1, 66, 58
3, 195452, Note_off_c, 1, 66, 0
3, 195456, Note_on_c, 1, 78, 58
3, 195836, Note_off_c, 1, 78, 0
3, 195840, Note_on_c, 1, 79, 58
3, 196220, Note_off_c, 1, 79, 0
3, 196224, Note_on_c, 1, 74, 58
3, 196604, Note_off_c, 1, 74, 0
3, 196992, Note_on_c, 1, 76, 58
3, 197372, Note_off_c, 1, 76, 0
3, 197376, Note_on_c, 1, 69, 58
3, 197756, Note_off_c, 1, 69, 0
3, 198144, Note_on_c, 1, 72, 58
3, 198332, Note_off_c, 1, 72, 0
3, 198336, Note_on_c, 1, 69, 58
3, 198524, Note_off_c, 1, 69, 0
3, 198528, Note_on_c, 1, 67, 58
3, 198716, Note_off_c, 1, 67, 0
3, 198720, Note_on_c, 1, 66, 58
3, 198908, Note_off_c, 1, 66, 0
3, 198912, Note_on_c, 1, 69, 58
3, 199100, Note_off_c, 1, 69, 0
3, 199104, Note_on_c, 1, 66, 58
3, 199292, Note_off_c, 1, 66, 0
3, 199296, Note_on_c, 1, 74, 79
3, 199296, Note_on_c, 1, 71, 79
3, 199296, Note_on_c, 1, 67, 79
3, 199296, Note_on_c, 1, 62, 79
3, 199676, Note_off_c, 1, 74, 0
3, 199676, Note_off_c, 1, 71, 0
3, 199676, Note_off_c, 1, 67, 0
3, 199676, Note_off_c, 1, 62, 0
3, 199680, Note_on_c, 1, 74, 79
3, 199680, Note_on_c, 1, 71, 79
3, 199680, Note_on_c, 1, 67, 79
3, 199680, Note_on_c, 1, 62, 79
3, 200060, Note_off_c, 1, 74, 0
3, 200060, Note_off_c, 1, 71, 0
3, 200060, Note_off_c, 1, 67, 0
3, 200060, Note_off_c, 1, 62, 0
3, 200064, Note_on_c, 1, 74, 79
3, 200064, Note_on_c, 1, 71, 79
3, 200064, Note_on_c, 1, 67, 79
3, 200064, Note_on_c, 1, 62, 79
3, 200444, Note_off_c, 1, 74, 0
3, 200444, Note_off_c, 1, 71, 0
3, 200444, Note_off_c, 1, 67, 0
3, 200444, Note_off_c, 1, 62, 0
3, 200448, Note_on_c, 1, 74, 79
3, 200448, Note_on_c, 1, 71, 79
3, 200448, Note_on_c, 1, 67, 79
3, 200448, Note_on_c, 1, 62, 79
3, 200636, Note_off_c, 1, 74, 0
3, 200636, Note_off_c, 1, 71, 0
3, 200636, Note_off_c, 1, 67, 0
3, 200636, Note_off_c, 1, 62, 0
3, 200640, Note_on_c, 1, 71, 79
3, 200828, Note_off_c, 1, 71, 0
3, 200832, Note_on_c, 1, 67, 79
3, 201020, Note_off_c, 1, 67, 0
3, 201024, Note_on_c, 1, 62, 79
3, 201212, Note_off_c, 1, 62, 0
3, 201216, Note_on_c, 1, 74, 79
3, 201216, Note_on_c, 1, 71, 79
3, 201404, Note_off_c, 1, 74, 0
3, 201404, Note_off_c, 1, 71, 0
3, 201408, Note_on_c, 1, 71, 79
3, 201408, Note_on_c, 1, 67, 79
3, 201596, Note_off_c, 1, 71, 0
3, 201596, Note_off_c, 1, 67, 0
3, 201600, Note_on_c, 1, 72, 79
3, 201600, Note_on_c, 1, 69, 79
3, 201600, Note_on_c, 1, 66, 79
3, 201600, Note_on_c, 1, 62, 79
3, 201788, Note_off_c, 1, 72, 0
3, 201788, Note_off_c, 1, 69, 0
3, 201788, Note_off_c, 1, 66, 0
3, 201788, Note_off_c, 1, 62, 0
3, 201792, Note_on_c, 1, 69, 79
3, 201980, Note_off_c, 1, 69, 0
3, 201984, Note_on_c, 1, 66, 79
3, 202172, Note_off_c, 1, 66, 0
3, 202176, Note_on_c, 1, 62, 79
3, 202364, Note_off_c, 1, 62, 0
3, 202368, Note_on_c, 1, 69, 79
3, 202368, Note_on_c, 1, 72, 79
3, 202556, Note_off_c, 1, 69, 0
3, 202556, Note_off_c, 1, 72, 0
3, 202560, Note_on_c, 1, 66, 79
3, 202560, Note_on_c, 1, 69, 79
3, 202748, Note_off_c, 1, 66, 0
3, 202748, Note_off_c, 1, 69, 0
3, 202752, Note_on_c, 1, 67, 79
3, 202876, Note_off_c, 1, 67, 0
3, 202880, Note_on_c, 1, 71, 79
3, 203004, Note_off_c, 1, 71, 0
3, 203008, Note_on_c, 1, 69, 79
3, 203132, Note_off_c, 1, 69, 0
3, 203136, Note_on_c, 1, 67, 79
3, 203260, Note_off_c, 1, 67, 0
3, 203264, Note_on_c, 1, 69, 79
3, 203388, Note_off_c, 1, 69, 0
3, 203392, Note_on_c, 1, 71, 79
3, 203516, Note_off_c, 1, 71, 0
3, 203520, Note_on_c, 1, 69, 79
3, 203520, Note_on_c, 1, 66, 79
3, 203900, Note_off_c, 1, 69, 0
3, 203900, Note_off_c, 1, 66, 0
3, 204096, Note_on_c, 1, 72, 79
3, 204284, Note_off_c, 1, 72, 0
3, 204288, Note_on_c, 1, 72, 79
3, 204332, Note_off_c, 1, 72, 0
3, 204336, Note_on_c, 1, 74, 79
3, 204380, Note_off_c, 1, 74, 0
3, 204384, Note_on_c, 1, 71, 79
3, 204428, Note_off_c, 1, 71, 0
3, 204432, Note_on_c, 1, 72, 79
3, 204476, Note_off_c, 1, 72, 0
3, 204480, Note_on_c, 1, 71, 79
3, 204668, Note_off_c, 1, 71, 0
3, 204672, Note_on_c, 1, 71, 79
3, 204716, Note_off_c, 1, 71, 0
3, 204720, Note_on_c, 1, 72, 79
3, 204764, Note_off_c, 1, 72, 0
3, 204768, Note_on_c, 1, 69, 79
3, 204812, Note_off_c, 1, 69, 0
3, 204816, Note_on_c, 1, 71, 79
3, 204860, Note_off_c, 1, 71, 0
3, 204864, Note_on_c, 1, 69, 79
3, 205052, Note_off_c, 1, 69, 0
3, 205056, Note_on_c, 1, 64, 79
3, 205248, Note_on_c, 1, 76, 79
3, 205436, Note_off_c, 1, 64, 0
3, 205436, Note_off_c, 1, 76, 0
3, 205440, Note_on_c, 1, 75, 79
3, 205628, Note_off_c, 1, 75, 0
3, 205632, Note_on_c, 1, 76, 79
3, 205820, Note_off_c, 1, 76, 0
3, 205824, Note_on_c, 1, 72, 79
3, 205824, Note_on_c, 1, 64, 79
3, 206012, Note_off_c, 1, 72, 0
3, 206012, Note_off_c, 1, 64, 0
3, 206016, Note_on_c, 1, 69, 79
3, 206016, Note_on_c, 1, 66, 79
3, 206204, Note_off_c, 1, 69, 0
3, 206204, Note_off_c, 1, 66, 0
3, 206208, Note_on_c, 1, 74, 79
3, 206492, Note_off_c, 1, 74, 0
3, 206496, Note_on_c, 1, 67, 79
3, 206588, Note_off_c, 1, 67, 0
3, 206592, Note_on_c, 1, 69, 79
3, 206636, Note_off_c, 1, 69, 0
3, 206640, Note_on_c, 1, 71, 79
3, 206684, Note_off_c, 1, 71, 0
3, 206688, Note_on_c, 1, 69, 79
3, 206732, Note_off_c, 1, 69, 0
3, 206736, Note_on_c, 1, 71, 79
3, 206780, Note_off_c, 1, 71, 0
3, 206784, Note_on_c, 1, 69, 79
3, 206828, Note_off_c, 1, 69, 0
3, 206832, Note_on_c, 1, 71, 79
3, 206876, Note_off_c, 1, 71, 0
3, 206880, Note_on_c, 1, 69, 79
3, 206924, Note_off_c, 1, 69, 0
3, 206928, Note_on_c, 1, 71, 79
3, 206972, Note_off_c, 1, 71, 0
3, 206976, Note_on_c, 1, 69, 79
3, 207020, Note_off_c, 1, 69, 0
3, 207024, Note_on_c, 1, 71, 79
3, 207068, Note_off_c, 1, 71, 0
3, 207072, Note_on_c, 1, 69, 79
3, 207116, Note_off_c, 1, 69, 0
3, 207120, Note_on_c, 1, 71, 79
3, 207164, Note_off_c, 1, 71, 0
3, 207168, Note_on_c, 1, 69, 79
3, 207212, Note_off_c, 1, 69, 0
3, 207216, Note_on_c, 1, 71, 79
3, 207260, Note_off_c, 1, 71, 0
3, 207264, Note_on_c, 1, 67, 79
3, 207308, Note_off_c, 1, 67, 0
3, 207312, Note_on_c, 1, 69, 79
3, 207356, Note_off_c, 1, 69, 0
3, 207360, Note_on_c, 1, 67, 79
3, 207548, Note_off_c, 1, 67, 0
3, 207552, Note_on_c, 1, 71, 58
3, 207552, Note_on_c, 1, 67, 58
3, 207552, Note_on_c, 1, 62, 58
3, 207740, Note_off_c, 1, 71, 0
3, 207740, Note_off_c, 1, 67, 0
3, 207740, Note_off_c, 1, 62, 0
3, 207744, Note_on_c, 1, 71, 58
3, 207744, Note_on_c, 1, 67, 58
3, 207744, Note_on_c, 1, 62, 58
3, 207932, Note_off_c, 1, 71, 0
3, 207932, Note_off_c, 1, 67, 0
3, 207932, Note_off_c, 1, 62, 0
3, 207936, Note_on_c, 1, 71, 58
3, 207936, Note_on_c, 1, 67, 58
3, 207936, Note_on_c, 1, 62, 58
3, 208124, Note_off_c, 1, 71, 0
3, 208124, Note_off_c, 1, 67, 0
3, 208124, Note_off_c, 1, 62, 0
3, 208128, Note_on_c, 1, 71, 58
3, 208128, Note_on_c, 1, 67, 58
3, 208128, Note_on_c, 1, 62, 58
3, 208316, Note_off_c, 1, 71, 0
3, 208316, Note_off_c, 1, 67, 0
3, 208316, Note_off_c, 1, 62, 0
3, 208320, Note_on_c, 1, 71, 58
3, 208320, Note_on_c, 1, 67, 58
3, 208320, Note_on_c, 1, 62, 58
3, 208508, Note_off_c, 1, 71, 0
3, 208508, Note_off_c, 1, 67, 0
3, 208508, Note_off_c, 1, 62, 0
3, 208512, Note_on_c, 1, 71, 58
3, 208512, Note_on_c, 1, 67, 58
3, 208512, Note_on_c, 1, 62, 58
3, 208700, Note_off_c, 1, 71, 0
3, 208700, Note_off_c, 1, 67, 0
3, 208700, Note_off_c, 1, 62, 0
3, 208704, Note_on_c, 1, 71, 58
3, 208704, Note_on_c, 1, 67, 58
3, 208704, Note_on_c, 1, 62, 58
3, 208892, Note_off_c, 1, 71, 0
3, 208892, Note_off_c, 1, 67, 0
3, 208892, Note_off_c, 1, 62, 0
3, 208896, Note_on_c, 1, 71, 58
3, 208896, Note_on_c, 1, 67, 58
3, 208896, Note_on_c, 1, 62, 58
3, 209084, Note_off_c, 1, 71, 0
3, 209084, Note_off_c, 1, 67, 0
3, 209084, Note_off_c, 1, 62, 0
3, 209088, Note_on_c, 1, 71, 58
3, 209088, Note_on_c, 1, 67, 58
3, 209088, Note_on_c, 1, 62, 58
3, 209276, Note_off_c, 1, 71, 0
3, 209276, Note_off_c, 1, 67, 0
3, 209276, Note_off_c, 1, 62, 0
3, 209280, Note_on_c, 1, 71, 58
3, 209280, Note_on_c, 1, 67, 58
3, 209280, Note_on_c, 1, 62, 58
3, 209468, Note_off_c, 1, 71, 0
3, 209468, Note_off_c, 1, 67, 0
3, 209468, Note_off_c, 1, 62, 0
3, 209472, Note_on_c, 1, 71, 58
3, 209472, Note_on_c, 1, 67, 58
3, 209472, Note_on_c, 1, 62, 58
3, 209660, Note_off_c, 1, 71, 0
3, 209660, Note_off_c, 1, 67, 0
3, 209660, Note_off_c, 1, 62, 0
3, 209664, Note_on_c, 1, 71, 79
3, 209664, Note_on_c, 1, 65, 79
3, 209664, Note_on_c, 1, 62, 79
3, 209852, Note_off_c, 1, 71, 0
3, 209852, Note_off_c, 1, 65, 0
3, 209852, Note_off_c, 1, 62, 0
3, 209856, Note_on_c, 1, 71, 58
3, 209856, Note_on_c, 1, 65, 58
3, 209856, Note_on_c, 1, 62, 58
3, 210044, Note_off_c, 1, 71, 0
3, 210044, Note_off_c, 1, 65, 0
3, 210044, Note_off_c, 1, 62, 0
3, 210048, Note_on_c, 1, 71, 58
3, 210048, Note_on_c, 1, 65, 58
3, 210048, Note_on_c, 1, 62, 58
3, 210236, Note_off_c, 1, 71, 0
3, 210236, Note_off_c, 1, 65, 0
3, 210236, Note_off_c, 1, 62, 0
3, 210240, Note_on_c, 1, 71, 58
3, 210240, Note_on_c, 1, 65, 58
3, 210240, Note_on_c, 1, 62, 58
3, 210428, Note_off_c, 1, 71, 0
3, 210428, Note_off_c, 1, 65, 0
3, 210428, Note_off_c, 1, 62, 0
3, 210432, Note_on_c, 1, 71, 58
3, 210432, Note_on_c, 1, 65, 58
3, 210432, Note_on_c, 1, 62, 58
3, 210620, Note_off_c, 1, 71, 0
3, 210620, Note_off_c, 1, 65, 0
3, 210620, Note_off_c, 1, 62, 0
3, 210624, Note_on_c, 1, 71, 58
3, 210624, Note_on_c, 1, 65, 58
3, 210624, Note_on_c, 1, 62, 58
3, 210812, Note_off_c, 1, 71, 0
3, 210812, Note_off_c, 1, 65, 0
3, 210812, Note_off_c, 1, 62, 0
3, 210816, Note_on_c, 1, 71, 58
3, 210816, Note_on_c, 1, 65, 58
3, 210816, Note_on_c, 1, 62, 58
3, 211004, Note_off_c, 1, 71, 0
3, 211004, Note_off_c, 1, 65, 0
3, 211004, Note_off_c, 1, 62, 0
3, 211008, Note_on_c, 1, 71, 58
3, 211008, Note_on_c, 1, 65, 58
3, 211008, Note_on_c, 1, 62, 58
3, 211196, Note_off_c, 1, 71, 0
3, 211196, Note_off_c, 1, 65, 0
3, 211196, Note_off_c, 1, 62, 0
3, 211200, Note_on_c, 1, 71, 58
3, 211200, Note_on_c, 1, 65, 58
3, 211200, Note_on_c, 1, 62, 58
3, 211388, Note_off_c, 1, 71, 0
3, 211388, Note_off_c, 1, 65, 0
3, 211388, Note_off_c, 1, 62, 0
3, 211392, Note_on_c, 1, 71, 58
3, 211392, Note_on_c, 1, 65, 58
3, 211392, Note_on_c, 1, 62, 58
3, 211580, Note_off_c, 1, 71, 0
3, 211580, Note_off_c, 1, 65, 0
3, 211580, Note_off_c, 1, 62, 0
3, 211584, Note_on_c, 1, 71, 58
3, 211584, Note_on_c, 1, 65, 58
3, 211584, Note_on_c, 1, 62, 58
3, 211772, Note_off_c, 1, 71, 0
3, 211772, Note_off_c, 1, 65, 0
3, 211772, Note_off_c, 1, 62, 0
3, 211776, Note_on_c, 1, 71, 58
3, 211776, Note_on_c, 1, 65, 58
3, 211776, Note_on_c, 1, 62, 58
3, 211964, Note_off_c, 1, 71, 0
3, 211964, Note_off_c, 1, 65, 0
3, 211964, Note_off_c, 1, 62, 0
3, 211968, Note_on_c, 1, 72, 79
3, 211968, Note_on_c, 1, 64, 79
3, 212144, Note_on_c, 1, 60, 79
3, 212156, Note_off_c, 1, 72, 0
3, 212156, Note_off_c, 1, 64, 0
3, 212524, Note_off_c, 1, 60, 0
3, 212544, Note_on_c, 1, 62, 79
3, 212636, Note_off_c, 1, 62, 0
3, 212640, Note_on_c, 1, 64, 79
3, 212732, Note_off_c, 1, 64, 0
3, 212736, Note_on_c, 1, 65, 79
3, 212828, Note_off_c, 1, 65, 0
3, 212832, Note_on_c, 1, 67, 79
3, 212924, Note_off_c, 1, 67, 0
3, 212928, Note_on_c, 1, 69, 79
3, 213020, Note_off_c, 1, 69, 0
3, 213024, Note_on_c, 1, 71, 79
3, 213116, Note_off_c, 1, 71, 0
3, 213120, Note_on_c, 1, 72, 79
3, 213212, Note_off_c, 1, 72, 0
3, 213216, Note_on_c, 1, 74, 79
3, 213308, Note_off_c, 1, 74, 0
3, 213312, Note_on_c, 1, 76, 79
3, 213404, Note_off_c, 1, 76, 0
3, 213408, Note_on_c, 1, 78, 79
3, 213500, Note_off_c, 1, 78, 0
3, 213504, Note_on_c, 1, 79, 79
3, 213596, Note_off_c, 1, 79, 0
3, 214464, Note_on_c, 1, 67, 79
3, 214844, Note_off_c, 1, 67, 0
3, 214848, Note_on_c, 1, 69, 79
3, 214940, Note_off_c, 1, 69, 0
3, 214944, Note_on_c, 1, 71, 79
3, 215036, Note_off_c, 1, 71, 0
3, 215040, Note_on_c, 1, 72, 79
3, 215132, Note_off_c, 1, 72, 0
3, 215136, Note_on_c, 1, 74, 79
3, 215228, Note_off_c, 1, 74, 0
3, 215232, Note_on_c, 1, 76, 79
3, 215324, Note_off_c, 1, 76, 0
3, 215328, Note_on_c, 1, 78, 79
3, 215420, Note_off_c, 1, 78, 0
3, 215424, Note_on_c, 1, 79, 79
3, 215516, Note_off_c, 1, 79, 0
3, 215520, Note_on_c, 1, 81, 79
3, 215612, Note_off_c, 1, 81, 0
3, 215616, Note_on_c, 1, 83, 79
3, 215708, Note_off_c, 1, 83, 0
3, 215712, Note_on_c, 1, 84, 79
3, 215804, Note_off_c, 1, 84, 0
3, 215808, Note_on_c, 1, 86, 79
3, 215900, Note_off_c, 1, 86, 0
3, 216576, Note_on_c, 1, 69, 79
3, 216764, Note_off_c, 1, 69, 0
3, 216768, Note_on_c, 1, 62, 79
3, 217148, Note_off_c, 1, 62, 0
3, 217152, Note_on_c, 1, 64, 79
3, 217244, Note_off_c, 1, 64, 0
3, 217248, Note_on_c, 1, 66, 79
3, 217340, Note_off_c, 1, 66, 0
3, 217344, Note_on_c, 1, 67, 79
3, 217436, Note_off_c, 1, 67, 0
3, 217440, Note_on_c, 1, 69, 79
3, 217532, Note_off_c, 1, 69, 0
3, 217536, Note_on_c, 1, 71, 79
3, 217628, Note_off_c, 1, 71, 0
3, 217632, Note_on_c, 1, 73, 79
3, 217724, Note_off_c, 1, 73, 0
3, 217728, Note_on_c, 1, 74, 79
3, 217820, Note_off_c, 1, 74, 0
3, 217824, Note_on_c, 1, 76, 79
3, 217916, Note_off_c, 1, 76, 0
3, 217920, Note_on_c, 1, 78, 79
3, 218012, Note_off_c, 1, 78, 0
3, 218016, Note_on_c, 1, 79, 79
3, 218108, Note_off_c, 1, 79, 0
3, 218112, Note_on_c, 1, 81, 79
3, 218204, Note_off_c, 1, 81, 0
3, 218496, Note_on_c, 1, 62, 58
3, 218684, Note_off_c, 1, 62, 0
3, 218688, Note_on_c, 1, 69, 58
3, 218876, Note_off_c, 1, 69, 0
3, 218880, Note_on_c, 1, 74, 58
3, 218880, Note_on_c, 1, 67, 58
3, 219260, Note_off_c, 1, 74, 0
3, 219260, Note_off_c, 1, 67, 0
3, 219456, Note_on_c, 1, 67, 58
3, 219456, Note_on_c, 1, 62, 58
3, 219644, Note_off_c, 1, 67, 0
3, 219644, Note_off_c, 1, 62, 0
3, 219648, Note_on_c, 1, 67, 58
3, 219648, Note_on_c, 1, 62, 58
3, 219836, Note_off_c, 1, 67, 0
3, 219836, Note_off_c, 1, 62, 0
3, 219840, Note_on_c, 1, 67, 58
3, 219840, Note_on_c, 1, 62, 58
3, 220028, Note_off_c, 1, 67, 0
3, 220028, Note_off_c, 1, 62, 0
3, 220032, Note_on_c, 1, 67, 58
3, 220032, Note_on_c, 1, 64, 58
3, 220032, Note_on_c, 1, 60, 58
3, 220412, Note_off_c, 1, 67, 0
3, 220412, Note_off_c, 1, 64, 0
3, 220412, Note_off_c, 1, 60, 0
3, 220608, Note_on_c, 1, 76, 58
3, 220608, Note_on_c, 1, 67, 58
3, 220796, Note_off_c, 1, 76, 0
3, 220796, Note_off_c, 1, 67, 0
3, 220800, Note_on_c, 1, 76, 58
3, 220800, Note_on_c, 1, 67, 58
3, 220988, Note_off_c, 1, 76, 0
3, 220988, Note_off_c, 1, 67, 0
3, 220992, Note_on_c, 1, 76, 58
3, 220992, Note_on_c, 1, 68, 58
3, 221180, Note_off_c, 1, 76, 0
3, 221180, Note_off_c, 1, 68, 0
3, 221184, Note_on_c, 1, 76, 58
3, 221184, Note_on_c, 1, 69, 58
3, 221372, Note_off_c, 1, 76, 0
3, 221372, Note_off_c, 1, 69, 0
3, 221376, Note_on_c, 1, 69, 58
3, 221376, Note_on_c, 1, 64, 58
3, 221564, Note_off_c, 1, 69, 0
3, 221564, Note_off_c, 1, 64, 0
3, 221568, Note_on_c, 1, 69, 58
3, 221568, Note_on_c, 1, 64, 58
3, 221568, Note_on_c, 1, 60, 58
3, 221756, Note_off_c, 1, 69, 0
3, 221756, Note_off_c, 1, 64, 0
3, 221756, Note_off_c, 1, 60, 0
3, 221760, Note_on_c, 1, 69, 58
3, 221760, Note_on_c, 1, 64, 58
3, 221760, Note_on_c, 1, 60, 58
3, 221948, Note_off_c, 1, 69, 0
3, 221948, Note_off_c, 1, 64, 0
3, 221948, Note_off_c, 1, 60, 0
3, 221952, Note_on_c, 1, 69, 58
3, 221952, Note_on_c, 1, 64, 58
3, 221952, Note_on_c, 1, 61, 58
3, 222140, Note_off_c, 1, 69, 0
3, 222140, Note_off_c, 1, 64, 0
3, 222140, Note_off_c, 1, 61, 0
3, 222144, Note_on_c, 1, 69, 58
3, 222144, Note_on_c, 1, 64, 58
3, 222144, Note_on_c, 1, 61, 58
3, 222332, Note_off_c, 1, 69, 0
3, 222332, Note_off_c, 1, 64, 0
3, 222332, Note_off_c, 1, 61, 0
3, 222336, Note_on_c, 1, 71, 58
3, 222428, Note_off_c, 1, 71, 0
3, 222432, Note_on_c, 1, 69, 58
3, 222524, Note_off_c, 1, 69, 0
3, 222528, Note_on_c, 1, 67, 58
3, 222620, Note_off_c, 1, 67, 0
3, 222624, Note_on_c, 1, 66, 58
3, 222716, Note_off_c, 1, 66, 0
3, 222720, Note_on_c, 1, 66, 66
3, 222720, Note_on_c, 1, 74, 58
3, 222840, Note_off_c, 1, 74, 0
3, 222848, Note_on_c, 1, 76, 58
3, 222968, Note_off_c, 1, 76, 0
3, 222976, Note_on_c, 1, 74, 58
3, 223096, Note_off_c, 1, 74, 0
3, 223100, Note_off_c, 1, 66, 0
3, 223104, Note_on_c, 1, 86, 66
3, 223104, Note_on_c, 1, 72, 58
3, 223224, Note_off_c, 1, 72, 0
3, 223232, Note_on_c, 1, 71, 58
3, 223352, Note_off_c, 1, 71, 0
3, 223360, Note_on_c, 1, 69, 58
3, 223480, Note_off_c, 1, 69, 0
3, 223484, Note_off_c, 1, 86, 0
3, 223488, Note_on_c, 1, 67, 58
3, 223488, Note_on_c, 1, 86, 66
3, 223608, Note_off_c, 1, 67, 0
3, 223616, Note_on_c, 1, 71, 58
3, 223736, Note_off_c, 1, 71, 0
3, 223744, Note_on_c, 1, 72, 58
3, 223864, Note_off_c, 1, 72, 0
3, 223872, Note_on_c, 1, 74, 58
3, 223992, Note_off_c, 1, 74, 0
3, 224000, Note_on_c, 1, 71, 58
3, 224120, Note_off_c, 1, 71, 0
3, 224128, Note_on_c, 1, 67, 58
3, 224248, Note_off_c, 1, 67, 0
3, 224252, Note_off_c, 1, 86, 0
3, 224256, Note_on_c, 1, 66, 58
3, 224256, Note_on_c, 1, 62, 58
3, 224256, Note_on_c, 1, 86, 66
3, 224348, Note_off_c, 1, 86, 0
3, 224352, Note_on_c, 1, 84, 66
3, 224376, Note_off_c, 1, 66, 0
3, 224376, Note_off_c, 1, 62, 0
3, 224384, Note_on_c, 1, 67, 58
3, 224444, Note_off_c, 1, 84, 0
3, 224448, Note_on_c, 1, 83, 66
3, 224504, Note_off_c, 1, 67, 0
3, 224512, Note_on_c, 1, 69, 58
3, 224540, Note_off_c, 1, 83, 0
3, 224544, Note_on_c, 1, 84, 66
3, 224632, Note_off_c, 1, 69, 0
3, 224636, Note_off_c, 1, 84, 0
3, 224640, Note_on_c, 1, 67, 58
3, 224640, Note_on_c, 1, 84, 66
3, 224732, Note_off_c, 1, 84, 0
3, 224736, Note_on_c, 1, 83, 66
3, 224760, Note_off_c, 1, 67, 0
3, 224768, Note_on_c, 1, 71, 58
3, 224888, Note_off_c, 1, 71, 0
3, 224896, Note_on_c, 1, 72, 58
3, 225016, Note_off_c, 1, 72, 0
3, 225024, Note_on_c, 1, 74, 58
3, 225024, Note_on_c, 1, 67, 58
3, 225116, Note_off_c, 1, 83, 0
3, 225144, Note_off_c, 1, 74, 0
3, 225144, Note_off_c, 1, 67, 0
3, 225152, Note_on_c, 1, 76, 58
3, 225272, Note_off_c, 1, 76, 0
3, 225280, Note_on_c, 1, 78, 58
3, 225400, Note_off_c, 1, 78, 0
3, 225408, Note_on_c, 1, 79, 58
3, 225528, Note_off_c, 1, 79, 0
3, 225536, Note_on_c, 1, 74, 58
3, 225656, Note_off_c, 1, 74, 0
3, 225664, Note_on_c, 1, 72, 58
3, 225784, Note_off_c, 1, 72, 0
3, 225792, Note_on_c, 1, 71, 58
3, 225912, Note_off_c, 1, 71, 0
3, 225920, Note_on_c, 1, 72, 58
3, 226040, Note_off_c, 1, 72, 0
3, 226048, Note_on_c, 1, 74, 58
3, 226168, Note_off_c, 1, 74, 0
3, 226176, Note_on_c, 1, 72, 58
3, 226296, Note_off_c, 1, 72, 0
3, 226304, Note_on_c, 1, 71, 58
3, 226424, Note_off_c, 1, 71, 0
3, 226432, Note_on_c, 1, 69, 58
3, 226552, Note_off_c, 1, 69, 0
3, 226560, Note_on_c, 1, 67, 58
3, 226680, Note_off_c, 1, 67, 0
3, 226688, Note_on_c, 1, 69, 58
3, 226808, Note_off_c, 1, 69, 0
3, 226816, Note_on_c, 1, 71, 58
3, 226936, Note_off_c, 1, 71, 0
3, 226944, Note_on_c, 1, 69, 58
3, 227064, Note_off_c, 1, 69, 0
3, 227072, Note_on_c, 1, 72, 58
3, 227192, Note_off_c, 1, 72, 0
3, 227200, Note_on_c, 1, 69, 58
3, 227320, Note_off_c, 1, 69, 0
3, 227328, Note_on_c, 1, 66, 58
3, 227448, Note_off_c, 1, 66, 0
3, 227456, Note_on_c, 1, 69, 58
3, 227576, Note_off_c, 1, 69, 0
3, 227584, Note_on_c, 1, 71, 58
3, 227704, Note_off_c, 1, 71, 0
3, 227712, Note_on_c, 1, 72, 58
3, 227712, Note_on_c, 1, 84, 66
3, 227832, Note_off_c, 1, 72, 0
3, 227840, Note_on_c, 1, 74, 58
3, 227960, Note_off_c, 1, 74, 0
3, 227968, Note_on_c, 1, 76, 58
3, 228088, Note_off_c, 1, 76, 0
3, 228092, Note_off_c, 1, 84, 0
3, 228096, Note_on_c, 1, 78, 58
3, 228096, Note_on_c, 1, 84, 66
3, 228096, Note_on_c, 1, 72, 58
3, 228096, Note_on_c, 1, 69, 58
3, 228096, Note_on_c, 1, 62, 58
3, 228216, Note_off_c, 1, 78, 0
3, 228224, Note_on_c, 1, 81, 58
3, 228284, Note_off_c, 1, 72, 0
3, 228284, Note_off_c, 1, 69, 0
3, 228284, Note_off_c, 1, 62, 0
3, 228344, Note_off_c, 1, 81, 0
3, 228352, Note_on_c, 1, 79, 58
3, 228472, Note_off_c, 1, 79, 0
3, 228480, Note_on_c, 1, 78, 58
3, 228480, Note_on_c, 1, 72, 58
3, 228480, Note_on_c, 1, 69, 58
3, 228480, Note_on_c, 1, 62, 58
3, 228600, Note_off_c, 1, 78, 0
3, 228608, Note_on_c, 1, 76, 58
3, 228668, Note_off_c, 1, 72, 0
3, 228668, Note_off_c, 1, 69, 0
3, 228668, Note_off_c, 1, 62, 0
3, 228728, Note_off_c, 1, 76, 0
3, 228736, Note_on_c, 1, 78, 58
3, 228856, Note_off_c, 1, 78, 0
3, 228860, Note_off_c, 1, 84, 0
3, 228864, Note_on_c, 1, 79, 58
3, 228864, Note_on_c, 1, 71, 58
3, 228864, Note_on_c, 1, 67, 58
3, 228864, Note_on_c, 1, 62, 58
3, 228864, Note_on_c, 1, 84, 66
3, 228956, Note_off_c, 1, 84, 0
3, 228960, Note_on_c, 1, 83, 66
3, 229052, Note_off_c, 1, 79, 0
3, 229052, Note_off_c, 1, 71, 0
3, 229052, Note_off_c, 1, 67, 0
3, 229052, Note_off_c, 1, 62, 0
3, 229052, Note_off_c, 1, 83, 0
3, 229056, Note_on_c, 1, 81, 66
3, 229148, Note_off_c, 1, 81, 0
3, 229152, Note_on_c, 1, 83, 66
3, 229244, Note_off_c, 1, 83, 0
3, 229248, Note_on_c, 1, 83, 66
3, 229248, Note_on_c, 1, 72, 58
3, 229248, Note_on_c, 1, 69, 58
3, 229248, Note_on_c, 1, 62, 58
3, 229340, Note_off_c, 1, 83, 0
3, 229344, Note_on_c, 1, 81, 66
3, 229368, Note_off_c, 1, 72, 0
3, 229368, Note_off_c, 1, 69, 0
3, 229368, Note_off_c, 1, 62, 0
3, 229376, Note_on_c, 1, 69, 58
3, 229496, Note_off_c, 1, 69, 0
3, 229504, Note_on_c, 1, 67, 58
3, 229624, Note_off_c, 1, 67, 0
3, 229632, Note_on_c, 1, 66, 58
3, 229632, Note_on_c, 1, 62, 58
3, 229752, Note_off_c, 1, 66, 0
3, 229752, Note_off_c, 1, 62, 0
3, 229760, Note_on_c, 1, 69, 58
3, 229880, Note_off_c, 1, 69, 0
3, 229888, Note_on_c, 1, 67, 58
3, 229916, Note_off_c, 1, 81, 0
3, 230008, Note_off_c, 1, 67, 0
3, 230016, Note_on_c, 1, 66, 58
3, 230136, Note_off_c, 1, 66, 0
3, 230144, Note_on_c, 1, 64, 58
3, 230264, Note_off_c, 1, 64, 0
3, 230272, Note_on_c, 1, 62, 58
3, 230392, Note_off_c, 1, 62, 0
3, 230400, Note_on_c, 1, 66, 58
3, 230520, Note_off_c, 1, 66, 0
3, 230528, Note_on_c, 1, 64, 58
3, 230648, Note_off_c, 1, 64, 0
3, 230656, Note_on_c, 1, 66, 58
3, 230776, Note_off_c, 1, 66, 0
3, 230784, Note_on_c, 1, 67, 58
3, 230904, Note_off_c, 1, 67, 0
3, 230912, Note_on_c, 1, 66, 58
3, 231032, Note_off_c, 1, 66, 0
3, 231040, Note_on_c, 1, 67, 58
3, 231160, Note_off_c, 1, 67, 0
3, 231168, Note_on_c, 1, 69, 58
3, 231288, Note_off_c, 1, 69, 0
3, 231296, Note_on_c, 1, 67, 58
3, 231416, Note_off_c, 1, 67, 0
3, 231424, Note_on_c, 1, 69, 58
3, 231544, Note_off_c, 1, 69, 0
3, 231552, Note_on_c, 1, 71, 58
3, 231672, Note_off_c, 1, 71, 0
3, 231680, Note_on_c, 1, 67, 58
3, 231800, Note_off_c, 1, 67, 0
3, 231808, Note_on_c, 1, 66, 58
3, 231928, Note_off_c, 1, 66, 0
3, 231936, Note_on_c, 1, 67, 58
3, 232056, Note_off_c, 1, 67, 0
3, 232064, Note_on_c, 1, 62, 58
3, 232184, Note_off_c, 1, 62, 0
3, 232192, Note_on_c, 1, 59, 58
3, 232312, Note_off_c, 1, 59, 0
3, 232320, Note_on_c, 1, 55, 58
3, 232700, Note_off_c, 1, 55, 0
3, 232704, Note_on_c, 1, 69, 58
3, 232704, Note_on_c, 1, 66, 58
3, 233084, Note_off_c, 1, 69, 0
3, 233084, Note_off_c, 1, 66, 0
3, 233088, Note_on_c, 1, 67, 58
3, 233088, Note_on_c, 1, 64, 58
3, 233468, Note_off_c, 1, 67, 0
3, 233468, Note_off_c, 1, 64, 0
3, 233856, Note_on_c, 1, 65, 58
3, 233856, Note_on_c, 1, 62, 58
3, 234236, Note_off_c, 1, 65, 0
3, 234236, Note_off_c, 1, 62, 0
3, 234240, Note_on_c, 1, 64, 58
3, 234240, Note_on_c, 1, 60, 58
3, 234620, Note_off_c, 1, 64, 0
3, 234620, Note_off_c, 1, 60, 0
3, 235008, Note_on_c, 1, 64, 58
3, 235388, Note_off_c, 1, 64, 0
3, 235392, Note_on_c, 1, 76, 58
3, 235772, Note_off_c, 1, 76, 0
3, 235776, Note_on_c, 1, 76, 58
3, 236156, Note_off_c, 1, 76, 0
3, 236160, Note_on_c, 1, 71, 58
3, 236540, Note_off_c, 1, 71, 0
3, 236544, Note_on_c, 1, 69, 58
3, 236924, Note_off_c, 1, 69, 0
3, 236928, Note_on_c, 1, 62, 79
3, 237308, Note_off_c, 1, 62, 0
3, 237312, Note_on_c, 1, 74, 79
3, 237312, Note_on_c, 1, 72, 79
3, 237312, Note_on_c, 1, 78, 79
3, 237404, Note_off_c, 1, 74, 0
3, 237404, Note_off_c, 1, 72, 0
3, 237408, Note_on_c, 1, 69, 79
3, 237500, Note_off_c, 1, 69, 0
3, 237504, Note_on_c, 1, 74, 79
3, 237504, Note_on_c, 1, 72, 79
3, 237596, Note_off_c, 1, 74, 0
3, 237596, Note_off_c, 1, 72, 0
3, 237600, Note_on_c, 1, 69, 79
3, 237692, Note_off_c, 1, 69, 0
3, 237696, Note_on_c, 1, 74, 79
3, 237696, Note_on_c, 1, 72, 79
3, 237788, Note_off_c, 1, 74, 0
3, 237788, Note_off_c, 1, 72, 0
3, 237792, Note_on_c, 1, 69, 79
3, 237884, Note_off_c, 1, 69, 0
3, 237888, Note_on_c, 1, 74, 79
3, 237888, Note_on_c, 1, 72, 79
3, 237980, Note_off_c, 1, 74, 0
3, 237980, Note_off_c, 1, 72, 0
3, 237984, Note_on_c, 1, 69, 79
3, 238076, Note_off_c, 1, 78, 0
3, 238076, Note_off_c, 1, 69, 0
3, 238080, Note_on_c, 1, 74, 79
3, 238080, Note_on_c, 1, 71, 79
3, 238080, Note_on_c, 1, 79, 79
3, 238124, Note_off_c, 1, 79, 0
3, 238128, Note_on_c, 1, 81, 79
3, 238172, Note_off_c, 1, 74, 0
3, 238172, Note_off_c, 1, 71, 0
3, 238172, Note_off_c, 1, 81, 0
3, 238176, Note_on_c, 1, 67, 79
3, 238176, Note_on_c, 1, 79, 79
3, 238220, Note_off_c, 1, 79, 0
3, 238224, Note_on_c, 1, 81, 79
3, 238268, Note_off_c, 1, 67, 0
3, 238268, Note_off_c, 1, 81, 0
3, 238272, Note_on_c, 1, 74, 79
3, 238272, Note_on_c, 1, 71, 79
3, 238272, Note_on_c, 1, 79, 79
3, 238316, Note_off_c, 1, 79, 0
3, 238320, Note_on_c, 1, 81, 79
3, 238364, Note_off_c, 1, 74, 0
3, 238364, Note_off_c, 1, 71, 0
3, 238364, Note_off_c, 1, 81, 0
3, 238368, Note_on_c, 1, 67, 79
3, 238368, Note_on_c, 1, 78, 79
3, 238412, Note_off_c, 1, 78, 0
3, 238416, Note_on_c, 1, 79, 79
3, 238460, Note_off_c, 1, 67, 0
3, 238460, Note_off_c, 1, 79, 0
3, 238464, Note_on_c, 1, 81, 79
3, 238464, Note_on_c, 1, 78, 79
3, 238464, Note_on_c, 1, 74, 79
3, 238464, Note_on_c, 1, 69, 79
3, 238652, Note_off_c, 1, 81, 0
3, 238652, Note_off_c, 1, 78, 0
3, 238652, Note_off_c, 1, 74, 0
3, 238652, Note_off_c, 1, 69, 0
3, 238656, Note_on_c, 1, 62, 58
3, 238844, Note_off_c, 1, 62, 0
3, 238848, Note_on_c, 1, 62, 58
3, 239036, Note_off_c, 1, 62, 0
3, 239040, Note_on_c, 1, 62, 58
3, 239228, Note_off_c, 1, 62, 0
3, 239232, Note_on_c, 1, 62, 58
3, 239420, Note_off_c, 1, 62, 0
3, 239424, Note_on_c, 1, 62, 58
3, 239612, Note_off_c, 1, 62, 0
3, 239616, Note_on_c, 1, 62, 58
3, 239616, Note_on_c, 1, 59, 58
3, 239616, Note_on_c, 1, 55, 58
3, 239804, Note_off_c, 1, 62, 0
3, 239804, Note_off_c, 1, 59, 0
3, 239804, Note_off_c, 1, 55, 0
3, 240000, Note_on_c, 1, 62, 58
3, 240000, Note_on_c, 1, 60, 58
3, 240188, Note_off_c, 1, 62, 0
3, 240188, Note_off_c, 1, 60, 0
3, 240384, Note_on_c, 1, 62, 58
3, 240384, Note_on_c, 1, 59, 58
3, 240384, Note_on_c, 1, 55, 58
3, 240572, Note_off_c, 1, 62, 0
3, 240572, Note_off_c, 1, 59, 0
3, 240572, Note_off_c, 1, 55, 0
3, 240768, Note_on_c, 1, 62, 58
3, 240768, Note_on_c, 1, 60, 58
3, 240768, Note_on_c, 1, 57, 58
3, 241148, Note_off_c, 1, 62, 0
3, 241148, Note_off_c, 1, 60, 0
3, 241148, Note_off_c, 1, 57, 0
3, 241920, Note_on_c, 1, 71, 58
3, 241920, Note_on_c, 1, 67, 58
3, 241920, Note_on_c, 1, 62, 58
3, 242108, Note_off_c, 1, 71, 0
3, 242108, Note_off_c, 1, 67, 0
3, 242108, Note_off_c, 1, 62, 0
3, 242304, Note_on_c, 1, 72, 58
3, 242304, Note_on_c, 1, 66, 58
3, 242304, Note_on_c, 1, 62, 58
3, 242492, Note_off_c, 1, 72, 0
3, 242492, Note_off_c, 1, 66, 0
3, 242492, Note_off_c, 1, 62, 0
3, 242688, Note_on_c, 1, 71, 58
3, 242688, Note_on_c, 1, 67, 58
3, 242688, Note_on_c, 1, 62, 58
3, 242876, Note_off_c, 1, 71, 0
3, 242876, Note_off_c, 1, 67, 0
3, 242876, Note_off_c, 1, 62, 0
3, 243072, Note_on_c, 1, 72, 58
3, 243072, Note_on_c, 1, 69, 58
3, 243072, Note_on_c, 1, 62, 58
3, 243452, Note_off_c, 1, 72, 0
3, 243452, Note_off_c, 1, 69, 0
3, 243452, Note_off_c, 1, 62, 0
3, 243648, Note_on_c, 1, 72, 58
3, 243648, Note_on_c, 1, 69, 58
3, 243648, Note_on_c, 1, 62, 58
3, 243836, Note_off_c, 1, 72, 0
3, 243836, Note_off_c, 1, 69, 0
3, 243836, Note_off_c, 1, 62, 0
3, 243840, Note_on_c, 1, 72, 58
3, 243840, Note_on_c, 1, 69, 58
3, 243840, Note_on_c, 1, 62, 58
3, 244028, Note_off_c, 1, 72, 0
3, 244028, Note_off_c, 1, 69, 0
3, 244028, Note_off_c, 1, 62, 0
3, 244032, Note_on_c, 1, 72, 58
3, 244032, Note_on_c, 1, 69, 58
3, 244032, Note_on_c, 1, 62, 58
3, 244220, Note_off_c, 1, 72, 0
3, 244220, Note_off_c, 1, 69, 0
3, 244220, Note_off_c, 1, 62, 0
3, 244224, Note_on_c, 1, 71, 58
3, 244224, Note_on_c, 1, 67, 58
3, 244224, Note_on_c, 1, 62, 58
3, 244604, Note_off_c, 1, 71, 0
3, 244604, Note_off_c, 1, 67, 0
3, 244604, Note_off_c, 1, 62, 0
3, 244800, Note_on_c, 1, 71, 58
3, 244800, Note_on_c, 1, 62, 58
3, 244800, Note_on_c, 1, 55, 58
3, 244988, Note_off_c, 1, 71, 0
3, 244988, Note_off_c, 1, 62, 0
3, 244988, Note_off_c, 1, 55, 0
3, 244992, Note_on_c, 1, 71, 58
3, 244992, Note_on_c, 1, 62, 58
3, 244992, Note_on_c, 1, 55, 58
3, 245180, Note_off_c, 1, 71, 0
3, 245180, Note_off_c, 1, 62, 0
3, 245180, Note_off_c, 1, 55, 0
3, 245184, Note_on_c, 1, 71, 58
3, 245184, Note_on_c, 1, 62, 58
3, 245184, Note_on_c, 1, 55, 58
3, 245372, Note_off_c, 1, 71, 0
3, 245372, Note_off_c, 1, 62, 0
3, 245372, Note_off_c, 1, 55, 0
3, 245376, Note_on_c, 1, 67, 58
3, 245376, Note_on_c, 1, 64, 58
3, 245376, Note_on_c, 1, 60, 58
3, 245948, Note_off_c, 1, 67, 0
3, 245948, Note_off_c, 1, 64, 0
3, 245948, Note_off_c, 1, 60, 0
3, 246528, Note_on_c, 1, 81, 58
3, 246528, Note_on_c, 1, 79, 58
3, 246528, Note_on_c, 1, 69, 58
3, 247292, Note_off_c, 1, 81, 0
3, 247292, Note_off_c, 1, 79, 0
3, 247292, Note_off_c, 1, 69, 0
3, 247296, Note_on_c, 1, 79, 58
3, 247296, Note_on_c, 1, 83, 58
3, 247296, Note_on_c, 1, 71, 58
3, 247484, Note_off_c, 1, 79, 0
3, 247484, Note_off_c, 1, 83, 0
3, 247484, Note_off_c, 1, 71, 0
3, 247488, Note_on_c, 1, 79, 58
3, 247488, Note_on_c, 1, 81, 58
3, 247488, Note_on_c, 1, 69, 58
3, 247676, Note_off_c, 1, 79, 0
3, 247676, Note_off_c, 1, 81, 0
3, 247676, Note_off_c, 1, 69, 0
3, 247680, Note_on_c, 1, 81, 58
3, 247680, Note_on_c, 1, 78, 58
3, 247680, Note_on_c, 1, 69, 58
3, 248060, Note_off_c, 1, 81, 0
3, 248060, Note_off_c, 1, 78, 0
3, 248060, Note_off_c, 1, 69, 0
3, 248064, Note_on_c, 1, 83, 58
3, 248064, Note_on_c, 1, 79, 58
3, 248064, Note_on_c, 1, 71, 58
3, 248444, Note_off_c, 1, 83, 0
3, 248444, Note_off_c, 1, 79, 0
3, 248444, Note_off_c, 1, 71, 0
3, 248448, Note_on_c, 1, 84, 58
3, 248448, Note_on_c, 1, 81, 58
3, 248448, Note_on_c, 1, 72, 58
3, 248828, Note_off_c, 1, 84, 0
3, 248828, Note_off_c, 1, 81, 0
3, 248828, Note_off_c, 1, 72, 0
3, 248832, Note_on_c, 1, 86, 58
3, 248832, Note_on_c, 1, 83, 58
3, 248832, Note_on_c, 1, 74, 58
3, 249404, Note_off_c, 1, 86, 0
3, 249404, Note_off_c, 1, 83, 0
3, 249404, Note_off_c, 1, 74, 0
3, 249408, Note_on_c, 1, 81, 58
3, 249408, Note_on_c, 1, 84, 58
3, 249408, Note_on_c, 1, 72, 58
3, 249596, Note_off_c, 1, 81, 0
3, 249596, Note_off_c, 1, 84, 0
3, 249596, Note_off_c, 1, 72, 0
3, 249600, Note_on_c, 1, 83, 58
3, 249600, Note_on_c, 1, 79, 58
3, 249600, Note_on_c, 1, 71, 58
3, 249980, Note_off_c, 1, 83, 0
3, 249980, Note_off_c, 1, 79, 0
3, 249980, Note_off_c, 1, 71, 0
3, 249984, Note_on_c, 1, 86, 58
3, 249984, Note_on_c, 1, 83, 58
3, 250076, Note_off_c, 1, 86, 0
3, 250076, Note_off_c, 1, 83, 0
3, 250080, Note_on_c, 1, 81, 58
3, 250080, Note_on_c, 1, 76, 58
3, 250080, Note_on_c, 1, 84, 58
3, 250364, Note_off_c, 1, 81, 0
3, 250364, Note_off_c, 1, 76, 0
3, 250364, Note_off_c, 1, 84, 0
3, 250368, Note_on_c, 1, 79, 58
3, 250368, Note_on_c, 1, 83, 58
3, 250368, Note_on_c, 1, 74, 58
3, 250748, Note_off_c, 1, 79, 0
3, 250748, Note_off_c, 1, 83, 0
3, 250748, Note_off_c, 1, 74, 0
3, 250752, Note_on_c, 1, 81, 58
3, 250752, Note_on_c, 1, 78, 58
3, 250752, Note_on_c, 1, 74, 58
3, 251132, Note_off_c, 1, 81, 0
3, 251132, Note_off_c, 1, 78, 0
3, 251132, Note_off_c, 1, 74, 0
3, 251136, Note_on_c, 1, 79, 58
3, 251136, Note_on_c, 1, 73, 58
3, 251324, Note_off_c, 1, 79, 0
3, 251328, Note_on_c, 1, 76, 58
3, 251516, Note_off_c, 1, 73, 0
3, 251516, Note_off_c, 1, 76, 0
3, 251520, Note_on_c, 1, 79, 58
3, 251520, Note_on_c, 1, 73, 58
3, 251708, Note_off_c, 1, 79, 0
3, 251712, Note_on_c, 1, 76, 58
3, 251900, Note_off_c, 1, 73, 0
3, 251900, Note_off_c, 1, 76, 0
3, 251904, Note_on_c, 1, 79, 58
3, 251904, Note_on_c, 1, 73, 58
3, 252092, Note_off_c, 1, 79, 0
3, 252096, Note_on_c, 1, 76, 58
3, 252284, Note_off_c, 1, 73, 0
3, 252284, Note_off_c, 1, 76, 0
3, 252288, Note_on_c, 1, 78, 58
3, 252288, Note_on_c, 1, 74, 58
3, 252668, Note_off_c, 1, 78, 0
3, 252672, Note_on_c, 1, 79, 58
3, 253052, Note_off_c, 1, 74, 0
3, 253052, Note_off_c, 1, 79, 0
3, 253056, Note_on_c, 1, 81, 58
3, 253056, Note_on_c, 1, 72, 58
3, 253436, Note_off_c, 1, 81, 0
3, 253436, Note_off_c, 1, 72, 0
3, 253584, Note_on_c, 1, 83, 58
3, 253584, Note_on_c, 1, 71, 58
3, 253820, Note_off_c, 1, 71, 0
3, 253824, Note_on_c, 1, 74, 58
3, 254012, Note_off_c, 1, 83, 0
3, 254016, Note_on_c, 1, 81, 58
3, 254204, Note_off_c, 1, 74, 0
3, 254204, Note_off_c, 1, 81, 0
3, 254208, Note_on_c, 1, 79, 58
3, 254208, Note_on_c, 1, 76, 58
3, 254588, Note_off_c, 1, 79, 0
3, 254588, Note_off_c, 1, 76, 0
3, 254592, Note_on_c, 1, 83, 58
3, 254684, Note_off_c, 1, 83, 0
3, 254688, Note_on_c, 1, 81, 58
3, 254688, Note_on_c, 1, 72, 58
3, 254972, Note_off_c, 1, 81, 0
3, 254972, Note_off_c, 1, 72, 0
3, 254976, Note_on_c, 1, 79, 58
3, 254976, Note_on_c, 1, 74, 58
3, 255356, Note_off_c, 1, 79, 0
3, 255356, Note_off_c, 1, 74, 0
3, 255360, Note_on_c, 1, 78, 58
3, 255360, Note_on_c, 1, 62, 58
3, 255740, Note_off_c, 1, 78, 0
3, 255740, Note_off_c, 1, 62, 0
3, 255744, Note_on_c, 1, 79, 58
3, 255744, Note_on_c, 1, 71, 58
3, 255744, Note_on_c, 1, 67, 58
3, 255932, Note_off_c, 1, 79, 0
3, 255932, Note_off_c, 1, 71, 0
3, 256128, Note_on_c, 1, 79, 58
3, 256128, Note_on_c, 1, 71, 58
3, 256316, Note_off_c, 1, 79, 0
3, 256316, Note_off_c, 1, 71, 0
3, 256512, Note_on_c, 1, 79, 58
3, 256512, Note_on_c, 1, 71, 58
3, 256700, Note_off_c, 1, 79, 0
3, 256700, Note_off_c, 1, 71, 0
3, 256892, Note_off_c, 1, 67, 0
3, 256896, Note_on_c, 1, 79, 58
3, 256896, Note_on_c, 1, 71, 58
3, 257276, Note_off_c, 1, 79, 0
3, 257276, Note_off_c, 1, 71, 0
3, 257472, Note_on_c, 1, 74, 58
3, 257472, Note_on_c, 1, 71, 58
3, 257660, Note_off_c, 1, 74, 0
3, 257660, Note_off_c, 1, 71, 0
3, 257664, Note_on_c, 1, 71, 58
3, 257664, Note_on_c, 1, 67, 58
3, 257852, Note_off_c, 1, 71, 0
3, 257852, Note_off_c, 1, 67, 0
3, 257856, Note_on_c, 1, 71, 58
3, 257856, Note_on_c, 1, 67, 58
3, 258044, Note_off_c, 1, 71, 0
3, 258044, Note_off_c, 1, 67, 0
3, 258048, Note_on_c, 1, 72, 58
3, 258048, Note_on_c, 1, 69, 58
3, 258048, Note_on_c, 1, 74, 58
3, 258236, Note_off_c, 1, 72, 0
3, 258236, Note_off_c, 1, 69, 0
3, 258432, Note_on_c, 1, 72, 58
3, 258432, Note_on_c, 1, 69, 58
3, 258620, Note_off_c, 1, 72, 0
3, 258620, Note_off_c, 1, 69, 0
3, 258816, Note_on_c, 1, 72, 58
3, 258816, Note_on_c, 1, 69, 58
3, 259004, Note_off_c, 1, 72, 0
3, 259004, Note_off_c, 1, 69, 0
3, 259196, Note_off_c, 1, 74, 0
3, 259200, Note_on_c, 1, 72, 58
3, 259200, Note_on_c, 1, 69, 58
3, 259772, Note_off_c, 1, 72, 0
3, 259772, Note_off_c, 1, 69, 0
3, 259776, Note_on_c, 1, 81, 58
3, 259776, Note_on_c, 1, 72, 58
3, 259964, Note_off_c, 1, 81, 0
3, 259964, Note_off_c, 1, 72, 0
3, 259968, Note_on_c, 1, 78, 58
3, 259968, Note_on_c, 1, 69, 58
3, 260156, Note_off_c, 1, 78, 0
3, 260156, Note_off_c, 1, 69, 0
3, 260160, Note_on_c, 1, 74, 58
3, 260160, Note_on_c, 1, 69, 58
3, 260348, Note_off_c, 1, 74, 0
3, 260348, Note_off_c, 1, 69, 0
3, 260352, Note_on_c, 1, 71, 58
3, 260732, Note_off_c, 1, 71, 0
3, 260736, Note_on_c, 1, 72, 58
3, 260736, Note_on_c, 1, 69, 58
3, 261116, Note_off_c, 1, 72, 0
3, 261116, Note_off_c, 1, 69, 0
3, 261120, Note_on_c, 1, 74, 58
3, 261120, Note_on_c, 1, 71, 58
3, 261500, Note_off_c, 1, 74, 0
3, 261500, Note_off_c, 1, 71, 0
3, 261504, Note_on_c, 1, 76, 58
3, 261504, Note_on_c, 1, 72, 58
3, 261884, Note_off_c, 1, 76, 0
3, 261884, Note_off_c, 1, 72, 0
3, 261888, Note_on_c, 1, 78, 58
3, 261888, Note_on_c, 1, 69, 58
3, 262268, Note_off_c, 1, 78, 0
3, 262268, Note_off_c, 1, 69, 0
3, 262272, Note_on_c, 1, 79, 58
3, 262272, Note_on_c, 1, 74, 58
3, 262272, Note_on_c, 1, 67, 58
3, 262652, Note_off_c, 1, 79, 0
3, 262652, Note_off_c, 1, 74, 0
3, 262652, Note_off_c, 1, 67, 0
3, 262656, Note_on_c, 1, 76, 58
3, 262656, Note_on_c, 1, 69, 58
3, 262656, Note_on_c, 1, 64, 58
3, 262844, Note_off_c, 1, 76, 0
3, 262844, Note_off_c, 1, 69, 0
3, 262844, Note_off_c, 1, 64, 0
3, 262848, Note_on_c, 1, 72, 58
3, 262848, Note_on_c, 1, 69, 58
3, 262848, Note_on_c, 1, 64, 58
3, 263036, Note_off_c, 1, 72, 0
3, 263036, Note_off_c, 1, 69, 0
3, 263036, Note_off_c, 1, 64, 0
3, 263040, Note_on_c, 1, 71, 58
3, 263040, Note_on_c, 1, 67, 58
3, 263040, Note_on_c, 1, 62, 58
3, 263228, Note_off_c, 1, 71, 0
3, 263228, Note_off_c, 1, 67, 0
3, 263228, Note_off_c, 1, 62, 0
3, 263232, Note_on_c, 1, 71, 58
3, 263232, Note_on_c, 1, 67, 58
3, 263232, Note_on_c, 1, 62, 58
3, 263420, Note_off_c, 1, 71, 0
3, 263420, Note_off_c, 1, 67, 0
3, 263420, Note_off_c, 1, 62, 0
3, 263424, Note_on_c, 1, 69, 58
3, 263424, Note_on_c, 1, 66, 58
3, 263424, Note_on_c, 1, 60, 58
3, 263612, Note_off_c, 1, 69, 0
3, 263612, Note_off_c, 1, 66, 0
3, 263612, Note_off_c, 1, 60, 0
3, 263616, Note_on_c, 1, 69, 58
3, 263616, Note_on_c, 1, 66, 58
3, 263616, Note_on_c, 1, 60, 58
3, 263804, Note_off_c, 1, 69, 0
3, 263804, Note_off_c, 1, 66, 0
3, 263804, Note_off_c, 1, 60, 0
3, 263808, Note_on_c, 1, 67, 58
3, 263996, Note_off_c, 1, 67, 0
3, 264192, Note_on_c, 1, 67, 58
3, 264380, Note_off_c, 1, 67, 0
3, 264560, Note_on_c, 1, 66, 58
3, 264576, Note_on_c, 1, 69, 58
3, 264620, Note_off_c, 1, 69, 0
3, 264624, Note_on_c, 1, 71, 58
3, 264668, Note_off_c, 1, 71, 0
3, 264672, Note_on_c, 1, 69, 58
3, 264716, Note_off_c, 1, 69, 0
3, 264720, Note_on_c, 1, 71, 58
3, 264764, Note_off_c, 1, 71, 0
3, 264768, Note_on_c, 1, 69, 58
3, 264812, Note_off_c, 1, 69, 0
3, 264816, Note_on_c, 1, 71, 58
3, 264844, Note_off_c, 1, 66, 0
3, 264860, Note_off_c, 1, 71, 0
3, 264864, Note_on_c, 1, 67, 58
3, 264908, Note_off_c, 1, 67, 0
3, 264912, Note_on_c, 1, 69, 58
3, 264956, Note_off_c, 1, 69, 0
3, 264960, Note_on_c, 1, 71, 58
3, 264960, Note_on_c, 1, 67, 58
3, 265340, Note_off_c, 1, 71, 0
3, 265340, Note_off_c, 1, 67, 0
3, 265344, Note_on_c, 1, 71, 58
3, 265344, Note_on_c, 1, 67, 58
3, 265532, Note_off_c, 1, 71, 0
3, 265532, Note_off_c, 1, 67, 0
3, 265536, Note_on_c, 1, 71, 58
3, 265536, Note_on_c, 1, 67, 58
3, 265724, Note_off_c, 1, 71, 0
3, 265724, Note_off_c, 1, 67, 0
3, 265728, Note_on_c, 1, 71, 58
3, 265728, Note_on_c, 1, 67, 58
3, 265916, Note_off_c, 1, 71, 0
3, 265916, Note_off_c, 1, 67, 0
3, 265920, Note_on_c, 1, 71, 58
3, 265920, Note_on_c, 1, 67, 58
3, 266108, Note_off_c, 1, 71, 0
3, 266108, Note_off_c, 1, 67, 0
3, 266112, Note_on_c, 1, 71, 58
3, 266112, Note_on_c, 1, 67, 58
3, 266492, Note_off_c, 1, 71, 0
3, 266492, Note_off_c, 1, 67, 0
3, 266496, Note_on_c, 1, 71, 58
3, 266496, Note_on_c, 1, 67, 58
3, 266684, Note_off_c, 1, 71, 0
3, 266684, Note_off_c, 1, 67, 0
3, 266688, Note_on_c, 1, 71, 58
3, 266688, Note_on_c, 1, 67, 58
3, 266864, Note_on_c, 1, 67, 58
3, 266876, Note_off_c, 1, 71, 0
3, 266876, Note_off_c, 1, 67, 0
3, 266880, Note_on_c, 1, 71, 58
3, 266924, Note_off_c, 1, 71, 0
3, 266928, Note_on_c, 1, 72, 58
3, 266972, Note_off_c, 1, 72, 0
3, 266976, Note_on_c, 1, 71, 58
3, 267020, Note_off_c, 1, 71, 0
3, 267024, Note_on_c, 1, 72, 58
3, 267068, Note_off_c, 1, 72, 0
3, 267072, Note_on_c, 1, 71, 58
3, 267116, Note_off_c, 1, 71, 0
3, 267120, Note_on_c, 1, 72, 58
3, 267148, Note_off_c, 1, 67, 0
3, 267164, Note_off_c, 1, 72, 0
3, 267168, Note_on_c, 1, 69, 58
3, 267212, Note_off_c, 1, 69, 0
3, 267216, Note_on_c, 1, 71, 58
3, 267260, Note_off_c, 1, 71, 0
3, 267264, Note_on_c, 1, 72, 58
3, 267264, Note_on_c, 1, 69, 58
3, 267644, Note_off_c, 1, 72, 0
3, 267644, Note_off_c, 1, 69, 0
3, 267648, Note_on_c, 1, 72, 58
3, 267648, Note_on_c, 1, 69, 58
3, 267836, Note_off_c, 1, 72, 0
3, 267836, Note_off_c, 1, 69, 0
3, 267840, Note_on_c, 1, 72, 58
3, 267840, Note_on_c, 1, 69, 58
3, 268028, Note_off_c, 1, 72, 0
3, 268028, Note_off_c, 1, 69, 0
3, 268032, Note_on_c, 1, 72, 58
3, 268032, Note_on_c, 1, 69, 58
3, 268220, Note_off_c, 1, 72, 0
3, 268220, Note_off_c, 1, 69, 0
3, 268224, Note_on_c, 1, 72, 58
3, 268224, Note_on_c, 1, 69, 58
3, 268412, Note_off_c, 1, 72, 0
3, 268412, Note_off_c, 1, 69, 0
3, 268416, Note_on_c, 1, 72, 58
3, 268416, Note_on_c, 1, 69, 58
3, 268796, Note_off_c, 1, 72, 0
3, 268796, Note_off_c, 1, 69, 0
3, 268800, Note_on_c, 1, 72, 58
3, 268800, Note_on_c, 1, 69, 58
3, 268988, Note_off_c, 1, 72, 0
3, 268988, Note_off_c, 1, 69, 0
3, 268992, Note_on_c, 1, 72, 58
3, 268992, Note_on_c, 1, 69, 58
3, 269180, Note_off_c, 1, 72, 0
3, 269180, Note_off_c, 1, 69, 0
3, 269184, Note_on_c, 1, 69, 58
3, 269184, Note_on_c, 1, 72, 58
3, 269228, Note_off_c, 1, 72, 0
3, 269232, Note_on_c, 1, 74, 58
3, 269276, Note_off_c, 1, 74, 0
3, 269280, Note_on_c, 1, 72, 58
3, 269324, Note_off_c, 1, 72, 0
3, 269328, Note_on_c, 1, 74, 58
3, 269372, Note_off_c, 1, 74, 0
3, 269376, Note_on_c, 1, 72, 58
3, 269420, Note_off_c, 1, 72, 0
3, 269424, Note_on_c, 1, 74, 58
3, 269468, Note_off_c, 1, 69, 0
3, 269468, Note_off_c, 1, 74, 0
3, 269472, Note_on_c, 1, 71, 58
3, 269516, Note_off_c, 1, 71, 0
3, 269520, Note_on_c, 1, 72, 58
3, 269564, Note_off_c, 1, 72, 0
3, 269568, Note_on_c, 1, 71, 58
3, 269660, Note_off_c, 1, 71, 0
3, 269664, Note_on_c, 1, 67, 58
3, 269756, Note_off_c, 1, 67, 0
3, 269760, Note_on_c, 1, 71, 58
3, 269852, Note_off_c, 1, 71, 0
3, 269856, Note_on_c, 1, 67, 58
3, 269948, Note_off_c, 1, 67, 0
3, 269952, Note_on_c, 1, 71, 79
3, 270044, Note_off_c, 1, 71, 0
3, 270048, Note_on_c, 1, 67, 79
3, 270140, Note_off_c, 1, 67, 0
3, 270144, Note_on_c, 1, 72, 79
3, 270236, Note_off_c, 1, 72, 0
3, 270240, Note_on_c, 1, 67, 79
3, 270332, Note_off_c, 1, 67, 0
3, 270336, Note_on_c, 1, 74, 79
3, 270428, Note_off_c, 1, 74, 0
3, 270432, Note_on_c, 1, 67, 79
3, 270524, Note_off_c, 1, 67, 0
3, 270528, Note_on_c, 1, 76, 79
3, 270528, Note_on_c, 1, 72, 79
3, 270620, Note_off_c, 1, 76, 0
3, 270620, Note_off_c, 1, 72, 0
3, 270624, Note_on_c, 1, 67, 79
3, 270716, Note_off_c, 1, 67, 0
3, 270720, Note_on_c, 1, 77, 79
3, 270720, Note_on_c, 1, 74, 79
3, 270720, Note_on_c, 1, 67, 79
3, 271292, Note_off_c, 1, 77, 0
3, 271292, Note_off_c, 1, 74, 0
3, 271292, Note_off_c, 1, 67, 0
3, 271872, Note_on_c, 1, 76, 58
3, 271872, Note_on_c, 1, 67, 58
3, 272444, Note_off_c, 1, 76, 0
3, 272444, Note_off_c, 1, 67, 0
3, 273024, Note_on_c, 1, 69, 58
3, 273024, Note_on_c, 1, 66, 58
3, 273024, Note_on_c, 1, 62, 58
3, 273788, Note_off_c, 1, 69, 0
3, 273788, Note_off_c, 1, 66, 0
3, 273792, Note_on_c, 1, 71, 58
3, 273792, Note_on_c, 1, 67, 58
3, 274172, Note_off_c, 1, 62, 0
3, 274172, Note_off_c, 1, 71, 0
3, 274172, Note_off_c, 1, 67, 0
3, 274176, Note_on_c, 1, 67, 58
3, 274176, Note_on_c, 1, 64, 58
3, 274176, Note_on_c, 1, 69, 58
3, 274364, Note_off_c, 1, 69, 0
3, 274368, Note_on_c, 1, 72, 58
3, 274556, Note_off_c, 1, 67, 0
3, 274556, Note_off_c, 1, 64, 0
3, 274556, Note_off_c, 1, 72, 0
3, 274560, Note_on_c, 1, 67, 58
3, 274560, Note_on_c, 1, 62, 58
3, 274560, Note_on_c, 1, 71, 58
3, 274940, Note_off_c, 1, 67, 0
3, 274940, Note_off_c, 1, 62, 0
3, 274940, Note_off_c, 1, 71, 0
3, 274944, Note_on_c, 1, 69, 58
3, 274944, Note_on_c, 1, 66, 58
3, 274944, Note_on_c, 1, 60, 58
3, 275324, Note_off_c, 1, 69, 0
3, 275324, Note_off_c, 1, 66, 0
3, 275324, Note_off_c, 1, 60, 0
3, 275328, Note_on_c, 1, 59, 79
3, 275328, Note_on_c, 1, 67, 79
3, 275516, Note_off_c, 1, 59, 0
3, 275516, Note_off_c, 1, 67, 0
3, 275520, Note_on_c, 1, 67, 79
3, 275520, Note_on_c, 1, 71, 79
3, 275612, Note_off_c, 1, 71, 0
3, 275616, Note_on_c, 1, 74, 79
3, 275708, Note_off_c, 1, 67, 0
3, 275708, Note_off_c, 1, 74, 0
3, 275712, Note_on_c, 1, 67, 79
3, 275712, Note_on_c, 1, 72, 79
3, 275804, Note_off_c, 1, 72, 0
3, 275808, Note_on_c, 1, 76, 79
3, 275900, Note_off_c, 1, 67, 0
3, 275900, Note_off_c, 1, 76, 0
3, 275904, Note_on_c, 1, 67, 79
3, 275904, Note_on_c, 1, 71, 79
3, 275904, Note_on_c, 1, 74, 79
3, 275996, Note_off_c, 1, 74, 0
3, 276000, Note_on_c, 1, 77, 79
3, 276092, Note_off_c, 1, 67, 0
3, 276092, Note_off_c, 1, 71, 0
3, 276092, Note_off_c, 1, 77, 0
3, 276096, Note_on_c, 1, 72, 79
3, 276096, Note_on_c, 1, 76, 79
3, 276188, Note_off_c, 1, 76, 0
3, 276192, Note_on_c, 1, 79, 79
3, 276284, Note_off_c, 1, 72, 0
3, 276284, Note_off_c, 1, 79, 0
3, 276288, Note_on_c, 1, 72, 79
3, 276288, Note_on_c, 1, 78, 79
3, 276380, Note_off_c, 1, 78, 0
3, 276384, Note_on_c, 1, 81, 79
3, 276476, Note_off_c, 1, 72, 0
3, 276476, Note_off_c, 1, 81, 0
3, 276480, Note_on_c, 1, 79, 79
3, 276480, Note_on_c, 1, 71, 79
3, 276860, Note_off_c, 1, 79, 0
3, 276860, Note_off_c, 1, 71, 0
3, 277632, Note_on_c, 1, 71, 58
3, 277632, Note_on_c, 1, 67, 58
3, 277820, Note_off_c, 1, 71, 0
3, 277820, Note_off_c, 1, 67, 0
3, 277824, Note_on_c, 1, 74, 58
3, 277824, Note_on_c, 1, 71, 58
3, 278012, Note_off_c, 1, 74, 0
3, 278012, Note_off_c, 1, 71, 0
3, 278016, Note_on_c, 1, 67, 58
3, 278016, Note_on_c, 1, 62, 58
3, 278204, Note_off_c, 1, 67, 0
3, 278204, Note_off_c, 1, 62, 0
3, 278208, Note_on_c, 1, 71, 58
3, 278208, Note_on_c, 1, 67, 58
3, 278396, Note_off_c, 1, 71, 0
3, 278396, Note_off_c, 1, 67, 0
3, 278400, Note_on_c, 1, 62, 58
3, 278588, Note_off_c, 1, 62, 0
3, 278592, Note_on_c, 1, 67, 58
3, 278780, Note_off_c, 1, 67, 0
3, 278784, Note_on_c, 1, 59, 58
3, 279164, Note_off_c, 1, 59, 0
3, 279552, Note_on_c, 1, 71, 58
3, 279836, Note_off_c, 1, 71, 0
3, 279840, Note_on_c, 1, 67, 58
3, 279932, Note_off_c, 1, 67, 0
3, 279936, Note_on_c, 1, 69, 58
3, 279936, Note_on_c, 1, 66, 58
3, 280316, Note_off_c, 1, 69, 0
3, 280316, Note_off_c, 1, 66, 0
3, 280704, Note_on_c, 1, 69, 58
3, 280988, Note_off_c, 1, 69, 0
3, 280992, Note_on_c, 1, 66, 58
3, 281084, Note_off_c, 1, 66, 0
3, 281088, Note_on_c, 1, 67, 58
3, 281472, Note_on_c, 1, 73, 58
3, 281852, Note_off_c, 1, 67, 0
3, 281852, Note_off_c, 1, 73, 0
3, 281856, Note_on_c, 1, 67, 58
3, 281856, Note_on_c, 1, 74, 58
3, 282044, Note_off_c, 1, 67, 0
3, 282044, Note_off_c, 1, 74, 0
3, 282048, Note_on_c, 1, 66, 58
3, 282236, Note_off_c, 1, 66, 0
3, 282240, Note_on_c, 1, 69, 58
3, 282240, Note_on_c, 1, 66, 58
3, 282620, Note_off_c, 1, 69, 0
3, 282620, Note_off_c, 1, 66, 0
3, 282624, Note_on_c, 1, 71, 58
3, 282624, Note_on_c, 1, 67, 58
3, 283004, Note_off_c, 1, 71, 0
3, 283004, Note_off_c, 1, 67, 0
3, 283008, Note_on_c, 1, 72, 58
3, 283008, Note_on_c, 1, 69, 58
3, 283388, Note_off_c, 1, 72, 0
3, 283388, Note_off_c, 1, 69, 0
3, 283392, Note_on_c, 1, 74, 58
3, 283392, Note_on_c, 1, 71, 58
3, 283964, Note_off_c, 1, 74, 0
3, 283964, Note_off_c, 1, 71, 0
3, 284544, Note_on_c, 1, 72, 58
3, 284544, Note_on_c, 1, 69, 58
3, 285116, Note_off_c, 1, 72, 0
3, 285116, Note_off_c, 1, 69, 0
3, 285696, Note_on_c, 1, 78, 58
3, 285696, Note_on_c, 1, 72, 58
3, 285696, Note_on_c, 1, 69, 58
3, 286844, Note_off_c, 1, 78, 0
3, 286844, Note_off_c, 1, 72, 0
3, 286844, Note_off_c, 1, 69, 0
3, 286848, Note_on_c, 1, 74, 79
3, 286848, Note_on_c, 1, 71, 79
3, 286848, Note_on_c, 1, 67, 79
3, 286848, Note_on_c, 1, 62, 79
3, 287228, Note_off_c, 1, 74, 0
3, 287228, Note_off_c, 1, 71, 0
3, 287228, Note_off_c, 1, 67, 0
3, 287228, Note_off_c, 1, 62, 0
3, 287232, Note_on_c, 1, 74, 79
3, 287232, Note_on_c, 1, 71, 79
3, 287232, Note_on_c, 1, 67, 79
3, 287232, Note_on_c, 1, 62, 79
3, 287600, Note_on_c, 1, 71, 79
3, 287600, Note_on_c, 1, 67, 79
3, 287612, Note_off_c, 1, 74, 0
3, 287612, Note_off_c, 1, 71, 0
3, 287612, Note_off_c, 1, 67, 0
3, 287612, Note_off_c, 1, 62, 0
3, 287616, Note_on_c, 1, 74, 79
3, 287616, Note_on_c, 1, 62, 79
3, 287980, Note_off_c, 1, 71, 0
3, 287980, Note_off_c, 1, 67, 0
3, 287996, Note_off_c, 1, 74, 0
3, 287996, Note_off_c, 1, 62, 0
3, 288000, Note_on_c, 1, 74, 79
3, 288000, Note_on_c, 1, 71, 79
3, 288000, Note_on_c, 1, 67, 79
3, 288000, Note_on_c, 1, 62, 79
3, 288188, Note_off_c, 1, 74, 0
3, 288188, Note_off_c, 1, 71, 0
3, 288188, Note_off_c, 1, 67, 0
3, 288188, Note_off_c, 1, 62, 0
3, 288192, Note_on_c, 1, 71, 79
3, 288380, Note_off_c, 1, 71, 0
3, 288384, Note_on_c, 1, 67, 79
3, 288572, Note_off_c, 1, 67, 0
3, 288576, Note_on_c, 1, 62, 79
3, 288764, Note_off_c, 1, 62, 0
3, 288768, Note_on_c, 1, 74, 79
3, 288768, Note_on_c, 1, 67, 79
3, 289052, Note_off_c, 1, 74, 0
3, 289052, Note_off_c, 1, 67, 0
3, 289056, Note_on_c, 1, 71, 79
3, 289148, Note_off_c, 1, 71, 0
3, 289152, Note_on_c, 1, 72, 79
3, 289152, Note_on_c, 1, 66, 79
3, 289340, Note_off_c, 1, 72, 0
3, 289340, Note_off_c, 1, 66, 0
3, 289344, Note_on_c, 1, 69, 79
3, 289532, Note_off_c, 1, 69, 0
3, 289536, Note_on_c, 1, 66, 79
3, 289724, Note_off_c, 1, 66, 0
3, 289728, Note_on_c, 1, 62, 79
3, 289916, Note_off_c, 1, 62, 0
3, 289920, Note_on_c, 1, 72, 79
3, 289920, Note_on_c, 1, 66, 79
3, 290112, Note_on_c, 1, 69, 79
3, 290204, Note_off_c, 1, 72, 0
3, 290204, Note_off_c, 1, 66, 0
3, 290204, Note_off_c, 1, 69, 0
3, 290304, Note_on_c, 1, 67, 79
3, 290876, Note_off_c, 1, 67, 0
3, 290880, Note_on_c, 1, 69, 79
3, 290972, Note_off_c, 1, 69, 0
3, 290976, Note_on_c, 1, 71, 79
3, 291068, Note_off_c, 1, 71, 0
3, 291072, Note_on_c, 1, 71, 79
3, 291072, Note_on_c, 1, 67, 79
3, 291260, Note_off_c, 1, 71, 0
3, 291260, Note_off_c, 1, 67, 0
3, 291264, Note_on_c, 1, 69, 79
3, 291264, Note_on_c, 1, 66, 79
3, 291452, Note_off_c, 1, 69, 0
3, 291452, Note_off_c, 1, 66, 0
3, 291456, Note_on_c, 1, 66, 58
3, 291456, Note_on_c, 1, 62, 58
3, 291648, Note_on_c, 1, 72, 58
3, 291836, Note_off_c, 1, 66, 0
3, 291836, Note_off_c, 1, 62, 0
3, 291840, Note_on_c, 1, 67, 58
3, 291840, Note_on_c, 1, 62, 58
3, 292028, Note_off_c, 1, 72, 0
3, 292032, Note_on_c, 1, 71, 58
3, 292220, Note_off_c, 1, 67, 0
3, 292220, Note_off_c, 1, 62, 0
3, 292224, Note_on_c, 1, 72, 58
3, 292224, Note_on_c, 1, 62, 58
3, 292412, Note_off_c, 1, 71, 0
3, 292416, Note_on_c, 1, 69, 58
3, 292604, Note_off_c, 1, 72, 0
3, 292604, Note_off_c, 1, 62, 0
3, 292604, Note_off_c, 1, 69, 0
3, 292608, Note_on_c, 1, 69, 58
3, 292608, Note_on_c, 1, 66, 58
3, 292608, Note_on_c, 1, 75, 66
3, 292688, Note_on_c, 1, 76, 66
3, 292700, Note_off_c, 1, 75, 0
3, 292972, Note_off_c, 1, 76, 0
3, 292988, Note_off_c, 1, 69, 0
3, 292988, Note_off_c, 1, 66, 0
3, 292992, Note_on_c, 1, 69, 58
3, 292992, Note_on_c, 1, 66, 58
3, 292992, Note_on_c, 1, 74, 66
3, 293084, Note_off_c, 1, 74, 0
3, 293088, Note_on_c, 1, 72, 66
3, 293372, Note_off_c, 1, 69, 0
3, 293372, Note_off_c, 1, 66, 0
3, 293372, Note_off_c, 1, 72, 0
3, 293376, Note_on_c, 1, 66, 58
3, 293376, Note_on_c, 1, 62, 58
3, 293376, Note_on_c, 1, 71, 66
3, 293468, Note_off_c, 1, 71, 0
3, 293472, Note_on_c, 1, 69, 66
3, 293756, Note_off_c, 1, 66, 0
3, 293756, Note_off_c, 1, 62, 0
3, 293756, Note_off_c, 1, 69, 0
3, 293760, Note_on_c, 1, 74, 66
3, 293760, Note_on_c, 1, 67, 66
3, 293760, Note_on_c, 1, 62, 66
3, 294044, Note_off_c, 1, 74, 0
3, 294044, Note_off_c, 1, 67, 0
3, 294044, Note_off_c, 1, 62, 0
3, 294048, Note_on_c, 1, 67, 66
3, 294140, Note_off_c, 1, 67, 0
3, 294144, Note_on_c, 1, 67, 58
3, 294144, Note_on_c, 1, 64, 58
3, 294144, Note_on_c, 1, 69, 58
3, 294524, Note_off_c, 1, 67, 0
3, 294524, Note_off_c, 1, 64, 0
3, 294528, Note_on_c, 1, 66, 58
3, 294528, Note_on_c, 1, 62, 58
3, 294908, Note_off_c, 1, 69, 0
3, 294908, Note_off_c, 1, 66, 0
3, 294908, Note_off_c, 1, 62, 0
3, 294912, Note_on_c, 1, 67, 58
3, 295292, Note_off_c, 1, 67, 0
3, 295488, Note_on_c, 1, 74, 58
3, 295488, Note_on_c, 1, 67, 58
3, 295676, Note_off_c, 1, 74, 0
3, 295676, Note_off_c, 1, 67, 0
3, 295680, Note_on_c, 1, 76, 58
3, 295680, Note_on_c, 1, 64, 58
3, 295868, Note_off_c, 1, 76, 0
3, 295868, Note_off_c, 1, 64, 0
3, 295872, Note_on_c, 1, 72, 58
3, 295872, Note_on_c, 1, 69, 58
3, 296060, Note_off_c, 1, 72, 0
3, 296060, Note_off_c, 1, 69, 0
3, 296064, Note_on_c, 1, 71, 58
3, 296064, Note_on_c, 1, 67, 58
3, 296444, Note_off_c, 1, 71, 0
3, 296444, Note_off_c, 1, 67, 0
3, 296640, Note_on_c, 1, 74, 58
3, 296640, Note_on_c, 1, 67, 58
3, 296816, Note_on_c, 1, 64, 58
3, 296828, Note_off_c, 1, 74, 0
3, 296828, Note_off_c, 1, 67, 0
3, 296832, Note_on_c, 1, 76, 58
3, 297004, Note_off_c, 1, 64, 0
3, 297020, Note_off_c, 1, 76, 0
3, 297024, Note_on_c, 1, 72, 58
3, 297024, Note_on_c, 1, 69, 58
3, 297212, Note_off_c, 1, 72, 0
3, 297212, Note_off_c, 1, 69, 0
3, 297216, Note_on_c, 1, 71, 58
3, 297216, Note_on_c, 1, 67, 58
3, 297216, Note_on_c, 1, 62, 58
3, 297500, Note_off_c, 1, 71, 0
3, 297500, Note_off_c, 1, 67, 0
3, 297500, Note_off_c, 1, 62, 0
3, 297600, Note_on_c, 1, 71, 58
3, 297600, Note_on_c, 1, 67, 58
3, 297600, Note_on_c, 1, 62, 58
3, 297788, Note_off_c, 1, 71, 0
3, 297788, Note_off_c, 1, 67, 0
3, 297788, Note_off_c, 1, 62, 0
3, 297984, Note_on_c, 1, 71, 58
3, 297984, Note_on_c, 1, 67, 58
3, 297984, Note_on_c, 1, 62, 58
3, 298172, Note_off_c, 1, 71, 0
3, 298172, Note_off_c, 1, 67, 0
3, 298172, Note_off_c, 1, 62, 0
3, 298368, Note_on_c, 1, 67, 79
3, 298460, Note_off_c, 1, 67, 0
3, 298464, Note_on_c, 1, 62, 79
3, 298556, Note_off_c, 1, 62, 0
3, 298560, Note_on_c, 1, 71, 79
3, 298652, Note_off_c, 1, 71, 0
3, 298656, Note_on_c, 1, 71, 79
3, 298748, Note_off_c, 1, 71, 0
3, 298752, Note_on_c, 1, 71, 79
3, 298844, Note_off_c, 1, 71, 0
3, 298848, Note_on_c, 1, 67, 79
3, 298940, Note_off_c, 1, 67, 0
3, 298944, Note_on_c, 1, 74, 79
3, 299036, Note_off_c, 1, 74, 0
3, 299040, Note_on_c, 1, 74, 79
3, 299132, Note_off_c, 1, 74, 0
3, 299136, Note_on_c, 1, 74, 79
3, 299228, Note_off_c, 1, 74, 0
3, 299232, Note_on_c, 1, 71, 79
3, 299324, Note_off_c, 1, 71, 0
3, 299328, Note_on_c, 1, 79, 79
3, 299420, Note_off_c, 1, 79, 0
3, 299424, Note_on_c, 1, 79, 79
3, 299516, Note_off_c, 1, 79, 0
3, 299520, Note_on_c, 1, 79, 79
3, 300092, Note_off_c, 1, 79, 0
3, 300672, Note_on_c, 1, 68, 58
3, 300672, Note_on_c, 1, 62, 58
3, 300672, Note_on_c, 1, 64, 58
3, 301052, Note_off_c, 1, 68, 0
3, 301052, Note_off_c, 1, 62, 0
3, 301056, Note_on_c, 1, 69, 58
3, 301056, Note_on_c, 1, 60, 58
3, 301436, Note_off_c, 1, 69, 0
3, 301436, Note_off_c, 1, 60, 0
3, 301440, Note_on_c, 1, 71, 58
3, 301440, Note_on_c, 1, 59, 58
3, 301820, Note_off_c, 1, 64, 0
3, 301820, Note_off_c, 1, 71, 0
3, 301820, Note_off_c, 1, 59, 0
3, 301824, Note_on_c, 1, 67, 58
3, 301824, Note_on_c, 1, 64, 58
3, 301824, Note_on_c, 1, 69, 58
3, 302204, Note_off_c, 1, 67, 0
3, 302204, Note_off_c, 1, 64, 0
3, 302208, Note_on_c, 1, 66, 58
3, 302208, Note_on_c, 1, 62, 58
3, 302588, Note_off_c, 1, 69, 0
3, 302588, Note_off_c, 1, 66, 0
3, 302588, Note_off_c, 1, 62, 0
3, 302592, Note_on_c, 1, 67, 58
3, 302592, Note_on_c, 1, 64, 58
3, 302972, Note_off_c, 1, 67, 0
3, 302972, Note_off_c, 1, 64, 0
3, 302976, Note_on_c, 1, 76, 58
3, 302976, Note_on_c, 1, 67, 58
3, 303356, Note_off_c, 1, 76, 0
3, 303356, Note_off_c, 1, 67, 0
3, 303360, Note_on_c, 1, 72, 58
3, 303360, Note_on_c, 1, 67, 58
3, 303360, Note_on_c, 1, 64, 58
3, 303740, Note_off_c, 1, 72, 0
3, 303740, Note_off_c, 1, 67, 0
3, 303740, Note_off_c, 1, 64, 0
3, 303744, Note_on_c, 1, 66, 58
3, 303744, Note_on_c, 1, 62, 58
3, 303744, Note_on_c, 1, 60, 58
3, 304124, Note_off_c, 1, 66, 0
3, 304124, Note_off_c, 1, 62, 0
3, 304124, Note_off_c, 1, 60, 0
3, 304128, Note_on_c, 1, 67, 58
3, 304128, Note_on_c, 1, 59, 58
3, 304220, Note_off_c, 1, 67, 0
3, 304220, Note_off_c, 1, 59, 0
3, 304224, Note_on_c, 1, 62, 58
3, 304316, Note_off_c, 1, 62, 0
3, 304320, Note_on_c, 1, 71, 58
3, 304412, Note_off_c, 1, 71, 0
3, 304416, Note_on_c, 1, 71, 58
3, 304508, Note_off_c, 1, 71, 0
3, 304512, Note_on_c, 1, 71, 58
3, 304604, Note_off_c, 1, 71, 0
3, 304608, Note_on_c, 1, 67, 58
3, 304700, Note_off_c, 1, 67, 0
3, 304704, Note_on_c, 1, 74, 58
3, 304796, Note_off_c, 1, 74, 0
3, 304800, Note_on_c, 1, 74, 58
3, 304892, Note_off_c, 1, 74, 0
3, 304896, Note_on_c, 1, 74, 58
3, 304988, Note_off_c, 1, 74, 0
3, 304992, Note_on_c, 1, 71, 58
3, 305084, Note_off_c, 1, 71, 0
3, 305088, Note_on_c, 1, 79, 58
3, 305180, Note_off_c, 1, 79, 0
3, 305184, Note_on_c, 1, 79, 58
3, 305276, Note_off_c, 1, 79, 0
3, 305280, Note_on_c, 1, 79, 58
3, 305852, Note_off_c, 1, 79, 0
3, 306432, Note_on_c, 1, 74, 58
3, 306432, Note_on_c, 1, 71, 58
3, 306812, Note_off_c, 1, 74, 0
3, 306812, Note_off_c, 1, 71, 0
3, 306816, Note_on_c, 1, 72, 58
3, 306816, Note_on_c, 1, 69, 58
3, 307196, Note_off_c, 1, 72, 0
3, 307196, Note_off_c, 1, 69, 0
3, 307200, Note_on_c, 1, 71, 58
3, 307200, Note_on_c, 1, 68, 58
3, 307200, Note_on_c, 1, 65, 58
3, 307580, Note_off_c, 1, 71, 0
3, 307580, Note_off_c, 1, 68, 0
3, 307580, Note_off_c, 1, 65, 0
3, 307584, Note_on_c, 1, 70, 58
3, 307584, Note_on_c, 1, 67, 58
3, 307584, Note_on_c, 1, 64, 58
3, 307964, Note_off_c, 1, 70, 0
3, 307964, Note_off_c, 1, 67, 0
3, 307964, Note_off_c, 1, 64, 0
3, 307968, Note_on_c, 1, 69, 58
3, 307968, Note_on_c, 1, 63, 58
3, 307968, Note_on_c, 1, 60, 58
3, 308348, Note_off_c, 1, 69, 0
3, 308348, Note_off_c, 1, 63, 0
3, 308348, Note_off_c, 1, 60, 0
3, 308352, Note_on_c, 1, 67, 58
3, 308352, Note_on_c, 1, 62, 58
3, 308352, Note_on_c, 1, 59, 58
3, 308732, Note_off_c, 1, 67, 0
3, 308732, Note_off_c, 1, 62, 0
3, 308732, Note_off_c, 1, 59, 0
3, 308928, Note_on_c, 1, 67, 58
3, 308928, Note_on_c, 1, 57, 58
3, 308928, Note_on_c, 1, 64, 58
3, 309116, Note_off_c, 1, 67, 0
3, 309116, Note_off_c, 1, 57, 0
3, 309116, Note_off_c, 1, 64, 0
3, 309120, Note_on_c, 1, 67, 58
3, 309120, Note_on_c, 1, 64, 58
3, 309120, Note_on_c, 1, 57, 58
3, 309308, Note_off_c, 1, 67, 0
3, 309308, Note_off_c, 1, 64, 0
3, 309308, Note_off_c, 1, 57, 0
3, 309312, Note_on_c, 1, 67, 58
3, 309312, Note_on_c, 1, 64, 58
3, 309312, Note_on_c, 1, 57, 58
3, 309500, Note_off_c, 1, 67, 0
3, 309500, Note_off_c, 1, 64, 0
3, 309500, Note_off_c, 1, 57, 0
3, 309504, Note_on_c, 1, 67, 58
3, 309504, Note_on_c, 1, 64, 58
3, 309504, Note_on_c, 1, 57, 58
3, 309692, Note_off_c, 1, 67, 0
3, 309692, Note_off_c, 1, 64, 0
3, 309692, Note_off_c, 1, 57, 0
3, 309696, Note_on_c, 1, 67, 58
3, 309696, Note_on_c, 1, 64, 58
3, 309696, Note_on_c, 1, 57, 58
3, 309884, Note_off_c, 1, 67, 0
3, 309884, Note_off_c, 1, 64, 0
3, 309884, Note_off_c, 1, 57, 0
3, 310080, Note_on_c, 1, 72, 58
3, 310080, Note_on_c, 1, 66, 58
3, 310080, Note_on_c, 1, 62, 58
3, 310268, Note_off_c, 1, 72, 0
3, 310268, Note_off_c, 1, 66, 0
3, 310268, Note_off_c, 1, 62, 0
3, 310272, Note_on_c, 1, 72, 58
3, 310272, Note_on_c, 1, 66, 58
3, 310272, Note_on_c, 1, 62, 58
3, 310460, Note_off_c, 1, 72, 0
3, 310460, Note_off_c, 1, 66, 0
3, 310460, Note_off_c, 1, 62, 0
3, 310464, Note_on_c, 1, 72, 58
3, 310464, Note_on_c, 1, 66, 58
3, 310464, Note_on_c, 1, 62, 58
3, 310652, Note_off_c, 1, 72, 0
3, 310652, Note_off_c, 1, 66, 0
3, 310652, Note_off_c, 1, 62, 0
3, 310656, Note_on_c, 1, 72, 58
3, 310656, Note_on_c, 1, 66, 58
3, 310656, Note_on_c, 1, 62, 58
3, 310844, Note_off_c, 1, 72, 0
3, 310844, Note_off_c, 1, 66, 0
3, 310844, Note_off_c, 1, 62, 0
3, 310848, Note_on_c, 1, 72, 58
3, 310848, Note_on_c, 1, 66, 58
3, 310848, Note_on_c, 1, 62, 58
3, 311036, Note_off_c, 1, 72, 0
3, 311036, Note_off_c, 1, 66, 0
3, 311036, Note_off_c, 1, 62, 0
3, 311040, Note_on_c, 1, 71, 58
3, 311040, Note_on_c, 1, 67, 58
3, 311040, Note_on_c, 1, 62, 58
3, 311420, Note_off_c, 1, 71, 0
3, 311420, Note_off_c, 1, 67, 0
3, 311420, Note_off_c, 1, 62, 0
3, 311808, Note_on_c, 1, 74, 58
3, 311808, Note_on_c, 1, 62, 58
3, 312188, Note_off_c, 1, 74, 0
3, 312188, Note_off_c, 1, 62, 0
3, 312192, Note_on_c, 1, 76, 58
3, 312192, Note_on_c, 1, 64, 58
3, 312572, Note_off_c, 1, 76, 0
3, 312572, Note_off_c, 1, 64, 0
3, 312960, Note_on_c, 1, 72, 58
3, 312960, Note_on_c, 1, 69, 58
3, 312960, Note_on_c, 1, 64, 58
3, 313340, Note_off_c, 1, 72, 0
3, 313340, Note_off_c, 1, 69, 0
3, 313340, Note_off_c, 1, 64, 0
3, 313344, Note_on_c, 1, 71, 58
3, 313344, Note_on_c, 1, 67, 58
3, 313344, Note_on_c, 1, 62, 58
3, 313532, Note_off_c, 1, 71, 0
3, 313532, Note_off_c, 1, 67, 0
3, 313532, Note_off_c, 1, 62, 0
3, 313536, Note_on_c, 1, 71, 58
3, 313536, Note_on_c, 1, 67, 58
3, 313536, Note_on_c, 1, 62, 58
3, 313724, Note_off_c, 1, 71, 0
3, 313724, Note_off_c, 1, 67, 0
3, 313724, Note_off_c, 1, 62, 0
3, 313728, Note_on_c, 1, 69, 58
3, 313728, Note_on_c, 1, 67, 58
3, 313728, Note_on_c, 1, 62, 58
3, 313904, Note_on_c, 1, 67, 58
3, 313916, Note_off_c, 1, 69, 0
3, 313916, Note_off_c, 1, 67, 0
3, 313916, Note_off_c, 1, 62, 0
3, 313920, Note_on_c, 1, 69, 58
3, 313920, Note_on_c, 1, 62, 58
3, 314092, Note_off_c, 1, 67, 0
3, 314108, Note_off_c, 1, 69, 0
3, 314108, Note_off_c, 1, 62, 0
3, 314112, Note_on_c, 1, 69, 58
3, 314112, Note_on_c, 1, 66, 58
3, 314112, Note_on_c, 1, 62, 58
3, 314300, Note_off_c, 1, 69, 0
3, 314300, Note_off_c, 1, 66, 0
3, 314300, Note_off_c, 1, 62, 0
3, 314304, Note_on_c, 1, 69, 58
3, 314304, Note_on_c, 1, 66, 58
3, 314304, Note_on_c, 1, 62, 58
3, 314492, Note_off_c, 1, 69, 0
3, 314492, Note_off_c, 1, 66, 0
3, 314492, Note_off_c, 1, 62, 0
3, 314496, Note_on_c, 1, 67, 58
3, 314496, Note_on_c, 1, 62, 58
3, 314876, Note_off_c, 1, 67, 0
3, 314876, Note_off_c, 1, 62, 0
3, 315264, Note_on_c, 1, 74, 58
3, 315264, Note_on_c, 1, 67, 58
3, 315264, Note_on_c, 1, 62, 58
3, 315644, Note_off_c, 1, 74, 0
3, 315644, Note_off_c, 1, 67, 0
3, 315644, Note_off_c, 1, 62, 0
3, 315648, Note_on_c, 1, 76, 58
3, 315648, Note_on_c, 1, 67, 58
3, 315648, Note_on_c, 1, 64, 58
3, 316028, Note_off_c, 1, 76, 0
3, 316028, Note_off_c, 1, 67, 0
3, 316028, Note_off_c, 1, 64, 0
3, 316416, Note_on_c, 1, 72, 58
3, 316416, Note_on_c, 1, 69, 58
3, 316416, Note_on_c, 1, 64, 58
3, 316796, Note_off_c, 1, 72, 0
3, 316796, Note_off_c, 1, 69, 0
3, 316796, Note_off_c, 1, 64, 0
3, 316800, Note_on_c, 1, 71, 58
3, 316800, Note_on_c, 1, 67, 58
3, 316800, Note_on_c, 1, 62, 58
3, 316988, Note_off_c, 1, 71, 0
3, 316988, Note_off_c, 1, 67, 0
3, 316988, Note_off_c, 1, 62, 0
3, 316992, Note_on_c, 1, 71, 58
3, 316992, Note_on_c, 1, 67, 58
3, 316992, Note_on_c, 1, 62, 58
3, 317180, Note_off_c, 1, 71, 0
3, 317180, Note_off_c, 1, 67, 0
3, 317180, Note_off_c, 1, 62, 0
3, 317184, Note_on_c, 1, 71, 58
3, 317184, Note_on_c, 1, 67, 58
3, 317184, Note_on_c, 1, 62, 58
3, 317372, Note_off_c, 1, 71, 0
3, 317372, Note_off_c, 1, 67, 0
3, 317372, Note_off_c, 1, 62, 0
3, 317376, Note_on_c, 1, 71, 58
3, 317376, Note_on_c, 1, 67, 58
3, 317376, Note_on_c, 1, 62, 58
3, 317564, Note_off_c, 1, 71, 0
3, 317564, Note_off_c, 1, 67, 0
3, 317564, Note_off_c, 1, 62, 0
3, 317568, Note_on_c, 1, 71, 58
3, 317568, Note_on_c, 1, 67, 58
3, 317568, Note_on_c, 1, 62, 58
3, 317756, Note_off_c, 1, 71, 0
3, 317756, Note_off_c, 1, 67, 0
3, 317756, Note_off_c, 1, 62, 0
3, 317760, Note_on_c, 1, 71, 58
3, 317760, Note_on_c, 1, 67, 58
3, 317760, Note_on_c, 1, 62, 58
3, 317948, Note_off_c, 1, 71, 0
3, 317948, Note_off_c, 1, 67, 0
3, 317948, Note_off_c, 1, 62, 0
3, 317952, Note_on_c, 1, 72, 58
3, 317952, Note_on_c, 1, 66, 58
3, 318044, Note_off_c, 1, 72, 0
3, 318044, Note_off_c, 1, 66, 0
3, 318048, Note_on_c, 1, 62, 58
3, 318140, Note_off_c, 1, 62, 0
3, 318144, Note_on_c, 1, 72, 58
3, 318144, Note_on_c, 1, 66, 58
3, 318236, Note_off_c, 1, 72, 0
3, 318236, Note_off_c, 1, 66, 0
3, 318240, Note_on_c, 1, 62, 58
3, 318332, Note_off_c, 1, 62, 0
3, 318336, Note_on_c, 1, 72, 58
3, 318336, Note_on_c, 1, 69, 58
3, 318428, Note_off_c, 1, 72, 0
3, 318428, Note_off_c, 1, 69, 0
3, 318432, Note_on_c, 1, 62, 58
3, 318524, Note_off_c, 1, 62, 0
3, 318528, Note_on_c, 1, 72, 58
3, 318528, Note_on_c, 1, 69, 58
3, 318620, Note_off_c, 1, 72, 0
3, 318620, Note_off_c, 1, 69, 0
3, 318624, Note_on_c, 1, 62, 58
3, 318716, Note_off_c, 1, 62, 0
3, 318720, Note_on_c, 1, 78, 58
3, 318720, Note_on_c, 1, 72, 58
3, 318812, Note_off_c, 1, 78, 0
3, 318812, Note_off_c, 1, 72, 0
3, 318816, Note_on_c, 1, 69, 58
3, 318908, Note_off_c, 1, 69, 0
3, 318912, Note_on_c, 1, 78, 58
3, 318912, Note_on_c, 1, 72, 58
3, 319004, Note_off_c, 1, 78, 0
3, 319004, Note_off_c, 1, 72, 0
3, 319008, Note_on_c, 1, 69, 58
3, 319100, Note_off_c, 1, 69, 0
3, 319104, Note_on_c, 1, 79, 58
3, 319104, Note_on_c, 1, 71, 58
3, 319292, Note_off_c, 1, 79, 0
3, 319292, Note_off_c, 1, 71, 0
3, 319296, Note_on_c, 1, 67, 79
3, 319676, Note_off_c, 1, 67, 0
3, 319680, Note_on_c, 1, 69, 79
3, 319772, Note_off_c, 1, 69, 0
3, 319776, Note_on_c, 1, 71, 79
3, 319868, Note_off_c, 1, 71, 0
3, 319872, Note_on_c, 1, 72, 79
3, 319964, Note_off_c, 1, 72, 0
3, 319968, Note_on_c, 1, 74, 79
3, 320060, Note_off_c, 1, 74, 0
3, 320064, Note_on_c, 1, 76, 79
3, 320156, Note_off_c, 1, 76, 0
3, 320160, Note_on_c, 1, 78, 79
3, 320252, Note_off_c, 1, 78, 0
3, 320256, Note_on_c, 1, 79, 79
3, 320348, Note_off_c, 1, 79, 0
3, 320352, Note_on_c, 1, 81, 79
3, 320444, Note_off_c, 1, 81, 0
3, 320448, Note_on_c, 1, 83, 79
3, 320540, Note_off_c, 1, 83, 0
3, 320544, Note_on_c, 1, 84, 79
3, 320636, Note_off_c, 1, 84, 0
3, 320640, Note_on_c, 1, 86, 79
3, 321020, Note_off_c, 1, 86, 0
3, 321216, Note_on_c, 1, 79, 79
3, 321260, Note_off_c, 1, 79, 0
3, 321264, Note_on_c, 1, 81, 79
3, 321308, Note_off_c, 1, 81, 0
3, 321312, Note_on_c, 1, 78, 79
3, 321356, Note_off_c, 1, 78, 0
3, 321360, Note_on_c, 1, 79, 79
3, 321404, Note_off_c, 1, 79, 0
3, 321408, Note_on_c, 1, 76, 79
3, 321408, Note_on_c, 1, 81, 79
3, 321500, Note_off_c, 1, 76, 0
3, 321504, Note_on_c, 1, 72, 79
3, 321596, Note_off_c, 1, 72, 0
3, 321600, Note_on_c, 1, 76, 79
3, 321692, Note_off_c, 1, 76, 0
3, 321696, Note_on_c, 1, 72, 79
3, 321788, Note_off_c, 1, 81, 0
3, 321788, Note_off_c, 1, 72, 0
3, 321792, Note_on_c, 1, 76, 79
3, 321792, Note_on_c, 1, 84, 79
3, 321884, Note_off_c, 1, 76, 0
3, 321888, Note_on_c, 1, 72, 79
3, 321980, Note_off_c, 1, 72, 0
3, 321984, Note_on_c, 1, 76, 79
3, 322076, Note_off_c, 1, 76, 0
3, 322080, Note_on_c, 1, 72, 79
3, 322172, Note_off_c, 1, 84, 0
3, 322172, Note_off_c, 1, 72, 0
3, 322176, Note_on_c, 1, 72, 79
3, 322176, Note_on_c, 1, 78, 79
3, 322268, Note_off_c, 1, 72, 0
3, 322272, Note_on_c, 1, 69, 79
3, 322364, Note_off_c, 1, 69, 0
3, 322368, Note_on_c, 1, 72, 79
3, 322460, Note_off_c, 1, 72, 0
3, 322464, Note_on_c, 1, 69, 79
3, 322556, Note_off_c, 1, 78, 0
3, 322556, Note_off_c, 1, 69, 0
3, 322560, Note_on_c, 1, 79, 79
3, 322560, Note_on_c, 1, 71, 79
3, 322748, Note_off_c, 1, 79, 0
3, 322748, Note_off_c, 1, 71, 0
3, 322752, Note_on_c, 1, 67, 79
3, 323132, Note_off_c, 1, 67, 0
3, 323136, Note_on_c, 1, 69, 79
3, 323228, Note_off_c, 1, 69, 0
3, 323232, Note_on_c, 1, 71, 79
3, 323324, Note_off_c, 1, 71, 0
3, 323328, Note_on_c, 1, 72, 79
3, 323420, Note_off_c, 1, 72, 0
3, 323424, Note_on_c, 1, 74, 79
3, 323516, Note_off_c, 1, 74, 0
3, 323520, Note_on_c, 1, 76, 79
3, 323612, Note_off_c, 1, 76, 0
3, 323616, Note_on_c, 1, 78, 79
3, 323708, Note_off_c, 1, 78, 0
3, 323712, Note_on_c, 1, 79, 79
3, 323804, Note_off_c, 1, 79, 0
3, 323808, Note_on_c, 1, 81, 79
3, 323900, Note_off_c, 1, 81, 0
3, 323904, Note_on_c, 1, 83, 79
3, 323996, Note_off_c, 1, 83, 0
3, 324000, Note_on_c, 1, 84, 79
3, 324092, Note_off_c, 1, 84, 0
3, 324096, Note_on_c, 1, 86, 79
3, 324668, Note_off_c, 1, 86, 0
3, 324672, Note_on_c, 1, 79, 79
3, 324716, Note_off_c, 1, 79, 0
3, 324720, Note_on_c, 1, 81, 79
3, 324764, Note_off_c, 1, 81, 0
3, 324768, Note_on_c, 1, 78, 79
3, 324812, Note_off_c, 1, 78, 0
3, 324816, Note_on_c, 1, 79, 79
3, 324860, Note_off_c, 1, 79, 0
3, 324864, Note_on_c, 1, 76, 79
3, 324864, Note_on_c, 1, 81, 79
3, 324956, Note_off_c, 1, 76, 0
3, 324960, Note_on_c, 1, 72, 79
3, 325052, Note_off_c, 1, 72, 0
3, 325056, Note_on_c, 1, 76, 79
3, 325148, Note_off_c, 1, 76, 0
3, 325152, Note_on_c, 1, 72, 79
3, 325244, Note_off_c, 1, 81, 0
3, 325244, Note_off_c, 1, 72, 0
3, 325248, Note_on_c, 1, 76, 79
3, 325248, Note_on_c, 1, 84, 79
3, 325340, Note_off_c, 1, 76, 0
3, 325344, Note_on_c, 1, 72, 79
3, 325436, Note_off_c, 1, 72, 0
3, 325440, Note_on_c, 1, 76, 79
3, 325532, Note_off_c, 1, 76, 0
3, 325536, Note_on_c, 1, 72, 79
3, 325628, Note_off_c, 1, 84, 0
3, 325628, Note_off_c, 1, 72, 0
3, 325632, Note_on_c, 1, 72, 79
3, 325632, Note_on_c, 1, 78, 79
3, 325724, Note_off_c, 1, 72, 0
3, 325728, Note_on_c, 1, 69, 79
3, 325820, Note_off_c, 1, 69, 0
3, 325824, Note_on_c, 1, 72, 79
3, 325916, Note_off_c, 1, 72, 0
3, 325920, Note_on_c, 1, 69, 79
3, 326012, Note_off_c, 1, 78, 0
3, 326012, Note_off_c, 1, 69, 0
3, 326016, Note_on_c, 1, 79, 79
3, 326016, Note_on_c, 1, 71, 79
3, 326204, Note_off_c, 1, 79, 0
3, 326204, Note_off_c, 1, 71, 0
3, 326208, Note_on_c, 1, 74, 58
3, 326396, Note_off_c, 1, 74, 0
3, 326400, Note_on_c, 1, 83, 58
3, 326588, Note_off_c, 1, 83, 0
3, 326592, Note_on_c, 1, 79, 58
3, 326780, Note_off_c, 1, 79, 0
3, 326784, Note_on_c, 1, 74, 58
3, 326972, Note_off_c, 1, 74, 0
3, 326976, Note_on_c, 1, 71, 58
3, 327164, Note_off_c, 1, 71, 0
3, 327168, Note_on_c, 1, 74, 58
3, 327356, Note_off_c, 1, 74, 0
3, 327360, Note_on_c, 1, 72, 58
3, 327548, Note_off_c, 1, 72, 0
3, 327552, Note_on_c, 1, 76, 58
3, 327740, Note_off_c, 1, 76, 0
3, 327744, Note_on_c, 1, 72, 58
3, 327932, Note_off_c, 1, 72, 0
3, 327936, Note_on_c, 1, 69, 58
3, 327936, Note_on_c, 1, 62, 58
3, 328124, Note_off_c, 1, 69, 0
3, 328124, Note_off_c, 1, 62, 0
3, 328128, Note_on_c, 1, 66, 58
3, 328316, Note_off_c, 1, 66, 0
3, 328512, Note_on_c, 1, 74, 58
3, 328700, Note_off_c, 1, 74, 0
3, 328704, Note_on_c, 1, 83, 58
3, 328892, Note_off_c, 1, 83, 0
3, 328896, Note_on_c, 1, 79, 58
3, 329084, Note_off_c, 1, 79, 0
3, 329088, Note_on_c, 1, 74, 58
3, 329276, Note_off_c, 1, 74, 0
3, 329280, Note_on_c, 1, 71, 58
3, 329468, Note_off_c, 1, 71, 0
3, 329472, Note_on_c, 1, 74, 58
3, 329660, Note_off_c, 1, 74, 0
3, 329664, Note_on_c, 1, 72, 58
3, 329852, Note_off_c, 1, 72, 0
3, 329856, Note_on_c, 1, 76, 58
3, 330044, Note_off_c, 1, 76, 0
3, 330048, Note_on_c, 1, 72, 58
3, 330236, Note_off_c, 1, 72, 0
3, 330240, Note_on_c, 1, 69, 58
3, 330240, Note_on_c, 1, 62, 58
3, 330428, Note_off_c, 1, 69, 0
3, 330428, Note_off_c, 1, 62, 0
3, 330432, Note_on_c, 1, 66, 58
3, 330620, Note_off_c, 1, 66, 0
3, 330816, Note_on_c, 1, 67, 58
3, 331004, Note_off_c, 1, 67, 0
3, 331008, Note_on_c, 1, 71, 58
3, 331196, Note_off_c, 1, 71, 0
3, 331200, Note_on_c, 1, 74, 58
3, 331388, Note_off_c, 1, 74, 0
3, 331392, Note_on_c, 1, 74, 58
3, 331392, Note_on_c, 1, 62, 58
3, 331580, Note_off_c, 1, 74, 0
3, 331580, Note_off_c, 1, 62, 0
3, 331584, Note_on_c, 1, 66, 58
3, 331772, Note_off_c, 1, 66, 0
3, 331968, Note_on_c, 1, 67, 58
3, 332156, Note_off_c, 1, 67, 0
3, 332160, Note_on_c, 1, 71, 58
3, 332348, Note_off_c, 1, 71, 0
3, 332352, Note_on_c, 1, 74, 58
3, 332540, Note_off_c, 1, 74, 0
3, 332544, Note_on_c, 1, 74, 58
3, 332544, Note_on_c, 1, 62, 58
3, 332732, Note_off_c, 1, 74, 0
3, 332732, Note_off_c, 1, 62, 0
3, 332736, Note_on_c, 1, 66, 58
3, 332924, Note_off_c, 1, 66, 0
3, 332928, Note_on_c, 1, 67, 58
3, 332928, Note_on_c, 1, 59, 58
3, 333116, Note_off_c, 1, 67, 0
3, 333116, Note_off_c, 1, 59, 0
3, 333120, Note_on_c, 1, 62, 58
3, 333308, Note_off_c, 1, 62, 0
3, 333312, Note_on_c, 1, 67, 58
3, 333312, Note_on_c, 1, 59, 58
3, 333500, Note_off_c, 1, 67, 0
3, 333500, Note_off_c, 1, 59, 0
3, 333504, Note_on_c, 1, 62, 58
3, 333692, Note_off_c, 1, 62, 0
3, 333696, Note_on_c, 1, 66, 58
3, 333696, Note_on_c, 1, 69, 58
3, 333740, Note_off_c, 1, 69, 0
3, 333744, Note_on_c, 1, 71, 58
3, 333788, Note_off_c, 1, 71, 0
3, 333792, Note_on_c, 1, 69, 58
3, 333836, Note_off_c, 1, 69, 0
3, 333840, Note_on_c, 1, 71, 58
3, 333884, Note_off_c, 1, 71, 0
3, 333888, Note_on_c, 1, 69, 58
3, 333932, Note_off_c, 1, 69, 0
3, 333936, Note_on_c, 1, 71, 58
3, 333980, Note_off_c, 1, 66, 0
3, 333980, Note_off_c, 1, 71, 0
3, 333984, Note_on_c, 1, 67, 58
3, 334028, Note_off_c, 1, 67, 0
3, 334032, Note_on_c, 1, 69, 58
3, 334076, Note_off_c, 1, 69, 0
3, 334080, Note_on_c, 1, 67, 58
3, 334080, Note_on_c, 1, 62, 58
3, 334080, Note_on_c, 1, 59, 58
3, 334652, Note_off_c, 1, 67, 0
3, 334652, Note_off_c, 1, 62, 0
3, 334652, Note_off_c, 1, 59, 0
3, 334652, End_track
4, 0, Start_track
4, 0, Title_t, "K313-c-Rondo"
4, 0, Control_c, 2, 0, 0
4, 0, Program_c, 2, 0
4, 0, Control_c, 2, 7, 80
4, 0, Control_c, 2, 10, 45
4, 0, Control_c, 2, 91, 42
4, 0, Control_c, 2, 93, 40
4, 0, Key_signature, 1, "major"
4, 0, Control_c, 2, 121, 0
4, 144, Control_c, 2, 10, 43
4, 192, Control_c, 2, 91, 63
4, 240, Control_c, 2, 93, 40
4, 288, Program_c, 2, 0
4, 1152, Note_on_c, 2, 67, 58
4, 1532, Note_off_c, 2, 67, 0
4, 1536, Note_on_c, 2, 62, 58
4, 1916, Note_off_c, 2, 62, 0
4, 1920, Note_on_c, 2, 59, 58
4, 2300, Note_off_c, 2, 59, 0
4, 2304, Note_on_c, 2, 55, 58
4, 2684, Note_off_c, 2, 55, 0
4, 3072, Note_on_c, 2, 55, 58
4, 3452, Note_off_c, 2, 55, 0
4, 3456, Note_on_c, 2, 62, 58
4, 3836, Note_off_c, 2, 62, 0
4, 4224, Note_on_c, 2, 62, 58
4, 4604, Note_off_c, 2, 62, 0
4, 4608, Note_on_c, 2, 59, 58
4, 4988, Note_off_c, 2, 59, 0
4, 4992, Note_on_c, 2, 55, 58
4, 5372, Note_off_c, 2, 55, 0
4, 5376, Note_on_c, 2, 62, 58
4, 5756, Note_off_c, 2, 62, 0
4, 5760, Note_on_c, 2, 64, 58
4, 6140, Note_off_c, 2, 64, 0
4, 6144, Note_on_c, 2, 62, 58
4, 6524, Note_off_c, 2, 62, 0
4, 6528, Note_on_c, 2, 60, 58
4, 6908, Note_off_c, 2, 60, 0
4, 6912, Note_on_c, 2, 59, 58
4, 7292, Note_off_c, 2, 59, 0
4, 7680, Note_on_c, 2, 59, 58
4, 8060, Note_off_c, 2, 59, 0
4, 8064, Note_on_c, 2, 60, 58
4, 8444, Note_off_c, 2, 60, 0
4, 8832, Note_on_c, 2, 61, 58
4, 9216, Note_on_c, 2, 62, 58
4, 9220, Note_off_c, 2, 61, 64
4, 9596, Note_off_c, 2, 62, 0
4, 9600, Note_on_c, 2, 62, 58
4, 9980, Note_off_c, 2, 62, 0
4, 9984, Note_on_c, 2, 62, 58
4, 10364, Note_off_c, 2, 62, 0
4, 10368, Note_on_c, 2, 55, 79
4, 10368, Note_on_c, 2, 43, 79
4, 10748, Note_off_c, 2, 55, 0
4, 10748, Note_off_c, 2, 43, 0
4, 10752, Note_on_c, 2, 50, 79
4, 10752, Note_on_c, 2, 38, 79
4, 11132, Note_off_c, 2, 50, 0
4, 11132, Note_off_c, 2, 38, 0
4, 11136, Note_on_c, 2, 47, 79
4, 11136, Note_on_c, 2, 35, 79
4, 11516, Note_off_c, 2, 47, 0
4, 11516, Note_off_c, 2, 35, 0
4, 11520, Note_on_c, 2, 43, 79
4, 11520, Note_on_c, 2, 31, 79
4, 11900, Note_off_c, 2, 43, 0
4, 11900, Note_off_c, 2, 31, 0
4, 12272, Note_on_c, 2, 55, 79
4, 12288, Note_on_c, 2, 62, 79
4, 12652, Note_off_c, 2, 55, 0
4, 12668, Note_off_c, 2, 62, 0
4, 12672, Note_on_c, 2, 62, 79
4, 12672, Note_on_c, 2, 50, 79
4, 13052, Note_off_c, 2, 62, 0
4, 13052, Note_off_c, 2, 50, 0
4, 13056, Note_on_c, 2, 57, 79
4, 13436, Note_off_c, 2, 57, 0
4, 13440, Note_on_c, 2, 62, 79
4, 13820, Note_off_c, 2, 62, 0
4, 13824, Note_on_c, 2, 59, 79
4, 14204, Note_off_c, 2, 59, 0
4, 14208, Note_on_c, 2, 55, 79
4, 14588, Note_off_c, 2, 55, 0
4, 14592, Note_on_c, 2, 62, 79
4, 14972, Note_off_c, 2, 62, 0
4, 14976, Note_on_c, 2, 64, 79
4, 15356, Note_off_c, 2, 64, 0
4, 15360, Note_on_c, 2, 62, 79
4, 15360, Note_on_c, 2, 66, 79
4, 15740, Note_off_c, 2, 62, 0
4, 15740, Note_off_c, 2, 66, 0
4, 15744, Note_on_c, 2, 61, 79
4, 15744, Note_on_c, 2, 64, 79
4, 16124, Note_off_c, 2, 61, 0
4, 16124, Note_off_c, 2, 64, 0
4, 16128, Note_on_c, 2, 60, 79
4, 16128, Note_on_c, 2, 64, 79
4, 16508, Note_off_c, 2, 60, 0
4, 16508, Note_off_c, 2, 64, 0
4, 17280, Note_on_c, 2, 59, 79
4, 17280, Note_on_c, 2, 62, 79
4, 17660, Note_off_c, 2, 59, 0
4, 17660, Note_off_c, 2, 62, 0
4, 17664, Note_on_c, 2, 60, 79
4, 17664, Note_on_c, 2, 64, 79
4, 18044, Note_off_c, 2, 60, 0
4, 18044, Note_off_c, 2, 64, 0
4, 18048, Note_on_c, 2, 62, 79
4, 18048, Note_on_c, 2, 66, 79
4, 18428, Note_off_c, 2, 62, 0
4, 18428, Note_off_c, 2, 66, 0
4, 18432, Note_on_c, 2, 55, 79
4, 18432, Note_on_c, 2, 59, 79
4, 18432, Note_on_c, 2, 62, 79
4, 18812, Note_off_c, 2, 55, 0
4, 18812, Note_off_c, 2, 59, 0
4, 18812, Note_off_c, 2, 62, 0
4, 18816, Note_on_c, 2, 55, 58
4, 18816, Note_on_c, 2, 59, 58
4, 18816, Note_on_c, 2, 62, 58
4, 19004, Note_off_c, 2, 55, 0
4, 19004, Note_off_c, 2, 59, 0
4, 19004, Note_off_c, 2, 62, 0
4, 19200, Note_on_c, 2, 59, 58
4, 19200, Note_on_c, 2, 62, 58
4, 19200, Note_on_c, 2, 67, 58
4, 19388, Note_off_c, 2, 59, 0
4, 19388, Note_off_c, 2, 62, 0
4, 19388, Note_off_c, 2, 67, 0
4, 19584, Note_on_c, 2, 64, 58
4, 19584, Note_on_c, 2, 60, 58
4, 19584, Note_on_c, 2, 57, 58
4, 19772, Note_off_c, 2, 64, 0
4, 19772, Note_off_c, 2, 60, 0
4, 19772, Note_off_c, 2, 57, 0
4, 19968, Note_on_c, 2, 57, 58
4, 19968, Note_on_c, 2, 45, 58
4, 20156, Note_off_c, 2, 57, 0
4, 20156, Note_off_c, 2, 45, 0
4, 20352, Note_on_c, 2, 57, 58
4, 20352, Note_on_c, 2, 52, 58
4, 20352, Note_on_c, 2, 48, 58
4, 20540, Note_off_c, 2, 57, 0
4, 20540, Note_off_c, 2, 52, 0
4, 20540, Note_off_c, 2, 48, 0
4, 20736, Note_on_c, 2, 62, 58
4, 20736, Note_on_c, 2, 57, 58
4, 20736, Note_on_c, 2, 50, 58
4, 20924, Note_off_c, 2, 62, 0
4, 20924, Note_off_c, 2, 57, 0
4, 20924, Note_off_c, 2, 50, 0
4, 21120, Note_on_c, 2, 57, 58
4, 21120, Note_on_c, 2, 54, 58
4, 21308, Note_off_c, 2, 57, 0
4, 21308, Note_off_c, 2, 54, 0
4, 21504, Note_on_c, 2, 57, 58
4, 21504, Note_on_c, 2, 50, 58
4, 21692, Note_off_c, 2, 57, 0
4, 21692, Note_off_c, 2, 50, 0
4, 21888, Note_on_c, 2, 55, 58
4, 21888, Note_on_c, 2, 43, 58
4, 22076, Note_off_c, 2, 55, 0
4, 22076, Note_off_c, 2, 43, 0
4, 22272, Note_on_c, 2, 62, 58
4, 22272, Note_on_c, 2, 59, 58
4, 22272, Note_on_c, 2, 55, 58
4, 22460, Note_off_c, 2, 62, 0
4, 22460, Note_off_c, 2, 59, 0
4, 22460, Note_off_c, 2, 55, 0
4, 22656, Note_on_c, 2, 62, 58
4, 22656, Note_on_c, 2, 59, 58
4, 22844, Note_off_c, 2, 62, 0
4, 22844, Note_off_c, 2, 59, 0
4, 23040, Note_on_c, 2, 64, 58
4, 23040, Note_on_c, 2, 60, 58
4, 23040, Note_on_c, 2, 57, 58
4, 23228, Note_off_c, 2, 64, 0
4, 23228, Note_off_c, 2, 60, 0
4, 23228, Note_off_c, 2, 57, 0
4, 23424, Note_on_c, 2, 57, 58
4, 23424, Note_on_c, 2, 45, 58
4, 23612, Note_off_c, 2, 57, 0
4, 23612, Note_off_c, 2, 45, 0
4, 23808, Note_on_c, 2, 57, 58
4, 23808, Note_on_c, 2, 52, 58
4, 23808, Note_on_c, 2, 48, 58
4, 23996, Note_off_c, 2, 57, 0
4, 23996, Note_off_c, 2, 52, 0
4, 23996, Note_off_c, 2, 48, 0
4, 24192, Note_on_c, 2, 62, 58
4, 24192, Note_on_c, 2, 57, 58
4, 24192, Note_on_c, 2, 50, 58
4, 24380, Note_off_c, 2, 62, 0
4, 24380, Note_off_c, 2, 57, 0
4, 24380, Note_off_c, 2, 50, 0
4, 24576, Note_on_c, 2, 57, 58
4, 24576, Note_on_c, 2, 54, 58
4, 24764, Note_off_c, 2, 57, 0
4, 24764, Note_off_c, 2, 54, 0
4, 24960, Note_on_c, 2, 57, 58
4, 24960, Note_on_c, 2, 50, 58
4, 25148, Note_off_c, 2, 57, 0
4, 25148, Note_off_c, 2, 50, 0
4, 25344, Note_on_c, 2, 55, 79
4, 25344, Note_on_c, 2, 43, 79
4, 25532, Note_off_c, 2, 55, 0
4, 25532, Note_off_c, 2, 43, 0
4, 25536, Note_on_c, 2, 55, 79
4, 25536, Note_on_c, 2, 59, 79
4, 25724, Note_off_c, 2, 55, 0
4, 25724, Note_off_c, 2, 59, 0
4, 25728, Note_on_c, 2, 59, 79
4, 25728, Note_on_c, 2, 55, 79
4, 25916, Note_off_c, 2, 59, 0
4, 25916, Note_off_c, 2, 55, 0
4, 25920, Note_on_c, 2, 62, 79
4, 25920, Note_on_c, 2, 55, 79
4, 26108, Note_off_c, 2, 62, 0
4, 26108, Note_off_c, 2, 55, 0
4, 26112, Note_on_c, 2, 66, 79
4, 26112, Note_on_c, 2, 57, 79
4, 26300, Note_off_c, 2, 66, 0
4, 26300, Note_off_c, 2, 57, 0
4, 26304, Note_on_c, 2, 64, 79
4, 26304, Note_on_c, 2, 57, 79
4, 26492, Note_off_c, 2, 64, 0
4, 26492, Note_off_c, 2, 57, 0
4, 26496, Note_on_c, 2, 59, 79
4, 26496, Note_on_c, 2, 62, 79
4, 26684, Note_off_c, 2, 59, 0
4, 26684, Note_off_c, 2, 62, 0
4, 26688, Note_on_c, 2, 59, 79
4, 26688, Note_on_c, 2, 62, 79
4, 26876, Note_off_c, 2, 59, 0
4, 26876, Note_off_c, 2, 62, 0
4, 26880, Note_on_c, 2, 59, 79
4, 26880, Note_on_c, 2, 62, 79
4, 27068, Note_off_c, 2, 59, 0
4, 27068, Note_off_c, 2, 62, 0
4, 27072, Note_on_c, 2, 59, 79
4, 27072, Note_on_c, 2, 62, 79
4, 27260, Note_off_c, 2, 59, 0
4, 27260, Note_off_c, 2, 62, 0
4, 27264, Note_on_c, 2, 52, 79
4, 27264, Note_on_c, 2, 64, 79
4, 27452, Note_off_c, 2, 52, 0
4, 27452, Note_off_c, 2, 64, 0
4, 27456, Note_on_c, 2, 52, 79
4, 27456, Note_on_c, 2, 59, 79
4, 27456, Note_on_c, 2, 64, 79
4, 27644, Note_off_c, 2, 52, 0
4, 27644, Note_off_c, 2, 59, 0
4, 27644, Note_off_c, 2, 64, 0
4, 27648, Note_on_c, 2, 60, 79
4, 27648, Note_on_c, 2, 48, 79
4, 27836, Note_off_c, 2, 60, 0
4, 27836, Note_off_c, 2, 48, 0
4, 27840, Note_on_c, 2, 60, 79
4, 27840, Note_on_c, 2, 48, 79
4, 28028, Note_off_c, 2, 60, 0
4, 28028, Note_off_c, 2, 48, 0
4, 28032, Note_on_c, 2, 57, 79
4, 28032, Note_on_c, 2, 48, 79
4, 28220, Note_off_c, 2, 57, 0
4, 28220, Note_off_c, 2, 48, 0
4, 28224, Note_on_c, 2, 57, 79
4, 28224, Note_on_c, 2, 48, 79
4, 28412, Note_off_c, 2, 57, 0
4, 28412, Note_off_c, 2, 48, 0
4, 28416, Note_on_c, 2, 57, 79
4, 28416, Note_on_c, 2, 50, 79
4, 28604, Note_off_c, 2, 57, 0
4, 28604, Note_off_c, 2, 50, 0
4, 28608, Note_on_c, 2, 57, 79
4, 28608, Note_on_c, 2, 50, 79
4, 28796, Note_off_c, 2, 57, 0
4, 28796, Note_off_c, 2, 50, 0
4, 28800, Note_on_c, 2, 55, 79
4, 28800, Note_on_c, 2, 43, 79
4, 28988, Note_off_c, 2, 55, 0
4, 28988, Note_off_c, 2, 43, 0
4, 28992, Note_on_c, 2, 59, 79
4, 28992, Note_on_c, 2, 55, 79
4, 29180, Note_off_c, 2, 59, 0
4, 29180, Note_off_c, 2, 55, 0
4, 29184, Note_on_c, 2, 59, 79
4, 29184, Note_on_c, 2, 55, 79
4, 29372, Note_off_c, 2, 59, 0
4, 29372, Note_off_c, 2, 55, 0
4, 29376, Note_on_c, 2, 55, 79
4, 29376, Note_on_c, 2, 62, 79
4, 29564, Note_off_c, 2, 55, 0
4, 29564, Note_off_c, 2, 62, 0
4, 29568, Note_on_c, 2, 57, 79
4, 29568, Note_on_c, 2, 66, 79
4, 29756, Note_off_c, 2, 57, 0
4, 29756, Note_off_c, 2, 66, 0
4, 29760, Note_on_c, 2, 57, 79
4, 29760, Note_on_c, 2, 64, 79
4, 29948, Note_off_c, 2, 57, 0
4, 29948, Note_off_c, 2, 64, 0
4, 29952, Note_on_c, 2, 59, 79
4, 29952, Note_on_c, 2, 62, 79
4, 30140, Note_off_c, 2, 59, 0
4, 30140, Note_off_c, 2, 62, 0
4, 30144, Note_on_c, 2, 59, 79
4, 30144, Note_on_c, 2, 62, 79
4, 30332, Note_off_c, 2, 59, 0
4, 30332, Note_off_c, 2, 62, 0
4, 30336, Note_on_c, 2, 59, 79
4, 30336, Note_on_c, 2, 62, 79
4, 30524, Note_off_c, 2, 59, 0
4, 30524, Note_off_c, 2, 62, 0
4, 30528, Note_on_c, 2, 59, 79
4, 30528, Note_on_c, 2, 62, 79
4, 30716, Note_off_c, 2, 59, 0
4, 30716, Note_off_c, 2, 62, 0
4, 30720, Note_on_c, 2, 52, 79
4, 30720, Note_on_c, 2, 64, 79
4, 30908, Note_off_c, 2, 52, 0
4, 30908, Note_off_c, 2, 64, 0
4, 30912, Note_on_c, 2, 52, 79
4, 30912, Note_on_c, 2, 59, 79
4, 30912, Note_on_c, 2, 64, 79
4, 31100, Note_off_c, 2, 52, 0
4, 31100, Note_off_c, 2, 59, 0
4, 31100, Note_off_c, 2, 64, 0
4, 31104, Note_on_c, 2, 60, 79
4, 31104, Note_on_c, 2, 48, 79
4, 31292, Note_off_c, 2, 60, 0
4, 31292, Note_off_c, 2, 48, 0
4, 31296, Note_on_c, 2, 60, 79
4, 31296, Note_on_c, 2, 48, 79
4, 31484, Note_off_c, 2, 60, 0
4, 31484, Note_off_c, 2, 48, 0
4, 31488, Note_on_c, 2, 57, 79
4, 31488, Note_on_c, 2, 48, 79
4, 31676, Note_off_c, 2, 57, 0
4, 31676, Note_off_c, 2, 48, 0
4, 31680, Note_on_c, 2, 57, 79
4, 31680, Note_on_c, 2, 48, 79
4, 31868, Note_off_c, 2, 57, 0
4, 31868, Note_off_c, 2, 48, 0
4, 31872, Note_on_c, 2, 57, 79
4, 31872, Note_on_c, 2, 50, 79
4, 32060, Note_off_c, 2, 57, 0
4, 32060, Note_off_c, 2, 50, 0
4, 32064, Note_on_c, 2, 57, 79
4, 32064, Note_on_c, 2, 50, 79
4, 32252, Note_off_c, 2, 57, 0
4, 32252, Note_off_c, 2, 50, 0
4, 32256, Note_on_c, 2, 55, 79
4, 32256, Note_on_c, 2, 43, 79
4, 32636, Note_off_c, 2, 55, 0
4, 32636, Note_off_c, 2, 43, 0
4, 34176, Note_on_c, 2, 60, 58
4, 34176, Note_on_c, 2, 57, 58
4, 34176, Note_on_c, 2, 50, 58
4, 34556, Note_off_c, 2, 60, 0
4, 34556, Note_off_c, 2, 57, 0
4, 34556, Note_off_c, 2, 50, 0
4, 34560, Note_on_c, 2, 59, 58
4, 34560, Note_on_c, 2, 55, 58
4, 34940, Note_off_c, 2, 59, 0
4, 34940, Note_off_c, 2, 55, 0
4, 36480, Note_on_c, 2, 60, 58
4, 36480, Note_on_c, 2, 57, 58
4, 36480, Note_on_c, 2, 50, 58
4, 36860, Note_off_c, 2, 60, 0
4, 36860, Note_off_c, 2, 57, 0
4, 36860, Note_off_c, 2, 50, 0
4, 36864, Note_on_c, 2, 59, 58
4, 36864, Note_on_c, 2, 55, 58
4, 37244, Note_off_c, 2, 59, 0
4, 37244, Note_off_c, 2, 55, 0
4, 37632, Note_on_c, 2, 60, 58
4, 37632, Note_on_c, 2, 57, 58
4, 37632, Note_on_c, 2, 50, 58
4, 38012, Note_off_c, 2, 60, 0
4, 38012, Note_off_c, 2, 57, 0
4, 38012, Note_off_c, 2, 50, 0
4, 38016, Note_on_c, 2, 59, 58
4, 38016, Note_on_c, 2, 55, 58
4, 38396, Note_off_c, 2, 59, 0
4, 38396, Note_off_c, 2, 55, 0
4, 38784, Note_on_c, 2, 60, 58
4, 38784, Note_on_c, 2, 57, 58
4, 38784, Note_on_c, 2, 50, 58
4, 39164, Note_off_c, 2, 60, 0
4, 39164, Note_off_c, 2, 57, 0
4, 39164, Note_off_c, 2, 50, 0
4, 39168, Note_on_c, 2, 59, 58
4, 39168, Note_on_c, 2, 55, 58
4, 39168, Note_on_c, 2, 59, 58
4, 39356, Note_off_c, 2, 59, 0
4, 39360, Note_on_c, 2, 62, 58
4, 39548, Note_off_c, 2, 55, 0
4, 39548, Note_off_c, 2, 59, 0
4, 39548, Note_off_c, 2, 62, 0
4, 39552, Note_on_c, 2, 59, 58
4, 39552, Note_on_c, 2, 59, 58
4, 39740, Note_off_c, 2, 59, 0
4, 39740, Note_off_c, 2, 59, 0
4, 39744, Note_on_c, 2, 62, 58
4, 39932, Note_off_c, 2, 62, 0
4, 39936, Note_on_c, 2, 60, 58
4, 39936, Note_on_c, 2, 50, 58
4, 40124, Note_off_c, 2, 60, 0
4, 40124, Note_off_c, 2, 50, 0
4, 40128, Note_on_c, 2, 62, 58
4, 40316, Note_off_c, 2, 62, 0
4, 40320, Note_on_c, 2, 59, 58
4, 40320, Note_on_c, 2, 55, 58
4, 40508, Note_off_c, 2, 59, 0
4, 40508, Note_off_c, 2, 55, 0
4, 40704, Note_on_c, 2, 58, 58
4, 40748, Note_off_c, 2, 58, 0
4, 40752, Note_on_c, 2, 59, 58
4, 40896, Note_off_c, 2, 59, 0
4, 41088, Note_on_c, 2, 61, 58
4, 41132, Note_off_c, 2, 61, 0
4, 41136, Note_on_c, 2, 62, 58
4, 41280, Note_off_c, 2, 62, 0
4, 41472, Note_on_c, 2, 55, 79
4, 41472, Note_on_c, 2, 43, 79
4, 41660, Note_off_c, 2, 55, 0
4, 41660, Note_off_c, 2, 43, 0
4, 41664, Note_on_c, 2, 55, 58
4, 41852, Note_off_c, 2, 55, 0
4, 41856, Note_on_c, 2, 55, 58
4, 42044, Note_off_c, 2, 55, 0
4, 42048, Note_on_c, 2, 55, 58
4, 42236, Note_off_c, 2, 55, 0
4, 42240, Note_on_c, 2, 55, 58
4, 42428, Note_off_c, 2, 55, 0
4, 42432, Note_on_c, 2, 55, 58
4, 42620, Note_off_c, 2, 55, 0
4, 42624, Note_on_c, 2, 55, 58
4, 42812, Note_off_c, 2, 55, 0
4, 42816, Note_on_c, 2, 55, 58
4, 43004, Note_off_c, 2, 55, 0
4, 43008, Note_on_c, 2, 55, 58
4, 43196, Note_off_c, 2, 55, 0
4, 43200, Note_on_c, 2, 55, 58
4, 43388, Note_off_c, 2, 55, 0
4, 43392, Note_on_c, 2, 55, 58
4, 43580, Note_off_c, 2, 55, 0
4, 43584, Note_on_c, 2, 55, 58
4, 43772, Note_off_c, 2, 55, 0
4, 43776, Note_on_c, 2, 54, 79
4, 43776, Note_on_c, 2, 42, 79
4, 43964, Note_off_c, 2, 54, 0
4, 43964, Note_off_c, 2, 42, 0
4, 43968, Note_on_c, 2, 54, 58
4, 44128, Note_on_c, 2, 54, 58
4, 44156, Note_off_c, 2, 54, 0
4, 44316, Note_off_c, 2, 54, 0
4, 44352, Note_on_c, 2, 54, 58
4, 44540, Note_off_c, 2, 54, 0
4, 44544, Note_on_c, 2, 54, 58
4, 44732, Note_off_c, 2, 54, 0
4, 44736, Note_on_c, 2, 54, 58
4, 44924, Note_off_c, 2, 54, 0
4, 44928, Note_on_c, 2, 54, 58
4, 45116, Note_off_c, 2, 54, 0
4, 45120, Note_on_c, 2, 54, 58
4, 45308, Note_off_c, 2, 54, 0
4, 45312, Note_on_c, 2, 54, 58
4, 45500, Note_off_c, 2, 54, 0
4, 45504, Note_on_c, 2, 54, 58
4, 45692, Note_off_c, 2, 54, 0
4, 45696, Note_on_c, 2, 54, 58
4, 45884, Note_off_c, 2, 54, 0
4, 45888, Note_on_c, 2, 54, 58
4, 46076, Note_off_c, 2, 54, 0
4, 46080, Note_on_c, 2, 40, 79
4, 46080, Note_on_c, 2, 52, 79
4, 46268, Note_off_c, 2, 40, 0
4, 46268, Note_off_c, 2, 52, 0
4, 46272, Note_on_c, 2, 52, 58
4, 46460, Note_off_c, 2, 52, 0
4, 46464, Note_on_c, 2, 52, 58
4, 46652, Note_off_c, 2, 52, 0
4, 46656, Note_on_c, 2, 50, 58
4, 46844, Note_off_c, 2, 50, 0
4, 46848, Note_on_c, 2, 49, 58
4, 47036, Note_off_c, 2, 49, 0
4, 47040, Note_on_c, 2, 47, 58
4, 47228, Note_off_c, 2, 47, 0
4, 47232, Note_on_c, 2, 45, 58
4, 47420, Note_off_c, 2, 45, 0
4, 47424, Note_on_c, 2, 45, 58
4, 47612, Note_off_c, 2, 45, 0
4, 47616, Note_on_c, 2, 45, 58
4, 47804, Note_off_c, 2, 45, 0
4, 47808, Note_on_c, 2, 45, 58
4, 47996, Note_off_c, 2, 45, 0
4, 48000, Note_on_c, 2, 45, 58
4, 48188, Note_off_c, 2, 45, 0
4, 48192, Note_on_c, 2, 45, 58
4, 48380, Note_off_c, 2, 45, 0
4, 48384, Note_on_c, 2, 50, 58
4, 48572, Note_off_c, 2, 50, 0
4, 48576, Note_on_c, 2, 50, 58
4, 48764, Note_off_c, 2, 50, 0
4, 48768, Note_on_c, 2, 54, 58
4, 48944, Note_on_c, 2, 54, 58
4, 48956, Note_off_c, 2, 54, 0
4, 49132, Note_off_c, 2, 54, 0
4, 49152, Note_on_c, 2, 54, 58
4, 49340, Note_off_c, 2, 54, 0
4, 49344, Note_on_c, 2, 54, 58
4, 49532, Note_off_c, 2, 54, 0
4, 49536, Note_on_c, 2, 55, 58
4, 49724, Note_off_c, 2, 55, 0
4, 49920, Note_on_c, 2, 55, 58
4, 50108, Note_off_c, 2, 55, 0
4, 50304, Note_on_c, 2, 55, 58
4, 50492, Note_off_c, 2, 55, 0
4, 50688, Note_on_c, 2, 57, 58
4, 50876, Note_off_c, 2, 57, 0
4, 50880, Note_on_c, 2, 57, 58
4, 51068, Note_off_c, 2, 57, 0
4, 51072, Note_on_c, 2, 57, 58
4, 51260, Note_off_c, 2, 57, 0
4, 51264, Note_on_c, 2, 57, 58
4, 51452, Note_off_c, 2, 57, 0
4, 51456, Note_on_c, 2, 57, 58
4, 51644, Note_off_c, 2, 57, 0
4, 51648, Note_on_c, 2, 57, 58
4, 51836, Note_off_c, 2, 57, 0
4, 51840, Note_on_c, 2, 57, 58
4, 51840, Note_on_c, 2, 50, 58
4, 52220, Note_off_c, 2, 57, 0
4, 52220, Note_off_c, 2, 50, 0
4, 52608, Note_on_c, 2, 67, 58
4, 52732, Note_off_c, 2, 67, 0
4, 52736, Note_on_c, 2, 66, 58
4, 52860, Note_off_c, 2, 66, 0
4, 52864, Note_on_c, 2, 64, 58
4, 52988, Note_off_c, 2, 64, 0
4, 52992, Note_on_c, 2, 62, 58
4, 52992, Note_on_c, 2, 57, 58
4, 52992, Note_on_c, 2, 50, 58
4, 53116, Note_off_c, 2, 62, 0
4, 53116, Note_off_c, 2, 57, 0
4, 53116, Note_off_c, 2, 50, 0
4, 53120, Note_on_c, 2, 66, 58
4, 53244, Note_off_c, 2, 66, 0
4, 53248, Note_on_c, 2, 67, 58
4, 53372, Note_off_c, 2, 67, 0
4, 53376, Note_on_c, 2, 69, 58
4, 53500, Note_off_c, 2, 69, 0
4, 53504, Note_on_c, 2, 66, 58
4, 53628, Note_off_c, 2, 66, 0
4, 53632, Note_on_c, 2, 62, 58
4, 53756, Note_off_c, 2, 62, 0
4, 53760, Note_on_c, 2, 61, 58
4, 53760, Note_on_c, 2, 57, 58
4, 53884, Note_off_c, 2, 61, 0
4, 53884, Note_off_c, 2, 57, 0
4, 53888, Note_on_c, 2, 62, 58
4, 54012, Note_off_c, 2, 62, 0
4, 54016, Note_on_c, 2, 64, 58
4, 54140, Note_off_c, 2, 64, 0
4, 54144, Note_on_c, 2, 62, 58
4, 54268, Note_off_c, 2, 62, 0
4, 54272, Note_on_c, 2, 66, 58
4, 54396, Note_off_c, 2, 66, 0
4, 54400, Note_on_c, 2, 67, 58
4, 54524, Note_off_c, 2, 67, 0
4, 54528, Note_on_c, 2, 69, 58
4, 54652, Note_off_c, 2, 69, 0
4, 55296, Note_on_c, 2, 62, 58
4, 55484, Note_off_c, 2, 62, 0
4, 55680, Note_on_c, 2, 61, 58
4, 55868, Note_off_c, 2, 61, 0
4, 56832, Note_on_c, 2, 61, 58
4, 56832, Note_on_c, 2, 57, 58
4, 56956, Note_off_c, 2, 61, 0
4, 56956, Note_off_c, 2, 57, 0
4, 56960, Note_on_c, 2, 64, 58
4, 57084, Note_off_c, 2, 64, 0
4, 57088, Note_on_c, 2, 66, 58
4, 57200, Note_on_c, 2, 67, 58
4, 57212, Note_off_c, 2, 66, 0
4, 57324, Note_off_c, 2, 67, 0
4, 57600, Note_on_c, 2, 57, 58
4, 57788, Note_off_c, 2, 57, 0
4, 57984, Note_on_c, 2, 57, 58
4, 58172, Note_off_c, 2, 57, 0
4, 58368, Note_on_c, 2, 57, 58
4, 58556, Note_off_c, 2, 57, 0
4, 58752, Note_on_c, 2, 57, 58
4, 58940, Note_off_c, 2, 57, 0
4, 59136, Note_on_c, 2, 57, 58
4, 59324, Note_off_c, 2, 57, 0
4, 59904, Note_on_c, 2, 55, 58
4, 60092, Note_off_c, 2, 55, 0
4, 60288, Note_on_c, 2, 54, 58
4, 60476, Note_off_c, 2, 54, 0
4, 60672, Note_on_c, 2, 52, 58
4, 60860, Note_off_c, 2, 52, 0
4, 61056, Note_on_c, 2, 50, 58
4, 61436, Note_off_c, 2, 50, 0
4, 61440, Note_on_c, 2, 62, 58
4, 61820, Note_off_c, 2, 62, 0
4, 62208, Note_on_c, 2, 66, 58
4, 62588, Note_off_c, 2, 66, 0
4, 62592, Note_on_c, 2, 67, 58
4, 62972, Note_off_c, 2, 67, 0
4, 63360, Note_on_c, 2, 63, 58
4, 63740, Note_off_c, 2, 63, 0
4, 63744, Note_on_c, 2, 64, 58
4, 64124, Note_off_c, 2, 64, 0
4, 64512, Note_on_c, 2, 55, 58
4, 64892, Note_off_c, 2, 55, 0
4, 64896, Note_on_c, 2, 55, 58
4, 65276, Note_off_c, 2, 55, 0
4, 65280, Note_on_c, 2, 55, 58
4, 65660, Note_off_c, 2, 55, 0
4, 65664, Note_on_c, 2, 57, 58
4, 66428, Note_off_c, 2, 57, 0
4, 66432, Note_on_c, 2, 57, 79
4, 66812, Note_off_c, 2, 57, 0
4, 66816, Note_on_c, 2, 57, 79
4, 66816, Note_on_c, 2, 45, 79
4, 67004, Note_off_c, 2, 57, 0
4, 67004, Note_off_c, 2, 45, 0
4, 67008, Note_on_c, 2, 57, 79
4, 67008, Note_on_c, 2, 45, 79
4, 67196, Note_off_c, 2, 57, 0
4, 67196, Note_off_c, 2, 45, 0
4, 67200, Note_on_c, 2, 57, 79
4, 67200, Note_on_c, 2, 45, 79
4, 67388, Note_off_c, 2, 57, 0
4, 67388, Note_off_c, 2, 45, 0
4, 67392, Note_on_c, 2, 57, 79
4, 67392, Note_on_c, 2, 45, 79
4, 67580, Note_off_c, 2, 57, 0
4, 67580, Note_off_c, 2, 45, 0
4, 67584, Note_on_c, 2, 57, 79
4, 67584, Note_on_c, 2, 45, 79
4, 67772, Note_off_c, 2, 57, 0
4, 67772, Note_off_c, 2, 45, 0
4, 67776, Note_on_c, 2, 57, 79
4, 67776, Note_on_c, 2, 45, 79
4, 67964, Note_off_c, 2, 57, 0
4, 67964, Note_off_c, 2, 45, 0
4, 67968, Note_on_c, 2, 57, 79
4, 67968, Note_on_c, 2, 45, 79
4, 68348, Note_off_c, 2, 57, 0
4, 68348, Note_off_c, 2, 45, 0
4, 69120, Note_on_c, 2, 50, 58
4, 69308, Note_off_c, 2, 50, 0
4, 69504, Note_on_c, 2, 52, 58
4, 69692, Note_off_c, 2, 52, 0
4, 69888, Note_on_c, 2, 50, 58
4, 70076, Note_off_c, 2, 50, 0
4, 70272, Note_on_c, 2, 61, 58
4, 70272, Note_on_c, 2, 49, 58
4, 70652, Note_off_c, 2, 61, 0
4, 70652, Note_off_c, 2, 49, 0
4, 71424, Note_on_c, 2, 50, 58
4, 71612, Note_off_c, 2, 50, 0
4, 71808, Note_on_c, 2, 57, 58
4, 71808, Note_on_c, 2, 52, 58
4, 71996, Note_off_c, 2, 57, 0
4, 71996, Note_off_c, 2, 52, 0
4, 72192, Note_on_c, 2, 50, 58
4, 72380, Note_off_c, 2, 50, 0
4, 72576, Note_on_c, 2, 49, 58
4, 72956, Note_off_c, 2, 49, 0
4, 73152, Note_on_c, 2, 49, 58
4, 73340, Note_off_c, 2, 49, 0
4, 73344, Note_on_c, 2, 49, 58
4, 73532, Note_off_c, 2, 49, 0
4, 73536, Note_on_c, 2, 49, 58
4, 73724, Note_off_c, 2, 49, 0
4, 73728, Note_on_c, 2, 50, 58
4, 74108, Note_off_c, 2, 50, 0
4, 74304, Note_on_c, 2, 54, 58
4, 74492, Note_off_c, 2, 54, 0
4, 74496, Note_on_c, 2, 54, 58
4, 74684, Note_off_c, 2, 54, 0
4, 74688, Note_on_c, 2, 54, 58
4, 74876, Note_off_c, 2, 54, 0
4, 74880, Note_on_c, 2, 55, 58
4, 75452, Note_off_c, 2, 55, 0
4, 76032, Note_on_c, 2, 56, 58
4, 76032, Note_on_c, 2, 59, 58
4, 76032, Note_on_c, 2, 62, 58
4, 76412, Note_off_c, 2, 56, 0
4, 76412, Note_off_c, 2, 59, 0
4, 76412, Note_off_c, 2, 62, 0
4, 76416, Note_on_c, 2, 56, 58
4, 76416, Note_on_c, 2, 59, 58
4, 76416, Note_on_c, 2, 62, 58
4, 76796, Note_off_c, 2, 56, 0
4, 76796, Note_off_c, 2, 59, 0
4, 76796, Note_off_c, 2, 62, 0
4, 76800, Note_on_c, 2, 56, 58
4, 76800, Note_on_c, 2, 59, 58
4, 76800, Note_on_c, 2, 62, 58
4, 77180, Note_off_c, 2, 56, 0
4, 77180, Note_off_c, 2, 59, 0
4, 77180, Note_off_c, 2, 62, 0
4, 77184, Note_on_c, 2, 57, 58
4, 77948, Note_off_c, 2, 57, 0
4, 77952, Note_on_c, 2, 55, 58
4, 78332, Note_off_c, 2, 55, 0
4, 78336, Note_on_c, 2, 54, 58
4, 78716, Note_off_c, 2, 54, 0
4, 78720, Note_on_c, 2, 57, 58
4, 78720, Note_on_c, 2, 61, 58
4, 79100, Note_off_c, 2, 57, 0
4, 79100, Note_off_c, 2, 61, 0
4, 79104, Note_on_c, 2, 59, 58
4, 79104, Note_on_c, 2, 62, 58
4, 79484, Note_off_c, 2, 59, 0
4, 79484, Note_off_c, 2, 62, 0
4, 79584, Note_on_c, 2, 55, 58
4, 79872, Note_off_c, 2, 55, 0
4, 79872, Note_on_c, 2, 57, 58
4, 80252, Note_off_c, 2, 57, 0
4, 80256, Note_on_c, 2, 45, 58
4, 80636, Note_off_c, 2, 45, 0
4, 80640, Note_on_c, 2, 68, 58
4, 81020, Note_off_c, 2, 68, 0
4, 81024, Note_on_c, 2, 68, 58
4, 81404, Note_off_c, 2, 68, 0
4, 81408, Note_on_c, 2, 68, 58
4, 81788, Note_off_c, 2, 68, 0
4, 86016, Note_on_c, 2, 57, 58
4, 86016, Note_on_c, 2, 54, 58
4, 86396, Note_off_c, 2, 57, 0
4, 86396, Note_off_c, 2, 54, 0
4, 86400, Note_on_c, 2, 59, 58
4, 86400, Note_on_c, 2, 55, 58
4, 86780, Note_off_c, 2, 59, 0
4, 86780, Note_off_c, 2, 55, 0
4, 87168, Note_on_c, 2, 54, 58
4, 87168, Note_on_c, 2, 51, 58
4, 87548, Note_off_c, 2, 54, 0
4, 87548, Note_off_c, 2, 51, 0
4, 87552, Note_on_c, 2, 55, 58
4, 87552, Note_on_c, 2, 52, 58
4, 87932, Note_off_c, 2, 55, 0
4, 87932, Note_off_c, 2, 52, 0
4, 88320, Note_on_c, 2, 49, 58
4, 88700, Note_off_c, 2, 49, 0
4, 88704, Note_on_c, 2, 50, 58
4, 88892, Note_off_c, 2, 50, 0
4, 88896, Note_on_c, 2, 59, 58
4, 89084, Note_off_c, 2, 59, 0
4, 89088, Note_on_c, 2, 55, 58
4, 89276, Note_off_c, 2, 55, 0
4, 89280, Note_on_c, 2, 55, 58
4, 89468, Note_off_c, 2, 55, 0
4, 89472, Note_on_c, 2, 57, 58
4, 89660, Note_off_c, 2, 57, 0
4, 89664, Note_on_c, 2, 57, 58
4, 89852, Note_off_c, 2, 57, 0
4, 89856, Note_on_c, 2, 50, 58
4, 90236, Note_off_c, 2, 50, 0
4, 90624, Note_on_c, 2, 62, 58
4, 90624, Note_on_c, 2, 54, 58
4, 90812, Note_off_c, 2, 62, 0
4, 90812, Note_off_c, 2, 54, 0
4, 90816, Note_on_c, 2, 62, 58
4, 90816, Note_on_c, 2, 54, 58
4, 91004, Note_off_c, 2, 62, 0
4, 91004, Note_off_c, 2, 54, 0
4, 91008, Note_on_c, 2, 62, 58
4, 91008, Note_on_c, 2, 55, 58
4, 91388, Note_off_c, 2, 62, 0
4, 91388, Note_off_c, 2, 55, 0
4, 91776, Note_on_c, 2, 59, 58
4, 91776, Note_on_c, 2, 51, 58
4, 91964, Note_off_c, 2, 59, 0
4, 91964, Note_off_c, 2, 51, 0
4, 91968, Note_on_c, 2, 59, 58
4, 91968, Note_on_c, 2, 51, 58
4, 92156, Note_off_c, 2, 59, 0
4, 92156, Note_off_c, 2, 51, 0
4, 92160, Note_on_c, 2, 59, 58
4, 92160, Note_on_c, 2, 52, 58
4, 92540, Note_off_c, 2, 59, 0
4, 92540, Note_off_c, 2, 52, 0
4, 92928, Note_on_c, 2, 49, 58
4, 93116, Note_off_c, 2, 49, 0
4, 93120, Note_on_c, 2, 49, 58
4, 93308, Note_off_c, 2, 49, 0
4, 93312, Note_on_c, 2, 50, 58
4, 93500, Note_off_c, 2, 50, 0
4, 93504, Note_on_c, 2, 59, 58
4, 93692, Note_off_c, 2, 59, 0
4, 93696, Note_on_c, 2, 55, 58
4, 93884, Note_off_c, 2, 55, 0
4, 93888, Note_on_c, 2, 55, 58
4, 94076, Note_off_c, 2, 55, 0
4, 94080, Note_on_c, 2, 57, 58
4, 94268, Note_off_c, 2, 57, 0
4, 94272, Note_on_c, 2, 57, 58
4, 94460, Note_off_c, 2, 57, 0
4, 94464, Note_on_c, 2, 50, 79
4, 94656, Note_on_c, 2, 54, 79
4, 94844, Note_off_c, 2, 50, 0
4, 94844, Note_off_c, 2, 54, 0
4, 94848, Note_on_c, 2, 55, 79
4, 94848, Note_on_c, 2, 50, 79
4, 95036, Note_off_c, 2, 55, 0
4, 95040, Note_on_c, 2, 57, 79
4, 95228, Note_off_c, 2, 50, 0
4, 95228, Note_off_c, 2, 57, 0
4, 95232, Note_on_c, 2, 59, 79
4, 95232, Note_on_c, 2, 50, 79
4, 95420, Note_off_c, 2, 59, 0
4, 95424, Note_on_c, 2, 60, 79
4, 95612, Note_off_c, 2, 50, 0
4, 95612, Note_off_c, 2, 60, 0
4, 95616, Note_on_c, 2, 59, 79
4, 95616, Note_on_c, 2, 50, 79
4, 95804, Note_off_c, 2, 59, 0
4, 95808, Note_on_c, 2, 57, 79
4, 95996, Note_off_c, 2, 50, 0
4, 95996, Note_off_c, 2, 57, 0
4, 96000, Note_on_c, 2, 50, 79
4, 96000, Note_on_c, 2, 55, 79
4, 96380, Note_off_c, 2, 50, 0
4, 96380, Note_off_c, 2, 55, 0
4, 96384, Note_on_c, 2, 54, 79
4, 96384, Note_on_c, 2, 50, 79
4, 96572, Note_off_c, 2, 54, 0
4, 96576, Note_on_c, 2, 52, 79
4, 96764, Note_off_c, 2, 50, 0
4, 96764, Note_off_c, 2, 52, 0
4, 96768, Note_on_c, 2, 50, 79
4, 96768, Note_on_c, 2, 38, 79
4, 97916, Note_off_c, 2, 50, 0
4, 97916, Note_off_c, 2, 38, 0
4, 97920, Note_on_c, 2, 57, 58
4, 97920, Note_on_c, 2, 50, 58
4, 98108, Note_off_c, 2, 57, 0
4, 98112, Note_on_c, 2, 59, 58
4, 98300, Note_off_c, 2, 59, 0
4, 98684, Note_off_c, 2, 50, 0
4, 98688, Note_on_c, 2, 50, 58
4, 99068, Note_off_c, 2, 50, 0
4, 99072, Note_on_c, 2, 55, 58
4, 99072, Note_on_c, 2, 43, 58
4, 99452, Note_off_c, 2, 55, 0
4, 99452, Note_off_c, 2, 43, 0
4, 99456, Note_on_c, 2, 62, 58
4, 99836, Note_off_c, 2, 62, 0
4, 99840, Note_on_c, 2, 59, 58
4, 100220, Note_off_c, 2, 59, 0
4, 100224, Note_on_c, 2, 55, 58
4, 100604, Note_off_c, 2, 55, 0
4, 100992, Note_on_c, 2, 55, 58
4, 101372, Note_off_c, 2, 55, 0
4, 101376, Note_on_c, 2, 62, 58
4, 101756, Note_off_c, 2, 62, 0
4, 102144, Note_on_c, 2, 62, 58
4, 102524, Note_off_c, 2, 62, 0
4, 102528, Note_on_c, 2, 59, 58
4, 102908, Note_off_c, 2, 59, 0
4, 102912, Note_on_c, 2, 55, 58
4, 103292, Note_off_c, 2, 55, 0
4, 103296, Note_on_c, 2, 62, 58
4, 103676, Note_off_c, 2, 62, 0
4, 103680, Note_on_c, 2, 64, 58
4, 104060, Note_off_c, 2, 64, 0
4, 104064, Note_on_c, 2, 62, 58
4, 104444, Note_off_c, 2, 62, 0
4, 104448, Note_on_c, 2, 60, 58
4, 104828, Note_off_c, 2, 60, 0
4, 104832, Note_on_c, 2, 59, 58
4, 105212, Note_off_c, 2, 59, 0
4, 105600, Note_on_c, 2, 59, 58
4, 105980, Note_off_c, 2, 59, 0
4, 105984, Note_on_c, 2, 60, 58
4, 106364, Note_off_c, 2, 60, 0
4, 106752, Note_on_c, 2, 60, 58
4, 107132, Note_off_c, 2, 60, 0
4, 107136, Note_on_c, 2, 62, 58
4, 107516, Note_off_c, 2, 62, 0
4, 107520, Note_on_c, 2, 62, 58
4, 107900, Note_off_c, 2, 62, 0
4, 107904, Note_on_c, 2, 62, 58
4, 108284, Note_off_c, 2, 62, 0
4, 108288, Note_on_c, 2, 55, 79
4, 108288, Note_on_c, 2, 43, 79
4, 108668, Note_off_c, 2, 55, 0
4, 108668, Note_off_c, 2, 43, 0
4, 108672, Note_on_c, 2, 50, 79
4, 108672, Note_on_c, 2, 38, 79
4, 109052, Note_off_c, 2, 50, 0
4, 109052, Note_off_c, 2, 38, 0
4, 109056, Note_on_c, 2, 47, 79
4, 109056, Note_on_c, 2, 35, 79
4, 109436, Note_off_c, 2, 47, 0
4, 109436, Note_off_c, 2, 35, 0
4, 109440, Note_on_c, 2, 43, 79
4, 109440, Note_on_c, 2, 31, 79
4, 109820, Note_off_c, 2, 43, 0
4, 109820, Note_off_c, 2, 31, 0
4, 110208, Note_on_c, 2, 62, 79
4, 110208, Note_on_c, 2, 55, 79
4, 110588, Note_off_c, 2, 62, 0
4, 110588, Note_off_c, 2, 55, 0
4, 110592, Note_on_c, 2, 62, 79
4, 110592, Note_on_c, 2, 50, 79
4, 110972, Note_off_c, 2, 62, 0
4, 110972, Note_off_c, 2, 50, 0
4, 110976, Note_on_c, 2, 57, 79
4, 111356, Note_off_c, 2, 57, 0
4, 111360, Note_on_c, 2, 62, 79
4, 111740, Note_off_c, 2, 62, 0
4, 111744, Note_on_c, 2, 59, 79
4, 112124, Note_off_c, 2, 59, 0
4, 112128, Note_on_c, 2, 55, 79
4, 112508, Note_off_c, 2, 55, 0
4, 112512, Note_on_c, 2, 62, 79
4, 112892, Note_off_c, 2, 62, 0
4, 112896, Note_on_c, 2, 64, 79
4, 112896, Note_on_c, 2, 67, 79
4, 113276, Note_off_c, 2, 64, 0
4, 113276, Note_off_c, 2, 67, 0
4, 113280, Note_on_c, 2, 66, 79
4, 113280, Note_on_c, 2, 62, 79
4, 113660, Note_off_c, 2, 66, 0
4, 113660, Note_off_c, 2, 62, 0
4, 113664, Note_on_c, 2, 64, 79
4, 113664, Note_on_c, 2, 61, 79
4, 114044, Note_off_c, 2, 64, 0
4, 114044, Note_off_c, 2, 61, 0
4, 114048, Note_on_c, 2, 64, 79
4, 114048, Note_on_c, 2, 60, 79
4, 114428, Note_off_c, 2, 64, 0
4, 114428, Note_off_c, 2, 60, 0
4, 114816, Note_on_c, 2, 62, 79
4, 114816, Note_on_c, 2, 60, 79
4, 115196, Note_off_c, 2, 62, 0
4, 115196, Note_off_c, 2, 60, 0
4, 115200, Note_on_c, 2, 59, 79
4, 115200, Note_on_c, 2, 62, 79
4, 115580, Note_off_c, 2, 59, 0
4, 115580, Note_off_c, 2, 62, 0
4, 115584, Note_on_c, 2, 67, 79
4, 115584, Note_on_c, 2, 64, 79
4, 115584, Note_on_c, 2, 60, 79
4, 115964, Note_off_c, 2, 67, 0
4, 115964, Note_off_c, 2, 64, 0
4, 115964, Note_off_c, 2, 60, 0
4, 115968, Note_on_c, 2, 66, 79
4, 115968, Note_on_c, 2, 62, 79
4, 116348, Note_off_c, 2, 66, 0
4, 116348, Note_off_c, 2, 62, 0
4, 116352, Note_on_c, 2, 62, 79
4, 116352, Note_on_c, 2, 59, 79
4, 116352, Note_on_c, 2, 55, 79
4, 116732, Note_off_c, 2, 62, 0
4, 116732, Note_off_c, 2, 59, 0
4, 116732, Note_off_c, 2, 55, 0
4, 116736, Note_on_c, 2, 62, 58
4, 116736, Note_on_c, 2, 59, 58
4, 116736, Note_on_c, 2, 55, 58
4, 116924, Note_off_c, 2, 62, 0
4, 116924, Note_off_c, 2, 59, 0
4, 116924, Note_off_c, 2, 55, 0
4, 117120, Note_on_c, 2, 62, 58
4, 117120, Note_on_c, 2, 59, 58
4, 117120, Note_on_c, 2, 67, 58
4, 117308, Note_off_c, 2, 62, 0
4, 117308, Note_off_c, 2, 59, 0
4, 117308, Note_off_c, 2, 67, 0
4, 117504, Note_on_c, 2, 64, 58
4, 117504, Note_on_c, 2, 60, 58
4, 117504, Note_on_c, 2, 57, 58
4, 117692, Note_off_c, 2, 64, 0
4, 117692, Note_off_c, 2, 60, 0
4, 117692, Note_off_c, 2, 57, 0
4, 117888, Note_on_c, 2, 57, 58
4, 117888, Note_on_c, 2, 45, 58
4, 118076, Note_off_c, 2, 57, 0
4, 118076, Note_off_c, 2, 45, 0
4, 118272, Note_on_c, 2, 57, 58
4, 118272, Note_on_c, 2, 52, 58
4, 118272, Note_on_c, 2, 48, 58
4, 118460, Note_off_c, 2, 57, 0
4, 118460, Note_off_c, 2, 52, 0
4, 118460, Note_off_c, 2, 48, 0
4, 118656, Note_on_c, 2, 62, 58
4, 118656, Note_on_c, 2, 57, 58
4, 118656, Note_on_c, 2, 50, 58
4, 119036, Note_off_c, 2, 62, 0
4, 119036, Note_off_c, 2, 57, 0
4, 119036, Note_off_c, 2, 50, 0
4, 119040, Note_on_c, 2, 57, 58
4, 119040, Note_on_c, 2, 54, 58
4, 119228, Note_off_c, 2, 57, 0
4, 119228, Note_off_c, 2, 54, 0
4, 119424, Note_on_c, 2, 57, 58
4, 119424, Note_on_c, 2, 50, 58
4, 119612, Note_off_c, 2, 57, 0
4, 119612, Note_off_c, 2, 50, 0
4, 119808, Note_on_c, 2, 55, 58
4, 119808, Note_on_c, 2, 43, 58
4, 119996, Note_off_c, 2, 55, 0
4, 119996, Note_off_c, 2, 43, 0
4, 120192, Note_on_c, 2, 59, 58
4, 120192, Note_on_c, 2, 55, 58
4, 120192, Note_on_c, 2, 64, 58
4, 120380, Note_off_c, 2, 59, 0
4, 120380, Note_off_c, 2, 55, 0
4, 120380, Note_off_c, 2, 64, 0
4, 120576, Note_on_c, 2, 59, 79
4, 120576, Note_on_c, 2, 55, 79
4, 120576, Note_on_c, 2, 52, 79
4, 120764, Note_off_c, 2, 59, 0
4, 120764, Note_off_c, 2, 55, 0
4, 120764, Note_off_c, 2, 52, 0
4, 120960, Note_on_c, 2, 66, 79
4, 120960, Note_on_c, 2, 60, 79
4, 120960, Note_on_c, 2, 57, 79
4, 121148, Note_off_c, 2, 66, 0
4, 121148, Note_off_c, 2, 60, 0
4, 121148, Note_off_c, 2, 57, 0
4, 121344, Note_on_c, 2, 60, 79
4, 121344, Note_on_c, 2, 64, 79
4, 121344, Note_on_c, 2, 66, 79
4, 121532, Note_off_c, 2, 60, 0
4, 121532, Note_off_c, 2, 64, 0
4, 121532, Note_off_c, 2, 66, 0
4, 121728, Note_on_c, 2, 57, 79
4, 121728, Note_on_c, 2, 60, 79
4, 121728, Note_on_c, 2, 66, 79
4, 121916, Note_off_c, 2, 57, 0
4, 121916, Note_off_c, 2, 60, 0
4, 121916, Note_off_c, 2, 66, 0
4, 122112, Note_on_c, 2, 69, 79
4, 122112, Note_on_c, 2, 66, 79
4, 122112, Note_on_c, 2, 59, 79
4, 122300, Note_off_c, 2, 69, 0
4, 122300, Note_off_c, 2, 66, 0
4, 122300, Note_off_c, 2, 59, 0
4, 122496, Note_on_c, 2, 59, 79
4, 122496, Note_on_c, 2, 57, 79
4, 122496, Note_on_c, 2, 54, 79
4, 122684, Note_off_c, 2, 59, 0
4, 122684, Note_off_c, 2, 57, 0
4, 122684, Note_off_c, 2, 54, 0
4, 122880, Note_on_c, 2, 57, 79
4, 122880, Note_on_c, 2, 51, 79
4, 122880, Note_on_c, 2, 47, 79
4, 123068, Note_off_c, 2, 57, 0
4, 123068, Note_off_c, 2, 51, 0
4, 123068, Note_off_c, 2, 47, 0
4, 123264, Note_on_c, 2, 55, 58
4, 123264, Note_on_c, 2, 52, 58
4, 123644, Note_off_c, 2, 55, 0
4, 123644, Note_off_c, 2, 52, 0
4, 124608, Note_on_c, 2, 40, 58
4, 124796, Note_off_c, 2, 40, 0
4, 124800, Note_on_c, 2, 43, 58
4, 124988, Note_off_c, 2, 43, 0
4, 124992, Note_on_c, 2, 47, 58
4, 125180, Note_off_c, 2, 47, 0
4, 125184, Note_on_c, 2, 43, 58
4, 125372, Note_off_c, 2, 43, 0
4, 125376, Note_on_c, 2, 40, 58
4, 125564, Note_off_c, 2, 40, 0
4, 125568, Note_on_c, 2, 35, 58
4, 125948, Note_off_c, 2, 35, 0
4, 126912, Note_on_c, 2, 35, 58
4, 127100, Note_off_c, 2, 35, 0
4, 127104, Note_on_c, 2, 39, 58
4, 127292, Note_off_c, 2, 39, 0
4, 127296, Note_on_c, 2, 42, 58
4, 127484, Note_off_c, 2, 42, 0
4, 127488, Note_on_c, 2, 47, 58
4, 127676, Note_off_c, 2, 47, 0
4, 127680, Note_on_c, 2, 45, 58
4, 127868, Note_off_c, 2, 45, 0
4, 127872, Note_on_c, 2, 43, 58
4, 128252, Note_off_c, 2, 43, 0
4, 128448, Note_on_c, 2, 40, 58
4, 128636, Note_off_c, 2, 40, 0
4, 128640, Note_on_c, 2, 43, 58
4, 128828, Note_off_c, 2, 43, 0
4, 128832, Note_on_c, 2, 40, 58
4, 129020, Note_off_c, 2, 40, 0
4, 129024, Note_on_c, 2, 45, 58
4, 129404, Note_off_c, 2, 45, 0
4, 129600, Note_on_c, 2, 57, 58
4, 129788, Note_off_c, 2, 57, 0
4, 129792, Note_on_c, 2, 45, 58
4, 129980, Note_off_c, 2, 45, 0
4, 129984, Note_on_c, 2, 57, 58
4, 130172, Note_off_c, 2, 57, 0
4, 130176, Note_on_c, 2, 59, 58
4, 130176, Note_on_c, 2, 55, 58
4, 130556, Note_off_c, 2, 59, 0
4, 130556, Note_off_c, 2, 55, 0
4, 130560, Note_on_c, 2, 52, 58
4, 130560, Note_on_c, 2, 48, 58
4, 130940, Note_off_c, 2, 52, 0
4, 130944, Note_on_c, 2, 55, 58
4, 131324, Note_off_c, 2, 48, 0
4, 131324, Note_off_c, 2, 55, 0
4, 131328, Note_on_c, 2, 59, 58
4, 131328, Note_on_c, 2, 47, 58
4, 132092, Note_off_c, 2, 59, 0
4, 132092, Note_off_c, 2, 47, 0
4, 132480, Note_on_c, 2, 52, 58
4, 132480, Note_on_c, 2, 52, 58
4, 132668, Note_off_c, 2, 52, 0
4, 132672, Note_on_c, 2, 55, 58
4, 132860, Note_off_c, 2, 52, 0
4, 132860, Note_off_c, 2, 55, 0
4, 132864, Note_on_c, 2, 52, 58
4, 132864, Note_on_c, 2, 52, 58
4, 133052, Note_off_c, 2, 52, 0
4, 133056, Note_on_c, 2, 55, 58
4, 133244, Note_off_c, 2, 52, 0
4, 133244, Note_off_c, 2, 55, 0
4, 133248, Note_on_c, 2, 52, 58
4, 133248, Note_on_c, 2, 59, 58
4, 133436, Note_off_c, 2, 59, 0
4, 133440, Note_on_c, 2, 57, 58
4, 133628, Note_off_c, 2, 52, 0
4, 133628, Note_off_c, 2, 57, 0
4, 133632, Note_on_c, 2, 55, 58
4, 133632, Note_on_c, 2, 52, 58
4, 133820, Note_off_c, 2, 55, 0
4, 133824, Note_on_c, 2, 59, 58
4, 134012, Note_off_c, 2, 52, 0
4, 134012, Note_off_c, 2, 59, 0
4, 134016, Note_on_c, 2, 55, 58
4, 134204, Note_off_c, 2, 55, 0
4, 134208, Note_on_c, 2, 59, 58
4, 134396, Note_off_c, 2, 59, 0
4, 134400, Note_on_c, 2, 52, 58
4, 134588, Note_off_c, 2, 52, 0
4, 134592, Note_on_c, 2, 55, 58
4, 134780, Note_off_c, 2, 55, 0
4, 134784, Note_on_c, 2, 47, 58
4, 134784, Note_on_c, 2, 47, 58
4, 134784, Note_on_c, 2, 47, 58
4, 134972, Note_off_c, 2, 47, 0
4, 134976, Note_on_c, 2, 54, 58
4, 135164, Note_off_c, 2, 47, 0
4, 135164, Note_off_c, 2, 47, 0
4, 135164, Note_off_c, 2, 54, 0
4, 135168, Note_on_c, 2, 47, 58
4, 135168, Note_on_c, 2, 47, 58
4, 135168, Note_on_c, 2, 47, 58
4, 135356, Note_off_c, 2, 47, 0
4, 135360, Note_on_c, 2, 54, 58
4, 135548, Note_off_c, 2, 47, 0
4, 135548, Note_off_c, 2, 47, 0
4, 135548, Note_off_c, 2, 54, 0
4, 135552, Note_on_c, 2, 47, 58
4, 135552, Note_on_c, 2, 51, 58
4, 135740, Note_off_c, 2, 51, 0
4, 135744, Note_on_c, 2, 52, 58
4, 135932, Note_off_c, 2, 47, 0
4, 135932, Note_off_c, 2, 52, 0
4, 135936, Note_on_c, 2, 47, 58
4, 136128, Note_on_c, 2, 59, 58
4, 136316, Note_off_c, 2, 59, 0
4, 136320, Note_on_c, 2, 54, 58
4, 136508, Note_off_c, 2, 54, 0
4, 136512, Note_on_c, 2, 59, 58
4, 136700, Note_off_c, 2, 47, 0
4, 136700, Note_off_c, 2, 59, 0
4, 136704, Note_on_c, 2, 45, 58
4, 136704, Note_on_c, 2, 50, 58
4, 136892, Note_off_c, 2, 50, 0
4, 136896, Note_on_c, 2, 54, 58
4, 137084, Note_off_c, 2, 45, 0
4, 137084, Note_off_c, 2, 54, 0
4, 137088, Note_on_c, 2, 55, 58
4, 137088, Note_on_c, 2, 43, 58
4, 137276, Note_off_c, 2, 55, 0
4, 137280, Note_on_c, 2, 55, 58
4, 137468, Note_off_c, 2, 43, 0
4, 137468, Note_off_c, 2, 55, 0
4, 137472, Note_on_c, 2, 55, 58
4, 137660, Note_off_c, 2, 55, 0
4, 137664, Note_on_c, 2, 55, 58
4, 137852, Note_off_c, 2, 55, 0
4, 137856, Note_on_c, 2, 55, 58
4, 138044, Note_off_c, 2, 55, 0
4, 138048, Note_on_c, 2, 55, 58
4, 138236, Note_off_c, 2, 55, 0
4, 138240, Note_on_c, 2, 57, 58
4, 138240, Note_on_c, 2, 45, 58
4, 138428, Note_off_c, 2, 57, 0
4, 138432, Note_on_c, 2, 57, 58
4, 138620, Note_off_c, 2, 45, 0
4, 138620, Note_off_c, 2, 57, 0
4, 138624, Note_on_c, 2, 57, 58
4, 138812, Note_off_c, 2, 57, 0
4, 138816, Note_on_c, 2, 57, 58
4, 139004, Note_off_c, 2, 57, 0
4, 139008, Note_on_c, 2, 57, 58
4, 139196, Note_off_c, 2, 57, 0
4, 139200, Note_on_c, 2, 57, 58
4, 139388, Note_off_c, 2, 57, 0
4, 139392, Note_on_c, 2, 55, 58
4, 139580, Note_off_c, 2, 55, 0
4, 139776, Note_on_c, 2, 57, 58
4, 139964, Note_off_c, 2, 57, 0
4, 140160, Note_on_c, 2, 59, 58
4, 140348, Note_off_c, 2, 59, 0
4, 140544, Note_on_c, 2, 52, 58
4, 140732, Note_off_c, 2, 52, 0
4, 140928, Note_on_c, 2, 52, 79
4, 140928, Note_on_c, 2, 40, 79
4, 141308, Note_off_c, 2, 52, 0
4, 141308, Note_off_c, 2, 40, 0
4, 141312, Note_on_c, 2, 50, 79
4, 141312, Note_on_c, 2, 38, 79
4, 141692, Note_off_c, 2, 50, 0
4, 141692, Note_off_c, 2, 38, 0
4, 141696, Note_on_c, 2, 48, 79
4, 141696, Note_on_c, 2, 36, 79
4, 141884, Note_off_c, 2, 48, 0
4, 141884, Note_off_c, 2, 36, 0
4, 141888, Note_on_c, 2, 60, 58
4, 142064, Note_on_c, 2, 60, 58
4, 142076, Note_off_c, 2, 60, 0
4, 142252, Note_off_c, 2, 60, 0
4, 142272, Note_on_c, 2, 60, 58
4, 142460, Note_off_c, 2, 60, 0
4, 142464, Note_on_c, 2, 60, 58
4, 142652, Note_off_c, 2, 60, 0
4, 142656, Note_on_c, 2, 60, 58
4, 142844, Note_off_c, 2, 60, 0
4, 142848, Note_on_c, 2, 62, 58
4, 143036, Note_off_c, 2, 62, 0
4, 143040, Note_on_c, 2, 62, 58
4, 143228, Note_off_c, 2, 62, 0
4, 143232, Note_on_c, 2, 62, 58
4, 143420, Note_off_c, 2, 62, 0
4, 143424, Note_on_c, 2, 62, 58
4, 143612, Note_off_c, 2, 62, 0
4, 143616, Note_on_c, 2, 62, 58
4, 143804, Note_off_c, 2, 62, 0
4, 143808, Note_on_c, 2, 62, 58
4, 143996, Note_off_c, 2, 62, 0
4, 144000, Note_on_c, 2, 55, 58
4, 144188, Note_off_c, 2, 55, 0
4, 144192, Note_on_c, 2, 55, 58
4, 144380, Note_off_c, 2, 55, 0
4, 144384, Note_on_c, 2, 55, 58
4, 144572, Note_off_c, 2, 55, 0
4, 144576, Note_on_c, 2, 55, 58
4, 144764, Note_off_c, 2, 55, 0
4, 144768, Note_on_c, 2, 55, 58
4, 144956, Note_off_c, 2, 55, 0
4, 144960, Note_on_c, 2, 55, 58
4, 145148, Note_off_c, 2, 55, 0
4, 145152, Note_on_c, 2, 56, 79
4, 145340, Note_off_c, 2, 56, 0
4, 145344, Note_on_c, 2, 56, 58
4, 145532, Note_off_c, 2, 56, 0
4, 145536, Note_on_c, 2, 56, 58
4, 145724, Note_off_c, 2, 56, 0
4, 145728, Note_on_c, 2, 56, 58
4, 145916, Note_off_c, 2, 56, 0
4, 145920, Note_on_c, 2, 56, 58
4, 146108, Note_off_c, 2, 56, 0
4, 146112, Note_on_c, 2, 56, 58
4, 146300, Note_off_c, 2, 56, 0
4, 147840, Note_on_c, 2, 59, 79
4, 147840, Note_on_c, 2, 62, 79
4, 148220, Note_off_c, 2, 59, 0
4, 148220, Note_off_c, 2, 62, 0
4, 148224, Note_on_c, 2, 60, 58
4, 148224, Note_on_c, 2, 64, 58
4, 148604, Note_off_c, 2, 60, 0
4, 148604, Note_off_c, 2, 64, 0
4, 148608, Note_on_c, 2, 53, 58
4, 148796, Note_off_c, 2, 53, 0
4, 148992, Note_on_c, 2, 55, 58
4, 149180, Note_off_c, 2, 55, 0
4, 149376, Note_on_c, 2, 43, 58
4, 149564, Note_off_c, 2, 43, 0
4, 149760, Note_on_c, 2, 48, 58
4, 149948, Note_off_c, 2, 48, 0
4, 149952, Note_on_c, 2, 60, 79
4, 150140, Note_off_c, 2, 60, 0
4, 150144, Note_on_c, 2, 64, 79
4, 150332, Note_off_c, 2, 64, 0
4, 150336, Note_on_c, 2, 52, 79
4, 150524, Note_off_c, 2, 52, 0
4, 150528, Note_on_c, 2, 55, 79
4, 150716, Note_off_c, 2, 55, 0
4, 150720, Note_on_c, 2, 47, 79
4, 150908, Note_off_c, 2, 47, 0
4, 150912, Note_on_c, 2, 48, 79
4, 151100, Note_off_c, 2, 48, 0
4, 151104, Note_on_c, 2, 48, 58
4, 151292, Note_off_c, 2, 48, 0
4, 151296, Note_on_c, 2, 48, 58
4, 151484, Note_off_c, 2, 48, 0
4, 151488, Note_on_c, 2, 48, 58
4, 151676, Note_off_c, 2, 48, 0
4, 151680, Note_on_c, 2, 48, 58
4, 151868, Note_off_c, 2, 48, 0
4, 151872, Note_on_c, 2, 48, 58
4, 152060, Note_off_c, 2, 48, 0
4, 152064, Note_on_c, 2, 50, 58
4, 152252, Note_off_c, 2, 50, 0
4, 152256, Note_on_c, 2, 50, 58
4, 152444, Note_off_c, 2, 50, 0
4, 152448, Note_on_c, 2, 50, 58
4, 152636, Note_off_c, 2, 50, 0
4, 152640, Note_on_c, 2, 50, 58
4, 152828, Note_off_c, 2, 50, 0
4, 152832, Note_on_c, 2, 50, 58
4, 153020, Note_off_c, 2, 50, 0
4, 153024, Note_on_c, 2, 50, 58
4, 153212, Note_off_c, 2, 50, 0
4, 153216, Note_on_c, 2, 55, 58
4, 153404, Note_off_c, 2, 55, 0
4, 153408, Note_on_c, 2, 55, 58
4, 153596, Note_off_c, 2, 55, 0
4, 153600, Note_on_c, 2, 55, 58
4, 153788, Note_off_c, 2, 55, 0
4, 153792, Note_on_c, 2, 55, 58
4, 153980, Note_off_c, 2, 55, 0
4, 153984, Note_on_c, 2, 55, 58
4, 154172, Note_off_c, 2, 55, 0
4, 154176, Note_on_c, 2, 55, 58
4, 154364, Note_off_c, 2, 55, 0
4, 154368, Note_on_c, 2, 56, 79
4, 154368, Note_on_c, 2, 44, 79
4, 154556, Note_off_c, 2, 56, 0
4, 154556, Note_off_c, 2, 44, 0
4, 154560, Note_on_c, 2, 56, 58
4, 154560, Note_on_c, 2, 44, 58
4, 154748, Note_off_c, 2, 56, 0
4, 154748, Note_off_c, 2, 44, 0
4, 154752, Note_on_c, 2, 56, 58
4, 154752, Note_on_c, 2, 44, 58
4, 154940, Note_off_c, 2, 56, 0
4, 154940, Note_off_c, 2, 44, 0
4, 154944, Note_on_c, 2, 56, 58
4, 154944, Note_on_c, 2, 44, 58
4, 155132, Note_off_c, 2, 56, 0
4, 155132, Note_off_c, 2, 44, 0
4, 155136, Note_on_c, 2, 56, 58
4, 155136, Note_on_c, 2, 44, 58
4, 155516, Note_off_c, 2, 56, 0
4, 155516, Note_off_c, 2, 44, 0
4, 155520, Note_on_c, 2, 57, 79
4, 155900, Note_off_c, 2, 57, 0
4, 155904, Note_on_c, 2, 56, 58
4, 156284, Note_off_c, 2, 56, 0
4, 156288, Note_on_c, 2, 57, 58
4, 156668, Note_off_c, 2, 57, 0
4, 156672, Note_on_c, 2, 65, 79
4, 157052, Note_off_c, 2, 65, 0
4, 157056, Note_on_c, 2, 64, 58
4, 157436, Note_off_c, 2, 64, 0
4, 157440, Note_on_c, 2, 65, 58
4, 157820, Note_off_c, 2, 65, 0
4, 157824, Note_on_c, 2, 53, 58
4, 158012, Note_off_c, 2, 53, 0
4, 158208, Note_on_c, 2, 60, 58
4, 158208, Note_on_c, 2, 55, 58
4, 158396, Note_off_c, 2, 60, 0
4, 158396, Note_off_c, 2, 55, 0
4, 158592, Note_on_c, 2, 55, 58
4, 158592, Note_on_c, 2, 43, 58
4, 158780, Note_off_c, 2, 55, 0
4, 158780, Note_off_c, 2, 43, 0
4, 158976, Note_on_c, 2, 55, 58
4, 158976, Note_on_c, 2, 48, 58
4, 159164, Note_off_c, 2, 55, 0
4, 159164, Note_off_c, 2, 48, 0
4, 159168, Note_on_c, 2, 67, 58
4, 159356, Note_off_c, 2, 67, 0
4, 159360, Note_on_c, 2, 64, 58
4, 159548, Note_off_c, 2, 64, 0
4, 159552, Note_on_c, 2, 67, 58
4, 159740, Note_off_c, 2, 67, 0
4, 159744, Note_on_c, 2, 64, 58
4, 159744, Note_on_c, 2, 60, 58
4, 159932, Note_off_c, 2, 64, 0
4, 159932, Note_off_c, 2, 60, 0
4, 159936, Note_on_c, 2, 67, 58
4, 160124, Note_off_c, 2, 67, 0
4, 160128, Note_on_c, 2, 59, 58
4, 160128, Note_on_c, 2, 65, 58
4, 160316, Note_off_c, 2, 59, 0
4, 160316, Note_off_c, 2, 65, 0
4, 160320, Note_on_c, 2, 67, 58
4, 160508, Note_off_c, 2, 67, 0
4, 160512, Note_on_c, 2, 65, 58
4, 160512, Note_on_c, 2, 62, 58
4, 160700, Note_off_c, 2, 65, 0
4, 160700, Note_off_c, 2, 62, 0
4, 160704, Note_on_c, 2, 67, 58
4, 160892, Note_off_c, 2, 67, 0
4, 160896, Note_on_c, 2, 65, 58
4, 160896, Note_on_c, 2, 55, 58
4, 161084, Note_off_c, 2, 65, 0
4, 161084, Note_off_c, 2, 55, 0
4, 161088, Note_on_c, 2, 67, 58
4, 161276, Note_off_c, 2, 67, 0
4, 161280, Note_on_c, 2, 64, 58
4, 161280, Note_on_c, 2, 60, 58
4, 161468, Note_off_c, 2, 64, 0
4, 161468, Note_off_c, 2, 60, 0
4, 161472, Note_on_c, 2, 67, 58
4, 161660, Note_off_c, 2, 67, 0
4, 161664, Note_on_c, 2, 64, 58
4, 161852, Note_off_c, 2, 64, 0
4, 161856, Note_on_c, 2, 67, 58
4, 162044, Note_off_c, 2, 67, 0
4, 162048, Note_on_c, 2, 64, 58
4, 162048, Note_on_c, 2, 60, 58
4, 162236, Note_off_c, 2, 64, 0
4, 162236, Note_off_c, 2, 60, 0
4, 162240, Note_on_c, 2, 67, 58
4, 162428, Note_off_c, 2, 67, 0
4, 162432, Note_on_c, 2, 59, 58
4, 162432, Note_on_c, 2, 62, 58
4, 162620, Note_off_c, 2, 59, 0
4, 162620, Note_off_c, 2, 62, 0
4, 162624, Note_on_c, 2, 67, 58
4, 162812, Note_off_c, 2, 67, 0
4, 162816, Note_on_c, 2, 62, 58
4, 163004, Note_off_c, 2, 62, 0
4, 163008, Note_on_c, 2, 67, 58
4, 163196, Note_off_c, 2, 67, 0
4, 163200, Note_on_c, 2, 62, 58
4, 163200, Note_on_c, 2, 55, 58
4, 163388, Note_off_c, 2, 62, 0
4, 163388, Note_off_c, 2, 55, 0
4, 163392, Note_on_c, 2, 67, 58
4, 163580, Note_off_c, 2, 67, 0
4, 163584, Note_on_c, 2, 64, 58
4, 163584, Note_on_c, 2, 60, 58
4, 163772, Note_off_c, 2, 64, 0
4, 163772, Note_off_c, 2, 60, 0
4, 163776, Note_on_c, 2, 67, 58
4, 163964, Note_off_c, 2, 67, 0
4, 163968, Note_on_c, 2, 64, 58
4, 164156, Note_off_c, 2, 64, 0
4, 164160, Note_on_c, 2, 67, 58
4, 164348, Note_off_c, 2, 67, 0
4, 164352, Note_on_c, 2, 60, 58
4, 164352, Note_on_c, 2, 64, 58
4, 164540, Note_off_c, 2, 60, 0
4, 164540, Note_off_c, 2, 64, 0
4, 164544, Note_on_c, 2, 67, 58
4, 164732, Note_off_c, 2, 67, 0
4, 167808, Note_on_c, 2, 59, 58
4, 167808, Note_on_c, 2, 52, 58
4, 167996, Note_off_c, 2, 59, 0
4, 167996, Note_off_c, 2, 52, 0
4, 168000, Note_on_c, 2, 64, 58
4, 168188, Note_off_c, 2, 64, 0
4, 168192, Note_on_c, 2, 60, 58
4, 168192, Note_on_c, 2, 57, 58
4, 168380, Note_off_c, 2, 60, 0
4, 168380, Note_off_c, 2, 57, 0
4, 168384, Note_on_c, 2, 64, 58
4, 168572, Note_off_c, 2, 64, 0
4, 168576, Note_on_c, 2, 60, 58
4, 168764, Note_off_c, 2, 60, 0
4, 168768, Note_on_c, 2, 64, 58
4, 168956, Note_off_c, 2, 64, 0
4, 168960, Note_on_c, 2, 60, 58
4, 168960, Note_on_c, 2, 57, 58
4, 169148, Note_off_c, 2, 60, 0
4, 169148, Note_off_c, 2, 57, 0
4, 169152, Note_on_c, 2, 64, 58
4, 169340, Note_off_c, 2, 64, 0
4, 169344, Note_on_c, 2, 57, 58
4, 169344, Note_on_c, 2, 60, 58
4, 169532, Note_off_c, 2, 57, 0
4, 169532, Note_off_c, 2, 60, 0
4, 169536, Note_on_c, 2, 66, 58
4, 169724, Note_off_c, 2, 66, 0
4, 169728, Note_on_c, 2, 60, 58
4, 169916, Note_off_c, 2, 60, 0
4, 169920, Note_on_c, 2, 66, 58
4, 170108, Note_off_c, 2, 66, 0
4, 170112, Note_on_c, 2, 60, 58
4, 170112, Note_on_c, 2, 57, 58
4, 170300, Note_off_c, 2, 60, 0
4, 170300, Note_off_c, 2, 57, 0
4, 170304, Note_on_c, 2, 66, 58
4, 170492, Note_off_c, 2, 66, 0
4, 170496, Note_on_c, 2, 59, 58
4, 170496, Note_on_c, 2, 62, 58
4, 170684, Note_off_c, 2, 59, 0
4, 170684, Note_off_c, 2, 62, 0
4, 170688, Note_on_c, 2, 67, 58
4, 170876, Note_off_c, 2, 67, 0
4, 170880, Note_on_c, 2, 55, 58
4, 171068, Note_off_c, 2, 55, 0
4, 171072, Note_on_c, 2, 67, 58
4, 171260, Note_off_c, 2, 67, 0
4, 171264, Note_on_c, 2, 59, 58
4, 171264, Note_on_c, 2, 62, 58
4, 171452, Note_off_c, 2, 59, 0
4, 171452, Note_off_c, 2, 62, 0
4, 171456, Note_on_c, 2, 67, 58
4, 171644, Note_off_c, 2, 67, 0
4, 171648, Note_on_c, 2, 57, 58
4, 171648, Note_on_c, 2, 60, 58
4, 171836, Note_off_c, 2, 57, 0
4, 171836, Note_off_c, 2, 60, 0
4, 171840, Note_on_c, 2, 62, 58
4, 172028, Note_off_c, 2, 62, 0
4, 172032, Note_on_c, 2, 50, 58
4, 172220, Note_off_c, 2, 50, 0
4, 172224, Note_on_c, 2, 62, 58
4, 172412, Note_off_c, 2, 62, 0
4, 172416, Note_on_c, 2, 57, 58
4, 172604, Note_off_c, 2, 57, 0
4, 172608, Note_on_c, 2, 62, 58
4, 172796, Note_off_c, 2, 62, 0
4, 172800, Note_on_c, 2, 55, 58
4, 172800, Note_on_c, 2, 43, 58
4, 173180, Note_off_c, 2, 55, 0
4, 173180, Note_off_c, 2, 43, 0
4, 173184, Note_on_c, 2, 54, 58
4, 173184, Note_on_c, 2, 42, 58
4, 173564, Note_off_c, 2, 54, 0
4, 173564, Note_off_c, 2, 42, 0
4, 173568, Note_on_c, 2, 53, 58
4, 173568, Note_on_c, 2, 41, 58
4, 173948, Note_off_c, 2, 53, 0
4, 173948, Note_off_c, 2, 41, 0
4, 173952, Note_on_c, 2, 52, 58
4, 173952, Note_on_c, 2, 40, 58
4, 174332, Note_off_c, 2, 52, 0
4, 174332, Note_off_c, 2, 40, 0
4, 174336, Note_on_c, 2, 51, 58
4, 174336, Note_on_c, 2, 39, 58
4, 174716, Note_off_c, 2, 51, 0
4, 174716, Note_off_c, 2, 39, 0
4, 174720, Note_on_c, 2, 50, 58
4, 174720, Note_on_c, 2, 38, 58
4, 175100, Note_off_c, 2, 50, 0
4, 175100, Note_off_c, 2, 38, 0
4, 175104, Note_on_c, 2, 49, 58
4, 175104, Note_on_c, 2, 37, 58
4, 175292, Note_off_c, 2, 49, 0
4, 175292, Note_off_c, 2, 37, 0
4, 175488, Note_on_c, 2, 49, 58
4, 175488, Note_on_c, 2, 37, 58
4, 175676, Note_off_c, 2, 49, 0
4, 175676, Note_off_c, 2, 37, 0
4, 175872, Note_on_c, 2, 49, 58
4, 175872, Note_on_c, 2, 37, 58
4, 176060, Note_off_c, 2, 49, 0
4, 176060, Note_off_c, 2, 37, 0
4, 176640, Note_on_c, 2, 58, 79
4, 176640, Note_on_c, 2, 55, 79
4, 176640, Note_on_c, 2, 46, 79
4, 177020, Note_off_c, 2, 58, 0
4, 177020, Note_off_c, 2, 55, 0
4, 177020, Note_off_c, 2, 46, 0
4, 177024, Note_on_c, 2, 49, 79
4, 177024, Note_on_c, 2, 37, 79
4, 177404, Note_off_c, 2, 49, 0
4, 177404, Note_off_c, 2, 37, 0
4, 177408, Note_on_c, 2, 50, 58
4, 177408, Note_on_c, 2, 38, 58
4, 177788, Note_off_c, 2, 50, 0
4, 177788, Note_off_c, 2, 38, 0
4, 177792, Note_on_c, 2, 54, 58
4, 177980, Note_off_c, 2, 54, 0
4, 178176, Note_on_c, 2, 57, 58
4, 178364, Note_off_c, 2, 57, 0
4, 178560, Note_on_c, 2, 62, 58
4, 178748, Note_off_c, 2, 62, 0
4, 178944, Note_on_c, 2, 57, 58
4, 179132, Note_off_c, 2, 57, 0
4, 179328, Note_on_c, 2, 54, 58
4, 179516, Note_off_c, 2, 54, 0
4, 179712, Note_on_c, 2, 50, 58
4, 179900, Note_off_c, 2, 50, 0
4, 180096, Note_on_c, 2, 55, 58
4, 180284, Note_off_c, 2, 55, 0
4, 180480, Note_on_c, 2, 58, 58
4, 180668, Note_off_c, 2, 58, 0
4, 180864, Note_on_c, 2, 62, 58
4, 181052, Note_off_c, 2, 62, 0
4, 181248, Note_on_c, 2, 58, 58
4, 181436, Note_off_c, 2, 58, 0
4, 181632, Note_on_c, 2, 55, 58
4, 181820, Note_off_c, 2, 55, 0
4, 182016, Note_on_c, 2, 62, 58
4, 182016, Note_on_c, 2, 50, 58
4, 182204, Note_off_c, 2, 62, 0
4, 182204, Note_off_c, 2, 50, 0
4, 182400, Note_on_c, 2, 54, 58
4, 182588, Note_off_c, 2, 54, 0
4, 182784, Note_on_c, 2, 57, 58
4, 182972, Note_off_c, 2, 57, 0
4, 183168, Note_on_c, 2, 62, 58
4, 183356, Note_off_c, 2, 62, 0
4, 183552, Note_on_c, 2, 57, 58
4, 183740, Note_off_c, 2, 57, 0
4, 183936, Note_on_c, 2, 54, 58
4, 184124, Note_off_c, 2, 54, 0
4, 184320, Note_on_c, 2, 50, 58
4, 184508, Note_off_c, 2, 50, 0
4, 184704, Note_on_c, 2, 55, 58
4, 184892, Note_off_c, 2, 55, 0
4, 185088, Note_on_c, 2, 58, 58
4, 185276, Note_off_c, 2, 58, 0
4, 185472, Note_on_c, 2, 62, 58
4, 185660, Note_off_c, 2, 62, 0
4, 185856, Note_on_c, 2, 58, 58
4, 186044, Note_off_c, 2, 58, 0
4, 186240, Note_on_c, 2, 55, 58
4, 186428, Note_off_c, 2, 55, 0
4, 186624, Note_on_c, 2, 50, 79
4, 186812, Note_off_c, 2, 50, 0
4, 186816, Note_on_c, 2, 52, 79
4, 186908, Note_off_c, 2, 52, 0
4, 186912, Note_on_c, 2, 54, 79
4, 187004, Note_off_c, 2, 54, 0
4, 187008, Note_on_c, 2, 55, 79
4, 187100, Note_off_c, 2, 55, 0
4, 187104, Note_on_c, 2, 57, 79
4, 187196, Note_off_c, 2, 57, 0
4, 187200, Note_on_c, 2, 59, 79
4, 187292, Note_off_c, 2, 59, 0
4, 187296, Note_on_c, 2, 61, 79
4, 187388, Note_off_c, 2, 61, 0
4, 187392, Note_on_c, 2, 62, 79
4, 187484, Note_off_c, 2, 62, 0
4, 187488, Note_on_c, 2, 61, 79
4, 187580, Note_off_c, 2, 61, 0
4, 187584, Note_on_c, 2, 62, 79
4, 187676, Note_off_c, 2, 62, 0
4, 187680, Note_on_c, 2, 61, 79
4, 187772, Note_off_c, 2, 61, 0
4, 187776, Note_on_c, 2, 62, 79
4, 187776, Note_on_c, 2, 50, 79
4, 188540, Note_off_c, 2, 62, 0
4, 188540, Note_off_c, 2, 50, 0
4, 188928, Note_on_c, 2, 50, 79
4, 188928, Note_on_c, 2, 38, 79
4, 189692, Note_off_c, 2, 50, 0
4, 189692, Note_off_c, 2, 38, 0
4, 190080, Note_on_c, 2, 67, 58
4, 190460, Note_off_c, 2, 67, 0
4, 190464, Note_on_c, 2, 62, 58
4, 190844, Note_off_c, 2, 62, 0
4, 190848, Note_on_c, 2, 59, 58
4, 191228, Note_off_c, 2, 59, 0
4, 191232, Note_on_c, 2, 55, 58
4, 191612, Note_off_c, 2, 55, 0
4, 192000, Note_on_c, 2, 59, 58
4, 192380, Note_off_c, 2, 59, 0
4, 192384, Note_on_c, 2, 62, 58
4, 192764, Note_off_c, 2, 62, 0
4, 193152, Note_on_c, 2, 60, 58
4, 193532, Note_off_c, 2, 60, 0
4, 193536, Note_on_c, 2, 59, 58
4, 193916, Note_off_c, 2, 59, 0
4, 193920, Note_on_c, 2, 55, 58
4, 194300, Note_off_c, 2, 55, 0
4, 194304, Note_on_c, 2, 62, 58
4, 194684, Note_off_c, 2, 62, 0
4, 194688, Note_on_c, 2, 64, 58
4, 195068, Note_off_c, 2, 64, 0
4, 195072, Note_on_c, 2, 62, 58
4, 195452, Note_off_c, 2, 62, 0
4, 195456, Note_on_c, 2, 60, 58
4, 195836, Note_off_c, 2, 60, 0
4, 195840, Note_on_c, 2, 59, 58
4, 196220, Note_off_c, 2, 59, 0
4, 196608, Note_on_c, 2, 55, 58
4, 196796, Note_off_c, 2, 55, 0
4, 196800, Note_on_c, 2, 59, 58
4, 196988, Note_off_c, 2, 59, 0
4, 196992, Note_on_c, 2, 60, 58
4, 197372, Note_off_c, 2, 60, 0
4, 197760, Note_on_c, 2, 57, 58
4, 197948, Note_off_c, 2, 57, 0
4, 197952, Note_on_c, 2, 60, 58
4, 198140, Note_off_c, 2, 60, 0
4, 198144, Note_on_c, 2, 62, 58
4, 198524, Note_off_c, 2, 62, 0
4, 198528, Note_on_c, 2, 62, 58
4, 198908, Note_off_c, 2, 62, 0
4, 198912, Note_on_c, 2, 62, 58
4, 199292, Note_off_c, 2, 62, 0
4, 199296, Note_on_c, 2, 55, 79
4, 199296, Note_on_c, 2, 43, 79
4, 199676, Note_off_c, 2, 55, 0
4, 199676, Note_off_c, 2, 43, 0
4, 199680, Note_on_c, 2, 50, 79
4, 199680, Note_on_c, 2, 38, 79
4, 200060, Note_off_c, 2, 50, 0
4, 200060, Note_off_c, 2, 38, 0
4, 200064, Note_on_c, 2, 47, 79
4, 200064, Note_on_c, 2, 35, 79
4, 200444, Note_off_c, 2, 47, 0
4, 200444, Note_off_c, 2, 35, 0
4, 200448, Note_on_c, 2, 43, 79
4, 200448, Note_on_c, 2, 31, 79
4, 200828, Note_off_c, 2, 43, 0
4, 200828, Note_off_c, 2, 31, 0
4, 201216, Note_on_c, 2, 43, 79
4, 201596, Note_off_c, 2, 43, 0
4, 201600, Note_on_c, 2, 50, 79
4, 201600, Note_on_c, 2, 38, 79
4, 201980, Note_off_c, 2, 50, 0
4, 201980, Note_off_c, 2, 38, 0
4, 202368, Note_on_c, 2, 50, 79
4, 202748, Note_off_c, 2, 50, 0
4, 202752, Note_on_c, 2, 43, 79
4, 203132, Note_off_c, 2, 43, 0
4, 203136, Note_on_c, 2, 47, 79
4, 203516, Note_off_c, 2, 47, 0
4, 203520, Note_on_c, 2, 50, 79
4, 203900, Note_off_c, 2, 50, 0
4, 203904, Note_on_c, 2, 67, 79
4, 203904, Note_on_c, 2, 64, 79
4, 204284, Note_off_c, 2, 67, 0
4, 204284, Note_off_c, 2, 64, 0
4, 204288, Note_on_c, 2, 66, 79
4, 204288, Note_on_c, 2, 62, 79
4, 204668, Note_off_c, 2, 66, 0
4, 204668, Note_off_c, 2, 62, 0
4, 204672, Note_on_c, 2, 64, 79
4, 204672, Note_on_c, 2, 60, 79
4, 205052, Note_off_c, 2, 64, 0
4, 205052, Note_off_c, 2, 60, 0
4, 205056, Note_on_c, 2, 60, 79
4, 205056, Note_on_c, 2, 57, 79
4, 205056, Note_on_c, 2, 54, 79
4, 205436, Note_off_c, 2, 60, 0
4, 205436, Note_off_c, 2, 57, 0
4, 205820, Note_off_c, 2, 54, 0
4, 205824, Note_on_c, 2, 57, 79
4, 206012, Note_off_c, 2, 57, 0
4, 206016, Note_on_c, 2, 60, 79
4, 206204, Note_off_c, 2, 60, 0
4, 206208, Note_on_c, 2, 59, 79
4, 206492, Note_off_c, 2, 59, 0
4, 206496, Note_on_c, 2, 64, 79
4, 206588, Note_off_c, 2, 64, 0
4, 206592, Note_on_c, 2, 67, 79
4, 206592, Note_on_c, 2, 60, 79
4, 206972, Note_off_c, 2, 67, 0
4, 206972, Note_off_c, 2, 60, 0
4, 206976, Note_on_c, 2, 62, 79
4, 206976, Note_on_c, 2, 66, 79
4, 207356, Note_off_c, 2, 62, 0
4, 207356, Note_off_c, 2, 66, 0
4, 207360, Note_on_c, 2, 62, 79
4, 207360, Note_on_c, 2, 59, 79
4, 207360, Note_on_c, 2, 55, 79
4, 207548, Note_off_c, 2, 62, 0
4, 207548, Note_off_c, 2, 59, 0
4, 207548, Note_off_c, 2, 55, 0
4, 207552, Note_on_c, 2, 55, 58
4, 207740, Note_off_c, 2, 55, 0
4, 207744, Note_on_c, 2, 55, 58
4, 207932, Note_off_c, 2, 55, 0
4, 207936, Note_on_c, 2, 55, 58
4, 208124, Note_off_c, 2, 55, 0
4, 208128, Note_on_c, 2, 55, 58
4, 208316, Note_off_c, 2, 55, 0
4, 208320, Note_on_c, 2, 55, 58
4, 208508, Note_off_c, 2, 55, 0
4, 208512, Note_on_c, 2, 55, 58
4, 208700, Note_off_c, 2, 55, 0
4, 208704, Note_on_c, 2, 55, 58
4, 208892, Note_off_c, 2, 55, 0
4, 208896, Note_on_c, 2, 55, 58
4, 209084, Note_off_c, 2, 55, 0
4, 209088, Note_on_c, 2, 55, 58
4, 209276, Note_off_c, 2, 55, 0
4, 209280, Note_on_c, 2, 55, 58
4, 209468, Note_off_c, 2, 55, 0
4, 209472, Note_on_c, 2, 55, 58
4, 209660, Note_off_c, 2, 55, 0
4, 209664, Note_on_c, 2, 55, 79
4, 209664, Note_on_c, 2, 43, 79
4, 209852, Note_off_c, 2, 55, 0
4, 209852, Note_off_c, 2, 43, 0
4, 209856, Note_on_c, 2, 55, 58
4, 210044, Note_off_c, 2, 55, 0
4, 210048, Note_on_c, 2, 55, 58
4, 210236, Note_off_c, 2, 55, 0
4, 210240, Note_on_c, 2, 55, 58
4, 210428, Note_off_c, 2, 55, 0
4, 210432, Note_on_c, 2, 55, 58
4, 210620, Note_off_c, 2, 55, 0
4, 210624, Note_on_c, 2, 55, 58
4, 210812, Note_off_c, 2, 55, 0
4, 210816, Note_on_c, 2, 55, 58
4, 211004, Note_off_c, 2, 55, 0
4, 211008, Note_on_c, 2, 55, 58
4, 211196, Note_off_c, 2, 55, 0
4, 211200, Note_on_c, 2, 55, 58
4, 211388, Note_off_c, 2, 55, 0
4, 211392, Note_on_c, 2, 55, 58
4, 211580, Note_off_c, 2, 55, 0
4, 211584, Note_on_c, 2, 55, 58
4, 211772, Note_off_c, 2, 55, 0
4, 211776, Note_on_c, 2, 55, 58
4, 211964, Note_off_c, 2, 55, 0
4, 211968, Note_on_c, 2, 60, 79
4, 211968, Note_on_c, 2, 48, 79
4, 212156, Note_off_c, 2, 60, 0
4, 212156, Note_off_c, 2, 48, 0
4, 212160, Note_on_c, 2, 55, 79
4, 212160, Note_on_c, 2, 52, 79
4, 212160, Note_on_c, 2, 48, 79
4, 212348, Note_off_c, 2, 55, 0
4, 212348, Note_off_c, 2, 52, 0
4, 212348, Note_off_c, 2, 48, 0
4, 212352, Note_on_c, 2, 55, 79
4, 212352, Note_on_c, 2, 52, 79
4, 212352, Note_on_c, 2, 48, 79
4, 212540, Note_off_c, 2, 55, 0
4, 212540, Note_off_c, 2, 52, 0
4, 212540, Note_off_c, 2, 48, 0
4, 212544, Note_on_c, 2, 55, 79
4, 212544, Note_on_c, 2, 52, 79
4, 212544, Note_on_c, 2, 48, 79
4, 212732, Note_off_c, 2, 55, 0
4, 212732, Note_off_c, 2, 52, 0
4, 212732, Note_off_c, 2, 48, 0
4, 212736, Note_on_c, 2, 55, 79
4, 212736, Note_on_c, 2, 52, 79
4, 212736, Note_on_c, 2, 48, 79
4, 212924, Note_off_c, 2, 55, 0
4, 212924, Note_off_c, 2, 52, 0
4, 212924, Note_off_c, 2, 48, 0
4, 212928, Note_on_c, 2, 55, 79
4, 212928, Note_on_c, 2, 52, 79
4, 212928, Note_on_c, 2, 48, 79
4, 213116, Note_off_c, 2, 55, 0
4, 213116, Note_off_c, 2, 52, 0
4, 213116, Note_off_c, 2, 48, 0
4, 213120, Note_on_c, 2, 55, 79
4, 213120, Note_on_c, 2, 52, 79
4, 213120, Note_on_c, 2, 48, 79
4, 213308, Note_off_c, 2, 55, 0
4, 213308, Note_off_c, 2, 52, 0
4, 213308, Note_off_c, 2, 48, 0
4, 213312, Note_on_c, 2, 55, 79
4, 213312, Note_on_c, 2, 52, 79
4, 213312, Note_on_c, 2, 48, 79
4, 213500, Note_off_c, 2, 55, 0
4, 213500, Note_off_c, 2, 52, 0
4, 213500, Note_off_c, 2, 48, 0
4, 213504, Note_on_c, 2, 55, 79
4, 213504, Note_on_c, 2, 52, 79
4, 213504, Note_on_c, 2, 48, 79
4, 213692, Note_off_c, 2, 55, 0
4, 213692, Note_off_c, 2, 52, 0
4, 213692, Note_off_c, 2, 48, 0
4, 213696, Note_on_c, 2, 52, 58
4, 213696, Note_on_c, 2, 48, 58
4, 213884, Note_off_c, 2, 52, 0
4, 213884, Note_off_c, 2, 48, 0
4, 213888, Note_on_c, 2, 55, 58
4, 213888, Note_on_c, 2, 52, 58
4, 214076, Note_off_c, 2, 55, 0
4, 214076, Note_off_c, 2, 52, 0
4, 214080, Note_on_c, 2, 48, 58
4, 214268, Note_off_c, 2, 48, 0
4, 214272, Note_on_c, 2, 55, 58
4, 214272, Note_on_c, 2, 47, 58
4, 214460, Note_off_c, 2, 55, 0
4, 214460, Note_off_c, 2, 47, 0
4, 214464, Note_on_c, 2, 55, 79
4, 214464, Note_on_c, 2, 50, 79
4, 214464, Note_on_c, 2, 47, 79
4, 214652, Note_off_c, 2, 55, 0
4, 214652, Note_off_c, 2, 50, 0
4, 214652, Note_off_c, 2, 47, 0
4, 214656, Note_on_c, 2, 55, 79
4, 214656, Note_on_c, 2, 50, 79
4, 214656, Note_on_c, 2, 47, 79
4, 214844, Note_off_c, 2, 55, 0
4, 214844, Note_off_c, 2, 50, 0
4, 214844, Note_off_c, 2, 47, 0
4, 214848, Note_on_c, 2, 55, 79
4, 214848, Note_on_c, 2, 50, 79
4, 214848, Note_on_c, 2, 47, 79
4, 215036, Note_off_c, 2, 55, 0
4, 215036, Note_off_c, 2, 50, 0
4, 215036, Note_off_c, 2, 47, 0
4, 215040, Note_on_c, 2, 55, 79
4, 215040, Note_on_c, 2, 50, 79
4, 215040, Note_on_c, 2, 47, 79
4, 215228, Note_off_c, 2, 55, 0
4, 215228, Note_off_c, 2, 50, 0
4, 215228, Note_off_c, 2, 47, 0
4, 215232, Note_on_c, 2, 55, 79
4, 215232, Note_on_c, 2, 50, 79
4, 215232, Note_on_c, 2, 47, 79
4, 215420, Note_off_c, 2, 55, 0
4, 215420, Note_off_c, 2, 50, 0
4, 215420, Note_off_c, 2, 47, 0
4, 215424, Note_on_c, 2, 55, 79
4, 215424, Note_on_c, 2, 50, 79
4, 215424, Note_on_c, 2, 47, 79
4, 215612, Note_off_c, 2, 55, 0
4, 215612, Note_off_c, 2, 50, 0
4, 215612, Note_off_c, 2, 47, 0
4, 215616, Note_on_c, 2, 55, 79
4, 215616, Note_on_c, 2, 50, 79
4, 215616, Note_on_c, 2, 47, 79
4, 215804, Note_off_c, 2, 55, 0
4, 215804, Note_off_c, 2, 50, 0
4, 215804, Note_off_c, 2, 47, 0
4, 215808, Note_on_c, 2, 55, 79
4, 215808, Note_on_c, 2, 50, 79
4, 215808, Note_on_c, 2, 47, 79
4, 215996, Note_off_c, 2, 55, 0
4, 215996, Note_off_c, 2, 50, 0
4, 215996, Note_off_c, 2, 47, 0
4, 216000, Note_on_c, 2, 50, 58
4, 216000, Note_on_c, 2, 47, 58
4, 216188, Note_off_c, 2, 50, 0
4, 216188, Note_off_c, 2, 47, 0
4, 216192, Note_on_c, 2, 55, 58
4, 216192, Note_on_c, 2, 50, 58
4, 216380, Note_off_c, 2, 55, 0
4, 216380, Note_off_c, 2, 50, 0
4, 216384, Note_on_c, 2, 55, 58
4, 216384, Note_on_c, 2, 47, 58
4, 216572, Note_off_c, 2, 55, 0
4, 216572, Note_off_c, 2, 47, 0
4, 216576, Note_on_c, 2, 54, 58
4, 216576, Note_on_c, 2, 42, 58
4, 216764, Note_off_c, 2, 54, 0
4, 216764, Note_off_c, 2, 42, 0
4, 216768, Note_on_c, 2, 57, 79
4, 216768, Note_on_c, 2, 54, 79
4, 216956, Note_off_c, 2, 57, 0
4, 216956, Note_off_c, 2, 54, 0
4, 216960, Note_on_c, 2, 57, 79
4, 216960, Note_on_c, 2, 54, 79
4, 217148, Note_off_c, 2, 57, 0
4, 217148, Note_off_c, 2, 54, 0
4, 217152, Note_on_c, 2, 57, 79
4, 217152, Note_on_c, 2, 54, 79
4, 217340, Note_off_c, 2, 57, 0
4, 217340, Note_off_c, 2, 54, 0
4, 217344, Note_on_c, 2, 62, 79
4, 217344, Note_on_c, 2, 57, 79
4, 217344, Note_on_c, 2, 54, 79
4, 217532, Note_off_c, 2, 62, 0
4, 217532, Note_off_c, 2, 57, 0
4, 217532, Note_off_c, 2, 54, 0
4, 217536, Note_on_c, 2, 62, 79
4, 217536, Note_on_c, 2, 57, 79
4, 217536, Note_on_c, 2, 54, 79
4, 217724, Note_off_c, 2, 62, 0
4, 217724, Note_off_c, 2, 57, 0
4, 217724, Note_off_c, 2, 54, 0
4, 217728, Note_on_c, 2, 62, 79
4, 217728, Note_on_c, 2, 57, 79
4, 217728, Note_on_c, 2, 54, 79
4, 217916, Note_off_c, 2, 62, 0
4, 217916, Note_off_c, 2, 57, 0
4, 217916, Note_off_c, 2, 54, 0
4, 217920, Note_on_c, 2, 62, 79
4, 217920, Note_on_c, 2, 57, 79
4, 217920, Note_on_c, 2, 54, 79
4, 218108, Note_off_c, 2, 62, 0
4, 218108, Note_off_c, 2, 57, 0
4, 218108, Note_off_c, 2, 54, 0
4, 218112, Note_on_c, 2, 62, 79
4, 218112, Note_on_c, 2, 57, 79
4, 218112, Note_on_c, 2, 54, 79
4, 218300, Note_off_c, 2, 62, 0
4, 218300, Note_off_c, 2, 57, 0
4, 218300, Note_off_c, 2, 54, 0
4, 218304, Note_on_c, 2, 57, 58
4, 218304, Note_on_c, 2, 54, 58
4, 218492, Note_off_c, 2, 57, 0
4, 218492, Note_off_c, 2, 54, 0
4, 218496, Note_on_c, 2, 54, 58
4, 218684, Note_off_c, 2, 54, 0
4, 218688, Note_on_c, 2, 54, 58
4, 218876, Note_off_c, 2, 54, 0
4, 218880, Note_on_c, 2, 55, 58
4, 219260, Note_off_c, 2, 55, 0
4, 219456, Note_on_c, 2, 47, 58
4, 219644, Note_off_c, 2, 47, 0
4, 219648, Note_on_c, 2, 47, 58
4, 219836, Note_off_c, 2, 47, 0
4, 219840, Note_on_c, 2, 47, 58
4, 220028, Note_off_c, 2, 47, 0
4, 220032, Note_on_c, 2, 48, 58
4, 220412, Note_off_c, 2, 48, 0
4, 220608, Note_on_c, 2, 60, 58
4, 220608, Note_on_c, 2, 48, 58
4, 220796, Note_off_c, 2, 60, 0
4, 220796, Note_off_c, 2, 48, 0
4, 220800, Note_on_c, 2, 60, 58
4, 220800, Note_on_c, 2, 48, 58
4, 220988, Note_off_c, 2, 60, 0
4, 220988, Note_off_c, 2, 48, 0
4, 220992, Note_on_c, 2, 60, 58
4, 220992, Note_on_c, 2, 48, 58
4, 221180, Note_off_c, 2, 60, 0
4, 221180, Note_off_c, 2, 48, 0
4, 221184, Note_on_c, 2, 60, 58
4, 221184, Note_on_c, 2, 48, 58
4, 221372, Note_off_c, 2, 60, 0
4, 221372, Note_off_c, 2, 48, 0
4, 221376, Note_on_c, 2, 60, 58
4, 221376, Note_on_c, 2, 48, 58
4, 221564, Note_off_c, 2, 60, 0
4, 221564, Note_off_c, 2, 48, 0
4, 221568, Note_on_c, 2, 48, 58
4, 221756, Note_off_c, 2, 48, 0
4, 221760, Note_on_c, 2, 48, 58
4, 221948, Note_off_c, 2, 48, 0
4, 221952, Note_on_c, 2, 49, 58
4, 222140, Note_off_c, 2, 49, 0
4, 222144, Note_on_c, 2, 49, 58
4, 222332, Note_off_c, 2, 49, 0
4, 222336, Note_on_c, 2, 50, 58
4, 222716, Note_off_c, 2, 50, 0
4, 225792, Note_on_c, 2, 55, 58
4, 225980, Note_off_c, 2, 55, 0
4, 226176, Note_on_c, 2, 54, 58
4, 226364, Note_off_c, 2, 54, 0
4, 226560, Note_on_c, 2, 55, 58
4, 226748, Note_off_c, 2, 55, 0
4, 226944, Note_on_c, 2, 50, 58
4, 227324, Note_off_c, 2, 50, 0
4, 227328, Note_on_c, 2, 62, 58
4, 227708, Note_off_c, 2, 62, 0
4, 230400, Note_on_c, 2, 60, 58
4, 230588, Note_off_c, 2, 60, 0
4, 230784, Note_on_c, 2, 59, 58
4, 230972, Note_off_c, 2, 59, 0
4, 231168, Note_on_c, 2, 57, 58
4, 231356, Note_off_c, 2, 57, 0
4, 231552, Note_on_c, 2, 55, 58
4, 231932, Note_off_c, 2, 55, 0
4, 231936, Note_on_c, 2, 55, 58
4, 232316, Note_off_c, 2, 55, 0
4, 232704, Note_on_c, 2, 59, 58
4, 233084, Note_off_c, 2, 59, 0
4, 233088, Note_on_c, 2, 60, 58
4, 233468, Note_off_c, 2, 60, 0
4, 233856, Note_on_c, 2, 56, 58
4, 234236, Note_off_c, 2, 56, 0
4, 234240, Note_on_c, 2, 57, 58
4, 234620, Note_off_c, 2, 57, 0
4, 235008, Note_on_c, 2, 60, 58
4, 235388, Note_off_c, 2, 60, 0
4, 235392, Note_on_c, 2, 60, 58
4, 235772, Note_off_c, 2, 60, 0
4, 235776, Note_on_c, 2, 60, 58
4, 236156, Note_off_c, 2, 60, 0
4, 236160, Note_on_c, 2, 62, 58
4, 236924, Note_off_c, 2, 62, 0
4, 237312, Note_on_c, 2, 50, 79
4, 237312, Note_on_c, 2, 38, 79
4, 237500, Note_off_c, 2, 50, 0
4, 237500, Note_off_c, 2, 38, 0
4, 237504, Note_on_c, 2, 50, 79
4, 237504, Note_on_c, 2, 38, 79
4, 237692, Note_off_c, 2, 50, 0
4, 237692, Note_off_c, 2, 38, 0
4, 237696, Note_on_c, 2, 50, 79
4, 237696, Note_on_c, 2, 38, 79
4, 237884, Note_off_c, 2, 50, 0
4, 237884, Note_off_c, 2, 38, 0
4, 237888, Note_on_c, 2, 50, 79
4, 237888, Note_on_c, 2, 38, 79
4, 238076, Note_off_c, 2, 50, 0
4, 238076, Note_off_c, 2, 38, 0
4, 238080, Note_on_c, 2, 50, 79
4, 238080, Note_on_c, 2, 38, 79
4, 238268, Note_off_c, 2, 50, 0
4, 238268, Note_off_c, 2, 38, 0
4, 238272, Note_on_c, 2, 50, 79
4, 238272, Note_on_c, 2, 38, 79
4, 238460, Note_off_c, 2, 50, 0
4, 238460, Note_off_c, 2, 38, 0
4, 238464, Note_on_c, 2, 50, 79
4, 238464, Note_on_c, 2, 38, 79
4, 238652, Note_off_c, 2, 50, 0
4, 238652, Note_off_c, 2, 38, 0
4, 239616, Note_on_c, 2, 43, 58
4, 239804, Note_off_c, 2, 43, 0
4, 240000, Note_on_c, 2, 50, 58
4, 240000, Note_on_c, 2, 45, 58
4, 240188, Note_off_c, 2, 50, 0
4, 240188, Note_off_c, 2, 45, 0
4, 240384, Note_on_c, 2, 43, 58
4, 240572, Note_off_c, 2, 43, 0
4, 240768, Note_on_c, 2, 42, 58
4, 241148, Note_off_c, 2, 42, 0
4, 241920, Note_on_c, 2, 43, 58
4, 242108, Note_off_c, 2, 43, 0
4, 242304, Note_on_c, 2, 45, 58
4, 242492, Note_off_c, 2, 45, 0
4, 242688, Note_on_c, 2, 43, 58
4, 242876, Note_off_c, 2, 43, 0
4, 243072, Note_on_c, 2, 42, 58
4, 243452, Note_off_c, 2, 42, 0
4, 243648, Note_on_c, 2, 42, 58
4, 243836, Note_off_c, 2, 42, 0
4, 243840, Note_on_c, 2, 42, 58
4, 244028, Note_off_c, 2, 42, 0
4, 244032, Note_on_c, 2, 42, 58
4, 244220, Note_off_c, 2, 42, 0
4, 244224, Note_on_c, 2, 43, 58
4, 244604, Note_off_c, 2, 43, 0
4, 244800, Note_on_c, 2, 47, 58
4, 244800, Note_on_c, 2, 35, 58
4, 244988, Note_off_c, 2, 47, 0
4, 244988, Note_off_c, 2, 35, 0
4, 244992, Note_on_c, 2, 47, 58
4, 244992, Note_on_c, 2, 35, 58
4, 245180, Note_off_c, 2, 47, 0
4, 245180, Note_off_c, 2, 35, 0
4, 245184, Note_on_c, 2, 47, 58
4, 245184, Note_on_c, 2, 35, 58
4, 245372, Note_off_c, 2, 47, 0
4, 245372, Note_off_c, 2, 35, 0
4, 245376, Note_on_c, 2, 48, 58
4, 245376, Note_on_c, 2, 36, 58
4, 245948, Note_off_c, 2, 48, 0
4, 245948, Note_off_c, 2, 36, 0
4, 246528, Note_on_c, 2, 67, 58
4, 246528, Note_on_c, 2, 64, 58
4, 246528, Note_on_c, 2, 61, 58
4, 246908, Note_off_c, 2, 67, 0
4, 246908, Note_off_c, 2, 64, 0
4, 246908, Note_off_c, 2, 61, 0
4, 246912, Note_on_c, 2, 67, 58
4, 246912, Note_on_c, 2, 64, 58
4, 246912, Note_on_c, 2, 61, 58
4, 247292, Note_off_c, 2, 67, 0
4, 247292, Note_off_c, 2, 64, 0
4, 247292, Note_off_c, 2, 61, 0
4, 247296, Note_on_c, 2, 67, 58
4, 247296, Note_on_c, 2, 64, 58
4, 247296, Note_on_c, 2, 61, 58
4, 247676, Note_off_c, 2, 67, 0
4, 247676, Note_off_c, 2, 64, 0
4, 247676, Note_off_c, 2, 61, 0
4, 247680, Note_on_c, 2, 62, 58
4, 247680, Note_on_c, 2, 62, 58
4, 248444, Note_off_c, 2, 62, 0
4, 248448, Note_on_c, 2, 60, 58
4, 248828, Note_off_c, 2, 62, 0
4, 248828, Note_off_c, 2, 60, 0
4, 248832, Note_on_c, 2, 62, 58
4, 248832, Note_on_c, 2, 59, 58
4, 249212, Note_off_c, 2, 62, 0
4, 249212, Note_off_c, 2, 59, 0
4, 249216, Note_on_c, 2, 62, 58
4, 249216, Note_on_c, 2, 66, 58
4, 249596, Note_off_c, 2, 62, 0
4, 249596, Note_off_c, 2, 66, 0
4, 249600, Note_on_c, 2, 64, 58
4, 249600, Note_on_c, 2, 67, 58
4, 249980, Note_off_c, 2, 64, 0
4, 249980, Note_off_c, 2, 67, 0
4, 250080, Note_on_c, 2, 60, 58
4, 250364, Note_off_c, 2, 60, 0
4, 250368, Note_on_c, 2, 62, 58
4, 250748, Note_off_c, 2, 62, 0
4, 250752, Note_on_c, 2, 50, 58
4, 251132, Note_off_c, 2, 50, 0
4, 255744, Note_on_c, 2, 62, 58
4, 255744, Note_on_c, 2, 55, 58
4, 255932, Note_off_c, 2, 62, 0
4, 255932, Note_off_c, 2, 55, 0
4, 256128, Note_on_c, 2, 62, 58
4, 256128, Note_on_c, 2, 55, 58
4, 256316, Note_off_c, 2, 62, 0
4, 256316, Note_off_c, 2, 55, 0
4, 256512, Note_on_c, 2, 62, 58
4, 256512, Note_on_c, 2, 55, 58
4, 256700, Note_off_c, 2, 62, 0
4, 256700, Note_off_c, 2, 55, 0
4, 256896, Note_on_c, 2, 62, 58
4, 256896, Note_on_c, 2, 55, 58
4, 257084, Note_off_c, 2, 62, 0
4, 257664, Note_on_c, 2, 59, 58
4, 257852, Note_off_c, 2, 59, 0
4, 257856, Note_on_c, 2, 62, 58
4, 258044, Note_off_c, 2, 55, 0
4, 258044, Note_off_c, 2, 62, 0
4, 258048, Note_on_c, 2, 62, 58
4, 258048, Note_on_c, 2, 54, 58
4, 258236, Note_off_c, 2, 62, 0
4, 258236, Note_off_c, 2, 54, 0
4, 258432, Note_on_c, 2, 62, 58
4, 258432, Note_on_c, 2, 54, 58
4, 258620, Note_off_c, 2, 62, 0
4, 258620, Note_off_c, 2, 54, 0
4, 258816, Note_on_c, 2, 62, 58
4, 258816, Note_on_c, 2, 54, 58
4, 259004, Note_off_c, 2, 62, 0
4, 259004, Note_off_c, 2, 54, 0
4, 259200, Note_on_c, 2, 54, 58
4, 259200, Note_on_c, 2, 62, 58
4, 259772, Note_off_c, 2, 54, 0
4, 259776, Note_on_c, 2, 54, 58
4, 259964, Note_off_c, 2, 54, 0
4, 259968, Note_on_c, 2, 54, 58
4, 260156, Note_off_c, 2, 54, 0
4, 260160, Note_on_c, 2, 54, 58
4, 260348, Note_off_c, 2, 62, 0
4, 260348, Note_off_c, 2, 54, 0
4, 260352, Note_on_c, 2, 67, 58
4, 260352, Note_on_c, 2, 55, 58
4, 260732, Note_off_c, 2, 67, 0
4, 260736, Note_on_c, 2, 66, 58
4, 261116, Note_off_c, 2, 66, 0
4, 261120, Note_on_c, 2, 66, 58
4, 261500, Note_off_c, 2, 66, 0
4, 261504, Note_on_c, 2, 64, 58
4, 261884, Note_off_c, 2, 64, 0
4, 261888, Note_on_c, 2, 60, 58
4, 262268, Note_off_c, 2, 60, 0
4, 262272, Note_on_c, 2, 59, 58
4, 262652, Note_off_c, 2, 55, 0
4, 262652, Note_off_c, 2, 59, 0
4, 262656, Note_on_c, 2, 48, 58
4, 262844, Note_off_c, 2, 48, 0
4, 262848, Note_on_c, 2, 48, 58
4, 263036, Note_off_c, 2, 48, 0
4, 263040, Note_on_c, 2, 50, 58
4, 263228, Note_off_c, 2, 50, 0
4, 263232, Note_on_c, 2, 50, 58
4, 263420, Note_off_c, 2, 50, 0
4, 263424, Note_on_c, 2, 50, 58
4, 263612, Note_off_c, 2, 50, 0
4, 263616, Note_on_c, 2, 50, 58
4, 263804, Note_off_c, 2, 50, 0
4, 263808, Note_on_c, 2, 59, 58
4, 263808, Note_on_c, 2, 55, 58
4, 263996, Note_off_c, 2, 59, 0
4, 263996, Note_off_c, 2, 55, 0
4, 264000, Note_on_c, 2, 62, 58
4, 264188, Note_off_c, 2, 62, 0
4, 264192, Note_on_c, 2, 59, 58
4, 264192, Note_on_c, 2, 59, 58
4, 264380, Note_off_c, 2, 59, 0
4, 264380, Note_off_c, 2, 59, 0
4, 264384, Note_on_c, 2, 62, 58
4, 264572, Note_off_c, 2, 62, 0
4, 264576, Note_on_c, 2, 60, 58
4, 264576, Note_on_c, 2, 50, 58
4, 264764, Note_off_c, 2, 60, 0
4, 264764, Note_off_c, 2, 50, 0
4, 264768, Note_on_c, 2, 62, 58
4, 264956, Note_off_c, 2, 62, 0
4, 264960, Note_on_c, 2, 59, 58
4, 264960, Note_on_c, 2, 55, 58
4, 265340, Note_off_c, 2, 59, 0
4, 265340, Note_off_c, 2, 55, 0
4, 265344, Note_on_c, 2, 59, 58
4, 265532, Note_off_c, 2, 59, 0
4, 265536, Note_on_c, 2, 59, 58
4, 265724, Note_off_c, 2, 59, 0
4, 265728, Note_on_c, 2, 59, 58
4, 265916, Note_off_c, 2, 59, 0
4, 265920, Note_on_c, 2, 59, 58
4, 266108, Note_off_c, 2, 59, 0
4, 266112, Note_on_c, 2, 62, 58
4, 266112, Note_on_c, 2, 55, 58
4, 266492, Note_off_c, 2, 62, 0
4, 266492, Note_off_c, 2, 55, 0
4, 266496, Note_on_c, 2, 55, 58
4, 266496, Note_on_c, 2, 62, 58
4, 266684, Note_off_c, 2, 55, 0
4, 266684, Note_off_c, 2, 62, 0
4, 266688, Note_on_c, 2, 55, 58
4, 266688, Note_on_c, 2, 62, 58
4, 266876, Note_off_c, 2, 55, 0
4, 266876, Note_off_c, 2, 62, 0
4, 266880, Note_on_c, 2, 55, 58
4, 266880, Note_on_c, 2, 62, 58
4, 267068, Note_off_c, 2, 55, 0
4, 267068, Note_off_c, 2, 62, 0
4, 267072, Note_on_c, 2, 55, 58
4, 267072, Note_on_c, 2, 62, 58
4, 267260, Note_off_c, 2, 55, 0
4, 267260, Note_off_c, 2, 62, 0
4, 267264, Note_on_c, 2, 62, 58
4, 267264, Note_on_c, 2, 54, 58
4, 267644, Note_off_c, 2, 62, 0
4, 267644, Note_off_c, 2, 54, 0
4, 267648, Note_on_c, 2, 62, 58
4, 267836, Note_off_c, 2, 62, 0
4, 267840, Note_on_c, 2, 62, 58
4, 268028, Note_off_c, 2, 62, 0
4, 268032, Note_on_c, 2, 62, 58
4, 268220, Note_off_c, 2, 62, 0
4, 268224, Note_on_c, 2, 62, 58
4, 268412, Note_off_c, 2, 62, 0
4, 268416, Note_on_c, 2, 62, 58
4, 268416, Note_on_c, 2, 54, 58
4, 268796, Note_off_c, 2, 62, 0
4, 268796, Note_off_c, 2, 54, 0
4, 268800, Note_on_c, 2, 62, 58
4, 268800, Note_on_c, 2, 54, 58
4, 268988, Note_off_c, 2, 62, 0
4, 268988, Note_off_c, 2, 54, 0
4, 268992, Note_on_c, 2, 62, 58
4, 268992, Note_on_c, 2, 54, 58
4, 269180, Note_off_c, 2, 62, 0
4, 269180, Note_off_c, 2, 54, 0
4, 269184, Note_on_c, 2, 62, 58
4, 269184, Note_on_c, 2, 54, 58
4, 269372, Note_off_c, 2, 62, 0
4, 269372, Note_off_c, 2, 54, 0
4, 269376, Note_on_c, 2, 62, 58
4, 269376, Note_on_c, 2, 54, 58
4, 269564, Note_off_c, 2, 62, 0
4, 269564, Note_off_c, 2, 54, 0
4, 269568, Note_on_c, 2, 62, 58
4, 269568, Note_on_c, 2, 55, 58
4, 269948, Note_off_c, 2, 62, 0
4, 269948, Note_off_c, 2, 55, 0
4, 269952, Note_on_c, 2, 65, 79
4, 269952, Note_on_c, 2, 53, 79
4, 270140, Note_off_c, 2, 65, 0
4, 270140, Note_off_c, 2, 53, 0
4, 270144, Note_on_c, 2, 64, 79
4, 270144, Note_on_c, 2, 52, 79
4, 270332, Note_off_c, 2, 64, 0
4, 270332, Note_off_c, 2, 52, 0
4, 270336, Note_on_c, 2, 62, 79
4, 270336, Note_on_c, 2, 53, 79
4, 270336, Note_on_c, 2, 50, 79
4, 270524, Note_off_c, 2, 62, 0
4, 270524, Note_off_c, 2, 53, 0
4, 270524, Note_off_c, 2, 50, 0
4, 270528, Note_on_c, 2, 60, 79
4, 270528, Note_on_c, 2, 52, 79
4, 270528, Note_on_c, 2, 48, 79
4, 270716, Note_off_c, 2, 60, 0
4, 270716, Note_off_c, 2, 52, 0
4, 270716, Note_off_c, 2, 48, 0
4, 270720, Note_on_c, 2, 59, 79
4, 270720, Note_on_c, 2, 47, 79
4, 271292, Note_off_c, 2, 59, 0
4, 271292, Note_off_c, 2, 47, 0
4, 271872, Note_on_c, 2, 60, 58
4, 271872, Note_on_c, 2, 48, 58
4, 272444, Note_off_c, 2, 60, 0
4, 272444, Note_off_c, 2, 48, 0
4, 273024, Note_on_c, 2, 50, 58
4, 273404, Note_off_c, 2, 50, 0
4, 273408, Note_on_c, 2, 48, 58
4, 273788, Note_off_c, 2, 48, 0
4, 273792, Note_on_c, 2, 47, 58
4, 274172, Note_off_c, 2, 47, 0
4, 274176, Note_on_c, 2, 48, 58
4, 274556, Note_off_c, 2, 48, 0
4, 274560, Note_on_c, 2, 50, 58
4, 274940, Note_off_c, 2, 50, 0
4, 274944, Note_on_c, 2, 50, 58
4, 275324, Note_off_c, 2, 50, 0
4, 275328, Note_on_c, 2, 55, 79
4, 275328, Note_on_c, 2, 43, 79
4, 275516, Note_off_c, 2, 55, 0
4, 275516, Note_off_c, 2, 43, 0
4, 275520, Note_on_c, 2, 55, 79
4, 275520, Note_on_c, 2, 65, 79
4, 275708, Note_off_c, 2, 55, 0
4, 275708, Note_off_c, 2, 65, 0
4, 275712, Note_on_c, 2, 55, 79
4, 275712, Note_on_c, 2, 64, 79
4, 275900, Note_off_c, 2, 55, 0
4, 275900, Note_off_c, 2, 64, 0
4, 275904, Note_on_c, 2, 55, 79
4, 275904, Note_on_c, 2, 59, 79
4, 275904, Note_on_c, 2, 65, 79
4, 276092, Note_off_c, 2, 55, 0
4, 276092, Note_off_c, 2, 59, 0
4, 276092, Note_off_c, 2, 65, 0
4, 276096, Note_on_c, 2, 55, 79
4, 276096, Note_on_c, 2, 60, 79
4, 276096, Note_on_c, 2, 64, 79
4, 276284, Note_off_c, 2, 55, 0
4, 276284, Note_off_c, 2, 60, 0
4, 276284, Note_off_c, 2, 64, 0
4, 276288, Note_on_c, 2, 55, 79
4, 276288, Note_on_c, 2, 57, 79
4, 276288, Note_on_c, 2, 62, 79
4, 276476, Note_off_c, 2, 55, 0
4, 276476, Note_off_c, 2, 57, 0
4, 276476, Note_off_c, 2, 62, 0
4, 276480, Note_on_c, 2, 62, 79
4, 276480, Note_on_c, 2, 55, 79
4, 276860, Note_off_c, 2, 62, 0
4, 276860, Note_off_c, 2, 55, 0
4, 278400, Note_on_c, 2, 59, 58
4, 278588, Note_off_c, 2, 59, 0
4, 278592, Note_on_c, 2, 62, 58
4, 278780, Note_off_c, 2, 62, 0
4, 278784, Note_on_c, 2, 55, 58
4, 279164, Note_off_c, 2, 55, 0
4, 279552, Note_on_c, 2, 55, 58
4, 279932, Note_off_c, 2, 55, 0
4, 279936, Note_on_c, 2, 50, 58
4, 280316, Note_off_c, 2, 50, 0
4, 280704, Note_on_c, 2, 62, 58
4, 281084, Note_off_c, 2, 62, 0
4, 281088, Note_on_c, 2, 59, 58
4, 281088, Note_on_c, 2, 62, 58
4, 281468, Note_off_c, 2, 59, 0
4, 281468, Note_off_c, 2, 62, 0
4, 281472, Note_on_c, 2, 64, 58
4, 281852, Note_off_c, 2, 64, 0
4, 281856, Note_on_c, 2, 62, 58
4, 282236, Note_off_c, 2, 62, 0
4, 282240, Note_on_c, 2, 62, 58
4, 283004, Note_off_c, 2, 62, 0
4, 283008, Note_on_c, 2, 60, 58
4, 283388, Note_off_c, 2, 60, 0
4, 283392, Note_on_c, 2, 59, 58
4, 283964, Note_off_c, 2, 59, 0
4, 284544, Note_on_c, 2, 60, 58
4, 285116, Note_off_c, 2, 60, 0
4, 285696, Note_on_c, 2, 62, 58
4, 285696, Note_on_c, 2, 57, 58
4, 285696, Note_on_c, 2, 50, 58
4, 286076, Note_off_c, 2, 57, 0
4, 286076, Note_off_c, 2, 50, 0
4, 286844, Note_off_c, 2, 62, 0
4, 286848, Note_on_c, 2, 55, 79
4, 287036, Note_off_c, 2, 55, 0
4, 287040, Note_on_c, 2, 59, 79
4, 287228, Note_off_c, 2, 59, 0
4, 287232, Note_on_c, 2, 50, 79
4, 287420, Note_off_c, 2, 50, 0
4, 287424, Note_on_c, 2, 55, 79
4, 287612, Note_off_c, 2, 55, 0
4, 287616, Note_on_c, 2, 59, 79
4, 287616, Note_on_c, 2, 47, 79
4, 287804, Note_off_c, 2, 59, 0
4, 287804, Note_off_c, 2, 47, 0
4, 287808, Note_on_c, 2, 50, 79
4, 287996, Note_off_c, 2, 50, 0
4, 288000, Note_on_c, 2, 55, 79
4, 288000, Note_on_c, 2, 43, 79
4, 288380, Note_off_c, 2, 55, 0
4, 288380, Note_off_c, 2, 43, 0
4, 288384, Note_on_c, 2, 59, 79
4, 288384, Note_on_c, 2, 55, 79
4, 288764, Note_off_c, 2, 59, 0
4, 288764, Note_off_c, 2, 55, 0
4, 288768, Note_on_c, 2, 59, 79
4, 288768, Note_on_c, 2, 55, 79
4, 289148, Note_off_c, 2, 59, 0
4, 289148, Note_off_c, 2, 55, 0
4, 289152, Note_on_c, 2, 62, 79
4, 289152, Note_on_c, 2, 57, 79
4, 289152, Note_on_c, 2, 50, 79
4, 289532, Note_off_c, 2, 62, 0
4, 289532, Note_off_c, 2, 57, 0
4, 289532, Note_off_c, 2, 50, 0
4, 289536, Note_on_c, 2, 57, 79
4, 289536, Note_on_c, 2, 54, 79
4, 289916, Note_off_c, 2, 57, 0
4, 289916, Note_off_c, 2, 54, 0
4, 289920, Note_on_c, 2, 62, 79
4, 290300, Note_off_c, 2, 62, 0
4, 290304, Note_on_c, 2, 62, 79
4, 290304, Note_on_c, 2, 59, 79
4, 290304, Note_on_c, 2, 55, 79
4, 290684, Note_off_c, 2, 62, 0
4, 290684, Note_off_c, 2, 59, 0
4, 290684, Note_off_c, 2, 55, 0
4, 290688, Note_on_c, 2, 61, 79
4, 290688, Note_on_c, 2, 52, 79
4, 291068, Note_off_c, 2, 61, 0
4, 291068, Note_off_c, 2, 52, 0
4, 291072, Note_on_c, 2, 62, 79
4, 291072, Note_on_c, 2, 50, 79
4, 291452, Note_off_c, 2, 62, 0
4, 291452, Note_off_c, 2, 50, 0
4, 291456, Note_on_c, 2, 50, 58
4, 291836, Note_off_c, 2, 50, 0
4, 291840, Note_on_c, 2, 50, 58
4, 292220, Note_off_c, 2, 50, 0
4, 292224, Note_on_c, 2, 50, 58
4, 292604, Note_off_c, 2, 50, 0
4, 292608, Note_on_c, 2, 50, 58
4, 292608, Note_on_c, 2, 60, 58
4, 292892, Note_off_c, 2, 60, 0
4, 292896, Note_on_c, 2, 60, 58
4, 292988, Note_off_c, 2, 50, 0
4, 292988, Note_off_c, 2, 60, 0
4, 292992, Note_on_c, 2, 50, 58
4, 292992, Note_on_c, 2, 60, 58
4, 293372, Note_off_c, 2, 50, 0
4, 293372, Note_off_c, 2, 60, 0
4, 293376, Note_on_c, 2, 50, 58
4, 293376, Note_on_c, 2, 48, 58
4, 293376, Note_on_c, 2, 60, 58
4, 293756, Note_off_c, 2, 50, 0
4, 293756, Note_off_c, 2, 48, 0
4, 293756, Note_off_c, 2, 60, 0
4, 293760, Note_on_c, 2, 59, 58
4, 293760, Note_on_c, 2, 50, 58
4, 293760, Note_on_c, 2, 47, 58
4, 294140, Note_off_c, 2, 59, 0
4, 294140, Note_off_c, 2, 50, 0
4, 294140, Note_off_c, 2, 47, 0
4, 294144, Note_on_c, 2, 60, 58
4, 294144, Note_on_c, 2, 48, 58
4, 294524, Note_off_c, 2, 60, 0
4, 294524, Note_off_c, 2, 48, 0
4, 294528, Note_on_c, 2, 60, 58
4, 294528, Note_on_c, 2, 50, 58
4, 294908, Note_off_c, 2, 60, 0
4, 294908, Note_off_c, 2, 50, 0
4, 294912, Note_on_c, 2, 62, 58
4, 294912, Note_on_c, 2, 59, 58
4, 294912, Note_on_c, 2, 55, 58
4, 295292, Note_off_c, 2, 62, 0
4, 295292, Note_off_c, 2, 59, 0
4, 295292, Note_off_c, 2, 55, 0
4, 295488, Note_on_c, 2, 59, 58
4, 295488, Note_on_c, 2, 47, 58
4, 295676, Note_off_c, 2, 59, 0
4, 295676, Note_off_c, 2, 47, 0
4, 295680, Note_on_c, 2, 60, 58
4, 295680, Note_on_c, 2, 48, 58
4, 295868, Note_off_c, 2, 60, 0
4, 295868, Note_off_c, 2, 48, 0
4, 295872, Note_on_c, 2, 62, 58
4, 295872, Note_on_c, 2, 50, 58
4, 296060, Note_off_c, 2, 62, 0
4, 296060, Note_off_c, 2, 50, 0
4, 296064, Note_on_c, 2, 62, 58
4, 296064, Note_on_c, 2, 55, 58
4, 296444, Note_off_c, 2, 62, 0
4, 296444, Note_off_c, 2, 55, 0
4, 296640, Note_on_c, 2, 59, 58
4, 296640, Note_on_c, 2, 47, 58
4, 296828, Note_off_c, 2, 59, 0
4, 296828, Note_off_c, 2, 47, 0
4, 296832, Note_on_c, 2, 60, 58
4, 296832, Note_on_c, 2, 48, 58
4, 297020, Note_off_c, 2, 60, 0
4, 297020, Note_off_c, 2, 48, 0
4, 297024, Note_on_c, 2, 62, 58
4, 297024, Note_on_c, 2, 50, 58
4, 297212, Note_off_c, 2, 62, 0
4, 297212, Note_off_c, 2, 50, 0
4, 297216, Note_on_c, 2, 55, 58
4, 297216, Note_on_c, 2, 43, 58
4, 297404, Note_off_c, 2, 55, 0
4, 297404, Note_off_c, 2, 43, 0
4, 297600, Note_on_c, 2, 55, 58
4, 297600, Note_on_c, 2, 43, 58
4, 297788, Note_off_c, 2, 55, 0
4, 297788, Note_off_c, 2, 43, 0
4, 297984, Note_on_c, 2, 55, 58
4, 297984, Note_on_c, 2, 43, 58
4, 298172, Note_off_c, 2, 55, 0
4, 298172, Note_off_c, 2, 43, 0
4, 298368, Note_on_c, 2, 55, 79
4, 298368, Note_on_c, 2, 43, 79
4, 298556, Note_off_c, 2, 55, 0
4, 298556, Note_off_c, 2, 43, 0
4, 298560, Note_on_c, 2, 59, 79
4, 298560, Note_on_c, 2, 47, 79
4, 298652, Note_off_c, 2, 59, 0
4, 298652, Note_off_c, 2, 47, 0
4, 298656, Note_on_c, 2, 59, 79
4, 298656, Note_on_c, 2, 47, 79
4, 298748, Note_off_c, 2, 59, 0
4, 298748, Note_off_c, 2, 47, 0
4, 298752, Note_on_c, 2, 59, 79
4, 298752, Note_on_c, 2, 47, 79
4, 298940, Note_off_c, 2, 59, 0
4, 298940, Note_off_c, 2, 47, 0
4, 298944, Note_on_c, 2, 62, 79
4, 298944, Note_on_c, 2, 50, 79
4, 299036, Note_off_c, 2, 62, 0
4, 299036, Note_off_c, 2, 50, 0
4, 299040, Note_on_c, 2, 62, 79
4, 299040, Note_on_c, 2, 50, 79
4, 299132, Note_off_c, 2, 62, 0
4, 299132, Note_off_c, 2, 50, 0
4, 299136, Note_on_c, 2, 62, 79
4, 299136, Note_on_c, 2, 50, 79
4, 299324, Note_off_c, 2, 62, 0
4, 299324, Note_off_c, 2, 50, 0
4, 299328, Note_on_c, 2, 67, 79
4, 299328, Note_on_c, 2, 55, 79
4, 299420, Note_off_c, 2, 67, 0
4, 299420, Note_off_c, 2, 55, 0
4, 299424, Note_on_c, 2, 67, 79
4, 299424, Note_on_c, 2, 55, 79
4, 299516, Note_off_c, 2, 67, 0
4, 299516, Note_off_c, 2, 55, 0
4, 299520, Note_on_c, 2, 67, 79
4, 299520, Note_on_c, 2, 55, 79
4, 300092, Note_off_c, 2, 67, 0
4, 300092, Note_off_c, 2, 55, 0
4, 300672, Note_on_c, 2, 47, 58
4, 301052, Note_off_c, 2, 47, 0
4, 301056, Note_on_c, 2, 48, 58
4, 301436, Note_off_c, 2, 48, 0
4, 301440, Note_on_c, 2, 44, 58
4, 301820, Note_off_c, 2, 44, 0
4, 301824, Note_on_c, 2, 45, 58
4, 302204, Note_off_c, 2, 45, 0
4, 302208, Note_on_c, 2, 50, 58
4, 302588, Note_off_c, 2, 50, 0
4, 302592, Note_on_c, 2, 52, 58
4, 302972, Note_off_c, 2, 52, 0
4, 302976, Note_on_c, 2, 57, 58
4, 302976, Note_on_c, 2, 48, 58
4, 303356, Note_off_c, 2, 57, 0
4, 303356, Note_off_c, 2, 48, 0
4, 303360, Note_on_c, 2, 45, 58
4, 303740, Note_off_c, 2, 45, 0
4, 303744, Note_on_c, 2, 50, 58
4, 304124, Note_off_c, 2, 50, 0
4, 304128, Note_on_c, 2, 55, 58
4, 304128, Note_on_c, 2, 43, 58
4, 304316, Note_off_c, 2, 55, 0
4, 304316, Note_off_c, 2, 43, 0
4, 304320, Note_on_c, 2, 59, 58
4, 304320, Note_on_c, 2, 47, 58
4, 304412, Note_off_c, 2, 59, 0
4, 304412, Note_off_c, 2, 47, 0
4, 304416, Note_on_c, 2, 59, 58
4, 304416, Note_on_c, 2, 47, 58
4, 304508, Note_off_c, 2, 59, 0
4, 304508, Note_off_c, 2, 47, 0
4, 304512, Note_on_c, 2, 59, 58
4, 304512, Note_on_c, 2, 47, 58
4, 304700, Note_off_c, 2, 59, 0
4, 304700, Note_off_c, 2, 47, 0
4, 304704, Note_on_c, 2, 62, 58
4, 304704, Note_on_c, 2, 50, 58
4, 304796, Note_off_c, 2, 62, 0
4, 304796, Note_off_c, 2, 50, 0
4, 304800, Note_on_c, 2, 62, 58
4, 304800, Note_on_c, 2, 50, 58
4, 304892, Note_off_c, 2, 62, 0
4, 304892, Note_off_c, 2, 50, 0
4, 304896, Note_on_c, 2, 62, 58
4, 304896, Note_on_c, 2, 50, 58
4, 305084, Note_off_c, 2, 62, 0
4, 305084, Note_off_c, 2, 50, 0
4, 305088, Note_on_c, 2, 67, 58
4, 305088, Note_on_c, 2, 55, 58
4, 305180, Note_off_c, 2, 67, 0
4, 305180, Note_off_c, 2, 55, 0
4, 305184, Note_on_c, 2, 67, 58
4, 305184, Note_on_c, 2, 55, 58
4, 305276, Note_off_c, 2, 67, 0
4, 305276, Note_off_c, 2, 55, 0
4, 305280, Note_on_c, 2, 67, 58
4, 305280, Note_on_c, 2, 55, 58
4, 305852, Note_off_c, 2, 67, 0
4, 305852, Note_off_c, 2, 55, 0
4, 306432, Note_on_c, 2, 56, 58
4, 306432, Note_on_c, 2, 44, 58
4, 306812, Note_off_c, 2, 56, 0
4, 306812, Note_off_c, 2, 44, 0
4, 306816, Note_on_c, 2, 57, 58
4, 306816, Note_on_c, 2, 45, 58
4, 307196, Note_off_c, 2, 57, 0
4, 307196, Note_off_c, 2, 45, 0
4, 307200, Note_on_c, 2, 59, 58
4, 307200, Note_on_c, 2, 47, 58
4, 307580, Note_off_c, 2, 59, 0
4, 307580, Note_off_c, 2, 47, 0
4, 307584, Note_on_c, 2, 52, 58
4, 307964, Note_off_c, 2, 52, 0
4, 307968, Note_on_c, 2, 54, 58
4, 308348, Note_off_c, 2, 54, 0
4, 308352, Note_on_c, 2, 55, 58
4, 308732, Note_off_c, 2, 55, 0
4, 308928, Note_on_c, 2, 49, 58
4, 309116, Note_off_c, 2, 49, 0
4, 309120, Note_on_c, 2, 49, 58
4, 309308, Note_off_c, 2, 49, 0
4, 309312, Note_on_c, 2, 49, 58
4, 309500, Note_off_c, 2, 49, 0
4, 309504, Note_on_c, 2, 49, 58
4, 309692, Note_off_c, 2, 49, 0
4, 309696, Note_on_c, 2, 49, 58
4, 309884, Note_off_c, 2, 49, 0
4, 310080, Note_on_c, 2, 50, 58
4, 310268, Note_off_c, 2, 50, 0
4, 310272, Note_on_c, 2, 50, 58
4, 310460, Note_off_c, 2, 50, 0
4, 310464, Note_on_c, 2, 50, 58
4, 310652, Note_off_c, 2, 50, 0
4, 310656, Note_on_c, 2, 50, 58
4, 310844, Note_off_c, 2, 50, 0
4, 310848, Note_on_c, 2, 50, 58
4, 311036, Note_off_c, 2, 50, 0
4, 311040, Note_on_c, 2, 55, 58
4, 311040, Note_on_c, 2, 43, 58
4, 311420, Note_off_c, 2, 55, 0
4, 311420, Note_off_c, 2, 43, 0
4, 311808, Note_on_c, 2, 55, 58
4, 311808, Note_on_c, 2, 47, 58
4, 312188, Note_off_c, 2, 55, 0
4, 312188, Note_off_c, 2, 47, 0
4, 312192, Note_on_c, 2, 55, 58
4, 312192, Note_on_c, 2, 48, 58
4, 312572, Note_off_c, 2, 55, 0
4, 312572, Note_off_c, 2, 48, 0
4, 312960, Note_on_c, 2, 48, 58
4, 313340, Note_off_c, 2, 48, 0
4, 313344, Note_on_c, 2, 50, 58
4, 313532, Note_off_c, 2, 50, 0
4, 313536, Note_on_c, 2, 50, 58
4, 313724, Note_off_c, 2, 50, 0
4, 313728, Note_on_c, 2, 50, 58
4, 313916, Note_off_c, 2, 50, 0
4, 313920, Note_on_c, 2, 50, 58
4, 314108, Note_off_c, 2, 50, 0
4, 314112, Note_on_c, 2, 48, 58
4, 314300, Note_off_c, 2, 48, 0
4, 314304, Note_on_c, 2, 48, 58
4, 314492, Note_off_c, 2, 48, 0
4, 314496, Note_on_c, 2, 47, 58
4, 314876, Note_off_c, 2, 47, 0
4, 315264, Note_on_c, 2, 59, 58
4, 315264, Note_on_c, 2, 47, 58
4, 315644, Note_off_c, 2, 59, 0
4, 315644, Note_off_c, 2, 47, 0
4, 315648, Note_on_c, 2, 60, 58
4, 315648, Note_on_c, 2, 48, 58
4, 316028, Note_off_c, 2, 60, 0
4, 316028, Note_off_c, 2, 48, 0
4, 316416, Note_on_c, 2, 48, 58
4, 316796, Note_off_c, 2, 48, 0
4, 316800, Note_on_c, 2, 50, 58
4, 316988, Note_off_c, 2, 50, 0
4, 316992, Note_on_c, 2, 50, 58
4, 317180, Note_off_c, 2, 50, 0
4, 317184, Note_on_c, 2, 50, 58
4, 317372, Note_off_c, 2, 50, 0
4, 317376, Note_on_c, 2, 50, 58
4, 317564, Note_off_c, 2, 50, 0
4, 317568, Note_on_c, 2, 50, 58
4, 317756, Note_off_c, 2, 50, 0
4, 317760, Note_on_c, 2, 50, 58
4, 317948, Note_off_c, 2, 50, 0
4, 317952, Note_on_c, 2, 38, 58
4, 317952, Note_on_c, 2, 50, 58
4, 318140, Note_off_c, 2, 38, 0
4, 318140, Note_off_c, 2, 50, 0
4, 318144, Note_on_c, 2, 38, 58
4, 318144, Note_on_c, 2, 50, 58
4, 318332, Note_off_c, 2, 38, 0
4, 318332, Note_off_c, 2, 50, 0
4, 318336, Note_on_c, 2, 50, 58
4, 318336, Note_on_c, 2, 38, 58
4, 318524, Note_off_c, 2, 50, 0
4, 318524, Note_off_c, 2, 38, 0
4, 318528, Note_on_c, 2, 50, 58
4, 318528, Note_on_c, 2, 38, 58
4, 318716, Note_off_c, 2, 50, 0
4, 318716, Note_off_c, 2, 38, 0
4, 318720, Note_on_c, 2, 50, 58
4, 318720, Note_on_c, 2, 38, 58
4, 318908, Note_off_c, 2, 50, 0
4, 318908, Note_off_c, 2, 38, 0
4, 318912, Note_on_c, 2, 50, 58
4, 318912, Note_on_c, 2, 38, 58
4, 319100, Note_off_c, 2, 50, 0
4, 319100, Note_off_c, 2, 38, 0
4, 319104, Note_on_c, 2, 55, 58
4, 319104, Note_on_c, 2, 43, 58
4, 319292, Note_off_c, 2, 55, 0
4, 319292, Note_off_c, 2, 43, 0
4, 319296, Note_on_c, 2, 59, 79
4, 319296, Note_on_c, 2, 55, 79
4, 319484, Note_off_c, 2, 59, 0
4, 319484, Note_off_c, 2, 55, 0
4, 319488, Note_on_c, 2, 62, 79
4, 319488, Note_on_c, 2, 59, 79
4, 319488, Note_on_c, 2, 55, 79
4, 319676, Note_off_c, 2, 62, 0
4, 319676, Note_off_c, 2, 59, 0
4, 319676, Note_off_c, 2, 55, 0
4, 319680, Note_on_c, 2, 62, 79
4, 319680, Note_on_c, 2, 59, 79
4, 319680, Note_on_c, 2, 55, 79
4, 319868, Note_off_c, 2, 62, 0
4, 319868, Note_off_c, 2, 59, 0
4, 319868, Note_off_c, 2, 55, 0
4, 319872, Note_on_c, 2, 66, 79
4, 319872, Note_on_c, 2, 60, 79
4, 319872, Note_on_c, 2, 57, 79
4, 320060, Note_off_c, 2, 66, 0
4, 320060, Note_off_c, 2, 60, 0
4, 320060, Note_off_c, 2, 57, 0
4, 320064, Note_on_c, 2, 66, 79
4, 320064, Note_on_c, 2, 60, 79
4, 320064, Note_on_c, 2, 57, 79
4, 320252, Note_off_c, 2, 66, 0
4, 320252, Note_off_c, 2, 60, 0
4, 320252, Note_off_c, 2, 57, 0
4, 320256, Note_on_c, 2, 59, 79
4, 320256, Note_on_c, 2, 62, 79
4, 320444, Note_off_c, 2, 59, 0
4, 320444, Note_off_c, 2, 62, 0
4, 320448, Note_on_c, 2, 59, 79
4, 320448, Note_on_c, 2, 62, 79
4, 320636, Note_off_c, 2, 59, 0
4, 320636, Note_off_c, 2, 62, 0
4, 320640, Note_on_c, 2, 59, 79
4, 320640, Note_on_c, 2, 62, 79
4, 320828, Note_off_c, 2, 59, 0
4, 320828, Note_off_c, 2, 62, 0
4, 320832, Note_on_c, 2, 59, 79
4, 320832, Note_on_c, 2, 62, 79
4, 321020, Note_off_c, 2, 59, 0
4, 321020, Note_off_c, 2, 62, 0
4, 321024, Note_on_c, 2, 64, 79
4, 321024, Note_on_c, 2, 52, 79
4, 321212, Note_off_c, 2, 64, 0
4, 321212, Note_off_c, 2, 52, 0
4, 321216, Note_on_c, 2, 64, 79
4, 321216, Note_on_c, 2, 52, 79
4, 321216, Note_on_c, 2, 59, 79
4, 321404, Note_off_c, 2, 64, 0
4, 321404, Note_off_c, 2, 52, 0
4, 321404, Note_off_c, 2, 59, 0
4, 321408, Note_on_c, 2, 60, 79
4, 321408, Note_on_c, 2, 48, 79
4, 321596, Note_off_c, 2, 60, 0
4, 321596, Note_off_c, 2, 48, 0
4, 321600, Note_on_c, 2, 60, 79
4, 321600, Note_on_c, 2, 48, 79
4, 321788, Note_off_c, 2, 60, 0
4, 321788, Note_off_c, 2, 48, 0
4, 321792, Note_on_c, 2, 60, 79
4, 321792, Note_on_c, 2, 48, 79
4, 321980, Note_off_c, 2, 60, 0
4, 321980, Note_off_c, 2, 48, 0
4, 321984, Note_on_c, 2, 60, 79
4, 321984, Note_on_c, 2, 48, 79
4, 322172, Note_off_c, 2, 60, 0
4, 322172, Note_off_c, 2, 48, 0
4, 322176, Note_on_c, 2, 62, 79
4, 322176, Note_on_c, 2, 57, 79
4, 322176, Note_on_c, 2, 50, 79
4, 322364, Note_off_c, 2, 62, 0
4, 322364, Note_off_c, 2, 57, 0
4, 322364, Note_off_c, 2, 50, 0
4, 322368, Note_on_c, 2, 62, 79
4, 322368, Note_on_c, 2, 57, 79
4, 322368, Note_on_c, 2, 50, 79
4, 322556, Note_off_c, 2, 62, 0
4, 322556, Note_off_c, 2, 57, 0
4, 322556, Note_off_c, 2, 50, 0
4, 322560, Note_on_c, 2, 55, 79
4, 322560, Note_on_c, 2, 43, 79
4, 322748, Note_off_c, 2, 55, 0
4, 322748, Note_off_c, 2, 43, 0
4, 322752, Note_on_c, 2, 59, 79
4, 322752, Note_on_c, 2, 55, 79
4, 322940, Note_off_c, 2, 59, 0
4, 322940, Note_off_c, 2, 55, 0
4, 322944, Note_on_c, 2, 62, 79
4, 322944, Note_on_c, 2, 59, 79
4, 322944, Note_on_c, 2, 55, 79
4, 323132, Note_off_c, 2, 62, 0
4, 323132, Note_off_c, 2, 59, 0
4, 323132, Note_off_c, 2, 55, 0
4, 323136, Note_on_c, 2, 59, 79
4, 323136, Note_on_c, 2, 62, 79
4, 323136, Note_on_c, 2, 55, 79
4, 323324, Note_off_c, 2, 59, 0
4, 323324, Note_off_c, 2, 62, 0
4, 323324, Note_off_c, 2, 55, 0
4, 323328, Note_on_c, 2, 57, 79
4, 323328, Note_on_c, 2, 60, 79
4, 323328, Note_on_c, 2, 66, 79
4, 323516, Note_off_c, 2, 57, 0
4, 323516, Note_off_c, 2, 60, 0
4, 323516, Note_off_c, 2, 66, 0
4, 323520, Note_on_c, 2, 57, 79
4, 323520, Note_on_c, 2, 60, 79
4, 323520, Note_on_c, 2, 66, 79
4, 323708, Note_off_c, 2, 57, 0
4, 323708, Note_off_c, 2, 60, 0
4, 323708, Note_off_c, 2, 66, 0
4, 323712, Note_on_c, 2, 59, 79
4, 323712, Note_on_c, 2, 62, 79
4, 323900, Note_off_c, 2, 59, 0
4, 323900, Note_off_c, 2, 62, 0
4, 323904, Note_on_c, 2, 59, 79
4, 323904, Note_on_c, 2, 62, 79
4, 324092, Note_off_c, 2, 59, 0
4, 324092, Note_off_c, 2, 62, 0
4, 324096, Note_on_c, 2, 59, 79
4, 324096, Note_on_c, 2, 62, 79
4, 324284, Note_off_c, 2, 59, 0
4, 324284, Note_off_c, 2, 62, 0
4, 324288, Note_on_c, 2, 59, 79
4, 324288, Note_on_c, 2, 62, 79
4, 324476, Note_off_c, 2, 59, 0
4, 324476, Note_off_c, 2, 62, 0
4, 324480, Note_on_c, 2, 64, 79
4, 324480, Note_on_c, 2, 52, 79
4, 324668, Note_off_c, 2, 64, 0
4, 324668, Note_off_c, 2, 52, 0
4, 324672, Note_on_c, 2, 64, 79
4, 324672, Note_on_c, 2, 52, 79
4, 324688, Note_on_c, 2, 59, 79
4, 324860, Note_off_c, 2, 64, 0
4, 324860, Note_off_c, 2, 52, 0
4, 324864, Note_on_c, 2, 60, 79
4, 324864, Note_on_c, 2, 48, 79
4, 324876, Note_off_c, 2, 59, 0
4, 325052, Note_off_c, 2, 60, 0
4, 325052, Note_off_c, 2, 48, 0
4, 325056, Note_on_c, 2, 60, 79
4, 325056, Note_on_c, 2, 48, 79
4, 325232, Note_on_c, 2, 60, 79
4, 325244, Note_off_c, 2, 60, 0
4, 325244, Note_off_c, 2, 48, 0
4, 325248, Note_on_c, 2, 48, 79
4, 325420, Note_off_c, 2, 60, 0
4, 325436, Note_off_c, 2, 48, 0
4, 325440, Note_on_c, 2, 60, 79
4, 325440, Note_on_c, 2, 48, 79
4, 325628, Note_off_c, 2, 60, 0
4, 325628, Note_off_c, 2, 48, 0
4, 325632, Note_on_c, 2, 62, 79
4, 325632, Note_on_c, 2, 57, 79
4, 325632, Note_on_c, 2, 50, 79
4, 325820, Note_off_c, 2, 62, 0
4, 325820, Note_off_c, 2, 57, 0
4, 325820, Note_off_c, 2, 50, 0
4, 325824, Note_on_c, 2, 62, 79
4, 325824, Note_on_c, 2, 57, 79
4, 325824, Note_on_c, 2, 50, 79
4, 326012, Note_off_c, 2, 62, 0
4, 326012, Note_off_c, 2, 57, 0
4, 326012, Note_off_c, 2, 50, 0
4, 326016, Note_on_c, 2, 62, 79
4, 326016, Note_on_c, 2, 55, 79
4, 326204, Note_off_c, 2, 62, 0
4, 326204, Note_off_c, 2, 55, 0
4, 327936, Note_on_c, 2, 60, 58
4, 327936, Note_on_c, 2, 57, 58
4, 327936, Note_on_c, 2, 50, 58
4, 328316, Note_off_c, 2, 60, 0
4, 328316, Note_off_c, 2, 57, 0
4, 328316, Note_off_c, 2, 50, 0
4, 328320, Note_on_c, 2, 62, 58
4, 328320, Note_on_c, 2, 59, 58
4, 328320, Note_on_c, 2, 55, 58
4, 328700, Note_off_c, 2, 62, 0
4, 328700, Note_off_c, 2, 59, 0
4, 328700, Note_off_c, 2, 55, 0
4, 330240, Note_on_c, 2, 60, 58
4, 330240, Note_on_c, 2, 57, 58
4, 330240, Note_on_c, 2, 50, 58
4, 330620, Note_off_c, 2, 60, 0
4, 330620, Note_off_c, 2, 57, 0
4, 330620, Note_off_c, 2, 50, 0
4, 330624, Note_on_c, 2, 59, 58
4, 330624, Note_on_c, 2, 62, 58
4, 330624, Note_on_c, 2, 55, 58
4, 331004, Note_off_c, 2, 59, 0
4, 331004, Note_off_c, 2, 62, 0
4, 331004, Note_off_c, 2, 55, 0
4, 331392, Note_on_c, 2, 60, 58
4, 331392, Note_on_c, 2, 57, 58
4, 331392, Note_on_c, 2, 50, 58
4, 331772, Note_off_c, 2, 60, 0
4, 331772, Note_off_c, 2, 57, 0
4, 331772, Note_off_c, 2, 50, 0
4, 331776, Note_on_c, 2, 59, 58
4, 331776, Note_on_c, 2, 62, 58
4, 331776, Note_on_c, 2, 55, 58
4, 332156, Note_off_c, 2, 59, 0
4, 332156, Note_off_c, 2, 62, 0
4, 332156, Note_off_c, 2, 55, 0
4, 332544, Note_on_c, 2, 60, 58
4, 332544, Note_on_c, 2, 57, 58
4, 332544, Note_on_c, 2, 50, 58
4, 332924, Note_off_c, 2, 60, 0
4, 332924, Note_off_c, 2, 57, 0
4, 332924, Note_off_c, 2, 50, 0
4, 332928, Note_on_c, 2, 55, 58
4, 332928, Note_on_c, 2, 43, 58
4, 333116, Note_off_c, 2, 55, 0
4, 333116, Note_off_c, 2, 43, 0
4, 333312, Note_on_c, 2, 47, 58
4, 333500, Note_off_c, 2, 47, 0
4, 333696, Note_on_c, 2, 50, 58
4, 333884, Note_off_c, 2, 50, 0
4, 334080, Note_on_c, 2, 55, 58
4, 334080, Note_on_c, 2, 43, 58
4, 334652, Note_off_c, 2, 55, 0
4, 334652, Note_off_c, 2, 43, 0
4, 334652, End_track
5, 0, Start_track
5, 0, Title_t, "Midi by"
5, 0, Key_signature, 1, "major"
5, 0, End_track
6, 0, Start_track
6, 0, Title_t, "B Fisher"
6, 0, Key_signature, 1, "major"
6, 0, End_track
7, 0, Start_track
7, 0, Key_signature, 1, "major"
7, 0, End_track
8, 0, Start_track
8, 0, Key_signature, 1, "major"
8, 0, End_track
9, 0, Start_track
9, 0, Key_signature, 1, "major"
9, 0, End_track
10, 0, Start_track
10, 0, Key_signature, 1, "major"
10, 0, End_track
11, 0, Start_track
11, 0, Key_signature, 1, "major"
11, 0, End_track
12, 0, Start_track
12, 0, Key_signature, 1, "major"
12, 0, End_track
13, 0, Start_track
13, 0, Key_signature, 1, "major"
13, 0, End_track
14, 0, Start_track
14, 0, Key_signature, 1, "major"
14, 0, End_track
15, 0, Start_track
15, 0, Key_signature, 1, "major"
15, 0, End_track
16, 0, Start_track
16, 0, Key_signature, 1, "major"
16, 0, End_track
17, 0, Start_track
17, 0, Key_signature, 1, "major"
17, 0, End_track
0, 0, End_of_file
